<svg id="Foreground" xmlns="http://www.w3.org/2000/svg" viewBox="0 0 385.56 69.67"><defs><style>.cls-1{fill:#231f20;}.cls-2{fill:#808285;}</style></defs><title>TypeNetwork-LogoType_MSD-70_72pt</title><path class="cls-1" d="M36.94,7.15H21.17v48.1h-5V7.15H0.72V2.69H36.94V7.15Z"/><path class="cls-1" d="M62.35,20.54l-19.44,41q-2.38,5-5.26,6.55a11.19,11.19,0,0,1-5.33,1.58,8.15,8.15,0,0,1-2.41-.32l-1.55-.47,1.37-4.25a8.47,8.47,0,0,0,1.12.4,5.78,5.78,0,0,0,1.69.25A5.49,5.49,0,0,0,36,64a12.8,12.8,0,0,0,3.2-4.57L42,53.52l-15.26-33H31.9L44.5,48.7l13-28.15h4.9Z"/><path class="cls-1" d="M63.79,69.36V20.54h4.39V29.9a13,13,0,0,1,4.61-7.09,14.13,14.13,0,0,1,9.36-3.06,15.76,15.76,0,0,1,6.55,1.33,15.12,15.12,0,0,1,5,3.64,15.78,15.78,0,0,1,3.2,5.58,21.88,21.88,0,0,1,1.12,7.09A21.86,21.86,0,0,1,96.8,45a17.92,17.92,0,0,1-3.42,5.83,15,15,0,0,1-11.16,5A14.5,14.5,0,0,1,73.15,53a12.28,12.28,0,0,1-4.68-6.48V69.36H63.79Zm4.54-31.18a16.11,16.11,0,0,0,1,6,12.46,12.46,0,0,0,2.81,4.32,11.47,11.47,0,0,0,4.1,2.59,14.11,14.11,0,0,0,4.93.86,10.84,10.84,0,0,0,8.57-4,15.26,15.26,0,0,0,3.46-10.3,18.14,18.14,0,0,0-.83-5.54A13.68,13.68,0,0,0,90,27.64a11.17,11.17,0,0,0-3.85-3,11.93,11.93,0,0,0-5.26-1.12,12.89,12.89,0,0,0-4.9.94,10.8,10.8,0,0,0-4,2.81,14,14,0,0,0-2.7,4.61A18.26,18.26,0,0,0,68.33,38.18Z"/><path class="cls-1" d="M133.7,49.7a22.51,22.51,0,0,1-5.76,4.46Q124.56,56,118.44,56a21.43,21.43,0,0,1-7.34-1.22,16.63,16.63,0,0,1-5.83-3.53,16.21,16.21,0,0,1-3.85-5.69A19.75,19.75,0,0,1,100,38a19,19,0,0,1,1.33-7.09A18,18,0,0,1,105.08,25a17.49,17.49,0,0,1,12.85-5.4,18.12,18.12,0,0,1,7,1.33,15,15,0,0,1,5.47,3.85A18.24,18.24,0,0,1,134,30.95a24.23,24.23,0,0,1,1.3,8.17H104.54a12.69,12.69,0,0,0,3.92,9.32A13.74,13.74,0,0,0,118.29,52a16,16,0,0,0,7.88-1.62,18.29,18.29,0,0,0,4.64-3.64ZM104.61,35.59h26A11.78,11.78,0,0,0,127,27.1a12.59,12.59,0,0,0-9.25-3.53,12.88,12.88,0,0,0-5.15,1,13.47,13.47,0,0,0-4,2.63,12.37,12.37,0,0,0-2.7,3.82A13.87,13.87,0,0,0,104.61,35.59Z"/><path class="cls-2" d="M181.44,55.25h-3.67L144,11.69V55.25h-4.82V2.69h3.89l33.62,43.49V2.69h4.75V55.25Z"/><path class="cls-2" d="M218.95,49.7a22.5,22.5,0,0,1-5.76,4.46Q209.8,56,203.69,56a21.43,21.43,0,0,1-7.34-1.22,16.63,16.63,0,0,1-5.83-3.53,16.2,16.2,0,0,1-3.85-5.69,19.74,19.74,0,0,1-1.4-7.63,19,19,0,0,1,1.33-7.09A18,18,0,0,1,190.33,25a17.49,17.49,0,0,1,12.85-5.4,18.12,18.12,0,0,1,7,1.33,15,15,0,0,1,5.47,3.85,18.26,18.26,0,0,1,3.56,6.16,24.25,24.25,0,0,1,1.29,8.17H189.79a12.69,12.69,0,0,0,3.92,9.32A13.75,13.75,0,0,0,203.54,52a16,16,0,0,0,7.88-1.62,18.29,18.29,0,0,0,4.64-3.64ZM189.86,35.59h26a11.78,11.78,0,0,0-3.64-8.5A12.59,12.59,0,0,0,203,23.57a12.88,12.88,0,0,0-5.15,1,13.48,13.48,0,0,0-4,2.63,12.38,12.38,0,0,0-2.7,3.82A13.88,13.88,0,0,0,189.86,35.59Z"/><path class="cls-2" d="M238,50.78l0.43,3.89a5.26,5.26,0,0,1-2,.72,15.08,15.08,0,0,1-3,.29,10,10,0,0,1-5.94-1.87q-2.63-1.87-2.63-6.7V24.58h-5.54v-4h5.54V11.9l4.68-.65v9.29h8.28v4H229.6v22.1a5,5,0,0,0,1.26,3.74,4.69,4.69,0,0,0,3.42,1.22,7.86,7.86,0,0,0,2.2-.32A10.54,10.54,0,0,0,238,50.78Z"/><path class="cls-2" d="M274.53,55.46L265,31.56,254.8,55.46h-2.74L239.83,20.54h4.9L254,48.48,263.73,25h2.88l9.14,23.4L285,20.54h4.54L277.27,55.46h-2.74Z"/><path class="cls-2" d="M324.21,37.1a19.27,19.27,0,0,1-1.44,7.49,19,19,0,0,1-3.92,6,17.79,17.79,0,0,1-5.87,4A18.38,18.38,0,0,1,305.71,56a18.05,18.05,0,0,1-6.77-1.3,18.36,18.36,0,0,1-5.72-3.6,16.87,16.87,0,0,1-4-5.65,19.09,19.09,0,0,1-.07-14.54A18.73,18.73,0,0,1,293,25.08a18.36,18.36,0,0,1,5.76-4,17,17,0,0,1,7-1.48,20,20,0,0,1,7.2,1.3,18,18,0,0,1,5.87,3.6A16.74,16.74,0,0,1,322.77,30,17.18,17.18,0,0,1,324.21,37.1Zm-31.61.79a15.28,15.28,0,0,0,1,5.76,13.37,13.37,0,0,0,2.84,4.43,12.57,12.57,0,0,0,4.25,2.84,13.47,13.47,0,0,0,5.18,1,13.1,13.1,0,0,0,5.44-1.12,12.68,12.68,0,0,0,4.25-3.06,14.43,14.43,0,0,0,2.77-4.57,15.65,15.65,0,0,0,1-5.65,14.69,14.69,0,0,0-1-5.33,13.06,13.06,0,0,0-2.77-4.39,13.33,13.33,0,0,0-4.39-3,14.24,14.24,0,0,0-5.69-1.12,12.11,12.11,0,0,0-5.15,1.12,12.73,12.73,0,0,0-4.14,3,13.88,13.88,0,0,0-2.7,4.5A15.65,15.65,0,0,0,292.6,37.9Z"/><path class="cls-2" d="M350.85,21.77l-2.16,4.1a9.24,9.24,0,0,0-2.92-1.58,11.46,11.46,0,0,0-3.71-.58,9.61,9.61,0,0,0-3.85.83,10.17,10.17,0,0,0-3.35,2.34,12.1,12.1,0,0,0-2.34,3.6,11.33,11.33,0,0,0-.9,4.54V55.25h-4.68V20.54h4.39V29a10.34,10.34,0,0,1,1.4-3.31,12.84,12.84,0,0,1,2.63-3,13.12,13.12,0,0,1,3.71-2.16,12.5,12.5,0,0,1,4.57-.83,14.47,14.47,0,0,1,4.25.58A8.14,8.14,0,0,1,350.85,21.77Z"/><path class="cls-2" d="M385.27,55.18l-5.54.07-14-17.42L358,46.18v9.07H353.3V0.17h4.54v40.9l18.58-20.52h5.33l-12.89,14Z"/></svg>