<?xml version="1.0" encoding="utf-8" ?><svg version="1.1" xmlns = 'http://www.w3.org/2000/svg'><defs><font id='web' horiz-adv-x="1000">
<font-face font-family="web" descent="-200" cap-height="730" units-per-em="1000" bbox="-157,-311,1006,1012" x-height="436" ascent="800" />
<missing-glyph horiz-adv-x="500" d="" /><glyph horiz-adv-x="196" d="" unicode=" " />
<glyph horiz-adv-x="261" d="M 170 433 L 148 190 L 116 190 L 95 433 L 95 730 L 170 730 L 170 433 Z M 167 0 L 98 0 L 98 87 L 167 87 L 167 0 Z" unicode="!" />
<glyph horiz-adv-x="361" d="M 294 624 L 289 496 L 237 496 L 234 623 L 234 730 L 294 730 L 294 624 Z M 127 623 L 123 496 L 70 496 L 66 623 L 66 730 L 127 730 L 127 623 Z" unicode="&#x22;" />
<glyph horiz-adv-x="592" d="M 540 235 L 406 235 L 385 0 L 343 1 L 364 235 L 210 235 L 189 0 L 146 1 L 167 235 L 32 235 L 32 292 L 172 292 L 184 435 L 51 435 L 51 491 L 189 491 L 210 730 L 253 729 L 232 491 L 386 491 L 407 730 L 449 729 L 428 491 L 559 491 L 559 435 L 423 435 L 411 292 L 540 292 L 540 235 Z M 215 292 L 369 292 L 381 435 L 227 435 L 215 292 Z" unicode="#" />
<glyph horiz-adv-x="487" d="M 447 183 C 447 132 429 90 395 57 C 361 24 318 5 266 1 L 266 -122 L 220 -122 L 220 1 C 180 3 143 12 111 28 C 79 43 52 63 31 87 L 64 136 C 82 115 105 98 133 84 C 161 70 190 62 220 59 L 220 353 C 158 381 114 411 88 442 C 61 472 48 512 48 560 C 48 606 64 645 96 677 C 128 708 170 725 220 729 L 220 790 L 266 790 L 266 729 C 296 726 325 719 353 708 C 381 696 406 680 428 658 L 391 611 C 373 629 354 643 332 653 C 310 663 288 669 266 672 L 266 400 L 270 398 C 337 365 383 333 409 302 C 434 270 447 231 447 183 Z M 111 560 C 110 530 117 505 133 486 C 149 466 178 445 220 423 L 220 673 C 188 670 162 659 142 639 C 121 619 111 592 111 560 Z M 386 185 C 386 214 378 239 362 261 C 346 283 314 306 266 331 L 266 59 C 298 63 326 75 350 97 C 374 119 386 148 386 185 Z" unicode="$" />
<glyph horiz-adv-x="721" d="M 186 364 C 168 364 151 367 134 375 C 117 383 102 394 88 410 C 74 426 63 445 55 469 C 47 493 43 520 43 552 C 43 578 46 602 54 625 C 61 648 71 668 84 685 C 96 702 111 716 129 726 C 147 736 166 741 186 741 C 208 741 228 736 246 726 C 264 716 279 702 292 686 C 304 669 314 649 321 627 C 327 604 331 580 331 555 C 331 528 327 503 320 480 C 312 456 302 436 290 419 C 277 401 262 388 244 378 C 226 368 206 364 186 364 Z M 168 0 L 118 0 L 540 730 L 589 730 L 168 0 Z M 185 414 C 215 414 237 427 251 454 C 265 481 273 513 273 551 C 273 587 266 620 252 648 C 238 676 217 690 188 690 C 159 690 137 676 123 648 C 109 620 102 588 102 551 C 102 511 109 478 125 452 C 140 426 160 414 185 414 Z M 533 -3 C 515 -3 498 0 481 8 C 464 16 449 27 436 43 C 422 59 411 78 403 102 C 395 126 391 153 391 185 C 391 211 394 235 402 258 C 409 281 419 301 432 318 C 444 335 459 349 477 359 C 495 369 514 374 536 374 C 558 374 577 369 595 359 C 613 349 628 335 640 319 C 652 302 662 282 669 260 C 675 237 679 213 679 188 C 679 161 675 136 668 113 C 661 89 651 69 639 52 C 626 34 610 21 592 11 C 574 1 554 -3 533 -3 Z M 533 48 C 562 48 584 61 599 88 C 614 114 622 147 622 185 C 622 222 614 254 600 282 C 586 310 564 324 536 324 C 509 324 488 310 473 283 C 457 255 450 223 450 185 C 450 145 457 112 473 86 C 488 60 508 48 533 48 Z" unicode="%" />
<glyph horiz-adv-x="650" d="M 586 -4 L 502 85 C 468 55 431 32 392 16 C 352 0 310 -8 266 -8 C 232 -8 200 -4 172 4 C 143 12 118 23 98 39 C 77 55 61 74 49 97 C 37 119 32 145 32 175 C 32 203 36 229 46 251 C 55 273 67 292 83 309 C 99 326 117 342 139 357 C 160 371 182 386 206 400 L 179 428 C 161 446 145 469 129 496 C 113 522 106 553 106 589 C 106 608 110 626 118 644 C 126 662 138 677 153 691 C 168 705 186 716 207 724 C 228 732 251 737 276 737 C 326 737 367 722 397 693 C 427 664 443 630 443 590 C 443 548 429 512 403 482 C 377 452 341 422 295 392 L 508 171 C 520 185 533 201 545 217 C 557 233 570 251 582 269 L 629 235 C 616 215 603 196 589 178 C 575 160 562 144 548 130 L 632 43 L 586 -4 Z M 229 460 L 257 431 C 296 455 326 480 348 504 C 370 528 381 554 381 583 C 381 610 372 634 354 655 C 336 676 310 687 276 687 C 244 687 219 676 200 655 C 180 634 171 611 171 587 C 171 564 176 542 187 520 C 197 498 211 478 229 460 Z M 104 176 C 104 156 108 138 117 122 C 125 106 137 92 152 81 C 167 70 185 62 205 56 C 225 50 246 47 269 47 C 305 47 339 54 371 68 C 403 82 434 101 463 126 L 243 360 C 203 334 169 307 143 280 C 117 252 104 218 104 176 Z" unicode="&#x26;" />
<glyph horiz-adv-x="194" d="M 128 622 L 124 493 L 70 493 L 66 622 L 66 730 L 128 730 L 128 622 Z" unicode="'" />
<glyph horiz-adv-x="298" d="M 282 -122 L 282 -179 C 246 -159 213 -133 182 -101 C 151 -68 124 -31 101 9 C 78 49 60 94 46 143 C 32 191 26 241 26 293 C 26 345 32 394 46 442 C 60 489 78 532 101 572 C 124 611 151 646 183 676 C 214 706 247 731 282 749 L 282 692 C 230 658 186 605 150 535 C 114 465 96 384 96 293 C 96 251 100 209 108 169 C 116 128 128 90 144 54 C 160 18 179 -15 203 -45 C 226 -75 252 -101 282 -122 Z" unicode="(" />
<glyph horiz-adv-x="298" d="M 16 692 L 16 749 C 48 733 80 710 111 681 C 142 651 169 617 193 577 C 217 537 236 492 250 442 C 264 392 272 338 272 282 C 272 230 265 180 251 132 C 237 84 218 41 194 1 C 170 -38 143 -73 112 -104 C 81 -134 49 -159 16 -179 L 16 -119 C 43 -100 68 -76 92 -48 C 115 -20 135 11 152 45 C 169 79 182 117 192 157 C 202 197 207 239 207 282 C 207 330 202 376 192 419 C 182 462 168 501 151 536 C 133 570 113 601 90 628 C 66 654 42 676 16 692 Z" unicode=")" />
<glyph horiz-adv-x="392" d="M 354 597 L 223 558 L 314 458 L 275 425 L 197 539 L 119 425 L 78 457 L 171 559 L 39 597 L 63 647 L 181 589 L 171 730 L 223 730 L 213 589 L 334 643 L 354 597 Z" unicode="*" />
<glyph horiz-adv-x="500" d="M 467 305 L 277 305 L 277 121 L 223 121 L 223 305 L 33 305 L 33 357 L 223 357 L 223 541 L 277 541 L 277 357 L 467 357 L 467 305 Z" unicode="+" />
<glyph horiz-adv-x="210" d="M 171 92 C 165 49 152 6 132 -36 C 112 -79 88 -115 61 -145 L 12 -122 C 26 -103 43 -74 63 -34 C 82 6 95 48 102 92 L 171 92 Z" unicode="," />
<glyph horiz-adv-x="323" d="M 281 231 L 43 231 L 43 290 L 281 290 L 281 231 Z" unicode="-" />
<glyph horiz-adv-x="211" d="M 141 0 L 70 0 L 70 110 L 141 110 L 141 0 Z" unicode="." />
<glyph horiz-adv-x="303" d="M 297 730 L 68 0 L 7 0 L 237 730 L 297 730 Z" unicode="/" />
<glyph horiz-adv-x="529" d="M 262 -10 C 194 -10 139 22 99 86 C 59 150 39 242 39 361 C 39 413 43 463 52 510 C 61 556 75 597 94 631 C 112 665 136 691 165 711 C 193 731 227 741 266 741 C 305 741 339 731 368 712 C 396 692 420 666 438 633 C 456 599 469 560 477 514 C 485 468 490 420 490 369 C 490 313 485 261 476 215 C 466 168 452 128 433 95 C 414 62 390 36 362 18 C 333 0 300 -10 262 -10 Z M 262 48 C 290 48 314 55 334 70 C 354 85 371 106 385 134 C 398 161 408 194 414 233 C 420 271 424 314 424 361 C 424 407 421 449 415 489 C 409 528 400 562 388 591 C 375 619 358 642 338 658 C 318 674 293 682 264 682 C 236 682 213 674 193 659 C 173 643 156 622 143 594 C 130 566 120 532 114 492 C 108 452 105 409 105 362 C 105 265 118 188 145 132 C 171 76 210 48 262 48 Z" unicode="0" />
<glyph horiz-adv-x="335" d="M 247 0 L 180 0 L 180 629 C 167 609 147 590 121 571 C 94 551 69 540 45 538 L 45 605 C 73 608 101 622 128 647 C 155 671 178 699 197 731 L 247 731 L 247 0 Z" unicode="1" />
<glyph horiz-adv-x="508" d="M 472 0 L 32 0 L 32 19 L 322 360 C 344 385 362 413 377 444 C 392 475 400 509 400 545 C 400 587 386 620 358 644 C 330 668 294 680 251 680 C 201 680 162 664 136 633 C 110 601 97 560 97 508 L 37 508 C 37 585 57 643 97 682 C 137 720 189 740 254 740 C 283 740 311 736 337 728 C 363 720 385 708 404 692 C 422 676 437 657 448 633 C 459 609 465 582 465 551 C 465 499 455 455 436 420 C 417 385 397 355 375 330 L 138 58 L 472 58 L 472 0 Z" unicode="2" />
<glyph horiz-adv-x="505" d="M 238 -10 C 181 -10 134 -1 98 15 C 61 32 32 51 11 73 L 45 121 C 63 103 88 87 118 71 C 148 55 186 48 232 48 C 261 48 287 52 310 62 C 333 71 352 83 368 99 C 384 114 396 132 404 153 C 412 174 416 196 416 219 C 416 265 399 301 367 327 C 334 353 294 366 246 366 L 139 366 L 139 425 L 245 425 C 288 425 323 438 351 464 C 379 490 393 521 393 558 C 393 590 380 619 356 644 C 332 669 297 682 252 682 C 207 682 171 672 143 654 C 115 635 93 612 76 584 L 34 626 C 51 654 78 681 114 705 C 150 729 197 741 257 741 C 319 741 367 725 403 693 C 438 661 456 619 456 568 C 456 544 452 523 445 504 C 437 485 428 468 416 454 C 404 440 390 428 375 418 C 359 408 344 402 329 398 C 349 394 368 387 386 377 C 404 367 420 354 434 339 C 448 324 459 306 467 286 C 475 265 479 242 479 217 C 479 189 474 161 465 134 C 455 106 441 82 421 61 C 401 39 376 22 346 9 C 316 -3 280 -10 238 -10 Z" unicode="3" />
<glyph horiz-adv-x="522" d="M 513 203 L 400 203 L 400 0 L 339 0 L 339 203 L 14 203 L 13 246 L 358 743 L 400 743 L 400 259 L 513 259 L 513 203 Z M 340 259 L 340 625 L 86 259 L 340 259 Z" unicode="4" />
<glyph horiz-adv-x="512" d="M 247 -10 C 198 -10 154 -1 115 15 C 76 32 46 53 26 78 L 62 125 C 80 102 105 83 136 69 C 166 54 203 47 245 47 C 298 47 340 65 372 103 C 403 141 419 190 419 250 C 419 306 404 349 375 380 C 345 411 308 427 262 427 C 224 427 191 419 164 403 C 137 387 117 364 103 335 L 57 347 L 85 730 L 439 730 L 439 669 L 135 669 L 116 400 C 128 424 149 444 178 460 C 206 476 241 485 281 485 C 341 485 390 464 428 424 C 466 383 485 326 485 254 C 485 174 463 110 419 62 C 375 14 318 -10 247 -10 Z" unicode="5" />
<glyph horiz-adv-x="499" d="M 260 -11 C 192 -11 138 11 97 55 C 55 99 35 157 35 229 C 35 304 54 378 93 451 C 132 524 185 601 253 681 L 307 745 L 356 710 L 315 662 C 259 595 213 534 178 479 C 142 424 121 379 113 343 C 123 367 142 389 169 409 C 196 429 231 439 273 439 C 305 439 333 433 359 421 C 384 409 405 394 422 374 C 439 354 452 330 462 302 C 471 274 476 245 476 214 C 476 183 470 154 460 127 C 450 99 435 75 417 55 C 398 35 375 19 349 7 C 322 -5 292 -11 260 -11 Z M 261 46 C 307 46 343 62 371 94 C 399 126 413 166 413 212 C 413 260 400 300 374 333 C 348 365 310 382 262 382 C 241 382 221 378 202 371 C 182 363 165 353 151 339 C 136 325 124 307 116 287 C 107 267 103 244 103 219 C 103 167 117 125 146 93 C 174 61 213 46 261 46 Z" unicode="6" />
<glyph horiz-adv-x="441" d="M 441 730 L 443 707 L 115 -4 L 57 20 L 358 669 L 14 669 L 14 730 L 441 730 Z" unicode="7" />
<glyph horiz-adv-x="537" d="M 353 386 C 370 382 388 376 406 367 C 424 357 441 345 455 330 C 469 314 481 296 490 274 C 499 252 504 227 504 199 C 504 137 483 87 441 48 C 399 9 342 -10 270 -10 C 198 -10 141 8 99 46 C 57 83 37 133 37 195 C 37 224 42 250 52 273 C 62 296 74 316 90 332 C 105 348 122 360 140 369 C 158 377 175 383 191 385 C 177 388 162 394 146 402 C 130 410 116 421 103 435 C 90 449 79 465 70 485 C 61 505 57 528 57 554 C 57 582 62 608 74 631 C 85 654 100 674 119 690 C 138 706 161 718 187 727 C 213 735 240 740 269 740 C 335 740 387 723 425 689 C 463 655 483 612 483 558 C 483 533 479 511 471 491 C 463 471 452 455 440 441 C 428 427 414 415 398 406 C 382 396 367 390 353 386 Z M 271 410 C 315 410 351 422 379 448 C 407 473 421 505 421 545 C 421 589 406 623 378 647 C 350 671 314 683 270 683 C 227 683 191 670 162 646 C 132 621 118 588 118 546 C 118 524 122 505 130 488 C 138 471 150 457 164 445 C 178 433 194 425 212 419 C 230 413 250 410 271 410 Z M 271 45 C 323 45 364 59 395 87 C 425 115 441 155 441 205 C 441 253 424 290 392 316 C 360 342 319 355 271 355 C 221 355 179 342 147 316 C 115 290 99 252 99 202 C 99 154 115 115 147 87 C 179 59 220 45 271 45 Z" unicode="8" />
<glyph horiz-adv-x="499" d="M 196 -12 L 150 28 L 199 77 C 221 99 242 125 264 153 C 285 181 304 209 322 238 C 339 266 354 294 366 322 C 378 350 386 374 390 396 C 377 369 355 345 325 324 C 294 303 260 293 222 293 C 190 293 162 298 138 310 C 113 322 92 338 75 358 C 58 378 45 402 36 430 C 27 458 23 487 23 519 C 23 549 28 578 38 606 C 48 633 63 657 83 677 C 102 697 125 713 152 725 C 179 737 209 743 242 743 C 272 743 301 737 329 726 C 356 715 379 699 399 679 C 419 659 434 634 446 604 C 458 574 464 540 464 502 C 464 460 458 418 447 377 C 435 335 420 296 402 258 C 383 220 361 184 337 150 C 313 116 288 85 263 58 L 196 -12 Z M 236 351 C 257 351 277 355 297 363 C 317 371 334 382 349 396 C 363 410 375 428 384 448 C 392 468 397 490 397 515 C 397 568 381 609 350 639 C 319 669 283 684 241 684 C 193 684 156 668 128 637 C 100 605 87 567 87 521 C 87 471 99 431 125 399 C 151 367 188 351 236 351 Z" unicode="9" />
<glyph horiz-adv-x="215" d="M 142 327 L 74 327 L 74 436 L 142 436 L 142 327 Z M 142 0 L 74 0 L 74 109 L 142 109 L 142 0 Z" unicode=":" />
<glyph horiz-adv-x="215" d="M 148 327 L 78 327 L 78 436 L 148 436 L 148 327 Z M 153 91 C 147 46 134 3 115 -38 C 95 -80 72 -115 45 -145 L -4 -122 C 10 -103 28 -74 48 -34 C 68 6 81 47 86 91 L 153 91 Z" unicode=";" />
<glyph horiz-adv-x="377" d="M 331 95 L 42 304 L 42 344 L 331 553 L 331 487 L 111 325 L 331 161 L 331 95 Z" unicode="&#x3C;" />
<glyph horiz-adv-x="503" d="M 446 394 L 58 394 L 58 450 L 446 450 L 446 394 Z M 446 186 L 58 186 L 58 243 L 446 243 L 446 186 Z" unicode="=" />
<glyph horiz-adv-x="377" d="M 333 304 L 44 95 L 44 161 L 265 325 L 44 488 L 44 553 L 333 344 L 333 304 Z" unicode="&#x3E;" />
<glyph horiz-adv-x="441" d="M 172 189 C 172 235 177 273 188 303 C 199 333 217 362 243 390 C 253 400 264 411 276 423 C 288 435 299 448 309 462 C 319 476 328 491 335 508 C 342 524 346 543 346 564 C 346 600 333 629 307 651 C 281 672 250 683 212 683 C 179 683 150 675 125 660 C 99 644 78 625 61 601 L 19 641 C 43 673 74 698 110 716 C 146 733 185 742 225 742 C 282 742 328 726 363 696 C 397 665 415 623 415 570 C 415 544 411 521 403 501 C 395 481 386 462 374 446 C 362 429 348 413 334 399 C 320 384 306 370 293 357 C 269 335 253 309 247 277 C 240 245 236 216 236 189 L 172 189 Z M 168 0 L 168 87 L 242 87 L 242 0 L 168 0 Z" unicode="?" />
<glyph horiz-adv-x="841" d="M 415 -30 C 361 -30 312 -20 266 0 C 220 20 180 47 147 81 C 113 115 87 155 68 201 C 49 247 40 296 40 348 C 40 400 49 450 68 496 C 87 542 113 583 147 617 C 181 651 221 677 267 697 C 313 717 363 727 417 727 C 473 727 524 718 571 701 C 618 683 658 659 691 628 C 724 597 750 560 768 518 C 786 476 796 430 796 380 C 796 335 790 297 780 266 C 769 234 756 209 740 190 C 724 170 707 156 688 148 C 668 139 650 135 634 135 C 603 135 579 142 561 158 C 543 173 533 192 530 214 C 522 197 503 180 472 162 C 441 144 407 135 370 135 C 320 135 282 147 257 171 C 232 195 220 225 220 261 C 220 305 237 339 273 364 C 308 388 354 401 410 401 L 523 401 L 523 415 C 523 457 512 486 491 502 C 469 518 443 526 413 526 C 387 526 362 522 340 516 C 317 509 298 502 282 496 L 263 542 C 282 551 305 559 332 565 C 358 571 385 574 411 574 C 467 574 508 559 536 531 C 564 503 578 460 578 404 L 578 246 C 578 229 582 214 591 200 C 599 186 615 179 638 180 C 647 180 658 182 671 188 C 683 193 695 203 707 217 C 718 231 727 250 735 276 C 743 302 747 335 747 375 C 747 418 739 458 723 496 C 707 533 685 565 657 593 C 628 620 593 641 553 657 C 512 673 467 681 418 681 C 371 681 327 672 287 655 C 247 637 212 614 183 584 C 154 554 131 518 115 478 C 98 438 90 395 90 349 C 90 303 98 260 115 220 C 131 179 154 144 183 114 C 212 84 247 60 287 42 C 327 24 370 16 417 16 C 437 16 459 18 481 22 C 503 26 527 34 552 46 L 570 4 C 542 -8 516 -17 490 -22 C 464 -27 439 -30 415 -30 Z M 382 183 C 397 183 413 185 429 189 C 445 193 459 199 472 206 C 485 212 496 220 506 228 C 515 236 521 245 523 253 L 523 355 L 412 355 C 368 355 335 347 313 331 C 291 315 281 294 281 266 C 281 242 289 222 307 206 C 324 190 349 183 382 183 Z" unicode="@" />
<glyph horiz-adv-x="586" d="M 581 0 L 510 0 L 430 218 L 151 218 L 73 0 L 5 0 L 272 734 L 315 734 L 581 0 Z M 411 278 L 291 611 L 171 278 L 411 278 Z" unicode="A" />
<glyph horiz-adv-x="537" d="M 90 0 L 90 730 L 273 730 C 329 730 375 714 411 684 C 446 653 464 612 464 560 C 464 508 451 467 426 436 C 400 404 369 385 331 379 C 350 377 370 373 390 365 C 410 357 427 346 443 332 C 459 318 472 300 482 279 C 492 258 497 234 497 206 C 497 144 477 95 439 57 C 401 19 349 0 284 0 L 90 0 Z M 158 402 L 258 402 C 282 402 303 406 321 414 C 338 422 352 432 363 445 C 374 458 382 473 387 490 C 392 507 395 525 395 543 C 395 581 382 611 358 634 C 334 656 301 668 259 668 L 158 668 L 158 402 Z M 158 62 L 282 62 C 332 62 368 76 392 104 C 415 132 427 167 427 208 C 427 250 412 283 383 307 C 354 331 319 343 277 343 L 158 343 L 158 62 Z" unicode="B" />
<glyph horiz-adv-x="632" d="M 363 -10 C 320 -10 279 -1 241 15 C 202 31 168 55 140 87 C 111 119 88 158 71 205 C 54 251 46 305 46 365 C 46 420 53 471 69 517 C 84 563 106 603 134 636 C 162 668 195 694 234 712 C 273 730 316 740 364 740 C 426 740 477 729 515 708 C 553 686 585 659 610 626 L 561 580 C 541 606 515 629 484 647 C 453 665 414 675 366 675 C 290 675 229 646 185 590 C 140 534 118 457 118 361 C 118 309 125 264 139 226 C 153 187 171 155 194 129 C 217 103 244 84 274 72 C 304 59 335 53 367 53 C 417 53 459 63 493 84 C 527 105 555 131 577 163 L 623 125 C 597 85 562 52 518 27 C 474 2 423 -10 363 -10 Z" unicode="C" />
<glyph horiz-adv-x="671" d="M 90 0 L 90 730 L 271 730 C 325 730 375 721 419 705 C 463 688 500 664 530 634 C 560 603 584 566 600 522 C 616 478 624 430 624 376 C 624 323 616 273 601 227 C 585 181 562 141 532 108 C 502 74 464 48 418 29 C 372 9 320 0 260 0 L 90 0 Z M 160 61 L 256 61 C 306 61 350 68 388 84 C 425 100 456 121 480 149 C 504 177 522 210 534 248 C 546 286 552 328 552 373 C 552 464 526 536 476 588 C 425 640 356 667 269 667 L 160 667 L 160 61 Z" unicode="D" />
<glyph horiz-adv-x="509" d="M 467 0 L 90 0 L 90 730 L 449 730 L 449 667 L 159 667 L 159 393 L 438 393 L 438 330 L 159 330 L 159 63 L 467 63 L 467 0 Z" unicode="E" />
<glyph horiz-adv-x="449" d="M 418 667 L 160 667 L 160 397 L 405 397 L 405 334 L 160 334 L 160 0 L 90 0 L 90 730 L 418 730 L 418 667 Z" unicode="F" />
<glyph horiz-adv-x="693" d="M 380 354 L 647 354 L 647 140 C 622 93 586 56 538 30 C 490 3 434 -10 370 -10 C 324 -10 282 0 243 17 C 203 35 169 61 140 94 C 111 126 88 166 71 212 C 54 258 46 309 46 365 C 46 422 54 474 71 520 C 88 566 111 606 141 638 C 170 670 204 695 244 713 C 284 731 326 740 372 740 C 436 740 487 728 525 706 C 562 683 591 658 611 630 L 561 590 C 542 612 517 632 487 649 C 457 666 418 675 370 675 C 334 675 300 667 269 653 C 238 639 211 618 189 592 C 167 565 149 532 136 494 C 123 455 117 412 117 364 C 117 318 123 276 136 238 C 149 199 167 166 190 138 C 213 110 240 89 272 73 C 303 57 337 50 373 50 C 421 50 463 59 501 79 C 538 99 566 125 585 159 L 585 291 L 380 291 L 380 354 Z" unicode="G" />
<glyph horiz-adv-x="684" d="M 594 0 L 524 0 L 524 328 L 160 328 L 160 0 L 90 0 L 90 730 L 160 730 L 160 394 L 524 394 L 524 730 L 594 730 L 594 0 Z" unicode="H" />
<glyph horiz-adv-x="259" d="M 165 0 L 95 0 L 95 730 L 165 730 L 165 0 Z" unicode="I" />
<glyph horiz-adv-x="346" d="M 277 730 L 277 187 C 277 160 273 135 265 111 C 257 87 246 66 231 48 C 215 30 196 15 173 5 C 150 -5 124 -11 94 -11 C 79 -11 65 -10 51 -8 C 37 -6 25 -4 17 -2 L 19 63 C 25 60 34 58 48 56 C 62 54 74 53 86 53 C 126 53 156 66 178 92 C 200 118 211 149 211 185 L 211 730 L 277 730 Z" unicode="J" />
<glyph horiz-adv-x="609" d="M 602 0 L 515 0 L 249 350 L 160 244 L 160 0 L 90 0 L 90 730 L 160 730 L 160 330 L 481 730 L 564 730 L 295 400 L 602 0 Z" unicode="K" />
<glyph horiz-adv-x="446" d="M 438 0 L 90 0 L 90 730 L 160 730 L 160 63 L 438 63 L 438 0 Z" unicode="L" />
<glyph horiz-adv-x="814" d="M 724 0 L 657 0 L 657 585 L 421 180 L 393 180 L 157 583 L 157 0 L 90 0 L 90 730 L 140 730 L 409 278 L 675 730 L 724 730 L 724 0 Z" unicode="M" />
<glyph horiz-adv-x="702" d="M 612 0 L 562 0 L 157 591 L 157 0 L 90 0 L 90 730 L 142 730 L 546 140 L 546 730 L 612 730 L 612 0 Z" unicode="N" />
<glyph horiz-adv-x="754" d="M 380 -10 C 330 -10 285 -1 244 17 C 203 35 168 60 139 93 C 109 126 86 166 70 213 C 54 260 46 312 46 370 C 46 424 54 473 71 519 C 87 565 110 604 139 636 C 168 668 203 694 243 712 C 283 730 326 740 373 740 C 423 740 468 731 510 713 C 552 695 587 670 616 638 C 645 606 668 566 684 520 C 700 474 708 422 708 366 C 708 310 699 258 682 212 C 665 166 642 126 613 93 C 583 60 548 35 508 17 C 468 -1 425 -10 380 -10 Z M 379 53 C 415 53 448 60 480 75 C 512 89 539 110 562 138 C 585 165 603 198 616 238 C 629 277 636 321 636 371 C 636 417 629 458 616 496 C 603 534 585 566 562 592 C 539 618 512 639 480 654 C 448 668 413 676 375 676 C 337 676 302 669 271 655 C 239 641 212 620 190 594 C 167 567 149 534 137 496 C 125 457 119 413 119 365 C 119 315 125 271 139 232 C 153 193 171 160 195 134 C 218 108 245 88 277 74 C 309 60 343 53 379 53 Z" unicode="O" />
<glyph horiz-adv-x="530" d="M 90 0 L 90 730 L 292 730 C 322 730 349 725 375 716 C 401 707 423 694 442 677 C 461 659 476 638 487 612 C 497 586 503 557 503 525 C 503 461 484 408 446 368 C 408 328 358 308 298 308 L 160 308 L 160 0 L 90 0 Z M 160 370 L 281 370 C 329 370 366 384 392 412 C 418 440 432 478 432 526 C 432 572 416 607 386 631 C 355 655 318 667 275 667 L 160 667 L 160 370 Z" unicode="P" />
<glyph horiz-adv-x="745" d="M 639 -91 L 639 -156 C 585 -152 535 -137 490 -110 C 445 -82 411 -49 389 -9 C 387 -9 386 -9 384 -9 C 382 -9 381 -9 380 -9 C 330 -9 285 0 244 18 C 203 36 168 61 139 94 C 109 126 86 166 70 213 C 54 260 46 312 46 370 C 46 424 54 473 71 519 C 87 565 110 604 140 636 C 169 668 204 694 244 712 C 284 730 327 740 374 740 C 424 740 469 731 510 713 C 551 695 586 670 616 638 C 645 605 668 565 684 519 C 700 473 708 421 708 365 C 708 319 702 276 690 236 C 678 196 661 160 640 129 C 618 97 593 71 563 49 C 533 27 500 12 464 2 C 483 -24 509 -46 541 -63 C 573 -79 606 -89 639 -91 Z M 379 52 C 415 52 448 59 480 74 C 512 89 539 110 562 138 C 585 165 603 198 616 238 C 629 278 636 322 636 372 C 636 418 629 461 616 499 C 602 537 584 569 561 595 C 538 621 511 641 479 655 C 447 669 412 677 375 677 C 337 677 302 670 271 656 C 239 642 212 621 190 595 C 167 569 149 536 137 497 C 125 458 119 414 119 365 C 119 315 125 271 139 232 C 153 193 171 160 195 134 C 218 107 245 87 277 73 C 309 59 343 52 379 52 Z" unicode="Q" />
<glyph horiz-adv-x="548" d="M 90 0 L 90 730 L 266 730 C 324 730 371 712 407 678 C 443 644 461 596 461 536 C 461 505 456 478 448 454 C 439 430 428 409 414 393 C 400 376 383 363 364 353 C 345 343 326 338 306 336 L 302 334 L 516 0 L 436 0 L 234 319 L 158 319 L 158 0 L 90 0 Z M 158 379 L 253 379 C 293 379 327 392 353 418 C 379 443 392 479 392 527 C 392 569 379 603 354 629 C 328 654 295 667 253 667 L 158 667 L 158 379 Z" unicode="R" />
<glyph horiz-adv-x="460" d="M 239 -10 C 194 -10 153 -2 117 13 C 81 28 50 50 26 80 L 66 131 C 86 104 111 84 142 70 C 173 56 204 50 235 50 C 271 50 301 61 327 85 C 353 108 366 139 366 177 C 366 211 355 240 335 265 C 315 290 278 316 225 343 C 167 371 122 401 92 433 C 62 465 47 509 47 566 C 47 618 64 660 98 692 C 132 724 176 740 230 740 C 268 740 302 733 332 721 C 361 708 387 692 410 672 L 374 619 C 355 636 334 650 310 661 C 286 672 260 678 234 678 C 198 678 169 667 147 645 C 125 623 114 596 114 564 C 114 528 124 500 145 478 C 166 456 206 430 265 402 C 327 371 371 338 396 304 C 420 269 433 227 433 179 C 433 149 427 123 417 100 C 406 76 392 56 375 40 C 357 24 337 11 313 3 C 289 -5 265 -10 239 -10 Z" unicode="S" />
<glyph horiz-adv-x="467" d="M 458 667 L 266 667 L 266 0 L 196 0 L 196 667 L 9 667 L 9 730 L 458 730 L 458 667 Z" unicode="T" />
<glyph horiz-adv-x="668" d="M 585 730 L 585 248 C 585 206 578 168 565 136 C 551 104 533 77 511 55 C 488 33 461 17 431 6 C 400 -4 367 -10 332 -10 C 298 -10 265 -4 235 6 C 205 16 178 32 156 54 C 133 75 115 102 102 134 C 89 166 83 204 83 248 L 83 730 L 151 730 L 151 242 C 151 212 155 185 165 162 C 175 138 188 118 204 102 C 220 86 239 73 261 65 C 283 57 307 53 332 53 C 357 53 381 57 403 65 C 425 73 445 84 462 100 C 478 116 492 135 502 159 C 512 183 517 210 517 242 L 517 730 L 585 730 Z" unicode="U" />
<glyph horiz-adv-x="584" d="M 580 730 L 310 -6 L 265 -6 L 5 730 L 76 730 L 291 120 L 510 730 L 580 730 Z" unicode="V" />
<glyph horiz-adv-x="836" d="M 824 730 L 624 -7 L 582 -7 L 417 596 L 247 -7 L 205 -7 L 8 730 L 77 730 L 230 137 L 397 730 L 441 730 L 605 136 L 760 730 L 824 730 Z" unicode="W" />
<glyph horiz-adv-x="536" d="M 448 0 L 267 317 L 84 0 L 11 0 L 231 380 L 31 730 L 106 730 L 269 446 L 433 730 L 506 730 L 305 382 L 524 0 L 448 0 Z" unicode="X" />
<glyph horiz-adv-x="573" d="M 570 730 L 319 314 L 319 0 L 249 0 L 249 316 L 3 730 L 80 730 L 288 382 L 496 730 L 570 730 Z" unicode="Y" />
<glyph horiz-adv-x="526" d="M 490 730 L 490 698 L 110 63 L 504 63 L 504 0 L 17 0 L 17 30 L 397 667 L 53 667 L 53 730 L 490 730 Z" unicode="Z" />
<glyph horiz-adv-x="253" d="M 214 -179 L 61 -179 L 61 730 L 214 730 L 214 675 L 123 675 L 123 -124 L 214 -124 L 214 -179 Z" unicode="[" />
<glyph horiz-adv-x="303" d="M 7 730 L 65 730 L 297 0 L 237 0 L 7 730 Z" unicode="\" />
<glyph horiz-adv-x="254" d="M 194 -179 L 40 -179 L 40 -125 L 132 -125 L 132 676 L 40 676 L 40 730 L 194 730 L 194 -179 Z" unicode="]" />
<glyph horiz-adv-x="481" d="M 419 369 L 361 369 L 238 660 L 122 369 L 65 369 L 211 730 L 267 730 L 419 369 Z" unicode="^" />
<glyph horiz-adv-x="476" d="M 476 -152 L 0 -152 L 0 -94 L 476 -94 L 476 -152 Z" unicode="_" />
<glyph horiz-adv-x="500" d="M 330 499 L 266 499 L 156 666 L 232 666 L 330 499 Z" unicode="`" />
<glyph horiz-adv-x="436" d="M 381 0 L 320 0 L 320 59 C 308 42 289 26 264 12 C 238 -2 208 -10 174 -10 C 127 -10 90 2 63 27 C 36 52 23 86 23 129 C 23 174 39 209 73 233 C 106 257 150 271 206 274 L 318 280 L 318 300 C 318 332 308 356 288 372 C 268 387 243 395 211 395 C 182 395 156 390 134 380 C 111 370 94 361 84 353 L 58 397 C 72 409 93 421 121 431 C 149 441 182 447 221 447 C 265 447 302 435 334 412 C 365 389 381 353 381 303 L 381 0 Z M 319 103 L 319 232 L 213 226 C 175 224 145 215 121 199 C 97 183 86 160 86 131 C 86 102 96 80 116 66 C 136 52 160 45 189 45 C 219 45 245 51 269 64 C 293 77 309 90 319 103 Z" unicode="a" />
<glyph horiz-adv-x="488" d="M 278 -6 C 236 -6 202 4 176 24 C 149 44 131 68 123 95 L 123 0 L 61 0 L 61 743 L 124 743 L 124 336 C 132 362 150 387 177 411 C 203 434 237 446 278 446 C 306 446 331 440 354 429 C 376 418 395 403 411 383 C 427 363 439 340 448 314 C 456 287 461 258 461 227 C 461 156 443 99 408 57 C 372 15 329 -6 278 -6 Z M 260 43 C 299 43 331 59 356 91 C 380 123 393 166 393 220 C 393 270 381 311 358 344 C 334 377 301 394 258 394 C 240 394 223 390 207 382 C 191 374 176 362 164 347 C 152 332 142 313 134 291 C 126 268 123 242 123 213 C 123 183 127 158 135 137 C 143 115 153 98 166 84 C 178 70 193 59 210 53 C 226 46 243 43 260 43 Z" unicode="b" />
<glyph horiz-adv-x="418" d="M 358 120 L 408 89 C 401 78 393 67 383 55 C 373 43 362 33 348 23 C 334 13 318 6 299 0 C 280 -6 258 -9 234 -9 C 202 -9 173 -3 147 8 C 121 20 100 36 83 56 C 65 76 52 99 42 127 C 32 155 28 185 28 217 C 28 248 33 278 43 306 C 53 334 67 358 85 379 C 103 399 125 416 151 428 C 177 440 205 446 237 446 C 282 446 319 435 348 415 C 376 394 397 372 410 350 L 357 317 C 345 337 329 354 310 368 C 291 382 266 390 236 390 C 215 390 196 385 178 376 C 160 367 146 355 134 340 C 122 324 112 306 105 285 C 98 264 95 242 95 219 C 95 169 108 127 134 95 C 160 63 194 47 238 47 C 273 47 300 55 318 72 C 336 89 349 105 358 120 Z" unicode="c" />
<glyph horiz-adv-x="492" d="M 217 -7 C 188 -7 162 -1 138 10 C 114 22 95 37 79 57 C 63 76 50 99 41 126 C 32 152 28 181 28 211 C 28 280 46 336 82 380 C 118 424 164 446 218 446 C 258 446 290 435 316 415 C 342 394 359 370 368 344 L 368 743 L 431 743 L 431 0 L 371 0 L 371 103 C 362 75 345 50 320 27 C 294 4 260 -7 217 -7 Z M 235 44 C 271 44 302 60 330 92 C 357 124 371 168 371 223 C 371 250 367 274 359 296 C 351 317 340 335 327 349 C 314 363 299 374 282 382 C 265 389 248 393 230 393 C 190 393 157 376 132 344 C 107 312 95 270 95 218 C 95 170 107 129 131 95 C 155 61 190 44 235 44 Z" unicode="d" />
<glyph horiz-adv-x="454" d="M 242 -9 C 180 -9 128 10 88 50 C 48 90 28 145 28 216 C 28 249 33 280 43 308 C 53 336 68 360 86 380 C 104 400 125 416 151 428 C 176 440 204 446 234 446 C 294 446 342 424 379 382 C 415 340 434 280 434 203 L 90 203 C 90 151 105 111 133 84 C 161 56 198 43 243 43 C 283 43 313 49 333 63 C 353 76 369 90 382 106 L 419 70 C 403 50 382 31 356 15 C 330 0 292 -9 242 -9 Z M 92 251 L 373 251 C 372 290 359 324 334 352 C 309 380 276 394 234 394 C 192 394 158 380 133 352 C 108 324 94 291 92 251 Z" unicode="e" />
<glyph horiz-adv-x="268" d="M 261 379 L 165 379 L 165 0 L 100 0 L 100 379 L 21 379 L 21 436 L 100 436 L 100 608 C 100 631 103 651 110 669 C 117 686 126 700 138 712 C 149 724 162 732 177 738 C 191 744 206 747 221 747 C 231 747 241 746 251 744 C 260 742 267 740 273 738 L 265 678 C 262 679 257 680 251 682 C 245 683 238 684 232 684 C 214 684 199 677 185 663 C 171 649 164 628 164 602 L 164 436 L 261 436 L 261 379 Z" unicode="f" />
<glyph horiz-adv-x="492" d="M 218 -5 C 160 -5 113 16 79 58 C 45 100 28 153 28 218 C 28 285 46 340 82 382 C 118 424 163 446 218 446 C 256 446 288 435 315 414 C 342 393 360 370 370 344 L 370 436 L 430 436 L 430 21 C 430 -16 424 -48 413 -75 C 402 -102 387 -124 369 -142 C 350 -160 328 -173 304 -182 C 279 -190 253 -195 227 -195 C 189 -195 160 -191 138 -184 C 116 -177 99 -170 87 -163 L 109 -114 C 118 -120 132 -127 150 -133 C 168 -139 193 -143 223 -143 C 261 -143 295 -130 324 -105 C 353 -79 368 -41 368 9 L 368 101 C 359 73 341 49 315 27 C 289 5 256 -5 218 -5 Z M 234 43 C 270 43 302 59 330 91 C 357 123 371 167 371 222 C 371 276 356 318 328 349 C 299 379 266 395 228 395 C 190 395 159 378 133 346 C 107 314 95 272 95 220 C 95 170 107 128 131 94 C 155 60 190 43 234 43 Z" unicode="g" />
<glyph horiz-adv-x="474" d="M 416 0 L 351 0 L 351 289 C 351 323 341 349 323 367 C 304 385 279 394 247 394 C 215 394 187 383 163 363 C 138 342 126 309 126 263 L 126 0 L 61 0 L 61 743 L 122 743 L 122 347 C 130 375 146 398 172 418 C 197 437 230 447 270 447 C 314 447 349 434 376 410 C 402 385 416 350 416 304 L 416 0 Z" unicode="h" />
<glyph horiz-adv-x="197" d="M 64 547 L 64 619 L 133 619 L 133 547 L 64 547 Z M 66 0 L 66 436 L 131 436 L 131 0 L 66 0 Z" unicode="i" />
<glyph horiz-adv-x="192" d="M 132 547 L 63 547 L 63 619 L 132 619 L 132 547 Z M 129 436 L 129 -88 C 129 -121 119 -148 100 -170 C 80 -191 55 -202 25 -202 C 17 -202 9 -201 0 -199 C -10 -197 -17 -196 -21 -195 L -15 -142 C -12 -142 -8 -143 -4 -144 C 0 -144 5 -145 10 -145 C 24 -145 36 -139 48 -129 C 59 -118 65 -102 65 -80 L 65 436 L 129 436 Z" unicode="j" />
<glyph horiz-adv-x="428" d="M 437 0 L 362 0 L 209 210 L 125 111 L 125 0 L 61 0 L 61 743 L 122 743 L 122 183 L 332 436 L 404 436 L 251 255 L 437 0 Z" unicode="k" />
<glyph horiz-adv-x="193" d="M 128 753 L 128 0 L 64 0 L 64 753 L 128 753 Z" unicode="l" />
<glyph horiz-adv-x="759" d="M 61 0 L 61 436 L 122 436 L 122 350 C 130 377 147 400 173 419 C 199 437 232 447 271 447 C 307 447 337 438 361 420 C 384 402 398 378 403 349 L 406 349 C 414 378 432 402 459 420 C 485 438 518 447 556 447 C 600 447 635 434 662 410 C 688 385 702 350 702 306 L 702 0 L 638 0 L 638 288 C 638 322 628 348 610 366 C 592 384 566 394 534 394 C 503 394 475 383 450 363 C 425 342 413 308 413 262 L 413 0 L 350 0 L 350 289 C 350 323 340 349 322 367 C 303 385 278 394 247 394 C 215 394 187 383 162 362 C 137 340 125 307 125 261 L 125 0 L 61 0 Z" unicode="m" />
<glyph horiz-adv-x="473" d="M 416 0 L 351 0 L 351 293 C 351 324 341 349 323 367 C 305 385 279 394 247 394 C 215 394 187 383 163 362 C 138 341 126 307 126 261 L 126 0 L 61 0 L 61 436 L 123 436 L 123 351 C 131 378 148 401 174 419 C 200 437 232 447 270 447 C 314 447 349 434 376 410 C 402 386 416 352 416 308 L 416 0 Z" unicode="n" />
<glyph horiz-adv-x="477" d="M 237 -9 C 209 -9 182 -3 157 7 C 131 17 109 32 90 52 C 71 71 56 95 45 123 C 33 151 28 182 28 217 C 28 249 33 279 44 307 C 54 335 69 359 87 379 C 105 399 127 416 152 428 C 177 440 204 446 233 446 C 263 446 291 440 317 430 C 343 419 366 404 386 385 C 405 366 420 343 432 317 C 443 290 449 261 449 229 C 449 195 443 163 433 134 C 422 105 407 80 389 59 C 370 37 348 21 322 9 C 296 -3 267 -9 237 -9 Z M 237 45 C 279 45 314 61 341 94 C 368 127 382 170 382 222 C 382 271 368 312 342 344 C 315 376 279 392 233 392 C 193 392 160 376 134 344 C 108 312 95 270 95 220 C 95 164 108 121 136 91 C 163 60 197 45 237 45 Z" unicode="o" />
<glyph horiz-adv-x="488" d="M 61 -200 L 61 436 L 122 436 L 122 333 C 129 361 147 386 175 410 C 203 433 238 445 280 445 C 308 445 333 439 355 428 C 377 417 396 402 412 383 C 427 363 439 340 447 313 C 455 286 460 257 460 226 C 460 190 455 157 445 128 C 435 99 421 75 405 55 C 388 35 369 20 347 10 C 325 0 302 -6 278 -6 C 238 -6 204 4 177 24 C 149 44 132 66 124 91 L 124 -200 L 61 -200 Z M 262 42 C 300 42 331 57 356 89 C 380 120 393 163 393 218 C 393 268 381 309 359 343 C 336 377 302 394 258 394 C 222 394 190 378 163 348 C 136 318 123 272 123 212 C 123 154 137 111 165 83 C 193 55 226 42 262 42 Z" unicode="p" />
<glyph horiz-adv-x="492" d="M 369 -200 L 369 101 C 359 73 341 48 315 26 C 288 4 256 -7 218 -7 C 188 -7 162 -1 139 10 C 115 22 95 38 79 58 C 63 78 50 101 41 128 C 32 155 28 184 28 216 C 28 249 33 280 43 309 C 53 337 66 362 83 382 C 100 402 120 418 143 430 C 166 441 191 447 217 447 C 257 447 291 436 317 415 C 343 393 361 369 370 343 L 370 436 L 431 436 L 431 -200 L 369 -200 Z M 234 44 C 251 44 268 48 285 56 C 301 64 316 76 329 91 C 341 106 351 125 359 147 C 367 169 371 195 371 223 C 371 277 356 319 328 349 C 300 378 268 393 232 393 C 190 393 157 377 133 345 C 108 313 96 272 96 222 C 96 172 107 129 131 95 C 155 61 189 44 234 44 Z" unicode="q" />
<glyph horiz-adv-x="340" d="M 339 415 L 314 362 C 301 372 288 380 275 384 C 261 388 248 390 235 390 C 208 390 183 378 160 356 C 137 334 126 300 126 256 L 126 0 L 61 0 L 61 436 L 123 436 L 123 346 C 125 357 130 369 138 381 C 145 393 154 403 165 413 C 175 423 188 431 203 437 C 217 443 233 446 250 446 C 268 446 285 443 301 437 C 316 431 329 424 339 415 Z" unicode="r" />
<glyph horiz-adv-x="349" d="M 184 -9 C 148 -9 118 -3 92 6 C 66 16 45 31 29 50 L 62 94 C 75 78 92 66 113 57 C 134 48 157 44 182 44 C 202 44 221 50 237 62 C 253 74 262 92 262 115 C 262 133 254 149 238 162 C 222 174 196 188 158 203 C 117 218 87 235 68 254 C 48 273 39 299 39 331 C 39 365 52 392 78 414 C 104 435 136 446 174 446 C 204 446 230 441 253 431 C 275 421 293 411 307 401 L 274 359 C 264 367 250 374 232 382 C 214 389 195 393 175 393 C 155 393 137 388 121 378 C 105 368 97 354 97 336 C 97 320 102 306 114 296 C 125 285 150 272 189 257 C 235 239 268 221 288 201 C 308 181 319 153 319 119 C 319 79 305 47 279 25 C 252 2 220 -9 184 -9 Z" unicode="s" />
<glyph horiz-adv-x="226" d="M 213 55 L 217 2 C 214 0 208 -1 200 -3 C 191 -4 182 -5 172 -5 C 160 -5 148 -3 136 0 C 124 2 113 7 103 15 C 93 22 84 32 78 45 C 72 57 69 73 69 93 L 69 379 L 12 379 L 12 436 L 69 436 L 69 542 L 133 551 L 133 436 L 210 436 L 210 379 L 133 379 L 133 99 C 133 81 138 68 148 61 C 158 53 170 50 186 50 C 190 50 195 50 201 52 C 207 53 211 54 213 55 Z" unicode="t" />
<glyph horiz-adv-x="474" d="M 58 436 L 122 436 L 122 145 C 122 112 131 87 150 69 C 168 51 194 42 227 42 C 259 42 287 52 311 73 C 335 93 348 127 348 173 L 348 436 L 412 436 L 412 0 L 349 0 L 349 85 C 339 57 321 35 295 17 C 269 0 239 -9 203 -9 C 161 -9 126 3 99 28 C 71 52 58 88 58 134 L 58 436 Z" unicode="u" />
<glyph horiz-adv-x="408" d="M 408 436 L 223 -2 L 180 -2 L -1 436 L 69 436 L 205 94 L 343 436 L 408 436 Z" unicode="v" />
<glyph horiz-adv-x="615" d="M 422 -2 L 309 305 L 193 -2 L 150 -2 L 7 436 L 72 436 L 178 92 L 291 396 L 332 396 L 441 92 L 548 436 L 608 436 L 464 -2 L 422 -2 Z" unicode="w" />
<glyph horiz-adv-x="380" d="M 300 0 L 189 175 L 75 0 L 8 0 L 155 227 L 22 436 L 94 436 L 192 283 L 291 436 L 358 436 L 225 231 L 372 0 L 300 0 Z" unicode="x" />
<glyph horiz-adv-x="410" d="M 409 436 L 184 -99 C 166 -139 146 -165 123 -179 C 99 -193 77 -200 56 -200 C 44 -200 33 -198 24 -196 C 14 -194 7 -192 3 -190 L 21 -132 C 23 -133 28 -135 36 -137 C 43 -139 51 -141 59 -141 C 72 -141 85 -135 98 -125 C 111 -115 123 -96 135 -70 L 175 28 L 0 436 L 69 436 L 207 100 L 344 436 L 409 436 Z" unicode="y" />
<glyph horiz-adv-x="354" d="M 334 436 L 334 405 L 104 56 L 341 56 L 341 0 L 12 0 L 12 23 L 248 380 L 27 380 L 27 436 L 334 436 Z" unicode="z" />
<glyph horiz-adv-x="282" d="M 255 -179 C 228 -178 203 -174 179 -166 C 155 -158 135 -147 118 -134 C 101 -120 88 -105 78 -87 C 68 -69 63 -51 63 -31 C 63 -7 66 14 72 34 C 78 54 84 72 92 88 C 99 104 106 119 112 134 C 118 149 122 164 122 179 C 122 199 113 218 95 235 C 77 251 53 260 23 261 L 23 310 C 53 310 78 319 96 336 C 114 353 124 373 124 396 C 124 405 120 418 114 434 C 108 450 100 466 92 484 C 84 502 77 519 71 537 C 65 555 63 573 63 592 C 63 612 67 631 77 650 C 87 668 100 685 118 699 C 135 713 155 725 179 734 C 202 743 227 748 255 749 L 255 701 C 221 699 192 687 167 666 C 142 644 130 618 130 587 C 130 574 132 560 136 546 C 140 532 145 517 153 503 C 161 484 169 466 177 449 C 184 432 188 416 188 401 C 188 372 179 347 162 326 C 144 304 118 291 84 285 C 119 279 145 265 162 244 C 179 222 188 198 188 172 C 188 152 184 134 177 119 C 170 104 163 89 156 75 C 148 60 142 45 137 29 C 131 13 129 -2 129 -17 C 129 -45 141 -70 165 -93 C 189 -116 219 -128 255 -130 L 255 -179 Z" unicode="{" />
<glyph horiz-adv-x="243" d="M 152 -179 L 91 -179 L 91 730 L 152 730 L 152 -179 Z" unicode="|" />
<glyph horiz-adv-x="282" d="M 26 -179 L 26 -130 C 61 -128 91 -116 115 -93 C 139 -70 152 -45 152 -17 C 152 -2 149 13 144 29 C 139 45 133 60 125 75 C 117 89 110 104 103 119 C 96 134 93 152 93 172 C 93 198 101 222 119 244 C 136 265 162 279 197 285 C 163 291 137 304 119 326 C 101 347 93 372 93 401 C 93 416 96 432 104 449 C 112 466 120 484 129 503 C 135 517 141 532 145 546 C 149 560 152 574 152 587 C 152 618 139 644 114 666 C 89 687 60 699 26 701 L 26 749 C 53 748 78 743 102 734 C 125 725 145 713 163 699 C 180 685 193 668 203 650 C 213 631 218 612 218 592 C 218 573 215 555 210 537 C 204 519 197 502 189 484 C 181 466 173 450 167 434 C 161 418 158 405 158 396 C 158 373 167 353 185 336 C 203 319 227 310 258 310 L 258 261 C 227 260 203 251 185 235 C 167 218 159 199 159 179 C 159 164 162 149 169 134 C 175 119 182 104 189 88 C 196 72 203 54 209 34 C 215 14 219 -7 219 -31 C 219 -51 214 -69 204 -87 C 194 -105 180 -120 163 -134 C 146 -147 126 -158 102 -166 C 78 -174 53 -178 26 -179 Z" unicode="}" />
<glyph horiz-adv-x="481" d="M 390 432 L 444 432 C 443 379 435 339 420 313 C 404 287 380 274 347 274 C 324 274 304 279 288 290 C 272 301 257 313 244 326 C 229 339 215 351 201 361 C 187 371 172 376 156 376 C 139 376 124 367 111 351 C 97 334 91 309 91 277 L 38 277 C 38 329 47 369 67 396 C 86 423 110 437 138 437 C 162 437 183 431 201 420 C 219 409 236 396 252 382 C 265 370 278 358 292 348 C 305 338 320 333 338 333 C 358 333 371 340 379 356 C 386 372 390 397 390 432 Z" unicode="~" />
<glyph horiz-adv-x="277" d="M 104 599 L 174 599 L 174 512 L 104 512 L 104 599 Z M 101 168 L 123 411 L 156 411 L 176 168 L 176 -119 L 101 -119 L 101 168 Z" unicode="¡" />
<glyph horiz-adv-x="492" d="M 472 193 C 464 182 455 171 445 159 C 435 147 423 137 409 127 C 395 117 378 108 360 101 C 342 93 320 89 296 88 L 296 -14 L 247 -14 L 247 89 C 215 92 187 101 161 115 C 135 129 114 147 96 169 C 78 191 64 216 54 245 C 44 274 40 305 40 339 C 40 371 45 402 55 432 C 65 461 79 487 97 510 C 115 533 136 552 162 567 C 187 581 215 591 247 595 L 247 693 L 296 693 L 296 596 C 341 593 378 580 408 558 C 437 536 458 512 472 486 L 425 455 C 412 475 395 493 375 510 C 354 527 328 537 296 540 L 296 143 C 334 145 363 156 383 174 C 403 192 419 211 431 229 L 472 193 Z M 105 342 C 105 291 117 247 143 211 C 169 175 203 153 247 145 L 247 538 C 203 530 169 507 143 470 C 117 433 105 390 105 342 Z" unicode="¢" />
<glyph horiz-adv-x="539" d="M 528 59 L 528 0 L 17 0 L 17 46 C 23 48 31 50 43 52 C 55 54 71 57 92 61 C 104 63 116 66 129 72 C 141 78 153 85 164 94 C 174 103 183 114 190 127 C 196 140 200 155 200 173 C 200 181 199 189 197 198 C 195 206 192 215 188 224 L 27 224 L 27 274 L 164 274 C 157 286 150 299 142 312 C 134 325 126 339 119 353 L 27 353 L 27 403 L 95 403 C 86 423 79 445 73 469 C 67 492 65 516 65 542 C 65 580 71 612 84 638 C 97 664 114 684 136 700 C 158 715 183 726 211 732 C 239 738 269 742 300 742 C 350 742 395 733 437 715 C 479 697 509 679 528 663 L 491 608 C 474 622 449 637 415 655 C 381 672 343 681 302 681 C 280 681 260 678 240 674 C 220 669 202 661 186 650 C 170 638 158 623 149 603 C 139 583 135 559 135 530 C 135 508 138 486 144 465 C 150 443 158 423 168 403 L 451 403 L 451 353 L 194 353 C 201 339 208 326 216 313 C 224 299 231 286 237 274 L 451 274 L 451 224 L 255 224 C 256 219 257 214 258 209 C 258 203 259 198 259 194 C 259 172 255 154 248 138 C 240 122 231 109 220 98 C 209 87 198 78 186 72 C 174 66 163 61 154 59 L 528 59 Z" unicode="£" />
<glyph horiz-adv-x="502" d="M 438 182 L 408 152 L 346 216 C 332 207 316 200 300 196 C 284 191 267 189 250 189 C 232 189 214 191 198 196 C 182 201 167 208 153 217 L 91 152 L 59 184 L 119 246 C 105 260 95 277 87 295 C 79 313 76 333 76 354 C 76 374 79 394 87 413 C 95 431 105 448 119 463 L 59 525 L 89 555 L 152 490 C 166 498 181 505 198 511 C 214 516 232 519 250 519 C 268 519 286 516 303 511 C 319 505 335 498 349 489 L 414 556 L 444 525 L 382 461 C 394 446 404 430 412 412 C 420 394 424 374 424 354 C 424 332 420 312 412 293 C 404 274 393 257 379 243 L 438 182 Z M 250 237 C 284 237 313 248 338 272 C 362 295 375 322 375 354 C 375 385 362 412 338 436 C 313 459 284 471 250 471 C 215 471 185 459 161 436 C 137 412 125 385 125 354 C 125 322 137 295 161 272 C 185 248 215 237 250 237 Z" unicode="¤" />
<glyph horiz-adv-x="569" d="M 501 165 L 316 165 L 316 0 L 246 0 L 246 165 L 66 165 L 66 217 L 246 217 L 246 279 L 66 279 L 66 331 L 246 331 L 246 345 L 31 730 L 108 730 L 284 408 L 462 730 L 535 730 L 316 342 L 316 331 L 501 331 L 501 279 L 316 279 L 316 217 L 501 217 L 501 165 Z" unicode="¥" />
<glyph horiz-adv-x="258" d="M 101 351 L 101 730 L 157 730 L 157 351 L 101 351 Z M 157 200 L 157 -179 L 101 -179 L 101 200 L 157 200 Z" unicode="¦" />
<glyph horiz-adv-x="621" d="M 328 -180 C 274 -180 224 -173 177 -159 C 130 -145 91 -127 59 -105 L 87 -50 C 116 -71 152 -89 195 -103 C 238 -117 281 -125 323 -125 C 362 -125 395 -115 422 -96 C 449 -76 463 -49 463 -15 C 463 17 453 41 433 57 C 413 73 387 88 357 102 L 217 164 C 189 176 165 187 144 198 C 123 208 106 220 92 232 C 78 244 67 259 60 275 C 52 291 49 311 49 334 C 49 365 56 390 72 410 C 88 429 106 445 128 458 C 108 468 94 483 85 503 C 75 523 71 548 71 578 C 71 604 76 627 88 648 C 100 668 116 685 136 699 C 156 713 179 723 207 731 C 235 738 264 742 296 742 C 354 742 401 733 438 717 C 475 700 507 681 534 661 L 504 610 C 474 630 444 649 412 665 C 380 681 341 690 295 690 C 252 690 215 679 185 659 C 155 639 140 612 140 578 C 140 554 146 535 159 519 C 172 503 192 490 219 480 L 404 401 C 456 380 496 358 524 334 C 552 310 566 278 566 238 C 566 219 562 203 556 189 C 549 175 540 163 530 153 C 519 143 507 136 493 130 C 479 124 466 121 453 119 C 459 115 467 109 477 102 C 487 94 496 85 504 74 C 512 63 519 50 525 36 C 531 21 534 4 534 -14 C 534 -40 528 -63 518 -84 C 507 -104 492 -122 474 -136 C 455 -150 433 -161 408 -169 C 383 -176 356 -180 328 -180 Z M 405 151 C 427 152 448 159 468 172 C 488 185 499 205 499 233 C 499 257 488 279 466 297 C 444 315 410 334 365 352 L 183 430 C 164 420 148 408 134 395 C 120 382 114 363 114 339 C 114 310 125 287 148 271 C 171 254 205 236 251 217 L 405 151 Z" unicode="§" />
<glyph horiz-adv-x="500" d="M 360 500 L 305 500 L 305 656 L 360 656 L 360 500 Z M 195 500 L 140 500 L 140 656 L 195 656 L 195 500 Z" unicode="¨" />
<glyph horiz-adv-x="824" d="M 412 8 C 361 8 313 17 269 37 C 224 56 185 82 152 115 C 119 148 93 187 74 232 C 54 277 45 325 45 375 C 45 425 54 473 74 518 C 93 562 119 601 152 634 C 185 667 224 693 269 713 C 313 732 361 742 412 742 C 462 742 509 732 554 713 C 599 693 638 667 671 634 C 704 601 730 562 750 518 C 769 473 779 425 779 375 C 779 325 769 277 750 232 C 730 187 704 148 671 115 C 638 82 599 56 554 37 C 509 17 462 8 412 8 Z M 412 52 C 456 52 497 60 536 77 C 575 94 609 117 638 146 C 666 175 689 209 706 249 C 723 288 732 330 732 374 C 732 418 723 459 706 499 C 689 538 666 572 638 602 C 609 631 575 654 536 671 C 497 688 456 697 412 697 C 368 697 326 688 287 671 C 247 654 213 631 184 602 C 155 572 132 538 116 499 C 99 459 91 418 91 374 C 91 330 99 288 116 249 C 132 209 155 175 184 146 C 213 117 247 94 287 77 C 326 60 368 52 412 52 Z M 581 242 C 565 218 542 197 514 181 C 486 165 452 157 412 157 C 386 157 361 161 337 171 C 312 181 290 195 272 214 C 253 232 238 255 227 283 C 215 310 210 341 210 376 C 210 409 215 440 225 468 C 235 496 248 519 266 539 C 284 559 305 574 329 585 C 353 596 379 602 407 602 C 449 602 484 595 511 581 C 537 567 559 548 575 526 L 529 492 C 516 508 500 521 482 532 C 463 542 438 548 408 548 C 368 548 335 531 309 498 C 283 464 270 423 270 374 C 270 347 274 323 282 303 C 290 282 301 265 314 251 C 327 237 342 226 360 219 C 377 211 395 208 413 208 C 439 208 463 214 484 226 C 505 238 522 253 535 272 L 581 242 Z" unicode="©" />
<glyph horiz-adv-x="434" d="M 387 321 L 334 321 L 334 383 C 318 361 297 345 269 333 C 241 321 212 315 180 315 C 136 315 102 326 76 348 C 50 370 37 401 37 441 C 37 485 53 518 87 541 C 121 564 164 577 218 580 L 331 588 L 331 597 C 331 629 321 652 301 667 C 281 682 255 690 223 690 C 197 690 172 685 150 676 C 127 667 107 657 91 646 L 68 691 C 87 705 110 717 138 727 C 166 737 197 742 233 742 C 279 742 316 730 344 708 C 372 685 387 649 387 599 L 387 321 Z M 333 424 L 333 543 L 215 536 C 180 533 151 525 128 512 C 105 498 94 476 94 445 C 94 419 103 399 123 385 C 143 370 168 363 199 363 C 224 363 249 368 274 379 C 299 390 319 405 333 424 Z M 398 215 L 43 215 L 43 268 L 398 268 L 398 215 Z" unicode="ª" />
<glyph horiz-adv-x="422" d="M 197 95 L 29 260 L 29 305 L 197 468 L 197 401 L 86 281 L 197 166 L 197 95 Z M 391 95 L 223 260 L 223 305 L 391 468 L 391 401 L 280 281 L 391 166 L 391 95 Z" unicode="«" />
<glyph horiz-adv-x="500" d="M 450 369 L 450 132 L 394 132 L 394 312 L 32 312 L 32 369 L 450 369 Z" unicode="¬" />
<glyph horiz-adv-x="824" d="M 412 8 C 361 8 313 17 269 37 C 224 56 185 82 152 115 C 119 148 93 187 74 232 C 54 277 45 325 45 375 C 45 425 54 473 74 518 C 93 562 119 601 152 634 C 185 667 224 693 269 713 C 313 732 361 742 412 742 C 462 742 509 732 554 713 C 599 693 638 667 671 634 C 704 601 730 562 750 518 C 769 473 779 425 779 375 C 779 325 769 277 750 232 C 730 187 704 148 671 115 C 638 82 599 56 554 37 C 509 17 462 8 412 8 Z M 412 52 C 456 52 497 60 536 77 C 575 93 609 116 638 145 C 667 174 690 208 707 248 C 723 287 732 329 732 375 C 732 419 723 461 707 501 C 690 540 667 574 638 603 C 609 632 575 655 536 672 C 497 688 456 697 412 697 C 368 697 326 688 287 671 C 248 654 214 631 185 602 C 156 573 133 539 116 500 C 99 460 91 419 91 375 C 91 330 99 288 116 248 C 133 208 156 174 185 146 C 214 117 248 94 287 77 C 326 60 368 52 412 52 Z M 280 168 L 280 603 L 429 603 C 446 603 463 600 481 596 C 498 591 513 584 527 575 C 540 565 551 553 559 538 C 567 522 572 504 572 484 C 572 445 561 416 539 398 C 517 379 493 368 469 365 L 468 361 L 603 168 L 540 168 L 419 345 L 335 345 L 335 168 L 280 168 Z M 335 392 L 434 392 C 454 392 472 399 490 413 C 508 427 517 449 518 478 C 518 506 508 526 490 537 C 472 548 449 554 423 554 L 335 554 L 335 392 Z" unicode="®" />
<glyph horiz-adv-x="500" d="M 371 530 L 129 530 L 129 578 L 371 578 L 371 530 Z" unicode="¯" />
<glyph horiz-adv-x="426" d="M 213 376 C 187 376 163 380 141 390 C 119 400 99 413 83 429 C 67 445 54 465 44 487 C 34 509 30 533 30 559 C 30 584 34 608 44 630 C 54 652 67 672 83 688 C 99 704 119 717 141 727 C 163 737 187 742 213 742 C 238 742 262 737 284 727 C 306 717 326 704 342 688 C 358 672 371 652 381 630 C 391 608 396 584 396 559 C 396 533 391 509 381 487 C 371 465 358 445 342 429 C 326 413 306 400 284 390 C 262 380 238 376 213 376 Z M 213 428 C 249 428 280 440 306 466 C 332 492 345 523 345 559 C 345 595 332 626 306 652 C 280 678 249 691 213 691 C 177 691 146 678 120 652 C 94 626 81 595 81 559 C 81 523 94 492 120 466 C 146 440 177 428 213 428 Z" unicode="°" />
<glyph horiz-adv-x="500" d="M 472 305 L 278 305 L 278 116 L 222 116 L 222 305 L 28 305 L 28 357 L 222 357 L 222 546 L 278 546 L 278 357 L 472 357 L 472 305 Z M 466 30 L 36 30 L 36 78 L 466 78 L 466 30 Z" unicode="±" />
<glyph horiz-adv-x="339" d="M 306 372 L 28 372 L 28 393 L 198 547 C 206 555 215 565 224 578 C 232 590 237 605 237 623 C 237 641 230 657 217 671 C 203 685 183 692 157 692 C 127 692 105 683 93 666 C 80 649 73 629 73 607 L 21 607 C 21 641 33 672 57 700 C 81 727 116 741 162 741 C 206 741 239 730 261 709 C 283 688 295 663 295 634 C 295 607 289 585 279 567 C 268 549 257 535 246 525 L 124 420 L 306 420 L 306 372 Z" unicode="²" />
<glyph horiz-adv-x="346" d="M 222 569 C 250 565 273 554 290 538 C 306 522 315 501 315 477 C 315 464 312 451 307 438 C 302 424 294 412 282 401 C 270 390 254 381 234 374 C 214 367 190 364 161 364 C 122 364 91 368 68 378 C 45 388 27 397 15 407 L 46 440 C 58 432 73 425 92 419 C 111 412 134 409 160 409 C 196 409 222 416 238 431 C 254 445 263 463 263 484 C 263 506 253 522 235 531 C 216 539 194 544 169 544 L 98 544 L 98 586 L 165 586 C 189 586 209 590 224 600 C 238 610 246 624 246 643 C 246 658 239 671 226 681 C 212 691 192 696 164 696 C 139 696 118 691 100 682 C 82 672 68 661 58 649 L 26 679 C 38 695 56 709 78 722 C 100 735 131 742 171 742 C 213 742 245 733 267 716 C 289 698 300 677 300 653 C 300 631 292 612 277 598 C 262 583 244 573 222 569 Z" unicode="³" />
<glyph horiz-adv-x="500" d="M 170 499 L 268 666 L 344 666 L 235 499 L 170 499 Z" unicode="´" />
<glyph horiz-adv-x="579" d="M 78 -114 L 78 453 L 142 453 L 142 152 C 142 118 154 91 178 71 C 202 51 232 42 268 42 C 286 42 303 44 321 50 C 339 56 354 64 368 76 C 382 88 393 102 402 120 C 410 138 415 159 415 183 L 415 453 L 478 453 L 478 0 L 419 0 L 419 107 C 409 75 389 48 359 26 C 329 4 295 -7 257 -8 C 229 -8 204 -3 182 9 C 160 21 145 37 137 59 L 137 -114 L 78 -114 Z" unicode="µ" />
<glyph horiz-adv-x="623" d="M 556 -179 L 513 -179 L 513 678 L 391 678 L 391 -179 L 347 -179 L 347 268 L 252 268 C 222 268 194 274 166 286 C 138 298 114 315 93 336 C 72 356 55 380 43 408 C 30 436 24 465 24 496 C 24 529 30 560 42 589 C 54 617 70 642 92 663 C 113 683 139 700 170 712 C 200 724 234 730 271 730 L 556 730 L 556 -179 Z M 348 323 L 348 676 L 286 676 C 230 676 187 659 157 625 C 127 591 112 548 112 498 C 112 474 116 452 124 431 C 132 409 143 391 157 375 C 171 359 188 346 208 337 C 228 327 250 323 274 323 L 348 323 Z" unicode="¶" />
<glyph horiz-adv-x="228" d="M 147 291 L 81 291 L 81 404 L 147 404 L 147 291 Z" unicode="·" />
<glyph horiz-adv-x="500" d="M 254 -184 C 231 -184 208 -181 186 -175 C 163 -169 145 -161 132 -152 L 141 -122 C 151 -128 164 -134 181 -140 C 197 -146 215 -150 235 -150 C 251 -150 266 -146 279 -138 C 292 -130 299 -119 299 -106 C 299 -91 293 -81 282 -75 C 270 -69 258 -66 246 -66 C 236 -66 229 -66 223 -68 C 217 -69 209 -71 201 -74 L 189 -61 L 246 9 L 287 9 L 238 -53 C 271 -44 299 -46 323 -58 C 347 -70 359 -88 359 -112 C 359 -135 348 -153 328 -165 C 307 -177 282 -184 254 -184 Z" unicode="¸" />
<glyph horiz-adv-x="318" d="M 150 372 L 150 672 C 142 660 129 649 109 639 C 89 629 71 623 55 621 L 53 678 C 77 682 98 689 116 700 C 134 710 151 724 168 741 L 211 741 L 211 372 L 150 372 Z" unicode="¹" />
<glyph horiz-adv-x="433" d="M 213 314 C 187 314 163 319 140 329 C 116 339 96 353 78 371 C 60 389 46 411 36 437 C 25 463 20 493 20 525 C 20 553 25 580 35 606 C 45 632 59 654 77 674 C 95 694 115 710 139 722 C 163 734 188 740 216 740 C 243 740 269 734 293 724 C 317 714 337 700 355 682 C 373 664 387 642 397 617 C 407 591 412 564 412 534 C 412 503 406 474 396 447 C 386 420 372 397 354 377 C 336 357 315 342 291 331 C 267 319 241 314 213 314 Z M 215 367 C 255 367 289 382 315 414 C 341 445 354 484 354 530 C 354 574 341 611 317 642 C 292 673 258 689 214 689 C 174 689 142 673 116 641 C 90 609 78 571 78 525 C 78 478 91 440 118 411 C 144 381 177 367 215 367 Z M 39 215 L 39 268 L 390 268 L 390 215 L 39 215 Z" unicode="º" />
<glyph horiz-adv-x="422" d="M 30 468 L 199 303 L 199 258 L 30 95 L 30 162 L 141 282 L 30 397 L 30 468 Z M 225 468 L 392 303 L 392 258 L 225 95 L 225 162 L 336 282 L 225 397 L 225 468 Z" unicode="»" />
<glyph horiz-adv-x="694" d="M 12 0 L 12 0 Z M 109 372 L 109 672 C 101 660 88 649 68 639 C 48 629 30 623 14 621 L 12 678 C 36 682 57 689 75 700 C 93 710 110 724 127 741 L 170 741 L 170 372 L 109 372 Z M 568 730 L 182 0 L 124 0 L 510 730 L 568 730 Z M 385 88 L 385 128 L 578 368 L 617 368 L 617 131 L 682 131 L 682 88 L 617 88 L 617 1 L 563 1 L 563 88 L 385 88 Z M 435 125 L 564 125 L 564 290 L 435 125 Z" unicode="¼" />
<glyph horiz-adv-x="756" d="M 12 0 L 12 0 Z M 109 372 L 109 672 C 101 660 88 649 68 639 C 48 629 30 623 14 621 L 12 678 C 36 682 57 689 75 700 C 93 710 110 724 127 741 L 170 741 L 170 372 L 109 372 Z M 568 730 L 182 0 L 124 0 L 510 730 L 568 730 Z M 735 0 L 457 0 L 457 21 L 627 175 C 635 183 644 193 653 206 C 661 218 666 233 666 251 C 666 269 659 285 646 299 C 632 313 612 320 586 320 C 556 320 534 311 522 294 C 509 277 502 257 502 235 L 450 235 C 450 269 462 300 486 328 C 510 355 545 369 591 369 C 635 369 668 358 690 337 C 712 316 724 291 724 262 C 724 235 718 213 708 195 C 697 177 686 163 675 153 L 553 48 L 735 48 L 735 0 Z" unicode="½" />
<glyph horiz-adv-x="759" d="M 14 0 L 14 0 Z M 632 730 L 246 0 L 188 0 L 574 730 L 632 730 Z M 449 88 L 449 128 L 642 368 L 681 368 L 681 131 L 746 131 L 746 88 L 681 88 L 681 1 L 627 1 L 627 88 L 449 88 Z M 499 125 L 628 125 L 628 290 L 499 125 Z M 221 569 C 249 565 272 554 289 538 C 305 522 314 501 314 477 C 314 464 311 451 306 438 C 301 424 293 412 281 401 C 269 390 253 381 233 374 C 213 367 189 364 160 364 C 121 364 90 368 67 378 C 44 388 26 397 14 407 L 45 440 C 57 432 72 425 91 419 C 110 412 133 409 159 409 C 195 409 221 416 237 431 C 253 445 262 463 262 484 C 262 506 252 522 234 531 C 215 539 193 544 168 544 L 97 544 L 97 586 L 164 586 C 188 586 208 590 223 600 C 237 610 245 624 245 643 C 245 658 238 671 225 681 C 211 691 191 696 163 696 C 138 696 117 691 99 682 C 81 672 67 661 57 649 L 25 679 C 37 695 55 709 77 722 C 99 735 130 742 170 742 C 212 742 244 733 266 716 C 288 698 299 677 299 653 C 299 631 291 612 276 598 C 261 583 243 573 221 569 Z" unicode="¾" />
<glyph horiz-adv-x="448" d="M 206 515 L 206 599 L 279 599 L 279 515 L 206 515 Z M 221 -137 C 165 -137 118 -122 80 -93 C 42 -64 24 -22 24 32 C 24 57 28 80 36 100 C 44 120 54 139 66 155 C 78 171 92 186 107 199 C 121 212 135 224 148 235 C 175 257 192 285 199 317 C 206 349 210 381 211 412 L 276 412 C 276 362 270 322 260 292 C 250 262 230 234 202 208 C 190 197 178 186 165 175 C 152 164 140 152 130 139 C 119 125 110 110 103 94 C 96 78 93 59 93 39 C 93 2 106 -26 132 -48 C 158 -69 190 -80 229 -80 C 263 -80 293 -72 320 -56 C 346 -40 369 -21 387 2 L 429 -38 C 406 -67 377 -91 341 -109 C 305 -127 265 -137 221 -137 Z" unicode="¿" />
<glyph horiz-adv-x="586" d="M 5 0 L 5 0 Z M 581 0 L 510 0 L 430 218 L 151 218 L 73 0 L 5 0 L 272 734 L 315 734 L 581 0 Z M 411 278 L 291 611 L 171 278 L 411 278 Z M 291 793 L 291 793 Z M 378 793 L 314 793 L 204 960 L 280 960 L 378 793 Z" unicode="À" />
<glyph horiz-adv-x="586" d="M 5 0 L 5 0 Z M 581 0 L 510 0 L 430 218 L 151 218 L 73 0 L 5 0 L 272 734 L 315 734 L 581 0 Z M 411 278 L 291 611 L 171 278 L 411 278 Z M 291 793 L 291 793 Z M 204 793 L 302 960 L 378 960 L 269 793 L 204 793 Z" unicode="Á" />
<glyph horiz-adv-x="586" d="M 5 0 L 5 0 Z M 581 0 L 510 0 L 430 218 L 151 218 L 73 0 L 5 0 L 272 734 L 315 734 L 581 0 Z M 411 278 L 291 611 L 171 278 L 411 278 Z M 291 794 L 291 794 Z M 437 794 L 378 794 L 291 918 L 203 794 L 146 794 L 260 964 L 323 964 L 437 794 Z" unicode="Â" />
<glyph horiz-adv-x="586" d="M 5 0 L 5 0 Z M 581 0 L 510 0 L 430 218 L 151 218 L 73 0 L 5 0 L 272 734 L 315 734 L 581 0 Z M 411 278 L 291 611 L 171 278 L 411 278 Z M 291 802 L 291 802 Z M 393 930 L 441 930 C 441 886 435 854 423 833 C 411 812 395 802 376 802 C 357 802 341 806 328 815 C 314 823 303 832 293 841 C 282 849 271 857 261 865 C 251 873 240 877 230 877 C 220 877 211 870 203 858 C 195 846 191 828 191 806 L 142 806 C 142 849 149 881 165 902 C 181 923 198 934 217 934 C 233 934 248 929 260 921 C 272 912 284 903 296 893 C 306 884 316 876 326 868 C 336 860 346 857 357 857 C 366 857 374 863 382 876 C 389 889 393 907 393 930 Z" unicode="Ã" />
<glyph horiz-adv-x="586" d="M 5 0 L 5 0 Z M 581 0 L 510 0 L 430 218 L 151 218 L 73 0 L 5 0 L 272 734 L 315 734 L 581 0 Z M 411 278 L 291 611 L 171 278 L 411 278 Z M 291 794 L 291 794 Z M 399 794 L 344 794 L 344 950 L 399 950 L 399 794 Z M 234 794 L 179 794 L 179 950 L 234 950 L 234 794 Z" unicode="Ä" />
<glyph horiz-adv-x="586" d="M 5 0 L 5 0 Z M 581 0 L 510 0 L 430 218 L 151 218 L 73 0 L 5 0 L 272 734 L 315 734 L 581 0 Z M 411 278 L 291 611 L 171 278 L 411 278 Z M 291 791 L 291 791 Z M 291 791 C 260 791 234 801 213 823 C 191 844 181 870 181 901 C 181 931 191 957 213 979 C 234 1001 260 1012 291 1012 C 321 1012 347 1001 369 979 C 391 957 402 931 402 901 C 402 870 391 844 369 823 C 347 801 321 791 291 791 Z M 291 829 C 311 829 327 836 341 850 C 354 864 361 881 361 901 C 361 921 354 939 341 953 C 327 967 311 974 291 974 C 271 974 255 967 241 953 C 227 939 221 921 221 901 C 221 881 227 864 241 850 C 255 836 271 829 291 829 Z" unicode="Å" />
<glyph horiz-adv-x="874" d="M 831 0 L 456 0 L 456 255 L 217 255 L 67 0 L -5 0 L 424 730 L 813 730 L 813 669 L 524 669 L 524 392 L 803 392 L 803 331 L 524 331 L 524 61 L 831 61 L 831 0 Z M 456 311 L 456 666 L 249 311 L 456 311 Z" unicode="Æ" />
<glyph horiz-adv-x="632" d="M 46 0 L 46 0 Z M 363 -10 C 320 -10 279 -1 241 15 C 202 31 168 55 140 87 C 111 119 88 158 71 205 C 54 251 46 305 46 365 C 46 420 53 471 69 517 C 84 563 106 603 134 636 C 162 668 195 694 234 712 C 273 730 316 740 364 740 C 426 740 477 729 515 708 C 553 686 585 659 610 626 L 561 580 C 541 606 515 629 484 647 C 453 665 414 675 366 675 C 290 675 229 646 185 590 C 140 534 118 457 118 361 C 118 309 125 264 139 226 C 153 187 171 155 194 129 C 217 103 244 84 274 72 C 304 59 335 53 367 53 C 417 53 459 63 493 84 C 527 105 555 131 577 163 L 623 125 C 597 85 562 52 518 27 C 474 2 423 -10 363 -10 Z M 349 -3 L 349 -3 Z M 357 -187 C 334 -187 311 -184 289 -178 C 266 -172 248 -164 235 -155 L 244 -125 C 254 -131 267 -137 284 -143 C 300 -149 318 -153 338 -153 C 354 -153 369 -149 382 -141 C 395 -133 402 -122 402 -109 C 402 -94 396 -84 385 -78 C 373 -72 361 -69 349 -69 C 339 -69 332 -69 326 -71 C 320 -72 312 -74 304 -77 L 292 -64 L 349 6 L 390 6 L 341 -56 C 374 -47 402 -49 426 -61 C 450 -73 462 -91 462 -115 C 462 -138 451 -156 431 -168 C 410 -180 385 -187 357 -187 Z" unicode="Ç" />
<glyph horiz-adv-x="509" d="M 90 0 L 90 0 Z M 467 0 L 90 0 L 90 730 L 449 730 L 449 667 L 159 667 L 159 393 L 438 393 L 438 330 L 159 330 L 159 63 L 467 63 L 467 0 Z M 271 793 L 271 793 Z M 358 793 L 294 793 L 184 960 L 260 960 L 358 793 Z" unicode="È" />
<glyph horiz-adv-x="509" d="M 90 0 L 90 0 Z M 467 0 L 90 0 L 90 730 L 449 730 L 449 667 L 159 667 L 159 393 L 438 393 L 438 330 L 159 330 L 159 63 L 467 63 L 467 0 Z M 271 793 L 271 793 Z M 184 793 L 282 960 L 358 960 L 249 793 L 184 793 Z" unicode="É" />
<glyph horiz-adv-x="509" d="M 90 0 L 90 0 Z M 467 0 L 90 0 L 90 730 L 449 730 L 449 667 L 159 667 L 159 393 L 438 393 L 438 330 L 159 330 L 159 63 L 467 63 L 467 0 Z M 271 794 L 271 794 Z M 417 794 L 358 794 L 271 918 L 183 794 L 126 794 L 240 964 L 303 964 L 417 794 Z" unicode="Ê" />
<glyph horiz-adv-x="509" d="M 90 0 L 90 0 Z M 467 0 L 90 0 L 90 730 L 449 730 L 449 667 L 159 667 L 159 393 L 438 393 L 438 330 L 159 330 L 159 63 L 467 63 L 467 0 Z M 271 794 L 271 794 Z M 379 794 L 324 794 L 324 950 L 379 950 L 379 794 Z M 214 794 L 159 794 L 159 950 L 214 950 L 214 794 Z" unicode="Ë" />
<glyph horiz-adv-x="259" d="M 43 0 L 43 0 Z M 165 0 L 95 0 L 95 730 L 165 730 L 165 0 Z M 130 793 L 130 793 Z M 217 793 L 153 793 L 43 960 L 119 960 L 217 793 Z" unicode="Ì" />
<glyph horiz-adv-x="259" d="M 43 0 L 43 0 Z M 165 0 L 95 0 L 95 730 L 165 730 L 165 0 Z M 130 793 L 130 793 Z M 43 793 L 141 960 L 217 960 L 108 793 L 43 793 Z" unicode="Í" />
<glyph horiz-adv-x="259" d="M 0 0 L 0 0 Z M 165 0 L 95 0 L 95 730 L 165 730 L 165 0 Z M 130 794 L 130 794 Z M 276 794 L 217 794 L 130 918 L 42 794 L -15 794 L 99 964 L 162 964 L 276 794 Z" unicode="Î" />
<glyph horiz-adv-x="259" d="M 18 0 L 18 0 Z M 165 0 L 95 0 L 95 730 L 165 730 L 165 0 Z M 130 794 L 130 794 Z M 238 794 L 183 794 L 183 950 L 238 950 L 238 794 Z M 73 794 L 18 794 L 18 950 L 73 950 L 73 794 Z" unicode="Ï" />
<glyph horiz-adv-x="671" d="M 624 366 C 624 315 616 267 601 223 C 585 178 562 139 532 107 C 502 74 464 48 418 29 C 372 9 320 0 260 0 L 90 0 L 90 332 L 31 332 L 31 388 L 90 388 L 90 730 L 271 730 C 326 730 376 721 420 704 C 464 687 501 663 531 632 C 561 600 584 562 600 517 C 616 472 624 422 624 366 Z M 160 59 L 252 59 C 305 59 351 67 389 83 C 427 99 459 121 483 149 C 507 177 524 209 535 246 C 546 283 552 322 552 364 C 552 461 526 536 476 590 C 426 643 357 670 271 670 L 160 670 L 160 388 L 357 388 L 357 332 L 160 332 L 160 59 Z" unicode="Ð" />
<glyph horiz-adv-x="702" d="M 90 0 L 90 0 Z M 612 0 L 562 0 L 157 591 L 157 0 L 90 0 L 90 730 L 142 730 L 546 140 L 546 730 L 612 730 L 612 0 Z M 353 802 L 353 802 Z M 455 930 L 503 930 C 503 886 497 854 485 833 C 473 812 457 802 438 802 C 419 802 403 806 390 815 C 376 823 365 832 355 841 C 344 849 333 857 323 865 C 313 873 302 877 292 877 C 282 877 273 870 265 858 C 257 846 253 828 253 806 L 204 806 C 204 849 211 881 227 902 C 243 923 260 934 279 934 C 295 934 310 929 322 921 C 334 912 346 903 358 893 C 368 884 378 876 388 868 C 398 860 408 857 419 857 C 428 857 436 863 444 876 C 451 889 455 907 455 930 Z" unicode="Ñ" />
<glyph horiz-adv-x="754" d="M 46 0 L 46 0 Z M 380 -10 C 330 -10 285 -1 244 17 C 203 35 168 60 139 93 C 109 126 86 166 70 213 C 54 260 46 312 46 370 C 46 424 54 473 71 519 C 87 565 110 604 139 636 C 168 668 203 694 243 712 C 283 730 326 740 373 740 C 423 740 468 731 510 713 C 552 695 587 670 616 638 C 645 606 668 566 684 520 C 700 474 708 422 708 366 C 708 310 699 258 682 212 C 665 166 642 126 613 93 C 583 60 548 35 508 17 C 468 -1 425 -10 380 -10 Z M 379 53 C 415 53 448 60 480 75 C 512 89 539 110 562 138 C 585 165 603 198 616 238 C 629 277 636 321 636 371 C 636 417 629 458 616 496 C 603 534 585 566 562 592 C 539 618 512 639 480 654 C 448 668 413 676 375 676 C 337 676 302 669 271 655 C 239 641 212 620 190 594 C 167 567 149 534 137 496 C 125 457 119 413 119 365 C 119 315 125 271 139 232 C 153 193 171 160 195 134 C 218 108 245 88 277 74 C 309 60 343 53 379 53 Z M 375 793 L 375 793 Z M 462 793 L 398 793 L 288 960 L 364 960 L 462 793 Z" unicode="Ò" />
<glyph horiz-adv-x="754" d="M 46 0 L 46 0 Z M 380 -10 C 330 -10 285 -1 244 17 C 203 35 168 60 139 93 C 109 126 86 166 70 213 C 54 260 46 312 46 370 C 46 424 54 473 71 519 C 87 565 110 604 139 636 C 168 668 203 694 243 712 C 283 730 326 740 373 740 C 423 740 468 731 510 713 C 552 695 587 670 616 638 C 645 606 668 566 684 520 C 700 474 708 422 708 366 C 708 310 699 258 682 212 C 665 166 642 126 613 93 C 583 60 548 35 508 17 C 468 -1 425 -10 380 -10 Z M 379 53 C 415 53 448 60 480 75 C 512 89 539 110 562 138 C 585 165 603 198 616 238 C 629 277 636 321 636 371 C 636 417 629 458 616 496 C 603 534 585 566 562 592 C 539 618 512 639 480 654 C 448 668 413 676 375 676 C 337 676 302 669 271 655 C 239 641 212 620 190 594 C 167 567 149 534 137 496 C 125 457 119 413 119 365 C 119 315 125 271 139 232 C 153 193 171 160 195 134 C 218 108 245 88 277 74 C 309 60 343 53 379 53 Z M 375 793 L 375 793 Z M 288 793 L 386 960 L 462 960 L 353 793 L 288 793 Z" unicode="Ó" />
<glyph horiz-adv-x="754" d="M 46 0 L 46 0 Z M 380 -10 C 330 -10 285 -1 244 17 C 203 35 168 60 139 93 C 109 126 86 166 70 213 C 54 260 46 312 46 370 C 46 424 54 473 71 519 C 87 565 110 604 139 636 C 168 668 203 694 243 712 C 283 730 326 740 373 740 C 423 740 468 731 510 713 C 552 695 587 670 616 638 C 645 606 668 566 684 520 C 700 474 708 422 708 366 C 708 310 699 258 682 212 C 665 166 642 126 613 93 C 583 60 548 35 508 17 C 468 -1 425 -10 380 -10 Z M 379 53 C 415 53 448 60 480 75 C 512 89 539 110 562 138 C 585 165 603 198 616 238 C 629 277 636 321 636 371 C 636 417 629 458 616 496 C 603 534 585 566 562 592 C 539 618 512 639 480 654 C 448 668 413 676 375 676 C 337 676 302 669 271 655 C 239 641 212 620 190 594 C 167 567 149 534 137 496 C 125 457 119 413 119 365 C 119 315 125 271 139 232 C 153 193 171 160 195 134 C 218 108 245 88 277 74 C 309 60 343 53 379 53 Z M 375 794 L 375 794 Z M 521 794 L 462 794 L 375 918 L 287 794 L 230 794 L 344 964 L 407 964 L 521 794 Z" unicode="Ô" />
<glyph horiz-adv-x="754" d="M 46 0 L 46 0 Z M 380 -10 C 330 -10 285 -1 244 17 C 203 35 168 60 139 93 C 109 126 86 166 70 213 C 54 260 46 312 46 370 C 46 424 54 473 71 519 C 87 565 110 604 139 636 C 168 668 203 694 243 712 C 283 730 326 740 373 740 C 423 740 468 731 510 713 C 552 695 587 670 616 638 C 645 606 668 566 684 520 C 700 474 708 422 708 366 C 708 310 699 258 682 212 C 665 166 642 126 613 93 C 583 60 548 35 508 17 C 468 -1 425 -10 380 -10 Z M 379 53 C 415 53 448 60 480 75 C 512 89 539 110 562 138 C 585 165 603 198 616 238 C 629 277 636 321 636 371 C 636 417 629 458 616 496 C 603 534 585 566 562 592 C 539 618 512 639 480 654 C 448 668 413 676 375 676 C 337 676 302 669 271 655 C 239 641 212 620 190 594 C 167 567 149 534 137 496 C 125 457 119 413 119 365 C 119 315 125 271 139 232 C 153 193 171 160 195 134 C 218 108 245 88 277 74 C 309 60 343 53 379 53 Z M 375 802 L 375 802 Z M 477 930 L 525 930 C 525 886 519 854 507 833 C 495 812 479 802 460 802 C 441 802 425 806 412 815 C 398 823 387 832 377 841 C 366 849 355 857 345 865 C 335 873 324 877 314 877 C 304 877 295 870 287 858 C 279 846 275 828 275 806 L 226 806 C 226 849 233 881 249 902 C 265 923 282 934 301 934 C 317 934 332 929 344 921 C 356 912 368 903 380 893 C 390 884 400 876 410 868 C 420 860 430 857 441 857 C 450 857 458 863 466 876 C 473 889 477 907 477 930 Z" unicode="Õ" />
<glyph horiz-adv-x="754" d="M 46 0 L 46 0 Z M 380 -10 C 330 -10 285 -1 244 17 C 203 35 168 60 139 93 C 109 126 86 166 70 213 C 54 260 46 312 46 370 C 46 424 54 473 71 519 C 87 565 110 604 139 636 C 168 668 203 694 243 712 C 283 730 326 740 373 740 C 423 740 468 731 510 713 C 552 695 587 670 616 638 C 645 606 668 566 684 520 C 700 474 708 422 708 366 C 708 310 699 258 682 212 C 665 166 642 126 613 93 C 583 60 548 35 508 17 C 468 -1 425 -10 380 -10 Z M 379 53 C 415 53 448 60 480 75 C 512 89 539 110 562 138 C 585 165 603 198 616 238 C 629 277 636 321 636 371 C 636 417 629 458 616 496 C 603 534 585 566 562 592 C 539 618 512 639 480 654 C 448 668 413 676 375 676 C 337 676 302 669 271 655 C 239 641 212 620 190 594 C 167 567 149 534 137 496 C 125 457 119 413 119 365 C 119 315 125 271 139 232 C 153 193 171 160 195 134 C 218 108 245 88 277 74 C 309 60 343 53 379 53 Z M 375 794 L 375 794 Z M 483 794 L 428 794 L 428 950 L 483 950 L 483 794 Z M 318 794 L 263 794 L 263 950 L 318 950 L 318 794 Z" unicode="Ö" />
<glyph horiz-adv-x="501" d="M 110 153 L 73 191 L 213 331 L 73 471 L 110 508 L 251 368 L 391 508 L 428 471 L 287 331 L 428 191 L 391 152 L 251 294 L 110 153 Z" unicode="×" />
<glyph horiz-adv-x="754" d="M 708 366 C 708 310 699 258 682 212 C 665 166 642 126 613 93 C 583 60 548 35 508 17 C 468 -1 425 -10 380 -10 C 334 -10 291 -2 252 14 C 212 30 178 52 150 81 L 83 6 L 52 35 L 122 114 C 98 146 79 183 66 227 C 52 270 46 318 46 370 C 46 424 54 473 71 519 C 87 565 110 604 139 636 C 168 668 203 694 243 712 C 283 730 326 740 373 740 C 419 740 461 732 500 717 C 539 702 573 681 602 653 L 678 739 L 709 710 L 630 621 C 654 589 673 551 687 508 C 701 465 708 418 708 366 Z M 119 365 C 119 325 123 288 132 255 C 141 221 154 192 170 168 L 555 601 C 532 625 505 643 475 656 C 444 669 411 676 375 676 C 337 676 302 669 271 655 C 239 641 212 620 190 594 C 167 567 149 534 137 496 C 125 457 119 413 119 365 Z M 636 371 C 636 409 631 445 621 479 C 611 512 598 541 582 567 L 196 133 C 219 107 246 87 278 73 C 310 59 343 53 379 53 C 415 53 448 60 480 75 C 512 89 539 110 562 138 C 585 165 603 198 616 238 C 629 277 636 321 636 371 Z" unicode="Ø" />
<glyph horiz-adv-x="668" d="M 83 0 L 83 0 Z M 585 730 L 585 248 C 585 206 578 168 565 136 C 551 104 533 77 511 55 C 488 33 461 17 431 6 C 400 -4 367 -10 332 -10 C 298 -10 265 -4 235 6 C 205 16 178 32 156 54 C 133 75 115 102 102 134 C 89 166 83 204 83 248 L 83 730 L 151 730 L 151 242 C 151 212 155 185 165 162 C 175 138 188 118 204 102 C 220 86 239 73 261 65 C 283 57 307 53 332 53 C 357 53 381 57 403 65 C 425 73 445 84 462 100 C 478 116 492 135 502 159 C 512 183 517 210 517 242 L 517 730 L 585 730 Z M 333 793 L 333 793 Z M 420 793 L 356 793 L 246 960 L 322 960 L 420 793 Z" unicode="Ù" />
<glyph horiz-adv-x="668" d="M 83 0 L 83 0 Z M 585 730 L 585 248 C 585 206 578 168 565 136 C 551 104 533 77 511 55 C 488 33 461 17 431 6 C 400 -4 367 -10 332 -10 C 298 -10 265 -4 235 6 C 205 16 178 32 156 54 C 133 75 115 102 102 134 C 89 166 83 204 83 248 L 83 730 L 151 730 L 151 242 C 151 212 155 185 165 162 C 175 138 188 118 204 102 C 220 86 239 73 261 65 C 283 57 307 53 332 53 C 357 53 381 57 403 65 C 425 73 445 84 462 100 C 478 116 492 135 502 159 C 512 183 517 210 517 242 L 517 730 L 585 730 Z M 333 793 L 333 793 Z M 246 793 L 344 960 L 420 960 L 311 793 L 246 793 Z" unicode="Ú" />
<glyph horiz-adv-x="668" d="M 83 0 L 83 0 Z M 585 730 L 585 248 C 585 206 578 168 565 136 C 551 104 533 77 511 55 C 488 33 461 17 431 6 C 400 -4 367 -10 332 -10 C 298 -10 265 -4 235 6 C 205 16 178 32 156 54 C 133 75 115 102 102 134 C 89 166 83 204 83 248 L 83 730 L 151 730 L 151 242 C 151 212 155 185 165 162 C 175 138 188 118 204 102 C 220 86 239 73 261 65 C 283 57 307 53 332 53 C 357 53 381 57 403 65 C 425 73 445 84 462 100 C 478 116 492 135 502 159 C 512 183 517 210 517 242 L 517 730 L 585 730 Z M 333 794 L 333 794 Z M 479 794 L 420 794 L 333 918 L 245 794 L 188 794 L 302 964 L 365 964 L 479 794 Z" unicode="Û" />
<glyph horiz-adv-x="668" d="M 83 0 L 83 0 Z M 585 730 L 585 248 C 585 206 578 168 565 136 C 551 104 533 77 511 55 C 488 33 461 17 431 6 C 400 -4 367 -10 332 -10 C 298 -10 265 -4 235 6 C 205 16 178 32 156 54 C 133 75 115 102 102 134 C 89 166 83 204 83 248 L 83 730 L 151 730 L 151 242 C 151 212 155 185 165 162 C 175 138 188 118 204 102 C 220 86 239 73 261 65 C 283 57 307 53 332 53 C 357 53 381 57 403 65 C 425 73 445 84 462 100 C 478 116 492 135 502 159 C 512 183 517 210 517 242 L 517 730 L 585 730 Z M 333 794 L 333 794 Z M 441 794 L 386 794 L 386 950 L 441 950 L 441 794 Z M 276 794 L 221 794 L 221 950 L 276 950 L 276 794 Z" unicode="Ü" />
<glyph horiz-adv-x="573" d="M 3 0 L 3 0 Z M 570 730 L 319 314 L 319 0 L 249 0 L 249 316 L 3 730 L 80 730 L 288 382 L 496 730 L 570 730 Z M 287 793 L 287 793 Z M 200 793 L 298 960 L 374 960 L 265 793 L 200 793 Z" unicode="Ý" />
<glyph horiz-adv-x="532" d="M 90 0 L 90 730 L 160 730 L 160 591 L 290 591 C 356 591 408 572 446 534 C 484 496 504 445 504 382 C 504 318 484 266 445 226 C 405 186 355 166 295 166 L 160 166 L 160 0 L 90 0 Z M 159 226 L 284 226 C 330 226 366 240 394 268 C 421 296 435 335 435 385 C 435 433 419 469 388 493 C 357 517 320 530 278 530 L 159 530 L 159 226 Z" unicode="Þ" />
<glyph horiz-adv-x="551" d="M 385 -9 C 350 -9 320 -3 295 6 C 270 16 249 31 232 50 L 265 93 C 277 78 294 66 315 57 C 335 48 358 44 382 44 C 404 44 423 49 440 61 C 456 73 465 90 465 114 C 465 132 457 148 442 162 C 426 175 399 189 360 204 C 314 220 282 240 265 262 C 248 284 240 309 240 338 C 240 369 250 394 271 413 C 291 432 315 444 341 449 C 347 453 355 462 365 478 C 374 493 379 524 379 572 C 379 616 368 648 347 670 C 325 692 298 703 264 703 C 232 703 205 692 183 671 C 161 649 150 620 150 582 L 150 0 L 84 0 L 84 584 C 84 610 88 634 98 656 C 107 677 120 695 136 710 C 152 725 171 737 193 745 C 215 753 238 757 263 757 C 314 757 357 741 391 710 C 425 678 441 631 441 569 C 441 517 433 479 417 454 C 401 428 387 413 373 409 C 353 407 336 400 320 390 C 304 379 296 364 296 344 C 296 327 302 312 316 298 C 330 284 356 271 394 257 C 440 239 472 220 492 200 C 512 179 522 151 522 117 C 522 96 518 78 510 62 C 502 46 492 33 480 23 C 467 12 452 4 436 -1 C 419 -6 402 -9 385 -9 Z" unicode="ß" />
<glyph horiz-adv-x="436" d="M 23 0 L 23 0 Z M 381 0 L 320 0 L 320 59 C 308 42 289 26 264 12 C 238 -2 208 -10 174 -10 C 127 -10 90 2 63 27 C 36 52 23 86 23 129 C 23 174 39 209 73 233 C 106 257 150 271 206 274 L 318 280 L 318 300 C 318 332 308 356 288 372 C 268 387 243 395 211 395 C 182 395 156 390 134 380 C 111 370 94 361 84 353 L 58 397 C 72 409 93 421 121 431 C 149 441 182 447 221 447 C 265 447 302 435 334 412 C 365 389 381 353 381 303 L 381 0 Z M 319 103 L 319 232 L 213 226 C 175 224 145 215 121 199 C 97 183 86 160 86 131 C 86 102 96 80 116 66 C 136 52 160 45 189 45 C 219 45 245 51 269 64 C 293 77 309 90 319 103 Z M 211 499 L 211 499 Z M 298 499 L 234 499 L 124 666 L 200 666 L 298 499 Z" unicode="à" />
<glyph horiz-adv-x="436" d="M 23 0 L 23 0 Z M 381 0 L 320 0 L 320 59 C 308 42 289 26 264 12 C 238 -2 208 -10 174 -10 C 127 -10 90 2 63 27 C 36 52 23 86 23 129 C 23 174 39 209 73 233 C 106 257 150 271 206 274 L 318 280 L 318 300 C 318 332 308 356 288 372 C 268 387 243 395 211 395 C 182 395 156 390 134 380 C 111 370 94 361 84 353 L 58 397 C 72 409 93 421 121 431 C 149 441 182 447 221 447 C 265 447 302 435 334 412 C 365 389 381 353 381 303 L 381 0 Z M 319 103 L 319 232 L 213 226 C 175 224 145 215 121 199 C 97 183 86 160 86 131 C 86 102 96 80 116 66 C 136 52 160 45 189 45 C 219 45 245 51 269 64 C 293 77 309 90 319 103 Z M 211 499 L 211 499 Z M 124 499 L 222 666 L 298 666 L 189 499 L 124 499 Z" unicode="á" />
<glyph horiz-adv-x="436" d="M 23 0 L 23 0 Z M 381 0 L 320 0 L 320 59 C 308 42 289 26 264 12 C 238 -2 208 -10 174 -10 C 127 -10 90 2 63 27 C 36 52 23 86 23 129 C 23 174 39 209 73 233 C 106 257 150 271 206 274 L 318 280 L 318 300 C 318 332 308 356 288 372 C 268 387 243 395 211 395 C 182 395 156 390 134 380 C 111 370 94 361 84 353 L 58 397 C 72 409 93 421 121 431 C 149 441 182 447 221 447 C 265 447 302 435 334 412 C 365 389 381 353 381 303 L 381 0 Z M 319 103 L 319 232 L 213 226 C 175 224 145 215 121 199 C 97 183 86 160 86 131 C 86 102 96 80 116 66 C 136 52 160 45 189 45 C 219 45 245 51 269 64 C 293 77 309 90 319 103 Z M 211 500 L 211 500 Z M 357 500 L 298 500 L 211 624 L 123 500 L 66 500 L 180 670 L 243 670 L 357 500 Z" unicode="â" />
<glyph horiz-adv-x="436" d="M 23 0 L 23 0 Z M 381 0 L 320 0 L 320 59 C 308 42 289 26 264 12 C 238 -2 208 -10 174 -10 C 127 -10 90 2 63 27 C 36 52 23 86 23 129 C 23 174 39 209 73 233 C 106 257 150 271 206 274 L 318 280 L 318 300 C 318 332 308 356 288 372 C 268 387 243 395 211 395 C 182 395 156 390 134 380 C 111 370 94 361 84 353 L 58 397 C 72 409 93 421 121 431 C 149 441 182 447 221 447 C 265 447 302 435 334 412 C 365 389 381 353 381 303 L 381 0 Z M 319 103 L 319 232 L 213 226 C 175 224 145 215 121 199 C 97 183 86 160 86 131 C 86 102 96 80 116 66 C 136 52 160 45 189 45 C 219 45 245 51 269 64 C 293 77 309 90 319 103 Z M 211 508 L 211 508 Z M 313 636 L 361 636 C 361 592 355 560 343 539 C 331 518 315 508 296 508 C 277 508 261 512 248 521 C 234 529 223 538 213 547 C 202 555 191 563 181 571 C 171 579 160 583 150 583 C 140 583 131 576 123 564 C 115 552 111 534 111 512 L 62 512 C 62 555 69 587 85 608 C 101 629 118 640 137 640 C 153 640 168 635 180 627 C 192 618 204 609 216 599 C 226 590 236 582 246 574 C 256 566 266 563 277 563 C 286 563 294 569 302 582 C 309 595 313 613 313 636 Z" unicode="ã" />
<glyph horiz-adv-x="436" d="M 23 0 L 23 0 Z M 381 0 L 320 0 L 320 59 C 308 42 289 26 264 12 C 238 -2 208 -10 174 -10 C 127 -10 90 2 63 27 C 36 52 23 86 23 129 C 23 174 39 209 73 233 C 106 257 150 271 206 274 L 318 280 L 318 300 C 318 332 308 356 288 372 C 268 387 243 395 211 395 C 182 395 156 390 134 380 C 111 370 94 361 84 353 L 58 397 C 72 409 93 421 121 431 C 149 441 182 447 221 447 C 265 447 302 435 334 412 C 365 389 381 353 381 303 L 381 0 Z M 319 103 L 319 232 L 213 226 C 175 224 145 215 121 199 C 97 183 86 160 86 131 C 86 102 96 80 116 66 C 136 52 160 45 189 45 C 219 45 245 51 269 64 C 293 77 309 90 319 103 Z M 211 500 L 211 500 Z M 319 500 L 264 500 L 264 656 L 319 656 L 319 500 Z M 154 500 L 99 500 L 99 656 L 154 656 L 154 500 Z" unicode="ä" />
<glyph horiz-adv-x="436" d="M 23 0 L 23 0 Z M 381 0 L 320 0 L 320 59 C 308 42 289 26 264 12 C 238 -2 208 -10 174 -10 C 127 -10 90 2 63 27 C 36 52 23 86 23 129 C 23 174 39 209 73 233 C 106 257 150 271 206 274 L 318 280 L 318 300 C 318 332 308 356 288 372 C 268 387 243 395 211 395 C 182 395 156 390 134 380 C 111 370 94 361 84 353 L 58 397 C 72 409 93 421 121 431 C 149 441 182 447 221 447 C 265 447 302 435 334 412 C 365 389 381 353 381 303 L 381 0 Z M 319 103 L 319 232 L 213 226 C 175 224 145 215 121 199 C 97 183 86 160 86 131 C 86 102 96 80 116 66 C 136 52 160 45 189 45 C 219 45 245 51 269 64 C 293 77 309 90 319 103 Z M 211 497 L 211 497 Z M 211 497 C 180 497 154 507 133 529 C 111 550 101 576 101 607 C 101 637 111 663 133 685 C 154 707 180 718 211 718 C 241 718 267 707 289 685 C 311 663 322 637 322 607 C 322 576 311 550 289 529 C 267 507 241 497 211 497 Z M 211 535 C 231 535 247 542 261 556 C 274 570 281 587 281 607 C 281 627 274 645 261 659 C 247 673 231 680 211 680 C 191 680 175 673 161 659 C 147 645 141 627 141 607 C 141 587 147 570 161 556 C 175 542 191 535 211 535 Z" unicode="å" />
<glyph horiz-adv-x="743" d="M 532 -9 C 480 -9 440 2 411 26 C 382 49 362 75 352 103 C 343 73 322 46 290 24 C 257 1 218 -10 172 -10 C 128 -10 93 2 65 26 C 37 50 23 84 23 128 C 23 173 39 208 73 233 C 106 257 151 271 207 274 L 324 280 L 324 298 C 324 332 312 356 290 372 C 268 387 241 395 211 395 C 181 395 155 390 132 380 C 109 370 93 361 83 352 L 58 396 C 73 410 95 421 123 431 C 151 441 182 446 216 446 C 254 446 287 437 315 420 C 343 403 359 379 364 347 C 374 371 392 393 418 414 C 444 435 480 446 528 446 C 587 446 634 424 670 380 C 706 336 724 277 724 203 L 385 203 C 387 150 401 110 427 83 C 453 56 488 43 532 43 C 572 43 601 49 620 62 C 639 74 656 89 671 106 L 709 70 C 691 48 669 30 643 14 C 617 -1 580 -9 532 -9 Z M 386 250 L 662 250 C 662 289 649 323 623 351 C 597 379 563 394 521 394 C 479 394 446 380 424 352 C 401 324 388 290 386 250 Z M 189 45 C 226 45 257 55 283 75 C 308 95 322 120 326 148 L 326 232 L 213 226 C 176 224 146 215 122 200 C 98 184 86 162 86 132 C 86 101 96 79 116 65 C 136 51 161 45 189 45 Z" unicode="æ" />
<glyph horiz-adv-x="418" d="M 28 0 L 28 0 Z M 358 120 L 408 89 C 401 78 393 67 383 55 C 373 43 362 33 348 23 C 334 13 318 6 299 0 C 280 -6 258 -9 234 -9 C 202 -9 173 -3 147 8 C 121 20 100 36 83 56 C 65 76 52 99 42 127 C 32 155 28 185 28 217 C 28 248 33 278 43 306 C 53 334 67 358 85 379 C 103 399 125 416 151 428 C 177 440 205 446 237 446 C 282 446 319 435 348 415 C 376 394 397 372 410 350 L 357 317 C 345 337 329 354 310 368 C 291 382 266 390 236 390 C 215 390 196 385 178 376 C 160 367 146 355 134 340 C 122 324 112 306 105 285 C 98 264 95 242 95 219 C 95 169 108 127 134 95 C 160 63 194 47 238 47 C 273 47 300 55 318 72 C 336 89 349 105 358 120 Z M 225 -4 L 225 -4 Z M 233 -188 C 210 -188 187 -185 165 -179 C 142 -173 124 -165 111 -156 L 120 -126 C 130 -132 143 -138 160 -144 C 176 -150 194 -154 214 -154 C 230 -154 245 -150 258 -142 C 271 -134 278 -123 278 -110 C 278 -95 272 -85 261 -79 C 249 -73 237 -70 225 -70 C 215 -70 208 -70 202 -72 C 196 -73 188 -75 180 -78 L 168 -65 L 225 5 L 266 5 L 217 -57 C 250 -48 278 -50 302 -62 C 326 -74 338 -92 338 -116 C 338 -139 327 -157 307 -169 C 286 -181 261 -188 233 -188 Z" unicode="ç" />
<glyph horiz-adv-x="454" d="M 28 0 L 28 0 Z M 242 -9 C 180 -9 128 10 88 50 C 48 90 28 145 28 216 C 28 249 33 280 43 308 C 53 336 68 360 86 380 C 104 400 125 416 151 428 C 176 440 204 446 234 446 C 294 446 342 424 379 382 C 415 340 434 280 434 203 L 90 203 C 90 151 105 111 133 84 C 161 56 198 43 243 43 C 283 43 313 49 333 63 C 353 76 369 90 382 106 L 419 70 C 403 50 382 31 356 15 C 330 0 292 -9 242 -9 Z M 92 251 L 373 251 C 372 290 359 324 334 352 C 309 380 276 394 234 394 C 192 394 158 380 133 352 C 108 324 94 291 92 251 Z M 232 499 L 232 499 Z M 319 499 L 255 499 L 145 666 L 221 666 L 319 499 Z" unicode="è" />
<glyph horiz-adv-x="454" d="M 28 0 L 28 0 Z M 242 -9 C 180 -9 128 10 88 50 C 48 90 28 145 28 216 C 28 249 33 280 43 308 C 53 336 68 360 86 380 C 104 400 125 416 151 428 C 176 440 204 446 234 446 C 294 446 342 424 379 382 C 415 340 434 280 434 203 L 90 203 C 90 151 105 111 133 84 C 161 56 198 43 243 43 C 283 43 313 49 333 63 C 353 76 369 90 382 106 L 419 70 C 403 50 382 31 356 15 C 330 0 292 -9 242 -9 Z M 92 251 L 373 251 C 372 290 359 324 334 352 C 309 380 276 394 234 394 C 192 394 158 380 133 352 C 108 324 94 291 92 251 Z M 232 499 L 232 499 Z M 145 499 L 243 666 L 319 666 L 210 499 L 145 499 Z" unicode="é" />
<glyph horiz-adv-x="454" d="M 28 0 L 28 0 Z M 242 -9 C 180 -9 128 10 88 50 C 48 90 28 145 28 216 C 28 249 33 280 43 308 C 53 336 68 360 86 380 C 104 400 125 416 151 428 C 176 440 204 446 234 446 C 294 446 342 424 379 382 C 415 340 434 280 434 203 L 90 203 C 90 151 105 111 133 84 C 161 56 198 43 243 43 C 283 43 313 49 333 63 C 353 76 369 90 382 106 L 419 70 C 403 50 382 31 356 15 C 330 0 292 -9 242 -9 Z M 92 251 L 373 251 C 372 290 359 324 334 352 C 309 380 276 394 234 394 C 192 394 158 380 133 352 C 108 324 94 291 92 251 Z M 232 500 L 232 500 Z M 378 500 L 319 500 L 232 624 L 144 500 L 87 500 L 201 670 L 264 670 L 378 500 Z" unicode="ê" />
<glyph horiz-adv-x="454" d="M 28 0 L 28 0 Z M 242 -9 C 180 -9 128 10 88 50 C 48 90 28 145 28 216 C 28 249 33 280 43 308 C 53 336 68 360 86 380 C 104 400 125 416 151 428 C 176 440 204 446 234 446 C 294 446 342 424 379 382 C 415 340 434 280 434 203 L 90 203 C 90 151 105 111 133 84 C 161 56 198 43 243 43 C 283 43 313 49 333 63 C 353 76 369 90 382 106 L 419 70 C 403 50 382 31 356 15 C 330 0 292 -9 242 -9 Z M 92 251 L 373 251 C 372 290 359 324 334 352 C 309 380 276 394 234 394 C 192 394 158 380 133 352 C 108 324 94 291 92 251 Z M 232 500 L 232 500 Z M 340 500 L 285 500 L 285 656 L 340 656 L 340 500 Z M 175 500 L 120 500 L 120 656 L 175 656 L 175 500 Z" unicode="ë" />
<glyph horiz-adv-x="197" d="M 11 0 L 11 0 Z M 131 0 L 66 0 L 66 436 L 131 436 L 131 0 Z M 98 499 L 98 499 Z M 185 499 L 121 499 L 11 666 L 87 666 L 185 499 Z" unicode="ì" />
<glyph horiz-adv-x="197" d="M 11 0 L 11 0 Z M 131 0 L 66 0 L 66 436 L 131 436 L 131 0 Z M 98 499 L 98 499 Z M 11 499 L 109 666 L 185 666 L 76 499 L 11 499 Z" unicode="í" />
<glyph horiz-adv-x="197" d="M 0 0 L 0 0 Z M 131 0 L 66 0 L 66 436 L 131 436 L 131 0 Z M 98 500 L 98 500 Z M 244 500 L 185 500 L 98 624 L 10 500 L -47 500 L 67 670 L 130 670 L 244 500 Z" unicode="î" />
<glyph horiz-adv-x="197" d="M 0 0 L 0 0 Z M 131 0 L 66 0 L 66 436 L 131 436 L 131 0 Z M 98 500 L 98 500 Z M 206 500 L 151 500 L 151 656 L 206 656 L 206 500 Z M 41 500 L -14 500 L -14 656 L 41 656 L 41 500 Z" unicode="ï" />
<glyph horiz-adv-x="489" d="M 455 248 C 455 212 450 178 440 147 C 430 115 415 88 397 65 C 379 42 356 24 329 11 C 302 -2 272 -9 239 -9 C 209 -9 182 -3 156 7 C 130 17 107 32 89 52 C 70 72 55 96 44 124 C 33 152 28 184 28 219 C 28 251 33 281 45 309 C 56 337 71 361 90 381 C 109 401 131 417 156 429 C 181 440 207 446 235 446 C 275 446 309 435 336 415 C 362 394 381 373 391 353 C 386 405 375 451 359 492 C 343 533 324 568 304 598 L 177 559 L 161 604 L 273 639 C 250 665 228 686 206 701 C 184 715 168 725 157 730 L 209 757 C 223 749 241 738 263 722 C 285 706 307 684 330 657 L 406 680 L 422 635 L 360 616 C 386 576 408 526 427 466 C 445 406 455 333 455 248 Z M 237 45 C 283 45 319 61 346 95 C 373 128 387 170 387 220 C 387 270 374 312 348 344 C 322 376 287 392 242 392 C 200 392 164 375 136 342 C 108 308 94 268 94 220 C 94 166 107 124 135 92 C 163 60 197 45 237 45 Z" unicode="ð" />
<glyph horiz-adv-x="473" d="M 61 0 L 61 0 Z M 416 0 L 351 0 L 351 293 C 351 324 341 349 323 367 C 305 385 279 394 247 394 C 215 394 187 383 163 362 C 138 341 126 307 126 261 L 126 0 L 61 0 L 61 436 L 123 436 L 123 351 C 131 378 148 401 174 419 C 200 437 232 447 270 447 C 314 447 349 434 376 410 C 402 386 416 352 416 308 L 416 0 Z M 237 508 L 237 508 Z M 339 636 L 387 636 C 387 592 381 560 369 539 C 357 518 341 508 322 508 C 303 508 287 512 274 521 C 260 529 249 538 239 547 C 228 555 217 563 207 571 C 197 579 186 583 176 583 C 166 583 157 576 149 564 C 141 552 137 534 137 512 L 88 512 C 88 555 95 587 111 608 C 127 629 144 640 163 640 C 179 640 194 635 206 627 C 218 618 230 609 242 599 C 252 590 262 582 272 574 C 282 566 292 563 303 563 C 312 563 320 569 328 582 C 335 595 339 613 339 636 Z" unicode="ñ" />
<glyph horiz-adv-x="477" d="M 28 0 L 28 0 Z M 237 -9 C 209 -9 182 -3 157 7 C 131 17 109 32 90 52 C 71 71 56 95 45 123 C 33 151 28 182 28 217 C 28 249 33 279 44 307 C 54 335 69 359 87 379 C 105 399 127 416 152 428 C 177 440 204 446 233 446 C 263 446 291 440 317 430 C 343 419 366 404 386 385 C 405 366 420 343 432 317 C 443 290 449 261 449 229 C 449 195 443 163 433 134 C 422 105 407 80 389 59 C 370 37 348 21 322 9 C 296 -3 267 -9 237 -9 Z M 237 45 C 279 45 314 61 341 94 C 368 127 382 170 382 222 C 382 271 368 312 342 344 C 315 376 279 392 233 392 C 193 392 160 376 134 344 C 108 312 95 270 95 220 C 95 164 108 121 136 91 C 163 60 197 45 237 45 Z M 235 499 L 235 499 Z M 322 499 L 258 499 L 148 666 L 224 666 L 322 499 Z" unicode="ò" />
<glyph horiz-adv-x="477" d="M 28 0 L 28 0 Z M 237 -9 C 209 -9 182 -3 157 7 C 131 17 109 32 90 52 C 71 71 56 95 45 123 C 33 151 28 182 28 217 C 28 249 33 279 44 307 C 54 335 69 359 87 379 C 105 399 127 416 152 428 C 177 440 204 446 233 446 C 263 446 291 440 317 430 C 343 419 366 404 386 385 C 405 366 420 343 432 317 C 443 290 449 261 449 229 C 449 195 443 163 433 134 C 422 105 407 80 389 59 C 370 37 348 21 322 9 C 296 -3 267 -9 237 -9 Z M 237 45 C 279 45 314 61 341 94 C 368 127 382 170 382 222 C 382 271 368 312 342 344 C 315 376 279 392 233 392 C 193 392 160 376 134 344 C 108 312 95 270 95 220 C 95 164 108 121 136 91 C 163 60 197 45 237 45 Z M 235 499 L 235 499 Z M 148 499 L 246 666 L 322 666 L 213 499 L 148 499 Z" unicode="ó" />
<glyph horiz-adv-x="477" d="M 28 0 L 28 0 Z M 237 -9 C 209 -9 182 -3 157 7 C 131 17 109 32 90 52 C 71 71 56 95 45 123 C 33 151 28 182 28 217 C 28 249 33 279 44 307 C 54 335 69 359 87 379 C 105 399 127 416 152 428 C 177 440 204 446 233 446 C 263 446 291 440 317 430 C 343 419 366 404 386 385 C 405 366 420 343 432 317 C 443 290 449 261 449 229 C 449 195 443 163 433 134 C 422 105 407 80 389 59 C 370 37 348 21 322 9 C 296 -3 267 -9 237 -9 Z M 237 45 C 279 45 314 61 341 94 C 368 127 382 170 382 222 C 382 271 368 312 342 344 C 315 376 279 392 233 392 C 193 392 160 376 134 344 C 108 312 95 270 95 220 C 95 164 108 121 136 91 C 163 60 197 45 237 45 Z M 235 500 L 235 500 Z M 381 500 L 322 500 L 235 624 L 147 500 L 90 500 L 204 670 L 267 670 L 381 500 Z" unicode="ô" />
<glyph horiz-adv-x="477" d="M 28 0 L 28 0 Z M 237 -9 C 209 -9 182 -3 157 7 C 131 17 109 32 90 52 C 71 71 56 95 45 123 C 33 151 28 182 28 217 C 28 249 33 279 44 307 C 54 335 69 359 87 379 C 105 399 127 416 152 428 C 177 440 204 446 233 446 C 263 446 291 440 317 430 C 343 419 366 404 386 385 C 405 366 420 343 432 317 C 443 290 449 261 449 229 C 449 195 443 163 433 134 C 422 105 407 80 389 59 C 370 37 348 21 322 9 C 296 -3 267 -9 237 -9 Z M 237 45 C 279 45 314 61 341 94 C 368 127 382 170 382 222 C 382 271 368 312 342 344 C 315 376 279 392 233 392 C 193 392 160 376 134 344 C 108 312 95 270 95 220 C 95 164 108 121 136 91 C 163 60 197 45 237 45 Z M 235 508 L 235 508 Z M 337 636 L 385 636 C 385 592 379 560 367 539 C 355 518 339 508 320 508 C 301 508 285 512 272 521 C 258 529 247 538 237 547 C 226 555 215 563 205 571 C 195 579 184 583 174 583 C 164 583 155 576 147 564 C 139 552 135 534 135 512 L 86 512 C 86 555 93 587 109 608 C 125 629 142 640 161 640 C 177 640 192 635 204 627 C 216 618 228 609 240 599 C 250 590 260 582 270 574 C 280 566 290 563 301 563 C 310 563 318 569 326 582 C 333 595 337 613 337 636 Z" unicode="õ" />
<glyph horiz-adv-x="477" d="M 28 0 L 28 0 Z M 237 -9 C 209 -9 182 -3 157 7 C 131 17 109 32 90 52 C 71 71 56 95 45 123 C 33 151 28 182 28 217 C 28 249 33 279 44 307 C 54 335 69 359 87 379 C 105 399 127 416 152 428 C 177 440 204 446 233 446 C 263 446 291 440 317 430 C 343 419 366 404 386 385 C 405 366 420 343 432 317 C 443 290 449 261 449 229 C 449 195 443 163 433 134 C 422 105 407 80 389 59 C 370 37 348 21 322 9 C 296 -3 267 -9 237 -9 Z M 237 45 C 279 45 314 61 341 94 C 368 127 382 170 382 222 C 382 271 368 312 342 344 C 315 376 279 392 233 392 C 193 392 160 376 134 344 C 108 312 95 270 95 220 C 95 164 108 121 136 91 C 163 60 197 45 237 45 Z M 235 500 L 235 500 Z M 343 500 L 288 500 L 288 656 L 343 656 L 343 500 Z M 178 500 L 123 500 L 123 656 L 178 656 L 178 500 Z" unicode="ö" />
<glyph horiz-adv-x="500" d="M 219 447 L 219 555 L 281 555 L 281 447 L 219 447 Z M 28 303 L 28 359 L 472 359 L 472 303 L 28 303 Z M 219 106 L 219 214 L 281 214 L 281 106 L 219 106 Z" unicode="÷" />
<glyph horiz-adv-x="477" d="M 449 229 C 449 195 443 163 433 134 C 422 105 407 80 389 59 C 370 37 348 21 322 9 C 296 -3 267 -9 237 -9 C 211 -9 187 -4 164 4 C 140 12 119 25 101 42 L 63 0 L 39 25 L 77 67 C 62 85 50 107 41 133 C 32 158 28 186 28 217 C 28 249 33 279 44 307 C 54 335 69 359 87 379 C 105 399 127 416 152 428 C 177 440 204 446 233 446 C 260 446 286 441 311 433 C 335 424 357 411 376 395 L 412 435 L 436 410 L 400 371 C 415 352 427 331 436 307 C 444 283 449 257 449 229 Z M 95 220 C 95 198 97 179 101 161 C 105 143 112 128 120 114 L 336 351 C 323 363 308 373 290 381 C 272 388 253 392 233 392 C 193 392 160 376 134 344 C 108 312 95 270 95 220 Z M 382 222 C 382 241 379 259 375 276 C 371 293 365 309 357 323 L 141 86 C 153 72 168 62 184 55 C 200 48 218 45 237 45 C 279 45 314 61 341 94 C 368 127 382 170 382 222 Z" unicode="ø" />
<glyph horiz-adv-x="474" d="M 58 0 L 58 0 Z M 58 436 L 122 436 L 122 145 C 122 112 131 87 150 69 C 168 51 194 42 227 42 C 259 42 287 52 311 73 C 335 93 348 127 348 173 L 348 436 L 412 436 L 412 0 L 349 0 L 349 85 C 339 57 321 35 295 17 C 269 0 239 -9 203 -9 C 161 -9 126 3 99 28 C 71 52 58 88 58 134 L 58 436 Z M 235 499 L 235 499 Z M 322 499 L 258 499 L 148 666 L 224 666 L 322 499 Z" unicode="ù" />
<glyph horiz-adv-x="474" d="M 58 0 L 58 0 Z M 58 436 L 122 436 L 122 145 C 122 112 131 87 150 69 C 168 51 194 42 227 42 C 259 42 287 52 311 73 C 335 93 348 127 348 173 L 348 436 L 412 436 L 412 0 L 349 0 L 349 85 C 339 57 321 35 295 17 C 269 0 239 -9 203 -9 C 161 -9 126 3 99 28 C 71 52 58 88 58 134 L 58 436 Z M 235 499 L 235 499 Z M 148 499 L 246 666 L 322 666 L 213 499 L 148 499 Z" unicode="ú" />
<glyph horiz-adv-x="474" d="M 58 0 L 58 0 Z M 58 436 L 122 436 L 122 145 C 122 112 131 87 150 69 C 168 51 194 42 227 42 C 259 42 287 52 311 73 C 335 93 348 127 348 173 L 348 436 L 412 436 L 412 0 L 349 0 L 349 85 C 339 57 321 35 295 17 C 269 0 239 -9 203 -9 C 161 -9 126 3 99 28 C 71 52 58 88 58 134 L 58 436 Z M 235 500 L 235 500 Z M 381 500 L 322 500 L 235 624 L 147 500 L 90 500 L 204 670 L 267 670 L 381 500 Z" unicode="û" />
<glyph horiz-adv-x="474" d="M 58 0 L 58 0 Z M 58 436 L 122 436 L 122 145 C 122 112 131 87 150 69 C 168 51 194 42 227 42 C 259 42 287 52 311 73 C 335 93 348 127 348 173 L 348 436 L 412 436 L 412 0 L 349 0 L 349 85 C 339 57 321 35 295 17 C 269 0 239 -9 203 -9 C 161 -9 126 3 99 28 C 71 52 58 88 58 134 L 58 436 Z M 235 500 L 235 500 Z M 343 500 L 288 500 L 288 656 L 343 656 L 343 500 Z M 178 500 L 123 500 L 123 656 L 178 656 L 178 500 Z" unicode="ü" />
<glyph horiz-adv-x="410" d="M 0 0 L 0 0 Z M 409 436 L 184 -99 C 166 -139 146 -165 123 -179 C 99 -193 77 -200 56 -200 C 44 -200 33 -198 24 -196 C 14 -194 7 -192 3 -190 L 21 -132 C 23 -133 28 -135 36 -137 C 43 -139 51 -141 59 -141 C 72 -141 85 -135 98 -125 C 111 -115 123 -96 135 -70 L 175 28 L 0 436 L 69 436 L 207 100 L 344 436 L 409 436 Z M 206 499 L 206 499 Z M 119 499 L 217 666 L 293 666 L 184 499 L 119 499 Z" unicode="ý" />
<glyph horiz-adv-x="488" d="M 61 -200 L 61 743 L 122 743 L 122 331 C 128 359 146 385 174 409 C 202 433 237 445 279 445 C 307 445 333 439 356 428 C 378 416 397 401 413 381 C 428 361 440 338 448 312 C 456 286 460 257 460 227 C 460 191 455 158 445 129 C 435 100 422 76 406 56 C 390 36 371 20 349 10 C 327 0 303 -6 279 -6 C 239 -6 205 4 177 24 C 149 44 132 67 124 92 L 124 -200 L 61 -200 Z M 261 43 C 299 43 330 58 355 89 C 380 120 393 163 393 217 C 393 267 381 309 359 343 C 336 377 302 394 258 394 C 222 394 190 378 163 348 C 136 318 123 272 123 212 C 123 182 126 157 134 136 C 142 114 152 97 165 83 C 177 69 192 59 209 53 C 225 46 243 43 261 43 Z" unicode="þ" />
<glyph horiz-adv-x="410" d="M 0 0 L 0 0 Z M 409 436 L 184 -99 C 166 -139 146 -165 123 -179 C 99 -193 77 -200 56 -200 C 44 -200 33 -198 24 -196 C 14 -194 7 -192 3 -190 L 21 -132 C 23 -133 28 -135 36 -137 C 43 -139 51 -141 59 -141 C 72 -141 85 -135 98 -125 C 111 -115 123 -96 135 -70 L 175 28 L 0 436 L 69 436 L 207 100 L 344 436 L 409 436 Z M 206 500 L 206 500 Z M 314 500 L 259 500 L 259 656 L 314 656 L 314 500 Z M 149 500 L 94 500 L 94 656 L 149 656 L 149 500 Z" unicode="ÿ" />
<glyph horiz-adv-x="586" d="M 5 0 L 5 0 Z M 581 0 L 510 0 L 430 218 L 151 218 L 73 0 L 5 0 L 272 734 L 315 734 L 581 0 Z M 411 278 L 291 611 L 171 278 L 411 278 Z M 291 824 L 291 824 Z M 412 824 L 170 824 L 170 872 L 412 872 L 412 824 Z" unicode="Ā" />
<glyph horiz-adv-x="436" d="M 23 0 L 23 0 Z M 381 0 L 320 0 L 320 59 C 308 42 289 26 264 12 C 238 -2 208 -10 174 -10 C 127 -10 90 2 63 27 C 36 52 23 86 23 129 C 23 174 39 209 73 233 C 106 257 150 271 206 274 L 318 280 L 318 300 C 318 332 308 356 288 372 C 268 387 243 395 211 395 C 182 395 156 390 134 380 C 111 370 94 361 84 353 L 58 397 C 72 409 93 421 121 431 C 149 441 182 447 221 447 C 265 447 302 435 334 412 C 365 389 381 353 381 303 L 381 0 Z M 319 103 L 319 232 L 213 226 C 175 224 145 215 121 199 C 97 183 86 160 86 131 C 86 102 96 80 116 66 C 136 52 160 45 189 45 C 219 45 245 51 269 64 C 293 77 309 90 319 103 Z M 211 530 L 211 530 Z M 332 530 L 90 530 L 90 578 L 332 578 L 332 530 Z" unicode="ā" />
<glyph horiz-adv-x="586" d="M 5 0 L 5 0 Z M 581 0 L 510 0 L 430 218 L 151 218 L 73 0 L 5 0 L 272 734 L 315 734 L 581 0 Z M 411 278 L 291 611 L 171 278 L 411 278 Z M 291 801 L 291 801 Z M 375 956 L 430 956 C 426 902 411 862 386 838 C 360 813 329 801 291 801 C 253 801 221 813 196 838 C 170 862 156 902 152 956 L 207 956 C 209 922 217 895 230 873 C 242 851 263 841 291 841 C 319 841 339 851 352 872 C 365 893 373 921 375 956 Z" unicode="Ă" />
<glyph horiz-adv-x="436" d="M 23 0 L 23 0 Z M 381 0 L 320 0 L 320 59 C 308 42 289 26 264 12 C 238 -2 208 -10 174 -10 C 127 -10 90 2 63 27 C 36 52 23 86 23 129 C 23 174 39 209 73 233 C 106 257 150 271 206 274 L 318 280 L 318 300 C 318 332 308 356 288 372 C 268 387 243 395 211 395 C 182 395 156 390 134 380 C 111 370 94 361 84 353 L 58 397 C 72 409 93 421 121 431 C 149 441 182 447 221 447 C 265 447 302 435 334 412 C 365 389 381 353 381 303 L 381 0 Z M 319 103 L 319 232 L 213 226 C 175 224 145 215 121 199 C 97 183 86 160 86 131 C 86 102 96 80 116 66 C 136 52 160 45 189 45 C 219 45 245 51 269 64 C 293 77 309 90 319 103 Z M 211 507 L 211 507 Z M 295 662 L 350 662 C 346 608 331 568 306 544 C 280 519 249 507 211 507 C 173 507 141 519 116 544 C 90 568 76 608 72 662 L 127 662 C 129 628 137 601 150 579 C 162 557 183 547 211 547 C 239 547 259 557 272 578 C 285 599 293 627 295 662 Z" unicode="ă" />
<glyph horiz-adv-x="586" d="M 5 0 L 5 0 Z M 581 0 L 510 0 L 430 218 L 151 218 L 73 0 L 5 0 L 272 734 L 315 734 L 581 0 Z M 411 278 L 291 611 L 171 278 L 411 278 Z M 500 -10 L 500 -10 Z M 605 -110 L 625 -137 C 606 -156 584 -171 560 -181 C 535 -191 508 -197 479 -197 C 447 -197 421 -189 403 -175 C 384 -161 375 -142 375 -120 C 375 -96 386 -73 409 -52 C 431 -30 465 -12 509 4 L 543 3 C 509 -11 481 -27 461 -43 C 441 -59 431 -77 431 -95 C 431 -111 437 -124 450 -134 C 463 -143 479 -148 499 -148 C 521 -148 541 -144 560 -137 C 578 -130 593 -121 605 -110 Z" unicode="Ą" />
<glyph horiz-adv-x="436" d="M 23 0 L 23 0 Z M 381 0 L 320 0 L 320 59 C 308 42 289 26 264 12 C 238 -2 208 -10 174 -10 C 127 -10 90 2 63 27 C 36 52 23 86 23 129 C 23 174 39 209 73 233 C 106 257 150 271 206 274 L 318 280 L 318 300 C 318 332 308 356 288 372 C 268 387 243 395 211 395 C 182 395 156 390 134 380 C 111 370 94 361 84 353 L 58 397 C 72 409 93 421 121 431 C 149 441 182 447 221 447 C 265 447 302 435 334 412 C 365 389 381 353 381 303 L 381 0 Z M 319 103 L 319 232 L 213 226 C 175 224 145 215 121 199 C 97 183 86 160 86 131 C 86 102 96 80 116 66 C 136 52 160 45 189 45 C 219 45 245 51 269 64 C 293 77 309 90 319 103 Z M 318 -10 L 318 -10 Z M 423 -110 L 443 -137 C 424 -156 402 -171 378 -181 C 353 -191 326 -197 297 -197 C 265 -197 239 -189 221 -175 C 202 -161 193 -142 193 -120 C 193 -96 204 -73 227 -52 C 249 -30 283 -12 327 4 L 361 3 C 327 -11 299 -27 279 -43 C 259 -59 249 -77 249 -95 C 249 -111 255 -124 268 -134 C 281 -143 297 -148 317 -148 C 339 -148 359 -144 378 -137 C 396 -130 411 -121 423 -110 Z" unicode="ą" />
<glyph horiz-adv-x="632" d="M 46 0 L 46 0 Z M 363 -10 C 320 -10 279 -1 241 15 C 202 31 168 55 140 87 C 111 119 88 158 71 205 C 54 251 46 305 46 365 C 46 420 53 471 69 517 C 84 563 106 603 134 636 C 162 668 195 694 234 712 C 273 730 316 740 364 740 C 426 740 477 729 515 708 C 553 686 585 659 610 626 L 561 580 C 541 606 515 629 484 647 C 453 665 414 675 366 675 C 290 675 229 646 185 590 C 140 534 118 457 118 361 C 118 309 125 264 139 226 C 153 187 171 155 194 129 C 217 103 244 84 274 72 C 304 59 335 53 367 53 C 417 53 459 63 493 84 C 527 105 555 131 577 163 L 623 125 C 597 85 562 52 518 27 C 474 2 423 -10 363 -10 Z M 364 793 L 364 793 Z M 277 793 L 375 960 L 451 960 L 342 793 L 277 793 Z" unicode="Ć" />
<glyph horiz-adv-x="418" d="M 28 0 L 28 0 Z M 358 120 L 408 89 C 401 78 393 67 383 55 C 373 43 362 33 348 23 C 334 13 318 6 299 0 C 280 -6 258 -9 234 -9 C 202 -9 173 -3 147 8 C 121 20 100 36 83 56 C 65 76 52 99 42 127 C 32 155 28 185 28 217 C 28 248 33 278 43 306 C 53 334 67 358 85 379 C 103 399 125 416 151 428 C 177 440 205 446 237 446 C 282 446 319 435 348 415 C 376 394 397 372 410 350 L 357 317 C 345 337 329 354 310 368 C 291 382 266 390 236 390 C 215 390 196 385 178 376 C 160 367 146 355 134 340 C 122 324 112 306 105 285 C 98 264 95 242 95 219 C 95 169 108 127 134 95 C 160 63 194 47 238 47 C 273 47 300 55 318 72 C 336 89 349 105 358 120 Z M 227 499 L 227 499 Z M 140 499 L 238 666 L 314 666 L 205 499 L 140 499 Z" unicode="ć" />
<glyph horiz-adv-x="632" d="M 46 0 L 46 0 Z M 363 -10 C 320 -10 279 -1 241 15 C 202 31 168 55 140 87 C 111 119 88 158 71 205 C 54 251 46 305 46 365 C 46 420 53 471 69 517 C 84 563 106 603 134 636 C 162 668 195 694 234 712 C 273 730 316 740 364 740 C 426 740 477 729 515 708 C 553 686 585 659 610 626 L 561 580 C 541 606 515 629 484 647 C 453 665 414 675 366 675 C 290 675 229 646 185 590 C 140 534 118 457 118 361 C 118 309 125 264 139 226 C 153 187 171 155 194 129 C 217 103 244 84 274 72 C 304 59 335 53 367 53 C 417 53 459 63 493 84 C 527 105 555 131 577 163 L 623 125 C 597 85 562 52 518 27 C 474 2 423 -10 363 -10 Z M 364 794 L 364 794 Z M 510 794 L 451 794 L 364 918 L 276 794 L 219 794 L 333 964 L 396 964 L 510 794 Z" unicode="Ĉ" />
<glyph horiz-adv-x="418" d="M 28 0 L 28 0 Z M 358 120 L 408 89 C 401 78 393 67 383 55 C 373 43 362 33 348 23 C 334 13 318 6 299 0 C 280 -6 258 -9 234 -9 C 202 -9 173 -3 147 8 C 121 20 100 36 83 56 C 65 76 52 99 42 127 C 32 155 28 185 28 217 C 28 248 33 278 43 306 C 53 334 67 358 85 379 C 103 399 125 416 151 428 C 177 440 205 446 237 446 C 282 446 319 435 348 415 C 376 394 397 372 410 350 L 357 317 C 345 337 329 354 310 368 C 291 382 266 390 236 390 C 215 390 196 385 178 376 C 160 367 146 355 134 340 C 122 324 112 306 105 285 C 98 264 95 242 95 219 C 95 169 108 127 134 95 C 160 63 194 47 238 47 C 273 47 300 55 318 72 C 336 89 349 105 358 120 Z M 227 500 L 227 500 Z M 373 500 L 314 500 L 227 624 L 139 500 L 82 500 L 196 670 L 259 670 L 373 500 Z" unicode="ĉ" />
<glyph horiz-adv-x="632" d="M 46 0 L 46 0 Z M 363 -10 C 320 -10 279 -1 241 15 C 202 31 168 55 140 87 C 111 119 88 158 71 205 C 54 251 46 305 46 365 C 46 420 53 471 69 517 C 84 563 106 603 134 636 C 162 668 195 694 234 712 C 273 730 316 740 364 740 C 426 740 477 729 515 708 C 553 686 585 659 610 626 L 561 580 C 541 606 515 629 484 647 C 453 665 414 675 366 675 C 290 675 229 646 185 590 C 140 534 118 457 118 361 C 118 309 125 264 139 226 C 153 187 171 155 194 129 C 217 103 244 84 274 72 C 304 59 335 53 367 53 C 417 53 459 63 493 84 C 527 105 555 131 577 163 L 623 125 C 597 85 562 52 518 27 C 474 2 423 -10 363 -10 Z M 364 799 L 364 799 Z M 394 799 L 334 799 L 334 943 L 394 943 L 394 799 Z" unicode="Ċ" />
<glyph horiz-adv-x="418" d="M 28 0 L 28 0 Z M 358 120 L 408 89 C 401 78 393 67 383 55 C 373 43 362 33 348 23 C 334 13 318 6 299 0 C 280 -6 258 -9 234 -9 C 202 -9 173 -3 147 8 C 121 20 100 36 83 56 C 65 76 52 99 42 127 C 32 155 28 185 28 217 C 28 248 33 278 43 306 C 53 334 67 358 85 379 C 103 399 125 416 151 428 C 177 440 205 446 237 446 C 282 446 319 435 348 415 C 376 394 397 372 410 350 L 357 317 C 345 337 329 354 310 368 C 291 382 266 390 236 390 C 215 390 196 385 178 376 C 160 367 146 355 134 340 C 122 324 112 306 105 285 C 98 264 95 242 95 219 C 95 169 108 127 134 95 C 160 63 194 47 238 47 C 273 47 300 55 318 72 C 336 89 349 105 358 120 Z M 227 505 L 227 505 Z M 257 505 L 197 505 L 197 649 L 257 649 L 257 505 Z" unicode="ċ" />
<glyph horiz-adv-x="632" d="M 46 0 L 46 0 Z M 363 -10 C 320 -10 279 -1 241 15 C 202 31 168 55 140 87 C 111 119 88 158 71 205 C 54 251 46 305 46 365 C 46 420 53 471 69 517 C 84 563 106 603 134 636 C 162 668 195 694 234 712 C 273 730 316 740 364 740 C 426 740 477 729 515 708 C 553 686 585 659 610 626 L 561 580 C 541 606 515 629 484 647 C 453 665 414 675 366 675 C 290 675 229 646 185 590 C 140 534 118 457 118 361 C 118 309 125 264 139 226 C 153 187 171 155 194 129 C 217 103 244 84 274 72 C 304 59 335 53 367 53 C 417 53 459 63 493 84 C 527 105 555 131 577 163 L 623 125 C 597 85 562 52 518 27 C 474 2 423 -10 363 -10 Z M 364 794 L 364 794 Z M 219 964 L 278 964 L 365 839 L 453 964 L 510 964 L 396 794 L 333 794 L 219 964 Z" unicode="Č" />
<glyph horiz-adv-x="418" d="M 28 0 L 28 0 Z M 358 120 L 408 89 C 401 78 393 67 383 55 C 373 43 362 33 348 23 C 334 13 318 6 299 0 C 280 -6 258 -9 234 -9 C 202 -9 173 -3 147 8 C 121 20 100 36 83 56 C 65 76 52 99 42 127 C 32 155 28 185 28 217 C 28 248 33 278 43 306 C 53 334 67 358 85 379 C 103 399 125 416 151 428 C 177 440 205 446 237 446 C 282 446 319 435 348 415 C 376 394 397 372 410 350 L 357 317 C 345 337 329 354 310 368 C 291 382 266 390 236 390 C 215 390 196 385 178 376 C 160 367 146 355 134 340 C 122 324 112 306 105 285 C 98 264 95 242 95 219 C 95 169 108 127 134 95 C 160 63 194 47 238 47 C 273 47 300 55 318 72 C 336 89 349 105 358 120 Z M 227 500 L 227 500 Z M 82 670 L 141 670 L 228 545 L 316 670 L 373 670 L 259 500 L 196 500 L 82 670 Z" unicode="č" />
<glyph horiz-adv-x="671" d="M 90 0 L 90 0 Z M 90 0 L 90 730 L 271 730 C 325 730 375 721 419 705 C 463 688 500 664 530 634 C 560 603 584 566 600 522 C 616 478 624 430 624 376 C 624 323 616 273 601 227 C 585 181 562 141 532 108 C 502 74 464 48 418 29 C 372 9 320 0 260 0 L 90 0 Z M 160 61 L 256 61 C 306 61 350 68 388 84 C 425 100 456 121 480 149 C 504 177 522 210 534 248 C 546 286 552 328 552 373 C 552 464 526 536 476 588 C 425 640 356 667 269 667 L 160 667 L 160 61 Z M 307 794 L 307 794 Z M 162 964 L 221 964 L 308 839 L 396 964 L 453 964 L 339 794 L 276 794 L 162 964 Z" unicode="Ď" />
<glyph horiz-adv-x="492" d="M 28 0 L 28 0 Z M 217 -7 C 188 -7 162 -1 138 10 C 114 22 95 37 79 57 C 63 76 50 99 41 126 C 32 152 28 181 28 211 C 28 280 46 336 82 380 C 118 424 164 446 218 446 C 258 446 290 435 316 415 C 342 394 359 370 368 344 L 368 743 L 431 743 L 431 0 L 371 0 L 371 103 C 362 75 345 50 320 27 C 294 4 260 -7 217 -7 Z M 235 44 C 271 44 302 60 330 92 C 357 124 371 168 371 223 C 371 250 367 274 359 296 C 351 317 340 335 327 349 C 314 363 299 374 282 382 C 265 389 248 393 230 393 C 190 393 157 376 132 344 C 107 312 95 270 95 218 C 95 170 107 129 131 95 C 155 61 190 44 235 44 Z M 556 622 L 552 493 L 498 493 L 494 622 L 494 730 L 556 730 L 556 622 Z" unicode="ď" />
<glyph horiz-adv-x="671" d="M 31 0 L 31 0 Z M 624 366 C 624 315 616 267 601 223 C 585 178 562 139 532 107 C 502 74 464 48 418 29 C 372 9 320 0 260 0 L 90 0 L 90 332 L 31 332 L 31 388 L 90 388 L 90 730 L 271 730 C 326 730 376 721 420 704 C 464 687 501 663 531 632 C 561 600 584 562 600 517 C 616 472 624 422 624 366 Z M 160 59 L 252 59 C 305 59 351 67 389 83 C 427 99 459 121 483 149 C 507 177 524 209 535 246 C 546 283 552 322 552 364 C 552 461 526 536 476 590 C 426 643 357 670 271 670 L 160 670 L 160 388 L 357 388 L 357 332 L 160 332 L 160 59 Z" unicode="Đ" />
<glyph horiz-adv-x="492" d="M 371 103 C 362 75 345 50 320 27 C 294 4 260 -7 217 -7 C 188 -7 162 -1 138 10 C 114 22 95 37 79 57 C 63 76 50 99 41 126 C 32 152 28 181 28 211 C 28 280 46 336 82 380 C 118 424 164 446 218 446 C 258 446 290 435 316 415 C 342 394 359 370 368 344 L 368 563 L 247 563 L 247 618 L 368 618 L 368 743 L 431 743 L 431 618 L 485 618 L 485 563 L 431 563 L 431 0 L 371 0 L 371 103 Z M 235 44 C 271 44 302 60 330 92 C 357 124 371 168 371 223 C 371 250 367 274 359 296 C 351 317 340 335 327 349 C 314 363 299 374 282 382 C 265 389 248 393 230 393 C 190 393 157 376 132 344 C 107 312 95 270 95 218 C 95 170 107 129 131 95 C 155 61 190 44 235 44 Z" unicode="đ" />
<glyph horiz-adv-x="509" d="M 90 0 L 90 0 Z M 467 0 L 90 0 L 90 730 L 449 730 L 449 667 L 159 667 L 159 393 L 438 393 L 438 330 L 159 330 L 159 63 L 467 63 L 467 0 Z M 271 824 L 271 824 Z M 392 824 L 150 824 L 150 872 L 392 872 L 392 824 Z" unicode="Ē" />
<glyph horiz-adv-x="454" d="M 28 0 L 28 0 Z M 242 -9 C 180 -9 128 10 88 50 C 48 90 28 145 28 216 C 28 249 33 280 43 308 C 53 336 68 360 86 380 C 104 400 125 416 151 428 C 176 440 204 446 234 446 C 294 446 342 424 379 382 C 415 340 434 280 434 203 L 90 203 C 90 151 105 111 133 84 C 161 56 198 43 243 43 C 283 43 313 49 333 63 C 353 76 369 90 382 106 L 419 70 C 403 50 382 31 356 15 C 330 0 292 -9 242 -9 Z M 92 251 L 373 251 C 372 290 359 324 334 352 C 309 380 276 394 234 394 C 192 394 158 380 133 352 C 108 324 94 291 92 251 Z M 232 530 L 232 530 Z M 353 530 L 111 530 L 111 578 L 353 578 L 353 530 Z" unicode="ē" />
<glyph horiz-adv-x="509" d="M 90 0 L 90 0 Z M 467 0 L 90 0 L 90 730 L 449 730 L 449 667 L 159 667 L 159 393 L 438 393 L 438 330 L 159 330 L 159 63 L 467 63 L 467 0 Z M 271 801 L 271 801 Z M 355 956 L 410 956 C 406 902 391 862 366 838 C 340 813 309 801 271 801 C 233 801 201 813 176 838 C 150 862 136 902 132 956 L 187 956 C 189 922 197 895 210 873 C 222 851 243 841 271 841 C 299 841 319 851 332 872 C 345 893 353 921 355 956 Z" unicode="Ĕ" />
<glyph horiz-adv-x="454" d="M 28 0 L 28 0 Z M 242 -9 C 180 -9 128 10 88 50 C 48 90 28 145 28 216 C 28 249 33 280 43 308 C 53 336 68 360 86 380 C 104 400 125 416 151 428 C 176 440 204 446 234 446 C 294 446 342 424 379 382 C 415 340 434 280 434 203 L 90 203 C 90 151 105 111 133 84 C 161 56 198 43 243 43 C 283 43 313 49 333 63 C 353 76 369 90 382 106 L 419 70 C 403 50 382 31 356 15 C 330 0 292 -9 242 -9 Z M 92 251 L 373 251 C 372 290 359 324 334 352 C 309 380 276 394 234 394 C 192 394 158 380 133 352 C 108 324 94 291 92 251 Z M 232 507 L 232 507 Z M 316 662 L 371 662 C 367 608 352 568 327 544 C 301 519 270 507 232 507 C 194 507 162 519 137 544 C 111 568 97 608 93 662 L 148 662 C 150 628 158 601 171 579 C 183 557 204 547 232 547 C 260 547 280 557 293 578 C 306 599 314 627 316 662 Z" unicode="ĕ" />
<glyph horiz-adv-x="509" d="M 90 0 L 90 0 Z M 467 0 L 90 0 L 90 730 L 449 730 L 449 667 L 159 667 L 159 393 L 438 393 L 438 330 L 159 330 L 159 63 L 467 63 L 467 0 Z M 271 799 L 271 799 Z M 301 799 L 241 799 L 241 943 L 301 943 L 301 799 Z" unicode="Ė" />
<glyph horiz-adv-x="454" d="M 28 0 L 28 0 Z M 242 -9 C 180 -9 128 10 88 50 C 48 90 28 145 28 216 C 28 249 33 280 43 308 C 53 336 68 360 86 380 C 104 400 125 416 151 428 C 176 440 204 446 234 446 C 294 446 342 424 379 382 C 415 340 434 280 434 203 L 90 203 C 90 151 105 111 133 84 C 161 56 198 43 243 43 C 283 43 313 49 333 63 C 353 76 369 90 382 106 L 419 70 C 403 50 382 31 356 15 C 330 0 292 -9 242 -9 Z M 92 251 L 373 251 C 372 290 359 324 334 352 C 309 380 276 394 234 394 C 192 394 158 380 133 352 C 108 324 94 291 92 251 Z M 232 505 L 232 505 Z M 262 505 L 202 505 L 202 649 L 262 649 L 262 505 Z" unicode="ė" />
<glyph horiz-adv-x="509" d="M 90 0 L 90 0 Z M 467 0 L 90 0 L 90 730 L 449 730 L 449 667 L 159 667 L 159 393 L 438 393 L 438 330 L 159 330 L 159 63 L 467 63 L 467 0 Z M 424 -10 L 424 -10 Z M 529 -110 L 549 -137 C 530 -156 508 -171 484 -181 C 459 -191 432 -197 403 -197 C 371 -197 345 -189 327 -175 C 308 -161 299 -142 299 -120 C 299 -96 310 -73 333 -52 C 355 -30 389 -12 433 4 L 467 3 C 433 -11 405 -27 385 -43 C 365 -59 355 -77 355 -95 C 355 -111 361 -124 374 -134 C 387 -143 403 -148 423 -148 C 445 -148 465 -144 484 -137 C 502 -130 517 -121 529 -110 Z" unicode="Ę" />
<glyph horiz-adv-x="454" d="M 28 0 L 28 0 Z M 242 -9 C 180 -9 128 10 88 50 C 48 90 28 145 28 216 C 28 249 33 280 43 308 C 53 336 68 360 86 380 C 104 400 125 416 151 428 C 176 440 204 446 234 446 C 294 446 342 424 379 382 C 415 340 434 280 434 203 L 90 203 C 90 151 105 111 133 84 C 161 56 198 43 243 43 C 283 43 313 49 333 63 C 353 76 369 90 382 106 L 419 70 C 403 50 382 31 356 15 C 330 0 292 -9 242 -9 Z M 92 251 L 373 251 C 372 290 359 324 334 352 C 309 380 276 394 234 394 C 192 394 158 380 133 352 C 108 324 94 291 92 251 Z M 282 -10 L 282 -10 Z M 387 -110 L 407 -137 C 388 -156 366 -171 342 -181 C 317 -191 290 -197 261 -197 C 229 -197 203 -189 185 -175 C 166 -161 157 -142 157 -120 C 157 -96 168 -73 191 -52 C 213 -30 247 -12 291 4 L 325 3 C 291 -11 263 -27 243 -43 C 223 -59 213 -77 213 -95 C 213 -111 219 -124 232 -134 C 245 -143 261 -148 281 -148 C 303 -148 323 -144 342 -137 C 360 -130 375 -121 387 -110 Z" unicode="ę" />
<glyph horiz-adv-x="509" d="M 90 0 L 90 0 Z M 467 0 L 90 0 L 90 730 L 449 730 L 449 667 L 159 667 L 159 393 L 438 393 L 438 330 L 159 330 L 159 63 L 467 63 L 467 0 Z M 271 794 L 271 794 Z M 126 964 L 185 964 L 272 839 L 360 964 L 417 964 L 303 794 L 240 794 L 126 964 Z" unicode="Ě" />
<glyph horiz-adv-x="454" d="M 28 0 L 28 0 Z M 242 -9 C 180 -9 128 10 88 50 C 48 90 28 145 28 216 C 28 249 33 280 43 308 C 53 336 68 360 86 380 C 104 400 125 416 151 428 C 176 440 204 446 234 446 C 294 446 342 424 379 382 C 415 340 434 280 434 203 L 90 203 C 90 151 105 111 133 84 C 161 56 198 43 243 43 C 283 43 313 49 333 63 C 353 76 369 90 382 106 L 419 70 C 403 50 382 31 356 15 C 330 0 292 -9 242 -9 Z M 92 251 L 373 251 C 372 290 359 324 334 352 C 309 380 276 394 234 394 C 192 394 158 380 133 352 C 108 324 94 291 92 251 Z M 232 500 L 232 500 Z M 87 670 L 146 670 L 233 545 L 321 670 L 378 670 L 264 500 L 201 500 L 87 670 Z" unicode="ě" />
<glyph horiz-adv-x="693" d="M 46 0 L 46 0 Z M 380 354 L 647 354 L 647 140 C 622 93 586 56 538 30 C 490 3 434 -10 370 -10 C 324 -10 282 0 243 17 C 203 35 169 61 140 94 C 111 126 88 166 71 212 C 54 258 46 309 46 365 C 46 422 54 474 71 520 C 88 566 111 606 141 638 C 170 670 204 695 244 713 C 284 731 326 740 372 740 C 436 740 487 728 525 706 C 562 683 591 658 611 630 L 561 590 C 542 612 517 632 487 649 C 457 666 418 675 370 675 C 334 675 300 667 269 653 C 238 639 211 618 189 592 C 167 565 149 532 136 494 C 123 455 117 412 117 364 C 117 318 123 276 136 238 C 149 199 167 166 190 138 C 213 110 240 89 272 73 C 303 57 337 50 373 50 C 421 50 463 59 501 79 C 538 99 566 125 585 159 L 585 291 L 380 291 L 380 354 Z M 371 794 L 371 794 Z M 517 794 L 458 794 L 371 918 L 283 794 L 226 794 L 340 964 L 403 964 L 517 794 Z" unicode="Ĝ" />
<glyph horiz-adv-x="492" d="M 28 0 L 28 0 Z M 218 -5 C 160 -5 113 16 79 58 C 45 100 28 153 28 218 C 28 285 46 340 82 382 C 118 424 163 446 218 446 C 256 446 288 435 315 414 C 342 393 360 370 370 344 L 370 436 L 430 436 L 430 21 C 430 -16 424 -48 413 -75 C 402 -102 387 -124 369 -142 C 350 -160 328 -173 304 -182 C 279 -190 253 -195 227 -195 C 189 -195 160 -191 138 -184 C 116 -177 99 -170 87 -163 L 109 -114 C 118 -120 132 -127 150 -133 C 168 -139 193 -143 223 -143 C 261 -143 295 -130 324 -105 C 353 -79 368 -41 368 9 L 368 101 C 359 73 341 49 315 27 C 289 5 256 -5 218 -5 Z M 234 43 C 270 43 302 59 330 91 C 357 123 371 167 371 222 C 371 276 356 318 328 349 C 299 379 266 395 228 395 C 190 395 159 378 133 346 C 107 314 95 272 95 220 C 95 170 107 128 131 94 C 155 60 190 43 234 43 Z M 226 500 L 226 500 Z M 372 500 L 313 500 L 226 624 L 138 500 L 81 500 L 195 670 L 258 670 L 372 500 Z" unicode="ĝ" />
<glyph horiz-adv-x="693" d="M 46 0 L 46 0 Z M 380 354 L 647 354 L 647 140 C 622 93 586 56 538 30 C 490 3 434 -10 370 -10 C 324 -10 282 0 243 17 C 203 35 169 61 140 94 C 111 126 88 166 71 212 C 54 258 46 309 46 365 C 46 422 54 474 71 520 C 88 566 111 606 141 638 C 170 670 204 695 244 713 C 284 731 326 740 372 740 C 436 740 487 728 525 706 C 562 683 591 658 611 630 L 561 590 C 542 612 517 632 487 649 C 457 666 418 675 370 675 C 334 675 300 667 269 653 C 238 639 211 618 189 592 C 167 565 149 532 136 494 C 123 455 117 412 117 364 C 117 318 123 276 136 238 C 149 199 167 166 190 138 C 213 110 240 89 272 73 C 303 57 337 50 373 50 C 421 50 463 59 501 79 C 538 99 566 125 585 159 L 585 291 L 380 291 L 380 354 Z M 371 801 L 371 801 Z M 455 956 L 510 956 C 506 902 491 862 466 838 C 440 813 409 801 371 801 C 333 801 301 813 276 838 C 250 862 236 902 232 956 L 287 956 C 289 922 297 895 310 873 C 322 851 343 841 371 841 C 399 841 419 851 432 872 C 445 893 453 921 455 956 Z" unicode="Ğ" />
<glyph horiz-adv-x="492" d="M 28 0 L 28 0 Z M 218 -5 C 160 -5 113 16 79 58 C 45 100 28 153 28 218 C 28 285 46 340 82 382 C 118 424 163 446 218 446 C 256 446 288 435 315 414 C 342 393 360 370 370 344 L 370 436 L 430 436 L 430 21 C 430 -16 424 -48 413 -75 C 402 -102 387 -124 369 -142 C 350 -160 328 -173 304 -182 C 279 -190 253 -195 227 -195 C 189 -195 160 -191 138 -184 C 116 -177 99 -170 87 -163 L 109 -114 C 118 -120 132 -127 150 -133 C 168 -139 193 -143 223 -143 C 261 -143 295 -130 324 -105 C 353 -79 368 -41 368 9 L 368 101 C 359 73 341 49 315 27 C 289 5 256 -5 218 -5 Z M 234 43 C 270 43 302 59 330 91 C 357 123 371 167 371 222 C 371 276 356 318 328 349 C 299 379 266 395 228 395 C 190 395 159 378 133 346 C 107 314 95 272 95 220 C 95 170 107 128 131 94 C 155 60 190 43 234 43 Z M 226 507 L 226 507 Z M 310 662 L 365 662 C 361 608 346 568 321 544 C 295 519 264 507 226 507 C 188 507 156 519 131 544 C 105 568 91 608 87 662 L 142 662 C 144 628 152 601 165 579 C 177 557 198 547 226 547 C 254 547 274 557 287 578 C 300 599 308 627 310 662 Z" unicode="ğ" />
<glyph horiz-adv-x="693" d="M 46 0 L 46 0 Z M 380 354 L 647 354 L 647 140 C 622 93 586 56 538 30 C 490 3 434 -10 370 -10 C 324 -10 282 0 243 17 C 203 35 169 61 140 94 C 111 126 88 166 71 212 C 54 258 46 309 46 365 C 46 422 54 474 71 520 C 88 566 111 606 141 638 C 170 670 204 695 244 713 C 284 731 326 740 372 740 C 436 740 487 728 525 706 C 562 683 591 658 611 630 L 561 590 C 542 612 517 632 487 649 C 457 666 418 675 370 675 C 334 675 300 667 269 653 C 238 639 211 618 189 592 C 167 565 149 532 136 494 C 123 455 117 412 117 364 C 117 318 123 276 136 238 C 149 199 167 166 190 138 C 213 110 240 89 272 73 C 303 57 337 50 373 50 C 421 50 463 59 501 79 C 538 99 566 125 585 159 L 585 291 L 380 291 L 380 354 Z M 371 799 L 371 799 Z M 401 799 L 341 799 L 341 943 L 401 943 L 401 799 Z" unicode="Ġ" />
<glyph horiz-adv-x="492" d="M 28 0 L 28 0 Z M 218 -5 C 160 -5 113 16 79 58 C 45 100 28 153 28 218 C 28 285 46 340 82 382 C 118 424 163 446 218 446 C 256 446 288 435 315 414 C 342 393 360 370 370 344 L 370 436 L 430 436 L 430 21 C 430 -16 424 -48 413 -75 C 402 -102 387 -124 369 -142 C 350 -160 328 -173 304 -182 C 279 -190 253 -195 227 -195 C 189 -195 160 -191 138 -184 C 116 -177 99 -170 87 -163 L 109 -114 C 118 -120 132 -127 150 -133 C 168 -139 193 -143 223 -143 C 261 -143 295 -130 324 -105 C 353 -79 368 -41 368 9 L 368 101 C 359 73 341 49 315 27 C 289 5 256 -5 218 -5 Z M 234 43 C 270 43 302 59 330 91 C 357 123 371 167 371 222 C 371 276 356 318 328 349 C 299 379 266 395 228 395 C 190 395 159 378 133 346 C 107 314 95 272 95 220 C 95 170 107 128 131 94 C 155 60 190 43 234 43 Z M 226 505 L 226 505 Z M 256 505 L 196 505 L 196 649 L 256 649 L 256 505 Z" unicode="ġ" />
<glyph horiz-adv-x="693" d="M 46 0 L 46 0 Z M 380 354 L 647 354 L 647 140 C 622 93 586 56 538 30 C 490 3 434 -10 370 -10 C 324 -10 282 0 243 17 C 203 35 169 61 140 94 C 111 126 88 166 71 212 C 54 258 46 309 46 365 C 46 422 54 474 71 520 C 88 566 111 606 141 638 C 170 670 204 695 244 713 C 284 731 326 740 372 740 C 436 740 487 728 525 706 C 562 683 591 658 611 630 L 561 590 C 542 612 517 632 487 649 C 457 666 418 675 370 675 C 334 675 300 667 269 653 C 238 639 211 618 189 592 C 167 565 149 532 136 494 C 123 455 117 412 117 364 C 117 318 123 276 136 238 C 149 199 167 166 190 138 C 213 110 240 89 272 73 C 303 57 337 50 373 50 C 421 50 463 59 501 79 C 538 99 566 125 585 159 L 585 291 L 380 291 L 380 354 Z" unicode="Ģ" />
<glyph horiz-adv-x="492" d="M 28 0 L 28 0 Z M 218 -5 C 160 -5 113 16 79 58 C 45 100 28 153 28 218 C 28 285 46 340 82 382 C 118 424 163 446 218 446 C 256 446 288 435 315 414 C 342 393 360 370 370 344 L 370 436 L 430 436 L 430 21 C 430 -16 424 -48 413 -75 C 402 -102 387 -124 369 -142 C 350 -160 328 -173 304 -182 C 279 -190 253 -195 227 -195 C 189 -195 160 -191 138 -184 C 116 -177 99 -170 87 -163 L 109 -114 C 118 -120 132 -127 150 -133 C 168 -139 193 -143 223 -143 C 261 -143 295 -130 324 -105 C 353 -79 368 -41 368 9 L 368 101 C 359 73 341 49 315 27 C 289 5 256 -5 218 -5 Z M 234 43 C 270 43 302 59 330 91 C 357 123 371 167 371 222 C 371 276 356 318 328 349 C 299 379 266 395 228 395 C 190 395 159 378 133 346 C 107 314 95 272 95 220 C 95 170 107 128 131 94 C 155 60 190 43 234 43 Z" unicode="ģ" />
<glyph horiz-adv-x="684" d="M 90 0 L 90 0 Z M 594 0 L 524 0 L 524 328 L 160 328 L 160 0 L 90 0 L 90 730 L 160 730 L 160 394 L 524 394 L 524 730 L 594 730 L 594 0 Z M 342 794 L 342 794 Z M 488 794 L 429 794 L 342 918 L 254 794 L 197 794 L 311 964 L 374 964 L 488 794 Z" unicode="Ĥ" />
<glyph horiz-adv-x="474" d="M 61 0 L 61 0 Z M 416 0 L 351 0 L 351 289 C 351 323 341 349 323 367 C 304 385 279 394 247 394 C 215 394 187 383 163 363 C 138 342 126 309 126 263 L 126 0 L 61 0 L 61 743 L 122 743 L 122 347 C 130 375 146 398 172 418 C 197 437 230 447 270 447 C 314 447 349 434 376 410 C 402 385 416 350 416 304 L 416 0 Z M 239 807 L 239 807 Z M 385 807 L 326 807 L 239 931 L 151 807 L 94 807 L 208 977 L 271 977 L 385 807 Z" unicode="ĥ" />
<glyph horiz-adv-x="684" d="M 160 328 L 160 0 L 90 0 L 90 558 L 14 558 L 14 613 L 90 613 L 90 730 L 160 730 L 160 613 L 524 613 L 524 730 L 594 730 L 594 613 L 669 613 L 669 558 L 594 558 L 594 0 L 524 0 L 524 328 L 160 328 Z M 160 394 L 524 394 L 524 558 L 160 558 L 160 394 Z" unicode="Ħ" />
<glyph horiz-adv-x="474" d="M 126 263 L 126 0 L 61 0 L 61 563 L 7 563 L 7 618 L 61 618 L 61 743 L 122 743 L 122 618 L 249 618 L 249 563 L 122 563 L 122 347 C 130 375 146 398 172 418 C 197 437 230 447 270 447 C 314 447 349 434 376 410 C 402 385 416 350 416 304 L 416 0 L 351 0 L 351 289 C 351 323 341 349 323 367 C 304 385 279 394 247 394 C 215 394 187 383 163 363 C 138 342 126 309 126 263 Z" unicode="ħ" />
<glyph horiz-adv-x="259" d="M 0 0 L 0 0 Z M 165 0 L 95 0 L 95 730 L 165 730 L 165 0 Z M 130 802 L 130 802 Z M 232 930 L 280 930 C 280 886 274 854 262 833 C 250 812 234 802 215 802 C 196 802 180 806 167 815 C 153 823 142 832 132 841 C 121 849 110 857 100 865 C 90 873 79 877 69 877 C 59 877 50 870 42 858 C 34 846 30 828 30 806 L -19 806 C -19 849 -11 881 4 902 C 20 923 37 934 56 934 C 72 934 87 929 99 921 C 111 912 123 903 135 893 C 145 884 155 876 165 868 C 175 860 185 857 196 857 C 205 857 213 863 221 876 C 228 889 232 907 232 930 Z" unicode="Ĩ" />
<glyph horiz-adv-x="197" d="M 0 0 L 0 0 Z M 131 0 L 66 0 L 66 436 L 131 436 L 131 0 Z M 98 508 L 98 508 Z M 200 636 L 248 636 C 248 592 242 560 230 539 C 218 518 202 508 183 508 C 164 508 148 512 135 521 C 121 529 110 538 100 547 C 89 555 78 563 68 571 C 58 579 47 583 37 583 C 27 583 18 576 10 564 C 2 552 -1 534 -2 512 L -51 512 C -51 555 -43 587 -27 608 C -11 629 5 640 24 640 C 40 640 55 635 67 627 C 79 618 91 609 103 599 C 113 590 123 582 133 574 C 143 566 153 563 164 563 C 173 563 181 569 189 582 C 196 595 200 613 200 636 Z" unicode="ĩ" />
<glyph horiz-adv-x="259" d="M 9 0 L 9 0 Z M 165 0 L 95 0 L 95 730 L 165 730 L 165 0 Z M 130 824 L 130 824 Z M 251 824 L 9 824 L 9 872 L 251 872 L 251 824 Z" unicode="Ī" />
<glyph horiz-adv-x="197" d="M 0 0 L 0 0 Z M 131 0 L 66 0 L 66 436 L 131 436 L 131 0 Z M 98 530 L 98 530 Z M 219 530 L -23 530 L -23 578 L 219 578 L 219 530 Z" unicode="ī" />
<glyph horiz-adv-x="259" d="M 0 0 L 0 0 Z M 165 0 L 95 0 L 95 730 L 165 730 L 165 0 Z M 130 801 L 130 801 Z M 214 956 L 269 956 C 265 902 250 862 225 838 C 199 813 168 801 130 801 C 92 801 60 813 35 838 C 9 862 -5 902 -9 956 L 46 956 C 48 922 56 895 69 873 C 81 851 102 841 130 841 C 158 841 178 851 191 872 C 204 893 212 921 214 956 Z" unicode="Ĭ" />
<glyph horiz-adv-x="197" d="M 0 0 L 0 0 Z M 131 0 L 66 0 L 66 436 L 131 436 L 131 0 Z M 98 507 L 98 507 Z M 182 662 L 237 662 C 233 608 218 568 193 544 C 167 519 136 507 98 507 C 60 507 28 519 3 544 C -22 568 -37 608 -41 662 L 14 662 C 16 628 24 601 37 579 C 49 557 70 547 98 547 C 126 547 146 557 159 578 C 172 599 180 627 182 662 Z" unicode="ĭ" />
<glyph horiz-adv-x="259" d="M 0 0 L 0 0 Z M 165 0 L 95 0 L 95 730 L 165 730 L 165 0 Z M 88 -11 L 88 -11 Z M 193 -111 L 213 -138 C 194 -157 172 -172 148 -182 C 123 -192 96 -198 67 -198 C 35 -198 9 -190 -9 -176 C -27 -162 -37 -143 -37 -121 C -37 -97 -25 -74 -3 -53 C 19 -31 53 -13 97 3 L 131 2 C 97 -12 69 -28 49 -44 C 29 -60 19 -78 19 -96 C 19 -112 25 -125 38 -135 C 51 -144 67 -149 87 -149 C 109 -149 129 -145 148 -138 C 166 -131 181 -122 193 -111 Z" unicode="Į" />
<glyph horiz-adv-x="197" d="M 0 0 L 0 0 Z M 64 547 L 64 619 L 133 619 L 133 547 L 64 547 Z M 66 0 L 66 436 L 131 436 L 131 0 L 66 0 Z M 64 -10 L 64 -10 Z M 169 -110 L 189 -137 C 170 -156 148 -171 124 -181 C 99 -191 72 -197 43 -197 C 11 -197 -14 -189 -33 -175 C -51 -161 -61 -142 -61 -120 C -61 -96 -49 -73 -27 -52 C -4 -30 29 -12 73 4 L 107 3 C 73 -11 45 -27 25 -43 C 5 -59 -5 -77 -5 -95 C -5 -111 1 -124 14 -134 C 27 -143 43 -148 63 -148 C 85 -148 105 -144 124 -137 C 142 -130 157 -121 169 -110 Z" unicode="į" />
<glyph horiz-adv-x="259" d="M 95 0 L 95 0 Z M 165 0 L 95 0 L 95 730 L 165 730 L 165 0 Z M 130 799 L 130 799 Z M 160 799 L 100 799 L 100 943 L 160 943 L 160 799 Z" unicode="İ" />
<glyph horiz-adv-x="197" d="M 131 0 L 66 0 L 66 436 L 131 436 L 131 0 Z" unicode="ı" />
<glyph horiz-adv-x="560" d="M 95 0 L 95 0 Z M 165 0 L 95 0 L 95 730 L 165 730 L 165 0 Z M 486 730 L 486 187 C 486 160 482 135 474 111 C 466 87 455 66 440 48 C 424 30 405 15 382 5 C 359 -5 333 -11 303 -11 C 288 -11 274 -10 260 -8 C 246 -6 234 -4 226 -2 L 228 63 C 234 60 243 58 257 56 C 271 54 283 53 295 53 C 335 53 365 66 387 92 C 409 118 420 149 420 185 L 420 730 L 486 730 Z" unicode="Ĳ" />
<glyph horiz-adv-x="373" d="M 64 0 L 64 0 Z M 64 547 L 64 619 L 133 619 L 133 547 L 64 547 Z M 66 0 L 66 436 L 131 436 L 131 0 L 66 0 Z M 318 547 L 249 547 L 249 619 L 318 619 L 318 547 Z M 315 436 L 315 -88 C 315 -121 305 -148 286 -170 C 266 -191 241 -202 211 -202 C 203 -202 195 -201 185 -199 C 175 -197 169 -196 165 -195 L 171 -142 C 173 -142 177 -143 182 -144 C 186 -144 191 -145 196 -145 C 210 -145 222 -139 234 -129 C 245 -118 251 -102 251 -80 L 251 436 L 315 436 Z" unicode="ĳ" />
<glyph horiz-adv-x="346" d="M 17 0 L 17 0 Z M 277 730 L 277 187 C 277 160 273 135 265 111 C 257 87 246 66 231 48 C 215 30 196 15 173 5 C 150 -5 124 -11 94 -11 C 79 -11 65 -10 51 -8 C 37 -6 25 -4 17 -2 L 19 63 C 25 60 34 58 48 56 C 62 54 74 53 86 53 C 126 53 156 66 178 92 C 200 118 211 149 211 185 L 211 730 L 277 730 Z M 245 794 L 245 794 Z M 391 794 L 332 794 L 245 918 L 157 794 L 100 794 L 214 964 L 277 964 L 391 794 Z" unicode="Ĵ" />
<glyph horiz-adv-x="192" d="M 0 0 L 0 0 Z M 129 436 L 129 -88 C 129 -121 119 -148 100 -170 C 80 -191 55 -202 25 -202 C 17 -202 9 -201 0 -199 C -10 -197 -17 -196 -21 -195 L -15 -142 C -12 -142 -8 -143 -4 -144 C 0 -144 5 -145 10 -145 C 24 -145 36 -139 48 -129 C 59 -118 65 -102 65 -80 L 65 436 L 129 436 Z M 96 500 L 96 500 Z M 242 500 L 183 500 L 96 624 L 8 500 L -49 500 L 65 670 L 128 670 L 242 500 Z" unicode="ĵ" />
<glyph horiz-adv-x="609" d="M 90 0 L 90 0 Z M 602 0 L 515 0 L 249 350 L 160 244 L 160 0 L 90 0 L 90 730 L 160 730 L 160 330 L 481 730 L 564 730 L 295 400 L 602 0 Z M 308 -70 L 308 -70 Z M 387 -70 C 381 -112 368 -155 348 -198 C 328 -241 304 -277 277 -307 L 228 -284 C 242 -265 259 -236 279 -196 C 298 -156 311 -114 318 -70 L 387 -70 Z" unicode="Ķ" />
<glyph horiz-adv-x="428" d="M 61 0 L 61 0 Z M 437 0 L 362 0 L 209 210 L 125 111 L 125 0 L 61 0 L 61 743 L 122 743 L 122 183 L 332 436 L 404 436 L 251 255 L 437 0 Z M 215 -70 L 215 -70 Z M 294 -70 C 288 -112 275 -155 255 -198 C 235 -241 211 -277 184 -307 L 135 -284 C 149 -265 166 -236 186 -196 C 205 -156 218 -114 225 -70 L 294 -70 Z" unicode="ķ" />
<glyph horiz-adv-x="428" d="M 437 0 L 362 0 L 209 210 L 125 111 L 125 0 L 61 0 L 61 436 L 122 436 L 122 183 L 332 436 L 404 436 L 251 255 L 437 0 Z" unicode="ĸ" />
<glyph horiz-adv-x="446" d="M 90 0 L 90 0 Z M 438 0 L 90 0 L 90 730 L 160 730 L 160 63 L 438 63 L 438 0 Z M 257 793 L 257 793 Z M 170 793 L 268 960 L 344 960 L 235 793 L 170 793 Z" unicode="Ĺ" />
<glyph horiz-adv-x="193" d="M 64 0 L 64 0 Z M 152 816 L 152 816 Z M 65 816 L 163 983 L 239 983 L 130 816 L 65 816 Z M 128 753 L 128 0 L 64 0 L 64 753 L 128 753 Z" unicode="ĺ" />
<glyph horiz-adv-x="446" d="M 90 0 L 90 0 Z M 438 0 L 90 0 L 90 730 L 160 730 L 160 63 L 438 63 L 438 0 Z M 240 -70 L 240 -70 Z M 319 -70 C 313 -112 300 -155 280 -198 C 260 -241 236 -277 209 -307 L 160 -284 C 174 -265 191 -236 211 -196 C 230 -156 243 -114 250 -70 L 319 -70 Z" unicode="Ļ" />
<glyph horiz-adv-x="193" d="M 0 0 L 0 0 Z M 128 753 L 128 0 L 64 0 L 64 753 L 128 753 Z M 65 -70 L 65 -70 Z M 144 -70 C 138 -112 125 -155 105 -198 C 85 -241 61 -277 34 -307 L -15 -284 C 0 -265 16 -236 36 -196 C 55 -156 68 -114 75 -70 L 144 -70 Z" unicode="ļ" />
<glyph horiz-adv-x="446" d="M 90 0 L 90 0 Z M 438 0 L 90 0 L 90 730 L 160 730 L 160 63 L 438 63 L 438 0 Z M 432 622 L 428 493 L 374 493 L 370 622 L 370 730 L 432 730 L 432 622 Z" unicode="Ľ" />
<glyph horiz-adv-x="193" d="M 64 0 L 64 0 Z M 128 753 L 128 0 L 64 0 L 64 753 L 128 753 Z M 261 622 L 257 493 L 203 493 L 199 622 L 199 730 L 261 730 L 261 622 Z" unicode="ľ" />
<glyph horiz-adv-x="446" d="M 90 0 L 90 0 Z M 438 0 L 90 0 L 90 730 L 160 730 L 160 63 L 438 63 L 438 0 Z M 328 290 L 328 290 Z M 358 290 L 298 290 L 298 434 L 358 434 L 358 290 Z" unicode="Ŀ" />
<glyph horiz-adv-x="193" d="M 64 0 L 64 0 Z M 128 753 L 128 0 L 64 0 L 64 753 L 128 753 Z M 233 200 L 233 200 Z M 263 200 L 203 200 L 203 344 L 263 344 L 263 200 Z" unicode="ŀ" />
<glyph horiz-adv-x="446" d="M 438 61 L 438 0 L 90 0 L 90 278 L 29 253 L 5 303 L 90 338 L 90 730 L 160 730 L 160 366 L 333 437 L 355 388 L 160 307 L 160 61 L 438 61 Z" unicode="Ł" />
<glyph horiz-adv-x="193" d="M 205 343 L 134 310 L 134 0 L 70 0 L 70 281 L 17 256 L -2 303 L 70 336 L 70 743 L 134 743 L 134 366 L 185 389 L 205 343 Z" unicode="ł" />
<glyph horiz-adv-x="702" d="M 90 0 L 90 0 Z M 612 0 L 562 0 L 157 591 L 157 0 L 90 0 L 90 730 L 142 730 L 546 140 L 546 730 L 612 730 L 612 0 Z M 353 793 L 353 793 Z M 266 793 L 364 960 L 440 960 L 331 793 L 266 793 Z" unicode="Ń" />
<glyph horiz-adv-x="473" d="M 61 0 L 61 0 Z M 416 0 L 351 0 L 351 293 C 351 324 341 349 323 367 C 305 385 279 394 247 394 C 215 394 187 383 163 362 C 138 341 126 307 126 261 L 126 0 L 61 0 L 61 436 L 123 436 L 123 351 C 131 378 148 401 174 419 C 200 437 232 447 270 447 C 314 447 349 434 376 410 C 402 386 416 352 416 308 L 416 0 Z M 237 499 L 237 499 Z M 150 499 L 248 666 L 324 666 L 215 499 L 150 499 Z" unicode="ń" />
<glyph horiz-adv-x="702" d="M 90 0 L 90 0 Z M 612 0 L 562 0 L 157 591 L 157 0 L 90 0 L 90 730 L 142 730 L 546 140 L 546 730 L 612 730 L 612 0 Z M 328 -70 L 328 -70 Z M 407 -70 C 401 -112 388 -155 368 -198 C 348 -241 324 -277 297 -307 L 248 -284 C 262 -265 279 -236 299 -196 C 318 -156 331 -114 338 -70 L 407 -70 Z" unicode="Ņ" />
<glyph horiz-adv-x="473" d="M 61 0 L 61 0 Z M 416 0 L 351 0 L 351 293 C 351 324 341 349 323 367 C 305 385 279 394 247 394 C 215 394 187 383 163 362 C 138 341 126 307 126 261 L 126 0 L 61 0 L 61 436 L 123 436 L 123 351 C 131 378 148 401 174 419 C 200 437 232 447 270 447 C 314 447 349 434 376 410 C 402 386 416 352 416 308 L 416 0 Z M 208 -70 L 208 -70 Z M 287 -70 C 281 -112 268 -155 248 -198 C 228 -241 204 -277 177 -307 L 128 -284 C 142 -265 159 -236 179 -196 C 198 -156 211 -114 218 -70 L 287 -70 Z" unicode="ņ" />
<glyph horiz-adv-x="702" d="M 90 0 L 90 0 Z M 612 0 L 562 0 L 157 591 L 157 0 L 90 0 L 90 730 L 142 730 L 546 140 L 546 730 L 612 730 L 612 0 Z M 353 794 L 353 794 Z M 208 964 L 267 964 L 354 839 L 442 964 L 499 964 L 385 794 L 322 794 L 208 964 Z" unicode="Ň" />
<glyph horiz-adv-x="473" d="M 61 0 L 61 0 Z M 416 0 L 351 0 L 351 293 C 351 324 341 349 323 367 C 305 385 279 394 247 394 C 215 394 187 383 163 362 C 138 341 126 307 126 261 L 126 0 L 61 0 L 61 436 L 123 436 L 123 351 C 131 378 148 401 174 419 C 200 437 232 447 270 447 C 314 447 349 434 376 410 C 402 386 416 352 416 308 L 416 0 Z M 237 500 L 237 500 Z M 92 670 L 151 670 L 238 545 L 326 670 L 383 670 L 269 500 L 206 500 L 92 670 Z" unicode="ň" />
<glyph horiz-adv-x="706" d="M 546 730 L 612 730 L 612 -1 C 612 -27 608 -53 600 -77 C 592 -101 581 -122 566 -140 C 551 -158 532 -172 510 -183 C 487 -193 460 -199 430 -199 C 415 -199 401 -198 387 -196 C 373 -194 361 -192 353 -190 L 355 -125 C 361 -127 370 -130 384 -132 C 398 -134 411 -135 423 -135 C 463 -135 493 -122 515 -96 C 536 -70 547 -39 547 -3 L 547 22 L 157 591 L 157 0 L 90 0 L 90 730 L 142 730 L 546 140 L 546 730 Z" unicode="Ŋ" />
<glyph horiz-adv-x="473" d="M 270 447 C 314 447 349 434 376 410 C 402 386 416 352 416 308 L 416 -88 C 416 -121 406 -148 386 -170 C 366 -191 341 -202 311 -202 C 303 -202 295 -201 285 -199 C 275 -197 269 -196 265 -195 L 271 -142 C 273 -142 277 -143 282 -144 C 286 -144 291 -145 296 -145 C 310 -145 322 -139 334 -129 C 345 -118 351 -102 351 -80 L 351 293 C 351 324 341 349 323 367 C 305 385 279 394 247 394 C 215 394 187 383 163 362 C 138 341 126 307 126 261 L 126 0 L 61 0 L 61 436 L 123 436 L 123 351 C 131 378 148 401 174 419 C 200 437 232 447 270 447 Z" unicode="ŋ" />
<glyph horiz-adv-x="754" d="M 46 0 L 46 0 Z M 380 -10 C 330 -10 285 -1 244 17 C 203 35 168 60 139 93 C 109 126 86 166 70 213 C 54 260 46 312 46 370 C 46 424 54 473 71 519 C 87 565 110 604 139 636 C 168 668 203 694 243 712 C 283 730 326 740 373 740 C 423 740 468 731 510 713 C 552 695 587 670 616 638 C 645 606 668 566 684 520 C 700 474 708 422 708 366 C 708 310 699 258 682 212 C 665 166 642 126 613 93 C 583 60 548 35 508 17 C 468 -1 425 -10 380 -10 Z M 379 53 C 415 53 448 60 480 75 C 512 89 539 110 562 138 C 585 165 603 198 616 238 C 629 277 636 321 636 371 C 636 417 629 458 616 496 C 603 534 585 566 562 592 C 539 618 512 639 480 654 C 448 668 413 676 375 676 C 337 676 302 669 271 655 C 239 641 212 620 190 594 C 167 567 149 534 137 496 C 125 457 119 413 119 365 C 119 315 125 271 139 232 C 153 193 171 160 195 134 C 218 108 245 88 277 74 C 309 60 343 53 379 53 Z M 375 824 L 375 824 Z M 496 824 L 254 824 L 254 872 L 496 872 L 496 824 Z" unicode="Ō" />
<glyph horiz-adv-x="477" d="M 28 0 L 28 0 Z M 237 -9 C 209 -9 182 -3 157 7 C 131 17 109 32 90 52 C 71 71 56 95 45 123 C 33 151 28 182 28 217 C 28 249 33 279 44 307 C 54 335 69 359 87 379 C 105 399 127 416 152 428 C 177 440 204 446 233 446 C 263 446 291 440 317 430 C 343 419 366 404 386 385 C 405 366 420 343 432 317 C 443 290 449 261 449 229 C 449 195 443 163 433 134 C 422 105 407 80 389 59 C 370 37 348 21 322 9 C 296 -3 267 -9 237 -9 Z M 237 45 C 279 45 314 61 341 94 C 368 127 382 170 382 222 C 382 271 368 312 342 344 C 315 376 279 392 233 392 C 193 392 160 376 134 344 C 108 312 95 270 95 220 C 95 164 108 121 136 91 C 163 60 197 45 237 45 Z M 235 530 L 235 530 Z M 356 530 L 114 530 L 114 578 L 356 578 L 356 530 Z" unicode="ō" />
<glyph horiz-adv-x="754" d="M 46 0 L 46 0 Z M 380 -10 C 330 -10 285 -1 244 17 C 203 35 168 60 139 93 C 109 126 86 166 70 213 C 54 260 46 312 46 370 C 46 424 54 473 71 519 C 87 565 110 604 139 636 C 168 668 203 694 243 712 C 283 730 326 740 373 740 C 423 740 468 731 510 713 C 552 695 587 670 616 638 C 645 606 668 566 684 520 C 700 474 708 422 708 366 C 708 310 699 258 682 212 C 665 166 642 126 613 93 C 583 60 548 35 508 17 C 468 -1 425 -10 380 -10 Z M 379 53 C 415 53 448 60 480 75 C 512 89 539 110 562 138 C 585 165 603 198 616 238 C 629 277 636 321 636 371 C 636 417 629 458 616 496 C 603 534 585 566 562 592 C 539 618 512 639 480 654 C 448 668 413 676 375 676 C 337 676 302 669 271 655 C 239 641 212 620 190 594 C 167 567 149 534 137 496 C 125 457 119 413 119 365 C 119 315 125 271 139 232 C 153 193 171 160 195 134 C 218 108 245 88 277 74 C 309 60 343 53 379 53 Z M 375 801 L 375 801 Z M 459 956 L 514 956 C 510 902 495 862 470 838 C 444 813 413 801 375 801 C 337 801 305 813 280 838 C 254 862 240 902 236 956 L 291 956 C 293 922 301 895 314 873 C 326 851 347 841 375 841 C 403 841 423 851 436 872 C 449 893 457 921 459 956 Z" unicode="Ŏ" />
<glyph horiz-adv-x="477" d="M 28 0 L 28 0 Z M 237 -9 C 209 -9 182 -3 157 7 C 131 17 109 32 90 52 C 71 71 56 95 45 123 C 33 151 28 182 28 217 C 28 249 33 279 44 307 C 54 335 69 359 87 379 C 105 399 127 416 152 428 C 177 440 204 446 233 446 C 263 446 291 440 317 430 C 343 419 366 404 386 385 C 405 366 420 343 432 317 C 443 290 449 261 449 229 C 449 195 443 163 433 134 C 422 105 407 80 389 59 C 370 37 348 21 322 9 C 296 -3 267 -9 237 -9 Z M 237 45 C 279 45 314 61 341 94 C 368 127 382 170 382 222 C 382 271 368 312 342 344 C 315 376 279 392 233 392 C 193 392 160 376 134 344 C 108 312 95 270 95 220 C 95 164 108 121 136 91 C 163 60 197 45 237 45 Z M 235 507 L 235 507 Z M 319 662 L 374 662 C 370 608 355 568 330 544 C 304 519 273 507 235 507 C 197 507 165 519 140 544 C 114 568 100 608 96 662 L 151 662 C 153 628 161 601 174 579 C 186 557 207 547 235 547 C 263 547 283 557 296 578 C 309 599 317 627 319 662 Z" unicode="ŏ" />
<glyph horiz-adv-x="754" d="M 46 0 L 46 0 Z M 380 -10 C 330 -10 285 -1 244 17 C 203 35 168 60 139 93 C 109 126 86 166 70 213 C 54 260 46 312 46 370 C 46 424 54 473 71 519 C 87 565 110 604 139 636 C 168 668 203 694 243 712 C 283 730 326 740 373 740 C 423 740 468 731 510 713 C 552 695 587 670 616 638 C 645 606 668 566 684 520 C 700 474 708 422 708 366 C 708 310 699 258 682 212 C 665 166 642 126 613 93 C 583 60 548 35 508 17 C 468 -1 425 -10 380 -10 Z M 379 53 C 415 53 448 60 480 75 C 512 89 539 110 562 138 C 585 165 603 198 616 238 C 629 277 636 321 636 371 C 636 417 629 458 616 496 C 603 534 585 566 562 592 C 539 618 512 639 480 654 C 448 668 413 676 375 676 C 337 676 302 669 271 655 C 239 641 212 620 190 594 C 167 567 149 534 137 496 C 125 457 119 413 119 365 C 119 315 125 271 139 232 C 153 193 171 160 195 134 C 218 108 245 88 277 74 C 309 60 343 53 379 53 Z M 375 793 L 375 793 Z M 218 793 L 300 944 L 370 944 L 277 793 L 218 793 Z M 381 793 L 464 944 L 534 944 L 440 793 L 381 793 Z" unicode="Ő" />
<glyph horiz-adv-x="477" d="M 28 0 L 28 0 Z M 237 -9 C 209 -9 182 -3 157 7 C 131 17 109 32 90 52 C 71 71 56 95 45 123 C 33 151 28 182 28 217 C 28 249 33 279 44 307 C 54 335 69 359 87 379 C 105 399 127 416 152 428 C 177 440 204 446 233 446 C 263 446 291 440 317 430 C 343 419 366 404 386 385 C 405 366 420 343 432 317 C 443 290 449 261 449 229 C 449 195 443 163 433 134 C 422 105 407 80 389 59 C 370 37 348 21 322 9 C 296 -3 267 -9 237 -9 Z M 237 45 C 279 45 314 61 341 94 C 368 127 382 170 382 222 C 382 271 368 312 342 344 C 315 376 279 392 233 392 C 193 392 160 376 134 344 C 108 312 95 270 95 220 C 95 164 108 121 136 91 C 163 60 197 45 237 45 Z M 235 499 L 235 499 Z M 78 499 L 160 650 L 230 650 L 137 499 L 78 499 Z M 241 499 L 324 650 L 394 650 L 300 499 L 241 499 Z" unicode="ő" />
<glyph horiz-adv-x="1048" d="M 368 -10 C 321 -10 278 -1 238 16 C 198 34 164 59 136 92 C 108 125 86 165 70 212 C 54 258 46 311 46 369 C 46 424 54 474 70 520 C 86 566 109 605 138 637 C 166 669 200 695 240 713 C 280 731 322 740 368 740 C 397 740 426 735 454 726 C 482 717 507 705 531 689 C 554 673 574 654 591 632 C 608 610 621 587 629 563 L 629 730 L 988 730 L 988 669 L 697 669 L 697 392 L 977 392 L 977 331 L 697 331 L 697 61 L 1006 61 L 1006 0 L 629 0 L 629 176 C 621 150 610 126 595 104 C 579 81 561 61 539 45 C 517 28 491 15 463 5 C 434 -5 402 -10 368 -10 Z M 376 49 C 411 49 444 56 475 70 C 506 84 533 104 556 132 C 579 159 597 193 611 233 C 624 273 631 319 631 371 C 631 422 623 467 607 506 C 591 544 571 576 547 602 C 522 628 494 647 463 660 C 432 673 402 680 372 680 C 335 680 301 672 270 658 C 239 644 212 623 190 597 C 167 570 149 537 137 498 C 124 459 118 415 118 366 C 118 315 124 270 138 231 C 152 191 170 158 193 131 C 216 104 243 84 275 70 C 307 56 340 49 376 49 Z" unicode="Œ" />
<glyph horiz-adv-x="810" d="M 236 -9 C 206 -9 179 -3 154 7 C 128 18 106 33 88 53 C 69 73 54 97 44 125 C 33 153 28 183 28 217 C 28 249 33 279 43 307 C 53 335 68 359 86 380 C 104 400 126 416 152 428 C 178 440 205 446 235 446 C 260 446 283 442 304 435 C 325 427 343 418 358 406 C 373 394 385 381 395 366 C 405 350 412 335 416 319 C 420 333 426 348 436 363 C 445 378 457 392 471 404 C 485 416 503 426 523 434 C 543 442 565 446 590 446 C 653 446 702 424 738 380 C 773 336 791 277 791 203 L 446 203 C 447 153 462 113 491 85 C 519 57 555 43 599 43 C 639 43 668 49 688 63 C 707 76 724 90 738 106 L 776 70 C 759 50 738 31 713 15 C 687 0 649 -9 598 -9 C 571 -9 547 -5 526 2 C 505 9 487 18 472 30 C 456 42 444 55 435 71 C 425 86 419 102 416 118 C 412 104 405 90 395 75 C 385 60 373 46 358 34 C 343 22 325 11 305 3 C 284 -4 261 -9 236 -9 Z M 448 251 L 729 251 C 728 291 715 325 690 353 C 665 381 631 395 589 395 C 547 395 513 381 489 353 C 465 325 451 291 448 251 Z M 237 46 C 281 46 316 62 343 94 C 369 126 383 168 383 222 C 383 272 369 312 342 344 C 314 376 279 392 235 392 C 193 392 160 375 134 343 C 108 311 95 270 95 220 C 95 165 108 122 136 92 C 163 61 197 46 237 46 Z" unicode="œ" />
<glyph horiz-adv-x="548" d="M 90 0 L 90 0 Z M 90 0 L 90 730 L 266 730 C 324 730 371 712 407 678 C 443 644 461 596 461 536 C 461 505 456 478 448 454 C 439 430 428 409 414 393 C 400 376 383 363 364 353 C 345 343 326 338 306 336 L 302 334 L 516 0 L 436 0 L 234 319 L 158 319 L 158 0 L 90 0 Z M 158 379 L 253 379 C 293 379 327 392 353 418 C 379 443 392 479 392 527 C 392 569 379 603 354 629 C 328 654 295 667 253 667 L 158 667 L 158 379 Z M 258 793 L 258 793 Z M 171 793 L 269 960 L 345 960 L 236 793 L 171 793 Z" unicode="Ŕ" />
<glyph horiz-adv-x="340" d="M 61 0 L 61 0 Z M 339 415 L 314 362 C 301 372 288 380 275 384 C 261 388 248 390 235 390 C 208 390 183 378 160 356 C 137 334 126 300 126 256 L 126 0 L 61 0 L 61 436 L 123 436 L 123 346 C 125 357 130 369 138 381 C 145 393 154 403 165 413 C 175 423 188 431 203 437 C 217 443 233 446 250 446 C 268 446 285 443 301 437 C 316 431 329 424 339 415 Z M 199 499 L 199 499 Z M 112 499 L 210 666 L 286 666 L 177 499 L 112 499 Z" unicode="ŕ" />
<glyph horiz-adv-x="548" d="M 90 0 L 90 0 Z M 90 0 L 90 730 L 266 730 C 324 730 371 712 407 678 C 443 644 461 596 461 536 C 461 505 456 478 448 454 C 439 430 428 409 414 393 C 400 376 383 363 364 353 C 345 343 326 338 306 336 L 302 334 L 516 0 L 436 0 L 234 319 L 158 319 L 158 0 L 90 0 Z M 158 379 L 253 379 C 293 379 327 392 353 418 C 379 443 392 479 392 527 C 392 569 379 603 354 629 C 328 654 295 667 253 667 L 158 667 L 158 379 Z M 262 -70 L 262 -70 Z M 341 -70 C 335 -112 322 -155 302 -198 C 282 -241 258 -277 231 -307 L 182 -284 C 196 -265 213 -236 233 -196 C 252 -156 265 -114 272 -70 L 341 -70 Z" unicode="Ŗ" />
<glyph horiz-adv-x="340" d="M 61 0 L 61 0 Z M 339 415 L 314 362 C 301 372 288 380 275 384 C 261 388 248 390 235 390 C 208 390 183 378 160 356 C 137 334 126 300 126 256 L 126 0 L 61 0 L 61 436 L 123 436 L 123 346 C 125 357 130 369 138 381 C 145 393 154 403 165 413 C 175 423 188 431 203 437 C 217 443 233 446 250 446 C 268 446 285 443 301 437 C 316 431 329 424 339 415 Z M 167 -70 L 167 -70 Z M 246 -70 C 240 -112 227 -155 207 -198 C 187 -241 163 -277 136 -307 L 87 -284 C 101 -265 118 -236 138 -196 C 157 -156 170 -114 177 -70 L 246 -70 Z" unicode="ŗ" />
<glyph horiz-adv-x="548" d="M 90 0 L 90 0 Z M 90 0 L 90 730 L 266 730 C 324 730 371 712 407 678 C 443 644 461 596 461 536 C 461 505 456 478 448 454 C 439 430 428 409 414 393 C 400 376 383 363 364 353 C 345 343 326 338 306 336 L 302 334 L 516 0 L 436 0 L 234 319 L 158 319 L 158 0 L 90 0 Z M 158 379 L 253 379 C 293 379 327 392 353 418 C 379 443 392 479 392 527 C 392 569 379 603 354 629 C 328 654 295 667 253 667 L 158 667 L 158 379 Z M 258 794 L 258 794 Z M 113 964 L 172 964 L 259 839 L 347 964 L 404 964 L 290 794 L 227 794 L 113 964 Z" unicode="Ř" />
<glyph horiz-adv-x="340" d="M 54 0 L 54 0 Z M 339 415 L 314 362 C 301 372 288 380 275 384 C 261 388 248 390 235 390 C 208 390 183 378 160 356 C 137 334 126 300 126 256 L 126 0 L 61 0 L 61 436 L 123 436 L 123 346 C 125 357 130 369 138 381 C 145 393 154 403 165 413 C 175 423 188 431 203 437 C 217 443 233 446 250 446 C 268 446 285 443 301 437 C 316 431 329 424 339 415 Z M 199 500 L 199 500 Z M 54 670 L 113 670 L 200 545 L 288 670 L 345 670 L 231 500 L 168 500 L 54 670 Z" unicode="ř" />
<glyph horiz-adv-x="460" d="M 26 0 L 26 0 Z M 239 -10 C 194 -10 153 -2 117 13 C 81 28 50 50 26 80 L 66 131 C 86 104 111 84 142 70 C 173 56 204 50 235 50 C 271 50 301 61 327 85 C 353 108 366 139 366 177 C 366 211 355 240 335 265 C 315 290 278 316 225 343 C 167 371 122 401 92 433 C 62 465 47 509 47 566 C 47 618 64 660 98 692 C 132 724 176 740 230 740 C 268 740 302 733 332 721 C 361 708 387 692 410 672 L 374 619 C 355 636 334 650 310 661 C 286 672 260 678 234 678 C 198 678 169 667 147 645 C 125 623 114 596 114 564 C 114 528 124 500 145 478 C 166 456 206 430 265 402 C 327 371 371 338 396 304 C 420 269 433 227 433 179 C 433 149 427 123 417 100 C 406 76 392 56 375 40 C 357 24 337 11 313 3 C 289 -5 265 -10 239 -10 Z M 230 793 L 230 793 Z M 143 793 L 241 960 L 317 960 L 208 793 L 143 793 Z" unicode="Ś" />
<glyph horiz-adv-x="349" d="M 29 0 L 29 0 Z M 184 -9 C 148 -9 118 -3 92 6 C 66 16 45 31 29 50 L 62 94 C 75 78 92 66 113 57 C 134 48 157 44 182 44 C 202 44 221 50 237 62 C 253 74 262 92 262 115 C 262 133 254 149 238 162 C 222 174 196 188 158 203 C 117 218 87 235 68 254 C 48 273 39 299 39 331 C 39 365 52 392 78 414 C 104 435 136 446 174 446 C 204 446 230 441 253 431 C 275 421 293 411 307 401 L 274 359 C 264 367 250 374 232 382 C 214 389 195 393 175 393 C 155 393 137 388 121 378 C 105 368 97 354 97 336 C 97 320 102 306 114 296 C 125 285 150 272 189 257 C 235 239 268 221 288 201 C 308 181 319 153 319 119 C 319 79 305 47 279 25 C 252 2 220 -9 184 -9 Z M 177 499 L 177 499 Z M 90 499 L 188 666 L 264 666 L 155 499 L 90 499 Z" unicode="ś" />
<glyph horiz-adv-x="460" d="M 26 0 L 26 0 Z M 239 -10 C 194 -10 153 -2 117 13 C 81 28 50 50 26 80 L 66 131 C 86 104 111 84 142 70 C 173 56 204 50 235 50 C 271 50 301 61 327 85 C 353 108 366 139 366 177 C 366 211 355 240 335 265 C 315 290 278 316 225 343 C 167 371 122 401 92 433 C 62 465 47 509 47 566 C 47 618 64 660 98 692 C 132 724 176 740 230 740 C 268 740 302 733 332 721 C 361 708 387 692 410 672 L 374 619 C 355 636 334 650 310 661 C 286 672 260 678 234 678 C 198 678 169 667 147 645 C 125 623 114 596 114 564 C 114 528 124 500 145 478 C 166 456 206 430 265 402 C 327 371 371 338 396 304 C 420 269 433 227 433 179 C 433 149 427 123 417 100 C 406 76 392 56 375 40 C 357 24 337 11 313 3 C 289 -5 265 -10 239 -10 Z M 230 794 L 230 794 Z M 376 794 L 317 794 L 230 918 L 142 794 L 85 794 L 199 964 L 262 964 L 376 794 Z" unicode="Ŝ" />
<glyph horiz-adv-x="349" d="M 29 0 L 29 0 Z M 184 -9 C 148 -9 118 -3 92 6 C 66 16 45 31 29 50 L 62 94 C 75 78 92 66 113 57 C 134 48 157 44 182 44 C 202 44 221 50 237 62 C 253 74 262 92 262 115 C 262 133 254 149 238 162 C 222 174 196 188 158 203 C 117 218 87 235 68 254 C 48 273 39 299 39 331 C 39 365 52 392 78 414 C 104 435 136 446 174 446 C 204 446 230 441 253 431 C 275 421 293 411 307 401 L 274 359 C 264 367 250 374 232 382 C 214 389 195 393 175 393 C 155 393 137 388 121 378 C 105 368 97 354 97 336 C 97 320 102 306 114 296 C 125 285 150 272 189 257 C 235 239 268 221 288 201 C 308 181 319 153 319 119 C 319 79 305 47 279 25 C 252 2 220 -9 184 -9 Z M 177 500 L 177 500 Z M 323 500 L 264 500 L 177 624 L 89 500 L 32 500 L 146 670 L 209 670 L 323 500 Z" unicode="ŝ" />
<glyph horiz-adv-x="460" d="M 26 0 L 26 0 Z M 239 -10 C 194 -10 153 -2 117 13 C 81 28 50 50 26 80 L 66 131 C 86 104 111 84 142 70 C 173 56 204 50 235 50 C 271 50 301 61 327 85 C 353 108 366 139 366 177 C 366 211 355 240 335 265 C 315 290 278 316 225 343 C 167 371 122 401 92 433 C 62 465 47 509 47 566 C 47 618 64 660 98 692 C 132 724 176 740 230 740 C 268 740 302 733 332 721 C 361 708 387 692 410 672 L 374 619 C 355 636 334 650 310 661 C 286 672 260 678 234 678 C 198 678 169 667 147 645 C 125 623 114 596 114 564 C 114 528 124 500 145 478 C 166 456 206 430 265 402 C 327 371 371 338 396 304 C 420 269 433 227 433 179 C 433 149 427 123 417 100 C 406 76 392 56 375 40 C 357 24 337 11 313 3 C 289 -5 265 -10 239 -10 Z M 214 -3 L 214 -3 Z M 222 -187 C 199 -187 176 -184 154 -178 C 131 -172 113 -164 100 -155 L 109 -125 C 119 -131 132 -137 149 -143 C 165 -149 183 -153 203 -153 C 219 -153 234 -149 247 -141 C 260 -133 267 -122 267 -109 C 267 -94 261 -84 250 -78 C 238 -72 226 -69 214 -69 C 204 -69 197 -69 191 -71 C 185 -72 177 -74 169 -77 L 157 -64 L 214 6 L 255 6 L 206 -56 C 239 -47 267 -49 291 -61 C 315 -73 327 -91 327 -115 C 327 -138 316 -156 296 -168 C 275 -180 250 -187 222 -187 Z" unicode="Ş" />
<glyph horiz-adv-x="349" d="M 29 0 L 29 0 Z M 184 -9 C 148 -9 118 -3 92 6 C 66 16 45 31 29 50 L 62 94 C 75 78 92 66 113 57 C 134 48 157 44 182 44 C 202 44 221 50 237 62 C 253 74 262 92 262 115 C 262 133 254 149 238 162 C 222 174 196 188 158 203 C 117 218 87 235 68 254 C 48 273 39 299 39 331 C 39 365 52 392 78 414 C 104 435 136 446 174 446 C 204 446 230 441 253 431 C 275 421 293 411 307 401 L 274 359 C 264 367 250 374 232 382 C 214 389 195 393 175 393 C 155 393 137 388 121 378 C 105 368 97 354 97 336 C 97 320 102 306 114 296 C 125 285 150 272 189 257 C 235 239 268 221 288 201 C 308 181 319 153 319 119 C 319 79 305 47 279 25 C 252 2 220 -9 184 -9 Z M 164 -4 L 164 -4 Z M 172 -188 C 149 -188 126 -185 104 -179 C 81 -173 63 -165 50 -156 L 59 -126 C 69 -132 82 -138 99 -144 C 115 -150 133 -154 153 -154 C 169 -154 184 -150 197 -142 C 210 -134 217 -123 217 -110 C 217 -95 211 -85 200 -79 C 188 -73 176 -70 164 -70 C 154 -70 147 -70 141 -72 C 135 -73 127 -75 119 -78 L 107 -65 L 164 5 L 205 5 L 156 -57 C 189 -48 217 -50 241 -62 C 265 -74 277 -92 277 -116 C 277 -139 266 -157 246 -169 C 225 -181 200 -188 172 -188 Z" unicode="ş" />
<glyph horiz-adv-x="460" d="M 26 0 L 26 0 Z M 239 -10 C 194 -10 153 -2 117 13 C 81 28 50 50 26 80 L 66 131 C 86 104 111 84 142 70 C 173 56 204 50 235 50 C 271 50 301 61 327 85 C 353 108 366 139 366 177 C 366 211 355 240 335 265 C 315 290 278 316 225 343 C 167 371 122 401 92 433 C 62 465 47 509 47 566 C 47 618 64 660 98 692 C 132 724 176 740 230 740 C 268 740 302 733 332 721 C 361 708 387 692 410 672 L 374 619 C 355 636 334 650 310 661 C 286 672 260 678 234 678 C 198 678 169 667 147 645 C 125 623 114 596 114 564 C 114 528 124 500 145 478 C 166 456 206 430 265 402 C 327 371 371 338 396 304 C 420 269 433 227 433 179 C 433 149 427 123 417 100 C 406 76 392 56 375 40 C 357 24 337 11 313 3 C 289 -5 265 -10 239 -10 Z M 230 794 L 230 794 Z M 85 964 L 144 964 L 231 839 L 319 964 L 376 964 L 262 794 L 199 794 L 85 964 Z" unicode="Š" />
<glyph horiz-adv-x="349" d="M 29 0 L 29 0 Z M 184 -9 C 148 -9 118 -3 92 6 C 66 16 45 31 29 50 L 62 94 C 75 78 92 66 113 57 C 134 48 157 44 182 44 C 202 44 221 50 237 62 C 253 74 262 92 262 115 C 262 133 254 149 238 162 C 222 174 196 188 158 203 C 117 218 87 235 68 254 C 48 273 39 299 39 331 C 39 365 52 392 78 414 C 104 435 136 446 174 446 C 204 446 230 441 253 431 C 275 421 293 411 307 401 L 274 359 C 264 367 250 374 232 382 C 214 389 195 393 175 393 C 155 393 137 388 121 378 C 105 368 97 354 97 336 C 97 320 102 306 114 296 C 125 285 150 272 189 257 C 235 239 268 221 288 201 C 308 181 319 153 319 119 C 319 79 305 47 279 25 C 252 2 220 -9 184 -9 Z M 177 500 L 177 500 Z M 32 670 L 91 670 L 178 545 L 266 670 L 323 670 L 209 500 L 146 500 L 32 670 Z" unicode="š" />
<glyph horiz-adv-x="467" d="M 9 0 L 9 0 Z M 458 667 L 266 667 L 266 0 L 196 0 L 196 667 L 9 667 L 9 730 L 458 730 L 458 667 Z M 231 794 L 231 794 Z M 86 964 L 145 964 L 232 839 L 320 964 L 377 964 L 263 794 L 200 794 L 86 964 Z" unicode="Ť" />
<glyph horiz-adv-x="226" d="M 12 0 L 12 0 Z M 213 55 L 217 2 C 214 0 208 -1 200 -3 C 191 -4 182 -5 172 -5 C 160 -5 148 -3 136 0 C 124 2 113 7 103 15 C 93 22 84 32 78 45 C 72 57 69 73 69 93 L 69 379 L 12 379 L 12 436 L 69 436 L 69 542 L 133 551 L 133 436 L 210 436 L 210 379 L 133 379 L 133 99 C 133 81 138 68 148 61 C 158 53 170 50 186 50 C 190 50 195 50 201 52 C 207 53 211 54 213 55 Z M 282 622 L 278 493 L 224 493 L 220 622 L 220 730 L 282 730 L 282 622 Z" unicode="ť" />
<glyph horiz-adv-x="467" d="M 394 492 L 266 492 L 266 0 L 196 0 L 196 492 L 65 492 L 65 547 L 196 547 L 196 667 L 9 667 L 9 730 L 458 730 L 458 667 L 266 667 L 266 547 L 394 547 L 394 492 Z" unicode="Ŧ" />
<glyph horiz-adv-x="226" d="M 217 2 C 214 0 208 -1 200 -3 C 191 -4 182 -5 172 -5 C 160 -5 148 -3 136 0 C 124 2 113 7 103 15 C 93 22 84 32 78 45 C 72 57 69 73 69 93 L 69 253 L 21 253 L 21 308 L 69 308 L 69 379 L 12 379 L 12 436 L 69 436 L 69 542 L 133 551 L 133 436 L 210 436 L 210 379 L 133 379 L 133 308 L 201 308 L 201 253 L 133 253 L 133 99 C 133 81 138 68 148 61 C 158 53 170 50 186 50 C 190 50 195 50 201 52 C 207 53 211 54 213 55 L 217 2 Z" unicode="ŧ" />
<glyph horiz-adv-x="668" d="M 83 0 L 83 0 Z M 585 730 L 585 248 C 585 206 578 168 565 136 C 551 104 533 77 511 55 C 488 33 461 17 431 6 C 400 -4 367 -10 332 -10 C 298 -10 265 -4 235 6 C 205 16 178 32 156 54 C 133 75 115 102 102 134 C 89 166 83 204 83 248 L 83 730 L 151 730 L 151 242 C 151 212 155 185 165 162 C 175 138 188 118 204 102 C 220 86 239 73 261 65 C 283 57 307 53 332 53 C 357 53 381 57 403 65 C 425 73 445 84 462 100 C 478 116 492 135 502 159 C 512 183 517 210 517 242 L 517 730 L 585 730 Z M 333 802 L 333 802 Z M 435 930 L 483 930 C 483 886 477 854 465 833 C 453 812 437 802 418 802 C 399 802 383 806 370 815 C 356 823 345 832 335 841 C 324 849 313 857 303 865 C 293 873 282 877 272 877 C 262 877 253 870 245 858 C 237 846 233 828 233 806 L 184 806 C 184 849 191 881 207 902 C 223 923 240 934 259 934 C 275 934 290 929 302 921 C 314 912 326 903 338 893 C 348 884 358 876 368 868 C 378 860 388 857 399 857 C 408 857 416 863 424 876 C 431 889 435 907 435 930 Z" unicode="Ũ" />
<glyph horiz-adv-x="474" d="M 58 0 L 58 0 Z M 58 436 L 122 436 L 122 145 C 122 112 131 87 150 69 C 168 51 194 42 227 42 C 259 42 287 52 311 73 C 335 93 348 127 348 173 L 348 436 L 412 436 L 412 0 L 349 0 L 349 85 C 339 57 321 35 295 17 C 269 0 239 -9 203 -9 C 161 -9 126 3 99 28 C 71 52 58 88 58 134 L 58 436 Z M 235 508 L 235 508 Z M 337 636 L 385 636 C 385 592 379 560 367 539 C 355 518 339 508 320 508 C 301 508 285 512 272 521 C 258 529 247 538 237 547 C 226 555 215 563 205 571 C 195 579 184 583 174 583 C 164 583 155 576 147 564 C 139 552 135 534 135 512 L 86 512 C 86 555 93 587 109 608 C 125 629 142 640 161 640 C 177 640 192 635 204 627 C 216 618 228 609 240 599 C 250 590 260 582 270 574 C 280 566 290 563 301 563 C 310 563 318 569 326 582 C 333 595 337 613 337 636 Z" unicode="ũ" />
<glyph horiz-adv-x="668" d="M 83 0 L 83 0 Z M 585 730 L 585 248 C 585 206 578 168 565 136 C 551 104 533 77 511 55 C 488 33 461 17 431 6 C 400 -4 367 -10 332 -10 C 298 -10 265 -4 235 6 C 205 16 178 32 156 54 C 133 75 115 102 102 134 C 89 166 83 204 83 248 L 83 730 L 151 730 L 151 242 C 151 212 155 185 165 162 C 175 138 188 118 204 102 C 220 86 239 73 261 65 C 283 57 307 53 332 53 C 357 53 381 57 403 65 C 425 73 445 84 462 100 C 478 116 492 135 502 159 C 512 183 517 210 517 242 L 517 730 L 585 730 Z M 333 824 L 333 824 Z M 454 824 L 212 824 L 212 872 L 454 872 L 454 824 Z" unicode="Ū" />
<glyph horiz-adv-x="474" d="M 58 0 L 58 0 Z M 58 436 L 122 436 L 122 145 C 122 112 131 87 150 69 C 168 51 194 42 227 42 C 259 42 287 52 311 73 C 335 93 348 127 348 173 L 348 436 L 412 436 L 412 0 L 349 0 L 349 85 C 339 57 321 35 295 17 C 269 0 239 -9 203 -9 C 161 -9 126 3 99 28 C 71 52 58 88 58 134 L 58 436 Z M 235 530 L 235 530 Z M 356 530 L 114 530 L 114 578 L 356 578 L 356 530 Z" unicode="ū" />
<glyph horiz-adv-x="668" d="M 83 0 L 83 0 Z M 585 730 L 585 248 C 585 206 578 168 565 136 C 551 104 533 77 511 55 C 488 33 461 17 431 6 C 400 -4 367 -10 332 -10 C 298 -10 265 -4 235 6 C 205 16 178 32 156 54 C 133 75 115 102 102 134 C 89 166 83 204 83 248 L 83 730 L 151 730 L 151 242 C 151 212 155 185 165 162 C 175 138 188 118 204 102 C 220 86 239 73 261 65 C 283 57 307 53 332 53 C 357 53 381 57 403 65 C 425 73 445 84 462 100 C 478 116 492 135 502 159 C 512 183 517 210 517 242 L 517 730 L 585 730 Z M 333 801 L 333 801 Z M 417 956 L 472 956 C 468 902 453 862 428 838 C 402 813 371 801 333 801 C 295 801 263 813 238 838 C 212 862 198 902 194 956 L 249 956 C 251 922 259 895 272 873 C 284 851 305 841 333 841 C 361 841 381 851 394 872 C 407 893 415 921 417 956 Z" unicode="Ŭ" />
<glyph horiz-adv-x="474" d="M 58 0 L 58 0 Z M 58 436 L 122 436 L 122 145 C 122 112 131 87 150 69 C 168 51 194 42 227 42 C 259 42 287 52 311 73 C 335 93 348 127 348 173 L 348 436 L 412 436 L 412 0 L 349 0 L 349 85 C 339 57 321 35 295 17 C 269 0 239 -9 203 -9 C 161 -9 126 3 99 28 C 71 52 58 88 58 134 L 58 436 Z M 235 507 L 235 507 Z M 319 662 L 374 662 C 370 608 355 568 330 544 C 304 519 273 507 235 507 C 197 507 165 519 140 544 C 114 568 100 608 96 662 L 151 662 C 153 628 161 601 174 579 C 186 557 207 547 235 547 C 263 547 283 557 296 578 C 309 599 317 627 319 662 Z" unicode="ŭ" />
<glyph horiz-adv-x="668" d="M 83 0 L 83 0 Z M 585 730 L 585 248 C 585 206 578 168 565 136 C 551 104 533 77 511 55 C 488 33 461 17 431 6 C 400 -4 367 -10 332 -10 C 298 -10 265 -4 235 6 C 205 16 178 32 156 54 C 133 75 115 102 102 134 C 89 166 83 204 83 248 L 83 730 L 151 730 L 151 242 C 151 212 155 185 165 162 C 175 138 188 118 204 102 C 220 86 239 73 261 65 C 283 57 307 53 332 53 C 357 53 381 57 403 65 C 425 73 445 84 462 100 C 478 116 492 135 502 159 C 512 183 517 210 517 242 L 517 730 L 585 730 Z M 333 791 L 333 791 Z M 333 791 C 302 791 276 801 255 823 C 233 844 223 870 223 901 C 223 931 233 957 255 979 C 276 1001 302 1012 333 1012 C 363 1012 389 1001 411 979 C 433 957 444 931 444 901 C 444 870 433 844 411 823 C 389 801 363 791 333 791 Z M 333 829 C 353 829 369 836 383 850 C 396 864 403 881 403 901 C 403 921 396 939 383 953 C 369 967 353 974 333 974 C 313 974 297 967 283 953 C 269 939 263 921 263 901 C 263 881 269 864 283 850 C 297 836 313 829 333 829 Z" unicode="Ů" />
<glyph horiz-adv-x="474" d="M 58 0 L 58 0 Z M 58 436 L 122 436 L 122 145 C 122 112 131 87 150 69 C 168 51 194 42 227 42 C 259 42 287 52 311 73 C 335 93 348 127 348 173 L 348 436 L 412 436 L 412 0 L 349 0 L 349 85 C 339 57 321 35 295 17 C 269 0 239 -9 203 -9 C 161 -9 126 3 99 28 C 71 52 58 88 58 134 L 58 436 Z M 235 497 L 235 497 Z M 235 497 C 204 497 178 507 157 529 C 135 550 125 576 125 607 C 125 637 135 663 157 685 C 178 707 204 718 235 718 C 265 718 291 707 313 685 C 335 663 346 637 346 607 C 346 576 335 550 313 529 C 291 507 265 497 235 497 Z M 235 535 C 255 535 271 542 285 556 C 298 570 305 587 305 607 C 305 627 298 645 285 659 C 271 673 255 680 235 680 C 215 680 199 673 185 659 C 171 645 165 627 165 607 C 165 587 171 570 185 556 C 199 542 215 535 235 535 Z" unicode="ů" />
<glyph horiz-adv-x="668" d="M 83 0 L 83 0 Z M 585 730 L 585 248 C 585 206 578 168 565 136 C 551 104 533 77 511 55 C 488 33 461 17 431 6 C 400 -4 367 -10 332 -10 C 298 -10 265 -4 235 6 C 205 16 178 32 156 54 C 133 75 115 102 102 134 C 89 166 83 204 83 248 L 83 730 L 151 730 L 151 242 C 151 212 155 185 165 162 C 175 138 188 118 204 102 C 220 86 239 73 261 65 C 283 57 307 53 332 53 C 357 53 381 57 403 65 C 425 73 445 84 462 100 C 478 116 492 135 502 159 C 512 183 517 210 517 242 L 517 730 L 585 730 Z M 333 793 L 333 793 Z M 176 793 L 258 944 L 328 944 L 235 793 L 176 793 Z M 339 793 L 422 944 L 492 944 L 398 793 L 339 793 Z" unicode="Ű" />
<glyph horiz-adv-x="474" d="M 58 0 L 58 0 Z M 58 436 L 122 436 L 122 145 C 122 112 131 87 150 69 C 168 51 194 42 227 42 C 259 42 287 52 311 73 C 335 93 348 127 348 173 L 348 436 L 412 436 L 412 0 L 349 0 L 349 85 C 339 57 321 35 295 17 C 269 0 239 -9 203 -9 C 161 -9 126 3 99 28 C 71 52 58 88 58 134 L 58 436 Z M 235 499 L 235 499 Z M 78 499 L 160 650 L 230 650 L 137 499 L 78 499 Z M 241 499 L 324 650 L 394 650 L 300 499 L 241 499 Z" unicode="ű" />
<glyph horiz-adv-x="668" d="M 83 0 L 83 0 Z M 585 730 L 585 248 C 585 206 578 168 565 136 C 551 104 533 77 511 55 C 488 33 461 17 431 6 C 400 -4 367 -10 332 -10 C 298 -10 265 -4 235 6 C 205 16 178 32 156 54 C 133 75 115 102 102 134 C 89 166 83 204 83 248 L 83 730 L 151 730 L 151 242 C 151 212 155 185 165 162 C 175 138 188 118 204 102 C 220 86 239 73 261 65 C 283 57 307 53 332 53 C 357 53 381 57 403 65 C 425 73 445 84 462 100 C 478 116 492 135 502 159 C 512 183 517 210 517 242 L 517 730 L 585 730 Z M 378 -10 L 378 -10 Z M 483 -110 L 503 -137 C 484 -156 462 -171 438 -181 C 413 -191 386 -197 357 -197 C 325 -197 299 -189 281 -175 C 262 -161 253 -142 253 -120 C 253 -96 264 -73 287 -52 C 309 -30 343 -12 387 4 L 421 3 C 387 -11 359 -27 339 -43 C 319 -59 309 -77 309 -95 C 309 -111 315 -124 328 -134 C 341 -143 357 -148 377 -148 C 399 -148 419 -144 438 -137 C 456 -130 471 -121 483 -110 Z" unicode="Ų" />
<glyph horiz-adv-x="474" d="M 58 0 L 58 0 Z M 58 436 L 122 436 L 122 145 C 122 112 131 87 150 69 C 168 51 194 42 227 42 C 259 42 287 52 311 73 C 335 93 348 127 348 173 L 348 436 L 412 436 L 412 0 L 349 0 L 349 85 C 339 57 321 35 295 17 C 269 0 239 -9 203 -9 C 161 -9 126 3 99 28 C 71 52 58 88 58 134 L 58 436 Z M 345 -10 L 345 -10 Z M 450 -110 L 470 -137 C 451 -156 429 -171 405 -181 C 380 -191 353 -197 324 -197 C 292 -197 266 -189 248 -175 C 229 -161 220 -142 220 -120 C 220 -96 231 -73 254 -52 C 276 -30 310 -12 354 4 L 388 3 C 354 -11 326 -27 306 -43 C 286 -59 276 -77 276 -95 C 276 -111 282 -124 295 -134 C 308 -143 324 -148 344 -148 C 366 -148 386 -144 405 -137 C 423 -130 438 -121 450 -110 Z" unicode="ų" />
<glyph horiz-adv-x="836" d="M 8 0 L 8 0 Z M 824 730 L 624 -7 L 582 -7 L 417 596 L 247 -7 L 205 -7 L 8 730 L 77 730 L 230 137 L 397 730 L 441 730 L 605 136 L 760 730 L 824 730 Z M 419 794 L 419 794 Z M 565 794 L 506 794 L 419 918 L 331 794 L 274 794 L 388 964 L 451 964 L 565 794 Z" unicode="Ŵ" />
<glyph horiz-adv-x="615" d="M 7 0 L 7 0 Z M 422 -2 L 309 305 L 193 -2 L 150 -2 L 7 436 L 72 436 L 178 92 L 291 396 L 332 396 L 441 92 L 548 436 L 608 436 L 464 -2 L 422 -2 Z M 309 500 L 309 500 Z M 455 500 L 396 500 L 309 624 L 221 500 L 164 500 L 278 670 L 341 670 L 455 500 Z" unicode="ŵ" />
<glyph horiz-adv-x="554" d="M 3 0 L 3 0 Z M 570 730 L 319 314 L 319 0 L 249 0 L 249 316 L 3 730 L 80 730 L 288 382 L 496 730 L 570 730 Z M 287 794 L 287 794 Z M 433 794 L 374 794 L 287 918 L 199 794 L 142 794 L 256 964 L 319 964 L 433 794 Z" unicode="Ŷ" />
<glyph horiz-adv-x="410" d="M 0 0 L 0 0 Z M 409 436 L 184 -99 C 166 -139 146 -165 123 -179 C 99 -193 77 -200 56 -200 C 44 -200 33 -198 24 -196 C 14 -194 7 -192 3 -190 L 21 -132 C 23 -133 28 -135 36 -137 C 43 -139 51 -141 59 -141 C 72 -141 85 -135 98 -125 C 111 -115 123 -96 135 -70 L 175 28 L 0 436 L 69 436 L 207 100 L 344 436 L 409 436 Z M 206 500 L 206 500 Z M 352 500 L 293 500 L 206 624 L 118 500 L 61 500 L 175 670 L 238 670 L 352 500 Z" unicode="ŷ" />
<glyph horiz-adv-x="573" d="M 3 0 L 3 0 Z M 570 730 L 319 314 L 319 0 L 249 0 L 249 316 L 3 730 L 80 730 L 288 382 L 496 730 L 570 730 Z M 287 794 L 287 794 Z M 395 794 L 340 794 L 340 950 L 395 950 L 395 794 Z M 230 794 L 175 794 L 175 950 L 230 950 L 230 794 Z" unicode="Ÿ" />
<glyph horiz-adv-x="511" d="M 17 0 L 17 0 Z M 490 730 L 490 698 L 110 63 L 504 63 L 504 0 L 17 0 L 17 30 L 397 667 L 53 667 L 53 730 L 490 730 Z M 268 793 L 268 793 Z M 181 793 L 279 960 L 355 960 L 246 793 L 181 793 Z" unicode="Ź" />
<glyph horiz-adv-x="354" d="M 12 0 L 12 0 Z M 334 436 L 334 405 L 104 56 L 341 56 L 341 0 L 12 0 L 12 23 L 248 380 L 27 380 L 27 436 L 334 436 Z M 181 499 L 181 499 Z M 94 499 L 192 666 L 268 666 L 159 499 L 94 499 Z" unicode="ź" />
<glyph horiz-adv-x="511" d="M 17 0 L 17 0 Z M 490 730 L 490 698 L 110 63 L 504 63 L 504 0 L 17 0 L 17 30 L 397 667 L 53 667 L 53 730 L 490 730 Z M 268 799 L 268 799 Z M 298 799 L 238 799 L 238 943 L 298 943 L 298 799 Z" unicode="Ż" />
<glyph horiz-adv-x="354" d="M 12 0 L 12 0 Z M 334 436 L 334 405 L 104 56 L 341 56 L 341 0 L 12 0 L 12 23 L 248 380 L 27 380 L 27 436 L 334 436 Z M 181 505 L 181 505 Z M 211 505 L 151 505 L 151 649 L 211 649 L 211 505 Z" unicode="ż" />
<glyph horiz-adv-x="526" d="M 17 0 L 17 0 Z M 490 730 L 490 698 L 110 63 L 504 63 L 504 0 L 17 0 L 17 30 L 397 667 L 53 667 L 53 730 L 490 730 Z M 268 794 L 268 794 Z M 123 964 L 182 964 L 269 839 L 357 964 L 414 964 L 300 794 L 237 794 L 123 964 Z" unicode="Ž" />
<glyph horiz-adv-x="354" d="M 12 0 L 12 0 Z M 334 436 L 334 405 L 104 56 L 341 56 L 341 0 L 12 0 L 12 23 L 248 380 L 27 380 L 27 436 L 334 436 Z M 181 500 L 181 500 Z M 36 670 L 95 670 L 182 545 L 270 670 L 327 670 L 213 500 L 150 500 L 36 670 Z" unicode="ž" />
<glyph horiz-adv-x="343" d="M 167 -68 C 164 -100 151 -126 129 -147 C 106 -168 79 -179 47 -179 C 31 -179 16 -177 2 -175 C -11 -173 -22 -170 -29 -168 L -22 -120 C -17 -120 -10 -121 -1 -123 C 8 -125 17 -126 26 -126 C 46 -126 65 -118 81 -104 C 97 -90 106 -70 109 -44 L 144 341 L 50 341 L 50 396 L 149 396 L 170 635 C 172 668 185 693 208 711 C 231 729 254 738 277 738 C 289 738 300 737 311 736 C 321 735 328 734 331 734 L 325 676 C 323 676 319 677 313 678 C 307 678 301 679 295 679 C 276 679 260 672 248 660 C 235 647 228 627 226 601 L 208 396 L 314 396 L 314 341 L 203 341 L 167 -68 Z" unicode="ƒ" />
<glyph horiz-adv-x="460" d="M 26 0 L 26 0 Z M 239 -10 C 194 -10 153 -2 117 13 C 81 28 50 50 26 80 L 66 131 C 86 104 111 84 142 70 C 173 56 204 50 235 50 C 271 50 301 61 327 85 C 353 108 366 139 366 177 C 366 211 355 240 335 265 C 315 290 278 316 225 343 C 167 371 122 401 92 433 C 62 465 47 509 47 566 C 47 618 64 660 98 692 C 132 724 176 740 230 740 C 268 740 302 733 332 721 C 361 708 387 692 410 672 L 374 619 C 355 636 334 650 310 661 C 286 672 260 678 234 678 C 198 678 169 667 147 645 C 125 623 114 596 114 564 C 114 528 124 500 145 478 C 166 456 206 430 265 402 C 327 371 371 338 396 304 C 420 269 433 227 433 179 C 433 149 427 123 417 100 C 406 76 392 56 375 40 C 357 24 337 11 313 3 C 289 -5 265 -10 239 -10 Z M 214 -73 L 214 -73 Z M 293 -73 C 287 -115 274 -158 254 -201 C 234 -244 210 -280 183 -310 L 134 -287 C 148 -268 165 -239 185 -199 C 204 -159 217 -117 224 -73 L 293 -73 Z" unicode="Ș" />
<glyph horiz-adv-x="349" d="M 29 0 L 29 0 Z M 184 -9 C 148 -9 118 -3 92 6 C 66 16 45 31 29 50 L 62 94 C 75 78 92 66 113 57 C 134 48 157 44 182 44 C 202 44 221 50 237 62 C 253 74 262 92 262 115 C 262 133 254 149 238 162 C 222 174 196 188 158 203 C 117 218 87 235 68 254 C 48 273 39 299 39 331 C 39 365 52 392 78 414 C 104 435 136 446 174 446 C 204 446 230 441 253 431 C 275 421 293 411 307 401 L 274 359 C 264 367 250 374 232 382 C 214 389 195 393 175 393 C 155 393 137 388 121 378 C 105 368 97 354 97 336 C 97 320 102 306 114 296 C 125 285 150 272 189 257 C 235 239 268 221 288 201 C 308 181 319 153 319 119 C 319 79 305 47 279 25 C 252 2 220 -9 184 -9 Z M 164 -74 L 164 -74 Z M 243 -74 C 237 -116 224 -159 204 -202 C 184 -245 160 -281 133 -311 L 84 -288 C 98 -269 115 -240 135 -200 C 154 -160 167 -118 174 -74 L 243 -74 Z" unicode="ș" />
<glyph horiz-adv-x="467" d="M 9 0 L 9 0 Z M 458 667 L 266 667 L 266 0 L 196 0 L 196 667 L 9 667 L 9 730 L 458 730 L 458 667 Z M 207 -70 L 207 -70 Z M 286 -70 C 280 -112 267 -155 247 -198 C 227 -241 203 -277 176 -307 L 127 -284 C 141 -265 158 -236 178 -196 C 197 -156 210 -114 217 -70 L 286 -70 Z" unicode="Ț" />
<glyph horiz-adv-x="226" d="M 12 0 L 12 0 Z M 213 55 L 217 2 C 214 0 208 -1 200 -3 C 191 -4 182 -5 172 -5 C 160 -5 148 -3 136 0 C 124 2 113 7 103 15 C 93 22 84 32 78 45 C 72 57 69 73 69 93 L 69 379 L 12 379 L 12 436 L 69 436 L 69 542 L 133 551 L 133 436 L 210 436 L 210 379 L 133 379 L 133 99 C 133 81 138 68 148 61 C 158 53 170 50 186 50 C 190 50 195 50 201 52 C 207 53 211 54 213 55 Z M 112 -70 L 112 -70 Z M 191 -70 C 185 -112 172 -155 152 -198 C 132 -241 108 -277 81 -307 L 32 -284 C 46 -265 63 -236 83 -196 C 102 -156 115 -114 122 -70 L 191 -70 Z" unicode="ț" />
<glyph horiz-adv-x="192" d="M 129 436 L 129 -88 C 129 -121 119 -148 100 -170 C 80 -191 55 -202 25 -202 C 17 -202 9 -201 0 -199 C -10 -197 -17 -196 -21 -195 L -15 -142 C -12 -142 -8 -143 -4 -144 C 0 -144 5 -145 10 -145 C 24 -145 36 -139 48 -129 C 59 -118 65 -102 65 -80 L 65 436 L 129 436 Z" unicode="ȷ" />
<glyph horiz-adv-x="500" d="M 396 500 L 337 500 L 250 624 L 162 500 L 105 500 L 219 670 L 282 670 L 396 500 Z" unicode="ˆ" />
<glyph horiz-adv-x="500" d="M 105 670 L 164 670 L 251 545 L 339 670 L 396 670 L 282 500 L 219 500 L 105 670 Z" unicode="ˇ" />
<glyph horiz-adv-x="500" d="M 334 662 L 389 662 C 385 608 370 568 345 544 C 319 519 288 507 250 507 C 212 507 180 519 155 544 C 129 568 115 608 111 662 L 166 662 C 168 628 176 601 189 579 C 201 557 222 547 250 547 C 278 547 298 557 311 578 C 324 599 332 627 334 662 Z" unicode="˘" />
<glyph horiz-adv-x="500" d="M 280 505 L 220 505 L 220 649 L 280 649 L 280 505 Z" unicode="˙" />
<glyph horiz-adv-x="500" d="M 250 497 C 219 497 193 507 172 529 C 150 550 140 576 140 607 C 140 637 150 663 172 685 C 193 707 219 718 250 718 C 280 718 306 707 328 685 C 350 663 361 637 361 607 C 361 576 350 550 328 529 C 306 507 280 497 250 497 Z M 250 535 C 270 535 286 542 300 556 C 313 570 320 587 320 607 C 320 627 313 645 300 659 C 286 673 270 680 250 680 C 230 680 214 673 200 659 C 186 645 180 627 180 607 C 180 587 186 570 200 556 C 214 542 230 535 250 535 Z" unicode="˚" />
<glyph horiz-adv-x="500" d="M 359 -100 L 379 -127 C 360 -146 338 -161 314 -171 C 289 -181 262 -187 233 -187 C 201 -187 175 -179 157 -165 C 138 -151 129 -132 129 -110 C 129 -86 140 -63 163 -42 C 185 -20 219 -2 263 14 L 297 13 C 263 -1 235 -17 215 -33 C 195 -49 185 -67 185 -85 C 185 -101 191 -114 204 -124 C 217 -133 233 -138 253 -138 C 275 -138 295 -134 314 -127 C 332 -120 347 -111 359 -100 Z" unicode="˛" />
<glyph horiz-adv-x="500" d="M 353 636 L 401 636 C 401 592 395 560 383 539 C 371 518 355 508 336 508 C 317 508 301 512 288 521 C 274 529 263 538 253 547 C 242 555 231 563 221 571 C 211 579 200 583 190 583 C 180 583 171 576 163 564 C 155 552 151 534 151 512 L 102 512 C 102 555 109 587 125 608 C 141 629 158 640 177 640 C 193 640 208 635 220 627 C 232 618 244 609 256 599 C 266 590 276 582 286 574 C 296 566 306 563 317 563 C 326 563 334 569 342 582 C 349 595 353 613 353 636 Z" unicode="˜" />
<glyph horiz-adv-x="500" d="M 103 499 L 185 650 L 255 650 L 162 499 L 103 499 Z M 266 499 L 349 650 L 419 650 L 325 499 L 266 499 Z" unicode="˝" />
<glyph horiz-adv-x="0" d="M 0 499 L 0 499 Z M 87 499 L 23 499 L -87 666 L -11 666 L 87 499 Z" unicode="̀" />
<glyph horiz-adv-x="0" d="M 0 499 L 0 499 Z M -87 499 L 11 666 L 87 666 L -22 499 L -87 499 Z" unicode="́" />
<glyph horiz-adv-x="0" d="M 0 500 L 0 500 Z M 146 500 L 87 500 L 0 624 L -88 500 L -145 500 L -31 670 L 32 670 L 146 500 Z" unicode="̂" />
<glyph horiz-adv-x="0" d="M 0 508 L 0 508 Z M 102 636 L 150 636 C 150 592 144 560 132 539 C 120 518 104 508 85 508 C 66 508 50 512 37 521 C 23 529 12 538 2 547 C -8 555 -19 563 -29 571 C -39 579 -50 583 -61 583 C -71 583 -79 576 -87 564 C -95 552 -99 534 -100 512 L -149 512 C -149 555 -141 587 -125 608 C -109 629 -92 640 -74 640 C -57 640 -42 635 -30 627 C -18 618 -6 609 5 599 C 15 590 25 582 35 574 C 45 566 55 563 66 563 C 75 563 83 569 91 582 C 98 595 102 613 102 636 Z" unicode="̃" />
<glyph horiz-adv-x="0" d="M 0 530 L 0 530 Z M 121 530 L -121 530 L -121 578 L 121 578 L 121 530 Z" unicode="̄" />
<glyph horiz-adv-x="0" d="M 0 507 L 0 507 Z M 84 662 L 139 662 C 135 608 120 568 95 544 C 69 519 38 507 0 507 C -38 507 -69 519 -95 544 C -120 568 -135 608 -139 662 L -84 662 C -81 628 -73 601 -61 579 C -48 557 -28 547 0 547 C 28 547 48 557 61 578 C 74 599 82 627 84 662 Z" unicode="̆" />
<glyph horiz-adv-x="0" d="M 0 505 L 0 505 Z M 30 505 L -30 505 L -30 649 L 30 649 L 30 505 Z" unicode="̇" />
<glyph horiz-adv-x="0" d="M 0 500 L 0 500 Z M 108 500 L 53 500 L 53 656 L 108 656 L 108 500 Z M -57 500 L -112 500 L -112 656 L -57 656 L -57 500 Z" unicode="̈" />
<glyph horiz-adv-x="0" d="M 0 497 L 0 497 Z M 0 497 C -30 497 -56 507 -78 529 C -99 550 -110 576 -110 607 C -110 637 -99 663 -78 685 C -56 707 -30 718 0 718 C 30 718 56 707 78 685 C 100 663 111 637 111 607 C 111 576 100 550 78 529 C 56 507 30 497 0 497 Z M 0 535 C 20 535 36 542 50 556 C 63 570 70 587 70 607 C 70 627 63 645 50 659 C 36 673 20 680 0 680 C -19 680 -35 673 -49 659 C -63 645 -70 627 -70 607 C -70 587 -63 570 -49 556 C -35 542 -19 535 0 535 Z" unicode="̊" />
<glyph horiz-adv-x="0" d="M 0 499 L 0 499 Z M -157 499 L -75 650 L -5 650 L -98 499 L -157 499 Z M 6 499 L 89 650 L 159 650 L 65 499 L 6 499 Z" unicode="̋" />
<glyph horiz-adv-x="0" d="M 0 500 L 0 500 Z M -145 670 L -86 670 L 1 545 L 89 670 L 146 670 L 32 500 L -31 500 L -145 670 Z" unicode="̌" />
<glyph horiz-adv-x="0" d="M 0 -70 L 0 -70 Z M 79 -70 C 73 -112 60 -155 40 -198 C 20 -241 -3 -277 -31 -307 L -80 -284 C -65 -265 -48 -236 -29 -196 C -9 -156 3 -114 10 -70 L 79 -70 Z" unicode="̦" />
<glyph horiz-adv-x="0" d="M 0 0 L 0 0 Z M 8 -184 C -14 -184 -37 -181 -60 -175 C -82 -169 -100 -161 -114 -152 L -105 -122 C -95 -128 -81 -134 -65 -140 C -48 -146 -30 -150 -11 -150 C 5 -150 20 -146 33 -138 C 46 -130 53 -119 53 -106 C 53 -91 47 -81 36 -75 C 24 -69 12 -66 0 -66 C -9 -66 -17 -66 -23 -68 C -29 -69 -36 -71 -45 -74 L -57 -61 L 0 9 L 41 9 L -8 -53 C 25 -44 53 -46 77 -58 C 101 -70 113 -88 113 -112 C 113 -135 102 -153 82 -165 C 61 -177 36 -184 8 -184 Z" unicode="̧" />
<glyph horiz-adv-x="0" d="M 0 0 L 0 0 Z M 105 -100 L 125 -127 C 106 -146 84 -161 60 -171 C 35 -181 8 -187 -21 -187 C -53 -187 -78 -179 -97 -165 C -115 -151 -125 -132 -125 -110 C -125 -86 -113 -63 -91 -42 C -68 -20 -35 -2 9 14 L 43 13 C 9 -1 -18 -17 -38 -33 C -58 -49 -69 -67 -69 -85 C -69 -101 -62 -114 -49 -124 C -36 -133 -20 -138 -1 -138 C 21 -138 41 -134 60 -127 C 78 -120 93 -111 105 -100 Z" unicode="̨" />
<glyph horiz-adv-x="563" d="M 2 0 L 2 0 Z M 600 0 L 2 0 L 289 730 L 314 730 L 600 0 Z M 511 54 L 299 608 L 89 54 L 511 54 Z" unicode="Δ" />
<glyph horiz-adv-x="724" d="M 43 0 L 43 0 Z M 52 0 L 52 60 L 265 60 L 265 145 C 230 157 199 174 171 195 C 143 216 120 240 101 266 C 82 292 68 320 58 350 C 48 380 43 410 43 441 C 43 483 50 523 66 560 C 81 597 103 629 131 657 C 159 684 192 705 232 721 C 272 737 316 745 365 745 C 415 745 461 737 502 721 C 543 705 578 683 606 656 C 634 628 656 596 672 559 C 687 522 695 483 695 441 C 695 409 690 379 680 349 C 670 319 656 291 638 265 C 619 239 596 216 568 195 C 540 174 509 157 473 145 L 473 60 L 686 60 L 686 0 L 417 0 L 417 178 C 449 189 478 204 504 223 C 530 241 551 262 569 285 C 587 307 600 332 610 358 C 619 384 624 411 624 438 C 624 474 617 508 605 539 C 592 570 574 597 552 619 C 529 641 502 658 470 671 C 438 683 403 690 365 690 C 328 690 294 683 263 671 C 232 658 206 640 184 618 C 162 596 144 569 132 538 C 120 507 114 473 114 436 C 114 410 118 384 128 358 C 137 332 150 308 168 286 C 185 263 207 242 233 224 C 259 205 288 190 321 178 L 321 0 L 52 0 Z" unicode="Ω" />
<glyph horiz-adv-x="594" d="M 78 0 L 78 0 Z M 78 -114 L 78 453 L 142 453 L 142 152 C 142 118 154 91 178 71 C 202 51 232 42 268 42 C 286 42 303 44 321 50 C 339 56 354 64 368 76 C 382 88 393 102 402 120 C 410 138 415 159 415 183 L 415 453 L 478 453 L 478 0 L 419 0 L 419 107 C 409 75 389 48 359 26 C 329 4 295 -7 257 -8 C 229 -8 204 -3 182 9 C 160 21 145 37 137 59 L 137 -114 L 78 -114 Z" unicode="μ" />
<glyph horiz-adv-x="576" d="M 160 443 L 160 0 L 95 0 L 95 443 L 15 443 L 15 495 L 561 495 L 561 443 L 475 443 L 475 0 L 410 0 L 410 443 L 160 443 Z" unicode="π" />
<glyph horiz-adv-x="836" d="M 8 0 L 8 0 Z M 824 730 L 624 -7 L 582 -7 L 417 596 L 247 -7 L 205 -7 L 8 730 L 77 730 L 230 137 L 397 730 L 441 730 L 605 136 L 760 730 L 824 730 Z M 419 793 L 419 793 Z M 506 793 L 442 793 L 332 960 L 408 960 L 506 793 Z" unicode="Ẁ" />
<glyph horiz-adv-x="615" d="M 7 0 L 7 0 Z M 422 -2 L 309 305 L 193 -2 L 150 -2 L 7 436 L 72 436 L 178 92 L 291 396 L 332 396 L 441 92 L 548 436 L 608 436 L 464 -2 L 422 -2 Z M 309 499 L 309 499 Z M 396 499 L 332 499 L 222 666 L 298 666 L 396 499 Z" unicode="ẁ" />
<glyph horiz-adv-x="836" d="M 8 0 L 8 0 Z M 824 730 L 624 -7 L 582 -7 L 417 596 L 247 -7 L 205 -7 L 8 730 L 77 730 L 230 137 L 397 730 L 441 730 L 605 136 L 760 730 L 824 730 Z M 419 793 L 419 793 Z M 332 793 L 430 960 L 506 960 L 397 793 L 332 793 Z" unicode="Ẃ" />
<glyph horiz-adv-x="615" d="M 7 0 L 7 0 Z M 422 -2 L 309 305 L 193 -2 L 150 -2 L 7 436 L 72 436 L 178 92 L 291 396 L 332 396 L 441 92 L 548 436 L 608 436 L 464 -2 L 422 -2 Z M 309 499 L 309 499 Z M 222 499 L 320 666 L 396 666 L 287 499 L 222 499 Z" unicode="ẃ" />
<glyph horiz-adv-x="836" d="M 8 0 L 8 0 Z M 824 730 L 624 -7 L 582 -7 L 417 596 L 247 -7 L 205 -7 L 8 730 L 77 730 L 230 137 L 397 730 L 441 730 L 605 136 L 760 730 L 824 730 Z M 419 794 L 419 794 Z M 527 794 L 472 794 L 472 950 L 527 950 L 527 794 Z M 362 794 L 307 794 L 307 950 L 362 950 L 362 794 Z" unicode="Ẅ" />
<glyph horiz-adv-x="615" d="M 7 0 L 7 0 Z M 422 -2 L 309 305 L 193 -2 L 150 -2 L 7 436 L 72 436 L 178 92 L 291 396 L 332 396 L 441 92 L 548 436 L 608 436 L 464 -2 L 422 -2 Z M 309 500 L 309 500 Z M 417 500 L 362 500 L 362 656 L 417 656 L 417 500 Z M 252 500 L 197 500 L 197 656 L 252 656 L 252 500 Z" unicode="ẅ" />
<glyph horiz-adv-x="554" d="M 3 0 L 3 0 Z M 570 730 L 319 314 L 319 0 L 249 0 L 249 316 L 3 730 L 80 730 L 288 382 L 496 730 L 570 730 Z M 287 793 L 287 793 Z M 374 793 L 310 793 L 200 960 L 276 960 L 374 793 Z" unicode="Ỳ" />
<glyph horiz-adv-x="410" d="M 0 0 L 0 0 Z M 409 436 L 184 -99 C 166 -139 146 -165 123 -179 C 99 -193 77 -200 56 -200 C 44 -200 33 -198 24 -196 C 14 -194 7 -192 3 -190 L 21 -132 C 23 -133 28 -135 36 -137 C 43 -139 51 -141 59 -141 C 72 -141 85 -135 98 -125 C 111 -115 123 -96 135 -70 L 175 28 L 0 436 L 69 436 L 207 100 L 344 436 L 409 436 Z M 206 499 L 206 499 Z M 293 499 L 229 499 L 119 666 L 195 666 L 293 499 Z" unicode="ỳ" />
<glyph horiz-adv-x="460" d="M 418 228 L 42 228 L 42 285 L 418 285 L 418 228 Z" unicode="–" />
<glyph horiz-adv-x="645" d="M 603 228 L 42 228 L 42 285 L 603 285 L 603 228 Z" unicode="—" />
<glyph horiz-adv-x="232" d="M 38 507 L 38 514 C 38 554 47 593 67 631 C 86 669 113 704 149 737 L 212 731 C 202 722 190 710 178 696 C 166 682 154 665 144 647 C 134 628 125 607 118 585 C 110 563 107 539 107 515 L 107 507 L 38 507 Z" unicode="‘" />
<glyph horiz-adv-x="232" d="M 194 737 L 194 730 C 194 690 184 652 164 614 C 144 576 117 540 83 507 L 20 513 C 30 523 41 535 53 550 C 65 564 76 581 87 599 C 97 617 106 637 113 659 C 120 681 124 704 124 729 L 124 737 L 194 737 Z" unicode="’" />
<glyph horiz-adv-x="232" d="M 193 108 L 193 101 C 193 61 183 23 163 -14 C 143 -52 116 -88 82 -122 L 19 -116 C 29 -106 40 -93 52 -79 C 64 -64 76 -48 86 -30 C 96 -12 105 8 113 30 C 120 52 124 75 124 100 L 124 108 L 193 108 Z" unicode="‚" />
<glyph horiz-adv-x="388" d="M 202 507 L 202 514 C 202 550 211 587 230 624 C 248 661 276 699 314 737 L 374 731 C 364 722 353 710 341 696 C 328 682 316 665 305 647 C 294 628 285 607 277 585 C 269 563 266 539 266 515 L 266 507 L 202 507 Z M 39 507 L 39 514 C 39 550 48 587 68 624 C 88 661 116 699 152 737 L 211 731 C 202 723 191 711 179 697 C 167 683 155 666 144 648 C 132 629 123 608 115 586 C 107 563 103 539 103 515 L 103 507 L 39 507 Z" unicode="“" />
<glyph horiz-adv-x="388" d="M 186 737 L 186 730 C 186 690 177 652 160 616 C 142 579 115 543 79 507 L 19 513 C 30 523 42 536 54 551 C 66 565 77 582 87 600 C 97 618 105 637 112 659 C 118 681 122 704 122 729 L 122 737 L 186 737 Z M 349 737 L 349 730 C 349 690 339 652 321 615 C 303 577 276 541 242 507 L 182 513 C 193 523 205 536 217 551 C 229 565 241 582 251 600 C 261 618 269 637 275 659 C 281 681 285 704 285 729 L 285 737 L 349 737 Z" unicode="”" />
<glyph horiz-adv-x="389" d="M 186 110 L 186 103 C 186 63 177 25 160 -11 C 142 -47 115 -84 79 -120 L 19 -114 C 30 -103 42 -90 54 -76 C 66 -61 77 -45 87 -27 C 97 -9 105 10 111 32 C 117 54 121 77 121 102 L 121 110 L 186 110 Z M 350 110 L 350 103 C 350 63 341 25 323 -12 C 305 -49 278 -85 243 -120 L 184 -114 C 195 -103 207 -90 219 -76 C 231 -61 242 -45 252 -27 C 262 -9 270 10 276 32 C 282 54 286 77 286 102 L 286 110 L 350 110 Z" unicode="„" />
<glyph horiz-adv-x="507" d="M 485 406 L 285 406 L 285 -179 L 217 -179 L 217 406 L 23 406 L 23 470 L 217 470 L 217 730 L 285 730 L 285 470 L 485 470 L 485 406 Z" unicode="†" />
<glyph horiz-adv-x="509" d="M 218 -179 L 218 126 L 27 126 L 27 190 L 218 190 L 218 390 L 27 390 L 27 454 L 218 454 L 218 730 L 286 730 L 286 454 L 483 454 L 483 390 L 286 390 L 286 190 L 483 190 L 483 126 L 286 126 L 286 -179 L 218 -179 Z" unicode="‡" />
<glyph horiz-adv-x="382" d="M 191 442 C 208 442 223 435 235 423 C 247 411 254 396 254 379 C 254 361 247 347 235 335 C 223 323 208 317 191 317 C 173 317 159 323 147 335 C 135 347 129 361 129 379 C 129 396 135 411 147 423 C 159 435 173 442 191 442 Z" unicode="•" />
<glyph horiz-adv-x="632" d="M 72 0 L 72 110 L 139 110 L 139 0 L 72 0 Z M 283 0 L 283 110 L 349 110 L 349 0 L 283 0 Z M 493 0 L 493 110 L 560 110 L 560 0 L 493 0 Z" unicode="…" />
<glyph horiz-adv-x="1046" d="M 186 364 C 168 364 151 367 134 375 C 117 383 102 394 88 410 C 74 426 63 445 55 469 C 47 493 43 520 43 552 C 43 578 46 602 54 625 C 61 648 71 668 84 685 C 96 702 111 716 129 726 C 147 736 166 741 186 741 C 208 741 228 736 246 726 C 264 716 279 702 292 686 C 304 669 314 649 321 627 C 327 604 331 580 331 555 C 331 528 327 503 320 480 C 312 456 302 436 290 419 C 277 401 262 388 244 378 C 226 368 206 364 186 364 Z M 118 0 L 540 730 L 589 730 L 167 0 L 118 0 Z M 102 551 C 102 511 109 479 125 453 C 140 427 160 414 185 414 C 215 414 237 427 251 454 C 265 481 273 513 273 551 C 273 587 266 620 252 648 C 238 676 217 690 188 690 C 159 690 137 676 123 648 C 109 620 102 588 102 551 Z M 533 -3 C 515 -3 498 0 481 8 C 464 16 449 27 436 43 C 422 59 411 78 403 102 C 395 126 391 153 391 185 C 391 211 394 235 402 258 C 409 281 419 301 432 318 C 444 335 459 349 477 359 C 495 369 514 374 536 374 C 558 374 577 369 595 359 C 613 349 628 335 640 319 C 652 302 662 282 669 260 C 675 237 679 213 679 188 C 679 161 675 136 668 113 C 661 89 651 69 639 52 C 626 34 610 21 592 11 C 574 1 554 -3 533 -3 Z M 857 -3 C 839 -3 822 0 805 8 C 788 16 773 27 760 43 C 746 59 735 78 727 102 C 719 126 715 153 715 185 C 715 211 718 235 726 258 C 733 281 743 301 756 318 C 768 335 783 349 801 359 C 819 369 838 374 860 374 C 882 374 901 369 919 359 C 937 349 952 335 964 319 C 976 302 986 282 993 260 C 999 237 1003 213 1003 188 C 1003 161 999 136 992 113 C 985 89 975 69 963 52 C 950 34 934 21 916 11 C 898 1 878 -3 857 -3 Z M 533 48 C 562 48 584 61 599 88 C 614 114 622 147 622 185 C 622 222 614 254 600 282 C 586 310 564 324 536 324 C 509 324 488 310 473 283 C 457 255 450 223 450 185 C 450 145 457 112 473 86 C 488 60 508 48 533 48 Z M 857 48 C 886 48 908 61 923 88 C 938 114 946 147 946 185 C 946 222 939 254 925 282 C 911 310 889 324 860 324 C 832 324 811 310 796 283 C 780 255 773 223 773 185 C 773 145 780 112 796 86 C 812 60 832 48 857 48 Z" unicode="‰" />
<glyph horiz-adv-x="227" d="M 197 95 L 29 260 L 29 305 L 197 468 L 197 400 L 86 281 L 197 166 L 197 95 Z" unicode="‹" />
<glyph horiz-adv-x="228" d="M 30 468 L 199 303 L 199 258 L 30 95 L 30 163 L 141 282 L 30 397 L 30 468 Z" unicode="›" />
<glyph horiz-adv-x="145" d="M 299 730 L -87 0 L -145 0 L 241 730 L 299 730 Z" unicode="⁄" />
<glyph horiz-adv-x="324" d="M 16 460 L 16 500 L 209 740 L 248 740 L 248 503 L 313 503 L 313 460 L 248 460 L 248 373 L 194 373 L 194 460 L 16 460 Z M 66 497 L 195 497 L 195 662 L 66 497 Z" unicode="⁴" />
<glyph horiz-adv-x="534" d="M 523 118 C 503 80 476 49 440 25 C 404 0 364 -12 320 -12 C 262 -12 211 13 167 63 C 123 113 94 182 82 270 L 38 270 L 38 323 L 77 323 C 76 329 76 336 76 343 C 76 349 76 356 76 363 C 76 368 76 373 76 379 C 76 385 76 390 77 395 L 38 395 L 38 447 L 81 447 C 86 489 95 529 109 565 C 122 601 139 633 159 659 C 179 685 202 705 229 720 C 256 734 286 742 319 742 C 370 742 411 730 442 708 C 472 686 496 659 513 627 L 463 597 C 448 623 429 644 407 662 C 385 679 356 688 320 688 C 273 688 234 666 203 624 C 171 581 151 522 143 447 L 463 447 L 463 395 L 139 395 C 138 389 138 384 138 378 C 138 372 138 367 138 362 C 138 355 138 348 138 342 C 138 335 138 329 139 323 L 463 323 L 463 270 L 145 270 C 155 196 177 140 211 101 C 245 61 282 42 322 42 C 357 42 388 52 414 74 C 440 96 460 121 475 150 L 523 118 Z" unicode="€" />
<glyph horiz-adv-x="842" d="M 784 315 L 726 315 L 726 633 L 585 423 L 565 423 L 425 632 L 425 315 L 368 315 L 368 730 L 427 730 L 575 510 L 723 730 L 784 730 L 784 315 Z M 339 667 L 211 667 L 211 315 L 149 315 L 149 667 L 24 667 L 24 730 L 339 730 L 339 667 Z" unicode="™" />
<glyph horiz-adv-x="738" d="M 52 0 L 52 60 L 265 60 L 265 145 C 230 157 199 174 171 195 C 143 216 120 240 101 266 C 82 292 68 320 58 350 C 48 380 43 410 43 441 C 43 483 50 523 66 560 C 81 597 103 629 131 657 C 159 684 192 705 232 721 C 272 737 316 745 365 745 C 415 745 461 737 502 721 C 543 705 578 683 606 656 C 634 628 656 596 672 559 C 687 522 695 483 695 441 C 695 409 690 379 680 349 C 670 319 656 291 638 265 C 619 239 596 216 568 195 C 540 174 509 157 473 145 L 473 60 L 686 60 L 686 0 L 417 0 L 417 178 C 449 189 478 204 504 223 C 530 241 551 262 569 285 C 587 307 600 332 610 358 C 619 384 624 411 624 438 C 624 474 617 508 605 539 C 592 570 574 597 552 619 C 529 641 502 658 470 671 C 438 683 403 690 365 690 C 328 690 294 683 263 671 C 232 658 206 640 184 618 C 162 596 144 569 132 538 C 120 507 114 473 114 436 C 114 410 118 384 128 358 C 137 332 150 308 168 286 C 185 263 207 242 233 224 C 259 205 288 190 321 178 L 321 0 L 52 0 Z" unicode="Ω" />
<glyph horiz-adv-x="504" d="M 461 264 C 461 218 455 177 444 143 C 432 109 417 80 398 58 C 378 36 355 19 329 8 C 303 -3 274 -9 244 -9 C 216 -9 190 -3 164 6 C 138 16 115 31 95 51 C 75 70 60 94 48 122 C 36 150 30 181 30 216 C 30 248 35 278 46 306 C 56 334 71 359 89 380 C 107 401 129 418 155 430 C 180 442 207 448 237 448 C 277 448 311 437 341 416 C 371 394 392 367 406 334 C 400 410 386 476 366 530 C 346 584 322 628 295 662 C 267 696 238 722 208 738 C 177 754 149 762 123 763 L 153 802 C 180 802 211 792 247 773 C 283 754 316 723 348 681 C 379 639 406 583 428 515 C 450 446 461 362 461 264 Z M 245 37 C 289 37 325 54 353 89 C 380 123 394 169 394 226 C 394 275 380 316 354 350 C 327 384 290 401 243 401 C 200 401 165 384 138 350 C 110 316 97 272 97 220 C 97 162 111 117 139 85 C 167 53 202 37 245 37 Z" unicode="∂" />
<glyph horiz-adv-x="602" d="M 600 0 L 2 0 L 289 730 L 314 730 L 600 0 Z M 511 54 L 299 608 L 89 54 L 511 54 Z" unicode="∆" />
<glyph horiz-adv-x="676" d="M 202 671 L 202 0 L 135 0 L 135 671 L 15 671 L 15 730 L 661 730 L 661 671 L 545 671 L 545 0 L 478 0 L 478 671 L 202 671 Z" unicode="∏" />
<glyph horiz-adv-x="582" d="M 135 671 L 388 307 L 103 -120 L 544 -120 L 544 -179 L -5 -179 L 321 306 L 24 730 L 523 730 L 523 671 L 135 671 Z" unicode="∑" />
<glyph horiz-adv-x="509" d="M 468 305 L 42 305 L 42 358 L 468 358 L 468 305 Z" unicode="−" />
<glyph horiz-adv-x="510" d="M 496 730 L 198 0 L 186 0 L 15 325 L 63 357 L 200 90 L 453 730 L 496 730 Z" unicode="√" />
<glyph horiz-adv-x="327" d="M 112 -45 L 173 635 C 175 668 188 693 210 711 C 232 729 254 738 277 738 C 289 738 300 737 311 736 C 321 735 328 734 331 734 L 325 676 C 323 676 319 677 313 678 C 307 678 301 679 295 679 C 276 679 260 672 248 660 C 235 648 228 628 226 601 L 167 -68 C 164 -100 151 -126 129 -148 C 106 -169 79 -179 47 -179 C 31 -179 16 -177 2 -174 C -11 -170 -21 -167 -28 -164 L -21 -118 C -17 -118 -10 -120 -1 -123 C 8 -125 17 -127 26 -127 C 46 -127 65 -119 82 -105 C 99 -91 109 -71 112 -45 Z" unicode="∫" />
<glyph horiz-adv-x="494" d="M 387 490 L 447 490 C 446 441 439 403 425 376 C 411 349 388 336 357 336 C 335 336 316 341 299 351 C 281 361 266 372 254 385 C 240 397 225 408 209 418 C 193 428 178 433 163 433 C 148 433 133 424 118 408 C 102 392 95 369 95 339 L 43 339 C 43 387 53 424 73 451 C 93 477 117 491 146 491 C 167 491 186 485 202 475 C 218 465 233 454 247 442 C 259 432 273 422 287 413 C 301 403 315 399 331 399 C 350 399 364 406 373 420 C 382 434 387 457 387 490 Z M 389 321 L 447 321 C 446 272 438 234 422 208 C 406 181 382 168 350 168 C 328 168 309 173 293 183 C 277 193 262 204 250 216 C 236 228 222 239 207 248 C 192 257 177 262 163 262 C 148 262 133 254 119 238 C 104 222 97 200 97 171 L 43 171 C 43 219 53 256 73 283 C 93 309 119 323 150 323 C 172 323 192 317 209 307 C 226 297 241 285 254 273 C 266 262 278 252 292 243 C 306 234 320 230 335 230 C 353 230 367 237 376 251 C 384 265 389 288 389 321 Z" unicode="≈" />
<glyph horiz-adv-x="500" d="M 457 186 L 219 186 L 166 78 L 121 98 L 165 186 L 65 186 L 65 243 L 193 243 L 268 394 L 65 394 L 65 449 L 295 449 L 347 554 L 391 535 L 349 449 L 457 449 L 457 394 L 322 394 L 247 243 L 457 243 L 457 186 Z" unicode="≠" />
<glyph horiz-adv-x="500" d="M 62 303 L 62 348 L 433 551 L 433 489 L 125 327 L 433 162 L 433 100 L 62 303 Z M 61 73 L 433 73 L 433 23 L 61 23 L 61 73 Z" unicode="≤" />
<glyph horiz-adv-x="500" d="M 432 303 L 61 100 L 61 162 L 369 327 L 61 489 L 61 551 L 432 348 L 432 303 Z M 433 73 L 433 23 L 61 23 L 61 73 L 433 73 Z" unicode="≥" />
<glyph horiz-adv-x="522" d="M 491 326 L 266 -6 L 256 -6 L 31 326 L 31 337 L 256 668 L 266 668 L 491 337 L 491 326 Z M 429 327 L 429 336 L 266 582 L 257 582 L 94 336 L 94 327 L 257 80 L 266 80 L 429 327 Z" unicode="◊" />
<glyph horiz-adv-x="730" d="M 448 692 L 282 692 L 282 730 L 448 730 L 448 692 Z M 659 282 L 619 282 L 619 448 L 659 448 L 659 282 Z M 111 282 L 71 282 L 71 448 L 111 448 L 111 282 Z M 414 316 L 316 316 L 316 414 L 414 414 L 414 316 Z M 448 0 L 282 0 L 282 39 L 448 39 L 448 0 Z" unicode="" />
<glyph horiz-adv-x="482" d="M 274 385 L 169 385 L 169 0 L 104 0 L 104 385 L 21 385 L 21 436 L 104 436 L 104 572 C 104 605 109 634 119 659 C 129 683 142 704 158 720 C 174 736 192 748 212 756 C 232 764 252 768 272 768 C 287 768 301 766 315 764 C 328 761 338 758 345 754 L 339 700 C 333 702 325 705 315 707 C 304 709 293 711 282 711 C 269 711 256 708 242 702 C 228 696 216 687 205 676 C 194 664 185 650 178 634 C 171 617 168 598 168 577 L 168 436 L 274 436 L 274 385 Z M 419 549 L 351 549 L 351 619 L 419 619 L 419 549 Z M 417 0 L 353 0 L 353 436 L 417 436 L 417 0 Z" unicode="ﬁ" />
<glyph horiz-adv-x="478" d="M 274 385 L 169 385 L 169 0 L 104 0 L 104 385 L 21 385 L 21 436 L 104 436 L 104 550 C 104 583 109 612 119 637 C 129 661 142 682 158 698 C 174 714 192 727 212 735 C 232 743 252 748 272 748 C 287 748 301 746 315 744 C 328 741 338 738 345 735 L 339 681 C 333 683 325 685 315 688 C 304 690 293 692 282 692 C 268 692 255 688 241 682 C 227 676 215 667 205 655 C 194 643 185 628 178 611 C 171 594 168 575 168 555 L 168 436 L 274 436 L 274 385 Z M 414 743 L 414 0 L 349 0 L 349 743 L 414 743 Z" unicode="ﬂ" />
</font>
</defs>
</svg>
