<?xml version="1.0" encoding="utf-8" ?><svg version="1.1" xmlns = 'http://www.w3.org/2000/svg'><defs><font id='web' horiz-adv-x="1000">
<font-face font-family="web" descent="-200" cap-height="730" units-per-em="1000" bbox="-173,-323,955,1034" x-height="490" ascent="800" />
<missing-glyph horiz-adv-x="500" d="" /><glyph horiz-adv-x="180" d="" unicode=" " />
<glyph horiz-adv-x="257" d="M 184 425 L 150 206 L 106 206 L 72 425 L 72 730 L 184 730 L 184 425 Z M 180 0 L 78 0 L 78 112 L 180 112 L 180 0 Z" unicode="!" />
<glyph horiz-adv-x="344" d="M 298 624 L 292 484 L 212 484 L 207 623 L 207 730 L 298 730 L 298 624 Z M 137 623 L 132 484 L 51 484 L 46 623 L 46 730 L 137 730 L 137 623 Z" unicode="&#x22;" />
<glyph horiz-adv-x="546" d="M 499 214 L 390 214 L 371 0 L 307 1 L 326 214 L 194 214 L 175 0 L 111 1 L 130 214 L 30 214 L 30 303 L 138 303 L 148 424 L 48 424 L 48 513 L 156 513 L 175 730 L 239 729 L 220 513 L 352 513 L 371 730 L 435 729 L 416 513 L 517 513 L 517 424 L 408 424 L 398 303 L 499 303 L 499 214 Z M 202 303 L 334 303 L 344 424 L 212 424 L 202 303 Z" unicode="#" />
<glyph horiz-adv-x="459" d="M 426 187 C 426 159 421 135 413 113 C 404 91 392 73 377 57 C 362 41 345 29 325 19 C 305 9 284 2 262 -1 L 262 -130 L 199 -130 L 199 -2 C 163 0 131 9 102 23 C 72 37 45 58 21 87 L 69 158 C 84 135 104 117 128 105 C 152 93 175 86 199 85 L 199 340 C 150 367 112 396 84 428 C 56 459 43 502 43 558 C 43 605 57 644 87 675 C 117 705 154 724 199 731 L 199 793 L 262 793 L 262 732 C 294 729 323 721 347 709 C 371 697 392 681 410 663 L 357 596 C 343 610 328 621 312 629 C 295 637 278 642 262 645 L 262 411 L 267 408 C 325 376 366 344 390 312 C 414 280 426 238 426 187 Z M 140 550 C 140 529 145 511 153 496 C 161 480 176 465 199 449 L 199 639 C 182 632 168 621 157 606 C 145 590 140 572 140 550 Z M 330 192 C 330 214 324 234 314 251 C 304 267 286 284 262 302 L 262 93 C 280 99 296 111 310 127 C 323 143 330 165 330 192 Z" unicode="$" />
<glyph horiz-adv-x="681" d="M 169 363 C 152 363 136 366 120 374 C 104 382 89 393 77 409 C 64 425 54 444 46 468 C 38 492 34 519 34 551 C 34 604 46 649 72 685 C 97 721 129 740 167 740 C 187 740 206 735 224 725 C 241 715 256 701 268 685 C 280 668 290 648 297 626 C 303 603 307 579 307 554 C 307 527 303 502 296 479 C 288 455 278 435 266 418 C 254 400 239 387 223 377 C 206 367 188 363 169 363 Z M 163 0 L 85 0 L 499 730 L 575 730 L 163 0 Z M 169 441 C 191 441 205 452 213 475 C 220 497 224 523 224 551 C 224 577 220 602 213 626 C 205 650 191 662 171 662 C 149 662 135 650 127 627 C 119 604 116 579 116 551 C 116 523 119 498 126 475 C 133 452 147 441 169 441 Z M 508 -3 C 491 -3 474 0 458 8 C 441 16 426 27 413 43 C 400 59 390 78 382 102 C 374 126 370 153 370 185 C 370 238 383 283 409 319 C 435 355 468 374 510 374 C 531 374 550 369 567 359 C 584 349 598 335 610 319 C 622 302 631 282 637 260 C 643 237 647 213 647 188 C 647 161 643 136 637 113 C 630 89 620 69 608 52 C 596 34 581 21 564 11 C 547 1 528 -3 508 -3 Z M 507 76 C 529 76 544 87 552 109 C 560 131 564 156 564 185 C 564 213 560 238 552 262 C 544 285 529 297 509 297 C 489 297 475 285 466 262 C 457 239 453 213 453 185 C 453 156 457 131 465 109 C 473 87 487 76 507 76 Z" unicode="%" />
<glyph horiz-adv-x="634" d="M 559 -6 L 487 72 C 455 45 421 25 383 12 C 345 -1 304 -8 258 -8 C 186 -8 130 8 89 42 C 47 76 27 123 27 183 C 27 243 42 288 72 320 C 102 352 138 380 180 404 L 173 412 C 157 429 140 452 123 480 C 105 508 97 542 97 582 C 97 602 100 621 108 640 C 115 658 126 675 140 689 C 154 703 172 715 194 724 C 215 732 240 737 268 737 C 322 737 365 722 398 694 C 431 665 448 631 448 591 C 448 551 436 515 413 484 C 390 452 359 423 319 395 L 489 214 C 497 226 506 239 515 253 C 524 267 533 282 542 298 L 620 243 C 609 224 598 206 587 190 C 576 174 565 158 555 144 L 631 63 L 559 -6 Z M 249 469 L 264 453 C 294 473 316 491 330 509 C 343 527 350 545 350 565 C 350 586 343 605 330 622 C 316 638 297 647 273 647 C 248 647 230 638 218 621 C 206 603 200 585 200 567 C 200 550 204 534 212 518 C 220 502 232 485 249 469 Z M 137 195 C 137 161 150 133 178 113 C 206 93 238 83 275 83 C 303 83 330 87 354 97 C 378 107 402 121 424 140 L 237 342 C 208 323 184 302 165 280 C 146 257 137 229 137 195 Z" unicode="&#x26;" />
<glyph horiz-adv-x="185" d="M 140 621 L 136 480 L 50 480 L 45 621 L 45 730 L 140 730 L 140 621 Z" unicode="'" />
<glyph horiz-adv-x="294" d="M 274 -99 L 274 -179 C 242 -163 210 -140 180 -112 C 149 -84 122 -50 98 -10 C 74 29 55 74 41 126 C 27 177 20 233 20 293 C 20 349 26 402 39 451 C 52 499 70 543 92 582 C 114 621 141 655 173 683 C 204 711 238 733 274 749 L 274 671 C 225 640 188 593 162 529 C 136 465 122 386 122 293 C 122 206 134 128 158 60 C 182 -7 220 -61 274 -99 Z" unicode="(" />
<glyph horiz-adv-x="294" d="M 20 671 L 20 749 C 54 735 87 714 118 686 C 149 658 176 625 199 586 C 222 546 240 501 254 451 C 267 400 274 345 274 285 C 274 228 267 175 253 126 C 239 76 221 32 198 -6 C 174 -45 147 -79 117 -109 C 86 -138 54 -161 20 -179 L 20 -97 C 72 -60 110 -8 135 57 C 159 123 172 199 172 285 C 172 379 160 459 135 525 C 109 590 71 639 20 671 Z" unicode=")" />
<glyph horiz-adv-x="379" d="M 357 585 L 231 554 L 320 464 L 260 416 L 191 525 L 124 417 L 60 463 L 151 555 L 26 583 L 61 661 L 166 602 L 151 730 L 231 730 L 215 602 L 326 655 L 357 585 Z" unicode="*" />
<glyph horiz-adv-x="469" d="M 446 292 L 276 292 L 276 125 L 194 125 L 194 292 L 24 292 L 24 371 L 194 371 L 194 537 L 276 537 L 276 371 L 446 371 L 446 292 Z" unicode="+" />
<glyph horiz-adv-x="213" d="M 181 106 C 181 83 177 59 171 35 C 165 10 157 -13 148 -36 C 138 -59 128 -80 117 -99 C 105 -118 94 -133 84 -145 L 6 -110 C 13 -100 20 -88 28 -72 C 36 -56 43 -39 50 -20 C 56 0 62 19 67 41 C 71 63 74 84 75 106 L 181 106 Z" unicode="," />
<glyph horiz-adv-x="314" d="M 282 222 L 34 222 L 34 314 L 282 314 L 282 222 Z" unicode="-" />
<glyph horiz-adv-x="215" d="M 159 0 L 56 0 L 56 130 L 159 130 L 159 0 Z" unicode="." />
<glyph horiz-adv-x="309" d="M 308 730 L 96 0 L 2 0 L 216 730 L 308 730 Z" unicode="/" />
<glyph horiz-adv-x="441" d="M 218 -7 C 190 -7 165 0 142 11 C 118 23 98 44 81 72 C 64 100 51 138 41 186 C 31 233 27 291 27 361 C 27 477 42 569 74 637 C 105 704 154 738 222 738 C 256 738 286 729 310 712 C 334 695 354 671 370 640 C 385 608 396 570 403 525 C 410 479 414 428 414 372 C 414 247 397 153 364 89 C 331 25 282 -7 218 -7 Z M 219 80 C 251 80 275 101 290 145 C 305 188 313 260 313 362 C 313 460 306 532 294 579 C 281 625 257 649 221 649 C 186 649 162 626 148 582 C 134 538 128 465 128 364 C 128 310 130 264 134 228 C 138 192 143 163 151 141 C 159 119 168 103 180 94 C 191 84 204 80 219 80 Z" unicode="0" />
<glyph horiz-adv-x="298" d="M 240 0 L 135 0 L 135 579 C 124 559 108 540 86 523 C 64 506 44 496 26 494 L 26 606 C 36 606 47 611 60 619 C 72 627 84 638 96 650 C 108 662 118 676 128 690 C 138 704 145 719 150 733 L 240 733 L 240 0 Z" unicode="1" />
<glyph horiz-adv-x="429" d="M 400 0 L 20 0 L 20 27 L 232 349 C 252 379 267 411 279 443 C 291 475 297 510 297 548 C 297 579 289 603 274 621 C 258 638 236 647 208 647 C 175 647 152 635 138 612 C 124 588 117 558 117 520 L 26 520 C 26 594 42 648 75 684 C 107 719 152 737 208 737 C 262 737 306 721 341 691 C 376 660 394 616 394 558 C 394 502 387 456 374 421 C 361 386 345 354 327 326 L 173 93 L 400 93 L 400 0 Z" unicode="2" />
<glyph horiz-adv-x="427" d="M 189 -7 C 141 -7 101 0 71 14 C 40 28 16 45 -1 63 L 45 138 C 58 123 75 110 97 98 C 119 86 146 80 179 80 C 221 80 254 94 276 123 C 298 152 309 187 309 227 C 309 249 305 268 298 284 C 290 300 281 314 269 324 C 257 334 244 342 230 347 C 215 352 200 355 185 355 L 111 355 L 111 442 L 184 442 C 213 442 238 451 258 470 C 278 489 289 516 289 550 C 289 578 281 602 265 621 C 249 639 225 649 195 649 C 167 649 144 643 124 631 C 104 619 86 603 72 585 L 12 646 C 28 669 52 690 84 709 C 116 728 157 738 207 738 C 261 738 303 723 335 693 C 366 663 382 623 382 571 C 382 524 370 486 347 457 C 323 428 298 410 272 403 C 288 399 304 392 320 383 C 336 373 350 361 362 346 C 374 330 385 312 393 291 C 401 270 405 247 405 221 C 405 193 401 166 393 139 C 385 111 373 87 356 66 C 339 44 317 27 289 13 C 261 0 228 -7 189 -7 Z" unicode="3" />
<glyph horiz-adv-x="419" d="M 418 184 L 349 184 L 349 0 L 261 0 L 261 184 L 2 184 L 2 253 L 286 737 L 349 737 L 349 272 L 418 272 L 418 184 Z M 261 267 L 261 543 L 104 267 L 261 267 Z" unicode="4" />
<glyph horiz-adv-x="414" d="M 203 -7 C 161 -7 121 1 85 17 C 48 33 20 52 2 76 L 59 149 C 71 131 89 115 111 101 C 133 87 159 80 188 80 C 224 80 251 94 271 124 C 291 154 301 194 301 244 C 301 290 292 325 274 350 C 256 375 232 388 204 388 C 172 388 148 381 134 368 C 119 354 107 337 99 317 L 30 336 L 57 730 L 366 730 L 366 637 L 133 637 L 117 418 C 124 430 136 443 154 456 C 172 469 199 476 236 476 C 284 476 323 458 354 422 C 385 386 401 330 401 254 C 401 210 395 171 385 138 C 374 105 359 78 341 57 C 323 35 302 19 278 9 C 254 -1 229 -7 203 -7 Z" unicode="5" />
<glyph horiz-adv-x="420" d="M 220 -8 C 193 -8 168 -3 144 6 C 120 16 99 30 81 49 C 63 68 48 92 38 121 C 28 149 23 183 23 221 C 23 294 38 365 68 433 C 98 501 140 572 194 647 L 265 746 L 340 697 L 297 638 C 253 576 215 521 185 472 C 155 423 136 385 128 359 C 138 379 153 396 173 409 C 193 422 216 429 244 429 C 290 429 328 409 359 370 C 389 331 405 279 405 214 C 405 149 387 96 353 54 C 318 12 274 -8 220 -8 Z M 217 79 C 245 79 267 90 283 113 C 299 135 307 168 307 210 C 307 256 298 289 282 311 C 266 332 244 343 218 343 C 191 343 169 332 151 311 C 133 289 124 257 124 215 C 124 167 133 132 151 111 C 169 89 191 79 217 79 Z" unicode="6" />
<glyph horiz-adv-x="358" d="M 363 730 L 363 682 L 111 -5 L 21 29 L 252 637 L 10 637 L 10 730 L 363 730 Z" unicode="7" />
<glyph horiz-adv-x="433" d="M 297 392 C 310 388 324 382 338 373 C 352 364 365 352 377 337 C 389 321 398 303 406 281 C 413 259 417 234 417 206 C 417 140 399 88 363 50 C 327 12 278 -7 216 -7 C 154 -7 106 11 70 48 C 34 85 16 135 16 199 C 16 229 20 256 28 279 C 36 302 46 321 58 337 C 70 353 83 365 97 374 C 111 383 124 389 136 393 C 112 399 90 415 68 441 C 46 467 35 506 35 558 C 35 586 39 612 49 634 C 59 656 72 674 88 690 C 104 705 124 717 146 725 C 168 733 191 737 216 737 C 270 737 313 721 347 689 C 380 657 397 616 397 566 C 397 540 394 518 388 498 C 382 478 374 461 364 447 C 354 433 344 421 332 412 C 320 403 308 396 297 392 Z M 217 426 C 242 426 263 434 281 452 C 298 470 307 499 307 539 C 307 575 298 602 280 622 C 262 641 241 651 217 651 C 191 651 169 642 151 624 C 133 606 124 578 124 540 C 124 518 127 499 133 485 C 139 470 146 458 155 450 C 164 441 174 435 185 431 C 196 427 207 426 217 426 Z M 218 79 C 247 79 271 89 289 110 C 307 131 317 166 317 214 C 317 258 306 290 286 310 C 266 330 243 341 218 341 C 190 341 166 330 146 310 C 126 290 116 256 116 210 C 116 166 126 134 147 112 C 167 90 191 79 218 79 Z" unicode="8" />
<glyph horiz-adv-x="420" d="M 170 -12 L 95 40 L 125 81 C 142 103 160 129 179 157 C 197 185 215 214 232 242 C 248 270 263 296 276 322 C 288 347 297 368 303 385 C 291 363 272 344 248 328 C 223 312 197 305 171 305 C 125 305 87 325 58 366 C 29 406 15 458 15 521 C 15 553 19 582 29 609 C 39 635 52 658 70 677 C 87 696 107 711 131 721 C 154 731 179 737 206 737 C 231 737 255 732 279 723 C 302 713 322 699 340 680 C 358 661 372 637 382 608 C 392 579 398 545 398 506 C 398 463 392 421 382 380 C 372 339 358 300 342 263 C 326 226 307 191 287 158 C 267 124 247 94 227 67 L 170 -12 Z M 201 392 C 223 392 244 401 265 420 C 285 439 296 471 296 515 C 296 563 287 597 269 617 C 251 637 229 648 204 648 C 175 648 153 637 137 616 C 121 594 113 563 113 522 C 113 476 120 443 136 423 C 151 402 173 392 201 392 Z" unicode="9" />
<glyph horiz-adv-x="211" d="M 157 365 L 54 365 L 54 490 L 157 490 L 157 365 Z M 157 0 L 54 0 L 54 126 L 157 126 L 157 0 Z" unicode=":" />
<glyph horiz-adv-x="211" d="M 164 365 L 62 365 L 62 490 L 164 490 L 164 365 Z M 166 102 C 165 78 162 53 156 29 C 150 4 143 -19 135 -41 C 126 -63 116 -83 105 -101 C 94 -119 83 -133 73 -145 L -4 -110 C 3 -100 11 -88 19 -73 C 27 -57 35 -40 42 -22 C 49 -3 55 16 59 38 C 63 59 66 80 66 102 L 166 102 Z" unicode=";" />
<glyph horiz-adv-x="363" d="M 321 102 L 30 291 L 30 359 L 321 545 L 321 450 L 127 325 L 321 200 L 321 102 Z" unicode="&#x3C;" />
<glyph horiz-adv-x="479" d="M 427 386 L 54 386 L 54 474 L 427 474 L 427 386 Z M 427 171 L 54 171 L 54 259 L 427 259 L 427 171 Z" unicode="=" />
<glyph horiz-adv-x="363" d="M 330 291 L 40 102 L 40 199 L 230 325 L 40 450 L 40 545 L 330 359 L 330 291 Z" unicode="&#x3E;" />
<glyph horiz-adv-x="429" d="M 151 209 C 151 248 156 282 167 310 C 178 338 195 366 217 394 C 235 415 252 438 269 464 C 286 489 295 519 295 554 C 295 584 285 607 267 624 C 249 641 226 650 198 650 C 172 650 150 643 131 630 C 112 616 96 599 82 579 L 21 640 C 45 674 75 699 109 716 C 143 733 180 742 218 742 C 277 742 322 726 354 694 C 386 662 402 620 402 567 C 402 541 398 518 392 498 C 386 477 378 458 368 440 C 358 422 346 406 334 390 C 321 374 308 359 296 345 C 278 326 266 304 260 279 C 253 253 249 230 249 209 L 151 209 Z M 147 0 L 147 120 L 258 120 L 258 0 L 147 0 Z" unicode="?" />
<glyph horiz-adv-x="811" d="M 402 -44 C 347 -44 297 -34 251 -14 C 205 6 167 33 135 67 C 103 101 78 141 60 187 C 42 233 33 282 33 334 C 33 386 42 435 60 481 C 78 527 104 568 137 602 C 169 636 209 662 255 682 C 301 702 351 712 406 712 C 462 712 514 703 560 686 C 606 669 645 645 677 615 C 709 585 734 548 752 506 C 770 463 779 416 779 365 C 779 321 774 284 764 253 C 754 222 741 197 725 177 C 709 157 692 143 673 134 C 653 125 634 121 616 121 C 586 121 561 127 543 141 C 525 155 513 172 509 194 C 499 178 481 162 455 146 C 428 129 396 121 358 121 C 310 121 273 133 248 157 C 222 181 210 213 210 254 C 210 276 215 297 225 315 C 235 333 248 347 266 359 C 283 371 304 380 328 386 C 352 392 377 396 405 396 L 492 396 L 492 408 C 492 437 483 458 467 470 C 451 482 428 488 400 488 C 376 488 353 485 333 479 C 312 473 295 467 281 462 L 254 528 C 272 537 295 545 321 551 C 347 557 375 560 404 560 C 458 560 500 546 529 520 C 558 493 573 450 573 391 L 573 243 C 573 229 576 216 584 206 C 592 195 605 190 624 190 C 634 190 644 192 654 197 C 664 202 673 211 681 223 C 689 235 696 253 701 275 C 706 297 709 326 709 361 C 709 402 702 440 688 475 C 674 510 654 540 628 565 C 602 590 570 610 532 624 C 494 638 452 645 406 645 C 361 645 320 636 283 620 C 245 604 213 582 187 554 C 161 526 140 493 126 455 C 111 417 104 377 104 334 C 104 291 111 251 126 213 C 140 175 161 141 187 113 C 213 85 244 62 281 46 C 318 29 359 21 404 21 C 424 21 444 22 464 26 C 484 30 505 37 528 49 L 554 -10 C 526 -22 500 -31 476 -36 C 451 -41 426 -44 402 -44 Z M 379 193 C 405 193 430 198 452 210 C 474 222 488 234 493 246 L 493 331 L 406 331 C 370 331 344 325 326 313 C 308 301 299 283 299 261 C 299 239 306 223 320 211 C 334 199 354 193 379 193 Z" unicode="@" />
<glyph horiz-adv-x="484" d="M 483 0 L 379 0 L 333 169 L 145 169 L 102 0 L 0 0 L 204 734 L 280 734 L 483 0 Z M 317 255 L 239 537 L 162 255 L 317 255 Z" unicode="A" />
<glyph horiz-adv-x="457" d="M 56 0 L 56 730 L 239 730 C 289 730 330 714 364 683 C 397 652 414 610 414 556 C 414 504 401 464 377 436 C 353 407 325 390 295 384 C 311 382 328 378 345 370 C 362 362 377 350 391 335 C 405 320 416 302 425 281 C 434 259 439 234 439 206 C 439 144 421 94 387 56 C 352 18 308 0 254 0 L 56 0 Z M 161 416 L 216 416 C 250 416 274 428 289 453 C 303 477 311 505 311 535 C 311 567 303 592 287 611 C 271 629 246 639 210 639 L 161 639 L 161 416 Z M 161 92 L 231 92 C 267 92 293 103 309 126 C 325 149 333 177 333 211 C 333 251 322 280 302 299 C 281 317 253 327 219 327 L 161 327 L 161 92 Z" unicode="B" />
<glyph horiz-adv-x="510" d="M 278 -7 C 242 -7 208 0 178 16 C 148 31 122 54 100 85 C 78 116 62 155 50 202 C 38 248 32 303 32 366 C 32 482 53 573 95 639 C 137 704 199 737 279 737 C 342 737 389 721 419 691 C 449 661 471 624 484 581 L 386 547 C 376 572 364 594 349 612 C 333 630 310 639 280 639 C 237 639 203 618 179 577 C 154 535 142 464 142 362 C 142 310 146 266 154 231 C 162 196 173 168 187 148 C 200 127 215 112 233 103 C 251 94 269 90 287 90 C 320 90 345 99 362 117 C 378 135 392 159 403 189 L 492 151 C 475 102 449 63 414 35 C 379 7 334 -7 278 -7 Z" unicode="C" />
<glyph horiz-adv-x="540" d="M 56 0 L 56 730 L 223 730 C 269 730 309 721 345 704 C 381 686 411 662 435 630 C 459 598 477 559 489 514 C 501 468 508 418 508 363 C 508 312 502 264 490 220 C 478 176 460 137 436 105 C 412 72 381 46 344 28 C 307 9 264 0 215 0 L 56 0 Z M 165 94 L 218 94 C 283 94 329 118 356 166 C 383 214 397 279 397 361 C 397 455 382 525 352 569 C 322 613 280 636 226 636 L 165 636 L 165 94 Z" unicode="D" />
<glyph horiz-adv-x="396" d="M 385 0 L 56 0 L 56 730 L 367 730 L 367 632 L 163 632 L 163 413 L 359 413 L 359 317 L 163 317 L 163 98 L 385 98 L 385 0 Z" unicode="E" />
<glyph horiz-adv-x="357" d="M 351 632 L 167 632 L 167 414 L 340 414 L 340 318 L 167 318 L 167 0 L 57 0 L 57 730 L 351 730 L 351 632 Z" unicode="F" />
<glyph horiz-adv-x="532" d="M 276 367 L 504 367 L 504 117 C 486 81 458 51 421 28 C 383 4 336 -7 280 -7 C 246 -7 214 1 184 18 C 154 34 127 58 105 90 C 82 121 64 160 51 206 C 38 252 32 305 32 365 C 32 421 37 473 49 519 C 61 565 77 604 99 636 C 121 668 147 692 178 710 C 209 728 244 737 282 737 C 340 737 385 723 417 696 C 448 668 471 636 486 600 L 394 553 C 384 577 370 597 354 614 C 337 630 314 639 285 639 C 242 639 207 617 181 573 C 155 529 142 459 142 362 C 142 264 155 194 183 150 C 211 106 244 84 283 84 C 313 84 338 88 358 98 C 378 108 394 123 405 143 L 405 275 L 276 275 L 276 367 Z" unicode="G" />
<glyph horiz-adv-x="534" d="M 478 0 L 368 0 L 368 312 L 166 312 L 166 0 L 56 0 L 56 730 L 166 730 L 166 409 L 368 409 L 368 730 L 478 730 L 478 0 Z" unicode="H" />
<glyph horiz-adv-x="230" d="M 171 0 L 60 0 L 60 730 L 171 730 L 171 0 Z" unicode="I" />
<glyph horiz-adv-x="288" d="M 236 730 L 236 182 C 236 126 220 81 190 45 C 160 9 119 -8 67 -8 C 54 -8 40 -7 26 -5 C 11 -3 0 0 -7 5 L 3 101 C 7 98 14 96 23 94 C 31 92 40 92 49 92 C 73 92 92 103 106 125 C 119 147 126 174 126 205 L 126 730 L 236 730 Z" unicode="J" />
<glyph horiz-adv-x="500" d="M 510 0 L 389 0 L 194 313 L 167 279 L 167 0 L 56 0 L 56 730 L 167 730 L 167 414 L 377 730 L 492 730 L 265 397 L 510 0 Z" unicode="K" />
<glyph horiz-adv-x="360" d="M 353 0 L 56 0 L 56 730 L 166 730 L 166 98 L 353 98 L 353 0 Z" unicode="L" />
<glyph horiz-adv-x="645" d="M 590 0 L 485 0 L 485 491 L 349 160 L 300 160 L 159 491 L 159 0 L 56 0 L 56 730 L 153 730 L 325 325 L 499 730 L 590 730 L 590 0 Z" unicode="M" />
<glyph horiz-adv-x="533" d="M 477 0 L 399 0 L 159 473 L 159 0 L 56 0 L 56 730 L 133 730 L 377 256 L 377 730 L 477 730 L 477 0 Z" unicode="N" />
<glyph horiz-adv-x="569" d="M 287 -7 C 205 -7 142 25 98 90 C 54 155 32 249 32 371 C 32 485 54 575 99 640 C 143 704 204 737 282 737 C 364 737 427 705 471 641 C 515 577 537 485 537 365 C 537 249 514 158 468 92 C 422 26 362 -7 287 -7 Z M 285 85 C 329 85 363 108 388 154 C 412 200 425 272 425 372 C 425 464 412 533 387 577 C 361 621 327 644 283 644 C 237 644 203 622 180 578 C 156 534 145 462 145 364 C 145 265 157 194 183 150 C 208 106 242 85 285 85 Z" unicode="O" />
<glyph horiz-adv-x="448" d="M 56 0 L 56 730 L 246 730 C 272 730 296 725 319 715 C 341 705 361 692 378 674 C 395 656 408 635 418 609 C 428 583 433 553 433 521 C 433 454 415 400 379 360 C 343 320 299 300 246 300 L 166 300 L 166 0 L 56 0 Z M 166 393 L 217 393 C 251 393 278 403 297 423 C 315 443 325 476 325 520 C 325 560 314 589 293 608 C 272 627 246 637 216 637 L 166 637 L 166 393 Z" unicode="P" />
<glyph horiz-adv-x="569" d="M 507 -57 L 507 -159 C 463 -151 422 -132 384 -102 C 346 -72 315 -39 293 -5 C 292 -5 291 -5 290 -5 C 288 -5 287 -5 287 -5 C 207 -5 145 27 100 91 C 54 155 32 249 32 371 C 32 485 54 575 100 640 C 146 704 206 737 282 737 C 363 737 426 705 470 641 C 514 577 537 485 537 365 C 537 278 523 205 497 146 C 470 87 434 45 390 21 C 406 1 425 -16 447 -30 C 469 -44 489 -53 507 -57 Z M 285 80 C 329 80 363 104 388 152 C 413 200 426 272 426 370 C 426 468 412 539 386 582 C 359 625 325 647 283 647 C 237 647 203 625 179 581 C 155 537 144 465 144 364 C 144 266 156 195 181 149 C 206 103 241 80 285 80 Z" unicode="Q" />
<glyph horiz-adv-x="466" d="M 56 0 L 56 730 L 223 730 C 277 730 322 713 358 681 C 394 648 412 598 412 531 C 412 477 400 432 378 396 C 355 359 326 338 290 332 L 289 327 L 468 0 L 354 0 L 190 304 L 157 304 L 157 0 L 56 0 Z M 157 396 L 207 396 C 237 396 261 406 280 428 C 299 449 309 479 309 517 C 309 558 299 588 279 608 C 259 627 235 637 209 637 L 157 637 L 157 396 Z" unicode="R" />
<glyph horiz-adv-x="417" d="M 208 -7 C 168 -7 133 0 102 12 C 70 25 42 48 16 82 L 80 150 C 94 127 113 109 135 97 C 157 85 179 79 202 79 C 226 79 248 88 267 106 C 285 124 295 149 295 181 C 295 213 286 240 270 261 C 254 282 223 307 179 336 C 135 364 100 394 74 427 C 48 460 35 505 35 562 C 35 588 39 612 49 634 C 59 656 72 674 89 689 C 105 704 125 716 147 724 C 169 732 192 737 217 737 C 257 737 290 730 317 717 C 344 703 365 688 380 672 L 319 601 C 308 612 294 622 276 630 C 258 638 240 643 220 643 C 198 643 178 635 161 621 C 144 606 136 584 136 556 C 136 529 144 506 158 488 C 172 470 203 446 249 418 C 301 385 339 351 361 315 C 383 279 395 236 395 184 C 395 152 389 125 379 101 C 368 77 354 57 337 41 C 319 25 299 13 277 5 C 254 -3 231 -7 208 -7 Z" unicode="S" />
<glyph horiz-adv-x="380" d="M 374 632 L 245 632 L 245 0 L 135 0 L 135 632 L 6 632 L 6 730 L 374 730 L 374 632 Z" unicode="T" />
<glyph horiz-adv-x="534" d="M 481 730 L 481 220 C 481 179 475 144 463 116 C 451 87 434 63 414 45 C 394 27 370 13 344 5 C 317 -2 289 -7 260 -7 C 232 -7 206 -3 181 5 C 155 13 133 26 115 44 C 96 62 81 85 70 114 C 58 143 53 178 53 220 L 53 730 L 161 730 L 161 217 C 161 169 170 136 190 117 C 209 97 234 88 264 88 C 293 88 318 97 338 115 C 358 133 369 167 369 217 L 369 730 L 481 730 Z" unicode="U" />
<glyph horiz-adv-x="462" d="M 462 730 L 270 -4 L 189 -4 L 0 730 L 106 730 L 233 208 L 359 730 L 462 730 Z" unicode="V" />
<glyph horiz-adv-x="693" d="M 673 730 L 524 -3 L 449 -3 L 338 511 L 226 -3 L 151 -3 L 3 730 L 106 730 L 200 217 L 303 730 L 383 730 L 485 218 L 580 730 L 673 730 Z" unicode="W" />
<glyph horiz-adv-x="449" d="M 335 0 L 221 262 L 106 0 L 4 0 L 170 378 L 17 730 L 125 730 L 224 501 L 325 730 L 427 730 L 275 384 L 442 0 L 335 0 Z" unicode="X" />
<glyph horiz-adv-x="464" d="M 469 730 L 285 311 L 285 0 L 175 0 L 175 313 L -4 730 L 116 730 L 236 426 L 363 730 L 469 730 Z" unicode="Y" />
<glyph horiz-adv-x="421" d="M 396 730 L 396 674 L 148 96 L 407 96 L 407 0 L 14 0 L 14 54 L 265 632 L 42 632 L 42 730 L 396 730 Z" unicode="Z" />
<glyph horiz-adv-x="230" d="M 212 -179 L 47 -179 L 47 730 L 212 730 L 212 645 L 144 645 L 144 -92 L 212 -92 L 212 -179 Z" unicode="[" />
<glyph horiz-adv-x="309" d="M 2 730 L 93 730 L 308 0 L 215 0 L 2 730 Z" unicode="\" />
<glyph horiz-adv-x="233" d="M 188 -179 L 22 -179 L 22 -94 L 90 -94 L 90 645 L 22 645 L 22 730 L 188 730 L 188 -179 Z" unicode="]" />
<glyph horiz-adv-x="433" d="M 412 369 L 324 369 L 215 626 L 108 369 L 20 369 L 172 730 L 259 730 L 412 369 Z" unicode="^" />
<glyph horiz-adv-x="425" d="M 425 -160 L 0 -160 L 0 -78 L 425 -78 L 425 -160 Z" unicode="_" />
<glyph horiz-adv-x="500" d="M 348 551 L 251 551 L 146 724 L 262 724 L 348 551 Z" unicode="`" />
<glyph horiz-adv-x="378" d="M 340 0 L 253 0 L 253 48 C 238 30 222 17 204 8 C 186 0 164 -5 137 -5 C 103 -5 74 8 51 35 C 28 62 17 100 17 148 C 17 202 32 241 63 265 C 93 289 130 303 173 306 L 246 311 L 246 341 C 246 365 239 383 227 395 C 214 407 195 413 171 413 C 148 413 129 409 113 402 C 97 394 84 387 76 379 L 47 454 C 61 466 81 477 105 486 C 129 494 159 499 195 499 C 237 499 271 487 299 463 C 326 439 340 405 340 359 L 340 0 Z M 248 111 L 248 240 L 194 236 C 172 234 152 227 136 213 C 120 199 112 177 112 148 C 112 122 118 103 132 92 C 146 80 160 75 176 75 C 193 75 207 78 219 86 C 231 93 240 101 248 111 Z" unicode="a" />
<glyph horiz-adv-x="412" d="M 242 -4 C 214 -4 190 2 172 15 C 153 28 139 44 130 64 L 130 0 L 38 0 L 38 798 L 134 798 L 134 407 C 141 429 154 450 173 468 C 191 486 217 495 250 495 C 294 495 328 473 354 429 C 379 385 392 328 392 258 C 392 174 377 110 349 64 C 321 18 285 -4 242 -4 Z M 206 75 C 230 75 250 89 265 117 C 279 145 287 188 287 246 C 287 300 280 340 266 366 C 252 392 232 406 207 406 C 186 406 168 393 153 369 C 138 345 131 300 131 234 C 131 201 133 174 137 153 C 141 132 147 116 154 105 C 161 93 169 85 178 81 C 187 77 196 75 206 75 Z" unicode="b" />
<glyph horiz-adv-x="352" d="M 287 125 L 343 70 C 332 52 316 35 295 19 C 274 3 245 -5 207 -5 C 177 -5 150 1 127 13 C 103 25 84 43 68 65 C 52 87 40 114 32 144 C 24 174 20 208 20 244 C 20 277 24 309 32 340 C 40 370 51 397 67 420 C 83 442 102 460 126 474 C 149 488 176 495 208 495 C 244 495 273 486 296 470 C 319 453 336 435 347 416 L 281 359 C 273 372 264 383 252 393 C 240 403 226 408 208 408 C 182 408 161 393 147 365 C 132 336 125 297 125 248 C 125 189 134 146 152 119 C 170 91 193 78 219 78 C 237 78 252 83 262 94 C 272 104 280 115 287 125 Z" unicode="c" />
<glyph horiz-adv-x="424" d="M 178 -5 C 154 -5 132 1 112 13 C 92 25 76 42 62 64 C 48 86 38 112 31 142 C 23 172 20 204 20 240 C 20 317 35 378 66 424 C 96 470 135 493 181 493 C 209 493 233 484 252 467 C 271 450 284 430 291 408 L 291 798 L 386 798 L 386 0 L 296 0 L 296 61 C 289 45 276 30 258 16 C 240 2 213 -5 178 -5 Z M 210 76 C 236 76 256 90 271 118 C 285 146 293 190 293 248 C 293 305 284 346 268 370 C 252 394 232 406 208 406 C 182 406 161 392 147 366 C 133 340 126 299 126 244 C 126 188 133 146 148 118 C 162 90 183 76 210 76 Z" unicode="d" />
<glyph horiz-adv-x="392" d="M 203 -5 C 148 -5 104 17 70 61 C 36 105 20 166 20 242 C 20 281 24 316 34 348 C 43 380 56 406 72 428 C 88 449 106 465 128 477 C 150 489 173 495 198 495 C 256 495 299 471 329 423 C 358 375 373 307 373 219 L 120 219 C 120 172 128 137 145 113 C 161 89 185 77 215 77 C 239 77 259 82 275 94 C 291 106 304 119 315 133 L 364 79 C 350 60 331 41 305 23 C 279 4 245 -5 203 -5 Z M 121 289 L 276 289 C 275 329 268 359 256 381 C 243 403 225 414 203 414 C 179 414 160 403 146 381 C 132 359 123 329 121 289 Z" unicode="e" />
<glyph horiz-adv-x="223" d="M 220 403 L 159 403 L 159 0 L 59 0 L 59 403 L 11 403 L 11 490 L 59 490 L 59 670 C 59 690 62 709 70 725 C 77 741 86 754 98 765 C 109 776 122 785 137 791 C 151 797 166 800 181 800 C 193 800 205 798 219 795 C 233 792 244 787 252 781 L 225 703 C 223 703 220 704 214 706 C 208 708 202 709 196 709 C 183 709 173 704 167 694 C 161 684 158 668 158 646 L 158 490 L 220 490 L 220 403 Z" unicode="f" />
<glyph horiz-adv-x="422" d="M 182 6 C 134 6 96 27 66 70 C 36 112 21 171 21 246 C 21 285 25 320 34 351 C 42 382 54 408 68 429 C 82 450 99 466 119 477 C 139 488 159 494 181 494 C 209 494 233 486 252 470 C 270 454 284 436 293 417 L 293 490 L 384 490 L 384 10 C 384 -25 378 -56 367 -82 C 356 -108 342 -130 324 -147 C 306 -163 285 -176 262 -184 C 239 -192 216 -196 192 -196 C 158 -196 129 -192 107 -186 C 85 -179 68 -172 57 -164 L 86 -88 C 98 -94 113 -99 129 -103 C 145 -107 164 -109 187 -109 C 217 -109 242 -98 261 -77 C 279 -56 289 -26 289 14 L 289 83 C 281 63 269 45 251 29 C 233 13 210 6 182 6 Z M 209 84 C 234 84 254 97 269 123 C 284 149 292 192 292 252 C 292 308 283 348 265 373 C 247 397 228 410 207 410 C 182 410 162 396 148 369 C 133 341 126 301 126 249 C 126 197 132 156 146 127 C 159 98 180 84 209 84 Z" unicode="g" />
<glyph horiz-adv-x="407" d="M 369 0 L 269 0 L 269 341 C 269 363 263 380 252 391 C 241 402 226 408 208 408 C 189 408 173 402 159 390 C 145 378 139 356 139 325 L 139 0 L 38 0 L 38 798 L 133 798 L 133 427 C 139 447 151 463 169 476 C 187 488 212 495 244 495 C 282 495 312 485 335 466 C 357 446 369 415 369 371 L 369 0 Z" unicode="h" />
<glyph horiz-adv-x="181" d="M 38 569 L 38 666 L 143 666 L 143 569 L 38 569 Z M 40 0 L 40 490 L 141 490 L 141 0 L 40 0 Z" unicode="i" />
<glyph horiz-adv-x="182" d="M 145 569 L 41 569 L 41 666 L 145 666 L 145 569 Z M 143 490 L 143 -78 C 143 -108 133 -133 114 -153 C 94 -173 68 -184 36 -184 C 20 -184 5 -181 -9 -177 C -23 -172 -32 -167 -36 -163 L -9 -93 C -6 -93 -3 -94 1 -96 C 5 -97 10 -98 16 -98 C 24 -98 30 -95 35 -89 C 40 -83 43 -75 43 -65 L 43 490 L 143 490 Z" unicode="j" />
<glyph horiz-adv-x="379" d="M 388 1 L 282 0 L 182 193 L 138 127 L 138 0 L 38 0 L 38 798 L 133 798 L 133 246 L 276 490 L 378 490 L 248 274 L 388 1 Z" unicode="k" />
<glyph horiz-adv-x="177" d="M 139 800 L 139 0 L 38 0 L 38 800 L 139 800 Z" unicode="l" />
<glyph horiz-adv-x="631" d="M 38 0 L 38 490 L 127 490 L 127 420 C 133 446 148 465 170 477 C 192 489 218 496 248 496 C 278 496 303 489 321 475 C 339 461 351 442 356 418 L 359 418 C 366 442 379 461 399 475 C 419 489 445 496 478 496 C 511 496 538 486 560 468 C 582 449 593 419 593 377 L 593 0 L 494 0 L 494 330 C 494 359 488 379 476 391 C 464 403 449 409 431 409 C 413 409 398 402 385 390 C 371 377 365 353 365 319 L 365 0 L 266 0 L 266 333 C 266 363 260 384 248 394 C 236 404 222 409 206 409 C 189 409 173 402 159 390 C 144 377 137 354 137 320 L 137 0 L 38 0 Z" unicode="m" />
<glyph horiz-adv-x="407" d="M 369 0 L 269 0 L 269 345 C 269 365 263 381 253 392 C 242 402 227 408 209 408 C 189 408 173 402 159 390 C 145 378 139 357 139 325 L 139 0 L 38 0 L 38 490 L 128 490 L 128 423 C 136 443 149 460 169 474 C 188 488 214 495 247 495 C 283 495 313 485 335 467 C 357 449 369 419 369 379 L 369 0 Z" unicode="n" />
<glyph horiz-adv-x="407" d="M 204 -5 C 150 -5 106 16 72 58 C 37 100 20 162 20 244 C 20 320 36 380 69 426 C 102 472 145 495 198 495 C 255 495 301 474 335 432 C 369 390 387 332 387 257 C 387 177 370 114 338 66 C 305 18 260 -5 204 -5 Z M 204 78 C 230 78 249 91 262 118 C 275 144 282 188 282 248 C 282 307 275 349 261 373 C 247 397 227 410 201 410 C 177 410 158 397 145 372 C 131 347 125 306 125 248 C 125 184 132 139 146 115 C 160 90 180 78 204 78 Z" unicode="o" />
<glyph horiz-adv-x="411" d="M 38 -200 L 38 490 L 126 490 L 126 402 C 132 424 146 445 167 465 C 188 485 215 495 247 495 C 294 495 330 473 355 430 C 379 387 392 331 392 263 C 392 178 377 112 349 66 C 321 19 283 -4 236 -4 C 211 -4 189 1 171 12 C 153 22 140 35 133 50 L 133 -200 L 38 -200 Z M 204 74 C 229 74 249 87 264 113 C 279 139 287 182 287 240 C 287 293 280 334 268 363 C 256 392 235 407 207 407 C 186 407 168 395 152 372 C 136 349 129 303 129 234 C 129 169 136 126 150 105 C 164 84 182 74 204 74 Z" unicode="p" />
<glyph horiz-adv-x="424" d="M 291 -200 L 291 71 C 283 50 270 32 250 18 C 230 3 204 -4 174 -4 C 150 -4 129 2 110 14 C 91 26 75 42 62 64 C 48 86 38 112 31 142 C 23 172 20 205 20 241 C 20 322 35 385 65 429 C 95 473 133 495 177 495 C 209 495 235 486 255 469 C 275 451 289 431 298 408 L 298 490 L 386 490 L 386 -200 L 291 -200 Z M 208 76 C 234 76 254 89 270 115 C 285 141 293 185 293 245 C 293 301 284 342 268 368 C 252 394 231 407 206 407 C 181 407 161 393 147 367 C 133 340 126 298 126 240 C 126 191 133 151 147 121 C 161 91 182 76 208 76 Z" unicode="q" />
<glyph horiz-adv-x="302" d="M 307 464 L 275 381 C 264 390 254 396 246 399 C 237 402 227 404 216 404 C 200 404 183 397 165 383 C 147 369 139 341 139 298 L 139 0 L 38 0 L 38 490 L 136 490 L 136 416 C 142 436 154 455 170 471 C 186 487 206 495 229 495 C 247 495 262 491 276 485 C 289 478 299 471 307 464 Z" unicode="r" />
<glyph horiz-adv-x="313" d="M 164 -5 C 131 -5 101 1 75 13 C 48 25 27 42 13 63 L 63 131 C 74 114 88 101 105 92 C 121 82 137 78 153 78 C 167 78 180 82 192 92 C 204 101 210 115 210 133 C 210 151 202 165 188 177 C 173 189 152 203 126 219 C 97 235 73 255 55 277 C 37 299 28 330 28 370 C 28 404 40 433 66 458 C 91 482 122 495 159 495 C 187 495 212 490 233 482 C 254 473 272 463 286 451 L 241 377 C 233 384 222 391 208 398 C 194 405 180 409 167 409 C 152 409 139 405 129 398 C 118 390 113 380 113 366 C 113 351 119 339 132 330 C 144 320 165 307 194 289 C 228 267 254 245 270 223 C 286 201 295 170 295 130 C 295 107 290 87 282 70 C 274 53 263 39 251 28 C 238 16 224 8 208 3 C 192 -2 178 -5 164 -5 Z" unicode="s" />
<glyph horiz-adv-x="228" d="M 209 96 L 229 17 C 223 12 214 7 203 3 C 191 -1 176 -4 156 -4 C 145 -4 133 -1 121 3 C 109 7 97 14 87 24 C 76 34 67 46 60 62 C 53 78 50 97 50 120 L 50 403 L 7 403 L 7 490 L 53 490 L 53 620 L 148 632 L 148 490 L 213 490 L 213 403 L 150 403 L 150 124 C 150 112 153 103 159 97 C 165 91 172 88 182 88 C 186 88 191 88 197 90 C 202 92 206 94 209 96 Z" unicode="t" />
<glyph horiz-adv-x="407" d="M 37 490 L 138 490 L 138 150 C 138 124 143 105 154 93 C 165 81 181 75 201 75 C 219 75 234 81 248 95 C 261 108 268 133 268 169 L 268 490 L 368 490 L 368 0 L 276 0 L 276 61 C 268 42 254 26 234 13 C 214 0 189 -6 159 -6 C 126 -6 97 4 73 25 C 49 46 37 79 37 123 L 37 490 Z" unicode="u" />
<glyph horiz-adv-x="345" d="M 350 490 L 215 -2 L 131 -2 L -5 490 L 99 490 L 177 176 L 254 490 L 350 490 Z" unicode="v" />
<glyph horiz-adv-x="549" d="M 348 -2 L 275 271 L 200 -2 L 121 -2 L -1 490 L 93 490 L 171 156 L 240 425 L 315 425 L 383 157 L 463 490 L 549 490 L 426 -2 L 348 -2 Z" unicode="w" />
<glyph horiz-adv-x="349" d="M 245 0 L 171 150 L 97 0 L 2 0 L 123 248 L 4 490 L 108 490 L 175 353 L 242 490 L 340 490 L 223 254 L 347 0 L 245 0 Z" unicode="x" />
<glyph horiz-adv-x="347" d="M 352 490 L 183 -100 C 173 -132 157 -157 134 -174 C 111 -191 85 -200 56 -200 C 34 -200 16 -197 2 -193 C -11 -188 -22 -183 -29 -179 L 8 -102 C 10 -104 16 -107 26 -110 C 36 -113 45 -115 54 -115 C 65 -115 75 -110 84 -101 C 93 -92 100 -79 105 -61 L 130 39 L -5 490 L 99 490 L 180 182 L 256 490 L 352 490 Z" unicode="y" />
<glyph horiz-adv-x="327" d="M 311 490 L 311 444 L 138 87 L 317 87 L 317 0 L 10 0 L 10 38 L 191 403 L 22 403 L 22 490 L 311 490 Z" unicode="z" />
<glyph horiz-adv-x="255" d="M 235 -179 C 207 -179 181 -175 157 -167 C 132 -159 110 -148 92 -134 C 73 -120 58 -104 47 -86 C 36 -67 31 -47 31 -26 C 31 0 33 24 39 46 C 45 67 51 85 59 101 C 66 117 73 133 80 147 C 87 161 91 175 91 188 C 91 202 83 215 67 228 C 51 241 34 248 16 248 L 16 323 C 34 323 52 330 69 344 C 85 358 94 373 94 391 C 94 393 90 403 83 419 C 75 435 67 453 59 472 C 50 490 43 509 39 527 C 34 545 32 563 32 580 C 32 601 37 622 48 642 C 58 662 73 680 91 696 C 109 712 131 724 156 734 C 181 744 207 749 235 749 L 235 675 C 210 675 187 665 167 645 C 146 625 136 601 136 574 C 136 565 137 554 140 540 C 142 526 147 513 154 499 C 164 478 174 459 182 442 C 190 424 194 410 194 398 C 194 372 186 349 171 329 C 155 308 133 293 103 285 C 133 276 156 261 171 241 C 186 220 194 198 194 176 C 194 157 190 141 183 127 C 175 113 168 99 160 85 C 152 71 145 56 141 40 C 137 24 135 9 135 -4 C 135 -14 137 -26 143 -38 C 148 -50 155 -61 164 -71 C 173 -81 184 -89 196 -95 C 208 -101 221 -105 235 -105 L 235 -179 Z" unicode="{" />
<glyph horiz-adv-x="230" d="M 163 -179 L 67 -179 L 67 730 L 163 730 L 163 -179 Z" unicode="|" />
<glyph horiz-adv-x="255" d="M 20 -179 L 20 -105 C 34 -105 47 -101 59 -95 C 71 -89 81 -81 90 -71 C 99 -61 106 -50 112 -38 C 117 -26 120 -14 120 -4 C 120 9 118 24 114 40 C 110 56 104 71 96 85 C 88 99 80 113 72 127 C 64 141 61 157 61 176 C 61 198 68 220 83 241 C 97 261 119 276 148 285 C 120 293 98 308 83 329 C 68 349 61 372 61 398 C 61 410 65 424 73 442 C 81 459 91 478 101 499 C 107 513 112 526 115 540 C 117 554 119 565 119 574 C 119 601 108 625 88 645 C 67 665 44 675 20 675 L 20 749 C 47 749 73 744 98 734 C 123 724 145 712 163 696 C 181 680 196 662 207 642 C 217 622 223 601 223 580 C 223 563 220 545 216 527 C 211 509 204 490 196 472 C 187 453 179 435 172 419 C 164 403 161 393 161 391 C 161 373 169 358 186 344 C 202 330 220 323 239 323 L 239 248 C 220 248 203 241 187 228 C 171 215 164 202 164 188 C 164 175 167 161 174 147 C 181 133 188 117 196 101 C 203 85 209 67 215 46 C 221 24 224 0 224 -26 C 224 -47 218 -67 207 -86 C 196 -104 181 -120 163 -134 C 144 -148 122 -159 98 -167 C 73 -175 47 -179 20 -179 Z" unicode="}" />
<glyph horiz-adv-x="453" d="M 349 446 L 427 446 C 425 398 417 358 402 328 C 386 297 361 282 326 282 C 302 282 282 286 264 296 C 246 305 231 316 220 328 C 207 340 196 350 186 359 C 176 367 164 372 152 372 C 139 372 127 363 117 347 C 107 331 102 310 102 285 L 26 285 C 26 335 35 374 53 404 C 71 434 98 449 134 449 C 157 449 178 443 196 431 C 214 419 229 408 241 397 C 253 386 264 377 273 369 C 282 361 293 357 306 357 C 323 357 334 364 340 379 C 346 394 349 416 349 446 Z" unicode="~" />
<glyph horiz-adv-x="257" d="M 78 599 L 180 599 L 180 486 L 78 486 L 78 599 Z M 72 182 L 108 401 L 152 401 L 184 182 L 184 -112 L 72 -112 L 72 182 Z" unicode="¡" />
<glyph horiz-adv-x="353" d="M 343 131 C 332 120 319 109 304 98 C 289 86 266 79 236 76 L 236 -35 L 177 -35 L 177 75 C 126 81 87 105 60 145 C 33 185 20 236 20 296 C 20 323 23 349 30 375 C 36 400 46 422 59 442 C 72 462 88 478 108 492 C 128 505 151 514 177 518 L 177 625 L 236 625 L 236 518 C 264 515 287 508 305 496 C 322 484 336 473 347 461 L 304 391 C 296 399 286 407 276 415 C 266 422 252 427 236 429 L 236 157 C 254 158 269 163 280 171 C 291 179 300 186 307 194 L 343 131 Z M 125 298 C 125 265 129 238 139 218 C 149 197 161 181 177 171 L 177 420 C 160 410 147 395 138 374 C 129 352 125 327 125 298 Z" unicode="¢" />
<glyph horiz-adv-x="469" d="M 453 87 L 453 0 L 15 0 L 15 75 C 19 77 27 80 38 82 C 48 84 62 88 79 92 C 103 96 125 107 144 125 C 162 143 172 168 172 200 C 172 200 172 201 172 203 C 172 204 172 205 172 206 L 31 206 L 31 285 L 143 285 C 139 293 134 301 130 310 C 125 319 120 328 116 338 L 31 338 L 31 416 L 82 416 C 75 434 69 454 65 476 C 61 498 59 521 59 545 C 59 581 64 612 76 638 C 88 663 103 683 122 699 C 141 714 163 725 188 732 C 213 738 239 742 266 742 C 284 742 303 739 322 735 C 340 730 358 724 375 717 C 391 709 406 701 420 693 C 433 684 443 676 450 668 L 400 588 C 388 600 371 613 349 628 C 326 642 301 650 275 650 C 262 650 249 648 237 644 C 224 640 212 633 202 623 C 192 613 183 601 177 585 C 171 569 168 549 168 526 C 168 507 170 488 175 470 C 180 451 186 433 193 416 L 405 416 L 405 338 L 228 338 C 232 329 237 320 241 311 C 245 302 248 293 251 285 L 405 285 L 405 206 L 263 206 C 260 168 250 140 234 123 C 217 105 203 93 192 87 L 453 87 Z" unicode="£" />
<glyph horiz-adv-x="502" d="M 448 191 L 400 143 L 340 206 C 326 198 312 193 297 189 C 282 185 266 183 250 183 C 234 183 218 185 203 189 C 188 193 174 198 162 205 L 101 143 L 51 193 L 108 251 C 96 265 87 281 81 299 C 75 316 72 334 72 354 C 72 373 75 391 82 409 C 88 427 97 443 108 457 L 51 517 L 99 565 L 160 502 C 172 508 186 514 202 518 C 217 522 233 525 250 525 C 266 525 282 522 298 518 C 314 514 328 508 341 501 L 404 566 L 452 516 L 394 455 C 404 441 413 425 419 408 C 425 390 428 372 428 354 C 428 334 424 316 418 298 C 411 280 402 264 391 250 L 448 191 Z M 250 257 C 278 257 302 266 322 286 C 342 305 353 328 353 354 C 353 380 342 402 322 422 C 302 441 278 451 250 451 C 221 451 197 441 177 422 C 157 402 148 380 148 354 C 148 328 157 305 177 286 C 197 266 221 257 250 257 Z" unicode="¤" />
<glyph horiz-adv-x="465" d="M 431 129 L 287 129 L 287 0 L 177 0 L 177 129 L 35 129 L 35 207 L 177 207 L 177 255 L 35 255 L 35 333 L 174 333 L 3 730 L 114 730 L 234 429 L 359 730 L 463 730 L 291 333 L 431 333 L 431 255 L 287 255 L 287 207 L 431 207 L 431 129 Z" unicode="¥" />
<glyph horiz-adv-x="264" d="M 89 351 L 89 730 L 176 730 L 176 351 L 89 351 Z M 176 200 L 176 -179 L 89 -179 L 89 200 L 176 200 Z" unicode="¦" />
<glyph horiz-adv-x="541" d="M 288 -181 C 240 -181 194 -174 152 -161 C 109 -147 73 -129 43 -107 L 77 -22 C 105 -43 136 -61 172 -76 C 208 -90 241 -98 273 -98 C 301 -98 324 -89 341 -73 C 358 -57 367 -34 367 -6 C 367 20 360 39 346 53 C 332 67 312 80 285 94 L 192 143 C 164 155 140 167 120 178 C 99 189 82 201 69 214 C 56 227 46 242 40 260 C 33 277 30 298 30 323 C 30 353 36 379 50 399 C 63 419 79 437 99 451 C 82 463 70 479 62 499 C 54 519 50 543 50 573 C 50 599 55 623 66 644 C 77 665 92 683 112 697 C 131 711 154 722 180 730 C 206 738 235 742 265 742 C 317 742 361 733 395 717 C 429 700 456 682 477 664 L 428 586 C 404 606 379 624 354 639 C 328 654 298 662 263 662 C 231 662 205 654 185 638 C 165 622 155 600 155 573 C 155 552 162 535 176 521 C 190 507 211 494 240 481 L 358 420 C 405 399 441 376 465 352 C 489 328 502 294 502 250 C 502 220 491 194 471 172 C 450 150 427 138 402 136 C 417 125 433 108 451 85 C 469 61 478 32 478 -4 C 478 -31 473 -56 463 -78 C 453 -100 440 -118 423 -134 C 406 -149 386 -161 363 -169 C 339 -177 314 -181 288 -181 Z M 327 179 C 342 181 357 188 371 198 C 385 208 393 224 393 247 C 393 267 384 285 368 301 C 352 316 326 332 292 348 L 180 407 C 167 398 156 388 146 378 C 136 367 131 352 131 332 C 131 308 139 289 156 275 C 172 261 199 245 235 228 L 327 179 Z" unicode="§" />
<glyph horiz-adv-x="500" d="M 367 552 L 286 552 L 286 711 L 367 711 L 367 552 Z M 214 552 L 133 552 L 133 711 L 214 711 L 214 552 Z" unicode="¨" />
<glyph horiz-adv-x="816" d="M 408 17 C 358 17 311 26 267 45 C 223 64 184 90 151 123 C 118 156 92 195 73 239 C 54 283 45 330 45 380 C 45 429 54 476 73 520 C 92 564 118 603 151 636 C 184 668 223 694 267 713 C 311 732 358 742 408 742 C 458 742 505 732 549 713 C 593 694 631 668 664 636 C 697 603 723 564 742 520 C 761 476 771 429 771 380 C 771 330 761 283 742 239 C 723 195 697 156 664 123 C 631 90 593 64 549 45 C 505 26 458 17 408 17 Z M 408 82 C 448 82 486 89 522 105 C 558 121 589 142 616 169 C 642 196 663 228 679 264 C 695 300 703 338 703 379 C 703 419 695 457 679 493 C 663 529 642 561 616 588 C 589 615 558 636 522 652 C 486 668 448 676 408 676 C 367 676 329 668 293 652 C 257 636 225 615 199 588 C 172 561 151 529 136 493 C 120 457 113 419 113 379 C 113 338 120 300 136 264 C 151 228 172 196 199 169 C 225 142 257 121 293 105 C 329 89 367 82 408 82 Z M 573 249 C 558 224 537 203 509 187 C 481 170 447 162 407 162 C 381 162 357 166 333 176 C 309 185 289 199 271 217 C 253 235 238 257 228 284 C 217 311 212 342 212 377 C 212 411 217 442 227 470 C 237 498 250 521 267 540 C 284 559 304 574 328 584 C 351 594 376 600 403 600 C 446 600 481 592 508 577 C 534 561 555 542 570 519 L 502 468 C 492 482 479 494 465 504 C 450 513 430 518 406 518 C 374 518 348 504 328 477 C 308 450 298 416 298 376 C 298 332 309 298 332 274 C 354 250 380 239 409 239 C 431 239 450 244 467 254 C 483 264 497 278 508 295 L 573 249 Z" unicode="©" />
<glyph horiz-adv-x="426" d="M 381 322 L 297 322 L 297 378 C 283 358 265 342 242 332 C 218 321 192 316 164 316 C 124 316 92 327 69 350 C 46 373 35 405 35 445 C 35 489 51 522 83 544 C 115 566 159 578 214 580 L 293 586 L 293 595 C 293 617 286 634 272 645 C 258 655 239 661 213 661 C 191 661 169 657 149 649 C 129 641 111 632 96 620 L 58 685 C 77 700 101 713 131 724 C 161 735 194 741 230 741 C 276 741 313 729 340 706 C 367 683 381 646 381 595 L 381 322 Z M 294 435 L 294 514 L 209 510 C 183 508 162 503 146 493 C 129 483 121 467 121 445 C 121 428 127 415 141 405 C 154 395 171 391 193 391 C 213 391 232 395 250 403 C 268 411 283 421 294 435 Z M 383 199 L 42 199 L 42 280 L 383 280 L 383 199 Z" unicode="ª" />
<glyph horiz-adv-x="439" d="M 213 93 L 27 262 L 27 320 L 213 487 L 213 388 L 115 289 L 213 195 L 213 93 Z M 410 93 L 223 262 L 223 320 L 410 487 L 410 388 L 312 289 L 410 196 L 410 93 Z" unicode="«" />
<glyph horiz-adv-x="484" d="M 442 392 L 442 142 L 358 142 L 358 308 L 30 308 L 30 392 L 442 392 Z" unicode="¬" />
<glyph horiz-adv-x="816" d="M 408 17 C 358 17 311 26 267 45 C 223 64 184 90 151 123 C 118 156 92 195 73 239 C 54 283 45 330 45 380 C 45 429 54 476 73 520 C 92 564 118 603 151 636 C 184 668 223 694 267 713 C 311 732 358 742 408 742 C 458 742 505 732 549 713 C 593 694 631 668 664 636 C 697 603 723 564 742 520 C 761 476 771 429 771 380 C 771 330 761 283 742 239 C 723 195 697 156 664 123 C 631 90 593 64 549 45 C 505 26 458 17 408 17 Z M 408 82 C 448 82 487 89 523 104 C 559 119 590 140 616 166 C 642 192 663 224 679 261 C 695 297 703 337 703 379 C 703 421 695 460 679 497 C 663 533 642 565 616 591 C 590 617 559 638 523 653 C 487 668 448 676 408 676 C 367 676 329 668 293 653 C 257 637 225 616 199 590 C 172 563 151 531 136 495 C 120 459 113 420 113 379 C 113 337 120 298 136 262 C 151 226 172 194 199 168 C 225 141 257 120 293 105 C 329 89 367 82 408 82 Z M 273 173 L 273 601 L 426 601 C 444 601 461 598 479 594 C 496 589 511 582 525 572 C 539 562 550 550 558 535 C 566 520 571 502 571 482 C 571 444 560 416 540 397 C 519 378 497 367 475 364 L 474 360 L 603 173 L 516 173 L 404 338 L 349 338 L 349 173 L 273 173 Z M 349 404 L 428 404 C 444 404 460 409 474 420 C 488 431 495 448 496 471 C 496 493 488 509 473 518 C 458 527 440 532 419 532 L 349 532 L 349 404 Z" unicode="®" />
<glyph horiz-adv-x="500" d="M 374 569 L 126 569 L 126 649 L 374 649 L 374 569 Z" unicode="¯" />
<glyph horiz-adv-x="415" d="M 207 388 C 182 388 159 392 138 402 C 116 411 98 424 82 440 C 66 456 53 474 44 496 C 34 517 30 540 30 565 C 30 589 34 612 44 634 C 53 655 66 674 82 690 C 98 706 116 718 138 728 C 159 737 182 742 207 742 C 231 742 254 737 276 728 C 298 718 317 706 333 690 C 349 674 361 655 371 634 C 380 612 385 589 385 565 C 385 540 380 517 371 496 C 361 474 349 456 333 440 C 317 424 298 411 276 402 C 254 392 231 388 207 388 Z M 207 465 C 234 465 258 474 278 494 C 298 514 308 537 308 565 C 308 592 298 615 278 635 C 258 655 234 665 207 665 C 180 665 157 655 137 635 C 117 615 107 592 107 565 C 107 537 117 514 137 494 C 157 474 180 465 207 465 Z" unicode="°" />
<glyph horiz-adv-x="484" d="M 460 290 L 284 290 L 284 111 L 201 111 L 201 290 L 24 290 L 24 369 L 201 369 L 201 551 L 284 551 L 284 369 L 460 369 L 460 290 Z M 456 23 L 30 23 L 30 101 L 456 101 L 456 23 Z" unicode="±" />
<glyph horiz-adv-x="345" d="M 310 372 L 27 372 L 27 405 L 182 563 C 188 569 193 576 199 585 C 205 594 208 605 208 618 C 208 630 203 641 195 651 C 186 661 173 666 156 666 C 135 666 121 659 113 647 C 105 635 101 620 101 604 L 22 604 C 22 642 34 674 59 701 C 84 727 120 741 166 741 C 210 741 243 730 265 710 C 287 690 298 665 298 637 C 298 610 293 588 284 570 C 274 552 264 538 254 528 L 171 445 L 310 445 L 310 372 Z" unicode="²" />
<glyph horiz-adv-x="346" d="M 227 569 C 254 564 275 553 291 537 C 307 520 315 500 315 477 C 315 465 312 452 308 439 C 303 425 295 413 283 402 C 271 391 255 382 235 375 C 215 367 191 364 161 364 C 119 364 86 369 63 379 C 39 389 21 399 9 409 L 58 459 C 68 452 82 446 98 440 C 114 434 133 432 156 432 C 185 432 205 437 217 448 C 229 459 235 473 235 490 C 235 507 227 518 213 524 C 198 529 180 532 159 532 L 86 532 L 86 595 L 153 595 C 172 595 188 598 200 605 C 212 611 218 621 218 634 C 218 646 212 655 202 661 C 192 667 176 671 156 671 C 138 671 121 667 105 660 C 89 653 76 645 68 637 L 20 685 C 33 699 51 712 73 724 C 95 736 127 742 168 742 C 208 742 240 733 264 717 C 288 700 300 678 300 651 C 300 629 292 611 278 597 C 263 583 246 573 227 569 Z" unicode="³" />
<glyph horiz-adv-x="500" d="M 152 551 L 238 724 L 354 724 L 249 551 L 152 551 Z" unicode="´" />
<glyph horiz-adv-x="588" d="M 66 -103 L 66 508 L 167 508 L 167 166 C 167 138 179 115 203 98 C 227 81 253 73 283 73 C 299 73 315 75 331 80 C 347 84 361 91 373 100 C 385 109 396 121 404 135 C 412 149 416 165 416 183 L 416 508 L 516 508 L 516 0 L 424 0 L 424 95 C 414 69 393 45 363 25 C 332 5 300 -5 266 -6 C 243 -6 221 -1 201 8 C 181 17 167 30 159 47 L 159 -103 L 66 -103 Z" unicode="µ" />
<glyph horiz-adv-x="560" d="M 519 -181 L 450 -179 L 450 650 L 373 650 L 373 -179 L 304 -179 L 304 294 L 237 294 C 209 294 182 299 156 311 C 130 323 107 338 87 358 C 67 378 51 401 39 427 C 27 453 21 480 21 509 C 21 540 26 569 38 596 C 49 623 65 646 85 666 C 105 686 130 701 159 713 C 188 724 220 730 255 730 L 519 730 L 519 -181 Z M 305 378 L 305 646 L 280 646 C 237 646 202 633 175 608 C 147 582 134 550 134 512 C 134 476 147 444 174 418 C 201 391 233 378 271 378 L 305 378 Z" unicode="¶" />
<glyph horiz-adv-x="260" d="M 182 273 L 79 273 L 79 409 L 182 409 L 182 273 Z" unicode="·" />
<glyph horiz-adv-x="500" d="M 252 -182 C 230 -182 209 -179 189 -173 C 169 -167 152 -159 140 -149 L 159 -110 C 167 -115 177 -120 191 -126 C 204 -132 218 -135 234 -135 C 246 -135 256 -132 265 -126 C 273 -120 278 -113 278 -103 C 278 -91 274 -83 266 -78 C 258 -73 249 -71 240 -71 C 233 -71 227 -71 222 -72 C 216 -73 211 -75 206 -77 L 193 -59 L 249 14 L 301 14 L 257 -44 C 285 -41 308 -45 327 -56 C 345 -66 355 -83 355 -107 C 355 -131 345 -149 325 -162 C 305 -175 280 -182 252 -182 Z" unicode="¸" />
<glyph horiz-adv-x="318" d="M 138 372 L 138 634 C 130 622 116 612 96 604 C 76 595 59 590 47 588 L 47 678 C 71 680 93 687 111 697 C 129 707 148 722 168 740 L 230 740 L 230 372 L 138 372 Z" unicode="¹" />
<glyph horiz-adv-x="406" d="M 200 315 C 177 315 155 319 133 329 C 111 339 92 352 76 370 C 60 388 47 410 37 436 C 27 462 22 492 22 525 C 22 554 26 582 36 608 C 46 634 59 656 75 676 C 91 695 111 710 133 722 C 155 733 178 739 202 739 C 227 739 251 734 273 724 C 295 714 315 701 331 683 C 347 665 360 644 370 619 C 380 593 385 565 385 535 C 385 503 380 473 370 446 C 360 419 346 396 330 377 C 313 357 293 342 271 331 C 249 320 225 315 200 315 Z M 202 390 C 232 390 255 403 272 430 C 289 456 298 490 298 531 C 298 568 290 599 274 624 C 258 648 234 661 204 661 C 174 661 151 648 134 622 C 116 596 108 562 108 521 C 108 481 116 450 134 426 C 151 402 174 390 202 390 Z M 37 199 L 37 280 L 369 280 L 369 199 L 37 199 Z" unicode="º" />
<glyph horiz-adv-x="439" d="M 29 488 L 216 318 L 216 261 L 29 94 L 29 192 L 127 292 L 29 385 L 29 488 Z M 226 488 L 412 318 L 412 261 L 226 94 L 226 192 L 324 292 L 226 385 L 226 488 Z" unicode="»" />
<glyph horiz-adv-x="703" d="M 12 0 L 12 0 Z M 103 372 L 103 634 C 95 622 81 612 61 604 C 41 595 24 590 12 588 L 12 678 C 36 680 58 687 76 697 C 94 707 113 722 133 740 L 195 740 L 195 372 L 103 372 Z M 579 730 L 216 0 L 130 0 L 493 730 L 579 730 Z M 389 81 L 389 142 L 573 365 L 631 365 L 631 146 L 691 146 L 691 81 L 631 81 L 631 1 L 548 1 L 548 81 L 389 81 Z M 474 143 L 550 143 L 550 239 L 474 143 Z" unicode="¼" />
<glyph horiz-adv-x="773" d="M 12 0 L 12 0 Z M 103 372 L 103 634 C 95 622 81 612 61 604 C 41 595 24 590 12 588 L 12 678 C 36 680 58 687 76 697 C 94 707 113 722 133 740 L 195 740 L 195 372 L 103 372 Z M 579 730 L 216 0 L 130 0 L 493 730 L 579 730 Z M 745 0 L 462 0 L 462 33 L 617 191 C 623 197 628 204 634 213 C 640 222 643 233 643 246 C 643 258 638 269 630 279 C 621 289 608 294 591 294 C 570 294 556 287 548 275 C 540 263 536 248 536 232 L 457 232 C 457 270 469 302 494 329 C 519 355 555 369 601 369 C 645 369 678 358 700 338 C 722 318 733 293 733 265 C 733 238 728 216 719 198 C 709 180 699 166 689 156 L 606 73 L 745 73 L 745 0 Z" unicode="½" />
<glyph horiz-adv-x="762" d="M 12 0 L 12 0 Z M 638 730 L 275 0 L 189 0 L 552 730 L 638 730 Z M 448 81 L 448 142 L 632 365 L 690 365 L 690 146 L 750 146 L 750 81 L 690 81 L 690 1 L 607 1 L 607 81 L 448 81 Z M 533 143 L 609 143 L 609 239 L 533 143 Z M 230 569 C 257 564 278 553 294 537 C 310 520 318 500 318 477 C 318 465 315 452 311 439 C 306 425 298 413 286 402 C 274 391 258 382 238 375 C 218 367 194 364 164 364 C 122 364 89 369 66 379 C 42 389 24 399 12 409 L 61 459 C 71 452 85 446 101 440 C 117 434 136 432 159 432 C 188 432 208 437 220 448 C 232 459 238 473 238 490 C 238 507 230 518 216 524 C 201 529 183 532 162 532 L 89 532 L 89 595 L 156 595 C 175 595 191 598 203 605 C 215 611 221 621 221 634 C 221 646 215 655 205 661 C 195 667 179 671 159 671 C 141 671 124 667 108 660 C 92 653 79 645 71 637 L 23 685 C 36 699 54 712 76 724 C 98 736 130 742 171 742 C 211 742 243 733 267 717 C 291 700 303 678 303 651 C 303 629 295 611 281 597 C 266 583 249 573 230 569 Z" unicode="¾" />
<glyph horiz-adv-x="429" d="M 171 480 L 171 599 L 282 599 L 282 480 L 171 480 Z M 212 -143 C 152 -143 106 -127 74 -95 C 42 -63 26 -21 26 33 C 26 58 29 81 35 102 C 41 122 50 141 60 159 C 70 177 82 193 95 209 C 107 225 120 240 133 255 C 150 273 162 295 168 321 C 174 346 178 369 179 391 L 278 391 C 278 351 272 316 261 288 C 249 260 233 232 211 206 C 194 184 177 161 160 137 C 142 112 134 83 134 49 C 134 18 143 -6 162 -24 C 180 -42 204 -52 232 -52 C 256 -52 278 -45 297 -32 C 316 -18 332 -1 345 19 L 407 -42 C 383 -76 353 -101 319 -118 C 284 -134 248 -143 212 -143 Z" unicode="¿" />
<glyph horiz-adv-x="484" d="M 0 0 L 0 0 Z M 483 0 L 379 0 L 333 169 L 145 169 L 102 0 L 0 0 L 204 734 L 280 734 L 483 0 Z M 317 255 L 239 537 L 162 255 L 317 255 Z M 239 791 L 239 791 Z M 340 791 L 243 791 L 138 964 L 254 964 L 340 791 Z" unicode="À" />
<glyph horiz-adv-x="484" d="M 0 0 L 0 0 Z M 483 0 L 379 0 L 333 169 L 145 169 L 102 0 L 0 0 L 204 734 L 280 734 L 483 0 Z M 317 255 L 239 537 L 162 255 L 317 255 Z M 239 791 L 239 791 Z M 138 791 L 224 964 L 340 964 L 235 791 L 138 791 Z" unicode="Á" />
<glyph horiz-adv-x="484" d="M 0 0 L 0 0 Z M 483 0 L 379 0 L 333 169 L 145 169 L 102 0 L 0 0 L 204 734 L 280 734 L 483 0 Z M 317 255 L 239 537 L 162 255 L 317 255 Z M 239 792 L 239 792 Z M 380 792 L 296 792 L 239 893 L 181 792 L 99 792 L 197 964 L 282 964 L 380 792 Z" unicode="Â" />
<glyph horiz-adv-x="484" d="M 0 0 L 0 0 Z M 483 0 L 379 0 L 333 169 L 145 169 L 102 0 L 0 0 L 204 734 L 280 734 L 483 0 Z M 317 255 L 239 537 L 162 255 L 317 255 Z M 239 798 L 239 798 Z M 320 938 L 395 938 C 395 890 388 855 374 832 C 360 809 343 798 322 798 C 303 798 287 801 274 808 C 261 814 250 821 242 827 C 233 833 224 839 216 845 C 207 851 198 854 190 854 C 181 854 174 849 168 839 C 162 829 158 817 158 801 L 84 801 C 84 848 92 883 110 907 C 127 930 146 942 166 942 C 182 942 196 938 208 931 C 220 924 231 917 242 910 C 250 904 258 898 266 893 C 273 888 281 886 289 886 C 297 886 304 890 310 899 C 316 908 320 921 320 938 Z" unicode="Ã" />
<glyph horiz-adv-x="484" d="M 0 0 L 0 0 Z M 483 0 L 379 0 L 333 169 L 145 169 L 102 0 L 0 0 L 204 734 L 280 734 L 483 0 Z M 317 255 L 239 537 L 162 255 L 317 255 Z M 239 792 L 239 792 Z M 356 792 L 275 792 L 275 951 L 356 951 L 356 792 Z M 203 792 L 122 792 L 122 951 L 203 951 L 203 792 Z" unicode="Ä" />
<glyph horiz-adv-x="484" d="M 0 0 L 0 0 Z M 483 0 L 379 0 L 333 169 L 145 169 L 102 0 L 0 0 L 204 734 L 280 734 L 483 0 Z M 317 255 L 239 537 L 162 255 L 317 255 Z M 239 778 L 239 778 Z M 239 778 C 205 778 177 789 154 813 C 130 836 119 864 119 898 C 119 930 130 958 154 982 C 177 1005 205 1017 239 1017 C 273 1017 301 1005 325 982 C 348 958 360 930 360 898 C 360 864 348 836 325 813 C 301 789 273 778 239 778 Z M 239 837 C 255 837 269 843 281 855 C 292 867 298 881 298 898 C 298 914 292 928 281 940 C 269 952 255 958 239 958 C 223 958 209 952 198 940 C 186 928 181 914 181 898 C 181 881 186 867 198 855 C 209 843 223 837 239 837 Z" unicode="Å" />
<glyph horiz-adv-x="737" d="M 727 0 L 403 0 L 403 192 L 193 192 L 103 0 L 0 0 L 336 730 L 709 730 L 709 637 L 504 637 L 504 409 L 700 409 L 700 318 L 504 318 L 504 93 L 727 93 L 727 0 Z M 403 276 L 403 660 L 226 276 L 403 276 Z" unicode="Æ" />
<glyph horiz-adv-x="510" d="M 32 0 L 32 0 Z M 278 -7 C 242 -7 208 0 178 16 C 148 31 122 54 100 85 C 78 116 62 155 50 202 C 38 248 32 303 32 366 C 32 482 53 573 95 639 C 137 704 199 737 279 737 C 342 737 389 721 419 691 C 449 661 471 624 484 581 L 386 547 C 376 572 364 594 349 612 C 333 630 310 639 280 639 C 237 639 203 618 179 577 C 154 535 142 464 142 362 C 142 310 146 266 154 231 C 162 196 173 168 187 148 C 200 127 215 112 233 103 C 251 94 269 90 287 90 C 320 90 345 99 362 117 C 378 135 392 159 403 189 L 492 151 C 475 102 449 63 414 35 C 379 7 334 -7 278 -7 Z M 273 0 L 273 0 Z M 278 -182 C 256 -182 235 -179 215 -173 C 195 -167 178 -159 166 -149 L 185 -110 C 193 -115 203 -120 217 -126 C 230 -132 244 -135 260 -135 C 272 -135 282 -132 291 -126 C 299 -120 304 -113 304 -103 C 304 -91 300 -83 292 -78 C 284 -73 275 -71 266 -71 C 259 -71 253 -71 248 -72 C 242 -73 237 -75 232 -77 L 219 -59 L 275 14 L 327 14 L 283 -44 C 311 -41 334 -45 353 -56 C 371 -66 381 -83 381 -107 C 381 -131 371 -149 351 -162 C 331 -175 306 -182 278 -182 Z" unicode="Ç" />
<glyph horiz-adv-x="396" d="M 56 0 L 56 0 Z M 385 0 L 56 0 L 56 730 L 367 730 L 367 632 L 163 632 L 163 413 L 359 413 L 359 317 L 163 317 L 163 98 L 385 98 L 385 0 Z M 210 791 L 210 791 Z M 311 791 L 214 791 L 109 964 L 225 964 L 311 791 Z" unicode="È" />
<glyph horiz-adv-x="396" d="M 56 0 L 56 0 Z M 385 0 L 56 0 L 56 730 L 367 730 L 367 632 L 163 632 L 163 413 L 359 413 L 359 317 L 163 317 L 163 98 L 385 98 L 385 0 Z M 210 791 L 210 791 Z M 109 791 L 195 964 L 311 964 L 206 791 L 109 791 Z" unicode="É" />
<glyph horiz-adv-x="396" d="M 56 0 L 56 0 Z M 385 0 L 56 0 L 56 730 L 367 730 L 367 632 L 163 632 L 163 413 L 359 413 L 359 317 L 163 317 L 163 98 L 385 98 L 385 0 Z M 210 792 L 210 792 Z M 351 792 L 267 792 L 210 893 L 152 792 L 70 792 L 168 964 L 253 964 L 351 792 Z" unicode="Ê" />
<glyph horiz-adv-x="396" d="M 56 0 L 56 0 Z M 385 0 L 56 0 L 56 730 L 367 730 L 367 632 L 163 632 L 163 413 L 359 413 L 359 317 L 163 317 L 163 98 L 385 98 L 385 0 Z M 210 792 L 210 792 Z M 327 792 L 246 792 L 246 951 L 327 951 L 327 792 Z M 174 792 L 93 792 L 93 951 L 174 951 L 174 792 Z" unicode="Ë" />
<glyph horiz-adv-x="230" d="M 14 0 L 14 0 Z M 171 0 L 60 0 L 60 730 L 171 730 L 171 0 Z M 115 791 L 115 791 Z M 216 791 L 119 791 L 14 964 L 130 964 L 216 791 Z" unicode="Ì" />
<glyph horiz-adv-x="230" d="M 14 0 L 14 0 Z M 171 0 L 60 0 L 60 730 L 171 730 L 171 0 Z M 115 791 L 115 791 Z M 14 791 L 100 964 L 216 964 L 111 791 L 14 791 Z" unicode="Í" />
<glyph horiz-adv-x="230" d="M 0 0 L 0 0 Z M 171 0 L 60 0 L 60 730 L 171 730 L 171 0 Z M 115 792 L 115 792 Z M 256 792 L 172 792 L 115 893 L 57 792 L -25 792 L 73 964 L 158 964 L 256 792 Z" unicode="Î" />
<glyph horiz-adv-x="230" d="M 0 0 L 0 0 Z M 171 0 L 60 0 L 60 730 L 171 730 L 171 0 Z M 115 792 L 115 792 Z M 232 792 L 151 792 L 151 951 L 232 951 L 232 792 Z M 79 792 L -2 792 L -2 951 L 79 951 L 79 792 Z" unicode="Ï" />
<glyph horiz-adv-x="540" d="M 508 362 C 508 311 502 263 490 219 C 478 175 460 136 436 104 C 412 72 381 46 344 28 C 307 9 264 0 215 0 L 56 0 L 56 319 L 16 319 L 16 402 L 56 402 L 56 730 L 223 730 C 269 730 309 721 345 703 C 381 685 411 661 435 629 C 459 597 477 559 489 513 C 501 467 508 417 508 362 Z M 165 85 L 218 85 C 283 85 329 109 356 159 C 383 209 397 276 397 360 C 397 458 382 530 352 576 C 322 622 280 645 226 645 L 165 645 L 165 402 L 297 402 L 297 319 L 165 319 L 165 85 Z" unicode="Ð" />
<glyph horiz-adv-x="533" d="M 56 0 L 56 0 Z M 477 0 L 399 0 L 159 473 L 159 0 L 56 0 L 56 730 L 133 730 L 377 256 L 377 730 L 477 730 L 477 0 Z M 267 798 L 267 798 Z M 348 938 L 423 938 C 423 890 416 855 402 832 C 388 809 371 798 350 798 C 331 798 315 801 302 808 C 289 814 278 821 270 827 C 261 833 252 839 244 845 C 235 851 226 854 218 854 C 209 854 202 849 196 839 C 190 829 186 817 186 801 L 112 801 C 112 848 120 883 138 907 C 155 930 174 942 194 942 C 210 942 224 938 236 931 C 248 924 259 917 270 910 C 278 904 286 898 294 893 C 301 888 309 886 317 886 C 325 886 332 890 338 899 C 344 908 348 921 348 938 Z" unicode="Ñ" />
<glyph horiz-adv-x="569" d="M 32 0 L 32 0 Z M 287 -7 C 205 -7 142 25 98 90 C 54 155 32 249 32 371 C 32 485 54 575 99 640 C 143 704 204 737 282 737 C 364 737 427 705 471 641 C 515 577 537 485 537 365 C 537 249 514 158 468 92 C 422 26 362 -7 287 -7 Z M 285 85 C 329 85 363 108 388 154 C 412 200 425 272 425 372 C 425 464 412 533 387 577 C 361 621 327 644 283 644 C 237 644 203 622 180 578 C 156 534 145 462 145 364 C 145 265 157 194 183 150 C 208 106 242 85 285 85 Z M 283 791 L 283 791 Z M 384 791 L 287 791 L 182 964 L 298 964 L 384 791 Z" unicode="Ò" />
<glyph horiz-adv-x="569" d="M 32 0 L 32 0 Z M 287 -7 C 205 -7 142 25 98 90 C 54 155 32 249 32 371 C 32 485 54 575 99 640 C 143 704 204 737 282 737 C 364 737 427 705 471 641 C 515 577 537 485 537 365 C 537 249 514 158 468 92 C 422 26 362 -7 287 -7 Z M 285 85 C 329 85 363 108 388 154 C 412 200 425 272 425 372 C 425 464 412 533 387 577 C 361 621 327 644 283 644 C 237 644 203 622 180 578 C 156 534 145 462 145 364 C 145 265 157 194 183 150 C 208 106 242 85 285 85 Z M 283 791 L 283 791 Z M 182 791 L 268 964 L 384 964 L 279 791 L 182 791 Z" unicode="Ó" />
<glyph horiz-adv-x="569" d="M 32 0 L 32 0 Z M 287 -7 C 205 -7 142 25 98 90 C 54 155 32 249 32 371 C 32 485 54 575 99 640 C 143 704 204 737 282 737 C 364 737 427 705 471 641 C 515 577 537 485 537 365 C 537 249 514 158 468 92 C 422 26 362 -7 287 -7 Z M 285 85 C 329 85 363 108 388 154 C 412 200 425 272 425 372 C 425 464 412 533 387 577 C 361 621 327 644 283 644 C 237 644 203 622 180 578 C 156 534 145 462 145 364 C 145 265 157 194 183 150 C 208 106 242 85 285 85 Z M 283 792 L 283 792 Z M 424 792 L 340 792 L 283 893 L 225 792 L 143 792 L 241 964 L 326 964 L 424 792 Z" unicode="Ô" />
<glyph horiz-adv-x="569" d="M 32 0 L 32 0 Z M 287 -7 C 205 -7 142 25 98 90 C 54 155 32 249 32 371 C 32 485 54 575 99 640 C 143 704 204 737 282 737 C 364 737 427 705 471 641 C 515 577 537 485 537 365 C 537 249 514 158 468 92 C 422 26 362 -7 287 -7 Z M 285 85 C 329 85 363 108 388 154 C 412 200 425 272 425 372 C 425 464 412 533 387 577 C 361 621 327 644 283 644 C 237 644 203 622 180 578 C 156 534 145 462 145 364 C 145 265 157 194 183 150 C 208 106 242 85 285 85 Z M 283 798 L 283 798 Z M 364 938 L 439 938 C 439 890 432 855 418 832 C 404 809 387 798 366 798 C 347 798 331 801 318 808 C 305 814 294 821 286 827 C 277 833 268 839 260 845 C 251 851 242 854 234 854 C 225 854 218 849 212 839 C 206 829 202 817 202 801 L 128 801 C 128 848 136 883 154 907 C 171 930 190 942 210 942 C 226 942 240 938 252 931 C 264 924 275 917 286 910 C 294 904 302 898 310 893 C 317 888 325 886 333 886 C 341 886 348 890 354 899 C 360 908 364 921 364 938 Z" unicode="Õ" />
<glyph horiz-adv-x="569" d="M 32 0 L 32 0 Z M 287 -7 C 205 -7 142 25 98 90 C 54 155 32 249 32 371 C 32 485 54 575 99 640 C 143 704 204 737 282 737 C 364 737 427 705 471 641 C 515 577 537 485 537 365 C 537 249 514 158 468 92 C 422 26 362 -7 287 -7 Z M 285 85 C 329 85 363 108 388 154 C 412 200 425 272 425 372 C 425 464 412 533 387 577 C 361 621 327 644 283 644 C 237 644 203 622 180 578 C 156 534 145 462 145 364 C 145 265 157 194 183 150 C 208 106 242 85 285 85 Z M 283 792 L 283 792 Z M 400 792 L 319 792 L 319 951 L 400 951 L 400 792 Z M 247 792 L 166 792 L 166 951 L 247 951 L 247 792 Z" unicode="Ö" />
<glyph horiz-adv-x="484" d="M 110 142 L 55 197 L 188 329 L 56 460 L 111 516 L 242 384 L 375 516 L 429 460 L 297 329 L 430 197 L 375 140 L 242 275 L 110 142 Z" unicode="×" />
<glyph horiz-adv-x="569" d="M 537 365 C 537 249 514 158 468 92 C 422 26 362 -7 287 -7 C 251 -7 218 0 189 12 C 160 24 135 43 114 68 L 64 -7 L 17 24 L 81 119 C 65 150 52 187 44 229 C 36 271 32 319 32 371 C 32 485 54 575 99 640 C 143 704 204 737 282 737 C 316 737 347 731 375 720 C 403 708 428 692 449 670 L 504 752 L 551 722 L 484 622 C 501 591 514 554 523 511 C 532 467 537 419 537 365 Z M 145 364 C 145 338 146 314 148 292 C 150 270 152 249 156 231 L 387 578 C 375 600 360 616 343 627 C 325 638 305 644 283 644 C 237 644 203 622 180 578 C 156 534 145 462 145 364 Z M 425 372 C 425 400 423 425 421 449 C 419 473 415 494 411 513 L 177 162 C 189 135 204 115 222 103 C 240 91 261 85 285 85 C 329 85 363 108 388 154 C 412 200 425 272 425 372 Z" unicode="Ø" />
<glyph horiz-adv-x="534" d="M 53 0 L 53 0 Z M 481 730 L 481 220 C 481 179 475 144 463 116 C 451 87 434 63 414 45 C 394 27 370 13 344 5 C 317 -2 289 -7 260 -7 C 232 -7 206 -3 181 5 C 155 13 133 26 115 44 C 96 62 81 85 70 114 C 58 143 53 178 53 220 L 53 730 L 161 730 L 161 217 C 161 169 170 136 190 117 C 209 97 234 88 264 88 C 293 88 318 97 338 115 C 358 133 369 167 369 217 L 369 730 L 481 730 Z M 265 791 L 265 791 Z M 366 791 L 269 791 L 164 964 L 280 964 L 366 791 Z" unicode="Ù" />
<glyph horiz-adv-x="534" d="M 53 0 L 53 0 Z M 481 730 L 481 220 C 481 179 475 144 463 116 C 451 87 434 63 414 45 C 394 27 370 13 344 5 C 317 -2 289 -7 260 -7 C 232 -7 206 -3 181 5 C 155 13 133 26 115 44 C 96 62 81 85 70 114 C 58 143 53 178 53 220 L 53 730 L 161 730 L 161 217 C 161 169 170 136 190 117 C 209 97 234 88 264 88 C 293 88 318 97 338 115 C 358 133 369 167 369 217 L 369 730 L 481 730 Z M 265 791 L 265 791 Z M 164 791 L 250 964 L 366 964 L 261 791 L 164 791 Z" unicode="Ú" />
<glyph horiz-adv-x="534" d="M 53 0 L 53 0 Z M 481 730 L 481 220 C 481 179 475 144 463 116 C 451 87 434 63 414 45 C 394 27 370 13 344 5 C 317 -2 289 -7 260 -7 C 232 -7 206 -3 181 5 C 155 13 133 26 115 44 C 96 62 81 85 70 114 C 58 143 53 178 53 220 L 53 730 L 161 730 L 161 217 C 161 169 170 136 190 117 C 209 97 234 88 264 88 C 293 88 318 97 338 115 C 358 133 369 167 369 217 L 369 730 L 481 730 Z M 265 792 L 265 792 Z M 406 792 L 322 792 L 265 893 L 207 792 L 125 792 L 223 964 L 308 964 L 406 792 Z" unicode="Û" />
<glyph horiz-adv-x="534" d="M 53 0 L 53 0 Z M 481 730 L 481 220 C 481 179 475 144 463 116 C 451 87 434 63 414 45 C 394 27 370 13 344 5 C 317 -2 289 -7 260 -7 C 232 -7 206 -3 181 5 C 155 13 133 26 115 44 C 96 62 81 85 70 114 C 58 143 53 178 53 220 L 53 730 L 161 730 L 161 217 C 161 169 170 136 190 117 C 209 97 234 88 264 88 C 293 88 318 97 338 115 C 358 133 369 167 369 217 L 369 730 L 481 730 Z M 265 792 L 265 792 Z M 382 792 L 301 792 L 301 951 L 382 951 L 382 792 Z M 229 792 L 148 792 L 148 951 L 229 951 L 229 792 Z" unicode="Ü" />
<glyph horiz-adv-x="464" d="M 0 0 L 0 0 Z M 469 730 L 285 311 L 285 0 L 175 0 L 175 313 L -4 730 L 116 730 L 236 426 L 363 730 L 469 730 Z M 236 791 L 236 791 Z M 135 791 L 221 964 L 337 964 L 232 791 L 135 791 Z" unicode="Ý" />
<glyph horiz-adv-x="448" d="M 56 0 L 56 730 L 166 730 L 166 604 L 237 604 C 264 604 289 599 313 589 C 337 579 357 565 375 547 C 393 529 407 506 417 479 C 427 452 433 421 433 387 C 433 315 414 259 376 219 C 338 179 290 159 232 159 L 166 159 L 166 0 L 56 0 Z M 163 245 L 228 245 C 258 245 283 257 303 281 C 322 305 332 340 332 386 C 332 428 321 461 300 483 C 278 505 254 516 228 516 L 163 516 L 163 245 Z" unicode="Þ" />
<glyph horiz-adv-x="492" d="M 344 -5 C 310 -5 281 1 255 14 C 229 26 209 43 195 63 L 245 129 C 257 113 271 101 286 92 C 301 83 317 79 334 79 C 348 79 362 83 374 92 C 386 101 392 115 392 134 C 392 151 383 166 367 179 C 351 192 329 207 303 224 C 273 242 249 262 231 284 C 213 306 204 334 204 370 C 204 406 213 434 233 456 C 253 478 274 493 297 502 C 303 504 310 514 316 530 C 322 546 325 572 326 609 C 326 647 318 674 302 691 C 286 707 265 716 240 716 C 216 716 196 707 180 689 C 164 671 157 644 157 606 L 157 0 L 55 0 L 55 612 C 55 672 71 719 105 751 C 138 783 183 800 239 800 C 291 800 334 783 368 751 C 402 718 419 668 419 602 C 419 552 411 512 396 483 C 381 453 366 437 351 434 C 334 432 319 426 307 418 C 294 410 288 397 288 380 C 288 363 295 348 309 336 C 323 323 346 307 376 288 C 410 267 435 245 452 223 C 468 201 477 170 477 130 C 477 107 472 87 464 70 C 455 53 444 39 431 28 C 418 16 404 8 388 3 C 372 -2 358 -5 344 -5 Z" unicode="ß" />
<glyph horiz-adv-x="378" d="M 17 0 L 17 0 Z M 340 0 L 253 0 L 253 48 C 238 30 222 17 204 8 C 186 0 164 -5 137 -5 C 103 -5 74 8 51 35 C 28 62 17 100 17 148 C 17 202 32 241 63 265 C 93 289 130 303 173 306 L 246 311 L 246 341 C 246 365 239 383 227 395 C 214 407 195 413 171 413 C 148 413 129 409 113 402 C 97 394 84 387 76 379 L 47 454 C 61 466 81 477 105 486 C 129 494 159 499 195 499 C 237 499 271 487 299 463 C 326 439 340 405 340 359 L 340 0 Z M 248 111 L 248 240 L 194 236 C 172 234 152 227 136 213 C 120 199 112 177 112 148 C 112 122 118 103 132 92 C 146 80 160 75 176 75 C 193 75 207 78 219 86 C 231 93 240 101 248 111 Z M 184 551 L 184 551 Z M 285 551 L 188 551 L 83 724 L 199 724 L 285 551 Z" unicode="à" />
<glyph horiz-adv-x="378" d="M 17 0 L 17 0 Z M 340 0 L 253 0 L 253 48 C 238 30 222 17 204 8 C 186 0 164 -5 137 -5 C 103 -5 74 8 51 35 C 28 62 17 100 17 148 C 17 202 32 241 63 265 C 93 289 130 303 173 306 L 246 311 L 246 341 C 246 365 239 383 227 395 C 214 407 195 413 171 413 C 148 413 129 409 113 402 C 97 394 84 387 76 379 L 47 454 C 61 466 81 477 105 486 C 129 494 159 499 195 499 C 237 499 271 487 299 463 C 326 439 340 405 340 359 L 340 0 Z M 248 111 L 248 240 L 194 236 C 172 234 152 227 136 213 C 120 199 112 177 112 148 C 112 122 118 103 132 92 C 146 80 160 75 176 75 C 193 75 207 78 219 86 C 231 93 240 101 248 111 Z M 184 551 L 184 551 Z M 83 551 L 169 724 L 285 724 L 180 551 L 83 551 Z" unicode="á" />
<glyph horiz-adv-x="378" d="M 17 0 L 17 0 Z M 340 0 L 253 0 L 253 48 C 238 30 222 17 204 8 C 186 0 164 -5 137 -5 C 103 -5 74 8 51 35 C 28 62 17 100 17 148 C 17 202 32 241 63 265 C 93 289 130 303 173 306 L 246 311 L 246 341 C 246 365 239 383 227 395 C 214 407 195 413 171 413 C 148 413 129 409 113 402 C 97 394 84 387 76 379 L 47 454 C 61 466 81 477 105 486 C 129 494 159 499 195 499 C 237 499 271 487 299 463 C 326 439 340 405 340 359 L 340 0 Z M 248 111 L 248 240 L 194 236 C 172 234 152 227 136 213 C 120 199 112 177 112 148 C 112 122 118 103 132 92 C 146 80 160 75 176 75 C 193 75 207 78 219 86 C 231 93 240 101 248 111 Z M 184 552 L 184 552 Z M 325 552 L 241 552 L 184 653 L 126 552 L 44 552 L 142 724 L 227 724 L 325 552 Z" unicode="â" />
<glyph horiz-adv-x="378" d="M 17 0 L 17 0 Z M 340 0 L 253 0 L 253 48 C 238 30 222 17 204 8 C 186 0 164 -5 137 -5 C 103 -5 74 8 51 35 C 28 62 17 100 17 148 C 17 202 32 241 63 265 C 93 289 130 303 173 306 L 246 311 L 246 341 C 246 365 239 383 227 395 C 214 407 195 413 171 413 C 148 413 129 409 113 402 C 97 394 84 387 76 379 L 47 454 C 61 466 81 477 105 486 C 129 494 159 499 195 499 C 237 499 271 487 299 463 C 326 439 340 405 340 359 L 340 0 Z M 248 111 L 248 240 L 194 236 C 172 234 152 227 136 213 C 120 199 112 177 112 148 C 112 122 118 103 132 92 C 146 80 160 75 176 75 C 193 75 207 78 219 86 C 231 93 240 101 248 111 Z M 184 558 L 184 558 Z M 265 698 L 340 698 C 340 650 333 615 319 592 C 305 569 288 558 267 558 C 248 558 232 561 219 568 C 206 574 195 581 187 587 C 178 593 169 599 161 605 C 152 611 143 614 135 614 C 126 614 119 609 113 599 C 107 589 103 577 103 561 L 29 561 C 29 608 37 643 55 667 C 72 690 91 702 111 702 C 127 702 141 698 153 691 C 165 684 176 677 187 670 C 195 664 203 658 211 653 C 218 648 226 646 234 646 C 242 646 249 650 255 659 C 261 668 265 681 265 698 Z" unicode="ã" />
<glyph horiz-adv-x="378" d="M 17 0 L 17 0 Z M 340 0 L 253 0 L 253 48 C 238 30 222 17 204 8 C 186 0 164 -5 137 -5 C 103 -5 74 8 51 35 C 28 62 17 100 17 148 C 17 202 32 241 63 265 C 93 289 130 303 173 306 L 246 311 L 246 341 C 246 365 239 383 227 395 C 214 407 195 413 171 413 C 148 413 129 409 113 402 C 97 394 84 387 76 379 L 47 454 C 61 466 81 477 105 486 C 129 494 159 499 195 499 C 237 499 271 487 299 463 C 326 439 340 405 340 359 L 340 0 Z M 248 111 L 248 240 L 194 236 C 172 234 152 227 136 213 C 120 199 112 177 112 148 C 112 122 118 103 132 92 C 146 80 160 75 176 75 C 193 75 207 78 219 86 C 231 93 240 101 248 111 Z M 184 552 L 184 552 Z M 301 552 L 220 552 L 220 711 L 301 711 L 301 552 Z M 148 552 L 67 552 L 67 711 L 148 711 L 148 552 Z" unicode="ä" />
<glyph horiz-adv-x="378" d="M 17 0 L 17 0 Z M 340 0 L 253 0 L 253 48 C 238 30 222 17 204 8 C 186 0 164 -5 137 -5 C 103 -5 74 8 51 35 C 28 62 17 100 17 148 C 17 202 32 241 63 265 C 93 289 130 303 173 306 L 246 311 L 246 341 C 246 365 239 383 227 395 C 214 407 195 413 171 413 C 148 413 129 409 113 402 C 97 394 84 387 76 379 L 47 454 C 61 466 81 477 105 486 C 129 494 159 499 195 499 C 237 499 271 487 299 463 C 326 439 340 405 340 359 L 340 0 Z M 248 111 L 248 240 L 194 236 C 172 234 152 227 136 213 C 120 199 112 177 112 148 C 112 122 118 103 132 92 C 146 80 160 75 176 75 C 193 75 207 78 219 86 C 231 93 240 101 248 111 Z M 184 538 L 184 538 Z M 184 538 C 150 538 122 549 99 573 C 75 596 64 624 64 658 C 64 690 75 718 99 742 C 122 765 150 777 184 777 C 218 777 246 765 270 742 C 293 718 305 690 305 658 C 305 624 293 596 270 573 C 246 549 218 538 184 538 Z M 184 597 C 200 597 214 603 226 615 C 237 627 243 641 243 658 C 243 674 237 688 226 700 C 214 712 200 718 184 718 C 168 718 154 712 143 700 C 131 688 126 674 126 658 C 126 641 131 627 143 615 C 154 603 168 597 184 597 Z" unicode="å" />
<glyph horiz-adv-x="612" d="M 421 -5 C 382 -5 351 4 329 23 C 307 42 292 62 285 82 C 274 54 256 33 230 18 C 204 2 176 -5 145 -5 C 111 -5 81 8 56 35 C 30 62 18 99 18 146 C 18 199 33 238 63 263 C 93 288 130 302 173 305 L 248 310 L 248 330 C 248 362 241 384 227 396 C 213 408 194 414 170 414 C 146 414 126 410 110 402 C 94 394 82 386 75 380 L 47 453 C 61 465 80 476 103 484 C 125 492 152 496 184 496 C 210 496 235 490 258 479 C 281 467 295 450 301 428 C 309 444 323 459 343 473 C 363 487 390 494 424 494 C 478 494 519 470 549 422 C 578 374 593 307 593 220 L 341 220 C 341 174 349 138 365 114 C 381 89 403 77 433 77 C 457 77 477 82 492 93 C 507 104 521 117 534 132 L 584 79 C 570 60 550 41 525 23 C 499 4 465 -5 421 -5 Z M 339 288 L 497 288 C 496 327 489 358 475 380 C 461 402 443 414 420 414 C 396 414 378 403 364 381 C 350 359 341 328 339 288 Z M 178 75 C 196 75 213 81 227 93 C 241 105 248 123 249 146 L 249 239 L 193 235 C 171 234 152 227 136 214 C 120 200 112 179 112 149 C 112 122 119 103 133 92 C 147 80 162 75 178 75 Z" unicode="æ" />
<glyph horiz-adv-x="352" d="M 20 0 L 20 0 Z M 287 125 L 343 70 C 332 52 316 35 295 19 C 274 3 245 -5 207 -5 C 177 -5 150 1 127 13 C 103 25 84 43 68 65 C 52 87 40 114 32 144 C 24 174 20 208 20 244 C 20 277 24 309 32 340 C 40 370 51 397 67 420 C 83 442 102 460 126 474 C 149 488 176 495 208 495 C 244 495 273 486 296 470 C 319 453 336 435 347 416 L 281 359 C 273 372 264 383 252 393 C 240 403 226 408 208 408 C 182 408 161 393 147 365 C 132 336 125 297 125 248 C 125 189 134 146 152 119 C 170 91 193 78 219 78 C 237 78 252 83 262 94 C 272 104 280 115 287 125 Z M 192 0 L 192 0 Z M 197 -182 C 175 -182 154 -179 134 -173 C 114 -167 97 -159 85 -149 L 104 -110 C 112 -115 122 -120 136 -126 C 149 -132 163 -135 179 -135 C 191 -135 201 -132 210 -126 C 218 -120 223 -113 223 -103 C 223 -91 219 -83 211 -78 C 203 -73 194 -71 185 -71 C 178 -71 172 -71 167 -72 C 161 -73 156 -75 151 -77 L 138 -59 L 194 14 L 246 14 L 202 -44 C 230 -41 253 -45 272 -56 C 290 -66 300 -83 300 -107 C 300 -131 290 -149 270 -162 C 250 -175 225 -182 197 -182 Z" unicode="ç" />
<glyph horiz-adv-x="392" d="M 20 0 L 20 0 Z M 203 -5 C 148 -5 104 17 70 61 C 36 105 20 166 20 242 C 20 281 24 316 34 348 C 43 380 56 406 72 428 C 88 449 106 465 128 477 C 150 489 173 495 198 495 C 256 495 299 471 329 423 C 358 375 373 307 373 219 L 120 219 C 120 172 128 137 145 113 C 161 89 185 77 215 77 C 239 77 259 82 275 94 C 291 106 304 119 315 133 L 364 79 C 350 60 331 41 305 23 C 279 4 245 -5 203 -5 Z M 121 289 L 276 289 C 275 329 268 359 256 381 C 243 403 225 414 203 414 C 179 414 160 403 146 381 C 132 359 123 329 121 289 Z M 199 551 L 199 551 Z M 300 551 L 203 551 L 98 724 L 214 724 L 300 551 Z" unicode="è" />
<glyph horiz-adv-x="392" d="M 20 0 L 20 0 Z M 203 -5 C 148 -5 104 17 70 61 C 36 105 20 166 20 242 C 20 281 24 316 34 348 C 43 380 56 406 72 428 C 88 449 106 465 128 477 C 150 489 173 495 198 495 C 256 495 299 471 329 423 C 358 375 373 307 373 219 L 120 219 C 120 172 128 137 145 113 C 161 89 185 77 215 77 C 239 77 259 82 275 94 C 291 106 304 119 315 133 L 364 79 C 350 60 331 41 305 23 C 279 4 245 -5 203 -5 Z M 121 289 L 276 289 C 275 329 268 359 256 381 C 243 403 225 414 203 414 C 179 414 160 403 146 381 C 132 359 123 329 121 289 Z M 199 551 L 199 551 Z M 98 551 L 184 724 L 300 724 L 195 551 L 98 551 Z" unicode="é" />
<glyph horiz-adv-x="392" d="M 20 0 L 20 0 Z M 203 -5 C 148 -5 104 17 70 61 C 36 105 20 166 20 242 C 20 281 24 316 34 348 C 43 380 56 406 72 428 C 88 449 106 465 128 477 C 150 489 173 495 198 495 C 256 495 299 471 329 423 C 358 375 373 307 373 219 L 120 219 C 120 172 128 137 145 113 C 161 89 185 77 215 77 C 239 77 259 82 275 94 C 291 106 304 119 315 133 L 364 79 C 350 60 331 41 305 23 C 279 4 245 -5 203 -5 Z M 121 289 L 276 289 C 275 329 268 359 256 381 C 243 403 225 414 203 414 C 179 414 160 403 146 381 C 132 359 123 329 121 289 Z M 199 552 L 199 552 Z M 340 552 L 256 552 L 199 653 L 141 552 L 59 552 L 157 724 L 242 724 L 340 552 Z" unicode="ê" />
<glyph horiz-adv-x="392" d="M 20 0 L 20 0 Z M 203 -5 C 148 -5 104 17 70 61 C 36 105 20 166 20 242 C 20 281 24 316 34 348 C 43 380 56 406 72 428 C 88 449 106 465 128 477 C 150 489 173 495 198 495 C 256 495 299 471 329 423 C 358 375 373 307 373 219 L 120 219 C 120 172 128 137 145 113 C 161 89 185 77 215 77 C 239 77 259 82 275 94 C 291 106 304 119 315 133 L 364 79 C 350 60 331 41 305 23 C 279 4 245 -5 203 -5 Z M 121 289 L 276 289 C 275 329 268 359 256 381 C 243 403 225 414 203 414 C 179 414 160 403 146 381 C 132 359 123 329 121 289 Z M 199 552 L 199 552 Z M 316 552 L 235 552 L 235 711 L 316 711 L 316 552 Z M 163 552 L 82 552 L 82 711 L 163 711 L 163 552 Z" unicode="ë" />
<glyph horiz-adv-x="181" d="M 0 0 L 0 0 Z M 141 0 L 40 0 L 40 490 L 141 490 L 141 0 Z M 89 551 L 89 551 Z M 190 551 L 93 551 L -12 724 L 104 724 L 190 551 Z" unicode="ì" />
<glyph horiz-adv-x="181" d="M 0 0 L 0 0 Z M 141 0 L 40 0 L 40 490 L 141 490 L 141 0 Z M 89 551 L 89 551 Z M -12 551 L 74 724 L 190 724 L 85 551 L -12 551 Z" unicode="í" />
<glyph horiz-adv-x="181" d="M 0 0 L 0 0 Z M 141 0 L 40 0 L 40 490 L 141 490 L 141 0 Z M 89 552 L 89 552 Z M 230 552 L 146 552 L 89 653 L 31 552 L -51 552 L 47 724 L 132 724 L 230 552 Z" unicode="î" />
<glyph horiz-adv-x="181" d="M 0 0 L 0 0 Z M 141 0 L 40 0 L 40 490 L 141 490 L 141 0 Z M 89 552 L 89 552 Z M 206 552 L 125 552 L 125 711 L 206 711 L 206 552 Z M 53 552 L -28 552 L -28 711 L 53 711 L 53 552 Z" unicode="ï" />
<glyph horiz-adv-x="418" d="M 389 296 C 389 252 385 212 377 175 C 369 137 358 105 343 78 C 327 51 308 30 286 15 C 263 0 236 -8 206 -8 C 151 -8 106 13 72 56 C 37 99 20 160 20 238 C 20 279 24 315 34 347 C 44 378 56 404 72 424 C 88 444 106 460 126 470 C 146 480 167 486 189 486 C 215 486 236 481 253 472 C 270 462 284 449 295 433 C 291 463 285 494 276 524 C 267 554 257 583 246 611 L 174 581 L 148 653 L 214 680 C 203 701 192 719 181 735 C 170 751 161 762 155 769 L 231 801 C 238 793 247 781 258 767 C 269 752 280 734 292 713 L 356 739 L 382 668 L 325 644 C 342 602 357 551 370 493 C 382 434 389 368 389 296 Z M 203 77 C 229 77 249 90 263 116 C 276 142 283 183 283 239 C 283 299 276 341 262 366 C 248 391 227 404 201 404 C 176 404 157 390 143 363 C 129 335 123 294 123 240 C 123 182 130 141 144 115 C 158 89 177 77 203 77 Z" unicode="ð" />
<glyph horiz-adv-x="407" d="M 38 0 L 38 0 Z M 369 0 L 269 0 L 269 345 C 269 365 263 381 253 392 C 242 402 227 408 209 408 C 189 408 173 402 159 390 C 145 378 139 357 139 325 L 139 0 L 38 0 L 38 490 L 128 490 L 128 423 C 136 443 149 460 169 474 C 188 488 214 495 247 495 C 283 495 313 485 335 467 C 357 449 369 419 369 379 L 369 0 Z M 204 558 L 204 558 Z M 285 698 L 360 698 C 360 650 353 615 339 592 C 325 569 308 558 287 558 C 268 558 252 561 239 568 C 226 574 215 581 207 587 C 198 593 189 599 181 605 C 172 611 163 614 155 614 C 146 614 139 609 133 599 C 127 589 123 577 123 561 L 49 561 C 49 608 57 643 75 667 C 92 690 111 702 131 702 C 147 702 161 698 173 691 C 185 684 196 677 207 670 C 215 664 223 658 231 653 C 238 648 246 646 254 646 C 262 646 269 650 275 659 C 281 668 285 681 285 698 Z" unicode="ñ" />
<glyph horiz-adv-x="407" d="M 20 0 L 20 0 Z M 204 -5 C 150 -5 106 16 72 58 C 37 100 20 162 20 244 C 20 320 36 380 69 426 C 102 472 145 495 198 495 C 255 495 301 474 335 432 C 369 390 387 332 387 257 C 387 177 370 114 338 66 C 305 18 260 -5 204 -5 Z M 204 78 C 230 78 249 91 262 118 C 275 144 282 188 282 248 C 282 307 275 349 261 373 C 247 397 227 410 201 410 C 177 410 158 397 145 372 C 131 347 125 306 125 248 C 125 184 132 139 146 115 C 160 90 180 78 204 78 Z M 204 551 L 204 551 Z M 305 551 L 208 551 L 103 724 L 219 724 L 305 551 Z" unicode="ò" />
<glyph horiz-adv-x="407" d="M 20 0 L 20 0 Z M 204 -5 C 150 -5 106 16 72 58 C 37 100 20 162 20 244 C 20 320 36 380 69 426 C 102 472 145 495 198 495 C 255 495 301 474 335 432 C 369 390 387 332 387 257 C 387 177 370 114 338 66 C 305 18 260 -5 204 -5 Z M 204 78 C 230 78 249 91 262 118 C 275 144 282 188 282 248 C 282 307 275 349 261 373 C 247 397 227 410 201 410 C 177 410 158 397 145 372 C 131 347 125 306 125 248 C 125 184 132 139 146 115 C 160 90 180 78 204 78 Z M 204 551 L 204 551 Z M 103 551 L 189 724 L 305 724 L 200 551 L 103 551 Z" unicode="ó" />
<glyph horiz-adv-x="407" d="M 20 0 L 20 0 Z M 204 -5 C 150 -5 106 16 72 58 C 37 100 20 162 20 244 C 20 320 36 380 69 426 C 102 472 145 495 198 495 C 255 495 301 474 335 432 C 369 390 387 332 387 257 C 387 177 370 114 338 66 C 305 18 260 -5 204 -5 Z M 204 78 C 230 78 249 91 262 118 C 275 144 282 188 282 248 C 282 307 275 349 261 373 C 247 397 227 410 201 410 C 177 410 158 397 145 372 C 131 347 125 306 125 248 C 125 184 132 139 146 115 C 160 90 180 78 204 78 Z M 204 552 L 204 552 Z M 345 552 L 261 552 L 204 653 L 146 552 L 64 552 L 162 724 L 247 724 L 345 552 Z" unicode="ô" />
<glyph horiz-adv-x="407" d="M 20 0 L 20 0 Z M 204 -5 C 150 -5 106 16 72 58 C 37 100 20 162 20 244 C 20 320 36 380 69 426 C 102 472 145 495 198 495 C 255 495 301 474 335 432 C 369 390 387 332 387 257 C 387 177 370 114 338 66 C 305 18 260 -5 204 -5 Z M 204 78 C 230 78 249 91 262 118 C 275 144 282 188 282 248 C 282 307 275 349 261 373 C 247 397 227 410 201 410 C 177 410 158 397 145 372 C 131 347 125 306 125 248 C 125 184 132 139 146 115 C 160 90 180 78 204 78 Z M 204 558 L 204 558 Z M 285 698 L 360 698 C 360 650 353 615 339 592 C 325 569 308 558 287 558 C 268 558 252 561 239 568 C 226 574 215 581 207 587 C 198 593 189 599 181 605 C 172 611 163 614 155 614 C 146 614 139 609 133 599 C 127 589 123 577 123 561 L 49 561 C 49 608 57 643 75 667 C 92 690 111 702 131 702 C 147 702 161 698 173 691 C 185 684 196 677 207 670 C 215 664 223 658 231 653 C 238 648 246 646 254 646 C 262 646 269 650 275 659 C 281 668 285 681 285 698 Z" unicode="õ" />
<glyph horiz-adv-x="407" d="M 20 0 L 20 0 Z M 204 -5 C 150 -5 106 16 72 58 C 37 100 20 162 20 244 C 20 320 36 380 69 426 C 102 472 145 495 198 495 C 255 495 301 474 335 432 C 369 390 387 332 387 257 C 387 177 370 114 338 66 C 305 18 260 -5 204 -5 Z M 204 78 C 230 78 249 91 262 118 C 275 144 282 188 282 248 C 282 307 275 349 261 373 C 247 397 227 410 201 410 C 177 410 158 397 145 372 C 131 347 125 306 125 248 C 125 184 132 139 146 115 C 160 90 180 78 204 78 Z M 204 552 L 204 552 Z M 321 552 L 240 552 L 240 711 L 321 711 L 321 552 Z M 168 552 L 87 552 L 87 711 L 168 711 L 168 552 Z" unicode="ö" />
<glyph horiz-adv-x="484" d="M 194 448 L 194 567 L 290 567 L 290 448 L 194 448 Z M 24 287 L 24 374 L 459 374 L 459 287 L 24 287 Z M 194 94 L 194 212 L 290 212 L 290 94 L 194 94 Z" unicode="÷" />
<glyph horiz-adv-x="407" d="M 387 257 C 387 177 370 114 338 66 C 305 18 260 -5 204 -5 C 182 -5 162 -1 143 5 C 123 12 106 22 92 36 L 66 -3 L 32 23 L 63 70 C 49 90 39 115 31 144 C 23 173 20 206 20 244 C 20 320 36 380 69 426 C 102 472 145 495 198 495 C 222 495 244 491 264 484 C 284 476 302 466 318 452 L 346 494 L 380 469 L 346 418 C 358 398 368 374 376 347 C 383 320 387 290 387 257 Z M 125 248 C 125 232 125 218 126 205 C 127 192 128 180 130 170 L 263 370 C 256 384 247 394 237 400 C 227 406 215 410 201 410 C 177 410 158 397 145 372 C 131 347 125 306 125 248 Z M 282 248 C 282 260 281 272 281 284 C 280 296 279 306 278 316 L 146 117 C 152 103 160 93 170 87 C 180 81 191 78 204 78 C 230 78 249 91 262 118 C 275 144 282 188 282 248 Z" unicode="ø" />
<glyph horiz-adv-x="407" d="M 37 0 L 37 0 Z M 37 490 L 138 490 L 138 150 C 138 124 143 105 154 93 C 165 81 181 75 201 75 C 219 75 234 81 248 95 C 261 108 268 133 268 169 L 268 490 L 368 490 L 368 0 L 276 0 L 276 61 C 268 42 254 26 234 13 C 214 0 189 -6 159 -6 C 126 -6 97 4 73 25 C 49 46 37 79 37 123 L 37 490 Z M 202 551 L 202 551 Z M 303 551 L 206 551 L 101 724 L 217 724 L 303 551 Z" unicode="ù" />
<glyph horiz-adv-x="407" d="M 37 0 L 37 0 Z M 37 490 L 138 490 L 138 150 C 138 124 143 105 154 93 C 165 81 181 75 201 75 C 219 75 234 81 248 95 C 261 108 268 133 268 169 L 268 490 L 368 490 L 368 0 L 276 0 L 276 61 C 268 42 254 26 234 13 C 214 0 189 -6 159 -6 C 126 -6 97 4 73 25 C 49 46 37 79 37 123 L 37 490 Z M 202 551 L 202 551 Z M 101 551 L 187 724 L 303 724 L 198 551 L 101 551 Z" unicode="ú" />
<glyph horiz-adv-x="407" d="M 37 0 L 37 0 Z M 37 490 L 138 490 L 138 150 C 138 124 143 105 154 93 C 165 81 181 75 201 75 C 219 75 234 81 248 95 C 261 108 268 133 268 169 L 268 490 L 368 490 L 368 0 L 276 0 L 276 61 C 268 42 254 26 234 13 C 214 0 189 -6 159 -6 C 126 -6 97 4 73 25 C 49 46 37 79 37 123 L 37 490 Z M 202 552 L 202 552 Z M 343 552 L 259 552 L 202 653 L 144 552 L 62 552 L 160 724 L 245 724 L 343 552 Z" unicode="û" />
<glyph horiz-adv-x="407" d="M 37 0 L 37 0 Z M 37 490 L 138 490 L 138 150 C 138 124 143 105 154 93 C 165 81 181 75 201 75 C 219 75 234 81 248 95 C 261 108 268 133 268 169 L 268 490 L 368 490 L 368 0 L 276 0 L 276 61 C 268 42 254 26 234 13 C 214 0 189 -6 159 -6 C 126 -6 97 4 73 25 C 49 46 37 79 37 123 L 37 490 Z M 202 552 L 202 552 Z M 319 552 L 238 552 L 238 711 L 319 711 L 319 552 Z M 166 552 L 85 552 L 85 711 L 166 711 L 166 552 Z" unicode="ü" />
<glyph horiz-adv-x="347" d="M 0 0 L 0 0 Z M 352 490 L 183 -100 C 173 -132 157 -157 134 -174 C 111 -191 85 -200 56 -200 C 34 -200 16 -197 2 -193 C -11 -188 -22 -183 -29 -179 L 8 -102 C 10 -104 16 -107 26 -110 C 36 -113 45 -115 54 -115 C 65 -115 75 -110 84 -101 C 93 -92 100 -79 105 -61 L 130 39 L -5 490 L 99 490 L 180 182 L 256 490 L 352 490 Z M 177 551 L 177 551 Z M 76 551 L 162 724 L 278 724 L 173 551 L 76 551 Z" unicode="ý" />
<glyph horiz-adv-x="411" d="M 38 -200 L 38 798 L 131 798 L 131 410 C 137 433 151 453 172 470 C 192 486 217 495 247 495 C 272 495 294 489 312 477 C 330 465 345 448 357 428 C 369 407 377 382 383 354 C 389 326 392 295 392 262 C 392 178 378 112 351 66 C 324 19 287 -4 240 -4 C 213 -4 190 1 172 13 C 153 24 140 38 133 55 L 133 -200 L 38 -200 Z M 204 74 C 229 74 249 87 264 113 C 278 139 286 181 286 239 C 286 292 280 333 268 363 C 256 392 235 407 207 407 C 186 407 168 395 152 372 C 136 348 129 302 129 233 C 129 169 136 126 150 105 C 164 84 182 74 204 74 Z" unicode="þ" />
<glyph horiz-adv-x="347" d="M 0 0 L 0 0 Z M 352 490 L 183 -100 C 173 -132 157 -157 134 -174 C 111 -191 85 -200 56 -200 C 34 -200 16 -197 2 -193 C -11 -188 -22 -183 -29 -179 L 8 -102 C 10 -104 16 -107 26 -110 C 36 -113 45 -115 54 -115 C 65 -115 75 -110 84 -101 C 93 -92 100 -79 105 -61 L 130 39 L -5 490 L 99 490 L 180 182 L 256 490 L 352 490 Z M 177 552 L 177 552 Z M 294 552 L 213 552 L 213 711 L 294 711 L 294 552 Z M 141 552 L 60 552 L 60 711 L 141 711 L 141 552 Z" unicode="ÿ" />
<glyph horiz-adv-x="484" d="M 0 0 L 0 0 Z M 483 0 L 379 0 L 333 169 L 145 169 L 102 0 L 0 0 L 204 734 L 280 734 L 483 0 Z M 317 255 L 239 537 L 162 255 L 317 255 Z M 239 809 L 239 809 Z M 363 809 L 115 809 L 115 889 L 363 889 L 363 809 Z" unicode="Ā" />
<glyph horiz-adv-x="378" d="M 17 0 L 17 0 Z M 340 0 L 253 0 L 253 48 C 238 30 222 17 204 8 C 186 0 164 -5 137 -5 C 103 -5 74 8 51 35 C 28 62 17 100 17 148 C 17 202 32 241 63 265 C 93 289 130 303 173 306 L 246 311 L 246 341 C 246 365 239 383 227 395 C 214 407 195 413 171 413 C 148 413 129 409 113 402 C 97 394 84 387 76 379 L 47 454 C 61 466 81 477 105 486 C 129 494 159 499 195 499 C 237 499 271 487 299 463 C 326 439 340 405 340 359 L 340 0 Z M 248 111 L 248 240 L 194 236 C 172 234 152 227 136 213 C 120 199 112 177 112 148 C 112 122 118 103 132 92 C 146 80 160 75 176 75 C 193 75 207 78 219 86 C 231 93 240 101 248 111 Z M 184 569 L 184 569 Z M 308 569 L 60 569 L 60 649 L 308 649 L 308 569 Z" unicode="ā" />
<glyph horiz-adv-x="484" d="M 0 0 L 0 0 Z M 483 0 L 379 0 L 333 169 L 145 169 L 102 0 L 0 0 L 204 734 L 280 734 L 483 0 Z M 317 255 L 239 537 L 162 255 L 317 255 Z M 239 796 L 239 796 Z M 292 954 L 376 954 C 372 899 357 859 333 834 C 308 808 277 796 239 796 C 201 796 169 808 145 834 C 120 859 106 899 103 954 L 187 954 C 188 929 192 909 200 895 C 207 880 220 873 239 873 C 257 873 270 879 278 893 C 286 907 290 927 292 954 Z" unicode="Ă" />
<glyph horiz-adv-x="378" d="M 17 0 L 17 0 Z M 340 0 L 253 0 L 253 48 C 238 30 222 17 204 8 C 186 0 164 -5 137 -5 C 103 -5 74 8 51 35 C 28 62 17 100 17 148 C 17 202 32 241 63 265 C 93 289 130 303 173 306 L 246 311 L 246 341 C 246 365 239 383 227 395 C 214 407 195 413 171 413 C 148 413 129 409 113 402 C 97 394 84 387 76 379 L 47 454 C 61 466 81 477 105 486 C 129 494 159 499 195 499 C 237 499 271 487 299 463 C 326 439 340 405 340 359 L 340 0 Z M 248 111 L 248 240 L 194 236 C 172 234 152 227 136 213 C 120 199 112 177 112 148 C 112 122 118 103 132 92 C 146 80 160 75 176 75 C 193 75 207 78 219 86 C 231 93 240 101 248 111 Z M 184 556 L 184 556 Z M 237 714 L 321 714 C 317 659 302 619 278 594 C 253 568 222 556 184 556 C 146 556 114 568 90 594 C 65 619 51 659 48 714 L 132 714 C 133 689 137 669 145 655 C 152 640 165 633 184 633 C 202 633 215 639 223 653 C 231 667 235 687 237 714 Z" unicode="ă" />
<glyph horiz-adv-x="484" d="M 0 0 L 0 0 Z M 483 0 L 379 0 L 333 169 L 145 169 L 102 0 L 0 0 L 204 734 L 280 734 L 483 0 Z M 317 255 L 239 537 L 162 255 L 317 255 Z M 395 -8 L 395 -8 Z M 490 -91 L 519 -134 C 498 -155 476 -171 452 -182 C 428 -193 402 -199 374 -199 C 341 -199 315 -191 297 -177 C 279 -162 270 -143 270 -121 C 270 -96 279 -73 298 -51 C 316 -29 345 -10 384 5 L 447 5 C 421 -7 400 -20 383 -35 C 365 -50 357 -65 357 -80 C 357 -92 361 -103 371 -111 C 380 -119 392 -123 407 -123 C 423 -123 439 -120 453 -114 C 467 -108 480 -100 490 -91 Z" unicode="Ą" />
<glyph horiz-adv-x="378" d="M 17 0 L 17 0 Z M 340 0 L 253 0 L 253 48 C 238 30 222 17 204 8 C 186 0 164 -5 137 -5 C 103 -5 74 8 51 35 C 28 62 17 100 17 148 C 17 202 32 241 63 265 C 93 289 130 303 173 306 L 246 311 L 246 341 C 246 365 239 383 227 395 C 214 407 195 413 171 413 C 148 413 129 409 113 402 C 97 394 84 387 76 379 L 47 454 C 61 466 81 477 105 486 C 129 494 159 499 195 499 C 237 499 271 487 299 463 C 326 439 340 405 340 359 L 340 0 Z M 248 111 L 248 240 L 194 236 C 172 234 152 227 136 213 C 120 199 112 177 112 148 C 112 122 118 103 132 92 C 146 80 160 75 176 75 C 193 75 207 78 219 86 C 231 93 240 101 248 111 Z M 270 -8 L 270 -8 Z M 365 -91 L 394 -134 C 373 -155 351 -171 327 -182 C 303 -193 277 -199 249 -199 C 216 -199 190 -191 172 -177 C 154 -162 145 -143 145 -121 C 145 -96 154 -73 173 -51 C 191 -29 220 -10 259 5 L 322 5 C 296 -7 275 -20 258 -35 C 240 -50 232 -65 232 -80 C 232 -92 236 -103 246 -111 C 255 -119 267 -123 282 -123 C 298 -123 314 -120 328 -114 C 342 -108 355 -100 365 -91 Z" unicode="ą" />
<glyph horiz-adv-x="510" d="M 32 0 L 32 0 Z M 278 -7 C 242 -7 208 0 178 16 C 148 31 122 54 100 85 C 78 116 62 155 50 202 C 38 248 32 303 32 366 C 32 482 53 573 95 639 C 137 704 199 737 279 737 C 342 737 389 721 419 691 C 449 661 471 624 484 581 L 386 547 C 376 572 364 594 349 612 C 333 630 310 639 280 639 C 237 639 203 618 179 577 C 154 535 142 464 142 362 C 142 310 146 266 154 231 C 162 196 173 168 187 148 C 200 127 215 112 233 103 C 251 94 269 90 287 90 C 320 90 345 99 362 117 C 378 135 392 159 403 189 L 492 151 C 475 102 449 63 414 35 C 379 7 334 -7 278 -7 Z M 283 791 L 283 791 Z M 182 791 L 268 964 L 384 964 L 279 791 L 182 791 Z" unicode="Ć" />
<glyph horiz-adv-x="352" d="M 20 0 L 20 0 Z M 287 125 L 343 70 C 332 52 316 35 295 19 C 274 3 245 -5 207 -5 C 177 -5 150 1 127 13 C 103 25 84 43 68 65 C 52 87 40 114 32 144 C 24 174 20 208 20 244 C 20 277 24 309 32 340 C 40 370 51 397 67 420 C 83 442 102 460 126 474 C 149 488 176 495 208 495 C 244 495 273 486 296 470 C 319 453 336 435 347 416 L 281 359 C 273 372 264 383 252 393 C 240 403 226 408 208 408 C 182 408 161 393 147 365 C 132 336 125 297 125 248 C 125 189 134 146 152 119 C 170 91 193 78 219 78 C 237 78 252 83 262 94 C 272 104 280 115 287 125 Z M 199 551 L 199 551 Z M 98 551 L 184 724 L 300 724 L 195 551 L 98 551 Z" unicode="ć" />
<glyph horiz-adv-x="510" d="M 32 0 L 32 0 Z M 278 -7 C 242 -7 208 0 178 16 C 148 31 122 54 100 85 C 78 116 62 155 50 202 C 38 248 32 303 32 366 C 32 482 53 573 95 639 C 137 704 199 737 279 737 C 342 737 389 721 419 691 C 449 661 471 624 484 581 L 386 547 C 376 572 364 594 349 612 C 333 630 310 639 280 639 C 237 639 203 618 179 577 C 154 535 142 464 142 362 C 142 310 146 266 154 231 C 162 196 173 168 187 148 C 200 127 215 112 233 103 C 251 94 269 90 287 90 C 320 90 345 99 362 117 C 378 135 392 159 403 189 L 492 151 C 475 102 449 63 414 35 C 379 7 334 -7 278 -7 Z M 283 792 L 283 792 Z M 424 792 L 340 792 L 283 893 L 225 792 L 143 792 L 241 964 L 326 964 L 424 792 Z" unicode="Ĉ" />
<glyph horiz-adv-x="352" d="M 20 0 L 20 0 Z M 287 125 L 343 70 C 332 52 316 35 295 19 C 274 3 245 -5 207 -5 C 177 -5 150 1 127 13 C 103 25 84 43 68 65 C 52 87 40 114 32 144 C 24 174 20 208 20 244 C 20 277 24 309 32 340 C 40 370 51 397 67 420 C 83 442 102 460 126 474 C 149 488 176 495 208 495 C 244 495 273 486 296 470 C 319 453 336 435 347 416 L 281 359 C 273 372 264 383 252 393 C 240 403 226 408 208 408 C 182 408 161 393 147 365 C 132 336 125 297 125 248 C 125 189 134 146 152 119 C 170 91 193 78 219 78 C 237 78 252 83 262 94 C 272 104 280 115 287 125 Z M 199 552 L 199 552 Z M 340 552 L 256 552 L 199 653 L 141 552 L 59 552 L 157 724 L 242 724 L 340 552 Z" unicode="ĉ" />
<glyph horiz-adv-x="510" d="M 32 0 L 32 0 Z M 278 -7 C 242 -7 208 0 178 16 C 148 31 122 54 100 85 C 78 116 62 155 50 202 C 38 248 32 303 32 366 C 32 482 53 573 95 639 C 137 704 199 737 279 737 C 342 737 389 721 419 691 C 449 661 471 624 484 581 L 386 547 C 376 572 364 594 349 612 C 333 630 310 639 280 639 C 237 639 203 618 179 577 C 154 535 142 464 142 362 C 142 310 146 266 154 231 C 162 196 173 168 187 148 C 200 127 215 112 233 103 C 251 94 269 90 287 90 C 320 90 345 99 362 117 C 378 135 392 159 403 189 L 492 151 C 475 102 449 63 414 35 C 379 7 334 -7 278 -7 Z M 283 804 L 283 804 Z M 330 804 L 237 804 L 237 926 L 330 926 L 330 804 Z" unicode="Ċ" />
<glyph horiz-adv-x="352" d="M 20 0 L 20 0 Z M 287 125 L 343 70 C 332 52 316 35 295 19 C 274 3 245 -5 207 -5 C 177 -5 150 1 127 13 C 103 25 84 43 68 65 C 52 87 40 114 32 144 C 24 174 20 208 20 244 C 20 277 24 309 32 340 C 40 370 51 397 67 420 C 83 442 102 460 126 474 C 149 488 176 495 208 495 C 244 495 273 486 296 470 C 319 453 336 435 347 416 L 281 359 C 273 372 264 383 252 393 C 240 403 226 408 208 408 C 182 408 161 393 147 365 C 132 336 125 297 125 248 C 125 189 134 146 152 119 C 170 91 193 78 219 78 C 237 78 252 83 262 94 C 272 104 280 115 287 125 Z M 199 564 L 199 564 Z M 246 564 L 153 564 L 153 686 L 246 686 L 246 564 Z" unicode="ċ" />
<glyph horiz-adv-x="510" d="M 32 0 L 32 0 Z M 278 -7 C 242 -7 208 0 178 16 C 148 31 122 54 100 85 C 78 116 62 155 50 202 C 38 248 32 303 32 366 C 32 482 53 573 95 639 C 137 704 199 737 279 737 C 342 737 389 721 419 691 C 449 661 471 624 484 581 L 386 547 C 376 572 364 594 349 612 C 333 630 310 639 280 639 C 237 639 203 618 179 577 C 154 535 142 464 142 362 C 142 310 146 266 154 231 C 162 196 173 168 187 148 C 200 127 215 112 233 103 C 251 94 269 90 287 90 C 320 90 345 99 362 117 C 378 135 392 159 403 189 L 492 151 C 475 102 449 63 414 35 C 379 7 334 -7 278 -7 Z M 283 792 L 283 792 Z M 143 964 L 227 964 L 284 863 L 342 964 L 424 964 L 326 792 L 241 792 L 143 964 Z" unicode="Č" />
<glyph horiz-adv-x="352" d="M 20 0 L 20 0 Z M 287 125 L 343 70 C 332 52 316 35 295 19 C 274 3 245 -5 207 -5 C 177 -5 150 1 127 13 C 103 25 84 43 68 65 C 52 87 40 114 32 144 C 24 174 20 208 20 244 C 20 277 24 309 32 340 C 40 370 51 397 67 420 C 83 442 102 460 126 474 C 149 488 176 495 208 495 C 244 495 273 486 296 470 C 319 453 336 435 347 416 L 281 359 C 273 372 264 383 252 393 C 240 403 226 408 208 408 C 182 408 161 393 147 365 C 132 336 125 297 125 248 C 125 189 134 146 152 119 C 170 91 193 78 219 78 C 237 78 252 83 262 94 C 272 104 280 115 287 125 Z M 199 552 L 199 552 Z M 59 724 L 143 724 L 200 623 L 258 724 L 340 724 L 242 552 L 157 552 L 59 724 Z" unicode="č" />
<glyph horiz-adv-x="540" d="M 56 0 L 56 0 Z M 56 0 L 56 730 L 223 730 C 269 730 309 721 345 704 C 381 686 411 662 435 630 C 459 598 477 559 489 514 C 501 468 508 418 508 363 C 508 312 502 264 490 220 C 478 176 460 137 436 105 C 412 72 381 46 344 28 C 307 9 264 0 215 0 L 56 0 Z M 165 94 L 218 94 C 283 94 329 118 356 166 C 383 214 397 279 397 361 C 397 455 382 525 352 569 C 322 613 280 636 226 636 L 165 636 L 165 94 Z M 248 792 L 248 792 Z M 108 964 L 192 964 L 249 863 L 307 964 L 389 964 L 291 792 L 206 792 L 108 964 Z" unicode="Ď" />
<glyph horiz-adv-x="424" d="M 20 0 L 20 0 Z M 178 -5 C 154 -5 132 1 112 13 C 92 25 76 42 62 64 C 48 86 38 112 31 142 C 23 172 20 204 20 240 C 20 317 35 378 66 424 C 96 470 135 493 181 493 C 209 493 233 484 252 467 C 271 450 284 430 291 408 L 291 798 L 386 798 L 386 0 L 296 0 L 296 61 C 289 45 276 30 258 16 C 240 2 213 -5 178 -5 Z M 210 76 C 236 76 256 90 271 118 C 285 146 293 190 293 248 C 293 305 284 346 268 370 C 252 394 232 406 208 406 C 182 406 161 392 147 366 C 133 340 126 299 126 244 C 126 188 133 146 148 118 C 162 90 183 76 210 76 Z M 520 621 L 516 480 L 430 480 L 425 621 L 425 730 L 520 730 L 520 621 Z" unicode="ď" />
<glyph horiz-adv-x="540" d="M 16 0 L 16 0 Z M 508 362 C 508 311 502 263 490 219 C 478 175 460 136 436 104 C 412 72 381 46 344 28 C 307 9 264 0 215 0 L 56 0 L 56 319 L 16 319 L 16 402 L 56 402 L 56 730 L 223 730 C 269 730 309 721 345 703 C 381 685 411 661 435 629 C 459 597 477 559 489 513 C 501 467 508 417 508 362 Z M 165 85 L 218 85 C 283 85 329 109 356 159 C 383 209 397 276 397 360 C 397 458 382 530 352 576 C 322 622 280 645 226 645 L 165 645 L 165 402 L 297 402 L 297 319 L 165 319 L 165 85 Z" unicode="Đ" />
<glyph horiz-adv-x="424" d="M 296 61 C 289 45 276 30 258 16 C 240 2 213 -5 178 -5 C 154 -5 132 1 112 13 C 92 25 76 42 62 64 C 48 86 38 112 31 142 C 23 172 20 204 20 240 C 20 317 35 378 66 424 C 96 470 135 493 181 493 C 209 493 233 484 252 467 C 271 450 284 430 291 408 L 291 593 L 199 593 L 199 680 L 291 680 L 291 798 L 386 798 L 386 680 L 419 680 L 419 593 L 386 593 L 386 0 L 296 0 L 296 61 Z M 210 76 C 236 76 256 90 271 118 C 285 146 293 190 293 248 C 293 305 284 346 268 370 C 252 394 232 406 208 406 C 182 406 161 392 147 366 C 133 340 126 299 126 244 C 126 188 133 146 148 118 C 162 90 183 76 210 76 Z" unicode="đ" />
<glyph horiz-adv-x="396" d="M 56 0 L 56 0 Z M 385 0 L 56 0 L 56 730 L 367 730 L 367 632 L 163 632 L 163 413 L 359 413 L 359 317 L 163 317 L 163 98 L 385 98 L 385 0 Z M 210 809 L 210 809 Z M 334 809 L 86 809 L 86 889 L 334 889 L 334 809 Z" unicode="Ē" />
<glyph horiz-adv-x="392" d="M 20 0 L 20 0 Z M 203 -5 C 148 -5 104 17 70 61 C 36 105 20 166 20 242 C 20 281 24 316 34 348 C 43 380 56 406 72 428 C 88 449 106 465 128 477 C 150 489 173 495 198 495 C 256 495 299 471 329 423 C 358 375 373 307 373 219 L 120 219 C 120 172 128 137 145 113 C 161 89 185 77 215 77 C 239 77 259 82 275 94 C 291 106 304 119 315 133 L 364 79 C 350 60 331 41 305 23 C 279 4 245 -5 203 -5 Z M 121 289 L 276 289 C 275 329 268 359 256 381 C 243 403 225 414 203 414 C 179 414 160 403 146 381 C 132 359 123 329 121 289 Z M 199 569 L 199 569 Z M 323 569 L 75 569 L 75 649 L 323 649 L 323 569 Z" unicode="ē" />
<glyph horiz-adv-x="396" d="M 56 0 L 56 0 Z M 385 0 L 56 0 L 56 730 L 367 730 L 367 632 L 163 632 L 163 413 L 359 413 L 359 317 L 163 317 L 163 98 L 385 98 L 385 0 Z M 210 796 L 210 796 Z M 263 954 L 347 954 C 343 899 328 859 304 834 C 279 808 248 796 210 796 C 172 796 140 808 116 834 C 91 859 77 899 74 954 L 158 954 C 159 929 163 909 171 895 C 178 880 191 873 210 873 C 228 873 241 879 249 893 C 257 907 261 927 263 954 Z" unicode="Ĕ" />
<glyph horiz-adv-x="392" d="M 20 0 L 20 0 Z M 203 -5 C 148 -5 104 17 70 61 C 36 105 20 166 20 242 C 20 281 24 316 34 348 C 43 380 56 406 72 428 C 88 449 106 465 128 477 C 150 489 173 495 198 495 C 256 495 299 471 329 423 C 358 375 373 307 373 219 L 120 219 C 120 172 128 137 145 113 C 161 89 185 77 215 77 C 239 77 259 82 275 94 C 291 106 304 119 315 133 L 364 79 C 350 60 331 41 305 23 C 279 4 245 -5 203 -5 Z M 121 289 L 276 289 C 275 329 268 359 256 381 C 243 403 225 414 203 414 C 179 414 160 403 146 381 C 132 359 123 329 121 289 Z M 199 556 L 199 556 Z M 252 714 L 336 714 C 332 659 317 619 293 594 C 268 568 237 556 199 556 C 161 556 129 568 105 594 C 80 619 66 659 63 714 L 147 714 C 148 689 152 669 160 655 C 167 640 180 633 199 633 C 217 633 230 639 238 653 C 246 667 250 687 252 714 Z" unicode="ĕ" />
<glyph horiz-adv-x="396" d="M 56 0 L 56 0 Z M 385 0 L 56 0 L 56 730 L 367 730 L 367 632 L 163 632 L 163 413 L 359 413 L 359 317 L 163 317 L 163 98 L 385 98 L 385 0 Z M 210 804 L 210 804 Z M 257 804 L 164 804 L 164 926 L 257 926 L 257 804 Z" unicode="Ė" />
<glyph horiz-adv-x="392" d="M 20 0 L 20 0 Z M 203 -5 C 148 -5 104 17 70 61 C 36 105 20 166 20 242 C 20 281 24 316 34 348 C 43 380 56 406 72 428 C 88 449 106 465 128 477 C 150 489 173 495 198 495 C 256 495 299 471 329 423 C 358 375 373 307 373 219 L 120 219 C 120 172 128 137 145 113 C 161 89 185 77 215 77 C 239 77 259 82 275 94 C 291 106 304 119 315 133 L 364 79 C 350 60 331 41 305 23 C 279 4 245 -5 203 -5 Z M 121 289 L 276 289 C 275 329 268 359 256 381 C 243 403 225 414 203 414 C 179 414 160 403 146 381 C 132 359 123 329 121 289 Z M 199 564 L 199 564 Z M 246 564 L 153 564 L 153 686 L 246 686 L 246 564 Z" unicode="ė" />
<glyph horiz-adv-x="396" d="M 56 0 L 56 0 Z M 385 0 L 56 0 L 56 730 L 367 730 L 367 632 L 163 632 L 163 413 L 359 413 L 359 317 L 163 317 L 163 98 L 385 98 L 385 0 Z M 333 -8 L 333 -8 Z M 428 -91 L 457 -134 C 436 -155 414 -171 390 -182 C 366 -193 340 -199 312 -199 C 279 -199 253 -191 235 -177 C 217 -162 208 -143 208 -121 C 208 -96 217 -73 236 -51 C 254 -29 283 -10 322 5 L 385 5 C 359 -7 338 -20 321 -35 C 303 -50 295 -65 295 -80 C 295 -92 299 -103 309 -111 C 318 -119 330 -123 345 -123 C 361 -123 377 -120 391 -114 C 405 -108 418 -100 428 -91 Z" unicode="Ę" />
<glyph horiz-adv-x="392" d="M 20 0 L 20 0 Z M 203 -5 C 148 -5 104 17 70 61 C 36 105 20 166 20 242 C 20 281 24 316 34 348 C 43 380 56 406 72 428 C 88 449 106 465 128 477 C 150 489 173 495 198 495 C 256 495 299 471 329 423 C 358 375 373 307 373 219 L 120 219 C 120 172 128 137 145 113 C 161 89 185 77 215 77 C 239 77 259 82 275 94 C 291 106 304 119 315 133 L 364 79 C 350 60 331 41 305 23 C 279 4 245 -5 203 -5 Z M 121 289 L 276 289 C 275 329 268 359 256 381 C 243 403 225 414 203 414 C 179 414 160 403 146 381 C 132 359 123 329 121 289 Z M 213 -8 L 213 -8 Z M 308 -91 L 337 -134 C 316 -155 294 -171 270 -182 C 246 -193 220 -199 192 -199 C 159 -199 133 -191 115 -177 C 97 -162 88 -143 88 -121 C 88 -96 97 -73 116 -51 C 134 -29 163 -10 202 5 L 265 5 C 239 -7 218 -20 201 -35 C 183 -50 175 -65 175 -80 C 175 -92 179 -103 189 -111 C 198 -119 210 -123 225 -123 C 241 -123 257 -120 271 -114 C 285 -108 298 -100 308 -91 Z" unicode="ę" />
<glyph horiz-adv-x="396" d="M 56 0 L 56 0 Z M 385 0 L 56 0 L 56 730 L 367 730 L 367 632 L 163 632 L 163 413 L 359 413 L 359 317 L 163 317 L 163 98 L 385 98 L 385 0 Z M 210 792 L 210 792 Z M 70 964 L 154 964 L 211 863 L 269 964 L 351 964 L 253 792 L 168 792 L 70 964 Z" unicode="Ě" />
<glyph horiz-adv-x="392" d="M 20 0 L 20 0 Z M 203 -5 C 148 -5 104 17 70 61 C 36 105 20 166 20 242 C 20 281 24 316 34 348 C 43 380 56 406 72 428 C 88 449 106 465 128 477 C 150 489 173 495 198 495 C 256 495 299 471 329 423 C 358 375 373 307 373 219 L 120 219 C 120 172 128 137 145 113 C 161 89 185 77 215 77 C 239 77 259 82 275 94 C 291 106 304 119 315 133 L 364 79 C 350 60 331 41 305 23 C 279 4 245 -5 203 -5 Z M 121 289 L 276 289 C 275 329 268 359 256 381 C 243 403 225 414 203 414 C 179 414 160 403 146 381 C 132 359 123 329 121 289 Z M 199 552 L 199 552 Z M 59 724 L 143 724 L 200 623 L 258 724 L 340 724 L 242 552 L 157 552 L 59 724 Z" unicode="ě" />
<glyph horiz-adv-x="532" d="M 32 0 L 32 0 Z M 276 367 L 504 367 L 504 117 C 486 81 458 51 421 28 C 383 4 336 -7 280 -7 C 246 -7 214 1 184 18 C 154 34 127 58 105 90 C 82 121 64 160 51 206 C 38 252 32 305 32 365 C 32 421 37 473 49 519 C 61 565 77 604 99 636 C 121 668 147 692 178 710 C 209 728 244 737 282 737 C 340 737 385 723 417 696 C 448 668 471 636 486 600 L 394 553 C 384 577 370 597 354 614 C 337 630 314 639 285 639 C 242 639 207 617 181 573 C 155 529 142 459 142 362 C 142 264 155 194 183 150 C 211 106 244 84 283 84 C 313 84 338 88 358 98 C 378 108 394 123 405 143 L 405 275 L 276 275 L 276 367 Z M 282 792 L 282 792 Z M 423 792 L 339 792 L 282 893 L 224 792 L 142 792 L 240 964 L 325 964 L 423 792 Z" unicode="Ĝ" />
<glyph horiz-adv-x="422" d="M 21 0 L 21 0 Z M 182 6 C 134 6 96 27 66 70 C 36 112 21 171 21 246 C 21 285 25 320 34 351 C 42 382 54 408 68 429 C 82 450 99 466 119 477 C 139 488 159 494 181 494 C 209 494 233 486 252 470 C 270 454 284 436 293 417 L 293 490 L 384 490 L 384 10 C 384 -25 378 -56 367 -82 C 356 -108 342 -130 324 -147 C 306 -163 285 -176 262 -184 C 239 -192 216 -196 192 -196 C 158 -196 129 -192 107 -186 C 85 -179 68 -172 57 -164 L 86 -88 C 98 -94 113 -99 129 -103 C 145 -107 164 -109 187 -109 C 217 -109 242 -98 261 -77 C 279 -56 289 -26 289 14 L 289 83 C 281 63 269 45 251 29 C 233 13 210 6 182 6 Z M 209 84 C 234 84 254 97 269 123 C 284 149 292 192 292 252 C 292 308 283 348 265 373 C 247 397 228 410 207 410 C 182 410 162 396 148 369 C 133 341 126 301 126 249 C 126 197 132 156 146 127 C 159 98 180 84 209 84 Z M 202 552 L 202 552 Z M 343 552 L 259 552 L 202 653 L 144 552 L 62 552 L 160 724 L 245 724 L 343 552 Z" unicode="ĝ" />
<glyph horiz-adv-x="532" d="M 32 0 L 32 0 Z M 276 367 L 504 367 L 504 117 C 486 81 458 51 421 28 C 383 4 336 -7 280 -7 C 246 -7 214 1 184 18 C 154 34 127 58 105 90 C 82 121 64 160 51 206 C 38 252 32 305 32 365 C 32 421 37 473 49 519 C 61 565 77 604 99 636 C 121 668 147 692 178 710 C 209 728 244 737 282 737 C 340 737 385 723 417 696 C 448 668 471 636 486 600 L 394 553 C 384 577 370 597 354 614 C 337 630 314 639 285 639 C 242 639 207 617 181 573 C 155 529 142 459 142 362 C 142 264 155 194 183 150 C 211 106 244 84 283 84 C 313 84 338 88 358 98 C 378 108 394 123 405 143 L 405 275 L 276 275 L 276 367 Z M 282 796 L 282 796 Z M 335 954 L 419 954 C 415 899 400 859 376 834 C 351 808 320 796 282 796 C 244 796 212 808 188 834 C 163 859 149 899 146 954 L 230 954 C 231 929 235 909 243 895 C 250 880 263 873 282 873 C 300 873 313 879 321 893 C 329 907 333 927 335 954 Z" unicode="Ğ" />
<glyph horiz-adv-x="422" d="M 21 0 L 21 0 Z M 182 6 C 134 6 96 27 66 70 C 36 112 21 171 21 246 C 21 285 25 320 34 351 C 42 382 54 408 68 429 C 82 450 99 466 119 477 C 139 488 159 494 181 494 C 209 494 233 486 252 470 C 270 454 284 436 293 417 L 293 490 L 384 490 L 384 10 C 384 -25 378 -56 367 -82 C 356 -108 342 -130 324 -147 C 306 -163 285 -176 262 -184 C 239 -192 216 -196 192 -196 C 158 -196 129 -192 107 -186 C 85 -179 68 -172 57 -164 L 86 -88 C 98 -94 113 -99 129 -103 C 145 -107 164 -109 187 -109 C 217 -109 242 -98 261 -77 C 279 -56 289 -26 289 14 L 289 83 C 281 63 269 45 251 29 C 233 13 210 6 182 6 Z M 209 84 C 234 84 254 97 269 123 C 284 149 292 192 292 252 C 292 308 283 348 265 373 C 247 397 228 410 207 410 C 182 410 162 396 148 369 C 133 341 126 301 126 249 C 126 197 132 156 146 127 C 159 98 180 84 209 84 Z M 202 556 L 202 556 Z M 255 714 L 339 714 C 335 659 320 619 296 594 C 271 568 240 556 202 556 C 164 556 132 568 108 594 C 83 619 69 659 66 714 L 150 714 C 151 689 155 669 163 655 C 170 640 183 633 202 633 C 220 633 233 639 241 653 C 249 667 253 687 255 714 Z" unicode="ğ" />
<glyph horiz-adv-x="532" d="M 32 0 L 32 0 Z M 276 367 L 504 367 L 504 117 C 486 81 458 51 421 28 C 383 4 336 -7 280 -7 C 246 -7 214 1 184 18 C 154 34 127 58 105 90 C 82 121 64 160 51 206 C 38 252 32 305 32 365 C 32 421 37 473 49 519 C 61 565 77 604 99 636 C 121 668 147 692 178 710 C 209 728 244 737 282 737 C 340 737 385 723 417 696 C 448 668 471 636 486 600 L 394 553 C 384 577 370 597 354 614 C 337 630 314 639 285 639 C 242 639 207 617 181 573 C 155 529 142 459 142 362 C 142 264 155 194 183 150 C 211 106 244 84 283 84 C 313 84 338 88 358 98 C 378 108 394 123 405 143 L 405 275 L 276 275 L 276 367 Z M 282 804 L 282 804 Z M 329 804 L 236 804 L 236 926 L 329 926 L 329 804 Z" unicode="Ġ" />
<glyph horiz-adv-x="422" d="M 21 0 L 21 0 Z M 182 6 C 134 6 96 27 66 70 C 36 112 21 171 21 246 C 21 285 25 320 34 351 C 42 382 54 408 68 429 C 82 450 99 466 119 477 C 139 488 159 494 181 494 C 209 494 233 486 252 470 C 270 454 284 436 293 417 L 293 490 L 384 490 L 384 10 C 384 -25 378 -56 367 -82 C 356 -108 342 -130 324 -147 C 306 -163 285 -176 262 -184 C 239 -192 216 -196 192 -196 C 158 -196 129 -192 107 -186 C 85 -179 68 -172 57 -164 L 86 -88 C 98 -94 113 -99 129 -103 C 145 -107 164 -109 187 -109 C 217 -109 242 -98 261 -77 C 279 -56 289 -26 289 14 L 289 83 C 281 63 269 45 251 29 C 233 13 210 6 182 6 Z M 209 84 C 234 84 254 97 269 123 C 284 149 292 192 292 252 C 292 308 283 348 265 373 C 247 397 228 410 207 410 C 182 410 162 396 148 369 C 133 341 126 301 126 249 C 126 197 132 156 146 127 C 159 98 180 84 209 84 Z M 202 564 L 202 564 Z M 249 564 L 156 564 L 156 686 L 249 686 L 249 564 Z" unicode="ġ" />
<glyph horiz-adv-x="532" d="M 32 0 L 32 0 Z M 276 367 L 504 367 L 504 117 C 486 81 458 51 421 28 C 383 4 336 -7 280 -7 C 246 -7 214 1 184 18 C 154 34 127 58 105 90 C 82 121 64 160 51 206 C 38 252 32 305 32 365 C 32 421 37 473 49 519 C 61 565 77 604 99 636 C 121 668 147 692 178 710 C 209 728 244 737 282 737 C 340 737 385 723 417 696 C 448 668 471 636 486 600 L 394 553 C 384 577 370 597 354 614 C 337 630 314 639 285 639 C 242 639 207 617 181 573 C 155 529 142 459 142 362 C 142 264 155 194 183 150 C 211 106 244 84 283 84 C 313 84 338 88 358 98 C 378 108 394 123 405 143 L 405 275 L 276 275 L 276 367 Z M 274 -72 L 274 -72 Z M 361 -72 C 361 -94 357 -118 351 -143 C 345 -167 337 -191 328 -214 C 318 -237 308 -258 297 -277 C 285 -296 274 -311 264 -323 L 186 -288 C 193 -278 200 -266 208 -250 C 216 -234 223 -217 230 -198 C 236 -178 242 -158 247 -136 C 251 -114 254 -93 255 -72 L 361 -72 Z" unicode="Ģ" />
<glyph horiz-adv-x="422" d="M 21 0 L 21 0 Z M 182 6 C 134 6 96 27 66 70 C 36 112 21 171 21 246 C 21 285 25 320 34 351 C 42 382 54 408 68 429 C 82 450 99 466 119 477 C 139 488 159 494 181 494 C 209 494 233 486 252 470 C 270 454 284 436 293 417 L 293 490 L 384 490 L 384 10 C 384 -25 378 -56 367 -82 C 356 -108 342 -130 324 -147 C 306 -163 285 -176 262 -184 C 239 -192 216 -196 192 -196 C 158 -196 129 -192 107 -186 C 85 -179 68 -172 57 -164 L 86 -88 C 98 -94 113 -99 129 -103 C 145 -107 164 -109 187 -109 C 217 -109 242 -98 261 -77 C 279 -56 289 -26 289 14 L 289 83 C 281 63 269 45 251 29 C 233 13 210 6 182 6 Z M 209 84 C 234 84 254 97 269 123 C 284 149 292 192 292 252 C 292 308 283 348 265 373 C 247 397 228 410 207 410 C 182 410 162 396 148 369 C 133 341 126 301 126 249 C 126 197 132 156 146 127 C 159 98 180 84 209 84 Z" unicode="ģ" />
<glyph horiz-adv-x="534" d="M 56 0 L 56 0 Z M 478 0 L 368 0 L 368 312 L 166 312 L 166 0 L 56 0 L 56 730 L 166 730 L 166 409 L 368 409 L 368 730 L 478 730 L 478 0 Z M 265 792 L 265 792 Z M 406 792 L 322 792 L 265 893 L 207 792 L 125 792 L 223 964 L 308 964 L 406 792 Z" unicode="Ĥ" />
<glyph horiz-adv-x="407" d="M 38 0 L 38 0 Z M 369 0 L 269 0 L 269 341 C 269 363 263 380 252 391 C 241 402 226 408 208 408 C 189 408 173 402 159 390 C 145 378 139 356 139 325 L 139 0 L 38 0 L 38 798 L 133 798 L 133 427 C 139 447 151 463 169 476 C 187 488 212 495 244 495 C 282 495 312 485 335 466 C 357 446 369 415 369 371 L 369 0 Z M 206 860 L 206 860 Z M 347 860 L 263 860 L 206 961 L 148 860 L 66 860 L 164 1032 L 249 1032 L 347 860 Z" unicode="ĥ" />
<glyph horiz-adv-x="534" d="M 166 312 L 166 0 L 56 0 L 56 539 L 5 539 L 5 626 L 56 626 L 56 730 L 166 730 L 166 626 L 368 626 L 368 730 L 478 730 L 478 626 L 528 626 L 528 539 L 478 539 L 478 0 L 368 0 L 368 312 L 166 312 Z M 166 409 L 368 409 L 368 539 L 166 539 L 166 409 Z" unicode="Ħ" />
<glyph horiz-adv-x="407" d="M 139 325 L 139 0 L 38 0 L 38 593 L 10 593 L 10 680 L 38 680 L 38 798 L 133 798 L 133 680 L 229 680 L 229 593 L 133 593 L 133 427 C 139 447 151 463 169 476 C 187 488 212 495 244 495 C 282 495 312 485 335 466 C 357 446 369 415 369 371 L 369 0 L 269 0 L 269 341 C 269 363 263 380 252 391 C 241 402 226 408 208 408 C 189 408 173 402 159 390 C 145 378 139 356 139 325 Z" unicode="ħ" />
<glyph horiz-adv-x="230" d="M 0 0 L 0 0 Z M 171 0 L 60 0 L 60 730 L 171 730 L 171 0 Z M 115 798 L 115 798 Z M 196 938 L 271 938 C 271 890 264 855 250 832 C 236 809 219 798 198 798 C 179 798 163 801 150 808 C 137 814 126 821 118 827 C 109 833 100 839 92 845 C 83 851 74 854 66 854 C 57 854 50 849 44 839 C 38 829 34 817 34 801 L -40 801 C -40 848 -31 883 -14 907 C 3 930 22 942 42 942 C 58 942 72 938 84 931 C 96 924 107 917 118 910 C 126 904 134 898 142 893 C 149 888 157 886 165 886 C 173 886 180 890 186 899 C 192 908 196 921 196 938 Z" unicode="Ĩ" />
<glyph horiz-adv-x="181" d="M 0 0 L 0 0 Z M 141 0 L 40 0 L 40 490 L 141 490 L 141 0 Z M 89 558 L 89 558 Z M 170 698 L 245 698 C 245 650 238 615 224 592 C 210 569 193 558 172 558 C 153 558 137 561 124 568 C 111 574 100 581 92 587 C 83 593 74 599 66 605 C 57 611 48 614 40 614 C 31 614 24 609 18 599 C 12 589 8 577 8 561 L -66 561 C -66 608 -57 643 -40 667 C -22 690 -4 702 16 702 C 32 702 46 698 58 691 C 70 684 81 677 92 670 C 100 664 108 658 116 653 C 123 648 131 646 139 646 C 147 646 154 650 160 659 C 166 668 170 681 170 698 Z" unicode="ĩ" />
<glyph horiz-adv-x="230" d="M 0 0 L 0 0 Z M 171 0 L 60 0 L 60 730 L 171 730 L 171 0 Z M 115 809 L 115 809 Z M 239 809 L -9 809 L -9 889 L 239 889 L 239 809 Z" unicode="Ī" />
<glyph horiz-adv-x="181" d="M 0 0 L 0 0 Z M 141 0 L 40 0 L 40 490 L 141 490 L 141 0 Z M 89 569 L 89 569 Z M 213 569 L -35 569 L -35 649 L 213 649 L 213 569 Z" unicode="ī" />
<glyph horiz-adv-x="230" d="M 0 0 L 0 0 Z M 171 0 L 60 0 L 60 730 L 171 730 L 171 0 Z M 115 796 L 115 796 Z M 168 954 L 252 954 C 248 899 233 859 209 834 C 184 808 153 796 115 796 C 77 796 45 808 21 834 C -3 859 -17 899 -21 954 L 63 954 C 64 929 68 909 76 895 C 83 880 96 873 115 873 C 133 873 146 879 154 893 C 162 907 166 927 168 954 Z" unicode="Ĭ" />
<glyph horiz-adv-x="181" d="M 0 0 L 0 0 Z M 141 0 L 40 0 L 40 490 L 141 490 L 141 0 Z M 89 556 L 89 556 Z M 142 714 L 226 714 C 222 659 207 619 183 594 C 158 568 127 556 89 556 C 51 556 19 568 -5 594 C -29 619 -43 659 -47 714 L 37 714 C 38 689 42 669 50 655 C 57 640 70 633 89 633 C 107 633 120 639 128 653 C 136 667 140 687 142 714 Z" unicode="ĭ" />
<glyph horiz-adv-x="230" d="M 0 0 L 0 0 Z M 171 0 L 60 0 L 60 730 L 171 730 L 171 0 Z M 77 -8 L 77 -8 Z M 172 -91 L 201 -134 C 180 -155 158 -171 134 -182 C 110 -193 84 -199 56 -199 C 23 -199 -2 -191 -20 -177 C -38 -162 -48 -143 -48 -121 C -48 -96 -38 -73 -20 -51 C -1 -29 27 -10 66 5 L 129 5 C 103 -7 82 -20 65 -35 C 47 -50 39 -65 39 -80 C 39 -92 43 -103 53 -111 C 62 -119 74 -123 89 -123 C 105 -123 121 -120 135 -114 C 149 -108 162 -100 172 -91 Z" unicode="Į" />
<glyph horiz-adv-x="181" d="M 0 0 L 0 0 Z M 38 569 L 38 666 L 143 666 L 143 569 L 38 569 Z M 40 0 L 40 490 L 141 490 L 141 0 L 40 0 Z M 50 -8 L 50 -8 Z M 145 -91 L 174 -134 C 153 -155 131 -171 107 -182 C 83 -193 57 -199 29 -199 C -3 -199 -29 -191 -47 -177 C -65 -162 -75 -143 -75 -121 C -75 -96 -65 -73 -47 -51 C -28 -29 0 -10 39 5 L 102 5 C 76 -7 55 -20 38 -35 C 20 -50 12 -65 12 -80 C 12 -92 16 -103 26 -111 C 35 -119 47 -123 62 -123 C 78 -123 94 -120 108 -114 C 122 -108 135 -100 145 -91 Z" unicode="į" />
<glyph horiz-adv-x="230" d="M 60 0 L 60 0 Z M 171 0 L 60 0 L 60 730 L 171 730 L 171 0 Z M 115 804 L 115 804 Z M 162 804 L 69 804 L 69 926 L 162 926 L 162 804 Z" unicode="İ" />
<glyph horiz-adv-x="181" d="M 141 0 L 40 0 L 40 490 L 141 490 L 141 0 Z" unicode="ı" />
<glyph horiz-adv-x="503" d="M 60 0 L 60 0 Z M 171 0 L 60 0 L 60 730 L 171 730 L 171 0 Z M 458 730 L 458 182 C 458 126 442 81 412 45 C 382 9 341 -8 289 -8 C 276 -8 262 -7 248 -5 C 233 -3 222 0 215 5 L 225 101 C 229 98 236 96 245 94 C 253 92 262 92 271 92 C 295 92 314 103 328 125 C 341 147 348 174 348 205 L 348 730 L 458 730 Z" unicode="Ĳ" />
<glyph horiz-adv-x="358" d="M 38 0 L 38 0 Z M 38 569 L 38 666 L 143 666 L 143 569 L 38 569 Z M 40 0 L 40 490 L 141 490 L 141 0 L 40 0 Z M 322 569 L 218 569 L 218 666 L 322 666 L 322 569 Z M 320 490 L 320 -78 C 320 -108 310 -133 291 -153 C 271 -173 245 -184 213 -184 C 197 -184 182 -181 168 -177 C 154 -172 145 -167 141 -163 L 168 -93 C 170 -93 174 -94 178 -96 C 182 -97 187 -98 193 -98 C 201 -98 207 -95 212 -89 C 217 -83 220 -75 220 -65 L 220 490 L 320 490 Z" unicode="ĳ" />
<glyph horiz-adv-x="288" d="M 0 0 L 0 0 Z M 236 730 L 236 182 C 236 126 220 81 190 45 C 160 9 119 -8 67 -8 C 54 -8 40 -7 26 -5 C 11 -3 0 0 -7 5 L 3 101 C 7 98 14 96 23 94 C 31 92 40 92 49 92 C 73 92 92 103 106 125 C 119 147 126 174 126 205 L 126 730 L 236 730 Z M 180 792 L 180 792 Z M 321 792 L 237 792 L 180 893 L 122 792 L 40 792 L 138 964 L 223 964 L 321 792 Z" unicode="Ĵ" />
<glyph horiz-adv-x="182" d="M 0 0 L 0 0 Z M 143 490 L 143 -78 C 143 -108 133 -134 113 -154 C 93 -174 67 -185 35 -185 C 19 -185 4 -182 -10 -178 C -24 -173 -33 -169 -37 -165 L -11 -95 C -8 -95 -4 -96 0 -98 C 3 -99 8 -100 14 -100 C 22 -100 29 -96 35 -90 C 40 -84 43 -75 43 -65 L 43 490 L 143 490 Z M 92 552 L 92 552 Z M 233 552 L 149 552 L 92 653 L 34 552 L -48 552 L 50 724 L 135 724 L 233 552 Z" unicode="ĵ" />
<glyph horiz-adv-x="500" d="M 56 0 L 56 0 Z M 510 0 L 389 0 L 194 313 L 167 279 L 167 0 L 56 0 L 56 730 L 167 730 L 167 414 L 377 730 L 492 730 L 265 397 L 510 0 Z M 252 -72 L 252 -72 Z M 339 -72 C 339 -94 335 -118 329 -143 C 323 -167 315 -191 306 -214 C 296 -237 286 -258 275 -277 C 263 -296 252 -311 242 -323 L 164 -288 C 171 -278 178 -266 186 -250 C 194 -234 201 -217 208 -198 C 214 -178 220 -158 225 -136 C 229 -114 232 -93 233 -72 L 339 -72 Z" unicode="Ķ" />
<glyph horiz-adv-x="379" d="M 38 0 L 38 0 Z M 388 1 L 282 0 L 182 193 L 138 127 L 138 0 L 38 0 L 38 798 L 133 798 L 133 246 L 276 490 L 378 490 L 248 274 L 388 1 Z M 189 -72 L 189 -72 Z M 276 -72 C 276 -94 272 -118 266 -143 C 260 -167 252 -191 243 -214 C 233 -237 223 -258 212 -277 C 200 -296 189 -311 179 -323 L 101 -288 C 108 -278 115 -266 123 -250 C 131 -234 138 -217 145 -198 C 151 -178 157 -158 162 -136 C 166 -114 169 -93 170 -72 L 276 -72 Z" unicode="ķ" />
<glyph horiz-adv-x="379" d="M 388 1 L 282 0 L 182 193 L 138 127 L 138 0 L 38 0 L 38 490 L 133 490 L 133 246 L 276 490 L 378 490 L 248 274 L 388 1 Z" unicode="ĸ" />
<glyph horiz-adv-x="360" d="M 56 0 L 56 0 Z M 353 0 L 56 0 L 56 730 L 166 730 L 166 98 L 353 98 L 353 0 Z M 210 791 L 210 791 Z M 109 791 L 195 964 L 311 964 L 206 791 L 109 791 Z" unicode="Ĺ" />
<glyph horiz-adv-x="177" d="M 38 0 L 38 0 Z M 145 861 L 145 861 Z M 44 861 L 130 1034 L 246 1034 L 141 861 L 44 861 Z M 139 800 L 139 0 L 38 0 L 38 800 L 139 800 Z" unicode="ĺ" />
<glyph horiz-adv-x="360" d="M 56 0 L 56 0 Z M 353 0 L 56 0 L 56 730 L 166 730 L 166 98 L 353 98 L 353 0 Z M 195 -72 L 195 -72 Z M 282 -72 C 282 -94 278 -118 272 -143 C 266 -167 258 -191 249 -214 C 239 -237 229 -258 218 -277 C 206 -296 195 -311 185 -323 L 107 -288 C 114 -278 121 -266 129 -250 C 137 -234 144 -217 151 -198 C 157 -178 163 -158 168 -136 C 172 -114 175 -93 176 -72 L 282 -72 Z" unicode="Ļ" />
<glyph horiz-adv-x="177" d="M 0 0 L 0 0 Z M 139 800 L 139 0 L 38 0 L 38 800 L 139 800 Z M 70 -72 L 70 -72 Z M 157 -72 C 157 -94 153 -118 147 -143 C 141 -167 133 -191 124 -214 C 114 -237 104 -258 93 -277 C 81 -296 70 -311 60 -323 L -18 -288 C -10 -278 -3 -266 4 -250 C 12 -234 19 -217 26 -198 C 32 -178 38 -158 43 -136 C 47 -114 50 -93 51 -72 L 157 -72 Z" unicode="ļ" />
<glyph horiz-adv-x="360" d="M 56 0 L 56 0 Z M 353 0 L 56 0 L 56 730 L 166 730 L 166 98 L 353 98 L 353 0 Z M 366 621 L 362 480 L 276 480 L 271 621 L 271 730 L 366 730 L 366 621 Z" unicode="Ľ" />
<glyph horiz-adv-x="177" d="M 38 0 L 38 0 Z M 139 800 L 139 0 L 38 0 L 38 800 L 139 800 Z M 279 621 L 275 480 L 189 480 L 184 621 L 184 730 L 279 730 L 279 621 Z" unicode="ľ" />
<glyph horiz-adv-x="360" d="M 56 0 L 56 0 Z M 353 0 L 56 0 L 56 730 L 166 730 L 166 98 L 353 98 L 353 0 Z M 278 301 L 278 301 Z M 325 301 L 232 301 L 232 423 L 325 423 L 325 301 Z" unicode="Ŀ" />
<glyph horiz-adv-x="177" d="M 38 0 L 38 0 Z M 139 800 L 139 0 L 38 0 L 38 800 L 139 800 Z M 220 222 L 220 222 Z M 267 222 L 174 222 L 174 344 L 267 344 L 267 222 Z" unicode="ŀ" />
<glyph horiz-adv-x="360" d="M 353 90 L 353 0 L 56 0 L 56 257 L 19 241 L -17 321 L 56 353 L 56 730 L 166 730 L 166 400 L 286 452 L 322 373 L 166 305 L 166 90 L 353 90 Z" unicode="Ł" />
<glyph horiz-adv-x="177" d="M 212 329 L 152 301 L 152 0 L 51 0 L 51 254 L 21 240 L -9 310 L 51 338 L 51 798 L 152 798 L 152 385 L 182 399 L 212 329 Z" unicode="ł" />
<glyph horiz-adv-x="533" d="M 56 0 L 56 0 Z M 477 0 L 399 0 L 159 473 L 159 0 L 56 0 L 56 730 L 133 730 L 377 256 L 377 730 L 477 730 L 477 0 Z M 267 791 L 267 791 Z M 166 791 L 252 964 L 368 964 L 263 791 L 166 791 Z" unicode="Ń" />
<glyph horiz-adv-x="407" d="M 38 0 L 38 0 Z M 369 0 L 269 0 L 269 345 C 269 365 263 381 253 392 C 242 402 227 408 209 408 C 189 408 173 402 159 390 C 145 378 139 357 139 325 L 139 0 L 38 0 L 38 490 L 128 490 L 128 423 C 136 443 149 460 169 474 C 188 488 214 495 247 495 C 283 495 313 485 335 467 C 357 449 369 419 369 379 L 369 0 Z M 204 551 L 204 551 Z M 103 551 L 189 724 L 305 724 L 200 551 L 103 551 Z" unicode="ń" />
<glyph horiz-adv-x="533" d="M 56 0 L 56 0 Z M 477 0 L 399 0 L 159 473 L 159 0 L 56 0 L 56 730 L 133 730 L 377 256 L 377 730 L 477 730 L 477 0 Z M 253 -72 L 253 -72 Z M 340 -72 C 340 -94 336 -118 330 -143 C 324 -167 316 -191 307 -214 C 297 -237 287 -258 276 -277 C 264 -296 253 -311 243 -323 L 165 -288 C 172 -278 179 -266 187 -250 C 195 -234 202 -217 209 -198 C 215 -178 221 -158 226 -136 C 230 -114 233 -93 234 -72 L 340 -72 Z" unicode="Ņ" />
<glyph horiz-adv-x="407" d="M 38 0 L 38 0 Z M 369 0 L 269 0 L 269 345 C 269 365 263 381 253 392 C 242 402 227 408 209 408 C 189 408 173 402 159 390 C 145 378 139 357 139 325 L 139 0 L 38 0 L 38 490 L 128 490 L 128 423 C 136 443 149 460 169 474 C 188 488 214 495 247 495 C 283 495 313 485 335 467 C 357 449 369 419 369 379 L 369 0 Z M 190 -72 L 190 -72 Z M 277 -72 C 277 -94 273 -118 267 -143 C 261 -167 253 -191 244 -214 C 234 -237 224 -258 213 -277 C 201 -296 190 -311 180 -323 L 102 -288 C 109 -278 116 -266 124 -250 C 132 -234 139 -217 146 -198 C 152 -178 158 -158 163 -136 C 167 -114 170 -93 171 -72 L 277 -72 Z" unicode="ņ" />
<glyph horiz-adv-x="533" d="M 56 0 L 56 0 Z M 477 0 L 399 0 L 159 473 L 159 0 L 56 0 L 56 730 L 133 730 L 377 256 L 377 730 L 477 730 L 477 0 Z M 267 792 L 267 792 Z M 127 964 L 211 964 L 268 863 L 326 964 L 408 964 L 310 792 L 225 792 L 127 964 Z" unicode="Ň" />
<glyph horiz-adv-x="407" d="M 38 0 L 38 0 Z M 369 0 L 269 0 L 269 345 C 269 365 263 381 253 392 C 242 402 227 408 209 408 C 189 408 173 402 159 390 C 145 378 139 357 139 325 L 139 0 L 38 0 L 38 490 L 128 490 L 128 423 C 136 443 149 460 169 474 C 188 488 214 495 247 495 C 283 495 313 485 335 467 C 357 449 369 419 369 379 L 369 0 Z M 204 552 L 204 552 Z M 64 724 L 148 724 L 205 623 L 263 724 L 345 724 L 247 552 L 162 552 L 64 724 Z" unicode="ň" />
<glyph horiz-adv-x="533" d="M 377 730 L 477 730 L 477 -6 C 477 -61 462 -106 434 -142 C 405 -178 365 -196 313 -196 C 300 -196 286 -195 272 -193 C 257 -191 246 -187 239 -183 L 250 -87 C 254 -89 261 -91 269 -93 C 277 -95 286 -96 295 -96 C 319 -96 339 -84 354 -62 C 369 -40 377 -13 377 17 L 377 43 L 159 473 L 159 0 L 56 0 L 56 730 L 133 730 L 377 256 L 377 730 Z" unicode="Ŋ" />
<glyph horiz-adv-x="407" d="M 247 495 C 283 495 313 485 335 467 C 357 449 369 419 369 379 L 369 -53 C 369 -95 357 -129 334 -157 C 311 -185 279 -199 237 -199 C 224 -199 210 -197 196 -195 C 182 -192 172 -188 166 -184 L 187 -101 C 190 -102 194 -103 200 -104 C 206 -105 212 -106 218 -106 C 233 -106 245 -99 255 -85 C 264 -71 269 -54 269 -34 L 269 345 C 269 365 263 381 253 392 C 242 402 227 408 209 408 C 189 408 173 402 159 390 C 145 378 139 357 139 325 L 139 0 L 38 0 L 38 490 L 128 490 L 128 423 C 136 443 149 460 169 474 C 188 488 214 495 247 495 Z" unicode="ŋ" />
<glyph horiz-adv-x="569" d="M 32 0 L 32 0 Z M 287 -7 C 205 -7 142 25 98 90 C 54 155 32 249 32 371 C 32 485 54 575 99 640 C 143 704 204 737 282 737 C 364 737 427 705 471 641 C 515 577 537 485 537 365 C 537 249 514 158 468 92 C 422 26 362 -7 287 -7 Z M 285 85 C 329 85 363 108 388 154 C 412 200 425 272 425 372 C 425 464 412 533 387 577 C 361 621 327 644 283 644 C 237 644 203 622 180 578 C 156 534 145 462 145 364 C 145 265 157 194 183 150 C 208 106 242 85 285 85 Z M 283 809 L 283 809 Z M 407 809 L 159 809 L 159 889 L 407 889 L 407 809 Z" unicode="Ō" />
<glyph horiz-adv-x="407" d="M 20 0 L 20 0 Z M 204 -5 C 150 -5 106 16 72 58 C 37 100 20 162 20 244 C 20 320 36 380 69 426 C 102 472 145 495 198 495 C 255 495 301 474 335 432 C 369 390 387 332 387 257 C 387 177 370 114 338 66 C 305 18 260 -5 204 -5 Z M 204 78 C 230 78 249 91 262 118 C 275 144 282 188 282 248 C 282 307 275 349 261 373 C 247 397 227 410 201 410 C 177 410 158 397 145 372 C 131 347 125 306 125 248 C 125 184 132 139 146 115 C 160 90 180 78 204 78 Z M 204 569 L 204 569 Z M 328 569 L 80 569 L 80 649 L 328 649 L 328 569 Z" unicode="ō" />
<glyph horiz-adv-x="569" d="M 32 0 L 32 0 Z M 287 -7 C 205 -7 142 25 98 90 C 54 155 32 249 32 371 C 32 485 54 575 99 640 C 143 704 204 737 282 737 C 364 737 427 705 471 641 C 515 577 537 485 537 365 C 537 249 514 158 468 92 C 422 26 362 -7 287 -7 Z M 285 85 C 329 85 363 108 388 154 C 412 200 425 272 425 372 C 425 464 412 533 387 577 C 361 621 327 644 283 644 C 237 644 203 622 180 578 C 156 534 145 462 145 364 C 145 265 157 194 183 150 C 208 106 242 85 285 85 Z M 283 796 L 283 796 Z M 336 954 L 420 954 C 416 899 401 859 377 834 C 352 808 321 796 283 796 C 245 796 213 808 189 834 C 164 859 150 899 147 954 L 231 954 C 232 929 236 909 244 895 C 251 880 264 873 283 873 C 301 873 314 879 322 893 C 330 907 334 927 336 954 Z" unicode="Ŏ" />
<glyph horiz-adv-x="407" d="M 20 0 L 20 0 Z M 204 -5 C 150 -5 106 16 72 58 C 37 100 20 162 20 244 C 20 320 36 380 69 426 C 102 472 145 495 198 495 C 255 495 301 474 335 432 C 369 390 387 332 387 257 C 387 177 370 114 338 66 C 305 18 260 -5 204 -5 Z M 204 78 C 230 78 249 91 262 118 C 275 144 282 188 282 248 C 282 307 275 349 261 373 C 247 397 227 410 201 410 C 177 410 158 397 145 372 C 131 347 125 306 125 248 C 125 184 132 139 146 115 C 160 90 180 78 204 78 Z M 204 556 L 204 556 Z M 257 714 L 341 714 C 337 659 322 619 298 594 C 273 568 242 556 204 556 C 166 556 134 568 110 594 C 85 619 71 659 68 714 L 152 714 C 153 689 157 669 165 655 C 172 640 185 633 204 633 C 222 633 235 639 243 653 C 251 667 255 687 257 714 Z" unicode="ŏ" />
<glyph horiz-adv-x="569" d="M 32 0 L 32 0 Z M 287 -7 C 205 -7 142 25 98 90 C 54 155 32 249 32 371 C 32 485 54 575 99 640 C 143 704 204 737 282 737 C 364 737 427 705 471 641 C 515 577 537 485 537 365 C 537 249 514 158 468 92 C 422 26 362 -7 287 -7 Z M 285 85 C 329 85 363 108 388 154 C 412 200 425 272 425 372 C 425 464 412 533 387 577 C 361 621 327 644 283 644 C 237 644 203 622 180 578 C 156 534 145 462 145 364 C 145 265 157 194 183 150 C 208 106 242 85 285 85 Z M 283 791 L 283 791 Z M 110 791 L 174 953 L 281 953 L 199 791 L 110 791 Z M 285 791 L 351 953 L 458 953 L 374 791 L 285 791 Z" unicode="Ő" />
<glyph horiz-adv-x="407" d="M 20 0 L 20 0 Z M 204 -5 C 150 -5 106 16 72 58 C 37 100 20 162 20 244 C 20 320 36 380 69 426 C 102 472 145 495 198 495 C 255 495 301 474 335 432 C 369 390 387 332 387 257 C 387 177 370 114 338 66 C 305 18 260 -5 204 -5 Z M 204 78 C 230 78 249 91 262 118 C 275 144 282 188 282 248 C 282 307 275 349 261 373 C 247 397 227 410 201 410 C 177 410 158 397 145 372 C 131 347 125 306 125 248 C 125 184 132 139 146 115 C 160 90 180 78 204 78 Z M 204 551 L 204 551 Z M 31 551 L 95 713 L 202 713 L 120 551 L 31 551 Z M 206 551 L 272 713 L 379 713 L 295 551 L 206 551 Z" unicode="ő" />
<glyph horiz-adv-x="748" d="M 263 -7 C 191 -7 135 24 94 88 C 52 152 32 246 32 371 C 32 489 52 580 94 642 C 136 704 190 736 258 736 C 302 736 336 725 361 704 C 386 682 402 658 409 632 L 409 730 L 720 730 L 720 637 L 515 637 L 515 409 L 711 409 L 711 318 L 515 318 L 515 93 L 738 93 L 738 0 L 409 0 L 409 101 C 405 88 400 75 392 62 C 384 49 373 37 361 27 C 349 17 334 8 318 2 C 301 -3 283 -7 263 -7 Z M 277 73 C 319 73 351 97 375 145 C 398 193 410 269 410 372 C 410 468 398 540 374 586 C 350 632 317 655 275 655 C 231 655 199 632 177 588 C 155 543 144 469 144 365 C 144 260 155 185 179 140 C 203 95 235 73 277 73 Z" unicode="Œ" />
<glyph horiz-adv-x="650" d="M 198 -5 C 148 -5 105 16 71 58 C 37 100 20 162 20 244 C 20 320 36 380 69 426 C 102 472 145 495 198 495 C 236 495 267 484 291 463 C 315 441 328 418 332 392 C 335 416 348 440 370 462 C 392 484 422 495 458 495 C 514 495 556 471 586 424 C 615 377 630 309 630 220 L 378 220 C 378 175 386 140 403 115 C 419 89 442 77 471 77 C 495 77 515 82 532 93 C 548 104 562 117 574 131 L 623 77 C 609 58 590 40 565 22 C 539 4 506 -5 466 -5 C 425 -5 393 5 371 25 C 348 45 334 67 330 93 C 322 68 307 45 285 25 C 263 5 234 -5 198 -5 Z M 379 289 L 535 289 C 534 328 527 359 513 381 C 499 403 480 414 457 414 C 434 414 416 403 402 381 C 388 359 381 329 379 289 Z M 204 78 C 230 78 249 91 263 118 C 276 144 283 188 283 248 C 283 306 276 348 262 372 C 248 396 227 409 201 409 C 177 409 158 396 144 372 C 130 347 124 306 124 248 C 124 184 131 139 146 115 C 160 90 180 78 204 78 Z" unicode="œ" />
<glyph horiz-adv-x="466" d="M 56 0 L 56 0 Z M 56 0 L 56 730 L 223 730 C 277 730 322 713 358 681 C 394 648 412 598 412 531 C 412 477 400 432 378 396 C 355 359 326 338 290 332 L 289 327 L 468 0 L 354 0 L 190 304 L 157 304 L 157 0 L 56 0 Z M 157 396 L 207 396 C 237 396 261 406 280 428 C 299 449 309 479 309 517 C 309 558 299 588 279 608 C 259 627 235 637 209 637 L 157 637 L 157 396 Z M 215 791 L 215 791 Z M 114 791 L 200 964 L 316 964 L 211 791 L 114 791 Z" unicode="Ŕ" />
<glyph horiz-adv-x="302" d="M 38 0 L 38 0 Z M 307 464 L 275 381 C 264 390 254 396 246 399 C 237 402 227 404 216 404 C 200 404 183 397 165 383 C 147 369 139 341 139 298 L 139 0 L 38 0 L 38 490 L 136 490 L 136 416 C 142 436 154 455 170 471 C 186 487 206 495 229 495 C 247 495 262 491 276 485 C 289 478 299 471 307 464 Z M 176 551 L 176 551 Z M 75 551 L 161 724 L 277 724 L 172 551 L 75 551 Z" unicode="ŕ" />
<glyph horiz-adv-x="466" d="M 56 0 L 56 0 Z M 56 0 L 56 730 L 223 730 C 277 730 322 713 358 681 C 394 648 412 598 412 531 C 412 477 400 432 378 396 C 355 359 326 338 290 332 L 289 327 L 468 0 L 354 0 L 190 304 L 157 304 L 157 0 L 56 0 Z M 157 396 L 207 396 C 237 396 261 406 280 428 C 299 449 309 479 309 517 C 309 558 299 588 279 608 C 259 627 235 637 209 637 L 157 637 L 157 396 Z M 227 -72 L 227 -72 Z M 314 -72 C 314 -94 310 -118 304 -143 C 298 -167 290 -191 281 -214 C 271 -237 261 -258 250 -277 C 238 -296 227 -311 217 -323 L 139 -288 C 146 -278 153 -266 161 -250 C 169 -234 176 -217 183 -198 C 189 -178 195 -158 200 -136 C 204 -114 207 -93 208 -72 L 314 -72 Z" unicode="Ŗ" />
<glyph horiz-adv-x="302" d="M 38 0 L 38 0 Z M 307 464 L 275 381 C 264 390 254 396 246 399 C 237 402 227 404 216 404 C 200 404 183 397 165 383 C 147 369 139 341 139 298 L 139 0 L 38 0 L 38 490 L 136 490 L 136 416 C 142 436 154 455 170 471 C 186 487 206 495 229 495 C 247 495 262 491 276 485 C 289 478 299 471 307 464 Z M 158 -72 L 158 -72 Z M 245 -72 C 245 -94 241 -118 235 -143 C 229 -167 221 -191 212 -214 C 202 -237 192 -258 181 -277 C 169 -296 158 -311 148 -323 L 70 -288 C 77 -278 84 -266 92 -250 C 100 -234 107 -217 114 -198 C 120 -178 126 -158 131 -136 C 135 -114 138 -93 139 -72 L 245 -72 Z" unicode="ŗ" />
<glyph horiz-adv-x="466" d="M 56 0 L 56 0 Z M 56 0 L 56 730 L 223 730 C 277 730 322 713 358 681 C 394 648 412 598 412 531 C 412 477 400 432 378 396 C 355 359 326 338 290 332 L 289 327 L 468 0 L 354 0 L 190 304 L 157 304 L 157 0 L 56 0 Z M 157 396 L 207 396 C 237 396 261 406 280 428 C 299 449 309 479 309 517 C 309 558 299 588 279 608 C 259 627 235 637 209 637 L 157 637 L 157 396 Z M 215 792 L 215 792 Z M 75 964 L 159 964 L 216 863 L 274 964 L 356 964 L 258 792 L 173 792 L 75 964 Z" unicode="Ř" />
<glyph horiz-adv-x="302" d="M 36 0 L 36 0 Z M 307 464 L 275 381 C 264 390 254 396 246 399 C 237 402 227 404 216 404 C 200 404 183 397 165 383 C 147 369 139 341 139 298 L 139 0 L 38 0 L 38 490 L 136 490 L 136 416 C 142 436 154 455 170 471 C 186 487 206 495 229 495 C 247 495 262 491 276 485 C 289 478 299 471 307 464 Z M 176 552 L 176 552 Z M 36 724 L 120 724 L 177 623 L 235 724 L 317 724 L 219 552 L 134 552 L 36 724 Z" unicode="ř" />
<glyph horiz-adv-x="417" d="M 16 0 L 16 0 Z M 208 -7 C 168 -7 133 0 102 12 C 70 25 42 48 16 82 L 80 150 C 94 127 113 109 135 97 C 157 85 179 79 202 79 C 226 79 248 88 267 106 C 285 124 295 149 295 181 C 295 213 286 240 270 261 C 254 282 223 307 179 336 C 135 364 100 394 74 427 C 48 460 35 505 35 562 C 35 588 39 612 49 634 C 59 656 72 674 89 689 C 105 704 125 716 147 724 C 169 732 192 737 217 737 C 257 737 290 730 317 717 C 344 703 365 688 380 672 L 319 601 C 308 612 294 622 276 630 C 258 638 240 643 220 643 C 198 643 178 635 161 621 C 144 606 136 584 136 556 C 136 529 144 506 158 488 C 172 470 203 446 249 418 C 301 385 339 351 361 315 C 383 279 395 236 395 184 C 395 152 389 125 379 101 C 368 77 354 57 337 41 C 319 25 299 13 277 5 C 254 -3 231 -7 208 -7 Z M 211 791 L 211 791 Z M 110 791 L 196 964 L 312 964 L 207 791 L 110 791 Z" unicode="Ś" />
<glyph horiz-adv-x="313" d="M 13 0 L 13 0 Z M 164 -5 C 131 -5 101 1 75 13 C 48 25 27 42 13 63 L 63 131 C 74 114 88 101 105 92 C 121 82 137 78 153 78 C 167 78 180 82 192 92 C 204 101 210 115 210 133 C 210 151 202 165 188 177 C 173 189 152 203 126 219 C 97 235 73 255 55 277 C 37 299 28 330 28 370 C 28 404 40 433 66 458 C 91 482 122 495 159 495 C 187 495 212 490 233 482 C 254 473 272 463 286 451 L 241 377 C 233 384 222 391 208 398 C 194 405 180 409 167 409 C 152 409 139 405 129 398 C 118 390 113 380 113 366 C 113 351 119 339 132 330 C 144 320 165 307 194 289 C 228 267 254 245 270 223 C 286 201 295 170 295 130 C 295 107 290 87 282 70 C 274 53 263 39 251 28 C 238 16 224 8 208 3 C 192 -2 178 -5 164 -5 Z M 160 551 L 160 551 Z M 59 551 L 145 724 L 261 724 L 156 551 L 59 551 Z" unicode="ś" />
<glyph horiz-adv-x="417" d="M 16 0 L 16 0 Z M 208 -7 C 168 -7 133 0 102 12 C 70 25 42 48 16 82 L 80 150 C 94 127 113 109 135 97 C 157 85 179 79 202 79 C 226 79 248 88 267 106 C 285 124 295 149 295 181 C 295 213 286 240 270 261 C 254 282 223 307 179 336 C 135 364 100 394 74 427 C 48 460 35 505 35 562 C 35 588 39 612 49 634 C 59 656 72 674 89 689 C 105 704 125 716 147 724 C 169 732 192 737 217 737 C 257 737 290 730 317 717 C 344 703 365 688 380 672 L 319 601 C 308 612 294 622 276 630 C 258 638 240 643 220 643 C 198 643 178 635 161 621 C 144 606 136 584 136 556 C 136 529 144 506 158 488 C 172 470 203 446 249 418 C 301 385 339 351 361 315 C 383 279 395 236 395 184 C 395 152 389 125 379 101 C 368 77 354 57 337 41 C 319 25 299 13 277 5 C 254 -3 231 -7 208 -7 Z M 211 792 L 211 792 Z M 352 792 L 268 792 L 211 893 L 153 792 L 71 792 L 169 964 L 254 964 L 352 792 Z" unicode="Ŝ" />
<glyph horiz-adv-x="313" d="M 13 0 L 13 0 Z M 164 -5 C 131 -5 101 1 75 13 C 48 25 27 42 13 63 L 63 131 C 74 114 88 101 105 92 C 121 82 137 78 153 78 C 167 78 180 82 192 92 C 204 101 210 115 210 133 C 210 151 202 165 188 177 C 173 189 152 203 126 219 C 97 235 73 255 55 277 C 37 299 28 330 28 370 C 28 404 40 433 66 458 C 91 482 122 495 159 495 C 187 495 212 490 233 482 C 254 473 272 463 286 451 L 241 377 C 233 384 222 391 208 398 C 194 405 180 409 167 409 C 152 409 139 405 129 398 C 118 390 113 380 113 366 C 113 351 119 339 132 330 C 144 320 165 307 194 289 C 228 267 254 245 270 223 C 286 201 295 170 295 130 C 295 107 290 87 282 70 C 274 53 263 39 251 28 C 238 16 224 8 208 3 C 192 -2 178 -5 164 -5 Z M 160 552 L 160 552 Z M 301 552 L 217 552 L 160 653 L 102 552 L 20 552 L 118 724 L 203 724 L 301 552 Z" unicode="ŝ" />
<glyph horiz-adv-x="417" d="M 16 0 L 16 0 Z M 208 -7 C 168 -7 133 0 102 12 C 70 25 42 48 16 82 L 80 150 C 94 127 113 109 135 97 C 157 85 179 79 202 79 C 226 79 248 88 267 106 C 285 124 295 149 295 181 C 295 213 286 240 270 261 C 254 282 223 307 179 336 C 135 364 100 394 74 427 C 48 460 35 505 35 562 C 35 588 39 612 49 634 C 59 656 72 674 89 689 C 105 704 125 716 147 724 C 169 732 192 737 217 737 C 257 737 290 730 317 717 C 344 703 365 688 380 672 L 319 601 C 308 612 294 622 276 630 C 258 638 240 643 220 643 C 198 643 178 635 161 621 C 144 606 136 584 136 556 C 136 529 144 506 158 488 C 172 470 203 446 249 418 C 301 385 339 351 361 315 C 383 279 395 236 395 184 C 395 152 389 125 379 101 C 368 77 354 57 337 41 C 319 25 299 13 277 5 C 254 -3 231 -7 208 -7 Z M 187 0 L 187 0 Z M 192 -182 C 170 -182 149 -179 129 -173 C 109 -167 92 -159 80 -149 L 99 -110 C 107 -115 117 -120 131 -126 C 144 -132 158 -135 174 -135 C 186 -135 196 -132 205 -126 C 213 -120 218 -113 218 -103 C 218 -91 214 -83 206 -78 C 198 -73 189 -71 180 -71 C 173 -71 167 -71 162 -72 C 156 -73 151 -75 146 -77 L 133 -59 L 189 14 L 241 14 L 197 -44 C 225 -41 248 -45 267 -56 C 285 -66 295 -83 295 -107 C 295 -131 285 -149 265 -162 C 245 -175 220 -182 192 -182 Z" unicode="Ş" />
<glyph horiz-adv-x="313" d="M 13 0 L 13 0 Z M 164 -5 C 131 -5 101 1 75 13 C 48 25 27 42 13 63 L 63 131 C 74 114 88 101 105 92 C 121 82 137 78 153 78 C 167 78 180 82 192 92 C 204 101 210 115 210 133 C 210 151 202 165 188 177 C 173 189 152 203 126 219 C 97 235 73 255 55 277 C 37 299 28 330 28 370 C 28 404 40 433 66 458 C 91 482 122 495 159 495 C 187 495 212 490 233 482 C 254 473 272 463 286 451 L 241 377 C 233 384 222 391 208 398 C 194 405 180 409 167 409 C 152 409 139 405 129 398 C 118 390 113 380 113 366 C 113 351 119 339 132 330 C 144 320 165 307 194 289 C 228 267 254 245 270 223 C 286 201 295 170 295 130 C 295 107 290 87 282 70 C 274 53 263 39 251 28 C 238 16 224 8 208 3 C 192 -2 178 -5 164 -5 Z M 146 0 L 146 0 Z M 151 -182 C 129 -182 108 -179 88 -173 C 68 -167 51 -159 39 -149 L 58 -110 C 66 -115 76 -120 90 -126 C 103 -132 117 -135 133 -135 C 145 -135 155 -132 164 -126 C 172 -120 177 -113 177 -103 C 177 -91 173 -83 165 -78 C 157 -73 148 -71 139 -71 C 132 -71 126 -71 121 -72 C 115 -73 110 -75 105 -77 L 92 -59 L 148 14 L 200 14 L 156 -44 C 184 -41 207 -45 226 -56 C 244 -66 254 -83 254 -107 C 254 -131 244 -149 224 -162 C 204 -175 179 -182 151 -182 Z" unicode="ş" />
<glyph horiz-adv-x="417" d="M 16 0 L 16 0 Z M 208 -7 C 168 -7 133 0 102 12 C 70 25 42 48 16 82 L 80 150 C 94 127 113 109 135 97 C 157 85 179 79 202 79 C 226 79 248 88 267 106 C 285 124 295 149 295 181 C 295 213 286 240 270 261 C 254 282 223 307 179 336 C 135 364 100 394 74 427 C 48 460 35 505 35 562 C 35 588 39 612 49 634 C 59 656 72 674 89 689 C 105 704 125 716 147 724 C 169 732 192 737 217 737 C 257 737 290 730 317 717 C 344 703 365 688 380 672 L 319 601 C 308 612 294 622 276 630 C 258 638 240 643 220 643 C 198 643 178 635 161 621 C 144 606 136 584 136 556 C 136 529 144 506 158 488 C 172 470 203 446 249 418 C 301 385 339 351 361 315 C 383 279 395 236 395 184 C 395 152 389 125 379 101 C 368 77 354 57 337 41 C 319 25 299 13 277 5 C 254 -3 231 -7 208 -7 Z M 211 792 L 211 792 Z M 71 964 L 155 964 L 212 863 L 270 964 L 352 964 L 254 792 L 169 792 L 71 964 Z" unicode="Š" />
<glyph horiz-adv-x="313" d="M 13 0 L 13 0 Z M 164 -5 C 131 -5 101 1 75 13 C 48 25 27 42 13 63 L 63 131 C 74 114 88 101 105 92 C 121 82 137 78 153 78 C 167 78 180 82 192 92 C 204 101 210 115 210 133 C 210 151 202 165 188 177 C 173 189 152 203 126 219 C 97 235 73 255 55 277 C 37 299 28 330 28 370 C 28 404 40 433 66 458 C 91 482 122 495 159 495 C 187 495 212 490 233 482 C 254 473 272 463 286 451 L 241 377 C 233 384 222 391 208 398 C 194 405 180 409 167 409 C 152 409 139 405 129 398 C 118 390 113 380 113 366 C 113 351 119 339 132 330 C 144 320 165 307 194 289 C 228 267 254 245 270 223 C 286 201 295 170 295 130 C 295 107 290 87 282 70 C 274 53 263 39 251 28 C 238 16 224 8 208 3 C 192 -2 178 -5 164 -5 Z M 160 552 L 160 552 Z M 20 724 L 104 724 L 161 623 L 219 724 L 301 724 L 203 552 L 118 552 L 20 724 Z" unicode="š" />
<glyph horiz-adv-x="380" d="M 6 0 L 6 0 Z M 374 632 L 245 632 L 245 0 L 135 0 L 135 632 L 6 632 L 6 730 L 374 730 L 374 632 Z M 190 792 L 190 792 Z M 50 964 L 134 964 L 191 863 L 249 964 L 331 964 L 233 792 L 148 792 L 50 964 Z" unicode="Ť" />
<glyph horiz-adv-x="228" d="M 7 0 L 7 0 Z M 209 96 L 229 17 C 223 12 214 7 203 3 C 191 -1 176 -4 156 -4 C 145 -4 133 -1 121 3 C 109 7 97 14 87 24 C 76 34 67 46 60 62 C 53 78 50 97 50 120 L 50 403 L 7 403 L 7 490 L 53 490 L 53 620 L 148 632 L 148 490 L 213 490 L 213 403 L 150 403 L 150 124 C 150 112 153 103 159 97 C 165 91 172 88 182 88 C 186 88 191 88 197 90 C 202 92 206 94 209 96 Z M 332 621 L 328 480 L 242 480 L 237 621 L 237 730 L 332 730 L 332 621 Z" unicode="ť" />
<glyph horiz-adv-x="380" d="M 352 434 L 245 434 L 245 0 L 135 0 L 135 434 L 28 434 L 28 521 L 135 521 L 135 632 L 6 632 L 6 730 L 374 730 L 374 632 L 245 632 L 245 521 L 352 521 L 352 434 Z" unicode="Ŧ" />
<glyph horiz-adv-x="228" d="M 229 17 C 223 12 214 7 203 3 C 191 -1 176 -4 156 -4 C 145 -4 133 -1 121 3 C 109 7 97 14 87 24 C 76 34 67 46 60 62 C 53 78 50 97 50 120 L 50 255 L 16 255 L 16 342 L 50 342 L 50 403 L 7 403 L 7 490 L 53 490 L 53 620 L 148 632 L 148 490 L 213 490 L 213 403 L 150 403 L 150 342 L 197 342 L 197 255 L 150 255 L 150 124 C 150 112 153 103 159 97 C 165 91 172 88 182 88 C 186 88 191 88 197 90 C 202 92 206 94 209 96 L 229 17 Z" unicode="ŧ" />
<glyph horiz-adv-x="534" d="M 53 0 L 53 0 Z M 481 730 L 481 220 C 481 179 475 144 463 116 C 451 87 434 63 414 45 C 394 27 370 13 344 5 C 317 -2 289 -7 260 -7 C 232 -7 206 -3 181 5 C 155 13 133 26 115 44 C 96 62 81 85 70 114 C 58 143 53 178 53 220 L 53 730 L 161 730 L 161 217 C 161 169 170 136 190 117 C 209 97 234 88 264 88 C 293 88 318 97 338 115 C 358 133 369 167 369 217 L 369 730 L 481 730 Z M 265 798 L 265 798 Z M 346 938 L 421 938 C 421 890 414 855 400 832 C 386 809 369 798 348 798 C 329 798 313 801 300 808 C 287 814 276 821 268 827 C 259 833 250 839 242 845 C 233 851 224 854 216 854 C 207 854 200 849 194 839 C 188 829 184 817 184 801 L 110 801 C 110 848 118 883 136 907 C 153 930 172 942 192 942 C 208 942 222 938 234 931 C 246 924 257 917 268 910 C 276 904 284 898 292 893 C 299 888 307 886 315 886 C 323 886 330 890 336 899 C 342 908 346 921 346 938 Z" unicode="Ũ" />
<glyph horiz-adv-x="407" d="M 37 0 L 37 0 Z M 37 490 L 138 490 L 138 150 C 138 124 143 105 154 93 C 165 81 181 75 201 75 C 219 75 234 81 248 95 C 261 108 268 133 268 169 L 268 490 L 368 490 L 368 0 L 276 0 L 276 61 C 268 42 254 26 234 13 C 214 0 189 -6 159 -6 C 126 -6 97 4 73 25 C 49 46 37 79 37 123 L 37 490 Z M 202 558 L 202 558 Z M 283 698 L 358 698 C 358 650 351 615 337 592 C 323 569 306 558 285 558 C 266 558 250 561 237 568 C 224 574 213 581 205 587 C 196 593 187 599 179 605 C 170 611 161 614 153 614 C 144 614 137 609 131 599 C 125 589 121 577 121 561 L 47 561 C 47 608 55 643 73 667 C 90 690 109 702 129 702 C 145 702 159 698 171 691 C 183 684 194 677 205 670 C 213 664 221 658 229 653 C 236 648 244 646 252 646 C 260 646 267 650 273 659 C 279 668 283 681 283 698 Z" unicode="ũ" />
<glyph horiz-adv-x="534" d="M 53 0 L 53 0 Z M 481 730 L 481 220 C 481 179 475 144 463 116 C 451 87 434 63 414 45 C 394 27 370 13 344 5 C 317 -2 289 -7 260 -7 C 232 -7 206 -3 181 5 C 155 13 133 26 115 44 C 96 62 81 85 70 114 C 58 143 53 178 53 220 L 53 730 L 161 730 L 161 217 C 161 169 170 136 190 117 C 209 97 234 88 264 88 C 293 88 318 97 338 115 C 358 133 369 167 369 217 L 369 730 L 481 730 Z M 265 809 L 265 809 Z M 389 809 L 141 809 L 141 889 L 389 889 L 389 809 Z" unicode="Ū" />
<glyph horiz-adv-x="407" d="M 37 0 L 37 0 Z M 37 490 L 138 490 L 138 150 C 138 124 143 105 154 93 C 165 81 181 75 201 75 C 219 75 234 81 248 95 C 261 108 268 133 268 169 L 268 490 L 368 490 L 368 0 L 276 0 L 276 61 C 268 42 254 26 234 13 C 214 0 189 -6 159 -6 C 126 -6 97 4 73 25 C 49 46 37 79 37 123 L 37 490 Z M 202 569 L 202 569 Z M 326 569 L 78 569 L 78 649 L 326 649 L 326 569 Z" unicode="ū" />
<glyph horiz-adv-x="534" d="M 53 0 L 53 0 Z M 481 730 L 481 220 C 481 179 475 144 463 116 C 451 87 434 63 414 45 C 394 27 370 13 344 5 C 317 -2 289 -7 260 -7 C 232 -7 206 -3 181 5 C 155 13 133 26 115 44 C 96 62 81 85 70 114 C 58 143 53 178 53 220 L 53 730 L 161 730 L 161 217 C 161 169 170 136 190 117 C 209 97 234 88 264 88 C 293 88 318 97 338 115 C 358 133 369 167 369 217 L 369 730 L 481 730 Z M 265 796 L 265 796 Z M 318 954 L 402 954 C 398 899 383 859 359 834 C 334 808 303 796 265 796 C 227 796 195 808 171 834 C 146 859 132 899 129 954 L 213 954 C 214 929 218 909 226 895 C 233 880 246 873 265 873 C 283 873 296 879 304 893 C 312 907 316 927 318 954 Z" unicode="Ŭ" />
<glyph horiz-adv-x="407" d="M 37 0 L 37 0 Z M 37 490 L 138 490 L 138 150 C 138 124 143 105 154 93 C 165 81 181 75 201 75 C 219 75 234 81 248 95 C 261 108 268 133 268 169 L 268 490 L 368 490 L 368 0 L 276 0 L 276 61 C 268 42 254 26 234 13 C 214 0 189 -6 159 -6 C 126 -6 97 4 73 25 C 49 46 37 79 37 123 L 37 490 Z M 202 556 L 202 556 Z M 255 714 L 339 714 C 335 659 320 619 296 594 C 271 568 240 556 202 556 C 164 556 132 568 108 594 C 83 619 69 659 66 714 L 150 714 C 151 689 155 669 163 655 C 170 640 183 633 202 633 C 220 633 233 639 241 653 C 249 667 253 687 255 714 Z" unicode="ŭ" />
<glyph horiz-adv-x="534" d="M 53 0 L 53 0 Z M 481 730 L 481 220 C 481 179 475 144 463 116 C 451 87 434 63 414 45 C 394 27 370 13 344 5 C 317 -2 289 -7 260 -7 C 232 -7 206 -3 181 5 C 155 13 133 26 115 44 C 96 62 81 85 70 114 C 58 143 53 178 53 220 L 53 730 L 161 730 L 161 217 C 161 169 170 136 190 117 C 209 97 234 88 264 88 C 293 88 318 97 338 115 C 358 133 369 167 369 217 L 369 730 L 481 730 Z M 265 778 L 265 778 Z M 265 778 C 231 778 203 789 180 813 C 156 836 145 864 145 898 C 145 930 156 958 180 982 C 203 1005 231 1017 265 1017 C 299 1017 327 1005 351 982 C 374 958 386 930 386 898 C 386 864 374 836 351 813 C 327 789 299 778 265 778 Z M 265 837 C 281 837 295 843 307 855 C 318 867 324 881 324 898 C 324 914 318 928 307 940 C 295 952 281 958 265 958 C 249 958 235 952 224 940 C 212 928 207 914 207 898 C 207 881 212 867 224 855 C 235 843 249 837 265 837 Z" unicode="Ů" />
<glyph horiz-adv-x="407" d="M 37 0 L 37 0 Z M 37 490 L 138 490 L 138 150 C 138 124 143 105 154 93 C 165 81 181 75 201 75 C 219 75 234 81 248 95 C 261 108 268 133 268 169 L 268 490 L 368 490 L 368 0 L 276 0 L 276 61 C 268 42 254 26 234 13 C 214 0 189 -6 159 -6 C 126 -6 97 4 73 25 C 49 46 37 79 37 123 L 37 490 Z M 202 538 L 202 538 Z M 202 538 C 168 538 140 549 117 573 C 93 596 82 624 82 658 C 82 690 93 718 117 742 C 140 765 168 777 202 777 C 236 777 264 765 288 742 C 311 718 323 690 323 658 C 323 624 311 596 288 573 C 264 549 236 538 202 538 Z M 202 597 C 218 597 232 603 244 615 C 255 627 261 641 261 658 C 261 674 255 688 244 700 C 232 712 218 718 202 718 C 186 718 172 712 161 700 C 149 688 144 674 144 658 C 144 641 149 627 161 615 C 172 603 186 597 202 597 Z" unicode="ů" />
<glyph horiz-adv-x="534" d="M 53 0 L 53 0 Z M 481 730 L 481 220 C 481 179 475 144 463 116 C 451 87 434 63 414 45 C 394 27 370 13 344 5 C 317 -2 289 -7 260 -7 C 232 -7 206 -3 181 5 C 155 13 133 26 115 44 C 96 62 81 85 70 114 C 58 143 53 178 53 220 L 53 730 L 161 730 L 161 217 C 161 169 170 136 190 117 C 209 97 234 88 264 88 C 293 88 318 97 338 115 C 358 133 369 167 369 217 L 369 730 L 481 730 Z M 265 791 L 265 791 Z M 92 791 L 156 953 L 263 953 L 181 791 L 92 791 Z M 267 791 L 333 953 L 440 953 L 356 791 L 267 791 Z" unicode="Ű" />
<glyph horiz-adv-x="407" d="M 29 0 L 29 0 Z M 37 490 L 138 490 L 138 150 C 138 124 143 105 154 93 C 165 81 181 75 201 75 C 219 75 234 81 248 95 C 261 108 268 133 268 169 L 268 490 L 368 490 L 368 0 L 276 0 L 276 61 C 268 42 254 26 234 13 C 214 0 189 -6 159 -6 C 126 -6 97 4 73 25 C 49 46 37 79 37 123 L 37 490 Z M 202 551 L 202 551 Z M 29 551 L 93 713 L 200 713 L 118 551 L 29 551 Z M 204 551 L 270 713 L 377 713 L 293 551 L 204 551 Z" unicode="ű" />
<glyph horiz-adv-x="534" d="M 53 0 L 53 0 Z M 481 730 L 481 220 C 481 179 475 144 463 116 C 451 87 434 63 414 45 C 394 27 370 13 344 5 C 317 -2 289 -7 260 -7 C 232 -7 206 -3 181 5 C 155 13 133 26 115 44 C 96 62 81 85 70 114 C 58 143 53 178 53 220 L 53 730 L 161 730 L 161 217 C 161 169 170 136 190 117 C 209 97 234 88 264 88 C 293 88 318 97 338 115 C 358 133 369 167 369 217 L 369 730 L 481 730 Z M 288 -8 L 288 -8 Z M 383 -91 L 412 -134 C 391 -155 369 -171 345 -182 C 321 -193 295 -199 267 -199 C 234 -199 208 -191 190 -177 C 172 -162 163 -143 163 -121 C 163 -96 172 -73 191 -51 C 209 -29 238 -10 277 5 L 340 5 C 314 -7 293 -20 276 -35 C 258 -50 250 -65 250 -80 C 250 -92 254 -103 264 -111 C 273 -119 285 -123 300 -123 C 316 -123 332 -120 346 -114 C 360 -108 373 -100 383 -91 Z" unicode="Ų" />
<glyph horiz-adv-x="407" d="M 37 0 L 37 0 Z M 37 490 L 138 490 L 138 150 C 138 124 143 105 154 93 C 165 81 181 75 201 75 C 219 75 234 81 248 95 C 261 108 268 133 268 169 L 268 490 L 368 490 L 368 0 L 276 0 L 276 61 C 268 42 254 26 234 13 C 214 0 189 -6 159 -6 C 126 -6 97 4 73 25 C 49 46 37 79 37 123 L 37 490 Z M 286 -8 L 286 -8 Z M 381 -91 L 410 -134 C 389 -155 367 -171 343 -182 C 319 -193 293 -199 265 -199 C 232 -199 206 -191 188 -177 C 170 -162 161 -143 161 -121 C 161 -96 170 -73 189 -51 C 207 -29 236 -10 275 5 L 338 5 C 312 -7 291 -20 274 -35 C 256 -50 248 -65 248 -80 C 248 -92 252 -103 262 -111 C 271 -119 283 -123 298 -123 C 314 -123 330 -120 344 -114 C 358 -108 371 -100 381 -91 Z" unicode="ų" />
<glyph horiz-adv-x="693" d="M 3 0 L 3 0 Z M 673 730 L 524 -3 L 449 -3 L 338 511 L 226 -3 L 151 -3 L 3 730 L 106 730 L 200 217 L 303 730 L 383 730 L 485 218 L 580 730 L 673 730 Z M 344 792 L 344 792 Z M 485 792 L 401 792 L 344 893 L 286 792 L 204 792 L 302 964 L 387 964 L 485 792 Z" unicode="Ŵ" />
<glyph horiz-adv-x="549" d="M 0 0 L 0 0 Z M 348 -2 L 275 271 L 200 -2 L 121 -2 L -1 490 L 93 490 L 171 156 L 240 425 L 315 425 L 383 157 L 463 490 L 549 490 L 426 -2 L 348 -2 Z M 274 552 L 274 552 Z M 415 552 L 331 552 L 274 653 L 216 552 L 134 552 L 232 724 L 317 724 L 415 552 Z" unicode="ŵ" />
<glyph horiz-adv-x="464" d="M 0 0 L 0 0 Z M 469 730 L 285 311 L 285 0 L 175 0 L 175 313 L -4 730 L 116 730 L 236 426 L 363 730 L 469 730 Z M 236 792 L 236 792 Z M 377 792 L 293 792 L 236 893 L 178 792 L 96 792 L 194 964 L 279 964 L 377 792 Z" unicode="Ŷ" />
<glyph horiz-adv-x="347" d="M 0 0 L 0 0 Z M 352 490 L 183 -100 C 173 -132 157 -157 134 -174 C 111 -191 85 -200 56 -200 C 34 -200 16 -197 2 -193 C -11 -188 -22 -183 -29 -179 L 8 -102 C 10 -104 16 -107 26 -110 C 36 -113 45 -115 54 -115 C 65 -115 75 -110 84 -101 C 93 -92 100 -79 105 -61 L 130 39 L -5 490 L 99 490 L 180 182 L 256 490 L 352 490 Z M 177 552 L 177 552 Z M 318 552 L 234 552 L 177 653 L 119 552 L 37 552 L 135 724 L 220 724 L 318 552 Z" unicode="ŷ" />
<glyph horiz-adv-x="464" d="M 0 0 L 0 0 Z M 469 730 L 285 311 L 285 0 L 175 0 L 175 313 L -4 730 L 116 730 L 236 426 L 363 730 L 469 730 Z M 236 792 L 236 792 Z M 353 792 L 272 792 L 272 951 L 353 951 L 353 792 Z M 200 792 L 119 792 L 119 951 L 200 951 L 200 792 Z" unicode="Ÿ" />
<glyph horiz-adv-x="421" d="M 14 0 L 14 0 Z M 396 730 L 396 674 L 148 96 L 407 96 L 407 0 L 14 0 L 14 54 L 265 632 L 42 632 L 42 730 L 396 730 Z M 220 791 L 220 791 Z M 119 791 L 205 964 L 321 964 L 216 791 L 119 791 Z" unicode="Ź" />
<glyph horiz-adv-x="327" d="M 10 0 L 10 0 Z M 311 490 L 311 444 L 138 87 L 317 87 L 317 0 L 10 0 L 10 38 L 191 403 L 22 403 L 22 490 L 311 490 Z M 171 551 L 171 551 Z M 70 551 L 156 724 L 272 724 L 167 551 L 70 551 Z" unicode="ź" />
<glyph horiz-adv-x="421" d="M 14 0 L 14 0 Z M 396 730 L 396 674 L 148 96 L 407 96 L 407 0 L 14 0 L 14 54 L 265 632 L 42 632 L 42 730 L 396 730 Z M 220 804 L 220 804 Z M 267 804 L 174 804 L 174 926 L 267 926 L 267 804 Z" unicode="Ż" />
<glyph horiz-adv-x="327" d="M 10 0 L 10 0 Z M 311 490 L 311 444 L 138 87 L 317 87 L 317 0 L 10 0 L 10 38 L 191 403 L 22 403 L 22 490 L 311 490 Z M 171 564 L 171 564 Z M 218 564 L 125 564 L 125 686 L 218 686 L 218 564 Z" unicode="ż" />
<glyph horiz-adv-x="421" d="M 14 0 L 14 0 Z M 396 730 L 396 674 L 148 96 L 407 96 L 407 0 L 14 0 L 14 54 L 265 632 L 42 632 L 42 730 L 396 730 Z M 220 792 L 220 792 Z M 80 964 L 164 964 L 221 863 L 279 964 L 361 964 L 263 792 L 178 792 L 80 964 Z" unicode="Ž" />
<glyph horiz-adv-x="327" d="M 10 0 L 10 0 Z M 311 490 L 311 444 L 138 87 L 317 87 L 317 0 L 10 0 L 10 38 L 191 403 L 22 403 L 22 490 L 311 490 Z M 171 552 L 171 552 Z M 31 724 L 115 724 L 172 623 L 230 724 L 312 724 L 214 552 L 129 552 L 31 724 Z" unicode="ž" />
<glyph horiz-adv-x="363" d="M 190 -57 C 187 -89 174 -117 151 -142 C 127 -166 98 -179 62 -179 C 43 -179 25 -177 8 -174 C -9 -171 -22 -168 -31 -164 L -21 -88 C -16 -88 -9 -90 0 -92 C 10 -94 19 -95 28 -95 C 47 -95 64 -88 79 -75 C 93 -62 102 -43 105 -19 L 135 323 L 40 323 L 40 411 L 143 411 L 162 625 C 164 644 169 661 177 676 C 185 690 194 702 206 712 C 217 722 229 729 243 734 C 257 739 270 742 284 742 C 298 742 311 741 325 740 C 339 739 347 738 350 738 L 342 649 C 340 649 336 650 330 651 C 324 651 318 652 312 652 C 293 652 278 645 266 633 C 254 620 247 600 245 574 L 231 411 L 334 411 L 334 323 L 223 323 L 190 -57 Z" unicode="ƒ" />
<glyph horiz-adv-x="417" d="M 16 0 L 16 0 Z M 208 -7 C 168 -7 133 0 102 12 C 70 25 42 48 16 82 L 80 150 C 94 127 113 109 135 97 C 157 85 179 79 202 79 C 226 79 248 88 267 106 C 285 124 295 149 295 181 C 295 213 286 240 270 261 C 254 282 223 307 179 336 C 135 364 100 394 74 427 C 48 460 35 505 35 562 C 35 588 39 612 49 634 C 59 656 72 674 89 689 C 105 704 125 716 147 724 C 169 732 192 737 217 737 C 257 737 290 730 317 717 C 344 703 365 688 380 672 L 319 601 C 308 612 294 622 276 630 C 258 638 240 643 220 643 C 198 643 178 635 161 621 C 144 606 136 584 136 556 C 136 529 144 506 158 488 C 172 470 203 446 249 418 C 301 385 339 351 361 315 C 383 279 395 236 395 184 C 395 152 389 125 379 101 C 368 77 354 57 337 41 C 319 25 299 13 277 5 C 254 -3 231 -7 208 -7 Z M 187 -72 L 187 -72 Z M 274 -72 C 274 -94 270 -118 264 -143 C 258 -167 250 -191 241 -214 C 231 -237 221 -258 210 -277 C 198 -296 187 -311 177 -323 L 99 -288 C 106 -278 113 -266 121 -250 C 129 -234 136 -217 143 -198 C 149 -178 155 -158 160 -136 C 164 -114 167 -93 168 -72 L 274 -72 Z" unicode="Ș" />
<glyph horiz-adv-x="313" d="M 13 0 L 13 0 Z M 164 -5 C 131 -5 101 1 75 13 C 48 25 27 42 13 63 L 63 131 C 74 114 88 101 105 92 C 121 82 137 78 153 78 C 167 78 180 82 192 92 C 204 101 210 115 210 133 C 210 151 202 165 188 177 C 173 189 152 203 126 219 C 97 235 73 255 55 277 C 37 299 28 330 28 370 C 28 404 40 433 66 458 C 91 482 122 495 159 495 C 187 495 212 490 233 482 C 254 473 272 463 286 451 L 241 377 C 233 384 222 391 208 398 C 194 405 180 409 167 409 C 152 409 139 405 129 398 C 118 390 113 380 113 366 C 113 351 119 339 132 330 C 144 320 165 307 194 289 C 228 267 254 245 270 223 C 286 201 295 170 295 130 C 295 107 290 87 282 70 C 274 53 263 39 251 28 C 238 16 224 8 208 3 C 192 -2 178 -5 164 -5 Z M 146 -72 L 146 -72 Z M 233 -72 C 233 -94 229 -118 223 -143 C 217 -167 209 -191 200 -214 C 190 -237 180 -258 169 -277 C 157 -296 146 -311 136 -323 L 58 -288 C 65 -278 72 -266 80 -250 C 88 -234 95 -217 102 -198 C 108 -178 114 -158 119 -136 C 123 -114 126 -93 127 -72 L 233 -72 Z" unicode="ș" />
<glyph horiz-adv-x="380" d="M 6 0 L 6 0 Z M 374 632 L 245 632 L 245 0 L 135 0 L 135 632 L 6 632 L 6 730 L 374 730 L 374 632 Z M 167 -72 L 167 -72 Z M 254 -72 C 254 -94 250 -118 244 -143 C 238 -167 230 -191 221 -214 C 211 -237 201 -258 190 -277 C 178 -296 167 -311 157 -323 L 79 -288 C 86 -278 93 -266 101 -250 C 109 -234 116 -217 123 -198 C 129 -178 135 -158 140 -136 C 144 -114 147 -93 148 -72 L 254 -72 Z" unicode="Ț" />
<glyph horiz-adv-x="228" d="M 7 0 L 7 0 Z M 209 96 L 229 17 C 223 12 214 7 203 3 C 191 -1 176 -4 156 -4 C 145 -4 133 -1 121 3 C 109 7 97 14 87 24 C 76 34 67 46 60 62 C 53 78 50 97 50 120 L 50 403 L 7 403 L 7 490 L 53 490 L 53 620 L 148 632 L 148 490 L 213 490 L 213 403 L 150 403 L 150 124 C 150 112 153 103 159 97 C 165 91 172 88 182 88 C 186 88 191 88 197 90 C 202 92 206 94 209 96 Z M 115 -72 L 115 -72 Z M 202 -72 C 202 -94 198 -118 192 -143 C 186 -167 178 -191 169 -214 C 159 -237 149 -258 138 -277 C 126 -296 115 -311 105 -323 L 27 -288 C 34 -278 41 -266 49 -250 C 57 -234 64 -217 71 -198 C 77 -178 83 -158 88 -136 C 92 -114 95 -93 96 -72 L 202 -72 Z" unicode="ț" />
<glyph horiz-adv-x="182" d="M 143 490 L 143 -78 C 143 -108 133 -134 113 -154 C 93 -174 67 -185 35 -185 C 19 -185 4 -182 -10 -178 C -24 -173 -33 -169 -37 -165 L -11 -95 C -8 -95 -4 -96 0 -98 C 3 -99 8 -100 14 -100 C 22 -100 29 -96 35 -90 C 40 -84 43 -75 43 -65 L 43 490 L 143 490 Z" unicode="ȷ" />
<glyph horiz-adv-x="500" d="M 391 552 L 307 552 L 250 653 L 192 552 L 110 552 L 208 724 L 293 724 L 391 552 Z" unicode="ˆ" />
<glyph horiz-adv-x="500" d="M 110 724 L 194 724 L 251 623 L 309 724 L 391 724 L 293 552 L 208 552 L 110 724 Z" unicode="ˇ" />
<glyph horiz-adv-x="500" d="M 303 714 L 387 714 C 383 659 368 619 344 594 C 319 568 288 556 250 556 C 212 556 180 568 156 594 C 131 619 117 659 114 714 L 198 714 C 199 689 203 669 211 655 C 218 640 231 633 250 633 C 268 633 281 639 289 653 C 297 667 301 687 303 714 Z" unicode="˘" />
<glyph horiz-adv-x="500" d="M 297 564 L 204 564 L 204 686 L 297 686 L 297 564 Z" unicode="˙" />
<glyph horiz-adv-x="500" d="M 250 538 C 216 538 188 549 165 573 C 141 596 130 624 130 658 C 130 690 141 718 165 742 C 188 765 216 777 250 777 C 284 777 312 765 336 742 C 359 718 371 690 371 658 C 371 624 359 596 336 573 C 312 549 284 538 250 538 Z M 250 597 C 266 597 280 603 292 615 C 303 627 309 641 309 658 C 309 674 303 688 292 700 C 280 712 266 718 250 718 C 234 718 220 712 209 700 C 197 688 192 674 192 658 C 192 641 197 627 209 615 C 220 603 234 597 250 597 Z" unicode="˚" />
<glyph horiz-adv-x="500" d="M 353 -83 L 382 -126 C 361 -147 339 -163 315 -174 C 291 -185 265 -191 237 -191 C 204 -191 178 -183 160 -169 C 142 -154 133 -135 133 -113 C 133 -88 142 -65 161 -43 C 179 -21 208 -2 247 13 L 310 13 C 284 1 263 -12 246 -27 C 228 -42 220 -57 220 -72 C 220 -84 224 -95 234 -103 C 243 -111 255 -115 270 -115 C 286 -115 302 -112 316 -106 C 330 -100 343 -92 353 -83 Z" unicode="˛" />
<glyph horiz-adv-x="500" d="M 335 698 L 410 698 C 410 650 403 615 389 592 C 375 569 358 558 337 558 C 318 558 302 561 289 568 C 276 574 265 581 257 587 C 248 593 239 599 231 605 C 222 611 213 614 205 614 C 196 614 189 609 183 599 C 177 589 173 577 173 561 L 99 561 C 99 608 107 643 125 667 C 142 690 161 702 181 702 C 197 702 211 698 223 691 C 235 684 246 677 257 670 C 265 664 273 658 281 653 C 288 648 296 646 304 646 C 312 646 319 650 325 659 C 331 668 335 681 335 698 Z" unicode="˜" />
<glyph horiz-adv-x="500" d="M 97 551 L 161 713 L 268 713 L 186 551 L 97 551 Z M 272 551 L 338 713 L 445 713 L 361 551 L 272 551 Z" unicode="˝" />
<glyph horiz-adv-x="0" d="M 0 551 L 0 551 Z M 101 551 L 4 551 L -101 724 L 15 724 L 101 551 Z" unicode="̀" />
<glyph horiz-adv-x="0" d="M 0 551 L 0 551 Z M -101 551 L -15 724 L 101 724 L -4 551 L -101 551 Z" unicode="́" />
<glyph horiz-adv-x="0" d="M 0 552 L 0 552 Z M 141 552 L 57 552 L 0 653 L -58 552 L -140 552 L -42 724 L 43 724 L 141 552 Z" unicode="̂" />
<glyph horiz-adv-x="0" d="M 0 558 L 0 558 Z M 81 698 L 156 698 C 156 650 149 615 135 592 C 121 569 104 558 83 558 C 64 558 48 561 35 568 C 22 574 11 581 3 587 C -5 593 -14 599 -23 605 C -31 611 -40 614 -49 614 C -57 614 -65 609 -71 599 C -77 589 -80 577 -81 561 L -155 561 C -155 608 -146 643 -129 667 C -111 690 -93 702 -73 702 C -56 702 -42 698 -30 691 C -18 684 -7 677 3 670 C 11 664 19 658 27 653 C 34 648 42 646 50 646 C 58 646 65 650 71 659 C 77 668 81 681 81 698 Z" unicode="̃" />
<glyph horiz-adv-x="0" d="M 0 569 L 0 569 Z M 124 569 L -124 569 L -124 649 L 124 649 L 124 569 Z" unicode="̄" />
<glyph horiz-adv-x="0" d="M 0 556 L 0 556 Z M 53 714 L 137 714 C 133 659 118 619 94 594 C 69 568 38 556 0 556 C -38 556 -69 568 -94 594 C -118 619 -132 659 -136 714 L -52 714 C -50 689 -46 669 -39 655 C -31 640 -18 633 0 633 C 18 633 31 639 39 653 C 47 667 51 687 53 714 Z" unicode="̆" />
<glyph horiz-adv-x="0" d="M 0 564 L 0 564 Z M 47 564 L -46 564 L -46 686 L 47 686 L 47 564 Z" unicode="̇" />
<glyph horiz-adv-x="0" d="M 0 552 L 0 552 Z M 117 552 L 36 552 L 36 711 L 117 711 L 117 552 Z M -36 552 L -117 552 L -117 711 L -36 711 L -36 552 Z" unicode="̈" />
<glyph horiz-adv-x="0" d="M 0 538 L 0 538 Z M 0 538 C -33 538 -61 549 -85 573 C -108 596 -120 624 -120 658 C -120 690 -108 718 -85 742 C -61 765 -33 777 0 777 C 34 777 62 765 86 742 C 109 718 121 690 121 658 C 121 624 109 596 86 573 C 62 549 34 538 0 538 Z M 0 597 C 16 597 30 603 42 615 C 53 627 59 641 59 658 C 59 674 53 688 42 700 C 30 712 16 718 0 718 C -16 718 -29 712 -41 700 C -52 688 -58 674 -58 658 C -58 641 -52 627 -41 615 C -29 603 -16 597 0 597 Z" unicode="̊" />
<glyph horiz-adv-x="0" d="M 0 551 L 0 551 Z M -173 551 L -109 713 L -2 713 L -84 551 L -173 551 Z M 2 551 L 68 713 L 175 713 L 91 551 L 2 551 Z" unicode="̋" />
<glyph horiz-adv-x="0" d="M 0 552 L 0 552 Z M -140 724 L -56 724 L 1 623 L 59 724 L 141 724 L 43 552 L -42 552 L -140 724 Z" unicode="̌" />
<glyph horiz-adv-x="0" d="M 0 -72 L 0 -72 Z M 87 -72 C 87 -94 83 -118 77 -143 C 71 -167 63 -191 54 -214 C 44 -237 34 -258 23 -277 C 11 -296 0 -311 -10 -323 L -88 -288 C -80 -278 -73 -266 -65 -250 C -57 -234 -50 -217 -44 -198 C -37 -178 -31 -158 -27 -136 C -22 -114 -19 -93 -19 -72 L 87 -72 Z" unicode="̦" />
<glyph horiz-adv-x="0" d="M 0 0 L 0 0 Z M 5 -182 C -16 -182 -37 -179 -57 -173 C -77 -167 -94 -159 -107 -149 L -88 -110 C -80 -115 -69 -120 -56 -126 C -42 -132 -28 -135 -13 -135 C -1 -135 9 -132 18 -126 C 26 -120 31 -113 31 -103 C 31 -91 27 -83 19 -78 C 11 -73 2 -71 -7 -71 C -13 -71 -19 -71 -25 -72 C -30 -73 -35 -75 -41 -77 L -54 -59 L 2 14 L 54 14 L 10 -44 C 38 -41 61 -45 80 -56 C 98 -66 108 -83 108 -107 C 108 -131 98 -149 78 -162 C 58 -175 33 -182 5 -182 Z" unicode="̧" />
<glyph horiz-adv-x="0" d="M 0 0 L 0 0 Z M 95 -83 L 124 -126 C 103 -147 81 -163 57 -174 C 33 -185 7 -191 -21 -191 C -53 -191 -79 -183 -97 -169 C -115 -154 -125 -135 -125 -113 C -125 -88 -115 -65 -97 -43 C -78 -21 -49 -2 -11 13 L 52 13 C 26 1 5 -12 -12 -27 C -29 -42 -38 -57 -38 -72 C -38 -84 -33 -95 -24 -103 C -14 -111 -2 -115 12 -115 C 28 -115 44 -112 58 -106 C 72 -100 85 -92 95 -83 Z" unicode="̨" />
<glyph horiz-adv-x="563" d="M 0 0 L 0 0 Z M 559 0 L 0 0 L 265 730 L 295 730 L 559 0 Z M 430 77 L 277 545 L 126 77 L 430 77 Z" unicode="Δ" />
<glyph horiz-adv-x="724" d="M 24 0 L 24 0 Z M 33 0 L 33 94 L 238 94 L 238 157 C 206 165 176 179 150 197 C 124 215 101 237 83 263 C 64 289 49 317 39 349 C 29 380 24 412 24 446 C 24 488 31 527 46 564 C 61 600 83 632 111 659 C 139 686 174 707 216 723 C 257 739 304 747 356 747 C 410 747 458 739 501 723 C 543 707 579 685 608 658 C 637 631 659 599 674 563 C 689 526 697 487 697 446 C 697 412 692 379 683 348 C 674 317 661 289 643 264 C 625 239 603 217 576 199 C 548 180 517 166 481 157 L 481 94 L 687 94 L 687 0 L 407 0 L 407 212 C 436 219 462 230 484 246 C 506 262 525 280 540 300 C 554 320 565 343 573 367 C 581 391 585 416 585 441 C 585 505 563 557 521 599 C 479 640 424 661 357 661 C 291 661 237 640 196 598 C 155 556 135 503 135 439 C 135 415 138 391 146 367 C 153 343 164 322 179 302 C 193 282 212 264 234 248 C 256 232 283 220 313 212 L 313 0 L 33 0 Z" unicode="Ω" />
<glyph horiz-adv-x="588" d="M 66 0 L 66 0 Z M 66 -103 L 66 508 L 167 508 L 167 166 C 167 138 179 115 203 98 C 227 81 253 73 283 73 C 299 73 315 75 331 80 C 347 84 361 91 373 100 C 385 109 396 121 404 135 C 412 149 416 165 416 183 L 416 508 L 516 508 L 516 0 L 424 0 L 424 95 C 414 69 393 45 363 25 C 332 5 300 -5 266 -6 C 243 -6 221 -1 201 8 C 181 17 167 30 159 47 L 159 -103 L 66 -103 Z" unicode="μ" />
<glyph horiz-adv-x="536" d="M 181 430 L 181 0 L 81 0 L 81 430 L 15 430 L 15 508 L 521 508 L 521 430 L 451 430 L 451 0 L 350 0 L 350 430 L 181 430 Z" unicode="π" />
<glyph horiz-adv-x="693" d="M 3 0 L 3 0 Z M 673 730 L 524 -3 L 449 -3 L 338 511 L 226 -3 L 151 -3 L 3 730 L 106 730 L 200 217 L 303 730 L 383 730 L 485 218 L 580 730 L 673 730 Z M 344 791 L 344 791 Z M 445 791 L 348 791 L 243 964 L 359 964 L 445 791 Z" unicode="Ẁ" />
<glyph horiz-adv-x="549" d="M 0 0 L 0 0 Z M 348 -2 L 275 271 L 200 -2 L 121 -2 L -1 490 L 93 490 L 171 156 L 240 425 L 315 425 L 383 157 L 463 490 L 549 490 L 426 -2 L 348 -2 Z M 274 551 L 274 551 Z M 375 551 L 278 551 L 173 724 L 289 724 L 375 551 Z" unicode="ẁ" />
<glyph horiz-adv-x="693" d="M 3 0 L 3 0 Z M 673 730 L 524 -3 L 449 -3 L 338 511 L 226 -3 L 151 -3 L 3 730 L 106 730 L 200 217 L 303 730 L 383 730 L 485 218 L 580 730 L 673 730 Z M 344 791 L 344 791 Z M 243 791 L 329 964 L 445 964 L 340 791 L 243 791 Z" unicode="Ẃ" />
<glyph horiz-adv-x="549" d="M 0 0 L 0 0 Z M 348 -2 L 275 271 L 200 -2 L 121 -2 L -1 490 L 93 490 L 171 156 L 240 425 L 315 425 L 383 157 L 463 490 L 549 490 L 426 -2 L 348 -2 Z M 274 551 L 274 551 Z M 173 551 L 259 724 L 375 724 L 270 551 L 173 551 Z" unicode="ẃ" />
<glyph horiz-adv-x="693" d="M 3 0 L 3 0 Z M 673 730 L 524 -3 L 449 -3 L 338 511 L 226 -3 L 151 -3 L 3 730 L 106 730 L 200 217 L 303 730 L 383 730 L 485 218 L 580 730 L 673 730 Z M 344 792 L 344 792 Z M 461 792 L 380 792 L 380 951 L 461 951 L 461 792 Z M 308 792 L 227 792 L 227 951 L 308 951 L 308 792 Z" unicode="Ẅ" />
<glyph horiz-adv-x="549" d="M 0 0 L 0 0 Z M 348 -2 L 275 271 L 200 -2 L 121 -2 L -1 490 L 93 490 L 171 156 L 240 425 L 315 425 L 383 157 L 463 490 L 549 490 L 426 -2 L 348 -2 Z M 274 552 L 274 552 Z M 391 552 L 310 552 L 310 711 L 391 711 L 391 552 Z M 238 552 L 157 552 L 157 711 L 238 711 L 238 552 Z" unicode="ẅ" />
<glyph horiz-adv-x="464" d="M 0 0 L 0 0 Z M 469 730 L 285 311 L 285 0 L 175 0 L 175 313 L -4 730 L 116 730 L 236 426 L 363 730 L 469 730 Z M 236 791 L 236 791 Z M 337 791 L 240 791 L 135 964 L 251 964 L 337 791 Z" unicode="Ỳ" />
<glyph horiz-adv-x="347" d="M 0 0 L 0 0 Z M 352 490 L 183 -100 C 173 -132 157 -157 134 -174 C 111 -191 85 -200 56 -200 C 34 -200 16 -197 2 -193 C -11 -188 -22 -183 -29 -179 L 8 -102 C 10 -104 16 -107 26 -110 C 36 -113 45 -115 54 -115 C 65 -115 75 -110 84 -101 C 93 -92 100 -79 105 -61 L 130 39 L -5 490 L 99 490 L 180 182 L 256 490 L 352 490 Z M 177 551 L 177 551 Z M 278 551 L 181 551 L 76 724 L 192 724 L 278 551 Z" unicode="ỳ" />
<glyph horiz-adv-x="460" d="M 421 215 L 40 215 L 40 304 L 421 304 L 421 215 Z" unicode="–" />
<glyph horiz-adv-x="645" d="M 606 215 L 40 215 L 40 304 L 606 304 L 606 215 Z" unicode="—" />
<glyph horiz-adv-x="238" d="M 39 507 L 39 514 C 39 557 45 596 58 632 C 71 668 92 703 121 737 L 216 731 C 197 707 180 678 164 643 C 148 607 141 565 141 515 L 141 507 L 39 507 Z" unicode="‘" />
<glyph horiz-adv-x="238" d="M 198 737 L 198 730 C 198 687 191 648 179 612 C 166 576 145 541 117 507 L 21 513 C 40 537 57 566 73 602 C 89 637 97 679 97 729 L 97 737 L 198 737 Z" unicode="’" />
<glyph horiz-adv-x="239" d="M 197 113 L 197 106 C 197 64 190 24 178 -11 C 165 -47 144 -83 116 -117 L 20 -111 C 39 -87 56 -58 72 -22 C 88 13 96 55 96 105 L 96 113 L 197 113 Z" unicode="‚" />
<glyph horiz-adv-x="391" d="M 203 507 L 203 514 C 203 554 210 592 224 628 C 238 664 260 701 291 737 L 383 731 C 364 711 346 682 328 645 C 310 607 301 564 301 515 L 301 507 L 203 507 Z M 41 507 L 41 514 C 41 554 48 592 62 628 C 76 664 98 701 129 737 L 220 731 C 202 711 184 682 166 645 C 147 607 138 564 138 515 L 138 507 L 41 507 Z" unicode="“" />
<glyph horiz-adv-x="391" d="M 194 737 L 194 730 C 194 687 187 648 174 612 C 161 576 141 541 113 507 L 21 513 C 41 537 58 566 74 602 C 89 637 97 679 97 729 L 97 737 L 194 737 Z M 351 737 L 351 730 C 351 687 344 648 330 612 C 316 576 296 541 269 507 L 177 513 C 196 537 213 566 229 602 C 245 637 253 679 253 729 L 253 737 L 351 737 Z" unicode="”" />
<glyph horiz-adv-x="394" d="M 193 113 L 193 106 C 193 64 186 24 174 -11 C 161 -47 140 -83 112 -117 L 20 -111 C 40 -87 58 -57 73 -22 C 88 13 96 55 96 105 L 96 113 L 193 113 Z M 353 113 L 353 106 C 353 64 346 24 333 -11 C 319 -47 299 -83 272 -117 L 180 -111 C 199 -87 216 -57 232 -22 C 247 13 255 55 255 105 L 255 113 L 353 113 Z" unicode="„" />
<glyph horiz-adv-x="417" d="M 400 372 L 259 372 L 259 -179 L 153 -179 L 153 372 L 18 372 L 18 472 L 153 472 L 153 730 L 259 730 L 259 472 L 400 472 L 400 372 Z" unicode="†" />
<glyph horiz-adv-x="426" d="M 158 -179 L 158 100 L 28 100 L 28 200 L 158 200 L 158 373 L 28 373 L 28 474 L 158 474 L 158 730 L 264 730 L 264 474 L 400 474 L 400 373 L 264 373 L 264 200 L 400 200 L 400 100 L 264 100 L 264 -179 L 158 -179 Z" unicode="‡" />
<glyph horiz-adv-x="382" d="M 191 473 C 217 473 240 464 258 446 C 276 428 285 405 285 379 C 285 353 276 331 258 313 C 240 295 217 286 191 286 C 164 286 142 295 124 313 C 106 331 98 353 98 379 C 98 405 106 428 124 446 C 142 464 164 473 191 473 Z" unicode="•" />
<glyph horiz-adv-x="643" d="M 56 0 L 56 130 L 159 130 L 159 0 L 56 0 Z M 270 0 L 270 130 L 373 130 L 373 0 L 270 0 Z M 484 0 L 484 130 L 587 130 L 587 0 L 484 0 Z" unicode="…" />
<glyph horiz-adv-x="989" d="M 169 363 C 152 363 136 366 120 374 C 104 382 89 393 77 409 C 64 425 54 444 46 468 C 38 492 34 519 34 551 C 34 604 46 649 72 685 C 97 721 129 740 167 740 C 187 740 206 735 224 725 C 241 715 256 701 268 685 C 280 668 290 648 297 626 C 303 603 307 579 307 554 C 307 527 303 502 296 479 C 288 455 278 435 266 418 C 254 400 239 387 223 377 C 206 367 188 363 169 363 Z M 85 0 L 499 730 L 575 730 L 163 0 L 85 0 Z M 116 551 C 116 524 119 499 126 476 C 133 452 147 441 169 441 C 191 441 205 452 213 475 C 220 498 224 523 224 551 C 224 577 220 602 213 626 C 205 650 191 662 171 662 C 149 662 135 650 127 627 C 119 604 116 579 116 551 Z M 508 -3 C 491 -3 474 0 458 8 C 441 16 426 27 413 43 C 400 59 390 78 382 102 C 374 126 370 153 370 185 C 370 238 383 283 409 319 C 435 355 468 374 510 374 C 531 374 550 369 567 359 C 584 349 598 335 610 319 C 622 302 631 282 637 260 C 643 237 647 213 647 188 C 647 161 643 136 637 113 C 630 89 620 69 608 52 C 596 34 581 21 564 11 C 547 1 528 -3 508 -3 Z M 816 -3 C 799 -3 782 0 766 8 C 749 16 734 27 721 43 C 708 59 698 78 690 102 C 682 126 678 153 678 185 C 678 238 691 283 717 319 C 743 355 776 374 818 374 C 839 374 858 369 875 359 C 892 349 906 335 918 319 C 930 302 939 282 945 260 C 951 237 955 213 955 188 C 955 161 951 136 945 113 C 938 89 928 69 916 52 C 904 34 889 21 872 11 C 855 1 836 -3 816 -3 Z M 507 75 C 529 75 544 86 552 108 C 560 130 565 156 565 185 C 565 213 560 238 552 262 C 544 285 529 297 509 297 C 489 297 475 285 466 262 C 456 239 452 213 452 185 C 452 156 456 130 464 108 C 472 86 487 75 507 75 Z M 815 75 C 837 75 852 86 860 108 C 868 130 873 156 873 185 C 873 213 868 238 860 262 C 852 285 837 297 817 297 C 797 297 783 285 774 262 C 764 239 760 213 760 185 C 760 156 764 130 772 108 C 780 86 794 75 815 75 Z" unicode="‰" />
<glyph horiz-adv-x="242" d="M 213 93 L 27 262 L 27 320 L 213 487 L 213 388 L 115 289 L 213 195 L 213 93 Z" unicode="‹" />
<glyph horiz-adv-x="243" d="M 29 488 L 216 318 L 216 261 L 29 94 L 29 192 L 127 292 L 29 385 L 29 488 Z" unicode="›" />
<glyph horiz-adv-x="145" d="M 304 730 L -59 0 L -145 0 L 218 730 L 304 730 Z" unicode="⁄" />
<glyph horiz-adv-x="328" d="M 14 453 L 14 514 L 198 737 L 256 737 L 256 518 L 316 518 L 316 453 L 256 453 L 256 373 L 173 373 L 173 453 L 14 453 Z M 99 515 L 175 515 L 175 611 L 99 515 Z" unicode="⁴" />
<glyph horiz-adv-x="474" d="M 456 115 C 440 77 416 47 384 23 C 352 0 317 -12 279 -12 C 227 -12 182 11 146 57 C 109 103 85 169 75 255 L 25 255 L 25 332 L 68 332 C 68 336 68 341 68 346 C 68 351 68 356 68 361 C 68 365 68 370 68 376 C 68 381 68 386 68 391 L 25 391 L 25 468 L 74 468 C 84 551 106 617 141 667 C 175 717 221 742 278 742 C 326 742 363 730 391 706 C 418 682 438 655 451 625 L 380 578 C 370 598 357 614 343 628 C 329 642 308 649 282 649 C 254 649 231 633 211 603 C 191 572 177 527 170 468 L 425 468 L 425 391 L 164 391 C 164 386 164 381 164 376 C 164 370 164 365 164 360 C 164 355 164 350 164 346 C 164 341 164 336 164 332 L 425 332 L 425 255 L 170 255 C 178 193 193 148 215 120 C 236 92 260 78 286 78 C 311 78 332 86 348 104 C 364 121 378 142 388 167 L 456 115 Z" unicode="€" />
<glyph horiz-adv-x="847" d="M 798 324 L 710 324 L 710 581 L 589 390 L 566 390 L 447 580 L 447 324 L 362 324 L 362 730 L 451 730 L 579 521 L 713 730 L 798 730 L 798 324 Z M 333 633 L 229 633 L 229 324 L 129 324 L 129 633 L 20 633 L 20 730 L 333 730 L 333 633 Z" unicode="™" />
<glyph horiz-adv-x="720" d="M 33 0 L 33 94 L 238 94 L 238 157 C 206 165 176 179 150 197 C 124 215 101 237 83 263 C 64 289 49 317 39 349 C 29 380 24 412 24 446 C 24 488 31 527 46 564 C 61 600 83 632 111 659 C 139 686 174 707 216 723 C 257 739 304 747 356 747 C 410 747 458 739 501 723 C 543 707 579 685 608 658 C 637 631 659 599 674 563 C 689 526 697 487 697 446 C 697 412 692 379 683 348 C 674 317 661 289 643 264 C 625 239 603 217 576 199 C 548 180 517 166 481 157 L 481 94 L 687 94 L 687 0 L 407 0 L 407 212 C 436 219 462 230 484 246 C 506 262 525 280 540 300 C 554 320 565 343 573 367 C 581 391 585 416 585 441 C 585 505 563 557 521 599 C 479 640 424 661 357 661 C 291 661 237 640 196 598 C 155 556 135 503 135 439 C 135 415 138 391 146 367 C 153 343 164 322 179 302 C 193 282 212 264 234 248 C 256 232 283 220 313 212 L 313 0 L 33 0 Z" unicode="Ω" />
<glyph horiz-adv-x="464" d="M 424 280 C 424 228 418 184 408 148 C 398 111 384 81 366 58 C 348 35 327 18 303 8 C 279 -2 253 -8 227 -8 C 201 -8 177 -3 153 6 C 129 16 107 30 89 48 C 71 66 56 90 45 118 C 33 146 28 179 28 216 C 28 250 32 282 42 310 C 52 338 65 363 82 383 C 98 403 118 418 140 429 C 162 440 186 446 211 446 C 241 446 267 439 287 426 C 307 413 323 395 336 372 C 329 433 317 486 300 531 C 283 576 264 613 243 642 C 221 671 199 693 175 708 C 151 722 129 730 109 732 L 155 802 C 176 802 202 792 233 772 C 264 752 294 722 322 680 C 350 638 374 584 394 518 C 414 452 424 372 424 280 Z M 225 71 C 255 71 279 84 295 110 C 311 136 319 174 319 223 C 319 268 311 303 295 328 C 279 352 256 365 225 365 C 196 365 173 352 157 327 C 141 302 133 266 133 218 C 133 168 140 131 156 107 C 172 83 195 71 225 71 Z" unicode="∂" />
<glyph horiz-adv-x="559" d="M 559 0 L 0 0 L 265 730 L 295 730 L 559 0 Z M 430 77 L 277 545 L 126 77 L 430 77 Z" unicode="∆" />
<glyph horiz-adv-x="648" d="M 221 639 L 221 0 L 116 0 L 116 639 L 15 639 L 15 730 L 633 730 L 633 639 L 537 639 L 537 0 L 432 0 L 432 639 L 221 639 Z" unicode="∏" />
<glyph horiz-adv-x="539" d="M 183 639 L 391 307 L 150 -88 L 508 -88 L 508 -179 L -18 -179 L 289 306 L 12 730 L 487 730 L 487 639 L 183 639 Z" unicode="∑" />
<glyph horiz-adv-x="491" d="M 452 290 L 40 290 L 40 373 L 452 373 L 452 290 Z" unicode="−" />
<glyph horiz-adv-x="510" d="M 504 730 L 198 0 L 186 0 L 12 330 L 84 385 L 204 143 L 440 730 L 504 730 Z" unicode="√" />
<glyph horiz-adv-x="342" d="M 105 -21 L 162 625 C 164 644 169 661 177 676 C 185 690 194 702 206 712 C 217 722 229 729 243 734 C 257 739 270 742 284 742 C 298 742 311 741 325 740 C 339 739 347 738 350 738 L 342 649 C 340 649 336 650 330 651 C 324 651 318 652 312 652 C 293 652 278 645 266 633 C 254 620 247 600 245 574 L 190 -57 C 187 -89 174 -117 151 -142 C 127 -167 98 -179 62 -179 C 42 -179 24 -177 7 -173 C -9 -169 -22 -164 -31 -160 L -20 -89 C -16 -89 -9 -91 0 -94 C 10 -96 19 -98 28 -98 C 47 -98 64 -91 79 -78 C 93 -64 102 -45 105 -21 Z" unicode="∫" />
<glyph horiz-adv-x="468" d="M 359 502 L 446 502 C 444 454 435 414 419 384 C 403 353 378 338 345 338 C 323 338 303 342 285 350 C 267 358 253 367 241 378 C 228 388 216 398 204 406 C 192 414 179 418 165 418 C 152 418 140 410 128 396 C 116 382 110 363 110 341 L 30 341 C 30 391 39 430 58 460 C 77 489 103 504 136 504 C 157 504 177 499 195 490 C 213 480 228 471 241 461 C 252 452 263 444 274 437 C 285 429 297 426 310 426 C 328 426 340 432 348 445 C 355 458 359 477 359 502 Z M 360 323 L 446 323 C 444 275 435 235 419 204 C 402 173 377 158 343 158 C 320 158 300 162 282 170 C 264 178 249 187 237 198 C 225 208 213 217 202 224 C 191 231 179 235 166 235 C 153 235 141 228 129 215 C 117 201 112 183 112 161 L 30 161 C 30 211 39 250 59 280 C 78 310 105 325 139 325 C 161 325 182 319 200 309 C 218 299 233 288 245 278 C 256 269 267 261 279 255 C 290 248 301 245 313 245 C 330 245 342 251 349 264 C 356 276 360 296 360 323 Z" unicode="≈" />
<glyph horiz-adv-x="484" d="M 441 171 L 226 171 L 180 62 L 110 87 L 146 171 L 60 171 L 60 256 L 183 256 L 239 388 L 60 388 L 60 472 L 275 472 L 322 581 L 391 557 L 355 472 L 441 472 L 441 388 L 319 388 L 263 256 L 441 256 L 441 171 Z" unicode="≠" />
<glyph horiz-adv-x="484" d="M 56 292 L 56 357 L 425 557 L 425 466 L 155 327 L 424 189 L 424 98 L 56 292 Z M 55 93 L 424 93 L 424 16 L 55 16 L 55 93 Z" unicode="≤" />
<glyph horiz-adv-x="484" d="M 423 292 L 55 98 L 55 189 L 324 327 L 54 466 L 54 557 L 423 357 L 423 292 Z M 424 93 L 424 16 L 55 16 L 55 93 L 424 93 Z" unicode="≥" />
<glyph horiz-adv-x="537" d="M 508 326 L 274 -19 L 263 -19 L 29 326 L 29 337 L 263 681 L 274 681 L 508 337 L 508 326 Z M 413 327 L 413 336 L 273 547 L 265 547 L 124 336 L 124 327 L 265 115 L 273 115 L 413 327 Z" unicode="◊" />
<glyph horiz-adv-x="730" d="M 448 673 L 282 673 L 282 730 L 448 730 L 448 673 Z M 659 282 L 600 282 L 600 448 L 659 448 L 659 282 Z M 130 282 L 71 282 L 71 448 L 130 448 L 130 282 Z M 433 297 L 297 297 L 297 433 L 433 433 L 433 297 Z M 448 0 L 282 0 L 282 58 L 448 58 L 448 0 Z" unicode="" />
<glyph horiz-adv-x="418" d="M 222 393 L 159 393 L 159 0 L 59 0 L 59 393 L 16 393 L 16 473 L 59 473 L 59 644 C 59 666 63 687 71 707 C 79 726 90 742 103 756 C 116 770 131 780 147 788 C 163 796 179 800 195 800 C 215 800 234 797 252 793 C 270 789 282 784 289 779 L 264 704 C 260 706 252 709 242 712 C 232 714 222 716 214 716 C 199 716 186 708 175 694 C 163 679 158 656 158 626 L 158 473 L 222 473 L 222 393 Z M 379 566 L 274 566 L 274 657 L 379 657 L 379 566 Z M 377 0 L 276 0 L 276 473 L 377 473 L 377 0 Z" unicode="ﬁ" />
<glyph horiz-adv-x="417" d="M 159 403 L 159 0 L 59 0 L 59 403 L 11 403 L 11 490 L 59 490 L 59 643 C 59 665 63 686 71 706 C 79 725 90 742 103 756 C 116 770 131 780 147 788 C 163 796 179 800 195 800 C 211 800 227 798 242 796 C 257 793 269 789 278 785 L 278 798 L 379 798 L 379 0 L 278 0 L 278 746 L 264 704 C 260 706 252 708 242 711 C 232 714 222 716 214 716 C 199 716 186 708 175 694 C 163 679 158 656 158 626 L 158 490 L 224 490 L 224 403 L 159 403 Z" unicode="ﬂ" />
</font>
</defs>
</svg>
