<?xml version="1.0" encoding="utf-8" ?><svg version="1.1" xmlns = 'http://www.w3.org/2000/svg'><defs><font id='web' horiz-adv-x="1000">
<font-face font-family="web" descent="-200" cap-height="730" units-per-em="1000" bbox="-237,-335,1094,1026" x-height="436" ascent="800" />
<missing-glyph horiz-adv-x="500" d="" /><glyph horiz-adv-x="214" d="" unicode=" " />
<glyph horiz-adv-x="273" d="M 233 430 L 179 246 L 102 246 L 50 430 L 50 730 L 233 730 L 233 430 Z M 224 0 L 59 0 L 59 166 L 224 166 L 224 0 Z" unicode="!" />
<glyph horiz-adv-x="446" d="M 405 624 L 395 464 L 267 464 L 260 623 L 260 730 L 405 730 L 405 624 Z M 185 623 L 179 464 L 48 464 L 41 623 L 41 730 L 185 730 L 185 623 Z" unicode="&#x22;" />
<glyph horiz-adv-x="607" d="M 346 0 L 362 181 L 224 181 L 208 0 L 111 0 L 127 181 L 34 181 L 34 319 L 139 319 L 147 408 L 51 408 L 51 546 L 159 546 L 175 730 L 272 730 L 256 546 L 394 546 L 410 730 L 506 730 L 490 546 L 573 546 L 573 408 L 478 408 L 470 319 L 556 319 L 556 181 L 458 181 L 442 0 L 346 0 Z M 236 319 L 374 319 L 382 408 L 244 408 L 236 319 Z" unicode="#" />
<glyph horiz-adv-x="529" d="M 504 201 C 504 147 485 102 449 68 C 413 33 367 11 311 3 L 311 -125 L 227 -125 L 227 0 C 182 2 142 11 106 26 C 70 40 40 59 17 82 L 82 190 C 92 180 105 170 120 162 C 135 154 151 146 167 140 C 183 134 199 129 216 126 C 232 122 248 121 263 121 C 289 121 311 127 330 141 C 349 154 359 172 359 196 C 359 208 357 218 353 227 C 349 236 342 245 332 254 C 322 263 307 272 288 282 C 268 292 243 304 212 318 C 154 344 109 374 79 409 C 49 443 34 488 34 542 C 34 589 52 630 88 665 C 124 700 171 721 227 729 L 227 791 L 311 791 L 311 730 C 343 726 374 717 403 704 C 432 690 458 673 481 652 L 401 552 C 381 570 359 583 334 593 C 309 602 287 607 269 607 C 244 607 223 601 207 590 C 191 578 183 563 183 544 C 183 523 191 506 209 493 C 227 479 263 460 317 434 C 348 418 375 403 399 389 C 423 374 442 358 458 340 C 473 322 484 302 492 280 C 500 258 504 231 504 201 Z" unicode="$" />
<glyph horiz-adv-x="763" d="M 195 361 C 177 361 158 364 139 372 C 119 380 102 391 86 407 C 70 423 57 442 47 466 C 37 490 32 517 32 549 C 32 575 36 600 45 623 C 53 646 65 666 80 683 C 94 700 111 713 131 723 C 150 733 170 738 191 738 C 214 738 236 733 256 723 C 276 713 293 699 308 683 C 322 666 334 646 342 624 C 350 601 355 577 355 552 C 355 525 350 500 342 477 C 333 453 321 433 306 416 C 291 398 274 385 255 375 C 235 365 215 361 195 361 Z M 213 0 L 132 0 L 539 730 L 621 730 L 213 0 Z M 195 469 C 211 469 221 476 227 492 C 233 507 236 526 236 550 C 236 572 233 591 228 607 C 222 623 212 631 196 631 C 180 631 170 623 164 607 C 158 591 155 572 155 550 C 155 526 158 506 164 491 C 170 476 180 469 195 469 Z M 570 -4 C 551 -4 532 0 513 7 C 493 15 476 26 461 42 C 445 58 433 77 423 101 C 413 125 409 152 409 184 C 409 237 424 282 456 318 C 488 354 527 373 573 373 C 597 373 619 368 639 358 C 659 348 676 334 690 318 C 704 301 715 281 723 259 C 731 236 735 212 735 187 C 735 160 730 135 722 112 C 714 88 702 68 688 51 C 673 33 655 20 635 10 C 615 0 593 -4 570 -4 Z M 571 104 C 586 104 597 111 605 125 C 612 139 616 159 616 184 C 616 209 612 229 605 244 C 598 258 587 266 572 266 C 560 266 550 258 543 244 C 536 229 533 209 533 184 C 533 158 536 139 542 125 C 548 111 558 104 571 104 Z" unicode="%" />
<glyph horiz-adv-x="709" d="M 599 -5 L 522 73 C 488 46 451 26 411 12 C 371 -1 329 -8 285 -8 C 201 -8 136 10 88 47 C 40 83 16 134 16 198 C 16 226 20 251 30 273 C 39 294 51 313 67 330 C 82 346 100 361 121 375 C 141 388 163 401 185 414 C 168 432 150 454 132 480 C 113 506 104 537 104 571 C 104 592 108 613 118 633 C 128 653 142 671 160 686 C 178 701 200 713 226 723 C 252 732 281 737 314 737 C 342 737 369 732 394 724 C 419 715 441 704 459 690 C 477 676 491 659 502 640 C 512 621 518 601 518 581 C 518 542 507 508 485 478 C 463 448 432 420 394 394 L 529 267 C 539 280 548 294 558 310 C 567 325 576 341 585 357 L 692 280 C 681 261 670 243 659 225 C 647 207 636 191 624 177 L 701 104 L 599 -5 Z M 257 568 C 257 555 261 541 269 526 C 277 510 288 495 303 481 C 327 497 344 513 354 527 C 364 541 370 555 370 569 C 370 583 365 596 357 608 C 348 620 334 626 314 626 C 295 626 281 619 271 607 C 261 595 257 582 257 568 Z M 192 202 C 192 176 202 155 223 140 C 243 125 267 118 295 118 C 319 118 343 122 366 130 C 388 138 410 150 431 165 L 277 321 C 246 300 224 281 211 263 C 198 245 192 225 192 202 Z" unicode="&#x26;" />
<glyph horiz-adv-x="228" d="M 187 619 L 181 460 L 47 460 L 41 619 L 41 730 L 187 730 L 187 619 Z" unicode="'" />
<glyph horiz-adv-x="324" d="M 311 -67 L 311 -179 C 276 -164 241 -143 207 -116 C 172 -88 141 -55 113 -16 C 85 22 63 68 46 120 C 28 172 20 229 20 293 C 20 355 28 412 44 464 C 60 515 81 560 108 598 C 135 636 166 667 201 693 C 236 718 273 737 311 749 L 311 641 C 276 621 246 585 220 533 C 194 480 181 400 181 293 C 181 199 192 124 215 66 C 238 8 270 -36 311 -67 Z" unicode="(" />
<glyph horiz-adv-x="324" d="M 13 640 L 13 749 C 50 737 86 719 121 694 C 156 668 187 637 214 599 C 241 561 263 516 279 464 C 295 412 304 353 304 289 C 304 225 295 168 277 117 C 259 65 237 20 209 -18 C 181 -57 150 -90 116 -117 C 81 -143 47 -164 13 -179 L 13 -66 C 53 -36 85 7 110 64 C 135 120 148 195 148 289 C 148 397 134 478 107 532 C 79 585 48 621 13 640 Z" unicode=")" />
<glyph horiz-adv-x="390" d="M 368 577 L 257 542 L 336 462 L 266 402 L 198 498 L 131 403 L 58 461 L 139 544 L 22 570 L 66 667 L 163 613 L 147 730 L 249 730 L 232 613 L 332 665 L 368 577 Z" unicode="*" />
<glyph horiz-adv-x="499" d="M 468 271 L 313 271 L 313 115 L 187 115 L 187 271 L 31 271 L 31 391 L 187 391 L 187 547 L 313 547 L 313 391 L 468 391 L 468 271 Z" unicode="+" />
<glyph horiz-adv-x="261" d="M 234 128 C 234 103 229 76 221 47 C 212 17 202 -10 190 -36 C 178 -62 166 -86 152 -106 C 138 -126 127 -139 117 -145 L 0 -93 C 8 -83 16 -70 24 -54 C 32 -38 39 -20 46 0 C 53 20 59 41 64 63 C 69 85 72 107 74 128 L 234 128 Z" unicode="," />
<glyph horiz-adv-x="358" d="M 319 189 L 39 189 L 39 330 L 319 330 L 319 189 Z" unicode="-" />
<glyph horiz-adv-x="263" d="M 212 0 L 51 0 L 51 160 L 212 160 L 212 0 Z" unicode="." />
<glyph horiz-adv-x="350" d="M 356 730 L 137 0 L -6 0 L 215 730 L 356 730 Z" unicode="/" />
<glyph horiz-adv-x="538" d="M 266 -10 C 231 -10 199 -3 170 10 C 140 23 115 44 94 73 C 73 102 57 140 45 188 C 33 236 28 293 28 361 C 28 416 32 467 42 514 C 52 560 66 600 86 634 C 106 667 131 693 162 712 C 192 730 228 740 270 740 C 312 740 349 731 379 713 C 409 695 434 671 454 639 C 473 607 487 569 496 523 C 504 477 509 427 509 371 C 509 250 489 156 450 90 C 410 23 349 -10 266 -10 Z M 268 116 C 296 116 317 134 330 172 C 342 210 349 272 349 359 C 349 448 343 512 331 552 C 319 592 299 612 269 612 C 240 612 219 593 207 556 C 195 518 189 454 189 362 C 189 271 195 207 208 171 C 220 134 240 116 268 116 Z" unicode="0" />
<glyph horiz-adv-x="368" d="M 311 0 L 149 0 L 149 510 C 141 502 132 494 121 488 C 109 481 98 475 86 471 C 74 466 63 462 52 460 C 40 457 31 455 24 455 L 24 611 C 55 611 84 623 112 645 C 139 667 166 696 194 733 L 311 733 L 311 0 Z" unicode="1" />
<glyph horiz-adv-x="514" d="M 487 0 L 15 0 L 15 41 L 274 385 C 295 413 309 440 317 464 C 325 488 329 510 329 530 C 329 552 321 571 307 585 C 292 599 271 606 245 606 C 214 606 192 596 178 577 C 164 557 158 533 158 505 L 16 505 C 16 580 37 638 81 679 C 124 719 180 740 250 740 C 318 740 374 723 418 690 C 462 656 484 609 484 547 C 484 493 474 449 456 414 C 437 379 416 347 394 318 L 245 131 L 487 131 L 487 0 Z" unicode="2" />
<glyph horiz-adv-x="496" d="M 224 -10 C 168 -10 122 -1 84 15 C 46 31 16 51 -4 74 L 68 180 C 83 166 102 153 125 140 C 148 127 176 121 209 121 C 251 121 281 131 301 153 C 321 174 331 200 331 231 C 331 263 318 287 294 301 C 269 315 240 323 208 323 L 114 323 L 114 460 L 211 460 C 238 460 261 466 280 480 C 299 493 309 512 309 537 C 309 557 302 574 288 588 C 274 602 255 609 229 609 C 195 609 168 603 148 591 C 128 579 110 565 94 551 L 22 652 C 28 660 38 669 50 679 C 62 689 77 699 96 708 C 114 716 136 724 162 730 C 187 736 216 740 250 740 C 311 740 361 724 401 693 C 441 662 461 618 461 561 C 461 539 457 519 451 501 C 444 483 435 467 425 453 C 414 439 402 428 389 418 C 376 408 363 401 351 397 C 386 385 417 364 443 334 C 469 303 483 264 483 217 C 483 193 479 168 471 142 C 463 115 450 90 430 68 C 410 46 384 27 350 12 C 316 -2 274 -10 224 -10 Z" unicode="3" />
<glyph horiz-adv-x="535" d="M 525 175 L 434 175 L 434 0 L 289 0 L 289 175 L 9 175 L 9 272 L 333 735 L 434 735 L 434 308 L 525 308 L 525 175 Z M 291 302 L 291 489 L 161 302 L 291 302 Z" unicode="4" />
<glyph horiz-adv-x="510" d="M 250 -10 C 190 -10 139 0 99 19 C 59 39 28 59 8 80 L 85 191 C 100 173 120 157 146 145 C 172 132 200 126 232 126 C 265 126 291 137 309 159 C 327 181 337 211 337 247 C 337 281 328 307 311 327 C 293 347 270 357 240 357 C 216 357 195 352 179 343 C 163 334 150 322 142 306 L 37 330 L 70 730 L 441 730 L 441 592 L 185 592 L 175 448 C 184 458 198 468 218 476 C 237 484 260 488 287 488 C 352 488 403 467 441 425 C 478 383 497 326 497 255 C 497 214 490 177 478 145 C 466 112 449 84 427 61 C 405 38 379 20 349 8 C 319 -3 286 -10 250 -10 Z" unicode="5" />
<glyph horiz-adv-x="517" d="M 272 -10 C 237 -10 205 -4 175 8 C 145 20 119 37 97 59 C 75 81 57 108 45 140 C 32 172 26 208 26 248 C 26 323 44 394 80 461 C 116 528 161 597 216 669 L 276 749 L 392 685 L 359 636 C 323 584 290 539 260 499 C 230 459 209 429 199 408 C 209 420 222 431 240 441 C 258 451 279 456 305 456 C 364 456 412 435 449 393 C 485 351 504 296 504 228 C 504 194 498 163 487 134 C 475 104 459 79 439 58 C 419 37 394 20 366 8 C 337 -3 306 -10 272 -10 Z M 274 115 C 296 115 315 124 330 143 C 344 161 352 188 352 224 C 352 264 345 292 331 309 C 317 326 297 335 273 335 C 252 335 233 327 216 312 C 199 296 191 269 191 229 C 191 188 198 159 214 141 C 229 123 249 115 274 115 Z" unicode="6" />
<glyph horiz-adv-x="459" d="M 468 730 L 474 686 L 168 -11 L 34 46 L 282 592 L 12 592 L 12 730 L 468 730 Z" unicode="7" />
<glyph horiz-adv-x="527" d="M 380 387 C 392 381 406 374 420 365 C 434 356 448 344 460 330 C 472 315 483 297 491 276 C 499 255 503 230 503 202 C 503 172 497 144 487 118 C 476 92 460 69 440 50 C 419 31 394 16 364 6 C 334 -4 300 -10 262 -10 C 187 -10 129 9 87 47 C 45 85 25 136 25 200 C 25 229 29 255 38 277 C 47 299 58 317 71 332 C 84 347 98 359 112 368 C 126 376 139 382 149 386 C 139 390 128 397 116 406 C 104 414 92 425 82 438 C 72 451 63 467 57 485 C 50 503 47 525 47 550 C 47 580 52 606 63 630 C 74 654 89 674 109 690 C 128 706 151 719 177 727 C 203 735 232 740 262 740 C 298 740 329 735 357 725 C 384 715 407 702 425 686 C 443 670 456 651 466 629 C 476 607 481 583 481 559 C 481 535 477 513 471 495 C 465 476 457 460 447 446 C 437 432 427 420 415 410 C 403 400 391 393 380 387 Z M 262 435 C 285 435 303 442 315 457 C 327 472 334 494 334 523 C 334 557 328 580 316 594 C 304 608 286 615 262 615 C 240 615 222 607 210 591 C 197 575 191 553 191 524 C 191 493 197 470 211 456 C 224 442 241 435 262 435 Z M 262 112 C 290 112 312 120 328 137 C 343 153 351 179 351 213 C 351 244 343 268 327 284 C 311 300 290 309 262 309 C 235 309 214 301 198 285 C 182 269 174 245 174 212 C 174 178 181 153 197 137 C 213 120 234 112 262 112 Z" unicode="8" />
<glyph horiz-adv-x="517" d="M 242 -11 L 127 56 L 159 102 C 174 123 190 144 208 166 C 225 188 241 209 256 229 C 271 249 285 267 297 284 C 309 301 317 316 323 328 C 312 314 297 302 277 292 C 257 282 234 277 210 277 C 151 277 103 298 67 341 C 31 384 13 440 13 508 C 13 541 18 572 30 602 C 42 631 58 656 79 677 C 99 698 124 715 153 727 C 182 739 214 745 248 745 C 281 745 313 739 343 727 C 373 715 399 699 421 677 C 443 655 460 628 473 596 C 485 564 492 527 492 486 C 492 446 487 408 477 372 C 467 336 453 301 436 267 C 419 233 399 199 376 166 C 352 132 328 99 302 66 L 242 -11 Z M 249 400 C 271 400 290 408 307 424 C 323 440 332 469 332 510 C 332 549 324 577 308 594 C 292 611 272 620 250 620 C 226 620 207 610 193 592 C 178 574 171 547 171 513 C 171 472 177 443 191 426 C 205 408 224 400 249 400 Z" unicode="9" />
<glyph horiz-adv-x="270" d="M 215 279 L 56 279 L 56 436 L 215 436 L 215 279 Z M 215 0 L 56 0 L 56 158 L 215 158 L 215 0 Z" unicode=":" />
<glyph horiz-adv-x="270" d="M 223 279 L 66 279 L 66 436 L 223 436 L 223 279 Z M 225 125 C 223 98 219 70 211 40 C 203 10 194 -16 183 -42 C 172 -67 160 -89 148 -108 C 136 -126 124 -139 114 -145 L -4 -93 C 4 -83 12 -70 21 -54 C 30 -38 38 -20 46 0 C 54 19 60 39 65 61 C 69 83 72 104 72 125 L 225 125 Z" unicode=";" />
<glyph horiz-adv-x="419" d="M 365 83 L 46 275 L 46 372 L 365 566 L 365 423 L 203 326 L 365 227 L 365 83 Z" unicode="&#x3C;" />
<glyph horiz-adv-x="496" d="M 439 374 L 57 374 L 57 509 L 439 509 L 439 374 Z M 439 148 L 57 148 L 57 282 L 439 282 L 439 148 Z" unicode="=" />
<glyph horiz-adv-x="419" d="M 370 275 L 51 83 L 51 227 L 212 326 L 51 423 L 51 566 L 370 372 L 370 275 Z" unicode="&#x3E;" />
<glyph horiz-adv-x="459" d="M 142 238 C 142 267 149 295 163 321 C 177 347 195 373 216 400 C 232 421 246 442 258 462 C 270 482 276 504 276 529 C 276 551 267 569 251 582 C 235 594 216 601 196 601 C 175 601 156 595 140 584 C 124 573 111 559 103 543 L 6 638 C 32 674 66 700 108 717 C 149 733 190 742 230 742 C 265 742 296 736 323 726 C 349 716 371 702 389 684 C 407 666 420 646 429 622 C 438 598 443 573 443 547 C 443 497 432 456 410 424 C 388 392 364 359 338 325 C 325 311 315 297 309 281 C 303 265 299 250 298 238 L 142 238 Z M 136 0 L 136 159 L 311 159 L 311 0 L 136 0 Z" unicode="?" />
<glyph horiz-adv-x="823" d="M 402 -40 C 346 -40 295 -30 249 -10 C 203 10 165 37 133 71 C 101 105 77 145 60 191 C 42 237 34 286 34 338 C 34 390 43 439 61 485 C 79 531 104 572 137 606 C 169 640 209 666 256 686 C 302 706 354 716 410 716 C 467 716 519 708 566 692 C 613 676 653 653 686 623 C 719 593 745 556 763 513 C 781 470 791 422 791 369 C 791 324 785 286 773 255 C 761 223 747 198 730 179 C 713 159 695 145 676 137 C 656 128 639 124 624 124 C 596 124 572 129 553 141 C 534 153 520 169 511 190 C 497 173 477 158 453 144 C 429 130 399 124 364 124 C 312 124 273 137 248 164 C 223 190 211 224 211 264 C 211 287 216 308 228 326 C 240 344 255 358 275 370 C 295 382 317 391 343 397 C 369 403 396 406 425 406 L 494 406 L 494 414 C 494 432 489 447 479 457 C 469 467 447 473 415 473 C 390 473 367 469 347 463 C 326 456 309 450 296 444 L 256 531 C 274 540 298 548 326 554 C 354 560 383 564 411 564 C 468 564 514 552 550 528 C 585 504 603 460 603 397 L 603 254 C 603 244 606 235 612 229 C 618 222 627 219 639 219 C 650 219 663 230 678 250 C 693 270 701 309 701 365 C 701 446 674 511 622 559 C 569 607 498 631 409 631 C 365 631 326 623 291 608 C 255 592 225 572 201 546 C 176 520 157 489 144 453 C 130 417 124 378 124 338 C 124 298 130 259 143 223 C 156 187 175 155 199 128 C 223 101 252 80 287 64 C 322 48 361 40 405 40 C 425 40 445 41 465 45 C 484 48 504 55 526 65 L 558 -7 C 530 -19 504 -28 479 -33 C 453 -37 428 -40 402 -40 Z M 399 216 C 417 216 434 220 452 228 C 470 236 483 245 491 253 L 491 330 L 421 330 C 393 330 372 325 358 315 C 344 305 337 292 337 276 C 337 256 341 241 351 231 C 360 221 376 216 399 216 Z" unicode="@" />
<glyph horiz-adv-x="627" d="M 632 0 L 458 0 L 416 122 L 201 122 L 160 0 L -5 0 L 265 732 L 370 732 L 632 0 Z M 383 247 L 308 466 L 235 247 L 383 247 Z" unicode="A" />
<glyph horiz-adv-x="592" d="M 67 0 L 67 730 L 332 730 C 392 730 441 714 479 683 C 517 652 537 609 537 555 C 537 506 523 468 497 440 C 470 412 439 395 403 388 C 423 385 443 380 463 372 C 483 364 500 352 516 338 C 532 324 545 306 555 285 C 565 263 570 238 570 209 C 570 175 563 144 550 118 C 537 92 519 70 497 53 C 475 35 449 22 419 13 C 389 4 357 0 324 0 L 67 0 Z M 228 438 L 295 438 C 323 438 342 446 353 464 C 364 482 370 501 370 521 C 370 543 363 562 351 576 C 338 590 318 598 291 598 L 228 598 L 228 438 Z M 229 131 L 314 131 C 346 131 368 139 381 157 C 393 175 400 196 400 221 C 400 248 392 269 376 285 C 360 301 336 309 304 309 L 229 309 L 229 131 Z" unicode="B" />
<glyph horiz-adv-x="629" d="M 358 -10 C 311 -10 268 -1 228 15 C 188 31 154 55 126 87 C 97 119 75 158 59 205 C 43 251 35 305 35 365 C 35 419 43 470 59 516 C 75 562 97 601 126 634 C 154 667 189 693 229 712 C 269 730 313 740 361 740 C 427 740 481 728 521 706 C 561 683 593 653 619 617 L 510 528 C 497 546 478 562 454 577 C 430 592 401 600 367 600 C 313 600 273 579 246 538 C 219 496 206 438 206 363 C 206 319 210 282 220 252 C 229 222 241 197 256 179 C 271 161 289 148 309 140 C 329 132 351 129 373 129 C 409 129 439 136 463 151 C 486 165 506 184 523 208 L 627 129 C 599 86 563 52 518 27 C 473 2 420 -10 358 -10 Z" unicode="C" />
<glyph horiz-adv-x="693" d="M 67 0 L 67 730 L 310 730 C 366 730 417 721 461 703 C 505 685 541 661 570 629 C 599 597 621 559 636 515 C 651 470 659 421 659 368 C 659 316 651 268 635 223 C 619 178 596 139 566 106 C 536 73 498 47 452 28 C 406 9 354 0 294 0 L 67 0 Z M 237 136 L 298 136 C 331 136 359 141 383 153 C 406 165 425 181 440 201 C 454 221 465 246 472 274 C 479 302 483 332 483 365 C 483 438 468 494 438 534 C 408 573 364 593 308 593 L 237 593 L 237 136 Z" unicode="D" />
<glyph horiz-adv-x="544" d="M 515 0 L 67 0 L 67 730 L 496 730 L 496 588 L 233 588 L 233 429 L 477 429 L 477 291 L 233 291 L 233 142 L 515 142 L 515 0 Z" unicode="E" />
<glyph horiz-adv-x="478" d="M 455 588 L 236 588 L 236 429 L 442 429 L 442 288 L 236 288 L 236 0 L 68 0 L 68 730 L 455 730 L 455 588 Z" unicode="F" />
<glyph horiz-adv-x="679" d="M 367 391 L 648 391 L 648 136 C 624 93 588 58 542 31 C 495 3 436 -10 364 -10 C 316 -10 271 -1 231 16 C 190 33 155 58 126 90 C 97 122 74 162 58 209 C 42 255 34 307 34 365 C 34 423 42 475 59 521 C 76 567 99 607 129 639 C 159 671 194 696 235 714 C 275 731 319 740 365 740 C 401 740 432 736 459 729 C 486 721 509 712 528 701 C 547 689 563 676 575 662 C 587 647 598 632 606 618 L 493 539 C 483 551 468 565 448 579 C 428 593 401 601 366 601 C 316 601 277 580 249 538 C 220 496 206 438 206 363 C 206 289 220 230 250 186 C 279 142 321 120 377 120 C 407 120 434 126 456 138 C 478 150 495 165 505 183 L 505 256 L 367 256 L 367 391 Z" unicode="G" />
<glyph horiz-adv-x="698" d="M 631 0 L 461 0 L 461 286 L 237 286 L 237 0 L 67 0 L 67 730 L 237 730 L 237 433 L 461 433 L 461 730 L 631 730 L 631 0 Z" unicode="H" />
<glyph horiz-adv-x="314" d="M 242 0 L 72 0 L 72 730 L 242 730 L 242 0 Z" unicode="I" />
<glyph horiz-adv-x="363" d="M 305 730 L 305 198 C 305 168 300 140 291 114 C 282 88 269 66 252 48 C 234 30 213 15 188 5 C 162 -5 133 -11 101 -11 C 81 -11 63 -10 47 -8 C 30 -6 17 -4 9 -2 L 9 143 C 15 141 26 139 43 138 C 59 137 72 137 80 137 C 100 137 116 144 128 158 C 139 172 145 188 145 207 L 145 730 L 305 730 Z" unicode="J" />
<glyph horiz-adv-x="666" d="M 683 0 L 473 0 L 268 270 L 237 233 L 237 0 L 67 0 L 67 730 L 237 730 L 237 438 L 464 730 L 656 730 L 380 393 L 683 0 Z" unicode="K" />
<glyph horiz-adv-x="468" d="M 461 0 L 67 0 L 67 730 L 237 730 L 237 143 L 461 143 L 461 0 Z" unicode="L" />
<glyph horiz-adv-x="857" d="M 789 0 L 631 0 L 631 381 L 455 98 L 395 98 L 226 380 L 226 0 L 67 0 L 67 730 L 183 730 L 429 323 L 684 730 L 789 730 L 789 0 Z" unicode="M" />
<glyph horiz-adv-x="690" d="M 622 0 L 508 0 L 225 411 L 225 0 L 67 0 L 67 730 L 191 730 L 466 328 L 466 730 L 622 730 L 622 0 Z" unicode="N" />
<glyph horiz-adv-x="740" d="M 373 -10 C 318 -10 269 -1 227 16 C 185 34 149 59 121 92 C 93 124 71 164 56 212 C 41 259 34 312 34 370 C 34 424 42 473 59 519 C 75 564 98 603 128 636 C 157 668 192 694 233 712 C 274 730 318 740 366 740 C 416 740 463 731 505 715 C 547 698 583 674 613 642 C 642 610 665 571 681 525 C 697 479 706 426 706 368 C 706 310 697 257 680 211 C 662 164 639 124 609 92 C 579 59 543 34 503 16 C 462 -1 419 -10 373 -10 Z M 371 129 C 420 129 459 148 488 188 C 517 227 532 288 532 370 C 532 446 517 504 487 542 C 457 580 418 600 370 600 C 322 600 283 581 253 545 C 223 508 209 449 209 367 C 209 283 223 223 253 185 C 283 147 322 129 371 129 Z" unicode="O" />
<glyph horiz-adv-x="573" d="M 67 0 L 67 730 L 333 730 C 399 730 452 709 493 667 C 534 625 555 570 555 501 C 555 467 549 435 538 406 C 527 377 512 352 492 331 C 472 309 448 293 420 281 C 392 269 361 263 327 263 L 237 263 L 237 0 L 67 0 Z M 236 394 L 300 394 C 328 394 350 403 365 421 C 380 439 388 466 388 500 C 388 532 379 557 362 573 C 344 589 322 597 295 597 L 236 597 L 236 394 Z" unicode="P" />
<glyph horiz-adv-x="736" d="M 641 -38 L 641 -178 C 575 -173 518 -155 468 -123 C 418 -91 381 -51 356 -5 C 304 -3 257 7 217 25 C 177 43 143 69 116 101 C 89 133 69 172 55 218 C 41 264 34 314 34 370 C 34 424 42 473 59 519 C 76 564 99 603 129 636 C 158 668 193 694 234 712 C 274 730 318 740 366 740 C 416 740 463 731 505 715 C 547 698 582 674 612 642 C 642 610 665 570 681 524 C 697 477 706 424 706 365 C 706 283 688 212 652 152 C 616 92 567 48 507 22 C 523 3 543 -10 567 -20 C 591 -30 615 -36 641 -38 Z M 371 127 C 420 127 459 147 488 187 C 517 227 532 288 532 372 C 532 454 516 512 485 548 C 453 583 415 601 370 601 C 320 601 281 582 252 546 C 223 510 209 450 209 367 C 209 286 223 226 252 186 C 280 146 320 127 371 127 Z" unicode="Q" />
<glyph horiz-adv-x="614" d="M 67 0 L 67 730 L 319 730 C 349 730 377 725 404 717 C 431 708 454 695 474 678 C 494 661 509 639 521 613 C 533 587 539 557 539 523 C 539 493 535 467 528 445 C 520 422 510 402 498 386 C 486 370 472 357 456 347 C 440 337 424 330 408 327 L 404 321 L 617 0 L 430 0 L 260 268 L 232 268 L 232 0 L 67 0 Z M 230 408 L 290 408 C 312 408 331 416 347 432 C 362 448 370 472 370 503 C 370 532 362 554 346 570 C 330 586 311 594 291 594 L 230 594 L 230 408 Z" unicode="R" />
<glyph horiz-adv-x="494" d="M 255 -10 C 203 -10 157 -2 115 11 C 73 25 38 48 9 80 L 100 190 C 114 171 134 155 160 141 C 186 127 213 121 242 121 C 264 121 284 127 300 140 C 316 153 324 171 324 195 C 324 219 314 239 296 255 C 277 270 253 286 223 302 C 203 312 181 324 159 338 C 137 352 117 368 99 387 C 81 405 66 427 54 453 C 42 479 36 509 36 545 C 36 601 56 648 98 685 C 139 721 192 740 256 740 C 298 740 335 733 367 721 C 399 709 428 693 452 673 L 375 563 C 360 575 343 586 325 594 C 307 602 288 607 268 607 C 245 607 227 600 213 588 C 199 576 192 561 192 544 C 192 523 201 506 217 492 C 233 478 264 459 310 435 C 363 407 404 376 434 341 C 464 306 479 260 479 202 C 479 166 472 135 460 109 C 447 82 430 60 409 42 C 388 24 364 11 337 3 C 310 -5 283 -10 255 -10 Z" unicode="S" />
<glyph horiz-adv-x="516" d="M 508 587 L 342 587 L 342 0 L 172 0 L 172 587 L 8 587 L 8 730 L 508 730 L 508 587 Z" unicode="T" />
<glyph horiz-adv-x="681" d="M 618 730 L 618 254 C 618 211 610 173 595 140 C 580 107 560 80 534 58 C 508 36 478 19 444 7 C 410 -4 374 -10 336 -10 C 298 -10 263 -4 230 6 C 196 17 167 33 143 55 C 118 77 98 104 84 138 C 69 171 62 210 62 254 L 62 730 L 229 730 L 229 245 C 229 211 238 183 258 163 C 278 142 304 132 337 132 C 370 132 397 141 418 161 C 438 181 449 209 449 245 L 449 730 L 618 730 Z" unicode="U" />
<glyph horiz-adv-x="616" d="M 623 730 L 361 -3 L 256 -3 L -5 730 L 167 730 L 314 287 L 460 730 L 623 730 Z" unicode="V" />
<glyph horiz-adv-x="867" d="M 861 730 L 652 -6 L 565 -6 L 430 440 L 290 -6 L 203 -6 L -3 730 L 162 730 L 271 311 L 393 731 L 483 731 L 604 311 L 709 730 L 861 730 Z" unicode="W" />
<glyph horiz-adv-x="600" d="M 423 0 L 298 223 L 172 0 L 4 0 L 214 373 L 14 730 L 186 730 L 300 526 L 415 730 L 583 730 L 384 376 L 594 0 L 423 0 Z" unicode="X" />
<glyph horiz-adv-x="617" d="M 625 730 L 390 310 L 390 0 L 220 0 L 220 316 L -8 730 L 174 730 L 313 470 L 453 730 L 625 730 Z" unicode="Y" />
<glyph horiz-adv-x="557" d="M 521 730 L 521 664 L 226 142 L 530 142 L 530 0 L 12 0 L 12 62 L 305 588 L 29 588 L 29 730 L 521 730 Z" unicode="Z" />
<glyph horiz-adv-x="312" d="M 292 -179 L 67 -179 L 67 730 L 292 730 L 292 603 L 216 603 L 216 -51 L 292 -51 L 292 -179 Z" unicode="[" />
<glyph horiz-adv-x="350" d="M -6 730 L 133 730 L 356 0 L 213 0 L -6 730 Z" unicode="\" />
<glyph horiz-adv-x="313" d="M 248 -179 L 22 -179 L 22 -52 L 98 -52 L 98 603 L 22 603 L 22 730 L 248 730 L 248 -179 Z" unicode="]" />
<glyph horiz-adv-x="491" d="M 455 369 L 320 369 L 245 565 L 170 369 L 37 369 L 179 730 L 313 730 L 455 369 Z" unicode="^" />
<glyph horiz-adv-x="474" d="M 474 -182 L 0 -182 L 0 -53 L 474 -53 L 474 -182 Z" unicode="_" />
<glyph horiz-adv-x="500" d="M 388 495 L 232 495 L 103 659 L 287 659 L 388 495 Z" unicode="`" />
<glyph horiz-adv-x="471" d="M 431 0 L 291 0 L 291 43 C 277 27 259 14 238 4 C 217 -5 192 -10 162 -10 C 111 -10 73 4 49 33 C 25 61 13 95 13 134 C 13 182 31 218 69 243 C 106 268 158 281 224 283 L 284 285 L 284 291 C 284 304 279 315 270 325 C 260 334 243 339 219 339 C 193 339 168 335 146 328 C 123 320 105 313 93 305 L 48 393 C 66 407 91 419 123 431 C 155 442 196 448 245 448 C 271 448 295 445 318 439 C 340 433 360 423 377 411 C 393 399 406 383 416 364 C 426 344 431 321 431 295 L 431 0 Z M 287 128 L 287 192 L 241 190 C 217 189 198 185 184 178 C 170 170 163 158 163 142 C 163 128 167 117 177 110 C 186 103 197 100 211 100 C 229 100 244 103 257 109 C 270 115 280 121 287 128 Z" unicode="a" />
<glyph horiz-adv-x="517" d="M 313 -4 C 279 -4 251 1 231 13 C 210 25 195 38 187 53 L 187 0 L 41 0 L 41 741 L 189 741 L 189 382 C 197 395 211 409 233 423 C 254 437 282 444 318 444 C 367 444 409 424 443 385 C 477 346 495 294 495 228 C 495 192 490 159 480 130 C 470 101 456 77 440 57 C 423 37 404 22 382 12 C 360 1 337 -4 313 -4 Z M 261 99 C 284 99 302 108 315 128 C 327 148 334 177 334 216 C 334 252 328 280 316 299 C 304 318 285 328 261 328 C 239 328 222 319 210 301 C 198 283 192 254 192 212 C 192 172 198 143 211 125 C 223 107 240 99 261 99 Z" unicode="b" />
<glyph horiz-adv-x="449" d="M 345 159 L 446 93 C 429 64 405 40 375 20 C 344 0 302 -10 248 -10 C 178 -10 123 11 83 54 C 42 96 22 151 22 219 C 22 252 27 282 39 310 C 50 338 66 362 87 382 C 107 402 132 417 160 429 C 188 440 220 446 254 446 C 305 446 346 436 377 416 C 408 396 431 373 446 347 L 339 276 C 331 291 321 303 309 312 C 297 320 283 325 265 325 C 241 325 222 315 208 297 C 194 278 187 251 187 217 C 187 179 194 151 210 134 C 226 116 246 108 270 108 C 288 108 304 113 316 124 C 328 134 338 146 345 159 Z" unicode="c" />
<glyph horiz-adv-x="516" d="M 214 -5 C 186 -5 161 0 137 11 C 113 22 93 37 76 56 C 59 75 46 98 36 124 C 26 150 22 179 22 210 C 22 245 27 277 37 306 C 47 335 62 360 80 380 C 98 400 119 416 143 428 C 167 439 192 445 220 445 C 244 445 266 440 286 431 C 305 421 319 411 328 399 L 328 741 L 475 741 L 475 0 L 334 0 L 334 48 C 326 36 313 25 293 13 C 273 1 247 -5 214 -5 Z M 259 103 C 281 103 298 112 310 132 C 322 152 329 181 329 219 C 329 259 322 287 309 303 C 295 319 277 328 255 328 C 232 328 214 318 202 299 C 190 280 184 253 184 217 C 184 181 190 153 203 133 C 215 113 234 103 259 103 Z" unicode="d" />
<glyph horiz-adv-x="480" d="M 253 -10 C 219 -10 188 -5 160 5 C 132 15 107 29 87 48 C 67 67 51 90 40 118 C 28 146 23 177 23 213 C 23 282 44 338 87 381 C 129 424 184 446 251 446 C 320 446 374 422 412 374 C 450 326 469 261 469 178 L 172 178 C 172 155 180 136 196 122 C 212 107 235 100 266 100 C 294 100 317 104 335 112 C 353 120 368 130 380 141 L 449 64 C 430 44 406 26 377 12 C 348 -2 307 -10 253 -10 Z M 173 271 L 322 271 C 320 290 313 306 301 320 C 289 333 272 340 250 340 C 227 340 209 333 196 321 C 182 308 175 291 173 271 Z" unicode="e" />
<glyph horiz-adv-x="304" d="M 304 312 L 226 312 L 226 0 L 71 0 L 71 312 L 7 312 L 7 436 L 71 436 L 71 554 C 71 587 75 616 85 640 C 95 664 108 684 124 700 C 140 716 159 727 180 735 C 201 743 223 747 246 747 C 262 747 277 745 291 743 C 305 741 317 738 325 735 L 311 607 C 307 608 303 609 297 610 C 291 611 284 612 276 612 C 261 612 249 606 239 595 C 229 584 225 568 225 548 L 225 436 L 304 436 L 304 312 Z" unicode="f" />
<glyph horiz-adv-x="516" d="M 213 3 C 159 3 113 22 77 60 C 40 98 22 150 22 217 C 22 287 39 343 75 384 C 110 424 156 445 212 445 C 235 445 258 440 280 430 C 302 420 318 408 328 396 L 328 436 L 475 436 L 475 32 C 475 -5 469 -37 457 -65 C 445 -92 428 -115 407 -133 C 386 -151 361 -164 332 -173 C 303 -182 272 -187 239 -187 C 186 -187 143 -180 110 -168 C 76 -155 52 -143 37 -131 L 92 -30 C 106 -41 125 -51 148 -61 C 170 -70 197 -75 227 -75 C 255 -75 278 -67 296 -53 C 314 -39 323 -18 323 8 L 323 55 C 315 41 301 29 281 19 C 260 8 237 3 213 3 Z M 258 109 C 280 109 298 118 310 138 C 322 158 328 185 328 221 C 328 253 321 280 309 301 C 296 322 278 333 254 333 C 233 333 216 323 203 304 C 189 284 183 256 183 219 C 183 183 189 155 203 137 C 217 118 235 109 258 109 Z" unicode="g" />
<glyph horiz-adv-x="513" d="M 476 0 L 320 0 L 320 266 C 320 283 314 296 304 306 C 293 316 279 321 263 321 C 244 321 228 315 216 305 C 203 294 197 279 197 261 L 197 0 L 41 0 L 41 741 L 187 741 L 187 378 C 197 395 213 411 235 425 C 257 439 286 446 324 446 C 370 446 406 433 434 407 C 462 381 476 345 476 299 L 476 0 Z" unicode="h" />
<glyph horiz-adv-x="247" d="M 44 496 L 44 642 L 203 642 L 203 496 L 44 496 Z M 46 0 L 46 436 L 201 436 L 201 0 L 46 0 Z" unicode="i" />
<glyph horiz-adv-x="234" d="M 197 496 L 38 496 L 38 642 L 197 642 L 197 496 Z M 196 436 L 196 -56 C 196 -73 193 -90 187 -108 C 181 -126 171 -141 159 -155 C 147 -169 131 -180 112 -189 C 93 -197 70 -201 44 -201 C 30 -201 13 -200 -4 -198 C -22 -196 -36 -193 -45 -191 L -36 -78 C -32 -78 -26 -79 -20 -79 C -14 -79 -7 -80 -1 -80 C 11 -80 20 -75 28 -67 C 36 -59 40 -47 40 -33 L 40 436 L 196 436 Z" unicode="j" />
<glyph horiz-adv-x="500" d="M 524 0 L 345 0 L 228 158 L 192 118 L 192 0 L 42 0 L 42 741 L 188 741 L 188 267 L 326 436 L 494 436 L 335 251 L 524 0 Z" unicode="k" />
<glyph horiz-adv-x="238" d="M 197 741 L 197 0 L 41 0 L 41 741 L 197 741 Z" unicode="l" />
<glyph horiz-adv-x="783" d="M 41 0 L 41 436 L 184 436 L 184 375 C 192 395 209 412 235 426 C 261 439 291 446 327 446 C 355 446 380 440 403 428 C 425 416 441 398 451 374 L 456 374 C 466 396 484 413 508 426 C 532 439 562 446 596 446 C 641 446 677 433 705 408 C 733 382 747 347 747 302 L 747 0 L 592 0 L 592 262 C 592 281 587 296 577 306 C 567 316 554 321 536 321 C 520 321 505 315 491 305 C 477 294 471 277 471 254 L 471 0 L 317 0 L 317 263 C 317 282 312 296 303 306 C 293 316 279 321 261 321 C 242 321 226 315 214 303 C 201 291 195 275 195 255 L 195 0 L 41 0 Z" unicode="m" />
<glyph horiz-adv-x="513" d="M 476 0 L 320 0 L 320 268 C 320 284 315 296 305 306 C 295 316 280 321 262 321 C 243 321 227 315 215 305 C 203 294 197 278 197 256 L 197 0 L 41 0 L 41 436 L 187 436 L 187 378 C 197 398 215 415 239 427 C 263 439 291 446 321 446 C 369 446 406 433 434 407 C 462 381 476 346 476 301 L 476 0 Z" unicode="n" />
<glyph horiz-adv-x="517" d="M 255 -10 C 225 -10 197 -5 169 4 C 141 14 116 28 94 47 C 72 66 55 90 42 118 C 28 146 22 179 22 216 C 22 249 28 280 40 308 C 52 336 69 361 91 381 C 112 401 137 417 165 429 C 193 440 222 446 253 446 C 285 446 316 441 346 431 C 375 421 401 407 423 389 C 445 370 462 347 475 320 C 488 293 495 263 495 229 C 495 193 488 160 476 130 C 464 100 447 75 425 55 C 403 34 378 18 349 7 C 319 -4 288 -10 255 -10 Z M 257 104 C 281 104 299 113 312 131 C 325 149 332 180 332 224 C 332 262 325 289 312 306 C 299 322 280 331 255 331 C 233 331 216 322 204 306 C 191 289 185 260 185 218 C 185 174 191 144 204 128 C 216 112 234 104 257 104 Z" unicode="o" />
<glyph horiz-adv-x="517" d="M 41 -200 L 41 436 L 186 436 L 186 379 C 192 394 208 409 233 423 C 258 437 287 445 320 445 C 370 445 411 425 445 386 C 478 347 495 297 495 235 C 495 197 489 164 479 134 C 468 104 454 79 437 59 C 419 39 399 23 377 12 C 355 1 332 -4 309 -4 C 283 -4 259 0 237 9 C 215 17 200 27 192 39 L 192 -200 L 41 -200 Z M 263 100 C 284 100 301 109 314 127 C 326 145 333 174 333 214 C 333 251 327 280 315 300 C 303 320 285 331 261 331 C 240 331 223 322 210 305 C 197 288 191 257 191 211 C 191 166 197 136 211 122 C 225 107 242 100 263 100 Z" unicode="p" />
<glyph horiz-adv-x="516" d="M 327 -200 L 327 45 C 317 31 303 20 284 10 C 265 0 241 -5 213 -5 C 157 -5 112 15 76 56 C 40 97 23 150 23 214 C 23 248 28 279 39 308 C 50 336 65 361 83 381 C 101 401 122 417 146 429 C 170 440 194 446 220 446 C 246 446 270 440 291 430 C 311 420 326 409 334 397 L 334 436 L 475 436 L 475 -200 L 327 -200 Z M 257 103 C 278 103 295 112 309 131 C 322 149 329 178 329 218 C 329 258 322 286 309 303 C 295 319 278 328 257 328 C 231 328 213 318 201 299 C 189 280 184 253 184 217 C 184 183 190 155 202 134 C 214 113 233 103 257 103 Z" unicode="q" />
<glyph horiz-adv-x="393" d="M 395 415 L 340 288 C 324 300 310 308 298 311 C 285 314 274 316 265 316 C 250 316 235 310 220 299 C 204 287 197 268 197 242 L 197 0 L 41 0 L 41 436 L 188 436 L 188 376 C 194 389 208 404 228 421 C 248 437 274 446 306 446 C 325 446 342 443 357 437 C 372 431 385 423 395 415 Z" unicode="r" />
<glyph horiz-adv-x="382" d="M 200 -10 C 160 -10 123 -4 90 6 C 56 16 29 30 9 48 L 73 143 C 89 128 108 117 131 109 C 154 101 175 98 193 98 C 204 98 213 100 221 105 C 228 109 232 116 232 125 C 232 135 224 144 209 151 C 193 158 174 166 151 174 C 137 178 122 184 107 191 C 92 198 78 207 66 218 C 53 228 43 241 35 257 C 27 273 23 292 23 315 C 23 351 38 382 70 408 C 102 434 143 448 193 448 C 225 448 257 443 289 433 C 320 423 343 412 358 401 L 301 306 C 289 314 273 322 255 329 C 236 336 218 340 200 340 C 190 340 180 338 171 336 C 161 333 157 327 157 319 C 157 311 162 304 173 298 C 184 292 205 284 236 274 C 272 261 303 245 329 226 C 354 207 367 176 367 133 C 367 110 362 90 353 72 C 344 54 332 39 317 27 C 302 15 284 5 264 0 C 244 -6 222 -10 200 -10 Z" unicode="s" />
<glyph horiz-adv-x="294" d="M 277 125 L 288 6 C 284 3 276 0 265 -2 C 254 -4 240 -6 223 -6 C 205 -6 186 -3 166 1 C 145 5 126 13 109 25 C 91 36 77 52 65 72 C 53 92 48 117 48 147 L 48 312 L 5 312 L 5 436 L 49 436 L 49 559 L 201 573 L 201 436 L 272 436 L 272 312 L 203 312 L 203 174 C 203 153 207 139 216 133 C 225 126 238 123 256 123 C 258 123 262 123 268 123 C 273 123 276 124 277 125 Z" unicode="t" />
<glyph horiz-adv-x="513" d="M 37 436 L 193 436 L 193 165 C 193 147 198 133 209 125 C 219 117 233 113 251 113 C 271 113 286 118 298 129 C 310 139 316 155 316 176 L 316 436 L 471 436 L 471 0 L 324 0 L 324 56 C 309 35 290 19 266 9 C 242 -1 216 -7 188 -7 C 147 -7 112 5 82 30 C 52 54 37 92 37 142 L 37 436 Z" unicode="u" />
<glyph horiz-adv-x="470" d="M 480 436 L 281 -3 L 185 -3 L -10 436 L 156 436 L 244 217 L 332 436 L 480 436 Z" unicode="v" />
<glyph horiz-adv-x="654" d="M 413 -3 L 329 228 L 245 -3 L 152 -3 L 0 436 L 151 436 L 221 209 L 292 415 L 379 415 L 452 209 L 524 436 L 654 436 L 503 -3 L 413 -3 Z" unicode="w" />
<glyph horiz-adv-x="442" d="M 281 0 L 214 106 L 143 0 L -3 0 L 143 218 L 6 436 L 165 436 L 225 341 L 289 436 L 437 436 L 297 228 L 442 0 L 281 0 Z" unicode="x" />
<glyph horiz-adv-x="477" d="M 486 436 L 248 -90 C 227 -134 200 -163 168 -178 C 136 -192 104 -200 74 -200 C 56 -200 40 -198 27 -194 C 13 -190 3 -187 -3 -185 L 35 -66 C 37 -67 43 -69 51 -71 C 59 -73 67 -75 75 -75 C 90 -75 102 -70 111 -62 C 119 -54 128 -40 136 -22 L 168 51 L -6 436 L 160 436 L 247 215 L 337 436 L 486 436 Z" unicode="y" />
<glyph horiz-adv-x="393" d="M 383 436 L 383 366 L 215 124 L 385 124 L 385 0 L 7 0 L 7 53 L 188 312 L 16 312 L 16 436 L 383 436 Z" unicode="z" />
<glyph horiz-adv-x="313" d="M 292 -179 C 254 -179 219 -174 189 -165 C 159 -155 133 -143 113 -128 C 92 -113 76 -96 65 -78 C 54 -59 49 -40 49 -22 C 49 -1 51 18 55 37 C 59 55 63 72 69 88 C 73 102 78 116 82 129 C 86 142 89 154 89 165 C 89 181 82 196 70 210 C 58 223 39 230 14 230 L 14 340 C 39 340 58 346 71 360 C 83 374 90 390 90 409 C 90 415 87 426 83 441 C 78 455 73 471 68 488 C 62 504 57 521 54 537 C 51 553 50 569 50 584 C 50 602 55 621 66 641 C 77 661 93 678 114 694 C 134 710 160 723 190 733 C 220 743 254 749 292 749 L 292 627 C 268 627 245 620 225 607 C 205 594 195 576 195 554 C 195 545 195 535 197 524 C 199 512 201 501 205 490 C 211 474 216 458 221 444 C 225 430 228 417 228 406 C 228 380 221 356 208 333 C 194 310 172 294 142 285 C 173 275 195 259 208 236 C 221 212 228 189 228 166 C 228 151 225 137 221 125 C 217 113 213 101 209 89 C 204 77 200 64 198 51 C 196 38 195 26 195 16 C 195 -4 204 -21 224 -35 C 244 -49 266 -57 292 -57 L 292 -179 Z" unicode="{" />
<glyph horiz-adv-x="262" d="M 205 -179 L 57 -179 L 57 730 L 205 730 L 205 -179 Z" unicode="|" />
<glyph horiz-adv-x="313" d="M 21 -179 L 21 -57 C 47 -57 69 -49 89 -35 C 109 -21 119 -4 119 16 C 119 26 117 38 115 51 C 113 64 109 77 105 89 C 100 101 95 113 91 125 C 87 137 85 151 85 166 C 85 189 91 212 105 236 C 118 259 140 275 171 285 C 140 294 118 310 105 333 C 91 356 85 380 85 406 C 85 417 87 430 92 444 C 96 458 102 474 108 490 C 112 501 114 512 116 524 C 117 535 118 545 118 554 C 118 576 108 594 88 607 C 68 620 45 627 21 627 L 21 749 C 59 749 93 743 123 733 C 153 723 179 710 200 694 C 220 678 236 661 247 641 C 258 621 264 602 264 584 C 264 569 262 553 259 537 C 255 521 251 504 246 488 C 240 471 234 455 230 441 C 225 426 223 415 223 409 C 223 390 229 374 242 360 C 254 346 273 340 299 340 L 299 230 C 273 230 255 223 243 210 C 231 196 225 181 225 165 C 225 154 227 142 231 129 C 235 116 240 102 245 88 C 249 72 254 55 258 37 C 262 18 264 -1 264 -22 C 264 -40 258 -59 247 -78 C 236 -96 220 -113 200 -128 C 179 -143 153 -155 123 -165 C 93 -174 59 -179 21 -179 Z" unicode="}" />
<glyph horiz-adv-x="498" d="M 356 461 L 473 461 C 472 435 469 410 464 388 C 458 365 451 345 441 329 C 431 313 419 300 404 290 C 389 280 372 276 352 276 C 327 276 306 279 289 286 C 272 293 258 301 247 310 C 235 318 224 325 214 331 C 204 337 193 341 181 341 C 170 341 161 334 154 321 C 146 307 143 293 143 279 L 29 279 C 29 335 38 380 57 414 C 76 447 105 464 144 464 C 168 464 190 459 210 449 C 229 439 245 430 258 422 C 270 414 281 407 291 401 C 301 395 311 393 322 393 C 337 393 346 399 350 413 C 354 426 356 442 356 461 Z" unicode="~" />
<glyph horiz-adv-x="315" d="M 75 548 L 241 548 L 241 382 L 75 382 L 75 548 Z M 66 122 L 121 306 L 198 306 L 249 122 L 249 -152 L 66 -152 L 66 122 Z" unicode="¡" />
<glyph horiz-adv-x="529" d="M 515 139 C 497 114 474 91 445 70 C 416 49 378 36 330 32 L 330 -89 L 251 -89 L 251 33 C 187 41 135 67 95 113 C 55 158 35 217 35 291 C 35 361 54 419 94 467 C 133 515 185 543 251 553 L 251 665 L 330 665 L 330 556 C 378 551 418 537 448 513 C 478 489 500 463 513 435 L 407 363 C 395 381 381 395 365 407 C 349 419 327 425 301 425 C 267 425 240 413 221 390 C 201 366 192 335 192 295 C 192 247 203 212 225 191 C 247 170 276 160 310 160 C 338 160 360 166 378 179 C 395 191 409 205 420 221 L 515 139 Z" unicode="¢" />
<glyph horiz-adv-x="563" d="M 549 126 L 549 0 L 12 0 L 12 97 C 18 101 27 105 41 109 C 54 113 73 117 97 122 C 124 126 146 136 162 150 C 178 164 189 182 193 203 L 36 203 L 36 297 L 163 297 C 159 303 154 310 150 317 C 145 324 140 331 136 339 L 36 339 L 36 433 L 86 433 C 79 449 73 467 69 487 C 65 507 63 527 63 549 C 63 583 69 613 83 638 C 97 662 115 682 137 698 C 159 713 186 724 216 731 C 246 738 277 742 309 742 C 333 742 358 739 382 735 C 406 730 428 724 449 717 C 470 710 489 702 506 693 C 522 684 535 676 545 668 L 472 546 C 457 556 435 568 407 580 C 379 592 349 598 319 598 C 297 598 277 591 259 579 C 241 566 232 546 232 518 C 232 504 234 490 240 476 C 245 462 252 447 260 433 L 489 433 L 489 339 L 315 339 C 318 332 321 325 324 318 C 327 310 329 303 331 297 L 489 297 L 489 203 L 327 203 C 320 182 310 165 297 153 C 284 141 269 132 253 126 L 549 126 Z" unicode="£" />
<glyph horiz-adv-x="502" d="M 449 194 L 398 143 L 344 199 C 330 191 315 184 299 180 C 283 176 266 174 250 174 C 233 174 217 176 201 180 C 185 184 171 190 158 198 L 104 143 L 52 195 L 103 247 C 91 261 82 278 76 296 C 70 314 67 334 67 354 C 67 374 70 394 76 412 C 82 430 91 447 103 462 L 52 515 L 103 566 L 157 509 C 171 517 185 523 201 527 C 217 531 233 534 250 534 C 266 534 283 531 299 527 C 315 523 330 517 344 509 L 400 566 L 451 514 L 398 460 C 408 445 417 429 423 411 C 429 393 433 374 433 354 C 433 334 429 314 423 296 C 417 278 408 261 398 247 L 449 194 Z M 250 273 C 272 273 292 281 309 297 C 326 313 335 332 335 354 C 335 376 326 395 309 411 C 292 427 272 435 250 435 C 227 435 207 427 190 411 C 173 395 165 376 165 354 C 165 332 173 313 190 297 C 207 281 227 273 250 273 Z" unicode="¤" />
<glyph horiz-adv-x="642" d="M 564 97 L 398 97 L 398 0 L 228 0 L 228 97 L 74 97 L 74 193 L 228 193 L 228 232 L 74 232 L 74 328 L 224 328 L 10 730 L 193 730 L 320 473 L 451 730 L 622 730 L 405 328 L 564 328 L 564 232 L 398 232 L 398 193 L 564 193 L 564 97 Z" unicode="¥" />
<glyph horiz-adv-x="301" d="M 84 351 L 84 730 L 218 730 L 218 351 L 84 351 Z M 218 200 L 218 -179 L 84 -179 L 84 200 L 218 200 Z" unicode="¦" />
<glyph horiz-adv-x="646" d="M 341 -182 C 283 -182 229 -175 180 -162 C 130 -148 88 -131 54 -109 L 115 19 C 147 -1 184 -19 224 -33 C 264 -47 299 -54 328 -54 C 350 -54 368 -48 381 -37 C 393 -26 400 -11 400 7 C 400 24 392 37 377 47 C 362 57 339 68 309 81 L 241 111 C 207 125 177 137 151 149 C 125 161 104 174 87 188 C 70 202 57 219 49 238 C 40 256 36 280 36 308 C 36 338 43 363 57 385 C 71 406 89 424 111 440 C 93 454 81 472 73 492 C 65 512 61 537 61 565 C 61 593 67 618 80 640 C 93 662 111 680 134 695 C 156 710 184 722 216 730 C 248 738 282 742 320 742 C 382 742 434 733 474 717 C 514 701 546 684 570 668 L 500 549 C 472 567 443 584 414 598 C 384 612 352 620 316 620 C 287 620 265 615 249 605 C 233 595 226 582 226 565 C 226 550 234 538 251 528 C 267 518 292 507 325 495 L 413 460 C 477 437 526 413 559 387 C 591 361 608 322 608 270 C 608 234 597 204 576 181 C 555 157 529 141 497 132 C 515 121 532 105 547 84 C 561 62 569 37 569 7 C 569 -22 563 -48 551 -72 C 539 -96 523 -116 503 -132 C 483 -148 459 -160 431 -169 C 403 -177 373 -182 341 -182 Z M 384 208 C 400 210 414 215 425 223 C 436 230 442 242 442 258 C 442 274 433 289 417 301 C 401 313 367 327 317 344 L 246 373 C 231 368 219 362 210 354 C 201 346 197 335 197 321 C 197 303 205 288 222 276 C 238 264 272 250 323 233 L 384 208 Z" unicode="§" />
<glyph horiz-adv-x="500" d="M 412 495 L 282 495 L 282 659 L 412 659 L 412 495 Z M 218 495 L 88 495 L 88 659 L 218 659 L 218 495 Z" unicode="¨" />
<glyph horiz-adv-x="836" d="M 418 -3 C 366 -3 318 6 273 26 C 227 46 188 72 154 106 C 120 139 94 178 74 224 C 54 270 45 318 45 369 C 45 420 54 468 74 514 C 94 559 120 598 154 632 C 188 666 227 692 273 712 C 318 732 366 742 418 742 C 468 742 516 732 562 712 C 608 692 647 666 681 632 C 715 598 741 559 761 514 C 781 468 791 420 791 369 C 791 318 781 270 761 224 C 741 178 715 139 681 106 C 647 72 608 46 562 26 C 516 6 468 -3 418 -3 Z M 418 75 C 458 75 495 82 531 98 C 567 113 598 134 625 161 C 651 187 672 218 688 254 C 703 290 711 328 711 368 C 711 408 703 446 688 482 C 672 518 651 549 625 576 C 598 602 567 623 531 639 C 495 655 458 663 418 663 C 378 663 340 655 304 639 C 268 623 236 602 210 576 C 184 549 163 518 148 482 C 132 446 125 408 125 368 C 125 328 132 290 148 254 C 163 218 184 187 210 161 C 236 134 268 113 304 98 C 340 82 378 75 418 75 Z M 595 252 C 579 226 556 204 527 187 C 497 169 460 161 414 161 C 386 161 360 165 336 174 C 311 182 289 195 271 213 C 252 231 237 253 226 280 C 214 306 209 337 209 373 C 209 409 214 440 225 468 C 235 496 250 519 268 538 C 286 556 308 570 333 580 C 358 589 384 594 412 594 C 459 594 497 585 527 568 C 556 551 578 530 594 505 L 498 437 C 490 449 480 460 467 469 C 454 477 437 482 417 482 C 391 482 371 471 355 450 C 339 429 332 402 332 369 C 332 335 340 309 357 291 C 374 273 394 264 417 264 C 437 264 455 268 469 277 C 483 286 495 298 505 313 L 595 252 Z" unicode="©" />
<glyph horiz-adv-x="440" d="M 404 342 L 288 342 L 288 387 C 276 370 259 357 237 349 C 215 341 190 337 162 337 C 120 337 87 348 65 371 C 43 393 32 424 32 464 C 32 505 49 536 83 558 C 117 580 166 592 230 594 L 282 597 L 282 604 C 282 615 277 624 267 631 C 257 637 241 641 219 641 C 198 641 177 637 156 631 C 134 624 114 615 94 603 L 49 683 C 71 699 98 713 132 725 C 165 737 202 743 244 743 C 295 743 334 731 362 709 C 390 686 404 649 404 599 L 404 342 Z M 285 468 L 285 519 L 227 516 C 206 515 189 511 177 504 C 164 496 158 484 158 468 C 158 456 162 446 171 440 C 180 433 192 430 207 430 C 223 430 238 433 252 440 C 265 446 276 456 285 468 Z M 408 213 L 40 213 L 40 310 L 408 310 L 408 213 Z" unicode="ª" />
<glyph horiz-adv-x="508" d="M 237 40 L 24 215 L 24 310 L 237 482 L 237 328 L 159 259 L 237 197 L 237 40 Z M 481 40 L 266 215 L 266 310 L 481 482 L 481 328 L 403 259 L 481 198 L 481 40 Z" unicode="«" />
<glyph horiz-adv-x="500" d="M 455 418 L 455 127 L 323 127 L 323 289 L 27 289 L 27 418 L 455 418 Z" unicode="¬" />
<glyph horiz-adv-x="836" d="M 418 -3 C 366 -3 318 6 273 26 C 227 46 188 72 154 106 C 120 139 94 178 74 224 C 54 270 45 318 45 369 C 45 420 54 468 74 514 C 94 559 120 598 154 632 C 188 666 227 692 273 712 C 318 732 366 742 418 742 C 468 742 516 732 562 712 C 608 692 647 666 681 632 C 715 598 741 559 761 514 C 781 468 791 420 791 369 C 791 318 781 270 761 224 C 741 178 715 139 681 106 C 647 72 608 46 562 26 C 516 6 468 -3 418 -3 Z M 125 368 C 125 327 132 289 148 253 C 163 217 184 186 210 160 C 236 134 268 113 304 98 C 340 82 378 75 418 75 C 459 75 498 82 534 98 C 570 114 602 135 629 163 L 508 163 L 409 315 L 375 315 L 375 163 L 265 163 L 265 595 L 442 595 C 460 595 477 592 495 587 C 513 582 529 575 543 565 C 557 555 568 542 577 526 C 585 510 590 492 590 471 C 590 433 580 405 560 387 C 540 369 521 358 502 355 L 502 351 L 631 165 C 655 191 675 221 689 256 C 703 290 711 328 711 368 C 711 410 703 449 688 485 C 672 521 651 552 625 578 C 598 604 567 625 531 640 C 495 655 458 663 418 663 C 378 663 340 655 304 640 C 268 624 236 603 210 577 C 184 551 163 520 148 484 C 132 448 125 409 125 368 Z M 374 402 L 433 402 C 443 402 454 406 465 415 C 475 424 481 438 481 458 C 481 478 475 491 463 498 C 451 504 439 508 427 508 L 374 508 L 374 402 Z" unicode="®" />
<glyph horiz-adv-x="500" d="M 395 505 L 105 505 L 105 620 L 395 620 L 395 505 Z" unicode="¯" />
<glyph horiz-adv-x="434" d="M 217 368 C 191 368 167 373 144 383 C 121 393 101 406 85 423 C 68 439 55 459 45 482 C 35 505 30 529 30 555 C 30 580 35 604 45 627 C 55 650 68 670 85 687 C 101 703 121 717 144 727 C 167 737 191 742 217 742 C 242 742 266 737 289 727 C 312 717 332 703 349 687 C 365 670 379 650 389 627 C 399 604 404 580 404 555 C 404 529 399 505 389 482 C 379 459 365 439 349 423 C 332 406 312 393 289 383 C 266 373 242 368 217 368 Z M 217 470 C 239 470 259 478 277 495 C 295 512 304 532 304 555 C 304 577 295 597 277 614 C 259 631 239 640 217 640 C 193 640 173 631 156 614 C 138 597 130 577 130 555 C 130 532 138 512 156 495 C 173 478 193 470 217 470 Z" unicode="°" />
<glyph horiz-adv-x="500" d="M 479 125 L 479 13 L 22 13 L 22 125 L 184 125 L 184 271 L 19 271 L 19 391 L 184 391 L 184 560 L 317 560 L 317 391 L 481 391 L 481 271 L 317 271 L 317 125 L 479 125 Z" unicode="±" />
<glyph horiz-adv-x="354" d="M 333 372 L 18 372 L 18 406 L 179 570 C 185 577 190 584 194 591 C 197 597 199 605 199 615 C 199 623 196 631 190 637 C 184 643 176 647 164 647 C 149 647 139 642 134 634 C 128 625 126 615 126 605 L 14 605 C 14 646 29 679 59 704 C 89 728 130 741 180 741 C 228 741 265 731 290 712 C 314 692 327 669 327 641 C 327 614 322 592 312 575 C 302 558 291 544 280 532 L 214 465 L 333 465 L 333 372 Z" unicode="²" />
<glyph horiz-adv-x="346" d="M 235 568 C 259 563 278 552 293 536 C 308 519 316 499 316 476 C 316 465 313 453 309 440 C 304 426 296 414 285 403 C 273 391 257 382 237 374 C 217 366 191 363 161 363 C 115 363 79 368 55 379 C 31 390 13 401 2 411 L 53 470 C 62 463 73 457 87 452 C 101 446 118 444 139 444 C 163 444 181 448 191 456 C 201 464 206 475 206 489 C 206 503 199 513 185 517 C 171 521 154 524 136 524 L 69 524 L 69 603 L 134 603 C 148 603 161 605 172 610 C 182 615 188 623 188 634 C 188 643 184 650 176 654 C 168 658 158 660 145 660 C 126 660 110 657 96 651 C 82 645 70 639 61 632 L 14 690 C 24 700 40 712 64 724 C 88 736 121 742 163 742 C 201 742 234 734 261 718 C 287 702 301 678 301 648 C 301 627 294 610 280 596 C 266 582 251 572 235 568 Z" unicode="³" />
<glyph horiz-adv-x="500" d="M 114 495 L 213 659 L 397 659 L 269 495 L 114 495 Z" unicode="´" />
<glyph horiz-adv-x="565" d="M 49 -86 L 49 442 L 205 442 L 205 173 C 205 155 211 141 225 132 C 239 122 256 118 276 118 C 300 118 320 123 335 135 C 349 147 357 162 357 181 L 357 442 L 512 442 L 512 0 L 370 0 L 370 69 C 356 49 339 32 317 19 C 295 6 271 -1 247 -4 C 235 -4 224 -3 214 1 C 204 5 197 10 192 17 L 192 -86 L 49 -86 Z" unicode="µ" />
<glyph horiz-adv-x="676" d="M 625 -180 L 526 -179 L 526 607 L 456 607 L 456 -179 L 357 -179 L 357 254 L 255 254 C 224 254 194 260 166 273 C 137 285 112 302 90 324 C 68 345 51 370 38 399 C 25 427 19 457 19 489 C 19 523 25 554 37 584 C 49 614 67 639 89 661 C 111 682 138 699 170 711 C 201 723 236 730 274 730 L 625 730 L 625 -180 Z M 357 383 L 357 601 L 311 601 C 276 601 250 590 233 570 C 216 550 208 524 208 492 C 208 462 216 436 233 415 C 250 393 274 383 305 383 L 357 383 Z" unicode="¶" />
<glyph horiz-adv-x="300" d="M 229 233 L 72 233 L 72 401 L 229 401 L 229 233 Z" unicode="·" />
<glyph horiz-adv-x="500" d="M 258 -191 C 232 -191 206 -188 180 -182 C 154 -176 134 -168 120 -159 L 139 -96 C 146 -99 156 -103 170 -108 C 184 -112 198 -115 212 -115 C 220 -115 228 -113 234 -109 C 240 -105 244 -100 244 -94 C 244 -87 241 -82 235 -79 C 229 -76 223 -75 217 -75 C 212 -75 208 -75 204 -76 C 200 -76 196 -77 192 -79 L 171 -57 L 233 14 L 322 14 L 277 -40 C 307 -37 332 -42 352 -55 C 371 -68 381 -87 381 -111 C 381 -137 368 -157 343 -171 C 318 -184 290 -191 258 -191 Z" unicode="¸" />
<glyph horiz-adv-x="318" d="M 122 372 L 122 606 C 118 601 112 597 104 593 C 96 589 88 585 80 583 C 71 581 63 579 55 578 C 47 576 41 575 37 575 L 37 679 C 63 679 85 684 104 693 C 122 702 144 717 169 738 L 247 738 L 247 372 L 122 372 Z" unicode="¹" />
<glyph horiz-adv-x="438" d="M 216 336 C 191 336 167 340 144 349 C 121 357 101 370 83 387 C 65 403 51 424 40 449 C 29 474 24 503 24 537 C 24 566 29 593 40 618 C 50 643 64 665 82 683 C 100 701 120 715 144 725 C 167 735 191 740 216 740 C 243 740 269 735 293 727 C 317 718 338 706 356 690 C 374 674 388 653 398 629 C 408 605 414 577 414 547 C 414 515 408 486 397 460 C 386 434 372 411 354 393 C 336 375 315 361 291 351 C 267 341 242 336 216 336 Z M 216 440 C 240 440 260 449 274 467 C 288 485 296 511 296 545 C 296 573 289 595 276 611 C 263 627 245 635 221 635 C 196 635 177 626 163 608 C 149 590 142 563 142 529 C 142 500 148 478 162 463 C 175 447 193 440 216 440 Z M 33 213 L 33 309 L 405 309 L 405 213 L 33 213 Z" unicode="º" />
<glyph horiz-adv-x="508" d="M 27 482 L 242 307 L 242 212 L 27 40 L 27 193 L 105 263 L 27 324 L 27 482 Z M 271 482 L 484 307 L 484 212 L 271 40 L 271 193 L 349 263 L 271 324 L 271 482 Z" unicode="»" />
<glyph horiz-adv-x="716" d="M 12 0 L 12 0 Z M 97 372 L 97 606 C 93 601 87 597 79 593 C 71 589 63 585 55 583 C 46 581 38 579 30 578 C 22 576 16 575 12 575 L 12 679 C 38 679 60 684 79 693 C 97 702 119 717 144 738 L 222 738 L 222 372 L 97 372 Z M 598 730 L 258 0 L 140 0 L 480 730 L 598 730 Z M 397 81 L 397 153 L 575 362 L 653 362 L 653 158 L 704 158 L 704 81 L 653 81 L 653 1 L 547 1 L 547 81 L 397 81 Z M 485 150 L 550 150 L 550 228 L 485 150 Z" unicode="¼" />
<glyph horiz-adv-x="798" d="M 12 0 L 12 0 Z M 97 372 L 97 606 C 93 601 87 597 79 593 C 71 589 63 585 55 583 C 46 581 38 579 30 578 C 22 576 16 575 12 575 L 12 679 C 38 679 60 684 79 693 C 97 702 119 717 144 738 L 222 738 L 222 372 L 97 372 Z M 598 730 L 258 0 L 140 0 L 480 730 L 598 730 Z M 778 0 L 463 0 L 463 34 L 624 198 C 630 205 635 212 639 219 C 642 225 644 233 644 243 C 644 251 641 259 635 265 C 629 271 621 275 609 275 C 594 275 584 270 579 262 C 573 253 571 243 571 233 L 459 233 C 459 274 474 307 504 332 C 534 356 575 369 625 369 C 673 369 710 359 735 340 C 759 320 772 297 772 269 C 772 242 767 220 757 203 C 747 186 736 172 725 160 L 659 93 L 778 93 L 778 0 Z" unicode="½" />
<glyph horiz-adv-x="766" d="M 12 0 L 12 0 Z M 648 730 L 308 0 L 190 0 L 530 730 L 648 730 Z M 447 81 L 447 153 L 625 362 L 703 362 L 703 158 L 754 158 L 754 81 L 703 81 L 703 1 L 597 1 L 597 81 L 447 81 Z M 535 150 L 600 150 L 600 228 L 535 150 Z M 245 568 C 269 563 288 552 303 536 C 318 519 326 499 326 476 C 326 465 323 453 319 440 C 314 426 306 414 295 403 C 283 391 267 382 247 374 C 227 366 201 363 171 363 C 125 363 89 368 65 379 C 41 390 23 401 12 411 L 63 470 C 72 463 83 457 97 452 C 111 446 128 444 149 444 C 173 444 191 448 201 456 C 211 464 216 475 216 489 C 216 503 209 513 195 517 C 181 521 164 524 146 524 L 79 524 L 79 603 L 144 603 C 158 603 171 605 182 610 C 192 615 198 623 198 634 C 198 643 194 650 186 654 C 178 658 168 660 155 660 C 136 660 120 657 106 651 C 92 645 80 639 71 632 L 24 690 C 34 700 50 712 74 724 C 98 736 131 742 173 742 C 211 742 244 734 271 718 C 297 702 311 678 311 648 C 311 627 304 610 290 596 C 276 582 261 572 245 568 Z" unicode="¾" />
<glyph horiz-adv-x="477" d="M 165 396 L 165 548 L 341 548 L 341 396 L 165 396 Z M 243 -179 C 173 -179 117 -162 75 -128 C 32 -94 11 -50 11 6 C 11 32 14 55 21 75 C 27 95 36 112 47 128 C 57 143 69 157 82 169 C 95 181 108 192 121 203 C 143 219 158 236 166 254 C 173 272 177 291 178 313 L 334 313 C 334 273 328 240 317 216 C 306 192 285 167 255 143 C 230 123 211 106 197 90 C 183 74 177 53 177 29 C 177 6 185 -11 203 -24 C 220 -37 241 -44 265 -44 C 289 -44 310 -38 329 -26 C 348 -14 363 0 374 15 L 474 -78 C 453 -105 423 -129 383 -149 C 343 -169 297 -179 243 -179 Z" unicode="¿" />
<glyph horiz-adv-x="627" d="M 0 0 L 0 0 Z M 632 0 L 458 0 L 416 122 L 201 122 L 160 0 L -5 0 L 265 732 L 370 732 L 632 0 Z M 383 247 L 308 466 L 235 247 L 383 247 Z M 315 789 L 315 789 Z M 458 789 L 302 789 L 173 953 L 357 953 L 458 789 Z" unicode="À" />
<glyph horiz-adv-x="627" d="M 0 0 L 0 0 Z M 632 0 L 458 0 L 416 122 L 201 122 L 160 0 L -5 0 L 265 732 L 370 732 L 632 0 Z M 383 247 L 308 466 L 235 247 L 383 247 Z M 315 789 L 315 789 Z M 174 789 L 273 953 L 457 953 L 329 789 L 174 789 Z" unicode="Á" />
<glyph horiz-adv-x="627" d="M 0 0 L 0 0 Z M 632 0 L 458 0 L 416 122 L 201 122 L 160 0 L -5 0 L 265 732 L 370 732 L 632 0 Z M 383 247 L 308 466 L 235 247 L 383 247 Z M 315 789 L 315 789 Z M 506 789 L 369 789 L 314 865 L 260 789 L 124 789 L 240 964 L 391 964 L 506 789 Z" unicode="Â" />
<glyph horiz-adv-x="627" d="M 0 0 L 0 0 Z M 632 0 L 458 0 L 416 122 L 201 122 L 160 0 L -5 0 L 265 732 L 370 732 L 632 0 Z M 383 247 L 308 466 L 235 247 L 383 247 Z M 315 791 L 315 791 Z M 380 950 L 500 950 C 500 896 491 856 473 830 C 455 804 433 791 407 791 C 386 791 369 794 355 800 C 341 806 330 811 322 816 C 313 820 305 825 297 829 C 289 833 282 836 275 836 C 267 836 261 832 257 824 C 253 816 250 806 250 794 L 133 794 C 133 847 143 887 165 913 C 186 939 209 953 233 953 C 253 953 269 950 282 944 C 294 938 305 933 314 928 C 321 923 328 919 334 915 C 340 911 347 910 353 910 C 359 910 365 913 371 920 C 377 926 380 936 380 950 Z" unicode="Ã" />
<glyph horiz-adv-x="627" d="M 0 0 L 0 0 Z M 632 0 L 458 0 L 416 122 L 201 122 L 160 0 L -5 0 L 265 732 L 370 732 L 632 0 Z M 383 247 L 308 466 L 235 247 L 383 247 Z M 315 789 L 315 789 Z M 477 789 L 347 789 L 347 953 L 477 953 L 477 789 Z M 283 789 L 153 789 L 153 953 L 283 953 L 283 789 Z" unicode="Ä" />
<glyph horiz-adv-x="627" d="M 0 0 L 0 0 Z M 632 0 L 458 0 L 416 122 L 201 122 L 160 0 L -5 0 L 265 732 L 370 732 L 632 0 Z M 383 247 L 308 466 L 235 247 L 383 247 Z M 315 784 L 315 784 Z M 315 784 C 281 784 252 795 229 819 C 205 842 194 871 194 905 C 194 938 205 966 229 990 C 252 1014 281 1026 315 1026 C 349 1026 377 1014 401 990 C 425 966 437 938 437 905 C 437 871 425 842 401 819 C 377 795 349 784 315 784 Z M 315 861 C 327 861 338 865 346 873 C 354 881 358 892 358 905 C 358 917 354 927 346 935 C 338 943 327 948 315 948 C 303 948 292 943 284 935 C 276 927 272 917 272 905 C 272 892 276 881 284 873 C 292 865 303 861 315 861 Z" unicode="Å" />
<glyph horiz-adv-x="923" d="M 894 0 L 461 0 L 461 189 L 247 189 L 142 0 L -31 0 L 363 730 L 874 730 L 874 590 L 613 590 L 613 428 L 856 428 L 856 291 L 613 291 L 613 140 L 894 140 L 894 0 Z M 461 319 L 461 610 L 310 319 L 461 319 Z" unicode="Æ" />
<glyph horiz-adv-x="629" d="M 35 0 L 35 0 Z M 358 -10 C 311 -10 268 -1 228 15 C 188 31 154 55 126 87 C 97 119 75 158 59 205 C 43 251 35 305 35 365 C 35 419 43 470 59 516 C 75 562 97 601 126 634 C 154 667 189 693 229 712 C 269 730 313 740 361 740 C 427 740 481 728 521 706 C 561 683 593 653 619 617 L 510 528 C 497 546 478 562 454 577 C 430 592 401 600 367 600 C 313 600 273 579 246 538 C 219 496 206 438 206 363 C 206 319 210 282 220 252 C 229 222 241 197 256 179 C 271 161 289 148 309 140 C 329 132 351 129 373 129 C 409 129 439 136 463 151 C 486 165 506 184 523 208 L 627 129 C 599 86 563 52 518 27 C 473 2 420 -10 358 -10 Z M 345 0 L 345 0 Z M 352 -191 C 326 -191 300 -188 274 -182 C 248 -176 228 -168 214 -159 L 233 -96 C 240 -99 250 -103 264 -108 C 278 -112 292 -115 306 -115 C 314 -115 322 -113 328 -109 C 334 -105 338 -100 338 -94 C 338 -87 335 -82 329 -79 C 323 -76 317 -75 311 -75 C 306 -75 302 -75 298 -76 C 294 -76 290 -77 286 -79 L 265 -57 L 327 14 L 416 14 L 371 -40 C 401 -37 426 -42 446 -55 C 465 -68 475 -87 475 -111 C 475 -137 462 -157 437 -171 C 412 -184 384 -191 352 -191 Z" unicode="Ç" />
<glyph horiz-adv-x="544" d="M 67 0 L 67 0 Z M 515 0 L 67 0 L 67 730 L 496 730 L 496 588 L 233 588 L 233 429 L 477 429 L 477 291 L 233 291 L 233 142 L 515 142 L 515 0 Z M 284 789 L 284 789 Z M 427 789 L 271 789 L 142 953 L 326 953 L 427 789 Z" unicode="È" />
<glyph horiz-adv-x="544" d="M 67 0 L 67 0 Z M 515 0 L 67 0 L 67 730 L 496 730 L 496 588 L 233 588 L 233 429 L 477 429 L 477 291 L 233 291 L 233 142 L 515 142 L 515 0 Z M 284 789 L 284 789 Z M 143 789 L 242 953 L 426 953 L 298 789 L 143 789 Z" unicode="É" />
<glyph horiz-adv-x="544" d="M 67 0 L 67 0 Z M 515 0 L 67 0 L 67 730 L 496 730 L 496 588 L 233 588 L 233 429 L 477 429 L 477 291 L 233 291 L 233 142 L 515 142 L 515 0 Z M 284 789 L 284 789 Z M 475 789 L 338 789 L 283 865 L 229 789 L 93 789 L 209 964 L 360 964 L 475 789 Z" unicode="Ê" />
<glyph horiz-adv-x="544" d="M 67 0 L 67 0 Z M 515 0 L 67 0 L 67 730 L 496 730 L 496 588 L 233 588 L 233 429 L 477 429 L 477 291 L 233 291 L 233 142 L 515 142 L 515 0 Z M 284 789 L 284 789 Z M 446 789 L 316 789 L 316 953 L 446 953 L 446 789 Z M 252 789 L 122 789 L 122 953 L 252 953 L 252 789 Z" unicode="Ë" />
<glyph horiz-adv-x="314" d="M 15 0 L 15 0 Z M 242 0 L 72 0 L 72 730 L 242 730 L 242 0 Z M 157 789 L 157 789 Z M 300 789 L 144 789 L 15 953 L 199 953 L 300 789 Z" unicode="Ì" />
<glyph horiz-adv-x="314" d="M 16 0 L 16 0 Z M 242 0 L 72 0 L 72 730 L 242 730 L 242 0 Z M 157 789 L 157 789 Z M 16 789 L 115 953 L 299 953 L 171 789 L 16 789 Z" unicode="Í" />
<glyph horiz-adv-x="314" d="M 0 0 L 0 0 Z M 242 0 L 72 0 L 72 730 L 242 730 L 242 0 Z M 157 789 L 157 789 Z M 348 789 L 211 789 L 156 865 L 102 789 L -34 789 L 82 964 L 233 964 L 348 789 Z" unicode="Î" />
<glyph horiz-adv-x="314" d="M 0 0 L 0 0 Z M 242 0 L 72 0 L 72 730 L 242 730 L 242 0 Z M 157 789 L 157 789 Z M 319 789 L 189 789 L 189 953 L 319 953 L 319 789 Z M 125 789 L -5 789 L -5 953 L 125 953 L 125 789 Z" unicode="Ï" />
<glyph horiz-adv-x="693" d="M 659 364 C 659 313 651 265 635 221 C 619 177 596 138 566 106 C 536 73 498 47 452 28 C 406 9 354 0 294 0 L 67 0 L 67 295 L 25 295 L 25 419 L 67 419 L 67 730 L 310 730 C 367 730 418 721 462 703 C 506 685 542 661 571 629 C 600 597 622 558 637 513 C 651 467 659 418 659 364 Z M 233 134 L 299 134 C 332 134 361 140 385 152 C 409 164 428 180 443 200 C 457 220 468 245 475 273 C 481 301 485 330 485 362 C 485 437 470 495 440 535 C 410 575 367 595 311 595 L 233 595 L 233 419 L 347 419 L 347 295 L 233 295 L 233 134 Z" unicode="Ð" />
<glyph horiz-adv-x="690" d="M 67 0 L 67 0 Z M 622 0 L 508 0 L 225 411 L 225 0 L 67 0 L 67 730 L 191 730 L 466 328 L 466 730 L 622 730 L 622 0 Z M 344 791 L 344 791 Z M 409 950 L 529 950 C 529 896 520 856 502 830 C 484 804 462 791 436 791 C 415 791 398 794 384 800 C 370 806 359 811 351 816 C 342 820 334 825 326 829 C 318 833 311 836 304 836 C 296 836 290 832 286 824 C 282 816 279 806 279 794 L 162 794 C 162 847 172 887 194 913 C 215 939 238 953 262 953 C 282 953 298 950 311 944 C 323 938 334 933 343 928 C 350 923 357 919 363 915 C 369 911 376 910 382 910 C 388 910 394 913 400 920 C 406 926 409 936 409 950 Z" unicode="Ñ" />
<glyph horiz-adv-x="740" d="M 34 0 L 34 0 Z M 373 -10 C 318 -10 269 -1 227 16 C 185 34 149 59 121 92 C 93 124 71 164 56 212 C 41 259 34 312 34 370 C 34 424 42 473 59 519 C 75 564 98 603 128 636 C 157 668 192 694 233 712 C 274 730 318 740 366 740 C 416 740 463 731 505 715 C 547 698 583 674 613 642 C 642 610 665 571 681 525 C 697 479 706 426 706 368 C 706 310 697 257 680 211 C 662 164 639 124 609 92 C 579 59 543 34 503 16 C 462 -1 419 -10 373 -10 Z M 371 129 C 420 129 459 148 488 188 C 517 227 532 288 532 370 C 532 446 517 504 487 542 C 457 580 418 600 370 600 C 322 600 283 581 253 545 C 223 508 209 449 209 367 C 209 283 223 223 253 185 C 283 147 322 129 371 129 Z M 369 789 L 369 789 Z M 512 789 L 356 789 L 227 953 L 411 953 L 512 789 Z" unicode="Ò" />
<glyph horiz-adv-x="740" d="M 34 0 L 34 0 Z M 373 -10 C 318 -10 269 -1 227 16 C 185 34 149 59 121 92 C 93 124 71 164 56 212 C 41 259 34 312 34 370 C 34 424 42 473 59 519 C 75 564 98 603 128 636 C 157 668 192 694 233 712 C 274 730 318 740 366 740 C 416 740 463 731 505 715 C 547 698 583 674 613 642 C 642 610 665 571 681 525 C 697 479 706 426 706 368 C 706 310 697 257 680 211 C 662 164 639 124 609 92 C 579 59 543 34 503 16 C 462 -1 419 -10 373 -10 Z M 371 129 C 420 129 459 148 488 188 C 517 227 532 288 532 370 C 532 446 517 504 487 542 C 457 580 418 600 370 600 C 322 600 283 581 253 545 C 223 508 209 449 209 367 C 209 283 223 223 253 185 C 283 147 322 129 371 129 Z M 369 789 L 369 789 Z M 228 789 L 327 953 L 511 953 L 383 789 L 228 789 Z" unicode="Ó" />
<glyph horiz-adv-x="740" d="M 34 0 L 34 0 Z M 373 -10 C 318 -10 269 -1 227 16 C 185 34 149 59 121 92 C 93 124 71 164 56 212 C 41 259 34 312 34 370 C 34 424 42 473 59 519 C 75 564 98 603 128 636 C 157 668 192 694 233 712 C 274 730 318 740 366 740 C 416 740 463 731 505 715 C 547 698 583 674 613 642 C 642 610 665 571 681 525 C 697 479 706 426 706 368 C 706 310 697 257 680 211 C 662 164 639 124 609 92 C 579 59 543 34 503 16 C 462 -1 419 -10 373 -10 Z M 371 129 C 420 129 459 148 488 188 C 517 227 532 288 532 370 C 532 446 517 504 487 542 C 457 580 418 600 370 600 C 322 600 283 581 253 545 C 223 508 209 449 209 367 C 209 283 223 223 253 185 C 283 147 322 129 371 129 Z M 369 789 L 369 789 Z M 560 789 L 423 789 L 368 865 L 314 789 L 178 789 L 294 964 L 445 964 L 560 789 Z" unicode="Ô" />
<glyph horiz-adv-x="740" d="M 34 0 L 34 0 Z M 373 -10 C 318 -10 269 -1 227 16 C 185 34 149 59 121 92 C 93 124 71 164 56 212 C 41 259 34 312 34 370 C 34 424 42 473 59 519 C 75 564 98 603 128 636 C 157 668 192 694 233 712 C 274 730 318 740 366 740 C 416 740 463 731 505 715 C 547 698 583 674 613 642 C 642 610 665 571 681 525 C 697 479 706 426 706 368 C 706 310 697 257 680 211 C 662 164 639 124 609 92 C 579 59 543 34 503 16 C 462 -1 419 -10 373 -10 Z M 371 129 C 420 129 459 148 488 188 C 517 227 532 288 532 370 C 532 446 517 504 487 542 C 457 580 418 600 370 600 C 322 600 283 581 253 545 C 223 508 209 449 209 367 C 209 283 223 223 253 185 C 283 147 322 129 371 129 Z M 369 791 L 369 791 Z M 434 950 L 554 950 C 554 896 545 856 527 830 C 509 804 487 791 461 791 C 440 791 423 794 409 800 C 395 806 384 811 376 816 C 367 820 359 825 351 829 C 343 833 336 836 329 836 C 321 836 315 832 311 824 C 307 816 304 806 304 794 L 187 794 C 187 847 197 887 219 913 C 240 939 263 953 287 953 C 307 953 323 950 336 944 C 348 938 359 933 368 928 C 375 923 382 919 388 915 C 394 911 401 910 407 910 C 413 910 419 913 425 920 C 431 926 434 936 434 950 Z" unicode="Õ" />
<glyph horiz-adv-x="740" d="M 34 0 L 34 0 Z M 373 -10 C 318 -10 269 -1 227 16 C 185 34 149 59 121 92 C 93 124 71 164 56 212 C 41 259 34 312 34 370 C 34 424 42 473 59 519 C 75 564 98 603 128 636 C 157 668 192 694 233 712 C 274 730 318 740 366 740 C 416 740 463 731 505 715 C 547 698 583 674 613 642 C 642 610 665 571 681 525 C 697 479 706 426 706 368 C 706 310 697 257 680 211 C 662 164 639 124 609 92 C 579 59 543 34 503 16 C 462 -1 419 -10 373 -10 Z M 371 129 C 420 129 459 148 488 188 C 517 227 532 288 532 370 C 532 446 517 504 487 542 C 457 580 418 600 370 600 C 322 600 283 581 253 545 C 223 508 209 449 209 367 C 209 283 223 223 253 185 C 283 147 322 129 371 129 Z M 369 789 L 369 789 Z M 531 789 L 401 789 L 401 953 L 531 953 L 531 789 Z M 337 789 L 207 789 L 207 953 L 337 953 L 337 789 Z" unicode="Ö" />
<glyph horiz-adv-x="502" d="M 124 117 L 37 204 L 164 330 L 39 455 L 125 543 L 251 418 L 377 543 L 464 455 L 338 330 L 465 205 L 378 114 L 251 244 L 124 117 Z" unicode="×" />
<glyph horiz-adv-x="740" d="M 706 368 C 706 310 697 257 680 211 C 662 164 639 124 609 92 C 579 59 543 34 503 16 C 462 -1 419 -10 373 -10 C 327 -10 285 -3 247 9 C 209 22 176 41 149 65 L 88 -4 L 34 44 L 100 120 C 78 151 62 188 51 230 C 39 272 34 319 34 370 C 34 424 42 473 59 519 C 75 564 98 603 128 636 C 157 668 192 694 233 712 C 274 730 318 740 366 740 C 408 740 448 734 485 722 C 521 710 554 692 583 670 L 655 752 L 709 704 L 633 618 C 656 587 674 550 687 508 C 699 466 706 419 706 368 Z M 209 367 C 209 345 210 325 212 307 C 214 289 217 272 221 257 L 480 552 C 466 568 449 580 431 588 C 412 596 392 600 370 600 C 322 600 283 581 253 545 C 223 508 209 449 209 367 Z M 532 370 C 532 392 530 413 528 432 C 525 451 521 468 516 484 L 254 185 C 268 165 284 151 304 142 C 324 133 346 129 371 129 C 420 129 459 148 488 188 C 517 227 532 288 532 370 Z" unicode="Ø" />
<glyph horiz-adv-x="681" d="M 62 0 L 62 0 Z M 618 730 L 618 254 C 618 211 610 173 595 140 C 580 107 560 80 534 58 C 508 36 478 19 444 7 C 410 -4 374 -10 336 -10 C 298 -10 263 -4 230 6 C 196 17 167 33 143 55 C 118 77 98 104 84 138 C 69 171 62 210 62 254 L 62 730 L 229 730 L 229 245 C 229 211 238 183 258 163 C 278 142 304 132 337 132 C 370 132 397 141 418 161 C 438 181 449 209 449 245 L 449 730 L 618 730 Z M 339 789 L 339 789 Z M 482 789 L 326 789 L 197 953 L 381 953 L 482 789 Z" unicode="Ù" />
<glyph horiz-adv-x="681" d="M 62 0 L 62 0 Z M 618 730 L 618 254 C 618 211 610 173 595 140 C 580 107 560 80 534 58 C 508 36 478 19 444 7 C 410 -4 374 -10 336 -10 C 298 -10 263 -4 230 6 C 196 17 167 33 143 55 C 118 77 98 104 84 138 C 69 171 62 210 62 254 L 62 730 L 229 730 L 229 245 C 229 211 238 183 258 163 C 278 142 304 132 337 132 C 370 132 397 141 418 161 C 438 181 449 209 449 245 L 449 730 L 618 730 Z M 339 789 L 339 789 Z M 198 789 L 297 953 L 481 953 L 353 789 L 198 789 Z" unicode="Ú" />
<glyph horiz-adv-x="681" d="M 62 0 L 62 0 Z M 618 730 L 618 254 C 618 211 610 173 595 140 C 580 107 560 80 534 58 C 508 36 478 19 444 7 C 410 -4 374 -10 336 -10 C 298 -10 263 -4 230 6 C 196 17 167 33 143 55 C 118 77 98 104 84 138 C 69 171 62 210 62 254 L 62 730 L 229 730 L 229 245 C 229 211 238 183 258 163 C 278 142 304 132 337 132 C 370 132 397 141 418 161 C 438 181 449 209 449 245 L 449 730 L 618 730 Z M 339 789 L 339 789 Z M 530 789 L 393 789 L 338 865 L 284 789 L 148 789 L 264 964 L 415 964 L 530 789 Z" unicode="Û" />
<glyph horiz-adv-x="681" d="M 62 0 L 62 0 Z M 618 730 L 618 254 C 618 211 610 173 595 140 C 580 107 560 80 534 58 C 508 36 478 19 444 7 C 410 -4 374 -10 336 -10 C 298 -10 263 -4 230 6 C 196 17 167 33 143 55 C 118 77 98 104 84 138 C 69 171 62 210 62 254 L 62 730 L 229 730 L 229 245 C 229 211 238 183 258 163 C 278 142 304 132 337 132 C 370 132 397 141 418 161 C 438 181 449 209 449 245 L 449 730 L 618 730 Z M 339 789 L 339 789 Z M 501 789 L 371 789 L 371 953 L 501 953 L 501 789 Z M 307 789 L 177 789 L 177 953 L 307 953 L 307 789 Z" unicode="Ü" />
<glyph horiz-adv-x="617" d="M 0 0 L 0 0 Z M 625 730 L 390 310 L 390 0 L 220 0 L 220 316 L -8 730 L 174 730 L 313 470 L 453 730 L 625 730 Z M 312 789 L 312 789 Z M 171 789 L 270 953 L 454 953 L 326 789 L 171 789 Z" unicode="Ý" />
<glyph horiz-adv-x="577" d="M 67 0 L 67 730 L 237 730 L 237 615 L 327 615 C 395 615 451 593 494 550 C 537 507 559 450 559 380 C 559 307 536 248 491 204 C 446 159 388 137 317 137 L 237 137 L 237 0 L 67 0 Z M 236 271 L 305 271 C 331 271 352 280 368 300 C 384 319 392 345 392 379 C 392 411 383 436 365 453 C 347 469 326 478 300 478 L 236 478 L 236 271 Z" unicode="Þ" />
<glyph horiz-adv-x="663" d="M 467 -10 C 423 -10 383 -4 349 8 C 315 20 286 35 264 54 L 325 155 C 343 143 365 133 390 125 C 415 117 437 113 456 113 C 470 113 481 115 489 120 C 497 125 501 133 501 144 C 501 154 494 163 480 171 C 466 178 446 187 419 197 C 369 212 333 231 310 254 C 287 277 276 309 276 350 C 276 383 285 410 304 430 C 322 450 342 465 363 473 C 367 473 371 477 377 484 C 382 491 385 505 386 526 C 390 558 384 584 368 602 C 352 620 330 629 304 629 C 277 629 256 621 242 605 C 228 589 221 565 221 532 L 221 0 L 63 0 L 63 551 C 63 584 68 613 80 639 C 92 665 108 686 129 704 C 149 721 174 734 202 743 C 230 752 261 757 295 757 C 329 757 360 752 390 743 C 419 734 444 721 465 705 C 486 688 503 667 515 643 C 527 618 533 590 533 559 C 533 511 524 474 506 449 C 488 423 469 407 450 400 C 436 396 424 391 414 385 C 404 379 398 372 396 364 C 396 352 405 342 424 333 C 443 324 469 314 502 304 C 545 289 579 270 604 248 C 628 225 641 192 641 148 C 641 122 636 99 626 79 C 616 59 604 42 588 29 C 572 16 554 6 533 0 C 511 -6 489 -10 467 -10 Z" unicode="ß" />
<glyph horiz-adv-x="471" d="M 13 0 L 13 0 Z M 431 0 L 291 0 L 291 43 C 277 27 259 14 238 4 C 217 -5 192 -10 162 -10 C 111 -10 73 4 49 33 C 25 61 13 95 13 134 C 13 182 31 218 69 243 C 106 268 158 281 224 283 L 284 285 L 284 291 C 284 304 279 315 270 325 C 260 334 243 339 219 339 C 193 339 168 335 146 328 C 123 320 105 313 93 305 L 48 393 C 66 407 91 419 123 431 C 155 442 196 448 245 448 C 271 448 295 445 318 439 C 340 433 360 423 377 411 C 393 399 406 383 416 364 C 426 344 431 321 431 295 L 431 0 Z M 287 128 L 287 192 L 241 190 C 217 189 198 185 184 178 C 170 170 163 158 163 142 C 163 128 167 117 177 110 C 186 103 197 100 211 100 C 229 100 244 103 257 109 C 270 115 280 121 287 128 Z M 233 495 L 233 495 Z M 376 495 L 220 495 L 91 659 L 275 659 L 376 495 Z" unicode="à" />
<glyph horiz-adv-x="471" d="M 13 0 L 13 0 Z M 431 0 L 291 0 L 291 43 C 277 27 259 14 238 4 C 217 -5 192 -10 162 -10 C 111 -10 73 4 49 33 C 25 61 13 95 13 134 C 13 182 31 218 69 243 C 106 268 158 281 224 283 L 284 285 L 284 291 C 284 304 279 315 270 325 C 260 334 243 339 219 339 C 193 339 168 335 146 328 C 123 320 105 313 93 305 L 48 393 C 66 407 91 419 123 431 C 155 442 196 448 245 448 C 271 448 295 445 318 439 C 340 433 360 423 377 411 C 393 399 406 383 416 364 C 426 344 431 321 431 295 L 431 0 Z M 287 128 L 287 192 L 241 190 C 217 189 198 185 184 178 C 170 170 163 158 163 142 C 163 128 167 117 177 110 C 186 103 197 100 211 100 C 229 100 244 103 257 109 C 270 115 280 121 287 128 Z M 233 495 L 233 495 Z M 92 495 L 191 659 L 375 659 L 247 495 L 92 495 Z" unicode="á" />
<glyph horiz-adv-x="471" d="M 13 0 L 13 0 Z M 431 0 L 291 0 L 291 43 C 277 27 259 14 238 4 C 217 -5 192 -10 162 -10 C 111 -10 73 4 49 33 C 25 61 13 95 13 134 C 13 182 31 218 69 243 C 106 268 158 281 224 283 L 284 285 L 284 291 C 284 304 279 315 270 325 C 260 334 243 339 219 339 C 193 339 168 335 146 328 C 123 320 105 313 93 305 L 48 393 C 66 407 91 419 123 431 C 155 442 196 448 245 448 C 271 448 295 445 318 439 C 340 433 360 423 377 411 C 393 399 406 383 416 364 C 426 344 431 321 431 295 L 431 0 Z M 287 128 L 287 192 L 241 190 C 217 189 198 185 184 178 C 170 170 163 158 163 142 C 163 128 167 117 177 110 C 186 103 197 100 211 100 C 229 100 244 103 257 109 C 270 115 280 121 287 128 Z M 233 495 L 233 495 Z M 424 495 L 287 495 L 232 571 L 178 495 L 42 495 L 158 670 L 309 670 L 424 495 Z" unicode="â" />
<glyph horiz-adv-x="471" d="M 13 0 L 13 0 Z M 431 0 L 291 0 L 291 43 C 277 27 259 14 238 4 C 217 -5 192 -10 162 -10 C 111 -10 73 4 49 33 C 25 61 13 95 13 134 C 13 182 31 218 69 243 C 106 268 158 281 224 283 L 284 285 L 284 291 C 284 304 279 315 270 325 C 260 334 243 339 219 339 C 193 339 168 335 146 328 C 123 320 105 313 93 305 L 48 393 C 66 407 91 419 123 431 C 155 442 196 448 245 448 C 271 448 295 445 318 439 C 340 433 360 423 377 411 C 393 399 406 383 416 364 C 426 344 431 321 431 295 L 431 0 Z M 287 128 L 287 192 L 241 190 C 217 189 198 185 184 178 C 170 170 163 158 163 142 C 163 128 167 117 177 110 C 186 103 197 100 211 100 C 229 100 244 103 257 109 C 270 115 280 121 287 128 Z M 233 497 L 233 497 Z M 298 656 L 418 656 C 418 602 409 562 391 536 C 373 510 351 497 325 497 C 304 497 287 500 273 506 C 259 512 248 517 240 522 C 231 526 223 531 215 535 C 207 539 200 542 193 542 C 185 542 179 538 175 530 C 171 522 168 512 168 500 L 51 500 C 51 553 61 593 83 619 C 104 645 127 659 151 659 C 171 659 187 656 200 650 C 212 644 223 639 232 634 C 239 629 246 625 252 621 C 258 617 265 616 271 616 C 277 616 283 619 289 626 C 295 632 298 642 298 656 Z" unicode="ã" />
<glyph horiz-adv-x="471" d="M 13 0 L 13 0 Z M 431 0 L 291 0 L 291 43 C 277 27 259 14 238 4 C 217 -5 192 -10 162 -10 C 111 -10 73 4 49 33 C 25 61 13 95 13 134 C 13 182 31 218 69 243 C 106 268 158 281 224 283 L 284 285 L 284 291 C 284 304 279 315 270 325 C 260 334 243 339 219 339 C 193 339 168 335 146 328 C 123 320 105 313 93 305 L 48 393 C 66 407 91 419 123 431 C 155 442 196 448 245 448 C 271 448 295 445 318 439 C 340 433 360 423 377 411 C 393 399 406 383 416 364 C 426 344 431 321 431 295 L 431 0 Z M 287 128 L 287 192 L 241 190 C 217 189 198 185 184 178 C 170 170 163 158 163 142 C 163 128 167 117 177 110 C 186 103 197 100 211 100 C 229 100 244 103 257 109 C 270 115 280 121 287 128 Z M 233 495 L 233 495 Z M 395 495 L 265 495 L 265 659 L 395 659 L 395 495 Z M 201 495 L 71 495 L 71 659 L 201 659 L 201 495 Z" unicode="ä" />
<glyph horiz-adv-x="471" d="M 13 0 L 13 0 Z M 431 0 L 291 0 L 291 43 C 277 27 259 14 238 4 C 217 -5 192 -10 162 -10 C 111 -10 73 4 49 33 C 25 61 13 95 13 134 C 13 182 31 218 69 243 C 106 268 158 281 224 283 L 284 285 L 284 291 C 284 304 279 315 270 325 C 260 334 243 339 219 339 C 193 339 168 335 146 328 C 123 320 105 313 93 305 L 48 393 C 66 407 91 419 123 431 C 155 442 196 448 245 448 C 271 448 295 445 318 439 C 340 433 360 423 377 411 C 393 399 406 383 416 364 C 426 344 431 321 431 295 L 431 0 Z M 287 128 L 287 192 L 241 190 C 217 189 198 185 184 178 C 170 170 163 158 163 142 C 163 128 167 117 177 110 C 186 103 197 100 211 100 C 229 100 244 103 257 109 C 270 115 280 121 287 128 Z M 233 490 L 233 490 Z M 233 490 C 199 490 170 501 147 525 C 123 548 112 577 112 611 C 112 644 123 672 147 696 C 170 720 199 732 233 732 C 267 732 295 720 319 696 C 343 672 355 644 355 611 C 355 577 343 548 319 525 C 295 501 267 490 233 490 Z M 233 567 C 245 567 256 571 264 579 C 272 587 276 598 276 611 C 276 623 272 633 264 641 C 256 649 245 654 233 654 C 221 654 210 649 202 641 C 194 633 190 623 190 611 C 190 598 194 587 202 579 C 210 571 221 567 233 567 Z" unicode="å" />
<glyph horiz-adv-x="736" d="M 514 -10 C 467 -10 430 -2 402 13 C 374 28 354 47 341 70 C 325 46 301 26 268 12 C 234 -2 200 -10 166 -10 C 116 -10 78 4 52 32 C 26 60 13 93 13 133 C 13 181 31 217 69 243 C 106 268 158 281 224 282 L 288 285 L 288 291 C 288 306 281 318 269 326 C 257 334 240 339 218 339 C 192 339 167 335 145 328 C 122 320 104 313 92 305 L 48 393 C 66 407 92 420 124 430 C 156 440 193 446 233 446 C 265 446 294 441 320 431 C 346 421 365 410 375 398 C 387 411 404 422 428 432 C 451 441 479 446 511 446 C 579 446 631 421 669 372 C 706 323 725 259 725 179 L 431 179 C 432 156 440 137 455 122 C 469 107 493 100 527 100 C 553 100 575 103 591 111 C 607 119 622 129 635 141 L 704 64 C 684 42 661 25 633 11 C 605 -3 565 -10 514 -10 Z M 431 270 L 578 270 C 577 288 570 305 557 319 C 544 333 526 340 504 340 C 482 340 464 333 452 320 C 440 307 433 290 431 270 Z M 214 99 C 234 99 250 103 264 112 C 278 120 287 131 292 143 L 292 192 L 241 191 C 217 190 198 186 184 179 C 170 171 163 159 163 143 C 163 127 168 116 178 109 C 188 102 200 99 214 99 Z" unicode="æ" />
<glyph horiz-adv-x="449" d="M 22 0 L 22 0 Z M 345 159 L 446 93 C 429 64 405 40 375 20 C 344 0 302 -10 248 -10 C 178 -10 123 11 83 54 C 42 96 22 151 22 219 C 22 252 27 282 39 310 C 50 338 66 362 87 382 C 107 402 132 417 160 429 C 188 440 220 446 254 446 C 305 446 346 436 377 416 C 408 396 431 373 446 347 L 339 276 C 331 291 321 303 309 312 C 297 320 283 325 265 325 C 241 325 222 315 208 297 C 194 278 187 251 187 217 C 187 179 194 151 210 134 C 226 116 246 108 270 108 C 288 108 304 113 316 124 C 328 134 338 146 345 159 Z M 241 0 L 241 0 Z M 248 -191 C 222 -191 196 -188 170 -182 C 144 -176 124 -168 110 -159 L 129 -96 C 136 -99 146 -103 160 -108 C 174 -112 188 -115 202 -115 C 210 -115 218 -113 224 -109 C 230 -105 234 -100 234 -94 C 234 -87 231 -82 225 -79 C 219 -76 213 -75 207 -75 C 202 -75 198 -75 194 -76 C 190 -76 186 -77 182 -79 L 161 -57 L 223 14 L 312 14 L 267 -40 C 297 -37 322 -42 342 -55 C 361 -68 371 -87 371 -111 C 371 -137 358 -157 333 -171 C 308 -184 280 -191 248 -191 Z" unicode="ç" />
<glyph horiz-adv-x="480" d="M 23 0 L 23 0 Z M 253 -10 C 219 -10 188 -5 160 5 C 132 15 107 29 87 48 C 67 67 51 90 40 118 C 28 146 23 177 23 213 C 23 282 44 338 87 381 C 129 424 184 446 251 446 C 320 446 374 422 412 374 C 450 326 469 261 469 178 L 172 178 C 172 155 180 136 196 122 C 212 107 235 100 266 100 C 294 100 317 104 335 112 C 353 120 368 130 380 141 L 449 64 C 430 44 406 26 377 12 C 348 -2 307 -10 253 -10 Z M 173 271 L 322 271 C 320 290 313 306 301 320 C 289 333 272 340 250 340 C 227 340 209 333 196 321 C 182 308 175 291 173 271 Z M 247 495 L 247 495 Z M 390 495 L 234 495 L 105 659 L 289 659 L 390 495 Z" unicode="è" />
<glyph horiz-adv-x="480" d="M 23 0 L 23 0 Z M 253 -10 C 219 -10 188 -5 160 5 C 132 15 107 29 87 48 C 67 67 51 90 40 118 C 28 146 23 177 23 213 C 23 282 44 338 87 381 C 129 424 184 446 251 446 C 320 446 374 422 412 374 C 450 326 469 261 469 178 L 172 178 C 172 155 180 136 196 122 C 212 107 235 100 266 100 C 294 100 317 104 335 112 C 353 120 368 130 380 141 L 449 64 C 430 44 406 26 377 12 C 348 -2 307 -10 253 -10 Z M 173 271 L 322 271 C 320 290 313 306 301 320 C 289 333 272 340 250 340 C 227 340 209 333 196 321 C 182 308 175 291 173 271 Z M 247 495 L 247 495 Z M 106 495 L 205 659 L 389 659 L 261 495 L 106 495 Z" unicode="é" />
<glyph horiz-adv-x="480" d="M 23 0 L 23 0 Z M 253 -10 C 219 -10 188 -5 160 5 C 132 15 107 29 87 48 C 67 67 51 90 40 118 C 28 146 23 177 23 213 C 23 282 44 338 87 381 C 129 424 184 446 251 446 C 320 446 374 422 412 374 C 450 326 469 261 469 178 L 172 178 C 172 155 180 136 196 122 C 212 107 235 100 266 100 C 294 100 317 104 335 112 C 353 120 368 130 380 141 L 449 64 C 430 44 406 26 377 12 C 348 -2 307 -10 253 -10 Z M 173 271 L 322 271 C 320 290 313 306 301 320 C 289 333 272 340 250 340 C 227 340 209 333 196 321 C 182 308 175 291 173 271 Z M 247 495 L 247 495 Z M 438 495 L 301 495 L 246 571 L 192 495 L 56 495 L 172 670 L 323 670 L 438 495 Z" unicode="ê" />
<glyph horiz-adv-x="480" d="M 23 0 L 23 0 Z M 253 -10 C 219 -10 188 -5 160 5 C 132 15 107 29 87 48 C 67 67 51 90 40 118 C 28 146 23 177 23 213 C 23 282 44 338 87 381 C 129 424 184 446 251 446 C 320 446 374 422 412 374 C 450 326 469 261 469 178 L 172 178 C 172 155 180 136 196 122 C 212 107 235 100 266 100 C 294 100 317 104 335 112 C 353 120 368 130 380 141 L 449 64 C 430 44 406 26 377 12 C 348 -2 307 -10 253 -10 Z M 173 271 L 322 271 C 320 290 313 306 301 320 C 289 333 272 340 250 340 C 227 340 209 333 196 321 C 182 308 175 291 173 271 Z M 247 495 L 247 495 Z M 409 495 L 279 495 L 279 659 L 409 659 L 409 495 Z M 215 495 L 85 495 L 85 659 L 215 659 L 215 495 Z" unicode="ë" />
<glyph horiz-adv-x="247" d="M 0 0 L 0 0 Z M 202 0 L 46 0 L 46 436 L 202 436 L 202 0 Z M 123 495 L 123 495 Z M 266 495 L 110 495 L -19 659 L 165 659 L 266 495 Z" unicode="ì" />
<glyph horiz-adv-x="247" d="M 0 0 L 0 0 Z M 202 0 L 46 0 L 46 436 L 202 436 L 202 0 Z M 123 495 L 123 495 Z M -18 495 L 81 659 L 265 659 L 137 495 L -18 495 Z" unicode="í" />
<glyph horiz-adv-x="247" d="M 0 0 L 0 0 Z M 202 0 L 46 0 L 46 436 L 202 436 L 202 0 Z M 123 495 L 123 495 Z M 314 495 L 177 495 L 122 571 L 68 495 L -68 495 L 48 670 L 199 670 L 314 495 Z" unicode="î" />
<glyph horiz-adv-x="247" d="M 0 0 L 0 0 Z M 202 0 L 46 0 L 46 436 L 202 436 L 202 0 Z M 123 495 L 123 495 Z M 285 495 L 155 495 L 155 659 L 285 659 L 285 495 Z M 91 495 L -39 495 L -39 659 L 91 659 L 91 495 Z" unicode="ï" />
<glyph horiz-adv-x="528" d="M 501 265 C 501 226 495 190 485 156 C 475 122 459 93 439 69 C 419 44 393 24 363 10 C 333 -3 298 -11 258 -11 C 224 -11 192 -5 163 4 C 134 14 109 29 89 49 C 68 69 52 93 40 122 C 28 151 23 184 23 221 C 23 256 29 288 43 316 C 56 344 73 367 94 386 C 114 405 138 420 164 430 C 190 440 217 445 243 445 C 267 445 289 441 308 434 C 326 426 341 418 353 409 C 349 435 341 463 328 492 C 314 520 299 548 282 575 L 174 544 L 146 625 L 229 648 C 217 663 205 677 194 689 C 182 701 172 711 164 719 L 293 766 C 303 756 315 744 327 731 C 339 717 351 702 364 686 L 437 706 L 465 626 L 412 611 C 436 567 457 516 475 458 C 492 400 501 335 501 265 Z M 259 103 C 287 103 308 112 322 131 C 335 150 342 179 342 218 C 342 260 335 289 321 306 C 307 323 288 332 262 332 C 236 332 216 322 202 302 C 188 282 181 255 181 219 C 181 181 188 152 202 132 C 216 112 235 103 259 103 Z" unicode="ð" />
<glyph horiz-adv-x="513" d="M 41 0 L 41 0 Z M 476 0 L 320 0 L 320 268 C 320 284 315 296 305 306 C 295 316 280 321 262 321 C 243 321 227 315 215 305 C 203 294 197 278 197 256 L 197 0 L 41 0 L 41 436 L 187 436 L 187 378 C 197 398 215 415 239 427 C 263 439 291 446 321 446 C 369 446 406 433 434 407 C 462 381 476 346 476 301 L 476 0 Z M 257 497 L 257 497 Z M 322 656 L 442 656 C 442 602 433 562 415 536 C 397 510 375 497 349 497 C 328 497 311 500 297 506 C 283 512 272 517 264 522 C 255 526 247 531 239 535 C 231 539 224 542 217 542 C 209 542 203 538 199 530 C 195 522 192 512 192 500 L 75 500 C 75 553 85 593 107 619 C 128 645 151 659 175 659 C 195 659 211 656 224 650 C 236 644 247 639 256 634 C 263 629 270 625 276 621 C 282 617 289 616 295 616 C 301 616 307 619 313 626 C 319 632 322 642 322 656 Z" unicode="ñ" />
<glyph horiz-adv-x="517" d="M 22 0 L 22 0 Z M 255 -10 C 225 -10 197 -5 169 4 C 141 14 116 28 94 47 C 72 66 55 90 42 118 C 28 146 22 179 22 216 C 22 249 28 280 40 308 C 52 336 69 361 91 381 C 112 401 137 417 165 429 C 193 440 222 446 253 446 C 285 446 316 441 346 431 C 375 421 401 407 423 389 C 445 370 462 347 475 320 C 488 293 495 263 495 229 C 495 193 488 160 476 130 C 464 100 447 75 425 55 C 403 34 378 18 349 7 C 319 -4 288 -10 255 -10 Z M 257 104 C 281 104 299 113 312 131 C 325 149 332 180 332 224 C 332 262 325 289 312 306 C 299 322 280 331 255 331 C 233 331 216 322 204 306 C 191 289 185 260 185 218 C 185 174 191 144 204 128 C 216 112 234 104 257 104 Z M 255 495 L 255 495 Z M 398 495 L 242 495 L 113 659 L 297 659 L 398 495 Z" unicode="ò" />
<glyph horiz-adv-x="517" d="M 22 0 L 22 0 Z M 255 -10 C 225 -10 197 -5 169 4 C 141 14 116 28 94 47 C 72 66 55 90 42 118 C 28 146 22 179 22 216 C 22 249 28 280 40 308 C 52 336 69 361 91 381 C 112 401 137 417 165 429 C 193 440 222 446 253 446 C 285 446 316 441 346 431 C 375 421 401 407 423 389 C 445 370 462 347 475 320 C 488 293 495 263 495 229 C 495 193 488 160 476 130 C 464 100 447 75 425 55 C 403 34 378 18 349 7 C 319 -4 288 -10 255 -10 Z M 257 104 C 281 104 299 113 312 131 C 325 149 332 180 332 224 C 332 262 325 289 312 306 C 299 322 280 331 255 331 C 233 331 216 322 204 306 C 191 289 185 260 185 218 C 185 174 191 144 204 128 C 216 112 234 104 257 104 Z M 255 495 L 255 495 Z M 114 495 L 213 659 L 397 659 L 269 495 L 114 495 Z" unicode="ó" />
<glyph horiz-adv-x="517" d="M 22 0 L 22 0 Z M 255 -10 C 225 -10 197 -5 169 4 C 141 14 116 28 94 47 C 72 66 55 90 42 118 C 28 146 22 179 22 216 C 22 249 28 280 40 308 C 52 336 69 361 91 381 C 112 401 137 417 165 429 C 193 440 222 446 253 446 C 285 446 316 441 346 431 C 375 421 401 407 423 389 C 445 370 462 347 475 320 C 488 293 495 263 495 229 C 495 193 488 160 476 130 C 464 100 447 75 425 55 C 403 34 378 18 349 7 C 319 -4 288 -10 255 -10 Z M 257 104 C 281 104 299 113 312 131 C 325 149 332 180 332 224 C 332 262 325 289 312 306 C 299 322 280 331 255 331 C 233 331 216 322 204 306 C 191 289 185 260 185 218 C 185 174 191 144 204 128 C 216 112 234 104 257 104 Z M 255 495 L 255 495 Z M 446 495 L 309 495 L 254 571 L 200 495 L 64 495 L 180 670 L 331 670 L 446 495 Z" unicode="ô" />
<glyph horiz-adv-x="517" d="M 22 0 L 22 0 Z M 255 -10 C 225 -10 197 -5 169 4 C 141 14 116 28 94 47 C 72 66 55 90 42 118 C 28 146 22 179 22 216 C 22 249 28 280 40 308 C 52 336 69 361 91 381 C 112 401 137 417 165 429 C 193 440 222 446 253 446 C 285 446 316 441 346 431 C 375 421 401 407 423 389 C 445 370 462 347 475 320 C 488 293 495 263 495 229 C 495 193 488 160 476 130 C 464 100 447 75 425 55 C 403 34 378 18 349 7 C 319 -4 288 -10 255 -10 Z M 257 104 C 281 104 299 113 312 131 C 325 149 332 180 332 224 C 332 262 325 289 312 306 C 299 322 280 331 255 331 C 233 331 216 322 204 306 C 191 289 185 260 185 218 C 185 174 191 144 204 128 C 216 112 234 104 257 104 Z M 255 497 L 255 497 Z M 320 656 L 440 656 C 440 602 431 562 413 536 C 395 510 373 497 347 497 C 326 497 309 500 295 506 C 281 512 270 517 262 522 C 253 526 245 531 237 535 C 229 539 222 542 215 542 C 207 542 201 538 197 530 C 193 522 190 512 190 500 L 73 500 C 73 553 83 593 105 619 C 126 645 149 659 173 659 C 193 659 209 656 222 650 C 234 644 245 639 254 634 C 261 629 268 625 274 621 C 280 617 287 616 293 616 C 299 616 305 619 311 626 C 317 632 320 642 320 656 Z" unicode="õ" />
<glyph horiz-adv-x="517" d="M 22 0 L 22 0 Z M 255 -10 C 225 -10 197 -5 169 4 C 141 14 116 28 94 47 C 72 66 55 90 42 118 C 28 146 22 179 22 216 C 22 249 28 280 40 308 C 52 336 69 361 91 381 C 112 401 137 417 165 429 C 193 440 222 446 253 446 C 285 446 316 441 346 431 C 375 421 401 407 423 389 C 445 370 462 347 475 320 C 488 293 495 263 495 229 C 495 193 488 160 476 130 C 464 100 447 75 425 55 C 403 34 378 18 349 7 C 319 -4 288 -10 255 -10 Z M 257 104 C 281 104 299 113 312 131 C 325 149 332 180 332 224 C 332 262 325 289 312 306 C 299 322 280 331 255 331 C 233 331 216 322 204 306 C 191 289 185 260 185 218 C 185 174 191 144 204 128 C 216 112 234 104 257 104 Z M 255 495 L 255 495 Z M 417 495 L 287 495 L 287 659 L 417 659 L 417 495 Z M 223 495 L 93 495 L 93 659 L 223 659 L 223 495 Z" unicode="ö" />
<glyph horiz-adv-x="500" d="M 177 449 L 177 585 L 323 585 L 323 449 L 177 449 Z M 19 264 L 19 397 L 481 397 L 481 264 L 19 264 Z M 177 74 L 177 210 L 323 210 L 323 74 L 177 74 Z" unicode="÷" />
<glyph horiz-adv-x="517" d="M 255 -10 C 230 -10 206 -6 182 0 C 158 7 136 17 116 31 L 75 -12 L 36 27 L 75 67 C 58 85 45 107 36 132 C 26 157 22 185 22 216 C 22 249 28 280 40 308 C 52 336 69 361 91 381 C 112 401 137 417 165 429 C 193 440 222 446 253 446 C 279 446 305 442 330 435 C 355 428 378 418 399 406 L 443 452 L 481 413 L 441 371 C 457 353 470 332 480 308 C 490 284 495 257 495 229 C 495 193 488 160 476 130 C 464 100 447 75 425 55 C 403 34 378 18 349 7 C 319 -4 288 -10 255 -10 Z M 185 218 C 185 212 185 206 185 200 C 185 194 186 188 187 184 L 308 311 C 301 317 293 322 285 326 C 276 329 266 331 255 331 C 233 331 216 322 204 306 C 191 289 185 260 185 218 Z M 332 224 C 332 229 331 234 331 240 C 331 245 330 250 330 255 L 206 125 C 212 117 219 112 228 109 C 236 105 246 104 257 104 C 281 104 299 113 312 131 C 325 149 332 180 332 224 Z" unicode="ø" />
<glyph horiz-adv-x="513" d="M 37 0 L 37 0 Z M 37 436 L 193 436 L 193 165 C 193 147 198 133 209 125 C 219 117 233 113 251 113 C 271 113 286 118 298 129 C 310 139 316 155 316 176 L 316 436 L 471 436 L 471 0 L 324 0 L 324 56 C 309 35 290 19 266 9 C 242 -1 216 -7 188 -7 C 147 -7 112 5 82 30 C 52 54 37 92 37 142 L 37 436 Z M 256 495 L 256 495 Z M 399 495 L 243 495 L 114 659 L 298 659 L 399 495 Z" unicode="ù" />
<glyph horiz-adv-x="513" d="M 37 0 L 37 0 Z M 37 436 L 193 436 L 193 165 C 193 147 198 133 209 125 C 219 117 233 113 251 113 C 271 113 286 118 298 129 C 310 139 316 155 316 176 L 316 436 L 471 436 L 471 0 L 324 0 L 324 56 C 309 35 290 19 266 9 C 242 -1 216 -7 188 -7 C 147 -7 112 5 82 30 C 52 54 37 92 37 142 L 37 436 Z M 256 495 L 256 495 Z M 115 495 L 214 659 L 398 659 L 270 495 L 115 495 Z" unicode="ú" />
<glyph horiz-adv-x="513" d="M 37 0 L 37 0 Z M 37 436 L 193 436 L 193 165 C 193 147 198 133 209 125 C 219 117 233 113 251 113 C 271 113 286 118 298 129 C 310 139 316 155 316 176 L 316 436 L 471 436 L 471 0 L 324 0 L 324 56 C 309 35 290 19 266 9 C 242 -1 216 -7 188 -7 C 147 -7 112 5 82 30 C 52 54 37 92 37 142 L 37 436 Z M 256 495 L 256 495 Z M 447 495 L 310 495 L 255 571 L 201 495 L 65 495 L 181 670 L 332 670 L 447 495 Z" unicode="û" />
<glyph horiz-adv-x="513" d="M 37 0 L 37 0 Z M 37 436 L 193 436 L 193 165 C 193 147 198 133 209 125 C 219 117 233 113 251 113 C 271 113 286 118 298 129 C 310 139 316 155 316 176 L 316 436 L 471 436 L 471 0 L 324 0 L 324 56 C 309 35 290 19 266 9 C 242 -1 216 -7 188 -7 C 147 -7 112 5 82 30 C 52 54 37 92 37 142 L 37 436 Z M 256 495 L 256 495 Z M 418 495 L 288 495 L 288 659 L 418 659 L 418 495 Z M 224 495 L 94 495 L 94 659 L 224 659 L 224 495 Z" unicode="ü" />
<glyph horiz-adv-x="477" d="M 0 0 L 0 0 Z M 486 436 L 248 -90 C 227 -134 200 -163 168 -178 C 136 -192 104 -200 74 -200 C 56 -200 40 -198 27 -194 C 13 -190 3 -187 -3 -185 L 35 -66 C 37 -67 43 -69 51 -71 C 59 -73 67 -75 75 -75 C 90 -75 102 -70 111 -62 C 119 -54 128 -40 136 -22 L 168 51 L -6 436 L 160 436 L 247 215 L 337 436 L 486 436 Z M 244 495 L 244 495 Z M 103 495 L 202 659 L 386 659 L 258 495 L 103 495 Z" unicode="ý" />
<glyph horiz-adv-x="517" d="M 41 -200 L 41 741 L 188 741 L 188 381 C 194 395 210 410 234 424 C 258 438 286 445 320 445 C 370 445 412 425 445 386 C 478 346 495 297 495 237 C 495 199 489 166 479 136 C 469 106 455 80 438 60 C 420 39 400 23 378 12 C 356 1 333 -4 310 -4 C 283 -4 259 0 237 9 C 215 17 200 28 192 41 L 192 -200 L 41 -200 Z M 262 100 C 284 100 301 109 314 127 C 326 145 333 173 333 213 C 333 250 327 279 315 300 C 303 320 285 331 261 331 C 240 331 223 322 210 305 C 196 288 190 256 190 210 C 190 166 196 136 210 122 C 224 107 241 100 262 100 Z" unicode="þ" />
<glyph horiz-adv-x="477" d="M 0 0 L 0 0 Z M 486 436 L 248 -90 C 227 -134 200 -163 168 -178 C 136 -192 104 -200 74 -200 C 56 -200 40 -198 27 -194 C 13 -190 3 -187 -3 -185 L 35 -66 C 37 -67 43 -69 51 -71 C 59 -73 67 -75 75 -75 C 90 -75 102 -70 111 -62 C 119 -54 128 -40 136 -22 L 168 51 L -6 436 L 160 436 L 247 215 L 337 436 L 486 436 Z M 244 495 L 244 495 Z M 406 495 L 276 495 L 276 659 L 406 659 L 406 495 Z M 212 495 L 82 495 L 82 659 L 212 659 L 212 495 Z" unicode="ÿ" />
<glyph horiz-adv-x="627" d="M 0 0 L 0 0 Z M 632 0 L 458 0 L 416 122 L 201 122 L 160 0 L -5 0 L 265 732 L 370 732 L 632 0 Z M 383 247 L 308 466 L 235 247 L 383 247 Z M 315 799 L 315 799 Z M 460 799 L 170 799 L 170 914 L 460 914 L 460 799 Z" unicode="Ā" />
<glyph horiz-adv-x="471" d="M 13 0 L 13 0 Z M 431 0 L 291 0 L 291 43 C 277 27 259 14 238 4 C 217 -5 192 -10 162 -10 C 111 -10 73 4 49 33 C 25 61 13 95 13 134 C 13 182 31 218 69 243 C 106 268 158 281 224 283 L 284 285 L 284 291 C 284 304 279 315 270 325 C 260 334 243 339 219 339 C 193 339 168 335 146 328 C 123 320 105 313 93 305 L 48 393 C 66 407 91 419 123 431 C 155 442 196 448 245 448 C 271 448 295 445 318 439 C 340 433 360 423 377 411 C 393 399 406 383 416 364 C 426 344 431 321 431 295 L 431 0 Z M 287 128 L 287 192 L 241 190 C 217 189 198 185 184 178 C 170 170 163 158 163 142 C 163 128 167 117 177 110 C 186 103 197 100 211 100 C 229 100 244 103 257 109 C 270 115 280 121 287 128 Z M 233 505 L 233 505 Z M 378 505 L 88 505 L 88 620 L 378 620 L 378 505 Z" unicode="ā" />
<glyph horiz-adv-x="627" d="M 0 0 L 0 0 Z M 632 0 L 458 0 L 416 122 L 201 122 L 160 0 L -5 0 L 265 732 L 370 732 L 632 0 Z M 383 247 L 308 466 L 235 247 L 383 247 Z M 315 788 L 315 788 Z M 361 951 L 490 951 C 485 895 467 853 435 827 C 403 801 363 788 315 788 C 267 788 227 801 195 827 C 163 853 144 895 140 951 L 270 951 C 270 926 274 907 281 894 C 288 881 299 875 315 875 C 330 875 341 881 349 893 C 356 905 360 924 361 951 Z" unicode="Ă" />
<glyph horiz-adv-x="471" d="M 13 0 L 13 0 Z M 431 0 L 291 0 L 291 43 C 277 27 259 14 238 4 C 217 -5 192 -10 162 -10 C 111 -10 73 4 49 33 C 25 61 13 95 13 134 C 13 182 31 218 69 243 C 106 268 158 281 224 283 L 284 285 L 284 291 C 284 304 279 315 270 325 C 260 334 243 339 219 339 C 193 339 168 335 146 328 C 123 320 105 313 93 305 L 48 393 C 66 407 91 419 123 431 C 155 442 196 448 245 448 C 271 448 295 445 318 439 C 340 433 360 423 377 411 C 393 399 406 383 416 364 C 426 344 431 321 431 295 L 431 0 Z M 287 128 L 287 192 L 241 190 C 217 189 198 185 184 178 C 170 170 163 158 163 142 C 163 128 167 117 177 110 C 186 103 197 100 211 100 C 229 100 244 103 257 109 C 270 115 280 121 287 128 Z M 233 494 L 233 494 Z M 279 657 L 408 657 C 403 601 385 559 353 533 C 321 507 281 494 233 494 C 185 494 145 507 113 533 C 81 559 62 601 58 657 L 188 657 C 188 632 192 613 199 600 C 206 587 217 581 233 581 C 248 581 259 587 267 599 C 274 611 278 630 279 657 Z" unicode="ă" />
<glyph horiz-adv-x="627" d="M 0 0 L 0 0 Z M 632 0 L 458 0 L 416 122 L 201 122 L 160 0 L -5 0 L 265 732 L 370 732 L 632 0 Z M 383 247 L 308 466 L 235 247 L 383 247 Z M 477 -4 L 477 -4 Z M 574 -63 L 614 -128 C 591 -152 567 -170 542 -182 C 516 -194 487 -200 455 -200 C 418 -200 390 -192 370 -177 C 350 -162 340 -143 340 -120 C 340 -94 351 -70 375 -48 C 399 -26 432 -7 474 9 L 536 9 C 516 0 501 -10 489 -22 C 477 -34 472 -45 472 -56 C 472 -66 475 -73 482 -78 C 489 -83 498 -86 509 -86 C 523 -86 535 -83 546 -79 C 556 -75 566 -69 574 -63 Z" unicode="Ą" />
<glyph horiz-adv-x="471" d="M 13 0 L 13 0 Z M 431 0 L 291 0 L 291 43 C 277 27 259 14 238 4 C 217 -5 192 -10 162 -10 C 111 -10 73 4 49 33 C 25 61 13 95 13 134 C 13 182 31 218 69 243 C 106 268 158 281 224 283 L 284 285 L 284 291 C 284 304 279 315 270 325 C 260 334 243 339 219 339 C 193 339 168 335 146 328 C 123 320 105 313 93 305 L 48 393 C 66 407 91 419 123 431 C 155 442 196 448 245 448 C 271 448 295 445 318 439 C 340 433 360 423 377 411 C 393 399 406 383 416 364 C 426 344 431 321 431 295 L 431 0 Z M 287 128 L 287 192 L 241 190 C 217 189 198 185 184 178 C 170 170 163 158 163 142 C 163 128 167 117 177 110 C 186 103 197 100 211 100 C 229 100 244 103 257 109 C 270 115 280 121 287 128 Z M 314 -4 L 314 -4 Z M 411 -63 L 451 -128 C 428 -152 404 -170 379 -182 C 353 -194 324 -200 292 -200 C 255 -200 227 -192 207 -177 C 187 -162 177 -143 177 -120 C 177 -94 188 -70 212 -48 C 236 -26 269 -7 311 9 L 373 9 C 353 0 338 -10 326 -22 C 314 -34 309 -45 309 -56 C 309 -66 312 -73 319 -78 C 326 -83 335 -86 346 -86 C 360 -86 372 -83 383 -79 C 393 -75 403 -69 411 -63 Z" unicode="ą" />
<glyph horiz-adv-x="629" d="M 35 0 L 35 0 Z M 358 -10 C 311 -10 268 -1 228 15 C 188 31 154 55 126 87 C 97 119 75 158 59 205 C 43 251 35 305 35 365 C 35 419 43 470 59 516 C 75 562 97 601 126 634 C 154 667 189 693 229 712 C 269 730 313 740 361 740 C 427 740 481 728 521 706 C 561 683 593 653 619 617 L 510 528 C 497 546 478 562 454 577 C 430 592 401 600 367 600 C 313 600 273 579 246 538 C 219 496 206 438 206 363 C 206 319 210 282 220 252 C 229 222 241 197 256 179 C 271 161 289 148 309 140 C 329 132 351 129 373 129 C 409 129 439 136 463 151 C 486 165 506 184 523 208 L 627 129 C 599 86 563 52 518 27 C 473 2 420 -10 358 -10 Z M 360 789 L 360 789 Z M 219 789 L 318 953 L 502 953 L 374 789 L 219 789 Z" unicode="Ć" />
<glyph horiz-adv-x="449" d="M 22 0 L 22 0 Z M 345 159 L 446 93 C 429 64 405 40 375 20 C 344 0 302 -10 248 -10 C 178 -10 123 11 83 54 C 42 96 22 151 22 219 C 22 252 27 282 39 310 C 50 338 66 362 87 382 C 107 402 132 417 160 429 C 188 440 220 446 254 446 C 305 446 346 436 377 416 C 408 396 431 373 446 347 L 339 276 C 331 291 321 303 309 312 C 297 320 283 325 265 325 C 241 325 222 315 208 297 C 194 278 187 251 187 217 C 187 179 194 151 210 134 C 226 116 246 108 270 108 C 288 108 304 113 316 124 C 328 134 338 146 345 159 Z M 242 495 L 242 495 Z M 101 495 L 200 659 L 384 659 L 256 495 L 101 495 Z" unicode="ć" />
<glyph horiz-adv-x="629" d="M 35 0 L 35 0 Z M 358 -10 C 311 -10 268 -1 228 15 C 188 31 154 55 126 87 C 97 119 75 158 59 205 C 43 251 35 305 35 365 C 35 419 43 470 59 516 C 75 562 97 601 126 634 C 154 667 189 693 229 712 C 269 730 313 740 361 740 C 427 740 481 728 521 706 C 561 683 593 653 619 617 L 510 528 C 497 546 478 562 454 577 C 430 592 401 600 367 600 C 313 600 273 579 246 538 C 219 496 206 438 206 363 C 206 319 210 282 220 252 C 229 222 241 197 256 179 C 271 161 289 148 309 140 C 329 132 351 129 373 129 C 409 129 439 136 463 151 C 486 165 506 184 523 208 L 627 129 C 599 86 563 52 518 27 C 473 2 420 -10 358 -10 Z M 360 789 L 360 789 Z M 551 789 L 414 789 L 359 865 L 305 789 L 169 789 L 285 964 L 436 964 L 551 789 Z" unicode="Ĉ" />
<glyph horiz-adv-x="449" d="M 22 0 L 22 0 Z M 345 159 L 446 93 C 429 64 405 40 375 20 C 344 0 302 -10 248 -10 C 178 -10 123 11 83 54 C 42 96 22 151 22 219 C 22 252 27 282 39 310 C 50 338 66 362 87 382 C 107 402 132 417 160 429 C 188 440 220 446 254 446 C 305 446 346 436 377 416 C 408 396 431 373 446 347 L 339 276 C 331 291 321 303 309 312 C 297 320 283 325 265 325 C 241 325 222 315 208 297 C 194 278 187 251 187 217 C 187 179 194 151 210 134 C 226 116 246 108 270 108 C 288 108 304 113 316 124 C 328 134 338 146 345 159 Z M 242 495 L 242 495 Z M 433 495 L 296 495 L 241 571 L 187 495 L 51 495 L 167 670 L 318 670 L 433 495 Z" unicode="ĉ" />
<glyph horiz-adv-x="629" d="M 35 0 L 35 0 Z M 358 -10 C 311 -10 268 -1 228 15 C 188 31 154 55 126 87 C 97 119 75 158 59 205 C 43 251 35 305 35 365 C 35 419 43 470 59 516 C 75 562 97 601 126 634 C 154 667 189 693 229 712 C 269 730 313 740 361 740 C 427 740 481 728 521 706 C 561 683 593 653 619 617 L 510 528 C 497 546 478 562 454 577 C 430 592 401 600 367 600 C 313 600 273 579 246 538 C 219 496 206 438 206 363 C 206 319 210 282 220 252 C 229 222 241 197 256 179 C 271 161 289 148 309 140 C 329 132 351 129 373 129 C 409 129 439 136 463 151 C 486 165 506 184 523 208 L 627 129 C 599 86 563 52 518 27 C 473 2 420 -10 358 -10 Z M 360 793 L 360 793 Z M 431 793 L 290 793 L 290 952 L 431 952 L 431 793 Z" unicode="Ċ" />
<glyph horiz-adv-x="449" d="M 22 0 L 22 0 Z M 345 159 L 446 93 C 429 64 405 40 375 20 C 344 0 302 -10 248 -10 C 178 -10 123 11 83 54 C 42 96 22 151 22 219 C 22 252 27 282 39 310 C 50 338 66 362 87 382 C 107 402 132 417 160 429 C 188 440 220 446 254 446 C 305 446 346 436 377 416 C 408 396 431 373 446 347 L 339 276 C 331 291 321 303 309 312 C 297 320 283 325 265 325 C 241 325 222 315 208 297 C 194 278 187 251 187 217 C 187 179 194 151 210 134 C 226 116 246 108 270 108 C 288 108 304 113 316 124 C 328 134 338 146 345 159 Z M 242 499 L 242 499 Z M 313 499 L 172 499 L 172 658 L 313 658 L 313 499 Z" unicode="ċ" />
<glyph horiz-adv-x="629" d="M 35 0 L 35 0 Z M 358 -10 C 311 -10 268 -1 228 15 C 188 31 154 55 126 87 C 97 119 75 158 59 205 C 43 251 35 305 35 365 C 35 419 43 470 59 516 C 75 562 97 601 126 634 C 154 667 189 693 229 712 C 269 730 313 740 361 740 C 427 740 481 728 521 706 C 561 683 593 653 619 617 L 510 528 C 497 546 478 562 454 577 C 430 592 401 600 367 600 C 313 600 273 579 246 538 C 219 496 206 438 206 363 C 206 319 210 282 220 252 C 229 222 241 197 256 179 C 271 161 289 148 309 140 C 329 132 351 129 373 129 C 409 129 439 136 463 151 C 486 165 506 184 523 208 L 627 129 C 599 86 563 52 518 27 C 473 2 420 -10 358 -10 Z M 360 789 L 360 789 Z M 169 964 L 307 964 L 361 888 L 416 964 L 551 964 L 436 789 L 285 789 L 169 964 Z" unicode="Č" />
<glyph horiz-adv-x="449" d="M 22 0 L 22 0 Z M 345 159 L 446 93 C 429 64 405 40 375 20 C 344 0 302 -10 248 -10 C 178 -10 123 11 83 54 C 42 96 22 151 22 219 C 22 252 27 282 39 310 C 50 338 66 362 87 382 C 107 402 132 417 160 429 C 188 440 220 446 254 446 C 305 446 346 436 377 416 C 408 396 431 373 446 347 L 339 276 C 331 291 321 303 309 312 C 297 320 283 325 265 325 C 241 325 222 315 208 297 C 194 278 187 251 187 217 C 187 179 194 151 210 134 C 226 116 246 108 270 108 C 288 108 304 113 316 124 C 328 134 338 146 345 159 Z M 242 495 L 242 495 Z M 51 670 L 189 670 L 243 594 L 298 670 L 433 670 L 318 495 L 167 495 L 51 670 Z" unicode="č" />
<glyph horiz-adv-x="693" d="M 67 0 L 67 0 Z M 67 0 L 67 730 L 310 730 C 366 730 417 721 461 703 C 505 685 541 661 570 629 C 599 597 621 559 636 515 C 651 470 659 421 659 368 C 659 316 651 268 635 223 C 619 178 596 139 566 106 C 536 73 498 47 452 28 C 406 9 354 0 294 0 L 67 0 Z M 237 136 L 298 136 C 331 136 359 141 383 153 C 406 165 425 181 440 201 C 454 221 465 246 472 274 C 479 302 483 332 483 365 C 483 438 468 494 438 534 C 408 573 364 593 308 593 L 237 593 L 237 136 Z M 322 789 L 322 789 Z M 131 964 L 269 964 L 323 888 L 378 964 L 513 964 L 398 789 L 247 789 L 131 964 Z" unicode="Ď" />
<glyph horiz-adv-x="541" d="M 22 0 L 22 0 Z M 214 -5 C 186 -5 161 0 137 11 C 113 22 93 37 76 56 C 59 75 46 98 36 124 C 26 150 22 179 22 210 C 22 245 27 277 37 306 C 47 335 62 360 80 380 C 98 400 119 416 143 428 C 167 439 192 445 220 445 C 244 445 266 440 286 431 C 305 421 319 411 328 399 L 328 741 L 475 741 L 475 0 L 334 0 L 334 48 C 326 36 313 25 293 13 C 273 1 247 -5 214 -5 Z M 259 103 C 281 103 298 112 310 132 C 322 152 329 181 329 219 C 329 259 322 287 309 303 C 295 319 277 328 255 328 C 232 328 214 318 202 299 C 190 280 184 253 184 217 C 184 181 190 153 203 133 C 215 113 234 103 259 103 Z M 664 619 L 658 460 L 524 460 L 518 619 L 518 730 L 664 730 L 664 619 Z" unicode="ď" />
<glyph horiz-adv-x="693" d="M 25 0 L 25 0 Z M 659 364 C 659 313 651 265 635 221 C 619 177 596 138 566 106 C 536 73 498 47 452 28 C 406 9 354 0 294 0 L 67 0 L 67 295 L 25 295 L 25 419 L 67 419 L 67 730 L 310 730 C 367 730 418 721 462 703 C 506 685 542 661 571 629 C 600 597 622 558 637 513 C 651 467 659 418 659 364 Z M 233 134 L 299 134 C 332 134 361 140 385 152 C 409 164 428 180 443 200 C 457 220 468 245 475 273 C 481 301 485 330 485 362 C 485 437 470 495 440 535 C 410 575 367 595 311 595 L 233 595 L 233 419 L 347 419 L 347 295 L 233 295 L 233 134 Z" unicode="Đ" />
<glyph horiz-adv-x="516" d="M 334 48 C 326 36 313 25 293 13 C 273 1 247 -5 214 -5 C 186 -5 161 0 137 11 C 113 22 93 37 76 56 C 59 75 46 98 36 124 C 26 150 22 179 22 210 C 22 245 27 277 37 306 C 47 335 62 360 80 380 C 98 400 119 416 143 428 C 167 439 192 445 220 445 C 244 445 266 440 286 431 C 305 421 319 411 328 399 L 328 538 L 215 538 L 215 641 L 328 641 L 328 741 L 475 741 L 475 641 L 508 641 L 508 538 L 475 538 L 475 0 L 334 0 L 334 48 Z M 259 103 C 281 103 298 112 310 132 C 322 152 329 181 329 219 C 329 259 322 287 309 303 C 295 319 277 328 255 328 C 232 328 214 318 202 299 C 190 280 184 253 184 217 C 184 181 190 153 203 133 C 215 113 234 103 259 103 Z" unicode="đ" />
<glyph horiz-adv-x="544" d="M 67 0 L 67 0 Z M 515 0 L 67 0 L 67 730 L 496 730 L 496 588 L 233 588 L 233 429 L 477 429 L 477 291 L 233 291 L 233 142 L 515 142 L 515 0 Z M 284 799 L 284 799 Z M 429 799 L 139 799 L 139 914 L 429 914 L 429 799 Z" unicode="Ē" />
<glyph horiz-adv-x="480" d="M 23 0 L 23 0 Z M 253 -10 C 219 -10 188 -5 160 5 C 132 15 107 29 87 48 C 67 67 51 90 40 118 C 28 146 23 177 23 213 C 23 282 44 338 87 381 C 129 424 184 446 251 446 C 320 446 374 422 412 374 C 450 326 469 261 469 178 L 172 178 C 172 155 180 136 196 122 C 212 107 235 100 266 100 C 294 100 317 104 335 112 C 353 120 368 130 380 141 L 449 64 C 430 44 406 26 377 12 C 348 -2 307 -10 253 -10 Z M 173 271 L 322 271 C 320 290 313 306 301 320 C 289 333 272 340 250 340 C 227 340 209 333 196 321 C 182 308 175 291 173 271 Z M 247 505 L 247 505 Z M 392 505 L 102 505 L 102 620 L 392 620 L 392 505 Z" unicode="ē" />
<glyph horiz-adv-x="544" d="M 67 0 L 67 0 Z M 515 0 L 67 0 L 67 730 L 496 730 L 496 588 L 233 588 L 233 429 L 477 429 L 477 291 L 233 291 L 233 142 L 515 142 L 515 0 Z M 284 788 L 284 788 Z M 330 951 L 459 951 C 454 895 436 853 404 827 C 372 801 332 788 284 788 C 236 788 196 801 164 827 C 132 853 113 895 109 951 L 239 951 C 239 926 243 907 250 894 C 257 881 268 875 284 875 C 299 875 310 881 318 893 C 325 905 329 924 330 951 Z" unicode="Ĕ" />
<glyph horiz-adv-x="480" d="M 23 0 L 23 0 Z M 253 -10 C 219 -10 188 -5 160 5 C 132 15 107 29 87 48 C 67 67 51 90 40 118 C 28 146 23 177 23 213 C 23 282 44 338 87 381 C 129 424 184 446 251 446 C 320 446 374 422 412 374 C 450 326 469 261 469 178 L 172 178 C 172 155 180 136 196 122 C 212 107 235 100 266 100 C 294 100 317 104 335 112 C 353 120 368 130 380 141 L 449 64 C 430 44 406 26 377 12 C 348 -2 307 -10 253 -10 Z M 173 271 L 322 271 C 320 290 313 306 301 320 C 289 333 272 340 250 340 C 227 340 209 333 196 321 C 182 308 175 291 173 271 Z M 247 494 L 247 494 Z M 293 657 L 422 657 C 417 601 399 559 367 533 C 335 507 295 494 247 494 C 199 494 159 507 127 533 C 95 559 76 601 72 657 L 202 657 C 202 632 206 613 213 600 C 220 587 231 581 247 581 C 262 581 273 587 281 599 C 288 611 292 630 293 657 Z" unicode="ĕ" />
<glyph horiz-adv-x="544" d="M 67 0 L 67 0 Z M 515 0 L 67 0 L 67 730 L 496 730 L 496 588 L 233 588 L 233 429 L 477 429 L 477 291 L 233 291 L 233 142 L 515 142 L 515 0 Z M 284 793 L 284 793 Z M 355 793 L 214 793 L 214 952 L 355 952 L 355 793 Z" unicode="Ė" />
<glyph horiz-adv-x="480" d="M 23 0 L 23 0 Z M 253 -10 C 219 -10 188 -5 160 5 C 132 15 107 29 87 48 C 67 67 51 90 40 118 C 28 146 23 177 23 213 C 23 282 44 338 87 381 C 129 424 184 446 251 446 C 320 446 374 422 412 374 C 450 326 469 261 469 178 L 172 178 C 172 155 180 136 196 122 C 212 107 235 100 266 100 C 294 100 317 104 335 112 C 353 120 368 130 380 141 L 449 64 C 430 44 406 26 377 12 C 348 -2 307 -10 253 -10 Z M 173 271 L 322 271 C 320 290 313 306 301 320 C 289 333 272 340 250 340 C 227 340 209 333 196 321 C 182 308 175 291 173 271 Z M 247 499 L 247 499 Z M 318 499 L 177 499 L 177 658 L 318 658 L 318 499 Z" unicode="ė" />
<glyph horiz-adv-x="544" d="M 67 0 L 67 0 Z M 515 0 L 67 0 L 67 730 L 496 730 L 496 588 L 233 588 L 233 429 L 477 429 L 477 291 L 233 291 L 233 142 L 515 142 L 515 0 Z M 456 -4 L 456 -4 Z M 553 -63 L 593 -128 C 570 -152 546 -170 521 -182 C 495 -194 466 -200 434 -200 C 397 -200 369 -192 349 -177 C 329 -162 319 -143 319 -120 C 319 -94 330 -70 354 -48 C 378 -26 411 -7 453 9 L 515 9 C 495 0 480 -10 468 -22 C 456 -34 451 -45 451 -56 C 451 -66 454 -73 461 -78 C 468 -83 477 -86 488 -86 C 502 -86 514 -83 525 -79 C 535 -75 545 -69 553 -63 Z" unicode="Ę" />
<glyph horiz-adv-x="480" d="M 23 0 L 23 0 Z M 253 -10 C 219 -10 188 -5 160 5 C 132 15 107 29 87 48 C 67 67 51 90 40 118 C 28 146 23 177 23 213 C 23 282 44 338 87 381 C 129 424 184 446 251 446 C 320 446 374 422 412 374 C 450 326 469 261 469 178 L 172 178 C 172 155 180 136 196 122 C 212 107 235 100 266 100 C 294 100 317 104 335 112 C 353 120 368 130 380 141 L 449 64 C 430 44 406 26 377 12 C 348 -2 307 -10 253 -10 Z M 173 271 L 322 271 C 320 290 313 306 301 320 C 289 333 272 340 250 340 C 227 340 209 333 196 321 C 182 308 175 291 173 271 Z M 311 -4 L 311 -4 Z M 408 -63 L 448 -128 C 425 -152 401 -170 376 -182 C 350 -194 321 -200 289 -200 C 252 -200 224 -192 204 -177 C 184 -162 174 -143 174 -120 C 174 -94 185 -70 209 -48 C 233 -26 266 -7 308 9 L 370 9 C 350 0 335 -10 323 -22 C 311 -34 306 -45 306 -56 C 306 -66 309 -73 316 -78 C 323 -83 332 -86 343 -86 C 357 -86 369 -83 380 -79 C 390 -75 400 -69 408 -63 Z" unicode="ę" />
<glyph horiz-adv-x="544" d="M 67 0 L 67 0 Z M 515 0 L 67 0 L 67 730 L 496 730 L 496 588 L 233 588 L 233 429 L 477 429 L 477 291 L 233 291 L 233 142 L 515 142 L 515 0 Z M 284 789 L 284 789 Z M 93 964 L 231 964 L 285 888 L 340 964 L 475 964 L 360 789 L 209 789 L 93 964 Z" unicode="Ě" />
<glyph horiz-adv-x="480" d="M 23 0 L 23 0 Z M 253 -10 C 219 -10 188 -5 160 5 C 132 15 107 29 87 48 C 67 67 51 90 40 118 C 28 146 23 177 23 213 C 23 282 44 338 87 381 C 129 424 184 446 251 446 C 320 446 374 422 412 374 C 450 326 469 261 469 178 L 172 178 C 172 155 180 136 196 122 C 212 107 235 100 266 100 C 294 100 317 104 335 112 C 353 120 368 130 380 141 L 449 64 C 430 44 406 26 377 12 C 348 -2 307 -10 253 -10 Z M 173 271 L 322 271 C 320 290 313 306 301 320 C 289 333 272 340 250 340 C 227 340 209 333 196 321 C 182 308 175 291 173 271 Z M 247 495 L 247 495 Z M 56 670 L 194 670 L 248 594 L 303 670 L 438 670 L 323 495 L 172 495 L 56 670 Z" unicode="ě" />
<glyph horiz-adv-x="679" d="M 34 0 L 34 0 Z M 367 391 L 648 391 L 648 136 C 624 93 588 58 542 31 C 495 3 436 -10 364 -10 C 316 -10 271 -1 231 16 C 190 33 155 58 126 90 C 97 122 74 162 58 209 C 42 255 34 307 34 365 C 34 423 42 475 59 521 C 76 567 99 607 129 639 C 159 671 194 696 235 714 C 275 731 319 740 365 740 C 401 740 432 736 459 729 C 486 721 509 712 528 701 C 547 689 563 676 575 662 C 587 647 598 632 606 618 L 493 539 C 483 551 468 565 448 579 C 428 593 401 601 366 601 C 316 601 277 580 249 538 C 220 496 206 438 206 363 C 206 289 220 230 250 186 C 279 142 321 120 377 120 C 407 120 434 126 456 138 C 478 150 495 165 505 183 L 505 256 L 367 256 L 367 391 Z M 363 789 L 363 789 Z M 554 789 L 417 789 L 362 865 L 308 789 L 172 789 L 288 964 L 439 964 L 554 789 Z" unicode="Ĝ" />
<glyph horiz-adv-x="516" d="M 22 0 L 22 0 Z M 213 3 C 159 3 113 22 77 60 C 40 98 22 150 22 217 C 22 287 39 343 75 384 C 110 424 156 445 212 445 C 235 445 258 440 280 430 C 302 420 318 408 328 396 L 328 436 L 475 436 L 475 32 C 475 -5 469 -37 457 -65 C 445 -92 428 -115 407 -133 C 386 -151 361 -164 332 -173 C 303 -182 272 -187 239 -187 C 186 -187 143 -180 110 -168 C 76 -155 52 -143 37 -131 L 92 -30 C 106 -41 125 -51 148 -61 C 170 -70 197 -75 227 -75 C 255 -75 278 -67 296 -53 C 314 -39 323 -18 323 8 L 323 55 C 315 41 301 29 281 19 C 260 8 237 3 213 3 Z M 258 109 C 280 109 298 118 310 138 C 322 158 328 185 328 221 C 328 253 321 280 309 301 C 296 322 278 333 254 333 C 233 333 216 323 203 304 C 189 284 183 256 183 219 C 183 183 189 155 203 137 C 217 118 235 109 258 109 Z M 246 495 L 246 495 Z M 437 495 L 300 495 L 245 571 L 191 495 L 55 495 L 171 670 L 322 670 L 437 495 Z" unicode="ĝ" />
<glyph horiz-adv-x="679" d="M 34 0 L 34 0 Z M 367 391 L 648 391 L 648 136 C 624 93 588 58 542 31 C 495 3 436 -10 364 -10 C 316 -10 271 -1 231 16 C 190 33 155 58 126 90 C 97 122 74 162 58 209 C 42 255 34 307 34 365 C 34 423 42 475 59 521 C 76 567 99 607 129 639 C 159 671 194 696 235 714 C 275 731 319 740 365 740 C 401 740 432 736 459 729 C 486 721 509 712 528 701 C 547 689 563 676 575 662 C 587 647 598 632 606 618 L 493 539 C 483 551 468 565 448 579 C 428 593 401 601 366 601 C 316 601 277 580 249 538 C 220 496 206 438 206 363 C 206 289 220 230 250 186 C 279 142 321 120 377 120 C 407 120 434 126 456 138 C 478 150 495 165 505 183 L 505 256 L 367 256 L 367 391 Z M 363 788 L 363 788 Z M 409 951 L 538 951 C 533 895 515 853 483 827 C 451 801 411 788 363 788 C 315 788 275 801 243 827 C 211 853 192 895 188 951 L 318 951 C 318 926 322 907 329 894 C 336 881 347 875 363 875 C 378 875 389 881 397 893 C 404 905 408 924 409 951 Z" unicode="Ğ" />
<glyph horiz-adv-x="516" d="M 22 0 L 22 0 Z M 213 3 C 159 3 113 22 77 60 C 40 98 22 150 22 217 C 22 287 39 343 75 384 C 110 424 156 445 212 445 C 235 445 258 440 280 430 C 302 420 318 408 328 396 L 328 436 L 475 436 L 475 32 C 475 -5 469 -37 457 -65 C 445 -92 428 -115 407 -133 C 386 -151 361 -164 332 -173 C 303 -182 272 -187 239 -187 C 186 -187 143 -180 110 -168 C 76 -155 52 -143 37 -131 L 92 -30 C 106 -41 125 -51 148 -61 C 170 -70 197 -75 227 -75 C 255 -75 278 -67 296 -53 C 314 -39 323 -18 323 8 L 323 55 C 315 41 301 29 281 19 C 260 8 237 3 213 3 Z M 258 109 C 280 109 298 118 310 138 C 322 158 328 185 328 221 C 328 253 321 280 309 301 C 296 322 278 333 254 333 C 233 333 216 323 203 304 C 189 284 183 256 183 219 C 183 183 189 155 203 137 C 217 118 235 109 258 109 Z M 246 494 L 246 494 Z M 292 657 L 421 657 C 416 601 398 559 366 533 C 334 507 294 494 246 494 C 198 494 158 507 126 533 C 94 559 75 601 71 657 L 201 657 C 201 632 205 613 212 600 C 219 587 230 581 246 581 C 261 581 272 587 280 599 C 287 611 291 630 292 657 Z" unicode="ğ" />
<glyph horiz-adv-x="679" d="M 34 0 L 34 0 Z M 367 391 L 648 391 L 648 136 C 624 93 588 58 542 31 C 495 3 436 -10 364 -10 C 316 -10 271 -1 231 16 C 190 33 155 58 126 90 C 97 122 74 162 58 209 C 42 255 34 307 34 365 C 34 423 42 475 59 521 C 76 567 99 607 129 639 C 159 671 194 696 235 714 C 275 731 319 740 365 740 C 401 740 432 736 459 729 C 486 721 509 712 528 701 C 547 689 563 676 575 662 C 587 647 598 632 606 618 L 493 539 C 483 551 468 565 448 579 C 428 593 401 601 366 601 C 316 601 277 580 249 538 C 220 496 206 438 206 363 C 206 289 220 230 250 186 C 279 142 321 120 377 120 C 407 120 434 126 456 138 C 478 150 495 165 505 183 L 505 256 L 367 256 L 367 391 Z M 363 793 L 363 793 Z M 434 793 L 293 793 L 293 952 L 434 952 L 434 793 Z" unicode="Ġ" />
<glyph horiz-adv-x="516" d="M 22 0 L 22 0 Z M 213 3 C 159 3 113 22 77 60 C 40 98 22 150 22 217 C 22 287 39 343 75 384 C 110 424 156 445 212 445 C 235 445 258 440 280 430 C 302 420 318 408 328 396 L 328 436 L 475 436 L 475 32 C 475 -5 469 -37 457 -65 C 445 -92 428 -115 407 -133 C 386 -151 361 -164 332 -173 C 303 -182 272 -187 239 -187 C 186 -187 143 -180 110 -168 C 76 -155 52 -143 37 -131 L 92 -30 C 106 -41 125 -51 148 -61 C 170 -70 197 -75 227 -75 C 255 -75 278 -67 296 -53 C 314 -39 323 -18 323 8 L 323 55 C 315 41 301 29 281 19 C 260 8 237 3 213 3 Z M 258 109 C 280 109 298 118 310 138 C 322 158 328 185 328 221 C 328 253 321 280 309 301 C 296 322 278 333 254 333 C 233 333 216 323 203 304 C 189 284 183 256 183 219 C 183 183 189 155 203 137 C 217 118 235 109 258 109 Z M 246 499 L 246 499 Z M 317 499 L 176 499 L 176 658 L 317 658 L 317 499 Z" unicode="ġ" />
<glyph horiz-adv-x="679" d="M 34 0 L 34 0 Z M 367 391 L 648 391 L 648 136 C 624 93 588 58 542 31 C 495 3 436 -10 364 -10 C 316 -10 271 -1 231 16 C 190 33 155 58 126 90 C 97 122 74 162 58 209 C 42 255 34 307 34 365 C 34 423 42 475 59 521 C 76 567 99 607 129 639 C 159 671 194 696 235 714 C 275 731 319 740 365 740 C 401 740 432 736 459 729 C 486 721 509 712 528 701 C 547 689 563 676 575 662 C 587 647 598 632 606 618 L 493 539 C 483 551 468 565 448 579 C 428 593 401 601 366 601 C 316 601 277 580 249 538 C 220 496 206 438 206 363 C 206 289 220 230 250 186 C 279 142 321 120 377 120 C 407 120 434 126 456 138 C 478 150 495 165 505 183 L 505 256 L 367 256 L 367 391 Z" unicode="Ģ" />
<glyph horiz-adv-x="516" d="M 22 0 L 22 0 Z M 213 3 C 159 3 113 22 77 60 C 40 98 22 150 22 217 C 22 287 39 343 75 384 C 110 424 156 445 212 445 C 235 445 258 440 280 430 C 302 420 318 408 328 396 L 328 436 L 475 436 L 475 32 C 475 -5 469 -37 457 -65 C 445 -92 428 -115 407 -133 C 386 -151 361 -164 332 -173 C 303 -182 272 -187 239 -187 C 186 -187 143 -180 110 -168 C 76 -155 52 -143 37 -131 L 92 -30 C 106 -41 125 -51 148 -61 C 170 -70 197 -75 227 -75 C 255 -75 278 -67 296 -53 C 314 -39 323 -18 323 8 L 323 55 C 315 41 301 29 281 19 C 260 8 237 3 213 3 Z M 258 109 C 280 109 298 118 310 138 C 322 158 328 185 328 221 C 328 253 321 280 309 301 C 296 322 278 333 254 333 C 233 333 216 323 203 304 C 189 284 183 256 183 219 C 183 183 189 155 203 137 C 217 118 235 109 258 109 Z" unicode="ģ" />
<glyph horiz-adv-x="698" d="M 67 0 L 67 0 Z M 631 0 L 461 0 L 461 286 L 237 286 L 237 0 L 67 0 L 67 730 L 237 730 L 237 433 L 461 433 L 461 730 L 631 730 L 631 0 Z M 349 789 L 349 789 Z M 540 789 L 403 789 L 348 865 L 294 789 L 158 789 L 274 964 L 425 964 L 540 789 Z" unicode="Ĥ" />
<glyph horiz-adv-x="513" d="M 41 0 L 41 0 Z M 476 0 L 320 0 L 320 266 C 320 283 314 296 304 306 C 293 316 279 321 263 321 C 244 321 228 315 216 305 C 203 294 197 279 197 261 L 197 0 L 41 0 L 41 741 L 187 741 L 187 378 C 197 395 213 411 235 425 C 257 439 286 446 324 446 C 370 446 406 433 434 407 C 462 381 476 345 476 299 L 476 0 Z M 260 800 L 260 800 Z M 451 800 L 314 800 L 259 876 L 205 800 L 69 800 L 185 975 L 336 975 L 451 800 Z" unicode="ĥ" />
<glyph horiz-adv-x="698" d="M 237 286 L 237 0 L 67 0 L 67 534 L 8 534 L 8 636 L 67 636 L 67 730 L 237 730 L 237 636 L 461 636 L 461 730 L 631 730 L 631 636 L 690 636 L 690 534 L 631 534 L 631 0 L 461 0 L 461 286 L 237 286 Z M 237 433 L 461 433 L 461 534 L 237 534 L 237 433 Z" unicode="Ħ" />
<glyph horiz-adv-x="513" d="M 197 261 L 197 0 L 41 0 L 41 538 L 8 538 L 8 641 L 41 641 L 41 741 L 187 741 L 187 641 L 305 641 L 305 538 L 187 538 L 187 378 C 197 395 213 411 235 425 C 257 439 286 446 324 446 C 370 446 406 433 434 407 C 462 381 476 345 476 299 L 476 0 L 320 0 L 320 266 C 320 283 314 296 304 306 C 293 316 279 321 263 321 C 244 321 228 315 216 305 C 203 294 197 279 197 261 Z" unicode="ħ" />
<glyph horiz-adv-x="314" d="M 0 0 L 0 0 Z M 242 0 L 72 0 L 72 730 L 242 730 L 242 0 Z M 157 791 L 157 791 Z M 222 950 L 342 950 C 342 896 333 856 315 830 C 297 804 275 791 249 791 C 228 791 211 794 197 800 C 183 806 172 811 164 816 C 155 820 147 825 139 829 C 131 833 124 836 117 836 C 109 836 103 832 99 824 C 95 816 92 806 92 794 L -25 794 C -25 847 -14 887 7 913 C 28 939 51 953 75 953 C 95 953 111 950 124 944 C 136 938 147 933 156 928 C 163 923 170 919 176 915 C 182 911 189 910 195 910 C 201 910 207 913 213 920 C 219 926 222 936 222 950 Z" unicode="Ĩ" />
<glyph horiz-adv-x="247" d="M 0 0 L 0 0 Z M 202 0 L 46 0 L 46 436 L 202 436 L 202 0 Z M 123 497 L 123 497 Z M 188 656 L 308 656 C 308 602 299 562 281 536 C 263 510 241 497 215 497 C 194 497 177 500 163 506 C 149 512 138 517 130 522 C 121 526 113 531 105 535 C 97 539 90 542 83 542 C 75 542 69 538 65 530 C 61 522 58 512 58 500 L -59 500 C -59 553 -48 593 -27 619 C -5 645 17 659 41 659 C 61 659 77 656 90 650 C 102 644 113 639 122 634 C 129 629 136 625 142 621 C 148 617 155 616 161 616 C 167 616 173 619 179 626 C 185 632 188 642 188 656 Z" unicode="ĩ" />
<glyph horiz-adv-x="314" d="M 12 0 L 12 0 Z M 242 0 L 72 0 L 72 730 L 242 730 L 242 0 Z M 157 799 L 157 799 Z M 302 799 L 12 799 L 12 914 L 302 914 L 302 799 Z" unicode="Ī" />
<glyph horiz-adv-x="247" d="M 0 0 L 0 0 Z M 202 0 L 46 0 L 46 436 L 202 436 L 202 0 Z M 123 505 L 123 505 Z M 268 505 L -22 505 L -22 620 L 268 620 L 268 505 Z" unicode="ī" />
<glyph horiz-adv-x="314" d="M 0 0 L 0 0 Z M 242 0 L 72 0 L 72 730 L 242 730 L 242 0 Z M 157 788 L 157 788 Z M 203 951 L 332 951 C 327 895 309 853 277 827 C 245 801 205 788 157 788 C 109 788 69 801 37 827 C 5 853 -13 895 -18 951 L 112 951 C 112 926 116 907 123 894 C 130 881 141 875 157 875 C 172 875 183 881 191 893 C 198 905 202 924 203 951 Z" unicode="Ĭ" />
<glyph horiz-adv-x="247" d="M 0 0 L 0 0 Z M 202 0 L 46 0 L 46 436 L 202 436 L 202 0 Z M 123 494 L 123 494 Z M 169 657 L 298 657 C 293 601 275 559 243 533 C 211 507 171 494 123 494 C 75 494 35 507 3 533 C -29 559 -47 601 -52 657 L 78 657 C 78 632 82 613 89 600 C 96 587 107 581 123 581 C 138 581 149 587 157 599 C 164 611 168 630 169 657 Z" unicode="ĭ" />
<glyph horiz-adv-x="314" d="M 0 0 L 0 0 Z M 242 0 L 72 0 L 72 730 L 242 730 L 242 0 Z M 92 -5 L 92 -5 Z M 189 -64 L 229 -129 C 206 -153 182 -171 157 -183 C 131 -195 102 -201 70 -201 C 33 -201 5 -193 -15 -178 C -35 -163 -45 -144 -45 -121 C -45 -95 -33 -71 -9 -49 C 14 -27 47 -8 89 8 L 151 8 C 131 0 116 -11 104 -23 C 92 -35 87 -46 87 -57 C 87 -67 90 -74 97 -79 C 104 -84 113 -87 124 -87 C 138 -87 150 -84 161 -80 C 171 -76 181 -70 189 -64 Z" unicode="Į" />
<glyph horiz-adv-x="247" d="M 0 0 L 0 0 Z M 44 496 L 44 642 L 203 642 L 203 496 L 44 496 Z M 46 0 L 46 436 L 201 436 L 201 0 L 46 0 Z M 69 -4 L 69 -4 Z M 166 -63 L 206 -128 C 183 -152 159 -170 134 -182 C 108 -194 79 -200 47 -200 C 10 -200 -18 -192 -38 -177 C -58 -162 -68 -143 -68 -120 C -68 -94 -56 -70 -32 -48 C -8 -26 24 -7 66 9 L 128 9 C 108 0 93 -10 81 -22 C 69 -34 64 -45 64 -56 C 64 -66 67 -73 74 -78 C 81 -83 90 -86 101 -86 C 115 -86 127 -83 138 -79 C 148 -75 158 -69 166 -63 Z" unicode="į" />
<glyph horiz-adv-x="314" d="M 72 0 L 72 0 Z M 242 0 L 72 0 L 72 730 L 242 730 L 242 0 Z M 157 793 L 157 793 Z M 228 793 L 87 793 L 87 952 L 228 952 L 228 793 Z" unicode="İ" />
<glyph horiz-adv-x="247" d="M 202 0 L 46 0 L 46 436 L 202 436 L 202 0 Z" unicode="ı" />
<glyph horiz-adv-x="631" d="M 72 0 L 72 0 Z M 242 0 L 72 0 L 72 730 L 242 730 L 242 0 Z M 569 730 L 569 198 C 569 168 564 140 555 114 C 546 88 533 66 516 48 C 498 30 477 15 452 5 C 426 -5 397 -11 365 -11 C 345 -11 327 -10 311 -8 C 294 -6 281 -4 273 -2 L 273 143 C 279 141 290 139 307 138 C 323 137 336 137 344 137 C 364 137 380 144 392 158 C 403 172 409 188 409 207 L 409 730 L 569 730 Z" unicode="Ĳ" />
<glyph horiz-adv-x="469" d="M 44 0 L 44 0 Z M 44 496 L 44 642 L 203 642 L 203 496 L 44 496 Z M 46 0 L 46 436 L 201 436 L 201 0 L 46 0 Z M 436 496 L 277 496 L 277 642 L 436 642 L 436 496 Z M 435 436 L 435 -56 C 435 -73 432 -90 426 -108 C 420 -126 410 -141 398 -155 C 386 -169 370 -180 351 -189 C 332 -197 309 -201 283 -201 C 269 -201 252 -200 234 -198 C 216 -196 202 -193 194 -191 L 203 -78 C 207 -78 212 -79 218 -79 C 224 -79 231 -80 238 -80 C 250 -80 259 -75 267 -67 C 275 -59 279 -47 279 -33 L 279 436 L 435 436 Z" unicode="ĳ" />
<glyph horiz-adv-x="363" d="M 9 0 L 9 0 Z M 305 730 L 305 198 C 305 168 300 140 291 114 C 282 88 269 66 252 48 C 234 30 213 15 188 5 C 162 -5 133 -11 101 -11 C 81 -11 63 -10 47 -8 C 30 -6 17 -4 9 -2 L 9 143 C 15 141 26 139 43 138 C 59 137 72 137 80 137 C 100 137 116 144 128 158 C 139 172 145 188 145 207 L 145 730 L 305 730 Z M 224 789 L 224 789 Z M 415 789 L 278 789 L 223 865 L 169 789 L 33 789 L 149 964 L 300 964 L 415 789 Z" unicode="Ĵ" />
<glyph horiz-adv-x="234" d="M 0 0 L 0 0 Z M 196 436 L 196 -56 C 196 -73 193 -90 187 -108 C 181 -126 171 -141 159 -155 C 147 -169 131 -180 112 -189 C 93 -197 70 -201 44 -201 C 30 -201 13 -200 -4 -198 C -22 -196 -36 -193 -45 -191 L -36 -78 C -32 -78 -26 -79 -20 -79 C -14 -79 -7 -80 -1 -80 C 11 -80 20 -75 28 -67 C 36 -59 40 -47 40 -33 L 40 436 L 196 436 Z M 116 495 L 116 495 Z M 307 495 L 170 495 L 115 571 L 61 495 L -75 495 L 41 670 L 192 670 L 307 495 Z" unicode="ĵ" />
<glyph horiz-adv-x="666" d="M 67 0 L 67 0 Z M 683 0 L 473 0 L 268 270 L 237 233 L 237 0 L 67 0 L 67 730 L 237 730 L 237 438 L 464 730 L 656 730 L 380 393 L 683 0 Z M 338 -62 L 338 -62 Z M 455 -62 C 455 -86 450 -113 442 -143 C 433 -172 423 -200 411 -226 C 399 -252 387 -276 373 -296 C 359 -316 348 -329 338 -335 L 221 -283 C 229 -273 237 -260 245 -244 C 253 -228 260 -210 267 -190 C 274 -170 280 -148 285 -126 C 290 -104 293 -82 295 -62 L 455 -62 Z" unicode="Ķ" />
<glyph horiz-adv-x="500" d="M 42 0 L 42 0 Z M 524 0 L 345 0 L 228 158 L 192 118 L 192 0 L 42 0 L 42 741 L 188 741 L 188 267 L 326 436 L 494 436 L 335 251 L 524 0 Z M 254 -62 L 254 -62 Z M 371 -62 C 371 -86 366 -113 358 -143 C 349 -172 339 -200 327 -226 C 315 -252 303 -276 289 -296 C 275 -316 264 -329 254 -335 L 137 -283 C 145 -273 153 -260 161 -244 C 169 -228 176 -210 183 -190 C 190 -170 196 -148 201 -126 C 206 -104 209 -82 211 -62 L 371 -62 Z" unicode="ķ" />
<glyph horiz-adv-x="500" d="M 524 0 L 345 0 L 228 158 L 192 118 L 192 0 L 42 0 L 42 436 L 188 436 L 188 267 L 326 436 L 494 436 L 335 251 L 524 0 Z" unicode="ĸ" />
<glyph horiz-adv-x="468" d="M 67 0 L 67 0 Z M 461 0 L 67 0 L 67 730 L 237 730 L 237 143 L 461 143 L 461 0 Z M 263 789 L 263 789 Z M 122 789 L 221 953 L 405 953 L 277 789 L 122 789 Z" unicode="Ĺ" />
<glyph horiz-adv-x="238" d="M 41 0 L 41 0 Z M 185 800 L 185 800 Z M 44 800 L 143 964 L 327 964 L 199 800 L 44 800 Z M 197 741 L 197 0 L 41 0 L 41 741 L 197 741 Z" unicode="ĺ" />
<glyph horiz-adv-x="468" d="M 67 0 L 67 0 Z M 461 0 L 67 0 L 67 730 L 237 730 L 237 143 L 461 143 L 461 0 Z M 259 -62 L 259 -62 Z M 376 -62 C 376 -86 371 -113 363 -143 C 354 -172 344 -200 332 -226 C 320 -252 308 -276 294 -296 C 280 -316 269 -329 259 -335 L 142 -283 C 150 -273 158 -260 166 -244 C 174 -228 181 -210 188 -190 C 195 -170 201 -148 206 -126 C 211 -104 214 -82 216 -62 L 376 -62 Z" unicode="Ļ" />
<glyph horiz-adv-x="238" d="M 0 0 L 0 0 Z M 197 741 L 197 0 L 41 0 L 41 741 L 197 741 Z M 100 -62 L 100 -62 Z M 217 -62 C 217 -86 212 -113 204 -143 C 195 -172 185 -200 173 -226 C 161 -252 149 -276 135 -296 C 121 -316 110 -329 100 -335 L -17 -283 C -9 -273 -1 -260 7 -244 C 15 -228 22 -210 29 -190 C 36 -170 42 -148 47 -126 C 52 -104 55 -82 57 -62 L 217 -62 Z" unicode="ļ" />
<glyph horiz-adv-x="468" d="M 67 0 L 67 0 Z M 461 0 L 67 0 L 67 730 L 237 730 L 237 143 L 461 143 L 461 0 Z M 466 619 L 460 460 L 326 460 L 320 619 L 320 730 L 466 730 L 466 619 Z" unicode="Ľ" />
<glyph horiz-adv-x="238" d="M 41 0 L 41 0 Z M 197 741 L 197 0 L 41 0 L 41 741 L 197 741 Z M 395 617 L 389 458 L 255 458 L 249 617 L 249 728 L 395 728 L 395 617 Z" unicode="ľ" />
<glyph horiz-adv-x="468" d="M 67 0 L 67 0 Z M 461 0 L 67 0 L 67 730 L 237 730 L 237 143 L 461 143 L 461 0 Z M 377 282 L 377 282 Z M 448 282 L 307 282 L 307 441 L 448 441 L 448 282 Z" unicode="Ŀ" />
<glyph horiz-adv-x="238" d="M 41 0 L 41 0 Z M 197 741 L 197 0 L 41 0 L 41 741 L 197 741 Z M 318 175 L 318 175 Z M 389 175 L 248 175 L 248 334 L 389 334 L 389 175 Z" unicode="ŀ" />
<glyph horiz-adv-x="468" d="M 461 142 L 461 0 L 67 0 L 67 245 L 33 231 L -21 346 L 67 383 L 67 730 L 237 730 L 237 455 L 350 503 L 403 387 L 237 317 L 237 142 L 461 142 Z" unicode="Ł" />
<glyph horiz-adv-x="238" d="M 289 355 L 207 315 L 207 0 L 52 0 L 52 239 L 18 222 L -23 320 L 52 357 L 52 741 L 207 741 L 207 433 L 246 452 L 289 355 Z" unicode="ł" />
<glyph horiz-adv-x="690" d="M 67 0 L 67 0 Z M 622 0 L 508 0 L 225 411 L 225 0 L 67 0 L 67 730 L 191 730 L 466 328 L 466 730 L 622 730 L 622 0 Z M 344 789 L 344 789 Z M 203 789 L 302 953 L 486 953 L 358 789 L 203 789 Z" unicode="Ń" />
<glyph horiz-adv-x="513" d="M 41 0 L 41 0 Z M 476 0 L 320 0 L 320 268 C 320 284 315 296 305 306 C 295 316 280 321 262 321 C 243 321 227 315 215 305 C 203 294 197 278 197 256 L 197 0 L 41 0 L 41 436 L 187 436 L 187 378 C 197 398 215 415 239 427 C 263 439 291 446 321 446 C 369 446 406 433 434 407 C 462 381 476 346 476 301 L 476 0 Z M 257 495 L 257 495 Z M 116 495 L 215 659 L 399 659 L 271 495 L 116 495 Z" unicode="ń" />
<glyph horiz-adv-x="690" d="M 67 0 L 67 0 Z M 622 0 L 508 0 L 225 411 L 225 0 L 67 0 L 67 730 L 191 730 L 466 328 L 466 730 L 622 730 L 622 0 Z M 336 -62 L 336 -62 Z M 453 -62 C 453 -86 448 -113 440 -143 C 431 -172 421 -200 409 -226 C 397 -252 385 -276 371 -296 C 357 -316 346 -329 336 -335 L 219 -283 C 227 -273 235 -260 243 -244 C 251 -228 258 -210 265 -190 C 272 -170 278 -148 283 -126 C 288 -104 291 -82 293 -62 L 453 -62 Z" unicode="Ņ" />
<glyph horiz-adv-x="513" d="M 41 0 L 41 0 Z M 476 0 L 320 0 L 320 268 C 320 284 315 296 305 306 C 295 316 280 321 262 321 C 243 321 227 315 215 305 C 203 294 197 278 197 256 L 197 0 L 41 0 L 41 436 L 187 436 L 187 378 C 197 398 215 415 239 427 C 263 439 291 446 321 446 C 369 446 406 433 434 407 C 462 381 476 346 476 301 L 476 0 Z M 245 -62 L 245 -62 Z M 362 -62 C 362 -86 357 -113 349 -143 C 340 -172 330 -200 318 -226 C 306 -252 294 -276 280 -296 C 266 -316 255 -329 245 -335 L 128 -283 C 136 -273 144 -260 152 -244 C 160 -228 167 -210 174 -190 C 181 -170 187 -148 192 -126 C 197 -104 200 -82 202 -62 L 362 -62 Z" unicode="ņ" />
<glyph horiz-adv-x="690" d="M 67 0 L 67 0 Z M 622 0 L 508 0 L 225 411 L 225 0 L 67 0 L 67 730 L 191 730 L 466 328 L 466 730 L 622 730 L 622 0 Z M 344 789 L 344 789 Z M 153 964 L 291 964 L 345 888 L 400 964 L 535 964 L 420 789 L 269 789 L 153 964 Z" unicode="Ň" />
<glyph horiz-adv-x="513" d="M 41 0 L 41 0 Z M 476 0 L 320 0 L 320 268 C 320 284 315 296 305 306 C 295 316 280 321 262 321 C 243 321 227 315 215 305 C 203 294 197 278 197 256 L 197 0 L 41 0 L 41 436 L 187 436 L 187 378 C 197 398 215 415 239 427 C 263 439 291 446 321 446 C 369 446 406 433 434 407 C 462 381 476 346 476 301 L 476 0 Z M 257 495 L 257 495 Z M 66 670 L 204 670 L 258 594 L 313 670 L 448 670 L 333 495 L 182 495 L 66 670 Z" unicode="ň" />
<glyph horiz-adv-x="693" d="M 466 730 L 622 730 L 622 0 L 622 0 C 620 -57 602 -104 569 -142 C 535 -180 487 -199 423 -199 C 404 -199 386 -198 370 -196 C 353 -194 340 -192 332 -190 L 332 -45 C 338 -47 349 -48 366 -49 C 382 -50 394 -51 402 -51 C 423 -51 439 -44 451 -30 C 462 -16 468 0 468 19 L 468 58 L 225 411 L 225 0 L 67 0 L 67 730 L 191 730 L 466 328 L 466 730 Z" unicode="Ŋ" />
<glyph horiz-adv-x="513" d="M 321 446 C 369 446 406 433 434 407 C 462 381 476 346 476 301 L 476 -56 C 476 -73 473 -90 467 -108 C 461 -126 451 -141 439 -155 C 427 -169 411 -180 392 -189 C 373 -197 350 -201 324 -201 C 310 -201 293 -200 275 -198 C 257 -196 243 -193 235 -191 L 244 -78 C 248 -78 253 -79 259 -79 C 265 -79 272 -80 279 -80 C 291 -80 300 -75 308 -67 C 316 -59 320 -47 320 -33 L 320 268 C 320 284 315 296 305 306 C 295 316 280 321 262 321 C 243 321 227 315 215 305 C 203 294 197 278 197 256 L 197 0 L 41 0 L 41 436 L 187 436 L 187 378 C 197 398 215 415 239 427 C 263 439 291 446 321 446 Z" unicode="ŋ" />
<glyph horiz-adv-x="740" d="M 34 0 L 34 0 Z M 373 -10 C 318 -10 269 -1 227 16 C 185 34 149 59 121 92 C 93 124 71 164 56 212 C 41 259 34 312 34 370 C 34 424 42 473 59 519 C 75 564 98 603 128 636 C 157 668 192 694 233 712 C 274 730 318 740 366 740 C 416 740 463 731 505 715 C 547 698 583 674 613 642 C 642 610 665 571 681 525 C 697 479 706 426 706 368 C 706 310 697 257 680 211 C 662 164 639 124 609 92 C 579 59 543 34 503 16 C 462 -1 419 -10 373 -10 Z M 371 129 C 420 129 459 148 488 188 C 517 227 532 288 532 370 C 532 446 517 504 487 542 C 457 580 418 600 370 600 C 322 600 283 581 253 545 C 223 508 209 449 209 367 C 209 283 223 223 253 185 C 283 147 322 129 371 129 Z M 369 799 L 369 799 Z M 514 799 L 224 799 L 224 914 L 514 914 L 514 799 Z" unicode="Ō" />
<glyph horiz-adv-x="517" d="M 22 0 L 22 0 Z M 255 -10 C 225 -10 197 -5 169 4 C 141 14 116 28 94 47 C 72 66 55 90 42 118 C 28 146 22 179 22 216 C 22 249 28 280 40 308 C 52 336 69 361 91 381 C 112 401 137 417 165 429 C 193 440 222 446 253 446 C 285 446 316 441 346 431 C 375 421 401 407 423 389 C 445 370 462 347 475 320 C 488 293 495 263 495 229 C 495 193 488 160 476 130 C 464 100 447 75 425 55 C 403 34 378 18 349 7 C 319 -4 288 -10 255 -10 Z M 257 104 C 281 104 299 113 312 131 C 325 149 332 180 332 224 C 332 262 325 289 312 306 C 299 322 280 331 255 331 C 233 331 216 322 204 306 C 191 289 185 260 185 218 C 185 174 191 144 204 128 C 216 112 234 104 257 104 Z M 255 505 L 255 505 Z M 400 505 L 110 505 L 110 620 L 400 620 L 400 505 Z" unicode="ō" />
<glyph horiz-adv-x="740" d="M 34 0 L 34 0 Z M 373 -10 C 318 -10 269 -1 227 16 C 185 34 149 59 121 92 C 93 124 71 164 56 212 C 41 259 34 312 34 370 C 34 424 42 473 59 519 C 75 564 98 603 128 636 C 157 668 192 694 233 712 C 274 730 318 740 366 740 C 416 740 463 731 505 715 C 547 698 583 674 613 642 C 642 610 665 571 681 525 C 697 479 706 426 706 368 C 706 310 697 257 680 211 C 662 164 639 124 609 92 C 579 59 543 34 503 16 C 462 -1 419 -10 373 -10 Z M 371 129 C 420 129 459 148 488 188 C 517 227 532 288 532 370 C 532 446 517 504 487 542 C 457 580 418 600 370 600 C 322 600 283 581 253 545 C 223 508 209 449 209 367 C 209 283 223 223 253 185 C 283 147 322 129 371 129 Z M 369 788 L 369 788 Z M 415 951 L 544 951 C 539 895 521 853 489 827 C 457 801 417 788 369 788 C 321 788 281 801 249 827 C 217 853 198 895 194 951 L 324 951 C 324 926 328 907 335 894 C 342 881 353 875 369 875 C 384 875 395 881 403 893 C 410 905 414 924 415 951 Z" unicode="Ŏ" />
<glyph horiz-adv-x="517" d="M 22 0 L 22 0 Z M 255 -10 C 225 -10 197 -5 169 4 C 141 14 116 28 94 47 C 72 66 55 90 42 118 C 28 146 22 179 22 216 C 22 249 28 280 40 308 C 52 336 69 361 91 381 C 112 401 137 417 165 429 C 193 440 222 446 253 446 C 285 446 316 441 346 431 C 375 421 401 407 423 389 C 445 370 462 347 475 320 C 488 293 495 263 495 229 C 495 193 488 160 476 130 C 464 100 447 75 425 55 C 403 34 378 18 349 7 C 319 -4 288 -10 255 -10 Z M 257 104 C 281 104 299 113 312 131 C 325 149 332 180 332 224 C 332 262 325 289 312 306 C 299 322 280 331 255 331 C 233 331 216 322 204 306 C 191 289 185 260 185 218 C 185 174 191 144 204 128 C 216 112 234 104 257 104 Z M 255 494 L 255 494 Z M 301 657 L 430 657 C 425 601 407 559 375 533 C 343 507 303 494 255 494 C 207 494 167 507 135 533 C 103 559 84 601 80 657 L 210 657 C 210 632 214 613 221 600 C 228 587 239 581 255 581 C 270 581 281 587 289 599 C 296 611 300 630 301 657 Z" unicode="ŏ" />
<glyph horiz-adv-x="740" d="M 34 0 L 34 0 Z M 373 -10 C 318 -10 269 -1 227 16 C 185 34 149 59 121 92 C 93 124 71 164 56 212 C 41 259 34 312 34 370 C 34 424 42 473 59 519 C 75 564 98 603 128 636 C 157 668 192 694 233 712 C 274 730 318 740 366 740 C 416 740 463 731 505 715 C 547 698 583 674 613 642 C 642 610 665 571 681 525 C 697 479 706 426 706 368 C 706 310 697 257 680 211 C 662 164 639 124 609 92 C 579 59 543 34 503 16 C 462 -1 419 -10 373 -10 Z M 371 129 C 420 129 459 148 488 188 C 517 227 532 288 532 370 C 532 446 517 504 487 542 C 457 580 418 600 370 600 C 322 600 283 581 253 545 C 223 508 209 449 209 367 C 209 283 223 223 253 185 C 283 147 322 129 371 129 Z M 369 789 L 369 789 Z M 132 789 L 220 948 L 386 948 L 268 789 L 132 789 Z M 353 789 L 442 948 L 607 948 L 489 789 L 353 789 Z" unicode="Ő" />
<glyph horiz-adv-x="517" d="M 18 0 L 18 0 Z M 255 -10 C 225 -10 197 -5 169 4 C 141 14 116 28 94 47 C 72 66 55 90 42 118 C 28 146 22 179 22 216 C 22 249 28 280 40 308 C 52 336 69 361 91 381 C 112 401 137 417 165 429 C 193 440 222 446 253 446 C 285 446 316 441 346 431 C 375 421 401 407 423 389 C 445 370 462 347 475 320 C 488 293 495 263 495 229 C 495 193 488 160 476 130 C 464 100 447 75 425 55 C 403 34 378 18 349 7 C 319 -4 288 -10 255 -10 Z M 257 104 C 281 104 299 113 312 131 C 325 149 332 180 332 224 C 332 262 325 289 312 306 C 299 322 280 331 255 331 C 233 331 216 322 204 306 C 191 289 185 260 185 218 C 185 174 191 144 204 128 C 216 112 234 104 257 104 Z M 255 495 L 255 495 Z M 18 495 L 106 654 L 272 654 L 154 495 L 18 495 Z M 239 495 L 328 654 L 493 654 L 375 495 L 239 495 Z" unicode="ő" />
<glyph horiz-adv-x="1002" d="M 343 -10 C 295 -10 251 -1 213 17 C 175 35 142 60 116 93 C 89 126 69 166 55 213 C 41 260 34 312 34 370 C 34 424 42 474 59 520 C 75 566 98 605 126 637 C 154 669 188 695 228 713 C 267 731 309 740 354 740 C 371 740 389 738 407 734 C 425 730 443 724 459 718 C 475 712 489 704 502 696 C 514 687 524 678 531 668 L 531 730 L 953 730 L 953 590 L 691 590 L 691 428 L 935 428 L 935 291 L 691 291 L 691 140 L 973 140 L 973 0 L 531 0 L 531 77 C 517 54 493 34 459 16 C 425 -1 387 -10 343 -10 Z M 370 126 C 418 126 456 145 485 183 C 514 221 529 284 529 370 C 529 410 524 444 516 474 C 507 504 495 528 481 547 C 466 566 449 580 430 589 C 410 598 390 603 369 603 C 321 603 282 585 252 549 C 222 513 208 452 208 367 C 208 280 223 218 253 181 C 283 144 322 126 370 126 Z" unicode="Œ" />
<glyph horiz-adv-x="785" d="M 246 -10 C 217 -10 189 -5 162 5 C 135 15 111 29 91 49 C 70 68 53 92 41 120 C 28 148 22 180 22 216 C 22 249 28 280 40 308 C 52 336 69 361 89 381 C 109 401 133 417 161 429 C 188 440 217 446 247 446 C 291 446 326 439 352 426 C 378 413 397 398 410 380 C 420 396 437 411 463 425 C 489 439 520 446 556 446 C 627 446 681 421 719 372 C 756 322 775 258 775 179 L 478 179 C 478 157 487 139 503 123 C 519 107 544 100 576 100 C 600 100 621 104 639 112 C 657 120 672 129 685 141 L 754 64 C 735 44 712 26 685 12 C 657 -2 617 -10 563 -10 C 521 -10 487 -3 462 11 C 437 25 418 40 406 57 C 393 41 373 25 347 11 C 320 -2 286 -10 246 -10 Z M 479 271 L 628 271 C 626 289 619 305 607 319 C 594 333 576 340 554 340 C 532 340 515 333 502 320 C 488 307 481 291 479 271 Z M 258 104 C 282 104 300 112 313 130 C 325 148 332 179 332 224 C 332 260 325 287 312 305 C 299 322 281 331 257 331 C 234 331 216 322 203 304 C 190 286 184 258 184 218 C 184 176 190 146 203 129 C 216 112 234 104 258 104 Z" unicode="œ" />
<glyph horiz-adv-x="614" d="M 67 0 L 67 0 Z M 67 0 L 67 730 L 319 730 C 349 730 377 725 404 717 C 431 708 454 695 474 678 C 494 661 509 639 521 613 C 533 587 539 557 539 523 C 539 493 535 467 528 445 C 520 422 510 402 498 386 C 486 370 472 357 456 347 C 440 337 424 330 408 327 L 404 321 L 617 0 L 430 0 L 260 268 L 232 268 L 232 0 L 67 0 Z M 230 408 L 290 408 C 312 408 331 416 347 432 C 362 448 370 472 370 503 C 370 532 362 554 346 570 C 330 586 311 594 291 594 L 230 594 L 230 408 Z M 295 789 L 295 789 Z M 154 789 L 253 953 L 437 953 L 309 789 L 154 789 Z" unicode="Ŕ" />
<glyph horiz-adv-x="393" d="M 41 0 L 41 0 Z M 395 415 L 340 288 C 324 300 310 308 298 311 C 285 314 274 316 265 316 C 250 316 235 310 220 299 C 204 287 197 268 197 242 L 197 0 L 41 0 L 41 436 L 188 436 L 188 376 C 194 389 208 404 228 421 C 248 437 274 446 306 446 C 325 446 342 443 357 437 C 372 431 385 423 395 415 Z M 218 495 L 218 495 Z M 77 495 L 176 659 L 360 659 L 232 495 L 77 495 Z" unicode="ŕ" />
<glyph horiz-adv-x="614" d="M 67 0 L 67 0 Z M 67 0 L 67 730 L 319 730 C 349 730 377 725 404 717 C 431 708 454 695 474 678 C 494 661 509 639 521 613 C 533 587 539 557 539 523 C 539 493 535 467 528 445 C 520 422 510 402 498 386 C 486 370 472 357 456 347 C 440 337 424 330 408 327 L 404 321 L 617 0 L 430 0 L 260 268 L 232 268 L 232 0 L 67 0 Z M 230 408 L 290 408 C 312 408 331 416 347 432 C 362 448 370 472 370 503 C 370 532 362 554 346 570 C 330 586 311 594 291 594 L 230 594 L 230 408 Z M 312 -62 L 312 -62 Z M 429 -62 C 429 -86 424 -113 416 -143 C 407 -172 397 -200 385 -226 C 373 -252 361 -276 347 -296 C 333 -316 322 -329 312 -335 L 195 -283 C 203 -273 211 -260 219 -244 C 227 -228 234 -210 241 -190 C 248 -170 254 -148 259 -126 C 264 -104 267 -82 269 -62 L 429 -62 Z" unicode="Ŗ" />
<glyph horiz-adv-x="393" d="M 41 0 L 41 0 Z M 395 415 L 340 288 C 324 300 310 308 298 311 C 285 314 274 316 265 316 C 250 316 235 310 220 299 C 204 287 197 268 197 242 L 197 0 L 41 0 L 41 436 L 188 436 L 188 376 C 194 389 208 404 228 421 C 248 437 274 446 306 446 C 325 446 342 443 357 437 C 372 431 385 423 395 415 Z M 201 -62 L 201 -62 Z M 318 -62 C 318 -86 313 -113 305 -143 C 296 -172 286 -200 274 -226 C 262 -252 250 -276 236 -296 C 222 -316 211 -329 201 -335 L 84 -283 C 92 -273 100 -260 108 -244 C 116 -228 123 -210 130 -190 C 137 -170 143 -148 148 -126 C 153 -104 156 -82 158 -62 L 318 -62 Z" unicode="ŗ" />
<glyph horiz-adv-x="614" d="M 67 0 L 67 0 Z M 67 0 L 67 730 L 319 730 C 349 730 377 725 404 717 C 431 708 454 695 474 678 C 494 661 509 639 521 613 C 533 587 539 557 539 523 C 539 493 535 467 528 445 C 520 422 510 402 498 386 C 486 370 472 357 456 347 C 440 337 424 330 408 327 L 404 321 L 617 0 L 430 0 L 260 268 L 232 268 L 232 0 L 67 0 Z M 230 408 L 290 408 C 312 408 331 416 347 432 C 362 448 370 472 370 503 C 370 532 362 554 346 570 C 330 586 311 594 291 594 L 230 594 L 230 408 Z M 295 789 L 295 789 Z M 104 964 L 242 964 L 296 888 L 351 964 L 486 964 L 371 789 L 220 789 L 104 964 Z" unicode="Ř" />
<glyph horiz-adv-x="393" d="M 27 0 L 27 0 Z M 395 415 L 340 288 C 324 300 310 308 298 311 C 285 314 274 316 265 316 C 250 316 235 310 220 299 C 204 287 197 268 197 242 L 197 0 L 41 0 L 41 436 L 188 436 L 188 376 C 194 389 208 404 228 421 C 248 437 274 446 306 446 C 325 446 342 443 357 437 C 372 431 385 423 395 415 Z M 218 495 L 218 495 Z M 27 670 L 165 670 L 219 594 L 274 670 L 409 670 L 294 495 L 143 495 L 27 670 Z" unicode="ř" />
<glyph horiz-adv-x="494" d="M 9 0 L 9 0 Z M 255 -10 C 203 -10 157 -2 115 11 C 73 25 38 48 9 80 L 100 190 C 114 171 134 155 160 141 C 186 127 213 121 242 121 C 264 121 284 127 300 140 C 316 153 324 171 324 195 C 324 219 314 239 296 255 C 277 270 253 286 223 302 C 203 312 181 324 159 338 C 137 352 117 368 99 387 C 81 405 66 427 54 453 C 42 479 36 509 36 545 C 36 601 56 648 98 685 C 139 721 192 740 256 740 C 298 740 335 733 367 721 C 399 709 428 693 452 673 L 375 563 C 360 575 343 586 325 594 C 307 602 288 607 268 607 C 245 607 227 600 213 588 C 199 576 192 561 192 544 C 192 523 201 506 217 492 C 233 478 264 459 310 435 C 363 407 404 376 434 341 C 464 306 479 260 479 202 C 479 166 472 135 460 109 C 447 82 430 60 409 42 C 388 24 364 11 337 3 C 310 -5 283 -10 255 -10 Z M 251 789 L 251 789 Z M 110 789 L 209 953 L 393 953 L 265 789 L 110 789 Z" unicode="Ś" />
<glyph horiz-adv-x="382" d="M 9 0 L 9 0 Z M 200 -10 C 160 -10 123 -4 90 6 C 56 16 29 30 9 48 L 73 143 C 89 128 108 117 131 109 C 154 101 175 98 193 98 C 204 98 213 100 221 105 C 228 109 232 116 232 125 C 232 135 224 144 209 151 C 193 158 174 166 151 174 C 137 178 122 184 107 191 C 92 198 78 207 66 218 C 53 228 43 241 35 257 C 27 273 23 292 23 315 C 23 351 38 382 70 408 C 102 434 143 448 193 448 C 225 448 257 443 289 433 C 320 423 343 412 358 401 L 301 306 C 289 314 273 322 255 329 C 236 336 218 340 200 340 C 190 340 180 338 171 336 C 161 333 157 327 157 319 C 157 311 162 304 173 298 C 184 292 205 284 236 274 C 272 261 303 245 329 226 C 354 207 367 176 367 133 C 367 110 362 90 353 72 C 344 54 332 39 317 27 C 302 15 284 5 264 0 C 244 -6 222 -10 200 -10 Z M 194 495 L 194 495 Z M 53 495 L 152 659 L 336 659 L 208 495 L 53 495 Z" unicode="ś" />
<glyph horiz-adv-x="494" d="M 9 0 L 9 0 Z M 255 -10 C 203 -10 157 -2 115 11 C 73 25 38 48 9 80 L 100 190 C 114 171 134 155 160 141 C 186 127 213 121 242 121 C 264 121 284 127 300 140 C 316 153 324 171 324 195 C 324 219 314 239 296 255 C 277 270 253 286 223 302 C 203 312 181 324 159 338 C 137 352 117 368 99 387 C 81 405 66 427 54 453 C 42 479 36 509 36 545 C 36 601 56 648 98 685 C 139 721 192 740 256 740 C 298 740 335 733 367 721 C 399 709 428 693 452 673 L 375 563 C 360 575 343 586 325 594 C 307 602 288 607 268 607 C 245 607 227 600 213 588 C 199 576 192 561 192 544 C 192 523 201 506 217 492 C 233 478 264 459 310 435 C 363 407 404 376 434 341 C 464 306 479 260 479 202 C 479 166 472 135 460 109 C 447 82 430 60 409 42 C 388 24 364 11 337 3 C 310 -5 283 -10 255 -10 Z M 251 789 L 251 789 Z M 442 789 L 305 789 L 250 865 L 196 789 L 60 789 L 176 964 L 327 964 L 442 789 Z" unicode="Ŝ" />
<glyph horiz-adv-x="382" d="M 3 0 L 3 0 Z M 200 -10 C 160 -10 123 -4 90 6 C 56 16 29 30 9 48 L 73 143 C 89 128 108 117 131 109 C 154 101 175 98 193 98 C 204 98 213 100 221 105 C 228 109 232 116 232 125 C 232 135 224 144 209 151 C 193 158 174 166 151 174 C 137 178 122 184 107 191 C 92 198 78 207 66 218 C 53 228 43 241 35 257 C 27 273 23 292 23 315 C 23 351 38 382 70 408 C 102 434 143 448 193 448 C 225 448 257 443 289 433 C 320 423 343 412 358 401 L 301 306 C 289 314 273 322 255 329 C 236 336 218 340 200 340 C 190 340 180 338 171 336 C 161 333 157 327 157 319 C 157 311 162 304 173 298 C 184 292 205 284 236 274 C 272 261 303 245 329 226 C 354 207 367 176 367 133 C 367 110 362 90 353 72 C 344 54 332 39 317 27 C 302 15 284 5 264 0 C 244 -6 222 -10 200 -10 Z M 194 495 L 194 495 Z M 385 495 L 248 495 L 193 571 L 139 495 L 3 495 L 119 670 L 270 670 L 385 495 Z" unicode="ŝ" />
<glyph horiz-adv-x="494" d="M 9 0 L 9 0 Z M 255 -10 C 203 -10 157 -2 115 11 C 73 25 38 48 9 80 L 100 190 C 114 171 134 155 160 141 C 186 127 213 121 242 121 C 264 121 284 127 300 140 C 316 153 324 171 324 195 C 324 219 314 239 296 255 C 277 270 253 286 223 302 C 203 312 181 324 159 338 C 137 352 117 368 99 387 C 81 405 66 427 54 453 C 42 479 36 509 36 545 C 36 601 56 648 98 685 C 139 721 192 740 256 740 C 298 740 335 733 367 721 C 399 709 428 693 452 673 L 375 563 C 360 575 343 586 325 594 C 307 602 288 607 268 607 C 245 607 227 600 213 588 C 199 576 192 561 192 544 C 192 523 201 506 217 492 C 233 478 264 459 310 435 C 363 407 404 376 434 341 C 464 306 479 260 479 202 C 479 166 472 135 460 109 C 447 82 430 60 409 42 C 388 24 364 11 337 3 C 310 -5 283 -10 255 -10 Z M 232 0 L 232 0 Z M 239 -191 C 213 -191 187 -188 161 -182 C 135 -176 115 -168 101 -159 L 120 -96 C 127 -99 137 -103 151 -108 C 165 -112 179 -115 193 -115 C 201 -115 209 -113 215 -109 C 221 -105 225 -100 225 -94 C 225 -87 222 -82 216 -79 C 210 -76 204 -75 198 -75 C 193 -75 189 -75 185 -76 C 181 -76 177 -77 173 -79 L 152 -57 L 214 14 L 303 14 L 258 -40 C 288 -37 313 -42 333 -55 C 352 -68 362 -87 362 -111 C 362 -137 349 -157 324 -171 C 299 -184 271 -191 239 -191 Z" unicode="Ş" />
<glyph horiz-adv-x="382" d="M 9 0 L 9 0 Z M 200 -10 C 160 -10 123 -4 90 6 C 56 16 29 30 9 48 L 73 143 C 89 128 108 117 131 109 C 154 101 175 98 193 98 C 204 98 213 100 221 105 C 228 109 232 116 232 125 C 232 135 224 144 209 151 C 193 158 174 166 151 174 C 137 178 122 184 107 191 C 92 198 78 207 66 218 C 53 228 43 241 35 257 C 27 273 23 292 23 315 C 23 351 38 382 70 408 C 102 434 143 448 193 448 C 225 448 257 443 289 433 C 320 423 343 412 358 401 L 301 306 C 289 314 273 322 255 329 C 236 336 218 340 200 340 C 190 340 180 338 171 336 C 161 333 157 327 157 319 C 157 311 162 304 173 298 C 184 292 205 284 236 274 C 272 261 303 245 329 226 C 354 207 367 176 367 133 C 367 110 362 90 353 72 C 344 54 332 39 317 27 C 302 15 284 5 264 0 C 244 -6 222 -10 200 -10 Z M 181 0 L 181 0 Z M 188 -191 C 162 -191 136 -188 110 -182 C 84 -176 64 -168 50 -159 L 69 -96 C 76 -99 86 -103 100 -108 C 114 -112 128 -115 142 -115 C 150 -115 158 -113 164 -109 C 170 -105 174 -100 174 -94 C 174 -87 171 -82 165 -79 C 159 -76 153 -75 147 -75 C 142 -75 138 -75 134 -76 C 130 -76 126 -77 122 -79 L 101 -57 L 163 14 L 252 14 L 207 -40 C 237 -37 262 -42 282 -55 C 301 -68 311 -87 311 -111 C 311 -137 298 -157 273 -171 C 248 -184 220 -191 188 -191 Z" unicode="ş" />
<glyph horiz-adv-x="494" d="M 9 0 L 9 0 Z M 255 -10 C 203 -10 157 -2 115 11 C 73 25 38 48 9 80 L 100 190 C 114 171 134 155 160 141 C 186 127 213 121 242 121 C 264 121 284 127 300 140 C 316 153 324 171 324 195 C 324 219 314 239 296 255 C 277 270 253 286 223 302 C 203 312 181 324 159 338 C 137 352 117 368 99 387 C 81 405 66 427 54 453 C 42 479 36 509 36 545 C 36 601 56 648 98 685 C 139 721 192 740 256 740 C 298 740 335 733 367 721 C 399 709 428 693 452 673 L 375 563 C 360 575 343 586 325 594 C 307 602 288 607 268 607 C 245 607 227 600 213 588 C 199 576 192 561 192 544 C 192 523 201 506 217 492 C 233 478 264 459 310 435 C 363 407 404 376 434 341 C 464 306 479 260 479 202 C 479 166 472 135 460 109 C 447 82 430 60 409 42 C 388 24 364 11 337 3 C 310 -5 283 -10 255 -10 Z M 251 789 L 251 789 Z M 60 964 L 198 964 L 252 888 L 307 964 L 442 964 L 327 789 L 176 789 L 60 964 Z" unicode="Š" />
<glyph horiz-adv-x="382" d="M 3 0 L 3 0 Z M 200 -10 C 160 -10 123 -4 90 6 C 56 16 29 30 9 48 L 73 143 C 89 128 108 117 131 109 C 154 101 175 98 193 98 C 204 98 213 100 221 105 C 228 109 232 116 232 125 C 232 135 224 144 209 151 C 193 158 174 166 151 174 C 137 178 122 184 107 191 C 92 198 78 207 66 218 C 53 228 43 241 35 257 C 27 273 23 292 23 315 C 23 351 38 382 70 408 C 102 434 143 448 193 448 C 225 448 257 443 289 433 C 320 423 343 412 358 401 L 301 306 C 289 314 273 322 255 329 C 236 336 218 340 200 340 C 190 340 180 338 171 336 C 161 333 157 327 157 319 C 157 311 162 304 173 298 C 184 292 205 284 236 274 C 272 261 303 245 329 226 C 354 207 367 176 367 133 C 367 110 362 90 353 72 C 344 54 332 39 317 27 C 302 15 284 5 264 0 C 244 -6 222 -10 200 -10 Z M 194 495 L 194 495 Z M 3 670 L 141 670 L 195 594 L 250 670 L 385 670 L 270 495 L 119 495 L 3 670 Z" unicode="š" />
<glyph horiz-adv-x="516" d="M 8 0 L 8 0 Z M 508 587 L 342 587 L 342 0 L 172 0 L 172 587 L 8 587 L 8 730 L 508 730 L 508 587 Z M 257 789 L 257 789 Z M 66 964 L 204 964 L 258 888 L 313 964 L 448 964 L 333 789 L 182 789 L 66 964 Z" unicode="Ť" />
<glyph horiz-adv-x="294" d="M 5 0 L 5 0 Z M 277 125 L 288 6 C 284 3 276 0 265 -2 C 254 -4 240 -6 223 -6 C 205 -6 186 -3 166 1 C 145 5 126 13 109 25 C 91 36 77 52 65 72 C 53 92 48 117 48 147 L 48 312 L 5 312 L 5 436 L 49 436 L 49 559 L 201 573 L 201 436 L 272 436 L 272 312 L 203 312 L 203 174 C 203 153 207 139 216 133 C 225 126 238 123 256 123 C 258 123 262 123 268 123 C 273 123 276 124 277 125 Z M 405 619 L 399 460 L 265 460 L 259 619 L 259 730 L 405 730 L 405 619 Z" unicode="ť" />
<glyph horiz-adv-x="516" d="M 448 376 L 342 376 L 342 0 L 172 0 L 172 376 L 65 376 L 65 479 L 172 479 L 172 587 L 8 587 L 8 730 L 508 730 L 508 587 L 342 587 L 342 479 L 448 479 L 448 376 Z" unicode="Ŧ" />
<glyph horiz-adv-x="294" d="M 288 6 C 284 3 276 0 265 -2 C 254 -4 240 -6 223 -6 C 205 -6 186 -3 166 1 C 145 5 126 13 109 25 C 91 36 77 52 65 72 C 53 92 48 117 48 147 L 48 202 L 16 202 L 16 277 L 48 277 L 48 312 L 5 312 L 5 436 L 49 436 L 49 559 L 201 573 L 201 436 L 272 436 L 272 312 L 203 312 L 203 277 L 261 277 L 261 202 L 203 202 L 203 174 C 203 153 207 139 216 133 C 225 126 238 123 256 123 C 258 123 262 123 268 123 C 273 123 276 124 277 125 L 288 6 Z" unicode="ŧ" />
<glyph horiz-adv-x="681" d="M 62 0 L 62 0 Z M 618 730 L 618 254 C 618 211 610 173 595 140 C 580 107 560 80 534 58 C 508 36 478 19 444 7 C 410 -4 374 -10 336 -10 C 298 -10 263 -4 230 6 C 196 17 167 33 143 55 C 118 77 98 104 84 138 C 69 171 62 210 62 254 L 62 730 L 229 730 L 229 245 C 229 211 238 183 258 163 C 278 142 304 132 337 132 C 370 132 397 141 418 161 C 438 181 449 209 449 245 L 449 730 L 618 730 Z M 339 791 L 339 791 Z M 404 950 L 524 950 C 524 896 515 856 497 830 C 479 804 457 791 431 791 C 410 791 393 794 379 800 C 365 806 354 811 346 816 C 337 820 329 825 321 829 C 313 833 306 836 299 836 C 291 836 285 832 281 824 C 277 816 274 806 274 794 L 157 794 C 157 847 167 887 189 913 C 210 939 233 953 257 953 C 277 953 293 950 306 944 C 318 938 329 933 338 928 C 345 923 352 919 358 915 C 364 911 371 910 377 910 C 383 910 389 913 395 920 C 401 926 404 936 404 950 Z" unicode="Ũ" />
<glyph horiz-adv-x="513" d="M 37 0 L 37 0 Z M 37 436 L 193 436 L 193 165 C 193 147 198 133 209 125 C 219 117 233 113 251 113 C 271 113 286 118 298 129 C 310 139 316 155 316 176 L 316 436 L 471 436 L 471 0 L 324 0 L 324 56 C 309 35 290 19 266 9 C 242 -1 216 -7 188 -7 C 147 -7 112 5 82 30 C 52 54 37 92 37 142 L 37 436 Z M 256 497 L 256 497 Z M 321 656 L 441 656 C 441 602 432 562 414 536 C 396 510 374 497 348 497 C 327 497 310 500 296 506 C 282 512 271 517 263 522 C 254 526 246 531 238 535 C 230 539 223 542 216 542 C 208 542 202 538 198 530 C 194 522 191 512 191 500 L 74 500 C 74 553 84 593 106 619 C 127 645 150 659 174 659 C 194 659 210 656 223 650 C 235 644 246 639 255 634 C 262 629 269 625 275 621 C 281 617 288 616 294 616 C 300 616 306 619 312 626 C 318 632 321 642 321 656 Z" unicode="ũ" />
<glyph horiz-adv-x="681" d="M 62 0 L 62 0 Z M 618 730 L 618 254 C 618 211 610 173 595 140 C 580 107 560 80 534 58 C 508 36 478 19 444 7 C 410 -4 374 -10 336 -10 C 298 -10 263 -4 230 6 C 196 17 167 33 143 55 C 118 77 98 104 84 138 C 69 171 62 210 62 254 L 62 730 L 229 730 L 229 245 C 229 211 238 183 258 163 C 278 142 304 132 337 132 C 370 132 397 141 418 161 C 438 181 449 209 449 245 L 449 730 L 618 730 Z M 339 799 L 339 799 Z M 484 799 L 194 799 L 194 914 L 484 914 L 484 799 Z" unicode="Ū" />
<glyph horiz-adv-x="513" d="M 37 0 L 37 0 Z M 37 436 L 193 436 L 193 165 C 193 147 198 133 209 125 C 219 117 233 113 251 113 C 271 113 286 118 298 129 C 310 139 316 155 316 176 L 316 436 L 471 436 L 471 0 L 324 0 L 324 56 C 309 35 290 19 266 9 C 242 -1 216 -7 188 -7 C 147 -7 112 5 82 30 C 52 54 37 92 37 142 L 37 436 Z M 256 505 L 256 505 Z M 401 505 L 111 505 L 111 620 L 401 620 L 401 505 Z" unicode="ū" />
<glyph horiz-adv-x="681" d="M 62 0 L 62 0 Z M 618 730 L 618 254 C 618 211 610 173 595 140 C 580 107 560 80 534 58 C 508 36 478 19 444 7 C 410 -4 374 -10 336 -10 C 298 -10 263 -4 230 6 C 196 17 167 33 143 55 C 118 77 98 104 84 138 C 69 171 62 210 62 254 L 62 730 L 229 730 L 229 245 C 229 211 238 183 258 163 C 278 142 304 132 337 132 C 370 132 397 141 418 161 C 438 181 449 209 449 245 L 449 730 L 618 730 Z M 339 788 L 339 788 Z M 385 951 L 514 951 C 509 895 491 853 459 827 C 427 801 387 788 339 788 C 291 788 251 801 219 827 C 187 853 168 895 164 951 L 294 951 C 294 926 298 907 305 894 C 312 881 323 875 339 875 C 354 875 365 881 373 893 C 380 905 384 924 385 951 Z" unicode="Ŭ" />
<glyph horiz-adv-x="513" d="M 37 0 L 37 0 Z M 37 436 L 193 436 L 193 165 C 193 147 198 133 209 125 C 219 117 233 113 251 113 C 271 113 286 118 298 129 C 310 139 316 155 316 176 L 316 436 L 471 436 L 471 0 L 324 0 L 324 56 C 309 35 290 19 266 9 C 242 -1 216 -7 188 -7 C 147 -7 112 5 82 30 C 52 54 37 92 37 142 L 37 436 Z M 256 494 L 256 494 Z M 302 657 L 431 657 C 426 601 408 559 376 533 C 344 507 304 494 256 494 C 208 494 168 507 136 533 C 104 559 85 601 81 657 L 211 657 C 211 632 215 613 222 600 C 229 587 240 581 256 581 C 271 581 282 587 290 599 C 297 611 301 630 302 657 Z" unicode="ŭ" />
<glyph horiz-adv-x="681" d="M 62 0 L 62 0 Z M 618 730 L 618 254 C 618 211 610 173 595 140 C 580 107 560 80 534 58 C 508 36 478 19 444 7 C 410 -4 374 -10 336 -10 C 298 -10 263 -4 230 6 C 196 17 167 33 143 55 C 118 77 98 104 84 138 C 69 171 62 210 62 254 L 62 730 L 229 730 L 229 245 C 229 211 238 183 258 163 C 278 142 304 132 337 132 C 370 132 397 141 418 161 C 438 181 449 209 449 245 L 449 730 L 618 730 Z M 339 784 L 339 784 Z M 339 784 C 305 784 276 795 253 819 C 229 842 218 871 218 905 C 218 938 229 966 253 990 C 276 1014 305 1026 339 1026 C 373 1026 401 1014 425 990 C 449 966 461 938 461 905 C 461 871 449 842 425 819 C 401 795 373 784 339 784 Z M 339 861 C 351 861 362 865 370 873 C 378 881 382 892 382 905 C 382 917 378 927 370 935 C 362 943 351 948 339 948 C 327 948 316 943 308 935 C 300 927 296 917 296 905 C 296 892 300 881 308 873 C 316 865 327 861 339 861 Z" unicode="Ů" />
<glyph horiz-adv-x="513" d="M 37 0 L 37 0 Z M 37 436 L 193 436 L 193 165 C 193 147 198 133 209 125 C 219 117 233 113 251 113 C 271 113 286 118 298 129 C 310 139 316 155 316 176 L 316 436 L 471 436 L 471 0 L 324 0 L 324 56 C 309 35 290 19 266 9 C 242 -1 216 -7 188 -7 C 147 -7 112 5 82 30 C 52 54 37 92 37 142 L 37 436 Z M 256 490 L 256 490 Z M 256 490 C 222 490 193 501 170 525 C 146 548 135 577 135 611 C 135 644 146 672 170 696 C 193 720 222 732 256 732 C 290 732 318 720 342 696 C 366 672 378 644 378 611 C 378 577 366 548 342 525 C 318 501 290 490 256 490 Z M 256 567 C 268 567 279 571 287 579 C 295 587 299 598 299 611 C 299 623 295 633 287 641 C 279 649 268 654 256 654 C 244 654 233 649 225 641 C 217 633 213 623 213 611 C 213 598 217 587 225 579 C 233 571 244 567 256 567 Z" unicode="ů" />
<glyph horiz-adv-x="681" d="M 62 0 L 62 0 Z M 618 730 L 618 254 C 618 211 610 173 595 140 C 580 107 560 80 534 58 C 508 36 478 19 444 7 C 410 -4 374 -10 336 -10 C 298 -10 263 -4 230 6 C 196 17 167 33 143 55 C 118 77 98 104 84 138 C 69 171 62 210 62 254 L 62 730 L 229 730 L 229 245 C 229 211 238 183 258 163 C 278 142 304 132 337 132 C 370 132 397 141 418 161 C 438 181 449 209 449 245 L 449 730 L 618 730 Z M 339 789 L 339 789 Z M 102 789 L 190 948 L 356 948 L 238 789 L 102 789 Z M 323 789 L 412 948 L 577 948 L 459 789 L 323 789 Z" unicode="Ű" />
<glyph horiz-adv-x="513" d="M 19 0 L 19 0 Z M 37 436 L 193 436 L 193 165 C 193 147 198 133 209 125 C 219 117 233 113 251 113 C 271 113 286 118 298 129 C 310 139 316 155 316 176 L 316 436 L 471 436 L 471 0 L 324 0 L 324 56 C 309 35 290 19 266 9 C 242 -1 216 -7 188 -7 C 147 -7 112 5 82 30 C 52 54 37 92 37 142 L 37 436 Z M 256 495 L 256 495 Z M 19 495 L 107 654 L 273 654 L 155 495 L 19 495 Z M 240 495 L 329 654 L 494 654 L 376 495 L 240 495 Z" unicode="ű" />
<glyph horiz-adv-x="681" d="M 62 0 L 62 0 Z M 618 730 L 618 254 C 618 211 610 173 595 140 C 580 107 560 80 534 58 C 508 36 478 19 444 7 C 410 -4 374 -10 336 -10 C 298 -10 263 -4 230 6 C 196 17 167 33 143 55 C 118 77 98 104 84 138 C 69 171 62 210 62 254 L 62 730 L 229 730 L 229 245 C 229 211 238 183 258 163 C 278 142 304 132 337 132 C 370 132 397 141 418 161 C 438 181 449 209 449 245 L 449 730 L 618 730 Z M 392 -4 L 392 -4 Z M 489 -63 L 529 -128 C 506 -152 482 -170 457 -182 C 431 -194 402 -200 370 -200 C 333 -200 305 -192 285 -177 C 265 -162 255 -143 255 -120 C 255 -94 266 -70 290 -48 C 314 -26 347 -7 389 9 L 451 9 C 431 0 416 -10 404 -22 C 392 -34 387 -45 387 -56 C 387 -66 390 -73 397 -78 C 404 -83 413 -86 424 -86 C 438 -86 450 -83 461 -79 C 471 -75 481 -69 489 -63 Z" unicode="Ų" />
<glyph horiz-adv-x="513" d="M 37 0 L 37 0 Z M 37 436 L 193 436 L 193 165 C 193 147 198 133 209 125 C 219 117 233 113 251 113 C 271 113 286 118 298 129 C 310 139 316 155 316 176 L 316 436 L 471 436 L 471 0 L 324 0 L 324 56 C 309 35 290 19 266 9 C 242 -1 216 -7 188 -7 C 147 -7 112 5 82 30 C 52 54 37 92 37 142 L 37 436 Z M 348 -4 L 348 -4 Z M 445 -63 L 485 -128 C 462 -152 438 -170 413 -182 C 387 -194 358 -200 326 -200 C 289 -200 261 -192 241 -177 C 221 -162 211 -143 211 -120 C 211 -94 222 -70 246 -48 C 270 -26 303 -7 345 9 L 407 9 C 387 0 372 -10 360 -22 C 348 -34 343 -45 343 -56 C 343 -66 346 -73 353 -78 C 360 -83 369 -86 380 -86 C 394 -86 406 -83 417 -79 C 427 -75 437 -69 445 -63 Z" unicode="ų" />
<glyph horiz-adv-x="867" d="M 0 0 L 0 0 Z M 861 730 L 652 -6 L 565 -6 L 430 440 L 290 -6 L 203 -6 L -3 730 L 162 730 L 271 311 L 393 731 L 483 731 L 604 311 L 709 730 L 861 730 Z M 439 789 L 439 789 Z M 630 789 L 493 789 L 438 865 L 384 789 L 248 789 L 364 964 L 515 964 L 630 789 Z" unicode="Ŵ" />
<glyph horiz-adv-x="654" d="M 0 0 L 0 0 Z M 413 -3 L 329 228 L 245 -3 L 152 -3 L 0 436 L 151 436 L 221 209 L 292 415 L 379 415 L 452 209 L 524 436 L 654 436 L 503 -3 L 413 -3 Z M 335 495 L 335 495 Z M 526 495 L 389 495 L 334 571 L 280 495 L 144 495 L 260 670 L 411 670 L 526 495 Z" unicode="ŵ" />
<glyph horiz-adv-x="601" d="M 0 0 L 0 0 Z M 625 730 L 390 310 L 390 0 L 220 0 L 220 316 L -8 730 L 174 730 L 313 470 L 453 730 L 625 730 Z M 312 789 L 312 789 Z M 503 789 L 366 789 L 311 865 L 257 789 L 121 789 L 237 964 L 388 964 L 503 789 Z" unicode="Ŷ" />
<glyph horiz-adv-x="477" d="M 0 0 L 0 0 Z M 486 436 L 248 -90 C 227 -134 200 -163 168 -178 C 136 -192 104 -200 74 -200 C 56 -200 40 -198 27 -194 C 13 -190 3 -187 -3 -185 L 35 -66 C 37 -67 43 -69 51 -71 C 59 -73 67 -75 75 -75 C 90 -75 102 -70 111 -62 C 119 -54 128 -40 136 -22 L 168 51 L -6 436 L 160 436 L 247 215 L 337 436 L 486 436 Z M 244 495 L 244 495 Z M 435 495 L 298 495 L 243 571 L 189 495 L 53 495 L 169 670 L 320 670 L 435 495 Z" unicode="ŷ" />
<glyph horiz-adv-x="617" d="M 0 0 L 0 0 Z M 625 730 L 390 310 L 390 0 L 220 0 L 220 316 L -8 730 L 174 730 L 313 470 L 453 730 L 625 730 Z M 312 789 L 312 789 Z M 474 789 L 344 789 L 344 953 L 474 953 L 474 789 Z M 280 789 L 150 789 L 150 953 L 280 953 L 280 789 Z" unicode="Ÿ" />
<glyph horiz-adv-x="544" d="M 12 0 L 12 0 Z M 521 730 L 521 664 L 226 142 L 530 142 L 530 0 L 12 0 L 12 62 L 305 588 L 29 588 L 29 730 L 521 730 Z M 275 789 L 275 789 Z M 134 789 L 233 953 L 417 953 L 289 789 L 134 789 Z" unicode="Ź" />
<glyph horiz-adv-x="393" d="M 7 0 L 7 0 Z M 383 436 L 383 366 L 215 124 L 385 124 L 385 0 L 7 0 L 7 53 L 188 312 L 16 312 L 16 436 L 383 436 Z M 199 495 L 199 495 Z M 58 495 L 157 659 L 341 659 L 213 495 L 58 495 Z" unicode="ź" />
<glyph horiz-adv-x="544" d="M 12 0 L 12 0 Z M 521 730 L 521 664 L 226 142 L 530 142 L 530 0 L 12 0 L 12 62 L 305 588 L 29 588 L 29 730 L 521 730 Z M 275 793 L 275 793 Z M 346 793 L 205 793 L 205 952 L 346 952 L 346 793 Z" unicode="Ż" />
<glyph horiz-adv-x="393" d="M 7 0 L 7 0 Z M 383 436 L 383 366 L 215 124 L 385 124 L 385 0 L 7 0 L 7 53 L 188 312 L 16 312 L 16 436 L 383 436 Z M 199 499 L 199 499 Z M 270 499 L 129 499 L 129 658 L 270 658 L 270 499 Z" unicode="ż" />
<glyph horiz-adv-x="557" d="M 12 0 L 12 0 Z M 521 730 L 521 664 L 226 142 L 530 142 L 530 0 L 12 0 L 12 62 L 305 588 L 29 588 L 29 730 L 521 730 Z M 275 789 L 275 789 Z M 84 964 L 222 964 L 276 888 L 331 964 L 466 964 L 351 789 L 200 789 L 84 964 Z" unicode="Ž" />
<glyph horiz-adv-x="393" d="M 7 0 L 7 0 Z M 383 436 L 383 366 L 215 124 L 385 124 L 385 0 L 7 0 L 7 53 L 188 312 L 16 312 L 16 436 L 383 436 Z" unicode="ž" />
<glyph horiz-adv-x="392" d="M 224 -42 C 222 -58 218 -74 211 -90 C 204 -106 195 -121 183 -134 C 171 -147 157 -158 141 -166 C 124 -174 105 -179 84 -179 C 59 -179 36 -176 15 -172 C -6 -168 -22 -162 -34 -156 L -19 -45 C -14 -45 -7 -47 2 -49 C 12 -51 21 -53 30 -53 C 47 -53 61 -47 72 -35 C 82 -23 89 -6 91 16 L 117 312 L 26 312 L 26 433 L 128 433 L 144 610 C 146 632 152 652 162 670 C 172 687 184 701 198 712 C 212 723 228 731 245 737 C 261 743 278 746 294 746 C 310 746 328 745 346 744 C 364 743 374 742 378 742 L 367 609 C 365 609 361 610 355 611 C 349 611 343 612 337 612 C 318 612 303 605 292 593 C 281 580 275 560 273 534 L 264 433 L 363 433 L 363 312 L 254 312 L 224 -42 Z" unicode="ƒ" />
<glyph horiz-adv-x="494" d="M 9 0 L 9 0 Z M 255 -10 C 203 -10 157 -2 115 11 C 73 25 38 48 9 80 L 100 190 C 114 171 134 155 160 141 C 186 127 213 121 242 121 C 264 121 284 127 300 140 C 316 153 324 171 324 195 C 324 219 314 239 296 255 C 277 270 253 286 223 302 C 203 312 181 324 159 338 C 137 352 117 368 99 387 C 81 405 66 427 54 453 C 42 479 36 509 36 545 C 36 601 56 648 98 685 C 139 721 192 740 256 740 C 298 740 335 733 367 721 C 399 709 428 693 452 673 L 375 563 C 360 575 343 586 325 594 C 307 602 288 607 268 607 C 245 607 227 600 213 588 C 199 576 192 561 192 544 C 192 523 201 506 217 492 C 233 478 264 459 310 435 C 363 407 404 376 434 341 C 464 306 479 260 479 202 C 479 166 472 135 460 109 C 447 82 430 60 409 42 C 388 24 364 11 337 3 C 310 -5 283 -10 255 -10 Z M 232 -62 L 232 -62 Z M 349 -62 C 349 -86 344 -113 336 -143 C 327 -172 317 -200 305 -226 C 293 -252 281 -276 267 -296 C 253 -316 242 -329 232 -335 L 115 -283 C 123 -273 131 -260 139 -244 C 147 -228 154 -210 161 -190 C 168 -170 174 -148 179 -126 C 184 -104 187 -82 189 -62 L 349 -62 Z" unicode="Ș" />
<glyph horiz-adv-x="382" d="M 9 0 L 9 0 Z M 200 -10 C 160 -10 123 -4 90 6 C 56 16 29 30 9 48 L 73 143 C 89 128 108 117 131 109 C 154 101 175 98 193 98 C 204 98 213 100 221 105 C 228 109 232 116 232 125 C 232 135 224 144 209 151 C 193 158 174 166 151 174 C 137 178 122 184 107 191 C 92 198 78 207 66 218 C 53 228 43 241 35 257 C 27 273 23 292 23 315 C 23 351 38 382 70 408 C 102 434 143 448 193 448 C 225 448 257 443 289 433 C 320 423 343 412 358 401 L 301 306 C 289 314 273 322 255 329 C 236 336 218 340 200 340 C 190 340 180 338 171 336 C 161 333 157 327 157 319 C 157 311 162 304 173 298 C 184 292 205 284 236 274 C 272 261 303 245 329 226 C 354 207 367 176 367 133 C 367 110 362 90 353 72 C 344 54 332 39 317 27 C 302 15 284 5 264 0 C 244 -6 222 -10 200 -10 Z M 181 -62 L 181 -62 Z M 298 -62 C 298 -86 293 -113 285 -143 C 276 -172 266 -200 254 -226 C 242 -252 230 -276 216 -296 C 202 -316 191 -329 181 -335 L 64 -283 C 72 -273 80 -260 88 -244 C 96 -228 103 -210 110 -190 C 117 -170 123 -148 128 -126 C 133 -104 136 -82 138 -62 L 298 -62 Z" unicode="ș" />
<glyph horiz-adv-x="516" d="M 8 0 L 8 0 Z M 508 587 L 342 587 L 342 0 L 172 0 L 172 587 L 8 587 L 8 730 L 508 730 L 508 587 Z M 240 -62 L 240 -62 Z M 357 -62 C 357 -86 352 -113 344 -143 C 335 -172 325 -200 313 -226 C 301 -252 289 -276 275 -296 C 261 -316 250 -329 240 -335 L 123 -283 C 131 -273 139 -260 147 -244 C 155 -228 162 -210 169 -190 C 176 -170 182 -148 187 -126 C 192 -104 195 -82 197 -62 L 357 -62 Z" unicode="Ț" />
<glyph horiz-adv-x="294" d="M 5 0 L 5 0 Z M 277 125 L 288 6 C 284 3 276 0 265 -2 C 254 -4 240 -6 223 -6 C 205 -6 186 -3 166 1 C 145 5 126 13 109 25 C 91 36 77 52 65 72 C 53 92 48 117 48 147 L 48 312 L 5 312 L 5 436 L 49 436 L 49 559 L 201 573 L 201 436 L 272 436 L 272 312 L 203 312 L 203 174 C 203 153 207 139 216 133 C 225 126 238 123 256 123 C 258 123 262 123 268 123 C 273 123 276 124 277 125 Z M 143 -62 L 143 -62 Z M 260 -62 C 260 -86 255 -113 247 -143 C 238 -172 228 -200 216 -226 C 204 -252 192 -276 178 -296 C 164 -316 153 -329 143 -335 L 26 -283 C 34 -273 42 -260 50 -244 C 58 -228 65 -210 72 -190 C 79 -170 85 -148 90 -126 C 95 -104 98 -82 100 -62 L 260 -62 Z" unicode="ț" />
<glyph horiz-adv-x="234" d="M 196 436 L 196 -56 C 196 -73 193 -90 187 -108 C 181 -126 171 -141 159 -155 C 147 -169 131 -180 112 -189 C 93 -197 70 -201 44 -201 C 30 -201 13 -200 -4 -198 C -22 -196 -36 -193 -45 -191 L -36 -78 C -32 -78 -26 -79 -20 -79 C -14 -79 -7 -80 -1 -80 C 11 -80 20 -75 28 -67 C 36 -59 40 -47 40 -33 L 40 436 L 196 436 Z" unicode="ȷ" />
<glyph horiz-adv-x="500" d="M 441 495 L 304 495 L 249 571 L 195 495 L 59 495 L 175 670 L 326 670 L 441 495 Z" unicode="ˆ" />
<glyph horiz-adv-x="500" d="M 59 670 L 197 670 L 251 594 L 306 670 L 441 670 L 326 495 L 175 495 L 59 670 Z" unicode="ˇ" />
<glyph horiz-adv-x="500" d="M 296 657 L 425 657 C 420 601 402 559 370 533 C 338 507 298 494 250 494 C 202 494 162 507 130 533 C 98 559 79 601 75 657 L 205 657 C 205 632 209 613 216 600 C 223 587 234 581 250 581 C 265 581 276 587 284 599 C 291 611 295 630 296 657 Z" unicode="˘" />
<glyph horiz-adv-x="500" d="M 321 499 L 180 499 L 180 658 L 321 658 L 321 499 Z" unicode="˙" />
<glyph horiz-adv-x="500" d="M 250 490 C 216 490 187 501 164 525 C 140 548 129 577 129 611 C 129 644 140 672 164 696 C 187 720 216 732 250 732 C 284 732 312 720 336 696 C 360 672 372 644 372 611 C 372 577 360 548 336 525 C 312 501 284 490 250 490 Z M 250 567 C 262 567 273 571 281 579 C 289 587 293 598 293 611 C 293 623 289 633 281 641 C 273 649 262 654 250 654 C 238 654 227 649 219 641 C 211 633 207 623 207 611 C 207 598 211 587 219 579 C 227 571 238 567 250 567 Z" unicode="˚" />
<glyph horiz-adv-x="500" d="M 360 -59 L 400 -124 C 377 -148 353 -166 328 -178 C 302 -190 273 -196 241 -196 C 204 -196 176 -188 156 -173 C 136 -158 126 -139 126 -116 C 126 -90 137 -66 161 -44 C 185 -22 218 -3 260 13 L 322 13 C 302 4 287 -6 275 -18 C 263 -30 258 -41 258 -52 C 258 -62 261 -69 268 -74 C 275 -79 284 -82 295 -82 C 309 -82 321 -79 332 -75 C 342 -71 352 -65 360 -59 Z" unicode="˛" />
<glyph horiz-adv-x="500" d="M 321 656 L 441 656 C 441 602 432 562 414 536 C 396 510 374 497 348 497 C 327 497 310 500 296 506 C 282 512 271 517 263 522 C 254 526 246 531 238 535 C 230 539 223 542 216 542 C 208 542 202 538 198 530 C 194 522 191 512 191 500 L 74 500 C 74 553 84 593 106 619 C 127 645 150 659 174 659 C 194 659 210 656 223 650 C 235 644 246 639 255 634 C 262 629 269 625 275 621 C 281 617 288 616 294 616 C 300 616 306 619 312 626 C 318 632 321 642 321 656 Z" unicode="˜" />
<glyph horiz-adv-x="500" d="M 36 495 L 124 654 L 290 654 L 172 495 L 36 495 Z M 257 495 L 346 654 L 511 654 L 393 495 L 257 495 Z" unicode="˝" />
<glyph horiz-adv-x="0" d="M 0 495 L 0 495 Z M 143 495 L -13 495 L -142 659 L 42 659 L 143 495 Z" unicode="̀" />
<glyph horiz-adv-x="0" d="M 0 495 L 0 495 Z M -141 495 L -42 659 L 142 659 L 14 495 L -141 495 Z" unicode="́" />
<glyph horiz-adv-x="0" d="M 0 495 L 0 495 Z M 191 495 L 54 495 L -1 571 L -55 495 L -191 495 L -75 670 L 76 670 L 191 495 Z" unicode="̂" />
<glyph horiz-adv-x="0" d="M 0 497 L 0 497 Z M 65 656 L 185 656 C 185 602 176 562 158 536 C 140 510 118 497 92 497 C 71 497 54 500 40 506 C 26 512 15 517 7 522 C -1 526 -9 531 -17 535 C -25 539 -32 542 -40 542 C -47 542 -53 538 -57 530 C -61 522 -64 512 -65 500 L -182 500 C -182 553 -171 593 -150 619 C -128 645 -106 659 -82 659 C -62 659 -45 656 -33 650 C -20 644 -9 639 -1 634 C 6 629 13 625 19 621 C 25 617 32 616 38 616 C 44 616 50 619 56 626 C 62 632 65 642 65 656 Z" unicode="̃" />
<glyph horiz-adv-x="0" d="M 0 505 L 0 505 Z M 145 505 L -145 505 L -145 620 L 145 620 L 145 505 Z" unicode="̄" />
<glyph horiz-adv-x="0" d="M 0 494 L 0 494 Z M 46 657 L 175 657 C 170 601 152 559 120 533 C 88 507 48 494 0 494 C -48 494 -88 507 -120 533 C -152 559 -170 601 -175 657 L -45 657 C -44 632 -40 613 -33 600 C -26 587 -15 581 0 581 C 15 581 26 587 34 599 C 41 611 45 630 46 657 Z" unicode="̆" />
<glyph horiz-adv-x="0" d="M 0 499 L 0 499 Z M 71 499 L -70 499 L -70 658 L 71 658 L 71 499 Z" unicode="̇" />
<glyph horiz-adv-x="0" d="M 0 495 L 0 495 Z M 162 495 L 32 495 L 32 659 L 162 659 L 162 495 Z M -32 495 L -162 495 L -162 659 L -32 659 L -32 495 Z" unicode="̈" />
<glyph horiz-adv-x="0" d="M 0 490 L 0 490 Z M 0 490 C -34 490 -62 501 -86 525 C -109 548 -121 577 -121 611 C -121 644 -109 672 -86 696 C -62 720 -34 732 0 732 C 34 732 62 720 86 696 C 110 672 122 644 122 611 C 122 577 110 548 86 525 C 62 501 34 490 0 490 Z M 0 567 C 12 567 23 571 31 579 C 39 587 43 598 43 611 C 43 623 39 633 31 641 C 23 649 12 654 0 654 C -12 654 -22 649 -30 641 C -38 633 -43 623 -43 611 C -43 598 -38 587 -30 579 C -22 571 -12 567 0 567 Z" unicode="̊" />
<glyph horiz-adv-x="0" d="M 0 495 L 0 495 Z M -237 495 L -149 654 L 17 654 L -101 495 L -237 495 Z M -16 495 L 73 654 L 238 654 L 120 495 L -16 495 Z" unicode="̋" />
<glyph horiz-adv-x="0" d="M 0 495 L 0 495 Z M -191 670 L -53 670 L 1 594 L 56 670 L 191 670 L 76 495 L -75 495 L -191 670 Z" unicode="̌" />
<glyph horiz-adv-x="0" d="M 0 -62 L 0 -62 Z M 117 -62 C 117 -86 112 -113 104 -143 C 95 -172 85 -200 73 -226 C 61 -252 49 -276 35 -296 C 21 -316 10 -329 0 -335 L -117 -283 C -109 -273 -101 -260 -93 -244 C -85 -228 -77 -210 -70 -190 C -63 -170 -57 -148 -52 -126 C -47 -104 -44 -82 -43 -62 L 117 -62 Z" unicode="̦" />
<glyph horiz-adv-x="0" d="M 0 0 L 0 0 Z M 7 -191 C -19 -191 -45 -188 -71 -182 C -97 -176 -117 -168 -131 -159 L -112 -96 C -104 -99 -94 -103 -80 -108 C -66 -112 -53 -115 -39 -115 C -30 -115 -22 -113 -16 -109 C -10 -105 -7 -100 -7 -94 C -7 -87 -9 -82 -15 -79 C -21 -76 -27 -75 -34 -75 C -38 -75 -43 -75 -47 -76 C -51 -76 -55 -77 -59 -79 L -80 -57 L -18 14 L 71 14 L 26 -40 C 56 -37 81 -42 101 -55 C 120 -68 130 -87 130 -111 C 130 -137 117 -157 92 -171 C 67 -184 39 -191 7 -191 Z" unicode="̧" />
<glyph horiz-adv-x="0" d="M 0 0 L 0 0 Z M 97 -59 L 137 -124 C 114 -148 90 -166 65 -178 C 39 -190 10 -196 -22 -196 C -58 -196 -87 -188 -107 -173 C -127 -158 -137 -139 -137 -116 C -137 -90 -125 -66 -101 -44 C -77 -22 -45 -3 -3 13 L 59 13 C 39 4 24 -6 12 -18 C 0 -30 -5 -41 -5 -52 C -5 -62 -1 -69 5 -74 C 12 -79 21 -82 32 -82 C 46 -82 58 -79 69 -75 C 79 -71 89 -65 97 -59 Z" unicode="̨" />
<glyph horiz-adv-x="563" d="M 0 0 L 0 0 Z M 634 0 L -3 0 L 296 730 L 336 730 L 634 0 Z M 430 120 L 312 433 L 194 120 L 430 120 Z" unicode="Δ" />
<glyph horiz-adv-x="646" d="" unicode="Ω" />
<glyph horiz-adv-x="578" d="M 49 0 L 49 0 Z M 49 -86 L 49 442 L 205 442 L 205 173 C 205 155 211 141 225 132 C 239 122 256 118 276 118 C 300 118 320 123 335 135 C 349 147 357 162 357 181 L 357 442 L 512 442 L 512 0 L 370 0 L 370 69 C 356 49 339 32 317 19 C 295 6 271 -1 247 -4 C 235 -4 224 -3 214 1 C 204 5 197 10 192 17 L 192 -86 L 49 -86 Z" unicode="μ" />
<glyph horiz-adv-x="607" d="M 227 357 L 227 0 L 73 0 L 73 357 L 15 357 L 15 476 L 592 476 L 592 357 L 533 357 L 533 0 L 378 0 L 378 357 L 227 357 Z" unicode="π" />
<glyph horiz-adv-x="867" d="M 0 0 L 0 0 Z M 861 730 L 652 -6 L 565 -6 L 430 440 L 290 -6 L 203 -6 L -3 730 L 162 730 L 271 311 L 393 731 L 483 731 L 604 311 L 709 730 L 861 730 Z M 439 789 L 439 789 Z M 582 789 L 426 789 L 297 953 L 481 953 L 582 789 Z" unicode="Ẁ" />
<glyph horiz-adv-x="654" d="M 0 0 L 0 0 Z M 413 -3 L 329 228 L 245 -3 L 152 -3 L 0 436 L 151 436 L 221 209 L 292 415 L 379 415 L 452 209 L 524 436 L 654 436 L 503 -3 L 413 -3 Z M 335 495 L 335 495 Z M 478 495 L 322 495 L 193 659 L 377 659 L 478 495 Z" unicode="ẁ" />
<glyph horiz-adv-x="867" d="M 0 0 L 0 0 Z M 861 730 L 652 -6 L 565 -6 L 430 440 L 290 -6 L 203 -6 L -3 730 L 162 730 L 271 311 L 393 731 L 483 731 L 604 311 L 709 730 L 861 730 Z M 439 789 L 439 789 Z M 298 789 L 397 953 L 581 953 L 453 789 L 298 789 Z" unicode="Ẃ" />
<glyph horiz-adv-x="654" d="M 0 0 L 0 0 Z M 413 -3 L 329 228 L 245 -3 L 152 -3 L 0 436 L 151 436 L 221 209 L 292 415 L 379 415 L 452 209 L 524 436 L 654 436 L 503 -3 L 413 -3 Z M 335 495 L 335 495 Z M 194 495 L 293 659 L 477 659 L 349 495 L 194 495 Z" unicode="ẃ" />
<glyph horiz-adv-x="867" d="M 0 0 L 0 0 Z M 861 730 L 652 -6 L 565 -6 L 430 440 L 290 -6 L 203 -6 L -3 730 L 162 730 L 271 311 L 393 731 L 483 731 L 604 311 L 709 730 L 861 730 Z M 439 789 L 439 789 Z M 601 789 L 471 789 L 471 953 L 601 953 L 601 789 Z M 407 789 L 277 789 L 277 953 L 407 953 L 407 789 Z" unicode="Ẅ" />
<glyph horiz-adv-x="654" d="M 0 0 L 0 0 Z M 413 -3 L 329 228 L 245 -3 L 152 -3 L 0 436 L 151 436 L 221 209 L 292 415 L 379 415 L 452 209 L 524 436 L 654 436 L 503 -3 L 413 -3 Z M 335 495 L 335 495 Z M 497 495 L 367 495 L 367 659 L 497 659 L 497 495 Z M 303 495 L 173 495 L 173 659 L 303 659 L 303 495 Z" unicode="ẅ" />
<glyph horiz-adv-x="601" d="M 0 0 L 0 0 Z M 625 730 L 390 310 L 390 0 L 220 0 L 220 316 L -8 730 L 174 730 L 313 470 L 453 730 L 625 730 Z M 312 789 L 312 789 Z M 455 789 L 299 789 L 170 953 L 354 953 L 455 789 Z" unicode="Ỳ" />
<glyph horiz-adv-x="477" d="M 0 0 L 0 0 Z M 486 436 L 248 -90 C 227 -134 200 -163 168 -178 C 136 -192 104 -200 74 -200 C 56 -200 40 -198 27 -194 C 13 -190 3 -187 -3 -185 L 35 -66 C 37 -67 43 -69 51 -71 C 59 -73 67 -75 75 -75 C 90 -75 102 -70 111 -62 C 119 -54 128 -40 136 -22 L 168 51 L -6 436 L 160 436 L 247 215 L 337 436 L 486 436 Z M 244 495 L 244 495 Z M 387 495 L 231 495 L 102 659 L 286 659 L 387 495 Z" unicode="ỳ" />
<glyph horiz-adv-x="460" d="M 424 189 L 37 189 L 37 324 L 424 324 L 424 189 Z" unicode="–" />
<glyph horiz-adv-x="645" d="M 609 189 L 37 189 L 37 324 L 609 324 L 609 189 Z" unicode="—" />
<glyph horiz-adv-x="317" d="M 31 507 L 31 514 C 31 552 41 590 62 629 C 82 668 111 704 148 737 L 303 731 C 293 723 282 713 270 699 C 258 685 246 668 235 649 C 223 630 214 609 206 586 C 198 563 194 539 194 515 L 194 507 L 31 507 Z" unicode="‘" />
<glyph horiz-adv-x="317" d="M 285 737 L 285 730 C 285 692 274 653 254 615 C 233 577 205 541 169 507 L 13 513 C 22 521 33 533 46 547 C 58 561 70 578 82 597 C 93 615 103 636 111 658 C 119 680 123 704 123 729 L 123 737 L 285 737 Z" unicode="’" />
<glyph horiz-adv-x="317" d="M 285 121 L 285 114 C 285 76 274 37 254 0 C 233 -38 205 -75 169 -109 L 13 -103 C 22 -94 33 -82 46 -68 C 58 -54 70 -37 82 -19 C 93 0 103 20 111 42 C 119 64 123 88 123 113 L 123 121 L 285 121 Z" unicode="‚" />
<glyph horiz-adv-x="513" d="M 247 507 L 247 514 C 247 550 257 587 277 625 C 297 663 325 700 362 737 L 502 731 C 492 722 480 710 468 696 C 455 682 443 665 432 647 C 420 628 411 607 403 585 C 395 563 391 539 391 515 L 391 507 L 247 507 Z M 32 507 L 32 514 C 32 550 42 587 63 625 C 84 663 112 700 147 737 L 286 731 C 277 723 266 711 254 697 C 242 683 230 666 218 648 C 206 629 196 608 188 586 C 180 563 176 539 176 515 L 176 507 L 32 507 Z" unicode="“" />
<glyph horiz-adv-x="513" d="M 266 737 L 266 730 C 266 692 256 654 237 617 C 218 579 190 543 153 507 L 13 513 C 23 523 35 535 48 549 C 60 563 72 580 83 598 C 94 616 103 637 110 659 C 117 681 121 704 121 729 L 121 737 L 266 737 Z M 481 737 L 481 730 C 481 692 471 654 451 616 C 431 578 403 542 368 507 L 228 513 C 238 523 250 535 263 549 C 276 563 288 580 299 598 C 309 616 318 637 326 659 C 333 681 337 704 337 729 L 337 737 L 481 737 Z" unicode="”" />
<glyph horiz-adv-x="513" d="M 266 126 L 266 119 C 266 81 256 43 237 6 C 218 -31 190 -68 153 -104 L 13 -98 C 23 -88 35 -75 48 -61 C 60 -47 72 -30 83 -12 C 94 5 103 26 110 48 C 117 70 121 93 121 118 L 121 126 L 266 126 Z M 482 126 L 482 119 C 482 81 472 43 452 5 C 432 -32 404 -68 369 -104 L 229 -98 C 239 -88 251 -75 264 -61 C 276 -47 288 -30 299 -12 C 310 5 319 26 326 48 C 333 70 337 93 337 118 L 337 126 L 482 126 Z" unicode="„" />
<glyph horiz-adv-x="528" d="M 506 336 L 343 336 L 343 -179 L 179 -179 L 179 336 L 22 336 L 22 470 L 179 470 L 179 730 L 343 730 L 343 470 L 506 470 L 506 336 Z" unicode="†" />
<glyph horiz-adv-x="533" d="M 182 -179 L 182 70 L 32 70 L 32 203 L 182 203 L 182 358 L 32 358 L 32 491 L 182 491 L 182 730 L 345 730 L 345 491 L 501 491 L 501 358 L 345 358 L 345 203 L 501 203 L 501 70 L 345 70 L 345 -179 L 182 -179 Z" unicode="‡" />
<glyph horiz-adv-x="382" d="M 191 519 C 230 519 263 505 290 478 C 317 451 331 418 331 379 C 331 340 317 307 290 280 C 263 253 230 240 191 240 C 151 240 118 253 91 280 C 64 307 51 340 51 379 C 51 418 64 451 91 478 C 118 505 151 519 191 519 Z" unicode="•" />
<glyph horiz-adv-x="789" d="M 53 0 L 53 160 L 211 160 L 211 0 L 53 0 Z M 316 0 L 316 160 L 473 160 L 473 0 L 316 0 Z M 578 0 L 578 160 L 736 160 L 736 0 L 578 0 Z" unicode="…" />
<glyph horiz-adv-x="1126" d="M 195 361 C 177 361 158 364 139 372 C 119 380 102 391 86 407 C 70 423 57 442 47 466 C 37 490 32 517 32 549 C 32 575 36 600 45 623 C 53 646 65 666 80 683 C 94 700 111 713 131 723 C 150 733 170 738 191 738 C 214 738 236 733 256 723 C 276 713 293 699 308 683 C 322 666 334 646 342 624 C 350 601 355 577 355 552 C 355 525 350 500 342 477 C 333 453 321 433 306 416 C 291 398 274 385 255 375 C 235 365 215 361 195 361 Z M 132 0 L 539 730 L 620 730 L 212 0 L 132 0 Z M 155 550 C 155 526 158 507 164 492 C 170 476 180 469 195 469 C 211 469 221 476 227 492 C 233 507 236 526 236 550 C 236 572 233 591 228 607 C 222 623 212 631 196 631 C 180 631 170 623 164 607 C 158 591 155 572 155 550 Z M 570 -4 C 551 -4 532 0 513 7 C 493 15 476 26 461 42 C 445 58 433 77 423 101 C 413 125 409 152 409 184 C 409 237 424 282 456 318 C 488 354 527 373 573 373 C 597 373 619 368 639 358 C 659 348 676 334 690 318 C 704 301 715 281 723 259 C 731 236 735 212 735 187 C 735 160 730 135 722 112 C 714 88 702 68 688 51 C 673 33 655 20 635 10 C 615 0 593 -4 570 -4 Z M 929 -4 C 910 -4 891 0 872 7 C 852 15 835 26 820 42 C 804 58 792 77 782 101 C 772 125 768 152 768 184 C 768 237 783 282 815 318 C 847 354 886 373 932 373 C 956 373 978 368 998 358 C 1018 348 1035 334 1049 318 C 1063 301 1074 281 1082 259 C 1090 236 1094 212 1094 187 C 1094 160 1089 135 1081 112 C 1073 88 1061 68 1047 51 C 1032 33 1014 20 994 10 C 974 0 952 -4 929 -4 Z M 571 104 C 586 104 597 111 605 125 C 612 139 616 159 616 184 C 616 209 612 229 605 244 C 598 258 587 266 572 266 C 560 266 550 258 543 244 C 536 229 533 209 533 184 C 533 158 536 139 542 125 C 548 111 558 104 571 104 Z M 930 104 C 945 104 956 111 964 125 C 971 139 975 159 975 184 C 975 209 971 229 964 244 C 957 258 946 266 931 266 C 919 266 909 258 902 244 C 894 229 891 209 891 184 C 891 158 894 139 901 125 C 907 111 917 104 930 104 Z" unicode="‰" />
<glyph horiz-adv-x="264" d="M 237 40 L 24 215 L 24 310 L 237 482 L 237 328 L 159 259 L 237 197 L 237 40 Z" unicode="‹" />
<glyph horiz-adv-x="265" d="M 27 482 L 242 307 L 242 212 L 27 40 L 27 194 L 105 263 L 27 324 L 27 482 Z" unicode="›" />
<glyph horiz-adv-x="145" d="M 313 730 L -27 0 L -145 0 L 195 730 L 313 730 Z" unicode="⁄" />
<glyph horiz-adv-x="334" d="M 12 453 L 12 525 L 190 734 L 268 734 L 268 530 L 319 530 L 319 453 L 268 453 L 268 373 L 162 373 L 162 453 L 12 453 Z M 100 522 L 165 522 L 165 600 L 100 522 Z" unicode="⁴" />
<glyph horiz-adv-x="538" d="M 534 111 C 515 73 486 43 446 21 C 406 0 364 -12 318 -12 C 254 -12 202 11 161 57 C 120 103 93 166 81 246 L 24 246 L 24 339 L 72 339 C 72 341 72 344 72 348 C 72 352 72 355 72 359 C 72 361 72 364 72 368 C 72 372 72 375 72 378 L 24 378 L 24 471 L 79 471 C 85 511 94 547 106 581 C 118 614 134 642 154 666 C 173 690 196 708 223 722 C 250 735 281 742 317 742 C 379 742 427 729 461 704 C 495 679 518 652 531 622 L 411 556 C 402 572 391 586 377 597 C 363 608 343 614 319 614 C 293 614 273 603 257 581 C 241 559 230 523 224 471 L 479 471 L 479 378 L 219 378 C 219 376 219 373 219 371 C 219 368 219 365 219 363 C 219 359 219 355 219 351 C 219 347 219 343 219 339 L 479 339 L 479 246 L 227 246 C 234 198 246 165 264 145 C 281 125 301 115 324 115 C 348 115 367 122 383 136 C 398 150 410 167 419 186 L 534 111 Z" unicode="€" />
<glyph horiz-adv-x="985" d="M 944 302 L 802 302 L 802 503 L 686 341 L 668 340 L 553 501 L 553 302 L 417 302 L 417 730 L 530 730 L 677 529 L 824 730 L 944 730 L 944 302 Z M 388 571 L 279 571 L 279 302 L 121 302 L 121 571 L 10 571 L 10 730 L 388 730 L 388 571 Z" unicode="™" />
<glyph horiz-adv-x="786" d="M 32 0 L 32 144 L 228 144 L 228 181 C 199 189 172 201 147 217 C 122 233 100 253 82 277 C 64 300 49 327 39 357 C 28 387 23 419 23 454 C 23 494 31 532 47 568 C 63 604 87 636 118 663 C 149 689 187 710 233 726 C 279 742 331 750 389 750 C 448 750 501 742 547 726 C 593 710 632 689 664 662 C 696 635 720 604 737 568 C 753 532 762 494 762 454 C 762 384 745 325 712 278 C 679 231 628 199 558 181 L 558 144 L 752 144 L 752 0 L 439 0 L 439 263 C 488 275 525 297 551 330 C 576 362 589 400 589 444 C 589 469 583 492 573 514 C 563 535 549 553 531 568 C 513 583 491 595 467 603 C 443 611 417 616 390 616 C 363 616 338 611 315 603 C 291 595 271 583 254 568 C 236 552 222 534 212 513 C 202 491 197 468 197 442 C 197 400 209 363 233 332 C 257 301 295 278 347 263 L 347 0 L 32 0 Z" unicode="Ω" />
<glyph horiz-adv-x="561" d="M 519 299 C 519 240 512 191 498 151 C 484 111 466 79 443 55 C 420 31 394 14 364 4 C 334 -5 302 -11 270 -11 C 241 -11 212 -6 183 3 C 154 13 128 27 105 46 C 81 64 62 88 48 117 C 34 145 27 178 27 216 C 27 250 33 281 45 310 C 57 338 73 363 93 384 C 113 404 137 420 165 432 C 192 444 220 450 250 450 C 283 450 311 444 335 433 C 358 421 377 407 391 389 C 384 441 372 486 355 526 C 338 566 318 599 294 626 C 270 652 243 673 213 688 C 183 702 153 711 121 713 L 189 801 C 222 801 258 791 297 773 C 335 754 371 724 404 684 C 436 644 464 592 486 528 C 508 464 519 388 519 299 Z M 270 100 C 298 100 319 110 334 130 C 348 150 356 183 356 227 C 356 263 349 290 335 309 C 321 327 301 337 273 337 C 247 337 226 327 211 308 C 196 289 189 259 189 217 C 189 174 195 144 209 126 C 223 108 243 100 270 100 Z" unicode="∂" />
<glyph horiz-adv-x="626" d="M 634 0 L -3 0 L 296 730 L 336 730 L 634 0 Z M 430 120 L 312 433 L 194 120 L 430 120 Z" unicode="∆" />
<glyph horiz-adv-x="692" d="M 267 590 L 267 0 L 105 0 L 105 590 L 15 590 L 15 730 L 677 730 L 677 590 L 596 590 L 596 0 L 433 0 L 433 590 L 267 590 Z" unicode="∏" />
<glyph horiz-adv-x="606" d="M 254 590 L 457 307 L 220 -39 L 559 -39 L 559 -179 L -37 -179 L 301 306 L -8 730 L 538 730 L 538 590 L 254 590 Z" unicode="∑" />
<glyph horiz-adv-x="524" d="M 487 269 L 37 269 L 37 393 L 487 393 L 487 269 Z" unicode="−" />
<glyph horiz-adv-x="510" d="M 515 730 L 198 0 L 186 0 L 8 338 L 115 426 L 211 223 L 419 730 L 515 730 Z" unicode="√" />
<glyph horiz-adv-x="365" d="M 94 16 L 146 610 C 148 632 153 652 163 670 C 173 687 185 701 199 712 C 213 723 228 731 245 737 C 261 743 278 746 294 746 C 310 746 328 745 346 744 C 364 743 374 742 378 742 L 367 609 C 365 609 361 610 355 611 C 349 611 343 612 337 612 C 318 612 303 605 292 593 C 281 580 275 560 273 534 L 224 -42 C 222 -58 218 -74 211 -90 C 204 -106 195 -121 183 -135 C 171 -148 157 -159 141 -167 C 124 -175 105 -179 84 -179 C 59 -179 36 -176 15 -172 C -6 -167 -22 -161 -34 -155 L -18 -45 C -14 -45 -7 -47 2 -50 C 12 -52 21 -54 30 -54 C 47 -54 61 -48 73 -36 C 84 -24 91 -6 94 16 Z" unicode="∫" />
<glyph horiz-adv-x="483" d="M 336 521 L 456 521 C 454 497 451 474 447 452 C 442 430 435 410 426 394 C 417 378 406 365 392 355 C 378 345 362 340 344 340 C 321 340 301 343 283 349 C 265 355 251 363 240 372 C 229 380 218 386 208 392 C 197 398 186 401 175 401 C 165 401 156 394 148 381 C 140 368 136 355 136 343 L 24 343 C 24 395 33 438 52 472 C 71 505 100 522 138 522 C 160 522 179 517 196 508 C 213 499 227 491 238 485 C 249 478 260 472 271 468 C 281 463 291 461 300 461 C 314 461 324 467 329 479 C 333 491 336 505 336 521 Z M 338 325 L 456 325 C 454 301 451 278 446 256 C 441 234 434 214 424 198 C 414 182 403 169 389 159 C 375 149 358 144 339 144 C 315 144 294 147 277 153 C 260 159 246 167 236 175 C 226 183 216 189 206 195 C 196 200 185 203 175 203 C 165 203 157 196 149 184 C 141 172 137 159 137 147 L 24 147 C 24 199 33 242 52 276 C 71 310 101 327 141 327 C 164 327 184 322 202 313 C 220 303 234 295 245 289 C 255 281 266 275 276 271 C 286 266 295 264 303 264 C 317 264 326 270 331 282 C 335 294 338 308 338 325 Z" unicode="≈" />
<glyph horiz-adv-x="500" d="M 457 148 L 234 148 L 187 42 L 100 79 L 130 148 L 65 148 L 65 280 L 188 280 L 230 375 L 65 375 L 65 506 L 288 506 L 342 630 L 429 592 L 391 506 L 457 506 L 457 375 L 334 375 L 292 280 L 457 280 L 457 148 Z" unicode="≠" />
<glyph horiz-adv-x="500" d="M 216 326 L 433 212 L 433 5 L 61 5 L 61 111 L 368 111 L 62 276 L 62 371 L 433 575 L 433 439 L 216 326 Z" unicode="≤" />
<glyph horiz-adv-x="500" d="M 433 5 L 61 5 L 61 212 L 278 326 L 61 439 L 61 575 L 432 371 L 432 276 L 126 111 L 433 111 L 433 5 Z" unicode="≥" />
<glyph horiz-adv-x="559" d="M 533 325 L 285 -40 L 274 -40 L 26 325 L 26 337 L 274 702 L 285 702 L 533 337 L 533 325 Z M 390 327 L 390 335 L 284 495 L 276 495 L 170 335 L 170 327 L 276 167 L 284 167 L 390 327 Z" unicode="◊" />
<glyph horiz-adv-x="730" d="M 448 645 L 282 645 L 282 730 L 448 730 L 448 645 Z M 461 269 L 269 269 L 269 461 L 461 461 L 461 269 Z M 659 282 L 572 282 L 572 448 L 659 448 L 659 282 Z M 158 282 L 71 282 L 71 448 L 158 448 L 158 282 Z M 448 0 L 282 0 L 282 86 L 448 86 L 448 0 Z" unicode="" />
<glyph horiz-adv-x="547" d="M 312 316 L 229 316 L 229 0 L 74 0 L 74 316 L 7 316 L 7 436 L 74 436 L 74 536 C 74 572 79 603 90 630 C 101 657 116 679 134 697 C 152 714 172 727 196 736 C 219 744 243 749 267 749 C 284 749 302 747 320 744 C 338 741 351 738 360 735 L 346 613 C 341 614 335 615 327 616 C 319 617 310 618 300 618 C 278 618 261 610 248 596 C 234 581 228 561 228 537 L 228 436 L 312 436 L 312 316 Z M 505 0 L 350 0 L 350 436 L 505 436 L 505 0 Z" unicode="ﬁ" />
<glyph horiz-adv-x="545" d="M 229 316 L 229 0 L 74 0 L 74 316 L 7 316 L 7 436 L 74 436 L 74 532 C 74 568 79 599 90 627 C 100 654 114 677 132 695 C 150 713 170 727 194 736 C 217 745 241 750 267 750 C 281 750 296 748 311 746 C 325 744 338 741 348 739 L 348 741 L 503 741 L 503 0 L 348 0 L 348 613 C 342 615 335 616 327 618 C 319 619 310 620 300 620 C 279 620 262 611 248 595 C 234 578 228 557 228 532 L 228 436 L 312 436 L 312 316 L 229 316 Z" unicode="ﬂ" />
</font>
</defs>
</svg>
