<?xml version="1.0" encoding="utf-8" ?><svg version="1.1" xmlns = 'http://www.w3.org/2000/svg'><defs><font id='web' horiz-adv-x="1000">
<font-face font-family="web" descent="-200" cap-height="730" units-per-em="1000" bbox="-156,-318,937,1034" x-height="536" ascent="800" />
<missing-glyph horiz-adv-x="500" d="" /><glyph horiz-adv-x="176" d="" unicode=" " />
<glyph horiz-adv-x="256" d="M 174 427 L 146 196 L 110 196 L 82 427 L 82 730 L 174 730 L 174 427 Z M 170 0 L 87 0 L 87 98 L 170 98 L 170 0 Z" unicode="!" />
<glyph horiz-adv-x="325" d="M 276 624 L 270 490 L 205 490 L 201 623 L 201 730 L 276 730 L 276 624 Z M 123 623 L 119 490 L 53 490 L 49 623 L 49 730 L 123 730 L 123 623 Z" unicode="&#x22;" />
<glyph horiz-adv-x="540" d="M 493 224 L 380 224 L 360 0 L 307 1 L 327 224 L 189 224 L 169 0 L 115 1 L 135 224 L 29 224 L 29 297 L 141 297 L 153 429 L 47 429 L 47 502 L 159 502 L 179 730 L 233 729 L 213 502 L 351 502 L 371 730 L 424 729 L 404 502 L 511 502 L 511 429 L 398 429 L 386 297 L 493 297 L 493 224 Z M 195 297 L 333 297 L 345 429 L 207 429 L 195 297 Z" unicode="#" />
<glyph horiz-adv-x="451" d="M 416 184 C 416 130 399 88 367 56 C 335 24 296 5 252 0 L 252 -128 L 203 -128 L 203 -1 C 167 1 134 9 104 23 C 74 37 47 58 24 87 L 66 149 C 82 123 103 104 128 91 C 153 77 178 70 203 69 L 203 346 C 151 374 112 403 85 433 C 57 463 44 506 44 560 C 44 608 59 647 89 678 C 119 708 157 726 203 731 L 203 792 L 252 792 L 252 731 C 283 728 311 721 335 709 C 359 697 381 682 400 663 L 356 608 C 341 623 325 635 307 644 C 289 652 270 658 252 661 L 252 404 L 257 401 C 316 369 357 337 381 305 C 404 273 416 232 416 184 Z M 123 553 C 123 527 129 505 140 487 C 151 469 172 450 203 431 L 203 659 C 181 653 162 640 146 622 C 130 604 123 581 123 553 Z M 337 188 C 337 214 330 236 318 256 C 305 275 283 295 252 316 L 252 74 C 274 80 294 93 311 111 C 328 129 337 155 337 188 Z" unicode="$" />
<glyph horiz-adv-x="674" d="M 167 363 C 151 363 135 366 119 374 C 103 382 90 393 78 409 C 66 425 56 444 48 468 C 40 492 37 519 37 551 C 37 604 49 649 73 685 C 97 721 129 740 167 740 C 187 740 206 735 222 725 C 238 715 252 701 264 685 C 276 668 285 648 291 626 C 297 603 301 579 301 554 C 301 527 297 502 291 479 C 284 455 275 435 263 418 C 251 400 236 387 220 377 C 204 367 186 363 167 363 Z M 151 0 L 84 0 L 505 730 L 570 730 L 151 0 Z M 167 426 C 181 426 192 429 201 437 C 210 444 217 453 223 465 C 228 477 232 490 234 505 C 236 520 238 535 238 551 C 238 565 236 580 234 596 C 232 611 228 624 223 636 C 217 648 210 657 202 665 C 193 673 182 677 170 677 C 156 677 145 673 136 666 C 127 658 120 649 115 637 C 109 625 105 612 103 597 C 101 582 100 567 100 551 C 100 535 101 520 103 505 C 105 490 108 477 114 465 C 119 453 126 444 135 437 C 143 429 154 426 167 426 Z M 502 -3 C 485 -3 469 0 453 8 C 437 16 422 27 410 43 C 398 59 388 78 380 102 C 372 126 369 153 369 185 C 369 238 381 283 406 319 C 431 355 464 374 504 374 C 524 374 543 369 560 359 C 576 349 590 335 602 319 C 613 302 622 282 628 260 C 634 237 637 213 637 188 C 637 161 633 136 627 113 C 621 89 612 69 600 52 C 588 34 573 21 557 11 C 540 1 522 -3 502 -3 Z M 501 61 C 515 61 526 64 535 71 C 544 78 551 87 557 99 C 563 111 567 124 569 139 C 571 154 573 169 573 185 C 573 200 571 215 569 231 C 567 246 563 259 557 271 C 551 283 544 292 535 300 C 526 307 515 311 503 311 C 478 311 460 298 449 272 C 437 246 432 217 432 185 C 432 169 433 154 435 139 C 437 124 441 111 447 99 C 452 87 459 78 468 71 C 477 64 488 61 501 61 Z" unicode="%" />
<glyph horiz-adv-x="638" d="M 572 -5 L 494 78 C 461 49 425 27 387 13 C 349 0 306 -8 258 -8 C 189 -8 134 8 93 41 C 51 73 31 119 31 178 C 31 237 46 282 76 314 C 106 346 143 375 189 402 L 173 419 C 156 436 140 458 124 486 C 108 513 100 546 100 584 C 100 603 103 622 111 641 C 118 659 129 676 143 690 C 157 704 174 715 195 724 C 215 732 239 737 265 737 C 317 737 360 722 392 694 C 424 666 440 632 440 592 C 440 550 428 514 404 483 C 380 451 347 421 305 393 L 496 194 C 506 206 515 220 525 235 C 535 250 545 266 555 283 L 621 236 C 609 217 598 199 586 183 C 574 167 563 151 551 137 L 632 53 L 572 -5 Z M 236 464 L 257 442 C 293 464 319 485 336 505 C 352 525 361 546 361 569 C 361 593 353 615 337 634 C 321 652 299 662 271 662 C 243 662 222 651 206 631 C 190 610 183 588 183 566 C 183 547 187 530 197 514 C 206 498 219 482 236 464 Z M 121 191 C 121 155 135 125 165 102 C 195 79 230 68 270 68 C 302 68 333 73 361 84 C 389 95 415 112 441 135 L 238 350 C 204 328 176 306 154 282 C 132 258 121 228 121 191 Z" unicode="&#x26;" />
<glyph horiz-adv-x="174" d="M 126 621 L 122 486 L 52 486 L 48 621 L 48 730 L 126 730 L 126 621 Z" unicode="'" />
<glyph horiz-adv-x="290" d="M 268 -103 L 268 -179 C 236 -163 206 -140 176 -111 C 146 -81 119 -47 97 -7 C 74 33 56 78 42 129 C 28 179 22 234 22 293 C 22 347 28 398 40 446 C 52 494 69 538 91 577 C 113 616 139 650 169 680 C 199 709 232 732 268 749 L 268 675 C 215 641 175 590 148 524 C 120 457 106 380 106 293 C 105 209 117 132 143 62 C 169 -7 210 -63 268 -103 Z" unicode="(" />
<glyph horiz-adv-x="290" d="M 22 674 L 22 749 C 55 733 87 711 117 683 C 147 655 173 621 195 581 C 217 541 235 496 248 446 C 261 396 268 341 268 283 C 268 228 261 176 248 128 C 235 80 218 36 196 -3 C 174 -42 148 -77 118 -107 C 88 -137 56 -161 22 -179 L 22 -101 C 77 -63 118 -9 144 58 C 170 126 184 201 185 283 C 185 372 172 451 145 519 C 118 587 77 639 22 674 Z" unicode=")" />
<glyph horiz-adv-x="382" d="M 360 581 L 227 556 L 322 465 L 259 415 L 192 531 L 127 416 L 59 464 L 158 557 L 27 581 L 64 664 L 170 598 L 150 730 L 235 730 L 213 598 L 326 655 L 360 581 Z" unicode="*" />
<glyph horiz-adv-x="475" d="M 450 299 L 272 299 L 272 125 L 204 125 L 204 299 L 26 299 L 26 365 L 204 365 L 204 537 L 272 537 L 272 365 L 450 365 L 450 299 Z" unicode="+" />
<glyph horiz-adv-x="199" d="M 163 101 C 162 79 159 56 153 32 C 147 8 140 -13 132 -35 C 123 -57 113 -77 102 -97 C 91 -116 80 -132 70 -145 L 6 -116 C 14 -105 22 -91 30 -75 C 38 -58 45 -40 52 -21 C 58 -1 64 18 68 39 C 72 60 75 81 76 101 L 163 101 Z" unicode="," />
<glyph horiz-adv-x="312" d="M 277 226 L 36 226 L 36 302 L 277 302 L 277 226 Z" unicode="-" />
<glyph horiz-adv-x="201" d="M 143 0 L 58 0 L 58 120 L 143 120 L 143 0 Z" unicode="." />
<glyph horiz-adv-x="302" d="M 298 730 L 82 0 L 4 0 L 223 730 L 298 730 Z" unicode="/" />
<glyph horiz-adv-x="439" d="M 217 -7 C 190 -7 165 0 143 12 C 120 24 100 45 84 73 C 67 101 54 139 45 187 C 35 234 31 292 31 361 C 31 477 46 569 77 637 C 107 704 155 738 221 738 C 254 738 283 729 307 712 C 331 695 350 671 365 639 C 379 607 390 569 397 524 C 404 478 408 428 408 372 C 408 247 391 153 359 89 C 327 25 279 -7 217 -7 Z M 218 63 C 254 63 281 86 299 134 C 316 182 325 258 325 364 C 325 464 317 540 303 590 C 288 640 260 666 220 666 C 181 666 153 641 137 593 C 121 545 113 469 113 365 C 113 253 122 175 141 130 C 159 85 185 63 218 63 Z" unicode="0" />
<glyph horiz-adv-x="290" d="M 226 0 L 140 0 L 140 607 C 130 586 113 566 91 548 C 69 529 48 518 28 516 L 28 605 C 38 606 49 611 62 619 C 74 627 86 638 98 650 C 110 662 120 675 130 689 C 140 703 147 718 152 732 L 226 732 L 226 0 Z" unicode="1" />
<glyph horiz-adv-x="424" d="M 393 0 L 24 0 L 24 16 L 242 343 C 260 371 276 402 288 436 C 300 469 307 507 307 549 C 307 589 298 619 280 637 C 262 655 238 665 210 665 C 174 665 147 652 131 626 C 115 600 107 565 107 520 L 30 520 C 30 595 46 650 78 685 C 110 719 153 737 207 737 C 259 737 302 722 336 692 C 370 662 387 619 387 562 C 387 504 380 458 368 422 C 355 386 339 354 321 326 L 155 78 L 393 78 L 393 0 Z" unicode="2" />
<glyph horiz-adv-x="422" d="M 183 -7 C 135 -7 95 0 65 13 C 35 26 11 40 -5 56 L 27 122 C 41 107 61 93 86 81 C 110 69 141 63 177 63 C 221 63 256 78 281 108 C 306 138 319 177 319 223 C 319 247 315 267 307 285 C 299 303 289 317 277 329 C 265 340 251 348 235 354 C 219 360 204 363 188 363 L 111 363 L 111 434 L 185 434 C 215 434 241 444 263 466 C 284 487 295 517 295 557 C 295 591 285 618 266 638 C 247 658 221 668 187 668 C 157 668 132 662 110 650 C 88 638 68 621 52 599 L 5 649 C 23 673 48 694 80 712 C 112 729 153 738 204 738 C 254 738 295 723 327 694 C 358 665 374 625 374 574 C 374 527 362 489 339 459 C 315 429 288 411 256 403 C 272 399 289 393 306 384 C 323 374 338 362 352 347 C 365 331 376 313 385 292 C 393 271 398 247 398 221 C 398 193 394 166 386 139 C 378 111 365 87 348 65 C 330 43 308 26 281 13 C 253 0 221 -7 183 -7 Z" unicode="3" />
<glyph horiz-adv-x="414" d="M 413 184 L 338 184 L 338 0 L 266 0 L 266 184 L 4 184 L 3 239 L 286 738 L 338 738 L 338 257 L 413 257 L 413 184 Z M 266 249 L 266 584 L 83 249 L 266 249 Z" unicode="4" />
<glyph horiz-adv-x="414" d="M 202 -7 C 160 -7 122 0 87 15 C 51 30 24 50 5 74 L 46 137 C 60 119 80 102 104 87 C 128 72 155 65 186 65 C 225 65 256 81 278 113 C 300 145 312 189 312 247 C 312 298 302 337 282 364 C 262 391 236 405 204 405 C 170 405 145 397 129 383 C 113 369 100 350 91 328 L 34 347 L 60 730 L 361 730 L 360 651 L 121 651 L 103 406 C 110 421 123 436 142 452 C 160 467 190 475 230 475 C 277 475 316 456 348 420 C 379 384 395 329 395 255 C 395 211 389 172 379 139 C 369 106 355 79 337 57 C 319 35 299 19 276 9 C 252 -1 228 -7 202 -7 Z" unicode="5" />
<glyph horiz-adv-x="414" d="M 216 -10 C 190 -10 166 -5 143 5 C 120 15 100 29 82 48 C 64 67 50 91 40 120 C 30 148 25 181 25 219 C 25 285 39 353 67 424 C 95 495 139 570 197 650 L 267 745 L 328 704 L 286 644 C 264 612 242 581 222 551 C 202 521 183 492 167 465 C 151 438 137 413 126 391 C 115 368 108 349 105 333 C 116 360 134 383 158 401 C 182 419 209 429 241 429 C 265 429 286 423 306 413 C 325 402 341 387 355 368 C 368 348 378 325 385 299 C 392 273 396 244 396 214 C 396 181 391 151 382 124 C 373 96 361 73 345 53 C 329 33 311 18 289 7 C 267 -4 242 -10 216 -10 Z M 214 63 C 245 63 270 76 288 102 C 306 128 316 164 316 210 C 316 258 307 294 289 319 C 271 344 246 357 216 357 C 186 357 160 345 139 321 C 118 297 108 262 108 214 C 108 162 118 124 139 100 C 160 75 185 63 214 63 Z" unicode="6" />
<glyph horiz-adv-x="350" d="M 354 730 L 354 690 L 103 -4 L 26 23 L 267 651 L 9 651 L 9 730 L 354 730 Z" unicode="7" />
<glyph horiz-adv-x="428" d="M 287 390 C 301 386 315 380 330 372 C 344 363 358 351 370 337 C 382 322 391 304 399 282 C 407 260 411 234 411 205 C 411 139 393 87 358 49 C 323 11 276 -7 217 -7 C 155 -7 106 11 71 48 C 35 85 18 135 18 197 C 18 228 22 255 31 279 C 39 302 50 321 63 337 C 75 353 89 365 104 374 C 118 383 132 389 145 392 C 132 396 119 402 107 410 C 94 418 82 428 72 442 C 62 455 53 471 47 491 C 40 510 37 533 37 559 C 37 586 41 611 51 633 C 60 655 73 674 89 689 C 105 704 123 716 145 724 C 167 732 190 737 214 737 C 266 737 309 721 342 689 C 374 657 391 616 391 566 C 391 540 387 517 381 497 C 375 477 367 459 357 445 C 347 431 335 419 323 410 C 311 401 299 394 287 390 Z M 215 412 C 243 412 268 422 288 443 C 308 463 318 496 318 540 C 318 580 308 611 288 634 C 268 656 243 668 215 668 C 185 668 160 657 140 636 C 120 614 110 583 110 541 C 110 516 113 495 120 479 C 126 463 135 450 145 440 C 155 430 167 422 179 418 C 191 414 203 412 215 412 Z M 216 62 C 250 62 277 73 297 97 C 317 121 328 157 328 207 C 328 253 316 288 293 310 C 270 332 244 344 216 344 C 184 344 157 333 134 311 C 111 289 100 254 100 204 C 100 158 111 122 135 98 C 158 74 185 62 216 62 Z" unicode="8" />
<glyph horiz-adv-x="413" d="M 163 -12 L 101 32 L 131 71 C 149 94 167 121 187 152 C 206 182 224 213 241 244 C 258 275 273 305 286 333 C 299 361 308 385 314 405 C 302 379 283 357 257 338 C 231 319 203 310 173 310 C 125 310 87 330 59 371 C 31 411 17 463 17 525 C 17 587 34 638 70 678 C 105 717 149 737 202 737 C 226 737 250 732 273 723 C 295 714 315 700 332 682 C 349 664 363 641 373 613 C 383 585 388 553 388 516 C 388 473 383 430 373 388 C 363 346 349 305 333 267 C 317 228 298 191 278 156 C 257 120 236 88 215 60 L 163 -12 Z M 197 382 C 209 382 222 384 235 389 C 247 394 259 402 269 413 C 279 423 288 437 295 455 C 301 472 305 493 305 518 C 305 570 294 607 274 630 C 254 653 229 665 201 665 C 168 665 142 652 124 628 C 106 604 97 570 97 526 C 97 477 105 441 123 417 C 140 393 165 382 197 382 Z" unicode="9" />
<glyph horiz-adv-x="200" d="M 143 421 L 58 421 L 58 536 L 143 536 L 143 421 Z M 143 0 L 58 0 L 58 117 L 143 117 L 143 0 Z" unicode=":" />
<glyph horiz-adv-x="200" d="M 149 421 L 64 421 L 64 536 L 149 536 L 149 421 Z M 151 98 C 149 51 140 5 122 -39 C 104 -83 84 -119 62 -145 L -2 -116 C 14 -94 29 -62 45 -22 C 61 17 69 58 69 98 L 151 98 Z" unicode=";" />
<glyph horiz-adv-x="382" d="M 338 102 L 32 297 L 32 353 L 338 545 L 338 466 L 112 325 L 338 183 L 338 102 Z" unicode="&#x3C;" />
<glyph horiz-adv-x="488" d="M 433 390 L 56 390 L 56 462 L 433 462 L 433 390 Z M 433 179 L 56 179 L 56 251 L 433 251 L 433 179 Z" unicode="=" />
<glyph horiz-adv-x="382" d="M 345 297 L 40 102 L 40 181 L 262 325 L 40 466 L 40 545 L 345 353 L 345 297 Z" unicode="&#x3E;" />
<glyph horiz-adv-x="425" d="M 157 199 C 157 241 162 277 173 307 C 183 336 200 364 223 392 C 241 413 259 437 278 463 C 297 489 307 522 307 560 C 307 592 297 618 277 636 C 257 654 232 663 202 663 C 175 663 151 656 130 642 C 109 628 91 610 75 588 L 25 641 C 48 674 76 699 110 716 C 144 733 179 742 216 742 C 272 742 315 726 347 696 C 379 665 395 623 395 570 C 395 544 391 521 385 501 C 378 480 369 461 359 444 C 349 426 337 410 324 395 C 311 379 299 365 287 351 C 267 331 254 306 248 278 C 241 250 237 223 237 199 L 157 199 Z M 153 0 L 153 106 L 244 106 L 244 0 L 153 0 Z" unicode="?" />
<glyph horiz-adv-x="804" d="M 399 -39 C 345 -39 295 -29 250 -9 C 204 11 166 37 134 71 C 102 105 77 145 59 191 C 41 237 32 286 32 338 C 32 390 41 439 59 485 C 77 531 103 570 136 604 C 169 638 208 665 254 685 C 299 705 349 715 403 715 C 459 715 509 706 555 689 C 601 671 639 647 671 617 C 703 587 727 550 745 508 C 763 465 772 418 772 368 C 772 324 767 287 757 257 C 747 226 735 201 720 181 C 705 161 688 147 668 138 C 648 128 629 124 610 124 C 581 124 558 131 541 145 C 524 159 514 178 512 200 C 503 184 484 168 456 150 C 428 132 394 124 355 124 C 309 124 273 135 247 158 C 221 181 208 214 208 256 C 208 302 226 336 262 360 C 298 384 343 396 397 396 L 494 396 L 494 412 C 494 446 484 470 464 484 C 444 498 421 506 393 506 C 369 506 347 503 326 497 C 304 491 287 485 274 481 L 252 532 C 271 541 293 549 318 555 C 343 561 370 564 399 564 C 453 564 493 550 519 522 C 545 494 558 452 558 394 L 558 240 C 558 225 563 212 573 200 C 583 188 597 182 617 182 C 628 182 640 184 652 190 C 664 195 674 204 684 217 C 694 230 702 248 708 272 C 714 296 717 326 717 364 C 717 407 709 447 695 484 C 680 520 659 552 632 578 C 604 604 571 625 533 640 C 494 654 451 662 403 662 C 357 662 314 653 275 636 C 236 619 203 596 175 567 C 147 537 126 503 110 463 C 94 423 87 381 87 337 C 87 293 94 251 110 211 C 125 171 146 136 174 106 C 202 76 235 53 274 36 C 312 18 355 10 401 10 C 421 10 440 11 460 15 C 480 19 502 27 527 39 L 547 -6 C 519 -18 494 -27 470 -32 C 446 -36 423 -39 399 -39 Z M 375 181 C 401 181 427 187 451 201 C 475 215 490 229 494 244 L 494 346 L 402 346 C 362 346 331 338 309 323 C 287 308 277 287 277 260 C 277 235 285 216 302 202 C 318 188 343 181 375 181 Z" unicode="@" />
<glyph horiz-adv-x="475" d="M 473 0 L 387 0 L 336 186 L 134 186 L 86 0 L 2 0 L 206 734 L 268 734 L 473 0 Z M 325 251 L 234 585 L 146 251 L 325 251 Z" unicode="A" />
<glyph horiz-adv-x="445" d="M 63 0 L 63 730 L 229 730 C 277 730 317 714 349 684 C 381 653 397 611 397 557 C 397 505 384 464 359 434 C 333 404 304 386 272 381 C 289 379 307 375 325 367 C 343 359 360 347 375 333 C 389 318 401 300 411 279 C 420 257 425 233 425 205 C 425 145 408 95 375 57 C 341 19 298 0 246 0 L 63 0 Z M 149 405 L 210 405 C 228 405 244 408 258 416 C 272 424 283 434 291 446 C 299 458 305 473 309 489 C 313 505 315 522 315 540 C 315 576 306 605 288 627 C 270 648 242 659 205 659 L 149 659 L 149 405 Z M 149 71 L 226 71 C 264 71 293 84 311 110 C 329 136 339 168 339 206 C 339 250 327 283 304 304 C 280 325 250 336 214 336 L 149 336 L 149 71 Z" unicode="B" />
<glyph horiz-adv-x="524" d="M 282 -7 C 246 -7 212 0 182 16 C 152 31 126 54 105 85 C 83 115 66 154 54 201 C 42 248 36 303 36 366 C 36 484 57 575 99 640 C 141 704 202 737 282 737 C 340 737 384 722 416 692 C 447 662 469 624 482 580 L 401 552 C 390 582 376 608 358 629 C 340 649 315 660 281 660 C 232 660 194 637 166 591 C 138 545 125 469 125 362 C 125 308 129 262 138 224 C 147 186 159 156 174 133 C 189 110 206 94 226 84 C 245 74 265 69 286 69 C 324 69 353 80 373 103 C 393 125 408 154 420 190 L 494 156 C 476 105 450 65 415 36 C 380 7 336 -7 282 -7 Z" unicode="C" />
<glyph horiz-adv-x="539" d="M 63 0 L 63 730 L 221 730 C 266 730 306 721 342 704 C 377 686 407 662 431 631 C 455 599 473 561 485 516 C 497 471 504 421 504 367 C 504 315 498 267 486 222 C 474 177 456 138 432 106 C 408 73 378 47 342 28 C 305 9 262 0 214 0 L 63 0 Z M 152 75 L 214 75 C 250 75 280 82 306 96 C 331 110 351 129 367 154 C 383 179 394 210 402 246 C 409 282 413 322 413 366 C 413 462 396 535 363 583 C 329 631 283 655 223 655 L 152 655 L 152 75 Z" unicode="D" />
<glyph horiz-adv-x="393" d="M 378 0 L 63 0 L 63 730 L 361 730 L 361 652 L 150 652 L 150 403 L 353 403 L 353 327 L 150 327 L 150 78 L 378 78 L 378 0 Z" unicode="E" />
<glyph horiz-adv-x="355" d="M 345 652 L 153 652 L 153 406 L 334 406 L 334 331 L 153 331 L 153 0 L 63 0 L 63 730 L 345 730 L 345 652 Z" unicode="F" />
<glyph horiz-adv-x="543" d="M 280 359 L 505 359 L 505 117 C 486 79 458 49 422 27 C 385 4 340 -7 286 -7 C 252 -7 219 1 189 18 C 158 34 131 58 109 90 C 86 122 68 161 55 207 C 42 253 36 306 36 365 C 36 421 41 473 53 519 C 65 565 81 604 103 636 C 125 668 151 692 183 710 C 214 727 249 736 287 736 C 343 736 386 723 417 698 C 447 673 471 643 487 607 L 415 560 C 403 587 388 610 368 629 C 348 647 322 657 292 657 C 241 657 201 632 171 584 C 141 536 126 461 126 361 C 126 260 141 185 173 137 C 204 89 242 65 287 65 C 319 65 347 71 371 83 C 394 95 412 113 424 138 L 424 285 L 280 285 L 280 359 Z" unicode="G" />
<glyph horiz-adv-x="536" d="M 473 0 L 383 0 L 383 324 L 153 324 L 153 0 L 63 0 L 63 730 L 153 730 L 153 398 L 383 398 L 383 730 L 473 730 L 473 0 Z" unicode="H" />
<glyph horiz-adv-x="224" d="M 158 0 L 67 0 L 67 730 L 158 730 L 158 0 Z" unicode="I" />
<glyph horiz-adv-x="287" d="M 227 730 L 227 182 C 227 127 212 82 183 46 C 153 10 112 -8 60 -8 C 47 -8 33 -6 19 -3 C 5 0 -5 3 -13 8 L 4 82 C 8 79 15 77 24 75 C 32 73 41 73 51 73 C 78 73 99 85 114 110 C 129 134 137 164 137 198 L 137 730 L 227 730 Z" unicode="J" />
<glyph horiz-adv-x="486" d="M 496 0 L 396 0 L 188 319 L 153 275 L 153 0 L 63 0 L 63 730 L 153 730 L 153 397 L 381 730 L 473 730 L 241 398 L 496 0 Z" unicode="K" />
<glyph horiz-adv-x="357" d="M 351 0 L 63 0 L 63 730 L 153 730 L 153 78 L 351 78 L 351 0 Z" unicode="L" />
<glyph horiz-adv-x="643" d="M 580 0 L 495 0 L 495 545 L 344 194 L 302 194 L 146 545 L 146 0 L 63 0 L 63 730 L 147 730 L 323 317 L 501 730 L 580 730 L 580 0 Z" unicode="M" />
<glyph horiz-adv-x="535" d="M 472 0 L 408 0 L 147 518 L 147 0 L 63 0 L 63 730 L 127 730 L 391 207 L 391 730 L 472 730 L 472 0 Z" unicode="N" />
<glyph horiz-adv-x="573" d="M 289 -7 C 209 -7 147 25 103 90 C 58 154 36 248 36 371 C 36 485 58 575 103 640 C 148 704 208 737 284 737 C 364 737 427 705 471 641 C 515 577 537 485 537 365 C 537 248 514 157 468 91 C 422 25 362 -7 289 -7 Z M 287 65 C 335 65 373 90 402 140 C 430 190 445 267 445 372 C 445 469 430 542 401 591 C 372 640 333 665 284 665 C 234 665 196 640 169 592 C 142 543 129 467 129 365 C 129 261 143 185 172 137 C 201 89 239 65 287 65 Z" unicode="O" />
<glyph horiz-adv-x="438" d="M 63 0 L 63 730 L 237 730 C 262 730 286 725 309 716 C 331 707 351 694 368 677 C 384 659 397 638 407 613 C 417 587 422 559 422 527 C 422 461 404 408 369 370 C 333 331 290 312 238 312 L 153 312 L 153 0 L 63 0 Z M 153 386 L 217 386 C 254 386 282 397 302 420 C 322 443 332 479 332 527 C 332 570 320 602 298 623 C 276 644 249 655 217 655 L 153 655 L 153 386 Z" unicode="P" />
<glyph horiz-adv-x="573" d="M 505 -70 L 505 -157 C 471 -150 434 -133 396 -107 C 358 -80 325 -46 299 -6 C 297 -6 296 -6 294 -6 C 292 -6 290 -6 289 -6 C 211 -6 150 26 104 90 C 58 154 36 248 36 371 C 36 485 58 575 104 640 C 149 704 209 737 284 737 C 363 737 425 705 470 641 C 514 577 537 485 537 366 C 537 276 522 202 494 142 C 466 82 429 40 383 16 C 404 -8 426 -28 450 -43 C 473 -57 491 -66 505 -70 Z M 127 365 C 127 271 139 200 164 151 C 188 101 221 73 263 66 C 256 83 251 101 248 120 C 244 139 243 159 243 180 L 318 180 C 318 160 321 142 326 125 C 331 108 337 92 344 78 C 375 94 400 127 418 176 C 436 225 446 290 446 370 C 446 472 430 546 400 594 C 370 641 331 665 284 665 C 234 665 196 641 168 593 C 140 545 127 469 127 365 Z" unicode="Q" />
<glyph horiz-adv-x="458" d="M 63 0 L 63 730 L 214 730 C 266 730 310 713 346 680 C 382 647 400 597 400 530 C 400 474 387 429 363 394 C 339 359 308 339 270 335 L 268 331 L 456 0 L 364 0 L 190 312 L 146 312 L 146 0 L 63 0 Z M 146 386 L 202 386 C 236 386 263 398 285 422 C 306 446 317 479 317 521 C 317 567 305 601 283 623 C 260 645 234 656 204 656 L 146 656 L 146 386 Z" unicode="R" />
<glyph horiz-adv-x="407" d="M 204 -7 C 166 -7 131 0 101 13 C 71 26 44 49 20 81 L 79 135 C 93 110 112 92 135 80 C 157 68 179 62 200 62 C 226 62 250 72 270 92 C 290 112 300 139 300 174 C 300 209 291 238 274 261 C 257 283 226 309 180 339 C 134 367 99 398 75 432 C 51 465 39 509 39 565 C 39 591 43 615 52 637 C 61 658 73 676 89 691 C 104 705 122 717 143 725 C 164 733 186 737 210 737 C 248 737 280 730 305 716 C 330 702 350 687 365 670 L 311 615 C 299 628 285 639 267 648 C 249 657 230 662 210 662 C 187 662 166 653 147 636 C 128 618 119 593 119 561 C 119 529 127 502 143 482 C 159 462 190 437 238 408 C 291 376 328 342 348 307 C 368 272 379 230 379 180 C 379 150 374 123 364 100 C 354 76 341 57 325 41 C 309 25 290 13 269 5 C 248 -2 226 -7 204 -7 Z" unicode="S" />
<glyph horiz-adv-x="373" d="M 366 652 L 231 652 L 231 0 L 141 0 L 141 652 L 7 652 L 7 730 L 366 730 L 366 652 Z" unicode="T" />
<glyph horiz-adv-x="534" d="M 475 730 L 475 216 C 475 175 469 140 457 112 C 445 84 430 61 411 43 C 391 25 369 13 343 5 C 317 -3 290 -7 262 -7 C 235 -7 209 -3 185 4 C 160 12 138 24 120 42 C 101 59 86 82 75 111 C 64 139 59 174 59 216 L 59 730 L 148 730 L 148 215 C 148 161 159 124 181 102 C 203 80 232 70 266 70 C 298 70 326 80 348 101 C 370 121 382 159 382 215 L 382 730 L 475 730 Z" unicode="U" />
<glyph horiz-adv-x="458" d="M 456 730 L 260 -4 L 193 -4 L 2 730 L 89 730 L 229 151 L 374 730 L 456 730 Z" unicode="V" />
<glyph horiz-adv-x="685" d="M 665 730 L 515 -3 L 453 -3 L 335 568 L 217 -3 L 155 -3 L 7 730 L 91 730 L 197 164 L 306 730 L 373 730 L 482 165 L 588 730 L 665 730 Z" unicode="W" />
<glyph horiz-adv-x="439" d="M 341 0 L 216 286 L 88 0 L 6 0 L 175 379 L 21 730 L 110 730 L 220 479 L 332 730 L 414 730 L 261 386 L 430 0 L 341 0 Z" unicode="X" />
<glyph horiz-adv-x="457" d="M 459 730 L 271 318 L 271 0 L 181 0 L 181 320 L -1 730 L 103 730 L 232 410 L 373 730 L 459 730 Z" unicode="Y" />
<glyph horiz-adv-x="418" d="M 391 730 L 391 684 L 124 76 L 402 76 L 402 0 L 15 0 L 15 44 L 282 653 L 45 653 L 45 730 L 391 730 Z" unicode="Z" />
<glyph horiz-adv-x="216" d="M 195 -179 L 48 -179 L 48 730 L 195 730 L 195 655 L 127 655 L 127 -104 L 195 -104 L 195 -179 Z" unicode="[" />
<glyph horiz-adv-x="302" d="M 4 730 L 79 730 L 298 0 L 222 0 L 4 730 Z" unicode="\" />
<glyph horiz-adv-x="218" d="M 172 -179 L 24 -179 L 24 -104 L 92 -104 L 92 655 L 24 655 L 24 730 L 172 730 L 172 -179 Z" unicode="]" />
<glyph horiz-adv-x="431" d="M 408 369 L 335 369 L 213 646 L 94 369 L 22 369 L 178 730 L 250 730 L 408 369 Z" unicode="^" />
<glyph horiz-adv-x="426" d="M 426 -154 L 0 -154 L 0 -86 L 426 -86 L 426 -154 Z" unicode="_" />
<glyph horiz-adv-x="500" d="M 336 598 L 256 598 L 158 770 L 252 770 L 336 598 Z" unicode="`" />
<glyph horiz-adv-x="368" d="M 326 0 L 257 0 L 257 53 C 241 34 225 20 209 10 C 193 0 170 -5 141 -5 C 107 -5 78 9 55 37 C 31 65 20 106 20 160 C 20 218 35 259 65 285 C 95 311 130 326 172 330 L 248 337 L 248 386 C 248 414 241 435 228 449 C 215 463 196 470 172 470 C 149 470 129 465 113 457 C 96 448 83 439 74 430 L 50 499 C 62 511 80 521 103 531 C 126 541 155 546 189 546 C 230 546 263 533 288 509 C 313 485 326 450 326 406 L 326 0 Z M 250 108 L 250 280 L 192 274 C 166 271 144 261 126 243 C 108 225 100 197 100 157 C 100 121 107 96 122 80 C 136 64 153 57 171 57 C 189 57 205 62 218 72 C 231 82 242 94 250 108 Z" unicode="a" />
<glyph horiz-adv-x="402" d="M 232 -4 C 203 -4 179 4 159 21 C 139 37 124 58 116 83 L 116 0 L 42 0 L 42 800 L 121 800 L 121 429 C 128 457 141 483 161 506 C 180 528 206 540 239 540 C 283 540 317 516 342 468 C 367 420 380 358 380 280 C 380 190 366 121 338 71 C 310 21 274 -4 232 -4 Z M 203 64 C 231 64 253 81 269 115 C 285 149 294 201 294 272 C 294 336 286 384 270 417 C 254 449 232 466 204 466 C 182 466 162 451 144 421 C 126 391 118 336 118 257 C 118 217 120 184 125 159 C 130 133 137 114 145 100 C 153 86 162 76 172 71 C 182 66 193 64 203 64 Z" unicode="b" />
<glyph horiz-adv-x="349" d="M 295 124 L 336 75 C 324 55 308 36 288 20 C 267 3 240 -5 206 -5 C 176 -5 150 1 127 15 C 104 28 85 47 69 71 C 53 95 42 123 34 157 C 26 191 22 227 22 267 C 22 303 25 338 33 372 C 41 405 52 434 67 459 C 82 484 101 504 124 519 C 146 533 173 541 204 541 C 240 541 269 531 292 511 C 314 491 330 471 340 449 L 282 406 C 274 422 265 437 253 449 C 241 461 224 467 204 467 C 172 467 148 449 132 413 C 116 377 108 329 108 270 C 108 200 118 149 138 116 C 158 82 184 66 216 66 C 238 66 255 72 267 86 C 279 99 288 112 295 124 Z" unicode="c" />
<glyph horiz-adv-x="416" d="M 178 -5 C 154 -5 132 1 113 15 C 93 29 77 47 64 71 C 50 95 40 123 33 156 C 25 189 22 225 22 263 C 22 347 36 414 65 464 C 94 514 132 539 178 539 C 208 539 234 527 254 505 C 274 482 288 455 295 424 L 295 800 L 373 800 L 373 0 L 300 0 L 300 91 C 294 68 280 46 260 26 C 240 5 212 -5 178 -5 Z M 203 64 C 231 64 254 81 271 115 C 288 149 297 201 297 272 C 297 342 287 391 269 421 C 250 450 228 465 202 465 C 173 465 150 449 133 417 C 116 385 108 335 108 268 C 108 200 116 149 133 115 C 149 81 173 64 203 64 Z" unicode="d" />
<glyph horiz-adv-x="382" d="M 197 -5 C 143 -5 101 19 69 69 C 37 119 22 184 22 265 C 22 349 38 415 71 465 C 104 515 145 540 194 540 C 250 540 292 513 321 461 C 349 408 364 337 364 249 L 104 249 C 104 197 113 154 131 120 C 149 85 175 68 211 68 C 235 68 256 75 272 89 C 288 103 301 117 311 132 L 349 86 C 336 65 317 45 292 25 C 266 5 235 -5 197 -5 Z M 102 307 L 283 307 C 283 359 275 399 259 428 C 243 456 223 471 197 471 C 169 471 147 456 130 428 C 113 400 104 359 102 307 Z" unicode="e" />
<glyph horiz-adv-x="213" d="M 210 464 L 145 464 L 145 0 L 63 0 L 63 464 L 11 464 L 11 536 L 63 536 L 63 678 C 63 698 66 715 73 731 C 80 746 89 759 101 770 C 112 780 125 788 139 794 C 153 799 168 802 182 802 C 190 802 200 800 214 797 C 228 794 239 789 249 783 L 226 721 C 224 721 220 722 214 724 C 207 726 199 727 191 727 C 176 727 164 722 156 712 C 148 702 144 685 144 661 L 144 536 L 210 536 L 210 464 Z" unicode="f" />
<glyph horiz-adv-x="413" d="M 177 10 C 131 10 93 33 65 81 C 37 128 23 192 23 273 C 23 357 37 422 67 470 C 97 517 133 541 177 541 C 208 541 234 530 254 509 C 274 488 289 465 298 440 L 298 536 L 371 536 L 371 8 C 371 -27 365 -58 355 -84 C 344 -110 330 -131 312 -148 C 294 -164 274 -177 252 -185 C 229 -193 206 -198 183 -198 C 150 -198 123 -194 102 -188 C 81 -182 65 -175 55 -169 L 81 -103 C 93 -108 106 -112 121 -116 C 136 -120 155 -122 179 -122 C 211 -122 238 -110 260 -86 C 282 -62 293 -27 293 18 L 293 119 C 286 91 273 66 253 44 C 233 21 207 10 177 10 Z M 202 80 C 230 80 252 95 270 126 C 287 157 296 208 296 279 C 296 346 286 394 266 423 C 246 451 224 466 200 466 C 172 466 149 450 133 418 C 117 386 109 338 109 276 C 109 213 116 165 132 131 C 147 97 170 80 202 80 Z" unicode="g" />
<glyph horiz-adv-x="397" d="M 355 0 L 273 0 L 273 400 C 273 424 266 441 254 453 C 242 465 225 471 205 471 C 183 471 164 464 148 450 C 132 436 125 412 125 377 L 125 0 L 42 0 L 42 800 L 120 800 L 120 469 C 126 489 139 506 157 520 C 175 534 200 541 233 541 C 269 541 298 531 321 513 C 343 495 355 464 355 420 L 355 0 Z" unicode="h" />
<glyph horiz-adv-x="172" d="M 43 620 L 43 699 L 129 699 L 129 620 L 43 620 Z M 45 0 L 45 536 L 127 536 L 127 0 L 45 0 Z" unicode="i" />
<glyph horiz-adv-x="175" d="M 132 620 L 46 620 L 46 699 L 132 699 L 132 620 Z M 130 536 L 130 -64 C 130 -91 120 -114 102 -132 C 84 -150 60 -159 32 -159 C 15 -159 0 -156 -12 -150 C -25 -144 -33 -139 -36 -135 L -9 -83 C -6 -83 -2 -84 2 -86 C 6 -88 12 -89 19 -89 C 27 -89 34 -86 40 -80 C 45 -74 48 -66 48 -57 L 48 536 L 130 536 Z" unicode="j" />
<glyph horiz-adv-x="362" d="M 371 0 L 284 0 L 172 228 L 125 152 L 125 0 L 42 0 L 42 800 L 120 800 L 120 254 L 274 536 L 360 536 L 224 297 L 371 0 Z" unicode="k" />
<glyph horiz-adv-x="190" d="M 42 95 L 42 800 L 124 800 L 124 111 C 124 96 127 86 133 80 C 139 74 147 71 159 71 C 163 71 167 71 171 72 C 174 72 177 73 180 74 L 192 6 C 186 3 179 0 170 -1 C 161 -3 150 -5 138 -5 C 110 -5 87 3 69 20 C 51 37 42 62 42 95 Z" unicode="l" />
<glyph horiz-adv-x="621" d="M 42 0 L 42 536 L 112 536 L 112 457 C 118 485 133 507 156 521 C 178 535 205 542 236 542 C 266 542 291 534 310 520 C 329 505 340 483 343 453 L 346 453 C 352 480 365 502 385 518 C 405 534 432 542 466 542 C 498 542 525 532 547 514 C 568 495 579 465 579 423 L 579 0 L 498 0 L 498 387 C 498 418 491 440 478 453 C 464 466 447 473 426 473 C 406 473 388 465 373 451 C 358 437 351 411 351 373 L 351 0 L 270 0 L 270 389 C 270 423 263 445 249 456 C 235 467 218 473 200 473 C 181 473 163 466 147 452 C 131 438 123 412 123 374 L 123 0 L 42 0 Z" unicode="m" />
<glyph horiz-adv-x="397" d="M 355 0 L 273 0 L 273 400 C 273 422 267 440 255 452 C 243 464 226 471 206 471 C 184 471 165 464 149 451 C 133 437 125 413 125 377 L 125 0 L 42 0 L 42 536 L 112 536 L 112 462 C 120 484 135 503 156 518 C 176 533 203 541 236 541 C 272 541 300 531 322 513 C 344 495 355 466 355 427 L 355 0 Z" unicode="n" />
<glyph horiz-adv-x="394" d="M 198 -5 C 146 -5 104 18 71 64 C 38 110 22 177 22 267 C 22 351 37 418 69 467 C 101 516 142 541 192 541 C 246 541 290 518 323 473 C 355 428 372 364 372 281 C 372 193 356 124 325 72 C 294 20 252 -5 198 -5 Z M 199 67 C 227 67 249 83 264 116 C 279 149 287 201 287 272 C 287 342 279 392 263 422 C 247 452 224 468 195 468 C 167 468 146 452 130 422 C 114 391 107 341 107 272 C 107 196 115 143 132 113 C 148 82 171 67 199 67 Z" unicode="o" />
<glyph horiz-adv-x="401" d="M 42 -200 L 42 536 L 111 536 L 111 424 C 117 453 131 480 153 504 C 175 528 203 541 237 541 C 261 541 283 534 301 522 C 319 509 333 491 345 469 C 357 446 365 419 371 388 C 377 357 380 323 380 287 C 380 195 366 123 340 72 C 313 21 277 -4 232 -4 C 203 -4 179 3 159 18 C 139 33 126 51 120 72 L 120 -200 L 42 -200 Z M 202 64 C 230 64 252 80 269 113 C 285 145 294 196 294 265 C 294 327 286 376 272 412 C 258 447 235 465 204 465 C 192 465 181 462 171 456 C 161 450 152 439 144 423 C 136 407 129 386 124 359 C 119 331 117 297 117 256 C 117 217 119 185 123 160 C 127 135 133 116 141 102 C 149 88 158 78 168 72 C 178 66 190 64 202 64 Z" unicode="p" />
<glyph horiz-adv-x="416" d="M 295 -200 L 295 103 C 288 76 274 51 254 29 C 233 7 205 -4 170 -4 C 126 -4 90 20 63 69 C 35 117 22 182 22 262 C 22 354 37 424 67 471 C 97 517 134 541 178 541 C 211 541 238 529 258 506 C 278 483 293 456 301 425 L 301 536 L 373 536 L 373 -200 L 295 -200 Z M 201 64 C 229 64 252 80 270 112 C 287 144 296 197 296 271 C 296 338 287 387 269 418 C 251 449 228 465 200 465 C 172 465 150 449 133 417 C 116 385 108 334 108 265 C 108 205 116 156 133 119 C 149 82 172 64 201 64 Z" unicode="q" />
<glyph horiz-adv-x="290" d="M 294 511 L 265 442 C 255 452 246 458 238 461 C 229 464 219 466 207 466 C 198 466 189 464 179 461 C 169 458 161 452 153 444 C 145 436 138 424 133 410 C 127 396 125 377 125 355 L 125 0 L 42 0 L 42 536 L 122 536 L 122 461 C 128 482 140 501 157 517 C 174 533 194 541 217 541 C 234 541 249 538 263 532 C 276 526 286 519 294 511 Z" unicode="r" />
<glyph horiz-adv-x="306" d="M 159 -5 C 127 -5 99 1 73 14 C 47 27 28 45 15 68 L 59 125 C 69 106 82 92 97 82 C 112 72 129 67 147 67 C 163 67 179 73 193 85 C 207 97 214 116 214 140 C 214 164 206 183 190 197 C 174 211 153 228 127 247 C 97 267 74 289 57 312 C 39 335 31 367 31 409 C 31 445 42 476 66 502 C 90 528 120 541 157 541 C 183 541 207 536 227 527 C 247 518 264 507 277 495 L 245 426 C 236 435 224 444 210 454 C 195 463 180 468 164 468 C 146 468 131 462 119 452 C 106 442 100 427 100 408 C 100 388 106 373 119 361 C 131 349 152 333 182 313 C 217 287 243 262 259 236 C 275 210 284 177 284 135 C 284 110 280 89 272 71 C 264 53 254 39 242 28 C 230 16 216 8 202 3 C 187 -2 173 -5 159 -5 Z" unicode="s" />
<glyph horiz-adv-x="214" d="M 198 84 L 214 15 C 208 11 200 7 190 3 C 180 -1 166 -3 148 -3 C 124 -3 102 6 83 26 C 63 45 54 72 54 106 L 54 464 L 7 464 L 7 536 L 56 536 L 56 638 L 134 649 L 134 536 L 203 536 L 203 464 L 136 464 L 136 114 C 136 102 139 93 145 86 C 151 79 160 76 171 76 C 175 76 180 76 186 78 C 191 80 195 82 198 84 Z" unicode="t" />
<glyph horiz-adv-x="397" d="M 42 536 L 124 536 L 124 148 C 124 119 130 98 143 84 C 155 70 173 64 196 64 C 216 64 233 71 249 86 C 264 101 272 128 272 168 L 272 536 L 354 536 L 354 0 L 282 0 L 282 77 C 274 55 260 35 239 19 C 217 2 191 -6 160 -6 C 128 -6 100 5 77 27 C 53 49 42 82 42 124 L 42 536 Z" unicode="u" />
<glyph horiz-adv-x="330" d="M 332 536 L 198 -2 L 132 -2 L -3 536 L 80 536 L 168 150 L 257 536 L 332 536 Z" unicode="v" />
<glyph horiz-adv-x="536" d="M 350 -2 L 270 333 L 185 -2 L 122 -2 L 1 536 L 76 536 L 162 136 L 240 457 L 302 457 L 376 137 L 464 536 L 535 536 L 412 -2 L 350 -2 Z" unicode="w" />
<glyph horiz-adv-x="336" d="M 251 0 L 165 193 L 76 0 L 4 0 L 129 274 L 12 536 L 95 536 L 171 366 L 248 536 L 324 536 L 207 283 L 333 0 L 251 0 Z" unicode="x" />
<glyph horiz-adv-x="331" d="M 334 536 L 169 -99 C 160 -131 145 -155 124 -173 C 103 -191 80 -200 56 -200 C 29 -200 8 -197 -7 -192 C -22 -186 -32 -181 -37 -177 L -4 -116 C 0 -118 6 -121 16 -125 C 26 -128 35 -130 45 -130 C 57 -130 68 -124 80 -114 C 91 -104 99 -89 104 -69 L 130 42 L -3 536 L 81 536 L 171 159 L 258 536 L 334 536 Z" unicode="y" />
<glyph horiz-adv-x="316" d="M 300 536 L 300 501 L 111 71 L 305 71 L 305 0 L 11 0 L 11 29 L 202 464 L 23 464 L 23 536 L 300 536 Z" unicode="z" />
<glyph horiz-adv-x="252" d="M 232 -179 C 206 -178 181 -174 158 -166 C 134 -158 114 -147 96 -134 C 78 -120 64 -104 54 -86 C 44 -68 39 -48 39 -28 C 39 -3 42 19 48 40 C 54 60 60 79 68 95 C 75 111 82 126 89 140 C 95 154 99 169 99 184 C 99 200 90 216 74 231 C 58 246 39 254 17 254 L 17 316 C 39 316 58 324 75 340 C 92 356 101 373 101 393 C 101 399 97 411 91 427 C 84 443 76 460 68 478 C 59 496 52 514 47 532 C 42 550 40 568 40 586 C 40 606 45 626 55 646 C 65 665 79 682 97 697 C 114 712 134 724 158 734 C 181 743 206 748 232 749 L 232 688 C 205 687 180 676 158 655 C 136 634 125 609 125 580 C 125 569 126 557 130 543 C 134 529 139 515 146 501 C 155 481 164 462 172 445 C 180 428 184 413 184 400 C 184 372 175 348 159 327 C 143 306 119 292 89 285 C 120 277 144 263 160 242 C 176 221 184 198 184 174 C 184 154 180 137 173 123 C 165 109 158 94 150 80 C 142 65 136 50 132 34 C 127 18 125 4 125 -10 C 125 -35 135 -59 157 -82 C 178 -105 203 -117 232 -118 L 232 -179 Z" unicode="{" />
<glyph horiz-adv-x="226" d="M 153 -179 L 73 -179 L 73 730 L 153 730 L 153 -179 Z" unicode="|" />
<glyph horiz-adv-x="252" d="M 20 -179 L 20 -118 C 48 -117 73 -105 95 -82 C 117 -59 128 -35 128 -10 C 128 4 125 18 121 34 C 116 50 110 65 102 80 C 94 94 86 109 79 123 C 72 137 69 154 69 174 C 69 198 76 221 92 242 C 107 263 130 277 160 285 C 130 292 108 306 92 327 C 76 348 69 372 69 400 C 69 413 72 428 80 445 C 88 462 96 481 106 501 C 113 515 118 529 122 543 C 125 557 127 569 127 580 C 127 609 115 634 93 655 C 71 676 46 687 20 688 L 20 749 C 46 748 70 743 94 734 C 117 724 137 712 155 697 C 172 682 186 665 196 646 C 206 626 212 606 212 586 C 212 568 209 550 204 532 C 199 514 192 496 184 478 C 175 460 167 443 161 427 C 154 411 151 399 151 393 C 151 373 159 356 176 340 C 193 324 213 316 235 316 L 235 254 C 213 254 193 246 177 231 C 161 216 153 200 153 184 C 153 169 156 154 163 140 C 169 126 176 111 184 95 C 191 79 198 60 204 40 C 210 19 213 -3 213 -28 C 213 -48 207 -68 197 -86 C 187 -104 173 -120 155 -134 C 137 -147 117 -158 94 -166 C 70 -174 46 -178 20 -179 Z" unicode="}" />
<glyph horiz-adv-x="448" d="M 352 441 L 420 441 C 418 393 410 354 396 325 C 381 296 357 282 323 282 C 300 282 279 287 260 297 C 241 307 226 318 215 331 C 203 343 191 354 181 364 C 171 374 159 379 147 379 C 134 379 122 370 111 353 C 100 336 95 313 95 285 L 29 285 C 29 333 38 372 56 400 C 74 428 100 443 134 443 C 156 443 177 437 196 426 C 215 414 231 402 243 390 C 255 379 265 369 275 360 C 284 351 295 347 308 347 C 325 347 337 354 343 369 C 349 384 352 408 352 441 Z" unicode="~" />
<glyph horiz-adv-x="256" d="M 87 613 L 170 613 L 170 515 L 87 515 L 87 613 Z M 82 193 L 111 424 L 148 424 L 174 193 L 174 -102 L 82 -102 L 82 193 Z" unicode="¡" />
<glyph horiz-adv-x="347" d="M 332 155 C 321 142 308 129 293 115 C 278 101 255 93 224 89 L 224 -22 L 174 -22 L 174 89 C 125 95 87 118 61 159 C 35 199 22 250 22 310 C 22 337 25 363 31 389 C 37 414 47 437 60 457 C 72 477 88 493 107 506 C 126 519 148 528 174 532 L 174 642 L 224 642 L 224 533 C 253 530 276 522 294 509 C 312 495 326 482 337 468 L 308 410 C 298 421 287 432 275 442 C 263 452 246 459 224 461 L 224 160 C 246 160 264 166 276 177 C 288 187 298 197 305 207 L 332 155 Z M 108 314 C 108 276 114 245 126 221 C 138 196 154 179 174 170 L 174 453 C 151 444 134 427 124 402 C 113 377 108 348 108 314 Z" unicode="¢" />
<glyph horiz-adv-x="459" d="M 444 65 L 444 0 L 16 0 L 16 51 C 20 53 28 56 38 58 C 48 60 61 64 77 68 C 99 72 120 84 140 103 C 160 122 170 150 170 186 C 170 191 169 197 168 203 C 167 209 166 215 164 221 L 29 221 L 29 282 L 139 282 C 134 292 129 303 123 315 C 117 326 111 338 106 351 L 29 351 L 29 413 L 81 413 C 74 432 68 452 64 474 C 60 496 58 519 58 543 C 58 580 63 611 75 637 C 86 663 101 683 120 699 C 138 714 159 725 183 732 C 207 738 231 742 256 742 C 292 742 326 732 360 714 C 394 696 418 678 432 662 L 392 600 C 380 612 363 627 340 643 C 317 659 292 667 264 667 C 250 667 236 664 222 660 C 208 656 196 648 185 638 C 174 627 165 613 158 595 C 151 577 148 554 148 528 C 148 508 150 488 155 469 C 159 450 165 431 172 413 L 394 413 L 394 351 L 199 351 C 203 339 208 327 214 315 C 219 303 224 292 229 282 L 394 282 L 394 221 L 245 221 C 245 218 246 215 246 212 C 246 209 246 206 246 204 C 246 181 243 161 237 145 C 231 129 223 115 215 105 C 207 94 198 85 189 79 C 179 73 171 68 165 65 L 444 65 Z" unicode="£" />
<glyph horiz-adv-x="502" d="M 250 186 C 233 186 217 188 202 192 C 186 196 172 202 159 210 L 92 141 L 49 184 L 112 249 C 100 263 90 279 84 297 C 77 315 74 334 74 354 C 74 374 77 393 84 411 C 91 429 101 445 113 459 L 49 525 L 91 566 L 158 497 C 171 505 185 511 201 515 C 217 519 233 522 250 522 C 266 522 283 519 299 515 C 315 511 329 505 343 497 L 412 567 L 453 524 L 389 458 C 400 443 409 427 416 409 C 422 391 426 373 426 354 C 426 333 422 314 415 296 C 408 278 398 261 386 247 L 449 183 L 407 142 L 341 210 C 327 202 313 196 298 192 C 282 188 266 186 250 186 Z M 250 247 C 280 247 307 257 330 279 C 352 300 364 325 364 354 C 364 382 352 407 330 429 C 307 450 280 461 250 461 C 218 461 192 450 170 429 C 148 407 137 382 137 354 C 137 325 148 300 170 279 C 192 257 218 247 250 247 Z" unicode="¤" />
<glyph horiz-adv-x="459" d="M 423 150 L 273 150 L 273 0 L 183 0 L 183 150 L 37 150 L 37 212 L 183 212 L 183 277 L 37 277 L 37 338 L 180 338 L 7 730 L 94 730 L 230 417 L 370 730 L 452 730 L 276 338 L 423 338 L 423 277 L 273 277 L 273 212 L 423 212 L 423 150 Z" unicode="¥" />
<glyph horiz-adv-x="253" d="M 91 351 L 91 730 L 163 730 L 163 351 L 91 351 Z M 163 200 L 163 -179 L 91 -179 L 91 200 L 163 200 Z" unicode="¦" />
<glyph horiz-adv-x="528" d="M 281 -181 C 234 -181 190 -174 148 -160 C 106 -146 71 -128 43 -106 L 72 -36 C 98 -57 129 -75 165 -90 C 201 -104 235 -112 269 -112 C 299 -112 324 -103 344 -85 C 363 -67 373 -42 373 -10 C 373 18 365 40 351 56 C 337 71 316 85 289 98 L 185 153 C 159 165 136 177 117 188 C 97 198 81 210 69 223 C 57 235 47 250 41 267 C 35 283 32 304 32 328 C 32 359 38 385 52 405 C 65 425 81 441 100 454 C 84 465 71 481 63 501 C 55 521 51 545 51 575 C 51 601 56 625 67 646 C 77 666 92 684 110 698 C 128 712 150 723 175 731 C 200 738 227 742 256 742 C 307 742 349 733 382 717 C 415 700 442 682 463 662 L 423 598 C 399 619 374 637 348 653 C 322 668 291 676 255 676 C 221 676 193 667 171 649 C 148 631 137 606 137 575 C 137 553 143 534 156 519 C 169 504 189 491 216 479 L 349 409 C 394 388 428 366 452 342 C 476 318 488 286 488 244 C 488 214 477 189 457 167 C 437 145 415 132 393 128 C 399 124 406 118 414 110 C 422 102 429 93 437 82 C 445 70 451 57 456 42 C 461 26 464 9 464 -9 C 464 -62 446 -104 411 -135 C 375 -165 332 -181 281 -181 Z M 327 166 C 343 168 359 175 373 187 C 387 198 394 216 394 241 C 394 263 386 283 371 301 C 356 319 331 335 296 350 L 167 418 C 153 409 141 399 132 387 C 123 375 119 358 119 336 C 119 309 126 288 142 272 C 158 256 184 240 220 224 L 327 166 Z" unicode="§" />
<glyph horiz-adv-x="500" d="M 357 600 L 290 600 L 290 757 L 357 757 L 357 600 Z M 210 600 L 143 600 L 143 757 L 210 757 L 210 600 Z" unicode="¨" />
<glyph horiz-adv-x="801" d="M 401 31 C 351 31 305 40 262 59 C 218 77 181 103 149 135 C 117 167 91 205 73 249 C 54 292 45 338 45 387 C 45 435 54 481 73 525 C 91 568 117 606 149 638 C 181 670 218 695 262 714 C 305 732 351 742 401 742 C 449 742 495 732 539 714 C 582 695 620 670 652 638 C 684 606 709 568 728 525 C 746 481 756 435 756 387 C 756 338 746 292 728 249 C 709 205 684 167 652 135 C 620 103 582 77 539 59 C 495 40 449 31 401 31 Z M 401 85 C 442 85 481 93 517 109 C 553 125 585 146 612 173 C 639 200 661 232 677 269 C 693 305 701 344 701 386 C 701 427 693 466 677 503 C 661 540 639 572 612 600 C 585 627 553 649 517 665 C 481 681 442 689 401 689 C 359 689 320 681 283 665 C 246 649 214 627 187 600 C 160 572 139 540 123 503 C 107 466 99 427 99 386 C 99 344 107 305 123 269 C 139 232 160 200 187 173 C 214 146 246 125 283 109 C 320 93 359 85 401 85 Z M 558 252 C 543 228 522 207 496 191 C 470 174 438 166 400 166 C 376 166 352 170 330 180 C 308 189 288 203 271 221 C 253 239 239 262 229 289 C 219 315 214 346 214 381 C 214 414 218 444 228 472 C 237 500 250 523 266 543 C 282 563 302 578 324 589 C 346 599 370 605 396 605 C 436 605 469 597 495 582 C 520 567 540 548 555 526 L 503 485 C 492 501 478 514 462 524 C 446 534 424 540 398 540 C 364 540 335 524 313 494 C 291 464 280 426 280 381 C 280 356 283 334 290 315 C 297 296 306 280 318 267 C 329 254 342 244 357 238 C 371 231 386 228 402 228 C 425 228 446 233 464 245 C 482 256 497 271 509 289 L 558 252 Z" unicode="©" />
<glyph horiz-adv-x="399" d="M 355 328 L 288 328 L 288 386 C 275 366 257 350 234 339 C 210 327 185 322 159 322 C 121 322 91 333 69 355 C 47 377 36 408 36 448 C 36 491 50 523 80 545 C 110 567 149 579 199 581 L 285 588 L 285 598 C 285 626 277 646 263 658 C 248 670 227 677 201 677 C 179 677 158 673 138 666 C 118 658 100 649 85 638 L 60 687 C 77 701 99 714 126 724 C 152 734 182 740 215 740 C 257 740 291 728 317 706 C 342 684 355 648 355 598 L 355 328 Z M 286 433 L 286 531 L 195 526 C 169 524 148 517 130 505 C 112 493 104 474 104 448 C 104 427 111 411 125 399 C 139 387 158 381 180 381 C 200 381 220 385 240 395 C 260 404 275 417 286 433 Z M 355 217 L 43 217 L 43 283 L 355 283 L 355 217 Z" unicode="ª" />
<glyph horiz-adv-x="418" d="M 205 114 L 28 281 L 28 329 L 205 494 L 205 413 L 101 303 L 205 199 L 205 114 Z M 389 114 L 211 281 L 211 329 L 389 494 L 389 413 L 284 303 L 389 200 L 389 114 Z" unicode="«" />
<glyph horiz-adv-x="474" d="M 436 381 L 436 150 L 368 150 L 368 315 L 31 315 L 31 381 L 436 381 Z" unicode="¬" />
<glyph horiz-adv-x="801" d="M 401 31 C 351 31 305 40 262 59 C 218 77 181 103 149 135 C 117 167 91 205 73 249 C 54 292 45 338 45 387 C 45 435 54 481 73 525 C 91 568 117 606 149 638 C 181 670 218 695 262 714 C 305 732 351 742 401 742 C 449 742 495 732 539 714 C 582 695 620 670 652 638 C 684 606 709 568 728 525 C 746 481 756 435 756 387 C 756 338 746 292 728 249 C 709 205 684 167 652 135 C 620 103 582 77 539 59 C 495 40 449 31 401 31 Z M 401 85 C 442 85 481 92 518 108 C 554 123 586 144 613 171 C 640 197 661 229 677 266 C 693 302 701 342 701 386 C 701 429 693 469 677 506 C 661 543 640 575 613 602 C 586 629 554 650 518 666 C 481 681 442 689 401 689 C 359 689 320 681 283 665 C 246 649 214 628 187 601 C 160 574 139 542 123 505 C 107 467 99 428 99 386 C 99 344 107 304 123 268 C 139 231 160 199 187 172 C 214 145 246 124 283 108 C 320 92 359 85 401 85 Z M 276 181 L 276 606 L 415 606 C 433 606 450 603 467 599 C 484 594 499 587 512 578 C 525 568 536 556 544 542 C 552 527 556 510 556 490 C 556 453 545 425 524 405 C 502 385 479 373 454 370 L 454 366 L 586 181 L 520 181 L 396 354 L 331 354 L 331 181 L 276 181 Z M 331 404 L 419 404 C 437 404 455 410 473 422 C 490 434 499 454 500 480 C 500 506 490 525 472 536 C 454 547 432 553 408 553 L 331 553 L 331 404 Z" unicode="®" />
<glyph horiz-adv-x="500" d="M 369 618 L 131 618 L 131 687 L 369 687 L 369 618 Z" unicode="¯" />
<glyph horiz-adv-x="404" d="M 202 399 C 178 399 156 403 135 412 C 114 421 96 433 80 449 C 64 465 52 483 43 504 C 34 525 30 547 30 571 C 30 594 34 616 43 637 C 52 658 64 676 80 692 C 96 707 114 719 135 728 C 156 737 178 742 202 742 C 225 742 247 737 268 728 C 289 719 307 707 323 692 C 339 676 351 658 360 637 C 369 616 374 594 374 571 C 374 547 369 525 360 504 C 351 483 339 465 323 449 C 307 433 289 421 268 412 C 247 403 225 399 202 399 Z M 202 461 C 232 461 258 471 280 493 C 302 514 313 540 313 571 C 313 601 302 626 280 648 C 258 670 232 681 202 681 C 172 681 146 670 124 648 C 102 626 91 601 91 571 C 91 540 102 514 124 493 C 146 471 172 461 202 461 Z" unicode="°" />
<glyph horiz-adv-x="474" d="M 449 296 L 269 296 L 269 114 L 205 114 L 205 296 L 25 296 L 25 361 L 205 361 L 205 548 L 269 548 L 269 361 L 449 361 L 449 296 Z M 444 26 L 32 26 L 32 91 L 444 91 L 444 26 Z" unicode="±" />
<glyph horiz-adv-x="342" d="M 308 372 L 27 372 L 27 399 L 190 555 C 197 561 204 570 212 581 C 219 592 223 605 223 620 C 223 635 217 649 206 661 C 194 673 178 679 156 679 C 131 679 113 671 103 656 C 93 641 87 624 87 605 L 22 605 C 22 641 34 672 58 700 C 82 727 118 741 164 741 C 208 741 241 730 263 710 C 285 689 297 664 297 635 C 297 608 292 586 282 568 C 272 550 261 536 250 526 L 147 432 L 308 432 L 308 372 Z" unicode="²" />
<glyph horiz-adv-x="346" d="M 225 569 C 253 565 275 554 291 537 C 307 520 315 500 315 477 C 315 464 312 451 307 438 C 302 424 294 412 282 401 C 270 390 255 381 235 374 C 215 367 190 364 161 364 C 120 364 88 368 65 378 C 42 388 24 398 11 408 L 51 449 C 62 442 76 435 94 429 C 112 423 133 420 158 420 C 190 420 214 426 228 439 C 242 452 249 468 249 487 C 249 507 240 521 223 528 C 206 534 186 538 164 538 L 92 538 L 92 591 L 159 591 C 181 591 198 595 212 603 C 225 611 232 623 232 639 C 232 652 226 663 214 671 C 202 679 184 683 160 683 C 139 683 120 679 102 671 C 84 663 71 653 63 643 L 23 682 C 36 696 54 710 76 723 C 98 735 129 742 170 742 C 211 742 243 733 266 716 C 288 699 300 678 300 652 C 300 630 292 611 278 597 C 263 583 245 573 225 569 Z" unicode="³" />
<glyph horiz-adv-x="500" d="M 164 598 L 248 770 L 342 770 L 244 598 L 164 598 Z" unicode="´" />
<glyph horiz-adv-x="591" d="M 72 -109 L 72 536 L 154 536 L 154 164 C 154 148 157 134 165 121 C 172 108 182 97 194 88 C 206 78 219 71 235 66 C 251 60 267 58 284 58 C 301 58 318 60 336 66 C 354 71 370 79 384 89 C 398 99 409 112 418 128 C 427 144 432 162 432 184 L 432 536 L 514 536 L 514 0 L 438 0 L 438 103 C 433 89 425 75 414 62 C 402 48 389 37 374 27 C 358 17 341 8 323 2 C 305 -3 286 -7 268 -7 C 243 -7 219 -1 195 9 C 171 20 156 36 148 57 L 148 -109 L 72 -109 Z" unicode="µ" />
<glyph horiz-adv-x="540" d="M 500 -181 L 435 -179 L 435 664 L 355 664 L 355 -179 L 290 -179 L 290 303 L 233 303 C 205 303 179 308 153 320 C 127 331 105 346 86 365 C 66 384 51 406 39 432 C 27 458 22 485 22 513 C 22 543 27 572 38 599 C 49 625 65 648 85 668 C 105 687 129 702 157 713 C 185 724 217 730 251 730 L 500 730 L 500 -181 Z M 291 372 L 291 661 L 272 661 C 226 661 188 647 158 620 C 128 592 114 558 114 516 C 114 478 128 444 158 415 C 187 386 222 372 262 372 L 291 372 Z" unicode="¶" />
<glyph horiz-adv-x="248" d="M 166 288 L 82 288 L 82 412 L 166 412 L 166 288 Z" unicode="·" />
<glyph horiz-adv-x="500" d="M 251 -180 C 231 -180 211 -177 193 -171 C 175 -165 159 -157 147 -147 L 168 -114 C 175 -120 185 -126 198 -132 C 211 -138 225 -141 241 -141 C 253 -141 264 -137 273 -131 C 282 -124 287 -115 287 -105 C 287 -92 282 -83 274 -77 C 265 -71 256 -69 247 -69 C 239 -69 233 -69 227 -70 C 221 -71 215 -73 210 -76 L 201 -59 L 251 11 L 291 11 L 251 -45 C 277 -42 300 -46 318 -56 C 336 -66 345 -82 345 -106 C 345 -128 335 -146 317 -160 C 299 -173 277 -180 251 -180 Z" unicode="¸" />
<glyph horiz-adv-x="318" d="M 147 372 L 147 656 C 139 644 125 633 104 623 C 83 613 65 607 51 605 L 50 678 C 74 681 96 688 114 699 C 132 709 150 723 168 740 L 220 740 L 220 372 L 147 372 Z" unicode="¹" />
<glyph horiz-adv-x="374" d="M 184 322 C 162 322 142 326 122 336 C 102 346 85 359 70 377 C 55 395 43 416 34 442 C 25 468 21 496 21 528 C 21 556 25 582 34 608 C 42 634 54 656 69 676 C 84 695 102 710 122 722 C 142 733 163 739 186 739 C 232 739 272 720 304 683 C 336 645 353 597 353 538 C 353 507 348 478 339 452 C 330 426 318 403 303 384 C 288 364 270 349 250 338 C 229 327 207 322 184 322 Z M 187 380 C 217 380 241 394 258 423 C 275 452 284 489 284 533 C 284 573 276 607 260 635 C 244 663 220 677 188 677 C 157 677 133 662 116 634 C 98 605 90 569 90 525 C 90 482 98 447 116 420 C 134 393 157 380 187 380 Z M 39 217 L 39 283 L 336 283 L 336 217 L 39 217 Z" unicode="º" />
<glyph horiz-adv-x="418" d="M 30 495 L 207 328 L 207 281 L 30 116 L 30 196 L 134 306 L 30 410 L 30 495 Z M 213 495 L 390 328 L 390 281 L 213 116 L 213 196 L 318 306 L 213 410 L 213 495 Z" unicode="»" />
<glyph horiz-adv-x="699" d="M 12 0 L 12 0 Z M 109 372 L 109 656 C 101 644 87 633 66 623 C 45 613 27 607 13 605 L 12 678 C 36 681 58 688 76 699 C 94 709 112 723 130 740 L 182 740 L 182 372 L 109 372 Z M 573 730 L 196 0 L 127 0 L 504 730 L 573 730 Z M 387 84 L 387 135 L 576 366 L 624 366 L 624 138 L 687 138 L 687 84 L 624 84 L 624 1 L 555 1 L 555 84 L 387 84 Z M 458 136 L 557 136 L 557 263 L 458 136 Z" unicode="¼" />
<glyph horiz-adv-x="765" d="M 12 0 L 12 0 Z M 109 372 L 109 656 C 101 644 87 633 66 623 C 45 613 27 607 13 605 L 12 678 C 36 681 58 688 76 699 C 94 709 112 723 130 740 L 182 740 L 182 372 L 109 372 Z M 573 730 L 196 0 L 127 0 L 504 730 L 573 730 Z M 740 0 L 459 0 L 459 27 L 622 183 C 629 189 636 198 644 209 C 651 220 655 233 655 248 C 655 263 649 277 638 289 C 626 301 610 307 588 307 C 563 307 545 299 535 284 C 525 269 519 252 519 233 L 454 233 C 454 269 466 300 490 328 C 514 355 550 369 596 369 C 640 369 673 358 695 338 C 717 317 729 292 729 263 C 729 236 724 214 714 196 C 704 178 693 164 682 154 L 579 60 L 740 60 L 740 0 Z" unicode="½" />
<glyph horiz-adv-x="760" d="M 12 0 L 12 0 Z M 635 730 L 258 0 L 189 0 L 566 730 L 635 730 Z M 449 84 L 449 135 L 638 366 L 686 366 L 686 138 L 749 138 L 749 84 L 686 84 L 686 1 L 617 1 L 617 84 L 449 84 Z M 520 136 L 619 136 L 619 263 L 520 136 Z M 226 569 C 254 565 276 554 292 537 C 308 520 316 500 316 477 C 316 464 313 451 308 438 C 303 424 295 412 283 401 C 271 390 256 381 236 374 C 216 367 191 364 162 364 C 121 364 89 368 66 378 C 43 388 25 398 12 408 L 52 449 C 63 442 77 435 95 429 C 113 423 134 420 159 420 C 191 420 215 426 229 439 C 243 452 250 468 250 487 C 250 507 241 521 224 528 C 207 534 187 538 165 538 L 93 538 L 93 591 L 160 591 C 182 591 199 595 213 603 C 226 611 233 623 233 639 C 233 652 227 663 215 671 C 203 679 185 683 161 683 C 140 683 121 679 103 671 C 85 663 72 653 64 643 L 24 682 C 37 696 55 710 77 723 C 99 735 130 742 171 742 C 212 742 244 733 267 716 C 289 699 301 678 301 652 C 301 630 293 611 279 597 C 264 583 246 573 226 569 Z" unicode="¾" />
<glyph horiz-adv-x="425" d="M 179 508 L 179 613 L 271 613 L 271 508 L 179 508 Z M 208 -129 C 152 -129 108 -113 76 -83 C 44 -52 29 -10 29 44 C 29 69 32 92 39 113 C 45 133 54 152 64 170 C 74 187 86 203 99 219 C 112 234 125 249 137 263 C 156 283 169 307 176 335 C 182 363 186 390 187 415 L 267 415 C 267 372 261 336 251 307 C 240 277 223 249 201 223 C 192 212 183 201 173 190 C 163 178 153 166 145 153 C 137 140 130 126 125 110 C 119 94 117 77 117 59 C 117 25 127 -1 147 -21 C 167 -41 193 -51 224 -51 C 250 -51 274 -43 294 -29 C 314 -15 331 2 346 23 L 399 -27 C 375 -61 347 -86 313 -103 C 279 -120 244 -129 208 -129 Z" unicode="¿" />
<glyph horiz-adv-x="475" d="M 2 0 L 2 0 Z M 473 0 L 387 0 L 336 186 L 134 186 L 86 0 L 2 0 L 206 734 L 268 734 L 473 0 Z M 325 251 L 234 585 L 146 251 L 325 251 Z M 238 792 L 238 792 Z M 327 792 L 247 792 L 149 964 L 243 964 L 327 792 Z" unicode="À" />
<glyph horiz-adv-x="475" d="M 2 0 L 2 0 Z M 473 0 L 387 0 L 336 186 L 134 186 L 86 0 L 2 0 L 206 734 L 268 734 L 473 0 Z M 325 251 L 234 585 L 146 251 L 325 251 Z M 238 792 L 238 792 Z M 149 792 L 233 964 L 327 964 L 229 792 L 149 792 Z" unicode="Á" />
<glyph horiz-adv-x="475" d="M 2 0 L 2 0 Z M 473 0 L 387 0 L 336 186 L 134 186 L 86 0 L 2 0 L 206 734 L 268 734 L 473 0 Z M 325 251 L 234 585 L 146 251 L 325 251 Z M 238 793 L 238 793 Z M 370 793 L 299 793 L 238 902 L 176 793 L 106 793 L 203 964 L 273 964 L 370 793 Z" unicode="Â" />
<glyph horiz-adv-x="475" d="M 2 0 L 2 0 Z M 473 0 L 387 0 L 336 186 L 134 186 L 86 0 L 2 0 L 206 734 L 268 734 L 473 0 Z M 325 251 L 234 585 L 146 251 L 325 251 Z M 238 800 L 238 800 Z M 324 934 L 386 934 C 386 888 379 855 367 833 C 355 811 338 800 318 800 C 300 800 285 804 272 812 C 258 820 247 827 239 834 C 229 840 220 847 212 854 C 203 860 194 864 186 864 C 177 864 169 858 163 847 C 157 835 153 821 153 805 L 91 805 C 91 849 99 883 117 905 C 134 927 152 939 171 939 C 185 939 198 935 210 927 C 221 919 232 911 244 903 C 252 896 260 890 268 884 C 276 878 284 876 293 876 C 301 876 308 881 314 891 C 320 901 324 915 324 934 Z" unicode="Ã" />
<glyph horiz-adv-x="475" d="M 2 0 L 2 0 Z M 473 0 L 387 0 L 336 186 L 134 186 L 86 0 L 2 0 L 206 734 L 268 734 L 473 0 Z M 325 251 L 234 585 L 146 251 L 325 251 Z M 238 794 L 238 794 Z M 345 794 L 278 794 L 278 951 L 345 951 L 345 794 Z M 198 794 L 131 794 L 131 951 L 198 951 L 198 794 Z" unicode="Ä" />
<glyph horiz-adv-x="475" d="M 2 0 L 2 0 Z M 473 0 L 387 0 L 336 186 L 134 186 L 86 0 L 2 0 L 206 734 L 268 734 L 473 0 Z M 325 251 L 234 585 L 146 251 L 325 251 Z M 238 773 L 238 773 Z M 238 773 C 204 773 176 784 152 808 C 128 832 117 860 117 894 C 117 927 128 955 152 979 C 176 1003 204 1015 238 1015 C 272 1015 300 1003 324 979 C 348 955 360 927 360 894 C 360 860 348 832 324 808 C 300 784 272 773 238 773 Z M 239 823 C 258 823 274 830 288 844 C 301 858 308 874 308 894 C 308 914 301 930 288 944 C 274 958 258 965 239 965 C 219 965 203 958 189 944 C 175 930 169 914 169 894 C 169 874 175 858 189 844 C 203 830 219 823 239 823 Z" unicode="Å" />
<glyph horiz-adv-x="720" d="M 704 0 L 392 0 L 392 210 L 184 210 L 85 0 L 0 0 L 338 730 L 687 730 L 687 652 L 476 652 L 476 403 L 679 403 L 679 327 L 476 327 L 476 78 L 704 78 L 704 0 Z M 392 282 L 392 672 L 213 282 L 392 282 Z" unicode="Æ" />
<glyph horiz-adv-x="524" d="M 36 0 L 36 0 Z M 282 -7 C 246 -7 212 0 182 16 C 152 31 126 54 105 85 C 83 115 66 154 54 201 C 42 248 36 303 36 366 C 36 484 57 575 99 640 C 141 704 202 737 282 737 C 340 737 384 722 416 692 C 447 662 469 624 482 580 L 401 552 C 390 582 376 608 358 629 C 340 649 315 660 281 660 C 232 660 194 637 166 591 C 138 545 125 469 125 362 C 125 308 129 262 138 224 C 147 186 159 156 174 133 C 189 110 206 94 226 84 C 245 74 265 69 286 69 C 324 69 353 80 373 103 C 393 125 408 154 420 190 L 494 156 C 476 105 450 65 415 36 C 380 7 336 -7 282 -7 Z M 274 0 L 274 0 Z M 279 -180 C 259 -180 239 -177 221 -171 C 203 -165 187 -157 175 -147 L 196 -114 C 203 -120 213 -126 226 -132 C 239 -138 253 -141 269 -141 C 281 -141 292 -137 301 -131 C 310 -124 315 -115 315 -105 C 315 -92 310 -83 302 -77 C 293 -71 284 -69 275 -69 C 267 -69 261 -69 255 -70 C 249 -71 243 -73 238 -76 L 229 -59 L 279 11 L 319 11 L 279 -45 C 305 -42 328 -46 346 -56 C 364 -66 373 -82 373 -106 C 373 -128 363 -146 345 -160 C 327 -173 305 -180 279 -180 Z" unicode="Ç" />
<glyph horiz-adv-x="393" d="M 63 0 L 63 0 Z M 378 0 L 63 0 L 63 730 L 361 730 L 361 652 L 150 652 L 150 403 L 353 403 L 353 327 L 150 327 L 150 78 L 378 78 L 378 0 Z M 213 792 L 213 792 Z M 302 792 L 222 792 L 124 964 L 218 964 L 302 792 Z" unicode="È" />
<glyph horiz-adv-x="393" d="M 63 0 L 63 0 Z M 378 0 L 63 0 L 63 730 L 361 730 L 361 652 L 150 652 L 150 403 L 353 403 L 353 327 L 150 327 L 150 78 L 378 78 L 378 0 Z M 213 792 L 213 792 Z M 124 792 L 208 964 L 302 964 L 204 792 L 124 792 Z" unicode="É" />
<glyph horiz-adv-x="393" d="M 63 0 L 63 0 Z M 378 0 L 63 0 L 63 730 L 361 730 L 361 652 L 150 652 L 150 403 L 353 403 L 353 327 L 150 327 L 150 78 L 378 78 L 378 0 Z M 213 793 L 213 793 Z M 345 793 L 274 793 L 213 902 L 151 793 L 81 793 L 178 964 L 248 964 L 345 793 Z" unicode="Ê" />
<glyph horiz-adv-x="393" d="M 63 0 L 63 0 Z M 378 0 L 63 0 L 63 730 L 361 730 L 361 652 L 150 652 L 150 403 L 353 403 L 353 327 L 150 327 L 150 78 L 378 78 L 378 0 Z M 213 794 L 213 794 Z M 320 794 L 253 794 L 253 951 L 320 951 L 320 794 Z M 173 794 L 106 794 L 106 951 L 173 951 L 173 794 Z" unicode="Ë" />
<glyph horiz-adv-x="224" d="M 22 0 L 22 0 Z M 158 0 L 67 0 L 67 730 L 158 730 L 158 0 Z M 111 792 L 111 792 Z M 200 792 L 120 792 L 22 964 L 116 964 L 200 792 Z" unicode="Ì" />
<glyph horiz-adv-x="224" d="M 22 0 L 22 0 Z M 158 0 L 67 0 L 67 730 L 158 730 L 158 0 Z M 111 792 L 111 792 Z M 22 792 L 106 964 L 200 964 L 102 792 L 22 792 Z" unicode="Í" />
<glyph horiz-adv-x="224" d="M 0 0 L 0 0 Z M 158 0 L 67 0 L 67 730 L 158 730 L 158 0 Z M 111 793 L 111 793 Z M 243 793 L 172 793 L 111 902 L 49 793 L -21 793 L 76 964 L 146 964 L 243 793 Z" unicode="Î" />
<glyph horiz-adv-x="224" d="M 4 0 L 4 0 Z M 158 0 L 67 0 L 67 730 L 158 730 L 158 0 Z M 111 794 L 111 794 Z M 218 794 L 151 794 L 151 951 L 218 951 L 218 794 Z M 71 794 L 4 794 L 4 951 L 71 951 L 71 794 Z" unicode="Ï" />
<glyph horiz-adv-x="539" d="M 504 363 C 504 312 498 264 486 220 C 474 176 456 137 432 105 C 408 73 378 47 342 28 C 305 9 262 0 214 0 L 63 0 L 63 325 L 20 325 L 20 396 L 63 396 L 63 730 L 221 730 C 266 730 306 721 342 704 C 377 686 407 662 431 630 C 455 598 473 560 485 515 C 497 469 504 419 504 363 Z M 152 70 L 214 70 C 250 70 280 77 306 91 C 331 105 351 124 367 150 C 383 175 394 206 402 242 C 409 278 413 317 413 361 C 413 461 396 536 363 586 C 329 635 283 660 223 660 L 152 660 L 152 396 L 279 396 L 279 325 L 152 325 L 152 70 Z" unicode="Ð" />
<glyph horiz-adv-x="535" d="M 63 0 L 63 0 Z M 472 0 L 408 0 L 147 518 L 147 0 L 63 0 L 63 730 L 127 730 L 391 207 L 391 730 L 472 730 L 472 0 Z M 268 800 L 268 800 Z M 354 934 L 416 934 C 416 888 409 855 397 833 C 385 811 368 800 348 800 C 330 800 315 804 302 812 C 288 820 277 827 269 834 C 259 840 250 847 242 854 C 233 860 224 864 216 864 C 207 864 199 858 193 847 C 187 835 183 821 183 805 L 121 805 C 121 849 129 883 147 905 C 164 927 182 939 201 939 C 215 939 228 935 240 927 C 251 919 262 911 274 903 C 282 896 290 890 298 884 C 306 878 314 876 323 876 C 331 876 338 881 344 891 C 350 901 354 915 354 934 Z" unicode="Ñ" />
<glyph horiz-adv-x="573" d="M 36 0 L 36 0 Z M 289 -7 C 209 -7 147 25 103 90 C 58 154 36 248 36 371 C 36 485 58 575 103 640 C 148 704 208 737 284 737 C 364 737 427 705 471 641 C 515 577 537 485 537 365 C 537 248 514 157 468 91 C 422 25 362 -7 289 -7 Z M 287 65 C 335 65 373 90 402 140 C 430 190 445 267 445 372 C 445 469 430 542 401 591 C 372 640 333 665 284 665 C 234 665 196 640 169 592 C 142 543 129 467 129 365 C 129 261 143 185 172 137 C 201 89 239 65 287 65 Z M 286 792 L 286 792 Z M 375 792 L 295 792 L 197 964 L 291 964 L 375 792 Z" unicode="Ò" />
<glyph horiz-adv-x="573" d="M 36 0 L 36 0 Z M 289 -7 C 209 -7 147 25 103 90 C 58 154 36 248 36 371 C 36 485 58 575 103 640 C 148 704 208 737 284 737 C 364 737 427 705 471 641 C 515 577 537 485 537 365 C 537 248 514 157 468 91 C 422 25 362 -7 289 -7 Z M 287 65 C 335 65 373 90 402 140 C 430 190 445 267 445 372 C 445 469 430 542 401 591 C 372 640 333 665 284 665 C 234 665 196 640 169 592 C 142 543 129 467 129 365 C 129 261 143 185 172 137 C 201 89 239 65 287 65 Z M 286 792 L 286 792 Z M 197 792 L 281 964 L 375 964 L 277 792 L 197 792 Z" unicode="Ó" />
<glyph horiz-adv-x="573" d="M 36 0 L 36 0 Z M 289 -7 C 209 -7 147 25 103 90 C 58 154 36 248 36 371 C 36 485 58 575 103 640 C 148 704 208 737 284 737 C 364 737 427 705 471 641 C 515 577 537 485 537 365 C 537 248 514 157 468 91 C 422 25 362 -7 289 -7 Z M 287 65 C 335 65 373 90 402 140 C 430 190 445 267 445 372 C 445 469 430 542 401 591 C 372 640 333 665 284 665 C 234 665 196 640 169 592 C 142 543 129 467 129 365 C 129 261 143 185 172 137 C 201 89 239 65 287 65 Z M 286 793 L 286 793 Z M 418 793 L 347 793 L 286 902 L 224 793 L 154 793 L 251 964 L 321 964 L 418 793 Z" unicode="Ô" />
<glyph horiz-adv-x="573" d="M 36 0 L 36 0 Z M 289 -7 C 209 -7 147 25 103 90 C 58 154 36 248 36 371 C 36 485 58 575 103 640 C 148 704 208 737 284 737 C 364 737 427 705 471 641 C 515 577 537 485 537 365 C 537 248 514 157 468 91 C 422 25 362 -7 289 -7 Z M 287 65 C 335 65 373 90 402 140 C 430 190 445 267 445 372 C 445 469 430 542 401 591 C 372 640 333 665 284 665 C 234 665 196 640 169 592 C 142 543 129 467 129 365 C 129 261 143 185 172 137 C 201 89 239 65 287 65 Z M 286 800 L 286 800 Z M 372 934 L 434 934 C 434 888 427 855 415 833 C 403 811 386 800 366 800 C 348 800 333 804 320 812 C 306 820 295 827 287 834 C 277 840 268 847 260 854 C 251 860 242 864 234 864 C 225 864 217 858 211 847 C 205 835 201 821 201 805 L 139 805 C 139 849 147 883 165 905 C 182 927 200 939 219 939 C 233 939 246 935 258 927 C 269 919 280 911 292 903 C 300 896 308 890 316 884 C 324 878 332 876 341 876 C 349 876 356 881 362 891 C 368 901 372 915 372 934 Z" unicode="Õ" />
<glyph horiz-adv-x="573" d="M 36 0 L 36 0 Z M 289 -7 C 209 -7 147 25 103 90 C 58 154 36 248 36 371 C 36 485 58 575 103 640 C 148 704 208 737 284 737 C 364 737 427 705 471 641 C 515 577 537 485 537 365 C 537 248 514 157 468 91 C 422 25 362 -7 289 -7 Z M 287 65 C 335 65 373 90 402 140 C 430 190 445 267 445 372 C 445 469 430 542 401 591 C 372 640 333 665 284 665 C 234 665 196 640 169 592 C 142 543 129 467 129 365 C 129 261 143 185 172 137 C 201 89 239 65 287 65 Z M 286 794 L 286 794 Z M 393 794 L 326 794 L 326 951 L 393 951 L 393 794 Z M 246 794 L 179 794 L 179 951 L 246 951 L 246 794 Z" unicode="Ö" />
<glyph horiz-adv-x="474" d="M 103 151 L 60 194 L 194 328 L 61 461 L 104 505 L 237 372 L 371 505 L 414 461 L 281 328 L 414 195 L 372 150 L 237 285 L 103 151 Z" unicode="×" />
<glyph horiz-adv-x="573" d="M 537 365 C 537 248 514 157 468 91 C 422 25 362 -7 289 -7 C 253 -7 221 0 192 12 C 163 25 138 44 117 70 L 66 -6 L 17 26 L 83 124 C 67 154 56 190 48 232 C 40 273 36 319 36 371 C 36 485 58 575 103 640 C 148 704 208 737 284 737 C 318 737 349 731 377 719 C 405 707 429 690 450 668 L 507 752 L 555 720 L 486 617 C 502 586 515 549 524 507 C 532 465 537 417 537 365 Z M 129 365 C 129 335 130 307 133 282 C 135 257 139 234 144 214 L 400 594 C 386 617 370 635 350 647 C 330 659 308 665 284 665 C 234 665 196 640 169 592 C 142 543 129 467 129 365 Z M 445 372 C 445 403 443 432 440 458 C 437 484 433 508 427 530 L 168 145 C 182 117 199 97 219 84 C 239 71 262 65 287 65 C 335 65 373 90 402 140 C 430 190 445 267 445 372 Z" unicode="Ø" />
<glyph horiz-adv-x="534" d="M 59 0 L 59 0 Z M 475 730 L 475 216 C 475 175 469 140 457 112 C 445 84 430 61 411 43 C 391 25 369 13 343 5 C 317 -3 290 -7 262 -7 C 235 -7 209 -3 185 4 C 160 12 138 24 120 42 C 101 59 86 82 75 111 C 64 139 59 174 59 216 L 59 730 L 148 730 L 148 215 C 148 161 159 124 181 102 C 203 80 232 70 266 70 C 298 70 326 80 348 101 C 370 121 382 159 382 215 L 382 730 L 475 730 Z M 265 792 L 265 792 Z M 354 792 L 274 792 L 176 964 L 270 964 L 354 792 Z" unicode="Ù" />
<glyph horiz-adv-x="534" d="M 59 0 L 59 0 Z M 475 730 L 475 216 C 475 175 469 140 457 112 C 445 84 430 61 411 43 C 391 25 369 13 343 5 C 317 -3 290 -7 262 -7 C 235 -7 209 -3 185 4 C 160 12 138 24 120 42 C 101 59 86 82 75 111 C 64 139 59 174 59 216 L 59 730 L 148 730 L 148 215 C 148 161 159 124 181 102 C 203 80 232 70 266 70 C 298 70 326 80 348 101 C 370 121 382 159 382 215 L 382 730 L 475 730 Z M 265 792 L 265 792 Z M 176 792 L 260 964 L 354 964 L 256 792 L 176 792 Z" unicode="Ú" />
<glyph horiz-adv-x="534" d="M 59 0 L 59 0 Z M 475 730 L 475 216 C 475 175 469 140 457 112 C 445 84 430 61 411 43 C 391 25 369 13 343 5 C 317 -3 290 -7 262 -7 C 235 -7 209 -3 185 4 C 160 12 138 24 120 42 C 101 59 86 82 75 111 C 64 139 59 174 59 216 L 59 730 L 148 730 L 148 215 C 148 161 159 124 181 102 C 203 80 232 70 266 70 C 298 70 326 80 348 101 C 370 121 382 159 382 215 L 382 730 L 475 730 Z M 265 793 L 265 793 Z M 397 793 L 326 793 L 265 902 L 203 793 L 133 793 L 230 964 L 300 964 L 397 793 Z" unicode="Û" />
<glyph horiz-adv-x="534" d="M 59 0 L 59 0 Z M 475 730 L 475 216 C 475 175 469 140 457 112 C 445 84 430 61 411 43 C 391 25 369 13 343 5 C 317 -3 290 -7 262 -7 C 235 -7 209 -3 185 4 C 160 12 138 24 120 42 C 101 59 86 82 75 111 C 64 139 59 174 59 216 L 59 730 L 148 730 L 148 215 C 148 161 159 124 181 102 C 203 80 232 70 266 70 C 298 70 326 80 348 101 C 370 121 382 159 382 215 L 382 730 L 475 730 Z M 265 794 L 265 794 Z M 372 794 L 305 794 L 305 951 L 372 951 L 372 794 Z M 225 794 L 158 794 L 158 951 L 225 951 L 225 794 Z" unicode="Ü" />
<glyph horiz-adv-x="457" d="M 0 0 L 0 0 Z M 459 730 L 271 318 L 271 0 L 181 0 L 181 320 L -1 730 L 103 730 L 232 410 L 373 730 L 459 730 Z M 232 792 L 232 792 Z M 143 792 L 227 964 L 321 964 L 223 792 L 143 792 Z" unicode="Ý" />
<glyph horiz-adv-x="438" d="M 63 0 L 63 730 L 153 730 L 153 599 L 230 599 C 256 599 281 594 305 585 C 328 575 348 562 366 544 C 383 526 397 504 407 478 C 417 452 422 422 422 388 C 422 316 403 261 366 223 C 328 184 282 165 227 165 L 153 165 L 153 0 L 63 0 Z M 150 237 L 222 237 C 256 237 284 250 306 276 C 328 302 339 339 339 387 C 339 433 327 467 303 491 C 279 514 252 526 222 526 L 150 526 L 150 237 Z" unicode="Þ" />
<glyph horiz-adv-x="471" d="M 329 -5 C 297 -5 269 1 245 15 C 221 28 201 46 187 69 L 231 124 C 243 106 256 92 271 82 C 286 72 302 67 320 67 C 336 67 351 73 365 86 C 379 98 386 117 386 141 C 386 164 377 183 360 199 C 343 215 320 233 292 254 C 261 276 237 297 221 317 C 204 337 196 367 196 405 C 196 439 205 467 223 489 C 241 511 263 525 287 531 C 294 533 301 543 308 559 C 314 575 318 599 319 631 C 319 670 310 697 292 711 C 274 725 254 733 232 733 C 206 733 184 723 168 704 C 151 685 143 656 143 618 L 143 0 L 60 0 L 60 622 C 60 679 75 723 106 755 C 136 786 177 802 229 802 C 277 802 316 787 347 757 C 377 727 393 683 393 625 C 393 579 386 543 374 516 C 362 488 348 473 334 469 C 317 468 302 463 289 453 C 275 443 269 428 269 408 C 269 388 276 373 290 362 C 304 350 327 333 360 309 C 391 285 415 261 431 236 C 447 210 456 177 456 136 C 456 111 452 90 444 72 C 436 54 425 39 413 28 C 401 16 387 8 372 3 C 357 -2 343 -5 329 -5 Z" unicode="ß" />
<glyph horiz-adv-x="368" d="M 20 0 L 20 0 Z M 326 0 L 257 0 L 257 53 C 241 34 225 20 209 10 C 193 0 170 -5 141 -5 C 107 -5 78 9 55 37 C 31 65 20 106 20 160 C 20 218 35 259 65 285 C 95 311 130 326 172 330 L 248 337 L 248 386 C 248 414 241 435 228 449 C 215 463 196 470 172 470 C 149 470 129 465 113 457 C 96 448 83 439 74 430 L 50 499 C 62 511 80 521 103 531 C 126 541 155 546 189 546 C 230 546 263 533 288 509 C 313 485 326 450 326 406 L 326 0 Z M 250 108 L 250 280 L 192 274 C 166 271 144 261 126 243 C 108 225 100 197 100 157 C 100 121 107 96 122 80 C 136 64 153 57 171 57 C 189 57 205 62 218 72 C 231 82 242 94 250 108 Z M 181 598 L 181 598 Z M 270 598 L 190 598 L 92 770 L 186 770 L 270 598 Z" unicode="à" />
<glyph horiz-adv-x="368" d="M 20 0 L 20 0 Z M 326 0 L 257 0 L 257 53 C 241 34 225 20 209 10 C 193 0 170 -5 141 -5 C 107 -5 78 9 55 37 C 31 65 20 106 20 160 C 20 218 35 259 65 285 C 95 311 130 326 172 330 L 248 337 L 248 386 C 248 414 241 435 228 449 C 215 463 196 470 172 470 C 149 470 129 465 113 457 C 96 448 83 439 74 430 L 50 499 C 62 511 80 521 103 531 C 126 541 155 546 189 546 C 230 546 263 533 288 509 C 313 485 326 450 326 406 L 326 0 Z M 250 108 L 250 280 L 192 274 C 166 271 144 261 126 243 C 108 225 100 197 100 157 C 100 121 107 96 122 80 C 136 64 153 57 171 57 C 189 57 205 62 218 72 C 231 82 242 94 250 108 Z M 181 598 L 181 598 Z M 92 598 L 176 770 L 270 770 L 172 598 L 92 598 Z" unicode="á" />
<glyph horiz-adv-x="368" d="M 20 0 L 20 0 Z M 326 0 L 257 0 L 257 53 C 241 34 225 20 209 10 C 193 0 170 -5 141 -5 C 107 -5 78 9 55 37 C 31 65 20 106 20 160 C 20 218 35 259 65 285 C 95 311 130 326 172 330 L 248 337 L 248 386 C 248 414 241 435 228 449 C 215 463 196 470 172 470 C 149 470 129 465 113 457 C 96 448 83 439 74 430 L 50 499 C 62 511 80 521 103 531 C 126 541 155 546 189 546 C 230 546 263 533 288 509 C 313 485 326 450 326 406 L 326 0 Z M 250 108 L 250 280 L 192 274 C 166 271 144 261 126 243 C 108 225 100 197 100 157 C 100 121 107 96 122 80 C 136 64 153 57 171 57 C 189 57 205 62 218 72 C 231 82 242 94 250 108 Z M 181 599 L 181 599 Z M 313 599 L 242 599 L 181 708 L 119 599 L 49 599 L 146 770 L 216 770 L 313 599 Z" unicode="â" />
<glyph horiz-adv-x="368" d="M 20 0 L 20 0 Z M 326 0 L 257 0 L 257 53 C 241 34 225 20 209 10 C 193 0 170 -5 141 -5 C 107 -5 78 9 55 37 C 31 65 20 106 20 160 C 20 218 35 259 65 285 C 95 311 130 326 172 330 L 248 337 L 248 386 C 248 414 241 435 228 449 C 215 463 196 470 172 470 C 149 470 129 465 113 457 C 96 448 83 439 74 430 L 50 499 C 62 511 80 521 103 531 C 126 541 155 546 189 546 C 230 546 263 533 288 509 C 313 485 326 450 326 406 L 326 0 Z M 250 108 L 250 280 L 192 274 C 166 271 144 261 126 243 C 108 225 100 197 100 157 C 100 121 107 96 122 80 C 136 64 153 57 171 57 C 189 57 205 62 218 72 C 231 82 242 94 250 108 Z M 181 606 L 181 606 Z M 267 740 L 329 740 C 329 694 322 661 310 639 C 298 617 281 606 261 606 C 243 606 228 610 215 618 C 201 626 190 633 182 640 C 172 646 163 653 155 660 C 146 666 137 670 129 670 C 120 670 112 664 106 653 C 100 641 96 627 96 611 L 34 611 C 34 655 42 689 60 711 C 77 733 95 745 114 745 C 128 745 141 741 153 733 C 164 725 175 717 187 709 C 195 702 203 696 211 690 C 219 684 227 682 236 682 C 244 682 251 687 257 697 C 263 707 267 721 267 740 Z" unicode="ã" />
<glyph horiz-adv-x="368" d="M 20 0 L 20 0 Z M 326 0 L 257 0 L 257 53 C 241 34 225 20 209 10 C 193 0 170 -5 141 -5 C 107 -5 78 9 55 37 C 31 65 20 106 20 160 C 20 218 35 259 65 285 C 95 311 130 326 172 330 L 248 337 L 248 386 C 248 414 241 435 228 449 C 215 463 196 470 172 470 C 149 470 129 465 113 457 C 96 448 83 439 74 430 L 50 499 C 62 511 80 521 103 531 C 126 541 155 546 189 546 C 230 546 263 533 288 509 C 313 485 326 450 326 406 L 326 0 Z M 250 108 L 250 280 L 192 274 C 166 271 144 261 126 243 C 108 225 100 197 100 157 C 100 121 107 96 122 80 C 136 64 153 57 171 57 C 189 57 205 62 218 72 C 231 82 242 94 250 108 Z M 181 600 L 181 600 Z M 288 600 L 221 600 L 221 757 L 288 757 L 288 600 Z M 141 600 L 74 600 L 74 757 L 141 757 L 141 600 Z" unicode="ä" />
<glyph horiz-adv-x="368" d="M 20 0 L 20 0 Z M 326 0 L 257 0 L 257 53 C 241 34 225 20 209 10 C 193 0 170 -5 141 -5 C 107 -5 78 9 55 37 C 31 65 20 106 20 160 C 20 218 35 259 65 285 C 95 311 130 326 172 330 L 248 337 L 248 386 C 248 414 241 435 228 449 C 215 463 196 470 172 470 C 149 470 129 465 113 457 C 96 448 83 439 74 430 L 50 499 C 62 511 80 521 103 531 C 126 541 155 546 189 546 C 230 546 263 533 288 509 C 313 485 326 450 326 406 L 326 0 Z M 250 108 L 250 280 L 192 274 C 166 271 144 261 126 243 C 108 225 100 197 100 157 C 100 121 107 96 122 80 C 136 64 153 57 171 57 C 189 57 205 62 218 72 C 231 82 242 94 250 108 Z M 181 579 L 181 579 Z M 181 579 C 147 579 119 590 95 614 C 71 638 60 666 60 700 C 60 733 71 761 95 785 C 119 809 147 821 181 821 C 215 821 243 809 267 785 C 291 761 303 733 303 700 C 303 666 291 638 267 614 C 243 590 215 579 181 579 Z M 182 629 C 201 629 217 636 231 650 C 244 664 251 680 251 700 C 251 720 244 736 231 750 C 217 764 201 771 182 771 C 162 771 146 764 132 750 C 118 736 112 720 112 700 C 112 680 118 664 132 650 C 146 636 162 629 182 629 Z" unicode="å" />
<glyph horiz-adv-x="603" d="M 415 -5 C 395 -5 378 -1 363 4 C 348 10 335 18 325 28 C 315 38 306 48 299 60 C 292 71 286 82 282 92 C 273 59 256 35 231 19 C 205 3 177 -5 145 -5 C 113 -5 84 9 59 37 C 33 65 21 106 21 158 C 21 216 35 258 65 284 C 95 310 130 325 172 329 L 248 335 L 248 360 C 248 403 241 432 227 448 C 213 463 193 471 169 471 C 146 471 126 466 110 457 C 94 448 82 440 75 433 L 51 499 C 64 511 81 521 102 530 C 122 539 149 544 183 544 C 210 544 234 537 256 523 C 278 509 291 486 295 454 C 301 473 315 492 335 511 C 355 530 382 540 417 540 C 470 540 511 514 541 462 C 570 410 585 339 585 251 L 325 251 C 325 199 333 155 351 120 C 369 84 395 67 429 67 C 455 67 476 74 492 88 C 508 102 522 116 533 130 L 572 86 C 558 65 539 45 515 25 C 490 5 457 -5 415 -5 Z M 324 307 L 505 307 C 505 357 497 396 481 426 C 465 456 444 471 417 471 C 391 471 370 456 353 428 C 336 399 326 359 324 307 Z M 171 57 C 189 57 207 63 223 77 C 239 91 248 113 250 145 L 250 278 L 191 273 C 166 270 145 260 127 243 C 109 225 100 197 100 157 C 100 121 107 96 122 80 C 137 64 153 57 171 57 Z" unicode="æ" />
<glyph horiz-adv-x="349" d="M 22 0 L 22 0 Z M 295 124 L 336 75 C 324 55 308 36 288 20 C 267 3 240 -5 206 -5 C 176 -5 150 1 127 15 C 104 28 85 47 69 71 C 53 95 42 123 34 157 C 26 191 22 227 22 267 C 22 303 25 338 33 372 C 41 405 52 434 67 459 C 82 484 101 504 124 519 C 146 533 173 541 204 541 C 240 541 269 531 292 511 C 314 491 330 471 340 449 L 282 406 C 274 422 265 437 253 449 C 241 461 224 467 204 467 C 172 467 148 449 132 413 C 116 377 108 329 108 270 C 108 200 118 149 138 116 C 158 82 184 66 216 66 C 238 66 255 72 267 86 C 279 99 288 112 295 124 Z M 191 0 L 191 0 Z M 196 -180 C 176 -180 156 -177 138 -171 C 120 -165 104 -157 92 -147 L 113 -114 C 120 -120 130 -126 143 -132 C 156 -138 170 -141 186 -141 C 198 -141 209 -137 218 -131 C 227 -124 232 -115 232 -105 C 232 -92 227 -83 219 -77 C 210 -71 201 -69 192 -69 C 184 -69 178 -69 172 -70 C 166 -71 160 -73 155 -76 L 146 -59 L 196 11 L 236 11 L 196 -45 C 222 -42 245 -46 263 -56 C 281 -66 290 -82 290 -106 C 290 -128 280 -146 262 -160 C 244 -173 222 -180 196 -180 Z" unicode="ç" />
<glyph horiz-adv-x="382" d="M 22 0 L 22 0 Z M 197 -5 C 143 -5 101 19 69 69 C 37 119 22 184 22 265 C 22 349 38 415 71 465 C 104 515 145 540 194 540 C 250 540 292 513 321 461 C 349 408 364 337 364 249 L 104 249 C 104 197 113 154 131 120 C 149 85 175 68 211 68 C 235 68 256 75 272 89 C 288 103 301 117 311 132 L 349 86 C 336 65 317 45 292 25 C 266 5 235 -5 197 -5 Z M 102 307 L 283 307 C 283 359 275 399 259 428 C 243 456 223 471 197 471 C 169 471 147 456 130 428 C 113 400 104 359 102 307 Z M 195 598 L 195 598 Z M 284 598 L 204 598 L 106 770 L 200 770 L 284 598 Z" unicode="è" />
<glyph horiz-adv-x="382" d="M 22 0 L 22 0 Z M 197 -5 C 143 -5 101 19 69 69 C 37 119 22 184 22 265 C 22 349 38 415 71 465 C 104 515 145 540 194 540 C 250 540 292 513 321 461 C 349 408 364 337 364 249 L 104 249 C 104 197 113 154 131 120 C 149 85 175 68 211 68 C 235 68 256 75 272 89 C 288 103 301 117 311 132 L 349 86 C 336 65 317 45 292 25 C 266 5 235 -5 197 -5 Z M 102 307 L 283 307 C 283 359 275 399 259 428 C 243 456 223 471 197 471 C 169 471 147 456 130 428 C 113 400 104 359 102 307 Z M 195 598 L 195 598 Z M 106 598 L 190 770 L 284 770 L 186 598 L 106 598 Z" unicode="é" />
<glyph horiz-adv-x="382" d="M 22 0 L 22 0 Z M 197 -5 C 143 -5 101 19 69 69 C 37 119 22 184 22 265 C 22 349 38 415 71 465 C 104 515 145 540 194 540 C 250 540 292 513 321 461 C 349 408 364 337 364 249 L 104 249 C 104 197 113 154 131 120 C 149 85 175 68 211 68 C 235 68 256 75 272 89 C 288 103 301 117 311 132 L 349 86 C 336 65 317 45 292 25 C 266 5 235 -5 197 -5 Z M 102 307 L 283 307 C 283 359 275 399 259 428 C 243 456 223 471 197 471 C 169 471 147 456 130 428 C 113 400 104 359 102 307 Z M 195 599 L 195 599 Z M 327 599 L 256 599 L 195 708 L 133 599 L 63 599 L 160 770 L 230 770 L 327 599 Z" unicode="ê" />
<glyph horiz-adv-x="382" d="M 22 0 L 22 0 Z M 197 -5 C 143 -5 101 19 69 69 C 37 119 22 184 22 265 C 22 349 38 415 71 465 C 104 515 145 540 194 540 C 250 540 292 513 321 461 C 349 408 364 337 364 249 L 104 249 C 104 197 113 154 131 120 C 149 85 175 68 211 68 C 235 68 256 75 272 89 C 288 103 301 117 311 132 L 349 86 C 336 65 317 45 292 25 C 266 5 235 -5 197 -5 Z M 102 307 L 283 307 C 283 359 275 399 259 428 C 243 456 223 471 197 471 C 169 471 147 456 130 428 C 113 400 104 359 102 307 Z M 195 600 L 195 600 Z M 302 600 L 235 600 L 235 757 L 302 757 L 302 600 Z M 155 600 L 88 600 L 88 757 L 155 757 L 155 600 Z" unicode="ë" />
<glyph horiz-adv-x="172" d="M 0 0 L 0 0 Z M 127 0 L 45 0 L 45 536 L 127 536 L 127 0 Z M 85 598 L 85 598 Z M 174 598 L 94 598 L -4 770 L 90 770 L 174 598 Z" unicode="ì" />
<glyph horiz-adv-x="172" d="M 0 0 L 0 0 Z M 127 0 L 45 0 L 45 536 L 127 536 L 127 0 Z M 85 598 L 85 598 Z M -4 598 L 80 770 L 174 770 L 76 598 L -4 598 Z" unicode="í" />
<glyph horiz-adv-x="172" d="M 0 0 L 0 0 Z M 127 0 L 45 0 L 45 536 L 127 536 L 127 0 Z M 85 599 L 85 599 Z M 217 599 L 146 599 L 85 708 L 23 599 L -47 599 L 50 770 L 120 770 L 217 599 Z" unicode="î" />
<glyph horiz-adv-x="172" d="M 0 0 L 0 0 Z M 127 0 L 45 0 L 45 536 L 127 536 L 127 0 Z M 85 600 L 85 600 Z M 192 600 L 125 600 L 125 757 L 192 757 L 192 600 Z M 45 600 L -22 600 L -22 757 L 45 757 L 45 600 Z" unicode="ï" />
<glyph horiz-adv-x="404" d="M 374 302 C 374 256 370 215 363 177 C 355 139 344 106 330 79 C 315 52 297 31 275 16 C 253 0 228 -7 200 -7 C 147 -7 104 16 71 62 C 38 108 22 173 22 257 C 22 301 26 339 35 373 C 44 407 56 435 71 457 C 85 479 102 496 122 508 C 142 519 162 525 183 525 C 210 525 232 518 249 506 C 265 493 279 475 289 453 C 285 487 278 518 270 548 C 262 578 253 605 243 630 L 157 591 L 140 649 L 217 683 C 203 707 190 728 178 744 C 165 760 155 770 149 775 L 206 802 C 212 797 222 787 236 772 C 249 756 263 736 278 711 L 338 738 L 356 681 L 305 658 C 323 617 339 567 353 507 C 367 447 374 379 374 302 Z M 197 64 C 227 64 249 80 264 112 C 279 144 287 194 287 260 C 287 329 279 379 263 411 C 247 442 225 458 195 458 C 167 458 145 441 129 407 C 113 373 106 324 106 260 C 106 192 114 142 130 111 C 146 79 168 64 197 64 Z" unicode="ð" />
<glyph horiz-adv-x="397" d="M 42 0 L 42 0 Z M 355 0 L 273 0 L 273 400 C 273 422 267 440 255 452 C 243 464 226 471 206 471 C 184 471 165 464 149 451 C 133 437 125 413 125 377 L 125 0 L 42 0 L 42 536 L 112 536 L 112 462 C 120 484 135 503 156 518 C 176 533 203 541 236 541 C 272 541 300 531 322 513 C 344 495 355 466 355 427 L 355 0 Z M 200 606 L 200 606 Z M 286 740 L 348 740 C 348 694 341 661 329 639 C 317 617 300 606 280 606 C 262 606 247 610 234 618 C 220 626 209 633 201 640 C 191 646 182 653 174 660 C 165 666 156 670 148 670 C 139 670 131 664 125 653 C 119 641 115 627 115 611 L 53 611 C 53 655 61 689 79 711 C 96 733 114 745 133 745 C 147 745 160 741 172 733 C 183 725 194 717 206 709 C 214 702 222 696 230 690 C 238 684 246 682 255 682 C 263 682 270 687 276 697 C 282 707 286 721 286 740 Z" unicode="ñ" />
<glyph horiz-adv-x="394" d="M 22 0 L 22 0 Z M 198 -5 C 146 -5 104 18 71 64 C 38 110 22 177 22 267 C 22 351 37 418 69 467 C 101 516 142 541 192 541 C 246 541 290 518 323 473 C 355 428 372 364 372 281 C 372 193 356 124 325 72 C 294 20 252 -5 198 -5 Z M 199 67 C 227 67 249 83 264 116 C 279 149 287 201 287 272 C 287 342 279 392 263 422 C 247 452 224 468 195 468 C 167 468 146 452 130 422 C 114 391 107 341 107 272 C 107 196 115 143 132 113 C 148 82 171 67 199 67 Z M 197 598 L 197 598 Z M 286 598 L 206 598 L 108 770 L 202 770 L 286 598 Z" unicode="ò" />
<glyph horiz-adv-x="394" d="M 22 0 L 22 0 Z M 198 -5 C 146 -5 104 18 71 64 C 38 110 22 177 22 267 C 22 351 37 418 69 467 C 101 516 142 541 192 541 C 246 541 290 518 323 473 C 355 428 372 364 372 281 C 372 193 356 124 325 72 C 294 20 252 -5 198 -5 Z M 199 67 C 227 67 249 83 264 116 C 279 149 287 201 287 272 C 287 342 279 392 263 422 C 247 452 224 468 195 468 C 167 468 146 452 130 422 C 114 391 107 341 107 272 C 107 196 115 143 132 113 C 148 82 171 67 199 67 Z M 197 598 L 197 598 Z M 108 598 L 192 770 L 286 770 L 188 598 L 108 598 Z" unicode="ó" />
<glyph horiz-adv-x="394" d="M 22 0 L 22 0 Z M 198 -5 C 146 -5 104 18 71 64 C 38 110 22 177 22 267 C 22 351 37 418 69 467 C 101 516 142 541 192 541 C 246 541 290 518 323 473 C 355 428 372 364 372 281 C 372 193 356 124 325 72 C 294 20 252 -5 198 -5 Z M 199 67 C 227 67 249 83 264 116 C 279 149 287 201 287 272 C 287 342 279 392 263 422 C 247 452 224 468 195 468 C 167 468 146 452 130 422 C 114 391 107 341 107 272 C 107 196 115 143 132 113 C 148 82 171 67 199 67 Z M 197 599 L 197 599 Z M 329 599 L 258 599 L 197 708 L 135 599 L 65 599 L 162 770 L 232 770 L 329 599 Z" unicode="ô" />
<glyph horiz-adv-x="394" d="M 22 0 L 22 0 Z M 198 -5 C 146 -5 104 18 71 64 C 38 110 22 177 22 267 C 22 351 37 418 69 467 C 101 516 142 541 192 541 C 246 541 290 518 323 473 C 355 428 372 364 372 281 C 372 193 356 124 325 72 C 294 20 252 -5 198 -5 Z M 199 67 C 227 67 249 83 264 116 C 279 149 287 201 287 272 C 287 342 279 392 263 422 C 247 452 224 468 195 468 C 167 468 146 452 130 422 C 114 391 107 341 107 272 C 107 196 115 143 132 113 C 148 82 171 67 199 67 Z M 197 606 L 197 606 Z M 283 740 L 345 740 C 345 694 338 661 326 639 C 314 617 297 606 277 606 C 259 606 244 610 231 618 C 217 626 206 633 198 640 C 188 646 179 653 171 660 C 162 666 153 670 145 670 C 136 670 128 664 122 653 C 116 641 112 627 112 611 L 50 611 C 50 655 58 689 76 711 C 93 733 111 745 130 745 C 144 745 157 741 169 733 C 180 725 191 717 203 709 C 211 702 219 696 227 690 C 235 684 243 682 252 682 C 260 682 267 687 273 697 C 279 707 283 721 283 740 Z" unicode="õ" />
<glyph horiz-adv-x="394" d="M 22 0 L 22 0 Z M 198 -5 C 146 -5 104 18 71 64 C 38 110 22 177 22 267 C 22 351 37 418 69 467 C 101 516 142 541 192 541 C 246 541 290 518 323 473 C 355 428 372 364 372 281 C 372 193 356 124 325 72 C 294 20 252 -5 198 -5 Z M 199 67 C 227 67 249 83 264 116 C 279 149 287 201 287 272 C 287 342 279 392 263 422 C 247 452 224 468 195 468 C 167 468 146 452 130 422 C 114 391 107 341 107 272 C 107 196 115 143 132 113 C 148 82 171 67 199 67 Z M 197 600 L 197 600 Z M 304 600 L 237 600 L 237 757 L 304 757 L 304 600 Z M 157 600 L 90 600 L 90 757 L 157 757 L 157 600 Z" unicode="ö" />
<glyph horiz-adv-x="474" d="M 198 448 L 198 561 L 277 561 L 277 448 L 198 448 Z M 26 295 L 26 366 L 448 366 L 448 295 L 26 295 Z M 198 100 L 198 213 L 277 213 L 277 100 L 198 100 Z" unicode="÷" />
<glyph horiz-adv-x="394" d="M 372 281 C 372 193 356 124 325 72 C 294 20 252 -5 198 -5 C 177 -5 158 -1 140 6 C 122 13 105 24 91 39 L 67 -2 L 30 22 L 62 78 C 49 100 39 127 32 159 C 25 191 22 227 22 267 C 22 351 37 418 69 467 C 101 516 142 541 192 541 C 214 541 235 537 254 529 C 272 521 289 510 304 496 L 331 543 L 369 519 L 333 458 C 345 436 355 410 362 380 C 368 350 372 317 372 281 Z M 107 272 C 107 251 107 232 109 215 C 110 197 112 182 115 169 L 262 424 C 254 439 245 450 234 457 C 222 464 209 468 195 468 C 167 468 146 452 130 422 C 114 391 107 341 107 272 Z M 287 272 C 287 290 286 307 285 323 C 284 339 282 353 280 366 L 133 111 C 141 95 150 84 161 77 C 172 70 185 67 199 67 C 227 67 249 83 264 116 C 279 149 287 201 287 272 Z" unicode="ø" />
<glyph horiz-adv-x="397" d="M 42 0 L 42 0 Z M 42 536 L 124 536 L 124 148 C 124 119 130 98 143 84 C 155 70 173 64 196 64 C 216 64 233 71 249 86 C 264 101 272 128 272 168 L 272 536 L 354 536 L 354 0 L 282 0 L 282 77 C 274 55 260 35 239 19 C 217 2 191 -6 160 -6 C 128 -6 100 5 77 27 C 53 49 42 82 42 124 L 42 536 Z M 198 598 L 198 598 Z M 287 598 L 207 598 L 109 770 L 203 770 L 287 598 Z" unicode="ù" />
<glyph horiz-adv-x="397" d="M 42 0 L 42 0 Z M 42 536 L 124 536 L 124 148 C 124 119 130 98 143 84 C 155 70 173 64 196 64 C 216 64 233 71 249 86 C 264 101 272 128 272 168 L 272 536 L 354 536 L 354 0 L 282 0 L 282 77 C 274 55 260 35 239 19 C 217 2 191 -6 160 -6 C 128 -6 100 5 77 27 C 53 49 42 82 42 124 L 42 536 Z M 198 598 L 198 598 Z M 109 598 L 193 770 L 287 770 L 189 598 L 109 598 Z" unicode="ú" />
<glyph horiz-adv-x="397" d="M 42 0 L 42 0 Z M 42 536 L 124 536 L 124 148 C 124 119 130 98 143 84 C 155 70 173 64 196 64 C 216 64 233 71 249 86 C 264 101 272 128 272 168 L 272 536 L 354 536 L 354 0 L 282 0 L 282 77 C 274 55 260 35 239 19 C 217 2 191 -6 160 -6 C 128 -6 100 5 77 27 C 53 49 42 82 42 124 L 42 536 Z M 198 599 L 198 599 Z M 330 599 L 259 599 L 198 708 L 136 599 L 66 599 L 163 770 L 233 770 L 330 599 Z" unicode="û" />
<glyph horiz-adv-x="397" d="M 42 0 L 42 0 Z M 42 536 L 124 536 L 124 148 C 124 119 130 98 143 84 C 155 70 173 64 196 64 C 216 64 233 71 249 86 C 264 101 272 128 272 168 L 272 536 L 354 536 L 354 0 L 282 0 L 282 77 C 274 55 260 35 239 19 C 217 2 191 -6 160 -6 C 128 -6 100 5 77 27 C 53 49 42 82 42 124 L 42 536 Z M 198 600 L 198 600 Z M 305 600 L 238 600 L 238 757 L 305 757 L 305 600 Z M 158 600 L 91 600 L 91 757 L 158 757 L 158 600 Z" unicode="ü" />
<glyph horiz-adv-x="331" d="M 0 0 L 0 0 Z M 334 536 L 169 -99 C 160 -131 145 -155 124 -173 C 103 -191 80 -200 56 -200 C 29 -200 8 -197 -7 -192 C -22 -186 -32 -181 -37 -177 L -4 -116 C 0 -118 6 -121 16 -125 C 26 -128 35 -130 45 -130 C 57 -130 68 -124 80 -114 C 91 -104 99 -89 104 -69 L 130 42 L -3 536 L 81 536 L 171 159 L 258 536 L 334 536 Z M 171 598 L 171 598 Z M 82 598 L 166 770 L 260 770 L 162 598 L 82 598 Z" unicode="ý" />
<glyph horiz-adv-x="401" d="M 42 -200 L 42 800 L 119 800 L 119 438 C 125 466 139 491 160 511 C 180 531 206 541 237 541 C 261 541 283 534 301 521 C 319 508 333 490 345 468 C 357 446 365 419 371 388 C 377 356 380 322 380 286 C 380 194 366 123 339 72 C 312 21 276 -4 230 -4 C 201 -4 177 3 158 19 C 139 34 126 53 120 75 L 120 -200 L 42 -200 Z M 200 63 C 228 63 251 79 268 112 C 284 144 293 195 293 264 C 293 326 286 375 272 411 C 258 447 235 465 204 465 C 192 465 181 462 171 456 C 161 450 152 439 144 423 C 136 407 129 386 124 359 C 119 332 117 298 117 256 C 117 217 119 185 123 160 C 127 134 133 115 141 101 C 148 87 157 77 167 71 C 177 65 188 63 200 63 Z" unicode="þ" />
<glyph horiz-adv-x="331" d="M 0 0 L 0 0 Z M 334 536 L 169 -99 C 160 -131 145 -155 124 -173 C 103 -191 80 -200 56 -200 C 29 -200 8 -197 -7 -192 C -22 -186 -32 -181 -37 -177 L -4 -116 C 0 -118 6 -121 16 -125 C 26 -128 35 -130 45 -130 C 57 -130 68 -124 80 -114 C 91 -104 99 -89 104 -69 L 130 42 L -3 536 L 81 536 L 171 159 L 258 536 L 334 536 Z M 171 600 L 171 600 Z M 278 600 L 211 600 L 211 757 L 278 757 L 278 600 Z M 131 600 L 64 600 L 64 757 L 131 757 L 131 600 Z" unicode="ÿ" />
<glyph horiz-adv-x="475" d="M 2 0 L 2 0 Z M 473 0 L 387 0 L 336 186 L 134 186 L 86 0 L 2 0 L 206 734 L 268 734 L 473 0 Z M 325 251 L 234 585 L 146 251 L 325 251 Z M 238 812 L 238 812 Z M 357 812 L 119 812 L 119 881 L 357 881 L 357 812 Z" unicode="Ā" />
<glyph horiz-adv-x="368" d="M 20 0 L 20 0 Z M 326 0 L 257 0 L 257 53 C 241 34 225 20 209 10 C 193 0 170 -5 141 -5 C 107 -5 78 9 55 37 C 31 65 20 106 20 160 C 20 218 35 259 65 285 C 95 311 130 326 172 330 L 248 337 L 248 386 C 248 414 241 435 228 449 C 215 463 196 470 172 470 C 149 470 129 465 113 457 C 96 448 83 439 74 430 L 50 499 C 62 511 80 521 103 531 C 126 541 155 546 189 546 C 230 546 263 533 288 509 C 313 485 326 450 326 406 L 326 0 Z M 250 108 L 250 280 L 192 274 C 166 271 144 261 126 243 C 108 225 100 197 100 157 C 100 121 107 96 122 80 C 136 64 153 57 171 57 C 189 57 205 62 218 72 C 231 82 242 94 250 108 Z M 181 618 L 181 618 Z M 300 618 L 62 618 L 62 687 L 300 687 L 300 618 Z" unicode="ā" />
<glyph horiz-adv-x="475" d="M 2 0 L 2 0 Z M 473 0 L 387 0 L 336 186 L 134 186 L 86 0 L 2 0 L 206 734 L 268 734 L 473 0 Z M 325 251 L 234 585 L 146 251 L 325 251 Z M 238 799 L 238 799 Z M 297 956 L 366 956 C 362 901 348 861 325 836 C 302 811 273 799 238 799 C 202 799 173 811 150 836 C 127 861 114 901 111 956 L 180 956 C 182 929 187 907 195 890 C 203 873 217 865 238 865 C 258 865 273 873 281 889 C 289 905 295 928 297 956 Z" unicode="Ă" />
<glyph horiz-adv-x="368" d="M 20 0 L 20 0 Z M 326 0 L 257 0 L 257 53 C 241 34 225 20 209 10 C 193 0 170 -5 141 -5 C 107 -5 78 9 55 37 C 31 65 20 106 20 160 C 20 218 35 259 65 285 C 95 311 130 326 172 330 L 248 337 L 248 386 C 248 414 241 435 228 449 C 215 463 196 470 172 470 C 149 470 129 465 113 457 C 96 448 83 439 74 430 L 50 499 C 62 511 80 521 103 531 C 126 541 155 546 189 546 C 230 546 263 533 288 509 C 313 485 326 450 326 406 L 326 0 Z M 250 108 L 250 280 L 192 274 C 166 271 144 261 126 243 C 108 225 100 197 100 157 C 100 121 107 96 122 80 C 136 64 153 57 171 57 C 189 57 205 62 218 72 C 231 82 242 94 250 108 Z M 181 605 L 181 605 Z M 240 762 L 309 762 C 305 707 291 667 268 642 C 245 617 216 605 181 605 C 145 605 116 617 93 642 C 70 667 57 707 54 762 L 123 762 C 125 735 130 713 138 696 C 146 679 160 671 181 671 C 201 671 216 679 224 695 C 232 711 238 734 240 762 Z" unicode="ă" />
<glyph horiz-adv-x="475" d="M 2 0 L 2 0 Z M 473 0 L 387 0 L 336 186 L 134 186 L 86 0 L 2 0 L 206 734 L 268 734 L 473 0 Z M 325 251 L 234 585 L 146 251 L 325 251 Z M 385 -9 L 385 -9 Z M 479 -101 L 503 -136 C 483 -156 462 -171 440 -182 C 417 -192 392 -198 364 -198 C 333 -198 309 -190 292 -176 C 274 -161 266 -143 266 -121 C 266 -96 276 -73 298 -51 C 320 -29 353 -11 397 4 L 429 4 C 397 -10 373 -25 359 -40 C 345 -55 338 -71 338 -87 C 338 -101 342 -113 352 -122 C 362 -131 375 -136 391 -136 C 409 -136 425 -132 440 -126 C 455 -119 468 -111 479 -101 Z" unicode="Ą" />
<glyph horiz-adv-x="368" d="M 20 0 L 20 0 Z M 326 0 L 257 0 L 257 53 C 241 34 225 20 209 10 C 193 0 170 -5 141 -5 C 107 -5 78 9 55 37 C 31 65 20 106 20 160 C 20 218 35 259 65 285 C 95 311 130 326 172 330 L 248 337 L 248 386 C 248 414 241 435 228 449 C 215 463 196 470 172 470 C 149 470 129 465 113 457 C 96 448 83 439 74 430 L 50 499 C 62 511 80 521 103 531 C 126 541 155 546 189 546 C 230 546 263 533 288 509 C 313 485 326 450 326 406 L 326 0 Z M 250 108 L 250 280 L 192 274 C 166 271 144 261 126 243 C 108 225 100 197 100 157 C 100 121 107 96 122 80 C 136 64 153 57 171 57 C 189 57 205 62 218 72 C 231 82 242 94 250 108 Z M 254 -9 L 254 -9 Z M 348 -101 L 372 -136 C 352 -156 331 -171 309 -182 C 286 -192 261 -198 233 -198 C 202 -198 178 -190 161 -176 C 143 -161 135 -143 135 -121 C 135 -96 145 -73 167 -51 C 189 -29 222 -11 266 4 L 298 4 C 266 -10 242 -25 228 -40 C 214 -55 207 -71 207 -87 C 207 -101 211 -113 221 -122 C 231 -131 244 -136 260 -136 C 278 -136 294 -132 309 -126 C 324 -119 337 -111 348 -101 Z" unicode="ą" />
<glyph horiz-adv-x="524" d="M 36 0 L 36 0 Z M 282 -7 C 246 -7 212 0 182 16 C 152 31 126 54 105 85 C 83 115 66 154 54 201 C 42 248 36 303 36 366 C 36 484 57 575 99 640 C 141 704 202 737 282 737 C 340 737 384 722 416 692 C 447 662 469 624 482 580 L 401 552 C 390 582 376 608 358 629 C 340 649 315 660 281 660 C 232 660 194 637 166 591 C 138 545 125 469 125 362 C 125 308 129 262 138 224 C 147 186 159 156 174 133 C 189 110 206 94 226 84 C 245 74 265 69 286 69 C 324 69 353 80 373 103 C 393 125 408 154 420 190 L 494 156 C 476 105 450 65 415 36 C 380 7 336 -7 282 -7 Z M 285 792 L 285 792 Z M 196 792 L 280 964 L 374 964 L 276 792 L 196 792 Z" unicode="Ć" />
<glyph horiz-adv-x="349" d="M 22 0 L 22 0 Z M 295 124 L 336 75 C 324 55 308 36 288 20 C 267 3 240 -5 206 -5 C 176 -5 150 1 127 15 C 104 28 85 47 69 71 C 53 95 42 123 34 157 C 26 191 22 227 22 267 C 22 303 25 338 33 372 C 41 405 52 434 67 459 C 82 484 101 504 124 519 C 146 533 173 541 204 541 C 240 541 269 531 292 511 C 314 491 330 471 340 449 L 282 406 C 274 422 265 437 253 449 C 241 461 224 467 204 467 C 172 467 148 449 132 413 C 116 377 108 329 108 270 C 108 200 118 149 138 116 C 158 82 184 66 216 66 C 238 66 255 72 267 86 C 279 99 288 112 295 124 Z M 200 598 L 200 598 Z M 111 598 L 195 770 L 289 770 L 191 598 L 111 598 Z" unicode="ć" />
<glyph horiz-adv-x="524" d="M 36 0 L 36 0 Z M 282 -7 C 246 -7 212 0 182 16 C 152 31 126 54 105 85 C 83 115 66 154 54 201 C 42 248 36 303 36 366 C 36 484 57 575 99 640 C 141 704 202 737 282 737 C 340 737 384 722 416 692 C 447 662 469 624 482 580 L 401 552 C 390 582 376 608 358 629 C 340 649 315 660 281 660 C 232 660 194 637 166 591 C 138 545 125 469 125 362 C 125 308 129 262 138 224 C 147 186 159 156 174 133 C 189 110 206 94 226 84 C 245 74 265 69 286 69 C 324 69 353 80 373 103 C 393 125 408 154 420 190 L 494 156 C 476 105 450 65 415 36 C 380 7 336 -7 282 -7 Z M 285 793 L 285 793 Z M 417 793 L 346 793 L 285 902 L 223 793 L 153 793 L 250 964 L 320 964 L 417 793 Z" unicode="Ĉ" />
<glyph horiz-adv-x="349" d="M 22 0 L 22 0 Z M 295 124 L 336 75 C 324 55 308 36 288 20 C 267 3 240 -5 206 -5 C 176 -5 150 1 127 15 C 104 28 85 47 69 71 C 53 95 42 123 34 157 C 26 191 22 227 22 267 C 22 303 25 338 33 372 C 41 405 52 434 67 459 C 82 484 101 504 124 519 C 146 533 173 541 204 541 C 240 541 269 531 292 511 C 314 491 330 471 340 449 L 282 406 C 274 422 265 437 253 449 C 241 461 224 467 204 467 C 172 467 148 449 132 413 C 116 377 108 329 108 270 C 108 200 118 149 138 116 C 158 82 184 66 216 66 C 238 66 255 72 267 86 C 279 99 288 112 295 124 Z M 200 599 L 200 599 Z M 332 599 L 261 599 L 200 708 L 138 599 L 68 599 L 165 770 L 235 770 L 332 599 Z" unicode="ĉ" />
<glyph horiz-adv-x="524" d="M 36 0 L 36 0 Z M 282 -7 C 246 -7 212 0 182 16 C 152 31 126 54 105 85 C 83 115 66 154 54 201 C 42 248 36 303 36 366 C 36 484 57 575 99 640 C 141 704 202 737 282 737 C 340 737 384 722 416 692 C 447 662 469 624 482 580 L 401 552 C 390 582 376 608 358 629 C 340 649 315 660 281 660 C 232 660 194 637 166 591 C 138 545 125 469 125 362 C 125 308 129 262 138 224 C 147 186 159 156 174 133 C 189 110 206 94 226 84 C 245 74 265 69 286 69 C 324 69 353 80 373 103 C 393 125 408 154 420 190 L 494 156 C 476 105 450 65 415 36 C 380 7 336 -7 282 -7 Z M 285 799 L 285 799 Z M 324 799 L 247 799 L 247 912 L 324 913 L 324 799 Z" unicode="Ċ" />
<glyph horiz-adv-x="349" d="M 22 0 L 22 0 Z M 295 124 L 336 75 C 324 55 308 36 288 20 C 267 3 240 -5 206 -5 C 176 -5 150 1 127 15 C 104 28 85 47 69 71 C 53 95 42 123 34 157 C 26 191 22 227 22 267 C 22 303 25 338 33 372 C 41 405 52 434 67 459 C 82 484 101 504 124 519 C 146 533 173 541 204 541 C 240 541 269 531 292 511 C 314 491 330 471 340 449 L 282 406 C 274 422 265 437 253 449 C 241 461 224 467 204 467 C 172 467 148 449 132 413 C 116 377 108 329 108 270 C 108 200 118 149 138 116 C 158 82 184 66 216 66 C 238 66 255 72 267 86 C 279 99 288 112 295 124 Z M 200 605 L 200 605 Z M 239 605 L 162 605 L 162 718 L 239 719 L 239 605 Z" unicode="ċ" />
<glyph horiz-adv-x="524" d="M 36 0 L 36 0 Z M 282 -7 C 246 -7 212 0 182 16 C 152 31 126 54 105 85 C 83 115 66 154 54 201 C 42 248 36 303 36 366 C 36 484 57 575 99 640 C 141 704 202 737 282 737 C 340 737 384 722 416 692 C 447 662 469 624 482 580 L 401 552 C 390 582 376 608 358 629 C 340 649 315 660 281 660 C 232 660 194 637 166 591 C 138 545 125 469 125 362 C 125 308 129 262 138 224 C 147 186 159 156 174 133 C 189 110 206 94 226 84 C 245 74 265 69 286 69 C 324 69 353 80 373 103 C 393 125 408 154 420 190 L 494 156 C 476 105 450 65 415 36 C 380 7 336 -7 282 -7 Z M 285 793 L 285 793 Z M 153 964 L 225 964 L 286 856 L 348 964 L 417 964 L 320 793 L 250 793 L 153 964 Z" unicode="Č" />
<glyph horiz-adv-x="349" d="M 22 0 L 22 0 Z M 295 124 L 336 75 C 324 55 308 36 288 20 C 267 3 240 -5 206 -5 C 176 -5 150 1 127 15 C 104 28 85 47 69 71 C 53 95 42 123 34 157 C 26 191 22 227 22 267 C 22 303 25 338 33 372 C 41 405 52 434 67 459 C 82 484 101 504 124 519 C 146 533 173 541 204 541 C 240 541 269 531 292 511 C 314 491 330 471 340 449 L 282 406 C 274 422 265 437 253 449 C 241 461 224 467 204 467 C 172 467 148 449 132 413 C 116 377 108 329 108 270 C 108 200 118 149 138 116 C 158 82 184 66 216 66 C 238 66 255 72 267 86 C 279 99 288 112 295 124 Z M 200 599 L 200 599 Z M 68 770 L 140 770 L 201 662 L 263 770 L 332 770 L 235 599 L 165 599 L 68 770 Z" unicode="č" />
<glyph horiz-adv-x="539" d="M 63 0 L 63 0 Z M 63 0 L 63 730 L 221 730 C 266 730 306 721 342 704 C 377 686 407 662 431 631 C 455 599 473 561 485 516 C 497 471 504 421 504 367 C 504 315 498 267 486 222 C 474 177 456 138 432 106 C 408 73 378 47 342 28 C 305 9 262 0 214 0 L 63 0 Z M 152 75 L 214 75 C 250 75 280 82 306 96 C 331 110 351 129 367 154 C 383 179 394 210 402 246 C 409 282 413 322 413 366 C 413 462 396 535 363 583 C 329 631 283 655 223 655 L 152 655 L 152 75 Z M 252 793 L 252 793 Z M 120 964 L 192 964 L 253 856 L 315 964 L 384 964 L 287 793 L 217 793 L 120 964 Z" unicode="Ď" />
<glyph horiz-adv-x="416" d="M 22 0 L 22 0 Z M 178 -5 C 154 -5 132 1 113 15 C 93 29 77 47 64 71 C 50 95 40 123 33 156 C 25 189 22 225 22 263 C 22 347 36 414 65 464 C 94 514 132 539 178 539 C 208 539 234 527 254 505 C 274 482 288 455 295 424 L 295 800 L 373 800 L 373 0 L 300 0 L 300 91 C 294 68 280 46 260 26 C 240 5 212 -5 178 -5 Z M 203 64 C 231 64 254 81 271 115 C 288 149 297 201 297 272 C 297 342 287 391 269 421 C 250 450 228 465 202 465 C 173 465 150 449 133 417 C 116 385 108 335 108 268 C 108 200 116 149 133 115 C 149 81 173 64 203 64 Z M 496 621 L 492 486 L 422 486 L 418 621 L 418 730 L 496 730 L 496 621 Z" unicode="ď" />
<glyph horiz-adv-x="539" d="M 20 0 L 20 0 Z M 504 363 C 504 312 498 264 486 220 C 474 176 456 137 432 105 C 408 73 378 47 342 28 C 305 9 262 0 214 0 L 63 0 L 63 325 L 20 325 L 20 396 L 63 396 L 63 730 L 221 730 C 266 730 306 721 342 704 C 377 686 407 662 431 630 C 455 598 473 560 485 515 C 497 469 504 419 504 363 Z M 152 70 L 214 70 C 250 70 280 77 306 91 C 331 105 351 124 367 150 C 383 175 394 206 402 242 C 409 278 413 317 413 361 C 413 461 396 536 363 586 C 329 635 283 660 223 660 L 152 660 L 152 396 L 279 396 L 279 325 L 152 325 L 152 70 Z" unicode="Đ" />
<glyph horiz-adv-x="416" d="M 300 91 C 294 68 280 46 260 26 C 240 5 212 -5 178 -5 C 154 -5 132 1 113 15 C 93 29 77 47 64 71 C 50 95 40 123 33 156 C 25 189 22 225 22 263 C 22 347 36 414 65 464 C 94 514 132 539 178 539 C 208 539 234 527 254 505 C 274 482 288 455 295 424 L 295 628 L 214 628 L 214 700 L 295 700 L 295 800 L 373 800 L 373 700 L 416 700 L 416 628 L 373 628 L 373 0 L 300 0 L 300 91 Z M 203 64 C 231 64 254 81 271 115 C 288 149 297 201 297 272 C 297 342 287 391 269 421 C 250 450 228 465 202 465 C 173 465 150 449 133 417 C 116 385 108 335 108 268 C 108 200 116 149 133 115 C 149 81 173 64 203 64 Z" unicode="đ" />
<glyph horiz-adv-x="393" d="M 63 0 L 63 0 Z M 378 0 L 63 0 L 63 730 L 361 730 L 361 652 L 150 652 L 150 403 L 353 403 L 353 327 L 150 327 L 150 78 L 378 78 L 378 0 Z M 213 812 L 213 812 Z M 332 812 L 94 812 L 94 881 L 332 881 L 332 812 Z" unicode="Ē" />
<glyph horiz-adv-x="382" d="M 22 0 L 22 0 Z M 197 -5 C 143 -5 101 19 69 69 C 37 119 22 184 22 265 C 22 349 38 415 71 465 C 104 515 145 540 194 540 C 250 540 292 513 321 461 C 349 408 364 337 364 249 L 104 249 C 104 197 113 154 131 120 C 149 85 175 68 211 68 C 235 68 256 75 272 89 C 288 103 301 117 311 132 L 349 86 C 336 65 317 45 292 25 C 266 5 235 -5 197 -5 Z M 102 307 L 283 307 C 283 359 275 399 259 428 C 243 456 223 471 197 471 C 169 471 147 456 130 428 C 113 400 104 359 102 307 Z M 195 618 L 195 618 Z M 314 618 L 76 618 L 76 687 L 314 687 L 314 618 Z" unicode="ē" />
<glyph horiz-adv-x="393" d="M 63 0 L 63 0 Z M 378 0 L 63 0 L 63 730 L 361 730 L 361 652 L 150 652 L 150 403 L 353 403 L 353 327 L 150 327 L 150 78 L 378 78 L 378 0 Z M 213 799 L 213 799 Z M 272 956 L 341 956 C 337 901 323 861 300 836 C 277 811 248 799 213 799 C 177 799 148 811 125 836 C 102 861 89 901 86 956 L 155 956 C 157 929 162 907 170 890 C 178 873 192 865 213 865 C 233 865 248 873 256 889 C 264 905 270 928 272 956 Z" unicode="Ĕ" />
<glyph horiz-adv-x="382" d="M 22 0 L 22 0 Z M 197 -5 C 143 -5 101 19 69 69 C 37 119 22 184 22 265 C 22 349 38 415 71 465 C 104 515 145 540 194 540 C 250 540 292 513 321 461 C 349 408 364 337 364 249 L 104 249 C 104 197 113 154 131 120 C 149 85 175 68 211 68 C 235 68 256 75 272 89 C 288 103 301 117 311 132 L 349 86 C 336 65 317 45 292 25 C 266 5 235 -5 197 -5 Z M 102 307 L 283 307 C 283 359 275 399 259 428 C 243 456 223 471 197 471 C 169 471 147 456 130 428 C 113 400 104 359 102 307 Z M 195 605 L 195 605 Z M 254 762 L 323 762 C 319 707 305 667 282 642 C 259 617 230 605 195 605 C 159 605 130 617 107 642 C 84 667 71 707 68 762 L 137 762 C 139 735 144 713 152 696 C 160 679 174 671 195 671 C 215 671 230 679 238 695 C 246 711 252 734 254 762 Z" unicode="ĕ" />
<glyph horiz-adv-x="393" d="M 63 0 L 63 0 Z M 378 0 L 63 0 L 63 730 L 361 730 L 361 652 L 150 652 L 150 403 L 353 403 L 353 327 L 150 327 L 150 78 L 378 78 L 378 0 Z M 213 799 L 213 799 Z M 252 799 L 175 799 L 175 912 L 252 913 L 252 799 Z" unicode="Ė" />
<glyph horiz-adv-x="382" d="M 22 0 L 22 0 Z M 197 -5 C 143 -5 101 19 69 69 C 37 119 22 184 22 265 C 22 349 38 415 71 465 C 104 515 145 540 194 540 C 250 540 292 513 321 461 C 349 408 364 337 364 249 L 104 249 C 104 197 113 154 131 120 C 149 85 175 68 211 68 C 235 68 256 75 272 89 C 288 103 301 117 311 132 L 349 86 C 336 65 317 45 292 25 C 266 5 235 -5 197 -5 Z M 102 307 L 283 307 C 283 359 275 399 259 428 C 243 456 223 471 197 471 C 169 471 147 456 130 428 C 113 400 104 359 102 307 Z M 195 605 L 195 605 Z M 234 605 L 157 605 L 157 718 L 234 719 L 234 605 Z" unicode="ė" />
<glyph horiz-adv-x="393" d="M 63 0 L 63 0 Z M 378 0 L 63 0 L 63 730 L 361 730 L 361 652 L 150 652 L 150 403 L 353 403 L 353 327 L 150 327 L 150 78 L 378 78 L 378 0 Z M 334 -9 L 334 -9 Z M 428 -101 L 452 -136 C 432 -156 411 -171 389 -182 C 366 -192 341 -198 313 -198 C 282 -198 258 -190 241 -176 C 223 -161 215 -143 215 -121 C 215 -96 225 -73 247 -51 C 269 -29 302 -11 346 4 L 378 4 C 346 -10 322 -25 308 -40 C 294 -55 287 -71 287 -87 C 287 -101 291 -113 301 -122 C 311 -131 324 -136 340 -136 C 358 -136 374 -132 389 -126 C 404 -119 417 -111 428 -101 Z" unicode="Ę" />
<glyph horiz-adv-x="382" d="M 22 0 L 22 0 Z M 197 -5 C 143 -5 101 19 69 69 C 37 119 22 184 22 265 C 22 349 38 415 71 465 C 104 515 145 540 194 540 C 250 540 292 513 321 461 C 349 408 364 337 364 249 L 104 249 C 104 197 113 154 131 120 C 149 85 175 68 211 68 C 235 68 256 75 272 89 C 288 103 301 117 311 132 L 349 86 C 336 65 317 45 292 25 C 266 5 235 -5 197 -5 Z M 102 307 L 283 307 C 283 359 275 399 259 428 C 243 456 223 471 197 471 C 169 471 147 456 130 428 C 113 400 104 359 102 307 Z M 205 -9 L 205 -9 Z M 299 -101 L 323 -136 C 303 -156 282 -171 260 -182 C 237 -192 212 -198 184 -198 C 153 -198 129 -190 112 -176 C 94 -161 86 -143 86 -121 C 86 -96 96 -73 118 -51 C 140 -29 173 -11 217 4 L 249 4 C 217 -10 193 -25 179 -40 C 165 -55 158 -71 158 -87 C 158 -101 162 -113 172 -122 C 182 -131 195 -136 211 -136 C 229 -136 245 -132 260 -126 C 275 -119 288 -111 299 -101 Z" unicode="ę" />
<glyph horiz-adv-x="393" d="M 63 0 L 63 0 Z M 378 0 L 63 0 L 63 730 L 361 730 L 361 652 L 150 652 L 150 403 L 353 403 L 353 327 L 150 327 L 150 78 L 378 78 L 378 0 Z M 213 793 L 213 793 Z M 81 964 L 153 964 L 214 856 L 276 964 L 345 964 L 248 793 L 178 793 L 81 964 Z" unicode="Ě" />
<glyph horiz-adv-x="382" d="M 22 0 L 22 0 Z M 197 -5 C 143 -5 101 19 69 69 C 37 119 22 184 22 265 C 22 349 38 415 71 465 C 104 515 145 540 194 540 C 250 540 292 513 321 461 C 349 408 364 337 364 249 L 104 249 C 104 197 113 154 131 120 C 149 85 175 68 211 68 C 235 68 256 75 272 89 C 288 103 301 117 311 132 L 349 86 C 336 65 317 45 292 25 C 266 5 235 -5 197 -5 Z M 102 307 L 283 307 C 283 359 275 399 259 428 C 243 456 223 471 197 471 C 169 471 147 456 130 428 C 113 400 104 359 102 307 Z M 195 599 L 195 599 Z M 63 770 L 135 770 L 196 662 L 258 770 L 327 770 L 230 599 L 160 599 L 63 770 Z" unicode="ě" />
<glyph horiz-adv-x="543" d="M 36 0 L 36 0 Z M 280 359 L 505 359 L 505 117 C 486 79 458 49 422 27 C 385 4 340 -7 286 -7 C 252 -7 219 1 189 18 C 158 34 131 58 109 90 C 86 122 68 161 55 207 C 42 253 36 306 36 365 C 36 421 41 473 53 519 C 65 565 81 604 103 636 C 125 668 151 692 183 710 C 214 727 249 736 287 736 C 343 736 386 723 417 698 C 447 673 471 643 487 607 L 415 560 C 403 587 388 610 368 629 C 348 647 322 657 292 657 C 241 657 201 632 171 584 C 141 536 126 461 126 361 C 126 260 141 185 173 137 C 204 89 242 65 287 65 C 319 65 347 71 371 83 C 394 95 412 113 424 138 L 424 285 L 280 285 L 280 359 Z M 286 793 L 286 793 Z M 418 793 L 347 793 L 286 902 L 224 793 L 154 793 L 251 964 L 321 964 L 418 793 Z" unicode="Ĝ" />
<glyph horiz-adv-x="413" d="M 23 0 L 23 0 Z M 177 10 C 131 10 93 33 65 81 C 37 128 23 192 23 273 C 23 357 37 422 67 470 C 97 517 133 541 177 541 C 208 541 234 530 254 509 C 274 488 289 465 298 440 L 298 536 L 371 536 L 371 8 C 371 -27 365 -58 355 -84 C 344 -110 330 -131 312 -148 C 294 -164 274 -177 252 -185 C 229 -193 206 -198 183 -198 C 150 -198 123 -194 102 -188 C 81 -182 65 -175 55 -169 L 81 -103 C 93 -108 106 -112 121 -116 C 136 -120 155 -122 179 -122 C 211 -122 238 -110 260 -86 C 282 -62 293 -27 293 18 L 293 119 C 286 91 273 66 253 44 C 233 21 207 10 177 10 Z M 202 80 C 230 80 252 95 270 126 C 287 157 296 208 296 279 C 296 346 286 394 266 423 C 246 451 224 466 200 466 C 172 466 149 450 133 418 C 117 386 109 338 109 276 C 109 213 116 165 132 131 C 147 97 170 80 202 80 Z M 203 599 L 203 599 Z M 335 599 L 264 599 L 203 708 L 141 599 L 71 599 L 168 770 L 238 770 L 335 599 Z" unicode="ĝ" />
<glyph horiz-adv-x="543" d="M 36 0 L 36 0 Z M 280 359 L 505 359 L 505 117 C 486 79 458 49 422 27 C 385 4 340 -7 286 -7 C 252 -7 219 1 189 18 C 158 34 131 58 109 90 C 86 122 68 161 55 207 C 42 253 36 306 36 365 C 36 421 41 473 53 519 C 65 565 81 604 103 636 C 125 668 151 692 183 710 C 214 727 249 736 287 736 C 343 736 386 723 417 698 C 447 673 471 643 487 607 L 415 560 C 403 587 388 610 368 629 C 348 647 322 657 292 657 C 241 657 201 632 171 584 C 141 536 126 461 126 361 C 126 260 141 185 173 137 C 204 89 242 65 287 65 C 319 65 347 71 371 83 C 394 95 412 113 424 138 L 424 285 L 280 285 L 280 359 Z M 286 799 L 286 799 Z M 345 956 L 414 956 C 410 901 396 861 373 836 C 350 811 321 799 286 799 C 250 799 221 811 198 836 C 175 861 162 901 159 956 L 228 956 C 230 929 235 907 243 890 C 251 873 265 865 286 865 C 306 865 321 873 329 889 C 337 905 343 928 345 956 Z" unicode="Ğ" />
<glyph horiz-adv-x="413" d="M 23 0 L 23 0 Z M 177 10 C 131 10 93 33 65 81 C 37 128 23 192 23 273 C 23 357 37 422 67 470 C 97 517 133 541 177 541 C 208 541 234 530 254 509 C 274 488 289 465 298 440 L 298 536 L 371 536 L 371 8 C 371 -27 365 -58 355 -84 C 344 -110 330 -131 312 -148 C 294 -164 274 -177 252 -185 C 229 -193 206 -198 183 -198 C 150 -198 123 -194 102 -188 C 81 -182 65 -175 55 -169 L 81 -103 C 93 -108 106 -112 121 -116 C 136 -120 155 -122 179 -122 C 211 -122 238 -110 260 -86 C 282 -62 293 -27 293 18 L 293 119 C 286 91 273 66 253 44 C 233 21 207 10 177 10 Z M 202 80 C 230 80 252 95 270 126 C 287 157 296 208 296 279 C 296 346 286 394 266 423 C 246 451 224 466 200 466 C 172 466 149 450 133 418 C 117 386 109 338 109 276 C 109 213 116 165 132 131 C 147 97 170 80 202 80 Z M 203 605 L 203 605 Z M 262 762 L 331 762 C 327 707 313 667 290 642 C 267 617 238 605 203 605 C 167 605 138 617 115 642 C 92 667 79 707 76 762 L 145 762 C 147 735 152 713 160 696 C 168 679 182 671 203 671 C 223 671 238 679 246 695 C 254 711 260 734 262 762 Z" unicode="ğ" />
<glyph horiz-adv-x="543" d="M 36 0 L 36 0 Z M 280 359 L 505 359 L 505 117 C 486 79 458 49 422 27 C 385 4 340 -7 286 -7 C 252 -7 219 1 189 18 C 158 34 131 58 109 90 C 86 122 68 161 55 207 C 42 253 36 306 36 365 C 36 421 41 473 53 519 C 65 565 81 604 103 636 C 125 668 151 692 183 710 C 214 727 249 736 287 736 C 343 736 386 723 417 698 C 447 673 471 643 487 607 L 415 560 C 403 587 388 610 368 629 C 348 647 322 657 292 657 C 241 657 201 632 171 584 C 141 536 126 461 126 361 C 126 260 141 185 173 137 C 204 89 242 65 287 65 C 319 65 347 71 371 83 C 394 95 412 113 424 138 L 424 285 L 280 285 L 280 359 Z M 286 799 L 286 799 Z M 325 799 L 248 799 L 248 912 L 325 913 L 325 799 Z" unicode="Ġ" />
<glyph horiz-adv-x="413" d="M 23 0 L 23 0 Z M 177 10 C 131 10 93 33 65 81 C 37 128 23 192 23 273 C 23 357 37 422 67 470 C 97 517 133 541 177 541 C 208 541 234 530 254 509 C 274 488 289 465 298 440 L 298 536 L 371 536 L 371 8 C 371 -27 365 -58 355 -84 C 344 -110 330 -131 312 -148 C 294 -164 274 -177 252 -185 C 229 -193 206 -198 183 -198 C 150 -198 123 -194 102 -188 C 81 -182 65 -175 55 -169 L 81 -103 C 93 -108 106 -112 121 -116 C 136 -120 155 -122 179 -122 C 211 -122 238 -110 260 -86 C 282 -62 293 -27 293 18 L 293 119 C 286 91 273 66 253 44 C 233 21 207 10 177 10 Z M 202 80 C 230 80 252 95 270 126 C 287 157 296 208 296 279 C 296 346 286 394 266 423 C 246 451 224 466 200 466 C 172 466 149 450 133 418 C 117 386 109 338 109 276 C 109 213 116 165 132 131 C 147 97 170 80 202 80 Z M 203 605 L 203 605 Z M 242 605 L 165 605 L 165 718 L 242 719 L 242 605 Z" unicode="ġ" />
<glyph horiz-adv-x="543" d="M 36 0 L 36 0 Z M 280 359 L 505 359 L 505 117 C 486 79 458 49 422 27 C 385 4 340 -7 286 -7 C 252 -7 219 1 189 18 C 158 34 131 58 109 90 C 86 122 68 161 55 207 C 42 253 36 306 36 365 C 36 421 41 473 53 519 C 65 565 81 604 103 636 C 125 668 151 692 183 710 C 214 727 249 736 287 736 C 343 736 386 723 417 698 C 447 673 471 643 487 607 L 415 560 C 403 587 388 610 368 629 C 348 647 322 657 292 657 C 241 657 201 632 171 584 C 141 536 126 461 126 361 C 126 260 141 185 173 137 C 204 89 242 65 287 65 C 319 65 347 71 371 83 C 394 95 412 113 424 138 L 424 285 L 280 285 L 280 359 Z M 284 -72 L 284 -72 Z M 363 -72 C 362 -94 359 -116 353 -140 C 347 -164 340 -186 332 -208 C 323 -230 313 -250 302 -270 C 291 -289 280 -305 270 -318 L 206 -289 C 214 -278 222 -264 230 -248 C 238 -231 245 -213 252 -194 C 258 -174 264 -154 268 -133 C 272 -112 275 -92 276 -72 L 363 -72 Z" unicode="Ģ" />
<glyph horiz-adv-x="413" d="M 23 0 L 23 0 Z M 177 10 C 131 10 93 33 65 81 C 37 128 23 192 23 273 C 23 357 37 422 67 470 C 97 517 133 541 177 541 C 208 541 234 530 254 509 C 274 488 289 465 298 440 L 298 536 L 371 536 L 371 8 C 371 -27 365 -58 355 -84 C 344 -110 330 -131 312 -148 C 294 -164 274 -177 252 -185 C 229 -193 206 -198 183 -198 C 150 -198 123 -194 102 -188 C 81 -182 65 -175 55 -169 L 81 -103 C 93 -108 106 -112 121 -116 C 136 -120 155 -122 179 -122 C 211 -122 238 -110 260 -86 C 282 -62 293 -27 293 18 L 293 119 C 286 91 273 66 253 44 C 233 21 207 10 177 10 Z M 202 80 C 230 80 252 95 270 126 C 287 157 296 208 296 279 C 296 346 286 394 266 423 C 246 451 224 466 200 466 C 172 466 149 450 133 418 C 117 386 109 338 109 276 C 109 213 116 165 132 131 C 147 97 170 80 202 80 Z" unicode="ģ" />
<glyph horiz-adv-x="536" d="M 63 0 L 63 0 Z M 473 0 L 383 0 L 383 324 L 153 324 L 153 0 L 63 0 L 63 730 L 153 730 L 153 398 L 383 398 L 383 730 L 473 730 L 473 0 Z M 264 793 L 264 793 Z M 396 793 L 325 793 L 264 902 L 202 793 L 132 793 L 229 964 L 299 964 L 396 793 Z" unicode="Ĥ" />
<glyph horiz-adv-x="397" d="M 42 0 L 42 0 Z M 355 0 L 273 0 L 273 400 C 273 424 266 441 254 453 C 242 465 225 471 205 471 C 183 471 164 464 148 450 C 132 436 125 412 125 377 L 125 0 L 42 0 L 42 800 L 120 800 L 120 469 C 126 489 139 506 157 520 C 175 534 200 541 233 541 C 269 541 298 531 321 513 C 343 495 355 464 355 420 L 355 0 Z M 204 863 L 204 863 Z M 336 863 L 265 863 L 204 972 L 142 863 L 72 863 L 169 1034 L 239 1034 L 336 863 Z" unicode="ĥ" />
<glyph horiz-adv-x="536" d="M 153 324 L 153 0 L 63 0 L 63 546 L 2 546 L 2 618 L 63 618 L 63 730 L 153 730 L 153 618 L 383 618 L 383 730 L 473 730 L 473 618 L 533 618 L 533 546 L 473 546 L 473 0 L 383 0 L 383 324 L 153 324 Z M 153 398 L 383 398 L 383 546 L 153 546 L 153 398 Z" unicode="Ħ" />
<glyph horiz-adv-x="397" d="M 125 377 L 125 0 L 42 0 L 42 628 L 9 628 L 9 700 L 42 700 L 42 800 L 120 800 L 120 700 L 208 700 L 208 628 L 120 628 L 120 469 C 126 489 139 506 157 520 C 175 534 200 541 233 541 C 269 541 298 531 321 513 C 343 495 355 464 355 420 L 355 0 L 273 0 L 273 400 C 273 424 266 441 254 453 C 242 465 225 471 205 471 C 183 471 164 464 148 450 C 132 436 125 412 125 377 Z" unicode="ħ" />
<glyph horiz-adv-x="224" d="M 0 0 L 0 0 Z M 158 0 L 67 0 L 67 730 L 158 730 L 158 0 Z M 111 800 L 111 800 Z M 197 934 L 259 934 C 259 888 252 855 240 833 C 228 811 211 800 191 800 C 173 800 158 804 145 812 C 131 820 120 827 112 834 C 102 840 93 847 85 854 C 76 860 67 864 59 864 C 50 864 42 858 36 847 C 30 835 26 821 26 805 L -36 805 C -36 849 -27 883 -10 905 C 7 927 25 939 44 939 C 58 939 71 935 83 927 C 94 919 105 911 117 903 C 125 896 133 890 141 884 C 149 878 157 876 166 876 C 174 876 181 881 187 891 C 193 901 197 915 197 934 Z" unicode="Ĩ" />
<glyph horiz-adv-x="172" d="M 0 0 L 0 0 Z M 127 0 L 45 0 L 45 536 L 127 536 L 127 0 Z M 85 606 L 85 606 Z M 171 740 L 233 740 C 233 694 226 661 214 639 C 202 617 185 606 165 606 C 147 606 132 610 119 618 C 105 626 94 633 86 640 C 76 646 67 653 59 660 C 50 666 41 670 33 670 C 24 670 16 664 10 653 C 4 641 0 627 0 611 L -62 611 C -62 655 -53 689 -36 711 C -18 733 0 745 18 745 C 32 745 45 741 57 733 C 68 725 79 717 91 709 C 99 702 107 696 115 690 C 123 684 131 682 140 682 C 148 682 155 687 161 697 C 167 707 171 721 171 740 Z" unicode="ĩ" />
<glyph horiz-adv-x="224" d="M 0 0 L 0 0 Z M 158 0 L 67 0 L 67 730 L 158 730 L 158 0 Z M 111 812 L 111 812 Z M 230 812 L -8 812 L -8 881 L 230 881 L 230 812 Z" unicode="Ī" />
<glyph horiz-adv-x="172" d="M 0 0 L 0 0 Z M 127 0 L 45 0 L 45 536 L 127 536 L 127 0 Z M 85 618 L 85 618 Z M 204 618 L -34 618 L -34 687 L 204 687 L 204 618 Z" unicode="ī" />
<glyph horiz-adv-x="224" d="M 0 0 L 0 0 Z M 158 0 L 67 0 L 67 730 L 158 730 L 158 0 Z M 111 799 L 111 799 Z M 170 956 L 239 956 C 235 901 221 861 198 836 C 175 811 146 799 111 799 C 75 799 46 811 23 836 C 0 861 -12 901 -16 956 L 53 956 C 55 929 60 907 68 890 C 76 873 90 865 111 865 C 131 865 146 873 154 889 C 162 905 168 928 170 956 Z" unicode="Ĭ" />
<glyph horiz-adv-x="172" d="M 0 0 L 0 0 Z M 127 0 L 45 0 L 45 536 L 127 536 L 127 0 Z M 85 605 L 85 605 Z M 144 762 L 213 762 C 209 707 195 667 172 642 C 149 617 120 605 85 605 C 49 605 20 617 -2 642 C -25 667 -38 707 -42 762 L 27 762 C 29 735 34 713 42 696 C 50 679 64 671 85 671 C 105 671 120 679 128 695 C 136 711 142 734 144 762 Z" unicode="ĭ" />
<glyph horiz-adv-x="224" d="M 0 0 L 0 0 Z M 158 0 L 67 0 L 67 730 L 158 730 L 158 0 Z M 66 -9 L 66 -9 Z M 160 -101 L 184 -136 C 164 -156 143 -171 121 -182 C 98 -192 73 -198 45 -198 C 14 -198 -9 -190 -27 -176 C -44 -161 -53 -143 -53 -121 C -53 -96 -42 -73 -20 -51 C 1 -29 34 -11 78 4 L 110 4 C 78 -10 54 -25 40 -40 C 26 -55 19 -71 19 -87 C 19 -101 23 -113 33 -122 C 43 -131 56 -136 72 -136 C 90 -136 106 -132 121 -126 C 136 -119 149 -111 160 -101 Z" unicode="Į" />
<glyph horiz-adv-x="172" d="M 0 0 L 0 0 Z M 43 620 L 43 699 L 129 699 L 129 620 L 43 620 Z M 45 0 L 45 536 L 127 536 L 127 0 L 45 0 Z M 34 -9 L 34 -9 Z M 128 -101 L 152 -136 C 132 -156 111 -171 89 -182 C 66 -192 41 -198 13 -198 C -17 -198 -41 -190 -59 -176 C -76 -161 -85 -143 -85 -121 C -85 -96 -74 -73 -52 -51 C -30 -29 2 -11 46 4 L 78 4 C 46 -10 22 -25 8 -40 C -5 -55 -13 -71 -13 -87 C -13 -101 -8 -113 1 -122 C 11 -131 24 -136 40 -136 C 58 -136 74 -132 89 -126 C 104 -119 117 -111 128 -101 Z" unicode="į" />
<glyph horiz-adv-x="224" d="M 67 0 L 67 0 Z M 158 0 L 67 0 L 67 730 L 158 730 L 158 0 Z M 111 799 L 111 799 Z M 150 799 L 73 799 L 73 912 L 150 913 L 150 799 Z" unicode="İ" />
<glyph horiz-adv-x="172" d="M 127 0 L 45 0 L 45 536 L 127 536 L 127 0 Z" unicode="ı" />
<glyph horiz-adv-x="481" d="M 67 0 L 67 0 Z M 158 0 L 67 0 L 67 730 L 158 730 L 158 0 Z M 433 730 L 433 182 C 433 127 418 82 389 46 C 359 10 318 -8 266 -8 C 253 -8 239 -6 225 -3 C 211 0 200 3 193 8 L 210 82 C 214 79 221 77 230 75 C 238 73 247 73 257 73 C 284 73 305 85 320 110 C 335 134 343 164 343 198 L 343 730 L 433 730 Z" unicode="Ĳ" />
<glyph horiz-adv-x="341" d="M 43 0 L 43 0 Z M 43 620 L 43 699 L 129 699 L 129 620 L 43 620 Z M 45 0 L 45 536 L 127 536 L 127 0 L 45 0 Z M 299 620 L 213 620 L 213 699 L 299 699 L 299 620 Z M 297 536 L 297 -64 C 297 -91 287 -114 269 -132 C 251 -150 227 -159 199 -159 C 182 -159 167 -156 154 -150 C 141 -144 133 -139 131 -135 L 158 -83 C 160 -83 164 -84 169 -86 C 173 -88 179 -89 186 -89 C 194 -89 201 -86 207 -80 C 212 -74 215 -66 215 -57 L 215 536 L 297 536 Z" unicode="ĳ" />
<glyph horiz-adv-x="287" d="M 0 0 L 0 0 Z M 227 730 L 227 182 C 227 127 212 82 183 46 C 153 10 112 -8 60 -8 C 47 -8 33 -6 19 -3 C 5 0 -5 3 -13 8 L 4 82 C 8 79 15 77 24 75 C 32 73 41 73 51 73 C 78 73 99 85 114 110 C 129 134 137 164 137 198 L 137 730 L 227 730 Z M 181 793 L 181 793 Z M 313 793 L 242 793 L 181 902 L 119 793 L 49 793 L 146 964 L 216 964 L 313 793 Z" unicode="Ĵ" />
<glyph horiz-adv-x="175" d="M 0 0 L 0 0 Z M 130 536 L 130 -66 C 130 -98 119 -125 97 -145 C 75 -165 48 -176 18 -176 C 1 -176 -13 -173 -26 -167 C -38 -161 -46 -156 -49 -152 L -22 -100 C -20 -101 -16 -102 -11 -104 C -6 -105 0 -106 6 -106 C 16 -106 26 -101 35 -93 C 43 -85 48 -73 48 -58 L 48 536 L 130 536 Z M 90 599 L 90 599 Z M 222 599 L 151 599 L 90 708 L 28 599 L -42 599 L 55 770 L 125 770 L 222 599 Z" unicode="ĵ" />
<glyph horiz-adv-x="486" d="M 63 0 L 63 0 Z M 496 0 L 396 0 L 188 319 L 153 275 L 153 0 L 63 0 L 63 730 L 153 730 L 153 397 L 381 730 L 473 730 L 241 398 L 496 0 Z M 251 -72 L 251 -72 Z M 330 -72 C 329 -94 326 -116 320 -140 C 314 -164 307 -186 299 -208 C 290 -230 280 -250 269 -270 C 258 -289 247 -305 237 -318 L 173 -289 C 181 -278 189 -264 197 -248 C 205 -231 212 -213 219 -194 C 225 -174 231 -154 235 -133 C 239 -112 242 -92 243 -72 L 330 -72 Z" unicode="Ķ" />
<glyph horiz-adv-x="362" d="M 42 0 L 42 0 Z M 371 0 L 284 0 L 172 228 L 125 152 L 125 0 L 42 0 L 42 800 L 120 800 L 120 254 L 274 536 L 360 536 L 224 297 L 371 0 Z M 184 -72 L 184 -72 Z M 263 -72 C 262 -94 259 -116 253 -140 C 247 -164 240 -186 232 -208 C 223 -230 213 -250 202 -270 C 191 -289 180 -305 170 -318 L 106 -289 C 114 -278 122 -264 130 -248 C 138 -231 145 -213 152 -194 C 158 -174 164 -154 168 -133 C 172 -112 175 -92 176 -72 L 263 -72 Z" unicode="ķ" />
<glyph horiz-adv-x="362" d="M 371 0 L 284 0 L 172 228 L 125 152 L 125 0 L 42 0 L 42 536 L 120 536 L 120 254 L 274 536 L 360 536 L 224 297 L 371 0 Z" unicode="ĸ" />
<glyph horiz-adv-x="357" d="M 63 0 L 63 0 Z M 351 0 L 63 0 L 63 730 L 153 730 L 153 78 L 351 78 L 351 0 Z M 246 792 L 246 792 Z M 157 792 L 241 964 L 335 964 L 237 792 L 157 792 Z" unicode="Ĺ" />
<glyph horiz-adv-x="190" d="M 42 0 L 42 0 Z M 42 95 L 42 800 L 124 800 L 124 111 C 124 96 127 86 133 80 C 139 74 147 71 159 71 C 163 71 167 71 171 72 C 174 72 177 73 180 74 L 192 6 C 186 3 179 0 170 -1 C 161 -3 150 -5 138 -5 C 110 -5 87 3 69 20 C 51 37 42 62 42 95 Z M 137 862 L 137 862 Z M 48 862 L 132 1034 L 226 1034 L 128 862 L 48 862 Z" unicode="ĺ" />
<glyph horiz-adv-x="357" d="M 63 0 L 63 0 Z M 351 0 L 63 0 L 63 730 L 153 730 L 153 78 L 351 78 L 351 0 Z M 200 -72 L 200 -72 Z M 279 -72 C 278 -94 275 -116 269 -140 C 263 -164 256 -186 248 -208 C 239 -230 229 -250 218 -270 C 207 -289 196 -305 186 -318 L 122 -289 C 130 -278 138 -264 146 -248 C 154 -231 161 -213 168 -194 C 174 -174 180 -154 184 -133 C 188 -112 191 -92 192 -72 L 279 -72 Z" unicode="Ļ" />
<glyph horiz-adv-x="190" d="M 19 0 L 19 0 Z M 42 95 L 42 800 L 124 800 L 124 111 C 124 96 127 86 133 80 C 139 74 147 71 159 71 C 163 71 167 71 171 72 C 174 72 177 73 180 74 L 192 6 C 186 3 179 0 170 -1 C 161 -3 150 -5 138 -5 C 110 -5 87 3 69 20 C 51 37 42 62 42 95 Z M 97 -72 L 97 -72 Z M 176 -72 C 175 -94 172 -116 166 -140 C 160 -164 153 -186 145 -208 C 136 -230 126 -250 115 -270 C 104 -289 93 -305 83 -318 L 19 -289 C 27 -278 35 -264 43 -248 C 51 -231 58 -213 65 -194 C 71 -174 77 -154 81 -133 C 85 -112 88 -92 89 -72 L 176 -72 Z" unicode="ļ" />
<glyph horiz-adv-x="357" d="M 63 0 L 63 0 Z M 351 0 L 63 0 L 63 730 L 153 730 L 153 78 L 351 78 L 351 0 Z M 380 621 L 376 486 L 306 486 L 302 621 L 302 730 L 380 730 L 380 621 Z" unicode="Ľ" />
<glyph horiz-adv-x="190" d="M 42 0 L 42 0 Z M 42 95 L 42 800 L 124 800 L 124 111 C 124 96 127 86 133 80 C 139 74 147 71 159 71 C 163 71 167 71 171 72 C 174 72 177 73 180 74 L 192 6 C 186 3 179 0 170 -1 C 161 -3 150 -5 138 -5 C 110 -5 87 3 69 20 C 51 37 42 62 42 95 Z M 236 621 L 232 486 L 162 486 L 158 621 L 158 730 L 236 730 L 236 621 Z" unicode="ľ" />
<glyph horiz-adv-x="357" d="M 63 0 L 63 0 Z M 351 0 L 63 0 L 63 730 L 153 730 L 153 78 L 351 78 L 351 0 Z M 269 294 L 269 294 Z M 308 294 L 231 294 L 231 407 L 308 408 L 308 294 Z" unicode="Ŀ" />
<glyph horiz-adv-x="190" d="M 42 0 L 42 0 Z M 42 95 L 42 800 L 124 800 L 124 111 C 124 96 127 86 133 80 C 139 74 147 71 159 71 C 163 71 167 71 171 72 C 174 72 177 73 180 74 L 192 6 C 186 3 179 0 170 -1 C 161 -3 150 -5 138 -5 C 110 -5 87 3 69 20 C 51 37 42 62 42 95 Z M 197 247 L 197 247 Z M 236 247 L 159 247 L 159 360 L 236 361 L 236 247 Z" unicode="ŀ" />
<glyph horiz-adv-x="357" d="M 351 74 L 351 0 L 63 0 L 63 261 L 21 243 L -10 311 L 63 343 L 63 730 L 153 730 L 153 382 L 290 441 L 321 373 L 153 300 L 153 74 L 351 74 Z" unicode="Ł" />
<glyph horiz-adv-x="190" d="M 201 6 C 196 3 189 0 180 -1 C 171 -3 161 -5 150 -5 C 123 -5 101 3 83 20 C 65 37 57 62 57 95 L 57 261 L 16 242 L -11 307 L 57 339 L 57 800 L 138 800 L 138 378 L 193 404 L 221 339 L 138 300 L 138 113 C 138 97 140 86 145 80 C 150 74 158 71 169 71 C 172 71 175 71 179 71 C 182 71 185 72 188 73 L 201 6 Z" unicode="ł" />
<glyph horiz-adv-x="535" d="M 63 0 L 63 0 Z M 472 0 L 408 0 L 147 518 L 147 0 L 63 0 L 63 730 L 127 730 L 391 207 L 391 730 L 472 730 L 472 0 Z M 268 792 L 268 792 Z M 179 792 L 263 964 L 357 964 L 259 792 L 179 792 Z" unicode="Ń" />
<glyph horiz-adv-x="397" d="M 42 0 L 42 0 Z M 355 0 L 273 0 L 273 400 C 273 422 267 440 255 452 C 243 464 226 471 206 471 C 184 471 165 464 149 451 C 133 437 125 413 125 377 L 125 0 L 42 0 L 42 536 L 112 536 L 112 462 C 120 484 135 503 156 518 C 176 533 203 541 236 541 C 272 541 300 531 322 513 C 344 495 355 466 355 427 L 355 0 Z M 200 598 L 200 598 Z M 111 598 L 195 770 L 289 770 L 191 598 L 111 598 Z" unicode="ń" />
<glyph horiz-adv-x="535" d="M 63 0 L 63 0 Z M 472 0 L 408 0 L 147 518 L 147 0 L 63 0 L 63 730 L 127 730 L 391 207 L 391 730 L 472 730 L 472 0 Z M 253 -72 L 253 -72 Z M 332 -72 C 331 -94 328 -116 322 -140 C 316 -164 309 -186 301 -208 C 292 -230 282 -250 271 -270 C 260 -289 249 -305 239 -318 L 175 -289 C 183 -278 191 -264 199 -248 C 207 -231 214 -213 221 -194 C 227 -174 233 -154 237 -133 C 241 -112 244 -92 245 -72 L 332 -72 Z" unicode="Ņ" />
<glyph horiz-adv-x="397" d="M 42 0 L 42 0 Z M 355 0 L 273 0 L 273 400 C 273 422 267 440 255 452 C 243 464 226 471 206 471 C 184 471 165 464 149 451 C 133 437 125 413 125 377 L 125 0 L 42 0 L 42 536 L 112 536 L 112 462 C 120 484 135 503 156 518 C 176 533 203 541 236 541 C 272 541 300 531 322 513 C 344 495 355 466 355 427 L 355 0 Z M 180 -72 L 180 -72 Z M 259 -72 C 258 -94 255 -116 249 -140 C 243 -164 236 -186 228 -208 C 219 -230 209 -250 198 -270 C 187 -289 176 -305 166 -318 L 102 -289 C 110 -278 118 -264 126 -248 C 134 -231 141 -213 148 -194 C 154 -174 160 -154 164 -133 C 168 -112 171 -92 172 -72 L 259 -72 Z" unicode="ņ" />
<glyph horiz-adv-x="535" d="M 63 0 L 63 0 Z M 472 0 L 408 0 L 147 518 L 147 0 L 63 0 L 63 730 L 127 730 L 391 207 L 391 730 L 472 730 L 472 0 Z M 268 793 L 268 793 Z M 136 964 L 208 964 L 269 856 L 331 964 L 400 964 L 303 793 L 233 793 L 136 964 Z" unicode="Ň" />
<glyph horiz-adv-x="397" d="M 42 0 L 42 0 Z M 355 0 L 273 0 L 273 400 C 273 422 267 440 255 452 C 243 464 226 471 206 471 C 184 471 165 464 149 451 C 133 437 125 413 125 377 L 125 0 L 42 0 L 42 536 L 112 536 L 112 462 C 120 484 135 503 156 518 C 176 533 203 541 236 541 C 272 541 300 531 322 513 C 344 495 355 466 355 427 L 355 0 Z M 200 599 L 200 599 Z M 68 770 L 140 770 L 201 662 L 263 770 L 332 770 L 235 599 L 165 599 L 68 770 Z" unicode="ň" />
<glyph horiz-adv-x="535" d="M 391 730 L 472 730 L 472 -6 C 472 -60 457 -106 428 -142 C 398 -178 358 -196 306 -196 C 293 -196 279 -194 265 -191 C 250 -188 239 -184 232 -180 L 250 -106 C 254 -108 261 -110 270 -112 C 278 -114 287 -115 296 -115 C 324 -115 346 -102 364 -78 C 382 -53 391 -24 391 10 L 391 34 L 147 518 L 147 0 L 63 0 L 63 730 L 127 730 L 391 207 L 391 730 Z" unicode="Ŋ" />
<glyph horiz-adv-x="397" d="M 236 541 C 272 541 300 531 322 513 C 344 495 355 466 355 427 L 355 -25 C 355 -76 341 -117 315 -149 C 289 -181 252 -197 205 -197 C 194 -197 182 -195 169 -193 C 156 -191 146 -187 140 -183 L 158 -110 C 161 -112 166 -113 174 -115 C 181 -116 188 -117 195 -117 C 217 -117 236 -106 251 -86 C 265 -66 273 -40 273 -8 L 273 400 C 273 422 267 440 255 452 C 243 464 226 471 206 471 C 184 471 165 464 149 451 C 133 437 125 413 125 377 L 125 0 L 42 0 L 42 536 L 112 536 L 112 462 C 120 484 135 503 156 518 C 176 533 203 541 236 541 Z" unicode="ŋ" />
<glyph horiz-adv-x="573" d="M 36 0 L 36 0 Z M 289 -7 C 209 -7 147 25 103 90 C 58 154 36 248 36 371 C 36 485 58 575 103 640 C 148 704 208 737 284 737 C 364 737 427 705 471 641 C 515 577 537 485 537 365 C 537 248 514 157 468 91 C 422 25 362 -7 289 -7 Z M 287 65 C 335 65 373 90 402 140 C 430 190 445 267 445 372 C 445 469 430 542 401 591 C 372 640 333 665 284 665 C 234 665 196 640 169 592 C 142 543 129 467 129 365 C 129 261 143 185 172 137 C 201 89 239 65 287 65 Z M 286 812 L 286 812 Z M 405 812 L 167 812 L 167 881 L 405 881 L 405 812 Z" unicode="Ō" />
<glyph horiz-adv-x="394" d="M 22 0 L 22 0 Z M 198 -5 C 146 -5 104 18 71 64 C 38 110 22 177 22 267 C 22 351 37 418 69 467 C 101 516 142 541 192 541 C 246 541 290 518 323 473 C 355 428 372 364 372 281 C 372 193 356 124 325 72 C 294 20 252 -5 198 -5 Z M 199 67 C 227 67 249 83 264 116 C 279 149 287 201 287 272 C 287 342 279 392 263 422 C 247 452 224 468 195 468 C 167 468 146 452 130 422 C 114 391 107 341 107 272 C 107 196 115 143 132 113 C 148 82 171 67 199 67 Z M 197 618 L 197 618 Z M 316 618 L 78 618 L 78 687 L 316 687 L 316 618 Z" unicode="ō" />
<glyph horiz-adv-x="573" d="M 36 0 L 36 0 Z M 289 -7 C 209 -7 147 25 103 90 C 58 154 36 248 36 371 C 36 485 58 575 103 640 C 148 704 208 737 284 737 C 364 737 427 705 471 641 C 515 577 537 485 537 365 C 537 248 514 157 468 91 C 422 25 362 -7 289 -7 Z M 287 65 C 335 65 373 90 402 140 C 430 190 445 267 445 372 C 445 469 430 542 401 591 C 372 640 333 665 284 665 C 234 665 196 640 169 592 C 142 543 129 467 129 365 C 129 261 143 185 172 137 C 201 89 239 65 287 65 Z M 286 799 L 286 799 Z M 345 956 L 414 956 C 410 901 396 861 373 836 C 350 811 321 799 286 799 C 250 799 221 811 198 836 C 175 861 162 901 159 956 L 228 956 C 230 929 235 907 243 890 C 251 873 265 865 286 865 C 306 865 321 873 329 889 C 337 905 343 928 345 956 Z" unicode="Ŏ" />
<glyph horiz-adv-x="394" d="M 22 0 L 22 0 Z M 198 -5 C 146 -5 104 18 71 64 C 38 110 22 177 22 267 C 22 351 37 418 69 467 C 101 516 142 541 192 541 C 246 541 290 518 323 473 C 355 428 372 364 372 281 C 372 193 356 124 325 72 C 294 20 252 -5 198 -5 Z M 199 67 C 227 67 249 83 264 116 C 279 149 287 201 287 272 C 287 342 279 392 263 422 C 247 452 224 468 195 468 C 167 468 146 452 130 422 C 114 391 107 341 107 272 C 107 196 115 143 132 113 C 148 82 171 67 199 67 Z M 197 605 L 197 605 Z M 256 762 L 325 762 C 321 707 307 667 284 642 C 261 617 232 605 197 605 C 161 605 132 617 109 642 C 86 667 73 707 70 762 L 139 762 C 141 735 146 713 154 696 C 162 679 176 671 197 671 C 217 671 232 679 240 695 C 248 711 254 734 256 762 Z" unicode="ŏ" />
<glyph horiz-adv-x="573" d="M 36 0 L 36 0 Z M 289 -7 C 209 -7 147 25 103 90 C 58 154 36 248 36 371 C 36 485 58 575 103 640 C 148 704 208 737 284 737 C 364 737 427 705 471 641 C 515 577 537 485 537 365 C 537 248 514 157 468 91 C 422 25 362 -7 289 -7 Z M 287 65 C 335 65 373 90 402 140 C 430 190 445 267 445 372 C 445 469 430 542 401 591 C 372 640 333 665 284 665 C 234 665 196 640 169 592 C 142 543 129 467 129 365 C 129 261 143 185 172 137 C 201 89 239 65 287 65 Z M 286 792 L 286 792 Z M 130 792 L 192 951 L 280 951 L 204 792 L 130 792 Z M 292 792 L 355 951 L 443 951 L 366 792 L 292 792 Z" unicode="Ő" />
<glyph horiz-adv-x="394" d="M 22 0 L 22 0 Z M 198 -5 C 146 -5 104 18 71 64 C 38 110 22 177 22 267 C 22 351 37 418 69 467 C 101 516 142 541 192 541 C 246 541 290 518 323 473 C 355 428 372 364 372 281 C 372 193 356 124 325 72 C 294 20 252 -5 198 -5 Z M 199 67 C 227 67 249 83 264 116 C 279 149 287 201 287 272 C 287 342 279 392 263 422 C 247 452 224 468 195 468 C 167 468 146 452 130 422 C 114 391 107 341 107 272 C 107 196 115 143 132 113 C 148 82 171 67 199 67 Z M 197 598 L 197 598 Z M 41 598 L 103 757 L 191 757 L 115 598 L 41 598 Z M 203 598 L 266 757 L 354 757 L 277 598 L 203 598 Z" unicode="ő" />
<glyph horiz-adv-x="756" d="M 264 -7 C 194 -7 139 25 98 90 C 56 154 36 248 36 371 C 36 485 56 575 98 640 C 140 704 194 737 261 737 C 285 737 307 733 326 725 C 345 717 361 707 374 694 C 387 681 398 666 406 649 C 414 632 421 615 425 597 L 425 730 L 723 730 L 723 652 L 512 652 L 512 403 L 715 403 L 715 327 L 512 327 L 512 78 L 740 78 L 740 0 L 425 0 L 425 140 C 421 122 415 105 407 87 C 398 69 387 54 374 40 C 360 26 344 14 326 6 C 307 -2 286 -7 264 -7 Z M 277 59 C 322 59 358 84 385 136 C 412 187 426 266 426 372 C 426 471 412 546 385 596 C 357 646 321 671 275 671 C 227 671 191 646 165 596 C 139 546 127 469 127 365 C 127 259 140 181 168 132 C 196 83 232 59 277 59 Z" unicode="Œ" />
<glyph horiz-adv-x="643" d="M 198 -5 C 146 -5 104 18 71 64 C 38 110 22 177 22 267 C 22 351 37 418 69 467 C 101 516 142 541 192 541 C 231 541 263 527 287 499 C 311 471 325 437 329 397 C 331 435 345 469 369 497 C 393 525 423 540 459 540 C 511 540 551 514 580 463 C 609 412 624 341 624 249 L 365 249 C 365 197 373 154 391 120 C 409 85 435 68 469 68 C 494 68 515 74 533 87 C 551 99 565 113 575 128 L 613 83 C 600 62 581 42 556 23 C 531 4 501 -5 465 -5 C 422 -5 389 8 366 35 C 343 62 330 94 328 131 C 321 94 307 62 286 35 C 265 8 236 -5 198 -5 Z M 363 307 L 545 307 C 545 358 536 398 520 427 C 503 456 482 471 456 471 C 429 471 407 456 391 428 C 375 399 365 359 363 307 Z M 199 67 C 227 67 249 83 264 116 C 279 149 287 201 287 272 C 287 342 279 392 263 422 C 247 452 224 468 195 468 C 167 468 146 452 130 421 C 114 390 107 340 107 272 C 107 196 115 143 132 113 C 148 82 171 67 199 67 Z" unicode="œ" />
<glyph horiz-adv-x="458" d="M 63 0 L 63 0 Z M 63 0 L 63 730 L 214 730 C 266 730 310 713 346 680 C 382 647 400 597 400 530 C 400 474 387 429 363 394 C 339 359 308 339 270 335 L 268 331 L 456 0 L 364 0 L 190 312 L 146 312 L 146 0 L 63 0 Z M 146 386 L 202 386 C 236 386 263 398 285 422 C 306 446 317 479 317 521 C 317 567 305 601 283 623 C 260 645 234 656 204 656 L 146 656 L 146 386 Z M 217 792 L 217 792 Z M 128 792 L 212 964 L 306 964 L 208 792 L 128 792 Z" unicode="Ŕ" />
<glyph horiz-adv-x="290" d="M 42 0 L 42 0 Z M 294 511 L 265 442 C 255 452 246 458 238 461 C 229 464 219 466 207 466 C 198 466 189 464 179 461 C 169 458 161 452 153 444 C 145 436 138 424 133 410 C 127 396 125 377 125 355 L 125 0 L 42 0 L 42 536 L 122 536 L 122 461 C 128 482 140 501 157 517 C 174 533 194 541 217 541 C 234 541 249 538 263 532 C 276 526 286 519 294 511 Z M 175 598 L 175 598 Z M 86 598 L 170 770 L 264 770 L 166 598 L 86 598 Z" unicode="ŕ" />
<glyph horiz-adv-x="458" d="M 63 0 L 63 0 Z M 63 0 L 63 730 L 214 730 C 266 730 310 713 346 680 C 382 647 400 597 400 530 C 400 474 387 429 363 394 C 339 359 308 339 270 335 L 268 331 L 456 0 L 364 0 L 190 312 L 146 312 L 146 0 L 63 0 Z M 146 386 L 202 386 C 236 386 263 398 285 422 C 306 446 317 479 317 521 C 317 567 305 601 283 623 C 260 645 234 656 204 656 L 146 656 L 146 386 Z M 224 -72 L 224 -72 Z M 303 -72 C 302 -94 299 -116 293 -140 C 287 -164 280 -186 272 -208 C 263 -230 253 -250 242 -270 C 231 -289 220 -305 210 -318 L 146 -289 C 154 -278 162 -264 170 -248 C 178 -231 185 -213 192 -194 C 198 -174 204 -154 208 -133 C 212 -112 215 -92 216 -72 L 303 -72 Z" unicode="Ŗ" />
<glyph horiz-adv-x="290" d="M 42 0 L 42 0 Z M 294 511 L 265 442 C 255 452 246 458 238 461 C 229 464 219 466 207 466 C 198 466 189 464 179 461 C 169 458 161 452 153 444 C 145 436 138 424 133 410 C 127 396 125 377 125 355 L 125 0 L 42 0 L 42 536 L 122 536 L 122 461 C 128 482 140 501 157 517 C 174 533 194 541 217 541 C 234 541 249 538 263 532 C 276 526 286 519 294 511 Z M 154 -72 L 154 -72 Z M 233 -72 C 232 -94 229 -116 223 -140 C 217 -164 210 -186 202 -208 C 193 -230 183 -250 172 -270 C 161 -289 150 -305 140 -318 L 76 -289 C 84 -278 92 -264 100 -248 C 108 -231 115 -213 122 -194 C 128 -174 134 -154 138 -133 C 142 -112 145 -92 146 -72 L 233 -72 Z" unicode="ŗ" />
<glyph horiz-adv-x="458" d="M 63 0 L 63 0 Z M 63 0 L 63 730 L 214 730 C 266 730 310 713 346 680 C 382 647 400 597 400 530 C 400 474 387 429 363 394 C 339 359 308 339 270 335 L 268 331 L 456 0 L 364 0 L 190 312 L 146 312 L 146 0 L 63 0 Z M 146 386 L 202 386 C 236 386 263 398 285 422 C 306 446 317 479 317 521 C 317 567 305 601 283 623 C 260 645 234 656 204 656 L 146 656 L 146 386 Z M 217 793 L 217 793 Z M 85 964 L 157 964 L 218 856 L 280 964 L 349 964 L 252 793 L 182 793 L 85 964 Z" unicode="Ř" />
<glyph horiz-adv-x="290" d="M 42 0 L 42 0 Z M 294 511 L 265 442 C 255 452 246 458 238 461 C 229 464 219 466 207 466 C 198 466 189 464 179 461 C 169 458 161 452 153 444 C 145 436 138 424 133 410 C 127 396 125 377 125 355 L 125 0 L 42 0 L 42 536 L 122 536 L 122 461 C 128 482 140 501 157 517 C 174 533 194 541 217 541 C 234 541 249 538 263 532 C 276 526 286 519 294 511 Z M 175 599 L 175 599 Z M 43 770 L 115 770 L 176 662 L 238 770 L 307 770 L 210 599 L 140 599 L 43 770 Z" unicode="ř" />
<glyph horiz-adv-x="407" d="M 20 0 L 20 0 Z M 204 -7 C 166 -7 131 0 101 13 C 71 26 44 49 20 81 L 79 135 C 93 110 112 92 135 80 C 157 68 179 62 200 62 C 226 62 250 72 270 92 C 290 112 300 139 300 174 C 300 209 291 238 274 261 C 257 283 226 309 180 339 C 134 367 99 398 75 432 C 51 465 39 509 39 565 C 39 591 43 615 52 637 C 61 658 73 676 89 691 C 104 705 122 717 143 725 C 164 733 186 737 210 737 C 248 737 280 730 305 716 C 330 702 350 687 365 670 L 311 615 C 299 628 285 639 267 648 C 249 657 230 662 210 662 C 187 662 166 653 147 636 C 128 618 119 593 119 561 C 119 529 127 502 143 482 C 159 462 190 437 238 408 C 291 376 328 342 348 307 C 368 272 379 230 379 180 C 379 150 374 123 364 100 C 354 76 341 57 325 41 C 309 25 290 13 269 5 C 248 -2 226 -7 204 -7 Z M 206 792 L 206 792 Z M 117 792 L 201 964 L 295 964 L 197 792 L 117 792 Z" unicode="Ś" />
<glyph horiz-adv-x="306" d="M 15 0 L 15 0 Z M 159 -5 C 127 -5 99 1 73 14 C 47 27 28 45 15 68 L 59 125 C 69 106 82 92 97 82 C 112 72 129 67 147 67 C 163 67 179 73 193 85 C 207 97 214 116 214 140 C 214 164 206 183 190 197 C 174 211 153 228 127 247 C 97 267 74 289 57 312 C 39 335 31 367 31 409 C 31 445 42 476 66 502 C 90 528 120 541 157 541 C 183 541 207 536 227 527 C 247 518 264 507 277 495 L 245 426 C 236 435 224 444 210 454 C 195 463 180 468 164 468 C 146 468 131 462 119 452 C 106 442 100 427 100 408 C 100 388 106 373 119 361 C 131 349 152 333 182 313 C 217 287 243 262 259 236 C 275 210 284 177 284 135 C 284 110 280 89 272 71 C 264 53 254 39 242 28 C 230 16 216 8 202 3 C 187 -2 173 -5 159 -5 Z M 156 598 L 156 598 Z M 67 598 L 151 770 L 245 770 L 147 598 L 67 598 Z" unicode="ś" />
<glyph horiz-adv-x="407" d="M 20 0 L 20 0 Z M 204 -7 C 166 -7 131 0 101 13 C 71 26 44 49 20 81 L 79 135 C 93 110 112 92 135 80 C 157 68 179 62 200 62 C 226 62 250 72 270 92 C 290 112 300 139 300 174 C 300 209 291 238 274 261 C 257 283 226 309 180 339 C 134 367 99 398 75 432 C 51 465 39 509 39 565 C 39 591 43 615 52 637 C 61 658 73 676 89 691 C 104 705 122 717 143 725 C 164 733 186 737 210 737 C 248 737 280 730 305 716 C 330 702 350 687 365 670 L 311 615 C 299 628 285 639 267 648 C 249 657 230 662 210 662 C 187 662 166 653 147 636 C 128 618 119 593 119 561 C 119 529 127 502 143 482 C 159 462 190 437 238 408 C 291 376 328 342 348 307 C 368 272 379 230 379 180 C 379 150 374 123 364 100 C 354 76 341 57 325 41 C 309 25 290 13 269 5 C 248 -2 226 -7 204 -7 Z M 206 793 L 206 793 Z M 338 793 L 267 793 L 206 902 L 144 793 L 74 793 L 171 964 L 241 964 L 338 793 Z" unicode="Ŝ" />
<glyph horiz-adv-x="306" d="M 15 0 L 15 0 Z M 159 -5 C 127 -5 99 1 73 14 C 47 27 28 45 15 68 L 59 125 C 69 106 82 92 97 82 C 112 72 129 67 147 67 C 163 67 179 73 193 85 C 207 97 214 116 214 140 C 214 164 206 183 190 197 C 174 211 153 228 127 247 C 97 267 74 289 57 312 C 39 335 31 367 31 409 C 31 445 42 476 66 502 C 90 528 120 541 157 541 C 183 541 207 536 227 527 C 247 518 264 507 277 495 L 245 426 C 236 435 224 444 210 454 C 195 463 180 468 164 468 C 146 468 131 462 119 452 C 106 442 100 427 100 408 C 100 388 106 373 119 361 C 131 349 152 333 182 313 C 217 287 243 262 259 236 C 275 210 284 177 284 135 C 284 110 280 89 272 71 C 264 53 254 39 242 28 C 230 16 216 8 202 3 C 187 -2 173 -5 159 -5 Z M 156 599 L 156 599 Z M 288 599 L 217 599 L 156 708 L 94 599 L 24 599 L 121 770 L 191 770 L 288 599 Z" unicode="ŝ" />
<glyph horiz-adv-x="407" d="M 20 0 L 20 0 Z M 204 -7 C 166 -7 131 0 101 13 C 71 26 44 49 20 81 L 79 135 C 93 110 112 92 135 80 C 157 68 179 62 200 62 C 226 62 250 72 270 92 C 290 112 300 139 300 174 C 300 209 291 238 274 261 C 257 283 226 309 180 339 C 134 367 99 398 75 432 C 51 465 39 509 39 565 C 39 591 43 615 52 637 C 61 658 73 676 89 691 C 104 705 122 717 143 725 C 164 733 186 737 210 737 C 248 737 280 730 305 716 C 330 702 350 687 365 670 L 311 615 C 299 628 285 639 267 648 C 249 657 230 662 210 662 C 187 662 166 653 147 636 C 128 618 119 593 119 561 C 119 529 127 502 143 482 C 159 462 190 437 238 408 C 291 376 328 342 348 307 C 368 272 379 230 379 180 C 379 150 374 123 364 100 C 354 76 341 57 325 41 C 309 25 290 13 269 5 C 248 -2 226 -7 204 -7 Z M 188 0 L 188 0 Z M 193 -180 C 173 -180 153 -177 135 -171 C 117 -165 101 -157 89 -147 L 110 -114 C 117 -120 127 -126 140 -132 C 153 -138 167 -141 183 -141 C 195 -141 206 -137 215 -131 C 224 -124 229 -115 229 -105 C 229 -92 224 -83 216 -77 C 207 -71 198 -69 189 -69 C 181 -69 175 -69 169 -70 C 163 -71 157 -73 152 -76 L 143 -59 L 193 11 L 233 11 L 193 -45 C 219 -42 242 -46 260 -56 C 278 -66 287 -82 287 -106 C 287 -128 277 -146 259 -160 C 241 -173 219 -180 193 -180 Z" unicode="Ş" />
<glyph horiz-adv-x="306" d="M 15 0 L 15 0 Z M 159 -5 C 127 -5 99 1 73 14 C 47 27 28 45 15 68 L 59 125 C 69 106 82 92 97 82 C 112 72 129 67 147 67 C 163 67 179 73 193 85 C 207 97 214 116 214 140 C 214 164 206 183 190 197 C 174 211 153 228 127 247 C 97 267 74 289 57 312 C 39 335 31 367 31 409 C 31 445 42 476 66 502 C 90 528 120 541 157 541 C 183 541 207 536 227 527 C 247 518 264 507 277 495 L 245 426 C 236 435 224 444 210 454 C 195 463 180 468 164 468 C 146 468 131 462 119 452 C 106 442 100 427 100 408 C 100 388 106 373 119 361 C 131 349 152 333 182 313 C 217 287 243 262 259 236 C 275 210 284 177 284 135 C 284 110 280 89 272 71 C 264 53 254 39 242 28 C 230 16 216 8 202 3 C 187 -2 173 -5 159 -5 Z M 144 0 L 144 0 Z M 149 -180 C 129 -180 109 -177 91 -171 C 73 -165 57 -157 45 -147 L 66 -114 C 73 -120 83 -126 96 -132 C 109 -138 123 -141 139 -141 C 151 -141 162 -137 171 -131 C 180 -124 185 -115 185 -105 C 185 -92 180 -83 172 -77 C 163 -71 154 -69 145 -69 C 137 -69 131 -69 125 -70 C 119 -71 113 -73 108 -76 L 99 -59 L 149 11 L 189 11 L 149 -45 C 175 -42 198 -46 216 -56 C 234 -66 243 -82 243 -106 C 243 -128 233 -146 215 -160 C 197 -173 175 -180 149 -180 Z" unicode="ş" />
<glyph horiz-adv-x="407" d="M 20 0 L 20 0 Z M 204 -7 C 166 -7 131 0 101 13 C 71 26 44 49 20 81 L 79 135 C 93 110 112 92 135 80 C 157 68 179 62 200 62 C 226 62 250 72 270 92 C 290 112 300 139 300 174 C 300 209 291 238 274 261 C 257 283 226 309 180 339 C 134 367 99 398 75 432 C 51 465 39 509 39 565 C 39 591 43 615 52 637 C 61 658 73 676 89 691 C 104 705 122 717 143 725 C 164 733 186 737 210 737 C 248 737 280 730 305 716 C 330 702 350 687 365 670 L 311 615 C 299 628 285 639 267 648 C 249 657 230 662 210 662 C 187 662 166 653 147 636 C 128 618 119 593 119 561 C 119 529 127 502 143 482 C 159 462 190 437 238 408 C 291 376 328 342 348 307 C 368 272 379 230 379 180 C 379 150 374 123 364 100 C 354 76 341 57 325 41 C 309 25 290 13 269 5 C 248 -2 226 -7 204 -7 Z M 206 793 L 206 793 Z M 74 964 L 146 964 L 207 856 L 269 964 L 338 964 L 241 793 L 171 793 L 74 964 Z" unicode="Š" />
<glyph horiz-adv-x="306" d="M 15 0 L 15 0 Z M 159 -5 C 127 -5 99 1 73 14 C 47 27 28 45 15 68 L 59 125 C 69 106 82 92 97 82 C 112 72 129 67 147 67 C 163 67 179 73 193 85 C 207 97 214 116 214 140 C 214 164 206 183 190 197 C 174 211 153 228 127 247 C 97 267 74 289 57 312 C 39 335 31 367 31 409 C 31 445 42 476 66 502 C 90 528 120 541 157 541 C 183 541 207 536 227 527 C 247 518 264 507 277 495 L 245 426 C 236 435 224 444 210 454 C 195 463 180 468 164 468 C 146 468 131 462 119 452 C 106 442 100 427 100 408 C 100 388 106 373 119 361 C 131 349 152 333 182 313 C 217 287 243 262 259 236 C 275 210 284 177 284 135 C 284 110 280 89 272 71 C 264 53 254 39 242 28 C 230 16 216 8 202 3 C 187 -2 173 -5 159 -5 Z M 156 599 L 156 599 Z M 24 770 L 96 770 L 157 662 L 219 770 L 288 770 L 191 599 L 121 599 L 24 770 Z" unicode="š" />
<glyph horiz-adv-x="373" d="M 7 0 L 7 0 Z M 366 652 L 231 652 L 231 0 L 141 0 L 141 652 L 7 652 L 7 730 L 366 730 L 366 652 Z M 186 793 L 186 793 Z M 54 964 L 126 964 L 187 856 L 249 964 L 318 964 L 221 793 L 151 793 L 54 964 Z" unicode="Ť" />
<glyph horiz-adv-x="214" d="M 7 0 L 7 0 Z M 198 84 L 214 15 C 208 11 200 7 190 3 C 180 -1 166 -3 148 -3 C 124 -3 102 6 83 26 C 63 45 54 72 54 106 L 54 464 L 7 464 L 7 536 L 56 536 L 56 638 L 134 649 L 134 536 L 203 536 L 203 464 L 136 464 L 136 114 C 136 102 139 93 145 86 C 151 79 160 76 171 76 C 175 76 180 76 186 78 C 191 80 195 82 198 84 Z M 310 621 L 306 486 L 236 486 L 232 621 L 232 730 L 310 730 L 310 621 Z" unicode="ť" />
<glyph horiz-adv-x="373" d="M 343 453 L 231 453 L 231 0 L 141 0 L 141 453 L 30 453 L 30 525 L 141 525 L 141 652 L 7 652 L 7 730 L 366 730 L 366 652 L 231 652 L 231 525 L 343 525 L 343 453 Z" unicode="Ŧ" />
<glyph horiz-adv-x="214" d="M 214 15 C 208 11 200 7 190 3 C 180 -1 166 -3 148 -3 C 124 -3 102 6 83 26 C 63 45 54 72 54 106 L 54 305 L 15 305 L 15 377 L 54 377 L 54 464 L 7 464 L 7 536 L 56 536 L 56 638 L 134 649 L 134 536 L 203 536 L 203 464 L 136 464 L 136 377 L 184 377 L 184 305 L 136 305 L 136 114 C 136 102 139 93 145 86 C 151 79 160 76 171 76 C 175 76 180 76 186 78 C 191 80 195 82 198 84 L 214 15 Z" unicode="ŧ" />
<glyph horiz-adv-x="534" d="M 59 0 L 59 0 Z M 475 730 L 475 216 C 475 175 469 140 457 112 C 445 84 430 61 411 43 C 391 25 369 13 343 5 C 317 -3 290 -7 262 -7 C 235 -7 209 -3 185 4 C 160 12 138 24 120 42 C 101 59 86 82 75 111 C 64 139 59 174 59 216 L 59 730 L 148 730 L 148 215 C 148 161 159 124 181 102 C 203 80 232 70 266 70 C 298 70 326 80 348 101 C 370 121 382 159 382 215 L 382 730 L 475 730 Z M 265 800 L 265 800 Z M 351 934 L 413 934 C 413 888 406 855 394 833 C 382 811 365 800 345 800 C 327 800 312 804 299 812 C 285 820 274 827 266 834 C 256 840 247 847 239 854 C 230 860 221 864 213 864 C 204 864 196 858 190 847 C 184 835 180 821 180 805 L 118 805 C 118 849 126 883 144 905 C 161 927 179 939 198 939 C 212 939 225 935 237 927 C 248 919 259 911 271 903 C 279 896 287 890 295 884 C 303 878 311 876 320 876 C 328 876 335 881 341 891 C 347 901 351 915 351 934 Z" unicode="Ũ" />
<glyph horiz-adv-x="397" d="M 42 0 L 42 0 Z M 42 536 L 124 536 L 124 148 C 124 119 130 98 143 84 C 155 70 173 64 196 64 C 216 64 233 71 249 86 C 264 101 272 128 272 168 L 272 536 L 354 536 L 354 0 L 282 0 L 282 77 C 274 55 260 35 239 19 C 217 2 191 -6 160 -6 C 128 -6 100 5 77 27 C 53 49 42 82 42 124 L 42 536 Z M 198 606 L 198 606 Z M 284 740 L 346 740 C 346 694 339 661 327 639 C 315 617 298 606 278 606 C 260 606 245 610 232 618 C 218 626 207 633 199 640 C 189 646 180 653 172 660 C 163 666 154 670 146 670 C 137 670 129 664 123 653 C 117 641 113 627 113 611 L 51 611 C 51 655 59 689 77 711 C 94 733 112 745 131 745 C 145 745 158 741 170 733 C 181 725 192 717 204 709 C 212 702 220 696 228 690 C 236 684 244 682 253 682 C 261 682 268 687 274 697 C 280 707 284 721 284 740 Z" unicode="ũ" />
<glyph horiz-adv-x="534" d="M 59 0 L 59 0 Z M 475 730 L 475 216 C 475 175 469 140 457 112 C 445 84 430 61 411 43 C 391 25 369 13 343 5 C 317 -3 290 -7 262 -7 C 235 -7 209 -3 185 4 C 160 12 138 24 120 42 C 101 59 86 82 75 111 C 64 139 59 174 59 216 L 59 730 L 148 730 L 148 215 C 148 161 159 124 181 102 C 203 80 232 70 266 70 C 298 70 326 80 348 101 C 370 121 382 159 382 215 L 382 730 L 475 730 Z M 265 812 L 265 812 Z M 384 812 L 146 812 L 146 881 L 384 881 L 384 812 Z" unicode="Ū" />
<glyph horiz-adv-x="397" d="M 42 0 L 42 0 Z M 42 536 L 124 536 L 124 148 C 124 119 130 98 143 84 C 155 70 173 64 196 64 C 216 64 233 71 249 86 C 264 101 272 128 272 168 L 272 536 L 354 536 L 354 0 L 282 0 L 282 77 C 274 55 260 35 239 19 C 217 2 191 -6 160 -6 C 128 -6 100 5 77 27 C 53 49 42 82 42 124 L 42 536 Z M 198 618 L 198 618 Z M 317 618 L 79 618 L 79 687 L 317 687 L 317 618 Z" unicode="ū" />
<glyph horiz-adv-x="534" d="M 59 0 L 59 0 Z M 475 730 L 475 216 C 475 175 469 140 457 112 C 445 84 430 61 411 43 C 391 25 369 13 343 5 C 317 -3 290 -7 262 -7 C 235 -7 209 -3 185 4 C 160 12 138 24 120 42 C 101 59 86 82 75 111 C 64 139 59 174 59 216 L 59 730 L 148 730 L 148 215 C 148 161 159 124 181 102 C 203 80 232 70 266 70 C 298 70 326 80 348 101 C 370 121 382 159 382 215 L 382 730 L 475 730 Z M 265 799 L 265 799 Z M 324 956 L 393 956 C 389 901 375 861 352 836 C 329 811 300 799 265 799 C 229 799 200 811 177 836 C 154 861 141 901 138 956 L 207 956 C 209 929 214 907 222 890 C 230 873 244 865 265 865 C 285 865 300 873 308 889 C 316 905 322 928 324 956 Z" unicode="Ŭ" />
<glyph horiz-adv-x="397" d="M 42 0 L 42 0 Z M 42 536 L 124 536 L 124 148 C 124 119 130 98 143 84 C 155 70 173 64 196 64 C 216 64 233 71 249 86 C 264 101 272 128 272 168 L 272 536 L 354 536 L 354 0 L 282 0 L 282 77 C 274 55 260 35 239 19 C 217 2 191 -6 160 -6 C 128 -6 100 5 77 27 C 53 49 42 82 42 124 L 42 536 Z M 198 605 L 198 605 Z M 257 762 L 326 762 C 322 707 308 667 285 642 C 262 617 233 605 198 605 C 162 605 133 617 110 642 C 87 667 74 707 71 762 L 140 762 C 142 735 147 713 155 696 C 163 679 177 671 198 671 C 218 671 233 679 241 695 C 249 711 255 734 257 762 Z" unicode="ŭ" />
<glyph horiz-adv-x="534" d="M 59 0 L 59 0 Z M 475 730 L 475 216 C 475 175 469 140 457 112 C 445 84 430 61 411 43 C 391 25 369 13 343 5 C 317 -3 290 -7 262 -7 C 235 -7 209 -3 185 4 C 160 12 138 24 120 42 C 101 59 86 82 75 111 C 64 139 59 174 59 216 L 59 730 L 148 730 L 148 215 C 148 161 159 124 181 102 C 203 80 232 70 266 70 C 298 70 326 80 348 101 C 370 121 382 159 382 215 L 382 730 L 475 730 Z M 265 773 L 265 773 Z M 265 773 C 231 773 203 784 179 808 C 155 832 144 860 144 894 C 144 927 155 955 179 979 C 203 1003 231 1015 265 1015 C 299 1015 327 1003 351 979 C 375 955 387 927 387 894 C 387 860 375 832 351 808 C 327 784 299 773 265 773 Z M 266 823 C 285 823 301 830 315 844 C 328 858 335 874 335 894 C 335 914 328 930 315 944 C 301 958 285 965 266 965 C 246 965 230 958 216 944 C 202 930 196 914 196 894 C 196 874 202 858 216 844 C 230 830 246 823 266 823 Z" unicode="Ů" />
<glyph horiz-adv-x="397" d="M 42 0 L 42 0 Z M 42 536 L 124 536 L 124 148 C 124 119 130 98 143 84 C 155 70 173 64 196 64 C 216 64 233 71 249 86 C 264 101 272 128 272 168 L 272 536 L 354 536 L 354 0 L 282 0 L 282 77 C 274 55 260 35 239 19 C 217 2 191 -6 160 -6 C 128 -6 100 5 77 27 C 53 49 42 82 42 124 L 42 536 Z M 198 579 L 198 579 Z M 198 579 C 164 579 136 590 112 614 C 88 638 77 666 77 700 C 77 733 88 761 112 785 C 136 809 164 821 198 821 C 232 821 260 809 284 785 C 308 761 320 733 320 700 C 320 666 308 638 284 614 C 260 590 232 579 198 579 Z M 199 629 C 218 629 234 636 248 650 C 261 664 268 680 268 700 C 268 720 261 736 248 750 C 234 764 218 771 199 771 C 179 771 163 764 149 750 C 135 736 129 720 129 700 C 129 680 135 664 149 650 C 163 636 179 629 199 629 Z" unicode="ů" />
<glyph horiz-adv-x="534" d="M 59 0 L 59 0 Z M 475 730 L 475 216 C 475 175 469 140 457 112 C 445 84 430 61 411 43 C 391 25 369 13 343 5 C 317 -3 290 -7 262 -7 C 235 -7 209 -3 185 4 C 160 12 138 24 120 42 C 101 59 86 82 75 111 C 64 139 59 174 59 216 L 59 730 L 148 730 L 148 215 C 148 161 159 124 181 102 C 203 80 232 70 266 70 C 298 70 326 80 348 101 C 370 121 382 159 382 215 L 382 730 L 475 730 Z M 265 792 L 265 792 Z M 109 792 L 171 951 L 259 951 L 183 792 L 109 792 Z M 271 792 L 334 951 L 422 951 L 345 792 L 271 792 Z" unicode="Ű" />
<glyph horiz-adv-x="397" d="M 42 0 L 42 0 Z M 42 536 L 124 536 L 124 148 C 124 119 130 98 143 84 C 155 70 173 64 196 64 C 216 64 233 71 249 86 C 264 101 272 128 272 168 L 272 536 L 354 536 L 354 0 L 282 0 L 282 77 C 274 55 260 35 239 19 C 217 2 191 -6 160 -6 C 128 -6 100 5 77 27 C 53 49 42 82 42 124 L 42 536 Z M 198 598 L 198 598 Z M 42 598 L 104 757 L 192 757 L 116 598 L 42 598 Z M 204 598 L 267 757 L 355 757 L 278 598 L 204 598 Z" unicode="ű" />
<glyph horiz-adv-x="534" d="M 59 0 L 59 0 Z M 475 730 L 475 216 C 475 175 469 140 457 112 C 445 84 430 61 411 43 C 391 25 369 13 343 5 C 317 -3 290 -7 262 -7 C 235 -7 209 -3 185 4 C 160 12 138 24 120 42 C 101 59 86 82 75 111 C 64 139 59 174 59 216 L 59 730 L 148 730 L 148 215 C 148 161 159 124 181 102 C 203 80 232 70 266 70 C 298 70 326 80 348 101 C 370 121 382 159 382 215 L 382 730 L 475 730 Z M 295 -9 L 295 -9 Z M 389 -101 L 413 -136 C 393 -156 372 -171 350 -182 C 327 -192 302 -198 274 -198 C 243 -198 219 -190 202 -176 C 184 -161 176 -143 176 -121 C 176 -96 186 -73 208 -51 C 230 -29 263 -11 307 4 L 339 4 C 307 -10 283 -25 269 -40 C 255 -55 248 -71 248 -87 C 248 -101 252 -113 262 -122 C 272 -131 285 -136 301 -136 C 319 -136 335 -132 350 -126 C 365 -119 378 -111 389 -101 Z" unicode="Ų" />
<glyph horiz-adv-x="397" d="M 42 0 L 42 0 Z M 42 536 L 124 536 L 124 148 C 124 119 130 98 143 84 C 155 70 173 64 196 64 C 216 64 233 71 249 86 C 264 101 272 128 272 168 L 272 536 L 354 536 L 354 0 L 282 0 L 282 77 C 274 55 260 35 239 19 C 217 2 191 -6 160 -6 C 128 -6 100 5 77 27 C 53 49 42 82 42 124 L 42 536 Z M 269 -9 L 269 -9 Z M 363 -101 L 387 -136 C 367 -156 346 -171 324 -182 C 301 -192 276 -198 248 -198 C 217 -198 193 -190 176 -176 C 158 -161 150 -143 150 -121 C 150 -96 160 -73 182 -51 C 204 -29 237 -11 281 4 L 313 4 C 281 -10 257 -25 243 -40 C 229 -55 222 -71 222 -87 C 222 -101 226 -113 236 -122 C 246 -131 259 -136 275 -136 C 293 -136 309 -132 324 -126 C 339 -119 352 -111 363 -101 Z" unicode="ų" />
<glyph horiz-adv-x="685" d="M 7 0 L 7 0 Z M 665 730 L 515 -3 L 453 -3 L 335 568 L 217 -3 L 155 -3 L 7 730 L 91 730 L 197 164 L 306 730 L 373 730 L 482 165 L 588 730 L 665 730 Z M 342 793 L 342 793 Z M 474 793 L 403 793 L 342 902 L 280 793 L 210 793 L 307 964 L 377 964 L 474 793 Z" unicode="Ŵ" />
<glyph horiz-adv-x="536" d="M 1 0 L 1 0 Z M 350 -2 L 270 333 L 185 -2 L 122 -2 L 1 536 L 76 536 L 162 136 L 240 457 L 302 457 L 376 137 L 464 536 L 535 536 L 412 -2 L 350 -2 Z M 268 599 L 268 599 Z M 400 599 L 329 599 L 268 708 L 206 599 L 136 599 L 233 770 L 303 770 L 400 599 Z" unicode="ŵ" />
<glyph horiz-adv-x="457" d="M 0 0 L 0 0 Z M 459 730 L 271 318 L 271 0 L 181 0 L 181 320 L -1 730 L 103 730 L 232 410 L 373 730 L 459 730 Z M 232 793 L 232 793 Z M 364 793 L 293 793 L 232 902 L 170 793 L 100 793 L 197 964 L 267 964 L 364 793 Z" unicode="Ŷ" />
<glyph horiz-adv-x="331" d="M 0 0 L 0 0 Z M 334 536 L 169 -99 C 160 -131 145 -155 124 -173 C 103 -191 80 -200 56 -200 C 29 -200 8 -197 -7 -192 C -22 -186 -32 -181 -37 -177 L -4 -116 C 0 -118 6 -121 16 -125 C 26 -128 35 -130 45 -130 C 57 -130 68 -124 80 -114 C 91 -104 99 -89 104 -69 L 130 42 L -3 536 L 81 536 L 171 159 L 258 536 L 334 536 Z M 171 599 L 171 599 Z M 303 599 L 232 599 L 171 708 L 109 599 L 39 599 L 136 770 L 206 770 L 303 599 Z" unicode="ŷ" />
<glyph horiz-adv-x="457" d="M 0 0 L 0 0 Z M 459 730 L 271 318 L 271 0 L 181 0 L 181 320 L -1 730 L 103 730 L 232 410 L 373 730 L 459 730 Z M 232 794 L 232 794 Z M 339 794 L 272 794 L 272 951 L 339 951 L 339 794 Z M 192 794 L 125 794 L 125 951 L 192 951 L 192 794 Z" unicode="Ÿ" />
<glyph horiz-adv-x="418" d="M 15 0 L 15 0 Z M 391 730 L 391 684 L 124 76 L 402 76 L 402 0 L 15 0 L 15 44 L 282 653 L 45 653 L 45 730 L 391 730 Z M 221 792 L 221 792 Z M 132 792 L 216 964 L 310 964 L 212 792 L 132 792 Z" unicode="Ź" />
<glyph horiz-adv-x="316" d="M 11 0 L 11 0 Z M 300 536 L 300 501 L 111 71 L 305 71 L 305 0 L 11 0 L 11 29 L 202 464 L 23 464 L 23 536 L 300 536 Z M 168 598 L 168 598 Z M 79 598 L 163 770 L 257 770 L 159 598 L 79 598 Z" unicode="ź" />
<glyph horiz-adv-x="418" d="M 15 0 L 15 0 Z M 391 730 L 391 684 L 124 76 L 402 76 L 402 0 L 15 0 L 15 44 L 282 653 L 45 653 L 45 730 L 391 730 Z M 221 799 L 221 799 Z M 260 799 L 183 799 L 183 912 L 260 913 L 260 799 Z" unicode="Ż" />
<glyph horiz-adv-x="316" d="M 11 0 L 11 0 Z M 300 536 L 300 501 L 111 71 L 305 71 L 305 0 L 11 0 L 11 29 L 202 464 L 23 464 L 23 536 L 300 536 Z M 168 605 L 168 605 Z M 207 605 L 130 605 L 130 718 L 207 719 L 207 605 Z" unicode="ż" />
<glyph horiz-adv-x="418" d="M 15 0 L 15 0 Z M 391 730 L 391 684 L 124 76 L 402 76 L 402 0 L 15 0 L 15 44 L 282 653 L 45 653 L 45 730 L 391 730 Z M 221 793 L 221 793 Z M 89 964 L 161 964 L 222 856 L 284 964 L 353 964 L 256 793 L 186 793 L 89 964 Z" unicode="Ž" />
<glyph horiz-adv-x="316" d="M 11 0 L 11 0 Z M 300 536 L 300 501 L 111 71 L 305 71 L 305 0 L 11 0 L 11 29 L 202 464 L 23 464 L 23 536 L 300 536 Z M 168 599 L 168 599 Z M 36 770 L 108 770 L 169 662 L 231 770 L 300 770 L 203 599 L 133 599 L 36 770 Z" unicode="ž" />
<glyph horiz-adv-x="353" d="M 179 -62 C 176 -94 163 -121 140 -144 C 116 -167 88 -179 54 -179 C 37 -179 21 -177 5 -175 C -10 -172 -22 -169 -30 -166 L -22 -106 C -17 -106 -10 -107 0 -109 C 9 -111 18 -112 27 -112 C 47 -112 65 -105 81 -91 C 97 -77 106 -58 109 -33 L 140 324 L 45 324 L 45 403 L 147 403 L 167 630 C 170 666 184 693 208 712 C 232 730 256 740 281 740 C 293 740 306 739 318 738 C 330 737 337 736 340 736 L 333 663 C 331 663 327 664 321 665 C 315 665 309 666 303 666 C 284 666 268 659 256 647 C 244 634 237 614 235 588 L 219 403 L 324 403 L 324 324 L 212 324 L 179 -62 Z" unicode="ƒ" />
<glyph horiz-adv-x="407" d="M 20 0 L 20 0 Z M 204 -7 C 166 -7 131 0 101 13 C 71 26 44 49 20 81 L 79 135 C 93 110 112 92 135 80 C 157 68 179 62 200 62 C 226 62 250 72 270 92 C 290 112 300 139 300 174 C 300 209 291 238 274 261 C 257 283 226 309 180 339 C 134 367 99 398 75 432 C 51 465 39 509 39 565 C 39 591 43 615 52 637 C 61 658 73 676 89 691 C 104 705 122 717 143 725 C 164 733 186 737 210 737 C 248 737 280 730 305 716 C 330 702 350 687 365 670 L 311 615 C 299 628 285 639 267 648 C 249 657 230 662 210 662 C 187 662 166 653 147 636 C 128 618 119 593 119 561 C 119 529 127 502 143 482 C 159 462 190 437 238 408 C 291 376 328 342 348 307 C 368 272 379 230 379 180 C 379 150 374 123 364 100 C 354 76 341 57 325 41 C 309 25 290 13 269 5 C 248 -2 226 -7 204 -7 Z M 188 -72 L 188 -72 Z M 267 -72 C 266 -94 263 -116 257 -140 C 251 -164 244 -186 236 -208 C 227 -230 217 -250 206 -270 C 195 -289 184 -305 174 -318 L 110 -289 C 118 -278 126 -264 134 -248 C 142 -231 149 -213 156 -194 C 162 -174 168 -154 172 -133 C 176 -112 179 -92 180 -72 L 267 -72 Z" unicode="Ș" />
<glyph horiz-adv-x="306" d="M 15 0 L 15 0 Z M 159 -5 C 127 -5 99 1 73 14 C 47 27 28 45 15 68 L 59 125 C 69 106 82 92 97 82 C 112 72 129 67 147 67 C 163 67 179 73 193 85 C 207 97 214 116 214 140 C 214 164 206 183 190 197 C 174 211 153 228 127 247 C 97 267 74 289 57 312 C 39 335 31 367 31 409 C 31 445 42 476 66 502 C 90 528 120 541 157 541 C 183 541 207 536 227 527 C 247 518 264 507 277 495 L 245 426 C 236 435 224 444 210 454 C 195 463 180 468 164 468 C 146 468 131 462 119 452 C 106 442 100 427 100 408 C 100 388 106 373 119 361 C 131 349 152 333 182 313 C 217 287 243 262 259 236 C 275 210 284 177 284 135 C 284 110 280 89 272 71 C 264 53 254 39 242 28 C 230 16 216 8 202 3 C 187 -2 173 -5 159 -5 Z M 144 -72 L 144 -72 Z M 223 -72 C 222 -94 219 -116 213 -140 C 207 -164 200 -186 192 -208 C 183 -230 173 -250 162 -270 C 151 -289 140 -305 130 -318 L 66 -289 C 74 -278 82 -264 90 -248 C 98 -231 105 -213 112 -194 C 118 -174 124 -154 128 -133 C 132 -112 135 -92 136 -72 L 223 -72 Z" unicode="ș" />
<glyph horiz-adv-x="373" d="M 7 0 L 7 0 Z M 366 652 L 231 652 L 231 0 L 141 0 L 141 652 L 7 652 L 7 730 L 366 730 L 366 652 Z M 164 -72 L 164 -72 Z M 243 -72 C 242 -94 239 -116 233 -140 C 227 -164 220 -186 212 -208 C 203 -230 193 -250 182 -270 C 171 -289 160 -305 150 -318 L 86 -289 C 94 -278 102 -264 110 -248 C 118 -231 125 -213 132 -194 C 138 -174 144 -154 148 -133 C 152 -112 155 -92 156 -72 L 243 -72 Z" unicode="Ț" />
<glyph horiz-adv-x="214" d="M 7 0 L 7 0 Z M 198 84 L 214 15 C 208 11 200 7 190 3 C 180 -1 166 -3 148 -3 C 124 -3 102 6 83 26 C 63 45 54 72 54 106 L 54 464 L 7 464 L 7 536 L 56 536 L 56 638 L 134 649 L 134 536 L 203 536 L 203 464 L 136 464 L 136 114 C 136 102 139 93 145 86 C 151 79 160 76 171 76 C 175 76 180 76 186 78 C 191 80 195 82 198 84 Z M 106 -72 L 106 -72 Z M 185 -72 C 184 -94 181 -116 175 -140 C 169 -164 162 -186 154 -208 C 145 -230 135 -250 124 -270 C 113 -289 102 -305 92 -318 L 28 -289 C 36 -278 44 -264 52 -248 C 60 -231 67 -213 74 -194 C 80 -174 86 -154 90 -133 C 94 -112 97 -92 98 -72 L 185 -72 Z" unicode="ț" />
<glyph horiz-adv-x="175" d="M 130 536 L 130 -66 C 130 -98 119 -125 97 -145 C 75 -165 48 -176 18 -176 C 1 -176 -13 -173 -26 -167 C -38 -161 -46 -156 -49 -152 L -22 -100 C -20 -101 -16 -102 -11 -104 C -6 -105 0 -106 6 -106 C 16 -106 26 -101 35 -93 C 43 -85 48 -73 48 -58 L 48 536 L 130 536 Z" unicode="ȷ" />
<glyph horiz-adv-x="500" d="M 382 599 L 311 599 L 250 708 L 188 599 L 118 599 L 215 770 L 285 770 L 382 599 Z" unicode="ˆ" />
<glyph horiz-adv-x="500" d="M 118 770 L 190 770 L 251 662 L 313 770 L 382 770 L 285 599 L 215 599 L 118 770 Z" unicode="ˇ" />
<glyph horiz-adv-x="500" d="M 309 762 L 378 762 C 374 707 360 667 337 642 C 314 617 285 605 250 605 C 214 605 185 617 162 642 C 139 667 126 707 123 762 L 192 762 C 194 735 199 713 207 696 C 215 679 229 671 250 671 C 270 671 285 679 293 695 C 301 711 307 734 309 762 Z" unicode="˘" />
<glyph horiz-adv-x="500" d="M 289 605 L 212 605 L 212 718 L 289 719 L 289 605 Z" unicode="˙" />
<glyph horiz-adv-x="500" d="M 250 579 C 216 579 188 590 164 614 C 140 638 129 666 129 700 C 129 733 140 761 164 785 C 188 809 216 821 250 821 C 284 821 312 809 336 785 C 360 761 372 733 372 700 C 372 666 360 638 336 614 C 312 590 284 579 250 579 Z M 251 629 C 270 629 286 636 300 650 C 313 664 320 680 320 700 C 320 720 313 736 300 750 C 286 764 270 771 251 771 C 231 771 215 764 201 750 C 187 736 181 720 181 700 C 181 680 187 664 201 650 C 215 636 231 629 251 629 Z" unicode="˚" />
<glyph horiz-adv-x="500" d="M 350 -92 L 374 -127 C 354 -147 333 -162 311 -173 C 288 -183 263 -189 235 -189 C 204 -189 180 -181 163 -167 C 145 -152 137 -134 137 -112 C 137 -87 147 -64 169 -42 C 191 -20 224 -2 268 13 L 300 13 C 268 -1 244 -16 230 -31 C 216 -46 209 -62 209 -78 C 209 -92 213 -104 223 -113 C 233 -122 246 -127 262 -127 C 280 -127 296 -123 311 -117 C 326 -110 339 -102 350 -92 Z" unicode="˛" />
<glyph horiz-adv-x="500" d="M 339 740 L 401 740 C 401 694 394 661 382 639 C 370 617 353 606 333 606 C 315 606 300 610 287 618 C 273 626 262 633 254 640 C 244 646 235 653 227 660 C 218 666 209 670 201 670 C 192 670 184 664 178 653 C 172 641 168 627 168 611 L 106 611 C 106 655 114 689 132 711 C 149 733 167 745 186 745 C 200 745 213 741 225 733 C 236 725 247 717 259 709 C 267 702 275 696 283 690 C 291 684 299 682 308 682 C 316 682 323 687 329 697 C 335 707 339 721 339 740 Z" unicode="˜" />
<glyph horiz-adv-x="500" d="M 111 598 L 173 757 L 261 757 L 185 598 L 111 598 Z M 273 598 L 336 757 L 424 757 L 347 598 L 273 598 Z" unicode="˝" />
<glyph horiz-adv-x="0" d="M 0 598 L 0 598 Z M 89 598 L 9 598 L -89 770 L 5 770 L 89 598 Z" unicode="̀" />
<glyph horiz-adv-x="0" d="M 0 598 L 0 598 Z M -89 598 L -5 770 L 89 770 L -9 598 L -89 598 Z" unicode="́" />
<glyph horiz-adv-x="0" d="M 0 599 L 0 599 Z M 132 599 L 61 599 L 0 708 L -62 599 L -132 599 L -35 770 L 35 770 L 132 599 Z" unicode="̂" />
<glyph horiz-adv-x="0" d="M 0 606 L 0 606 Z M 86 740 L 148 740 C 148 694 141 661 129 639 C 117 617 100 606 80 606 C 62 606 47 610 34 618 C 20 626 9 633 1 640 C -8 646 -17 653 -26 660 C -34 666 -43 670 -52 670 C -60 670 -68 664 -74 653 C -80 641 -84 627 -85 611 L -147 611 C -147 655 -138 689 -121 711 C -103 733 -85 745 -67 745 C -52 745 -39 741 -28 733 C -16 725 -5 717 6 709 C 14 702 22 696 30 690 C 38 684 46 682 55 682 C 63 682 70 687 76 697 C 82 707 86 721 86 740 Z" unicode="̃" />
<glyph horiz-adv-x="0" d="M 0 618 L 0 618 Z M 119 618 L -119 618 L -119 687 L 119 687 L 119 618 Z" unicode="̄" />
<glyph horiz-adv-x="0" d="M 0 605 L 0 605 Z M 59 762 L 128 762 C 124 707 110 667 87 642 C 64 617 35 605 0 605 C -35 605 -64 617 -87 642 C -110 667 -123 707 -127 762 L -58 762 C -56 735 -51 713 -43 696 C -35 679 -20 671 0 671 C 20 671 35 679 43 695 C 51 711 57 734 59 762 Z" unicode="̆" />
<glyph horiz-adv-x="0" d="M 0 605 L 0 605 Z M 39 605 L -38 605 L -38 718 L 39 719 L 39 605 Z" unicode="̇" />
<glyph horiz-adv-x="0" d="M 0 600 L 0 600 Z M 107 600 L 40 600 L 40 757 L 107 757 L 107 600 Z M -40 600 L -107 600 L -107 757 L -40 757 L -40 600 Z" unicode="̈" />
<glyph horiz-adv-x="0" d="M 0 579 L 0 579 Z M 0 579 C -33 579 -61 590 -85 614 C -109 638 -121 666 -121 700 C -121 733 -109 761 -85 785 C -61 809 -33 821 0 821 C 34 821 62 809 86 785 C 110 761 122 733 122 700 C 122 666 110 638 86 614 C 62 590 34 579 0 579 Z M 1 629 C 20 629 36 636 50 650 C 63 664 70 680 70 700 C 70 720 63 736 50 750 C 36 764 20 771 1 771 C -18 771 -34 764 -48 750 C -62 736 -69 720 -69 700 C -69 680 -62 664 -48 650 C -34 636 -18 629 1 629 Z" unicode="̊" />
<glyph horiz-adv-x="0" d="M 0 598 L 0 598 Z M -156 598 L -94 757 L -6 757 L -82 598 L -156 598 Z M 6 598 L 69 757 L 157 757 L 80 598 L 6 598 Z" unicode="̋" />
<glyph horiz-adv-x="0" d="M 0 599 L 0 599 Z M -132 770 L -60 770 L 1 662 L 63 770 L 132 770 L 35 599 L -35 599 L -132 770 Z" unicode="̌" />
<glyph horiz-adv-x="0" d="M 0 -72 L 0 -72 Z M 79 -72 C 78 -94 75 -116 69 -140 C 63 -164 56 -186 48 -208 C 39 -230 29 -250 18 -270 C 7 -289 -3 -305 -14 -318 L -78 -289 C -70 -278 -62 -264 -54 -248 C -46 -231 -38 -213 -32 -194 C -25 -174 -19 -154 -15 -133 C -11 -112 -8 -92 -8 -72 L 79 -72 Z" unicode="̦" />
<glyph horiz-adv-x="0" d="M 0 0 L 0 0 Z M 5 -180 C -15 -180 -34 -177 -52 -171 C -70 -165 -86 -157 -99 -147 L -78 -114 C -70 -120 -60 -126 -47 -132 C -34 -138 -20 -141 -5 -141 C 7 -141 18 -137 27 -131 C 36 -124 41 -115 41 -105 C 41 -92 36 -83 28 -77 C 19 -71 10 -69 1 -69 C -6 -69 -13 -69 -19 -70 C -25 -71 -30 -73 -36 -76 L -45 -59 L 5 11 L 45 11 L 5 -45 C 31 -42 54 -46 72 -56 C 90 -66 99 -82 99 -106 C 99 -128 89 -146 71 -160 C 53 -173 31 -180 5 -180 Z" unicode="̧" />
<glyph horiz-adv-x="0" d="M 0 0 L 0 0 Z M 94 -92 L 118 -127 C 98 -147 77 -162 55 -173 C 32 -183 7 -189 -21 -189 C -51 -189 -75 -181 -93 -167 C -110 -152 -119 -134 -119 -112 C -119 -87 -108 -64 -86 -42 C -64 -20 -32 -2 12 13 L 44 13 C 12 -1 -11 -16 -25 -31 C -39 -46 -47 -62 -47 -78 C -47 -92 -42 -104 -32 -113 C -22 -122 -10 -127 6 -127 C 24 -127 40 -123 55 -117 C 70 -110 83 -102 94 -92 Z" unicode="̨" />
<glyph horiz-adv-x="563" d="M 1 0 L 1 0 Z M 542 0 L 1 0 L 259 730 L 285 730 L 542 0 Z M 436 63 L 270 580 L 105 63 L 436 63 Z" unicode="Δ" />
<glyph horiz-adv-x="724" d="M 26 0 L 26 0 Z M 35 0 L 35 77 L 243 77 L 243 150 C 209 158 179 172 152 192 C 125 212 102 235 84 261 C 65 287 51 315 41 347 C 31 378 26 410 26 444 C 26 486 33 525 48 562 C 62 599 83 631 111 658 C 139 685 173 706 213 722 C 253 738 298 746 349 746 C 401 746 448 738 489 722 C 530 706 565 684 593 657 C 621 630 642 598 657 561 C 671 524 679 485 679 444 C 679 410 674 378 665 347 C 656 315 643 287 625 261 C 607 235 584 212 556 193 C 528 173 497 159 461 150 L 461 77 L 669 77 L 669 0 L 400 0 L 400 195 C 430 203 457 215 481 232 C 505 249 524 269 540 291 C 556 313 568 337 576 363 C 584 389 588 414 588 440 C 588 474 582 505 571 534 C 559 563 543 588 522 609 C 501 630 476 646 447 658 C 417 670 385 676 349 676 C 314 676 282 670 254 658 C 225 646 200 630 180 609 C 160 588 144 563 133 534 C 122 504 117 472 117 438 C 117 413 120 388 128 363 C 136 337 147 314 163 292 C 179 270 198 251 222 234 C 246 216 273 203 305 195 L 305 0 L 35 0 Z" unicode="Ω" />
<glyph horiz-adv-x="591" d="M 72 0 L 72 0 Z M 72 -109 L 72 536 L 154 536 L 154 164 C 154 148 157 134 165 121 C 172 108 182 97 194 88 C 206 78 219 71 235 66 C 251 60 267 58 284 58 C 301 58 318 60 336 66 C 354 71 370 79 384 89 C 398 99 409 112 418 128 C 427 144 432 162 432 184 L 432 536 L 514 536 L 514 0 L 438 0 L 438 103 C 433 89 425 75 414 62 C 402 48 389 37 374 27 C 358 17 341 8 323 2 C 305 -3 286 -7 268 -7 C 243 -7 219 -1 195 9 C 171 20 156 36 148 57 L 148 -109 L 72 -109 Z" unicode="μ" />
<glyph horiz-adv-x="523" d="M 167 472 L 167 0 L 85 0 L 85 472 L 15 472 L 15 536 L 508 536 L 508 472 L 433 472 L 433 0 L 350 0 L 350 472 L 167 472 Z" unicode="π" />
<glyph horiz-adv-x="685" d="M 7 0 L 7 0 Z M 665 730 L 515 -3 L 453 -3 L 335 568 L 217 -3 L 155 -3 L 7 730 L 91 730 L 197 164 L 306 730 L 373 730 L 482 165 L 588 730 L 665 730 Z M 342 792 L 342 792 Z M 431 792 L 351 792 L 253 964 L 347 964 L 431 792 Z" unicode="Ẁ" />
<glyph horiz-adv-x="536" d="M 1 0 L 1 0 Z M 350 -2 L 270 333 L 185 -2 L 122 -2 L 1 536 L 76 536 L 162 136 L 240 457 L 302 457 L 376 137 L 464 536 L 535 536 L 412 -2 L 350 -2 Z M 268 598 L 268 598 Z M 357 598 L 277 598 L 179 770 L 273 770 L 357 598 Z" unicode="ẁ" />
<glyph horiz-adv-x="685" d="M 7 0 L 7 0 Z M 665 730 L 515 -3 L 453 -3 L 335 568 L 217 -3 L 155 -3 L 7 730 L 91 730 L 197 164 L 306 730 L 373 730 L 482 165 L 588 730 L 665 730 Z M 342 792 L 342 792 Z M 253 792 L 337 964 L 431 964 L 333 792 L 253 792 Z" unicode="Ẃ" />
<glyph horiz-adv-x="536" d="M 1 0 L 1 0 Z M 350 -2 L 270 333 L 185 -2 L 122 -2 L 1 536 L 76 536 L 162 136 L 240 457 L 302 457 L 376 137 L 464 536 L 535 536 L 412 -2 L 350 -2 Z M 268 598 L 268 598 Z M 179 598 L 263 770 L 357 770 L 259 598 L 179 598 Z" unicode="ẃ" />
<glyph horiz-adv-x="685" d="M 7 0 L 7 0 Z M 665 730 L 515 -3 L 453 -3 L 335 568 L 217 -3 L 155 -3 L 7 730 L 91 730 L 197 164 L 306 730 L 373 730 L 482 165 L 588 730 L 665 730 Z M 342 794 L 342 794 Z M 449 794 L 382 794 L 382 951 L 449 951 L 449 794 Z M 302 794 L 235 794 L 235 951 L 302 951 L 302 794 Z" unicode="Ẅ" />
<glyph horiz-adv-x="536" d="M 1 0 L 1 0 Z M 350 -2 L 270 333 L 185 -2 L 122 -2 L 1 536 L 76 536 L 162 136 L 240 457 L 302 457 L 376 137 L 464 536 L 535 536 L 412 -2 L 350 -2 Z M 268 600 L 268 600 Z M 375 600 L 308 600 L 308 757 L 375 757 L 375 600 Z M 228 600 L 161 600 L 161 757 L 228 757 L 228 600 Z" unicode="ẅ" />
<glyph horiz-adv-x="457" d="M 0 0 L 0 0 Z M 459 730 L 271 318 L 271 0 L 181 0 L 181 320 L -1 730 L 103 730 L 232 410 L 373 730 L 459 730 Z M 232 792 L 232 792 Z M 321 792 L 241 792 L 143 964 L 237 964 L 321 792 Z" unicode="Ỳ" />
<glyph horiz-adv-x="331" d="M 0 0 L 0 0 Z M 334 536 L 169 -99 C 160 -131 145 -155 124 -173 C 103 -191 80 -200 56 -200 C 29 -200 8 -197 -7 -192 C -22 -186 -32 -181 -37 -177 L -4 -116 C 0 -118 6 -121 16 -125 C 26 -128 35 -130 45 -130 C 57 -130 68 -124 80 -114 C 91 -104 99 -89 104 -69 L 130 42 L -3 536 L 81 536 L 171 159 L 258 536 L 334 536 Z M 171 598 L 171 598 Z M 260 598 L 180 598 L 82 770 L 176 770 L 260 598 Z" unicode="ỳ" />
<glyph horiz-adv-x="460" d="M 420 229 L 41 229 L 41 301 L 420 301 L 420 229 Z" unicode="–" />
<glyph horiz-adv-x="645" d="M 605 229 L 41 229 L 41 301 L 605 301 L 605 229 Z" unicode="—" />
<glyph horiz-adv-x="221" d="M 41 507 L 41 514 C 41 558 47 597 59 633 C 71 669 91 703 120 737 L 198 731 C 178 706 160 676 146 642 C 132 607 125 565 125 515 L 125 507 L 41 507 Z" unicode="‘" />
<glyph horiz-adv-x="221" d="M 180 737 L 180 730 C 180 686 174 646 162 610 C 150 574 129 540 101 507 L 23 513 C 43 538 60 568 74 603 C 88 637 96 679 96 729 L 96 737 L 180 737 Z" unicode="’" />
<glyph horiz-adv-x="222" d="M 178 111 L 178 104 C 178 60 172 20 160 -15 C 148 -51 128 -85 100 -119 L 22 -113 C 42 -88 59 -58 73 -23 C 87 11 94 53 94 103 L 94 111 L 178 111 Z" unicode="‚" />
<glyph horiz-adv-x="364" d="M 194 507 L 194 514 C 194 555 200 594 213 630 C 225 666 247 701 278 737 L 356 731 C 337 709 319 680 303 644 C 286 608 278 565 278 515 L 278 507 L 194 507 Z M 42 507 L 42 514 C 42 555 48 594 61 630 C 73 666 95 701 126 737 L 204 731 C 185 709 167 680 151 644 C 134 608 126 565 126 515 L 126 507 L 42 507 Z" unicode="“" />
<glyph horiz-adv-x="364" d="M 179 737 L 179 730 C 179 686 173 646 161 610 C 149 574 129 540 101 507 L 23 513 C 43 538 60 568 74 603 C 88 637 96 679 96 729 L 96 737 L 179 737 Z M 321 737 L 321 730 C 321 686 315 646 303 610 C 291 574 270 540 242 507 L 164 513 C 184 538 201 568 215 603 C 229 637 237 679 237 729 L 237 737 L 321 737 Z" unicode="”" />
<glyph horiz-adv-x="367" d="M 178 111 L 178 104 C 178 60 172 20 160 -15 C 148 -51 128 -85 100 -119 L 22 -113 C 42 -88 59 -58 73 -23 C 87 11 94 53 94 103 L 94 111 L 178 111 Z M 323 111 L 323 104 C 323 60 317 20 305 -15 C 293 -51 274 -85 246 -119 L 168 -113 C 187 -88 204 -58 218 -23 C 232 11 240 53 240 103 L 240 111 L 323 111 Z" unicode="„" />
<glyph horiz-adv-x="405" d="M 387 391 L 243 391 L 243 -179 L 156 -179 L 156 391 L 18 391 L 18 474 L 156 474 L 156 730 L 243 730 L 243 474 L 387 474 L 387 391 Z" unicode="†" />
<glyph horiz-adv-x="412" d="M 160 -179 L 160 118 L 26 118 L 26 200 L 160 200 L 160 387 L 26 387 L 26 469 L 160 469 L 160 730 L 247 730 L 247 469 L 387 469 L 387 387 L 247 387 L 247 200 L 387 200 L 387 118 L 247 118 L 247 -179 L 160 -179 Z" unicode="‡" />
<glyph horiz-adv-x="382" d="M 191 457 C 213 457 231 449 246 434 C 261 419 269 401 269 379 C 269 357 261 339 246 324 C 231 308 213 301 191 301 C 169 301 150 308 135 324 C 120 339 113 357 113 379 C 113 401 120 419 135 434 C 150 449 169 457 191 457 Z" unicode="•" />
<glyph horiz-adv-x="602" d="M 58 0 L 58 120 L 143 120 L 143 0 L 58 0 Z M 259 0 L 259 120 L 343 120 L 343 0 L 259 0 Z M 459 0 L 459 120 L 544 120 L 544 0 L 459 0 Z" unicode="…" />
<glyph horiz-adv-x="974" d="M 167 363 C 151 363 135 366 119 374 C 103 382 90 393 78 409 C 66 425 56 444 48 468 C 40 492 37 519 37 551 C 37 604 49 649 73 685 C 97 721 129 740 167 740 C 187 740 206 735 222 725 C 238 715 252 701 264 685 C 276 668 285 648 291 626 C 297 603 301 579 301 554 C 301 527 297 502 291 479 C 284 455 275 435 263 418 C 251 400 236 387 220 377 C 204 367 186 363 167 363 Z M 84 0 L 505 730 L 570 730 L 151 0 L 84 0 Z M 100 551 C 100 535 101 520 103 505 C 105 490 108 477 114 465 C 119 453 126 444 135 437 C 143 429 154 426 167 426 C 181 426 192 429 201 437 C 210 444 217 453 223 465 C 228 477 232 490 234 505 C 236 520 238 535 238 551 C 238 565 236 580 234 596 C 232 611 228 624 223 636 C 217 648 210 657 202 665 C 193 673 182 677 170 677 C 156 677 145 673 136 666 C 127 658 120 649 115 637 C 109 625 105 612 103 597 C 101 582 100 567 100 551 Z M 502 -3 C 485 -3 469 0 453 8 C 437 16 422 27 410 43 C 398 59 388 78 380 102 C 372 126 369 153 369 185 C 369 238 381 283 406 319 C 431 355 464 374 504 374 C 524 374 543 369 560 359 C 576 349 590 335 602 319 C 613 302 622 282 628 260 C 634 237 637 213 637 188 C 637 161 633 136 627 113 C 621 89 612 69 600 52 C 588 34 573 21 557 11 C 540 1 522 -3 502 -3 Z M 802 -3 C 786 -3 770 0 754 8 C 738 16 723 27 711 43 C 699 59 689 78 681 102 C 673 126 670 153 670 185 C 670 238 682 283 707 319 C 731 355 764 374 804 374 C 824 374 843 369 860 359 C 876 349 890 335 902 319 C 913 302 922 282 928 260 C 934 237 937 213 937 188 C 937 161 933 136 927 113 C 921 89 912 69 900 52 C 888 34 873 21 857 11 C 840 1 822 -3 802 -3 Z M 501 61 C 515 61 526 64 535 71 C 544 78 551 87 557 99 C 563 111 567 124 569 139 C 571 154 573 169 573 185 C 573 200 571 215 569 231 C 567 246 563 259 557 271 C 551 283 544 292 535 300 C 526 307 515 311 503 311 C 478 311 460 298 449 272 C 437 246 432 217 432 185 C 432 169 433 154 435 139 C 437 124 441 111 447 99 C 452 87 459 78 468 71 C 477 64 488 61 501 61 Z M 801 61 C 815 61 826 64 836 71 C 845 78 852 87 858 99 C 864 111 868 124 870 139 C 872 154 874 169 874 185 C 874 200 872 215 870 231 C 867 246 863 259 858 271 C 852 283 845 292 836 300 C 827 307 816 311 804 311 C 779 311 761 298 750 272 C 738 246 733 217 733 185 C 733 169 734 154 736 139 C 738 124 742 111 748 99 C 753 87 760 78 769 71 C 777 64 788 61 801 61 Z" unicode="‰" />
<glyph horiz-adv-x="235" d="M 205 114 L 28 281 L 28 329 L 205 494 L 205 413 L 101 303 L 205 199 L 205 114 Z" unicode="‹" />
<glyph horiz-adv-x="235" d="M 30 495 L 207 328 L 207 281 L 30 116 L 30 196 L 134 306 L 30 410 L 30 495 Z" unicode="›" />
<glyph horiz-adv-x="145" d="M 301 730 L -76 0 L -145 0 L 232 730 L 301 730 Z" unicode="⁄" />
<glyph horiz-adv-x="326" d="M 15 456 L 15 507 L 204 738 L 252 738 L 252 510 L 315 510 L 315 456 L 252 456 L 252 373 L 183 373 L 183 456 L 15 456 Z M 86 508 L 185 508 L 185 635 L 86 508 Z" unicode="⁴" />
<glyph horiz-adv-x="469" d="M 448 116 C 432 79 408 48 377 24 C 346 0 312 -12 275 -12 C 223 -12 179 12 142 60 C 105 108 82 178 72 269 L 27 269 L 27 328 L 68 328 C 67 333 67 338 67 344 C 67 350 67 356 67 362 C 67 368 67 375 67 381 C 67 387 67 393 68 399 L 27 399 L 27 458 L 72 458 C 80 546 102 616 137 666 C 172 716 218 742 274 742 C 320 742 356 730 383 707 C 409 684 429 657 442 626 L 384 591 C 373 615 360 634 344 647 C 328 659 306 666 278 666 C 246 666 218 648 196 612 C 174 576 159 524 151 458 L 420 458 L 420 399 L 147 399 C 146 392 146 385 146 378 C 146 371 146 364 146 358 C 146 353 146 348 146 343 C 146 337 146 332 146 328 L 420 328 L 420 269 L 151 269 C 158 197 174 145 199 112 C 223 78 251 62 281 62 C 307 62 330 70 348 88 C 366 106 381 128 392 156 L 448 116 Z" unicode="€" />
<glyph horiz-adv-x="783" d="M 735 342 L 666 342 L 666 607 L 543 407 L 526 407 L 405 607 L 405 342 L 337 342 L 337 730 L 406 730 L 537 510 L 676 730 L 735 730 L 735 342 Z M 308 651 L 212 651 L 212 342 L 126 342 L 126 651 L 23 651 L 23 730 L 308 730 L 308 651 Z" unicode="™" />
<glyph horiz-adv-x="705" d="M 35 0 L 35 77 L 243 77 L 243 150 C 209 158 179 172 152 192 C 125 212 102 235 84 261 C 65 287 51 315 41 347 C 31 378 26 410 26 444 C 26 486 33 525 48 562 C 62 599 83 631 111 658 C 139 685 173 706 213 722 C 253 738 298 746 349 746 C 401 746 448 738 489 722 C 530 706 565 684 593 657 C 621 630 642 598 657 561 C 671 524 679 485 679 444 C 679 410 674 378 665 347 C 656 315 643 287 625 261 C 607 235 584 212 556 193 C 528 173 497 159 461 150 L 461 77 L 669 77 L 669 0 L 400 0 L 400 195 C 430 203 457 215 481 232 C 505 249 524 269 540 291 C 556 313 568 337 576 363 C 584 389 588 414 588 440 C 588 474 582 505 571 534 C 559 563 543 588 522 609 C 501 630 476 646 447 658 C 417 670 385 676 349 676 C 314 676 282 670 254 658 C 225 646 200 630 180 609 C 160 588 144 563 133 534 C 122 504 117 472 117 438 C 117 413 120 388 128 363 C 136 337 147 314 163 292 C 179 270 198 251 222 234 C 246 216 273 203 305 195 L 305 0 L 35 0 Z" unicode="Ω" />
<glyph horiz-adv-x="441" d="M 402 274 C 402 224 397 182 387 146 C 377 110 364 81 348 59 C 331 36 311 19 289 9 C 266 -1 242 -7 217 -7 C 192 -7 168 -2 145 7 C 122 17 102 31 85 50 C 67 68 53 92 43 120 C 33 148 28 180 28 216 C 28 250 32 282 41 310 C 50 338 63 362 79 382 C 95 402 113 417 134 428 C 155 439 178 445 202 445 C 233 445 258 438 278 425 C 298 411 313 392 325 367 C 318 431 306 486 289 532 C 272 578 253 616 232 646 C 211 676 189 698 167 713 C 144 727 124 735 106 736 L 145 802 C 163 802 187 792 217 772 C 246 752 274 722 302 680 C 329 638 352 583 372 516 C 392 448 402 368 402 274 Z M 215 63 C 247 63 272 77 290 105 C 307 133 316 172 316 222 C 316 269 307 306 290 333 C 273 359 248 373 214 373 C 182 373 158 359 141 332 C 123 305 115 267 115 218 C 115 166 123 127 141 101 C 158 75 183 63 215 63 Z" unicode="∂" />
<glyph horiz-adv-x="543" d="M 542 0 L 1 0 L 259 730 L 285 730 L 542 0 Z M 436 63 L 270 580 L 105 63 L 436 63 Z" unicode="∆" />
<glyph horiz-adv-x="638" d="M 207 655 L 207 0 L 121 0 L 121 655 L 15 655 L 15 730 L 623 730 L 623 655 L 522 655 L 522 0 L 436 0 L 436 655 L 207 655 Z" unicode="∏" />
<glyph horiz-adv-x="525" d="M 159 655 L 373 307 L 127 -104 L 497 -104 L 497 -179 L -12 -179 L 289 306 L 18 730 L 476 730 L 476 655 L 159 655 Z" unicode="∑" />
<glyph horiz-adv-x="474" d="M 434 297 L 41 297 L 41 366 L 434 366 L 434 297 Z" unicode="−" />
<glyph horiz-adv-x="510" d="M 500 730 L 198 0 L 186 0 L 14 327 L 74 371 L 202 116 L 446 730 L 500 730 Z" unicode="√" />
<glyph horiz-adv-x="334" d="M 109 -33 L 167 630 C 170 666 184 693 208 712 C 232 730 256 740 281 740 C 293 740 306 739 318 738 C 330 737 337 736 340 736 L 333 663 C 331 663 327 664 321 665 C 315 665 309 666 303 666 C 284 666 268 659 256 647 C 244 634 237 614 235 588 L 179 -62 C 176 -94 163 -121 140 -145 C 116 -168 88 -179 54 -179 C 36 -179 20 -177 5 -174 C -10 -170 -22 -166 -30 -162 L -21 -103 C -17 -103 -10 -105 0 -108 C 9 -110 18 -112 27 -112 C 47 -112 65 -105 81 -91 C 97 -77 106 -58 109 -33 Z" unicode="∫" />
<glyph horiz-adv-x="474" d="M 382 496 L 443 496 C 442 448 434 409 418 380 C 402 351 377 337 345 337 C 323 337 302 341 283 351 C 263 361 247 372 235 384 C 222 396 209 407 196 417 C 183 426 169 431 154 431 C 140 431 126 422 112 406 C 98 390 92 368 92 340 L 31 340 C 31 388 40 427 60 455 C 80 483 106 498 138 498 C 160 498 181 492 201 481 C 220 470 237 458 251 446 C 263 435 274 425 286 416 C 298 406 311 402 326 402 C 346 402 360 409 369 424 C 377 439 382 463 382 496 Z M 382 322 L 443 322 C 442 274 434 235 418 206 C 402 177 377 163 345 163 C 323 163 302 167 283 177 C 264 186 248 197 235 210 C 221 223 209 234 197 242 C 185 250 171 255 155 255 C 140 255 126 247 112 232 C 98 217 92 195 92 166 L 31 166 C 31 214 40 253 60 281 C 80 309 106 324 138 324 C 160 324 181 317 200 305 C 218 293 234 280 248 268 C 260 256 273 246 285 238 C 297 230 311 226 326 226 C 346 226 360 233 369 248 C 377 263 382 288 382 322 Z" unicode="≈" />
<glyph horiz-adv-x="474" d="M 432 179 L 218 179 L 174 71 L 118 87 L 156 179 L 57 179 L 57 247 L 184 247 L 244 394 L 57 394 L 57 461 L 272 461 L 314 563 L 369 546 L 334 461 L 432 461 L 432 394 L 307 394 L 246 247 L 432 247 L 432 179 Z" unicode="≠" />
<glyph horiz-adv-x="474" d="M 52 298 L 52 352 L 421 551 L 421 479 L 133 327 L 419 179 L 419 107 L 52 298 Z M 51 88 L 419 88 L 419 25 L 51 25 L 51 88 Z" unicode="≤" />
<glyph horiz-adv-x="474" d="M 418 298 L 52 107 L 52 179 L 337 327 L 50 479 L 50 551 L 418 352 L 418 298 Z M 419 88 L 419 25 L 51 25 L 51 88 L 419 88 Z" unicode="≥" />
<glyph horiz-adv-x="530" d="M 500 326 L 270 -12 L 259 -12 L 30 326 L 30 337 L 259 674 L 270 674 L 500 337 L 500 326 Z M 421 327 L 421 336 L 269 565 L 261 565 L 109 336 L 109 327 L 261 97 L 269 97 L 421 327 Z" unicode="◊" />
<glyph horiz-adv-x="730" d="M 448 683 L 282 683 L 282 730 L 448 730 L 448 683 Z M 659 282 L 610 282 L 610 448 L 659 448 L 659 282 Z M 120 282 L 71 282 L 71 448 L 120 448 L 120 282 Z M 423 307 L 307 307 L 307 423 L 423 423 L 423 307 Z M 448 0 L 282 0 L 282 48 L 448 48 L 448 0 Z" unicode="" />
<glyph horiz-adv-x="402" d="M 212 448 L 145 448 L 145 0 L 63 0 L 63 448 L 18 448 L 18 510 L 63 510 L 63 647 C 63 670 67 691 75 710 C 83 729 93 745 105 759 C 117 773 130 783 146 791 C 162 798 177 802 192 802 C 212 802 230 799 247 795 C 264 791 276 786 283 781 L 262 725 C 257 727 249 729 238 732 C 226 735 216 737 207 737 C 191 737 177 728 164 712 C 150 696 144 671 144 638 L 144 510 L 212 510 L 212 448 Z M 358 619 L 271 619 L 271 698 L 358 698 L 358 619 Z M 356 0 L 273 0 L 273 510 L 356 510 L 356 0 Z" unicode="ﬁ" />
<glyph horiz-adv-x="425" d="M 427 6 C 421 3 413 0 404 -1 C 395 -3 384 -5 372 -5 C 344 -5 321 3 303 20 C 285 37 276 62 276 95 L 276 762 L 262 725 C 257 727 249 729 238 732 C 226 735 216 737 207 737 C 191 737 177 728 164 712 C 150 696 144 671 144 638 L 144 536 L 215 536 L 215 464 L 145 464 L 145 0 L 63 0 L 63 464 L 11 464 L 11 536 L 63 536 L 63 647 C 63 670 67 691 75 710 C 83 729 93 745 105 759 C 117 773 130 783 146 791 C 162 798 177 802 192 802 C 209 802 225 800 240 797 C 255 793 267 789 276 785 L 276 800 L 358 800 L 358 111 C 358 96 361 86 367 80 C 373 74 381 71 393 71 C 397 71 401 71 405 72 C 408 72 411 73 414 74 L 427 6 Z" unicode="ﬂ" />
</font>
</defs>
</svg>
