<?xml version="1.0" encoding="utf-8" ?><svg version="1.1" xmlns = 'http://www.w3.org/2000/svg'><defs><font id='web' horiz-adv-x="1000">
<font-face font-family="web" descent="-200" cap-height="730" units-per-em="1000" bbox="-191,-328,974,1029" x-height="494" ascent="800" />
<missing-glyph horiz-adv-x="500" d="" /><glyph horiz-adv-x="181" d="" unicode=" " />
<glyph horiz-adv-x="258" d="M 195 424 L 154 216 L 102 216 L 63 424 L 63 730 L 195 730 L 195 424 Z M 189 0 L 70 0 L 70 127 L 189 127 L 189 0 Z" unicode="!" />
<glyph horiz-adv-x="364" d="M 321 624 L 313 479 L 219 479 L 214 623 L 214 730 L 321 730 L 321 624 Z M 150 623 L 145 479 L 48 479 L 43 623 L 43 730 L 150 730 L 150 623 Z" unicode="&#x22;" />
<glyph horiz-adv-x="553" d="M 504 203 L 400 203 L 382 0 L 307 1 L 325 203 L 200 203 L 182 0 L 107 1 L 125 203 L 31 203 L 31 308 L 134 308 L 144 419 L 48 419 L 48 524 L 153 524 L 171 730 L 246 729 L 228 524 L 353 524 L 371 730 L 446 729 L 428 524 L 522 524 L 522 419 L 419 419 L 409 308 L 504 308 L 504 203 Z M 209 308 L 334 308 L 344 419 L 219 419 L 209 308 Z" unicode="#" />
<glyph horiz-adv-x="467" d="M 435 190 C 435 162 430 138 421 116 C 412 94 400 75 385 59 C 370 43 353 30 333 20 C 313 10 292 4 270 0 L 270 -131 L 200 -131 L 200 -2 C 164 0 130 8 100 22 C 70 35 42 57 17 87 L 75 165 C 91 142 111 125 137 113 C 162 101 187 96 212 96 C 224 96 237 97 251 101 C 264 105 276 111 286 119 C 296 127 305 137 312 150 C 318 162 322 177 322 195 C 322 223 312 247 294 266 C 276 284 243 307 197 334 C 151 360 113 389 84 421 C 54 453 40 498 40 555 C 40 603 55 642 86 673 C 116 704 154 723 200 730 L 200 793 L 270 793 L 270 731 C 303 728 332 720 356 708 C 380 696 401 681 419 663 L 356 587 C 341 601 324 613 304 622 C 284 630 265 635 246 635 C 223 635 202 627 183 611 C 164 595 155 573 155 547 C 155 521 163 499 178 481 C 193 463 226 441 276 415 C 332 383 373 351 398 319 C 422 287 435 244 435 190 Z" unicode="$" />
<glyph horiz-adv-x="693" d="M 171 363 C 154 363 137 366 120 374 C 103 382 88 393 75 409 C 61 425 50 444 42 468 C 34 492 30 519 30 551 C 30 604 43 649 70 685 C 96 721 129 740 168 740 C 189 740 209 735 227 725 C 245 715 261 701 274 685 C 286 668 296 648 303 626 C 310 603 314 579 314 554 C 314 527 310 502 302 479 C 294 455 284 435 272 418 C 259 400 244 387 226 377 C 208 367 190 363 171 363 Z M 172 0 L 90 0 L 502 730 L 582 730 L 172 0 Z M 171 451 C 191 451 204 461 210 481 C 216 501 219 525 219 551 C 219 575 215 598 209 619 C 203 640 190 651 172 651 C 153 651 140 640 134 620 C 127 599 124 576 124 551 C 124 525 127 502 133 482 C 139 461 151 451 171 451 Z M 517 -3 C 499 -3 482 0 465 8 C 448 16 433 27 420 43 C 406 59 395 78 387 102 C 379 126 375 153 375 185 C 375 238 388 283 416 319 C 443 355 478 374 520 374 C 541 374 561 369 579 359 C 597 349 612 335 624 319 C 636 302 646 282 653 260 C 659 237 663 213 663 188 C 663 161 659 136 652 113 C 644 89 634 69 622 52 C 609 34 594 21 576 11 C 558 1 538 -3 517 -3 Z M 517 86 C 537 86 550 95 557 115 C 564 135 568 158 568 185 C 568 211 564 235 557 255 C 550 275 537 286 519 286 C 502 286 489 275 481 255 C 473 235 469 211 469 185 C 469 158 472 135 480 115 C 487 95 499 86 517 86 Z" unicode="%" />
<glyph horiz-adv-x="636" d="M 554 -6 L 486 68 C 455 42 421 23 384 11 C 347 -1 306 -8 260 -8 C 184 -8 126 9 85 44 C 43 78 23 126 23 188 C 23 247 37 292 67 324 C 96 355 132 383 174 407 C 166 415 157 425 148 437 C 139 449 131 462 123 476 C 115 490 108 506 103 524 C 97 541 95 559 95 579 C 95 599 98 618 106 637 C 113 656 124 673 139 688 C 153 702 172 714 194 723 C 216 732 241 737 271 737 C 326 737 371 722 406 693 C 440 664 458 630 458 590 C 458 550 447 514 425 483 C 403 451 372 422 333 394 L 487 230 C 495 242 503 255 511 269 C 519 283 528 297 536 313 L 624 250 C 614 231 603 213 593 197 C 583 181 572 165 562 151 L 635 73 L 554 -6 Z M 261 470 L 269 462 C 296 480 315 498 326 514 C 337 530 343 547 343 565 C 343 583 337 600 326 615 C 315 630 299 638 277 638 C 255 638 238 630 228 614 C 218 598 213 581 213 565 C 213 549 216 534 224 518 C 232 502 244 486 261 470 Z M 154 200 C 154 168 166 143 192 124 C 218 104 247 95 280 95 C 306 95 330 99 352 107 C 374 115 395 128 415 145 L 241 335 C 215 317 194 297 178 277 C 162 256 154 230 154 200 Z" unicode="&#x26;" />
<glyph horiz-adv-x="196" d="M 154 621 L 149 473 L 47 473 L 42 621 L 42 730 L 154 730 L 154 621 Z" unicode="'" />
<glyph horiz-adv-x="298" d="M 280 -89 L 280 -179 C 247 -164 215 -143 184 -115 C 152 -87 124 -53 100 -14 C 76 25 56 70 41 122 C 26 174 19 231 19 293 C 19 351 25 405 39 455 C 52 505 70 549 94 587 C 117 625 145 658 177 686 C 209 713 243 734 280 749 L 280 662 C 235 634 200 590 176 530 C 151 469 139 390 139 293 C 139 203 150 126 172 62 C 194 -2 230 -53 280 -89 Z" unicode="(" />
<glyph horiz-adv-x="298" d="M 19 662 L 19 749 C 54 735 87 715 119 689 C 151 662 178 629 202 590 C 225 551 244 506 258 455 C 272 404 279 348 279 286 C 279 227 271 173 257 123 C 243 73 224 28 200 -11 C 176 -50 148 -84 117 -112 C 85 -140 53 -163 19 -179 L 19 -88 C 67 -52 102 -3 125 60 C 148 123 160 198 160 286 C 160 384 148 464 124 526 C 100 588 65 633 19 662 Z" unicode=")" />
<glyph horiz-adv-x="376" d="M 357 583 L 236 552 L 322 466 L 257 414 L 190 518 L 124 415 L 56 465 L 144 553 L 23 580 L 61 665 L 162 607 L 146 730 L 234 730 L 218 607 L 324 659 L 357 583 Z" unicode="*" />
<glyph horiz-adv-x="462" d="M 442 285 L 280 285 L 280 125 L 183 125 L 183 285 L 21 285 L 21 378 L 183 378 L 183 537 L 280 537 L 280 378 L 442 378 L 442 285 Z" unicode="+" />
<glyph horiz-adv-x="226" d="M 197 113 C 197 90 193 65 186 39 C 179 13 171 -12 161 -36 C 151 -60 140 -81 128 -101 C 116 -121 105 -135 95 -145 L 4 -105 C 11 -95 18 -83 26 -67 C 34 -51 41 -33 48 -14 C 54 5 60 26 65 48 C 69 70 72 91 73 113 L 197 113 Z" unicode="," />
<glyph horiz-adv-x="317" d="M 287 215 L 31 215 L 31 323 L 287 323 L 287 215 Z" unicode="-" />
<glyph horiz-adv-x="228" d="M 175 0 L 53 0 L 53 140 L 175 140 L 175 0 Z" unicode="." />
<glyph horiz-adv-x="316" d="M 317 730 L 109 0 L -1 0 L 209 730 L 317 730 Z" unicode="/" />
<glyph horiz-adv-x="447" d="M 221 -7 C 193 -7 166 0 142 11 C 118 23 97 44 80 72 C 62 100 49 138 39 186 C 29 233 24 291 24 361 C 24 478 40 570 72 637 C 104 704 155 738 225 738 C 296 738 347 705 377 640 C 407 574 423 485 423 372 C 423 247 406 153 372 89 C 338 25 288 -7 221 -7 Z M 222 92 C 250 92 271 111 284 151 C 296 190 303 260 303 361 C 303 459 297 530 287 572 C 276 614 255 636 224 636 C 193 636 172 616 160 576 C 148 536 143 465 143 363 C 143 310 144 266 148 231 C 151 195 156 167 163 147 C 169 127 178 112 188 104 C 198 96 209 92 222 92 Z" unicode="0" />
<glyph horiz-adv-x="306" d="M 254 0 L 130 0 L 130 559 C 118 539 102 522 81 507 C 60 491 41 483 24 481 L 24 606 C 34 606 45 611 57 619 C 69 627 81 638 93 650 C 105 662 116 676 126 690 C 136 704 143 719 148 733 L 254 733 L 254 0 Z" unicode="1" />
<glyph horiz-adv-x="434" d="M 407 0 L 16 0 L 16 30 L 225 352 C 245 383 260 414 271 446 C 282 478 288 511 288 546 C 288 574 281 595 268 611 C 254 627 235 635 209 635 C 180 635 159 624 147 603 C 135 582 129 554 129 520 L 22 520 C 22 593 38 647 72 683 C 106 719 151 737 209 737 C 265 737 311 721 347 690 C 383 658 402 614 402 556 C 402 500 395 454 382 420 C 368 386 352 354 334 324 L 192 107 L 407 107 L 407 0 Z" unicode="2" />
<glyph horiz-adv-x="432" d="M 192 -7 C 143 -7 103 0 72 14 C 40 28 16 44 -2 63 L 48 147 C 61 133 78 120 99 109 C 120 97 146 92 177 92 C 217 92 248 105 269 132 C 289 159 300 191 300 228 C 300 248 296 266 289 281 C 282 296 273 308 262 318 C 251 328 238 335 224 339 C 210 343 196 346 182 346 L 111 346 L 111 448 L 183 448 C 211 448 234 456 253 473 C 272 489 282 514 282 546 C 282 571 274 592 260 610 C 245 628 223 637 193 637 C 166 637 143 631 124 619 C 105 607 88 593 74 577 L 11 646 C 26 667 50 688 83 708 C 116 728 158 738 210 738 C 265 738 309 723 341 693 C 373 663 390 622 390 570 C 390 546 386 525 380 506 C 373 487 364 470 354 456 C 343 442 331 430 318 421 C 304 412 291 406 277 402 C 293 398 310 391 326 381 C 342 371 357 359 370 344 C 383 328 393 310 401 290 C 409 269 413 246 413 221 C 413 194 409 167 401 140 C 393 113 381 89 364 67 C 346 45 323 28 295 14 C 267 0 232 -7 192 -7 Z" unicode="3" />
<glyph horiz-adv-x="427" d="M 426 179 L 362 179 L 362 0 L 258 0 L 258 179 L 2 179 L 2 258 L 287 736 L 362 736 L 362 281 L 426 281 L 426 179 Z M 259 275 L 259 520 L 118 275 L 259 275 Z" unicode="4" />
<glyph horiz-adv-x="422" d="M 208 -7 C 164 -7 123 1 85 18 C 47 34 18 54 0 77 L 64 161 C 76 145 93 130 114 116 C 135 102 160 96 189 96 C 222 96 247 109 265 136 C 283 162 292 199 292 245 C 292 287 284 319 268 342 C 252 364 231 376 205 376 C 176 376 155 370 141 358 C 127 346 117 330 109 312 L 28 333 L 57 730 L 375 730 L 375 623 L 145 623 L 130 425 C 136 435 148 447 165 459 C 182 471 208 477 243 477 C 291 477 331 459 363 423 C 394 387 410 331 410 255 C 410 210 404 171 393 138 C 381 105 366 78 348 57 C 329 35 307 19 283 9 C 259 -1 234 -7 208 -7 Z" unicode="5" />
<glyph horiz-adv-x="430" d="M 226 -8 C 198 -8 172 -3 147 6 C 122 16 100 30 82 50 C 63 69 48 93 37 123 C 26 152 21 186 21 225 C 21 299 36 369 66 435 C 96 501 137 570 189 642 L 265 747 L 352 693 L 310 632 C 268 572 231 519 201 474 C 170 429 150 394 141 368 C 151 387 167 403 187 415 C 207 427 229 434 255 434 C 300 434 338 414 369 375 C 400 336 416 284 416 218 C 416 152 397 97 361 55 C 325 13 280 -8 226 -8 Z M 222 91 C 246 91 266 101 280 122 C 294 142 301 173 301 214 C 301 258 293 290 279 309 C 264 328 245 338 223 338 C 199 338 180 328 164 309 C 148 289 140 259 140 219 C 140 172 148 139 164 120 C 180 100 200 91 222 91 Z" unicode="6" />
<glyph horiz-adv-x="366" d="M 371 730 L 371 670 L 122 -6 L 19 33 L 245 623 L 11 623 L 11 730 L 371 730 Z" unicode="7" />
<glyph horiz-adv-x="441" d="M 307 393 C 320 389 334 383 348 374 C 362 365 375 353 387 338 C 398 323 407 305 415 283 C 422 261 426 235 426 206 C 426 140 407 88 371 50 C 334 12 284 -7 220 -7 C 157 -7 107 11 70 48 C 33 85 15 136 15 200 C 15 230 19 257 27 280 C 35 303 45 322 57 338 C 69 354 82 366 96 375 C 110 384 122 390 134 394 C 111 402 89 418 67 443 C 45 468 35 506 35 558 C 35 586 40 612 50 634 C 60 656 73 675 90 690 C 106 705 126 717 148 725 C 170 733 194 737 220 737 C 275 737 320 721 354 689 C 388 657 405 616 405 566 C 405 540 402 518 396 499 C 390 479 382 463 372 449 C 362 435 352 423 340 414 C 328 404 317 397 307 393 Z M 221 430 C 243 430 262 437 277 453 C 292 469 300 496 300 534 C 300 568 292 594 277 612 C 261 630 243 639 221 639 C 198 639 179 630 163 614 C 147 598 140 571 140 535 C 140 493 148 465 166 451 C 184 437 202 430 221 430 Z M 222 91 C 248 91 268 100 284 119 C 300 137 308 169 308 214 C 308 256 299 286 282 305 C 264 323 244 333 222 333 C 197 333 176 323 159 305 C 141 287 133 256 133 212 C 133 170 142 140 160 120 C 178 100 198 91 222 91 Z" unicode="8" />
<glyph horiz-adv-x="429" d="M 178 -12 L 90 45 L 122 90 C 138 112 155 136 173 162 C 191 188 209 215 225 241 C 241 267 256 291 270 314 C 283 337 293 356 299 372 C 286 351 267 334 243 320 C 219 306 194 300 169 300 C 123 300 86 320 57 361 C 28 401 14 453 14 517 C 14 549 19 579 29 607 C 39 634 53 657 71 676 C 89 695 109 710 133 721 C 157 731 182 737 210 737 C 236 737 261 732 285 723 C 309 713 330 699 348 680 C 366 660 380 636 391 607 C 402 577 408 543 408 503 C 408 461 403 420 393 381 C 383 341 370 304 354 268 C 338 232 321 198 301 166 C 281 133 260 102 240 74 L 178 -12 Z M 205 399 C 225 399 243 407 261 424 C 279 440 288 470 288 512 C 288 558 280 591 264 609 C 248 627 230 636 208 636 C 183 636 163 626 149 607 C 135 587 128 558 128 519 C 128 475 134 444 148 426 C 162 408 181 399 205 399 Z" unicode="9" />
<glyph horiz-adv-x="222" d="M 172 360 L 50 360 L 50 494 L 172 494 L 172 360 Z M 172 0 L 50 0 L 50 135 L 172 135 L 172 0 Z" unicode=":" />
<glyph horiz-adv-x="223" d="M 179 360 L 59 360 L 59 494 L 179 494 L 179 360 Z M 181 108 C 180 82 176 57 170 31 C 164 5 156 -19 147 -42 C 137 -64 127 -85 116 -103 C 105 -121 94 -135 84 -145 L -7 -105 C 0 -95 8 -83 17 -68 C 25 -52 33 -35 40 -16 C 47 2 53 22 57 44 C 61 65 63 86 63 108 L 181 108 Z" unicode=";" />
<glyph horiz-adv-x="366" d="M 322 102 L 29 284 L 29 366 L 322 545 L 322 434 L 143 325 L 322 216 L 322 102 Z" unicode="&#x3C;" />
<glyph horiz-adv-x="471" d="M 420 382 L 51 382 L 51 486 L 420 486 L 420 382 Z M 420 163 L 51 163 L 51 267 L 420 267 L 420 163 Z" unicode="=" />
<glyph horiz-adv-x="366" d="M 334 284 L 40 102 L 40 215 L 215 325 L 40 434 L 40 545 L 334 366 L 334 284 Z" unicode="&#x3E;" />
<glyph horiz-adv-x="433" d="M 146 218 C 146 254 151 286 163 314 C 174 342 190 369 212 396 C 228 417 244 440 260 464 C 275 488 283 515 283 547 C 283 574 274 595 257 611 C 240 627 219 635 195 635 C 171 635 151 628 133 616 C 115 603 100 587 88 568 L 17 640 C 41 674 72 700 108 717 C 144 733 181 742 219 742 C 281 742 329 725 361 692 C 393 659 409 616 409 563 C 409 513 397 470 375 436 C 353 402 329 369 305 338 C 289 321 278 301 272 279 C 265 257 261 236 261 218 L 146 218 Z M 140 0 L 140 133 L 271 133 L 271 0 L 140 0 Z" unicode="?" />
<glyph horiz-adv-x="800" d="M 395 -51 C 340 -51 290 -41 245 -21 C 199 -1 161 26 129 60 C 97 94 72 134 55 180 C 37 226 29 275 29 327 C 29 379 38 428 56 474 C 74 520 99 561 131 595 C 163 629 203 655 249 675 C 295 695 345 705 401 705 C 457 705 509 696 555 680 C 601 663 640 640 672 610 C 704 580 728 543 746 500 C 763 457 772 410 772 358 C 772 314 766 277 756 246 C 746 214 732 189 716 169 C 700 149 682 135 663 126 C 643 117 625 113 607 113 C 578 113 554 119 536 132 C 517 145 505 162 499 184 C 488 168 470 152 446 136 C 421 120 390 113 352 113 C 304 113 267 125 242 150 C 217 175 205 208 205 249 C 205 272 210 293 221 311 C 231 329 246 343 264 355 C 282 367 303 376 327 382 C 351 388 375 391 401 391 L 481 391 L 481 402 C 481 427 474 445 460 456 C 446 467 424 473 396 473 C 372 473 350 470 330 464 C 310 458 293 452 281 447 L 250 520 C 268 529 290 537 316 543 C 342 549 370 553 401 553 C 455 553 496 540 526 514 C 556 488 571 444 571 384 L 571 239 C 571 226 574 215 582 206 C 589 196 601 192 617 192 C 625 192 634 194 644 199 C 653 203 661 212 669 224 C 677 236 683 252 688 273 C 692 294 695 321 695 354 C 695 395 688 433 674 467 C 660 501 641 530 616 554 C 591 578 560 597 524 611 C 487 625 446 632 401 632 C 357 632 316 624 280 608 C 243 592 212 570 187 543 C 161 515 142 483 128 446 C 114 408 107 369 107 327 C 107 285 113 245 127 208 C 141 170 160 138 186 110 C 211 82 242 59 278 43 C 314 27 354 19 398 19 C 418 19 437 20 456 24 C 474 28 495 35 518 46 L 546 -18 C 518 -30 493 -39 469 -44 C 445 -48 420 -51 395 -51 Z M 379 193 C 403 193 425 198 444 208 C 463 218 475 229 480 240 L 480 322 L 401 322 C 371 322 347 316 331 305 C 315 294 307 278 307 258 C 307 237 313 221 325 210 C 337 198 355 193 379 193 Z" unicode="@" />
<glyph horiz-adv-x="493" d="M 494 0 L 371 0 L 330 154 L 157 154 L 118 0 L -1 0 L 201 734 L 292 734 L 494 0 Z M 313 253 L 243 509 L 174 253 L 313 253 Z" unicode="A" />
<glyph horiz-adv-x="470" d="M 50 0 L 50 730 L 251 730 C 301 730 342 714 376 683 C 410 652 427 610 427 556 C 427 505 414 465 390 437 C 365 409 337 392 307 386 C 323 384 340 379 358 371 C 375 363 391 351 405 337 C 419 322 430 304 439 282 C 448 260 453 235 453 207 C 453 144 434 94 398 56 C 362 18 317 0 263 0 L 50 0 Z M 174 422 L 222 422 C 253 422 275 433 288 456 C 300 479 307 504 307 531 C 307 561 300 584 286 601 C 272 618 249 627 215 627 L 174 627 L 174 422 Z M 174 104 L 236 104 C 269 104 293 114 307 135 C 321 155 329 181 329 213 C 329 251 319 278 301 296 C 283 313 257 322 225 322 L 174 322 L 174 104 Z" unicode="B" />
<glyph horiz-adv-x="512" d="M 277 -7 C 203 -7 144 24 98 86 C 52 148 29 241 29 366 C 29 482 50 572 93 638 C 135 704 197 737 279 737 C 344 737 392 721 423 690 C 454 658 476 619 489 573 L 376 538 C 367 562 356 583 343 600 C 329 617 309 626 281 626 C 243 626 213 607 191 569 C 169 531 158 462 158 362 C 158 311 161 269 169 236 C 177 202 187 176 199 157 C 211 137 225 124 241 116 C 257 108 273 104 290 104 C 320 104 343 112 358 128 C 372 144 384 165 394 193 L 496 155 C 479 104 453 64 417 36 C 381 7 334 -7 277 -7 Z" unicode="C" />
<glyph horiz-adv-x="543" d="M 50 0 L 50 730 L 226 730 C 272 730 314 721 350 703 C 386 685 417 660 441 628 C 465 596 483 557 496 511 C 508 465 515 415 515 361 C 515 310 509 263 497 219 C 485 175 466 136 442 104 C 417 72 386 46 349 28 C 311 9 268 0 218 0 L 50 0 Z M 179 108 L 225 108 C 283 108 324 130 348 174 C 372 218 384 280 384 360 C 384 452 370 518 343 559 C 315 600 278 621 230 621 L 179 621 L 179 108 Z" unicode="D" />
<glyph horiz-adv-x="403" d="M 393 0 L 50 0 L 50 730 L 374 730 L 374 617 L 176 617 L 176 420 L 365 420 L 365 309 L 176 309 L 176 113 L 393 113 L 393 0 Z" unicode="E" />
<glyph horiz-adv-x="364" d="M 359 617 L 181 617 L 181 420 L 348 420 L 348 309 L 181 309 L 181 0 L 51 0 L 51 730 L 359 730 L 359 617 Z" unicode="F" />
<glyph horiz-adv-x="531" d="M 275 375 L 505 375 L 505 117 C 487 81 460 51 422 28 C 384 4 336 -7 278 -7 C 244 -7 211 1 181 17 C 151 33 124 57 102 89 C 80 120 62 159 49 205 C 35 251 29 305 29 365 C 29 421 34 473 46 519 C 58 565 74 604 96 636 C 118 668 144 692 175 710 C 206 727 241 736 279 736 C 339 736 385 722 417 695 C 449 668 472 634 487 592 L 381 546 C 372 568 360 586 346 602 C 331 618 310 626 284 626 C 246 626 215 605 192 565 C 169 525 158 457 158 363 C 158 266 170 197 195 157 C 219 117 249 97 283 97 C 309 97 331 101 349 110 C 367 118 380 131 390 148 L 390 270 L 275 270 L 275 375 Z" unicode="G" />
<glyph horiz-adv-x="535" d="M 485 0 L 355 0 L 355 304 L 180 304 L 180 0 L 50 0 L 50 730 L 180 730 L 180 417 L 355 417 L 355 730 L 485 730 L 485 0 Z" unicode="H" />
<glyph horiz-adv-x="237" d="M 185 0 L 54 0 L 54 730 L 185 730 L 185 0 Z" unicode="I" />
<glyph horiz-adv-x="296" d="M 249 730 L 249 182 C 249 126 233 80 201 45 C 169 9 127 -8 75 -8 C 62 -8 47 -6 31 -4 C 15 -2 2 1 -7 6 L 6 118 C 10 115 17 113 25 112 C 33 110 42 110 50 110 C 72 110 89 119 101 139 C 113 158 119 182 119 211 L 119 730 L 249 730 Z" unicode="J" />
<glyph horiz-adv-x="516" d="M 526 0 L 382 0 L 202 296 L 181 268 L 181 0 L 50 0 L 50 730 L 181 730 L 181 433 L 373 730 L 509 730 L 285 399 L 526 0 Z" unicode="K" />
<glyph horiz-adv-x="364" d="M 357 0 L 50 0 L 50 730 L 180 730 L 180 113 L 357 113 L 357 0 Z" unicode="L" />
<glyph horiz-adv-x="650" d="M 600 0 L 477 0 L 477 452 L 355 147 L 298 147 L 172 452 L 172 0 L 50 0 L 50 730 L 165 730 L 327 341 L 493 730 L 600 730 L 600 0 Z" unicode="M" />
<glyph horiz-adv-x="532" d="M 482 0 L 391 0 L 172 436 L 172 0 L 50 0 L 50 730 L 141 730 L 365 295 L 365 730 L 482 730 L 482 0 Z" unicode="N" />
<glyph horiz-adv-x="567" d="M 286 -7 C 201 -7 137 25 94 91 C 50 156 29 249 29 371 C 29 485 51 574 95 639 C 139 704 201 737 281 737 C 365 737 429 705 473 641 C 517 577 539 485 539 365 C 539 249 516 158 470 92 C 424 26 363 -7 286 -7 Z M 284 99 C 324 99 354 120 375 163 C 396 205 407 275 407 372 C 407 461 396 526 374 568 C 352 609 322 630 282 630 C 240 630 210 609 190 569 C 170 528 161 460 161 365 C 161 269 171 200 193 160 C 215 119 245 99 284 99 Z" unicode="O" />
<glyph horiz-adv-x="461" d="M 50 0 L 50 730 L 255 730 C 281 730 306 725 330 715 C 353 705 373 690 391 672 C 408 654 422 631 432 605 C 442 578 447 548 447 516 C 447 450 428 396 392 355 C 356 313 310 293 255 293 L 180 293 L 180 0 L 50 0 Z M 180 397 L 224 397 C 256 397 280 406 296 425 C 312 443 321 474 321 516 C 321 553 311 581 293 599 C 274 617 250 626 222 626 L 180 626 L 180 397 Z" unicode="P" />
<glyph horiz-adv-x="567" d="M 510 -45 L 510 -160 C 464 -152 421 -133 383 -103 C 345 -73 315 -40 293 -4 C 291 -4 290 -4 289 -4 C 287 -4 286 -4 286 -4 C 203 -4 139 28 95 92 C 51 156 29 249 29 371 C 29 485 51 574 97 639 C 142 704 203 737 281 737 C 364 737 428 705 472 641 C 516 577 539 485 539 365 C 539 281 526 210 501 152 C 475 94 441 52 397 26 C 413 7 431 -8 452 -21 C 473 -33 492 -41 510 -45 Z M 284 95 C 324 95 354 117 376 162 C 397 207 408 276 408 370 C 408 466 396 534 372 574 C 348 613 318 633 282 633 C 241 633 211 613 191 573 C 171 533 161 463 161 364 C 161 270 171 202 192 159 C 213 116 244 95 284 95 Z" unicode="Q" />
<glyph horiz-adv-x="475" d="M 50 0 L 50 730 L 232 730 C 288 730 334 713 370 680 C 406 646 425 596 425 529 C 425 477 414 433 392 397 C 370 361 343 339 310 333 L 307 327 L 478 0 L 345 0 L 196 293 L 169 293 L 169 0 L 50 0 Z M 169 402 L 213 402 C 239 402 261 411 279 431 C 296 451 305 478 305 513 C 305 551 296 578 278 596 C 260 614 240 623 217 623 L 169 623 L 169 402 Z" unicode="R" />
<glyph horiz-adv-x="429" d="M 214 -7 C 173 -7 136 0 103 12 C 70 24 40 48 12 82 L 84 159 C 98 137 116 121 138 109 C 160 97 181 91 203 91 C 227 91 248 99 266 116 C 284 133 293 156 293 186 C 293 216 284 241 268 260 C 252 279 222 303 179 331 C 137 357 102 387 74 421 C 46 454 33 500 33 558 C 33 585 38 610 48 632 C 58 654 72 673 90 689 C 107 704 127 716 151 724 C 174 732 199 737 225 737 C 267 737 301 730 329 716 C 357 702 378 687 394 670 L 325 590 C 314 601 300 611 283 619 C 266 627 248 631 230 631 C 210 631 192 624 176 610 C 160 596 152 577 152 552 C 152 528 159 507 173 490 C 186 473 215 451 261 423 C 313 391 350 357 374 322 C 397 286 409 242 409 188 C 409 155 403 126 392 102 C 380 78 366 57 348 41 C 330 25 309 13 286 5 C 262 -3 238 -7 214 -7 Z" unicode="S" />
<glyph horiz-adv-x="387" d="M 382 617 L 259 617 L 259 0 L 129 0 L 129 617 L 5 617 L 5 730 L 382 730 L 382 617 Z" unicode="T" />
<glyph horiz-adv-x="536" d="M 489 730 L 489 224 C 489 182 482 147 470 118 C 457 88 440 64 419 46 C 398 28 374 14 346 6 C 318 -2 289 -7 260 -7 C 231 -7 204 -2 178 5 C 152 13 130 27 111 45 C 91 63 76 86 64 116 C 52 146 47 182 47 224 L 47 730 L 175 730 L 175 219 C 175 177 183 147 200 130 C 216 113 238 105 264 105 C 290 105 311 113 329 129 C 346 145 355 175 355 219 L 355 730 L 489 730 Z" unicode="U" />
<glyph horiz-adv-x="466" d="M 467 730 L 279 -4 L 185 -4 L -1 730 L 123 730 L 236 241 L 346 730 L 467 730 Z" unicode="V" />
<glyph horiz-adv-x="701" d="M 682 730 L 533 -3 L 446 -3 L 342 474 L 236 -3 L 148 -3 L 0 730 L 122 730 L 207 249 L 301 730 L 395 730 L 487 250 L 573 730 L 682 730 Z" unicode="W" />
<glyph horiz-adv-x="460" d="M 328 0 L 225 239 L 120 0 L 1 0 L 166 375 L 13 730 L 140 730 L 230 521 L 322 730 L 440 730 L 289 385 L 454 0 L 328 0 Z" unicode="X" />
<glyph horiz-adv-x="471" d="M 478 730 L 298 308 L 298 0 L 168 0 L 168 310 L -7 730 L 131 730 L 240 441 L 356 730 L 478 730 Z" unicode="Y" />
<glyph horiz-adv-x="425" d="M 401 730 L 401 664 L 167 111 L 412 111 L 412 0 L 13 0 L 13 63 L 251 617 L 39 617 L 39 730 L 401 730 Z" unicode="Z" />
<glyph horiz-adv-x="245" d="M 229 -179 L 46 -179 L 46 730 L 229 730 L 229 631 L 161 631 L 161 -78 L 229 -78 L 229 -179 Z" unicode="[" />
<glyph horiz-adv-x="316" d="M -1 730 L 106 730 L 317 0 L 208 0 L -1 730 Z" unicode="\" />
<glyph horiz-adv-x="248" d="M 204 -179 L 21 -179 L 21 -80 L 89 -80 L 89 631 L 21 631 L 21 730 L 204 730 L 204 -179 Z" unicode="]" />
<glyph horiz-adv-x="434" d="M 416 369 L 312 369 L 216 606 L 121 369 L 19 369 L 165 730 L 268 730 L 416 369 Z" unicode="^" />
<glyph horiz-adv-x="424" d="M 424 -167 L 0 -167 L 0 -70 L 424 -70 L 424 -167 Z" unicode="_" />
<glyph horiz-adv-x="500" d="M 360 554 L 246 554 L 134 728 L 271 728 L 360 554 Z" unicode="`" />
<glyph horiz-adv-x="389" d="M 356 0 L 252 0 L 252 46 C 237 28 221 15 203 7 C 185 0 162 -5 136 -5 C 100 -5 70 9 48 37 C 26 65 15 103 15 151 C 15 205 30 245 61 270 C 92 294 130 308 174 311 L 244 315 L 244 341 C 244 363 238 380 226 391 C 214 401 196 407 172 407 C 150 407 130 403 114 396 C 98 388 85 381 77 375 L 45 459 C 59 471 79 481 105 490 C 131 499 163 504 203 504 C 246 504 282 491 312 467 C 341 443 356 407 356 360 L 356 0 Z M 246 115 L 246 237 L 199 234 C 179 232 162 225 148 212 C 134 199 127 179 127 152 C 127 127 133 110 145 100 C 157 90 170 85 184 85 C 199 85 211 87 221 93 C 231 99 239 106 246 115 Z" unicode="a" />
<glyph horiz-adv-x="425" d="M 254 -4 C 226 -4 203 2 185 14 C 167 26 153 40 144 58 L 144 0 L 35 0 L 35 795 L 148 795 L 148 416 C 154 437 167 456 186 473 C 204 489 230 498 263 498 C 307 498 341 476 367 432 C 393 388 406 330 406 260 C 406 176 391 111 363 65 C 334 19 298 -4 254 -4 Z M 211 84 C 232 84 249 96 262 122 C 275 147 282 188 282 246 C 282 299 275 338 263 362 C 251 386 234 398 212 398 C 193 398 177 387 164 365 C 150 343 144 300 144 236 C 144 204 145 179 149 159 C 153 139 158 123 164 112 C 170 101 178 94 186 90 C 194 86 202 84 211 84 Z" unicode="b" />
<glyph horiz-adv-x="360" d="M 295 131 L 352 66 C 340 48 323 32 302 17 C 281 2 251 -5 211 -5 C 179 -5 152 1 128 14 C 104 26 83 44 67 66 C 51 88 38 115 30 146 C 22 176 18 210 18 246 C 18 280 22 312 30 343 C 38 373 51 400 67 423 C 83 446 104 464 128 478 C 152 492 181 499 214 499 C 250 499 279 491 303 476 C 326 460 344 443 356 425 L 289 357 C 281 369 271 379 260 387 C 249 395 235 399 219 399 C 195 399 177 386 163 360 C 149 334 142 297 142 251 C 142 193 151 151 169 127 C 187 102 208 90 231 90 C 247 90 260 94 270 104 C 280 113 288 122 295 131 Z" unicode="c" />
<glyph horiz-adv-x="435" d="M 180 -5 C 155 -5 133 1 113 13 C 93 25 77 42 63 64 C 49 86 38 112 30 142 C 22 172 19 205 19 241 C 19 319 34 381 65 427 C 95 473 134 496 182 496 C 209 496 232 488 251 474 C 269 459 282 441 289 421 L 289 795 L 400 795 L 400 0 L 294 0 L 294 54 C 287 40 275 26 257 14 C 239 1 214 -5 180 -5 Z M 218 86 C 240 86 258 99 271 125 C 284 151 291 193 291 249 C 291 305 283 344 269 366 C 255 388 237 399 216 399 C 193 399 175 386 163 362 C 150 338 144 299 144 245 C 144 190 150 150 163 124 C 176 98 194 86 218 86 Z" unicode="d" />
<glyph horiz-adv-x="405" d="M 208 -5 C 151 -5 105 17 70 61 C 35 105 18 166 18 244 C 18 284 22 319 32 351 C 42 383 55 409 72 431 C 88 453 108 469 131 481 C 153 492 177 498 203 498 C 264 498 310 474 341 427 C 371 379 387 309 387 217 L 137 217 C 137 175 144 143 160 121 C 176 99 198 88 227 88 C 250 88 270 93 286 104 C 302 115 316 127 328 140 L 379 78 C 364 59 343 40 315 22 C 287 4 252 -5 208 -5 Z M 136 295 L 274 295 C 273 332 267 360 256 379 C 244 398 229 408 209 408 C 188 408 171 398 158 380 C 145 361 138 333 136 295 Z" unicode="e" />
<glyph horiz-adv-x="235" d="M 233 394 L 174 394 L 174 0 L 56 0 L 56 394 L 9 394 L 9 494 L 56 494 L 56 658 C 56 679 60 698 68 716 C 76 733 86 748 99 760 C 111 772 125 781 141 787 C 157 793 173 797 189 797 C 202 797 216 795 231 791 C 246 787 258 782 267 776 L 236 687 C 234 687 231 688 226 690 C 220 692 214 693 208 693 C 195 693 186 688 180 679 C 174 669 172 654 172 633 L 172 494 L 233 494 L 233 394 Z" unicode="f" />
<glyph horiz-adv-x="433" d="M 183 8 C 136 8 97 29 66 71 C 34 113 19 173 19 249 C 19 289 23 324 32 355 C 41 386 53 412 68 433 C 82 454 100 470 120 481 C 140 492 160 498 182 498 C 209 498 232 490 250 476 C 268 462 282 446 291 428 L 291 494 L 399 494 L 399 13 C 399 -23 393 -54 381 -81 C 369 -107 354 -129 336 -146 C 317 -162 295 -175 271 -183 C 247 -191 222 -195 198 -195 C 162 -195 132 -191 108 -184 C 84 -176 66 -168 54 -160 L 87 -75 C 101 -81 116 -87 132 -91 C 148 -95 168 -97 191 -97 C 220 -97 243 -87 261 -67 C 278 -47 287 -19 287 17 L 287 77 C 279 58 267 42 249 28 C 231 14 209 8 183 8 Z M 217 97 C 239 97 257 109 271 133 C 284 157 291 197 291 254 C 291 308 283 346 267 369 C 251 391 234 403 216 403 C 193 403 175 390 162 365 C 149 340 143 302 143 252 C 143 201 149 162 161 136 C 173 110 191 97 217 97 Z" unicode="g" />
<glyph horiz-adv-x="419" d="M 386 0 L 267 0 L 267 340 C 267 360 262 374 253 384 C 243 394 230 399 214 399 C 197 399 183 393 171 383 C 159 373 153 354 153 327 L 153 0 L 35 0 L 35 795 L 146 795 L 146 436 C 152 454 165 469 183 481 C 201 493 226 500 258 500 C 296 500 326 490 350 470 C 374 450 386 418 386 374 L 386 0 Z" unicode="h" />
<glyph horiz-adv-x="192" d="M 35 565 L 35 673 L 157 673 L 157 565 L 35 565 Z M 37 0 L 37 494 L 155 494 L 155 0 L 37 0 Z" unicode="i" />
<glyph horiz-adv-x="193" d="M 160 565 L 38 565 L 38 673 L 160 673 L 160 565 Z M 158 494 L 158 -71 C 158 -103 147 -130 125 -153 C 103 -175 75 -187 39 -187 C 22 -187 6 -184 -9 -180 C -24 -175 -34 -171 -39 -167 L -12 -84 C -9 -84 -5 -85 -1 -87 C 2 -88 7 -89 13 -89 C 21 -89 27 -86 32 -80 C 37 -74 40 -66 40 -56 L 40 494 L 158 494 Z" unicode="j" />
<glyph horiz-adv-x="397" d="M 407 1 L 281 0 L 190 183 L 153 127 L 153 0 L 35 0 L 35 795 L 146 795 L 146 267 L 278 494 L 398 494 L 270 277 L 407 1 Z" unicode="k" />
<glyph horiz-adv-x="188" d="M 153 795 L 153 0 L 35 0 L 35 795 L 153 795 Z" unicode="l" />
<glyph horiz-adv-x="645" d="M 35 0 L 35 494 L 140 494 L 140 425 C 147 451 162 470 185 482 C 207 494 233 500 263 500 C 293 500 318 493 336 480 C 354 466 366 448 371 424 L 375 424 C 382 447 396 465 416 479 C 436 493 462 500 495 500 C 528 500 556 490 578 472 C 600 453 611 423 611 381 L 611 0 L 494 0 L 494 329 C 494 356 488 375 478 385 C 468 395 454 400 438 400 C 423 400 410 394 398 383 C 386 372 381 351 381 320 L 381 0 L 264 0 L 264 333 C 264 361 259 379 249 387 C 239 395 226 400 212 400 C 197 400 183 394 170 383 C 157 372 151 351 151 321 L 151 0 L 35 0 Z" unicode="m" />
<glyph horiz-adv-x="419" d="M 386 0 L 267 0 L 267 344 C 267 362 262 375 253 385 C 243 394 231 399 215 399 C 197 399 183 393 171 383 C 159 373 153 354 153 328 L 153 0 L 35 0 L 35 494 L 142 494 L 142 429 C 150 449 163 466 183 480 C 203 493 229 500 262 500 C 299 500 329 490 352 472 C 374 453 386 423 386 381 L 386 0 Z" unicode="n" />
<glyph horiz-adv-x="421" d="M 210 -5 C 154 -5 108 16 72 58 C 36 100 18 163 18 246 C 18 322 35 384 69 430 C 103 476 149 499 205 499 C 265 499 313 478 349 436 C 385 394 404 335 404 259 C 404 178 386 114 352 66 C 317 18 270 -5 210 -5 Z M 211 88 C 233 88 250 100 262 124 C 273 148 279 190 279 250 C 279 308 273 349 261 371 C 249 393 231 404 209 404 C 187 404 171 392 159 370 C 147 348 142 308 142 250 C 142 186 148 143 161 121 C 173 99 190 88 211 88 Z" unicode="o" />
<glyph horiz-adv-x="424" d="M 35 -200 L 35 494 L 140 494 L 140 411 C 146 432 160 452 182 470 C 203 488 229 498 260 498 C 308 498 344 476 369 434 C 393 391 406 335 406 266 C 406 180 391 114 363 67 C 335 19 297 -4 249 -4 C 225 -4 204 0 186 10 C 167 19 154 31 146 45 L 146 -200 L 35 -200 Z M 208 83 C 230 83 248 95 261 119 C 274 143 281 183 281 240 C 281 292 275 332 264 359 C 253 385 235 399 211 399 C 202 399 193 396 185 392 C 177 387 169 379 163 367 C 156 355 151 338 147 316 C 143 294 142 267 142 234 C 142 202 143 177 147 157 C 150 137 155 122 161 111 C 167 100 174 93 182 89 C 190 85 198 83 208 83 Z" unicode="p" />
<glyph horiz-adv-x="435" d="M 289 -200 L 289 65 C 281 45 267 28 247 15 C 227 2 202 -4 174 -4 C 127 -4 89 18 61 64 C 33 110 19 169 19 242 C 19 325 34 389 65 433 C 95 477 133 499 179 499 C 209 499 234 491 254 475 C 274 459 288 441 297 420 L 297 494 L 400 494 L 400 -200 L 289 -200 Z M 216 86 C 238 86 256 97 270 121 C 283 145 290 187 290 247 C 290 301 283 341 269 365 C 255 389 236 401 214 401 C 192 401 175 388 162 364 C 149 339 143 298 143 242 C 143 194 149 156 162 128 C 175 100 193 86 216 86 Z" unicode="q" />
<glyph horiz-adv-x="314" d="M 320 468 L 283 370 C 273 378 263 384 255 387 C 246 390 236 392 226 392 C 211 392 195 385 178 373 C 161 360 153 333 153 293 L 153 0 L 35 0 L 35 494 L 148 494 L 148 421 C 154 441 166 459 183 475 C 199 491 219 499 242 499 C 260 499 275 495 289 489 C 302 482 312 475 320 468 Z" unicode="r" />
<glyph horiz-adv-x="324" d="M 169 -6 C 134 -6 103 0 75 13 C 47 26 25 43 11 64 L 65 140 C 77 123 91 110 108 101 C 124 92 140 88 155 88 C 167 88 179 92 190 100 C 200 108 206 121 206 137 C 206 153 198 166 184 177 C 170 187 150 200 126 215 C 98 231 75 250 56 273 C 36 295 27 328 27 370 C 27 404 40 435 66 461 C 92 487 125 500 164 500 C 193 500 219 495 242 487 C 264 478 283 467 298 455 L 250 372 C 241 379 229 386 215 393 C 201 400 187 404 175 404 C 161 404 150 400 140 394 C 130 388 126 379 126 367 C 126 353 132 342 145 333 C 157 323 178 310 206 294 C 240 273 265 251 282 228 C 298 205 307 173 307 133 C 307 109 302 88 293 70 C 284 52 273 38 260 27 C 246 16 231 8 215 2 C 199 -3 183 -6 169 -6 Z" unicode="s" />
<glyph horiz-adv-x="246" d="M 223 108 L 247 21 C 240 15 230 9 218 4 C 206 -1 189 -4 168 -4 C 156 -4 143 -1 129 3 C 115 7 102 15 90 26 C 78 36 68 50 60 67 C 52 84 48 105 48 129 L 48 394 L 6 394 L 6 494 L 51 494 L 51 628 L 163 638 L 163 494 L 227 494 L 227 394 L 166 394 L 166 134 C 166 122 168 114 174 108 C 180 102 187 99 196 99 C 200 99 205 99 211 101 C 216 103 220 105 223 108 Z" unicode="t" />
<glyph horiz-adv-x="419" d="M 33 494 L 152 494 L 152 152 C 152 129 157 112 167 102 C 177 91 190 86 207 86 C 223 86 236 92 248 104 C 260 116 266 138 266 170 L 266 494 L 385 494 L 385 0 L 274 0 L 274 58 C 266 40 251 24 231 12 C 211 0 186 -6 158 -6 C 124 -6 95 4 70 25 C 45 46 33 79 33 123 L 33 494 Z" unicode="u" />
<glyph horiz-adv-x="362" d="M 368 494 L 230 -2 L 133 -2 L -6 494 L 116 494 L 188 203 L 259 494 L 368 494 Z" unicode="v" />
<glyph horiz-adv-x="563" d="M 350 -2 L 282 251 L 213 -2 L 120 -2 L -2 494 L 110 494 L 181 177 L 243 426 L 327 426 L 389 178 L 463 494 L 564 494 L 441 -2 L 350 -2 Z" unicode="w" />
<glyph horiz-adv-x="364" d="M 242 0 L 177 135 L 109 0 L 2 0 L 123 245 L 2 494 L 123 494 L 184 368 L 246 494 L 357 494 L 238 257 L 363 0 L 242 0 Z" unicode="x" />
<glyph horiz-adv-x="364" d="M 370 494 L 199 -98 C 189 -131 171 -156 146 -174 C 121 -191 92 -200 60 -200 C 39 -200 21 -197 6 -193 C -8 -188 -19 -183 -25 -179 L 13 -92 C 15 -94 21 -97 30 -100 C 39 -103 48 -105 56 -105 C 68 -105 79 -100 87 -91 C 95 -82 102 -68 107 -50 L 130 41 L -6 494 L 117 494 L 190 204 L 260 494 L 370 494 Z" unicode="y" />
<glyph horiz-adv-x="339" d="M 324 494 L 324 442 L 158 99 L 330 99 L 330 0 L 10 0 L 10 42 L 185 394 L 22 394 L 22 494 L 324 494 Z" unicode="z" />
<glyph horiz-adv-x="265" d="M 246 -179 C 216 -179 187 -174 161 -166 C 135 -158 112 -146 93 -132 C 73 -118 58 -101 47 -83 C 36 -64 31 -44 31 -24 C 31 0 33 23 39 44 C 44 65 50 83 57 99 C 63 115 70 129 76 143 C 82 157 86 170 86 183 C 86 197 78 210 64 223 C 50 235 33 242 15 242 L 15 329 C 33 329 50 335 65 349 C 80 363 88 378 88 395 C 88 398 84 407 78 423 C 72 439 65 456 57 475 C 49 493 42 510 38 528 C 34 546 32 563 32 580 C 32 600 37 621 48 641 C 59 661 74 679 93 695 C 112 711 135 724 161 734 C 187 744 215 749 246 749 L 246 660 C 223 660 201 651 181 633 C 161 615 151 593 151 567 C 151 558 152 547 154 534 C 156 521 160 508 166 496 C 175 476 183 457 191 441 C 198 425 202 411 202 400 C 202 374 194 351 180 330 C 165 308 143 293 115 285 C 145 276 167 261 181 239 C 195 217 202 196 202 174 C 202 156 198 140 192 127 C 185 113 178 100 172 87 C 164 73 159 59 155 44 C 151 29 150 15 150 3 C 150 -17 159 -38 179 -59 C 198 -79 220 -90 246 -90 L 246 -179 Z" unicode="{" />
<glyph horiz-adv-x="234" d="M 174 -179 L 60 -179 L 60 730 L 174 730 L 174 -179 Z" unicode="|" />
<glyph horiz-adv-x="265" d="M 19 -179 L 19 -90 C 44 -90 66 -79 85 -59 C 104 -38 114 -17 114 3 C 114 15 112 29 108 44 C 104 59 99 73 93 87 C 86 100 79 113 72 127 C 65 140 62 156 62 174 C 62 196 69 217 83 239 C 97 261 118 276 146 285 C 118 293 97 308 83 330 C 69 351 62 374 62 400 C 62 411 65 425 73 441 C 81 457 89 476 98 496 C 104 508 108 521 110 534 C 112 547 113 558 113 567 C 113 593 103 615 83 633 C 63 651 41 660 19 660 L 19 749 C 49 749 77 744 103 734 C 129 724 151 711 170 695 C 189 679 204 661 215 641 C 226 621 232 600 232 580 C 232 563 230 546 226 528 C 222 510 216 493 208 475 C 200 456 192 439 186 423 C 179 407 176 398 176 395 C 176 378 183 363 199 349 C 214 335 231 329 250 329 L 250 242 C 231 242 214 235 200 223 C 186 210 179 197 179 183 C 179 170 182 157 188 143 C 194 129 201 115 208 99 C 214 83 220 65 225 44 C 230 23 233 0 233 -24 C 233 -44 227 -64 216 -83 C 205 -101 190 -118 171 -132 C 152 -146 129 -158 103 -166 C 77 -174 49 -179 19 -179 Z" unicode="}" />
<glyph horiz-adv-x="457" d="M 344 452 L 434 452 C 432 404 423 363 407 331 C 391 298 364 282 328 282 C 304 282 283 286 265 295 C 247 303 232 313 221 324 C 209 334 199 344 189 352 C 179 360 168 365 156 365 C 144 365 134 357 125 341 C 115 325 111 307 111 285 L 23 285 C 23 335 32 376 50 407 C 68 438 96 454 134 454 C 157 454 178 448 197 437 C 215 426 230 415 242 405 C 254 395 265 387 274 379 C 283 371 293 368 304 368 C 320 368 331 375 336 390 C 341 404 344 425 344 452 Z" unicode="~" />
<glyph horiz-adv-x="258" d="M 70 592 L 189 592 L 189 465 L 70 465 L 70 592 Z M 63 179 L 105 386 L 156 386 L 195 179 L 195 -115 L 63 -115 L 63 179 Z" unicode="¡" />
<glyph horiz-adv-x="371" d="M 367 123 C 356 111 341 98 322 85 C 302 72 276 64 244 61 L 244 -48 L 172 -48 L 172 62 C 121 71 82 96 56 136 C 30 176 17 225 17 281 C 17 334 29 381 55 423 C 81 464 120 490 172 501 L 172 608 L 244 608 L 244 504 C 272 501 296 495 315 485 C 333 475 349 464 361 453 L 307 367 C 297 375 285 382 273 388 C 261 393 245 396 227 396 C 200 396 179 386 164 366 C 149 346 142 318 142 283 C 142 239 151 208 171 189 C 190 170 213 161 240 161 C 260 161 276 164 288 171 C 300 178 311 186 320 195 L 367 123 Z" unicode="¢" />
<glyph horiz-adv-x="479" d="M 461 99 L 461 0 L 14 0 L 14 84 C 18 87 26 90 37 93 C 48 95 63 99 82 103 C 108 107 130 118 147 136 C 164 153 173 176 173 204 L 32 204 L 32 289 L 145 289 C 141 296 136 304 132 312 C 128 320 123 328 119 337 L 32 337 L 32 422 L 81 422 C 74 440 69 460 65 481 C 61 501 59 523 59 546 C 59 582 65 612 77 638 C 89 663 104 683 124 699 C 144 714 166 725 192 732 C 218 738 244 742 271 742 C 289 742 307 739 326 735 C 345 730 363 724 380 717 C 396 710 411 702 425 694 C 438 685 448 677 455 669 L 402 576 C 391 586 375 598 353 612 C 331 626 308 633 284 633 C 273 633 262 631 251 627 C 239 623 229 617 220 609 C 210 600 203 589 197 575 C 191 561 188 543 188 523 C 188 506 190 489 195 472 C 199 455 205 438 212 422 L 417 422 L 417 337 L 252 337 C 255 329 258 321 262 313 C 265 305 268 297 271 289 L 417 289 L 417 204 L 279 204 C 274 172 264 148 250 132 C 236 116 223 105 211 99 L 461 99 Z" unicode="£" />
<glyph horiz-adv-x="502" d="M 250 180 C 234 180 218 182 203 186 C 188 190 174 195 161 203 L 102 141 L 50 194 L 106 251 C 95 265 86 281 80 299 C 74 317 71 335 71 354 C 71 373 74 391 80 409 C 86 427 95 443 106 458 L 50 516 L 101 566 L 161 505 C 173 512 187 518 202 522 C 217 526 233 528 250 528 C 266 528 282 525 298 521 C 314 517 328 511 341 504 L 402 567 L 453 515 L 395 456 C 405 441 414 425 420 408 C 426 390 429 372 429 354 C 429 334 425 316 419 298 C 413 280 404 264 394 250 L 449 192 L 399 142 L 340 203 C 326 195 312 190 297 186 C 282 182 266 180 250 180 Z M 250 264 C 276 264 298 272 317 290 C 336 308 346 329 346 354 C 346 378 336 399 317 417 C 298 435 276 444 250 444 C 223 444 200 435 182 417 C 164 399 155 378 155 354 C 155 329 164 308 182 290 C 200 272 223 264 250 264 Z" unicode="¤" />
<glyph horiz-adv-x="472" d="M 439 117 L 300 117 L 300 0 L 170 0 L 170 117 L 34 117 L 34 202 L 170 202 L 170 246 L 34 246 L 34 331 L 165 331 L -1 730 L 128 730 L 238 441 L 353 730 L 474 730 L 306 331 L 439 331 L 439 246 L 300 246 L 300 202 L 439 202 L 439 117 Z" unicode="¥" />
<glyph horiz-adv-x="275" d="M 86 351 L 86 730 L 189 730 L 189 351 L 86 351 Z M 189 200 L 189 -179 L 86 -179 L 86 200 L 189 200 Z" unicode="¦" />
<glyph horiz-adv-x="555" d="M 297 -181 C 247 -181 200 -174 156 -161 C 112 -147 75 -130 44 -108 L 84 -9 C 112 -29 144 -47 180 -61 C 216 -75 249 -83 279 -83 C 305 -83 325 -75 340 -61 C 355 -47 363 -27 363 -2 C 363 21 356 39 344 51 C 331 63 310 76 282 90 L 201 132 C 171 145 146 157 124 169 C 102 180 85 192 71 206 C 57 219 46 234 40 252 C 33 270 30 292 30 318 C 30 348 36 374 50 395 C 63 415 80 433 100 447 C 83 459 71 476 63 496 C 55 516 51 541 51 570 C 51 597 56 621 68 643 C 79 664 95 682 115 697 C 135 711 158 722 186 730 C 214 738 243 742 275 742 C 329 742 373 733 409 717 C 444 701 472 683 493 665 L 435 574 C 410 594 385 611 361 626 C 336 640 307 648 273 648 C 243 648 220 641 202 627 C 184 613 175 594 175 570 C 175 551 182 535 197 523 C 211 510 234 497 265 484 L 368 431 C 417 410 454 387 480 362 C 505 337 518 302 518 258 C 518 226 507 200 487 178 C 467 156 444 144 418 140 C 434 129 450 112 468 88 C 485 64 494 35 494 0 C 494 -28 489 -53 479 -76 C 469 -98 455 -117 437 -133 C 419 -148 398 -160 374 -168 C 350 -176 324 -181 297 -181 Z M 328 191 C 342 193 356 199 369 209 C 381 218 388 233 388 253 C 388 272 380 289 365 303 C 349 317 324 331 290 347 L 196 395 C 183 388 172 380 163 370 C 154 360 150 346 150 328 C 150 306 157 289 173 276 C 189 263 215 248 251 232 L 328 191 Z" unicode="§" />
<glyph horiz-adv-x="500" d="M 378 555 L 282 555 L 282 715 L 378 715 L 378 555 Z M 218 555 L 122 555 L 122 715 L 218 715 L 218 555 Z" unicode="¨" />
<glyph horiz-adv-x="822" d="M 411 11 C 361 11 313 20 269 40 C 224 59 185 85 152 118 C 119 151 93 190 74 235 C 54 279 45 327 45 377 C 45 427 54 474 74 519 C 93 563 119 602 152 635 C 185 667 224 693 269 713 C 313 732 361 742 411 742 C 461 742 508 732 553 713 C 597 693 636 667 669 635 C 702 602 728 563 748 519 C 767 474 777 427 777 377 C 777 327 767 279 748 235 C 728 190 702 151 669 118 C 636 85 597 59 553 40 C 508 20 461 11 411 11 Z M 411 82 C 451 82 488 89 524 105 C 560 121 591 142 618 168 C 644 194 665 226 681 262 C 696 298 704 336 704 376 C 704 416 696 454 681 490 C 665 526 644 557 618 583 C 591 609 560 630 524 646 C 488 662 451 670 411 670 C 371 670 333 662 297 646 C 261 630 229 609 203 583 C 177 557 156 526 141 490 C 125 454 118 416 118 376 C 118 336 125 298 141 262 C 156 226 177 194 203 168 C 229 142 261 121 297 105 C 333 89 371 82 411 82 Z M 580 250 C 564 225 542 204 514 187 C 486 169 451 161 409 161 C 383 161 358 165 334 175 C 310 184 289 197 271 215 C 253 233 238 255 228 282 C 217 308 212 339 212 374 C 212 409 217 440 227 468 C 237 496 250 519 268 538 C 286 557 306 572 330 582 C 354 592 379 597 406 597 C 450 597 485 589 513 573 C 541 557 562 538 577 514 L 500 456 C 490 470 478 481 464 491 C 450 500 431 505 409 505 C 380 505 356 492 337 468 C 318 443 309 412 309 374 C 309 334 319 303 340 281 C 361 259 385 248 411 248 C 432 248 451 253 467 263 C 483 273 496 285 506 301 L 580 250 Z" unicode="©" />
<glyph horiz-adv-x="431" d="M 388 325 L 293 325 L 293 378 C 280 359 262 345 239 335 C 216 325 191 320 163 320 C 123 320 91 331 68 354 C 45 377 34 409 34 449 C 34 492 50 524 83 546 C 115 568 161 580 219 583 L 288 588 L 288 597 C 288 616 281 630 269 639 C 257 648 238 653 214 653 C 193 653 172 649 152 642 C 131 635 112 625 96 613 L 55 684 C 75 700 100 713 131 725 C 162 736 197 742 235 742 C 283 742 320 730 347 707 C 374 684 388 647 388 595 L 388 325 Z M 290 443 L 290 511 L 214 508 C 190 507 171 502 156 493 C 141 483 134 469 134 450 C 134 435 139 423 151 415 C 163 406 178 402 197 402 C 215 402 233 405 250 413 C 266 420 280 430 290 443 Z M 390 198 L 42 198 L 42 287 L 390 287 L 390 198 Z" unicode="ª" />
<glyph horiz-adv-x="459" d="M 221 86 L 26 256 L 26 325 L 221 493 L 221 377 L 130 288 L 221 205 L 221 86 Z M 431 86 L 235 256 L 235 325 L 431 493 L 431 377 L 340 288 L 431 206 L 431 86 Z" unicode="«" />
<glyph horiz-adv-x="481" d="M 441 403 L 441 144 L 343 144 L 343 304 L 29 304 L 29 403 L 441 403 Z" unicode="¬" />
<glyph horiz-adv-x="822" d="M 411 11 C 361 11 313 20 269 40 C 224 59 185 85 152 118 C 119 151 93 190 74 235 C 54 279 45 327 45 377 C 45 427 54 474 74 519 C 93 563 119 602 152 635 C 185 667 224 693 269 713 C 313 732 361 742 411 742 C 461 742 508 732 553 713 C 597 693 636 667 669 635 C 702 602 728 563 748 519 C 767 474 777 427 777 377 C 777 327 767 279 748 235 C 728 190 702 151 669 118 C 636 85 597 59 553 40 C 508 20 461 11 411 11 Z M 411 82 C 451 82 489 89 525 104 C 561 118 592 139 618 165 C 644 191 665 222 681 258 C 696 294 704 333 704 376 C 704 418 696 458 681 494 C 665 530 644 561 618 587 C 592 613 561 633 525 648 C 489 662 451 670 411 670 C 371 670 333 662 297 647 C 261 632 229 611 203 585 C 177 559 156 528 141 492 C 125 456 118 417 118 376 C 118 334 125 296 141 260 C 156 224 177 192 203 166 C 229 140 261 119 297 104 C 333 89 371 82 411 82 Z M 270 170 L 270 598 L 431 598 C 449 598 466 595 484 591 C 501 586 517 579 531 569 C 545 559 556 546 564 531 C 572 516 577 498 577 478 C 577 440 566 412 546 393 C 526 374 505 363 483 360 L 483 356 L 612 170 L 513 170 L 404 331 L 357 331 L 357 170 L 270 170 Z M 356 404 L 429 404 C 443 404 457 409 470 419 C 483 429 490 444 491 466 C 491 487 484 502 470 510 C 456 518 439 522 421 522 L 356 522 L 356 404 Z" unicode="®" />
<glyph horiz-adv-x="500" d="M 379 569 L 121 569 L 121 661 L 379 661 L 379 569 Z" unicode="¯" />
<glyph horiz-adv-x="419" d="M 209 383 C 184 383 161 387 139 397 C 117 406 98 419 82 435 C 66 451 53 471 44 493 C 34 515 30 538 30 563 C 30 587 34 610 44 632 C 53 654 66 673 82 689 C 98 705 117 718 139 728 C 161 737 184 742 209 742 C 233 742 257 737 279 728 C 301 718 320 705 336 689 C 352 673 365 654 375 632 C 384 610 389 587 389 563 C 389 538 384 515 375 493 C 365 471 352 451 336 435 C 320 419 301 406 279 397 C 257 387 233 383 209 383 Z M 209 470 C 234 470 256 479 275 497 C 294 515 304 537 304 563 C 304 588 294 610 275 628 C 256 646 234 656 209 656 C 184 656 162 646 143 628 C 124 610 115 588 115 563 C 115 537 124 515 143 497 C 162 479 184 470 209 470 Z" unicode="°" />
<glyph horiz-adv-x="481" d="M 456 110 L 456 19 L 27 19 L 27 110 L 193 110 L 193 284 L 22 284 L 22 375 L 193 375 L 193 554 L 289 554 L 289 375 L 459 375 L 459 284 L 289 284 L 289 110 L 456 110 Z" unicode="±" />
<glyph horiz-adv-x="348" d="M 316 372 L 24 372 L 24 406 L 180 566 C 186 572 191 579 196 587 C 200 595 203 605 203 617 C 203 627 199 637 192 646 C 184 654 173 659 158 659 C 140 659 127 653 121 642 C 114 631 110 618 110 604 L 20 604 C 20 642 33 675 60 701 C 86 727 123 741 170 741 C 215 741 249 731 272 711 C 294 691 306 666 306 638 C 306 611 301 589 292 572 C 282 554 272 540 262 529 L 187 453 L 316 453 L 316 372 Z" unicode="²" />
<glyph horiz-adv-x="346" d="M 230 569 C 256 564 276 553 292 537 C 307 520 315 500 315 477 C 315 465 312 452 308 439 C 303 426 295 414 283 403 C 271 391 256 382 236 375 C 216 367 191 364 161 364 C 117 364 84 369 60 379 C 36 389 18 400 6 410 L 57 464 C 67 457 80 451 95 445 C 110 439 129 437 151 437 C 178 437 197 442 208 452 C 219 462 225 474 225 490 C 225 506 217 516 203 521 C 189 525 172 528 152 528 L 81 528 L 81 598 L 146 598 C 164 598 178 600 190 606 C 201 612 207 621 207 633 C 207 643 202 651 193 657 C 183 663 170 666 152 666 C 135 666 119 662 103 656 C 87 650 75 643 67 635 L 18 687 C 30 699 48 712 70 724 C 92 736 125 742 167 742 C 207 742 239 733 263 717 C 287 701 300 678 300 650 C 300 629 292 611 278 597 C 264 583 248 573 230 569 Z" unicode="³" />
<glyph horiz-adv-x="500" d="M 140 554 L 229 728 L 366 728 L 254 554 L 140 554 Z" unicode="´" />
<glyph horiz-adv-x="585" d="M 61 -98 L 61 509 L 179 509 L 179 169 C 179 144 189 124 211 110 C 232 95 256 88 283 88 C 312 88 339 96 363 112 C 387 128 400 152 400 183 L 400 509 L 519 509 L 519 0 L 409 0 L 409 87 C 399 63 379 42 351 24 C 322 5 292 -4 262 -5 C 243 -5 225 -1 207 6 C 189 13 176 24 170 38 L 170 -98 L 61 -98 Z" unicode="µ" />
<glyph horiz-adv-x="580" d="M 538 -181 L 461 -179 L 461 635 L 390 635 L 390 -179 L 312 -179 L 312 286 L 241 286 C 212 286 184 291 158 303 C 131 315 107 331 87 351 C 67 371 50 394 38 421 C 26 447 20 475 20 505 C 20 537 25 566 37 594 C 49 621 65 645 86 665 C 106 685 131 701 161 713 C 191 724 223 730 259 730 L 538 730 L 538 -181 Z M 313 385 L 313 631 L 288 631 C 248 631 216 619 191 596 C 166 572 154 543 154 508 C 154 474 166 445 191 421 C 216 397 246 385 280 385 L 313 385 Z" unicode="¶" />
<glyph horiz-adv-x="274" d="M 198 263 L 77 263 L 77 410 L 198 410 L 198 263 Z" unicode="·" />
<glyph horiz-adv-x="500" d="M 252 -182 C 230 -182 208 -179 188 -173 C 168 -167 151 -159 139 -149 L 160 -105 C 167 -109 177 -114 190 -120 C 202 -126 216 -129 231 -129 C 241 -129 250 -126 258 -121 C 266 -116 270 -109 270 -101 C 270 -91 266 -83 259 -79 C 252 -75 245 -73 237 -73 C 230 -73 224 -73 220 -74 C 215 -75 210 -77 206 -79 L 191 -59 L 248 14 L 308 14 L 264 -42 C 290 -39 313 -43 331 -54 C 349 -65 358 -82 358 -105 C 358 -129 347 -147 327 -161 C 306 -175 281 -182 252 -182 Z" unicode="¸" />
<glyph horiz-adv-x="318" d="M 133 372 L 133 623 C 129 617 123 612 115 608 C 107 603 99 599 91 595 C 82 591 73 588 65 586 C 56 584 49 582 44 582 L 44 678 C 68 680 90 686 109 696 C 127 706 147 720 168 740 L 236 740 L 236 372 L 133 372 Z" unicode="¹" />
<glyph horiz-adv-x="411" d="M 202 318 C 178 318 156 322 134 332 C 112 341 93 354 77 372 C 61 390 48 412 38 438 C 28 464 23 493 23 527 C 23 556 28 584 38 610 C 48 636 61 658 77 677 C 93 696 113 711 135 722 C 157 733 179 739 203 739 C 229 739 253 734 276 725 C 298 715 318 702 334 685 C 350 667 363 646 373 621 C 383 596 388 568 388 537 C 388 505 383 475 373 448 C 363 421 349 398 332 379 C 315 359 295 344 273 334 C 250 323 226 318 202 318 Z M 204 404 C 231 404 252 416 268 440 C 283 464 291 495 291 533 C 291 567 283 596 269 618 C 255 640 234 651 207 651 C 180 651 159 639 143 616 C 127 592 120 561 120 521 C 120 485 127 456 143 435 C 158 414 178 404 204 404 Z M 36 198 L 36 287 L 375 287 L 375 198 L 36 198 Z" unicode="º" />
<glyph horiz-adv-x="459" d="M 28 494 L 224 323 L 224 255 L 28 87 L 28 202 L 119 291 L 28 374 L 28 494 Z M 238 494 L 433 323 L 433 255 L 238 87 L 238 202 L 329 291 L 238 374 L 238 494 Z" unicode="»" />
<glyph horiz-adv-x="707" d="M 12 0 L 12 0 Z M 101 372 L 101 623 C 97 617 91 612 83 608 C 75 603 67 599 59 595 C 50 591 41 588 33 586 C 24 584 17 582 12 582 L 12 678 C 36 680 58 686 77 696 C 95 706 115 720 136 740 L 204 740 L 204 372 L 101 372 Z M 585 730 L 230 0 L 133 0 L 488 730 L 585 730 Z M 391 80 L 391 147 L 573 364 L 638 364 L 638 151 L 695 151 L 695 80 L 638 80 L 638 1 L 546 1 L 546 80 L 391 80 Z M 481 147 L 548 147 L 548 231 L 481 147 Z" unicode="¼" />
<glyph horiz-adv-x="781" d="M 12 0 L 12 0 Z M 101 372 L 101 623 C 97 617 91 612 83 608 C 75 603 67 599 59 595 C 50 591 41 588 33 586 C 24 584 17 582 12 582 L 12 678 C 36 680 58 686 77 696 C 95 706 115 720 136 740 L 204 740 L 204 372 L 101 372 Z M 585 730 L 230 0 L 133 0 L 488 730 L 585 730 Z M 754 0 L 462 0 L 462 34 L 618 194 C 624 200 629 207 634 215 C 638 223 641 233 641 245 C 641 255 637 265 630 274 C 622 282 611 287 596 287 C 578 287 565 281 559 270 C 552 259 548 246 548 232 L 458 232 C 458 270 471 303 498 329 C 524 355 561 369 608 369 C 653 369 687 359 710 339 C 732 319 744 294 744 266 C 744 239 739 217 730 200 C 720 182 710 168 700 157 L 625 81 L 754 81 L 754 0 Z" unicode="½" />
<glyph horiz-adv-x="763" d="M 12 0 L 12 0 Z M 641 730 L 286 0 L 189 0 L 544 730 L 641 730 Z M 447 80 L 447 147 L 629 364 L 694 364 L 694 151 L 751 151 L 751 80 L 694 80 L 694 1 L 602 1 L 602 80 L 447 80 Z M 537 147 L 604 147 L 604 231 L 537 147 Z M 236 569 C 262 564 282 553 298 537 C 313 520 321 500 321 477 C 321 465 318 452 314 439 C 309 426 301 414 289 403 C 277 391 262 382 242 375 C 222 367 197 364 167 364 C 123 364 90 369 66 379 C 42 389 24 400 12 410 L 63 464 C 73 457 86 451 101 445 C 116 439 135 437 157 437 C 184 437 203 442 214 452 C 225 462 231 474 231 490 C 231 506 223 516 209 521 C 195 525 178 528 158 528 L 87 528 L 87 598 L 152 598 C 170 598 184 600 196 606 C 207 612 213 621 213 633 C 213 643 208 651 199 657 C 189 663 176 666 158 666 C 141 666 125 662 109 656 C 93 650 81 643 73 635 L 24 687 C 36 699 54 712 76 724 C 98 736 131 742 173 742 C 213 742 245 733 269 717 C 293 701 306 678 306 650 C 306 629 298 611 284 597 C 270 583 254 573 236 569 Z" unicode="¾" />
<glyph horiz-adv-x="433" d="M 162 460 L 162 592 L 293 592 L 293 460 L 162 460 Z M 215 -150 C 152 -150 104 -133 72 -100 C 40 -67 24 -24 24 30 C 24 80 35 122 57 156 C 79 190 102 223 128 255 C 143 271 154 291 161 313 C 167 335 171 356 172 375 L 288 375 C 288 339 282 307 270 279 C 258 251 242 224 221 198 C 204 176 188 154 173 130 C 158 106 151 79 151 49 C 151 20 159 -2 176 -18 C 193 -34 214 -43 240 -43 C 262 -43 282 -36 299 -24 C 316 -11 331 4 343 23 L 416 -47 C 391 -81 361 -107 325 -124 C 289 -141 253 -150 215 -150 Z" unicode="¿" />
<glyph horiz-adv-x="493" d="M 0 0 L 0 0 Z M 494 0 L 371 0 L 330 154 L 157 154 L 118 0 L -1 0 L 201 734 L 292 734 L 494 0 Z M 313 253 L 243 509 L 174 253 L 313 253 Z M 244 790 L 244 790 Z M 356 790 L 242 790 L 130 964 L 267 964 L 356 790 Z" unicode="À" />
<glyph horiz-adv-x="493" d="M 0 0 L 0 0 Z M 494 0 L 371 0 L 330 154 L 157 154 L 118 0 L -1 0 L 201 734 L 292 734 L 494 0 Z M 313 253 L 243 509 L 174 253 L 313 253 Z M 244 790 L 244 790 Z M 131 790 L 220 964 L 357 964 L 245 790 L 131 790 Z" unicode="Á" />
<glyph horiz-adv-x="493" d="M 0 0 L 0 0 Z M 494 0 L 371 0 L 330 154 L 157 154 L 118 0 L -1 0 L 201 734 L 292 734 L 494 0 Z M 313 253 L 243 509 L 174 253 L 313 253 Z M 244 791 L 244 791 Z M 393 791 L 296 791 L 244 882 L 191 791 L 96 791 L 194 964 L 295 964 L 393 791 Z" unicode="Â" />
<glyph horiz-adv-x="493" d="M 0 0 L 0 0 Z M 494 0 L 371 0 L 330 154 L 157 154 L 118 0 L -1 0 L 201 734 L 292 734 L 494 0 Z M 313 253 L 243 509 L 174 253 L 313 253 Z M 244 795 L 244 795 Z M 320 942 L 408 942 C 408 892 400 855 386 831 C 371 807 352 795 330 795 C 310 795 294 798 281 805 C 267 811 256 817 248 823 C 239 827 230 832 222 838 C 214 843 205 846 197 846 C 189 846 182 841 176 833 C 170 824 168 812 168 798 L 81 798 C 81 848 90 885 108 909 C 126 933 146 946 168 946 C 185 946 200 942 212 936 C 224 929 235 922 245 916 C 253 910 261 905 268 901 C 275 897 282 895 290 895 C 296 895 303 899 310 907 C 316 915 320 926 320 942 Z" unicode="Ã" />
<glyph horiz-adv-x="493" d="M 0 0 L 0 0 Z M 494 0 L 371 0 L 330 154 L 157 154 L 118 0 L -1 0 L 201 734 L 292 734 L 494 0 Z M 313 253 L 243 509 L 174 253 L 313 253 Z M 244 791 L 244 791 Z M 372 791 L 276 791 L 276 951 L 372 951 L 372 791 Z M 212 791 L 116 791 L 116 951 L 212 951 L 212 791 Z" unicode="Ä" />
<glyph horiz-adv-x="493" d="M 0 0 L 0 0 Z M 494 0 L 371 0 L 330 154 L 157 154 L 118 0 L -1 0 L 201 734 L 292 734 L 494 0 Z M 313 253 L 243 509 L 174 253 L 313 253 Z M 244 777 L 244 777 Z M 244 777 C 210 777 181 788 158 812 C 134 836 123 865 123 899 C 123 932 134 960 158 984 C 181 1008 210 1020 244 1020 C 278 1020 306 1008 330 984 C 354 960 366 932 366 899 C 366 865 354 836 330 812 C 306 788 278 777 244 777 Z M 244 843 C 259 843 272 848 282 859 C 292 869 298 883 298 899 C 298 914 292 927 282 938 C 272 948 259 954 244 954 C 229 954 216 948 206 938 C 196 927 191 914 191 899 C 191 883 196 869 206 859 C 216 848 229 843 244 843 Z" unicode="Å" />
<glyph horiz-adv-x="740" d="M 730 0 L 394 0 L 394 173 L 196 173 L 119 0 L -1 0 L 314 730 L 711 730 L 711 621 L 513 621 L 513 417 L 702 417 L 702 309 L 513 309 L 513 109 L 730 109 L 730 0 Z M 394 269 L 394 647 L 231 269 L 394 269 Z" unicode="Æ" />
<glyph horiz-adv-x="512" d="M 29 0 L 29 0 Z M 277 -7 C 203 -7 144 24 98 86 C 52 148 29 241 29 366 C 29 482 50 572 93 638 C 135 704 197 737 279 737 C 344 737 392 721 423 690 C 454 658 476 619 489 573 L 376 538 C 367 562 356 583 343 600 C 329 617 309 626 281 626 C 243 626 213 607 191 569 C 169 531 158 462 158 362 C 158 311 161 269 169 236 C 177 202 187 176 199 157 C 211 137 225 124 241 116 C 257 108 273 104 290 104 C 320 104 343 112 358 128 C 372 144 384 165 394 193 L 496 155 C 479 104 453 64 417 36 C 381 7 334 -7 277 -7 Z M 272 0 L 272 0 Z M 276 -182 C 254 -182 232 -179 212 -173 C 192 -167 175 -159 163 -149 L 184 -105 C 191 -109 201 -114 214 -120 C 226 -126 240 -129 255 -129 C 265 -129 274 -126 282 -121 C 290 -116 294 -109 294 -101 C 294 -91 290 -83 283 -79 C 276 -75 269 -73 261 -73 C 254 -73 248 -73 244 -74 C 239 -75 234 -77 230 -79 L 215 -59 L 272 14 L 332 14 L 288 -42 C 314 -39 337 -43 355 -54 C 373 -65 382 -82 382 -105 C 382 -129 371 -147 351 -161 C 330 -175 305 -182 276 -182 Z" unicode="Ç" />
<glyph horiz-adv-x="403" d="M 50 0 L 50 0 Z M 393 0 L 50 0 L 50 730 L 374 730 L 374 617 L 176 617 L 176 420 L 365 420 L 365 309 L 176 309 L 176 113 L 393 113 L 393 0 Z M 210 790 L 210 790 Z M 322 790 L 208 790 L 96 964 L 233 964 L 322 790 Z" unicode="È" />
<glyph horiz-adv-x="403" d="M 50 0 L 50 0 Z M 393 0 L 50 0 L 50 730 L 374 730 L 374 617 L 176 617 L 176 420 L 365 420 L 365 309 L 176 309 L 176 113 L 393 113 L 393 0 Z M 210 790 L 210 790 Z M 97 790 L 186 964 L 323 964 L 211 790 L 97 790 Z" unicode="É" />
<glyph horiz-adv-x="403" d="M 50 0 L 50 0 Z M 393 0 L 50 0 L 50 730 L 374 730 L 374 617 L 176 617 L 176 420 L 365 420 L 365 309 L 176 309 L 176 113 L 393 113 L 393 0 Z M 210 791 L 210 791 Z M 359 791 L 262 791 L 210 882 L 157 791 L 62 791 L 160 964 L 261 964 L 359 791 Z" unicode="Ê" />
<glyph horiz-adv-x="403" d="M 50 0 L 50 0 Z M 393 0 L 50 0 L 50 730 L 374 730 L 374 617 L 176 617 L 176 420 L 365 420 L 365 309 L 176 309 L 176 113 L 393 113 L 393 0 Z M 210 791 L 210 791 Z M 338 791 L 242 791 L 242 951 L 338 951 L 338 791 Z M 178 791 L 82 791 L 82 951 L 178 951 L 178 791 Z" unicode="Ë" />
<glyph horiz-adv-x="237" d="M 5 0 L 5 0 Z M 185 0 L 54 0 L 54 730 L 185 730 L 185 0 Z M 119 790 L 119 790 Z M 231 790 L 117 790 L 5 964 L 142 964 L 231 790 Z" unicode="Ì" />
<glyph horiz-adv-x="237" d="M 6 0 L 6 0 Z M 185 0 L 54 0 L 54 730 L 185 730 L 185 0 Z M 119 790 L 119 790 Z M 6 790 L 95 964 L 232 964 L 120 790 L 6 790 Z" unicode="Í" />
<glyph horiz-adv-x="237" d="M 0 0 L 0 0 Z M 185 0 L 54 0 L 54 730 L 185 730 L 185 0 Z M 119 791 L 119 791 Z M 268 791 L 171 791 L 119 882 L 66 791 L -29 791 L 69 964 L 170 964 L 268 791 Z" unicode="Î" />
<glyph horiz-adv-x="237" d="M 0 0 L 0 0 Z M 185 0 L 54 0 L 54 730 L 185 730 L 185 0 Z M 119 791 L 119 791 Z M 247 791 L 151 791 L 151 951 L 247 951 L 247 791 Z M 87 791 L -9 791 L -9 951 L 87 951 L 87 791 Z" unicode="Ï" />
<glyph horiz-adv-x="543" d="M 514 361 C 514 310 508 263 496 219 C 484 175 465 136 441 104 C 416 72 385 46 348 28 C 310 9 267 0 217 0 L 49 0 L 49 312 L 12 312 L 12 407 L 49 407 L 49 730 L 226 730 C 272 730 314 721 350 703 C 386 685 416 660 440 628 C 464 596 482 557 495 511 C 507 465 514 415 514 361 Z M 178 101 L 224 101 C 282 101 323 123 347 169 C 371 214 383 277 383 359 C 383 454 369 523 342 565 C 314 607 277 629 229 629 L 178 629 L 178 407 L 294 407 L 294 312 L 178 312 L 178 101 Z" unicode="Ð" />
<glyph horiz-adv-x="532" d="M 50 0 L 50 0 Z M 482 0 L 391 0 L 172 436 L 172 0 L 50 0 L 50 730 L 141 730 L 365 295 L 365 730 L 482 730 L 482 0 Z M 266 795 L 266 795 Z M 342 942 L 430 942 C 430 892 422 855 408 831 C 393 807 374 795 352 795 C 332 795 316 798 303 805 C 289 811 278 817 270 823 C 261 827 252 832 244 838 C 236 843 227 846 219 846 C 211 846 204 841 198 833 C 192 824 190 812 190 798 L 103 798 C 103 848 112 885 130 909 C 148 933 168 946 190 946 C 207 946 222 942 234 936 C 246 929 257 922 267 916 C 275 910 283 905 290 901 C 297 897 304 895 312 895 C 318 895 325 899 332 907 C 338 915 342 926 342 942 Z" unicode="Ñ" />
<glyph horiz-adv-x="567" d="M 29 0 L 29 0 Z M 286 -7 C 201 -7 137 25 94 91 C 50 156 29 249 29 371 C 29 485 51 574 95 639 C 139 704 201 737 281 737 C 365 737 429 705 473 641 C 517 577 539 485 539 365 C 539 249 516 158 470 92 C 424 26 363 -7 286 -7 Z M 284 99 C 324 99 354 120 375 163 C 396 205 407 275 407 372 C 407 461 396 526 374 568 C 352 609 322 630 282 630 C 240 630 210 609 190 569 C 170 528 161 460 161 365 C 161 269 171 200 193 160 C 215 119 245 99 284 99 Z M 282 790 L 282 790 Z M 394 790 L 280 790 L 168 964 L 305 964 L 394 790 Z" unicode="Ò" />
<glyph horiz-adv-x="567" d="M 29 0 L 29 0 Z M 286 -7 C 201 -7 137 25 94 91 C 50 156 29 249 29 371 C 29 485 51 574 95 639 C 139 704 201 737 281 737 C 365 737 429 705 473 641 C 517 577 539 485 539 365 C 539 249 516 158 470 92 C 424 26 363 -7 286 -7 Z M 284 99 C 324 99 354 120 375 163 C 396 205 407 275 407 372 C 407 461 396 526 374 568 C 352 609 322 630 282 630 C 240 630 210 609 190 569 C 170 528 161 460 161 365 C 161 269 171 200 193 160 C 215 119 245 99 284 99 Z M 282 790 L 282 790 Z M 169 790 L 258 964 L 395 964 L 283 790 L 169 790 Z" unicode="Ó" />
<glyph horiz-adv-x="567" d="M 29 0 L 29 0 Z M 286 -7 C 201 -7 137 25 94 91 C 50 156 29 249 29 371 C 29 485 51 574 95 639 C 139 704 201 737 281 737 C 365 737 429 705 473 641 C 517 577 539 485 539 365 C 539 249 516 158 470 92 C 424 26 363 -7 286 -7 Z M 284 99 C 324 99 354 120 375 163 C 396 205 407 275 407 372 C 407 461 396 526 374 568 C 352 609 322 630 282 630 C 240 630 210 609 190 569 C 170 528 161 460 161 365 C 161 269 171 200 193 160 C 215 119 245 99 284 99 Z M 282 791 L 282 791 Z M 431 791 L 334 791 L 282 882 L 229 791 L 134 791 L 232 964 L 333 964 L 431 791 Z" unicode="Ô" />
<glyph horiz-adv-x="567" d="M 29 0 L 29 0 Z M 286 -7 C 201 -7 137 25 94 91 C 50 156 29 249 29 371 C 29 485 51 574 95 639 C 139 704 201 737 281 737 C 365 737 429 705 473 641 C 517 577 539 485 539 365 C 539 249 516 158 470 92 C 424 26 363 -7 286 -7 Z M 284 99 C 324 99 354 120 375 163 C 396 205 407 275 407 372 C 407 461 396 526 374 568 C 352 609 322 630 282 630 C 240 630 210 609 190 569 C 170 528 161 460 161 365 C 161 269 171 200 193 160 C 215 119 245 99 284 99 Z M 282 795 L 282 795 Z M 358 942 L 446 942 C 446 892 438 855 424 831 C 409 807 390 795 368 795 C 348 795 332 798 319 805 C 305 811 294 817 286 823 C 277 827 268 832 260 838 C 252 843 243 846 235 846 C 227 846 220 841 214 833 C 208 824 206 812 206 798 L 119 798 C 119 848 128 885 146 909 C 164 933 184 946 206 946 C 223 946 238 942 250 936 C 262 929 273 922 283 916 C 291 910 299 905 306 901 C 313 897 320 895 328 895 C 334 895 341 899 348 907 C 354 915 358 926 358 942 Z" unicode="Õ" />
<glyph horiz-adv-x="567" d="M 29 0 L 29 0 Z M 286 -7 C 201 -7 137 25 94 91 C 50 156 29 249 29 371 C 29 485 51 574 95 639 C 139 704 201 737 281 737 C 365 737 429 705 473 641 C 517 577 539 485 539 365 C 539 249 516 158 470 92 C 424 26 363 -7 286 -7 Z M 284 99 C 324 99 354 120 375 163 C 396 205 407 275 407 372 C 407 461 396 526 374 568 C 352 609 322 630 282 630 C 240 630 210 609 190 569 C 170 528 161 460 161 365 C 161 269 171 200 193 160 C 215 119 245 99 284 99 Z M 282 791 L 282 791 Z M 410 791 L 314 791 L 314 951 L 410 951 L 410 791 Z M 250 791 L 154 791 L 154 951 L 250 951 L 250 791 Z" unicode="Ö" />
<glyph horiz-adv-x="481" d="M 111 136 L 48 200 L 177 329 L 49 456 L 112 521 L 241 393 L 370 521 L 434 456 L 305 329 L 434 200 L 370 133 L 241 265 L 111 136 Z" unicode="×" />
<glyph horiz-adv-x="567" d="M 286 -7 C 250 -7 217 -1 188 11 C 159 23 134 40 114 64 L 66 -9 L 15 24 L 77 118 C 61 149 49 186 41 229 C 33 271 29 319 29 371 C 29 485 51 574 95 639 C 139 704 201 737 281 737 C 315 737 345 731 373 721 C 401 711 425 695 446 675 L 499 755 L 550 722 L 485 624 C 503 593 516 556 525 512 C 534 468 539 419 539 365 C 539 249 516 158 470 92 C 424 26 363 -7 286 -7 Z M 161 365 C 161 343 161 323 162 305 C 163 287 165 270 167 254 L 375 568 C 364 588 351 604 335 614 C 319 624 302 630 282 630 C 240 630 210 609 190 569 C 170 528 161 460 161 365 Z M 407 372 C 407 395 406 417 404 437 C 402 457 400 475 398 492 L 187 174 C 197 147 211 128 227 116 C 243 104 262 99 284 99 C 324 99 354 120 375 163 C 396 205 407 275 407 372 Z" unicode="Ø" />
<glyph horiz-adv-x="536" d="M 47 0 L 47 0 Z M 489 730 L 489 224 C 489 182 482 147 470 118 C 457 88 440 64 419 46 C 398 28 374 14 346 6 C 318 -2 289 -7 260 -7 C 231 -7 204 -2 178 5 C 152 13 130 27 111 45 C 91 63 76 86 64 116 C 52 146 47 182 47 224 L 47 730 L 175 730 L 175 219 C 175 177 183 147 200 130 C 216 113 238 105 264 105 C 290 105 311 113 329 129 C 346 145 355 175 355 219 L 355 730 L 489 730 Z M 265 790 L 265 790 Z M 377 790 L 263 790 L 151 964 L 288 964 L 377 790 Z" unicode="Ù" />
<glyph horiz-adv-x="536" d="M 47 0 L 47 0 Z M 489 730 L 489 224 C 489 182 482 147 470 118 C 457 88 440 64 419 46 C 398 28 374 14 346 6 C 318 -2 289 -7 260 -7 C 231 -7 204 -2 178 5 C 152 13 130 27 111 45 C 91 63 76 86 64 116 C 52 146 47 182 47 224 L 47 730 L 175 730 L 175 219 C 175 177 183 147 200 130 C 216 113 238 105 264 105 C 290 105 311 113 329 129 C 346 145 355 175 355 219 L 355 730 L 489 730 Z M 265 790 L 265 790 Z M 152 790 L 241 964 L 378 964 L 266 790 L 152 790 Z" unicode="Ú" />
<glyph horiz-adv-x="536" d="M 47 0 L 47 0 Z M 489 730 L 489 224 C 489 182 482 147 470 118 C 457 88 440 64 419 46 C 398 28 374 14 346 6 C 318 -2 289 -7 260 -7 C 231 -7 204 -2 178 5 C 152 13 130 27 111 45 C 91 63 76 86 64 116 C 52 146 47 182 47 224 L 47 730 L 175 730 L 175 219 C 175 177 183 147 200 130 C 216 113 238 105 264 105 C 290 105 311 113 329 129 C 346 145 355 175 355 219 L 355 730 L 489 730 Z M 265 791 L 265 791 Z M 414 791 L 317 791 L 265 882 L 212 791 L 117 791 L 215 964 L 316 964 L 414 791 Z" unicode="Û" />
<glyph horiz-adv-x="536" d="M 47 0 L 47 0 Z M 489 730 L 489 224 C 489 182 482 147 470 118 C 457 88 440 64 419 46 C 398 28 374 14 346 6 C 318 -2 289 -7 260 -7 C 231 -7 204 -2 178 5 C 152 13 130 27 111 45 C 91 63 76 86 64 116 C 52 146 47 182 47 224 L 47 730 L 175 730 L 175 219 C 175 177 183 147 200 130 C 216 113 238 105 264 105 C 290 105 311 113 329 129 C 346 145 355 175 355 219 L 355 730 L 489 730 Z M 265 791 L 265 791 Z M 393 791 L 297 791 L 297 951 L 393 951 L 393 791 Z M 233 791 L 137 791 L 137 951 L 233 951 L 233 791 Z" unicode="Ü" />
<glyph horiz-adv-x="471" d="M 0 0 L 0 0 Z M 478 730 L 298 308 L 298 0 L 168 0 L 168 310 L -7 730 L 131 730 L 240 441 L 356 730 L 478 730 Z M 240 790 L 240 790 Z M 127 790 L 216 964 L 353 964 L 241 790 L 127 790 Z" unicode="Ý" />
<glyph horiz-adv-x="460" d="M 50 0 L 50 730 L 180 730 L 180 609 L 245 609 C 273 609 299 604 324 594 C 348 584 369 569 387 550 C 405 531 419 508 429 480 C 439 452 445 421 445 386 C 445 313 425 256 386 215 C 347 174 298 154 238 154 L 180 154 L 180 0 L 50 0 Z M 176 254 L 234 254 C 262 254 284 265 301 288 C 317 310 326 343 326 385 C 326 425 316 455 297 475 C 278 495 257 506 234 506 L 176 506 L 176 254 Z" unicode="Þ" />
<glyph horiz-adv-x="515" d="M 361 -6 C 327 -6 296 0 268 14 C 240 27 219 44 204 64 L 259 139 C 271 123 285 111 301 103 C 316 94 331 90 347 90 C 360 90 372 94 383 102 C 393 110 399 122 399 139 C 399 155 391 169 375 181 C 359 193 339 206 315 222 C 286 240 262 260 244 282 C 225 304 216 334 216 372 C 216 407 225 436 244 459 C 263 481 284 497 307 507 C 312 509 317 517 323 531 C 329 545 332 567 334 598 C 334 633 326 658 310 674 C 294 690 274 698 250 698 C 227 698 208 689 193 673 C 177 656 170 629 170 593 L 170 0 L 50 0 L 50 600 C 50 664 67 713 103 747 C 139 781 187 798 248 798 C 304 798 351 780 388 746 C 424 711 442 661 442 595 C 442 545 434 506 418 478 C 402 450 387 435 371 431 C 355 429 342 424 330 417 C 318 409 313 398 313 382 C 313 366 320 352 335 340 C 349 328 371 312 400 294 C 433 273 458 251 475 228 C 491 205 500 174 500 134 C 500 110 495 89 486 71 C 477 53 466 39 453 28 C 439 16 424 8 408 2 C 391 -3 375 -6 361 -6 Z" unicode="ß" />
<glyph horiz-adv-x="389" d="M 15 0 L 15 0 Z M 356 0 L 252 0 L 252 46 C 237 28 221 15 203 7 C 185 0 162 -5 136 -5 C 100 -5 70 9 48 37 C 26 65 15 103 15 151 C 15 205 30 245 61 270 C 92 294 130 308 174 311 L 244 315 L 244 341 C 244 363 238 380 226 391 C 214 401 196 407 172 407 C 150 407 130 403 114 396 C 98 388 85 381 77 375 L 45 459 C 59 471 79 481 105 490 C 131 499 163 504 203 504 C 246 504 282 491 312 467 C 341 443 356 407 356 360 L 356 0 Z M 246 115 L 246 237 L 199 234 C 179 232 162 225 148 212 C 134 199 127 179 127 152 C 127 127 133 110 145 100 C 157 90 170 85 184 85 C 199 85 211 87 221 93 C 231 99 239 106 246 115 Z M 191 554 L 191 554 Z M 303 554 L 189 554 L 77 728 L 214 728 L 303 554 Z" unicode="à" />
<glyph horiz-adv-x="389" d="M 15 0 L 15 0 Z M 356 0 L 252 0 L 252 46 C 237 28 221 15 203 7 C 185 0 162 -5 136 -5 C 100 -5 70 9 48 37 C 26 65 15 103 15 151 C 15 205 30 245 61 270 C 92 294 130 308 174 311 L 244 315 L 244 341 C 244 363 238 380 226 391 C 214 401 196 407 172 407 C 150 407 130 403 114 396 C 98 388 85 381 77 375 L 45 459 C 59 471 79 481 105 490 C 131 499 163 504 203 504 C 246 504 282 491 312 467 C 341 443 356 407 356 360 L 356 0 Z M 246 115 L 246 237 L 199 234 C 179 232 162 225 148 212 C 134 199 127 179 127 152 C 127 127 133 110 145 100 C 157 90 170 85 184 85 C 199 85 211 87 221 93 C 231 99 239 106 246 115 Z M 191 554 L 191 554 Z M 78 554 L 167 728 L 304 728 L 192 554 L 78 554 Z" unicode="á" />
<glyph horiz-adv-x="389" d="M 15 0 L 15 0 Z M 356 0 L 252 0 L 252 46 C 237 28 221 15 203 7 C 185 0 162 -5 136 -5 C 100 -5 70 9 48 37 C 26 65 15 103 15 151 C 15 205 30 245 61 270 C 92 294 130 308 174 311 L 244 315 L 244 341 C 244 363 238 380 226 391 C 214 401 196 407 172 407 C 150 407 130 403 114 396 C 98 388 85 381 77 375 L 45 459 C 59 471 79 481 105 490 C 131 499 163 504 203 504 C 246 504 282 491 312 467 C 341 443 356 407 356 360 L 356 0 Z M 246 115 L 246 237 L 199 234 C 179 232 162 225 148 212 C 134 199 127 179 127 152 C 127 127 133 110 145 100 C 157 90 170 85 184 85 C 199 85 211 87 221 93 C 231 99 239 106 246 115 Z M 191 555 L 191 555 Z M 340 555 L 243 555 L 191 646 L 138 555 L 43 555 L 141 728 L 242 728 L 340 555 Z" unicode="â" />
<glyph horiz-adv-x="389" d="M 15 0 L 15 0 Z M 356 0 L 252 0 L 252 46 C 237 28 221 15 203 7 C 185 0 162 -5 136 -5 C 100 -5 70 9 48 37 C 26 65 15 103 15 151 C 15 205 30 245 61 270 C 92 294 130 308 174 311 L 244 315 L 244 341 C 244 363 238 380 226 391 C 214 401 196 407 172 407 C 150 407 130 403 114 396 C 98 388 85 381 77 375 L 45 459 C 59 471 79 481 105 490 C 131 499 163 504 203 504 C 246 504 282 491 312 467 C 341 443 356 407 356 360 L 356 0 Z M 246 115 L 246 237 L 199 234 C 179 232 162 225 148 212 C 134 199 127 179 127 152 C 127 127 133 110 145 100 C 157 90 170 85 184 85 C 199 85 211 87 221 93 C 231 99 239 106 246 115 Z M 191 559 L 191 559 Z M 267 706 L 355 706 C 355 656 347 619 333 595 C 318 571 299 559 277 559 C 257 559 241 562 228 569 C 214 575 203 581 195 587 C 186 591 177 596 169 602 C 161 607 152 610 144 610 C 136 610 129 605 123 597 C 117 588 115 576 115 562 L 28 562 C 28 612 37 649 55 673 C 73 697 93 710 115 710 C 132 710 147 706 159 700 C 171 693 182 686 192 680 C 200 674 208 669 215 665 C 222 661 229 659 237 659 C 243 659 250 663 257 671 C 263 679 267 690 267 706 Z" unicode="ã" />
<glyph horiz-adv-x="389" d="M 15 0 L 15 0 Z M 356 0 L 252 0 L 252 46 C 237 28 221 15 203 7 C 185 0 162 -5 136 -5 C 100 -5 70 9 48 37 C 26 65 15 103 15 151 C 15 205 30 245 61 270 C 92 294 130 308 174 311 L 244 315 L 244 341 C 244 363 238 380 226 391 C 214 401 196 407 172 407 C 150 407 130 403 114 396 C 98 388 85 381 77 375 L 45 459 C 59 471 79 481 105 490 C 131 499 163 504 203 504 C 246 504 282 491 312 467 C 341 443 356 407 356 360 L 356 0 Z M 246 115 L 246 237 L 199 234 C 179 232 162 225 148 212 C 134 199 127 179 127 152 C 127 127 133 110 145 100 C 157 90 170 85 184 85 C 199 85 211 87 221 93 C 231 99 239 106 246 115 Z M 191 555 L 191 555 Z M 319 555 L 223 555 L 223 715 L 319 715 L 319 555 Z M 159 555 L 63 555 L 63 715 L 159 715 L 159 555 Z" unicode="ä" />
<glyph horiz-adv-x="389" d="M 15 0 L 15 0 Z M 356 0 L 252 0 L 252 46 C 237 28 221 15 203 7 C 185 0 162 -5 136 -5 C 100 -5 70 9 48 37 C 26 65 15 103 15 151 C 15 205 30 245 61 270 C 92 294 130 308 174 311 L 244 315 L 244 341 C 244 363 238 380 226 391 C 214 401 196 407 172 407 C 150 407 130 403 114 396 C 98 388 85 381 77 375 L 45 459 C 59 471 79 481 105 490 C 131 499 163 504 203 504 C 246 504 282 491 312 467 C 341 443 356 407 356 360 L 356 0 Z M 246 115 L 246 237 L 199 234 C 179 232 162 225 148 212 C 134 199 127 179 127 152 C 127 127 133 110 145 100 C 157 90 170 85 184 85 C 199 85 211 87 221 93 C 231 99 239 106 246 115 Z M 191 541 L 191 541 Z M 191 541 C 157 541 128 552 105 576 C 81 600 70 629 70 663 C 70 696 81 724 105 748 C 128 772 157 784 191 784 C 225 784 253 772 277 748 C 301 724 313 696 313 663 C 313 629 301 600 277 576 C 253 552 225 541 191 541 Z M 191 607 C 206 607 219 612 229 623 C 239 633 245 647 245 663 C 245 678 239 691 229 702 C 219 712 206 718 191 718 C 176 718 163 712 153 702 C 143 691 138 678 138 663 C 138 647 143 633 153 623 C 163 612 176 607 191 607 Z" unicode="å" />
<glyph horiz-adv-x="622" d="M 426 -5 C 388 -5 357 3 335 21 C 313 39 297 57 289 77 C 277 51 257 30 231 16 C 205 2 176 -5 146 -5 C 110 -5 79 9 54 37 C 28 65 16 103 16 149 C 16 203 31 242 62 268 C 92 294 130 308 174 310 L 246 314 L 246 333 C 246 361 239 381 227 392 C 214 402 196 408 172 408 C 149 408 129 404 112 396 C 95 388 83 380 76 374 L 44 457 C 59 469 79 479 103 487 C 127 495 155 500 188 500 C 214 500 238 494 262 484 C 285 474 300 459 307 440 C 315 454 330 468 350 480 C 370 492 396 498 428 498 C 484 498 527 474 558 426 C 588 378 604 309 604 218 L 356 218 C 356 176 363 143 378 121 C 393 99 415 88 443 88 C 466 88 486 93 502 103 C 518 113 532 125 546 139 L 597 78 C 582 59 561 40 534 22 C 507 4 471 -5 426 -5 Z M 352 294 L 492 294 C 491 330 485 358 473 378 C 461 398 445 408 425 408 C 404 408 387 398 375 379 C 362 360 354 332 352 294 Z M 185 84 C 201 84 216 89 228 99 C 240 109 246 124 248 143 L 248 236 L 199 233 C 179 232 162 225 148 213 C 134 200 127 180 127 153 C 127 128 133 110 145 100 C 157 89 171 84 185 84 Z" unicode="æ" />
<glyph horiz-adv-x="360" d="M 18 0 L 18 0 Z M 295 131 L 352 66 C 340 48 323 32 302 17 C 281 2 251 -5 211 -5 C 179 -5 152 1 128 14 C 104 26 83 44 67 66 C 51 88 38 115 30 146 C 22 176 18 210 18 246 C 18 280 22 312 30 343 C 38 373 51 400 67 423 C 83 446 104 464 128 478 C 152 492 181 499 214 499 C 250 499 279 491 303 476 C 326 460 344 443 356 425 L 289 357 C 281 369 271 379 260 387 C 249 395 235 399 219 399 C 195 399 177 386 163 360 C 149 334 142 297 142 251 C 142 193 151 151 169 127 C 187 102 208 90 231 90 C 247 90 260 94 270 104 C 280 113 288 122 295 131 Z M 196 0 L 196 0 Z M 200 -182 C 178 -182 156 -179 136 -173 C 116 -167 99 -159 87 -149 L 108 -105 C 115 -109 125 -114 138 -120 C 150 -126 164 -129 179 -129 C 189 -129 198 -126 206 -121 C 214 -116 218 -109 218 -101 C 218 -91 214 -83 207 -79 C 200 -75 193 -73 185 -73 C 178 -73 172 -73 168 -74 C 163 -75 158 -77 154 -79 L 139 -59 L 196 14 L 256 14 L 212 -42 C 238 -39 261 -43 279 -54 C 297 -65 306 -82 306 -105 C 306 -129 295 -147 275 -161 C 254 -175 229 -182 200 -182 Z" unicode="ç" />
<glyph horiz-adv-x="405" d="M 18 0 L 18 0 Z M 208 -5 C 151 -5 105 17 70 61 C 35 105 18 166 18 244 C 18 284 22 319 32 351 C 42 383 55 409 72 431 C 88 453 108 469 131 481 C 153 492 177 498 203 498 C 264 498 310 474 341 427 C 371 379 387 309 387 217 L 137 217 C 137 175 144 143 160 121 C 176 99 198 88 227 88 C 250 88 270 93 286 104 C 302 115 316 127 328 140 L 379 78 C 364 59 343 40 315 22 C 287 4 252 -5 208 -5 Z M 136 295 L 274 295 C 273 332 267 360 256 379 C 244 398 229 408 209 408 C 188 408 171 398 158 380 C 145 361 138 333 136 295 Z M 205 554 L 205 554 Z M 317 554 L 203 554 L 91 728 L 228 728 L 317 554 Z" unicode="è" />
<glyph horiz-adv-x="405" d="M 18 0 L 18 0 Z M 208 -5 C 151 -5 105 17 70 61 C 35 105 18 166 18 244 C 18 284 22 319 32 351 C 42 383 55 409 72 431 C 88 453 108 469 131 481 C 153 492 177 498 203 498 C 264 498 310 474 341 427 C 371 379 387 309 387 217 L 137 217 C 137 175 144 143 160 121 C 176 99 198 88 227 88 C 250 88 270 93 286 104 C 302 115 316 127 328 140 L 379 78 C 364 59 343 40 315 22 C 287 4 252 -5 208 -5 Z M 136 295 L 274 295 C 273 332 267 360 256 379 C 244 398 229 408 209 408 C 188 408 171 398 158 380 C 145 361 138 333 136 295 Z M 205 554 L 205 554 Z M 92 554 L 181 728 L 318 728 L 206 554 L 92 554 Z" unicode="é" />
<glyph horiz-adv-x="405" d="M 18 0 L 18 0 Z M 208 -5 C 151 -5 105 17 70 61 C 35 105 18 166 18 244 C 18 284 22 319 32 351 C 42 383 55 409 72 431 C 88 453 108 469 131 481 C 153 492 177 498 203 498 C 264 498 310 474 341 427 C 371 379 387 309 387 217 L 137 217 C 137 175 144 143 160 121 C 176 99 198 88 227 88 C 250 88 270 93 286 104 C 302 115 316 127 328 140 L 379 78 C 364 59 343 40 315 22 C 287 4 252 -5 208 -5 Z M 136 295 L 274 295 C 273 332 267 360 256 379 C 244 398 229 408 209 408 C 188 408 171 398 158 380 C 145 361 138 333 136 295 Z M 205 555 L 205 555 Z M 354 555 L 257 555 L 205 646 L 152 555 L 57 555 L 155 728 L 256 728 L 354 555 Z" unicode="ê" />
<glyph horiz-adv-x="405" d="M 18 0 L 18 0 Z M 208 -5 C 151 -5 105 17 70 61 C 35 105 18 166 18 244 C 18 284 22 319 32 351 C 42 383 55 409 72 431 C 88 453 108 469 131 481 C 153 492 177 498 203 498 C 264 498 310 474 341 427 C 371 379 387 309 387 217 L 137 217 C 137 175 144 143 160 121 C 176 99 198 88 227 88 C 250 88 270 93 286 104 C 302 115 316 127 328 140 L 379 78 C 364 59 343 40 315 22 C 287 4 252 -5 208 -5 Z M 136 295 L 274 295 C 273 332 267 360 256 379 C 244 398 229 408 209 408 C 188 408 171 398 158 380 C 145 361 138 333 136 295 Z M 205 555 L 205 555 Z M 333 555 L 237 555 L 237 715 L 333 715 L 333 555 Z M 173 555 L 77 555 L 77 715 L 173 715 L 173 555 Z" unicode="ë" />
<glyph horiz-adv-x="192" d="M 0 0 L 0 0 Z M 156 0 L 37 0 L 37 494 L 156 494 L 156 0 Z M 95 554 L 95 554 Z M 207 554 L 93 554 L -19 728 L 118 728 L 207 554 Z" unicode="ì" />
<glyph horiz-adv-x="192" d="M 0 0 L 0 0 Z M 156 0 L 37 0 L 37 494 L 156 494 L 156 0 Z M 95 554 L 95 554 Z M -18 554 L 71 728 L 208 728 L 96 554 L -18 554 Z" unicode="í" />
<glyph horiz-adv-x="192" d="M 0 0 L 0 0 Z M 156 0 L 37 0 L 37 494 L 156 494 L 156 0 Z M 95 555 L 95 555 Z M 244 555 L 147 555 L 95 646 L 42 555 L -53 555 L 45 728 L 146 728 L 244 555 Z" unicode="î" />
<glyph horiz-adv-x="192" d="M 0 0 L 0 0 Z M 156 0 L 37 0 L 37 494 L 156 494 L 156 0 Z M 95 555 L 95 555 Z M 223 555 L 127 555 L 127 715 L 223 715 L 223 555 Z M 63 555 L -33 555 L -33 715 L 63 715 L 63 555 Z" unicode="ï" />
<glyph horiz-adv-x="432" d="M 405 301 C 405 257 401 216 393 178 C 385 140 373 108 357 80 C 341 52 321 31 297 15 C 273 0 245 -8 213 -8 C 155 -8 108 13 72 56 C 36 99 19 160 19 239 C 19 281 24 318 34 350 C 44 381 57 407 73 428 C 89 448 108 464 129 474 C 150 484 171 489 193 489 C 217 489 238 485 255 477 C 272 469 286 457 297 443 C 294 469 289 495 281 523 C 273 551 263 578 253 604 L 183 576 L 156 653 L 219 677 C 209 696 199 713 190 728 C 180 742 172 753 166 761 L 255 797 C 261 789 269 778 279 764 C 289 750 299 733 310 713 L 373 737 L 400 661 L 344 639 C 360 597 375 547 387 490 C 399 433 405 370 405 301 Z M 210 86 C 233 86 250 97 262 121 C 274 145 280 185 280 241 C 280 301 273 343 261 366 C 249 388 231 400 208 400 C 186 400 169 387 157 361 C 145 335 140 296 140 242 C 140 185 146 145 158 121 C 170 97 187 86 210 86 Z" unicode="ð" />
<glyph horiz-adv-x="419" d="M 35 0 L 35 0 Z M 386 0 L 267 0 L 267 344 C 267 362 262 375 253 385 C 243 394 231 399 215 399 C 197 399 183 393 171 383 C 159 373 153 354 153 328 L 153 0 L 35 0 L 35 494 L 142 494 L 142 429 C 150 449 163 466 183 480 C 203 493 229 500 262 500 C 299 500 329 490 352 472 C 374 453 386 423 386 381 L 386 0 Z M 211 559 L 211 559 Z M 287 706 L 375 706 C 375 656 367 619 353 595 C 338 571 319 559 297 559 C 277 559 261 562 248 569 C 234 575 223 581 215 587 C 206 591 197 596 189 602 C 181 607 172 610 164 610 C 156 610 149 605 143 597 C 137 588 135 576 135 562 L 48 562 C 48 612 57 649 75 673 C 93 697 113 710 135 710 C 152 710 167 706 179 700 C 191 693 202 686 212 680 C 220 674 228 669 235 665 C 242 661 249 659 257 659 C 263 659 270 663 277 671 C 283 679 287 690 287 706 Z" unicode="ñ" />
<glyph horiz-adv-x="421" d="M 18 0 L 18 0 Z M 210 -5 C 154 -5 108 16 72 58 C 36 100 18 163 18 246 C 18 322 35 384 69 430 C 103 476 149 499 205 499 C 265 499 313 478 349 436 C 385 394 404 335 404 259 C 404 178 386 114 352 66 C 317 18 270 -5 210 -5 Z M 211 88 C 233 88 250 100 262 124 C 273 148 279 190 279 250 C 279 308 273 349 261 371 C 249 393 231 404 209 404 C 187 404 171 392 159 370 C 147 348 142 308 142 250 C 142 186 148 143 161 121 C 173 99 190 88 211 88 Z M 211 554 L 211 554 Z M 323 554 L 209 554 L 97 728 L 234 728 L 323 554 Z" unicode="ò" />
<glyph horiz-adv-x="421" d="M 18 0 L 18 0 Z M 210 -5 C 154 -5 108 16 72 58 C 36 100 18 163 18 246 C 18 322 35 384 69 430 C 103 476 149 499 205 499 C 265 499 313 478 349 436 C 385 394 404 335 404 259 C 404 178 386 114 352 66 C 317 18 270 -5 210 -5 Z M 211 88 C 233 88 250 100 262 124 C 273 148 279 190 279 250 C 279 308 273 349 261 371 C 249 393 231 404 209 404 C 187 404 171 392 159 370 C 147 348 142 308 142 250 C 142 186 148 143 161 121 C 173 99 190 88 211 88 Z M 211 554 L 211 554 Z M 98 554 L 187 728 L 324 728 L 212 554 L 98 554 Z" unicode="ó" />
<glyph horiz-adv-x="421" d="M 18 0 L 18 0 Z M 210 -5 C 154 -5 108 16 72 58 C 36 100 18 163 18 246 C 18 322 35 384 69 430 C 103 476 149 499 205 499 C 265 499 313 478 349 436 C 385 394 404 335 404 259 C 404 178 386 114 352 66 C 317 18 270 -5 210 -5 Z M 211 88 C 233 88 250 100 262 124 C 273 148 279 190 279 250 C 279 308 273 349 261 371 C 249 393 231 404 209 404 C 187 404 171 392 159 370 C 147 348 142 308 142 250 C 142 186 148 143 161 121 C 173 99 190 88 211 88 Z M 211 555 L 211 555 Z M 360 555 L 263 555 L 211 646 L 158 555 L 63 555 L 161 728 L 262 728 L 360 555 Z" unicode="ô" />
<glyph horiz-adv-x="421" d="M 18 0 L 18 0 Z M 210 -5 C 154 -5 108 16 72 58 C 36 100 18 163 18 246 C 18 322 35 384 69 430 C 103 476 149 499 205 499 C 265 499 313 478 349 436 C 385 394 404 335 404 259 C 404 178 386 114 352 66 C 317 18 270 -5 210 -5 Z M 211 88 C 233 88 250 100 262 124 C 273 148 279 190 279 250 C 279 308 273 349 261 371 C 249 393 231 404 209 404 C 187 404 171 392 159 370 C 147 348 142 308 142 250 C 142 186 148 143 161 121 C 173 99 190 88 211 88 Z M 211 559 L 211 559 Z M 287 706 L 375 706 C 375 656 367 619 353 595 C 338 571 319 559 297 559 C 277 559 261 562 248 569 C 234 575 223 581 215 587 C 206 591 197 596 189 602 C 181 607 172 610 164 610 C 156 610 149 605 143 597 C 137 588 135 576 135 562 L 48 562 C 48 612 57 649 75 673 C 93 697 113 710 135 710 C 152 710 167 706 179 700 C 191 693 202 686 212 680 C 220 674 228 669 235 665 C 242 661 249 659 257 659 C 263 659 270 663 277 671 C 283 679 287 690 287 706 Z" unicode="õ" />
<glyph horiz-adv-x="421" d="M 18 0 L 18 0 Z M 210 -5 C 154 -5 108 16 72 58 C 36 100 18 163 18 246 C 18 322 35 384 69 430 C 103 476 149 499 205 499 C 265 499 313 478 349 436 C 385 394 404 335 404 259 C 404 178 386 114 352 66 C 317 18 270 -5 210 -5 Z M 211 88 C 233 88 250 100 262 124 C 273 148 279 190 279 250 C 279 308 273 349 261 371 C 249 393 231 404 209 404 C 187 404 171 392 159 370 C 147 348 142 308 142 250 C 142 186 148 143 161 121 C 173 99 190 88 211 88 Z M 211 555 L 211 555 Z M 339 555 L 243 555 L 243 715 L 339 715 L 339 555 Z M 179 555 L 83 555 L 83 715 L 179 715 L 179 555 Z" unicode="ö" />
<glyph horiz-adv-x="481" d="M 184 448 L 184 573 L 297 573 L 297 448 L 184 448 Z M 23 279 L 23 382 L 458 382 L 458 279 L 23 279 Z M 184 87 L 184 211 L 297 211 L 297 87 L 184 87 Z" unicode="÷" />
<glyph horiz-adv-x="421" d="M 404 259 C 404 178 386 114 352 66 C 317 18 270 -5 210 -5 C 188 -5 167 -1 148 5 C 128 11 111 21 95 35 L 68 -5 L 30 23 L 63 71 C 49 91 38 116 30 146 C 22 175 18 208 18 246 C 18 322 35 384 69 430 C 103 476 149 499 205 499 C 229 499 252 495 272 488 C 292 481 311 471 328 458 L 357 501 L 394 474 L 360 424 C 374 404 384 380 392 352 C 400 324 404 293 404 259 Z M 142 250 C 142 238 142 228 143 218 C 143 208 144 198 145 190 L 264 365 C 258 379 250 389 241 395 C 232 401 221 404 209 404 C 187 404 171 392 159 370 C 147 348 142 308 142 250 Z M 279 250 C 279 260 278 269 278 278 C 278 286 277 294 277 302 L 158 127 C 164 112 171 102 180 96 C 189 90 199 88 211 88 C 233 88 250 100 262 124 C 273 148 279 190 279 250 Z" unicode="ø" />
<glyph horiz-adv-x="419" d="M 33 0 L 33 0 Z M 33 494 L 152 494 L 152 152 C 152 129 157 112 167 102 C 177 91 190 86 207 86 C 223 86 236 92 248 104 C 260 116 266 138 266 170 L 266 494 L 385 494 L 385 0 L 274 0 L 274 58 C 266 40 251 24 231 12 C 211 0 186 -6 158 -6 C 124 -6 95 4 70 25 C 45 46 33 79 33 123 L 33 494 Z M 209 554 L 209 554 Z M 321 554 L 207 554 L 95 728 L 232 728 L 321 554 Z" unicode="ù" />
<glyph horiz-adv-x="419" d="M 33 0 L 33 0 Z M 33 494 L 152 494 L 152 152 C 152 129 157 112 167 102 C 177 91 190 86 207 86 C 223 86 236 92 248 104 C 260 116 266 138 266 170 L 266 494 L 385 494 L 385 0 L 274 0 L 274 58 C 266 40 251 24 231 12 C 211 0 186 -6 158 -6 C 124 -6 95 4 70 25 C 45 46 33 79 33 123 L 33 494 Z M 209 554 L 209 554 Z M 96 554 L 185 728 L 322 728 L 210 554 L 96 554 Z" unicode="ú" />
<glyph horiz-adv-x="419" d="M 33 0 L 33 0 Z M 33 494 L 152 494 L 152 152 C 152 129 157 112 167 102 C 177 91 190 86 207 86 C 223 86 236 92 248 104 C 260 116 266 138 266 170 L 266 494 L 385 494 L 385 0 L 274 0 L 274 58 C 266 40 251 24 231 12 C 211 0 186 -6 158 -6 C 124 -6 95 4 70 25 C 45 46 33 79 33 123 L 33 494 Z M 209 555 L 209 555 Z M 358 555 L 261 555 L 209 646 L 156 555 L 61 555 L 159 728 L 260 728 L 358 555 Z" unicode="û" />
<glyph horiz-adv-x="419" d="M 33 0 L 33 0 Z M 33 494 L 152 494 L 152 152 C 152 129 157 112 167 102 C 177 91 190 86 207 86 C 223 86 236 92 248 104 C 260 116 266 138 266 170 L 266 494 L 385 494 L 385 0 L 274 0 L 274 58 C 266 40 251 24 231 12 C 211 0 186 -6 158 -6 C 124 -6 95 4 70 25 C 45 46 33 79 33 123 L 33 494 Z M 209 555 L 209 555 Z M 337 555 L 241 555 L 241 715 L 337 715 L 337 555 Z M 177 555 L 81 555 L 81 715 L 177 715 L 177 555 Z" unicode="ü" />
<glyph horiz-adv-x="364" d="M 0 0 L 0 0 Z M 370 494 L 199 -98 C 189 -131 171 -156 146 -174 C 121 -191 92 -200 60 -200 C 39 -200 21 -197 6 -193 C -8 -188 -19 -183 -25 -179 L 13 -92 C 15 -94 21 -97 30 -100 C 39 -103 48 -105 56 -105 C 68 -105 79 -100 87 -91 C 95 -82 102 -68 107 -50 L 130 41 L -6 494 L 117 494 L 190 204 L 260 494 L 370 494 Z M 186 554 L 186 554 Z M 73 554 L 162 728 L 299 728 L 187 554 L 73 554 Z" unicode="ý" />
<glyph horiz-adv-x="425" d="M 35 -200 L 35 795 L 144 795 L 144 417 C 150 439 164 458 185 474 C 205 490 230 498 259 498 C 284 498 306 492 325 480 C 343 468 359 452 371 432 C 383 411 392 386 398 358 C 404 330 407 299 407 266 C 407 180 393 114 365 67 C 337 19 300 -4 252 -4 C 227 -4 205 1 186 11 C 167 21 154 34 146 50 L 146 -200 L 35 -200 Z M 209 83 C 231 83 249 95 262 119 C 274 143 281 183 281 239 C 281 291 275 331 264 358 C 253 385 235 399 211 399 C 201 399 192 396 184 392 C 176 387 168 379 162 367 C 156 355 151 338 147 316 C 143 294 142 267 142 234 C 142 202 143 177 147 157 C 150 137 155 122 161 111 C 167 100 174 93 182 89 C 190 85 199 83 209 83 Z" unicode="þ" />
<glyph horiz-adv-x="364" d="M 0 0 L 0 0 Z M 370 494 L 199 -98 C 189 -131 171 -156 146 -174 C 121 -191 92 -200 60 -200 C 39 -200 21 -197 6 -193 C -8 -188 -19 -183 -25 -179 L 13 -92 C 15 -94 21 -97 30 -100 C 39 -103 48 -105 56 -105 C 68 -105 79 -100 87 -91 C 95 -82 102 -68 107 -50 L 130 41 L -6 494 L 117 494 L 190 204 L 260 494 L 370 494 Z M 186 555 L 186 555 Z M 314 555 L 218 555 L 218 715 L 314 715 L 314 555 Z M 154 555 L 58 555 L 58 715 L 154 715 L 154 555 Z" unicode="ÿ" />
<glyph horiz-adv-x="493" d="M 0 0 L 0 0 Z M 494 0 L 371 0 L 330 154 L 157 154 L 118 0 L -1 0 L 201 734 L 292 734 L 494 0 Z M 313 253 L 243 509 L 174 253 L 313 253 Z M 244 805 L 244 805 Z M 373 805 L 115 805 L 115 897 L 373 897 L 373 805 Z" unicode="Ā" />
<glyph horiz-adv-x="389" d="M 15 0 L 15 0 Z M 356 0 L 252 0 L 252 46 C 237 28 221 15 203 7 C 185 0 162 -5 136 -5 C 100 -5 70 9 48 37 C 26 65 15 103 15 151 C 15 205 30 245 61 270 C 92 294 130 308 174 311 L 244 315 L 244 341 C 244 363 238 380 226 391 C 214 401 196 407 172 407 C 150 407 130 403 114 396 C 98 388 85 381 77 375 L 45 459 C 59 471 79 481 105 490 C 131 499 163 504 203 504 C 246 504 282 491 312 467 C 341 443 356 407 356 360 L 356 0 Z M 246 115 L 246 237 L 199 234 C 179 232 162 225 148 212 C 134 199 127 179 127 152 C 127 127 133 110 145 100 C 157 90 170 85 184 85 C 199 85 211 87 221 93 C 231 99 239 106 246 115 Z M 191 569 L 191 569 Z M 320 569 L 62 569 L 62 661 L 320 661 L 320 569 Z" unicode="ā" />
<glyph horiz-adv-x="493" d="M 0 0 L 0 0 Z M 494 0 L 371 0 L 330 154 L 157 154 L 118 0 L -1 0 L 201 734 L 292 734 L 494 0 Z M 313 253 L 243 509 L 174 253 L 313 253 Z M 244 793 L 244 793 Z M 292 953 L 390 953 C 385 897 370 856 344 831 C 318 805 284 793 244 793 C 203 793 170 805 144 831 C 118 856 103 897 99 953 L 197 953 C 198 929 202 910 209 897 C 215 884 227 878 244 878 C 260 878 272 884 279 896 C 286 908 290 927 292 953 Z" unicode="Ă" />
<glyph horiz-adv-x="389" d="M 15 0 L 15 0 Z M 356 0 L 252 0 L 252 46 C 237 28 221 15 203 7 C 185 0 162 -5 136 -5 C 100 -5 70 9 48 37 C 26 65 15 103 15 151 C 15 205 30 245 61 270 C 92 294 130 308 174 311 L 244 315 L 244 341 C 244 363 238 380 226 391 C 214 401 196 407 172 407 C 150 407 130 403 114 396 C 98 388 85 381 77 375 L 45 459 C 59 471 79 481 105 490 C 131 499 163 504 203 504 C 246 504 282 491 312 467 C 341 443 356 407 356 360 L 356 0 Z M 246 115 L 246 237 L 199 234 C 179 232 162 225 148 212 C 134 199 127 179 127 152 C 127 127 133 110 145 100 C 157 90 170 85 184 85 C 199 85 211 87 221 93 C 231 99 239 106 246 115 Z M 191 557 L 191 557 Z M 239 717 L 337 717 C 332 661 317 620 291 595 C 265 569 231 557 191 557 C 150 557 117 569 91 595 C 65 620 50 661 46 717 L 144 717 C 145 693 149 674 156 661 C 162 648 174 642 191 642 C 207 642 219 648 226 660 C 233 672 237 691 239 717 Z" unicode="ă" />
<glyph horiz-adv-x="493" d="M 0 0 L 0 0 Z M 494 0 L 371 0 L 330 154 L 157 154 L 118 0 L -1 0 L 201 734 L 292 734 L 494 0 Z M 313 253 L 243 509 L 174 253 L 313 253 Z M 391 -7 L 391 -7 Z M 487 -82 L 519 -132 C 498 -154 475 -171 451 -182 C 427 -193 400 -199 370 -199 C 336 -199 309 -191 291 -177 C 272 -162 263 -143 263 -121 C 263 -95 272 -72 292 -50 C 312 -28 341 -9 381 6 L 447 6 C 423 -4 404 -17 389 -31 C 373 -45 366 -59 366 -72 C 366 -84 370 -93 378 -100 C 386 -107 397 -111 410 -111 C 426 -111 440 -108 453 -103 C 466 -97 477 -90 487 -82 Z" unicode="Ą" />
<glyph horiz-adv-x="389" d="M 15 0 L 15 0 Z M 356 0 L 252 0 L 252 46 C 237 28 221 15 203 7 C 185 0 162 -5 136 -5 C 100 -5 70 9 48 37 C 26 65 15 103 15 151 C 15 205 30 245 61 270 C 92 294 130 308 174 311 L 244 315 L 244 341 C 244 363 238 380 226 391 C 214 401 196 407 172 407 C 150 407 130 403 114 396 C 98 388 85 381 77 375 L 45 459 C 59 471 79 481 105 490 C 131 499 163 504 203 504 C 246 504 282 491 312 467 C 341 443 356 407 356 360 L 356 0 Z M 246 115 L 246 237 L 199 234 C 179 232 162 225 148 212 C 134 199 127 179 127 152 C 127 127 133 110 145 100 C 157 90 170 85 184 85 C 199 85 211 87 221 93 C 231 99 239 106 246 115 Z M 273 -7 L 273 -7 Z M 369 -82 L 401 -132 C 380 -154 357 -171 333 -182 C 309 -193 282 -199 252 -199 C 218 -199 191 -191 173 -177 C 154 -162 145 -143 145 -121 C 145 -95 154 -72 174 -50 C 194 -28 223 -9 263 6 L 329 6 C 305 -4 286 -17 271 -31 C 255 -45 248 -59 248 -72 C 248 -84 252 -93 260 -100 C 268 -107 279 -111 292 -111 C 308 -111 322 -108 335 -103 C 348 -97 359 -90 369 -82 Z" unicode="ą" />
<glyph horiz-adv-x="512" d="M 29 0 L 29 0 Z M 277 -7 C 203 -7 144 24 98 86 C 52 148 29 241 29 366 C 29 482 50 572 93 638 C 135 704 197 737 279 737 C 344 737 392 721 423 690 C 454 658 476 619 489 573 L 376 538 C 367 562 356 583 343 600 C 329 617 309 626 281 626 C 243 626 213 607 191 569 C 169 531 158 462 158 362 C 158 311 161 269 169 236 C 177 202 187 176 199 157 C 211 137 225 124 241 116 C 257 108 273 104 290 104 C 320 104 343 112 358 128 C 372 144 384 165 394 193 L 496 155 C 479 104 453 64 417 36 C 381 7 334 -7 277 -7 Z M 283 790 L 283 790 Z M 170 790 L 259 964 L 396 964 L 284 790 L 170 790 Z" unicode="Ć" />
<glyph horiz-adv-x="360" d="M 18 0 L 18 0 Z M 295 131 L 352 66 C 340 48 323 32 302 17 C 281 2 251 -5 211 -5 C 179 -5 152 1 128 14 C 104 26 83 44 67 66 C 51 88 38 115 30 146 C 22 176 18 210 18 246 C 18 280 22 312 30 343 C 38 373 51 400 67 423 C 83 446 104 464 128 478 C 152 492 181 499 214 499 C 250 499 279 491 303 476 C 326 460 344 443 356 425 L 289 357 C 281 369 271 379 260 387 C 249 395 235 399 219 399 C 195 399 177 386 163 360 C 149 334 142 297 142 251 C 142 193 151 151 169 127 C 187 102 208 90 231 90 C 247 90 260 94 270 104 C 280 113 288 122 295 131 Z M 205 554 L 205 554 Z M 92 554 L 181 728 L 318 728 L 206 554 L 92 554 Z" unicode="ć" />
<glyph horiz-adv-x="512" d="M 29 0 L 29 0 Z M 277 -7 C 203 -7 144 24 98 86 C 52 148 29 241 29 366 C 29 482 50 572 93 638 C 135 704 197 737 279 737 C 344 737 392 721 423 690 C 454 658 476 619 489 573 L 376 538 C 367 562 356 583 343 600 C 329 617 309 626 281 626 C 243 626 213 607 191 569 C 169 531 158 462 158 362 C 158 311 161 269 169 236 C 177 202 187 176 199 157 C 211 137 225 124 241 116 C 257 108 273 104 290 104 C 320 104 343 112 358 128 C 372 144 384 165 394 193 L 496 155 C 479 104 453 64 417 36 C 381 7 334 -7 277 -7 Z M 283 791 L 283 791 Z M 432 791 L 335 791 L 283 882 L 230 791 L 135 791 L 233 964 L 334 964 L 432 791 Z" unicode="Ĉ" />
<glyph horiz-adv-x="360" d="M 18 0 L 18 0 Z M 295 131 L 352 66 C 340 48 323 32 302 17 C 281 2 251 -5 211 -5 C 179 -5 152 1 128 14 C 104 26 83 44 67 66 C 51 88 38 115 30 146 C 22 176 18 210 18 246 C 18 280 22 312 30 343 C 38 373 51 400 67 423 C 83 446 104 464 128 478 C 152 492 181 499 214 499 C 250 499 279 491 303 476 C 326 460 344 443 356 425 L 289 357 C 281 369 271 379 260 387 C 249 395 235 399 219 399 C 195 399 177 386 163 360 C 149 334 142 297 142 251 C 142 193 151 151 169 127 C 187 102 208 90 231 90 C 247 90 260 94 270 104 C 280 113 288 122 295 131 Z M 205 555 L 205 555 Z M 354 555 L 257 555 L 205 646 L 152 555 L 57 555 L 155 728 L 256 728 L 354 555 Z" unicode="ĉ" />
<glyph horiz-adv-x="512" d="M 29 0 L 29 0 Z M 277 -7 C 203 -7 144 24 98 86 C 52 148 29 241 29 366 C 29 482 50 572 93 638 C 135 704 197 737 279 737 C 344 737 392 721 423 690 C 454 658 476 619 489 573 L 376 538 C 367 562 356 583 343 600 C 329 617 309 626 281 626 C 243 626 213 607 191 569 C 169 531 158 462 158 362 C 158 311 161 269 169 236 C 177 202 187 176 199 157 C 211 137 225 124 241 116 C 257 108 273 104 290 104 C 320 104 343 112 358 128 C 372 144 384 165 394 193 L 496 155 C 479 104 453 64 417 36 C 381 7 334 -7 277 -7 Z M 283 801 L 283 801 Z M 338 801 L 229 801 L 229 931 L 338 931 L 338 801 Z" unicode="Ċ" />
<glyph horiz-adv-x="360" d="M 18 0 L 18 0 Z M 295 131 L 352 66 C 340 48 323 32 302 17 C 281 2 251 -5 211 -5 C 179 -5 152 1 128 14 C 104 26 83 44 67 66 C 51 88 38 115 30 146 C 22 176 18 210 18 246 C 18 280 22 312 30 343 C 38 373 51 400 67 423 C 83 446 104 464 128 478 C 152 492 181 499 214 499 C 250 499 279 491 303 476 C 326 460 344 443 356 425 L 289 357 C 281 369 271 379 260 387 C 249 395 235 399 219 399 C 195 399 177 386 163 360 C 149 334 142 297 142 251 C 142 193 151 151 169 127 C 187 102 208 90 231 90 C 247 90 260 94 270 104 C 280 113 288 122 295 131 Z M 205 565 L 205 565 Z M 260 565 L 151 565 L 151 695 L 260 695 L 260 565 Z" unicode="ċ" />
<glyph horiz-adv-x="512" d="M 29 0 L 29 0 Z M 277 -7 C 203 -7 144 24 98 86 C 52 148 29 241 29 366 C 29 482 50 572 93 638 C 135 704 197 737 279 737 C 344 737 392 721 423 690 C 454 658 476 619 489 573 L 376 538 C 367 562 356 583 343 600 C 329 617 309 626 281 626 C 243 626 213 607 191 569 C 169 531 158 462 158 362 C 158 311 161 269 169 236 C 177 202 187 176 199 157 C 211 137 225 124 241 116 C 257 108 273 104 290 104 C 320 104 343 112 358 128 C 372 144 384 165 394 193 L 496 155 C 479 104 453 64 417 36 C 381 7 334 -7 277 -7 Z M 283 791 L 283 791 Z M 135 964 L 232 964 L 284 873 L 337 964 L 432 964 L 334 791 L 233 791 L 135 964 Z" unicode="Č" />
<glyph horiz-adv-x="360" d="M 18 0 L 18 0 Z M 295 131 L 352 66 C 340 48 323 32 302 17 C 281 2 251 -5 211 -5 C 179 -5 152 1 128 14 C 104 26 83 44 67 66 C 51 88 38 115 30 146 C 22 176 18 210 18 246 C 18 280 22 312 30 343 C 38 373 51 400 67 423 C 83 446 104 464 128 478 C 152 492 181 499 214 499 C 250 499 279 491 303 476 C 326 460 344 443 356 425 L 289 357 C 281 369 271 379 260 387 C 249 395 235 399 219 399 C 195 399 177 386 163 360 C 149 334 142 297 142 251 C 142 193 151 151 169 127 C 187 102 208 90 231 90 C 247 90 260 94 270 104 C 280 113 288 122 295 131 Z M 205 555 L 205 555 Z M 57 728 L 154 728 L 206 637 L 259 728 L 354 728 L 256 555 L 155 555 L 57 728 Z" unicode="č" />
<glyph horiz-adv-x="543" d="M 50 0 L 50 0 Z M 50 0 L 50 730 L 226 730 C 272 730 314 721 350 703 C 386 685 417 660 441 628 C 465 596 483 557 496 511 C 508 465 515 415 515 361 C 515 310 509 263 497 219 C 485 175 466 136 442 104 C 417 72 386 46 349 28 C 311 9 268 0 218 0 L 50 0 Z M 179 108 L 225 108 C 283 108 324 130 348 174 C 372 218 384 280 384 360 C 384 452 370 518 343 559 C 315 600 278 621 230 621 L 179 621 L 179 108 Z M 249 791 L 249 791 Z M 101 964 L 198 964 L 250 873 L 303 964 L 398 964 L 300 791 L 199 791 L 101 964 Z" unicode="Ď" />
<glyph horiz-adv-x="435" d="M 19 0 L 19 0 Z M 180 -5 C 155 -5 133 1 113 13 C 93 25 77 42 63 64 C 49 86 38 112 30 142 C 22 172 19 205 19 241 C 19 319 34 381 65 427 C 95 473 134 496 182 496 C 209 496 232 488 251 474 C 269 459 282 441 289 421 L 289 795 L 400 795 L 400 0 L 294 0 L 294 54 C 287 40 275 26 257 14 C 239 1 214 -5 180 -5 Z M 218 86 C 240 86 258 99 271 125 C 284 151 291 193 291 249 C 291 305 283 344 269 366 C 255 388 237 399 216 399 C 193 399 175 386 163 362 C 150 338 144 299 144 245 C 144 190 150 150 163 124 C 176 98 194 86 218 86 Z M 548 621 L 543 473 L 441 473 L 436 621 L 436 730 L 548 730 L 548 621 Z" unicode="ď" />
<glyph horiz-adv-x="543" d="M 12 0 L 12 0 Z M 514 361 C 514 310 508 263 496 219 C 484 175 465 136 441 104 C 416 72 385 46 348 28 C 310 9 267 0 217 0 L 49 0 L 49 312 L 12 312 L 12 407 L 49 407 L 49 730 L 226 730 C 272 730 314 721 350 703 C 386 685 416 660 440 628 C 464 596 482 557 495 511 C 507 465 514 415 514 361 Z M 178 101 L 224 101 C 282 101 323 123 347 169 C 371 214 383 277 383 359 C 383 454 369 523 342 565 C 314 607 277 629 229 629 L 178 629 L 178 407 L 294 407 L 294 312 L 178 312 L 178 101 Z" unicode="Đ" />
<glyph horiz-adv-x="435" d="M 294 54 C 287 40 275 26 257 14 C 239 1 214 -5 180 -5 C 155 -5 133 1 113 13 C 93 25 77 42 63 64 C 49 86 38 112 30 142 C 22 172 19 205 19 241 C 19 319 34 381 65 427 C 95 473 134 496 182 496 C 209 496 232 488 251 474 C 269 459 282 441 289 421 L 289 589 L 200 589 L 200 683 L 289 683 L 289 795 L 400 795 L 400 683 L 431 683 L 431 589 L 400 589 L 400 0 L 294 0 L 294 54 Z M 218 86 C 240 86 258 99 271 125 C 284 151 291 193 291 249 C 291 305 283 344 269 366 C 255 388 237 399 216 399 C 193 399 175 386 163 362 C 150 338 144 299 144 245 C 144 190 150 150 163 124 C 176 98 194 86 218 86 Z" unicode="đ" />
<glyph horiz-adv-x="403" d="M 50 0 L 50 0 Z M 393 0 L 50 0 L 50 730 L 374 730 L 374 617 L 176 617 L 176 420 L 365 420 L 365 309 L 176 309 L 176 113 L 393 113 L 393 0 Z M 210 805 L 210 805 Z M 339 805 L 81 805 L 81 897 L 339 897 L 339 805 Z" unicode="Ē" />
<glyph horiz-adv-x="405" d="M 18 0 L 18 0 Z M 208 -5 C 151 -5 105 17 70 61 C 35 105 18 166 18 244 C 18 284 22 319 32 351 C 42 383 55 409 72 431 C 88 453 108 469 131 481 C 153 492 177 498 203 498 C 264 498 310 474 341 427 C 371 379 387 309 387 217 L 137 217 C 137 175 144 143 160 121 C 176 99 198 88 227 88 C 250 88 270 93 286 104 C 302 115 316 127 328 140 L 379 78 C 364 59 343 40 315 22 C 287 4 252 -5 208 -5 Z M 136 295 L 274 295 C 273 332 267 360 256 379 C 244 398 229 408 209 408 C 188 408 171 398 158 380 C 145 361 138 333 136 295 Z M 205 569 L 205 569 Z M 334 569 L 76 569 L 76 661 L 334 661 L 334 569 Z" unicode="ē" />
<glyph horiz-adv-x="403" d="M 50 0 L 50 0 Z M 393 0 L 50 0 L 50 730 L 374 730 L 374 617 L 176 617 L 176 420 L 365 420 L 365 309 L 176 309 L 176 113 L 393 113 L 393 0 Z M 210 793 L 210 793 Z M 258 953 L 356 953 C 351 897 336 856 310 831 C 284 805 250 793 210 793 C 169 793 136 805 110 831 C 84 856 69 897 65 953 L 163 953 C 164 929 168 910 175 897 C 181 884 193 878 210 878 C 226 878 238 884 245 896 C 252 908 256 927 258 953 Z" unicode="Ĕ" />
<glyph horiz-adv-x="405" d="M 18 0 L 18 0 Z M 208 -5 C 151 -5 105 17 70 61 C 35 105 18 166 18 244 C 18 284 22 319 32 351 C 42 383 55 409 72 431 C 88 453 108 469 131 481 C 153 492 177 498 203 498 C 264 498 310 474 341 427 C 371 379 387 309 387 217 L 137 217 C 137 175 144 143 160 121 C 176 99 198 88 227 88 C 250 88 270 93 286 104 C 302 115 316 127 328 140 L 379 78 C 364 59 343 40 315 22 C 287 4 252 -5 208 -5 Z M 136 295 L 274 295 C 273 332 267 360 256 379 C 244 398 229 408 209 408 C 188 408 171 398 158 380 C 145 361 138 333 136 295 Z M 205 557 L 205 557 Z M 253 717 L 351 717 C 346 661 331 620 305 595 C 279 569 245 557 205 557 C 164 557 131 569 105 595 C 79 620 64 661 60 717 L 158 717 C 159 693 163 674 170 661 C 176 648 188 642 205 642 C 221 642 233 648 240 660 C 247 672 251 691 253 717 Z" unicode="ĕ" />
<glyph horiz-adv-x="403" d="M 50 0 L 50 0 Z M 393 0 L 50 0 L 50 730 L 374 730 L 374 617 L 176 617 L 176 420 L 365 420 L 365 309 L 176 309 L 176 113 L 393 113 L 393 0 Z M 210 801 L 210 801 Z M 265 801 L 156 801 L 156 931 L 265 931 L 265 801 Z" unicode="Ė" />
<glyph horiz-adv-x="405" d="M 18 0 L 18 0 Z M 208 -5 C 151 -5 105 17 70 61 C 35 105 18 166 18 244 C 18 284 22 319 32 351 C 42 383 55 409 72 431 C 88 453 108 469 131 481 C 153 492 177 498 203 498 C 264 498 310 474 341 427 C 371 379 387 309 387 217 L 137 217 C 137 175 144 143 160 121 C 176 99 198 88 227 88 C 250 88 270 93 286 104 C 302 115 316 127 328 140 L 379 78 C 364 59 343 40 315 22 C 287 4 252 -5 208 -5 Z M 136 295 L 274 295 C 273 332 267 360 256 379 C 244 398 229 408 209 408 C 188 408 171 398 158 380 C 145 361 138 333 136 295 Z M 205 565 L 205 565 Z M 260 565 L 151 565 L 151 695 L 260 695 L 260 565 Z" unicode="ė" />
<glyph horiz-adv-x="403" d="M 50 0 L 50 0 Z M 393 0 L 50 0 L 50 730 L 374 730 L 374 617 L 176 617 L 176 420 L 365 420 L 365 309 L 176 309 L 176 113 L 393 113 L 393 0 Z M 338 -7 L 338 -7 Z M 434 -82 L 466 -132 C 445 -154 422 -171 398 -182 C 374 -193 347 -199 317 -199 C 283 -199 256 -191 238 -177 C 219 -162 210 -143 210 -121 C 210 -95 219 -72 239 -50 C 259 -28 288 -9 328 6 L 394 6 C 370 -4 351 -17 336 -31 C 320 -45 313 -59 313 -72 C 313 -84 317 -93 325 -100 C 333 -107 344 -111 357 -111 C 373 -111 387 -108 400 -103 C 413 -97 424 -90 434 -82 Z" unicode="Ę" />
<glyph horiz-adv-x="405" d="M 18 0 L 18 0 Z M 208 -5 C 151 -5 105 17 70 61 C 35 105 18 166 18 244 C 18 284 22 319 32 351 C 42 383 55 409 72 431 C 88 453 108 469 131 481 C 153 492 177 498 203 498 C 264 498 310 474 341 427 C 371 379 387 309 387 217 L 137 217 C 137 175 144 143 160 121 C 176 99 198 88 227 88 C 250 88 270 93 286 104 C 302 115 316 127 328 140 L 379 78 C 364 59 343 40 315 22 C 287 4 252 -5 208 -5 Z M 136 295 L 274 295 C 273 332 267 360 256 379 C 244 398 229 408 209 408 C 188 408 171 398 158 380 C 145 361 138 333 136 295 Z M 225 -7 L 225 -7 Z M 321 -82 L 353 -132 C 332 -154 309 -171 285 -182 C 261 -193 234 -199 204 -199 C 170 -199 143 -191 125 -177 C 106 -162 97 -143 97 -121 C 97 -95 106 -72 126 -50 C 146 -28 175 -9 215 6 L 281 6 C 257 -4 238 -17 223 -31 C 207 -45 200 -59 200 -72 C 200 -84 204 -93 212 -100 C 220 -107 231 -111 244 -111 C 260 -111 274 -108 287 -103 C 300 -97 311 -90 321 -82 Z" unicode="ę" />
<glyph horiz-adv-x="403" d="M 50 0 L 50 0 Z M 393 0 L 50 0 L 50 730 L 374 730 L 374 617 L 176 617 L 176 420 L 365 420 L 365 309 L 176 309 L 176 113 L 393 113 L 393 0 Z M 210 791 L 210 791 Z M 62 964 L 159 964 L 211 873 L 264 964 L 359 964 L 261 791 L 160 791 L 62 964 Z" unicode="Ě" />
<glyph horiz-adv-x="405" d="M 18 0 L 18 0 Z M 208 -5 C 151 -5 105 17 70 61 C 35 105 18 166 18 244 C 18 284 22 319 32 351 C 42 383 55 409 72 431 C 88 453 108 469 131 481 C 153 492 177 498 203 498 C 264 498 310 474 341 427 C 371 379 387 309 387 217 L 137 217 C 137 175 144 143 160 121 C 176 99 198 88 227 88 C 250 88 270 93 286 104 C 302 115 316 127 328 140 L 379 78 C 364 59 343 40 315 22 C 287 4 252 -5 208 -5 Z M 136 295 L 274 295 C 273 332 267 360 256 379 C 244 398 229 408 209 408 C 188 408 171 398 158 380 C 145 361 138 333 136 295 Z M 205 555 L 205 555 Z M 57 728 L 154 728 L 206 637 L 259 728 L 354 728 L 256 555 L 155 555 L 57 728 Z" unicode="ě" />
<glyph horiz-adv-x="531" d="M 29 0 L 29 0 Z M 275 375 L 505 375 L 505 117 C 487 81 460 51 422 28 C 384 4 336 -7 278 -7 C 244 -7 211 1 181 17 C 151 33 124 57 102 89 C 80 120 62 159 49 205 C 35 251 29 305 29 365 C 29 421 34 473 46 519 C 58 565 74 604 96 636 C 118 668 144 692 175 710 C 206 727 241 736 279 736 C 339 736 385 722 417 695 C 449 668 472 634 487 592 L 381 546 C 372 568 360 586 346 602 C 331 618 310 626 284 626 C 246 626 215 605 192 565 C 169 525 158 457 158 363 C 158 266 170 197 195 157 C 219 117 249 97 283 97 C 309 97 331 101 349 110 C 367 118 380 131 390 148 L 390 270 L 275 270 L 275 375 Z M 281 791 L 281 791 Z M 430 791 L 333 791 L 281 882 L 228 791 L 133 791 L 231 964 L 332 964 L 430 791 Z" unicode="Ĝ" />
<glyph horiz-adv-x="433" d="M 19 0 L 19 0 Z M 183 8 C 136 8 97 29 66 71 C 34 113 19 173 19 249 C 19 289 23 324 32 355 C 41 386 53 412 68 433 C 82 454 100 470 120 481 C 140 492 160 498 182 498 C 209 498 232 490 250 476 C 268 462 282 446 291 428 L 291 494 L 399 494 L 399 13 C 399 -23 393 -54 381 -81 C 369 -107 354 -129 336 -146 C 317 -162 295 -175 271 -183 C 247 -191 222 -195 198 -195 C 162 -195 132 -191 108 -184 C 84 -176 66 -168 54 -160 L 87 -75 C 101 -81 116 -87 132 -91 C 148 -95 168 -97 191 -97 C 220 -97 243 -87 261 -67 C 278 -47 287 -19 287 17 L 287 77 C 279 58 267 42 249 28 C 231 14 209 8 183 8 Z M 217 97 C 239 97 257 109 271 133 C 284 157 291 197 291 254 C 291 308 283 346 267 369 C 251 391 234 403 216 403 C 193 403 175 390 162 365 C 149 340 143 302 143 252 C 143 201 149 162 161 136 C 173 110 191 97 217 97 Z M 209 555 L 209 555 Z M 358 555 L 261 555 L 209 646 L 156 555 L 61 555 L 159 728 L 260 728 L 358 555 Z" unicode="ĝ" />
<glyph horiz-adv-x="531" d="M 29 0 L 29 0 Z M 275 375 L 505 375 L 505 117 C 487 81 460 51 422 28 C 384 4 336 -7 278 -7 C 244 -7 211 1 181 17 C 151 33 124 57 102 89 C 80 120 62 159 49 205 C 35 251 29 305 29 365 C 29 421 34 473 46 519 C 58 565 74 604 96 636 C 118 668 144 692 175 710 C 206 727 241 736 279 736 C 339 736 385 722 417 695 C 449 668 472 634 487 592 L 381 546 C 372 568 360 586 346 602 C 331 618 310 626 284 626 C 246 626 215 605 192 565 C 169 525 158 457 158 363 C 158 266 170 197 195 157 C 219 117 249 97 283 97 C 309 97 331 101 349 110 C 367 118 380 131 390 148 L 390 270 L 275 270 L 275 375 Z M 281 793 L 281 793 Z M 329 953 L 427 953 C 422 897 407 856 381 831 C 355 805 321 793 281 793 C 240 793 207 805 181 831 C 155 856 140 897 136 953 L 234 953 C 235 929 239 910 246 897 C 252 884 264 878 281 878 C 297 878 309 884 316 896 C 323 908 327 927 329 953 Z" unicode="Ğ" />
<glyph horiz-adv-x="433" d="M 19 0 L 19 0 Z M 183 8 C 136 8 97 29 66 71 C 34 113 19 173 19 249 C 19 289 23 324 32 355 C 41 386 53 412 68 433 C 82 454 100 470 120 481 C 140 492 160 498 182 498 C 209 498 232 490 250 476 C 268 462 282 446 291 428 L 291 494 L 399 494 L 399 13 C 399 -23 393 -54 381 -81 C 369 -107 354 -129 336 -146 C 317 -162 295 -175 271 -183 C 247 -191 222 -195 198 -195 C 162 -195 132 -191 108 -184 C 84 -176 66 -168 54 -160 L 87 -75 C 101 -81 116 -87 132 -91 C 148 -95 168 -97 191 -97 C 220 -97 243 -87 261 -67 C 278 -47 287 -19 287 17 L 287 77 C 279 58 267 42 249 28 C 231 14 209 8 183 8 Z M 217 97 C 239 97 257 109 271 133 C 284 157 291 197 291 254 C 291 308 283 346 267 369 C 251 391 234 403 216 403 C 193 403 175 390 162 365 C 149 340 143 302 143 252 C 143 201 149 162 161 136 C 173 110 191 97 217 97 Z M 209 557 L 209 557 Z M 257 717 L 355 717 C 350 661 335 620 309 595 C 283 569 249 557 209 557 C 168 557 135 569 109 595 C 83 620 68 661 64 717 L 162 717 C 163 693 167 674 174 661 C 180 648 192 642 209 642 C 225 642 237 648 244 660 C 251 672 255 691 257 717 Z" unicode="ğ" />
<glyph horiz-adv-x="531" d="M 29 0 L 29 0 Z M 275 375 L 505 375 L 505 117 C 487 81 460 51 422 28 C 384 4 336 -7 278 -7 C 244 -7 211 1 181 17 C 151 33 124 57 102 89 C 80 120 62 159 49 205 C 35 251 29 305 29 365 C 29 421 34 473 46 519 C 58 565 74 604 96 636 C 118 668 144 692 175 710 C 206 727 241 736 279 736 C 339 736 385 722 417 695 C 449 668 472 634 487 592 L 381 546 C 372 568 360 586 346 602 C 331 618 310 626 284 626 C 246 626 215 605 192 565 C 169 525 158 457 158 363 C 158 266 170 197 195 157 C 219 117 249 97 283 97 C 309 97 331 101 349 110 C 367 118 380 131 390 148 L 390 270 L 275 270 L 275 375 Z M 281 801 L 281 801 Z M 336 801 L 227 801 L 227 931 L 336 931 L 336 801 Z" unicode="Ġ" />
<glyph horiz-adv-x="433" d="M 19 0 L 19 0 Z M 183 8 C 136 8 97 29 66 71 C 34 113 19 173 19 249 C 19 289 23 324 32 355 C 41 386 53 412 68 433 C 82 454 100 470 120 481 C 140 492 160 498 182 498 C 209 498 232 490 250 476 C 268 462 282 446 291 428 L 291 494 L 399 494 L 399 13 C 399 -23 393 -54 381 -81 C 369 -107 354 -129 336 -146 C 317 -162 295 -175 271 -183 C 247 -191 222 -195 198 -195 C 162 -195 132 -191 108 -184 C 84 -176 66 -168 54 -160 L 87 -75 C 101 -81 116 -87 132 -91 C 148 -95 168 -97 191 -97 C 220 -97 243 -87 261 -67 C 278 -47 287 -19 287 17 L 287 77 C 279 58 267 42 249 28 C 231 14 209 8 183 8 Z M 217 97 C 239 97 257 109 271 133 C 284 157 291 197 291 254 C 291 308 283 346 267 369 C 251 391 234 403 216 403 C 193 403 175 390 162 365 C 149 340 143 302 143 252 C 143 201 149 162 161 136 C 173 110 191 97 217 97 Z M 209 565 L 209 565 Z M 264 565 L 155 565 L 155 695 L 264 695 L 264 565 Z" unicode="ġ" />
<glyph horiz-adv-x="531" d="M 29 0 L 29 0 Z M 275 375 L 505 375 L 505 117 C 487 81 460 51 422 28 C 384 4 336 -7 278 -7 C 244 -7 211 1 181 17 C 151 33 124 57 102 89 C 80 120 62 159 49 205 C 35 251 29 305 29 365 C 29 421 34 473 46 519 C 58 565 74 604 96 636 C 118 668 144 692 175 710 C 206 727 241 736 279 736 C 339 736 385 722 417 695 C 449 668 472 634 487 592 L 381 546 C 372 568 360 586 346 602 C 331 618 310 626 284 626 C 246 626 215 605 192 565 C 169 525 158 457 158 363 C 158 266 170 197 195 157 C 219 117 249 97 283 97 C 309 97 331 101 349 110 C 367 118 380 131 390 148 L 390 270 L 275 270 L 275 375 Z M 275 -70 L 275 -70 Z M 372 -70 C 372 -92 368 -117 361 -143 C 354 -169 346 -195 336 -219 C 326 -243 315 -264 303 -284 C 291 -304 280 -318 270 -328 L 179 -288 C 186 -278 193 -266 201 -250 C 209 -234 216 -216 223 -197 C 229 -177 235 -157 240 -135 C 244 -113 247 -91 248 -70 L 372 -70 Z" unicode="Ģ" />
<glyph horiz-adv-x="433" d="M 19 0 L 19 0 Z M 183 8 C 136 8 97 29 66 71 C 34 113 19 173 19 249 C 19 289 23 324 32 355 C 41 386 53 412 68 433 C 82 454 100 470 120 481 C 140 492 160 498 182 498 C 209 498 232 490 250 476 C 268 462 282 446 291 428 L 291 494 L 399 494 L 399 13 C 399 -23 393 -54 381 -81 C 369 -107 354 -129 336 -146 C 317 -162 295 -175 271 -183 C 247 -191 222 -195 198 -195 C 162 -195 132 -191 108 -184 C 84 -176 66 -168 54 -160 L 87 -75 C 101 -81 116 -87 132 -91 C 148 -95 168 -97 191 -97 C 220 -97 243 -87 261 -67 C 278 -47 287 -19 287 17 L 287 77 C 279 58 267 42 249 28 C 231 14 209 8 183 8 Z M 217 97 C 239 97 257 109 271 133 C 284 157 291 197 291 254 C 291 308 283 346 267 369 C 251 391 234 403 216 403 C 193 403 175 390 162 365 C 149 340 143 302 143 252 C 143 201 149 162 161 136 C 173 110 191 97 217 97 Z" unicode="ģ" />
<glyph horiz-adv-x="535" d="M 50 0 L 50 0 Z M 485 0 L 355 0 L 355 304 L 180 304 L 180 0 L 50 0 L 50 730 L 180 730 L 180 417 L 355 417 L 355 730 L 485 730 L 485 0 Z M 266 791 L 266 791 Z M 415 791 L 318 791 L 266 882 L 213 791 L 118 791 L 216 964 L 317 964 L 415 791 Z" unicode="Ĥ" />
<glyph horiz-adv-x="419" d="M 35 0 L 35 0 Z M 386 0 L 267 0 L 267 340 C 267 360 262 374 253 384 C 243 394 230 399 214 399 C 197 399 183 393 171 383 C 159 373 153 354 153 327 L 153 0 L 35 0 L 35 795 L 146 795 L 146 436 C 152 454 165 469 183 481 C 201 493 226 500 258 500 C 296 500 326 490 350 470 C 374 450 386 418 386 374 L 386 0 Z M 212 856 L 212 856 Z M 361 856 L 264 856 L 212 947 L 159 856 L 64 856 L 162 1029 L 263 1029 L 361 856 Z" unicode="ĥ" />
<glyph horiz-adv-x="535" d="M 180 304 L 180 0 L 50 0 L 50 535 L 4 535 L 4 629 L 50 629 L 50 730 L 180 730 L 180 629 L 355 629 L 355 730 L 485 730 L 485 629 L 530 629 L 530 535 L 485 535 L 485 0 L 355 0 L 355 304 L 180 304 Z M 180 417 L 355 417 L 355 535 L 180 535 L 180 417 Z" unicode="Ħ" />
<glyph horiz-adv-x="419" d="M 153 327 L 153 0 L 35 0 L 35 589 L 8 589 L 8 683 L 35 683 L 35 795 L 146 795 L 146 683 L 239 683 L 239 589 L 146 589 L 146 436 C 152 454 165 469 183 481 C 201 493 226 500 258 500 C 296 500 326 490 350 470 C 374 450 386 418 386 374 L 386 0 L 267 0 L 267 340 C 267 360 262 374 253 384 C 243 394 230 399 214 399 C 197 399 183 393 171 383 C 159 373 153 354 153 327 Z" unicode="ħ" />
<glyph horiz-adv-x="237" d="M 0 0 L 0 0 Z M 185 0 L 54 0 L 54 730 L 185 730 L 185 0 Z M 119 795 L 119 795 Z M 195 942 L 283 942 C 283 892 275 855 261 831 C 246 807 227 795 205 795 C 185 795 169 798 156 805 C 142 811 131 817 123 823 C 114 827 105 832 97 838 C 89 843 80 846 72 846 C 64 846 57 841 51 833 C 45 824 43 812 43 798 L -44 798 C -44 848 -34 885 -16 909 C 1 933 21 946 43 946 C 60 946 75 942 87 936 C 99 929 110 922 120 916 C 128 910 136 905 143 901 C 150 897 157 895 165 895 C 171 895 178 899 185 907 C 191 915 195 926 195 942 Z" unicode="Ĩ" />
<glyph horiz-adv-x="192" d="M 0 0 L 0 0 Z M 156 0 L 37 0 L 37 494 L 156 494 L 156 0 Z M 95 559 L 95 559 Z M 171 706 L 259 706 C 259 656 251 619 237 595 C 222 571 203 559 181 559 C 161 559 145 562 132 569 C 118 575 107 581 99 587 C 90 591 81 596 73 602 C 65 607 56 610 48 610 C 40 610 33 605 27 597 C 21 588 19 576 19 562 L -68 562 C -68 612 -58 649 -40 673 C -22 697 -2 710 19 710 C 36 710 51 706 63 700 C 75 693 86 686 96 680 C 104 674 112 669 119 665 C 126 661 133 659 141 659 C 147 659 154 663 161 671 C 167 679 171 690 171 706 Z" unicode="ĩ" />
<glyph horiz-adv-x="237" d="M 0 0 L 0 0 Z M 185 0 L 54 0 L 54 730 L 185 730 L 185 0 Z M 119 805 L 119 805 Z M 248 805 L -10 805 L -10 897 L 248 897 L 248 805 Z" unicode="Ī" />
<glyph horiz-adv-x="192" d="M 0 0 L 0 0 Z M 156 0 L 37 0 L 37 494 L 156 494 L 156 0 Z M 95 569 L 95 569 Z M 224 569 L -34 569 L -34 661 L 224 661 L 224 569 Z" unicode="ī" />
<glyph horiz-adv-x="237" d="M 0 0 L 0 0 Z M 185 0 L 54 0 L 54 730 L 185 730 L 185 0 Z M 119 793 L 119 793 Z M 167 953 L 265 953 C 260 897 245 856 219 831 C 193 805 159 793 119 793 C 78 793 45 805 19 831 C -7 856 -22 897 -26 953 L 72 953 C 73 929 77 910 84 897 C 90 884 102 878 119 878 C 135 878 147 884 154 896 C 161 908 165 927 167 953 Z" unicode="Ĭ" />
<glyph horiz-adv-x="192" d="M 0 0 L 0 0 Z M 156 0 L 37 0 L 37 494 L 156 494 L 156 0 Z M 95 557 L 95 557 Z M 143 717 L 241 717 C 236 661 221 620 195 595 C 169 569 135 557 95 557 C 54 557 21 569 -5 595 C -31 620 -46 661 -50 717 L 48 717 C 49 693 53 674 60 661 C 66 648 78 642 95 642 C 111 642 123 648 130 660 C 137 672 141 691 143 717 Z" unicode="ĭ" />
<glyph horiz-adv-x="237" d="M 0 0 L 0 0 Z M 185 0 L 54 0 L 54 730 L 185 730 L 185 0 Z M 75 -7 L 75 -7 Z M 171 -82 L 203 -132 C 182 -154 159 -171 135 -182 C 111 -193 84 -199 54 -199 C 20 -199 -6 -191 -25 -177 C -43 -162 -53 -143 -53 -121 C -53 -95 -43 -72 -23 -50 C -3 -28 25 -9 65 6 L 131 6 C 107 -4 88 -17 73 -31 C 57 -45 50 -59 50 -72 C 50 -84 54 -93 62 -100 C 70 -107 81 -111 94 -111 C 110 -111 124 -108 137 -103 C 150 -97 161 -90 171 -82 Z" unicode="Į" />
<glyph horiz-adv-x="192" d="M 0 0 L 0 0 Z M 35 565 L 35 673 L 157 673 L 157 565 L 35 565 Z M 37 0 L 37 494 L 155 494 L 155 0 L 37 0 Z M 52 -7 L 52 -7 Z M 148 -82 L 180 -132 C 159 -154 136 -171 112 -182 C 88 -193 61 -199 31 -199 C -3 -199 -29 -191 -48 -177 C -66 -162 -76 -143 -76 -121 C -76 -95 -66 -72 -46 -50 C -26 -28 2 -9 42 6 L 108 6 C 84 -4 65 -17 50 -31 C 34 -45 27 -59 27 -72 C 27 -84 31 -93 39 -100 C 47 -107 58 -111 71 -111 C 87 -111 101 -108 114 -103 C 127 -97 138 -90 148 -82 Z" unicode="į" />
<glyph horiz-adv-x="237" d="M 54 0 L 54 0 Z M 185 0 L 54 0 L 54 730 L 185 730 L 185 0 Z M 119 801 L 119 801 Z M 174 801 L 65 801 L 65 931 L 174 931 L 174 801 Z" unicode="İ" />
<glyph horiz-adv-x="192" d="M 156 0 L 37 0 L 37 494 L 156 494 L 156 0 Z" unicode="ı" />
<glyph horiz-adv-x="520" d="M 54 0 L 54 0 Z M 185 0 L 54 0 L 54 730 L 185 730 L 185 0 Z M 480 730 L 480 182 C 480 126 464 80 432 45 C 400 9 358 -8 306 -8 C 293 -8 278 -6 262 -4 C 246 -2 233 1 224 6 L 237 118 C 241 115 248 113 256 112 C 264 110 273 110 281 110 C 303 110 320 119 332 139 C 344 158 350 182 350 211 L 350 730 L 480 730 Z" unicode="Ĳ" />
<glyph horiz-adv-x="380" d="M 35 0 L 35 0 Z M 35 565 L 35 673 L 157 673 L 157 565 L 35 565 Z M 37 0 L 37 494 L 155 494 L 155 0 L 37 0 Z M 347 565 L 225 565 L 225 673 L 347 673 L 347 565 Z M 345 494 L 345 -71 C 345 -103 334 -130 312 -153 C 290 -175 262 -187 226 -187 C 209 -187 193 -184 178 -180 C 162 -175 152 -171 148 -167 L 175 -84 C 177 -84 181 -85 185 -87 C 189 -88 194 -89 200 -89 C 208 -89 214 -86 219 -80 C 224 -74 227 -66 227 -56 L 227 494 L 345 494 Z" unicode="ĳ" />
<glyph horiz-adv-x="296" d="M 0 0 L 0 0 Z M 249 730 L 249 182 C 249 126 233 80 201 45 C 169 9 127 -8 75 -8 C 62 -8 47 -6 31 -4 C 15 -2 2 1 -7 6 L 6 118 C 10 115 17 113 25 112 C 33 110 42 110 50 110 C 72 110 89 119 101 139 C 113 158 119 182 119 211 L 119 730 L 249 730 Z M 184 791 L 184 791 Z M 333 791 L 236 791 L 184 882 L 131 791 L 36 791 L 134 964 L 235 964 L 333 791 Z" unicode="Ĵ" />
<glyph horiz-adv-x="193" d="M 0 0 L 0 0 Z M 158 494 L 158 -71 C 158 -103 147 -130 125 -153 C 103 -175 75 -187 39 -187 C 22 -187 6 -184 -9 -180 C -24 -175 -34 -171 -39 -167 L -12 -84 C -9 -84 -5 -85 -1 -87 C 2 -88 7 -89 13 -89 C 21 -89 27 -86 32 -80 C 37 -74 40 -66 40 -56 L 40 494 L 158 494 Z M 98 555 L 98 555 Z M 247 555 L 150 555 L 98 646 L 45 555 L -50 555 L 48 728 L 149 728 L 247 555 Z" unicode="ĵ" />
<glyph horiz-adv-x="516" d="M 50 0 L 50 0 Z M 526 0 L 382 0 L 202 296 L 181 268 L 181 0 L 50 0 L 50 730 L 181 730 L 181 433 L 373 730 L 509 730 L 285 399 L 526 0 Z M 259 -70 L 259 -70 Z M 356 -70 C 356 -92 352 -117 345 -143 C 338 -169 330 -195 320 -219 C 310 -243 299 -264 287 -284 C 275 -304 264 -318 254 -328 L 163 -288 C 170 -278 177 -266 185 -250 C 193 -234 200 -216 207 -197 C 213 -177 219 -157 224 -135 C 228 -113 231 -91 232 -70 L 356 -70 Z" unicode="Ķ" />
<glyph horiz-adv-x="397" d="M 35 0 L 35 0 Z M 407 1 L 281 0 L 190 183 L 153 127 L 153 0 L 35 0 L 35 795 L 146 795 L 146 267 L 278 494 L 398 494 L 270 277 L 407 1 Z M 197 -70 L 197 -70 Z M 294 -70 C 294 -92 290 -117 283 -143 C 276 -169 268 -195 258 -219 C 248 -243 237 -264 225 -284 C 213 -304 202 -318 192 -328 L 101 -288 C 108 -278 115 -266 123 -250 C 131 -234 138 -216 145 -197 C 151 -177 157 -157 162 -135 C 166 -113 169 -91 170 -70 L 294 -70 Z" unicode="ķ" />
<glyph horiz-adv-x="397" d="M 407 1 L 281 0 L 190 183 L 153 127 L 153 0 L 35 0 L 35 494 L 146 494 L 146 267 L 278 494 L 398 494 L 270 277 L 407 1 Z" unicode="ĸ" />
<glyph horiz-adv-x="364" d="M 50 0 L 50 0 Z M 357 0 L 50 0 L 50 730 L 180 730 L 180 113 L 357 113 L 357 0 Z M 210 790 L 210 790 Z M 97 790 L 186 964 L 323 964 L 211 790 L 97 790 Z" unicode="Ĺ" />
<glyph horiz-adv-x="188" d="M 35 0 L 35 0 Z M 154 855 L 154 855 Z M 41 855 L 130 1029 L 267 1029 L 155 855 L 41 855 Z M 153 795 L 153 0 L 35 0 L 35 795 L 153 795 Z" unicode="ĺ" />
<glyph horiz-adv-x="364" d="M 50 0 L 50 0 Z M 357 0 L 50 0 L 50 730 L 180 730 L 180 113 L 357 113 L 357 0 Z M 196 -70 L 196 -70 Z M 293 -70 C 293 -92 289 -117 282 -143 C 275 -169 267 -195 257 -219 C 247 -243 236 -264 224 -284 C 212 -304 201 -318 191 -328 L 100 -288 C 107 -278 114 -266 122 -250 C 130 -234 137 -216 144 -197 C 150 -177 156 -157 161 -135 C 165 -113 168 -91 169 -70 L 293 -70 Z" unicode="Ļ" />
<glyph horiz-adv-x="188" d="M 0 0 L 0 0 Z M 153 795 L 153 0 L 35 0 L 35 795 L 153 795 Z M 76 -70 L 76 -70 Z M 173 -70 C 173 -92 169 -117 162 -143 C 155 -169 147 -195 137 -219 C 127 -243 116 -264 104 -284 C 92 -304 81 -318 71 -328 L -20 -288 C -12 -278 -5 -266 2 -250 C 10 -234 17 -216 24 -197 C 30 -177 36 -157 41 -135 C 45 -113 48 -91 49 -70 L 173 -70 Z" unicode="ļ" />
<glyph horiz-adv-x="364" d="M 50 0 L 50 0 Z M 357 0 L 50 0 L 50 730 L 180 730 L 180 113 L 357 113 L 357 0 Z M 380 621 L 375 473 L 273 473 L 268 621 L 268 730 L 380 730 L 380 621 Z" unicode="Ľ" />
<glyph horiz-adv-x="188" d="M 35 0 L 35 0 Z M 153 795 L 153 0 L 35 0 L 35 795 L 153 795 Z M 308 620 L 303 472 L 201 472 L 196 620 L 196 729 L 308 729 L 308 620 Z" unicode="ľ" />
<glyph horiz-adv-x="364" d="M 50 0 L 50 0 Z M 357 0 L 50 0 L 50 730 L 180 730 L 180 113 L 357 113 L 357 0 Z M 290 298 L 290 298 Z M 345 298 L 236 298 L 236 428 L 345 428 L 345 298 Z" unicode="Ŀ" />
<glyph horiz-adv-x="188" d="M 35 0 L 35 0 Z M 153 795 L 153 0 L 35 0 L 35 795 L 153 795 Z M 240 219 L 240 219 Z M 295 219 L 186 219 L 186 349 L 295 349 L 295 219 Z" unicode="ŀ" />
<glyph horiz-adv-x="364" d="M 357 106 L 357 0 L 50 0 L 50 251 L 18 237 L -24 330 L 50 362 L 50 730 L 180 730 L 180 419 L 286 465 L 327 373 L 180 308 L 180 106 L 357 106 Z" unicode="Ł" />
<glyph horiz-adv-x="188" d="M 230 334 L 166 304 L 166 0 L 47 0 L 47 247 L 19 234 L -14 314 L 47 343 L 47 795 L 166 795 L 166 399 L 195 413 L 230 334 Z" unicode="ł" />
<glyph horiz-adv-x="532" d="M 50 0 L 50 0 Z M 482 0 L 391 0 L 172 436 L 172 0 L 50 0 L 50 730 L 141 730 L 365 295 L 365 730 L 482 730 L 482 0 Z M 266 790 L 266 790 Z M 153 790 L 242 964 L 379 964 L 267 790 L 153 790 Z" unicode="Ń" />
<glyph horiz-adv-x="419" d="M 35 0 L 35 0 Z M 386 0 L 267 0 L 267 344 C 267 362 262 375 253 385 C 243 394 231 399 215 399 C 197 399 183 393 171 383 C 159 373 153 354 153 328 L 153 0 L 35 0 L 35 494 L 142 494 L 142 429 C 150 449 163 466 183 480 C 203 493 229 500 262 500 C 299 500 329 490 352 472 C 374 453 386 423 386 381 L 386 0 Z M 211 554 L 211 554 Z M 98 554 L 187 728 L 324 728 L 212 554 L 98 554 Z" unicode="ń" />
<glyph horiz-adv-x="532" d="M 50 0 L 50 0 Z M 482 0 L 391 0 L 172 436 L 172 0 L 50 0 L 50 730 L 141 730 L 365 295 L 365 730 L 482 730 L 482 0 Z M 254 -70 L 254 -70 Z M 351 -70 C 351 -92 347 -117 340 -143 C 333 -169 325 -195 315 -219 C 305 -243 294 -264 282 -284 C 270 -304 259 -318 249 -328 L 158 -288 C 165 -278 172 -266 180 -250 C 188 -234 195 -216 202 -197 C 208 -177 214 -157 219 -135 C 223 -113 226 -91 227 -70 L 351 -70 Z" unicode="Ņ" />
<glyph horiz-adv-x="419" d="M 35 0 L 35 0 Z M 386 0 L 267 0 L 267 344 C 267 362 262 375 253 385 C 243 394 231 399 215 399 C 197 399 183 393 171 383 C 159 373 153 354 153 328 L 153 0 L 35 0 L 35 494 L 142 494 L 142 429 C 150 449 163 466 183 480 C 203 493 229 500 262 500 C 299 500 329 490 352 472 C 374 453 386 423 386 381 L 386 0 Z M 198 -70 L 198 -70 Z M 295 -70 C 295 -92 291 -117 284 -143 C 277 -169 269 -195 259 -219 C 249 -243 238 -264 226 -284 C 214 -304 203 -318 193 -328 L 102 -288 C 109 -278 116 -266 124 -250 C 132 -234 139 -216 146 -197 C 152 -177 158 -157 163 -135 C 167 -113 170 -91 171 -70 L 295 -70 Z" unicode="ņ" />
<glyph horiz-adv-x="532" d="M 50 0 L 50 0 Z M 482 0 L 391 0 L 172 436 L 172 0 L 50 0 L 50 730 L 141 730 L 365 295 L 365 730 L 482 730 L 482 0 Z M 266 791 L 266 791 Z M 118 964 L 215 964 L 267 873 L 320 964 L 415 964 L 317 791 L 216 791 L 118 964 Z" unicode="Ň" />
<glyph horiz-adv-x="419" d="M 35 0 L 35 0 Z M 386 0 L 267 0 L 267 344 C 267 362 262 375 253 385 C 243 394 231 399 215 399 C 197 399 183 393 171 383 C 159 373 153 354 153 328 L 153 0 L 35 0 L 35 494 L 142 494 L 142 429 C 150 449 163 466 183 480 C 203 493 229 500 262 500 C 299 500 329 490 352 472 C 374 453 386 423 386 381 L 386 0 Z M 211 555 L 211 555 Z M 63 728 L 160 728 L 212 637 L 265 728 L 360 728 L 262 555 L 161 555 L 63 728 Z" unicode="ň" />
<glyph horiz-adv-x="532" d="M 365 730 L 482 730 L 482 -6 C 482 -62 467 -107 439 -143 C 410 -178 369 -196 317 -196 C 303 -196 289 -194 273 -192 C 257 -190 244 -186 235 -182 L 248 -70 C 252 -72 258 -74 266 -76 C 274 -77 283 -78 292 -78 C 313 -78 330 -68 344 -49 C 358 -29 365 -5 365 23 L 365 52 L 172 436 L 172 0 L 50 0 L 50 730 L 141 730 L 365 295 L 365 730 Z" unicode="Ŋ" />
<glyph horiz-adv-x="419" d="M 262 500 C 299 500 329 490 352 472 C 374 453 386 423 386 381 L 386 -48 C 386 -90 373 -126 349 -155 C 325 -184 290 -199 245 -199 C 231 -199 217 -197 201 -194 C 185 -191 174 -188 168 -184 L 190 -90 C 193 -90 197 -91 203 -93 C 209 -94 215 -95 221 -95 C 235 -95 247 -88 255 -75 C 263 -62 267 -46 267 -28 L 267 344 C 267 362 262 375 253 385 C 243 394 231 399 215 399 C 197 399 183 393 171 383 C 159 373 153 354 153 328 L 153 0 L 35 0 L 35 494 L 142 494 L 142 429 C 150 449 163 466 183 480 C 203 493 229 500 262 500 Z" unicode="ŋ" />
<glyph horiz-adv-x="567" d="M 29 0 L 29 0 Z M 286 -7 C 201 -7 137 25 94 91 C 50 156 29 249 29 371 C 29 485 51 574 95 639 C 139 704 201 737 281 737 C 365 737 429 705 473 641 C 517 577 539 485 539 365 C 539 249 516 158 470 92 C 424 26 363 -7 286 -7 Z M 284 99 C 324 99 354 120 375 163 C 396 205 407 275 407 372 C 407 461 396 526 374 568 C 352 609 322 630 282 630 C 240 630 210 609 190 569 C 170 528 161 460 161 365 C 161 269 171 200 193 160 C 215 119 245 99 284 99 Z M 282 805 L 282 805 Z M 411 805 L 153 805 L 153 897 L 411 897 L 411 805 Z" unicode="Ō" />
<glyph horiz-adv-x="421" d="M 18 0 L 18 0 Z M 210 -5 C 154 -5 108 16 72 58 C 36 100 18 163 18 246 C 18 322 35 384 69 430 C 103 476 149 499 205 499 C 265 499 313 478 349 436 C 385 394 404 335 404 259 C 404 178 386 114 352 66 C 317 18 270 -5 210 -5 Z M 211 88 C 233 88 250 100 262 124 C 273 148 279 190 279 250 C 279 308 273 349 261 371 C 249 393 231 404 209 404 C 187 404 171 392 159 370 C 147 348 142 308 142 250 C 142 186 148 143 161 121 C 173 99 190 88 211 88 Z M 211 569 L 211 569 Z M 340 569 L 82 569 L 82 661 L 340 661 L 340 569 Z" unicode="ō" />
<glyph horiz-adv-x="567" d="M 29 0 L 29 0 Z M 286 -7 C 201 -7 137 25 94 91 C 50 156 29 249 29 371 C 29 485 51 574 95 639 C 139 704 201 737 281 737 C 365 737 429 705 473 641 C 517 577 539 485 539 365 C 539 249 516 158 470 92 C 424 26 363 -7 286 -7 Z M 284 99 C 324 99 354 120 375 163 C 396 205 407 275 407 372 C 407 461 396 526 374 568 C 352 609 322 630 282 630 C 240 630 210 609 190 569 C 170 528 161 460 161 365 C 161 269 171 200 193 160 C 215 119 245 99 284 99 Z M 282 793 L 282 793 Z M 330 953 L 428 953 C 423 897 408 856 382 831 C 356 805 322 793 282 793 C 241 793 208 805 182 831 C 156 856 141 897 137 953 L 235 953 C 236 929 240 910 247 897 C 253 884 265 878 282 878 C 298 878 310 884 317 896 C 324 908 328 927 330 953 Z" unicode="Ŏ" />
<glyph horiz-adv-x="421" d="M 18 0 L 18 0 Z M 210 -5 C 154 -5 108 16 72 58 C 36 100 18 163 18 246 C 18 322 35 384 69 430 C 103 476 149 499 205 499 C 265 499 313 478 349 436 C 385 394 404 335 404 259 C 404 178 386 114 352 66 C 317 18 270 -5 210 -5 Z M 211 88 C 233 88 250 100 262 124 C 273 148 279 190 279 250 C 279 308 273 349 261 371 C 249 393 231 404 209 404 C 187 404 171 392 159 370 C 147 348 142 308 142 250 C 142 186 148 143 161 121 C 173 99 190 88 211 88 Z M 211 557 L 211 557 Z M 259 717 L 357 717 C 352 661 337 620 311 595 C 285 569 251 557 211 557 C 170 557 137 569 111 595 C 85 620 70 661 66 717 L 164 717 C 165 693 169 674 176 661 C 182 648 194 642 211 642 C 227 642 239 648 246 660 C 253 672 257 691 259 717 Z" unicode="ŏ" />
<glyph horiz-adv-x="567" d="M 29 0 L 29 0 Z M 286 -7 C 201 -7 137 25 94 91 C 50 156 29 249 29 371 C 29 485 51 574 95 639 C 139 704 201 737 281 737 C 365 737 429 705 473 641 C 517 577 539 485 539 365 C 539 249 516 158 470 92 C 424 26 363 -7 286 -7 Z M 284 99 C 324 99 354 120 375 163 C 396 205 407 275 407 372 C 407 461 396 526 374 568 C 352 609 322 630 282 630 C 240 630 210 609 190 569 C 170 528 161 460 161 365 C 161 269 171 200 193 160 C 215 119 245 99 284 99 Z M 282 790 L 282 790 Z M 91 790 L 158 954 L 284 954 L 196 790 L 91 790 Z M 280 790 L 348 954 L 474 954 L 385 790 L 280 790 Z" unicode="Ő" />
<glyph horiz-adv-x="421" d="M 18 0 L 18 0 Z M 210 -5 C 154 -5 108 16 72 58 C 36 100 18 163 18 246 C 18 322 35 384 69 430 C 103 476 149 499 205 499 C 265 499 313 478 349 436 C 385 394 404 335 404 259 C 404 178 386 114 352 66 C 317 18 270 -5 210 -5 Z M 211 88 C 233 88 250 100 262 124 C 273 148 279 190 279 250 C 279 308 273 349 261 371 C 249 393 231 404 209 404 C 187 404 171 392 159 370 C 147 348 142 308 142 250 C 142 186 148 143 161 121 C 173 99 190 88 211 88 Z M 211 554 L 211 554 Z M 20 554 L 87 718 L 213 718 L 125 554 L 20 554 Z M 209 554 L 277 718 L 403 718 L 314 554 L 209 554 Z" unicode="ő" />
<glyph horiz-adv-x="746" d="M 257 -6 C 185 -6 129 25 89 89 C 49 152 29 246 29 371 C 29 488 49 578 91 641 C 133 704 187 736 255 736 C 294 736 325 727 348 709 C 371 691 386 671 393 649 L 393 730 L 717 730 L 717 621 L 519 621 L 519 417 L 707 417 L 707 309 L 519 309 L 519 109 L 735 109 L 735 0 L 393 0 L 393 86 C 385 63 370 42 347 23 C 323 3 293 -6 257 -6 Z M 277 88 C 315 88 344 110 364 155 C 384 200 394 272 394 372 C 394 465 383 533 363 576 C 342 618 313 640 275 640 C 235 640 206 619 188 578 C 170 536 161 465 161 365 C 161 263 171 192 191 150 C 211 108 239 88 277 88 Z" unicode="Œ" />
<glyph horiz-adv-x="660" d="M 205 -5 C 152 -5 108 16 72 58 C 36 100 18 163 18 246 C 18 322 35 384 70 430 C 104 476 150 499 206 499 C 244 499 274 489 297 470 C 320 451 334 430 338 408 C 342 429 355 449 377 469 C 399 488 427 498 463 498 C 521 498 565 474 595 427 C 625 380 641 310 641 217 L 393 217 C 393 177 400 145 416 122 C 432 99 453 88 481 88 C 503 88 523 93 540 103 C 557 113 572 125 585 138 L 636 76 C 621 58 600 40 574 22 C 547 4 513 -5 471 -5 C 431 -5 400 3 378 21 C 356 39 342 59 337 81 C 328 59 313 40 291 22 C 269 4 240 -5 205 -5 Z M 392 294 L 530 294 C 529 331 523 359 511 379 C 499 398 482 408 462 408 C 441 408 425 398 413 378 C 401 358 394 330 392 294 Z M 211 88 C 233 88 250 100 262 124 C 274 148 280 190 280 250 C 280 308 273 349 261 371 C 249 393 231 404 209 404 C 188 404 172 392 160 370 C 148 348 142 308 142 250 C 142 186 148 143 161 121 C 173 99 190 88 211 88 Z" unicode="œ" />
<glyph horiz-adv-x="475" d="M 50 0 L 50 0 Z M 50 0 L 50 730 L 232 730 C 288 730 334 713 370 680 C 406 646 425 596 425 529 C 425 477 414 433 392 397 C 370 361 343 339 310 333 L 307 327 L 478 0 L 345 0 L 196 293 L 169 293 L 169 0 L 50 0 Z M 169 402 L 213 402 C 239 402 261 411 279 431 C 296 451 305 478 305 513 C 305 551 296 578 278 596 C 260 614 240 623 217 623 L 169 623 L 169 402 Z M 219 790 L 219 790 Z M 106 790 L 195 964 L 332 964 L 220 790 L 106 790 Z" unicode="Ŕ" />
<glyph horiz-adv-x="314" d="M 35 0 L 35 0 Z M 320 468 L 283 370 C 273 378 263 384 255 387 C 246 390 236 392 226 392 C 211 392 195 385 178 373 C 161 360 153 333 153 293 L 153 0 L 35 0 L 35 494 L 148 494 L 148 421 C 154 441 166 459 183 475 C 199 491 219 499 242 499 C 260 499 275 495 289 489 C 302 482 312 475 320 468 Z M 181 554 L 181 554 Z M 68 554 L 157 728 L 294 728 L 182 554 L 68 554 Z" unicode="ŕ" />
<glyph horiz-adv-x="475" d="M 50 0 L 50 0 Z M 50 0 L 50 730 L 232 730 C 288 730 334 713 370 680 C 406 646 425 596 425 529 C 425 477 414 433 392 397 C 370 361 343 339 310 333 L 307 327 L 478 0 L 345 0 L 196 293 L 169 293 L 169 0 L 50 0 Z M 169 402 L 213 402 C 239 402 261 411 279 431 C 296 451 305 478 305 513 C 305 551 296 578 278 596 C 260 614 240 623 217 623 L 169 623 L 169 402 Z M 232 -70 L 232 -70 Z M 329 -70 C 329 -92 325 -117 318 -143 C 311 -169 303 -195 293 -219 C 283 -243 272 -264 260 -284 C 248 -304 237 -318 227 -328 L 136 -288 C 143 -278 150 -266 158 -250 C 166 -234 173 -216 180 -197 C 186 -177 192 -157 197 -135 C 201 -113 204 -91 205 -70 L 329 -70 Z" unicode="Ŗ" />
<glyph horiz-adv-x="314" d="M 35 0 L 35 0 Z M 320 468 L 283 370 C 273 378 263 384 255 387 C 246 390 236 392 226 392 C 211 392 195 385 178 373 C 161 360 153 333 153 293 L 153 0 L 35 0 L 35 494 L 148 494 L 148 421 C 154 441 166 459 183 475 C 199 491 219 499 242 499 C 260 499 275 495 289 489 C 302 482 312 475 320 468 Z M 165 -70 L 165 -70 Z M 262 -70 C 262 -92 258 -117 251 -143 C 244 -169 236 -195 226 -219 C 216 -243 205 -264 193 -284 C 181 -304 170 -318 160 -328 L 69 -288 C 76 -278 83 -266 91 -250 C 99 -234 106 -216 113 -197 C 119 -177 125 -157 130 -135 C 134 -113 137 -91 138 -70 L 262 -70 Z" unicode="ŗ" />
<glyph horiz-adv-x="475" d="M 50 0 L 50 0 Z M 50 0 L 50 730 L 232 730 C 288 730 334 713 370 680 C 406 646 425 596 425 529 C 425 477 414 433 392 397 C 370 361 343 339 310 333 L 307 327 L 478 0 L 345 0 L 196 293 L 169 293 L 169 0 L 50 0 Z M 169 402 L 213 402 C 239 402 261 411 279 431 C 296 451 305 478 305 513 C 305 551 296 578 278 596 C 260 614 240 623 217 623 L 169 623 L 169 402 Z M 219 791 L 219 791 Z M 71 964 L 168 964 L 220 873 L 273 964 L 368 964 L 270 791 L 169 791 L 71 964 Z" unicode="Ř" />
<glyph horiz-adv-x="314" d="M 33 0 L 33 0 Z M 320 468 L 283 370 C 273 378 263 384 255 387 C 246 390 236 392 226 392 C 211 392 195 385 178 373 C 161 360 153 333 153 293 L 153 0 L 35 0 L 35 494 L 148 494 L 148 421 C 154 441 166 459 183 475 C 199 491 219 499 242 499 C 260 499 275 495 289 489 C 302 482 312 475 320 468 Z M 181 555 L 181 555 Z M 33 728 L 130 728 L 182 637 L 235 728 L 330 728 L 232 555 L 131 555 L 33 728 Z" unicode="ř" />
<glyph horiz-adv-x="429" d="M 12 0 L 12 0 Z M 214 -7 C 173 -7 136 0 103 12 C 70 24 40 48 12 82 L 84 159 C 98 137 116 121 138 109 C 160 97 181 91 203 91 C 227 91 248 99 266 116 C 284 133 293 156 293 186 C 293 216 284 241 268 260 C 252 279 222 303 179 331 C 137 357 102 387 74 421 C 46 454 33 500 33 558 C 33 585 38 610 48 632 C 58 654 72 673 90 689 C 107 704 127 716 151 724 C 174 732 199 737 225 737 C 267 737 301 730 329 716 C 357 702 378 687 394 670 L 325 590 C 314 601 300 611 283 619 C 266 627 248 631 230 631 C 210 631 192 624 176 610 C 160 596 152 577 152 552 C 152 528 159 507 173 490 C 186 473 215 451 261 423 C 313 391 350 357 374 322 C 397 286 409 242 409 188 C 409 155 403 126 392 102 C 380 78 366 57 348 41 C 330 25 309 13 286 5 C 262 -3 238 -7 214 -7 Z M 217 790 L 217 790 Z M 104 790 L 193 964 L 330 964 L 218 790 L 104 790 Z" unicode="Ś" />
<glyph horiz-adv-x="324" d="M 11 0 L 11 0 Z M 169 -6 C 134 -6 103 0 75 13 C 47 26 25 43 11 64 L 65 140 C 77 123 91 110 108 101 C 124 92 140 88 155 88 C 167 88 179 92 190 100 C 200 108 206 121 206 137 C 206 153 198 166 184 177 C 170 187 150 200 126 215 C 98 231 75 250 56 273 C 36 295 27 328 27 370 C 27 404 40 435 66 461 C 92 487 125 500 164 500 C 193 500 219 495 242 487 C 264 478 283 467 298 455 L 250 372 C 241 379 229 386 215 393 C 201 400 187 404 175 404 C 161 404 150 400 140 394 C 130 388 126 379 126 367 C 126 353 132 342 145 333 C 157 323 178 310 206 294 C 240 273 265 251 282 228 C 298 205 307 173 307 133 C 307 109 302 88 293 70 C 284 52 273 38 260 27 C 246 16 231 8 215 2 C 199 -3 183 -6 169 -6 Z M 165 554 L 165 554 Z M 52 554 L 141 728 L 278 728 L 166 554 L 52 554 Z" unicode="ś" />
<glyph horiz-adv-x="429" d="M 12 0 L 12 0 Z M 214 -7 C 173 -7 136 0 103 12 C 70 24 40 48 12 82 L 84 159 C 98 137 116 121 138 109 C 160 97 181 91 203 91 C 227 91 248 99 266 116 C 284 133 293 156 293 186 C 293 216 284 241 268 260 C 252 279 222 303 179 331 C 137 357 102 387 74 421 C 46 454 33 500 33 558 C 33 585 38 610 48 632 C 58 654 72 673 90 689 C 107 704 127 716 151 724 C 174 732 199 737 225 737 C 267 737 301 730 329 716 C 357 702 378 687 394 670 L 325 590 C 314 601 300 611 283 619 C 266 627 248 631 230 631 C 210 631 192 624 176 610 C 160 596 152 577 152 552 C 152 528 159 507 173 490 C 186 473 215 451 261 423 C 313 391 350 357 374 322 C 397 286 409 242 409 188 C 409 155 403 126 392 102 C 380 78 366 57 348 41 C 330 25 309 13 286 5 C 262 -3 238 -7 214 -7 Z M 217 791 L 217 791 Z M 366 791 L 269 791 L 217 882 L 164 791 L 69 791 L 167 964 L 268 964 L 366 791 Z" unicode="Ŝ" />
<glyph horiz-adv-x="324" d="M 11 0 L 11 0 Z M 169 -6 C 134 -6 103 0 75 13 C 47 26 25 43 11 64 L 65 140 C 77 123 91 110 108 101 C 124 92 140 88 155 88 C 167 88 179 92 190 100 C 200 108 206 121 206 137 C 206 153 198 166 184 177 C 170 187 150 200 126 215 C 98 231 75 250 56 273 C 36 295 27 328 27 370 C 27 404 40 435 66 461 C 92 487 125 500 164 500 C 193 500 219 495 242 487 C 264 478 283 467 298 455 L 250 372 C 241 379 229 386 215 393 C 201 400 187 404 175 404 C 161 404 150 400 140 394 C 130 388 126 379 126 367 C 126 353 132 342 145 333 C 157 323 178 310 206 294 C 240 273 265 251 282 228 C 298 205 307 173 307 133 C 307 109 302 88 293 70 C 284 52 273 38 260 27 C 246 16 231 8 215 2 C 199 -3 183 -6 169 -6 Z M 165 555 L 165 555 Z M 314 555 L 217 555 L 165 646 L 112 555 L 17 555 L 115 728 L 216 728 L 314 555 Z" unicode="ŝ" />
<glyph horiz-adv-x="429" d="M 12 0 L 12 0 Z M 214 -7 C 173 -7 136 0 103 12 C 70 24 40 48 12 82 L 84 159 C 98 137 116 121 138 109 C 160 97 181 91 203 91 C 227 91 248 99 266 116 C 284 133 293 156 293 186 C 293 216 284 241 268 260 C 252 279 222 303 179 331 C 137 357 102 387 74 421 C 46 454 33 500 33 558 C 33 585 38 610 48 632 C 58 654 72 673 90 689 C 107 704 127 716 151 724 C 174 732 199 737 225 737 C 267 737 301 730 329 716 C 357 702 378 687 394 670 L 325 590 C 314 601 300 611 283 619 C 266 627 248 631 230 631 C 210 631 192 624 176 610 C 160 596 152 577 152 552 C 152 528 159 507 173 490 C 186 473 215 451 261 423 C 313 391 350 357 374 322 C 397 286 409 242 409 188 C 409 155 403 126 392 102 C 380 78 366 57 348 41 C 330 25 309 13 286 5 C 262 -3 238 -7 214 -7 Z M 192 0 L 192 0 Z M 196 -182 C 174 -182 152 -179 132 -173 C 112 -167 95 -159 83 -149 L 104 -105 C 111 -109 121 -114 134 -120 C 146 -126 160 -129 175 -129 C 185 -129 194 -126 202 -121 C 210 -116 214 -109 214 -101 C 214 -91 210 -83 203 -79 C 196 -75 189 -73 181 -73 C 174 -73 168 -73 164 -74 C 159 -75 154 -77 150 -79 L 135 -59 L 192 14 L 252 14 L 208 -42 C 234 -39 257 -43 275 -54 C 293 -65 302 -82 302 -105 C 302 -129 291 -147 271 -161 C 250 -175 225 -182 196 -182 Z" unicode="Ş" />
<glyph horiz-adv-x="324" d="M 11 0 L 11 0 Z M 169 -6 C 134 -6 103 0 75 13 C 47 26 25 43 11 64 L 65 140 C 77 123 91 110 108 101 C 124 92 140 88 155 88 C 167 88 179 92 190 100 C 200 108 206 121 206 137 C 206 153 198 166 184 177 C 170 187 150 200 126 215 C 98 231 75 250 56 273 C 36 295 27 328 27 370 C 27 404 40 435 66 461 C 92 487 125 500 164 500 C 193 500 219 495 242 487 C 264 478 283 467 298 455 L 250 372 C 241 379 229 386 215 393 C 201 400 187 404 175 404 C 161 404 150 400 140 394 C 130 388 126 379 126 367 C 126 353 132 342 145 333 C 157 323 178 310 206 294 C 240 273 265 251 282 228 C 298 205 307 173 307 133 C 307 109 302 88 293 70 C 284 52 273 38 260 27 C 246 16 231 8 215 2 C 199 -3 183 -6 169 -6 Z M 149 0 L 149 0 Z M 153 -182 C 131 -182 109 -179 89 -173 C 69 -167 52 -159 40 -149 L 61 -105 C 68 -109 78 -114 91 -120 C 103 -126 117 -129 132 -129 C 142 -129 151 -126 159 -121 C 167 -116 171 -109 171 -101 C 171 -91 167 -83 160 -79 C 153 -75 146 -73 138 -73 C 131 -73 125 -73 121 -74 C 116 -75 111 -77 107 -79 L 92 -59 L 149 14 L 209 14 L 165 -42 C 191 -39 214 -43 232 -54 C 250 -65 259 -82 259 -105 C 259 -129 248 -147 228 -161 C 207 -175 182 -182 153 -182 Z" unicode="ş" />
<glyph horiz-adv-x="429" d="M 12 0 L 12 0 Z M 214 -7 C 173 -7 136 0 103 12 C 70 24 40 48 12 82 L 84 159 C 98 137 116 121 138 109 C 160 97 181 91 203 91 C 227 91 248 99 266 116 C 284 133 293 156 293 186 C 293 216 284 241 268 260 C 252 279 222 303 179 331 C 137 357 102 387 74 421 C 46 454 33 500 33 558 C 33 585 38 610 48 632 C 58 654 72 673 90 689 C 107 704 127 716 151 724 C 174 732 199 737 225 737 C 267 737 301 730 329 716 C 357 702 378 687 394 670 L 325 590 C 314 601 300 611 283 619 C 266 627 248 631 230 631 C 210 631 192 624 176 610 C 160 596 152 577 152 552 C 152 528 159 507 173 490 C 186 473 215 451 261 423 C 313 391 350 357 374 322 C 397 286 409 242 409 188 C 409 155 403 126 392 102 C 380 78 366 57 348 41 C 330 25 309 13 286 5 C 262 -3 238 -7 214 -7 Z M 217 791 L 217 791 Z M 69 964 L 166 964 L 218 873 L 271 964 L 366 964 L 268 791 L 167 791 L 69 964 Z" unicode="Š" />
<glyph horiz-adv-x="324" d="M 11 0 L 11 0 Z M 169 -6 C 134 -6 103 0 75 13 C 47 26 25 43 11 64 L 65 140 C 77 123 91 110 108 101 C 124 92 140 88 155 88 C 167 88 179 92 190 100 C 200 108 206 121 206 137 C 206 153 198 166 184 177 C 170 187 150 200 126 215 C 98 231 75 250 56 273 C 36 295 27 328 27 370 C 27 404 40 435 66 461 C 92 487 125 500 164 500 C 193 500 219 495 242 487 C 264 478 283 467 298 455 L 250 372 C 241 379 229 386 215 393 C 201 400 187 404 175 404 C 161 404 150 400 140 394 C 130 388 126 379 126 367 C 126 353 132 342 145 333 C 157 323 178 310 206 294 C 240 273 265 251 282 228 C 298 205 307 173 307 133 C 307 109 302 88 293 70 C 284 52 273 38 260 27 C 246 16 231 8 215 2 C 199 -3 183 -6 169 -6 Z M 165 555 L 165 555 Z M 17 728 L 114 728 L 166 637 L 219 728 L 314 728 L 216 555 L 115 555 L 17 728 Z" unicode="š" />
<glyph horiz-adv-x="387" d="M 5 0 L 5 0 Z M 382 617 L 259 617 L 259 0 L 129 0 L 129 617 L 5 617 L 5 730 L 382 730 L 382 617 Z M 193 791 L 193 791 Z M 45 964 L 142 964 L 194 873 L 247 964 L 342 964 L 244 791 L 143 791 L 45 964 Z" unicode="Ť" />
<glyph horiz-adv-x="246" d="M 6 0 L 6 0 Z M 223 108 L 247 21 C 240 15 230 9 218 4 C 206 -1 189 -4 168 -4 C 156 -4 143 -1 129 3 C 115 7 102 15 90 26 C 78 36 68 50 60 67 C 52 84 48 105 48 129 L 48 394 L 6 394 L 6 494 L 51 494 L 51 628 L 163 638 L 163 494 L 227 494 L 227 394 L 166 394 L 166 134 C 166 122 168 114 174 108 C 180 102 187 99 196 99 C 200 99 205 99 211 101 C 216 103 220 105 223 108 Z M 362 621 L 357 473 L 255 473 L 250 621 L 250 730 L 362 730 L 362 621 Z" unicode="ť" />
<glyph horiz-adv-x="387" d="M 359 412 L 259 412 L 259 0 L 129 0 L 129 412 L 29 412 L 29 511 L 129 511 L 129 617 L 5 617 L 5 730 L 382 730 L 382 617 L 259 617 L 259 511 L 359 511 L 359 412 Z" unicode="Ŧ" />
<glyph horiz-adv-x="246" d="M 247 21 C 240 15 230 9 218 4 C 206 -1 189 -4 168 -4 C 156 -4 143 -1 129 3 C 115 7 102 15 90 26 C 78 36 68 50 60 67 C 52 84 48 105 48 129 L 48 249 L 15 249 L 15 339 L 48 339 L 48 394 L 6 394 L 6 494 L 51 494 L 51 628 L 163 638 L 163 494 L 227 494 L 227 394 L 166 394 L 166 339 L 211 339 L 211 249 L 166 249 L 166 134 C 166 122 168 114 174 108 C 180 102 187 99 196 99 C 200 99 205 99 211 101 C 216 103 220 105 223 108 L 247 21 Z" unicode="ŧ" />
<glyph horiz-adv-x="536" d="M 47 0 L 47 0 Z M 489 730 L 489 224 C 489 182 482 147 470 118 C 457 88 440 64 419 46 C 398 28 374 14 346 6 C 318 -2 289 -7 260 -7 C 231 -7 204 -2 178 5 C 152 13 130 27 111 45 C 91 63 76 86 64 116 C 52 146 47 182 47 224 L 47 730 L 175 730 L 175 219 C 175 177 183 147 200 130 C 216 113 238 105 264 105 C 290 105 311 113 329 129 C 346 145 355 175 355 219 L 355 730 L 489 730 Z M 265 795 L 265 795 Z M 341 942 L 429 942 C 429 892 421 855 407 831 C 392 807 373 795 351 795 C 331 795 315 798 302 805 C 288 811 277 817 269 823 C 260 827 251 832 243 838 C 235 843 226 846 218 846 C 210 846 203 841 197 833 C 191 824 189 812 189 798 L 102 798 C 102 848 111 885 129 909 C 147 933 167 946 189 946 C 206 946 221 942 233 936 C 245 929 256 922 266 916 C 274 910 282 905 289 901 C 296 897 303 895 311 895 C 317 895 324 899 331 907 C 337 915 341 926 341 942 Z" unicode="Ũ" />
<glyph horiz-adv-x="419" d="M 33 0 L 33 0 Z M 33 494 L 152 494 L 152 152 C 152 129 157 112 167 102 C 177 91 190 86 207 86 C 223 86 236 92 248 104 C 260 116 266 138 266 170 L 266 494 L 385 494 L 385 0 L 274 0 L 274 58 C 266 40 251 24 231 12 C 211 0 186 -6 158 -6 C 124 -6 95 4 70 25 C 45 46 33 79 33 123 L 33 494 Z M 209 559 L 209 559 Z M 285 706 L 373 706 C 373 656 365 619 351 595 C 336 571 317 559 295 559 C 275 559 259 562 246 569 C 232 575 221 581 213 587 C 204 591 195 596 187 602 C 179 607 170 610 162 610 C 154 610 147 605 141 597 C 135 588 133 576 133 562 L 46 562 C 46 612 55 649 73 673 C 91 697 111 710 133 710 C 150 710 165 706 177 700 C 189 693 200 686 210 680 C 218 674 226 669 233 665 C 240 661 247 659 255 659 C 261 659 268 663 275 671 C 281 679 285 690 285 706 Z" unicode="ũ" />
<glyph horiz-adv-x="536" d="M 47 0 L 47 0 Z M 489 730 L 489 224 C 489 182 482 147 470 118 C 457 88 440 64 419 46 C 398 28 374 14 346 6 C 318 -2 289 -7 260 -7 C 231 -7 204 -2 178 5 C 152 13 130 27 111 45 C 91 63 76 86 64 116 C 52 146 47 182 47 224 L 47 730 L 175 730 L 175 219 C 175 177 183 147 200 130 C 216 113 238 105 264 105 C 290 105 311 113 329 129 C 346 145 355 175 355 219 L 355 730 L 489 730 Z M 265 805 L 265 805 Z M 394 805 L 136 805 L 136 897 L 394 897 L 394 805 Z" unicode="Ū" />
<glyph horiz-adv-x="419" d="M 33 0 L 33 0 Z M 33 494 L 152 494 L 152 152 C 152 129 157 112 167 102 C 177 91 190 86 207 86 C 223 86 236 92 248 104 C 260 116 266 138 266 170 L 266 494 L 385 494 L 385 0 L 274 0 L 274 58 C 266 40 251 24 231 12 C 211 0 186 -6 158 -6 C 124 -6 95 4 70 25 C 45 46 33 79 33 123 L 33 494 Z M 209 569 L 209 569 Z M 338 569 L 80 569 L 80 661 L 338 661 L 338 569 Z" unicode="ū" />
<glyph horiz-adv-x="536" d="M 47 0 L 47 0 Z M 489 730 L 489 224 C 489 182 482 147 470 118 C 457 88 440 64 419 46 C 398 28 374 14 346 6 C 318 -2 289 -7 260 -7 C 231 -7 204 -2 178 5 C 152 13 130 27 111 45 C 91 63 76 86 64 116 C 52 146 47 182 47 224 L 47 730 L 175 730 L 175 219 C 175 177 183 147 200 130 C 216 113 238 105 264 105 C 290 105 311 113 329 129 C 346 145 355 175 355 219 L 355 730 L 489 730 Z M 265 793 L 265 793 Z M 313 953 L 411 953 C 406 897 391 856 365 831 C 339 805 305 793 265 793 C 224 793 191 805 165 831 C 139 856 124 897 120 953 L 218 953 C 219 929 223 910 230 897 C 236 884 248 878 265 878 C 281 878 293 884 300 896 C 307 908 311 927 313 953 Z" unicode="Ŭ" />
<glyph horiz-adv-x="419" d="M 33 0 L 33 0 Z M 33 494 L 152 494 L 152 152 C 152 129 157 112 167 102 C 177 91 190 86 207 86 C 223 86 236 92 248 104 C 260 116 266 138 266 170 L 266 494 L 385 494 L 385 0 L 274 0 L 274 58 C 266 40 251 24 231 12 C 211 0 186 -6 158 -6 C 124 -6 95 4 70 25 C 45 46 33 79 33 123 L 33 494 Z M 209 557 L 209 557 Z M 257 717 L 355 717 C 350 661 335 620 309 595 C 283 569 249 557 209 557 C 168 557 135 569 109 595 C 83 620 68 661 64 717 L 162 717 C 163 693 167 674 174 661 C 180 648 192 642 209 642 C 225 642 237 648 244 660 C 251 672 255 691 257 717 Z" unicode="ŭ" />
<glyph horiz-adv-x="536" d="M 47 0 L 47 0 Z M 489 730 L 489 224 C 489 182 482 147 470 118 C 457 88 440 64 419 46 C 398 28 374 14 346 6 C 318 -2 289 -7 260 -7 C 231 -7 204 -2 178 5 C 152 13 130 27 111 45 C 91 63 76 86 64 116 C 52 146 47 182 47 224 L 47 730 L 175 730 L 175 219 C 175 177 183 147 200 130 C 216 113 238 105 264 105 C 290 105 311 113 329 129 C 346 145 355 175 355 219 L 355 730 L 489 730 Z M 265 777 L 265 777 Z M 265 777 C 231 777 202 788 179 812 C 155 836 144 865 144 899 C 144 932 155 960 179 984 C 202 1008 231 1020 265 1020 C 299 1020 327 1008 351 984 C 375 960 387 932 387 899 C 387 865 375 836 351 812 C 327 788 299 777 265 777 Z M 265 843 C 280 843 293 848 303 859 C 313 869 319 883 319 899 C 319 914 313 927 303 938 C 293 948 280 954 265 954 C 250 954 237 948 227 938 C 217 927 212 914 212 899 C 212 883 217 869 227 859 C 237 848 250 843 265 843 Z" unicode="Ů" />
<glyph horiz-adv-x="419" d="M 33 0 L 33 0 Z M 33 494 L 152 494 L 152 152 C 152 129 157 112 167 102 C 177 91 190 86 207 86 C 223 86 236 92 248 104 C 260 116 266 138 266 170 L 266 494 L 385 494 L 385 0 L 274 0 L 274 58 C 266 40 251 24 231 12 C 211 0 186 -6 158 -6 C 124 -6 95 4 70 25 C 45 46 33 79 33 123 L 33 494 Z M 209 541 L 209 541 Z M 209 541 C 175 541 146 552 123 576 C 99 600 88 629 88 663 C 88 696 99 724 123 748 C 146 772 175 784 209 784 C 243 784 271 772 295 748 C 319 724 331 696 331 663 C 331 629 319 600 295 576 C 271 552 243 541 209 541 Z M 209 607 C 224 607 237 612 247 623 C 257 633 263 647 263 663 C 263 678 257 691 247 702 C 237 712 224 718 209 718 C 194 718 181 712 171 702 C 161 691 156 678 156 663 C 156 647 161 633 171 623 C 181 612 194 607 209 607 Z" unicode="ů" />
<glyph horiz-adv-x="536" d="M 47 0 L 47 0 Z M 489 730 L 489 224 C 489 182 482 147 470 118 C 457 88 440 64 419 46 C 398 28 374 14 346 6 C 318 -2 289 -7 260 -7 C 231 -7 204 -2 178 5 C 152 13 130 27 111 45 C 91 63 76 86 64 116 C 52 146 47 182 47 224 L 47 730 L 175 730 L 175 219 C 175 177 183 147 200 130 C 216 113 238 105 264 105 C 290 105 311 113 329 129 C 346 145 355 175 355 219 L 355 730 L 489 730 Z M 265 790 L 265 790 Z M 74 790 L 141 954 L 267 954 L 179 790 L 74 790 Z M 263 790 L 331 954 L 457 954 L 368 790 L 263 790 Z" unicode="Ű" />
<glyph horiz-adv-x="419" d="M 18 0 L 18 0 Z M 33 494 L 152 494 L 152 152 C 152 129 157 112 167 102 C 177 91 190 86 207 86 C 223 86 236 92 248 104 C 260 116 266 138 266 170 L 266 494 L 385 494 L 385 0 L 274 0 L 274 58 C 266 40 251 24 231 12 C 211 0 186 -6 158 -6 C 124 -6 95 4 70 25 C 45 46 33 79 33 123 L 33 494 Z M 209 554 L 209 554 Z M 18 554 L 85 718 L 211 718 L 123 554 L 18 554 Z M 207 554 L 275 718 L 401 718 L 312 554 L 207 554 Z" unicode="ű" />
<glyph horiz-adv-x="536" d="M 47 0 L 47 0 Z M 489 730 L 489 224 C 489 182 482 147 470 118 C 457 88 440 64 419 46 C 398 28 374 14 346 6 C 318 -2 289 -7 260 -7 C 231 -7 204 -2 178 5 C 152 13 130 27 111 45 C 91 63 76 86 64 116 C 52 146 47 182 47 224 L 47 730 L 175 730 L 175 219 C 175 177 183 147 200 130 C 216 113 238 105 264 105 C 290 105 311 113 329 129 C 346 145 355 175 355 219 L 355 730 L 489 730 Z M 291 -7 L 291 -7 Z M 387 -82 L 419 -132 C 398 -154 375 -171 351 -182 C 327 -193 300 -199 270 -199 C 236 -199 209 -191 191 -177 C 172 -162 163 -143 163 -121 C 163 -95 172 -72 192 -50 C 212 -28 241 -9 281 6 L 347 6 C 323 -4 304 -17 289 -31 C 273 -45 266 -59 266 -72 C 266 -84 270 -93 278 -100 C 286 -107 297 -111 310 -111 C 326 -111 340 -108 353 -103 C 366 -97 377 -90 387 -82 Z" unicode="Ų" />
<glyph horiz-adv-x="419" d="M 33 0 L 33 0 Z M 33 494 L 152 494 L 152 152 C 152 129 157 112 167 102 C 177 91 190 86 207 86 C 223 86 236 92 248 104 C 260 116 266 138 266 170 L 266 494 L 385 494 L 385 0 L 274 0 L 274 58 C 266 40 251 24 231 12 C 211 0 186 -6 158 -6 C 124 -6 95 4 70 25 C 45 46 33 79 33 123 L 33 494 Z M 289 -7 L 289 -7 Z M 385 -82 L 417 -132 C 396 -154 373 -171 349 -182 C 325 -193 298 -199 268 -199 C 234 -199 207 -191 189 -177 C 170 -162 161 -143 161 -121 C 161 -95 170 -72 190 -50 C 210 -28 239 -9 279 6 L 345 6 C 321 -4 302 -17 287 -31 C 271 -45 264 -59 264 -72 C 264 -84 268 -93 276 -100 C 284 -107 295 -111 308 -111 C 324 -111 338 -108 351 -103 C 364 -97 375 -90 385 -82 Z" unicode="ų" />
<glyph horiz-adv-x="701" d="M 0 0 L 0 0 Z M 682 730 L 533 -3 L 446 -3 L 342 474 L 236 -3 L 148 -3 L 0 730 L 122 730 L 207 249 L 301 730 L 395 730 L 487 250 L 573 730 L 682 730 Z M 348 791 L 348 791 Z M 497 791 L 400 791 L 348 882 L 295 791 L 200 791 L 298 964 L 399 964 L 497 791 Z" unicode="Ŵ" />
<glyph horiz-adv-x="563" d="M 0 0 L 0 0 Z M 350 -2 L 282 251 L 213 -2 L 120 -2 L -2 494 L 110 494 L 181 177 L 243 426 L 327 426 L 389 178 L 463 494 L 564 494 L 441 -2 L 350 -2 Z M 282 555 L 282 555 Z M 431 555 L 334 555 L 282 646 L 229 555 L 134 555 L 232 728 L 333 728 L 431 555 Z" unicode="ŵ" />
<glyph horiz-adv-x="471" d="M 0 0 L 0 0 Z M 478 730 L 298 308 L 298 0 L 168 0 L 168 310 L -7 730 L 131 730 L 240 441 L 356 730 L 478 730 Z M 240 791 L 240 791 Z M 389 791 L 292 791 L 240 882 L 187 791 L 92 791 L 190 964 L 291 964 L 389 791 Z" unicode="Ŷ" />
<glyph horiz-adv-x="364" d="M 0 0 L 0 0 Z M 370 494 L 199 -98 C 189 -131 171 -156 146 -174 C 121 -191 92 -200 60 -200 C 39 -200 21 -197 6 -193 C -8 -188 -19 -183 -25 -179 L 13 -92 C 15 -94 21 -97 30 -100 C 39 -103 48 -105 56 -105 C 68 -105 79 -100 87 -91 C 95 -82 102 -68 107 -50 L 130 41 L -6 494 L 117 494 L 190 204 L 260 494 L 370 494 Z M 186 555 L 186 555 Z M 335 555 L 238 555 L 186 646 L 133 555 L 38 555 L 136 728 L 237 728 L 335 555 Z" unicode="ŷ" />
<glyph horiz-adv-x="471" d="M 0 0 L 0 0 Z M 478 730 L 298 308 L 298 0 L 168 0 L 168 310 L -7 730 L 131 730 L 240 441 L 356 730 L 478 730 Z M 240 791 L 240 791 Z M 368 791 L 272 791 L 272 951 L 368 951 L 368 791 Z M 208 791 L 112 791 L 112 951 L 208 951 L 208 791 Z" unicode="Ÿ" />
<glyph horiz-adv-x="425" d="M 13 0 L 13 0 Z M 401 730 L 401 664 L 167 111 L 412 111 L 412 0 L 13 0 L 13 63 L 251 617 L 39 617 L 39 730 L 401 730 Z M 222 790 L 222 790 Z M 109 790 L 198 964 L 335 964 L 223 790 L 109 790 Z" unicode="Ź" />
<glyph horiz-adv-x="339" d="M 10 0 L 10 0 Z M 324 494 L 324 442 L 158 99 L 330 99 L 330 0 L 10 0 L 10 42 L 185 394 L 22 394 L 22 494 L 324 494 Z M 176 554 L 176 554 Z M 63 554 L 152 728 L 289 728 L 177 554 L 63 554 Z" unicode="ź" />
<glyph horiz-adv-x="425" d="M 13 0 L 13 0 Z M 401 730 L 401 664 L 167 111 L 412 111 L 412 0 L 13 0 L 13 63 L 251 617 L 39 617 L 39 730 L 401 730 Z M 222 801 L 222 801 Z M 277 801 L 168 801 L 168 931 L 277 931 L 277 801 Z" unicode="Ż" />
<glyph horiz-adv-x="339" d="M 10 0 L 10 0 Z M 324 494 L 324 442 L 158 99 L 330 99 L 330 0 L 10 0 L 10 42 L 185 394 L 22 394 L 22 494 L 324 494 Z M 176 565 L 176 565 Z M 231 565 L 122 565 L 122 695 L 231 695 L 231 565 Z" unicode="ż" />
<glyph horiz-adv-x="425" d="M 13 0 L 13 0 Z M 401 730 L 401 664 L 167 111 L 412 111 L 412 0 L 13 0 L 13 63 L 251 617 L 39 617 L 39 730 L 401 730 Z M 222 791 L 222 791 Z M 74 964 L 171 964 L 223 873 L 276 964 L 371 964 L 273 791 L 172 791 L 74 964 Z" unicode="Ž" />
<glyph horiz-adv-x="339" d="M 10 0 L 10 0 Z M 324 494 L 324 442 L 158 99 L 330 99 L 330 0 L 10 0 L 10 42 L 185 394 L 22 394 L 22 494 L 324 494 Z" unicode="ž" />
<glyph horiz-adv-x="372" d="M 201 -52 C 199 -68 195 -83 189 -99 C 182 -114 173 -127 162 -139 C 150 -151 137 -160 121 -168 C 105 -175 88 -179 70 -179 C 49 -179 29 -177 11 -173 C -7 -169 -22 -165 -32 -161 L -20 -74 C -15 -74 -8 -76 1 -78 C 10 -80 19 -81 28 -81 C 47 -81 63 -74 77 -62 C 90 -49 98 -31 101 -7 L 130 318 L 35 318 L 35 419 L 139 419 L 157 620 C 159 640 164 658 172 674 C 180 689 191 702 203 712 C 215 722 229 730 244 735 C 259 740 274 743 288 743 C 302 743 317 742 332 741 C 347 740 356 739 359 739 L 350 636 C 348 636 344 637 338 638 C 332 638 326 639 320 639 C 301 639 286 632 274 620 C 262 607 256 587 254 561 L 242 419 L 343 419 L 343 318 L 233 318 L 201 -52 Z" unicode="ƒ" />
<glyph horiz-adv-x="429" d="M 12 0 L 12 0 Z M 214 -7 C 173 -7 136 0 103 12 C 70 24 40 48 12 82 L 84 159 C 98 137 116 121 138 109 C 160 97 181 91 203 91 C 227 91 248 99 266 116 C 284 133 293 156 293 186 C 293 216 284 241 268 260 C 252 279 222 303 179 331 C 137 357 102 387 74 421 C 46 454 33 500 33 558 C 33 585 38 610 48 632 C 58 654 72 673 90 689 C 107 704 127 716 151 724 C 174 732 199 737 225 737 C 267 737 301 730 329 716 C 357 702 378 687 394 670 L 325 590 C 314 601 300 611 283 619 C 266 627 248 631 230 631 C 210 631 192 624 176 610 C 160 596 152 577 152 552 C 152 528 159 507 173 490 C 186 473 215 451 261 423 C 313 391 350 357 374 322 C 397 286 409 242 409 188 C 409 155 403 126 392 102 C 380 78 366 57 348 41 C 330 25 309 13 286 5 C 262 -3 238 -7 214 -7 Z M 192 -70 L 192 -70 Z M 289 -70 C 289 -92 285 -117 278 -143 C 271 -169 263 -195 253 -219 C 243 -243 232 -264 220 -284 C 208 -304 197 -318 187 -328 L 96 -288 C 103 -278 110 -266 118 -250 C 126 -234 133 -216 140 -197 C 146 -177 152 -157 157 -135 C 161 -113 164 -91 165 -70 L 289 -70 Z" unicode="Ș" />
<glyph horiz-adv-x="324" d="M 11 0 L 11 0 Z M 169 -6 C 134 -6 103 0 75 13 C 47 26 25 43 11 64 L 65 140 C 77 123 91 110 108 101 C 124 92 140 88 155 88 C 167 88 179 92 190 100 C 200 108 206 121 206 137 C 206 153 198 166 184 177 C 170 187 150 200 126 215 C 98 231 75 250 56 273 C 36 295 27 328 27 370 C 27 404 40 435 66 461 C 92 487 125 500 164 500 C 193 500 219 495 242 487 C 264 478 283 467 298 455 L 250 372 C 241 379 229 386 215 393 C 201 400 187 404 175 404 C 161 404 150 400 140 394 C 130 388 126 379 126 367 C 126 353 132 342 145 333 C 157 323 178 310 206 294 C 240 273 265 251 282 228 C 298 205 307 173 307 133 C 307 109 302 88 293 70 C 284 52 273 38 260 27 C 246 16 231 8 215 2 C 199 -3 183 -6 169 -6 Z M 149 -70 L 149 -70 Z M 246 -70 C 246 -92 242 -117 235 -143 C 228 -169 220 -195 210 -219 C 200 -243 189 -264 177 -284 C 165 -304 154 -318 144 -328 L 53 -288 C 60 -278 67 -266 75 -250 C 83 -234 90 -216 97 -197 C 103 -177 109 -157 114 -135 C 118 -113 121 -91 122 -70 L 246 -70 Z" unicode="ș" />
<glyph horiz-adv-x="387" d="M 5 0 L 5 0 Z M 382 617 L 259 617 L 259 0 L 129 0 L 129 617 L 5 617 L 5 730 L 382 730 L 382 617 Z M 172 -70 L 172 -70 Z M 269 -70 C 269 -92 265 -117 258 -143 C 251 -169 243 -195 233 -219 C 223 -243 212 -264 200 -284 C 188 -304 177 -318 167 -328 L 76 -288 C 83 -278 90 -266 98 -250 C 106 -234 113 -216 120 -197 C 126 -177 132 -157 137 -135 C 141 -113 144 -91 145 -70 L 269 -70 Z" unicode="Ț" />
<glyph horiz-adv-x="246" d="M 6 0 L 6 0 Z M 223 108 L 247 21 C 240 15 230 9 218 4 C 206 -1 189 -4 168 -4 C 156 -4 143 -1 129 3 C 115 7 102 15 90 26 C 78 36 68 50 60 67 C 52 84 48 105 48 129 L 48 394 L 6 394 L 6 494 L 51 494 L 51 628 L 163 638 L 163 494 L 227 494 L 227 394 L 166 394 L 166 134 C 166 122 168 114 174 108 C 180 102 187 99 196 99 C 200 99 205 99 211 101 C 216 103 220 105 223 108 Z M 123 -70 L 123 -70 Z M 220 -70 C 220 -92 216 -117 209 -143 C 202 -169 194 -195 184 -219 C 174 -243 163 -264 151 -284 C 139 -304 128 -318 118 -328 L 27 -288 C 34 -278 41 -266 49 -250 C 57 -234 64 -216 71 -197 C 77 -177 83 -157 88 -135 C 92 -113 95 -91 96 -70 L 220 -70 Z" unicode="ț" />
<glyph horiz-adv-x="193" d="M 158 494 L 158 -71 C 158 -103 147 -130 125 -153 C 103 -175 75 -187 39 -187 C 22 -187 6 -184 -9 -180 C -24 -175 -34 -171 -39 -167 L -12 -84 C -9 -84 -5 -85 -1 -87 C 2 -88 7 -89 13 -89 C 21 -89 27 -86 32 -80 C 37 -74 40 -66 40 -56 L 40 494 L 158 494 Z" unicode="ȷ" />
<glyph horiz-adv-x="500" d="M 399 555 L 302 555 L 250 646 L 197 555 L 102 555 L 200 728 L 301 728 L 399 555 Z" unicode="ˆ" />
<glyph horiz-adv-x="500" d="M 102 728 L 199 728 L 251 637 L 304 728 L 399 728 L 301 555 L 200 555 L 102 728 Z" unicode="ˇ" />
<glyph horiz-adv-x="500" d="M 298 717 L 396 717 C 391 661 376 620 350 595 C 324 569 290 557 250 557 C 209 557 176 569 150 595 C 124 620 109 661 105 717 L 203 717 C 204 693 208 674 215 661 C 221 648 233 642 250 642 C 266 642 278 648 285 660 C 292 672 296 691 298 717 Z" unicode="˘" />
<glyph horiz-adv-x="500" d="M 305 565 L 196 565 L 196 695 L 305 695 L 305 565 Z" unicode="˙" />
<glyph horiz-adv-x="500" d="M 250 541 C 216 541 187 552 164 576 C 140 600 129 629 129 663 C 129 696 140 724 164 748 C 187 772 216 784 250 784 C 284 784 312 772 336 748 C 360 724 372 696 372 663 C 372 629 360 600 336 576 C 312 552 284 541 250 541 Z M 250 607 C 265 607 278 612 288 623 C 298 633 304 647 304 663 C 304 678 298 691 288 702 C 278 712 265 718 250 718 C 235 718 222 712 212 702 C 202 691 197 678 197 663 C 197 647 202 633 212 623 C 222 612 235 607 250 607 Z" unicode="˚" />
<glyph horiz-adv-x="500" d="M 355 -75 L 387 -125 C 366 -147 343 -164 319 -175 C 295 -186 268 -192 238 -192 C 204 -192 177 -184 159 -170 C 140 -155 131 -136 131 -114 C 131 -88 140 -65 160 -43 C 180 -21 209 -2 249 13 L 315 13 C 291 2 272 -10 257 -24 C 241 -38 234 -52 234 -65 C 234 -77 238 -86 246 -93 C 254 -100 265 -104 278 -104 C 294 -104 308 -101 321 -96 C 334 -90 345 -83 355 -75 Z" unicode="˛" />
<glyph horiz-adv-x="500" d="M 331 706 L 419 706 C 419 656 411 619 397 595 C 382 571 363 559 341 559 C 321 559 305 562 292 569 C 278 575 267 581 259 587 C 250 591 241 596 233 602 C 225 607 216 610 208 610 C 200 610 193 605 187 597 C 181 588 179 576 179 562 L 92 562 C 92 612 101 649 119 673 C 137 697 157 710 179 710 C 196 710 211 706 223 700 C 235 693 246 686 256 680 C 264 674 272 669 279 665 C 286 661 293 659 301 659 C 307 659 314 663 321 671 C 327 679 331 690 331 706 Z" unicode="˜" />
<glyph horiz-adv-x="500" d="M 82 554 L 149 718 L 275 718 L 187 554 L 82 554 Z M 271 554 L 339 718 L 465 718 L 376 554 L 271 554 Z" unicode="˝" />
<glyph horiz-adv-x="0" d="M 0 554 L 0 554 Z M 112 554 L -2 554 L -114 728 L 23 728 L 112 554 Z" unicode="̀" />
<glyph horiz-adv-x="0" d="M 0 554 L 0 554 Z M -113 554 L -24 728 L 113 728 L 1 554 L -113 554 Z" unicode="́" />
<glyph horiz-adv-x="0" d="M 0 555 L 0 555 Z M 149 555 L 52 555 L 0 646 L -53 555 L -148 555 L -50 728 L 51 728 L 149 555 Z" unicode="̂" />
<glyph horiz-adv-x="0" d="M 0 559 L 0 559 Z M 76 706 L 164 706 C 164 656 156 619 142 595 C 127 571 108 559 86 559 C 66 559 50 562 37 569 C 23 575 12 581 4 587 C -4 591 -13 596 -21 602 C -29 607 -38 610 -47 610 C -55 610 -61 605 -67 597 C -73 588 -76 576 -76 562 L -163 562 C -163 612 -153 649 -135 673 C -117 697 -97 710 -76 710 C -58 710 -44 706 -32 700 C -20 693 -9 686 1 680 C 9 674 17 669 24 665 C 31 661 38 659 46 659 C 52 659 59 663 66 671 C 72 679 76 690 76 706 Z" unicode="̃" />
<glyph horiz-adv-x="0" d="M 0 569 L 0 569 Z M 129 569 L -129 569 L -129 661 L 129 661 L 129 569 Z" unicode="̄" />
<glyph horiz-adv-x="0" d="M 0 557 L 0 557 Z M 48 717 L 146 717 C 141 661 126 620 100 595 C 74 569 40 557 0 557 C -40 557 -74 569 -100 595 C -126 620 -141 661 -145 717 L -47 717 C -45 693 -41 674 -35 661 C -28 648 -16 642 0 642 C 16 642 28 648 35 660 C 42 672 46 691 48 717 Z" unicode="̆" />
<glyph horiz-adv-x="0" d="M 0 565 L 0 565 Z M 55 565 L -54 565 L -54 695 L 55 695 L 55 565 Z" unicode="̇" />
<glyph horiz-adv-x="0" d="M 0 555 L 0 555 Z M 128 555 L 32 555 L 32 715 L 128 715 L 128 555 Z M -32 555 L -128 555 L -128 715 L -32 715 L -32 555 Z" unicode="̈" />
<glyph horiz-adv-x="0" d="M 0 541 L 0 541 Z M 0 541 C -34 541 -62 552 -86 576 C -109 600 -121 629 -121 663 C -121 696 -109 724 -86 748 C -62 772 -34 784 0 784 C 34 784 62 772 86 748 C 110 724 122 696 122 663 C 122 629 110 600 86 576 C 62 552 34 541 0 541 Z M 0 607 C 15 607 28 612 38 623 C 48 633 54 647 54 663 C 54 678 48 691 38 702 C 28 712 15 718 0 718 C -14 718 -27 712 -37 702 C -47 691 -53 678 -53 663 C -53 647 -47 633 -37 623 C -27 612 -14 607 0 607 Z" unicode="̊" />
<glyph horiz-adv-x="0" d="M 0 554 L 0 554 Z M -191 554 L -124 718 L 2 718 L -86 554 L -191 554 Z M -2 554 L 66 718 L 192 718 L 103 554 L -2 554 Z" unicode="̋" />
<glyph horiz-adv-x="0" d="M 0 555 L 0 555 Z M -148 728 L -51 728 L 1 637 L 54 728 L 149 728 L 51 555 L -50 555 L -148 728 Z" unicode="̌" />
<glyph horiz-adv-x="0" d="M 0 -70 L 0 -70 Z M 97 -70 C 97 -92 93 -117 86 -143 C 79 -169 71 -195 61 -219 C 51 -243 40 -264 28 -284 C 16 -304 5 -318 -5 -328 L -96 -288 C -88 -278 -81 -266 -73 -250 C -65 -234 -58 -216 -52 -197 C -45 -177 -39 -157 -35 -135 C -30 -113 -27 -91 -27 -70 L 97 -70 Z" unicode="̦" />
<glyph horiz-adv-x="0" d="M 0 0 L 0 0 Z M 4 -182 C -18 -182 -39 -179 -59 -173 C -79 -167 -96 -159 -109 -149 L -88 -105 C -80 -109 -70 -114 -58 -120 C -45 -126 -31 -129 -17 -129 C -6 -129 2 -126 10 -121 C 18 -116 22 -109 22 -101 C 22 -91 18 -83 11 -79 C 4 -75 -3 -73 -11 -73 C -17 -73 -23 -73 -28 -74 C -32 -75 -37 -77 -42 -79 L -57 -59 L 0 14 L 60 14 L 16 -42 C 42 -39 65 -43 83 -54 C 101 -65 110 -82 110 -105 C 110 -129 99 -147 79 -161 C 58 -175 33 -182 4 -182 Z" unicode="̧" />
<glyph horiz-adv-x="0" d="M 0 0 L 0 0 Z M 96 -75 L 128 -125 C 107 -147 84 -164 60 -175 C 36 -186 9 -192 -21 -192 C -55 -192 -81 -184 -100 -170 C -118 -155 -128 -136 -128 -114 C -128 -88 -118 -65 -98 -43 C -78 -21 -49 -2 -10 13 L 56 13 C 32 2 13 -10 -2 -24 C -17 -38 -25 -52 -25 -65 C -25 -77 -20 -86 -12 -93 C -4 -100 6 -104 19 -104 C 35 -104 49 -101 62 -96 C 75 -90 86 -83 96 -75 Z" unicode="̨" />
<glyph horiz-adv-x="563" d="M 0 0 L 0 0 Z M 576 0 L -1 0 L 272 730 L 304 730 L 576 0 Z M 423 90 L 285 510 L 147 90 L 423 90 Z" unicode="Δ" />
<glyph horiz-adv-x="724" d="M 21 0 L 21 0 Z M 30 0 L 30 110 L 233 110 L 233 165 C 202 172 173 184 147 202 C 121 220 98 241 80 266 C 62 291 47 319 37 351 C 26 382 21 415 21 449 C 21 490 28 529 44 565 C 59 601 81 633 110 660 C 139 687 175 708 218 724 C 261 740 310 748 364 748 C 420 748 469 740 513 724 C 557 708 593 686 623 660 C 653 633 675 601 691 565 C 706 528 714 489 714 449 C 714 379 696 319 661 267 C 625 215 572 181 501 165 L 501 110 L 704 110 L 704 0 L 414 0 L 414 229 C 442 235 466 246 487 260 C 508 274 526 291 540 310 C 554 328 564 349 571 372 C 578 395 582 418 582 442 C 582 501 561 550 520 588 C 479 626 427 646 365 646 C 303 646 252 626 213 588 C 173 549 154 500 154 440 C 154 394 167 351 194 312 C 221 272 263 245 321 229 L 321 0 L 30 0 Z" unicode="Ω" />
<glyph horiz-adv-x="585" d="M 61 0 L 61 0 Z M 61 -98 L 61 509 L 179 509 L 179 169 C 179 144 189 124 211 110 C 232 95 256 88 283 88 C 312 88 339 96 363 112 C 387 128 400 152 400 183 L 400 509 L 519 509 L 519 0 L 409 0 L 409 87 C 399 63 379 42 351 24 C 322 5 292 -4 262 -5 C 243 -5 225 -1 207 6 C 189 13 176 24 170 38 L 170 -98 L 61 -98 Z" unicode="μ" />
<glyph horiz-adv-x="549" d="M 196 417 L 196 0 L 77 0 L 77 417 L 15 417 L 15 509 L 534 509 L 534 417 L 468 417 L 468 0 L 350 0 L 350 417 L 196 417 Z" unicode="π" />
<glyph horiz-adv-x="701" d="M 0 0 L 0 0 Z M 682 730 L 533 -3 L 446 -3 L 342 474 L 236 -3 L 148 -3 L 0 730 L 122 730 L 207 249 L 301 730 L 395 730 L 487 250 L 573 730 L 682 730 Z M 348 790 L 348 790 Z M 460 790 L 346 790 L 234 964 L 371 964 L 460 790 Z" unicode="Ẁ" />
<glyph horiz-adv-x="563" d="M 0 0 L 0 0 Z M 350 -2 L 282 251 L 213 -2 L 120 -2 L -2 494 L 110 494 L 181 177 L 243 426 L 327 426 L 389 178 L 463 494 L 564 494 L 441 -2 L 350 -2 Z M 282 554 L 282 554 Z M 394 554 L 280 554 L 168 728 L 305 728 L 394 554 Z" unicode="ẁ" />
<glyph horiz-adv-x="701" d="M 0 0 L 0 0 Z M 682 730 L 533 -3 L 446 -3 L 342 474 L 236 -3 L 148 -3 L 0 730 L 122 730 L 207 249 L 301 730 L 395 730 L 487 250 L 573 730 L 682 730 Z M 348 790 L 348 790 Z M 235 790 L 324 964 L 461 964 L 349 790 L 235 790 Z" unicode="Ẃ" />
<glyph horiz-adv-x="563" d="M 0 0 L 0 0 Z M 350 -2 L 282 251 L 213 -2 L 120 -2 L -2 494 L 110 494 L 181 177 L 243 426 L 327 426 L 389 178 L 463 494 L 564 494 L 441 -2 L 350 -2 Z M 282 554 L 282 554 Z M 169 554 L 258 728 L 395 728 L 283 554 L 169 554 Z" unicode="ẃ" />
<glyph horiz-adv-x="701" d="M 0 0 L 0 0 Z M 682 730 L 533 -3 L 446 -3 L 342 474 L 236 -3 L 148 -3 L 0 730 L 122 730 L 207 249 L 301 730 L 395 730 L 487 250 L 573 730 L 682 730 Z M 348 791 L 348 791 Z M 476 791 L 380 791 L 380 951 L 476 951 L 476 791 Z M 316 791 L 220 791 L 220 951 L 316 951 L 316 791 Z" unicode="Ẅ" />
<glyph horiz-adv-x="563" d="M 0 0 L 0 0 Z M 350 -2 L 282 251 L 213 -2 L 120 -2 L -2 494 L 110 494 L 181 177 L 243 426 L 327 426 L 389 178 L 463 494 L 564 494 L 441 -2 L 350 -2 Z M 282 555 L 282 555 Z M 410 555 L 314 555 L 314 715 L 410 715 L 410 555 Z M 250 555 L 154 555 L 154 715 L 250 715 L 250 555 Z" unicode="ẅ" />
<glyph horiz-adv-x="471" d="M 0 0 L 0 0 Z M 478 730 L 298 308 L 298 0 L 168 0 L 168 310 L -7 730 L 131 730 L 240 441 L 356 730 L 478 730 Z M 240 790 L 240 790 Z M 352 790 L 238 790 L 126 964 L 263 964 L 352 790 Z" unicode="Ỳ" />
<glyph horiz-adv-x="364" d="M 0 0 L 0 0 Z M 370 494 L 199 -98 C 189 -131 171 -156 146 -174 C 121 -191 92 -200 60 -200 C 39 -200 21 -197 6 -193 C -8 -188 -19 -183 -25 -179 L 13 -92 C 15 -94 21 -97 30 -100 C 39 -103 48 -105 56 -105 C 68 -105 79 -100 87 -91 C 95 -82 102 -68 107 -50 L 130 41 L -6 494 L 117 494 L 190 204 L 260 494 L 370 494 Z M 186 554 L 186 554 Z M 298 554 L 184 554 L 72 728 L 209 728 L 298 554 Z" unicode="ỳ" />
<glyph horiz-adv-x="460" d="M 422 210 L 39 210 L 39 313 L 422 313 L 422 210 Z" unicode="–" />
<glyph horiz-adv-x="645" d="M 607 210 L 39 210 L 39 313 L 607 313 L 607 210 Z" unicode="—" />
<glyph horiz-adv-x="254" d="M 37 507 L 37 514 C 37 556 43 595 57 631 C 71 667 92 703 122 737 L 235 731 C 216 709 198 680 182 644 C 165 608 157 565 157 515 L 157 507 L 37 507 Z" unicode="‘" />
<glyph horiz-adv-x="254" d="M 217 737 L 217 730 C 217 688 210 649 197 613 C 183 576 162 541 133 507 L 19 513 C 37 535 55 565 72 601 C 89 637 98 679 98 729 L 98 737 L 217 737 Z" unicode="’" />
<glyph horiz-adv-x="255" d="M 216 116 L 216 109 C 216 67 209 27 196 -8 C 182 -44 161 -80 132 -114 L 19 -108 C 37 -86 55 -56 72 -20 C 88 15 97 58 97 108 L 97 116 L 216 116 Z" unicode="‚" />
<glyph horiz-adv-x="419" d="M 213 507 L 213 514 C 213 553 220 591 235 628 C 249 664 272 701 303 737 L 410 731 C 391 711 372 682 354 645 C 335 607 326 564 326 515 L 326 507 L 213 507 Z M 38 507 L 38 514 C 38 553 45 591 61 628 C 76 664 98 701 128 737 L 235 731 C 226 721 217 708 207 694 C 197 680 187 663 179 645 C 171 627 164 607 159 585 C 153 563 151 539 151 515 L 151 507 L 38 507 Z" unicode="“" />
<glyph horiz-adv-x="419" d="M 211 737 L 211 730 C 211 688 204 649 190 613 C 176 576 155 541 127 507 L 19 513 C 39 535 57 565 73 601 C 89 637 98 679 98 729 L 98 737 L 211 737 Z M 380 737 L 380 730 C 380 688 372 649 358 613 C 344 576 323 541 295 507 L 188 513 C 206 535 224 565 241 601 C 258 637 267 679 267 729 L 267 737 L 380 737 Z" unicode="”" />
<glyph horiz-adv-x="421" d="M 211 116 L 211 109 C 211 67 204 27 190 -8 C 176 -44 154 -80 126 -114 L 19 -108 C 38 -85 56 -56 73 -20 C 89 16 98 58 98 108 L 98 116 L 211 116 Z M 382 116 L 382 109 C 382 67 374 27 360 -8 C 346 -44 325 -80 298 -114 L 190 -108 C 208 -86 226 -56 243 -20 C 260 15 269 58 269 108 L 269 116 L 382 116 Z" unicode="„" />
<glyph horiz-adv-x="429" d="M 413 359 L 275 359 L 275 -179 L 149 -179 L 149 359 L 18 359 L 18 472 L 149 472 L 149 730 L 275 730 L 275 472 L 413 472 L 413 359 Z" unicode="†" />
<glyph horiz-adv-x="441" d="M 155 -179 L 155 89 L 29 89 L 29 202 L 155 202 L 155 368 L 29 368 L 29 481 L 155 481 L 155 730 L 280 730 L 280 481 L 413 481 L 413 368 L 280 368 L 280 202 L 413 202 L 413 89 L 280 89 L 280 -179 L 155 -179 Z" unicode="‡" />
<glyph horiz-adv-x="382" d="M 191 489 C 221 489 247 478 269 457 C 290 435 301 409 301 379 C 301 348 290 322 269 301 C 247 280 221 270 191 270 C 160 270 134 280 113 301 C 92 322 82 348 82 379 C 82 409 92 435 113 457 C 134 478 160 489 191 489 Z" unicode="•" />
<glyph horiz-adv-x="684" d="M 53 0 L 53 140 L 175 140 L 175 0 L 53 0 Z M 281 0 L 281 140 L 402 140 L 402 0 L 281 0 Z M 509 0 L 509 140 L 630 140 L 630 0 L 509 0 Z" unicode="…" />
<glyph horiz-adv-x="1004" d="M 170 363 C 153 363 136 366 120 374 C 103 382 88 393 75 409 C 61 425 50 444 42 468 C 34 492 30 519 30 551 C 30 604 43 649 69 685 C 95 721 128 740 167 740 C 188 740 208 735 226 725 C 244 715 259 701 272 685 C 284 668 294 648 301 626 C 308 603 312 579 312 554 C 312 527 308 502 301 479 C 293 455 283 435 271 418 C 258 400 243 387 225 377 C 207 367 189 363 170 363 Z M 90 0 L 497 730 L 577 730 L 172 0 L 90 0 Z M 124 551 C 124 526 127 503 133 482 C 139 461 151 451 170 451 C 190 451 203 461 209 481 C 215 501 218 525 218 551 C 218 575 215 598 209 619 C 203 640 190 651 172 651 C 152 651 139 640 133 620 C 127 599 124 576 124 551 Z M 513 -3 C 495 -3 478 0 461 8 C 444 16 429 27 416 43 C 402 59 391 78 383 102 C 375 126 371 153 371 185 C 371 238 384 283 411 319 C 438 355 473 374 515 374 C 537 374 556 369 574 359 C 592 349 607 335 619 319 C 631 302 641 282 648 260 C 654 237 658 213 658 188 C 658 161 654 136 647 113 C 640 89 630 69 618 52 C 605 34 590 21 572 11 C 554 1 534 -3 513 -3 Z M 829 -3 C 811 -3 794 0 777 8 C 759 16 744 27 731 43 C 717 59 706 78 698 102 C 690 126 686 153 686 185 C 686 238 699 283 727 319 C 754 355 789 374 831 374 C 853 374 872 369 890 359 C 908 349 923 335 935 319 C 947 302 957 282 964 260 C 970 237 974 213 974 188 C 974 161 970 136 963 113 C 956 89 946 69 934 52 C 921 34 906 21 888 11 C 870 1 850 -3 829 -3 Z M 512 85 C 532 85 545 95 553 115 C 560 135 564 158 564 185 C 564 211 560 235 553 255 C 545 275 532 286 514 286 C 497 286 485 275 477 255 C 469 235 465 211 465 185 C 465 158 468 135 475 115 C 482 95 494 85 512 85 Z M 828 85 C 848 85 861 95 868 115 C 875 135 879 158 879 185 C 879 211 875 235 868 255 C 861 275 848 286 830 286 C 813 286 800 275 792 255 C 784 235 780 211 780 185 C 780 158 783 135 791 115 C 798 95 810 85 828 85 Z" unicode="‰" />
<glyph horiz-adv-x="249" d="M 221 86 L 26 256 L 26 325 L 221 493 L 221 377 L 130 288 L 221 205 L 221 86 Z" unicode="‹" />
<glyph horiz-adv-x="251" d="M 28 494 L 224 323 L 224 255 L 28 87 L 28 202 L 119 291 L 28 374 L 28 494 Z" unicode="›" />
<glyph horiz-adv-x="145" d="M 307 730 L -48 0 L -145 0 L 210 730 L 307 730 Z" unicode="⁄" />
<glyph horiz-adv-x="330" d="M 13 452 L 13 519 L 195 736 L 260 736 L 260 523 L 317 523 L 317 452 L 260 452 L 260 373 L 168 373 L 168 452 L 13 452 Z M 103 519 L 170 519 L 170 603 L 103 519 Z" unicode="⁴" />
<glyph horiz-adv-x="479" d="M 464 114 C 448 76 423 46 390 23 C 357 0 321 -12 283 -12 C 229 -12 183 11 146 58 C 109 104 85 169 75 253 L 24 253 L 24 336 L 68 336 C 68 340 68 344 68 348 C 68 352 68 356 68 360 C 68 364 68 369 68 374 C 68 378 68 383 68 388 L 24 388 L 24 471 L 74 471 C 84 553 107 619 142 668 C 177 717 224 742 282 742 C 332 742 371 730 399 706 C 427 682 447 654 460 624 L 376 570 C 366 588 355 604 342 616 C 329 628 310 635 286 635 C 262 635 241 621 223 595 C 205 568 193 527 187 471 L 430 471 L 430 388 L 181 388 C 181 383 181 378 181 374 C 181 369 181 364 181 360 C 181 356 181 352 181 348 C 181 344 181 340 181 336 L 430 336 L 430 253 L 187 253 C 195 195 208 153 227 129 C 246 104 267 92 291 92 C 314 92 333 100 348 116 C 362 132 374 151 384 174 L 464 114 Z" unicode="€" />
<glyph horiz-adv-x="878" d="M 830 318 L 726 318 L 726 555 L 609 374 L 588 374 L 472 554 L 472 318 L 372 318 L 372 730 L 471 730 L 600 524 L 734 730 L 830 730 L 830 318 Z M 343 615 L 243 615 L 243 318 L 123 318 L 123 615 L 18 615 L 18 730 L 343 730 L 343 615 Z" unicode="™" />
<glyph horiz-adv-x="735" d="M 30 0 L 30 110 L 233 110 L 233 165 C 202 172 173 184 147 202 C 121 220 98 241 80 266 C 62 291 47 319 37 351 C 26 382 21 415 21 449 C 21 490 28 529 44 565 C 59 601 81 633 110 660 C 139 687 175 708 218 724 C 261 740 310 748 364 748 C 420 748 469 740 513 724 C 557 708 593 686 623 660 C 653 633 675 601 691 565 C 706 528 714 489 714 449 C 714 379 696 319 661 267 C 625 215 572 181 501 165 L 501 110 L 704 110 L 704 0 L 414 0 L 414 229 C 442 235 466 246 487 260 C 508 274 526 291 540 310 C 554 328 564 349 571 372 C 578 395 582 418 582 442 C 582 501 561 550 520 588 C 479 626 427 646 365 646 C 303 646 252 626 213 588 C 173 549 154 500 154 440 C 154 394 167 351 194 312 C 221 272 263 245 321 229 L 321 0 L 30 0 Z" unicode="Ω" />
<glyph horiz-adv-x="487" d="M 447 287 C 447 233 441 187 430 149 C 418 111 403 80 384 57 C 365 33 343 16 318 6 C 292 -3 266 -9 238 -9 C 211 -9 185 -4 160 5 C 135 15 113 29 93 48 C 73 66 58 90 46 118 C 34 146 28 178 28 216 C 28 250 33 282 43 310 C 53 338 67 363 84 383 C 101 403 121 419 145 430 C 168 441 193 447 219 447 C 249 447 275 441 295 429 C 315 417 331 401 344 381 C 337 438 325 488 309 530 C 292 572 273 608 252 636 C 230 664 207 685 183 699 C 158 713 134 721 111 723 L 164 802 C 188 802 217 792 250 773 C 282 753 313 723 342 682 C 371 640 396 587 416 522 C 436 456 447 378 447 287 Z M 236 83 C 264 83 286 94 300 118 C 314 142 322 177 322 224 C 322 266 315 298 301 320 C 287 342 265 353 236 353 C 209 353 188 341 174 319 C 159 297 152 263 152 218 C 152 170 159 135 173 114 C 187 93 208 83 236 83 Z" unicode="∂" />
<glyph horiz-adv-x="573" d="M 576 0 L -1 0 L 272 730 L 304 730 L 576 0 Z M 423 90 L 285 510 L 147 90 L 423 90 Z" unicode="∆" />
<glyph horiz-adv-x="657" d="M 236 623 L 236 0 L 111 0 L 111 623 L 15 623 L 15 730 L 642 730 L 642 623 L 552 623 L 552 0 L 428 0 L 428 623 L 236 623 Z" unicode="∏" />
<glyph horiz-adv-x="552" d="M 207 623 L 410 307 L 173 -72 L 519 -72 L 519 -179 L -25 -179 L 289 306 L 5 730 L 498 730 L 498 623 L 207 623 Z" unicode="∑" />
<glyph horiz-adv-x="490" d="M 451 283 L 39 283 L 39 380 L 451 380 L 451 283 Z" unicode="−" />
<glyph horiz-adv-x="510" d="M 508 730 L 198 0 L 186 0 L 11 333 L 95 398 L 207 170 L 433 730 L 508 730 Z" unicode="√" />
<glyph horiz-adv-x="351" d="M 101 -9 L 157 620 C 159 640 164 658 172 674 C 180 689 191 702 203 712 C 215 722 229 730 244 735 C 259 740 274 743 288 743 C 302 743 317 742 332 741 C 347 740 356 739 359 739 L 350 636 C 348 636 344 637 338 638 C 332 638 326 639 320 639 C 301 639 286 632 274 620 C 262 607 256 587 254 561 L 201 -52 C 199 -68 195 -83 189 -99 C 182 -114 173 -128 162 -140 C 150 -152 137 -161 121 -169 C 105 -176 88 -179 70 -179 C 48 -179 28 -176 10 -172 C -7 -168 -22 -163 -32 -159 L -20 -74 C -15 -74 -8 -76 1 -79 C 10 -81 19 -83 28 -83 C 47 -83 63 -76 77 -64 C 90 -51 98 -33 101 -9 Z" unicode="∫" />
<glyph horiz-adv-x="461" d="M 346 509 L 443 509 C 441 461 432 420 415 388 C 398 355 373 339 339 339 C 317 339 297 342 279 350 C 261 358 247 366 235 376 C 223 386 212 394 201 401 C 189 408 177 412 165 412 C 153 412 142 405 132 391 C 121 377 116 360 116 342 L 25 342 C 25 392 34 433 53 464 C 72 494 99 510 133 510 C 154 510 174 505 192 496 C 210 486 225 477 237 469 C 248 461 259 453 269 447 C 279 440 290 437 302 437 C 318 437 330 443 336 456 C 342 468 346 486 346 509 Z M 348 323 L 443 323 C 441 275 432 234 415 202 C 398 169 372 153 337 153 C 314 153 294 156 276 164 C 258 172 243 181 232 191 C 220 201 209 209 199 215 C 189 221 177 224 165 224 C 154 224 143 217 133 205 C 122 192 117 176 117 156 L 25 156 C 25 207 34 248 54 279 C 73 309 100 325 136 325 C 158 325 179 320 197 310 C 215 300 229 290 241 281 C 251 272 262 265 273 259 C 283 253 294 251 305 251 C 321 251 332 257 338 269 C 344 281 348 299 348 323 Z" unicode="≈" />
<glyph horiz-adv-x="481" d="M 438 164 L 228 164 L 183 55 L 106 82 L 140 164 L 59 164 L 59 263 L 180 263 L 230 385 L 59 385 L 59 484 L 271 484 L 316 595 L 394 568 L 359 484 L 438 484 L 438 385 L 319 385 L 269 263 L 438 263 L 438 164 Z" unicode="≠" />
<glyph horiz-adv-x="481" d="M 172 327 L 423 200 L 423 13 L 54 13 L 54 100 L 413 100 L 55 287 L 55 361 L 424 562 L 424 456 L 172 327 Z" unicode="≤" />
<glyph horiz-adv-x="481" d="M 423 13 L 54 13 L 54 200 L 304 327 L 53 456 L 53 562 L 422 361 L 422 287 L 64 100 L 423 100 L 423 13 Z" unicode="≥" />
<glyph horiz-adv-x="545" d="M 516 326 L 278 -26 L 267 -26 L 28 326 L 28 337 L 267 688 L 278 688 L 516 337 L 516 326 Z M 405 327 L 405 336 L 277 530 L 269 530 L 139 336 L 139 327 L 269 132 L 277 132 L 405 327 Z" unicode="◊" />
<glyph horiz-adv-x="730" d="M 448 664 L 282 664 L 282 730 L 448 730 L 448 664 Z M 659 282 L 591 282 L 591 448 L 659 448 L 659 282 Z M 139 282 L 71 282 L 71 448 L 139 448 L 139 282 Z M 442 288 L 288 288 L 288 442 L 442 442 L 442 288 Z M 448 0 L 282 0 L 282 67 L 448 67 L 448 0 Z" unicode="" />
<glyph horiz-adv-x="434" d="M 233 385 L 174 385 L 174 0 L 55 0 L 55 385 L 13 385 L 13 479 L 55 479 L 55 637 C 55 660 59 681 68 701 C 76 721 87 738 101 752 C 115 766 130 777 147 785 C 164 793 181 797 198 797 C 220 797 240 794 258 789 C 276 784 289 779 296 774 L 266 689 C 262 691 256 693 247 695 C 237 697 229 699 221 699 C 207 699 196 692 186 678 C 176 664 171 644 171 616 L 171 479 L 233 479 L 233 385 Z M 400 560 L 277 560 L 277 665 L 400 665 L 400 560 Z M 398 0 L 279 0 L 279 479 L 398 479 L 398 0 Z" unicode="ﬁ" />
<glyph horiz-adv-x="435" d="M 174 394 L 174 0 L 55 0 L 55 394 L 9 394 L 9 494 L 55 494 L 55 638 C 55 661 59 682 68 702 C 76 722 87 739 101 753 C 115 767 130 778 147 786 C 164 794 181 798 198 798 C 214 798 230 796 245 793 C 260 790 272 787 282 783 L 282 795 L 401 795 L 401 0 L 282 0 L 282 728 L 270 688 C 266 690 259 693 250 696 C 240 698 231 700 223 700 C 209 700 196 693 186 679 C 176 665 171 645 171 617 L 171 494 L 235 494 L 235 394 L 174 394 Z" unicode="ﬂ" />
</font>
</defs>
</svg>
