<?xml version="1.0" encoding="utf-8" ?><svg version="1.1" xmlns = 'http://www.w3.org/2000/svg'><defs><font id='web' horiz-adv-x="1000">
<font-face font-family="web" descent="-200" cap-height="730" units-per-em="1000" bbox="-227,-353,1225,1024" x-height="498" ascent="800" />
<missing-glyph horiz-adv-x="500" d="" /><glyph horiz-adv-x="258" d="" unicode=" " />
<glyph horiz-adv-x="305" d="M 239 435 L 191 240 L 118 240 L 73 435 L 73 730 L 239 730 L 239 435 Z M 231 0 L 80 0 L 80 152 L 231 152 L 231 0 Z" unicode="!" />
<glyph horiz-adv-x="466" d="M 410 611 L 401 451 L 285 451 L 279 610 L 279 730 L 410 730 L 410 611 Z M 186 610 L 180 451 L 62 451 L 56 610 L 56 730 L 186 730 L 186 610 Z" unicode="&#x22;" />
<glyph horiz-adv-x="650" d="M 376 0 L 393 192 L 234 192 L 217 0 L 131 0 L 148 192 L 34 192 L 34 307 L 158 307 L 168 420 L 58 420 L 58 535 L 178 535 L 195 730 L 281 729 L 264 535 L 423 535 L 440 730 L 525 729 L 508 535 L 616 535 L 616 420 L 498 420 L 488 307 L 592 307 L 592 192 L 478 192 L 461 0 L 376 0 Z M 244 307 L 403 307 L 413 420 L 254 420 L 244 307 Z" unicode="#" />
<glyph horiz-adv-x="568" d="M 538 198 C 538 170 532 145 521 123 C 510 101 495 81 476 65 C 457 48 434 34 408 24 C 382 13 353 6 323 3 L 323 -120 L 244 -120 L 244 3 C 196 6 152 15 114 31 C 75 46 45 63 25 82 L 78 192 C 90 181 104 171 122 161 C 140 151 158 143 178 136 C 198 129 218 123 238 119 C 258 115 276 113 293 113 C 327 113 354 120 374 134 C 394 148 405 168 405 192 C 405 204 403 214 399 224 C 395 233 388 242 376 252 C 364 261 347 271 325 282 C 303 293 274 306 238 321 C 166 350 115 382 83 416 C 51 450 36 493 36 543 C 36 593 55 635 94 669 C 133 703 183 723 244 729 L 244 789 L 323 789 L 323 728 C 361 724 397 715 430 701 C 462 687 490 670 513 649 L 443 553 C 421 573 395 588 365 599 C 335 610 306 616 279 616 C 247 616 221 609 201 597 C 180 584 170 566 170 544 C 169 520 179 502 201 488 C 223 474 265 453 327 426 C 360 411 390 397 416 383 C 442 369 464 353 482 336 C 500 318 513 299 523 277 C 533 255 538 228 538 198 Z" unicode="$" />
<glyph horiz-adv-x="872" d="M 218 349 C 195 349 173 353 151 362 C 129 371 110 384 93 401 C 76 417 62 438 52 462 C 42 486 37 513 37 543 C 37 569 41 595 51 619 C 60 643 73 663 89 681 C 105 699 124 713 146 723 C 167 733 190 739 214 739 C 239 739 263 733 285 723 C 307 713 326 699 342 681 C 358 663 370 643 379 620 C 388 596 393 572 393 546 C 393 518 388 493 379 469 C 369 445 357 424 341 406 C 325 388 307 374 286 364 C 264 354 242 349 218 349 Z M 244 0 L 148 0 L 616 730 L 712 730 L 244 0 Z M 216 447 C 236 447 252 455 262 473 C 272 490 278 514 278 544 C 278 572 273 595 263 613 C 253 631 237 640 217 640 C 197 640 181 631 171 613 C 160 595 155 572 155 544 C 155 513 160 489 171 472 C 182 455 197 447 216 447 Z M 659 -3 C 636 -3 614 1 593 10 C 571 19 552 32 536 49 C 519 65 506 86 496 110 C 486 134 481 161 481 191 C 481 217 485 243 495 267 C 504 291 516 311 532 329 C 548 347 567 361 589 371 C 611 381 634 387 659 387 C 685 387 708 381 730 371 C 752 361 771 347 787 329 C 803 311 815 291 824 268 C 832 244 837 220 837 194 C 837 167 832 142 823 118 C 814 94 802 73 786 55 C 770 37 752 22 730 12 C 708 2 684 -3 659 -3 Z M 658 96 C 678 96 694 104 705 121 C 716 137 722 161 722 192 C 722 222 716 245 706 262 C 695 279 679 288 659 288 C 640 288 625 279 615 262 C 604 245 599 222 599 192 C 599 160 604 136 616 120 C 627 104 641 96 658 96 Z" unicode="%" />
<glyph horiz-adv-x="765" d="M 664 -4 L 570 74 C 534 48 494 27 450 13 C 406 0 356 -8 302 -8 C 218 -8 151 9 100 43 C 49 77 24 126 24 188 C 24 213 28 236 38 256 C 48 276 61 294 77 310 C 93 326 111 340 131 353 C 151 366 172 379 193 391 C 183 399 173 410 163 422 C 152 434 142 447 134 461 C 125 475 118 490 112 508 C 106 525 103 543 103 563 C 103 587 109 610 121 631 C 133 652 150 670 170 686 C 190 702 214 714 241 723 C 267 732 295 737 325 737 C 355 737 383 732 409 723 C 435 713 457 701 475 686 C 493 670 507 652 517 632 C 527 612 532 591 532 569 C 532 529 519 496 495 469 C 471 442 438 415 397 389 L 564 255 C 574 268 585 282 595 297 C 605 312 615 328 625 344 L 739 275 C 728 256 717 238 705 221 C 693 203 681 187 669 171 L 748 108 L 664 -4 Z M 243 561 C 243 543 249 525 263 508 C 276 490 291 474 309 460 C 338 478 360 495 375 511 C 390 526 398 542 398 560 C 398 578 391 595 378 609 C 365 623 346 630 321 630 C 298 630 279 622 265 608 C 250 594 243 578 243 561 Z M 181 194 C 181 166 193 144 218 130 C 242 115 272 108 307 108 C 335 108 363 112 390 122 C 416 131 442 144 466 161 L 279 318 C 245 296 220 276 204 258 C 188 240 181 219 181 194 Z" unicode="&#x26;" />
<glyph horiz-adv-x="242" d="M 186 605 L 180 443 L 62 443 L 56 605 L 56 730 L 186 730 L 186 605 Z" unicode="'" />
<glyph horiz-adv-x="355" d="M 338 -71 L 338 -186 C 298 -170 259 -147 222 -117 C 184 -87 151 -52 123 -12 C 95 28 72 74 55 126 C 38 178 30 233 30 293 C 30 353 38 409 56 460 C 73 510 96 555 124 593 C 152 631 185 664 223 690 C 260 716 298 736 338 749 L 338 644 C 319 633 301 619 283 601 C 265 583 249 560 235 532 C 221 504 210 470 202 431 C 193 391 189 345 189 293 C 189 201 202 126 230 67 C 258 7 294 -38 338 -71 Z" unicode="(" />
<glyph horiz-adv-x="355" d="M 19 644 L 19 749 C 57 737 94 718 132 692 C 169 666 202 634 231 596 C 259 557 282 512 300 460 C 318 408 327 350 327 288 C 327 226 318 170 300 118 C 282 66 259 21 231 -18 C 202 -58 169 -92 132 -120 C 95 -148 57 -170 19 -186 L 19 -69 C 61 -38 97 5 127 62 C 157 119 172 194 173 288 C 173 342 168 389 159 429 C 150 469 138 504 124 532 C 109 560 92 584 74 602 C 56 620 37 634 19 644 Z" unicode=")" />
<glyph horiz-adv-x="426" d="M 397 565 L 274 532 L 369 450 L 287 379 L 216 489 L 146 380 L 65 449 L 157 533 L 29 561 L 74 662 L 181 599 L 160 730 L 272 730 L 250 599 L 359 660 L 397 565 Z" unicode="*" />
<glyph horiz-adv-x="511" d="M 481 275 L 313 275 L 313 108 L 198 108 L 198 275 L 29 275 L 29 387 L 198 387 L 198 554 L 313 554 L 313 387 L 481 387 L 481 275 Z" unicode="+" />
<glyph horiz-adv-x="272" d="M 236 134 C 234 104 229 74 221 44 C 213 13 203 -15 191 -41 C 179 -67 167 -90 153 -110 C 139 -130 127 -144 115 -152 L 11 -105 C 19 -97 27 -84 36 -67 C 44 -49 53 -30 61 -8 C 69 13 76 36 82 61 C 88 86 92 110 94 134 L 236 134 Z" unicode="," />
<glyph horiz-adv-x="377" d="M 332 207 L 46 207 L 46 332 L 332 332 L 332 207 Z" unicode="-" />
<glyph horiz-adv-x="273" d="M 208 0 L 65 0 L 65 155 L 208 155 L 208 0 Z" unicode="." />
<glyph horiz-adv-x="349" d="M 353 730 L 123 0 L -4 0 L 229 730 L 353 730 Z" unicode="/" />
<glyph horiz-adv-x="602" d="M 298 -12 C 259 -12 224 -4 192 11 C 160 26 132 49 109 80 C 86 110 68 149 56 196 C 43 243 37 298 37 361 C 37 413 42 463 53 509 C 64 555 80 596 102 630 C 124 664 151 692 185 712 C 219 732 258 742 303 742 C 349 742 388 732 422 714 C 455 696 482 670 503 637 C 524 604 540 565 550 519 C 560 473 565 424 565 370 C 565 312 559 259 549 212 C 538 165 522 125 500 92 C 478 58 450 33 416 15 C 382 -3 343 -12 298 -12 Z M 299 111 C 341 111 371 132 391 175 C 410 218 420 279 420 359 C 420 441 410 504 392 550 C 373 596 343 619 301 619 C 261 619 231 597 211 555 C 191 512 182 448 182 362 C 182 278 191 216 211 174 C 231 132 260 111 299 111 Z" unicode="0" />
<glyph horiz-adv-x="400" d="M 323 0 L 180 0 L 180 536 C 172 528 162 520 150 513 C 138 506 125 500 111 494 C 97 488 82 484 68 481 C 54 477 41 475 31 475 L 31 611 C 67 612 101 623 133 645 C 165 666 197 695 229 731 L 323 731 L 323 0 Z" unicode="1" />
<glyph horiz-adv-x="565" d="M 542 0 L 22 0 L 22 48 L 322 384 C 342 406 358 429 370 453 C 381 476 387 499 387 522 C 387 548 376 571 356 589 C 335 607 308 616 274 616 C 236 616 206 604 186 581 C 166 558 156 529 156 495 L 25 500 C 27 575 51 634 99 677 C 146 720 209 742 289 742 C 361 742 420 724 465 689 C 510 653 533 605 533 544 C 533 490 522 445 500 409 C 478 373 454 341 429 315 L 247 121 L 542 121 L 542 0 Z" unicode="2" />
<glyph horiz-adv-x="550" d="M 264 -12 C 200 -12 145 -3 101 14 C 57 31 23 51 1 74 L 73 178 C 90 164 114 149 144 134 C 174 119 209 112 251 112 C 296 112 331 122 355 144 C 379 166 392 194 392 228 C 392 260 379 285 354 302 C 328 318 296 327 256 327 L 128 327 L 128 449 L 253 449 C 285 449 312 457 334 473 C 355 489 366 510 366 535 C 366 557 356 577 338 594 C 320 610 295 619 265 619 C 225 619 192 611 168 597 C 143 582 122 566 105 549 L 31 647 C 39 657 51 667 66 679 C 80 690 98 700 118 710 C 138 719 161 727 188 733 C 214 739 244 742 277 742 C 310 742 341 738 370 730 C 398 722 423 710 444 694 C 464 678 480 659 492 636 C 504 613 510 587 510 558 C 510 516 497 481 471 452 C 445 422 416 403 384 393 C 424 383 459 363 489 332 C 518 301 533 262 533 215 C 533 190 528 164 518 137 C 508 110 493 86 472 64 C 450 42 422 23 388 9 C 354 -4 312 -12 264 -12 Z" unicode="3" />
<glyph horiz-adv-x="587" d="M 579 179 L 465 179 L 465 0 L 331 0 L 331 179 L 12 179 L 12 274 L 364 738 L 465 738 L 465 297 L 579 297 L 579 179 Z M 334 293 L 334 531 L 156 293 L 334 293 Z" unicode="4" />
<glyph horiz-adv-x="570" d="M 274 -12 C 210 -12 156 -2 114 18 C 71 38 39 58 17 79 L 87 184 C 105 165 129 148 161 133 C 193 118 227 111 263 111 C 303 111 336 123 360 149 C 384 175 397 208 397 250 C 397 288 385 319 362 342 C 338 364 309 376 274 376 C 245 376 219 370 197 360 C 175 349 158 334 147 316 L 55 338 L 87 730 L 479 730 L 479 605 L 191 605 L 180 446 C 191 459 209 470 233 480 C 257 489 282 494 310 494 C 346 494 378 488 407 476 C 436 464 461 448 481 427 C 501 406 516 381 527 352 C 538 322 544 290 544 256 C 544 218 537 182 525 149 C 512 116 494 88 471 64 C 447 40 419 22 386 8 C 352 -5 315 -12 274 -12 Z" unicode="5" />
<glyph horiz-adv-x="583" d="M 303 -12 C 265 -12 229 -5 196 7 C 163 20 135 39 111 63 C 87 87 68 116 54 150 C 40 184 33 223 33 266 C 33 309 39 350 52 389 C 64 428 81 465 103 501 C 125 536 150 570 180 603 C 209 636 240 669 274 701 L 336 758 L 427 675 L 375 628 C 333 585 295 545 262 509 C 228 472 206 442 196 419 C 206 432 223 445 247 458 C 271 471 298 478 329 478 C 397 478 452 456 496 412 C 539 368 561 310 561 236 C 561 201 554 168 541 138 C 528 108 510 81 487 59 C 464 37 437 19 405 7 C 373 -5 339 -12 303 -12 Z M 303 107 C 338 107 366 119 388 143 C 409 167 420 198 420 234 C 420 272 409 303 389 327 C 368 351 339 363 301 363 C 268 363 239 352 215 331 C 190 310 178 279 178 239 C 178 199 189 167 211 143 C 233 119 264 107 303 107 Z" unicode="6" />
<glyph horiz-adv-x="511" d="M 504 730 L 521 682 L 182 -12 L 56 47 L 336 604 L 13 604 L 13 730 L 504 730 Z" unicode="7" />
<glyph horiz-adv-x="591" d="M 420 385 C 456 373 487 352 515 321 C 543 289 557 249 557 199 C 557 169 551 142 539 116 C 527 90 509 68 487 49 C 465 30 437 15 405 4 C 372 -6 335 -12 294 -12 C 213 -12 150 7 104 46 C 58 85 36 136 36 198 C 36 224 40 247 49 269 C 57 290 68 308 81 324 C 94 340 109 353 125 363 C 141 373 157 380 173 384 C 159 390 146 397 132 407 C 118 417 106 428 95 442 C 84 456 75 471 68 489 C 61 507 58 526 58 547 C 58 576 64 603 76 627 C 88 651 104 671 125 688 C 145 705 170 718 199 728 C 228 737 260 742 294 742 C 332 742 365 737 395 727 C 425 717 450 704 470 688 C 490 671 506 651 517 628 C 528 605 534 581 534 555 C 534 514 522 479 499 449 C 476 419 450 397 420 385 Z M 294 429 C 326 429 352 437 371 455 C 390 473 400 495 400 523 C 400 556 390 581 371 598 C 352 614 326 623 294 623 C 263 623 238 614 218 596 C 198 578 189 554 189 524 C 189 495 198 472 218 455 C 238 437 263 429 294 429 Z M 294 102 C 332 102 363 112 386 132 C 409 152 421 179 421 213 C 421 245 409 271 386 289 C 363 307 332 316 294 316 C 256 316 226 307 203 289 C 179 271 168 246 168 212 C 168 178 179 152 202 132 C 225 112 256 102 294 102 Z" unicode="8" />
<glyph horiz-adv-x="583" d="M 256 -18 L 169 67 L 225 118 C 260 153 294 189 326 227 C 358 265 381 297 393 324 C 382 309 363 295 336 281 C 309 267 281 261 253 261 C 219 261 188 266 160 277 C 131 288 106 304 86 324 C 66 344 50 369 39 399 C 27 429 22 462 22 500 C 22 534 28 566 41 596 C 54 626 72 653 95 675 C 118 697 146 714 178 727 C 210 739 244 746 282 746 C 320 746 355 739 388 727 C 420 714 449 696 473 672 C 497 648 515 619 529 585 C 543 551 550 512 550 469 C 550 423 543 380 531 340 C 518 299 501 261 480 226 C 458 190 433 157 405 125 C 377 93 347 64 316 37 L 256 -18 Z M 285 371 C 319 371 349 382 373 405 C 397 427 409 458 409 498 C 409 538 397 570 373 593 C 349 616 320 628 286 628 C 250 628 221 616 199 592 C 177 568 166 538 166 502 C 166 462 176 431 197 407 C 217 383 247 371 285 371 Z" unicode="9" />
<glyph horiz-adv-x="273" d="M 207 346 L 66 346 L 66 498 L 207 498 L 207 346 Z M 207 0 L 66 0 L 66 152 L 207 152 L 207 0 Z" unicode=":" />
<glyph horiz-adv-x="272" d="M 215 346 L 75 346 L 75 498 L 215 498 L 215 346 Z M 218 121 C 216 95 211 67 203 39 C 195 11 185 -15 174 -40 C 163 -64 151 -86 139 -105 C 126 -124 114 -137 102 -145 L -2 -99 C 6 -89 14 -76 24 -60 C 34 -44 43 -26 51 -6 C 59 13 66 34 72 56 C 78 78 81 100 82 121 L 218 121 Z" unicode=";" />
<glyph horiz-adv-x="451" d="M 393 86 L 49 277 L 49 378 L 393 569 L 393 441 L 191 331 L 393 215 L 393 86 Z" unicode="&#x3C;" />
<glyph horiz-adv-x="507" d="M 453 378 L 55 378 L 55 497 L 453 497 L 453 378 Z M 453 155 L 55 155 L 55 274 L 453 274 L 453 155 Z" unicode="=" />
<glyph horiz-adv-x="451" d="M 400 277 L 56 86 L 56 215 L 259 331 L 56 442 L 56 569 L 400 378 L 400 277 Z" unicode="&#x3E;" />
<glyph horiz-adv-x="479" d="M 153 226 C 153 266 159 299 171 326 C 183 353 204 379 233 405 C 255 425 275 444 291 463 C 307 482 316 506 316 534 C 316 559 305 579 285 594 C 265 608 241 616 214 616 C 188 616 164 609 143 597 C 122 584 106 569 94 552 L 4 641 C 26 670 58 694 99 713 C 140 732 186 742 236 742 C 304 742 358 723 400 687 C 442 651 463 605 463 551 C 463 525 459 502 452 482 C 445 462 436 444 425 428 C 413 412 401 398 387 385 C 373 372 360 360 348 348 C 326 331 312 312 304 290 C 296 268 292 247 292 226 L 153 226 Z M 147 0 L 147 146 L 304 146 L 304 0 L 147 0 Z" unicode="?" />
<glyph horiz-adv-x="874" d="M 427 -33 C 371 -33 319 -23 272 -3 C 225 17 185 44 151 78 C 117 112 91 153 72 200 C 53 246 44 296 44 350 C 44 404 53 455 72 502 C 90 549 117 590 151 624 C 185 658 226 684 274 704 C 322 723 376 733 435 733 C 494 733 548 724 597 708 C 645 692 687 669 721 639 C 755 609 781 573 800 530 C 818 486 828 438 828 386 C 828 341 822 303 812 271 C 801 239 788 214 772 194 C 756 174 738 160 718 151 C 698 142 678 138 660 138 C 626 138 598 144 578 156 C 558 168 544 184 536 205 C 525 189 506 174 479 160 C 452 146 419 139 380 139 C 330 139 292 151 266 177 C 240 202 227 234 227 272 C 227 314 246 348 284 373 C 322 397 376 410 445 410 L 524 410 L 524 421 C 524 442 517 458 503 469 C 489 480 465 486 433 486 C 408 486 385 483 364 477 C 342 471 324 464 310 458 L 273 541 C 289 549 313 557 343 565 C 373 572 403 576 431 576 C 487 576 534 563 570 538 C 606 513 624 470 624 408 L 624 265 C 624 254 627 244 633 234 C 639 224 652 220 670 220 C 678 220 686 222 695 226 C 703 230 711 238 719 250 C 726 262 732 278 737 299 C 741 319 744 346 744 379 C 744 418 737 455 723 489 C 709 523 688 553 662 578 C 636 602 603 622 565 636 C 527 650 483 657 435 657 C 387 657 345 649 307 634 C 269 618 236 597 210 570 C 184 543 163 511 149 474 C 135 436 128 396 128 353 C 128 310 135 270 150 232 C 165 194 186 161 213 133 C 239 105 271 82 308 66 C 345 50 386 42 430 42 C 453 42 477 44 502 49 C 526 54 550 62 572 74 L 603 4 C 576 -8 548 -18 518 -24 C 488 -30 457 -33 427 -33 Z M 419 223 C 440 223 461 227 481 236 C 501 244 515 253 524 262 L 524 339 L 446 339 C 412 339 387 334 371 324 C 355 314 347 301 347 283 C 347 262 352 247 364 237 C 376 227 394 223 419 223 Z" unicode="@" />
<glyph horiz-adv-x="677" d="M 680 0 L 521 0 L 465 141 L 200 141 L 147 0 L -3 0 L 297 732 L 390 732 L 680 0 Z M 430 252 L 332 505 L 236 252 L 430 252 Z" unicode="A" />
<glyph horiz-adv-x="641" d="M 87 0 L 87 730 L 355 730 C 420 730 472 714 511 683 C 550 652 570 609 570 555 C 570 507 556 468 530 439 C 504 410 471 392 432 384 C 453 381 474 376 495 368 C 516 360 535 349 551 335 C 567 321 581 303 591 281 C 601 259 607 234 607 205 C 607 171 600 142 586 116 C 572 90 554 69 530 52 C 506 34 479 21 447 13 C 415 4 382 0 346 0 L 87 0 Z M 228 427 L 323 427 C 358 427 383 437 398 458 C 413 478 421 500 421 524 C 421 548 412 569 394 586 C 376 602 352 611 322 611 L 228 611 L 228 427 Z M 230 119 L 346 119 C 384 119 412 129 428 149 C 444 169 453 193 453 220 C 453 246 443 267 424 285 C 404 303 377 312 341 312 L 230 312 L 230 119 Z" unicode="B" />
<glyph horiz-adv-x="720" d="M 404 -12 C 353 -12 305 -3 261 14 C 217 31 179 56 147 88 C 115 120 89 160 71 207 C 52 254 43 307 43 365 C 43 419 52 470 70 516 C 88 562 114 602 146 636 C 178 669 217 695 261 714 C 305 732 353 742 405 742 C 471 742 527 732 575 713 C 622 693 662 665 694 627 L 597 527 C 577 549 552 568 522 584 C 491 600 454 608 410 608 C 374 608 343 602 317 590 C 290 578 268 561 250 540 C 232 518 218 493 209 463 C 199 433 195 401 195 367 C 195 323 201 286 213 255 C 225 223 242 197 262 177 C 282 157 306 142 333 132 C 360 122 388 118 417 118 C 462 118 500 127 532 145 C 564 163 590 186 612 215 L 708 132 C 678 90 638 56 587 29 C 535 1 474 -12 404 -12 Z" unicode="C" />
<glyph horiz-adv-x="762" d="M 87 0 L 87 730 L 340 730 C 401 730 455 721 503 704 C 550 686 590 662 622 631 C 654 600 678 563 694 519 C 710 475 719 426 719 374 C 719 322 710 273 693 227 C 676 181 651 141 618 108 C 584 74 543 48 493 29 C 443 9 386 0 322 0 L 87 0 Z M 237 120 L 321 120 C 363 120 399 126 430 140 C 460 154 485 172 505 195 C 525 218 539 245 549 275 C 558 305 563 337 563 371 C 563 441 543 499 504 543 C 464 587 408 609 335 609 L 237 609 L 237 120 Z" unicode="D" />
<glyph horiz-adv-x="606" d="M 559 0 L 87 0 L 87 730 L 540 730 L 540 604 L 234 604 L 234 422 L 520 422 L 520 300 L 234 300 L 234 126 L 559 126 L 559 0 Z" unicode="E" />
<glyph horiz-adv-x="541" d="M 503 604 L 236 604 L 236 422 L 488 422 L 488 298 L 236 298 L 236 0 L 87 0 L 87 730 L 503 730 L 503 604 Z" unicode="F" />
<glyph horiz-adv-x="778" d="M 421 387 L 735 387 L 735 150 C 706 103 664 64 610 34 C 555 3 490 -12 415 -12 C 361 -12 311 -3 265 15 C 219 33 179 58 147 91 C 114 123 88 163 70 210 C 52 256 43 308 43 365 C 43 423 52 475 72 522 C 92 569 118 609 152 641 C 186 673 225 698 271 716 C 316 733 364 742 415 742 C 452 742 485 738 515 731 C 544 724 569 715 591 705 C 612 695 630 683 646 671 C 661 658 674 646 684 635 L 590 536 C 574 552 552 568 524 584 C 496 600 459 608 411 608 C 347 608 294 586 254 544 C 213 501 193 442 193 367 C 193 329 198 295 209 263 C 220 231 235 204 255 182 C 275 159 299 141 327 129 C 355 116 387 110 422 110 C 464 110 502 118 534 134 C 566 150 590 171 604 197 L 604 263 L 421 263 L 421 387 Z" unicode="G" />
<glyph horiz-adv-x="778" d="M 691 0 L 541 0 L 541 294 L 237 294 L 237 0 L 87 0 L 87 730 L 237 730 L 237 425 L 541 425 L 541 730 L 691 730 L 691 0 Z" unicode="H" />
<glyph horiz-adv-x="333" d="M 242 0 L 92 0 L 92 730 L 242 730 L 242 0 Z" unicode="I" />
<glyph horiz-adv-x="422" d="M 345 730 L 345 203 C 345 173 340 144 330 118 C 320 92 306 69 288 50 C 269 31 246 16 219 5 C 191 -6 160 -12 125 -12 C 104 -12 82 -10 60 -7 C 38 -4 21 0 9 7 L 37 128 C 43 125 54 123 70 121 C 85 119 98 118 109 118 C 139 118 162 126 178 143 C 194 159 202 179 202 202 L 202 730 L 345 730 Z" unicode="J" />
<glyph horiz-adv-x="711" d="M 716 0 L 525 0 L 298 293 L 236 218 L 236 0 L 87 0 L 87 730 L 236 730 L 236 393 L 509 730 L 681 730 L 402 397 L 716 0 Z" unicode="K" />
<glyph horiz-adv-x="539" d="M 529 0 L 87 0 L 87 730 L 237 730 L 237 127 L 529 127 L 529 0 Z" unicode="L" />
<glyph horiz-adv-x="947" d="M 860 0 L 720 0 L 720 429 L 499 112 L 445 112 L 226 427 L 226 0 L 87 0 L 87 730 L 181 730 L 477 294 L 769 730 L 860 730 L 860 0 Z" unicode="M" />
<glyph horiz-adv-x="783" d="M 696 0 L 593 0 L 227 468 L 227 0 L 87 0 L 87 730 L 200 730 L 557 270 L 557 730 L 696 730 L 696 0 Z" unicode="N" />
<glyph horiz-adv-x="833" d="M 420 -12 C 362 -12 310 -2 264 16 C 217 35 177 62 145 96 C 112 130 87 170 69 217 C 51 264 43 315 43 370 C 43 423 52 472 72 518 C 91 564 117 603 150 636 C 183 669 222 695 268 714 C 313 732 361 742 412 742 C 466 742 517 733 564 715 C 610 697 650 671 684 639 C 717 607 743 568 762 522 C 781 476 791 425 791 369 C 791 311 781 259 761 212 C 741 164 714 124 680 91 C 646 58 606 33 561 15 C 516 -3 469 -12 420 -12 Z M 422 118 C 452 118 481 123 508 134 C 534 144 557 160 577 181 C 596 202 611 228 622 260 C 633 291 639 327 639 367 C 639 403 633 437 621 467 C 609 497 594 522 574 543 C 554 563 530 579 502 591 C 474 602 444 608 412 608 C 381 608 352 602 326 592 C 299 582 276 567 256 547 C 236 527 221 503 210 473 C 199 443 194 408 194 370 C 194 330 199 294 211 262 C 223 230 239 204 259 183 C 279 161 304 145 332 134 C 360 123 390 118 422 118 Z" unicode="O" />
<glyph horiz-adv-x="628" d="M 87 0 L 87 730 L 366 730 C 435 730 492 709 536 668 C 580 627 603 572 603 502 C 603 468 597 436 585 407 C 573 377 557 352 536 331 C 515 310 490 294 460 282 C 430 270 397 265 361 265 L 237 265 L 237 0 L 87 0 Z M 235 386 L 342 386 C 377 386 404 396 423 418 C 441 439 451 467 451 502 C 451 536 440 563 418 581 C 396 599 368 608 336 608 L 235 608 L 235 386 Z" unicode="P" />
<glyph horiz-adv-x="830" d="M 705 -63 L 705 -190 C 629 -188 563 -170 506 -136 C 448 -102 407 -59 382 -5 C 328 -1 280 11 238 31 C 196 51 160 77 131 109 C 102 141 80 180 65 224 C 50 268 43 317 43 370 C 43 422 52 470 71 516 C 90 562 116 601 149 635 C 181 668 220 694 266 713 C 311 732 360 742 413 742 C 467 742 518 733 564 715 C 610 697 650 672 684 640 C 717 608 743 568 762 522 C 781 475 791 423 791 365 C 791 322 784 282 772 244 C 760 206 743 171 721 141 C 699 110 672 83 640 61 C 608 39 574 22 536 11 C 554 -11 578 -29 608 -41 C 638 -53 671 -61 705 -63 Z M 420 117 C 451 117 480 122 507 133 C 534 143 557 159 577 180 C 596 200 611 226 622 258 C 633 289 639 325 639 366 C 639 405 633 440 621 470 C 609 500 592 526 572 546 C 551 566 527 582 499 592 C 471 602 442 608 411 608 C 348 608 296 587 256 547 C 215 506 195 447 195 370 C 195 329 200 293 212 261 C 224 229 240 203 260 182 C 280 160 304 144 332 133 C 359 122 388 117 420 117 Z" unicode="Q" />
<glyph horiz-adv-x="659" d="M 87 0 L 87 730 L 349 730 C 379 730 408 725 436 716 C 463 707 487 694 508 677 C 528 660 545 639 557 613 C 569 587 576 558 576 525 C 576 493 571 466 562 442 C 553 418 541 397 527 381 C 513 364 496 351 478 341 C 460 331 441 325 423 323 L 422 318 L 653 0 L 479 0 L 287 277 L 236 277 L 236 0 L 87 0 Z M 234 398 L 319 398 C 347 398 372 407 392 425 C 412 443 423 471 423 507 C 423 540 412 565 392 583 C 372 601 348 610 321 610 L 234 610 L 234 398 Z" unicode="R" />
<glyph horiz-adv-x="573" d="M 293 -12 C 233 -12 181 -4 136 12 C 90 28 53 50 24 78 L 108 191 C 126 170 152 152 185 136 C 218 120 254 112 292 112 C 320 112 344 119 363 133 C 381 147 391 165 391 189 C 391 213 381 233 361 250 C 341 266 310 283 268 301 C 234 314 204 328 177 343 C 149 357 126 374 108 393 C 89 411 75 433 65 458 C 55 482 50 512 50 546 C 50 604 71 651 115 687 C 158 723 215 742 286 742 C 336 742 379 734 416 720 C 452 705 484 688 510 668 L 440 553 C 417 570 393 584 368 596 C 342 608 316 614 288 614 C 259 614 236 607 220 594 C 203 581 195 565 195 545 C 195 521 205 501 227 485 C 249 469 287 450 342 428 C 408 400 458 369 490 336 C 522 302 538 256 538 198 C 538 164 531 134 518 108 C 504 82 486 60 464 42 C 442 24 416 11 386 2 C 356 -7 325 -12 293 -12 Z" unicode="S" />
<glyph horiz-adv-x="576" d="M 566 602 L 360 602 L 360 0 L 210 0 L 210 602 L 10 602 L 10 730 L 566 730 L 566 602 Z" unicode="T" />
<glyph horiz-adv-x="764" d="M 683 730 L 683 266 C 683 222 675 183 659 149 C 643 114 621 85 594 61 C 566 37 534 19 498 7 C 461 -5 422 -12 381 -12 C 341 -12 302 -6 266 6 C 229 18 197 35 170 59 C 143 83 122 112 106 147 C 90 181 82 221 82 266 L 82 730 L 228 730 L 228 265 C 228 221 242 185 272 159 C 301 132 337 119 380 119 C 424 119 461 131 491 157 C 521 183 536 219 536 265 L 536 730 L 683 730 Z" unicode="U" />
<glyph horiz-adv-x="687" d="M 692 730 L 388 -3 L 296 -3 L -3 730 L 158 730 L 346 244 L 539 730 L 692 730 Z" unicode="V" />
<glyph horiz-adv-x="941" d="M 938 730 L 707 -5 L 629 -5 L 472 478 L 307 -5 L 229 -5 L 3 730 L 155 730 L 290 277 L 439 730 L 517 730 L 667 276 L 800 730 L 938 730 Z" unicode="W" />
<glyph horiz-adv-x="655" d="M 483 0 L 326 249 L 168 0 L 11 0 L 248 372 L 21 730 L 185 730 L 330 501 L 475 730 L 631 730 L 408 378 L 646 0 L 483 0 Z" unicode="X" />
<glyph horiz-adv-x="685" d="M 689 730 L 414 306 L 414 0 L 264 0 L 264 312 L -4 730 L 164 730 L 347 444 L 531 730 L 689 730 Z" unicode="Y" />
<glyph horiz-adv-x="609" d="M 573 730 L 573 672 L 217 126 L 583 126 L 583 0 L 17 0 L 17 55 L 367 603 L 36 603 L 36 730 L 573 730 Z" unicode="Z" />
<glyph horiz-adv-x="349" d="M 320 -179 L 86 -179 L 86 730 L 320 730 L 320 618 L 218 618 L 218 -66 L 320 -66 L 320 -179 Z" unicode="[" />
<glyph horiz-adv-x="349" d="M -4 730 L 120 730 L 353 0 L 227 0 L -4 730 Z" unicode="\" />
<glyph horiz-adv-x="342" d="M 256 -179 L 29 -179 L 29 -67 L 124 -67 L 124 618 L 29 618 L 29 730 L 256 730 L 256 -179 Z" unicode="]" />
<glyph horiz-adv-x="517" d="M 462 369 L 343 369 L 257 583 L 174 369 L 56 369 L 199 730 L 317 730 L 462 369 Z" unicode="^" />
<glyph horiz-adv-x="500" d="M 500 -176 L 0 -176 L 0 -61 L 500 -61 L 500 -176 Z" unicode="_" />
<glyph horiz-adv-x="500" d="M 378 550 L 238 550 L 109 710 L 274 710 L 378 550 Z" unicode="`" />
<glyph horiz-adv-x="558" d="M 500 0 L 368 0 L 368 58 C 352 37 330 20 303 8 C 276 -3 242 -10 201 -10 C 143 -10 99 4 69 33 C 39 62 25 99 25 143 C 25 198 47 241 92 271 C 136 301 200 317 283 321 L 365 326 L 365 333 C 365 354 358 371 344 384 C 330 396 307 403 276 403 C 245 403 215 397 186 387 C 157 377 131 365 109 352 L 58 441 C 82 459 113 476 153 490 C 193 504 239 511 292 511 C 356 511 406 496 444 468 C 481 440 500 394 500 331 L 500 0 Z M 368 150 L 368 233 L 280 229 C 245 228 217 221 197 209 C 177 197 167 179 167 157 C 167 138 174 123 188 113 C 202 102 220 97 243 97 C 269 97 294 102 316 113 C 338 123 356 136 368 150 Z" unicode="a" />
<glyph horiz-adv-x="617" d="M 361 -5 C 315 -5 279 3 253 21 C 226 38 208 58 198 81 L 198 0 L 66 0 L 66 765 L 196 765 L 196 417 C 205 439 224 460 253 479 C 281 498 318 508 363 508 C 394 508 423 502 450 491 C 477 479 500 463 520 442 C 540 420 555 394 567 363 C 578 332 584 298 584 260 C 584 218 577 180 565 147 C 553 114 536 86 516 64 C 495 41 471 24 444 12 C 417 0 389 -5 361 -5 Z M 321 102 C 357 102 385 115 407 143 C 429 171 440 207 440 252 C 440 296 430 332 410 358 C 390 384 360 397 320 397 C 284 397 255 384 233 360 C 211 336 200 298 200 248 C 200 201 210 165 232 140 C 254 114 283 102 321 102 Z" unicode="b" />
<glyph horiz-adv-x="543" d="M 419 180 L 529 114 C 509 80 481 51 444 26 C 406 1 356 -11 294 -11 C 256 -11 221 -5 189 7 C 157 19 129 36 106 58 C 83 80 65 108 52 140 C 39 172 33 209 33 249 C 33 288 39 324 53 356 C 67 388 86 415 110 438 C 134 460 162 478 195 491 C 227 503 262 510 300 510 C 331 510 359 506 385 498 C 410 490 432 480 451 468 C 469 455 485 440 498 424 C 511 407 521 390 528 373 L 407 320 C 397 340 384 357 367 371 C 350 385 327 392 299 392 C 262 392 233 378 211 352 C 189 325 178 291 178 249 C 178 203 189 167 211 143 C 233 119 264 107 302 107 C 334 107 359 114 377 130 C 395 145 409 162 419 180 Z" unicode="c" />
<glyph horiz-adv-x="616" d="M 265 -9 C 232 -9 201 -3 173 9 C 144 21 119 38 99 60 C 79 82 63 108 51 140 C 39 171 33 206 33 246 C 33 284 39 319 52 351 C 65 383 83 411 105 435 C 127 458 153 476 182 490 C 211 503 242 510 274 510 C 304 510 333 503 359 489 C 385 475 404 459 416 442 L 416 765 L 550 765 L 550 0 L 423 0 L 423 78 C 419 69 412 59 402 49 C 392 39 381 29 367 21 C 353 12 338 5 321 0 C 303 -6 285 -9 265 -9 Z M 297 101 C 334 101 363 114 385 141 C 406 168 417 205 417 252 C 417 303 405 340 382 362 C 359 384 331 396 297 396 C 259 396 230 383 209 357 C 187 331 177 296 177 250 C 177 206 187 171 208 143 C 228 115 258 101 297 101 Z" unicode="d" />
<glyph horiz-adv-x="575" d="M 302 -11 C 263 -11 227 -5 194 6 C 161 17 133 33 109 55 C 85 77 66 104 53 136 C 39 168 33 204 33 245 C 33 283 39 318 52 350 C 65 382 83 410 107 434 C 131 458 159 476 192 490 C 224 503 260 510 299 510 C 376 510 437 483 483 429 C 528 375 551 302 552 208 L 169 208 C 171 180 183 156 205 134 C 227 112 259 101 303 101 C 339 101 369 106 391 118 C 413 129 430 142 442 156 L 521 75 C 498 50 470 29 438 13 C 405 -2 360 -11 302 -11 Z M 172 302 L 412 302 C 410 328 399 351 378 371 C 356 391 328 401 294 401 C 259 401 231 390 209 370 C 187 350 174 327 172 302 Z" unicode="e" />
<glyph horiz-adv-x="352" d="M 346 381 L 234 381 L 234 0 L 96 0 L 96 381 L 9 381 L 9 498 L 96 498 L 96 578 C 96 610 100 639 110 663 C 120 687 133 707 149 723 C 165 739 184 750 206 758 C 228 766 251 770 275 770 C 293 770 310 768 328 764 C 345 760 359 756 370 752 L 352 636 C 345 638 337 641 328 643 C 319 645 309 646 298 646 C 280 646 265 639 253 626 C 240 613 234 595 234 573 L 234 498 L 346 498 L 346 381 Z" unicode="f" />
<glyph horiz-adv-x="614" d="M 261 8 C 228 8 198 14 170 26 C 142 38 118 54 98 76 C 78 97 62 123 51 153 C 39 183 34 217 34 253 C 34 330 55 392 97 439 C 139 485 195 509 265 509 C 300 509 332 501 361 487 C 390 472 410 454 421 434 L 421 498 L 550 498 L 550 56 C 550 14 542 -22 527 -54 C 511 -86 491 -112 466 -133 C 441 -153 412 -169 379 -179 C 346 -189 312 -194 277 -194 C 215 -194 166 -187 130 -174 C 94 -160 67 -148 51 -136 L 108 -36 C 121 -46 141 -57 169 -69 C 196 -80 227 -86 263 -86 C 305 -86 341 -75 370 -54 C 399 -33 414 -2 414 38 L 414 94 C 405 75 387 56 360 37 C 332 17 299 8 261 8 Z M 299 113 C 331 113 359 125 382 150 C 404 175 416 211 416 257 C 416 297 405 329 385 355 C 365 381 335 394 297 394 C 261 394 232 381 210 356 C 188 330 177 295 177 249 C 177 204 187 170 209 147 C 231 124 261 113 299 113 Z" unicode="g" />
<glyph horiz-adv-x="601" d="M 541 0 L 402 0 L 402 319 C 402 341 394 359 378 373 C 362 387 340 394 314 394 C 286 394 261 386 239 370 C 216 354 205 331 205 302 L 205 0 L 66 0 L 66 765 L 194 765 L 194 419 C 204 443 223 465 252 483 C 281 501 319 510 365 510 C 414 510 456 495 490 467 C 524 439 541 401 541 353 L 541 0 Z" unicode="h" />
<glyph horiz-adv-x="281" d="M 69 579 L 69 714 L 212 714 L 212 579 L 69 579 Z M 71 0 L 71 498 L 210 498 L 210 0 L 71 0 Z" unicode="i" />
<glyph horiz-adv-x="289" d="M 229 579 L 86 579 L 86 714 L 229 714 L 229 579 Z M 227 498 L 227 -25 C 227 -77 211 -119 181 -153 C 150 -186 107 -202 53 -202 C 35 -202 14 -200 -9 -197 C -32 -193 -51 -188 -67 -182 L -52 -75 C -44 -79 -33 -82 -20 -85 C -6 -87 7 -89 22 -89 C 42 -89 58 -81 70 -65 C 82 -49 88 -29 88 -5 L 88 498 L 227 498 Z" unicode="j" />
<glyph horiz-adv-x="571" d="M 599 1 L 436 0 L 272 202 L 203 131 L 203 0 L 66 0 L 66 765 L 201 765 L 201 269 L 407 498 L 559 498 L 364 288 L 599 1 Z" unicode="k" />
<glyph horiz-adv-x="271" d="M 205 765 L 205 0 L 66 0 L 66 765 L 205 765 Z" unicode="l" />
<glyph horiz-adv-x="930" d="M 66 0 L 66 498 L 193 498 L 193 417 C 203 443 225 465 257 483 C 289 501 326 510 367 510 C 401 510 432 502 461 487 C 490 471 509 447 518 415 L 524 415 C 534 443 554 466 585 484 C 616 501 651 510 690 510 C 744 510 787 495 820 467 C 853 438 870 400 870 353 L 870 0 L 731 0 L 731 318 C 731 342 723 361 707 374 C 691 387 670 394 644 394 C 618 394 594 385 572 369 C 549 353 538 329 538 299 L 538 0 L 399 0 L 399 320 C 399 342 391 359 375 373 C 359 387 337 394 311 394 C 281 394 256 385 236 367 C 215 349 205 325 205 297 L 205 0 L 66 0 Z" unicode="m" />
<glyph horiz-adv-x="601" d="M 541 0 L 401 0 L 401 319 C 401 342 393 360 377 374 C 361 387 340 394 314 394 C 286 394 260 385 238 369 C 216 353 205 329 205 297 L 205 0 L 66 0 L 66 498 L 193 498 L 193 416 C 204 443 225 465 256 483 C 287 501 323 510 363 510 C 414 510 456 495 490 466 C 524 437 541 400 541 354 L 541 0 Z" unicode="n" />
<glyph horiz-adv-x="607" d="M 300 -11 C 266 -11 234 -5 202 6 C 170 17 141 33 116 55 C 91 77 71 104 56 136 C 40 168 33 206 33 248 C 33 286 40 321 55 353 C 69 385 89 412 114 436 C 138 459 167 477 199 490 C 231 503 265 510 299 510 C 335 510 370 504 404 493 C 438 481 467 465 492 444 C 517 423 537 397 552 366 C 566 335 574 300 574 262 C 574 220 566 183 552 149 C 537 115 517 87 492 63 C 467 39 438 21 405 8 C 371 -4 336 -11 300 -11 Z M 303 106 C 341 106 372 119 395 146 C 418 172 430 209 430 256 C 430 298 418 331 394 355 C 370 379 338 392 298 392 C 262 392 233 379 211 353 C 189 327 178 292 178 248 C 178 200 189 164 213 141 C 237 117 267 106 303 106 Z" unicode="o" />
<glyph horiz-adv-x="617" d="M 66 -198 L 66 498 L 194 498 L 194 412 C 203 438 223 461 253 480 C 283 499 320 509 364 509 C 395 509 424 503 451 492 C 477 480 500 464 520 443 C 540 421 555 395 567 364 C 578 333 584 298 584 260 C 584 218 577 180 565 147 C 552 114 535 86 515 64 C 494 42 470 25 443 13 C 415 1 387 -5 359 -5 C 321 -5 289 2 261 18 C 233 33 214 51 204 72 L 204 -198 L 66 -198 Z M 324 104 C 357 104 385 117 407 143 C 429 169 441 205 441 253 C 441 295 430 329 410 357 C 390 385 361 399 323 399 C 287 399 257 386 234 362 C 211 338 200 300 200 249 C 200 195 211 158 235 136 C 259 114 288 104 324 104 Z" unicode="p" />
<glyph horiz-adv-x="615" d="M 412 -198 L 412 72 C 400 52 381 34 355 17 C 329 0 298 -8 260 -8 C 227 -8 197 -2 169 10 C 141 22 118 38 98 60 C 78 81 62 107 51 138 C 39 169 34 203 34 241 C 34 281 40 317 53 351 C 66 384 84 412 106 435 C 128 458 153 476 182 489 C 211 501 241 508 273 508 C 309 508 341 499 369 481 C 396 463 414 446 422 429 L 422 498 L 549 498 L 549 -198 L 412 -198 Z M 298 101 C 332 101 361 114 383 140 C 405 166 417 204 417 252 C 417 302 405 338 383 361 C 361 384 332 396 296 396 C 256 396 226 382 206 356 C 186 330 177 294 177 250 C 177 205 187 169 209 142 C 230 114 260 101 298 101 Z" unicode="q" />
<glyph horiz-adv-x="455" d="M 459 479 L 396 356 C 382 368 367 377 352 382 C 336 387 321 390 307 390 C 282 390 259 380 237 362 C 215 344 205 319 205 289 L 205 0 L 66 0 L 66 498 L 194 498 L 194 413 C 198 423 204 434 213 446 C 222 458 233 468 247 478 C 261 487 277 495 295 501 C 313 507 332 510 354 510 C 376 510 397 507 415 502 C 433 496 447 489 459 479 Z" unicode="r" />
<glyph horiz-adv-x="474" d="M 255 -12 C 207 -12 163 -6 125 5 C 86 17 54 32 28 51 L 89 144 C 111 129 137 117 168 108 C 198 99 226 95 252 95 C 270 95 285 99 297 108 C 308 116 314 127 314 140 C 314 153 305 164 289 173 C 272 182 245 192 209 202 C 157 215 116 234 88 260 C 59 286 45 320 45 362 C 45 406 63 441 100 469 C 137 496 184 510 241 510 C 287 510 328 503 362 491 C 396 479 421 467 437 455 L 386 358 C 365 370 343 381 320 390 C 296 399 272 404 248 404 C 229 404 213 401 199 395 C 185 389 179 379 179 367 C 179 354 184 344 196 337 C 208 330 236 320 280 308 C 332 293 372 274 402 251 C 432 227 447 193 447 149 C 447 99 428 60 392 31 C 356 2 310 -12 255 -12 Z" unicode="s" />
<glyph horiz-adv-x="350" d="M 331 124 L 342 10 C 334 4 321 0 304 -2 C 287 -4 270 -6 253 -6 C 229 -6 207 -2 185 3 C 163 9 143 19 127 33 C 110 46 97 63 87 85 C 77 106 72 132 72 163 L 72 382 L 8 382 L 8 498 L 72 498 L 72 621 L 211 637 L 211 498 L 325 498 L 325 382 L 211 382 L 211 184 C 211 159 216 141 227 130 C 238 119 255 114 278 114 C 288 114 299 115 309 117 C 319 119 327 122 331 124 Z" unicode="t" />
<glyph horiz-adv-x="601" d="M 60 498 L 199 498 L 199 189 C 199 160 207 139 225 125 C 242 111 265 104 294 104 C 324 104 348 112 367 129 C 386 146 396 169 396 198 L 396 498 L 535 498 L 535 0 L 406 0 L 406 82 C 393 55 372 33 342 16 C 312 -1 277 -10 237 -10 C 212 -10 189 -6 168 1 C 146 8 128 18 112 32 C 96 46 83 63 74 84 C 64 104 60 128 60 154 L 60 498 Z" unicode="u" />
<glyph horiz-adv-x="541" d="M 550 498 L 308 -3 L 227 -3 L -9 498 L 144 498 L 275 202 L 408 498 L 550 498 Z" unicode="v" />
<glyph horiz-adv-x="746" d="M 489 -3 L 377 281 L 258 -3 L 181 -3 L 1 498 L 143 498 L 240 200 L 346 469 L 425 469 L 524 202 L 621 498 L 745 498 L 565 -3 L 489 -3 Z" unicode="w" />
<glyph horiz-adv-x="496" d="M 348 0 L 244 154 L 135 0 L -3 0 L 176 254 L 10 498 L 159 498 L 252 361 L 348 498 L 486 498 L 319 262 L 497 0 L 348 0 Z" unicode="x" />
<glyph horiz-adv-x="549" d="M 554 498 L 276 -76 C 252 -125 222 -158 186 -175 C 150 -191 117 -200 85 -200 C 65 -200 49 -198 36 -194 C 22 -190 13 -186 7 -184 L 45 -69 C 47 -71 53 -73 62 -75 C 71 -77 80 -79 89 -79 C 105 -79 120 -74 132 -65 C 144 -55 156 -40 168 -18 L 205 53 L -5 498 L 145 498 L 277 198 L 412 498 L 554 498 Z" unicode="y" />
<glyph horiz-adv-x="459" d="M 438 498 L 438 435 L 211 117 L 449 117 L 449 0 L 13 0 L 13 52 L 246 381 L 22 381 L 22 498 L 438 498 Z" unicode="z" />
<glyph horiz-adv-x="313" d="M 297 -179 C 259 -179 225 -174 195 -165 C 165 -156 139 -144 119 -130 C 98 -116 82 -99 71 -80 C 59 -61 54 -42 54 -23 C 54 0 56 20 61 40 C 65 60 71 77 77 93 C 82 108 87 122 93 136 C 98 150 101 162 101 174 C 101 189 93 203 79 216 C 65 229 43 236 15 236 L 15 335 C 43 335 65 341 80 355 C 95 369 103 384 103 402 C 103 406 100 416 94 432 C 88 447 82 463 76 481 C 69 498 64 515 60 533 C 56 550 55 566 55 582 C 55 601 60 621 71 641 C 82 661 98 679 119 695 C 139 711 165 724 195 734 C 225 744 259 749 297 749 L 297 644 C 266 644 240 636 219 620 C 197 604 187 584 187 560 C 187 551 188 541 190 529 C 192 517 195 505 200 493 C 207 475 214 458 220 443 C 226 427 229 414 229 403 C 229 377 221 354 207 332 C 192 310 168 294 134 285 C 168 275 192 259 207 237 C 221 215 229 192 229 170 C 229 154 226 139 220 126 C 214 113 209 100 204 88 C 198 75 193 62 190 48 C 187 34 186 21 186 10 C 186 -10 196 -29 217 -47 C 237 -65 264 -74 297 -74 L 297 -179 Z" unicode="{" />
<glyph horiz-adv-x="268" d="M 199 -179 L 69 -179 L 69 730 L 199 730 L 199 -179 Z" unicode="|" />
<glyph horiz-adv-x="313" d="M 16 -179 L 16 -74 C 48 -74 75 -65 96 -47 C 116 -29 127 -10 127 10 C 127 21 125 34 122 48 C 119 62 115 75 109 88 C 103 100 98 113 92 126 C 86 139 84 154 84 170 C 84 192 91 215 106 237 C 120 259 145 275 180 285 C 146 294 121 310 106 332 C 91 354 84 377 84 403 C 84 414 87 427 93 443 C 99 458 106 475 114 493 C 118 505 121 517 123 529 C 125 541 126 551 126 560 C 126 584 115 604 94 620 C 72 636 46 644 16 644 L 16 749 C 54 749 88 744 118 734 C 148 724 173 711 194 695 C 215 679 231 661 242 641 C 253 621 259 601 259 582 C 259 566 257 550 253 533 C 249 515 243 498 237 481 C 230 463 224 447 218 432 C 212 416 210 406 210 402 C 210 384 217 369 232 355 C 247 341 269 335 298 335 L 298 236 C 269 236 247 229 233 216 C 219 203 212 189 212 174 C 212 162 214 150 220 136 C 225 122 231 108 237 93 C 243 77 248 60 252 40 C 256 20 259 0 259 -23 C 259 -42 253 -61 242 -80 C 230 -99 214 -116 194 -130 C 173 -144 147 -156 117 -165 C 87 -174 53 -179 16 -179 Z" unicode="}" />
<glyph horiz-adv-x="505" d="M 369 452 L 480 452 C 479 390 469 343 449 311 C 429 278 399 262 359 262 C 334 262 313 266 296 274 C 278 282 263 290 251 299 C 239 307 227 315 215 322 C 203 328 190 332 178 332 C 166 332 157 325 149 312 C 141 299 137 283 137 265 L 28 265 C 28 329 37 377 56 409 C 75 441 101 458 134 458 C 161 458 185 453 205 445 C 225 437 243 427 260 417 C 272 408 284 400 296 394 C 308 387 320 384 334 384 C 350 384 359 390 363 403 C 367 415 369 432 369 452 Z" unicode="~" />
<glyph horiz-adv-x="333" d="M 91 576 L 242 576 L 242 425 L 91 425 L 91 576 Z M 83 141 L 132 337 L 204 337 L 249 141 L 249 -141 L 83 -141 L 83 141 Z" unicode="¡" />
<glyph horiz-adv-x="596" d="M 575 195 C 555 165 529 138 496 113 C 462 87 418 72 363 68 L 363 -54 L 280 -54 L 280 69 C 246 73 215 83 187 97 C 158 111 133 130 113 154 C 92 177 76 205 64 237 C 52 269 46 304 46 344 C 46 382 51 417 63 449 C 75 481 91 509 112 533 C 132 557 157 576 186 592 C 214 608 246 618 280 624 L 280 738 L 363 738 L 363 627 C 419 621 465 604 500 575 C 535 545 559 513 573 477 L 459 427 C 446 451 429 471 408 487 C 387 503 360 511 326 511 C 282 511 247 495 221 464 C 195 433 183 394 183 348 C 183 296 196 255 223 227 C 250 198 286 184 332 184 C 369 184 399 192 421 210 C 443 227 460 246 472 267 L 575 195 Z" unicode="¢" />
<glyph horiz-adv-x="604" d="M 590 110 L 590 0 L 21 0 L 21 82 C 27 86 36 90 50 94 C 64 97 82 101 106 106 C 136 110 162 122 183 140 C 204 158 215 180 215 206 L 42 206 L 42 293 L 179 293 C 173 301 166 310 160 320 C 153 330 146 340 140 351 L 42 351 L 42 437 L 95 437 C 88 453 83 471 79 489 C 75 507 73 527 73 547 C 73 583 80 613 94 638 C 108 663 126 683 150 698 C 174 713 201 724 232 731 C 263 738 296 742 330 742 C 358 742 385 739 412 734 C 438 729 463 723 486 716 C 508 708 528 700 546 691 C 564 682 578 673 589 665 L 517 558 C 499 569 474 581 440 594 C 406 607 371 614 334 614 C 305 614 279 606 256 592 C 233 578 222 554 222 521 C 222 507 224 493 229 479 C 234 465 240 451 248 437 L 516 437 L 516 351 L 302 351 C 308 341 313 331 318 321 C 323 311 327 302 331 293 L 516 293 L 516 206 L 335 206 C 328 178 316 157 299 141 C 281 125 262 115 242 110 L 590 110 Z" unicode="£" />
<glyph horiz-adv-x="502" d="M 446 195 L 396 145 L 342 201 C 328 193 314 187 298 183 C 282 179 266 177 250 177 C 233 177 217 179 201 183 C 185 187 171 193 159 201 L 104 145 L 53 196 L 104 249 C 92 263 83 280 77 298 C 71 316 68 334 68 354 C 68 374 71 393 78 411 C 84 429 93 445 105 460 L 53 514 L 103 564 L 158 507 C 171 514 185 520 201 524 C 217 528 233 531 250 531 C 266 531 283 528 299 524 C 315 520 329 514 343 506 L 399 564 L 449 513 L 396 458 C 406 443 415 427 421 409 C 427 391 431 373 431 354 C 431 334 427 315 421 297 C 415 279 406 262 395 248 L 446 195 Z M 250 268 C 274 268 295 276 313 294 C 331 311 340 331 340 354 C 340 376 331 396 313 414 C 295 431 274 440 250 440 C 225 440 204 431 186 414 C 168 396 160 376 160 354 C 160 331 168 311 186 294 C 204 276 225 268 250 268 Z" unicode="¤" />
<glyph horiz-adv-x="702" d="M 604 104 L 420 104 L 420 0 L 270 0 L 270 104 L 92 104 L 92 192 L 270 192 L 270 241 L 92 241 L 92 329 L 264 329 L 21 730 L 188 730 L 352 448 L 517 730 L 674 730 L 430 329 L 604 329 L 604 241 L 420 241 L 420 192 L 604 192 L 604 104 Z" unicode="¥" />
<glyph horiz-adv-x="297" d="M 89 351 L 89 730 L 208 730 L 208 351 L 89 351 Z M 208 200 L 208 -179 L 89 -179 L 89 200 L 208 200 Z" unicode="¦" />
<glyph horiz-adv-x="676" d="M 355 -181 C 295 -181 239 -174 188 -161 C 137 -148 94 -130 60 -108 L 119 5 C 135 -5 153 -14 173 -23 C 193 -32 213 -40 233 -47 C 253 -53 273 -58 293 -62 C 313 -66 331 -68 348 -68 C 376 -68 398 -61 414 -49 C 430 -37 439 -19 439 3 C 439 23 430 39 412 50 C 394 61 370 73 338 86 L 250 121 C 216 135 187 147 161 159 C 135 171 113 183 96 197 C 78 211 65 227 56 245 C 47 263 43 286 43 313 C 43 343 50 369 65 390 C 80 411 99 429 122 444 C 103 457 89 474 81 494 C 72 514 68 539 68 568 C 68 595 74 619 87 641 C 100 663 118 681 142 696 C 165 710 193 722 225 730 C 257 738 292 742 330 742 C 394 742 447 733 488 717 C 529 700 563 683 590 666 L 529 562 C 499 580 467 597 435 612 C 402 626 366 634 326 634 C 293 634 266 628 246 616 C 226 604 216 587 216 567 C 216 551 223 538 239 527 C 255 516 278 505 310 495 L 427 451 C 495 428 546 404 580 378 C 614 352 632 313 632 261 C 632 225 621 196 599 172 C 577 148 549 132 517 122 C 534 112 550 97 565 77 C 580 57 588 31 588 1 C 588 -27 582 -53 570 -76 C 558 -98 541 -117 521 -133 C 500 -149 475 -161 447 -169 C 419 -177 388 -181 355 -181 Z M 418 193 C 437 195 453 200 467 209 C 481 217 488 231 488 250 C 488 268 478 284 459 298 C 440 311 402 327 346 346 L 244 385 C 226 379 212 372 202 363 C 192 354 187 341 187 325 C 187 304 196 287 216 274 C 235 260 273 245 329 227 L 418 193 Z" unicode="§" />
<glyph horiz-adv-x="500" d="M 408 551 L 291 551 L 291 713 L 408 713 L 408 551 Z M 209 551 L 92 551 L 92 713 L 209 713 L 209 551 Z" unicode="¨" />
<glyph horiz-adv-x="842" d="M 421 -6 C 369 -6 321 3 275 23 C 229 43 190 69 156 103 C 122 137 96 176 76 222 C 56 268 47 316 47 368 C 47 419 56 467 76 513 C 96 559 122 598 156 632 C 190 666 229 692 275 712 C 321 732 369 742 421 742 C 472 742 520 732 566 712 C 612 692 651 666 685 632 C 719 598 745 559 765 513 C 785 467 795 419 795 368 C 795 316 785 268 765 222 C 745 176 719 137 685 103 C 651 69 612 43 566 23 C 520 3 472 -6 421 -6 Z M 421 69 C 461 69 500 76 536 92 C 572 108 604 129 631 156 C 657 183 678 215 694 251 C 710 287 718 326 718 367 C 718 407 710 446 694 483 C 678 519 657 551 631 578 C 604 605 572 627 536 643 C 500 659 461 667 421 667 C 379 667 340 659 304 643 C 268 627 236 605 210 578 C 183 551 162 519 146 483 C 130 446 123 407 123 367 C 123 326 130 287 146 251 C 162 215 183 183 210 156 C 236 129 268 108 304 92 C 340 76 379 69 421 69 Z M 597 247 C 580 221 557 200 528 183 C 499 165 462 157 418 157 C 391 157 365 161 341 170 C 316 179 294 192 276 210 C 257 228 242 250 231 277 C 220 304 215 335 215 371 C 215 406 220 437 231 465 C 241 493 256 516 274 535 C 292 553 313 567 338 577 C 362 587 388 592 416 592 C 462 592 499 583 528 567 C 556 551 578 530 594 506 L 505 443 C 497 456 486 467 473 476 C 459 484 442 489 420 489 C 392 489 370 477 353 454 C 336 431 328 402 328 367 C 328 331 337 303 356 283 C 374 263 396 253 421 253 C 441 253 459 257 475 266 C 490 275 502 288 512 304 L 597 247 Z" unicode="©" />
<glyph horiz-adv-x="486" d="M 438 306 L 329 306 L 329 357 C 314 338 294 324 268 314 C 242 304 213 300 182 300 C 135 300 99 312 73 337 C 47 361 35 395 35 437 C 35 483 53 518 91 542 C 129 566 183 580 254 583 L 327 587 L 327 593 C 327 607 320 618 306 627 C 292 636 272 641 245 641 C 220 641 195 637 170 629 C 144 621 120 610 98 597 L 57 680 C 80 698 109 713 145 725 C 180 737 220 743 264 743 C 319 743 362 730 392 706 C 422 682 438 642 438 588 L 438 306 Z M 326 441 L 326 507 L 246 503 C 219 502 197 497 181 488 C 164 479 156 464 156 444 C 156 428 162 416 174 407 C 186 398 203 394 224 394 C 244 394 264 398 282 406 C 300 414 315 426 326 441 Z M 449 168 L 42 168 L 42 262 L 449 262 L 449 168 Z" unicode="ª" />
<glyph horiz-adv-x="498" d="M 229 63 L 25 246 L 25 335 L 229 515 L 229 372 L 144 289 L 229 210 L 229 63 Z M 469 63 L 263 246 L 263 335 L 469 515 L 469 372 L 384 289 L 469 211 L 469 63 Z" unicode="«" />
<glyph horiz-adv-x="500" d="M 454 411 L 454 128 L 337 128 L 337 294 L 28 294 L 28 411 L 454 411 Z" unicode="¬" />
<glyph horiz-adv-x="842" d="M 421 -6 C 369 -6 321 3 275 23 C 229 43 190 69 156 103 C 122 137 96 176 76 222 C 56 268 47 316 47 368 C 47 419 56 467 76 513 C 96 559 122 598 156 632 C 190 666 229 692 275 712 C 321 732 369 742 421 742 C 472 742 520 732 566 712 C 612 692 651 666 685 632 C 719 598 745 559 765 513 C 785 467 795 419 795 368 C 795 316 785 268 765 222 C 745 176 719 137 685 103 C 651 69 612 43 566 23 C 520 3 472 -6 421 -6 Z M 421 69 C 461 69 500 76 536 92 C 572 108 604 129 631 156 C 657 182 678 214 694 250 C 710 286 718 325 718 367 C 718 408 710 447 694 484 C 678 520 657 552 631 579 C 604 606 572 627 536 643 C 500 659 461 667 421 667 C 380 667 341 659 305 643 C 269 627 237 606 210 579 C 183 552 162 520 146 484 C 130 447 123 408 123 367 C 123 325 130 286 146 250 C 162 214 183 182 210 156 C 237 129 269 108 305 92 C 341 76 380 69 421 69 Z M 270 161 L 270 594 L 444 594 C 462 594 479 591 497 586 C 514 581 530 574 544 564 C 558 554 569 541 577 526 C 585 510 590 492 590 471 C 590 433 580 404 561 385 C 541 366 521 355 501 352 L 501 348 L 633 161 L 517 161 L 413 320 L 371 320 L 371 161 L 270 161 Z M 370 402 L 440 402 C 453 402 465 407 475 417 C 485 427 491 441 491 460 C 491 479 485 492 473 500 C 461 508 447 512 433 512 L 370 512 L 370 402 Z" unicode="®" />
<glyph horiz-adv-x="500" d="M 393 560 L 107 560 L 107 666 L 393 666 L 393 560 Z" unicode="¯" />
<glyph horiz-adv-x="436" d="M 218 366 C 192 366 167 371 144 381 C 121 391 101 404 85 421 C 68 437 55 457 45 480 C 35 503 30 528 30 554 C 30 580 35 604 45 627 C 55 650 68 670 85 687 C 101 703 121 717 144 727 C 167 737 192 742 218 742 C 244 742 268 737 291 727 C 314 717 334 703 351 687 C 367 670 381 650 391 627 C 401 604 406 580 406 554 C 406 528 401 503 391 480 C 381 457 367 437 351 421 C 334 404 314 391 291 381 C 268 371 244 366 218 366 Z M 218 463 C 242 463 264 472 283 490 C 301 508 311 529 311 554 C 311 578 301 600 283 618 C 264 636 242 646 218 646 C 193 646 171 636 153 618 C 134 600 125 578 125 554 C 125 529 134 508 153 490 C 171 472 193 463 218 463 Z" unicode="°" />
<glyph horiz-adv-x="500" d="M 477 117 L 477 16 L 25 16 L 25 117 L 191 117 L 191 278 L 21 278 L 21 384 L 191 384 L 191 557 L 309 557 L 309 384 L 479 384 L 479 278 L 309 278 L 309 117 L 477 117 Z" unicode="±" />
<glyph horiz-adv-x="343" d="M 322 372 L 18 372 L 18 406 L 176 568 C 182 574 188 581 192 589 C 196 596 198 605 198 616 C 198 625 194 633 188 641 C 182 649 172 653 158 653 C 142 653 131 648 125 638 C 119 628 115 616 115 604 L 14 604 C 14 644 28 676 56 702 C 84 728 123 741 172 741 C 218 741 254 731 278 711 C 302 691 314 667 314 639 C 314 612 309 590 299 573 C 289 556 279 542 268 530 L 198 459 L 322 459 L 322 372 Z" unicode="²" />
<glyph horiz-adv-x="346" d="M 233 569 C 257 564 277 553 292 537 C 307 520 315 500 315 477 C 315 465 312 453 308 440 C 303 426 295 414 283 403 C 271 391 256 382 236 374 C 216 366 191 363 161 363 C 116 363 82 368 58 379 C 34 389 16 400 4 410 L 55 467 C 65 460 77 454 92 449 C 106 443 124 441 145 441 C 171 441 190 445 200 454 C 210 463 216 475 216 490 C 216 504 208 514 194 519 C 180 523 163 526 144 526 L 75 526 L 75 600 L 140 600 C 156 600 170 602 181 608 C 192 613 198 621 198 633 C 198 643 193 651 185 656 C 176 660 164 663 148 663 C 130 663 114 660 99 654 C 84 648 72 641 64 634 L 16 689 C 26 700 43 712 67 724 C 90 736 123 742 165 742 C 204 742 236 734 262 718 C 287 702 300 679 300 649 C 300 628 293 611 279 597 C 265 583 249 573 233 569 Z" unicode="³" />
<glyph horiz-adv-x="500" d="M 124 554 L 226 713 L 392 713 L 264 554 L 124 554 Z" unicode="´" />
<glyph horiz-adv-x="595" d="M 63 -125 L 63 498 L 201 498 L 201 179 C 201 157 209 139 226 125 C 242 110 264 103 292 103 C 318 103 341 112 361 131 C 381 150 391 174 391 204 L 391 498 L 528 498 L 528 0 L 402 0 L 402 77 C 389 54 370 35 344 21 C 318 6 290 -2 262 -5 C 246 -5 231 -3 218 2 C 205 8 196 16 190 26 L 190 -125 L 63 -125 Z" unicode="µ" />
<glyph horiz-adv-x="703" d="M 640 -179 L 548 -179 L 548 621 L 463 621 L 463 -179 L 371 -179 L 371 247 L 262 247 C 231 247 201 253 172 266 C 143 279 118 296 96 318 C 74 339 56 364 43 393 C 29 422 23 453 23 485 C 23 519 29 552 42 582 C 54 612 72 637 94 659 C 116 681 144 698 176 711 C 208 723 243 730 282 730 L 640 730 L 640 -179 Z M 371 361 L 371 616 L 317 616 C 279 616 251 603 233 579 C 214 555 205 524 205 488 C 205 453 214 423 233 398 C 252 373 278 361 311 361 L 371 361 Z" unicode="¶" />
<glyph horiz-adv-x="287" d="M 213 254 L 74 254 L 74 413 L 213 413 L 213 254 Z" unicode="·" />
<glyph horiz-adv-x="500" d="M 259 -193 C 232 -193 205 -190 178 -184 C 150 -178 130 -170 116 -161 L 132 -101 C 140 -105 152 -109 167 -113 C 181 -117 196 -120 212 -120 C 222 -120 231 -117 239 -113 C 247 -109 251 -103 251 -95 C 251 -86 247 -80 240 -76 C 233 -72 226 -71 218 -71 C 212 -71 206 -71 202 -72 C 197 -73 192 -74 188 -76 L 170 -57 L 232 14 L 316 14 L 269 -43 C 302 -39 329 -43 351 -57 C 372 -71 383 -90 383 -115 C 383 -141 370 -161 345 -174 C 319 -186 291 -193 259 -193 Z" unicode="¸" />
<glyph horiz-adv-x="321" d="M 127 372 L 127 613 C 123 608 117 604 109 600 C 101 596 93 592 85 589 C 76 586 67 584 59 582 C 51 580 44 578 40 578 L 40 678 C 66 680 88 685 106 695 C 124 704 145 719 168 739 L 242 739 L 242 372 L 127 372 Z" unicode="¹" />
<glyph horiz-adv-x="497" d="M 245 297 C 217 297 190 301 164 311 C 138 320 114 334 94 353 C 74 371 58 394 46 422 C 34 449 28 481 28 517 C 28 549 34 578 46 606 C 58 633 74 656 94 676 C 114 696 137 711 163 723 C 189 734 217 740 246 740 C 276 740 305 735 333 725 C 360 715 384 702 404 684 C 424 666 439 643 451 617 C 463 591 469 561 469 528 C 469 493 463 461 451 433 C 439 405 422 380 402 360 C 381 340 357 324 330 313 C 303 302 275 297 245 297 Z M 245 402 C 277 402 303 413 323 436 C 343 458 353 489 353 527 C 353 561 344 588 326 608 C 308 628 282 638 250 638 C 218 638 192 627 173 605 C 154 583 145 552 145 512 C 145 477 154 450 172 431 C 190 411 214 402 245 402 Z M 43 168 L 43 262 L 454 262 L 454 168 L 43 168 Z" unicode="º" />
<glyph horiz-adv-x="500" d="M 29 515 L 235 332 L 235 243 L 29 63 L 29 206 L 114 289 L 29 367 L 29 515 Z M 270 515 L 475 332 L 475 243 L 270 63 L 270 206 L 355 289 L 270 368 L 270 515 Z" unicode="»" />
<glyph horiz-adv-x="704" d="M 8 0 L 8 0 Z M 95 372 L 95 613 C 91 608 85 604 77 600 C 69 596 61 592 53 589 C 44 586 35 584 27 582 C 19 580 12 578 8 578 L 8 678 C 34 680 56 685 74 695 C 92 704 113 719 136 739 L 210 739 L 210 372 L 95 372 Z M 588 730 L 242 0 L 133 0 L 479 730 L 588 730 Z M 391 81 L 391 150 L 570 363 L 642 363 L 642 154 L 696 154 L 696 81 L 642 81 L 642 1 L 543 1 L 543 81 L 391 81 Z M 471 144 L 545 144 L 545 234 L 471 144 Z" unicode="¼" />
<glyph horiz-adv-x="776" d="M 8 0 L 8 0 Z M 95 372 L 95 613 C 91 608 85 604 77 600 C 69 596 61 592 53 589 C 44 586 35 584 27 582 C 19 580 12 578 8 578 L 8 678 C 34 680 56 685 74 695 C 92 704 113 719 136 739 L 210 739 L 210 372 L 95 372 Z M 588 730 L 242 0 L 133 0 L 479 730 L 588 730 Z M 760 0 L 456 0 L 456 34 L 614 196 C 620 202 626 209 630 217 C 634 224 636 233 636 244 C 636 253 632 261 626 269 C 620 277 610 281 596 281 C 580 281 569 276 563 266 C 557 256 553 244 553 232 L 452 232 C 452 272 466 304 494 330 C 522 356 561 369 610 369 C 656 369 692 359 716 339 C 740 319 752 295 752 267 C 752 240 747 218 737 201 C 727 184 717 170 706 158 L 636 87 L 760 87 L 760 0 Z" unicode="½" />
<glyph horiz-adv-x="757" d="M 8 0 L 8 0 Z M 641 730 L 295 0 L 186 0 L 532 730 L 641 730 Z M 444 81 L 444 150 L 623 363 L 695 363 L 695 154 L 749 154 L 749 81 L 695 81 L 695 1 L 596 1 L 596 81 L 444 81 Z M 524 144 L 598 144 L 598 234 L 524 144 Z M 237 569 C 261 564 281 553 296 537 C 311 520 319 500 319 477 C 319 465 316 453 312 440 C 307 426 299 414 287 403 C 275 391 260 382 240 374 C 220 366 195 363 165 363 C 120 363 86 368 62 379 C 38 389 20 400 8 410 L 59 467 C 69 460 81 454 96 449 C 110 443 128 441 149 441 C 175 441 194 445 204 454 C 214 463 220 475 220 490 C 220 504 212 514 198 519 C 184 523 167 526 148 526 L 79 526 L 79 600 L 144 600 C 160 600 174 602 185 608 C 196 613 202 621 202 633 C 202 643 197 651 189 656 C 180 660 168 663 152 663 C 134 663 118 660 103 654 C 88 648 76 641 68 634 L 20 689 C 30 700 47 712 71 724 C 94 736 127 742 169 742 C 208 742 240 734 266 718 C 291 702 304 679 304 649 C 304 628 297 611 283 597 C 269 583 253 573 237 569 Z" unicode="¾" />
<glyph horiz-adv-x="490" d="M 186 435 L 186 576 L 343 576 L 343 435 L 186 435 Z M 251 -156 C 217 -156 186 -151 157 -143 C 127 -134 102 -122 81 -106 C 59 -90 42 -70 30 -48 C 18 -25 12 0 12 29 C 12 55 15 79 23 99 C 31 119 40 136 52 150 C 64 164 77 177 91 187 C 105 197 118 207 130 215 C 158 233 176 254 184 277 C 192 300 197 325 197 352 L 337 352 C 337 306 331 269 321 243 C 310 217 288 192 254 169 C 225 150 202 132 185 116 C 167 100 159 77 159 49 C 159 23 169 3 190 -11 C 210 -25 236 -33 266 -33 C 294 -33 319 -26 342 -13 C 365 0 383 14 396 31 L 488 -57 C 469 -80 439 -102 399 -124 C 359 -145 309 -156 251 -156 Z" unicode="¿" />
<glyph horiz-adv-x="677" d="M 0 0 L 0 0 Z M 680 0 L 521 0 L 465 141 L 200 141 L 147 0 L -3 0 L 297 732 L 390 732 L 680 0 Z M 430 252 L 332 505 L 236 252 L 430 252 Z M 338 782 L 338 782 Z M 473 782 L 333 782 L 204 942 L 369 942 L 473 782 Z" unicode="À" />
<glyph horiz-adv-x="677" d="M 0 0 L 0 0 Z M 680 0 L 521 0 L 465 141 L 200 141 L 147 0 L -3 0 L 297 732 L 390 732 L 680 0 Z M 430 252 L 332 505 L 236 252 L 430 252 Z M 338 786 L 338 786 Z M 205 786 L 307 945 L 473 945 L 345 786 L 205 786 Z" unicode="Á" />
<glyph horiz-adv-x="677" d="M 0 0 L 0 0 Z M 680 0 L 521 0 L 465 141 L 200 141 L 147 0 L -3 0 L 297 732 L 390 732 L 680 0 Z M 430 252 L 332 505 L 236 252 L 430 252 Z M 338 783 L 338 783 Z M 532 783 L 404 783 L 338 871 L 270 783 L 144 783 L 267 957 L 409 957 L 532 783 Z" unicode="Â" />
<glyph horiz-adv-x="677" d="M 0 0 L 0 0 Z M 680 0 L 521 0 L 465 141 L 200 141 L 147 0 L -3 0 L 297 732 L 390 732 L 680 0 Z M 430 252 L 332 505 L 236 252 L 430 252 Z M 338 786 L 338 786 Z M 413 939 L 522 939 C 522 887 513 848 496 823 C 479 798 457 786 431 786 C 412 786 395 788 381 794 C 367 800 354 806 344 813 C 335 818 326 824 317 830 C 308 836 299 839 291 839 C 283 839 276 834 271 825 C 266 816 263 804 263 789 L 156 789 C 156 814 159 836 165 856 C 171 875 179 891 189 904 C 199 916 210 926 222 932 C 234 938 246 942 258 942 C 276 942 292 939 304 933 C 316 927 328 920 339 914 C 347 908 355 902 363 897 C 370 892 377 890 384 890 C 391 890 398 894 404 902 C 410 910 413 923 413 939 Z" unicode="Ã" />
<glyph horiz-adv-x="677" d="M 0 0 L 0 0 Z M 680 0 L 521 0 L 465 141 L 200 141 L 147 0 L -3 0 L 297 732 L 390 732 L 680 0 Z M 430 252 L 332 505 L 236 252 L 430 252 Z M 338 783 L 338 783 Z M 496 783 L 379 783 L 379 945 L 496 945 L 496 783 Z M 297 783 L 180 783 L 180 945 L 297 945 L 297 783 Z" unicode="Ä" />
<glyph horiz-adv-x="677" d="M 0 0 L 0 0 Z M 680 0 L 521 0 L 465 141 L 200 141 L 147 0 L -3 0 L 297 732 L 390 732 L 680 0 Z M 430 252 L 332 505 L 236 252 L 430 252 Z M 338 779 L 338 779 Z M 338 779 C 304 779 275 791 251 815 C 227 839 215 868 215 902 C 215 936 227 964 251 988 C 275 1012 304 1024 338 1024 C 372 1024 401 1012 425 988 C 449 964 461 936 461 902 C 461 868 449 839 425 815 C 401 791 372 779 338 779 Z M 338 853 C 351 853 362 857 371 867 C 380 876 385 888 385 902 C 385 915 380 926 371 936 C 362 945 351 950 338 950 C 324 950 313 945 304 936 C 294 926 290 915 290 902 C 290 888 294 876 304 867 C 313 857 324 853 338 853 Z" unicode="Å" />
<glyph horiz-adv-x="1007" d="M 961 0 L 501 0 L 501 224 L 262 224 L 123 0 L -37 0 L 422 730 L 942 730 L 942 604 L 637 604 L 637 422 L 923 422 L 923 300 L 637 300 L 637 126 L 961 126 L 961 0 Z M 501 344 L 501 621 L 330 344 L 501 344 Z" unicode="Æ" />
<glyph horiz-adv-x="720" d="M 43 0 L 43 0 Z M 404 -12 C 353 -12 305 -3 261 14 C 217 31 179 56 147 88 C 115 120 89 160 71 207 C 52 254 43 307 43 365 C 43 419 52 470 70 516 C 88 562 114 602 146 636 C 178 669 217 695 261 714 C 305 732 353 742 405 742 C 471 742 527 732 575 713 C 622 693 662 665 694 627 L 597 527 C 577 549 552 568 522 584 C 491 600 454 608 410 608 C 374 608 343 602 317 590 C 290 578 268 561 250 540 C 232 518 218 493 209 463 C 199 433 195 401 195 367 C 195 323 201 286 213 255 C 225 223 242 197 262 177 C 282 157 306 142 333 132 C 360 122 388 118 417 118 C 462 118 500 127 532 145 C 564 163 590 186 612 215 L 708 132 C 678 90 638 56 587 29 C 535 1 474 -12 404 -12 Z M 392 -3 L 392 -3 Z M 401 -196 C 374 -196 347 -193 320 -187 C 292 -181 272 -173 258 -164 L 274 -104 C 282 -108 294 -112 309 -116 C 323 -120 338 -123 354 -123 C 364 -123 373 -120 381 -116 C 389 -112 393 -106 393 -98 C 393 -89 389 -83 382 -79 C 375 -75 368 -74 360 -74 C 354 -74 348 -74 344 -75 C 339 -76 334 -77 330 -79 L 312 -60 L 374 11 L 458 11 L 411 -46 C 444 -42 471 -46 493 -60 C 514 -74 525 -93 525 -118 C 525 -144 512 -164 487 -177 C 461 -189 433 -196 401 -196 Z" unicode="Ç" />
<glyph horiz-adv-x="606" d="M 87 0 L 87 0 Z M 559 0 L 87 0 L 87 730 L 540 730 L 540 604 L 234 604 L 234 422 L 520 422 L 520 300 L 234 300 L 234 126 L 559 126 L 559 0 Z M 320 782 L 320 782 Z M 455 782 L 315 782 L 186 942 L 351 942 L 455 782 Z" unicode="È" />
<glyph horiz-adv-x="606" d="M 87 0 L 87 0 Z M 559 0 L 87 0 L 87 730 L 540 730 L 540 604 L 234 604 L 234 422 L 520 422 L 520 300 L 234 300 L 234 126 L 559 126 L 559 0 Z M 320 786 L 320 786 Z M 187 786 L 289 945 L 455 945 L 327 786 L 187 786 Z" unicode="É" />
<glyph horiz-adv-x="606" d="M 87 0 L 87 0 Z M 559 0 L 87 0 L 87 730 L 540 730 L 540 604 L 234 604 L 234 422 L 520 422 L 520 300 L 234 300 L 234 126 L 559 126 L 559 0 Z M 320 783 L 320 783 Z M 514 783 L 386 783 L 320 871 L 252 783 L 126 783 L 249 957 L 391 957 L 514 783 Z" unicode="Ê" />
<glyph horiz-adv-x="606" d="M 87 0 L 87 0 Z M 559 0 L 87 0 L 87 730 L 540 730 L 540 604 L 234 604 L 234 422 L 520 422 L 520 300 L 234 300 L 234 126 L 559 126 L 559 0 Z M 320 783 L 320 783 Z M 478 783 L 361 783 L 361 945 L 478 945 L 478 783 Z M 279 783 L 162 783 L 162 945 L 279 945 L 279 783 Z" unicode="Ë" />
<glyph horiz-adv-x="333" d="M 32 0 L 32 0 Z M 242 0 L 92 0 L 92 730 L 242 730 L 242 0 Z M 166 782 L 166 782 Z M 301 782 L 161 782 L 32 942 L 197 942 L 301 782 Z" unicode="Ì" />
<glyph horiz-adv-x="333" d="M 33 0 L 33 0 Z M 242 0 L 92 0 L 92 730 L 242 730 L 242 0 Z M 166 786 L 166 786 Z M 33 786 L 135 945 L 301 945 L 173 786 L 33 786 Z" unicode="Í" />
<glyph horiz-adv-x="333" d="M 0 0 L 0 0 Z M 242 0 L 92 0 L 92 730 L 242 730 L 242 0 Z M 166 783 L 166 783 Z M 360 783 L 232 783 L 166 871 L 98 783 L -28 783 L 95 957 L 237 957 L 360 783 Z" unicode="Î" />
<glyph horiz-adv-x="333" d="M 8 0 L 8 0 Z M 242 0 L 92 0 L 92 730 L 242 730 L 242 0 Z M 166 783 L 166 783 Z M 324 783 L 207 783 L 207 945 L 324 945 L 324 783 Z M 125 783 L 8 783 L 8 945 L 125 945 L 125 783 Z" unicode="Ï" />
<glyph horiz-adv-x="762" d="M 719 367 C 719 316 710 268 693 224 C 676 179 651 140 618 107 C 584 74 543 48 493 29 C 443 9 386 0 322 0 L 87 0 L 87 301 L 35 301 L 35 412 L 87 412 L 87 730 L 340 730 C 402 730 456 721 504 704 C 551 686 590 662 622 630 C 654 598 678 560 694 516 C 710 471 719 421 719 367 Z M 232 118 L 320 118 C 364 118 401 125 433 139 C 464 153 489 171 509 195 C 528 218 542 244 551 274 C 560 304 565 334 565 365 C 565 439 545 499 506 543 C 467 587 411 610 339 610 L 232 610 L 232 412 L 373 412 L 373 301 L 232 301 L 232 118 Z" unicode="Ð" />
<glyph horiz-adv-x="783" d="M 87 0 L 87 0 Z M 696 0 L 593 0 L 227 468 L 227 0 L 87 0 L 87 730 L 200 730 L 557 270 L 557 730 L 696 730 L 696 0 Z M 392 786 L 392 786 Z M 467 939 L 576 939 C 576 887 567 848 550 823 C 533 798 511 786 485 786 C 466 786 449 788 435 794 C 421 800 408 806 398 813 C 389 818 380 824 371 830 C 362 836 353 839 345 839 C 337 839 330 834 325 825 C 320 816 317 804 317 789 L 210 789 C 210 814 213 836 219 856 C 225 875 233 891 243 904 C 253 916 264 926 276 932 C 288 938 300 942 312 942 C 330 942 346 939 358 933 C 370 927 382 920 393 914 C 401 908 409 902 417 897 C 424 892 431 890 438 890 C 445 890 452 894 458 902 C 464 910 467 923 467 939 Z" unicode="Ñ" />
<glyph horiz-adv-x="833" d="M 43 0 L 43 0 Z M 420 -12 C 362 -12 310 -2 264 16 C 217 35 177 62 145 96 C 112 130 87 170 69 217 C 51 264 43 315 43 370 C 43 423 52 472 72 518 C 91 564 117 603 150 636 C 183 669 222 695 268 714 C 313 732 361 742 412 742 C 466 742 517 733 564 715 C 610 697 650 671 684 639 C 717 607 743 568 762 522 C 781 476 791 425 791 369 C 791 311 781 259 761 212 C 741 164 714 124 680 91 C 646 58 606 33 561 15 C 516 -3 469 -12 420 -12 Z M 422 118 C 452 118 481 123 508 134 C 534 144 557 160 577 181 C 596 202 611 228 622 260 C 633 291 639 327 639 367 C 639 403 633 437 621 467 C 609 497 594 522 574 543 C 554 563 530 579 502 591 C 474 602 444 608 412 608 C 381 608 352 602 326 592 C 299 582 276 567 256 547 C 236 527 221 503 210 473 C 199 443 194 408 194 370 C 194 330 199 294 211 262 C 223 230 239 204 259 183 C 279 161 304 145 332 134 C 360 123 390 118 422 118 Z M 414 782 L 414 782 Z M 549 782 L 409 782 L 280 942 L 445 942 L 549 782 Z" unicode="Ò" />
<glyph horiz-adv-x="833" d="M 43 0 L 43 0 Z M 420 -12 C 362 -12 310 -2 264 16 C 217 35 177 62 145 96 C 112 130 87 170 69 217 C 51 264 43 315 43 370 C 43 423 52 472 72 518 C 91 564 117 603 150 636 C 183 669 222 695 268 714 C 313 732 361 742 412 742 C 466 742 517 733 564 715 C 610 697 650 671 684 639 C 717 607 743 568 762 522 C 781 476 791 425 791 369 C 791 311 781 259 761 212 C 741 164 714 124 680 91 C 646 58 606 33 561 15 C 516 -3 469 -12 420 -12 Z M 422 118 C 452 118 481 123 508 134 C 534 144 557 160 577 181 C 596 202 611 228 622 260 C 633 291 639 327 639 367 C 639 403 633 437 621 467 C 609 497 594 522 574 543 C 554 563 530 579 502 591 C 474 602 444 608 412 608 C 381 608 352 602 326 592 C 299 582 276 567 256 547 C 236 527 221 503 210 473 C 199 443 194 408 194 370 C 194 330 199 294 211 262 C 223 230 239 204 259 183 C 279 161 304 145 332 134 C 360 123 390 118 422 118 Z M 414 786 L 414 786 Z M 281 786 L 383 945 L 549 945 L 421 786 L 281 786 Z" unicode="Ó" />
<glyph horiz-adv-x="833" d="M 43 0 L 43 0 Z M 420 -12 C 362 -12 310 -2 264 16 C 217 35 177 62 145 96 C 112 130 87 170 69 217 C 51 264 43 315 43 370 C 43 423 52 472 72 518 C 91 564 117 603 150 636 C 183 669 222 695 268 714 C 313 732 361 742 412 742 C 466 742 517 733 564 715 C 610 697 650 671 684 639 C 717 607 743 568 762 522 C 781 476 791 425 791 369 C 791 311 781 259 761 212 C 741 164 714 124 680 91 C 646 58 606 33 561 15 C 516 -3 469 -12 420 -12 Z M 422 118 C 452 118 481 123 508 134 C 534 144 557 160 577 181 C 596 202 611 228 622 260 C 633 291 639 327 639 367 C 639 403 633 437 621 467 C 609 497 594 522 574 543 C 554 563 530 579 502 591 C 474 602 444 608 412 608 C 381 608 352 602 326 592 C 299 582 276 567 256 547 C 236 527 221 503 210 473 C 199 443 194 408 194 370 C 194 330 199 294 211 262 C 223 230 239 204 259 183 C 279 161 304 145 332 134 C 360 123 390 118 422 118 Z M 414 783 L 414 783 Z M 608 783 L 480 783 L 414 871 L 346 783 L 220 783 L 343 957 L 485 957 L 608 783 Z" unicode="Ô" />
<glyph horiz-adv-x="833" d="M 43 0 L 43 0 Z M 420 -12 C 362 -12 310 -2 264 16 C 217 35 177 62 145 96 C 112 130 87 170 69 217 C 51 264 43 315 43 370 C 43 423 52 472 72 518 C 91 564 117 603 150 636 C 183 669 222 695 268 714 C 313 732 361 742 412 742 C 466 742 517 733 564 715 C 610 697 650 671 684 639 C 717 607 743 568 762 522 C 781 476 791 425 791 369 C 791 311 781 259 761 212 C 741 164 714 124 680 91 C 646 58 606 33 561 15 C 516 -3 469 -12 420 -12 Z M 422 118 C 452 118 481 123 508 134 C 534 144 557 160 577 181 C 596 202 611 228 622 260 C 633 291 639 327 639 367 C 639 403 633 437 621 467 C 609 497 594 522 574 543 C 554 563 530 579 502 591 C 474 602 444 608 412 608 C 381 608 352 602 326 592 C 299 582 276 567 256 547 C 236 527 221 503 210 473 C 199 443 194 408 194 370 C 194 330 199 294 211 262 C 223 230 239 204 259 183 C 279 161 304 145 332 134 C 360 123 390 118 422 118 Z M 414 786 L 414 786 Z M 489 939 L 598 939 C 598 887 589 848 572 823 C 555 798 533 786 507 786 C 488 786 471 788 457 794 C 443 800 430 806 420 813 C 411 818 402 824 393 830 C 384 836 375 839 367 839 C 359 839 352 834 347 825 C 342 816 339 804 339 789 L 232 789 C 232 814 235 836 241 856 C 247 875 255 891 265 904 C 275 916 286 926 298 932 C 310 938 322 942 334 942 C 352 942 368 939 380 933 C 392 927 404 920 415 914 C 423 908 431 902 439 897 C 446 892 453 890 460 890 C 467 890 474 894 480 902 C 486 910 489 923 489 939 Z" unicode="Õ" />
<glyph horiz-adv-x="833" d="M 43 0 L 43 0 Z M 420 -12 C 362 -12 310 -2 264 16 C 217 35 177 62 145 96 C 112 130 87 170 69 217 C 51 264 43 315 43 370 C 43 423 52 472 72 518 C 91 564 117 603 150 636 C 183 669 222 695 268 714 C 313 732 361 742 412 742 C 466 742 517 733 564 715 C 610 697 650 671 684 639 C 717 607 743 568 762 522 C 781 476 791 425 791 369 C 791 311 781 259 761 212 C 741 164 714 124 680 91 C 646 58 606 33 561 15 C 516 -3 469 -12 420 -12 Z M 422 118 C 452 118 481 123 508 134 C 534 144 557 160 577 181 C 596 202 611 228 622 260 C 633 291 639 327 639 367 C 639 403 633 437 621 467 C 609 497 594 522 574 543 C 554 563 530 579 502 591 C 474 602 444 608 412 608 C 381 608 352 602 326 592 C 299 582 276 567 256 547 C 236 527 221 503 210 473 C 199 443 194 408 194 370 C 194 330 199 294 211 262 C 223 230 239 204 259 183 C 279 161 304 145 332 134 C 360 123 390 118 422 118 Z M 414 783 L 414 783 Z M 572 783 L 455 783 L 455 945 L 572 945 L 572 783 Z M 373 783 L 256 783 L 256 945 L 373 945 L 373 783 Z" unicode="Ö" />
<glyph horiz-adv-x="501" d="M 121 124 L 44 202 L 173 331 L 45 458 L 122 536 L 251 408 L 380 536 L 456 458 L 327 331 L 457 202 L 380 122 L 251 254 L 121 124 Z" unicode="×" />
<glyph horiz-adv-x="833" d="M 791 369 C 791 311 781 259 761 212 C 741 164 714 124 680 91 C 646 58 606 33 561 15 C 516 -3 469 -12 420 -12 C 370 -12 325 -4 284 9 C 242 23 206 43 175 69 L 104 -2 L 46 55 L 118 127 C 94 159 75 196 62 238 C 49 279 43 323 43 370 C 43 423 52 472 72 518 C 91 564 117 603 150 636 C 183 669 222 695 268 714 C 313 732 361 742 412 742 C 459 742 503 735 545 722 C 586 708 623 689 655 665 L 739 749 L 797 692 L 713 608 C 737 577 756 541 770 501 C 784 460 791 416 791 369 Z M 194 370 C 194 343 196 318 202 295 C 207 272 214 251 224 233 L 553 562 C 534 576 512 588 488 596 C 464 604 438 608 412 608 C 381 608 352 602 326 592 C 299 582 276 567 256 547 C 236 527 221 503 210 473 C 199 443 194 408 194 370 Z M 639 367 C 639 393 636 417 630 439 C 624 461 616 482 606 501 L 275 169 C 294 152 316 139 341 131 C 366 122 393 118 422 118 C 452 118 481 123 508 134 C 534 144 557 160 577 181 C 596 202 611 228 622 260 C 633 291 639 327 639 367 Z" unicode="Ø" />
<glyph horiz-adv-x="764" d="M 82 0 L 82 0 Z M 683 730 L 683 266 C 683 222 675 183 659 149 C 643 114 621 85 594 61 C 566 37 534 19 498 7 C 461 -5 422 -12 381 -12 C 341 -12 302 -6 266 6 C 229 18 197 35 170 59 C 143 83 122 112 106 147 C 90 181 82 221 82 266 L 82 730 L 228 730 L 228 265 C 228 221 242 185 272 159 C 301 132 337 119 380 119 C 424 119 461 131 491 157 C 521 183 536 219 536 265 L 536 730 L 683 730 Z M 382 782 L 382 782 Z M 517 782 L 377 782 L 248 942 L 413 942 L 517 782 Z" unicode="Ù" />
<glyph horiz-adv-x="764" d="M 82 0 L 82 0 Z M 683 730 L 683 266 C 683 222 675 183 659 149 C 643 114 621 85 594 61 C 566 37 534 19 498 7 C 461 -5 422 -12 381 -12 C 341 -12 302 -6 266 6 C 229 18 197 35 170 59 C 143 83 122 112 106 147 C 90 181 82 221 82 266 L 82 730 L 228 730 L 228 265 C 228 221 242 185 272 159 C 301 132 337 119 380 119 C 424 119 461 131 491 157 C 521 183 536 219 536 265 L 536 730 L 683 730 Z M 382 786 L 382 786 Z M 249 786 L 351 945 L 517 945 L 389 786 L 249 786 Z" unicode="Ú" />
<glyph horiz-adv-x="764" d="M 82 0 L 82 0 Z M 683 730 L 683 266 C 683 222 675 183 659 149 C 643 114 621 85 594 61 C 566 37 534 19 498 7 C 461 -5 422 -12 381 -12 C 341 -12 302 -6 266 6 C 229 18 197 35 170 59 C 143 83 122 112 106 147 C 90 181 82 221 82 266 L 82 730 L 228 730 L 228 265 C 228 221 242 185 272 159 C 301 132 337 119 380 119 C 424 119 461 131 491 157 C 521 183 536 219 536 265 L 536 730 L 683 730 Z M 382 783 L 382 783 Z M 576 783 L 448 783 L 382 871 L 314 783 L 188 783 L 311 957 L 453 957 L 576 783 Z" unicode="Û" />
<glyph horiz-adv-x="764" d="M 82 0 L 82 0 Z M 683 730 L 683 266 C 683 222 675 183 659 149 C 643 114 621 85 594 61 C 566 37 534 19 498 7 C 461 -5 422 -12 381 -12 C 341 -12 302 -6 266 6 C 229 18 197 35 170 59 C 143 83 122 112 106 147 C 90 181 82 221 82 266 L 82 730 L 228 730 L 228 265 C 228 221 242 185 272 159 C 301 132 337 119 380 119 C 424 119 461 131 491 157 C 521 183 536 219 536 265 L 536 730 L 683 730 Z M 382 783 L 382 783 Z M 540 783 L 423 783 L 423 945 L 540 945 L 540 783 Z M 341 783 L 224 783 L 224 945 L 341 945 L 341 783 Z" unicode="Ü" />
<glyph horiz-adv-x="685" d="M 0 0 L 0 0 Z M 689 730 L 414 306 L 414 0 L 264 0 L 264 312 L -4 730 L 164 730 L 347 444 L 531 730 L 689 730 Z M 346 786 L 346 786 Z M 213 786 L 315 945 L 481 945 L 353 786 L 213 786 Z" unicode="Ý" />
<glyph horiz-adv-x="626" d="M 87 0 L 87 730 L 237 730 L 237 610 L 365 610 C 438 610 496 588 540 546 C 583 503 605 448 605 380 C 605 310 582 253 536 209 C 490 165 431 143 359 143 L 237 143 L 237 0 L 87 0 Z M 235 263 L 343 263 C 377 263 404 273 424 294 C 444 315 454 344 454 380 C 454 416 442 443 420 461 C 397 479 369 488 336 488 L 235 488 L 235 263 Z" unicode="Þ" />
<glyph horiz-adv-x="725" d="M 504 -12 C 454 -12 410 -6 372 6 C 333 18 300 34 274 54 L 333 150 C 356 136 383 124 415 115 C 447 106 475 102 499 102 C 519 102 535 106 547 114 C 558 122 564 133 564 147 C 564 161 556 172 541 181 C 526 189 500 199 462 210 C 397 227 352 248 326 272 C 300 296 288 330 288 374 C 288 409 297 437 317 457 C 337 477 358 490 382 497 C 386 499 391 503 397 510 C 403 517 406 531 407 552 C 409 588 400 616 382 635 C 363 654 340 664 312 664 C 284 664 261 656 244 641 C 227 625 219 600 219 565 L 219 0 L 78 0 L 78 585 C 78 616 84 644 96 668 C 108 692 124 712 144 728 C 164 744 187 756 215 764 C 242 772 271 777 302 777 C 334 777 365 772 394 764 C 422 755 447 742 469 726 C 490 710 507 690 520 666 C 532 642 539 615 539 585 C 539 544 532 511 518 487 C 504 463 489 446 474 437 C 457 432 442 425 428 417 C 414 409 406 399 402 388 C 402 374 412 362 434 352 C 456 341 488 330 531 318 C 585 303 627 283 657 259 C 686 234 701 199 701 155 C 701 128 696 104 686 83 C 676 62 662 45 644 31 C 626 17 606 6 582 -1 C 558 -8 532 -12 504 -12 Z" unicode="ß" />
<glyph horiz-adv-x="558" d="M 25 0 L 25 0 Z M 500 0 L 368 0 L 368 58 C 352 37 330 20 303 8 C 276 -3 242 -10 201 -10 C 143 -10 99 4 69 33 C 39 62 25 99 25 143 C 25 198 47 241 92 271 C 136 301 200 317 283 321 L 365 326 L 365 333 C 365 354 358 371 344 384 C 330 396 307 403 276 403 C 245 403 215 397 186 387 C 157 377 131 365 109 352 L 58 441 C 82 459 113 476 153 490 C 193 504 239 511 292 511 C 356 511 406 496 444 468 C 481 440 500 394 500 331 L 500 0 Z M 368 150 L 368 233 L 280 229 C 245 228 217 221 197 209 C 177 197 167 179 167 157 C 167 138 174 123 188 113 C 202 102 220 97 243 97 C 269 97 294 102 316 113 C 338 123 356 136 368 150 Z M 273 550 L 273 550 Z M 408 550 L 268 550 L 139 710 L 304 710 L 408 550 Z" unicode="à" />
<glyph horiz-adv-x="558" d="M 25 0 L 25 0 Z M 500 0 L 368 0 L 368 58 C 352 37 330 20 303 8 C 276 -3 242 -10 201 -10 C 143 -10 99 4 69 33 C 39 62 25 99 25 143 C 25 198 47 241 92 271 C 136 301 200 317 283 321 L 365 326 L 365 333 C 365 354 358 371 344 384 C 330 396 307 403 276 403 C 245 403 215 397 186 387 C 157 377 131 365 109 352 L 58 441 C 82 459 113 476 153 490 C 193 504 239 511 292 511 C 356 511 406 496 444 468 C 481 440 500 394 500 331 L 500 0 Z M 368 150 L 368 233 L 280 229 C 245 228 217 221 197 209 C 177 197 167 179 167 157 C 167 138 174 123 188 113 C 202 102 220 97 243 97 C 269 97 294 102 316 113 C 338 123 356 136 368 150 Z M 273 554 L 273 554 Z M 140 554 L 242 713 L 408 713 L 280 554 L 140 554 Z" unicode="á" />
<glyph horiz-adv-x="558" d="M 25 0 L 25 0 Z M 500 0 L 368 0 L 368 58 C 352 37 330 20 303 8 C 276 -3 242 -10 201 -10 C 143 -10 99 4 69 33 C 39 62 25 99 25 143 C 25 198 47 241 92 271 C 136 301 200 317 283 321 L 365 326 L 365 333 C 365 354 358 371 344 384 C 330 396 307 403 276 403 C 245 403 215 397 186 387 C 157 377 131 365 109 352 L 58 441 C 82 459 113 476 153 490 C 193 504 239 511 292 511 C 356 511 406 496 444 468 C 481 440 500 394 500 331 L 500 0 Z M 368 150 L 368 233 L 280 229 C 245 228 217 221 197 209 C 177 197 167 179 167 157 C 167 138 174 123 188 113 C 202 102 220 97 243 97 C 269 97 294 102 316 113 C 338 123 356 136 368 150 Z M 273 551 L 273 551 Z M 467 551 L 339 551 L 273 639 L 205 551 L 79 551 L 202 725 L 344 725 L 467 551 Z" unicode="â" />
<glyph horiz-adv-x="558" d="M 25 0 L 25 0 Z M 500 0 L 368 0 L 368 58 C 352 37 330 20 303 8 C 276 -3 242 -10 201 -10 C 143 -10 99 4 69 33 C 39 62 25 99 25 143 C 25 198 47 241 92 271 C 136 301 200 317 283 321 L 365 326 L 365 333 C 365 354 358 371 344 384 C 330 396 307 403 276 403 C 245 403 215 397 186 387 C 157 377 131 365 109 352 L 58 441 C 82 459 113 476 153 490 C 193 504 239 511 292 511 C 356 511 406 496 444 468 C 481 440 500 394 500 331 L 500 0 Z M 368 150 L 368 233 L 280 229 C 245 228 217 221 197 209 C 177 197 167 179 167 157 C 167 138 174 123 188 113 C 202 102 220 97 243 97 C 269 97 294 102 316 113 C 338 123 356 136 368 150 Z M 273 554 L 273 554 Z M 348 707 L 457 707 C 457 655 448 616 431 591 C 414 566 392 554 366 554 C 347 554 330 556 316 562 C 302 568 289 574 279 581 C 270 586 261 592 252 598 C 243 604 234 607 226 607 C 218 607 211 602 206 593 C 201 584 198 572 198 557 L 91 557 C 91 582 94 604 100 624 C 106 643 114 659 124 672 C 134 684 145 694 157 700 C 169 706 181 710 193 710 C 211 710 227 707 239 701 C 251 695 263 688 274 682 C 282 676 290 670 298 665 C 305 660 312 658 319 658 C 326 658 333 662 339 670 C 345 678 348 691 348 707 Z" unicode="ã" />
<glyph horiz-adv-x="558" d="M 25 0 L 25 0 Z M 500 0 L 368 0 L 368 58 C 352 37 330 20 303 8 C 276 -3 242 -10 201 -10 C 143 -10 99 4 69 33 C 39 62 25 99 25 143 C 25 198 47 241 92 271 C 136 301 200 317 283 321 L 365 326 L 365 333 C 365 354 358 371 344 384 C 330 396 307 403 276 403 C 245 403 215 397 186 387 C 157 377 131 365 109 352 L 58 441 C 82 459 113 476 153 490 C 193 504 239 511 292 511 C 356 511 406 496 444 468 C 481 440 500 394 500 331 L 500 0 Z M 368 150 L 368 233 L 280 229 C 245 228 217 221 197 209 C 177 197 167 179 167 157 C 167 138 174 123 188 113 C 202 102 220 97 243 97 C 269 97 294 102 316 113 C 338 123 356 136 368 150 Z M 273 551 L 273 551 Z M 431 551 L 314 551 L 314 713 L 431 713 L 431 551 Z M 232 551 L 115 551 L 115 713 L 232 713 L 232 551 Z" unicode="ä" />
<glyph horiz-adv-x="558" d="M 25 0 L 25 0 Z M 500 0 L 368 0 L 368 58 C 352 37 330 20 303 8 C 276 -3 242 -10 201 -10 C 143 -10 99 4 69 33 C 39 62 25 99 25 143 C 25 198 47 241 92 271 C 136 301 200 317 283 321 L 365 326 L 365 333 C 365 354 358 371 344 384 C 330 396 307 403 276 403 C 245 403 215 397 186 387 C 157 377 131 365 109 352 L 58 441 C 82 459 113 476 153 490 C 193 504 239 511 292 511 C 356 511 406 496 444 468 C 481 440 500 394 500 331 L 500 0 Z M 368 150 L 368 233 L 280 229 C 245 228 217 221 197 209 C 177 197 167 179 167 157 C 167 138 174 123 188 113 C 202 102 220 97 243 97 C 269 97 294 102 316 113 C 338 123 356 136 368 150 Z M 273 547 L 273 547 Z M 273 547 C 239 547 210 559 186 583 C 162 607 150 636 150 670 C 150 704 162 732 186 756 C 210 780 239 792 273 792 C 307 792 336 780 360 756 C 384 732 396 704 396 670 C 396 636 384 607 360 583 C 336 559 307 547 273 547 Z M 273 621 C 286 621 297 625 306 635 C 315 644 320 656 320 670 C 320 683 315 694 306 704 C 297 713 286 718 273 718 C 259 718 248 713 239 704 C 229 694 225 683 225 670 C 225 656 229 644 239 635 C 248 625 259 621 273 621 Z" unicode="å" />
<glyph horiz-adv-x="903" d="M 633 -11 C 579 -11 533 -1 497 17 C 461 36 435 59 421 86 C 403 61 376 39 338 19 C 300 0 255 -10 205 -10 C 149 -10 105 4 75 32 C 45 60 30 97 30 143 C 30 199 52 241 97 271 C 141 300 205 317 288 321 L 373 325 L 373 333 C 373 353 364 370 348 383 C 332 396 309 403 279 403 C 249 403 219 397 190 387 C 160 377 135 365 113 352 L 63 441 C 87 459 119 476 157 490 C 195 504 236 511 281 511 C 325 511 362 504 390 490 C 418 476 439 459 451 439 C 465 456 488 472 518 487 C 548 502 585 510 629 510 C 706 510 767 482 812 428 C 856 373 879 300 879 209 L 500 209 C 501 180 513 155 535 133 C 557 111 590 101 634 101 C 672 101 701 106 721 118 C 741 130 757 143 769 157 L 849 75 C 825 49 797 28 764 12 C 731 -3 687 -11 633 -11 Z M 504 301 L 740 301 C 739 327 728 350 707 370 C 685 390 657 401 621 401 C 586 401 558 390 538 370 C 518 350 506 327 504 301 Z M 249 97 C 279 97 306 104 328 120 C 350 136 366 152 377 170 L 377 232 L 285 228 C 251 227 223 221 202 211 C 181 201 171 183 171 159 C 171 138 178 122 193 112 C 207 102 226 97 249 97 Z" unicode="æ" />
<glyph horiz-adv-x="543" d="M 33 0 L 33 0 Z M 419 180 L 529 114 C 509 80 481 51 444 26 C 406 1 356 -11 294 -11 C 256 -11 221 -5 189 7 C 157 19 129 36 106 58 C 83 80 65 108 52 140 C 39 172 33 209 33 249 C 33 288 39 324 53 356 C 67 388 86 415 110 438 C 134 460 162 478 195 491 C 227 503 262 510 300 510 C 331 510 359 506 385 498 C 410 490 432 480 451 468 C 469 455 485 440 498 424 C 511 407 521 390 528 373 L 407 320 C 397 340 384 357 367 371 C 350 385 327 392 299 392 C 262 392 233 378 211 352 C 189 325 178 291 178 249 C 178 203 189 167 211 143 C 233 119 264 107 302 107 C 334 107 359 114 377 130 C 395 145 409 162 419 180 Z M 291 -3 L 291 -3 Z M 300 -196 C 273 -196 246 -193 219 -187 C 191 -181 171 -173 157 -164 L 173 -104 C 181 -108 193 -112 208 -116 C 222 -120 237 -123 253 -123 C 263 -123 272 -120 280 -116 C 288 -112 292 -106 292 -98 C 292 -89 288 -83 281 -79 C 274 -75 267 -74 259 -74 C 253 -74 247 -74 243 -75 C 238 -76 233 -77 229 -79 L 211 -60 L 273 11 L 357 11 L 310 -46 C 343 -42 370 -46 392 -60 C 413 -74 424 -93 424 -118 C 424 -144 411 -164 386 -177 C 360 -189 332 -196 300 -196 Z" unicode="ç" />
<glyph horiz-adv-x="575" d="M 33 0 L 33 0 Z M 302 -11 C 263 -11 227 -5 194 6 C 161 17 133 33 109 55 C 85 77 66 104 53 136 C 39 168 33 204 33 245 C 33 283 39 318 52 350 C 65 382 83 410 107 434 C 131 458 159 476 192 490 C 224 503 260 510 299 510 C 376 510 437 483 483 429 C 528 375 551 302 552 208 L 169 208 C 171 180 183 156 205 134 C 227 112 259 101 303 101 C 339 101 369 106 391 118 C 413 129 430 142 442 156 L 521 75 C 498 50 470 29 438 13 C 405 -2 360 -11 302 -11 Z M 172 302 L 412 302 C 410 328 399 351 378 371 C 356 391 328 401 294 401 C 259 401 231 390 209 370 C 187 350 174 327 172 302 Z M 294 550 L 294 550 Z M 429 550 L 289 550 L 160 710 L 325 710 L 429 550 Z" unicode="è" />
<glyph horiz-adv-x="575" d="M 33 0 L 33 0 Z M 302 -11 C 263 -11 227 -5 194 6 C 161 17 133 33 109 55 C 85 77 66 104 53 136 C 39 168 33 204 33 245 C 33 283 39 318 52 350 C 65 382 83 410 107 434 C 131 458 159 476 192 490 C 224 503 260 510 299 510 C 376 510 437 483 483 429 C 528 375 551 302 552 208 L 169 208 C 171 180 183 156 205 134 C 227 112 259 101 303 101 C 339 101 369 106 391 118 C 413 129 430 142 442 156 L 521 75 C 498 50 470 29 438 13 C 405 -2 360 -11 302 -11 Z M 172 302 L 412 302 C 410 328 399 351 378 371 C 356 391 328 401 294 401 C 259 401 231 390 209 370 C 187 350 174 327 172 302 Z M 294 554 L 294 554 Z M 161 554 L 263 713 L 429 713 L 301 554 L 161 554 Z" unicode="é" />
<glyph horiz-adv-x="575" d="M 33 0 L 33 0 Z M 302 -11 C 263 -11 227 -5 194 6 C 161 17 133 33 109 55 C 85 77 66 104 53 136 C 39 168 33 204 33 245 C 33 283 39 318 52 350 C 65 382 83 410 107 434 C 131 458 159 476 192 490 C 224 503 260 510 299 510 C 376 510 437 483 483 429 C 528 375 551 302 552 208 L 169 208 C 171 180 183 156 205 134 C 227 112 259 101 303 101 C 339 101 369 106 391 118 C 413 129 430 142 442 156 L 521 75 C 498 50 470 29 438 13 C 405 -2 360 -11 302 -11 Z M 172 302 L 412 302 C 410 328 399 351 378 371 C 356 391 328 401 294 401 C 259 401 231 390 209 370 C 187 350 174 327 172 302 Z M 294 551 L 294 551 Z M 488 551 L 360 551 L 294 639 L 226 551 L 100 551 L 223 725 L 365 725 L 488 551 Z" unicode="ê" />
<glyph horiz-adv-x="575" d="M 33 0 L 33 0 Z M 302 -11 C 263 -11 227 -5 194 6 C 161 17 133 33 109 55 C 85 77 66 104 53 136 C 39 168 33 204 33 245 C 33 283 39 318 52 350 C 65 382 83 410 107 434 C 131 458 159 476 192 490 C 224 503 260 510 299 510 C 376 510 437 483 483 429 C 528 375 551 302 552 208 L 169 208 C 171 180 183 156 205 134 C 227 112 259 101 303 101 C 339 101 369 106 391 118 C 413 129 430 142 442 156 L 521 75 C 498 50 470 29 438 13 C 405 -2 360 -11 302 -11 Z M 172 302 L 412 302 C 410 328 399 351 378 371 C 356 391 328 401 294 401 C 259 401 231 390 209 370 C 187 350 174 327 172 302 Z M 294 551 L 294 551 Z M 452 551 L 335 551 L 335 713 L 452 713 L 452 551 Z M 253 551 L 136 551 L 136 713 L 253 713 L 253 551 Z" unicode="ë" />
<glyph horiz-adv-x="281" d="M 6 0 L 6 0 Z M 210 0 L 71 0 L 71 498 L 210 498 L 210 0 Z M 140 550 L 140 550 Z M 275 550 L 135 550 L 6 710 L 171 710 L 275 550 Z" unicode="ì" />
<glyph horiz-adv-x="281" d="M 7 0 L 7 0 Z M 210 0 L 71 0 L 71 498 L 210 498 L 210 0 Z M 140 554 L 140 554 Z M 7 554 L 109 713 L 275 713 L 147 554 L 7 554 Z" unicode="í" />
<glyph horiz-adv-x="281" d="M 0 0 L 0 0 Z M 210 0 L 71 0 L 71 498 L 210 498 L 210 0 Z M 140 551 L 140 551 Z M 334 551 L 206 551 L 140 639 L 72 551 L -54 551 L 69 725 L 211 725 L 334 551 Z" unicode="î" />
<glyph horiz-adv-x="281" d="M 0 0 L 0 0 Z M 210 0 L 71 0 L 71 498 L 210 498 L 210 0 Z M 140 551 L 140 551 Z M 298 551 L 181 551 L 181 713 L 298 713 L 298 551 Z M 99 551 L -18 551 L -18 713 L 99 713 L 99 551 Z" unicode="ï" />
<glyph horiz-adv-x="612" d="M 574 279 C 574 239 568 201 556 166 C 544 130 527 100 504 74 C 481 48 452 27 418 12 C 384 -3 344 -11 300 -11 C 262 -11 226 -5 194 6 C 161 18 133 34 109 56 C 85 78 67 104 54 136 C 40 168 34 203 34 243 C 34 279 41 312 55 343 C 69 373 88 400 112 422 C 135 444 162 462 192 475 C 222 487 252 494 283 494 C 314 494 343 487 369 475 C 395 463 415 449 429 433 C 424 467 415 498 401 528 C 387 558 371 585 353 610 L 214 569 L 190 638 L 301 670 C 286 684 271 697 257 709 C 243 720 230 729 219 736 L 345 779 C 356 771 368 761 382 749 C 395 737 409 722 423 706 L 504 730 L 527 661 L 470 644 C 498 601 522 549 543 488 C 563 426 574 357 574 279 Z M 303 103 C 346 103 379 116 402 142 C 424 168 436 203 436 247 C 436 291 424 325 402 349 C 379 373 347 385 307 385 C 267 385 235 371 211 345 C 187 319 176 286 176 246 C 176 203 188 168 212 142 C 236 116 266 103 303 103 Z" unicode="ð" />
<glyph horiz-adv-x="601" d="M 66 0 L 66 0 Z M 541 0 L 401 0 L 401 319 C 401 342 393 360 377 374 C 361 387 340 394 314 394 C 286 394 260 385 238 369 C 216 353 205 329 205 297 L 205 0 L 66 0 L 66 498 L 193 498 L 193 416 C 204 443 225 465 256 483 C 287 501 323 510 363 510 C 414 510 456 495 490 466 C 524 437 541 400 541 354 L 541 0 Z M 314 554 L 314 554 Z M 389 707 L 498 707 C 498 655 489 616 472 591 C 455 566 433 554 407 554 C 388 554 371 556 357 562 C 343 568 330 574 320 581 C 311 586 302 592 293 598 C 284 604 275 607 267 607 C 259 607 252 602 247 593 C 242 584 239 572 239 557 L 132 557 C 132 582 135 604 141 624 C 147 643 155 659 165 672 C 175 684 186 694 198 700 C 210 706 222 710 234 710 C 252 710 268 707 280 701 C 292 695 304 688 315 682 C 323 676 331 670 339 665 C 346 660 353 658 360 658 C 367 658 374 662 380 670 C 386 678 389 691 389 707 Z" unicode="ñ" />
<glyph horiz-adv-x="607" d="M 33 0 L 33 0 Z M 300 -11 C 266 -11 234 -5 202 6 C 170 17 141 33 116 55 C 91 77 71 104 56 136 C 40 168 33 206 33 248 C 33 286 40 321 55 353 C 69 385 89 412 114 436 C 138 459 167 477 199 490 C 231 503 265 510 299 510 C 335 510 370 504 404 493 C 438 481 467 465 492 444 C 517 423 537 397 552 366 C 566 335 574 300 574 262 C 574 220 566 183 552 149 C 537 115 517 87 492 63 C 467 39 438 21 405 8 C 371 -4 336 -11 300 -11 Z M 303 106 C 341 106 372 119 395 146 C 418 172 430 209 430 256 C 430 298 418 331 394 355 C 370 379 338 392 298 392 C 262 392 233 379 211 353 C 189 327 178 292 178 248 C 178 200 189 164 213 141 C 237 117 267 106 303 106 Z M 300 550 L 300 550 Z M 435 550 L 295 550 L 166 710 L 331 710 L 435 550 Z" unicode="ò" />
<glyph horiz-adv-x="607" d="M 33 0 L 33 0 Z M 300 -11 C 266 -11 234 -5 202 6 C 170 17 141 33 116 55 C 91 77 71 104 56 136 C 40 168 33 206 33 248 C 33 286 40 321 55 353 C 69 385 89 412 114 436 C 138 459 167 477 199 490 C 231 503 265 510 299 510 C 335 510 370 504 404 493 C 438 481 467 465 492 444 C 517 423 537 397 552 366 C 566 335 574 300 574 262 C 574 220 566 183 552 149 C 537 115 517 87 492 63 C 467 39 438 21 405 8 C 371 -4 336 -11 300 -11 Z M 303 106 C 341 106 372 119 395 146 C 418 172 430 209 430 256 C 430 298 418 331 394 355 C 370 379 338 392 298 392 C 262 392 233 379 211 353 C 189 327 178 292 178 248 C 178 200 189 164 213 141 C 237 117 267 106 303 106 Z M 300 554 L 300 554 Z M 167 554 L 269 713 L 435 713 L 307 554 L 167 554 Z" unicode="ó" />
<glyph horiz-adv-x="607" d="M 33 0 L 33 0 Z M 300 -11 C 266 -11 234 -5 202 6 C 170 17 141 33 116 55 C 91 77 71 104 56 136 C 40 168 33 206 33 248 C 33 286 40 321 55 353 C 69 385 89 412 114 436 C 138 459 167 477 199 490 C 231 503 265 510 299 510 C 335 510 370 504 404 493 C 438 481 467 465 492 444 C 517 423 537 397 552 366 C 566 335 574 300 574 262 C 574 220 566 183 552 149 C 537 115 517 87 492 63 C 467 39 438 21 405 8 C 371 -4 336 -11 300 -11 Z M 303 106 C 341 106 372 119 395 146 C 418 172 430 209 430 256 C 430 298 418 331 394 355 C 370 379 338 392 298 392 C 262 392 233 379 211 353 C 189 327 178 292 178 248 C 178 200 189 164 213 141 C 237 117 267 106 303 106 Z M 300 551 L 300 551 Z M 494 551 L 366 551 L 300 639 L 232 551 L 106 551 L 229 725 L 371 725 L 494 551 Z" unicode="ô" />
<glyph horiz-adv-x="607" d="M 33 0 L 33 0 Z M 300 -11 C 266 -11 234 -5 202 6 C 170 17 141 33 116 55 C 91 77 71 104 56 136 C 40 168 33 206 33 248 C 33 286 40 321 55 353 C 69 385 89 412 114 436 C 138 459 167 477 199 490 C 231 503 265 510 299 510 C 335 510 370 504 404 493 C 438 481 467 465 492 444 C 517 423 537 397 552 366 C 566 335 574 300 574 262 C 574 220 566 183 552 149 C 537 115 517 87 492 63 C 467 39 438 21 405 8 C 371 -4 336 -11 300 -11 Z M 303 106 C 341 106 372 119 395 146 C 418 172 430 209 430 256 C 430 298 418 331 394 355 C 370 379 338 392 298 392 C 262 392 233 379 211 353 C 189 327 178 292 178 248 C 178 200 189 164 213 141 C 237 117 267 106 303 106 Z M 300 554 L 300 554 Z M 375 707 L 484 707 C 484 655 475 616 458 591 C 441 566 419 554 393 554 C 374 554 357 556 343 562 C 329 568 316 574 306 581 C 297 586 288 592 279 598 C 270 604 261 607 253 607 C 245 607 238 602 233 593 C 228 584 225 572 225 557 L 118 557 C 118 582 121 604 127 624 C 133 643 141 659 151 672 C 161 684 172 694 184 700 C 196 706 208 710 220 710 C 238 710 254 707 266 701 C 278 695 290 688 301 682 C 309 676 317 670 325 665 C 332 660 339 658 346 658 C 353 658 360 662 366 670 C 372 678 375 691 375 707 Z" unicode="õ" />
<glyph horiz-adv-x="607" d="M 33 0 L 33 0 Z M 300 -11 C 266 -11 234 -5 202 6 C 170 17 141 33 116 55 C 91 77 71 104 56 136 C 40 168 33 206 33 248 C 33 286 40 321 55 353 C 69 385 89 412 114 436 C 138 459 167 477 199 490 C 231 503 265 510 299 510 C 335 510 370 504 404 493 C 438 481 467 465 492 444 C 517 423 537 397 552 366 C 566 335 574 300 574 262 C 574 220 566 183 552 149 C 537 115 517 87 492 63 C 467 39 438 21 405 8 C 371 -4 336 -11 300 -11 Z M 303 106 C 341 106 372 119 395 146 C 418 172 430 209 430 256 C 430 298 418 331 394 355 C 370 379 338 392 298 392 C 262 392 233 379 211 353 C 189 327 178 292 178 248 C 178 200 189 164 213 141 C 237 117 267 106 303 106 Z M 300 551 L 300 551 Z M 458 551 L 341 551 L 341 713 L 458 713 L 458 551 Z M 259 551 L 142 551 L 142 713 L 259 713 L 259 551 Z" unicode="ö" />
<glyph horiz-adv-x="500" d="M 185 449 L 185 579 L 315 579 L 315 449 L 185 449 Z M 21 271 L 21 389 L 479 389 L 479 271 L 21 271 Z M 185 81 L 185 211 L 315 211 L 315 81 L 185 81 Z" unicode="÷" />
<glyph horiz-adv-x="607" d="M 300 -11 C 270 -11 241 -6 213 2 C 185 10 159 23 136 40 L 79 -17 L 30 32 L 86 87 C 69 107 56 131 47 158 C 37 185 33 215 33 248 C 33 286 40 321 55 353 C 69 385 89 412 114 436 C 138 459 167 477 199 490 C 231 503 265 510 299 510 C 329 510 359 506 387 498 C 415 490 441 479 464 465 L 524 524 L 572 476 L 517 421 C 534 400 548 376 558 350 C 568 323 574 294 574 262 C 574 220 566 183 552 149 C 537 115 517 87 492 63 C 467 39 438 21 405 8 C 371 -4 336 -11 300 -11 Z M 178 248 C 178 236 178 226 180 216 C 181 206 183 196 186 188 L 373 373 C 362 379 350 383 338 387 C 326 390 312 392 298 392 C 262 392 233 379 211 353 C 189 327 178 292 178 248 Z M 430 256 C 430 268 429 280 427 291 C 425 302 421 312 417 321 L 226 130 C 236 122 247 116 261 112 C 274 108 288 106 303 106 C 341 106 372 119 395 146 C 418 172 430 209 430 256 Z" unicode="ø" />
<glyph horiz-adv-x="601" d="M 60 0 L 60 0 Z M 60 498 L 199 498 L 199 189 C 199 160 207 139 225 125 C 242 111 265 104 294 104 C 324 104 348 112 367 129 C 386 146 396 169 396 198 L 396 498 L 535 498 L 535 0 L 406 0 L 406 82 C 393 55 372 33 342 16 C 312 -1 277 -10 237 -10 C 212 -10 189 -6 168 1 C 146 8 128 18 112 32 C 96 46 83 63 74 84 C 64 104 60 128 60 154 L 60 498 Z M 298 550 L 298 550 Z M 433 550 L 293 550 L 164 710 L 329 710 L 433 550 Z" unicode="ù" />
<glyph horiz-adv-x="601" d="M 60 0 L 60 0 Z M 60 498 L 199 498 L 199 189 C 199 160 207 139 225 125 C 242 111 265 104 294 104 C 324 104 348 112 367 129 C 386 146 396 169 396 198 L 396 498 L 535 498 L 535 0 L 406 0 L 406 82 C 393 55 372 33 342 16 C 312 -1 277 -10 237 -10 C 212 -10 189 -6 168 1 C 146 8 128 18 112 32 C 96 46 83 63 74 84 C 64 104 60 128 60 154 L 60 498 Z M 298 554 L 298 554 Z M 165 554 L 267 713 L 433 713 L 305 554 L 165 554 Z" unicode="ú" />
<glyph horiz-adv-x="601" d="M 60 0 L 60 0 Z M 60 498 L 199 498 L 199 189 C 199 160 207 139 225 125 C 242 111 265 104 294 104 C 324 104 348 112 367 129 C 386 146 396 169 396 198 L 396 498 L 535 498 L 535 0 L 406 0 L 406 82 C 393 55 372 33 342 16 C 312 -1 277 -10 237 -10 C 212 -10 189 -6 168 1 C 146 8 128 18 112 32 C 96 46 83 63 74 84 C 64 104 60 128 60 154 L 60 498 Z M 298 551 L 298 551 Z M 492 551 L 364 551 L 298 639 L 230 551 L 104 551 L 227 725 L 369 725 L 492 551 Z" unicode="û" />
<glyph horiz-adv-x="601" d="M 60 0 L 60 0 Z M 60 498 L 199 498 L 199 189 C 199 160 207 139 225 125 C 242 111 265 104 294 104 C 324 104 348 112 367 129 C 386 146 396 169 396 198 L 396 498 L 535 498 L 535 0 L 406 0 L 406 82 C 393 55 372 33 342 16 C 312 -1 277 -10 237 -10 C 212 -10 189 -6 168 1 C 146 8 128 18 112 32 C 96 46 83 63 74 84 C 64 104 60 128 60 154 L 60 498 Z M 298 551 L 298 551 Z M 456 551 L 339 551 L 339 713 L 456 713 L 456 551 Z M 257 551 L 140 551 L 140 713 L 257 713 L 257 551 Z" unicode="ü" />
<glyph horiz-adv-x="549" d="M 0 0 L 0 0 Z M 554 498 L 276 -76 C 252 -125 222 -158 186 -175 C 150 -191 117 -200 85 -200 C 65 -200 49 -198 36 -194 C 22 -190 13 -186 7 -184 L 45 -69 C 47 -71 53 -73 62 -75 C 71 -77 80 -79 89 -79 C 105 -79 120 -74 132 -65 C 144 -55 156 -40 168 -18 L 205 53 L -5 498 L 145 498 L 277 198 L 412 498 L 554 498 Z M 276 554 L 276 554 Z M 143 554 L 245 713 L 411 713 L 283 554 L 143 554 Z" unicode="ý" />
<glyph horiz-adv-x="617" d="M 66 -198 L 66 765 L 202 765 L 202 422 C 210 442 228 462 256 481 C 284 499 321 509 367 509 C 397 509 426 503 452 492 C 478 480 501 464 521 443 C 540 421 555 395 567 365 C 578 334 584 299 584 261 C 584 219 577 181 565 148 C 553 115 536 87 516 65 C 495 42 471 25 444 13 C 416 1 388 -5 359 -5 C 321 -5 289 2 261 18 C 233 33 214 51 204 72 L 204 -198 L 66 -198 Z M 323 104 C 357 104 385 117 407 143 C 429 169 441 205 441 252 C 441 294 430 329 410 357 C 390 385 361 399 323 399 C 287 399 257 387 234 363 C 211 339 200 301 200 249 C 200 195 211 158 235 136 C 258 114 287 104 323 104 Z" unicode="þ" />
<glyph horiz-adv-x="549" d="M 0 0 L 0 0 Z M 554 498 L 276 -76 C 252 -125 222 -158 186 -175 C 150 -191 117 -200 85 -200 C 65 -200 49 -198 36 -194 C 22 -190 13 -186 7 -184 L 45 -69 C 47 -71 53 -73 62 -75 C 71 -77 80 -79 89 -79 C 105 -79 120 -74 132 -65 C 144 -55 156 -40 168 -18 L 205 53 L -5 498 L 145 498 L 277 198 L 412 498 L 554 498 Z M 276 551 L 276 551 Z M 434 551 L 317 551 L 317 713 L 434 713 L 434 551 Z M 235 551 L 118 551 L 118 713 L 235 713 L 235 551 Z" unicode="ÿ" />
<glyph horiz-adv-x="677" d="M 0 0 L 0 0 Z M 680 0 L 521 0 L 465 141 L 200 141 L 147 0 L -3 0 L 297 732 L 390 732 L 680 0 Z M 430 252 L 332 505 L 236 252 L 430 252 Z M 338 792 L 338 792 Z M 481 792 L 195 792 L 195 898 L 481 898 L 481 792 Z" unicode="Ā" />
<glyph horiz-adv-x="558" d="M 25 0 L 25 0 Z M 500 0 L 368 0 L 368 58 C 352 37 330 20 303 8 C 276 -3 242 -10 201 -10 C 143 -10 99 4 69 33 C 39 62 25 99 25 143 C 25 198 47 241 92 271 C 136 301 200 317 283 321 L 365 326 L 365 333 C 365 354 358 371 344 384 C 330 396 307 403 276 403 C 245 403 215 397 186 387 C 157 377 131 365 109 352 L 58 441 C 82 459 113 476 153 490 C 193 504 239 511 292 511 C 356 511 406 496 444 468 C 481 440 500 394 500 331 L 500 0 Z M 368 150 L 368 233 L 280 229 C 245 228 217 221 197 209 C 177 197 167 179 167 157 C 167 138 174 123 188 113 C 202 102 220 97 243 97 C 269 97 294 102 316 113 C 338 123 356 136 368 150 Z M 273 560 L 273 560 Z M 416 560 L 130 560 L 130 666 L 416 666 L 416 560 Z" unicode="ā" />
<glyph horiz-adv-x="677" d="M 0 0 L 0 0 Z M 680 0 L 521 0 L 465 141 L 200 141 L 147 0 L -3 0 L 297 732 L 390 732 L 680 0 Z M 430 252 L 332 505 L 236 252 L 430 252 Z M 338 783 L 338 783 Z M 397 945 L 512 945 C 507 889 489 848 457 822 C 425 796 385 783 338 783 C 290 783 251 796 219 822 C 187 848 168 889 164 945 L 279 945 C 280 918 285 897 295 883 C 304 869 318 862 338 862 C 357 862 371 869 381 883 C 390 897 395 917 397 945 Z" unicode="Ă" />
<glyph horiz-adv-x="558" d="M 25 0 L 25 0 Z M 500 0 L 368 0 L 368 58 C 352 37 330 20 303 8 C 276 -3 242 -10 201 -10 C 143 -10 99 4 69 33 C 39 62 25 99 25 143 C 25 198 47 241 92 271 C 136 301 200 317 283 321 L 365 326 L 365 333 C 365 354 358 371 344 384 C 330 396 307 403 276 403 C 245 403 215 397 186 387 C 157 377 131 365 109 352 L 58 441 C 82 459 113 476 153 490 C 193 504 239 511 292 511 C 356 511 406 496 444 468 C 481 440 500 394 500 331 L 500 0 Z M 368 150 L 368 233 L 280 229 C 245 228 217 221 197 209 C 177 197 167 179 167 157 C 167 138 174 123 188 113 C 202 102 220 97 243 97 C 269 97 294 102 316 113 C 338 123 356 136 368 150 Z M 273 551 L 273 551 Z M 332 713 L 447 713 C 442 657 424 616 392 590 C 360 564 320 551 273 551 C 225 551 186 564 154 590 C 122 616 103 657 99 713 L 214 713 C 215 686 220 665 230 651 C 239 637 253 630 273 630 C 292 630 306 637 316 651 C 325 665 330 685 332 713 Z" unicode="ă" />
<glyph horiz-adv-x="677" d="M 0 0 L 0 0 Z M 680 0 L 521 0 L 465 141 L 200 141 L 147 0 L -3 0 L 297 732 L 390 732 L 680 0 Z M 430 252 L 332 505 L 236 252 L 430 252 Z M 536 -5 L 536 -5 Z M 636 -73 L 672 -130 C 650 -153 626 -170 601 -182 C 575 -193 547 -199 515 -199 C 479 -199 450 -191 430 -176 C 410 -161 400 -142 400 -120 C 400 -95 411 -72 434 -50 C 456 -28 487 -10 525 6 L 585 6 C 563 -4 547 -16 535 -28 C 523 -40 517 -52 517 -64 C 517 -74 521 -83 530 -89 C 538 -95 549 -99 562 -99 C 577 -99 591 -96 604 -91 C 616 -85 627 -79 636 -73 Z" unicode="Ą" />
<glyph horiz-adv-x="558" d="M 25 0 L 25 0 Z M 500 0 L 368 0 L 368 58 C 352 37 330 20 303 8 C 276 -3 242 -10 201 -10 C 143 -10 99 4 69 33 C 39 62 25 99 25 143 C 25 198 47 241 92 271 C 136 301 200 317 283 321 L 365 326 L 365 333 C 365 354 358 371 344 384 C 330 396 307 403 276 403 C 245 403 215 397 186 387 C 157 377 131 365 109 352 L 58 441 C 82 459 113 476 153 490 C 193 504 239 511 292 511 C 356 511 406 496 444 468 C 481 440 500 394 500 331 L 500 0 Z M 368 150 L 368 233 L 280 229 C 245 228 217 221 197 209 C 177 197 167 179 167 157 C 167 138 174 123 188 113 C 202 102 220 97 243 97 C 269 97 294 102 316 113 C 338 123 356 136 368 150 Z M 389 -5 L 389 -5 Z M 489 -73 L 525 -130 C 503 -153 479 -170 454 -182 C 428 -193 400 -199 368 -199 C 332 -199 303 -191 283 -176 C 263 -161 253 -142 253 -120 C 253 -95 264 -72 287 -50 C 309 -28 340 -10 378 6 L 438 6 C 416 -4 400 -16 388 -28 C 376 -40 370 -52 370 -64 C 370 -74 374 -83 383 -89 C 391 -95 402 -99 415 -99 C 430 -99 444 -96 457 -91 C 469 -85 480 -79 489 -73 Z" unicode="ą" />
<glyph horiz-adv-x="720" d="M 43 0 L 43 0 Z M 404 -12 C 353 -12 305 -3 261 14 C 217 31 179 56 147 88 C 115 120 89 160 71 207 C 52 254 43 307 43 365 C 43 419 52 470 70 516 C 88 562 114 602 146 636 C 178 669 217 695 261 714 C 305 732 353 742 405 742 C 471 742 527 732 575 713 C 622 693 662 665 694 627 L 597 527 C 577 549 552 568 522 584 C 491 600 454 608 410 608 C 374 608 343 602 317 590 C 290 578 268 561 250 540 C 232 518 218 493 209 463 C 199 433 195 401 195 367 C 195 323 201 286 213 255 C 225 223 242 197 262 177 C 282 157 306 142 333 132 C 360 122 388 118 417 118 C 462 118 500 127 532 145 C 564 163 590 186 612 215 L 708 132 C 678 90 638 56 587 29 C 535 1 474 -12 404 -12 Z M 407 786 L 407 786 Z M 274 786 L 376 945 L 542 945 L 414 786 L 274 786 Z" unicode="Ć" />
<glyph horiz-adv-x="543" d="M 33 0 L 33 0 Z M 419 180 L 529 114 C 509 80 481 51 444 26 C 406 1 356 -11 294 -11 C 256 -11 221 -5 189 7 C 157 19 129 36 106 58 C 83 80 65 108 52 140 C 39 172 33 209 33 249 C 33 288 39 324 53 356 C 67 388 86 415 110 438 C 134 460 162 478 195 491 C 227 503 262 510 300 510 C 331 510 359 506 385 498 C 410 490 432 480 451 468 C 469 455 485 440 498 424 C 511 407 521 390 528 373 L 407 320 C 397 340 384 357 367 371 C 350 385 327 392 299 392 C 262 392 233 378 211 352 C 189 325 178 291 178 249 C 178 203 189 167 211 143 C 233 119 264 107 302 107 C 334 107 359 114 377 130 C 395 145 409 162 419 180 Z M 291 554 L 291 554 Z M 158 554 L 260 713 L 426 713 L 298 554 L 158 554 Z" unicode="ć" />
<glyph horiz-adv-x="720" d="M 43 0 L 43 0 Z M 404 -12 C 353 -12 305 -3 261 14 C 217 31 179 56 147 88 C 115 120 89 160 71 207 C 52 254 43 307 43 365 C 43 419 52 470 70 516 C 88 562 114 602 146 636 C 178 669 217 695 261 714 C 305 732 353 742 405 742 C 471 742 527 732 575 713 C 622 693 662 665 694 627 L 597 527 C 577 549 552 568 522 584 C 491 600 454 608 410 608 C 374 608 343 602 317 590 C 290 578 268 561 250 540 C 232 518 218 493 209 463 C 199 433 195 401 195 367 C 195 323 201 286 213 255 C 225 223 242 197 262 177 C 282 157 306 142 333 132 C 360 122 388 118 417 118 C 462 118 500 127 532 145 C 564 163 590 186 612 215 L 708 132 C 678 90 638 56 587 29 C 535 1 474 -12 404 -12 Z M 407 783 L 407 783 Z M 601 783 L 473 783 L 407 871 L 339 783 L 213 783 L 336 957 L 478 957 L 601 783 Z" unicode="Ĉ" />
<glyph horiz-adv-x="543" d="M 33 0 L 33 0 Z M 419 180 L 529 114 C 509 80 481 51 444 26 C 406 1 356 -11 294 -11 C 256 -11 221 -5 189 7 C 157 19 129 36 106 58 C 83 80 65 108 52 140 C 39 172 33 209 33 249 C 33 288 39 324 53 356 C 67 388 86 415 110 438 C 134 460 162 478 195 491 C 227 503 262 510 300 510 C 331 510 359 506 385 498 C 410 490 432 480 451 468 C 469 455 485 440 498 424 C 511 407 521 390 528 373 L 407 320 C 397 340 384 357 367 371 C 350 385 327 392 299 392 C 262 392 233 378 211 352 C 189 325 178 291 178 249 C 178 203 189 167 211 143 C 233 119 264 107 302 107 C 334 107 359 114 377 130 C 395 145 409 162 419 180 Z M 291 551 L 291 551 Z M 485 551 L 357 551 L 291 639 L 223 551 L 97 551 L 220 725 L 362 725 L 485 551 Z" unicode="ĉ" />
<glyph horiz-adv-x="720" d="M 43 0 L 43 0 Z M 404 -12 C 353 -12 305 -3 261 14 C 217 31 179 56 147 88 C 115 120 89 160 71 207 C 52 254 43 307 43 365 C 43 419 52 470 70 516 C 88 562 114 602 146 636 C 178 669 217 695 261 714 C 305 732 353 742 405 742 C 471 742 527 732 575 713 C 622 693 662 665 694 627 L 597 527 C 577 549 552 568 522 584 C 491 600 454 608 410 608 C 374 608 343 602 317 590 C 290 578 268 561 250 540 C 232 518 218 493 209 463 C 199 433 195 401 195 367 C 195 323 201 286 213 255 C 225 223 242 197 262 177 C 282 157 306 142 333 132 C 360 122 388 118 417 118 C 462 118 500 127 532 145 C 564 163 590 186 612 215 L 708 132 C 678 90 638 56 587 29 C 535 1 474 -12 404 -12 Z M 407 783 L 407 783 Z M 470 783 L 345 783 L 345 948 L 470 948 L 470 783 Z" unicode="Ċ" />
<glyph horiz-adv-x="543" d="M 33 0 L 33 0 Z M 419 180 L 529 114 C 509 80 481 51 444 26 C 406 1 356 -11 294 -11 C 256 -11 221 -5 189 7 C 157 19 129 36 106 58 C 83 80 65 108 52 140 C 39 172 33 209 33 249 C 33 288 39 324 53 356 C 67 388 86 415 110 438 C 134 460 162 478 195 491 C 227 503 262 510 300 510 C 331 510 359 506 385 498 C 410 490 432 480 451 468 C 469 455 485 440 498 424 C 511 407 521 390 528 373 L 407 320 C 397 340 384 357 367 371 C 350 385 327 392 299 392 C 262 392 233 378 211 352 C 189 325 178 291 178 249 C 178 203 189 167 211 143 C 233 119 264 107 302 107 C 334 107 359 114 377 130 C 395 145 409 162 419 180 Z M 291 551 L 291 551 Z M 354 551 L 229 551 L 229 716 L 354 716 L 354 551 Z" unicode="ċ" />
<glyph horiz-adv-x="720" d="M 43 0 L 43 0 Z M 404 -12 C 353 -12 305 -3 261 14 C 217 31 179 56 147 88 C 115 120 89 160 71 207 C 52 254 43 307 43 365 C 43 419 52 470 70 516 C 88 562 114 602 146 636 C 178 669 217 695 261 714 C 305 732 353 742 405 742 C 471 742 527 732 575 713 C 622 693 662 665 694 627 L 597 527 C 577 549 552 568 522 584 C 491 600 454 608 410 608 C 374 608 343 602 317 590 C 290 578 268 561 250 540 C 232 518 218 493 209 463 C 199 433 195 401 195 367 C 195 323 201 286 213 255 C 225 223 242 197 262 177 C 282 157 306 142 333 132 C 360 122 388 118 417 118 C 462 118 500 127 532 145 C 564 163 590 186 612 215 L 708 132 C 678 90 638 56 587 29 C 535 1 474 -12 404 -12 Z M 407 783 L 407 783 Z M 213 957 L 341 957 L 408 869 L 475 957 L 601 957 L 478 783 L 336 783 L 213 957 Z" unicode="Č" />
<glyph horiz-adv-x="543" d="M 33 0 L 33 0 Z M 419 180 L 529 114 C 509 80 481 51 444 26 C 406 1 356 -11 294 -11 C 256 -11 221 -5 189 7 C 157 19 129 36 106 58 C 83 80 65 108 52 140 C 39 172 33 209 33 249 C 33 288 39 324 53 356 C 67 388 86 415 110 438 C 134 460 162 478 195 491 C 227 503 262 510 300 510 C 331 510 359 506 385 498 C 410 490 432 480 451 468 C 469 455 485 440 498 424 C 511 407 521 390 528 373 L 407 320 C 397 340 384 357 367 371 C 350 385 327 392 299 392 C 262 392 233 378 211 352 C 189 325 178 291 178 249 C 178 203 189 167 211 143 C 233 119 264 107 302 107 C 334 107 359 114 377 130 C 395 145 409 162 419 180 Z M 291 551 L 291 551 Z M 97 725 L 225 725 L 292 637 L 359 725 L 485 725 L 362 551 L 220 551 L 97 725 Z" unicode="č" />
<glyph horiz-adv-x="762" d="M 87 0 L 87 0 Z M 87 0 L 87 730 L 340 730 C 401 730 455 721 503 704 C 550 686 590 662 622 631 C 654 600 678 563 694 519 C 710 475 719 426 719 374 C 719 322 710 273 693 227 C 676 181 651 141 618 108 C 584 74 543 48 493 29 C 443 9 386 0 322 0 L 87 0 Z M 237 120 L 321 120 C 363 120 399 126 430 140 C 460 154 485 172 505 195 C 525 218 539 245 549 275 C 558 305 563 337 563 371 C 563 441 543 499 504 543 C 464 587 408 609 335 609 L 237 609 L 237 120 Z M 365 783 L 365 783 Z M 171 957 L 299 957 L 366 869 L 433 957 L 559 957 L 436 783 L 294 783 L 171 957 Z" unicode="Ď" />
<glyph horiz-adv-x="628" d="M 33 0 L 33 0 Z M 265 -9 C 232 -9 201 -3 173 9 C 144 21 119 38 99 60 C 79 82 63 108 51 140 C 39 171 33 206 33 246 C 33 284 39 319 52 351 C 65 383 83 411 105 435 C 127 458 153 476 182 490 C 211 503 242 510 274 510 C 304 510 333 503 359 489 C 385 475 404 459 416 442 L 416 765 L 550 765 L 550 0 L 423 0 L 423 78 C 419 69 412 59 402 49 C 392 39 381 29 367 21 C 353 12 338 5 321 0 C 303 -6 285 -9 265 -9 Z M 297 101 C 334 101 363 114 385 141 C 406 168 417 205 417 252 C 417 303 405 340 382 362 C 359 384 331 396 297 396 C 259 396 230 383 209 357 C 187 331 177 296 177 250 C 177 206 187 171 208 143 C 228 115 258 101 297 101 Z M 721 605 L 715 443 L 597 443 L 591 605 L 591 730 L 721 730 L 721 605 Z" unicode="ď" />
<glyph horiz-adv-x="753" d="M 35 0 L 35 0 Z M 719 367 C 719 316 710 268 693 224 C 676 179 651 140 618 107 C 584 74 543 48 493 29 C 443 9 386 0 322 0 L 87 0 L 87 301 L 35 301 L 35 412 L 87 412 L 87 730 L 340 730 C 402 730 456 721 504 704 C 551 686 590 662 622 630 C 654 598 678 560 694 516 C 710 471 719 421 719 367 Z M 232 118 L 320 118 C 364 118 401 125 433 139 C 464 153 489 171 509 195 C 528 218 542 244 551 274 C 560 304 565 334 565 365 C 565 439 545 499 506 543 C 467 587 411 610 339 610 L 232 610 L 232 412 L 373 412 L 373 301 L 232 301 L 232 118 Z" unicode="Đ" />
<glyph horiz-adv-x="616" d="M 423 78 C 419 69 412 59 402 49 C 392 39 381 29 367 21 C 353 12 338 5 321 0 C 303 -6 285 -9 265 -9 C 232 -9 201 -3 173 9 C 144 21 119 38 99 60 C 79 82 63 108 51 140 C 39 171 33 206 33 246 C 33 284 39 319 52 351 C 65 383 83 411 105 435 C 127 458 153 476 182 490 C 211 503 242 510 274 510 C 304 510 333 503 359 489 C 385 475 404 459 416 442 L 416 577 L 279 577 L 279 676 L 416 676 L 416 765 L 550 765 L 550 676 L 607 676 L 607 577 L 550 577 L 550 0 L 423 0 L 423 78 Z M 297 101 C 334 101 363 114 385 141 C 406 168 417 205 417 252 C 417 303 405 340 382 362 C 359 384 331 396 297 396 C 259 396 230 383 209 357 C 187 331 177 296 177 250 C 177 206 187 171 208 143 C 228 115 258 101 297 101 Z" unicode="đ" />
<glyph horiz-adv-x="606" d="M 87 0 L 87 0 Z M 559 0 L 87 0 L 87 730 L 540 730 L 540 604 L 234 604 L 234 422 L 520 422 L 520 300 L 234 300 L 234 126 L 559 126 L 559 0 Z M 320 792 L 320 792 Z M 463 792 L 177 792 L 177 898 L 463 898 L 463 792 Z" unicode="Ē" />
<glyph horiz-adv-x="575" d="M 33 0 L 33 0 Z M 302 -11 C 263 -11 227 -5 194 6 C 161 17 133 33 109 55 C 85 77 66 104 53 136 C 39 168 33 204 33 245 C 33 283 39 318 52 350 C 65 382 83 410 107 434 C 131 458 159 476 192 490 C 224 503 260 510 299 510 C 376 510 437 483 483 429 C 528 375 551 302 552 208 L 169 208 C 171 180 183 156 205 134 C 227 112 259 101 303 101 C 339 101 369 106 391 118 C 413 129 430 142 442 156 L 521 75 C 498 50 470 29 438 13 C 405 -2 360 -11 302 -11 Z M 172 302 L 412 302 C 410 328 399 351 378 371 C 356 391 328 401 294 401 C 259 401 231 390 209 370 C 187 350 174 327 172 302 Z M 294 560 L 294 560 Z M 437 560 L 151 560 L 151 666 L 437 666 L 437 560 Z" unicode="ē" />
<glyph horiz-adv-x="606" d="M 87 0 L 87 0 Z M 559 0 L 87 0 L 87 730 L 540 730 L 540 604 L 234 604 L 234 422 L 520 422 L 520 300 L 234 300 L 234 126 L 559 126 L 559 0 Z M 320 783 L 320 783 Z M 379 945 L 494 945 C 489 889 471 848 439 822 C 407 796 367 783 320 783 C 272 783 233 796 201 822 C 169 848 150 889 146 945 L 261 945 C 262 918 267 897 277 883 C 286 869 300 862 320 862 C 339 862 353 869 363 883 C 372 897 377 917 379 945 Z" unicode="Ĕ" />
<glyph horiz-adv-x="575" d="M 33 0 L 33 0 Z M 302 -11 C 263 -11 227 -5 194 6 C 161 17 133 33 109 55 C 85 77 66 104 53 136 C 39 168 33 204 33 245 C 33 283 39 318 52 350 C 65 382 83 410 107 434 C 131 458 159 476 192 490 C 224 503 260 510 299 510 C 376 510 437 483 483 429 C 528 375 551 302 552 208 L 169 208 C 171 180 183 156 205 134 C 227 112 259 101 303 101 C 339 101 369 106 391 118 C 413 129 430 142 442 156 L 521 75 C 498 50 470 29 438 13 C 405 -2 360 -11 302 -11 Z M 172 302 L 412 302 C 410 328 399 351 378 371 C 356 391 328 401 294 401 C 259 401 231 390 209 370 C 187 350 174 327 172 302 Z M 294 551 L 294 551 Z M 353 713 L 468 713 C 463 657 445 616 413 590 C 381 564 341 551 294 551 C 246 551 207 564 175 590 C 143 616 124 657 120 713 L 235 713 C 236 686 241 665 251 651 C 260 637 274 630 294 630 C 313 630 327 637 337 651 C 346 665 351 685 353 713 Z" unicode="ĕ" />
<glyph horiz-adv-x="606" d="M 87 0 L 87 0 Z M 559 0 L 87 0 L 87 730 L 540 730 L 540 604 L 234 604 L 234 422 L 520 422 L 520 300 L 234 300 L 234 126 L 559 126 L 559 0 Z M 320 783 L 320 783 Z M 383 783 L 258 783 L 258 948 L 383 948 L 383 783 Z" unicode="Ė" />
<glyph horiz-adv-x="575" d="M 33 0 L 33 0 Z M 302 -11 C 263 -11 227 -5 194 6 C 161 17 133 33 109 55 C 85 77 66 104 53 136 C 39 168 33 204 33 245 C 33 283 39 318 52 350 C 65 382 83 410 107 434 C 131 458 159 476 192 490 C 224 503 260 510 299 510 C 376 510 437 483 483 429 C 528 375 551 302 552 208 L 169 208 C 171 180 183 156 205 134 C 227 112 259 101 303 101 C 339 101 369 106 391 118 C 413 129 430 142 442 156 L 521 75 C 498 50 470 29 438 13 C 405 -2 360 -11 302 -11 Z M 172 302 L 412 302 C 410 328 399 351 378 371 C 356 391 328 401 294 401 C 259 401 231 390 209 370 C 187 350 174 327 172 302 Z M 294 551 L 294 551 Z M 357 551 L 232 551 L 232 716 L 357 716 L 357 551 Z" unicode="ė" />
<glyph horiz-adv-x="606" d="M 87 0 L 87 0 Z M 559 0 L 87 0 L 87 730 L 540 730 L 540 604 L 234 604 L 234 422 L 520 422 L 520 300 L 234 300 L 234 126 L 559 126 L 559 0 Z M 510 -5 L 510 -5 Z M 610 -73 L 646 -130 C 624 -153 600 -170 575 -182 C 549 -193 521 -199 489 -199 C 453 -199 424 -191 404 -176 C 384 -161 374 -142 374 -120 C 374 -95 385 -72 408 -50 C 430 -28 461 -10 499 6 L 559 6 C 537 -4 521 -16 509 -28 C 497 -40 491 -52 491 -64 C 491 -74 495 -83 504 -89 C 512 -95 523 -99 536 -99 C 551 -99 565 -96 578 -91 C 590 -85 601 -79 610 -73 Z" unicode="Ę" />
<glyph horiz-adv-x="575" d="M 33 0 L 33 0 Z M 302 -11 C 263 -11 227 -5 194 6 C 161 17 133 33 109 55 C 85 77 66 104 53 136 C 39 168 33 204 33 245 C 33 283 39 318 52 350 C 65 382 83 410 107 434 C 131 458 159 476 192 490 C 224 503 260 510 299 510 C 376 510 437 483 483 429 C 528 375 551 302 552 208 L 169 208 C 171 180 183 156 205 134 C 227 112 259 101 303 101 C 339 101 369 106 391 118 C 413 129 430 142 442 156 L 521 75 C 498 50 470 29 438 13 C 405 -2 360 -11 302 -11 Z M 172 302 L 412 302 C 410 328 399 351 378 371 C 356 391 328 401 294 401 C 259 401 231 390 209 370 C 187 350 174 327 172 302 Z M 368 -5 L 368 -5 Z M 468 -73 L 504 -130 C 482 -153 458 -170 433 -182 C 407 -193 379 -199 347 -199 C 311 -199 282 -191 262 -176 C 242 -161 232 -142 232 -120 C 232 -95 243 -72 266 -50 C 288 -28 319 -10 357 6 L 417 6 C 395 -4 379 -16 367 -28 C 355 -40 349 -52 349 -64 C 349 -74 353 -83 362 -89 C 370 -95 381 -99 394 -99 C 409 -99 423 -96 436 -91 C 448 -85 459 -79 468 -73 Z" unicode="ę" />
<glyph horiz-adv-x="606" d="M 87 0 L 87 0 Z M 559 0 L 87 0 L 87 730 L 540 730 L 540 604 L 234 604 L 234 422 L 520 422 L 520 300 L 234 300 L 234 126 L 559 126 L 559 0 Z M 320 783 L 320 783 Z M 126 957 L 254 957 L 321 869 L 388 957 L 514 957 L 391 783 L 249 783 L 126 957 Z" unicode="Ě" />
<glyph horiz-adv-x="575" d="M 33 0 L 33 0 Z M 302 -11 C 263 -11 227 -5 194 6 C 161 17 133 33 109 55 C 85 77 66 104 53 136 C 39 168 33 204 33 245 C 33 283 39 318 52 350 C 65 382 83 410 107 434 C 131 458 159 476 192 490 C 224 503 260 510 299 510 C 376 510 437 483 483 429 C 528 375 551 302 552 208 L 169 208 C 171 180 183 156 205 134 C 227 112 259 101 303 101 C 339 101 369 106 391 118 C 413 129 430 142 442 156 L 521 75 C 498 50 470 29 438 13 C 405 -2 360 -11 302 -11 Z M 172 302 L 412 302 C 410 328 399 351 378 371 C 356 391 328 401 294 401 C 259 401 231 390 209 370 C 187 350 174 327 172 302 Z M 294 551 L 294 551 Z M 100 725 L 228 725 L 295 637 L 362 725 L 488 725 L 365 551 L 223 551 L 100 725 Z" unicode="ě" />
<glyph horiz-adv-x="778" d="M 43 0 L 43 0 Z M 421 387 L 735 387 L 735 150 C 706 103 664 64 610 34 C 555 3 490 -12 415 -12 C 361 -12 311 -3 265 15 C 219 33 179 58 147 91 C 114 123 88 163 70 210 C 52 256 43 308 43 365 C 43 423 52 475 72 522 C 92 569 118 609 152 641 C 186 673 225 698 271 716 C 316 733 364 742 415 742 C 452 742 485 738 515 731 C 544 724 569 715 591 705 C 612 695 630 683 646 671 C 661 658 674 646 684 635 L 590 536 C 574 552 552 568 524 584 C 496 600 459 608 411 608 C 347 608 294 586 254 544 C 213 501 193 442 193 367 C 193 329 198 295 209 263 C 220 231 235 204 255 182 C 275 159 299 141 327 129 C 355 116 387 110 422 110 C 464 110 502 118 534 134 C 566 150 590 171 604 197 L 604 263 L 421 263 L 421 387 Z M 413 783 L 413 783 Z M 607 783 L 479 783 L 413 871 L 345 783 L 219 783 L 342 957 L 484 957 L 607 783 Z" unicode="Ĝ" />
<glyph horiz-adv-x="614" d="M 34 0 L 34 0 Z M 261 8 C 228 8 198 14 170 26 C 142 38 118 54 98 76 C 78 97 62 123 51 153 C 39 183 34 217 34 253 C 34 330 55 392 97 439 C 139 485 195 509 265 509 C 300 509 332 501 361 487 C 390 472 410 454 421 434 L 421 498 L 550 498 L 550 56 C 550 14 542 -22 527 -54 C 511 -86 491 -112 466 -133 C 441 -153 412 -169 379 -179 C 346 -189 312 -194 277 -194 C 215 -194 166 -187 130 -174 C 94 -160 67 -148 51 -136 L 108 -36 C 121 -46 141 -57 169 -69 C 196 -80 227 -86 263 -86 C 305 -86 341 -75 370 -54 C 399 -33 414 -2 414 38 L 414 94 C 405 75 387 56 360 37 C 332 17 299 8 261 8 Z M 299 113 C 331 113 359 125 382 150 C 404 175 416 211 416 257 C 416 297 405 329 385 355 C 365 381 335 394 297 394 C 261 394 232 381 210 356 C 188 330 177 295 177 249 C 177 204 187 170 209 147 C 231 124 261 113 299 113 Z M 286 551 L 286 551 Z M 480 551 L 352 551 L 286 639 L 218 551 L 92 551 L 215 725 L 357 725 L 480 551 Z" unicode="ĝ" />
<glyph horiz-adv-x="778" d="M 43 0 L 43 0 Z M 421 387 L 735 387 L 735 150 C 706 103 664 64 610 34 C 555 3 490 -12 415 -12 C 361 -12 311 -3 265 15 C 219 33 179 58 147 91 C 114 123 88 163 70 210 C 52 256 43 308 43 365 C 43 423 52 475 72 522 C 92 569 118 609 152 641 C 186 673 225 698 271 716 C 316 733 364 742 415 742 C 452 742 485 738 515 731 C 544 724 569 715 591 705 C 612 695 630 683 646 671 C 661 658 674 646 684 635 L 590 536 C 574 552 552 568 524 584 C 496 600 459 608 411 608 C 347 608 294 586 254 544 C 213 501 193 442 193 367 C 193 329 198 295 209 263 C 220 231 235 204 255 182 C 275 159 299 141 327 129 C 355 116 387 110 422 110 C 464 110 502 118 534 134 C 566 150 590 171 604 197 L 604 263 L 421 263 L 421 387 Z M 413 783 L 413 783 Z M 472 945 L 587 945 C 582 889 564 848 532 822 C 500 796 460 783 413 783 C 365 783 326 796 294 822 C 262 848 243 889 239 945 L 354 945 C 355 918 360 897 370 883 C 379 869 393 862 413 862 C 432 862 446 869 456 883 C 465 897 470 917 472 945 Z" unicode="Ğ" />
<glyph horiz-adv-x="614" d="M 34 0 L 34 0 Z M 261 8 C 228 8 198 14 170 26 C 142 38 118 54 98 76 C 78 97 62 123 51 153 C 39 183 34 217 34 253 C 34 330 55 392 97 439 C 139 485 195 509 265 509 C 300 509 332 501 361 487 C 390 472 410 454 421 434 L 421 498 L 550 498 L 550 56 C 550 14 542 -22 527 -54 C 511 -86 491 -112 466 -133 C 441 -153 412 -169 379 -179 C 346 -189 312 -194 277 -194 C 215 -194 166 -187 130 -174 C 94 -160 67 -148 51 -136 L 108 -36 C 121 -46 141 -57 169 -69 C 196 -80 227 -86 263 -86 C 305 -86 341 -75 370 -54 C 399 -33 414 -2 414 38 L 414 94 C 405 75 387 56 360 37 C 332 17 299 8 261 8 Z M 299 113 C 331 113 359 125 382 150 C 404 175 416 211 416 257 C 416 297 405 329 385 355 C 365 381 335 394 297 394 C 261 394 232 381 210 356 C 188 330 177 295 177 249 C 177 204 187 170 209 147 C 231 124 261 113 299 113 Z M 286 551 L 286 551 Z M 345 713 L 460 713 C 455 657 437 616 405 590 C 373 564 333 551 286 551 C 238 551 199 564 167 590 C 135 616 116 657 112 713 L 227 713 C 228 686 233 665 243 651 C 252 637 266 630 286 630 C 305 630 319 637 329 651 C 338 665 343 685 345 713 Z" unicode="ğ" />
<glyph horiz-adv-x="778" d="M 43 0 L 43 0 Z M 421 387 L 735 387 L 735 150 C 706 103 664 64 610 34 C 555 3 490 -12 415 -12 C 361 -12 311 -3 265 15 C 219 33 179 58 147 91 C 114 123 88 163 70 210 C 52 256 43 308 43 365 C 43 423 52 475 72 522 C 92 569 118 609 152 641 C 186 673 225 698 271 716 C 316 733 364 742 415 742 C 452 742 485 738 515 731 C 544 724 569 715 591 705 C 612 695 630 683 646 671 C 661 658 674 646 684 635 L 590 536 C 574 552 552 568 524 584 C 496 600 459 608 411 608 C 347 608 294 586 254 544 C 213 501 193 442 193 367 C 193 329 198 295 209 263 C 220 231 235 204 255 182 C 275 159 299 141 327 129 C 355 116 387 110 422 110 C 464 110 502 118 534 134 C 566 150 590 171 604 197 L 604 263 L 421 263 L 421 387 Z M 413 783 L 413 783 Z M 476 783 L 351 783 L 351 948 L 476 948 L 476 783 Z" unicode="Ġ" />
<glyph horiz-adv-x="614" d="M 34 0 L 34 0 Z M 261 8 C 228 8 198 14 170 26 C 142 38 118 54 98 76 C 78 97 62 123 51 153 C 39 183 34 217 34 253 C 34 330 55 392 97 439 C 139 485 195 509 265 509 C 300 509 332 501 361 487 C 390 472 410 454 421 434 L 421 498 L 550 498 L 550 56 C 550 14 542 -22 527 -54 C 511 -86 491 -112 466 -133 C 441 -153 412 -169 379 -179 C 346 -189 312 -194 277 -194 C 215 -194 166 -187 130 -174 C 94 -160 67 -148 51 -136 L 108 -36 C 121 -46 141 -57 169 -69 C 196 -80 227 -86 263 -86 C 305 -86 341 -75 370 -54 C 399 -33 414 -2 414 38 L 414 94 C 405 75 387 56 360 37 C 332 17 299 8 261 8 Z M 299 113 C 331 113 359 125 382 150 C 404 175 416 211 416 257 C 416 297 405 329 385 355 C 365 381 335 394 297 394 C 261 394 232 381 210 356 C 188 330 177 295 177 249 C 177 204 187 170 209 147 C 231 124 261 113 299 113 Z M 286 551 L 286 551 Z M 349 551 L 224 551 L 224 716 L 349 716 L 349 551 Z" unicode="ġ" />
<glyph horiz-adv-x="778" d="M 43 0 L 43 0 Z M 421 387 L 735 387 L 735 150 C 706 103 664 64 610 34 C 555 3 490 -12 415 -12 C 361 -12 311 -3 265 15 C 219 33 179 58 147 91 C 114 123 88 163 70 210 C 52 256 43 308 43 365 C 43 423 52 475 72 522 C 92 569 118 609 152 641 C 186 673 225 698 271 716 C 316 733 364 742 415 742 C 452 742 485 738 515 731 C 544 724 569 715 591 705 C 612 695 630 683 646 671 C 661 658 674 646 684 635 L 590 536 C 574 552 552 568 524 584 C 496 600 459 608 411 608 C 347 608 294 586 254 544 C 213 501 193 442 193 367 C 193 329 198 295 209 263 C 220 231 235 204 255 182 C 275 159 299 141 327 129 C 355 116 387 110 422 110 C 464 110 502 118 534 134 C 566 150 590 171 604 197 L 604 263 L 421 263 L 421 387 Z" unicode="Ģ" />
<glyph horiz-adv-x="614" d="M 34 0 L 34 0 Z M 261 8 C 228 8 198 14 170 26 C 142 38 118 54 98 76 C 78 97 62 123 51 153 C 39 183 34 217 34 253 C 34 330 55 392 97 439 C 139 485 195 509 265 509 C 300 509 332 501 361 487 C 390 472 410 454 421 434 L 421 498 L 550 498 L 550 56 C 550 14 542 -22 527 -54 C 511 -86 491 -112 466 -133 C 441 -153 412 -169 379 -179 C 346 -189 312 -194 277 -194 C 215 -194 166 -187 130 -174 C 94 -160 67 -148 51 -136 L 108 -36 C 121 -46 141 -57 169 -69 C 196 -80 227 -86 263 -86 C 305 -86 341 -75 370 -54 C 399 -33 414 -2 414 38 L 414 94 C 405 75 387 56 360 37 C 332 17 299 8 261 8 Z M 299 113 C 331 113 359 125 382 150 C 404 175 416 211 416 257 C 416 297 405 329 385 355 C 365 381 335 394 297 394 C 261 394 232 381 210 356 C 188 330 177 295 177 249 C 177 204 187 170 209 147 C 231 124 261 113 299 113 Z" unicode="ģ" />
<glyph horiz-adv-x="778" d="M 87 0 L 87 0 Z M 691 0 L 541 0 L 541 294 L 237 294 L 237 0 L 87 0 L 87 730 L 237 730 L 237 425 L 541 425 L 541 730 L 691 730 L 691 0 Z M 388 783 L 388 783 Z M 582 783 L 454 783 L 388 871 L 320 783 L 194 783 L 317 957 L 459 957 L 582 783 Z" unicode="Ĥ" />
<glyph horiz-adv-x="601" d="M 66 0 L 66 0 Z M 541 0 L 402 0 L 402 319 C 402 341 394 359 378 373 C 362 387 340 394 314 394 C 286 394 261 386 239 370 C 216 354 205 331 205 302 L 205 0 L 66 0 L 66 765 L 194 765 L 194 419 C 204 443 223 465 252 483 C 281 501 319 510 365 510 C 414 510 456 495 490 467 C 524 439 541 401 541 353 L 541 0 Z M 327 818 L 327 818 Z M 521 818 L 393 818 L 327 906 L 259 818 L 133 818 L 256 992 L 398 992 L 521 818 Z" unicode="ĥ" />
<glyph horiz-adv-x="778" d="M 237 294 L 237 0 L 87 0 L 87 536 L 10 536 L 10 634 L 87 634 L 87 730 L 237 730 L 237 634 L 541 634 L 541 730 L 691 730 L 691 634 L 769 634 L 769 536 L 691 536 L 691 0 L 541 0 L 541 294 L 237 294 Z M 237 425 L 541 425 L 541 536 L 237 536 L 237 425 Z" unicode="Ħ" />
<glyph horiz-adv-x="601" d="M 205 302 L 205 0 L 66 0 L 66 578 L 8 578 L 8 676 L 66 676 L 66 765 L 194 765 L 194 676 L 340 676 L 340 578 L 194 578 L 194 419 C 204 443 223 465 252 483 C 281 501 319 510 365 510 C 414 510 456 495 490 467 C 524 439 541 401 541 353 L 541 0 L 402 0 L 402 319 C 402 341 394 359 378 373 C 362 387 340 394 314 394 C 286 394 261 386 239 370 C 216 354 205 331 205 302 Z" unicode="ħ" />
<glyph horiz-adv-x="333" d="M 0 0 L 0 0 Z M 242 0 L 92 0 L 92 730 L 242 730 L 242 0 Z M 166 786 L 166 786 Z M 241 939 L 350 939 C 350 887 341 848 324 823 C 307 798 285 786 259 786 C 240 786 223 788 209 794 C 195 800 182 806 172 813 C 163 818 154 824 145 830 C 136 836 127 839 119 839 C 111 839 104 834 99 825 C 94 816 91 804 91 789 L -16 789 C -16 814 -12 836 -6 856 C 0 875 7 891 17 904 C 27 916 38 926 50 932 C 62 938 74 942 86 942 C 104 942 120 939 132 933 C 144 927 156 920 167 914 C 175 908 183 902 191 897 C 198 892 205 890 212 890 C 219 890 226 894 232 902 C 238 910 241 923 241 939 Z" unicode="Ĩ" />
<glyph horiz-adv-x="281" d="M 0 0 L 0 0 Z M 210 0 L 71 0 L 71 498 L 210 498 L 210 0 Z M 140 554 L 140 554 Z M 215 707 L 324 707 C 324 655 315 616 298 591 C 281 566 259 554 233 554 C 214 554 197 556 183 562 C 169 568 156 574 146 581 C 137 586 128 592 119 598 C 110 604 101 607 93 607 C 85 607 78 602 73 593 C 68 584 65 572 65 557 L -42 557 C -42 582 -38 604 -32 624 C -26 643 -18 659 -8 672 C 1 684 12 694 24 700 C 36 706 48 710 60 710 C 78 710 94 707 106 701 C 118 695 130 688 141 682 C 149 676 157 670 165 665 C 172 660 179 658 186 658 C 193 658 200 662 206 670 C 212 678 215 691 215 707 Z" unicode="ĩ" />
<glyph horiz-adv-x="333" d="M 23 0 L 23 0 Z M 242 0 L 92 0 L 92 730 L 242 730 L 242 0 Z M 166 792 L 166 792 Z M 309 792 L 23 792 L 23 898 L 309 898 L 309 792 Z" unicode="Ī" />
<glyph horiz-adv-x="281" d="M 0 0 L 0 0 Z M 210 0 L 71 0 L 71 498 L 210 498 L 210 0 Z M 140 560 L 140 560 Z M 283 560 L -3 560 L -3 666 L 283 666 L 283 560 Z" unicode="ī" />
<glyph horiz-adv-x="333" d="M 0 0 L 0 0 Z M 242 0 L 92 0 L 92 730 L 242 730 L 242 0 Z M 166 783 L 166 783 Z M 225 945 L 340 945 C 335 889 317 848 285 822 C 253 796 213 783 166 783 C 118 783 79 796 47 822 C 15 848 -3 889 -8 945 L 107 945 C 108 918 113 897 123 883 C 132 869 146 862 166 862 C 185 862 199 869 209 883 C 218 897 223 917 225 945 Z" unicode="Ĭ" />
<glyph horiz-adv-x="281" d="M 0 0 L 0 0 Z M 210 0 L 71 0 L 71 498 L 210 498 L 210 0 Z M 140 551 L 140 551 Z M 199 713 L 314 713 C 309 657 291 616 259 590 C 227 564 187 551 140 551 C 92 551 53 564 21 590 C -11 616 -29 657 -34 713 L 81 713 C 82 686 87 665 97 651 C 106 637 120 630 140 630 C 159 630 173 637 183 651 C 192 665 197 685 199 713 Z" unicode="ĭ" />
<glyph horiz-adv-x="333" d="M 0 0 L 0 0 Z M 242 0 L 92 0 L 92 730 L 242 730 L 242 0 Z M 113 -6 L 113 -6 Z M 213 -74 L 249 -131 C 227 -154 203 -171 178 -183 C 152 -194 124 -200 92 -200 C 56 -200 27 -192 7 -177 C -12 -162 -23 -143 -23 -121 C -23 -96 -11 -73 11 -51 C 33 -29 64 -11 102 5 L 162 5 C 140 -5 124 -17 112 -29 C 100 -41 94 -53 94 -65 C 94 -75 98 -84 107 -90 C 115 -96 126 -100 139 -100 C 154 -100 168 -97 181 -92 C 193 -86 204 -80 213 -74 Z" unicode="Į" />
<glyph horiz-adv-x="281" d="M 0 0 L 0 0 Z M 69 579 L 69 714 L 212 714 L 212 579 L 69 579 Z M 71 0 L 71 498 L 210 498 L 210 0 L 71 0 Z M 96 -5 L 96 -5 Z M 196 -73 L 232 -130 C 210 -153 186 -170 161 -182 C 135 -193 107 -199 75 -199 C 39 -199 10 -191 -9 -176 C -29 -161 -40 -142 -40 -120 C -40 -95 -28 -72 -6 -50 C 16 -28 47 -10 85 6 L 145 6 C 123 -4 107 -16 95 -28 C 83 -40 77 -52 77 -64 C 77 -74 81 -83 90 -89 C 98 -95 109 -99 122 -99 C 137 -99 151 -96 164 -91 C 176 -85 187 -79 196 -73 Z" unicode="į" />
<glyph horiz-adv-x="333" d="M 92 0 L 92 0 Z M 242 0 L 92 0 L 92 730 L 242 730 L 242 0 Z M 166 783 L 166 783 Z M 229 783 L 104 783 L 104 948 L 229 948 L 229 783 Z" unicode="İ" />
<glyph horiz-adv-x="281" d="M 210 0 L 71 0 L 71 498 L 210 498 L 210 0 Z" unicode="ı" />
<glyph horiz-adv-x="685" d="M 92 0 L 92 0 Z M 242 0 L 92 0 L 92 730 L 242 730 L 242 0 Z M 603 730 L 603 203 C 603 173 598 144 588 118 C 578 92 564 69 546 50 C 527 31 504 16 477 5 C 449 -6 418 -12 383 -12 C 362 -12 340 -10 318 -7 C 296 -4 279 0 267 7 L 295 128 C 301 125 312 123 328 121 C 343 119 356 118 367 118 C 397 118 420 126 436 143 C 452 159 460 179 460 202 L 460 730 L 603 730 Z" unicode="Ĳ" />
<glyph horiz-adv-x="529" d="M 69 0 L 69 0 Z M 69 579 L 69 714 L 212 714 L 212 579 L 69 579 Z M 71 0 L 71 498 L 210 498 L 210 0 L 71 0 Z M 473 579 L 330 579 L 330 714 L 473 714 L 473 579 Z M 471 498 L 471 -25 C 471 -77 455 -119 425 -153 C 394 -186 351 -202 297 -202 C 279 -202 258 -200 235 -197 C 211 -193 192 -188 177 -182 L 192 -75 C 200 -79 210 -82 224 -85 C 237 -87 251 -89 266 -89 C 286 -89 302 -81 314 -65 C 326 -49 332 -29 332 -5 L 332 498 L 471 498 Z" unicode="ĳ" />
<glyph horiz-adv-x="422" d="M 9 0 L 9 0 Z M 345 730 L 345 203 C 345 173 340 144 330 118 C 320 92 306 69 288 50 C 269 31 246 16 219 5 C 191 -6 160 -12 125 -12 C 104 -12 82 -10 60 -7 C 38 -4 21 0 9 7 L 37 128 C 43 125 54 123 70 121 C 85 119 98 118 109 118 C 139 118 162 126 178 143 C 194 159 202 179 202 202 L 202 730 L 345 730 Z M 266 783 L 266 783 Z M 460 783 L 332 783 L 266 871 L 198 783 L 72 783 L 195 957 L 337 957 L 460 783 Z" unicode="Ĵ" />
<glyph horiz-adv-x="289" d="M 0 0 L 0 0 Z M 227 498 L 227 -25 C 227 -77 211 -119 181 -153 C 150 -186 107 -202 53 -202 C 35 -202 14 -200 -9 -197 C -33 -193 -52 -188 -67 -182 L -52 -75 C -44 -79 -33 -82 -20 -85 C -6 -87 7 -89 22 -89 C 42 -89 58 -81 70 -65 C 82 -49 88 -29 88 -5 L 88 498 L 227 498 Z M 155 551 L 155 551 Z M 349 551 L 221 551 L 155 639 L 87 551 L -39 551 L 84 725 L 226 725 L 349 551 Z" unicode="ĵ" />
<glyph horiz-adv-x="711" d="M 87 0 L 87 0 Z M 716 0 L 525 0 L 298 293 L 236 218 L 236 0 L 87 0 L 87 730 L 236 730 L 236 393 L 509 730 L 681 730 L 402 397 L 716 0 Z M 360 -64 L 360 -64 Z M 473 -64 C 471 -93 466 -123 458 -154 C 450 -184 440 -213 428 -239 C 416 -265 404 -288 390 -308 C 376 -328 364 -342 352 -350 L 248 -303 C 256 -295 264 -282 273 -265 C 281 -247 290 -228 298 -206 C 306 -184 313 -161 319 -136 C 325 -111 329 -87 331 -64 L 473 -64 Z" unicode="Ķ" />
<glyph horiz-adv-x="571" d="M 66 0 L 66 0 Z M 599 1 L 436 0 L 272 202 L 203 131 L 203 0 L 66 0 L 66 765 L 201 765 L 201 269 L 407 498 L 559 498 L 364 288 L 599 1 Z M 290 -64 L 290 -64 Z M 403 -64 C 401 -93 396 -123 388 -154 C 380 -184 370 -213 358 -239 C 346 -265 334 -288 320 -308 C 306 -328 294 -342 282 -350 L 178 -303 C 186 -295 194 -282 203 -265 C 211 -247 220 -228 228 -206 C 236 -184 243 -161 249 -136 C 255 -111 259 -87 261 -64 L 403 -64 Z" unicode="ķ" />
<glyph horiz-adv-x="571" d="M 599 1 L 436 0 L 272 202 L 203 131 L 203 0 L 66 0 L 66 498 L 201 498 L 201 269 L 407 498 L 559 498 L 364 288 L 599 1 Z" unicode="ĸ" />
<glyph horiz-adv-x="539" d="M 87 0 L 87 0 Z M 529 0 L 87 0 L 87 730 L 237 730 L 237 127 L 529 127 L 529 0 Z M 334 786 L 334 786 Z M 201 786 L 303 945 L 469 945 L 341 786 L 201 786 Z" unicode="Ĺ" />
<glyph horiz-adv-x="271" d="M 66 0 L 66 0 Z M 201 821 L 201 821 Z M 68 821 L 170 980 L 336 980 L 208 821 L 68 821 Z M 205 765 L 205 0 L 66 0 L 66 765 L 205 765 Z" unicode="ĺ" />
<glyph horiz-adv-x="539" d="M 87 0 L 87 0 Z M 529 0 L 87 0 L 87 730 L 237 730 L 237 127 L 529 127 L 529 0 Z M 292 -64 L 292 -64 Z M 405 -64 C 403 -93 398 -123 390 -154 C 382 -184 372 -213 360 -239 C 348 -265 336 -288 322 -308 C 308 -328 296 -342 284 -350 L 180 -303 C 188 -295 196 -282 205 -265 C 213 -247 222 -228 230 -206 C 238 -184 245 -161 251 -136 C 257 -111 261 -87 263 -64 L 405 -64 Z" unicode="Ļ" />
<glyph horiz-adv-x="271" d="M 0 0 L 0 0 Z M 205 765 L 205 0 L 66 0 L 66 765 L 205 765 Z M 105 -64 L 105 -64 Z M 218 -64 C 216 -93 211 -123 203 -154 C 195 -184 185 -213 173 -239 C 161 -265 149 -288 135 -308 C 121 -328 109 -342 97 -350 L -7 -303 C 1 -295 9 -282 18 -265 C 26 -247 35 -228 43 -206 C 51 -184 58 -161 64 -136 C 70 -111 74 -87 76 -64 L 218 -64 Z" unicode="ļ" />
<glyph horiz-adv-x="539" d="M 87 0 L 87 0 Z M 529 0 L 87 0 L 87 730 L 237 730 L 237 127 L 529 127 L 529 0 Z M 541 605 L 535 443 L 417 443 L 411 605 L 411 730 L 541 730 L 541 605 Z" unicode="Ľ" />
<glyph horiz-adv-x="271" d="M 66 0 L 66 0 Z M 377 605 L 371 443 L 253 443 L 247 605 L 247 730 L 377 730 L 377 605 Z M 205 765 L 205 0 L 66 0 L 66 765 L 205 765 Z" unicode="ľ" />
<glyph horiz-adv-x="539" d="M 87 0 L 87 0 Z M 529 0 L 87 0 L 87 730 L 237 730 L 237 127 L 529 127 L 529 0 Z M 397 280 L 397 280 Z M 460 280 L 335 280 L 335 445 L 460 445 L 460 280 Z" unicode="Ŀ" />
<glyph horiz-adv-x="271" d="M 66 0 L 66 0 Z M 205 765 L 205 0 L 66 0 L 66 765 L 205 765 Z M 316 201 L 316 201 Z M 379 201 L 254 201 L 254 366 L 379 366 L 379 201 Z" unicode="ŀ" />
<glyph horiz-adv-x="539" d="M 517 125 L 517 0 L 87 0 L 87 254 L 40 235 L -8 337 L 87 376 L 87 730 L 237 730 L 237 438 L 388 501 L 434 398 L 237 317 L 237 125 L 517 125 Z" unicode="Ł" />
<glyph horiz-adv-x="271" d="M 293 361 L 208 320 L 208 0 L 69 0 L 69 252 L 21 229 L -16 316 L 69 357 L 69 765 L 208 765 L 208 425 L 255 448 L 293 361 Z" unicode="ł" />
<glyph horiz-adv-x="783" d="M 87 0 L 87 0 Z M 696 0 L 593 0 L 227 468 L 227 0 L 87 0 L 87 730 L 200 730 L 557 270 L 557 730 L 696 730 L 696 0 Z M 392 786 L 392 786 Z M 259 786 L 361 945 L 527 945 L 399 786 L 259 786 Z" unicode="Ń" />
<glyph horiz-adv-x="601" d="M 66 0 L 66 0 Z M 541 0 L 401 0 L 401 319 C 401 342 393 360 377 374 C 361 387 340 394 314 394 C 286 394 260 385 238 369 C 216 353 205 329 205 297 L 205 0 L 66 0 L 66 498 L 193 498 L 193 416 C 204 443 225 465 256 483 C 287 501 323 510 363 510 C 414 510 456 495 490 466 C 524 437 541 400 541 354 L 541 0 Z M 314 554 L 314 554 Z M 181 554 L 283 713 L 449 713 L 321 554 L 181 554 Z" unicode="ń" />
<glyph horiz-adv-x="783" d="M 87 0 L 87 0 Z M 696 0 L 593 0 L 227 468 L 227 0 L 87 0 L 87 730 L 200 730 L 557 270 L 557 730 L 696 730 L 696 0 Z M 376 -64 L 376 -64 Z M 489 -64 C 487 -93 482 -123 474 -154 C 466 -184 456 -213 444 -239 C 432 -265 420 -288 406 -308 C 392 -328 380 -342 368 -350 L 264 -303 C 272 -295 280 -282 289 -265 C 297 -247 306 -228 314 -206 C 322 -184 329 -161 335 -136 C 341 -111 345 -87 347 -64 L 489 -64 Z" unicode="Ņ" />
<glyph horiz-adv-x="601" d="M 66 0 L 66 0 Z M 541 0 L 401 0 L 401 319 C 401 342 393 360 377 374 C 361 387 340 394 314 394 C 286 394 260 385 238 369 C 216 353 205 329 205 297 L 205 0 L 66 0 L 66 498 L 193 498 L 193 416 C 204 443 225 465 256 483 C 287 501 323 510 363 510 C 414 510 456 495 490 466 C 524 437 541 400 541 354 L 541 0 Z M 280 -64 L 280 -64 Z M 393 -64 C 391 -93 386 -123 378 -154 C 370 -184 360 -213 348 -239 C 336 -265 324 -288 310 -308 C 296 -328 284 -342 272 -350 L 168 -303 C 176 -295 184 -282 193 -265 C 201 -247 210 -228 218 -206 C 226 -184 233 -161 239 -136 C 245 -111 249 -87 251 -64 L 393 -64 Z" unicode="ņ" />
<glyph horiz-adv-x="783" d="M 87 0 L 87 0 Z M 696 0 L 593 0 L 227 468 L 227 0 L 87 0 L 87 730 L 200 730 L 557 270 L 557 730 L 696 730 L 696 0 Z M 392 783 L 392 783 Z M 198 957 L 326 957 L 393 869 L 460 957 L 586 957 L 463 783 L 321 783 L 198 957 Z" unicode="Ň" />
<glyph horiz-adv-x="601" d="M 66 0 L 66 0 Z M 541 0 L 401 0 L 401 319 C 401 342 393 360 377 374 C 361 387 340 394 314 394 C 286 394 260 385 238 369 C 216 353 205 329 205 297 L 205 0 L 66 0 L 66 498 L 193 498 L 193 416 C 204 443 225 465 256 483 C 287 501 323 510 363 510 C 414 510 456 495 490 466 C 524 437 541 400 541 354 L 541 0 Z M 314 551 L 314 551 Z M 120 725 L 248 725 L 315 637 L 382 725 L 508 725 L 385 551 L 243 551 L 120 725 Z" unicode="ň" />
<glyph horiz-adv-x="786" d="M 557 730 L 696 730 L 696 0 L 696 0 C 693 -60 673 -108 637 -145 C 601 -182 552 -201 492 -201 C 468 -201 444 -199 421 -195 C 398 -191 380 -186 366 -178 L 391 -58 C 399 -62 412 -65 430 -68 C 448 -70 463 -72 477 -72 C 501 -72 521 -63 535 -47 C 549 -30 556 -10 556 14 L 556 47 L 227 468 L 227 0 L 87 0 L 87 730 L 200 730 L 556 271 L 556 458 L 557 458 L 557 730 Z" unicode="Ŋ" />
<glyph horiz-adv-x="601" d="M 363 510 C 414 510 456 495 490 466 C 524 437 541 400 541 354 L 541 -25 C 541 -77 525 -119 494 -153 C 463 -186 421 -202 367 -202 C 349 -202 328 -200 304 -197 C 280 -193 261 -188 246 -182 L 262 -75 C 270 -79 280 -82 294 -85 C 307 -87 321 -89 336 -89 C 356 -89 372 -81 384 -65 C 395 -49 401 -29 401 -5 L 401 319 C 401 342 393 360 377 374 C 361 387 340 394 314 394 C 286 394 260 385 238 369 C 216 353 205 329 205 297 L 205 0 L 66 0 L 66 498 L 193 498 L 193 416 C 204 443 225 465 256 483 C 287 501 323 510 363 510 Z" unicode="ŋ" />
<glyph horiz-adv-x="833" d="M 43 0 L 43 0 Z M 420 -12 C 362 -12 310 -2 264 16 C 217 35 177 62 145 96 C 112 130 87 170 69 217 C 51 264 43 315 43 370 C 43 423 52 472 72 518 C 91 564 117 603 150 636 C 183 669 222 695 268 714 C 313 732 361 742 412 742 C 466 742 517 733 564 715 C 610 697 650 671 684 639 C 717 607 743 568 762 522 C 781 476 791 425 791 369 C 791 311 781 259 761 212 C 741 164 714 124 680 91 C 646 58 606 33 561 15 C 516 -3 469 -12 420 -12 Z M 422 118 C 452 118 481 123 508 134 C 534 144 557 160 577 181 C 596 202 611 228 622 260 C 633 291 639 327 639 367 C 639 403 633 437 621 467 C 609 497 594 522 574 543 C 554 563 530 579 502 591 C 474 602 444 608 412 608 C 381 608 352 602 326 592 C 299 582 276 567 256 547 C 236 527 221 503 210 473 C 199 443 194 408 194 370 C 194 330 199 294 211 262 C 223 230 239 204 259 183 C 279 161 304 145 332 134 C 360 123 390 118 422 118 Z M 414 792 L 414 792 Z M 557 792 L 271 792 L 271 898 L 557 898 L 557 792 Z" unicode="Ō" />
<glyph horiz-adv-x="607" d="M 33 0 L 33 0 Z M 300 -11 C 266 -11 234 -5 202 6 C 170 17 141 33 116 55 C 91 77 71 104 56 136 C 40 168 33 206 33 248 C 33 286 40 321 55 353 C 69 385 89 412 114 436 C 138 459 167 477 199 490 C 231 503 265 510 299 510 C 335 510 370 504 404 493 C 438 481 467 465 492 444 C 517 423 537 397 552 366 C 566 335 574 300 574 262 C 574 220 566 183 552 149 C 537 115 517 87 492 63 C 467 39 438 21 405 8 C 371 -4 336 -11 300 -11 Z M 303 106 C 341 106 372 119 395 146 C 418 172 430 209 430 256 C 430 298 418 331 394 355 C 370 379 338 392 298 392 C 262 392 233 379 211 353 C 189 327 178 292 178 248 C 178 200 189 164 213 141 C 237 117 267 106 303 106 Z M 300 560 L 300 560 Z M 443 560 L 157 560 L 157 666 L 443 666 L 443 560 Z" unicode="ō" />
<glyph horiz-adv-x="833" d="M 43 0 L 43 0 Z M 420 -12 C 362 -12 310 -2 264 16 C 217 35 177 62 145 96 C 112 130 87 170 69 217 C 51 264 43 315 43 370 C 43 423 52 472 72 518 C 91 564 117 603 150 636 C 183 669 222 695 268 714 C 313 732 361 742 412 742 C 466 742 517 733 564 715 C 610 697 650 671 684 639 C 717 607 743 568 762 522 C 781 476 791 425 791 369 C 791 311 781 259 761 212 C 741 164 714 124 680 91 C 646 58 606 33 561 15 C 516 -3 469 -12 420 -12 Z M 422 118 C 452 118 481 123 508 134 C 534 144 557 160 577 181 C 596 202 611 228 622 260 C 633 291 639 327 639 367 C 639 403 633 437 621 467 C 609 497 594 522 574 543 C 554 563 530 579 502 591 C 474 602 444 608 412 608 C 381 608 352 602 326 592 C 299 582 276 567 256 547 C 236 527 221 503 210 473 C 199 443 194 408 194 370 C 194 330 199 294 211 262 C 223 230 239 204 259 183 C 279 161 304 145 332 134 C 360 123 390 118 422 118 Z M 414 783 L 414 783 Z M 473 945 L 588 945 C 583 889 565 848 533 822 C 501 796 461 783 414 783 C 366 783 327 796 295 822 C 263 848 244 889 240 945 L 355 945 C 356 918 361 897 371 883 C 380 869 394 862 414 862 C 433 862 447 869 457 883 C 466 897 471 917 473 945 Z" unicode="Ŏ" />
<glyph horiz-adv-x="607" d="M 33 0 L 33 0 Z M 300 -11 C 266 -11 234 -5 202 6 C 170 17 141 33 116 55 C 91 77 71 104 56 136 C 40 168 33 206 33 248 C 33 286 40 321 55 353 C 69 385 89 412 114 436 C 138 459 167 477 199 490 C 231 503 265 510 299 510 C 335 510 370 504 404 493 C 438 481 467 465 492 444 C 517 423 537 397 552 366 C 566 335 574 300 574 262 C 574 220 566 183 552 149 C 537 115 517 87 492 63 C 467 39 438 21 405 8 C 371 -4 336 -11 300 -11 Z M 303 106 C 341 106 372 119 395 146 C 418 172 430 209 430 256 C 430 298 418 331 394 355 C 370 379 338 392 298 392 C 262 392 233 379 211 353 C 189 327 178 292 178 248 C 178 200 189 164 213 141 C 237 117 267 106 303 106 Z M 300 551 L 300 551 Z M 359 713 L 474 713 C 469 657 451 616 419 590 C 387 564 347 551 300 551 C 252 551 213 564 181 590 C 149 616 130 657 126 713 L 241 713 C 242 686 247 665 257 651 C 266 637 280 630 300 630 C 319 630 333 637 343 651 C 352 665 357 685 359 713 Z" unicode="ŏ" />
<glyph horiz-adv-x="833" d="M 43 0 L 43 0 Z M 420 -12 C 362 -12 310 -2 264 16 C 217 35 177 62 145 96 C 112 130 87 170 69 217 C 51 264 43 315 43 370 C 43 423 52 472 72 518 C 91 564 117 603 150 636 C 183 669 222 695 268 714 C 313 732 361 742 412 742 C 466 742 517 733 564 715 C 610 697 650 671 684 639 C 717 607 743 568 762 522 C 781 476 791 425 791 369 C 791 311 781 259 761 212 C 741 164 714 124 680 91 C 646 58 606 33 561 15 C 516 -3 469 -12 420 -12 Z M 422 118 C 452 118 481 123 508 134 C 534 144 557 160 577 181 C 596 202 611 228 622 260 C 633 291 639 327 639 367 C 639 403 633 437 621 467 C 609 497 594 522 574 543 C 554 563 530 579 502 591 C 474 602 444 608 412 608 C 381 608 352 602 326 592 C 299 582 276 567 256 547 C 236 527 221 503 210 473 C 199 443 194 408 194 370 C 194 330 199 294 211 262 C 223 230 239 204 259 183 C 279 161 304 145 332 134 C 360 123 390 118 422 118 Z M 414 782 L 414 782 Z M 187 782 L 283 935 L 429 935 L 308 782 L 187 782 Z M 399 782 L 496 935 L 642 935 L 520 782 L 399 782 Z" unicode="Ő" />
<glyph horiz-adv-x="607" d="M 33 0 L 33 0 Z M 300 -11 C 266 -11 234 -5 202 6 C 170 17 141 33 116 55 C 91 77 71 104 56 136 C 40 168 33 206 33 248 C 33 286 40 321 55 353 C 69 385 89 412 114 436 C 138 459 167 477 199 490 C 231 503 265 510 299 510 C 335 510 370 504 404 493 C 438 481 467 465 492 444 C 517 423 537 397 552 366 C 566 335 574 300 574 262 C 574 220 566 183 552 149 C 537 115 517 87 492 63 C 467 39 438 21 405 8 C 371 -4 336 -11 300 -11 Z M 303 106 C 341 106 372 119 395 146 C 418 172 430 209 430 256 C 430 298 418 331 394 355 C 370 379 338 392 298 392 C 262 392 233 379 211 353 C 189 327 178 292 178 248 C 178 200 189 164 213 141 C 237 117 267 106 303 106 Z M 300 550 L 300 550 Z M 73 550 L 169 703 L 315 703 L 194 550 L 73 550 Z M 285 550 L 382 703 L 528 703 L 406 550 L 285 550 Z" unicode="ő" />
<glyph horiz-adv-x="1151" d="M 401 -12 C 346 -12 296 -2 252 16 C 208 35 170 61 139 95 C 108 129 84 169 68 216 C 51 262 43 313 43 369 C 43 421 52 470 72 516 C 91 562 117 601 150 635 C 183 668 222 694 268 713 C 313 732 361 742 412 742 C 432 742 454 739 477 734 C 500 728 522 721 543 712 C 564 702 583 691 600 678 C 616 665 629 651 638 637 L 638 730 L 1084 730 L 1084 604 L 777 604 L 777 422 L 1065 422 L 1065 300 L 777 300 L 777 126 L 1104 126 L 1104 0 L 638 0 L 638 110 C 620 76 590 48 548 24 C 505 0 456 -12 401 -12 Z M 418 114 C 449 114 478 119 505 129 C 531 139 554 155 574 176 C 593 197 608 224 619 256 C 630 288 636 325 636 368 C 636 409 629 445 616 476 C 603 506 586 532 566 552 C 545 572 522 588 496 598 C 470 608 443 613 417 613 C 386 613 357 607 330 597 C 303 587 280 571 260 551 C 240 531 225 505 214 474 C 202 443 197 407 197 366 C 197 323 202 286 214 254 C 225 222 240 196 260 176 C 280 155 303 139 330 129 C 357 119 386 114 418 114 Z" unicode="Œ" />
<glyph horiz-adv-x="970" d="M 297 -11 C 263 -11 230 -5 198 6 C 166 18 137 35 113 57 C 89 79 69 106 55 138 C 40 170 33 206 33 248 C 33 285 40 320 55 352 C 69 384 89 412 113 435 C 137 458 166 476 198 490 C 230 503 263 510 298 510 C 326 510 352 507 374 501 C 396 495 416 487 432 477 C 448 467 462 457 474 445 C 485 433 494 422 500 411 C 504 421 512 431 524 443 C 536 455 550 466 567 476 C 583 486 602 494 624 500 C 645 506 668 510 693 510 C 773 510 835 482 879 428 C 923 373 946 300 947 209 L 565 209 C 565 181 578 156 602 134 C 626 112 660 101 702 101 C 736 101 764 106 786 118 C 807 129 824 142 837 156 L 916 75 C 893 50 866 29 834 13 C 802 -2 757 -11 699 -11 C 649 -11 605 0 568 21 C 531 43 507 65 495 88 C 489 77 480 66 468 54 C 456 42 442 32 426 22 C 409 12 390 4 368 -1 C 346 -7 322 -11 297 -11 Z M 568 302 L 807 302 C 805 330 793 353 772 372 C 751 391 723 401 689 401 C 655 401 627 391 605 371 C 583 351 571 328 568 302 Z M 305 106 C 343 106 373 119 396 145 C 418 171 430 208 430 258 C 430 298 418 331 394 355 C 370 379 339 392 300 392 C 262 392 233 379 211 353 C 189 327 178 292 178 246 C 178 200 189 165 213 141 C 237 117 267 106 305 106 Z" unicode="œ" />
<glyph horiz-adv-x="659" d="M 87 0 L 87 0 Z M 87 0 L 87 730 L 349 730 C 379 730 408 725 436 716 C 463 707 487 694 508 677 C 528 660 545 639 557 613 C 569 587 576 558 576 525 C 576 493 571 466 562 442 C 553 418 541 397 527 381 C 513 364 496 351 478 341 C 460 331 441 325 423 323 L 422 318 L 653 0 L 479 0 L 287 277 L 236 277 L 236 0 L 87 0 Z M 234 398 L 319 398 C 347 398 372 407 392 425 C 412 443 423 471 423 507 C 423 540 412 565 392 583 C 372 601 348 610 321 610 L 234 610 L 234 398 Z M 326 786 L 326 786 Z M 193 786 L 295 945 L 461 945 L 333 786 L 193 786 Z" unicode="Ŕ" />
<glyph horiz-adv-x="455" d="M 66 0 L 66 0 Z M 459 479 L 396 356 C 382 368 367 377 352 382 C 336 387 321 390 307 390 C 282 390 259 380 237 362 C 215 344 205 319 205 289 L 205 0 L 66 0 L 66 498 L 194 498 L 194 413 C 198 423 204 434 213 446 C 222 458 233 468 247 478 C 261 487 277 495 295 501 C 313 507 332 510 354 510 C 376 510 397 507 415 502 C 433 496 447 489 459 479 Z M 267 554 L 267 554 Z M 134 554 L 236 713 L 402 713 L 274 554 L 134 554 Z" unicode="ŕ" />
<glyph horiz-adv-x="659" d="M 87 0 L 87 0 Z M 87 0 L 87 730 L 349 730 C 379 730 408 725 436 716 C 463 707 487 694 508 677 C 528 660 545 639 557 613 C 569 587 576 558 576 525 C 576 493 571 466 562 442 C 553 418 541 397 527 381 C 513 364 496 351 478 341 C 460 331 441 325 423 323 L 422 318 L 653 0 L 479 0 L 287 277 L 236 277 L 236 0 L 87 0 Z M 234 398 L 319 398 C 347 398 372 407 392 425 C 412 443 423 471 423 507 C 423 540 412 565 392 583 C 372 601 348 610 321 610 L 234 610 L 234 398 Z M 327 -64 L 327 -64 Z M 440 -64 C 438 -93 433 -123 425 -154 C 417 -184 407 -213 395 -239 C 383 -265 371 -288 357 -308 C 343 -328 331 -342 319 -350 L 215 -303 C 223 -295 231 -282 240 -265 C 248 -247 257 -228 265 -206 C 273 -184 280 -161 286 -136 C 292 -111 296 -87 298 -64 L 440 -64 Z" unicode="Ŗ" />
<glyph horiz-adv-x="455" d="M 66 0 L 66 0 Z M 459 479 L 396 356 C 382 368 367 377 352 382 C 336 387 321 390 307 390 C 282 390 259 380 237 362 C 215 344 205 319 205 289 L 205 0 L 66 0 L 66 498 L 194 498 L 194 413 C 198 423 204 434 213 446 C 222 458 233 468 247 478 C 261 487 277 495 295 501 C 313 507 332 510 354 510 C 376 510 397 507 415 502 C 433 496 447 489 459 479 Z M 242 -64 L 242 -64 Z M 355 -64 C 353 -93 348 -123 340 -154 C 332 -184 322 -213 310 -239 C 298 -265 286 -288 272 -308 C 258 -328 246 -342 234 -350 L 130 -303 C 138 -295 146 -282 155 -265 C 163 -247 172 -228 180 -206 C 188 -184 195 -161 201 -136 C 207 -111 211 -87 213 -64 L 355 -64 Z" unicode="ŗ" />
<glyph horiz-adv-x="659" d="M 87 0 L 87 0 Z M 87 0 L 87 730 L 349 730 C 379 730 408 725 436 716 C 463 707 487 694 508 677 C 528 660 545 639 557 613 C 569 587 576 558 576 525 C 576 493 571 466 562 442 C 553 418 541 397 527 381 C 513 364 496 351 478 341 C 460 331 441 325 423 323 L 422 318 L 653 0 L 479 0 L 287 277 L 236 277 L 236 0 L 87 0 Z M 234 398 L 319 398 C 347 398 372 407 392 425 C 412 443 423 471 423 507 C 423 540 412 565 392 583 C 372 601 348 610 321 610 L 234 610 L 234 398 Z M 326 783 L 326 783 Z M 132 957 L 260 957 L 327 869 L 394 957 L 520 957 L 397 783 L 255 783 L 132 957 Z" unicode="Ř" />
<glyph horiz-adv-x="455" d="M 66 0 L 66 0 Z M 459 479 L 396 356 C 382 368 367 377 352 382 C 336 387 321 390 307 390 C 282 390 259 380 237 362 C 215 344 205 319 205 289 L 205 0 L 66 0 L 66 498 L 194 498 L 194 413 C 198 423 204 434 213 446 C 222 458 233 468 247 478 C 261 487 277 495 295 501 C 313 507 332 510 354 510 C 376 510 397 507 415 502 C 433 496 447 489 459 479 Z M 267 551 L 267 551 Z M 73 725 L 201 725 L 268 637 L 335 725 L 461 725 L 338 551 L 196 551 L 73 725 Z" unicode="ř" />
<glyph horiz-adv-x="573" d="M 24 0 L 24 0 Z M 293 -12 C 233 -12 181 -4 136 12 C 90 28 53 50 24 78 L 108 191 C 126 170 152 152 185 136 C 218 120 254 112 292 112 C 320 112 344 119 363 133 C 381 147 391 165 391 189 C 391 213 381 233 361 250 C 341 266 310 283 268 301 C 234 314 204 328 177 343 C 149 357 126 374 108 393 C 89 411 75 433 65 458 C 55 482 50 512 50 546 C 50 604 71 651 115 687 C 158 723 215 742 286 742 C 336 742 379 734 416 720 C 452 705 484 688 510 668 L 440 553 C 417 570 393 584 368 596 C 342 608 316 614 288 614 C 259 614 236 607 220 594 C 203 581 195 565 195 545 C 195 521 205 501 227 485 C 249 469 287 450 342 428 C 408 400 458 369 490 336 C 522 302 538 256 538 198 C 538 164 531 134 518 108 C 504 82 486 60 464 42 C 442 24 416 11 386 2 C 356 -7 325 -12 293 -12 Z M 286 786 L 286 786 Z M 153 786 L 255 945 L 421 945 L 293 786 L 153 786 Z" unicode="Ś" />
<glyph horiz-adv-x="474" d="M 28 0 L 28 0 Z M 255 -12 C 207 -12 163 -6 125 5 C 86 17 54 32 28 51 L 89 144 C 111 129 137 117 168 108 C 198 99 226 95 252 95 C 270 95 285 99 297 108 C 308 116 314 127 314 140 C 314 153 305 164 289 173 C 272 182 245 192 209 202 C 157 215 116 234 88 260 C 59 286 45 320 45 362 C 45 406 63 441 100 469 C 137 496 184 510 241 510 C 287 510 328 503 362 491 C 396 479 421 467 437 455 L 386 358 C 365 370 343 381 320 390 C 296 399 272 404 248 404 C 229 404 213 401 199 395 C 185 389 179 379 179 367 C 179 354 184 344 196 337 C 208 330 236 320 280 308 C 332 293 372 274 402 251 C 432 227 447 193 447 149 C 447 99 428 60 392 31 C 356 2 310 -12 255 -12 Z M 245 554 L 245 554 Z M 112 554 L 214 713 L 380 713 L 252 554 L 112 554 Z" unicode="ś" />
<glyph horiz-adv-x="573" d="M 24 0 L 24 0 Z M 293 -12 C 233 -12 181 -4 136 12 C 90 28 53 50 24 78 L 108 191 C 126 170 152 152 185 136 C 218 120 254 112 292 112 C 320 112 344 119 363 133 C 381 147 391 165 391 189 C 391 213 381 233 361 250 C 341 266 310 283 268 301 C 234 314 204 328 177 343 C 149 357 126 374 108 393 C 89 411 75 433 65 458 C 55 482 50 512 50 546 C 50 604 71 651 115 687 C 158 723 215 742 286 742 C 336 742 379 734 416 720 C 452 705 484 688 510 668 L 440 553 C 417 570 393 584 368 596 C 342 608 316 614 288 614 C 259 614 236 607 220 594 C 203 581 195 565 195 545 C 195 521 205 501 227 485 C 249 469 287 450 342 428 C 408 400 458 369 490 336 C 522 302 538 256 538 198 C 538 164 531 134 518 108 C 504 82 486 60 464 42 C 442 24 416 11 386 2 C 356 -7 325 -12 293 -12 Z M 286 783 L 286 783 Z M 480 783 L 352 783 L 286 871 L 218 783 L 92 783 L 215 957 L 357 957 L 480 783 Z" unicode="Ŝ" />
<glyph horiz-adv-x="474" d="M 28 0 L 28 0 Z M 255 -12 C 207 -12 163 -6 125 5 C 86 17 54 32 28 51 L 89 144 C 111 129 137 117 168 108 C 198 99 226 95 252 95 C 270 95 285 99 297 108 C 308 116 314 127 314 140 C 314 153 305 164 289 173 C 272 182 245 192 209 202 C 157 215 116 234 88 260 C 59 286 45 320 45 362 C 45 406 63 441 100 469 C 137 496 184 510 241 510 C 287 510 328 503 362 491 C 396 479 421 467 437 455 L 386 358 C 365 370 343 381 320 390 C 296 399 272 404 248 404 C 229 404 213 401 199 395 C 185 389 179 379 179 367 C 179 354 184 344 196 337 C 208 330 236 320 280 308 C 332 293 372 274 402 251 C 432 227 447 193 447 149 C 447 99 428 60 392 31 C 356 2 310 -12 255 -12 Z M 245 551 L 245 551 Z M 439 551 L 311 551 L 245 639 L 177 551 L 51 551 L 174 725 L 316 725 L 439 551 Z" unicode="ŝ" />
<glyph horiz-adv-x="573" d="M 24 0 L 24 0 Z M 293 -12 C 233 -12 181 -4 136 12 C 90 28 53 50 24 78 L 108 191 C 126 170 152 152 185 136 C 218 120 254 112 292 112 C 320 112 344 119 363 133 C 381 147 391 165 391 189 C 391 213 381 233 361 250 C 341 266 310 283 268 301 C 234 314 204 328 177 343 C 149 357 126 374 108 393 C 89 411 75 433 65 458 C 55 482 50 512 50 546 C 50 604 71 651 115 687 C 158 723 215 742 286 742 C 336 742 379 734 416 720 C 452 705 484 688 510 668 L 440 553 C 417 570 393 584 368 596 C 342 608 316 614 288 614 C 259 614 236 607 220 594 C 203 581 195 565 195 545 C 195 521 205 501 227 485 C 249 469 287 450 342 428 C 408 400 458 369 490 336 C 522 302 538 256 538 198 C 538 164 531 134 518 108 C 504 82 486 60 464 42 C 442 24 416 11 386 2 C 356 -7 325 -12 293 -12 Z M 276 -3 L 276 -3 Z M 285 -196 C 258 -196 231 -193 204 -187 C 176 -181 156 -173 142 -164 L 158 -104 C 166 -108 178 -112 193 -116 C 207 -120 222 -123 238 -123 C 248 -123 257 -120 265 -116 C 273 -112 277 -106 277 -98 C 277 -89 273 -83 266 -79 C 259 -75 252 -74 244 -74 C 238 -74 232 -74 228 -75 C 223 -76 218 -77 214 -79 L 196 -60 L 258 11 L 342 11 L 295 -46 C 328 -42 355 -46 377 -60 C 398 -74 409 -93 409 -118 C 409 -144 396 -164 371 -177 C 345 -189 317 -196 285 -196 Z" unicode="Ş" />
<glyph horiz-adv-x="474" d="M 28 0 L 28 0 Z M 255 -12 C 207 -12 163 -6 125 5 C 86 17 54 32 28 51 L 89 144 C 111 129 137 117 168 108 C 198 99 226 95 252 95 C 270 95 285 99 297 108 C 308 116 314 127 314 140 C 314 153 305 164 289 173 C 272 182 245 192 209 202 C 157 215 116 234 88 260 C 59 286 45 320 45 362 C 45 406 63 441 100 469 C 137 496 184 510 241 510 C 287 510 328 503 362 491 C 396 479 421 467 437 455 L 386 358 C 365 370 343 381 320 390 C 296 399 272 404 248 404 C 229 404 213 401 199 395 C 185 389 179 379 179 367 C 179 354 184 344 196 337 C 208 330 236 320 280 308 C 332 293 372 274 402 251 C 432 227 447 193 447 149 C 447 99 428 60 392 31 C 356 2 310 -12 255 -12 Z M 233 0 L 233 0 Z M 242 -193 C 215 -193 188 -190 161 -184 C 133 -178 113 -170 99 -161 L 115 -101 C 123 -105 135 -109 150 -113 C 164 -117 179 -120 195 -120 C 205 -120 214 -117 222 -113 C 230 -109 234 -103 234 -95 C 234 -86 230 -80 223 -76 C 216 -72 209 -71 201 -71 C 195 -71 189 -71 185 -72 C 180 -73 175 -74 171 -76 L 153 -57 L 215 14 L 299 14 L 252 -43 C 285 -39 312 -43 334 -57 C 355 -71 366 -90 366 -115 C 366 -141 353 -161 328 -174 C 302 -186 274 -193 242 -193 Z" unicode="ş" />
<glyph horiz-adv-x="573" d="M 24 0 L 24 0 Z M 293 -12 C 233 -12 181 -4 136 12 C 90 28 53 50 24 78 L 108 191 C 126 170 152 152 185 136 C 218 120 254 112 292 112 C 320 112 344 119 363 133 C 381 147 391 165 391 189 C 391 213 381 233 361 250 C 341 266 310 283 268 301 C 234 314 204 328 177 343 C 149 357 126 374 108 393 C 89 411 75 433 65 458 C 55 482 50 512 50 546 C 50 604 71 651 115 687 C 158 723 215 742 286 742 C 336 742 379 734 416 720 C 452 705 484 688 510 668 L 440 553 C 417 570 393 584 368 596 C 342 608 316 614 288 614 C 259 614 236 607 220 594 C 203 581 195 565 195 545 C 195 521 205 501 227 485 C 249 469 287 450 342 428 C 408 400 458 369 490 336 C 522 302 538 256 538 198 C 538 164 531 134 518 108 C 504 82 486 60 464 42 C 442 24 416 11 386 2 C 356 -7 325 -12 293 -12 Z M 286 783 L 286 783 Z M 92 957 L 220 957 L 287 869 L 354 957 L 480 957 L 357 783 L 215 783 L 92 957 Z" unicode="Š" />
<glyph horiz-adv-x="474" d="M 28 0 L 28 0 Z M 255 -12 C 207 -12 163 -6 125 5 C 86 17 54 32 28 51 L 89 144 C 111 129 137 117 168 108 C 198 99 226 95 252 95 C 270 95 285 99 297 108 C 308 116 314 127 314 140 C 314 153 305 164 289 173 C 272 182 245 192 209 202 C 157 215 116 234 88 260 C 59 286 45 320 45 362 C 45 406 63 441 100 469 C 137 496 184 510 241 510 C 287 510 328 503 362 491 C 396 479 421 467 437 455 L 386 358 C 365 370 343 381 320 390 C 296 399 272 404 248 404 C 229 404 213 401 199 395 C 185 389 179 379 179 367 C 179 354 184 344 196 337 C 208 330 236 320 280 308 C 332 293 372 274 402 251 C 432 227 447 193 447 149 C 447 99 428 60 392 31 C 356 2 310 -12 255 -12 Z M 245 551 L 245 551 Z M 51 725 L 179 725 L 246 637 L 313 725 L 439 725 L 316 551 L 174 551 L 51 725 Z" unicode="š" />
<glyph horiz-adv-x="576" d="M 10 0 L 10 0 Z M 566 602 L 360 602 L 360 0 L 210 0 L 210 602 L 10 602 L 10 730 L 566 730 L 566 602 Z M 287 783 L 287 783 Z M 93 957 L 221 957 L 288 869 L 355 957 L 481 957 L 358 783 L 216 783 L 93 957 Z" unicode="Ť" />
<glyph horiz-adv-x="350" d="M 8 0 L 8 0 Z M 331 124 L 342 10 C 334 4 321 0 304 -2 C 287 -4 270 -6 253 -6 C 229 -6 207 -2 185 3 C 163 9 143 19 127 33 C 110 46 97 63 87 85 C 77 106 72 132 72 163 L 72 382 L 8 382 L 8 498 L 72 498 L 72 621 L 211 637 L 211 498 L 325 498 L 325 382 L 211 382 L 211 184 C 211 159 216 141 227 130 C 238 119 255 114 278 114 C 288 114 299 115 309 117 C 319 119 327 122 331 124 Z M 457 605 L 451 443 L 333 443 L 327 605 L 327 730 L 457 730 L 457 605 Z" unicode="ť" />
<glyph horiz-adv-x="576" d="M 495 401 L 360 401 L 360 0 L 210 0 L 210 401 L 77 401 L 77 499 L 210 499 L 210 602 L 10 602 L 10 730 L 566 730 L 566 602 L 360 602 L 360 499 L 495 499 L 495 401 Z" unicode="Ŧ" />
<glyph horiz-adv-x="350" d="M 342 10 C 334 4 321 0 304 -2 C 287 -4 270 -6 253 -6 C 229 -6 207 -2 185 3 C 163 9 143 19 127 33 C 110 46 97 63 87 85 C 77 106 72 132 72 163 L 72 240 L 17 240 L 17 330 L 72 330 L 72 382 L 8 382 L 8 498 L 72 498 L 72 621 L 211 637 L 211 498 L 325 498 L 325 382 L 211 382 L 211 330 L 305 330 L 305 240 L 211 240 L 211 184 C 211 159 216 141 227 130 C 238 119 255 114 278 114 C 288 114 299 115 309 117 C 319 119 327 122 331 124 L 342 10 Z" unicode="ŧ" />
<glyph horiz-adv-x="764" d="M 82 0 L 82 0 Z M 683 730 L 683 266 C 683 222 675 183 659 149 C 643 114 621 85 594 61 C 566 37 534 19 498 7 C 461 -5 422 -12 381 -12 C 341 -12 302 -6 266 6 C 229 18 197 35 170 59 C 143 83 122 112 106 147 C 90 181 82 221 82 266 L 82 730 L 228 730 L 228 265 C 228 221 242 185 272 159 C 301 132 337 119 380 119 C 424 119 461 131 491 157 C 521 183 536 219 536 265 L 536 730 L 683 730 Z M 382 786 L 382 786 Z M 457 939 L 566 939 C 566 887 557 848 540 823 C 523 798 501 786 475 786 C 456 786 439 788 425 794 C 411 800 398 806 388 813 C 379 818 370 824 361 830 C 352 836 343 839 335 839 C 327 839 320 834 315 825 C 310 816 307 804 307 789 L 200 789 C 200 814 203 836 209 856 C 215 875 223 891 233 904 C 243 916 254 926 266 932 C 278 938 290 942 302 942 C 320 942 336 939 348 933 C 360 927 372 920 383 914 C 391 908 399 902 407 897 C 414 892 421 890 428 890 C 435 890 442 894 448 902 C 454 910 457 923 457 939 Z" unicode="Ũ" />
<glyph horiz-adv-x="601" d="M 60 0 L 60 0 Z M 60 498 L 199 498 L 199 189 C 199 160 207 139 225 125 C 242 111 265 104 294 104 C 324 104 348 112 367 129 C 386 146 396 169 396 198 L 396 498 L 535 498 L 535 0 L 406 0 L 406 82 C 393 55 372 33 342 16 C 312 -1 277 -10 237 -10 C 212 -10 189 -6 168 1 C 146 8 128 18 112 32 C 96 46 83 63 74 84 C 64 104 60 128 60 154 L 60 498 Z M 298 554 L 298 554 Z M 373 707 L 482 707 C 482 655 473 616 456 591 C 439 566 417 554 391 554 C 372 554 355 556 341 562 C 327 568 314 574 304 581 C 295 586 286 592 277 598 C 268 604 259 607 251 607 C 243 607 236 602 231 593 C 226 584 223 572 223 557 L 116 557 C 116 582 119 604 125 624 C 131 643 139 659 149 672 C 159 684 170 694 182 700 C 194 706 206 710 218 710 C 236 710 252 707 264 701 C 276 695 288 688 299 682 C 307 676 315 670 323 665 C 330 660 337 658 344 658 C 351 658 358 662 364 670 C 370 678 373 691 373 707 Z" unicode="ũ" />
<glyph horiz-adv-x="764" d="M 82 0 L 82 0 Z M 683 730 L 683 266 C 683 222 675 183 659 149 C 643 114 621 85 594 61 C 566 37 534 19 498 7 C 461 -5 422 -12 381 -12 C 341 -12 302 -6 266 6 C 229 18 197 35 170 59 C 143 83 122 112 106 147 C 90 181 82 221 82 266 L 82 730 L 228 730 L 228 265 C 228 221 242 185 272 159 C 301 132 337 119 380 119 C 424 119 461 131 491 157 C 521 183 536 219 536 265 L 536 730 L 683 730 Z M 382 792 L 382 792 Z M 525 792 L 239 792 L 239 898 L 525 898 L 525 792 Z" unicode="Ū" />
<glyph horiz-adv-x="601" d="M 60 0 L 60 0 Z M 60 498 L 199 498 L 199 189 C 199 160 207 139 225 125 C 242 111 265 104 294 104 C 324 104 348 112 367 129 C 386 146 396 169 396 198 L 396 498 L 535 498 L 535 0 L 406 0 L 406 82 C 393 55 372 33 342 16 C 312 -1 277 -10 237 -10 C 212 -10 189 -6 168 1 C 146 8 128 18 112 32 C 96 46 83 63 74 84 C 64 104 60 128 60 154 L 60 498 Z M 298 560 L 298 560 Z M 441 560 L 155 560 L 155 666 L 441 666 L 441 560 Z" unicode="ū" />
<glyph horiz-adv-x="764" d="M 82 0 L 82 0 Z M 683 730 L 683 266 C 683 222 675 183 659 149 C 643 114 621 85 594 61 C 566 37 534 19 498 7 C 461 -5 422 -12 381 -12 C 341 -12 302 -6 266 6 C 229 18 197 35 170 59 C 143 83 122 112 106 147 C 90 181 82 221 82 266 L 82 730 L 228 730 L 228 265 C 228 221 242 185 272 159 C 301 132 337 119 380 119 C 424 119 461 131 491 157 C 521 183 536 219 536 265 L 536 730 L 683 730 Z M 382 783 L 382 783 Z M 441 945 L 556 945 C 551 889 533 848 501 822 C 469 796 429 783 382 783 C 334 783 295 796 263 822 C 231 848 212 889 208 945 L 323 945 C 324 918 329 897 339 883 C 348 869 362 862 382 862 C 401 862 415 869 425 883 C 434 897 439 917 441 945 Z" unicode="Ŭ" />
<glyph horiz-adv-x="601" d="M 60 0 L 60 0 Z M 60 498 L 199 498 L 199 189 C 199 160 207 139 225 125 C 242 111 265 104 294 104 C 324 104 348 112 367 129 C 386 146 396 169 396 198 L 396 498 L 535 498 L 535 0 L 406 0 L 406 82 C 393 55 372 33 342 16 C 312 -1 277 -10 237 -10 C 212 -10 189 -6 168 1 C 146 8 128 18 112 32 C 96 46 83 63 74 84 C 64 104 60 128 60 154 L 60 498 Z M 298 551 L 298 551 Z M 357 713 L 472 713 C 467 657 449 616 417 590 C 385 564 345 551 298 551 C 250 551 211 564 179 590 C 147 616 128 657 124 713 L 239 713 C 240 686 245 665 255 651 C 264 637 278 630 298 630 C 317 630 331 637 341 651 C 350 665 355 685 357 713 Z" unicode="ŭ" />
<glyph horiz-adv-x="764" d="M 82 0 L 82 0 Z M 683 730 L 683 266 C 683 222 675 183 659 149 C 643 114 621 85 594 61 C 566 37 534 19 498 7 C 461 -5 422 -12 381 -12 C 341 -12 302 -6 266 6 C 229 18 197 35 170 59 C 143 83 122 112 106 147 C 90 181 82 221 82 266 L 82 730 L 228 730 L 228 265 C 228 221 242 185 272 159 C 301 132 337 119 380 119 C 424 119 461 131 491 157 C 521 183 536 219 536 265 L 536 730 L 683 730 Z M 382 779 L 382 779 Z M 382 779 C 348 779 319 791 295 815 C 271 839 259 868 259 902 C 259 936 271 964 295 988 C 319 1012 348 1024 382 1024 C 416 1024 445 1012 469 988 C 493 964 505 936 505 902 C 505 868 493 839 469 815 C 445 791 416 779 382 779 Z M 382 853 C 395 853 406 857 415 867 C 424 876 429 888 429 902 C 429 915 424 926 415 936 C 406 945 395 950 382 950 C 368 950 357 945 348 936 C 338 926 334 915 334 902 C 334 888 338 876 348 867 C 357 857 368 853 382 853 Z" unicode="Ů" />
<glyph horiz-adv-x="601" d="M 60 0 L 60 0 Z M 60 498 L 199 498 L 199 189 C 199 160 207 139 225 125 C 242 111 265 104 294 104 C 324 104 348 112 367 129 C 386 146 396 169 396 198 L 396 498 L 535 498 L 535 0 L 406 0 L 406 82 C 393 55 372 33 342 16 C 312 -1 277 -10 237 -10 C 212 -10 189 -6 168 1 C 146 8 128 18 112 32 C 96 46 83 63 74 84 C 64 104 60 128 60 154 L 60 498 Z M 298 547 L 298 547 Z M 298 547 C 264 547 235 559 211 583 C 187 607 175 636 175 670 C 175 704 187 732 211 756 C 235 780 264 792 298 792 C 332 792 361 780 385 756 C 409 732 421 704 421 670 C 421 636 409 607 385 583 C 361 559 332 547 298 547 Z M 298 621 C 311 621 322 625 331 635 C 340 644 345 656 345 670 C 345 683 340 694 331 704 C 322 713 311 718 298 718 C 284 718 273 713 264 704 C 254 694 250 683 250 670 C 250 656 254 644 264 635 C 273 625 284 621 298 621 Z" unicode="ů" />
<glyph horiz-adv-x="764" d="M 82 0 L 82 0 Z M 683 730 L 683 266 C 683 222 675 183 659 149 C 643 114 621 85 594 61 C 566 37 534 19 498 7 C 461 -5 422 -12 381 -12 C 341 -12 302 -6 266 6 C 229 18 197 35 170 59 C 143 83 122 112 106 147 C 90 181 82 221 82 266 L 82 730 L 228 730 L 228 265 C 228 221 242 185 272 159 C 301 132 337 119 380 119 C 424 119 461 131 491 157 C 521 183 536 219 536 265 L 536 730 L 683 730 Z M 382 782 L 382 782 Z M 155 782 L 251 935 L 397 935 L 276 782 L 155 782 Z M 367 782 L 464 935 L 610 935 L 488 782 L 367 782 Z" unicode="Ű" />
<glyph horiz-adv-x="601" d="M 60 0 L 60 0 Z M 60 498 L 199 498 L 199 189 C 199 160 207 139 225 125 C 242 111 265 104 294 104 C 324 104 348 112 367 129 C 386 146 396 169 396 198 L 396 498 L 535 498 L 535 0 L 406 0 L 406 82 C 393 55 372 33 342 16 C 312 -1 277 -10 237 -10 C 212 -10 189 -6 168 1 C 146 8 128 18 112 32 C 96 46 83 63 74 84 C 64 104 60 128 60 154 L 60 498 Z M 298 550 L 298 550 Z M 71 550 L 167 703 L 313 703 L 192 550 L 71 550 Z M 283 550 L 380 703 L 526 703 L 404 550 L 283 550 Z" unicode="ű" />
<glyph horiz-adv-x="764" d="M 82 0 L 82 0 Z M 683 730 L 683 266 C 683 222 675 183 659 149 C 643 114 621 85 594 61 C 566 37 534 19 498 7 C 461 -5 422 -12 381 -12 C 341 -12 302 -6 266 6 C 229 18 197 35 170 59 C 143 83 122 112 106 147 C 90 181 82 221 82 266 L 82 730 L 228 730 L 228 265 C 228 221 242 185 272 159 C 301 132 337 119 380 119 C 424 119 461 131 491 157 C 521 183 536 219 536 265 L 536 730 L 683 730 Z M 442 -5 L 442 -5 Z M 542 -73 L 578 -130 C 556 -153 532 -170 507 -182 C 481 -193 453 -199 421 -199 C 385 -199 356 -191 336 -176 C 316 -161 306 -142 306 -120 C 306 -95 317 -72 340 -50 C 362 -28 393 -10 431 6 L 491 6 C 469 -4 453 -16 441 -28 C 429 -40 423 -52 423 -64 C 423 -74 427 -83 436 -89 C 444 -95 455 -99 468 -99 C 483 -99 497 -96 510 -91 C 522 -85 533 -79 542 -73 Z" unicode="Ų" />
<glyph horiz-adv-x="601" d="M 60 0 L 60 0 Z M 60 498 L 199 498 L 199 189 C 199 160 207 139 225 125 C 242 111 265 104 294 104 C 324 104 348 112 367 129 C 386 146 396 169 396 198 L 396 498 L 535 498 L 535 0 L 406 0 L 406 82 C 393 55 372 33 342 16 C 312 -1 277 -10 237 -10 C 212 -10 189 -6 168 1 C 146 8 128 18 112 32 C 96 46 83 63 74 84 C 64 104 60 128 60 154 L 60 498 Z M 432 -5 L 432 -5 Z M 532 -73 L 568 -130 C 546 -153 522 -170 497 -182 C 471 -193 443 -199 411 -199 C 375 -199 346 -191 326 -176 C 306 -161 296 -142 296 -120 C 296 -95 307 -72 330 -50 C 352 -28 383 -10 421 6 L 481 6 C 459 -4 443 -16 431 -28 C 419 -40 413 -52 413 -64 C 413 -74 417 -83 426 -89 C 434 -95 445 -99 458 -99 C 473 -99 487 -96 500 -91 C 512 -85 523 -79 532 -73 Z" unicode="ų" />
<glyph horiz-adv-x="941" d="M 3 0 L 3 0 Z M 938 730 L 707 -5 L 629 -5 L 472 478 L 307 -5 L 229 -5 L 3 730 L 155 730 L 290 277 L 439 730 L 517 730 L 667 276 L 800 730 L 938 730 Z M 475 783 L 475 783 Z M 669 783 L 541 783 L 475 871 L 407 783 L 281 783 L 404 957 L 546 957 L 669 783 Z" unicode="Ŵ" />
<glyph horiz-adv-x="746" d="M 1 0 L 1 0 Z M 489 -3 L 377 281 L 258 -3 L 181 -3 L 1 498 L 143 498 L 240 200 L 346 469 L 425 469 L 524 202 L 621 498 L 745 498 L 565 -3 L 489 -3 Z M 382 551 L 382 551 Z M 576 551 L 448 551 L 382 639 L 314 551 L 188 551 L 311 725 L 453 725 L 576 551 Z" unicode="ŵ" />
<glyph horiz-adv-x="668" d="M 0 0 L 0 0 Z M 689 730 L 414 306 L 414 0 L 264 0 L 264 312 L -4 730 L 164 730 L 347 444 L 531 730 L 689 730 Z M 346 783 L 346 783 Z M 540 783 L 412 783 L 346 871 L 278 783 L 152 783 L 275 957 L 417 957 L 540 783 Z" unicode="Ŷ" />
<glyph horiz-adv-x="549" d="M 0 0 L 0 0 Z M 554 498 L 276 -76 C 252 -125 222 -158 186 -175 C 150 -191 117 -200 85 -200 C 65 -200 49 -198 36 -194 C 22 -190 13 -186 7 -184 L 45 -69 C 47 -71 53 -73 62 -75 C 71 -77 80 -79 89 -79 C 105 -79 120 -74 132 -65 C 144 -55 156 -40 168 -18 L 205 53 L -5 498 L 145 498 L 277 198 L 412 498 L 554 498 Z M 276 551 L 276 551 Z M 470 551 L 342 551 L 276 639 L 208 551 L 82 551 L 205 725 L 347 725 L 470 551 Z" unicode="ŷ" />
<glyph horiz-adv-x="685" d="M 0 0 L 0 0 Z M 689 730 L 414 306 L 414 0 L 264 0 L 264 312 L -4 730 L 164 730 L 347 444 L 531 730 L 689 730 Z M 346 783 L 346 783 Z M 504 783 L 387 783 L 387 945 L 504 945 L 504 783 Z M 305 783 L 188 783 L 188 945 L 305 945 L 305 783 Z" unicode="Ÿ" />
<glyph horiz-adv-x="596" d="M 17 0 L 17 0 Z M 573 730 L 573 672 L 217 126 L 583 126 L 583 0 L 17 0 L 17 55 L 367 603 L 36 603 L 36 730 L 573 730 Z M 302 786 L 302 786 Z M 169 786 L 271 945 L 437 945 L 309 786 L 169 786 Z" unicode="Ź" />
<glyph horiz-adv-x="459" d="M 13 0 L 13 0 Z M 438 498 L 438 435 L 211 117 L 449 117 L 449 0 L 13 0 L 13 52 L 246 381 L 22 381 L 22 498 L 438 498 Z M 234 554 L 234 554 Z M 101 554 L 203 713 L 369 713 L 241 554 L 101 554 Z" unicode="ź" />
<glyph horiz-adv-x="596" d="M 17 0 L 17 0 Z M 573 730 L 573 672 L 217 126 L 583 126 L 583 0 L 17 0 L 17 55 L 367 603 L 36 603 L 36 730 L 573 730 Z M 302 783 L 302 783 Z M 365 783 L 240 783 L 240 948 L 365 948 L 365 783 Z" unicode="Ż" />
<glyph horiz-adv-x="459" d="M 13 0 L 13 0 Z M 438 498 L 438 435 L 211 117 L 449 117 L 449 0 L 13 0 L 13 52 L 246 381 L 22 381 L 22 498 L 438 498 Z M 234 551 L 234 551 Z M 297 551 L 172 551 L 172 716 L 297 716 L 297 551 Z" unicode="ż" />
<glyph horiz-adv-x="609" d="M 17 0 L 17 0 Z M 573 730 L 573 672 L 217 126 L 583 126 L 583 0 L 17 0 L 17 55 L 367 603 L 36 603 L 36 730 L 573 730 Z M 302 783 L 302 783 Z M 108 957 L 236 957 L 303 869 L 370 957 L 496 957 L 373 783 L 231 783 L 108 957 Z" unicode="Ž" />
<glyph horiz-adv-x="459" d="M 13 0 L 13 0 Z M 438 498 L 438 435 L 211 117 L 449 117 L 449 0 L 13 0 L 13 52 L 246 381 L 22 381 L 22 498 L 438 498 Z" unicode="ž" />
<glyph horiz-adv-x="388" d="M 213 -47 C 211 -63 207 -78 200 -94 C 193 -110 184 -124 172 -137 C 160 -149 147 -159 131 -167 C 115 -175 97 -179 77 -179 C 54 -179 33 -177 13 -173 C -7 -169 -22 -164 -33 -159 L -20 -61 C -15 -61 -8 -63 1 -65 C 11 -67 20 -68 29 -68 C 47 -68 62 -62 74 -50 C 85 -38 92 -20 95 3 L 123 318 L 31 318 L 31 426 L 132 426 L 149 615 C 151 636 156 655 166 671 C 175 687 186 701 200 712 C 214 723 229 731 245 737 C 261 742 276 745 291 745 C 306 745 322 744 339 743 C 355 742 365 741 368 741 L 359 622 C 357 622 353 623 347 624 C 341 624 335 625 329 625 C 310 625 295 618 283 606 C 271 593 265 573 263 547 L 253 426 L 353 426 L 353 318 L 244 318 L 213 -47 Z" unicode="ƒ" />
<glyph horiz-adv-x="573" d="M 24 0 L 24 0 Z M 293 -12 C 233 -12 181 -4 136 12 C 90 28 53 50 24 78 L 108 191 C 126 170 152 152 185 136 C 218 120 254 112 292 112 C 320 112 344 119 363 133 C 381 147 391 165 391 189 C 391 213 381 233 361 250 C 341 266 310 283 268 301 C 234 314 204 328 177 343 C 149 357 126 374 108 393 C 89 411 75 433 65 458 C 55 482 50 512 50 546 C 50 604 71 651 115 687 C 158 723 215 742 286 742 C 336 742 379 734 416 720 C 452 705 484 688 510 668 L 440 553 C 417 570 393 584 368 596 C 342 608 316 614 288 614 C 259 614 236 607 220 594 C 203 581 195 565 195 545 C 195 521 205 501 227 485 C 249 469 287 450 342 428 C 408 400 458 369 490 336 C 522 302 538 256 538 198 C 538 164 531 134 518 108 C 504 82 486 60 464 42 C 442 24 416 11 386 2 C 356 -7 325 -12 293 -12 Z M 276 -67 L 276 -67 Z M 389 -67 C 387 -96 382 -126 374 -157 C 366 -187 356 -216 344 -242 C 332 -268 320 -291 306 -311 C 292 -331 280 -345 268 -353 L 164 -306 C 172 -298 180 -285 189 -268 C 197 -250 206 -231 214 -209 C 222 -187 229 -164 235 -139 C 241 -114 245 -90 247 -67 L 389 -67 Z" unicode="Ș" />
<glyph horiz-adv-x="474" d="M 28 0 L 28 0 Z M 255 -12 C 207 -12 163 -6 125 5 C 86 17 54 32 28 51 L 89 144 C 111 129 137 117 168 108 C 198 99 226 95 252 95 C 270 95 285 99 297 108 C 308 116 314 127 314 140 C 314 153 305 164 289 173 C 272 182 245 192 209 202 C 157 215 116 234 88 260 C 59 286 45 320 45 362 C 45 406 63 441 100 469 C 137 496 184 510 241 510 C 287 510 328 503 362 491 C 396 479 421 467 437 455 L 386 358 C 365 370 343 381 320 390 C 296 399 272 404 248 404 C 229 404 213 401 199 395 C 185 389 179 379 179 367 C 179 354 184 344 196 337 C 208 330 236 320 280 308 C 332 293 372 274 402 251 C 432 227 447 193 447 149 C 447 99 428 60 392 31 C 356 2 310 -12 255 -12 Z M 233 -64 L 233 -64 Z M 346 -64 C 344 -93 339 -123 331 -154 C 323 -184 313 -213 301 -239 C 289 -265 277 -288 263 -308 C 249 -328 237 -342 225 -350 L 121 -303 C 129 -295 137 -282 146 -265 C 154 -247 163 -228 171 -206 C 179 -184 186 -161 192 -136 C 198 -111 202 -87 204 -64 L 346 -64 Z" unicode="ș" />
<glyph horiz-adv-x="576" d="M 10 0 L 10 0 Z M 566 602 L 360 602 L 360 0 L 210 0 L 210 602 L 10 602 L 10 730 L 566 730 L 566 602 Z M 260 -64 L 260 -64 Z M 373 -64 C 371 -93 366 -123 358 -154 C 350 -184 340 -213 328 -239 C 316 -265 304 -288 290 -308 C 276 -328 264 -342 252 -350 L 148 -303 C 156 -295 164 -282 173 -265 C 181 -247 190 -228 198 -206 C 206 -184 213 -161 219 -136 C 225 -111 229 -87 231 -64 L 373 -64 Z" unicode="Ț" />
<glyph horiz-adv-x="350" d="M 8 0 L 8 0 Z M 331 124 L 342 10 C 334 4 321 0 304 -2 C 287 -4 270 -6 253 -6 C 229 -6 207 -2 185 3 C 163 9 143 19 127 33 C 110 46 97 63 87 85 C 77 106 72 132 72 163 L 72 382 L 8 382 L 8 498 L 72 498 L 72 621 L 211 637 L 211 498 L 325 498 L 325 382 L 211 382 L 211 184 C 211 159 216 141 227 130 C 238 119 255 114 278 114 C 288 114 299 115 309 117 C 319 119 327 122 331 124 Z M 172 -64 L 172 -64 Z M 285 -64 C 283 -93 278 -123 270 -154 C 262 -184 252 -213 240 -239 C 228 -265 216 -288 202 -308 C 188 -328 176 -342 164 -350 L 60 -303 C 68 -295 76 -282 85 -265 C 93 -247 102 -228 110 -206 C 118 -184 125 -161 131 -136 C 137 -111 141 -87 143 -64 L 285 -64 Z" unicode="ț" />
<glyph horiz-adv-x="289" d="M 227 498 L 227 -25 C 227 -77 211 -119 181 -153 C 150 -186 107 -202 53 -202 C 35 -202 14 -200 -9 -197 C -33 -193 -52 -188 -67 -182 L -52 -75 C -44 -79 -33 -82 -20 -85 C -6 -87 7 -89 22 -89 C 42 -89 58 -81 70 -65 C 82 -49 88 -29 88 -5 L 88 498 L 227 498 Z" unicode="ȷ" />
<glyph horiz-adv-x="500" d="M 444 551 L 316 551 L 250 639 L 182 551 L 56 551 L 179 725 L 321 725 L 444 551 Z" unicode="ˆ" />
<glyph horiz-adv-x="500" d="M 56 725 L 184 725 L 251 637 L 318 725 L 444 725 L 321 551 L 179 551 L 56 725 Z" unicode="ˇ" />
<glyph horiz-adv-x="500" d="M 309 713 L 424 713 C 419 657 401 616 369 590 C 337 564 297 551 250 551 C 202 551 163 564 131 590 C 99 616 80 657 76 713 L 191 713 C 192 686 197 665 207 651 C 216 637 230 630 250 630 C 269 630 283 637 293 651 C 302 665 307 685 309 713 Z" unicode="˘" />
<glyph horiz-adv-x="500" d="M 313 551 L 188 551 L 188 716 L 313 716 L 313 551 Z" unicode="˙" />
<glyph horiz-adv-x="507" d="M 254 547 C 220 547 191 559 167 583 C 143 607 131 636 131 670 C 131 704 143 732 167 756 C 191 780 220 792 254 792 C 288 792 317 780 341 756 C 365 732 377 704 377 670 C 377 636 365 607 341 583 C 317 559 288 547 254 547 Z M 254 621 C 267 621 278 625 287 635 C 296 644 301 656 301 670 C 301 683 296 694 287 704 C 278 713 267 718 254 718 C 240 718 229 713 220 704 C 210 694 206 683 206 670 C 206 656 210 644 220 635 C 229 625 240 621 254 621 Z" unicode="˚" />
<glyph horiz-adv-x="500" d="M 361 -68 L 397 -125 C 375 -148 351 -165 326 -177 C 300 -188 272 -194 240 -194 C 204 -194 175 -186 155 -171 C 135 -156 125 -137 125 -115 C 125 -90 136 -67 159 -45 C 181 -23 212 -5 250 11 L 310 11 C 288 0 272 -11 260 -23 C 248 -35 242 -47 242 -59 C 242 -69 246 -78 255 -84 C 263 -90 274 -94 287 -94 C 302 -94 316 -91 329 -86 C 341 -80 352 -74 361 -68 Z" unicode="˛" />
<glyph horiz-adv-x="500" d="M 330 707 L 439 707 C 439 655 430 616 413 591 C 396 566 374 554 348 554 C 329 554 312 556 298 562 C 284 568 271 574 261 581 C 252 586 243 592 234 598 C 225 604 216 607 208 607 C 200 607 193 602 188 593 C 183 584 180 572 180 557 L 73 557 C 73 582 76 604 82 624 C 88 643 96 659 106 672 C 116 684 127 694 139 700 C 151 706 163 710 175 710 C 193 710 209 707 221 701 C 233 695 245 688 256 682 C 264 676 272 670 280 665 C 287 660 294 658 301 658 C 308 658 315 662 321 670 C 327 678 330 691 330 707 Z" unicode="˜" />
<glyph horiz-adv-x="500" d="M 41 550 L 137 703 L 283 703 L 162 550 L 41 550 Z M 253 550 L 350 703 L 496 703 L 374 550 L 253 550 Z" unicode="˝" />
<glyph horiz-adv-x="0" d="M 0 550 L 0 550 Z M 135 550 L -5 550 L -134 710 L 31 710 L 135 550 Z" unicode="̀" />
<glyph horiz-adv-x="0" d="M 0 554 L 0 554 Z M -133 554 L -31 713 L 135 713 L 7 554 L -133 554 Z" unicode="́" />
<glyph horiz-adv-x="0" d="M 0 551 L 0 551 Z M 194 551 L 66 551 L 0 639 L -68 551 L -194 551 L -71 725 L 71 725 L 194 551 Z" unicode="̂" />
<glyph horiz-adv-x="0" d="M 0 554 L 0 554 Z M 75 707 L 184 707 C 184 655 175 616 158 591 C 141 566 119 554 93 554 C 74 554 57 556 43 562 C 29 568 16 574 6 581 C -2 586 -11 592 -20 598 C -29 604 -38 607 -47 607 C -55 607 -61 602 -66 593 C -71 584 -74 572 -75 557 L -182 557 C -182 582 -178 604 -172 624 C -166 643 -158 659 -148 672 C -138 684 -128 694 -116 700 C -104 706 -92 710 -80 710 C -61 710 -45 707 -33 701 C -21 695 -9 688 1 682 C 9 676 17 670 25 665 C 32 660 39 658 46 658 C 53 658 60 662 66 670 C 72 678 75 691 75 707 Z" unicode="̃" />
<glyph horiz-adv-x="0" d="M 0 560 L 0 560 Z M 143 560 L -143 560 L -143 666 L 143 666 L 143 560 Z" unicode="̄" />
<glyph horiz-adv-x="0" d="M 0 551 L 0 551 Z M 59 713 L 174 713 C 169 657 151 616 119 590 C 87 564 47 551 0 551 C -47 551 -87 564 -119 590 C -151 616 -169 657 -174 713 L -59 713 C -57 686 -52 665 -43 651 C -33 637 -19 630 0 630 C 19 630 33 637 43 651 C 52 665 57 685 59 713 Z" unicode="̆" />
<glyph horiz-adv-x="0" d="M 0 551 L 0 551 Z M 63 551 L -62 551 L -62 716 L 63 716 L 63 551 Z" unicode="̇" />
<glyph horiz-adv-x="0" d="M 0 551 L 0 551 Z M 158 551 L 41 551 L 41 713 L 158 713 L 158 551 Z M -41 551 L -158 551 L -158 713 L -41 713 L -41 551 Z" unicode="̈" />
<glyph horiz-adv-x="0" d="M 0 547 L 0 547 Z M 0 547 C -34 547 -63 559 -87 583 C -111 607 -123 636 -123 670 C -123 704 -111 732 -87 756 C -63 780 -34 792 0 792 C 34 792 63 780 87 756 C 111 732 123 704 123 670 C 123 636 111 607 87 583 C 63 559 34 547 0 547 Z M 0 621 C 13 621 24 625 33 635 C 42 644 47 656 47 670 C 47 683 42 694 33 704 C 24 713 13 718 0 718 C -13 718 -24 713 -34 704 C -43 694 -48 683 -48 670 C -48 656 -43 644 -34 635 C -24 625 -13 621 0 621 Z" unicode="̊" />
<glyph horiz-adv-x="0" d="M 0 550 L 0 550 Z M -227 550 L -131 703 L 15 703 L -106 550 L -227 550 Z M -15 550 L 82 703 L 228 703 L 106 550 L -15 550 Z" unicode="̋" />
<glyph horiz-adv-x="0" d="M 0 551 L 0 551 Z M -194 725 L -66 725 L 1 637 L 68 725 L 194 725 L 71 551 L -71 551 L -194 725 Z" unicode="̌" />
<glyph horiz-adv-x="0" d="M 0 -64 L 0 -64 Z M 113 -64 C 111 -93 106 -123 98 -154 C 90 -184 80 -213 68 -239 C 56 -265 44 -288 30 -308 C 16 -328 4 -342 -8 -350 L -112 -303 C -104 -295 -95 -282 -87 -265 C -78 -247 -70 -228 -62 -206 C -54 -184 -47 -161 -41 -136 C -35 -111 -31 -87 -29 -64 L 113 -64 Z" unicode="̦" />
<glyph horiz-adv-x="0" d="M 0 0 L 0 0 Z M 9 -193 C -17 -193 -44 -190 -72 -184 C -99 -178 -120 -170 -134 -161 L -118 -101 C -109 -105 -97 -109 -83 -113 C -68 -117 -53 -120 -38 -120 C -27 -120 -18 -117 -10 -113 C -2 -109 1 -103 1 -95 C 1 -86 -2 -80 -9 -76 C -16 -72 -24 -71 -32 -71 C -38 -71 -43 -71 -48 -72 C -52 -73 -57 -74 -62 -76 L -80 -57 L -18 14 L 66 14 L 19 -43 C 52 -39 79 -43 101 -57 C 122 -71 133 -90 133 -115 C 133 -141 120 -161 95 -174 C 69 -186 41 -193 9 -193 Z" unicode="̧" />
<glyph horiz-adv-x="0" d="M 0 0 L 0 0 Z M 100 -68 L 136 -125 C 114 -148 90 -165 65 -177 C 39 -188 11 -194 -21 -194 C -57 -194 -85 -186 -105 -171 C -125 -156 -136 -137 -136 -115 C -136 -90 -124 -67 -102 -45 C -79 -23 -49 -5 -11 11 L 49 11 C 27 0 11 -11 -1 -23 C -13 -35 -19 -47 -19 -59 C -19 -69 -14 -78 -6 -84 C 2 -90 13 -94 26 -94 C 41 -94 55 -91 68 -86 C 80 -80 91 -74 100 -68 Z" unicode="̨" />
<glyph horiz-adv-x="551" d="M 0 0 L 0 0 Z M 651 0 L -2 0 L 300 731 L 352 731 L 651 0 Z M 464 110 L 320 477 L 178 110 L 464 110 Z" unicode="Δ" />
<glyph horiz-adv-x="687" d="" unicode="Ω" />
<glyph horiz-adv-x="581" d="M 63 0 L 63 0 Z M 63 -125 L 63 498 L 201 498 L 201 179 C 201 157 209 139 226 125 C 242 110 264 103 292 103 C 318 103 341 112 361 131 C 381 150 391 174 391 204 L 391 498 L 528 498 L 528 0 L 402 0 L 402 77 C 389 54 370 35 344 21 C 318 6 290 -2 262 -5 C 246 -5 231 -3 218 2 C 205 8 196 16 190 26 L 190 -125 L 63 -125 Z" unicode="μ" />
<glyph horiz-adv-x="638" d="M 217 428 L 217 0 L 80 0 L 80 428 L 15 428 L 15 534 L 622 534 L 622 428 L 555 428 L 555 0 L 418 0 L 418 428 L 217 428 Z" unicode="π" />
<glyph horiz-adv-x="941" d="M 3 0 L 3 0 Z M 938 730 L 707 -5 L 629 -5 L 472 478 L 307 -5 L 229 -5 L 3 730 L 155 730 L 290 277 L 439 730 L 517 730 L 667 276 L 800 730 L 938 730 Z M 475 782 L 475 782 Z M 610 782 L 470 782 L 341 942 L 506 942 L 610 782 Z" unicode="Ẁ" />
<glyph horiz-adv-x="746" d="M 1 0 L 1 0 Z M 489 -3 L 377 281 L 258 -3 L 181 -3 L 1 498 L 143 498 L 240 200 L 346 469 L 425 469 L 524 202 L 621 498 L 745 498 L 565 -3 L 489 -3 Z M 382 550 L 382 550 Z M 517 550 L 377 550 L 248 710 L 413 710 L 517 550 Z" unicode="ẁ" />
<glyph horiz-adv-x="941" d="M 3 0 L 3 0 Z M 938 730 L 707 -5 L 629 -5 L 472 478 L 307 -5 L 229 -5 L 3 730 L 155 730 L 290 277 L 439 730 L 517 730 L 667 276 L 800 730 L 938 730 Z M 475 786 L 475 786 Z M 342 786 L 444 945 L 610 945 L 482 786 L 342 786 Z" unicode="Ẃ" />
<glyph horiz-adv-x="746" d="M 1 0 L 1 0 Z M 489 -3 L 377 281 L 258 -3 L 181 -3 L 1 498 L 143 498 L 240 200 L 346 469 L 425 469 L 524 202 L 621 498 L 745 498 L 565 -3 L 489 -3 Z M 382 554 L 382 554 Z M 249 554 L 351 713 L 517 713 L 389 554 L 249 554 Z" unicode="ẃ" />
<glyph horiz-adv-x="941" d="M 3 0 L 3 0 Z M 938 730 L 707 -5 L 629 -5 L 472 478 L 307 -5 L 229 -5 L 3 730 L 155 730 L 290 277 L 439 730 L 517 730 L 667 276 L 800 730 L 938 730 Z M 475 783 L 475 783 Z M 633 783 L 516 783 L 516 945 L 633 945 L 633 783 Z M 434 783 L 317 783 L 317 945 L 434 945 L 434 783 Z" unicode="Ẅ" />
<glyph horiz-adv-x="746" d="M 1 0 L 1 0 Z M 489 -3 L 377 281 L 258 -3 L 181 -3 L 1 498 L 143 498 L 240 200 L 346 469 L 425 469 L 524 202 L 621 498 L 745 498 L 565 -3 L 489 -3 Z M 382 551 L 382 551 Z M 540 551 L 423 551 L 423 713 L 540 713 L 540 551 Z M 341 551 L 224 551 L 224 713 L 341 713 L 341 551 Z" unicode="ẅ" />
<glyph horiz-adv-x="668" d="M 0 0 L 0 0 Z M 689 730 L 414 306 L 414 0 L 264 0 L 264 312 L -4 730 L 164 730 L 347 444 L 531 730 L 689 730 Z M 346 782 L 346 782 Z M 481 782 L 341 782 L 212 942 L 377 942 L 481 782 Z" unicode="Ỳ" />
<glyph horiz-adv-x="549" d="M 0 0 L 0 0 Z M 554 498 L 276 -76 C 252 -125 222 -158 186 -175 C 150 -191 117 -200 85 -200 C 65 -200 49 -198 36 -194 C 22 -190 13 -186 7 -184 L 45 -69 C 47 -71 53 -73 62 -75 C 71 -77 80 -79 89 -79 C 105 -79 120 -74 132 -65 C 144 -55 156 -40 168 -18 L 205 53 L -5 498 L 145 498 L 277 198 L 412 498 L 554 498 Z M 276 550 L 276 550 Z M 411 550 L 271 550 L 142 710 L 307 710 L 411 550 Z" unicode="ỳ" />
<glyph horiz-adv-x="460" d="M 423 210 L 38 210 L 38 330 L 423 330 L 423 210 Z" unicode="–" />
<glyph horiz-adv-x="645" d="M 608 210 L 38 210 L 38 330 L 608 330 L 608 210 Z" unicode="—" />
<glyph horiz-adv-x="314" d="M 31 507 L 31 514 C 31 550 42 589 66 629 C 89 669 120 705 160 737 L 301 731 C 291 725 279 715 265 701 C 251 687 237 670 225 651 C 212 631 201 610 192 587 C 183 563 179 539 179 515 L 179 507 L 31 507 Z" unicode="‘" />
<glyph horiz-adv-x="314" d="M 283 737 L 283 730 C 283 693 271 655 247 616 C 223 577 192 541 154 507 L 13 513 C 23 521 35 532 49 546 C 63 560 76 577 89 596 C 101 614 112 635 121 658 C 130 680 135 704 135 729 L 135 737 L 283 737 Z" unicode="’" />
<glyph horiz-adv-x="314" d="M 283 118 L 283 111 C 283 74 271 36 247 -2 C 223 -41 192 -78 154 -112 L 13 -106 C 23 -98 35 -86 49 -72 C 63 -58 76 -41 89 -23 C 101 -4 112 16 121 39 C 130 61 135 85 135 110 L 135 118 L 283 118 Z" unicode="‚" />
<glyph horiz-adv-x="509" d="M 246 507 L 246 514 C 246 550 257 587 279 625 C 301 663 332 700 372 737 L 495 731 C 485 722 473 710 459 696 C 445 682 432 665 420 647 C 408 628 397 607 388 585 C 379 563 375 539 375 515 L 375 507 L 246 507 Z M 31 507 L 31 514 C 31 550 42 587 66 625 C 89 663 119 700 157 737 L 281 731 C 272 723 261 711 247 697 C 233 683 220 666 207 648 C 194 629 183 608 174 586 C 164 563 160 539 160 515 L 160 507 L 31 507 Z" unicode="“" />
<glyph horiz-adv-x="509" d="M 263 737 L 263 730 C 263 693 252 656 231 618 C 210 580 179 543 137 507 L 13 513 C 24 522 37 534 51 549 C 65 563 78 580 90 598 C 102 616 113 637 121 659 C 129 681 134 704 134 729 L 134 737 L 263 737 Z M 477 737 L 477 730 C 477 693 466 655 444 617 C 422 579 392 542 352 507 L 228 513 C 240 523 253 535 267 549 C 281 563 294 580 306 598 C 318 616 328 637 336 659 C 344 681 349 704 349 729 L 349 737 L 477 737 Z" unicode="”" />
<glyph horiz-adv-x="509" d="M 263 125 L 263 118 C 263 81 252 44 231 6 C 210 -31 179 -68 137 -105 L 13 -99 C 24 -89 37 -77 51 -63 C 65 -48 78 -31 90 -13 C 102 4 113 25 121 47 C 129 69 134 92 134 117 L 134 125 L 263 125 Z M 477 125 L 477 118 C 477 81 466 43 444 5 C 422 -32 392 -69 352 -105 L 228 -99 C 240 -89 253 -76 267 -62 C 281 -48 294 -31 306 -13 C 318 4 328 25 336 47 C 344 69 349 92 349 117 L 349 125 L 477 125 Z" unicode="„" />
<glyph horiz-adv-x="565" d="M 540 353 L 352 353 L 352 -179 L 207 -179 L 207 353 L 25 353 L 25 470 L 207 470 L 207 730 L 352 730 L 352 470 L 540 470 L 540 353 Z" unicode="†" />
<glyph horiz-adv-x="565" d="M 208 -179 L 208 84 L 32 84 L 32 201 L 208 201 L 208 367 L 32 367 L 32 484 L 208 484 L 208 730 L 352 730 L 352 484 L 533 484 L 533 367 L 352 367 L 352 201 L 533 201 L 533 84 L 352 84 L 352 -179 L 208 -179 Z" unicode="‡" />
<glyph horiz-adv-x="382" d="M 191 504 C 225 504 255 491 279 467 C 303 443 316 413 316 379 C 316 345 303 315 279 291 C 255 267 225 255 191 255 C 156 255 127 267 103 291 C 79 315 67 345 67 379 C 67 413 79 443 103 467 C 127 491 156 504 191 504 Z" unicode="•" />
<glyph horiz-adv-x="774" d="M 60 0 L 60 152 L 199 152 L 199 0 L 60 0 Z M 317 0 L 317 152 L 457 152 L 457 0 L 317 0 Z M 575 0 L 575 152 L 715 152 L 715 0 L 575 0 Z" unicode="…" />
<glyph horiz-adv-x="1262" d="M 218 349 C 195 349 173 353 151 362 C 129 371 110 384 93 401 C 76 417 62 438 52 462 C 42 486 37 513 37 543 C 37 569 41 595 51 619 C 60 643 73 663 89 681 C 105 699 124 713 146 723 C 167 733 190 739 214 739 C 239 739 263 733 285 723 C 307 713 326 699 342 681 C 358 663 370 643 379 620 C 388 596 393 572 393 546 C 393 518 388 493 379 469 C 369 445 357 424 341 406 C 325 388 307 374 286 364 C 264 354 242 349 218 349 Z M 149 0 L 616 730 L 712 730 L 244 0 L 149 0 Z M 155 544 C 155 513 160 489 171 472 C 182 455 197 447 216 447 C 236 447 252 455 262 473 C 272 490 278 514 278 544 C 278 572 273 595 263 613 C 253 631 237 640 217 640 C 197 640 181 631 171 613 C 160 595 155 572 155 544 Z M 654 -3 C 631 -3 609 1 588 10 C 566 19 547 32 531 49 C 514 65 501 86 491 110 C 481 134 476 161 476 191 C 476 217 480 243 490 267 C 499 291 511 311 527 329 C 543 347 562 361 584 371 C 606 381 629 387 654 387 C 680 387 703 381 725 371 C 747 361 766 347 782 329 C 798 311 810 291 819 268 C 827 244 832 220 832 194 C 832 167 827 142 818 118 C 809 94 797 73 781 55 C 765 37 747 22 725 12 C 703 2 679 -3 654 -3 Z M 1047 -3 C 1024 -3 1002 1 981 10 C 959 19 940 32 924 49 C 907 65 894 86 884 110 C 874 134 869 161 869 191 C 869 217 873 243 883 267 C 892 291 904 311 920 329 C 936 347 955 361 977 371 C 999 381 1022 387 1047 387 C 1073 387 1096 381 1118 371 C 1140 361 1159 347 1175 329 C 1191 311 1203 291 1212 268 C 1220 244 1225 220 1225 194 C 1225 167 1220 142 1211 118 C 1202 94 1190 73 1174 55 C 1158 37 1139 22 1117 12 C 1095 2 1072 -3 1047 -3 Z M 653 96 C 673 96 689 104 700 121 C 711 137 717 161 717 192 C 717 222 711 245 701 262 C 690 279 674 288 654 288 C 635 288 620 279 610 262 C 599 245 594 222 594 192 C 594 160 599 136 611 120 C 622 104 636 96 653 96 Z M 1046 96 C 1066 96 1082 104 1093 121 C 1104 137 1110 161 1110 192 C 1110 222 1104 245 1094 262 C 1083 279 1067 288 1047 288 C 1028 288 1013 279 1003 262 C 992 245 987 222 987 192 C 987 160 992 136 1004 120 C 1015 104 1029 96 1046 96 Z" unicode="‰" />
<glyph horiz-adv-x="257" d="M 229 74 L 25 247 L 25 333 L 229 503 L 229 365 L 144 287 L 229 214 L 229 74 Z" unicode="‹" />
<glyph horiz-adv-x="258" d="M 28 504 L 233 331 L 233 246 L 28 76 L 28 212 L 112 291 L 28 363 L 28 504 Z" unicode="›" />
<glyph horiz-adv-x="145" d="M 310 730 L -36 0 L -145 0 L 201 730 L 310 730 Z" unicode="⁄" />
<glyph horiz-adv-x="332" d="M 13 453 L 13 522 L 192 735 L 264 735 L 264 526 L 318 526 L 318 453 L 264 453 L 264 373 L 165 373 L 165 453 L 13 453 Z M 93 516 L 167 516 L 167 606 L 93 516 Z" unicode="⁴" />
<glyph horiz-adv-x="564" d="M 562 113 C 542 75 511 44 470 22 C 428 0 383 -12 335 -12 C 270 -12 216 10 172 56 C 128 101 99 163 85 242 L 29 242 L 29 329 L 76 329 C 75 333 75 338 75 344 C 75 349 75 354 75 360 C 75 364 75 369 75 373 C 75 377 75 382 75 386 L 29 386 L 29 473 L 83 473 C 89 512 98 548 112 581 C 125 614 142 642 163 666 C 183 690 208 708 237 722 C 265 735 298 742 334 742 C 398 742 447 729 482 705 C 517 681 542 653 557 623 L 446 566 C 435 585 421 601 403 613 C 385 625 362 631 334 631 C 301 631 274 618 253 593 C 232 568 218 528 211 473 L 497 473 L 497 386 L 205 386 C 205 382 205 379 205 375 C 205 371 205 367 205 363 C 205 357 205 351 205 345 C 205 339 205 334 206 329 L 497 329 L 497 242 L 215 242 C 225 193 240 157 262 134 C 284 110 309 99 338 99 C 366 99 389 107 409 123 C 429 139 444 157 455 178 L 562 113 Z" unicode="€" />
<glyph horiz-adv-x="968" d="M 922 299 L 797 299 L 797 529 L 671 357 L 657 357 L 533 527 L 533 299 L 412 299 L 412 730 L 509 730 L 664 522 L 819 730 L 922 730 L 922 299 Z M 383 593 L 269 593 L 269 299 L 129 299 L 129 593 L 12 593 L 12 730 L 383 730 L 383 593 Z" unicode="™" />
<glyph horiz-adv-x="785" d="M 39 0 L 39 127 L 239 127 L 239 174 C 209 183 182 196 156 214 C 130 232 108 252 90 276 C 71 300 56 326 46 356 C 35 386 30 417 30 451 C 30 491 38 530 54 566 C 70 602 94 634 125 661 C 155 688 193 709 238 725 C 282 741 333 749 389 749 C 446 749 497 741 543 725 C 589 709 627 688 659 661 C 690 634 714 602 731 566 C 747 530 756 492 756 452 C 756 383 738 325 703 277 C 668 229 615 194 545 174 L 545 127 L 746 127 L 746 0 L 439 0 L 439 246 C 491 261 531 286 560 322 C 588 357 603 397 603 443 C 603 470 597 495 586 518 C 574 541 559 561 540 578 C 521 594 499 607 473 617 C 447 626 419 631 390 631 C 361 631 334 626 309 617 C 283 607 261 594 243 578 C 224 561 209 541 199 518 C 188 494 183 469 183 441 C 183 397 196 358 224 324 C 252 290 293 264 347 246 L 347 0 L 39 0 Z" unicode="Ω" />
<glyph horiz-adv-x="598" d="M 558 297 C 558 240 550 192 536 152 C 521 112 501 81 477 57 C 453 33 424 15 392 5 C 360 -5 326 -11 291 -11 C 259 -11 228 -5 197 5 C 166 15 138 31 114 51 C 89 71 69 96 54 126 C 38 156 31 191 31 230 C 31 264 37 297 50 328 C 63 358 81 385 103 407 C 125 429 150 446 180 459 C 210 472 241 479 274 479 C 309 479 340 471 367 457 C 393 442 414 423 429 401 C 422 453 409 499 391 538 C 372 577 349 609 323 635 C 297 660 268 679 236 692 C 204 705 171 713 139 715 L 206 802 C 242 802 280 792 322 774 C 363 755 401 725 436 685 C 470 645 499 592 523 528 C 546 464 558 387 558 297 Z M 292 93 C 330 93 360 106 382 132 C 404 158 416 196 416 246 C 416 286 405 318 384 343 C 363 367 333 380 295 380 C 259 380 231 367 209 343 C 187 319 176 283 176 236 C 176 187 186 151 208 128 C 230 104 258 93 292 93 Z" unicode="∂" />
<glyph horiz-adv-x="646" d="M 651 0 L -2 0 L 300 731 L 352 731 L 651 0 Z M 464 110 L 320 477 L 178 110 L 464 110 Z" unicode="∆" />
<glyph horiz-adv-x="700" d="M 257 607 L 257 0 L 113 0 L 113 607 L 15 607 L 15 730 L 685 730 L 685 607 L 594 607 L 594 0 L 451 0 L 451 607 L 257 607 Z" unicode="∏" />
<glyph horiz-adv-x="618" d="M 234 605 L 451 307 L 200 -54 L 570 -54 L 570 -179 L -31 -179 L 309 306 L -1 730 L 549 730 L 549 605 L 234 605 Z" unicode="∑" />
<glyph horiz-adv-x="522" d="M 484 276 L 38 276 L 38 388 L 484 388 L 484 276 Z" unicode="−" />
<glyph horiz-adv-x="510" d="M 512 730 L 198 0 L 186 0 L 9 336 L 105 412 L 209 197 L 426 730 L 512 730 Z" unicode="√" />
<glyph horiz-adv-x="357" d="M 97 3 L 152 615 C 154 636 159 655 168 671 C 177 687 188 701 201 712 C 214 723 229 731 245 737 C 261 742 276 745 291 745 C 306 745 322 744 339 743 C 355 742 365 741 368 741 L 359 622 C 357 622 353 623 347 624 C 341 624 335 625 329 625 C 310 625 295 618 283 606 C 271 593 265 573 263 547 L 213 -47 C 211 -63 207 -79 200 -95 C 193 -111 184 -125 172 -137 C 160 -149 147 -159 131 -167 C 115 -175 97 -179 77 -179 C 54 -179 33 -176 13 -172 C -7 -168 -22 -163 -33 -157 L -19 -59 C -15 -59 -8 -61 1 -64 C 11 -66 20 -68 29 -68 C 47 -68 63 -62 75 -50 C 87 -38 95 -20 97 3 Z" unicode="∫" />
<glyph horiz-adv-x="500" d="M 359 515 L 463 515 C 462 491 459 468 455 447 C 450 425 443 407 435 391 C 426 375 415 362 402 353 C 388 343 372 339 354 339 C 330 339 310 342 292 350 C 274 358 259 366 247 376 C 235 385 224 393 212 400 C 200 406 188 410 176 410 C 164 410 154 403 144 389 C 134 375 130 359 130 342 L 31 342 C 31 394 40 436 60 468 C 79 500 107 516 145 516 C 167 516 187 511 205 501 C 223 491 237 482 249 474 C 261 466 272 459 284 453 C 295 447 306 444 317 444 C 333 444 344 450 350 464 C 356 477 359 494 359 515 Z M 360 324 L 463 324 C 462 300 459 277 454 256 C 449 234 442 216 433 200 C 423 184 412 172 398 163 C 384 153 367 149 349 149 C 325 149 304 152 287 160 C 270 167 256 175 245 185 C 233 193 222 201 210 208 C 198 214 187 218 175 218 C 164 218 154 211 145 197 C 135 183 131 168 131 152 L 31 152 C 31 204 40 246 60 278 C 80 310 109 326 148 326 C 171 326 192 321 210 311 C 228 301 242 291 254 283 C 265 274 276 267 288 261 C 299 255 309 253 319 253 C 335 253 345 259 351 273 C 357 286 360 303 360 324 Z" unicode="≈" />
<glyph horiz-adv-x="500" d="M 457 156 L 229 156 L 181 50 L 106 83 L 139 156 L 65 156 L 65 273 L 191 273 L 238 378 L 65 378 L 65 495 L 291 495 L 344 614 L 420 581 L 381 495 L 457 495 L 457 378 L 329 378 L 281 273 L 457 273 L 457 156 Z" unicode="≠" />
<glyph horiz-adv-x="500" d="M 198 327 L 433 200 L 433 10 L 61 10 L 61 103 L 392 103 L 62 281 L 62 366 L 433 570 L 433 451 L 198 327 Z" unicode="≤" />
<glyph horiz-adv-x="500" d="M 433 10 L 61 10 L 61 200 L 296 327 L 61 451 L 61 570 L 432 366 L 432 281 L 102 103 L 433 103 L 433 10 Z" unicode="≥" />
<glyph horiz-adv-x="552" d="M 525 326 L 282 -33 L 270 -33 L 27 326 L 27 337 L 270 695 L 282 695 L 525 337 L 525 326 Z M 397 327 L 397 336 L 280 513 L 272 513 L 155 336 L 155 327 L 272 149 L 280 149 L 397 327 Z" unicode="◊" />
<glyph horiz-adv-x="730" d="M 448 654 L 282 654 L 282 730 L 448 730 L 448 654 Z M 452 278 L 278 278 L 278 452 L 452 452 L 452 278 Z M 659 282 L 581 282 L 581 448 L 659 448 L 659 282 Z M 149 282 L 71 282 L 71 448 L 149 448 L 149 282 Z M 448 0 L 282 0 L 282 77 L 448 77 L 448 0 Z" unicode="" />
<glyph horiz-adv-x="629" d="M 369 389 L 241 389 L 241 0 L 103 0 L 103 389 L 10 389 L 10 498 L 103 498 L 103 548 C 103 586 108 620 120 648 C 131 676 146 699 165 717 C 184 735 206 748 231 757 C 256 765 282 770 309 770 C 323 770 340 768 359 765 C 377 761 391 758 400 755 L 382 641 C 376 643 368 646 358 648 C 348 650 338 651 328 651 C 307 651 287 643 268 628 C 249 612 240 589 240 559 L 240 498 L 369 498 L 369 389 Z M 564 576 L 421 576 L 421 704 L 564 704 L 564 576 Z M 563 0 L 424 0 L 424 498 L 563 498 L 563 0 Z" unicode="ﬁ" />
<glyph horiz-adv-x="619" d="M 369 389 L 241 389 L 241 0 L 103 0 L 103 389 L 10 389 L 10 498 L 103 498 L 103 546 C 103 585 108 619 120 647 C 131 675 146 699 165 717 C 184 735 206 748 231 757 C 256 765 282 770 309 770 C 323 770 340 768 359 765 C 377 762 391 759 400 755 L 382 642 C 376 644 368 646 358 648 C 348 650 338 651 328 651 C 307 651 287 643 268 627 C 249 611 240 587 240 557 L 240 498 L 369 498 L 369 389 Z M 553 765 L 553 0 L 414 0 L 414 765 L 553 765 Z" unicode="ﬂ" />
</font>
</defs>
</svg>
