<?xml version="1.0" encoding="utf-8" ?><svg version="1.1" xmlns = 'http://www.w3.org/2000/svg'><defs><font id='web' horiz-adv-x="1000">
<font-face font-family="web" descent="-200" cap-height="730" units-per-em="1000" bbox="-190,-336,1090,1021" x-height="490" ascent="800" />
<missing-glyph horiz-adv-x="500" d="" /><glyph horiz-adv-x="226" d="" unicode=" " />
<glyph horiz-adv-x="279" d="M 200 432 L 166 213 L 115 213 L 82 432 L 82 730 L 200 730 L 200 432 Z M 196 0 L 87 0 L 87 116 L 196 116 L 196 0 Z" unicode="!" />
<glyph horiz-adv-x="401" d="M 342 618 L 335 475 L 252 475 L 247 617 L 247 730 L 342 730 L 342 618 Z M 154 617 L 149 475 L 64 475 L 59 617 L 59 730 L 154 730 L 154 617 Z" unicode="&#x22;" />
<glyph horiz-adv-x="609" d="M 555 214 L 433 214 L 414 0 L 350 1 L 369 214 L 218 214 L 199 0 L 135 1 L 154 214 L 33 214 L 33 299 L 161 299 L 172 427 L 54 427 L 54 513 L 180 513 L 199 730 L 263 729 L 244 513 L 395 513 L 414 730 L 478 729 L 459 513 L 576 513 L 576 427 L 451 427 L 440 299 L 555 299 L 555 214 Z M 225 299 L 376 299 L 387 427 L 236 427 L 225 299 Z" unicode="#" />
<glyph horiz-adv-x="516" d="M 480 189 C 480 162 475 138 465 116 C 455 94 441 75 424 59 C 407 43 387 31 364 21 C 340 11 315 4 289 2 L 289 -123 L 223 -123 L 223 1 C 181 4 143 13 109 28 C 75 43 48 62 26 85 L 72 164 C 89 145 111 129 139 116 C 167 102 195 94 223 90 L 223 338 C 161 366 115 397 86 429 C 56 461 42 502 42 553 C 42 601 59 641 93 673 C 127 705 170 724 223 730 L 223 790 L 289 790 L 289 729 C 323 726 355 718 384 706 C 413 693 438 676 459 656 L 405 584 C 389 599 371 611 351 621 C 331 631 310 637 289 641 L 289 413 L 293 411 C 357 380 405 349 435 317 C 465 285 480 243 480 189 Z M 140 551 C 140 528 145 509 157 494 C 169 479 191 463 223 446 L 223 641 C 199 636 179 626 163 610 C 147 594 140 575 140 551 Z M 382 190 C 382 212 375 232 363 250 C 351 267 326 286 289 306 L 289 90 C 315 94 337 105 355 122 C 373 139 382 162 382 190 Z" unicode="$" />
<glyph horiz-adv-x="782" d="M 196 357 C 176 357 157 361 138 369 C 119 377 102 390 88 406 C 73 422 61 442 52 466 C 43 490 39 517 39 548 C 39 574 43 598 51 622 C 59 645 70 665 84 683 C 98 700 114 714 133 724 C 152 734 172 740 194 740 C 217 740 238 734 258 724 C 278 714 295 700 309 683 C 323 666 333 646 341 623 C 349 600 353 576 353 551 C 353 523 349 498 341 474 C 333 450 322 430 308 413 C 294 395 277 382 258 372 C 238 362 218 357 196 357 Z M 202 0 L 116 0 L 567 730 L 653 730 L 202 0 Z M 195 435 C 219 435 236 445 248 467 C 259 489 265 516 265 548 C 265 578 259 605 249 627 C 238 649 221 661 197 661 C 173 661 156 650 144 628 C 132 606 127 579 127 548 C 127 514 133 487 145 466 C 157 445 174 435 195 435 Z M 586 -3 C 566 -3 547 1 528 9 C 509 17 492 30 478 46 C 463 62 451 82 442 106 C 433 130 429 157 429 188 C 429 214 433 239 441 263 C 449 286 460 306 474 324 C 488 341 504 355 524 365 C 543 375 564 380 587 380 C 611 380 632 374 652 364 C 671 354 688 340 702 323 C 716 306 726 286 734 263 C 741 240 745 216 745 191 C 745 164 741 139 733 115 C 725 91 715 71 701 53 C 687 35 670 22 650 12 C 630 2 609 -3 586 -3 Z M 585 77 C 609 77 627 87 639 108 C 651 128 657 155 657 188 C 657 220 651 247 640 269 C 628 291 611 302 587 302 C 565 302 549 291 537 269 C 525 247 519 220 519 188 C 519 154 525 127 537 107 C 549 87 565 77 585 77 Z" unicode="%" />
<glyph horiz-adv-x="698" d="M 618 -5 L 531 77 C 497 49 459 28 418 14 C 377 0 331 -8 281 -8 C 205 -8 144 8 98 41 C 52 74 29 120 29 180 C 29 208 33 232 43 253 C 52 274 64 293 79 310 C 94 326 112 341 132 355 C 152 369 174 382 196 395 L 189 402 C 180 410 170 420 160 432 C 150 444 140 457 132 471 C 123 485 116 501 110 519 C 104 537 102 556 102 576 C 102 597 106 617 116 637 C 126 657 139 674 157 689 C 174 703 194 715 218 724 C 241 732 266 737 294 737 C 322 737 347 732 371 724 C 394 716 414 704 430 690 C 446 676 458 659 467 640 C 476 621 481 601 481 581 C 481 540 468 505 443 476 C 418 447 384 418 341 390 L 531 214 C 541 227 552 241 563 256 C 573 271 584 287 594 304 L 676 252 C 664 233 652 215 640 197 C 628 179 615 163 603 148 L 683 74 L 618 -5 Z M 266 459 L 280 446 C 314 467 339 487 356 506 C 373 525 382 546 382 568 C 382 590 374 610 359 628 C 344 645 322 654 294 654 C 267 654 245 645 229 627 C 213 609 205 591 205 571 C 205 551 210 531 222 512 C 233 493 248 475 266 459 Z M 142 187 C 142 153 156 127 185 108 C 213 88 248 79 288 79 C 320 79 351 84 380 96 C 408 107 435 123 461 144 L 257 338 C 221 315 192 292 172 270 C 152 248 142 220 142 187 Z" unicode="&#x26;" />
<glyph horiz-adv-x="214" d="M 155 614 L 150 469 L 64 469 L 59 614 L 59 730 L 155 730 L 155 614 Z" unicode="'" />
<glyph horiz-adv-x="321" d="M 305 -94 L 305 -182 C 267 -164 232 -140 198 -110 C 164 -79 135 -43 110 -3 C 84 37 64 83 49 133 C 34 183 27 237 27 293 C 27 349 34 402 49 451 C 64 500 84 544 110 583 C 135 621 164 655 198 683 C 232 711 267 733 305 749 L 305 666 C 259 637 221 592 189 531 C 157 469 141 390 141 293 C 141 206 155 129 184 62 C 212 -5 253 -57 305 -94 Z" unicode="(" />
<glyph horiz-adv-x="321" d="M 17 665 L 17 749 C 52 735 86 714 120 686 C 154 658 183 625 209 586 C 235 547 255 502 271 451 C 287 400 295 345 295 285 C 295 228 287 175 271 125 C 255 75 235 31 210 -8 C 184 -48 155 -82 121 -112 C 87 -142 53 -165 17 -182 L 17 -91 C 65 -57 105 -7 137 56 C 169 120 185 197 185 285 C 185 335 180 381 171 422 C 162 463 150 499 135 531 C 119 562 101 589 81 611 C 61 633 39 651 17 665 Z" unicode=")" />
<glyph horiz-adv-x="404" d="M 373 578 L 246 546 L 340 459 L 273 403 L 204 516 L 135 404 L 68 458 L 162 548 L 32 576 L 69 660 L 178 596 L 158 730 L 250 730 L 229 596 L 342 656 L 373 578 Z" unicode="*" />
<glyph horiz-adv-x="495" d="M 467 290 L 290 290 L 290 117 L 206 117 L 206 290 L 28 290 L 28 372 L 206 372 L 206 545 L 290 545 L 290 372 L 467 372 L 467 290 Z" unicode="+" />
<glyph horiz-adv-x="237" d="M 201 113 C 199 87 194 61 187 35 C 179 9 170 -15 160 -39 C 150 -62 138 -83 126 -102 C 113 -121 100 -136 88 -148 L 11 -114 C 18 -105 26 -92 35 -76 C 44 -60 52 -41 60 -21 C 68 -1 75 20 81 44 C 87 67 92 90 95 113 L 201 113 Z" unicode="," />
<glyph horiz-adv-x="342" d="M 301 222 L 42 222 L 42 314 L 301 314 L 301 222 Z" unicode="-" />
<glyph horiz-adv-x="239" d="M 172 0 L 67 0 L 67 134 L 172 134 L 172 0 Z" unicode="." />
<glyph horiz-adv-x="322" d="M 320 730 L 96 0 L 2 0 L 228 730 L 320 730 Z" unicode="/" />
<glyph horiz-adv-x="543" d="M 268 -10 C 198 -10 142 20 99 82 C 56 143 35 236 35 361 C 35 415 39 465 49 511 C 59 557 73 598 93 632 C 113 666 138 692 168 712 C 198 731 233 741 273 741 C 314 741 349 731 379 713 C 409 694 433 668 452 635 C 471 602 485 563 494 518 C 503 472 508 423 508 370 C 508 312 503 260 493 213 C 483 166 468 126 448 93 C 428 60 403 35 373 17 C 343 -1 308 -10 268 -10 Z M 269 81 C 315 81 348 105 370 154 C 391 202 402 271 402 360 C 402 449 392 519 372 571 C 352 623 319 649 271 649 C 225 649 192 624 171 574 C 150 524 140 454 140 362 C 140 269 151 199 173 152 C 195 104 227 81 269 81 Z" unicode="0" />
<glyph horiz-adv-x="355" d="M 278 0 L 172 0 L 172 581 C 159 563 139 546 112 530 C 84 514 59 506 37 504 L 37 608 C 66 610 95 623 125 647 C 155 671 180 700 201 732 L 278 732 L 278 0 Z" unicode="1" />
<glyph horiz-adv-x="518" d="M 489 0 L 26 0 L 26 32 L 305 364 C 325 388 343 415 357 444 C 371 472 378 503 378 536 C 378 570 366 597 344 617 C 321 637 291 647 254 647 C 212 647 181 634 159 608 C 137 582 126 549 126 508 L 31 508 C 31 583 52 640 94 680 C 136 720 191 740 261 740 C 325 740 377 723 419 689 C 460 655 481 608 481 548 C 481 494 471 449 452 414 C 433 378 412 347 390 321 L 194 93 L 489 93 L 489 0 Z" unicode="2" />
<glyph horiz-adv-x="512" d="M 241 -10 C 183 -10 134 -2 95 14 C 55 30 25 48 4 69 L 55 148 C 72 132 95 117 125 102 C 154 87 190 80 232 80 C 282 80 320 94 348 122 C 375 150 389 184 389 224 C 389 264 374 294 346 316 C 318 337 283 348 241 348 L 131 348 L 131 438 L 240 438 C 276 438 306 448 330 469 C 354 489 366 515 366 546 C 366 574 355 598 335 619 C 314 639 285 650 248 650 C 208 650 175 642 151 626 C 126 610 105 591 89 570 L 28 638 C 45 662 72 686 110 708 C 148 730 197 741 257 741 C 320 741 371 725 409 693 C 447 661 467 618 467 564 C 467 520 454 483 428 454 C 402 424 373 405 341 397 C 381 388 415 368 445 338 C 475 307 490 267 490 217 C 490 189 485 162 475 135 C 465 107 450 83 430 62 C 410 40 384 23 352 10 C 320 -3 283 -10 241 -10 Z" unicode="3" />
<glyph horiz-adv-x="528" d="M 523 185 L 418 185 L 418 0 L 324 0 L 324 185 L 11 185 L 11 256 L 348 740 L 418 740 L 418 273 L 523 273 L 523 185 Z M 325 271 L 325 566 L 121 271 L 325 271 Z" unicode="4" />
<glyph horiz-adv-x="520" d="M 251 -10 C 197 -10 150 -1 110 17 C 70 35 39 55 18 78 L 73 155 C 89 136 112 119 142 103 C 171 87 205 80 243 80 C 288 80 324 95 350 127 C 376 158 390 199 390 250 C 390 297 377 334 352 361 C 327 388 296 402 258 402 C 225 402 197 395 174 382 C 151 368 134 350 122 326 L 53 344 L 82 730 L 445 730 L 445 635 L 159 635 L 144 425 C 154 441 172 456 197 470 C 222 483 252 490 287 490 C 349 490 399 469 438 428 C 476 386 496 329 496 257 C 496 175 473 110 427 62 C 381 14 323 -10 251 -10 Z" unicode="5" />
<glyph horiz-adv-x="521" d="M 271 -11 C 237 -11 205 -5 175 6 C 145 18 120 35 99 57 C 78 79 62 105 50 137 C 38 168 32 203 32 243 C 32 323 52 399 93 469 C 134 539 187 609 251 679 L 316 751 L 387 690 L 341 641 C 292 587 250 536 214 490 C 178 444 156 406 148 377 C 158 396 176 414 201 430 C 226 446 256 455 292 455 C 354 455 404 433 442 390 C 480 347 499 292 499 225 C 499 191 493 160 482 132 C 470 103 455 78 435 57 C 415 36 391 19 363 7 C 335 -4 304 -11 271 -11 Z M 270 79 C 308 79 339 92 363 120 C 386 147 398 181 398 222 C 398 266 386 301 364 327 C 342 353 310 367 270 367 C 234 367 203 354 176 330 C 149 306 136 271 136 227 C 136 181 148 145 173 119 C 197 92 230 79 270 79 Z" unicode="6" />
<glyph horiz-adv-x="455" d="M 452 730 L 460 688 L 143 -7 L 52 33 L 331 634 L 13 634 L 13 730 L 452 730 Z" unicode="7" />
<glyph horiz-adv-x="544" d="M 373 388 C 390 384 407 377 424 367 C 441 357 456 344 469 329 C 481 313 492 295 500 273 C 508 251 512 227 512 200 C 512 138 490 88 448 49 C 405 9 346 -10 272 -10 C 198 -10 139 8 97 46 C 54 84 33 134 33 196 C 33 224 37 250 46 272 C 55 294 66 314 80 330 C 94 346 109 359 125 369 C 141 378 157 384 173 387 C 159 391 145 397 131 406 C 117 415 104 426 93 440 C 81 454 72 470 65 489 C 57 507 54 528 54 552 C 54 580 59 606 71 630 C 82 653 97 673 117 689 C 136 705 159 718 185 727 C 211 735 240 740 271 740 C 338 740 391 723 431 689 C 471 655 491 611 491 559 C 491 513 478 475 454 445 C 429 415 402 396 373 388 Z M 272 422 C 308 422 338 432 361 452 C 383 472 395 500 395 536 C 395 573 383 602 360 622 C 337 642 308 652 272 652 C 237 652 208 641 184 621 C 160 600 149 572 149 536 C 149 498 161 469 186 450 C 210 431 239 422 272 422 Z M 273 76 C 315 76 348 87 374 111 C 399 135 412 168 412 211 C 412 251 398 282 372 304 C 346 325 313 336 273 336 C 232 336 198 325 172 304 C 145 283 132 251 132 208 C 132 168 145 136 171 112 C 197 88 231 76 273 76 Z" unicode="8" />
<glyph horiz-adv-x="521" d="M 215 -15 L 148 50 L 199 99 C 218 119 237 140 257 164 C 276 188 294 211 310 235 C 326 259 341 282 353 305 C 365 327 374 347 380 365 C 368 343 347 324 318 307 C 289 289 258 281 226 281 C 164 281 115 302 78 345 C 40 388 22 443 22 511 C 22 543 27 574 39 602 C 51 630 67 655 87 676 C 107 696 132 712 161 724 C 189 736 220 742 254 742 C 286 742 317 736 346 725 C 374 713 399 697 421 676 C 442 654 459 628 471 596 C 483 564 490 529 490 489 C 490 444 484 401 472 360 C 460 319 445 280 425 244 C 405 207 383 172 358 140 C 332 108 306 78 279 52 L 215 -15 Z M 251 367 C 287 367 319 379 346 404 C 372 429 386 463 386 506 C 386 553 373 589 347 615 C 321 640 290 653 254 653 C 214 653 182 639 159 613 C 136 586 125 552 125 512 C 125 468 135 432 157 406 C 179 380 210 367 251 367 Z" unicode="9" />
<glyph horiz-adv-x="238" d="M 171 360 L 67 360 L 67 490 L 171 490 L 171 360 Z M 171 0 L 67 0 L 67 131 L 171 131 L 171 0 Z" unicode=":" />
<glyph horiz-adv-x="237" d="M 178 360 L 74 360 L 74 490 L 178 490 L 178 360 Z M 182 105 C 179 81 174 56 167 31 C 160 6 152 -17 142 -39 C 132 -61 121 -82 109 -100 C 97 -118 85 -133 73 -145 L -4 -110 C 4 -100 12 -88 21 -72 C 30 -56 39 -39 47 -20 C 55 -1 63 18 69 40 C 75 62 78 83 80 105 L 182 105 Z" unicode=";" />
<glyph horiz-adv-x="403" d="M 353 94 L 41 290 L 41 362 L 353 556 L 353 458 L 145 327 L 353 194 L 353 94 Z" unicode="&#x3C;" />
<glyph horiz-adv-x="497" d="M 443 386 L 54 386 L 54 474 L 443 474 L 443 386 Z M 443 171 L 54 171 L 54 259 L 443 259 L 443 171 Z" unicode="=" />
<glyph horiz-adv-x="403" d="M 360 290 L 48 94 L 48 194 L 255 328 L 48 459 L 48 556 L 360 362 L 360 290 Z" unicode="&#x3E;" />
<glyph horiz-adv-x="457" d="M 160 208 C 160 250 165 286 177 314 C 188 342 207 370 234 397 C 255 417 275 439 295 463 C 315 487 325 516 325 550 C 325 580 314 604 292 622 C 270 640 243 649 211 649 C 182 649 156 642 134 628 C 111 614 92 597 78 577 L 13 641 C 37 672 67 697 105 715 C 143 733 184 742 228 742 C 290 742 339 725 377 693 C 414 660 433 617 433 563 C 433 537 429 514 422 494 C 414 473 405 454 394 438 C 382 421 370 406 356 392 C 342 378 328 364 316 352 C 294 333 279 310 272 284 C 265 257 261 232 261 208 L 160 208 Z M 156 0 L 156 121 L 269 121 L 269 0 L 156 0 Z" unicode="?" />
<glyph horiz-adv-x="849" d="M 417 -38 C 362 -38 311 -28 265 -8 C 219 12 179 39 146 73 C 112 107 86 148 68 194 C 49 240 40 290 40 343 C 40 396 49 446 68 493 C 86 539 112 579 146 613 C 180 647 220 673 268 693 C 315 713 367 723 423 723 C 480 723 532 714 580 698 C 627 681 667 657 700 627 C 733 597 759 560 777 517 C 795 474 805 427 805 376 C 805 332 799 294 789 263 C 779 231 766 206 750 186 C 734 166 717 152 697 143 C 677 134 658 130 640 130 C 607 130 581 136 562 150 C 542 164 530 181 524 202 C 515 185 497 169 470 154 C 442 138 409 131 371 131 C 322 131 285 143 259 167 C 233 191 221 223 221 261 C 221 304 239 338 276 364 C 313 390 362 403 422 403 L 513 403 L 513 412 C 513 441 504 461 487 473 C 470 485 446 491 416 491 C 391 491 368 488 348 482 C 327 476 309 471 295 465 L 265 536 C 283 544 306 552 334 559 C 362 565 390 569 418 569 C 473 569 516 555 548 529 C 580 502 596 459 596 400 L 596 255 C 596 241 599 229 607 217 C 615 205 628 200 648 200 C 657 200 667 202 677 207 C 687 211 696 220 704 232 C 712 244 719 262 725 284 C 730 306 733 335 733 370 C 733 410 725 448 711 484 C 697 519 676 549 650 575 C 624 600 591 620 553 635 C 514 649 471 657 423 657 C 377 657 334 649 296 633 C 258 617 225 595 198 567 C 171 539 150 505 135 467 C 120 429 113 388 113 344 C 113 300 120 259 136 221 C 151 183 172 149 199 121 C 226 92 258 69 296 53 C 334 36 375 28 420 28 C 441 28 463 30 486 35 C 508 39 531 47 554 58 L 581 -2 C 554 -14 527 -23 499 -29 C 471 -35 444 -38 417 -38 Z M 398 205 C 424 205 448 210 470 221 C 492 232 506 243 513 254 L 513 336 L 425 336 C 389 336 362 330 344 318 C 326 306 317 290 317 270 C 317 249 324 233 338 222 C 352 210 372 205 398 205 Z" unicode="@" />
<glyph horiz-adv-x="602" d="M 601 0 L 489 0 L 425 177 L 169 177 L 108 0 L 1 0 L 267 733 L 338 733 L 601 0 Z M 400 265 L 297 552 L 195 265 L 400 265 Z" unicode="A" />
<glyph horiz-adv-x="563" d="M 81 0 L 81 730 L 298 730 C 357 730 405 714 441 683 C 477 652 496 610 496 556 C 496 506 483 466 458 436 C 433 406 403 387 367 381 C 386 379 405 374 425 366 C 444 358 461 347 477 333 C 492 319 504 301 514 279 C 524 257 529 232 529 204 C 529 141 508 91 466 55 C 424 18 370 0 304 0 L 81 0 Z M 186 415 L 275 415 C 317 415 346 427 364 452 C 381 476 390 503 390 533 C 390 564 379 589 359 609 C 339 628 310 638 273 638 L 186 638 L 186 415 Z M 187 92 L 297 92 C 340 92 371 103 391 127 C 410 150 420 179 420 213 C 420 247 408 275 384 295 C 360 315 329 325 291 325 L 187 325 L 187 92 Z" unicode="B" />
<glyph horiz-adv-x="654" d="M 364 -10 C 319 -10 277 -1 238 15 C 198 31 164 55 135 87 C 106 119 83 158 67 205 C 50 251 42 305 42 365 C 42 421 49 472 65 518 C 81 564 103 604 131 637 C 159 669 194 695 234 713 C 274 731 318 740 366 740 C 430 740 483 728 525 705 C 566 682 599 651 624 613 L 542 548 C 524 574 501 595 474 613 C 446 630 411 639 368 639 C 300 639 248 615 210 567 C 172 519 153 452 153 364 C 153 316 159 274 171 239 C 183 204 200 176 220 154 C 240 132 264 115 291 105 C 317 94 345 89 373 89 C 418 89 456 98 486 117 C 516 136 540 161 559 192 L 636 136 C 611 93 576 58 530 31 C 484 3 428 -10 364 -10 Z" unicode="C" />
<glyph horiz-adv-x="681" d="M 81 0 L 81 730 L 288 730 C 344 730 393 721 437 704 C 481 687 518 663 548 632 C 578 601 600 563 616 519 C 632 475 640 426 640 373 C 640 320 632 271 616 225 C 600 179 577 140 547 107 C 517 73 479 47 433 28 C 387 9 335 0 275 0 L 81 0 Z M 191 93 L 275 93 C 318 93 355 100 387 114 C 419 128 445 147 465 172 C 485 196 501 226 511 260 C 521 294 526 330 526 370 C 526 453 504 518 462 565 C 420 612 361 636 286 636 L 191 636 L 191 93 Z" unicode="D" />
<glyph horiz-adv-x="525" d="M 487 0 L 81 0 L 81 730 L 468 730 L 468 632 L 189 632 L 189 412 L 454 412 L 454 315 L 189 315 L 189 98 L 487 98 L 487 0 Z" unicode="E" />
<glyph horiz-adv-x="469" d="M 439 632 L 191 632 L 191 413 L 426 413 L 426 316 L 191 316 L 191 0 L 81 0 L 81 730 L 439 730 L 439 632 Z" unicode="F" />
<glyph horiz-adv-x="699" d="M 375 371 L 657 371 L 657 140 C 632 96 595 60 546 32 C 496 4 438 -10 371 -10 C 325 -10 281 -1 241 16 C 201 34 166 59 137 91 C 107 123 84 163 67 210 C 50 256 42 308 42 365 C 42 422 50 474 67 520 C 84 566 107 606 137 638 C 167 670 202 695 243 713 C 283 731 327 740 373 740 C 440 740 493 728 532 704 C 571 680 600 653 620 625 L 541 557 C 525 577 503 596 477 613 C 451 630 415 639 371 639 C 339 639 310 633 283 621 C 256 609 233 591 214 568 C 194 545 179 516 168 482 C 157 448 152 409 152 365 C 152 321 157 282 169 247 C 180 212 196 182 216 158 C 236 134 259 115 287 102 C 314 89 343 83 375 83 C 417 83 455 90 487 106 C 519 122 543 144 559 172 L 559 274 L 375 274 L 375 371 Z" unicode="G" />
<glyph horiz-adv-x="690" d="M 608 0 L 498 0 L 498 311 L 191 311 L 191 0 L 81 0 L 81 730 L 191 730 L 191 410 L 498 410 L 498 730 L 608 730 L 608 0 Z" unicode="H" />
<glyph horiz-adv-x="281" d="M 196 0 L 85 0 L 85 730 L 196 730 L 196 0 Z" unicode="I" />
<glyph horiz-adv-x="370" d="M 299 730 L 299 191 C 299 163 294 137 286 113 C 277 88 264 66 248 48 C 231 30 210 15 186 5 C 161 -5 133 -11 102 -11 C 85 -11 68 -9 50 -7 C 32 -4 18 0 8 5 L 25 97 C 31 94 40 92 53 90 C 65 88 77 88 88 88 C 121 88 147 98 165 119 C 183 140 192 166 192 197 L 192 730 L 299 730 Z" unicode="J" />
<glyph horiz-adv-x="626" d="M 625 0 L 492 0 L 260 318 L 191 235 L 191 0 L 81 0 L 81 730 L 191 730 L 191 369 L 468 730 L 592 730 L 334 400 L 625 0 Z" unicode="K" />
<glyph horiz-adv-x="468" d="M 459 0 L 81 0 L 81 730 L 191 730 L 191 98 L 459 98 L 459 0 Z" unicode="L" />
<glyph horiz-adv-x="831" d="M 750 0 L 646 0 L 646 504 L 438 157 L 394 157 L 184 502 L 184 0 L 81 0 L 81 730 L 160 730 L 419 303 L 673 730 L 750 730 L 750 0 Z" unicode="M" />
<glyph horiz-adv-x="701" d="M 620 0 L 543 0 L 185 514 L 185 0 L 81 0 L 81 730 L 163 730 L 518 219 L 518 730 L 620 730 L 620 0 Z" unicode="N" />
<glyph horiz-adv-x="750" d="M 378 -10 C 326 -10 280 0 238 17 C 196 35 161 61 132 94 C 103 127 81 167 65 214 C 49 261 42 313 42 370 C 42 424 50 474 67 520 C 83 566 106 605 135 637 C 164 669 199 695 239 713 C 279 731 323 740 371 740 C 421 740 467 731 509 713 C 551 695 586 671 616 639 C 645 607 668 567 684 521 C 700 475 709 423 709 367 C 709 310 700 258 683 212 C 665 165 642 125 612 93 C 582 60 547 35 507 17 C 467 -1 424 -10 378 -10 Z M 380 86 C 442 86 494 110 535 159 C 576 207 597 277 597 369 C 597 453 575 520 533 568 C 490 616 436 641 370 641 C 306 641 254 617 214 571 C 174 525 154 457 154 368 C 154 322 159 281 171 246 C 183 210 199 181 219 157 C 239 133 262 116 290 104 C 318 92 348 86 380 86 Z" unicode="O" />
<glyph horiz-adv-x="555" d="M 81 0 L 81 730 L 313 730 C 344 730 373 725 400 715 C 426 705 449 691 468 673 C 487 655 502 632 513 606 C 524 579 530 549 530 516 C 530 450 510 395 470 353 C 430 311 379 290 315 290 L 191 290 L 191 0 L 81 0 Z M 190 385 L 294 385 C 334 385 365 396 387 420 C 409 443 420 475 420 516 C 420 556 407 586 382 606 C 356 626 325 636 288 636 L 190 636 L 190 385 Z" unicode="P" />
<glyph horiz-adv-x="747" d="M 640 -73 L 640 -175 C 577 -171 520 -153 470 -121 C 419 -89 382 -51 358 -7 C 309 -4 265 6 226 25 C 187 43 154 69 127 101 C 99 133 78 172 64 218 C 49 264 42 314 42 370 C 42 424 50 473 66 519 C 82 565 105 604 135 636 C 164 668 199 694 239 712 C 279 730 324 740 372 740 C 422 740 467 731 509 714 C 551 696 586 671 616 639 C 645 607 668 567 684 521 C 700 475 709 423 709 365 C 709 275 687 199 644 135 C 600 71 544 28 475 7 C 493 -16 518 -35 548 -49 C 578 -63 608 -71 640 -73 Z M 378 86 C 409 86 438 92 465 104 C 492 116 515 134 535 158 C 554 182 569 211 580 247 C 591 282 597 322 597 368 C 597 412 591 452 579 486 C 567 520 550 549 530 572 C 510 595 486 612 458 624 C 430 636 401 642 370 642 C 306 642 253 619 213 573 C 173 527 153 459 153 369 C 153 323 158 282 170 246 C 182 210 198 181 218 157 C 238 133 262 116 290 104 C 317 92 346 86 378 86 Z" unicode="Q" />
<glyph horiz-adv-x="573" d="M 81 0 L 81 730 L 289 730 C 318 730 345 725 371 717 C 397 708 419 695 437 678 C 455 661 470 640 480 615 C 490 590 496 562 496 530 C 496 500 492 473 484 449 C 476 425 465 404 452 387 C 438 370 423 356 405 346 C 387 336 368 329 349 327 L 347 323 L 558 0 L 434 0 L 243 299 L 188 299 L 188 0 L 81 0 Z M 187 391 L 267 391 C 301 391 330 402 353 424 C 376 446 388 477 388 517 C 388 555 376 584 354 605 C 332 625 304 636 271 636 L 187 636 L 187 391 Z" unicode="R" />
<glyph horiz-adv-x="509" d="M 260 -10 C 209 -10 164 -2 125 12 C 85 27 52 50 26 80 L 93 159 C 110 136 134 117 164 103 C 194 89 225 82 257 82 C 288 82 315 91 337 109 C 359 127 370 152 370 182 C 370 212 360 237 340 258 C 320 278 285 301 235 326 C 174 354 128 384 96 417 C 64 450 49 497 49 557 C 49 611 68 655 107 689 C 145 723 195 740 256 740 C 300 740 338 733 370 719 C 402 705 430 689 452 669 L 394 586 C 375 602 354 616 330 626 C 306 636 282 642 257 642 C 226 642 201 634 182 618 C 162 602 153 580 153 554 C 153 525 164 501 184 483 C 204 465 242 442 298 416 C 362 386 407 353 434 319 C 461 285 475 241 475 187 C 475 155 469 127 457 103 C 445 78 429 57 409 41 C 389 24 367 11 341 3 C 315 -5 288 -10 260 -10 Z" unicode="S" />
<glyph horiz-adv-x="493" d="M 484 632 L 300 632 L 300 0 L 190 0 L 190 632 L 9 632 L 9 730 L 484 730 L 484 632 Z" unicode="T" />
<glyph horiz-adv-x="681" d="M 605 730 L 605 251 C 605 208 597 170 583 138 C 569 105 550 78 526 56 C 502 34 473 18 441 7 C 408 -4 374 -10 338 -10 C 302 -10 269 -4 237 6 C 205 16 177 32 153 54 C 129 76 111 103 97 136 C 83 168 76 207 76 251 L 76 730 L 183 730 L 183 248 C 183 197 198 158 228 130 C 258 102 295 88 338 88 C 381 88 418 101 449 128 C 480 155 496 195 496 248 L 496 730 L 605 730 Z" unicode="U" />
<glyph horiz-adv-x="601" d="M 601 730 L 334 -5 L 261 -5 L 1 730 L 114 730 L 301 188 L 490 730 L 601 730 Z" unicode="V" />
<glyph horiz-adv-x="853" d="M 841 730 L 640 -5 L 575 -5 L 425 523 L 269 -5 L 203 -5 L 6 730 L 115 730 L 246 215 L 395 730 L 463 730 L 609 214 L 742 730 L 841 730 Z" unicode="W" />
<glyph horiz-adv-x="567" d="M 439 0 L 282 278 L 123 0 L 10 0 L 226 376 L 25 730 L 143 730 L 285 480 L 428 730 L 540 730 L 341 381 L 557 0 L 439 0 Z" unicode="X" />
<glyph horiz-adv-x="596" d="M 598 730 L 351 314 L 351 0 L 241 0 L 241 318 L -1 730 L 121 730 L 301 420 L 484 730 L 598 730 Z" unicode="Y" />
<glyph horiz-adv-x="537" d="M 504 730 L 504 681 L 162 97 L 516 97 L 516 0 L 17 0 L 17 48 L 357 632 L 45 632 L 45 730 L 504 730 Z" unicode="Z" />
<glyph horiz-adv-x="295" d="M 263 -179 L 73 -179 L 73 730 L 263 730 L 263 646 L 170 646 L 170 -93 L 263 -93 L 263 -179 Z" unicode="[" />
<glyph horiz-adv-x="322" d="M 2 730 L 93 730 L 320 0 L 228 0 L 2 730 Z" unicode="\" />
<glyph horiz-adv-x="292" d="M 220 -179 L 33 -179 L 33 -96 L 123 -96 L 123 647 L 33 647 L 33 730 L 220 730 L 220 -179 Z" unicode="]" />
<glyph horiz-adv-x="486" d="M 434 369 L 345 369 L 241 622 L 141 369 L 54 369 L 198 730 L 285 730 L 434 369 Z" unicode="^" />
<glyph horiz-adv-x="475" d="M 475 -164 L 0 -164 L 0 -78 L 475 -78 L 475 -164 Z" unicode="_" />
<glyph horiz-adv-x="500" d="M 353 547 L 252 547 L 135 713 L 254 713 L 353 547 Z" unicode="`" />
<glyph horiz-adv-x="485" d="M 430 0 L 336 0 L 336 59 C 320 39 299 22 274 10 C 249 -1 218 -8 182 -8 C 132 -8 94 5 67 33 C 39 60 26 97 26 143 C 26 197 44 238 82 266 C 120 294 171 309 235 313 L 332 319 L 332 334 C 332 362 323 382 307 396 C 290 409 266 416 236 416 C 207 416 181 411 157 401 C 133 391 113 381 97 370 L 59 443 C 79 458 105 472 137 484 C 169 496 207 502 251 502 C 304 502 347 488 380 462 C 413 436 430 395 430 339 L 430 0 Z M 334 127 L 334 243 L 241 238 C 207 236 179 228 158 214 C 137 199 127 177 127 149 C 127 124 135 105 151 93 C 167 80 188 74 213 74 C 239 74 263 79 285 90 C 306 100 322 113 334 127 Z" unicode="a" />
<glyph horiz-adv-x="541" d="M 313 -6 C 271 -6 237 3 211 22 C 185 40 167 62 157 87 L 157 0 L 62 0 L 62 776 L 158 776 L 158 397 C 166 423 184 447 211 468 C 237 488 272 499 315 499 C 373 499 421 476 457 431 C 493 386 511 328 511 256 C 511 215 505 178 495 146 C 484 114 470 86 452 64 C 434 41 413 24 389 12 C 365 0 339 -6 313 -6 Z M 282 76 C 319 76 349 91 371 122 C 393 152 405 194 405 248 C 405 298 394 339 373 369 C 352 399 322 414 282 414 C 248 414 218 400 194 372 C 170 344 158 301 158 241 C 158 183 170 141 194 115 C 218 89 248 76 282 76 Z" unicode="b" />
<glyph horiz-adv-x="469" d="M 381 149 L 455 96 C 439 70 416 46 386 24 C 356 2 314 -9 262 -9 C 226 -9 194 -2 166 9 C 137 21 113 39 93 61 C 73 83 57 110 46 141 C 35 172 30 206 30 244 C 30 280 35 313 47 345 C 58 376 74 403 95 426 C 115 449 140 467 169 480 C 198 493 230 500 265 500 C 317 500 358 488 390 465 C 421 441 443 416 456 389 L 373 341 C 363 359 349 375 332 389 C 314 403 291 410 263 410 C 225 410 194 394 171 363 C 147 332 136 293 136 246 C 136 194 148 153 172 124 C 196 94 228 80 268 80 C 300 80 324 87 342 103 C 359 118 372 133 381 149 Z" unicode="c" />
<glyph horiz-adv-x="544" d="M 236 -8 C 205 -8 177 -1 152 10 C 126 22 105 40 87 62 C 69 84 55 110 45 141 C 35 171 30 205 30 241 C 30 279 35 314 46 346 C 57 378 72 405 91 427 C 110 449 132 467 158 480 C 184 492 211 499 241 499 C 275 499 306 490 332 472 C 358 454 375 433 385 410 L 385 776 L 483 776 L 483 0 L 390 0 L 390 87 C 386 76 379 65 371 54 C 362 43 351 33 338 24 C 325 14 310 7 293 1 C 275 -5 256 -8 236 -8 Z M 262 75 C 298 75 328 90 352 121 C 375 152 387 195 387 249 C 387 305 374 347 349 374 C 324 400 295 414 261 414 C 223 414 192 399 170 369 C 147 339 136 298 136 245 C 136 195 147 154 169 122 C 191 90 222 75 262 75 Z" unicode="d" />
<glyph horiz-adv-x="509" d="M 267 -9 C 233 -9 201 -3 172 8 C 142 19 117 35 97 57 C 76 79 60 105 48 137 C 36 168 31 203 31 243 C 31 280 36 314 48 346 C 60 378 76 405 96 428 C 116 450 141 468 169 481 C 197 493 227 500 261 500 C 330 500 384 475 424 425 C 464 375 484 305 484 214 L 130 214 C 131 174 144 141 168 115 C 192 89 226 77 269 77 C 305 77 333 83 354 96 C 375 109 392 123 405 139 L 464 77 C 444 54 420 34 390 17 C 360 0 319 -9 267 -9 Z M 131 290 L 384 290 C 382 326 370 356 348 380 C 326 404 297 416 261 416 C 224 416 194 404 170 380 C 146 356 133 326 131 290 Z" unicode="e" />
<glyph horiz-adv-x="301" d="M 291 401 L 192 401 L 192 0 L 90 0 L 90 401 L 13 401 L 13 490 L 90 490 L 90 620 C 90 646 94 669 102 689 C 110 709 121 725 135 739 C 149 752 164 762 182 769 C 199 776 217 780 236 780 C 252 780 268 778 283 774 C 297 770 309 766 319 761 L 300 674 C 295 676 288 678 280 680 C 272 682 263 683 253 683 C 235 683 220 675 208 661 C 196 647 191 627 191 603 L 191 490 L 291 490 L 291 401 Z" unicode="f" />
<glyph horiz-adv-x="542" d="M 236 3 C 176 3 126 25 88 70 C 50 115 31 174 31 247 C 31 285 36 319 46 351 C 56 382 71 408 89 430 C 107 452 129 469 155 481 C 181 493 208 499 238 499 C 274 499 306 490 333 472 C 359 454 378 433 389 409 L 389 490 L 482 490 L 482 40 C 482 0 475 -35 461 -65 C 447 -95 430 -119 408 -139 C 386 -158 360 -172 331 -182 C 302 -191 273 -196 243 -196 C 195 -196 158 -191 130 -182 C 102 -172 81 -163 67 -154 L 106 -74 C 118 -82 134 -90 156 -98 C 178 -106 204 -111 235 -111 C 276 -111 311 -98 340 -74 C 369 -50 384 -14 384 33 L 384 100 C 375 76 358 54 332 34 C 306 13 274 3 236 3 Z M 263 83 C 296 83 325 97 350 125 C 374 153 387 196 387 252 C 387 304 374 343 350 371 C 326 399 296 413 260 413 C 224 413 194 398 171 368 C 147 338 136 298 136 246 C 136 195 147 155 169 126 C 191 97 223 83 263 83 Z" unicode="g" />
<glyph horiz-adv-x="527" d="M 470 0 L 368 0 L 368 328 C 368 355 359 376 342 391 C 324 406 302 414 275 414 C 247 414 221 405 198 388 C 174 370 163 343 163 307 L 163 0 L 62 0 L 62 776 L 156 776 L 156 409 C 164 434 182 455 209 473 C 235 491 269 500 311 500 C 356 500 394 487 424 463 C 454 438 470 402 470 354 L 470 0 Z" unicode="h" />
<glyph horiz-adv-x="232" d="M 63 586 L 63 691 L 169 691 L 169 586 L 63 586 Z M 65 0 L 65 490 L 167 490 L 167 0 L 65 0 Z" unicode="i" />
<glyph horiz-adv-x="245" d="M 187 586 L 82 586 L 82 691 L 187 691 L 187 586 Z M 185 490 L 185 -48 C 185 -92 172 -127 147 -155 C 121 -182 89 -196 49 -196 C 31 -196 14 -194 -4 -190 C -22 -186 -36 -181 -46 -175 L -25 -96 C -19 -99 -11 -102 -1 -104 C 9 -106 19 -107 30 -107 C 45 -107 58 -100 68 -87 C 78 -74 84 -57 84 -36 L 84 490 L 185 490 Z" unicode="j" />
<glyph horiz-adv-x="487" d="M 504 1 L 388 0 L 237 210 L 163 125 L 163 0 L 62 0 L 62 776 L 160 776 L 160 238 L 361 490 L 472 490 L 304 284 L 504 1 Z" unicode="k" />
<glyph horiz-adv-x="225" d="M 164 777 L 164 0 L 62 0 L 62 777 L 164 777 Z" unicode="l" />
<glyph horiz-adv-x="826" d="M 62 0 L 62 490 L 154 490 L 154 406 C 163 434 182 457 212 474 C 241 491 275 500 313 500 C 349 500 379 491 405 475 C 430 459 446 435 452 405 L 457 405 C 465 433 484 456 512 474 C 540 491 574 500 612 500 C 658 500 695 487 725 463 C 754 438 769 402 769 356 L 769 0 L 668 0 L 668 324 C 668 354 659 377 642 392 C 624 407 602 415 574 415 C 548 415 523 406 500 388 C 477 370 466 342 466 304 L 466 0 L 365 0 L 365 327 C 365 355 356 377 339 392 C 321 407 299 415 272 415 C 244 415 218 405 196 387 C 173 368 162 340 162 302 L 162 0 L 62 0 Z" unicode="m" />
<glyph horiz-adv-x="527" d="M 470 0 L 368 0 L 368 331 C 368 357 359 377 342 392 C 324 406 302 414 276 414 C 247 414 221 405 198 388 C 174 370 163 343 163 305 L 163 0 L 62 0 L 62 490 L 154 490 L 154 406 C 164 433 183 455 211 473 C 239 491 273 500 312 500 C 357 500 395 487 425 462 C 455 437 470 403 470 359 L 470 0 Z" unicode="n" />
<glyph horiz-adv-x="531" d="M 263 -9 C 232 -9 202 -3 174 8 C 146 19 121 35 100 57 C 78 78 61 104 49 136 C 36 167 30 203 30 243 C 30 280 36 314 48 346 C 60 377 77 404 98 427 C 118 449 143 467 171 480 C 199 493 229 500 261 500 C 294 500 325 494 355 483 C 384 471 409 455 431 434 C 453 413 470 388 482 358 C 494 328 501 294 501 257 C 501 217 494 181 482 149 C 470 116 453 88 432 65 C 411 41 386 23 357 10 C 327 -2 296 -9 263 -9 Z M 266 79 C 304 79 335 94 359 124 C 383 154 395 196 395 250 C 395 300 383 339 359 368 C 335 396 302 411 260 411 C 224 411 194 396 171 367 C 147 338 136 297 136 245 C 136 189 148 147 173 120 C 197 92 228 79 266 79 Z" unicode="o" />
<glyph horiz-adv-x="541" d="M 62 -198 L 62 490 L 154 490 L 154 392 C 162 420 181 444 209 466 C 237 488 273 499 315 499 C 374 499 421 476 457 432 C 493 388 511 329 511 256 C 511 215 505 178 495 146 C 484 113 470 86 452 64 C 434 42 412 25 388 13 C 364 1 338 -5 311 -5 C 273 -5 241 3 214 20 C 187 36 169 56 161 79 L 161 -198 L 62 -198 Z M 284 76 C 319 76 348 90 371 120 C 394 150 406 192 406 246 C 406 296 395 336 374 367 C 353 398 323 414 283 414 C 248 414 218 400 194 373 C 170 346 158 302 158 240 C 158 180 170 137 195 113 C 219 88 249 76 284 76 Z" unicode="p" />
<glyph horiz-adv-x="544" d="M 383 -198 L 383 87 C 373 64 355 43 329 23 C 303 3 270 -7 232 -7 C 202 -7 174 -1 150 11 C 125 23 104 39 86 61 C 68 83 55 109 45 139 C 35 169 31 203 31 239 C 31 279 36 315 47 347 C 58 379 73 406 92 429 C 110 451 132 469 158 481 C 183 493 210 499 239 499 C 277 499 310 489 336 469 C 362 449 380 427 389 403 L 389 490 L 482 490 L 482 -198 L 383 -198 Z M 262 75 C 296 75 326 89 350 119 C 374 149 387 192 387 248 C 387 304 374 345 350 373 C 325 400 295 414 260 414 C 221 414 191 399 169 369 C 147 339 136 298 136 245 C 136 195 147 154 169 122 C 191 90 222 75 262 75 Z" unicode="q" />
<glyph horiz-adv-x="391" d="M 393 469 L 351 382 C 339 392 326 399 313 403 C 299 407 285 410 271 410 C 258 410 245 407 232 402 C 219 397 207 389 197 379 C 187 369 178 356 172 341 C 166 326 163 309 163 289 L 163 0 L 62 0 L 62 490 L 158 490 L 158 401 C 164 424 180 446 205 468 C 230 489 261 500 299 500 C 319 500 338 497 354 491 C 370 485 383 477 393 469 Z" unicode="r" />
<glyph horiz-adv-x="405" d="M 216 -9 C 174 -9 137 -3 105 8 C 73 20 46 36 26 56 L 75 125 C 91 110 112 98 136 89 C 160 79 185 75 210 75 C 230 75 248 80 262 91 C 276 101 283 116 283 134 C 283 150 274 165 258 177 C 242 189 215 201 177 214 C 132 229 98 249 76 273 C 53 297 42 328 42 366 C 42 404 57 436 89 462 C 120 487 159 500 205 500 C 243 500 275 494 303 484 C 330 473 351 461 366 449 L 322 376 C 308 386 291 395 272 403 C 252 411 232 416 210 416 C 190 416 173 411 159 403 C 144 395 137 383 137 369 C 137 354 143 342 155 332 C 167 322 194 309 234 295 C 282 277 318 256 342 233 C 366 209 378 177 378 137 C 378 113 373 93 365 75 C 356 57 344 41 330 29 C 315 17 298 7 278 1 C 258 -5 237 -9 216 -9 Z" unicode="s" />
<glyph horiz-adv-x="295" d="M 274 96 L 287 13 C 280 8 269 4 255 0 C 241 -3 224 -5 206 -5 C 189 -5 173 -2 157 2 C 141 6 126 14 114 25 C 101 36 91 50 83 68 C 75 85 71 106 71 132 L 71 402 L 10 402 L 10 490 L 72 490 L 72 615 L 171 627 L 171 490 L 271 490 L 271 402 L 172 402 L 172 142 C 172 122 176 107 186 98 C 196 88 209 84 227 84 C 235 84 244 85 254 88 C 263 90 270 93 274 96 Z" unicode="t" />
<glyph horiz-adv-x="527" d="M 57 490 L 159 490 L 159 171 C 159 137 168 113 186 97 C 204 81 227 74 257 74 C 286 74 311 83 332 102 C 353 120 364 148 364 186 L 364 490 L 465 490 L 465 0 L 370 0 L 370 82 C 360 57 341 36 314 18 C 286 0 254 -9 216 -9 C 172 -9 134 3 103 29 C 72 55 57 93 57 144 L 57 490 Z" unicode="u" />
<glyph horiz-adv-x="457" d="M 463 490 L 261 -3 L 193 -3 L -5 490 L 104 490 L 232 159 L 360 490 L 463 490 Z" unicode="v" />
<glyph horiz-adv-x="667" d="M 441 -3 L 337 290 L 226 -3 L 160 -3 L 3 490 L 105 490 L 206 154 L 308 438 L 373 438 L 470 156 L 570 490 L 664 490 L 506 -3 L 441 -3 Z" unicode="w" />
<glyph horiz-adv-x="426" d="M 315 0 L 210 170 L 103 0 L 2 0 L 160 251 L 13 490 L 123 490 L 216 339 L 311 490 L 413 490 L 266 257 L 424 0 L 315 0 Z" unicode="x" />
<glyph horiz-adv-x="462" d="M 465 490 L 227 -88 C 208 -130 184 -159 156 -175 C 128 -191 100 -200 72 -200 C 54 -200 38 -198 26 -194 C 14 -190 5 -186 -1 -184 L 32 -97 C 34 -99 40 -101 48 -104 C 56 -106 65 -108 74 -108 C 88 -108 101 -103 113 -93 C 125 -83 136 -66 147 -43 L 181 40 L -4 490 L 104 490 L 233 158 L 363 490 L 465 490 Z" unicode="y" />
<glyph horiz-adv-x="403" d="M 381 490 L 381 444 L 157 89 L 392 89 L 392 0 L 13 0 L 13 37 L 243 401 L 25 401 L 25 490 L 381 490 Z" unicode="z" />
<glyph horiz-adv-x="289" d="M 270 -179 C 238 -179 208 -174 181 -166 C 153 -158 130 -147 111 -133 C 91 -119 76 -103 65 -85 C 53 -66 48 -46 48 -25 C 48 1 50 24 56 46 C 62 68 68 86 76 102 C 82 118 89 133 96 147 C 103 161 107 175 107 188 C 107 202 98 215 81 228 C 64 241 42 248 16 248 L 16 323 C 42 323 65 330 83 344 C 101 358 110 373 110 391 C 110 393 106 403 99 419 C 92 435 84 452 76 471 C 67 489 60 508 56 526 C 51 544 49 562 49 580 C 49 600 54 621 65 641 C 76 661 91 679 111 695 C 130 711 153 724 181 734 C 208 744 238 749 270 749 L 270 675 C 236 674 208 664 186 644 C 164 624 153 600 153 573 C 153 564 154 553 156 539 C 158 525 163 512 170 498 C 180 477 190 458 198 441 C 206 424 210 410 210 399 C 210 373 201 349 185 329 C 169 308 143 293 109 285 C 145 276 170 261 186 240 C 202 219 210 198 210 176 C 210 157 206 141 199 127 C 191 113 184 99 176 85 C 168 71 162 56 158 40 C 154 24 152 9 152 -3 C 152 -13 154 -25 160 -37 C 166 -49 174 -60 184 -70 C 194 -80 206 -88 221 -95 C 235 -101 252 -105 270 -105 L 270 -179 Z" unicode="{" />
<glyph horiz-adv-x="251" d="M 173 -179 L 77 -179 L 77 730 L 173 730 L 173 -179 Z" unicode="|" />
<glyph horiz-adv-x="289" d="M 19 -179 L 19 -105 C 37 -105 53 -101 68 -95 C 82 -88 95 -80 105 -70 C 115 -60 123 -49 129 -37 C 134 -25 137 -13 137 -3 C 137 9 135 24 131 40 C 127 56 121 71 113 85 C 105 99 98 113 90 127 C 82 141 79 157 79 176 C 79 198 87 219 103 240 C 119 261 144 276 179 285 C 145 293 119 308 103 329 C 87 349 79 373 79 399 C 79 410 83 424 91 441 C 99 458 108 477 119 498 C 125 512 130 525 132 539 C 134 553 136 564 136 573 C 136 600 124 624 102 644 C 80 664 52 674 19 675 L 19 749 C 51 749 81 744 108 734 C 135 724 158 711 178 695 C 197 679 212 661 223 641 C 234 621 240 600 240 580 C 240 562 237 544 233 526 C 229 508 222 489 214 471 C 205 452 197 435 190 419 C 183 403 180 393 180 391 C 180 373 188 358 206 344 C 224 330 246 323 273 323 L 273 248 C 246 248 224 241 208 228 C 191 215 182 202 182 188 C 182 175 185 161 192 147 C 199 133 206 118 214 102 C 220 86 226 68 232 46 C 238 24 241 1 241 -25 C 241 -46 235 -66 224 -85 C 212 -103 197 -119 178 -133 C 158 -147 135 -158 108 -166 C 80 -174 51 -179 19 -179 Z" unicode="}" />
<glyph horiz-adv-x="484" d="M 371 443 L 456 443 C 455 386 446 343 428 313 C 410 283 383 269 347 269 C 323 269 303 273 286 282 C 268 291 253 301 241 312 C 227 322 214 332 202 340 C 190 348 177 352 163 352 C 149 352 138 344 128 330 C 118 316 113 296 113 272 L 29 272 C 29 330 38 373 57 403 C 76 432 101 447 132 447 C 158 447 180 442 200 433 C 219 424 237 413 253 401 C 265 391 278 382 290 374 C 302 366 315 362 331 362 C 348 362 359 368 364 382 C 368 396 371 416 371 443 Z" unicode="~" />
<glyph horiz-adv-x="292" d="M 92 594 L 201 594 L 201 479 L 92 479 L 92 594 Z M 87 165 L 122 384 L 173 384 L 205 165 L 205 -123 L 87 -123 L 87 165 Z" unicode="¡" />
<glyph horiz-adv-x="502" d="M 488 180 C 472 158 450 137 424 117 C 398 96 361 83 315 79 L 315 -32 L 241 -32 L 241 80 C 180 88 131 116 94 162 C 56 208 38 264 38 332 C 38 365 42 396 52 425 C 62 454 75 480 93 503 C 111 525 132 544 157 559 C 182 574 210 584 241 589 L 241 695 L 315 695 L 315 592 C 360 587 397 574 426 552 C 454 530 475 507 489 481 L 418 433 C 407 449 393 464 377 478 C 360 491 339 500 315 504 L 315 164 C 344 168 367 177 384 192 C 401 207 415 222 425 237 L 488 180 Z M 140 336 C 140 294 149 258 167 230 C 185 201 210 181 241 171 L 241 499 C 209 488 185 468 167 439 C 149 409 140 375 140 336 Z" unicode="¢" />
<glyph horiz-adv-x="557" d="M 543 85 L 543 0 L 21 0 L 21 66 C 27 68 36 71 48 74 C 60 77 77 81 99 85 C 125 89 149 101 171 119 C 193 137 204 161 204 193 C 204 195 203 198 203 201 C 203 204 202 207 202 210 L 37 210 L 37 285 L 169 285 C 163 295 156 305 150 316 C 143 327 136 339 130 351 L 37 351 L 37 426 L 94 426 C 87 444 81 462 77 482 C 73 502 71 523 71 545 C 71 581 77 612 91 638 C 104 663 121 683 143 699 C 165 714 190 725 219 732 C 248 738 278 742 309 742 C 359 742 405 733 448 716 C 490 698 521 681 540 665 L 487 584 C 471 596 447 610 416 625 C 384 640 350 648 314 648 C 297 648 281 646 265 642 C 249 638 234 631 222 621 C 209 611 199 599 191 583 C 183 567 180 548 180 526 C 180 509 182 492 187 476 C 192 459 198 442 206 426 L 472 426 L 472 351 L 246 351 C 252 339 259 328 265 317 C 271 306 276 295 281 285 L 472 285 L 472 210 L 296 210 C 293 172 282 143 262 123 C 242 103 222 91 204 85 L 543 85 Z" unicode="£" />
<glyph horiz-adv-x="502" d="M 444 193 L 397 147 L 339 206 C 326 198 312 193 297 189 C 282 185 266 183 250 183 C 233 183 217 185 202 189 C 187 193 173 198 161 206 L 103 147 L 54 195 L 108 251 C 96 265 87 281 81 299 C 75 316 72 334 72 354 C 72 373 75 391 82 409 C 88 427 97 443 109 458 L 54 515 L 101 561 L 159 501 C 172 508 186 514 202 518 C 217 522 233 525 250 525 C 266 525 282 522 298 518 C 314 514 328 508 342 500 L 401 562 L 448 514 L 392 456 C 402 442 411 426 417 408 C 423 390 427 372 427 354 C 427 334 423 315 417 297 C 410 279 401 263 390 249 L 444 193 Z M 250 257 C 277 257 301 266 321 286 C 341 305 352 328 352 354 C 352 380 341 402 321 422 C 301 441 277 451 250 451 C 221 451 197 441 177 422 C 157 402 148 380 148 354 C 148 328 157 305 177 286 C 197 266 221 257 250 257 Z" unicode="¤" />
<glyph horiz-adv-x="599" d="M 527 126 L 351 126 L 351 0 L 241 0 L 241 126 L 69 126 L 69 202 L 241 202 L 241 256 L 69 256 L 69 333 L 239 333 L 21 730 L 140 730 L 300 426 L 462 730 L 574 730 L 355 333 L 526 333 L 526 256 L 351 256 L 351 202 L 527 202 L 527 126 Z" unicode="¥" />
<glyph horiz-adv-x="276" d="M 94 351 L 94 730 L 182 730 L 182 351 L 94 351 Z M 182 200 L 182 -179 L 94 -179 L 94 200 L 182 200 Z" unicode="¦" />
<glyph horiz-adv-x="631" d="M 333 -181 C 278 -181 226 -174 178 -161 C 130 -147 89 -129 57 -107 L 98 -22 C 128 -43 165 -61 207 -75 C 249 -89 289 -97 325 -97 C 357 -97 384 -89 406 -73 C 427 -57 438 -34 438 -6 C 438 20 429 39 411 53 C 393 67 368 80 338 94 L 227 143 C 197 155 170 167 147 178 C 124 189 105 201 90 214 C 74 227 63 242 55 260 C 47 277 44 298 44 323 C 44 353 51 379 66 399 C 81 419 99 437 121 451 C 102 463 88 479 80 499 C 71 519 67 543 67 573 C 67 599 73 623 85 644 C 97 665 114 683 135 697 C 156 711 181 722 211 730 C 240 738 272 742 306 742 C 366 742 415 733 453 717 C 491 700 523 682 549 664 L 502 586 C 473 606 443 623 412 639 C 381 654 345 662 303 662 C 266 662 235 654 211 638 C 186 622 174 600 174 573 C 174 553 181 536 196 523 C 210 509 232 497 261 486 L 408 425 C 465 403 508 380 538 356 C 568 331 583 296 583 250 C 583 216 571 188 548 166 C 525 144 499 130 471 124 C 486 115 503 100 521 78 C 539 56 548 28 548 -6 C 548 -33 542 -57 531 -79 C 520 -101 505 -119 486 -134 C 467 -149 444 -161 418 -169 C 392 -177 363 -181 333 -181 Z M 397 174 C 416 176 434 182 451 193 C 467 203 476 220 476 243 C 476 264 466 283 447 299 C 427 315 394 331 346 349 L 208 407 C 191 399 177 390 165 379 C 153 368 148 352 148 332 C 148 307 158 287 178 273 C 198 258 232 242 280 224 L 397 174 Z" unicode="§" />
<glyph horiz-adv-x="500" d="M 381 548 L 296 548 L 296 707 L 381 707 L 381 548 Z M 204 548 L 119 548 L 119 707 L 204 707 L 204 548 Z" unicode="¨" />
<glyph horiz-adv-x="833" d="M 416 3 C 365 3 317 12 272 32 C 227 52 188 78 155 112 C 121 145 95 184 76 229 C 56 274 47 322 47 373 C 47 423 56 471 76 516 C 95 561 121 600 155 634 C 188 667 227 693 272 713 C 317 732 365 742 416 742 C 466 742 514 732 560 713 C 605 693 644 667 678 634 C 711 600 737 561 757 516 C 776 471 786 423 786 373 C 786 322 776 274 757 229 C 737 184 711 145 678 112 C 644 78 605 52 560 32 C 514 12 466 3 416 3 Z M 417 69 C 458 69 497 77 533 93 C 569 109 601 130 628 158 C 655 185 677 217 693 254 C 709 291 717 330 717 372 C 717 413 709 452 693 489 C 677 526 655 558 628 586 C 601 613 569 635 533 651 C 497 667 458 675 417 675 C 375 675 336 667 299 651 C 262 635 230 613 203 586 C 176 558 155 526 139 489 C 123 452 115 413 115 372 C 115 330 123 291 139 254 C 155 217 176 185 203 158 C 230 130 262 109 299 93 C 336 77 375 69 417 69 Z M 586 244 C 570 219 548 198 520 182 C 492 165 457 157 416 157 C 390 157 365 161 341 171 C 317 180 295 194 277 212 C 258 230 243 252 232 279 C 221 306 216 337 216 372 C 216 406 221 437 231 465 C 241 493 254 516 272 536 C 290 555 311 570 335 580 C 359 590 384 596 412 596 C 456 596 491 588 519 573 C 546 558 567 539 583 515 L 511 463 C 501 477 489 488 474 498 C 458 507 438 512 414 512 C 382 512 356 498 336 471 C 315 444 305 410 305 370 C 305 327 316 294 339 270 C 362 246 388 235 417 235 C 439 235 459 240 476 250 C 493 260 507 274 518 291 L 586 244 Z" unicode="©" />
<glyph horiz-adv-x="459" d="M 411 313 L 328 313 L 328 370 C 313 349 292 333 266 323 C 239 312 210 307 180 307 C 136 307 101 318 75 342 C 49 365 37 397 37 439 C 37 483 54 518 90 542 C 125 566 173 579 235 583 L 325 589 L 325 595 C 325 615 317 631 301 642 C 285 653 262 659 233 659 C 208 659 184 654 160 646 C 136 638 115 627 97 615 L 63 685 C 84 701 110 714 142 725 C 173 736 208 742 248 742 C 298 742 337 730 367 707 C 396 683 411 645 411 593 L 411 313 Z M 326 434 L 326 518 L 229 513 C 199 511 174 506 155 496 C 136 486 127 469 127 445 C 127 426 134 411 150 401 C 165 390 185 385 210 385 C 232 385 254 389 275 398 C 296 406 313 418 326 434 Z M 421 182 L 44 182 L 44 266 L 421 266 L 421 182 Z" unicode="ª" />
<glyph horiz-adv-x="457" d="M 213 85 L 27 258 L 27 324 L 213 496 L 213 391 L 115 290 L 213 193 L 213 85 Z M 427 85 L 240 258 L 240 324 L 427 496 L 427 391 L 330 290 L 427 194 L 427 85 Z" unicode="«" />
<glyph horiz-adv-x="495" d="M 449 392 L 449 134 L 363 134 L 363 305 L 30 305 L 30 392 L 449 392 Z" unicode="¬" />
<glyph horiz-adv-x="833" d="M 416 3 C 365 3 317 12 272 32 C 227 52 188 78 155 112 C 121 145 95 184 76 229 C 56 274 47 322 47 373 C 47 423 56 471 76 516 C 95 561 121 600 155 634 C 188 667 227 693 272 713 C 317 732 365 742 416 742 C 466 742 514 732 560 713 C 605 693 644 667 678 634 C 711 600 737 561 757 516 C 776 471 786 423 786 373 C 786 322 776 274 757 229 C 737 184 711 145 678 112 C 644 78 605 52 560 32 C 514 12 466 3 416 3 Z M 416 69 C 457 69 496 76 533 92 C 569 108 601 129 628 156 C 655 183 677 215 693 252 C 709 289 717 329 717 372 C 717 414 709 454 693 491 C 677 528 655 560 628 588 C 601 615 569 636 533 652 C 496 668 457 676 416 676 C 374 676 335 668 299 652 C 262 636 230 614 203 587 C 176 559 155 527 139 490 C 123 453 115 414 115 372 C 115 330 123 290 139 253 C 155 216 176 184 203 157 C 230 129 262 108 299 92 C 335 76 374 69 416 69 Z M 276 165 L 276 598 L 436 598 C 454 598 471 595 489 591 C 506 586 521 579 535 569 C 549 559 560 546 568 531 C 576 515 581 497 581 477 C 581 439 571 410 551 391 C 531 371 509 360 487 357 L 486 353 L 617 165 L 524 165 L 413 333 L 357 333 L 357 165 L 276 165 Z M 356 402 L 439 402 C 455 402 470 407 483 419 C 495 430 502 446 502 468 C 502 489 495 504 481 513 C 467 521 450 526 430 526 L 356 526 L 356 402 Z" unicode="®" />
<glyph horiz-adv-x="500" d="M 380 564 L 120 564 L 120 645 L 380 645 L 380 564 Z" unicode="¯" />
<glyph horiz-adv-x="429" d="M 214 373 C 188 373 164 377 142 387 C 120 397 100 410 84 427 C 67 443 54 463 44 486 C 34 508 30 532 30 558 C 30 583 34 607 44 629 C 54 651 67 671 84 688 C 100 704 120 717 142 727 C 164 737 188 742 214 742 C 239 742 263 737 286 727 C 308 717 328 704 345 688 C 361 671 374 651 384 629 C 394 607 399 583 399 558 C 399 532 394 508 384 486 C 374 463 361 443 345 427 C 328 410 308 397 286 387 C 263 377 239 373 214 373 Z M 214 454 C 242 454 267 464 288 484 C 309 504 320 529 320 558 C 320 586 309 611 288 631 C 267 651 242 662 214 662 C 185 662 160 651 140 631 C 119 611 109 586 109 558 C 109 529 119 504 140 484 C 160 464 185 454 214 454 Z" unicode="°" />
<glyph horiz-adv-x="495" d="M 470 291 L 291 291 L 291 111 L 205 111 L 205 291 L 24 291 L 24 370 L 205 370 L 205 551 L 291 551 L 291 370 L 470 370 L 470 291 Z M 466 23 L 30 23 L 30 99 L 466 99 L 466 23 Z" unicode="±" />
<glyph horiz-adv-x="337" d="M 307 372 L 24 372 L 24 405 L 179 563 C 185 569 190 576 196 585 C 202 594 205 605 205 618 C 205 630 200 641 192 651 C 183 661 170 666 153 666 C 132 666 118 659 110 647 C 102 635 98 620 98 604 L 19 604 C 19 642 31 674 57 701 C 82 727 117 741 163 741 C 207 741 240 730 262 710 C 284 690 295 665 295 637 C 295 610 290 588 281 570 C 271 552 261 538 251 528 L 168 445 L 307 445 L 307 372 Z" unicode="²" />
<glyph horiz-adv-x="346" d="M 227 569 C 254 564 275 553 291 537 C 307 520 315 500 315 477 C 315 465 312 452 308 439 C 303 425 295 413 283 402 C 271 391 255 382 235 375 C 215 367 191 364 161 364 C 119 364 86 369 63 379 C 39 389 21 399 9 409 L 58 459 C 68 452 82 446 98 440 C 114 434 133 432 156 432 C 185 432 205 437 217 448 C 229 459 235 473 235 490 C 235 507 227 518 212 524 C 197 529 179 532 159 532 L 86 532 L 86 595 L 153 595 C 172 595 188 598 200 605 C 212 611 218 621 218 634 C 218 646 212 655 202 661 C 192 667 176 671 156 671 C 138 671 121 667 105 660 C 89 653 76 645 68 637 L 20 685 C 33 699 51 712 73 724 C 95 736 127 742 168 742 C 208 742 240 733 264 717 C 288 700 300 678 300 651 C 300 629 292 611 278 597 C 263 583 246 573 227 569 Z" unicode="³" />
<glyph horiz-adv-x="500" d="M 148 550 L 246 716 L 366 716 L 248 550 L 148 550 Z" unicode="´" />
<glyph horiz-adv-x="588" d="M 71 -135 L 71 496 L 171 496 L 171 167 C 171 139 182 116 204 99 C 226 81 252 73 284 73 C 300 73 315 75 331 81 C 346 86 360 94 372 104 C 384 114 394 127 402 142 C 409 157 413 174 413 194 L 413 496 L 513 496 L 513 0 L 421 0 L 421 93 C 410 66 390 43 360 24 C 330 4 298 -5 264 -6 C 242 -6 221 -2 203 6 C 184 15 171 28 163 45 L 163 -135 L 71 -135 Z" unicode="µ" />
<glyph horiz-adv-x="649" d="M 586 -180 L 517 -179 L 517 650 L 420 650 L 420 -179 L 350 -179 L 350 263 L 256 263 C 226 263 197 269 169 281 C 141 293 116 310 95 331 C 73 352 56 377 43 405 C 30 433 24 462 24 493 C 24 526 30 557 42 586 C 54 615 71 640 93 661 C 115 682 141 699 172 711 C 203 723 237 730 275 730 L 586 730 L 586 -180 Z M 351 347 L 351 646 L 302 646 C 258 646 224 631 200 603 C 176 575 164 539 164 496 C 164 456 175 421 199 391 C 223 361 254 347 293 347 L 351 347 Z" unicode="¶" />
<glyph horiz-adv-x="261" d="M 182 273 L 79 273 L 79 410 L 182 410 L 182 273 Z" unicode="·" />
<glyph horiz-adv-x="500" d="M 255 -187 C 231 -187 208 -184 184 -178 C 160 -172 141 -164 128 -155 L 143 -111 C 151 -116 163 -121 178 -127 C 193 -132 209 -135 227 -135 C 240 -135 252 -132 262 -126 C 272 -120 277 -111 277 -101 C 277 -89 272 -81 263 -76 C 254 -71 244 -69 234 -69 C 227 -69 221 -69 215 -70 C 209 -71 204 -73 198 -76 L 184 -60 L 243 14 L 302 14 L 254 -47 C 286 -41 313 -45 335 -57 C 357 -69 368 -87 368 -111 C 368 -135 356 -154 334 -167 C 311 -180 285 -187 255 -187 Z" unicode="¸" />
<glyph horiz-adv-x="321" d="M 137 372 L 137 632 C 129 621 116 611 96 603 C 76 595 59 590 47 588 L 47 678 C 71 680 93 687 111 697 C 129 707 148 722 168 740 L 230 740 L 230 372 L 137 372 Z" unicode="¹" />
<glyph horiz-adv-x="463" d="M 228 305 C 202 305 176 309 152 319 C 128 329 106 343 88 361 C 69 379 54 402 43 429 C 32 456 27 487 27 521 C 27 551 32 579 43 606 C 54 632 69 655 87 675 C 105 695 127 710 152 722 C 176 734 202 740 230 740 C 258 740 285 735 311 725 C 336 715 358 701 376 683 C 394 665 409 643 420 617 C 430 591 436 562 436 531 C 436 498 430 468 419 440 C 408 412 393 389 375 369 C 356 349 334 333 309 322 C 283 310 256 305 228 305 Z M 229 388 C 263 388 291 401 313 427 C 335 453 346 487 346 529 C 346 567 335 598 315 623 C 295 647 267 660 231 660 C 197 660 169 647 148 621 C 127 595 117 561 117 519 C 117 479 127 447 148 423 C 169 399 196 388 229 388 Z M 44 182 L 44 266 L 418 266 L 418 182 L 44 182 Z" unicode="º" />
<glyph horiz-adv-x="459" d="M 30 496 L 217 322 L 217 257 L 30 85 L 30 190 L 127 291 L 30 387 L 30 496 Z M 245 496 L 431 322 L 431 257 L 245 85 L 245 190 L 343 291 L 245 387 L 245 496 Z" unicode="»" />
<glyph horiz-adv-x="695" d="M 8 0 L 8 0 Z M 98 372 L 98 632 C 90 621 77 611 57 603 C 37 595 20 590 8 588 L 8 678 C 32 680 54 687 72 697 C 90 707 109 722 129 740 L 191 740 L 191 372 L 98 372 Z M 575 730 L 213 0 L 126 0 L 488 730 L 575 730 Z M 385 81 L 385 142 L 569 365 L 627 365 L 627 146 L 687 146 L 687 81 L 627 81 L 627 1 L 544 1 L 544 81 L 385 81 Z M 458 137 L 546 137 L 546 245 L 458 137 Z" unicode="¼" />
<glyph horiz-adv-x="760" d="M 8 0 L 8 0 Z M 98 372 L 98 632 C 90 621 77 611 57 603 C 37 595 20 590 8 588 L 8 678 C 32 680 54 687 72 697 C 90 707 109 722 129 740 L 191 740 L 191 372 L 98 372 Z M 575 730 L 213 0 L 126 0 L 488 730 L 575 730 Z M 738 0 L 455 0 L 455 33 L 610 191 C 616 197 621 204 627 213 C 633 222 636 233 636 246 C 636 258 631 269 623 279 C 614 289 601 294 584 294 C 563 294 549 287 541 275 C 533 263 529 248 529 232 L 450 232 C 450 270 462 302 488 329 C 513 355 548 369 594 369 C 638 369 671 358 693 338 C 715 318 726 293 726 265 C 726 238 721 216 712 198 C 702 180 692 166 682 156 L 599 73 L 738 73 L 738 0 Z" unicode="½" />
<glyph horiz-adv-x="754" d="M 9 0 L 9 0 Z M 634 730 L 272 0 L 185 0 L 547 730 L 634 730 Z M 444 81 L 444 142 L 628 365 L 686 365 L 686 146 L 746 146 L 746 81 L 686 81 L 686 1 L 603 1 L 603 81 L 444 81 Z M 517 137 L 605 137 L 605 245 L 517 137 Z M 227 569 C 254 564 275 553 291 537 C 307 520 315 500 315 477 C 315 465 312 452 308 439 C 303 425 295 413 283 402 C 271 391 255 382 235 375 C 215 367 191 364 161 364 C 119 364 86 369 63 379 C 39 389 21 399 9 409 L 58 459 C 68 452 82 446 98 440 C 114 434 133 432 156 432 C 185 432 205 437 217 448 C 229 459 235 473 235 490 C 235 507 227 518 212 524 C 197 529 179 532 159 532 L 86 532 L 86 595 L 153 595 C 172 595 188 598 200 605 C 212 611 218 621 218 634 C 218 646 212 655 202 661 C 192 667 176 671 156 671 C 138 671 121 667 105 660 C 89 653 76 645 68 637 L 20 685 C 33 699 51 712 73 724 C 95 736 127 742 168 742 C 208 742 240 733 264 717 C 288 700 300 678 300 651 C 300 629 292 611 278 597 C 263 583 246 573 227 569 Z" unicode="¾" />
<glyph horiz-adv-x="462" d="M 192 476 L 192 594 L 306 594 L 306 476 L 192 476 Z M 232 -143 C 170 -143 119 -127 80 -96 C 40 -65 21 -22 21 34 C 21 60 24 83 32 103 C 40 123 49 141 61 157 C 73 173 86 187 100 200 C 114 213 127 225 140 236 C 164 256 180 279 188 307 C 196 334 200 361 201 388 L 302 388 C 302 342 296 304 286 276 C 275 248 255 221 226 196 C 202 176 179 155 159 133 C 139 111 129 83 129 49 C 129 17 140 -7 163 -25 C 185 -43 213 -53 246 -53 C 275 -53 301 -45 325 -31 C 349 -17 368 0 383 20 L 449 -43 C 427 -71 398 -95 361 -114 C 323 -133 280 -143 232 -143 Z" unicode="¿" />
<glyph horiz-adv-x="602" d="M 1 0 L 1 0 Z M 601 0 L 489 0 L 425 177 L 169 177 L 108 0 L 1 0 L 267 733 L 338 733 L 601 0 Z M 400 265 L 297 552 L 195 265 L 400 265 Z M 298 787 L 298 787 Z M 407 787 L 306 787 L 189 953 L 308 953 L 407 787 Z" unicode="À" />
<glyph horiz-adv-x="602" d="M 1 0 L 1 0 Z M 601 0 L 489 0 L 425 177 L 169 177 L 108 0 L 1 0 L 267 733 L 338 733 L 601 0 Z M 400 265 L 297 552 L 195 265 L 400 265 Z M 298 790 L 298 790 Z M 190 790 L 288 956 L 408 956 L 290 790 L 190 790 Z" unicode="Á" />
<glyph horiz-adv-x="602" d="M 1 0 L 1 0 Z M 601 0 L 489 0 L 425 177 L 169 177 L 108 0 L 1 0 L 267 733 L 338 733 L 601 0 Z M 400 265 L 297 552 L 195 265 L 400 265 Z M 298 788 L 298 788 Z M 462 788 L 371 788 L 298 892 L 224 788 L 135 788 L 250 960 L 347 960 L 462 788 Z" unicode="Â" />
<glyph horiz-adv-x="602" d="M 1 0 L 1 0 Z M 601 0 L 489 0 L 425 177 L 169 177 L 108 0 L 1 0 L 267 733 L 338 733 L 601 0 Z M 400 265 L 297 552 L 195 265 L 400 265 Z M 298 793 L 298 793 Z M 387 934 L 464 934 C 464 886 457 850 443 827 C 429 804 410 793 387 793 C 368 793 352 796 338 804 C 324 811 313 818 303 825 C 293 831 283 837 274 844 C 264 850 255 854 246 854 C 237 854 229 848 223 838 C 217 828 213 814 213 797 L 136 797 C 136 844 145 879 164 903 C 183 926 203 938 224 938 C 240 938 255 934 267 927 C 279 920 291 912 303 904 C 311 897 320 891 328 885 C 336 879 345 877 354 877 C 362 877 370 881 377 891 C 383 901 387 915 387 934 Z" unicode="Ã" />
<glyph horiz-adv-x="602" d="M 1 0 L 1 0 Z M 601 0 L 489 0 L 425 177 L 169 177 L 108 0 L 1 0 L 267 733 L 338 733 L 601 0 Z M 400 265 L 297 552 L 195 265 L 400 265 Z M 298 788 L 298 788 Z M 429 788 L 344 788 L 344 947 L 429 947 L 429 788 Z M 252 788 L 167 788 L 167 947 L 252 947 L 252 788 Z" unicode="Ä" />
<glyph horiz-adv-x="602" d="M 1 0 L 1 0 Z M 601 0 L 489 0 L 425 177 L 169 177 L 108 0 L 1 0 L 267 733 L 338 733 L 601 0 Z M 400 265 L 297 552 L 195 265 L 400 265 Z M 298 782 L 298 782 Z M 298 782 C 265 782 237 793 214 817 C 190 840 179 868 179 902 C 179 934 190 962 214 986 C 237 1009 265 1021 298 1021 C 332 1021 360 1009 384 986 C 407 962 419 934 419 902 C 419 868 407 840 384 817 C 360 793 332 782 298 782 Z M 299 843 C 315 843 328 848 339 860 C 349 871 355 885 355 902 C 355 918 349 931 339 943 C 328 954 315 960 299 960 C 283 960 269 954 258 943 C 246 931 241 918 241 902 C 241 885 246 871 258 860 C 269 848 283 843 299 843 Z" unicode="Å" />
<glyph horiz-adv-x="899" d="M 862 0 L 460 0 L 460 225 L 228 225 L 97 0 L -15 0 L 404 730 L 843 730 L 843 634 L 564 634 L 564 410 L 830 410 L 830 316 L 564 316 L 564 96 L 862 96 L 862 0 Z M 460 314 L 460 647 L 275 314 L 460 314 Z" unicode="Æ" />
<glyph horiz-adv-x="654" d="M 42 0 L 42 0 Z M 364 -10 C 319 -10 277 -1 238 15 C 198 31 164 55 135 87 C 106 119 83 158 67 205 C 50 251 42 305 42 365 C 42 421 49 472 65 518 C 81 564 103 604 131 637 C 159 669 194 695 234 713 C 274 731 318 740 366 740 C 430 740 483 728 525 705 C 566 682 599 651 624 613 L 542 548 C 524 574 501 595 474 613 C 446 630 411 639 368 639 C 300 639 248 615 210 567 C 172 519 153 452 153 364 C 153 316 159 274 171 239 C 183 204 200 176 220 154 C 240 132 264 115 291 105 C 317 94 345 89 373 89 C 418 89 456 98 486 117 C 516 136 540 161 559 192 L 636 136 C 611 93 576 58 530 31 C 484 3 428 -10 364 -10 Z M 356 -4 L 356 -4 Z M 363 -191 C 339 -191 316 -188 292 -182 C 268 -176 249 -168 236 -159 L 251 -115 C 259 -120 271 -125 286 -131 C 301 -136 317 -139 335 -139 C 348 -139 360 -136 370 -130 C 380 -124 385 -115 385 -105 C 385 -93 380 -85 371 -80 C 362 -75 352 -73 342 -73 C 335 -73 329 -73 323 -74 C 317 -75 312 -77 306 -80 L 292 -64 L 351 10 L 410 10 L 362 -51 C 394 -45 421 -49 443 -61 C 465 -73 476 -91 476 -115 C 476 -139 464 -158 442 -171 C 419 -184 393 -191 363 -191 Z" unicode="Ç" />
<glyph horiz-adv-x="525" d="M 81 0 L 81 0 Z M 487 0 L 81 0 L 81 730 L 468 730 L 468 632 L 189 632 L 189 412 L 454 412 L 454 315 L 189 315 L 189 98 L 487 98 L 487 0 Z M 278 787 L 278 787 Z M 387 787 L 286 787 L 169 953 L 288 953 L 387 787 Z" unicode="È" />
<glyph horiz-adv-x="525" d="M 81 0 L 81 0 Z M 487 0 L 81 0 L 81 730 L 468 730 L 468 632 L 189 632 L 189 412 L 454 412 L 454 315 L 189 315 L 189 98 L 487 98 L 487 0 Z M 278 790 L 278 790 Z M 170 790 L 268 956 L 388 956 L 270 790 L 170 790 Z" unicode="É" />
<glyph horiz-adv-x="525" d="M 81 0 L 81 0 Z M 487 0 L 81 0 L 81 730 L 468 730 L 468 632 L 189 632 L 189 412 L 454 412 L 454 315 L 189 315 L 189 98 L 487 98 L 487 0 Z M 278 788 L 278 788 Z M 442 788 L 351 788 L 278 892 L 204 788 L 115 788 L 230 960 L 327 960 L 442 788 Z" unicode="Ê" />
<glyph horiz-adv-x="525" d="M 81 0 L 81 0 Z M 487 0 L 81 0 L 81 730 L 468 730 L 468 632 L 189 632 L 189 412 L 454 412 L 454 315 L 189 315 L 189 98 L 487 98 L 487 0 Z M 278 788 L 278 788 Z M 409 788 L 324 788 L 324 947 L 409 947 L 409 788 Z M 232 788 L 147 788 L 147 947 L 232 947 L 232 788 Z" unicode="Ë" />
<glyph horiz-adv-x="281" d="M 31 0 L 31 0 Z M 196 0 L 85 0 L 85 730 L 196 730 L 196 0 Z M 140 787 L 140 787 Z M 249 787 L 148 787 L 31 953 L 150 953 L 249 787 Z" unicode="Ì" />
<glyph horiz-adv-x="281" d="M 32 0 L 32 0 Z M 196 0 L 85 0 L 85 730 L 196 730 L 196 0 Z M 140 790 L 140 790 Z M 32 790 L 130 956 L 250 956 L 132 790 L 32 790 Z" unicode="Í" />
<glyph horiz-adv-x="281" d="M 0 0 L 0 0 Z M 196 0 L 85 0 L 85 730 L 196 730 L 196 0 Z M 140 788 L 140 788 Z M 304 788 L 213 788 L 140 892 L 66 788 L -23 788 L 92 960 L 189 960 L 304 788 Z" unicode="Î" />
<glyph horiz-adv-x="281" d="M 9 0 L 9 0 Z M 196 0 L 85 0 L 85 730 L 196 730 L 196 0 Z M 140 788 L 140 788 Z M 271 788 L 186 788 L 186 947 L 271 947 L 271 788 Z M 94 788 L 9 788 L 9 947 L 94 947 L 94 788 Z" unicode="Ï" />
<glyph horiz-adv-x="681" d="M 640 365 C 640 314 632 266 616 222 C 600 178 577 139 547 106 C 517 73 479 47 433 28 C 387 9 335 0 275 0 L 81 0 L 81 316 L 29 316 L 29 400 L 81 400 L 81 730 L 288 730 C 344 730 394 721 438 704 C 482 686 518 662 548 630 C 578 598 600 560 616 515 C 632 470 640 420 640 365 Z M 189 89 L 272 89 C 318 89 357 96 389 111 C 421 125 448 145 468 170 C 488 194 503 223 513 257 C 522 290 527 325 527 363 C 527 452 506 520 464 568 C 422 616 363 640 289 640 L 189 640 L 189 400 L 348 400 L 348 316 L 189 316 L 189 89 Z" unicode="Ð" />
<glyph horiz-adv-x="701" d="M 81 0 L 81 0 Z M 620 0 L 543 0 L 185 514 L 185 0 L 81 0 L 81 730 L 163 730 L 518 219 L 518 730 L 620 730 L 620 0 Z M 351 793 L 351 793 Z M 440 934 L 517 934 C 517 886 510 850 496 827 C 482 804 463 793 440 793 C 421 793 405 796 391 804 C 377 811 366 818 356 825 C 346 831 336 837 327 844 C 317 850 308 854 299 854 C 290 854 282 848 276 838 C 270 828 266 814 266 797 L 189 797 C 189 844 198 879 217 903 C 236 926 256 938 277 938 C 293 938 308 934 320 927 C 332 920 344 912 356 904 C 364 897 373 891 381 885 C 389 879 398 877 407 877 C 415 877 423 881 430 891 C 436 901 440 915 440 934 Z" unicode="Ñ" />
<glyph horiz-adv-x="750" d="M 42 0 L 42 0 Z M 378 -10 C 326 -10 280 0 238 17 C 196 35 161 61 132 94 C 103 127 81 167 65 214 C 49 261 42 313 42 370 C 42 424 50 474 67 520 C 83 566 106 605 135 637 C 164 669 199 695 239 713 C 279 731 323 740 371 740 C 421 740 467 731 509 713 C 551 695 586 671 616 639 C 645 607 668 567 684 521 C 700 475 709 423 709 367 C 709 310 700 258 683 212 C 665 165 642 125 612 93 C 582 60 547 35 507 17 C 467 -1 424 -10 378 -10 Z M 380 86 C 442 86 494 110 535 159 C 576 207 597 277 597 369 C 597 453 575 520 533 568 C 490 616 436 641 370 641 C 306 641 254 617 214 571 C 174 525 154 457 154 368 C 154 322 159 281 171 246 C 183 210 199 181 219 157 C 239 133 262 116 290 104 C 318 92 348 86 380 86 Z M 372 787 L 372 787 Z M 481 787 L 380 787 L 263 953 L 382 953 L 481 787 Z" unicode="Ò" />
<glyph horiz-adv-x="750" d="M 42 0 L 42 0 Z M 378 -10 C 326 -10 280 0 238 17 C 196 35 161 61 132 94 C 103 127 81 167 65 214 C 49 261 42 313 42 370 C 42 424 50 474 67 520 C 83 566 106 605 135 637 C 164 669 199 695 239 713 C 279 731 323 740 371 740 C 421 740 467 731 509 713 C 551 695 586 671 616 639 C 645 607 668 567 684 521 C 700 475 709 423 709 367 C 709 310 700 258 683 212 C 665 165 642 125 612 93 C 582 60 547 35 507 17 C 467 -1 424 -10 378 -10 Z M 380 86 C 442 86 494 110 535 159 C 576 207 597 277 597 369 C 597 453 575 520 533 568 C 490 616 436 641 370 641 C 306 641 254 617 214 571 C 174 525 154 457 154 368 C 154 322 159 281 171 246 C 183 210 199 181 219 157 C 239 133 262 116 290 104 C 318 92 348 86 380 86 Z M 372 790 L 372 790 Z M 264 790 L 362 956 L 482 956 L 364 790 L 264 790 Z" unicode="Ó" />
<glyph horiz-adv-x="750" d="M 42 0 L 42 0 Z M 378 -10 C 326 -10 280 0 238 17 C 196 35 161 61 132 94 C 103 127 81 167 65 214 C 49 261 42 313 42 370 C 42 424 50 474 67 520 C 83 566 106 605 135 637 C 164 669 199 695 239 713 C 279 731 323 740 371 740 C 421 740 467 731 509 713 C 551 695 586 671 616 639 C 645 607 668 567 684 521 C 700 475 709 423 709 367 C 709 310 700 258 683 212 C 665 165 642 125 612 93 C 582 60 547 35 507 17 C 467 -1 424 -10 378 -10 Z M 380 86 C 442 86 494 110 535 159 C 576 207 597 277 597 369 C 597 453 575 520 533 568 C 490 616 436 641 370 641 C 306 641 254 617 214 571 C 174 525 154 457 154 368 C 154 322 159 281 171 246 C 183 210 199 181 219 157 C 239 133 262 116 290 104 C 318 92 348 86 380 86 Z M 372 788 L 372 788 Z M 536 788 L 445 788 L 372 892 L 298 788 L 209 788 L 324 960 L 421 960 L 536 788 Z" unicode="Ô" />
<glyph horiz-adv-x="750" d="M 42 0 L 42 0 Z M 378 -10 C 326 -10 280 0 238 17 C 196 35 161 61 132 94 C 103 127 81 167 65 214 C 49 261 42 313 42 370 C 42 424 50 474 67 520 C 83 566 106 605 135 637 C 164 669 199 695 239 713 C 279 731 323 740 371 740 C 421 740 467 731 509 713 C 551 695 586 671 616 639 C 645 607 668 567 684 521 C 700 475 709 423 709 367 C 709 310 700 258 683 212 C 665 165 642 125 612 93 C 582 60 547 35 507 17 C 467 -1 424 -10 378 -10 Z M 380 86 C 442 86 494 110 535 159 C 576 207 597 277 597 369 C 597 453 575 520 533 568 C 490 616 436 641 370 641 C 306 641 254 617 214 571 C 174 525 154 457 154 368 C 154 322 159 281 171 246 C 183 210 199 181 219 157 C 239 133 262 116 290 104 C 318 92 348 86 380 86 Z M 372 793 L 372 793 Z M 461 934 L 538 934 C 538 886 531 850 517 827 C 503 804 484 793 461 793 C 442 793 426 796 412 804 C 398 811 387 818 377 825 C 367 831 357 837 348 844 C 338 850 329 854 320 854 C 311 854 303 848 297 838 C 291 828 287 814 287 797 L 210 797 C 210 844 219 879 238 903 C 257 926 277 938 298 938 C 314 938 329 934 341 927 C 353 920 365 912 377 904 C 385 897 394 891 402 885 C 410 879 419 877 428 877 C 436 877 444 881 451 891 C 457 901 461 915 461 934 Z" unicode="Õ" />
<glyph horiz-adv-x="750" d="M 42 0 L 42 0 Z M 378 -10 C 326 -10 280 0 238 17 C 196 35 161 61 132 94 C 103 127 81 167 65 214 C 49 261 42 313 42 370 C 42 424 50 474 67 520 C 83 566 106 605 135 637 C 164 669 199 695 239 713 C 279 731 323 740 371 740 C 421 740 467 731 509 713 C 551 695 586 671 616 639 C 645 607 668 567 684 521 C 700 475 709 423 709 367 C 709 310 700 258 683 212 C 665 165 642 125 612 93 C 582 60 547 35 507 17 C 467 -1 424 -10 378 -10 Z M 380 86 C 442 86 494 110 535 159 C 576 207 597 277 597 369 C 597 453 575 520 533 568 C 490 616 436 641 370 641 C 306 641 254 617 214 571 C 174 525 154 457 154 368 C 154 322 159 281 171 246 C 183 210 199 181 219 157 C 239 133 262 116 290 104 C 318 92 348 86 380 86 Z M 372 788 L 372 788 Z M 503 788 L 418 788 L 418 947 L 503 947 L 503 788 Z M 326 788 L 241 788 L 241 947 L 326 947 L 326 788 Z" unicode="Ö" />
<glyph horiz-adv-x="495" d="M 113 140 L 57 196 L 191 330 L 58 463 L 114 520 L 248 387 L 382 520 L 438 463 L 304 330 L 438 197 L 382 138 L 248 275 L 113 140 Z" unicode="×" />
<glyph horiz-adv-x="750" d="M 709 367 C 709 310 700 258 683 212 C 665 165 642 125 612 93 C 582 60 547 35 507 17 C 467 -1 424 -10 378 -10 C 334 -10 293 -3 256 11 C 218 25 185 44 157 70 L 93 -3 L 40 44 L 110 123 C 88 155 71 192 59 234 C 47 276 42 321 42 370 C 42 424 50 474 67 520 C 83 566 106 605 135 637 C 164 669 199 695 239 713 C 279 731 323 740 371 740 C 414 740 454 733 491 720 C 528 707 561 689 589 665 L 664 749 L 718 702 L 638 612 C 660 580 678 544 690 503 C 702 461 709 416 709 367 Z M 154 368 C 154 336 156 306 162 280 C 168 253 176 229 186 209 L 518 584 C 499 602 477 616 452 626 C 426 636 399 641 370 641 C 306 641 254 617 214 571 C 174 525 154 457 154 368 Z M 597 369 C 597 399 593 428 587 455 C 581 481 572 505 562 526 L 227 148 C 247 127 270 111 296 101 C 322 91 350 86 380 86 C 442 86 494 110 535 159 C 576 207 597 277 597 369 Z" unicode="Ø" />
<glyph horiz-adv-x="681" d="M 76 0 L 76 0 Z M 605 730 L 605 251 C 605 208 597 170 583 138 C 569 105 550 78 526 56 C 502 34 473 18 441 7 C 408 -4 374 -10 338 -10 C 302 -10 269 -4 237 6 C 205 16 177 32 153 54 C 129 76 111 103 97 136 C 83 168 76 207 76 251 L 76 730 L 183 730 L 183 248 C 183 197 198 158 228 130 C 258 102 295 88 338 88 C 381 88 418 101 449 128 C 480 155 496 195 496 248 L 496 730 L 605 730 Z M 339 787 L 339 787 Z M 448 787 L 347 787 L 230 953 L 349 953 L 448 787 Z" unicode="Ù" />
<glyph horiz-adv-x="681" d="M 76 0 L 76 0 Z M 605 730 L 605 251 C 605 208 597 170 583 138 C 569 105 550 78 526 56 C 502 34 473 18 441 7 C 408 -4 374 -10 338 -10 C 302 -10 269 -4 237 6 C 205 16 177 32 153 54 C 129 76 111 103 97 136 C 83 168 76 207 76 251 L 76 730 L 183 730 L 183 248 C 183 197 198 158 228 130 C 258 102 295 88 338 88 C 381 88 418 101 449 128 C 480 155 496 195 496 248 L 496 730 L 605 730 Z M 339 790 L 339 790 Z M 231 790 L 329 956 L 449 956 L 331 790 L 231 790 Z" unicode="Ú" />
<glyph horiz-adv-x="681" d="M 76 0 L 76 0 Z M 605 730 L 605 251 C 605 208 597 170 583 138 C 569 105 550 78 526 56 C 502 34 473 18 441 7 C 408 -4 374 -10 338 -10 C 302 -10 269 -4 237 6 C 205 16 177 32 153 54 C 129 76 111 103 97 136 C 83 168 76 207 76 251 L 76 730 L 183 730 L 183 248 C 183 197 198 158 228 130 C 258 102 295 88 338 88 C 381 88 418 101 449 128 C 480 155 496 195 496 248 L 496 730 L 605 730 Z M 339 788 L 339 788 Z M 503 788 L 412 788 L 339 892 L 265 788 L 176 788 L 291 960 L 388 960 L 503 788 Z" unicode="Û" />
<glyph horiz-adv-x="681" d="M 76 0 L 76 0 Z M 605 730 L 605 251 C 605 208 597 170 583 138 C 569 105 550 78 526 56 C 502 34 473 18 441 7 C 408 -4 374 -10 338 -10 C 302 -10 269 -4 237 6 C 205 16 177 32 153 54 C 129 76 111 103 97 136 C 83 168 76 207 76 251 L 76 730 L 183 730 L 183 248 C 183 197 198 158 228 130 C 258 102 295 88 338 88 C 381 88 418 101 449 128 C 480 155 496 195 496 248 L 496 730 L 605 730 Z M 339 788 L 339 788 Z M 470 788 L 385 788 L 385 947 L 470 947 L 470 788 Z M 293 788 L 208 788 L 208 947 L 293 947 L 293 788 Z" unicode="Ü" />
<glyph horiz-adv-x="596" d="M 0 0 L 0 0 Z M 598 730 L 351 314 L 351 0 L 241 0 L 241 318 L -1 730 L 121 730 L 301 420 L 484 730 L 598 730 Z M 300 790 L 300 790 Z M 192 790 L 290 956 L 410 956 L 292 790 L 192 790 Z" unicode="Ý" />
<glyph horiz-adv-x="554" d="M 81 0 L 81 730 L 191 730 L 191 601 L 310 601 C 377 601 431 581 471 541 C 511 501 531 448 531 382 C 531 314 510 260 469 218 C 427 176 374 156 309 156 L 191 156 L 191 0 L 81 0 Z M 189 245 L 298 245 C 336 245 366 257 389 281 C 412 305 424 339 424 383 C 424 425 411 456 385 478 C 359 499 329 510 293 510 L 189 510 L 189 245 Z" unicode="Þ" />
<glyph horiz-adv-x="612" d="M 424 -9 C 384 -9 348 -3 317 8 C 285 20 259 36 239 56 L 288 124 C 304 109 325 97 349 88 C 373 79 396 75 419 75 C 440 75 458 80 472 90 C 486 100 493 114 493 133 C 493 150 485 165 469 177 C 453 189 426 202 389 216 C 339 233 303 253 282 276 C 260 299 250 330 250 368 C 250 402 260 430 281 451 C 302 472 325 486 350 492 C 356 494 362 502 370 514 C 377 526 381 549 382 583 C 382 621 372 650 352 670 C 332 689 307 699 278 699 C 249 699 225 690 206 673 C 187 655 178 628 178 591 L 178 0 L 76 0 L 76 600 C 76 629 81 655 91 678 C 101 701 115 720 133 736 C 150 751 171 763 195 771 C 219 779 246 783 274 783 C 302 783 328 778 353 770 C 378 761 400 749 418 733 C 436 717 451 696 462 672 C 472 648 478 620 478 590 C 478 544 470 509 456 483 C 441 457 426 441 412 435 C 393 432 376 426 361 417 C 345 407 337 394 336 378 C 336 361 345 346 363 334 C 381 321 409 307 447 293 C 495 276 530 256 554 232 C 577 208 589 176 589 136 C 589 112 584 91 575 73 C 566 55 554 39 539 27 C 523 15 506 6 486 0 C 466 -6 445 -9 424 -9 Z" unicode="ß" />
<glyph horiz-adv-x="485" d="M 26 0 L 26 0 Z M 430 0 L 336 0 L 336 59 C 320 39 299 22 274 10 C 249 -1 218 -8 182 -8 C 132 -8 94 5 67 33 C 39 60 26 97 26 143 C 26 197 44 238 82 266 C 120 294 171 309 235 313 L 332 319 L 332 334 C 332 362 323 382 307 396 C 290 409 266 416 236 416 C 207 416 181 411 157 401 C 133 391 113 381 97 370 L 59 443 C 79 458 105 472 137 484 C 169 496 207 502 251 502 C 304 502 347 488 380 462 C 413 436 430 395 430 339 L 430 0 Z M 334 127 L 334 243 L 241 238 C 207 236 179 228 158 214 C 137 199 127 177 127 149 C 127 124 135 105 151 93 C 167 80 188 74 213 74 C 239 74 263 79 285 90 C 306 100 322 113 334 127 Z M 237 547 L 237 547 Z M 346 547 L 245 547 L 128 713 L 247 713 L 346 547 Z" unicode="à" />
<glyph horiz-adv-x="485" d="M 26 0 L 26 0 Z M 430 0 L 336 0 L 336 59 C 320 39 299 22 274 10 C 249 -1 218 -8 182 -8 C 132 -8 94 5 67 33 C 39 60 26 97 26 143 C 26 197 44 238 82 266 C 120 294 171 309 235 313 L 332 319 L 332 334 C 332 362 323 382 307 396 C 290 409 266 416 236 416 C 207 416 181 411 157 401 C 133 391 113 381 97 370 L 59 443 C 79 458 105 472 137 484 C 169 496 207 502 251 502 C 304 502 347 488 380 462 C 413 436 430 395 430 339 L 430 0 Z M 334 127 L 334 243 L 241 238 C 207 236 179 228 158 214 C 137 199 127 177 127 149 C 127 124 135 105 151 93 C 167 80 188 74 213 74 C 239 74 263 79 285 90 C 306 100 322 113 334 127 Z M 237 550 L 237 550 Z M 129 550 L 227 716 L 347 716 L 229 550 L 129 550 Z" unicode="á" />
<glyph horiz-adv-x="485" d="M 26 0 L 26 0 Z M 430 0 L 336 0 L 336 59 C 320 39 299 22 274 10 C 249 -1 218 -8 182 -8 C 132 -8 94 5 67 33 C 39 60 26 97 26 143 C 26 197 44 238 82 266 C 120 294 171 309 235 313 L 332 319 L 332 334 C 332 362 323 382 307 396 C 290 409 266 416 236 416 C 207 416 181 411 157 401 C 133 391 113 381 97 370 L 59 443 C 79 458 105 472 137 484 C 169 496 207 502 251 502 C 304 502 347 488 380 462 C 413 436 430 395 430 339 L 430 0 Z M 334 127 L 334 243 L 241 238 C 207 236 179 228 158 214 C 137 199 127 177 127 149 C 127 124 135 105 151 93 C 167 80 188 74 213 74 C 239 74 263 79 285 90 C 306 100 322 113 334 127 Z M 237 548 L 237 548 Z M 401 548 L 310 548 L 237 652 L 163 548 L 74 548 L 189 720 L 286 720 L 401 548 Z" unicode="â" />
<glyph horiz-adv-x="485" d="M 26 0 L 26 0 Z M 430 0 L 336 0 L 336 59 C 320 39 299 22 274 10 C 249 -1 218 -8 182 -8 C 132 -8 94 5 67 33 C 39 60 26 97 26 143 C 26 197 44 238 82 266 C 120 294 171 309 235 313 L 332 319 L 332 334 C 332 362 323 382 307 396 C 290 409 266 416 236 416 C 207 416 181 411 157 401 C 133 391 113 381 97 370 L 59 443 C 79 458 105 472 137 484 C 169 496 207 502 251 502 C 304 502 347 488 380 462 C 413 436 430 395 430 339 L 430 0 Z M 334 127 L 334 243 L 241 238 C 207 236 179 228 158 214 C 137 199 127 177 127 149 C 127 124 135 105 151 93 C 167 80 188 74 213 74 C 239 74 263 79 285 90 C 306 100 322 113 334 127 Z M 237 553 L 237 553 Z M 326 694 L 403 694 C 403 646 396 610 382 587 C 368 564 349 553 326 553 C 307 553 291 556 277 564 C 263 571 252 578 242 585 C 232 591 222 597 213 604 C 203 610 194 614 185 614 C 176 614 168 608 162 598 C 156 588 152 574 152 557 L 75 557 C 75 604 84 639 103 663 C 122 686 142 698 163 698 C 179 698 194 694 206 687 C 218 680 230 672 242 664 C 250 657 259 651 267 645 C 275 639 284 637 293 637 C 301 637 309 641 316 651 C 322 661 326 675 326 694 Z" unicode="ã" />
<glyph horiz-adv-x="485" d="M 26 0 L 26 0 Z M 430 0 L 336 0 L 336 59 C 320 39 299 22 274 10 C 249 -1 218 -8 182 -8 C 132 -8 94 5 67 33 C 39 60 26 97 26 143 C 26 197 44 238 82 266 C 120 294 171 309 235 313 L 332 319 L 332 334 C 332 362 323 382 307 396 C 290 409 266 416 236 416 C 207 416 181 411 157 401 C 133 391 113 381 97 370 L 59 443 C 79 458 105 472 137 484 C 169 496 207 502 251 502 C 304 502 347 488 380 462 C 413 436 430 395 430 339 L 430 0 Z M 334 127 L 334 243 L 241 238 C 207 236 179 228 158 214 C 137 199 127 177 127 149 C 127 124 135 105 151 93 C 167 80 188 74 213 74 C 239 74 263 79 285 90 C 306 100 322 113 334 127 Z M 237 548 L 237 548 Z M 368 548 L 283 548 L 283 707 L 368 707 L 368 548 Z M 191 548 L 106 548 L 106 707 L 191 707 L 191 548 Z" unicode="ä" />
<glyph horiz-adv-x="485" d="M 26 0 L 26 0 Z M 430 0 L 336 0 L 336 59 C 320 39 299 22 274 10 C 249 -1 218 -8 182 -8 C 132 -8 94 5 67 33 C 39 60 26 97 26 143 C 26 197 44 238 82 266 C 120 294 171 309 235 313 L 332 319 L 332 334 C 332 362 323 382 307 396 C 290 409 266 416 236 416 C 207 416 181 411 157 401 C 133 391 113 381 97 370 L 59 443 C 79 458 105 472 137 484 C 169 496 207 502 251 502 C 304 502 347 488 380 462 C 413 436 430 395 430 339 L 430 0 Z M 334 127 L 334 243 L 241 238 C 207 236 179 228 158 214 C 137 199 127 177 127 149 C 127 124 135 105 151 93 C 167 80 188 74 213 74 C 239 74 263 79 285 90 C 306 100 322 113 334 127 Z M 237 542 L 237 542 Z M 237 542 C 204 542 176 553 153 577 C 129 600 118 628 118 662 C 118 694 129 722 153 746 C 176 769 204 781 237 781 C 271 781 299 769 323 746 C 346 722 358 694 358 662 C 358 628 346 600 323 577 C 299 553 271 542 237 542 Z M 238 603 C 254 603 267 608 278 620 C 288 631 294 645 294 662 C 294 678 288 691 278 703 C 267 714 254 720 238 720 C 222 720 208 714 197 703 C 185 691 180 678 180 662 C 180 645 185 631 197 620 C 208 608 222 603 238 603 Z" unicode="å" />
<glyph horiz-adv-x="810" d="M 569 -9 C 518 -9 476 1 444 22 C 412 43 390 66 380 91 C 366 64 342 41 309 21 C 276 1 236 -8 188 -8 C 140 -8 102 5 73 32 C 44 59 30 96 30 142 C 30 196 49 237 87 265 C 125 293 176 308 240 312 L 341 318 L 341 331 C 341 359 331 381 313 395 C 294 409 269 417 239 417 C 210 417 184 411 160 401 C 136 391 116 380 101 370 L 64 443 C 84 459 110 472 141 484 C 171 495 205 501 243 501 C 283 501 316 493 344 478 C 372 462 390 443 400 419 C 410 437 429 455 457 473 C 485 491 521 500 567 500 C 634 500 687 474 726 423 C 765 372 785 303 786 215 L 435 215 C 435 173 448 139 472 114 C 496 89 529 77 571 77 C 608 77 636 83 656 96 C 676 109 692 123 706 139 L 765 77 C 744 53 719 32 689 16 C 659 0 619 -9 569 -9 Z M 436 289 L 685 289 C 684 325 672 355 650 379 C 628 403 598 416 560 416 C 523 416 494 403 472 379 C 450 355 438 325 436 289 Z M 219 73 C 249 73 276 81 298 99 C 320 117 335 137 343 160 L 343 243 L 245 237 C 212 235 185 228 163 215 C 141 202 131 181 131 151 C 131 124 139 104 157 92 C 174 79 195 73 219 73 Z" unicode="æ" />
<glyph horiz-adv-x="469" d="M 30 0 L 30 0 Z M 381 149 L 455 96 C 439 70 416 46 386 24 C 356 2 314 -9 262 -9 C 226 -9 194 -2 166 9 C 137 21 113 39 93 61 C 73 83 57 110 46 141 C 35 172 30 206 30 244 C 30 280 35 313 47 345 C 58 376 74 403 95 426 C 115 449 140 467 169 480 C 198 493 230 500 265 500 C 317 500 358 488 390 465 C 421 441 443 416 456 389 L 373 341 C 363 359 349 375 332 389 C 314 403 291 410 263 410 C 225 410 194 394 171 363 C 147 332 136 293 136 246 C 136 194 148 153 172 124 C 196 94 228 80 268 80 C 300 80 324 87 342 103 C 359 118 372 133 381 149 Z M 253 -4 L 253 -4 Z M 260 -191 C 236 -191 213 -188 189 -182 C 165 -176 146 -168 133 -159 L 148 -115 C 156 -120 168 -125 183 -131 C 198 -136 214 -139 232 -139 C 245 -139 257 -136 267 -130 C 277 -124 282 -115 282 -105 C 282 -93 277 -85 268 -80 C 259 -75 249 -73 239 -73 C 232 -73 226 -73 220 -74 C 214 -75 209 -77 203 -80 L 189 -64 L 248 10 L 307 10 L 259 -51 C 291 -45 318 -49 340 -61 C 362 -73 373 -91 373 -115 C 373 -139 361 -158 339 -171 C 316 -184 290 -191 260 -191 Z" unicode="ç" />
<glyph horiz-adv-x="509" d="M 31 0 L 31 0 Z M 267 -9 C 233 -9 201 -3 172 8 C 142 19 117 35 97 57 C 76 79 60 105 48 137 C 36 168 31 203 31 243 C 31 280 36 314 48 346 C 60 378 76 405 96 428 C 116 450 141 468 169 481 C 197 493 227 500 261 500 C 330 500 384 475 424 425 C 464 375 484 305 484 214 L 130 214 C 131 174 144 141 168 115 C 192 89 226 77 269 77 C 305 77 333 83 354 96 C 375 109 392 123 405 139 L 464 77 C 444 54 420 34 390 17 C 360 0 319 -9 267 -9 Z M 131 290 L 384 290 C 382 326 370 356 348 380 C 326 404 297 416 261 416 C 224 416 194 404 170 380 C 146 356 133 326 131 290 Z M 259 547 L 259 547 Z M 368 547 L 267 547 L 150 713 L 269 713 L 368 547 Z" unicode="è" />
<glyph horiz-adv-x="509" d="M 31 0 L 31 0 Z M 267 -9 C 233 -9 201 -3 172 8 C 142 19 117 35 97 57 C 76 79 60 105 48 137 C 36 168 31 203 31 243 C 31 280 36 314 48 346 C 60 378 76 405 96 428 C 116 450 141 468 169 481 C 197 493 227 500 261 500 C 330 500 384 475 424 425 C 464 375 484 305 484 214 L 130 214 C 131 174 144 141 168 115 C 192 89 226 77 269 77 C 305 77 333 83 354 96 C 375 109 392 123 405 139 L 464 77 C 444 54 420 34 390 17 C 360 0 319 -9 267 -9 Z M 131 290 L 384 290 C 382 326 370 356 348 380 C 326 404 297 416 261 416 C 224 416 194 404 170 380 C 146 356 133 326 131 290 Z M 259 550 L 259 550 Z M 151 550 L 249 716 L 369 716 L 251 550 L 151 550 Z" unicode="é" />
<glyph horiz-adv-x="509" d="M 31 0 L 31 0 Z M 267 -9 C 233 -9 201 -3 172 8 C 142 19 117 35 97 57 C 76 79 60 105 48 137 C 36 168 31 203 31 243 C 31 280 36 314 48 346 C 60 378 76 405 96 428 C 116 450 141 468 169 481 C 197 493 227 500 261 500 C 330 500 384 475 424 425 C 464 375 484 305 484 214 L 130 214 C 131 174 144 141 168 115 C 192 89 226 77 269 77 C 305 77 333 83 354 96 C 375 109 392 123 405 139 L 464 77 C 444 54 420 34 390 17 C 360 0 319 -9 267 -9 Z M 131 290 L 384 290 C 382 326 370 356 348 380 C 326 404 297 416 261 416 C 224 416 194 404 170 380 C 146 356 133 326 131 290 Z M 259 548 L 259 548 Z M 423 548 L 332 548 L 259 652 L 185 548 L 96 548 L 211 720 L 308 720 L 423 548 Z" unicode="ê" />
<glyph horiz-adv-x="509" d="M 31 0 L 31 0 Z M 267 -9 C 233 -9 201 -3 172 8 C 142 19 117 35 97 57 C 76 79 60 105 48 137 C 36 168 31 203 31 243 C 31 280 36 314 48 346 C 60 378 76 405 96 428 C 116 450 141 468 169 481 C 197 493 227 500 261 500 C 330 500 384 475 424 425 C 464 375 484 305 484 214 L 130 214 C 131 174 144 141 168 115 C 192 89 226 77 269 77 C 305 77 333 83 354 96 C 375 109 392 123 405 139 L 464 77 C 444 54 420 34 390 17 C 360 0 319 -9 267 -9 Z M 131 290 L 384 290 C 382 326 370 356 348 380 C 326 404 297 416 261 416 C 224 416 194 404 170 380 C 146 356 133 326 131 290 Z M 259 548 L 259 548 Z M 390 548 L 305 548 L 305 707 L 390 707 L 390 548 Z M 213 548 L 128 548 L 128 707 L 213 707 L 213 548 Z" unicode="ë" />
<glyph horiz-adv-x="232" d="M 6 0 L 6 0 Z M 167 0 L 65 0 L 65 490 L 167 490 L 167 0 Z M 115 547 L 115 547 Z M 224 547 L 123 547 L 6 713 L 125 713 L 224 547 Z" unicode="ì" />
<glyph horiz-adv-x="232" d="M 7 0 L 7 0 Z M 167 0 L 65 0 L 65 490 L 167 490 L 167 0 Z M 115 550 L 115 550 Z M 7 550 L 105 716 L 225 716 L 107 550 L 7 550 Z" unicode="í" />
<glyph horiz-adv-x="232" d="M 0 0 L 0 0 Z M 167 0 L 65 0 L 65 490 L 167 490 L 167 0 Z M 115 548 L 115 548 Z M 279 548 L 188 548 L 115 652 L 41 548 L -48 548 L 67 720 L 164 720 L 279 548 Z" unicode="î" />
<glyph horiz-adv-x="232" d="M 0 0 L 0 0 Z M 167 0 L 65 0 L 65 490 L 167 490 L 167 0 Z M 115 548 L 115 548 Z M 246 548 L 161 548 L 161 707 L 246 707 L 246 548 Z M 69 548 L -16 548 L -16 707 L 69 707 L 69 548 Z" unicode="ï" />
<glyph horiz-adv-x="540" d="M 503 280 C 503 239 497 201 487 166 C 477 130 462 100 442 74 C 422 48 397 27 367 12 C 337 -2 303 -10 265 -10 C 231 -10 200 -4 172 7 C 143 19 118 35 98 57 C 77 78 61 104 49 135 C 37 166 31 201 31 240 C 31 276 37 310 49 341 C 61 371 78 398 98 420 C 118 442 142 459 169 471 C 195 483 223 489 252 489 C 286 489 316 481 342 467 C 368 453 387 436 400 416 C 395 454 386 490 373 524 C 359 557 344 587 327 614 L 207 572 L 185 634 L 286 669 C 269 688 252 704 236 718 C 220 731 206 741 194 747 L 280 782 C 292 774 307 764 323 750 C 339 736 355 719 372 699 L 448 725 L 468 663 L 411 643 C 435 601 457 550 475 490 C 493 430 503 360 503 280 Z M 265 76 C 307 76 339 91 363 121 C 387 151 399 191 399 243 C 399 295 387 335 364 363 C 341 391 309 406 267 406 C 227 406 195 390 171 360 C 147 330 135 290 135 242 C 135 190 147 149 171 120 C 195 90 227 76 265 76 Z" unicode="ð" />
<glyph horiz-adv-x="527" d="M 62 0 L 62 0 Z M 470 0 L 368 0 L 368 331 C 368 357 359 377 342 392 C 324 406 302 414 276 414 C 247 414 221 405 198 388 C 174 370 163 343 163 305 L 163 0 L 62 0 L 62 490 L 154 490 L 154 406 C 164 433 183 455 211 473 C 239 491 273 500 312 500 C 357 500 395 487 425 462 C 455 437 470 403 470 359 L 470 0 Z M 270 553 L 270 553 Z M 359 694 L 436 694 C 436 646 429 610 415 587 C 401 564 382 553 359 553 C 340 553 324 556 310 564 C 296 571 285 578 275 585 C 265 591 255 597 246 604 C 236 610 227 614 218 614 C 209 614 201 608 195 598 C 189 588 185 574 185 557 L 108 557 C 108 604 117 639 136 663 C 155 686 175 698 196 698 C 212 698 227 694 239 687 C 251 680 263 672 275 664 C 283 657 292 651 300 645 C 308 639 317 637 326 637 C 334 637 342 641 349 651 C 355 661 359 675 359 694 Z" unicode="ñ" />
<glyph horiz-adv-x="531" d="M 30 0 L 30 0 Z M 263 -9 C 232 -9 202 -3 174 8 C 146 19 121 35 100 57 C 78 78 61 104 49 136 C 36 167 30 203 30 243 C 30 280 36 314 48 346 C 60 377 77 404 98 427 C 118 449 143 467 171 480 C 199 493 229 500 261 500 C 294 500 325 494 355 483 C 384 471 409 455 431 434 C 453 413 470 388 482 358 C 494 328 501 294 501 257 C 501 217 494 181 482 149 C 470 116 453 88 432 65 C 411 41 386 23 357 10 C 327 -2 296 -9 263 -9 Z M 266 79 C 304 79 335 94 359 124 C 383 154 395 196 395 250 C 395 300 383 339 359 368 C 335 396 302 411 260 411 C 224 411 194 396 171 367 C 147 338 136 297 136 245 C 136 189 148 147 173 120 C 197 92 228 79 266 79 Z M 262 547 L 262 547 Z M 371 547 L 270 547 L 153 713 L 272 713 L 371 547 Z" unicode="ò" />
<glyph horiz-adv-x="531" d="M 30 0 L 30 0 Z M 263 -9 C 232 -9 202 -3 174 8 C 146 19 121 35 100 57 C 78 78 61 104 49 136 C 36 167 30 203 30 243 C 30 280 36 314 48 346 C 60 377 77 404 98 427 C 118 449 143 467 171 480 C 199 493 229 500 261 500 C 294 500 325 494 355 483 C 384 471 409 455 431 434 C 453 413 470 388 482 358 C 494 328 501 294 501 257 C 501 217 494 181 482 149 C 470 116 453 88 432 65 C 411 41 386 23 357 10 C 327 -2 296 -9 263 -9 Z M 266 79 C 304 79 335 94 359 124 C 383 154 395 196 395 250 C 395 300 383 339 359 368 C 335 396 302 411 260 411 C 224 411 194 396 171 367 C 147 338 136 297 136 245 C 136 189 148 147 173 120 C 197 92 228 79 266 79 Z M 262 550 L 262 550 Z M 154 550 L 252 716 L 372 716 L 254 550 L 154 550 Z" unicode="ó" />
<glyph horiz-adv-x="531" d="M 30 0 L 30 0 Z M 263 -9 C 232 -9 202 -3 174 8 C 146 19 121 35 100 57 C 78 78 61 104 49 136 C 36 167 30 203 30 243 C 30 280 36 314 48 346 C 60 377 77 404 98 427 C 118 449 143 467 171 480 C 199 493 229 500 261 500 C 294 500 325 494 355 483 C 384 471 409 455 431 434 C 453 413 470 388 482 358 C 494 328 501 294 501 257 C 501 217 494 181 482 149 C 470 116 453 88 432 65 C 411 41 386 23 357 10 C 327 -2 296 -9 263 -9 Z M 266 79 C 304 79 335 94 359 124 C 383 154 395 196 395 250 C 395 300 383 339 359 368 C 335 396 302 411 260 411 C 224 411 194 396 171 367 C 147 338 136 297 136 245 C 136 189 148 147 173 120 C 197 92 228 79 266 79 Z M 262 548 L 262 548 Z M 426 548 L 335 548 L 262 652 L 188 548 L 99 548 L 214 720 L 311 720 L 426 548 Z" unicode="ô" />
<glyph horiz-adv-x="531" d="M 30 0 L 30 0 Z M 263 -9 C 232 -9 202 -3 174 8 C 146 19 121 35 100 57 C 78 78 61 104 49 136 C 36 167 30 203 30 243 C 30 280 36 314 48 346 C 60 377 77 404 98 427 C 118 449 143 467 171 480 C 199 493 229 500 261 500 C 294 500 325 494 355 483 C 384 471 409 455 431 434 C 453 413 470 388 482 358 C 494 328 501 294 501 257 C 501 217 494 181 482 149 C 470 116 453 88 432 65 C 411 41 386 23 357 10 C 327 -2 296 -9 263 -9 Z M 266 79 C 304 79 335 94 359 124 C 383 154 395 196 395 250 C 395 300 383 339 359 368 C 335 396 302 411 260 411 C 224 411 194 396 171 367 C 147 338 136 297 136 245 C 136 189 148 147 173 120 C 197 92 228 79 266 79 Z M 262 553 L 262 553 Z M 351 694 L 428 694 C 428 646 421 610 407 587 C 393 564 374 553 351 553 C 332 553 316 556 302 564 C 288 571 277 578 267 585 C 257 591 247 597 238 604 C 228 610 219 614 210 614 C 201 614 193 608 187 598 C 181 588 177 574 177 557 L 100 557 C 100 604 109 639 128 663 C 147 686 167 698 188 698 C 204 698 219 694 231 687 C 243 680 255 672 267 664 C 275 657 284 651 292 645 C 300 639 309 637 318 637 C 326 637 334 641 341 651 C 347 661 351 675 351 694 Z" unicode="õ" />
<glyph horiz-adv-x="531" d="M 30 0 L 30 0 Z M 263 -9 C 232 -9 202 -3 174 8 C 146 19 121 35 100 57 C 78 78 61 104 49 136 C 36 167 30 203 30 243 C 30 280 36 314 48 346 C 60 377 77 404 98 427 C 118 449 143 467 171 480 C 199 493 229 500 261 500 C 294 500 325 494 355 483 C 384 471 409 455 431 434 C 453 413 470 388 482 358 C 494 328 501 294 501 257 C 501 217 494 181 482 149 C 470 116 453 88 432 65 C 411 41 386 23 357 10 C 327 -2 296 -9 263 -9 Z M 266 79 C 304 79 335 94 359 124 C 383 154 395 196 395 250 C 395 300 383 339 359 368 C 335 396 302 411 260 411 C 224 411 194 396 171 367 C 147 338 136 297 136 245 C 136 189 148 147 173 120 C 197 92 228 79 266 79 Z M 262 548 L 262 548 Z M 393 548 L 308 548 L 308 707 L 393 707 L 393 548 Z M 216 548 L 131 548 L 131 707 L 216 707 L 216 548 Z" unicode="ö" />
<glyph horiz-adv-x="495" d="M 199 448 L 199 567 L 295 567 L 295 448 L 199 448 Z M 24 287 L 24 374 L 470 374 L 470 287 L 24 287 Z M 199 94 L 199 212 L 295 212 L 295 94 L 199 94 Z" unicode="÷" />
<glyph horiz-adv-x="531" d="M 263 -9 C 236 -9 210 -4 186 3 C 161 11 138 24 118 41 L 73 -10 L 29 31 L 77 84 C 62 104 50 128 42 154 C 34 180 30 210 30 243 C 30 280 36 314 48 346 C 60 377 77 404 98 427 C 118 449 143 467 171 480 C 199 493 229 500 261 500 C 289 500 315 496 340 488 C 365 480 388 469 408 455 L 455 507 L 498 466 L 451 413 C 466 393 478 369 487 343 C 496 317 501 288 501 257 C 501 217 494 181 482 149 C 470 116 453 88 432 65 C 411 41 386 23 357 10 C 327 -2 296 -9 263 -9 Z M 136 245 C 136 229 137 214 139 200 C 141 186 144 174 148 164 L 344 383 C 333 391 320 398 306 403 C 292 408 276 411 260 411 C 224 411 194 396 171 367 C 147 338 136 297 136 245 Z M 395 250 C 395 266 393 281 391 295 C 388 309 384 322 380 334 L 181 111 C 191 100 204 92 219 87 C 233 81 249 79 266 79 C 304 79 335 94 359 124 C 383 154 395 196 395 250 Z" unicode="ø" />
<glyph horiz-adv-x="527" d="M 57 0 L 57 0 Z M 57 490 L 159 490 L 159 171 C 159 137 168 113 186 97 C 204 81 227 74 257 74 C 286 74 311 83 332 102 C 353 120 364 148 364 186 L 364 490 L 465 490 L 465 0 L 370 0 L 370 82 C 360 57 341 36 314 18 C 286 0 254 -9 216 -9 C 172 -9 134 3 103 29 C 72 55 57 93 57 144 L 57 490 Z M 261 547 L 261 547 Z M 370 547 L 269 547 L 152 713 L 271 713 L 370 547 Z" unicode="ù" />
<glyph horiz-adv-x="527" d="M 57 0 L 57 0 Z M 57 490 L 159 490 L 159 171 C 159 137 168 113 186 97 C 204 81 227 74 257 74 C 286 74 311 83 332 102 C 353 120 364 148 364 186 L 364 490 L 465 490 L 465 0 L 370 0 L 370 82 C 360 57 341 36 314 18 C 286 0 254 -9 216 -9 C 172 -9 134 3 103 29 C 72 55 57 93 57 144 L 57 490 Z M 261 550 L 261 550 Z M 153 550 L 251 716 L 371 716 L 253 550 L 153 550 Z" unicode="ú" />
<glyph horiz-adv-x="527" d="M 57 0 L 57 0 Z M 57 490 L 159 490 L 159 171 C 159 137 168 113 186 97 C 204 81 227 74 257 74 C 286 74 311 83 332 102 C 353 120 364 148 364 186 L 364 490 L 465 490 L 465 0 L 370 0 L 370 82 C 360 57 341 36 314 18 C 286 0 254 -9 216 -9 C 172 -9 134 3 103 29 C 72 55 57 93 57 144 L 57 490 Z M 261 548 L 261 548 Z M 425 548 L 334 548 L 261 652 L 187 548 L 98 548 L 213 720 L 310 720 L 425 548 Z" unicode="û" />
<glyph horiz-adv-x="527" d="M 57 0 L 57 0 Z M 57 490 L 159 490 L 159 171 C 159 137 168 113 186 97 C 204 81 227 74 257 74 C 286 74 311 83 332 102 C 353 120 364 148 364 186 L 364 490 L 465 490 L 465 0 L 370 0 L 370 82 C 360 57 341 36 314 18 C 286 0 254 -9 216 -9 C 172 -9 134 3 103 29 C 72 55 57 93 57 144 L 57 490 Z M 261 548 L 261 548 Z M 392 548 L 307 548 L 307 707 L 392 707 L 392 548 Z M 215 548 L 130 548 L 130 707 L 215 707 L 215 548 Z" unicode="ü" />
<glyph horiz-adv-x="462" d="M 0 0 L 0 0 Z M 465 490 L 227 -88 C 208 -130 184 -159 156 -175 C 128 -191 100 -200 72 -200 C 54 -200 38 -198 26 -194 C 14 -190 5 -186 -1 -184 L 32 -97 C 34 -99 40 -101 48 -104 C 56 -106 65 -108 74 -108 C 88 -108 101 -103 113 -93 C 125 -83 136 -66 147 -43 L 181 40 L -4 490 L 104 490 L 233 158 L 363 490 L 465 490 Z M 232 550 L 232 550 Z M 124 550 L 222 716 L 342 716 L 224 550 L 124 550 Z" unicode="ý" />
<glyph horiz-adv-x="541" d="M 62 -198 L 62 776 L 159 776 L 159 398 C 166 424 183 447 211 468 C 239 488 274 499 317 499 C 376 499 423 476 458 432 C 493 387 511 329 511 258 C 511 216 505 179 495 147 C 485 114 471 86 453 64 C 435 42 414 25 390 13 C 366 1 340 -5 313 -5 C 275 -5 242 3 215 20 C 187 37 169 57 161 81 L 161 -198 L 62 -198 Z M 283 76 C 319 76 348 90 371 120 C 393 149 405 191 405 245 C 405 295 394 335 374 367 C 353 398 323 414 283 414 C 248 414 218 400 194 373 C 170 346 158 302 158 240 C 158 180 170 137 195 113 C 219 88 249 76 283 76 Z" unicode="þ" />
<glyph horiz-adv-x="462" d="M 0 0 L 0 0 Z M 465 490 L 227 -88 C 208 -130 184 -159 156 -175 C 128 -191 100 -200 72 -200 C 54 -200 38 -198 26 -194 C 14 -190 5 -186 -1 -184 L 32 -97 C 34 -99 40 -101 48 -104 C 56 -106 65 -108 74 -108 C 88 -108 101 -103 113 -93 C 125 -83 136 -66 147 -43 L 181 40 L -4 490 L 104 490 L 233 158 L 363 490 L 465 490 Z M 232 548 L 232 548 Z M 363 548 L 278 548 L 278 707 L 363 707 L 363 548 Z M 186 548 L 101 548 L 101 707 L 186 707 L 186 548 Z" unicode="ÿ" />
<glyph horiz-adv-x="602" d="M 1 0 L 1 0 Z M 601 0 L 489 0 L 425 177 L 169 177 L 108 0 L 1 0 L 267 733 L 338 733 L 601 0 Z M 400 265 L 297 552 L 195 265 L 400 265 Z M 298 804 L 298 804 Z M 428 804 L 168 804 L 168 885 L 428 885 L 428 804 Z" unicode="Ā" />
<glyph horiz-adv-x="485" d="M 26 0 L 26 0 Z M 430 0 L 336 0 L 336 59 C 320 39 299 22 274 10 C 249 -1 218 -8 182 -8 C 132 -8 94 5 67 33 C 39 60 26 97 26 143 C 26 197 44 238 82 266 C 120 294 171 309 235 313 L 332 319 L 332 334 C 332 362 323 382 307 396 C 290 409 266 416 236 416 C 207 416 181 411 157 401 C 133 391 113 381 97 370 L 59 443 C 79 458 105 472 137 484 C 169 496 207 502 251 502 C 304 502 347 488 380 462 C 413 436 430 395 430 339 L 430 0 Z M 334 127 L 334 243 L 241 238 C 207 236 179 228 158 214 C 137 199 127 177 127 149 C 127 124 135 105 151 93 C 167 80 188 74 213 74 C 239 74 263 79 285 90 C 306 100 322 113 334 127 Z M 237 564 L 237 564 Z M 367 564 L 107 564 L 107 645 L 367 645 L 367 564 Z" unicode="ā" />
<glyph horiz-adv-x="602" d="M 1 0 L 1 0 Z M 601 0 L 489 0 L 425 177 L 169 177 L 108 0 L 1 0 L 267 733 L 338 733 L 601 0 Z M 400 265 L 297 552 L 195 265 L 400 265 Z M 298 791 L 298 791 Z M 367 950 L 451 950 C 447 894 431 854 403 829 C 375 803 340 791 298 791 C 256 791 221 803 193 829 C 165 854 149 894 145 950 L 230 950 C 232 922 238 899 248 883 C 258 867 275 859 298 859 C 320 859 337 867 348 883 C 358 899 365 921 367 950 Z" unicode="Ă" />
<glyph horiz-adv-x="485" d="M 26 0 L 26 0 Z M 430 0 L 336 0 L 336 59 C 320 39 299 22 274 10 C 249 -1 218 -8 182 -8 C 132 -8 94 5 67 33 C 39 60 26 97 26 143 C 26 197 44 238 82 266 C 120 294 171 309 235 313 L 332 319 L 332 334 C 332 362 323 382 307 396 C 290 409 266 416 236 416 C 207 416 181 411 157 401 C 133 391 113 381 97 370 L 59 443 C 79 458 105 472 137 484 C 169 496 207 502 251 502 C 304 502 347 488 380 462 C 413 436 430 395 430 339 L 430 0 Z M 334 127 L 334 243 L 241 238 C 207 236 179 228 158 214 C 137 199 127 177 127 149 C 127 124 135 105 151 93 C 167 80 188 74 213 74 C 239 74 263 79 285 90 C 306 100 322 113 334 127 Z M 237 551 L 237 551 Z M 306 710 L 390 710 C 386 654 370 614 342 589 C 314 563 279 551 237 551 C 195 551 160 563 132 589 C 104 614 88 654 84 710 L 169 710 C 171 682 177 659 187 643 C 197 627 214 619 237 619 C 259 619 276 627 287 643 C 297 659 304 681 306 710 Z" unicode="ă" />
<glyph horiz-adv-x="602" d="M 1 0 L 1 0 Z M 601 0 L 489 0 L 425 177 L 169 177 L 108 0 L 1 0 L 267 733 L 338 733 L 601 0 Z M 400 265 L 297 552 L 195 265 L 400 265 Z M 503 -8 L 503 -8 Z M 605 -91 L 633 -134 C 613 -155 590 -171 566 -182 C 541 -193 513 -199 483 -199 C 449 -199 422 -191 403 -177 C 383 -162 374 -143 374 -121 C 374 -96 384 -73 404 -52 C 424 -30 453 -12 491 3 L 548 3 C 522 -9 501 -23 485 -37 C 469 -51 461 -66 461 -80 C 461 -93 466 -103 476 -111 C 486 -119 499 -123 516 -123 C 534 -123 551 -120 566 -114 C 581 -108 594 -100 605 -91 Z" unicode="Ą" />
<glyph horiz-adv-x="485" d="M 26 0 L 26 0 Z M 430 0 L 336 0 L 336 59 C 320 39 299 22 274 10 C 249 -1 218 -8 182 -8 C 132 -8 94 5 67 33 C 39 60 26 97 26 143 C 26 197 44 238 82 266 C 120 294 171 309 235 313 L 332 319 L 332 334 C 332 362 323 382 307 396 C 290 409 266 416 236 416 C 207 416 181 411 157 401 C 133 391 113 381 97 370 L 59 443 C 79 458 105 472 137 484 C 169 496 207 502 251 502 C 304 502 347 488 380 462 C 413 436 430 395 430 339 L 430 0 Z M 334 127 L 334 243 L 241 238 C 207 236 179 228 158 214 C 137 199 127 177 127 149 C 127 124 135 105 151 93 C 167 80 188 74 213 74 C 239 74 263 79 285 90 C 306 100 322 113 334 127 Z M 355 -8 L 355 -8 Z M 457 -91 L 485 -134 C 465 -155 442 -171 418 -182 C 393 -193 365 -199 335 -199 C 301 -199 274 -191 255 -177 C 235 -162 226 -143 226 -121 C 226 -96 236 -73 256 -52 C 276 -30 305 -12 343 3 L 400 3 C 374 -9 353 -23 337 -37 C 321 -51 313 -66 313 -80 C 313 -93 318 -103 328 -111 C 338 -119 351 -123 368 -123 C 386 -123 403 -120 418 -114 C 433 -108 446 -100 457 -91 Z" unicode="ą" />
<glyph horiz-adv-x="654" d="M 42 0 L 42 0 Z M 364 -10 C 319 -10 277 -1 238 15 C 198 31 164 55 135 87 C 106 119 83 158 67 205 C 50 251 42 305 42 365 C 42 421 49 472 65 518 C 81 564 103 604 131 637 C 159 669 194 695 234 713 C 274 731 318 740 366 740 C 430 740 483 728 525 705 C 566 682 599 651 624 613 L 542 548 C 524 574 501 595 474 613 C 446 630 411 639 368 639 C 300 639 248 615 210 567 C 172 519 153 452 153 364 C 153 316 159 274 171 239 C 183 204 200 176 220 154 C 240 132 264 115 291 105 C 317 94 345 89 373 89 C 418 89 456 98 486 117 C 516 136 540 161 559 192 L 636 136 C 611 93 576 58 530 31 C 484 3 428 -10 364 -10 Z M 367 790 L 367 790 Z M 259 790 L 357 956 L 477 956 L 359 790 L 259 790 Z" unicode="Ć" />
<glyph horiz-adv-x="469" d="M 30 0 L 30 0 Z M 381 149 L 455 96 C 439 70 416 46 386 24 C 356 2 314 -9 262 -9 C 226 -9 194 -2 166 9 C 137 21 113 39 93 61 C 73 83 57 110 46 141 C 35 172 30 206 30 244 C 30 280 35 313 47 345 C 58 376 74 403 95 426 C 115 449 140 467 169 480 C 198 493 230 500 265 500 C 317 500 358 488 390 465 C 421 441 443 416 456 389 L 373 341 C 363 359 349 375 332 389 C 314 403 291 410 263 410 C 225 410 194 394 171 363 C 147 332 136 293 136 246 C 136 194 148 153 172 124 C 196 94 228 80 268 80 C 300 80 324 87 342 103 C 359 118 372 133 381 149 Z M 256 550 L 256 550 Z M 148 550 L 246 716 L 366 716 L 248 550 L 148 550 Z" unicode="ć" />
<glyph horiz-adv-x="654" d="M 42 0 L 42 0 Z M 364 -10 C 319 -10 277 -1 238 15 C 198 31 164 55 135 87 C 106 119 83 158 67 205 C 50 251 42 305 42 365 C 42 421 49 472 65 518 C 81 564 103 604 131 637 C 159 669 194 695 234 713 C 274 731 318 740 366 740 C 430 740 483 728 525 705 C 566 682 599 651 624 613 L 542 548 C 524 574 501 595 474 613 C 446 630 411 639 368 639 C 300 639 248 615 210 567 C 172 519 153 452 153 364 C 153 316 159 274 171 239 C 183 204 200 176 220 154 C 240 132 264 115 291 105 C 317 94 345 89 373 89 C 418 89 456 98 486 117 C 516 136 540 161 559 192 L 636 136 C 611 93 576 58 530 31 C 484 3 428 -10 364 -10 Z M 367 788 L 367 788 Z M 531 788 L 440 788 L 367 892 L 293 788 L 204 788 L 319 960 L 416 960 L 531 788 Z" unicode="Ĉ" />
<glyph horiz-adv-x="469" d="M 30 0 L 30 0 Z M 381 149 L 455 96 C 439 70 416 46 386 24 C 356 2 314 -9 262 -9 C 226 -9 194 -2 166 9 C 137 21 113 39 93 61 C 73 83 57 110 46 141 C 35 172 30 206 30 244 C 30 280 35 313 47 345 C 58 376 74 403 95 426 C 115 449 140 467 169 480 C 198 493 230 500 265 500 C 317 500 358 488 390 465 C 421 441 443 416 456 389 L 373 341 C 363 359 349 375 332 389 C 314 403 291 410 263 410 C 225 410 194 394 171 363 C 147 332 136 293 136 246 C 136 194 148 153 172 124 C 196 94 228 80 268 80 C 300 80 324 87 342 103 C 359 118 372 133 381 149 Z M 256 548 L 256 548 Z M 420 548 L 329 548 L 256 652 L 182 548 L 93 548 L 208 720 L 305 720 L 420 548 Z" unicode="ĉ" />
<glyph horiz-adv-x="654" d="M 42 0 L 42 0 Z M 364 -10 C 319 -10 277 -1 238 15 C 198 31 164 55 135 87 C 106 119 83 158 67 205 C 50 251 42 305 42 365 C 42 421 49 472 65 518 C 81 564 103 604 131 637 C 159 669 194 695 234 713 C 274 731 318 740 366 740 C 430 740 483 728 525 705 C 566 682 599 651 624 613 L 542 548 C 524 574 501 595 474 613 C 446 630 411 639 368 639 C 300 639 248 615 210 567 C 172 519 153 452 153 364 C 153 316 159 274 171 239 C 183 204 200 176 220 154 C 240 132 264 115 291 105 C 317 94 345 89 373 89 C 418 89 456 98 486 117 C 516 136 540 161 559 192 L 636 136 C 611 93 576 58 530 31 C 484 3 428 -10 364 -10 Z M 367 792 L 367 792 Z M 414 792 L 321 792 L 321 942 L 414 942 L 414 792 Z" unicode="Ċ" />
<glyph horiz-adv-x="469" d="M 30 0 L 30 0 Z M 381 149 L 455 96 C 439 70 416 46 386 24 C 356 2 314 -9 262 -9 C 226 -9 194 -2 166 9 C 137 21 113 39 93 61 C 73 83 57 110 46 141 C 35 172 30 206 30 244 C 30 280 35 313 47 345 C 58 376 74 403 95 426 C 115 449 140 467 169 480 C 198 493 230 500 265 500 C 317 500 358 488 390 465 C 421 441 443 416 456 389 L 373 341 C 363 359 349 375 332 389 C 314 403 291 410 263 410 C 225 410 194 394 171 363 C 147 332 136 293 136 246 C 136 194 148 153 172 124 C 196 94 228 80 268 80 C 300 80 324 87 342 103 C 359 118 372 133 381 149 Z M 256 552 L 256 552 Z M 303 552 L 210 552 L 210 702 L 303 702 L 303 552 Z" unicode="ċ" />
<glyph horiz-adv-x="654" d="M 42 0 L 42 0 Z M 364 -10 C 319 -10 277 -1 238 15 C 198 31 164 55 135 87 C 106 119 83 158 67 205 C 50 251 42 305 42 365 C 42 421 49 472 65 518 C 81 564 103 604 131 637 C 159 669 194 695 234 713 C 274 731 318 740 366 740 C 430 740 483 728 525 705 C 566 682 599 651 624 613 L 542 548 C 524 574 501 595 474 613 C 446 630 411 639 368 639 C 300 639 248 615 210 567 C 172 519 153 452 153 364 C 153 316 159 274 171 239 C 183 204 200 176 220 154 C 240 132 264 115 291 105 C 317 94 345 89 373 89 C 418 89 456 98 486 117 C 516 136 540 161 559 192 L 636 136 C 611 93 576 58 530 31 C 484 3 428 -10 364 -10 Z M 367 788 L 367 788 Z M 204 960 L 295 960 L 368 856 L 442 960 L 531 960 L 416 788 L 319 788 L 204 960 Z" unicode="Č" />
<glyph horiz-adv-x="469" d="M 30 0 L 30 0 Z M 381 149 L 455 96 C 439 70 416 46 386 24 C 356 2 314 -9 262 -9 C 226 -9 194 -2 166 9 C 137 21 113 39 93 61 C 73 83 57 110 46 141 C 35 172 30 206 30 244 C 30 280 35 313 47 345 C 58 376 74 403 95 426 C 115 449 140 467 169 480 C 198 493 230 500 265 500 C 317 500 358 488 390 465 C 421 441 443 416 456 389 L 373 341 C 363 359 349 375 332 389 C 314 403 291 410 263 410 C 225 410 194 394 171 363 C 147 332 136 293 136 246 C 136 194 148 153 172 124 C 196 94 228 80 268 80 C 300 80 324 87 342 103 C 359 118 372 133 381 149 Z M 256 548 L 256 548 Z M 93 720 L 184 720 L 257 616 L 331 720 L 420 720 L 305 548 L 208 548 L 93 720 Z" unicode="č" />
<glyph horiz-adv-x="681" d="M 81 0 L 81 0 Z M 81 0 L 81 730 L 288 730 C 344 730 393 721 437 704 C 481 687 518 663 548 632 C 578 601 600 563 616 519 C 632 475 640 426 640 373 C 640 320 632 271 616 225 C 600 179 577 140 547 107 C 517 73 479 47 433 28 C 387 9 335 0 275 0 L 81 0 Z M 191 93 L 275 93 C 318 93 355 100 387 114 C 419 128 445 147 465 172 C 485 196 501 226 511 260 C 521 294 526 330 526 370 C 526 453 504 518 462 565 C 420 612 361 636 286 636 L 191 636 L 191 93 Z M 323 788 L 323 788 Z M 160 960 L 251 960 L 324 856 L 398 960 L 487 960 L 372 788 L 275 788 L 160 960 Z" unicode="Ď" />
<glyph horiz-adv-x="544" d="M 30 0 L 30 0 Z M 236 -8 C 205 -8 177 -1 152 10 C 126 22 105 40 87 62 C 69 84 55 110 45 141 C 35 171 30 205 30 241 C 30 279 35 314 46 346 C 57 378 72 405 91 427 C 110 449 132 467 158 480 C 184 492 211 499 241 499 C 275 499 306 490 332 472 C 358 454 375 433 385 410 L 385 776 L 483 776 L 483 0 L 390 0 L 390 87 C 386 76 379 65 371 54 C 362 43 351 33 338 24 C 325 14 310 7 293 1 C 275 -5 256 -8 236 -8 Z M 262 75 C 298 75 328 90 352 121 C 375 152 387 195 387 249 C 387 305 374 347 349 374 C 324 400 295 414 261 414 C 223 414 192 399 170 369 C 147 339 136 298 136 245 C 136 195 147 154 169 122 C 191 90 222 75 262 75 Z M 625 614 L 620 469 L 534 469 L 529 614 L 529 730 L 625 730 L 625 614 Z" unicode="ď" />
<glyph horiz-adv-x="681" d="M 29 0 L 29 0 Z M 640 365 C 640 314 632 266 616 222 C 600 178 577 139 547 106 C 517 73 479 47 433 28 C 387 9 335 0 275 0 L 81 0 L 81 316 L 29 316 L 29 400 L 81 400 L 81 730 L 288 730 C 344 730 394 721 438 704 C 482 686 518 662 548 630 C 578 598 600 560 616 515 C 632 470 640 420 640 365 Z M 189 89 L 272 89 C 318 89 357 96 389 111 C 421 125 448 145 468 170 C 488 194 503 223 513 257 C 522 290 527 325 527 363 C 527 452 506 520 464 568 C 422 616 363 640 289 640 L 189 640 L 189 400 L 348 400 L 348 316 L 189 316 L 189 89 Z" unicode="Đ" />
<glyph horiz-adv-x="544" d="M 390 87 C 386 76 379 65 371 54 C 362 43 351 33 338 24 C 325 14 310 7 293 1 C 275 -5 256 -8 236 -8 C 205 -8 177 -1 152 10 C 126 22 105 40 87 62 C 69 84 55 110 45 141 C 35 171 30 205 30 241 C 30 279 35 314 46 346 C 57 378 72 405 91 427 C 110 449 132 467 158 480 C 184 492 211 499 241 499 C 275 499 306 490 332 472 C 358 454 375 433 385 410 L 385 586 L 260 586 L 260 674 L 385 674 L 385 776 L 483 776 L 483 674 L 536 674 L 536 586 L 483 586 L 483 0 L 390 0 L 390 87 Z M 262 75 C 298 75 328 90 352 121 C 375 152 387 195 387 249 C 387 305 374 347 349 374 C 324 400 295 414 261 414 C 223 414 192 399 170 369 C 147 339 136 298 136 245 C 136 195 147 154 169 122 C 191 90 222 75 262 75 Z" unicode="đ" />
<glyph horiz-adv-x="525" d="M 81 0 L 81 0 Z M 487 0 L 81 0 L 81 730 L 468 730 L 468 632 L 189 632 L 189 412 L 454 412 L 454 315 L 189 315 L 189 98 L 487 98 L 487 0 Z M 278 804 L 278 804 Z M 408 804 L 148 804 L 148 885 L 408 885 L 408 804 Z" unicode="Ē" />
<glyph horiz-adv-x="509" d="M 31 0 L 31 0 Z M 267 -9 C 233 -9 201 -3 172 8 C 142 19 117 35 97 57 C 76 79 60 105 48 137 C 36 168 31 203 31 243 C 31 280 36 314 48 346 C 60 378 76 405 96 428 C 116 450 141 468 169 481 C 197 493 227 500 261 500 C 330 500 384 475 424 425 C 464 375 484 305 484 214 L 130 214 C 131 174 144 141 168 115 C 192 89 226 77 269 77 C 305 77 333 83 354 96 C 375 109 392 123 405 139 L 464 77 C 444 54 420 34 390 17 C 360 0 319 -9 267 -9 Z M 131 290 L 384 290 C 382 326 370 356 348 380 C 326 404 297 416 261 416 C 224 416 194 404 170 380 C 146 356 133 326 131 290 Z M 259 564 L 259 564 Z M 389 564 L 129 564 L 129 645 L 389 645 L 389 564 Z" unicode="ē" />
<glyph horiz-adv-x="525" d="M 81 0 L 81 0 Z M 487 0 L 81 0 L 81 730 L 468 730 L 468 632 L 189 632 L 189 412 L 454 412 L 454 315 L 189 315 L 189 98 L 487 98 L 487 0 Z M 278 791 L 278 791 Z M 347 950 L 431 950 C 427 894 411 854 383 829 C 355 803 320 791 278 791 C 236 791 201 803 173 829 C 145 854 129 894 125 950 L 210 950 C 212 922 218 899 228 883 C 238 867 255 859 278 859 C 300 859 317 867 328 883 C 338 899 345 921 347 950 Z" unicode="Ĕ" />
<glyph horiz-adv-x="509" d="M 31 0 L 31 0 Z M 267 -9 C 233 -9 201 -3 172 8 C 142 19 117 35 97 57 C 76 79 60 105 48 137 C 36 168 31 203 31 243 C 31 280 36 314 48 346 C 60 378 76 405 96 428 C 116 450 141 468 169 481 C 197 493 227 500 261 500 C 330 500 384 475 424 425 C 464 375 484 305 484 214 L 130 214 C 131 174 144 141 168 115 C 192 89 226 77 269 77 C 305 77 333 83 354 96 C 375 109 392 123 405 139 L 464 77 C 444 54 420 34 390 17 C 360 0 319 -9 267 -9 Z M 131 290 L 384 290 C 382 326 370 356 348 380 C 326 404 297 416 261 416 C 224 416 194 404 170 380 C 146 356 133 326 131 290 Z M 259 551 L 259 551 Z M 328 710 L 412 710 C 408 654 392 614 364 589 C 336 563 301 551 259 551 C 217 551 182 563 154 589 C 126 614 110 654 106 710 L 191 710 C 193 682 199 659 209 643 C 219 627 236 619 259 619 C 281 619 298 627 309 643 C 319 659 326 681 328 710 Z" unicode="ĕ" />
<glyph horiz-adv-x="525" d="M 81 0 L 81 0 Z M 487 0 L 81 0 L 81 730 L 468 730 L 468 632 L 189 632 L 189 412 L 454 412 L 454 315 L 189 315 L 189 98 L 487 98 L 487 0 Z M 278 792 L 278 792 Z M 325 792 L 232 792 L 232 942 L 325 942 L 325 792 Z" unicode="Ė" />
<glyph horiz-adv-x="509" d="M 31 0 L 31 0 Z M 267 -9 C 233 -9 201 -3 172 8 C 142 19 117 35 97 57 C 76 79 60 105 48 137 C 36 168 31 203 31 243 C 31 280 36 314 48 346 C 60 378 76 405 96 428 C 116 450 141 468 169 481 C 197 493 227 500 261 500 C 330 500 384 475 424 425 C 464 375 484 305 484 214 L 130 214 C 131 174 144 141 168 115 C 192 89 226 77 269 77 C 305 77 333 83 354 96 C 375 109 392 123 405 139 L 464 77 C 444 54 420 34 390 17 C 360 0 319 -9 267 -9 Z M 131 290 L 384 290 C 382 326 370 356 348 380 C 326 404 297 416 261 416 C 224 416 194 404 170 380 C 146 356 133 326 131 290 Z M 259 552 L 259 552 Z M 306 552 L 213 552 L 213 702 L 306 702 L 306 552 Z" unicode="ė" />
<glyph horiz-adv-x="525" d="M 81 0 L 81 0 Z M 487 0 L 81 0 L 81 730 L 468 730 L 468 632 L 189 632 L 189 412 L 454 412 L 454 315 L 189 315 L 189 98 L 487 98 L 487 0 Z M 442 -8 L 442 -8 Z M 544 -91 L 572 -134 C 552 -155 529 -171 505 -182 C 480 -193 452 -199 422 -199 C 388 -199 361 -191 342 -177 C 322 -162 313 -143 313 -121 C 313 -96 323 -73 343 -52 C 363 -30 392 -12 430 3 L 487 3 C 461 -9 440 -23 424 -37 C 408 -51 400 -66 400 -80 C 400 -93 405 -103 415 -111 C 425 -119 438 -123 455 -123 C 473 -123 490 -120 505 -114 C 520 -108 533 -100 544 -91 Z" unicode="Ę" />
<glyph horiz-adv-x="509" d="M 31 0 L 31 0 Z M 267 -9 C 233 -9 201 -3 172 8 C 142 19 117 35 97 57 C 76 79 60 105 48 137 C 36 168 31 203 31 243 C 31 280 36 314 48 346 C 60 378 76 405 96 428 C 116 450 141 468 169 481 C 197 493 227 500 261 500 C 330 500 384 475 424 425 C 464 375 484 305 484 214 L 130 214 C 131 174 144 141 168 115 C 192 89 226 77 269 77 C 305 77 333 83 354 96 C 375 109 392 123 405 139 L 464 77 C 444 54 420 34 390 17 C 360 0 319 -9 267 -9 Z M 131 290 L 384 290 C 382 326 370 356 348 380 C 326 404 297 416 261 416 C 224 416 194 404 170 380 C 146 356 133 326 131 290 Z M 310 -8 L 310 -8 Z M 412 -91 L 440 -134 C 420 -155 397 -171 373 -182 C 348 -193 320 -199 290 -199 C 256 -199 229 -191 210 -177 C 190 -162 181 -143 181 -121 C 181 -96 191 -73 211 -52 C 231 -30 260 -12 298 3 L 355 3 C 329 -9 308 -23 292 -37 C 276 -51 268 -66 268 -80 C 268 -93 273 -103 283 -111 C 293 -119 306 -123 323 -123 C 341 -123 358 -120 373 -114 C 388 -108 401 -100 412 -91 Z" unicode="ę" />
<glyph horiz-adv-x="525" d="M 81 0 L 81 0 Z M 487 0 L 81 0 L 81 730 L 468 730 L 468 632 L 189 632 L 189 412 L 454 412 L 454 315 L 189 315 L 189 98 L 487 98 L 487 0 Z M 278 788 L 278 788 Z M 115 960 L 206 960 L 279 856 L 353 960 L 442 960 L 327 788 L 230 788 L 115 960 Z" unicode="Ě" />
<glyph horiz-adv-x="509" d="M 31 0 L 31 0 Z M 267 -9 C 233 -9 201 -3 172 8 C 142 19 117 35 97 57 C 76 79 60 105 48 137 C 36 168 31 203 31 243 C 31 280 36 314 48 346 C 60 378 76 405 96 428 C 116 450 141 468 169 481 C 197 493 227 500 261 500 C 330 500 384 475 424 425 C 464 375 484 305 484 214 L 130 214 C 131 174 144 141 168 115 C 192 89 226 77 269 77 C 305 77 333 83 354 96 C 375 109 392 123 405 139 L 464 77 C 444 54 420 34 390 17 C 360 0 319 -9 267 -9 Z M 131 290 L 384 290 C 382 326 370 356 348 380 C 326 404 297 416 261 416 C 224 416 194 404 170 380 C 146 356 133 326 131 290 Z M 259 548 L 259 548 Z M 96 720 L 187 720 L 260 616 L 334 720 L 423 720 L 308 548 L 211 548 L 96 720 Z" unicode="ě" />
<glyph horiz-adv-x="699" d="M 42 0 L 42 0 Z M 375 371 L 657 371 L 657 140 C 632 96 595 60 546 32 C 496 4 438 -10 371 -10 C 325 -10 281 -1 241 16 C 201 34 166 59 137 91 C 107 123 84 163 67 210 C 50 256 42 308 42 365 C 42 422 50 474 67 520 C 84 566 107 606 137 638 C 167 670 202 695 243 713 C 283 731 327 740 373 740 C 440 740 493 728 532 704 C 571 680 600 653 620 625 L 541 557 C 525 577 503 596 477 613 C 451 630 415 639 371 639 C 339 639 310 633 283 621 C 256 609 233 591 214 568 C 194 545 179 516 168 482 C 157 448 152 409 152 365 C 152 321 157 282 169 247 C 180 212 196 182 216 158 C 236 134 259 115 287 102 C 314 89 343 83 375 83 C 417 83 455 90 487 106 C 519 122 543 144 559 172 L 559 274 L 375 274 L 375 371 Z M 372 788 L 372 788 Z M 536 788 L 445 788 L 372 892 L 298 788 L 209 788 L 324 960 L 421 960 L 536 788 Z" unicode="Ĝ" />
<glyph horiz-adv-x="542" d="M 31 0 L 31 0 Z M 236 3 C 176 3 126 25 88 70 C 50 115 31 174 31 247 C 31 285 36 319 46 351 C 56 382 71 408 89 430 C 107 452 129 469 155 481 C 181 493 208 499 238 499 C 274 499 306 490 333 472 C 359 454 378 433 389 409 L 389 490 L 482 490 L 482 40 C 482 0 475 -35 461 -65 C 447 -95 430 -119 408 -139 C 386 -158 360 -172 331 -182 C 302 -191 273 -196 243 -196 C 195 -196 158 -191 130 -182 C 102 -172 81 -163 67 -154 L 106 -74 C 118 -82 134 -90 156 -98 C 178 -106 204 -111 235 -111 C 276 -111 311 -98 340 -74 C 369 -50 384 -14 384 33 L 384 100 C 375 76 358 54 332 34 C 306 13 274 3 236 3 Z M 263 83 C 296 83 325 97 350 125 C 374 153 387 196 387 252 C 387 304 374 343 350 371 C 326 399 296 413 260 413 C 224 413 194 398 171 368 C 147 338 136 298 136 246 C 136 195 147 155 169 126 C 191 97 223 83 263 83 Z M 252 548 L 252 548 Z M 416 548 L 325 548 L 252 652 L 178 548 L 89 548 L 204 720 L 301 720 L 416 548 Z" unicode="ĝ" />
<glyph horiz-adv-x="699" d="M 42 0 L 42 0 Z M 375 371 L 657 371 L 657 140 C 632 96 595 60 546 32 C 496 4 438 -10 371 -10 C 325 -10 281 -1 241 16 C 201 34 166 59 137 91 C 107 123 84 163 67 210 C 50 256 42 308 42 365 C 42 422 50 474 67 520 C 84 566 107 606 137 638 C 167 670 202 695 243 713 C 283 731 327 740 373 740 C 440 740 493 728 532 704 C 571 680 600 653 620 625 L 541 557 C 525 577 503 596 477 613 C 451 630 415 639 371 639 C 339 639 310 633 283 621 C 256 609 233 591 214 568 C 194 545 179 516 168 482 C 157 448 152 409 152 365 C 152 321 157 282 169 247 C 180 212 196 182 216 158 C 236 134 259 115 287 102 C 314 89 343 83 375 83 C 417 83 455 90 487 106 C 519 122 543 144 559 172 L 559 274 L 375 274 L 375 371 Z M 372 791 L 372 791 Z M 441 950 L 525 950 C 521 894 505 854 477 829 C 449 803 414 791 372 791 C 330 791 295 803 267 829 C 239 854 223 894 219 950 L 304 950 C 306 922 312 899 322 883 C 332 867 349 859 372 859 C 394 859 411 867 422 883 C 432 899 439 921 441 950 Z" unicode="Ğ" />
<glyph horiz-adv-x="542" d="M 31 0 L 31 0 Z M 236 3 C 176 3 126 25 88 70 C 50 115 31 174 31 247 C 31 285 36 319 46 351 C 56 382 71 408 89 430 C 107 452 129 469 155 481 C 181 493 208 499 238 499 C 274 499 306 490 333 472 C 359 454 378 433 389 409 L 389 490 L 482 490 L 482 40 C 482 0 475 -35 461 -65 C 447 -95 430 -119 408 -139 C 386 -158 360 -172 331 -182 C 302 -191 273 -196 243 -196 C 195 -196 158 -191 130 -182 C 102 -172 81 -163 67 -154 L 106 -74 C 118 -82 134 -90 156 -98 C 178 -106 204 -111 235 -111 C 276 -111 311 -98 340 -74 C 369 -50 384 -14 384 33 L 384 100 C 375 76 358 54 332 34 C 306 13 274 3 236 3 Z M 263 83 C 296 83 325 97 350 125 C 374 153 387 196 387 252 C 387 304 374 343 350 371 C 326 399 296 413 260 413 C 224 413 194 398 171 368 C 147 338 136 298 136 246 C 136 195 147 155 169 126 C 191 97 223 83 263 83 Z M 252 551 L 252 551 Z M 321 710 L 405 710 C 401 654 385 614 357 589 C 329 563 294 551 252 551 C 210 551 175 563 147 589 C 119 614 103 654 99 710 L 184 710 C 186 682 192 659 202 643 C 212 627 229 619 252 619 C 274 619 291 627 302 643 C 312 659 319 681 321 710 Z" unicode="ğ" />
<glyph horiz-adv-x="699" d="M 42 0 L 42 0 Z M 375 371 L 657 371 L 657 140 C 632 96 595 60 546 32 C 496 4 438 -10 371 -10 C 325 -10 281 -1 241 16 C 201 34 166 59 137 91 C 107 123 84 163 67 210 C 50 256 42 308 42 365 C 42 422 50 474 67 520 C 84 566 107 606 137 638 C 167 670 202 695 243 713 C 283 731 327 740 373 740 C 440 740 493 728 532 704 C 571 680 600 653 620 625 L 541 557 C 525 577 503 596 477 613 C 451 630 415 639 371 639 C 339 639 310 633 283 621 C 256 609 233 591 214 568 C 194 545 179 516 168 482 C 157 448 152 409 152 365 C 152 321 157 282 169 247 C 180 212 196 182 216 158 C 236 134 259 115 287 102 C 314 89 343 83 375 83 C 417 83 455 90 487 106 C 519 122 543 144 559 172 L 559 274 L 375 274 L 375 371 Z M 372 792 L 372 792 Z M 419 792 L 326 792 L 326 942 L 419 942 L 419 792 Z" unicode="Ġ" />
<glyph horiz-adv-x="542" d="M 31 0 L 31 0 Z M 236 3 C 176 3 126 25 88 70 C 50 115 31 174 31 247 C 31 285 36 319 46 351 C 56 382 71 408 89 430 C 107 452 129 469 155 481 C 181 493 208 499 238 499 C 274 499 306 490 333 472 C 359 454 378 433 389 409 L 389 490 L 482 490 L 482 40 C 482 0 475 -35 461 -65 C 447 -95 430 -119 408 -139 C 386 -158 360 -172 331 -182 C 302 -191 273 -196 243 -196 C 195 -196 158 -191 130 -182 C 102 -172 81 -163 67 -154 L 106 -74 C 118 -82 134 -90 156 -98 C 178 -106 204 -111 235 -111 C 276 -111 311 -98 340 -74 C 369 -50 384 -14 384 33 L 384 100 C 375 76 358 54 332 34 C 306 13 274 3 236 3 Z M 263 83 C 296 83 325 97 350 125 C 374 153 387 196 387 252 C 387 304 374 343 350 371 C 326 399 296 413 260 413 C 224 413 194 398 171 368 C 147 338 136 298 136 246 C 136 195 147 155 169 126 C 191 97 223 83 263 83 Z M 252 552 L 252 552 Z M 299 552 L 206 552 L 206 702 L 299 702 L 299 552 Z" unicode="ġ" />
<glyph horiz-adv-x="699" d="M 42 0 L 42 0 Z M 375 371 L 657 371 L 657 140 C 632 96 595 60 546 32 C 496 4 438 -10 371 -10 C 325 -10 281 -1 241 16 C 201 34 166 59 137 91 C 107 123 84 163 67 210 C 50 256 42 308 42 365 C 42 422 50 474 67 520 C 84 566 107 606 137 638 C 167 670 202 695 243 713 C 283 731 327 740 373 740 C 440 740 493 728 532 704 C 571 680 600 653 620 625 L 541 557 C 525 577 503 596 477 613 C 451 630 415 639 371 639 C 339 639 310 633 283 621 C 256 609 233 591 214 568 C 194 545 179 516 168 482 C 157 448 152 409 152 365 C 152 321 157 282 169 247 C 180 212 196 182 216 158 C 236 134 259 115 287 102 C 314 89 343 83 375 83 C 417 83 455 90 487 106 C 519 122 543 144 559 172 L 559 274 L 375 274 L 375 371 Z" unicode="Ģ" />
<glyph horiz-adv-x="542" d="M 31 0 L 31 0 Z M 236 3 C 176 3 126 25 88 70 C 50 115 31 174 31 247 C 31 285 36 319 46 351 C 56 382 71 408 89 430 C 107 452 129 469 155 481 C 181 493 208 499 238 499 C 274 499 306 490 333 472 C 359 454 378 433 389 409 L 389 490 L 482 490 L 482 40 C 482 0 475 -35 461 -65 C 447 -95 430 -119 408 -139 C 386 -158 360 -172 331 -182 C 302 -191 273 -196 243 -196 C 195 -196 158 -191 130 -182 C 102 -172 81 -163 67 -154 L 106 -74 C 118 -82 134 -90 156 -98 C 178 -106 204 -111 235 -111 C 276 -111 311 -98 340 -74 C 369 -50 384 -14 384 33 L 384 100 C 375 76 358 54 332 34 C 306 13 274 3 236 3 Z M 263 83 C 296 83 325 97 350 125 C 374 153 387 196 387 252 C 387 304 374 343 350 371 C 326 399 296 413 260 413 C 224 413 194 398 171 368 C 147 338 136 298 136 246 C 136 195 147 155 169 126 C 191 97 223 83 263 83 Z" unicode="ģ" />
<glyph horiz-adv-x="690" d="M 81 0 L 81 0 Z M 608 0 L 498 0 L 498 311 L 191 311 L 191 0 L 81 0 L 81 730 L 191 730 L 191 410 L 498 410 L 498 730 L 608 730 L 608 0 Z M 344 788 L 344 788 Z M 508 788 L 417 788 L 344 892 L 270 788 L 181 788 L 296 960 L 393 960 L 508 788 Z" unicode="Ĥ" />
<glyph horiz-adv-x="527" d="M 62 0 L 62 0 Z M 470 0 L 368 0 L 368 328 C 368 355 359 376 342 391 C 324 406 302 414 275 414 C 247 414 221 405 198 388 C 174 370 163 343 163 307 L 163 0 L 62 0 L 62 776 L 156 776 L 156 409 C 164 434 182 455 209 473 C 235 491 269 500 311 500 C 356 500 394 487 424 463 C 454 438 470 402 470 354 L 470 0 Z M 281 834 L 281 834 Z M 445 834 L 354 834 L 281 938 L 207 834 L 118 834 L 233 1006 L 330 1006 L 445 834 Z" unicode="ĥ" />
<glyph horiz-adv-x="690" d="M 191 311 L 191 0 L 81 0 L 81 542 L 9 542 L 9 629 L 81 629 L 81 730 L 191 730 L 191 629 L 498 629 L 498 730 L 608 730 L 608 629 L 682 629 L 682 542 L 608 542 L 608 0 L 498 0 L 498 311 L 191 311 Z M 191 410 L 498 410 L 498 542 L 191 542 L 191 410 Z" unicode="Ħ" />
<glyph horiz-adv-x="527" d="M 163 307 L 163 0 L 62 0 L 62 587 L 10 587 L 10 674 L 62 674 L 62 776 L 156 776 L 156 674 L 289 674 L 289 587 L 156 587 L 156 409 C 164 434 182 455 209 473 C 235 491 269 500 311 500 C 356 500 394 487 424 463 C 454 438 470 402 470 354 L 470 0 L 368 0 L 368 328 C 368 355 359 376 342 391 C 324 406 302 414 275 414 C 247 414 221 405 198 388 C 174 370 163 343 163 307 Z" unicode="ħ" />
<glyph horiz-adv-x="281" d="M 0 0 L 0 0 Z M 196 0 L 85 0 L 85 730 L 196 730 L 196 0 Z M 140 793 L 140 793 Z M 229 934 L 306 934 C 306 886 299 850 285 827 C 271 804 252 793 229 793 C 210 793 194 796 180 804 C 166 811 155 818 145 825 C 135 831 125 837 116 844 C 106 850 97 854 88 854 C 79 854 71 848 65 838 C 59 828 55 814 55 797 L -22 797 C -22 844 -12 879 6 903 C 25 926 45 938 66 938 C 82 938 97 934 109 927 C 121 920 133 912 145 904 C 153 897 162 891 170 885 C 178 879 187 877 196 877 C 204 877 212 881 219 891 C 225 901 229 915 229 934 Z" unicode="Ĩ" />
<glyph horiz-adv-x="232" d="M 0 0 L 0 0 Z M 167 0 L 65 0 L 65 490 L 167 490 L 167 0 Z M 115 553 L 115 553 Z M 204 694 L 281 694 C 281 646 274 610 260 587 C 246 564 227 553 204 553 C 185 553 169 556 155 564 C 141 571 130 578 120 585 C 110 591 100 597 91 604 C 81 610 72 614 63 614 C 54 614 46 608 40 598 C 34 588 30 574 30 557 L -47 557 C -47 604 -37 639 -18 663 C 0 686 20 698 41 698 C 57 698 72 694 84 687 C 96 680 108 672 120 664 C 128 657 137 651 145 645 C 153 639 162 637 171 637 C 179 637 187 641 194 651 C 200 661 204 675 204 694 Z" unicode="ĩ" />
<glyph horiz-adv-x="281" d="M 10 0 L 10 0 Z M 196 0 L 85 0 L 85 730 L 196 730 L 196 0 Z M 140 804 L 140 804 Z M 270 804 L 10 804 L 10 885 L 270 885 L 270 804 Z" unicode="Ī" />
<glyph horiz-adv-x="232" d="M 0 0 L 0 0 Z M 167 0 L 65 0 L 65 490 L 167 490 L 167 0 Z M 115 564 L 115 564 Z M 245 564 L -15 564 L -15 645 L 245 645 L 245 564 Z" unicode="ī" />
<glyph horiz-adv-x="281" d="M 0 0 L 0 0 Z M 196 0 L 85 0 L 85 730 L 196 730 L 196 0 Z M 140 791 L 140 791 Z M 209 950 L 293 950 C 289 894 273 854 245 829 C 217 803 182 791 140 791 C 98 791 63 803 35 829 C 7 854 -9 894 -13 950 L 72 950 C 74 922 80 899 90 883 C 100 867 117 859 140 859 C 162 859 179 867 190 883 C 200 899 207 921 209 950 Z" unicode="Ĭ" />
<glyph horiz-adv-x="232" d="M 0 0 L 0 0 Z M 167 0 L 65 0 L 65 490 L 167 490 L 167 0 Z M 115 551 L 115 551 Z M 184 710 L 268 710 C 264 654 248 614 220 589 C 192 563 157 551 115 551 C 73 551 38 563 10 589 C -18 614 -34 654 -38 710 L 47 710 C 49 682 55 659 65 643 C 75 627 92 619 115 619 C 137 619 154 627 165 643 C 175 659 182 681 184 710 Z" unicode="ĭ" />
<glyph horiz-adv-x="281" d="M 0 0 L 0 0 Z M 196 0 L 85 0 L 85 730 L 196 730 L 196 0 Z M 100 -9 L 100 -9 Z M 202 -92 L 230 -135 C 210 -156 187 -172 163 -183 C 138 -194 110 -200 80 -200 C 46 -200 19 -192 0 -178 C -19 -163 -29 -144 -29 -122 C -29 -97 -18 -74 1 -53 C 21 -31 50 -13 88 2 L 145 2 C 119 -10 98 -24 82 -38 C 66 -52 58 -67 58 -81 C 58 -94 63 -104 73 -112 C 83 -120 96 -124 113 -124 C 131 -124 148 -121 163 -115 C 178 -109 191 -101 202 -92 Z" unicode="Į" />
<glyph horiz-adv-x="232" d="M 0 0 L 0 0 Z M 63 586 L 63 691 L 169 691 L 169 586 L 63 586 Z M 65 0 L 65 490 L 167 490 L 167 0 L 65 0 Z M 82 -8 L 82 -8 Z M 184 -91 L 212 -134 C 192 -155 169 -171 145 -182 C 120 -193 92 -199 62 -199 C 28 -199 1 -191 -18 -177 C -37 -162 -47 -143 -47 -121 C -47 -96 -36 -73 -16 -52 C 3 -30 32 -12 70 3 L 127 3 C 101 -9 80 -23 64 -37 C 48 -51 40 -66 40 -80 C 40 -93 45 -103 55 -111 C 65 -119 78 -123 95 -123 C 113 -123 130 -120 145 -114 C 160 -108 173 -100 184 -91 Z" unicode="į" />
<glyph horiz-adv-x="281" d="M 85 0 L 85 0 Z M 196 0 L 85 0 L 85 730 L 196 730 L 196 0 Z M 140 792 L 140 792 Z M 187 792 L 94 792 L 94 942 L 187 942 L 187 792 Z" unicode="İ" />
<glyph horiz-adv-x="232" d="M 167 0 L 65 0 L 65 490 L 167 490 L 167 0 Z" unicode="ı" />
<glyph horiz-adv-x="593" d="M 85 0 L 85 0 Z M 196 0 L 85 0 L 85 730 L 196 730 L 196 0 Z M 519 730 L 519 191 C 519 163 514 137 506 113 C 497 88 484 66 468 48 C 451 30 430 15 406 5 C 381 -5 353 -11 322 -11 C 305 -11 288 -9 270 -7 C 252 -4 238 0 228 5 L 245 97 C 251 94 260 92 273 90 C 285 88 297 88 308 88 C 341 88 367 98 385 119 C 403 140 412 166 412 197 L 412 730 L 519 730 Z" unicode="Ĳ" />
<glyph horiz-adv-x="438" d="M 63 0 L 63 0 Z M 63 586 L 63 691 L 169 691 L 169 586 L 63 586 Z M 65 0 L 65 490 L 167 490 L 167 0 L 65 0 Z M 384 586 L 279 586 L 279 691 L 384 691 L 384 586 Z M 382 490 L 382 -48 C 382 -92 369 -127 344 -155 C 318 -182 286 -196 246 -196 C 228 -196 211 -194 193 -190 C 175 -186 161 -181 151 -175 L 172 -96 C 178 -99 186 -102 196 -104 C 206 -106 216 -107 227 -107 C 242 -107 255 -100 265 -87 C 275 -74 281 -57 281 -36 L 281 490 L 382 490 Z" unicode="ĳ" />
<glyph horiz-adv-x="370" d="M 8 0 L 8 0 Z M 299 730 L 299 191 C 299 163 294 137 286 113 C 277 88 264 66 248 48 C 231 30 210 15 186 5 C 161 -5 133 -11 102 -11 C 85 -11 68 -9 50 -7 C 32 -4 18 0 8 5 L 25 97 C 31 94 40 92 53 90 C 65 88 77 88 88 88 C 121 88 147 98 165 119 C 183 140 192 166 192 197 L 192 730 L 299 730 Z M 245 788 L 245 788 Z M 409 788 L 318 788 L 245 892 L 171 788 L 82 788 L 197 960 L 294 960 L 409 788 Z" unicode="Ĵ" />
<glyph horiz-adv-x="245" d="M 0 0 L 0 0 Z M 185 490 L 185 -48 C 185 -92 172 -127 146 -155 C 120 -183 88 -196 48 -196 C 31 -196 13 -194 -4 -190 C -22 -186 -36 -182 -46 -176 L -26 -97 C -19 -99 -11 -102 -1 -104 C 8 -106 18 -108 30 -108 C 44 -108 57 -101 68 -88 C 78 -75 84 -58 84 -36 L 84 490 L 185 490 Z M 132 548 L 132 548 Z M 296 548 L 205 548 L 132 652 L 58 548 L -31 548 L 84 720 L 181 720 L 296 548 Z" unicode="ĵ" />
<glyph horiz-adv-x="626" d="M 81 0 L 81 0 Z M 625 0 L 492 0 L 260 318 L 191 235 L 191 0 L 81 0 L 81 730 L 191 730 L 191 369 L 468 730 L 592 730 L 334 400 L 625 0 Z M 314 -72 L 314 -72 Z M 409 -72 C 407 -97 402 -123 395 -149 C 387 -175 378 -200 368 -224 C 358 -247 346 -268 334 -287 C 321 -306 308 -321 296 -333 L 219 -299 C 226 -290 234 -277 243 -261 C 252 -245 260 -226 268 -206 C 276 -186 283 -164 289 -141 C 295 -117 300 -94 303 -72 L 409 -72 Z" unicode="Ķ" />
<glyph horiz-adv-x="487" d="M 62 0 L 62 0 Z M 504 1 L 388 0 L 237 210 L 163 125 L 163 0 L 62 0 L 62 776 L 160 776 L 160 238 L 361 490 L 472 490 L 304 284 L 504 1 Z M 245 -72 L 245 -72 Z M 340 -72 C 338 -97 333 -123 326 -149 C 318 -175 309 -200 299 -224 C 289 -247 277 -268 265 -287 C 252 -306 239 -321 227 -333 L 150 -299 C 157 -290 165 -277 174 -261 C 183 -245 191 -226 199 -206 C 207 -186 214 -164 220 -141 C 226 -117 231 -94 234 -72 L 340 -72 Z" unicode="ķ" />
<glyph horiz-adv-x="487" d="M 504 1 L 388 0 L 237 210 L 163 125 L 163 0 L 62 0 L 62 490 L 160 490 L 160 238 L 361 490 L 472 490 L 304 284 L 504 1 Z" unicode="ĸ" />
<glyph horiz-adv-x="468" d="M 81 0 L 81 0 Z M 459 0 L 81 0 L 81 730 L 191 730 L 191 98 L 459 98 L 459 0 Z M 290 790 L 290 790 Z M 182 790 L 280 956 L 400 956 L 282 790 L 182 790 Z" unicode="Ĺ" />
<glyph horiz-adv-x="225" d="M 62 0 L 62 0 Z M 173 837 L 173 837 Z M 65 837 L 163 1003 L 283 1003 L 165 837 L 65 837 Z M 164 777 L 164 0 L 62 0 L 62 777 L 164 777 Z" unicode="ĺ" />
<glyph horiz-adv-x="468" d="M 81 0 L 81 0 Z M 459 0 L 81 0 L 81 730 L 191 730 L 191 98 L 459 98 L 459 0 Z M 253 -72 L 253 -72 Z M 348 -72 C 346 -97 341 -123 334 -149 C 326 -175 317 -200 307 -224 C 297 -247 285 -268 273 -287 C 260 -306 247 -321 235 -333 L 158 -299 C 165 -290 173 -277 182 -261 C 191 -245 199 -226 207 -206 C 215 -186 222 -164 228 -141 C 234 -117 239 -94 242 -72 L 348 -72 Z" unicode="Ļ" />
<glyph horiz-adv-x="225" d="M 0 0 L 0 0 Z M 164 777 L 164 0 L 62 0 L 62 777 L 164 777 Z M 83 -72 L 83 -72 Z M 178 -72 C 176 -97 171 -123 164 -149 C 156 -175 147 -200 137 -224 C 127 -247 115 -268 103 -287 C 90 -306 77 -321 65 -333 L -12 -299 C -4 -290 3 -277 12 -261 C 21 -245 29 -226 37 -206 C 45 -186 52 -164 58 -141 C 64 -117 69 -94 72 -72 L 178 -72 Z" unicode="ļ" />
<glyph horiz-adv-x="468" d="M 81 0 L 81 0 Z M 459 0 L 81 0 L 81 730 L 191 730 L 191 98 L 459 98 L 459 0 Z M 466 614 L 461 469 L 375 469 L 370 614 L 370 730 L 466 730 L 466 614 Z" unicode="Ľ" />
<glyph horiz-adv-x="225" d="M 62 0 L 62 0 Z M 164 777 L 164 0 L 62 0 L 62 777 L 164 777 Z M 307 614 L 302 469 L 216 469 L 211 614 L 211 730 L 307 730 L 307 614 Z" unicode="ľ" />
<glyph horiz-adv-x="468" d="M 81 0 L 81 0 Z M 459 0 L 81 0 L 81 730 L 191 730 L 191 98 L 459 98 L 459 0 Z M 336 288 L 336 288 Z M 383 288 L 290 288 L 290 438 L 383 438 L 383 288 Z" unicode="Ŀ" />
<glyph horiz-adv-x="225" d="M 62 0 L 62 0 Z M 164 777 L 164 0 L 62 0 L 62 777 L 164 777 Z M 260 209 L 260 209 Z M 307 209 L 214 209 L 214 359 L 307 359 L 307 209 Z" unicode="ŀ" />
<glyph horiz-adv-x="468" d="M 448 93 L 448 0 L 81 0 L 81 264 L 31 243 L -6 320 L 81 356 L 81 730 L 191 730 L 191 402 L 343 465 L 378 388 L 191 310 L 191 93 L 448 93 Z" unicode="Ł" />
<glyph horiz-adv-x="225" d="M 243 345 L 168 310 L 168 0 L 66 0 L 66 262 L 21 241 L -8 310 L 66 345 L 66 776 L 168 776 L 168 394 L 213 415 L 243 345 Z" unicode="ł" />
<glyph horiz-adv-x="701" d="M 81 0 L 81 0 Z M 620 0 L 543 0 L 185 514 L 185 0 L 81 0 L 81 730 L 163 730 L 518 219 L 518 730 L 620 730 L 620 0 Z M 351 790 L 351 790 Z M 243 790 L 341 956 L 461 956 L 343 790 L 243 790 Z" unicode="Ń" />
<glyph horiz-adv-x="527" d="M 62 0 L 62 0 Z M 470 0 L 368 0 L 368 331 C 368 357 359 377 342 392 C 324 406 302 414 276 414 C 247 414 221 405 198 388 C 174 370 163 343 163 305 L 163 0 L 62 0 L 62 490 L 154 490 L 154 406 C 164 433 183 455 211 473 C 239 491 273 500 312 500 C 357 500 395 487 425 462 C 455 437 470 403 470 359 L 470 0 Z M 270 550 L 270 550 Z M 162 550 L 260 716 L 380 716 L 262 550 L 162 550 Z" unicode="ń" />
<glyph horiz-adv-x="701" d="M 81 0 L 81 0 Z M 620 0 L 543 0 L 185 514 L 185 0 L 81 0 L 81 730 L 163 730 L 518 219 L 518 730 L 620 730 L 620 0 Z M 331 -72 L 331 -72 Z M 426 -72 C 424 -97 419 -123 412 -149 C 404 -175 395 -200 385 -224 C 375 -247 363 -268 351 -287 C 338 -306 325 -321 313 -333 L 236 -299 C 243 -290 251 -277 260 -261 C 269 -245 277 -226 285 -206 C 293 -186 300 -164 306 -141 C 312 -117 317 -94 320 -72 L 426 -72 Z" unicode="Ņ" />
<glyph horiz-adv-x="527" d="M 62 0 L 62 0 Z M 470 0 L 368 0 L 368 331 C 368 357 359 377 342 392 C 324 406 302 414 276 414 C 247 414 221 405 198 388 C 174 370 163 343 163 305 L 163 0 L 62 0 L 62 490 L 154 490 L 154 406 C 164 433 183 455 211 473 C 239 491 273 500 312 500 C 357 500 395 487 425 462 C 455 437 470 403 470 359 L 470 0 Z M 240 -72 L 240 -72 Z M 335 -72 C 333 -97 328 -123 321 -149 C 313 -175 304 -200 294 -224 C 284 -247 272 -268 260 -287 C 247 -306 234 -321 222 -333 L 145 -299 C 152 -290 160 -277 169 -261 C 178 -245 186 -226 194 -206 C 202 -186 209 -164 215 -141 C 221 -117 226 -94 229 -72 L 335 -72 Z" unicode="ņ" />
<glyph horiz-adv-x="701" d="M 81 0 L 81 0 Z M 620 0 L 543 0 L 185 514 L 185 0 L 81 0 L 81 730 L 163 730 L 518 219 L 518 730 L 620 730 L 620 0 Z M 351 788 L 351 788 Z M 188 960 L 279 960 L 352 856 L 426 960 L 515 960 L 400 788 L 303 788 L 188 960 Z" unicode="Ň" />
<glyph horiz-adv-x="527" d="M 62 0 L 62 0 Z M 470 0 L 368 0 L 368 331 C 368 357 359 377 342 392 C 324 406 302 414 276 414 C 247 414 221 405 198 388 C 174 370 163 343 163 305 L 163 0 L 62 0 L 62 490 L 154 490 L 154 406 C 164 433 183 455 211 473 C 239 491 273 500 312 500 C 357 500 395 487 425 462 C 455 437 470 403 470 359 L 470 0 Z M 270 548 L 270 548 Z M 107 720 L 198 720 L 271 616 L 345 720 L 434 720 L 319 548 L 222 548 L 107 720 Z" unicode="ň" />
<glyph horiz-adv-x="705" d="M 518 730 L 620 730 L 620 0 L 620 0 C 619 -58 603 -106 571 -143 C 539 -180 496 -199 440 -199 C 420 -199 401 -197 382 -194 C 362 -191 347 -186 336 -180 L 350 -88 C 358 -92 370 -96 385 -99 C 399 -101 414 -103 428 -103 C 456 -103 478 -92 495 -70 C 511 -48 520 -22 520 9 L 520 33 L 185 514 L 185 0 L 81 0 L 81 730 L 163 730 L 518 219 L 518 730 Z" unicode="Ŋ" />
<glyph horiz-adv-x="527" d="M 312 500 C 357 500 395 487 425 462 C 455 437 470 403 470 359 L 470 -39 C 470 -87 456 -126 430 -156 C 403 -186 368 -201 325 -201 C 308 -201 291 -199 273 -196 C 255 -192 241 -188 231 -182 L 249 -99 C 255 -101 264 -104 274 -106 C 284 -108 295 -110 307 -110 C 324 -110 338 -102 350 -86 C 362 -70 368 -50 368 -26 L 368 331 C 368 357 359 377 342 392 C 324 406 302 414 276 414 C 247 414 221 405 198 388 C 174 370 163 343 163 305 L 163 0 L 62 0 L 62 490 L 154 490 L 154 406 C 164 433 183 455 211 473 C 239 491 273 500 312 500 Z" unicode="ŋ" />
<glyph horiz-adv-x="750" d="M 42 0 L 42 0 Z M 378 -10 C 326 -10 280 0 238 17 C 196 35 161 61 132 94 C 103 127 81 167 65 214 C 49 261 42 313 42 370 C 42 424 50 474 67 520 C 83 566 106 605 135 637 C 164 669 199 695 239 713 C 279 731 323 740 371 740 C 421 740 467 731 509 713 C 551 695 586 671 616 639 C 645 607 668 567 684 521 C 700 475 709 423 709 367 C 709 310 700 258 683 212 C 665 165 642 125 612 93 C 582 60 547 35 507 17 C 467 -1 424 -10 378 -10 Z M 380 86 C 442 86 494 110 535 159 C 576 207 597 277 597 369 C 597 453 575 520 533 568 C 490 616 436 641 370 641 C 306 641 254 617 214 571 C 174 525 154 457 154 368 C 154 322 159 281 171 246 C 183 210 199 181 219 157 C 239 133 262 116 290 104 C 318 92 348 86 380 86 Z M 372 804 L 372 804 Z M 502 804 L 242 804 L 242 885 L 502 885 L 502 804 Z" unicode="Ō" />
<glyph horiz-adv-x="531" d="M 30 0 L 30 0 Z M 263 -9 C 232 -9 202 -3 174 8 C 146 19 121 35 100 57 C 78 78 61 104 49 136 C 36 167 30 203 30 243 C 30 280 36 314 48 346 C 60 377 77 404 98 427 C 118 449 143 467 171 480 C 199 493 229 500 261 500 C 294 500 325 494 355 483 C 384 471 409 455 431 434 C 453 413 470 388 482 358 C 494 328 501 294 501 257 C 501 217 494 181 482 149 C 470 116 453 88 432 65 C 411 41 386 23 357 10 C 327 -2 296 -9 263 -9 Z M 266 79 C 304 79 335 94 359 124 C 383 154 395 196 395 250 C 395 300 383 339 359 368 C 335 396 302 411 260 411 C 224 411 194 396 171 367 C 147 338 136 297 136 245 C 136 189 148 147 173 120 C 197 92 228 79 266 79 Z M 262 564 L 262 564 Z M 392 564 L 132 564 L 132 645 L 392 645 L 392 564 Z" unicode="ō" />
<glyph horiz-adv-x="750" d="M 42 0 L 42 0 Z M 378 -10 C 326 -10 280 0 238 17 C 196 35 161 61 132 94 C 103 127 81 167 65 214 C 49 261 42 313 42 370 C 42 424 50 474 67 520 C 83 566 106 605 135 637 C 164 669 199 695 239 713 C 279 731 323 740 371 740 C 421 740 467 731 509 713 C 551 695 586 671 616 639 C 645 607 668 567 684 521 C 700 475 709 423 709 367 C 709 310 700 258 683 212 C 665 165 642 125 612 93 C 582 60 547 35 507 17 C 467 -1 424 -10 378 -10 Z M 380 86 C 442 86 494 110 535 159 C 576 207 597 277 597 369 C 597 453 575 520 533 568 C 490 616 436 641 370 641 C 306 641 254 617 214 571 C 174 525 154 457 154 368 C 154 322 159 281 171 246 C 183 210 199 181 219 157 C 239 133 262 116 290 104 C 318 92 348 86 380 86 Z M 372 791 L 372 791 Z M 441 950 L 525 950 C 521 894 505 854 477 829 C 449 803 414 791 372 791 C 330 791 295 803 267 829 C 239 854 223 894 219 950 L 304 950 C 306 922 312 899 322 883 C 332 867 349 859 372 859 C 394 859 411 867 422 883 C 432 899 439 921 441 950 Z" unicode="Ŏ" />
<glyph horiz-adv-x="531" d="M 30 0 L 30 0 Z M 263 -9 C 232 -9 202 -3 174 8 C 146 19 121 35 100 57 C 78 78 61 104 49 136 C 36 167 30 203 30 243 C 30 280 36 314 48 346 C 60 377 77 404 98 427 C 118 449 143 467 171 480 C 199 493 229 500 261 500 C 294 500 325 494 355 483 C 384 471 409 455 431 434 C 453 413 470 388 482 358 C 494 328 501 294 501 257 C 501 217 494 181 482 149 C 470 116 453 88 432 65 C 411 41 386 23 357 10 C 327 -2 296 -9 263 -9 Z M 266 79 C 304 79 335 94 359 124 C 383 154 395 196 395 250 C 395 300 383 339 359 368 C 335 396 302 411 260 411 C 224 411 194 396 171 367 C 147 338 136 297 136 245 C 136 189 148 147 173 120 C 197 92 228 79 266 79 Z M 262 551 L 262 551 Z M 331 710 L 415 710 C 411 654 395 614 367 589 C 339 563 304 551 262 551 C 220 551 185 563 157 589 C 129 614 113 654 109 710 L 194 710 C 196 682 202 659 212 643 C 222 627 239 619 262 619 C 284 619 301 627 312 643 C 322 659 329 681 331 710 Z" unicode="ŏ" />
<glyph horiz-adv-x="750" d="M 42 0 L 42 0 Z M 378 -10 C 326 -10 280 0 238 17 C 196 35 161 61 132 94 C 103 127 81 167 65 214 C 49 261 42 313 42 370 C 42 424 50 474 67 520 C 83 566 106 605 135 637 C 164 669 199 695 239 713 C 279 731 323 740 371 740 C 421 740 467 731 509 713 C 551 695 586 671 616 639 C 645 607 668 567 684 521 C 700 475 709 423 709 367 C 709 310 700 258 683 212 C 665 165 642 125 612 93 C 582 60 547 35 507 17 C 467 -1 424 -10 378 -10 Z M 380 86 C 442 86 494 110 535 159 C 576 207 597 277 597 369 C 597 453 575 520 533 568 C 490 616 436 641 370 641 C 306 641 254 617 214 571 C 174 525 154 457 154 368 C 154 322 159 281 171 246 C 183 210 199 181 219 157 C 239 133 262 116 290 104 C 318 92 348 86 380 86 Z M 372 787 L 372 787 Z M 182 787 L 267 941 L 375 941 L 272 787 L 182 787 Z M 368 787 L 454 941 L 562 941 L 458 787 L 368 787 Z" unicode="Ő" />
<glyph horiz-adv-x="531" d="M 30 0 L 30 0 Z M 263 -9 C 232 -9 202 -3 174 8 C 146 19 121 35 100 57 C 78 78 61 104 49 136 C 36 167 30 203 30 243 C 30 280 36 314 48 346 C 60 377 77 404 98 427 C 118 449 143 467 171 480 C 199 493 229 500 261 500 C 294 500 325 494 355 483 C 384 471 409 455 431 434 C 453 413 470 388 482 358 C 494 328 501 294 501 257 C 501 217 494 181 482 149 C 470 116 453 88 432 65 C 411 41 386 23 357 10 C 327 -2 296 -9 263 -9 Z M 266 79 C 304 79 335 94 359 124 C 383 154 395 196 395 250 C 395 300 383 339 359 368 C 335 396 302 411 260 411 C 224 411 194 396 171 367 C 147 338 136 297 136 245 C 136 189 148 147 173 120 C 197 92 228 79 266 79 Z M 262 547 L 262 547 Z M 72 547 L 157 701 L 265 701 L 162 547 L 72 547 Z M 258 547 L 344 701 L 452 701 L 348 547 L 258 547 Z" unicode="ő" />
<glyph horiz-adv-x="1032" d="M 360 -10 C 312 -10 268 -1 229 17 C 189 35 156 60 129 93 C 101 125 80 165 65 212 C 49 259 42 312 42 370 C 42 424 50 474 66 520 C 82 566 105 605 134 637 C 162 669 196 695 236 713 C 275 731 317 740 363 740 C 387 740 412 736 436 730 C 460 723 482 714 502 702 C 522 690 540 677 556 661 C 571 645 582 627 590 609 L 590 730 L 974 730 L 974 634 L 695 634 L 695 410 L 961 410 L 961 316 L 695 316 L 695 96 L 993 96 L 993 0 L 590 0 L 590 132 C 575 93 547 60 507 32 C 467 4 418 -10 360 -10 Z M 373 81 C 404 81 433 87 460 99 C 486 111 509 129 528 153 C 547 177 562 207 573 243 C 584 279 590 321 590 369 C 590 415 583 456 571 491 C 558 525 541 554 521 577 C 500 599 476 616 450 628 C 424 639 397 645 371 645 C 307 645 255 621 215 574 C 174 526 154 457 154 365 C 154 317 159 276 171 240 C 182 204 197 175 217 151 C 236 127 259 110 286 98 C 313 86 342 81 373 81 Z" unicode="Œ" />
<glyph horiz-adv-x="873" d="M 262 -9 C 230 -9 199 -3 171 8 C 143 20 118 36 98 58 C 77 79 60 105 48 137 C 36 168 30 203 30 243 C 30 279 36 313 48 345 C 60 377 76 404 97 427 C 118 449 143 467 171 480 C 199 493 230 500 263 500 C 289 500 313 496 334 489 C 354 482 372 473 388 463 C 403 452 415 440 425 426 C 435 412 442 399 446 386 C 449 398 456 410 466 424 C 476 437 489 449 505 461 C 520 472 538 481 559 489 C 579 496 602 500 626 500 C 696 500 751 474 790 424 C 828 373 848 303 849 215 L 495 215 C 495 175 509 142 535 116 C 561 90 594 77 634 77 C 669 77 697 83 718 96 C 738 108 756 122 770 138 L 829 76 C 809 53 785 33 755 16 C 725 0 685 -9 633 -9 C 607 -9 583 -5 562 1 C 540 7 521 16 505 27 C 489 37 475 49 465 63 C 455 76 448 89 444 102 C 440 90 432 77 422 64 C 412 51 399 39 384 28 C 368 17 350 8 330 1 C 309 -5 286 -9 262 -9 Z M 497 290 L 749 290 C 747 327 735 357 713 381 C 690 404 660 416 624 416 C 587 416 557 404 535 380 C 513 356 500 326 497 290 Z M 266 79 C 305 79 336 93 360 123 C 383 152 395 195 395 251 C 395 301 382 341 358 369 C 334 397 302 411 262 411 C 224 411 193 396 170 367 C 147 337 136 297 136 245 C 136 189 148 147 173 120 C 197 92 228 79 266 79 Z" unicode="œ" />
<glyph horiz-adv-x="573" d="M 81 0 L 81 0 Z M 81 0 L 81 730 L 289 730 C 318 730 345 725 371 717 C 397 708 419 695 437 678 C 455 661 470 640 480 615 C 490 590 496 562 496 530 C 496 500 492 473 484 449 C 476 425 465 404 452 387 C 438 370 423 356 405 346 C 387 336 368 329 349 327 L 347 323 L 558 0 L 434 0 L 243 299 L 188 299 L 188 0 L 81 0 Z M 187 391 L 267 391 C 301 391 330 402 353 424 C 376 446 388 477 388 517 C 388 555 376 584 354 605 C 332 625 304 636 271 636 L 187 636 L 187 391 Z M 277 790 L 277 790 Z M 169 790 L 267 956 L 387 956 L 269 790 L 169 790 Z" unicode="Ŕ" />
<glyph horiz-adv-x="391" d="M 62 0 L 62 0 Z M 393 469 L 351 382 C 339 392 326 399 313 403 C 299 407 285 410 271 410 C 258 410 245 407 232 402 C 219 397 207 389 197 379 C 187 369 178 356 172 341 C 166 326 163 309 163 289 L 163 0 L 62 0 L 62 490 L 158 490 L 158 401 C 164 424 180 446 205 468 C 230 489 261 500 299 500 C 319 500 338 497 354 491 C 370 485 383 477 393 469 Z M 231 550 L 231 550 Z M 123 550 L 221 716 L 341 716 L 223 550 L 123 550 Z" unicode="ŕ" />
<glyph horiz-adv-x="573" d="M 81 0 L 81 0 Z M 81 0 L 81 730 L 289 730 C 318 730 345 725 371 717 C 397 708 419 695 437 678 C 455 661 470 640 480 615 C 490 590 496 562 496 530 C 496 500 492 473 484 449 C 476 425 465 404 452 387 C 438 370 423 356 405 346 C 387 336 368 329 349 327 L 347 323 L 558 0 L 434 0 L 243 299 L 188 299 L 188 0 L 81 0 Z M 187 391 L 267 391 C 301 391 330 402 353 424 C 376 446 388 477 388 517 C 388 555 376 584 354 605 C 332 625 304 636 271 636 L 187 636 L 187 391 Z M 277 -72 L 277 -72 Z M 372 -72 C 370 -97 365 -123 358 -149 C 350 -175 341 -200 331 -224 C 321 -247 309 -268 297 -287 C 284 -306 271 -321 259 -333 L 182 -299 C 189 -290 197 -277 206 -261 C 215 -245 223 -226 231 -206 C 239 -186 246 -164 252 -141 C 258 -117 263 -94 266 -72 L 372 -72 Z" unicode="Ŗ" />
<glyph horiz-adv-x="391" d="M 62 0 L 62 0 Z M 393 469 L 351 382 C 339 392 326 399 313 403 C 299 407 285 410 271 410 C 258 410 245 407 232 402 C 219 397 207 389 197 379 C 187 369 178 356 172 341 C 166 326 163 309 163 289 L 163 0 L 62 0 L 62 490 L 158 490 L 158 401 C 164 424 180 446 205 468 C 230 489 261 500 299 500 C 319 500 338 497 354 491 C 370 485 383 477 393 469 Z M 205 -72 L 205 -72 Z M 300 -72 C 298 -97 293 -123 286 -149 C 278 -175 269 -200 259 -224 C 249 -247 237 -268 225 -287 C 212 -306 199 -321 187 -333 L 110 -299 C 117 -290 125 -277 134 -261 C 143 -245 151 -226 159 -206 C 167 -186 174 -164 180 -141 C 186 -117 191 -94 194 -72 L 300 -72 Z" unicode="ŗ" />
<glyph horiz-adv-x="573" d="M 81 0 L 81 0 Z M 81 0 L 81 730 L 289 730 C 318 730 345 725 371 717 C 397 708 419 695 437 678 C 455 661 470 640 480 615 C 490 590 496 562 496 530 C 496 500 492 473 484 449 C 476 425 465 404 452 387 C 438 370 423 356 405 346 C 387 336 368 329 349 327 L 347 323 L 558 0 L 434 0 L 243 299 L 188 299 L 188 0 L 81 0 Z M 187 391 L 267 391 C 301 391 330 402 353 424 C 376 446 388 477 388 517 C 388 555 376 584 354 605 C 332 625 304 636 271 636 L 187 636 L 187 391 Z M 277 788 L 277 788 Z M 114 960 L 205 960 L 278 856 L 352 960 L 441 960 L 326 788 L 229 788 L 114 960 Z" unicode="Ř" />
<glyph horiz-adv-x="391" d="M 62 0 L 62 0 Z M 393 469 L 351 382 C 339 392 326 399 313 403 C 299 407 285 410 271 410 C 258 410 245 407 232 402 C 219 397 207 389 197 379 C 187 369 178 356 172 341 C 166 326 163 309 163 289 L 163 0 L 62 0 L 62 490 L 158 490 L 158 401 C 164 424 180 446 205 468 C 230 489 261 500 299 500 C 319 500 338 497 354 491 C 370 485 383 477 393 469 Z M 231 548 L 231 548 Z M 68 720 L 159 720 L 232 616 L 306 720 L 395 720 L 280 548 L 183 548 L 68 720 Z" unicode="ř" />
<glyph horiz-adv-x="509" d="M 26 0 L 26 0 Z M 260 -10 C 209 -10 164 -2 125 12 C 85 27 52 50 26 80 L 93 159 C 110 136 134 117 164 103 C 194 89 225 82 257 82 C 288 82 315 91 337 109 C 359 127 370 152 370 182 C 370 212 360 237 340 258 C 320 278 285 301 235 326 C 174 354 128 384 96 417 C 64 450 49 497 49 557 C 49 611 68 655 107 689 C 145 723 195 740 256 740 C 300 740 338 733 370 719 C 402 705 430 689 452 669 L 394 586 C 375 602 354 616 330 626 C 306 636 282 642 257 642 C 226 642 201 634 182 618 C 162 602 153 580 153 554 C 153 525 164 501 184 483 C 204 465 242 442 298 416 C 362 386 407 353 434 319 C 461 285 475 241 475 187 C 475 155 469 127 457 103 C 445 78 429 57 409 41 C 389 24 367 11 341 3 C 315 -5 288 -10 260 -10 Z M 253 790 L 253 790 Z M 145 790 L 243 956 L 363 956 L 245 790 L 145 790 Z" unicode="Ś" />
<glyph horiz-adv-x="405" d="M 26 0 L 26 0 Z M 216 -9 C 174 -9 137 -3 105 8 C 73 20 46 36 26 56 L 75 125 C 91 110 112 98 136 89 C 160 79 185 75 210 75 C 230 75 248 80 262 91 C 276 101 283 116 283 134 C 283 150 274 165 258 177 C 242 189 215 201 177 214 C 132 229 98 249 76 273 C 53 297 42 328 42 366 C 42 404 57 436 89 462 C 120 487 159 500 205 500 C 243 500 275 494 303 484 C 330 473 351 461 366 449 L 322 376 C 308 386 291 395 272 403 C 252 411 232 416 210 416 C 190 416 173 411 159 403 C 144 395 137 383 137 369 C 137 354 143 342 155 332 C 167 322 194 309 234 295 C 282 277 318 256 342 233 C 366 209 378 177 378 137 C 378 113 373 93 365 75 C 356 57 344 41 330 29 C 315 17 298 7 278 1 C 258 -5 237 -9 216 -9 Z M 208 550 L 208 550 Z M 100 550 L 198 716 L 318 716 L 200 550 L 100 550 Z" unicode="ś" />
<glyph horiz-adv-x="509" d="M 26 0 L 26 0 Z M 260 -10 C 209 -10 164 -2 125 12 C 85 27 52 50 26 80 L 93 159 C 110 136 134 117 164 103 C 194 89 225 82 257 82 C 288 82 315 91 337 109 C 359 127 370 152 370 182 C 370 212 360 237 340 258 C 320 278 285 301 235 326 C 174 354 128 384 96 417 C 64 450 49 497 49 557 C 49 611 68 655 107 689 C 145 723 195 740 256 740 C 300 740 338 733 370 719 C 402 705 430 689 452 669 L 394 586 C 375 602 354 616 330 626 C 306 636 282 642 257 642 C 226 642 201 634 182 618 C 162 602 153 580 153 554 C 153 525 164 501 184 483 C 204 465 242 442 298 416 C 362 386 407 353 434 319 C 461 285 475 241 475 187 C 475 155 469 127 457 103 C 445 78 429 57 409 41 C 389 24 367 11 341 3 C 315 -5 288 -10 260 -10 Z M 253 788 L 253 788 Z M 417 788 L 326 788 L 253 892 L 179 788 L 90 788 L 205 960 L 302 960 L 417 788 Z" unicode="Ŝ" />
<glyph horiz-adv-x="405" d="M 26 0 L 26 0 Z M 216 -9 C 174 -9 137 -3 105 8 C 73 20 46 36 26 56 L 75 125 C 91 110 112 98 136 89 C 160 79 185 75 210 75 C 230 75 248 80 262 91 C 276 101 283 116 283 134 C 283 150 274 165 258 177 C 242 189 215 201 177 214 C 132 229 98 249 76 273 C 53 297 42 328 42 366 C 42 404 57 436 89 462 C 120 487 159 500 205 500 C 243 500 275 494 303 484 C 330 473 351 461 366 449 L 322 376 C 308 386 291 395 272 403 C 252 411 232 416 210 416 C 190 416 173 411 159 403 C 144 395 137 383 137 369 C 137 354 143 342 155 332 C 167 322 194 309 234 295 C 282 277 318 256 342 233 C 366 209 378 177 378 137 C 378 113 373 93 365 75 C 356 57 344 41 330 29 C 315 17 298 7 278 1 C 258 -5 237 -9 216 -9 Z M 208 548 L 208 548 Z M 372 548 L 281 548 L 208 652 L 134 548 L 45 548 L 160 720 L 257 720 L 372 548 Z" unicode="ŝ" />
<glyph horiz-adv-x="509" d="M 26 0 L 26 0 Z M 260 -10 C 209 -10 164 -2 125 12 C 85 27 52 50 26 80 L 93 159 C 110 136 134 117 164 103 C 194 89 225 82 257 82 C 288 82 315 91 337 109 C 359 127 370 152 370 182 C 370 212 360 237 340 258 C 320 278 285 301 235 326 C 174 354 128 384 96 417 C 64 450 49 497 49 557 C 49 611 68 655 107 689 C 145 723 195 740 256 740 C 300 740 338 733 370 719 C 402 705 430 689 452 669 L 394 586 C 375 602 354 616 330 626 C 306 636 282 642 257 642 C 226 642 201 634 182 618 C 162 602 153 580 153 554 C 153 525 164 501 184 483 C 204 465 242 442 298 416 C 362 386 407 353 434 319 C 461 285 475 241 475 187 C 475 155 469 127 457 103 C 445 78 429 57 409 41 C 389 24 367 11 341 3 C 315 -5 288 -10 260 -10 Z M 241 -3 L 241 -3 Z M 248 -190 C 224 -190 201 -187 177 -181 C 153 -175 134 -167 121 -158 L 136 -114 C 144 -119 156 -124 171 -130 C 186 -135 202 -138 220 -138 C 233 -138 245 -135 255 -129 C 265 -123 270 -114 270 -104 C 270 -92 265 -84 256 -79 C 247 -74 237 -72 227 -72 C 220 -72 214 -72 208 -73 C 202 -74 197 -76 191 -79 L 177 -63 L 236 11 L 295 11 L 247 -50 C 279 -44 306 -48 328 -60 C 350 -72 361 -90 361 -114 C 361 -138 349 -157 327 -170 C 304 -183 278 -190 248 -190 Z" unicode="Ş" />
<glyph horiz-adv-x="405" d="M 26 0 L 26 0 Z M 216 -9 C 174 -9 137 -3 105 8 C 73 20 46 36 26 56 L 75 125 C 91 110 112 98 136 89 C 160 79 185 75 210 75 C 230 75 248 80 262 91 C 276 101 283 116 283 134 C 283 150 274 165 258 177 C 242 189 215 201 177 214 C 132 229 98 249 76 273 C 53 297 42 328 42 366 C 42 404 57 436 89 462 C 120 487 159 500 205 500 C 243 500 275 494 303 484 C 330 473 351 461 366 449 L 322 376 C 308 386 291 395 272 403 C 252 411 232 416 210 416 C 190 416 173 411 159 403 C 144 395 137 383 137 369 C 137 354 143 342 155 332 C 167 322 194 309 234 295 C 282 277 318 256 342 233 C 366 209 378 177 378 137 C 378 113 373 93 365 75 C 356 57 344 41 330 29 C 315 17 298 7 278 1 C 258 -5 237 -9 216 -9 Z M 195 0 L 195 0 Z M 202 -187 C 178 -187 155 -184 131 -178 C 107 -172 88 -164 75 -155 L 90 -111 C 98 -116 110 -121 125 -127 C 140 -132 156 -135 174 -135 C 187 -135 199 -132 209 -126 C 219 -120 224 -111 224 -101 C 224 -89 219 -81 210 -76 C 201 -71 191 -69 181 -69 C 174 -69 168 -69 162 -70 C 156 -71 151 -73 145 -76 L 131 -60 L 190 14 L 249 14 L 201 -47 C 233 -41 260 -45 282 -57 C 304 -69 315 -87 315 -111 C 315 -135 303 -154 281 -167 C 258 -180 232 -187 202 -187 Z" unicode="ş" />
<glyph horiz-adv-x="509" d="M 26 0 L 26 0 Z M 260 -10 C 209 -10 164 -2 125 12 C 85 27 52 50 26 80 L 93 159 C 110 136 134 117 164 103 C 194 89 225 82 257 82 C 288 82 315 91 337 109 C 359 127 370 152 370 182 C 370 212 360 237 340 258 C 320 278 285 301 235 326 C 174 354 128 384 96 417 C 64 450 49 497 49 557 C 49 611 68 655 107 689 C 145 723 195 740 256 740 C 300 740 338 733 370 719 C 402 705 430 689 452 669 L 394 586 C 375 602 354 616 330 626 C 306 636 282 642 257 642 C 226 642 201 634 182 618 C 162 602 153 580 153 554 C 153 525 164 501 184 483 C 204 465 242 442 298 416 C 362 386 407 353 434 319 C 461 285 475 241 475 187 C 475 155 469 127 457 103 C 445 78 429 57 409 41 C 389 24 367 11 341 3 C 315 -5 288 -10 260 -10 Z M 253 788 L 253 788 Z M 90 960 L 181 960 L 254 856 L 328 960 L 417 960 L 302 788 L 205 788 L 90 960 Z" unicode="Š" />
<glyph horiz-adv-x="405" d="M 26 0 L 26 0 Z M 216 -9 C 174 -9 137 -3 105 8 C 73 20 46 36 26 56 L 75 125 C 91 110 112 98 136 89 C 160 79 185 75 210 75 C 230 75 248 80 262 91 C 276 101 283 116 283 134 C 283 150 274 165 258 177 C 242 189 215 201 177 214 C 132 229 98 249 76 273 C 53 297 42 328 42 366 C 42 404 57 436 89 462 C 120 487 159 500 205 500 C 243 500 275 494 303 484 C 330 473 351 461 366 449 L 322 376 C 308 386 291 395 272 403 C 252 411 232 416 210 416 C 190 416 173 411 159 403 C 144 395 137 383 137 369 C 137 354 143 342 155 332 C 167 322 194 309 234 295 C 282 277 318 256 342 233 C 366 209 378 177 378 137 C 378 113 373 93 365 75 C 356 57 344 41 330 29 C 315 17 298 7 278 1 C 258 -5 237 -9 216 -9 Z M 208 548 L 208 548 Z M 45 720 L 136 720 L 209 616 L 283 720 L 372 720 L 257 548 L 160 548 L 45 720 Z" unicode="š" />
<glyph horiz-adv-x="493" d="M 9 0 L 9 0 Z M 484 632 L 300 632 L 300 0 L 190 0 L 190 632 L 9 632 L 9 730 L 484 730 L 484 632 Z M 246 788 L 246 788 Z M 83 960 L 174 960 L 247 856 L 321 960 L 410 960 L 295 788 L 198 788 L 83 960 Z" unicode="Ť" />
<glyph horiz-adv-x="295" d="M 10 0 L 10 0 Z M 274 96 L 287 13 C 280 8 269 4 255 0 C 241 -3 224 -5 206 -5 C 189 -5 173 -2 157 2 C 141 6 126 14 114 25 C 101 36 91 50 83 68 C 75 85 71 106 71 132 L 71 402 L 10 402 L 10 490 L 72 490 L 72 615 L 171 627 L 171 490 L 271 490 L 271 402 L 172 402 L 172 142 C 172 122 176 107 186 98 C 196 88 209 84 227 84 C 235 84 244 85 254 88 C 263 90 270 93 274 96 Z M 382 614 L 377 469 L 291 469 L 286 614 L 286 730 L 382 730 L 382 614 Z" unicode="ť" />
<glyph horiz-adv-x="493" d="M 425 434 L 300 434 L 300 0 L 190 0 L 190 434 L 64 434 L 64 521 L 190 521 L 190 632 L 9 632 L 9 730 L 484 730 L 484 632 L 300 632 L 300 521 L 425 521 L 425 434 Z" unicode="Ŧ" />
<glyph horiz-adv-x="295" d="M 287 13 C 280 8 269 4 255 0 C 241 -3 224 -5 206 -5 C 189 -5 173 -2 157 2 C 141 6 126 14 114 25 C 101 36 91 50 83 68 C 75 85 71 106 71 132 L 71 250 L 18 250 L 18 338 L 71 338 L 71 402 L 10 402 L 10 490 L 72 490 L 72 615 L 171 627 L 171 490 L 271 490 L 271 402 L 172 402 L 172 338 L 254 338 L 254 250 L 172 250 L 172 142 C 172 122 176 107 186 98 C 196 88 209 84 227 84 C 235 84 244 85 254 88 C 263 90 270 93 274 96 L 287 13 Z" unicode="ŧ" />
<glyph horiz-adv-x="681" d="M 76 0 L 76 0 Z M 605 730 L 605 251 C 605 208 597 170 583 138 C 569 105 550 78 526 56 C 502 34 473 18 441 7 C 408 -4 374 -10 338 -10 C 302 -10 269 -4 237 6 C 205 16 177 32 153 54 C 129 76 111 103 97 136 C 83 168 76 207 76 251 L 76 730 L 183 730 L 183 248 C 183 197 198 158 228 130 C 258 102 295 88 338 88 C 381 88 418 101 449 128 C 480 155 496 195 496 248 L 496 730 L 605 730 Z M 339 793 L 339 793 Z M 428 934 L 505 934 C 505 886 498 850 484 827 C 470 804 451 793 428 793 C 409 793 393 796 379 804 C 365 811 354 818 344 825 C 334 831 324 837 315 844 C 305 850 296 854 287 854 C 278 854 270 848 264 838 C 258 828 254 814 254 797 L 177 797 C 177 844 186 879 205 903 C 224 926 244 938 265 938 C 281 938 296 934 308 927 C 320 920 332 912 344 904 C 352 897 361 891 369 885 C 377 879 386 877 395 877 C 403 877 411 881 418 891 C 424 901 428 915 428 934 Z" unicode="Ũ" />
<glyph horiz-adv-x="527" d="M 57 0 L 57 0 Z M 57 490 L 159 490 L 159 171 C 159 137 168 113 186 97 C 204 81 227 74 257 74 C 286 74 311 83 332 102 C 353 120 364 148 364 186 L 364 490 L 465 490 L 465 0 L 370 0 L 370 82 C 360 57 341 36 314 18 C 286 0 254 -9 216 -9 C 172 -9 134 3 103 29 C 72 55 57 93 57 144 L 57 490 Z M 261 553 L 261 553 Z M 350 694 L 427 694 C 427 646 420 610 406 587 C 392 564 373 553 350 553 C 331 553 315 556 301 564 C 287 571 276 578 266 585 C 256 591 246 597 237 604 C 227 610 218 614 209 614 C 200 614 192 608 186 598 C 180 588 176 574 176 557 L 99 557 C 99 604 108 639 127 663 C 146 686 166 698 187 698 C 203 698 218 694 230 687 C 242 680 254 672 266 664 C 274 657 283 651 291 645 C 299 639 308 637 317 637 C 325 637 333 641 340 651 C 346 661 350 675 350 694 Z" unicode="ũ" />
<glyph horiz-adv-x="681" d="M 76 0 L 76 0 Z M 605 730 L 605 251 C 605 208 597 170 583 138 C 569 105 550 78 526 56 C 502 34 473 18 441 7 C 408 -4 374 -10 338 -10 C 302 -10 269 -4 237 6 C 205 16 177 32 153 54 C 129 76 111 103 97 136 C 83 168 76 207 76 251 L 76 730 L 183 730 L 183 248 C 183 197 198 158 228 130 C 258 102 295 88 338 88 C 381 88 418 101 449 128 C 480 155 496 195 496 248 L 496 730 L 605 730 Z M 339 804 L 339 804 Z M 469 804 L 209 804 L 209 885 L 469 885 L 469 804 Z" unicode="Ū" />
<glyph horiz-adv-x="527" d="M 57 0 L 57 0 Z M 57 490 L 159 490 L 159 171 C 159 137 168 113 186 97 C 204 81 227 74 257 74 C 286 74 311 83 332 102 C 353 120 364 148 364 186 L 364 490 L 465 490 L 465 0 L 370 0 L 370 82 C 360 57 341 36 314 18 C 286 0 254 -9 216 -9 C 172 -9 134 3 103 29 C 72 55 57 93 57 144 L 57 490 Z M 261 564 L 261 564 Z M 391 564 L 131 564 L 131 645 L 391 645 L 391 564 Z" unicode="ū" />
<glyph horiz-adv-x="681" d="M 76 0 L 76 0 Z M 605 730 L 605 251 C 605 208 597 170 583 138 C 569 105 550 78 526 56 C 502 34 473 18 441 7 C 408 -4 374 -10 338 -10 C 302 -10 269 -4 237 6 C 205 16 177 32 153 54 C 129 76 111 103 97 136 C 83 168 76 207 76 251 L 76 730 L 183 730 L 183 248 C 183 197 198 158 228 130 C 258 102 295 88 338 88 C 381 88 418 101 449 128 C 480 155 496 195 496 248 L 496 730 L 605 730 Z M 339 791 L 339 791 Z M 408 950 L 492 950 C 488 894 472 854 444 829 C 416 803 381 791 339 791 C 297 791 262 803 234 829 C 206 854 190 894 186 950 L 271 950 C 273 922 279 899 289 883 C 299 867 316 859 339 859 C 361 859 378 867 389 883 C 399 899 406 921 408 950 Z" unicode="Ŭ" />
<glyph horiz-adv-x="527" d="M 57 0 L 57 0 Z M 57 490 L 159 490 L 159 171 C 159 137 168 113 186 97 C 204 81 227 74 257 74 C 286 74 311 83 332 102 C 353 120 364 148 364 186 L 364 490 L 465 490 L 465 0 L 370 0 L 370 82 C 360 57 341 36 314 18 C 286 0 254 -9 216 -9 C 172 -9 134 3 103 29 C 72 55 57 93 57 144 L 57 490 Z M 261 551 L 261 551 Z M 330 710 L 414 710 C 410 654 394 614 366 589 C 338 563 303 551 261 551 C 219 551 184 563 156 589 C 128 614 112 654 108 710 L 193 710 C 195 682 201 659 211 643 C 221 627 238 619 261 619 C 283 619 300 627 311 643 C 321 659 328 681 330 710 Z" unicode="ŭ" />
<glyph horiz-adv-x="681" d="M 76 0 L 76 0 Z M 605 730 L 605 251 C 605 208 597 170 583 138 C 569 105 550 78 526 56 C 502 34 473 18 441 7 C 408 -4 374 -10 338 -10 C 302 -10 269 -4 237 6 C 205 16 177 32 153 54 C 129 76 111 103 97 136 C 83 168 76 207 76 251 L 76 730 L 183 730 L 183 248 C 183 197 198 158 228 130 C 258 102 295 88 338 88 C 381 88 418 101 449 128 C 480 155 496 195 496 248 L 496 730 L 605 730 Z M 339 782 L 339 782 Z M 339 782 C 306 782 278 793 255 817 C 231 840 220 868 220 902 C 220 934 231 962 255 986 C 278 1009 306 1021 339 1021 C 373 1021 401 1009 425 986 C 448 962 460 934 460 902 C 460 868 448 840 425 817 C 401 793 373 782 339 782 Z M 340 843 C 356 843 369 848 380 860 C 390 871 396 885 396 902 C 396 918 390 931 380 943 C 369 954 356 960 340 960 C 324 960 310 954 299 943 C 287 931 282 918 282 902 C 282 885 287 871 299 860 C 310 848 324 843 340 843 Z" unicode="Ů" />
<glyph horiz-adv-x="527" d="M 57 0 L 57 0 Z M 57 490 L 159 490 L 159 171 C 159 137 168 113 186 97 C 204 81 227 74 257 74 C 286 74 311 83 332 102 C 353 120 364 148 364 186 L 364 490 L 465 490 L 465 0 L 370 0 L 370 82 C 360 57 341 36 314 18 C 286 0 254 -9 216 -9 C 172 -9 134 3 103 29 C 72 55 57 93 57 144 L 57 490 Z M 261 542 L 261 542 Z M 261 542 C 228 542 200 553 177 577 C 153 600 142 628 142 662 C 142 694 153 722 177 746 C 200 769 228 781 261 781 C 295 781 323 769 347 746 C 370 722 382 694 382 662 C 382 628 370 600 347 577 C 323 553 295 542 261 542 Z M 262 603 C 278 603 291 608 302 620 C 312 631 318 645 318 662 C 318 678 312 691 302 703 C 291 714 278 720 262 720 C 246 720 232 714 221 703 C 209 691 204 678 204 662 C 204 645 209 631 221 620 C 232 608 246 603 262 603 Z" unicode="ů" />
<glyph horiz-adv-x="681" d="M 76 0 L 76 0 Z M 605 730 L 605 251 C 605 208 597 170 583 138 C 569 105 550 78 526 56 C 502 34 473 18 441 7 C 408 -4 374 -10 338 -10 C 302 -10 269 -4 237 6 C 205 16 177 32 153 54 C 129 76 111 103 97 136 C 83 168 76 207 76 251 L 76 730 L 183 730 L 183 248 C 183 197 198 158 228 130 C 258 102 295 88 338 88 C 381 88 418 101 449 128 C 480 155 496 195 496 248 L 496 730 L 605 730 Z M 339 787 L 339 787 Z M 149 787 L 234 941 L 342 941 L 239 787 L 149 787 Z M 335 787 L 421 941 L 529 941 L 425 787 L 335 787 Z" unicode="Ű" />
<glyph horiz-adv-x="527" d="M 57 0 L 57 0 Z M 57 490 L 159 490 L 159 171 C 159 137 168 113 186 97 C 204 81 227 74 257 74 C 286 74 311 83 332 102 C 353 120 364 148 364 186 L 364 490 L 465 490 L 465 0 L 370 0 L 370 82 C 360 57 341 36 314 18 C 286 0 254 -9 216 -9 C 172 -9 134 3 103 29 C 72 55 57 93 57 144 L 57 490 Z M 261 547 L 261 547 Z M 71 547 L 156 701 L 264 701 L 161 547 L 71 547 Z M 257 547 L 343 701 L 451 701 L 347 547 L 257 547 Z" unicode="ű" />
<glyph horiz-adv-x="681" d="M 76 0 L 76 0 Z M 605 730 L 605 251 C 605 208 597 170 583 138 C 569 105 550 78 526 56 C 502 34 473 18 441 7 C 408 -4 374 -10 338 -10 C 302 -10 269 -4 237 6 C 205 16 177 32 153 54 C 129 76 111 103 97 136 C 83 168 76 207 76 251 L 76 730 L 183 730 L 183 248 C 183 197 198 158 228 130 C 258 102 295 88 338 88 C 381 88 418 101 449 128 C 480 155 496 195 496 248 L 496 730 L 605 730 Z M 383 -8 L 383 -8 Z M 485 -91 L 513 -134 C 493 -155 470 -171 446 -182 C 421 -193 393 -199 363 -199 C 329 -199 302 -191 283 -177 C 263 -162 254 -143 254 -121 C 254 -96 264 -73 284 -52 C 304 -30 333 -12 371 3 L 428 3 C 402 -9 381 -23 365 -37 C 349 -51 341 -66 341 -80 C 341 -93 346 -103 356 -111 C 366 -119 379 -123 396 -123 C 414 -123 431 -120 446 -114 C 461 -108 474 -100 485 -91 Z" unicode="Ų" />
<glyph horiz-adv-x="527" d="M 57 0 L 57 0 Z M 57 490 L 159 490 L 159 171 C 159 137 168 113 186 97 C 204 81 227 74 257 74 C 286 74 311 83 332 102 C 353 120 364 148 364 186 L 364 490 L 465 490 L 465 0 L 370 0 L 370 82 C 360 57 341 36 314 18 C 286 0 254 -9 216 -9 C 172 -9 134 3 103 29 C 72 55 57 93 57 144 L 57 490 Z M 386 -8 L 386 -8 Z M 488 -91 L 516 -134 C 496 -155 473 -171 449 -182 C 424 -193 396 -199 366 -199 C 332 -199 305 -191 286 -177 C 266 -162 257 -143 257 -121 C 257 -96 267 -73 287 -52 C 307 -30 336 -12 374 3 L 431 3 C 405 -9 384 -23 368 -37 C 352 -51 344 -66 344 -80 C 344 -93 349 -103 359 -111 C 369 -119 382 -123 399 -123 C 417 -123 434 -120 449 -114 C 464 -108 477 -100 488 -91 Z" unicode="ų" />
<glyph horiz-adv-x="853" d="M 6 0 L 6 0 Z M 841 730 L 640 -5 L 575 -5 L 425 523 L 269 -5 L 203 -5 L 6 730 L 115 730 L 246 215 L 395 730 L 463 730 L 609 214 L 742 730 L 841 730 Z M 427 788 L 427 788 Z M 591 788 L 500 788 L 427 892 L 353 788 L 264 788 L 379 960 L 476 960 L 591 788 Z" unicode="Ŵ" />
<glyph horiz-adv-x="667" d="M 3 0 L 3 0 Z M 441 -3 L 337 290 L 226 -3 L 160 -3 L 3 490 L 105 490 L 206 154 L 308 438 L 373 438 L 470 156 L 570 490 L 664 490 L 506 -3 L 441 -3 Z M 337 548 L 337 548 Z M 501 548 L 410 548 L 337 652 L 263 548 L 174 548 L 289 720 L 386 720 L 501 548 Z" unicode="ŵ" />
<glyph horiz-adv-x="580" d="M 0 0 L 0 0 Z M 598 730 L 351 314 L 351 0 L 241 0 L 241 318 L -1 730 L 121 730 L 301 420 L 484 730 L 598 730 Z M 300 788 L 300 788 Z M 464 788 L 373 788 L 300 892 L 226 788 L 137 788 L 252 960 L 349 960 L 464 788 Z" unicode="Ŷ" />
<glyph horiz-adv-x="462" d="M 0 0 L 0 0 Z M 465 490 L 227 -88 C 208 -130 184 -159 156 -175 C 128 -191 100 -200 72 -200 C 54 -200 38 -198 26 -194 C 14 -190 5 -186 -1 -184 L 32 -97 C 34 -99 40 -101 48 -104 C 56 -106 65 -108 74 -108 C 88 -108 101 -103 113 -93 C 125 -83 136 -66 147 -43 L 181 40 L -4 490 L 104 490 L 233 158 L 363 490 L 465 490 Z M 232 548 L 232 548 Z M 396 548 L 305 548 L 232 652 L 158 548 L 69 548 L 184 720 L 281 720 L 396 548 Z" unicode="ŷ" />
<glyph horiz-adv-x="596" d="M 0 0 L 0 0 Z M 598 730 L 351 314 L 351 0 L 241 0 L 241 318 L -1 730 L 121 730 L 301 420 L 484 730 L 598 730 Z M 300 788 L 300 788 Z M 431 788 L 346 788 L 346 947 L 431 947 L 431 788 Z M 254 788 L 169 788 L 169 947 L 254 947 L 254 788 Z" unicode="Ÿ" />
<glyph horiz-adv-x="525" d="M 17 0 L 17 0 Z M 504 730 L 504 681 L 162 97 L 516 97 L 516 0 L 17 0 L 17 48 L 357 632 L 45 632 L 45 730 L 504 730 Z M 270 790 L 270 790 Z M 162 790 L 260 956 L 380 956 L 262 790 L 162 790 Z" unicode="Ź" />
<glyph horiz-adv-x="403" d="M 13 0 L 13 0 Z M 381 490 L 381 444 L 157 89 L 392 89 L 392 0 L 13 0 L 13 37 L 243 401 L 25 401 L 25 490 L 381 490 Z M 207 550 L 207 550 Z M 99 550 L 197 716 L 317 716 L 199 550 L 99 550 Z" unicode="ź" />
<glyph horiz-adv-x="525" d="M 17 0 L 17 0 Z M 504 730 L 504 681 L 162 97 L 516 97 L 516 0 L 17 0 L 17 48 L 357 632 L 45 632 L 45 730 L 504 730 Z M 270 792 L 270 792 Z M 317 792 L 224 792 L 224 942 L 317 942 L 317 792 Z" unicode="Ż" />
<glyph horiz-adv-x="403" d="M 13 0 L 13 0 Z M 381 490 L 381 444 L 157 89 L 392 89 L 392 0 L 13 0 L 13 37 L 243 401 L 25 401 L 25 490 L 381 490 Z M 207 552 L 207 552 Z M 254 552 L 161 552 L 161 702 L 254 702 L 254 552 Z" unicode="ż" />
<glyph horiz-adv-x="537" d="M 17 0 L 17 0 Z M 504 730 L 504 681 L 162 97 L 516 97 L 516 0 L 17 0 L 17 48 L 357 632 L 45 632 L 45 730 L 504 730 Z M 270 788 L 270 788 Z M 107 960 L 198 960 L 271 856 L 345 960 L 434 960 L 319 788 L 222 788 L 107 960 Z" unicode="Ž" />
<glyph horiz-adv-x="403" d="M 13 0 L 13 0 Z M 381 490 L 381 444 L 157 89 L 392 89 L 392 0 L 13 0 L 13 37 L 243 401 L 25 401 L 25 490 L 381 490 Z M 207 548 L 207 548 Z M 44 720 L 135 720 L 208 616 L 282 720 L 371 720 L 256 548 L 159 548 L 44 720 Z" unicode="ž" />
<glyph horiz-adv-x="369" d="M 190 -57 C 187 -89 174 -117 151 -142 C 127 -166 98 -179 62 -179 C 43 -179 25 -177 8 -174 C -9 -171 -22 -168 -31 -164 L -21 -90 C -16 -90 -9 -92 0 -94 C 10 -96 19 -97 28 -97 C 47 -97 63 -90 77 -77 C 91 -63 99 -44 102 -20 L 133 327 L 40 327 L 40 411 L 141 411 L 160 625 C 162 644 167 661 175 676 C 183 690 192 702 204 712 C 216 722 229 729 243 734 C 257 739 270 742 284 742 C 298 742 311 741 325 740 C 339 739 347 738 350 738 L 342 649 C 340 649 336 650 330 651 C 324 651 318 652 312 652 C 293 652 278 645 266 633 C 254 620 247 600 245 574 L 231 411 L 334 411 L 334 327 L 223 327 L 190 -57 Z" unicode="ƒ" />
<glyph horiz-adv-x="509" d="M 26 0 L 26 0 Z M 260 -10 C 209 -10 164 -2 125 12 C 85 27 52 50 26 80 L 93 159 C 110 136 134 117 164 103 C 194 89 225 82 257 82 C 288 82 315 91 337 109 C 359 127 370 152 370 182 C 370 212 360 237 340 258 C 320 278 285 301 235 326 C 174 354 128 384 96 417 C 64 450 49 497 49 557 C 49 611 68 655 107 689 C 145 723 195 740 256 740 C 300 740 338 733 370 719 C 402 705 430 689 452 669 L 394 586 C 375 602 354 616 330 626 C 306 636 282 642 257 642 C 226 642 201 634 182 618 C 162 602 153 580 153 554 C 153 525 164 501 184 483 C 204 465 242 442 298 416 C 362 386 407 353 434 319 C 461 285 475 241 475 187 C 475 155 469 127 457 103 C 445 78 429 57 409 41 C 389 24 367 11 341 3 C 315 -5 288 -10 260 -10 Z M 241 -75 L 241 -75 Z M 336 -75 C 334 -100 329 -126 322 -152 C 314 -178 305 -203 295 -227 C 285 -250 273 -271 261 -290 C 248 -309 235 -324 223 -336 L 146 -302 C 153 -293 161 -280 170 -264 C 179 -248 187 -229 195 -209 C 203 -189 210 -167 216 -144 C 222 -120 227 -97 230 -75 L 336 -75 Z" unicode="Ș" />
<glyph horiz-adv-x="405" d="M 26 0 L 26 0 Z M 216 -9 C 174 -9 137 -3 105 8 C 73 20 46 36 26 56 L 75 125 C 91 110 112 98 136 89 C 160 79 185 75 210 75 C 230 75 248 80 262 91 C 276 101 283 116 283 134 C 283 150 274 165 258 177 C 242 189 215 201 177 214 C 132 229 98 249 76 273 C 53 297 42 328 42 366 C 42 404 57 436 89 462 C 120 487 159 500 205 500 C 243 500 275 494 303 484 C 330 473 351 461 366 449 L 322 376 C 308 386 291 395 272 403 C 252 411 232 416 210 416 C 190 416 173 411 159 403 C 144 395 137 383 137 369 C 137 354 143 342 155 332 C 167 322 194 309 234 295 C 282 277 318 256 342 233 C 366 209 378 177 378 137 C 378 113 373 93 365 75 C 356 57 344 41 330 29 C 315 17 298 7 278 1 C 258 -5 237 -9 216 -9 Z M 195 -72 L 195 -72 Z M 290 -72 C 288 -97 283 -123 276 -149 C 268 -175 259 -200 249 -224 C 239 -247 227 -268 215 -287 C 202 -306 189 -321 177 -333 L 100 -299 C 107 -290 115 -277 124 -261 C 133 -245 141 -226 149 -206 C 157 -186 164 -164 170 -141 C 176 -117 181 -94 184 -72 L 290 -72 Z" unicode="ș" />
<glyph horiz-adv-x="493" d="M 9 0 L 9 0 Z M 484 632 L 300 632 L 300 0 L 190 0 L 190 632 L 9 632 L 9 730 L 484 730 L 484 632 Z M 218 -72 L 218 -72 Z M 313 -72 C 311 -97 306 -123 299 -149 C 291 -175 282 -200 272 -224 C 262 -247 250 -268 238 -287 C 225 -306 212 -321 200 -333 L 123 -299 C 130 -290 138 -277 147 -261 C 156 -245 164 -226 172 -206 C 180 -186 187 -164 193 -141 C 199 -117 204 -94 207 -72 L 313 -72 Z" unicode="Ț" />
<glyph horiz-adv-x="295" d="M 10 0 L 10 0 Z M 274 96 L 287 13 C 280 8 269 4 255 0 C 241 -3 224 -5 206 -5 C 189 -5 173 -2 157 2 C 141 6 126 14 114 25 C 101 36 91 50 83 68 C 75 85 71 106 71 132 L 71 402 L 10 402 L 10 490 L 72 490 L 72 615 L 171 627 L 171 490 L 271 490 L 271 402 L 172 402 L 172 142 C 172 122 176 107 186 98 C 196 88 209 84 227 84 C 235 84 244 85 254 88 C 263 90 270 93 274 96 Z M 142 -72 L 142 -72 Z M 237 -72 C 235 -97 230 -123 223 -149 C 215 -175 206 -200 196 -224 C 186 -247 174 -268 162 -287 C 149 -306 136 -321 124 -333 L 47 -299 C 54 -290 62 -277 71 -261 C 80 -245 88 -226 96 -206 C 104 -186 111 -164 117 -141 C 123 -117 128 -94 131 -72 L 237 -72 Z" unicode="ț" />
<glyph horiz-adv-x="245" d="M 185 490 L 185 -48 C 185 -92 172 -127 146 -155 C 120 -183 88 -196 48 -196 C 31 -196 13 -194 -4 -190 C -22 -186 -36 -182 -46 -176 L -26 -97 C -19 -99 -11 -102 -1 -104 C 8 -106 18 -108 30 -108 C 44 -108 57 -101 68 -88 C 78 -75 84 -58 84 -36 L 84 490 L 185 490 Z" unicode="ȷ" />
<glyph horiz-adv-x="500" d="M 414 548 L 323 548 L 250 652 L 176 548 L 87 548 L 202 720 L 299 720 L 414 548 Z" unicode="ˆ" />
<glyph horiz-adv-x="500" d="M 87 720 L 178 720 L 251 616 L 325 720 L 414 720 L 299 548 L 202 548 L 87 720 Z" unicode="ˇ" />
<glyph horiz-adv-x="500" d="M 319 710 L 403 710 C 399 654 383 614 355 589 C 327 563 292 551 250 551 C 208 551 173 563 145 589 C 117 614 101 654 97 710 L 182 710 C 184 682 190 659 200 643 C 210 627 227 619 250 619 C 272 619 289 627 300 643 C 310 659 317 681 319 710 Z" unicode="˘" />
<glyph horiz-adv-x="500" d="M 297 552 L 204 552 L 204 702 L 297 702 L 297 552 Z" unicode="˙" />
<glyph horiz-adv-x="507" d="M 253 542 C 220 542 192 553 169 577 C 145 600 134 628 134 662 C 134 694 145 722 169 746 C 192 769 220 781 253 781 C 287 781 315 769 339 746 C 362 722 374 694 374 662 C 374 628 362 600 339 577 C 315 553 287 542 253 542 Z M 254 603 C 270 603 283 608 294 620 C 304 631 310 645 310 662 C 310 678 304 691 294 703 C 283 714 270 720 254 720 C 238 720 224 714 213 703 C 201 691 196 678 196 662 C 196 645 201 631 213 620 C 224 608 238 603 254 603 Z" unicode="˚" />
<glyph horiz-adv-x="500" d="M 359 -83 L 387 -126 C 367 -147 344 -163 320 -174 C 295 -185 267 -191 237 -191 C 203 -191 176 -183 157 -169 C 137 -154 128 -135 128 -113 C 128 -88 138 -65 158 -44 C 178 -22 207 -4 245 11 L 302 11 C 276 -1 255 -15 239 -29 C 223 -43 215 -58 215 -72 C 215 -85 220 -95 230 -103 C 240 -111 253 -115 270 -115 C 288 -115 305 -112 320 -106 C 335 -100 348 -92 359 -83 Z" unicode="˛" />
<glyph horiz-adv-x="500" d="M 341 694 L 418 694 C 418 646 411 610 397 587 C 383 564 364 553 341 553 C 322 553 306 556 292 564 C 278 571 267 578 257 585 C 247 591 237 597 228 604 C 218 610 209 614 200 614 C 191 614 183 608 177 598 C 171 588 167 574 167 557 L 90 557 C 90 604 99 639 118 663 C 137 686 157 698 178 698 C 194 698 209 694 221 687 C 233 680 245 672 257 664 C 265 657 274 651 282 645 C 290 639 299 637 308 637 C 316 637 324 641 331 651 C 337 661 341 675 341 694 Z" unicode="˜" />
<glyph horiz-adv-x="500" d="M 76 547 L 161 701 L 269 701 L 166 547 L 76 547 Z M 262 547 L 348 701 L 456 701 L 352 547 L 262 547 Z" unicode="˝" />
<glyph horiz-adv-x="0" d="M 0 547 L 0 547 Z M 109 547 L 8 547 L -109 713 L 10 713 L 109 547 Z" unicode="̀" />
<glyph horiz-adv-x="0" d="M 0 550 L 0 550 Z M -108 550 L -10 716 L 110 716 L -8 550 L -108 550 Z" unicode="́" />
<glyph horiz-adv-x="0" d="M 0 548 L 0 548 Z M 164 548 L 73 548 L 0 652 L -74 548 L -163 548 L -48 720 L 49 720 L 164 548 Z" unicode="̂" />
<glyph horiz-adv-x="0" d="M 0 553 L 0 553 Z M 89 694 L 166 694 C 166 646 159 610 145 587 C 131 564 112 553 89 553 C 70 553 54 556 40 564 C 26 571 15 578 5 585 C -5 591 -14 597 -24 604 C -33 610 -42 614 -52 614 C -60 614 -68 608 -74 598 C -80 588 -84 574 -85 557 L -162 557 C -162 604 -152 639 -133 663 C -114 686 -94 698 -74 698 C -57 698 -42 694 -30 687 C -18 680 -6 672 5 664 C 13 657 22 651 30 645 C 38 639 47 637 56 637 C 64 637 72 641 79 651 C 85 661 89 675 89 694 Z" unicode="̃" />
<glyph horiz-adv-x="0" d="M 0 564 L 0 564 Z M 130 564 L -130 564 L -130 645 L 130 645 L 130 564 Z" unicode="̄" />
<glyph horiz-adv-x="0" d="M 0 551 L 0 551 Z M 69 710 L 153 710 C 149 654 133 614 105 589 C 77 563 42 551 0 551 C -42 551 -77 563 -105 589 C -133 614 -149 654 -153 710 L -68 710 C -66 682 -59 659 -49 643 C -39 627 -22 619 0 619 C 22 619 39 627 50 643 C 60 659 67 681 69 710 Z" unicode="̆" />
<glyph horiz-adv-x="0" d="M 0 552 L 0 552 Z M 47 552 L -46 552 L -46 702 L 47 702 L 47 552 Z" unicode="̇" />
<glyph horiz-adv-x="0" d="M 0 548 L 0 548 Z M 131 548 L 46 548 L 46 707 L 131 707 L 131 548 Z M -46 548 L -131 548 L -131 707 L -46 707 L -46 548 Z" unicode="̈" />
<glyph horiz-adv-x="0" d="M 0 542 L 0 542 Z M 0 542 C -32 542 -60 553 -84 577 C -107 600 -119 628 -119 662 C -119 694 -107 722 -84 746 C -60 769 -32 781 0 781 C 34 781 62 769 86 746 C 109 722 121 694 121 662 C 121 628 109 600 86 577 C 62 553 34 542 0 542 Z M 1 603 C 17 603 30 608 41 620 C 51 631 57 645 57 662 C 57 678 51 691 41 703 C 30 714 17 720 1 720 C -15 720 -28 714 -40 703 C -51 691 -57 678 -57 662 C -57 645 -51 631 -40 620 C -28 608 -15 603 1 603 Z" unicode="̊" />
<glyph horiz-adv-x="0" d="M 0 547 L 0 547 Z M -190 547 L -105 701 L 3 701 L -100 547 L -190 547 Z M -4 547 L 82 701 L 190 701 L 86 547 L -4 547 Z" unicode="̋" />
<glyph horiz-adv-x="0" d="M 0 548 L 0 548 Z M -163 720 L -72 720 L 1 616 L 75 720 L 164 720 L 49 548 L -48 548 L -163 720 Z" unicode="̌" />
<glyph horiz-adv-x="0" d="M 0 -72 L 0 -72 Z M 95 -72 C 93 -97 88 -123 81 -149 C 73 -175 64 -200 54 -224 C 44 -247 32 -268 20 -287 C 7 -306 -5 -321 -18 -333 L -95 -299 C -87 -290 -79 -277 -70 -261 C -61 -245 -53 -226 -45 -206 C -37 -186 -30 -164 -24 -141 C -18 -117 -13 -94 -11 -72 L 95 -72 Z" unicode="̦" />
<glyph horiz-adv-x="0" d="M 0 0 L 0 0 Z M 7 -187 C -16 -187 -40 -184 -64 -178 C -88 -172 -106 -164 -120 -155 L -105 -111 C -96 -116 -84 -121 -69 -127 C -54 -132 -38 -135 -21 -135 C -7 -135 4 -132 14 -126 C 24 -120 29 -111 29 -101 C 29 -89 24 -81 15 -76 C 6 -71 -3 -69 -14 -69 C -20 -69 -26 -69 -32 -70 C -38 -71 -44 -73 -50 -76 L -64 -60 L -5 14 L 54 14 L 6 -47 C 38 -41 65 -45 87 -57 C 109 -69 120 -87 120 -111 C 120 -135 108 -154 86 -167 C 63 -180 37 -187 7 -187 Z" unicode="̧" />
<glyph horiz-adv-x="0" d="M 0 0 L 0 0 Z M 102 -83 L 130 -126 C 110 -147 87 -163 63 -174 C 38 -185 10 -191 -20 -191 C -54 -191 -80 -183 -100 -169 C -119 -154 -129 -135 -129 -113 C -129 -88 -118 -65 -98 -44 C -78 -22 -49 -4 -12 11 L 45 11 C 19 -1 -2 -15 -18 -29 C -34 -43 -42 -58 -42 -72 C -42 -85 -37 -95 -27 -103 C -17 -111 -3 -115 13 -115 C 31 -115 48 -112 63 -106 C 78 -100 91 -92 102 -83 Z" unicode="̨" />
<glyph horiz-adv-x="564" d="M 0 0 L 0 0 Z M 620 0 L 0 0 L 289 731 L 334 731 L 620 0 Z M 479 83 L 307 547 L 136 83 L 479 83 Z" unicode="Δ" />
<glyph horiz-adv-x="724" d="M 35 0 L 35 0 Z M 44 0 L 44 94 L 250 94 L 250 159 C 186 181 134 218 94 270 C 54 322 35 381 35 446 C 35 488 42 527 58 564 C 74 600 96 632 125 659 C 154 686 190 707 232 723 C 274 739 322 747 374 747 C 428 747 477 739 521 723 C 564 707 600 685 630 658 C 660 631 682 599 698 563 C 714 526 722 487 722 446 C 722 380 703 321 667 270 C 630 218 576 181 505 159 L 505 94 L 712 94 L 712 0 L 425 0 L 425 212 C 483 230 529 261 561 303 C 593 345 610 391 610 441 C 610 473 604 502 592 529 C 580 556 563 579 543 599 C 522 618 497 633 468 644 C 439 655 408 661 375 661 C 342 661 312 655 284 644 C 256 633 231 618 211 598 C 191 578 175 555 164 528 C 152 501 147 471 147 439 C 147 391 162 346 194 305 C 225 263 271 232 331 212 L 331 0 L 44 0 Z" unicode="Ω" />
<glyph horiz-adv-x="588" d="M 71 0 L 71 0 Z M 71 -135 L 71 496 L 171 496 L 171 167 C 171 139 182 116 204 99 C 226 81 252 73 284 73 C 300 73 315 75 331 81 C 346 86 360 94 372 104 C 384 114 394 127 402 142 C 409 157 413 174 413 194 L 413 496 L 513 496 L 513 0 L 421 0 L 421 93 C 410 66 390 43 360 24 C 330 4 298 -5 264 -6 C 242 -6 221 -2 203 6 C 184 15 171 28 163 45 L 163 -135 L 71 -135 Z" unicode="μ" />
<glyph horiz-adv-x="602" d="M 188 453 L 188 0 L 88 0 L 88 453 L 15 453 L 15 531 L 587 531 L 587 453 L 511 453 L 511 0 L 410 0 L 410 453 L 188 453 Z" unicode="π" />
<glyph horiz-adv-x="853" d="M 6 0 L 6 0 Z M 841 730 L 640 -5 L 575 -5 L 425 523 L 269 -5 L 203 -5 L 6 730 L 115 730 L 246 215 L 395 730 L 463 730 L 609 214 L 742 730 L 841 730 Z M 427 787 L 427 787 Z M 536 787 L 435 787 L 318 953 L 437 953 L 536 787 Z" unicode="Ẁ" />
<glyph horiz-adv-x="667" d="M 3 0 L 3 0 Z M 441 -3 L 337 290 L 226 -3 L 160 -3 L 3 490 L 105 490 L 206 154 L 308 438 L 373 438 L 470 156 L 570 490 L 664 490 L 506 -3 L 441 -3 Z M 337 547 L 337 547 Z M 446 547 L 345 547 L 228 713 L 347 713 L 446 547 Z" unicode="ẁ" />
<glyph horiz-adv-x="853" d="M 6 0 L 6 0 Z M 841 730 L 640 -5 L 575 -5 L 425 523 L 269 -5 L 203 -5 L 6 730 L 115 730 L 246 215 L 395 730 L 463 730 L 609 214 L 742 730 L 841 730 Z M 427 790 L 427 790 Z M 319 790 L 417 956 L 537 956 L 419 790 L 319 790 Z" unicode="Ẃ" />
<glyph horiz-adv-x="667" d="M 3 0 L 3 0 Z M 441 -3 L 337 290 L 226 -3 L 160 -3 L 3 490 L 105 490 L 206 154 L 308 438 L 373 438 L 470 156 L 570 490 L 664 490 L 506 -3 L 441 -3 Z M 337 550 L 337 550 Z M 229 550 L 327 716 L 447 716 L 329 550 L 229 550 Z" unicode="ẃ" />
<glyph horiz-adv-x="853" d="M 6 0 L 6 0 Z M 841 730 L 640 -5 L 575 -5 L 425 523 L 269 -5 L 203 -5 L 6 730 L 115 730 L 246 215 L 395 730 L 463 730 L 609 214 L 742 730 L 841 730 Z M 427 788 L 427 788 Z M 558 788 L 473 788 L 473 947 L 558 947 L 558 788 Z M 381 788 L 296 788 L 296 947 L 381 947 L 381 788 Z" unicode="Ẅ" />
<glyph horiz-adv-x="667" d="M 3 0 L 3 0 Z M 441 -3 L 337 290 L 226 -3 L 160 -3 L 3 490 L 105 490 L 206 154 L 308 438 L 373 438 L 470 156 L 570 490 L 664 490 L 506 -3 L 441 -3 Z M 337 548 L 337 548 Z M 468 548 L 383 548 L 383 707 L 468 707 L 468 548 Z M 291 548 L 206 548 L 206 707 L 291 707 L 291 548 Z" unicode="ẅ" />
<glyph horiz-adv-x="580" d="M 0 0 L 0 0 Z M 598 730 L 351 314 L 351 0 L 241 0 L 241 318 L -1 730 L 121 730 L 301 420 L 484 730 L 598 730 Z M 300 787 L 300 787 Z M 409 787 L 308 787 L 191 953 L 310 953 L 409 787 Z" unicode="Ỳ" />
<glyph horiz-adv-x="462" d="M 0 0 L 0 0 Z M 465 490 L 227 -88 C 208 -130 184 -159 156 -175 C 128 -191 100 -200 72 -200 C 54 -200 38 -198 26 -194 C 14 -190 5 -186 -1 -184 L 32 -97 C 34 -99 40 -101 48 -104 C 56 -106 65 -108 74 -108 C 88 -108 101 -103 113 -93 C 125 -83 136 -66 147 -43 L 181 40 L -4 490 L 104 490 L 233 158 L 363 490 L 465 490 Z M 232 547 L 232 547 Z M 341 547 L 240 547 L 123 713 L 242 713 L 341 547 Z" unicode="ỳ" />
<glyph horiz-adv-x="460" d="M 421 221 L 40 221 L 40 310 L 421 310 L 421 221 Z" unicode="–" />
<glyph horiz-adv-x="645" d="M 606 221 L 40 221 L 40 310 L 606 310 L 606 221 Z" unicode="—" />
<glyph horiz-adv-x="266" d="M 35 507 L 35 514 C 35 552 45 591 65 630 C 85 668 112 704 148 737 L 248 731 C 238 723 227 711 215 697 C 203 683 191 666 181 648 C 170 629 161 608 153 586 C 145 563 142 539 142 515 L 142 507 L 35 507 Z" unicode="‘" />
<glyph horiz-adv-x="266" d="M 230 737 L 230 730 C 230 691 220 653 200 615 C 180 577 152 541 117 507 L 17 513 C 27 522 38 534 50 549 C 62 563 74 580 85 598 C 95 616 104 637 112 659 C 120 681 124 704 124 729 L 124 737 L 230 737 Z" unicode="’" />
<glyph horiz-adv-x="266" d="M 230 113 L 230 106 C 230 68 220 29 200 -8 C 180 -46 152 -83 117 -117 L 17 -111 C 27 -101 38 -89 50 -75 C 62 -60 73 -43 84 -25 C 95 -7 104 13 112 35 C 119 57 123 80 123 105 L 123 113 L 230 113 Z" unicode="‚" />
<glyph horiz-adv-x="438" d="M 220 507 L 220 514 C 220 552 229 589 249 626 C 268 663 296 700 333 737 L 425 731 C 415 722 404 710 392 696 C 380 681 368 664 357 646 C 346 628 337 607 329 585 C 321 563 318 539 318 515 L 318 507 L 220 507 Z M 36 507 L 36 514 C 36 552 46 589 66 626 C 86 663 113 700 148 737 L 240 731 C 231 722 220 710 208 696 C 196 682 184 665 173 647 C 162 628 153 607 145 585 C 137 563 133 539 133 515 L 133 507 L 36 507 Z" unicode="“" />
<glyph horiz-adv-x="438" d="M 220 737 L 220 730 C 220 691 210 653 192 616 C 174 579 146 543 110 507 L 17 513 C 27 523 39 535 52 550 C 64 564 76 581 86 599 C 96 617 104 637 111 659 C 118 681 122 704 122 729 L 122 737 L 220 737 Z M 402 737 L 402 730 C 402 691 392 653 374 615 C 355 577 328 541 292 507 L 200 513 C 210 523 222 536 234 550 C 246 564 258 581 268 599 C 278 617 287 637 294 659 C 300 681 304 704 304 729 L 304 737 L 402 737 Z" unicode="”" />
<glyph horiz-adv-x="439" d="M 219 117 L 219 110 C 219 71 210 33 192 -3 C 174 -40 146 -77 109 -113 L 17 -107 C 27 -97 39 -84 51 -70 C 63 -55 75 -39 85 -21 C 95 -3 104 17 111 39 C 118 61 122 84 122 109 L 122 117 L 219 117 Z M 403 117 L 403 110 C 403 71 393 33 375 -4 C 356 -42 329 -78 293 -113 L 200 -107 C 211 -97 223 -84 235 -70 C 247 -55 259 -39 269 -21 C 279 -3 288 17 295 39 C 301 61 305 84 305 109 L 305 117 L 403 117 Z" unicode="„" />
<glyph horiz-adv-x="516" d="M 493 377 L 308 377 L 308 -179 L 202 -179 L 202 377 L 23 377 L 23 471 L 202 471 L 202 730 L 308 730 L 308 471 L 493 471 L 493 377 Z" unicode="†" />
<glyph horiz-adv-x="519" d="M 204 -179 L 204 103 L 29 103 L 29 197 L 204 197 L 204 377 L 29 377 L 29 471 L 204 471 L 204 730 L 310 730 L 310 471 L 490 471 L 490 377 L 310 377 L 310 197 L 490 197 L 490 103 L 310 103 L 310 -179 L 204 -179 Z" unicode="‡" />
<glyph horiz-adv-x="382" d="M 191 473 C 217 473 240 464 258 446 C 276 428 285 405 285 379 C 285 353 276 331 258 313 C 240 295 217 286 191 286 C 164 286 142 295 124 313 C 106 331 98 353 98 379 C 98 405 106 428 124 446 C 142 464 164 473 191 473 Z" unicode="•" />
<glyph horiz-adv-x="695" d="M 65 0 L 65 132 L 168 132 L 168 0 L 65 0 Z M 296 0 L 296 132 L 399 132 L 399 0 L 296 0 Z M 527 0 L 527 132 L 631 132 L 631 0 L 527 0 Z" unicode="…" />
<glyph horiz-adv-x="1129" d="M 196 357 C 176 357 157 361 138 369 C 119 377 102 390 88 406 C 73 422 61 442 52 466 C 43 490 39 517 39 548 C 39 574 43 598 51 622 C 59 645 70 665 84 683 C 98 700 114 714 133 724 C 152 734 172 740 194 740 C 217 740 238 734 258 724 C 278 714 295 700 309 683 C 323 666 333 646 341 623 C 349 600 353 576 353 551 C 353 523 349 498 341 474 C 333 450 322 430 308 413 C 294 395 277 382 258 372 C 238 362 218 357 196 357 Z M 117 0 L 566 730 L 651 730 L 202 0 L 117 0 Z M 128 548 C 128 514 134 487 146 466 C 158 445 174 435 195 435 C 219 435 236 445 248 467 C 259 489 265 516 265 548 C 265 578 259 605 249 627 C 238 649 221 661 197 661 C 173 661 156 650 145 628 C 133 606 128 579 128 548 Z M 581 -3 C 561 -3 542 1 523 9 C 504 17 487 30 473 46 C 458 62 446 82 437 106 C 428 130 424 157 424 188 C 424 214 428 239 436 263 C 444 286 455 306 469 324 C 483 341 499 355 519 365 C 538 375 559 380 582 380 C 606 380 627 374 647 364 C 666 354 683 340 697 323 C 711 306 721 286 729 263 C 736 240 740 216 740 191 C 740 164 736 139 728 115 C 720 91 709 71 695 53 C 681 35 664 22 645 12 C 625 2 604 -3 581 -3 Z M 932 -3 C 912 -3 892 1 873 9 C 854 17 837 30 823 46 C 808 62 796 82 787 106 C 778 130 774 157 774 188 C 774 214 778 239 786 263 C 794 286 805 306 819 324 C 833 341 849 355 869 365 C 889 375 910 380 933 380 C 956 380 977 374 997 364 C 1017 354 1033 340 1047 323 C 1061 306 1071 286 1079 263 C 1086 240 1090 216 1090 191 C 1090 164 1086 139 1078 115 C 1070 91 1060 71 1046 53 C 1032 35 1015 22 996 12 C 976 2 955 -3 932 -3 Z M 580 76 C 604 76 622 86 634 107 C 646 128 652 155 652 188 C 652 220 646 247 635 269 C 623 291 606 302 582 302 C 560 302 543 291 531 269 C 519 247 513 220 513 188 C 513 154 519 126 531 106 C 543 86 560 76 580 76 Z M 931 76 C 955 76 972 86 984 107 C 996 128 1002 155 1002 188 C 1002 220 996 247 985 269 C 974 291 957 302 933 302 C 911 302 893 291 881 269 C 869 247 863 220 863 188 C 863 154 869 126 881 106 C 893 86 910 76 931 76 Z" unicode="‰" />
<glyph horiz-adv-x="242" d="M 213 90 L 27 259 L 27 324 L 213 490 L 213 388 L 115 289 L 213 195 L 213 90 Z" unicode="‹" />
<glyph horiz-adv-x="243" d="M 29 491 L 216 322 L 216 258 L 29 91 L 29 193 L 127 292 L 29 385 L 29 491 Z" unicode="›" />
<glyph horiz-adv-x="145" d="M 304 730 L -58 0 L -145 0 L 217 730 L 304 730 Z" unicode="⁄" />
<glyph horiz-adv-x="328" d="M 14 453 L 14 514 L 198 737 L 256 737 L 256 518 L 316 518 L 316 453 L 256 453 L 256 373 L 173 373 L 173 453 L 14 453 Z M 87 509 L 175 509 L 175 617 L 87 509 Z" unicode="⁴" />
<glyph horiz-adv-x="535" d="M 527 115 C 508 77 480 47 442 23 C 404 0 363 -12 319 -12 C 261 -12 210 11 168 57 C 126 103 98 166 84 248 L 32 248 L 32 325 L 76 325 C 75 331 75 337 75 343 C 75 349 75 355 75 361 C 75 366 75 371 75 377 C 75 383 75 388 76 393 L 32 393 L 32 470 L 83 470 C 89 510 98 546 111 580 C 124 614 140 642 160 666 C 180 690 203 708 229 722 C 255 735 285 742 318 742 C 374 742 418 730 450 706 C 482 682 505 655 520 625 L 442 581 C 430 603 414 621 395 635 C 376 649 351 657 320 657 C 284 657 253 641 228 609 C 203 577 186 531 178 470 L 470 470 L 470 393 L 172 393 C 171 388 171 383 171 378 C 171 372 171 367 171 362 C 171 355 171 349 171 343 C 171 337 171 331 172 325 L 470 325 L 470 248 L 180 248 C 190 188 209 144 235 115 C 261 86 291 72 323 72 C 353 72 379 81 401 99 C 423 117 440 139 452 164 L 527 115 Z" unicode="€" />
<glyph horiz-adv-x="891" d="M 839 309 L 749 309 L 749 581 L 619 390 L 599 390 L 470 580 L 470 309 L 383 309 L 383 730 L 465 730 L 610 518 L 755 730 L 839 730 L 839 309 Z M 354 630 L 238 630 L 238 309 L 137 309 L 137 630 L 19 630 L 19 730 L 354 730 L 354 630 Z" unicode="™" />
<glyph horiz-adv-x="756" d="M 44 0 L 44 94 L 250 94 L 250 159 C 186 181 134 218 94 270 C 54 322 35 381 35 446 C 35 488 42 527 58 564 C 74 600 96 632 125 659 C 154 686 190 707 232 723 C 274 739 322 747 374 747 C 428 747 477 739 521 723 C 564 707 600 685 630 658 C 660 631 682 599 698 563 C 714 526 722 487 722 446 C 722 380 703 321 667 270 C 630 218 576 181 505 159 L 505 94 L 712 94 L 712 0 L 425 0 L 425 212 C 483 230 529 261 561 303 C 593 345 610 391 610 441 C 610 473 604 502 592 529 C 580 556 563 579 543 599 C 522 618 497 633 468 644 C 439 655 408 661 375 661 C 342 661 312 655 284 644 C 256 633 231 618 211 598 C 191 578 175 555 164 528 C 152 501 147 471 147 439 C 147 391 162 346 194 305 C 225 263 271 232 331 212 L 331 0 L 44 0 Z" unicode="Ω" />
<glyph horiz-adv-x="540" d="M 499 285 C 499 233 492 188 480 150 C 467 112 450 82 429 58 C 407 34 382 17 354 6 C 325 -4 295 -10 263 -10 C 234 -10 206 -4 178 5 C 150 15 125 30 104 50 C 82 70 65 94 52 123 C 38 152 32 185 32 222 C 32 255 37 286 49 316 C 61 345 76 370 96 392 C 116 413 139 430 166 442 C 192 454 221 461 251 461 C 289 461 322 452 350 434 C 378 416 399 394 413 367 C 406 431 393 487 374 534 C 354 580 332 619 306 649 C 280 679 253 701 223 716 C 193 730 164 738 136 740 L 182 802 C 211 802 244 792 281 773 C 318 754 353 724 385 683 C 417 642 444 589 466 523 C 488 457 499 378 499 285 Z M 263 64 C 303 64 334 78 358 108 C 382 138 394 179 394 232 C 394 276 382 313 360 342 C 337 370 305 385 264 385 C 226 385 196 370 172 342 C 148 313 137 274 137 224 C 137 172 148 132 172 105 C 195 77 225 64 263 64 Z" unicode="∂" />
<glyph horiz-adv-x="620" d="M 620 0 L 0 0 L 289 731 L 334 731 L 620 0 Z M 479 83 L 307 547 L 136 83 L 479 83 Z" unicode="∆" />
<glyph horiz-adv-x="683" d="M 228 639 L 228 0 L 123 0 L 123 639 L 15 639 L 15 730 L 668 730 L 668 639 L 565 639 L 565 0 L 460 0 L 460 639 L 228 639 Z" unicode="∏" />
<glyph horiz-adv-x="592" d="M 186 637 L 416 307 L 153 -86 L 550 -86 L 550 -179 L -18 -179 L 310 306 L 12 730 L 529 730 L 529 637 L 186 637 Z" unicode="∑" />
<glyph horiz-adv-x="508" d="M 468 290 L 40 290 L 40 374 L 468 374 L 468 290 Z" unicode="−" />
<glyph horiz-adv-x="510" d="M 504 730 L 198 0 L 186 0 L 12 330 L 84 385 L 204 143 L 440 730 L 504 730 Z" unicode="√" />
<glyph horiz-adv-x="342" d="M 105 -21 L 162 625 C 164 644 169 661 177 676 C 185 690 194 702 206 712 C 217 722 229 729 243 734 C 257 739 270 742 284 742 C 298 742 311 741 325 740 C 339 739 347 738 350 738 L 342 649 C 340 649 336 650 330 651 C 324 651 318 652 312 652 C 293 652 278 645 266 633 C 254 620 247 600 245 574 L 190 -57 C 187 -89 174 -117 151 -142 C 127 -167 98 -179 62 -179 C 42 -179 24 -177 7 -173 C -9 -169 -22 -164 -31 -160 L -20 -89 C -16 -89 -9 -91 0 -94 C 10 -96 19 -98 28 -98 C 47 -98 64 -91 79 -78 C 93 -64 102 -45 105 -21 Z" unicode="∫" />
<glyph horiz-adv-x="489" d="M 369 502 L 452 502 C 450 454 442 414 426 384 C 410 353 386 338 352 338 C 330 338 310 342 292 351 C 274 359 259 369 247 380 C 234 390 221 400 208 408 C 194 416 181 420 168 420 C 155 420 142 412 130 397 C 117 382 111 363 111 341 L 35 341 C 35 391 44 430 64 460 C 83 489 109 504 142 504 C 164 504 183 499 200 489 C 217 479 232 469 245 459 C 257 450 270 442 282 435 C 294 427 307 424 320 424 C 337 424 349 430 357 444 C 365 457 369 476 369 502 Z M 370 323 L 452 323 C 450 275 441 235 425 204 C 408 173 382 158 347 158 C 324 158 304 162 287 171 C 270 179 256 189 244 200 C 231 210 218 219 206 227 C 193 234 180 238 167 238 C 154 238 142 230 130 216 C 118 202 113 183 113 161 L 35 161 C 35 211 44 250 64 280 C 84 310 111 325 146 325 C 168 325 188 319 206 309 C 224 299 239 288 251 278 C 262 268 274 260 286 253 C 298 246 311 243 323 243 C 339 243 351 249 359 263 C 366 276 370 296 370 323 Z" unicode="≈" />
<glyph horiz-adv-x="495" d="M 452 171 L 224 171 L 175 63 L 113 89 L 150 171 L 63 171 L 63 257 L 189 257 L 248 387 L 63 387 L 63 472 L 287 472 L 338 584 L 401 558 L 362 472 L 452 472 L 452 387 L 323 387 L 264 257 L 452 257 L 452 171 Z" unicode="≠" />
<glyph horiz-adv-x="495" d="M 60 292 L 60 357 L 430 560 L 430 468 L 159 327 L 430 184 L 430 93 L 60 292 Z M 59 90 L 430 90 L 430 16 L 59 16 L 59 90 Z" unicode="≤" />
<glyph horiz-adv-x="495" d="M 429 292 L 59 93 L 59 184 L 330 327 L 59 468 L 59 560 L 429 357 L 429 292 Z M 430 90 L 430 16 L 59 16 L 59 90 L 430 90 Z" unicode="≥" />
<glyph horiz-adv-x="537" d="M 508 326 L 274 -19 L 263 -19 L 29 326 L 29 337 L 263 681 L 274 681 L 508 337 L 508 326 Z M 413 327 L 413 336 L 273 547 L 265 547 L 124 336 L 124 327 L 265 115 L 273 115 L 413 327 Z" unicode="◊" />
<glyph horiz-adv-x="730" d="M 448 673 L 282 673 L 282 730 L 448 730 L 448 673 Z M 659 282 L 600 282 L 600 448 L 659 448 L 659 282 Z M 130 282 L 71 282 L 71 448 L 130 448 L 130 282 Z M 433 297 L 297 297 L 297 433 L 433 433 L 433 297 Z M 448 0 L 282 0 L 282 58 L 448 58 L 448 0 Z" unicode="" />
<glyph horiz-adv-x="548" d="M 315 402 L 199 402 L 199 0 L 98 0 L 98 402 L 16 402 L 16 484 L 98 484 L 98 583 C 98 615 103 644 114 669 C 124 694 138 715 155 731 C 171 747 190 760 211 768 C 232 776 253 781 275 781 C 291 781 308 779 324 776 C 340 772 352 768 360 764 L 342 680 C 336 682 329 685 319 687 C 309 689 299 691 289 691 C 267 691 247 682 227 664 C 207 646 198 619 198 583 L 198 484 L 315 484 L 315 402 Z M 487 582 L 381 582 L 381 679 L 487 679 L 487 582 Z M 485 0 L 383 0 L 383 484 L 485 484 L 485 0 Z" unicode="ﬁ" />
<glyph horiz-adv-x="536" d="M 315 406 L 199 406 L 199 0 L 98 0 L 98 406 L 14 406 L 14 490 L 98 490 L 98 580 C 98 612 103 641 114 667 C 124 692 138 713 155 730 C 171 746 190 759 211 767 C 232 775 253 780 275 780 C 291 780 308 778 324 775 C 340 771 352 768 360 764 L 342 680 C 336 682 329 684 319 686 C 309 688 299 690 289 690 C 267 690 247 680 227 662 C 207 643 198 616 198 580 L 198 490 L 315 490 L 315 406 Z M 474 776 L 474 0 L 372 0 L 372 776 L 474 776 Z" unicode="ﬂ" />
</font>
</defs>
</svg>
