<?xml version="1.0" encoding="utf-8" ?><svg version="1.1" xmlns = 'http://www.w3.org/2000/svg'><defs><font id='web' horiz-adv-x="1000">
<font-face font-family="web" descent="-200" cap-height="730" units-per-em="1000" bbox="-197,-344,1158,1023" x-height="490" ascent="800" />
<missing-glyph horiz-adv-x="500" d="" /><glyph horiz-adv-x="250" d="" unicode=" " />
<glyph horiz-adv-x="290" d="M 208 435 L 174 216 L 120 216 L 87 435 L 87 730 L 208 730 L 208 435 Z M 204 0 L 92 0 L 92 117 L 204 117 L 204 0 Z" unicode="!" />
<glyph horiz-adv-x="430" d="M 364 614 L 357 470 L 272 470 L 268 613 L 268 730 L 364 730 L 364 614 Z M 162 613 L 157 470 L 71 470 L 66 613 L 66 730 L 162 730 L 162 613 Z" unicode="&#x22;" />
<glyph horiz-adv-x="640" d="M 583 214 L 454 214 L 435 0 L 371 1 L 390 214 L 230 214 L 211 0 L 146 1 L 165 214 L 34 214 L 34 298 L 172 298 L 184 429 L 57 429 L 57 513 L 191 513 L 210 730 L 275 729 L 256 513 L 416 513 L 435 730 L 499 729 L 480 513 L 606 513 L 606 429 L 473 429 L 461 298 L 583 298 L 583 214 Z M 237 298 L 397 298 L 409 429 L 249 429 L 237 298 Z" unicode="#" />
<glyph horiz-adv-x="544" d="M 507 191 C 507 138 487 95 448 61 C 409 27 361 7 303 2 L 303 -120 L 234 -120 L 234 3 C 189 6 149 15 113 31 C 77 46 49 64 29 84 L 74 168 C 92 150 115 134 145 120 C 174 106 204 97 234 92 L 234 337 C 165 367 116 398 86 430 C 56 462 42 503 42 551 C 42 599 60 639 96 672 C 132 705 178 724 234 729 L 234 789 L 303 789 L 303 728 C 339 724 372 716 403 703 C 434 690 461 673 484 653 L 430 578 C 413 594 393 608 371 618 C 349 628 326 636 303 640 L 303 413 L 305 412 C 339 396 368 381 394 367 C 419 352 440 336 457 320 C 473 303 486 284 494 263 C 502 242 507 218 507 191 Z M 141 551 C 140 528 146 509 160 495 C 173 480 198 463 234 445 L 234 641 C 206 637 184 627 167 611 C 149 595 141 575 141 551 Z M 409 189 C 409 211 402 231 389 249 C 375 266 347 285 303 307 L 303 89 C 334 93 359 103 379 121 C 399 139 409 161 409 189 Z" unicode="$" />
<glyph horiz-adv-x="833" d="M 210 354 C 188 354 167 358 147 367 C 127 375 109 388 93 404 C 77 420 65 440 55 464 C 45 488 41 515 41 546 C 41 572 45 596 54 620 C 62 644 74 664 89 682 C 104 700 122 714 142 724 C 162 734 184 740 208 740 C 232 740 255 734 276 724 C 296 714 314 700 329 683 C 344 665 356 645 364 622 C 372 598 376 574 376 549 C 376 521 371 496 363 472 C 355 448 343 428 329 410 C 314 392 296 379 276 369 C 255 359 233 354 210 354 Z M 221 0 L 132 0 L 602 730 L 691 730 L 221 0 Z M 208 433 C 232 433 251 443 265 464 C 279 484 286 512 286 546 C 286 579 279 606 267 628 C 255 649 236 660 210 660 C 185 660 166 649 153 628 C 139 606 133 579 133 546 C 133 510 140 482 155 462 C 169 442 187 433 208 433 Z M 626 -3 C 604 -3 584 1 564 10 C 544 18 526 31 510 47 C 494 63 482 84 473 108 C 463 132 459 159 459 190 C 459 216 463 240 471 264 C 479 288 491 308 506 326 C 521 344 539 358 559 368 C 579 378 602 384 626 384 C 651 384 674 378 695 368 C 715 358 733 344 748 327 C 762 309 774 289 782 266 C 790 242 794 218 794 193 C 794 165 789 140 781 116 C 773 92 761 72 747 54 C 732 36 714 22 694 12 C 673 2 650 -3 626 -3 Z M 625 77 C 649 77 668 87 682 108 C 696 128 703 156 703 190 C 703 224 696 251 684 272 C 671 293 652 304 626 304 C 603 304 585 293 572 272 C 558 251 552 224 552 190 C 552 153 559 125 573 106 C 587 86 604 77 625 77 Z" unicode="%" />
<glyph horiz-adv-x="730" d="M 647 -4 L 553 80 C 517 52 478 30 435 15 C 392 0 344 -8 292 -8 C 253 -8 217 -3 185 4 C 153 12 125 25 102 41 C 79 57 61 76 49 100 C 36 123 30 149 30 179 C 30 205 34 229 44 250 C 54 270 67 289 83 305 C 99 321 118 336 139 350 C 160 364 182 377 204 390 L 197 397 C 187 405 177 416 167 428 C 156 440 146 453 137 467 C 127 481 120 498 114 516 C 108 534 105 553 105 574 C 105 596 110 617 121 637 C 132 657 147 674 166 689 C 184 703 206 715 230 724 C 254 732 280 737 307 737 C 335 737 361 732 385 724 C 409 715 429 703 446 689 C 462 674 475 657 484 637 C 493 617 498 597 498 576 C 498 536 484 501 458 473 C 432 445 396 416 352 388 L 552 215 C 563 229 574 243 586 259 C 597 274 608 290 619 307 L 704 256 C 692 236 679 218 666 200 C 653 182 640 166 627 150 L 709 79 L 647 -4 Z M 275 455 L 290 442 C 324 464 351 485 370 505 C 389 525 399 546 399 570 C 399 593 390 613 374 631 C 358 649 334 658 304 658 C 276 658 253 649 235 631 C 217 613 208 593 208 572 C 208 550 214 530 227 510 C 240 490 256 471 275 455 Z M 145 184 C 145 150 159 123 188 105 C 217 87 253 78 295 78 C 329 78 361 84 392 96 C 422 108 451 124 479 145 L 266 335 C 226 310 196 287 176 265 C 155 243 145 216 145 184 Z" unicode="&#x26;" />
<glyph horiz-adv-x="228" d="M 162 610 L 157 463 L 71 463 L 66 610 L 66 730 L 162 730 L 162 610 Z" unicode="'" />
<glyph horiz-adv-x="335" d="M 320 -91 L 320 -184 C 280 -165 242 -140 207 -108 C 171 -76 141 -40 115 1 C 89 42 68 87 53 137 C 37 187 30 239 30 293 C 30 349 38 402 54 451 C 70 500 91 544 118 583 C 144 621 175 655 211 683 C 246 711 282 733 320 749 L 320 663 C 298 649 277 632 257 610 C 236 588 218 562 202 532 C 186 502 174 467 164 427 C 154 387 150 343 150 293 C 150 207 165 130 196 63 C 227 -3 268 -55 320 -91 Z" unicode="(" />
<glyph horiz-adv-x="335" d="M 15 662 L 15 749 C 51 735 86 714 121 687 C 156 659 187 626 214 587 C 241 547 263 502 280 451 C 296 400 305 345 305 285 C 305 228 296 175 280 125 C 264 75 242 31 216 -9 C 189 -49 158 -83 123 -113 C 88 -143 52 -166 15 -184 L 15 -88 C 38 -72 60 -51 82 -27 C 104 -3 123 24 139 55 C 155 86 167 121 177 160 C 187 198 192 240 192 285 C 192 337 186 383 176 425 C 165 467 151 503 135 534 C 118 564 99 590 78 612 C 57 633 36 650 15 662 Z" unicode=")" />
<glyph horiz-adv-x="417" d="M 381 574 L 254 543 L 350 457 L 280 397 L 210 511 L 141 397 L 71 456 L 167 544 L 35 572 L 73 659 L 183 593 L 161 730 L 260 730 L 236 593 L 349 657 L 381 574 Z" unicode="*" />
<glyph horiz-adv-x="508" d="M 477 289 L 296 289 L 296 113 L 212 113 L 212 289 L 31 289 L 31 373 L 212 373 L 212 549 L 296 549 L 296 373 L 477 373 L 477 289 Z" unicode="+" />
<glyph horiz-adv-x="250" d="M 211 116 C 208 89 203 62 195 35 C 187 8 178 -16 167 -40 C 155 -64 143 -85 130 -104 C 116 -123 103 -138 90 -150 L 14 -115 C 22 -106 30 -93 39 -77 C 48 -61 57 -42 66 -22 C 74 -1 82 21 89 45 C 96 69 101 92 105 116 L 211 116 Z" unicode="," />
<glyph horiz-adv-x="355" d="M 310 222 L 45 222 L 45 314 L 310 314 L 310 222 Z" unicode="-" />
<glyph horiz-adv-x="251" d="M 179 0 L 72 0 L 72 135 L 179 135 L 179 0 Z" unicode="." />
<glyph horiz-adv-x="328" d="M 327 730 L 96 0 L 2 0 L 235 730 L 327 730 Z" unicode="/" />
<glyph horiz-adv-x="593" d="M 293 -12 C 216 -12 154 20 108 86 C 62 152 39 243 39 361 C 39 412 44 461 55 507 C 65 553 81 594 103 629 C 125 663 152 691 185 711 C 217 731 255 742 299 742 C 343 742 382 732 414 713 C 446 693 473 667 494 633 C 514 599 529 560 539 515 C 549 469 554 421 554 369 C 554 313 548 262 538 216 C 527 169 511 129 490 95 C 468 61 441 35 408 16 C 375 -2 337 -12 293 -12 Z M 294 81 C 320 81 343 87 363 101 C 382 115 398 134 410 158 C 422 182 432 212 438 246 C 444 280 447 317 447 359 C 447 401 444 440 438 476 C 432 512 424 542 412 568 C 400 593 384 613 365 627 C 346 641 323 649 296 649 C 246 649 208 622 183 570 C 158 518 146 448 146 361 C 146 275 158 207 183 157 C 208 106 245 81 294 81 Z" unicode="0" />
<glyph horiz-adv-x="384" d="M 296 0 L 191 0 L 191 583 C 183 574 174 565 162 557 C 150 549 138 541 124 534 C 110 527 96 521 82 517 C 68 512 54 509 42 509 L 42 609 C 76 611 108 623 139 646 C 170 668 199 697 226 731 L 296 731 L 296 0 Z" unicode="1" />
<glyph horiz-adv-x="563" d="M 534 0 L 29 0 L 29 35 L 342 371 C 363 393 381 418 396 445 C 411 472 419 500 419 530 C 419 564 405 592 379 614 C 352 636 318 647 276 647 C 230 647 195 633 169 606 C 143 579 131 544 131 502 L 34 502 C 34 577 58 636 104 678 C 150 720 211 742 287 742 C 356 742 413 724 457 689 C 501 653 524 605 524 543 C 524 489 513 445 491 410 C 469 374 446 344 422 318 L 205 93 L 534 93 L 534 0 Z" unicode="2" />
<glyph horiz-adv-x="555" d="M 267 -12 C 203 -12 150 -3 107 13 C 63 30 30 50 7 72 L 61 153 C 80 137 106 120 139 104 C 171 88 211 80 258 80 C 312 80 354 93 384 121 C 414 148 429 182 429 223 C 429 261 414 290 384 312 C 354 333 316 344 270 344 L 142 344 L 142 436 L 268 436 C 308 436 341 446 366 468 C 391 489 404 514 404 544 C 404 571 392 595 369 617 C 346 639 314 650 274 650 C 228 650 191 641 164 623 C 137 605 115 584 97 562 L 36 633 C 45 645 57 658 72 671 C 86 684 104 696 124 706 C 144 716 167 725 193 732 C 219 738 249 742 282 742 C 349 742 404 725 446 693 C 488 660 509 616 509 561 C 509 519 495 483 469 453 C 442 423 411 403 375 394 C 419 385 456 365 486 334 C 516 302 532 263 532 215 C 532 187 526 159 515 132 C 504 104 488 80 466 59 C 444 38 417 21 384 8 C 350 -5 311 -12 267 -12 Z" unicode="3" />
<glyph horiz-adv-x="583" d="M 575 186 L 453 186 L 453 0 L 355 0 L 355 186 L 15 186 L 15 257 L 379 741 L 453 741 L 453 273 L 575 273 L 575 186 Z M 357 273 L 357 578 L 130 273 L 357 273 Z" unicode="4" />
<glyph horiz-adv-x="573" d="M 275 -12 C 216 -12 165 -2 123 16 C 81 35 48 56 26 79 L 80 158 C 98 138 124 119 157 103 C 189 87 227 79 270 79 C 320 79 360 95 390 128 C 420 160 435 202 435 253 C 435 301 420 339 392 367 C 364 395 328 409 285 409 C 251 409 221 402 194 388 C 167 374 147 355 133 330 L 64 347 L 95 730 L 484 730 L 484 634 L 172 634 L 157 428 C 169 446 190 462 219 476 C 247 489 278 496 312 496 C 381 496 437 474 479 430 C 521 386 543 329 543 258 C 543 219 536 183 524 150 C 511 117 493 89 470 65 C 447 41 419 22 386 8 C 353 -5 316 -12 275 -12 Z" unicode="5" />
<glyph horiz-adv-x="572" d="M 297 -12 C 259 -12 224 -5 192 7 C 160 19 132 37 109 61 C 86 84 68 112 55 145 C 42 177 36 214 36 254 C 36 296 42 336 54 375 C 66 413 83 451 105 487 C 127 523 153 558 183 593 C 213 627 245 661 280 695 L 341 754 L 410 686 L 363 643 C 312 593 267 545 229 500 C 190 454 166 416 158 386 C 168 404 187 423 215 441 C 243 459 276 468 316 468 C 351 468 383 462 411 450 C 439 438 464 422 484 401 C 504 380 519 355 530 326 C 541 297 547 265 547 231 C 547 197 540 166 528 136 C 515 106 498 81 476 59 C 454 37 427 19 397 7 C 366 -5 333 -12 297 -12 Z M 297 79 C 341 79 376 93 403 123 C 429 153 443 188 443 228 C 443 270 430 305 405 335 C 380 364 344 379 296 379 C 276 379 257 375 239 369 C 220 362 204 352 190 340 C 176 328 164 312 156 294 C 147 276 143 255 143 233 C 143 189 156 152 184 123 C 211 93 249 79 297 79 Z" unicode="6" />
<glyph horiz-adv-x="504" d="M 496 730 L 508 691 L 159 -9 L 68 35 L 371 633 L 15 633 L 15 730 L 496 730 Z" unicode="7" />
<glyph horiz-adv-x="599" d="M 411 386 C 430 381 449 373 467 363 C 485 353 501 340 515 324 C 529 308 540 290 548 268 C 556 246 560 222 560 196 C 560 166 554 139 542 114 C 530 88 512 66 490 48 C 468 29 440 14 408 4 C 376 -6 339 -12 299 -12 C 219 -12 156 7 110 45 C 64 83 42 133 42 195 C 42 222 46 247 56 269 C 65 291 77 311 91 327 C 105 343 122 356 140 366 C 158 376 175 382 192 384 C 177 388 162 395 146 405 C 130 414 117 426 105 440 C 93 454 83 470 75 488 C 67 506 63 527 63 549 C 63 578 69 604 81 628 C 93 652 109 672 130 689 C 151 705 176 718 205 728 C 234 737 265 742 299 742 C 372 742 430 724 473 689 C 515 653 537 609 538 555 C 538 511 525 475 499 445 C 473 415 443 395 411 386 Z M 299 420 C 341 420 375 430 400 452 C 425 474 438 501 438 534 C 438 572 425 601 399 622 C 373 642 340 653 299 653 C 259 653 226 642 200 620 C 174 598 161 570 161 535 C 161 500 174 472 201 451 C 227 430 260 420 299 420 Z M 300 75 C 348 75 387 87 416 112 C 445 136 460 169 460 209 C 460 249 445 279 416 301 C 386 322 348 333 300 333 C 252 333 214 322 184 301 C 154 279 140 248 140 207 C 140 167 154 135 184 111 C 213 87 252 75 300 75 Z" unicode="8" />
<glyph horiz-adv-x="572" d="M 237 -16 L 174 55 L 235 108 C 255 126 275 146 295 168 C 315 189 333 210 349 232 C 365 254 380 275 392 296 C 404 317 413 337 418 355 C 406 334 385 314 354 296 C 322 278 289 269 254 269 C 184 269 129 290 87 334 C 45 378 25 435 25 506 C 25 538 31 569 44 598 C 56 627 74 652 96 674 C 118 696 144 713 175 726 C 206 738 240 745 277 745 C 313 745 347 738 379 726 C 411 714 438 696 461 674 C 484 651 502 623 516 591 C 529 558 536 521 536 480 C 536 434 529 391 517 350 C 504 308 487 270 466 234 C 445 198 421 164 393 132 C 365 100 335 71 305 45 L 237 -16 Z M 276 354 C 320 354 356 368 386 396 C 416 424 431 460 431 502 C 431 548 416 585 386 613 C 356 641 321 655 279 655 C 233 655 197 640 171 611 C 144 581 131 547 131 507 C 131 463 143 427 168 398 C 192 368 228 354 276 354 Z" unicode="9" />
<glyph horiz-adv-x="251" d="M 178 358 L 73 358 L 73 490 L 178 490 L 178 358 Z M 178 0 L 73 0 L 73 133 L 178 133 L 178 0 Z" unicode=":" />
<glyph horiz-adv-x="250" d="M 185 358 L 80 358 L 80 490 L 185 490 L 185 358 Z M 189 106 C 186 82 181 57 173 32 C 165 7 156 -16 146 -39 C 135 -61 123 -82 111 -100 C 98 -118 85 -133 72 -145 L -4 -110 C 4 -100 13 -88 23 -72 C 33 -56 42 -39 51 -20 C 59 0 67 19 74 41 C 81 63 86 84 88 106 L 189 106 Z" unicode=";" />
<glyph horiz-adv-x="422" d="M 370 91 L 46 290 L 46 364 L 370 562 L 370 462 L 154 329 L 370 192 L 370 91 Z" unicode="&#x3C;" />
<glyph horiz-adv-x="505" d="M 451 386 L 54 386 L 54 474 L 451 474 L 451 386 Z M 451 171 L 54 171 L 54 259 L 451 259 L 451 171 Z" unicode="=" />
<glyph horiz-adv-x="422" d="M 375 290 L 51 91 L 51 192 L 268 329 L 51 463 L 51 562 L 375 364 L 375 290 Z" unicode="&#x3E;" />
<glyph horiz-adv-x="470" d="M 164 207 C 164 251 170 287 182 316 C 194 345 214 373 243 399 C 265 419 287 441 309 463 C 330 485 341 514 341 549 C 341 579 329 604 305 622 C 281 640 252 649 218 649 C 187 649 159 642 135 628 C 110 614 90 596 76 576 L 9 642 C 32 672 63 696 103 714 C 142 732 186 742 234 742 C 297 742 349 725 389 692 C 429 658 449 615 449 561 C 449 535 445 512 437 492 C 429 472 420 453 408 437 C 396 421 382 406 368 393 C 354 380 340 368 327 356 C 302 336 286 313 279 286 C 271 258 267 232 267 207 L 164 207 Z M 160 0 L 160 121 L 275 121 L 275 0 L 160 0 Z" unicode="?" />
<glyph horiz-adv-x="869" d="M 425 -34 C 370 -34 319 -24 273 -4 C 226 16 186 43 152 77 C 118 111 92 152 73 199 C 53 245 44 295 44 348 C 44 402 53 452 72 499 C 91 545 117 585 151 619 C 185 653 226 679 274 699 C 322 719 374 729 431 729 C 489 729 542 720 590 704 C 638 687 678 663 712 633 C 745 603 771 566 789 523 C 807 480 817 433 817 382 C 817 337 811 299 801 268 C 791 236 778 211 762 191 C 746 171 729 157 709 148 C 689 139 670 135 652 135 C 618 135 591 141 571 155 C 551 168 538 185 532 206 C 523 189 505 173 477 158 C 449 143 416 136 377 136 C 327 136 290 148 264 173 C 238 197 226 228 226 265 C 226 307 244 341 280 367 C 316 393 366 406 430 406 L 523 406 L 523 415 C 523 443 514 463 496 475 C 478 487 454 493 424 493 C 399 493 376 490 355 484 C 334 478 316 473 302 467 L 271 539 C 289 547 312 555 341 562 C 369 569 398 573 426 573 C 481 573 525 559 558 533 C 591 507 608 464 608 404 L 608 262 C 608 248 611 234 618 222 C 625 210 639 204 660 204 C 668 204 678 206 688 211 C 698 216 708 225 716 237 C 724 249 731 267 737 289 C 742 311 745 340 745 375 C 745 415 737 453 723 489 C 709 524 688 554 662 580 C 635 606 602 626 563 641 C 524 655 480 663 431 663 C 384 663 341 655 303 639 C 264 623 231 601 203 573 C 175 545 154 511 139 473 C 124 435 117 394 117 350 C 117 306 124 264 140 226 C 156 187 177 153 205 125 C 233 96 266 73 304 57 C 342 40 383 32 428 32 C 450 32 473 34 497 39 C 521 44 544 52 567 63 L 595 2 C 568 -10 540 -19 511 -25 C 482 -31 453 -34 425 -34 Z M 407 211 C 433 211 458 216 480 226 C 502 236 516 247 523 258 L 523 338 L 435 338 C 397 338 370 332 352 321 C 334 310 326 295 326 275 C 326 254 332 238 346 227 C 360 216 380 211 407 211 Z" unicode="@" />
<glyph horiz-adv-x="661" d="M 660 0 L 544 0 L 471 181 L 181 181 L 111 0 L 1 0 L 299 733 L 367 733 L 660 0 Z M 441 270 L 326 560 L 212 270 L 441 270 Z" unicode="A" />
<glyph horiz-adv-x="616" d="M 94 0 L 94 730 L 327 730 C 391 730 442 714 480 683 C 518 652 538 610 538 556 C 538 507 525 467 499 436 C 473 405 441 386 402 379 C 422 377 443 372 464 365 C 484 357 503 346 519 332 C 535 318 549 300 559 279 C 569 257 575 232 575 203 C 575 171 568 143 556 118 C 544 92 527 71 506 54 C 484 36 458 23 428 14 C 398 4 365 0 329 0 L 94 0 Z M 199 414 L 304 414 C 326 414 346 417 362 424 C 378 431 391 440 401 451 C 411 462 418 475 422 489 C 426 503 429 517 429 532 C 429 562 417 587 395 607 C 373 627 343 637 305 637 L 199 637 L 199 414 Z M 200 92 L 330 92 C 376 92 410 103 431 127 C 452 151 463 180 463 214 C 463 246 450 273 425 293 C 399 313 367 324 327 324 L 200 324 L 200 92 Z" unicode="B" />
<glyph horiz-adv-x="726" d="M 407 -12 C 357 -12 311 -3 267 14 C 223 31 184 56 152 88 C 119 120 93 160 74 207 C 55 253 46 306 46 365 C 46 419 55 470 73 516 C 91 562 117 602 149 636 C 181 669 219 695 264 714 C 308 732 357 742 409 742 C 475 742 531 732 578 713 C 624 693 663 665 694 629 L 619 549 C 597 574 570 595 536 613 C 502 630 461 639 412 639 C 372 639 336 632 304 619 C 272 605 246 587 225 563 C 203 539 187 510 176 476 C 164 442 159 405 159 365 C 159 319 166 278 180 243 C 194 208 213 179 237 156 C 261 133 288 116 319 105 C 350 93 382 88 416 88 C 467 88 511 98 547 118 C 583 138 613 163 637 194 L 709 129 C 679 89 639 55 587 28 C 535 1 475 -12 407 -12 Z" unicode="C" />
<glyph horiz-adv-x="752" d="M 94 0 L 94 730 L 321 730 C 381 730 435 721 483 704 C 531 687 571 663 604 633 C 636 602 661 565 679 521 C 696 477 705 429 705 377 C 705 324 696 274 679 228 C 661 182 636 142 603 108 C 569 74 528 48 478 29 C 428 9 370 0 305 0 L 94 0 Z M 204 93 L 303 93 C 351 93 394 100 430 115 C 466 129 496 149 520 175 C 543 201 560 231 572 265 C 584 299 590 336 590 375 C 590 452 565 515 517 563 C 469 611 402 636 317 636 L 204 636 L 204 93 Z" unicode="D" />
<glyph horiz-adv-x="590" d="M 537 0 L 94 0 L 94 730 L 518 730 L 518 632 L 202 632 L 202 411 L 502 411 L 502 314 L 202 314 L 202 98 L 537 98 L 537 0 Z" unicode="E" />
<glyph horiz-adv-x="525" d="M 484 632 L 203 632 L 203 412 L 469 412 L 469 316 L 203 316 L 203 0 L 94 0 L 94 730 L 484 730 L 484 632 Z" unicode="F" />
<glyph horiz-adv-x="782" d="M 424 372 L 734 372 L 734 152 C 706 103 664 63 609 33 C 553 3 489 -12 417 -12 C 364 -12 315 -2 270 15 C 224 33 185 59 152 92 C 119 124 93 164 74 211 C 55 257 46 309 46 365 C 46 423 56 475 76 522 C 96 568 122 608 156 640 C 190 672 229 697 275 715 C 320 733 368 742 418 742 C 454 742 486 738 515 732 C 543 726 568 718 590 708 C 612 698 631 686 647 674 C 663 661 676 649 687 637 L 615 559 C 595 579 570 597 539 614 C 507 630 466 639 414 639 C 378 639 344 632 312 620 C 280 607 253 589 230 566 C 207 542 189 514 176 480 C 163 446 157 409 157 367 C 157 326 163 288 177 253 C 190 218 208 188 232 163 C 255 138 283 118 315 104 C 347 90 383 83 421 83 C 469 83 513 92 552 111 C 590 129 618 155 635 187 L 635 274 L 424 274 L 424 372 Z" unicode="G" />
<glyph horiz-adv-x="768" d="M 674 0 L 564 0 L 564 310 L 204 310 L 204 0 L 94 0 L 94 730 L 204 730 L 204 410 L 564 410 L 564 730 L 674 730 L 674 0 Z" unicode="H" />
<glyph horiz-adv-x="306" d="M 208 0 L 98 0 L 98 730 L 208 730 L 208 0 Z" unicode="I" />
<glyph horiz-adv-x="411" d="M 331 730 L 331 196 C 331 168 326 141 317 116 C 308 90 295 68 277 50 C 259 31 237 16 211 5 C 184 -6 153 -12 119 -12 C 100 -12 81 -10 61 -8 C 41 -6 26 -2 15 4 L 36 96 C 42 93 53 90 68 88 C 83 86 96 85 108 85 C 145 85 174 95 194 116 C 214 137 225 163 225 193 L 225 730 L 331 730 Z" unicode="J" />
<glyph horiz-adv-x="689" d="M 682 0 L 544 0 L 294 321 L 203 213 L 203 0 L 94 0 L 94 730 L 203 730 L 203 347 L 514 730 L 642 730 L 368 401 L 682 0 Z" unicode="K" />
<glyph horiz-adv-x="521" d="M 511 0 L 94 0 L 94 730 L 204 730 L 204 98 L 511 98 L 511 0 Z" unicode="L" />
<glyph horiz-adv-x="924" d="M 830 0 L 726 0 L 726 510 L 482 155 L 440 155 L 197 507 L 197 0 L 94 0 L 94 730 L 164 730 L 465 293 L 759 730 L 830 730 L 830 0 Z" unicode="M" />
<glyph horiz-adv-x="785" d="M 691 0 L 615 0 L 198 534 L 198 0 L 94 0 L 94 730 L 177 730 L 589 201 L 589 730 L 691 730 L 691 0 Z" unicode="N" />
<glyph horiz-adv-x="840" d="M 423 -12 C 367 -12 315 -2 269 17 C 222 36 182 62 149 96 C 116 130 91 170 73 217 C 55 264 46 315 46 370 C 46 422 55 471 75 517 C 94 563 120 602 153 635 C 186 668 225 694 270 713 C 315 732 363 742 415 742 C 470 742 521 732 568 714 C 614 696 654 670 688 638 C 721 605 747 565 766 519 C 784 473 794 422 794 368 C 794 312 784 260 764 214 C 744 167 718 127 684 94 C 650 60 611 34 566 16 C 520 -2 473 -12 423 -12 Z M 427 87 C 463 87 496 93 528 106 C 559 118 586 137 609 161 C 632 185 650 214 663 249 C 676 283 683 323 683 367 C 683 407 676 443 662 477 C 648 511 630 540 606 564 C 582 588 553 606 520 620 C 487 633 452 640 414 640 C 377 640 343 633 311 621 C 279 609 252 591 230 568 C 208 545 190 517 177 483 C 164 449 158 412 158 370 C 158 326 165 286 179 251 C 193 215 213 186 237 162 C 261 138 289 119 322 106 C 355 93 390 87 427 87 Z" unicode="O" />
<glyph horiz-adv-x="608" d="M 94 0 L 94 730 L 347 730 C 381 730 412 725 440 715 C 468 705 493 691 514 673 C 534 654 550 631 562 604 C 573 577 579 547 579 513 C 579 480 573 450 562 422 C 551 394 536 370 516 350 C 496 330 471 314 443 303 C 415 291 383 286 349 286 L 204 286 L 204 0 L 94 0 Z M 203 380 L 333 380 C 376 380 409 392 433 417 C 456 442 468 474 468 514 C 468 554 454 584 426 605 C 398 625 365 636 325 636 L 203 636 L 203 380 Z" unicode="P" />
<glyph horiz-adv-x="835" d="M 706 -81 L 706 -183 C 632 -181 568 -165 512 -133 C 456 -101 415 -59 391 -7 C 338 -3 290 8 248 28 C 205 48 169 74 139 107 C 109 140 86 179 70 224 C 54 268 46 317 46 370 C 46 422 55 470 74 516 C 93 562 119 601 152 635 C 184 668 223 694 269 713 C 314 732 363 742 416 742 C 471 742 522 733 568 715 C 614 697 654 671 688 638 C 721 605 747 565 766 519 C 784 473 794 421 794 365 C 794 320 787 278 773 238 C 759 198 740 162 716 131 C 692 99 662 73 628 51 C 594 29 556 13 516 3 C 535 -23 562 -44 597 -58 C 631 -72 668 -80 706 -81 Z M 424 88 C 460 88 494 94 526 107 C 558 119 585 137 608 161 C 631 185 649 214 662 249 C 675 283 682 323 682 367 C 682 409 674 448 660 482 C 646 516 627 544 603 568 C 579 591 550 609 518 621 C 485 633 450 640 414 640 C 377 640 343 634 311 622 C 279 610 252 592 230 569 C 208 546 190 518 177 484 C 164 450 158 413 158 371 C 158 326 165 286 179 251 C 193 215 213 186 237 162 C 261 138 290 119 322 107 C 354 94 388 88 424 88 Z" unicode="Q" />
<glyph horiz-adv-x="627" d="M 94 0 L 94 730 L 322 730 C 352 730 381 725 407 716 C 433 707 456 694 476 677 C 495 660 510 639 521 614 C 532 589 538 561 538 530 C 538 498 533 470 524 446 C 515 421 503 400 488 383 C 473 366 456 353 437 343 C 418 333 399 326 379 324 L 376 321 L 603 0 L 474 0 L 270 296 L 203 296 L 203 0 L 94 0 Z M 202 389 L 297 389 C 334 389 365 399 390 421 C 415 443 428 475 428 517 C 428 553 416 581 392 603 C 368 625 338 636 302 636 L 202 636 L 202 389 Z" unicode="R" />
<glyph horiz-adv-x="555" d="M 286 -12 C 229 -12 179 -3 137 12 C 94 28 59 51 31 79 L 99 163 C 118 140 145 121 179 106 C 213 91 248 84 285 84 C 319 84 348 93 372 111 C 396 129 408 153 408 183 C 408 211 397 235 375 256 C 353 276 316 298 263 320 C 193 348 141 379 107 412 C 73 445 56 493 56 555 C 56 610 76 655 116 690 C 156 724 209 742 275 742 C 321 742 362 734 397 720 C 432 706 463 688 489 668 L 431 579 C 408 597 383 612 357 624 C 331 635 303 641 275 641 C 241 641 213 632 193 616 C 172 600 162 579 162 553 C 162 523 173 499 196 480 C 219 461 261 439 322 415 C 391 386 441 355 471 321 C 501 287 516 243 516 189 C 516 157 509 129 497 104 C 485 79 468 58 447 41 C 426 23 402 10 374 1 C 346 -7 316 -12 286 -12 Z" unicode="S" />
<glyph horiz-adv-x="550" d="M 540 632 L 327 632 L 327 0 L 217 0 L 217 632 L 10 632 L 10 730 L 540 730 L 540 632 Z" unicode="T" />
<glyph horiz-adv-x="754" d="M 666 730 L 666 266 C 666 222 658 183 643 149 C 627 114 607 85 581 61 C 555 37 524 19 489 7 C 453 -5 416 -12 376 -12 C 336 -12 299 -6 264 6 C 229 18 199 35 173 59 C 147 83 126 112 111 147 C 95 181 88 221 88 266 L 88 730 L 195 730 L 195 264 C 195 237 199 213 209 192 C 218 170 231 152 247 137 C 263 121 283 109 305 101 C 327 93 350 89 375 89 C 400 89 424 93 446 101 C 468 109 488 120 505 135 C 521 150 534 168 544 190 C 554 212 559 236 559 264 L 559 730 L 666 730 Z" unicode="U" />
<glyph horiz-adv-x="670" d="M 670 730 L 366 -5 L 298 -5 L 1 730 L 119 730 L 335 179 L 556 730 L 670 730 Z" unicode="V" />
<glyph horiz-adv-x="932" d="M 925 730 L 699 -7 L 637 -7 L 468 529 L 291 -7 L 229 -7 L 8 730 L 119 730 L 269 214 L 441 730 L 502 730 L 672 213 L 823 730 L 925 730 Z" unicode="W" />
<glyph horiz-adv-x="626" d="M 492 0 L 312 283 L 131 0 L 13 0 L 253 376 L 28 730 L 152 730 L 315 473 L 480 730 L 597 730 L 374 380 L 615 0 L 492 0 Z" unicode="X" />
<glyph horiz-adv-x="662" d="M 662 730 L 384 315 L 384 0 L 274 0 L 274 320 L 0 730 L 123 730 L 334 417 L 545 730 L 662 730 Z" unicode="Y" />
<glyph horiz-adv-x="595" d="M 559 730 L 559 684 L 169 98 L 571 98 L 571 0 L 18 0 L 18 45 L 404 632 L 47 632 L 47 730 L 559 730 Z" unicode="Z" />
<glyph horiz-adv-x="327" d="M 289 -179 L 86 -179 L 86 730 L 289 730 L 289 647 L 183 647 L 183 -94 L 289 -94 L 289 -179 Z" unicode="[" />
<glyph horiz-adv-x="328" d="M 2 730 L 93 730 L 327 0 L 234 0 L 2 730 Z" unicode="\" />
<glyph horiz-adv-x="321" d="M 236 -179 L 38 -179 L 38 -96 L 139 -96 L 139 647 L 38 647 L 38 730 L 236 730 L 236 -179 Z" unicode="]" />
<glyph horiz-adv-x="513" d="M 445 369 L 356 369 L 255 621 L 158 369 L 71 369 L 212 730 L 299 730 L 445 369 Z" unicode="^" />
<glyph horiz-adv-x="500" d="M 500 -165 L 0 -165 L 0 -78 L 500 -78 L 500 -165 Z" unicode="_" />
<glyph horiz-adv-x="500" d="M 356 545 L 253 545 L 130 707 L 250 707 L 356 545 Z" unicode="`" />
<glyph horiz-adv-x="538" d="M 475 0 L 377 0 L 377 64 C 361 43 338 25 310 11 C 281 -2 246 -10 205 -10 C 147 -10 104 4 74 32 C 44 60 30 96 30 141 C 30 194 50 235 92 265 C 133 295 191 312 267 317 L 375 323 L 375 331 C 375 359 365 381 347 396 C 328 410 302 418 268 418 C 236 418 207 412 179 401 C 151 390 128 378 108 366 L 66 438 C 88 454 117 469 153 483 C 189 496 231 503 279 503 C 338 503 385 489 421 461 C 457 433 475 389 475 329 L 475 0 Z M 377 134 L 377 245 L 264 240 C 224 238 193 229 169 214 C 145 199 134 177 134 149 C 134 125 143 106 161 93 C 179 79 202 73 231 73 C 261 73 290 79 317 91 C 344 103 364 118 377 134 Z" unicode="a" />
<glyph horiz-adv-x="606" d="M 348 -7 C 299 -7 260 3 230 24 C 200 45 181 70 171 98 L 171 0 L 73 0 L 73 765 L 170 765 L 170 392 C 178 420 198 445 229 467 C 260 489 300 501 348 501 C 414 501 467 478 508 433 C 549 387 570 328 570 255 C 570 215 564 178 552 146 C 540 113 523 85 503 63 C 483 41 459 23 432 11 C 405 0 377 -7 348 -7 Z M 320 76 C 363 76 398 92 425 124 C 451 156 465 198 465 248 C 465 298 452 338 428 370 C 403 402 367 418 319 418 C 278 418 243 403 214 374 C 185 345 171 302 171 244 C 171 190 185 148 214 119 C 242 90 278 76 320 76 Z" unicode="b" />
<glyph horiz-adv-x="528" d="M 429 160 L 512 109 C 493 79 466 51 431 26 C 396 1 349 -11 289 -11 C 251 -11 217 -4 186 7 C 154 19 127 37 105 59 C 83 81 65 108 53 140 C 41 172 35 206 35 244 C 35 281 41 315 54 347 C 67 379 85 406 108 429 C 131 452 158 470 190 483 C 222 496 256 503 293 503 C 323 503 350 499 374 492 C 398 484 419 475 437 463 C 455 451 470 437 482 422 C 494 407 504 392 511 376 L 419 332 C 408 354 392 372 372 388 C 352 403 325 411 291 411 C 247 411 211 394 183 362 C 155 330 141 291 141 245 C 141 196 154 156 182 126 C 209 95 246 80 292 80 C 330 80 360 88 381 106 C 402 124 418 142 429 160 Z" unicode="c" />
<glyph horiz-adv-x="605" d="M 264 -9 C 230 -9 199 -3 171 9 C 143 21 119 38 99 60 C 79 82 63 108 52 139 C 40 169 35 203 35 241 C 35 279 41 314 54 346 C 66 378 83 405 105 429 C 126 452 151 470 180 483 C 208 496 239 503 271 503 C 309 503 342 493 372 475 C 401 456 421 435 432 411 L 432 765 L 531 765 L 531 0 L 436 0 L 436 100 C 432 88 425 75 415 62 C 405 49 392 37 378 27 C 363 17 346 8 327 1 C 307 -5 286 -9 264 -9 Z M 288 75 C 330 75 365 91 393 123 C 420 155 434 198 434 250 C 434 278 430 303 422 324 C 414 345 403 362 390 376 C 376 390 361 400 343 407 C 325 414 306 418 287 418 C 243 418 207 402 181 371 C 154 339 141 298 141 246 C 141 198 153 157 179 124 C 205 91 241 75 288 75 Z" unicode="d" />
<glyph horiz-adv-x="567" d="M 299 -11 C 261 -11 225 -5 193 6 C 161 17 133 33 110 55 C 87 77 69 103 56 135 C 42 167 36 203 36 243 C 36 279 42 312 55 344 C 67 376 85 403 108 427 C 130 450 157 468 189 482 C 221 496 255 503 293 503 C 367 503 426 477 472 427 C 517 376 540 304 540 212 L 135 212 C 137 174 152 143 180 117 C 208 91 247 78 297 78 C 337 78 369 84 393 97 C 417 110 436 125 450 142 L 514 76 C 491 51 464 30 432 14 C 400 -2 355 -11 299 -11 Z M 136 290 L 438 290 C 436 325 421 355 395 379 C 368 403 333 416 289 416 C 245 416 210 403 182 378 C 154 352 139 323 136 290 Z" unicode="e" />
<glyph horiz-adv-x="340" d="M 327 401 L 208 401 L 208 0 L 106 0 L 106 401 L 14 401 L 14 490 L 106 490 L 106 595 C 106 623 110 648 119 670 C 127 692 139 710 154 725 C 168 739 185 750 204 758 C 223 765 243 769 264 769 C 282 769 299 767 315 764 C 330 760 343 756 353 751 L 338 660 C 331 662 323 665 313 667 C 303 669 292 670 281 670 C 260 670 243 661 229 645 C 215 628 208 607 208 581 L 208 490 L 327 490 L 327 401 Z" unicode="f" />
<glyph horiz-adv-x="602" d="M 263 2 C 229 2 199 8 171 20 C 143 32 119 49 99 71 C 79 92 63 118 52 148 C 41 178 36 212 36 248 C 36 285 41 319 53 351 C 64 382 80 409 100 431 C 120 453 145 471 173 483 C 201 495 232 502 266 502 C 307 502 343 492 374 473 C 404 454 425 431 436 405 L 436 490 L 531 490 L 531 55 C 531 11 523 -25 508 -57 C 493 -89 473 -115 449 -135 C 425 -155 397 -171 365 -181 C 333 -191 301 -196 268 -196 C 214 -196 171 -190 141 -180 C 110 -170 87 -160 73 -150 L 115 -67 C 127 -75 145 -85 170 -96 C 194 -106 224 -112 259 -112 C 282 -112 304 -108 325 -102 C 346 -96 364 -86 380 -74 C 396 -61 408 -45 418 -25 C 427 -5 432 16 432 42 L 432 109 C 427 96 419 83 409 71 C 399 58 386 46 372 36 C 358 26 341 17 323 11 C 304 5 284 2 263 2 Z M 290 82 C 308 82 326 85 344 93 C 361 101 376 112 390 126 C 403 140 414 158 422 180 C 430 201 434 225 434 253 C 434 301 420 340 392 370 C 364 400 329 415 286 415 C 244 415 209 399 182 369 C 154 338 141 297 141 245 C 141 194 154 154 181 125 C 207 96 244 82 290 82 Z" unicode="g" />
<glyph horiz-adv-x="587" d="M 520 0 L 418 0 L 418 322 C 418 351 407 374 387 391 C 367 408 340 417 308 417 C 292 417 276 414 260 409 C 244 404 229 397 217 387 C 205 377 195 364 187 349 C 179 334 176 317 176 297 L 176 0 L 73 0 L 73 765 L 168 765 L 168 399 C 176 427 196 452 228 472 C 260 492 299 503 345 503 C 393 503 435 489 469 461 C 503 433 520 395 520 346 L 520 0 Z" unicode="h" />
<glyph horiz-adv-x="258" d="M 75 594 L 75 703 L 182 703 L 182 594 L 75 594 Z M 77 0 L 77 490 L 180 490 L 180 0 L 77 0 Z" unicode="i" />
<glyph horiz-adv-x="276" d="M 208 594 L 102 594 L 102 703 L 208 703 L 208 594 Z M 206 490 L 206 -32 C 206 -84 191 -125 163 -156 C 135 -186 99 -202 55 -202 C 37 -202 18 -200 -1 -196 C -21 -192 -37 -187 -50 -181 L -33 -98 C -25 -102 -14 -105 -2 -108 C 9 -110 23 -112 38 -112 C 56 -112 72 -103 85 -87 C 97 -71 104 -49 104 -22 L 104 490 L 206 490 Z" unicode="j" />
<glyph horiz-adv-x="541" d="M 561 1 L 441 0 L 265 218 L 175 124 L 175 0 L 73 0 L 73 765 L 173 765 L 173 234 L 403 490 L 518 490 L 332 288 L 561 1 Z" unicode="k" />
<glyph horiz-adv-x="250" d="M 176 765 L 176 0 L 74 0 L 74 765 L 176 765 Z" unicode="l" />
<glyph horiz-adv-x="924" d="M 73 0 L 73 490 L 168 490 L 168 399 C 178 429 200 453 233 473 C 266 493 304 503 346 503 C 384 503 417 493 447 475 C 476 457 494 431 501 399 L 505 399 C 514 429 535 454 568 474 C 601 493 638 503 679 503 C 731 503 773 488 807 460 C 840 432 857 394 857 346 L 857 0 L 755 0 L 755 321 C 755 352 745 376 725 392 C 705 408 678 417 646 417 C 630 417 615 414 600 409 C 584 404 570 397 558 387 C 546 377 536 364 528 349 C 520 333 516 316 516 296 L 516 0 L 414 0 L 414 324 C 414 352 404 374 384 391 C 364 408 337 417 305 417 C 271 417 241 406 215 385 C 188 363 175 333 175 294 L 175 0 L 73 0 Z" unicode="m" />
<glyph horiz-adv-x="587" d="M 520 0 L 418 0 L 418 324 C 418 352 407 375 387 392 C 366 408 340 417 309 417 C 293 417 277 414 261 409 C 245 404 230 397 218 387 C 205 377 195 364 187 348 C 179 332 176 314 176 294 L 176 0 L 73 0 L 73 490 L 167 490 L 167 397 C 178 427 200 453 232 473 C 264 493 302 503 344 503 C 394 503 435 488 469 460 C 503 432 520 395 520 349 L 520 0 Z" unicode="n" />
<glyph horiz-adv-x="593" d="M 292 -11 C 259 -11 227 -5 196 6 C 165 18 138 34 114 56 C 90 77 71 103 57 135 C 42 167 35 203 35 243 C 35 279 42 313 56 345 C 70 377 88 404 112 428 C 135 451 162 469 194 483 C 225 496 258 503 292 503 C 328 503 362 497 394 485 C 426 473 455 457 479 436 C 503 414 522 388 536 358 C 550 328 557 294 557 257 C 557 217 550 181 536 148 C 522 115 503 87 479 64 C 455 40 426 22 394 9 C 362 -4 328 -11 292 -11 Z M 297 79 C 342 79 379 95 408 127 C 437 159 452 201 452 252 C 452 297 437 335 408 366 C 378 396 339 412 289 412 C 246 412 211 396 183 365 C 155 334 141 294 141 244 C 141 192 156 151 186 122 C 216 93 253 79 297 79 Z" unicode="o" />
<glyph horiz-adv-x="606" d="M 73 -197 L 73 490 L 168 490 L 168 387 C 178 417 198 444 230 467 C 262 489 301 501 349 501 C 414 501 467 478 509 433 C 550 388 571 328 571 253 C 571 213 564 176 552 144 C 540 112 523 85 503 63 C 482 41 458 24 432 12 C 405 0 377 -6 349 -6 C 305 -6 267 3 236 23 C 205 43 185 66 175 93 L 175 -197 L 73 -197 Z M 324 77 C 364 77 397 92 424 123 C 451 154 465 196 465 248 C 465 296 452 336 428 369 C 403 401 367 418 321 418 C 279 418 243 403 215 374 C 186 344 172 301 172 243 C 172 185 186 142 216 116 C 246 90 282 77 324 77 Z" unicode="p" />
<glyph horiz-adv-x="604" d="M 429 -197 L 429 95 C 417 70 397 46 369 24 C 340 2 304 -9 261 -9 C 227 -9 197 -2 169 9 C 141 21 118 38 98 60 C 78 82 63 108 52 138 C 41 168 36 202 36 238 C 36 277 42 313 55 345 C 67 377 84 405 105 428 C 126 451 151 469 180 482 C 208 494 238 501 270 501 C 312 501 347 490 377 468 C 407 446 426 424 435 401 L 435 490 L 531 490 L 531 -197 L 429 -197 Z M 288 75 C 328 75 362 90 391 122 C 419 153 434 196 434 250 C 434 306 419 347 390 375 C 361 403 327 417 287 417 C 241 417 205 401 179 370 C 153 339 141 298 141 248 C 141 197 154 155 180 123 C 206 91 242 75 288 75 Z" unicode="q" />
<glyph horiz-adv-x="435" d="M 436 472 L 389 382 C 376 392 362 400 347 405 C 331 410 315 413 299 413 C 283 413 268 409 254 403 C 239 397 226 388 214 377 C 202 366 193 353 186 337 C 179 321 176 303 176 285 L 176 0 L 73 0 L 73 490 L 169 490 L 169 393 C 172 405 178 418 188 431 C 197 444 209 456 223 466 C 237 476 254 485 273 492 C 291 498 312 502 334 502 C 356 502 376 499 394 493 C 411 487 425 480 436 472 Z" unicode="r" />
<glyph horiz-adv-x="451" d="M 242 -11 C 195 -11 154 -5 120 6 C 85 17 56 32 33 52 L 81 122 C 101 107 125 95 153 86 C 181 77 210 73 239 73 C 263 73 282 78 297 90 C 311 101 319 116 319 134 C 319 150 310 164 293 176 C 276 188 246 200 203 212 C 149 226 110 246 86 271 C 61 295 49 326 49 364 C 49 405 66 438 100 464 C 134 489 177 502 228 502 C 271 502 307 496 337 484 C 367 472 390 460 406 448 L 363 376 C 345 387 326 397 304 406 C 282 415 258 420 232 420 C 210 420 191 415 174 407 C 157 398 149 386 149 370 C 149 362 150 356 152 350 C 154 344 159 338 167 333 C 174 327 185 322 199 316 C 213 310 231 304 255 298 C 309 282 349 262 377 238 C 405 214 419 182 419 141 C 419 94 402 57 368 30 C 334 2 292 -11 242 -11 Z" unicode="s" />
<glyph horiz-adv-x="328" d="M 307 95 L 316 11 C 308 5 297 1 281 -1 C 265 -4 248 -6 231 -6 C 211 -6 192 -3 174 1 C 156 6 140 14 126 26 C 112 37 101 52 93 70 C 85 88 81 111 81 138 L 81 402 L 11 402 L 11 490 L 81 490 L 81 612 L 183 624 L 183 490 L 301 490 L 301 402 L 183 402 L 183 151 C 183 127 188 109 200 98 C 211 87 227 82 249 82 C 260 82 271 83 283 87 C 294 90 302 93 307 95 Z" unicode="t" />
<glyph horiz-adv-x="587" d="M 67 490 L 169 490 L 169 181 C 169 144 179 117 201 100 C 223 82 251 74 285 74 C 319 74 349 84 374 105 C 398 126 411 156 411 194 L 411 490 L 513 490 L 513 0 L 417 0 L 417 92 C 405 64 384 39 354 19 C 324 0 287 -11 244 -11 C 219 -11 196 -7 175 0 C 153 6 135 17 119 31 C 103 45 90 62 81 83 C 71 103 67 127 67 155 L 67 490 Z" unicode="u" />
<glyph horiz-adv-x="514" d="M 519 490 L 284 -3 L 224 -3 L -6 490 L 107 490 L 259 150 L 412 490 L 519 490 Z" unicode="v" />
<glyph horiz-adv-x="726" d="M 487 -3 L 368 300 L 238 -3 L 179 -3 L 4 490 L 112 490 L 223 153 L 342 444 L 402 444 L 513 155 L 624 490 L 722 490 L 546 -3 L 487 -3 Z" unicode="w" />
<glyph horiz-adv-x="465" d="M 350 0 L 230 177 L 106 0 L 2 0 L 179 252 L 17 490 L 130 490 L 236 334 L 345 490 L 449 490 L 287 258 L 462 0 L 350 0 Z" unicode="x" />
<glyph horiz-adv-x="520" d="M 522 490 L 249 -82 C 226 -129 199 -160 168 -176 C 136 -192 107 -200 80 -200 C 64 -200 50 -198 38 -195 C 26 -191 18 -189 13 -187 L 43 -94 C 46 -96 52 -98 60 -100 C 68 -102 76 -104 85 -104 C 101 -104 115 -99 129 -89 C 142 -79 155 -60 169 -34 L 206 40 L -4 490 L 107 490 L 260 147 L 416 490 L 522 490 Z" unicode="y" />
<glyph horiz-adv-x="440" d="M 416 490 L 416 443 L 167 90 L 430 90 L 430 0 L 15 0 L 15 37 L 269 400 L 27 400 L 27 490 L 416 490 Z" unicode="z" />
<glyph horiz-adv-x="306" d="M 287 -179 C 219 -178 163 -163 121 -133 C 78 -103 56 -66 56 -24 C 56 2 58 25 64 47 C 70 68 76 86 84 102 C 90 118 97 133 104 147 C 111 161 115 175 115 188 C 115 202 106 215 88 228 C 70 241 46 248 16 248 L 16 323 C 46 323 71 330 89 344 C 107 358 117 373 118 391 C 118 393 114 403 107 419 C 100 435 92 452 84 471 C 75 489 68 508 64 526 C 59 544 57 562 57 579 C 57 600 62 621 74 641 C 85 661 101 679 121 695 C 141 711 165 724 193 734 C 221 744 253 749 287 749 L 287 675 C 249 674 218 664 196 644 C 173 624 162 600 162 572 C 162 563 163 552 165 539 C 167 525 171 512 178 498 C 188 477 198 458 206 441 C 214 424 218 410 218 399 C 218 373 209 349 193 329 C 176 308 149 293 112 285 C 150 276 177 261 193 240 C 209 219 218 198 218 176 C 218 157 214 141 207 127 C 199 113 192 99 184 85 C 176 71 171 56 167 40 C 163 24 161 10 161 -2 C 161 -13 163 -25 169 -37 C 175 -49 183 -60 194 -70 C 204 -80 217 -88 233 -95 C 249 -101 267 -105 287 -105 L 287 -179 Z" unicode="{" />
<glyph horiz-adv-x="261" d="M 178 -179 L 83 -179 L 83 730 L 178 730 L 178 -179 Z" unicode="|" />
<glyph horiz-adv-x="306" d="M 19 -179 L 19 -105 C 39 -105 56 -101 72 -95 C 88 -88 101 -80 112 -70 C 123 -60 131 -49 137 -37 C 143 -25 146 -13 146 -2 C 146 10 144 24 140 40 C 136 56 130 71 122 85 C 114 99 107 113 99 127 C 91 141 88 157 88 176 C 88 198 96 219 113 240 C 129 261 157 276 195 285 C 157 293 129 308 113 329 C 96 349 88 373 88 399 C 88 410 92 424 100 441 C 108 458 117 477 128 498 C 134 512 139 525 141 539 C 143 552 145 563 145 572 C 144 600 132 624 110 644 C 87 664 57 674 19 675 L 19 749 C 53 749 84 744 113 734 C 141 724 166 711 186 695 C 206 679 221 661 232 641 C 243 621 249 600 249 579 C 249 562 246 544 242 526 C 238 508 231 489 223 471 C 214 452 206 435 199 419 C 192 403 189 393 189 391 C 189 373 198 358 216 344 C 234 330 259 323 290 323 L 290 248 C 259 248 235 241 218 228 C 200 215 192 202 192 188 C 191 175 194 161 201 147 C 208 133 215 118 223 102 C 229 86 235 68 241 47 C 247 25 250 2 250 -24 C 249 -66 227 -103 185 -133 C 142 -163 87 -178 19 -179 Z" unicode="}" />
<glyph horiz-adv-x="500" d="M 382 442 L 470 442 C 470 380 460 335 442 306 C 423 277 395 263 358 263 C 334 263 313 267 296 276 C 278 284 263 294 251 304 C 237 314 224 322 210 330 C 196 338 182 342 168 342 C 154 342 143 335 133 322 C 123 309 118 290 118 266 L 31 266 C 31 328 40 373 60 403 C 80 432 103 447 131 447 C 158 447 182 442 202 434 C 222 426 241 415 259 403 C 271 393 284 384 298 376 C 311 368 326 364 343 364 C 360 364 371 370 375 384 C 379 397 382 416 382 442 Z" unicode="~" />
<glyph horiz-adv-x="310" d="M 100 591 L 211 591 L 211 475 L 100 475 L 100 591 Z M 94 156 L 130 376 L 183 376 L 216 156 L 216 -129 L 94 -129 L 94 156 Z" unicode="¡" />
<glyph horiz-adv-x="577" d="M 560 205 C 541 177 516 151 484 126 C 452 100 409 85 355 81 L 355 -30 L 272 -30 L 272 83 C 206 93 152 121 110 169 C 68 217 47 277 47 351 C 47 422 68 483 110 533 C 152 583 206 614 272 625 L 272 730 L 355 730 L 355 629 C 408 624 452 608 486 581 C 520 553 545 523 559 491 L 475 453 C 463 473 447 492 427 509 C 407 525 383 536 355 541 L 355 168 C 389 172 416 184 436 202 C 456 220 473 239 485 258 L 560 205 Z M 148 355 C 148 309 159 269 181 237 C 203 205 234 183 272 173 L 272 537 C 234 526 203 504 181 470 C 159 436 148 398 148 355 Z" unicode="¢" />
<glyph horiz-adv-x="600" d="M 588 85 L 588 0 L 24 0 L 24 61 C 30 64 39 67 53 70 C 67 73 85 77 109 82 C 137 86 162 98 186 116 C 209 134 221 158 221 189 C 221 192 220 196 220 200 C 219 204 218 207 218 211 L 40 211 L 40 285 L 182 285 C 175 295 167 307 159 319 C 151 331 143 344 136 357 L 40 357 L 40 430 L 99 430 C 92 447 86 465 82 485 C 78 504 76 524 76 545 C 76 581 83 612 97 638 C 111 663 129 683 153 699 C 176 714 203 725 234 732 C 265 738 297 742 331 742 C 387 742 438 733 485 715 C 531 697 565 679 586 663 L 530 581 C 511 593 484 607 449 623 C 413 639 375 647 334 647 C 315 647 297 645 279 641 C 261 637 245 630 231 621 C 217 611 205 599 197 583 C 189 567 185 548 185 526 C 185 509 187 493 192 477 C 197 461 204 445 212 430 L 506 430 L 506 357 L 255 357 C 262 344 269 332 277 320 C 285 308 291 296 297 285 L 506 285 L 506 211 L 313 211 C 310 173 297 144 275 124 C 253 103 231 90 210 85 L 588 85 Z" unicode="£" />
<glyph horiz-adv-x="502" d="M 442 194 L 396 148 L 340 207 C 327 199 313 193 298 189 C 282 185 266 183 250 183 C 233 183 217 185 202 189 C 186 193 172 199 160 207 L 104 148 L 56 196 L 108 251 C 96 265 87 280 81 298 C 75 316 72 334 72 354 C 72 373 75 391 82 409 C 88 427 97 443 109 458 L 56 513 L 102 559 L 158 501 C 171 508 185 514 201 518 C 217 522 233 525 250 525 C 266 525 283 522 299 518 C 315 514 329 508 342 500 L 400 560 L 446 513 L 392 456 C 402 442 411 426 417 408 C 423 390 427 372 427 354 C 427 334 423 315 417 297 C 410 279 401 263 390 249 L 442 194 Z M 250 257 C 277 257 301 266 321 286 C 341 306 352 328 352 354 C 352 380 341 402 321 422 C 301 441 277 451 250 451 C 221 451 197 441 177 422 C 157 402 148 380 148 354 C 148 328 157 306 177 286 C 197 266 221 257 250 257 Z" unicode="¤" />
<glyph horiz-adv-x="665" d="M 574 124 L 383 124 L 383 0 L 273 0 L 273 124 L 86 124 L 86 200 L 273 200 L 273 257 L 86 257 L 86 333 L 271 333 L 31 730 L 153 730 L 333 424 L 514 730 L 630 730 L 387 333 L 574 333 L 574 257 L 383 257 L 383 200 L 574 200 L 574 124 Z" unicode="¥" />
<glyph horiz-adv-x="282" d="M 97 351 L 97 730 L 185 730 L 185 351 L 97 351 Z M 185 200 L 185 -179 L 97 -179 L 97 200 L 185 200 Z" unicode="¦" />
<glyph horiz-adv-x="676" d="M 356 -181 C 297 -181 242 -174 192 -161 C 141 -147 99 -129 65 -107 L 109 -22 C 141 -43 180 -61 225 -75 C 270 -89 312 -97 351 -97 C 386 -97 415 -89 438 -73 C 461 -57 473 -34 473 -6 C 473 20 463 40 443 54 C 423 68 396 81 364 94 L 244 143 C 212 155 185 167 161 178 C 137 189 116 201 100 214 C 84 227 71 242 63 260 C 55 277 51 298 51 323 C 51 353 58 379 74 399 C 90 419 109 437 132 451 C 112 463 98 479 89 499 C 80 519 76 543 76 573 C 76 599 82 623 95 644 C 107 665 125 683 147 697 C 169 711 196 722 227 730 C 257 738 291 742 327 742 C 390 742 442 733 482 717 C 522 700 556 682 584 664 L 539 586 C 508 605 476 622 442 638 C 408 653 368 661 324 661 C 284 661 250 653 224 637 C 197 621 184 600 184 573 C 184 553 191 537 206 524 C 220 510 242 498 272 488 L 433 427 C 495 405 542 381 575 357 C 607 332 624 296 624 250 C 624 213 612 184 588 162 C 564 140 536 126 506 119 C 521 110 538 95 556 75 C 574 54 583 27 583 -7 C 583 -34 577 -58 565 -80 C 553 -102 538 -120 518 -135 C 498 -149 474 -161 446 -169 C 418 -177 388 -181 356 -181 Z M 432 171 C 453 173 473 179 491 190 C 509 201 518 218 518 241 C 518 263 507 281 486 297 C 464 313 427 330 373 349 L 222 408 C 203 400 187 390 175 379 C 162 368 156 352 156 332 C 156 307 167 287 189 272 C 211 256 249 239 303 221 L 432 171 Z" unicode="§" />
<glyph horiz-adv-x="500" d="M 387 546 L 301 546 L 301 704 L 387 704 L 387 546 Z M 199 546 L 113 546 L 113 704 L 199 704 L 199 546 Z" unicode="¨" />
<glyph horiz-adv-x="841" d="M 420 -3 C 369 -3 321 6 275 26 C 229 46 190 72 157 106 C 123 139 97 178 77 224 C 57 270 48 318 48 369 C 48 420 57 468 77 514 C 97 559 123 598 157 632 C 190 666 229 692 275 712 C 321 732 369 742 420 742 C 471 742 519 732 565 712 C 611 692 650 666 684 632 C 718 598 744 559 764 514 C 784 468 794 420 794 369 C 794 318 784 270 764 224 C 744 178 718 139 684 106 C 650 72 611 46 565 26 C 519 6 471 -3 420 -3 Z M 421 63 C 463 63 502 71 539 87 C 576 103 608 124 635 152 C 662 180 684 212 700 249 C 716 286 724 326 724 368 C 724 410 716 449 700 487 C 684 524 662 556 635 584 C 608 612 576 634 539 650 C 502 666 463 675 421 675 C 379 675 339 666 302 650 C 264 634 232 612 205 584 C 177 556 156 524 140 487 C 124 449 116 410 116 368 C 116 326 124 286 140 249 C 156 212 177 180 205 152 C 232 124 264 103 302 87 C 339 71 379 63 421 63 Z M 593 242 C 577 217 554 196 526 179 C 497 162 462 154 420 154 C 394 154 368 158 344 168 C 319 177 297 191 279 209 C 260 227 245 249 234 276 C 222 303 217 334 217 370 C 217 404 222 435 232 463 C 242 491 257 514 275 534 C 293 553 314 568 338 578 C 362 588 388 594 416 594 C 460 594 496 586 524 571 C 552 556 573 537 589 513 L 516 460 C 506 474 493 485 478 495 C 463 504 443 509 419 509 C 387 509 360 495 340 468 C 319 441 309 407 309 367 C 309 325 320 292 343 268 C 366 244 392 233 421 233 C 443 233 463 238 480 248 C 497 258 511 272 522 288 L 593 242 Z" unicode="©" />
<glyph horiz-adv-x="475" d="M 426 309 L 344 309 L 344 366 C 328 345 306 329 278 319 C 250 308 219 303 187 303 C 141 303 104 314 78 338 C 51 362 38 394 38 436 C 38 482 56 517 93 541 C 130 565 181 580 246 584 L 341 590 L 341 594 C 341 613 332 629 315 641 C 298 653 274 659 243 659 C 216 659 190 654 165 645 C 140 636 117 625 97 613 L 65 685 C 87 701 115 715 147 726 C 179 737 216 743 257 743 C 309 743 350 731 380 707 C 410 683 426 645 426 593 L 426 309 Z M 341 434 L 341 520 L 239 514 C 206 512 179 507 159 497 C 139 487 129 470 129 445 C 129 425 137 409 154 398 C 170 386 192 381 219 381 C 243 381 266 385 288 395 C 310 404 328 417 341 434 Z M 440 174 L 44 174 L 44 259 L 440 259 L 440 174 Z" unicode="ª" />
<glyph horiz-adv-x="466" d="M 213 81 L 27 257 L 27 327 L 213 500 L 213 393 L 115 291 L 213 192 L 213 81 Z M 436 81 L 249 257 L 249 327 L 436 500 L 436 393 L 338 291 L 436 193 L 436 81 Z" unicode="«" />
<glyph horiz-adv-x="500" d="M 452 392 L 452 130 L 366 130 L 366 303 L 30 303 L 30 392 L 452 392 Z" unicode="¬" />
<glyph horiz-adv-x="841" d="M 420 -3 C 369 -3 321 6 275 26 C 229 46 190 72 157 106 C 123 139 97 178 77 224 C 57 270 48 318 48 369 C 48 420 57 468 77 514 C 97 559 123 598 157 632 C 190 666 229 692 275 712 C 321 732 369 742 420 742 C 471 742 519 732 565 712 C 611 692 650 666 684 632 C 718 598 744 559 764 514 C 784 468 794 420 794 369 C 794 318 784 270 764 224 C 744 178 718 139 684 106 C 650 72 611 46 565 26 C 519 6 471 -3 420 -3 Z M 420 63 C 462 63 501 71 538 87 C 575 103 607 124 635 152 C 662 179 684 211 700 249 C 716 286 724 326 724 369 C 724 411 716 451 700 489 C 684 526 662 558 635 586 C 607 613 575 635 538 651 C 501 667 462 675 420 675 C 378 675 339 667 302 651 C 265 635 233 613 205 585 C 177 557 156 525 140 488 C 124 450 116 411 116 369 C 116 327 124 287 140 249 C 156 211 177 179 205 152 C 233 124 265 103 302 87 C 339 71 378 63 420 63 Z M 277 162 L 277 596 L 441 596 C 459 596 476 593 494 589 C 511 584 526 577 540 567 C 554 557 565 545 573 530 C 581 514 586 496 586 475 C 586 437 576 408 556 388 C 536 368 515 357 493 354 L 492 350 L 624 162 L 529 162 L 418 330 L 361 330 L 361 162 L 277 162 Z M 360 401 L 444 401 C 461 401 476 406 488 418 C 500 429 506 445 506 466 C 506 486 499 501 486 510 C 472 519 455 524 435 524 L 360 524 L 360 401 Z" unicode="®" />
<glyph horiz-adv-x="500" d="M 384 561 L 116 561 L 116 643 L 384 643 L 384 561 Z" unicode="¯" />
<glyph horiz-adv-x="436" d="M 218 366 C 192 366 167 371 144 381 C 121 391 101 404 85 421 C 68 437 55 457 45 480 C 35 503 30 528 30 554 C 30 580 35 604 45 627 C 55 650 68 670 85 687 C 101 703 121 717 144 727 C 167 737 192 742 218 742 C 244 742 268 737 291 727 C 314 717 334 703 351 687 C 367 670 381 650 391 627 C 401 604 406 580 406 554 C 406 528 401 503 391 480 C 381 457 367 437 351 421 C 334 404 314 391 291 381 C 268 371 244 366 218 366 Z M 218 448 C 246 448 271 458 293 479 C 315 500 326 525 326 554 C 326 582 315 607 293 629 C 271 650 246 661 218 661 C 189 661 164 650 142 629 C 120 607 110 582 110 554 C 110 525 120 500 142 479 C 164 458 189 448 218 448 Z" unicode="°" />
<glyph horiz-adv-x="500" d="M 476 292 L 294 292 L 294 111 L 207 111 L 207 292 L 24 292 L 24 370 L 207 370 L 207 551 L 294 551 L 294 370 L 476 370 L 476 292 Z M 471 23 L 31 23 L 31 98 L 471 98 L 471 23 Z" unicode="±" />
<glyph horiz-adv-x="333" d="M 305 372 L 23 372 L 23 405 L 178 563 C 183 569 188 576 194 585 C 200 594 203 605 203 618 C 203 630 198 641 190 651 C 182 661 169 666 152 666 C 131 666 117 659 109 647 C 101 635 96 620 96 604 L 18 604 C 18 642 30 674 55 701 C 80 727 115 741 161 741 C 205 741 238 730 260 710 C 282 690 293 665 293 637 C 293 610 288 588 279 570 C 270 552 260 538 250 528 L 167 445 L 305 445 L 305 372 Z" unicode="²" />
<glyph horiz-adv-x="346" d="M 227 569 C 254 564 275 553 291 537 C 307 520 315 500 315 477 C 315 465 312 452 308 439 C 303 425 295 413 283 402 C 271 391 255 382 235 375 C 215 367 191 364 161 364 C 119 364 86 369 63 379 C 39 389 21 399 9 409 L 57 459 C 67 452 81 446 97 440 C 113 434 133 432 156 432 C 185 432 205 437 217 448 C 229 459 235 473 235 490 C 235 507 227 518 212 524 C 197 529 179 532 159 532 L 86 532 L 86 595 L 153 595 C 172 595 188 598 200 605 C 212 611 218 621 218 634 C 218 646 212 655 202 661 C 192 667 176 671 156 671 C 138 671 121 667 105 660 C 89 653 76 645 68 637 L 20 685 C 33 699 51 712 73 724 C 95 736 127 742 168 742 C 208 742 240 733 264 717 C 288 700 300 678 300 651 C 300 629 292 611 278 597 C 263 583 246 573 227 569 Z" unicode="³" />
<glyph horiz-adv-x="500" d="M 146 550 L 250 712 L 371 712 L 248 550 L 146 550 Z" unicode="´" />
<glyph horiz-adv-x="588" d="M 73 -151 L 73 490 L 173 490 L 173 168 C 173 140 183 117 204 99 C 225 81 252 73 285 73 C 317 73 346 84 372 106 C 398 128 411 159 411 199 L 411 490 L 511 490 L 511 0 L 419 0 L 419 92 C 407 65 387 42 358 24 C 329 5 298 -5 264 -7 C 242 -7 222 -2 204 6 C 186 14 173 27 165 43 L 165 -151 L 73 -151 Z" unicode="µ" />
<glyph horiz-adv-x="693" d="M 620 -179 L 551 -179 L 551 650 L 443 650 L 443 -179 L 374 -179 L 374 247 L 265 247 C 234 247 204 253 175 266 C 146 279 121 296 99 318 C 77 339 59 364 46 393 C 32 422 26 453 26 485 C 26 519 32 552 45 582 C 57 612 75 637 97 659 C 119 681 147 698 179 711 C 211 723 246 730 285 730 L 620 730 L 620 -179 Z M 375 331 L 375 646 L 313 646 C 267 646 233 631 211 601 C 189 571 178 533 178 488 C 178 466 180 446 186 427 C 192 408 200 391 211 377 C 222 363 235 351 251 343 C 267 335 284 331 304 331 L 375 331 Z" unicode="¶" />
<glyph horiz-adv-x="261" d="M 182 273 L 80 273 L 80 411 L 182 411 L 182 273 Z" unicode="·" />
<glyph horiz-adv-x="500" d="M 257 -189 C 232 -189 207 -186 181 -180 C 155 -174 136 -166 122 -157 L 135 -112 C 144 -116 156 -121 172 -127 C 188 -132 205 -135 223 -135 C 237 -135 249 -131 260 -125 C 270 -119 276 -111 276 -101 C 276 -89 271 -80 262 -76 C 252 -71 242 -69 232 -69 C 224 -69 217 -69 212 -70 C 206 -71 200 -73 194 -75 L 179 -60 L 241 13 L 303 13 L 253 -49 C 287 -42 315 -45 339 -58 C 362 -70 374 -89 374 -114 C 374 -139 362 -158 338 -170 C 314 -182 287 -189 257 -189 Z" unicode="¸" />
<glyph horiz-adv-x="323" d="M 136 372 L 136 631 C 128 620 115 611 95 603 C 75 595 59 590 47 588 L 47 678 C 71 680 93 687 111 697 C 129 707 148 722 168 740 L 230 740 L 230 372 L 136 372 Z" unicode="¹" />
<glyph horiz-adv-x="491" d="M 242 301 C 214 301 188 305 162 315 C 136 325 113 339 93 358 C 73 376 58 399 46 426 C 34 453 29 484 29 519 C 29 549 34 578 46 605 C 58 631 73 655 93 675 C 112 695 135 710 161 722 C 187 734 215 740 244 740 C 274 740 303 735 329 725 C 355 715 378 701 398 683 C 418 665 433 642 445 616 C 456 590 462 561 462 529 C 462 495 456 465 444 437 C 432 409 417 385 397 365 C 377 345 354 329 327 318 C 300 306 272 301 242 301 Z M 242 386 C 280 386 310 399 334 425 C 358 451 370 486 370 528 C 370 566 359 597 337 622 C 315 647 284 660 245 660 C 208 660 178 646 155 620 C 132 594 121 560 121 518 C 121 478 132 446 155 422 C 178 398 207 386 242 386 Z M 47 174 L 47 259 L 442 259 L 442 174 L 47 174 Z" unicode="º" />
<glyph horiz-adv-x="469" d="M 30 500 L 217 324 L 217 254 L 30 81 L 30 188 L 128 290 L 30 388 L 30 500 Z M 255 500 L 441 324 L 441 254 L 255 81 L 255 188 L 353 290 L 255 389 L 255 500 Z" unicode="»" />
<glyph horiz-adv-x="691" d="M 6 0 L 6 0 Z M 95 372 L 95 631 C 87 620 74 611 54 603 C 34 595 18 590 6 588 L 6 678 C 30 680 52 687 70 697 C 88 707 107 722 127 740 L 189 740 L 189 372 L 95 372 Z M 573 730 L 212 0 L 124 0 L 485 730 L 573 730 Z M 383 81 L 383 142 L 567 365 L 625 365 L 625 146 L 685 146 L 685 81 L 625 81 L 625 1 L 542 1 L 542 81 L 383 81 Z M 451 134 L 544 134 L 544 248 L 451 134 Z" unicode="¼" />
<glyph horiz-adv-x="753" d="M 6 0 L 6 0 Z M 95 372 L 95 631 C 87 620 74 611 54 603 C 34 595 18 590 6 588 L 6 678 C 30 680 52 687 70 697 C 88 707 107 722 127 740 L 189 740 L 189 372 L 95 372 Z M 573 730 L 212 0 L 124 0 L 485 730 L 573 730 Z M 734 0 L 452 0 L 452 33 L 607 191 C 612 197 617 204 623 213 C 629 222 632 233 632 246 C 632 258 627 269 619 279 C 611 289 598 294 581 294 C 560 294 546 287 538 275 C 530 263 525 248 525 232 L 447 232 C 447 270 459 302 484 329 C 509 355 544 369 590 369 C 634 369 667 358 689 338 C 711 318 722 293 722 265 C 722 238 717 216 708 198 C 699 180 689 166 679 156 L 596 73 L 734 73 L 734 0 Z" unicode="½" />
<glyph horiz-adv-x="750" d="M 7 0 L 7 0 Z M 632 730 L 271 0 L 183 0 L 544 730 L 632 730 Z M 442 81 L 442 142 L 626 365 L 684 365 L 684 146 L 744 146 L 744 81 L 684 81 L 684 1 L 601 1 L 601 81 L 442 81 Z M 510 134 L 603 134 L 603 248 L 510 134 Z M 225 569 C 252 564 273 553 289 537 C 305 520 313 500 313 477 C 313 465 310 452 306 439 C 301 425 293 413 281 402 C 269 391 253 382 233 375 C 213 367 189 364 159 364 C 117 364 84 369 61 379 C 37 389 19 399 7 409 L 55 459 C 65 452 79 446 95 440 C 111 434 131 432 154 432 C 183 432 203 437 215 448 C 227 459 233 473 233 490 C 233 507 225 518 210 524 C 195 529 177 532 157 532 L 84 532 L 84 595 L 151 595 C 170 595 186 598 198 605 C 210 611 216 621 216 634 C 216 646 210 655 200 661 C 190 667 174 671 154 671 C 136 671 119 667 103 660 C 87 653 74 645 66 637 L 18 685 C 31 699 49 712 71 724 C 93 736 125 742 166 742 C 206 742 238 733 262 717 C 286 700 298 678 298 651 C 298 629 290 611 276 597 C 261 583 244 573 225 569 Z" unicode="¾" />
<glyph horiz-adv-x="478" d="M 203 473 L 203 591 L 318 591 L 318 473 L 203 473 Z M 243 -143 C 211 -143 182 -139 154 -131 C 126 -123 103 -111 83 -96 C 63 -81 47 -63 35 -41 C 23 -19 18 6 18 34 C 18 60 22 84 30 104 C 38 124 49 141 61 156 C 73 171 87 184 102 196 C 116 207 130 217 143 226 C 171 246 190 271 198 299 C 206 327 210 356 211 386 L 314 386 C 314 336 308 298 298 270 C 288 242 266 215 233 191 C 206 171 181 151 159 131 C 137 110 126 82 126 48 C 126 16 138 -8 162 -26 C 186 -44 217 -53 253 -53 C 285 -53 314 -45 340 -31 C 366 -17 386 0 402 20 L 470 -44 C 449 -70 419 -93 381 -113 C 343 -133 297 -143 243 -143 Z" unicode="¿" />
<glyph horiz-adv-x="661" d="M 1 0 L 1 0 Z M 660 0 L 544 0 L 471 181 L 181 181 L 111 0 L 1 0 L 299 733 L 367 733 L 660 0 Z M 441 270 L 326 560 L 212 270 L 441 270 Z M 328 785 L 328 785 Z M 441 785 L 338 785 L 215 947 L 335 947 L 441 785 Z" unicode="À" />
<glyph horiz-adv-x="661" d="M 1 0 L 1 0 Z M 660 0 L 544 0 L 471 181 L 181 181 L 111 0 L 1 0 L 299 733 L 367 733 L 660 0 Z M 441 270 L 326 560 L 212 270 L 441 270 Z M 328 790 L 328 790 Z M 216 790 L 320 952 L 441 952 L 318 790 L 216 790 Z" unicode="Á" />
<glyph horiz-adv-x="661" d="M 1 0 L 1 0 Z M 660 0 L 544 0 L 471 181 L 181 181 L 111 0 L 1 0 L 299 733 L 367 733 L 660 0 Z M 441 270 L 326 560 L 212 270 L 441 270 Z M 328 786 L 328 786 Z M 504 786 L 409 786 L 328 891 L 246 786 L 153 786 L 276 958 L 381 958 L 504 786 Z" unicode="Â" />
<glyph horiz-adv-x="661" d="M 1 0 L 1 0 Z M 660 0 L 544 0 L 471 181 L 181 181 L 111 0 L 1 0 L 299 733 L 367 733 L 660 0 Z M 441 270 L 326 560 L 212 270 L 441 270 Z M 328 791 L 328 791 Z M 420 932 L 498 932 C 498 884 491 848 477 825 C 463 802 443 791 419 791 C 400 791 384 794 370 802 C 356 809 343 816 333 823 C 322 829 312 836 302 843 C 292 850 283 854 274 854 C 264 854 256 848 250 838 C 244 828 240 813 240 795 L 162 795 C 162 842 171 877 191 901 C 211 924 231 936 253 936 C 269 936 284 932 296 925 C 308 918 321 910 333 902 C 342 894 351 887 360 881 C 368 875 377 872 386 872 C 394 872 402 877 409 888 C 415 898 419 913 420 932 Z" unicode="Ã" />
<glyph horiz-adv-x="661" d="M 1 0 L 1 0 Z M 660 0 L 544 0 L 471 181 L 181 181 L 111 0 L 1 0 L 299 733 L 367 733 L 660 0 Z M 441 270 L 326 560 L 212 270 L 441 270 Z M 328 786 L 328 786 Z M 465 786 L 379 786 L 379 944 L 465 944 L 465 786 Z M 277 786 L 191 786 L 191 944 L 277 944 L 277 786 Z" unicode="Ä" />
<glyph horiz-adv-x="661" d="M 1 0 L 1 0 Z M 660 0 L 544 0 L 471 181 L 181 181 L 111 0 L 1 0 L 299 733 L 367 733 L 660 0 Z M 441 270 L 326 560 L 212 270 L 441 270 Z M 328 784 L 328 784 Z M 328 784 C 295 784 267 795 244 819 C 220 842 209 870 209 904 C 209 936 220 964 244 988 C 267 1011 295 1023 328 1023 C 362 1023 390 1011 413 988 C 436 964 448 936 448 904 C 448 870 436 842 413 819 C 390 795 362 784 328 784 Z M 328 847 C 344 847 357 852 368 863 C 378 873 384 887 384 904 C 384 920 378 933 368 944 C 357 955 344 961 328 961 C 312 961 299 955 288 944 C 277 933 272 920 272 904 C 272 887 277 873 288 863 C 299 852 312 847 328 847 Z" unicode="Å" />
<glyph horiz-adv-x="980" d="M 929 0 L 488 0 L 488 241 L 245 241 L 94 0 L -23 0 L 438 730 L 910 730 L 910 632 L 595 632 L 595 410 L 894 410 L 894 315 L 595 315 L 595 98 L 929 98 L 929 0 Z M 488 334 L 488 640 L 300 334 L 488 334 Z" unicode="Æ" />
<glyph horiz-adv-x="726" d="M 46 0 L 46 0 Z M 407 -12 C 357 -12 311 -3 267 14 C 223 31 184 56 152 88 C 119 120 93 160 74 207 C 55 253 46 306 46 365 C 46 419 55 470 73 516 C 91 562 117 602 149 636 C 181 669 219 695 264 714 C 308 732 357 742 409 742 C 475 742 531 732 578 713 C 624 693 663 665 694 629 L 619 549 C 597 574 570 595 536 613 C 502 630 461 639 412 639 C 372 639 336 632 304 619 C 272 605 246 587 225 563 C 203 539 187 510 176 476 C 164 442 159 405 159 365 C 159 319 166 278 180 243 C 194 208 213 179 237 156 C 261 133 288 116 319 105 C 350 93 382 88 416 88 C 467 88 511 98 547 118 C 583 138 613 163 637 194 L 709 129 C 679 89 639 55 587 28 C 535 1 475 -12 407 -12 Z M 397 -5 L 397 -5 Z M 406 -194 C 381 -194 356 -191 330 -185 C 304 -179 285 -171 271 -162 L 284 -117 C 293 -121 305 -126 321 -132 C 337 -137 354 -140 372 -140 C 386 -140 398 -136 409 -130 C 419 -124 425 -116 425 -106 C 425 -94 420 -85 411 -81 C 401 -76 391 -74 381 -74 C 373 -74 366 -74 361 -75 C 355 -76 349 -78 343 -80 L 328 -65 L 390 8 L 452 8 L 402 -54 C 436 -47 464 -50 488 -63 C 511 -75 523 -94 523 -119 C 523 -144 511 -163 487 -175 C 463 -187 436 -194 406 -194 Z" unicode="Ç" />
<glyph horiz-adv-x="590" d="M 94 0 L 94 0 Z M 537 0 L 94 0 L 94 730 L 518 730 L 518 632 L 202 632 L 202 411 L 502 411 L 502 314 L 202 314 L 202 98 L 537 98 L 537 0 Z M 312 785 L 312 785 Z M 425 785 L 322 785 L 199 947 L 319 947 L 425 785 Z" unicode="È" />
<glyph horiz-adv-x="590" d="M 94 0 L 94 0 Z M 537 0 L 94 0 L 94 730 L 518 730 L 518 632 L 202 632 L 202 411 L 502 411 L 502 314 L 202 314 L 202 98 L 537 98 L 537 0 Z M 312 790 L 312 790 Z M 200 790 L 304 952 L 425 952 L 302 790 L 200 790 Z" unicode="É" />
<glyph horiz-adv-x="590" d="M 94 0 L 94 0 Z M 537 0 L 94 0 L 94 730 L 518 730 L 518 632 L 202 632 L 202 411 L 502 411 L 502 314 L 202 314 L 202 98 L 537 98 L 537 0 Z M 312 786 L 312 786 Z M 488 786 L 393 786 L 312 891 L 230 786 L 137 786 L 260 958 L 365 958 L 488 786 Z" unicode="Ê" />
<glyph horiz-adv-x="590" d="M 94 0 L 94 0 Z M 537 0 L 94 0 L 94 730 L 518 730 L 518 632 L 202 632 L 202 411 L 502 411 L 502 314 L 202 314 L 202 98 L 537 98 L 537 0 Z M 312 786 L 312 786 Z M 449 786 L 363 786 L 363 944 L 449 944 L 449 786 Z M 261 786 L 175 786 L 175 944 L 261 944 L 261 786 Z" unicode="Ë" />
<glyph horiz-adv-x="306" d="M 40 0 L 40 0 Z M 208 0 L 98 0 L 98 730 L 208 730 L 208 0 Z M 153 785 L 153 785 Z M 266 785 L 163 785 L 40 947 L 160 947 L 266 785 Z" unicode="Ì" />
<glyph horiz-adv-x="306" d="M 41 0 L 41 0 Z M 208 0 L 98 0 L 98 730 L 208 730 L 208 0 Z M 153 790 L 153 790 Z M 41 790 L 145 952 L 266 952 L 143 790 L 41 790 Z" unicode="Í" />
<glyph horiz-adv-x="306" d="M 0 0 L 0 0 Z M 208 0 L 98 0 L 98 730 L 208 730 L 208 0 Z M 153 786 L 153 786 Z M 329 786 L 234 786 L 153 891 L 71 786 L -22 786 L 101 958 L 206 958 L 329 786 Z" unicode="Î" />
<glyph horiz-adv-x="306" d="M 16 0 L 16 0 Z M 208 0 L 98 0 L 98 730 L 208 730 L 208 0 Z M 153 786 L 153 786 Z M 290 786 L 204 786 L 204 944 L 290 944 L 290 786 Z M 102 786 L 16 786 L 16 944 L 102 944 L 102 786 Z" unicode="Ï" />
<glyph horiz-adv-x="752" d="M 705 367 C 705 316 696 268 679 224 C 661 179 636 140 603 107 C 569 74 528 48 478 29 C 428 9 370 0 305 0 L 94 0 L 94 314 L 35 314 L 35 400 L 94 400 L 94 730 L 321 730 C 382 730 437 721 485 704 C 533 686 573 662 605 631 C 637 599 662 561 679 516 C 696 471 705 421 705 367 Z M 201 90 L 299 90 C 351 90 395 97 433 113 C 470 129 500 149 524 175 C 547 200 564 229 575 263 C 585 296 591 330 591 365 C 591 449 567 515 519 564 C 471 613 405 638 320 638 L 201 638 L 201 400 L 374 400 L 374 314 L 201 314 L 201 90 Z" unicode="Ð" />
<glyph horiz-adv-x="785" d="M 94 0 L 94 0 Z M 691 0 L 615 0 L 198 534 L 198 0 L 94 0 L 94 730 L 177 730 L 589 201 L 589 730 L 691 730 L 691 0 Z M 393 791 L 393 791 Z M 485 932 L 563 932 C 563 884 556 848 542 825 C 528 802 508 791 484 791 C 465 791 449 794 435 802 C 421 809 408 816 398 823 C 387 829 377 836 367 843 C 357 850 348 854 339 854 C 329 854 321 848 315 838 C 309 828 305 813 305 795 L 227 795 C 227 842 236 877 256 901 C 276 924 296 936 318 936 C 334 936 349 932 361 925 C 373 918 386 910 398 902 C 407 894 416 887 425 881 C 433 875 442 872 451 872 C 459 872 467 877 474 888 C 480 898 484 913 485 932 Z" unicode="Ñ" />
<glyph horiz-adv-x="840" d="M 46 0 L 46 0 Z M 423 -12 C 367 -12 315 -2 269 17 C 222 36 182 62 149 96 C 116 130 91 170 73 217 C 55 264 46 315 46 370 C 46 422 55 471 75 517 C 94 563 120 602 153 635 C 186 668 225 694 270 713 C 315 732 363 742 415 742 C 470 742 521 732 568 714 C 614 696 654 670 688 638 C 721 605 747 565 766 519 C 784 473 794 422 794 368 C 794 312 784 260 764 214 C 744 167 718 127 684 94 C 650 60 611 34 566 16 C 520 -2 473 -12 423 -12 Z M 427 87 C 463 87 496 93 528 106 C 559 118 586 137 609 161 C 632 185 650 214 663 249 C 676 283 683 323 683 367 C 683 407 676 443 662 477 C 648 511 630 540 606 564 C 582 588 553 606 520 620 C 487 633 452 640 414 640 C 377 640 343 633 311 621 C 279 609 252 591 230 568 C 208 545 190 517 177 483 C 164 449 158 412 158 370 C 158 326 165 286 179 251 C 193 215 213 186 237 162 C 261 138 289 119 322 106 C 355 93 390 87 427 87 Z M 416 785 L 416 785 Z M 529 785 L 426 785 L 303 947 L 423 947 L 529 785 Z" unicode="Ò" />
<glyph horiz-adv-x="840" d="M 46 0 L 46 0 Z M 423 -12 C 367 -12 315 -2 269 17 C 222 36 182 62 149 96 C 116 130 91 170 73 217 C 55 264 46 315 46 370 C 46 422 55 471 75 517 C 94 563 120 602 153 635 C 186 668 225 694 270 713 C 315 732 363 742 415 742 C 470 742 521 732 568 714 C 614 696 654 670 688 638 C 721 605 747 565 766 519 C 784 473 794 422 794 368 C 794 312 784 260 764 214 C 744 167 718 127 684 94 C 650 60 611 34 566 16 C 520 -2 473 -12 423 -12 Z M 427 87 C 463 87 496 93 528 106 C 559 118 586 137 609 161 C 632 185 650 214 663 249 C 676 283 683 323 683 367 C 683 407 676 443 662 477 C 648 511 630 540 606 564 C 582 588 553 606 520 620 C 487 633 452 640 414 640 C 377 640 343 633 311 621 C 279 609 252 591 230 568 C 208 545 190 517 177 483 C 164 449 158 412 158 370 C 158 326 165 286 179 251 C 193 215 213 186 237 162 C 261 138 289 119 322 106 C 355 93 390 87 427 87 Z M 416 790 L 416 790 Z M 304 790 L 408 952 L 529 952 L 406 790 L 304 790 Z" unicode="Ó" />
<glyph horiz-adv-x="840" d="M 46 0 L 46 0 Z M 423 -12 C 367 -12 315 -2 269 17 C 222 36 182 62 149 96 C 116 130 91 170 73 217 C 55 264 46 315 46 370 C 46 422 55 471 75 517 C 94 563 120 602 153 635 C 186 668 225 694 270 713 C 315 732 363 742 415 742 C 470 742 521 732 568 714 C 614 696 654 670 688 638 C 721 605 747 565 766 519 C 784 473 794 422 794 368 C 794 312 784 260 764 214 C 744 167 718 127 684 94 C 650 60 611 34 566 16 C 520 -2 473 -12 423 -12 Z M 427 87 C 463 87 496 93 528 106 C 559 118 586 137 609 161 C 632 185 650 214 663 249 C 676 283 683 323 683 367 C 683 407 676 443 662 477 C 648 511 630 540 606 564 C 582 588 553 606 520 620 C 487 633 452 640 414 640 C 377 640 343 633 311 621 C 279 609 252 591 230 568 C 208 545 190 517 177 483 C 164 449 158 412 158 370 C 158 326 165 286 179 251 C 193 215 213 186 237 162 C 261 138 289 119 322 106 C 355 93 390 87 427 87 Z M 416 786 L 416 786 Z M 592 786 L 497 786 L 416 891 L 334 786 L 241 786 L 364 958 L 469 958 L 592 786 Z" unicode="Ô" />
<glyph horiz-adv-x="840" d="M 46 0 L 46 0 Z M 423 -12 C 367 -12 315 -2 269 17 C 222 36 182 62 149 96 C 116 130 91 170 73 217 C 55 264 46 315 46 370 C 46 422 55 471 75 517 C 94 563 120 602 153 635 C 186 668 225 694 270 713 C 315 732 363 742 415 742 C 470 742 521 732 568 714 C 614 696 654 670 688 638 C 721 605 747 565 766 519 C 784 473 794 422 794 368 C 794 312 784 260 764 214 C 744 167 718 127 684 94 C 650 60 611 34 566 16 C 520 -2 473 -12 423 -12 Z M 427 87 C 463 87 496 93 528 106 C 559 118 586 137 609 161 C 632 185 650 214 663 249 C 676 283 683 323 683 367 C 683 407 676 443 662 477 C 648 511 630 540 606 564 C 582 588 553 606 520 620 C 487 633 452 640 414 640 C 377 640 343 633 311 621 C 279 609 252 591 230 568 C 208 545 190 517 177 483 C 164 449 158 412 158 370 C 158 326 165 286 179 251 C 193 215 213 186 237 162 C 261 138 289 119 322 106 C 355 93 390 87 427 87 Z M 416 791 L 416 791 Z M 508 932 L 586 932 C 586 884 579 848 565 825 C 551 802 531 791 507 791 C 488 791 472 794 458 802 C 444 809 431 816 421 823 C 410 829 400 836 390 843 C 380 850 371 854 362 854 C 352 854 344 848 338 838 C 332 828 328 813 328 795 L 250 795 C 250 842 259 877 279 901 C 299 924 319 936 341 936 C 357 936 372 932 384 925 C 396 918 409 910 421 902 C 430 894 439 887 448 881 C 456 875 465 872 474 872 C 482 872 490 877 497 888 C 503 898 507 913 508 932 Z" unicode="Õ" />
<glyph horiz-adv-x="840" d="M 46 0 L 46 0 Z M 423 -12 C 367 -12 315 -2 269 17 C 222 36 182 62 149 96 C 116 130 91 170 73 217 C 55 264 46 315 46 370 C 46 422 55 471 75 517 C 94 563 120 602 153 635 C 186 668 225 694 270 713 C 315 732 363 742 415 742 C 470 742 521 732 568 714 C 614 696 654 670 688 638 C 721 605 747 565 766 519 C 784 473 794 422 794 368 C 794 312 784 260 764 214 C 744 167 718 127 684 94 C 650 60 611 34 566 16 C 520 -2 473 -12 423 -12 Z M 427 87 C 463 87 496 93 528 106 C 559 118 586 137 609 161 C 632 185 650 214 663 249 C 676 283 683 323 683 367 C 683 407 676 443 662 477 C 648 511 630 540 606 564 C 582 588 553 606 520 620 C 487 633 452 640 414 640 C 377 640 343 633 311 621 C 279 609 252 591 230 568 C 208 545 190 517 177 483 C 164 449 158 412 158 370 C 158 326 165 286 179 251 C 193 215 213 186 237 162 C 261 138 289 119 322 106 C 355 93 390 87 427 87 Z M 416 786 L 416 786 Z M 553 786 L 467 786 L 467 944 L 553 944 L 553 786 Z M 365 786 L 279 786 L 279 944 L 365 944 L 365 786 Z" unicode="Ö" />
<glyph horiz-adv-x="500" d="M 115 139 L 58 196 L 193 331 L 59 465 L 116 522 L 250 388 L 385 522 L 442 465 L 307 331 L 443 196 L 385 137 L 250 274 L 115 139 Z" unicode="×" />
<glyph horiz-adv-x="840" d="M 794 368 C 794 312 784 260 764 214 C 744 167 718 127 684 94 C 650 60 611 34 566 16 C 520 -2 473 -12 423 -12 C 375 -12 330 -4 288 9 C 246 23 210 44 179 70 L 108 -1 L 52 54 L 124 126 C 99 158 80 195 66 237 C 52 278 46 322 46 370 C 46 422 55 471 75 517 C 94 563 120 602 153 635 C 186 668 225 694 270 713 C 315 732 363 742 415 742 C 463 742 507 735 549 721 C 591 707 628 687 660 663 L 745 748 L 801 693 L 716 607 C 740 575 759 539 773 499 C 787 458 794 414 794 368 Z M 158 370 C 158 337 161 307 169 279 C 177 251 188 227 202 205 L 582 585 C 559 602 533 615 505 625 C 477 635 446 640 414 640 C 377 640 343 633 311 621 C 279 609 252 591 230 568 C 208 545 190 517 177 483 C 164 449 158 412 158 370 Z M 683 367 C 683 397 678 426 670 454 C 662 481 650 506 636 528 L 255 146 C 277 127 303 112 333 102 C 363 92 394 87 427 87 C 463 87 496 93 528 106 C 559 118 586 137 609 161 C 632 185 650 214 663 249 C 676 283 683 323 683 367 Z" unicode="Ø" />
<glyph horiz-adv-x="754" d="M 88 0 L 88 0 Z M 666 730 L 666 266 C 666 222 658 183 643 149 C 627 114 607 85 581 61 C 555 37 524 19 489 7 C 453 -5 416 -12 376 -12 C 336 -12 299 -6 264 6 C 229 18 199 35 173 59 C 147 83 126 112 111 147 C 95 181 88 221 88 266 L 88 730 L 195 730 L 195 264 C 195 237 199 213 209 192 C 218 170 231 152 247 137 C 263 121 283 109 305 101 C 327 93 350 89 375 89 C 400 89 424 93 446 101 C 468 109 488 120 505 135 C 521 150 534 168 544 190 C 554 212 559 236 559 264 L 559 730 L 666 730 Z M 376 785 L 376 785 Z M 489 785 L 386 785 L 263 947 L 383 947 L 489 785 Z" unicode="Ù" />
<glyph horiz-adv-x="754" d="M 88 0 L 88 0 Z M 666 730 L 666 266 C 666 222 658 183 643 149 C 627 114 607 85 581 61 C 555 37 524 19 489 7 C 453 -5 416 -12 376 -12 C 336 -12 299 -6 264 6 C 229 18 199 35 173 59 C 147 83 126 112 111 147 C 95 181 88 221 88 266 L 88 730 L 195 730 L 195 264 C 195 237 199 213 209 192 C 218 170 231 152 247 137 C 263 121 283 109 305 101 C 327 93 350 89 375 89 C 400 89 424 93 446 101 C 468 109 488 120 505 135 C 521 150 534 168 544 190 C 554 212 559 236 559 264 L 559 730 L 666 730 Z M 376 790 L 376 790 Z M 264 790 L 368 952 L 489 952 L 366 790 L 264 790 Z" unicode="Ú" />
<glyph horiz-adv-x="754" d="M 88 0 L 88 0 Z M 666 730 L 666 266 C 666 222 658 183 643 149 C 627 114 607 85 581 61 C 555 37 524 19 489 7 C 453 -5 416 -12 376 -12 C 336 -12 299 -6 264 6 C 229 18 199 35 173 59 C 147 83 126 112 111 147 C 95 181 88 221 88 266 L 88 730 L 195 730 L 195 264 C 195 237 199 213 209 192 C 218 170 231 152 247 137 C 263 121 283 109 305 101 C 327 93 350 89 375 89 C 400 89 424 93 446 101 C 468 109 488 120 505 135 C 521 150 534 168 544 190 C 554 212 559 236 559 264 L 559 730 L 666 730 Z M 376 786 L 376 786 Z M 552 786 L 457 786 L 376 891 L 294 786 L 201 786 L 324 958 L 429 958 L 552 786 Z" unicode="Û" />
<glyph horiz-adv-x="754" d="M 88 0 L 88 0 Z M 666 730 L 666 266 C 666 222 658 183 643 149 C 627 114 607 85 581 61 C 555 37 524 19 489 7 C 453 -5 416 -12 376 -12 C 336 -12 299 -6 264 6 C 229 18 199 35 173 59 C 147 83 126 112 111 147 C 95 181 88 221 88 266 L 88 730 L 195 730 L 195 264 C 195 237 199 213 209 192 C 218 170 231 152 247 137 C 263 121 283 109 305 101 C 327 93 350 89 375 89 C 400 89 424 93 446 101 C 468 109 488 120 505 135 C 521 150 534 168 544 190 C 554 212 559 236 559 264 L 559 730 L 666 730 Z M 376 786 L 376 786 Z M 513 786 L 427 786 L 427 944 L 513 944 L 513 786 Z M 325 786 L 239 786 L 239 944 L 325 944 L 325 786 Z" unicode="Ü" />
<glyph horiz-adv-x="662" d="M 0 0 L 0 0 Z M 662 730 L 384 315 L 384 0 L 274 0 L 274 320 L 0 730 L 123 730 L 334 417 L 545 730 L 662 730 Z M 332 790 L 332 790 Z M 220 790 L 324 952 L 445 952 L 322 790 L 220 790 Z" unicode="Ý" />
<glyph horiz-adv-x="607" d="M 94 0 L 94 730 L 204 730 L 204 600 L 346 600 C 419 600 476 579 518 538 C 559 496 580 443 580 379 C 580 346 574 316 563 288 C 551 260 535 237 515 217 C 495 197 470 182 442 171 C 413 159 382 154 348 154 L 204 154 L 204 0 L 94 0 Z M 202 245 L 333 245 C 375 245 408 257 432 282 C 456 306 469 340 469 382 C 469 422 455 453 427 474 C 399 495 365 506 325 506 L 202 506 L 202 245 Z" unicode="Þ" />
<glyph horiz-adv-x="673" d="M 465 -11 C 420 -11 381 -5 347 6 C 313 17 284 32 261 52 L 309 122 C 327 107 351 95 380 86 C 408 77 436 73 462 73 C 486 73 506 78 521 89 C 536 99 544 114 544 132 C 544 150 535 164 519 176 C 503 187 473 199 431 212 C 371 228 329 249 307 273 C 284 297 273 328 273 367 C 273 401 283 428 305 449 C 326 469 350 482 377 487 C 382 489 389 496 397 506 C 405 516 409 538 410 570 C 410 608 399 638 377 659 C 355 680 328 691 297 691 C 266 691 240 682 220 665 C 199 647 189 620 189 583 L 189 0 L 86 0 L 86 595 C 86 623 91 649 102 671 C 113 693 128 712 147 727 C 165 742 187 754 212 762 C 237 770 263 774 291 774 C 320 774 348 769 374 761 C 400 752 423 739 443 723 C 463 707 478 687 490 663 C 502 639 508 613 508 584 C 508 541 500 507 485 483 C 470 458 456 442 442 435 C 422 432 404 426 388 416 C 372 406 363 392 361 376 C 361 359 370 344 390 332 C 409 320 440 308 483 296 C 537 281 577 262 604 238 C 631 214 645 181 645 139 C 645 90 627 53 592 27 C 557 1 515 -11 465 -11 Z" unicode="ß" />
<glyph horiz-adv-x="538" d="M 30 0 L 30 0 Z M 475 0 L 377 0 L 377 64 C 361 43 338 25 310 11 C 281 -2 246 -10 205 -10 C 147 -10 104 4 74 32 C 44 60 30 96 30 141 C 30 194 50 235 92 265 C 133 295 191 312 267 317 L 375 323 L 375 331 C 375 359 365 381 347 396 C 328 410 302 418 268 418 C 236 418 207 412 179 401 C 151 390 128 378 108 366 L 66 438 C 88 454 117 469 153 483 C 189 496 231 503 279 503 C 338 503 385 489 421 461 C 457 433 475 389 475 329 L 475 0 Z M 377 134 L 377 245 L 264 240 C 224 238 193 229 169 214 C 145 199 134 177 134 149 C 134 125 143 106 161 93 C 179 79 202 73 231 73 C 261 73 290 79 317 91 C 344 103 364 118 377 134 Z M 264 545 L 264 545 Z M 377 545 L 274 545 L 151 707 L 271 707 L 377 545 Z" unicode="à" />
<glyph horiz-adv-x="538" d="M 30 0 L 30 0 Z M 475 0 L 377 0 L 377 64 C 361 43 338 25 310 11 C 281 -2 246 -10 205 -10 C 147 -10 104 4 74 32 C 44 60 30 96 30 141 C 30 194 50 235 92 265 C 133 295 191 312 267 317 L 375 323 L 375 331 C 375 359 365 381 347 396 C 328 410 302 418 268 418 C 236 418 207 412 179 401 C 151 390 128 378 108 366 L 66 438 C 88 454 117 469 153 483 C 189 496 231 503 279 503 C 338 503 385 489 421 461 C 457 433 475 389 475 329 L 475 0 Z M 377 134 L 377 245 L 264 240 C 224 238 193 229 169 214 C 145 199 134 177 134 149 C 134 125 143 106 161 93 C 179 79 202 73 231 73 C 261 73 290 79 317 91 C 344 103 364 118 377 134 Z M 264 550 L 264 550 Z M 152 550 L 256 712 L 377 712 L 254 550 L 152 550 Z" unicode="á" />
<glyph horiz-adv-x="538" d="M 30 0 L 30 0 Z M 475 0 L 377 0 L 377 64 C 361 43 338 25 310 11 C 281 -2 246 -10 205 -10 C 147 -10 104 4 74 32 C 44 60 30 96 30 141 C 30 194 50 235 92 265 C 133 295 191 312 267 317 L 375 323 L 375 331 C 375 359 365 381 347 396 C 328 410 302 418 268 418 C 236 418 207 412 179 401 C 151 390 128 378 108 366 L 66 438 C 88 454 117 469 153 483 C 189 496 231 503 279 503 C 338 503 385 489 421 461 C 457 433 475 389 475 329 L 475 0 Z M 377 134 L 377 245 L 264 240 C 224 238 193 229 169 214 C 145 199 134 177 134 149 C 134 125 143 106 161 93 C 179 79 202 73 231 73 C 261 73 290 79 317 91 C 344 103 364 118 377 134 Z M 264 546 L 264 546 Z M 440 546 L 345 546 L 264 651 L 182 546 L 89 546 L 212 718 L 317 718 L 440 546 Z" unicode="â" />
<glyph horiz-adv-x="538" d="M 30 0 L 30 0 Z M 475 0 L 377 0 L 377 64 C 361 43 338 25 310 11 C 281 -2 246 -10 205 -10 C 147 -10 104 4 74 32 C 44 60 30 96 30 141 C 30 194 50 235 92 265 C 133 295 191 312 267 317 L 375 323 L 375 331 C 375 359 365 381 347 396 C 328 410 302 418 268 418 C 236 418 207 412 179 401 C 151 390 128 378 108 366 L 66 438 C 88 454 117 469 153 483 C 189 496 231 503 279 503 C 338 503 385 489 421 461 C 457 433 475 389 475 329 L 475 0 Z M 377 134 L 377 245 L 264 240 C 224 238 193 229 169 214 C 145 199 134 177 134 149 C 134 125 143 106 161 93 C 179 79 202 73 231 73 C 261 73 290 79 317 91 C 344 103 364 118 377 134 Z M 264 551 L 264 551 Z M 356 692 L 434 692 C 434 644 427 608 413 585 C 399 562 379 551 355 551 C 336 551 320 554 306 562 C 292 569 279 576 269 583 C 258 589 248 596 238 603 C 228 610 219 614 210 614 C 200 614 192 608 186 598 C 180 588 176 573 176 555 L 98 555 C 98 602 107 637 127 661 C 147 684 167 696 189 696 C 205 696 220 692 232 685 C 244 678 257 670 269 662 C 278 654 287 647 296 641 C 304 635 313 632 322 632 C 330 632 338 637 345 648 C 351 658 355 673 356 692 Z" unicode="ã" />
<glyph horiz-adv-x="538" d="M 30 0 L 30 0 Z M 475 0 L 377 0 L 377 64 C 361 43 338 25 310 11 C 281 -2 246 -10 205 -10 C 147 -10 104 4 74 32 C 44 60 30 96 30 141 C 30 194 50 235 92 265 C 133 295 191 312 267 317 L 375 323 L 375 331 C 375 359 365 381 347 396 C 328 410 302 418 268 418 C 236 418 207 412 179 401 C 151 390 128 378 108 366 L 66 438 C 88 454 117 469 153 483 C 189 496 231 503 279 503 C 338 503 385 489 421 461 C 457 433 475 389 475 329 L 475 0 Z M 377 134 L 377 245 L 264 240 C 224 238 193 229 169 214 C 145 199 134 177 134 149 C 134 125 143 106 161 93 C 179 79 202 73 231 73 C 261 73 290 79 317 91 C 344 103 364 118 377 134 Z M 264 546 L 264 546 Z M 401 546 L 315 546 L 315 704 L 401 704 L 401 546 Z M 213 546 L 127 546 L 127 704 L 213 704 L 213 546 Z" unicode="ä" />
<glyph horiz-adv-x="538" d="M 30 0 L 30 0 Z M 475 0 L 377 0 L 377 64 C 361 43 338 25 310 11 C 281 -2 246 -10 205 -10 C 147 -10 104 4 74 32 C 44 60 30 96 30 141 C 30 194 50 235 92 265 C 133 295 191 312 267 317 L 375 323 L 375 331 C 375 359 365 381 347 396 C 328 410 302 418 268 418 C 236 418 207 412 179 401 C 151 390 128 378 108 366 L 66 438 C 88 454 117 469 153 483 C 189 496 231 503 279 503 C 338 503 385 489 421 461 C 457 433 475 389 475 329 L 475 0 Z M 377 134 L 377 245 L 264 240 C 224 238 193 229 169 214 C 145 199 134 177 134 149 C 134 125 143 106 161 93 C 179 79 202 73 231 73 C 261 73 290 79 317 91 C 344 103 364 118 377 134 Z M 264 544 L 264 544 Z M 264 544 C 231 544 203 555 180 579 C 156 602 145 630 145 664 C 145 696 156 724 180 748 C 203 771 231 783 264 783 C 298 783 326 771 349 748 C 372 724 384 696 384 664 C 384 630 372 602 349 579 C 326 555 298 544 264 544 Z M 264 607 C 280 607 293 612 304 623 C 314 633 320 647 320 664 C 320 680 314 693 304 704 C 293 715 280 721 264 721 C 248 721 235 715 224 704 C 213 693 208 680 208 664 C 208 647 213 633 224 623 C 235 612 248 607 264 607 Z" unicode="å" />
<glyph horiz-adv-x="909" d="M 642 -11 C 586 -11 539 0 502 22 C 465 44 440 69 428 96 C 412 70 386 45 349 23 C 312 1 265 -10 209 -10 C 155 -10 113 3 82 31 C 51 58 36 95 36 141 C 36 195 56 236 98 265 C 140 294 198 311 274 316 L 387 322 L 387 331 C 387 358 376 379 355 395 C 333 410 306 418 273 418 C 242 418 213 412 185 401 C 157 390 133 378 114 365 L 72 438 C 95 456 124 471 159 484 C 194 496 232 503 273 503 C 320 503 358 494 388 477 C 417 460 437 439 449 415 C 461 435 482 454 514 474 C 546 493 587 503 639 503 C 713 503 771 476 815 424 C 859 372 881 301 882 213 L 482 213 C 484 173 498 140 526 115 C 554 90 592 78 640 78 C 684 78 716 84 738 98 C 759 112 777 126 792 142 L 856 76 C 832 49 804 28 771 12 C 738 -3 695 -11 642 -11 Z M 484 290 L 780 290 C 779 323 765 352 738 378 C 711 403 675 416 630 416 C 586 416 552 403 526 378 C 500 353 486 324 484 290 Z M 239 73 C 275 73 307 83 334 103 C 360 123 379 145 390 167 L 390 244 L 271 238 C 233 236 201 228 177 216 C 153 203 141 182 141 152 C 141 125 150 105 169 92 C 187 79 211 73 239 73 Z" unicode="æ" />
<glyph horiz-adv-x="528" d="M 35 0 L 35 0 Z M 429 160 L 512 109 C 493 79 466 51 431 26 C 396 1 349 -11 289 -11 C 251 -11 217 -4 186 7 C 154 19 127 37 105 59 C 83 81 65 108 53 140 C 41 172 35 206 35 244 C 35 281 41 315 54 347 C 67 379 85 406 108 429 C 131 452 158 470 190 483 C 222 496 256 503 293 503 C 323 503 350 499 374 492 C 398 484 419 475 437 463 C 455 451 470 437 482 422 C 494 407 504 392 511 376 L 419 332 C 408 354 392 372 372 388 C 352 403 325 411 291 411 C 247 411 211 394 183 362 C 155 330 141 291 141 245 C 141 196 154 156 182 126 C 209 95 246 80 292 80 C 330 80 360 88 381 106 C 402 124 418 142 429 160 Z M 283 -5 L 283 -5 Z M 292 -194 C 267 -194 242 -191 216 -185 C 190 -179 171 -171 157 -162 L 170 -117 C 179 -121 191 -126 207 -132 C 223 -137 240 -140 258 -140 C 272 -140 284 -136 295 -130 C 305 -124 311 -116 311 -106 C 311 -94 306 -85 297 -81 C 287 -76 277 -74 267 -74 C 259 -74 252 -74 247 -75 C 241 -76 235 -78 229 -80 L 214 -65 L 276 8 L 338 8 L 288 -54 C 322 -47 350 -50 374 -63 C 397 -75 409 -94 409 -119 C 409 -144 397 -163 373 -175 C 349 -187 322 -194 292 -194 Z" unicode="ç" />
<glyph horiz-adv-x="567" d="M 36 0 L 36 0 Z M 299 -11 C 261 -11 225 -5 193 6 C 161 17 133 33 110 55 C 87 77 69 103 56 135 C 42 167 36 203 36 243 C 36 279 42 312 55 344 C 67 376 85 403 108 427 C 130 450 157 468 189 482 C 221 496 255 503 293 503 C 367 503 426 477 472 427 C 517 376 540 304 540 212 L 135 212 C 137 174 152 143 180 117 C 208 91 247 78 297 78 C 337 78 369 84 393 97 C 417 110 436 125 450 142 L 514 76 C 491 51 464 30 432 14 C 400 -2 355 -11 299 -11 Z M 136 290 L 438 290 C 436 325 421 355 395 379 C 368 403 333 416 289 416 C 245 416 210 403 182 378 C 154 352 139 323 136 290 Z M 289 545 L 289 545 Z M 402 545 L 299 545 L 176 707 L 296 707 L 402 545 Z" unicode="è" />
<glyph horiz-adv-x="567" d="M 36 0 L 36 0 Z M 299 -11 C 261 -11 225 -5 193 6 C 161 17 133 33 110 55 C 87 77 69 103 56 135 C 42 167 36 203 36 243 C 36 279 42 312 55 344 C 67 376 85 403 108 427 C 130 450 157 468 189 482 C 221 496 255 503 293 503 C 367 503 426 477 472 427 C 517 376 540 304 540 212 L 135 212 C 137 174 152 143 180 117 C 208 91 247 78 297 78 C 337 78 369 84 393 97 C 417 110 436 125 450 142 L 514 76 C 491 51 464 30 432 14 C 400 -2 355 -11 299 -11 Z M 136 290 L 438 290 C 436 325 421 355 395 379 C 368 403 333 416 289 416 C 245 416 210 403 182 378 C 154 352 139 323 136 290 Z M 289 550 L 289 550 Z M 177 550 L 281 712 L 402 712 L 279 550 L 177 550 Z" unicode="é" />
<glyph horiz-adv-x="567" d="M 36 0 L 36 0 Z M 299 -11 C 261 -11 225 -5 193 6 C 161 17 133 33 110 55 C 87 77 69 103 56 135 C 42 167 36 203 36 243 C 36 279 42 312 55 344 C 67 376 85 403 108 427 C 130 450 157 468 189 482 C 221 496 255 503 293 503 C 367 503 426 477 472 427 C 517 376 540 304 540 212 L 135 212 C 137 174 152 143 180 117 C 208 91 247 78 297 78 C 337 78 369 84 393 97 C 417 110 436 125 450 142 L 514 76 C 491 51 464 30 432 14 C 400 -2 355 -11 299 -11 Z M 136 290 L 438 290 C 436 325 421 355 395 379 C 368 403 333 416 289 416 C 245 416 210 403 182 378 C 154 352 139 323 136 290 Z M 289 546 L 289 546 Z M 465 546 L 370 546 L 289 651 L 207 546 L 114 546 L 237 718 L 342 718 L 465 546 Z" unicode="ê" />
<glyph horiz-adv-x="567" d="M 36 0 L 36 0 Z M 299 -11 C 261 -11 225 -5 193 6 C 161 17 133 33 110 55 C 87 77 69 103 56 135 C 42 167 36 203 36 243 C 36 279 42 312 55 344 C 67 376 85 403 108 427 C 130 450 157 468 189 482 C 221 496 255 503 293 503 C 367 503 426 477 472 427 C 517 376 540 304 540 212 L 135 212 C 137 174 152 143 180 117 C 208 91 247 78 297 78 C 337 78 369 84 393 97 C 417 110 436 125 450 142 L 514 76 C 491 51 464 30 432 14 C 400 -2 355 -11 299 -11 Z M 136 290 L 438 290 C 436 325 421 355 395 379 C 368 403 333 416 289 416 C 245 416 210 403 182 378 C 154 352 139 323 136 290 Z M 289 546 L 289 546 Z M 426 546 L 340 546 L 340 704 L 426 704 L 426 546 Z M 238 546 L 152 546 L 152 704 L 238 704 L 238 546 Z" unicode="ë" />
<glyph horiz-adv-x="258" d="M 15 0 L 15 0 Z M 180 0 L 77 0 L 77 490 L 180 490 L 180 0 Z M 128 545 L 128 545 Z M 241 545 L 138 545 L 15 707 L 135 707 L 241 545 Z" unicode="ì" />
<glyph horiz-adv-x="258" d="M 16 0 L 16 0 Z M 180 0 L 77 0 L 77 490 L 180 490 L 180 0 Z M 128 550 L 128 550 Z M 16 550 L 120 712 L 241 712 L 118 550 L 16 550 Z" unicode="í" />
<glyph horiz-adv-x="258" d="M 0 0 L 0 0 Z M 180 0 L 77 0 L 77 490 L 180 490 L 180 0 Z M 128 546 L 128 546 Z M 304 546 L 209 546 L 128 651 L 46 546 L -47 546 L 76 718 L 181 718 L 304 546 Z" unicode="î" />
<glyph horiz-adv-x="258" d="M 0 0 L 0 0 Z M 180 0 L 77 0 L 77 490 L 180 490 L 180 0 Z M 128 546 L 128 546 Z M 265 546 L 179 546 L 179 704 L 265 704 L 265 546 Z M 77 546 L -9 546 L -9 704 L 77 704 L 77 546 Z" unicode="ï" />
<glyph horiz-adv-x="600" d="M 560 272 C 560 232 554 195 542 161 C 530 126 513 96 491 71 C 468 45 440 25 407 11 C 373 -3 336 -11 294 -11 C 258 -11 224 -5 192 7 C 160 19 133 35 110 57 C 87 79 69 105 56 136 C 42 167 36 202 36 240 C 36 274 42 307 56 338 C 70 368 88 395 111 417 C 133 439 159 457 189 471 C 219 484 250 491 283 491 C 321 491 355 482 386 465 C 417 447 439 428 452 408 C 446 450 436 489 421 523 C 405 557 388 588 368 614 L 223 567 L 204 624 L 324 663 C 303 681 283 697 264 709 C 244 721 227 730 213 736 L 305 772 C 319 765 336 755 355 742 C 373 728 392 711 412 691 L 494 718 L 512 660 L 453 641 C 482 601 507 550 528 489 C 549 427 560 355 560 272 Z M 296 76 C 346 76 385 92 414 124 C 442 156 457 196 457 245 C 457 293 443 332 415 362 C 387 392 348 407 300 407 C 253 407 215 391 185 359 C 155 327 141 289 141 243 C 141 193 155 153 185 122 C 215 91 252 76 296 76 Z" unicode="ð" />
<glyph horiz-adv-x="587" d="M 73 0 L 73 0 Z M 520 0 L 418 0 L 418 324 C 418 352 407 375 387 392 C 366 408 340 417 309 417 C 293 417 277 414 261 409 C 245 404 230 397 218 387 C 205 377 195 364 187 348 C 179 332 176 314 176 294 L 176 0 L 73 0 L 73 490 L 167 490 L 167 397 C 178 427 200 453 232 473 C 264 493 302 503 344 503 C 394 503 435 488 469 460 C 503 432 520 395 520 349 L 520 0 Z M 303 551 L 303 551 Z M 395 692 L 473 692 C 473 644 466 608 452 585 C 438 562 418 551 394 551 C 375 551 359 554 345 562 C 331 569 318 576 308 583 C 297 589 287 596 277 603 C 267 610 258 614 249 614 C 239 614 231 608 225 598 C 219 588 215 573 215 555 L 137 555 C 137 602 146 637 166 661 C 186 684 206 696 228 696 C 244 696 259 692 271 685 C 283 678 296 670 308 662 C 317 654 326 647 335 641 C 343 635 352 632 361 632 C 369 632 377 637 384 648 C 390 658 394 673 395 692 Z" unicode="ñ" />
<glyph horiz-adv-x="593" d="M 35 0 L 35 0 Z M 292 -11 C 259 -11 227 -5 196 6 C 165 18 138 34 114 56 C 90 77 71 103 57 135 C 42 167 35 203 35 243 C 35 279 42 313 56 345 C 70 377 88 404 112 428 C 135 451 162 469 194 483 C 225 496 258 503 292 503 C 328 503 362 497 394 485 C 426 473 455 457 479 436 C 503 414 522 388 536 358 C 550 328 557 294 557 257 C 557 217 550 181 536 148 C 522 115 503 87 479 64 C 455 40 426 22 394 9 C 362 -4 328 -11 292 -11 Z M 297 79 C 342 79 379 95 408 127 C 437 159 452 201 452 252 C 452 297 437 335 408 366 C 378 396 339 412 289 412 C 246 412 211 396 183 365 C 155 334 141 294 141 244 C 141 192 156 151 186 122 C 216 93 253 79 297 79 Z M 291 545 L 291 545 Z M 404 545 L 301 545 L 178 707 L 298 707 L 404 545 Z" unicode="ò" />
<glyph horiz-adv-x="593" d="M 35 0 L 35 0 Z M 292 -11 C 259 -11 227 -5 196 6 C 165 18 138 34 114 56 C 90 77 71 103 57 135 C 42 167 35 203 35 243 C 35 279 42 313 56 345 C 70 377 88 404 112 428 C 135 451 162 469 194 483 C 225 496 258 503 292 503 C 328 503 362 497 394 485 C 426 473 455 457 479 436 C 503 414 522 388 536 358 C 550 328 557 294 557 257 C 557 217 550 181 536 148 C 522 115 503 87 479 64 C 455 40 426 22 394 9 C 362 -4 328 -11 292 -11 Z M 297 79 C 342 79 379 95 408 127 C 437 159 452 201 452 252 C 452 297 437 335 408 366 C 378 396 339 412 289 412 C 246 412 211 396 183 365 C 155 334 141 294 141 244 C 141 192 156 151 186 122 C 216 93 253 79 297 79 Z M 291 550 L 291 550 Z M 179 550 L 283 712 L 404 712 L 281 550 L 179 550 Z" unicode="ó" />
<glyph horiz-adv-x="593" d="M 35 0 L 35 0 Z M 292 -11 C 259 -11 227 -5 196 6 C 165 18 138 34 114 56 C 90 77 71 103 57 135 C 42 167 35 203 35 243 C 35 279 42 313 56 345 C 70 377 88 404 112 428 C 135 451 162 469 194 483 C 225 496 258 503 292 503 C 328 503 362 497 394 485 C 426 473 455 457 479 436 C 503 414 522 388 536 358 C 550 328 557 294 557 257 C 557 217 550 181 536 148 C 522 115 503 87 479 64 C 455 40 426 22 394 9 C 362 -4 328 -11 292 -11 Z M 297 79 C 342 79 379 95 408 127 C 437 159 452 201 452 252 C 452 297 437 335 408 366 C 378 396 339 412 289 412 C 246 412 211 396 183 365 C 155 334 141 294 141 244 C 141 192 156 151 186 122 C 216 93 253 79 297 79 Z M 291 546 L 291 546 Z M 467 546 L 372 546 L 291 651 L 209 546 L 116 546 L 239 718 L 344 718 L 467 546 Z" unicode="ô" />
<glyph horiz-adv-x="593" d="M 35 0 L 35 0 Z M 292 -11 C 259 -11 227 -5 196 6 C 165 18 138 34 114 56 C 90 77 71 103 57 135 C 42 167 35 203 35 243 C 35 279 42 313 56 345 C 70 377 88 404 112 428 C 135 451 162 469 194 483 C 225 496 258 503 292 503 C 328 503 362 497 394 485 C 426 473 455 457 479 436 C 503 414 522 388 536 358 C 550 328 557 294 557 257 C 557 217 550 181 536 148 C 522 115 503 87 479 64 C 455 40 426 22 394 9 C 362 -4 328 -11 292 -11 Z M 297 79 C 342 79 379 95 408 127 C 437 159 452 201 452 252 C 452 297 437 335 408 366 C 378 396 339 412 289 412 C 246 412 211 396 183 365 C 155 334 141 294 141 244 C 141 192 156 151 186 122 C 216 93 253 79 297 79 Z M 291 551 L 291 551 Z M 383 692 L 461 692 C 461 644 454 608 440 585 C 426 562 406 551 382 551 C 363 551 347 554 333 562 C 319 569 306 576 296 583 C 285 589 275 596 265 603 C 255 610 246 614 237 614 C 227 614 219 608 213 598 C 207 588 203 573 203 555 L 125 555 C 125 602 134 637 154 661 C 174 684 194 696 216 696 C 232 696 247 692 259 685 C 271 678 284 670 296 662 C 305 654 314 647 323 641 C 331 635 340 632 349 632 C 357 632 365 637 372 648 C 378 658 382 673 383 692 Z" unicode="õ" />
<glyph horiz-adv-x="593" d="M 35 0 L 35 0 Z M 292 -11 C 259 -11 227 -5 196 6 C 165 18 138 34 114 56 C 90 77 71 103 57 135 C 42 167 35 203 35 243 C 35 279 42 313 56 345 C 70 377 88 404 112 428 C 135 451 162 469 194 483 C 225 496 258 503 292 503 C 328 503 362 497 394 485 C 426 473 455 457 479 436 C 503 414 522 388 536 358 C 550 328 557 294 557 257 C 557 217 550 181 536 148 C 522 115 503 87 479 64 C 455 40 426 22 394 9 C 362 -4 328 -11 292 -11 Z M 297 79 C 342 79 379 95 408 127 C 437 159 452 201 452 252 C 452 297 437 335 408 366 C 378 396 339 412 289 412 C 246 412 211 396 183 365 C 155 334 141 294 141 244 C 141 192 156 151 186 122 C 216 93 253 79 297 79 Z M 291 546 L 291 546 Z M 428 546 L 342 546 L 342 704 L 428 704 L 428 546 Z M 240 546 L 154 546 L 154 704 L 240 704 L 240 546 Z" unicode="ö" />
<glyph horiz-adv-x="500" d="M 202 448 L 202 567 L 298 567 L 298 448 L 202 448 Z M 24 287 L 24 374 L 476 374 L 476 287 L 24 287 Z M 202 94 L 202 212 L 298 212 L 298 94 L 202 94 Z" unicode="÷" />
<glyph horiz-adv-x="593" d="M 292 -11 C 263 -11 235 -6 207 2 C 179 11 154 24 132 41 L 77 -14 L 28 35 L 83 90 C 68 110 56 132 48 158 C 39 184 35 212 35 243 C 35 279 42 313 56 345 C 70 377 88 404 112 428 C 135 451 162 469 194 483 C 225 496 258 503 292 503 C 322 503 350 499 378 491 C 405 483 430 471 452 457 L 509 513 L 557 465 L 503 411 C 519 391 532 368 542 342 C 552 316 557 287 557 257 C 557 217 550 181 536 148 C 522 115 503 87 479 64 C 455 40 426 22 394 9 C 362 -4 328 -11 292 -11 Z M 141 244 C 141 228 142 214 145 200 C 148 186 152 174 157 164 L 382 387 C 369 395 355 401 339 405 C 323 409 307 412 289 412 C 246 412 211 396 183 365 C 155 334 141 294 141 244 Z M 452 252 C 452 268 450 283 446 297 C 442 311 436 325 430 338 L 201 109 C 213 99 228 91 244 86 C 260 81 278 79 297 79 C 342 79 379 95 408 127 C 437 159 452 201 452 252 Z" unicode="ø" />
<glyph horiz-adv-x="587" d="M 67 0 L 67 0 Z M 67 490 L 169 490 L 169 181 C 169 144 179 117 201 100 C 223 82 251 74 285 74 C 319 74 349 84 374 105 C 398 126 411 156 411 194 L 411 490 L 513 490 L 513 0 L 417 0 L 417 92 C 405 64 384 39 354 19 C 324 0 287 -11 244 -11 C 219 -11 196 -7 175 0 C 153 6 135 17 119 31 C 103 45 90 62 81 83 C 71 103 67 127 67 155 L 67 490 Z M 290 545 L 290 545 Z M 403 545 L 300 545 L 177 707 L 297 707 L 403 545 Z" unicode="ù" />
<glyph horiz-adv-x="587" d="M 67 0 L 67 0 Z M 67 490 L 169 490 L 169 181 C 169 144 179 117 201 100 C 223 82 251 74 285 74 C 319 74 349 84 374 105 C 398 126 411 156 411 194 L 411 490 L 513 490 L 513 0 L 417 0 L 417 92 C 405 64 384 39 354 19 C 324 0 287 -11 244 -11 C 219 -11 196 -7 175 0 C 153 6 135 17 119 31 C 103 45 90 62 81 83 C 71 103 67 127 67 155 L 67 490 Z M 290 550 L 290 550 Z M 178 550 L 282 712 L 403 712 L 280 550 L 178 550 Z" unicode="ú" />
<glyph horiz-adv-x="587" d="M 67 0 L 67 0 Z M 67 490 L 169 490 L 169 181 C 169 144 179 117 201 100 C 223 82 251 74 285 74 C 319 74 349 84 374 105 C 398 126 411 156 411 194 L 411 490 L 513 490 L 513 0 L 417 0 L 417 92 C 405 64 384 39 354 19 C 324 0 287 -11 244 -11 C 219 -11 196 -7 175 0 C 153 6 135 17 119 31 C 103 45 90 62 81 83 C 71 103 67 127 67 155 L 67 490 Z M 290 546 L 290 546 Z M 466 546 L 371 546 L 290 651 L 208 546 L 115 546 L 238 718 L 343 718 L 466 546 Z" unicode="û" />
<glyph horiz-adv-x="587" d="M 67 0 L 67 0 Z M 67 490 L 169 490 L 169 181 C 169 144 179 117 201 100 C 223 82 251 74 285 74 C 319 74 349 84 374 105 C 398 126 411 156 411 194 L 411 490 L 513 490 L 513 0 L 417 0 L 417 92 C 405 64 384 39 354 19 C 324 0 287 -11 244 -11 C 219 -11 196 -7 175 0 C 153 6 135 17 119 31 C 103 45 90 62 81 83 C 71 103 67 127 67 155 L 67 490 Z M 290 546 L 290 546 Z M 427 546 L 341 546 L 341 704 L 427 704 L 427 546 Z M 239 546 L 153 546 L 153 704 L 239 704 L 239 546 Z" unicode="ü" />
<glyph horiz-adv-x="520" d="M 0 0 L 0 0 Z M 522 490 L 249 -82 C 226 -129 199 -160 168 -176 C 136 -192 107 -200 80 -200 C 64 -200 50 -198 38 -195 C 26 -191 18 -189 13 -187 L 43 -94 C 46 -96 52 -98 60 -100 C 68 -102 76 -104 85 -104 C 101 -104 115 -99 129 -89 C 142 -79 155 -60 169 -34 L 206 40 L -4 490 L 107 490 L 260 147 L 416 490 L 522 490 Z M 260 550 L 260 550 Z M 148 550 L 252 712 L 373 712 L 250 550 L 148 550 Z" unicode="ý" />
<glyph horiz-adv-x="606" d="M 73 -197 L 73 765 L 173 765 L 173 392 C 181 418 201 443 232 467 C 262 490 302 502 351 502 C 415 502 467 479 509 434 C 550 388 571 329 571 255 C 571 214 565 177 553 145 C 541 113 524 85 504 63 C 484 41 460 24 433 12 C 406 0 378 -6 349 -6 C 305 -6 267 3 236 23 C 205 43 185 66 175 93 L 175 -197 L 73 -197 Z M 322 77 C 362 77 396 92 424 123 C 451 154 465 196 465 248 C 465 296 452 336 428 369 C 403 401 367 418 321 418 C 279 418 243 403 215 374 C 186 344 172 301 172 243 C 172 185 186 143 216 117 C 246 90 281 77 322 77 Z" unicode="þ" />
<glyph horiz-adv-x="520" d="M 0 0 L 0 0 Z M 522 490 L 249 -82 C 226 -129 199 -160 168 -176 C 136 -192 107 -200 80 -200 C 64 -200 50 -198 38 -195 C 26 -191 18 -189 13 -187 L 43 -94 C 46 -96 52 -98 60 -100 C 68 -102 76 -104 85 -104 C 101 -104 115 -99 129 -89 C 142 -79 155 -60 169 -34 L 206 40 L -4 490 L 107 490 L 260 147 L 416 490 L 522 490 Z M 260 546 L 260 546 Z M 397 546 L 311 546 L 311 704 L 397 704 L 397 546 Z M 209 546 L 123 546 L 123 704 L 209 704 L 209 546 Z" unicode="ÿ" />
<glyph horiz-adv-x="661" d="M 1 0 L 1 0 Z M 660 0 L 544 0 L 471 181 L 181 181 L 111 0 L 1 0 L 299 733 L 367 733 L 660 0 Z M 441 270 L 326 560 L 212 270 L 441 270 Z M 328 801 L 328 801 Z M 462 801 L 194 801 L 194 883 L 462 883 L 462 801 Z" unicode="Ā" />
<glyph horiz-adv-x="538" d="M 30 0 L 30 0 Z M 475 0 L 377 0 L 377 64 C 361 43 338 25 310 11 C 281 -2 246 -10 205 -10 C 147 -10 104 4 74 32 C 44 60 30 96 30 141 C 30 194 50 235 92 265 C 133 295 191 312 267 317 L 375 323 L 375 331 C 375 359 365 381 347 396 C 328 410 302 418 268 418 C 236 418 207 412 179 401 C 151 390 128 378 108 366 L 66 438 C 88 454 117 469 153 483 C 189 496 231 503 279 503 C 338 503 385 489 421 461 C 457 433 475 389 475 329 L 475 0 Z M 377 134 L 377 245 L 264 240 C 224 238 193 229 169 214 C 145 199 134 177 134 149 C 134 125 143 106 161 93 C 179 79 202 73 231 73 C 261 73 290 79 317 91 C 344 103 364 118 377 134 Z M 264 561 L 264 561 Z M 398 561 L 130 561 L 130 643 L 398 643 L 398 561 Z" unicode="ā" />
<glyph horiz-adv-x="661" d="M 1 0 L 1 0 Z M 660 0 L 544 0 L 471 181 L 181 181 L 111 0 L 1 0 L 299 733 L 367 733 L 660 0 Z M 441 270 L 326 560 L 212 270 L 441 270 Z M 328 789 L 328 789 Z M 404 948 L 489 948 C 485 892 468 852 438 827 C 408 801 372 789 328 789 C 284 789 247 801 217 827 C 187 852 171 892 167 948 L 252 948 C 254 919 261 896 273 878 C 285 860 303 852 328 852 C 352 852 371 860 383 877 C 395 893 402 917 404 948 Z" unicode="Ă" />
<glyph horiz-adv-x="538" d="M 30 0 L 30 0 Z M 475 0 L 377 0 L 377 64 C 361 43 338 25 310 11 C 281 -2 246 -10 205 -10 C 147 -10 104 4 74 32 C 44 60 30 96 30 141 C 30 194 50 235 92 265 C 133 295 191 312 267 317 L 375 323 L 375 331 C 375 359 365 381 347 396 C 328 410 302 418 268 418 C 236 418 207 412 179 401 C 151 390 128 378 108 366 L 66 438 C 88 454 117 469 153 483 C 189 496 231 503 279 503 C 338 503 385 489 421 461 C 457 433 475 389 475 329 L 475 0 Z M 377 134 L 377 245 L 264 240 C 224 238 193 229 169 214 C 145 199 134 177 134 149 C 134 125 143 106 161 93 C 179 79 202 73 231 73 C 261 73 290 79 317 91 C 344 103 364 118 377 134 Z M 264 549 L 264 549 Z M 340 708 L 425 708 C 421 652 404 612 374 587 C 344 561 308 549 264 549 C 220 549 183 561 153 587 C 123 612 107 652 103 708 L 188 708 C 190 679 197 656 209 638 C 221 620 239 612 264 612 C 288 612 307 620 319 637 C 331 653 338 677 340 708 Z" unicode="ă" />
<glyph horiz-adv-x="661" d="M 1 0 L 1 0 Z M 660 0 L 544 0 L 471 181 L 181 181 L 111 0 L 1 0 L 299 733 L 367 733 L 660 0 Z M 441 270 L 326 560 L 212 270 L 441 270 Z M 557 -7 L 557 -7 Z M 661 -91 L 690 -133 C 669 -154 646 -170 621 -181 C 595 -192 567 -198 537 -198 C 502 -198 475 -190 455 -176 C 435 -161 425 -142 425 -120 C 425 -96 435 -73 457 -52 C 478 -30 507 -12 544 3 L 598 3 C 571 -10 550 -24 535 -38 C 519 -52 512 -65 512 -79 C 512 -92 517 -102 528 -110 C 539 -118 553 -122 570 -122 C 589 -122 606 -119 622 -113 C 638 -107 651 -99 661 -91 Z" unicode="Ą" />
<glyph horiz-adv-x="538" d="M 30 0 L 30 0 Z M 475 0 L 377 0 L 377 64 C 361 43 338 25 310 11 C 281 -2 246 -10 205 -10 C 147 -10 104 4 74 32 C 44 60 30 96 30 141 C 30 194 50 235 92 265 C 133 295 191 312 267 317 L 375 323 L 375 331 C 375 359 365 381 347 396 C 328 410 302 418 268 418 C 236 418 207 412 179 401 C 151 390 128 378 108 366 L 66 438 C 88 454 117 469 153 483 C 189 496 231 503 279 503 C 338 503 385 489 421 461 C 457 433 475 389 475 329 L 475 0 Z M 377 134 L 377 245 L 264 240 C 224 238 193 229 169 214 C 145 199 134 177 134 149 C 134 125 143 106 161 93 C 179 79 202 73 231 73 C 261 73 290 79 317 91 C 344 103 364 118 377 134 Z M 397 -7 L 397 -7 Z M 501 -91 L 530 -133 C 509 -154 486 -170 461 -181 C 435 -192 407 -198 377 -198 C 342 -198 315 -190 295 -176 C 275 -161 265 -142 265 -120 C 265 -96 275 -73 297 -52 C 318 -30 347 -12 384 3 L 438 3 C 411 -10 390 -24 375 -38 C 359 -52 352 -65 352 -79 C 352 -92 357 -102 368 -110 C 379 -118 393 -122 410 -122 C 429 -122 446 -119 462 -113 C 478 -107 491 -99 501 -91 Z" unicode="ą" />
<glyph horiz-adv-x="726" d="M 46 0 L 46 0 Z M 407 -12 C 357 -12 311 -3 267 14 C 223 31 184 56 152 88 C 119 120 93 160 74 207 C 55 253 46 306 46 365 C 46 419 55 470 73 516 C 91 562 117 602 149 636 C 181 669 219 695 264 714 C 308 732 357 742 409 742 C 475 742 531 732 578 713 C 624 693 663 665 694 629 L 619 549 C 597 574 570 595 536 613 C 502 630 461 639 412 639 C 372 639 336 632 304 619 C 272 605 246 587 225 563 C 203 539 187 510 176 476 C 164 442 159 405 159 365 C 159 319 166 278 180 243 C 194 208 213 179 237 156 C 261 133 288 116 319 105 C 350 93 382 88 416 88 C 467 88 511 98 547 118 C 583 138 613 163 637 194 L 709 129 C 679 89 639 55 587 28 C 535 1 475 -12 407 -12 Z M 409 790 L 409 790 Z M 297 790 L 401 952 L 522 952 L 399 790 L 297 790 Z" unicode="Ć" />
<glyph horiz-adv-x="528" d="M 35 0 L 35 0 Z M 429 160 L 512 109 C 493 79 466 51 431 26 C 396 1 349 -11 289 -11 C 251 -11 217 -4 186 7 C 154 19 127 37 105 59 C 83 81 65 108 53 140 C 41 172 35 206 35 244 C 35 281 41 315 54 347 C 67 379 85 406 108 429 C 131 452 158 470 190 483 C 222 496 256 503 293 503 C 323 503 350 499 374 492 C 398 484 419 475 437 463 C 455 451 470 437 482 422 C 494 407 504 392 511 376 L 419 332 C 408 354 392 372 372 388 C 352 403 325 411 291 411 C 247 411 211 394 183 362 C 155 330 141 291 141 245 C 141 196 154 156 182 126 C 209 95 246 80 292 80 C 330 80 360 88 381 106 C 402 124 418 142 429 160 Z M 285 550 L 285 550 Z M 173 550 L 277 712 L 398 712 L 275 550 L 173 550 Z" unicode="ć" />
<glyph horiz-adv-x="726" d="M 46 0 L 46 0 Z M 407 -12 C 357 -12 311 -3 267 14 C 223 31 184 56 152 88 C 119 120 93 160 74 207 C 55 253 46 306 46 365 C 46 419 55 470 73 516 C 91 562 117 602 149 636 C 181 669 219 695 264 714 C 308 732 357 742 409 742 C 475 742 531 732 578 713 C 624 693 663 665 694 629 L 619 549 C 597 574 570 595 536 613 C 502 630 461 639 412 639 C 372 639 336 632 304 619 C 272 605 246 587 225 563 C 203 539 187 510 176 476 C 164 442 159 405 159 365 C 159 319 166 278 180 243 C 194 208 213 179 237 156 C 261 133 288 116 319 105 C 350 93 382 88 416 88 C 467 88 511 98 547 118 C 583 138 613 163 637 194 L 709 129 C 679 89 639 55 587 28 C 535 1 475 -12 407 -12 Z M 409 786 L 409 786 Z M 585 786 L 490 786 L 409 891 L 327 786 L 234 786 L 357 958 L 462 958 L 585 786 Z" unicode="Ĉ" />
<glyph horiz-adv-x="528" d="M 35 0 L 35 0 Z M 429 160 L 512 109 C 493 79 466 51 431 26 C 396 1 349 -11 289 -11 C 251 -11 217 -4 186 7 C 154 19 127 37 105 59 C 83 81 65 108 53 140 C 41 172 35 206 35 244 C 35 281 41 315 54 347 C 67 379 85 406 108 429 C 131 452 158 470 190 483 C 222 496 256 503 293 503 C 323 503 350 499 374 492 C 398 484 419 475 437 463 C 455 451 470 437 482 422 C 494 407 504 392 511 376 L 419 332 C 408 354 392 372 372 388 C 352 403 325 411 291 411 C 247 411 211 394 183 362 C 155 330 141 291 141 245 C 141 196 154 156 182 126 C 209 95 246 80 292 80 C 330 80 360 88 381 106 C 402 124 418 142 429 160 Z M 285 546 L 285 546 Z M 461 546 L 366 546 L 285 651 L 203 546 L 110 546 L 233 718 L 338 718 L 461 546 Z" unicode="ĉ" />
<glyph horiz-adv-x="726" d="M 46 0 L 46 0 Z M 407 -12 C 357 -12 311 -3 267 14 C 223 31 184 56 152 88 C 119 120 93 160 74 207 C 55 253 46 306 46 365 C 46 419 55 470 73 516 C 91 562 117 602 149 636 C 181 669 219 695 264 714 C 308 732 357 742 409 742 C 475 742 531 732 578 713 C 624 693 663 665 694 629 L 619 549 C 597 574 570 595 536 613 C 502 630 461 639 412 639 C 372 639 336 632 304 619 C 272 605 246 587 225 563 C 203 539 187 510 176 476 C 164 442 159 405 159 365 C 159 319 166 278 180 243 C 194 208 213 179 237 156 C 261 133 288 116 319 105 C 350 93 382 88 416 88 C 467 88 511 98 547 118 C 583 138 613 163 637 194 L 709 129 C 679 89 639 55 587 28 C 535 1 475 -12 407 -12 Z M 409 786 L 409 786 Z M 456 786 L 363 786 L 363 950 L 456 950 L 456 786 Z" unicode="Ċ" />
<glyph horiz-adv-x="528" d="M 35 0 L 35 0 Z M 429 160 L 512 109 C 493 79 466 51 431 26 C 396 1 349 -11 289 -11 C 251 -11 217 -4 186 7 C 154 19 127 37 105 59 C 83 81 65 108 53 140 C 41 172 35 206 35 244 C 35 281 41 315 54 347 C 67 379 85 406 108 429 C 131 452 158 470 190 483 C 222 496 256 503 293 503 C 323 503 350 499 374 492 C 398 484 419 475 437 463 C 455 451 470 437 482 422 C 494 407 504 392 511 376 L 419 332 C 408 354 392 372 372 388 C 352 403 325 411 291 411 C 247 411 211 394 183 362 C 155 330 141 291 141 245 C 141 196 154 156 182 126 C 209 95 246 80 292 80 C 330 80 360 88 381 106 C 402 124 418 142 429 160 Z M 285 546 L 285 546 Z M 332 546 L 239 546 L 239 710 L 332 710 L 332 546 Z" unicode="ċ" />
<glyph horiz-adv-x="726" d="M 46 0 L 46 0 Z M 407 -12 C 357 -12 311 -3 267 14 C 223 31 184 56 152 88 C 119 120 93 160 74 207 C 55 253 46 306 46 365 C 46 419 55 470 73 516 C 91 562 117 602 149 636 C 181 669 219 695 264 714 C 308 732 357 742 409 742 C 475 742 531 732 578 713 C 624 693 663 665 694 629 L 619 549 C 597 574 570 595 536 613 C 502 630 461 639 412 639 C 372 639 336 632 304 619 C 272 605 246 587 225 563 C 203 539 187 510 176 476 C 164 442 159 405 159 365 C 159 319 166 278 180 243 C 194 208 213 179 237 156 C 261 133 288 116 319 105 C 350 93 382 88 416 88 C 467 88 511 98 547 118 C 583 138 613 163 637 194 L 709 129 C 679 89 639 55 587 28 C 535 1 475 -12 407 -12 Z M 409 786 L 409 786 Z M 234 958 L 329 958 L 410 852 L 492 958 L 585 958 L 462 786 L 357 786 L 234 958 Z" unicode="Č" />
<glyph horiz-adv-x="528" d="M 35 0 L 35 0 Z M 429 160 L 512 109 C 493 79 466 51 431 26 C 396 1 349 -11 289 -11 C 251 -11 217 -4 186 7 C 154 19 127 37 105 59 C 83 81 65 108 53 140 C 41 172 35 206 35 244 C 35 281 41 315 54 347 C 67 379 85 406 108 429 C 131 452 158 470 190 483 C 222 496 256 503 293 503 C 323 503 350 499 374 492 C 398 484 419 475 437 463 C 455 451 470 437 482 422 C 494 407 504 392 511 376 L 419 332 C 408 354 392 372 372 388 C 352 403 325 411 291 411 C 247 411 211 394 183 362 C 155 330 141 291 141 245 C 141 196 154 156 182 126 C 209 95 246 80 292 80 C 330 80 360 88 381 106 C 402 124 418 142 429 160 Z M 285 546 L 285 546 Z M 110 718 L 205 718 L 286 612 L 368 718 L 461 718 L 338 546 L 233 546 L 110 718 Z" unicode="č" />
<glyph horiz-adv-x="752" d="M 94 0 L 94 0 Z M 94 0 L 94 730 L 321 730 C 381 730 435 721 483 704 C 531 687 571 663 604 633 C 636 602 661 565 679 521 C 696 477 705 429 705 377 C 705 324 696 274 679 228 C 661 182 636 142 603 108 C 569 74 528 48 478 29 C 428 9 370 0 305 0 L 94 0 Z M 204 93 L 303 93 C 351 93 394 100 430 115 C 466 129 496 149 520 175 C 543 201 560 231 572 265 C 584 299 590 336 590 375 C 590 452 565 515 517 563 C 469 611 402 636 317 636 L 204 636 L 204 93 Z M 360 786 L 360 786 Z M 185 958 L 280 958 L 361 852 L 443 958 L 536 958 L 413 786 L 308 786 L 185 958 Z" unicode="Ď" />
<glyph horiz-adv-x="605" d="M 35 0 L 35 0 Z M 264 -9 C 230 -9 199 -3 171 9 C 143 21 119 38 99 60 C 79 82 63 108 52 139 C 40 169 35 203 35 241 C 35 279 41 314 54 346 C 66 378 83 405 105 429 C 126 452 151 470 180 483 C 208 496 239 503 271 503 C 309 503 342 493 372 475 C 401 456 421 435 432 411 L 432 765 L 531 765 L 531 0 L 436 0 L 436 100 C 432 88 425 75 415 62 C 405 49 392 37 378 27 C 363 17 346 8 327 1 C 307 -5 286 -9 264 -9 Z M 288 75 C 330 75 365 91 393 123 C 420 155 434 198 434 250 C 434 278 430 303 422 324 C 414 345 403 362 390 376 C 376 390 361 400 343 407 C 325 414 306 418 287 418 C 243 418 207 402 181 371 C 154 339 141 298 141 246 C 141 198 153 157 179 124 C 205 91 241 75 288 75 Z M 677 610 L 672 463 L 586 463 L 581 610 L 581 730 L 677 730 L 677 610 Z" unicode="ď" />
<glyph horiz-adv-x="752" d="M 35 0 L 35 0 Z M 705 367 C 705 316 696 268 679 224 C 661 179 636 140 603 107 C 569 74 528 48 478 29 C 428 9 370 0 305 0 L 94 0 L 94 314 L 35 314 L 35 400 L 94 400 L 94 730 L 321 730 C 382 730 437 721 485 704 C 533 686 573 662 605 631 C 637 599 662 561 679 516 C 696 471 705 421 705 367 Z M 201 90 L 299 90 C 351 90 395 97 433 113 C 470 129 500 149 524 175 C 547 200 564 229 575 263 C 585 296 591 330 591 365 C 591 449 567 515 519 564 C 471 613 405 638 320 638 L 201 638 L 201 400 L 374 400 L 374 314 L 201 314 L 201 90 Z" unicode="Đ" />
<glyph horiz-adv-x="605" d="M 436 100 C 432 88 425 75 415 62 C 405 49 392 37 378 27 C 363 17 346 8 327 1 C 307 -5 286 -9 264 -9 C 230 -9 199 -3 171 9 C 143 21 119 38 99 60 C 79 82 63 108 52 139 C 40 169 35 203 35 241 C 35 279 41 314 54 346 C 66 378 83 405 105 429 C 126 452 151 470 180 483 C 208 496 239 503 271 503 C 309 503 342 493 372 475 C 401 456 421 435 432 411 L 432 582 L 290 582 L 290 670 L 432 670 L 432 765 L 531 765 L 531 670 L 595 670 L 595 582 L 531 582 L 531 0 L 436 0 L 436 100 Z M 288 75 C 330 75 365 91 393 123 C 420 155 434 198 434 250 C 434 278 430 303 422 324 C 414 345 403 362 390 376 C 376 390 361 400 343 407 C 325 414 306 418 287 418 C 243 418 207 402 181 371 C 154 339 141 298 141 246 C 141 198 153 157 179 124 C 205 91 241 75 288 75 Z" unicode="đ" />
<glyph horiz-adv-x="590" d="M 94 0 L 94 0 Z M 537 0 L 94 0 L 94 730 L 518 730 L 518 632 L 202 632 L 202 411 L 502 411 L 502 314 L 202 314 L 202 98 L 537 98 L 537 0 Z M 312 801 L 312 801 Z M 446 801 L 178 801 L 178 883 L 446 883 L 446 801 Z" unicode="Ē" />
<glyph horiz-adv-x="567" d="M 36 0 L 36 0 Z M 299 -11 C 261 -11 225 -5 193 6 C 161 17 133 33 110 55 C 87 77 69 103 56 135 C 42 167 36 203 36 243 C 36 279 42 312 55 344 C 67 376 85 403 108 427 C 130 450 157 468 189 482 C 221 496 255 503 293 503 C 367 503 426 477 472 427 C 517 376 540 304 540 212 L 135 212 C 137 174 152 143 180 117 C 208 91 247 78 297 78 C 337 78 369 84 393 97 C 417 110 436 125 450 142 L 514 76 C 491 51 464 30 432 14 C 400 -2 355 -11 299 -11 Z M 136 290 L 438 290 C 436 325 421 355 395 379 C 368 403 333 416 289 416 C 245 416 210 403 182 378 C 154 352 139 323 136 290 Z M 289 561 L 289 561 Z M 423 561 L 155 561 L 155 643 L 423 643 L 423 561 Z" unicode="ē" />
<glyph horiz-adv-x="590" d="M 94 0 L 94 0 Z M 537 0 L 94 0 L 94 730 L 518 730 L 518 632 L 202 632 L 202 411 L 502 411 L 502 314 L 202 314 L 202 98 L 537 98 L 537 0 Z M 312 789 L 312 789 Z M 388 948 L 473 948 C 469 892 452 852 422 827 C 392 801 356 789 312 789 C 268 789 231 801 201 827 C 171 852 155 892 151 948 L 236 948 C 238 919 245 896 257 878 C 269 860 287 852 312 852 C 336 852 355 860 367 877 C 379 893 386 917 388 948 Z" unicode="Ĕ" />
<glyph horiz-adv-x="567" d="M 36 0 L 36 0 Z M 299 -11 C 261 -11 225 -5 193 6 C 161 17 133 33 110 55 C 87 77 69 103 56 135 C 42 167 36 203 36 243 C 36 279 42 312 55 344 C 67 376 85 403 108 427 C 130 450 157 468 189 482 C 221 496 255 503 293 503 C 367 503 426 477 472 427 C 517 376 540 304 540 212 L 135 212 C 137 174 152 143 180 117 C 208 91 247 78 297 78 C 337 78 369 84 393 97 C 417 110 436 125 450 142 L 514 76 C 491 51 464 30 432 14 C 400 -2 355 -11 299 -11 Z M 136 290 L 438 290 C 436 325 421 355 395 379 C 368 403 333 416 289 416 C 245 416 210 403 182 378 C 154 352 139 323 136 290 Z M 289 549 L 289 549 Z M 365 708 L 450 708 C 446 652 429 612 399 587 C 369 561 333 549 289 549 C 245 549 208 561 178 587 C 148 612 132 652 128 708 L 213 708 C 215 679 222 656 234 638 C 246 620 264 612 289 612 C 313 612 332 620 344 637 C 356 653 363 677 365 708 Z" unicode="ĕ" />
<glyph horiz-adv-x="590" d="M 94 0 L 94 0 Z M 537 0 L 94 0 L 94 730 L 518 730 L 518 632 L 202 632 L 202 411 L 502 411 L 502 314 L 202 314 L 202 98 L 537 98 L 537 0 Z M 312 786 L 312 786 Z M 359 786 L 266 786 L 266 950 L 359 950 L 359 786 Z" unicode="Ė" />
<glyph horiz-adv-x="567" d="M 36 0 L 36 0 Z M 299 -11 C 261 -11 225 -5 193 6 C 161 17 133 33 110 55 C 87 77 69 103 56 135 C 42 167 36 203 36 243 C 36 279 42 312 55 344 C 67 376 85 403 108 427 C 130 450 157 468 189 482 C 221 496 255 503 293 503 C 367 503 426 477 472 427 C 517 376 540 304 540 212 L 135 212 C 137 174 152 143 180 117 C 208 91 247 78 297 78 C 337 78 369 84 393 97 C 417 110 436 125 450 142 L 514 76 C 491 51 464 30 432 14 C 400 -2 355 -11 299 -11 Z M 136 290 L 438 290 C 436 325 421 355 395 379 C 368 403 333 416 289 416 C 245 416 210 403 182 378 C 154 352 139 323 136 290 Z M 289 546 L 289 546 Z M 336 546 L 243 546 L 243 710 L 336 710 L 336 546 Z" unicode="ė" />
<glyph horiz-adv-x="590" d="M 94 0 L 94 0 Z M 537 0 L 94 0 L 94 730 L 518 730 L 518 632 L 202 632 L 202 411 L 502 411 L 502 314 L 202 314 L 202 98 L 537 98 L 537 0 Z M 496 -7 L 496 -7 Z M 600 -91 L 629 -133 C 608 -154 585 -170 560 -181 C 534 -192 506 -198 476 -198 C 441 -198 414 -190 394 -176 C 374 -161 364 -142 364 -120 C 364 -96 374 -73 396 -52 C 417 -30 446 -12 483 3 L 537 3 C 510 -10 489 -24 474 -38 C 458 -52 451 -65 451 -79 C 451 -92 456 -102 467 -110 C 478 -118 492 -122 509 -122 C 528 -122 545 -119 561 -113 C 577 -107 590 -99 600 -91 Z" unicode="Ę" />
<glyph horiz-adv-x="567" d="M 36 0 L 36 0 Z M 299 -11 C 261 -11 225 -5 193 6 C 161 17 133 33 110 55 C 87 77 69 103 56 135 C 42 167 36 203 36 243 C 36 279 42 312 55 344 C 67 376 85 403 108 427 C 130 450 157 468 189 482 C 221 496 255 503 293 503 C 367 503 426 477 472 427 C 517 376 540 304 540 212 L 135 212 C 137 174 152 143 180 117 C 208 91 247 78 297 78 C 337 78 369 84 393 97 C 417 110 436 125 450 142 L 514 76 C 491 51 464 30 432 14 C 400 -2 355 -11 299 -11 Z M 136 290 L 438 290 C 436 325 421 355 395 379 C 368 403 333 416 289 416 C 245 416 210 403 182 378 C 154 352 139 323 136 290 Z M 359 -7 L 359 -7 Z M 463 -91 L 492 -133 C 471 -154 448 -170 423 -181 C 397 -192 369 -198 339 -198 C 304 -198 277 -190 257 -176 C 237 -161 227 -142 227 -120 C 227 -96 237 -73 259 -52 C 280 -30 309 -12 346 3 L 400 3 C 373 -10 352 -24 337 -38 C 321 -52 314 -65 314 -79 C 314 -92 319 -102 330 -110 C 341 -118 355 -122 372 -122 C 391 -122 408 -119 424 -113 C 440 -107 453 -99 463 -91 Z" unicode="ę" />
<glyph horiz-adv-x="590" d="M 94 0 L 94 0 Z M 537 0 L 94 0 L 94 730 L 518 730 L 518 632 L 202 632 L 202 411 L 502 411 L 502 314 L 202 314 L 202 98 L 537 98 L 537 0 Z M 312 786 L 312 786 Z M 137 958 L 232 958 L 313 852 L 395 958 L 488 958 L 365 786 L 260 786 L 137 958 Z" unicode="Ě" />
<glyph horiz-adv-x="567" d="M 36 0 L 36 0 Z M 299 -11 C 261 -11 225 -5 193 6 C 161 17 133 33 110 55 C 87 77 69 103 56 135 C 42 167 36 203 36 243 C 36 279 42 312 55 344 C 67 376 85 403 108 427 C 130 450 157 468 189 482 C 221 496 255 503 293 503 C 367 503 426 477 472 427 C 517 376 540 304 540 212 L 135 212 C 137 174 152 143 180 117 C 208 91 247 78 297 78 C 337 78 369 84 393 97 C 417 110 436 125 450 142 L 514 76 C 491 51 464 30 432 14 C 400 -2 355 -11 299 -11 Z M 136 290 L 438 290 C 436 325 421 355 395 379 C 368 403 333 416 289 416 C 245 416 210 403 182 378 C 154 352 139 323 136 290 Z M 289 546 L 289 546 Z M 114 718 L 209 718 L 290 612 L 372 718 L 465 718 L 342 546 L 237 546 L 114 718 Z" unicode="ě" />
<glyph horiz-adv-x="782" d="M 46 0 L 46 0 Z M 424 372 L 734 372 L 734 152 C 706 103 664 63 609 33 C 553 3 489 -12 417 -12 C 364 -12 315 -2 270 15 C 224 33 185 59 152 92 C 119 124 93 164 74 211 C 55 257 46 309 46 365 C 46 423 56 475 76 522 C 96 568 122 608 156 640 C 190 672 229 697 275 715 C 320 733 368 742 418 742 C 454 742 486 738 515 732 C 543 726 568 718 590 708 C 612 698 631 686 647 674 C 663 661 676 649 687 637 L 615 559 C 595 579 570 597 539 614 C 507 630 466 639 414 639 C 378 639 344 632 312 620 C 280 607 253 589 230 566 C 207 542 189 514 176 480 C 163 446 157 409 157 367 C 157 326 163 288 177 253 C 190 218 208 188 232 163 C 255 138 283 118 315 104 C 347 90 383 83 421 83 C 469 83 513 92 552 111 C 590 129 618 155 635 187 L 635 274 L 424 274 L 424 372 Z M 418 786 L 418 786 Z M 594 786 L 499 786 L 418 891 L 336 786 L 243 786 L 366 958 L 471 958 L 594 786 Z" unicode="Ĝ" />
<glyph horiz-adv-x="602" d="M 36 0 L 36 0 Z M 263 2 C 229 2 199 8 171 20 C 143 32 119 49 99 71 C 79 92 63 118 52 148 C 41 178 36 212 36 248 C 36 285 41 319 53 351 C 64 382 80 409 100 431 C 120 453 145 471 173 483 C 201 495 232 502 266 502 C 307 502 343 492 374 473 C 404 454 425 431 436 405 L 436 490 L 531 490 L 531 55 C 531 11 523 -25 508 -57 C 493 -89 473 -115 449 -135 C 425 -155 397 -171 365 -181 C 333 -191 301 -196 268 -196 C 214 -196 171 -190 141 -180 C 110 -170 87 -160 73 -150 L 115 -67 C 127 -75 145 -85 170 -96 C 194 -106 224 -112 259 -112 C 282 -112 304 -108 325 -102 C 346 -96 364 -86 380 -74 C 396 -61 408 -45 418 -25 C 427 -5 432 16 432 42 L 432 109 C 427 96 419 83 409 71 C 399 58 386 46 372 36 C 358 26 341 17 323 11 C 304 5 284 2 263 2 Z M 290 82 C 308 82 326 85 344 93 C 361 101 376 112 390 126 C 403 140 414 158 422 180 C 430 201 434 225 434 253 C 434 301 420 340 392 370 C 364 400 329 415 286 415 C 244 415 209 399 182 369 C 154 338 141 297 141 245 C 141 194 154 154 181 125 C 207 96 244 82 290 82 Z M 277 546 L 277 546 Z M 453 546 L 358 546 L 277 651 L 195 546 L 102 546 L 225 718 L 330 718 L 453 546 Z" unicode="ĝ" />
<glyph horiz-adv-x="782" d="M 46 0 L 46 0 Z M 424 372 L 734 372 L 734 152 C 706 103 664 63 609 33 C 553 3 489 -12 417 -12 C 364 -12 315 -2 270 15 C 224 33 185 59 152 92 C 119 124 93 164 74 211 C 55 257 46 309 46 365 C 46 423 56 475 76 522 C 96 568 122 608 156 640 C 190 672 229 697 275 715 C 320 733 368 742 418 742 C 454 742 486 738 515 732 C 543 726 568 718 590 708 C 612 698 631 686 647 674 C 663 661 676 649 687 637 L 615 559 C 595 579 570 597 539 614 C 507 630 466 639 414 639 C 378 639 344 632 312 620 C 280 607 253 589 230 566 C 207 542 189 514 176 480 C 163 446 157 409 157 367 C 157 326 163 288 177 253 C 190 218 208 188 232 163 C 255 138 283 118 315 104 C 347 90 383 83 421 83 C 469 83 513 92 552 111 C 590 129 618 155 635 187 L 635 274 L 424 274 L 424 372 Z M 418 789 L 418 789 Z M 494 948 L 579 948 C 575 892 558 852 528 827 C 498 801 462 789 418 789 C 374 789 337 801 307 827 C 277 852 261 892 257 948 L 342 948 C 344 919 351 896 363 878 C 375 860 393 852 418 852 C 442 852 461 860 473 877 C 485 893 492 917 494 948 Z" unicode="Ğ" />
<glyph horiz-adv-x="602" d="M 36 0 L 36 0 Z M 263 2 C 229 2 199 8 171 20 C 143 32 119 49 99 71 C 79 92 63 118 52 148 C 41 178 36 212 36 248 C 36 285 41 319 53 351 C 64 382 80 409 100 431 C 120 453 145 471 173 483 C 201 495 232 502 266 502 C 307 502 343 492 374 473 C 404 454 425 431 436 405 L 436 490 L 531 490 L 531 55 C 531 11 523 -25 508 -57 C 493 -89 473 -115 449 -135 C 425 -155 397 -171 365 -181 C 333 -191 301 -196 268 -196 C 214 -196 171 -190 141 -180 C 110 -170 87 -160 73 -150 L 115 -67 C 127 -75 145 -85 170 -96 C 194 -106 224 -112 259 -112 C 282 -112 304 -108 325 -102 C 346 -96 364 -86 380 -74 C 396 -61 408 -45 418 -25 C 427 -5 432 16 432 42 L 432 109 C 427 96 419 83 409 71 C 399 58 386 46 372 36 C 358 26 341 17 323 11 C 304 5 284 2 263 2 Z M 290 82 C 308 82 326 85 344 93 C 361 101 376 112 390 126 C 403 140 414 158 422 180 C 430 201 434 225 434 253 C 434 301 420 340 392 370 C 364 400 329 415 286 415 C 244 415 209 399 182 369 C 154 338 141 297 141 245 C 141 194 154 154 181 125 C 207 96 244 82 290 82 Z M 277 549 L 277 549 Z M 353 708 L 438 708 C 434 652 417 612 387 587 C 357 561 321 549 277 549 C 233 549 196 561 166 587 C 136 612 120 652 116 708 L 201 708 C 203 679 210 656 222 638 C 234 620 252 612 277 612 C 301 612 320 620 332 637 C 344 653 351 677 353 708 Z" unicode="ğ" />
<glyph horiz-adv-x="782" d="M 46 0 L 46 0 Z M 424 372 L 734 372 L 734 152 C 706 103 664 63 609 33 C 553 3 489 -12 417 -12 C 364 -12 315 -2 270 15 C 224 33 185 59 152 92 C 119 124 93 164 74 211 C 55 257 46 309 46 365 C 46 423 56 475 76 522 C 96 568 122 608 156 640 C 190 672 229 697 275 715 C 320 733 368 742 418 742 C 454 742 486 738 515 732 C 543 726 568 718 590 708 C 612 698 631 686 647 674 C 663 661 676 649 687 637 L 615 559 C 595 579 570 597 539 614 C 507 630 466 639 414 639 C 378 639 344 632 312 620 C 280 607 253 589 230 566 C 207 542 189 514 176 480 C 163 446 157 409 157 367 C 157 326 163 288 177 253 C 190 218 208 188 232 163 C 255 138 283 118 315 104 C 347 90 383 83 421 83 C 469 83 513 92 552 111 C 590 129 618 155 635 187 L 635 274 L 424 274 L 424 372 Z M 418 786 L 418 786 Z M 465 786 L 372 786 L 372 950 L 465 950 L 465 786 Z" unicode="Ġ" />
<glyph horiz-adv-x="602" d="M 36 0 L 36 0 Z M 263 2 C 229 2 199 8 171 20 C 143 32 119 49 99 71 C 79 92 63 118 52 148 C 41 178 36 212 36 248 C 36 285 41 319 53 351 C 64 382 80 409 100 431 C 120 453 145 471 173 483 C 201 495 232 502 266 502 C 307 502 343 492 374 473 C 404 454 425 431 436 405 L 436 490 L 531 490 L 531 55 C 531 11 523 -25 508 -57 C 493 -89 473 -115 449 -135 C 425 -155 397 -171 365 -181 C 333 -191 301 -196 268 -196 C 214 -196 171 -190 141 -180 C 110 -170 87 -160 73 -150 L 115 -67 C 127 -75 145 -85 170 -96 C 194 -106 224 -112 259 -112 C 282 -112 304 -108 325 -102 C 346 -96 364 -86 380 -74 C 396 -61 408 -45 418 -25 C 427 -5 432 16 432 42 L 432 109 C 427 96 419 83 409 71 C 399 58 386 46 372 36 C 358 26 341 17 323 11 C 304 5 284 2 263 2 Z M 290 82 C 308 82 326 85 344 93 C 361 101 376 112 390 126 C 403 140 414 158 422 180 C 430 201 434 225 434 253 C 434 301 420 340 392 370 C 364 400 329 415 286 415 C 244 415 209 399 182 369 C 154 338 141 297 141 245 C 141 194 154 154 181 125 C 207 96 244 82 290 82 Z M 277 546 L 277 546 Z M 324 546 L 231 546 L 231 710 L 324 710 L 324 546 Z" unicode="ġ" />
<glyph horiz-adv-x="782" d="M 46 0 L 46 0 Z M 424 372 L 734 372 L 734 152 C 706 103 664 63 609 33 C 553 3 489 -12 417 -12 C 364 -12 315 -2 270 15 C 224 33 185 59 152 92 C 119 124 93 164 74 211 C 55 257 46 309 46 365 C 46 423 56 475 76 522 C 96 568 122 608 156 640 C 190 672 229 697 275 715 C 320 733 368 742 418 742 C 454 742 486 738 515 732 C 543 726 568 718 590 708 C 612 698 631 686 647 674 C 663 661 676 649 687 637 L 615 559 C 595 579 570 597 539 614 C 507 630 466 639 414 639 C 378 639 344 632 312 620 C 280 607 253 589 230 566 C 207 542 189 514 176 480 C 163 446 157 409 157 367 C 157 326 163 288 177 253 C 190 218 208 188 232 163 C 255 138 283 118 315 104 C 347 90 383 83 421 83 C 469 83 513 92 552 111 C 590 129 618 155 635 187 L 635 274 L 424 274 L 424 372 Z" unicode="Ģ" />
<glyph horiz-adv-x="602" d="M 36 0 L 36 0 Z M 263 2 C 229 2 199 8 171 20 C 143 32 119 49 99 71 C 79 92 63 118 52 148 C 41 178 36 212 36 248 C 36 285 41 319 53 351 C 64 382 80 409 100 431 C 120 453 145 471 173 483 C 201 495 232 502 266 502 C 307 502 343 492 374 473 C 404 454 425 431 436 405 L 436 490 L 531 490 L 531 55 C 531 11 523 -25 508 -57 C 493 -89 473 -115 449 -135 C 425 -155 397 -171 365 -181 C 333 -191 301 -196 268 -196 C 214 -196 171 -190 141 -180 C 110 -170 87 -160 73 -150 L 115 -67 C 127 -75 145 -85 170 -96 C 194 -106 224 -112 259 -112 C 282 -112 304 -108 325 -102 C 346 -96 364 -86 380 -74 C 396 -61 408 -45 418 -25 C 427 -5 432 16 432 42 L 432 109 C 427 96 419 83 409 71 C 399 58 386 46 372 36 C 358 26 341 17 323 11 C 304 5 284 2 263 2 Z M 290 82 C 308 82 326 85 344 93 C 361 101 376 112 390 126 C 403 140 414 158 422 180 C 430 201 434 225 434 253 C 434 301 420 340 392 370 C 364 400 329 415 286 415 C 244 415 209 399 182 369 C 154 338 141 297 141 245 C 141 194 154 154 181 125 C 207 96 244 82 290 82 Z" unicode="ģ" />
<glyph horiz-adv-x="768" d="M 94 0 L 94 0 Z M 674 0 L 564 0 L 564 310 L 204 310 L 204 0 L 94 0 L 94 730 L 204 730 L 204 410 L 564 410 L 564 730 L 674 730 L 674 0 Z M 383 786 L 383 786 Z M 559 786 L 464 786 L 383 891 L 301 786 L 208 786 L 331 958 L 436 958 L 559 786 Z" unicode="Ĥ" />
<glyph horiz-adv-x="587" d="M 73 0 L 73 0 Z M 520 0 L 418 0 L 418 322 C 418 351 407 374 387 391 C 367 408 340 417 308 417 C 292 417 276 414 260 409 C 244 404 229 397 217 387 C 205 377 195 364 187 349 C 179 334 176 317 176 297 L 176 0 L 73 0 L 73 765 L 168 765 L 168 399 C 176 427 196 452 228 472 C 260 492 299 503 345 503 C 393 503 435 489 469 461 C 503 433 520 395 520 346 L 520 0 Z M 319 821 L 319 821 Z M 495 821 L 400 821 L 319 926 L 237 821 L 144 821 L 267 993 L 372 993 L 495 821 Z" unicode="ĥ" />
<glyph horiz-adv-x="768" d="M 204 310 L 204 0 L 94 0 L 94 543 L 10 543 L 10 630 L 94 630 L 94 730 L 204 730 L 204 630 L 564 630 L 564 730 L 674 730 L 674 630 L 758 630 L 758 543 L 674 543 L 674 0 L 564 0 L 564 310 L 204 310 Z M 204 410 L 564 410 L 564 543 L 204 543 L 204 410 Z" unicode="Ħ" />
<glyph horiz-adv-x="587" d="M 176 297 L 176 0 L 73 0 L 73 583 L 10 583 L 10 670 L 73 670 L 73 765 L 168 765 L 168 670 L 319 670 L 319 583 L 168 583 L 168 399 C 176 427 196 452 228 472 C 260 492 299 503 345 503 C 393 503 435 489 469 461 C 503 433 520 395 520 346 L 520 0 L 418 0 L 418 322 C 418 351 407 374 387 391 C 367 408 340 417 308 417 C 292 417 276 414 260 409 C 244 404 229 397 217 387 C 205 377 195 364 187 349 C 179 334 176 317 176 297 Z" unicode="ħ" />
<glyph horiz-adv-x="306" d="M 0 0 L 0 0 Z M 208 0 L 98 0 L 98 730 L 208 730 L 208 0 Z M 153 791 L 153 791 Z M 245 932 L 323 932 C 323 884 316 848 302 825 C 288 802 268 791 244 791 C 225 791 209 794 195 802 C 181 809 168 816 158 823 C 147 829 137 836 127 843 C 117 850 108 854 99 854 C 89 854 81 848 75 838 C 69 828 65 813 65 795 L -13 795 C -13 842 -3 877 16 901 C 36 924 56 936 78 936 C 94 936 109 932 121 925 C 133 918 146 910 158 902 C 167 894 176 887 185 881 C 193 875 202 872 211 872 C 219 872 227 877 234 888 C 240 898 244 913 245 932 Z" unicode="Ĩ" />
<glyph horiz-adv-x="258" d="M 0 0 L 0 0 Z M 180 0 L 77 0 L 77 490 L 180 490 L 180 0 Z M 128 551 L 128 551 Z M 220 692 L 298 692 C 298 644 291 608 277 585 C 263 562 243 551 219 551 C 200 551 184 554 170 562 C 156 569 143 576 133 583 C 122 589 112 596 102 603 C 92 610 83 614 74 614 C 64 614 56 608 50 598 C 44 588 40 573 40 555 L -38 555 C -38 602 -28 637 -8 661 C 11 684 31 696 53 696 C 69 696 84 692 96 685 C 108 678 121 670 133 662 C 142 654 151 647 160 641 C 168 635 177 632 186 632 C 194 632 202 637 209 648 C 215 658 219 673 220 692 Z" unicode="ĩ" />
<glyph horiz-adv-x="306" d="M 19 0 L 19 0 Z M 208 0 L 98 0 L 98 730 L 208 730 L 208 0 Z M 153 801 L 153 801 Z M 287 801 L 19 801 L 19 883 L 287 883 L 287 801 Z" unicode="Ī" />
<glyph horiz-adv-x="258" d="M 0 0 L 0 0 Z M 180 0 L 77 0 L 77 490 L 180 490 L 180 0 Z M 128 561 L 128 561 Z M 262 561 L -6 561 L -6 643 L 262 643 L 262 561 Z" unicode="ī" />
<glyph horiz-adv-x="306" d="M 0 0 L 0 0 Z M 208 0 L 98 0 L 98 730 L 208 730 L 208 0 Z M 153 789 L 153 789 Z M 229 948 L 314 948 C 310 892 293 852 263 827 C 233 801 197 789 153 789 C 109 789 72 801 42 827 C 12 852 -4 892 -8 948 L 77 948 C 79 919 86 896 98 878 C 110 860 128 852 153 852 C 177 852 196 860 208 877 C 220 893 227 917 229 948 Z" unicode="Ĭ" />
<glyph horiz-adv-x="258" d="M 0 0 L 0 0 Z M 180 0 L 77 0 L 77 490 L 180 490 L 180 0 Z M 128 549 L 128 549 Z M 204 708 L 289 708 C 285 652 268 612 238 587 C 208 561 172 549 128 549 C 84 549 47 561 17 587 C -12 612 -29 652 -33 708 L 52 708 C 54 679 61 656 73 638 C 85 620 103 612 128 612 C 152 612 171 620 183 637 C 195 653 202 677 204 708 Z" unicode="ĭ" />
<glyph horiz-adv-x="306" d="M 0 0 L 0 0 Z M 208 0 L 98 0 L 98 730 L 208 730 L 208 0 Z M 112 -9 L 112 -9 Z M 216 -93 L 245 -135 C 224 -156 201 -172 176 -183 C 150 -194 122 -200 92 -200 C 57 -200 30 -192 10 -178 C -10 -163 -20 -144 -20 -122 C -20 -98 -9 -75 12 -54 C 33 -32 62 -14 99 1 L 153 1 C 126 -12 105 -26 90 -40 C 74 -54 67 -67 67 -81 C 67 -94 72 -104 83 -112 C 94 -120 108 -124 125 -124 C 144 -124 161 -121 177 -115 C 193 -109 206 -101 216 -93 Z" unicode="Į" />
<glyph horiz-adv-x="258" d="M 0 0 L 0 0 Z M 75 594 L 75 703 L 182 703 L 182 594 L 75 594 Z M 77 0 L 77 490 L 180 490 L 180 0 L 77 0 Z M 97 -7 L 97 -7 Z M 201 -91 L 230 -133 C 209 -154 186 -170 161 -181 C 135 -192 107 -198 77 -198 C 42 -198 15 -190 -5 -176 C -25 -161 -35 -142 -35 -120 C -35 -96 -24 -73 -3 -52 C 18 -30 47 -12 84 3 L 138 3 C 111 -10 90 -24 75 -38 C 59 -52 52 -65 52 -79 C 52 -92 57 -102 68 -110 C 79 -118 93 -122 110 -122 C 129 -122 146 -119 162 -113 C 178 -107 191 -99 201 -91 Z" unicode="į" />
<glyph horiz-adv-x="306" d="M 98 0 L 98 0 Z M 208 0 L 98 0 L 98 730 L 208 730 L 208 0 Z M 153 786 L 153 786 Z M 200 786 L 107 786 L 107 950 L 200 950 L 200 786 Z" unicode="İ" />
<glyph horiz-adv-x="258" d="M 180 0 L 77 0 L 77 490 L 180 490 L 180 0 Z" unicode="ı" />
<glyph horiz-adv-x="637" d="M 98 0 L 98 0 Z M 208 0 L 98 0 L 98 730 L 208 730 L 208 0 Z M 551 730 L 551 196 C 551 168 546 141 537 116 C 528 90 515 68 497 50 C 479 31 457 16 431 5 C 404 -6 373 -12 339 -12 C 320 -12 301 -10 281 -8 C 261 -6 246 -2 235 4 L 256 96 C 262 93 273 90 288 88 C 303 86 316 85 328 85 C 365 85 394 95 414 116 C 434 137 445 163 445 193 L 445 730 L 551 730 Z" unicode="Ĳ" />
<glyph horiz-adv-x="478" d="M 75 0 L 75 0 Z M 75 594 L 75 703 L 182 703 L 182 594 L 75 594 Z M 77 0 L 77 490 L 180 490 L 180 0 L 77 0 Z M 415 594 L 309 594 L 309 703 L 415 703 L 415 594 Z M 413 490 L 413 -32 C 413 -84 398 -125 370 -156 C 342 -186 306 -202 262 -202 C 244 -202 225 -200 205 -196 C 185 -192 169 -187 157 -181 L 174 -98 C 182 -102 192 -105 204 -108 C 216 -110 230 -112 245 -112 C 263 -112 279 -103 292 -87 C 304 -71 311 -49 311 -22 L 311 490 L 413 490 Z" unicode="ĳ" />
<glyph horiz-adv-x="411" d="M 15 0 L 15 0 Z M 331 730 L 331 196 C 331 168 326 141 317 116 C 308 90 295 68 277 50 C 259 31 237 16 211 5 C 184 -6 153 -12 119 -12 C 100 -12 81 -10 61 -8 C 41 -6 26 -2 15 4 L 36 96 C 42 93 53 90 68 88 C 83 86 96 85 108 85 C 145 85 174 95 194 116 C 214 137 225 163 225 193 L 225 730 L 331 730 Z M 277 786 L 277 786 Z M 453 786 L 358 786 L 277 891 L 195 786 L 102 786 L 225 958 L 330 958 L 453 786 Z" unicode="Ĵ" />
<glyph horiz-adv-x="276" d="M 0 0 L 0 0 Z M 206 490 L 206 -32 C 206 -84 191 -125 163 -156 C 135 -186 99 -202 55 -202 C 37 -202 18 -200 -1 -196 C -21 -192 -37 -187 -50 -181 L -33 -98 C -25 -102 -14 -105 -2 -108 C 9 -110 23 -112 38 -112 C 56 -112 72 -103 85 -87 C 97 -71 104 -49 104 -22 L 104 490 L 206 490 Z M 151 546 L 151 546 Z M 327 546 L 232 546 L 151 651 L 69 546 L -24 546 L 99 718 L 204 718 L 327 546 Z" unicode="ĵ" />
<glyph horiz-adv-x="689" d="M 94 0 L 94 0 Z M 682 0 L 544 0 L 294 321 L 203 213 L 203 0 L 94 0 L 94 730 L 203 730 L 203 347 L 514 730 L 642 730 L 368 401 L 682 0 Z M 344 -73 L 344 -73 Z M 443 -73 C 440 -99 435 -126 427 -153 C 419 -180 410 -205 399 -229 C 387 -253 375 -274 362 -293 C 348 -312 335 -327 322 -339 L 246 -304 C 254 -295 262 -282 271 -266 C 280 -250 289 -231 298 -211 C 306 -190 314 -168 321 -144 C 328 -120 333 -96 337 -73 L 443 -73 Z" unicode="Ķ" />
<glyph horiz-adv-x="541" d="M 73 0 L 73 0 Z M 561 1 L 441 0 L 265 218 L 175 124 L 175 0 L 73 0 L 73 765 L 173 765 L 173 234 L 403 490 L 518 490 L 332 288 L 561 1 Z M 273 -73 L 273 -73 Z M 372 -73 C 369 -99 364 -126 356 -153 C 348 -180 339 -205 328 -229 C 316 -253 304 -274 291 -293 C 277 -312 264 -327 251 -339 L 175 -304 C 183 -295 191 -282 200 -266 C 209 -250 218 -231 227 -211 C 235 -190 243 -168 250 -144 C 257 -120 262 -96 266 -73 L 372 -73 Z" unicode="ķ" />
<glyph horiz-adv-x="541" d="M 561 1 L 441 0 L 265 218 L 175 124 L 175 0 L 73 0 L 73 490 L 173 490 L 173 234 L 403 490 L 518 490 L 332 288 L 561 1 Z" unicode="ĸ" />
<glyph horiz-adv-x="521" d="M 94 0 L 94 0 Z M 511 0 L 94 0 L 94 730 L 204 730 L 204 98 L 511 98 L 511 0 Z M 330 790 L 330 790 Z M 218 790 L 322 952 L 443 952 L 320 790 L 218 790 Z" unicode="Ĺ" />
<glyph horiz-adv-x="250" d="M 74 0 L 74 0 Z M 187 825 L 187 825 Z M 75 825 L 179 987 L 300 987 L 177 825 L 75 825 Z M 176 765 L 176 0 L 74 0 L 74 765 L 176 765 Z" unicode="ĺ" />
<glyph horiz-adv-x="521" d="M 94 0 L 94 0 Z M 511 0 L 94 0 L 94 730 L 204 730 L 204 98 L 511 98 L 511 0 Z M 282 -73 L 282 -73 Z M 381 -73 C 378 -99 373 -126 365 -153 C 357 -180 348 -205 337 -229 C 325 -253 313 -274 300 -293 C 286 -312 273 -327 260 -339 L 184 -304 C 192 -295 200 -282 209 -266 C 218 -250 227 -231 236 -211 C 244 -190 252 -168 259 -144 C 266 -120 271 -96 275 -73 L 381 -73 Z" unicode="Ļ" />
<glyph horiz-adv-x="250" d="M 0 0 L 0 0 Z M 176 765 L 176 0 L 74 0 L 74 765 L 176 765 Z M 89 -73 L 89 -73 Z M 188 -73 C 185 -99 180 -126 172 -153 C 164 -180 155 -205 144 -229 C 132 -253 120 -274 107 -293 C 93 -312 80 -327 67 -339 L -9 -304 C -1 -295 7 -282 16 -266 C 25 -250 34 -231 43 -211 C 51 -190 59 -168 66 -144 C 73 -120 78 -96 82 -73 L 188 -73 Z" unicode="ļ" />
<glyph horiz-adv-x="521" d="M 94 0 L 94 0 Z M 511 0 L 94 0 L 94 730 L 204 730 L 204 98 L 511 98 L 511 0 Z M 515 610 L 510 463 L 424 463 L 419 610 L 419 730 L 515 730 L 515 610 Z" unicode="Ľ" />
<glyph horiz-adv-x="250" d="M 74 0 L 74 0 Z M 321 610 L 316 463 L 230 463 L 225 610 L 225 730 L 321 730 L 321 610 Z M 176 765 L 176 0 L 74 0 L 74 765 L 176 765 Z" unicode="ľ" />
<glyph horiz-adv-x="521" d="M 94 0 L 94 0 Z M 511 0 L 94 0 L 94 730 L 204 730 L 204 98 L 511 98 L 511 0 Z M 365 281 L 365 281 Z M 412 281 L 319 281 L 319 445 L 412 445 L 412 281 Z" unicode="Ŀ" />
<glyph horiz-adv-x="250" d="M 74 0 L 74 0 Z M 176 765 L 176 0 L 74 0 L 74 765 L 176 765 Z M 280 203 L 280 203 Z M 327 203 L 234 203 L 234 367 L 327 367 L 327 203 Z" unicode="ŀ" />
<glyph horiz-adv-x="521" d="M 495 95 L 495 0 L 94 0 L 94 267 L 37 244 L 0 320 L 94 358 L 94 730 L 204 730 L 204 403 L 371 471 L 405 395 L 204 313 L 204 95 L 495 95 Z" unicode="Ł" />
<glyph horiz-adv-x="250" d="M 258 353 L 176 315 L 176 0 L 74 0 L 74 267 L 21 242 L -8 311 L 74 349 L 74 765 L 176 765 L 176 397 L 229 422 L 258 353 Z" unicode="ł" />
<glyph horiz-adv-x="785" d="M 94 0 L 94 0 Z M 691 0 L 615 0 L 198 534 L 198 0 L 94 0 L 94 730 L 177 730 L 589 201 L 589 730 L 691 730 L 691 0 Z M 393 790 L 393 790 Z M 281 790 L 385 952 L 506 952 L 383 790 L 281 790 Z" unicode="Ń" />
<glyph horiz-adv-x="587" d="M 73 0 L 73 0 Z M 520 0 L 418 0 L 418 324 C 418 352 407 375 387 392 C 366 408 340 417 309 417 C 293 417 277 414 261 409 C 245 404 230 397 218 387 C 205 377 195 364 187 348 C 179 332 176 314 176 294 L 176 0 L 73 0 L 73 490 L 167 490 L 167 397 C 178 427 200 453 232 473 C 264 493 302 503 344 503 C 394 503 435 488 469 460 C 503 432 520 395 520 349 L 520 0 Z M 303 550 L 303 550 Z M 191 550 L 295 712 L 416 712 L 293 550 L 191 550 Z" unicode="ń" />
<glyph horiz-adv-x="785" d="M 94 0 L 94 0 Z M 691 0 L 615 0 L 198 534 L 198 0 L 94 0 L 94 730 L 177 730 L 589 201 L 589 730 L 691 730 L 691 0 Z M 369 -73 L 369 -73 Z M 468 -73 C 465 -99 460 -126 452 -153 C 444 -180 435 -205 424 -229 C 412 -253 400 -274 387 -293 C 373 -312 360 -327 347 -339 L 271 -304 C 279 -295 287 -282 296 -266 C 305 -250 314 -231 323 -211 C 331 -190 339 -168 346 -144 C 353 -120 358 -96 362 -73 L 468 -73 Z" unicode="Ņ" />
<glyph horiz-adv-x="587" d="M 73 0 L 73 0 Z M 520 0 L 418 0 L 418 324 C 418 352 407 375 387 392 C 366 408 340 417 309 417 C 293 417 277 414 261 409 C 245 404 230 397 218 387 C 205 377 195 364 187 348 C 179 332 176 314 176 294 L 176 0 L 73 0 L 73 490 L 167 490 L 167 397 C 178 427 200 453 232 473 C 264 493 302 503 344 503 C 394 503 435 488 469 460 C 503 432 520 395 520 349 L 520 0 Z M 266 -73 L 266 -73 Z M 365 -73 C 362 -99 357 -126 349 -153 C 341 -180 332 -205 321 -229 C 309 -253 297 -274 284 -293 C 270 -312 257 -327 244 -339 L 168 -304 C 176 -295 184 -282 193 -266 C 202 -250 211 -231 220 -211 C 228 -190 236 -168 243 -144 C 250 -120 255 -96 259 -73 L 365 -73 Z" unicode="ņ" />
<glyph horiz-adv-x="785" d="M 94 0 L 94 0 Z M 691 0 L 615 0 L 198 534 L 198 0 L 94 0 L 94 730 L 177 730 L 589 201 L 589 730 L 691 730 L 691 0 Z M 393 786 L 393 786 Z M 218 958 L 313 958 L 394 852 L 476 958 L 569 958 L 446 786 L 341 786 L 218 958 Z" unicode="Ň" />
<glyph horiz-adv-x="587" d="M 73 0 L 73 0 Z M 520 0 L 418 0 L 418 324 C 418 352 407 375 387 392 C 366 408 340 417 309 417 C 293 417 277 414 261 409 C 245 404 230 397 218 387 C 205 377 195 364 187 348 C 179 332 176 314 176 294 L 176 0 L 73 0 L 73 490 L 167 490 L 167 397 C 178 427 200 453 232 473 C 264 493 302 503 344 503 C 394 503 435 488 469 460 C 503 432 520 395 520 349 L 520 0 Z M 303 546 L 303 546 Z M 128 718 L 223 718 L 304 612 L 386 718 L 479 718 L 356 546 L 251 546 L 128 718 Z" unicode="ň" />
<glyph horiz-adv-x="790" d="M 589 730 L 691 730 L 691 0 L 691 0 C 689 -60 672 -108 639 -145 C 606 -182 561 -201 503 -201 C 480 -201 458 -199 437 -195 C 415 -191 398 -186 384 -179 L 400 -89 C 410 -93 424 -97 442 -101 C 460 -104 477 -106 494 -106 C 524 -106 547 -95 565 -74 C 582 -52 591 -26 591 5 L 591 31 L 198 534 L 198 0 L 94 0 L 94 730 L 177 730 L 589 201 L 589 730 Z" unicode="Ŋ" />
<glyph horiz-adv-x="587" d="M 344 503 C 394 503 435 488 469 460 C 503 432 520 395 520 349 L 520 -32 C 520 -84 505 -125 477 -156 C 449 -186 412 -202 368 -202 C 350 -202 331 -200 311 -196 C 291 -192 275 -187 263 -181 L 280 -98 C 288 -102 299 -105 311 -108 C 323 -110 337 -112 351 -112 C 369 -112 385 -103 398 -87 C 411 -71 418 -49 418 -22 L 418 324 C 418 352 407 375 387 392 C 366 408 340 417 309 417 C 293 417 277 414 261 409 C 245 404 230 397 218 387 C 205 377 195 364 187 348 C 179 332 176 314 176 294 L 176 0 L 73 0 L 73 490 L 167 490 L 167 397 C 178 427 200 453 232 473 C 264 493 302 503 344 503 Z" unicode="ŋ" />
<glyph horiz-adv-x="840" d="M 46 0 L 46 0 Z M 423 -12 C 367 -12 315 -2 269 17 C 222 36 182 62 149 96 C 116 130 91 170 73 217 C 55 264 46 315 46 370 C 46 422 55 471 75 517 C 94 563 120 602 153 635 C 186 668 225 694 270 713 C 315 732 363 742 415 742 C 470 742 521 732 568 714 C 614 696 654 670 688 638 C 721 605 747 565 766 519 C 784 473 794 422 794 368 C 794 312 784 260 764 214 C 744 167 718 127 684 94 C 650 60 611 34 566 16 C 520 -2 473 -12 423 -12 Z M 427 87 C 463 87 496 93 528 106 C 559 118 586 137 609 161 C 632 185 650 214 663 249 C 676 283 683 323 683 367 C 683 407 676 443 662 477 C 648 511 630 540 606 564 C 582 588 553 606 520 620 C 487 633 452 640 414 640 C 377 640 343 633 311 621 C 279 609 252 591 230 568 C 208 545 190 517 177 483 C 164 449 158 412 158 370 C 158 326 165 286 179 251 C 193 215 213 186 237 162 C 261 138 289 119 322 106 C 355 93 390 87 427 87 Z M 416 801 L 416 801 Z M 550 801 L 282 801 L 282 883 L 550 883 L 550 801 Z" unicode="Ō" />
<glyph horiz-adv-x="593" d="M 35 0 L 35 0 Z M 292 -11 C 259 -11 227 -5 196 6 C 165 18 138 34 114 56 C 90 77 71 103 57 135 C 42 167 35 203 35 243 C 35 279 42 313 56 345 C 70 377 88 404 112 428 C 135 451 162 469 194 483 C 225 496 258 503 292 503 C 328 503 362 497 394 485 C 426 473 455 457 479 436 C 503 414 522 388 536 358 C 550 328 557 294 557 257 C 557 217 550 181 536 148 C 522 115 503 87 479 64 C 455 40 426 22 394 9 C 362 -4 328 -11 292 -11 Z M 297 79 C 342 79 379 95 408 127 C 437 159 452 201 452 252 C 452 297 437 335 408 366 C 378 396 339 412 289 412 C 246 412 211 396 183 365 C 155 334 141 294 141 244 C 141 192 156 151 186 122 C 216 93 253 79 297 79 Z M 291 561 L 291 561 Z M 425 561 L 157 561 L 157 643 L 425 643 L 425 561 Z" unicode="ō" />
<glyph horiz-adv-x="840" d="M 46 0 L 46 0 Z M 423 -12 C 367 -12 315 -2 269 17 C 222 36 182 62 149 96 C 116 130 91 170 73 217 C 55 264 46 315 46 370 C 46 422 55 471 75 517 C 94 563 120 602 153 635 C 186 668 225 694 270 713 C 315 732 363 742 415 742 C 470 742 521 732 568 714 C 614 696 654 670 688 638 C 721 605 747 565 766 519 C 784 473 794 422 794 368 C 794 312 784 260 764 214 C 744 167 718 127 684 94 C 650 60 611 34 566 16 C 520 -2 473 -12 423 -12 Z M 427 87 C 463 87 496 93 528 106 C 559 118 586 137 609 161 C 632 185 650 214 663 249 C 676 283 683 323 683 367 C 683 407 676 443 662 477 C 648 511 630 540 606 564 C 582 588 553 606 520 620 C 487 633 452 640 414 640 C 377 640 343 633 311 621 C 279 609 252 591 230 568 C 208 545 190 517 177 483 C 164 449 158 412 158 370 C 158 326 165 286 179 251 C 193 215 213 186 237 162 C 261 138 289 119 322 106 C 355 93 390 87 427 87 Z M 416 789 L 416 789 Z M 492 948 L 577 948 C 573 892 556 852 526 827 C 496 801 460 789 416 789 C 372 789 335 801 305 827 C 275 852 259 892 255 948 L 340 948 C 342 919 349 896 361 878 C 373 860 391 852 416 852 C 440 852 459 860 471 877 C 483 893 490 917 492 948 Z" unicode="Ŏ" />
<glyph horiz-adv-x="593" d="M 35 0 L 35 0 Z M 292 -11 C 259 -11 227 -5 196 6 C 165 18 138 34 114 56 C 90 77 71 103 57 135 C 42 167 35 203 35 243 C 35 279 42 313 56 345 C 70 377 88 404 112 428 C 135 451 162 469 194 483 C 225 496 258 503 292 503 C 328 503 362 497 394 485 C 426 473 455 457 479 436 C 503 414 522 388 536 358 C 550 328 557 294 557 257 C 557 217 550 181 536 148 C 522 115 503 87 479 64 C 455 40 426 22 394 9 C 362 -4 328 -11 292 -11 Z M 297 79 C 342 79 379 95 408 127 C 437 159 452 201 452 252 C 452 297 437 335 408 366 C 378 396 339 412 289 412 C 246 412 211 396 183 365 C 155 334 141 294 141 244 C 141 192 156 151 186 122 C 216 93 253 79 297 79 Z M 291 549 L 291 549 Z M 367 708 L 452 708 C 448 652 431 612 401 587 C 371 561 335 549 291 549 C 247 549 210 561 180 587 C 150 612 134 652 130 708 L 215 708 C 217 679 224 656 236 638 C 248 620 266 612 291 612 C 315 612 334 620 346 637 C 358 653 365 677 367 708 Z" unicode="ŏ" />
<glyph horiz-adv-x="840" d="M 46 0 L 46 0 Z M 423 -12 C 367 -12 315 -2 269 17 C 222 36 182 62 149 96 C 116 130 91 170 73 217 C 55 264 46 315 46 370 C 46 422 55 471 75 517 C 94 563 120 602 153 635 C 186 668 225 694 270 713 C 315 732 363 742 415 742 C 470 742 521 732 568 714 C 614 696 654 670 688 638 C 721 605 747 565 766 519 C 784 473 794 422 794 368 C 794 312 784 260 764 214 C 744 167 718 127 684 94 C 650 60 611 34 566 16 C 520 -2 473 -12 423 -12 Z M 427 87 C 463 87 496 93 528 106 C 559 118 586 137 609 161 C 632 185 650 214 663 249 C 676 283 683 323 683 367 C 683 407 676 443 662 477 C 648 511 630 540 606 564 C 582 588 553 606 520 620 C 487 633 452 640 414 640 C 377 640 343 633 311 621 C 279 609 252 591 230 568 C 208 545 190 517 177 483 C 164 449 158 412 158 370 C 158 326 165 286 179 251 C 193 215 213 186 237 162 C 261 138 289 119 322 106 C 355 93 390 87 427 87 Z M 416 785 L 416 785 Z M 219 785 L 314 936 L 422 936 L 309 785 L 219 785 Z M 411 785 L 506 936 L 615 936 L 501 785 L 411 785 Z" unicode="Ő" />
<glyph horiz-adv-x="593" d="M 35 0 L 35 0 Z M 292 -11 C 259 -11 227 -5 196 6 C 165 18 138 34 114 56 C 90 77 71 103 57 135 C 42 167 35 203 35 243 C 35 279 42 313 56 345 C 70 377 88 404 112 428 C 135 451 162 469 194 483 C 225 496 258 503 292 503 C 328 503 362 497 394 485 C 426 473 455 457 479 436 C 503 414 522 388 536 358 C 550 328 557 294 557 257 C 557 217 550 181 536 148 C 522 115 503 87 479 64 C 455 40 426 22 394 9 C 362 -4 328 -11 292 -11 Z M 297 79 C 342 79 379 95 408 127 C 437 159 452 201 452 252 C 452 297 437 335 408 366 C 378 396 339 412 289 412 C 246 412 211 396 183 365 C 155 334 141 294 141 244 C 141 192 156 151 186 122 C 216 93 253 79 297 79 Z M 291 545 L 291 545 Z M 94 545 L 189 696 L 297 696 L 184 545 L 94 545 Z M 286 545 L 381 696 L 490 696 L 376 545 L 286 545 Z" unicode="ő" />
<glyph horiz-adv-x="1174" d="M 409 -12 C 355 -12 305 -2 261 16 C 216 35 178 61 146 95 C 114 129 90 169 72 216 C 54 262 46 313 46 369 C 46 421 55 470 75 516 C 94 562 120 601 153 635 C 186 668 225 694 270 713 C 315 732 363 742 415 742 C 441 742 467 738 495 731 C 523 723 549 713 573 701 C 597 688 618 673 638 655 C 657 637 671 618 680 597 L 680 730 L 1101 730 L 1101 632 L 784 632 L 784 410 L 1086 410 L 1086 315 L 784 315 L 784 98 L 1121 98 L 1121 0 L 680 0 L 680 147 C 662 102 629 64 581 34 C 533 3 476 -12 409 -12 Z M 421 85 C 457 85 490 91 522 103 C 554 115 581 133 605 157 C 628 181 646 210 660 246 C 674 281 681 322 681 368 C 681 413 672 453 656 487 C 640 521 619 550 594 573 C 568 595 540 612 509 624 C 478 635 448 641 419 641 C 382 641 348 634 316 622 C 284 610 257 592 234 568 C 210 544 192 515 179 481 C 165 447 159 408 159 365 C 159 320 166 280 180 245 C 194 210 212 181 236 157 C 259 133 287 115 319 103 C 351 91 385 85 421 85 Z" unicode="Œ" />
<glyph horiz-adv-x="985" d="M 294 -11 C 258 -11 225 -5 194 7 C 162 19 135 36 111 58 C 87 80 69 106 55 138 C 41 169 35 204 35 243 C 35 279 41 313 55 345 C 69 377 87 404 111 428 C 135 451 162 469 194 483 C 226 496 259 503 295 503 C 325 503 351 499 375 492 C 398 484 418 475 435 463 C 452 451 466 438 477 424 C 488 410 496 396 502 383 C 506 395 515 408 527 422 C 539 436 554 449 572 461 C 590 473 610 483 634 491 C 657 499 682 503 710 503 C 787 503 847 476 891 424 C 935 371 957 301 958 213 L 554 213 C 555 175 571 142 601 116 C 631 90 670 77 716 77 C 756 77 788 83 811 97 C 833 110 852 125 868 142 L 931 76 C 909 51 882 30 851 14 C 819 -2 775 -11 717 -11 C 688 -11 661 -7 637 0 C 613 7 591 16 573 28 C 554 40 538 53 526 67 C 514 81 505 94 501 107 C 497 95 489 82 477 68 C 465 54 451 41 433 29 C 415 17 395 8 371 0 C 347 -7 322 -11 294 -11 Z M 555 290 L 856 290 C 854 326 839 356 813 380 C 786 404 751 416 707 416 C 663 416 628 403 602 378 C 575 353 559 324 555 290 Z M 297 79 C 343 79 380 94 409 125 C 437 155 452 198 452 252 C 452 298 437 337 407 367 C 377 397 339 412 292 412 C 247 412 211 396 183 365 C 155 333 141 293 141 244 C 141 192 156 151 186 122 C 216 93 253 79 297 79 Z" unicode="œ" />
<glyph horiz-adv-x="627" d="M 94 0 L 94 0 Z M 94 0 L 94 730 L 322 730 C 352 730 381 725 407 716 C 433 707 456 694 476 677 C 495 660 510 639 521 614 C 532 589 538 561 538 530 C 538 498 533 470 524 446 C 515 421 503 400 488 383 C 473 366 456 353 437 343 C 418 333 399 326 379 324 L 376 321 L 603 0 L 474 0 L 270 296 L 203 296 L 203 0 L 94 0 Z M 202 389 L 297 389 C 334 389 365 399 390 421 C 415 443 428 475 428 517 C 428 553 416 581 392 603 C 368 625 338 636 302 636 L 202 636 L 202 389 Z M 308 790 L 308 790 Z M 196 790 L 300 952 L 421 952 L 298 790 L 196 790 Z" unicode="Ŕ" />
<glyph horiz-adv-x="435" d="M 73 0 L 73 0 Z M 436 472 L 389 382 C 376 392 362 400 347 405 C 331 410 315 413 299 413 C 283 413 268 409 254 403 C 239 397 226 388 214 377 C 202 366 193 353 186 337 C 179 321 176 303 176 285 L 176 0 L 73 0 L 73 490 L 169 490 L 169 393 C 172 405 178 418 188 431 C 197 444 209 456 223 466 C 237 476 254 485 273 492 C 291 498 312 502 334 502 C 356 502 376 499 394 493 C 411 487 425 480 436 472 Z M 258 550 L 258 550 Z M 146 550 L 250 712 L 371 712 L 248 550 L 146 550 Z" unicode="ŕ" />
<glyph horiz-adv-x="627" d="M 94 0 L 94 0 Z M 94 0 L 94 730 L 322 730 C 352 730 381 725 407 716 C 433 707 456 694 476 677 C 495 660 510 639 521 614 C 532 589 538 561 538 530 C 538 498 533 470 524 446 C 515 421 503 400 488 383 C 473 366 456 353 437 343 C 418 333 399 326 379 324 L 376 321 L 603 0 L 474 0 L 270 296 L 203 296 L 203 0 L 94 0 Z M 202 389 L 297 389 C 334 389 365 399 390 421 C 415 443 428 475 428 517 C 428 553 416 581 392 603 C 368 625 338 636 302 636 L 202 636 L 202 389 Z M 302 -73 L 302 -73 Z M 401 -73 C 398 -99 393 -126 385 -153 C 377 -180 368 -205 357 -229 C 345 -253 333 -274 320 -293 C 306 -312 293 -327 280 -339 L 204 -304 C 212 -295 220 -282 229 -266 C 238 -250 247 -231 256 -211 C 264 -190 272 -168 279 -144 C 286 -120 291 -96 295 -73 L 401 -73 Z" unicode="Ŗ" />
<glyph horiz-adv-x="435" d="M 73 0 L 73 0 Z M 436 472 L 389 382 C 376 392 362 400 347 405 C 331 410 315 413 299 413 C 283 413 268 409 254 403 C 239 397 226 388 214 377 C 202 366 193 353 186 337 C 179 321 176 303 176 285 L 176 0 L 73 0 L 73 490 L 169 490 L 169 393 C 172 405 178 418 188 431 C 197 444 209 456 223 466 C 237 476 254 485 273 492 C 291 498 312 502 334 502 C 356 502 376 499 394 493 C 411 487 425 480 436 472 Z M 228 -73 L 228 -73 Z M 327 -73 C 324 -99 319 -126 311 -153 C 303 -180 294 -205 283 -229 C 271 -253 259 -274 246 -293 C 232 -312 219 -327 206 -339 L 130 -304 C 138 -295 146 -282 155 -266 C 164 -250 173 -231 182 -211 C 190 -190 198 -168 205 -144 C 212 -120 217 -96 221 -73 L 327 -73 Z" unicode="ŗ" />
<glyph horiz-adv-x="627" d="M 94 0 L 94 0 Z M 94 0 L 94 730 L 322 730 C 352 730 381 725 407 716 C 433 707 456 694 476 677 C 495 660 510 639 521 614 C 532 589 538 561 538 530 C 538 498 533 470 524 446 C 515 421 503 400 488 383 C 473 366 456 353 437 343 C 418 333 399 326 379 324 L 376 321 L 603 0 L 474 0 L 270 296 L 203 296 L 203 0 L 94 0 Z M 202 389 L 297 389 C 334 389 365 399 390 421 C 415 443 428 475 428 517 C 428 553 416 581 392 603 C 368 625 338 636 302 636 L 202 636 L 202 389 Z M 308 786 L 308 786 Z M 133 958 L 228 958 L 309 852 L 391 958 L 484 958 L 361 786 L 256 786 L 133 958 Z" unicode="Ř" />
<glyph horiz-adv-x="435" d="M 73 0 L 73 0 Z M 436 472 L 389 382 C 376 392 362 400 347 405 C 331 410 315 413 299 413 C 283 413 268 409 254 403 C 239 397 226 388 214 377 C 202 366 193 353 186 337 C 179 321 176 303 176 285 L 176 0 L 73 0 L 73 490 L 169 490 L 169 393 C 172 405 178 418 188 431 C 197 444 209 456 223 466 C 237 476 254 485 273 492 C 291 498 312 502 334 502 C 356 502 376 499 394 493 C 411 487 425 480 436 472 Z M 258 546 L 258 546 Z M 83 718 L 178 718 L 259 612 L 341 718 L 434 718 L 311 546 L 206 546 L 83 718 Z" unicode="ř" />
<glyph horiz-adv-x="555" d="M 31 0 L 31 0 Z M 286 -12 C 229 -12 179 -3 137 12 C 94 28 59 51 31 79 L 99 163 C 118 140 145 121 179 106 C 213 91 248 84 285 84 C 319 84 348 93 372 111 C 396 129 408 153 408 183 C 408 211 397 235 375 256 C 353 276 316 298 263 320 C 193 348 141 379 107 412 C 73 445 56 493 56 555 C 56 610 76 655 116 690 C 156 724 209 742 275 742 C 321 742 362 734 397 720 C 432 706 463 688 489 668 L 431 579 C 408 597 383 612 357 624 C 331 635 303 641 275 641 C 241 641 213 632 193 616 C 172 600 162 579 162 553 C 162 523 173 499 196 480 C 219 461 261 439 322 415 C 391 386 441 355 471 321 C 501 287 516 243 516 189 C 516 157 509 129 497 104 C 485 79 468 58 447 41 C 426 23 402 10 374 1 C 346 -7 316 -12 286 -12 Z M 274 790 L 274 790 Z M 162 790 L 266 952 L 387 952 L 264 790 L 162 790 Z" unicode="Ś" />
<glyph horiz-adv-x="451" d="M 33 0 L 33 0 Z M 242 -11 C 195 -11 154 -5 120 6 C 85 17 56 32 33 52 L 81 122 C 101 107 125 95 153 86 C 181 77 210 73 239 73 C 263 73 282 78 297 90 C 311 101 319 116 319 134 C 319 150 310 164 293 176 C 276 188 246 200 203 212 C 149 226 110 246 86 271 C 61 295 49 326 49 364 C 49 405 66 438 100 464 C 134 489 177 502 228 502 C 271 502 307 496 337 484 C 367 472 390 460 406 448 L 363 376 C 345 387 326 397 304 406 C 282 415 258 420 232 420 C 210 420 191 415 174 407 C 157 398 149 386 149 370 C 149 362 150 356 152 350 C 154 344 159 338 167 333 C 174 327 185 322 199 316 C 213 310 231 304 255 298 C 309 282 349 262 377 238 C 405 214 419 182 419 141 C 419 94 402 57 368 30 C 334 2 292 -11 242 -11 Z M 231 550 L 231 550 Z M 119 550 L 223 712 L 344 712 L 221 550 L 119 550 Z" unicode="ś" />
<glyph horiz-adv-x="555" d="M 31 0 L 31 0 Z M 286 -12 C 229 -12 179 -3 137 12 C 94 28 59 51 31 79 L 99 163 C 118 140 145 121 179 106 C 213 91 248 84 285 84 C 319 84 348 93 372 111 C 396 129 408 153 408 183 C 408 211 397 235 375 256 C 353 276 316 298 263 320 C 193 348 141 379 107 412 C 73 445 56 493 56 555 C 56 610 76 655 116 690 C 156 724 209 742 275 742 C 321 742 362 734 397 720 C 432 706 463 688 489 668 L 431 579 C 408 597 383 612 357 624 C 331 635 303 641 275 641 C 241 641 213 632 193 616 C 172 600 162 579 162 553 C 162 523 173 499 196 480 C 219 461 261 439 322 415 C 391 386 441 355 471 321 C 501 287 516 243 516 189 C 516 157 509 129 497 104 C 485 79 468 58 447 41 C 426 23 402 10 374 1 C 346 -7 316 -12 286 -12 Z M 274 786 L 274 786 Z M 450 786 L 355 786 L 274 891 L 192 786 L 99 786 L 222 958 L 327 958 L 450 786 Z" unicode="Ŝ" />
<glyph horiz-adv-x="451" d="M 33 0 L 33 0 Z M 242 -11 C 195 -11 154 -5 120 6 C 85 17 56 32 33 52 L 81 122 C 101 107 125 95 153 86 C 181 77 210 73 239 73 C 263 73 282 78 297 90 C 311 101 319 116 319 134 C 319 150 310 164 293 176 C 276 188 246 200 203 212 C 149 226 110 246 86 271 C 61 295 49 326 49 364 C 49 405 66 438 100 464 C 134 489 177 502 228 502 C 271 502 307 496 337 484 C 367 472 390 460 406 448 L 363 376 C 345 387 326 397 304 406 C 282 415 258 420 232 420 C 210 420 191 415 174 407 C 157 398 149 386 149 370 C 149 362 150 356 152 350 C 154 344 159 338 167 333 C 174 327 185 322 199 316 C 213 310 231 304 255 298 C 309 282 349 262 377 238 C 405 214 419 182 419 141 C 419 94 402 57 368 30 C 334 2 292 -11 242 -11 Z M 231 546 L 231 546 Z M 407 546 L 312 546 L 231 651 L 149 546 L 56 546 L 179 718 L 284 718 L 407 546 Z" unicode="ŝ" />
<glyph horiz-adv-x="555" d="M 31 0 L 31 0 Z M 286 -12 C 229 -12 179 -3 137 12 C 94 28 59 51 31 79 L 99 163 C 118 140 145 121 179 106 C 213 91 248 84 285 84 C 319 84 348 93 372 111 C 396 129 408 153 408 183 C 408 211 397 235 375 256 C 353 276 316 298 263 320 C 193 348 141 379 107 412 C 73 445 56 493 56 555 C 56 610 76 655 116 690 C 156 724 209 742 275 742 C 321 742 362 734 397 720 C 432 706 463 688 489 668 L 431 579 C 408 597 383 612 357 624 C 331 635 303 641 275 641 C 241 641 213 632 193 616 C 172 600 162 579 162 553 C 162 523 173 499 196 480 C 219 461 261 439 322 415 C 391 386 441 355 471 321 C 501 287 516 243 516 189 C 516 157 509 129 497 104 C 485 79 468 58 447 41 C 426 23 402 10 374 1 C 346 -7 316 -12 286 -12 Z M 267 -5 L 267 -5 Z M 276 -194 C 251 -194 226 -191 200 -185 C 174 -179 155 -171 141 -162 L 154 -117 C 163 -121 175 -126 191 -132 C 207 -137 224 -140 242 -140 C 256 -140 268 -136 279 -130 C 289 -124 295 -116 295 -106 C 295 -94 290 -85 281 -81 C 271 -76 261 -74 251 -74 C 243 -74 236 -74 231 -75 C 225 -76 219 -78 213 -80 L 198 -65 L 260 8 L 322 8 L 272 -54 C 306 -47 334 -50 358 -63 C 381 -75 393 -94 393 -119 C 393 -144 381 -163 357 -175 C 333 -187 306 -194 276 -194 Z" unicode="Ş" />
<glyph horiz-adv-x="451" d="M 33 0 L 33 0 Z M 242 -11 C 195 -11 154 -5 120 6 C 85 17 56 32 33 52 L 81 122 C 101 107 125 95 153 86 C 181 77 210 73 239 73 C 263 73 282 78 297 90 C 311 101 319 116 319 134 C 319 150 310 164 293 176 C 276 188 246 200 203 212 C 149 226 110 246 86 271 C 61 295 49 326 49 364 C 49 405 66 438 100 464 C 134 489 177 502 228 502 C 271 502 307 496 337 484 C 367 472 390 460 406 448 L 363 376 C 345 387 326 397 304 406 C 282 415 258 420 232 420 C 210 420 191 415 174 407 C 157 398 149 386 149 370 C 149 362 150 356 152 350 C 154 344 159 338 167 333 C 174 327 185 322 199 316 C 213 310 231 304 255 298 C 309 282 349 262 377 238 C 405 214 419 182 419 141 C 419 94 402 57 368 30 C 334 2 292 -11 242 -11 Z M 220 -1 L 220 -1 Z M 229 -190 C 204 -190 179 -187 153 -181 C 127 -175 108 -167 94 -158 L 107 -113 C 116 -117 128 -122 144 -128 C 160 -133 177 -136 195 -136 C 209 -136 221 -132 232 -126 C 242 -120 248 -112 248 -102 C 248 -90 243 -81 234 -77 C 224 -72 214 -70 204 -70 C 196 -70 189 -70 184 -71 C 178 -72 172 -74 166 -76 L 151 -61 L 213 12 L 275 12 L 225 -50 C 259 -43 287 -46 311 -59 C 334 -71 346 -90 346 -115 C 346 -140 334 -159 310 -171 C 286 -183 259 -190 229 -190 Z" unicode="ş" />
<glyph horiz-adv-x="555" d="M 31 0 L 31 0 Z M 286 -12 C 229 -12 179 -3 137 12 C 94 28 59 51 31 79 L 99 163 C 118 140 145 121 179 106 C 213 91 248 84 285 84 C 319 84 348 93 372 111 C 396 129 408 153 408 183 C 408 211 397 235 375 256 C 353 276 316 298 263 320 C 193 348 141 379 107 412 C 73 445 56 493 56 555 C 56 610 76 655 116 690 C 156 724 209 742 275 742 C 321 742 362 734 397 720 C 432 706 463 688 489 668 L 431 579 C 408 597 383 612 357 624 C 331 635 303 641 275 641 C 241 641 213 632 193 616 C 172 600 162 579 162 553 C 162 523 173 499 196 480 C 219 461 261 439 322 415 C 391 386 441 355 471 321 C 501 287 516 243 516 189 C 516 157 509 129 497 104 C 485 79 468 58 447 41 C 426 23 402 10 374 1 C 346 -7 316 -12 286 -12 Z M 274 786 L 274 786 Z M 99 958 L 194 958 L 275 852 L 357 958 L 450 958 L 327 786 L 222 786 L 99 958 Z" unicode="Š" />
<glyph horiz-adv-x="451" d="M 33 0 L 33 0 Z M 242 -11 C 195 -11 154 -5 120 6 C 85 17 56 32 33 52 L 81 122 C 101 107 125 95 153 86 C 181 77 210 73 239 73 C 263 73 282 78 297 90 C 311 101 319 116 319 134 C 319 150 310 164 293 176 C 276 188 246 200 203 212 C 149 226 110 246 86 271 C 61 295 49 326 49 364 C 49 405 66 438 100 464 C 134 489 177 502 228 502 C 271 502 307 496 337 484 C 367 472 390 460 406 448 L 363 376 C 345 387 326 397 304 406 C 282 415 258 420 232 420 C 210 420 191 415 174 407 C 157 398 149 386 149 370 C 149 362 150 356 152 350 C 154 344 159 338 167 333 C 174 327 185 322 199 316 C 213 310 231 304 255 298 C 309 282 349 262 377 238 C 405 214 419 182 419 141 C 419 94 402 57 368 30 C 334 2 292 -11 242 -11 Z M 231 546 L 231 546 Z M 56 718 L 151 718 L 232 612 L 314 718 L 407 718 L 284 546 L 179 546 L 56 718 Z" unicode="š" />
<glyph horiz-adv-x="550" d="M 10 0 L 10 0 Z M 540 632 L 327 632 L 327 0 L 217 0 L 217 632 L 10 632 L 10 730 L 540 730 L 540 632 Z M 273 786 L 273 786 Z M 98 958 L 193 958 L 274 852 L 356 958 L 449 958 L 326 786 L 221 786 L 98 958 Z" unicode="Ť" />
<glyph horiz-adv-x="328" d="M 11 0 L 11 0 Z M 307 95 L 316 11 C 308 5 297 1 281 -1 C 265 -4 248 -6 231 -6 C 211 -6 192 -3 174 1 C 156 6 140 14 126 26 C 112 37 101 52 93 70 C 85 88 81 111 81 138 L 81 402 L 11 402 L 11 490 L 81 490 L 81 612 L 183 624 L 183 490 L 301 490 L 301 402 L 183 402 L 183 151 C 183 127 188 109 200 98 C 211 87 227 82 249 82 C 260 82 271 83 283 87 C 294 90 302 93 307 95 Z M 407 610 L 402 463 L 316 463 L 311 610 L 311 730 L 407 730 L 407 610 Z" unicode="ť" />
<glyph horiz-adv-x="550" d="M 461 434 L 327 434 L 327 0 L 217 0 L 217 434 L 83 434 L 83 521 L 217 521 L 217 632 L 10 632 L 10 730 L 540 730 L 540 632 L 327 632 L 327 521 L 461 521 L 461 434 Z" unicode="Ŧ" />
<glyph horiz-adv-x="328" d="M 316 11 C 308 5 297 1 281 -1 C 265 -4 248 -6 231 -6 C 211 -6 192 -3 174 1 C 156 6 140 14 126 26 C 112 37 101 52 93 70 C 85 88 81 111 81 138 L 81 248 L 18 248 L 18 335 L 81 335 L 81 402 L 11 402 L 11 490 L 81 490 L 81 612 L 183 624 L 183 490 L 301 490 L 301 402 L 183 402 L 183 335 L 282 335 L 282 248 L 183 248 L 183 151 C 183 127 188 109 200 98 C 211 87 227 82 249 82 C 260 82 271 83 283 87 C 294 90 302 93 307 95 L 316 11 Z" unicode="ŧ" />
<glyph horiz-adv-x="754" d="M 88 0 L 88 0 Z M 666 730 L 666 266 C 666 222 658 183 643 149 C 627 114 607 85 581 61 C 555 37 524 19 489 7 C 453 -5 416 -12 376 -12 C 336 -12 299 -6 264 6 C 229 18 199 35 173 59 C 147 83 126 112 111 147 C 95 181 88 221 88 266 L 88 730 L 195 730 L 195 264 C 195 237 199 213 209 192 C 218 170 231 152 247 137 C 263 121 283 109 305 101 C 327 93 350 89 375 89 C 400 89 424 93 446 101 C 468 109 488 120 505 135 C 521 150 534 168 544 190 C 554 212 559 236 559 264 L 559 730 L 666 730 Z M 376 791 L 376 791 Z M 468 932 L 546 932 C 546 884 539 848 525 825 C 511 802 491 791 467 791 C 448 791 432 794 418 802 C 404 809 391 816 381 823 C 370 829 360 836 350 843 C 340 850 331 854 322 854 C 312 854 304 848 298 838 C 292 828 288 813 288 795 L 210 795 C 210 842 219 877 239 901 C 259 924 279 936 301 936 C 317 936 332 932 344 925 C 356 918 369 910 381 902 C 390 894 399 887 408 881 C 416 875 425 872 434 872 C 442 872 450 877 457 888 C 463 898 467 913 468 932 Z" unicode="Ũ" />
<glyph horiz-adv-x="587" d="M 67 0 L 67 0 Z M 67 490 L 169 490 L 169 181 C 169 144 179 117 201 100 C 223 82 251 74 285 74 C 319 74 349 84 374 105 C 398 126 411 156 411 194 L 411 490 L 513 490 L 513 0 L 417 0 L 417 92 C 405 64 384 39 354 19 C 324 0 287 -11 244 -11 C 219 -11 196 -7 175 0 C 153 6 135 17 119 31 C 103 45 90 62 81 83 C 71 103 67 127 67 155 L 67 490 Z M 290 551 L 290 551 Z M 382 692 L 460 692 C 460 644 453 608 439 585 C 425 562 405 551 381 551 C 362 551 346 554 332 562 C 318 569 305 576 295 583 C 284 589 274 596 264 603 C 254 610 245 614 236 614 C 226 614 218 608 212 598 C 206 588 202 573 202 555 L 124 555 C 124 602 133 637 153 661 C 173 684 193 696 215 696 C 231 696 246 692 258 685 C 270 678 283 670 295 662 C 304 654 313 647 322 641 C 330 635 339 632 348 632 C 356 632 364 637 371 648 C 377 658 381 673 382 692 Z" unicode="ũ" />
<glyph horiz-adv-x="754" d="M 88 0 L 88 0 Z M 666 730 L 666 266 C 666 222 658 183 643 149 C 627 114 607 85 581 61 C 555 37 524 19 489 7 C 453 -5 416 -12 376 -12 C 336 -12 299 -6 264 6 C 229 18 199 35 173 59 C 147 83 126 112 111 147 C 95 181 88 221 88 266 L 88 730 L 195 730 L 195 264 C 195 237 199 213 209 192 C 218 170 231 152 247 137 C 263 121 283 109 305 101 C 327 93 350 89 375 89 C 400 89 424 93 446 101 C 468 109 488 120 505 135 C 521 150 534 168 544 190 C 554 212 559 236 559 264 L 559 730 L 666 730 Z M 376 801 L 376 801 Z M 510 801 L 242 801 L 242 883 L 510 883 L 510 801 Z" unicode="Ū" />
<glyph horiz-adv-x="587" d="M 67 0 L 67 0 Z M 67 490 L 169 490 L 169 181 C 169 144 179 117 201 100 C 223 82 251 74 285 74 C 319 74 349 84 374 105 C 398 126 411 156 411 194 L 411 490 L 513 490 L 513 0 L 417 0 L 417 92 C 405 64 384 39 354 19 C 324 0 287 -11 244 -11 C 219 -11 196 -7 175 0 C 153 6 135 17 119 31 C 103 45 90 62 81 83 C 71 103 67 127 67 155 L 67 490 Z M 290 561 L 290 561 Z M 424 561 L 156 561 L 156 643 L 424 643 L 424 561 Z" unicode="ū" />
<glyph horiz-adv-x="754" d="M 88 0 L 88 0 Z M 666 730 L 666 266 C 666 222 658 183 643 149 C 627 114 607 85 581 61 C 555 37 524 19 489 7 C 453 -5 416 -12 376 -12 C 336 -12 299 -6 264 6 C 229 18 199 35 173 59 C 147 83 126 112 111 147 C 95 181 88 221 88 266 L 88 730 L 195 730 L 195 264 C 195 237 199 213 209 192 C 218 170 231 152 247 137 C 263 121 283 109 305 101 C 327 93 350 89 375 89 C 400 89 424 93 446 101 C 468 109 488 120 505 135 C 521 150 534 168 544 190 C 554 212 559 236 559 264 L 559 730 L 666 730 Z M 376 789 L 376 789 Z M 452 948 L 537 948 C 533 892 516 852 486 827 C 456 801 420 789 376 789 C 332 789 295 801 265 827 C 235 852 219 892 215 948 L 300 948 C 302 919 309 896 321 878 C 333 860 351 852 376 852 C 400 852 419 860 431 877 C 443 893 450 917 452 948 Z" unicode="Ŭ" />
<glyph horiz-adv-x="587" d="M 67 0 L 67 0 Z M 67 490 L 169 490 L 169 181 C 169 144 179 117 201 100 C 223 82 251 74 285 74 C 319 74 349 84 374 105 C 398 126 411 156 411 194 L 411 490 L 513 490 L 513 0 L 417 0 L 417 92 C 405 64 384 39 354 19 C 324 0 287 -11 244 -11 C 219 -11 196 -7 175 0 C 153 6 135 17 119 31 C 103 45 90 62 81 83 C 71 103 67 127 67 155 L 67 490 Z M 290 549 L 290 549 Z M 366 708 L 451 708 C 447 652 430 612 400 587 C 370 561 334 549 290 549 C 246 549 209 561 179 587 C 149 612 133 652 129 708 L 214 708 C 216 679 223 656 235 638 C 247 620 265 612 290 612 C 314 612 333 620 345 637 C 357 653 364 677 366 708 Z" unicode="ŭ" />
<glyph horiz-adv-x="754" d="M 88 0 L 88 0 Z M 666 730 L 666 266 C 666 222 658 183 643 149 C 627 114 607 85 581 61 C 555 37 524 19 489 7 C 453 -5 416 -12 376 -12 C 336 -12 299 -6 264 6 C 229 18 199 35 173 59 C 147 83 126 112 111 147 C 95 181 88 221 88 266 L 88 730 L 195 730 L 195 264 C 195 237 199 213 209 192 C 218 170 231 152 247 137 C 263 121 283 109 305 101 C 327 93 350 89 375 89 C 400 89 424 93 446 101 C 468 109 488 120 505 135 C 521 150 534 168 544 190 C 554 212 559 236 559 264 L 559 730 L 666 730 Z M 376 784 L 376 784 Z M 376 784 C 343 784 315 795 292 819 C 268 842 257 870 257 904 C 257 936 268 964 292 988 C 315 1011 343 1023 376 1023 C 410 1023 438 1011 461 988 C 484 964 496 936 496 904 C 496 870 484 842 461 819 C 438 795 410 784 376 784 Z M 376 847 C 392 847 405 852 416 863 C 426 873 432 887 432 904 C 432 920 426 933 416 944 C 405 955 392 961 376 961 C 360 961 347 955 336 944 C 325 933 320 920 320 904 C 320 887 325 873 336 863 C 347 852 360 847 376 847 Z" unicode="Ů" />
<glyph horiz-adv-x="587" d="M 67 0 L 67 0 Z M 67 490 L 169 490 L 169 181 C 169 144 179 117 201 100 C 223 82 251 74 285 74 C 319 74 349 84 374 105 C 398 126 411 156 411 194 L 411 490 L 513 490 L 513 0 L 417 0 L 417 92 C 405 64 384 39 354 19 C 324 0 287 -11 244 -11 C 219 -11 196 -7 175 0 C 153 6 135 17 119 31 C 103 45 90 62 81 83 C 71 103 67 127 67 155 L 67 490 Z M 290 544 L 290 544 Z M 290 544 C 257 544 229 555 206 579 C 182 602 171 630 171 664 C 171 696 182 724 206 748 C 229 771 257 783 290 783 C 324 783 352 771 375 748 C 398 724 410 696 410 664 C 410 630 398 602 375 579 C 352 555 324 544 290 544 Z M 290 607 C 306 607 319 612 330 623 C 340 633 346 647 346 664 C 346 680 340 693 330 704 C 319 715 306 721 290 721 C 274 721 261 715 250 704 C 239 693 234 680 234 664 C 234 647 239 633 250 623 C 261 612 274 607 290 607 Z" unicode="ů" />
<glyph horiz-adv-x="754" d="M 88 0 L 88 0 Z M 666 730 L 666 266 C 666 222 658 183 643 149 C 627 114 607 85 581 61 C 555 37 524 19 489 7 C 453 -5 416 -12 376 -12 C 336 -12 299 -6 264 6 C 229 18 199 35 173 59 C 147 83 126 112 111 147 C 95 181 88 221 88 266 L 88 730 L 195 730 L 195 264 C 195 237 199 213 209 192 C 218 170 231 152 247 137 C 263 121 283 109 305 101 C 327 93 350 89 375 89 C 400 89 424 93 446 101 C 468 109 488 120 505 135 C 521 150 534 168 544 190 C 554 212 559 236 559 264 L 559 730 L 666 730 Z M 376 785 L 376 785 Z M 179 785 L 274 936 L 382 936 L 269 785 L 179 785 Z M 371 785 L 466 936 L 575 936 L 461 785 L 371 785 Z" unicode="Ű" />
<glyph horiz-adv-x="587" d="M 67 0 L 67 0 Z M 67 490 L 169 490 L 169 181 C 169 144 179 117 201 100 C 223 82 251 74 285 74 C 319 74 349 84 374 105 C 398 126 411 156 411 194 L 411 490 L 513 490 L 513 0 L 417 0 L 417 92 C 405 64 384 39 354 19 C 324 0 287 -11 244 -11 C 219 -11 196 -7 175 0 C 153 6 135 17 119 31 C 103 45 90 62 81 83 C 71 103 67 127 67 155 L 67 490 Z M 290 545 L 290 545 Z M 93 545 L 188 696 L 296 696 L 183 545 L 93 545 Z M 285 545 L 380 696 L 489 696 L 375 545 L 285 545 Z" unicode="ű" />
<glyph horiz-adv-x="754" d="M 88 0 L 88 0 Z M 666 730 L 666 266 C 666 222 658 183 643 149 C 627 114 607 85 581 61 C 555 37 524 19 489 7 C 453 -5 416 -12 376 -12 C 336 -12 299 -6 264 6 C 229 18 199 35 173 59 C 147 83 126 112 111 147 C 95 181 88 221 88 266 L 88 730 L 195 730 L 195 264 C 195 237 199 213 209 192 C 218 170 231 152 247 137 C 263 121 283 109 305 101 C 327 93 350 89 375 89 C 400 89 424 93 446 101 C 468 109 488 120 505 135 C 521 150 534 168 544 190 C 554 212 559 236 559 264 L 559 730 L 666 730 Z M 431 -8 L 431 -8 Z M 535 -92 L 564 -134 C 543 -155 520 -171 495 -182 C 469 -193 441 -199 411 -199 C 376 -199 349 -191 329 -177 C 309 -162 299 -143 299 -121 C 299 -97 309 -74 331 -53 C 352 -31 381 -13 418 2 L 472 2 C 445 -11 424 -25 409 -39 C 393 -53 386 -66 386 -80 C 386 -93 391 -103 402 -111 C 413 -119 427 -123 444 -123 C 463 -123 480 -120 496 -114 C 512 -108 525 -100 535 -92 Z" unicode="Ų" />
<glyph horiz-adv-x="587" d="M 67 0 L 67 0 Z M 67 490 L 169 490 L 169 181 C 169 144 179 117 201 100 C 223 82 251 74 285 74 C 319 74 349 84 374 105 C 398 126 411 156 411 194 L 411 490 L 513 490 L 513 0 L 417 0 L 417 92 C 405 64 384 39 354 19 C 324 0 287 -11 244 -11 C 219 -11 196 -7 175 0 C 153 6 135 17 119 31 C 103 45 90 62 81 83 C 71 103 67 127 67 155 L 67 490 Z M 437 -7 L 437 -7 Z M 541 -91 L 570 -133 C 549 -154 526 -170 501 -181 C 475 -192 447 -198 417 -198 C 382 -198 355 -190 335 -176 C 315 -161 305 -142 305 -120 C 305 -96 315 -73 337 -52 C 358 -30 387 -12 424 3 L 478 3 C 451 -10 430 -24 415 -38 C 399 -52 392 -65 392 -79 C 392 -92 397 -102 408 -110 C 419 -118 433 -122 450 -122 C 469 -122 486 -119 502 -113 C 518 -107 531 -99 541 -91 Z" unicode="ų" />
<glyph horiz-adv-x="932" d="M 8 0 L 8 0 Z M 925 730 L 699 -7 L 637 -7 L 468 529 L 291 -7 L 229 -7 L 8 730 L 119 730 L 269 214 L 441 730 L 502 730 L 672 213 L 823 730 L 925 730 Z M 469 786 L 469 786 Z M 645 786 L 550 786 L 469 891 L 387 786 L 294 786 L 417 958 L 522 958 L 645 786 Z" unicode="Ŵ" />
<glyph horiz-adv-x="726" d="M 4 0 L 4 0 Z M 487 -3 L 368 300 L 238 -3 L 179 -3 L 4 490 L 112 490 L 223 153 L 342 444 L 402 444 L 513 155 L 624 490 L 722 490 L 546 -3 L 487 -3 Z M 368 546 L 368 546 Z M 544 546 L 449 546 L 368 651 L 286 546 L 193 546 L 316 718 L 421 718 L 544 546 Z" unicode="ŵ" />
<glyph horiz-adv-x="638" d="M 0 0 L 0 0 Z M 662 730 L 384 315 L 384 0 L 274 0 L 274 320 L 0 730 L 123 730 L 334 417 L 545 730 L 662 730 Z M 332 786 L 332 786 Z M 508 786 L 413 786 L 332 891 L 250 786 L 157 786 L 280 958 L 385 958 L 508 786 Z" unicode="Ŷ" />
<glyph horiz-adv-x="520" d="M 0 0 L 0 0 Z M 522 490 L 249 -82 C 226 -129 199 -160 168 -176 C 136 -192 107 -200 80 -200 C 64 -200 50 -198 38 -195 C 26 -191 18 -189 13 -187 L 43 -94 C 46 -96 52 -98 60 -100 C 68 -102 76 -104 85 -104 C 101 -104 115 -99 129 -89 C 142 -79 155 -60 169 -34 L 206 40 L -4 490 L 107 490 L 260 147 L 416 490 L 522 490 Z M 260 546 L 260 546 Z M 436 546 L 341 546 L 260 651 L 178 546 L 85 546 L 208 718 L 313 718 L 436 546 Z" unicode="ŷ" />
<glyph horiz-adv-x="662" d="M 0 0 L 0 0 Z M 662 730 L 384 315 L 384 0 L 274 0 L 274 320 L 0 730 L 123 730 L 334 417 L 545 730 L 662 730 Z M 332 786 L 332 786 Z M 469 786 L 383 786 L 383 944 L 469 944 L 469 786 Z M 281 786 L 195 786 L 195 944 L 281 944 L 281 786 Z" unicode="Ÿ" />
<glyph horiz-adv-x="577" d="M 18 0 L 18 0 Z M 559 730 L 559 684 L 169 98 L 571 98 L 571 0 L 18 0 L 18 45 L 404 632 L 47 632 L 47 730 L 559 730 Z M 295 790 L 295 790 Z M 183 790 L 287 952 L 408 952 L 285 790 L 183 790 Z" unicode="Ź" />
<glyph horiz-adv-x="440" d="M 15 0 L 15 0 Z M 416 490 L 416 443 L 167 90 L 430 90 L 430 0 L 15 0 L 15 37 L 269 400 L 27 400 L 27 490 L 416 490 Z M 225 550 L 225 550 Z M 113 550 L 217 712 L 338 712 L 215 550 L 113 550 Z" unicode="ź" />
<glyph horiz-adv-x="577" d="M 18 0 L 18 0 Z M 559 730 L 559 684 L 169 98 L 571 98 L 571 0 L 18 0 L 18 45 L 404 632 L 47 632 L 47 730 L 559 730 Z M 295 786 L 295 786 Z M 342 786 L 249 786 L 249 950 L 342 950 L 342 786 Z" unicode="Ż" />
<glyph horiz-adv-x="440" d="M 15 0 L 15 0 Z M 416 490 L 416 443 L 167 90 L 430 90 L 430 0 L 15 0 L 15 37 L 269 400 L 27 400 L 27 490 L 416 490 Z M 225 546 L 225 546 Z M 272 546 L 179 546 L 179 710 L 272 710 L 272 546 Z" unicode="ż" />
<glyph horiz-adv-x="595" d="M 18 0 L 18 0 Z M 559 730 L 559 684 L 169 98 L 571 98 L 571 0 L 18 0 L 18 45 L 404 632 L 47 632 L 47 730 L 559 730 Z M 295 786 L 295 786 Z M 120 958 L 215 958 L 296 852 L 378 958 L 471 958 L 348 786 L 243 786 L 120 958 Z" unicode="Ž" />
<glyph horiz-adv-x="440" d="M 15 0 L 15 0 Z M 416 490 L 416 443 L 167 90 L 430 90 L 430 0 L 15 0 L 15 37 L 269 400 L 27 400 L 27 490 L 416 490 Z M 225 546 L 225 546 Z M 50 718 L 145 718 L 226 612 L 308 718 L 401 718 L 278 546 L 173 546 L 50 718 Z" unicode="ž" />
<glyph horiz-adv-x="372" d="M 190 -57 C 187 -89 174 -117 151 -142 C 127 -166 98 -179 62 -179 C 43 -179 25 -177 8 -174 C -9 -171 -22 -168 -31 -164 L -21 -91 C -16 -91 -9 -93 0 -95 C 10 -97 19 -98 28 -98 C 47 -98 63 -91 77 -78 C 90 -64 98 -45 101 -21 L 132 329 L 40 329 L 40 411 L 139 411 L 158 625 C 160 644 165 661 173 676 C 181 690 192 702 204 712 C 216 722 229 729 243 734 C 257 739 270 742 284 742 C 298 742 311 741 325 740 C 339 739 347 738 350 738 L 342 649 C 340 649 336 650 330 651 C 324 651 318 652 312 652 C 293 652 278 645 266 633 C 254 620 247 600 245 574 L 231 411 L 334 411 L 334 329 L 224 329 L 190 -57 Z" unicode="ƒ" />
<glyph horiz-adv-x="555" d="M 31 0 L 31 0 Z M 286 -12 C 229 -12 179 -3 137 12 C 94 28 59 51 31 79 L 99 163 C 118 140 145 121 179 106 C 213 91 248 84 285 84 C 319 84 348 93 372 111 C 396 129 408 153 408 183 C 408 211 397 235 375 256 C 353 276 316 298 263 320 C 193 348 141 379 107 412 C 73 445 56 493 56 555 C 56 610 76 655 116 690 C 156 724 209 742 275 742 C 321 742 362 734 397 720 C 432 706 463 688 489 668 L 431 579 C 408 597 383 612 357 624 C 331 635 303 641 275 641 C 241 641 213 632 193 616 C 172 600 162 579 162 553 C 162 523 173 499 196 480 C 219 461 261 439 322 415 C 391 386 441 355 471 321 C 501 287 516 243 516 189 C 516 157 509 129 497 104 C 485 79 468 58 447 41 C 426 23 402 10 374 1 C 346 -7 316 -12 286 -12 Z M 267 -78 L 267 -78 Z M 366 -78 C 363 -104 358 -131 350 -158 C 342 -185 333 -210 322 -234 C 310 -258 298 -279 285 -298 C 271 -317 258 -332 245 -344 L 169 -309 C 177 -300 185 -287 194 -271 C 203 -255 212 -236 221 -216 C 229 -195 237 -173 244 -149 C 251 -125 256 -101 260 -78 L 366 -78 Z" unicode="Ș" />
<glyph horiz-adv-x="451" d="M 33 0 L 33 0 Z M 242 -11 C 195 -11 154 -5 120 6 C 85 17 56 32 33 52 L 81 122 C 101 107 125 95 153 86 C 181 77 210 73 239 73 C 263 73 282 78 297 90 C 311 101 319 116 319 134 C 319 150 310 164 293 176 C 276 188 246 200 203 212 C 149 226 110 246 86 271 C 61 295 49 326 49 364 C 49 405 66 438 100 464 C 134 489 177 502 228 502 C 271 502 307 496 337 484 C 367 472 390 460 406 448 L 363 376 C 345 387 326 397 304 406 C 282 415 258 420 232 420 C 210 420 191 415 174 407 C 157 398 149 386 149 370 C 149 362 150 356 152 350 C 154 344 159 338 167 333 C 174 327 185 322 199 316 C 213 310 231 304 255 298 C 309 282 349 262 377 238 C 405 214 419 182 419 141 C 419 94 402 57 368 30 C 334 2 292 -11 242 -11 Z M 220 -74 L 220 -74 Z M 319 -74 C 316 -100 311 -127 303 -154 C 295 -181 286 -206 275 -230 C 263 -254 251 -275 238 -294 C 224 -313 211 -328 198 -340 L 122 -305 C 130 -296 138 -283 147 -267 C 156 -251 165 -232 174 -212 C 182 -191 190 -169 197 -145 C 204 -121 209 -97 213 -74 L 319 -74 Z" unicode="ș" />
<glyph horiz-adv-x="550" d="M 10 0 L 10 0 Z M 540 632 L 327 632 L 327 0 L 217 0 L 217 632 L 10 632 L 10 730 L 540 730 L 540 632 Z M 243 -73 L 243 -73 Z M 342 -73 C 339 -99 334 -126 326 -153 C 318 -180 309 -205 298 -229 C 286 -253 274 -274 261 -293 C 247 -312 234 -327 221 -339 L 145 -304 C 153 -295 161 -282 170 -266 C 179 -250 188 -231 197 -211 C 205 -190 213 -168 220 -144 C 227 -120 232 -96 236 -73 L 342 -73 Z" unicode="Ț" />
<glyph horiz-adv-x="328" d="M 11 0 L 11 0 Z M 307 95 L 316 11 C 308 5 297 1 281 -1 C 265 -4 248 -6 231 -6 C 211 -6 192 -3 174 1 C 156 6 140 14 126 26 C 112 37 101 52 93 70 C 85 88 81 111 81 138 L 81 402 L 11 402 L 11 490 L 81 490 L 81 612 L 183 624 L 183 490 L 301 490 L 301 402 L 183 402 L 183 151 C 183 127 188 109 200 98 C 211 87 227 82 249 82 C 260 82 271 83 283 87 C 294 90 302 93 307 95 Z M 155 -73 L 155 -73 Z M 254 -73 C 251 -99 246 -126 238 -153 C 230 -180 221 -205 210 -229 C 198 -253 186 -274 173 -293 C 159 -312 146 -327 133 -339 L 57 -304 C 65 -295 73 -282 82 -266 C 91 -250 100 -231 109 -211 C 117 -190 125 -168 132 -144 C 139 -120 144 -96 148 -73 L 254 -73 Z" unicode="ț" />
<glyph horiz-adv-x="276" d="M 206 490 L 206 -32 C 206 -84 191 -125 163 -156 C 135 -186 99 -202 55 -202 C 37 -202 18 -200 -1 -196 C -21 -192 -37 -187 -50 -181 L -33 -98 C -25 -102 -14 -105 -2 -108 C 9 -110 23 -112 38 -112 C 56 -112 72 -103 85 -87 C 97 -71 104 -49 104 -22 L 104 490 L 206 490 Z" unicode="ȷ" />
<glyph horiz-adv-x="500" d="M 426 546 L 331 546 L 250 651 L 168 546 L 75 546 L 198 718 L 303 718 L 426 546 Z" unicode="ˆ" />
<glyph horiz-adv-x="500" d="M 75 718 L 170 718 L 251 612 L 333 718 L 426 718 L 303 546 L 198 546 L 75 718 Z" unicode="ˇ" />
<glyph horiz-adv-x="500" d="M 326 708 L 411 708 C 407 652 390 612 360 587 C 330 561 294 549 250 549 C 206 549 169 561 139 587 C 109 612 93 652 89 708 L 174 708 C 176 679 183 656 195 638 C 207 620 225 612 250 612 C 274 612 293 620 305 637 C 317 653 324 677 326 708 Z" unicode="˘" />
<glyph horiz-adv-x="500" d="M 297 546 L 204 546 L 204 710 L 297 710 L 297 546 Z" unicode="˙" />
<glyph horiz-adv-x="510" d="M 255 544 C 222 544 194 555 171 579 C 147 602 136 630 136 664 C 136 696 147 724 171 748 C 194 771 222 783 255 783 C 289 783 317 771 340 748 C 363 724 375 696 375 664 C 375 630 363 602 340 579 C 317 555 289 544 255 544 Z M 255 607 C 271 607 284 612 295 623 C 305 633 311 647 311 664 C 311 680 305 693 295 704 C 284 715 271 721 255 721 C 239 721 226 715 215 704 C 204 693 199 680 199 664 C 199 647 204 633 215 623 C 226 612 239 607 255 607 Z" unicode="˚" />
<glyph horiz-adv-x="500" d="M 361 -84 L 390 -126 C 369 -147 346 -163 321 -174 C 295 -185 267 -191 237 -191 C 202 -191 175 -183 155 -169 C 135 -154 125 -135 125 -113 C 125 -89 135 -66 157 -45 C 178 -23 207 -5 244 10 L 298 10 C 271 -3 250 -17 235 -31 C 219 -45 212 -58 212 -72 C 212 -85 217 -95 228 -103 C 239 -111 253 -115 270 -115 C 289 -115 306 -112 322 -106 C 338 -100 351 -92 361 -84 Z" unicode="˛" />
<glyph horiz-adv-x="500" d="M 344 692 L 422 692 C 422 644 415 608 401 585 C 387 562 367 551 343 551 C 324 551 308 554 294 562 C 280 569 267 576 257 583 C 246 589 236 596 226 603 C 216 610 207 614 198 614 C 188 614 180 608 174 598 C 168 588 164 573 164 555 L 86 555 C 86 602 95 637 115 661 C 135 684 155 696 177 696 C 193 696 208 692 220 685 C 232 678 245 670 257 662 C 266 654 275 647 284 641 C 292 635 301 632 310 632 C 318 632 326 637 333 648 C 339 658 343 673 344 692 Z" unicode="˜" />
<glyph horiz-adv-x="500" d="M 66 545 L 161 696 L 269 696 L 156 545 L 66 545 Z M 258 545 L 353 696 L 462 696 L 348 545 L 258 545 Z" unicode="˝" />
<glyph horiz-adv-x="0" d="M 0 545 L 0 545 Z M 113 545 L 10 545 L -113 707 L 7 707 L 113 545 Z" unicode="̀" />
<glyph horiz-adv-x="0" d="M 0 550 L 0 550 Z M -112 550 L -8 712 L 113 712 L -10 550 L -112 550 Z" unicode="́" />
<glyph horiz-adv-x="0" d="M 0 546 L 0 546 Z M 176 546 L 81 546 L 0 651 L -82 546 L -175 546 L -52 718 L 53 718 L 176 546 Z" unicode="̂" />
<glyph horiz-adv-x="0" d="M 0 551 L 0 551 Z M 92 692 L 170 692 C 170 644 163 608 149 585 C 135 562 115 551 91 551 C 72 551 56 554 42 562 C 28 569 15 576 5 583 C -5 589 -15 596 -25 603 C -35 610 -44 614 -54 614 C -63 614 -71 608 -77 598 C -83 588 -87 573 -88 555 L -166 555 C -166 602 -156 637 -136 661 C -116 684 -96 696 -75 696 C -58 696 -43 692 -31 685 C -19 678 -7 670 5 662 C 14 654 23 647 32 641 C 40 635 49 632 58 632 C 66 632 74 637 81 648 C 87 658 91 673 92 692 Z" unicode="̃" />
<glyph horiz-adv-x="0" d="M 0 561 L 0 561 Z M 134 561 L -134 561 L -134 643 L 134 643 L 134 561 Z" unicode="̄" />
<glyph horiz-adv-x="0" d="M 0 549 L 0 549 Z M 76 708 L 161 708 C 157 652 140 612 110 587 C 80 561 44 549 0 549 C -44 549 -80 561 -110 587 C -140 612 -157 652 -161 708 L -76 708 C -74 679 -67 656 -55 638 C -43 620 -24 612 0 612 C 24 612 43 620 55 637 C 67 653 74 677 76 708 Z" unicode="̆" />
<glyph horiz-adv-x="0" d="M 0 546 L 0 546 Z M 47 546 L -46 546 L -46 710 L 47 710 L 47 546 Z" unicode="̇" />
<glyph horiz-adv-x="0" d="M 0 546 L 0 546 Z M 137 546 L 51 546 L 51 704 L 137 704 L 137 546 Z M -51 546 L -137 546 L -137 704 L -51 704 L -51 546 Z" unicode="̈" />
<glyph horiz-adv-x="0" d="M 0 544 L 0 544 Z M 0 544 C -32 544 -60 555 -84 579 C -107 602 -119 630 -119 664 C -119 696 -107 724 -84 748 C -60 771 -32 783 0 783 C 34 783 62 771 85 748 C 108 724 120 696 120 664 C 120 630 108 602 85 579 C 62 555 34 544 0 544 Z M 0 607 C 16 607 29 612 40 623 C 50 633 56 647 56 664 C 56 680 50 693 40 704 C 29 715 16 721 0 721 C -15 721 -28 715 -39 704 C -50 693 -56 680 -56 664 C -56 647 -50 633 -39 623 C -28 612 -15 607 0 607 Z" unicode="̊" />
<glyph horiz-adv-x="0" d="M 0 545 L 0 545 Z M -197 545 L -102 696 L 6 696 L -107 545 L -197 545 Z M -5 545 L 90 696 L 199 696 L 85 545 L -5 545 Z" unicode="̋" />
<glyph horiz-adv-x="0" d="M 0 546 L 0 546 Z M -175 718 L -80 718 L 1 612 L 83 718 L 176 718 L 53 546 L -52 546 L -175 718 Z" unicode="̌" />
<glyph horiz-adv-x="0" d="M 0 -73 L 0 -73 Z M 99 -73 C 96 -99 91 -126 83 -153 C 75 -180 66 -205 55 -229 C 43 -253 31 -274 18 -293 C 4 -312 -8 -327 -22 -339 L -98 -304 C -90 -295 -81 -282 -72 -266 C -63 -250 -54 -231 -46 -211 C -37 -190 -29 -168 -22 -144 C -15 -120 -10 -96 -7 -73 L 99 -73 Z" unicode="̦" />
<glyph horiz-adv-x="0" d="M 0 0 L 0 0 Z M 9 -189 C -15 -189 -40 -186 -66 -180 C -92 -174 -112 -166 -126 -157 L -113 -112 C -103 -116 -91 -121 -75 -127 C -59 -132 -43 -135 -25 -135 C -11 -135 1 -131 12 -125 C 22 -119 28 -111 28 -101 C 28 -89 23 -80 14 -76 C 4 -71 -5 -69 -16 -69 C -24 -69 -30 -69 -36 -70 C -41 -71 -47 -73 -54 -75 L -69 -60 L -7 13 L 55 13 L 5 -49 C 39 -42 67 -45 91 -58 C 114 -70 126 -89 126 -114 C 126 -139 114 -158 90 -170 C 66 -182 39 -189 9 -189 Z" unicode="̧" />
<glyph horiz-adv-x="0" d="M 0 0 L 0 0 Z M 104 -84 L 133 -126 C 112 -147 89 -163 64 -174 C 38 -185 10 -191 -20 -191 C -54 -191 -82 -183 -102 -169 C -122 -154 -132 -135 -132 -113 C -132 -89 -121 -66 -100 -45 C -78 -23 -49 -5 -13 10 L 41 10 C 14 -3 -6 -17 -22 -31 C -37 -45 -45 -58 -45 -72 C -45 -85 -39 -95 -28 -103 C -17 -111 -3 -115 13 -115 C 32 -115 49 -112 65 -106 C 81 -100 94 -92 104 -84 Z" unicode="̨" />
<glyph horiz-adv-x="565" d="M 0 0 L 0 0 Z M 651 0 L 0 0 L 301 731 L 353 731 L 651 0 Z M 504 86 L 321 548 L 140 86 L 504 86 Z" unicode="Δ" />
<glyph horiz-adv-x="724" d="M 40 0 L 40 0 Z M 49 0 L 49 94 L 256 94 L 256 160 C 192 184 140 222 100 273 C 60 324 40 382 40 446 C 40 488 48 527 64 564 C 80 600 102 632 132 659 C 162 686 198 707 241 723 C 283 739 331 747 383 747 C 437 747 486 739 530 723 C 574 707 611 685 641 658 C 671 631 694 599 710 563 C 726 526 734 487 734 446 C 734 382 715 324 679 273 C 643 222 589 184 518 160 L 518 94 L 724 94 L 724 0 L 434 0 L 434 212 C 492 232 538 263 572 305 C 605 346 622 391 622 441 C 622 473 615 502 603 529 C 591 556 574 579 553 599 C 532 618 507 633 478 644 C 448 655 417 661 384 661 C 351 661 320 655 292 644 C 263 633 238 618 218 598 C 198 578 182 555 170 528 C 158 501 152 471 152 439 C 152 391 168 346 201 306 C 233 266 280 234 340 212 L 340 0 L 49 0 Z" unicode="Ω" />
<glyph horiz-adv-x="588" d="M 73 0 L 73 0 Z M 73 -151 L 73 490 L 173 490 L 173 168 C 173 140 183 117 204 99 C 225 81 252 73 285 73 C 317 73 346 84 372 106 C 398 128 411 159 411 199 L 411 490 L 511 490 L 511 0 L 419 0 L 419 92 C 407 65 387 42 358 24 C 329 5 298 -5 264 -7 C 242 -7 222 -2 204 6 C 186 14 173 27 165 43 L 165 -151 L 73 -151 Z" unicode="μ" />
<glyph horiz-adv-x="636" d="M 191 464 L 191 0 L 91 0 L 91 464 L 15 464 L 15 542 L 621 542 L 621 464 L 541 464 L 541 0 L 440 0 L 440 464 L 191 464 Z" unicode="π" />
<glyph horiz-adv-x="932" d="M 8 0 L 8 0 Z M 925 730 L 699 -7 L 637 -7 L 468 529 L 291 -7 L 229 -7 L 8 730 L 119 730 L 269 214 L 441 730 L 502 730 L 672 213 L 823 730 L 925 730 Z M 469 785 L 469 785 Z M 582 785 L 479 785 L 356 947 L 476 947 L 582 785 Z" unicode="Ẁ" />
<glyph horiz-adv-x="726" d="M 4 0 L 4 0 Z M 487 -3 L 368 300 L 238 -3 L 179 -3 L 4 490 L 112 490 L 223 153 L 342 444 L 402 444 L 513 155 L 624 490 L 722 490 L 546 -3 L 487 -3 Z M 368 545 L 368 545 Z M 481 545 L 378 545 L 255 707 L 375 707 L 481 545 Z" unicode="ẁ" />
<glyph horiz-adv-x="932" d="M 8 0 L 8 0 Z M 925 730 L 699 -7 L 637 -7 L 468 529 L 291 -7 L 229 -7 L 8 730 L 119 730 L 269 214 L 441 730 L 502 730 L 672 213 L 823 730 L 925 730 Z M 469 790 L 469 790 Z M 357 790 L 461 952 L 582 952 L 459 790 L 357 790 Z" unicode="Ẃ" />
<glyph horiz-adv-x="726" d="M 4 0 L 4 0 Z M 487 -3 L 368 300 L 238 -3 L 179 -3 L 4 490 L 112 490 L 223 153 L 342 444 L 402 444 L 513 155 L 624 490 L 722 490 L 546 -3 L 487 -3 Z M 368 550 L 368 550 Z M 256 550 L 360 712 L 481 712 L 358 550 L 256 550 Z" unicode="ẃ" />
<glyph horiz-adv-x="932" d="M 8 0 L 8 0 Z M 925 730 L 699 -7 L 637 -7 L 468 529 L 291 -7 L 229 -7 L 8 730 L 119 730 L 269 214 L 441 730 L 502 730 L 672 213 L 823 730 L 925 730 Z M 469 786 L 469 786 Z M 606 786 L 520 786 L 520 944 L 606 944 L 606 786 Z M 418 786 L 332 786 L 332 944 L 418 944 L 418 786 Z" unicode="Ẅ" />
<glyph horiz-adv-x="726" d="M 4 0 L 4 0 Z M 487 -3 L 368 300 L 238 -3 L 179 -3 L 4 490 L 112 490 L 223 153 L 342 444 L 402 444 L 513 155 L 624 490 L 722 490 L 546 -3 L 487 -3 Z M 368 546 L 368 546 Z M 505 546 L 419 546 L 419 704 L 505 704 L 505 546 Z M 317 546 L 231 546 L 231 704 L 317 704 L 317 546 Z" unicode="ẅ" />
<glyph horiz-adv-x="638" d="M 0 0 L 0 0 Z M 662 730 L 384 315 L 384 0 L 274 0 L 274 320 L 0 730 L 123 730 L 334 417 L 545 730 L 662 730 Z M 332 785 L 332 785 Z M 445 785 L 342 785 L 219 947 L 339 947 L 445 785 Z" unicode="Ỳ" />
<glyph horiz-adv-x="520" d="M 0 0 L 0 0 Z M 522 490 L 249 -82 C 226 -129 199 -160 168 -176 C 136 -192 107 -200 80 -200 C 64 -200 50 -198 38 -195 C 26 -191 18 -189 13 -187 L 43 -94 C 46 -96 52 -98 60 -100 C 68 -102 76 -104 85 -104 C 101 -104 115 -99 129 -89 C 142 -79 155 -60 169 -34 L 206 40 L -4 490 L 107 490 L 260 147 L 416 490 L 522 490 Z M 260 545 L 260 545 Z M 373 545 L 270 545 L 147 707 L 267 707 L 373 545 Z" unicode="ỳ" />
<glyph horiz-adv-x="460" d="M 421 224 L 40 224 L 40 313 L 421 313 L 421 224 Z" unicode="–" />
<glyph horiz-adv-x="645" d="M 606 224 L 40 224 L 40 313 L 606 313 L 606 224 Z" unicode="—" />
<glyph horiz-adv-x="280" d="M 33 507 L 33 514 C 33 550 44 589 68 629 C 91 669 122 705 162 737 L 264 731 C 254 725 242 715 228 701 C 214 687 200 670 188 651 C 175 631 164 610 155 587 C 146 563 142 539 142 515 L 142 507 L 33 507 Z" unicode="‘" />
<glyph horiz-adv-x="280" d="M 246 737 L 246 730 C 246 693 234 655 210 616 C 186 577 155 541 117 507 L 15 513 C 25 521 37 532 51 546 C 65 560 78 577 91 596 C 103 614 114 635 123 658 C 132 680 137 704 137 729 L 137 737 L 246 737 Z" unicode="’" />
<glyph horiz-adv-x="280" d="M 246 113 L 246 106 C 246 69 234 31 210 -7 C 186 -46 155 -83 117 -117 L 15 -111 C 25 -103 37 -91 51 -77 C 65 -63 78 -46 91 -28 C 103 -9 114 11 123 34 C 132 56 137 80 137 105 L 137 113 L 246 113 Z" unicode="‚" />
<glyph horiz-adv-x="461" d="M 229 507 L 229 514 C 229 550 239 587 261 625 C 282 663 313 700 353 737 L 446 731 C 436 722 424 710 410 696 C 396 682 383 665 371 647 C 359 628 348 607 340 585 C 331 563 327 539 327 515 L 327 507 L 229 507 Z M 33 507 L 33 514 C 33 550 44 587 67 625 C 89 663 119 700 157 737 L 250 731 C 241 723 230 711 216 697 C 202 683 189 666 177 648 C 164 629 153 608 144 586 C 135 563 131 539 131 515 L 131 507 L 33 507 Z" unicode="“" />
<glyph horiz-adv-x="461" d="M 232 737 L 232 730 C 232 693 221 656 201 618 C 181 580 150 543 108 507 L 15 513 C 26 522 38 534 52 549 C 66 563 79 580 91 598 C 103 616 113 637 121 659 C 129 681 134 704 134 729 L 134 737 L 232 737 Z M 428 737 L 428 730 C 428 693 417 655 396 617 C 374 579 344 542 304 507 L 211 513 C 223 523 235 535 249 549 C 263 563 276 580 288 598 C 300 616 310 637 318 659 C 326 681 330 704 330 729 L 330 737 L 428 737 Z" unicode="”" />
<glyph horiz-adv-x="461" d="M 232 118 L 232 111 C 232 74 221 37 201 0 C 181 -38 150 -75 108 -112 L 15 -106 C 26 -96 38 -84 52 -70 C 66 -55 79 -38 91 -20 C 103 -2 113 18 121 40 C 129 62 134 85 134 110 L 134 118 L 232 118 Z M 428 118 L 428 111 C 428 74 417 36 396 -1 C 374 -39 344 -76 304 -112 L 211 -106 C 223 -96 235 -83 249 -69 C 263 -55 276 -38 288 -20 C 300 -2 310 18 318 40 C 326 62 330 85 330 110 L 330 118 L 428 118 Z" unicode="„" />
<glyph horiz-adv-x="565" d="M 540 379 L 333 379 L 333 -179 L 226 -179 L 226 379 L 25 379 L 25 470 L 226 470 L 226 730 L 333 730 L 333 470 L 540 470 L 540 379 Z" unicode="†" />
<glyph horiz-adv-x="565" d="M 227 -179 L 227 104 L 30 104 L 30 195 L 227 195 L 227 378 L 30 378 L 30 469 L 227 469 L 227 730 L 333 730 L 333 469 L 535 469 L 535 378 L 333 378 L 333 195 L 535 195 L 535 104 L 333 104 L 333 -179 L 227 -179 Z" unicode="‡" />
<glyph horiz-adv-x="382" d="M 191 473 C 217 473 240 464 258 446 C 276 428 285 405 285 379 C 285 353 276 331 258 313 C 240 295 217 286 191 286 C 164 286 142 295 124 313 C 106 331 98 353 98 379 C 98 405 106 428 124 446 C 142 464 164 473 191 473 Z" unicode="•" />
<glyph horiz-adv-x="721" d="M 69 0 L 69 133 L 172 133 L 172 0 L 69 0 Z M 309 0 L 309 133 L 412 133 L 412 0 L 309 0 Z M 549 0 L 549 133 L 652 133 L 652 0 L 549 0 Z" unicode="…" />
<glyph horiz-adv-x="1199" d="M 210 354 C 188 354 167 358 147 367 C 127 375 109 388 93 404 C 77 420 65 440 55 464 C 45 488 41 515 41 546 C 41 572 45 596 54 620 C 62 644 74 664 89 682 C 104 700 122 714 142 724 C 162 734 184 740 208 740 C 232 740 255 734 276 724 C 296 714 314 700 329 683 C 344 665 356 645 364 622 C 372 598 376 574 376 549 C 376 521 371 496 363 472 C 355 448 343 428 329 410 C 314 392 296 379 276 369 C 255 359 233 354 210 354 Z M 133 0 L 599 730 L 688 730 L 221 0 L 133 0 Z M 134 546 C 134 510 141 482 155 462 C 169 442 187 433 208 433 C 232 433 251 443 265 464 C 278 484 285 512 285 546 C 285 579 279 606 267 628 C 255 649 236 660 210 660 C 185 660 166 649 153 628 C 140 606 134 579 134 546 Z M 618 -3 C 596 -3 576 1 556 10 C 536 18 518 31 502 47 C 486 63 474 84 465 108 C 455 132 451 159 451 190 C 451 216 455 240 464 264 C 472 288 484 308 499 326 C 513 344 531 358 552 368 C 572 378 595 384 619 384 C 643 384 666 378 687 368 C 707 358 725 344 740 327 C 754 309 766 289 774 266 C 782 242 786 218 786 193 C 786 165 781 140 773 116 C 765 92 753 72 739 54 C 724 36 706 22 686 12 C 665 2 642 -3 618 -3 Z M 990 -3 C 968 -3 948 1 928 10 C 908 18 890 31 874 47 C 858 63 846 84 836 108 C 826 132 822 159 822 190 C 822 216 826 240 835 264 C 843 288 855 308 870 326 C 884 344 902 358 923 368 C 943 378 966 384 990 384 C 1014 384 1037 378 1058 368 C 1078 358 1096 344 1111 327 C 1126 309 1138 289 1146 266 C 1154 242 1158 218 1158 193 C 1158 165 1153 140 1145 116 C 1137 92 1125 72 1110 54 C 1095 36 1077 22 1057 12 C 1036 2 1014 -3 990 -3 Z M 617 77 C 641 77 660 87 674 108 C 688 128 695 156 695 190 C 695 224 688 251 676 272 C 663 293 644 304 619 304 C 595 304 577 293 564 272 C 550 251 544 224 544 190 C 544 153 551 125 565 106 C 579 86 597 77 617 77 Z M 989 77 C 1013 77 1032 87 1046 108 C 1060 128 1067 156 1067 190 C 1067 224 1060 251 1048 272 C 1035 293 1016 304 991 304 C 967 304 949 293 935 272 C 921 251 915 224 915 190 C 915 153 922 125 936 106 C 950 86 968 77 989 77 Z" unicode="‰" />
<glyph horiz-adv-x="242" d="M 213 89 L 27 257 L 27 325 L 213 492 L 213 387 L 115 289 L 213 195 L 213 89 Z" unicode="‹" />
<glyph horiz-adv-x="243" d="M 29 493 L 216 323 L 216 256 L 29 90 L 29 193 L 127 292 L 29 385 L 29 493 Z" unicode="›" />
<glyph horiz-adv-x="145" d="M 304 730 L -57 0 L -145 0 L 216 730 L 304 730 Z" unicode="⁄" />
<glyph horiz-adv-x="328" d="M 14 453 L 14 514 L 198 737 L 256 737 L 256 518 L 316 518 L 316 453 L 256 453 L 256 373 L 173 373 L 173 453 L 14 453 Z M 82 506 L 175 506 L 175 620 L 82 506 Z" unicode="⁴" />
<glyph horiz-adv-x="566" d="M 563 115 C 542 77 512 47 472 23 C 432 0 388 -12 340 -12 C 278 -12 224 10 179 56 C 134 102 104 164 89 244 L 36 244 L 36 321 L 79 321 C 78 327 78 334 78 341 C 78 347 78 354 78 361 C 78 366 78 371 78 377 C 78 383 78 388 79 394 L 36 394 L 36 471 L 87 471 C 93 510 104 546 118 580 C 132 613 149 642 170 666 C 191 690 216 708 244 722 C 272 735 304 742 339 742 C 398 742 445 730 479 706 C 513 682 538 655 555 625 L 473 583 C 460 605 443 624 422 639 C 400 653 373 661 339 661 C 297 661 263 645 236 613 C 209 581 191 533 181 471 L 492 471 L 492 394 L 175 394 C 174 389 174 384 174 379 C 174 373 174 368 174 363 C 174 355 174 348 174 341 C 174 334 174 327 175 321 L 492 321 L 492 244 L 185 244 C 197 186 218 142 247 113 C 275 83 307 69 341 69 C 375 69 404 78 428 97 C 452 116 471 138 485 163 L 563 115 Z" unicode="€" />
<glyph horiz-adv-x="914" d="M 860 302 L 768 302 L 768 581 L 633 390 L 616 390 L 482 580 L 482 302 L 393 302 L 393 730 L 472 730 L 625 516 L 777 730 L 860 730 L 860 302 Z M 364 629 L 242 629 L 242 302 L 141 302 L 141 629 L 18 629 L 18 730 L 364 730 L 364 629 Z" unicode="™" />
<glyph horiz-adv-x="774" d="M 49 0 L 49 94 L 256 94 L 256 160 C 192 184 140 222 100 273 C 60 324 40 382 40 446 C 40 488 48 527 64 564 C 80 600 102 632 132 659 C 162 686 198 707 241 723 C 283 739 331 747 383 747 C 437 747 486 739 530 723 C 574 707 611 685 641 658 C 671 631 694 599 710 563 C 726 526 734 487 734 446 C 734 382 715 324 679 273 C 643 222 589 184 518 160 L 518 94 L 724 94 L 724 0 L 434 0 L 434 212 C 492 232 538 263 572 305 C 605 346 622 391 622 441 C 622 473 615 502 603 529 C 591 556 574 579 553 599 C 532 618 507 633 478 644 C 448 655 417 661 384 661 C 351 661 320 655 292 644 C 263 633 238 618 218 598 C 198 578 182 555 170 528 C 158 501 152 471 152 439 C 152 391 168 346 201 306 C 233 266 280 234 340 212 L 340 0 L 49 0 Z" unicode="Ω" />
<glyph horiz-adv-x="578" d="M 536 287 C 536 235 529 190 516 152 C 502 114 484 83 461 59 C 437 35 410 17 379 6 C 348 -5 315 -11 281 -11 C 250 -11 220 -5 190 5 C 160 15 134 31 111 51 C 88 71 69 96 55 125 C 41 154 34 187 34 224 C 34 257 40 288 52 318 C 64 348 81 374 103 396 C 124 418 149 435 178 448 C 207 461 238 468 271 468 C 313 468 350 458 382 438 C 413 418 436 394 451 364 C 444 430 431 487 411 535 C 391 582 367 621 339 651 C 311 681 280 704 247 719 C 213 734 181 742 149 744 L 195 802 C 228 802 265 792 305 774 C 345 755 382 725 416 685 C 450 644 478 591 501 525 C 524 459 536 380 536 287 Z M 283 61 C 327 61 362 76 390 108 C 417 139 431 182 431 237 C 431 281 417 318 391 349 C 365 379 329 395 283 395 C 241 395 207 379 180 348 C 152 317 139 277 139 227 C 139 173 152 132 179 104 C 206 75 241 61 283 61 Z" unicode="∂" />
<glyph horiz-adv-x="651" d="M 651 0 L 0 0 L 301 731 L 353 731 L 651 0 Z M 504 86 L 321 548 L 140 86 L 504 86 Z" unicode="∆" />
<glyph horiz-adv-x="700" d="M 232 639 L 232 0 L 127 0 L 127 639 L 15 639 L 15 730 L 685 730 L 685 639 L 579 639 L 579 0 L 474 0 L 474 639 L 232 639 Z" unicode="∏" />
<glyph horiz-adv-x="618" d="M 188 636 L 428 307 L 154 -85 L 571 -85 L 571 -179 L -18 -179 L 321 306 L 12 730 L 550 730 L 550 636 L 188 636 Z" unicode="∑" />
<glyph horiz-adv-x="516" d="M 476 290 L 40 290 L 40 374 L 476 374 L 476 290 Z" unicode="−" />
<glyph horiz-adv-x="510" d="M 504 730 L 198 0 L 186 0 L 12 330 L 84 385 L 204 143 L 440 730 L 504 730 Z" unicode="√" />
<glyph horiz-adv-x="342" d="M 105 -21 L 162 625 C 164 644 169 661 177 676 C 185 690 194 702 206 712 C 217 722 229 729 243 734 C 257 739 270 742 284 742 C 298 742 311 741 325 740 C 339 739 347 738 350 738 L 342 649 C 340 649 336 650 330 651 C 324 651 318 652 312 652 C 293 652 278 645 266 633 C 254 620 247 600 245 574 L 190 -57 C 187 -89 174 -117 151 -142 C 127 -167 98 -179 62 -179 C 42 -179 24 -177 7 -173 C -9 -169 -22 -164 -31 -160 L -20 -89 C -16 -89 -9 -91 0 -94 C 10 -96 19 -98 28 -98 C 47 -98 64 -91 79 -78 C 93 -64 102 -45 105 -21 Z" unicode="∫" />
<glyph horiz-adv-x="500" d="M 374 502 L 455 502 C 453 454 445 414 430 384 C 414 353 390 338 356 338 C 334 338 314 342 296 351 C 278 359 263 369 251 380 C 238 391 225 401 211 409 C 197 417 183 421 169 421 C 156 421 143 413 131 398 C 118 383 112 364 112 341 L 37 341 C 37 391 46 430 66 460 C 86 489 112 504 146 504 C 168 504 187 499 204 489 C 220 479 235 468 247 458 C 259 449 272 441 285 434 C 298 426 311 423 324 423 C 342 423 354 429 362 443 C 370 456 374 476 374 502 Z M 375 323 L 455 323 C 453 275 444 235 427 204 C 410 173 384 158 349 158 C 326 158 306 162 290 171 C 273 179 259 189 247 200 C 235 210 222 220 208 228 C 194 236 181 240 168 240 C 155 240 143 232 131 217 C 119 202 113 183 113 161 L 37 161 C 37 211 47 250 67 280 C 87 310 114 325 149 325 C 171 325 191 319 209 309 C 227 299 242 288 254 278 C 265 268 277 260 290 253 C 302 245 315 242 328 242 C 344 242 356 248 364 262 C 371 276 375 296 375 323 Z" unicode="≈" />
<glyph horiz-adv-x="500" d="M 457 171 L 223 171 L 173 64 L 114 90 L 152 171 L 65 171 L 65 258 L 193 258 L 253 386 L 65 386 L 65 472 L 293 472 L 346 585 L 405 558 L 365 472 L 457 472 L 457 386 L 324 386 L 264 258 L 457 258 L 457 171 Z" unicode="≠" />
<glyph horiz-adv-x="500" d="M 62 292 L 62 357 L 433 561 L 433 470 L 161 327 L 433 181 L 433 90 L 62 292 Z M 61 88 L 433 88 L 433 16 L 61 16 L 61 88 Z" unicode="≤" />
<glyph horiz-adv-x="500" d="M 432 292 L 61 90 L 61 181 L 333 327 L 61 470 L 61 561 L 432 357 L 432 292 Z M 433 88 L 433 16 L 61 16 L 61 88 L 433 88 Z" unicode="≥" />
<glyph horiz-adv-x="537" d="M 508 326 L 274 -19 L 263 -19 L 29 326 L 29 337 L 263 681 L 274 681 L 508 337 L 508 326 Z M 413 327 L 413 336 L 273 547 L 265 547 L 124 336 L 124 327 L 265 115 L 273 115 L 413 327 Z" unicode="◊" />
<glyph horiz-adv-x="730" d="M 448 673 L 282 673 L 282 730 L 448 730 L 448 673 Z M 659 282 L 600 282 L 600 448 L 659 448 L 659 282 Z M 130 282 L 71 282 L 71 448 L 130 448 L 130 282 Z M 433 297 L 297 297 L 297 433 L 433 433 L 433 297 Z M 448 0 L 282 0 L 282 58 L 448 58 L 448 0 Z" unicode="" />
<glyph horiz-adv-x="613" d="M 361 407 L 219 407 L 219 0 L 118 0 L 118 407 L 15 407 L 15 490 L 118 490 L 118 552 C 118 590 123 622 135 650 C 147 678 162 700 180 718 C 198 736 219 749 243 758 C 267 766 291 771 315 771 C 329 771 344 769 360 767 C 376 764 388 761 396 757 L 381 668 C 375 670 367 673 357 675 C 347 677 336 678 326 678 C 314 678 301 675 288 670 C 275 665 263 658 253 648 C 243 638 234 626 228 612 C 221 597 218 580 218 561 L 218 490 L 361 490 L 361 407 Z M 541 590 L 434 590 L 434 689 L 541 689 L 541 590 Z M 539 0 L 437 0 L 437 490 L 539 490 L 539 0 Z" unicode="ﬁ" />
<glyph horiz-adv-x="595" d="M 361 407 L 219 407 L 219 0 L 118 0 L 118 407 L 16 407 L 16 490 L 118 490 L 118 548 C 118 586 123 619 135 647 C 147 675 162 698 180 716 C 198 734 219 748 243 757 C 267 765 291 770 315 770 C 329 770 344 768 360 766 C 376 763 388 760 396 756 L 381 667 C 375 669 367 672 357 674 C 347 676 336 678 326 678 C 314 678 301 675 288 670 C 275 664 263 656 253 646 C 243 636 234 623 228 608 C 221 593 218 576 218 557 L 218 490 L 361 490 L 361 407 Z M 521 765 L 521 0 L 419 0 L 419 765 L 521 765 Z" unicode="ﬂ" />
</font>
</defs>
</svg>
