<?xml version="1.0" encoding="utf-8" ?><svg version="1.1" xmlns = 'http://www.w3.org/2000/svg'><defs><font id='web' horiz-adv-x="1000">
<font-face font-family="web" descent="-200" cap-height="730" units-per-em="1000" bbox="-213,-348,1191,1024" x-height="494" ascent="800" />
<missing-glyph horiz-adv-x="500" d="" /><glyph horiz-adv-x="255" d="" unicode=" " />
<glyph horiz-adv-x="297" d="M 223 435 L 182 228 L 119 228 L 80 435 L 80 730 L 223 730 L 223 435 Z M 217 0 L 86 0 L 86 134 L 217 134 L 217 0 Z" unicode="!" />
<glyph horiz-adv-x="448" d="M 387 613 L 379 461 L 279 461 L 273 612 L 273 730 L 387 730 L 387 613 Z M 174 612 L 169 461 L 67 461 L 61 612 L 61 730 L 174 730 L 174 612 Z" unicode="&#x22;" />
<glyph horiz-adv-x="645" d="M 373 0 L 391 203 L 232 203 L 214 0 L 139 0 L 157 203 L 34 203 L 34 302 L 165 302 L 176 425 L 57 425 L 57 524 L 185 524 L 203 730 L 278 729 L 260 524 L 419 524 L 437 730 L 512 729 L 494 524 L 611 524 L 611 425 L 485 425 L 475 302 L 588 302 L 588 203 L 466 203 L 448 0 L 373 0 Z M 241 302 L 399 302 L 410 425 L 251 425 L 241 302 Z" unicode="#" />
<glyph horiz-adv-x="556" d="M 523 194 C 523 167 517 142 507 120 C 496 98 481 78 463 62 C 444 46 422 32 396 22 C 370 12 343 5 313 3 L 313 -120 L 239 -120 L 239 3 C 192 6 150 15 113 31 C 76 46 47 63 27 83 L 76 180 C 88 169 102 159 119 149 C 136 139 154 131 173 124 C 192 116 211 111 231 107 C 251 103 269 101 287 101 C 323 101 352 109 374 125 C 396 141 407 163 407 191 C 407 203 405 215 401 225 C 397 235 389 246 377 256 C 365 266 348 277 326 289 C 304 300 275 313 240 328 C 168 357 117 388 86 422 C 54 455 39 497 39 547 C 39 595 57 636 95 670 C 132 704 180 723 239 729 L 239 789 L 313 789 L 313 728 C 350 724 384 715 416 702 C 448 688 475 671 498 651 L 436 565 C 414 585 388 601 358 613 C 328 624 298 630 270 630 C 237 630 210 622 188 608 C 166 593 155 573 155 547 C 155 521 166 500 188 484 C 210 468 252 447 316 419 C 349 404 379 389 405 375 C 431 360 452 344 470 327 C 487 310 500 291 509 270 C 518 248 523 223 523 194 Z" unicode="$" />
<glyph horiz-adv-x="852" d="M 214 351 C 192 351 170 355 149 364 C 128 372 109 385 93 402 C 77 418 64 439 54 463 C 44 487 39 514 39 545 C 39 571 43 595 52 619 C 61 643 73 663 89 681 C 105 699 123 713 144 724 C 165 734 187 740 211 740 C 236 740 259 734 281 724 C 302 714 320 700 336 682 C 351 664 363 644 372 621 C 380 597 385 573 385 548 C 385 520 380 495 371 471 C 362 447 350 426 335 408 C 320 390 302 376 281 366 C 260 356 238 351 214 351 Z M 234 0 L 139 0 L 608 730 L 703 730 L 234 0 Z M 212 441 C 234 441 252 450 264 469 C 276 488 282 513 282 545 C 282 575 276 600 265 620 C 253 639 236 649 214 649 C 191 649 174 639 162 620 C 150 600 145 575 145 545 C 145 511 151 486 164 468 C 176 450 192 441 212 441 Z M 643 -3 C 621 -3 599 1 578 10 C 557 18 539 31 523 48 C 507 64 494 85 484 109 C 474 133 470 160 470 191 C 470 217 474 242 483 266 C 492 289 504 309 520 327 C 535 345 553 359 574 369 C 595 379 618 385 643 385 C 668 385 691 379 713 369 C 734 359 752 345 768 328 C 783 310 795 290 803 267 C 811 243 816 219 816 194 C 816 166 811 141 803 117 C 794 93 782 72 767 54 C 751 36 733 22 712 12 C 690 2 667 -3 643 -3 Z M 641 87 C 663 87 681 96 693 114 C 705 132 712 158 712 191 C 712 223 706 248 694 267 C 682 286 665 296 643 296 C 622 296 606 286 594 267 C 582 248 576 223 576 191 C 576 157 582 131 595 113 C 607 95 623 87 641 87 Z" unicode="%" />
<glyph horiz-adv-x="747" d="M 656 -4 L 562 77 C 526 50 487 29 443 14 C 399 0 351 -8 297 -8 C 216 -8 151 8 101 42 C 51 76 27 123 27 183 C 27 209 31 232 41 252 C 51 272 64 291 80 307 C 96 323 114 338 135 352 C 156 365 177 378 199 391 C 189 399 179 409 168 421 C 157 432 147 445 137 460 C 127 474 119 491 113 509 C 107 527 104 546 104 568 C 104 591 109 613 121 634 C 133 654 148 672 168 688 C 187 703 209 715 235 724 C 261 732 288 737 316 737 C 346 737 373 732 398 723 C 422 714 443 702 460 687 C 477 672 490 655 500 635 C 510 615 515 594 515 572 C 515 532 502 498 477 471 C 451 443 417 416 374 389 L 558 235 C 569 248 580 262 591 278 C 601 293 612 309 622 325 L 721 266 C 709 247 697 229 685 211 C 673 193 660 176 648 161 L 729 93 L 656 -4 Z M 293 456 L 299 451 C 331 471 355 490 372 508 C 389 526 398 545 398 565 C 398 585 390 604 376 620 C 362 636 341 644 313 644 C 287 644 266 635 250 619 C 234 603 226 585 226 567 C 226 547 232 527 245 509 C 258 490 274 472 293 456 Z M 163 189 C 163 158 176 134 203 118 C 230 101 263 93 301 93 C 332 93 362 98 391 109 C 420 119 447 134 473 154 L 273 327 C 236 303 208 282 190 262 C 172 242 163 217 163 189 Z" unicode="&#x26;" />
<glyph horiz-adv-x="235" d="M 174 608 L 169 453 L 67 453 L 61 608 L 61 730 L 174 730 L 174 608 Z" unicode="'" />
<glyph horiz-adv-x="345" d="M 329 -80 L 329 -185 C 289 -167 250 -143 214 -113 C 178 -82 146 -46 119 -5 C 91 35 70 81 54 132 C 38 182 30 236 30 293 C 30 351 38 405 55 455 C 71 505 93 549 121 588 C 149 626 181 659 217 687 C 253 714 290 735 329 749 L 329 653 C 309 641 289 625 270 605 C 251 585 234 560 219 531 C 204 502 192 468 183 429 C 174 389 170 344 170 293 C 170 204 184 128 213 65 C 242 2 281 -46 329 -80 Z" unicode="(" />
<glyph horiz-adv-x="345" d="M 17 652 L 17 749 C 54 736 90 716 126 690 C 162 663 194 630 222 591 C 250 552 272 507 290 456 C 307 404 316 348 316 286 C 316 227 307 172 290 122 C 273 71 251 26 223 -14 C 195 -54 164 -88 128 -117 C 92 -146 55 -169 17 -185 L 17 -78 C 39 -62 61 -42 81 -20 C 101 2 118 29 133 59 C 148 89 160 123 169 161 C 177 199 182 240 182 286 C 182 339 177 386 167 427 C 157 468 145 503 129 533 C 113 562 96 586 76 606 C 56 626 36 641 17 652 Z" unicode=")" />
<glyph horiz-adv-x="422" d="M 389 569 L 264 537 L 359 454 L 283 388 L 213 500 L 144 388 L 68 453 L 162 539 L 32 566 L 74 661 L 182 596 L 160 730 L 267 730 L 243 596 L 354 660 L 389 569 Z" unicode="*" />
<glyph horiz-adv-x="509" d="M 479 282 L 305 282 L 305 111 L 205 111 L 205 282 L 30 282 L 30 380 L 205 380 L 205 551 L 305 551 L 305 380 L 479 380 L 479 282 Z" unicode="+" />
<glyph horiz-adv-x="261" d="M 223 125 C 221 97 216 68 208 39 C 200 10 190 -16 179 -41 C 167 -66 155 -88 141 -108 C 127 -127 114 -141 102 -151 L 13 -110 C 20 -101 28 -88 37 -72 C 46 -55 55 -36 63 -15 C 71 6 78 29 85 53 C 91 77 96 101 99 125 L 223 125 Z" unicode="," />
<glyph horiz-adv-x="366" d="M 321 215 L 46 215 L 46 323 L 321 323 L 321 215 Z" unicode="-" />
<glyph horiz-adv-x="262" d="M 194 0 L 69 0 L 69 145 L 194 145 L 194 0 Z" unicode="." />
<glyph horiz-adv-x="339" d="M 340 730 L 109 0 L -1 0 L 232 730 L 340 730 Z" unicode="/" />
<glyph horiz-adv-x="598" d="M 296 -12 C 218 -12 156 19 109 83 C 61 147 38 239 38 361 C 38 413 43 462 54 508 C 64 554 80 595 102 629 C 124 663 151 691 185 711 C 218 731 257 742 301 742 C 346 742 385 732 418 713 C 450 694 477 668 498 635 C 519 602 535 563 545 517 C 555 471 560 421 560 369 C 560 312 554 260 544 213 C 533 166 517 126 495 93 C 473 59 446 33 413 15 C 379 -2 340 -12 296 -12 Z M 297 96 C 344 96 379 119 401 166 C 423 213 434 277 434 359 C 434 442 423 509 402 559 C 381 609 347 634 299 634 C 253 634 219 610 197 563 C 175 515 164 448 164 362 C 164 278 175 212 197 166 C 219 119 253 96 297 96 Z" unicode="0" />
<glyph horiz-adv-x="392" d="M 310 0 L 185 0 L 185 559 C 177 551 168 543 156 535 C 144 527 131 520 117 514 C 103 508 89 503 75 499 C 61 495 48 492 37 492 L 37 610 C 71 611 104 623 136 645 C 168 667 198 695 228 731 L 310 731 L 310 0 Z" unicode="1" />
<glyph horiz-adv-x="564" d="M 538 0 L 25 0 L 25 41 L 332 378 C 352 400 369 424 383 449 C 396 474 403 500 403 526 C 403 556 391 581 367 601 C 343 621 313 631 275 631 C 233 631 200 618 178 593 C 155 568 144 537 144 499 L 29 501 C 31 576 55 635 101 678 C 147 720 210 742 288 742 C 359 742 417 724 462 689 C 506 653 529 605 529 543 C 529 489 518 445 496 409 C 474 373 450 343 426 317 L 227 108 L 538 108 L 538 0 Z" unicode="2" />
<glyph horiz-adv-x="552" d="M 266 -12 C 202 -12 148 -3 104 13 C 60 30 26 50 4 73 L 67 166 C 85 151 110 136 141 120 C 172 104 210 96 254 96 C 304 96 342 108 370 133 C 397 157 411 188 411 226 C 411 261 397 288 369 307 C 341 325 306 335 263 335 L 135 335 L 135 442 L 261 442 C 297 442 327 451 350 471 C 373 490 385 513 385 540 C 385 564 374 586 354 605 C 334 624 306 634 270 634 C 227 634 193 626 167 610 C 141 594 119 576 102 556 L 33 640 C 42 651 54 663 69 675 C 83 687 101 698 121 708 C 141 718 164 726 190 732 C 216 738 246 742 279 742 C 346 742 401 726 444 694 C 487 662 509 617 509 560 C 509 518 496 482 470 452 C 444 422 414 403 380 394 C 422 384 458 364 488 333 C 518 302 533 263 533 215 C 533 188 527 161 517 134 C 507 107 491 83 469 61 C 447 39 420 22 386 8 C 352 -5 312 -12 266 -12 Z" unicode="3" />
<glyph horiz-adv-x="585" d="M 577 182 L 459 182 L 459 0 L 343 0 L 343 182 L 14 182 L 14 266 L 371 740 L 459 740 L 459 285 L 577 285 L 577 182 Z M 345 283 L 345 553 L 144 283 L 345 283 Z" unicode="4" />
<glyph horiz-adv-x="572" d="M 275 -12 C 213 -12 161 -2 119 17 C 76 37 43 57 21 79 L 84 171 C 102 152 127 135 159 119 C 191 103 227 95 267 95 C 313 95 349 109 376 139 C 402 168 416 206 416 252 C 416 295 403 329 377 354 C 351 379 319 392 280 392 C 248 392 220 386 196 374 C 171 362 152 345 140 323 L 60 342 L 91 730 L 482 730 L 482 619 L 182 619 L 169 438 C 181 453 200 466 226 478 C 252 489 280 495 311 495 C 381 495 438 472 480 428 C 522 384 543 327 543 257 C 543 218 536 182 524 149 C 511 116 493 88 470 64 C 447 40 419 22 386 8 C 353 -5 316 -12 275 -12 Z" unicode="5" />
<glyph horiz-adv-x="578" d="M 300 -12 C 262 -12 226 -5 194 7 C 161 19 133 37 110 61 C 86 85 68 113 55 147 C 41 181 35 218 35 260 C 35 302 41 343 53 382 C 65 420 82 458 104 494 C 126 530 151 564 181 598 C 211 632 243 665 277 698 L 339 756 L 419 680 L 370 635 C 323 589 281 545 245 504 C 209 463 186 429 177 402 C 187 418 205 434 231 450 C 257 465 287 473 322 473 C 391 473 447 451 490 407 C 532 363 554 305 554 234 C 554 200 547 167 535 137 C 522 107 504 81 482 59 C 459 37 432 19 401 7 C 370 -5 336 -12 300 -12 Z M 300 94 C 340 94 372 107 396 134 C 420 160 432 193 432 231 C 432 271 420 305 397 331 C 374 357 341 371 298 371 C 280 371 262 368 246 362 C 229 356 214 347 202 336 C 189 324 179 310 171 293 C 163 276 160 257 160 236 C 160 194 172 159 197 133 C 221 107 256 94 300 94 Z" unicode="6" />
<glyph horiz-adv-x="507" d="M 500 730 L 515 686 L 170 -10 L 62 41 L 353 618 L 14 618 L 14 730 L 500 730 Z" unicode="7" />
<glyph horiz-adv-x="595" d="M 416 385 C 454 375 487 354 515 322 C 543 290 558 249 558 197 C 558 167 552 140 540 115 C 528 89 510 67 488 49 C 466 30 438 15 406 4 C 374 -6 337 -12 297 -12 C 216 -12 153 7 107 46 C 61 84 39 135 39 197 C 39 223 43 247 52 269 C 61 291 72 310 86 326 C 100 342 115 355 132 365 C 149 375 166 381 182 384 C 168 388 153 395 139 405 C 124 415 111 426 100 440 C 88 454 79 470 72 488 C 64 506 61 526 61 548 C 61 577 67 604 79 628 C 91 652 107 672 128 689 C 149 705 174 718 203 728 C 232 737 263 742 297 742 C 371 742 430 724 472 688 C 514 652 535 608 536 555 C 536 513 523 476 499 446 C 475 416 447 395 416 385 Z M 296 425 C 334 425 364 434 386 454 C 408 474 419 499 419 529 C 419 564 407 591 385 610 C 363 628 333 638 296 638 C 261 638 232 628 209 608 C 186 588 175 562 175 530 C 175 498 186 472 210 453 C 233 434 262 425 296 425 Z M 297 89 C 341 89 376 100 402 122 C 428 144 441 174 441 211 C 441 247 427 275 401 295 C 375 315 340 325 297 325 C 255 325 220 315 194 295 C 167 275 154 247 154 210 C 154 174 167 144 193 122 C 219 100 253 89 297 89 Z" unicode="8" />
<glyph horiz-adv-x="578" d="M 247 -17 L 172 62 L 230 113 C 268 149 304 187 338 229 C 372 271 394 308 405 340 C 394 322 374 305 345 289 C 316 273 286 265 254 265 C 185 265 129 286 87 329 C 45 372 24 430 24 503 C 24 536 30 567 43 597 C 55 627 73 652 96 674 C 118 696 145 713 177 726 C 208 738 242 745 280 745 C 316 745 351 738 383 726 C 415 714 443 696 467 673 C 490 650 508 622 522 588 C 536 554 543 517 543 475 C 543 429 536 386 524 345 C 511 304 494 266 473 230 C 451 194 427 160 399 128 C 371 96 341 67 311 41 L 247 -17 Z M 280 363 C 320 363 353 375 380 401 C 406 426 420 459 420 500 C 420 543 406 577 379 603 C 352 628 320 641 282 641 C 241 641 209 627 185 601 C 161 574 149 542 149 504 C 149 463 160 429 183 403 C 205 376 238 363 280 363 Z" unicode="9" />
<glyph horiz-adv-x="262" d="M 193 352 L 69 352 L 69 494 L 193 494 L 193 352 Z M 193 0 L 69 0 L 69 143 L 193 143 L 193 0 Z" unicode=":" />
<glyph horiz-adv-x="261" d="M 200 352 L 77 352 L 77 494 L 200 494 L 200 352 Z M 204 113 C 201 88 196 62 188 36 C 180 9 170 -15 160 -39 C 149 -63 137 -84 125 -103 C 112 -121 99 -135 87 -145 L -3 -105 C 5 -95 13 -83 23 -67 C 33 -51 42 -33 51 -13 C 59 6 67 27 73 49 C 79 71 83 92 85 113 L 204 113 Z" unicode=";" />
<glyph horiz-adv-x="437" d="M 381 88 L 47 283 L 47 371 L 381 566 L 381 451 L 173 330 L 381 204 L 381 88 Z" unicode="&#x3C;" />
<glyph horiz-adv-x="506" d="M 452 382 L 55 382 L 55 486 L 452 486 L 452 382 Z M 452 163 L 55 163 L 55 267 L 452 267 L 452 163 Z" unicode="=" />
<glyph horiz-adv-x="437" d="M 387 283 L 54 88 L 54 204 L 263 330 L 54 452 L 54 566 L 387 371 L 387 283 Z" unicode="&#x3E;" />
<glyph horiz-adv-x="475" d="M 159 217 C 159 259 165 293 177 321 C 189 349 209 376 238 402 C 260 422 281 443 300 463 C 318 483 328 509 328 541 C 328 569 317 592 295 608 C 273 624 246 632 216 632 C 187 632 161 625 139 612 C 116 598 98 582 85 564 L 7 641 C 29 671 61 695 101 714 C 141 732 186 742 235 742 C 301 742 354 724 395 690 C 435 655 456 610 456 556 C 456 530 452 507 445 487 C 437 467 428 449 416 433 C 404 417 392 403 378 390 C 364 376 350 364 338 352 C 314 334 299 312 292 288 C 284 264 280 240 280 217 L 159 217 Z M 154 0 L 154 134 L 290 134 L 290 0 L 154 0 Z" unicode="?" />
<glyph horiz-adv-x="871" d="M 426 -35 C 370 -35 319 -25 272 -5 C 225 15 185 42 151 76 C 117 110 91 151 72 198 C 53 245 44 295 44 348 C 44 402 53 452 72 499 C 91 546 117 587 151 621 C 185 655 226 681 274 701 C 322 720 375 730 433 730 C 491 730 545 721 593 705 C 641 688 682 665 716 635 C 750 605 776 568 794 525 C 812 482 822 435 822 383 C 822 338 816 300 806 269 C 796 237 783 212 767 192 C 751 172 733 158 713 149 C 693 140 674 136 656 136 C 622 136 594 142 574 154 C 553 166 539 183 533 204 C 523 188 504 172 477 158 C 450 144 417 137 378 137 C 328 137 291 149 265 174 C 239 199 226 230 226 268 C 226 310 244 343 282 369 C 319 395 371 408 437 408 L 522 408 L 522 417 C 522 441 514 459 498 471 C 482 482 459 488 428 488 C 403 488 380 485 359 479 C 338 473 320 466 306 460 L 272 540 C 289 548 312 556 342 563 C 371 570 400 574 428 574 C 484 574 529 561 564 535 C 598 509 616 465 616 405 L 616 264 C 616 251 619 239 626 228 C 632 217 645 212 665 212 C 673 212 682 214 692 219 C 701 223 709 232 717 244 C 725 256 731 272 736 294 C 741 315 744 342 744 376 C 744 416 736 453 722 488 C 708 522 687 552 661 578 C 635 603 602 623 564 637 C 525 651 481 659 433 659 C 385 659 343 651 305 635 C 267 619 234 598 208 570 C 181 542 160 510 146 472 C 131 434 124 394 124 351 C 124 307 131 266 147 228 C 162 190 183 156 210 128 C 236 100 268 77 306 61 C 343 45 384 37 428 37 C 451 37 475 39 499 45 C 523 50 547 58 569 69 L 599 2 C 572 -10 544 -20 514 -26 C 484 -32 455 -35 426 -35 Z M 413 218 C 437 218 459 222 480 232 C 500 241 514 250 522 260 L 522 337 L 440 337 C 404 337 378 332 362 322 C 345 312 337 297 337 279 C 337 258 343 243 356 233 C 368 223 387 218 413 218 Z" unicode="@" />
<glyph horiz-adv-x="669" d="M 670 0 L 533 0 L 469 160 L 190 160 L 129 0 L -1 0 L 298 733 L 378 733 L 670 0 Z M 435 262 L 329 531 L 224 262 L 435 262 Z" unicode="A" />
<glyph horiz-adv-x="628" d="M 90 0 L 90 730 L 341 730 C 405 730 457 714 496 683 C 534 652 554 609 554 555 C 554 507 541 468 515 438 C 489 408 456 389 418 382 C 438 380 459 375 480 367 C 501 359 520 348 536 334 C 552 320 565 302 575 280 C 585 258 591 233 591 204 C 591 171 584 142 571 117 C 558 91 540 70 518 53 C 496 35 469 22 438 13 C 407 4 374 0 338 0 L 90 0 Z M 214 421 L 314 421 C 354 421 382 432 399 454 C 416 476 425 501 425 528 C 425 556 415 578 395 596 C 375 614 348 623 314 623 L 214 623 L 214 421 Z M 215 106 L 338 106 C 380 106 411 116 430 138 C 448 160 458 186 458 217 C 458 246 446 270 424 289 C 402 308 372 318 334 318 L 215 318 L 215 106 Z" unicode="B" />
<glyph horiz-adv-x="723" d="M 406 -12 C 356 -12 308 -3 264 14 C 220 31 181 56 149 88 C 117 120 91 160 73 207 C 54 253 45 306 45 365 C 45 419 54 470 72 516 C 90 562 116 602 148 636 C 180 669 218 695 262 714 C 306 732 355 742 407 742 C 473 742 529 732 576 713 C 623 694 662 666 694 628 L 608 538 C 587 562 561 582 529 598 C 497 614 457 623 411 623 C 373 623 340 616 311 604 C 281 591 257 573 237 551 C 217 529 202 502 192 470 C 182 438 177 404 177 366 C 177 321 183 282 197 249 C 210 216 228 189 250 168 C 272 146 297 130 326 120 C 355 109 385 104 417 104 C 465 104 505 113 539 132 C 573 150 601 175 624 205 L 708 131 C 678 90 638 56 587 29 C 535 1 475 -12 406 -12 Z" unicode="C" />
<glyph horiz-adv-x="757" d="M 90 0 L 90 730 L 330 730 C 390 730 444 721 492 704 C 540 687 580 663 612 633 C 644 602 669 565 686 521 C 703 477 712 428 712 376 C 712 323 703 274 686 228 C 668 182 643 142 610 108 C 576 74 535 48 485 29 C 435 9 377 0 313 0 L 90 0 Z M 220 107 L 312 107 C 357 107 396 114 430 128 C 463 142 490 162 512 186 C 534 210 550 238 561 270 C 571 302 577 337 577 373 C 577 447 555 507 511 553 C 467 599 405 622 326 622 L 220 622 L 220 107 Z" unicode="D" />
<glyph horiz-adv-x="598" d="M 548 0 L 90 0 L 90 730 L 529 730 L 529 618 L 218 618 L 218 417 L 511 417 L 511 307 L 218 307 L 218 112 L 548 112 L 548 0 Z" unicode="E" />
<glyph horiz-adv-x="533" d="M 493 618 L 220 618 L 220 418 L 478 418 L 478 306 L 220 306 L 220 0 L 90 0 L 90 730 L 493 730 L 493 618 Z" unicode="F" />
<glyph horiz-adv-x="780" d="M 423 380 L 734 380 L 734 151 C 706 103 664 63 609 33 C 554 3 490 -12 416 -12 C 362 -12 313 -3 267 15 C 221 33 182 58 150 91 C 117 124 91 164 73 210 C 54 256 45 308 45 365 C 45 423 54 475 74 522 C 94 568 120 608 154 640 C 188 672 227 697 273 715 C 318 733 366 742 417 742 C 453 742 486 738 515 732 C 543 725 568 716 590 706 C 612 696 630 684 646 672 C 661 660 674 648 685 636 L 602 547 C 584 565 561 583 532 599 C 502 615 463 623 413 623 C 379 623 347 617 318 605 C 288 593 263 577 242 555 C 221 533 205 506 193 474 C 181 442 175 406 175 367 C 175 327 181 291 193 258 C 205 225 221 197 243 173 C 265 149 291 130 322 117 C 352 103 386 97 422 97 C 468 97 508 105 543 123 C 578 140 603 163 619 192 L 619 268 L 423 268 L 423 380 Z" unicode="G" />
<glyph horiz-adv-x="773" d="M 683 0 L 553 0 L 553 302 L 220 302 L 220 0 L 90 0 L 90 730 L 220 730 L 220 417 L 553 417 L 553 730 L 683 730 L 683 0 Z" unicode="H" />
<glyph horiz-adv-x="320" d="M 225 0 L 95 0 L 95 730 L 225 730 L 225 0 Z" unicode="I" />
<glyph horiz-adv-x="417" d="M 338 730 L 338 200 C 338 171 333 144 324 118 C 314 92 301 69 283 50 C 265 31 242 16 215 5 C 188 -6 157 -12 122 -12 C 102 -12 82 -10 61 -8 C 40 -5 24 0 12 6 L 37 112 C 43 109 54 107 69 105 C 84 103 97 102 108 102 C 142 102 168 111 186 130 C 204 148 214 171 214 197 L 214 730 L 338 730 Z" unicode="J" />
<glyph horiz-adv-x="700" d="M 699 0 L 535 0 L 296 307 L 220 215 L 220 0 L 90 0 L 90 730 L 220 730 L 220 370 L 511 730 L 661 730 L 385 399 L 699 0 Z" unicode="K" />
<glyph horiz-adv-x="530" d="M 520 0 L 90 0 L 90 730 L 220 730 L 220 113 L 520 113 L 520 0 Z" unicode="L" />
<glyph horiz-adv-x="936" d="M 845 0 L 723 0 L 723 470 L 490 134 L 443 134 L 211 467 L 211 0 L 90 0 L 90 730 L 173 730 L 471 294 L 764 730 L 845 730 L 845 0 Z" unicode="M" />
<glyph horiz-adv-x="784" d="M 694 0 L 604 0 L 212 501 L 212 0 L 90 0 L 90 730 L 189 730 L 573 236 L 573 730 L 694 730 L 694 0 Z" unicode="N" />
<glyph horiz-adv-x="837" d="M 422 -12 C 365 -12 313 -2 267 16 C 220 35 180 62 148 96 C 115 130 90 170 72 217 C 54 264 45 315 45 370 C 45 423 54 472 74 518 C 93 564 119 603 152 636 C 185 669 224 695 269 714 C 314 732 362 742 414 742 C 468 742 519 733 566 715 C 612 697 652 671 686 639 C 719 606 745 566 764 520 C 783 474 793 423 793 368 C 793 311 783 259 763 212 C 743 165 716 125 682 92 C 648 59 609 33 564 15 C 519 -2 472 -12 422 -12 Z M 424 103 C 457 103 488 108 518 120 C 547 132 572 149 593 171 C 614 193 631 221 643 254 C 655 287 661 325 661 367 C 661 405 654 440 642 472 C 629 504 612 531 590 553 C 568 575 541 593 511 605 C 481 617 448 624 413 624 C 379 624 347 618 318 607 C 289 595 264 579 243 558 C 222 536 206 510 194 478 C 182 446 176 410 176 370 C 176 328 182 290 195 257 C 208 223 226 195 248 173 C 270 150 297 133 327 121 C 357 109 390 103 424 103 Z" unicode="O" />
<glyph horiz-adv-x="618" d="M 90 0 L 90 730 L 357 730 C 391 730 422 725 451 715 C 479 705 504 690 525 671 C 545 652 561 629 573 601 C 585 573 591 542 591 508 C 591 474 585 442 574 414 C 562 385 546 360 526 340 C 506 320 481 304 452 292 C 422 280 390 275 355 275 L 220 275 L 220 0 L 90 0 Z M 219 384 L 338 384 C 376 384 406 395 427 418 C 448 441 459 471 459 508 C 459 545 446 573 422 592 C 397 611 366 621 330 621 L 219 621 L 219 384 Z" unicode="P" />
<glyph horiz-adv-x="832" d="M 705 -72 L 705 -188 C 631 -186 565 -168 508 -135 C 450 -102 409 -59 385 -6 C 332 -2 284 10 242 30 C 200 50 164 76 135 109 C 106 141 84 180 68 224 C 52 268 45 317 45 370 C 45 422 54 470 73 516 C 92 562 118 601 151 635 C 183 668 222 694 268 713 C 313 732 362 742 415 742 C 469 742 520 733 567 715 C 613 697 653 672 687 640 C 720 607 746 567 765 521 C 783 474 793 422 793 365 C 793 321 786 279 773 240 C 760 201 742 166 719 135 C 695 104 667 77 634 55 C 601 33 565 16 526 6 C 544 -18 570 -36 602 -50 C 634 -63 669 -70 705 -72 Z M 422 103 C 456 103 487 108 517 120 C 546 132 571 149 592 171 C 613 193 630 221 642 254 C 654 287 661 325 661 367 C 661 408 654 445 641 477 C 627 509 609 535 587 557 C 565 579 538 595 508 607 C 478 618 446 624 412 624 C 378 624 346 618 317 607 C 288 595 263 579 243 558 C 222 536 206 510 194 478 C 182 446 176 411 176 371 C 176 327 182 289 196 256 C 209 222 227 194 249 172 C 271 149 297 132 327 120 C 357 108 388 103 422 103 Z" unicode="Q" />
<glyph horiz-adv-x="643" d="M 90 0 L 90 730 L 335 730 C 365 730 394 725 421 716 C 448 707 472 694 492 677 C 512 660 527 639 539 614 C 551 588 557 560 557 528 C 557 496 552 467 543 443 C 534 419 522 398 508 381 C 494 364 477 351 459 341 C 440 331 421 325 402 323 L 400 319 L 628 0 L 477 0 L 278 287 L 219 287 L 219 0 L 90 0 Z M 218 394 L 308 394 C 340 394 368 404 391 424 C 414 444 426 473 426 512 C 426 546 415 572 393 592 C 371 612 343 622 311 622 L 218 622 L 218 394 Z" unicode="R" />
<glyph horiz-adv-x="563" d="M 290 -12 C 232 -12 181 -4 137 12 C 93 28 56 50 28 78 L 104 177 C 122 155 148 137 182 122 C 215 106 251 99 289 99 C 320 99 346 106 368 122 C 389 138 400 159 400 186 C 400 212 389 234 368 253 C 347 271 313 291 265 311 C 197 338 144 369 108 403 C 71 437 53 486 53 550 C 53 607 74 653 116 689 C 158 724 213 742 281 742 C 329 742 370 734 406 720 C 442 706 473 688 500 668 L 435 566 C 412 583 388 597 362 609 C 336 621 310 627 282 627 C 250 627 224 619 206 605 C 187 590 178 571 178 549 C 178 522 189 500 211 483 C 233 466 274 445 332 421 C 400 393 449 362 480 328 C 511 294 527 250 527 194 C 527 161 520 132 507 106 C 494 80 477 59 455 42 C 433 24 408 11 380 2 C 351 -7 321 -12 290 -12 Z" unicode="S" />
<glyph horiz-adv-x="563" d="M 553 617 L 343 617 L 343 0 L 213 0 L 213 617 L 10 617 L 10 730 L 553 730 L 553 617 Z" unicode="T" />
<glyph horiz-adv-x="759" d="M 675 730 L 675 266 C 675 222 667 183 651 149 C 635 114 614 85 588 61 C 561 37 530 19 494 7 C 458 -5 419 -12 379 -12 C 339 -12 301 -6 265 6 C 229 18 198 35 172 59 C 145 83 124 112 108 147 C 92 181 85 221 85 266 L 85 730 L 211 730 L 211 265 C 211 216 227 177 259 148 C 291 118 331 104 378 104 C 424 104 464 118 498 147 C 531 175 548 215 548 265 L 548 730 L 675 730 Z" unicode="U" />
<glyph horiz-adv-x="679" d="M 681 730 L 377 -4 L 297 -4 L -1 730 L 138 730 L 341 212 L 547 730 L 681 730 Z" unicode="V" />
<glyph horiz-adv-x="937" d="M 932 730 L 703 -6 L 633 -6 L 470 502 L 299 -6 L 229 -6 L 5 730 L 137 730 L 279 247 L 439 730 L 510 730 L 670 246 L 811 730 L 932 730 Z" unicode="W" />
<glyph horiz-adv-x="641" d="M 487 0 L 319 266 L 150 0 L 12 0 L 250 374 L 25 730 L 169 730 L 323 487 L 477 730 L 614 730 L 391 379 L 631 0 L 487 0 Z" unicode="X" />
<glyph horiz-adv-x="674" d="M 676 730 L 399 310 L 399 0 L 269 0 L 269 316 L -2 730 L 144 730 L 340 430 L 538 730 L 676 730 Z" unicode="Y" />
<glyph horiz-adv-x="602" d="M 566 730 L 566 677 L 193 112 L 577 112 L 577 0 L 17 0 L 17 50 L 385 617 L 41 617 L 41 730 L 566 730 Z" unicode="Z" />
<glyph horiz-adv-x="338" d="M 304 -179 L 86 -179 L 86 730 L 304 730 L 304 632 L 201 632 L 201 -80 L 304 -80 L 304 -179 Z" unicode="[" />
<glyph horiz-adv-x="339" d="M -1 730 L 106 730 L 340 0 L 230 0 L -1 730 Z" unicode="\" />
<glyph horiz-adv-x="332" d="M 246 -179 L 34 -179 L 34 -82 L 132 -82 L 132 633 L 34 633 L 34 730 L 246 730 L 246 -179 Z" unicode="]" />
<glyph horiz-adv-x="515" d="M 454 369 L 349 369 L 256 602 L 166 369 L 63 369 L 205 730 L 308 730 L 454 369 Z" unicode="^" />
<glyph horiz-adv-x="500" d="M 500 -171 L 0 -171 L 0 -70 L 500 -70 L 500 -171 Z" unicode="_" />
<glyph horiz-adv-x="500" d="M 367 548 L 245 548 L 119 709 L 262 709 L 367 548 Z" unicode="`" />
<glyph horiz-adv-x="548" d="M 487 0 L 372 0 L 372 61 C 356 40 334 23 306 10 C 278 -3 244 -10 202 -10 C 144 -10 101 4 71 33 C 41 61 27 98 27 142 C 27 196 48 238 92 268 C 135 298 196 315 274 319 L 369 325 L 369 332 C 369 357 361 376 345 390 C 329 403 304 410 272 410 C 241 410 211 404 183 394 C 154 383 129 371 109 358 L 62 439 C 84 457 115 472 153 486 C 191 500 235 507 286 507 C 346 507 395 493 432 465 C 468 437 487 392 487 330 L 487 0 Z M 372 142 L 372 238 L 272 234 C 234 232 205 225 183 211 C 161 197 150 178 150 153 C 150 132 158 115 174 103 C 190 91 210 85 236 85 C 265 85 292 90 316 102 C 340 114 359 127 372 142 Z" unicode="a" />
<glyph horiz-adv-x="611" d="M 354 -6 C 307 -6 269 3 241 23 C 213 42 194 64 185 89 L 185 0 L 70 0 L 70 765 L 183 765 L 183 405 C 191 430 211 453 241 473 C 271 493 309 504 355 504 C 419 504 472 481 514 437 C 556 392 577 332 577 258 C 577 216 570 179 558 147 C 546 114 529 86 509 64 C 489 41 465 24 438 12 C 411 0 383 -6 354 -6 Z M 321 90 C 361 90 392 104 416 134 C 440 164 452 202 452 250 C 452 297 440 335 418 364 C 396 392 363 407 319 407 C 281 407 249 393 224 367 C 198 340 186 300 186 246 C 186 196 198 157 223 130 C 248 103 281 90 321 90 Z" unicode="b" />
<glyph horiz-adv-x="535" d="M 423 170 L 520 111 C 501 79 474 51 438 26 C 402 1 353 -11 291 -11 C 253 -11 219 -4 187 7 C 155 19 128 37 106 59 C 83 81 65 109 53 141 C 40 173 34 208 34 247 C 34 285 40 320 54 352 C 67 384 85 411 109 434 C 132 456 160 474 192 487 C 224 499 258 506 296 506 C 326 506 354 502 379 495 C 403 487 425 477 443 465 C 461 453 477 439 490 423 C 502 407 512 391 519 375 L 412 326 C 402 347 387 365 369 379 C 350 393 325 401 294 401 C 254 401 221 386 197 357 C 172 327 160 291 160 247 C 160 200 172 163 197 135 C 221 107 255 94 297 94 C 332 94 359 102 378 118 C 397 134 412 152 423 170 Z" unicode="c" />
<glyph horiz-adv-x="610" d="M 265 -9 C 231 -9 200 -3 172 9 C 144 21 119 38 99 60 C 79 82 63 108 51 140 C 39 171 34 206 34 244 C 34 282 40 317 53 349 C 66 381 83 408 105 432 C 126 455 151 473 180 486 C 209 499 240 506 272 506 C 306 506 337 498 365 482 C 393 466 412 447 424 427 L 424 765 L 540 765 L 540 0 L 429 0 L 429 88 C 425 78 418 67 408 55 C 398 43 387 33 373 24 C 359 14 342 6 324 0 C 306 -5 286 -9 265 -9 Z M 292 88 C 332 88 364 102 388 132 C 412 162 425 201 425 251 C 425 305 411 344 385 369 C 359 394 328 407 292 407 C 251 407 219 392 195 364 C 171 335 159 296 159 248 C 159 202 170 163 194 133 C 217 103 250 88 292 88 Z" unicode="d" />
<glyph horiz-adv-x="571" d="M 301 -11 C 262 -11 226 -5 194 6 C 161 17 133 33 110 55 C 86 77 68 104 55 136 C 41 168 35 204 35 244 C 35 281 41 316 54 348 C 67 380 85 407 108 431 C 131 454 159 472 191 486 C 223 499 258 506 296 506 C 371 506 431 480 477 428 C 522 376 545 303 546 209 L 152 209 C 154 177 167 150 192 126 C 217 102 253 90 300 90 C 338 90 369 96 392 108 C 414 120 432 134 445 150 L 517 76 C 495 51 467 30 435 14 C 403 -2 358 -11 301 -11 Z M 154 296 L 425 296 C 423 327 410 353 386 375 C 362 397 331 408 292 408 C 252 408 220 396 195 374 C 170 351 156 325 154 296 Z" unicode="e" />
<glyph horiz-adv-x="347" d="M 336 391 L 221 391 L 221 0 L 101 0 L 101 391 L 12 391 L 12 494 L 101 494 L 101 586 C 101 616 105 643 115 667 C 124 690 136 709 152 724 C 167 739 185 750 205 758 C 225 766 247 770 269 770 C 287 770 305 768 321 764 C 337 760 351 756 362 752 L 345 647 C 338 649 330 652 321 654 C 311 656 301 658 290 658 C 270 658 254 650 241 635 C 227 619 221 599 221 575 L 221 494 L 336 494 L 336 391 Z" unicode="f" />
<glyph horiz-adv-x="608" d="M 262 5 C 228 5 198 11 170 23 C 142 35 119 51 99 73 C 79 95 63 121 52 151 C 40 181 35 215 35 251 C 35 327 56 388 99 435 C 141 481 197 505 266 505 C 304 505 338 496 368 480 C 398 463 418 443 429 420 L 429 494 L 540 494 L 540 55 C 540 12 532 -24 517 -56 C 502 -87 482 -113 458 -134 C 433 -154 404 -170 372 -180 C 339 -190 306 -195 272 -195 C 214 -195 168 -189 135 -177 C 102 -165 78 -153 62 -143 L 112 -51 C 124 -61 144 -71 170 -82 C 196 -92 226 -98 261 -98 C 305 -98 343 -86 375 -63 C 407 -40 423 -6 423 40 L 423 101 C 414 79 395 57 366 36 C 337 15 302 5 262 5 Z M 294 98 C 329 98 360 111 386 139 C 412 166 425 205 425 255 C 425 299 413 334 389 362 C 365 390 332 404 292 404 C 253 404 221 390 196 362 C 171 334 159 296 159 247 C 159 199 171 162 195 136 C 219 110 252 98 294 98 Z" unicode="g" />
<glyph horiz-adv-x="594" d="M 530 0 L 410 0 L 410 321 C 410 347 400 367 382 383 C 364 398 340 406 311 406 C 281 406 253 396 228 378 C 203 360 191 334 191 300 L 191 0 L 70 0 L 70 765 L 181 765 L 181 409 C 190 435 210 458 240 477 C 270 496 309 506 355 506 C 404 506 445 492 479 464 C 513 436 530 397 530 349 L 530 0 Z" unicode="h" />
<glyph horiz-adv-x="269" d="M 72 587 L 72 710 L 197 710 L 197 587 L 72 587 Z M 74 0 L 74 494 L 195 494 L 195 0 L 74 0 Z" unicode="i" />
<glyph horiz-adv-x="284" d="M 220 587 L 96 587 L 96 710 L 220 710 L 220 587 Z M 218 494 L 218 -28 C 218 -80 203 -122 174 -154 C 144 -186 105 -202 55 -202 C 37 -202 17 -200 -5 -196 C -27 -192 -45 -187 -59 -181 L -42 -86 C -33 -90 -22 -93 -9 -96 C 3 -98 17 -100 32 -100 C 51 -100 67 -92 79 -76 C 91 -60 97 -39 97 -13 L 97 494 L 218 494 Z" unicode="j" />
<glyph horiz-adv-x="556" d="M 580 1 L 438 0 L 269 209 L 189 127 L 189 0 L 70 0 L 70 765 L 187 765 L 187 251 L 405 494 L 539 494 L 348 288 L 580 1 Z" unicode="k" />
<glyph horiz-adv-x="260" d="M 191 765 L 191 0 L 70 0 L 70 765 L 191 765 Z" unicode="l" />
<glyph horiz-adv-x="927" d="M 70 0 L 70 494 L 181 494 L 181 408 C 191 436 213 460 246 478 C 278 496 315 506 357 506 C 393 506 425 497 454 481 C 482 465 501 440 509 408 L 514 408 C 524 437 545 461 577 479 C 609 497 645 506 685 506 C 737 506 780 491 813 463 C 846 435 863 397 863 349 L 863 0 L 743 0 L 743 320 C 743 347 734 368 716 383 C 698 398 674 406 645 406 C 631 406 617 403 603 399 C 589 394 576 387 565 378 C 553 369 544 358 537 344 C 530 330 527 315 527 298 L 527 0 L 407 0 L 407 322 C 407 346 398 366 380 382 C 362 398 338 406 308 406 C 276 406 249 396 225 376 C 201 356 190 329 190 295 L 190 0 L 70 0 Z" unicode="m" />
<glyph horiz-adv-x="594" d="M 530 0 L 409 0 L 409 321 C 409 347 399 368 381 383 C 363 398 339 406 311 406 C 281 406 253 396 228 378 C 203 360 191 332 191 296 L 191 0 L 70 0 L 70 494 L 180 494 L 180 407 C 191 435 213 459 245 478 C 277 496 313 506 354 506 C 404 506 445 491 479 463 C 513 435 530 398 530 352 L 530 0 Z" unicode="n" />
<glyph horiz-adv-x="600" d="M 296 -11 C 262 -11 230 -5 199 6 C 167 17 139 33 115 55 C 91 77 71 104 56 136 C 41 168 34 204 34 246 C 34 282 41 317 55 349 C 69 381 89 408 113 431 C 137 454 165 472 197 486 C 229 499 262 506 296 506 C 332 506 366 500 399 489 C 432 477 461 461 486 440 C 510 418 530 392 544 362 C 558 331 566 297 566 259 C 566 219 558 182 544 149 C 530 115 510 87 486 64 C 461 40 432 22 399 9 C 366 -4 332 -11 296 -11 Z M 300 93 C 342 93 376 107 402 137 C 428 166 441 205 441 254 C 441 297 427 332 401 360 C 374 388 338 402 293 402 C 253 402 221 387 197 359 C 172 331 160 293 160 246 C 160 196 173 158 200 132 C 226 106 260 93 300 93 Z" unicode="o" />
<glyph horiz-adv-x="612" d="M 70 -198 L 70 494 L 181 494 L 181 400 C 190 428 210 453 242 474 C 273 494 311 505 356 505 C 388 505 417 499 445 487 C 472 475 495 459 515 438 C 535 416 550 390 561 360 C 572 329 578 295 578 257 C 578 215 571 178 559 146 C 546 113 529 85 509 63 C 489 41 465 24 438 12 C 410 0 382 -5 354 -5 C 313 -5 278 3 249 21 C 219 38 199 58 189 82 L 189 -198 L 70 -198 Z M 324 91 C 360 91 390 105 415 133 C 440 161 453 201 453 251 C 453 295 441 333 419 363 C 397 393 364 408 322 408 C 282 408 250 394 224 368 C 198 341 186 300 186 246 C 186 190 199 151 226 127 C 252 103 285 91 324 91 Z" unicode="p" />
<glyph horiz-adv-x="610" d="M 421 -198 L 421 83 C 409 61 389 40 362 21 C 334 1 300 -8 260 -8 C 194 -8 140 14 98 60 C 56 106 35 165 35 239 C 35 279 41 315 54 348 C 66 380 83 408 105 431 C 127 454 152 472 181 485 C 209 497 239 504 271 504 C 310 504 344 494 373 475 C 401 455 420 436 428 416 L 428 494 L 540 494 L 540 -198 L 421 -198 Z M 293 88 C 330 88 361 102 387 131 C 412 159 425 199 425 251 C 425 303 412 342 387 368 C 361 394 330 407 292 407 C 249 407 216 392 193 364 C 170 335 159 297 159 249 C 159 201 170 162 194 132 C 218 102 251 88 293 88 Z" unicode="q" />
<glyph horiz-adv-x="445" d="M 448 476 L 392 369 C 379 381 365 389 350 394 C 334 398 319 401 303 401 C 275 401 249 390 226 369 C 202 348 191 321 191 287 L 191 0 L 70 0 L 70 494 L 181 494 L 181 403 C 185 415 191 427 200 439 C 209 451 221 462 235 472 C 249 482 265 490 283 496 C 301 502 322 506 344 506 C 366 506 386 503 404 498 C 422 492 436 485 448 476 Z" unicode="r" />
<glyph horiz-adv-x="463" d="M 248 -12 C 200 -12 158 -6 122 5 C 85 17 54 32 30 52 L 85 133 C 105 118 130 106 160 98 C 190 89 218 85 245 85 C 266 85 283 90 297 100 C 310 110 317 122 317 137 C 317 151 308 164 291 175 C 273 185 245 196 205 207 C 153 221 113 240 87 265 C 60 290 47 323 47 363 C 47 405 64 440 100 466 C 136 492 181 506 235 506 C 279 506 318 500 350 488 C 382 476 406 463 422 451 L 374 367 C 355 378 334 388 312 397 C 289 406 265 411 240 411 C 220 411 202 407 187 400 C 171 393 164 382 164 368 C 164 354 170 343 182 335 C 194 327 222 316 267 303 C 320 287 361 268 390 245 C 418 221 433 188 433 145 C 433 97 415 58 381 30 C 346 2 302 -12 248 -12 Z" unicode="s" />
<glyph horiz-adv-x="340" d="M 320 110 L 330 11 C 322 5 309 1 293 -1 C 276 -4 259 -6 242 -6 C 220 -6 200 -3 180 2 C 160 8 142 17 127 29 C 111 41 99 58 90 78 C 81 98 77 122 77 150 L 77 392 L 9 392 L 9 494 L 77 494 L 77 616 L 197 631 L 197 494 L 313 494 L 313 392 L 197 392 L 197 168 C 197 143 202 125 213 114 C 224 103 241 98 264 98 C 274 98 285 99 296 102 C 307 105 315 108 320 110 Z" unicode="t" />
<glyph horiz-adv-x="594" d="M 64 494 L 184 494 L 184 185 C 184 152 193 128 213 112 C 233 96 258 89 290 89 C 322 89 349 98 371 117 C 393 136 404 162 404 196 L 404 494 L 524 494 L 524 0 L 411 0 L 411 86 C 399 59 378 36 348 18 C 318 0 282 -10 240 -10 C 191 -10 149 4 115 32 C 81 60 64 100 64 154 L 64 494 Z" unicode="u" />
<glyph horiz-adv-x="527" d="M 535 494 L 296 -3 L 226 -3 L -7 494 L 126 494 L 267 177 L 410 494 L 535 494 Z" unicode="v" />
<glyph horiz-adv-x="736" d="M 488 -3 L 373 290 L 248 -3 L 180 -3 L 3 494 L 128 494 L 232 178 L 344 457 L 413 457 L 518 179 L 622 494 L 733 494 L 556 -3 L 488 -3 Z" unicode="w" />
<glyph horiz-adv-x="481" d="M 349 0 L 237 165 L 121 0 L -1 0 L 177 254 L 14 494 L 145 494 L 244 348 L 346 494 L 468 494 L 303 260 L 479 0 L 349 0 Z" unicode="x" />
<glyph horiz-adv-x="534" d="M 538 494 L 263 -79 C 239 -127 211 -159 177 -175 C 143 -191 112 -200 82 -200 C 64 -200 49 -198 37 -194 C 24 -190 15 -188 10 -186 L 44 -81 C 47 -83 53 -85 61 -87 C 69 -89 78 -91 87 -91 C 103 -91 118 -86 130 -76 C 142 -66 155 -49 168 -25 L 205 47 L -5 494 L 126 494 L 268 173 L 414 494 L 538 494 Z" unicode="y" />
<glyph horiz-adv-x="450" d="M 427 494 L 427 439 L 190 104 L 439 104 L 439 0 L 14 0 L 14 44 L 257 390 L 25 390 L 25 494 L 427 494 Z" unicode="z" />
<glyph horiz-adv-x="310" d="M 292 -179 C 256 -179 223 -174 194 -166 C 164 -158 139 -146 119 -132 C 98 -118 82 -101 71 -83 C 59 -64 54 -44 54 -24 C 54 0 56 23 62 44 C 67 65 73 83 80 99 C 86 115 93 129 99 143 C 105 157 108 170 108 183 C 108 197 99 210 83 223 C 67 235 44 242 15 242 L 15 329 C 44 329 67 335 85 349 C 102 363 111 378 111 395 C 111 398 107 407 101 423 C 95 439 87 456 79 475 C 71 493 65 510 61 528 C 57 546 55 563 55 580 C 55 600 60 621 71 641 C 82 661 98 679 119 695 C 139 711 164 724 194 734 C 223 744 256 749 292 749 L 292 660 C 258 660 229 651 207 633 C 185 615 174 593 174 567 C 174 558 175 547 177 534 C 179 521 183 508 189 496 C 197 476 205 457 213 441 C 221 425 225 411 225 400 C 225 374 217 351 201 330 C 185 308 159 293 123 285 C 160 276 186 261 202 239 C 217 217 225 196 225 174 C 225 156 221 140 214 127 C 207 113 200 100 194 87 C 187 73 182 59 178 44 C 174 29 173 15 173 3 C 173 -17 183 -38 205 -59 C 226 -79 255 -90 292 -90 L 292 -179 Z" unicode="{" />
<glyph horiz-adv-x="265" d="M 189 -179 L 76 -179 L 76 730 L 189 730 L 189 -179 Z" unicode="|" />
<glyph horiz-adv-x="310" d="M 18 -179 L 18 -90 C 54 -90 83 -79 105 -59 C 126 -38 137 -17 137 3 C 137 15 135 29 131 44 C 127 59 122 73 116 87 C 109 100 102 113 95 127 C 88 140 85 156 85 174 C 85 196 92 217 108 239 C 123 261 149 276 187 285 C 151 293 125 308 109 330 C 93 351 85 374 85 400 C 85 411 88 425 96 441 C 104 457 112 476 121 496 C 127 508 131 521 133 534 C 135 547 136 558 136 567 C 136 593 124 615 102 633 C 80 651 52 660 18 660 L 18 749 C 54 749 86 744 116 734 C 145 724 170 711 191 695 C 211 679 227 661 238 641 C 249 621 255 600 255 580 C 255 563 253 546 249 528 C 245 510 239 493 231 475 C 222 456 214 439 208 423 C 202 407 199 398 199 395 C 199 378 207 363 225 349 C 242 335 265 329 295 329 L 295 242 C 265 242 242 235 226 223 C 210 210 202 197 202 183 C 202 170 205 157 211 143 C 217 129 223 115 230 99 C 236 83 242 65 248 44 C 253 23 256 0 256 -24 C 256 -44 250 -64 239 -83 C 227 -101 211 -118 191 -132 C 170 -146 145 -158 116 -166 C 86 -174 54 -179 18 -179 Z" unicode="}" />
<glyph horiz-adv-x="502" d="M 375 447 L 475 447 C 474 385 464 338 445 308 C 426 277 397 262 359 262 C 334 262 313 266 296 274 C 278 282 263 291 251 301 C 238 309 225 317 213 325 C 200 332 187 336 173 336 C 160 336 149 329 141 316 C 132 303 128 286 128 265 L 29 265 C 29 328 38 375 58 406 C 77 436 102 452 132 452 C 159 452 183 448 203 440 C 223 432 242 422 260 410 C 272 401 284 393 297 386 C 309 378 323 375 339 375 C 355 375 365 381 369 394 C 373 406 375 424 375 447 Z" unicode="~" />
<glyph horiz-adv-x="321" d="M 95 584 L 227 584 L 227 450 L 95 450 L 95 584 Z M 89 149 L 131 357 L 194 357 L 233 149 L 233 -135 L 89 -135 L 89 149 Z" unicode="¡" />
<glyph horiz-adv-x="589" d="M 567 200 C 548 171 522 144 490 119 C 457 93 413 78 359 74 L 359 -42 L 275 -42 L 275 76 C 241 80 211 90 183 105 C 155 119 131 138 111 162 C 91 185 75 212 64 244 C 52 275 47 309 47 347 C 47 420 68 482 111 532 C 153 582 208 613 275 625 L 275 734 L 359 734 L 359 628 C 414 622 459 605 493 577 C 527 549 552 518 566 484 L 467 440 C 453 464 435 485 412 502 C 389 518 360 527 324 527 C 276 527 237 510 208 476 C 179 442 165 401 165 351 C 165 297 179 254 209 222 C 239 190 278 175 328 175 C 369 175 401 184 424 203 C 447 221 465 241 478 262 L 567 200 Z" unicode="¢" />
<glyph horiz-adv-x="602" d="M 589 98 L 589 0 L 23 0 L 23 72 C 29 76 38 79 52 82 C 65 85 84 89 108 94 C 137 98 163 110 185 128 C 207 146 218 170 218 200 C 218 201 218 202 218 204 C 218 205 218 206 218 208 L 41 208 L 41 289 L 180 289 C 173 299 166 309 159 320 C 152 331 145 342 138 354 L 41 354 L 41 435 L 97 435 C 90 451 85 469 81 487 C 77 505 75 525 75 546 C 75 582 82 612 96 638 C 110 663 128 683 152 699 C 176 714 203 725 234 732 C 265 738 297 742 331 742 C 387 742 438 733 485 715 C 532 697 566 680 587 664 L 523 570 C 505 582 478 595 444 609 C 410 623 373 630 334 630 C 300 630 270 622 244 606 C 217 590 204 563 204 523 C 204 508 206 493 211 479 C 216 464 222 449 230 435 L 511 435 L 511 354 L 278 354 C 284 343 291 332 297 321 C 303 310 309 299 314 289 L 511 289 L 511 208 L 324 208 C 318 176 306 151 287 133 C 267 115 247 103 227 98 L 589 98 Z" unicode="£" />
<glyph horiz-adv-x="502" d="M 444 195 L 395 147 L 340 204 C 327 196 313 190 298 186 C 282 182 266 180 250 180 C 233 180 217 182 202 186 C 186 190 172 196 160 203 L 105 147 L 54 197 L 105 251 C 94 265 85 280 79 298 C 73 316 70 334 70 354 C 70 373 73 392 80 410 C 86 428 95 444 106 459 L 54 513 L 103 562 L 159 504 C 172 511 186 517 202 521 C 217 525 233 528 250 528 C 266 528 282 525 298 521 C 314 517 328 511 342 503 L 399 562 L 448 512 L 395 456 C 405 442 414 426 420 408 C 426 390 429 372 429 354 C 429 334 425 316 419 298 C 413 280 404 263 393 249 L 444 195 Z M 250 264 C 275 264 297 273 317 291 C 336 309 346 330 346 354 C 346 378 336 399 317 417 C 297 435 275 444 250 444 C 223 444 200 435 182 417 C 163 399 154 378 154 354 C 154 330 163 309 182 291 C 200 273 223 264 250 264 Z" unicode="¤" />
<glyph horiz-adv-x="684" d="M 589 113 L 401 113 L 401 0 L 271 0 L 271 113 L 89 113 L 89 196 L 271 196 L 271 248 L 89 248 L 89 331 L 267 331 L 26 730 L 171 730 L 343 436 L 516 730 L 652 730 L 408 331 L 589 331 L 589 248 L 401 248 L 401 196 L 589 196 L 589 113 Z" unicode="¥" />
<glyph horiz-adv-x="289" d="M 93 351 L 93 730 L 197 730 L 197 351 L 93 351 Z M 197 200 L 197 -179 L 93 -179 L 93 200 L 197 200 Z" unicode="¦" />
<glyph horiz-adv-x="676" d="M 356 -181 C 296 -181 241 -174 190 -161 C 139 -147 96 -130 62 -108 L 114 -9 C 130 -19 148 -28 168 -37 C 188 -46 208 -54 229 -61 C 249 -67 270 -72 291 -76 C 312 -80 332 -82 350 -82 C 381 -82 406 -75 426 -61 C 446 -47 456 -27 456 -2 C 456 21 446 39 428 52 C 409 64 383 77 351 90 L 247 132 C 214 145 185 157 160 169 C 135 180 114 192 98 206 C 81 219 68 234 60 252 C 51 270 47 292 47 318 C 47 348 54 374 70 395 C 85 415 104 433 127 447 C 108 459 94 476 85 496 C 76 516 72 541 72 570 C 72 597 78 621 91 643 C 104 664 122 682 144 697 C 166 711 193 722 225 730 C 257 738 291 742 328 742 C 392 742 444 733 485 717 C 525 700 559 683 587 665 L 534 574 C 503 592 471 609 438 625 C 404 640 367 648 325 648 C 289 648 259 641 235 627 C 211 613 200 594 200 570 C 200 552 207 537 222 525 C 237 513 260 501 291 491 L 430 439 C 495 416 544 392 578 367 C 611 342 628 305 628 255 C 628 219 616 189 593 167 C 569 144 542 128 511 120 C 527 110 544 95 561 75 C 577 55 586 29 586 -3 C 586 -31 580 -56 568 -78 C 556 -100 540 -119 520 -134 C 499 -149 475 -161 447 -169 C 419 -177 388 -181 356 -181 Z M 425 182 C 445 184 463 189 479 199 C 495 209 503 224 503 245 C 503 265 493 283 473 298 C 453 312 415 329 360 348 L 233 397 C 214 390 199 381 188 371 C 176 361 171 346 171 328 C 171 305 181 287 202 273 C 223 259 261 242 316 224 L 425 182 Z" unicode="§" />
<glyph horiz-adv-x="500" d="M 398 548 L 296 548 L 296 709 L 398 709 L 398 548 Z M 204 548 L 102 548 L 102 709 L 204 709 L 204 548 Z" unicode="¨" />
<glyph horiz-adv-x="841" d="M 420 -4 C 368 -4 320 5 275 25 C 229 45 190 71 156 105 C 122 139 96 178 76 224 C 56 269 47 317 47 369 C 47 420 56 468 76 514 C 96 559 122 598 156 632 C 190 666 229 692 275 712 C 320 732 368 742 420 742 C 471 742 519 732 565 712 C 611 692 650 666 684 632 C 718 598 744 559 764 514 C 784 468 794 420 794 369 C 794 317 784 269 764 224 C 744 178 718 139 684 105 C 650 71 611 45 565 25 C 519 5 471 -4 420 -4 Z M 421 67 C 462 67 501 75 537 91 C 573 107 605 128 632 155 C 659 182 680 214 696 251 C 712 287 720 326 720 368 C 720 409 712 448 696 485 C 680 521 659 553 632 581 C 605 608 573 630 537 646 C 501 662 462 670 421 670 C 379 670 340 662 304 646 C 267 630 235 608 208 581 C 181 553 160 521 144 485 C 128 448 121 409 121 368 C 121 326 128 287 144 251 C 160 214 181 182 208 155 C 235 128 267 107 304 91 C 340 75 379 67 421 67 Z M 594 244 C 578 219 555 198 527 181 C 498 163 462 155 419 155 C 392 155 366 159 342 169 C 318 178 296 192 278 210 C 259 228 244 250 233 277 C 221 304 216 335 216 371 C 216 405 221 436 231 464 C 241 492 256 515 274 535 C 292 554 313 569 338 579 C 362 589 388 594 416 594 C 461 594 498 586 526 570 C 554 554 575 534 591 510 L 509 451 C 500 464 489 475 475 484 C 461 493 442 498 419 498 C 390 498 366 485 348 461 C 329 436 320 405 320 367 C 320 327 330 297 350 276 C 370 254 394 244 421 244 C 442 244 460 248 476 258 C 492 268 505 281 516 297 L 594 244 Z" unicode="©" />
<glyph horiz-adv-x="480" d="M 432 308 L 336 308 L 336 362 C 321 342 300 327 273 317 C 245 307 216 302 184 302 C 138 302 101 314 75 338 C 49 362 36 395 36 437 C 36 483 54 518 92 542 C 130 566 182 580 250 584 L 333 589 L 333 594 C 333 610 325 624 310 634 C 294 644 272 649 244 649 C 218 649 192 644 168 636 C 143 627 120 616 98 604 L 61 683 C 83 699 112 713 146 725 C 180 737 218 743 260 743 C 314 743 356 731 386 707 C 416 683 432 645 432 591 L 432 308 Z M 333 438 L 333 513 L 242 508 C 212 507 188 502 170 493 C 152 484 143 468 143 446 C 143 428 150 414 165 404 C 179 394 198 390 222 390 C 244 390 265 394 285 403 C 305 411 321 423 333 438 Z M 444 170 L 43 170 L 43 262 L 444 262 L 444 170 Z" unicode="ª" />
<glyph horiz-adv-x="482" d="M 221 72 L 26 251 L 26 331 L 221 508 L 221 382 L 130 290 L 221 201 L 221 72 Z M 452 72 L 256 251 L 256 331 L 452 508 L 452 382 L 361 290 L 452 202 L 452 72 Z" unicode="«" />
<glyph horiz-adv-x="500" d="M 453 401 L 453 129 L 351 129 L 351 299 L 29 299 L 29 401 L 453 401 Z" unicode="¬" />
<glyph horiz-adv-x="841" d="M 420 -4 C 368 -4 320 5 275 25 C 229 45 190 71 156 105 C 122 139 96 178 76 224 C 56 269 47 317 47 369 C 47 420 56 468 76 514 C 96 559 122 598 156 632 C 190 666 229 692 275 712 C 320 732 368 742 420 742 C 471 742 519 732 565 712 C 611 692 650 666 684 632 C 718 598 744 559 764 514 C 784 468 794 420 794 369 C 794 317 784 269 764 224 C 744 178 718 139 684 105 C 650 71 611 45 565 25 C 519 5 471 -4 420 -4 Z M 420 67 C 461 67 500 74 536 90 C 572 106 604 127 631 154 C 658 181 680 213 696 250 C 712 286 720 326 720 368 C 720 410 712 449 696 486 C 680 522 658 554 631 582 C 604 609 572 630 536 646 C 500 662 461 670 420 670 C 378 670 339 662 303 646 C 267 630 235 608 208 581 C 181 554 160 522 144 485 C 128 448 121 409 121 368 C 121 326 128 287 144 250 C 160 213 181 181 208 154 C 235 127 267 106 303 90 C 339 74 378 67 420 67 Z M 273 162 L 273 595 L 442 595 C 460 595 477 592 495 588 C 512 583 528 576 542 566 C 556 556 567 543 575 528 C 583 512 588 494 588 473 C 588 435 578 406 559 387 C 539 367 519 356 498 353 L 497 349 L 628 162 L 522 162 L 415 325 L 367 325 L 367 162 L 273 162 Z M 366 403 L 442 403 C 457 403 470 408 481 418 C 492 428 498 443 498 463 C 498 483 491 497 479 505 C 466 513 451 517 434 517 L 366 517 L 366 403 Z" unicode="®" />
<glyph horiz-adv-x="500" d="M 389 560 L 111 560 L 111 654 L 389 654 L 389 560 Z" unicode="¯" />
<glyph horiz-adv-x="436" d="M 218 366 C 192 366 167 371 144 381 C 121 391 101 404 85 421 C 68 437 55 457 45 480 C 35 503 30 528 30 554 C 30 580 35 604 45 627 C 55 650 68 670 85 687 C 101 703 121 717 144 727 C 167 737 192 742 218 742 C 244 742 268 737 291 727 C 314 717 334 703 351 687 C 367 670 381 650 391 627 C 401 604 406 580 406 554 C 406 528 401 503 391 480 C 381 457 367 437 351 421 C 334 404 314 391 291 381 C 268 371 244 366 218 366 Z M 218 456 C 244 456 267 465 287 485 C 307 504 317 527 317 554 C 317 580 307 603 287 623 C 267 643 244 653 218 653 C 191 653 168 643 148 623 C 128 603 119 580 119 554 C 119 527 128 504 148 485 C 168 465 191 456 218 456 Z" unicode="°" />
<glyph horiz-adv-x="500" d="M 28 19 L 28 108 L 199 108 L 199 285 L 23 285 L 23 377 L 199 377 L 199 554 L 302 554 L 302 377 L 477 377 L 477 285 L 302 285 L 302 108 L 474 108 L 474 19 L 28 19 Z" unicode="±" />
<glyph horiz-adv-x="337" d="M 312 372 L 21 372 L 21 406 L 176 566 C 182 572 187 579 192 587 C 196 595 199 605 199 617 C 199 627 195 637 188 646 C 180 654 169 659 154 659 C 136 659 123 653 117 642 C 110 631 106 618 106 604 L 16 604 C 16 642 29 675 56 701 C 82 727 119 741 166 741 C 211 741 245 731 268 711 C 290 691 302 666 302 638 C 302 611 297 589 288 572 C 278 554 268 540 258 529 L 183 453 L 312 453 L 312 372 Z" unicode="²" />
<glyph horiz-adv-x="346" d="M 230 569 C 256 564 276 553 292 537 C 307 520 315 500 315 477 C 315 465 312 452 308 439 C 303 426 295 414 283 403 C 271 391 256 382 236 375 C 216 367 191 364 161 364 C 117 364 84 369 60 379 C 36 389 18 400 6 410 L 57 464 C 67 457 80 451 95 445 C 110 439 129 437 151 437 C 178 437 197 442 208 452 C 219 462 225 474 225 490 C 225 506 217 516 203 521 C 189 525 172 528 152 528 L 81 528 L 81 598 L 146 598 C 164 598 178 600 190 606 C 201 612 207 621 207 633 C 207 643 202 651 193 657 C 183 663 170 666 152 666 C 135 666 119 662 103 656 C 87 650 75 643 67 635 L 18 687 C 30 699 48 712 70 724 C 92 736 125 742 167 742 C 207 742 239 733 263 717 C 287 701 300 678 300 650 C 300 629 292 611 278 597 C 264 583 248 573 230 569 Z" unicode="³" />
<glyph horiz-adv-x="500" d="M 135 552 L 238 713 L 382 713 L 256 552 L 135 552 Z" unicode="´" />
<glyph horiz-adv-x="590" d="M 68 -141 L 68 494 L 187 494 L 187 173 C 187 148 196 128 215 112 C 233 96 258 88 288 88 C 317 88 343 98 366 119 C 389 139 401 167 401 202 L 401 494 L 520 494 L 520 0 L 411 0 L 411 85 C 398 60 378 39 350 22 C 322 5 293 -4 263 -6 C 244 -6 227 -2 211 5 C 195 12 184 22 178 35 L 178 -141 L 68 -141 Z" unicode="µ" />
<glyph horiz-adv-x="698" d="M 630 -179 L 549 -179 L 549 635 L 453 635 L 453 -179 L 372 -179 L 372 247 L 263 247 C 232 247 202 253 173 266 C 144 279 119 296 97 318 C 75 339 57 364 44 393 C 30 422 24 453 24 485 C 24 519 30 552 43 582 C 55 612 73 637 95 659 C 117 681 145 698 177 711 C 209 723 244 730 283 730 L 630 730 L 630 -179 Z M 373 346 L 373 631 L 315 631 C 274 631 243 617 223 590 C 203 563 193 529 193 488 C 193 450 203 416 223 388 C 243 360 272 346 308 346 L 373 346 Z" unicode="¶" />
<glyph horiz-adv-x="274" d="M 198 263 L 77 263 L 77 412 L 198 412 L 198 263 Z" unicode="·" />
<glyph horiz-adv-x="500" d="M 258 -191 C 232 -191 206 -188 180 -182 C 153 -176 133 -168 119 -159 L 134 -107 C 142 -111 154 -116 170 -120 C 185 -124 201 -127 218 -127 C 230 -127 240 -124 250 -119 C 259 -113 264 -106 264 -98 C 264 -87 259 -80 251 -76 C 243 -72 234 -70 225 -70 C 218 -70 212 -70 207 -71 C 202 -72 197 -73 191 -75 L 175 -58 L 236 14 L 310 14 L 261 -46 C 295 -40 323 -44 345 -57 C 367 -70 379 -89 379 -114 C 379 -140 366 -159 342 -172 C 317 -184 289 -191 258 -191 Z" unicode="¸" />
<glyph horiz-adv-x="322" d="M 131 372 L 131 620 C 127 614 121 609 114 605 C 106 601 98 597 90 594 C 81 590 72 588 64 586 C 56 584 49 582 44 582 L 44 678 C 68 680 90 686 109 696 C 127 706 147 720 168 740 L 236 740 L 236 372 L 131 372 Z" unicode="¹" />
<glyph horiz-adv-x="494" d="M 243 299 C 215 299 189 303 163 313 C 137 323 114 337 94 356 C 74 374 59 397 47 425 C 35 452 29 483 29 519 C 29 549 34 578 46 605 C 58 632 73 656 93 676 C 113 696 136 711 162 723 C 188 734 215 740 244 740 C 274 740 303 735 330 725 C 357 715 381 701 401 683 C 421 665 436 643 448 617 C 459 591 465 561 465 529 C 465 495 459 463 447 435 C 435 407 419 383 399 363 C 379 343 355 327 328 316 C 301 304 273 299 243 299 Z M 243 396 C 277 396 305 408 327 432 C 349 456 360 488 360 528 C 360 564 350 593 330 615 C 310 637 282 649 247 649 C 213 649 185 637 164 613 C 143 589 133 556 133 515 C 133 478 143 449 163 428 C 183 406 210 396 243 396 Z M 45 170 L 45 262 L 447 262 L 447 170 L 45 170 Z" unicode="º" />
<glyph horiz-adv-x="484" d="M 30 508 L 226 328 L 226 249 L 30 72 L 30 197 L 121 290 L 30 378 L 30 508 Z M 263 508 L 458 328 L 458 249 L 263 72 L 263 197 L 354 290 L 263 378 L 263 508 Z" unicode="»" />
<glyph horiz-adv-x="697" d="M 7 0 L 7 0 Z M 94 372 L 94 620 C 90 614 84 609 77 605 C 69 601 61 597 53 594 C 44 590 35 588 27 586 C 19 584 12 582 7 582 L 7 678 C 31 680 53 686 72 696 C 90 706 110 720 131 740 L 199 740 L 199 372 L 94 372 Z M 580 730 L 227 0 L 128 0 L 481 730 L 580 730 Z M 386 80 L 386 147 L 568 364 L 633 364 L 633 151 L 690 151 L 690 80 L 633 80 L 633 1 L 541 1 L 541 80 L 386 80 Z M 461 139 L 543 139 L 543 239 L 461 139 Z" unicode="¼" />
<glyph horiz-adv-x="764" d="M 7 0 L 7 0 Z M 94 372 L 94 620 C 90 614 84 609 77 605 C 69 601 61 597 53 594 C 44 590 35 588 27 586 C 19 584 12 582 7 582 L 7 678 C 31 680 53 686 72 696 C 90 706 110 720 131 740 L 199 740 L 199 372 L 94 372 Z M 580 730 L 227 0 L 128 0 L 481 730 L 580 730 Z M 745 0 L 454 0 L 454 34 L 609 194 C 615 200 620 207 625 215 C 629 223 632 233 632 245 C 632 255 628 265 621 274 C 613 282 602 287 587 287 C 569 287 556 281 550 270 C 543 259 539 246 539 232 L 449 232 C 449 270 462 303 489 329 C 515 355 552 369 599 369 C 644 369 678 359 701 339 C 723 319 735 294 735 266 C 735 239 730 217 721 200 C 711 182 701 168 691 157 L 616 81 L 745 81 L 745 0 Z" unicode="½" />
<glyph horiz-adv-x="753" d="M 7 0 L 7 0 Z M 636 730 L 283 0 L 184 0 L 537 730 L 636 730 Z M 442 80 L 442 147 L 624 364 L 689 364 L 689 151 L 746 151 L 746 80 L 689 80 L 689 1 L 597 1 L 597 80 L 442 80 Z M 517 139 L 599 139 L 599 239 L 517 139 Z M 231 569 C 257 564 277 553 293 537 C 308 520 316 500 316 477 C 316 465 313 452 309 439 C 304 426 296 414 284 403 C 272 391 257 382 237 375 C 217 367 192 364 162 364 C 118 364 85 369 61 379 C 37 389 19 400 7 410 L 58 464 C 68 457 81 451 96 445 C 111 439 130 437 152 437 C 179 437 198 442 209 452 C 220 462 226 474 226 490 C 226 506 218 516 204 521 C 190 525 173 528 153 528 L 82 528 L 82 598 L 147 598 C 165 598 179 600 191 606 C 202 612 208 621 208 633 C 208 643 203 651 194 657 C 184 663 171 666 153 666 C 136 666 120 662 104 656 C 88 650 76 643 68 635 L 19 687 C 31 699 49 712 71 724 C 93 736 126 742 168 742 C 208 742 240 733 264 717 C 288 701 301 678 301 650 C 301 629 293 611 279 597 C 265 583 249 573 231 569 Z" unicode="¾" />
<glyph horiz-adv-x="484" d="M 194 454 L 194 584 L 330 584 L 330 454 L 194 454 Z M 247 -150 C 214 -150 183 -145 155 -137 C 127 -129 102 -117 82 -102 C 61 -86 45 -67 33 -45 C 21 -22 15 3 15 31 C 15 57 19 81 27 101 C 35 121 45 138 57 153 C 69 168 82 181 96 192 C 110 202 124 212 137 221 C 165 240 183 262 191 288 C 199 314 203 341 204 369 L 325 369 C 325 321 319 283 309 257 C 299 230 277 204 243 180 C 215 160 192 141 172 123 C 152 105 143 80 143 49 C 143 20 154 -2 176 -18 C 198 -34 226 -43 259 -43 C 289 -43 316 -36 340 -22 C 364 -8 384 7 399 25 L 479 -51 C 459 -75 429 -98 390 -119 C 350 -139 303 -150 247 -150 Z" unicode="¿" />
<glyph horiz-adv-x="669" d="M 0 0 L 0 0 Z M 670 0 L 533 0 L 469 160 L 190 160 L 129 0 L -1 0 L 298 733 L 378 733 L 670 0 Z M 435 262 L 329 531 L 224 262 L 435 262 Z M 332 784 L 332 784 Z M 456 784 L 334 784 L 208 945 L 351 945 L 456 784 Z" unicode="À" />
<glyph horiz-adv-x="669" d="M 0 0 L 0 0 Z M 670 0 L 533 0 L 469 160 L 190 160 L 129 0 L -1 0 L 298 733 L 378 733 L 670 0 Z M 435 262 L 329 531 L 224 262 L 435 262 Z M 332 788 L 332 788 Z M 209 788 L 312 949 L 456 949 L 330 788 L 209 788 Z" unicode="Á" />
<glyph horiz-adv-x="669" d="M 0 0 L 0 0 Z M 670 0 L 533 0 L 469 160 L 190 160 L 129 0 L -1 0 L 298 733 L 378 733 L 670 0 Z M 435 262 L 329 531 L 224 262 L 435 262 Z M 332 784 L 332 784 Z M 517 784 L 406 784 L 332 881 L 257 784 L 148 784 L 271 957 L 394 957 L 517 784 Z" unicode="Â" />
<glyph horiz-adv-x="669" d="M 0 0 L 0 0 Z M 670 0 L 533 0 L 469 160 L 190 160 L 129 0 L -1 0 L 298 733 L 378 733 L 670 0 Z M 435 262 L 329 531 L 224 262 L 435 262 Z M 332 788 L 332 788 Z M 416 935 L 509 935 C 509 885 501 848 486 824 C 470 800 450 788 424 788 C 405 788 389 791 375 798 C 361 804 348 811 338 818 C 328 824 318 830 309 836 C 300 842 291 846 283 846 C 274 846 267 841 261 831 C 255 821 252 808 252 792 L 159 792 C 159 841 169 878 190 902 C 211 926 233 939 256 939 C 272 939 287 935 300 929 C 312 923 324 916 335 908 C 343 901 352 895 360 890 C 368 884 377 882 385 882 C 393 882 400 886 406 896 C 412 905 415 918 416 935 Z" unicode="Ã" />
<glyph horiz-adv-x="669" d="M 0 0 L 0 0 Z M 670 0 L 533 0 L 469 160 L 190 160 L 129 0 L -1 0 L 298 733 L 378 733 L 670 0 Z M 435 262 L 329 531 L 224 262 L 435 262 Z M 332 784 L 332 784 Z M 480 784 L 378 784 L 378 945 L 480 945 L 480 784 Z M 286 784 L 184 784 L 184 945 L 286 945 L 286 784 Z" unicode="Ä" />
<glyph horiz-adv-x="669" d="M 0 0 L 0 0 Z M 670 0 L 533 0 L 469 160 L 190 160 L 129 0 L -1 0 L 298 733 L 378 733 L 670 0 Z M 435 262 L 329 531 L 224 262 L 435 262 Z M 332 782 L 332 782 Z M 332 782 C 298 782 269 793 245 817 C 221 841 210 870 210 904 C 210 937 221 965 245 989 C 269 1012 298 1024 332 1024 C 366 1024 394 1012 418 989 C 442 965 454 937 454 904 C 454 870 442 841 418 817 C 394 793 366 782 332 782 Z M 332 851 C 346 851 358 856 368 866 C 378 876 383 888 383 903 C 383 917 378 930 368 940 C 358 950 346 956 332 956 C 317 956 305 950 295 940 C 285 930 280 917 280 903 C 280 888 285 876 295 866 C 305 856 317 851 332 851 Z" unicode="Å" />
<glyph horiz-adv-x="993" d="M 945 0 L 494 0 L 494 232 L 253 232 L 109 0 L -30 0 L 430 730 L 926 730 L 926 618 L 616 618 L 616 416 L 909 416 L 909 307 L 616 307 L 616 112 L 945 112 L 945 0 Z M 494 339 L 494 630 L 315 339 L 494 339 Z" unicode="Æ" />
<glyph horiz-adv-x="723" d="M 45 0 L 45 0 Z M 406 -12 C 356 -12 308 -3 264 14 C 220 31 181 56 149 88 C 117 120 91 160 73 207 C 54 253 45 306 45 365 C 45 419 54 470 72 516 C 90 562 116 602 148 636 C 180 669 218 695 262 714 C 306 732 355 742 407 742 C 473 742 529 732 576 713 C 623 694 662 666 694 628 L 608 538 C 587 562 561 582 529 598 C 497 614 457 623 411 623 C 373 623 340 616 311 604 C 281 591 257 573 237 551 C 217 529 202 502 192 470 C 182 438 177 404 177 366 C 177 321 183 282 197 249 C 210 216 228 189 250 168 C 272 146 297 130 326 120 C 355 109 385 104 417 104 C 465 104 505 113 539 132 C 573 150 601 175 624 205 L 708 131 C 678 90 638 56 587 29 C 535 1 475 -12 406 -12 Z M 395 -4 L 395 -4 Z M 404 -195 C 378 -195 352 -192 326 -186 C 299 -180 279 -172 265 -163 L 280 -111 C 288 -115 300 -120 316 -124 C 331 -128 347 -131 364 -131 C 376 -131 386 -128 396 -123 C 405 -117 410 -110 410 -102 C 410 -91 405 -84 397 -80 C 389 -76 380 -74 371 -74 C 364 -74 358 -74 353 -75 C 348 -76 343 -77 337 -79 L 321 -62 L 382 10 L 456 10 L 407 -50 C 441 -44 469 -48 491 -61 C 513 -74 525 -93 525 -118 C 525 -144 512 -163 488 -176 C 463 -188 435 -195 404 -195 Z" unicode="Ç" />
<glyph horiz-adv-x="598" d="M 90 0 L 90 0 Z M 548 0 L 90 0 L 90 730 L 529 730 L 529 618 L 218 618 L 218 417 L 511 417 L 511 307 L 218 307 L 218 112 L 548 112 L 548 0 Z M 316 784 L 316 784 Z M 440 784 L 318 784 L 192 945 L 335 945 L 440 784 Z" unicode="È" />
<glyph horiz-adv-x="598" d="M 90 0 L 90 0 Z M 548 0 L 90 0 L 90 730 L 529 730 L 529 618 L 218 618 L 218 417 L 511 417 L 511 307 L 218 307 L 218 112 L 548 112 L 548 0 Z M 316 788 L 316 788 Z M 193 788 L 296 949 L 440 949 L 314 788 L 193 788 Z" unicode="É" />
<glyph horiz-adv-x="598" d="M 90 0 L 90 0 Z M 548 0 L 90 0 L 90 730 L 529 730 L 529 618 L 218 618 L 218 417 L 511 417 L 511 307 L 218 307 L 218 112 L 548 112 L 548 0 Z M 316 784 L 316 784 Z M 501 784 L 390 784 L 316 881 L 241 784 L 132 784 L 255 957 L 378 957 L 501 784 Z" unicode="Ê" />
<glyph horiz-adv-x="598" d="M 90 0 L 90 0 Z M 548 0 L 90 0 L 90 730 L 529 730 L 529 618 L 218 618 L 218 417 L 511 417 L 511 307 L 218 307 L 218 112 L 548 112 L 548 0 Z M 316 784 L 316 784 Z M 464 784 L 362 784 L 362 945 L 464 945 L 464 784 Z M 270 784 L 168 784 L 168 945 L 270 945 L 270 784 Z" unicode="Ë" />
<glyph horiz-adv-x="320" d="M 36 0 L 36 0 Z M 225 0 L 95 0 L 95 730 L 225 730 L 225 0 Z M 160 784 L 160 784 Z M 284 784 L 162 784 L 36 945 L 179 945 L 284 784 Z" unicode="Ì" />
<glyph horiz-adv-x="320" d="M 37 0 L 37 0 Z M 225 0 L 95 0 L 95 730 L 225 730 L 225 0 Z M 160 788 L 160 788 Z M 37 788 L 140 949 L 284 949 L 158 788 L 37 788 Z" unicode="Í" />
<glyph horiz-adv-x="320" d="M 0 0 L 0 0 Z M 225 0 L 95 0 L 95 730 L 225 730 L 225 0 Z M 160 784 L 160 784 Z M 345 784 L 234 784 L 160 881 L 85 784 L -24 784 L 99 957 L 222 957 L 345 784 Z" unicode="Î" />
<glyph horiz-adv-x="320" d="M 12 0 L 12 0 Z M 225 0 L 95 0 L 95 730 L 225 730 L 225 0 Z M 160 784 L 160 784 Z M 308 784 L 206 784 L 206 945 L 308 945 L 308 784 Z M 114 784 L 12 784 L 12 945 L 114 945 L 114 784 Z" unicode="Ï" />
<glyph horiz-adv-x="757" d="M 712 367 C 712 316 703 268 686 224 C 668 179 643 140 610 107 C 576 74 535 48 485 29 C 435 9 377 0 313 0 L 90 0 L 90 308 L 35 308 L 35 406 L 90 406 L 90 730 L 330 730 C 392 730 446 721 494 704 C 542 686 582 662 614 631 C 646 599 670 561 687 516 C 703 471 712 421 712 367 Z M 217 105 L 310 105 C 358 105 399 112 433 127 C 467 141 494 161 516 185 C 537 209 553 237 563 269 C 573 300 578 332 578 365 C 578 444 556 507 513 554 C 469 600 408 624 329 624 L 217 624 L 217 406 L 373 406 L 373 308 L 217 308 L 217 105 Z" unicode="Ð" />
<glyph horiz-adv-x="784" d="M 90 0 L 90 0 Z M 694 0 L 604 0 L 212 501 L 212 0 L 90 0 L 90 730 L 189 730 L 573 236 L 573 730 L 694 730 L 694 0 Z M 392 788 L 392 788 Z M 476 935 L 569 935 C 569 885 561 848 546 824 C 530 800 510 788 484 788 C 465 788 449 791 435 798 C 421 804 408 811 398 818 C 388 824 378 830 369 836 C 360 842 351 846 343 846 C 334 846 327 841 321 831 C 315 821 312 808 312 792 L 219 792 C 219 841 229 878 250 902 C 271 926 293 939 316 939 C 332 939 347 935 360 929 C 372 923 384 916 395 908 C 403 901 412 895 420 890 C 428 884 437 882 445 882 C 453 882 460 886 466 896 C 472 905 475 918 476 935 Z" unicode="Ñ" />
<glyph horiz-adv-x="837" d="M 45 0 L 45 0 Z M 422 -12 C 365 -12 313 -2 267 16 C 220 35 180 62 148 96 C 115 130 90 170 72 217 C 54 264 45 315 45 370 C 45 423 54 472 74 518 C 93 564 119 603 152 636 C 185 669 224 695 269 714 C 314 732 362 742 414 742 C 468 742 519 733 566 715 C 612 697 652 671 686 639 C 719 606 745 566 764 520 C 783 474 793 423 793 368 C 793 311 783 259 763 212 C 743 165 716 125 682 92 C 648 59 609 33 564 15 C 519 -2 472 -12 422 -12 Z M 424 103 C 457 103 488 108 518 120 C 547 132 572 149 593 171 C 614 193 631 221 643 254 C 655 287 661 325 661 367 C 661 405 654 440 642 472 C 629 504 612 531 590 553 C 568 575 541 593 511 605 C 481 617 448 624 413 624 C 379 624 347 618 318 607 C 289 595 264 579 243 558 C 222 536 206 510 194 478 C 182 446 176 410 176 370 C 176 328 182 290 195 257 C 208 223 226 195 248 173 C 270 150 297 133 327 121 C 357 109 390 103 424 103 Z M 415 784 L 415 784 Z M 539 784 L 417 784 L 291 945 L 434 945 L 539 784 Z" unicode="Ò" />
<glyph horiz-adv-x="837" d="M 45 0 L 45 0 Z M 422 -12 C 365 -12 313 -2 267 16 C 220 35 180 62 148 96 C 115 130 90 170 72 217 C 54 264 45 315 45 370 C 45 423 54 472 74 518 C 93 564 119 603 152 636 C 185 669 224 695 269 714 C 314 732 362 742 414 742 C 468 742 519 733 566 715 C 612 697 652 671 686 639 C 719 606 745 566 764 520 C 783 474 793 423 793 368 C 793 311 783 259 763 212 C 743 165 716 125 682 92 C 648 59 609 33 564 15 C 519 -2 472 -12 422 -12 Z M 424 103 C 457 103 488 108 518 120 C 547 132 572 149 593 171 C 614 193 631 221 643 254 C 655 287 661 325 661 367 C 661 405 654 440 642 472 C 629 504 612 531 590 553 C 568 575 541 593 511 605 C 481 617 448 624 413 624 C 379 624 347 618 318 607 C 289 595 264 579 243 558 C 222 536 206 510 194 478 C 182 446 176 410 176 370 C 176 328 182 290 195 257 C 208 223 226 195 248 173 C 270 150 297 133 327 121 C 357 109 390 103 424 103 Z M 415 788 L 415 788 Z M 292 788 L 395 949 L 539 949 L 413 788 L 292 788 Z" unicode="Ó" />
<glyph horiz-adv-x="837" d="M 45 0 L 45 0 Z M 422 -12 C 365 -12 313 -2 267 16 C 220 35 180 62 148 96 C 115 130 90 170 72 217 C 54 264 45 315 45 370 C 45 423 54 472 74 518 C 93 564 119 603 152 636 C 185 669 224 695 269 714 C 314 732 362 742 414 742 C 468 742 519 733 566 715 C 612 697 652 671 686 639 C 719 606 745 566 764 520 C 783 474 793 423 793 368 C 793 311 783 259 763 212 C 743 165 716 125 682 92 C 648 59 609 33 564 15 C 519 -2 472 -12 422 -12 Z M 424 103 C 457 103 488 108 518 120 C 547 132 572 149 593 171 C 614 193 631 221 643 254 C 655 287 661 325 661 367 C 661 405 654 440 642 472 C 629 504 612 531 590 553 C 568 575 541 593 511 605 C 481 617 448 624 413 624 C 379 624 347 618 318 607 C 289 595 264 579 243 558 C 222 536 206 510 194 478 C 182 446 176 410 176 370 C 176 328 182 290 195 257 C 208 223 226 195 248 173 C 270 150 297 133 327 121 C 357 109 390 103 424 103 Z M 415 784 L 415 784 Z M 600 784 L 489 784 L 415 881 L 340 784 L 231 784 L 354 957 L 477 957 L 600 784 Z" unicode="Ô" />
<glyph horiz-adv-x="837" d="M 45 0 L 45 0 Z M 422 -12 C 365 -12 313 -2 267 16 C 220 35 180 62 148 96 C 115 130 90 170 72 217 C 54 264 45 315 45 370 C 45 423 54 472 74 518 C 93 564 119 603 152 636 C 185 669 224 695 269 714 C 314 732 362 742 414 742 C 468 742 519 733 566 715 C 612 697 652 671 686 639 C 719 606 745 566 764 520 C 783 474 793 423 793 368 C 793 311 783 259 763 212 C 743 165 716 125 682 92 C 648 59 609 33 564 15 C 519 -2 472 -12 422 -12 Z M 424 103 C 457 103 488 108 518 120 C 547 132 572 149 593 171 C 614 193 631 221 643 254 C 655 287 661 325 661 367 C 661 405 654 440 642 472 C 629 504 612 531 590 553 C 568 575 541 593 511 605 C 481 617 448 624 413 624 C 379 624 347 618 318 607 C 289 595 264 579 243 558 C 222 536 206 510 194 478 C 182 446 176 410 176 370 C 176 328 182 290 195 257 C 208 223 226 195 248 173 C 270 150 297 133 327 121 C 357 109 390 103 424 103 Z M 415 788 L 415 788 Z M 499 935 L 592 935 C 592 885 584 848 569 824 C 553 800 533 788 507 788 C 488 788 472 791 458 798 C 444 804 431 811 421 818 C 411 824 401 830 392 836 C 383 842 374 846 366 846 C 357 846 350 841 344 831 C 338 821 335 808 335 792 L 242 792 C 242 841 252 878 273 902 C 294 926 316 939 339 939 C 355 939 370 935 383 929 C 395 923 407 916 418 908 C 426 901 435 895 443 890 C 451 884 460 882 468 882 C 476 882 483 886 489 896 C 495 905 498 918 499 935 Z" unicode="Õ" />
<glyph horiz-adv-x="837" d="M 45 0 L 45 0 Z M 422 -12 C 365 -12 313 -2 267 16 C 220 35 180 62 148 96 C 115 130 90 170 72 217 C 54 264 45 315 45 370 C 45 423 54 472 74 518 C 93 564 119 603 152 636 C 185 669 224 695 269 714 C 314 732 362 742 414 742 C 468 742 519 733 566 715 C 612 697 652 671 686 639 C 719 606 745 566 764 520 C 783 474 793 423 793 368 C 793 311 783 259 763 212 C 743 165 716 125 682 92 C 648 59 609 33 564 15 C 519 -2 472 -12 422 -12 Z M 424 103 C 457 103 488 108 518 120 C 547 132 572 149 593 171 C 614 193 631 221 643 254 C 655 287 661 325 661 367 C 661 405 654 440 642 472 C 629 504 612 531 590 553 C 568 575 541 593 511 605 C 481 617 448 624 413 624 C 379 624 347 618 318 607 C 289 595 264 579 243 558 C 222 536 206 510 194 478 C 182 446 176 410 176 370 C 176 328 182 290 195 257 C 208 223 226 195 248 173 C 270 150 297 133 327 121 C 357 109 390 103 424 103 Z M 415 784 L 415 784 Z M 563 784 L 461 784 L 461 945 L 563 945 L 563 784 Z M 369 784 L 267 784 L 267 945 L 369 945 L 369 784 Z" unicode="Ö" />
<glyph horiz-adv-x="501" d="M 118 132 L 51 199 L 183 331 L 52 462 L 119 529 L 251 398 L 382 529 L 449 462 L 317 331 L 450 199 L 383 129 L 251 264 L 118 132 Z" unicode="×" />
<glyph horiz-adv-x="837" d="M 793 368 C 793 311 783 259 763 212 C 743 165 716 125 682 92 C 648 59 609 33 564 15 C 519 -2 472 -12 422 -12 C 373 -12 328 -4 287 9 C 245 23 209 43 178 69 L 107 -2 L 48 55 L 121 128 C 96 160 77 196 64 238 C 51 279 45 323 45 370 C 45 423 54 472 74 518 C 93 564 119 603 152 636 C 185 669 224 695 269 714 C 314 732 362 742 414 742 C 461 742 505 735 546 721 C 587 707 624 688 657 664 L 741 749 L 800 692 L 715 607 C 739 575 758 539 772 499 C 786 459 793 415 793 368 Z M 176 370 C 176 340 179 313 185 288 C 191 262 201 240 213 220 L 567 574 C 546 590 522 602 496 611 C 470 619 442 624 413 624 C 379 624 347 618 318 607 C 289 595 264 579 243 558 C 222 536 206 510 194 478 C 182 446 176 410 176 370 Z M 661 367 C 661 395 657 422 651 446 C 644 470 634 493 622 514 L 266 157 C 286 139 310 126 338 117 C 365 107 394 103 424 103 C 457 103 488 108 518 120 C 547 132 572 149 593 171 C 614 193 631 221 643 254 C 655 287 661 325 661 367 Z" unicode="Ø" />
<glyph horiz-adv-x="759" d="M 85 0 L 85 0 Z M 675 730 L 675 266 C 675 222 667 183 651 149 C 635 114 614 85 588 61 C 561 37 530 19 494 7 C 458 -5 419 -12 379 -12 C 339 -12 301 -6 265 6 C 229 18 198 35 172 59 C 145 83 124 112 108 147 C 92 181 85 221 85 266 L 85 730 L 211 730 L 211 265 C 211 216 227 177 259 148 C 291 118 331 104 378 104 C 424 104 464 118 498 147 C 531 175 548 215 548 265 L 548 730 L 675 730 Z M 379 784 L 379 784 Z M 503 784 L 381 784 L 255 945 L 398 945 L 503 784 Z" unicode="Ù" />
<glyph horiz-adv-x="759" d="M 85 0 L 85 0 Z M 675 730 L 675 266 C 675 222 667 183 651 149 C 635 114 614 85 588 61 C 561 37 530 19 494 7 C 458 -5 419 -12 379 -12 C 339 -12 301 -6 265 6 C 229 18 198 35 172 59 C 145 83 124 112 108 147 C 92 181 85 221 85 266 L 85 730 L 211 730 L 211 265 C 211 216 227 177 259 148 C 291 118 331 104 378 104 C 424 104 464 118 498 147 C 531 175 548 215 548 265 L 548 730 L 675 730 Z M 379 788 L 379 788 Z M 256 788 L 359 949 L 503 949 L 377 788 L 256 788 Z" unicode="Ú" />
<glyph horiz-adv-x="759" d="M 85 0 L 85 0 Z M 675 730 L 675 266 C 675 222 667 183 651 149 C 635 114 614 85 588 61 C 561 37 530 19 494 7 C 458 -5 419 -12 379 -12 C 339 -12 301 -6 265 6 C 229 18 198 35 172 59 C 145 83 124 112 108 147 C 92 181 85 221 85 266 L 85 730 L 211 730 L 211 265 C 211 216 227 177 259 148 C 291 118 331 104 378 104 C 424 104 464 118 498 147 C 531 175 548 215 548 265 L 548 730 L 675 730 Z M 379 784 L 379 784 Z M 564 784 L 453 784 L 379 881 L 304 784 L 195 784 L 318 957 L 441 957 L 564 784 Z" unicode="Û" />
<glyph horiz-adv-x="759" d="M 85 0 L 85 0 Z M 675 730 L 675 266 C 675 222 667 183 651 149 C 635 114 614 85 588 61 C 561 37 530 19 494 7 C 458 -5 419 -12 379 -12 C 339 -12 301 -6 265 6 C 229 18 198 35 172 59 C 145 83 124 112 108 147 C 92 181 85 221 85 266 L 85 730 L 211 730 L 211 265 C 211 216 227 177 259 148 C 291 118 331 104 378 104 C 424 104 464 118 498 147 C 531 175 548 215 548 265 L 548 730 L 675 730 Z M 379 784 L 379 784 Z M 527 784 L 425 784 L 425 945 L 527 945 L 527 784 Z M 333 784 L 231 784 L 231 945 L 333 945 L 333 784 Z" unicode="Ü" />
<glyph horiz-adv-x="674" d="M 0 0 L 0 0 Z M 676 730 L 399 310 L 399 0 L 269 0 L 269 316 L -2 730 L 144 730 L 340 430 L 538 730 L 676 730 Z M 339 788 L 339 788 Z M 216 788 L 319 949 L 463 949 L 337 788 L 216 788 Z" unicode="Ý" />
<glyph horiz-adv-x="617" d="M 90 0 L 90 730 L 220 730 L 220 605 L 355 605 C 428 605 486 584 529 542 C 571 500 593 445 593 379 C 593 345 587 314 575 286 C 563 257 547 232 526 212 C 505 192 480 176 451 165 C 421 153 389 148 354 148 L 220 148 L 220 0 L 90 0 Z M 219 254 L 338 254 C 376 254 406 265 428 288 C 450 310 462 341 462 381 C 462 419 449 447 424 467 C 398 487 367 497 331 497 L 219 497 L 219 254 Z" unicode="Þ" />
<glyph horiz-adv-x="698" d="M 484 -12 C 437 -12 395 -6 359 5 C 323 17 292 33 267 53 L 321 136 C 341 121 367 109 397 100 C 427 91 455 87 480 87 C 502 87 520 91 533 101 C 546 111 553 123 553 139 C 553 155 545 168 529 178 C 513 188 486 198 446 210 C 384 226 340 247 316 271 C 292 295 280 328 280 370 C 280 404 290 431 311 452 C 331 473 354 486 379 491 C 383 493 389 499 397 508 C 404 516 408 534 409 561 C 409 599 399 627 379 647 C 359 667 334 677 305 677 C 275 677 251 668 232 652 C 213 636 204 610 204 574 L 204 0 L 82 0 L 82 589 C 82 619 87 645 99 669 C 110 692 125 711 145 727 C 164 743 187 755 213 763 C 239 771 267 775 297 775 C 327 775 356 770 384 762 C 412 753 436 740 457 724 C 477 708 494 688 506 664 C 518 640 524 613 524 583 C 524 541 516 508 502 484 C 487 459 472 443 458 435 C 440 431 423 424 408 415 C 393 406 384 395 382 382 C 382 366 392 353 412 341 C 432 329 464 318 506 307 C 560 291 602 272 630 248 C 658 224 672 190 672 147 C 672 121 667 99 657 79 C 647 59 634 42 618 29 C 601 15 581 5 558 -1 C 535 -8 510 -12 484 -12 Z" unicode="ß" />
<glyph horiz-adv-x="548" d="M 27 0 L 27 0 Z M 487 0 L 372 0 L 372 61 C 356 40 334 23 306 10 C 278 -3 244 -10 202 -10 C 144 -10 101 4 71 33 C 41 61 27 98 27 142 C 27 196 48 238 92 268 C 135 298 196 315 274 319 L 369 325 L 369 332 C 369 357 361 376 345 390 C 329 403 304 410 272 410 C 241 410 211 404 183 394 C 154 383 129 371 109 358 L 62 439 C 84 457 115 472 153 486 C 191 500 235 507 286 507 C 346 507 395 493 432 465 C 468 437 487 392 487 330 L 487 0 Z M 372 142 L 372 238 L 272 234 C 234 232 205 225 183 211 C 161 197 150 178 150 153 C 150 132 158 115 174 103 C 190 91 210 85 236 85 C 265 85 292 90 316 102 C 340 114 359 127 372 142 Z M 268 548 L 268 548 Z M 392 548 L 270 548 L 144 709 L 287 709 L 392 548 Z" unicode="à" />
<glyph horiz-adv-x="548" d="M 27 0 L 27 0 Z M 487 0 L 372 0 L 372 61 C 356 40 334 23 306 10 C 278 -3 244 -10 202 -10 C 144 -10 101 4 71 33 C 41 61 27 98 27 142 C 27 196 48 238 92 268 C 135 298 196 315 274 319 L 369 325 L 369 332 C 369 357 361 376 345 390 C 329 403 304 410 272 410 C 241 410 211 404 183 394 C 154 383 129 371 109 358 L 62 439 C 84 457 115 472 153 486 C 191 500 235 507 286 507 C 346 507 395 493 432 465 C 468 437 487 392 487 330 L 487 0 Z M 372 142 L 372 238 L 272 234 C 234 232 205 225 183 211 C 161 197 150 178 150 153 C 150 132 158 115 174 103 C 190 91 210 85 236 85 C 265 85 292 90 316 102 C 340 114 359 127 372 142 Z M 268 552 L 268 552 Z M 145 552 L 248 713 L 392 713 L 266 552 L 145 552 Z" unicode="á" />
<glyph horiz-adv-x="548" d="M 27 0 L 27 0 Z M 487 0 L 372 0 L 372 61 C 356 40 334 23 306 10 C 278 -3 244 -10 202 -10 C 144 -10 101 4 71 33 C 41 61 27 98 27 142 C 27 196 48 238 92 268 C 135 298 196 315 274 319 L 369 325 L 369 332 C 369 357 361 376 345 390 C 329 403 304 410 272 410 C 241 410 211 404 183 394 C 154 383 129 371 109 358 L 62 439 C 84 457 115 472 153 486 C 191 500 235 507 286 507 C 346 507 395 493 432 465 C 468 437 487 392 487 330 L 487 0 Z M 372 142 L 372 238 L 272 234 C 234 232 205 225 183 211 C 161 197 150 178 150 153 C 150 132 158 115 174 103 C 190 91 210 85 236 85 C 265 85 292 90 316 102 C 340 114 359 127 372 142 Z M 268 548 L 268 548 Z M 453 548 L 342 548 L 268 645 L 193 548 L 84 548 L 207 721 L 330 721 L 453 548 Z" unicode="â" />
<glyph horiz-adv-x="548" d="M 27 0 L 27 0 Z M 487 0 L 372 0 L 372 61 C 356 40 334 23 306 10 C 278 -3 244 -10 202 -10 C 144 -10 101 4 71 33 C 41 61 27 98 27 142 C 27 196 48 238 92 268 C 135 298 196 315 274 319 L 369 325 L 369 332 C 369 357 361 376 345 390 C 329 403 304 410 272 410 C 241 410 211 404 183 394 C 154 383 129 371 109 358 L 62 439 C 84 457 115 472 153 486 C 191 500 235 507 286 507 C 346 507 395 493 432 465 C 468 437 487 392 487 330 L 487 0 Z M 372 142 L 372 238 L 272 234 C 234 232 205 225 183 211 C 161 197 150 178 150 153 C 150 132 158 115 174 103 C 190 91 210 85 236 85 C 265 85 292 90 316 102 C 340 114 359 127 372 142 Z M 268 552 L 268 552 Z M 352 699 L 445 699 C 445 649 437 612 422 588 C 406 564 386 552 360 552 C 341 552 325 555 311 562 C 297 568 284 575 274 582 C 264 588 254 594 245 600 C 236 606 227 610 219 610 C 210 610 203 605 197 595 C 191 585 188 572 188 556 L 95 556 C 95 605 105 642 126 666 C 147 690 169 703 192 703 C 208 703 223 699 236 693 C 248 687 260 680 271 672 C 279 665 288 659 296 654 C 304 648 313 646 321 646 C 329 646 336 650 342 660 C 348 669 351 682 352 699 Z" unicode="ã" />
<glyph horiz-adv-x="548" d="M 27 0 L 27 0 Z M 487 0 L 372 0 L 372 61 C 356 40 334 23 306 10 C 278 -3 244 -10 202 -10 C 144 -10 101 4 71 33 C 41 61 27 98 27 142 C 27 196 48 238 92 268 C 135 298 196 315 274 319 L 369 325 L 369 332 C 369 357 361 376 345 390 C 329 403 304 410 272 410 C 241 410 211 404 183 394 C 154 383 129 371 109 358 L 62 439 C 84 457 115 472 153 486 C 191 500 235 507 286 507 C 346 507 395 493 432 465 C 468 437 487 392 487 330 L 487 0 Z M 372 142 L 372 238 L 272 234 C 234 232 205 225 183 211 C 161 197 150 178 150 153 C 150 132 158 115 174 103 C 190 91 210 85 236 85 C 265 85 292 90 316 102 C 340 114 359 127 372 142 Z M 268 548 L 268 548 Z M 416 548 L 314 548 L 314 709 L 416 709 L 416 548 Z M 222 548 L 120 548 L 120 709 L 222 709 L 222 548 Z" unicode="ä" />
<glyph horiz-adv-x="548" d="M 27 0 L 27 0 Z M 487 0 L 372 0 L 372 61 C 356 40 334 23 306 10 C 278 -3 244 -10 202 -10 C 144 -10 101 4 71 33 C 41 61 27 98 27 142 C 27 196 48 238 92 268 C 135 298 196 315 274 319 L 369 325 L 369 332 C 369 357 361 376 345 390 C 329 403 304 410 272 410 C 241 410 211 404 183 394 C 154 383 129 371 109 358 L 62 439 C 84 457 115 472 153 486 C 191 500 235 507 286 507 C 346 507 395 493 432 465 C 468 437 487 392 487 330 L 487 0 Z M 372 142 L 372 238 L 272 234 C 234 232 205 225 183 211 C 161 197 150 178 150 153 C 150 132 158 115 174 103 C 190 91 210 85 236 85 C 265 85 292 90 316 102 C 340 114 359 127 372 142 Z M 268 546 L 268 546 Z M 268 546 C 234 546 205 557 181 581 C 157 605 146 634 146 668 C 146 701 157 729 181 753 C 205 776 234 788 268 788 C 302 788 330 776 354 753 C 378 729 390 701 390 668 C 390 634 378 605 354 581 C 330 557 302 546 268 546 Z M 268 615 C 282 615 294 620 304 630 C 314 640 319 652 319 667 C 319 681 314 694 304 704 C 294 714 282 720 268 720 C 253 720 241 714 231 704 C 221 694 216 681 216 667 C 216 652 221 640 231 630 C 241 620 253 615 268 615 Z" unicode="å" />
<glyph horiz-adv-x="906" d="M 637 -11 C 581 -11 536 0 500 19 C 464 39 439 63 425 89 C 408 64 381 41 344 21 C 307 0 261 -10 207 -10 C 152 -10 109 3 79 31 C 48 59 33 96 33 142 C 33 196 54 238 97 268 C 140 297 201 314 281 319 L 380 324 L 380 332 C 380 356 370 375 351 389 C 332 403 307 410 276 410 C 245 410 215 404 187 394 C 159 383 134 371 114 358 L 68 439 C 92 457 122 473 158 487 C 194 500 234 507 277 507 C 323 507 360 499 389 484 C 417 468 438 450 450 429 C 462 447 484 464 516 481 C 547 497 586 506 634 506 C 709 506 769 479 813 426 C 857 372 880 300 881 210 L 491 210 C 493 176 506 147 531 124 C 555 101 591 90 637 90 C 677 90 708 96 729 109 C 749 121 766 135 780 150 L 852 76 C 828 49 800 28 767 12 C 734 -3 691 -11 637 -11 Z M 494 296 L 760 296 C 759 325 746 351 722 374 C 698 396 666 408 626 408 C 586 408 555 396 532 374 C 509 352 496 326 494 296 Z M 244 85 C 278 85 307 94 331 112 C 355 130 372 148 383 168 L 383 238 L 278 233 C 242 231 212 224 190 213 C 167 201 156 182 156 155 C 156 131 164 114 181 102 C 198 90 219 85 244 85 Z" unicode="æ" />
<glyph horiz-adv-x="535" d="M 34 0 L 34 0 Z M 423 170 L 520 111 C 501 79 474 51 438 26 C 402 1 353 -11 291 -11 C 253 -11 219 -4 187 7 C 155 19 128 37 106 59 C 83 81 65 109 53 141 C 40 173 34 208 34 247 C 34 285 40 320 54 352 C 67 384 85 411 109 434 C 132 456 160 474 192 487 C 224 499 258 506 296 506 C 326 506 354 502 379 495 C 403 487 425 477 443 465 C 461 453 477 439 490 423 C 502 407 512 391 519 375 L 412 326 C 402 347 387 365 369 379 C 350 393 325 401 294 401 C 254 401 221 386 197 357 C 172 327 160 291 160 247 C 160 200 172 163 197 135 C 221 107 255 94 297 94 C 332 94 359 102 378 118 C 397 134 412 152 423 170 Z M 287 -4 L 287 -4 Z M 296 -195 C 270 -195 244 -192 218 -186 C 191 -180 171 -172 157 -163 L 172 -111 C 180 -115 192 -120 208 -124 C 223 -128 239 -131 256 -131 C 268 -131 278 -128 288 -123 C 297 -117 302 -110 302 -102 C 302 -91 297 -84 289 -80 C 281 -76 272 -74 263 -74 C 256 -74 250 -74 245 -75 C 240 -76 235 -77 229 -79 L 213 -62 L 274 10 L 348 10 L 299 -50 C 333 -44 361 -48 383 -61 C 405 -74 417 -93 417 -118 C 417 -144 404 -163 380 -176 C 355 -188 327 -195 296 -195 Z" unicode="ç" />
<glyph horiz-adv-x="571" d="M 35 0 L 35 0 Z M 301 -11 C 262 -11 226 -5 194 6 C 161 17 133 33 110 55 C 86 77 68 104 55 136 C 41 168 35 204 35 244 C 35 281 41 316 54 348 C 67 380 85 407 108 431 C 131 454 159 472 191 486 C 223 499 258 506 296 506 C 371 506 431 480 477 428 C 522 376 545 303 546 209 L 152 209 C 154 177 167 150 192 126 C 217 102 253 90 300 90 C 338 90 369 96 392 108 C 414 120 432 134 445 150 L 517 76 C 495 51 467 30 435 14 C 403 -2 358 -11 301 -11 Z M 154 296 L 425 296 C 423 327 410 353 386 375 C 362 397 331 408 292 408 C 252 408 220 396 195 374 C 170 351 156 325 154 296 Z M 291 548 L 291 548 Z M 415 548 L 293 548 L 167 709 L 310 709 L 415 548 Z" unicode="è" />
<glyph horiz-adv-x="571" d="M 35 0 L 35 0 Z M 301 -11 C 262 -11 226 -5 194 6 C 161 17 133 33 110 55 C 86 77 68 104 55 136 C 41 168 35 204 35 244 C 35 281 41 316 54 348 C 67 380 85 407 108 431 C 131 454 159 472 191 486 C 223 499 258 506 296 506 C 371 506 431 480 477 428 C 522 376 545 303 546 209 L 152 209 C 154 177 167 150 192 126 C 217 102 253 90 300 90 C 338 90 369 96 392 108 C 414 120 432 134 445 150 L 517 76 C 495 51 467 30 435 14 C 403 -2 358 -11 301 -11 Z M 154 296 L 425 296 C 423 327 410 353 386 375 C 362 397 331 408 292 408 C 252 408 220 396 195 374 C 170 351 156 325 154 296 Z M 291 552 L 291 552 Z M 168 552 L 271 713 L 415 713 L 289 552 L 168 552 Z" unicode="é" />
<glyph horiz-adv-x="571" d="M 35 0 L 35 0 Z M 301 -11 C 262 -11 226 -5 194 6 C 161 17 133 33 110 55 C 86 77 68 104 55 136 C 41 168 35 204 35 244 C 35 281 41 316 54 348 C 67 380 85 407 108 431 C 131 454 159 472 191 486 C 223 499 258 506 296 506 C 371 506 431 480 477 428 C 522 376 545 303 546 209 L 152 209 C 154 177 167 150 192 126 C 217 102 253 90 300 90 C 338 90 369 96 392 108 C 414 120 432 134 445 150 L 517 76 C 495 51 467 30 435 14 C 403 -2 358 -11 301 -11 Z M 154 296 L 425 296 C 423 327 410 353 386 375 C 362 397 331 408 292 408 C 252 408 220 396 195 374 C 170 351 156 325 154 296 Z M 291 548 L 291 548 Z M 476 548 L 365 548 L 291 645 L 216 548 L 107 548 L 230 721 L 353 721 L 476 548 Z" unicode="ê" />
<glyph horiz-adv-x="571" d="M 35 0 L 35 0 Z M 301 -11 C 262 -11 226 -5 194 6 C 161 17 133 33 110 55 C 86 77 68 104 55 136 C 41 168 35 204 35 244 C 35 281 41 316 54 348 C 67 380 85 407 108 431 C 131 454 159 472 191 486 C 223 499 258 506 296 506 C 371 506 431 480 477 428 C 522 376 545 303 546 209 L 152 209 C 154 177 167 150 192 126 C 217 102 253 90 300 90 C 338 90 369 96 392 108 C 414 120 432 134 445 150 L 517 76 C 495 51 467 30 435 14 C 403 -2 358 -11 301 -11 Z M 154 296 L 425 296 C 423 327 410 353 386 375 C 362 397 331 408 292 408 C 252 408 220 396 195 374 C 170 351 156 325 154 296 Z M 291 548 L 291 548 Z M 439 548 L 337 548 L 337 709 L 439 709 L 439 548 Z M 245 548 L 143 548 L 143 709 L 245 709 L 245 548 Z" unicode="ë" />
<glyph horiz-adv-x="269" d="M 10 0 L 10 0 Z M 195 0 L 74 0 L 74 494 L 195 494 L 195 0 Z M 134 548 L 134 548 Z M 258 548 L 136 548 L 10 709 L 153 709 L 258 548 Z" unicode="ì" />
<glyph horiz-adv-x="269" d="M 11 0 L 11 0 Z M 195 0 L 74 0 L 74 494 L 195 494 L 195 0 Z M 134 552 L 134 552 Z M 11 552 L 114 713 L 258 713 L 132 552 L 11 552 Z" unicode="í" />
<glyph horiz-adv-x="269" d="M 0 0 L 0 0 Z M 195 0 L 74 0 L 74 494 L 195 494 L 195 0 Z M 134 548 L 134 548 Z M 319 548 L 208 548 L 134 645 L 59 548 L -50 548 L 73 721 L 196 721 L 319 548 Z" unicode="î" />
<glyph horiz-adv-x="269" d="M 0 0 L 0 0 Z M 195 0 L 74 0 L 74 494 L 195 494 L 195 0 Z M 134 548 L 134 548 Z M 282 548 L 180 548 L 180 709 L 282 709 L 282 548 Z M 88 548 L -14 548 L -14 709 L 88 709 L 88 548 Z" unicode="ï" />
<glyph horiz-adv-x="606" d="M 567 275 C 567 235 561 198 549 163 C 537 128 520 98 498 72 C 475 46 447 26 413 11 C 379 -3 340 -11 297 -11 C 259 -11 225 -5 193 6 C 161 18 133 35 110 57 C 86 79 68 105 55 137 C 41 168 35 203 35 242 C 35 277 42 310 56 340 C 70 370 88 397 111 419 C 134 441 161 459 191 472 C 221 485 251 492 283 492 C 317 492 348 484 377 470 C 406 456 427 439 440 421 C 435 459 425 494 411 526 C 396 558 379 586 361 611 L 219 567 L 197 631 L 312 666 C 294 682 277 696 260 708 C 243 719 228 728 216 735 L 325 775 C 337 767 352 757 368 745 C 384 732 401 716 418 698 L 499 723 L 520 660 L 462 642 C 490 600 515 549 536 488 C 556 427 567 356 567 275 Z M 299 90 C 345 90 382 104 408 133 C 434 162 447 200 447 246 C 447 292 434 328 409 355 C 383 382 348 396 303 396 C 260 396 225 381 198 352 C 171 323 158 287 158 245 C 158 199 171 161 198 133 C 225 104 259 90 299 90 Z" unicode="ð" />
<glyph horiz-adv-x="594" d="M 70 0 L 70 0 Z M 530 0 L 409 0 L 409 321 C 409 347 399 368 381 383 C 363 398 339 406 311 406 C 281 406 253 396 228 378 C 203 360 191 332 191 296 L 191 0 L 70 0 L 70 494 L 180 494 L 180 407 C 191 435 213 459 245 478 C 277 496 313 506 354 506 C 404 506 445 491 479 463 C 513 435 530 398 530 352 L 530 0 Z M 308 552 L 308 552 Z M 392 699 L 485 699 C 485 649 477 612 462 588 C 446 564 426 552 400 552 C 381 552 365 555 351 562 C 337 568 324 575 314 582 C 304 588 294 594 285 600 C 276 606 267 610 259 610 C 250 610 243 605 237 595 C 231 585 228 572 228 556 L 135 556 C 135 605 145 642 166 666 C 187 690 209 703 232 703 C 248 703 263 699 276 693 C 288 687 300 680 311 672 C 319 665 328 659 336 654 C 344 648 353 646 361 646 C 369 646 376 650 382 660 C 388 669 391 682 392 699 Z" unicode="ñ" />
<glyph horiz-adv-x="600" d="M 34 0 L 34 0 Z M 296 -11 C 262 -11 230 -5 199 6 C 167 17 139 33 115 55 C 91 77 71 104 56 136 C 41 168 34 204 34 246 C 34 282 41 317 55 349 C 69 381 89 408 113 431 C 137 454 165 472 197 486 C 229 499 262 506 296 506 C 332 506 366 500 399 489 C 432 477 461 461 486 440 C 510 418 530 392 544 362 C 558 331 566 297 566 259 C 566 219 558 182 544 149 C 530 115 510 87 486 64 C 461 40 432 22 399 9 C 366 -4 332 -11 296 -11 Z M 300 93 C 342 93 376 107 402 137 C 428 166 441 205 441 254 C 441 297 427 332 401 360 C 374 388 338 402 293 402 C 253 402 221 387 197 359 C 172 331 160 293 160 246 C 160 196 173 158 200 132 C 226 106 260 93 300 93 Z M 295 548 L 295 548 Z M 419 548 L 297 548 L 171 709 L 314 709 L 419 548 Z" unicode="ò" />
<glyph horiz-adv-x="600" d="M 34 0 L 34 0 Z M 296 -11 C 262 -11 230 -5 199 6 C 167 17 139 33 115 55 C 91 77 71 104 56 136 C 41 168 34 204 34 246 C 34 282 41 317 55 349 C 69 381 89 408 113 431 C 137 454 165 472 197 486 C 229 499 262 506 296 506 C 332 506 366 500 399 489 C 432 477 461 461 486 440 C 510 418 530 392 544 362 C 558 331 566 297 566 259 C 566 219 558 182 544 149 C 530 115 510 87 486 64 C 461 40 432 22 399 9 C 366 -4 332 -11 296 -11 Z M 300 93 C 342 93 376 107 402 137 C 428 166 441 205 441 254 C 441 297 427 332 401 360 C 374 388 338 402 293 402 C 253 402 221 387 197 359 C 172 331 160 293 160 246 C 160 196 173 158 200 132 C 226 106 260 93 300 93 Z M 295 552 L 295 552 Z M 172 552 L 275 713 L 419 713 L 293 552 L 172 552 Z" unicode="ó" />
<glyph horiz-adv-x="600" d="M 34 0 L 34 0 Z M 296 -11 C 262 -11 230 -5 199 6 C 167 17 139 33 115 55 C 91 77 71 104 56 136 C 41 168 34 204 34 246 C 34 282 41 317 55 349 C 69 381 89 408 113 431 C 137 454 165 472 197 486 C 229 499 262 506 296 506 C 332 506 366 500 399 489 C 432 477 461 461 486 440 C 510 418 530 392 544 362 C 558 331 566 297 566 259 C 566 219 558 182 544 149 C 530 115 510 87 486 64 C 461 40 432 22 399 9 C 366 -4 332 -11 296 -11 Z M 300 93 C 342 93 376 107 402 137 C 428 166 441 205 441 254 C 441 297 427 332 401 360 C 374 388 338 402 293 402 C 253 402 221 387 197 359 C 172 331 160 293 160 246 C 160 196 173 158 200 132 C 226 106 260 93 300 93 Z M 295 548 L 295 548 Z M 480 548 L 369 548 L 295 645 L 220 548 L 111 548 L 234 721 L 357 721 L 480 548 Z" unicode="ô" />
<glyph horiz-adv-x="600" d="M 34 0 L 34 0 Z M 296 -11 C 262 -11 230 -5 199 6 C 167 17 139 33 115 55 C 91 77 71 104 56 136 C 41 168 34 204 34 246 C 34 282 41 317 55 349 C 69 381 89 408 113 431 C 137 454 165 472 197 486 C 229 499 262 506 296 506 C 332 506 366 500 399 489 C 432 477 461 461 486 440 C 510 418 530 392 544 362 C 558 331 566 297 566 259 C 566 219 558 182 544 149 C 530 115 510 87 486 64 C 461 40 432 22 399 9 C 366 -4 332 -11 296 -11 Z M 300 93 C 342 93 376 107 402 137 C 428 166 441 205 441 254 C 441 297 427 332 401 360 C 374 388 338 402 293 402 C 253 402 221 387 197 359 C 172 331 160 293 160 246 C 160 196 173 158 200 132 C 226 106 260 93 300 93 Z M 295 552 L 295 552 Z M 379 699 L 472 699 C 472 649 464 612 449 588 C 433 564 413 552 387 552 C 368 552 352 555 338 562 C 324 568 311 575 301 582 C 291 588 281 594 272 600 C 263 606 254 610 246 610 C 237 610 230 605 224 595 C 218 585 215 572 215 556 L 122 556 C 122 605 132 642 153 666 C 174 690 196 703 219 703 C 235 703 250 699 263 693 C 275 687 287 680 298 672 C 306 665 315 659 323 654 C 331 648 340 646 348 646 C 356 646 363 650 369 660 C 375 669 378 682 379 699 Z" unicode="õ" />
<glyph horiz-adv-x="600" d="M 34 0 L 34 0 Z M 296 -11 C 262 -11 230 -5 199 6 C 167 17 139 33 115 55 C 91 77 71 104 56 136 C 41 168 34 204 34 246 C 34 282 41 317 55 349 C 69 381 89 408 113 431 C 137 454 165 472 197 486 C 229 499 262 506 296 506 C 332 506 366 500 399 489 C 432 477 461 461 486 440 C 510 418 530 392 544 362 C 558 331 566 297 566 259 C 566 219 558 182 544 149 C 530 115 510 87 486 64 C 461 40 432 22 399 9 C 366 -4 332 -11 296 -11 Z M 300 93 C 342 93 376 107 402 137 C 428 166 441 205 441 254 C 441 297 427 332 401 360 C 374 388 338 402 293 402 C 253 402 221 387 197 359 C 172 331 160 293 160 246 C 160 196 173 158 200 132 C 226 106 260 93 300 93 Z M 295 548 L 295 548 Z M 443 548 L 341 548 L 341 709 L 443 709 L 443 548 Z M 249 548 L 147 548 L 147 709 L 249 709 L 249 548 Z" unicode="ö" />
<glyph horiz-adv-x="500" d="M 194 448 L 194 573 L 306 573 L 306 448 L 194 448 Z M 23 279 L 23 382 L 477 382 L 477 279 L 23 279 Z M 194 87 L 194 211 L 306 211 L 306 87 L 194 87 Z" unicode="÷" />
<glyph horiz-adv-x="600" d="M 296 -11 C 267 -11 238 -6 210 2 C 182 10 156 23 134 40 L 78 -16 L 28 34 L 84 89 C 68 109 56 133 47 159 C 38 185 34 214 34 246 C 34 282 41 317 55 349 C 69 381 89 408 113 431 C 137 454 165 472 197 486 C 229 499 262 506 296 506 C 326 506 354 502 382 494 C 410 486 435 475 458 461 L 516 519 L 565 470 L 510 415 C 527 395 541 371 551 345 C 561 319 566 290 566 259 C 566 219 558 182 544 149 C 530 115 510 87 486 64 C 461 40 432 22 399 9 C 366 -4 332 -11 296 -11 Z M 160 246 C 160 233 161 221 163 209 C 165 197 168 187 172 177 L 376 380 C 365 386 352 392 338 396 C 324 400 309 402 293 402 C 253 402 221 387 197 359 C 172 331 160 293 160 246 Z M 441 254 C 441 268 439 281 436 294 C 433 306 429 318 424 329 L 214 120 C 225 111 238 104 253 100 C 267 95 283 93 300 93 C 342 93 376 107 402 137 C 428 166 441 205 441 254 Z" unicode="ø" />
<glyph horiz-adv-x="594" d="M 64 0 L 64 0 Z M 64 494 L 184 494 L 184 185 C 184 152 193 128 213 112 C 233 96 258 89 290 89 C 322 89 349 98 371 117 C 393 136 404 162 404 196 L 404 494 L 524 494 L 524 0 L 411 0 L 411 86 C 399 59 378 36 348 18 C 318 0 282 -10 240 -10 C 191 -10 149 4 115 32 C 81 60 64 100 64 154 L 64 494 Z M 294 548 L 294 548 Z M 418 548 L 296 548 L 170 709 L 313 709 L 418 548 Z" unicode="ù" />
<glyph horiz-adv-x="594" d="M 64 0 L 64 0 Z M 64 494 L 184 494 L 184 185 C 184 152 193 128 213 112 C 233 96 258 89 290 89 C 322 89 349 98 371 117 C 393 136 404 162 404 196 L 404 494 L 524 494 L 524 0 L 411 0 L 411 86 C 399 59 378 36 348 18 C 318 0 282 -10 240 -10 C 191 -10 149 4 115 32 C 81 60 64 100 64 154 L 64 494 Z M 294 552 L 294 552 Z M 171 552 L 274 713 L 418 713 L 292 552 L 171 552 Z" unicode="ú" />
<glyph horiz-adv-x="594" d="M 64 0 L 64 0 Z M 64 494 L 184 494 L 184 185 C 184 152 193 128 213 112 C 233 96 258 89 290 89 C 322 89 349 98 371 117 C 393 136 404 162 404 196 L 404 494 L 524 494 L 524 0 L 411 0 L 411 86 C 399 59 378 36 348 18 C 318 0 282 -10 240 -10 C 191 -10 149 4 115 32 C 81 60 64 100 64 154 L 64 494 Z M 294 548 L 294 548 Z M 479 548 L 368 548 L 294 645 L 219 548 L 110 548 L 233 721 L 356 721 L 479 548 Z" unicode="û" />
<glyph horiz-adv-x="594" d="M 64 0 L 64 0 Z M 64 494 L 184 494 L 184 185 C 184 152 193 128 213 112 C 233 96 258 89 290 89 C 322 89 349 98 371 117 C 393 136 404 162 404 196 L 404 494 L 524 494 L 524 0 L 411 0 L 411 86 C 399 59 378 36 348 18 C 318 0 282 -10 240 -10 C 191 -10 149 4 115 32 C 81 60 64 100 64 154 L 64 494 Z M 294 548 L 294 548 Z M 442 548 L 340 548 L 340 709 L 442 709 L 442 548 Z M 248 548 L 146 548 L 146 709 L 248 709 L 248 548 Z" unicode="ü" />
<glyph horiz-adv-x="534" d="M 0 0 L 0 0 Z M 538 494 L 263 -79 C 239 -127 211 -159 177 -175 C 143 -191 112 -200 82 -200 C 64 -200 49 -198 37 -194 C 24 -190 15 -188 10 -186 L 44 -81 C 47 -83 53 -85 61 -87 C 69 -89 78 -91 87 -91 C 103 -91 118 -86 130 -76 C 142 -66 155 -49 168 -25 L 205 47 L -5 494 L 126 494 L 268 173 L 414 494 L 538 494 Z M 268 552 L 268 552 Z M 145 552 L 248 713 L 392 713 L 266 552 L 145 552 Z" unicode="ý" />
<glyph horiz-adv-x="612" d="M 70 -198 L 70 765 L 187 765 L 187 408 C 195 431 214 453 244 474 C 274 494 312 505 359 505 C 390 505 419 499 446 487 C 473 475 496 459 516 438 C 535 417 550 391 561 361 C 572 330 578 296 578 258 C 578 216 571 179 559 147 C 547 114 530 86 510 64 C 489 42 465 25 438 13 C 411 1 383 -5 354 -5 C 313 -5 278 3 249 21 C 219 38 199 58 189 82 L 189 -198 L 70 -198 Z M 323 91 C 359 91 390 105 415 133 C 440 161 453 200 453 250 C 453 295 441 333 419 363 C 397 393 364 408 322 408 C 282 408 250 394 224 368 C 198 341 186 300 186 246 C 186 191 199 151 226 127 C 252 103 285 91 323 91 Z" unicode="þ" />
<glyph horiz-adv-x="534" d="M 0 0 L 0 0 Z M 538 494 L 263 -79 C 239 -127 211 -159 177 -175 C 143 -191 112 -200 82 -200 C 64 -200 49 -198 37 -194 C 24 -190 15 -188 10 -186 L 44 -81 C 47 -83 53 -85 61 -87 C 69 -89 78 -91 87 -91 C 103 -91 118 -86 130 -76 C 142 -66 155 -49 168 -25 L 205 47 L -5 494 L 126 494 L 268 173 L 414 494 L 538 494 Z M 268 548 L 268 548 Z M 416 548 L 314 548 L 314 709 L 416 709 L 416 548 Z M 222 548 L 120 548 L 120 709 L 222 709 L 222 548 Z" unicode="ÿ" />
<glyph horiz-adv-x="669" d="M 0 0 L 0 0 Z M 670 0 L 533 0 L 469 160 L 190 160 L 129 0 L -1 0 L 298 733 L 378 733 L 670 0 Z M 435 262 L 329 531 L 224 262 L 435 262 Z M 332 796 L 332 796 Z M 471 796 L 193 796 L 193 890 L 471 890 L 471 796 Z" unicode="Ā" />
<glyph horiz-adv-x="548" d="M 27 0 L 27 0 Z M 487 0 L 372 0 L 372 61 C 356 40 334 23 306 10 C 278 -3 244 -10 202 -10 C 144 -10 101 4 71 33 C 41 61 27 98 27 142 C 27 196 48 238 92 268 C 135 298 196 315 274 319 L 369 325 L 369 332 C 369 357 361 376 345 390 C 329 403 304 410 272 410 C 241 410 211 404 183 394 C 154 383 129 371 109 358 L 62 439 C 84 457 115 472 153 486 C 191 500 235 507 286 507 C 346 507 395 493 432 465 C 468 437 487 392 487 330 L 487 0 Z M 372 142 L 372 238 L 272 234 C 234 232 205 225 183 211 C 161 197 150 178 150 153 C 150 132 158 115 174 103 C 190 91 210 85 236 85 C 265 85 292 90 316 102 C 340 114 359 127 372 142 Z M 268 560 L 268 560 Z M 407 560 L 129 560 L 129 654 L 407 654 L 407 560 Z" unicode="ā" />
<glyph horiz-adv-x="669" d="M 0 0 L 0 0 Z M 670 0 L 533 0 L 469 160 L 190 160 L 129 0 L -1 0 L 298 733 L 378 733 L 670 0 Z M 435 262 L 329 531 L 224 262 L 435 262 Z M 332 786 L 332 786 Z M 399 946 L 500 946 C 495 890 477 850 447 824 C 416 798 378 786 332 786 C 286 786 247 798 217 824 C 186 850 168 890 164 946 L 265 946 C 266 918 272 897 282 881 C 292 865 309 857 332 857 C 354 857 371 864 382 880 C 392 895 398 917 399 946 Z" unicode="Ă" />
<glyph horiz-adv-x="548" d="M 27 0 L 27 0 Z M 487 0 L 372 0 L 372 61 C 356 40 334 23 306 10 C 278 -3 244 -10 202 -10 C 144 -10 101 4 71 33 C 41 61 27 98 27 142 C 27 196 48 238 92 268 C 135 298 196 315 274 319 L 369 325 L 369 332 C 369 357 361 376 345 390 C 329 403 304 410 272 410 C 241 410 211 404 183 394 C 154 383 129 371 109 358 L 62 439 C 84 457 115 472 153 486 C 191 500 235 507 286 507 C 346 507 395 493 432 465 C 468 437 487 392 487 330 L 487 0 Z M 372 142 L 372 238 L 272 234 C 234 232 205 225 183 211 C 161 197 150 178 150 153 C 150 132 158 115 174 103 C 190 91 210 85 236 85 C 265 85 292 90 316 102 C 340 114 359 127 372 142 Z M 268 550 L 268 550 Z M 335 710 L 436 710 C 431 654 413 614 383 588 C 352 562 314 550 268 550 C 222 550 183 562 153 588 C 122 614 104 654 100 710 L 201 710 C 202 682 208 661 218 645 C 228 629 245 621 268 621 C 290 621 307 628 318 644 C 328 659 334 681 335 710 Z" unicode="ă" />
<glyph horiz-adv-x="669" d="M 0 0 L 0 0 Z M 670 0 L 533 0 L 469 160 L 190 160 L 129 0 L -1 0 L 298 733 L 378 733 L 670 0 Z M 435 262 L 329 531 L 224 262 L 435 262 Z M 548 -6 L 548 -6 Z M 650 -82 L 683 -132 C 661 -154 638 -170 613 -181 C 587 -192 559 -198 527 -198 C 491 -198 464 -190 444 -176 C 424 -161 414 -142 414 -120 C 414 -96 424 -73 446 -51 C 468 -29 497 -11 534 4 L 593 4 C 569 -8 550 -20 536 -33 C 522 -46 516 -59 516 -72 C 516 -83 520 -92 530 -99 C 540 -106 552 -110 567 -110 C 585 -110 601 -107 615 -102 C 629 -96 640 -90 650 -82 Z" unicode="Ą" />
<glyph horiz-adv-x="548" d="M 27 0 L 27 0 Z M 487 0 L 372 0 L 372 61 C 356 40 334 23 306 10 C 278 -3 244 -10 202 -10 C 144 -10 101 4 71 33 C 41 61 27 98 27 142 C 27 196 48 238 92 268 C 135 298 196 315 274 319 L 369 325 L 369 332 C 369 357 361 376 345 390 C 329 403 304 410 272 410 C 241 410 211 404 183 394 C 154 383 129 371 109 358 L 62 439 C 84 457 115 472 153 486 C 191 500 235 507 286 507 C 346 507 395 493 432 465 C 468 437 487 392 487 330 L 487 0 Z M 372 142 L 372 238 L 272 234 C 234 232 205 225 183 211 C 161 197 150 178 150 153 C 150 132 158 115 174 103 C 190 91 210 85 236 85 C 265 85 292 90 316 102 C 340 114 359 127 372 142 Z M 394 -6 L 394 -6 Z M 496 -82 L 529 -132 C 507 -154 484 -170 459 -181 C 433 -192 405 -198 373 -198 C 337 -198 310 -190 290 -176 C 270 -161 260 -142 260 -120 C 260 -96 270 -73 292 -51 C 314 -29 343 -11 380 4 L 439 4 C 415 -8 396 -20 382 -33 C 368 -46 362 -59 362 -72 C 362 -83 366 -92 376 -99 C 386 -106 398 -110 413 -110 C 431 -110 447 -107 461 -102 C 475 -96 486 -90 496 -82 Z" unicode="ą" />
<glyph horiz-adv-x="723" d="M 45 0 L 45 0 Z M 406 -12 C 356 -12 308 -3 264 14 C 220 31 181 56 149 88 C 117 120 91 160 73 207 C 54 253 45 306 45 365 C 45 419 54 470 72 516 C 90 562 116 602 148 636 C 180 669 218 695 262 714 C 306 732 355 742 407 742 C 473 742 529 732 576 713 C 623 694 662 666 694 628 L 608 538 C 587 562 561 582 529 598 C 497 614 457 623 411 623 C 373 623 340 616 311 604 C 281 591 257 573 237 551 C 217 529 202 502 192 470 C 182 438 177 404 177 366 C 177 321 183 282 197 249 C 210 216 228 189 250 168 C 272 146 297 130 326 120 C 355 109 385 104 417 104 C 465 104 505 113 539 132 C 573 150 601 175 624 205 L 708 131 C 678 90 638 56 587 29 C 535 1 475 -12 406 -12 Z M 408 788 L 408 788 Z M 285 788 L 388 949 L 532 949 L 406 788 L 285 788 Z" unicode="Ć" />
<glyph horiz-adv-x="535" d="M 34 0 L 34 0 Z M 423 170 L 520 111 C 501 79 474 51 438 26 C 402 1 353 -11 291 -11 C 253 -11 219 -4 187 7 C 155 19 128 37 106 59 C 83 81 65 109 53 141 C 40 173 34 208 34 247 C 34 285 40 320 54 352 C 67 384 85 411 109 434 C 132 456 160 474 192 487 C 224 499 258 506 296 506 C 326 506 354 502 379 495 C 403 487 425 477 443 465 C 461 453 477 439 490 423 C 502 407 512 391 519 375 L 412 326 C 402 347 387 365 369 379 C 350 393 325 401 294 401 C 254 401 221 386 197 357 C 172 327 160 291 160 247 C 160 200 172 163 197 135 C 221 107 255 94 297 94 C 332 94 359 102 378 118 C 397 134 412 152 423 170 Z M 288 552 L 288 552 Z M 165 552 L 268 713 L 412 713 L 286 552 L 165 552 Z" unicode="ć" />
<glyph horiz-adv-x="723" d="M 45 0 L 45 0 Z M 406 -12 C 356 -12 308 -3 264 14 C 220 31 181 56 149 88 C 117 120 91 160 73 207 C 54 253 45 306 45 365 C 45 419 54 470 72 516 C 90 562 116 602 148 636 C 180 669 218 695 262 714 C 306 732 355 742 407 742 C 473 742 529 732 576 713 C 623 694 662 666 694 628 L 608 538 C 587 562 561 582 529 598 C 497 614 457 623 411 623 C 373 623 340 616 311 604 C 281 591 257 573 237 551 C 217 529 202 502 192 470 C 182 438 177 404 177 366 C 177 321 183 282 197 249 C 210 216 228 189 250 168 C 272 146 297 130 326 120 C 355 109 385 104 417 104 C 465 104 505 113 539 132 C 573 150 601 175 624 205 L 708 131 C 678 90 638 56 587 29 C 535 1 475 -12 406 -12 Z M 408 784 L 408 784 Z M 593 784 L 482 784 L 408 881 L 333 784 L 224 784 L 347 957 L 470 957 L 593 784 Z" unicode="Ĉ" />
<glyph horiz-adv-x="535" d="M 34 0 L 34 0 Z M 423 170 L 520 111 C 501 79 474 51 438 26 C 402 1 353 -11 291 -11 C 253 -11 219 -4 187 7 C 155 19 128 37 106 59 C 83 81 65 109 53 141 C 40 173 34 208 34 247 C 34 285 40 320 54 352 C 67 384 85 411 109 434 C 132 456 160 474 192 487 C 224 499 258 506 296 506 C 326 506 354 502 379 495 C 403 487 425 477 443 465 C 461 453 477 439 490 423 C 502 407 512 391 519 375 L 412 326 C 402 347 387 365 369 379 C 350 393 325 401 294 401 C 254 401 221 386 197 357 C 172 327 160 291 160 247 C 160 200 172 163 197 135 C 221 107 255 94 297 94 C 332 94 359 102 378 118 C 397 134 412 152 423 170 Z M 288 548 L 288 548 Z M 473 548 L 362 548 L 288 645 L 213 548 L 104 548 L 227 721 L 350 721 L 473 548 Z" unicode="ĉ" />
<glyph horiz-adv-x="723" d="M 45 0 L 45 0 Z M 406 -12 C 356 -12 308 -3 264 14 C 220 31 181 56 149 88 C 117 120 91 160 73 207 C 54 253 45 306 45 365 C 45 419 54 470 72 516 C 90 562 116 602 148 636 C 180 669 218 695 262 714 C 306 732 355 742 407 742 C 473 742 529 732 576 713 C 623 694 662 666 694 628 L 608 538 C 587 562 561 582 529 598 C 497 614 457 623 411 623 C 373 623 340 616 311 604 C 281 591 257 573 237 551 C 217 529 202 502 192 470 C 182 438 177 404 177 366 C 177 321 183 282 197 249 C 210 216 228 189 250 168 C 272 146 297 130 326 120 C 355 109 385 104 417 104 C 465 104 505 113 539 132 C 573 150 601 175 624 205 L 708 131 C 678 90 638 56 587 29 C 535 1 475 -12 406 -12 Z M 408 784 L 408 784 Z M 463 784 L 354 784 L 354 949 L 463 949 L 463 784 Z" unicode="Ċ" />
<glyph horiz-adv-x="535" d="M 34 0 L 34 0 Z M 423 170 L 520 111 C 501 79 474 51 438 26 C 402 1 353 -11 291 -11 C 253 -11 219 -4 187 7 C 155 19 128 37 106 59 C 83 81 65 109 53 141 C 40 173 34 208 34 247 C 34 285 40 320 54 352 C 67 384 85 411 109 434 C 132 456 160 474 192 487 C 224 499 258 506 296 506 C 326 506 354 502 379 495 C 403 487 425 477 443 465 C 461 453 477 439 490 423 C 502 407 512 391 519 375 L 412 326 C 402 347 387 365 369 379 C 350 393 325 401 294 401 C 254 401 221 386 197 357 C 172 327 160 291 160 247 C 160 200 172 163 197 135 C 221 107 255 94 297 94 C 332 94 359 102 378 118 C 397 134 412 152 423 170 Z M 288 548 L 288 548 Z M 343 548 L 234 548 L 234 713 L 343 713 L 343 548 Z" unicode="ċ" />
<glyph horiz-adv-x="723" d="M 45 0 L 45 0 Z M 406 -12 C 356 -12 308 -3 264 14 C 220 31 181 56 149 88 C 117 120 91 160 73 207 C 54 253 45 306 45 365 C 45 419 54 470 72 516 C 90 562 116 602 148 636 C 180 669 218 695 262 714 C 306 732 355 742 407 742 C 473 742 529 732 576 713 C 623 694 662 666 694 628 L 608 538 C 587 562 561 582 529 598 C 497 614 457 623 411 623 C 373 623 340 616 311 604 C 281 591 257 573 237 551 C 217 529 202 502 192 470 C 182 438 177 404 177 366 C 177 321 183 282 197 249 C 210 216 228 189 250 168 C 272 146 297 130 326 120 C 355 109 385 104 417 104 C 465 104 505 113 539 132 C 573 150 601 175 624 205 L 708 131 C 678 90 638 56 587 29 C 535 1 475 -12 406 -12 Z M 408 784 L 408 784 Z M 224 957 L 335 957 L 409 861 L 484 957 L 593 957 L 470 784 L 347 784 L 224 957 Z" unicode="Č" />
<glyph horiz-adv-x="535" d="M 34 0 L 34 0 Z M 423 170 L 520 111 C 501 79 474 51 438 26 C 402 1 353 -11 291 -11 C 253 -11 219 -4 187 7 C 155 19 128 37 106 59 C 83 81 65 109 53 141 C 40 173 34 208 34 247 C 34 285 40 320 54 352 C 67 384 85 411 109 434 C 132 456 160 474 192 487 C 224 499 258 506 296 506 C 326 506 354 502 379 495 C 403 487 425 477 443 465 C 461 453 477 439 490 423 C 502 407 512 391 519 375 L 412 326 C 402 347 387 365 369 379 C 350 393 325 401 294 401 C 254 401 221 386 197 357 C 172 327 160 291 160 247 C 160 200 172 163 197 135 C 221 107 255 94 297 94 C 332 94 359 102 378 118 C 397 134 412 152 423 170 Z M 288 548 L 288 548 Z M 104 721 L 215 721 L 289 625 L 364 721 L 473 721 L 350 548 L 227 548 L 104 721 Z" unicode="č" />
<glyph horiz-adv-x="757" d="M 90 0 L 90 0 Z M 90 0 L 90 730 L 330 730 C 390 730 444 721 492 704 C 540 687 580 663 612 633 C 644 602 669 565 686 521 C 703 477 712 428 712 376 C 712 323 703 274 686 228 C 668 182 643 142 610 108 C 576 74 535 48 485 29 C 435 9 377 0 313 0 L 90 0 Z M 220 107 L 312 107 C 357 107 396 114 430 128 C 463 142 490 162 512 186 C 534 210 550 238 561 270 C 571 302 577 337 577 373 C 577 447 555 507 511 553 C 467 599 405 622 326 622 L 220 622 L 220 107 Z M 363 784 L 363 784 Z M 179 957 L 290 957 L 364 861 L 439 957 L 548 957 L 425 784 L 302 784 L 179 957 Z" unicode="Ď" />
<glyph horiz-adv-x="615" d="M 34 0 L 34 0 Z M 265 -9 C 231 -9 200 -3 172 9 C 144 21 119 38 99 60 C 79 82 63 108 51 140 C 39 171 34 206 34 244 C 34 282 40 317 53 349 C 66 381 83 408 105 432 C 126 455 151 473 180 486 C 209 499 240 506 272 506 C 306 506 337 498 365 482 C 393 466 412 447 424 427 L 424 765 L 540 765 L 540 0 L 429 0 L 429 88 C 425 78 418 67 408 55 C 398 43 387 33 373 24 C 359 14 342 6 324 0 C 306 -5 286 -9 265 -9 Z M 292 88 C 332 88 364 102 388 132 C 412 162 425 201 425 251 C 425 305 411 344 385 369 C 359 394 328 407 292 407 C 251 407 219 392 195 364 C 171 335 159 296 159 248 C 159 202 170 163 194 133 C 217 103 250 88 292 88 Z M 698 608 L 693 453 L 591 453 L 585 608 L 585 730 L 698 730 L 698 608 Z" unicode="ď" />
<glyph horiz-adv-x="753" d="M 35 0 L 35 0 Z M 712 367 C 712 316 703 268 686 224 C 668 179 643 140 610 107 C 576 74 535 48 485 29 C 435 9 377 0 313 0 L 90 0 L 90 308 L 35 308 L 35 406 L 90 406 L 90 730 L 330 730 C 392 730 446 721 494 704 C 542 686 582 662 614 631 C 646 599 670 561 687 516 C 703 471 712 421 712 367 Z M 217 105 L 310 105 C 358 105 399 112 433 127 C 467 141 494 161 516 185 C 537 209 553 237 563 269 C 573 300 578 332 578 365 C 578 444 556 507 513 554 C 469 600 408 624 329 624 L 217 624 L 217 406 L 373 406 L 373 308 L 217 308 L 217 105 Z" unicode="Đ" />
<glyph horiz-adv-x="610" d="M 429 88 C 425 78 418 67 408 55 C 398 43 387 33 373 24 C 359 14 342 6 324 0 C 306 -5 286 -9 265 -9 C 231 -9 200 -3 172 9 C 144 21 119 38 99 60 C 79 82 63 108 51 140 C 39 171 34 206 34 244 C 34 282 40 317 53 349 C 66 381 83 408 105 432 C 126 455 151 473 180 486 C 209 499 240 506 272 506 C 306 506 337 498 365 482 C 393 466 412 447 424 427 L 424 579 L 286 579 L 286 674 L 424 674 L 424 765 L 540 765 L 540 674 L 601 674 L 601 579 L 540 579 L 540 0 L 429 0 L 429 88 Z M 292 88 C 332 88 364 102 388 132 C 412 162 425 201 425 251 C 425 305 411 344 385 369 C 359 394 328 407 292 407 C 251 407 219 392 195 364 C 171 335 159 296 159 248 C 159 202 170 163 194 133 C 217 103 250 88 292 88 Z" unicode="đ" />
<glyph horiz-adv-x="598" d="M 90 0 L 90 0 Z M 548 0 L 90 0 L 90 730 L 529 730 L 529 618 L 218 618 L 218 417 L 511 417 L 511 307 L 218 307 L 218 112 L 548 112 L 548 0 Z M 316 796 L 316 796 Z M 455 796 L 177 796 L 177 890 L 455 890 L 455 796 Z" unicode="Ē" />
<glyph horiz-adv-x="571" d="M 35 0 L 35 0 Z M 301 -11 C 262 -11 226 -5 194 6 C 161 17 133 33 110 55 C 86 77 68 104 55 136 C 41 168 35 204 35 244 C 35 281 41 316 54 348 C 67 380 85 407 108 431 C 131 454 159 472 191 486 C 223 499 258 506 296 506 C 371 506 431 480 477 428 C 522 376 545 303 546 209 L 152 209 C 154 177 167 150 192 126 C 217 102 253 90 300 90 C 338 90 369 96 392 108 C 414 120 432 134 445 150 L 517 76 C 495 51 467 30 435 14 C 403 -2 358 -11 301 -11 Z M 154 296 L 425 296 C 423 327 410 353 386 375 C 362 397 331 408 292 408 C 252 408 220 396 195 374 C 170 351 156 325 154 296 Z M 291 560 L 291 560 Z M 430 560 L 152 560 L 152 654 L 430 654 L 430 560 Z" unicode="ē" />
<glyph horiz-adv-x="598" d="M 90 0 L 90 0 Z M 548 0 L 90 0 L 90 730 L 529 730 L 529 618 L 218 618 L 218 417 L 511 417 L 511 307 L 218 307 L 218 112 L 548 112 L 548 0 Z M 316 786 L 316 786 Z M 383 946 L 484 946 C 479 890 461 850 431 824 C 400 798 362 786 316 786 C 270 786 231 798 201 824 C 170 850 152 890 148 946 L 249 946 C 250 918 256 897 266 881 C 276 865 293 857 316 857 C 338 857 355 864 366 880 C 376 895 382 917 383 946 Z" unicode="Ĕ" />
<glyph horiz-adv-x="571" d="M 35 0 L 35 0 Z M 301 -11 C 262 -11 226 -5 194 6 C 161 17 133 33 110 55 C 86 77 68 104 55 136 C 41 168 35 204 35 244 C 35 281 41 316 54 348 C 67 380 85 407 108 431 C 131 454 159 472 191 486 C 223 499 258 506 296 506 C 371 506 431 480 477 428 C 522 376 545 303 546 209 L 152 209 C 154 177 167 150 192 126 C 217 102 253 90 300 90 C 338 90 369 96 392 108 C 414 120 432 134 445 150 L 517 76 C 495 51 467 30 435 14 C 403 -2 358 -11 301 -11 Z M 154 296 L 425 296 C 423 327 410 353 386 375 C 362 397 331 408 292 408 C 252 408 220 396 195 374 C 170 351 156 325 154 296 Z M 291 550 L 291 550 Z M 358 710 L 459 710 C 454 654 436 614 406 588 C 375 562 337 550 291 550 C 245 550 206 562 176 588 C 145 614 127 654 123 710 L 224 710 C 225 682 231 661 241 645 C 251 629 268 621 291 621 C 313 621 330 628 341 644 C 351 659 357 681 358 710 Z" unicode="ĕ" />
<glyph horiz-adv-x="598" d="M 90 0 L 90 0 Z M 548 0 L 90 0 L 90 730 L 529 730 L 529 618 L 218 618 L 218 417 L 511 417 L 511 307 L 218 307 L 218 112 L 548 112 L 548 0 Z M 316 784 L 316 784 Z M 371 784 L 262 784 L 262 949 L 371 949 L 371 784 Z" unicode="Ė" />
<glyph horiz-adv-x="571" d="M 35 0 L 35 0 Z M 301 -11 C 262 -11 226 -5 194 6 C 161 17 133 33 110 55 C 86 77 68 104 55 136 C 41 168 35 204 35 244 C 35 281 41 316 54 348 C 67 380 85 407 108 431 C 131 454 159 472 191 486 C 223 499 258 506 296 506 C 371 506 431 480 477 428 C 522 376 545 303 546 209 L 152 209 C 154 177 167 150 192 126 C 217 102 253 90 300 90 C 338 90 369 96 392 108 C 414 120 432 134 445 150 L 517 76 C 495 51 467 30 435 14 C 403 -2 358 -11 301 -11 Z M 154 296 L 425 296 C 423 327 410 353 386 375 C 362 397 331 408 292 408 C 252 408 220 396 195 374 C 170 351 156 325 154 296 Z M 291 548 L 291 548 Z M 346 548 L 237 548 L 237 713 L 346 713 L 346 548 Z" unicode="ė" />
<glyph horiz-adv-x="598" d="M 90 0 L 90 0 Z M 548 0 L 90 0 L 90 730 L 529 730 L 529 618 L 218 618 L 218 417 L 511 417 L 511 307 L 218 307 L 218 112 L 548 112 L 548 0 Z M 504 -6 L 504 -6 Z M 606 -82 L 639 -132 C 617 -154 594 -170 569 -181 C 543 -192 515 -198 483 -198 C 447 -198 420 -190 400 -176 C 380 -161 370 -142 370 -120 C 370 -96 380 -73 402 -51 C 424 -29 453 -11 490 4 L 549 4 C 525 -8 506 -20 492 -33 C 478 -46 472 -59 472 -72 C 472 -83 476 -92 486 -99 C 496 -106 508 -110 523 -110 C 541 -110 557 -107 571 -102 C 585 -96 596 -90 606 -82 Z" unicode="Ę" />
<glyph horiz-adv-x="571" d="M 35 0 L 35 0 Z M 301 -11 C 262 -11 226 -5 194 6 C 161 17 133 33 110 55 C 86 77 68 104 55 136 C 41 168 35 204 35 244 C 35 281 41 316 54 348 C 67 380 85 407 108 431 C 131 454 159 472 191 486 C 223 499 258 506 296 506 C 371 506 431 480 477 428 C 522 376 545 303 546 209 L 152 209 C 154 177 167 150 192 126 C 217 102 253 90 300 90 C 338 90 369 96 392 108 C 414 120 432 134 445 150 L 517 76 C 495 51 467 30 435 14 C 403 -2 358 -11 301 -11 Z M 154 296 L 425 296 C 423 327 410 353 386 375 C 362 397 331 408 292 408 C 252 408 220 396 195 374 C 170 351 156 325 154 296 Z M 364 -6 L 364 -6 Z M 466 -82 L 499 -132 C 477 -154 454 -170 429 -181 C 403 -192 375 -198 343 -198 C 307 -198 280 -190 260 -176 C 240 -161 230 -142 230 -120 C 230 -96 240 -73 262 -51 C 284 -29 313 -11 350 4 L 409 4 C 385 -8 366 -20 352 -33 C 338 -46 332 -59 332 -72 C 332 -83 336 -92 346 -99 C 356 -106 368 -110 383 -110 C 401 -110 417 -107 431 -102 C 445 -96 456 -90 466 -82 Z" unicode="ę" />
<glyph horiz-adv-x="598" d="M 90 0 L 90 0 Z M 548 0 L 90 0 L 90 730 L 529 730 L 529 618 L 218 618 L 218 417 L 511 417 L 511 307 L 218 307 L 218 112 L 548 112 L 548 0 Z M 316 784 L 316 784 Z M 132 957 L 243 957 L 317 861 L 392 957 L 501 957 L 378 784 L 255 784 L 132 957 Z" unicode="Ě" />
<glyph horiz-adv-x="571" d="M 35 0 L 35 0 Z M 301 -11 C 262 -11 226 -5 194 6 C 161 17 133 33 110 55 C 86 77 68 104 55 136 C 41 168 35 204 35 244 C 35 281 41 316 54 348 C 67 380 85 407 108 431 C 131 454 159 472 191 486 C 223 499 258 506 296 506 C 371 506 431 480 477 428 C 522 376 545 303 546 209 L 152 209 C 154 177 167 150 192 126 C 217 102 253 90 300 90 C 338 90 369 96 392 108 C 414 120 432 134 445 150 L 517 76 C 495 51 467 30 435 14 C 403 -2 358 -11 301 -11 Z M 154 296 L 425 296 C 423 327 410 353 386 375 C 362 397 331 408 292 408 C 252 408 220 396 195 374 C 170 351 156 325 154 296 Z M 291 548 L 291 548 Z M 107 721 L 218 721 L 292 625 L 367 721 L 476 721 L 353 548 L 230 548 L 107 721 Z" unicode="ě" />
<glyph horiz-adv-x="780" d="M 45 0 L 45 0 Z M 423 380 L 734 380 L 734 151 C 706 103 664 63 609 33 C 554 3 490 -12 416 -12 C 362 -12 313 -3 267 15 C 221 33 182 58 150 91 C 117 124 91 164 73 210 C 54 256 45 308 45 365 C 45 423 54 475 74 522 C 94 568 120 608 154 640 C 188 672 227 697 273 715 C 318 733 366 742 417 742 C 453 742 486 738 515 732 C 543 725 568 716 590 706 C 612 696 630 684 646 672 C 661 660 674 648 685 636 L 602 547 C 584 565 561 583 532 599 C 502 615 463 623 413 623 C 379 623 347 617 318 605 C 288 593 263 577 242 555 C 221 533 205 506 193 474 C 181 442 175 406 175 367 C 175 327 181 291 193 258 C 205 225 221 197 243 173 C 265 149 291 130 322 117 C 352 103 386 97 422 97 C 468 97 508 105 543 123 C 578 140 603 163 619 192 L 619 268 L 423 268 L 423 380 Z M 415 784 L 415 784 Z M 600 784 L 489 784 L 415 881 L 340 784 L 231 784 L 354 957 L 477 957 L 600 784 Z" unicode="Ĝ" />
<glyph horiz-adv-x="608" d="M 35 0 L 35 0 Z M 262 5 C 228 5 198 11 170 23 C 142 35 119 51 99 73 C 79 95 63 121 52 151 C 40 181 35 215 35 251 C 35 327 56 388 99 435 C 141 481 197 505 266 505 C 304 505 338 496 368 480 C 398 463 418 443 429 420 L 429 494 L 540 494 L 540 55 C 540 12 532 -24 517 -56 C 502 -87 482 -113 458 -134 C 433 -154 404 -170 372 -180 C 339 -190 306 -195 272 -195 C 214 -195 168 -189 135 -177 C 102 -165 78 -153 62 -143 L 112 -51 C 124 -61 144 -71 170 -82 C 196 -92 226 -98 261 -98 C 305 -98 343 -86 375 -63 C 407 -40 423 -6 423 40 L 423 101 C 414 79 395 57 366 36 C 337 15 302 5 262 5 Z M 294 98 C 329 98 360 111 386 139 C 412 166 425 205 425 255 C 425 299 413 334 389 362 C 365 390 332 404 292 404 C 253 404 221 390 196 362 C 171 334 159 296 159 247 C 159 199 171 162 195 136 C 219 110 252 98 294 98 Z M 281 548 L 281 548 Z M 466 548 L 355 548 L 281 645 L 206 548 L 97 548 L 220 721 L 343 721 L 466 548 Z" unicode="ĝ" />
<glyph horiz-adv-x="780" d="M 45 0 L 45 0 Z M 423 380 L 734 380 L 734 151 C 706 103 664 63 609 33 C 554 3 490 -12 416 -12 C 362 -12 313 -3 267 15 C 221 33 182 58 150 91 C 117 124 91 164 73 210 C 54 256 45 308 45 365 C 45 423 54 475 74 522 C 94 568 120 608 154 640 C 188 672 227 697 273 715 C 318 733 366 742 417 742 C 453 742 486 738 515 732 C 543 725 568 716 590 706 C 612 696 630 684 646 672 C 661 660 674 648 685 636 L 602 547 C 584 565 561 583 532 599 C 502 615 463 623 413 623 C 379 623 347 617 318 605 C 288 593 263 577 242 555 C 221 533 205 506 193 474 C 181 442 175 406 175 367 C 175 327 181 291 193 258 C 205 225 221 197 243 173 C 265 149 291 130 322 117 C 352 103 386 97 422 97 C 468 97 508 105 543 123 C 578 140 603 163 619 192 L 619 268 L 423 268 L 423 380 Z M 415 786 L 415 786 Z M 482 946 L 583 946 C 578 890 560 850 530 824 C 499 798 461 786 415 786 C 369 786 330 798 300 824 C 269 850 251 890 247 946 L 348 946 C 349 918 355 897 365 881 C 375 865 392 857 415 857 C 437 857 454 864 465 880 C 475 895 481 917 482 946 Z" unicode="Ğ" />
<glyph horiz-adv-x="608" d="M 35 0 L 35 0 Z M 262 5 C 228 5 198 11 170 23 C 142 35 119 51 99 73 C 79 95 63 121 52 151 C 40 181 35 215 35 251 C 35 327 56 388 99 435 C 141 481 197 505 266 505 C 304 505 338 496 368 480 C 398 463 418 443 429 420 L 429 494 L 540 494 L 540 55 C 540 12 532 -24 517 -56 C 502 -87 482 -113 458 -134 C 433 -154 404 -170 372 -180 C 339 -190 306 -195 272 -195 C 214 -195 168 -189 135 -177 C 102 -165 78 -153 62 -143 L 112 -51 C 124 -61 144 -71 170 -82 C 196 -92 226 -98 261 -98 C 305 -98 343 -86 375 -63 C 407 -40 423 -6 423 40 L 423 101 C 414 79 395 57 366 36 C 337 15 302 5 262 5 Z M 294 98 C 329 98 360 111 386 139 C 412 166 425 205 425 255 C 425 299 413 334 389 362 C 365 390 332 404 292 404 C 253 404 221 390 196 362 C 171 334 159 296 159 247 C 159 199 171 162 195 136 C 219 110 252 98 294 98 Z M 281 550 L 281 550 Z M 348 710 L 449 710 C 444 654 426 614 396 588 C 365 562 327 550 281 550 C 235 550 196 562 166 588 C 135 614 117 654 113 710 L 214 710 C 215 682 221 661 231 645 C 241 629 258 621 281 621 C 303 621 320 628 331 644 C 341 659 347 681 348 710 Z" unicode="ğ" />
<glyph horiz-adv-x="780" d="M 45 0 L 45 0 Z M 423 380 L 734 380 L 734 151 C 706 103 664 63 609 33 C 554 3 490 -12 416 -12 C 362 -12 313 -3 267 15 C 221 33 182 58 150 91 C 117 124 91 164 73 210 C 54 256 45 308 45 365 C 45 423 54 475 74 522 C 94 568 120 608 154 640 C 188 672 227 697 273 715 C 318 733 366 742 417 742 C 453 742 486 738 515 732 C 543 725 568 716 590 706 C 612 696 630 684 646 672 C 661 660 674 648 685 636 L 602 547 C 584 565 561 583 532 599 C 502 615 463 623 413 623 C 379 623 347 617 318 605 C 288 593 263 577 242 555 C 221 533 205 506 193 474 C 181 442 175 406 175 367 C 175 327 181 291 193 258 C 205 225 221 197 243 173 C 265 149 291 130 322 117 C 352 103 386 97 422 97 C 468 97 508 105 543 123 C 578 140 603 163 619 192 L 619 268 L 423 268 L 423 380 Z M 415 784 L 415 784 Z M 470 784 L 361 784 L 361 949 L 470 949 L 470 784 Z" unicode="Ġ" />
<glyph horiz-adv-x="608" d="M 35 0 L 35 0 Z M 262 5 C 228 5 198 11 170 23 C 142 35 119 51 99 73 C 79 95 63 121 52 151 C 40 181 35 215 35 251 C 35 327 56 388 99 435 C 141 481 197 505 266 505 C 304 505 338 496 368 480 C 398 463 418 443 429 420 L 429 494 L 540 494 L 540 55 C 540 12 532 -24 517 -56 C 502 -87 482 -113 458 -134 C 433 -154 404 -170 372 -180 C 339 -190 306 -195 272 -195 C 214 -195 168 -189 135 -177 C 102 -165 78 -153 62 -143 L 112 -51 C 124 -61 144 -71 170 -82 C 196 -92 226 -98 261 -98 C 305 -98 343 -86 375 -63 C 407 -40 423 -6 423 40 L 423 101 C 414 79 395 57 366 36 C 337 15 302 5 262 5 Z M 294 98 C 329 98 360 111 386 139 C 412 166 425 205 425 255 C 425 299 413 334 389 362 C 365 390 332 404 292 404 C 253 404 221 390 196 362 C 171 334 159 296 159 247 C 159 199 171 162 195 136 C 219 110 252 98 294 98 Z M 281 548 L 281 548 Z M 336 548 L 227 548 L 227 713 L 336 713 L 336 548 Z" unicode="ġ" />
<glyph horiz-adv-x="780" d="M 45 0 L 45 0 Z M 423 380 L 734 380 L 734 151 C 706 103 664 63 609 33 C 554 3 490 -12 416 -12 C 362 -12 313 -3 267 15 C 221 33 182 58 150 91 C 117 124 91 164 73 210 C 54 256 45 308 45 365 C 45 423 54 475 74 522 C 94 568 120 608 154 640 C 188 672 227 697 273 715 C 318 733 366 742 417 742 C 453 742 486 738 515 732 C 543 725 568 716 590 706 C 612 696 630 684 646 672 C 661 660 674 648 685 636 L 602 547 C 584 565 561 583 532 599 C 502 615 463 623 413 623 C 379 623 347 617 318 605 C 288 593 263 577 242 555 C 221 533 205 506 193 474 C 181 442 175 406 175 367 C 175 327 181 291 193 258 C 205 225 221 197 243 173 C 265 149 291 130 322 117 C 352 103 386 97 422 97 C 468 97 508 105 543 123 C 578 140 603 163 619 192 L 619 268 L 423 268 L 423 380 Z" unicode="Ģ" />
<glyph horiz-adv-x="608" d="M 35 0 L 35 0 Z M 262 5 C 228 5 198 11 170 23 C 142 35 119 51 99 73 C 79 95 63 121 52 151 C 40 181 35 215 35 251 C 35 327 56 388 99 435 C 141 481 197 505 266 505 C 304 505 338 496 368 480 C 398 463 418 443 429 420 L 429 494 L 540 494 L 540 55 C 540 12 532 -24 517 -56 C 502 -87 482 -113 458 -134 C 433 -154 404 -170 372 -180 C 339 -190 306 -195 272 -195 C 214 -195 168 -189 135 -177 C 102 -165 78 -153 62 -143 L 112 -51 C 124 -61 144 -71 170 -82 C 196 -92 226 -98 261 -98 C 305 -98 343 -86 375 -63 C 407 -40 423 -6 423 40 L 423 101 C 414 79 395 57 366 36 C 337 15 302 5 262 5 Z M 294 98 C 329 98 360 111 386 139 C 412 166 425 205 425 255 C 425 299 413 334 389 362 C 365 390 332 404 292 404 C 253 404 221 390 196 362 C 171 334 159 296 159 247 C 159 199 171 162 195 136 C 219 110 252 98 294 98 Z" unicode="ģ" />
<glyph horiz-adv-x="773" d="M 90 0 L 90 0 Z M 683 0 L 553 0 L 553 302 L 220 302 L 220 0 L 90 0 L 90 730 L 220 730 L 220 417 L 553 417 L 553 730 L 683 730 L 683 0 Z M 386 784 L 386 784 Z M 571 784 L 460 784 L 386 881 L 311 784 L 202 784 L 325 957 L 448 957 L 571 784 Z" unicode="Ĥ" />
<glyph horiz-adv-x="594" d="M 70 0 L 70 0 Z M 530 0 L 410 0 L 410 321 C 410 347 400 367 382 383 C 364 398 340 406 311 406 C 281 406 253 396 228 378 C 203 360 191 334 191 300 L 191 0 L 70 0 L 70 765 L 181 765 L 181 409 C 190 435 210 458 240 477 C 270 496 309 506 355 506 C 404 506 445 492 479 464 C 513 436 530 397 530 349 L 530 0 Z M 323 819 L 323 819 Z M 508 819 L 397 819 L 323 916 L 248 819 L 139 819 L 262 992 L 385 992 L 508 819 Z" unicode="ĥ" />
<glyph horiz-adv-x="773" d="M 220 302 L 220 0 L 90 0 L 90 539 L 10 539 L 10 633 L 90 633 L 90 730 L 220 730 L 220 633 L 553 633 L 553 730 L 683 730 L 683 633 L 764 633 L 764 539 L 683 539 L 683 0 L 553 0 L 553 302 L 220 302 Z M 220 417 L 553 417 L 553 539 L 220 539 L 220 417 Z" unicode="Ħ" />
<glyph horiz-adv-x="594" d="M 191 300 L 191 0 L 70 0 L 70 580 L 9 580 L 9 674 L 70 674 L 70 765 L 181 765 L 181 674 L 328 674 L 328 580 L 181 580 L 181 409 C 190 435 210 458 240 477 C 270 496 309 506 355 506 C 404 506 445 492 479 464 C 513 436 530 397 530 349 L 530 0 L 410 0 L 410 321 C 410 347 400 367 382 383 C 364 398 340 406 311 406 C 281 406 253 396 228 378 C 203 360 191 334 191 300 Z" unicode="ħ" />
<glyph horiz-adv-x="320" d="M 0 0 L 0 0 Z M 225 0 L 95 0 L 95 730 L 225 730 L 225 0 Z M 160 788 L 160 788 Z M 244 935 L 337 935 C 337 885 329 848 314 824 C 298 800 278 788 252 788 C 233 788 217 791 203 798 C 189 804 176 811 166 818 C 156 824 146 830 137 836 C 128 842 119 846 111 846 C 102 846 95 841 89 831 C 83 821 80 808 80 792 L -13 792 C -13 841 -2 878 18 902 C 39 926 61 939 84 939 C 100 939 115 935 128 929 C 140 923 152 916 163 908 C 171 901 180 895 188 890 C 196 884 205 882 213 882 C 221 882 228 886 234 896 C 240 905 243 918 244 935 Z" unicode="Ĩ" />
<glyph horiz-adv-x="269" d="M 0 0 L 0 0 Z M 195 0 L 74 0 L 74 494 L 195 494 L 195 0 Z M 134 552 L 134 552 Z M 218 699 L 311 699 C 311 649 303 612 288 588 C 272 564 252 552 226 552 C 207 552 191 555 177 562 C 163 568 150 575 140 582 C 130 588 120 594 111 600 C 102 606 93 610 85 610 C 76 610 69 605 63 595 C 57 585 54 572 54 556 L -39 556 C -39 605 -28 642 -7 666 C 13 690 35 703 58 703 C 74 703 89 699 102 693 C 114 687 126 680 137 672 C 145 665 154 659 162 654 C 170 648 179 646 187 646 C 195 646 202 650 208 660 C 214 669 217 682 218 699 Z" unicode="ĩ" />
<glyph horiz-adv-x="320" d="M 21 0 L 21 0 Z M 225 0 L 95 0 L 95 730 L 225 730 L 225 0 Z M 160 796 L 160 796 Z M 299 796 L 21 796 L 21 890 L 299 890 L 299 796 Z" unicode="Ī" />
<glyph horiz-adv-x="269" d="M 0 0 L 0 0 Z M 195 0 L 74 0 L 74 494 L 195 494 L 195 0 Z M 134 560 L 134 560 Z M 273 560 L -5 560 L -5 654 L 273 654 L 273 560 Z" unicode="ī" />
<glyph horiz-adv-x="320" d="M 0 0 L 0 0 Z M 225 0 L 95 0 L 95 730 L 225 730 L 225 0 Z M 160 786 L 160 786 Z M 227 946 L 328 946 C 323 890 305 850 275 824 C 244 798 206 786 160 786 C 114 786 75 798 45 824 C 14 850 -3 890 -8 946 L 93 946 C 94 918 100 897 110 881 C 120 865 137 857 160 857 C 182 857 199 864 210 880 C 220 895 226 917 227 946 Z" unicode="Ĭ" />
<glyph horiz-adv-x="269" d="M 0 0 L 0 0 Z M 195 0 L 74 0 L 74 494 L 195 494 L 195 0 Z M 134 550 L 134 550 Z M 201 710 L 302 710 C 297 654 279 614 249 588 C 218 562 180 550 134 550 C 88 550 49 562 19 588 C -11 614 -29 654 -34 710 L 67 710 C 68 682 74 661 84 645 C 94 629 111 621 134 621 C 156 621 173 628 184 644 C 194 659 200 681 201 710 Z" unicode="ĭ" />
<glyph horiz-adv-x="320" d="M 0 0 L 0 0 Z M 225 0 L 95 0 L 95 730 L 225 730 L 225 0 Z M 113 -8 L 113 -8 Z M 215 -84 L 248 -134 C 226 -156 203 -172 178 -183 C 152 -194 124 -200 92 -200 C 56 -200 29 -192 9 -178 C -11 -163 -21 -144 -21 -122 C -21 -98 -10 -75 11 -53 C 33 -31 62 -13 99 2 L 158 2 C 134 -10 115 -22 101 -35 C 87 -48 81 -61 81 -74 C 81 -85 85 -94 95 -101 C 105 -108 117 -112 132 -112 C 150 -112 166 -109 180 -104 C 194 -98 205 -92 215 -84 Z" unicode="Į" />
<glyph horiz-adv-x="269" d="M 0 0 L 0 0 Z M 72 587 L 72 710 L 197 710 L 197 587 L 72 587 Z M 74 0 L 74 494 L 195 494 L 195 0 L 74 0 Z M 98 -6 L 98 -6 Z M 200 -82 L 233 -132 C 211 -154 188 -170 163 -181 C 137 -192 109 -198 77 -198 C 41 -198 14 -190 -6 -176 C -26 -161 -36 -142 -36 -120 C -36 -96 -25 -73 -3 -51 C 18 -29 47 -11 84 4 L 143 4 C 119 -8 100 -20 86 -33 C 72 -46 66 -59 66 -72 C 66 -83 70 -92 80 -99 C 90 -106 102 -110 117 -110 C 135 -110 151 -107 165 -102 C 179 -96 190 -90 200 -82 Z" unicode="į" />
<glyph horiz-adv-x="320" d="M 95 0 L 95 0 Z M 225 0 L 95 0 L 95 730 L 225 730 L 225 0 Z M 160 784 L 160 784 Z M 215 784 L 106 784 L 106 949 L 215 949 L 215 784 Z" unicode="İ" />
<glyph horiz-adv-x="269" d="M 195 0 L 74 0 L 74 494 L 195 494 L 195 0 Z" unicode="ı" />
<glyph horiz-adv-x="659" d="M 95 0 L 95 0 Z M 225 0 L 95 0 L 95 730 L 225 730 L 225 0 Z M 574 730 L 574 200 C 574 171 569 144 560 118 C 550 92 537 69 519 50 C 501 31 478 16 451 5 C 424 -6 393 -12 358 -12 C 338 -12 318 -10 297 -8 C 276 -5 260 0 248 6 L 273 112 C 279 109 290 107 305 105 C 320 103 333 102 344 102 C 378 102 404 111 422 130 C 440 148 450 171 450 197 L 450 730 L 574 730 Z" unicode="Ĳ" />
<glyph horiz-adv-x="503" d="M 72 0 L 72 0 Z M 72 587 L 72 710 L 197 710 L 197 587 L 72 587 Z M 74 0 L 74 494 L 195 494 L 195 0 L 74 0 Z M 443 587 L 319 587 L 319 710 L 443 710 L 443 587 Z M 441 494 L 441 -28 C 441 -80 426 -122 397 -154 C 367 -186 328 -202 278 -202 C 260 -202 240 -200 218 -196 C 196 -192 178 -187 164 -181 L 181 -86 C 189 -90 200 -93 213 -96 C 226 -98 240 -100 255 -100 C 274 -100 290 -92 302 -76 C 314 -60 320 -39 320 -13 L 320 494 L 441 494 Z" unicode="ĳ" />
<glyph horiz-adv-x="417" d="M 12 0 L 12 0 Z M 338 730 L 338 200 C 338 171 333 144 324 118 C 314 92 301 69 283 50 C 265 31 242 16 215 5 C 188 -6 157 -12 122 -12 C 102 -12 82 -10 61 -8 C 40 -5 24 0 12 6 L 37 112 C 43 109 54 107 69 105 C 84 103 97 102 108 102 C 142 102 168 111 186 130 C 204 148 214 171 214 197 L 214 730 L 338 730 Z M 272 784 L 272 784 Z M 457 784 L 346 784 L 272 881 L 197 784 L 88 784 L 211 957 L 334 957 L 457 784 Z" unicode="Ĵ" />
<glyph horiz-adv-x="284" d="M 0 0 L 0 0 Z M 218 494 L 218 -28 C 218 -80 203 -122 174 -154 C 144 -186 105 -202 55 -202 C 37 -202 17 -200 -5 -196 C -27 -192 -45 -187 -59 -181 L -42 -86 C -33 -90 -22 -93 -9 -96 C 3 -98 17 -100 32 -100 C 51 -100 67 -92 79 -76 C 91 -60 97 -39 97 -13 L 97 494 L 218 494 Z M 154 548 L 154 548 Z M 339 548 L 228 548 L 154 645 L 79 548 L -30 548 L 93 721 L 216 721 L 339 548 Z" unicode="ĵ" />
<glyph horiz-adv-x="700" d="M 90 0 L 90 0 Z M 699 0 L 535 0 L 296 307 L 220 215 L 220 0 L 90 0 L 90 730 L 220 730 L 220 370 L 511 730 L 661 730 L 385 399 L 699 0 Z M 352 -68 L 352 -68 Z M 457 -68 C 455 -96 450 -124 442 -153 C 434 -182 424 -209 413 -234 C 401 -259 389 -281 375 -301 C 361 -320 348 -334 336 -344 L 247 -303 C 254 -294 262 -281 271 -265 C 280 -248 289 -229 297 -208 C 305 -186 312 -163 319 -139 C 325 -115 330 -91 333 -68 L 457 -68 Z" unicode="Ķ" />
<glyph horiz-adv-x="556" d="M 70 0 L 70 0 Z M 580 1 L 438 0 L 269 209 L 189 127 L 189 0 L 70 0 L 70 765 L 187 765 L 187 251 L 405 494 L 539 494 L 348 288 L 580 1 Z M 281 -68 L 281 -68 Z M 386 -68 C 384 -96 379 -124 371 -153 C 363 -182 353 -209 342 -234 C 330 -259 318 -281 304 -301 C 290 -320 277 -334 265 -344 L 176 -303 C 183 -294 191 -281 200 -265 C 209 -248 218 -229 226 -208 C 234 -186 241 -163 248 -139 C 254 -115 259 -91 262 -68 L 386 -68 Z" unicode="ķ" />
<glyph horiz-adv-x="556" d="M 580 1 L 438 0 L 269 209 L 189 127 L 189 0 L 70 0 L 70 494 L 187 494 L 187 251 L 405 494 L 539 494 L 348 288 L 580 1 Z" unicode="ĸ" />
<glyph horiz-adv-x="530" d="M 90 0 L 90 0 Z M 520 0 L 90 0 L 90 730 L 220 730 L 220 113 L 520 113 L 520 0 Z M 333 788 L 333 788 Z M 210 788 L 313 949 L 457 949 L 331 788 L 210 788 Z" unicode="Ĺ" />
<glyph horiz-adv-x="260" d="M 70 0 L 70 0 Z M 194 823 L 194 823 Z M 71 823 L 174 984 L 318 984 L 192 823 L 71 823 Z M 191 765 L 191 0 L 70 0 L 70 765 L 191 765 Z" unicode="ĺ" />
<glyph horiz-adv-x="530" d="M 90 0 L 90 0 Z M 520 0 L 90 0 L 90 730 L 220 730 L 220 113 L 520 113 L 520 0 Z M 287 -68 L 287 -68 Z M 392 -68 C 390 -96 385 -124 377 -153 C 369 -182 359 -209 348 -234 C 336 -259 324 -281 310 -301 C 296 -320 283 -334 271 -344 L 182 -303 C 189 -294 197 -281 206 -265 C 215 -248 224 -229 232 -208 C 240 -186 247 -163 254 -139 C 260 -115 265 -91 268 -68 L 392 -68 Z" unicode="Ļ" />
<glyph horiz-adv-x="260" d="M 0 0 L 0 0 Z M 191 765 L 191 0 L 70 0 L 70 765 L 191 765 Z M 97 -68 L 97 -68 Z M 202 -68 C 200 -96 195 -124 187 -153 C 179 -182 169 -209 158 -234 C 146 -259 134 -281 120 -301 C 106 -320 93 -334 81 -344 L -8 -303 C 0 -294 7 -281 16 -265 C 25 -248 34 -229 42 -208 C 50 -186 57 -163 64 -139 C 70 -115 75 -91 78 -68 L 202 -68 Z" unicode="ļ" />
<glyph horiz-adv-x="530" d="M 90 0 L 90 0 Z M 520 0 L 90 0 L 90 730 L 220 730 L 220 113 L 520 113 L 520 0 Z M 527 608 L 522 453 L 420 453 L 414 608 L 414 730 L 527 730 L 527 608 Z" unicode="Ľ" />
<glyph horiz-adv-x="260" d="M 70 0 L 70 0 Z M 348 608 L 343 453 L 241 453 L 235 608 L 235 730 L 348 730 L 348 608 Z M 191 765 L 191 0 L 70 0 L 70 765 L 191 765 Z" unicode="ľ" />
<glyph horiz-adv-x="530" d="M 90 0 L 90 0 Z M 520 0 L 90 0 L 90 730 L 220 730 L 220 113 L 520 113 L 520 0 Z M 380 280 L 380 280 Z M 435 280 L 326 280 L 326 445 L 435 445 L 435 280 Z" unicode="Ŀ" />
<glyph horiz-adv-x="260" d="M 70 0 L 70 0 Z M 191 765 L 191 0 L 70 0 L 70 765 L 191 765 Z M 298 201 L 298 201 Z M 353 201 L 244 201 L 244 366 L 353 366 L 353 201 Z" unicode="ŀ" />
<glyph horiz-adv-x="530" d="M 505 110 L 505 0 L 90 0 L 90 260 L 38 239 L -4 328 L 90 367 L 90 730 L 220 730 L 220 420 L 379 485 L 419 396 L 220 314 L 220 110 L 505 110 Z" unicode="Ł" />
<glyph horiz-adv-x="260" d="M 275 356 L 192 316 L 192 0 L 71 0 L 71 259 L 21 235 L -12 314 L 71 354 L 71 765 L 192 765 L 192 412 L 241 435 L 275 356 Z" unicode="ł" />
<glyph horiz-adv-x="784" d="M 90 0 L 90 0 Z M 694 0 L 604 0 L 212 501 L 212 0 L 90 0 L 90 730 L 189 730 L 573 236 L 573 730 L 694 730 L 694 0 Z M 392 788 L 392 788 Z M 269 788 L 372 949 L 516 949 L 390 788 L 269 788 Z" unicode="Ń" />
<glyph horiz-adv-x="594" d="M 70 0 L 70 0 Z M 530 0 L 409 0 L 409 321 C 409 347 399 368 381 383 C 363 398 339 406 311 406 C 281 406 253 396 228 378 C 203 360 191 332 191 296 L 191 0 L 70 0 L 70 494 L 180 494 L 180 407 C 191 435 213 459 245 478 C 277 496 313 506 354 506 C 404 506 445 491 479 463 C 513 435 530 398 530 352 L 530 0 Z M 308 552 L 308 552 Z M 185 552 L 288 713 L 432 713 L 306 552 L 185 552 Z" unicode="ń" />
<glyph horiz-adv-x="784" d="M 90 0 L 90 0 Z M 694 0 L 604 0 L 212 501 L 212 0 L 90 0 L 90 730 L 189 730 L 573 236 L 573 730 L 694 730 L 694 0 Z M 372 -68 L 372 -68 Z M 477 -68 C 475 -96 470 -124 462 -153 C 454 -182 444 -209 433 -234 C 421 -259 409 -281 395 -301 C 381 -320 368 -334 356 -344 L 267 -303 C 274 -294 282 -281 291 -265 C 300 -248 309 -229 317 -208 C 325 -186 332 -163 339 -139 C 345 -115 350 -91 353 -68 L 477 -68 Z" unicode="Ņ" />
<glyph horiz-adv-x="594" d="M 70 0 L 70 0 Z M 530 0 L 409 0 L 409 321 C 409 347 399 368 381 383 C 363 398 339 406 311 406 C 281 406 253 396 228 378 C 203 360 191 332 191 296 L 191 0 L 70 0 L 70 494 L 180 494 L 180 407 C 191 435 213 459 245 478 C 277 496 313 506 354 506 C 404 506 445 491 479 463 C 513 435 530 398 530 352 L 530 0 Z M 272 -68 L 272 -68 Z M 377 -68 C 375 -96 370 -124 362 -153 C 354 -182 344 -209 333 -234 C 321 -259 309 -281 295 -301 C 281 -320 268 -334 256 -344 L 167 -303 C 174 -294 182 -281 191 -265 C 200 -248 209 -229 217 -208 C 225 -186 232 -163 239 -139 C 245 -115 250 -91 253 -68 L 377 -68 Z" unicode="ņ" />
<glyph horiz-adv-x="784" d="M 90 0 L 90 0 Z M 694 0 L 604 0 L 212 501 L 212 0 L 90 0 L 90 730 L 189 730 L 573 236 L 573 730 L 694 730 L 694 0 Z M 392 784 L 392 784 Z M 208 957 L 319 957 L 393 861 L 468 957 L 577 957 L 454 784 L 331 784 L 208 957 Z" unicode="Ň" />
<glyph horiz-adv-x="594" d="M 70 0 L 70 0 Z M 530 0 L 409 0 L 409 321 C 409 347 399 368 381 383 C 363 398 339 406 311 406 C 281 406 253 396 228 378 C 203 360 191 332 191 296 L 191 0 L 70 0 L 70 494 L 180 494 L 180 407 C 191 435 213 459 245 478 C 277 496 313 506 354 506 C 404 506 445 491 479 463 C 513 435 530 398 530 352 L 530 0 Z M 308 548 L 308 548 Z M 124 721 L 235 721 L 309 625 L 384 721 L 493 721 L 370 548 L 247 548 L 124 721 Z" unicode="ň" />
<glyph horiz-adv-x="789" d="M 573 730 L 694 730 L 694 0 L 694 0 C 692 -60 673 -108 639 -145 C 604 -182 557 -201 498 -201 C 474 -201 452 -199 430 -195 C 408 -191 389 -186 375 -178 L 396 -73 C 405 -77 419 -81 437 -84 C 455 -87 471 -89 487 -89 C 513 -89 534 -79 550 -60 C 566 -41 574 -18 574 9 L 574 38 L 212 501 L 212 0 L 90 0 L 90 730 L 189 730 L 573 236 L 573 730 Z" unicode="Ŋ" />
<glyph horiz-adv-x="594" d="M 354 506 C 404 506 445 491 479 463 C 513 435 530 398 530 352 L 530 -28 C 530 -80 515 -122 486 -154 C 456 -186 417 -202 368 -202 C 349 -202 329 -200 307 -196 C 285 -192 267 -187 253 -181 L 270 -86 C 278 -90 289 -93 302 -96 C 315 -98 329 -100 344 -100 C 363 -100 379 -92 391 -76 C 403 -60 409 -39 409 -13 L 409 321 C 409 347 399 368 381 383 C 363 398 339 406 311 406 C 281 406 253 396 228 378 C 203 360 191 332 191 296 L 191 0 L 70 0 L 70 494 L 180 494 L 180 407 C 191 435 213 459 245 478 C 277 496 313 506 354 506 Z" unicode="ŋ" />
<glyph horiz-adv-x="837" d="M 45 0 L 45 0 Z M 422 -12 C 365 -12 313 -2 267 16 C 220 35 180 62 148 96 C 115 130 90 170 72 217 C 54 264 45 315 45 370 C 45 423 54 472 74 518 C 93 564 119 603 152 636 C 185 669 224 695 269 714 C 314 732 362 742 414 742 C 468 742 519 733 566 715 C 612 697 652 671 686 639 C 719 606 745 566 764 520 C 783 474 793 423 793 368 C 793 311 783 259 763 212 C 743 165 716 125 682 92 C 648 59 609 33 564 15 C 519 -2 472 -12 422 -12 Z M 424 103 C 457 103 488 108 518 120 C 547 132 572 149 593 171 C 614 193 631 221 643 254 C 655 287 661 325 661 367 C 661 405 654 440 642 472 C 629 504 612 531 590 553 C 568 575 541 593 511 605 C 481 617 448 624 413 624 C 379 624 347 618 318 607 C 289 595 264 579 243 558 C 222 536 206 510 194 478 C 182 446 176 410 176 370 C 176 328 182 290 195 257 C 208 223 226 195 248 173 C 270 150 297 133 327 121 C 357 109 390 103 424 103 Z M 415 796 L 415 796 Z M 554 796 L 276 796 L 276 890 L 554 890 L 554 796 Z" unicode="Ō" />
<glyph horiz-adv-x="600" d="M 34 0 L 34 0 Z M 296 -11 C 262 -11 230 -5 199 6 C 167 17 139 33 115 55 C 91 77 71 104 56 136 C 41 168 34 204 34 246 C 34 282 41 317 55 349 C 69 381 89 408 113 431 C 137 454 165 472 197 486 C 229 499 262 506 296 506 C 332 506 366 500 399 489 C 432 477 461 461 486 440 C 510 418 530 392 544 362 C 558 331 566 297 566 259 C 566 219 558 182 544 149 C 530 115 510 87 486 64 C 461 40 432 22 399 9 C 366 -4 332 -11 296 -11 Z M 300 93 C 342 93 376 107 402 137 C 428 166 441 205 441 254 C 441 297 427 332 401 360 C 374 388 338 402 293 402 C 253 402 221 387 197 359 C 172 331 160 293 160 246 C 160 196 173 158 200 132 C 226 106 260 93 300 93 Z M 295 560 L 295 560 Z M 434 560 L 156 560 L 156 654 L 434 654 L 434 560 Z" unicode="ō" />
<glyph horiz-adv-x="837" d="M 45 0 L 45 0 Z M 422 -12 C 365 -12 313 -2 267 16 C 220 35 180 62 148 96 C 115 130 90 170 72 217 C 54 264 45 315 45 370 C 45 423 54 472 74 518 C 93 564 119 603 152 636 C 185 669 224 695 269 714 C 314 732 362 742 414 742 C 468 742 519 733 566 715 C 612 697 652 671 686 639 C 719 606 745 566 764 520 C 783 474 793 423 793 368 C 793 311 783 259 763 212 C 743 165 716 125 682 92 C 648 59 609 33 564 15 C 519 -2 472 -12 422 -12 Z M 424 103 C 457 103 488 108 518 120 C 547 132 572 149 593 171 C 614 193 631 221 643 254 C 655 287 661 325 661 367 C 661 405 654 440 642 472 C 629 504 612 531 590 553 C 568 575 541 593 511 605 C 481 617 448 624 413 624 C 379 624 347 618 318 607 C 289 595 264 579 243 558 C 222 536 206 510 194 478 C 182 446 176 410 176 370 C 176 328 182 290 195 257 C 208 223 226 195 248 173 C 270 150 297 133 327 121 C 357 109 390 103 424 103 Z M 415 786 L 415 786 Z M 482 946 L 583 946 C 578 890 560 850 530 824 C 499 798 461 786 415 786 C 369 786 330 798 300 824 C 269 850 251 890 247 946 L 348 946 C 349 918 355 897 365 881 C 375 865 392 857 415 857 C 437 857 454 864 465 880 C 475 895 481 917 482 946 Z" unicode="Ŏ" />
<glyph horiz-adv-x="600" d="M 34 0 L 34 0 Z M 296 -11 C 262 -11 230 -5 199 6 C 167 17 139 33 115 55 C 91 77 71 104 56 136 C 41 168 34 204 34 246 C 34 282 41 317 55 349 C 69 381 89 408 113 431 C 137 454 165 472 197 486 C 229 499 262 506 296 506 C 332 506 366 500 399 489 C 432 477 461 461 486 440 C 510 418 530 392 544 362 C 558 331 566 297 566 259 C 566 219 558 182 544 149 C 530 115 510 87 486 64 C 461 40 432 22 399 9 C 366 -4 332 -11 296 -11 Z M 300 93 C 342 93 376 107 402 137 C 428 166 441 205 441 254 C 441 297 427 332 401 360 C 374 388 338 402 293 402 C 253 402 221 387 197 359 C 172 331 160 293 160 246 C 160 196 173 158 200 132 C 226 106 260 93 300 93 Z M 295 550 L 295 550 Z M 362 710 L 463 710 C 458 654 440 614 410 588 C 379 562 341 550 295 550 C 249 550 210 562 180 588 C 149 614 131 654 127 710 L 228 710 C 229 682 235 661 245 645 C 255 629 272 621 295 621 C 317 621 334 628 345 644 C 355 659 361 681 362 710 Z" unicode="ŏ" />
<glyph horiz-adv-x="837" d="M 45 0 L 45 0 Z M 422 -12 C 365 -12 313 -2 267 16 C 220 35 180 62 148 96 C 115 130 90 170 72 217 C 54 264 45 315 45 370 C 45 423 54 472 74 518 C 93 564 119 603 152 636 C 185 669 224 695 269 714 C 314 732 362 742 414 742 C 468 742 519 733 566 715 C 612 697 652 671 686 639 C 719 606 745 566 764 520 C 783 474 793 423 793 368 C 793 311 783 259 763 212 C 743 165 716 125 682 92 C 648 59 609 33 564 15 C 519 -2 472 -12 422 -12 Z M 424 103 C 457 103 488 108 518 120 C 547 132 572 149 593 171 C 614 193 631 221 643 254 C 655 287 661 325 661 367 C 661 405 654 440 642 472 C 629 504 612 531 590 553 C 568 575 541 593 511 605 C 481 617 448 624 413 624 C 379 624 347 618 318 607 C 289 595 264 579 243 558 C 222 536 206 510 194 478 C 182 446 176 410 176 370 C 176 328 182 290 195 257 C 208 223 226 195 248 173 C 270 150 297 133 327 121 C 357 109 390 103 424 103 Z M 415 784 L 415 784 Z M 202 784 L 298 935 L 425 935 L 308 784 L 202 784 Z M 404 784 L 501 935 L 628 935 L 510 784 L 404 784 Z" unicode="Ő" />
<glyph horiz-adv-x="600" d="M 34 0 L 34 0 Z M 296 -11 C 262 -11 230 -5 199 6 C 167 17 139 33 115 55 C 91 77 71 104 56 136 C 41 168 34 204 34 246 C 34 282 41 317 55 349 C 69 381 89 408 113 431 C 137 454 165 472 197 486 C 229 499 262 506 296 506 C 332 506 366 500 399 489 C 432 477 461 461 486 440 C 510 418 530 392 544 362 C 558 331 566 297 566 259 C 566 219 558 182 544 149 C 530 115 510 87 486 64 C 461 40 432 22 399 9 C 366 -4 332 -11 296 -11 Z M 300 93 C 342 93 376 107 402 137 C 428 166 441 205 441 254 C 441 297 427 332 401 360 C 374 388 338 402 293 402 C 253 402 221 387 197 359 C 172 331 160 293 160 246 C 160 196 173 158 200 132 C 226 106 260 93 300 93 Z M 295 548 L 295 548 Z M 82 548 L 178 699 L 305 699 L 188 548 L 82 548 Z M 284 548 L 381 699 L 508 699 L 390 548 L 284 548 Z" unicode="ő" />
<glyph horiz-adv-x="1162" d="M 405 -12 C 351 -12 301 -2 257 16 C 212 35 174 61 143 95 C 111 129 87 169 70 216 C 53 262 45 313 45 369 C 45 421 54 470 74 516 C 93 562 119 601 152 635 C 185 668 224 694 269 713 C 314 732 362 742 414 742 C 437 742 461 738 486 732 C 511 726 535 717 558 707 C 580 696 601 683 619 668 C 637 652 650 636 659 618 L 659 730 L 1093 730 L 1093 617 L 781 617 L 781 416 L 1075 416 L 1075 307 L 781 307 L 781 112 L 1112 112 L 1112 0 L 659 0 L 659 128 C 641 88 610 55 565 28 C 519 1 466 -12 405 -12 Z M 420 100 C 453 100 484 105 513 117 C 542 128 567 145 589 167 C 610 189 627 217 639 251 C 651 285 658 324 658 368 C 658 411 650 449 636 481 C 621 513 602 540 580 562 C 557 583 531 599 503 610 C 474 620 446 626 418 626 C 384 626 353 620 324 609 C 294 597 269 581 247 559 C 225 537 208 509 196 477 C 184 444 178 407 178 365 C 178 321 184 283 197 250 C 209 216 226 189 248 167 C 270 145 295 128 325 117 C 355 105 386 100 420 100 Z" unicode="Œ" />
<glyph horiz-adv-x="977" d="M 296 -11 C 261 -11 228 -5 196 6 C 164 18 136 35 112 57 C 88 79 69 106 55 138 C 41 170 34 206 34 246 C 34 282 41 317 55 349 C 69 381 88 408 112 431 C 136 454 164 472 196 486 C 228 499 261 506 297 506 C 326 506 352 502 375 496 C 397 489 417 480 434 470 C 450 460 464 448 475 435 C 486 422 495 410 501 398 C 505 408 514 420 526 433 C 538 445 552 457 570 468 C 587 479 607 488 629 495 C 651 502 676 506 702 506 C 781 506 842 479 886 425 C 930 371 952 300 952 211 L 559 211 C 560 178 574 149 602 125 C 629 101 664 89 708 89 C 746 89 775 95 797 108 C 819 120 837 134 852 150 L 924 76 C 901 51 874 30 842 14 C 810 -2 766 -11 708 -11 C 681 -11 656 -7 633 -1 C 609 5 588 14 570 24 C 552 34 536 46 524 59 C 512 71 503 84 498 96 C 493 84 485 72 473 60 C 461 47 446 35 429 25 C 412 15 392 6 370 0 C 347 -7 322 -11 296 -11 Z M 562 296 L 831 296 C 829 328 816 354 792 376 C 768 397 737 408 698 408 C 659 408 627 397 603 375 C 579 353 565 326 562 296 Z M 301 93 C 343 93 376 107 402 135 C 428 163 441 203 441 255 C 441 299 427 334 401 361 C 374 388 339 402 296 402 C 254 402 221 387 197 359 C 172 330 160 292 160 245 C 160 195 173 158 200 132 C 226 106 260 93 301 93 Z" unicode="œ" />
<glyph horiz-adv-x="643" d="M 90 0 L 90 0 Z M 90 0 L 90 730 L 335 730 C 365 730 394 725 421 716 C 448 707 472 694 492 677 C 512 660 527 639 539 614 C 551 588 557 560 557 528 C 557 496 552 467 543 443 C 534 419 522 398 508 381 C 494 364 477 351 459 341 C 440 331 421 325 402 323 L 400 319 L 628 0 L 477 0 L 278 287 L 219 287 L 219 0 L 90 0 Z M 218 394 L 308 394 C 340 394 368 404 391 424 C 414 444 426 473 426 512 C 426 546 415 572 393 592 C 371 612 343 622 311 622 L 218 622 L 218 394 Z M 317 788 L 317 788 Z M 194 788 L 297 949 L 441 949 L 315 788 L 194 788 Z" unicode="Ŕ" />
<glyph horiz-adv-x="445" d="M 70 0 L 70 0 Z M 448 476 L 392 369 C 379 381 365 389 350 394 C 334 398 319 401 303 401 C 275 401 249 390 226 369 C 202 348 191 321 191 287 L 191 0 L 70 0 L 70 494 L 181 494 L 181 403 C 185 415 191 427 200 439 C 209 451 221 462 235 472 C 249 482 265 490 283 496 C 301 502 322 506 344 506 C 366 506 386 503 404 498 C 422 492 436 485 448 476 Z M 263 552 L 263 552 Z M 140 552 L 243 713 L 387 713 L 261 552 L 140 552 Z" unicode="ŕ" />
<glyph horiz-adv-x="643" d="M 90 0 L 90 0 Z M 90 0 L 90 730 L 335 730 C 365 730 394 725 421 716 C 448 707 472 694 492 677 C 512 660 527 639 539 614 C 551 588 557 560 557 528 C 557 496 552 467 543 443 C 534 419 522 398 508 381 C 494 364 477 351 459 341 C 440 331 421 325 402 323 L 400 319 L 628 0 L 477 0 L 278 287 L 219 287 L 219 0 L 90 0 Z M 218 394 L 308 394 C 340 394 368 404 391 424 C 414 444 426 473 426 512 C 426 546 415 572 393 592 C 371 612 343 622 311 622 L 218 622 L 218 394 Z M 314 -68 L 314 -68 Z M 419 -68 C 417 -96 412 -124 404 -153 C 396 -182 386 -209 375 -234 C 363 -259 351 -281 337 -301 C 323 -320 310 -334 298 -344 L 209 -303 C 216 -294 224 -281 233 -265 C 242 -248 251 -229 259 -208 C 267 -186 274 -163 281 -139 C 287 -115 292 -91 295 -68 L 419 -68 Z" unicode="Ŗ" />
<glyph horiz-adv-x="445" d="M 70 0 L 70 0 Z M 448 476 L 392 369 C 379 381 365 389 350 394 C 334 398 319 401 303 401 C 275 401 249 390 226 369 C 202 348 191 321 191 287 L 191 0 L 70 0 L 70 494 L 181 494 L 181 403 C 185 415 191 427 200 439 C 209 451 221 462 235 472 C 249 482 265 490 283 496 C 301 502 322 506 344 506 C 366 506 386 503 404 498 C 422 492 436 485 448 476 Z M 235 -68 L 235 -68 Z M 340 -68 C 338 -96 333 -124 325 -153 C 317 -182 307 -209 296 -234 C 284 -259 272 -281 258 -301 C 244 -320 231 -334 219 -344 L 130 -303 C 137 -294 145 -281 154 -265 C 163 -248 172 -229 180 -208 C 188 -186 195 -163 202 -139 C 208 -115 213 -91 216 -68 L 340 -68 Z" unicode="ŗ" />
<glyph horiz-adv-x="643" d="M 90 0 L 90 0 Z M 90 0 L 90 730 L 335 730 C 365 730 394 725 421 716 C 448 707 472 694 492 677 C 512 660 527 639 539 614 C 551 588 557 560 557 528 C 557 496 552 467 543 443 C 534 419 522 398 508 381 C 494 364 477 351 459 341 C 440 331 421 325 402 323 L 400 319 L 628 0 L 477 0 L 278 287 L 219 287 L 219 0 L 90 0 Z M 218 394 L 308 394 C 340 394 368 404 391 424 C 414 444 426 473 426 512 C 426 546 415 572 393 592 C 371 612 343 622 311 622 L 218 622 L 218 394 Z M 317 784 L 317 784 Z M 133 957 L 244 957 L 318 861 L 393 957 L 502 957 L 379 784 L 256 784 L 133 957 Z" unicode="Ř" />
<glyph horiz-adv-x="445" d="M 70 0 L 70 0 Z M 448 476 L 392 369 C 379 381 365 389 350 394 C 334 398 319 401 303 401 C 275 401 249 390 226 369 C 202 348 191 321 191 287 L 191 0 L 70 0 L 70 494 L 181 494 L 181 403 C 185 415 191 427 200 439 C 209 451 221 462 235 472 C 249 482 265 490 283 496 C 301 502 322 506 344 506 C 366 506 386 503 404 498 C 422 492 436 485 448 476 Z M 263 548 L 263 548 Z M 79 721 L 190 721 L 264 625 L 339 721 L 448 721 L 325 548 L 202 548 L 79 721 Z" unicode="ř" />
<glyph horiz-adv-x="563" d="M 28 0 L 28 0 Z M 290 -12 C 232 -12 181 -4 137 12 C 93 28 56 50 28 78 L 104 177 C 122 155 148 137 182 122 C 215 106 251 99 289 99 C 320 99 346 106 368 122 C 389 138 400 159 400 186 C 400 212 389 234 368 253 C 347 271 313 291 265 311 C 197 338 144 369 108 403 C 71 437 53 486 53 550 C 53 607 74 653 116 689 C 158 724 213 742 281 742 C 329 742 370 734 406 720 C 442 706 473 688 500 668 L 435 566 C 412 583 388 597 362 609 C 336 621 310 627 282 627 C 250 627 224 619 206 605 C 187 590 178 571 178 549 C 178 522 189 500 211 483 C 233 466 274 445 332 421 C 400 393 449 362 480 328 C 511 294 527 250 527 194 C 527 161 520 132 507 106 C 494 80 477 59 455 42 C 433 24 408 11 380 2 C 351 -7 321 -12 290 -12 Z M 280 788 L 280 788 Z M 157 788 L 260 949 L 404 949 L 278 788 L 157 788 Z" unicode="Ś" />
<glyph horiz-adv-x="463" d="M 30 0 L 30 0 Z M 248 -12 C 200 -12 158 -6 122 5 C 85 17 54 32 30 52 L 85 133 C 105 118 130 106 160 98 C 190 89 218 85 245 85 C 266 85 283 90 297 100 C 310 110 317 122 317 137 C 317 151 308 164 291 175 C 273 185 245 196 205 207 C 153 221 113 240 87 265 C 60 290 47 323 47 363 C 47 405 64 440 100 466 C 136 492 181 506 235 506 C 279 506 318 500 350 488 C 382 476 406 463 422 451 L 374 367 C 355 378 334 388 312 397 C 289 406 265 411 240 411 C 220 411 202 407 187 400 C 171 393 164 382 164 368 C 164 354 170 343 182 335 C 194 327 222 316 267 303 C 320 287 361 268 390 245 C 418 221 433 188 433 145 C 433 97 415 58 381 30 C 346 2 302 -12 248 -12 Z M 238 552 L 238 552 Z M 115 552 L 218 713 L 362 713 L 236 552 L 115 552 Z" unicode="ś" />
<glyph horiz-adv-x="563" d="M 28 0 L 28 0 Z M 290 -12 C 232 -12 181 -4 137 12 C 93 28 56 50 28 78 L 104 177 C 122 155 148 137 182 122 C 215 106 251 99 289 99 C 320 99 346 106 368 122 C 389 138 400 159 400 186 C 400 212 389 234 368 253 C 347 271 313 291 265 311 C 197 338 144 369 108 403 C 71 437 53 486 53 550 C 53 607 74 653 116 689 C 158 724 213 742 281 742 C 329 742 370 734 406 720 C 442 706 473 688 500 668 L 435 566 C 412 583 388 597 362 609 C 336 621 310 627 282 627 C 250 627 224 619 206 605 C 187 590 178 571 178 549 C 178 522 189 500 211 483 C 233 466 274 445 332 421 C 400 393 449 362 480 328 C 511 294 527 250 527 194 C 527 161 520 132 507 106 C 494 80 477 59 455 42 C 433 24 408 11 380 2 C 351 -7 321 -12 290 -12 Z M 280 784 L 280 784 Z M 465 784 L 354 784 L 280 881 L 205 784 L 96 784 L 219 957 L 342 957 L 465 784 Z" unicode="Ŝ" />
<glyph horiz-adv-x="463" d="M 30 0 L 30 0 Z M 248 -12 C 200 -12 158 -6 122 5 C 85 17 54 32 30 52 L 85 133 C 105 118 130 106 160 98 C 190 89 218 85 245 85 C 266 85 283 90 297 100 C 310 110 317 122 317 137 C 317 151 308 164 291 175 C 273 185 245 196 205 207 C 153 221 113 240 87 265 C 60 290 47 323 47 363 C 47 405 64 440 100 466 C 136 492 181 506 235 506 C 279 506 318 500 350 488 C 382 476 406 463 422 451 L 374 367 C 355 378 334 388 312 397 C 289 406 265 411 240 411 C 220 411 202 407 187 400 C 171 393 164 382 164 368 C 164 354 170 343 182 335 C 194 327 222 316 267 303 C 320 287 361 268 390 245 C 418 221 433 188 433 145 C 433 97 415 58 381 30 C 346 2 302 -12 248 -12 Z M 238 548 L 238 548 Z M 423 548 L 312 548 L 238 645 L 163 548 L 54 548 L 177 721 L 300 721 L 423 548 Z" unicode="ŝ" />
<glyph horiz-adv-x="563" d="M 28 0 L 28 0 Z M 290 -12 C 232 -12 181 -4 137 12 C 93 28 56 50 28 78 L 104 177 C 122 155 148 137 182 122 C 215 106 251 99 289 99 C 320 99 346 106 368 122 C 389 138 400 159 400 186 C 400 212 389 234 368 253 C 347 271 313 291 265 311 C 197 338 144 369 108 403 C 71 437 53 486 53 550 C 53 607 74 653 116 689 C 158 724 213 742 281 742 C 329 742 370 734 406 720 C 442 706 473 688 500 668 L 435 566 C 412 583 388 597 362 609 C 336 621 310 627 282 627 C 250 627 224 619 206 605 C 187 590 178 571 178 549 C 178 522 189 500 211 483 C 233 466 274 445 332 421 C 400 393 449 362 480 328 C 511 294 527 250 527 194 C 527 161 520 132 507 106 C 494 80 477 59 455 42 C 433 24 408 11 380 2 C 351 -7 321 -12 290 -12 Z M 272 -4 L 272 -4 Z M 281 -195 C 255 -195 229 -192 203 -186 C 176 -180 156 -172 142 -163 L 157 -111 C 165 -115 177 -120 193 -124 C 208 -128 224 -131 241 -131 C 253 -131 263 -128 273 -123 C 282 -117 287 -110 287 -102 C 287 -91 282 -84 274 -80 C 266 -76 257 -74 248 -74 C 241 -74 235 -74 230 -75 C 225 -76 220 -77 214 -79 L 198 -62 L 259 10 L 333 10 L 284 -50 C 318 -44 346 -48 368 -61 C 390 -74 402 -93 402 -118 C 402 -144 389 -163 365 -176 C 340 -188 312 -195 281 -195 Z" unicode="Ş" />
<glyph horiz-adv-x="463" d="M 30 0 L 30 0 Z M 248 -12 C 200 -12 158 -6 122 5 C 85 17 54 32 30 52 L 85 133 C 105 118 130 106 160 98 C 190 89 218 85 245 85 C 266 85 283 90 297 100 C 310 110 317 122 317 137 C 317 151 308 164 291 175 C 273 185 245 196 205 207 C 153 221 113 240 87 265 C 60 290 47 323 47 363 C 47 405 64 440 100 466 C 136 492 181 506 235 506 C 279 506 318 500 350 488 C 382 476 406 463 422 451 L 374 367 C 355 378 334 388 312 397 C 289 406 265 411 240 411 C 220 411 202 407 187 400 C 171 393 164 382 164 368 C 164 354 170 343 182 335 C 194 327 222 316 267 303 C 320 287 361 268 390 245 C 418 221 433 188 433 145 C 433 97 415 58 381 30 C 346 2 302 -12 248 -12 Z M 226 0 L 226 0 Z M 235 -191 C 209 -191 183 -188 157 -182 C 130 -176 110 -168 96 -159 L 111 -107 C 119 -111 131 -116 147 -120 C 162 -124 178 -127 195 -127 C 207 -127 217 -124 227 -119 C 236 -113 241 -106 241 -98 C 241 -87 236 -80 228 -76 C 220 -72 211 -70 202 -70 C 195 -70 189 -70 184 -71 C 179 -72 174 -73 168 -75 L 152 -58 L 213 14 L 287 14 L 238 -46 C 272 -40 300 -44 322 -57 C 344 -70 356 -89 356 -114 C 356 -140 343 -159 319 -172 C 294 -184 266 -191 235 -191 Z" unicode="ş" />
<glyph horiz-adv-x="563" d="M 28 0 L 28 0 Z M 290 -12 C 232 -12 181 -4 137 12 C 93 28 56 50 28 78 L 104 177 C 122 155 148 137 182 122 C 215 106 251 99 289 99 C 320 99 346 106 368 122 C 389 138 400 159 400 186 C 400 212 389 234 368 253 C 347 271 313 291 265 311 C 197 338 144 369 108 403 C 71 437 53 486 53 550 C 53 607 74 653 116 689 C 158 724 213 742 281 742 C 329 742 370 734 406 720 C 442 706 473 688 500 668 L 435 566 C 412 583 388 597 362 609 C 336 621 310 627 282 627 C 250 627 224 619 206 605 C 187 590 178 571 178 549 C 178 522 189 500 211 483 C 233 466 274 445 332 421 C 400 393 449 362 480 328 C 511 294 527 250 527 194 C 527 161 520 132 507 106 C 494 80 477 59 455 42 C 433 24 408 11 380 2 C 351 -7 321 -12 290 -12 Z M 280 784 L 280 784 Z M 96 957 L 207 957 L 281 861 L 356 957 L 465 957 L 342 784 L 219 784 L 96 957 Z" unicode="Š" />
<glyph horiz-adv-x="463" d="M 30 0 L 30 0 Z M 248 -12 C 200 -12 158 -6 122 5 C 85 17 54 32 30 52 L 85 133 C 105 118 130 106 160 98 C 190 89 218 85 245 85 C 266 85 283 90 297 100 C 310 110 317 122 317 137 C 317 151 308 164 291 175 C 273 185 245 196 205 207 C 153 221 113 240 87 265 C 60 290 47 323 47 363 C 47 405 64 440 100 466 C 136 492 181 506 235 506 C 279 506 318 500 350 488 C 382 476 406 463 422 451 L 374 367 C 355 378 334 388 312 397 C 289 406 265 411 240 411 C 220 411 202 407 187 400 C 171 393 164 382 164 368 C 164 354 170 343 182 335 C 194 327 222 316 267 303 C 320 287 361 268 390 245 C 418 221 433 188 433 145 C 433 97 415 58 381 30 C 346 2 302 -12 248 -12 Z M 238 548 L 238 548 Z M 54 721 L 165 721 L 239 625 L 314 721 L 423 721 L 300 548 L 177 548 L 54 721 Z" unicode="š" />
<glyph horiz-adv-x="563" d="M 10 0 L 10 0 Z M 553 617 L 343 617 L 343 0 L 213 0 L 213 617 L 10 617 L 10 730 L 553 730 L 553 617 Z M 280 784 L 280 784 Z M 96 957 L 207 957 L 281 861 L 356 957 L 465 957 L 342 784 L 219 784 L 96 957 Z" unicode="Ť" />
<glyph horiz-adv-x="340" d="M 9 0 L 9 0 Z M 320 110 L 330 11 C 322 5 309 1 293 -1 C 276 -4 259 -6 242 -6 C 220 -6 200 -3 180 2 C 160 8 142 17 127 29 C 111 41 99 58 90 78 C 81 98 77 122 77 150 L 77 392 L 9 392 L 9 494 L 77 494 L 77 616 L 197 631 L 197 494 L 313 494 L 313 392 L 197 392 L 197 168 C 197 143 202 125 213 114 C 224 103 241 98 264 98 C 274 98 285 99 296 102 C 307 105 315 108 320 110 Z M 433 608 L 428 453 L 326 453 L 320 608 L 320 730 L 433 730 L 433 608 Z" unicode="ť" />
<glyph horiz-adv-x="563" d="M 477 416 L 343 416 L 343 0 L 213 0 L 213 416 L 80 416 L 80 510 L 213 510 L 213 617 L 10 617 L 10 730 L 553 730 L 553 617 L 343 617 L 343 510 L 477 510 L 477 416 Z" unicode="Ŧ" />
<glyph horiz-adv-x="340" d="M 330 11 C 322 5 309 1 293 -1 C 276 -4 259 -6 242 -6 C 220 -6 200 -3 180 2 C 160 8 142 17 127 29 C 111 41 99 58 90 78 C 81 98 77 122 77 150 L 77 242 L 18 242 L 18 333 L 77 333 L 77 392 L 9 392 L 9 494 L 77 494 L 77 616 L 197 631 L 197 494 L 313 494 L 313 392 L 197 392 L 197 333 L 294 333 L 294 242 L 197 242 L 197 168 C 197 143 202 125 213 114 C 224 103 241 98 264 98 C 274 98 285 99 296 102 C 307 105 315 108 320 110 L 330 11 Z" unicode="ŧ" />
<glyph horiz-adv-x="759" d="M 85 0 L 85 0 Z M 675 730 L 675 266 C 675 222 667 183 651 149 C 635 114 614 85 588 61 C 561 37 530 19 494 7 C 458 -5 419 -12 379 -12 C 339 -12 301 -6 265 6 C 229 18 198 35 172 59 C 145 83 124 112 108 147 C 92 181 85 221 85 266 L 85 730 L 211 730 L 211 265 C 211 216 227 177 259 148 C 291 118 331 104 378 104 C 424 104 464 118 498 147 C 531 175 548 215 548 265 L 548 730 L 675 730 Z M 379 788 L 379 788 Z M 463 935 L 556 935 C 556 885 548 848 533 824 C 517 800 497 788 471 788 C 452 788 436 791 422 798 C 408 804 395 811 385 818 C 375 824 365 830 356 836 C 347 842 338 846 330 846 C 321 846 314 841 308 831 C 302 821 299 808 299 792 L 206 792 C 206 841 216 878 237 902 C 258 926 280 939 303 939 C 319 939 334 935 347 929 C 359 923 371 916 382 908 C 390 901 399 895 407 890 C 415 884 424 882 432 882 C 440 882 447 886 453 896 C 459 905 462 918 463 935 Z" unicode="Ũ" />
<glyph horiz-adv-x="594" d="M 64 0 L 64 0 Z M 64 494 L 184 494 L 184 185 C 184 152 193 128 213 112 C 233 96 258 89 290 89 C 322 89 349 98 371 117 C 393 136 404 162 404 196 L 404 494 L 524 494 L 524 0 L 411 0 L 411 86 C 399 59 378 36 348 18 C 318 0 282 -10 240 -10 C 191 -10 149 4 115 32 C 81 60 64 100 64 154 L 64 494 Z M 294 552 L 294 552 Z M 378 699 L 471 699 C 471 649 463 612 448 588 C 432 564 412 552 386 552 C 367 552 351 555 337 562 C 323 568 310 575 300 582 C 290 588 280 594 271 600 C 262 606 253 610 245 610 C 236 610 229 605 223 595 C 217 585 214 572 214 556 L 121 556 C 121 605 131 642 152 666 C 173 690 195 703 218 703 C 234 703 249 699 262 693 C 274 687 286 680 297 672 C 305 665 314 659 322 654 C 330 648 339 646 347 646 C 355 646 362 650 368 660 C 374 669 377 682 378 699 Z" unicode="ũ" />
<glyph horiz-adv-x="759" d="M 85 0 L 85 0 Z M 675 730 L 675 266 C 675 222 667 183 651 149 C 635 114 614 85 588 61 C 561 37 530 19 494 7 C 458 -5 419 -12 379 -12 C 339 -12 301 -6 265 6 C 229 18 198 35 172 59 C 145 83 124 112 108 147 C 92 181 85 221 85 266 L 85 730 L 211 730 L 211 265 C 211 216 227 177 259 148 C 291 118 331 104 378 104 C 424 104 464 118 498 147 C 531 175 548 215 548 265 L 548 730 L 675 730 Z M 379 796 L 379 796 Z M 518 796 L 240 796 L 240 890 L 518 890 L 518 796 Z" unicode="Ū" />
<glyph horiz-adv-x="594" d="M 64 0 L 64 0 Z M 64 494 L 184 494 L 184 185 C 184 152 193 128 213 112 C 233 96 258 89 290 89 C 322 89 349 98 371 117 C 393 136 404 162 404 196 L 404 494 L 524 494 L 524 0 L 411 0 L 411 86 C 399 59 378 36 348 18 C 318 0 282 -10 240 -10 C 191 -10 149 4 115 32 C 81 60 64 100 64 154 L 64 494 Z M 294 560 L 294 560 Z M 433 560 L 155 560 L 155 654 L 433 654 L 433 560 Z" unicode="ū" />
<glyph horiz-adv-x="759" d="M 85 0 L 85 0 Z M 675 730 L 675 266 C 675 222 667 183 651 149 C 635 114 614 85 588 61 C 561 37 530 19 494 7 C 458 -5 419 -12 379 -12 C 339 -12 301 -6 265 6 C 229 18 198 35 172 59 C 145 83 124 112 108 147 C 92 181 85 221 85 266 L 85 730 L 211 730 L 211 265 C 211 216 227 177 259 148 C 291 118 331 104 378 104 C 424 104 464 118 498 147 C 531 175 548 215 548 265 L 548 730 L 675 730 Z M 379 786 L 379 786 Z M 446 946 L 547 946 C 542 890 524 850 494 824 C 463 798 425 786 379 786 C 333 786 294 798 264 824 C 233 850 215 890 211 946 L 312 946 C 313 918 319 897 329 881 C 339 865 356 857 379 857 C 401 857 418 864 429 880 C 439 895 445 917 446 946 Z" unicode="Ŭ" />
<glyph horiz-adv-x="594" d="M 64 0 L 64 0 Z M 64 494 L 184 494 L 184 185 C 184 152 193 128 213 112 C 233 96 258 89 290 89 C 322 89 349 98 371 117 C 393 136 404 162 404 196 L 404 494 L 524 494 L 524 0 L 411 0 L 411 86 C 399 59 378 36 348 18 C 318 0 282 -10 240 -10 C 191 -10 149 4 115 32 C 81 60 64 100 64 154 L 64 494 Z M 294 550 L 294 550 Z M 361 710 L 462 710 C 457 654 439 614 409 588 C 378 562 340 550 294 550 C 248 550 209 562 179 588 C 148 614 130 654 126 710 L 227 710 C 228 682 234 661 244 645 C 254 629 271 621 294 621 C 316 621 333 628 344 644 C 354 659 360 681 361 710 Z" unicode="ŭ" />
<glyph horiz-adv-x="759" d="M 85 0 L 85 0 Z M 675 730 L 675 266 C 675 222 667 183 651 149 C 635 114 614 85 588 61 C 561 37 530 19 494 7 C 458 -5 419 -12 379 -12 C 339 -12 301 -6 265 6 C 229 18 198 35 172 59 C 145 83 124 112 108 147 C 92 181 85 221 85 266 L 85 730 L 211 730 L 211 265 C 211 216 227 177 259 148 C 291 118 331 104 378 104 C 424 104 464 118 498 147 C 531 175 548 215 548 265 L 548 730 L 675 730 Z M 379 782 L 379 782 Z M 379 782 C 345 782 316 793 292 817 C 268 841 257 870 257 904 C 257 937 268 965 292 989 C 316 1012 345 1024 379 1024 C 413 1024 441 1012 465 989 C 489 965 501 937 501 904 C 501 870 489 841 465 817 C 441 793 413 782 379 782 Z M 379 851 C 393 851 405 856 415 866 C 425 876 430 888 430 903 C 430 917 425 930 415 940 C 405 950 393 956 379 956 C 364 956 352 950 342 940 C 332 930 327 917 327 903 C 327 888 332 876 342 866 C 352 856 364 851 379 851 Z" unicode="Ů" />
<glyph horiz-adv-x="594" d="M 64 0 L 64 0 Z M 64 494 L 184 494 L 184 185 C 184 152 193 128 213 112 C 233 96 258 89 290 89 C 322 89 349 98 371 117 C 393 136 404 162 404 196 L 404 494 L 524 494 L 524 0 L 411 0 L 411 86 C 399 59 378 36 348 18 C 318 0 282 -10 240 -10 C 191 -10 149 4 115 32 C 81 60 64 100 64 154 L 64 494 Z M 294 546 L 294 546 Z M 294 546 C 260 546 231 557 207 581 C 183 605 172 634 172 668 C 172 701 183 729 207 753 C 231 776 260 788 294 788 C 328 788 356 776 380 753 C 404 729 416 701 416 668 C 416 634 404 605 380 581 C 356 557 328 546 294 546 Z M 294 615 C 308 615 320 620 330 630 C 340 640 345 652 345 667 C 345 681 340 694 330 704 C 320 714 308 720 294 720 C 279 720 267 714 257 704 C 247 694 242 681 242 667 C 242 652 247 640 257 630 C 267 620 279 615 294 615 Z" unicode="ů" />
<glyph horiz-adv-x="759" d="M 85 0 L 85 0 Z M 675 730 L 675 266 C 675 222 667 183 651 149 C 635 114 614 85 588 61 C 561 37 530 19 494 7 C 458 -5 419 -12 379 -12 C 339 -12 301 -6 265 6 C 229 18 198 35 172 59 C 145 83 124 112 108 147 C 92 181 85 221 85 266 L 85 730 L 211 730 L 211 265 C 211 216 227 177 259 148 C 291 118 331 104 378 104 C 424 104 464 118 498 147 C 531 175 548 215 548 265 L 548 730 L 675 730 Z M 379 784 L 379 784 Z M 166 784 L 262 935 L 389 935 L 272 784 L 166 784 Z M 368 784 L 465 935 L 592 935 L 474 784 L 368 784 Z" unicode="Ű" />
<glyph horiz-adv-x="594" d="M 64 0 L 64 0 Z M 64 494 L 184 494 L 184 185 C 184 152 193 128 213 112 C 233 96 258 89 290 89 C 322 89 349 98 371 117 C 393 136 404 162 404 196 L 404 494 L 524 494 L 524 0 L 411 0 L 411 86 C 399 59 378 36 348 18 C 318 0 282 -10 240 -10 C 191 -10 149 4 115 32 C 81 60 64 100 64 154 L 64 494 Z M 294 548 L 294 548 Z M 81 548 L 177 699 L 304 699 L 187 548 L 81 548 Z M 283 548 L 380 699 L 507 699 L 389 548 L 283 548 Z" unicode="ű" />
<glyph horiz-adv-x="759" d="M 85 0 L 85 0 Z M 675 730 L 675 266 C 675 222 667 183 651 149 C 635 114 614 85 588 61 C 561 37 530 19 494 7 C 458 -5 419 -12 379 -12 C 339 -12 301 -6 265 6 C 229 18 198 35 172 59 C 145 83 124 112 108 147 C 92 181 85 221 85 266 L 85 730 L 211 730 L 211 265 C 211 216 227 177 259 148 C 291 118 331 104 378 104 C 424 104 464 118 498 147 C 531 175 548 215 548 265 L 548 730 L 675 730 Z M 436 -6 L 436 -6 Z M 538 -82 L 571 -132 C 549 -154 526 -170 501 -181 C 475 -192 447 -198 415 -198 C 379 -198 352 -190 332 -176 C 312 -161 302 -142 302 -120 C 302 -96 312 -73 334 -51 C 356 -29 385 -11 422 4 L 481 4 C 457 -8 438 -20 424 -33 C 410 -46 404 -59 404 -72 C 404 -83 408 -92 418 -99 C 428 -106 440 -110 455 -110 C 473 -110 489 -107 503 -102 C 517 -96 528 -90 538 -82 Z" unicode="Ų" />
<glyph horiz-adv-x="594" d="M 64 0 L 64 0 Z M 64 494 L 184 494 L 184 185 C 184 152 193 128 213 112 C 233 96 258 89 290 89 C 322 89 349 98 371 117 C 393 136 404 162 404 196 L 404 494 L 524 494 L 524 0 L 411 0 L 411 86 C 399 59 378 36 348 18 C 318 0 282 -10 240 -10 C 191 -10 149 4 115 32 C 81 60 64 100 64 154 L 64 494 Z M 435 -6 L 435 -6 Z M 537 -82 L 570 -132 C 548 -154 525 -170 500 -181 C 474 -192 446 -198 414 -198 C 378 -198 351 -190 331 -176 C 311 -161 301 -142 301 -120 C 301 -96 311 -73 333 -51 C 355 -29 384 -11 421 4 L 480 4 C 456 -8 437 -20 423 -33 C 409 -46 403 -59 403 -72 C 403 -83 407 -92 417 -99 C 427 -106 439 -110 454 -110 C 472 -110 488 -107 502 -102 C 516 -96 527 -90 537 -82 Z" unicode="ų" />
<glyph horiz-adv-x="937" d="M 5 0 L 5 0 Z M 932 730 L 703 -6 L 633 -6 L 470 502 L 299 -6 L 229 -6 L 5 730 L 137 730 L 279 247 L 439 730 L 510 730 L 670 246 L 811 730 L 932 730 Z M 472 784 L 472 784 Z M 657 784 L 546 784 L 472 881 L 397 784 L 288 784 L 411 957 L 534 957 L 657 784 Z" unicode="Ŵ" />
<glyph horiz-adv-x="736" d="M 3 0 L 3 0 Z M 488 -3 L 373 290 L 248 -3 L 180 -3 L 3 494 L 128 494 L 232 178 L 344 457 L 413 457 L 518 179 L 622 494 L 733 494 L 556 -3 L 488 -3 Z M 375 548 L 375 548 Z M 560 548 L 449 548 L 375 645 L 300 548 L 191 548 L 314 721 L 437 721 L 560 548 Z" unicode="ŵ" />
<glyph horiz-adv-x="652" d="M 0 0 L 0 0 Z M 676 730 L 399 310 L 399 0 L 269 0 L 269 316 L -2 730 L 144 730 L 340 430 L 538 730 L 676 730 Z M 339 784 L 339 784 Z M 524 784 L 413 784 L 339 881 L 264 784 L 155 784 L 278 957 L 401 957 L 524 784 Z" unicode="Ŷ" />
<glyph horiz-adv-x="534" d="M 0 0 L 0 0 Z M 538 494 L 263 -79 C 239 -127 211 -159 177 -175 C 143 -191 112 -200 82 -200 C 64 -200 49 -198 37 -194 C 24 -190 15 -188 10 -186 L 44 -81 C 47 -83 53 -85 61 -87 C 69 -89 78 -91 87 -91 C 103 -91 118 -86 130 -76 C 142 -66 155 -49 168 -25 L 205 47 L -5 494 L 126 494 L 268 173 L 414 494 L 538 494 Z M 268 548 L 268 548 Z M 453 548 L 342 548 L 268 645 L 193 548 L 84 548 L 207 721 L 330 721 L 453 548 Z" unicode="ŷ" />
<glyph horiz-adv-x="674" d="M 0 0 L 0 0 Z M 676 730 L 399 310 L 399 0 L 269 0 L 269 316 L -2 730 L 144 730 L 340 430 L 538 730 L 676 730 Z M 339 784 L 339 784 Z M 487 784 L 385 784 L 385 945 L 487 945 L 487 784 Z M 293 784 L 191 784 L 191 945 L 293 945 L 293 784 Z" unicode="Ÿ" />
<glyph horiz-adv-x="586" d="M 17 0 L 17 0 Z M 566 730 L 566 677 L 193 112 L 577 112 L 577 0 L 17 0 L 17 50 L 385 617 L 41 617 L 41 730 L 566 730 Z M 298 788 L 298 788 Z M 175 788 L 278 949 L 422 949 L 296 788 L 175 788 Z" unicode="Ź" />
<glyph horiz-adv-x="450" d="M 14 0 L 14 0 Z M 427 494 L 427 439 L 190 104 L 439 104 L 439 0 L 14 0 L 14 44 L 257 390 L 25 390 L 25 494 L 427 494 Z M 230 552 L 230 552 Z M 107 552 L 210 713 L 354 713 L 228 552 L 107 552 Z" unicode="ź" />
<glyph horiz-adv-x="586" d="M 17 0 L 17 0 Z M 566 730 L 566 677 L 193 112 L 577 112 L 577 0 L 17 0 L 17 50 L 385 617 L 41 617 L 41 730 L 566 730 Z M 298 784 L 298 784 Z M 353 784 L 244 784 L 244 949 L 353 949 L 353 784 Z" unicode="Ż" />
<glyph horiz-adv-x="450" d="M 14 0 L 14 0 Z M 427 494 L 427 439 L 190 104 L 439 104 L 439 0 L 14 0 L 14 44 L 257 390 L 25 390 L 25 494 L 427 494 Z M 230 548 L 230 548 Z M 285 548 L 176 548 L 176 713 L 285 713 L 285 548 Z" unicode="ż" />
<glyph horiz-adv-x="602" d="M 17 0 L 17 0 Z M 566 730 L 566 677 L 193 112 L 577 112 L 577 0 L 17 0 L 17 50 L 385 617 L 41 617 L 41 730 L 566 730 Z M 298 784 L 298 784 Z M 114 957 L 225 957 L 299 861 L 374 957 L 483 957 L 360 784 L 237 784 L 114 957 Z" unicode="Ž" />
<glyph horiz-adv-x="450" d="M 14 0 L 14 0 Z M 427 494 L 427 439 L 190 104 L 439 104 L 439 0 L 14 0 L 14 44 L 257 390 L 25 390 L 25 494 L 427 494 Z" unicode="ž" />
<glyph horiz-adv-x="380" d="M 201 -52 C 199 -68 195 -83 189 -99 C 182 -114 173 -127 162 -139 C 150 -151 137 -160 121 -168 C 105 -175 88 -179 70 -179 C 49 -179 29 -177 11 -173 C -7 -169 -22 -165 -32 -161 L -20 -76 C -15 -76 -8 -78 1 -80 C 10 -82 19 -83 28 -83 C 47 -83 63 -76 75 -64 C 87 -51 95 -33 98 -9 L 128 323 L 35 323 L 35 419 L 136 419 L 154 620 C 156 640 161 658 170 674 C 178 689 189 702 202 712 C 214 722 228 730 244 735 C 259 740 274 743 288 743 C 302 743 317 742 332 741 C 347 740 356 739 359 739 L 350 636 C 348 636 344 637 338 638 C 332 638 326 639 320 639 C 301 639 286 632 274 620 C 262 607 256 587 254 561 L 242 419 L 343 419 L 343 323 L 233 323 L 201 -52 Z" unicode="ƒ" />
<glyph horiz-adv-x="563" d="M 28 0 L 28 0 Z M 290 -12 C 232 -12 181 -4 137 12 C 93 28 56 50 28 78 L 104 177 C 122 155 148 137 182 122 C 215 106 251 99 289 99 C 320 99 346 106 368 122 C 389 138 400 159 400 186 C 400 212 389 234 368 253 C 347 271 313 291 265 311 C 197 338 144 369 108 403 C 71 437 53 486 53 550 C 53 607 74 653 116 689 C 158 724 213 742 281 742 C 329 742 370 734 406 720 C 442 706 473 688 500 668 L 435 566 C 412 583 388 597 362 609 C 336 621 310 627 282 627 C 250 627 224 619 206 605 C 187 590 178 571 178 549 C 178 522 189 500 211 483 C 233 466 274 445 332 421 C 400 393 449 362 480 328 C 511 294 527 250 527 194 C 527 161 520 132 507 106 C 494 80 477 59 455 42 C 433 24 408 11 380 2 C 351 -7 321 -12 290 -12 Z M 272 -72 L 272 -72 Z M 377 -72 C 375 -100 370 -128 362 -157 C 354 -186 344 -213 333 -238 C 321 -263 309 -285 295 -305 C 281 -324 268 -338 256 -348 L 167 -307 C 174 -298 182 -285 191 -269 C 200 -252 209 -233 217 -212 C 225 -190 232 -167 239 -143 C 245 -119 250 -95 253 -72 L 377 -72 Z" unicode="Ș" />
<glyph horiz-adv-x="463" d="M 30 0 L 30 0 Z M 248 -12 C 200 -12 158 -6 122 5 C 85 17 54 32 30 52 L 85 133 C 105 118 130 106 160 98 C 190 89 218 85 245 85 C 266 85 283 90 297 100 C 310 110 317 122 317 137 C 317 151 308 164 291 175 C 273 185 245 196 205 207 C 153 221 113 240 87 265 C 60 290 47 323 47 363 C 47 405 64 440 100 466 C 136 492 181 506 235 506 C 279 506 318 500 350 488 C 382 476 406 463 422 451 L 374 367 C 355 378 334 388 312 397 C 289 406 265 411 240 411 C 220 411 202 407 187 400 C 171 393 164 382 164 368 C 164 354 170 343 182 335 C 194 327 222 316 267 303 C 320 287 361 268 390 245 C 418 221 433 188 433 145 C 433 97 415 58 381 30 C 346 2 302 -12 248 -12 Z M 226 -68 L 226 -68 Z M 331 -68 C 329 -96 324 -124 316 -153 C 308 -182 298 -209 287 -234 C 275 -259 263 -281 249 -301 C 235 -320 222 -334 210 -344 L 121 -303 C 128 -294 136 -281 145 -265 C 154 -248 163 -229 171 -208 C 179 -186 186 -163 193 -139 C 199 -115 204 -91 207 -68 L 331 -68 Z" unicode="ș" />
<glyph horiz-adv-x="563" d="M 10 0 L 10 0 Z M 553 617 L 343 617 L 343 0 L 213 0 L 213 617 L 10 617 L 10 730 L 553 730 L 553 617 Z M 251 -68 L 251 -68 Z M 356 -68 C 354 -96 349 -124 341 -153 C 333 -182 323 -209 312 -234 C 300 -259 288 -281 274 -301 C 260 -320 247 -334 235 -344 L 146 -303 C 153 -294 161 -281 170 -265 C 179 -248 188 -229 196 -208 C 204 -186 211 -163 218 -139 C 224 -115 229 -91 232 -68 L 356 -68 Z" unicode="Ț" />
<glyph horiz-adv-x="340" d="M 9 0 L 9 0 Z M 320 110 L 330 11 C 322 5 309 1 293 -1 C 276 -4 259 -6 242 -6 C 220 -6 200 -3 180 2 C 160 8 142 17 127 29 C 111 41 99 58 90 78 C 81 98 77 122 77 150 L 77 392 L 9 392 L 9 494 L 77 494 L 77 616 L 197 631 L 197 494 L 313 494 L 313 392 L 197 392 L 197 168 C 197 143 202 125 213 114 C 224 103 241 98 264 98 C 274 98 285 99 296 102 C 307 105 315 108 320 110 Z M 163 -68 L 163 -68 Z M 268 -68 C 266 -96 261 -124 253 -153 C 245 -182 235 -209 224 -234 C 212 -259 200 -281 186 -301 C 172 -320 159 -334 147 -344 L 58 -303 C 65 -294 73 -281 82 -265 C 91 -248 100 -229 108 -208 C 116 -186 123 -163 130 -139 C 136 -115 141 -91 144 -68 L 268 -68 Z" unicode="ț" />
<glyph horiz-adv-x="284" d="M 218 494 L 218 -28 C 218 -80 203 -122 174 -154 C 144 -186 105 -202 55 -202 C 37 -202 17 -200 -5 -196 C -27 -192 -45 -187 -59 -181 L -42 -86 C -33 -90 -22 -93 -9 -96 C 3 -98 17 -100 32 -100 C 51 -100 67 -92 79 -76 C 91 -60 97 -39 97 -13 L 97 494 L 218 494 Z" unicode="ȷ" />
<glyph horiz-adv-x="500" d="M 435 548 L 324 548 L 250 645 L 175 548 L 66 548 L 189 721 L 312 721 L 435 548 Z" unicode="ˆ" />
<glyph horiz-adv-x="500" d="M 66 721 L 177 721 L 251 625 L 326 721 L 435 721 L 312 548 L 189 548 L 66 721 Z" unicode="ˇ" />
<glyph horiz-adv-x="500" d="M 317 710 L 418 710 C 413 654 395 614 365 588 C 334 562 296 550 250 550 C 204 550 165 562 135 588 C 104 614 86 654 82 710 L 183 710 C 184 682 190 661 200 645 C 210 629 227 621 250 621 C 272 621 289 628 300 644 C 310 659 316 681 317 710 Z" unicode="˘" />
<glyph horiz-adv-x="500" d="M 305 548 L 196 548 L 196 713 L 305 713 L 305 548 Z" unicode="˙" />
<glyph horiz-adv-x="509" d="M 255 546 C 221 546 192 557 168 581 C 144 605 133 634 133 668 C 133 701 144 729 168 753 C 192 776 221 788 255 788 C 289 788 317 776 341 753 C 365 729 377 701 377 668 C 377 634 365 605 341 581 C 317 557 289 546 255 546 Z M 255 615 C 269 615 281 620 291 630 C 301 640 306 652 306 667 C 306 681 301 694 291 704 C 281 714 269 720 255 720 C 240 720 228 714 218 704 C 208 694 203 681 203 667 C 203 652 208 640 218 630 C 228 620 240 615 255 615 Z" unicode="˚" />
<glyph horiz-adv-x="500" d="M 361 -76 L 394 -126 C 372 -148 349 -164 324 -175 C 298 -186 270 -192 238 -192 C 202 -192 175 -184 155 -170 C 135 -155 125 -136 125 -114 C 125 -90 135 -67 157 -45 C 179 -23 208 -5 245 10 L 304 10 C 280 -2 261 -14 247 -27 C 233 -40 227 -53 227 -66 C 227 -77 231 -86 241 -93 C 251 -100 263 -104 278 -104 C 296 -104 312 -101 326 -96 C 340 -90 351 -84 361 -76 Z" unicode="˛" />
<glyph horiz-adv-x="500" d="M 337 699 L 430 699 C 430 649 422 612 407 588 C 391 564 371 552 345 552 C 326 552 310 555 296 562 C 282 568 269 575 259 582 C 249 588 239 594 230 600 C 221 606 212 610 204 610 C 195 610 188 605 182 595 C 176 585 173 572 173 556 L 80 556 C 80 605 90 642 111 666 C 132 690 154 703 177 703 C 193 703 208 699 221 693 C 233 687 245 680 256 672 C 264 665 273 659 281 654 C 289 648 298 646 306 646 C 314 646 321 650 327 660 C 333 669 336 682 337 699 Z" unicode="˜" />
<glyph horiz-adv-x="500" d="M 53 548 L 149 699 L 276 699 L 159 548 L 53 548 Z M 255 548 L 352 699 L 479 699 L 361 548 L 255 548 Z" unicode="˝" />
<glyph horiz-adv-x="0" d="M 0 548 L 0 548 Z M 124 548 L 2 548 L -124 709 L 19 709 L 124 548 Z" unicode="̀" />
<glyph horiz-adv-x="0" d="M 0 552 L 0 552 Z M -123 552 L -20 713 L 124 713 L -2 552 L -123 552 Z" unicode="́" />
<glyph horiz-adv-x="0" d="M 0 548 L 0 548 Z M 185 548 L 74 548 L 0 645 L -75 548 L -184 548 L -61 721 L 62 721 L 185 548 Z" unicode="̂" />
<glyph horiz-adv-x="0" d="M 0 552 L 0 552 Z M 84 699 L 177 699 C 177 649 169 612 154 588 C 138 564 118 552 92 552 C 73 552 57 555 43 562 C 29 568 16 575 6 582 C -4 588 -13 594 -22 600 C -31 606 -40 610 -49 610 C -57 610 -65 605 -71 595 C -77 585 -80 572 -80 556 L -173 556 C -173 605 -162 642 -141 666 C -120 690 -98 703 -76 703 C -59 703 -44 699 -32 693 C -19 687 -7 680 3 672 C 11 665 20 659 28 654 C 36 648 45 646 53 646 C 61 646 68 650 74 660 C 80 669 83 682 84 699 Z" unicode="̃" />
<glyph horiz-adv-x="0" d="M 0 560 L 0 560 Z M 139 560 L -139 560 L -139 654 L 139 654 L 139 560 Z" unicode="̄" />
<glyph horiz-adv-x="0" d="M 0 550 L 0 550 Z M 67 710 L 168 710 C 163 654 145 614 115 588 C 84 562 46 550 0 550 C -46 550 -84 562 -115 588 C -145 614 -163 654 -168 710 L -67 710 C -65 682 -59 661 -49 645 C -39 629 -22 621 0 621 C 22 621 39 628 50 644 C 60 659 66 681 67 710 Z" unicode="̆" />
<glyph horiz-adv-x="0" d="M 0 548 L 0 548 Z M 55 548 L -54 548 L -54 713 L 55 713 L 55 548 Z" unicode="̇" />
<glyph horiz-adv-x="0" d="M 0 548 L 0 548 Z M 148 548 L 46 548 L 46 709 L 148 709 L 148 548 Z M -46 548 L -148 548 L -148 709 L -46 709 L -46 548 Z" unicode="̈" />
<glyph horiz-adv-x="0" d="M 0 546 L 0 546 Z M 0 546 C -34 546 -62 557 -86 581 C -110 605 -122 634 -122 668 C -122 701 -110 729 -86 753 C -62 776 -34 788 0 788 C 34 788 62 776 86 753 C 110 729 122 701 122 668 C 122 634 110 605 86 581 C 62 557 34 546 0 546 Z M 0 615 C 14 615 26 620 36 630 C 46 640 51 652 51 667 C 51 681 46 694 36 704 C 26 714 14 720 0 720 C -14 720 -27 714 -37 704 C -47 694 -52 681 -52 667 C -52 652 -47 640 -37 630 C -27 620 -14 615 0 615 Z" unicode="̊" />
<glyph horiz-adv-x="0" d="M 0 548 L 0 548 Z M -213 548 L -117 699 L 10 699 L -107 548 L -213 548 Z M -11 548 L 86 699 L 213 699 L 95 548 L -11 548 Z" unicode="̋" />
<glyph horiz-adv-x="0" d="M 0 548 L 0 548 Z M -184 721 L -73 721 L 1 625 L 76 721 L 185 721 L 62 548 L -61 548 L -184 721 Z" unicode="̌" />
<glyph horiz-adv-x="0" d="M 0 -68 L 0 -68 Z M 105 -68 C 103 -96 98 -124 90 -153 C 82 -182 72 -209 61 -234 C 49 -259 37 -281 23 -301 C 9 -320 -3 -334 -16 -344 L -105 -303 C -97 -294 -89 -281 -80 -265 C -71 -248 -63 -229 -55 -208 C -47 -186 -39 -163 -33 -139 C -26 -115 -21 -91 -19 -68 L 105 -68 Z" unicode="̦" />
<glyph horiz-adv-x="0" d="M 0 0 L 0 0 Z M 9 -191 C -16 -191 -42 -188 -69 -182 C -95 -176 -116 -168 -130 -159 L -115 -107 C -106 -111 -94 -116 -79 -120 C -63 -124 -47 -127 -31 -127 C -19 -127 -8 -124 1 -119 C 10 -113 15 -106 15 -98 C 15 -87 10 -80 2 -76 C -5 -72 -14 -70 -24 -70 C -30 -70 -36 -70 -41 -71 C -46 -72 -52 -73 -58 -75 L -74 -58 L -13 14 L 61 14 L 12 -46 C 46 -40 74 -44 96 -57 C 118 -70 130 -89 130 -114 C 130 -140 117 -159 93 -172 C 68 -184 40 -191 9 -191 Z" unicode="̧" />
<glyph horiz-adv-x="0" d="M 0 0 L 0 0 Z M 102 -76 L 135 -126 C 113 -148 90 -164 65 -175 C 39 -186 11 -192 -21 -192 C -56 -192 -84 -184 -104 -170 C -124 -155 -134 -136 -134 -114 C -134 -90 -123 -67 -101 -45 C -79 -23 -50 -5 -14 10 L 45 10 C 21 -2 2 -14 -11 -27 C -25 -40 -32 -53 -32 -66 C -32 -77 -27 -86 -17 -93 C -7 -100 4 -104 19 -104 C 37 -104 53 -101 67 -96 C 81 -90 92 -84 102 -76 Z" unicode="̨" />
<glyph horiz-adv-x="558" d="M 0 0 L 0 0 Z M 651 0 L -1 0 L 300 731 L 353 731 L 651 0 Z M 484 99 L 321 513 L 160 99 L 484 99 Z" unicode="Δ" />
<glyph horiz-adv-x="708" d="" unicode="Ω" />
<glyph horiz-adv-x="585" d="M 68 0 L 68 0 Z M 68 -141 L 68 494 L 187 494 L 187 173 C 187 148 196 128 215 112 C 233 96 258 88 288 88 C 317 88 343 98 366 119 C 389 139 401 167 401 202 L 401 494 L 520 494 L 520 0 L 411 0 L 411 85 C 398 60 378 39 350 22 C 322 5 293 -4 263 -6 C 244 -6 227 -2 211 5 C 195 12 184 22 178 35 L 178 -141 L 68 -141 Z" unicode="μ" />
<glyph horiz-adv-x="638" d="M 204 448 L 204 0 L 86 0 L 86 448 L 15 448 L 15 541 L 623 541 L 623 448 L 549 448 L 549 0 L 431 0 L 431 448 L 204 448 Z" unicode="π" />
<glyph horiz-adv-x="937" d="M 5 0 L 5 0 Z M 932 730 L 703 -6 L 633 -6 L 470 502 L 299 -6 L 229 -6 L 5 730 L 137 730 L 279 247 L 439 730 L 510 730 L 670 246 L 811 730 L 932 730 Z M 472 784 L 472 784 Z M 596 784 L 474 784 L 348 945 L 491 945 L 596 784 Z" unicode="Ẁ" />
<glyph horiz-adv-x="736" d="M 3 0 L 3 0 Z M 488 -3 L 373 290 L 248 -3 L 180 -3 L 3 494 L 128 494 L 232 178 L 344 457 L 413 457 L 518 179 L 622 494 L 733 494 L 556 -3 L 488 -3 Z M 375 548 L 375 548 Z M 499 548 L 377 548 L 251 709 L 394 709 L 499 548 Z" unicode="ẁ" />
<glyph horiz-adv-x="937" d="M 5 0 L 5 0 Z M 932 730 L 703 -6 L 633 -6 L 470 502 L 299 -6 L 229 -6 L 5 730 L 137 730 L 279 247 L 439 730 L 510 730 L 670 246 L 811 730 L 932 730 Z M 472 788 L 472 788 Z M 349 788 L 452 949 L 596 949 L 470 788 L 349 788 Z" unicode="Ẃ" />
<glyph horiz-adv-x="736" d="M 3 0 L 3 0 Z M 488 -3 L 373 290 L 248 -3 L 180 -3 L 3 494 L 128 494 L 232 178 L 344 457 L 413 457 L 518 179 L 622 494 L 733 494 L 556 -3 L 488 -3 Z M 375 552 L 375 552 Z M 252 552 L 355 713 L 499 713 L 373 552 L 252 552 Z" unicode="ẃ" />
<glyph horiz-adv-x="937" d="M 5 0 L 5 0 Z M 932 730 L 703 -6 L 633 -6 L 470 502 L 299 -6 L 229 -6 L 5 730 L 137 730 L 279 247 L 439 730 L 510 730 L 670 246 L 811 730 L 932 730 Z M 472 784 L 472 784 Z M 620 784 L 518 784 L 518 945 L 620 945 L 620 784 Z M 426 784 L 324 784 L 324 945 L 426 945 L 426 784 Z" unicode="Ẅ" />
<glyph horiz-adv-x="736" d="M 3 0 L 3 0 Z M 488 -3 L 373 290 L 248 -3 L 180 -3 L 3 494 L 128 494 L 232 178 L 344 457 L 413 457 L 518 179 L 622 494 L 733 494 L 556 -3 L 488 -3 Z M 375 548 L 375 548 Z M 523 548 L 421 548 L 421 709 L 523 709 L 523 548 Z M 329 548 L 227 548 L 227 709 L 329 709 L 329 548 Z" unicode="ẅ" />
<glyph horiz-adv-x="652" d="M 0 0 L 0 0 Z M 676 730 L 399 310 L 399 0 L 269 0 L 269 316 L -2 730 L 144 730 L 340 430 L 538 730 L 676 730 Z M 339 784 L 339 784 Z M 463 784 L 341 784 L 215 945 L 358 945 L 463 784 Z" unicode="Ỳ" />
<glyph horiz-adv-x="534" d="M 0 0 L 0 0 Z M 538 494 L 263 -79 C 239 -127 211 -159 177 -175 C 143 -191 112 -200 82 -200 C 64 -200 49 -198 37 -194 C 24 -190 15 -188 10 -186 L 44 -81 C 47 -83 53 -85 61 -87 C 69 -89 78 -91 87 -91 C 103 -91 118 -86 130 -76 C 142 -66 155 -49 168 -25 L 205 47 L -5 494 L 126 494 L 268 173 L 414 494 L 538 494 Z M 268 548 L 268 548 Z M 392 548 L 270 548 L 144 709 L 287 709 L 392 548 Z" unicode="ỳ" />
<glyph horiz-adv-x="460" d="M 422 218 L 39 218 L 39 322 L 422 322 L 422 218 Z" unicode="–" />
<glyph horiz-adv-x="645" d="M 607 218 L 39 218 L 39 322 L 607 322 L 607 218 Z" unicode="—" />
<glyph horiz-adv-x="297" d="M 32 507 L 32 514 C 32 550 43 589 67 629 C 90 669 121 705 161 737 L 283 731 C 273 725 261 715 247 701 C 233 687 219 670 207 651 C 194 631 183 610 174 587 C 165 563 161 539 161 515 L 161 507 L 32 507 Z" unicode="‘" />
<glyph horiz-adv-x="297" d="M 265 737 L 265 730 C 265 693 253 655 229 616 C 205 577 174 541 136 507 L 14 513 C 24 521 36 532 50 546 C 64 560 77 577 90 596 C 102 614 113 635 122 658 C 131 680 136 704 136 729 L 136 737 L 265 737 Z" unicode="’" />
<glyph horiz-adv-x="297" d="M 265 116 L 265 109 C 265 72 253 34 229 -4 C 205 -43 174 -80 136 -114 L 14 -108 C 24 -100 36 -88 50 -74 C 64 -60 77 -43 90 -25 C 102 -6 113 14 122 37 C 131 59 136 83 136 108 L 136 116 L 265 116 Z" unicode="‚" />
<glyph horiz-adv-x="485" d="M 237 507 L 237 514 C 237 550 247 587 269 625 C 291 663 322 700 362 737 L 471 731 C 461 722 449 710 435 696 C 421 682 408 665 396 647 C 384 628 373 607 364 585 C 355 563 351 539 351 515 L 351 507 L 237 507 Z M 32 507 L 32 514 C 32 550 43 587 66 625 C 89 663 119 700 157 737 L 265 731 C 256 723 245 711 231 697 C 217 683 204 666 192 648 C 179 629 168 608 159 586 C 150 563 146 539 146 515 L 146 507 L 32 507 Z" unicode="“" />
<glyph horiz-adv-x="485" d="M 247 737 L 247 730 C 247 693 236 656 216 618 C 196 580 165 543 123 507 L 14 513 C 25 522 38 534 52 549 C 66 563 79 580 91 598 C 103 616 113 637 121 659 C 129 681 134 704 134 729 L 134 737 L 247 737 Z M 453 737 L 453 730 C 453 693 442 655 420 617 C 398 579 368 542 328 507 L 219 513 C 231 523 244 535 258 549 C 272 563 285 580 297 598 C 309 616 319 637 327 659 C 335 681 339 704 339 729 L 339 737 L 453 737 Z" unicode="”" />
<glyph horiz-adv-x="485" d="M 247 122 L 247 115 C 247 78 236 41 216 3 C 196 -34 165 -71 123 -108 L 14 -102 C 25 -92 38 -80 52 -66 C 66 -51 79 -34 91 -16 C 103 1 113 22 121 44 C 129 66 134 89 134 114 L 134 122 L 247 122 Z M 453 122 L 453 115 C 453 78 442 40 420 2 C 398 -35 368 -72 328 -108 L 219 -102 C 231 -92 244 -79 258 -65 C 272 -51 285 -34 297 -16 C 309 1 319 22 327 44 C 335 66 339 89 339 114 L 339 122 L 453 122 Z" unicode="„" />
<glyph horiz-adv-x="565" d="M 540 366 L 342 366 L 342 -179 L 217 -179 L 217 366 L 25 366 L 25 470 L 217 470 L 217 730 L 342 730 L 342 470 L 540 470 L 540 366 Z" unicode="†" />
<glyph horiz-adv-x="565" d="M 218 -179 L 218 94 L 31 94 L 31 198 L 218 198 L 218 372 L 31 372 L 31 477 L 218 477 L 218 730 L 342 730 L 342 477 L 534 477 L 534 372 L 342 372 L 342 198 L 534 198 L 534 94 L 342 94 L 342 -179 L 218 -179 Z" unicode="‡" />
<glyph horiz-adv-x="382" d="M 191 489 C 221 489 247 478 269 457 C 290 435 301 409 301 379 C 301 348 290 322 269 301 C 247 280 221 270 191 270 C 160 270 134 280 113 301 C 92 322 82 348 82 379 C 82 409 92 435 113 457 C 134 478 160 489 191 489 Z" unicode="•" />
<glyph horiz-adv-x="748" d="M 64 0 L 64 143 L 186 143 L 186 0 L 64 0 Z M 313 0 L 313 143 L 435 143 L 435 0 L 313 0 Z M 562 0 L 562 143 L 683 143 L 683 0 L 562 0 Z" unicode="…" />
<glyph horiz-adv-x="1230" d="M 214 351 C 192 351 170 355 149 364 C 128 372 109 385 93 402 C 77 418 64 439 54 463 C 44 487 39 514 39 545 C 39 571 43 595 52 619 C 61 643 73 663 89 681 C 105 699 123 713 144 724 C 165 734 187 740 211 740 C 236 740 259 734 281 724 C 302 714 320 700 336 682 C 351 664 363 644 372 621 C 380 597 385 573 385 548 C 385 520 380 495 371 471 C 362 447 350 426 335 408 C 320 390 302 376 281 366 C 260 356 238 351 214 351 Z M 140 0 L 608 730 L 702 730 L 233 0 L 140 0 Z M 145 545 C 145 511 151 486 164 468 C 176 450 192 441 212 441 C 234 441 251 450 263 469 C 275 488 281 513 281 545 C 281 575 275 600 264 620 C 253 639 236 649 214 649 C 191 649 174 639 162 620 C 150 600 145 575 145 545 Z M 636 -3 C 614 -3 592 1 572 10 C 551 18 532 31 516 48 C 500 64 487 85 477 109 C 467 133 463 160 463 191 C 463 217 467 242 476 266 C 485 289 497 309 513 327 C 528 345 546 359 567 369 C 588 379 611 385 636 385 C 661 385 684 379 706 369 C 727 359 745 345 761 328 C 776 310 788 290 796 267 C 804 243 809 219 809 194 C 809 166 804 141 796 117 C 787 93 775 72 760 54 C 744 36 726 22 705 12 C 683 2 660 -3 636 -3 Z M 1019 -3 C 997 -3 975 1 954 10 C 933 18 914 31 898 48 C 882 64 869 85 859 109 C 849 133 845 160 845 191 C 845 217 849 242 858 266 C 867 289 879 309 895 327 C 911 345 929 359 950 369 C 971 379 994 385 1019 385 C 1044 385 1067 379 1089 369 C 1110 359 1128 345 1143 328 C 1158 310 1170 290 1178 267 C 1186 243 1191 219 1191 194 C 1191 166 1186 141 1178 117 C 1169 93 1157 72 1142 54 C 1126 36 1108 22 1087 12 C 1066 2 1043 -3 1019 -3 Z M 635 87 C 657 87 675 96 687 114 C 699 132 706 158 706 191 C 706 223 700 248 688 267 C 676 286 659 296 636 296 C 615 296 599 286 587 267 C 575 248 569 223 569 191 C 569 157 575 131 588 113 C 600 95 616 87 635 87 Z M 1018 87 C 1040 87 1057 96 1069 114 C 1081 132 1088 158 1088 191 C 1088 223 1082 248 1070 267 C 1058 286 1041 296 1019 296 C 998 296 981 286 969 267 C 957 248 951 223 951 191 C 951 157 957 131 970 113 C 983 95 999 87 1018 87 Z" unicode="‰" />
<glyph horiz-adv-x="249" d="M 221 81 L 26 252 L 26 329 L 221 497 L 221 376 L 130 288 L 221 205 L 221 81 Z" unicode="‹" />
<glyph horiz-adv-x="251" d="M 28 499 L 224 327 L 224 251 L 28 82 L 28 203 L 119 291 L 28 374 L 28 499 Z" unicode="›" />
<glyph horiz-adv-x="145" d="M 307 730 L -46 0 L -145 0 L 208 730 L 307 730 Z" unicode="⁄" />
<glyph horiz-adv-x="330" d="M 13 452 L 13 519 L 195 736 L 260 736 L 260 523 L 317 523 L 317 452 L 260 452 L 260 373 L 168 373 L 168 452 L 13 452 Z M 88 511 L 170 511 L 170 611 L 88 511 Z" unicode="⁴" />
<glyph horiz-adv-x="565" d="M 562 114 C 542 76 511 46 471 23 C 430 0 385 -12 337 -12 C 273 -12 220 10 176 56 C 132 101 102 163 88 242 L 32 242 L 32 325 L 78 325 C 77 330 77 336 77 342 C 77 348 77 354 77 360 C 77 364 77 369 77 375 C 77 380 77 385 78 390 L 32 390 L 32 473 L 86 473 C 92 512 101 548 115 581 C 129 614 146 642 167 666 C 187 690 212 708 240 722 C 268 735 300 742 336 742 C 398 742 446 730 481 706 C 515 682 540 654 556 624 L 460 575 C 447 595 431 612 412 626 C 392 639 367 646 336 646 C 299 646 269 631 245 603 C 221 575 205 531 197 473 L 495 473 L 495 390 L 190 390 C 190 385 190 380 190 376 C 190 372 190 367 190 363 C 190 356 190 349 190 343 C 190 337 190 331 191 325 L 495 325 L 495 242 L 201 242 C 211 188 229 149 255 123 C 280 97 308 84 340 84 C 370 84 397 92 419 110 C 441 127 458 147 470 170 L 562 114 Z" unicode="€" />
<glyph horiz-adv-x="940" d="M 890 301 L 782 301 L 782 555 L 652 374 L 635 374 L 507 553 L 507 301 L 402 301 L 402 730 L 491 730 L 644 520 L 796 730 L 890 730 L 890 301 Z M 373 611 L 255 611 L 255 301 L 135 301 L 135 611 L 15 611 L 15 730 L 373 730 L 373 611 Z" unicode="™" />
<glyph horiz-adv-x="781" d="M 44 0 L 44 110 L 247 110 L 247 167 C 185 189 134 225 94 275 C 54 325 35 383 35 449 C 35 490 43 529 59 565 C 75 601 99 633 129 660 C 159 687 195 708 239 724 C 283 740 332 748 386 748 C 442 748 492 740 537 724 C 581 708 619 686 650 660 C 680 633 704 601 720 565 C 736 528 745 489 745 449 C 745 383 727 325 691 275 C 655 225 602 189 532 167 L 532 110 L 735 110 L 735 0 L 437 0 L 437 229 C 492 247 535 275 566 313 C 597 351 613 394 613 442 C 613 471 607 498 595 524 C 583 549 567 571 547 589 C 527 607 503 621 475 631 C 447 641 418 646 387 646 C 356 646 327 641 301 631 C 274 621 251 606 231 588 C 211 570 196 548 185 523 C 173 497 168 470 168 440 C 168 394 183 352 213 315 C 243 278 286 249 344 229 L 344 0 L 44 0 Z" unicode="Ω" />
<glyph horiz-adv-x="587" d="M 546 292 C 546 237 539 190 525 152 C 511 113 492 82 468 58 C 444 34 417 16 385 5 C 353 -5 320 -11 286 -11 C 254 -11 223 -5 193 5 C 163 15 136 31 112 51 C 88 71 68 95 54 125 C 39 155 32 188 32 226 C 32 260 38 292 51 322 C 63 352 80 378 102 400 C 124 422 149 439 179 452 C 208 465 239 472 272 472 C 311 472 345 463 374 446 C 403 429 425 407 440 381 C 433 441 420 492 400 536 C 380 579 357 615 331 643 C 304 671 274 692 242 706 C 209 720 176 728 144 730 L 200 802 C 234 802 272 792 313 774 C 353 755 391 725 425 685 C 459 645 488 592 511 527 C 534 462 546 384 546 292 Z M 287 76 C 327 76 360 90 385 119 C 409 147 422 188 422 241 C 422 283 410 317 387 345 C 363 372 331 386 289 386 C 250 386 218 372 194 344 C 169 316 157 279 157 231 C 157 180 169 141 193 115 C 217 89 249 76 287 76 Z" unicode="∂" />
<glyph horiz-adv-x="649" d="M 651 0 L -1 0 L 300 731 L 353 731 L 651 0 Z M 484 99 L 321 513 L 160 99 L 484 99 Z" unicode="∆" />
<glyph horiz-adv-x="700" d="M 244 623 L 244 0 L 120 0 L 120 623 L 15 623 L 15 730 L 685 730 L 685 623 L 587 623 L 587 0 L 462 0 L 462 623 L 244 623 Z" unicode="∏" />
<glyph horiz-adv-x="618" d="M 211 620 L 440 307 L 177 -69 L 570 -69 L 570 -179 L -25 -179 L 315 306 L 5 730 L 549 730 L 549 620 L 211 620 Z" unicode="∑" />
<glyph horiz-adv-x="519" d="M 480 283 L 39 283 L 39 381 L 480 381 L 480 283 Z" unicode="−" />
<glyph horiz-adv-x="510" d="M 508 730 L 198 0 L 186 0 L 11 333 L 95 398 L 207 170 L 433 730 L 508 730 Z" unicode="√" />
<glyph horiz-adv-x="350" d="M 101 -9 L 157 620 C 159 640 164 658 172 674 C 180 689 191 702 203 712 C 215 722 229 730 244 735 C 259 740 274 743 288 743 C 302 743 317 742 332 741 C 347 740 356 739 359 739 L 350 636 C 348 636 344 637 338 638 C 332 638 326 639 320 639 C 301 639 286 632 274 620 C 262 607 256 587 254 561 L 201 -52 C 199 -68 195 -83 189 -99 C 182 -114 173 -128 162 -140 C 150 -152 137 -161 121 -169 C 105 -176 88 -179 70 -179 C 48 -179 28 -176 10 -172 C -7 -168 -22 -163 -32 -159 L -20 -74 C -15 -74 -8 -76 1 -79 C 10 -81 19 -83 28 -83 C 47 -83 63 -76 77 -64 C 90 -51 98 -33 101 -9 Z" unicode="∫" />
<glyph horiz-adv-x="500" d="M 366 509 L 459 509 C 457 461 448 420 432 388 C 416 355 391 339 355 339 C 332 339 312 342 294 350 C 276 358 261 367 249 378 C 237 388 224 396 211 404 C 198 411 185 415 172 415 C 160 415 148 407 137 393 C 126 379 121 362 121 342 L 34 342 C 34 392 43 433 63 464 C 82 494 109 510 145 510 C 167 510 187 505 204 495 C 221 485 236 475 248 467 C 260 458 272 450 284 444 C 296 437 308 434 320 434 C 336 434 348 440 355 454 C 362 467 366 485 366 509 Z M 367 323 L 459 323 C 457 275 447 234 430 202 C 412 169 385 153 349 153 C 325 153 305 157 288 165 C 271 173 257 182 246 192 C 234 202 221 210 209 218 C 197 225 184 229 172 229 C 160 229 148 221 138 207 C 127 193 122 176 122 156 L 34 156 C 34 207 43 248 63 279 C 83 309 111 325 148 325 C 171 325 191 320 209 310 C 227 300 241 290 253 281 C 264 272 276 264 288 258 C 300 251 312 248 323 248 C 339 248 351 254 357 268 C 363 281 367 299 367 323 Z" unicode="≈" />
<glyph horiz-adv-x="500" d="M 457 163 L 226 163 L 177 57 L 110 87 L 145 163 L 65 163 L 65 266 L 192 266 L 245 382 L 65 382 L 65 484 L 292 484 L 345 600 L 413 570 L 373 484 L 457 484 L 457 382 L 327 382 L 273 266 L 457 266 L 457 163 Z" unicode="≠" />
<glyph horiz-adv-x="500" d="M 180 327 L 433 191 L 433 13 L 61 13 L 61 96 L 413 96 L 62 287 L 62 361 L 433 566 L 433 460 L 180 327 Z" unicode="≤" />
<glyph horiz-adv-x="500" d="M 433 13 L 61 13 L 61 191 L 314 327 L 61 460 L 61 566 L 432 361 L 432 287 L 81 96 L 433 96 L 433 13 Z" unicode="≥" />
<glyph horiz-adv-x="545" d="M 516 326 L 278 -26 L 267 -26 L 28 326 L 28 337 L 267 688 L 278 688 L 516 337 L 516 326 Z M 405 327 L 405 336 L 277 530 L 269 530 L 139 336 L 139 327 L 269 132 L 277 132 L 405 327 Z" unicode="◊" />
<glyph horiz-adv-x="730" d="M 448 664 L 282 664 L 282 730 L 448 730 L 448 664 Z M 659 282 L 591 282 L 591 448 L 659 448 L 659 282 Z M 139 282 L 71 282 L 71 448 L 139 448 L 139 282 Z M 442 288 L 288 288 L 288 442 L 442 442 L 442 288 Z M 448 0 L 282 0 L 282 67 L 448 67 L 448 0 Z" unicode="" />
<glyph horiz-adv-x="621" d="M 365 398 L 230 398 L 230 0 L 111 0 L 111 398 L 13 398 L 13 494 L 111 494 L 111 549 C 111 587 116 621 128 649 C 140 677 155 699 174 717 C 192 735 214 748 238 757 C 262 765 286 770 312 770 C 326 770 342 768 359 765 C 376 762 389 759 398 755 L 381 653 C 375 655 368 658 358 660 C 348 662 337 663 327 663 C 304 663 282 654 261 636 C 239 618 229 593 229 559 L 229 494 L 365 494 L 365 398 Z M 553 583 L 428 583 L 428 697 L 553 697 L 553 583 Z M 551 0 L 430 0 L 430 494 L 551 494 L 551 0 Z" unicode="ﬁ" />
<glyph horiz-adv-x="606" d="M 365 398 L 230 398 L 230 0 L 111 0 L 111 398 L 13 398 L 13 494 L 111 494 L 111 547 C 111 585 116 618 128 646 C 140 674 155 698 174 716 C 192 734 214 747 238 756 C 262 765 286 770 312 770 C 326 770 342 768 359 766 C 376 763 389 760 398 756 L 381 654 C 375 656 368 659 358 661 C 348 663 337 664 327 664 C 304 664 282 654 261 636 C 239 617 229 591 229 557 L 229 494 L 365 494 L 365 398 Z M 536 765 L 536 0 L 416 0 L 416 765 L 536 765 Z" unicode="ﬂ" />
</font>
</defs>
</svg>
