<?xml version="1.0" encoding="utf-8" ?><svg version="1.1" xmlns = 'http://www.w3.org/2000/svg'><defs><font id='web' horiz-adv-x="1000">
<font-face font-family="web" descent="-200" cap-height="730" units-per-em="1000" bbox="-242,-377,1380,1024" x-height="567" ascent="800" />
<missing-glyph horiz-adv-x="500" d="" /><glyph horiz-adv-x="286" d="" unicode=" " />
<glyph horiz-adv-x="344" d="M 266 435 L 212 251 L 130 251 L 78 435 L 78 730 L 266 730 L 266 435 Z M 257 0 L 86 0 L 86 167 L 257 167 L 257 0 Z" unicode="!" />
<glyph horiz-adv-x="499" d="M 440 594 L 431 422 L 299 422 L 293 593 L 293 730 L 440 730 L 440 594 Z M 205 593 L 199 422 L 65 422 L 58 593 L 58 730 L 205 730 L 205 593 Z" unicode="&#x22;" />
<glyph horiz-adv-x="681" d="M 392 0 L 408 181 L 242 181 L 226 0 L 129 0 L 145 181 L 31 181 L 31 303 L 156 303 L 166 424 L 64 424 L 64 546 L 177 546 L 193 730 L 290 730 L 274 546 L 440 546 L 456 730 L 552 730 L 536 546 L 650 546 L 650 424 L 525 424 L 515 303 L 617 303 L 617 181 L 504 181 L 488 0 L 392 0 Z M 253 303 L 419 303 L 429 424 L 263 424 L 253 303 Z" unicode="#" />
<glyph horiz-adv-x="608" d="M 578 199 C 578 170 571 144 559 121 C 546 97 529 77 508 61 C 486 44 461 31 433 21 C 404 11 373 4 341 2 L 341 -120 L 262 -120 L 262 2 C 209 6 161 15 119 31 C 77 47 45 63 25 81 L 79 212 C 91 200 107 189 126 179 C 145 169 165 160 187 152 C 208 144 229 138 251 134 C 273 130 292 128 310 128 C 348 128 375 133 393 144 C 411 155 420 171 420 192 C 420 202 418 211 414 219 C 410 227 402 235 390 244 C 378 253 361 263 339 274 C 316 284 286 297 250 313 C 172 344 117 377 83 411 C 49 445 32 487 32 538 C 32 565 37 590 49 613 C 61 636 77 656 97 672 C 117 688 142 701 170 711 C 198 721 228 727 262 729 L 262 789 L 341 789 L 341 727 C 391 722 433 712 469 697 C 504 682 531 666 550 648 L 477 537 C 457 554 431 569 399 582 C 367 595 335 602 301 602 C 269 602 242 596 220 585 C 197 573 186 557 186 536 C 186 526 188 517 193 510 C 197 502 206 495 218 488 C 230 480 246 472 267 463 C 287 454 314 443 347 429 C 378 415 408 402 436 389 C 464 375 488 360 509 344 C 530 327 547 307 559 284 C 571 260 578 232 578 199 Z" unicode="$" />
<glyph horiz-adv-x="988" d="M 237 331 C 209 331 182 336 158 347 C 133 357 112 372 94 390 C 76 408 61 429 51 454 C 40 478 35 505 35 534 C 35 560 40 586 50 611 C 60 636 73 658 91 676 C 109 694 130 709 154 721 C 178 732 204 738 232 738 C 260 738 287 732 311 721 C 335 710 356 695 374 677 C 392 659 406 637 416 613 C 426 589 432 563 432 537 C 432 509 427 483 417 458 C 407 433 393 411 376 393 C 358 374 338 359 314 348 C 290 336 264 331 237 331 Z M 283 0 L 169 0 L 687 730 L 801 730 L 283 0 Z M 233 440 C 253 440 269 448 281 464 C 292 480 298 504 298 535 C 298 565 292 589 282 605 C 271 621 255 630 234 630 C 213 630 197 621 185 605 C 173 589 168 565 168 535 C 168 502 174 478 186 463 C 198 447 213 440 233 440 Z M 758 -4 C 730 -4 704 1 680 12 C 655 22 634 37 616 55 C 598 73 583 95 573 120 C 562 144 557 171 557 200 C 557 226 562 252 572 277 C 582 302 595 324 613 342 C 631 360 652 375 676 387 C 700 398 726 404 754 404 C 782 404 809 398 833 387 C 857 376 878 361 896 343 C 914 325 928 303 938 279 C 948 255 953 229 953 203 C 953 175 948 149 938 124 C 928 99 914 77 897 58 C 879 39 859 24 835 13 C 811 1 785 -4 758 -4 Z M 754 106 C 775 106 791 114 802 130 C 813 146 819 169 819 200 C 819 230 813 254 803 271 C 792 287 776 296 755 296 C 734 296 718 287 707 271 C 696 254 691 230 691 200 C 691 168 696 144 708 129 C 720 113 735 106 754 106 Z" unicode="%" />
<glyph horiz-adv-x="818" d="M 716 -5 L 612 66 C 577 43 536 25 488 12 C 440 -1 383 -8 319 -8 C 229 -8 157 9 105 43 C 52 77 26 124 26 186 C 26 207 30 227 39 245 C 47 263 59 279 73 294 C 87 309 104 323 122 335 C 140 347 158 359 177 370 C 157 387 137 410 119 440 C 100 469 91 504 91 546 C 91 574 98 600 113 624 C 127 648 146 668 170 685 C 193 701 219 714 248 723 C 277 732 306 737 335 737 C 370 737 402 732 430 722 C 458 712 481 698 500 682 C 519 665 534 645 544 623 C 554 601 560 577 560 553 C 560 513 547 482 522 458 C 497 434 465 410 425 386 L 586 278 C 594 290 603 302 612 316 C 621 329 630 343 638 358 L 787 282 C 778 264 769 247 759 230 C 749 213 738 197 728 182 L 800 134 L 716 -5 Z M 254 542 C 254 526 260 511 274 496 C 288 481 303 467 321 455 C 347 471 368 486 382 499 C 396 512 403 526 403 541 C 403 559 396 574 383 586 C 369 598 351 605 329 605 C 307 605 289 598 275 586 C 261 573 254 558 254 542 Z M 203 201 C 203 175 215 156 239 144 C 263 132 293 126 328 126 C 353 126 377 129 401 136 C 425 143 447 153 468 166 L 278 297 C 251 279 232 264 220 250 C 208 236 203 219 203 201 Z" unicode="&#x26;" />
<glyph horiz-adv-x="264" d="M 205 585 L 199 406 L 65 406 L 58 585 L 58 730 L 205 730 L 205 585 Z" unicode="'" />
<glyph horiz-adv-x="396" d="M 374 -62 L 374 -194 C 328 -179 284 -157 243 -128 C 202 -98 166 -63 136 -22 C 106 19 82 66 64 120 C 46 173 38 231 38 293 C 38 355 47 412 66 464 C 84 516 109 561 140 599 C 171 637 207 669 248 695 C 288 720 330 738 374 749 L 374 635 C 356 625 339 613 322 597 C 304 581 289 559 276 533 C 263 507 252 474 244 435 C 236 395 232 348 232 293 C 232 197 245 122 271 68 C 297 13 332 -30 374 -62 Z" unicode="(" />
<glyph horiz-adv-x="396" d="M 30 636 L 30 749 C 72 739 113 721 154 696 C 194 671 230 639 262 601 C 293 562 318 516 337 464 C 356 412 366 353 366 289 C 366 225 356 167 338 114 C 320 60 295 13 265 -27 C 235 -67 199 -102 158 -130 C 117 -158 74 -180 30 -194 L 30 -61 C 68 -31 101 10 129 64 C 157 117 171 192 172 289 C 172 345 167 394 159 434 C 150 474 139 508 126 534 C 112 560 97 582 80 598 C 63 614 46 626 30 636 Z" unicode=")" />
<glyph horiz-adv-x="462" d="M 433 549 L 306 512 L 411 430 L 312 345 L 235 459 L 158 345 L 65 429 L 162 515 L 29 548 L 77 656 L 190 592 L 171 730 L 297 730 L 277 592 L 393 655 L 433 549 Z" unicode="*" />
<glyph horiz-adv-x="500" d="M 481 264 L 317 264 L 317 102 L 184 102 L 184 264 L 19 264 L 19 398 L 184 398 L 184 560 L 317 560 L 317 398 L 481 398 L 481 264 Z" unicode="+" />
<glyph horiz-adv-x="300" d="M 259 158 C 258 120 253 84 245 48 C 237 12 227 -19 215 -48 C 203 -77 190 -101 176 -121 C 162 -141 149 -154 138 -160 L 20 -108 C 26 -100 34 -87 43 -69 C 51 -50 59 -28 67 -4 C 74 20 80 47 86 75 C 92 103 96 131 98 158 L 259 158 Z" unicode="," />
<glyph horiz-adv-x="399" d="M 354 209 L 46 209 L 46 350 L 354 350 L 354 209 Z" unicode="-" />
<glyph horiz-adv-x="301" d="M 229 0 L 72 0 L 72 170 L 229 170 L 229 0 Z" unicode="." />
<glyph horiz-adv-x="360" d="M 366 730 L 137 0 L -6 0 L 226 730 L 366 730 Z" unicode="/" />
<glyph horiz-adv-x="631" d="M 312 -12 C 272 -12 236 -4 202 10 C 168 25 139 48 115 78 C 91 108 72 147 58 194 C 44 241 37 297 37 361 C 37 413 43 463 55 510 C 67 556 84 597 108 631 C 131 665 160 692 196 712 C 231 732 272 742 318 742 C 366 742 407 733 442 715 C 476 697 505 671 528 639 C 550 607 567 568 578 522 C 588 476 594 425 594 370 C 594 311 588 258 576 210 C 564 162 547 122 524 90 C 500 57 471 32 436 14 C 400 -3 359 -12 312 -12 Z M 314 132 C 352 132 380 150 399 186 C 417 222 427 279 427 358 C 427 439 417 499 399 539 C 381 578 353 598 315 598 C 279 598 251 580 232 544 C 213 508 204 447 204 362 C 204 279 213 220 232 185 C 251 149 278 132 314 132 Z" unicode="0" />
<glyph horiz-adv-x="425" d="M 348 0 L 185 0 L 185 520 C 177 513 167 506 155 499 C 142 492 128 486 114 481 C 99 475 84 471 68 468 C 52 464 38 462 26 462 L 26 612 C 63 612 100 624 138 647 C 176 669 210 698 242 732 L 348 732 L 348 0 Z" unicode="1" />
<glyph horiz-adv-x="585" d="M 571 0 L 19 0 L 19 66 L 317 383 C 335 401 350 421 363 443 C 376 465 383 487 383 510 C 383 534 374 555 356 571 C 338 587 313 596 281 596 C 247 596 220 585 202 564 C 183 542 174 516 174 486 L 25 502 C 29 573 56 631 104 675 C 152 719 221 742 309 742 C 384 742 444 723 489 687 C 533 650 556 603 556 545 C 556 487 544 440 522 404 C 499 367 474 335 447 309 L 277 138 L 571 138 L 571 0 Z" unicode="2" />
<glyph horiz-adv-x="571" d="M 290 -12 C 220 -12 160 -3 112 14 C 63 32 27 52 5 75 L 86 194 C 102 181 126 167 158 153 C 190 139 226 132 267 132 C 306 132 336 141 358 159 C 380 177 391 201 391 230 C 391 259 380 280 359 294 C 337 308 309 315 274 315 L 127 315 L 127 450 L 266 450 C 294 450 318 457 336 471 C 354 485 364 503 364 525 C 364 544 356 561 340 577 C 324 592 302 600 276 600 C 238 600 207 593 181 579 C 155 565 134 551 118 537 L 35 651 C 55 673 87 694 130 713 C 173 732 224 742 282 742 C 317 742 350 738 380 730 C 410 722 437 711 459 695 C 481 679 499 660 512 637 C 524 613 531 586 531 556 C 531 515 518 480 492 450 C 466 420 434 400 395 390 C 439 382 477 363 508 332 C 539 300 555 261 555 214 C 555 190 549 164 539 138 C 529 111 513 87 492 65 C 470 43 443 24 409 10 C 375 -4 336 -12 290 -12 Z" unicode="3" />
<glyph horiz-adv-x="596" d="M 594 175 L 483 175 L 483 0 L 332 0 L 332 175 L 8 175 L 8 294 L 358 736 L 483 736 L 483 309 L 594 309 L 594 175 Z M 335 303 L 335 518 L 167 303 L 335 303 Z" unicode="4" />
<glyph horiz-adv-x="589" d="M 281 -12 C 247 -12 216 -9 188 -3 C 160 3 134 10 112 19 C 90 27 70 37 53 48 C 36 58 22 69 12 79 L 91 198 C 107 182 132 166 166 150 C 200 134 234 127 268 127 C 304 127 333 138 355 160 C 377 182 388 212 388 248 C 388 282 377 309 356 329 C 334 349 309 360 280 360 C 251 360 227 355 207 346 C 187 336 172 324 162 309 L 58 333 L 91 730 L 488 730 L 488 591 L 208 591 L 200 457 C 210 465 225 473 247 481 C 269 489 292 493 316 493 C 352 493 385 487 415 475 C 445 463 470 446 491 425 C 511 404 527 379 539 350 C 550 320 556 289 556 255 C 556 217 549 181 536 148 C 523 115 505 87 481 63 C 457 39 428 21 394 8 C 360 -5 322 -12 281 -12 Z" unicode="5" />
<glyph horiz-adv-x="622" d="M 320 -11 C 282 -11 245 -4 210 8 C 175 21 144 40 118 65 C 92 90 71 121 55 158 C 39 194 32 236 32 284 C 32 334 39 381 55 425 C 70 468 90 507 116 543 C 141 579 170 611 204 641 C 238 671 273 698 309 722 L 384 772 L 470 657 L 385 597 C 345 567 310 540 281 516 C 251 492 229 470 215 451 C 224 461 242 472 269 482 C 295 492 322 498 349 498 C 382 498 414 492 444 482 C 474 471 500 455 522 434 C 544 413 562 387 575 355 C 588 323 595 287 595 246 C 595 208 587 174 573 143 C 558 111 538 84 513 62 C 488 39 459 21 426 8 C 392 -4 357 -11 320 -11 Z M 313 126 C 349 126 377 137 398 160 C 419 183 430 212 430 246 C 430 280 419 308 398 331 C 377 354 348 366 311 366 C 277 366 248 355 225 334 C 201 313 190 285 190 250 C 190 214 201 184 223 161 C 245 137 275 126 313 126 Z" unicode="6" />
<glyph horiz-adv-x="530" d="M 507 730 L 537 653 L 205 -13 L 56 58 L 330 590 L 12 590 L 12 730 L 507 730 Z" unicode="7" />
<glyph horiz-adv-x="610" d="M 438 387 C 483 373 517 349 541 313 C 564 277 576 240 576 200 C 576 170 569 142 557 116 C 544 90 526 67 503 48 C 479 29 451 14 417 4 C 383 -6 345 -12 303 -12 C 261 -12 224 -6 191 4 C 157 14 129 29 106 48 C 83 67 65 90 53 116 C 41 142 35 171 35 202 C 35 245 48 284 74 319 C 100 353 133 376 171 387 C 138 401 111 423 90 452 C 68 481 58 512 58 545 C 58 602 80 649 125 686 C 170 723 229 742 303 742 C 378 742 438 724 483 689 C 528 654 551 610 552 556 C 552 522 541 489 520 457 C 499 425 472 401 438 387 Z M 302 433 C 331 433 355 440 374 456 C 392 471 402 491 402 516 C 402 542 392 563 373 579 C 354 595 330 603 302 603 C 274 603 250 595 232 579 C 214 563 205 542 205 516 C 205 490 214 470 233 455 C 251 440 274 433 302 433 Z M 302 119 C 336 119 363 128 385 146 C 407 164 418 188 418 218 C 418 247 407 270 385 286 C 363 302 336 311 302 311 C 269 311 242 302 220 286 C 198 270 188 247 188 217 C 188 187 198 164 220 146 C 241 128 268 119 302 119 Z" unicode="8" />
<glyph horiz-adv-x="622" d="M 265 -26 L 181 88 L 258 147 C 290 171 321 197 350 225 C 378 252 401 276 418 298 C 413 292 405 285 394 279 C 382 273 370 267 356 262 C 342 256 328 252 313 248 C 298 244 284 243 272 243 C 238 243 207 247 177 257 C 147 267 121 282 99 302 C 77 322 59 347 46 379 C 33 410 27 447 27 489 C 27 525 34 558 49 589 C 63 620 83 647 108 670 C 133 692 163 710 197 723 C 231 735 266 742 304 742 C 344 742 381 735 416 722 C 451 709 481 690 507 666 C 533 641 553 610 568 573 C 582 536 590 494 590 447 C 590 394 582 346 567 302 C 551 258 531 218 506 182 C 480 146 451 114 419 86 C 387 58 354 33 320 12 L 265 -26 Z M 310 365 C 346 365 375 376 398 398 C 420 420 432 448 432 482 C 432 519 420 549 397 572 C 374 595 345 607 310 607 C 274 607 245 595 224 572 C 202 548 192 520 192 486 C 192 452 202 423 223 400 C 243 376 272 365 310 365 Z" unicode="9" />
<glyph horiz-adv-x="284" d="M 221 405 L 63 405 L 63 567 L 221 567 L 221 405 Z M 221 0 L 63 0 L 63 163 L 221 163 L 221 0 Z" unicode=":" />
<glyph horiz-adv-x="283" d="M 229 405 L 73 405 L 73 567 L 229 567 L 229 405 Z M 232 128 C 230 100 225 72 217 42 C 209 12 199 -14 188 -40 C 176 -66 164 -88 152 -107 C 139 -126 127 -139 117 -145 L 0 -93 C 8 -83 16 -70 25 -54 C 34 -38 43 -19 51 0 C 59 20 65 42 71 64 C 76 86 79 107 79 128 L 232 128 Z" unicode=";" />
<glyph horiz-adv-x="465" d="M 405 94 L 43 264 L 43 401 L 405 568 L 405 427 L 202 337 L 405 239 L 405 94 Z" unicode="&#x3C;" />
<glyph horiz-adv-x="500" d="M 454 374 L 46 374 L 46 509 L 454 509 L 454 374 Z M 454 148 L 46 148 L 46 282 L 454 282 L 454 148 Z" unicode="=" />
<glyph horiz-adv-x="465" d="M 422 264 L 59 94 L 59 239 L 263 337 L 59 427 L 59 568 L 422 401 L 422 264 Z" unicode="&#x3E;" />
<glyph horiz-adv-x="498" d="M 147 234 C 147 278 152 313 163 340 C 173 366 196 391 231 414 C 259 432 281 450 297 466 C 312 482 320 502 320 527 C 320 549 310 567 291 580 C 272 592 249 599 223 599 C 197 599 173 592 152 580 C 130 568 114 554 103 540 L -1 642 C 7 653 19 665 34 677 C 49 689 67 699 87 709 C 107 719 130 727 156 733 C 182 739 210 742 241 742 C 275 742 307 737 337 728 C 367 718 394 705 416 689 C 438 672 455 652 468 628 C 480 604 487 578 487 550 C 487 522 483 499 475 479 C 467 459 458 441 447 427 C 436 412 424 399 410 389 C 396 379 384 370 372 362 C 344 345 326 326 318 304 C 310 282 305 258 305 234 L 147 234 Z M 141 0 L 141 158 L 318 158 L 318 0 L 141 0 Z" unicode="?" />
<glyph horiz-adv-x="908" d="M 444 -36 C 388 -36 335 -26 287 -6 C 238 14 196 41 161 76 C 126 111 99 152 79 200 C 59 248 49 299 49 354 C 49 410 58 463 77 511 C 96 559 123 599 158 633 C 193 667 236 693 286 712 C 336 731 393 741 455 741 C 517 741 574 733 624 717 C 674 701 717 679 751 649 C 785 619 812 583 831 540 C 849 496 859 448 859 394 C 859 349 854 311 845 279 C 835 247 823 221 807 201 C 791 181 773 166 753 157 C 732 147 710 143 688 143 C 648 143 617 148 595 160 C 573 172 558 188 550 208 C 542 193 524 179 496 166 C 468 152 432 146 390 146 C 342 146 304 158 277 183 C 249 208 236 239 236 276 C 236 315 254 347 290 371 C 326 395 384 408 464 408 L 541 408 L 541 425 C 541 441 533 455 519 466 C 504 476 480 482 446 482 C 421 482 398 479 378 473 C 357 467 339 460 325 453 L 284 542 C 291 546 301 550 313 554 C 325 558 339 562 354 566 C 369 570 385 573 402 575 C 418 577 434 579 450 579 C 477 579 502 576 526 570 C 550 564 570 555 588 543 C 605 530 619 513 629 491 C 639 469 644 443 644 412 L 644 268 C 644 258 647 248 653 238 C 659 227 673 222 695 222 C 704 222 713 224 722 228 C 731 232 739 240 747 252 C 754 264 760 280 765 302 C 769 323 772 351 772 385 C 772 423 765 459 752 493 C 738 527 718 557 692 583 C 666 608 633 628 593 643 C 553 658 506 666 454 666 C 403 666 358 658 318 643 C 278 628 244 607 218 581 C 191 554 171 522 157 484 C 143 446 136 404 136 359 C 136 314 144 272 160 233 C 176 194 197 160 225 132 C 253 104 286 81 324 65 C 362 49 403 41 447 41 C 475 41 504 44 534 51 C 564 58 589 67 611 79 L 644 5 C 618 -7 587 -17 552 -25 C 516 -32 480 -36 444 -36 Z M 439 228 C 461 228 482 231 500 239 C 518 247 532 254 542 262 L 542 341 L 466 341 C 432 341 406 336 390 327 C 374 317 366 304 366 286 C 366 264 371 248 383 240 C 395 232 413 228 439 228 Z" unicode="@" />
<glyph horiz-adv-x="685" d="M 690 0 L 509 0 L 461 121 L 209 121 L 164 0 L -5 0 L 291 731 L 404 731 L 690 0 Z M 426 240 L 334 481 L 245 240 L 426 240 Z" unicode="A" />
<glyph horiz-adv-x="666" d="M 84 0 L 84 730 L 375 730 C 441 730 493 714 533 683 C 572 652 592 609 592 553 C 592 507 578 469 552 441 C 526 412 492 394 452 386 C 474 383 495 378 517 370 C 538 362 557 351 574 337 C 591 323 605 304 615 282 C 625 260 631 233 631 203 C 631 169 623 140 609 114 C 595 88 575 67 551 51 C 526 34 497 21 465 13 C 433 4 399 0 363 0 L 84 0 Z M 242 429 L 338 429 C 370 429 393 438 407 458 C 421 478 428 499 428 521 C 428 543 419 562 402 578 C 385 593 363 601 336 601 L 242 601 L 242 429 Z M 245 129 L 358 129 C 394 129 419 138 434 158 C 448 177 456 199 456 224 C 456 245 447 264 431 281 C 415 297 390 306 358 306 L 245 306 L 245 129 Z" unicode="B" />
<glyph horiz-adv-x="738" d="M 402 -12 C 351 -12 303 -3 259 14 C 215 32 177 57 145 89 C 113 121 87 161 69 208 C 50 254 41 307 41 365 C 41 421 50 472 68 519 C 86 565 112 605 144 638 C 176 671 215 697 259 715 C 303 733 351 742 403 742 C 469 742 527 732 578 712 C 629 692 672 658 706 612 L 580 509 C 560 533 537 552 510 566 C 482 580 448 587 406 587 C 342 587 293 567 261 527 C 228 487 212 436 212 374 C 212 332 217 296 229 266 C 241 236 256 211 276 192 C 296 173 318 159 344 150 C 369 141 395 137 423 137 C 463 137 498 145 527 162 C 555 179 579 202 598 231 L 720 147 C 694 103 655 65 601 34 C 547 3 481 -12 402 -12 Z" unicode="C" />
<glyph horiz-adv-x="767" d="M 84 0 L 84 730 L 350 730 C 411 730 465 721 513 704 C 560 686 599 662 631 631 C 662 599 686 562 702 518 C 718 474 726 425 726 372 C 726 320 717 271 700 226 C 683 180 658 141 625 108 C 592 74 551 48 501 29 C 451 9 395 0 331 0 L 84 0 Z M 254 131 L 330 131 C 368 131 401 137 429 151 C 457 164 479 182 497 204 C 515 226 528 251 536 280 C 544 309 549 339 549 370 C 549 437 531 492 497 535 C 462 577 411 599 344 599 L 254 599 L 254 131 Z" unicode="D" />
<glyph horiz-adv-x="620" d="M 570 0 L 84 0 L 84 730 L 551 730 L 551 591 L 251 591 L 251 428 L 529 428 L 529 295 L 251 295 L 251 139 L 570 139 L 570 0 Z" unicode="E" />
<glyph horiz-adv-x="568" d="M 528 591 L 254 591 L 254 428 L 513 428 L 513 291 L 254 291 L 254 0 L 84 0 L 84 730 L 528 730 L 528 591 Z" unicode="F" />
<glyph horiz-adv-x="794" d="M 419 395 L 750 395 L 750 153 C 721 107 677 68 618 36 C 559 4 492 -12 417 -12 C 362 -12 312 -3 266 13 C 220 30 180 55 147 87 C 113 119 87 158 69 205 C 50 252 41 305 41 365 C 41 423 50 476 70 523 C 90 569 116 609 150 641 C 184 673 223 698 269 716 C 315 733 363 742 415 742 C 451 742 485 738 515 732 C 545 725 571 716 594 705 C 617 694 637 682 655 669 C 672 655 686 642 697 630 L 591 513 C 573 531 551 548 524 563 C 497 578 459 586 409 586 C 381 586 354 581 330 573 C 305 565 284 552 266 534 C 248 516 234 494 224 467 C 214 440 209 408 209 372 C 209 291 228 230 268 189 C 308 147 359 127 421 127 C 463 127 499 134 531 148 C 562 162 583 182 595 208 L 595 258 L 419 258 L 419 395 Z" unicode="G" />
<glyph horiz-adv-x="784" d="M 700 0 L 530 0 L 530 287 L 254 287 L 254 0 L 84 0 L 84 730 L 254 730 L 254 431 L 530 431 L 530 730 L 700 730 L 700 0 Z" unicode="H" />
<glyph horiz-adv-x="346" d="M 258 0 L 88 0 L 88 730 L 258 730 L 258 0 Z" unicode="I" />
<glyph horiz-adv-x="459" d="M 377 730 L 377 206 C 377 175 371 146 361 120 C 350 93 335 70 315 51 C 295 31 270 16 242 5 C 213 -6 181 -12 146 -12 C 134 -12 122 -11 108 -10 C 94 -9 81 -7 67 -5 C 53 -2 41 1 29 5 C 17 9 7 14 0 20 L 63 149 C 69 145 78 142 88 140 C 98 138 109 137 120 137 C 148 137 170 144 185 160 C 199 175 207 193 207 214 L 207 730 L 377 730 Z" unicode="J" />
<glyph horiz-adv-x="715" d="M 719 0 L 505 0 L 308 285 L 252 216 L 252 0 L 84 0 L 84 730 L 252 730 L 252 412 L 500 730 L 686 730 L 430 404 L 719 0 Z" unicode="K" />
<glyph horiz-adv-x="578" d="M 565 0 L 84 0 L 84 730 L 254 730 L 254 139 L 565 139 L 565 0 Z" unicode="L" />
<glyph horiz-adv-x="958" d="M 875 0 L 717 0 L 717 389 L 513 91 L 447 91 L 238 389 L 238 0 L 84 0 L 84 730 L 197 730 L 487 291 L 761 730 L 875 730 L 875 0 Z" unicode="M" />
<glyph horiz-adv-x="791" d="M 707 0 L 588 0 L 241 441 L 241 0 L 84 0 L 84 730 L 212 730 L 552 299 L 552 730 L 707 730 L 707 0 Z" unicode="N" />
<glyph horiz-adv-x="830" d="M 418 -12 C 360 -12 308 -2 262 17 C 215 37 175 64 143 98 C 110 132 85 173 67 220 C 49 266 41 316 41 370 C 41 424 50 475 70 521 C 89 567 115 606 149 638 C 182 670 221 696 266 714 C 311 732 359 742 410 742 C 464 742 515 733 561 715 C 607 697 647 671 681 639 C 715 606 741 567 760 521 C 779 475 789 424 789 369 C 789 311 778 258 758 211 C 738 163 711 123 677 91 C 643 58 604 33 559 15 C 514 -3 467 -12 418 -12 Z M 421 135 C 449 135 475 139 499 149 C 523 159 545 173 563 192 C 581 211 595 235 605 264 C 615 293 621 327 621 365 C 621 399 615 429 604 457 C 593 484 578 507 559 527 C 539 546 516 561 490 571 C 464 581 436 587 406 587 C 378 587 352 582 328 573 C 304 563 283 550 265 532 C 247 514 234 491 224 464 C 214 437 209 406 209 371 C 209 334 214 301 225 272 C 235 242 250 217 269 197 C 287 177 310 161 336 151 C 362 140 390 135 421 135 Z" unicode="O" />
<glyph horiz-adv-x="655" d="M 84 0 L 84 730 L 387 730 C 422 730 455 724 485 713 C 515 702 540 687 562 667 C 583 647 600 622 612 593 C 624 564 630 532 630 496 C 630 424 606 365 560 321 C 513 277 452 255 378 255 L 254 255 L 254 0 L 84 0 Z M 251 386 L 361 386 C 392 386 416 396 433 416 C 450 436 459 462 459 496 C 459 529 449 554 429 571 C 409 588 384 597 355 597 L 251 597 L 251 386 Z" unicode="P" />
<glyph horiz-adv-x="830" d="M 704 -64 L 704 -201 C 626 -198 558 -179 499 -143 C 440 -107 397 -61 371 -3 C 318 1 271 14 230 34 C 188 54 154 80 126 112 C 98 144 76 182 62 226 C 48 270 41 318 41 370 C 41 422 50 470 68 516 C 86 562 112 601 144 635 C 176 668 215 694 261 713 C 307 732 357 742 411 742 C 465 742 515 733 562 716 C 608 698 648 674 682 642 C 715 610 741 570 760 523 C 779 476 789 423 789 365 C 789 322 783 282 771 244 C 759 206 742 171 720 141 C 698 111 671 84 640 62 C 608 40 574 23 536 12 C 554 -12 578 -30 608 -42 C 638 -54 670 -61 704 -64 Z M 420 133 C 448 133 474 137 499 146 C 523 155 544 169 562 188 C 580 206 594 230 604 258 C 614 286 620 319 620 357 C 620 395 614 428 603 457 C 591 486 576 510 556 529 C 536 548 513 562 487 572 C 461 582 433 587 404 587 C 348 587 301 568 264 530 C 227 492 209 440 209 372 C 209 332 214 298 226 268 C 238 238 253 213 272 193 C 291 173 313 158 339 148 C 365 138 392 133 420 133 Z" unicode="Q" />
<glyph horiz-adv-x="674" d="M 84 0 L 84 730 L 369 730 C 399 730 428 725 456 716 C 484 707 509 694 531 677 C 553 660 570 639 583 613 C 596 587 603 557 603 524 C 603 493 598 466 589 442 C 580 418 568 399 554 383 C 540 367 523 354 505 344 C 487 334 469 328 452 325 L 451 319 L 678 0 L 481 0 L 303 271 L 252 271 L 252 0 L 84 0 Z M 249 403 L 337 403 C 360 403 382 411 402 427 C 422 443 432 468 432 504 C 432 538 422 563 402 578 C 382 593 360 601 338 601 L 249 601 L 249 403 Z" unicode="R" />
<glyph horiz-adv-x="649" d="M 324 -12 C 258 -12 200 -4 152 12 C 103 28 62 49 30 77 L 119 212 C 140 191 169 172 207 154 C 244 136 285 127 330 127 C 358 127 380 132 397 143 C 414 154 423 169 423 189 C 423 209 414 226 398 241 C 381 255 347 272 295 291 C 250 307 212 322 182 338 C 151 354 126 371 108 390 C 89 408 75 430 67 454 C 59 478 55 506 55 539 C 55 601 79 651 129 687 C 178 723 242 742 322 742 C 384 742 435 732 477 714 C 518 696 551 677 575 659 L 496 521 C 468 541 439 558 409 573 C 378 587 346 595 314 595 C 286 595 264 590 249 580 C 234 570 227 556 227 538 C 227 517 238 499 262 485 C 286 471 325 453 380 432 C 418 417 452 402 480 388 C 508 374 531 358 549 341 C 567 323 580 303 588 281 C 596 258 601 231 601 200 C 601 166 593 135 578 109 C 563 83 543 61 518 43 C 493 25 464 11 430 2 C 396 -7 361 -12 324 -12 Z" unicode="S" />
<glyph horiz-adv-x="604" d="M 594 589 L 384 589 L 384 0 L 214 0 L 214 589 L 10 589 L 10 730 L 594 730 L 594 589 Z" unicode="T" />
<glyph horiz-adv-x="784" d="M 704 730 L 704 266 C 704 222 695 183 678 149 C 661 114 638 85 610 61 C 581 37 548 19 510 7 C 472 -5 432 -12 391 -12 C 349 -12 310 -6 272 6 C 234 18 201 35 173 59 C 145 83 122 112 105 147 C 88 181 80 221 80 266 L 80 730 L 246 730 L 246 274 C 246 230 260 196 288 172 C 316 148 350 137 390 137 C 430 137 465 148 494 172 C 523 195 538 229 538 274 L 538 730 L 704 730 Z" unicode="U" />
<glyph horiz-adv-x="705" d="M 710 730 L 407 -2 L 295 -2 L -5 730 L 181 730 L 353 279 L 533 730 L 710 730 Z" unicode="V" />
<glyph horiz-adv-x="952" d="M 948 730 L 721 -2 L 622 -2 L 477 446 L 324 -2 L 226 -2 L 4 730 L 179 730 L 304 305 L 435 730 L 533 730 L 669 303 L 791 730 L 948 730 Z" unicode="W" />
<glyph horiz-adv-x="681" d="M 481 0 L 335 229 L 188 0 L 13 0 L 248 367 L 16 730 L 209 730 L 344 518 L 480 730 L 655 730 L 431 380 L 673 0 L 481 0 Z" unicode="X" />
<glyph horiz-adv-x="710" d="M 717 730 L 437 286 L 437 0 L 267 0 L 267 293 L -7 730 L 183 730 L 360 442 L 539 730 L 717 730 Z" unicode="Y" />
<glyph horiz-adv-x="613" d="M 584 730 L 584 658 L 243 139 L 593 139 L 593 0 L 20 0 L 20 68 L 354 590 L 34 590 L 34 730 L 584 730 Z" unicode="Z" />
<glyph horiz-adv-x="388" d="M 363 -179 L 95 -179 L 95 730 L 363 730 L 363 606 L 244 606 L 244 -53 L 363 -53 L 363 -179 Z" unicode="[" />
<glyph horiz-adv-x="360" d="M -6 730 L 133 730 L 366 0 L 224 0 L -6 730 Z" unicode="\" />
<glyph horiz-adv-x="372" d="M 277 -179 L 25 -179 L 25 -56 L 128 -56 L 128 607 L 25 607 L 25 730 L 277 730 L 277 -179 Z" unicode="]" />
<glyph horiz-adv-x="520" d="M 471 369 L 336 369 L 259 564 L 181 369 L 49 369 L 193 730 L 326 730 L 471 369 Z" unicode="^" />
<glyph horiz-adv-x="500" d="M 500 -179 L 0 -179 L 0 -53 L 500 -53 L 500 -179 Z" unicode="_" />
<glyph horiz-adv-x="500" d="M 389 611 L 230 611 L 99 770 L 286 770 L 389 611 Z" unicode="`" />
<glyph horiz-adv-x="635" d="M 570 0 L 415 0 L 415 63 C 396 39 371 22 341 10 C 310 -2 270 -8 221 -8 C 159 -8 111 6 79 36 C 47 66 31 105 31 154 C 31 220 57 269 109 303 C 161 337 236 356 335 361 L 414 365 L 414 375 C 413 398 405 416 390 430 C 374 444 350 451 316 451 C 283 451 250 445 216 433 C 182 421 149 406 117 388 L 54 496 C 86 520 127 540 175 557 C 223 574 278 583 338 583 C 413 583 470 566 510 533 C 550 500 570 446 570 372 L 570 0 Z M 417 179 L 417 263 L 317 260 C 280 259 251 252 230 238 C 208 224 198 204 198 178 C 198 158 205 143 220 132 C 235 121 255 116 280 116 C 308 116 335 122 359 134 C 383 146 402 161 417 179 Z" unicode="a" />
<glyph horiz-adv-x="689" d="M 401 -5 C 352 -5 314 4 286 23 C 258 42 239 64 228 89 L 228 0 L 75 0 L 75 800 L 219 800 L 219 472 C 230 502 251 527 283 547 C 315 567 356 577 406 577 C 440 577 473 570 503 558 C 533 546 559 528 581 505 C 603 481 620 452 633 417 C 645 382 652 342 652 298 C 652 247 645 203 631 165 C 617 127 598 95 575 70 C 552 45 525 26 495 14 C 465 1 433 -5 401 -5 Z M 358 130 C 397 130 428 144 452 174 C 476 204 488 242 488 288 C 488 336 477 374 455 402 C 433 429 401 443 357 443 C 317 443 284 430 260 404 C 236 378 224 339 224 285 C 224 235 235 197 257 170 C 279 143 313 130 358 130 Z" unicode="b" />
<glyph horiz-adv-x="612" d="M 465 210 L 590 125 C 567 89 535 57 494 29 C 453 1 398 -12 329 -12 C 289 -12 251 -5 215 7 C 179 19 148 38 122 63 C 96 87 75 118 60 155 C 44 191 37 234 37 282 C 37 327 44 368 60 405 C 75 442 96 473 122 499 C 148 525 180 545 217 559 C 253 573 293 580 336 580 C 372 580 404 575 432 566 C 460 557 485 545 506 530 C 526 514 543 497 557 477 C 570 457 580 437 587 416 L 450 356 C 439 379 424 398 406 414 C 388 430 362 438 330 438 C 290 438 258 423 236 395 C 213 367 202 330 202 286 C 202 233 214 194 238 169 C 262 144 295 132 335 132 C 369 132 397 139 418 155 C 438 171 454 189 465 210 Z" unicode="c" />
<glyph horiz-adv-x="692" d="M 298 -11 C 262 -11 229 -4 197 7 C 165 19 138 38 114 63 C 90 88 72 119 58 157 C 44 194 38 238 38 288 C 38 328 45 366 61 402 C 76 438 96 468 121 494 C 146 520 175 540 208 555 C 241 570 275 578 311 578 C 339 578 369 571 399 557 C 429 543 450 526 464 508 L 464 800 L 617 800 L 617 0 L 473 0 L 473 83 C 469 74 461 64 450 53 C 439 42 426 32 410 22 C 394 12 377 4 358 -1 C 338 -7 318 -11 298 -11 Z M 330 123 C 375 123 409 137 431 167 C 453 196 464 236 464 286 C 464 342 452 383 428 407 C 404 431 373 443 335 443 C 292 443 259 429 237 401 C 214 373 203 335 203 286 C 203 238 214 198 236 168 C 258 138 290 123 330 123 Z" unicode="d" />
<glyph horiz-adv-x="650" d="M 336 -12 C 292 -12 251 -5 215 7 C 178 20 146 39 120 64 C 94 88 73 119 59 155 C 44 191 37 233 37 279 C 37 322 44 362 59 399 C 74 436 95 468 121 495 C 147 521 178 542 214 557 C 250 572 290 580 332 580 C 419 580 488 550 538 490 C 588 430 613 344 614 234 L 198 234 C 198 221 202 208 208 195 C 214 181 222 169 234 159 C 245 149 259 140 276 134 C 292 127 312 124 335 124 C 373 124 403 130 427 142 C 451 154 469 168 483 185 L 578 86 C 552 57 520 33 482 15 C 444 -2 396 -12 336 -12 Z M 199 340 L 448 340 C 446 370 434 396 412 416 C 390 436 361 447 327 447 C 291 447 261 436 239 414 C 216 392 203 367 199 340 Z" unicode="e" />
<glyph horiz-adv-x="386" d="M 382 434 L 258 434 L 258 0 L 98 0 L 98 434 L 6 434 L 6 567 L 98 567 L 98 612 C 98 644 103 672 113 696 C 123 720 137 739 155 755 C 173 770 193 781 217 789 C 240 797 264 801 290 801 C 310 801 332 798 356 793 C 380 787 398 781 410 775 L 372 656 C 364 660 355 663 344 667 C 333 670 322 672 312 672 C 298 672 285 666 274 656 C 263 645 258 629 258 609 L 258 567 L 382 567 L 382 434 Z" unicode="f" />
<glyph horiz-adv-x="689" d="M 291 15 C 255 15 222 21 191 35 C 160 49 133 68 111 92 C 89 116 71 146 58 180 C 45 214 39 252 39 293 C 39 380 62 449 110 500 C 158 551 221 577 299 577 C 341 577 377 569 409 553 C 440 537 461 517 473 495 L 473 567 L 617 567 L 617 73 C 617 26 607 -14 589 -49 C 570 -84 546 -113 517 -135 C 487 -157 454 -174 417 -186 C 380 -197 344 -203 309 -203 C 237 -203 181 -195 141 -180 C 100 -164 70 -150 52 -138 L 118 -22 C 132 -34 156 -45 188 -56 C 220 -67 255 -73 292 -73 C 344 -73 386 -61 417 -37 C 447 -13 463 19 463 63 L 463 115 C 458 105 451 94 442 82 C 432 70 420 60 406 50 C 392 40 375 31 356 25 C 336 18 315 15 291 15 Z M 334 144 C 369 144 399 156 425 181 C 450 206 463 244 463 294 C 463 336 453 370 434 396 C 414 422 382 435 338 435 C 296 435 263 422 239 396 C 215 370 203 333 203 283 C 203 233 214 198 237 176 C 260 154 292 144 334 144 Z" unicode="g" />
<glyph horiz-adv-x="663" d="M 595 0 L 436 0 L 436 372 C 436 390 428 407 413 421 C 398 435 377 442 349 442 C 320 442 294 433 270 417 C 246 401 234 378 234 349 L 234 0 L 75 0 L 75 800 L 219 800 L 219 483 C 227 509 248 532 280 551 C 312 569 354 579 404 579 C 429 579 453 575 477 568 C 500 560 520 550 538 536 C 555 522 569 506 579 486 C 589 466 595 445 595 421 L 595 0 Z" unicode="h" />
<glyph horiz-adv-x="318" d="M 77 645 L 77 790 L 241 790 L 241 645 L 77 645 Z M 79 0 L 79 567 L 239 567 L 239 0 L 79 0 Z" unicode="i" />
<glyph horiz-adv-x="340" d="M 272 645 L 109 645 L 109 790 L 272 790 L 272 645 Z M 270 567 L 270 7 C 270 -61 250 -113 210 -149 C 170 -184 119 -201 58 -201 C 36 -201 9 -198 -22 -194 C -54 -189 -81 -181 -105 -171 L -77 -51 C -66 -57 -51 -63 -32 -67 C -13 -71 6 -74 28 -74 C 58 -74 79 -63 91 -42 C 103 -21 110 3 110 32 L 110 567 L 270 567 Z" unicode="j" />
<glyph horiz-adv-x="635" d="M 670 1 L 485 0 L 309 220 L 234 143 L 234 0 L 75 0 L 75 800 L 234 800 L 234 305 L 467 567 L 632 567 L 413 324 L 670 1 Z" unicode="k" />
<glyph horiz-adv-x="366" d="M 66 163 L 66 800 L 226 800 L 226 214 C 226 192 232 174 244 158 C 256 142 276 135 304 135 C 311 135 321 135 333 136 C 345 137 353 138 358 139 L 359 0 C 352 -1 339 -2 320 -4 C 301 -5 284 -6 269 -6 C 243 -6 218 -2 194 4 C 170 10 148 21 129 35 C 110 49 95 66 83 88 C 71 109 66 134 66 163 Z" unicode="l" />
<glyph horiz-adv-x="1019" d="M 75 0 L 75 567 L 218 567 L 218 474 C 230 506 254 532 291 551 C 327 570 367 580 409 580 C 426 580 444 578 462 574 C 480 570 496 563 511 555 C 526 547 539 536 551 522 C 562 508 570 491 575 472 L 581 472 C 591 505 612 531 646 551 C 679 570 715 580 755 580 C 812 580 859 565 896 536 C 932 506 951 468 951 420 L 951 0 L 791 0 L 791 371 C 791 395 782 412 766 424 C 749 436 728 442 704 442 C 676 442 651 433 628 417 C 604 400 593 377 593 347 L 593 0 L 433 0 L 433 374 C 433 394 425 411 409 423 C 393 435 371 442 345 442 C 314 442 288 432 266 414 C 244 396 234 373 234 345 L 234 0 L 75 0 Z" unicode="m" />
<glyph horiz-adv-x="663" d="M 595 0 L 435 0 L 435 371 C 435 393 426 411 410 423 C 394 435 374 442 351 442 C 321 442 294 433 270 417 C 246 400 234 376 234 346 L 234 0 L 75 0 L 75 567 L 216 567 L 216 471 C 227 502 249 528 282 549 C 314 569 355 580 404 580 C 430 580 454 576 478 568 C 501 560 521 550 539 536 C 556 522 570 505 580 486 C 590 466 595 445 595 422 L 595 0 Z" unicode="n" />
<glyph horiz-adv-x="677" d="M 334 -12 C 296 -12 259 -5 223 7 C 187 19 156 38 128 62 C 100 86 78 117 62 154 C 45 191 37 234 37 283 C 37 327 45 367 62 404 C 78 440 100 471 128 497 C 156 523 187 543 223 558 C 259 572 296 580 334 580 C 376 580 415 573 453 561 C 491 549 523 531 551 507 C 578 483 600 453 616 418 C 632 383 640 343 640 299 C 640 251 631 208 615 170 C 598 131 576 98 548 72 C 520 45 487 24 450 10 C 412 -4 374 -12 334 -12 Z M 337 131 C 381 131 415 145 439 174 C 463 203 476 242 476 290 C 476 336 462 372 436 398 C 410 423 376 436 334 436 C 292 436 260 421 237 393 C 214 365 203 328 203 282 C 203 232 215 194 241 169 C 267 143 299 131 337 131 Z" unicode="o" />
<glyph horiz-adv-x="691" d="M 75 -198 L 75 567 L 219 567 L 219 463 C 229 497 251 525 283 546 C 315 566 355 577 401 577 C 437 577 470 571 501 559 C 532 547 559 530 582 506 C 604 482 622 453 635 417 C 647 381 654 339 654 291 C 654 243 647 200 634 164 C 620 127 602 96 579 71 C 556 46 529 27 498 15 C 466 2 433 -4 397 -4 C 359 -4 325 4 296 20 C 266 36 246 56 234 81 L 234 -198 L 75 -198 Z M 359 131 C 395 131 425 145 451 173 C 477 201 490 240 490 291 C 490 335 479 371 458 400 C 436 428 405 443 363 443 C 319 443 286 430 262 404 C 238 378 226 339 226 288 C 226 229 238 188 262 165 C 286 142 319 131 359 131 Z" unicode="p" />
<glyph horiz-adv-x="690" d="M 456 -198 L 456 77 C 440 55 417 35 389 17 C 360 0 326 -9 287 -9 C 251 -9 218 -2 188 10 C 158 22 131 41 109 65 C 87 89 69 119 57 154 C 44 188 38 228 38 272 C 38 319 45 361 60 399 C 74 436 94 467 119 493 C 143 519 172 538 205 552 C 238 566 273 573 309 573 C 329 573 349 570 367 564 C 385 558 401 550 415 541 C 429 531 442 521 452 511 C 462 500 469 490 473 482 L 473 567 L 616 567 L 616 -198 L 456 -198 Z M 335 123 C 375 123 407 136 429 164 C 451 192 463 232 463 286 C 463 341 451 381 429 405 C 407 429 374 442 331 442 C 287 442 254 428 233 400 C 212 372 202 333 202 283 C 202 233 213 193 237 165 C 261 137 293 123 335 123 Z" unicode="q" />
<glyph horiz-adv-x="510" d="M 522 546 L 437 400 C 426 412 413 422 397 428 C 381 434 363 437 345 437 C 316 437 290 427 268 407 C 245 387 234 362 234 330 L 234 0 L 75 0 L 75 567 L 218 567 L 218 466 C 222 480 229 493 239 507 C 249 520 263 532 279 543 C 295 554 313 563 334 570 C 355 576 378 580 403 580 C 429 580 453 577 473 571 C 493 565 509 557 522 546 Z" unicode="r" />
<glyph horiz-adv-x="566" d="M 311 -12 C 253 -12 202 -5 156 7 C 110 20 71 37 39 59 L 106 167 C 136 152 169 140 207 130 C 244 120 276 115 303 115 C 323 115 339 119 351 129 C 363 138 369 149 369 163 C 369 175 360 186 344 196 C 328 205 299 215 257 226 C 185 244 134 269 105 301 C 75 333 61 370 61 413 C 61 439 66 462 78 483 C 90 503 106 521 126 535 C 146 549 171 560 199 568 C 227 576 257 580 289 580 C 353 580 404 572 442 557 C 480 541 508 527 526 515 L 471 395 C 441 411 413 425 386 436 C 359 447 331 453 303 453 C 281 453 263 449 249 441 C 234 433 227 423 227 410 C 227 402 228 396 231 391 C 233 386 239 381 247 377 C 255 372 267 367 283 362 C 298 357 318 351 344 344 C 406 326 453 304 485 278 C 517 252 534 216 534 170 C 534 141 528 115 517 93 C 505 71 490 52 470 36 C 450 20 426 8 399 0 C 371 -7 342 -12 311 -12 Z" unicode="s" />
<glyph horiz-adv-x="416" d="M 390 150 L 415 21 C 399 11 379 4 354 0 C 328 -3 307 -6 289 -6 C 228 -6 178 10 140 45 C 101 79 82 131 82 199 L 82 435 L 8 435 L 8 567 L 82 567 L 82 706 L 241 724 L 241 567 L 387 567 L 387 435 L 241 435 L 241 211 C 241 187 246 168 257 154 C 267 140 285 133 310 133 C 328 133 343 135 357 139 C 371 143 382 146 390 150 Z" unicode="t" />
<glyph horiz-adv-x="663" d="M 69 567 L 228 567 L 228 212 C 228 181 236 158 254 143 C 272 128 296 121 327 121 C 358 121 383 130 401 148 C 419 166 429 189 429 218 L 429 567 L 589 567 L 589 0 L 445 0 L 445 92 C 435 64 414 39 383 18 C 352 -2 312 -13 262 -13 C 235 -13 210 -9 186 -1 C 162 6 142 17 125 31 C 107 45 94 63 84 84 C 74 104 69 128 69 154 L 69 567 Z" unicode="u" />
<glyph horiz-adv-x="601" d="M 612 567 L 349 -3 L 247 -3 L -11 567 L 166 567 L 305 247 L 445 567 L 612 567 Z" unicode="v" />
<glyph horiz-adv-x="824" d="M 536 -3 L 418 301 L 287 -3 L 194 -3 L -4 567 L 162 567 L 267 235 L 381 538 L 479 538 L 581 237 L 685 567 L 829 567 L 630 -3 L 536 -3 Z" unicode="w" />
<glyph horiz-adv-x="553" d="M 391 0 L 272 174 L 150 0 L -6 0 L 195 286 L 2 567 L 171 567 L 280 408 L 391 567 L 547 567 L 357 295 L 559 0 L 391 0 Z" unicode="x" />
<glyph horiz-adv-x="607" d="M 615 567 L 322 -60 C 310 -86 295 -108 277 -126 C 259 -144 240 -158 220 -169 C 200 -179 179 -187 157 -192 C 135 -197 115 -200 95 -200 C 72 -200 53 -197 38 -192 C 23 -186 12 -182 6 -180 L 51 -54 C 55 -56 61 -59 71 -61 C 80 -63 90 -65 100 -65 C 118 -65 133 -60 146 -50 C 158 -40 171 -24 184 -2 L 219 62 L -8 567 L 164 567 L 305 241 L 450 567 L 615 567 Z" unicode="y" />
<glyph horiz-adv-x="528" d="M 498 567 L 498 497 L 244 135 L 517 135 L 517 0 L 16 0 L 16 67 L 272 432 L 25 432 L 25 567 L 498 567 Z" unicode="z" />
<glyph horiz-adv-x="306" d="M 300 -179 C 260 -179 225 -174 194 -165 C 163 -155 137 -143 116 -128 C 95 -113 79 -96 68 -78 C 57 -59 52 -40 52 -22 C 52 -1 54 18 58 37 C 62 55 66 72 72 88 C 76 102 81 116 85 129 C 89 142 92 154 92 165 C 92 181 85 196 73 210 C 60 223 40 230 13 230 L 13 340 C 40 340 60 346 73 360 C 86 374 93 390 93 409 C 93 415 90 426 86 441 C 81 455 76 471 71 488 C 65 504 60 521 57 537 C 54 553 53 569 53 584 C 53 602 58 621 69 641 C 80 661 96 678 117 694 C 138 710 164 723 195 733 C 225 743 260 749 300 749 L 300 627 C 273 627 249 620 229 607 C 208 594 198 576 198 554 C 198 545 198 535 200 524 C 202 512 204 501 208 490 C 214 474 219 458 224 444 C 228 430 231 417 231 406 C 231 380 224 356 211 333 C 197 310 174 294 142 285 C 174 275 197 259 211 236 C 224 212 231 189 231 166 C 231 151 228 137 224 125 C 220 113 216 101 212 89 C 207 77 203 64 201 51 C 199 38 198 26 198 16 C 198 -4 208 -21 228 -35 C 248 -49 272 -57 300 -57 L 300 -179 Z" unicode="{" />
<glyph horiz-adv-x="272" d="M 210 -179 L 62 -179 L 62 730 L 210 730 L 210 -179 Z" unicode="|" />
<glyph horiz-adv-x="306" d="M 6 -179 L 6 -57 C 34 -57 58 -49 78 -35 C 98 -21 108 -4 108 16 C 108 26 106 38 104 51 C 102 64 98 77 94 89 C 89 101 85 113 81 125 C 77 137 75 151 75 166 C 75 189 81 212 95 236 C 108 259 131 275 164 285 C 131 294 108 310 95 333 C 81 356 75 380 75 406 C 75 417 77 430 82 444 C 86 458 92 474 98 490 C 101 501 103 512 105 524 C 107 535 108 545 108 554 C 108 576 97 594 77 607 C 56 620 32 627 6 627 L 6 749 C 45 749 80 743 111 733 C 141 723 167 710 188 694 C 209 678 225 661 236 641 C 247 621 253 602 253 584 C 253 569 251 553 248 537 C 244 521 240 504 235 488 C 229 471 224 455 220 441 C 215 426 213 415 213 409 C 213 390 219 374 232 360 C 245 346 265 340 293 340 L 293 230 C 265 230 245 223 233 210 C 220 196 214 181 214 165 C 214 154 216 142 220 129 C 224 116 229 102 234 88 C 239 72 244 55 248 37 C 252 18 254 -1 254 -22 C 254 -40 248 -59 237 -78 C 226 -96 210 -113 189 -128 C 168 -143 142 -155 111 -165 C 80 -174 45 -179 6 -179 Z" unicode="}" />
<glyph horiz-adv-x="500" d="M 360 455 L 485 455 C 485 387 474 336 452 302 C 430 268 399 252 357 252 C 331 252 310 255 292 263 C 274 271 259 279 247 288 C 235 296 224 303 213 310 C 201 316 189 320 177 320 C 166 320 157 313 150 301 C 142 289 139 273 139 255 L 17 255 C 17 326 26 378 45 412 C 64 445 90 462 123 462 C 153 462 178 458 198 450 C 218 442 237 433 255 423 C 267 415 278 408 290 401 C 302 394 314 391 326 391 C 341 391 350 397 354 409 C 358 421 360 437 360 455 Z" unicode="~" />
<glyph horiz-adv-x="344" d="M 86 596 L 257 596 L 257 430 L 86 430 L 86 596 Z M 78 161 L 133 345 L 215 345 L 266 161 L 266 -134 L 78 -134 L 78 161 Z" unicode="¡" />
<glyph horiz-adv-x="606" d="M 582 221 C 562 190 534 162 500 137 C 466 111 420 96 364 92 L 364 -36 L 286 -36 L 286 92 C 252 96 220 105 190 119 C 160 133 135 152 114 176 C 92 199 75 227 63 260 C 51 292 45 329 45 371 C 45 410 51 446 63 479 C 75 511 91 540 113 564 C 134 588 159 607 189 623 C 219 639 251 649 286 654 L 286 772 L 364 772 L 364 656 C 423 651 471 633 507 603 C 543 573 567 539 580 501 L 451 444 C 439 467 423 486 404 501 C 385 516 360 524 329 524 C 289 524 257 510 235 482 C 212 454 201 419 201 375 C 201 324 213 286 237 261 C 261 236 294 224 335 224 C 369 224 396 232 417 248 C 438 264 454 282 465 302 L 582 221 Z" unicode="¢" />
<glyph horiz-adv-x="616" d="M 599 119 L 599 0 L 27 0 L 27 93 C 32 97 41 101 54 105 C 67 109 84 113 105 117 C 133 121 157 131 177 146 C 197 160 210 179 216 202 L 51 202 L 51 294 L 188 294 C 182 302 175 312 168 322 C 160 332 153 342 147 353 L 51 353 L 51 445 L 98 445 C 92 460 88 476 84 494 C 80 512 79 530 79 549 C 79 583 86 613 100 638 C 114 662 132 682 156 698 C 180 713 207 724 238 731 C 269 738 302 742 336 742 C 364 742 391 739 418 735 C 445 730 470 724 493 717 C 516 709 537 701 555 692 C 573 683 587 674 598 666 L 520 550 C 502 560 477 570 445 582 C 412 594 378 600 342 600 C 317 600 295 593 276 580 C 256 567 247 546 247 518 C 247 506 249 494 253 482 C 257 470 263 457 270 445 L 528 445 L 528 353 L 327 353 C 333 343 338 333 343 323 C 348 313 352 304 355 294 L 528 294 L 528 202 L 351 202 C 342 178 329 160 313 146 C 296 132 278 123 260 119 L 599 119 Z" unicode="£" />
<glyph horiz-adv-x="502" d="M 448 194 L 397 143 L 343 199 C 329 191 315 184 299 180 C 283 176 266 174 250 174 C 233 174 217 176 201 180 C 185 184 171 190 157 198 L 103 143 L 51 195 L 102 247 C 90 261 81 278 75 296 C 69 314 66 334 66 354 C 66 374 69 394 75 412 C 81 430 90 447 102 462 L 51 515 L 102 566 L 157 510 C 170 517 185 523 201 527 C 217 531 233 534 250 534 C 266 534 283 531 299 527 C 315 523 329 517 343 509 L 399 566 L 450 514 L 398 460 C 408 445 417 429 423 411 C 429 393 433 374 433 354 C 433 334 429 314 423 296 C 417 277 408 260 397 246 L 448 194 Z M 250 273 C 272 273 292 281 309 297 C 326 313 335 332 335 354 C 335 376 326 395 309 411 C 292 427 272 435 250 435 C 226 435 206 427 190 411 C 173 395 165 376 165 354 C 165 332 173 313 190 297 C 206 281 226 273 250 273 Z" unicode="¤" />
<glyph horiz-adv-x="721" d="M 619 94 L 442 94 L 442 0 L 272 0 L 272 94 L 95 94 L 95 185 L 272 185 L 272 230 L 94 230 L 94 322 L 258 322 L 13 730 L 202 730 L 365 444 L 530 730 L 708 730 L 461 322 L 618 322 L 618 230 L 442 230 L 442 185 L 619 185 L 619 94 Z" unicode="¥" />
<glyph horiz-adv-x="304" d="M 85 351 L 85 730 L 219 730 L 219 351 L 85 351 Z M 219 200 L 219 -179 L 85 -179 L 85 200 L 219 200 Z" unicode="¦" />
<glyph horiz-adv-x="676" d="M 354 -182 C 294 -182 238 -175 187 -162 C 135 -148 92 -131 58 -109 L 124 19 C 140 9 158 0 178 -9 C 198 -18 217 -26 237 -33 C 257 -39 276 -44 295 -48 C 314 -52 331 -54 346 -54 C 370 -54 389 -48 402 -37 C 415 -26 422 -11 422 7 C 422 24 413 37 397 47 C 380 57 356 68 324 81 L 252 111 C 217 125 186 137 160 149 C 133 161 111 174 93 188 C 75 202 62 219 53 238 C 44 256 40 280 40 308 C 40 338 47 363 61 385 C 75 406 93 424 116 440 C 98 454 85 472 77 492 C 69 512 65 537 65 565 C 65 593 71 618 84 640 C 97 662 115 680 139 695 C 163 710 191 722 224 730 C 256 738 292 742 332 742 C 397 742 450 733 492 717 C 534 700 567 684 592 668 L 524 549 C 495 567 464 584 432 598 C 400 612 365 620 328 620 C 297 620 273 615 257 605 C 240 595 232 582 232 565 C 232 551 240 539 256 529 C 272 519 296 508 329 498 L 425 463 C 460 451 491 440 517 428 C 543 416 565 403 583 389 C 601 374 614 357 623 337 C 632 317 637 294 637 267 C 637 231 626 201 604 177 C 582 153 555 135 522 124 C 540 113 556 98 570 78 C 583 58 590 33 590 5 C 590 -24 584 -50 572 -74 C 560 -97 543 -117 522 -133 C 501 -149 476 -161 447 -169 C 418 -177 387 -182 354 -182 Z M 411 204 C 429 206 444 210 456 218 C 468 226 474 238 474 255 C 474 271 465 286 447 298 C 429 310 391 326 333 345 L 255 374 C 238 369 225 363 216 355 C 206 347 202 335 202 321 C 202 302 211 286 229 274 C 247 261 285 246 343 229 L 411 204 Z" unicode="§" />
<glyph horiz-adv-x="500" d="M 419 612 L 286 612 L 286 775 L 419 775 L 419 612 Z M 214 612 L 81 612 L 81 775 L 214 775 L 214 612 Z" unicode="¨" />
<glyph horiz-adv-x="849" d="M 424 -12 C 372 -12 323 -2 277 18 C 231 38 191 64 157 98 C 123 132 97 172 77 218 C 57 264 47 313 47 365 C 47 417 57 466 77 512 C 97 558 123 597 157 631 C 191 665 231 692 277 712 C 323 732 372 742 424 742 C 476 742 525 732 571 712 C 617 692 656 665 690 631 C 724 597 751 558 771 512 C 791 466 801 417 801 365 C 801 313 791 264 771 218 C 751 172 724 132 690 98 C 656 64 617 38 571 18 C 525 -2 476 -12 424 -12 Z M 425 65 C 466 65 505 72 541 88 C 577 104 609 125 636 152 C 662 179 683 211 699 247 C 715 283 723 322 723 364 C 723 405 715 444 699 480 C 683 516 662 548 636 575 C 609 602 577 624 541 640 C 505 656 466 664 425 664 C 383 664 344 656 308 640 C 272 624 240 602 213 575 C 186 548 165 516 149 480 C 133 444 126 405 126 364 C 126 322 133 283 149 247 C 165 211 186 179 213 152 C 240 125 272 104 308 88 C 344 72 383 65 425 65 Z M 603 246 C 586 220 563 199 534 181 C 504 163 467 155 421 155 C 394 155 368 159 343 168 C 318 177 296 190 278 208 C 260 226 245 248 234 275 C 222 301 217 332 217 368 C 217 404 222 435 233 463 C 243 490 258 513 276 532 C 294 550 316 564 341 574 C 365 583 391 588 419 588 C 467 588 505 579 534 563 C 563 546 585 525 601 500 L 505 433 C 498 445 488 456 475 464 C 462 472 445 476 425 476 C 399 476 378 465 362 444 C 346 423 339 396 339 364 C 339 330 347 304 364 286 C 380 268 400 259 424 259 C 444 259 462 263 476 272 C 490 280 502 292 512 308 L 603 246 Z" unicode="©" />
<glyph horiz-adv-x="547" d="M 489 258 L 358 258 L 358 311 C 342 291 319 276 291 266 C 262 256 230 252 196 252 C 144 252 104 265 76 293 C 48 320 35 357 35 405 C 35 455 56 493 98 520 C 140 547 203 562 286 565 L 360 568 L 360 576 C 360 590 353 602 339 611 C 325 619 304 624 275 624 C 247 624 219 619 190 611 C 161 602 133 590 106 575 L 55 671 C 82 691 116 708 157 722 C 197 736 243 743 294 743 C 356 743 404 729 438 702 C 472 675 489 631 489 569 L 489 258 Z M 355 412 L 355 476 L 274 473 C 245 472 222 467 205 458 C 188 448 180 433 180 412 C 180 396 186 384 198 376 C 210 367 227 363 247 363 C 269 363 290 367 309 375 C 328 383 343 396 355 412 Z M 503 110 L 43 110 L 43 209 L 503 209 L 503 110 Z" unicode="ª" />
<glyph horiz-adv-x="516" d="M 237 71 L 24 269 L 24 366 L 237 560 L 237 395 L 159 318 L 237 241 L 237 71 Z M 485 71 L 270 269 L 270 366 L 485 560 L 485 395 L 407 318 L 485 241 L 485 71 Z" unicode="«" />
<glyph horiz-adv-x="500" d="M 455 426 L 455 127 L 323 127 L 323 289 L 27 289 L 27 426 L 455 426 Z" unicode="¬" />
<glyph horiz-adv-x="849" d="M 424 -12 C 372 -12 323 -2 277 18 C 231 38 191 64 157 98 C 123 132 97 172 77 218 C 57 264 47 313 47 365 C 47 417 57 466 77 512 C 97 558 123 597 157 631 C 191 665 231 692 277 712 C 323 732 372 742 424 742 C 476 742 525 732 571 712 C 617 692 656 665 690 631 C 724 597 751 558 771 512 C 791 466 801 417 801 365 C 801 313 791 264 771 218 C 751 172 724 132 690 98 C 656 64 617 38 571 18 C 525 -2 476 -12 424 -12 Z M 126 364 C 126 322 133 283 149 247 C 165 211 186 179 213 152 C 240 125 272 104 308 88 C 344 72 383 65 424 65 C 466 65 505 73 543 90 C 581 106 613 129 641 158 L 518 158 L 413 315 L 376 315 L 376 158 L 267 158 L 267 590 L 450 590 C 468 590 485 587 503 582 C 520 577 535 570 549 560 C 562 550 573 537 581 521 C 589 505 594 487 594 466 C 594 428 584 399 566 381 C 548 362 528 351 508 347 L 507 343 L 642 159 C 666 185 686 216 701 252 C 715 287 723 324 723 364 C 723 405 715 444 699 480 C 683 516 662 548 635 575 C 608 602 576 624 540 640 C 504 656 465 664 424 664 C 383 664 344 656 308 640 C 272 624 240 602 213 575 C 186 548 165 516 149 480 C 133 444 126 405 126 364 Z M 375 401 L 441 401 C 453 401 464 405 474 414 C 483 423 488 437 488 455 C 488 473 482 486 471 494 C 460 502 448 506 436 506 L 375 506 L 375 401 Z" unicode="®" />
<glyph horiz-adv-x="500" d="M 398 615 L 102 615 L 102 736 L 398 736 L 398 615 Z" unicode="¯" />
<glyph horiz-adv-x="436" d="M 218 366 C 192 366 167 371 144 381 C 121 391 101 404 85 421 C 68 437 55 457 45 480 C 35 503 30 528 30 554 C 30 580 35 604 45 627 C 55 650 68 670 85 687 C 101 703 121 717 144 727 C 167 737 192 742 218 742 C 244 742 268 737 291 727 C 314 717 334 703 351 687 C 367 670 381 650 391 627 C 401 604 406 580 406 554 C 406 528 401 503 391 480 C 381 457 367 437 351 421 C 334 404 314 391 291 381 C 268 371 244 366 218 366 Z M 218 470 C 240 470 260 478 278 495 C 295 511 304 531 304 554 C 304 576 295 596 278 613 C 260 629 240 638 218 638 C 195 638 175 629 158 613 C 140 596 132 576 132 554 C 132 531 140 511 158 495 C 175 478 195 470 218 470 Z" unicode="°" />
<glyph horiz-adv-x="500" d="M 479 132 L 479 13 L 22 13 L 22 132 L 184 132 L 184 271 L 19 271 L 19 391 L 184 391 L 184 560 L 317 560 L 317 391 L 481 391 L 481 271 L 317 271 L 317 132 L 479 132 Z" unicode="±" />
<glyph horiz-adv-x="342" d="M 329 372 L 13 372 L 13 406 L 175 570 C 181 577 186 584 190 591 C 193 597 195 605 195 615 C 195 623 192 631 186 637 C 180 643 172 647 160 647 C 145 647 135 642 130 634 C 124 625 122 615 122 605 L 9 605 C 9 646 24 679 54 704 C 84 728 125 741 175 741 C 224 741 261 731 286 712 C 310 692 323 669 323 641 C 323 614 318 592 308 575 C 298 558 287 544 275 532 L 210 465 L 329 465 L 329 372 Z" unicode="²" />
<glyph horiz-adv-x="346" d="M 235 568 C 259 563 278 552 293 536 C 308 519 316 499 316 476 C 316 465 313 453 309 440 C 304 426 296 414 285 403 C 273 391 257 382 237 374 C 217 366 191 363 161 363 C 115 363 79 368 55 379 C 31 390 13 401 2 411 L 53 470 C 62 463 73 457 87 452 C 101 446 118 444 139 444 C 163 444 181 448 191 456 C 201 464 206 475 206 489 C 206 503 199 513 185 517 C 171 521 154 524 136 524 L 69 524 L 69 603 L 134 603 C 148 603 161 605 172 610 C 182 615 188 623 188 634 C 188 643 184 650 176 654 C 168 658 158 660 145 660 C 126 660 110 657 96 651 C 82 645 70 639 61 632 L 14 690 C 24 700 40 712 64 724 C 88 736 121 742 163 742 C 201 742 234 734 261 718 C 287 702 301 678 301 648 C 301 627 294 610 280 596 C 266 582 251 572 235 568 Z" unicode="³" />
<glyph horiz-adv-x="500" d="M 113 616 L 214 774 L 402 774 L 271 616 L 113 616 Z" unicode="´" />
<glyph horiz-adv-x="639" d="M 69 -134 L 69 567 L 224 567 L 224 196 C 224 178 232 160 248 143 C 264 126 286 118 316 118 C 340 118 362 129 382 152 C 401 175 411 202 411 233 L 411 567 L 566 567 L 566 0 L 423 0 L 423 70 C 410 50 389 34 361 21 C 333 7 305 0 278 -3 C 265 -3 252 -2 240 2 C 227 6 218 11 212 19 L 212 -134 L 69 -134 Z" unicode="µ" />
<glyph horiz-adv-x="711" d="M 652 -179 L 548 -179 L 548 607 L 475 607 L 475 -179 L 371 -179 L 371 247 L 262 247 C 231 247 201 253 172 266 C 143 279 118 296 96 318 C 74 339 56 364 43 393 C 29 422 23 453 23 485 C 23 519 29 552 42 582 C 54 612 72 637 94 659 C 116 681 144 698 176 711 C 208 723 243 730 282 730 L 652 730 L 652 -179 Z M 371 376 L 371 601 L 324 601 C 292 601 267 590 247 569 C 227 548 217 521 217 489 C 217 457 227 431 247 409 C 267 387 291 376 319 376 L 371 376 Z" unicode="¶" />
<glyph horiz-adv-x="301" d="M 229 256 L 72 256 L 72 426 L 229 426 L 229 256 Z" unicode="·" />
<glyph horiz-adv-x="500" d="M 260 -195 C 232 -195 204 -192 176 -186 C 148 -180 127 -172 113 -163 L 131 -96 C 139 -99 150 -103 164 -107 C 178 -111 192 -113 206 -113 C 214 -113 222 -111 228 -107 C 234 -103 238 -98 238 -92 C 238 -85 235 -80 229 -77 C 223 -74 217 -73 211 -73 C 206 -73 202 -73 198 -74 C 194 -74 190 -75 186 -77 L 166 -56 L 227 13 L 322 13 L 276 -41 C 309 -37 336 -43 357 -57 C 377 -71 388 -90 388 -115 C 388 -142 374 -162 348 -175 C 322 -188 292 -195 260 -195 Z" unicode="¸" />
<glyph horiz-adv-x="323" d="M 122 372 L 122 606 C 118 601 112 597 104 593 C 96 589 88 585 80 583 C 71 581 63 579 55 578 C 47 576 41 575 37 575 L 37 679 C 63 679 85 684 104 693 C 122 702 144 717 169 738 L 247 738 L 247 372 L 122 372 Z" unicode="¹" />
<glyph horiz-adv-x="557" d="M 274 246 C 243 246 213 251 184 261 C 154 271 128 287 106 308 C 83 328 65 354 51 385 C 37 415 31 451 31 492 C 31 528 37 561 51 591 C 65 621 83 648 106 670 C 128 692 154 709 184 721 C 213 733 243 740 275 740 C 309 740 342 734 373 724 C 403 714 430 699 452 679 C 474 659 492 634 506 604 C 519 574 526 541 526 504 C 526 464 519 429 505 397 C 491 365 472 338 449 316 C 426 294 399 276 369 264 C 339 252 307 246 274 246 Z M 274 369 C 308 369 335 380 356 404 C 377 428 388 461 388 503 C 388 540 378 568 359 588 C 340 608 314 618 281 618 C 247 618 219 606 199 584 C 179 561 169 527 169 483 C 169 447 178 419 197 399 C 215 379 241 369 274 369 Z M 49 110 L 49 209 L 509 209 L 509 110 L 49 110 Z" unicode="º" />
<glyph horiz-adv-x="518" d="M 30 560 L 246 363 L 246 266 L 30 71 L 30 237 L 108 314 L 30 390 L 30 560 Z M 280 560 L 494 363 L 494 266 L 280 71 L 280 237 L 359 314 L 280 391 L 280 560 Z" unicode="»" />
<glyph horiz-adv-x="705" d="M 6 0 L 6 0 Z M 91 372 L 91 606 C 87 601 81 597 73 593 C 65 589 57 585 49 583 C 40 581 32 579 24 578 C 16 576 10 575 6 575 L 6 679 C 32 679 54 684 73 693 C 91 702 113 717 138 738 L 216 738 L 216 372 L 91 372 Z M 592 730 L 252 0 L 134 0 L 474 730 L 592 730 Z M 391 81 L 391 153 L 569 362 L 647 362 L 647 158 L 698 158 L 698 81 L 647 81 L 647 1 L 541 1 L 541 81 L 391 81 Z M 477 149 L 544 149 L 544 229 L 477 149 Z" unicode="¼" />
<glyph horiz-adv-x="779" d="M 6 0 L 6 0 Z M 91 372 L 91 606 C 87 601 81 597 73 593 C 65 589 57 585 49 583 C 40 581 32 579 24 578 C 16 576 10 575 6 575 L 6 679 C 32 679 54 684 73 693 C 91 702 113 717 138 738 L 216 738 L 216 372 L 91 372 Z M 592 730 L 252 0 L 134 0 L 474 730 L 592 730 Z M 768 0 L 452 0 L 452 34 L 614 198 C 620 205 625 212 629 219 C 632 225 634 233 634 243 C 634 251 631 259 625 265 C 619 271 611 275 599 275 C 584 275 574 270 569 262 C 563 253 561 243 561 233 L 448 233 C 448 274 463 307 493 332 C 523 356 564 369 614 369 C 663 369 700 359 725 340 C 749 320 762 297 762 269 C 762 242 757 220 747 203 C 737 186 726 172 714 160 L 649 93 L 768 93 L 768 0 Z" unicode="½" />
<glyph horiz-adv-x="755" d="M 7 0 L 7 0 Z M 642 730 L 302 0 L 184 0 L 524 730 L 642 730 Z M 441 81 L 441 153 L 619 362 L 697 362 L 697 158 L 748 158 L 748 81 L 697 81 L 697 1 L 591 1 L 591 81 L 441 81 Z M 527 149 L 594 149 L 594 229 L 527 149 Z M 240 568 C 264 563 283 552 298 536 C 313 519 321 499 321 476 C 321 465 318 453 314 440 C 309 426 301 414 290 403 C 278 391 262 382 242 374 C 222 366 196 363 166 363 C 120 363 84 368 60 379 C 36 390 18 401 7 411 L 58 470 C 67 463 78 457 92 452 C 106 446 123 444 144 444 C 168 444 186 448 196 456 C 206 464 211 475 211 489 C 211 503 204 513 190 517 C 176 521 159 524 141 524 L 74 524 L 74 603 L 139 603 C 153 603 166 605 177 610 C 187 615 193 623 193 634 C 193 643 189 650 181 654 C 173 658 163 660 150 660 C 131 660 115 657 101 651 C 87 645 75 639 66 632 L 19 690 C 29 700 45 712 69 724 C 93 736 126 742 168 742 C 206 742 239 734 266 718 C 292 702 306 678 306 648 C 306 627 299 610 285 596 C 271 582 256 572 240 568 Z" unicode="¾" />
<glyph horiz-adv-x="498" d="M 179 439 L 179 596 L 356 596 L 356 439 L 179 439 Z M 256 -146 C 222 -146 189 -141 159 -132 C 129 -122 103 -109 81 -93 C 59 -76 41 -56 29 -32 C 16 -8 10 17 10 46 C 10 73 13 97 21 117 C 29 137 38 155 50 170 C 61 184 73 197 87 207 C 101 217 114 226 126 234 C 152 251 170 270 179 292 C 187 314 192 337 192 363 L 350 363 C 350 318 344 282 334 256 C 323 229 300 204 266 182 C 237 163 215 146 200 130 C 184 114 177 94 177 70 C 177 47 186 29 205 17 C 224 4 247 -2 274 -2 C 300 -2 323 4 345 16 C 366 28 382 41 394 56 L 498 -46 C 489 -57 477 -68 462 -80 C 447 -92 430 -102 410 -112 C 390 -122 367 -130 341 -136 C 315 -142 286 -146 256 -146 Z" unicode="¿" />
<glyph horiz-adv-x="685" d="M 0 0 L 0 0 Z M 690 0 L 509 0 L 461 121 L 209 121 L 164 0 L -5 0 L 291 731 L 404 731 L 690 0 Z M 426 240 L 334 481 L 245 240 L 426 240 Z M 340 774 L 340 774 Z M 485 774 L 326 774 L 195 933 L 382 933 L 485 774 Z" unicode="À" />
<glyph horiz-adv-x="685" d="M 0 0 L 0 0 Z M 690 0 L 509 0 L 461 121 L 209 121 L 164 0 L -5 0 L 291 731 L 404 731 L 690 0 Z M 426 240 L 334 481 L 245 240 L 426 240 Z M 340 779 L 340 779 Z M 196 779 L 297 937 L 485 937 L 354 779 L 196 779 Z" unicode="Á" />
<glyph horiz-adv-x="685" d="M 0 0 L 0 0 Z M 690 0 L 509 0 L 461 121 L 209 121 L 164 0 L -5 0 L 291 731 L 404 731 L 690 0 Z M 426 240 L 334 481 L 245 240 L 426 240 Z M 340 775 L 340 775 Z M 544 775 L 399 775 L 339 857 L 279 775 L 137 775 L 260 949 L 421 949 L 544 775 Z" unicode="Â" />
<glyph horiz-adv-x="685" d="M 0 0 L 0 0 Z M 690 0 L 509 0 L 461 121 L 209 121 L 164 0 L -5 0 L 291 731 L 404 731 L 690 0 Z M 426 240 L 334 481 L 245 240 L 426 240 Z M 340 776 L 340 776 Z M 411 935 L 536 935 C 536 881 527 841 509 815 C 491 789 467 776 435 776 C 418 776 402 778 388 783 C 374 788 360 794 348 802 C 338 807 329 813 320 820 C 310 826 301 830 293 830 C 284 830 277 825 273 817 C 269 809 266 796 266 779 L 144 779 C 144 805 147 829 154 849 C 160 869 169 886 180 899 C 190 912 202 922 216 929 C 229 935 242 939 255 939 C 273 939 289 936 302 931 C 314 925 326 919 337 911 C 345 904 353 899 360 895 C 367 891 374 889 381 889 C 388 889 395 892 401 900 C 407 907 410 919 411 935 Z" unicode="Ã" />
<glyph horiz-adv-x="685" d="M 0 0 L 0 0 Z M 690 0 L 509 0 L 461 121 L 209 121 L 164 0 L -5 0 L 291 731 L 404 731 L 690 0 Z M 426 240 L 334 481 L 245 240 L 426 240 Z M 340 775 L 340 775 Z M 509 775 L 376 775 L 376 938 L 509 938 L 509 775 Z M 304 775 L 171 775 L 171 938 L 304 938 L 304 775 Z" unicode="Ä" />
<glyph horiz-adv-x="685" d="M 0 0 L 0 0 Z M 690 0 L 509 0 L 461 121 L 209 121 L 164 0 L -5 0 L 291 731 L 404 731 L 690 0 Z M 426 240 L 334 481 L 245 240 L 426 240 Z M 340 771 L 340 771 Z M 340 771 C 305 771 275 783 251 808 C 226 832 214 862 214 898 C 214 932 226 962 251 987 C 275 1011 305 1024 340 1024 C 375 1024 405 1011 430 987 C 454 962 467 932 467 898 C 467 862 454 832 430 808 C 405 783 375 771 340 771 Z M 340 852 C 352 852 363 856 372 865 C 380 873 385 884 385 898 C 385 910 380 921 372 930 C 363 938 352 943 340 943 C 327 943 316 938 308 930 C 299 921 295 910 295 898 C 295 884 299 873 308 865 C 316 856 327 852 340 852 Z" unicode="Å" />
<glyph horiz-adv-x="1025" d="M 977 0 L 509 0 L 509 216 L 271 216 L 137 0 L -43 0 L 413 730 L 958 730 L 958 591 L 658 591 L 658 427 L 937 427 L 937 296 L 658 296 L 658 139 L 977 139 L 977 0 Z M 509 350 L 509 618 L 343 350 L 509 350 Z" unicode="Æ" />
<glyph horiz-adv-x="738" d="M 41 0 L 41 0 Z M 402 -12 C 351 -12 303 -3 259 14 C 215 32 177 57 145 89 C 113 121 87 161 69 208 C 50 254 41 307 41 365 C 41 421 50 472 68 519 C 86 565 112 605 144 638 C 176 671 215 697 259 715 C 303 733 351 742 403 742 C 469 742 527 732 578 712 C 629 692 672 658 706 612 L 580 509 C 560 533 537 552 510 566 C 482 580 448 587 406 587 C 342 587 293 567 261 527 C 228 487 212 436 212 374 C 212 332 217 296 229 266 C 241 236 256 211 276 192 C 296 173 318 159 344 150 C 369 141 395 137 423 137 C 463 137 498 145 527 162 C 555 179 579 202 598 231 L 720 147 C 694 103 655 65 601 34 C 547 3 481 -12 402 -12 Z M 393 -5 L 393 -5 Z M 402 -200 C 374 -200 346 -197 318 -191 C 290 -185 269 -177 255 -168 L 273 -101 C 281 -104 292 -108 306 -112 C 320 -116 334 -118 348 -118 C 356 -118 364 -116 370 -112 C 376 -108 380 -103 380 -97 C 380 -90 377 -85 371 -82 C 365 -79 359 -78 353 -78 C 348 -78 344 -78 340 -79 C 336 -79 332 -80 328 -82 L 308 -61 L 369 8 L 464 8 L 418 -46 C 451 -42 478 -48 499 -62 C 519 -76 530 -95 530 -120 C 530 -147 516 -167 490 -180 C 464 -193 434 -200 402 -200 Z" unicode="Ç" />
<glyph horiz-adv-x="620" d="M 84 0 L 84 0 Z M 570 0 L 84 0 L 84 730 L 551 730 L 551 591 L 251 591 L 251 428 L 529 428 L 529 295 L 251 295 L 251 139 L 570 139 L 570 0 Z M 326 774 L 326 774 Z M 471 774 L 312 774 L 181 933 L 368 933 L 471 774 Z" unicode="È" />
<glyph horiz-adv-x="620" d="M 84 0 L 84 0 Z M 570 0 L 84 0 L 84 730 L 551 730 L 551 591 L 251 591 L 251 428 L 529 428 L 529 295 L 251 295 L 251 139 L 570 139 L 570 0 Z M 326 779 L 326 779 Z M 182 779 L 283 937 L 471 937 L 340 779 L 182 779 Z" unicode="É" />
<glyph horiz-adv-x="620" d="M 84 0 L 84 0 Z M 570 0 L 84 0 L 84 730 L 551 730 L 551 591 L 251 591 L 251 428 L 529 428 L 529 295 L 251 295 L 251 139 L 570 139 L 570 0 Z M 326 775 L 326 775 Z M 530 775 L 385 775 L 325 857 L 265 775 L 123 775 L 246 949 L 407 949 L 530 775 Z" unicode="Ê" />
<glyph horiz-adv-x="620" d="M 84 0 L 84 0 Z M 570 0 L 84 0 L 84 730 L 551 730 L 551 591 L 251 591 L 251 428 L 529 428 L 529 295 L 251 295 L 251 139 L 570 139 L 570 0 Z M 326 775 L 326 775 Z M 495 775 L 362 775 L 362 938 L 495 938 L 495 775 Z M 290 775 L 157 775 L 157 938 L 290 938 L 290 775 Z" unicode="Ë" />
<glyph horiz-adv-x="346" d="M 28 0 L 28 0 Z M 258 0 L 88 0 L 88 730 L 258 730 L 258 0 Z M 173 774 L 173 774 Z M 318 774 L 159 774 L 28 933 L 215 933 L 318 774 Z" unicode="Ì" />
<glyph horiz-adv-x="346" d="M 29 0 L 29 0 Z M 258 0 L 88 0 L 88 730 L 258 730 L 258 0 Z M 173 779 L 173 779 Z M 29 779 L 130 937 L 318 937 L 187 779 L 29 779 Z" unicode="Í" />
<glyph horiz-adv-x="346" d="M 0 0 L 0 0 Z M 258 0 L 88 0 L 88 730 L 258 730 L 258 0 Z M 173 775 L 173 775 Z M 377 775 L 232 775 L 172 857 L 112 775 L -30 775 L 93 949 L 254 949 L 377 775 Z" unicode="Î" />
<glyph horiz-adv-x="346" d="M 4 0 L 4 0 Z M 258 0 L 88 0 L 88 730 L 258 730 L 258 0 Z M 173 775 L 173 775 Z M 342 775 L 209 775 L 209 938 L 342 938 L 342 775 Z M 137 775 L 4 775 L 4 938 L 137 938 L 137 775 Z" unicode="Ï" />
<glyph horiz-adv-x="767" d="M 726 367 C 726 316 717 268 700 224 C 683 179 658 140 625 107 C 592 74 551 48 501 29 C 451 9 395 0 331 0 L 84 0 L 84 297 L 35 297 L 35 416 L 84 416 L 84 730 L 350 730 C 411 730 465 721 513 704 C 560 686 599 662 631 630 C 662 598 686 560 702 515 C 718 470 726 421 726 367 Z M 246 128 L 330 128 C 370 128 405 134 433 148 C 461 162 484 180 502 202 C 519 224 532 249 540 278 C 548 306 552 335 552 365 C 552 436 534 493 500 536 C 465 579 414 601 347 601 L 246 601 L 246 416 L 372 416 L 372 297 L 246 297 L 246 128 Z" unicode="Ð" />
<glyph horiz-adv-x="791" d="M 84 0 L 84 0 Z M 707 0 L 588 0 L 241 441 L 241 0 L 84 0 L 84 730 L 212 730 L 552 299 L 552 730 L 707 730 L 707 0 Z M 394 776 L 394 776 Z M 465 935 L 590 935 C 590 881 581 841 563 815 C 545 789 521 776 489 776 C 472 776 456 778 442 783 C 428 788 414 794 402 802 C 392 807 383 813 374 820 C 364 826 355 830 347 830 C 338 830 331 825 327 817 C 323 809 320 796 320 779 L 198 779 C 198 805 201 829 208 849 C 214 869 223 886 234 899 C 244 912 256 922 270 929 C 283 935 296 939 309 939 C 327 939 343 936 356 931 C 368 925 380 919 391 911 C 399 904 407 899 414 895 C 421 891 428 889 435 889 C 442 889 449 892 455 900 C 461 907 464 919 465 935 Z" unicode="Ñ" />
<glyph horiz-adv-x="830" d="M 41 0 L 41 0 Z M 418 -12 C 360 -12 308 -2 262 17 C 215 37 175 64 143 98 C 110 132 85 173 67 220 C 49 266 41 316 41 370 C 41 424 50 475 70 521 C 89 567 115 606 149 638 C 182 670 221 696 266 714 C 311 732 359 742 410 742 C 464 742 515 733 561 715 C 607 697 647 671 681 639 C 715 606 741 567 760 521 C 779 475 789 424 789 369 C 789 311 778 258 758 211 C 738 163 711 123 677 91 C 643 58 604 33 559 15 C 514 -3 467 -12 418 -12 Z M 421 135 C 449 135 475 139 499 149 C 523 159 545 173 563 192 C 581 211 595 235 605 264 C 615 293 621 327 621 365 C 621 399 615 429 604 457 C 593 484 578 507 559 527 C 539 546 516 561 490 571 C 464 581 436 587 406 587 C 378 587 352 582 328 573 C 304 563 283 550 265 532 C 247 514 234 491 224 464 C 214 437 209 406 209 371 C 209 334 214 301 225 272 C 235 242 250 217 269 197 C 287 177 310 161 336 151 C 362 140 390 135 421 135 Z M 414 774 L 414 774 Z M 559 774 L 400 774 L 269 933 L 456 933 L 559 774 Z" unicode="Ò" />
<glyph horiz-adv-x="830" d="M 41 0 L 41 0 Z M 418 -12 C 360 -12 308 -2 262 17 C 215 37 175 64 143 98 C 110 132 85 173 67 220 C 49 266 41 316 41 370 C 41 424 50 475 70 521 C 89 567 115 606 149 638 C 182 670 221 696 266 714 C 311 732 359 742 410 742 C 464 742 515 733 561 715 C 607 697 647 671 681 639 C 715 606 741 567 760 521 C 779 475 789 424 789 369 C 789 311 778 258 758 211 C 738 163 711 123 677 91 C 643 58 604 33 559 15 C 514 -3 467 -12 418 -12 Z M 421 135 C 449 135 475 139 499 149 C 523 159 545 173 563 192 C 581 211 595 235 605 264 C 615 293 621 327 621 365 C 621 399 615 429 604 457 C 593 484 578 507 559 527 C 539 546 516 561 490 571 C 464 581 436 587 406 587 C 378 587 352 582 328 573 C 304 563 283 550 265 532 C 247 514 234 491 224 464 C 214 437 209 406 209 371 C 209 334 214 301 225 272 C 235 242 250 217 269 197 C 287 177 310 161 336 151 C 362 140 390 135 421 135 Z M 414 779 L 414 779 Z M 270 779 L 371 937 L 559 937 L 428 779 L 270 779 Z" unicode="Ó" />
<glyph horiz-adv-x="830" d="M 41 0 L 41 0 Z M 418 -12 C 360 -12 308 -2 262 17 C 215 37 175 64 143 98 C 110 132 85 173 67 220 C 49 266 41 316 41 370 C 41 424 50 475 70 521 C 89 567 115 606 149 638 C 182 670 221 696 266 714 C 311 732 359 742 410 742 C 464 742 515 733 561 715 C 607 697 647 671 681 639 C 715 606 741 567 760 521 C 779 475 789 424 789 369 C 789 311 778 258 758 211 C 738 163 711 123 677 91 C 643 58 604 33 559 15 C 514 -3 467 -12 418 -12 Z M 421 135 C 449 135 475 139 499 149 C 523 159 545 173 563 192 C 581 211 595 235 605 264 C 615 293 621 327 621 365 C 621 399 615 429 604 457 C 593 484 578 507 559 527 C 539 546 516 561 490 571 C 464 581 436 587 406 587 C 378 587 352 582 328 573 C 304 563 283 550 265 532 C 247 514 234 491 224 464 C 214 437 209 406 209 371 C 209 334 214 301 225 272 C 235 242 250 217 269 197 C 287 177 310 161 336 151 C 362 140 390 135 421 135 Z M 414 775 L 414 775 Z M 618 775 L 473 775 L 413 857 L 353 775 L 211 775 L 334 949 L 495 949 L 618 775 Z" unicode="Ô" />
<glyph horiz-adv-x="830" d="M 41 0 L 41 0 Z M 418 -12 C 360 -12 308 -2 262 17 C 215 37 175 64 143 98 C 110 132 85 173 67 220 C 49 266 41 316 41 370 C 41 424 50 475 70 521 C 89 567 115 606 149 638 C 182 670 221 696 266 714 C 311 732 359 742 410 742 C 464 742 515 733 561 715 C 607 697 647 671 681 639 C 715 606 741 567 760 521 C 779 475 789 424 789 369 C 789 311 778 258 758 211 C 738 163 711 123 677 91 C 643 58 604 33 559 15 C 514 -3 467 -12 418 -12 Z M 421 135 C 449 135 475 139 499 149 C 523 159 545 173 563 192 C 581 211 595 235 605 264 C 615 293 621 327 621 365 C 621 399 615 429 604 457 C 593 484 578 507 559 527 C 539 546 516 561 490 571 C 464 581 436 587 406 587 C 378 587 352 582 328 573 C 304 563 283 550 265 532 C 247 514 234 491 224 464 C 214 437 209 406 209 371 C 209 334 214 301 225 272 C 235 242 250 217 269 197 C 287 177 310 161 336 151 C 362 140 390 135 421 135 Z M 414 776 L 414 776 Z M 485 935 L 610 935 C 610 881 601 841 583 815 C 565 789 541 776 509 776 C 492 776 476 778 462 783 C 448 788 434 794 422 802 C 412 807 403 813 394 820 C 384 826 375 830 367 830 C 358 830 351 825 347 817 C 343 809 340 796 340 779 L 218 779 C 218 805 221 829 228 849 C 234 869 243 886 254 899 C 264 912 276 922 290 929 C 303 935 316 939 329 939 C 347 939 363 936 376 931 C 388 925 400 919 411 911 C 419 904 427 899 434 895 C 441 891 448 889 455 889 C 462 889 469 892 475 900 C 481 907 484 919 485 935 Z" unicode="Õ" />
<glyph horiz-adv-x="830" d="M 41 0 L 41 0 Z M 418 -12 C 360 -12 308 -2 262 17 C 215 37 175 64 143 98 C 110 132 85 173 67 220 C 49 266 41 316 41 370 C 41 424 50 475 70 521 C 89 567 115 606 149 638 C 182 670 221 696 266 714 C 311 732 359 742 410 742 C 464 742 515 733 561 715 C 607 697 647 671 681 639 C 715 606 741 567 760 521 C 779 475 789 424 789 369 C 789 311 778 258 758 211 C 738 163 711 123 677 91 C 643 58 604 33 559 15 C 514 -3 467 -12 418 -12 Z M 421 135 C 449 135 475 139 499 149 C 523 159 545 173 563 192 C 581 211 595 235 605 264 C 615 293 621 327 621 365 C 621 399 615 429 604 457 C 593 484 578 507 559 527 C 539 546 516 561 490 571 C 464 581 436 587 406 587 C 378 587 352 582 328 573 C 304 563 283 550 265 532 C 247 514 234 491 224 464 C 214 437 209 406 209 371 C 209 334 214 301 225 272 C 235 242 250 217 269 197 C 287 177 310 161 336 151 C 362 140 390 135 421 135 Z M 414 775 L 414 775 Z M 583 775 L 450 775 L 450 938 L 583 938 L 583 775 Z M 378 775 L 245 775 L 245 938 L 378 938 L 378 775 Z" unicode="Ö" />
<glyph horiz-adv-x="501" d="M 123 117 L 37 204 L 163 330 L 38 455 L 125 543 L 251 418 L 377 543 L 463 455 L 337 330 L 464 205 L 377 114 L 251 244 L 123 117 Z" unicode="×" />
<glyph horiz-adv-x="830" d="M 789 369 C 789 311 778 258 758 211 C 738 163 711 123 677 91 C 643 58 604 33 559 15 C 514 -3 467 -12 418 -12 C 369 -12 324 -4 283 9 C 241 23 205 44 175 70 L 103 -2 L 45 54 L 119 128 C 94 160 75 197 61 239 C 47 280 41 324 41 370 C 41 424 50 475 70 521 C 89 567 115 606 149 638 C 182 670 221 696 266 714 C 311 732 359 742 410 742 C 457 742 501 735 543 721 C 584 707 621 688 653 663 L 738 748 L 796 692 L 711 607 C 735 575 754 539 768 499 C 782 459 789 415 789 369 Z M 209 371 C 209 346 211 323 216 302 C 220 281 227 262 236 245 L 536 546 C 518 559 498 569 476 576 C 454 583 430 587 406 587 C 378 587 352 582 328 573 C 304 563 283 550 265 532 C 247 514 234 491 224 464 C 214 437 209 406 209 371 Z M 621 365 C 621 388 618 410 613 430 C 607 450 600 469 590 486 L 286 181 C 304 166 324 155 347 147 C 370 139 395 135 421 135 C 449 135 475 139 499 149 C 523 159 545 173 563 192 C 581 211 595 235 605 264 C 615 293 621 327 621 365 Z" unicode="Ø" />
<glyph horiz-adv-x="784" d="M 80 0 L 80 0 Z M 704 730 L 704 266 C 704 222 695 183 678 149 C 661 114 638 85 610 61 C 581 37 548 19 510 7 C 472 -5 432 -12 391 -12 C 349 -12 310 -6 272 6 C 234 18 201 35 173 59 C 145 83 122 112 105 147 C 88 181 80 221 80 266 L 80 730 L 246 730 L 246 274 C 246 230 260 196 288 172 C 316 148 350 137 390 137 C 430 137 465 148 494 172 C 523 195 538 229 538 274 L 538 730 L 704 730 Z M 392 774 L 392 774 Z M 537 774 L 378 774 L 247 933 L 434 933 L 537 774 Z" unicode="Ù" />
<glyph horiz-adv-x="784" d="M 80 0 L 80 0 Z M 704 730 L 704 266 C 704 222 695 183 678 149 C 661 114 638 85 610 61 C 581 37 548 19 510 7 C 472 -5 432 -12 391 -12 C 349 -12 310 -6 272 6 C 234 18 201 35 173 59 C 145 83 122 112 105 147 C 88 181 80 221 80 266 L 80 730 L 246 730 L 246 274 C 246 230 260 196 288 172 C 316 148 350 137 390 137 C 430 137 465 148 494 172 C 523 195 538 229 538 274 L 538 730 L 704 730 Z M 392 779 L 392 779 Z M 248 779 L 349 937 L 537 937 L 406 779 L 248 779 Z" unicode="Ú" />
<glyph horiz-adv-x="784" d="M 80 0 L 80 0 Z M 704 730 L 704 266 C 704 222 695 183 678 149 C 661 114 638 85 610 61 C 581 37 548 19 510 7 C 472 -5 432 -12 391 -12 C 349 -12 310 -6 272 6 C 234 18 201 35 173 59 C 145 83 122 112 105 147 C 88 181 80 221 80 266 L 80 730 L 246 730 L 246 274 C 246 230 260 196 288 172 C 316 148 350 137 390 137 C 430 137 465 148 494 172 C 523 195 538 229 538 274 L 538 730 L 704 730 Z M 392 775 L 392 775 Z M 596 775 L 451 775 L 391 857 L 331 775 L 189 775 L 312 949 L 473 949 L 596 775 Z" unicode="Û" />
<glyph horiz-adv-x="784" d="M 80 0 L 80 0 Z M 704 730 L 704 266 C 704 222 695 183 678 149 C 661 114 638 85 610 61 C 581 37 548 19 510 7 C 472 -5 432 -12 391 -12 C 349 -12 310 -6 272 6 C 234 18 201 35 173 59 C 145 83 122 112 105 147 C 88 181 80 221 80 266 L 80 730 L 246 730 L 246 274 C 246 230 260 196 288 172 C 316 148 350 137 390 137 C 430 137 465 148 494 172 C 523 195 538 229 538 274 L 538 730 L 704 730 Z M 392 775 L 392 775 Z M 561 775 L 428 775 L 428 938 L 561 938 L 561 775 Z M 356 775 L 223 775 L 223 938 L 356 938 L 356 775 Z" unicode="Ü" />
<glyph horiz-adv-x="710" d="M 0 0 L 0 0 Z M 717 730 L 437 286 L 437 0 L 267 0 L 267 293 L -7 730 L 183 730 L 360 442 L 539 730 L 717 730 Z M 360 779 L 360 779 Z M 216 779 L 317 937 L 505 937 L 374 779 L 216 779 Z" unicode="Ý" />
<glyph horiz-adv-x="646" d="M 84 0 L 84 730 L 254 730 L 254 618 L 387 618 C 460 618 519 596 563 553 C 607 509 630 453 630 383 C 630 311 606 253 560 209 C 513 165 452 143 378 143 L 254 143 L 254 0 L 84 0 Z M 249 271 L 361 271 C 391 271 415 281 433 301 C 450 321 459 348 459 383 C 459 417 449 442 429 460 C 409 477 384 486 355 486 L 249 486 L 249 271 Z" unicode="Þ" />
<glyph horiz-adv-x="786" d="M 544 -12 C 487 -12 436 -5 390 7 C 344 20 306 37 275 59 L 340 167 C 370 152 404 140 441 130 C 478 120 510 115 536 115 C 557 115 573 119 584 128 C 595 137 601 149 601 163 C 601 175 593 186 577 195 C 561 204 534 214 495 225 C 421 243 368 264 338 288 C 308 312 293 350 293 402 C 293 442 303 472 323 493 C 343 514 364 529 388 537 C 390 539 394 542 398 547 C 402 551 404 559 405 569 C 405 607 396 635 380 653 C 363 671 342 681 318 681 C 293 681 273 674 257 660 C 241 646 234 621 234 585 L 234 0 L 75 0 L 75 612 C 75 645 81 674 93 699 C 105 723 121 744 141 760 C 161 776 186 789 214 797 C 242 805 272 809 304 809 C 338 809 370 804 401 795 C 431 786 458 773 481 757 C 503 741 521 721 534 697 C 547 673 554 647 554 618 C 554 581 549 551 539 529 C 529 507 519 490 507 479 C 490 471 474 462 458 452 C 442 442 430 432 424 422 C 424 407 437 394 463 382 C 489 370 527 357 576 344 C 638 326 685 304 718 278 C 751 252 768 216 768 170 C 768 141 762 115 751 93 C 739 70 724 51 704 36 C 684 20 660 8 633 0 C 605 -7 576 -12 544 -12 Z" unicode="ß" />
<glyph horiz-adv-x="635" d="M 31 0 L 31 0 Z M 570 0 L 415 0 L 415 63 C 396 39 371 22 341 10 C 310 -2 270 -8 221 -8 C 159 -8 111 6 79 36 C 47 66 31 105 31 154 C 31 220 57 269 109 303 C 161 337 236 356 335 361 L 414 365 L 414 375 C 413 398 405 416 390 430 C 374 444 350 451 316 451 C 283 451 250 445 216 433 C 182 421 149 406 117 388 L 54 496 C 86 520 127 540 175 557 C 223 574 278 583 338 583 C 413 583 470 566 510 533 C 550 500 570 446 570 372 L 570 0 Z M 417 179 L 417 263 L 317 260 C 280 259 251 252 230 238 C 208 224 198 204 198 178 C 198 158 205 143 220 132 C 235 121 255 116 280 116 C 308 116 335 122 359 134 C 383 146 402 161 417 179 Z M 309 611 L 309 611 Z M 454 611 L 295 611 L 164 770 L 351 770 L 454 611 Z" unicode="à" />
<glyph horiz-adv-x="635" d="M 31 0 L 31 0 Z M 570 0 L 415 0 L 415 63 C 396 39 371 22 341 10 C 310 -2 270 -8 221 -8 C 159 -8 111 6 79 36 C 47 66 31 105 31 154 C 31 220 57 269 109 303 C 161 337 236 356 335 361 L 414 365 L 414 375 C 413 398 405 416 390 430 C 374 444 350 451 316 451 C 283 451 250 445 216 433 C 182 421 149 406 117 388 L 54 496 C 86 520 127 540 175 557 C 223 574 278 583 338 583 C 413 583 470 566 510 533 C 550 500 570 446 570 372 L 570 0 Z M 417 179 L 417 263 L 317 260 C 280 259 251 252 230 238 C 208 224 198 204 198 178 C 198 158 205 143 220 132 C 235 121 255 116 280 116 C 308 116 335 122 359 134 C 383 146 402 161 417 179 Z M 309 616 L 309 616 Z M 165 616 L 266 774 L 454 774 L 323 616 L 165 616 Z" unicode="á" />
<glyph horiz-adv-x="635" d="M 31 0 L 31 0 Z M 570 0 L 415 0 L 415 63 C 396 39 371 22 341 10 C 310 -2 270 -8 221 -8 C 159 -8 111 6 79 36 C 47 66 31 105 31 154 C 31 220 57 269 109 303 C 161 337 236 356 335 361 L 414 365 L 414 375 C 413 398 405 416 390 430 C 374 444 350 451 316 451 C 283 451 250 445 216 433 C 182 421 149 406 117 388 L 54 496 C 86 520 127 540 175 557 C 223 574 278 583 338 583 C 413 583 470 566 510 533 C 550 500 570 446 570 372 L 570 0 Z M 417 179 L 417 263 L 317 260 C 280 259 251 252 230 238 C 208 224 198 204 198 178 C 198 158 205 143 220 132 C 235 121 255 116 280 116 C 308 116 335 122 359 134 C 383 146 402 161 417 179 Z M 309 612 L 309 612 Z M 513 612 L 368 612 L 308 694 L 248 612 L 106 612 L 229 786 L 390 786 L 513 612 Z" unicode="â" />
<glyph horiz-adv-x="635" d="M 31 0 L 31 0 Z M 570 0 L 415 0 L 415 63 C 396 39 371 22 341 10 C 310 -2 270 -8 221 -8 C 159 -8 111 6 79 36 C 47 66 31 105 31 154 C 31 220 57 269 109 303 C 161 337 236 356 335 361 L 414 365 L 414 375 C 413 398 405 416 390 430 C 374 444 350 451 316 451 C 283 451 250 445 216 433 C 182 421 149 406 117 388 L 54 496 C 86 520 127 540 175 557 C 223 574 278 583 338 583 C 413 583 470 566 510 533 C 550 500 570 446 570 372 L 570 0 Z M 417 179 L 417 263 L 317 260 C 280 259 251 252 230 238 C 208 224 198 204 198 178 C 198 158 205 143 220 132 C 235 121 255 116 280 116 C 308 116 335 122 359 134 C 383 146 402 161 417 179 Z M 309 613 L 309 613 Z M 380 772 L 505 772 C 505 718 496 678 478 652 C 460 626 436 613 404 613 C 387 613 371 615 357 620 C 343 625 329 631 317 639 C 307 644 298 650 289 657 C 279 663 270 667 262 667 C 253 667 246 662 242 654 C 238 646 235 633 235 616 L 113 616 C 113 642 116 666 123 686 C 129 706 138 723 149 736 C 159 749 171 759 185 766 C 198 772 211 776 224 776 C 242 776 258 773 271 768 C 283 762 295 756 306 748 C 314 741 322 736 329 732 C 336 728 343 726 350 726 C 357 726 364 729 370 737 C 376 744 379 756 380 772 Z" unicode="ã" />
<glyph horiz-adv-x="635" d="M 31 0 L 31 0 Z M 570 0 L 415 0 L 415 63 C 396 39 371 22 341 10 C 310 -2 270 -8 221 -8 C 159 -8 111 6 79 36 C 47 66 31 105 31 154 C 31 220 57 269 109 303 C 161 337 236 356 335 361 L 414 365 L 414 375 C 413 398 405 416 390 430 C 374 444 350 451 316 451 C 283 451 250 445 216 433 C 182 421 149 406 117 388 L 54 496 C 86 520 127 540 175 557 C 223 574 278 583 338 583 C 413 583 470 566 510 533 C 550 500 570 446 570 372 L 570 0 Z M 417 179 L 417 263 L 317 260 C 280 259 251 252 230 238 C 208 224 198 204 198 178 C 198 158 205 143 220 132 C 235 121 255 116 280 116 C 308 116 335 122 359 134 C 383 146 402 161 417 179 Z M 309 612 L 309 612 Z M 478 612 L 345 612 L 345 775 L 478 775 L 478 612 Z M 273 612 L 140 612 L 140 775 L 273 775 L 273 612 Z" unicode="ä" />
<glyph horiz-adv-x="635" d="M 31 0 L 31 0 Z M 570 0 L 415 0 L 415 63 C 396 39 371 22 341 10 C 310 -2 270 -8 221 -8 C 159 -8 111 6 79 36 C 47 66 31 105 31 154 C 31 220 57 269 109 303 C 161 337 236 356 335 361 L 414 365 L 414 375 C 413 398 405 416 390 430 C 374 444 350 451 316 451 C 283 451 250 445 216 433 C 182 421 149 406 117 388 L 54 496 C 86 520 127 540 175 557 C 223 574 278 583 338 583 C 413 583 470 566 510 533 C 550 500 570 446 570 372 L 570 0 Z M 417 179 L 417 263 L 317 260 C 280 259 251 252 230 238 C 208 224 198 204 198 178 C 198 158 205 143 220 132 C 235 121 255 116 280 116 C 308 116 335 122 359 134 C 383 146 402 161 417 179 Z M 309 608 L 309 608 Z M 309 608 C 274 608 244 620 220 645 C 195 669 183 699 183 735 C 183 769 195 799 220 824 C 244 848 274 861 309 861 C 344 861 374 848 399 824 C 423 799 436 769 436 735 C 436 699 423 669 399 645 C 374 620 344 608 309 608 Z M 309 689 C 321 689 332 693 341 702 C 349 710 354 721 354 735 C 354 747 349 758 341 767 C 332 775 321 780 309 780 C 296 780 285 775 277 767 C 268 758 264 747 264 735 C 264 721 268 710 277 702 C 285 693 296 689 309 689 Z" unicode="å" />
<glyph horiz-adv-x="1015" d="M 700 -12 C 645 -12 597 -1 556 19 C 515 39 486 64 470 94 C 449 69 417 46 373 24 C 329 2 280 -8 226 -8 C 166 -8 119 6 86 36 C 53 66 37 105 37 154 C 37 220 63 269 115 303 C 167 336 242 355 341 360 L 422 365 L 422 375 C 421 397 413 415 397 429 C 381 443 357 451 323 451 C 290 451 257 445 223 433 C 189 421 155 405 123 387 L 61 496 C 93 520 131 540 175 557 C 219 574 264 583 312 583 C 364 583 404 575 434 560 C 463 545 485 524 500 498 C 517 518 542 537 576 554 C 610 571 650 580 696 580 C 783 580 852 550 902 490 C 952 430 977 345 978 235 L 563 235 C 563 207 575 181 599 158 C 622 135 656 124 700 124 C 740 124 772 130 795 144 C 817 157 835 171 848 186 L 942 86 C 916 57 884 33 846 15 C 808 -2 760 -12 700 -12 Z M 565 339 L 812 339 C 810 369 798 395 777 416 C 755 436 727 447 691 447 C 655 447 625 436 603 414 C 581 392 568 367 565 339 Z M 284 116 C 316 116 344 124 368 142 C 391 159 410 177 425 195 L 425 263 L 324 259 C 288 257 259 251 237 239 C 215 227 204 207 204 180 C 204 159 211 143 226 132 C 241 121 260 116 284 116 Z" unicode="æ" />
<glyph horiz-adv-x="612" d="M 37 0 L 37 0 Z M 465 210 L 590 125 C 567 89 535 57 494 29 C 453 1 398 -12 329 -12 C 289 -12 251 -5 215 7 C 179 19 148 38 122 63 C 96 87 75 118 60 155 C 44 191 37 234 37 282 C 37 327 44 368 60 405 C 75 442 96 473 122 499 C 148 525 180 545 217 559 C 253 573 293 580 336 580 C 372 580 404 575 432 566 C 460 557 485 545 506 530 C 526 514 543 497 557 477 C 570 457 580 437 587 416 L 450 356 C 439 379 424 398 406 414 C 388 430 362 438 330 438 C 290 438 258 423 236 395 C 213 367 202 330 202 286 C 202 233 214 194 238 169 C 262 144 295 132 335 132 C 369 132 397 139 418 155 C 438 171 454 189 465 210 Z M 326 -5 L 326 -5 Z M 335 -200 C 307 -200 279 -197 251 -191 C 223 -185 202 -177 188 -168 L 206 -101 C 214 -104 225 -108 239 -112 C 253 -116 267 -118 281 -118 C 289 -118 297 -116 303 -112 C 309 -108 313 -103 313 -97 C 313 -90 310 -85 304 -82 C 298 -79 292 -78 286 -78 C 281 -78 277 -78 273 -79 C 269 -79 265 -80 261 -82 L 241 -61 L 302 8 L 397 8 L 351 -46 C 384 -42 411 -48 432 -62 C 452 -76 463 -95 463 -120 C 463 -147 449 -167 423 -180 C 397 -193 367 -200 335 -200 Z" unicode="ç" />
<glyph horiz-adv-x="650" d="M 37 0 L 37 0 Z M 336 -12 C 292 -12 251 -5 215 7 C 178 20 146 39 120 64 C 94 88 73 119 59 155 C 44 191 37 233 37 279 C 37 322 44 362 59 399 C 74 436 95 468 121 495 C 147 521 178 542 214 557 C 250 572 290 580 332 580 C 419 580 488 550 538 490 C 588 430 613 344 614 234 L 198 234 C 198 221 202 208 208 195 C 214 181 222 169 234 159 C 245 149 259 140 276 134 C 292 127 312 124 335 124 C 373 124 403 130 427 142 C 451 154 469 168 483 185 L 578 86 C 552 57 520 33 482 15 C 444 -2 396 -12 336 -12 Z M 199 340 L 448 340 C 446 370 434 396 412 416 C 390 436 361 447 327 447 C 291 447 261 436 239 414 C 216 392 203 367 199 340 Z M 328 611 L 328 611 Z M 473 611 L 314 611 L 183 770 L 370 770 L 473 611 Z" unicode="è" />
<glyph horiz-adv-x="650" d="M 37 0 L 37 0 Z M 336 -12 C 292 -12 251 -5 215 7 C 178 20 146 39 120 64 C 94 88 73 119 59 155 C 44 191 37 233 37 279 C 37 322 44 362 59 399 C 74 436 95 468 121 495 C 147 521 178 542 214 557 C 250 572 290 580 332 580 C 419 580 488 550 538 490 C 588 430 613 344 614 234 L 198 234 C 198 221 202 208 208 195 C 214 181 222 169 234 159 C 245 149 259 140 276 134 C 292 127 312 124 335 124 C 373 124 403 130 427 142 C 451 154 469 168 483 185 L 578 86 C 552 57 520 33 482 15 C 444 -2 396 -12 336 -12 Z M 199 340 L 448 340 C 446 370 434 396 412 416 C 390 436 361 447 327 447 C 291 447 261 436 239 414 C 216 392 203 367 199 340 Z M 328 616 L 328 616 Z M 184 616 L 285 774 L 473 774 L 342 616 L 184 616 Z" unicode="é" />
<glyph horiz-adv-x="650" d="M 37 0 L 37 0 Z M 336 -12 C 292 -12 251 -5 215 7 C 178 20 146 39 120 64 C 94 88 73 119 59 155 C 44 191 37 233 37 279 C 37 322 44 362 59 399 C 74 436 95 468 121 495 C 147 521 178 542 214 557 C 250 572 290 580 332 580 C 419 580 488 550 538 490 C 588 430 613 344 614 234 L 198 234 C 198 221 202 208 208 195 C 214 181 222 169 234 159 C 245 149 259 140 276 134 C 292 127 312 124 335 124 C 373 124 403 130 427 142 C 451 154 469 168 483 185 L 578 86 C 552 57 520 33 482 15 C 444 -2 396 -12 336 -12 Z M 199 340 L 448 340 C 446 370 434 396 412 416 C 390 436 361 447 327 447 C 291 447 261 436 239 414 C 216 392 203 367 199 340 Z M 328 612 L 328 612 Z M 532 612 L 387 612 L 327 694 L 267 612 L 125 612 L 248 786 L 409 786 L 532 612 Z" unicode="ê" />
<glyph horiz-adv-x="650" d="M 37 0 L 37 0 Z M 336 -12 C 292 -12 251 -5 215 7 C 178 20 146 39 120 64 C 94 88 73 119 59 155 C 44 191 37 233 37 279 C 37 322 44 362 59 399 C 74 436 95 468 121 495 C 147 521 178 542 214 557 C 250 572 290 580 332 580 C 419 580 488 550 538 490 C 588 430 613 344 614 234 L 198 234 C 198 221 202 208 208 195 C 214 181 222 169 234 159 C 245 149 259 140 276 134 C 292 127 312 124 335 124 C 373 124 403 130 427 142 C 451 154 469 168 483 185 L 578 86 C 552 57 520 33 482 15 C 444 -2 396 -12 336 -12 Z M 199 340 L 448 340 C 446 370 434 396 412 416 C 390 436 361 447 327 447 C 291 447 261 436 239 414 C 216 392 203 367 199 340 Z M 328 612 L 328 612 Z M 497 612 L 364 612 L 364 775 L 497 775 L 497 612 Z M 292 612 L 159 612 L 159 775 L 292 775 L 292 612 Z" unicode="ë" />
<glyph horiz-adv-x="318" d="M 14 0 L 14 0 Z M 239 0 L 79 0 L 79 567 L 239 567 L 239 0 Z M 159 611 L 159 611 Z M 304 611 L 145 611 L 14 770 L 201 770 L 304 611 Z" unicode="ì" />
<glyph horiz-adv-x="318" d="M 15 0 L 15 0 Z M 239 0 L 79 0 L 79 567 L 239 567 L 239 0 Z M 159 616 L 159 616 Z M 15 616 L 116 774 L 304 774 L 173 616 L 15 616 Z" unicode="í" />
<glyph horiz-adv-x="318" d="M 0 0 L 0 0 Z M 239 0 L 79 0 L 79 567 L 239 567 L 239 0 Z M 159 612 L 159 612 Z M 363 612 L 218 612 L 158 694 L 98 612 L -44 612 L 79 786 L 240 786 L 363 612 Z" unicode="î" />
<glyph horiz-adv-x="318" d="M 0 0 L 0 0 Z M 239 0 L 79 0 L 79 567 L 239 567 L 239 0 Z M 159 612 L 159 612 Z M 328 612 L 195 612 L 195 775 L 328 775 L 328 612 Z M 123 612 L -10 612 L -10 775 L 123 775 L 123 612 Z" unicode="ï" />
<glyph horiz-adv-x="673" d="M 626 317 C 626 273 620 231 608 191 C 596 151 577 116 553 86 C 529 56 498 33 461 15 C 424 -2 381 -11 331 -11 C 289 -11 250 -4 214 8 C 178 20 147 38 121 62 C 95 85 75 114 61 149 C 46 183 39 222 39 266 C 39 305 46 342 61 376 C 76 410 96 440 121 465 C 145 490 173 510 205 524 C 236 538 268 546 300 546 C 332 546 363 539 393 526 C 422 513 444 497 459 479 C 455 510 447 539 436 566 C 425 593 413 618 399 641 L 258 597 L 232 667 L 350 703 C 340 713 330 723 320 733 C 310 742 300 750 291 757 L 440 800 C 446 795 454 788 463 779 C 471 769 480 758 490 746 L 563 769 L 588 700 L 531 682 C 555 639 577 586 597 524 C 616 461 626 392 626 317 Z M 335 123 C 382 123 417 136 440 163 C 462 190 474 228 474 276 C 474 324 462 361 438 385 C 414 409 381 421 339 421 C 295 421 262 407 238 380 C 214 353 203 318 203 274 C 203 228 215 192 239 164 C 263 136 295 123 335 123 Z" unicode="ð" />
<glyph horiz-adv-x="663" d="M 75 0 L 75 0 Z M 595 0 L 435 0 L 435 371 C 435 393 426 411 410 423 C 394 435 374 442 351 442 C 321 442 294 433 270 417 C 246 400 234 376 234 346 L 234 0 L 75 0 L 75 567 L 216 567 L 216 471 C 227 502 249 528 282 549 C 314 569 355 580 404 580 C 430 580 454 576 478 568 C 501 560 521 550 539 536 C 556 522 570 505 580 486 C 590 466 595 445 595 422 L 595 0 Z M 363 613 L 363 613 Z M 434 772 L 559 772 C 559 718 550 678 532 652 C 514 626 490 613 458 613 C 441 613 425 615 411 620 C 397 625 383 631 371 639 C 361 644 352 650 343 657 C 333 663 324 667 316 667 C 307 667 300 662 296 654 C 292 646 289 633 289 616 L 167 616 C 167 642 170 666 177 686 C 183 706 192 723 203 736 C 213 749 225 759 239 766 C 252 772 265 776 278 776 C 296 776 312 773 325 768 C 337 762 349 756 360 748 C 368 741 376 736 383 732 C 390 728 397 726 404 726 C 411 726 418 729 424 737 C 430 744 433 756 434 772 Z" unicode="ñ" />
<glyph horiz-adv-x="677" d="M 37 0 L 37 0 Z M 334 -12 C 296 -12 259 -5 223 7 C 187 19 156 38 128 62 C 100 86 78 117 62 154 C 45 191 37 234 37 283 C 37 327 45 367 62 404 C 78 440 100 471 128 497 C 156 523 187 543 223 558 C 259 572 296 580 334 580 C 376 580 415 573 453 561 C 491 549 523 531 551 507 C 578 483 600 453 616 418 C 632 383 640 343 640 299 C 640 251 631 208 615 170 C 598 131 576 98 548 72 C 520 45 487 24 450 10 C 412 -4 374 -12 334 -12 Z M 337 131 C 381 131 415 145 439 174 C 463 203 476 242 476 290 C 476 336 462 372 436 398 C 410 423 376 436 334 436 C 292 436 260 421 237 393 C 214 365 203 328 203 282 C 203 232 215 194 241 169 C 267 143 299 131 337 131 Z M 338 611 L 338 611 Z M 483 611 L 324 611 L 193 770 L 380 770 L 483 611 Z" unicode="ò" />
<glyph horiz-adv-x="677" d="M 37 0 L 37 0 Z M 334 -12 C 296 -12 259 -5 223 7 C 187 19 156 38 128 62 C 100 86 78 117 62 154 C 45 191 37 234 37 283 C 37 327 45 367 62 404 C 78 440 100 471 128 497 C 156 523 187 543 223 558 C 259 572 296 580 334 580 C 376 580 415 573 453 561 C 491 549 523 531 551 507 C 578 483 600 453 616 418 C 632 383 640 343 640 299 C 640 251 631 208 615 170 C 598 131 576 98 548 72 C 520 45 487 24 450 10 C 412 -4 374 -12 334 -12 Z M 337 131 C 381 131 415 145 439 174 C 463 203 476 242 476 290 C 476 336 462 372 436 398 C 410 423 376 436 334 436 C 292 436 260 421 237 393 C 214 365 203 328 203 282 C 203 232 215 194 241 169 C 267 143 299 131 337 131 Z M 338 616 L 338 616 Z M 194 616 L 295 774 L 483 774 L 352 616 L 194 616 Z" unicode="ó" />
<glyph horiz-adv-x="677" d="M 37 0 L 37 0 Z M 334 -12 C 296 -12 259 -5 223 7 C 187 19 156 38 128 62 C 100 86 78 117 62 154 C 45 191 37 234 37 283 C 37 327 45 367 62 404 C 78 440 100 471 128 497 C 156 523 187 543 223 558 C 259 572 296 580 334 580 C 376 580 415 573 453 561 C 491 549 523 531 551 507 C 578 483 600 453 616 418 C 632 383 640 343 640 299 C 640 251 631 208 615 170 C 598 131 576 98 548 72 C 520 45 487 24 450 10 C 412 -4 374 -12 334 -12 Z M 337 131 C 381 131 415 145 439 174 C 463 203 476 242 476 290 C 476 336 462 372 436 398 C 410 423 376 436 334 436 C 292 436 260 421 237 393 C 214 365 203 328 203 282 C 203 232 215 194 241 169 C 267 143 299 131 337 131 Z M 338 612 L 338 612 Z M 542 612 L 397 612 L 337 694 L 277 612 L 135 612 L 258 786 L 419 786 L 542 612 Z" unicode="ô" />
<glyph horiz-adv-x="677" d="M 37 0 L 37 0 Z M 334 -12 C 296 -12 259 -5 223 7 C 187 19 156 38 128 62 C 100 86 78 117 62 154 C 45 191 37 234 37 283 C 37 327 45 367 62 404 C 78 440 100 471 128 497 C 156 523 187 543 223 558 C 259 572 296 580 334 580 C 376 580 415 573 453 561 C 491 549 523 531 551 507 C 578 483 600 453 616 418 C 632 383 640 343 640 299 C 640 251 631 208 615 170 C 598 131 576 98 548 72 C 520 45 487 24 450 10 C 412 -4 374 -12 334 -12 Z M 337 131 C 381 131 415 145 439 174 C 463 203 476 242 476 290 C 476 336 462 372 436 398 C 410 423 376 436 334 436 C 292 436 260 421 237 393 C 214 365 203 328 203 282 C 203 232 215 194 241 169 C 267 143 299 131 337 131 Z M 338 613 L 338 613 Z M 409 772 L 534 772 C 534 718 525 678 507 652 C 489 626 465 613 433 613 C 416 613 400 615 386 620 C 372 625 358 631 346 639 C 336 644 327 650 318 657 C 308 663 299 667 291 667 C 282 667 275 662 271 654 C 267 646 264 633 264 616 L 142 616 C 142 642 145 666 152 686 C 158 706 167 723 178 736 C 188 749 200 759 214 766 C 227 772 240 776 253 776 C 271 776 287 773 300 768 C 312 762 324 756 335 748 C 343 741 351 736 358 732 C 365 728 372 726 379 726 C 386 726 393 729 399 737 C 405 744 408 756 409 772 Z" unicode="õ" />
<glyph horiz-adv-x="677" d="M 37 0 L 37 0 Z M 334 -12 C 296 -12 259 -5 223 7 C 187 19 156 38 128 62 C 100 86 78 117 62 154 C 45 191 37 234 37 283 C 37 327 45 367 62 404 C 78 440 100 471 128 497 C 156 523 187 543 223 558 C 259 572 296 580 334 580 C 376 580 415 573 453 561 C 491 549 523 531 551 507 C 578 483 600 453 616 418 C 632 383 640 343 640 299 C 640 251 631 208 615 170 C 598 131 576 98 548 72 C 520 45 487 24 450 10 C 412 -4 374 -12 334 -12 Z M 337 131 C 381 131 415 145 439 174 C 463 203 476 242 476 290 C 476 336 462 372 436 398 C 410 423 376 436 334 436 C 292 436 260 421 237 393 C 214 365 203 328 203 282 C 203 232 215 194 241 169 C 267 143 299 131 337 131 Z M 338 612 L 338 612 Z M 507 612 L 374 612 L 374 775 L 507 775 L 507 612 Z M 302 612 L 169 612 L 169 775 L 302 775 L 302 612 Z" unicode="ö" />
<glyph horiz-adv-x="500" d="M 177 449 L 177 585 L 323 585 L 323 449 L 177 449 Z M 19 264 L 19 397 L 481 397 L 481 264 L 19 264 Z M 177 74 L 177 210 L 323 210 L 323 74 L 177 74 Z" unicode="÷" />
<glyph horiz-adv-x="677" d="M 334 -12 C 300 -12 266 -7 234 3 C 202 13 172 28 146 48 L 79 -19 L 25 33 L 93 101 C 75 123 62 150 52 181 C 42 211 37 245 37 283 C 37 327 45 367 62 404 C 78 440 100 471 128 497 C 156 523 187 543 223 558 C 259 572 296 580 334 580 C 369 580 403 575 435 566 C 467 557 496 544 522 528 L 592 598 L 645 547 L 578 480 C 597 457 612 430 623 400 C 634 369 640 335 640 299 C 640 251 631 208 615 170 C 598 131 576 98 548 72 C 520 45 487 24 450 10 C 412 -4 374 -12 334 -12 Z M 203 282 C 203 270 203 258 205 248 C 207 237 209 227 212 219 L 411 418 C 400 424 388 428 375 431 C 362 434 348 436 334 436 C 292 436 260 421 237 393 C 214 365 203 328 203 282 Z M 476 290 C 476 304 474 317 472 329 C 469 341 465 353 461 363 L 255 157 C 265 148 278 141 292 137 C 306 133 321 131 337 131 C 381 131 415 145 439 174 C 463 203 476 242 476 290 Z" unicode="ø" />
<glyph horiz-adv-x="663" d="M 69 0 L 69 0 Z M 69 567 L 228 567 L 228 212 C 228 181 236 158 254 143 C 272 128 296 121 327 121 C 358 121 383 130 401 148 C 419 166 429 189 429 218 L 429 567 L 589 567 L 589 0 L 445 0 L 445 92 C 435 64 414 39 383 18 C 352 -2 312 -13 262 -13 C 235 -13 210 -9 186 -1 C 162 6 142 17 125 31 C 107 45 94 63 84 84 C 74 104 69 128 69 154 L 69 567 Z M 329 611 L 329 611 Z M 474 611 L 315 611 L 184 770 L 371 770 L 474 611 Z" unicode="ù" />
<glyph horiz-adv-x="663" d="M 69 0 L 69 0 Z M 69 567 L 228 567 L 228 212 C 228 181 236 158 254 143 C 272 128 296 121 327 121 C 358 121 383 130 401 148 C 419 166 429 189 429 218 L 429 567 L 589 567 L 589 0 L 445 0 L 445 92 C 435 64 414 39 383 18 C 352 -2 312 -13 262 -13 C 235 -13 210 -9 186 -1 C 162 6 142 17 125 31 C 107 45 94 63 84 84 C 74 104 69 128 69 154 L 69 567 Z M 329 616 L 329 616 Z M 185 616 L 286 774 L 474 774 L 343 616 L 185 616 Z" unicode="ú" />
<glyph horiz-adv-x="663" d="M 69 0 L 69 0 Z M 69 567 L 228 567 L 228 212 C 228 181 236 158 254 143 C 272 128 296 121 327 121 C 358 121 383 130 401 148 C 419 166 429 189 429 218 L 429 567 L 589 567 L 589 0 L 445 0 L 445 92 C 435 64 414 39 383 18 C 352 -2 312 -13 262 -13 C 235 -13 210 -9 186 -1 C 162 6 142 17 125 31 C 107 45 94 63 84 84 C 74 104 69 128 69 154 L 69 567 Z M 329 612 L 329 612 Z M 533 612 L 388 612 L 328 694 L 268 612 L 126 612 L 249 786 L 410 786 L 533 612 Z" unicode="û" />
<glyph horiz-adv-x="663" d="M 69 0 L 69 0 Z M 69 567 L 228 567 L 228 212 C 228 181 236 158 254 143 C 272 128 296 121 327 121 C 358 121 383 130 401 148 C 419 166 429 189 429 218 L 429 567 L 589 567 L 589 0 L 445 0 L 445 92 C 435 64 414 39 383 18 C 352 -2 312 -13 262 -13 C 235 -13 210 -9 186 -1 C 162 6 142 17 125 31 C 107 45 94 63 84 84 C 74 104 69 128 69 154 L 69 567 Z M 329 612 L 329 612 Z M 498 612 L 365 612 L 365 775 L 498 775 L 498 612 Z M 293 612 L 160 612 L 160 775 L 293 775 L 293 612 Z" unicode="ü" />
<glyph horiz-adv-x="607" d="M 0 0 L 0 0 Z M 615 567 L 322 -60 C 310 -86 295 -108 277 -126 C 259 -144 240 -158 220 -169 C 200 -179 179 -187 157 -192 C 135 -197 115 -200 95 -200 C 72 -200 53 -197 38 -192 C 23 -186 12 -182 6 -180 L 51 -54 C 55 -56 61 -59 71 -61 C 80 -63 90 -65 100 -65 C 118 -65 133 -60 146 -50 C 158 -40 171 -24 184 -2 L 219 62 L -8 567 L 164 567 L 305 241 L 450 567 L 615 567 Z M 305 616 L 305 616 Z M 161 616 L 262 774 L 450 774 L 319 616 L 161 616 Z" unicode="ý" />
<glyph horiz-adv-x="691" d="M 75 -198 L 75 800 L 233 800 L 233 486 C 241 506 260 527 290 547 C 319 567 359 578 410 578 C 444 578 475 572 505 560 C 535 548 561 530 583 506 C 605 482 622 453 635 417 C 647 381 654 339 654 291 C 654 243 647 200 634 164 C 620 127 602 96 579 71 C 556 46 529 27 498 15 C 466 2 433 -4 397 -4 C 359 -4 325 4 296 20 C 266 36 246 56 234 81 L 234 -198 L 75 -198 Z M 359 131 C 395 131 425 145 451 173 C 477 201 490 240 490 291 C 490 335 479 371 458 400 C 436 428 405 443 363 443 C 319 443 286 430 262 404 C 238 378 226 339 226 288 C 226 229 238 188 262 165 C 286 142 319 131 359 131 Z" unicode="þ" />
<glyph horiz-adv-x="607" d="M 0 0 L 0 0 Z M 615 567 L 322 -60 C 310 -86 295 -108 277 -126 C 259 -144 240 -158 220 -169 C 200 -179 179 -187 157 -192 C 135 -197 115 -200 95 -200 C 72 -200 53 -197 38 -192 C 23 -186 12 -182 6 -180 L 51 -54 C 55 -56 61 -59 71 -61 C 80 -63 90 -65 100 -65 C 118 -65 133 -60 146 -50 C 158 -40 171 -24 184 -2 L 219 62 L -8 567 L 164 567 L 305 241 L 450 567 L 615 567 Z M 305 612 L 305 612 Z M 474 612 L 341 612 L 341 775 L 474 775 L 474 612 Z M 269 612 L 136 612 L 136 775 L 269 775 L 269 612 Z" unicode="ÿ" />
<glyph horiz-adv-x="685" d="M 0 0 L 0 0 Z M 690 0 L 509 0 L 461 121 L 209 121 L 164 0 L -5 0 L 291 731 L 404 731 L 690 0 Z M 426 240 L 334 481 L 245 240 L 426 240 Z M 340 778 L 340 778 Z M 488 778 L 192 778 L 192 899 L 488 899 L 488 778 Z" unicode="Ā" />
<glyph horiz-adv-x="635" d="M 31 0 L 31 0 Z M 570 0 L 415 0 L 415 63 C 396 39 371 22 341 10 C 310 -2 270 -8 221 -8 C 159 -8 111 6 79 36 C 47 66 31 105 31 154 C 31 220 57 269 109 303 C 161 337 236 356 335 361 L 414 365 L 414 375 C 413 398 405 416 390 430 C 374 444 350 451 316 451 C 283 451 250 445 216 433 C 182 421 149 406 117 388 L 54 496 C 86 520 127 540 175 557 C 223 574 278 583 338 583 C 413 583 470 566 510 533 C 550 500 570 446 570 372 L 570 0 Z M 417 179 L 417 263 L 317 260 C 280 259 251 252 230 238 C 208 224 198 204 198 178 C 198 158 205 143 220 132 C 235 121 255 116 280 116 C 308 116 335 122 359 134 C 383 146 402 161 417 179 Z M 309 615 L 309 615 Z M 457 615 L 161 615 L 161 736 L 457 736 L 457 615 Z" unicode="ā" />
<glyph horiz-adv-x="685" d="M 0 0 L 0 0 Z M 690 0 L 509 0 L 461 121 L 209 121 L 164 0 L -5 0 L 291 731 L 404 731 L 690 0 Z M 426 240 L 334 481 L 245 240 L 426 240 Z M 340 773 L 340 773 Z M 390 937 L 520 937 C 515 880 496 838 463 812 C 429 786 388 773 340 773 C 291 773 250 786 217 812 C 183 838 164 880 160 937 L 290 937 C 291 912 295 893 303 881 C 311 869 323 863 340 863 C 356 863 369 869 377 881 C 385 893 389 911 390 937 Z" unicode="Ă" />
<glyph horiz-adv-x="635" d="M 31 0 L 31 0 Z M 570 0 L 415 0 L 415 63 C 396 39 371 22 341 10 C 310 -2 270 -8 221 -8 C 159 -8 111 6 79 36 C 47 66 31 105 31 154 C 31 220 57 269 109 303 C 161 337 236 356 335 361 L 414 365 L 414 375 C 413 398 405 416 390 430 C 374 444 350 451 316 451 C 283 451 250 445 216 433 C 182 421 149 406 117 388 L 54 496 C 86 520 127 540 175 557 C 223 574 278 583 338 583 C 413 583 470 566 510 533 C 550 500 570 446 570 372 L 570 0 Z M 417 179 L 417 263 L 317 260 C 280 259 251 252 230 238 C 208 224 198 204 198 178 C 198 158 205 143 220 132 C 235 121 255 116 280 116 C 308 116 335 122 359 134 C 383 146 402 161 417 179 Z M 309 610 L 309 610 Z M 359 774 L 489 774 C 484 717 465 675 432 649 C 398 623 357 610 309 610 C 260 610 219 623 186 649 C 152 675 133 717 129 774 L 259 774 C 260 749 264 730 272 718 C 280 706 292 700 309 700 C 325 700 338 706 346 718 C 354 730 358 748 359 774 Z" unicode="ă" />
<glyph horiz-adv-x="685" d="M 0 0 L 0 0 Z M 690 0 L 509 0 L 461 121 L 209 121 L 164 0 L -5 0 L 291 731 L 404 731 L 690 0 Z M 426 240 L 334 481 L 245 240 L 426 240 Z M 527 -3 L 527 -3 Z M 625 -63 L 665 -127 C 642 -151 618 -169 592 -181 C 566 -193 537 -199 505 -199 C 468 -199 439 -191 419 -176 C 399 -161 389 -142 389 -119 C 389 -94 399 -71 421 -49 C 442 -27 471 -9 507 7 L 577 7 C 559 -2 545 -12 535 -24 C 525 -35 521 -46 521 -56 C 521 -65 524 -72 532 -78 C 539 -83 548 -86 559 -86 C 573 -86 585 -83 596 -79 C 607 -75 617 -69 625 -63 Z" unicode="Ą" />
<glyph horiz-adv-x="635" d="M 31 0 L 31 0 Z M 570 0 L 415 0 L 415 63 C 396 39 371 22 341 10 C 310 -2 270 -8 221 -8 C 159 -8 111 6 79 36 C 47 66 31 105 31 154 C 31 220 57 269 109 303 C 161 337 236 356 335 361 L 414 365 L 414 375 C 413 398 405 416 390 430 C 374 444 350 451 316 451 C 283 451 250 445 216 433 C 182 421 149 406 117 388 L 54 496 C 86 520 127 540 175 557 C 223 574 278 583 338 583 C 413 583 470 566 510 533 C 550 500 570 446 570 372 L 570 0 Z M 417 179 L 417 263 L 317 260 C 280 259 251 252 230 238 C 208 224 198 204 198 178 C 198 158 205 143 220 132 C 235 121 255 116 280 116 C 308 116 335 122 359 134 C 383 146 402 161 417 179 Z M 435 -3 L 435 -3 Z M 533 -63 L 573 -127 C 550 -151 526 -169 500 -181 C 474 -193 445 -199 413 -199 C 376 -199 347 -191 327 -176 C 307 -161 297 -142 297 -119 C 297 -94 307 -71 329 -49 C 350 -27 379 -9 415 7 L 485 7 C 467 -2 453 -12 443 -24 C 433 -35 429 -46 429 -56 C 429 -65 432 -72 440 -78 C 447 -83 456 -86 467 -86 C 481 -86 493 -83 504 -79 C 515 -75 525 -69 533 -63 Z" unicode="ą" />
<glyph horiz-adv-x="738" d="M 41 0 L 41 0 Z M 402 -12 C 351 -12 303 -3 259 14 C 215 32 177 57 145 89 C 113 121 87 161 69 208 C 50 254 41 307 41 365 C 41 421 50 472 68 519 C 86 565 112 605 144 638 C 176 671 215 697 259 715 C 303 733 351 742 403 742 C 469 742 527 732 578 712 C 629 692 672 658 706 612 L 580 509 C 560 533 537 552 510 566 C 482 580 448 587 406 587 C 342 587 293 567 261 527 C 228 487 212 436 212 374 C 212 332 217 296 229 266 C 241 236 256 211 276 192 C 296 173 318 159 344 150 C 369 141 395 137 423 137 C 463 137 498 145 527 162 C 555 179 579 202 598 231 L 720 147 C 694 103 655 65 601 34 C 547 3 481 -12 402 -12 Z M 406 779 L 406 779 Z M 262 779 L 363 937 L 551 937 L 420 779 L 262 779 Z" unicode="Ć" />
<glyph horiz-adv-x="612" d="M 37 0 L 37 0 Z M 465 210 L 590 125 C 567 89 535 57 494 29 C 453 1 398 -12 329 -12 C 289 -12 251 -5 215 7 C 179 19 148 38 122 63 C 96 87 75 118 60 155 C 44 191 37 234 37 282 C 37 327 44 368 60 405 C 75 442 96 473 122 499 C 148 525 180 545 217 559 C 253 573 293 580 336 580 C 372 580 404 575 432 566 C 460 557 485 545 506 530 C 526 514 543 497 557 477 C 570 457 580 437 587 416 L 450 356 C 439 379 424 398 406 414 C 388 430 362 438 330 438 C 290 438 258 423 236 395 C 213 367 202 330 202 286 C 202 233 214 194 238 169 C 262 144 295 132 335 132 C 369 132 397 139 418 155 C 438 171 454 189 465 210 Z M 332 616 L 332 616 Z M 188 616 L 289 774 L 477 774 L 346 616 L 188 616 Z" unicode="ć" />
<glyph horiz-adv-x="738" d="M 41 0 L 41 0 Z M 402 -12 C 351 -12 303 -3 259 14 C 215 32 177 57 145 89 C 113 121 87 161 69 208 C 50 254 41 307 41 365 C 41 421 50 472 68 519 C 86 565 112 605 144 638 C 176 671 215 697 259 715 C 303 733 351 742 403 742 C 469 742 527 732 578 712 C 629 692 672 658 706 612 L 580 509 C 560 533 537 552 510 566 C 482 580 448 587 406 587 C 342 587 293 567 261 527 C 228 487 212 436 212 374 C 212 332 217 296 229 266 C 241 236 256 211 276 192 C 296 173 318 159 344 150 C 369 141 395 137 423 137 C 463 137 498 145 527 162 C 555 179 579 202 598 231 L 720 147 C 694 103 655 65 601 34 C 547 3 481 -12 402 -12 Z M 406 775 L 406 775 Z M 610 775 L 465 775 L 405 857 L 345 775 L 203 775 L 326 949 L 487 949 L 610 775 Z" unicode="Ĉ" />
<glyph horiz-adv-x="612" d="M 37 0 L 37 0 Z M 465 210 L 590 125 C 567 89 535 57 494 29 C 453 1 398 -12 329 -12 C 289 -12 251 -5 215 7 C 179 19 148 38 122 63 C 96 87 75 118 60 155 C 44 191 37 234 37 282 C 37 327 44 368 60 405 C 75 442 96 473 122 499 C 148 525 180 545 217 559 C 253 573 293 580 336 580 C 372 580 404 575 432 566 C 460 557 485 545 506 530 C 526 514 543 497 557 477 C 570 457 580 437 587 416 L 450 356 C 439 379 424 398 406 414 C 388 430 362 438 330 438 C 290 438 258 423 236 395 C 213 367 202 330 202 286 C 202 233 214 194 238 169 C 262 144 295 132 335 132 C 369 132 397 139 418 155 C 438 171 454 189 465 210 Z M 332 612 L 332 612 Z M 536 612 L 391 612 L 331 694 L 271 612 L 129 612 L 252 786 L 413 786 L 536 612 Z" unicode="ĉ" />
<glyph horiz-adv-x="738" d="M 41 0 L 41 0 Z M 402 -12 C 351 -12 303 -3 259 14 C 215 32 177 57 145 89 C 113 121 87 161 69 208 C 50 254 41 307 41 365 C 41 421 50 472 68 519 C 86 565 112 605 144 638 C 176 671 215 697 259 715 C 303 733 351 742 403 742 C 469 742 527 732 578 712 C 629 692 672 658 706 612 L 580 509 C 560 533 537 552 510 566 C 482 580 448 587 406 587 C 342 587 293 567 261 527 C 228 487 212 436 212 374 C 212 332 217 296 229 266 C 241 236 256 211 276 192 C 296 173 318 159 344 150 C 369 141 395 137 423 137 C 463 137 498 145 527 162 C 555 179 579 202 598 231 L 720 147 C 694 103 655 65 601 34 C 547 3 481 -12 402 -12 Z M 406 775 L 406 775 Z M 477 775 L 336 775 L 336 940 L 477 940 L 477 775 Z" unicode="Ċ" />
<glyph horiz-adv-x="612" d="M 37 0 L 37 0 Z M 465 210 L 590 125 C 567 89 535 57 494 29 C 453 1 398 -12 329 -12 C 289 -12 251 -5 215 7 C 179 19 148 38 122 63 C 96 87 75 118 60 155 C 44 191 37 234 37 282 C 37 327 44 368 60 405 C 75 442 96 473 122 499 C 148 525 180 545 217 559 C 253 573 293 580 336 580 C 372 580 404 575 432 566 C 460 557 485 545 506 530 C 526 514 543 497 557 477 C 570 457 580 437 587 416 L 450 356 C 439 379 424 398 406 414 C 388 430 362 438 330 438 C 290 438 258 423 236 395 C 213 367 202 330 202 286 C 202 233 214 194 238 169 C 262 144 295 132 335 132 C 369 132 397 139 418 155 C 438 171 454 189 465 210 Z M 332 612 L 332 612 Z M 403 612 L 262 612 L 262 777 L 403 777 L 403 612 Z" unicode="ċ" />
<glyph horiz-adv-x="738" d="M 41 0 L 41 0 Z M 402 -12 C 351 -12 303 -3 259 14 C 215 32 177 57 145 89 C 113 121 87 161 69 208 C 50 254 41 307 41 365 C 41 421 50 472 68 519 C 86 565 112 605 144 638 C 176 671 215 697 259 715 C 303 733 351 742 403 742 C 469 742 527 732 578 712 C 629 692 672 658 706 612 L 580 509 C 560 533 537 552 510 566 C 482 580 448 587 406 587 C 342 587 293 567 261 527 C 228 487 212 436 212 374 C 212 332 217 296 229 266 C 241 236 256 211 276 192 C 296 173 318 159 344 150 C 369 141 395 137 423 137 C 463 137 498 145 527 162 C 555 179 579 202 598 231 L 720 147 C 694 103 655 65 601 34 C 547 3 481 -12 402 -12 Z M 406 775 L 406 775 Z M 203 949 L 347 949 L 407 868 L 467 949 L 610 949 L 487 775 L 326 775 L 203 949 Z" unicode="Č" />
<glyph horiz-adv-x="612" d="M 37 0 L 37 0 Z M 465 210 L 590 125 C 567 89 535 57 494 29 C 453 1 398 -12 329 -12 C 289 -12 251 -5 215 7 C 179 19 148 38 122 63 C 96 87 75 118 60 155 C 44 191 37 234 37 282 C 37 327 44 368 60 405 C 75 442 96 473 122 499 C 148 525 180 545 217 559 C 253 573 293 580 336 580 C 372 580 404 575 432 566 C 460 557 485 545 506 530 C 526 514 543 497 557 477 C 570 457 580 437 587 416 L 450 356 C 439 379 424 398 406 414 C 388 430 362 438 330 438 C 290 438 258 423 236 395 C 213 367 202 330 202 286 C 202 233 214 194 238 169 C 262 144 295 132 335 132 C 369 132 397 139 418 155 C 438 171 454 189 465 210 Z M 332 612 L 332 612 Z M 129 786 L 273 786 L 333 705 L 393 786 L 536 786 L 413 612 L 252 612 L 129 786 Z" unicode="č" />
<glyph horiz-adv-x="767" d="M 84 0 L 84 0 Z M 84 0 L 84 730 L 350 730 C 411 730 465 721 513 704 C 560 686 599 662 631 631 C 662 599 686 562 702 518 C 718 474 726 425 726 372 C 726 320 717 271 700 226 C 683 180 658 141 625 108 C 592 74 551 48 501 29 C 451 9 395 0 331 0 L 84 0 Z M 254 131 L 330 131 C 368 131 401 137 429 151 C 457 164 479 182 497 204 C 515 226 528 251 536 280 C 544 309 549 339 549 370 C 549 437 531 492 497 535 C 462 577 411 599 344 599 L 254 599 L 254 131 Z M 372 775 L 372 775 Z M 169 949 L 313 949 L 373 868 L 433 949 L 576 949 L 453 775 L 292 775 L 169 949 Z" unicode="Ď" />
<glyph horiz-adv-x="692" d="M 38 0 L 38 0 Z M 298 -11 C 262 -11 229 -4 197 7 C 165 19 138 38 114 63 C 90 88 72 119 58 157 C 44 194 38 238 38 288 C 38 328 45 366 61 402 C 76 438 96 468 121 494 C 146 520 175 540 208 555 C 241 570 275 578 311 578 C 339 578 369 571 399 557 C 429 543 450 526 464 508 L 464 800 L 617 800 L 617 0 L 473 0 L 473 83 C 469 74 461 64 450 53 C 439 42 426 32 410 22 C 394 12 377 4 358 -1 C 338 -7 318 -11 298 -11 Z M 330 123 C 375 123 409 137 431 167 C 453 196 464 236 464 286 C 464 342 452 383 428 407 C 404 431 373 443 335 443 C 292 443 259 429 237 401 C 214 373 203 335 203 286 C 203 238 214 198 236 168 C 258 138 290 123 330 123 Z M 791 585 L 785 406 L 651 406 L 644 585 L 644 730 L 791 730 L 791 585 Z" unicode="ď" />
<glyph horiz-adv-x="739" d="M 35 0 L 35 0 Z M 726 367 C 726 316 717 268 700 224 C 683 179 658 140 625 107 C 592 74 551 48 501 29 C 451 9 395 0 331 0 L 84 0 L 84 297 L 35 297 L 35 416 L 84 416 L 84 730 L 350 730 C 411 730 465 721 513 704 C 560 686 599 662 631 630 C 662 598 686 560 702 515 C 718 470 726 421 726 367 Z M 246 128 L 330 128 C 370 128 405 134 433 148 C 461 162 484 180 502 202 C 519 224 532 249 540 278 C 548 306 552 335 552 365 C 552 436 534 493 500 536 C 465 579 414 601 347 601 L 246 601 L 246 416 L 372 416 L 372 297 L 246 297 L 246 128 Z" unicode="Đ" />
<glyph horiz-adv-x="692" d="M 473 83 C 469 74 461 64 450 53 C 439 42 426 32 410 22 C 394 12 377 4 358 -1 C 338 -7 318 -11 298 -11 C 262 -11 229 -4 197 7 C 165 19 138 38 114 63 C 90 88 72 119 58 157 C 44 194 38 238 38 288 C 38 328 45 366 61 402 C 76 438 96 468 121 494 C 146 520 175 540 208 555 C 241 570 275 578 311 578 C 339 578 369 571 399 557 C 429 543 450 526 464 508 L 464 616 L 315 616 L 315 720 L 464 720 L 464 800 L 617 800 L 617 720 L 687 720 L 687 616 L 617 616 L 617 0 L 473 0 L 473 83 Z M 330 123 C 375 123 409 137 431 167 C 453 196 464 236 464 286 C 464 342 452 383 428 407 C 404 431 373 443 335 443 C 292 443 259 429 237 401 C 214 373 203 335 203 286 C 203 238 214 198 236 168 C 258 138 290 123 330 123 Z" unicode="đ" />
<glyph horiz-adv-x="620" d="M 84 0 L 84 0 Z M 570 0 L 84 0 L 84 730 L 551 730 L 551 591 L 251 591 L 251 428 L 529 428 L 529 295 L 251 295 L 251 139 L 570 139 L 570 0 Z M 326 778 L 326 778 Z M 474 778 L 178 778 L 178 899 L 474 899 L 474 778 Z" unicode="Ē" />
<glyph horiz-adv-x="650" d="M 37 0 L 37 0 Z M 336 -12 C 292 -12 251 -5 215 7 C 178 20 146 39 120 64 C 94 88 73 119 59 155 C 44 191 37 233 37 279 C 37 322 44 362 59 399 C 74 436 95 468 121 495 C 147 521 178 542 214 557 C 250 572 290 580 332 580 C 419 580 488 550 538 490 C 588 430 613 344 614 234 L 198 234 C 198 221 202 208 208 195 C 214 181 222 169 234 159 C 245 149 259 140 276 134 C 292 127 312 124 335 124 C 373 124 403 130 427 142 C 451 154 469 168 483 185 L 578 86 C 552 57 520 33 482 15 C 444 -2 396 -12 336 -12 Z M 199 340 L 448 340 C 446 370 434 396 412 416 C 390 436 361 447 327 447 C 291 447 261 436 239 414 C 216 392 203 367 199 340 Z M 328 615 L 328 615 Z M 476 615 L 180 615 L 180 736 L 476 736 L 476 615 Z" unicode="ē" />
<glyph horiz-adv-x="620" d="M 84 0 L 84 0 Z M 570 0 L 84 0 L 84 730 L 551 730 L 551 591 L 251 591 L 251 428 L 529 428 L 529 295 L 251 295 L 251 139 L 570 139 L 570 0 Z M 326 773 L 326 773 Z M 376 937 L 506 937 C 501 880 482 838 449 812 C 415 786 374 773 326 773 C 277 773 236 786 203 812 C 169 838 150 880 146 937 L 276 937 C 277 912 281 893 289 881 C 297 869 309 863 326 863 C 342 863 355 869 363 881 C 371 893 375 911 376 937 Z" unicode="Ĕ" />
<glyph horiz-adv-x="650" d="M 37 0 L 37 0 Z M 336 -12 C 292 -12 251 -5 215 7 C 178 20 146 39 120 64 C 94 88 73 119 59 155 C 44 191 37 233 37 279 C 37 322 44 362 59 399 C 74 436 95 468 121 495 C 147 521 178 542 214 557 C 250 572 290 580 332 580 C 419 580 488 550 538 490 C 588 430 613 344 614 234 L 198 234 C 198 221 202 208 208 195 C 214 181 222 169 234 159 C 245 149 259 140 276 134 C 292 127 312 124 335 124 C 373 124 403 130 427 142 C 451 154 469 168 483 185 L 578 86 C 552 57 520 33 482 15 C 444 -2 396 -12 336 -12 Z M 199 340 L 448 340 C 446 370 434 396 412 416 C 390 436 361 447 327 447 C 291 447 261 436 239 414 C 216 392 203 367 199 340 Z M 328 610 L 328 610 Z M 378 774 L 508 774 C 503 717 484 675 451 649 C 417 623 376 610 328 610 C 279 610 238 623 205 649 C 171 675 152 717 148 774 L 278 774 C 279 749 283 730 291 718 C 299 706 311 700 328 700 C 344 700 357 706 365 718 C 373 730 377 748 378 774 Z" unicode="ĕ" />
<glyph horiz-adv-x="620" d="M 84 0 L 84 0 Z M 570 0 L 84 0 L 84 730 L 551 730 L 551 591 L 251 591 L 251 428 L 529 428 L 529 295 L 251 295 L 251 139 L 570 139 L 570 0 Z M 326 775 L 326 775 Z M 397 775 L 256 775 L 256 940 L 397 940 L 397 775 Z" unicode="Ė" />
<glyph horiz-adv-x="650" d="M 37 0 L 37 0 Z M 336 -12 C 292 -12 251 -5 215 7 C 178 20 146 39 120 64 C 94 88 73 119 59 155 C 44 191 37 233 37 279 C 37 322 44 362 59 399 C 74 436 95 468 121 495 C 147 521 178 542 214 557 C 250 572 290 580 332 580 C 419 580 488 550 538 490 C 588 430 613 344 614 234 L 198 234 C 198 221 202 208 208 195 C 214 181 222 169 234 159 C 245 149 259 140 276 134 C 292 127 312 124 335 124 C 373 124 403 130 427 142 C 451 154 469 168 483 185 L 578 86 C 552 57 520 33 482 15 C 444 -2 396 -12 336 -12 Z M 199 340 L 448 340 C 446 370 434 396 412 416 C 390 436 361 447 327 447 C 291 447 261 436 239 414 C 216 392 203 367 199 340 Z M 328 612 L 328 612 Z M 399 612 L 258 612 L 258 777 L 399 777 L 399 612 Z" unicode="ė" />
<glyph horiz-adv-x="620" d="M 84 0 L 84 0 Z M 570 0 L 84 0 L 84 730 L 551 730 L 551 591 L 251 591 L 251 428 L 529 428 L 529 295 L 251 295 L 251 139 L 570 139 L 570 0 Z M 519 -3 L 519 -3 Z M 617 -63 L 657 -127 C 634 -151 610 -169 584 -181 C 558 -193 529 -199 497 -199 C 460 -199 431 -191 411 -176 C 391 -161 381 -142 381 -119 C 381 -94 391 -71 413 -49 C 434 -27 463 -9 499 7 L 569 7 C 551 -2 537 -12 527 -24 C 517 -35 513 -46 513 -56 C 513 -65 516 -72 524 -78 C 531 -83 540 -86 551 -86 C 565 -86 577 -83 588 -79 C 599 -75 609 -69 617 -63 Z" unicode="Ę" />
<glyph horiz-adv-x="650" d="M 37 0 L 37 0 Z M 336 -12 C 292 -12 251 -5 215 7 C 178 20 146 39 120 64 C 94 88 73 119 59 155 C 44 191 37 233 37 279 C 37 322 44 362 59 399 C 74 436 95 468 121 495 C 147 521 178 542 214 557 C 250 572 290 580 332 580 C 419 580 488 550 538 490 C 588 430 613 344 614 234 L 198 234 C 198 221 202 208 208 195 C 214 181 222 169 234 159 C 245 149 259 140 276 134 C 292 127 312 124 335 124 C 373 124 403 130 427 142 C 451 154 469 168 483 185 L 578 86 C 552 57 520 33 482 15 C 444 -2 396 -12 336 -12 Z M 199 340 L 448 340 C 446 370 434 396 412 416 C 390 436 361 447 327 447 C 291 447 261 436 239 414 C 216 392 203 367 199 340 Z M 406 -3 L 406 -3 Z M 504 -63 L 544 -127 C 521 -151 497 -169 471 -181 C 445 -193 416 -199 384 -199 C 347 -199 318 -191 298 -176 C 278 -161 268 -142 268 -119 C 268 -94 278 -71 300 -49 C 321 -27 350 -9 386 7 L 456 7 C 438 -2 424 -12 414 -24 C 404 -35 400 -46 400 -56 C 400 -65 403 -72 411 -78 C 418 -83 427 -86 438 -86 C 452 -86 464 -83 475 -79 C 486 -75 496 -69 504 -63 Z" unicode="ę" />
<glyph horiz-adv-x="620" d="M 84 0 L 84 0 Z M 570 0 L 84 0 L 84 730 L 551 730 L 551 591 L 251 591 L 251 428 L 529 428 L 529 295 L 251 295 L 251 139 L 570 139 L 570 0 Z M 326 775 L 326 775 Z M 123 949 L 267 949 L 327 868 L 387 949 L 530 949 L 407 775 L 246 775 L 123 949 Z" unicode="Ě" />
<glyph horiz-adv-x="650" d="M 37 0 L 37 0 Z M 336 -12 C 292 -12 251 -5 215 7 C 178 20 146 39 120 64 C 94 88 73 119 59 155 C 44 191 37 233 37 279 C 37 322 44 362 59 399 C 74 436 95 468 121 495 C 147 521 178 542 214 557 C 250 572 290 580 332 580 C 419 580 488 550 538 490 C 588 430 613 344 614 234 L 198 234 C 198 221 202 208 208 195 C 214 181 222 169 234 159 C 245 149 259 140 276 134 C 292 127 312 124 335 124 C 373 124 403 130 427 142 C 451 154 469 168 483 185 L 578 86 C 552 57 520 33 482 15 C 444 -2 396 -12 336 -12 Z M 199 340 L 448 340 C 446 370 434 396 412 416 C 390 436 361 447 327 447 C 291 447 261 436 239 414 C 216 392 203 367 199 340 Z M 328 612 L 328 612 Z M 125 786 L 269 786 L 329 705 L 389 786 L 532 786 L 409 612 L 248 612 L 125 786 Z" unicode="ě" />
<glyph horiz-adv-x="794" d="M 41 0 L 41 0 Z M 419 395 L 750 395 L 750 153 C 721 107 677 68 618 36 C 559 4 492 -12 417 -12 C 362 -12 312 -3 266 13 C 220 30 180 55 147 87 C 113 119 87 158 69 205 C 50 252 41 305 41 365 C 41 423 50 476 70 523 C 90 569 116 609 150 641 C 184 673 223 698 269 716 C 315 733 363 742 415 742 C 451 742 485 738 515 732 C 545 725 571 716 594 705 C 617 694 637 682 655 669 C 672 655 686 642 697 630 L 591 513 C 573 531 551 548 524 563 C 497 578 459 586 409 586 C 381 586 354 581 330 573 C 305 565 284 552 266 534 C 248 516 234 494 224 467 C 214 440 209 408 209 372 C 209 291 228 230 268 189 C 308 147 359 127 421 127 C 463 127 499 134 531 148 C 562 162 583 182 595 208 L 595 258 L 419 258 L 419 395 Z M 413 775 L 413 775 Z M 617 775 L 472 775 L 412 857 L 352 775 L 210 775 L 333 949 L 494 949 L 617 775 Z" unicode="Ĝ" />
<glyph horiz-adv-x="689" d="M 39 0 L 39 0 Z M 291 15 C 255 15 222 21 191 35 C 160 49 133 68 111 92 C 89 116 71 146 58 180 C 45 214 39 252 39 293 C 39 380 62 449 110 500 C 158 551 221 577 299 577 C 341 577 377 569 409 553 C 440 537 461 517 473 495 L 473 567 L 617 567 L 617 73 C 617 26 607 -14 589 -49 C 570 -84 546 -113 517 -135 C 487 -157 454 -174 417 -186 C 380 -197 344 -203 309 -203 C 237 -203 181 -195 141 -180 C 100 -164 70 -150 52 -138 L 118 -22 C 132 -34 156 -45 188 -56 C 220 -67 255 -73 292 -73 C 344 -73 386 -61 417 -37 C 447 -13 463 19 463 63 L 463 115 C 458 105 451 94 442 82 C 432 70 420 60 406 50 C 392 40 375 31 356 25 C 336 18 315 15 291 15 Z M 334 144 C 369 144 399 156 425 181 C 450 206 463 244 463 294 C 463 336 453 370 434 396 C 414 422 382 435 338 435 C 296 435 263 422 239 396 C 215 370 203 333 203 283 C 203 233 214 198 237 176 C 260 154 292 144 334 144 Z M 322 612 L 322 612 Z M 526 612 L 381 612 L 321 694 L 261 612 L 119 612 L 242 786 L 403 786 L 526 612 Z" unicode="ĝ" />
<glyph horiz-adv-x="794" d="M 41 0 L 41 0 Z M 419 395 L 750 395 L 750 153 C 721 107 677 68 618 36 C 559 4 492 -12 417 -12 C 362 -12 312 -3 266 13 C 220 30 180 55 147 87 C 113 119 87 158 69 205 C 50 252 41 305 41 365 C 41 423 50 476 70 523 C 90 569 116 609 150 641 C 184 673 223 698 269 716 C 315 733 363 742 415 742 C 451 742 485 738 515 732 C 545 725 571 716 594 705 C 617 694 637 682 655 669 C 672 655 686 642 697 630 L 591 513 C 573 531 551 548 524 563 C 497 578 459 586 409 586 C 381 586 354 581 330 573 C 305 565 284 552 266 534 C 248 516 234 494 224 467 C 214 440 209 408 209 372 C 209 291 228 230 268 189 C 308 147 359 127 421 127 C 463 127 499 134 531 148 C 562 162 583 182 595 208 L 595 258 L 419 258 L 419 395 Z M 413 773 L 413 773 Z M 463 937 L 593 937 C 588 880 569 838 536 812 C 502 786 461 773 413 773 C 364 773 323 786 290 812 C 256 838 237 880 233 937 L 363 937 C 364 912 368 893 376 881 C 384 869 396 863 413 863 C 429 863 442 869 450 881 C 458 893 462 911 463 937 Z" unicode="Ğ" />
<glyph horiz-adv-x="689" d="M 39 0 L 39 0 Z M 291 15 C 255 15 222 21 191 35 C 160 49 133 68 111 92 C 89 116 71 146 58 180 C 45 214 39 252 39 293 C 39 380 62 449 110 500 C 158 551 221 577 299 577 C 341 577 377 569 409 553 C 440 537 461 517 473 495 L 473 567 L 617 567 L 617 73 C 617 26 607 -14 589 -49 C 570 -84 546 -113 517 -135 C 487 -157 454 -174 417 -186 C 380 -197 344 -203 309 -203 C 237 -203 181 -195 141 -180 C 100 -164 70 -150 52 -138 L 118 -22 C 132 -34 156 -45 188 -56 C 220 -67 255 -73 292 -73 C 344 -73 386 -61 417 -37 C 447 -13 463 19 463 63 L 463 115 C 458 105 451 94 442 82 C 432 70 420 60 406 50 C 392 40 375 31 356 25 C 336 18 315 15 291 15 Z M 334 144 C 369 144 399 156 425 181 C 450 206 463 244 463 294 C 463 336 453 370 434 396 C 414 422 382 435 338 435 C 296 435 263 422 239 396 C 215 370 203 333 203 283 C 203 233 214 198 237 176 C 260 154 292 144 334 144 Z M 322 610 L 322 610 Z M 372 774 L 502 774 C 497 717 478 675 445 649 C 411 623 370 610 322 610 C 273 610 232 623 199 649 C 165 675 146 717 142 774 L 272 774 C 273 749 277 730 285 718 C 293 706 305 700 322 700 C 338 700 351 706 359 718 C 367 730 371 748 372 774 Z" unicode="ğ" />
<glyph horiz-adv-x="794" d="M 41 0 L 41 0 Z M 419 395 L 750 395 L 750 153 C 721 107 677 68 618 36 C 559 4 492 -12 417 -12 C 362 -12 312 -3 266 13 C 220 30 180 55 147 87 C 113 119 87 158 69 205 C 50 252 41 305 41 365 C 41 423 50 476 70 523 C 90 569 116 609 150 641 C 184 673 223 698 269 716 C 315 733 363 742 415 742 C 451 742 485 738 515 732 C 545 725 571 716 594 705 C 617 694 637 682 655 669 C 672 655 686 642 697 630 L 591 513 C 573 531 551 548 524 563 C 497 578 459 586 409 586 C 381 586 354 581 330 573 C 305 565 284 552 266 534 C 248 516 234 494 224 467 C 214 440 209 408 209 372 C 209 291 228 230 268 189 C 308 147 359 127 421 127 C 463 127 499 134 531 148 C 562 162 583 182 595 208 L 595 258 L 419 258 L 419 395 Z M 413 775 L 413 775 Z M 484 775 L 343 775 L 343 940 L 484 940 L 484 775 Z" unicode="Ġ" />
<glyph horiz-adv-x="689" d="M 39 0 L 39 0 Z M 291 15 C 255 15 222 21 191 35 C 160 49 133 68 111 92 C 89 116 71 146 58 180 C 45 214 39 252 39 293 C 39 380 62 449 110 500 C 158 551 221 577 299 577 C 341 577 377 569 409 553 C 440 537 461 517 473 495 L 473 567 L 617 567 L 617 73 C 617 26 607 -14 589 -49 C 570 -84 546 -113 517 -135 C 487 -157 454 -174 417 -186 C 380 -197 344 -203 309 -203 C 237 -203 181 -195 141 -180 C 100 -164 70 -150 52 -138 L 118 -22 C 132 -34 156 -45 188 -56 C 220 -67 255 -73 292 -73 C 344 -73 386 -61 417 -37 C 447 -13 463 19 463 63 L 463 115 C 458 105 451 94 442 82 C 432 70 420 60 406 50 C 392 40 375 31 356 25 C 336 18 315 15 291 15 Z M 334 144 C 369 144 399 156 425 181 C 450 206 463 244 463 294 C 463 336 453 370 434 396 C 414 422 382 435 338 435 C 296 435 263 422 239 396 C 215 370 203 333 203 283 C 203 233 214 198 237 176 C 260 154 292 144 334 144 Z M 322 612 L 322 612 Z M 393 612 L 252 612 L 252 777 L 393 777 L 393 612 Z" unicode="ġ" />
<glyph horiz-adv-x="794" d="M 41 0 L 41 0 Z M 419 395 L 750 395 L 750 153 C 721 107 677 68 618 36 C 559 4 492 -12 417 -12 C 362 -12 312 -3 266 13 C 220 30 180 55 147 87 C 113 119 87 158 69 205 C 50 252 41 305 41 365 C 41 423 50 476 70 523 C 90 569 116 609 150 641 C 184 673 223 698 269 716 C 315 733 363 742 415 742 C 451 742 485 738 515 732 C 545 725 571 716 594 705 C 617 694 637 682 655 669 C 672 655 686 642 697 630 L 591 513 C 573 531 551 548 524 563 C 497 578 459 586 409 586 C 381 586 354 581 330 573 C 305 565 284 552 266 534 C 248 516 234 494 224 467 C 214 440 209 408 209 372 C 209 291 228 230 268 189 C 308 147 359 127 421 127 C 463 127 499 134 531 148 C 562 162 583 182 595 208 L 595 258 L 419 258 L 419 395 Z" unicode="Ģ" />
<glyph horiz-adv-x="689" d="M 39 0 L 39 0 Z M 291 15 C 255 15 222 21 191 35 C 160 49 133 68 111 92 C 89 116 71 146 58 180 C 45 214 39 252 39 293 C 39 380 62 449 110 500 C 158 551 221 577 299 577 C 341 577 377 569 409 553 C 440 537 461 517 473 495 L 473 567 L 617 567 L 617 73 C 617 26 607 -14 589 -49 C 570 -84 546 -113 517 -135 C 487 -157 454 -174 417 -186 C 380 -197 344 -203 309 -203 C 237 -203 181 -195 141 -180 C 100 -164 70 -150 52 -138 L 118 -22 C 132 -34 156 -45 188 -56 C 220 -67 255 -73 292 -73 C 344 -73 386 -61 417 -37 C 447 -13 463 19 463 63 L 463 115 C 458 105 451 94 442 82 C 432 70 420 60 406 50 C 392 40 375 31 356 25 C 336 18 315 15 291 15 Z M 334 144 C 369 144 399 156 425 181 C 450 206 463 244 463 294 C 463 336 453 370 434 396 C 414 422 382 435 338 435 C 296 435 263 422 239 396 C 215 370 203 333 203 283 C 203 233 214 198 237 176 C 260 154 292 144 334 144 Z" unicode="ģ" />
<glyph horiz-adv-x="784" d="M 84 0 L 84 0 Z M 700 0 L 530 0 L 530 287 L 254 287 L 254 0 L 84 0 L 84 730 L 254 730 L 254 431 L 530 431 L 530 730 L 700 730 L 700 0 Z M 391 775 L 391 775 Z M 595 775 L 450 775 L 390 857 L 330 775 L 188 775 L 311 949 L 472 949 L 595 775 Z" unicode="Ĥ" />
<glyph horiz-adv-x="663" d="M 75 0 L 75 0 Z M 595 0 L 436 0 L 436 372 C 436 390 428 407 413 421 C 398 435 377 442 349 442 C 320 442 294 433 270 417 C 246 401 234 378 234 349 L 234 0 L 75 0 L 75 800 L 219 800 L 219 483 C 227 509 248 532 280 551 C 312 569 354 579 404 579 C 429 579 453 575 477 568 C 500 560 520 550 538 536 C 555 522 569 506 579 486 C 589 466 595 445 595 421 L 595 0 Z M 379 845 L 379 845 Z M 583 845 L 438 845 L 378 927 L 318 845 L 176 845 L 299 1019 L 460 1019 L 583 845 Z" unicode="ĥ" />
<glyph horiz-adv-x="784" d="M 254 287 L 254 0 L 84 0 L 84 530 L 9 530 L 9 633 L 84 633 L 84 730 L 254 730 L 254 633 L 530 633 L 530 730 L 700 730 L 700 633 L 775 633 L 775 530 L 700 530 L 700 0 L 530 0 L 530 287 L 254 287 Z M 254 431 L 530 431 L 530 530 L 254 530 L 254 431 Z" unicode="Ħ" />
<glyph horiz-adv-x="663" d="M 234 349 L 234 0 L 75 0 L 75 616 L 4 616 L 4 720 L 75 720 L 75 800 L 219 800 L 219 720 L 377 720 L 377 616 L 219 616 L 219 483 C 227 509 248 532 280 551 C 312 569 354 579 404 579 C 429 579 453 575 477 568 C 500 560 520 550 538 536 C 555 522 569 506 579 486 C 589 466 595 445 595 421 L 595 0 L 436 0 L 436 372 C 436 390 428 407 413 421 C 398 435 377 442 349 442 C 320 442 294 433 270 417 C 246 401 234 378 234 349 Z" unicode="ħ" />
<glyph horiz-adv-x="346" d="M 0 0 L 0 0 Z M 258 0 L 88 0 L 88 730 L 258 730 L 258 0 Z M 173 776 L 173 776 Z M 244 935 L 369 935 C 369 881 360 841 342 815 C 324 789 300 776 268 776 C 251 776 235 778 221 783 C 207 788 193 794 181 802 C 171 807 162 813 153 820 C 143 826 134 830 126 830 C 117 830 110 825 106 817 C 102 809 99 796 99 779 L -23 779 C -23 805 -19 829 -13 849 C -6 869 2 886 13 899 C 23 912 35 922 49 929 C 62 935 75 939 88 939 C 106 939 122 936 135 931 C 147 925 159 919 170 911 C 178 904 186 899 193 895 C 200 891 207 889 214 889 C 221 889 228 892 234 900 C 240 907 243 919 244 935 Z" unicode="Ĩ" />
<glyph horiz-adv-x="318" d="M 0 0 L 0 0 Z M 239 0 L 79 0 L 79 567 L 239 567 L 239 0 Z M 159 613 L 159 613 Z M 230 772 L 355 772 C 355 718 346 678 328 652 C 310 626 286 613 254 613 C 237 613 221 615 207 620 C 193 625 179 631 167 639 C 157 644 148 650 139 657 C 129 663 120 667 112 667 C 103 667 96 662 92 654 C 88 646 85 633 85 616 L -37 616 C -37 642 -33 666 -27 686 C -20 706 -11 723 -1 736 C 9 749 21 759 35 766 C 48 772 61 776 74 776 C 92 776 108 773 121 768 C 133 762 145 756 156 748 C 164 741 172 736 179 732 C 186 728 193 726 200 726 C 207 726 214 729 220 737 C 226 744 229 756 230 772 Z" unicode="ĩ" />
<glyph horiz-adv-x="346" d="M 25 0 L 25 0 Z M 258 0 L 88 0 L 88 730 L 258 730 L 258 0 Z M 173 778 L 173 778 Z M 321 778 L 25 778 L 25 899 L 321 899 L 321 778 Z" unicode="Ī" />
<glyph horiz-adv-x="318" d="M 11 0 L 11 0 Z M 239 0 L 79 0 L 79 567 L 239 567 L 239 0 Z M 159 615 L 159 615 Z M 307 615 L 11 615 L 11 736 L 307 736 L 307 615 Z" unicode="ī" />
<glyph horiz-adv-x="346" d="M 0 0 L 0 0 Z M 258 0 L 88 0 L 88 730 L 258 730 L 258 0 Z M 173 773 L 173 773 Z M 223 937 L 353 937 C 348 880 329 838 296 812 C 262 786 221 773 173 773 C 124 773 83 786 50 812 C 16 838 -2 880 -7 937 L 123 937 C 124 912 128 893 136 881 C 144 869 156 863 173 863 C 189 863 202 869 210 881 C 218 893 222 911 223 937 Z" unicode="Ĭ" />
<glyph horiz-adv-x="318" d="M 0 0 L 0 0 Z M 239 0 L 79 0 L 79 567 L 239 567 L 239 0 Z M 159 610 L 159 610 Z M 209 774 L 339 774 C 334 717 315 675 282 649 C 248 623 207 610 159 610 C 110 610 69 623 36 649 C 2 675 -16 717 -21 774 L 109 774 C 110 749 114 730 122 718 C 130 706 142 700 159 700 C 175 700 188 706 196 718 C 204 730 208 748 209 774 Z" unicode="ĭ" />
<glyph horiz-adv-x="346" d="M 0 0 L 0 0 Z M 258 0 L 88 0 L 88 730 L 258 730 L 258 0 Z M 124 -3 L 124 -3 Z M 222 -63 L 262 -127 C 239 -151 215 -169 189 -181 C 163 -193 134 -199 102 -199 C 65 -199 36 -191 16 -176 C -3 -161 -14 -142 -14 -119 C -14 -94 -3 -71 18 -49 C 39 -27 68 -9 104 7 L 174 7 C 156 -2 142 -12 132 -24 C 122 -35 118 -46 118 -56 C 118 -65 121 -72 129 -78 C 136 -83 145 -86 156 -86 C 170 -86 182 -83 193 -79 C 204 -75 214 -69 222 -63 Z" unicode="Į" />
<glyph horiz-adv-x="318" d="M 0 0 L 0 0 Z M 77 645 L 77 790 L 241 790 L 241 645 L 77 645 Z M 79 0 L 79 567 L 239 567 L 239 0 L 79 0 Z M 115 -3 L 115 -3 Z M 213 -63 L 253 -127 C 230 -151 206 -169 180 -181 C 154 -193 125 -199 93 -199 C 56 -199 27 -191 7 -176 C -12 -161 -23 -142 -23 -119 C -23 -94 -12 -71 9 -49 C 30 -27 59 -9 95 7 L 165 7 C 147 -2 133 -12 123 -24 C 113 -35 109 -46 109 -56 C 109 -65 112 -72 120 -78 C 127 -83 136 -86 147 -86 C 161 -86 173 -83 184 -79 C 195 -75 205 -69 213 -63 Z" unicode="į" />
<glyph horiz-adv-x="346" d="M 88 0 L 88 0 Z M 258 0 L 88 0 L 88 730 L 258 730 L 258 0 Z M 173 775 L 173 775 Z M 244 775 L 103 775 L 103 940 L 244 940 L 244 775 Z" unicode="İ" />
<glyph horiz-adv-x="318" d="M 239 0 L 79 0 L 79 567 L 239 567 L 239 0 Z" unicode="ı" />
<glyph horiz-adv-x="747" d="M 88 0 L 88 0 Z M 258 0 L 88 0 L 88 730 L 258 730 L 258 0 Z M 665 730 L 665 206 C 665 175 659 146 649 120 C 638 93 623 70 603 51 C 583 31 558 16 530 5 C 501 -6 469 -12 434 -12 C 422 -12 410 -11 396 -10 C 382 -9 369 -7 355 -5 C 341 -2 329 1 317 5 C 305 9 295 14 288 20 L 351 149 C 357 145 366 142 376 140 C 386 138 397 137 408 137 C 436 137 458 144 473 160 C 487 175 495 193 495 214 L 495 730 L 665 730 Z" unicode="Ĳ" />
<glyph horiz-adv-x="612" d="M 77 0 L 77 0 Z M 77 645 L 77 790 L 241 790 L 241 645 L 77 645 Z M 79 0 L 79 567 L 239 567 L 239 0 L 79 0 Z M 544 645 L 381 645 L 381 790 L 544 790 L 544 645 Z M 542 567 L 542 7 C 542 -61 522 -113 482 -149 C 442 -184 391 -201 330 -201 C 308 -201 281 -198 249 -194 C 217 -189 190 -181 167 -171 L 195 -51 C 205 -57 220 -63 239 -67 C 258 -71 278 -74 300 -74 C 330 -74 351 -63 363 -42 C 375 -21 382 3 382 32 L 382 567 L 542 567 Z" unicode="ĳ" />
<glyph horiz-adv-x="459" d="M 0 0 L 0 0 Z M 377 730 L 377 206 C 377 175 371 146 361 120 C 350 93 335 70 315 51 C 295 31 270 16 242 5 C 213 -6 181 -12 146 -12 C 134 -12 122 -11 108 -10 C 94 -9 81 -7 67 -5 C 53 -2 41 1 29 5 C 17 9 7 14 0 20 L 63 149 C 69 145 78 142 88 140 C 98 138 109 137 120 137 C 148 137 170 144 185 160 C 199 175 207 193 207 214 L 207 730 L 377 730 Z M 274 775 L 274 775 Z M 478 775 L 333 775 L 273 857 L 213 775 L 71 775 L 194 949 L 355 949 L 478 775 Z" unicode="Ĵ" />
<glyph horiz-adv-x="340" d="M 0 0 L 0 0 Z M 270 567 L 270 7 C 270 -61 250 -113 210 -149 C 170 -184 119 -201 58 -201 C 36 -201 9 -198 -22 -194 C -54 -189 -81 -181 -105 -171 L -77 -51 C -66 -57 -51 -63 -32 -67 C -13 -71 6 -74 28 -74 C 58 -74 79 -63 91 -42 C 103 -21 110 3 110 32 L 110 567 L 270 567 Z M 187 612 L 187 612 Z M 391 612 L 246 612 L 186 694 L 126 612 L -16 612 L 107 786 L 268 786 L 391 612 Z" unicode="ĵ" />
<glyph horiz-adv-x="715" d="M 84 0 L 84 0 Z M 719 0 L 505 0 L 308 285 L 252 216 L 252 0 L 84 0 L 84 730 L 252 730 L 252 412 L 500 730 L 686 730 L 430 404 L 719 0 Z M 363 -55 L 363 -55 Z M 483 -55 C 482 -92 477 -128 469 -164 C 461 -200 451 -232 439 -261 C 427 -290 414 -314 400 -334 C 386 -354 373 -367 362 -373 L 244 -321 C 250 -313 258 -300 267 -282 C 275 -263 283 -241 291 -217 C 298 -192 304 -165 310 -137 C 316 -109 320 -81 322 -55 L 483 -55 Z" unicode="Ķ" />
<glyph horiz-adv-x="635" d="M 75 0 L 75 0 Z M 670 1 L 485 0 L 309 220 L 234 143 L 234 0 L 75 0 L 75 800 L 234 800 L 234 305 L 467 567 L 632 567 L 413 324 L 670 1 Z M 324 -55 L 324 -55 Z M 444 -55 C 443 -92 438 -128 430 -164 C 422 -200 412 -232 400 -261 C 388 -290 375 -314 361 -334 C 347 -354 334 -367 323 -373 L 205 -321 C 211 -313 219 -300 228 -282 C 236 -263 244 -241 252 -217 C 259 -192 265 -165 271 -137 C 277 -109 281 -81 283 -55 L 444 -55 Z" unicode="ķ" />
<glyph horiz-adv-x="635" d="M 670 1 L 485 0 L 309 220 L 234 143 L 234 0 L 75 0 L 75 567 L 234 567 L 234 305 L 467 567 L 632 567 L 413 324 L 670 1 Z" unicode="ĸ" />
<glyph horiz-adv-x="578" d="M 84 0 L 84 0 Z M 565 0 L 84 0 L 84 730 L 254 730 L 254 139 L 565 139 L 565 0 Z M 366 779 L 366 779 Z M 222 779 L 323 937 L 511 937 L 380 779 L 222 779 Z" unicode="Ĺ" />
<glyph horiz-adv-x="366" d="M 66 0 L 66 0 Z M 66 163 L 66 800 L 226 800 L 226 214 C 226 192 232 174 244 158 C 256 142 276 135 304 135 C 311 135 321 135 333 136 C 345 137 353 138 358 139 L 359 0 C 352 -1 339 -2 320 -4 C 301 -5 284 -6 269 -6 C 243 -6 218 -2 194 4 C 170 10 148 21 129 35 C 110 49 95 66 83 88 C 71 109 66 134 66 163 Z M 220 849 L 220 849 Z M 76 849 L 177 1007 L 365 1007 L 234 849 L 76 849 Z" unicode="ĺ" />
<glyph horiz-adv-x="578" d="M 84 0 L 84 0 Z M 565 0 L 84 0 L 84 730 L 254 730 L 254 139 L 565 139 L 565 0 Z M 304 -55 L 304 -55 Z M 424 -55 C 423 -92 418 -128 410 -164 C 402 -200 392 -232 380 -261 C 368 -290 355 -314 341 -334 C 327 -354 314 -367 303 -373 L 185 -321 C 191 -313 199 -300 208 -282 C 216 -263 224 -241 232 -217 C 239 -192 245 -165 251 -137 C 257 -109 261 -81 263 -55 L 424 -55 Z" unicode="Ļ" />
<glyph horiz-adv-x="366" d="M 56 0 L 56 0 Z M 66 163 L 66 800 L 226 800 L 226 214 C 226 192 232 174 244 158 C 256 142 276 135 304 135 C 311 135 321 135 333 136 C 345 137 353 138 358 139 L 359 0 C 352 -1 339 -2 320 -4 C 301 -5 284 -6 269 -6 C 243 -6 218 -2 194 4 C 170 10 148 21 129 35 C 110 49 95 66 83 88 C 71 109 66 134 66 163 Z M 175 -55 L 175 -55 Z M 295 -55 C 294 -92 289 -128 281 -164 C 273 -200 263 -232 251 -261 C 239 -290 226 -314 212 -334 C 198 -354 185 -367 174 -373 L 56 -321 C 62 -313 70 -300 79 -282 C 87 -263 95 -241 103 -217 C 110 -192 116 -165 122 -137 C 128 -109 132 -81 134 -55 L 295 -55 Z" unicode="ļ" />
<glyph horiz-adv-x="578" d="M 84 0 L 84 0 Z M 565 0 L 84 0 L 84 730 L 254 730 L 254 139 L 565 139 L 565 0 Z M 612 585 L 606 406 L 472 406 L 465 585 L 465 730 L 612 730 L 612 585 Z" unicode="Ľ" />
<glyph horiz-adv-x="366" d="M 66 0 L 66 0 Z M 66 163 L 66 800 L 226 800 L 226 214 C 226 192 232 174 244 158 C 256 142 276 135 304 135 C 311 135 321 135 333 136 C 345 137 353 138 358 139 L 359 0 C 352 -1 339 -2 320 -4 C 301 -5 284 -6 269 -6 C 243 -6 218 -2 194 4 C 170 10 148 21 129 35 C 110 49 95 66 83 88 C 71 109 66 134 66 163 Z M 408 585 L 402 406 L 268 406 L 261 585 L 261 730 L 408 730 L 408 585 Z" unicode="ľ" />
<glyph horiz-adv-x="578" d="M 84 0 L 84 0 Z M 565 0 L 84 0 L 84 730 L 254 730 L 254 139 L 565 139 L 565 0 Z M 423 281 L 423 281 Z M 494 281 L 353 281 L 353 446 L 494 446 L 494 281 Z" unicode="Ŀ" />
<glyph horiz-adv-x="366" d="M 66 0 L 66 0 Z M 66 163 L 66 800 L 226 800 L 226 214 C 226 192 232 174 244 158 C 256 142 276 135 304 135 C 311 135 321 135 333 136 C 345 137 353 138 358 139 L 359 0 C 352 -1 339 -2 320 -4 C 301 -5 284 -6 269 -6 C 243 -6 218 -2 194 4 C 170 10 148 21 129 35 C 110 49 95 66 83 88 C 71 109 66 134 66 163 Z M 337 231 L 337 231 Z M 408 231 L 267 231 L 267 396 L 408 396 L 408 231 Z" unicode="ŀ" />
<glyph horiz-adv-x="578" d="M 548 136 L 548 0 L 84 0 L 84 248 L 42 230 L -12 346 L 84 386 L 84 730 L 254 730 L 254 457 L 408 521 L 460 406 L 254 319 L 254 136 L 548 136 Z" unicode="Ł" />
<glyph horiz-adv-x="366" d="M 359 0 C 352 -1 339 -2 320 -4 C 301 -5 284 -6 269 -6 C 243 -6 218 -2 194 4 C 170 10 148 21 129 35 C 110 49 95 66 83 88 C 71 109 66 134 66 163 L 66 242 L 26 222 L -13 314 L 66 354 L 66 800 L 226 800 L 226 434 L 311 476 L 351 385 L 226 322 L 226 214 C 226 192 232 174 244 158 C 256 142 276 135 304 135 C 311 135 321 135 333 136 C 345 137 353 138 358 139 L 359 0 Z" unicode="ł" />
<glyph horiz-adv-x="791" d="M 84 0 L 84 0 Z M 707 0 L 588 0 L 241 441 L 241 0 L 84 0 L 84 730 L 212 730 L 552 299 L 552 730 L 707 730 L 707 0 Z M 394 779 L 394 779 Z M 250 779 L 351 937 L 539 937 L 408 779 L 250 779 Z" unicode="Ń" />
<glyph horiz-adv-x="663" d="M 75 0 L 75 0 Z M 595 0 L 435 0 L 435 371 C 435 393 426 411 410 423 C 394 435 374 442 351 442 C 321 442 294 433 270 417 C 246 400 234 376 234 346 L 234 0 L 75 0 L 75 567 L 216 567 L 216 471 C 227 502 249 528 282 549 C 314 569 355 580 404 580 C 430 580 454 576 478 568 C 501 560 521 550 539 536 C 556 522 570 505 580 486 C 590 466 595 445 595 422 L 595 0 Z M 363 616 L 363 616 Z M 219 616 L 320 774 L 508 774 L 377 616 L 219 616 Z" unicode="ń" />
<glyph horiz-adv-x="791" d="M 84 0 L 84 0 Z M 707 0 L 588 0 L 241 441 L 241 0 L 84 0 L 84 730 L 212 730 L 552 299 L 552 730 L 707 730 L 707 0 Z M 382 -55 L 382 -55 Z M 502 -55 C 501 -92 496 -128 488 -164 C 480 -200 470 -232 458 -261 C 446 -290 433 -314 419 -334 C 405 -354 392 -367 381 -373 L 263 -321 C 269 -313 277 -300 286 -282 C 294 -263 302 -241 310 -217 C 317 -192 323 -165 329 -137 C 335 -109 339 -81 341 -55 L 502 -55 Z" unicode="Ņ" />
<glyph horiz-adv-x="663" d="M 75 0 L 75 0 Z M 595 0 L 435 0 L 435 371 C 435 393 426 411 410 423 C 394 435 374 442 351 442 C 321 442 294 433 270 417 C 246 400 234 376 234 346 L 234 0 L 75 0 L 75 567 L 216 567 L 216 471 C 227 502 249 528 282 549 C 314 569 355 580 404 580 C 430 580 454 576 478 568 C 501 560 521 550 539 536 C 556 522 570 505 580 486 C 590 466 595 445 595 422 L 595 0 Z M 314 -55 L 314 -55 Z M 434 -55 C 433 -92 428 -128 420 -164 C 412 -200 402 -232 390 -261 C 378 -290 365 -314 351 -334 C 337 -354 324 -367 313 -373 L 195 -321 C 201 -313 209 -300 218 -282 C 226 -263 234 -241 242 -217 C 249 -192 255 -165 261 -137 C 267 -109 271 -81 273 -55 L 434 -55 Z" unicode="ņ" />
<glyph horiz-adv-x="791" d="M 84 0 L 84 0 Z M 707 0 L 588 0 L 241 441 L 241 0 L 84 0 L 84 730 L 212 730 L 552 299 L 552 730 L 707 730 L 707 0 Z M 394 775 L 394 775 Z M 191 949 L 335 949 L 395 868 L 455 949 L 598 949 L 475 775 L 314 775 L 191 949 Z" unicode="Ň" />
<glyph horiz-adv-x="663" d="M 75 0 L 75 0 Z M 595 0 L 435 0 L 435 371 C 435 393 426 411 410 423 C 394 435 374 442 351 442 C 321 442 294 433 270 417 C 246 400 234 376 234 346 L 234 0 L 75 0 L 75 567 L 216 567 L 216 471 C 227 502 249 528 282 549 C 314 569 355 580 404 580 C 430 580 454 576 478 568 C 501 560 521 550 539 536 C 556 522 570 505 580 486 C 590 466 595 445 595 422 L 595 0 Z M 363 612 L 363 612 Z M 160 786 L 304 786 L 364 705 L 424 786 L 567 786 L 444 612 L 283 612 L 160 786 Z" unicode="ň" />
<glyph horiz-adv-x="790" d="M 552 730 L 707 730 L 707 0 L 707 0 C 703 -62 681 -111 643 -147 C 605 -183 557 -201 499 -201 C 472 -201 443 -198 412 -192 C 380 -186 356 -177 338 -163 L 397 -35 C 407 -41 418 -45 432 -49 C 445 -52 460 -54 476 -54 C 496 -54 512 -46 524 -31 C 536 -15 542 3 542 26 L 542 58 L 241 441 L 241 0 L 84 0 L 84 730 L 212 730 L 542 312 L 542 439 L 552 439 L 552 730 Z" unicode="Ŋ" />
<glyph horiz-adv-x="663" d="M 404 580 C 430 580 454 576 478 568 C 501 560 521 550 539 536 C 556 522 570 505 580 486 C 590 466 595 445 595 422 L 595 0 L 595 0 C 593 -66 573 -117 533 -151 C 493 -185 443 -201 383 -201 C 361 -201 334 -198 302 -194 C 270 -189 243 -181 220 -171 L 247 -51 C 257 -57 272 -63 292 -67 C 311 -71 331 -74 353 -74 C 383 -74 404 -63 416 -42 C 428 -21 435 3 435 32 L 435 371 C 435 393 426 411 410 423 C 394 435 374 442 351 442 C 321 442 294 433 270 417 C 246 400 234 376 234 346 L 234 0 L 75 0 L 75 567 L 216 567 L 216 471 C 227 502 249 528 282 549 C 314 569 355 580 404 580 Z" unicode="ŋ" />
<glyph horiz-adv-x="830" d="M 41 0 L 41 0 Z M 418 -12 C 360 -12 308 -2 262 17 C 215 37 175 64 143 98 C 110 132 85 173 67 220 C 49 266 41 316 41 370 C 41 424 50 475 70 521 C 89 567 115 606 149 638 C 182 670 221 696 266 714 C 311 732 359 742 410 742 C 464 742 515 733 561 715 C 607 697 647 671 681 639 C 715 606 741 567 760 521 C 779 475 789 424 789 369 C 789 311 778 258 758 211 C 738 163 711 123 677 91 C 643 58 604 33 559 15 C 514 -3 467 -12 418 -12 Z M 421 135 C 449 135 475 139 499 149 C 523 159 545 173 563 192 C 581 211 595 235 605 264 C 615 293 621 327 621 365 C 621 399 615 429 604 457 C 593 484 578 507 559 527 C 539 546 516 561 490 571 C 464 581 436 587 406 587 C 378 587 352 582 328 573 C 304 563 283 550 265 532 C 247 514 234 491 224 464 C 214 437 209 406 209 371 C 209 334 214 301 225 272 C 235 242 250 217 269 197 C 287 177 310 161 336 151 C 362 140 390 135 421 135 Z M 414 778 L 414 778 Z M 562 778 L 266 778 L 266 899 L 562 899 L 562 778 Z" unicode="Ō" />
<glyph horiz-adv-x="677" d="M 37 0 L 37 0 Z M 334 -12 C 296 -12 259 -5 223 7 C 187 19 156 38 128 62 C 100 86 78 117 62 154 C 45 191 37 234 37 283 C 37 327 45 367 62 404 C 78 440 100 471 128 497 C 156 523 187 543 223 558 C 259 572 296 580 334 580 C 376 580 415 573 453 561 C 491 549 523 531 551 507 C 578 483 600 453 616 418 C 632 383 640 343 640 299 C 640 251 631 208 615 170 C 598 131 576 98 548 72 C 520 45 487 24 450 10 C 412 -4 374 -12 334 -12 Z M 337 131 C 381 131 415 145 439 174 C 463 203 476 242 476 290 C 476 336 462 372 436 398 C 410 423 376 436 334 436 C 292 436 260 421 237 393 C 214 365 203 328 203 282 C 203 232 215 194 241 169 C 267 143 299 131 337 131 Z M 338 615 L 338 615 Z M 486 615 L 190 615 L 190 736 L 486 736 L 486 615 Z" unicode="ō" />
<glyph horiz-adv-x="830" d="M 41 0 L 41 0 Z M 418 -12 C 360 -12 308 -2 262 17 C 215 37 175 64 143 98 C 110 132 85 173 67 220 C 49 266 41 316 41 370 C 41 424 50 475 70 521 C 89 567 115 606 149 638 C 182 670 221 696 266 714 C 311 732 359 742 410 742 C 464 742 515 733 561 715 C 607 697 647 671 681 639 C 715 606 741 567 760 521 C 779 475 789 424 789 369 C 789 311 778 258 758 211 C 738 163 711 123 677 91 C 643 58 604 33 559 15 C 514 -3 467 -12 418 -12 Z M 421 135 C 449 135 475 139 499 149 C 523 159 545 173 563 192 C 581 211 595 235 605 264 C 615 293 621 327 621 365 C 621 399 615 429 604 457 C 593 484 578 507 559 527 C 539 546 516 561 490 571 C 464 581 436 587 406 587 C 378 587 352 582 328 573 C 304 563 283 550 265 532 C 247 514 234 491 224 464 C 214 437 209 406 209 371 C 209 334 214 301 225 272 C 235 242 250 217 269 197 C 287 177 310 161 336 151 C 362 140 390 135 421 135 Z M 414 773 L 414 773 Z M 464 937 L 594 937 C 589 880 570 838 537 812 C 503 786 462 773 414 773 C 365 773 324 786 291 812 C 257 838 238 880 234 937 L 364 937 C 365 912 369 893 377 881 C 385 869 397 863 414 863 C 430 863 443 869 451 881 C 459 893 463 911 464 937 Z" unicode="Ŏ" />
<glyph horiz-adv-x="677" d="M 37 0 L 37 0 Z M 334 -12 C 296 -12 259 -5 223 7 C 187 19 156 38 128 62 C 100 86 78 117 62 154 C 45 191 37 234 37 283 C 37 327 45 367 62 404 C 78 440 100 471 128 497 C 156 523 187 543 223 558 C 259 572 296 580 334 580 C 376 580 415 573 453 561 C 491 549 523 531 551 507 C 578 483 600 453 616 418 C 632 383 640 343 640 299 C 640 251 631 208 615 170 C 598 131 576 98 548 72 C 520 45 487 24 450 10 C 412 -4 374 -12 334 -12 Z M 337 131 C 381 131 415 145 439 174 C 463 203 476 242 476 290 C 476 336 462 372 436 398 C 410 423 376 436 334 436 C 292 436 260 421 237 393 C 214 365 203 328 203 282 C 203 232 215 194 241 169 C 267 143 299 131 337 131 Z M 338 610 L 338 610 Z M 388 774 L 518 774 C 513 717 494 675 461 649 C 427 623 386 610 338 610 C 289 610 248 623 215 649 C 181 675 162 717 158 774 L 288 774 C 289 749 293 730 301 718 C 309 706 321 700 338 700 C 354 700 367 706 375 718 C 383 730 387 748 388 774 Z" unicode="ŏ" />
<glyph horiz-adv-x="830" d="M 41 0 L 41 0 Z M 418 -12 C 360 -12 308 -2 262 17 C 215 37 175 64 143 98 C 110 132 85 173 67 220 C 49 266 41 316 41 370 C 41 424 50 475 70 521 C 89 567 115 606 149 638 C 182 670 221 696 266 714 C 311 732 359 742 410 742 C 464 742 515 733 561 715 C 607 697 647 671 681 639 C 715 606 741 567 760 521 C 779 475 789 424 789 369 C 789 311 778 258 758 211 C 738 163 711 123 677 91 C 643 58 604 33 559 15 C 514 -3 467 -12 418 -12 Z M 421 135 C 449 135 475 139 499 149 C 523 159 545 173 563 192 C 581 211 595 235 605 264 C 615 293 621 327 621 365 C 621 399 615 429 604 457 C 593 484 578 507 559 527 C 539 546 516 561 490 571 C 464 581 436 587 406 587 C 378 587 352 582 328 573 C 304 563 283 550 265 532 C 247 514 234 491 224 464 C 214 437 209 406 209 371 C 209 334 214 301 225 272 C 235 242 250 217 269 197 C 287 177 310 161 336 151 C 362 140 390 135 421 135 Z M 414 774 L 414 774 Z M 172 774 L 268 927 L 434 927 L 308 774 L 172 774 Z M 395 774 L 492 927 L 658 927 L 532 774 L 395 774 Z" unicode="Ő" />
<glyph horiz-adv-x="677" d="M 37 0 L 37 0 Z M 334 -12 C 296 -12 259 -5 223 7 C 187 19 156 38 128 62 C 100 86 78 117 62 154 C 45 191 37 234 37 283 C 37 327 45 367 62 404 C 78 440 100 471 128 497 C 156 523 187 543 223 558 C 259 572 296 580 334 580 C 376 580 415 573 453 561 C 491 549 523 531 551 507 C 578 483 600 453 616 418 C 632 383 640 343 640 299 C 640 251 631 208 615 170 C 598 131 576 98 548 72 C 520 45 487 24 450 10 C 412 -4 374 -12 334 -12 Z M 337 131 C 381 131 415 145 439 174 C 463 203 476 242 476 290 C 476 336 462 372 436 398 C 410 423 376 436 334 436 C 292 436 260 421 237 393 C 214 365 203 328 203 282 C 203 232 215 194 241 169 C 267 143 299 131 337 131 Z M 338 611 L 338 611 Z M 96 611 L 192 764 L 358 764 L 232 611 L 96 611 Z M 319 611 L 416 764 L 582 764 L 456 611 L 319 611 Z" unicode="ő" />
<glyph horiz-adv-x="1145" d="M 396 -12 C 341 -12 291 -2 247 16 C 203 35 165 61 135 95 C 105 129 81 169 65 216 C 49 263 41 314 41 370 C 41 422 50 470 70 516 C 89 562 115 601 149 635 C 182 668 221 694 266 713 C 311 732 359 742 410 742 C 428 742 448 739 469 735 C 489 730 509 723 528 715 C 547 707 564 697 580 686 C 596 674 608 662 616 649 L 616 730 L 1075 730 L 1075 591 L 773 591 L 773 427 L 1054 427 L 1054 296 L 773 296 L 773 139 L 1095 139 L 1095 0 L 616 0 L 616 101 C 599 70 571 43 531 21 C 491 0 446 -12 396 -12 Z M 416 125 C 473 125 520 144 557 184 C 594 223 613 284 613 368 C 613 407 607 441 596 471 C 584 500 569 524 551 544 C 533 563 512 577 488 587 C 464 597 440 602 415 602 C 387 602 360 597 336 588 C 312 578 291 564 273 545 C 255 526 241 502 231 472 C 221 442 216 406 216 366 C 216 282 235 221 273 183 C 311 144 358 125 416 125 Z" unicode="Œ" />
<glyph horiz-adv-x="1084" d="M 334 -12 C 296 -12 259 -5 223 7 C 187 19 156 38 128 62 C 100 86 78 117 62 154 C 45 191 37 234 37 283 C 37 326 45 366 62 403 C 78 439 100 471 128 497 C 156 523 187 543 223 558 C 259 572 296 580 334 580 C 366 580 395 576 421 568 C 446 560 467 551 485 540 C 503 528 517 516 529 503 C 540 490 548 478 554 468 C 558 478 566 489 578 502 C 590 515 605 527 623 539 C 641 550 662 560 686 568 C 710 576 737 580 765 580 C 852 580 921 550 971 490 C 1021 430 1046 346 1047 236 L 632 236 C 632 207 644 181 668 158 C 692 134 725 123 769 123 C 806 123 836 129 860 142 C 884 154 902 169 916 185 L 1010 86 C 984 57 952 33 915 15 C 877 -2 829 -12 769 -12 C 745 -12 721 -8 697 -2 C 673 4 650 13 630 24 C 610 35 592 47 577 61 C 562 74 552 87 546 100 C 540 88 530 75 518 62 C 505 48 489 36 471 26 C 453 15 432 6 409 -1 C 385 -8 360 -12 334 -12 Z M 634 340 L 881 340 C 879 371 867 397 845 417 C 823 437 794 447 760 447 C 724 447 694 436 672 414 C 650 392 637 368 634 340 Z M 342 131 C 382 131 415 145 439 174 C 463 202 476 243 476 295 C 476 339 462 373 436 398 C 410 423 375 436 333 436 C 292 436 260 422 237 394 C 214 366 203 327 203 277 C 203 227 216 191 242 167 C 268 143 302 131 342 131 Z" unicode="œ" />
<glyph horiz-adv-x="674" d="M 84 0 L 84 0 Z M 84 0 L 84 730 L 369 730 C 399 730 428 725 456 716 C 484 707 509 694 531 677 C 553 660 570 639 583 613 C 596 587 603 557 603 524 C 603 493 598 466 589 442 C 580 418 568 399 554 383 C 540 367 523 354 505 344 C 487 334 469 328 452 325 L 451 319 L 678 0 L 481 0 L 303 271 L 252 271 L 252 0 L 84 0 Z M 249 403 L 337 403 C 360 403 382 411 402 427 C 422 443 432 468 432 504 C 432 538 422 563 402 578 C 382 593 360 601 338 601 L 249 601 L 249 403 Z M 340 779 L 340 779 Z M 196 779 L 297 937 L 485 937 L 354 779 L 196 779 Z" unicode="Ŕ" />
<glyph horiz-adv-x="510" d="M 75 0 L 75 0 Z M 522 546 L 437 400 C 426 412 413 422 397 428 C 381 434 363 437 345 437 C 316 437 290 427 268 407 C 245 387 234 362 234 330 L 234 0 L 75 0 L 75 567 L 218 567 L 218 466 C 222 480 229 493 239 507 C 249 520 263 532 279 543 C 295 554 313 563 334 570 C 355 576 378 580 403 580 C 429 580 453 577 473 571 C 493 565 509 557 522 546 Z M 306 616 L 306 616 Z M 162 616 L 263 774 L 451 774 L 320 616 L 162 616 Z" unicode="ŕ" />
<glyph horiz-adv-x="674" d="M 84 0 L 84 0 Z M 84 0 L 84 730 L 369 730 C 399 730 428 725 456 716 C 484 707 509 694 531 677 C 553 660 570 639 583 613 C 596 587 603 557 603 524 C 603 493 598 466 589 442 C 580 418 568 399 554 383 C 540 367 523 354 505 344 C 487 334 469 328 452 325 L 451 319 L 678 0 L 481 0 L 303 271 L 252 271 L 252 0 L 84 0 Z M 249 403 L 337 403 C 360 403 382 411 402 427 C 422 443 432 468 432 504 C 432 538 422 563 402 578 C 382 593 360 601 338 601 L 249 601 L 249 403 Z M 333 -55 L 333 -55 Z M 453 -55 C 452 -92 447 -128 439 -164 C 431 -200 421 -232 409 -261 C 397 -290 384 -314 370 -334 C 356 -354 343 -367 332 -373 L 214 -321 C 220 -313 228 -300 237 -282 C 245 -263 253 -241 261 -217 C 268 -192 274 -165 280 -137 C 286 -109 290 -81 292 -55 L 453 -55 Z" unicode="Ŗ" />
<glyph horiz-adv-x="510" d="M 75 0 L 75 0 Z M 522 546 L 437 400 C 426 412 413 422 397 428 C 381 434 363 437 345 437 C 316 437 290 427 268 407 C 245 387 234 362 234 330 L 234 0 L 75 0 L 75 567 L 218 567 L 218 466 C 222 480 229 493 239 507 C 249 520 263 532 279 543 C 295 554 313 563 334 570 C 355 576 378 580 403 580 C 429 580 453 577 473 571 C 493 565 509 557 522 546 Z M 284 -55 L 284 -55 Z M 404 -55 C 403 -92 398 -128 390 -164 C 382 -200 372 -232 360 -261 C 348 -290 335 -314 321 -334 C 307 -354 294 -367 283 -373 L 165 -321 C 171 -313 179 -300 188 -282 C 196 -263 204 -241 212 -217 C 219 -192 225 -165 231 -137 C 237 -109 241 -81 243 -55 L 404 -55 Z" unicode="ŗ" />
<glyph horiz-adv-x="674" d="M 84 0 L 84 0 Z M 84 0 L 84 730 L 369 730 C 399 730 428 725 456 716 C 484 707 509 694 531 677 C 553 660 570 639 583 613 C 596 587 603 557 603 524 C 603 493 598 466 589 442 C 580 418 568 399 554 383 C 540 367 523 354 505 344 C 487 334 469 328 452 325 L 451 319 L 678 0 L 481 0 L 303 271 L 252 271 L 252 0 L 84 0 Z M 249 403 L 337 403 C 360 403 382 411 402 427 C 422 443 432 468 432 504 C 432 538 422 563 402 578 C 382 593 360 601 338 601 L 249 601 L 249 403 Z M 340 775 L 340 775 Z M 137 949 L 281 949 L 341 868 L 401 949 L 544 949 L 421 775 L 260 775 L 137 949 Z" unicode="Ř" />
<glyph horiz-adv-x="510" d="M 75 0 L 75 0 Z M 522 546 L 437 400 C 426 412 413 422 397 428 C 381 434 363 437 345 437 C 316 437 290 427 268 407 C 245 387 234 362 234 330 L 234 0 L 75 0 L 75 567 L 218 567 L 218 466 C 222 480 229 493 239 507 C 249 520 263 532 279 543 C 295 554 313 563 334 570 C 355 576 378 580 403 580 C 429 580 453 577 473 571 C 493 565 509 557 522 546 Z M 306 612 L 306 612 Z M 103 786 L 247 786 L 307 705 L 367 786 L 510 786 L 387 612 L 226 612 L 103 786 Z" unicode="ř" />
<glyph horiz-adv-x="649" d="M 30 0 L 30 0 Z M 324 -12 C 258 -12 200 -4 152 12 C 103 28 62 49 30 77 L 119 212 C 140 191 169 172 207 154 C 244 136 285 127 330 127 C 358 127 380 132 397 143 C 414 154 423 169 423 189 C 423 209 414 226 398 241 C 381 255 347 272 295 291 C 250 307 212 322 182 338 C 151 354 126 371 108 390 C 89 408 75 430 67 454 C 59 478 55 506 55 539 C 55 601 79 651 129 687 C 178 723 242 742 322 742 C 384 742 435 732 477 714 C 518 696 551 677 575 659 L 496 521 C 468 541 439 558 409 573 C 378 587 346 595 314 595 C 286 595 264 590 249 580 C 234 570 227 556 227 538 C 227 517 238 499 262 485 C 286 471 325 453 380 432 C 418 417 452 402 480 388 C 508 374 531 358 549 341 C 567 323 580 303 588 281 C 596 258 601 231 601 200 C 601 166 593 135 578 109 C 563 83 543 61 518 43 C 493 25 464 11 430 2 C 396 -7 361 -12 324 -12 Z M 321 779 L 321 779 Z M 177 779 L 278 937 L 466 937 L 335 779 L 177 779 Z" unicode="Ś" />
<glyph horiz-adv-x="566" d="M 39 0 L 39 0 Z M 311 -12 C 253 -12 202 -5 156 7 C 110 20 71 37 39 59 L 106 167 C 136 152 169 140 207 130 C 244 120 276 115 303 115 C 323 115 339 119 351 129 C 363 138 369 149 369 163 C 369 175 360 186 344 196 C 328 205 299 215 257 226 C 185 244 134 269 105 301 C 75 333 61 370 61 413 C 61 439 66 462 78 483 C 90 503 106 521 126 535 C 146 549 171 560 199 568 C 227 576 257 580 289 580 C 353 580 404 572 442 557 C 480 541 508 527 526 515 L 471 395 C 441 411 413 425 386 436 C 359 447 331 453 303 453 C 281 453 263 449 249 441 C 234 433 227 423 227 410 C 227 402 228 396 231 391 C 233 386 239 381 247 377 C 255 372 267 367 283 362 C 298 357 318 351 344 344 C 406 326 453 304 485 278 C 517 252 534 216 534 170 C 534 141 528 115 517 93 C 505 71 490 52 470 36 C 450 20 426 8 399 0 C 371 -7 342 -12 311 -12 Z M 298 616 L 298 616 Z M 154 616 L 255 774 L 443 774 L 312 616 L 154 616 Z" unicode="ś" />
<glyph horiz-adv-x="649" d="M 30 0 L 30 0 Z M 324 -12 C 258 -12 200 -4 152 12 C 103 28 62 49 30 77 L 119 212 C 140 191 169 172 207 154 C 244 136 285 127 330 127 C 358 127 380 132 397 143 C 414 154 423 169 423 189 C 423 209 414 226 398 241 C 381 255 347 272 295 291 C 250 307 212 322 182 338 C 151 354 126 371 108 390 C 89 408 75 430 67 454 C 59 478 55 506 55 539 C 55 601 79 651 129 687 C 178 723 242 742 322 742 C 384 742 435 732 477 714 C 518 696 551 677 575 659 L 496 521 C 468 541 439 558 409 573 C 378 587 346 595 314 595 C 286 595 264 590 249 580 C 234 570 227 556 227 538 C 227 517 238 499 262 485 C 286 471 325 453 380 432 C 418 417 452 402 480 388 C 508 374 531 358 549 341 C 567 323 580 303 588 281 C 596 258 601 231 601 200 C 601 166 593 135 578 109 C 563 83 543 61 518 43 C 493 25 464 11 430 2 C 396 -7 361 -12 324 -12 Z M 321 775 L 321 775 Z M 525 775 L 380 775 L 320 857 L 260 775 L 118 775 L 241 949 L 402 949 L 525 775 Z" unicode="Ŝ" />
<glyph horiz-adv-x="566" d="M 39 0 L 39 0 Z M 311 -12 C 253 -12 202 -5 156 7 C 110 20 71 37 39 59 L 106 167 C 136 152 169 140 207 130 C 244 120 276 115 303 115 C 323 115 339 119 351 129 C 363 138 369 149 369 163 C 369 175 360 186 344 196 C 328 205 299 215 257 226 C 185 244 134 269 105 301 C 75 333 61 370 61 413 C 61 439 66 462 78 483 C 90 503 106 521 126 535 C 146 549 171 560 199 568 C 227 576 257 580 289 580 C 353 580 404 572 442 557 C 480 541 508 527 526 515 L 471 395 C 441 411 413 425 386 436 C 359 447 331 453 303 453 C 281 453 263 449 249 441 C 234 433 227 423 227 410 C 227 402 228 396 231 391 C 233 386 239 381 247 377 C 255 372 267 367 283 362 C 298 357 318 351 344 344 C 406 326 453 304 485 278 C 517 252 534 216 534 170 C 534 141 528 115 517 93 C 505 71 490 52 470 36 C 450 20 426 8 399 0 C 371 -7 342 -12 311 -12 Z M 298 612 L 298 612 Z M 502 612 L 357 612 L 297 694 L 237 612 L 95 612 L 218 786 L 379 786 L 502 612 Z" unicode="ŝ" />
<glyph horiz-adv-x="649" d="M 30 0 L 30 0 Z M 324 -12 C 258 -12 200 -4 152 12 C 103 28 62 49 30 77 L 119 212 C 140 191 169 172 207 154 C 244 136 285 127 330 127 C 358 127 380 132 397 143 C 414 154 423 169 423 189 C 423 209 414 226 398 241 C 381 255 347 272 295 291 C 250 307 212 322 182 338 C 151 354 126 371 108 390 C 89 408 75 430 67 454 C 59 478 55 506 55 539 C 55 601 79 651 129 687 C 178 723 242 742 322 742 C 384 742 435 732 477 714 C 518 696 551 677 575 659 L 496 521 C 468 541 439 558 409 573 C 378 587 346 595 314 595 C 286 595 264 590 249 580 C 234 570 227 556 227 538 C 227 517 238 499 262 485 C 286 471 325 453 380 432 C 418 417 452 402 480 388 C 508 374 531 358 549 341 C 567 323 580 303 588 281 C 596 258 601 231 601 200 C 601 166 593 135 578 109 C 563 83 543 61 518 43 C 493 25 464 11 430 2 C 396 -7 361 -12 324 -12 Z M 312 -4 L 312 -4 Z M 321 -199 C 293 -199 265 -196 237 -190 C 209 -184 188 -176 174 -167 L 192 -100 C 200 -103 211 -107 225 -111 C 239 -115 253 -117 267 -117 C 275 -117 283 -115 289 -111 C 295 -107 299 -102 299 -96 C 299 -89 296 -84 290 -81 C 284 -78 278 -77 272 -77 C 267 -77 263 -77 259 -78 C 255 -78 251 -79 247 -81 L 227 -60 L 288 9 L 383 9 L 337 -45 C 370 -41 397 -47 418 -61 C 438 -75 449 -94 449 -119 C 449 -146 435 -166 409 -179 C 383 -192 353 -199 321 -199 Z" unicode="Ş" />
<glyph horiz-adv-x="566" d="M 39 0 L 39 0 Z M 311 -12 C 253 -12 202 -5 156 7 C 110 20 71 37 39 59 L 106 167 C 136 152 169 140 207 130 C 244 120 276 115 303 115 C 323 115 339 119 351 129 C 363 138 369 149 369 163 C 369 175 360 186 344 196 C 328 205 299 215 257 226 C 185 244 134 269 105 301 C 75 333 61 370 61 413 C 61 439 66 462 78 483 C 90 503 106 521 126 535 C 146 549 171 560 199 568 C 227 576 257 580 289 580 C 353 580 404 572 442 557 C 480 541 508 527 526 515 L 471 395 C 441 411 413 425 386 436 C 359 447 331 453 303 453 C 281 453 263 449 249 441 C 234 433 227 423 227 410 C 227 402 228 396 231 391 C 233 386 239 381 247 377 C 255 372 267 367 283 362 C 298 357 318 351 344 344 C 406 326 453 304 485 278 C 517 252 534 216 534 170 C 534 141 528 115 517 93 C 505 71 490 52 470 36 C 450 20 426 8 399 0 C 371 -7 342 -12 311 -12 Z M 282 0 L 282 0 Z M 291 -195 C 263 -195 235 -192 207 -186 C 179 -180 158 -172 144 -163 L 162 -96 C 170 -99 181 -103 195 -107 C 209 -111 223 -113 237 -113 C 245 -113 253 -111 259 -107 C 265 -103 269 -98 269 -92 C 269 -85 266 -80 260 -77 C 254 -74 248 -73 242 -73 C 237 -73 233 -73 229 -74 C 225 -74 221 -75 217 -77 L 197 -56 L 258 13 L 353 13 L 307 -41 C 340 -37 367 -43 388 -57 C 408 -71 419 -90 419 -115 C 419 -142 405 -162 379 -175 C 353 -188 323 -195 291 -195 Z" unicode="ş" />
<glyph horiz-adv-x="649" d="M 30 0 L 30 0 Z M 324 -12 C 258 -12 200 -4 152 12 C 103 28 62 49 30 77 L 119 212 C 140 191 169 172 207 154 C 244 136 285 127 330 127 C 358 127 380 132 397 143 C 414 154 423 169 423 189 C 423 209 414 226 398 241 C 381 255 347 272 295 291 C 250 307 212 322 182 338 C 151 354 126 371 108 390 C 89 408 75 430 67 454 C 59 478 55 506 55 539 C 55 601 79 651 129 687 C 178 723 242 742 322 742 C 384 742 435 732 477 714 C 518 696 551 677 575 659 L 496 521 C 468 541 439 558 409 573 C 378 587 346 595 314 595 C 286 595 264 590 249 580 C 234 570 227 556 227 538 C 227 517 238 499 262 485 C 286 471 325 453 380 432 C 418 417 452 402 480 388 C 508 374 531 358 549 341 C 567 323 580 303 588 281 C 596 258 601 231 601 200 C 601 166 593 135 578 109 C 563 83 543 61 518 43 C 493 25 464 11 430 2 C 396 -7 361 -12 324 -12 Z M 321 775 L 321 775 Z M 118 949 L 262 949 L 322 868 L 382 949 L 525 949 L 402 775 L 241 775 L 118 949 Z" unicode="Š" />
<glyph horiz-adv-x="566" d="M 39 0 L 39 0 Z M 311 -12 C 253 -12 202 -5 156 7 C 110 20 71 37 39 59 L 106 167 C 136 152 169 140 207 130 C 244 120 276 115 303 115 C 323 115 339 119 351 129 C 363 138 369 149 369 163 C 369 175 360 186 344 196 C 328 205 299 215 257 226 C 185 244 134 269 105 301 C 75 333 61 370 61 413 C 61 439 66 462 78 483 C 90 503 106 521 126 535 C 146 549 171 560 199 568 C 227 576 257 580 289 580 C 353 580 404 572 442 557 C 480 541 508 527 526 515 L 471 395 C 441 411 413 425 386 436 C 359 447 331 453 303 453 C 281 453 263 449 249 441 C 234 433 227 423 227 410 C 227 402 228 396 231 391 C 233 386 239 381 247 377 C 255 372 267 367 283 362 C 298 357 318 351 344 344 C 406 326 453 304 485 278 C 517 252 534 216 534 170 C 534 141 528 115 517 93 C 505 71 490 52 470 36 C 450 20 426 8 399 0 C 371 -7 342 -12 311 -12 Z M 298 612 L 298 612 Z M 95 786 L 239 786 L 299 705 L 359 786 L 502 786 L 379 612 L 218 612 L 95 786 Z" unicode="š" />
<glyph horiz-adv-x="604" d="M 10 0 L 10 0 Z M 594 589 L 384 589 L 384 0 L 214 0 L 214 589 L 10 589 L 10 730 L 594 730 L 594 589 Z M 302 775 L 302 775 Z M 99 949 L 243 949 L 303 868 L 363 949 L 506 949 L 383 775 L 222 775 L 99 949 Z" unicode="Ť" />
<glyph horiz-adv-x="416" d="M 8 0 L 8 0 Z M 390 150 L 415 21 C 399 11 379 4 354 0 C 328 -3 307 -6 289 -6 C 228 -6 178 10 140 45 C 101 79 82 131 82 199 L 82 435 L 8 435 L 8 567 L 82 567 L 82 706 L 241 724 L 241 567 L 387 567 L 387 435 L 241 435 L 241 211 C 241 187 246 168 257 154 C 267 140 285 133 310 133 C 328 133 343 135 357 139 C 371 143 382 146 390 150 Z M 554 585 L 548 406 L 414 406 L 407 585 L 407 730 L 554 730 L 554 585 Z" unicode="ť" />
<glyph horiz-adv-x="604" d="M 534 395 L 384 395 L 384 0 L 214 0 L 214 395 L 69 395 L 69 498 L 214 498 L 214 589 L 10 589 L 10 730 L 594 730 L 594 589 L 384 589 L 384 498 L 534 498 L 534 395 Z" unicode="Ŧ" />
<glyph horiz-adv-x="416" d="M 289 -6 C 228 -6 178 10 140 45 C 101 79 82 131 82 199 L 82 277 L 18 277 L 18 381 L 82 381 L 82 435 L 8 435 L 8 567 L 82 567 L 82 706 L 241 724 L 241 567 L 387 567 L 387 435 L 241 435 L 241 381 L 357 381 L 357 277 L 241 277 L 241 211 C 241 187 246 168 257 154 C 267 140 285 133 310 133 C 328 133 343 135 357 139 C 371 143 382 146 390 150 L 415 21 C 399 11 379 4 354 0 C 328 -3 307 -6 289 -6 Z" unicode="ŧ" />
<glyph horiz-adv-x="784" d="M 80 0 L 80 0 Z M 704 730 L 704 266 C 704 222 695 183 678 149 C 661 114 638 85 610 61 C 581 37 548 19 510 7 C 472 -5 432 -12 391 -12 C 349 -12 310 -6 272 6 C 234 18 201 35 173 59 C 145 83 122 112 105 147 C 88 181 80 221 80 266 L 80 730 L 246 730 L 246 274 C 246 230 260 196 288 172 C 316 148 350 137 390 137 C 430 137 465 148 494 172 C 523 195 538 229 538 274 L 538 730 L 704 730 Z M 392 776 L 392 776 Z M 463 935 L 588 935 C 588 881 579 841 561 815 C 543 789 519 776 487 776 C 470 776 454 778 440 783 C 426 788 412 794 400 802 C 390 807 381 813 372 820 C 362 826 353 830 345 830 C 336 830 329 825 325 817 C 321 809 318 796 318 779 L 196 779 C 196 805 199 829 206 849 C 212 869 221 886 232 899 C 242 912 254 922 268 929 C 281 935 294 939 307 939 C 325 939 341 936 354 931 C 366 925 378 919 389 911 C 397 904 405 899 412 895 C 419 891 426 889 433 889 C 440 889 447 892 453 900 C 459 907 462 919 463 935 Z" unicode="Ũ" />
<glyph horiz-adv-x="663" d="M 69 0 L 69 0 Z M 69 567 L 228 567 L 228 212 C 228 181 236 158 254 143 C 272 128 296 121 327 121 C 358 121 383 130 401 148 C 419 166 429 189 429 218 L 429 567 L 589 567 L 589 0 L 445 0 L 445 92 C 435 64 414 39 383 18 C 352 -2 312 -13 262 -13 C 235 -13 210 -9 186 -1 C 162 6 142 17 125 31 C 107 45 94 63 84 84 C 74 104 69 128 69 154 L 69 567 Z M 329 613 L 329 613 Z M 400 772 L 525 772 C 525 718 516 678 498 652 C 480 626 456 613 424 613 C 407 613 391 615 377 620 C 363 625 349 631 337 639 C 327 644 318 650 309 657 C 299 663 290 667 282 667 C 273 667 266 662 262 654 C 258 646 255 633 255 616 L 133 616 C 133 642 136 666 143 686 C 149 706 158 723 169 736 C 179 749 191 759 205 766 C 218 772 231 776 244 776 C 262 776 278 773 291 768 C 303 762 315 756 326 748 C 334 741 342 736 349 732 C 356 728 363 726 370 726 C 377 726 384 729 390 737 C 396 744 399 756 400 772 Z" unicode="ũ" />
<glyph horiz-adv-x="784" d="M 80 0 L 80 0 Z M 704 730 L 704 266 C 704 222 695 183 678 149 C 661 114 638 85 610 61 C 581 37 548 19 510 7 C 472 -5 432 -12 391 -12 C 349 -12 310 -6 272 6 C 234 18 201 35 173 59 C 145 83 122 112 105 147 C 88 181 80 221 80 266 L 80 730 L 246 730 L 246 274 C 246 230 260 196 288 172 C 316 148 350 137 390 137 C 430 137 465 148 494 172 C 523 195 538 229 538 274 L 538 730 L 704 730 Z M 392 778 L 392 778 Z M 540 778 L 244 778 L 244 899 L 540 899 L 540 778 Z" unicode="Ū" />
<glyph horiz-adv-x="663" d="M 69 0 L 69 0 Z M 69 567 L 228 567 L 228 212 C 228 181 236 158 254 143 C 272 128 296 121 327 121 C 358 121 383 130 401 148 C 419 166 429 189 429 218 L 429 567 L 589 567 L 589 0 L 445 0 L 445 92 C 435 64 414 39 383 18 C 352 -2 312 -13 262 -13 C 235 -13 210 -9 186 -1 C 162 6 142 17 125 31 C 107 45 94 63 84 84 C 74 104 69 128 69 154 L 69 567 Z M 329 615 L 329 615 Z M 477 615 L 181 615 L 181 736 L 477 736 L 477 615 Z" unicode="ū" />
<glyph horiz-adv-x="784" d="M 80 0 L 80 0 Z M 704 730 L 704 266 C 704 222 695 183 678 149 C 661 114 638 85 610 61 C 581 37 548 19 510 7 C 472 -5 432 -12 391 -12 C 349 -12 310 -6 272 6 C 234 18 201 35 173 59 C 145 83 122 112 105 147 C 88 181 80 221 80 266 L 80 730 L 246 730 L 246 274 C 246 230 260 196 288 172 C 316 148 350 137 390 137 C 430 137 465 148 494 172 C 523 195 538 229 538 274 L 538 730 L 704 730 Z M 392 773 L 392 773 Z M 442 937 L 572 937 C 567 880 548 838 515 812 C 481 786 440 773 392 773 C 343 773 302 786 269 812 C 235 838 216 880 212 937 L 342 937 C 343 912 347 893 355 881 C 363 869 375 863 392 863 C 408 863 421 869 429 881 C 437 893 441 911 442 937 Z" unicode="Ŭ" />
<glyph horiz-adv-x="663" d="M 69 0 L 69 0 Z M 69 567 L 228 567 L 228 212 C 228 181 236 158 254 143 C 272 128 296 121 327 121 C 358 121 383 130 401 148 C 419 166 429 189 429 218 L 429 567 L 589 567 L 589 0 L 445 0 L 445 92 C 435 64 414 39 383 18 C 352 -2 312 -13 262 -13 C 235 -13 210 -9 186 -1 C 162 6 142 17 125 31 C 107 45 94 63 84 84 C 74 104 69 128 69 154 L 69 567 Z M 329 610 L 329 610 Z M 379 774 L 509 774 C 504 717 485 675 452 649 C 418 623 377 610 329 610 C 280 610 239 623 206 649 C 172 675 153 717 149 774 L 279 774 C 280 749 284 730 292 718 C 300 706 312 700 329 700 C 345 700 358 706 366 718 C 374 730 378 748 379 774 Z" unicode="ŭ" />
<glyph horiz-adv-x="784" d="M 80 0 L 80 0 Z M 704 730 L 704 266 C 704 222 695 183 678 149 C 661 114 638 85 610 61 C 581 37 548 19 510 7 C 472 -5 432 -12 391 -12 C 349 -12 310 -6 272 6 C 234 18 201 35 173 59 C 145 83 122 112 105 147 C 88 181 80 221 80 266 L 80 730 L 246 730 L 246 274 C 246 230 260 196 288 172 C 316 148 350 137 390 137 C 430 137 465 148 494 172 C 523 195 538 229 538 274 L 538 730 L 704 730 Z M 392 771 L 392 771 Z M 392 771 C 357 771 327 783 303 808 C 278 832 266 862 266 898 C 266 932 278 962 303 987 C 327 1011 357 1024 392 1024 C 427 1024 457 1011 482 987 C 506 962 519 932 519 898 C 519 862 506 832 482 808 C 457 783 427 771 392 771 Z M 392 852 C 404 852 415 856 424 865 C 432 873 437 884 437 898 C 437 910 432 921 424 930 C 415 938 404 943 392 943 C 379 943 368 938 360 930 C 351 921 347 910 347 898 C 347 884 351 873 360 865 C 368 856 379 852 392 852 Z" unicode="Ů" />
<glyph horiz-adv-x="663" d="M 69 0 L 69 0 Z M 69 567 L 228 567 L 228 212 C 228 181 236 158 254 143 C 272 128 296 121 327 121 C 358 121 383 130 401 148 C 419 166 429 189 429 218 L 429 567 L 589 567 L 589 0 L 445 0 L 445 92 C 435 64 414 39 383 18 C 352 -2 312 -13 262 -13 C 235 -13 210 -9 186 -1 C 162 6 142 17 125 31 C 107 45 94 63 84 84 C 74 104 69 128 69 154 L 69 567 Z M 329 608 L 329 608 Z M 329 608 C 294 608 264 620 240 645 C 215 669 203 699 203 735 C 203 769 215 799 240 824 C 264 848 294 861 329 861 C 364 861 394 848 419 824 C 443 799 456 769 456 735 C 456 699 443 669 419 645 C 394 620 364 608 329 608 Z M 329 689 C 341 689 352 693 361 702 C 369 710 374 721 374 735 C 374 747 369 758 361 767 C 352 775 341 780 329 780 C 316 780 305 775 297 767 C 288 758 284 747 284 735 C 284 721 288 710 297 702 C 305 693 316 689 329 689 Z" unicode="ů" />
<glyph horiz-adv-x="784" d="M 80 0 L 80 0 Z M 704 730 L 704 266 C 704 222 695 183 678 149 C 661 114 638 85 610 61 C 581 37 548 19 510 7 C 472 -5 432 -12 391 -12 C 349 -12 310 -6 272 6 C 234 18 201 35 173 59 C 145 83 122 112 105 147 C 88 181 80 221 80 266 L 80 730 L 246 730 L 246 274 C 246 230 260 196 288 172 C 316 148 350 137 390 137 C 430 137 465 148 494 172 C 523 195 538 229 538 274 L 538 730 L 704 730 Z M 392 774 L 392 774 Z M 150 774 L 246 927 L 412 927 L 286 774 L 150 774 Z M 373 774 L 470 927 L 636 927 L 510 774 L 373 774 Z" unicode="Ű" />
<glyph horiz-adv-x="663" d="M 69 0 L 69 0 Z M 69 567 L 228 567 L 228 212 C 228 181 236 158 254 143 C 272 128 296 121 327 121 C 358 121 383 130 401 148 C 419 166 429 189 429 218 L 429 567 L 589 567 L 589 0 L 445 0 L 445 92 C 435 64 414 39 383 18 C 352 -2 312 -13 262 -13 C 235 -13 210 -9 186 -1 C 162 6 142 17 125 31 C 107 45 94 63 84 84 C 74 104 69 128 69 154 L 69 567 Z M 329 611 L 329 611 Z M 87 611 L 183 764 L 349 764 L 223 611 L 87 611 Z M 310 611 L 407 764 L 573 764 L 447 611 L 310 611 Z" unicode="ű" />
<glyph horiz-adv-x="784" d="M 80 0 L 80 0 Z M 704 730 L 704 266 C 704 222 695 183 678 149 C 661 114 638 85 610 61 C 581 37 548 19 510 7 C 472 -5 432 -12 391 -12 C 349 -12 310 -6 272 6 C 234 18 201 35 173 59 C 145 83 122 112 105 147 C 88 181 80 221 80 266 L 80 730 L 246 730 L 246 274 C 246 230 260 196 288 172 C 316 148 350 137 390 137 C 430 137 465 148 494 172 C 523 195 538 229 538 274 L 538 730 L 704 730 Z M 455 -3 L 455 -3 Z M 553 -63 L 593 -127 C 570 -151 546 -169 520 -181 C 494 -193 465 -199 433 -199 C 396 -199 367 -191 347 -176 C 327 -161 317 -142 317 -119 C 317 -94 327 -71 349 -49 C 370 -27 399 -9 435 7 L 505 7 C 487 -2 473 -12 463 -24 C 453 -35 449 -46 449 -56 C 449 -65 452 -72 460 -78 C 467 -83 476 -86 487 -86 C 501 -86 513 -83 524 -79 C 535 -75 545 -69 553 -63 Z" unicode="Ų" />
<glyph horiz-adv-x="663" d="M 69 0 L 69 0 Z M 69 567 L 228 567 L 228 212 C 228 181 236 158 254 143 C 272 128 296 121 327 121 C 358 121 383 130 401 148 C 419 166 429 189 429 218 L 429 567 L 589 567 L 589 0 L 445 0 L 445 92 C 435 64 414 39 383 18 C 352 -2 312 -13 262 -13 C 235 -13 210 -9 186 -1 C 162 6 142 17 125 31 C 107 45 94 63 84 84 C 74 104 69 128 69 154 L 69 567 Z M 481 -3 L 481 -3 Z M 579 -63 L 619 -127 C 596 -151 572 -169 546 -181 C 520 -193 491 -199 459 -199 C 422 -199 393 -191 373 -176 C 353 -161 343 -142 343 -119 C 343 -94 353 -71 375 -49 C 396 -27 425 -9 461 7 L 531 7 C 513 -2 499 -12 489 -24 C 479 -35 475 -46 475 -56 C 475 -65 478 -72 486 -78 C 493 -83 502 -86 513 -86 C 527 -86 539 -83 550 -79 C 561 -75 571 -69 579 -63 Z" unicode="ų" />
<glyph horiz-adv-x="952" d="M 4 0 L 4 0 Z M 948 730 L 721 -2 L 622 -2 L 477 446 L 324 -2 L 226 -2 L 4 730 L 179 730 L 304 305 L 435 730 L 533 730 L 669 303 L 791 730 L 948 730 Z M 476 775 L 476 775 Z M 680 775 L 535 775 L 475 857 L 415 775 L 273 775 L 396 949 L 557 949 L 680 775 Z" unicode="Ŵ" />
<glyph horiz-adv-x="824" d="M 0 0 L 0 0 Z M 536 -3 L 418 301 L 287 -3 L 194 -3 L -4 567 L 162 567 L 267 235 L 381 538 L 479 538 L 581 237 L 685 567 L 829 567 L 630 -3 L 536 -3 Z M 426 612 L 426 612 Z M 630 612 L 485 612 L 425 694 L 365 612 L 223 612 L 346 786 L 507 786 L 630 612 Z" unicode="ŵ" />
<glyph horiz-adv-x="710" d="M 0 0 L 0 0 Z M 717 730 L 437 286 L 437 0 L 267 0 L 267 293 L -7 730 L 183 730 L 360 442 L 539 730 L 717 730 Z M 360 775 L 360 775 Z M 564 775 L 419 775 L 359 857 L 299 775 L 157 775 L 280 949 L 441 949 L 564 775 Z" unicode="Ŷ" />
<glyph horiz-adv-x="607" d="M 0 0 L 0 0 Z M 615 567 L 322 -60 C 310 -86 295 -108 277 -126 C 259 -144 240 -158 220 -169 C 200 -179 179 -187 157 -192 C 135 -197 115 -200 95 -200 C 72 -200 53 -197 38 -192 C 23 -186 12 -182 6 -180 L 51 -54 C 55 -56 61 -59 71 -61 C 80 -63 90 -65 100 -65 C 118 -65 133 -60 146 -50 C 158 -40 171 -24 184 -2 L 219 62 L -8 567 L 164 567 L 305 241 L 450 567 L 615 567 Z M 305 612 L 305 612 Z M 509 612 L 364 612 L 304 694 L 244 612 L 102 612 L 225 786 L 386 786 L 509 612 Z" unicode="ŷ" />
<glyph horiz-adv-x="710" d="M 0 0 L 0 0 Z M 717 730 L 437 286 L 437 0 L 267 0 L 267 293 L -7 730 L 183 730 L 360 442 L 539 730 L 717 730 Z M 360 775 L 360 775 Z M 529 775 L 396 775 L 396 938 L 529 938 L 529 775 Z M 324 775 L 191 775 L 191 938 L 324 938 L 324 775 Z" unicode="Ÿ" />
<glyph horiz-adv-x="613" d="M 20 0 L 20 0 Z M 584 730 L 584 658 L 243 139 L 593 139 L 593 0 L 20 0 L 20 68 L 354 590 L 34 590 L 34 730 L 584 730 Z M 310 779 L 310 779 Z M 166 779 L 267 937 L 455 937 L 324 779 L 166 779 Z" unicode="Ź" />
<glyph horiz-adv-x="528" d="M 16 0 L 16 0 Z M 498 567 L 498 497 L 244 135 L 517 135 L 517 0 L 16 0 L 16 67 L 272 432 L 25 432 L 25 567 L 498 567 Z M 268 616 L 268 616 Z M 124 616 L 225 774 L 413 774 L 282 616 L 124 616 Z" unicode="ź" />
<glyph horiz-adv-x="613" d="M 20 0 L 20 0 Z M 584 730 L 584 658 L 243 139 L 593 139 L 593 0 L 20 0 L 20 68 L 354 590 L 34 590 L 34 730 L 584 730 Z M 310 775 L 310 775 Z M 381 775 L 240 775 L 240 940 L 381 940 L 381 775 Z" unicode="Ż" />
<glyph horiz-adv-x="528" d="M 16 0 L 16 0 Z M 498 567 L 498 497 L 244 135 L 517 135 L 517 0 L 16 0 L 16 67 L 272 432 L 25 432 L 25 567 L 498 567 Z M 268 612 L 268 612 Z M 339 612 L 198 612 L 198 777 L 339 777 L 339 612 Z" unicode="ż" />
<glyph horiz-adv-x="613" d="M 20 0 L 20 0 Z M 584 730 L 584 658 L 243 139 L 593 139 L 593 0 L 20 0 L 20 68 L 354 590 L 34 590 L 34 730 L 584 730 Z M 310 775 L 310 775 Z M 107 949 L 251 949 L 311 868 L 371 949 L 514 949 L 391 775 L 230 775 L 107 949 Z" unicode="Ž" />
<glyph horiz-adv-x="528" d="M 16 0 L 16 0 Z M 498 567 L 498 497 L 244 135 L 517 135 L 517 0 L 16 0 L 16 67 L 272 432 L 25 432 L 25 567 L 498 567 Z" unicode="ž" />
<glyph horiz-adv-x="400" d="M 224 -42 C 222 -58 218 -74 211 -90 C 204 -106 195 -121 183 -134 C 171 -147 157 -158 141 -166 C 124 -174 105 -179 84 -179 C 59 -179 36 -176 15 -172 C -6 -168 -22 -162 -34 -156 L -19 -46 C -14 -46 -7 -48 2 -50 C 12 -52 21 -54 30 -54 C 47 -54 61 -48 73 -36 C 84 -24 91 -6 94 16 L 120 315 L 26 315 L 26 433 L 131 433 L 146 610 C 148 632 153 652 163 670 C 173 687 185 701 199 712 C 213 723 228 731 245 737 C 261 743 278 746 294 746 C 310 746 328 745 346 744 C 364 743 374 742 378 742 L 367 609 C 365 609 361 610 355 611 C 349 611 343 612 337 612 C 318 612 303 605 292 593 C 281 580 275 560 273 534 L 264 433 L 363 433 L 363 315 L 254 315 L 224 -42 Z" unicode="ƒ" />
<glyph horiz-adv-x="649" d="M 30 0 L 30 0 Z M 324 -12 C 258 -12 200 -4 152 12 C 103 28 62 49 30 77 L 119 212 C 140 191 169 172 207 154 C 244 136 285 127 330 127 C 358 127 380 132 397 143 C 414 154 423 169 423 189 C 423 209 414 226 398 241 C 381 255 347 272 295 291 C 250 307 212 322 182 338 C 151 354 126 371 108 390 C 89 408 75 430 67 454 C 59 478 55 506 55 539 C 55 601 79 651 129 687 C 178 723 242 742 322 742 C 384 742 435 732 477 714 C 518 696 551 677 575 659 L 496 521 C 468 541 439 558 409 573 C 378 587 346 595 314 595 C 286 595 264 590 249 580 C 234 570 227 556 227 538 C 227 517 238 499 262 485 C 286 471 325 453 380 432 C 418 417 452 402 480 388 C 508 374 531 358 549 341 C 567 323 580 303 588 281 C 596 258 601 231 601 200 C 601 166 593 135 578 109 C 563 83 543 61 518 43 C 493 25 464 11 430 2 C 396 -7 361 -12 324 -12 Z M 312 -59 L 312 -59 Z M 432 -59 C 431 -96 426 -132 418 -168 C 410 -204 400 -236 388 -265 C 376 -294 363 -318 349 -338 C 335 -358 322 -371 311 -377 L 193 -325 C 199 -317 207 -304 216 -286 C 224 -267 232 -245 240 -221 C 247 -196 253 -169 259 -141 C 265 -113 269 -85 271 -59 L 432 -59 Z" unicode="Ș" />
<glyph horiz-adv-x="566" d="M 39 0 L 39 0 Z M 311 -12 C 253 -12 202 -5 156 7 C 110 20 71 37 39 59 L 106 167 C 136 152 169 140 207 130 C 244 120 276 115 303 115 C 323 115 339 119 351 129 C 363 138 369 149 369 163 C 369 175 360 186 344 196 C 328 205 299 215 257 226 C 185 244 134 269 105 301 C 75 333 61 370 61 413 C 61 439 66 462 78 483 C 90 503 106 521 126 535 C 146 549 171 560 199 568 C 227 576 257 580 289 580 C 353 580 404 572 442 557 C 480 541 508 527 526 515 L 471 395 C 441 411 413 425 386 436 C 359 447 331 453 303 453 C 281 453 263 449 249 441 C 234 433 227 423 227 410 C 227 402 228 396 231 391 C 233 386 239 381 247 377 C 255 372 267 367 283 362 C 298 357 318 351 344 344 C 406 326 453 304 485 278 C 517 252 534 216 534 170 C 534 141 528 115 517 93 C 505 71 490 52 470 36 C 450 20 426 8 399 0 C 371 -7 342 -12 311 -12 Z M 282 -55 L 282 -55 Z M 402 -55 C 401 -92 396 -128 388 -164 C 380 -200 370 -232 358 -261 C 346 -290 333 -314 319 -334 C 305 -354 292 -367 281 -373 L 163 -321 C 169 -313 177 -300 186 -282 C 194 -263 202 -241 210 -217 C 217 -192 223 -165 229 -137 C 235 -109 239 -81 241 -55 L 402 -55 Z" unicode="ș" />
<glyph horiz-adv-x="604" d="M 10 0 L 10 0 Z M 594 589 L 384 589 L 384 0 L 214 0 L 214 589 L 10 589 L 10 730 L 594 730 L 594 589 Z M 268 -55 L 268 -55 Z M 388 -55 C 387 -92 382 -128 374 -164 C 366 -200 356 -232 344 -261 C 332 -290 319 -314 305 -334 C 291 -354 278 -367 267 -373 L 149 -321 C 155 -313 163 -300 172 -282 C 180 -263 188 -241 196 -217 C 203 -192 209 -165 215 -137 C 221 -109 225 -81 227 -55 L 388 -55 Z" unicode="Ț" />
<glyph horiz-adv-x="416" d="M 8 0 L 8 0 Z M 390 150 L 415 21 C 399 11 379 4 354 0 C 328 -3 307 -6 289 -6 C 228 -6 178 10 140 45 C 101 79 82 131 82 199 L 82 435 L 8 435 L 8 567 L 82 567 L 82 706 L 241 724 L 241 567 L 387 567 L 387 435 L 241 435 L 241 211 C 241 187 246 168 257 154 C 267 140 285 133 310 133 C 328 133 343 135 357 139 C 371 143 382 146 390 150 Z M 210 -55 L 210 -55 Z M 330 -55 C 329 -92 324 -128 316 -164 C 308 -200 298 -232 286 -261 C 274 -290 261 -314 247 -334 C 233 -354 220 -367 209 -373 L 91 -321 C 97 -313 105 -300 114 -282 C 122 -263 130 -241 138 -217 C 145 -192 151 -165 157 -137 C 163 -109 167 -81 169 -55 L 330 -55 Z" unicode="ț" />
<glyph horiz-adv-x="340" d="M 270 567 L 270 7 C 270 -61 250 -113 210 -149 C 170 -184 119 -201 58 -201 C 36 -201 9 -198 -22 -194 C -54 -189 -81 -181 -105 -171 L -77 -51 C -66 -57 -51 -63 -32 -67 C -13 -71 6 -74 28 -74 C 58 -74 79 -63 91 -42 C 103 -21 110 3 110 32 L 110 567 L 270 567 Z" unicode="ȷ" />
<glyph horiz-adv-x="500" d="M 454 612 L 309 612 L 249 694 L 189 612 L 47 612 L 170 786 L 331 786 L 454 612 Z" unicode="ˆ" />
<glyph horiz-adv-x="500" d="M 47 786 L 191 786 L 251 705 L 311 786 L 454 786 L 331 612 L 170 612 L 47 786 Z" unicode="ˇ" />
<glyph horiz-adv-x="500" d="M 300 774 L 430 774 C 425 717 406 675 373 649 C 339 623 298 610 250 610 C 201 610 160 623 127 649 C 93 675 74 717 70 774 L 200 774 C 201 749 205 730 213 718 C 221 706 233 700 250 700 C 266 700 279 706 287 718 C 295 730 299 748 300 774 Z" unicode="˘" />
<glyph horiz-adv-x="500" d="M 321 612 L 180 612 L 180 777 L 321 777 L 321 612 Z" unicode="˙" />
<glyph horiz-adv-x="510" d="M 255 608 C 220 608 190 620 166 645 C 141 669 129 699 129 735 C 129 769 141 799 166 824 C 190 848 220 861 255 861 C 290 861 320 848 345 824 C 369 799 382 769 382 735 C 382 699 369 669 345 645 C 320 620 290 608 255 608 Z M 255 689 C 267 689 278 693 287 702 C 295 710 300 721 300 735 C 300 747 295 758 287 767 C 278 775 267 780 255 780 C 242 780 231 775 223 767 C 214 758 210 747 210 735 C 210 721 214 710 223 702 C 231 693 242 689 255 689 Z" unicode="˚" />
<glyph horiz-adv-x="500" d="M 361 -60 L 401 -124 C 378 -148 354 -166 328 -178 C 302 -190 273 -196 241 -196 C 204 -196 175 -188 155 -173 C 135 -158 125 -139 125 -116 C 125 -91 135 -68 157 -46 C 178 -24 207 -6 243 10 L 313 10 C 295 0 281 -9 271 -21 C 261 -32 257 -43 257 -53 C 257 -62 260 -69 268 -75 C 275 -80 284 -83 295 -83 C 309 -83 321 -80 332 -76 C 343 -72 353 -66 361 -60 Z" unicode="˛" />
<glyph horiz-adv-x="500" d="M 328 772 L 453 772 C 453 718 444 678 426 652 C 408 626 384 613 352 613 C 335 613 319 615 305 620 C 291 625 277 631 265 639 C 255 644 246 650 237 657 C 227 663 218 667 210 667 C 201 667 194 662 190 654 C 186 646 183 633 183 616 L 61 616 C 61 642 64 666 71 686 C 77 706 86 723 97 736 C 107 749 119 759 133 766 C 146 772 159 776 172 776 C 190 776 206 773 219 768 C 231 762 243 756 254 748 C 262 741 270 736 277 732 C 284 728 291 726 298 726 C 305 726 312 729 318 737 C 324 744 327 756 328 772 Z" unicode="˜" />
<glyph horiz-adv-x="500" d="M 28 611 L 124 764 L 290 764 L 164 611 L 28 611 Z M 251 611 L 348 764 L 514 764 L 388 611 L 251 611 Z" unicode="˝" />
<glyph horiz-adv-x="0" d="M 0 611 L 0 611 Z M 145 611 L -14 611 L -145 770 L 42 770 L 145 611 Z" unicode="̀" />
<glyph horiz-adv-x="0" d="M 0 616 L 0 616 Z M -144 616 L -43 774 L 145 774 L 14 616 L -144 616 Z" unicode="́" />
<glyph horiz-adv-x="0" d="M 0 612 L 0 612 Z M 204 612 L 59 612 L -1 694 L -61 612 L -203 612 L -80 786 L 81 786 L 204 612 Z" unicode="̂" />
<glyph horiz-adv-x="0" d="M 0 613 L 0 613 Z M 71 772 L 196 772 C 196 718 187 678 169 652 C 151 626 127 613 95 613 C 78 613 62 615 48 620 C 34 625 20 631 8 639 C -1 644 -10 650 -20 657 C -29 663 -38 667 -47 667 C -55 667 -62 662 -66 654 C -70 646 -73 633 -74 616 L -196 616 C -196 642 -192 666 -186 686 C -179 706 -170 723 -160 736 C -149 749 -137 759 -124 766 C -110 772 -97 776 -85 776 C -66 776 -50 773 -38 768 C -25 762 -13 756 -3 748 C 5 741 13 736 20 732 C 27 728 34 726 41 726 C 48 726 55 729 61 737 C 67 744 70 756 71 772 Z" unicode="̃" />
<glyph horiz-adv-x="0" d="M 0 615 L 0 615 Z M 148 615 L -148 615 L -148 736 L 148 736 L 148 615 Z" unicode="̄" />
<glyph horiz-adv-x="0" d="M 0 610 L 0 610 Z M 50 774 L 180 774 C 175 717 156 675 123 649 C 89 623 48 610 0 610 C -48 610 -89 623 -123 649 C -156 675 -175 717 -180 774 L -50 774 C -48 749 -44 730 -36 718 C -28 706 -16 700 0 700 C 16 700 29 706 37 718 C 45 730 49 748 50 774 Z" unicode="̆" />
<glyph horiz-adv-x="0" d="M 0 612 L 0 612 Z M 71 612 L -70 612 L -70 777 L 71 777 L 71 612 Z" unicode="̇" />
<glyph horiz-adv-x="0" d="M 0 612 L 0 612 Z M 169 612 L 36 612 L 36 775 L 169 775 L 169 612 Z M -36 612 L -169 612 L -169 775 L -36 775 L -36 612 Z" unicode="̈" />
<glyph horiz-adv-x="0" d="M 0 608 L 0 608 Z M 0 608 C -34 608 -64 620 -89 645 C -113 669 -126 699 -126 735 C -126 769 -113 799 -89 824 C -64 848 -34 861 0 861 C 35 861 65 848 90 824 C 114 799 127 769 127 735 C 127 699 114 669 90 645 C 65 620 35 608 0 608 Z M 0 689 C 12 689 23 693 32 702 C 40 710 45 721 45 735 C 45 747 40 758 32 767 C 23 775 12 780 0 780 C -12 780 -23 775 -32 767 C -40 758 -45 747 -45 735 C -45 721 -40 710 -32 702 C -23 693 -12 689 0 689 Z" unicode="̊" />
<glyph horiz-adv-x="0" d="M 0 611 L 0 611 Z M -242 611 L -146 764 L 20 764 L -106 611 L -242 611 Z M -19 611 L 78 764 L 244 764 L 118 611 L -19 611 Z" unicode="̋" />
<glyph horiz-adv-x="0" d="M 0 612 L 0 612 Z M -203 786 L -59 786 L 1 705 L 61 786 L 204 786 L 81 612 L -80 612 L -203 786 Z" unicode="̌" />
<glyph horiz-adv-x="0" d="M 0 -55 L 0 -55 Z M 120 -55 C 119 -92 114 -128 106 -164 C 98 -200 88 -232 76 -261 C 64 -290 51 -314 37 -334 C 23 -354 10 -367 -1 -373 L -119 -321 C -112 -313 -104 -300 -96 -282 C -87 -263 -79 -241 -72 -217 C -64 -192 -58 -165 -52 -137 C -46 -109 -43 -81 -41 -55 L 120 -55 Z" unicode="̦" />
<glyph horiz-adv-x="0" d="M 0 0 L 0 0 Z M 9 -195 C -18 -195 -46 -192 -74 -186 C -102 -180 -124 -172 -138 -163 L -120 -96 C -112 -99 -101 -103 -87 -107 C -73 -111 -59 -113 -45 -113 C -36 -113 -28 -111 -22 -107 C -16 -103 -13 -98 -13 -92 C -13 -85 -15 -80 -21 -77 C -27 -74 -33 -73 -40 -73 C -44 -73 -49 -73 -53 -74 C -57 -74 -61 -75 -65 -77 L -85 -56 L -24 13 L 71 13 L 25 -41 C 58 -37 85 -43 106 -57 C 126 -71 137 -90 137 -115 C 137 -142 123 -162 97 -175 C 71 -188 41 -195 9 -195 Z" unicode="̧" />
<glyph horiz-adv-x="0" d="M 0 0 L 0 0 Z M 98 -60 L 138 -124 C 115 -148 91 -166 65 -178 C 39 -190 10 -196 -22 -196 C -58 -196 -87 -188 -107 -173 C -127 -158 -138 -139 -138 -116 C -138 -91 -127 -68 -106 -46 C -84 -24 -56 -6 -20 10 L 50 10 C 32 0 18 -9 8 -21 C -1 -32 -6 -43 -6 -53 C -6 -62 -2 -69 5 -75 C 12 -80 21 -83 32 -83 C 46 -83 58 -80 69 -76 C 80 -72 90 -66 98 -60 Z" unicode="̨" />
<glyph horiz-adv-x="525" d="M 0 0 L 0 0 Z M 656 0 L -3 0 L 298 731 L 359 731 L 656 0 Z M 447 121 L 321 453 L 197 121 L 447 121 Z" unicode="Δ" />
<glyph horiz-adv-x="724" d="M 21 0 L 21 0 Z M 30 0 L 30 144 L 233 144 L 233 179 C 204 186 177 198 151 214 C 125 230 103 250 84 274 C 64 297 49 324 38 354 C 26 384 21 418 21 454 C 21 494 29 532 46 568 C 62 604 86 636 117 663 C 148 689 186 710 232 726 C 278 742 330 750 388 750 C 447 750 500 742 547 726 C 593 710 633 689 665 662 C 697 635 721 604 738 568 C 754 532 763 494 763 454 C 763 382 745 322 710 275 C 674 228 621 196 551 179 L 551 144 L 753 144 L 753 0 L 438 0 L 438 263 C 487 275 525 298 551 330 C 577 362 590 400 590 444 C 590 469 584 492 574 514 C 563 535 549 553 531 568 C 513 583 491 595 467 603 C 442 611 416 616 389 616 C 362 616 337 611 314 603 C 290 595 270 583 252 568 C 234 552 220 534 210 513 C 200 491 195 468 195 442 C 195 400 207 363 232 333 C 256 302 295 279 347 263 L 347 0 L 30 0 Z" unicode="Ω" />
<glyph horiz-adv-x="578" d="M 69 0 L 69 0 Z M 69 -134 L 69 567 L 224 567 L 224 196 C 224 178 232 160 248 143 C 264 126 286 118 316 118 C 340 118 362 129 382 152 C 401 175 411 202 411 233 L 411 567 L 566 567 L 566 0 L 423 0 L 423 70 C 410 50 389 34 361 21 C 333 7 305 0 278 -3 C 265 -3 252 -2 240 2 C 227 6 218 11 212 19 L 212 -134 L 69 -134 Z" unicode="μ" />
<glyph horiz-adv-x="651" d="M 230 445 L 230 0 L 75 0 L 75 445 L 16 445 L 16 567 L 635 567 L 635 445 L 574 445 L 574 0 L 420 0 L 420 445 L 230 445 Z" unicode="π" />
<glyph horiz-adv-x="952" d="M 4 0 L 4 0 Z M 948 730 L 721 -2 L 622 -2 L 477 446 L 324 -2 L 226 -2 L 4 730 L 179 730 L 304 305 L 435 730 L 533 730 L 669 303 L 791 730 L 948 730 Z M 476 774 L 476 774 Z M 621 774 L 462 774 L 331 933 L 518 933 L 621 774 Z" unicode="Ẁ" />
<glyph horiz-adv-x="824" d="M 0 0 L 0 0 Z M 536 -3 L 418 301 L 287 -3 L 194 -3 L -4 567 L 162 567 L 267 235 L 381 538 L 479 538 L 581 237 L 685 567 L 829 567 L 630 -3 L 536 -3 Z M 426 611 L 426 611 Z M 571 611 L 412 611 L 281 770 L 468 770 L 571 611 Z" unicode="ẁ" />
<glyph horiz-adv-x="952" d="M 4 0 L 4 0 Z M 948 730 L 721 -2 L 622 -2 L 477 446 L 324 -2 L 226 -2 L 4 730 L 179 730 L 304 305 L 435 730 L 533 730 L 669 303 L 791 730 L 948 730 Z M 476 779 L 476 779 Z M 332 779 L 433 937 L 621 937 L 490 779 L 332 779 Z" unicode="Ẃ" />
<glyph horiz-adv-x="824" d="M 0 0 L 0 0 Z M 536 -3 L 418 301 L 287 -3 L 194 -3 L -4 567 L 162 567 L 267 235 L 381 538 L 479 538 L 581 237 L 685 567 L 829 567 L 630 -3 L 536 -3 Z M 426 616 L 426 616 Z M 282 616 L 383 774 L 571 774 L 440 616 L 282 616 Z" unicode="ẃ" />
<glyph horiz-adv-x="952" d="M 4 0 L 4 0 Z M 948 730 L 721 -2 L 622 -2 L 477 446 L 324 -2 L 226 -2 L 4 730 L 179 730 L 304 305 L 435 730 L 533 730 L 669 303 L 791 730 L 948 730 Z M 476 775 L 476 775 Z M 645 775 L 512 775 L 512 938 L 645 938 L 645 775 Z M 440 775 L 307 775 L 307 938 L 440 938 L 440 775 Z" unicode="Ẅ" />
<glyph horiz-adv-x="824" d="M 0 0 L 0 0 Z M 536 -3 L 418 301 L 287 -3 L 194 -3 L -4 567 L 162 567 L 267 235 L 381 538 L 479 538 L 581 237 L 685 567 L 829 567 L 630 -3 L 536 -3 Z M 426 612 L 426 612 Z M 595 612 L 462 612 L 462 775 L 595 775 L 595 612 Z M 390 612 L 257 612 L 257 775 L 390 775 L 390 612 Z" unicode="ẅ" />
<glyph horiz-adv-x="710" d="M 0 0 L 0 0 Z M 717 730 L 437 286 L 437 0 L 267 0 L 267 293 L -7 730 L 183 730 L 360 442 L 539 730 L 717 730 Z M 360 774 L 360 774 Z M 505 774 L 346 774 L 215 933 L 402 933 L 505 774 Z" unicode="Ỳ" />
<glyph horiz-adv-x="607" d="M 0 0 L 0 0 Z M 615 567 L 322 -60 C 310 -86 295 -108 277 -126 C 259 -144 240 -158 220 -169 C 200 -179 179 -187 157 -192 C 135 -197 115 -200 95 -200 C 72 -200 53 -197 38 -192 C 23 -186 12 -182 6 -180 L 51 -54 C 55 -56 61 -59 71 -61 C 80 -63 90 -65 100 -65 C 118 -65 133 -60 146 -50 C 158 -40 171 -24 184 -2 L 219 62 L -8 567 L 164 567 L 305 241 L 450 567 L 615 567 Z M 305 611 L 305 611 Z M 450 611 L 291 611 L 160 770 L 347 770 L 450 611 Z" unicode="ỳ" />
<glyph horiz-adv-x="460" d="M 424 214 L 37 214 L 37 348 L 424 348 L 424 214 Z" unicode="–" />
<glyph horiz-adv-x="645" d="M 609 214 L 37 214 L 37 348 L 609 348 L 609 214 Z" unicode="—" />
<glyph horiz-adv-x="331" d="M 30 507 L 30 514 C 30 550 41 589 65 629 C 88 669 119 705 159 737 L 319 731 C 309 725 297 715 283 701 C 269 687 255 670 243 651 C 230 631 219 610 210 587 C 201 563 197 539 197 515 L 197 507 L 30 507 Z" unicode="‘" />
<glyph horiz-adv-x="331" d="M 301 737 L 301 730 C 301 693 289 655 265 616 C 241 577 210 541 172 507 L 12 513 C 22 521 34 532 48 546 C 62 560 75 577 88 596 C 100 614 111 635 120 658 C 129 680 134 704 134 729 L 134 737 L 301 737 Z" unicode="’" />
<glyph horiz-adv-x="331" d="M 301 121 L 301 114 C 301 77 289 39 265 0 C 241 -38 210 -75 172 -109 L 12 -103 C 22 -95 34 -83 48 -69 C 62 -55 75 -38 88 -20 C 100 -1 111 19 120 42 C 129 64 134 88 134 113 L 134 121 L 301 121 Z" unicode="‚" />
<glyph horiz-adv-x="532" d="M 255 507 L 255 514 C 255 550 266 587 289 625 C 312 663 344 700 384 737 L 520 731 C 510 722 498 710 484 696 C 470 682 456 665 443 647 C 430 628 419 607 410 585 C 400 563 396 539 396 515 L 396 507 L 255 507 Z M 30 507 L 30 514 C 30 550 42 587 66 625 C 90 663 121 700 159 737 L 296 731 C 287 723 276 711 262 697 C 248 683 234 666 221 648 C 207 629 196 608 186 586 C 176 563 172 539 172 515 L 172 507 L 30 507 Z" unicode="“" />
<glyph horiz-adv-x="532" d="M 278 737 L 278 730 C 278 693 267 656 245 618 C 223 580 191 543 149 507 L 12 513 C 23 522 36 534 50 549 C 64 563 78 580 91 598 C 103 616 114 637 123 659 C 131 681 136 704 136 729 L 136 737 L 278 737 Z M 502 737 L 502 730 C 502 693 490 655 467 617 C 444 579 413 542 373 507 L 237 513 C 249 523 262 535 276 549 C 290 563 304 580 316 598 C 328 616 339 637 348 659 C 356 681 361 704 361 729 L 361 737 L 502 737 Z" unicode="”" />
<glyph horiz-adv-x="532" d="M 278 128 L 278 121 C 278 84 267 47 245 9 C 223 -28 191 -65 149 -102 L 12 -96 C 23 -86 36 -74 50 -60 C 64 -45 78 -28 91 -10 C 103 7 114 28 123 50 C 131 72 136 95 136 120 L 136 128 L 278 128 Z M 502 128 L 502 121 C 502 84 490 46 467 8 C 444 -29 413 -66 373 -102 L 237 -96 C 249 -86 262 -73 276 -59 C 290 -45 304 -28 316 -10 C 328 7 339 28 348 50 C 356 72 361 95 361 120 L 361 128 L 502 128 Z" unicode="„" />
<glyph horiz-adv-x="565" d="M 540 346 L 361 346 L 361 -179 L 198 -179 L 198 346 L 25 346 L 25 470 L 198 470 L 198 730 L 361 730 L 361 470 L 540 470 L 540 346 Z" unicode="†" />
<glyph horiz-adv-x="565" d="M 198 -179 L 198 79 L 33 79 L 33 203 L 198 203 L 198 367 L 33 367 L 33 491 L 198 491 L 198 730 L 361 730 L 361 491 L 532 491 L 532 367 L 361 367 L 361 203 L 532 203 L 532 79 L 361 79 L 361 -179 L 198 -179 Z" unicode="‡" />
<glyph horiz-adv-x="382" d="M 191 519 C 230 519 263 505 290 478 C 317 451 331 418 331 379 C 331 340 317 307 290 280 C 263 253 230 240 191 240 C 151 240 118 253 91 280 C 64 307 51 340 51 379 C 51 418 64 451 91 478 C 118 505 151 519 191 519 Z" unicode="•" />
<glyph horiz-adv-x="801" d="M 55 0 L 55 163 L 212 163 L 212 0 L 55 0 Z M 322 0 L 322 163 L 479 163 L 479 0 L 322 0 Z M 589 0 L 589 163 L 746 163 L 746 0 L 589 0 Z" unicode="…" />
<glyph horiz-adv-x="1415" d="M 237 331 C 209 331 182 336 158 347 C 133 357 112 372 94 390 C 76 408 61 429 51 454 C 40 478 35 505 35 534 C 35 560 40 586 50 611 C 60 636 73 658 91 676 C 109 694 130 709 154 721 C 178 732 204 738 232 738 C 260 738 287 732 311 721 C 335 710 356 695 374 677 C 392 659 406 637 416 613 C 426 589 432 563 432 537 C 432 509 427 483 417 458 C 407 433 393 411 376 393 C 358 374 338 359 314 348 C 290 336 264 331 237 331 Z M 169 0 L 687 730 L 801 730 L 283 0 L 169 0 Z M 169 535 C 169 502 174 478 186 463 C 198 447 213 440 233 440 C 253 440 269 448 280 464 C 291 480 297 504 297 535 C 297 565 291 589 281 605 C 271 621 255 630 234 630 C 213 630 197 621 186 605 C 174 589 169 565 169 535 Z M 751 -4 C 723 -4 697 1 673 12 C 648 22 627 37 609 55 C 591 73 576 95 566 120 C 555 144 550 171 550 200 C 550 226 555 252 565 277 C 575 302 588 324 606 342 C 624 360 645 375 669 387 C 693 398 718 404 746 404 C 774 404 801 398 826 387 C 850 376 871 361 889 343 C 907 325 921 303 931 279 C 941 255 946 229 946 203 C 946 175 941 149 931 124 C 921 99 907 77 890 58 C 872 39 852 24 828 13 C 804 1 778 -4 751 -4 Z M 1185 -4 C 1157 -4 1131 1 1107 12 C 1082 22 1060 37 1042 55 C 1024 73 1009 95 999 120 C 988 144 983 171 983 200 C 983 226 988 252 998 277 C 1008 302 1022 324 1040 342 C 1057 360 1078 375 1102 387 C 1126 398 1153 404 1181 404 C 1209 404 1236 398 1260 387 C 1284 376 1305 361 1323 343 C 1341 325 1355 303 1365 279 C 1375 255 1380 229 1380 203 C 1380 175 1375 149 1365 124 C 1355 99 1341 77 1324 58 C 1306 39 1286 24 1262 13 C 1238 1 1212 -4 1185 -4 Z M 747 106 C 767 106 783 114 795 130 C 806 146 812 169 812 200 C 812 230 806 254 796 271 C 785 287 769 296 748 296 C 727 296 711 287 700 271 C 689 254 684 230 684 200 C 684 168 689 144 701 129 C 713 113 728 106 747 106 Z M 1181 106 C 1201 106 1217 114 1229 130 C 1240 146 1246 169 1246 200 C 1246 230 1240 254 1230 271 C 1219 287 1203 296 1182 296 C 1161 296 1145 287 1134 271 C 1123 254 1118 230 1118 200 C 1118 168 1123 144 1135 129 C 1147 113 1162 106 1181 106 Z" unicode="‰" />
<glyph horiz-adv-x="264" d="M 237 96 L 24 271 L 24 360 L 237 532 L 237 381 L 159 312 L 237 251 L 237 96 Z" unicode="‹" />
<glyph horiz-adv-x="265" d="M 27 535 L 242 360 L 242 271 L 27 99 L 27 250 L 105 319 L 27 380 L 27 535 Z" unicode="›" />
<glyph horiz-adv-x="145" d="M 313 730 L -27 0 L -145 0 L 195 730 L 313 730 Z" unicode="⁄" />
<glyph horiz-adv-x="334" d="M 12 453 L 12 525 L 190 734 L 268 734 L 268 530 L 319 530 L 319 453 L 268 453 L 268 373 L 162 373 L 162 453 L 12 453 Z M 98 521 L 165 521 L 165 601 L 98 521 Z" unicode="⁴" />
<glyph horiz-adv-x="562" d="M 561 111 C 541 73 511 43 469 21 C 427 0 381 -12 333 -12 C 266 -12 211 10 169 56 C 126 101 98 163 84 242 L 26 242 L 26 330 L 75 330 C 74 334 74 339 74 344 C 74 349 74 354 74 359 C 74 363 74 368 74 373 C 74 378 74 383 74 388 L 26 388 L 26 476 L 82 476 C 88 515 97 551 110 584 C 123 616 140 644 160 668 C 180 691 204 709 233 722 C 261 735 294 742 331 742 C 397 742 448 729 484 704 C 519 679 544 652 558 622 L 432 558 C 422 574 410 588 394 599 C 378 610 357 616 331 616 C 302 616 279 605 262 584 C 245 562 233 526 227 476 L 499 476 L 499 388 L 221 388 C 221 384 221 380 221 376 C 221 372 221 367 221 363 C 221 357 221 351 221 345 C 221 339 221 334 222 330 L 499 330 L 499 242 L 230 242 C 238 197 252 164 270 144 C 288 123 310 113 336 113 C 361 113 383 120 401 135 C 419 149 432 166 441 185 L 561 111 Z" unicode="€" />
<glyph horiz-adv-x="1008" d="M 965 292 L 822 292 L 822 503 L 696 340 L 688 340 L 564 501 L 564 292 L 427 292 L 427 730 L 525 730 L 693 520 L 859 730 L 965 730 L 965 292 Z M 398 578 L 285 578 L 285 292 L 123 292 L 123 578 L 9 578 L 9 730 L 398 730 L 398 578 Z" unicode="™" />
<glyph horiz-adv-x="784" d="M 30 0 L 30 144 L 233 144 L 233 179 C 204 186 177 198 151 214 C 125 230 103 250 84 274 C 64 297 49 324 38 354 C 26 384 21 418 21 454 C 21 494 29 532 46 568 C 62 604 86 636 117 663 C 148 689 186 710 232 726 C 278 742 330 750 388 750 C 447 750 500 742 547 726 C 593 710 633 689 665 662 C 697 635 721 604 738 568 C 754 532 763 494 763 454 C 763 382 745 322 710 275 C 674 228 621 196 551 179 L 551 144 L 753 144 L 753 0 L 438 0 L 438 263 C 487 275 525 298 551 330 C 577 362 590 400 590 444 C 590 469 584 492 574 514 C 563 535 549 553 531 568 C 513 583 491 595 467 603 C 442 611 416 616 389 616 C 362 616 337 611 314 603 C 290 595 270 583 252 568 C 234 552 220 534 210 513 C 200 491 195 468 195 442 C 195 400 207 363 232 333 C 256 302 295 279 347 263 L 347 0 L 30 0 Z" unicode="Ω" />
<glyph horiz-adv-x="643" d="M 608 307 C 608 247 600 196 584 155 C 568 114 546 81 520 57 C 493 32 462 14 426 4 C 390 -6 354 -12 316 -12 C 282 -12 248 -6 214 4 C 180 15 149 32 122 54 C 95 76 73 103 56 136 C 39 168 31 206 31 249 C 31 287 38 323 52 356 C 66 389 86 418 110 442 C 134 466 162 484 194 498 C 226 512 259 519 295 519 C 323 519 349 513 373 501 C 397 489 417 473 432 453 C 424 493 411 527 393 556 C 374 585 352 609 326 628 C 300 646 272 660 240 670 C 208 680 176 686 143 688 L 231 801 C 270 801 312 791 356 773 C 400 754 441 725 478 686 C 515 646 546 595 571 532 C 595 469 608 394 608 307 Z M 319 120 C 359 120 390 132 414 158 C 438 184 450 223 450 276 C 450 316 439 348 417 373 C 395 397 365 410 325 410 C 287 410 256 398 234 375 C 211 351 200 314 200 263 C 200 213 211 176 235 154 C 258 131 286 120 319 120 Z" unicode="∂" />
<glyph horiz-adv-x="648" d="M 656 0 L -3 0 L 298 731 L 359 731 L 656 0 Z M 447 121 L 321 453 L 197 121 L 447 121 Z" unicode="∆" />
<glyph horiz-adv-x="700" d="M 269 590 L 269 0 L 107 0 L 107 590 L 15 590 L 15 730 L 685 730 L 685 590 L 602 590 L 602 0 L 440 0 L 440 590 L 269 590 Z" unicode="∏" />
<glyph horiz-adv-x="618" d="M 259 588 L 463 307 L 224 -37 L 569 -37 L 569 -179 L -37 -179 L 301 306 L -8 730 L 548 730 L 548 588 L 259 588 Z" unicode="∑" />
<glyph horiz-adv-x="525" d="M 487 268 L 37 268 L 37 395 L 487 395 L 487 268 Z" unicode="−" />
<glyph horiz-adv-x="510" d="M 515 730 L 198 0 L 186 0 L 8 338 L 115 426 L 211 223 L 419 730 L 515 730 Z" unicode="√" />
<glyph horiz-adv-x="365" d="M 94 16 L 146 610 C 148 632 153 652 163 670 C 173 687 185 701 199 712 C 213 723 228 731 245 737 C 261 743 278 746 294 746 C 310 746 328 745 346 744 C 364 743 374 742 378 742 L 367 609 C 365 609 361 610 355 611 C 349 611 343 612 337 612 C 318 612 303 605 292 593 C 281 580 275 560 273 534 L 224 -42 C 222 -58 218 -74 211 -90 C 204 -106 195 -121 183 -135 C 171 -148 157 -159 141 -167 C 124 -175 105 -179 84 -179 C 59 -179 36 -176 15 -172 C -6 -167 -22 -161 -34 -155 L -18 -45 C -14 -45 -7 -47 2 -50 C 12 -52 21 -54 30 -54 C 47 -54 61 -48 73 -36 C 84 -24 91 -6 94 16 Z" unicode="∫" />
<glyph horiz-adv-x="500" d="M 360 521 L 471 521 C 469 497 466 474 461 452 C 456 430 449 410 439 394 C 429 378 417 365 403 355 C 388 345 371 340 351 340 C 327 340 306 343 289 351 C 271 358 257 366 245 376 C 233 384 223 392 213 399 C 203 405 192 409 180 409 C 169 409 159 401 151 387 C 142 373 138 358 138 343 L 29 343 C 29 395 38 438 58 472 C 77 506 107 523 149 523 C 173 523 194 517 212 507 C 230 496 245 486 257 478 C 269 469 281 462 291 456 C 301 450 310 447 320 447 C 336 447 346 454 352 468 C 357 482 360 500 360 521 Z M 360 325 L 471 325 C 469 301 466 278 461 256 C 456 234 449 214 439 198 C 429 182 417 169 403 159 C 388 149 371 144 351 144 C 327 144 306 147 289 155 C 271 162 257 170 245 180 C 233 188 223 196 213 203 C 203 209 192 213 180 213 C 169 213 159 205 151 191 C 142 177 138 162 138 147 L 29 147 C 29 199 38 242 58 276 C 77 310 107 327 149 327 C 173 327 194 321 212 310 C 230 299 245 289 257 281 C 269 273 281 266 291 260 C 301 254 310 251 320 251 C 336 251 346 258 352 272 C 357 286 360 304 360 325 Z" unicode="≈" />
<glyph horiz-adv-x="500" d="M 457 148 L 229 148 L 183 43 L 103 78 L 134 148 L 65 148 L 65 280 L 192 280 L 234 375 L 65 375 L 65 506 L 291 506 L 345 628 L 425 593 L 387 506 L 457 506 L 457 375 L 329 375 L 287 280 L 457 280 L 457 148 Z" unicode="≠" />
<glyph horiz-adv-x="500" d="M 216 326 L 433 207 L 433 10 L 61 10 L 61 111 L 368 111 L 62 276 L 62 371 L 433 575 L 433 444 L 216 326 Z" unicode="≤" />
<glyph horiz-adv-x="500" d="M 433 10 L 61 10 L 61 207 L 278 326 L 61 444 L 61 575 L 432 371 L 432 276 L 126 111 L 433 111 L 433 10 Z" unicode="≥" />
<glyph horiz-adv-x="559" d="M 533 325 L 285 -40 L 274 -40 L 26 325 L 26 337 L 274 702 L 285 702 L 533 337 L 533 325 Z M 390 327 L 390 335 L 284 495 L 276 495 L 170 335 L 170 327 L 276 167 L 284 167 L 390 327 Z" unicode="◊" />
<glyph horiz-adv-x="730" d="M 448 645 L 282 645 L 282 730 L 448 730 L 448 645 Z M 461 269 L 269 269 L 269 461 L 461 461 L 461 269 Z M 659 282 L 572 282 L 572 448 L 659 448 L 659 282 Z M 158 282 L 71 282 L 71 448 L 158 448 L 158 282 Z M 448 0 L 282 0 L 282 86 L 448 86 L 448 0 Z" unicode="" />
<glyph horiz-adv-x="685" d="M 403 442 L 259 442 L 259 0 L 103 0 L 103 442 L 6 442 L 6 567 L 103 567 L 103 595 C 103 631 108 663 120 689 C 132 715 147 736 166 753 C 185 769 207 781 233 789 C 258 797 284 801 311 801 C 318 801 327 800 337 799 C 347 797 358 796 368 794 C 378 792 388 789 397 787 C 406 785 413 782 418 780 L 378 657 C 372 659 365 662 355 666 C 345 669 336 671 328 671 C 314 671 298 666 282 658 C 266 649 258 631 258 605 L 258 567 L 403 567 L 403 442 Z M 610 0 L 454 0 L 454 567 L 610 567 L 610 0 Z" unicode="ﬁ" />
<glyph horiz-adv-x="709" d="M 403 442 L 259 442 L 259 0 L 103 0 L 103 442 L 6 442 L 6 567 L 103 567 L 103 595 C 103 631 108 663 120 689 C 132 715 147 736 166 753 C 185 769 207 781 233 789 C 258 797 284 801 311 801 C 318 801 327 800 337 799 C 347 797 358 796 368 794 C 378 792 388 789 397 787 C 406 785 413 782 418 780 L 378 657 C 372 659 365 662 355 666 C 345 669 336 671 328 671 C 314 671 298 666 282 658 C 266 649 258 631 258 605 L 258 567 L 403 567 L 403 442 Z M 443 148 L 443 800 L 593 800 L 593 182 C 593 161 598 145 610 135 C 622 124 637 119 657 119 C 665 119 673 119 681 120 C 689 120 696 121 700 123 L 701 -1 C 697 -1 688 -2 674 -4 C 660 -5 646 -6 632 -6 C 610 -6 587 -3 565 1 C 542 6 522 15 504 27 C 486 39 471 54 460 74 C 448 94 443 118 443 148 Z" unicode="ﬂ" />
</font>
</defs>
</svg>
