<?xml version="1.0" encoding="utf-8" ?><svg version="1.1" xmlns = 'http://www.w3.org/2000/svg'><defs><font id='web' horiz-adv-x="1000">
<font-face font-family="web" descent="-200" cap-height="730" units-per-em="1000" bbox="-191,-328,974,1034" x-height="552" ascent="800" />
<missing-glyph horiz-adv-x="500" d="" /><glyph horiz-adv-x="184" d="" unicode=" " />
<glyph horiz-adv-x="259" d="M 195 424 L 154 216 L 103 216 L 63 424 L 63 730 L 195 730 L 195 424 Z M 189 0 L 70 0 L 70 127 L 189 127 L 189 0 Z" unicode="!" />
<glyph horiz-adv-x="364" d="M 321 624 L 313 479 L 219 479 L 214 623 L 214 730 L 321 730 L 321 624 Z M 150 623 L 145 479 L 48 479 L 43 623 L 43 730 L 150 730 L 150 623 Z" unicode="&#x22;" />
<glyph horiz-adv-x="553" d="M 504 203 L 400 203 L 382 0 L 307 1 L 325 203 L 200 203 L 182 0 L 107 1 L 125 203 L 31 203 L 31 308 L 134 308 L 144 419 L 48 419 L 48 524 L 153 524 L 171 730 L 246 729 L 228 524 L 353 524 L 371 730 L 446 729 L 428 524 L 522 524 L 522 419 L 419 419 L 409 308 L 504 308 L 504 203 Z M 209 308 L 334 308 L 344 419 L 219 419 L 209 308 Z" unicode="#" />
<glyph horiz-adv-x="467" d="M 435 190 C 435 162 430 137 421 115 C 412 93 400 74 385 58 C 370 42 352 30 332 20 C 312 10 291 3 269 0 L 269 -131 L 202 -131 L 202 -2 C 165 0 131 8 101 22 C 70 35 42 57 17 87 L 78 169 C 93 145 113 126 139 114 C 164 102 188 96 212 96 C 224 96 237 97 251 101 C 264 105 276 111 286 119 C 296 127 305 137 312 150 C 318 162 322 177 322 195 C 322 223 312 247 294 266 C 276 284 243 307 197 334 C 151 360 113 389 84 421 C 54 453 40 498 40 555 C 40 603 55 642 86 674 C 117 705 156 724 202 731 L 202 793 L 269 793 L 269 732 C 303 728 332 720 356 708 C 380 696 401 681 419 663 L 356 586 C 341 601 324 613 304 622 C 284 630 264 635 246 635 C 223 635 202 626 183 610 C 163 594 154 572 154 545 C 154 519 162 497 178 479 C 193 461 226 439 276 413 C 332 382 373 351 398 319 C 422 287 435 244 435 190 Z" unicode="$" />
<glyph horiz-adv-x="698" d="M 171 363 C 154 363 137 366 120 374 C 103 382 88 393 75 409 C 61 425 50 444 42 468 C 34 492 30 519 30 551 C 30 604 43 649 70 685 C 97 721 130 740 169 740 C 190 740 210 735 228 725 C 246 715 261 701 274 685 C 286 668 296 648 304 626 C 311 603 315 579 315 554 C 315 527 311 502 303 479 C 295 455 285 435 272 418 C 259 400 244 387 226 377 C 208 367 190 363 171 363 Z M 173 0 L 89 0 L 506 730 L 588 730 L 173 0 Z M 171 450 C 193 450 208 460 215 480 C 222 500 226 524 226 551 C 226 575 222 598 215 619 C 207 640 193 651 173 651 C 152 651 138 640 130 620 C 122 600 119 577 119 551 C 119 525 122 502 129 481 C 136 460 150 450 171 450 Z M 522 -3 C 504 -3 487 0 470 8 C 452 16 437 27 424 43 C 410 59 399 78 391 102 C 383 126 379 153 379 185 C 379 238 392 283 420 319 C 447 355 482 374 524 374 C 546 374 565 369 583 359 C 601 349 616 335 629 319 C 641 302 651 282 658 260 C 664 237 668 213 668 188 C 668 161 664 136 657 113 C 649 89 639 69 627 52 C 614 34 599 21 581 11 C 563 1 543 -3 522 -3 Z M 522 85 C 543 85 558 95 566 115 C 574 135 579 158 579 185 C 579 211 574 235 566 256 C 558 276 543 287 523 287 C 504 287 490 276 481 256 C 472 235 468 211 468 185 C 468 158 472 135 480 115 C 488 95 502 85 522 85 Z" unicode="%" />
<glyph horiz-adv-x="636" d="M 556 -5 L 487 70 C 456 44 422 24 385 11 C 347 -1 306 -8 260 -8 C 184 -8 126 9 85 44 C 43 78 23 126 23 188 C 23 247 37 293 66 325 C 95 357 131 385 173 409 C 157 426 140 449 122 478 C 104 506 95 540 95 579 C 95 599 98 618 106 637 C 113 656 124 673 139 688 C 153 702 172 714 194 723 C 216 732 241 737 271 737 C 326 737 371 722 406 694 C 440 665 458 631 458 591 C 458 551 447 515 425 483 C 403 451 373 422 334 394 L 487 232 C 495 244 502 256 510 270 C 518 284 526 298 534 314 L 624 250 C 614 231 603 214 593 198 C 583 182 572 166 562 152 L 636 74 L 556 -5 Z M 262 470 L 268 463 C 296 481 316 498 328 514 C 339 530 345 546 345 564 C 345 582 339 598 328 613 C 316 628 299 636 277 636 C 255 636 239 627 228 610 C 217 593 212 576 212 560 C 212 544 216 529 224 516 C 232 503 245 488 262 470 Z M 154 205 C 154 174 166 148 192 127 C 217 106 246 96 279 96 C 304 96 328 100 350 109 C 372 117 394 130 415 147 L 241 335 C 215 318 194 299 178 279 C 162 259 154 234 154 205 Z" unicode="&#x26;" />
<glyph horiz-adv-x="196" d="M 154 621 L 149 473 L 47 473 L 42 621 L 42 730 L 154 730 L 154 621 Z" unicode="'" />
<glyph horiz-adv-x="298" d="M 280 -78 L 280 -179 C 247 -164 215 -143 184 -115 C 152 -87 124 -53 100 -14 C 76 25 56 70 41 122 C 26 174 19 231 19 293 C 19 351 25 405 39 455 C 52 505 70 549 94 587 C 117 625 145 658 177 686 C 209 713 243 734 280 749 L 280 651 C 235 624 200 581 176 523 C 152 464 139 387 139 293 C 139 207 150 132 172 69 C 194 6 230 -42 280 -78 Z" unicode="(" />
<glyph horiz-adv-x="298" d="M 19 650 L 19 749 C 54 735 87 715 119 689 C 151 662 178 629 202 590 C 225 551 244 506 258 455 C 272 404 279 348 279 286 C 279 227 271 173 257 123 C 243 73 224 28 200 -11 C 176 -50 148 -84 117 -112 C 85 -140 53 -163 19 -179 L 19 -76 C 67 -42 102 5 125 67 C 148 128 160 201 160 286 C 160 381 148 459 124 519 C 100 579 65 622 19 650 Z" unicode=")" />
<glyph horiz-adv-x="376" d="M 361 574 L 237 551 L 329 472 L 250 408 L 190 517 L 132 410 L 48 471 L 143 552 L 19 570 L 65 675 L 161 608 L 136 730 L 244 730 L 219 608 L 319 668 L 361 574 Z" unicode="*" />
<glyph horiz-adv-x="462" d="M 442 285 L 280 285 L 280 125 L 183 125 L 183 285 L 21 285 L 21 379 L 183 379 L 183 537 L 280 537 L 280 379 L 442 379 L 442 285 Z" unicode="+" />
<glyph horiz-adv-x="226" d="M 197 113 C 197 90 193 65 186 39 C 179 13 171 -12 161 -36 C 151 -60 140 -81 128 -101 C 116 -121 105 -135 95 -145 L 4 -105 C 11 -95 18 -83 26 -67 C 34 -51 41 -33 48 -14 C 54 5 60 26 65 48 C 69 70 72 91 73 113 L 197 113 Z" unicode="," />
<glyph horiz-adv-x="317" d="M 287 218 L 31 218 L 31 326 L 287 326 L 287 218 Z" unicode="-" />
<glyph horiz-adv-x="228" d="M 175 0 L 53 0 L 53 140 L 175 140 L 175 0 Z" unicode="." />
<glyph horiz-adv-x="316" d="M 317 730 L 109 0 L -1 0 L 209 730 L 317 730 Z" unicode="/" />
<glyph horiz-adv-x="449" d="M 222 -7 C 194 -7 167 0 143 11 C 119 23 98 44 80 72 C 62 100 49 138 39 186 C 29 233 24 291 24 361 C 24 477 40 569 73 637 C 105 704 156 738 226 738 C 297 738 348 705 379 640 C 409 574 425 485 425 372 C 425 247 408 153 374 89 C 340 25 289 -7 222 -7 Z M 223 91 C 252 91 273 111 286 151 C 298 191 305 261 305 362 C 305 459 299 529 289 573 C 278 616 257 638 225 638 C 194 638 173 617 161 577 C 149 536 143 465 143 364 C 143 311 144 267 148 232 C 151 196 156 168 163 148 C 170 127 179 112 189 104 C 199 95 210 91 223 91 Z" unicode="0" />
<glyph horiz-adv-x="306" d="M 254 0 L 130 0 L 130 560 C 118 540 101 523 81 508 C 60 492 41 484 24 482 L 24 606 C 34 606 45 611 57 619 C 69 627 81 638 93 650 C 105 662 116 676 126 690 C 136 704 143 719 148 733 L 254 733 L 254 0 Z" unicode="1" />
<glyph horiz-adv-x="434" d="M 408 0 L 17 0 L 17 22 L 227 349 C 246 380 261 411 272 443 C 283 475 289 509 289 546 C 289 576 282 598 269 613 C 256 628 237 636 213 636 C 184 636 163 626 151 606 C 139 586 133 557 133 520 L 23 520 C 23 593 39 647 73 683 C 107 719 152 737 210 737 C 266 737 312 721 348 690 C 384 659 403 616 403 562 C 403 504 396 457 384 422 C 371 386 355 354 337 324 L 199 110 L 408 110 L 408 0 Z" unicode="2" />
<glyph horiz-adv-x="432" d="M 186 -7 C 137 -7 96 -1 64 11 C 32 23 6 36 -12 51 L 32 140 C 46 127 66 115 90 105 C 114 95 142 90 176 90 C 214 90 244 102 266 128 C 288 153 300 186 300 227 C 300 247 296 265 289 280 C 282 295 273 307 262 317 C 251 327 238 334 224 338 C 210 342 196 345 182 345 L 111 345 L 111 445 L 183 445 C 211 445 233 453 251 471 C 269 488 278 513 278 546 C 278 574 270 596 254 614 C 238 631 214 640 183 640 C 156 640 132 634 112 623 C 91 612 73 598 59 582 L -1 652 C 15 671 41 690 75 709 C 109 728 153 738 208 738 C 262 738 306 723 340 693 C 373 663 390 622 390 571 C 390 526 378 489 354 459 C 330 429 302 409 270 401 C 287 397 304 391 322 381 C 339 371 354 359 368 344 C 381 329 392 311 400 290 C 408 269 413 246 413 221 C 413 194 409 167 401 140 C 393 113 380 89 362 67 C 344 45 320 28 291 14 C 262 0 227 -7 186 -7 Z" unicode="3" />
<glyph horiz-adv-x="429" d="M 427 176 L 362 176 L 362 0 L 258 0 L 258 176 L 1 176 L 1 253 L 286 736 L 362 736 L 362 279 L 427 279 L 427 176 Z M 260 268 L 260 529 L 112 268 L 260 268 Z" unicode="4" />
<glyph horiz-adv-x="422" d="M 208 -7 C 164 -7 123 1 85 17 C 47 33 19 52 -1 75 L 56 164 C 70 149 87 134 108 119 C 129 103 155 96 185 96 C 219 96 246 109 264 136 C 282 162 292 199 292 246 C 292 288 284 320 268 342 C 252 364 231 376 205 376 C 176 376 155 370 141 358 C 127 346 117 331 110 313 L 28 337 L 57 730 L 375 730 L 375 620 L 143 620 L 127 418 C 133 430 145 442 162 455 C 179 467 206 474 243 474 C 291 474 331 456 363 421 C 394 385 410 330 410 255 C 410 210 404 171 393 138 C 381 105 366 78 348 57 C 329 35 307 19 283 9 C 259 -1 234 -7 208 -7 Z" unicode="5" />
<glyph horiz-adv-x="433" d="M 227 -9 C 201 -9 175 -4 151 6 C 126 16 104 30 85 50 C 65 69 50 93 38 123 C 26 153 21 187 21 226 C 21 294 35 361 64 427 C 92 493 134 565 190 642 L 265 747 L 353 692 L 314 633 C 294 602 274 573 254 546 C 234 518 215 493 199 469 C 183 445 169 424 157 405 C 145 386 137 370 133 356 C 145 380 163 400 187 416 C 210 432 235 440 262 440 C 308 440 346 419 375 378 C 404 337 419 285 419 221 C 419 153 400 98 364 55 C 327 12 281 -9 227 -9 Z M 224 90 C 248 90 268 100 282 121 C 296 142 304 174 304 216 C 304 262 296 294 281 314 C 266 333 247 343 225 343 C 201 343 181 333 165 313 C 149 293 141 262 141 221 C 141 173 149 139 165 119 C 181 99 201 90 224 90 Z" unicode="6" />
<glyph horiz-adv-x="367" d="M 371 730 L 371 667 L 126 -7 L 18 33 L 249 620 L 11 620 L 11 730 L 371 730 Z" unicode="7" />
<glyph horiz-adv-x="442" d="M 310 393 C 322 389 336 383 350 375 C 364 366 376 354 388 339 C 400 324 409 306 417 284 C 424 262 428 236 428 206 C 428 140 409 88 372 50 C 335 12 285 -7 223 -7 C 159 -7 108 11 71 48 C 33 85 15 136 15 200 C 15 231 19 258 27 282 C 35 305 46 324 58 340 C 70 356 82 368 96 377 C 110 386 122 392 134 396 C 111 404 89 421 68 446 C 46 470 36 508 36 559 C 36 587 40 613 50 635 C 60 657 73 675 90 690 C 106 705 126 717 149 725 C 171 733 195 737 221 737 C 276 737 321 721 355 689 C 389 657 406 616 406 566 C 406 540 403 518 397 499 C 391 479 383 463 374 449 C 364 435 354 423 343 414 C 331 405 320 398 310 393 Z M 222 423 C 244 423 263 431 278 447 C 293 463 301 491 301 531 C 301 567 293 594 278 613 C 263 631 244 641 222 641 C 198 641 179 632 163 615 C 147 597 140 569 140 531 C 140 487 149 458 167 444 C 185 430 203 423 222 423 Z M 223 89 C 249 89 269 98 285 117 C 301 135 309 167 309 211 C 309 252 300 282 283 300 C 265 318 245 327 223 327 C 197 327 176 318 159 301 C 141 283 133 253 133 209 C 133 168 142 138 160 118 C 178 98 199 89 223 89 Z" unicode="8" />
<glyph horiz-adv-x="430" d="M 179 -13 L 91 47 L 122 90 C 138 112 155 136 174 163 C 192 189 210 216 227 242 C 244 268 260 294 274 318 C 288 342 298 362 305 378 C 292 356 273 337 247 322 C 221 306 195 299 169 299 C 122 299 84 319 56 360 C 28 400 14 453 14 517 C 14 549 19 579 29 607 C 39 634 53 657 71 676 C 89 695 109 710 133 721 C 157 731 182 737 210 737 C 236 737 261 732 285 723 C 309 713 330 699 348 681 C 366 662 381 638 392 609 C 403 580 409 547 409 509 C 409 466 404 425 395 386 C 385 346 373 309 357 273 C 341 237 323 202 303 169 C 283 136 262 104 241 74 L 179 -13 Z M 206 399 C 226 399 245 406 263 422 C 281 438 290 467 290 511 C 290 558 282 591 266 609 C 250 627 230 636 208 636 C 183 636 163 626 149 607 C 135 587 128 558 128 518 C 128 472 134 441 148 424 C 162 407 181 399 206 399 Z" unicode="9" />
<glyph horiz-adv-x="222" d="M 172 418 L 50 418 L 50 552 L 172 552 L 172 418 Z M 172 0 L 50 0 L 50 135 L 172 135 L 172 0 Z" unicode=":" />
<glyph horiz-adv-x="224" d="M 179 418 L 59 418 L 59 552 L 179 552 L 179 418 Z M 181 108 C 180 82 176 57 170 31 C 164 5 156 -19 147 -42 C 137 -64 127 -85 116 -103 C 105 -121 94 -135 84 -145 L -7 -105 C 0 -95 8 -83 17 -68 C 25 -52 33 -35 40 -16 C 47 2 53 22 57 44 C 61 65 63 86 63 108 L 181 108 Z" unicode=";" />
<glyph horiz-adv-x="398" d="M 351 102 L 29 284 L 29 366 L 351 545 L 351 436 L 143 325 L 351 215 L 351 102 Z" unicode="&#x3C;" />
<glyph horiz-adv-x="471" d="M 420 382 L 51 382 L 51 486 L 420 486 L 420 382 Z M 420 163 L 51 163 L 51 267 L 420 267 L 420 163 Z" unicode="=" />
<glyph horiz-adv-x="398" d="M 362 284 L 40 102 L 40 213 L 243 325 L 40 436 L 40 545 L 362 366 L 362 284 Z" unicode="&#x3E;" />
<glyph horiz-adv-x="433" d="M 146 218 C 146 254 151 286 163 314 C 174 342 190 369 212 396 C 228 417 244 440 260 464 C 275 488 283 515 283 547 C 283 573 274 594 258 609 C 241 623 220 631 196 631 C 172 631 152 624 135 612 C 117 600 102 584 88 566 L 17 640 C 41 674 72 700 108 717 C 144 733 181 742 219 742 C 281 742 329 725 361 692 C 393 659 409 616 409 563 C 409 513 397 470 375 436 C 353 402 329 369 305 338 C 289 321 278 301 272 279 C 265 257 261 236 261 218 L 146 218 Z M 140 0 L 140 133 L 271 133 L 271 0 L 140 0 Z" unicode="?" />
<glyph horiz-adv-x="786" d="M 389 -53 C 333 -53 283 -43 239 -23 C 194 -3 156 23 125 57 C 93 91 69 131 52 177 C 35 223 27 272 27 324 C 27 376 35 425 53 471 C 71 517 96 556 128 590 C 160 624 198 651 244 671 C 289 691 339 701 394 701 C 450 701 500 692 546 676 C 592 659 630 636 662 606 C 693 576 717 539 734 496 C 751 453 760 406 760 354 C 760 311 755 274 745 243 C 735 212 723 187 707 167 C 691 147 674 133 654 124 C 634 114 614 110 595 110 C 567 110 544 116 527 129 C 509 142 498 159 494 181 C 482 165 464 150 440 134 C 416 118 384 110 346 110 C 300 110 265 122 239 146 C 213 170 201 203 201 247 C 201 271 206 292 217 310 C 227 328 241 342 259 354 C 277 366 297 374 321 380 C 344 386 368 389 393 389 L 470 389 L 470 402 C 470 426 462 443 448 455 C 433 467 412 473 386 473 C 363 473 342 470 322 464 C 302 458 287 453 275 449 L 245 518 C 264 527 286 535 311 541 C 335 547 363 550 395 550 C 447 550 487 537 515 511 C 543 485 557 441 557 381 L 557 235 C 557 222 561 211 570 203 C 579 194 591 190 607 190 C 627 190 646 200 662 222 C 678 243 686 286 686 350 C 686 392 679 430 666 465 C 652 499 633 529 608 553 C 583 577 552 596 516 610 C 480 624 439 631 394 631 C 349 631 308 623 272 607 C 236 591 205 569 180 541 C 154 513 135 481 121 443 C 107 405 100 365 100 323 C 100 281 106 241 120 203 C 134 165 153 132 178 104 C 203 76 234 53 270 37 C 306 20 346 12 391 12 C 410 12 428 13 446 17 C 464 21 484 28 508 40 L 534 -20 C 506 -32 481 -41 459 -46 C 437 -50 413 -53 389 -53 Z M 375 187 C 397 187 418 192 436 203 C 454 213 465 224 470 236 L 470 325 L 396 325 C 365 325 341 319 323 307 C 305 295 297 277 297 255 C 297 233 303 216 317 204 C 330 192 349 187 375 187 Z" unicode="@" />
<glyph horiz-adv-x="493" d="M 494 0 L 371 0 L 330 155 L 157 155 L 118 0 L -1 0 L 201 734 L 292 734 L 494 0 Z M 315 248 L 242 523 L 172 248 L 315 248 Z" unicode="A" />
<glyph horiz-adv-x="468" d="M 51 0 L 51 730 L 251 730 C 301 730 342 714 375 684 C 408 653 425 611 425 557 C 425 505 412 465 386 437 C 360 409 331 392 299 386 C 316 384 334 379 353 371 C 371 363 388 351 403 337 C 417 322 429 304 439 282 C 449 260 454 235 454 207 C 454 144 435 94 399 56 C 363 18 318 0 264 0 L 51 0 Z M 175 419 L 223 419 C 254 419 276 430 289 454 C 301 477 308 503 308 531 C 308 563 301 587 287 605 C 273 622 249 631 216 631 L 175 631 L 175 419 Z M 175 98 L 237 98 C 270 98 294 108 309 130 C 323 152 331 179 331 211 C 331 251 321 279 302 297 C 283 314 257 323 225 323 L 175 323 L 175 98 Z" unicode="B" />
<glyph horiz-adv-x="532" d="M 281 -7 C 205 -7 144 24 98 86 C 52 148 29 241 29 366 C 29 482 50 572 93 638 C 135 704 198 737 282 737 C 346 737 394 720 427 687 C 460 653 483 611 495 559 L 381 526 C 372 555 361 579 347 599 C 333 619 311 629 283 629 C 263 629 246 624 230 616 C 214 607 201 592 191 572 C 180 551 172 523 166 489 C 160 455 158 412 158 362 C 158 310 161 268 169 234 C 177 200 187 173 199 153 C 211 133 226 120 242 112 C 258 104 274 100 291 100 C 323 100 348 110 364 130 C 380 150 392 177 402 210 L 505 169 C 487 112 460 68 422 38 C 384 8 337 -7 281 -7 Z" unicode="C" />
<glyph horiz-adv-x="545" d="M 51 0 L 51 730 L 227 730 C 273 730 315 721 351 703 C 387 685 418 660 442 628 C 466 596 484 557 497 511 C 509 465 516 415 516 361 C 516 310 510 263 498 219 C 486 175 467 136 443 104 C 418 72 387 46 350 28 C 312 9 269 0 219 0 L 51 0 Z M 179 107 L 225 107 C 283 107 324 129 348 173 C 372 217 384 280 384 360 C 384 453 370 520 343 561 C 316 602 279 623 231 623 L 179 623 L 179 107 Z" unicode="D" />
<glyph horiz-adv-x="404" d="M 394 0 L 51 0 L 51 730 L 375 730 L 375 619 L 177 619 L 177 419 L 366 419 L 366 310 L 177 310 L 177 111 L 394 111 L 394 0 Z" unicode="E" />
<glyph horiz-adv-x="366" d="M 360 619 L 182 619 L 182 421 L 348 421 L 348 312 L 182 312 L 182 0 L 51 0 L 51 730 L 360 730 L 360 619 Z" unicode="F" />
<glyph horiz-adv-x="537" d="M 277 375 L 506 375 L 506 117 C 488 81 461 51 423 28 C 385 4 338 -7 281 -7 C 246 -7 213 1 183 17 C 152 33 125 57 103 89 C 80 120 62 159 49 205 C 35 251 29 305 29 365 C 29 421 34 473 46 519 C 58 565 74 604 96 636 C 118 668 144 692 176 710 C 207 727 242 736 281 736 C 341 736 387 722 419 696 C 451 669 475 634 490 592 L 386 537 C 377 562 365 583 349 601 C 333 618 313 627 289 627 C 249 627 217 606 194 565 C 170 524 159 456 159 361 C 159 263 171 194 196 154 C 220 114 250 94 284 94 C 310 94 333 98 351 106 C 369 114 383 128 392 148 L 392 273 L 277 273 L 277 375 Z" unicode="G" />
<glyph horiz-adv-x="538" d="M 487 0 L 357 0 L 357 308 L 181 308 L 181 0 L 51 0 L 51 730 L 181 730 L 181 414 L 357 414 L 357 730 L 487 730 L 487 0 Z" unicode="H" />
<glyph horiz-adv-x="239" d="M 186 0 L 55 0 L 55 730 L 186 730 L 186 0 Z" unicode="I" />
<glyph horiz-adv-x="302" d="M 253 730 L 253 182 C 253 126 237 80 205 45 C 173 9 130 -8 74 -8 C 60 -8 44 -6 27 -3 C 9 0 -4 5 -16 12 L 10 116 C 14 113 20 111 28 110 C 36 108 45 108 54 108 C 76 108 93 117 105 137 C 117 156 123 180 123 209 L 123 730 L 253 730 Z" unicode="J" />
<glyph horiz-adv-x="516" d="M 526 0 L 383 0 L 207 289 L 182 257 L 182 0 L 51 0 L 51 730 L 182 730 L 182 434 L 374 730 L 507 730 L 284 404 L 526 0 Z" unicode="K" />
<glyph horiz-adv-x="365" d="M 358 0 L 51 0 L 51 730 L 181 730 L 181 111 L 358 111 L 358 0 Z" unicode="L" />
<glyph horiz-adv-x="651" d="M 601 0 L 478 0 L 478 461 L 355 160 L 299 160 L 172 461 L 172 0 L 51 0 L 51 730 L 170 730 L 328 342 L 490 730 L 601 730 L 601 0 Z" unicode="M" />
<glyph horiz-adv-x="534" d="M 483 0 L 392 0 L 172 434 L 172 0 L 51 0 L 51 730 L 142 730 L 366 293 L 366 730 L 483 730 L 483 0 Z" unicode="N" />
<glyph horiz-adv-x="568" d="M 287 -7 C 201 -7 137 25 94 91 C 50 156 29 249 29 371 C 29 485 51 574 96 639 C 140 704 202 737 281 737 C 365 737 429 705 473 641 C 517 577 539 485 539 365 C 539 249 516 158 470 92 C 424 26 363 -7 287 -7 Z M 284 95 C 324 95 354 116 375 160 C 395 203 406 274 406 372 C 406 463 395 530 374 572 C 352 614 322 635 283 635 C 241 635 211 614 192 572 C 172 530 163 461 163 365 C 163 267 173 198 194 157 C 215 115 245 95 284 95 Z" unicode="O" />
<glyph horiz-adv-x="463" d="M 51 0 L 51 730 L 256 730 C 282 730 307 725 331 715 C 354 705 374 690 392 672 C 409 654 423 632 433 606 C 443 580 448 550 448 518 C 448 452 429 398 393 357 C 357 316 311 296 256 296 L 181 296 L 181 0 L 51 0 Z M 180 398 L 229 398 C 260 398 283 407 299 427 C 314 446 322 476 322 518 C 322 555 313 582 295 600 C 277 618 255 627 228 627 L 180 627 L 180 398 Z" unicode="P" />
<glyph horiz-adv-x="568" d="M 511 -40 L 511 -160 C 469 -153 428 -136 388 -109 C 348 -81 314 -46 288 -4 L 287 -4 C 204 -4 140 28 96 92 C 51 156 29 249 29 371 C 29 485 51 574 97 639 C 142 704 203 737 281 737 C 364 737 428 705 472 641 C 516 577 539 485 539 365 C 539 281 526 211 501 153 C 476 95 442 52 399 26 C 418 5 438 -10 460 -20 C 481 -30 498 -37 511 -40 Z M 161 364 C 161 286 168 226 182 184 C 196 141 217 114 245 102 C 241 116 239 131 237 146 C 235 161 235 177 235 194 L 334 194 C 334 180 336 166 338 154 C 340 141 343 129 347 119 C 367 137 382 167 392 209 C 402 251 408 304 408 370 C 408 467 396 535 373 575 C 349 614 319 634 283 634 C 242 634 211 613 191 573 C 171 533 161 463 161 364 Z" unicode="Q" />
<glyph horiz-adv-x="475" d="M 51 0 L 51 730 L 233 730 C 289 730 335 713 371 680 C 407 646 426 595 426 526 C 426 474 415 430 394 395 C 372 359 345 338 313 332 L 311 326 L 477 0 L 347 0 L 205 291 L 170 291 L 170 0 L 51 0 Z M 170 396 L 216 396 C 242 396 264 406 282 427 C 299 447 308 476 308 512 C 308 552 299 582 281 600 C 263 618 243 628 220 628 L 170 628 L 170 396 Z" unicode="R" />
<glyph horiz-adv-x="427" d="M 213 -7 C 171 -7 134 0 102 12 C 69 24 39 48 11 82 L 90 156 C 102 135 119 119 141 107 C 163 95 184 90 204 90 C 227 90 248 98 266 114 C 284 130 293 154 293 184 C 293 214 284 239 267 257 C 250 275 220 299 176 327 C 134 353 99 384 73 419 C 46 453 33 500 33 558 C 33 585 38 610 48 632 C 58 654 72 673 89 689 C 106 704 126 716 150 724 C 173 732 197 737 223 737 C 265 737 299 729 327 715 C 355 701 376 685 391 668 L 318 592 C 307 603 294 613 278 621 C 262 629 245 633 227 633 C 207 633 189 626 173 612 C 156 598 148 578 148 552 C 148 527 156 506 170 489 C 184 472 214 450 260 422 C 312 390 350 357 372 322 C 394 286 405 242 405 188 C 405 155 399 126 388 102 C 377 78 363 57 345 41 C 327 25 307 13 284 5 C 260 -3 237 -7 213 -7 Z" unicode="S" />
<glyph horiz-adv-x="387" d="M 382 619 L 259 619 L 259 0 L 129 0 L 129 619 L 5 619 L 5 730 L 382 730 L 382 619 Z" unicode="T" />
<glyph horiz-adv-x="538" d="M 491 730 L 491 224 C 491 182 484 147 471 118 C 458 88 441 64 420 46 C 399 28 375 14 347 6 C 319 -2 290 -7 261 -7 C 232 -7 205 -3 179 5 C 153 13 131 26 112 44 C 92 62 77 85 65 115 C 53 145 48 181 48 224 L 48 730 L 177 730 L 177 219 C 177 177 185 147 201 130 C 217 113 239 105 265 105 C 291 105 312 113 329 129 C 346 145 355 175 355 219 L 355 730 L 491 730 Z" unicode="U" />
<glyph horiz-adv-x="466" d="M 467 730 L 279 -4 L 185 -4 L -1 730 L 123 730 L 235 223 L 348 730 L 467 730 Z" unicode="V" />
<glyph horiz-adv-x="698" d="M 682 730 L 534 -3 L 446 -3 L 341 491 L 236 -3 L 148 -3 L 1 730 L 123 730 L 210 234 L 301 730 L 395 730 L 485 237 L 573 730 L 682 730 Z" unicode="W" />
<glyph horiz-adv-x="460" d="M 328 0 L 224 241 L 118 0 L 1 0 L 166 375 L 13 730 L 141 730 L 231 521 L 323 730 L 440 730 L 288 386 L 454 0 L 328 0 Z" unicode="X" />
<glyph horiz-adv-x="472" d="M 479 730 L 298 308 L 298 0 L 168 0 L 168 310 L -7 730 L 137 730 L 241 439 L 357 730 L 479 730 Z" unicode="Y" />
<glyph horiz-adv-x="426" d="M 401 730 L 401 664 L 167 108 L 412 108 L 412 0 L 14 0 L 14 63 L 249 620 L 39 620 L 39 730 L 401 730 Z" unicode="Z" />
<glyph horiz-adv-x="245" d="M 229 -179 L 46 -179 L 46 730 L 229 730 L 229 625 L 161 625 L 161 -74 L 229 -74 L 229 -179 Z" unicode="[" />
<glyph horiz-adv-x="316" d="M -1 730 L 106 730 L 317 0 L 208 0 L -1 730 Z" unicode="\" />
<glyph horiz-adv-x="248" d="M 204 -179 L 21 -179 L 21 -74 L 89 -74 L 89 625 L 21 625 L 21 730 L 204 730 L 204 -179 Z" unicode="]" />
<glyph horiz-adv-x="434" d="M 416 369 L 312 369 L 216 606 L 121 369 L 19 369 L 165 730 L 268 730 L 416 369 Z" unicode="^" />
<glyph horiz-adv-x="424" d="M 424 -167 L 0 -167 L 0 -70 L 424 -70 L 424 -167 Z" unicode="_" />
<glyph horiz-adv-x="500" d="M 360 612 L 246 612 L 134 786 L 271 786 L 360 612 Z" unicode="`" />
<glyph horiz-adv-x="391" d="M 357 0 L 257 0 L 257 47 C 239 27 223 14 207 6 C 191 -1 169 -5 141 -5 C 103 -5 72 10 50 42 C 27 73 16 116 16 170 C 16 230 31 274 62 302 C 93 329 131 344 175 347 L 245 352 L 245 389 C 245 412 239 430 227 442 C 215 454 199 460 177 460 C 155 460 135 456 118 448 C 100 440 87 432 78 424 L 46 517 C 60 527 80 537 106 547 C 132 557 164 562 204 562 C 250 562 287 548 315 522 C 343 496 357 459 357 412 L 357 0 Z M 247 119 L 247 275 L 202 271 C 181 269 164 260 150 244 C 136 228 130 202 130 168 C 130 136 135 114 147 101 C 159 88 171 82 185 82 C 201 82 213 85 223 93 C 232 100 240 109 247 119 Z" unicode="a" />
<glyph horiz-adv-x="428" d="M 256 -4 C 228 -4 204 2 185 16 C 165 29 151 45 142 65 L 142 0 L 36 0 L 36 800 L 149 800 L 149 459 C 155 484 168 506 187 526 C 206 546 232 556 265 556 C 287 556 307 549 325 536 C 343 523 358 505 370 482 C 382 458 392 430 398 397 C 404 364 408 328 408 288 C 408 194 393 122 364 72 C 335 21 299 -4 256 -4 Z M 212 89 C 234 89 251 103 265 131 C 278 159 285 208 285 276 C 285 340 278 385 266 412 C 253 438 236 452 214 452 C 205 452 196 449 188 444 C 180 438 172 429 166 415 C 159 401 154 382 150 358 C 146 334 145 303 145 265 C 145 227 146 197 150 174 C 154 151 159 133 165 121 C 171 108 179 99 187 95 C 195 91 203 89 212 89 Z" unicode="b" />
<glyph horiz-adv-x="366" d="M 304 133 L 356 64 C 342 45 325 29 303 15 C 281 1 253 -5 217 -5 C 185 -5 156 2 131 16 C 106 30 85 50 69 75 C 52 99 39 129 31 163 C 22 197 18 235 18 275 C 18 312 22 348 30 382 C 38 416 51 446 67 472 C 83 498 104 518 129 534 C 154 549 183 557 216 557 C 253 557 284 548 308 531 C 332 514 349 496 360 476 L 289 411 C 281 423 272 434 261 442 C 250 450 237 454 222 454 C 197 454 178 439 164 410 C 150 380 143 338 143 282 C 143 213 152 164 171 136 C 190 108 212 94 237 94 C 253 94 267 98 278 107 C 288 115 297 124 304 133 Z" unicode="c" />
<glyph horiz-adv-x="438" d="M 181 -5 C 156 -5 134 1 114 15 C 94 29 77 48 63 72 C 49 96 38 125 30 159 C 22 193 19 229 19 269 C 19 356 34 425 64 476 C 94 527 133 553 181 553 C 207 553 231 544 251 527 C 271 509 284 488 291 464 L 291 800 L 402 800 L 402 0 L 297 0 L 297 62 C 291 46 277 30 257 16 C 237 2 211 -5 181 -5 Z M 220 89 C 242 89 260 103 273 132 C 286 160 293 209 293 279 C 293 348 285 394 271 417 C 257 440 239 452 219 452 C 196 452 178 439 165 413 C 151 387 145 341 145 275 C 145 206 151 158 164 130 C 177 102 196 89 220 89 Z" unicode="d" />
<glyph horiz-adv-x="406" d="M 208 -5 C 151 -5 105 20 70 70 C 35 120 18 187 18 271 C 18 360 35 430 71 480 C 107 530 151 556 205 556 C 267 556 314 528 345 474 C 376 420 392 344 392 247 L 137 247 C 137 205 145 169 161 139 C 177 109 202 95 235 95 C 257 95 277 101 293 114 C 309 126 322 139 332 151 L 380 88 C 372 78 363 67 352 56 C 341 45 329 35 315 26 C 301 17 285 10 267 4 C 249 -2 229 -5 208 -5 Z M 134 327 L 278 327 C 278 371 271 405 259 427 C 247 449 230 460 210 460 C 188 460 171 449 157 427 C 143 405 135 372 134 327 Z" unicode="e" />
<glyph horiz-adv-x="235" d="M 239 451 L 175 451 L 175 0 L 56 0 L 56 451 L 5 451 L 5 552 L 56 552 L 56 663 C 56 684 60 703 69 721 C 77 738 89 753 103 765 C 117 777 132 786 150 792 C 167 798 184 802 202 802 C 210 802 223 800 239 796 C 255 792 269 786 281 778 L 249 693 C 248 693 245 694 239 696 C 233 697 225 698 216 698 C 201 698 190 693 183 684 C 176 675 173 660 173 639 L 173 552 L 239 552 L 239 451 Z" unicode="f" />
<glyph horiz-adv-x="436" d="M 179 18 C 134 18 96 41 66 88 C 35 135 20 200 20 284 C 20 328 24 367 33 401 C 41 435 53 463 67 486 C 81 509 98 527 118 539 C 138 551 158 557 180 557 C 209 557 233 548 252 532 C 271 516 285 498 294 478 L 294 552 L 400 552 L 400 13 C 400 -23 394 -55 382 -81 C 370 -107 354 -129 335 -146 C 315 -163 293 -176 268 -184 C 243 -192 218 -196 193 -196 C 156 -196 125 -192 100 -185 C 75 -177 56 -169 44 -161 L 80 -73 C 94 -79 108 -83 124 -87 C 140 -91 160 -93 184 -93 C 214 -93 239 -82 259 -62 C 279 -42 289 -12 289 27 L 289 102 C 281 79 267 59 249 43 C 230 26 207 18 179 18 Z M 218 113 C 241 113 259 125 272 151 C 285 176 292 222 292 288 C 292 352 284 395 269 419 C 253 443 236 455 217 455 C 194 455 176 441 163 415 C 150 389 144 346 144 287 C 144 227 150 183 162 155 C 174 127 192 113 218 113 Z" unicode="g" />
<glyph horiz-adv-x="423" d="M 388 0 L 270 0 L 270 402 C 270 420 265 434 255 444 C 245 453 233 458 217 458 C 199 458 184 452 172 442 C 160 431 154 412 154 386 L 154 0 L 36 0 L 36 800 L 147 800 L 147 493 C 153 511 166 527 184 539 C 202 551 228 557 260 557 C 298 557 328 547 352 528 C 376 508 388 476 388 432 L 388 0 Z" unicode="h" />
<glyph horiz-adv-x="194" d="M 36 622 L 36 723 L 158 723 L 158 622 L 36 622 Z M 38 0 L 38 552 L 156 552 L 156 0 L 38 0 Z" unicode="i" />
<glyph horiz-adv-x="198" d="M 162 622 L 40 622 L 40 723 L 162 723 L 162 622 Z M 160 552 L 160 -56 C 160 -88 148 -115 126 -138 C 103 -161 73 -173 35 -173 C 15 -173 -3 -169 -19 -162 C -35 -155 -45 -149 -49 -145 L -16 -69 C -13 -69 -9 -70 -4 -72 C 1 -74 7 -75 14 -75 C 22 -75 29 -72 34 -66 C 39 -60 42 -52 42 -44 L 42 552 L 160 552 Z" unicode="j" />
<glyph horiz-adv-x="399" d="M 409 0 L 284 0 L 189 207 L 154 151 L 154 0 L 36 0 L 36 800 L 147 800 L 147 297 L 278 552 L 400 552 L 267 308 L 409 0 Z" unicode="k" />
<glyph horiz-adv-x="222" d="M 35 125 L 35 800 L 153 800 L 153 144 C 153 127 156 115 162 108 C 168 101 177 98 190 98 C 194 98 197 98 201 99 C 205 99 208 100 210 101 L 227 9 C 219 5 210 1 199 -1 C 187 -3 174 -5 158 -5 C 124 -5 95 6 71 28 C 47 50 35 83 35 125 Z" unicode="l" />
<glyph horiz-adv-x="649" d="M 36 0 L 36 552 L 138 552 L 138 475 C 145 503 161 524 185 538 C 209 551 236 558 266 558 C 296 558 321 551 340 537 C 359 523 370 502 373 474 L 377 474 C 383 500 397 520 419 535 C 440 550 468 558 502 558 C 534 558 560 548 582 530 C 604 511 615 481 615 439 L 615 0 L 498 0 L 498 390 C 498 416 492 435 482 445 C 472 455 458 460 442 460 C 426 460 412 454 400 443 C 388 432 383 411 383 380 L 383 0 L 267 0 L 267 393 C 267 421 261 439 250 447 C 239 455 226 460 212 460 C 197 460 183 454 171 444 C 158 433 152 412 152 382 L 152 0 L 36 0 Z" unicode="m" />
<glyph horiz-adv-x="422" d="M 388 0 L 269 0 L 269 403 C 269 421 264 434 255 444 C 245 453 232 458 216 458 C 199 458 184 452 172 442 C 160 431 154 412 154 386 L 154 0 L 36 0 L 36 552 L 139 552 L 139 483 C 147 503 162 521 183 535 C 204 549 231 557 264 557 C 301 557 331 547 354 529 C 376 511 388 481 388 439 L 388 0 Z" unicode="n" />
<glyph horiz-adv-x="423" d="M 211 -5 C 155 -5 109 18 73 64 C 36 110 18 181 18 275 C 18 362 35 431 70 481 C 104 531 150 557 206 557 C 266 557 314 534 350 489 C 386 443 405 377 405 290 C 405 198 387 125 353 73 C 318 21 271 -5 211 -5 Z M 212 93 C 235 93 252 106 264 133 C 276 160 282 209 282 281 C 282 350 275 397 263 421 C 251 445 233 458 210 458 C 188 458 171 445 159 420 C 147 395 142 349 142 281 C 142 243 143 212 147 188 C 150 163 155 144 161 130 C 167 116 174 106 183 101 C 191 95 201 93 212 93 Z" unicode="o" />
<glyph horiz-adv-x="427" d="M 36 -200 L 36 552 L 137 552 L 137 455 C 143 479 157 502 179 524 C 201 546 228 557 262 557 C 287 557 309 550 328 537 C 346 524 361 506 373 483 C 385 460 393 433 399 401 C 405 369 408 335 408 298 C 408 201 394 126 367 74 C 340 22 303 -4 255 -4 C 229 -4 207 1 188 12 C 169 22 155 36 147 53 L 147 -200 L 36 -200 Z M 209 89 C 231 89 249 102 263 129 C 277 155 284 202 284 269 C 284 331 278 376 266 406 C 254 436 236 451 212 451 C 203 451 194 448 186 443 C 178 438 170 429 164 415 C 157 401 152 382 148 358 C 144 333 143 301 143 262 C 143 226 144 196 148 173 C 151 150 156 132 162 120 C 168 108 175 99 183 95 C 191 91 199 89 209 89 Z" unicode="p" />
<glyph horiz-adv-x="438" d="M 291 -200 L 291 80 C 283 56 268 36 248 20 C 228 4 202 -4 170 -4 C 126 -4 89 20 61 68 C 33 116 19 182 19 267 C 19 367 34 441 66 487 C 98 533 136 557 180 557 C 210 557 236 547 256 528 C 276 509 290 487 299 462 L 299 552 L 402 552 L 402 -200 L 291 -200 Z M 218 89 C 240 89 258 102 272 128 C 285 154 292 203 292 277 C 292 343 285 389 271 415 C 257 441 238 455 215 455 C 193 455 176 441 163 415 C 149 388 143 340 143 271 C 143 213 149 169 163 137 C 176 105 194 89 218 89 Z" unicode="q" />
<glyph horiz-adv-x="315" d="M 321 527 L 283 426 C 273 434 263 440 255 443 C 247 446 237 448 227 448 C 211 448 195 441 179 428 C 162 415 154 389 154 349 L 154 0 L 36 0 L 36 552 L 148 552 L 148 478 C 154 498 166 517 183 533 C 199 549 219 557 242 557 C 260 557 276 553 290 547 C 303 540 313 533 321 527 Z" unicode="r" />
<glyph horiz-adv-x="330" d="M 169 -5 C 135 -5 103 1 75 15 C 46 29 24 47 10 70 L 68 148 C 78 130 91 117 106 108 C 121 98 137 94 153 94 C 167 94 180 98 192 108 C 203 117 209 131 209 150 C 209 170 201 186 186 198 C 170 210 151 224 128 240 C 101 258 78 279 58 305 C 38 330 29 366 29 412 C 29 451 42 485 68 514 C 94 542 127 557 169 557 C 197 557 223 552 246 543 C 269 534 288 523 303 510 L 261 417 C 252 425 240 434 225 443 C 209 451 195 456 181 456 C 166 456 153 452 142 445 C 131 437 126 426 126 412 C 126 395 132 382 146 372 C 160 362 180 347 208 329 C 242 304 268 278 285 251 C 302 224 311 188 311 144 C 311 117 306 94 297 75 C 287 56 276 41 262 29 C 248 17 233 9 216 3 C 199 -2 183 -5 169 -5 Z" unicode="s" />
<glyph horiz-adv-x="249" d="M 227 113 L 251 22 C 244 16 234 10 221 5 C 208 0 190 -3 168 -3 C 153 -3 139 0 125 6 C 111 12 98 20 87 32 C 75 43 66 57 59 74 C 52 90 49 109 49 131 L 49 451 L 3 451 L 3 552 L 53 552 L 53 663 L 164 674 L 164 552 L 234 552 L 234 451 L 168 451 L 168 140 C 168 128 170 120 176 114 C 182 108 189 105 198 105 C 204 105 209 105 214 107 C 219 109 223 111 227 113 Z" unicode="t" />
<glyph horiz-adv-x="423" d="M 34 552 L 153 552 L 153 157 C 153 134 158 117 168 106 C 178 94 192 89 209 89 C 225 89 238 95 250 108 C 262 120 268 143 268 176 L 268 552 L 387 552 L 387 0 L 280 0 L 280 71 C 272 50 256 32 234 17 C 212 1 186 -6 156 -6 C 124 -6 95 5 71 27 C 46 49 34 82 34 126 L 34 552 Z" unicode="u" />
<glyph horiz-adv-x="363" d="M 368 552 L 228 -2 L 135 -2 L -5 552 L 113 552 L 188 214 L 262 552 L 368 552 Z" unicode="v" />
<glyph horiz-adv-x="564" d="M 354 -2 L 285 281 L 210 -2 L 121 -2 L -1 552 L 108 552 L 181 188 L 245 459 L 328 459 L 389 190 L 464 552 L 565 552 L 442 -2 L 354 -2 Z" unicode="w" />
<glyph horiz-adv-x="366" d="M 245 0 L 177 159 L 104 0 L 3 0 L 127 275 L 8 552 L 126 552 L 188 409 L 252 552 L 358 552 L 238 292 L 364 0 L 245 0 Z" unicode="x" />
<glyph horiz-adv-x="366" d="M 371 552 L 201 -91 C 192 -125 175 -151 151 -171 C 126 -190 98 -200 67 -200 C 38 -200 15 -196 -2 -190 C -20 -184 -32 -178 -38 -173 L 3 -90 C 6 -92 13 -95 24 -99 C 34 -103 44 -105 53 -105 C 66 -105 77 -99 87 -89 C 97 -79 104 -64 109 -45 L 130 45 L -5 552 L 115 552 L 189 212 L 263 552 L 371 552 Z" unicode="y" />
<glyph horiz-adv-x="340" d="M 325 552 L 325 502 L 154 99 L 330 99 L 330 0 L 10 0 L 10 39 L 187 451 L 22 451 L 22 552 L 325 552 Z" unicode="z" />
<glyph horiz-adv-x="265" d="M 246 -179 C 216 -179 187 -174 161 -166 C 135 -158 112 -146 93 -132 C 74 -118 59 -101 48 -83 C 37 -64 32 -44 32 -24 C 32 0 34 23 39 44 C 44 65 50 83 57 99 C 63 115 70 129 76 143 C 82 157 86 170 86 183 C 86 197 78 210 64 223 C 50 235 33 242 15 242 L 15 329 C 33 329 50 335 66 349 C 81 363 89 378 89 395 C 89 398 85 407 79 423 C 72 439 65 456 57 475 C 49 493 42 510 38 528 C 34 546 32 563 32 580 C 32 600 37 621 48 641 C 59 661 74 679 93 695 C 112 711 135 724 161 734 C 187 744 215 749 246 749 L 246 660 C 223 660 201 651 181 633 C 161 615 151 593 151 567 C 151 558 152 547 154 534 C 156 521 160 508 167 496 C 175 476 183 457 191 441 C 199 425 203 411 203 400 C 203 374 195 351 180 330 C 165 308 143 293 115 285 C 145 276 167 261 181 239 C 195 217 203 196 203 174 C 203 156 199 140 192 127 C 185 113 178 100 172 87 C 165 73 160 59 156 44 C 152 29 151 15 151 3 C 151 -17 160 -38 179 -59 C 198 -79 220 -90 246 -90 L 246 -179 Z" unicode="{" />
<glyph horiz-adv-x="234" d="M 174 -179 L 60 -179 L 60 730 L 174 730 L 174 -179 Z" unicode="|" />
<glyph horiz-adv-x="265" d="M 19 -179 L 19 -90 C 44 -90 66 -79 85 -59 C 104 -38 114 -17 114 3 C 114 15 112 29 108 44 C 104 59 99 73 93 87 C 86 100 79 113 72 127 C 65 140 62 156 62 174 C 62 196 69 217 83 239 C 97 261 118 276 146 285 C 118 293 97 308 83 330 C 69 351 62 374 62 400 C 62 411 65 425 73 441 C 81 457 89 476 98 496 C 104 508 108 521 110 534 C 112 547 113 558 113 567 C 113 593 103 615 83 633 C 63 651 41 660 19 660 L 19 749 C 49 749 77 744 103 734 C 129 724 151 711 170 695 C 189 679 204 661 215 641 C 226 621 232 600 232 580 C 232 563 230 546 226 528 C 222 510 216 493 208 475 C 200 456 192 439 186 423 C 179 407 176 398 176 395 C 176 378 183 363 199 349 C 214 335 231 329 250 329 L 250 242 C 231 242 214 235 200 223 C 186 210 179 197 179 183 C 179 170 182 157 188 143 C 194 129 201 115 208 99 C 214 83 220 65 225 44 C 230 23 233 0 233 -24 C 233 -44 227 -64 216 -83 C 205 -101 190 -118 171 -132 C 152 -146 129 -158 103 -166 C 77 -174 49 -179 19 -179 Z" unicode="}" />
<glyph horiz-adv-x="457" d="M 340 452 L 434 452 C 432 404 423 363 407 331 C 391 298 364 282 328 282 C 304 282 281 286 261 295 C 241 303 225 313 215 324 C 204 334 194 344 185 352 C 176 360 166 364 156 364 C 145 364 135 356 127 340 C 119 324 115 306 115 285 L 23 285 C 23 335 32 376 50 407 C 68 438 96 454 134 454 C 157 454 179 448 200 438 C 220 427 236 417 247 407 C 258 397 268 389 276 382 C 284 375 293 372 303 372 C 318 372 328 379 333 393 C 337 407 340 426 340 452 Z" unicode="~" />
<glyph horiz-adv-x="259" d="M 70 605 L 189 605 L 189 478 L 70 478 L 70 605 Z M 63 191 L 105 399 L 157 399 L 195 191 L 195 -102 L 63 -102 L 63 191 Z" unicode="¡" />
<glyph horiz-adv-x="363" d="M 358 114 C 348 104 334 93 316 82 C 298 71 274 64 244 61 L 244 -48 L 172 -48 L 172 62 C 122 70 83 95 57 135 C 30 175 17 224 17 281 C 17 307 20 333 27 358 C 33 382 43 404 56 424 C 68 444 84 460 104 474 C 124 487 146 496 172 501 L 172 608 L 244 608 L 244 503 C 270 500 292 494 310 485 C 328 476 342 467 353 457 L 310 370 C 299 378 287 385 274 389 C 260 393 245 396 228 396 C 200 396 179 386 164 366 C 149 346 142 318 142 282 C 142 238 151 206 171 187 C 190 168 213 159 240 159 C 260 159 276 161 288 166 C 300 171 311 178 321 187 L 358 114 Z" unicode="¢" />
<glyph horiz-adv-x="479" d="M 461 92 L 461 0 L 14 0 L 14 72 C 18 76 26 79 37 82 C 48 84 63 88 82 92 C 108 96 130 108 147 127 C 164 146 173 172 173 205 C 173 205 173 206 173 208 C 173 209 173 210 173 211 L 32 211 L 32 293 L 142 293 C 137 301 132 309 128 318 C 124 326 119 335 115 344 L 32 344 L 32 426 L 79 426 C 73 444 68 463 64 483 C 60 503 59 524 59 546 C 59 582 65 612 77 638 C 89 663 104 683 124 699 C 144 714 166 725 191 732 C 216 738 241 742 267 742 C 284 742 302 739 320 734 C 338 729 356 723 372 715 C 388 707 402 699 415 690 C 428 681 438 672 445 664 L 393 576 C 382 586 366 598 346 612 C 326 626 304 633 281 633 C 271 633 260 631 249 627 C 238 623 228 617 219 609 C 210 600 203 589 197 575 C 191 561 188 543 188 523 C 188 506 190 490 194 474 C 198 458 204 442 210 426 L 417 426 L 417 344 L 248 344 C 252 335 255 326 259 318 C 263 310 266 301 269 293 L 417 293 L 417 211 L 280 211 C 277 175 268 148 252 130 C 236 112 222 99 210 92 L 461 92 Z" unicode="£" />
<glyph horiz-adv-x="502" d="M 250 180 C 234 180 218 182 204 186 C 189 190 175 195 163 202 L 99 136 L 45 190 L 105 252 C 94 266 86 281 80 299 C 74 317 71 335 71 354 C 71 372 74 390 80 408 C 86 426 95 442 106 457 L 45 519 L 98 571 L 162 505 C 174 512 188 518 203 522 C 218 526 234 528 250 528 C 266 528 282 526 297 522 C 312 518 326 512 340 505 L 405 572 L 457 518 L 396 455 C 406 441 414 425 420 408 C 426 390 429 372 429 354 C 429 334 425 316 419 298 C 413 280 404 264 394 250 L 454 189 L 402 137 L 338 202 C 325 195 311 190 296 186 C 281 182 266 180 250 180 Z M 250 264 C 276 264 298 272 317 290 C 336 308 346 329 346 354 C 346 378 336 399 317 417 C 298 435 276 444 250 444 C 223 444 200 435 182 417 C 164 399 155 378 155 354 C 155 329 164 308 182 290 C 200 272 223 264 250 264 Z" unicode="¤" />
<glyph horiz-adv-x="472" d="M 439 120 L 300 120 L 300 0 L 170 0 L 170 120 L 34 120 L 34 202 L 170 202 L 170 258 L 34 258 L 34 340 L 161 340 L -1 730 L 124 730 L 238 441 L 357 730 L 474 730 L 310 340 L 439 340 L 439 258 L 300 258 L 300 202 L 439 202 L 439 120 Z" unicode="¥" />
<glyph horiz-adv-x="275" d="M 86 351 L 86 730 L 189 730 L 189 351 L 86 351 Z M 189 200 L 189 -179 L 86 -179 L 86 200 L 189 200 Z" unicode="¦" />
<glyph horiz-adv-x="555" d="M 297 -181 C 247 -181 200 -174 156 -161 C 112 -147 75 -130 44 -108 L 84 -9 C 112 -29 144 -47 180 -61 C 216 -75 249 -83 279 -83 C 305 -83 325 -75 340 -61 C 355 -47 363 -27 363 -2 C 363 21 356 39 344 52 C 331 64 310 77 282 90 L 201 132 C 171 145 146 157 124 169 C 102 180 85 192 71 206 C 57 219 46 234 40 252 C 33 270 30 292 30 318 C 30 348 36 374 50 395 C 63 415 80 433 100 447 C 83 459 71 476 63 496 C 55 516 51 541 51 570 C 51 597 56 621 68 643 C 79 664 95 682 115 697 C 135 711 158 722 186 730 C 214 738 243 742 275 742 C 329 742 373 733 409 717 C 444 701 472 683 493 665 L 435 574 C 410 594 385 611 361 626 C 336 640 307 648 273 648 C 243 648 220 641 202 627 C 184 613 175 594 175 570 C 175 551 182 535 197 522 C 211 509 234 496 265 484 L 368 431 C 417 410 454 387 480 363 C 505 338 518 303 518 258 C 518 229 508 203 488 180 C 468 156 446 142 421 137 C 435 127 451 111 468 88 C 485 64 494 35 494 0 C 494 -28 489 -53 479 -76 C 469 -98 455 -117 437 -133 C 419 -148 398 -160 374 -168 C 350 -176 324 -181 297 -181 Z M 328 191 C 342 193 355 199 366 209 C 377 218 383 233 383 253 C 383 272 376 289 363 304 C 350 319 326 333 290 347 L 196 395 C 183 388 173 380 165 370 C 157 360 154 346 154 328 C 154 306 161 289 175 275 C 189 261 214 246 251 232 L 328 191 Z" unicode="§" />
<glyph horiz-adv-x="500" d="M 378 613 L 282 613 L 282 773 L 378 773 L 378 613 Z M 218 613 L 122 613 L 122 773 L 218 773 L 218 613 Z" unicode="¨" />
<glyph horiz-adv-x="814" d="M 407 18 C 357 18 310 27 266 46 C 222 65 183 91 151 124 C 118 156 92 195 73 239 C 54 283 45 330 45 380 C 45 430 54 477 73 521 C 92 565 118 603 151 636 C 183 668 222 694 266 713 C 310 732 357 742 407 742 C 457 742 504 732 548 713 C 592 694 630 668 663 636 C 695 603 721 565 740 521 C 759 477 769 430 769 380 C 769 330 759 283 740 239 C 721 195 695 156 663 124 C 630 91 592 65 548 46 C 504 27 457 18 407 18 Z M 407 88 C 447 88 484 95 520 111 C 555 126 586 147 612 173 C 638 199 659 230 675 266 C 690 301 698 339 698 379 C 698 419 690 456 675 492 C 659 528 638 559 612 585 C 586 611 555 632 520 648 C 484 664 447 672 407 672 C 367 672 329 664 294 648 C 258 632 227 611 201 585 C 175 559 154 528 139 492 C 123 456 116 419 116 379 C 116 339 123 301 139 266 C 154 230 175 199 201 173 C 227 147 258 126 294 111 C 329 95 367 88 407 88 Z M 572 251 C 557 226 536 205 509 188 C 481 171 447 163 405 163 C 379 163 355 167 332 176 C 309 185 289 198 271 216 C 253 234 239 256 229 283 C 218 309 213 340 213 374 C 213 408 218 439 228 467 C 238 495 251 518 268 537 C 285 556 305 571 328 581 C 351 591 376 596 402 596 C 445 596 480 588 507 572 C 534 556 555 537 570 513 L 497 457 C 487 471 475 483 461 492 C 447 501 428 506 406 506 C 377 506 353 493 334 469 C 314 444 305 413 305 375 C 305 333 315 302 337 280 C 358 258 382 247 408 247 C 428 247 447 252 463 262 C 479 272 493 285 503 301 L 572 251 Z" unicode="©" />
<glyph horiz-adv-x="415" d="M 373 334 L 280 334 L 280 386 C 268 367 251 353 229 343 C 207 333 183 328 157 328 C 119 328 89 339 67 361 C 45 383 34 415 34 455 C 34 497 49 528 81 550 C 112 572 155 584 210 586 L 275 591 L 275 601 C 275 619 269 633 258 642 C 246 650 229 655 205 655 C 185 655 164 651 144 645 C 124 639 105 630 89 618 L 54 684 C 72 700 96 713 126 724 C 156 735 189 741 226 741 C 272 741 308 729 334 707 C 360 684 373 648 373 598 L 373 334 Z M 278 448 L 278 517 L 205 515 C 184 514 166 509 152 499 C 137 489 130 474 130 455 C 130 440 135 428 146 420 C 157 412 171 408 188 408 C 206 408 224 411 240 418 C 256 425 268 435 278 448 Z M 373 208 L 42 208 L 42 294 L 373 294 L 373 208 Z" unicode="ª" />
<glyph horiz-adv-x="459" d="M 221 106 L 26 276 L 26 345 L 221 513 L 221 397 L 130 308 L 221 225 L 221 106 Z M 431 106 L 235 276 L 235 345 L 431 513 L 431 397 L 340 308 L 431 226 L 431 106 Z" unicode="«" />
<glyph horiz-adv-x="462" d="M 430 403 L 430 158 L 334 158 L 334 310 L 29 310 L 29 403 L 430 403 Z" unicode="¬" />
<glyph horiz-adv-x="814" d="M 407 18 C 357 18 310 27 266 46 C 222 65 183 91 151 124 C 118 156 92 195 73 239 C 54 283 45 330 45 380 C 45 430 54 477 73 521 C 92 565 118 603 151 636 C 183 668 222 694 266 713 C 310 732 357 742 407 742 C 457 742 504 732 548 713 C 592 694 630 668 663 636 C 695 603 721 565 740 521 C 759 477 769 430 769 380 C 769 330 759 283 740 239 C 721 195 695 156 663 124 C 630 91 592 65 548 46 C 504 27 457 18 407 18 Z M 407 88 C 447 88 484 95 520 109 C 556 123 587 143 613 169 C 639 195 659 225 675 261 C 690 297 698 336 698 379 C 698 421 690 461 675 497 C 659 533 639 564 613 590 C 587 616 556 636 520 650 C 484 664 447 672 407 672 C 367 672 329 664 293 649 C 257 634 227 614 201 588 C 175 562 154 531 139 495 C 123 459 116 420 116 379 C 116 337 123 299 139 264 C 154 228 175 198 201 172 C 227 146 257 125 293 110 C 329 95 367 88 407 88 Z M 270 174 L 270 597 L 426 597 C 444 597 461 594 479 590 C 496 585 511 578 524 568 C 537 558 548 545 556 530 C 564 515 569 498 569 478 C 569 442 558 414 538 394 C 518 374 496 363 474 360 L 474 356 L 605 174 L 514 174 L 397 336 L 348 336 L 348 174 L 270 174 Z M 347 404 L 424 404 C 438 404 453 408 467 418 C 481 428 489 444 490 466 C 490 488 482 503 467 512 C 452 521 435 526 416 526 L 347 526 L 347 404 Z" unicode="®" />
<glyph horiz-adv-x="500" d="M 379 622 L 121 622 L 121 719 L 379 719 L 379 622 Z" unicode="¯" />
<glyph horiz-adv-x="414" d="M 207 389 C 182 389 159 393 138 403 C 116 412 98 425 82 441 C 66 457 53 475 44 497 C 34 518 30 541 30 566 C 30 590 34 612 44 634 C 53 656 66 674 82 690 C 98 706 116 718 138 728 C 159 737 182 742 207 742 C 231 742 254 737 276 728 C 297 718 316 706 332 690 C 348 674 360 656 370 634 C 379 612 384 590 384 566 C 384 541 379 518 370 497 C 360 475 348 457 332 441 C 316 425 297 412 276 403 C 254 393 231 389 207 389 Z M 207 473 C 232 473 254 482 273 500 C 291 518 301 540 301 566 C 301 591 291 613 273 631 C 254 649 232 659 207 659 C 181 659 159 649 141 631 C 122 613 113 591 113 566 C 113 540 122 518 141 500 C 159 482 181 473 207 473 Z" unicode="°" />
<glyph horiz-adv-x="461" d="M 438 109 L 438 19 L 26 19 L 26 109 L 186 109 L 186 284 L 21 284 L 21 373 L 186 373 L 186 554 L 277 554 L 277 373 L 441 373 L 441 284 L 277 284 L 277 109 L 438 109 Z" unicode="±" />
<glyph horiz-adv-x="348" d="M 316 372 L 24 372 L 24 406 L 180 566 C 186 572 191 579 196 587 C 200 595 203 605 203 617 C 203 627 199 637 192 646 C 184 654 173 659 158 659 C 140 659 127 653 121 642 C 114 631 110 618 110 604 L 20 604 C 20 642 33 675 60 701 C 86 727 123 741 170 741 C 215 741 249 731 272 711 C 294 691 306 666 306 638 C 306 611 301 589 292 572 C 282 554 272 540 262 529 L 187 453 L 316 453 L 316 372 Z" unicode="²" />
<glyph horiz-adv-x="346" d="M 230 569 C 256 564 276 553 292 537 C 307 520 315 500 315 477 C 315 465 312 452 308 439 C 303 426 295 414 283 403 C 271 391 256 382 236 375 C 216 367 191 364 161 364 C 117 364 84 369 60 379 C 36 389 18 400 6 410 L 57 464 C 67 457 80 451 95 445 C 110 439 129 437 151 437 C 178 437 197 442 208 452 C 219 462 225 474 225 490 C 225 506 217 516 203 521 C 189 525 172 528 152 528 L 81 528 L 81 598 L 146 598 C 164 598 178 600 190 606 C 201 612 207 621 207 633 C 207 643 202 651 193 657 C 183 663 170 666 152 666 C 135 666 119 662 103 656 C 87 650 75 643 67 635 L 18 687 C 30 699 48 712 70 724 C 92 736 125 742 167 742 C 207 742 239 733 263 717 C 287 701 300 678 300 650 C 300 629 292 611 278 597 C 264 583 248 573 230 569 Z" unicode="³" />
<glyph horiz-adv-x="500" d="M 140 612 L 229 786 L 366 786 L 254 612 L 140 612 Z" unicode="´" />
<glyph horiz-adv-x="585" d="M 61 -98 L 61 552 L 179 552 L 179 174 C 179 149 189 128 211 112 C 232 96 256 88 283 88 C 312 88 339 96 363 112 C 387 128 400 152 400 183 L 400 552 L 519 552 L 519 0 L 409 0 L 409 87 C 400 64 381 43 352 24 C 322 4 291 -5 259 -5 C 240 -5 222 -1 204 6 C 186 14 175 25 170 39 L 170 -98 L 61 -98 Z" unicode="µ" />
<glyph horiz-adv-x="580" d="M 538 -181 L 452 -179 L 452 635 L 390 635 L 390 -179 L 304 -179 L 304 286 L 241 286 C 212 286 184 291 158 303 C 131 315 107 331 87 351 C 67 371 50 394 38 421 C 26 447 20 475 20 505 C 20 537 25 566 37 594 C 49 621 65 645 86 665 C 106 685 131 701 161 713 C 191 724 223 730 259 730 L 538 730 L 538 -181 Z M 304 385 L 304 631 L 288 631 C 248 631 216 619 191 596 C 166 572 154 543 154 508 C 154 474 166 445 191 421 C 216 397 246 385 280 385 L 304 385 Z" unicode="¶" />
<glyph horiz-adv-x="274" d="M 198 272 L 77 272 L 77 418 L 198 418 L 198 272 Z" unicode="·" />
<glyph horiz-adv-x="500" d="M 251 -180 C 230 -180 210 -177 191 -171 C 172 -165 156 -157 144 -147 L 170 -103 C 176 -108 185 -113 197 -119 C 209 -125 221 -128 235 -128 C 245 -128 253 -125 260 -120 C 267 -115 271 -109 271 -101 C 271 -91 267 -84 261 -80 C 254 -75 247 -73 239 -73 C 233 -73 227 -73 222 -74 C 217 -75 213 -77 210 -79 L 197 -58 L 251 15 L 307 15 L 267 -39 C 291 -39 312 -44 328 -54 C 344 -64 353 -80 353 -103 C 353 -126 343 -145 323 -159 C 303 -173 279 -180 251 -180 Z" unicode="¸" />
<glyph horiz-adv-x="318" d="M 135 372 L 135 625 C 131 619 125 614 117 609 C 109 604 101 600 92 596 C 83 592 74 589 65 587 C 56 584 49 582 44 582 L 44 678 C 68 680 90 686 109 696 C 127 706 147 720 168 740 L 236 740 L 236 372 L 135 372 Z" unicode="¹" />
<glyph horiz-adv-x="388" d="M 191 327 C 169 327 148 331 128 340 C 108 349 90 362 74 380 C 58 397 46 418 37 444 C 27 469 23 498 23 531 C 23 559 27 586 37 612 C 46 638 58 660 74 678 C 89 696 107 711 127 722 C 147 733 169 739 192 739 C 240 739 281 721 315 685 C 349 649 366 601 366 541 C 366 509 361 480 352 454 C 342 428 330 405 314 387 C 298 368 279 353 258 343 C 236 332 214 327 191 327 Z M 193 408 C 218 408 237 420 251 444 C 264 468 271 500 271 538 C 271 572 265 599 253 621 C 241 643 222 654 196 654 C 170 654 150 642 137 619 C 123 596 117 565 117 525 C 117 489 123 461 137 440 C 150 418 169 408 193 408 Z M 36 208 L 36 294 L 354 294 L 354 208 L 36 208 Z" unicode="º" />
<glyph horiz-adv-x="459" d="M 28 515 L 224 344 L 224 276 L 28 108 L 28 223 L 119 312 L 28 395 L 28 515 Z M 238 515 L 433 344 L 433 276 L 238 108 L 238 223 L 329 312 L 238 395 L 238 515 Z" unicode="»" />
<glyph horiz-adv-x="707" d="M 12 0 L 12 0 Z M 103 372 L 103 625 C 99 619 93 614 85 609 C 77 604 69 600 60 596 C 51 592 42 589 33 587 C 24 584 17 582 12 582 L 12 678 C 36 680 58 686 77 696 C 95 706 115 720 136 740 L 204 740 L 204 372 L 103 372 Z M 585 730 L 228 0 L 133 0 L 490 730 L 585 730 Z M 391 80 L 391 147 L 573 364 L 638 364 L 638 151 L 695 151 L 695 80 L 638 80 L 638 1 L 546 1 L 546 80 L 391 80 Z M 481 147 L 548 147 L 548 231 L 481 147 Z" unicode="¼" />
<glyph horiz-adv-x="781" d="M 12 0 L 12 0 Z M 103 372 L 103 625 C 99 619 93 614 85 609 C 77 604 69 600 60 596 C 51 592 42 589 33 587 C 24 584 17 582 12 582 L 12 678 C 36 680 58 686 77 696 C 95 706 115 720 136 740 L 204 740 L 204 372 L 103 372 Z M 585 730 L 228 0 L 133 0 L 490 730 L 585 730 Z M 754 0 L 462 0 L 462 34 L 618 194 C 624 200 629 207 634 215 C 638 223 641 233 641 245 C 641 255 637 265 630 274 C 622 282 611 287 596 287 C 578 287 565 281 559 270 C 552 259 548 246 548 232 L 458 232 C 458 270 471 303 498 329 C 524 355 561 369 608 369 C 653 369 687 359 710 339 C 732 319 744 294 744 266 C 744 239 739 217 730 200 C 720 182 710 168 700 157 L 625 81 L 754 81 L 754 0 Z" unicode="½" />
<glyph horiz-adv-x="763" d="M 12 0 L 12 0 Z M 641 730 L 284 0 L 189 0 L 546 730 L 641 730 Z M 447 80 L 447 147 L 629 364 L 694 364 L 694 151 L 751 151 L 751 80 L 694 80 L 694 1 L 602 1 L 602 80 L 447 80 Z M 537 147 L 604 147 L 604 231 L 537 147 Z M 236 569 C 262 564 282 553 298 537 C 313 520 321 500 321 477 C 321 465 318 452 314 439 C 309 426 301 414 289 403 C 277 391 262 382 242 375 C 222 367 197 364 167 364 C 123 364 90 369 66 379 C 42 389 24 400 12 410 L 63 464 C 73 457 86 451 101 445 C 116 439 135 437 157 437 C 184 437 203 442 214 452 C 225 462 231 474 231 490 C 231 506 223 516 209 521 C 195 525 178 528 158 528 L 87 528 L 87 598 L 152 598 C 170 598 184 600 196 606 C 207 612 213 621 213 633 C 213 643 208 651 199 657 C 189 663 176 666 158 666 C 141 666 125 662 109 656 C 93 650 81 643 73 635 L 24 687 C 36 699 54 712 76 724 C 98 736 131 742 173 742 C 213 742 245 733 269 717 C 293 701 306 678 306 650 C 306 629 298 611 284 597 C 270 583 254 573 236 569 Z" unicode="¾" />
<glyph horiz-adv-x="433" d="M 161 472 L 161 605 L 292 605 L 292 472 L 161 472 Z M 214 -137 C 152 -137 104 -120 72 -87 C 39 -54 23 -11 23 42 C 23 92 34 134 56 168 C 78 202 102 236 128 268 C 143 284 154 304 160 326 C 166 348 170 368 172 387 L 288 387 C 288 351 282 319 270 292 C 258 264 242 237 221 211 C 204 190 188 168 173 145 C 158 122 151 95 151 65 C 151 37 159 14 176 -2 C 193 -18 214 -27 239 -27 C 261 -27 281 -20 298 -8 C 315 3 329 19 341 37 L 415 -35 C 390 -69 360 -95 324 -112 C 288 -128 252 -137 214 -137 Z" unicode="¿" />
<glyph horiz-adv-x="493" d="M 0 0 L 0 0 Z M 494 0 L 371 0 L 330 155 L 157 155 L 118 0 L -1 0 L 201 734 L 292 734 L 494 0 Z M 315 248 L 242 523 L 172 248 L 315 248 Z M 247 790 L 247 790 Z M 359 790 L 245 790 L 133 964 L 270 964 L 359 790 Z" unicode="À" />
<glyph horiz-adv-x="493" d="M 0 0 L 0 0 Z M 494 0 L 371 0 L 330 155 L 157 155 L 118 0 L -1 0 L 201 734 L 292 734 L 494 0 Z M 315 248 L 242 523 L 172 248 L 315 248 Z M 247 790 L 247 790 Z M 134 790 L 223 964 L 360 964 L 248 790 L 134 790 Z" unicode="Á" />
<glyph horiz-adv-x="493" d="M 0 0 L 0 0 Z M 494 0 L 371 0 L 330 155 L 157 155 L 118 0 L -1 0 L 201 734 L 292 734 L 494 0 Z M 315 248 L 242 523 L 172 248 L 315 248 Z M 247 791 L 247 791 Z M 396 791 L 297 791 L 247 878 L 196 791 L 99 791 L 197 964 L 298 964 L 396 791 Z" unicode="Â" />
<glyph horiz-adv-x="493" d="M 0 0 L 0 0 Z M 494 0 L 371 0 L 330 155 L 157 155 L 118 0 L -1 0 L 201 734 L 292 734 L 494 0 Z M 315 248 L 242 523 L 172 248 L 315 248 Z M 247 795 L 247 795 Z M 323 942 L 411 942 C 411 892 403 855 389 831 C 374 807 355 795 333 795 C 313 795 297 798 283 804 C 269 810 257 816 249 821 C 240 825 232 830 224 835 C 216 840 208 843 201 843 C 193 843 186 838 181 830 C 175 821 173 811 173 799 L 84 799 C 84 848 93 885 113 909 C 133 933 153 946 175 946 C 191 946 205 943 217 937 C 229 931 240 924 251 918 C 259 912 266 908 273 905 C 280 901 287 900 294 900 C 300 900 307 903 313 910 C 319 917 323 928 323 942 Z" unicode="Ã" />
<glyph horiz-adv-x="493" d="M 0 0 L 0 0 Z M 494 0 L 371 0 L 330 155 L 157 155 L 118 0 L -1 0 L 201 734 L 292 734 L 494 0 Z M 315 248 L 242 523 L 172 248 L 315 248 Z M 247 791 L 247 791 Z M 375 791 L 279 791 L 279 951 L 375 951 L 375 791 Z M 215 791 L 119 791 L 119 951 L 215 951 L 215 791 Z" unicode="Ä" />
<glyph horiz-adv-x="493" d="M 0 0 L 0 0 Z M 494 0 L 371 0 L 330 155 L 157 155 L 118 0 L -1 0 L 201 734 L 292 734 L 494 0 Z M 315 248 L 242 523 L 172 248 L 315 248 Z M 247 768 L 247 768 Z M 247 768 C 212 768 182 780 158 805 C 133 829 121 859 121 894 C 121 928 133 958 158 983 C 182 1007 212 1020 247 1020 C 282 1020 312 1007 337 983 C 361 958 374 928 374 894 C 374 859 361 829 337 805 C 312 780 282 768 247 768 Z M 248 835 C 264 835 278 840 289 852 C 299 863 305 877 305 894 C 305 910 299 924 289 936 C 278 947 264 953 248 953 C 232 953 218 947 207 936 C 195 924 190 910 190 894 C 190 877 195 863 207 852 C 218 840 232 835 248 835 Z" unicode="Å" />
<glyph horiz-adv-x="740" d="M 730 0 L 392 0 L 392 168 L 194 168 L 120 0 L -1 0 L 312 730 L 711 730 L 711 619 L 513 619 L 513 419 L 702 419 L 702 310 L 513 310 L 513 111 L 730 111 L 730 0 Z M 392 269 L 392 650 L 232 269 L 392 269 Z" unicode="Æ" />
<glyph horiz-adv-x="532" d="M 29 0 L 29 0 Z M 281 -7 C 205 -7 144 24 98 86 C 52 148 29 241 29 366 C 29 482 50 572 93 638 C 135 704 198 737 282 737 C 346 737 394 720 427 687 C 460 653 483 611 495 559 L 381 526 C 372 555 361 579 347 599 C 333 619 311 629 283 629 C 263 629 246 624 230 616 C 214 607 201 592 191 572 C 180 551 172 523 166 489 C 160 455 158 412 158 362 C 158 310 161 268 169 234 C 177 200 187 173 199 153 C 211 133 226 120 242 112 C 258 104 274 100 291 100 C 323 100 348 110 364 130 C 380 150 392 177 402 210 L 505 169 C 487 112 460 68 422 38 C 384 8 337 -7 281 -7 Z M 274 0 L 274 0 Z M 277 -180 C 256 -180 236 -177 217 -171 C 198 -165 182 -157 170 -147 L 196 -103 C 202 -108 211 -113 223 -119 C 235 -125 247 -128 261 -128 C 271 -128 279 -125 286 -120 C 293 -115 297 -109 297 -101 C 297 -91 293 -84 287 -80 C 280 -75 273 -73 265 -73 C 259 -73 253 -73 248 -74 C 243 -75 239 -77 236 -79 L 223 -58 L 277 15 L 333 15 L 293 -39 C 317 -39 338 -44 354 -54 C 370 -64 379 -80 379 -103 C 379 -126 369 -145 349 -159 C 329 -173 305 -180 277 -180 Z" unicode="Ç" />
<glyph horiz-adv-x="404" d="M 51 0 L 51 0 Z M 394 0 L 51 0 L 51 730 L 375 730 L 375 619 L 177 619 L 177 419 L 366 419 L 366 310 L 177 310 L 177 111 L 394 111 L 394 0 Z M 213 790 L 213 790 Z M 325 790 L 211 790 L 99 964 L 236 964 L 325 790 Z" unicode="È" />
<glyph horiz-adv-x="404" d="M 51 0 L 51 0 Z M 394 0 L 51 0 L 51 730 L 375 730 L 375 619 L 177 619 L 177 419 L 366 419 L 366 310 L 177 310 L 177 111 L 394 111 L 394 0 Z M 213 790 L 213 790 Z M 100 790 L 189 964 L 326 964 L 214 790 L 100 790 Z" unicode="É" />
<glyph horiz-adv-x="404" d="M 51 0 L 51 0 Z M 394 0 L 51 0 L 51 730 L 375 730 L 375 619 L 177 619 L 177 419 L 366 419 L 366 310 L 177 310 L 177 111 L 394 111 L 394 0 Z M 213 791 L 213 791 Z M 362 791 L 263 791 L 213 878 L 162 791 L 65 791 L 163 964 L 264 964 L 362 791 Z" unicode="Ê" />
<glyph horiz-adv-x="404" d="M 51 0 L 51 0 Z M 394 0 L 51 0 L 51 730 L 375 730 L 375 619 L 177 619 L 177 419 L 366 419 L 366 310 L 177 310 L 177 111 L 394 111 L 394 0 Z M 213 791 L 213 791 Z M 341 791 L 245 791 L 245 951 L 341 951 L 341 791 Z M 181 791 L 85 791 L 85 951 L 181 951 L 181 791 Z" unicode="Ë" />
<glyph horiz-adv-x="239" d="M 5 0 L 5 0 Z M 186 0 L 55 0 L 55 730 L 186 730 L 186 0 Z M 119 790 L 119 790 Z M 231 790 L 117 790 L 5 964 L 142 964 L 231 790 Z" unicode="Ì" />
<glyph horiz-adv-x="239" d="M 6 0 L 6 0 Z M 186 0 L 55 0 L 55 730 L 186 730 L 186 0 Z M 119 790 L 119 790 Z M 6 790 L 95 964 L 232 964 L 120 790 L 6 790 Z" unicode="Í" />
<glyph horiz-adv-x="239" d="M 0 0 L 0 0 Z M 186 0 L 55 0 L 55 730 L 186 730 L 186 0 Z M 119 791 L 119 791 Z M 268 791 L 169 791 L 119 878 L 68 791 L -29 791 L 69 964 L 170 964 L 268 791 Z" unicode="Î" />
<glyph horiz-adv-x="239" d="M 0 0 L 0 0 Z M 186 0 L 55 0 L 55 730 L 186 730 L 186 0 Z M 119 791 L 119 791 Z M 247 791 L 151 791 L 151 951 L 247 951 L 247 791 Z M 87 791 L -9 791 L -9 951 L 87 951 L 87 791 Z" unicode="Ï" />
<glyph horiz-adv-x="545" d="M 514 361 C 514 310 508 263 496 219 C 484 175 465 136 441 104 C 416 72 385 46 348 28 C 310 9 267 0 217 0 L 49 0 L 49 307 L 12 307 L 12 407 L 49 407 L 49 730 L 226 730 C 272 730 314 721 350 703 C 386 685 416 660 440 628 C 464 596 482 557 495 511 C 507 465 514 415 514 361 Z M 178 101 L 224 101 C 282 101 323 123 347 169 C 371 214 383 277 383 359 C 383 454 369 523 342 565 C 314 607 277 629 229 629 L 178 629 L 178 407 L 279 407 L 279 307 L 178 307 L 178 101 Z" unicode="Ð" />
<glyph horiz-adv-x="534" d="M 51 0 L 51 0 Z M 483 0 L 392 0 L 172 434 L 172 0 L 51 0 L 51 730 L 142 730 L 366 293 L 366 730 L 483 730 L 483 0 Z M 268 795 L 268 795 Z M 344 942 L 432 942 C 432 892 424 855 410 831 C 395 807 376 795 354 795 C 334 795 318 798 304 804 C 290 810 278 816 270 821 C 261 825 253 830 245 835 C 237 840 229 843 222 843 C 214 843 207 838 202 830 C 196 821 194 811 194 799 L 105 799 C 105 848 114 885 134 909 C 154 933 174 946 196 946 C 212 946 226 943 238 937 C 250 931 261 924 272 918 C 280 912 287 908 294 905 C 301 901 308 900 315 900 C 321 900 328 903 334 910 C 340 917 344 928 344 942 Z" unicode="Ñ" />
<glyph horiz-adv-x="568" d="M 29 0 L 29 0 Z M 287 -7 C 201 -7 137 25 94 91 C 50 156 29 249 29 371 C 29 485 51 574 96 639 C 140 704 202 737 281 737 C 365 737 429 705 473 641 C 517 577 539 485 539 365 C 539 249 516 158 470 92 C 424 26 363 -7 287 -7 Z M 284 95 C 324 95 354 116 375 160 C 395 203 406 274 406 372 C 406 463 395 530 374 572 C 352 614 322 635 283 635 C 241 635 211 614 192 572 C 172 530 163 461 163 365 C 163 267 173 198 194 157 C 215 115 245 95 284 95 Z M 284 790 L 284 790 Z M 396 790 L 282 790 L 170 964 L 307 964 L 396 790 Z" unicode="Ò" />
<glyph horiz-adv-x="568" d="M 29 0 L 29 0 Z M 287 -7 C 201 -7 137 25 94 91 C 50 156 29 249 29 371 C 29 485 51 574 96 639 C 140 704 202 737 281 737 C 365 737 429 705 473 641 C 517 577 539 485 539 365 C 539 249 516 158 470 92 C 424 26 363 -7 287 -7 Z M 284 95 C 324 95 354 116 375 160 C 395 203 406 274 406 372 C 406 463 395 530 374 572 C 352 614 322 635 283 635 C 241 635 211 614 192 572 C 172 530 163 461 163 365 C 163 267 173 198 194 157 C 215 115 245 95 284 95 Z M 284 790 L 284 790 Z M 171 790 L 260 964 L 397 964 L 285 790 L 171 790 Z" unicode="Ó" />
<glyph horiz-adv-x="568" d="M 29 0 L 29 0 Z M 287 -7 C 201 -7 137 25 94 91 C 50 156 29 249 29 371 C 29 485 51 574 96 639 C 140 704 202 737 281 737 C 365 737 429 705 473 641 C 517 577 539 485 539 365 C 539 249 516 158 470 92 C 424 26 363 -7 287 -7 Z M 284 95 C 324 95 354 116 375 160 C 395 203 406 274 406 372 C 406 463 395 530 374 572 C 352 614 322 635 283 635 C 241 635 211 614 192 572 C 172 530 163 461 163 365 C 163 267 173 198 194 157 C 215 115 245 95 284 95 Z M 284 791 L 284 791 Z M 433 791 L 334 791 L 284 878 L 233 791 L 136 791 L 234 964 L 335 964 L 433 791 Z" unicode="Ô" />
<glyph horiz-adv-x="568" d="M 29 0 L 29 0 Z M 287 -7 C 201 -7 137 25 94 91 C 50 156 29 249 29 371 C 29 485 51 574 96 639 C 140 704 202 737 281 737 C 365 737 429 705 473 641 C 517 577 539 485 539 365 C 539 249 516 158 470 92 C 424 26 363 -7 287 -7 Z M 284 95 C 324 95 354 116 375 160 C 395 203 406 274 406 372 C 406 463 395 530 374 572 C 352 614 322 635 283 635 C 241 635 211 614 192 572 C 172 530 163 461 163 365 C 163 267 173 198 194 157 C 215 115 245 95 284 95 Z M 284 795 L 284 795 Z M 360 942 L 448 942 C 448 892 440 855 426 831 C 411 807 392 795 370 795 C 350 795 334 798 320 804 C 306 810 294 816 286 821 C 277 825 269 830 261 835 C 253 840 245 843 238 843 C 230 843 223 838 218 830 C 212 821 210 811 210 799 L 121 799 C 121 848 130 885 150 909 C 170 933 190 946 212 946 C 228 946 242 943 254 937 C 266 931 277 924 288 918 C 296 912 303 908 310 905 C 317 901 324 900 331 900 C 337 900 344 903 350 910 C 356 917 360 928 360 942 Z" unicode="Õ" />
<glyph horiz-adv-x="568" d="M 29 0 L 29 0 Z M 287 -7 C 201 -7 137 25 94 91 C 50 156 29 249 29 371 C 29 485 51 574 96 639 C 140 704 202 737 281 737 C 365 737 429 705 473 641 C 517 577 539 485 539 365 C 539 249 516 158 470 92 C 424 26 363 -7 287 -7 Z M 284 95 C 324 95 354 116 375 160 C 395 203 406 274 406 372 C 406 463 395 530 374 572 C 352 614 322 635 283 635 C 241 635 211 614 192 572 C 172 530 163 461 163 365 C 163 267 173 198 194 157 C 215 115 245 95 284 95 Z M 284 791 L 284 791 Z M 412 791 L 316 791 L 316 951 L 412 951 L 412 791 Z M 252 791 L 156 791 L 156 951 L 252 951 L 252 791 Z" unicode="Ö" />
<glyph horiz-adv-x="461" d="M 104 139 L 44 200 L 170 326 L 45 451 L 106 513 L 231 388 L 357 513 L 418 451 L 292 326 L 418 201 L 358 137 L 231 266 L 104 139 Z" unicode="×" />
<glyph horiz-adv-x="568" d="M 287 -7 C 252 -7 221 -1 193 9 C 165 20 140 37 120 59 L 73 -12 L 11 28 L 75 124 C 59 154 48 190 40 232 C 32 274 29 320 29 371 C 29 485 51 574 96 639 C 140 704 202 737 281 737 C 313 737 343 732 370 722 C 397 712 421 697 441 679 L 494 759 L 557 720 L 489 617 C 505 586 518 549 526 507 C 534 465 539 417 539 365 C 539 249 516 158 470 92 C 424 26 363 -7 287 -7 Z M 163 365 C 163 346 163 328 164 312 C 165 295 166 279 168 265 L 373 575 C 362 595 349 610 334 620 C 319 630 302 635 283 635 C 241 635 211 614 192 572 C 172 530 163 461 163 365 Z M 406 372 C 406 392 405 412 404 430 C 403 448 401 465 399 481 L 190 165 C 200 140 213 122 229 111 C 245 100 263 95 284 95 C 324 95 354 116 375 160 C 395 203 406 274 406 372 Z" unicode="Ø" />
<glyph horiz-adv-x="538" d="M 48 0 L 48 0 Z M 491 730 L 491 224 C 491 182 484 147 471 118 C 458 88 441 64 420 46 C 399 28 375 14 347 6 C 319 -2 290 -7 261 -7 C 232 -7 205 -3 179 5 C 153 13 131 26 112 44 C 92 62 77 85 65 115 C 53 145 48 181 48 224 L 48 730 L 177 730 L 177 219 C 177 177 185 147 201 130 C 217 113 239 105 265 105 C 291 105 312 113 329 129 C 346 145 355 175 355 219 L 355 730 L 491 730 Z M 266 790 L 266 790 Z M 378 790 L 264 790 L 152 964 L 289 964 L 378 790 Z" unicode="Ù" />
<glyph horiz-adv-x="538" d="M 48 0 L 48 0 Z M 491 730 L 491 224 C 491 182 484 147 471 118 C 458 88 441 64 420 46 C 399 28 375 14 347 6 C 319 -2 290 -7 261 -7 C 232 -7 205 -3 179 5 C 153 13 131 26 112 44 C 92 62 77 85 65 115 C 53 145 48 181 48 224 L 48 730 L 177 730 L 177 219 C 177 177 185 147 201 130 C 217 113 239 105 265 105 C 291 105 312 113 329 129 C 346 145 355 175 355 219 L 355 730 L 491 730 Z M 266 790 L 266 790 Z M 153 790 L 242 964 L 379 964 L 267 790 L 153 790 Z" unicode="Ú" />
<glyph horiz-adv-x="538" d="M 48 0 L 48 0 Z M 491 730 L 491 224 C 491 182 484 147 471 118 C 458 88 441 64 420 46 C 399 28 375 14 347 6 C 319 -2 290 -7 261 -7 C 232 -7 205 -3 179 5 C 153 13 131 26 112 44 C 92 62 77 85 65 115 C 53 145 48 181 48 224 L 48 730 L 177 730 L 177 219 C 177 177 185 147 201 130 C 217 113 239 105 265 105 C 291 105 312 113 329 129 C 346 145 355 175 355 219 L 355 730 L 491 730 Z M 266 791 L 266 791 Z M 415 791 L 316 791 L 266 878 L 215 791 L 118 791 L 216 964 L 317 964 L 415 791 Z" unicode="Û" />
<glyph horiz-adv-x="538" d="M 48 0 L 48 0 Z M 491 730 L 491 224 C 491 182 484 147 471 118 C 458 88 441 64 420 46 C 399 28 375 14 347 6 C 319 -2 290 -7 261 -7 C 232 -7 205 -3 179 5 C 153 13 131 26 112 44 C 92 62 77 85 65 115 C 53 145 48 181 48 224 L 48 730 L 177 730 L 177 219 C 177 177 185 147 201 130 C 217 113 239 105 265 105 C 291 105 312 113 329 129 C 346 145 355 175 355 219 L 355 730 L 491 730 Z M 266 791 L 266 791 Z M 394 791 L 298 791 L 298 951 L 394 951 L 394 791 Z M 234 791 L 138 791 L 138 951 L 234 951 L 234 791 Z" unicode="Ü" />
<glyph horiz-adv-x="472" d="M 0 0 L 0 0 Z M 479 730 L 298 308 L 298 0 L 168 0 L 168 310 L -7 730 L 137 730 L 241 439 L 357 730 L 479 730 Z M 241 790 L 241 790 Z M 128 790 L 217 964 L 354 964 L 242 790 L 128 790 Z" unicode="Ý" />
<glyph horiz-adv-x="461" d="M 51 0 L 51 730 L 181 730 L 181 609 L 246 609 C 274 609 300 604 325 594 C 349 584 370 569 388 550 C 406 531 420 508 430 480 C 440 452 446 421 446 386 C 446 313 426 256 387 215 C 347 174 298 154 238 154 L 181 154 L 181 0 L 51 0 Z M 177 256 L 235 256 C 262 256 284 267 301 290 C 318 312 327 344 327 385 C 327 424 317 454 298 474 C 279 494 258 504 235 504 L 177 504 L 177 256 Z" unicode="Þ" />
<glyph horiz-adv-x="519" d="M 364 -5 C 330 -5 299 2 271 16 C 243 30 222 48 208 71 L 265 147 C 277 130 291 117 306 108 C 320 98 335 94 350 94 C 362 94 374 99 386 109 C 398 119 404 133 404 151 C 404 171 395 188 378 202 C 361 216 341 231 317 248 C 289 268 265 289 247 311 C 229 333 220 365 220 407 C 220 441 228 469 246 493 C 263 517 283 533 306 542 C 312 544 317 551 323 563 C 329 575 333 592 335 615 C 335 647 326 670 309 683 C 292 696 273 703 253 703 C 229 703 209 694 193 678 C 177 661 170 634 170 597 L 170 0 L 50 0 L 50 604 C 50 668 67 717 103 751 C 139 785 187 802 248 802 C 304 802 351 785 387 751 C 423 717 441 670 441 609 C 441 566 434 531 420 504 C 406 477 391 462 376 458 C 362 457 350 453 338 446 C 326 438 321 427 321 412 C 321 395 328 381 343 371 C 357 361 380 345 410 323 C 440 301 463 276 480 250 C 496 223 505 188 505 145 C 505 118 500 95 491 76 C 482 56 471 41 457 29 C 443 17 427 9 411 3 C 394 -2 378 -5 364 -5 Z" unicode="ß" />
<glyph horiz-adv-x="391" d="M 16 0 L 16 0 Z M 357 0 L 257 0 L 257 47 C 239 27 223 14 207 6 C 191 -1 169 -5 141 -5 C 103 -5 72 10 50 42 C 27 73 16 116 16 170 C 16 230 31 274 62 302 C 93 329 131 344 175 347 L 245 352 L 245 389 C 245 412 239 430 227 442 C 215 454 199 460 177 460 C 155 460 135 456 118 448 C 100 440 87 432 78 424 L 46 517 C 60 527 80 537 106 547 C 132 557 164 562 204 562 C 250 562 287 548 315 522 C 343 496 357 459 357 412 L 357 0 Z M 247 119 L 247 275 L 202 271 C 181 269 164 260 150 244 C 136 228 130 202 130 168 C 130 136 135 114 147 101 C 159 88 171 82 185 82 C 201 82 213 85 223 93 C 232 100 240 109 247 119 Z M 195 612 L 195 612 Z M 307 612 L 193 612 L 81 786 L 218 786 L 307 612 Z" unicode="à" />
<glyph horiz-adv-x="391" d="M 16 0 L 16 0 Z M 357 0 L 257 0 L 257 47 C 239 27 223 14 207 6 C 191 -1 169 -5 141 -5 C 103 -5 72 10 50 42 C 27 73 16 116 16 170 C 16 230 31 274 62 302 C 93 329 131 344 175 347 L 245 352 L 245 389 C 245 412 239 430 227 442 C 215 454 199 460 177 460 C 155 460 135 456 118 448 C 100 440 87 432 78 424 L 46 517 C 60 527 80 537 106 547 C 132 557 164 562 204 562 C 250 562 287 548 315 522 C 343 496 357 459 357 412 L 357 0 Z M 247 119 L 247 275 L 202 271 C 181 269 164 260 150 244 C 136 228 130 202 130 168 C 130 136 135 114 147 101 C 159 88 171 82 185 82 C 201 82 213 85 223 93 C 232 100 240 109 247 119 Z M 195 612 L 195 612 Z M 82 612 L 171 786 L 308 786 L 196 612 L 82 612 Z" unicode="á" />
<glyph horiz-adv-x="391" d="M 16 0 L 16 0 Z M 357 0 L 257 0 L 257 47 C 239 27 223 14 207 6 C 191 -1 169 -5 141 -5 C 103 -5 72 10 50 42 C 27 73 16 116 16 170 C 16 230 31 274 62 302 C 93 329 131 344 175 347 L 245 352 L 245 389 C 245 412 239 430 227 442 C 215 454 199 460 177 460 C 155 460 135 456 118 448 C 100 440 87 432 78 424 L 46 517 C 60 527 80 537 106 547 C 132 557 164 562 204 562 C 250 562 287 548 315 522 C 343 496 357 459 357 412 L 357 0 Z M 247 119 L 247 275 L 202 271 C 181 269 164 260 150 244 C 136 228 130 202 130 168 C 130 136 135 114 147 101 C 159 88 171 82 185 82 C 201 82 213 85 223 93 C 232 100 240 109 247 119 Z M 195 613 L 195 613 Z M 344 613 L 245 613 L 195 700 L 144 613 L 47 613 L 145 786 L 246 786 L 344 613 Z" unicode="â" />
<glyph horiz-adv-x="391" d="M 16 0 L 16 0 Z M 357 0 L 257 0 L 257 47 C 239 27 223 14 207 6 C 191 -1 169 -5 141 -5 C 103 -5 72 10 50 42 C 27 73 16 116 16 170 C 16 230 31 274 62 302 C 93 329 131 344 175 347 L 245 352 L 245 389 C 245 412 239 430 227 442 C 215 454 199 460 177 460 C 155 460 135 456 118 448 C 100 440 87 432 78 424 L 46 517 C 60 527 80 537 106 547 C 132 557 164 562 204 562 C 250 562 287 548 315 522 C 343 496 357 459 357 412 L 357 0 Z M 247 119 L 247 275 L 202 271 C 181 269 164 260 150 244 C 136 228 130 202 130 168 C 130 136 135 114 147 101 C 159 88 171 82 185 82 C 201 82 213 85 223 93 C 232 100 240 109 247 119 Z M 195 617 L 195 617 Z M 271 764 L 359 764 C 359 714 351 677 337 653 C 322 629 303 617 281 617 C 261 617 245 620 231 626 C 217 632 205 638 197 643 C 188 647 180 652 172 657 C 164 662 156 665 149 665 C 141 665 134 660 129 652 C 123 643 121 633 121 621 L 32 621 C 32 670 41 707 61 731 C 81 755 101 768 123 768 C 139 768 153 765 165 759 C 177 753 188 746 199 740 C 207 734 214 730 221 727 C 228 723 235 722 242 722 C 248 722 255 725 261 732 C 267 739 271 750 271 764 Z" unicode="ã" />
<glyph horiz-adv-x="391" d="M 16 0 L 16 0 Z M 357 0 L 257 0 L 257 47 C 239 27 223 14 207 6 C 191 -1 169 -5 141 -5 C 103 -5 72 10 50 42 C 27 73 16 116 16 170 C 16 230 31 274 62 302 C 93 329 131 344 175 347 L 245 352 L 245 389 C 245 412 239 430 227 442 C 215 454 199 460 177 460 C 155 460 135 456 118 448 C 100 440 87 432 78 424 L 46 517 C 60 527 80 537 106 547 C 132 557 164 562 204 562 C 250 562 287 548 315 522 C 343 496 357 459 357 412 L 357 0 Z M 247 119 L 247 275 L 202 271 C 181 269 164 260 150 244 C 136 228 130 202 130 168 C 130 136 135 114 147 101 C 159 88 171 82 185 82 C 201 82 213 85 223 93 C 232 100 240 109 247 119 Z M 195 613 L 195 613 Z M 323 613 L 227 613 L 227 773 L 323 773 L 323 613 Z M 163 613 L 67 613 L 67 773 L 163 773 L 163 613 Z" unicode="ä" />
<glyph horiz-adv-x="391" d="M 16 0 L 16 0 Z M 357 0 L 257 0 L 257 47 C 239 27 223 14 207 6 C 191 -1 169 -5 141 -5 C 103 -5 72 10 50 42 C 27 73 16 116 16 170 C 16 230 31 274 62 302 C 93 329 131 344 175 347 L 245 352 L 245 389 C 245 412 239 430 227 442 C 215 454 199 460 177 460 C 155 460 135 456 118 448 C 100 440 87 432 78 424 L 46 517 C 60 527 80 537 106 547 C 132 557 164 562 204 562 C 250 562 287 548 315 522 C 343 496 357 459 357 412 L 357 0 Z M 247 119 L 247 275 L 202 271 C 181 269 164 260 150 244 C 136 228 130 202 130 168 C 130 136 135 114 147 101 C 159 88 171 82 185 82 C 201 82 213 85 223 93 C 232 100 240 109 247 119 Z M 195 590 L 195 590 Z M 195 590 C 160 590 130 602 106 627 C 81 651 69 681 69 716 C 69 750 81 780 106 805 C 130 829 160 842 195 842 C 230 842 260 829 285 805 C 309 780 322 750 322 716 C 322 681 309 651 285 627 C 260 602 230 590 195 590 Z M 196 657 C 212 657 226 662 237 674 C 247 685 253 699 253 716 C 253 732 247 746 237 758 C 226 769 212 775 196 775 C 180 775 166 769 155 758 C 143 746 138 732 138 716 C 138 699 143 685 155 674 C 166 662 180 657 196 657 Z" unicode="å" />
<glyph horiz-adv-x="623" d="M 425 -5 C 387 -5 357 3 337 21 C 317 39 302 56 292 73 C 279 48 260 29 236 15 C 211 1 182 -5 150 -5 C 115 -5 84 10 57 42 C 30 74 17 116 17 168 C 17 229 32 273 63 301 C 93 328 131 343 175 346 L 245 351 L 245 376 C 245 408 238 430 226 442 C 214 454 196 461 173 461 C 151 461 131 456 114 447 C 97 437 85 430 78 424 L 45 514 C 59 524 78 534 101 544 C 123 554 154 559 193 559 C 219 559 244 553 266 542 C 288 531 302 517 308 501 C 316 513 329 525 349 537 C 369 549 394 555 426 555 C 484 555 529 528 561 475 C 593 422 609 346 609 248 L 356 248 C 356 205 363 169 379 139 C 394 109 418 94 450 94 C 472 94 492 100 508 113 C 524 125 537 138 549 150 L 598 88 C 590 78 581 67 571 56 C 560 45 548 35 534 26 C 520 17 504 10 486 4 C 468 -2 447 -5 425 -5 Z M 353 327 L 495 327 C 495 369 489 402 477 425 C 465 448 449 460 428 460 C 407 460 390 448 376 426 C 362 403 355 370 353 327 Z M 185 82 C 200 82 214 86 226 96 C 238 105 245 121 247 144 L 247 272 L 201 269 C 181 267 164 259 150 243 C 136 227 130 202 130 168 C 130 136 136 114 148 101 C 160 88 172 82 185 82 Z" unicode="æ" />
<glyph horiz-adv-x="366" d="M 18 0 L 18 0 Z M 304 133 L 356 64 C 342 45 325 29 303 15 C 281 1 253 -5 217 -5 C 185 -5 156 2 131 16 C 106 30 85 50 69 75 C 52 99 39 129 31 163 C 22 197 18 235 18 275 C 18 312 22 348 30 382 C 38 416 51 446 67 472 C 83 498 104 518 129 534 C 154 549 183 557 216 557 C 253 557 284 548 308 531 C 332 514 349 496 360 476 L 289 411 C 281 423 272 434 261 442 C 250 450 237 454 222 454 C 197 454 178 439 164 410 C 150 380 143 338 143 282 C 143 213 152 164 171 136 C 190 108 212 94 237 94 C 253 94 267 98 278 107 C 288 115 297 124 304 133 Z M 200 0 L 200 0 Z M 203 -180 C 182 -180 162 -177 143 -171 C 124 -165 108 -157 96 -147 L 122 -103 C 128 -108 137 -113 149 -119 C 161 -125 173 -128 187 -128 C 197 -128 205 -125 212 -120 C 219 -115 223 -109 223 -101 C 223 -91 219 -84 213 -80 C 206 -75 199 -73 191 -73 C 185 -73 179 -73 174 -74 C 169 -75 165 -77 162 -79 L 149 -58 L 203 15 L 259 15 L 219 -39 C 243 -39 264 -44 280 -54 C 296 -64 305 -80 305 -103 C 305 -126 295 -145 275 -159 C 255 -173 231 -180 203 -180 Z" unicode="ç" />
<glyph horiz-adv-x="406" d="M 18 0 L 18 0 Z M 208 -5 C 151 -5 105 20 70 70 C 35 120 18 187 18 271 C 18 360 35 430 71 480 C 107 530 151 556 205 556 C 267 556 314 528 345 474 C 376 420 392 344 392 247 L 137 247 C 137 205 145 169 161 139 C 177 109 202 95 235 95 C 257 95 277 101 293 114 C 309 126 322 139 332 151 L 380 88 C 372 78 363 67 352 56 C 341 45 329 35 315 26 C 301 17 285 10 267 4 C 249 -2 229 -5 208 -5 Z M 134 327 L 278 327 C 278 371 271 405 259 427 C 247 449 230 460 210 460 C 188 460 171 449 157 427 C 143 405 135 372 134 327 Z M 208 612 L 208 612 Z M 320 612 L 206 612 L 94 786 L 231 786 L 320 612 Z" unicode="è" />
<glyph horiz-adv-x="406" d="M 18 0 L 18 0 Z M 208 -5 C 151 -5 105 20 70 70 C 35 120 18 187 18 271 C 18 360 35 430 71 480 C 107 530 151 556 205 556 C 267 556 314 528 345 474 C 376 420 392 344 392 247 L 137 247 C 137 205 145 169 161 139 C 177 109 202 95 235 95 C 257 95 277 101 293 114 C 309 126 322 139 332 151 L 380 88 C 372 78 363 67 352 56 C 341 45 329 35 315 26 C 301 17 285 10 267 4 C 249 -2 229 -5 208 -5 Z M 134 327 L 278 327 C 278 371 271 405 259 427 C 247 449 230 460 210 460 C 188 460 171 449 157 427 C 143 405 135 372 134 327 Z M 208 612 L 208 612 Z M 95 612 L 184 786 L 321 786 L 209 612 L 95 612 Z" unicode="é" />
<glyph horiz-adv-x="406" d="M 18 0 L 18 0 Z M 208 -5 C 151 -5 105 20 70 70 C 35 120 18 187 18 271 C 18 360 35 430 71 480 C 107 530 151 556 205 556 C 267 556 314 528 345 474 C 376 420 392 344 392 247 L 137 247 C 137 205 145 169 161 139 C 177 109 202 95 235 95 C 257 95 277 101 293 114 C 309 126 322 139 332 151 L 380 88 C 372 78 363 67 352 56 C 341 45 329 35 315 26 C 301 17 285 10 267 4 C 249 -2 229 -5 208 -5 Z M 134 327 L 278 327 C 278 371 271 405 259 427 C 247 449 230 460 210 460 C 188 460 171 449 157 427 C 143 405 135 372 134 327 Z M 208 613 L 208 613 Z M 357 613 L 258 613 L 208 700 L 157 613 L 60 613 L 158 786 L 259 786 L 357 613 Z" unicode="ê" />
<glyph horiz-adv-x="406" d="M 18 0 L 18 0 Z M 208 -5 C 151 -5 105 20 70 70 C 35 120 18 187 18 271 C 18 360 35 430 71 480 C 107 530 151 556 205 556 C 267 556 314 528 345 474 C 376 420 392 344 392 247 L 137 247 C 137 205 145 169 161 139 C 177 109 202 95 235 95 C 257 95 277 101 293 114 C 309 126 322 139 332 151 L 380 88 C 372 78 363 67 352 56 C 341 45 329 35 315 26 C 301 17 285 10 267 4 C 249 -2 229 -5 208 -5 Z M 134 327 L 278 327 C 278 371 271 405 259 427 C 247 449 230 460 210 460 C 188 460 171 449 157 427 C 143 405 135 372 134 327 Z M 208 613 L 208 613 Z M 336 613 L 240 613 L 240 773 L 336 773 L 336 613 Z M 176 613 L 80 613 L 80 773 L 176 773 L 176 613 Z" unicode="ë" />
<glyph horiz-adv-x="194" d="M 0 0 L 0 0 Z M 156 0 L 38 0 L 38 552 L 156 552 L 156 0 Z M 96 612 L 96 612 Z M 208 612 L 94 612 L -18 786 L 119 786 L 208 612 Z" unicode="ì" />
<glyph horiz-adv-x="194" d="M 0 0 L 0 0 Z M 156 0 L 38 0 L 38 552 L 156 552 L 156 0 Z M 96 612 L 96 612 Z M -17 612 L 72 786 L 209 786 L 97 612 L -17 612 Z" unicode="í" />
<glyph horiz-adv-x="194" d="M 0 0 L 0 0 Z M 156 0 L 38 0 L 38 552 L 156 552 L 156 0 Z M 96 613 L 96 613 Z M 245 613 L 146 613 L 96 700 L 45 613 L -52 613 L 46 786 L 147 786 L 245 613 Z" unicode="î" />
<glyph horiz-adv-x="194" d="M 0 0 L 0 0 Z M 156 0 L 38 0 L 38 552 L 156 552 L 156 0 Z M 96 613 L 96 613 Z M 224 613 L 128 613 L 128 773 L 224 773 L 224 613 Z M 64 613 L -32 613 L -32 773 L 64 773 L 64 613 Z" unicode="ï" />
<glyph horiz-adv-x="432" d="M 405 310 C 405 265 401 223 393 184 C 385 145 373 111 357 83 C 341 55 321 32 297 16 C 273 0 245 -8 213 -8 C 155 -8 109 15 73 62 C 37 109 19 176 19 262 C 19 308 24 348 34 383 C 44 417 57 446 73 468 C 89 490 107 507 128 518 C 149 529 170 535 192 535 C 216 535 235 530 251 522 C 266 514 279 502 289 486 C 286 508 282 529 276 551 C 270 572 263 592 256 612 L 179 582 L 157 658 L 224 684 C 214 702 204 719 195 734 C 185 748 178 759 172 766 L 256 802 C 262 795 270 785 280 771 C 290 757 301 739 313 718 L 374 741 L 396 666 L 345 646 C 361 605 375 556 387 500 C 399 443 405 380 405 310 Z M 210 90 C 234 90 251 103 263 130 C 274 156 280 202 280 266 C 280 336 274 383 262 409 C 250 435 232 448 209 448 C 186 448 169 433 157 404 C 145 375 140 329 140 267 C 140 201 146 155 158 129 C 170 103 187 90 210 90 Z" unicode="ð" />
<glyph horiz-adv-x="422" d="M 36 0 L 36 0 Z M 388 0 L 269 0 L 269 403 C 269 421 264 434 255 444 C 245 453 232 458 216 458 C 199 458 184 452 172 442 C 160 431 154 412 154 386 L 154 0 L 36 0 L 36 552 L 139 552 L 139 483 C 147 503 162 521 183 535 C 204 549 231 557 264 557 C 301 557 331 547 354 529 C 376 511 388 481 388 439 L 388 0 Z M 213 617 L 213 617 Z M 289 764 L 377 764 C 377 714 369 677 355 653 C 340 629 321 617 299 617 C 279 617 263 620 249 626 C 235 632 223 638 215 643 C 206 647 198 652 190 657 C 182 662 174 665 167 665 C 159 665 152 660 147 652 C 141 643 139 633 139 621 L 50 621 C 50 670 59 707 79 731 C 99 755 119 768 141 768 C 157 768 171 765 183 759 C 195 753 206 746 217 740 C 225 734 232 730 239 727 C 246 723 253 722 260 722 C 266 722 273 725 279 732 C 285 739 289 750 289 764 Z" unicode="ñ" />
<glyph horiz-adv-x="423" d="M 18 0 L 18 0 Z M 211 -5 C 155 -5 109 18 73 64 C 36 110 18 181 18 275 C 18 362 35 431 70 481 C 104 531 150 557 206 557 C 266 557 314 534 350 489 C 386 443 405 377 405 290 C 405 198 387 125 353 73 C 318 21 271 -5 211 -5 Z M 212 93 C 235 93 252 106 264 133 C 276 160 282 209 282 281 C 282 350 275 397 263 421 C 251 445 233 458 210 458 C 188 458 171 445 159 420 C 147 395 142 349 142 281 C 142 243 143 212 147 188 C 150 163 155 144 161 130 C 167 116 174 106 183 101 C 191 95 201 93 212 93 Z M 213 612 L 213 612 Z M 325 612 L 211 612 L 99 786 L 236 786 L 325 612 Z" unicode="ò" />
<glyph horiz-adv-x="423" d="M 18 0 L 18 0 Z M 211 -5 C 155 -5 109 18 73 64 C 36 110 18 181 18 275 C 18 362 35 431 70 481 C 104 531 150 557 206 557 C 266 557 314 534 350 489 C 386 443 405 377 405 290 C 405 198 387 125 353 73 C 318 21 271 -5 211 -5 Z M 212 93 C 235 93 252 106 264 133 C 276 160 282 209 282 281 C 282 350 275 397 263 421 C 251 445 233 458 210 458 C 188 458 171 445 159 420 C 147 395 142 349 142 281 C 142 243 143 212 147 188 C 150 163 155 144 161 130 C 167 116 174 106 183 101 C 191 95 201 93 212 93 Z M 213 612 L 213 612 Z M 100 612 L 189 786 L 326 786 L 214 612 L 100 612 Z" unicode="ó" />
<glyph horiz-adv-x="423" d="M 18 0 L 18 0 Z M 211 -5 C 155 -5 109 18 73 64 C 36 110 18 181 18 275 C 18 362 35 431 70 481 C 104 531 150 557 206 557 C 266 557 314 534 350 489 C 386 443 405 377 405 290 C 405 198 387 125 353 73 C 318 21 271 -5 211 -5 Z M 212 93 C 235 93 252 106 264 133 C 276 160 282 209 282 281 C 282 350 275 397 263 421 C 251 445 233 458 210 458 C 188 458 171 445 159 420 C 147 395 142 349 142 281 C 142 243 143 212 147 188 C 150 163 155 144 161 130 C 167 116 174 106 183 101 C 191 95 201 93 212 93 Z M 213 613 L 213 613 Z M 362 613 L 263 613 L 213 700 L 162 613 L 65 613 L 163 786 L 264 786 L 362 613 Z" unicode="ô" />
<glyph horiz-adv-x="423" d="M 18 0 L 18 0 Z M 211 -5 C 155 -5 109 18 73 64 C 36 110 18 181 18 275 C 18 362 35 431 70 481 C 104 531 150 557 206 557 C 266 557 314 534 350 489 C 386 443 405 377 405 290 C 405 198 387 125 353 73 C 318 21 271 -5 211 -5 Z M 212 93 C 235 93 252 106 264 133 C 276 160 282 209 282 281 C 282 350 275 397 263 421 C 251 445 233 458 210 458 C 188 458 171 445 159 420 C 147 395 142 349 142 281 C 142 243 143 212 147 188 C 150 163 155 144 161 130 C 167 116 174 106 183 101 C 191 95 201 93 212 93 Z M 213 617 L 213 617 Z M 289 764 L 377 764 C 377 714 369 677 355 653 C 340 629 321 617 299 617 C 279 617 263 620 249 626 C 235 632 223 638 215 643 C 206 647 198 652 190 657 C 182 662 174 665 167 665 C 159 665 152 660 147 652 C 141 643 139 633 139 621 L 50 621 C 50 670 59 707 79 731 C 99 755 119 768 141 768 C 157 768 171 765 183 759 C 195 753 206 746 217 740 C 225 734 232 730 239 727 C 246 723 253 722 260 722 C 266 722 273 725 279 732 C 285 739 289 750 289 764 Z" unicode="õ" />
<glyph horiz-adv-x="423" d="M 18 0 L 18 0 Z M 211 -5 C 155 -5 109 18 73 64 C 36 110 18 181 18 275 C 18 362 35 431 70 481 C 104 531 150 557 206 557 C 266 557 314 534 350 489 C 386 443 405 377 405 290 C 405 198 387 125 353 73 C 318 21 271 -5 211 -5 Z M 212 93 C 235 93 252 106 264 133 C 276 160 282 209 282 281 C 282 350 275 397 263 421 C 251 445 233 458 210 458 C 188 458 171 445 159 420 C 147 395 142 349 142 281 C 142 243 143 212 147 188 C 150 163 155 144 161 130 C 167 116 174 106 183 101 C 191 95 201 93 212 93 Z M 213 613 L 213 613 Z M 341 613 L 245 613 L 245 773 L 341 773 L 341 613 Z M 181 613 L 85 613 L 85 773 L 181 773 L 181 613 Z" unicode="ö" />
<glyph horiz-adv-x="461" d="M 174 448 L 174 573 L 287 573 L 287 448 L 174 448 Z M 23 279 L 23 382 L 439 382 L 439 279 L 23 279 Z M 174 87 L 174 211 L 287 211 L 287 87 L 174 87 Z" unicode="÷" />
<glyph horiz-adv-x="423" d="M 211 -5 C 189 -5 169 -1 150 5 C 131 12 114 22 98 36 L 72 -8 L 24 22 L 60 83 C 47 105 37 133 29 165 C 21 197 18 233 18 275 C 18 362 35 431 70 481 C 104 531 150 557 206 557 C 228 557 249 553 269 547 C 288 541 306 531 322 519 L 351 568 L 399 538 L 361 475 C 375 453 385 426 393 395 C 401 364 405 329 405 290 C 405 198 387 125 353 73 C 318 21 271 -5 211 -5 Z M 142 281 C 142 270 142 260 142 250 C 142 240 143 230 144 222 L 263 422 C 257 435 249 444 240 450 C 231 455 221 458 210 458 C 188 458 171 445 159 420 C 147 395 142 349 142 281 Z M 282 281 C 282 291 281 302 281 312 C 281 322 280 331 280 340 L 158 136 C 164 120 172 108 181 102 C 190 96 200 93 212 93 C 235 93 252 106 264 133 C 276 160 282 209 282 281 Z" unicode="ø" />
<glyph horiz-adv-x="423" d="M 34 0 L 34 0 Z M 34 552 L 153 552 L 153 157 C 153 134 158 117 168 106 C 178 94 192 89 209 89 C 225 89 238 95 250 108 C 262 120 268 143 268 176 L 268 552 L 387 552 L 387 0 L 280 0 L 280 71 C 272 50 256 32 234 17 C 212 1 186 -6 156 -6 C 124 -6 95 5 71 27 C 46 49 34 82 34 126 L 34 552 Z M 210 612 L 210 612 Z M 322 612 L 208 612 L 96 786 L 233 786 L 322 612 Z" unicode="ù" />
<glyph horiz-adv-x="423" d="M 34 0 L 34 0 Z M 34 552 L 153 552 L 153 157 C 153 134 158 117 168 106 C 178 94 192 89 209 89 C 225 89 238 95 250 108 C 262 120 268 143 268 176 L 268 552 L 387 552 L 387 0 L 280 0 L 280 71 C 272 50 256 32 234 17 C 212 1 186 -6 156 -6 C 124 -6 95 5 71 27 C 46 49 34 82 34 126 L 34 552 Z M 210 612 L 210 612 Z M 97 612 L 186 786 L 323 786 L 211 612 L 97 612 Z" unicode="ú" />
<glyph horiz-adv-x="423" d="M 34 0 L 34 0 Z M 34 552 L 153 552 L 153 157 C 153 134 158 117 168 106 C 178 94 192 89 209 89 C 225 89 238 95 250 108 C 262 120 268 143 268 176 L 268 552 L 387 552 L 387 0 L 280 0 L 280 71 C 272 50 256 32 234 17 C 212 1 186 -6 156 -6 C 124 -6 95 5 71 27 C 46 49 34 82 34 126 L 34 552 Z M 210 613 L 210 613 Z M 359 613 L 260 613 L 210 700 L 159 613 L 62 613 L 160 786 L 261 786 L 359 613 Z" unicode="û" />
<glyph horiz-adv-x="423" d="M 34 0 L 34 0 Z M 34 552 L 153 552 L 153 157 C 153 134 158 117 168 106 C 178 94 192 89 209 89 C 225 89 238 95 250 108 C 262 120 268 143 268 176 L 268 552 L 387 552 L 387 0 L 280 0 L 280 71 C 272 50 256 32 234 17 C 212 1 186 -6 156 -6 C 124 -6 95 5 71 27 C 46 49 34 82 34 126 L 34 552 Z M 210 613 L 210 613 Z M 338 613 L 242 613 L 242 773 L 338 773 L 338 613 Z M 178 613 L 82 613 L 82 773 L 178 773 L 178 613 Z" unicode="ü" />
<glyph horiz-adv-x="366" d="M 0 0 L 0 0 Z M 371 552 L 201 -91 C 192 -125 175 -151 151 -171 C 126 -190 98 -200 67 -200 C 38 -200 15 -196 -2 -190 C -20 -184 -32 -178 -38 -173 L 3 -90 C 6 -92 13 -95 24 -99 C 34 -103 44 -105 53 -105 C 66 -105 77 -99 87 -89 C 97 -79 104 -64 109 -45 L 130 45 L -5 552 L 115 552 L 189 212 L 263 552 L 371 552 Z M 188 612 L 188 612 Z M 75 612 L 164 786 L 301 786 L 189 612 L 75 612 Z" unicode="ý" />
<glyph horiz-adv-x="428" d="M 36 -200 L 36 800 L 145 800 L 145 470 C 151 494 165 515 186 532 C 207 548 232 557 261 557 C 286 557 308 550 327 537 C 345 524 361 506 373 483 C 385 460 394 433 400 401 C 406 369 409 334 409 297 C 409 201 395 126 367 74 C 339 22 302 -4 254 -4 C 229 -4 207 1 188 12 C 168 23 155 38 147 57 L 147 -200 L 36 -200 Z M 210 88 C 232 88 250 101 264 128 C 277 154 284 201 284 269 C 284 331 278 376 267 406 C 255 436 237 451 212 451 C 203 451 194 448 186 444 C 178 439 170 430 164 416 C 157 402 152 383 148 358 C 144 333 143 301 143 262 C 143 225 144 195 148 173 C 151 150 156 132 162 120 C 168 107 175 98 183 94 C 191 90 200 88 210 88 Z" unicode="þ" />
<glyph horiz-adv-x="366" d="M 0 0 L 0 0 Z M 371 552 L 201 -91 C 192 -125 175 -151 151 -171 C 126 -190 98 -200 67 -200 C 38 -200 15 -196 -2 -190 C -20 -184 -32 -178 -38 -173 L 3 -90 C 6 -92 13 -95 24 -99 C 34 -103 44 -105 53 -105 C 66 -105 77 -99 87 -89 C 97 -79 104 -64 109 -45 L 130 45 L -5 552 L 115 552 L 189 212 L 263 552 L 371 552 Z M 188 613 L 188 613 Z M 316 613 L 220 613 L 220 773 L 316 773 L 316 613 Z M 156 613 L 60 613 L 60 773 L 156 773 L 156 613 Z" unicode="ÿ" />
<glyph horiz-adv-x="493" d="M 0 0 L 0 0 Z M 494 0 L 371 0 L 330 155 L 157 155 L 118 0 L -1 0 L 201 734 L 292 734 L 494 0 Z M 315 248 L 242 523 L 172 248 L 315 248 Z M 247 800 L 247 800 Z M 376 800 L 118 800 L 118 897 L 376 897 L 376 800 Z" unicode="Ā" />
<glyph horiz-adv-x="391" d="M 16 0 L 16 0 Z M 357 0 L 257 0 L 257 47 C 239 27 223 14 207 6 C 191 -1 169 -5 141 -5 C 103 -5 72 10 50 42 C 27 73 16 116 16 170 C 16 230 31 274 62 302 C 93 329 131 344 175 347 L 245 352 L 245 389 C 245 412 239 430 227 442 C 215 454 199 460 177 460 C 155 460 135 456 118 448 C 100 440 87 432 78 424 L 46 517 C 60 527 80 537 106 547 C 132 557 164 562 204 562 C 250 562 287 548 315 522 C 343 496 357 459 357 412 L 357 0 Z M 247 119 L 247 275 L 202 271 C 181 269 164 260 150 244 C 136 228 130 202 130 168 C 130 136 135 114 147 101 C 159 88 171 82 185 82 C 201 82 213 85 223 93 C 232 100 240 109 247 119 Z M 195 622 L 195 622 Z M 324 622 L 66 622 L 66 719 L 324 719 L 324 622 Z" unicode="ā" />
<glyph horiz-adv-x="493" d="M 0 0 L 0 0 Z M 494 0 L 371 0 L 330 155 L 157 155 L 118 0 L -1 0 L 201 734 L 292 734 L 494 0 Z M 315 248 L 242 523 L 172 248 L 315 248 Z M 247 793 L 247 793 Z M 295 953 L 393 953 C 388 897 373 856 347 831 C 321 805 287 793 247 793 C 206 793 173 805 147 831 C 121 856 106 897 102 953 L 200 953 C 201 930 205 912 212 899 C 218 886 230 880 247 880 C 263 880 275 886 282 899 C 289 911 293 929 295 953 Z" unicode="Ă" />
<glyph horiz-adv-x="391" d="M 16 0 L 16 0 Z M 357 0 L 257 0 L 257 47 C 239 27 223 14 207 6 C 191 -1 169 -5 141 -5 C 103 -5 72 10 50 42 C 27 73 16 116 16 170 C 16 230 31 274 62 302 C 93 329 131 344 175 347 L 245 352 L 245 389 C 245 412 239 430 227 442 C 215 454 199 460 177 460 C 155 460 135 456 118 448 C 100 440 87 432 78 424 L 46 517 C 60 527 80 537 106 547 C 132 557 164 562 204 562 C 250 562 287 548 315 522 C 343 496 357 459 357 412 L 357 0 Z M 247 119 L 247 275 L 202 271 C 181 269 164 260 150 244 C 136 228 130 202 130 168 C 130 136 135 114 147 101 C 159 88 171 82 185 82 C 201 82 213 85 223 93 C 232 100 240 109 247 119 Z M 195 615 L 195 615 Z M 243 775 L 341 775 C 336 719 321 678 295 653 C 269 627 235 615 195 615 C 154 615 121 627 95 653 C 69 678 54 719 50 775 L 148 775 C 149 752 153 734 160 721 C 166 708 178 702 195 702 C 211 702 223 708 230 721 C 237 733 241 751 243 775 Z" unicode="ă" />
<glyph horiz-adv-x="493" d="M 0 0 L 0 0 Z M 494 0 L 371 0 L 330 155 L 157 155 L 118 0 L -1 0 L 201 734 L 292 734 L 494 0 Z M 315 248 L 242 523 L 172 248 L 315 248 Z M 381 -7 L 381 -7 Z M 474 -82 L 507 -132 C 486 -154 464 -171 440 -182 C 416 -193 389 -199 360 -199 C 326 -199 301 -191 283 -177 C 265 -162 256 -143 256 -121 C 256 -95 267 -72 289 -50 C 311 -28 344 -9 388 6 L 432 6 C 406 -6 388 -19 376 -33 C 364 -46 358 -59 358 -72 C 358 -84 361 -93 369 -100 C 377 -107 387 -111 400 -111 C 415 -111 429 -108 442 -103 C 454 -97 465 -90 474 -82 Z" unicode="Ą" />
<glyph horiz-adv-x="391" d="M 16 0 L 16 0 Z M 357 0 L 257 0 L 257 47 C 239 27 223 14 207 6 C 191 -1 169 -5 141 -5 C 103 -5 72 10 50 42 C 27 73 16 116 16 170 C 16 230 31 274 62 302 C 93 329 131 344 175 347 L 245 352 L 245 389 C 245 412 239 430 227 442 C 215 454 199 460 177 460 C 155 460 135 456 118 448 C 100 440 87 432 78 424 L 46 517 C 60 527 80 537 106 547 C 132 557 164 562 204 562 C 250 562 287 548 315 522 C 343 496 357 459 357 412 L 357 0 Z M 247 119 L 247 275 L 202 271 C 181 269 164 260 150 244 C 136 228 130 202 130 168 C 130 136 135 114 147 101 C 159 88 171 82 185 82 C 201 82 213 85 223 93 C 232 100 240 109 247 119 Z M 266 -7 L 266 -7 Z M 359 -82 L 392 -132 C 371 -154 349 -171 325 -182 C 301 -193 274 -199 245 -199 C 211 -199 186 -191 168 -177 C 150 -162 141 -143 141 -121 C 141 -95 152 -72 174 -50 C 196 -28 229 -9 273 6 L 317 6 C 291 -6 273 -19 261 -33 C 249 -46 243 -59 243 -72 C 243 -84 246 -93 254 -100 C 262 -107 272 -111 285 -111 C 300 -111 314 -108 327 -103 C 339 -97 350 -90 359 -82 Z" unicode="ą" />
<glyph horiz-adv-x="532" d="M 29 0 L 29 0 Z M 281 -7 C 205 -7 144 24 98 86 C 52 148 29 241 29 366 C 29 482 50 572 93 638 C 135 704 198 737 282 737 C 346 737 394 720 427 687 C 460 653 483 611 495 559 L 381 526 C 372 555 361 579 347 599 C 333 619 311 629 283 629 C 263 629 246 624 230 616 C 214 607 201 592 191 572 C 180 551 172 523 166 489 C 160 455 158 412 158 362 C 158 310 161 268 169 234 C 177 200 187 173 199 153 C 211 133 226 120 242 112 C 258 104 274 100 291 100 C 323 100 348 110 364 130 C 380 150 392 177 402 210 L 505 169 C 487 112 460 68 422 38 C 384 8 337 -7 281 -7 Z M 289 790 L 289 790 Z M 176 790 L 265 964 L 402 964 L 290 790 L 176 790 Z" unicode="Ć" />
<glyph horiz-adv-x="366" d="M 18 0 L 18 0 Z M 304 133 L 356 64 C 342 45 325 29 303 15 C 281 1 253 -5 217 -5 C 185 -5 156 2 131 16 C 106 30 85 50 69 75 C 52 99 39 129 31 163 C 22 197 18 235 18 275 C 18 312 22 348 30 382 C 38 416 51 446 67 472 C 83 498 104 518 129 534 C 154 549 183 557 216 557 C 253 557 284 548 308 531 C 332 514 349 496 360 476 L 289 411 C 281 423 272 434 261 442 C 250 450 237 454 222 454 C 197 454 178 439 164 410 C 150 380 143 338 143 282 C 143 213 152 164 171 136 C 190 108 212 94 237 94 C 253 94 267 98 278 107 C 288 115 297 124 304 133 Z M 211 612 L 211 612 Z M 98 612 L 187 786 L 324 786 L 212 612 L 98 612 Z" unicode="ć" />
<glyph horiz-adv-x="532" d="M 29 0 L 29 0 Z M 281 -7 C 205 -7 144 24 98 86 C 52 148 29 241 29 366 C 29 482 50 572 93 638 C 135 704 198 737 282 737 C 346 737 394 720 427 687 C 460 653 483 611 495 559 L 381 526 C 372 555 361 579 347 599 C 333 619 311 629 283 629 C 263 629 246 624 230 616 C 214 607 201 592 191 572 C 180 551 172 523 166 489 C 160 455 158 412 158 362 C 158 310 161 268 169 234 C 177 200 187 173 199 153 C 211 133 226 120 242 112 C 258 104 274 100 291 100 C 323 100 348 110 364 130 C 380 150 392 177 402 210 L 505 169 C 487 112 460 68 422 38 C 384 8 337 -7 281 -7 Z M 289 791 L 289 791 Z M 438 791 L 339 791 L 289 878 L 238 791 L 141 791 L 239 964 L 340 964 L 438 791 Z" unicode="Ĉ" />
<glyph horiz-adv-x="366" d="M 18 0 L 18 0 Z M 304 133 L 356 64 C 342 45 325 29 303 15 C 281 1 253 -5 217 -5 C 185 -5 156 2 131 16 C 106 30 85 50 69 75 C 52 99 39 129 31 163 C 22 197 18 235 18 275 C 18 312 22 348 30 382 C 38 416 51 446 67 472 C 83 498 104 518 129 534 C 154 549 183 557 216 557 C 253 557 284 548 308 531 C 332 514 349 496 360 476 L 289 411 C 281 423 272 434 261 442 C 250 450 237 454 222 454 C 197 454 178 439 164 410 C 150 380 143 338 143 282 C 143 213 152 164 171 136 C 190 108 212 94 237 94 C 253 94 267 98 278 107 C 288 115 297 124 304 133 Z M 211 613 L 211 613 Z M 360 613 L 261 613 L 211 700 L 160 613 L 63 613 L 161 786 L 262 786 L 360 613 Z" unicode="ĉ" />
<glyph horiz-adv-x="532" d="M 29 0 L 29 0 Z M 281 -7 C 205 -7 144 24 98 86 C 52 148 29 241 29 366 C 29 482 50 572 93 638 C 135 704 198 737 282 737 C 346 737 394 720 427 687 C 460 653 483 611 495 559 L 381 526 C 372 555 361 579 347 599 C 333 619 311 629 283 629 C 263 629 246 624 230 616 C 214 607 201 592 191 572 C 180 551 172 523 166 489 C 160 455 158 412 158 362 C 158 310 161 268 169 234 C 177 200 187 173 199 153 C 211 133 226 120 242 112 C 258 104 274 100 291 100 C 323 100 348 110 364 130 C 380 150 392 177 402 210 L 505 169 C 487 112 460 68 422 38 C 384 8 337 -7 281 -7 Z M 289 794 L 289 794 Z M 344 794 L 235 794 L 235 924 L 344 924 L 344 794 Z" unicode="Ċ" />
<glyph horiz-adv-x="366" d="M 18 0 L 18 0 Z M 304 133 L 356 64 C 342 45 325 29 303 15 C 281 1 253 -5 217 -5 C 185 -5 156 2 131 16 C 106 30 85 50 69 75 C 52 99 39 129 31 163 C 22 197 18 235 18 275 C 18 312 22 348 30 382 C 38 416 51 446 67 472 C 83 498 104 518 129 534 C 154 549 183 557 216 557 C 253 557 284 548 308 531 C 332 514 349 496 360 476 L 289 411 C 281 423 272 434 261 442 C 250 450 237 454 222 454 C 197 454 178 439 164 410 C 150 380 143 338 143 282 C 143 213 152 164 171 136 C 190 108 212 94 237 94 C 253 94 267 98 278 107 C 288 115 297 124 304 133 Z M 211 616 L 211 616 Z M 266 616 L 157 616 L 157 746 L 266 746 L 266 616 Z" unicode="ċ" />
<glyph horiz-adv-x="532" d="M 29 0 L 29 0 Z M 281 -7 C 205 -7 144 24 98 86 C 52 148 29 241 29 366 C 29 482 50 572 93 638 C 135 704 198 737 282 737 C 346 737 394 720 427 687 C 460 653 483 611 495 559 L 381 526 C 372 555 361 579 347 599 C 333 619 311 629 283 629 C 263 629 246 624 230 616 C 214 607 201 592 191 572 C 180 551 172 523 166 489 C 160 455 158 412 158 362 C 158 310 161 268 169 234 C 177 200 187 173 199 153 C 211 133 226 120 242 112 C 258 104 274 100 291 100 C 323 100 348 110 364 130 C 380 150 392 177 402 210 L 505 169 C 487 112 460 68 422 38 C 384 8 337 -7 281 -7 Z M 289 791 L 289 791 Z M 141 964 L 240 964 L 290 877 L 341 964 L 438 964 L 340 791 L 239 791 L 141 964 Z" unicode="Č" />
<glyph horiz-adv-x="366" d="M 18 0 L 18 0 Z M 304 133 L 356 64 C 342 45 325 29 303 15 C 281 1 253 -5 217 -5 C 185 -5 156 2 131 16 C 106 30 85 50 69 75 C 52 99 39 129 31 163 C 22 197 18 235 18 275 C 18 312 22 348 30 382 C 38 416 51 446 67 472 C 83 498 104 518 129 534 C 154 549 183 557 216 557 C 253 557 284 548 308 531 C 332 514 349 496 360 476 L 289 411 C 281 423 272 434 261 442 C 250 450 237 454 222 454 C 197 454 178 439 164 410 C 150 380 143 338 143 282 C 143 213 152 164 171 136 C 190 108 212 94 237 94 C 253 94 267 98 278 107 C 288 115 297 124 304 133 Z M 211 613 L 211 613 Z M 63 786 L 162 786 L 212 699 L 263 786 L 360 786 L 262 613 L 161 613 L 63 786 Z" unicode="č" />
<glyph horiz-adv-x="545" d="M 51 0 L 51 0 Z M 51 0 L 51 730 L 227 730 C 273 730 315 721 351 703 C 387 685 418 660 442 628 C 466 596 484 557 497 511 C 509 465 516 415 516 361 C 516 310 510 263 498 219 C 486 175 467 136 443 104 C 418 72 387 46 350 28 C 312 9 269 0 219 0 L 51 0 Z M 179 107 L 225 107 C 283 107 324 129 348 173 C 372 217 384 280 384 360 C 384 453 370 520 343 561 C 316 602 279 623 231 623 L 179 623 L 179 107 Z M 254 791 L 254 791 Z M 106 964 L 205 964 L 255 877 L 306 964 L 403 964 L 305 791 L 204 791 L 106 964 Z" unicode="Ď" />
<glyph horiz-adv-x="438" d="M 19 0 L 19 0 Z M 181 -5 C 156 -5 134 1 114 15 C 94 29 77 48 63 72 C 49 96 38 125 30 159 C 22 193 19 229 19 269 C 19 356 34 425 64 476 C 94 527 133 553 181 553 C 207 553 231 544 251 527 C 271 509 284 488 291 464 L 291 800 L 402 800 L 402 0 L 297 0 L 297 62 C 291 46 277 30 257 16 C 237 2 211 -5 181 -5 Z M 220 89 C 242 89 260 103 273 132 C 286 160 293 209 293 279 C 293 348 285 394 271 417 C 257 440 239 452 219 452 C 196 452 178 439 165 413 C 151 387 145 341 145 275 C 145 206 151 158 164 130 C 177 102 196 89 220 89 Z M 550 621 L 545 473 L 443 473 L 438 621 L 438 730 L 550 730 L 550 621 Z" unicode="ď" />
<glyph horiz-adv-x="545" d="M 12 0 L 12 0 Z M 514 361 C 514 310 508 263 496 219 C 484 175 465 136 441 104 C 416 72 385 46 348 28 C 310 9 267 0 217 0 L 49 0 L 49 307 L 12 307 L 12 407 L 49 407 L 49 730 L 226 730 C 272 730 314 721 350 703 C 386 685 416 660 440 628 C 464 596 482 557 495 511 C 507 465 514 415 514 361 Z M 178 101 L 224 101 C 282 101 323 123 347 169 C 371 214 383 277 383 359 C 383 454 369 523 342 565 C 314 607 277 629 229 629 L 178 629 L 178 407 L 279 407 L 279 307 L 178 307 L 178 101 Z" unicode="Đ" />
<glyph horiz-adv-x="438" d="M 297 62 C 291 46 277 30 257 16 C 237 2 211 -5 181 -5 C 156 -5 134 1 114 15 C 94 29 77 48 63 72 C 49 96 38 125 30 159 C 22 193 19 229 19 269 C 19 356 34 425 64 476 C 94 527 133 553 181 553 C 207 553 231 544 251 527 C 271 509 284 488 291 464 L 291 616 L 217 616 L 217 711 L 291 711 L 291 800 L 402 800 L 402 711 L 438 711 L 438 616 L 402 616 L 402 0 L 297 0 L 297 62 Z M 220 89 C 242 89 260 103 273 132 C 286 160 293 209 293 279 C 293 348 285 394 271 417 C 257 440 239 452 219 452 C 196 452 178 439 165 413 C 151 387 145 341 145 275 C 145 206 151 158 164 130 C 177 102 196 89 220 89 Z" unicode="đ" />
<glyph horiz-adv-x="404" d="M 51 0 L 51 0 Z M 394 0 L 51 0 L 51 730 L 375 730 L 375 619 L 177 619 L 177 419 L 366 419 L 366 310 L 177 310 L 177 111 L 394 111 L 394 0 Z M 213 800 L 213 800 Z M 342 800 L 84 800 L 84 897 L 342 897 L 342 800 Z" unicode="Ē" />
<glyph horiz-adv-x="406" d="M 18 0 L 18 0 Z M 208 -5 C 151 -5 105 20 70 70 C 35 120 18 187 18 271 C 18 360 35 430 71 480 C 107 530 151 556 205 556 C 267 556 314 528 345 474 C 376 420 392 344 392 247 L 137 247 C 137 205 145 169 161 139 C 177 109 202 95 235 95 C 257 95 277 101 293 114 C 309 126 322 139 332 151 L 380 88 C 372 78 363 67 352 56 C 341 45 329 35 315 26 C 301 17 285 10 267 4 C 249 -2 229 -5 208 -5 Z M 134 327 L 278 327 C 278 371 271 405 259 427 C 247 449 230 460 210 460 C 188 460 171 449 157 427 C 143 405 135 372 134 327 Z M 208 622 L 208 622 Z M 337 622 L 79 622 L 79 719 L 337 719 L 337 622 Z" unicode="ē" />
<glyph horiz-adv-x="404" d="M 51 0 L 51 0 Z M 394 0 L 51 0 L 51 730 L 375 730 L 375 619 L 177 619 L 177 419 L 366 419 L 366 310 L 177 310 L 177 111 L 394 111 L 394 0 Z M 213 793 L 213 793 Z M 261 953 L 359 953 C 354 897 339 856 313 831 C 287 805 253 793 213 793 C 172 793 139 805 113 831 C 87 856 72 897 68 953 L 166 953 C 167 930 171 912 178 899 C 184 886 196 880 213 880 C 229 880 241 886 248 899 C 255 911 259 929 261 953 Z" unicode="Ĕ" />
<glyph horiz-adv-x="406" d="M 18 0 L 18 0 Z M 208 -5 C 151 -5 105 20 70 70 C 35 120 18 187 18 271 C 18 360 35 430 71 480 C 107 530 151 556 205 556 C 267 556 314 528 345 474 C 376 420 392 344 392 247 L 137 247 C 137 205 145 169 161 139 C 177 109 202 95 235 95 C 257 95 277 101 293 114 C 309 126 322 139 332 151 L 380 88 C 372 78 363 67 352 56 C 341 45 329 35 315 26 C 301 17 285 10 267 4 C 249 -2 229 -5 208 -5 Z M 134 327 L 278 327 C 278 371 271 405 259 427 C 247 449 230 460 210 460 C 188 460 171 449 157 427 C 143 405 135 372 134 327 Z M 208 615 L 208 615 Z M 256 775 L 354 775 C 349 719 334 678 308 653 C 282 627 248 615 208 615 C 167 615 134 627 108 653 C 82 678 67 719 63 775 L 161 775 C 162 752 166 734 173 721 C 179 708 191 702 208 702 C 224 702 236 708 243 721 C 250 733 254 751 256 775 Z" unicode="ĕ" />
<glyph horiz-adv-x="404" d="M 51 0 L 51 0 Z M 394 0 L 51 0 L 51 730 L 375 730 L 375 619 L 177 619 L 177 419 L 366 419 L 366 310 L 177 310 L 177 111 L 394 111 L 394 0 Z M 213 794 L 213 794 Z M 268 794 L 159 794 L 159 924 L 268 924 L 268 794 Z" unicode="Ė" />
<glyph horiz-adv-x="406" d="M 18 0 L 18 0 Z M 208 -5 C 151 -5 105 20 70 70 C 35 120 18 187 18 271 C 18 360 35 430 71 480 C 107 530 151 556 205 556 C 267 556 314 528 345 474 C 376 420 392 344 392 247 L 137 247 C 137 205 145 169 161 139 C 177 109 202 95 235 95 C 257 95 277 101 293 114 C 309 126 322 139 332 151 L 380 88 C 372 78 363 67 352 56 C 341 45 329 35 315 26 C 301 17 285 10 267 4 C 249 -2 229 -5 208 -5 Z M 134 327 L 278 327 C 278 371 271 405 259 427 C 247 449 230 460 210 460 C 188 460 171 449 157 427 C 143 405 135 372 134 327 Z M 208 616 L 208 616 Z M 263 616 L 154 616 L 154 746 L 263 746 L 263 616 Z" unicode="ė" />
<glyph horiz-adv-x="404" d="M 51 0 L 51 0 Z M 394 0 L 51 0 L 51 730 L 375 730 L 375 619 L 177 619 L 177 419 L 366 419 L 366 310 L 177 310 L 177 111 L 394 111 L 394 0 Z M 343 -7 L 343 -7 Z M 436 -82 L 469 -132 C 448 -154 426 -171 402 -182 C 378 -193 351 -199 322 -199 C 288 -199 263 -191 245 -177 C 227 -162 218 -143 218 -121 C 218 -95 229 -72 251 -50 C 273 -28 306 -9 350 6 L 394 6 C 368 -6 350 -19 338 -33 C 326 -46 320 -59 320 -72 C 320 -84 323 -93 331 -100 C 339 -107 349 -111 362 -111 C 377 -111 391 -108 404 -103 C 416 -97 427 -90 436 -82 Z" unicode="Ę" />
<glyph horiz-adv-x="406" d="M 18 0 L 18 0 Z M 208 -5 C 151 -5 105 20 70 70 C 35 120 18 187 18 271 C 18 360 35 430 71 480 C 107 530 151 556 205 556 C 267 556 314 528 345 474 C 376 420 392 344 392 247 L 137 247 C 137 205 145 169 161 139 C 177 109 202 95 235 95 C 257 95 277 101 293 114 C 309 126 322 139 332 151 L 380 88 C 372 78 363 67 352 56 C 341 45 329 35 315 26 C 301 17 285 10 267 4 C 249 -2 229 -5 208 -5 Z M 134 327 L 278 327 C 278 371 271 405 259 427 C 247 449 230 460 210 460 C 188 460 171 449 157 427 C 143 405 135 372 134 327 Z M 223 -7 L 223 -7 Z M 316 -82 L 349 -132 C 328 -154 306 -171 282 -182 C 258 -193 231 -199 202 -199 C 168 -199 143 -191 125 -177 C 107 -162 98 -143 98 -121 C 98 -95 109 -72 131 -50 C 153 -28 186 -9 230 6 L 274 6 C 248 -6 230 -19 218 -33 C 206 -46 200 -59 200 -72 C 200 -84 203 -93 211 -100 C 219 -107 229 -111 242 -111 C 257 -111 271 -108 284 -103 C 296 -97 307 -90 316 -82 Z" unicode="ę" />
<glyph horiz-adv-x="404" d="M 51 0 L 51 0 Z M 394 0 L 51 0 L 51 730 L 375 730 L 375 619 L 177 619 L 177 419 L 366 419 L 366 310 L 177 310 L 177 111 L 394 111 L 394 0 Z M 213 791 L 213 791 Z M 65 964 L 164 964 L 214 877 L 265 964 L 362 964 L 264 791 L 163 791 L 65 964 Z" unicode="Ě" />
<glyph horiz-adv-x="406" d="M 18 0 L 18 0 Z M 208 -5 C 151 -5 105 20 70 70 C 35 120 18 187 18 271 C 18 360 35 430 71 480 C 107 530 151 556 205 556 C 267 556 314 528 345 474 C 376 420 392 344 392 247 L 137 247 C 137 205 145 169 161 139 C 177 109 202 95 235 95 C 257 95 277 101 293 114 C 309 126 322 139 332 151 L 380 88 C 372 78 363 67 352 56 C 341 45 329 35 315 26 C 301 17 285 10 267 4 C 249 -2 229 -5 208 -5 Z M 134 327 L 278 327 C 278 371 271 405 259 427 C 247 449 230 460 210 460 C 188 460 171 449 157 427 C 143 405 135 372 134 327 Z M 208 613 L 208 613 Z M 60 786 L 159 786 L 209 699 L 260 786 L 357 786 L 259 613 L 158 613 L 60 786 Z" unicode="ě" />
<glyph horiz-adv-x="537" d="M 29 0 L 29 0 Z M 277 375 L 506 375 L 506 117 C 488 81 461 51 423 28 C 385 4 338 -7 281 -7 C 246 -7 213 1 183 17 C 152 33 125 57 103 89 C 80 120 62 159 49 205 C 35 251 29 305 29 365 C 29 421 34 473 46 519 C 58 565 74 604 96 636 C 118 668 144 692 176 710 C 207 727 242 736 281 736 C 341 736 387 722 419 696 C 451 669 475 634 490 592 L 386 537 C 377 562 365 583 349 601 C 333 618 313 627 289 627 C 249 627 217 606 194 565 C 170 524 159 456 159 361 C 159 263 171 194 196 154 C 220 114 250 94 284 94 C 310 94 333 98 351 106 C 369 114 383 128 392 148 L 392 273 L 277 273 L 277 375 Z M 286 791 L 286 791 Z M 435 791 L 336 791 L 286 878 L 235 791 L 138 791 L 236 964 L 337 964 L 435 791 Z" unicode="Ĝ" />
<glyph horiz-adv-x="436" d="M 20 0 L 20 0 Z M 179 18 C 134 18 96 41 66 88 C 35 135 20 200 20 284 C 20 328 24 367 33 401 C 41 435 53 463 67 486 C 81 509 98 527 118 539 C 138 551 158 557 180 557 C 209 557 233 548 252 532 C 271 516 285 498 294 478 L 294 552 L 400 552 L 400 13 C 400 -23 394 -55 382 -81 C 370 -107 354 -129 335 -146 C 315 -163 293 -176 268 -184 C 243 -192 218 -196 193 -196 C 156 -196 125 -192 100 -185 C 75 -177 56 -169 44 -161 L 80 -73 C 94 -79 108 -83 124 -87 C 140 -91 160 -93 184 -93 C 214 -93 239 -82 259 -62 C 279 -42 289 -12 289 27 L 289 102 C 281 79 267 59 249 43 C 230 26 207 18 179 18 Z M 218 113 C 241 113 259 125 272 151 C 285 176 292 222 292 288 C 292 352 284 395 269 419 C 253 443 236 455 217 455 C 194 455 176 441 163 415 C 150 389 144 346 144 287 C 144 227 150 183 162 155 C 174 127 192 113 218 113 Z M 214 613 L 214 613 Z M 363 613 L 264 613 L 214 700 L 163 613 L 66 613 L 164 786 L 265 786 L 363 613 Z" unicode="ĝ" />
<glyph horiz-adv-x="537" d="M 29 0 L 29 0 Z M 277 375 L 506 375 L 506 117 C 488 81 461 51 423 28 C 385 4 338 -7 281 -7 C 246 -7 213 1 183 17 C 152 33 125 57 103 89 C 80 120 62 159 49 205 C 35 251 29 305 29 365 C 29 421 34 473 46 519 C 58 565 74 604 96 636 C 118 668 144 692 176 710 C 207 727 242 736 281 736 C 341 736 387 722 419 696 C 451 669 475 634 490 592 L 386 537 C 377 562 365 583 349 601 C 333 618 313 627 289 627 C 249 627 217 606 194 565 C 170 524 159 456 159 361 C 159 263 171 194 196 154 C 220 114 250 94 284 94 C 310 94 333 98 351 106 C 369 114 383 128 392 148 L 392 273 L 277 273 L 277 375 Z M 286 793 L 286 793 Z M 334 953 L 432 953 C 427 897 412 856 386 831 C 360 805 326 793 286 793 C 245 793 212 805 186 831 C 160 856 145 897 141 953 L 239 953 C 240 930 244 912 251 899 C 257 886 269 880 286 880 C 302 880 314 886 321 899 C 328 911 332 929 334 953 Z" unicode="Ğ" />
<glyph horiz-adv-x="436" d="M 20 0 L 20 0 Z M 179 18 C 134 18 96 41 66 88 C 35 135 20 200 20 284 C 20 328 24 367 33 401 C 41 435 53 463 67 486 C 81 509 98 527 118 539 C 138 551 158 557 180 557 C 209 557 233 548 252 532 C 271 516 285 498 294 478 L 294 552 L 400 552 L 400 13 C 400 -23 394 -55 382 -81 C 370 -107 354 -129 335 -146 C 315 -163 293 -176 268 -184 C 243 -192 218 -196 193 -196 C 156 -196 125 -192 100 -185 C 75 -177 56 -169 44 -161 L 80 -73 C 94 -79 108 -83 124 -87 C 140 -91 160 -93 184 -93 C 214 -93 239 -82 259 -62 C 279 -42 289 -12 289 27 L 289 102 C 281 79 267 59 249 43 C 230 26 207 18 179 18 Z M 218 113 C 241 113 259 125 272 151 C 285 176 292 222 292 288 C 292 352 284 395 269 419 C 253 443 236 455 217 455 C 194 455 176 441 163 415 C 150 389 144 346 144 287 C 144 227 150 183 162 155 C 174 127 192 113 218 113 Z M 214 615 L 214 615 Z M 262 775 L 360 775 C 355 719 340 678 314 653 C 288 627 254 615 214 615 C 173 615 140 627 114 653 C 88 678 73 719 69 775 L 167 775 C 168 752 172 734 179 721 C 185 708 197 702 214 702 C 230 702 242 708 249 721 C 256 733 260 751 262 775 Z" unicode="ğ" />
<glyph horiz-adv-x="537" d="M 29 0 L 29 0 Z M 277 375 L 506 375 L 506 117 C 488 81 461 51 423 28 C 385 4 338 -7 281 -7 C 246 -7 213 1 183 17 C 152 33 125 57 103 89 C 80 120 62 159 49 205 C 35 251 29 305 29 365 C 29 421 34 473 46 519 C 58 565 74 604 96 636 C 118 668 144 692 176 710 C 207 727 242 736 281 736 C 341 736 387 722 419 696 C 451 669 475 634 490 592 L 386 537 C 377 562 365 583 349 601 C 333 618 313 627 289 627 C 249 627 217 606 194 565 C 170 524 159 456 159 361 C 159 263 171 194 196 154 C 220 114 250 94 284 94 C 310 94 333 98 351 106 C 369 114 383 128 392 148 L 392 273 L 277 273 L 277 375 Z M 286 794 L 286 794 Z M 341 794 L 232 794 L 232 924 L 341 924 L 341 794 Z" unicode="Ġ" />
<glyph horiz-adv-x="436" d="M 20 0 L 20 0 Z M 179 18 C 134 18 96 41 66 88 C 35 135 20 200 20 284 C 20 328 24 367 33 401 C 41 435 53 463 67 486 C 81 509 98 527 118 539 C 138 551 158 557 180 557 C 209 557 233 548 252 532 C 271 516 285 498 294 478 L 294 552 L 400 552 L 400 13 C 400 -23 394 -55 382 -81 C 370 -107 354 -129 335 -146 C 315 -163 293 -176 268 -184 C 243 -192 218 -196 193 -196 C 156 -196 125 -192 100 -185 C 75 -177 56 -169 44 -161 L 80 -73 C 94 -79 108 -83 124 -87 C 140 -91 160 -93 184 -93 C 214 -93 239 -82 259 -62 C 279 -42 289 -12 289 27 L 289 102 C 281 79 267 59 249 43 C 230 26 207 18 179 18 Z M 218 113 C 241 113 259 125 272 151 C 285 176 292 222 292 288 C 292 352 284 395 269 419 C 253 443 236 455 217 455 C 194 455 176 441 163 415 C 150 389 144 346 144 287 C 144 227 150 183 162 155 C 174 127 192 113 218 113 Z M 214 616 L 214 616 Z M 269 616 L 160 616 L 160 746 L 269 746 L 269 616 Z" unicode="ġ" />
<glyph horiz-adv-x="537" d="M 29 0 L 29 0 Z M 277 375 L 506 375 L 506 117 C 488 81 461 51 423 28 C 385 4 338 -7 281 -7 C 246 -7 213 1 183 17 C 152 33 125 57 103 89 C 80 120 62 159 49 205 C 35 251 29 305 29 365 C 29 421 34 473 46 519 C 58 565 74 604 96 636 C 118 668 144 692 176 710 C 207 727 242 736 281 736 C 341 736 387 722 419 696 C 451 669 475 634 490 592 L 386 537 C 377 562 365 583 349 601 C 333 618 313 627 289 627 C 249 627 217 606 194 565 C 170 524 159 456 159 361 C 159 263 171 194 196 154 C 220 114 250 94 284 94 C 310 94 333 98 351 106 C 369 114 383 128 392 148 L 392 273 L 277 273 L 277 375 Z M 280 -70 L 280 -70 Z M 377 -70 C 377 -92 373 -117 366 -143 C 359 -169 351 -195 341 -219 C 331 -243 320 -264 308 -284 C 296 -304 285 -318 275 -328 L 184 -288 C 191 -278 198 -266 206 -250 C 214 -234 221 -216 228 -197 C 234 -177 240 -157 245 -135 C 249 -113 252 -91 253 -70 L 377 -70 Z" unicode="Ģ" />
<glyph horiz-adv-x="436" d="M 20 0 L 20 0 Z M 179 18 C 134 18 96 41 66 88 C 35 135 20 200 20 284 C 20 328 24 367 33 401 C 41 435 53 463 67 486 C 81 509 98 527 118 539 C 138 551 158 557 180 557 C 209 557 233 548 252 532 C 271 516 285 498 294 478 L 294 552 L 400 552 L 400 13 C 400 -23 394 -55 382 -81 C 370 -107 354 -129 335 -146 C 315 -163 293 -176 268 -184 C 243 -192 218 -196 193 -196 C 156 -196 125 -192 100 -185 C 75 -177 56 -169 44 -161 L 80 -73 C 94 -79 108 -83 124 -87 C 140 -91 160 -93 184 -93 C 214 -93 239 -82 259 -62 C 279 -42 289 -12 289 27 L 289 102 C 281 79 267 59 249 43 C 230 26 207 18 179 18 Z M 218 113 C 241 113 259 125 272 151 C 285 176 292 222 292 288 C 292 352 284 395 269 419 C 253 443 236 455 217 455 C 194 455 176 441 163 415 C 150 389 144 346 144 287 C 144 227 150 183 162 155 C 174 127 192 113 218 113 Z" unicode="ģ" />
<glyph horiz-adv-x="538" d="M 51 0 L 51 0 Z M 487 0 L 357 0 L 357 308 L 181 308 L 181 0 L 51 0 L 51 730 L 181 730 L 181 414 L 357 414 L 357 730 L 487 730 L 487 0 Z M 265 791 L 265 791 Z M 414 791 L 315 791 L 265 878 L 214 791 L 117 791 L 215 964 L 316 964 L 414 791 Z" unicode="Ĥ" />
<glyph horiz-adv-x="423" d="M 36 0 L 36 0 Z M 388 0 L 270 0 L 270 402 C 270 420 265 434 255 444 C 245 453 233 458 217 458 C 199 458 184 452 172 442 C 160 431 154 412 154 386 L 154 0 L 36 0 L 36 800 L 147 800 L 147 493 C 153 511 166 527 184 539 C 202 551 228 557 260 557 C 298 557 328 547 352 528 C 376 508 388 476 388 432 L 388 0 Z M 216 861 L 216 861 Z M 365 861 L 266 861 L 216 948 L 165 861 L 68 861 L 166 1034 L 267 1034 L 365 861 Z" unicode="ĥ" />
<glyph horiz-adv-x="538" d="M 181 308 L 181 0 L 51 0 L 51 534 L 0 534 L 0 629 L 51 629 L 51 730 L 181 730 L 181 629 L 357 629 L 357 730 L 487 730 L 487 629 L 538 629 L 538 534 L 487 534 L 487 0 L 357 0 L 357 308 L 181 308 Z M 181 414 L 357 414 L 357 534 L 181 534 L 181 414 Z" unicode="Ħ" />
<glyph horiz-adv-x="423" d="M 154 386 L 154 0 L 36 0 L 36 616 L 8 616 L 8 711 L 36 711 L 36 800 L 147 800 L 147 711 L 229 711 L 229 616 L 147 616 L 147 493 C 153 511 166 527 184 539 C 202 551 228 557 260 557 C 298 557 328 547 352 528 C 376 508 388 476 388 432 L 388 0 L 270 0 L 270 402 C 270 420 265 434 255 444 C 245 453 233 458 217 458 C 199 458 184 452 172 442 C 160 431 154 412 154 386 Z" unicode="ħ" />
<glyph horiz-adv-x="239" d="M 0 0 L 0 0 Z M 186 0 L 55 0 L 55 730 L 186 730 L 186 0 Z M 119 795 L 119 795 Z M 195 942 L 283 942 C 283 892 275 855 261 831 C 246 807 227 795 205 795 C 185 795 169 798 155 804 C 141 810 129 816 121 821 C 112 825 104 830 96 835 C 88 840 80 843 73 843 C 65 843 58 838 53 830 C 47 821 45 811 45 799 L -44 799 C -44 848 -34 885 -14 909 C 5 933 25 946 47 946 C 63 946 77 943 89 937 C 101 931 112 924 123 918 C 131 912 138 908 145 905 C 152 901 159 900 166 900 C 172 900 179 903 185 910 C 191 917 195 928 195 942 Z" unicode="Ĩ" />
<glyph horiz-adv-x="194" d="M 0 0 L 0 0 Z M 156 0 L 38 0 L 38 552 L 156 552 L 156 0 Z M 96 617 L 96 617 Z M 172 764 L 260 764 C 260 714 252 677 238 653 C 223 629 204 617 182 617 C 162 617 146 620 132 626 C 118 632 106 638 98 643 C 89 647 81 652 73 657 C 65 662 57 665 50 665 C 42 665 35 660 30 652 C 24 643 22 633 22 621 L -67 621 C -67 670 -57 707 -37 731 C -17 755 2 768 24 768 C 40 768 54 765 66 759 C 78 753 89 746 100 740 C 108 734 115 730 122 727 C 129 723 136 722 143 722 C 149 722 156 725 162 732 C 168 739 172 750 172 764 Z" unicode="ĩ" />
<glyph horiz-adv-x="239" d="M 0 0 L 0 0 Z M 186 0 L 55 0 L 55 730 L 186 730 L 186 0 Z M 119 800 L 119 800 Z M 248 800 L -10 800 L -10 897 L 248 897 L 248 800 Z" unicode="Ī" />
<glyph horiz-adv-x="194" d="M 0 0 L 0 0 Z M 156 0 L 38 0 L 38 552 L 156 552 L 156 0 Z M 96 622 L 96 622 Z M 225 622 L -33 622 L -33 719 L 225 719 L 225 622 Z" unicode="ī" />
<glyph horiz-adv-x="239" d="M 0 0 L 0 0 Z M 186 0 L 55 0 L 55 730 L 186 730 L 186 0 Z M 119 793 L 119 793 Z M 167 953 L 265 953 C 260 897 245 856 219 831 C 193 805 159 793 119 793 C 78 793 45 805 19 831 C -7 856 -22 897 -26 953 L 72 953 C 73 930 77 912 84 899 C 90 886 102 880 119 880 C 135 880 147 886 154 899 C 161 911 165 929 167 953 Z" unicode="Ĭ" />
<glyph horiz-adv-x="194" d="M 0 0 L 0 0 Z M 156 0 L 38 0 L 38 552 L 156 552 L 156 0 Z M 96 615 L 96 615 Z M 144 775 L 242 775 C 237 719 222 678 196 653 C 170 627 136 615 96 615 C 55 615 22 627 -4 653 C -30 678 -45 719 -49 775 L 49 775 C 50 752 54 734 61 721 C 67 708 79 702 96 702 C 112 702 124 708 131 721 C 138 733 142 751 144 775 Z" unicode="ĭ" />
<glyph horiz-adv-x="239" d="M 0 0 L 0 0 Z M 186 0 L 55 0 L 55 730 L 186 730 L 186 0 Z M 65 -7 L 65 -7 Z M 158 -82 L 191 -132 C 170 -154 148 -171 124 -182 C 100 -193 73 -199 44 -199 C 10 -199 -15 -191 -33 -177 C -51 -162 -60 -143 -60 -121 C -60 -95 -48 -72 -26 -50 C -4 -28 28 -9 72 6 L 116 6 C 90 -6 72 -19 60 -33 C 48 -46 42 -59 42 -72 C 42 -84 45 -93 53 -100 C 61 -107 71 -111 84 -111 C 99 -111 113 -108 126 -103 C 138 -97 149 -90 158 -82 Z" unicode="Į" />
<glyph horiz-adv-x="194" d="M 0 0 L 0 0 Z M 36 622 L 36 723 L 158 723 L 158 622 L 36 622 Z M 38 0 L 38 552 L 156 552 L 156 0 L 38 0 Z M 36 -7 L 36 -7 Z M 129 -82 L 162 -132 C 141 -154 119 -171 95 -182 C 71 -193 44 -199 15 -199 C -18 -199 -44 -191 -62 -177 C -80 -162 -89 -143 -89 -121 C -89 -95 -77 -72 -55 -50 C -33 -28 0 -9 43 6 L 87 6 C 61 -6 43 -19 31 -33 C 19 -46 13 -59 13 -72 C 13 -84 16 -93 24 -100 C 32 -107 42 -111 55 -111 C 70 -111 84 -108 97 -103 C 109 -97 120 -90 129 -82 Z" unicode="į" />
<glyph horiz-adv-x="239" d="M 55 0 L 55 0 Z M 186 0 L 55 0 L 55 730 L 186 730 L 186 0 Z M 119 794 L 119 794 Z M 174 794 L 65 794 L 65 924 L 174 924 L 174 794 Z" unicode="İ" />
<glyph horiz-adv-x="194" d="M 156 0 L 38 0 L 38 552 L 156 552 L 156 0 Z" unicode="ı" />
<glyph horiz-adv-x="516" d="M 55 0 L 55 0 Z M 186 0 L 55 0 L 55 730 L 186 730 L 186 0 Z M 480 730 L 480 182 C 480 126 464 80 432 45 C 400 9 357 -8 301 -8 C 287 -8 271 -6 254 -3 C 236 0 222 5 211 12 L 237 116 C 241 113 247 111 255 110 C 263 108 272 108 281 108 C 303 108 320 117 332 137 C 344 156 350 180 350 209 L 350 730 L 480 730 Z" unicode="Ĳ" />
<glyph horiz-adv-x="385" d="M 36 0 L 36 0 Z M 36 622 L 36 723 L 158 723 L 158 622 L 36 622 Z M 38 0 L 38 552 L 156 552 L 156 0 L 38 0 Z M 349 622 L 227 622 L 227 723 L 349 723 L 349 622 Z M 347 552 L 347 -56 C 347 -88 335 -115 313 -138 C 290 -161 260 -173 222 -173 C 202 -173 183 -169 167 -162 C 151 -155 141 -149 138 -145 L 171 -69 C 173 -69 177 -70 183 -72 C 188 -74 194 -75 201 -75 C 209 -75 216 -72 221 -66 C 226 -60 229 -52 229 -44 L 229 552 L 347 552 Z" unicode="ĳ" />
<glyph horiz-adv-x="302" d="M 0 0 L 0 0 Z M 253 730 L 253 182 C 253 126 237 80 205 45 C 173 9 130 -8 74 -8 C 60 -8 44 -6 27 -3 C 9 0 -4 5 -16 12 L 10 116 C 14 113 20 111 28 110 C 36 108 45 108 54 108 C 76 108 93 117 105 137 C 117 156 123 180 123 209 L 123 730 L 253 730 Z M 188 791 L 188 791 Z M 337 791 L 238 791 L 188 878 L 137 791 L 40 791 L 138 964 L 239 964 L 337 791 Z" unicode="Ĵ" />
<glyph horiz-adv-x="198" d="M 0 0 L 0 0 Z M 160 552 L 160 -56 C 160 -88 148 -115 126 -138 C 103 -161 73 -173 35 -173 C 15 -173 -3 -169 -19 -162 C -35 -155 -45 -149 -49 -145 L -16 -69 C -13 -69 -9 -70 -4 -72 C 1 -74 7 -75 14 -75 C 22 -75 29 -72 34 -66 C 39 -60 42 -52 42 -44 L 42 552 L 160 552 Z M 102 613 L 102 613 Z M 251 613 L 152 613 L 102 700 L 51 613 L -46 613 L 52 786 L 153 786 L 251 613 Z" unicode="ĵ" />
<glyph horiz-adv-x="516" d="M 51 0 L 51 0 Z M 526 0 L 383 0 L 207 289 L 182 257 L 182 0 L 51 0 L 51 730 L 182 730 L 182 434 L 374 730 L 507 730 L 284 404 L 526 0 Z M 264 -70 L 264 -70 Z M 361 -70 C 361 -92 357 -117 350 -143 C 343 -169 335 -195 325 -219 C 315 -243 304 -264 292 -284 C 280 -304 269 -318 259 -328 L 168 -288 C 175 -278 182 -266 190 -250 C 198 -234 205 -216 212 -197 C 218 -177 224 -157 229 -135 C 233 -113 236 -91 237 -70 L 361 -70 Z" unicode="Ķ" />
<glyph horiz-adv-x="399" d="M 36 0 L 36 0 Z M 409 0 L 284 0 L 189 207 L 154 151 L 154 0 L 36 0 L 36 800 L 147 800 L 147 297 L 278 552 L 400 552 L 267 308 L 409 0 Z M 198 -70 L 198 -70 Z M 295 -70 C 295 -92 291 -117 284 -143 C 277 -169 269 -195 259 -219 C 249 -243 238 -264 226 -284 C 214 -304 203 -318 193 -328 L 102 -288 C 109 -278 116 -266 124 -250 C 132 -234 139 -216 146 -197 C 152 -177 158 -157 163 -135 C 167 -113 170 -91 171 -70 L 295 -70 Z" unicode="ķ" />
<glyph horiz-adv-x="399" d="M 409 0 L 284 0 L 189 207 L 154 151 L 154 0 L 36 0 L 36 552 L 147 552 L 147 297 L 278 552 L 400 552 L 267 308 L 409 0 Z" unicode="ĸ" />
<glyph horiz-adv-x="365" d="M 51 0 L 51 0 Z M 358 0 L 51 0 L 51 730 L 181 730 L 181 111 L 358 111 L 358 0 Z M 250 790 L 250 790 Z M 137 790 L 226 964 L 363 964 L 251 790 L 137 790 Z" unicode="Ĺ" />
<glyph horiz-adv-x="222" d="M 35 0 L 35 0 Z M 35 125 L 35 800 L 153 800 L 153 144 C 153 127 156 115 162 108 C 168 101 177 98 190 98 C 194 98 197 98 201 99 C 205 99 208 100 210 101 L 227 9 C 219 5 210 1 199 -1 C 187 -3 174 -5 158 -5 C 124 -5 95 6 71 28 C 47 50 35 83 35 125 Z M 156 860 L 156 860 Z M 43 860 L 132 1034 L 269 1034 L 157 860 L 43 860 Z" unicode="ĺ" />
<glyph horiz-adv-x="365" d="M 51 0 L 51 0 Z M 358 0 L 51 0 L 51 730 L 181 730 L 181 111 L 358 111 L 358 0 Z M 200 -70 L 200 -70 Z M 297 -70 C 297 -92 293 -117 286 -143 C 279 -169 271 -195 261 -219 C 251 -243 240 -264 228 -284 C 216 -304 205 -318 195 -328 L 104 -288 C 111 -278 118 -266 126 -250 C 134 -234 141 -216 148 -197 C 154 -177 160 -157 165 -135 C 169 -113 172 -91 173 -70 L 297 -70 Z" unicode="Ļ" />
<glyph horiz-adv-x="222" d="M 18 0 L 18 0 Z M 35 125 L 35 800 L 153 800 L 153 144 C 153 127 156 115 162 108 C 168 101 177 98 190 98 C 194 98 197 98 201 99 C 205 99 208 100 210 101 L 227 9 C 219 5 210 1 199 -1 C 187 -3 174 -5 158 -5 C 124 -5 95 6 71 28 C 47 50 35 83 35 125 Z M 114 -70 L 114 -70 Z M 211 -70 C 211 -92 207 -117 200 -143 C 193 -169 185 -195 175 -219 C 165 -243 154 -264 142 -284 C 130 -304 119 -318 109 -328 L 18 -288 C 25 -278 32 -266 40 -250 C 48 -234 55 -216 62 -197 C 68 -177 74 -157 79 -135 C 83 -113 86 -91 87 -70 L 211 -70 Z" unicode="ļ" />
<glyph horiz-adv-x="365" d="M 51 0 L 51 0 Z M 358 0 L 51 0 L 51 730 L 181 730 L 181 111 L 358 111 L 358 0 Z M 395 621 L 390 473 L 288 473 L 283 621 L 283 730 L 395 730 L 395 621 Z" unicode="Ľ" />
<glyph horiz-adv-x="222" d="M 35 0 L 35 0 Z M 35 125 L 35 800 L 153 800 L 153 144 C 153 127 156 115 162 108 C 168 101 177 98 190 98 C 194 98 197 98 201 99 C 205 99 208 100 210 101 L 227 9 C 219 5 210 1 199 -1 C 187 -3 174 -5 158 -5 C 124 -5 95 6 71 28 C 47 50 35 83 35 125 Z M 290 621 L 285 473 L 183 473 L 178 621 L 178 730 L 290 730 L 290 621 Z" unicode="ľ" />
<glyph horiz-adv-x="365" d="M 51 0 L 51 0 Z M 358 0 L 51 0 L 51 730 L 181 730 L 181 111 L 358 111 L 358 0 Z M 284 300 L 284 300 Z M 339 300 L 230 300 L 230 430 L 339 430 L 339 300 Z" unicode="Ŀ" />
<glyph horiz-adv-x="222" d="M 35 0 L 35 0 Z M 35 125 L 35 800 L 153 800 L 153 144 C 153 127 156 115 162 108 C 168 101 177 98 190 98 C 194 98 197 98 201 99 C 205 99 208 100 210 101 L 227 9 C 219 5 210 1 199 -1 C 187 -3 174 -5 158 -5 C 124 -5 95 6 71 28 C 47 50 35 83 35 125 Z M 231 249 L 231 249 Z M 286 249 L 177 249 L 177 379 L 286 379 L 286 249 Z" unicode="ŀ" />
<glyph horiz-adv-x="365" d="M 358 106 L 358 0 L 51 0 L 51 247 L 20 233 L -24 328 L 51 361 L 51 730 L 181 730 L 181 419 L 292 468 L 335 373 L 181 305 L 181 106 L 358 106 Z" unicode="Ł" />
<glyph horiz-adv-x="222" d="M 235 9 C 228 5 219 1 208 -1 C 197 -3 184 -5 170 -5 C 136 -5 108 6 85 28 C 61 50 50 83 50 125 L 50 245 L 17 229 L -20 317 L 50 351 L 50 800 L 168 800 L 168 409 L 218 433 L 256 345 L 168 302 L 168 147 C 168 129 170 117 175 109 C 180 101 188 98 200 98 C 203 98 206 98 210 98 C 213 98 216 99 218 100 L 235 9 Z" unicode="ł" />
<glyph horiz-adv-x="534" d="M 51 0 L 51 0 Z M 483 0 L 392 0 L 172 434 L 172 0 L 51 0 L 51 730 L 142 730 L 366 293 L 366 730 L 483 730 L 483 0 Z M 268 790 L 268 790 Z M 155 790 L 244 964 L 381 964 L 269 790 L 155 790 Z" unicode="Ń" />
<glyph horiz-adv-x="422" d="M 36 0 L 36 0 Z M 388 0 L 269 0 L 269 403 C 269 421 264 434 255 444 C 245 453 232 458 216 458 C 199 458 184 452 172 442 C 160 431 154 412 154 386 L 154 0 L 36 0 L 36 552 L 139 552 L 139 483 C 147 503 162 521 183 535 C 204 549 231 557 264 557 C 301 557 331 547 354 529 C 376 511 388 481 388 439 L 388 0 Z M 213 612 L 213 612 Z M 100 612 L 189 786 L 326 786 L 214 612 L 100 612 Z" unicode="ń" />
<glyph horiz-adv-x="534" d="M 51 0 L 51 0 Z M 483 0 L 392 0 L 172 434 L 172 0 L 51 0 L 51 730 L 142 730 L 366 293 L 366 730 L 483 730 L 483 0 Z M 252 -70 L 252 -70 Z M 349 -70 C 349 -92 345 -117 338 -143 C 331 -169 323 -195 313 -219 C 303 -243 292 -264 280 -284 C 268 -304 257 -318 247 -328 L 156 -288 C 163 -278 170 -266 178 -250 C 186 -234 193 -216 200 -197 C 206 -177 212 -157 217 -135 C 221 -113 224 -91 225 -70 L 349 -70 Z" unicode="Ņ" />
<glyph horiz-adv-x="422" d="M 36 0 L 36 0 Z M 388 0 L 269 0 L 269 403 C 269 421 264 434 255 444 C 245 453 232 458 216 458 C 199 458 184 452 172 442 C 160 431 154 412 154 386 L 154 0 L 36 0 L 36 552 L 139 552 L 139 483 C 147 503 162 521 183 535 C 204 549 231 557 264 557 C 301 557 331 547 354 529 C 376 511 388 481 388 439 L 388 0 Z M 196 -70 L 196 -70 Z M 293 -70 C 293 -92 289 -117 282 -143 C 275 -169 267 -195 257 -219 C 247 -243 236 -264 224 -284 C 212 -304 201 -318 191 -328 L 100 -288 C 107 -278 114 -266 122 -250 C 130 -234 137 -216 144 -197 C 150 -177 156 -157 161 -135 C 165 -113 168 -91 169 -70 L 293 -70 Z" unicode="ņ" />
<glyph horiz-adv-x="534" d="M 51 0 L 51 0 Z M 483 0 L 392 0 L 172 434 L 172 0 L 51 0 L 51 730 L 142 730 L 366 293 L 366 730 L 483 730 L 483 0 Z M 268 791 L 268 791 Z M 120 964 L 219 964 L 269 877 L 320 964 L 417 964 L 319 791 L 218 791 L 120 964 Z" unicode="Ň" />
<glyph horiz-adv-x="422" d="M 36 0 L 36 0 Z M 388 0 L 269 0 L 269 403 C 269 421 264 434 255 444 C 245 453 232 458 216 458 C 199 458 184 452 172 442 C 160 431 154 412 154 386 L 154 0 L 36 0 L 36 552 L 139 552 L 139 483 C 147 503 162 521 183 535 C 204 549 231 557 264 557 C 301 557 331 547 354 529 C 376 511 388 481 388 439 L 388 0 Z M 213 613 L 213 613 Z M 65 786 L 164 786 L 214 699 L 265 786 L 362 786 L 264 613 L 163 613 L 65 786 Z" unicode="ň" />
<glyph horiz-adv-x="534" d="M 366 730 L 483 730 L 483 -6 C 483 -62 467 -107 437 -143 C 407 -178 364 -196 308 -196 C 294 -196 278 -194 261 -191 C 243 -187 229 -182 218 -176 L 244 -72 C 248 -74 254 -76 262 -78 C 270 -79 279 -80 288 -80 C 310 -80 328 -70 344 -51 C 359 -31 367 -7 367 21 L 367 49 L 172 434 L 172 0 L 51 0 L 51 730 L 142 730 L 366 293 L 366 730 Z" unicode="Ŋ" />
<glyph horiz-adv-x="422" d="M 264 557 C 301 557 331 547 354 529 C 376 511 388 481 388 439 L 388 -11 C 388 -64 374 -108 346 -144 C 318 -179 276 -197 220 -197 C 206 -197 190 -195 174 -192 C 157 -188 145 -184 138 -179 L 160 -80 C 164 -82 170 -83 178 -85 C 186 -86 194 -87 202 -87 C 223 -87 239 -77 251 -58 C 263 -38 269 -15 269 12 L 269 403 C 269 421 264 434 255 444 C 245 453 232 458 216 458 C 199 458 184 452 172 442 C 160 431 154 412 154 386 L 154 0 L 36 0 L 36 552 L 139 552 L 139 483 C 147 503 162 521 183 535 C 204 549 231 557 264 557 Z" unicode="ŋ" />
<glyph horiz-adv-x="568" d="M 29 0 L 29 0 Z M 287 -7 C 201 -7 137 25 94 91 C 50 156 29 249 29 371 C 29 485 51 574 96 639 C 140 704 202 737 281 737 C 365 737 429 705 473 641 C 517 577 539 485 539 365 C 539 249 516 158 470 92 C 424 26 363 -7 287 -7 Z M 284 95 C 324 95 354 116 375 160 C 395 203 406 274 406 372 C 406 463 395 530 374 572 C 352 614 322 635 283 635 C 241 635 211 614 192 572 C 172 530 163 461 163 365 C 163 267 173 198 194 157 C 215 115 245 95 284 95 Z M 284 800 L 284 800 Z M 413 800 L 155 800 L 155 897 L 413 897 L 413 800 Z" unicode="Ō" />
<glyph horiz-adv-x="423" d="M 18 0 L 18 0 Z M 211 -5 C 155 -5 109 18 73 64 C 36 110 18 181 18 275 C 18 362 35 431 70 481 C 104 531 150 557 206 557 C 266 557 314 534 350 489 C 386 443 405 377 405 290 C 405 198 387 125 353 73 C 318 21 271 -5 211 -5 Z M 212 93 C 235 93 252 106 264 133 C 276 160 282 209 282 281 C 282 350 275 397 263 421 C 251 445 233 458 210 458 C 188 458 171 445 159 420 C 147 395 142 349 142 281 C 142 243 143 212 147 188 C 150 163 155 144 161 130 C 167 116 174 106 183 101 C 191 95 201 93 212 93 Z M 213 622 L 213 622 Z M 342 622 L 84 622 L 84 719 L 342 719 L 342 622 Z" unicode="ō" />
<glyph horiz-adv-x="568" d="M 29 0 L 29 0 Z M 287 -7 C 201 -7 137 25 94 91 C 50 156 29 249 29 371 C 29 485 51 574 96 639 C 140 704 202 737 281 737 C 365 737 429 705 473 641 C 517 577 539 485 539 365 C 539 249 516 158 470 92 C 424 26 363 -7 287 -7 Z M 284 95 C 324 95 354 116 375 160 C 395 203 406 274 406 372 C 406 463 395 530 374 572 C 352 614 322 635 283 635 C 241 635 211 614 192 572 C 172 530 163 461 163 365 C 163 267 173 198 194 157 C 215 115 245 95 284 95 Z M 284 793 L 284 793 Z M 332 953 L 430 953 C 425 897 410 856 384 831 C 358 805 324 793 284 793 C 243 793 210 805 184 831 C 158 856 143 897 139 953 L 237 953 C 238 930 242 912 249 899 C 255 886 267 880 284 880 C 300 880 312 886 319 899 C 326 911 330 929 332 953 Z" unicode="Ŏ" />
<glyph horiz-adv-x="423" d="M 18 0 L 18 0 Z M 211 -5 C 155 -5 109 18 73 64 C 36 110 18 181 18 275 C 18 362 35 431 70 481 C 104 531 150 557 206 557 C 266 557 314 534 350 489 C 386 443 405 377 405 290 C 405 198 387 125 353 73 C 318 21 271 -5 211 -5 Z M 212 93 C 235 93 252 106 264 133 C 276 160 282 209 282 281 C 282 350 275 397 263 421 C 251 445 233 458 210 458 C 188 458 171 445 159 420 C 147 395 142 349 142 281 C 142 243 143 212 147 188 C 150 163 155 144 161 130 C 167 116 174 106 183 101 C 191 95 201 93 212 93 Z M 213 615 L 213 615 Z M 261 775 L 359 775 C 354 719 339 678 313 653 C 287 627 253 615 213 615 C 172 615 139 627 113 653 C 87 678 72 719 68 775 L 166 775 C 167 752 171 734 178 721 C 184 708 196 702 213 702 C 229 702 241 708 248 721 C 255 733 259 751 261 775 Z" unicode="ŏ" />
<glyph horiz-adv-x="568" d="M 29 0 L 29 0 Z M 287 -7 C 201 -7 137 25 94 91 C 50 156 29 249 29 371 C 29 485 51 574 96 639 C 140 704 202 737 281 737 C 365 737 429 705 473 641 C 517 577 539 485 539 365 C 539 249 516 158 470 92 C 424 26 363 -7 287 -7 Z M 284 95 C 324 95 354 116 375 160 C 395 203 406 274 406 372 C 406 463 395 530 374 572 C 352 614 322 635 283 635 C 241 635 211 614 192 572 C 172 530 163 461 163 365 C 163 267 173 198 194 157 C 215 115 245 95 284 95 Z M 284 790 L 284 790 Z M 93 790 L 160 954 L 286 954 L 198 790 L 93 790 Z M 282 790 L 350 954 L 476 954 L 387 790 L 282 790 Z" unicode="Ő" />
<glyph horiz-adv-x="423" d="M 18 0 L 18 0 Z M 211 -5 C 155 -5 109 18 73 64 C 36 110 18 181 18 275 C 18 362 35 431 70 481 C 104 531 150 557 206 557 C 266 557 314 534 350 489 C 386 443 405 377 405 290 C 405 198 387 125 353 73 C 318 21 271 -5 211 -5 Z M 212 93 C 235 93 252 106 264 133 C 276 160 282 209 282 281 C 282 350 275 397 263 421 C 251 445 233 458 210 458 C 188 458 171 445 159 420 C 147 395 142 349 142 281 C 142 243 143 212 147 188 C 150 163 155 144 161 130 C 167 116 174 106 183 101 C 191 95 201 93 212 93 Z M 213 612 L 213 612 Z M 22 612 L 89 776 L 215 776 L 127 612 L 22 612 Z M 211 612 L 279 776 L 405 776 L 316 612 L 211 612 Z" unicode="ő" />
<glyph horiz-adv-x="746" d="M 258 -7 C 186 -7 129 25 89 91 C 49 156 29 249 29 371 C 29 485 49 574 91 639 C 133 704 187 737 255 737 C 295 737 326 727 349 708 C 371 688 386 667 393 643 L 393 730 L 717 730 L 717 619 L 519 619 L 519 419 L 707 419 L 707 310 L 519 310 L 519 111 L 736 111 L 736 0 L 393 0 L 393 95 C 386 69 371 46 347 25 C 323 3 294 -7 258 -7 Z M 277 89 C 315 89 344 111 364 156 C 384 200 394 272 394 372 C 394 465 383 533 363 576 C 342 619 313 641 276 641 C 236 641 207 619 189 577 C 170 534 161 463 161 365 C 161 265 171 194 191 152 C 211 110 239 89 277 89 Z" unicode="Œ" />
<glyph horiz-adv-x="663" d="M 212 -5 C 156 -5 109 18 73 64 C 36 110 18 181 18 275 C 18 362 35 431 70 481 C 105 531 151 557 207 557 C 243 557 274 546 299 524 C 323 502 338 477 343 448 C 347 476 361 501 385 523 C 408 545 437 556 471 556 C 527 556 571 530 601 478 C 631 426 647 349 647 247 L 396 247 C 396 205 403 169 419 139 C 435 109 459 95 491 95 C 513 95 532 100 550 112 C 567 123 581 135 592 148 L 639 85 C 625 65 604 45 577 25 C 549 5 517 -5 480 -5 C 438 -5 405 5 383 25 C 360 45 346 68 342 96 C 332 68 317 45 297 25 C 276 5 248 -5 212 -5 Z M 393 327 L 536 327 C 536 371 529 404 516 426 C 503 448 487 460 467 460 C 446 460 429 448 415 426 C 401 404 394 371 393 327 Z M 213 92 C 235 92 253 105 265 132 C 277 158 283 208 283 281 C 283 350 276 397 263 421 C 250 445 232 457 210 457 C 189 457 172 444 160 420 C 148 396 142 349 142 281 C 142 243 143 211 147 187 C 150 162 155 143 161 129 C 167 115 175 105 184 100 C 192 94 202 92 213 92 Z" unicode="œ" />
<glyph horiz-adv-x="475" d="M 51 0 L 51 0 Z M 51 0 L 51 730 L 233 730 C 289 730 335 713 371 680 C 407 646 426 595 426 526 C 426 474 415 430 394 395 C 372 359 345 338 313 332 L 311 326 L 477 0 L 347 0 L 205 291 L 170 291 L 170 0 L 51 0 Z M 170 396 L 216 396 C 242 396 264 406 282 427 C 299 447 308 476 308 512 C 308 552 299 582 281 600 C 263 618 243 628 220 628 L 170 628 L 170 396 Z M 224 790 L 224 790 Z M 111 790 L 200 964 L 337 964 L 225 790 L 111 790 Z" unicode="Ŕ" />
<glyph horiz-adv-x="315" d="M 36 0 L 36 0 Z M 321 527 L 283 426 C 273 434 263 440 255 443 C 247 446 237 448 227 448 C 211 448 195 441 179 428 C 162 415 154 389 154 349 L 154 0 L 36 0 L 36 552 L 148 552 L 148 478 C 154 498 166 517 183 533 C 199 549 219 557 242 557 C 260 557 276 553 290 547 C 303 540 313 533 321 527 Z M 187 612 L 187 612 Z M 74 612 L 163 786 L 300 786 L 188 612 L 74 612 Z" unicode="ŕ" />
<glyph horiz-adv-x="475" d="M 51 0 L 51 0 Z M 51 0 L 51 730 L 233 730 C 289 730 335 713 371 680 C 407 646 426 595 426 526 C 426 474 415 430 394 395 C 372 359 345 338 313 332 L 311 326 L 477 0 L 347 0 L 205 291 L 170 291 L 170 0 L 51 0 Z M 170 396 L 216 396 C 242 396 264 406 282 427 C 299 447 308 476 308 512 C 308 552 299 582 281 600 C 263 618 243 628 220 628 L 170 628 L 170 396 Z M 231 -70 L 231 -70 Z M 328 -70 C 328 -92 324 -117 317 -143 C 310 -169 302 -195 292 -219 C 282 -243 271 -264 259 -284 C 247 -304 236 -318 226 -328 L 135 -288 C 142 -278 149 -266 157 -250 C 165 -234 172 -216 179 -197 C 185 -177 191 -157 196 -135 C 200 -113 203 -91 204 -70 L 328 -70 Z" unicode="Ŗ" />
<glyph horiz-adv-x="315" d="M 36 0 L 36 0 Z M 321 527 L 283 426 C 273 434 263 440 255 443 C 247 446 237 448 227 448 C 211 448 195 441 179 428 C 162 415 154 389 154 349 L 154 0 L 36 0 L 36 552 L 148 552 L 148 478 C 154 498 166 517 183 533 C 199 549 219 557 242 557 C 260 557 276 553 290 547 C 303 540 313 533 321 527 Z M 168 -70 L 168 -70 Z M 265 -70 C 265 -92 261 -117 254 -143 C 247 -169 239 -195 229 -219 C 219 -243 208 -264 196 -284 C 184 -304 173 -318 163 -328 L 72 -288 C 79 -278 86 -266 94 -250 C 102 -234 109 -216 116 -197 C 122 -177 128 -157 133 -135 C 137 -113 140 -91 141 -70 L 265 -70 Z" unicode="ŗ" />
<glyph horiz-adv-x="475" d="M 51 0 L 51 0 Z M 51 0 L 51 730 L 233 730 C 289 730 335 713 371 680 C 407 646 426 595 426 526 C 426 474 415 430 394 395 C 372 359 345 338 313 332 L 311 326 L 477 0 L 347 0 L 205 291 L 170 291 L 170 0 L 51 0 Z M 170 396 L 216 396 C 242 396 264 406 282 427 C 299 447 308 476 308 512 C 308 552 299 582 281 600 C 263 618 243 628 220 628 L 170 628 L 170 396 Z M 224 791 L 224 791 Z M 76 964 L 175 964 L 225 877 L 276 964 L 373 964 L 275 791 L 174 791 L 76 964 Z" unicode="Ř" />
<glyph horiz-adv-x="315" d="M 36 0 L 36 0 Z M 321 527 L 283 426 C 273 434 263 440 255 443 C 247 446 237 448 227 448 C 211 448 195 441 179 428 C 162 415 154 389 154 349 L 154 0 L 36 0 L 36 552 L 148 552 L 148 478 C 154 498 166 517 183 533 C 199 549 219 557 242 557 C 260 557 276 553 290 547 C 303 540 313 533 321 527 Z M 187 613 L 187 613 Z M 39 786 L 138 786 L 188 699 L 239 786 L 336 786 L 238 613 L 137 613 L 39 786 Z" unicode="ř" />
<glyph horiz-adv-x="427" d="M 11 0 L 11 0 Z M 213 -7 C 171 -7 134 0 102 12 C 69 24 39 48 11 82 L 90 156 C 102 135 119 119 141 107 C 163 95 184 90 204 90 C 227 90 248 98 266 114 C 284 130 293 154 293 184 C 293 214 284 239 267 257 C 250 275 220 299 176 327 C 134 353 99 384 73 419 C 46 453 33 500 33 558 C 33 585 38 610 48 632 C 58 654 72 673 89 689 C 106 704 126 716 150 724 C 173 732 197 737 223 737 C 265 737 299 729 327 715 C 355 701 376 685 391 668 L 318 592 C 307 603 294 613 278 621 C 262 629 245 633 227 633 C 207 633 189 626 173 612 C 156 598 148 578 148 552 C 148 527 156 506 170 489 C 184 472 214 450 260 422 C 312 390 350 357 372 322 C 394 286 405 242 405 188 C 405 155 399 126 388 102 C 377 78 363 57 345 41 C 327 25 307 13 284 5 C 260 -3 237 -7 213 -7 Z M 216 790 L 216 790 Z M 103 790 L 192 964 L 329 964 L 217 790 L 103 790 Z" unicode="Ś" />
<glyph horiz-adv-x="330" d="M 10 0 L 10 0 Z M 169 -5 C 135 -5 103 1 75 15 C 46 29 24 47 10 70 L 68 148 C 78 130 91 117 106 108 C 121 98 137 94 153 94 C 167 94 180 98 192 108 C 203 117 209 131 209 150 C 209 170 201 186 186 198 C 170 210 151 224 128 240 C 101 258 78 279 58 305 C 38 330 29 366 29 412 C 29 451 42 485 68 514 C 94 542 127 557 169 557 C 197 557 223 552 246 543 C 269 534 288 523 303 510 L 261 417 C 252 425 240 434 225 443 C 209 451 195 456 181 456 C 166 456 153 452 142 445 C 131 437 126 426 126 412 C 126 395 132 382 146 372 C 160 362 180 347 208 329 C 242 304 268 278 285 251 C 302 224 311 188 311 144 C 311 117 306 94 297 75 C 287 56 276 41 262 29 C 248 17 233 9 216 3 C 199 -2 183 -5 169 -5 Z M 169 612 L 169 612 Z M 56 612 L 145 786 L 282 786 L 170 612 L 56 612 Z" unicode="ś" />
<glyph horiz-adv-x="427" d="M 11 0 L 11 0 Z M 213 -7 C 171 -7 134 0 102 12 C 69 24 39 48 11 82 L 90 156 C 102 135 119 119 141 107 C 163 95 184 90 204 90 C 227 90 248 98 266 114 C 284 130 293 154 293 184 C 293 214 284 239 267 257 C 250 275 220 299 176 327 C 134 353 99 384 73 419 C 46 453 33 500 33 558 C 33 585 38 610 48 632 C 58 654 72 673 89 689 C 106 704 126 716 150 724 C 173 732 197 737 223 737 C 265 737 299 729 327 715 C 355 701 376 685 391 668 L 318 592 C 307 603 294 613 278 621 C 262 629 245 633 227 633 C 207 633 189 626 173 612 C 156 598 148 578 148 552 C 148 527 156 506 170 489 C 184 472 214 450 260 422 C 312 390 350 357 372 322 C 394 286 405 242 405 188 C 405 155 399 126 388 102 C 377 78 363 57 345 41 C 327 25 307 13 284 5 C 260 -3 237 -7 213 -7 Z M 216 791 L 216 791 Z M 365 791 L 266 791 L 216 878 L 165 791 L 68 791 L 166 964 L 267 964 L 365 791 Z" unicode="Ŝ" />
<glyph horiz-adv-x="330" d="M 10 0 L 10 0 Z M 169 -5 C 135 -5 103 1 75 15 C 46 29 24 47 10 70 L 68 148 C 78 130 91 117 106 108 C 121 98 137 94 153 94 C 167 94 180 98 192 108 C 203 117 209 131 209 150 C 209 170 201 186 186 198 C 170 210 151 224 128 240 C 101 258 78 279 58 305 C 38 330 29 366 29 412 C 29 451 42 485 68 514 C 94 542 127 557 169 557 C 197 557 223 552 246 543 C 269 534 288 523 303 510 L 261 417 C 252 425 240 434 225 443 C 209 451 195 456 181 456 C 166 456 153 452 142 445 C 131 437 126 426 126 412 C 126 395 132 382 146 372 C 160 362 180 347 208 329 C 242 304 268 278 285 251 C 302 224 311 188 311 144 C 311 117 306 94 297 75 C 287 56 276 41 262 29 C 248 17 233 9 216 3 C 199 -2 183 -5 169 -5 Z M 169 613 L 169 613 Z M 318 613 L 219 613 L 169 700 L 118 613 L 21 613 L 119 786 L 220 786 L 318 613 Z" unicode="ŝ" />
<glyph horiz-adv-x="427" d="M 11 0 L 11 0 Z M 213 -7 C 171 -7 134 0 102 12 C 69 24 39 48 11 82 L 90 156 C 102 135 119 119 141 107 C 163 95 184 90 204 90 C 227 90 248 98 266 114 C 284 130 293 154 293 184 C 293 214 284 239 267 257 C 250 275 220 299 176 327 C 134 353 99 384 73 419 C 46 453 33 500 33 558 C 33 585 38 610 48 632 C 58 654 72 673 89 689 C 106 704 126 716 150 724 C 173 732 197 737 223 737 C 265 737 299 729 327 715 C 355 701 376 685 391 668 L 318 592 C 307 603 294 613 278 621 C 262 629 245 633 227 633 C 207 633 189 626 173 612 C 156 598 148 578 148 552 C 148 527 156 506 170 489 C 184 472 214 450 260 422 C 312 390 350 357 372 322 C 394 286 405 242 405 188 C 405 155 399 126 388 102 C 377 78 363 57 345 41 C 327 25 307 13 284 5 C 260 -3 237 -7 213 -7 Z M 193 0 L 193 0 Z M 196 -180 C 175 -180 155 -177 136 -171 C 117 -165 101 -157 89 -147 L 115 -103 C 121 -108 130 -113 142 -119 C 154 -125 166 -128 180 -128 C 190 -128 198 -125 205 -120 C 212 -115 216 -109 216 -101 C 216 -91 212 -84 206 -80 C 199 -75 192 -73 184 -73 C 178 -73 172 -73 167 -74 C 162 -75 158 -77 155 -79 L 142 -58 L 196 15 L 252 15 L 212 -39 C 236 -39 257 -44 273 -54 C 289 -64 298 -80 298 -103 C 298 -126 288 -145 268 -159 C 248 -173 224 -180 196 -180 Z" unicode="Ş" />
<glyph horiz-adv-x="330" d="M 10 0 L 10 0 Z M 169 -5 C 135 -5 103 1 75 15 C 46 29 24 47 10 70 L 68 148 C 78 130 91 117 106 108 C 121 98 137 94 153 94 C 167 94 180 98 192 108 C 203 117 209 131 209 150 C 209 170 201 186 186 198 C 170 210 151 224 128 240 C 101 258 78 279 58 305 C 38 330 29 366 29 412 C 29 451 42 485 68 514 C 94 542 127 557 169 557 C 197 557 223 552 246 543 C 269 534 288 523 303 510 L 261 417 C 252 425 240 434 225 443 C 209 451 195 456 181 456 C 166 456 153 452 142 445 C 131 437 126 426 126 412 C 126 395 132 382 146 372 C 160 362 180 347 208 329 C 242 304 268 278 285 251 C 302 224 311 188 311 144 C 311 117 306 94 297 75 C 287 56 276 41 262 29 C 248 17 233 9 216 3 C 199 -2 183 -5 169 -5 Z M 153 0 L 153 0 Z M 156 -180 C 135 -180 115 -177 96 -171 C 77 -165 61 -157 49 -147 L 75 -103 C 81 -108 90 -113 102 -119 C 114 -125 126 -128 140 -128 C 150 -128 158 -125 165 -120 C 172 -115 176 -109 176 -101 C 176 -91 172 -84 166 -80 C 159 -75 152 -73 144 -73 C 138 -73 132 -73 127 -74 C 122 -75 118 -77 115 -79 L 102 -58 L 156 15 L 212 15 L 172 -39 C 196 -39 217 -44 233 -54 C 249 -64 258 -80 258 -103 C 258 -126 248 -145 228 -159 C 208 -173 184 -180 156 -180 Z" unicode="ş" />
<glyph horiz-adv-x="427" d="M 11 0 L 11 0 Z M 213 -7 C 171 -7 134 0 102 12 C 69 24 39 48 11 82 L 90 156 C 102 135 119 119 141 107 C 163 95 184 90 204 90 C 227 90 248 98 266 114 C 284 130 293 154 293 184 C 293 214 284 239 267 257 C 250 275 220 299 176 327 C 134 353 99 384 73 419 C 46 453 33 500 33 558 C 33 585 38 610 48 632 C 58 654 72 673 89 689 C 106 704 126 716 150 724 C 173 732 197 737 223 737 C 265 737 299 729 327 715 C 355 701 376 685 391 668 L 318 592 C 307 603 294 613 278 621 C 262 629 245 633 227 633 C 207 633 189 626 173 612 C 156 598 148 578 148 552 C 148 527 156 506 170 489 C 184 472 214 450 260 422 C 312 390 350 357 372 322 C 394 286 405 242 405 188 C 405 155 399 126 388 102 C 377 78 363 57 345 41 C 327 25 307 13 284 5 C 260 -3 237 -7 213 -7 Z M 216 791 L 216 791 Z M 68 964 L 167 964 L 217 877 L 268 964 L 365 964 L 267 791 L 166 791 L 68 964 Z" unicode="Š" />
<glyph horiz-adv-x="330" d="M 10 0 L 10 0 Z M 169 -5 C 135 -5 103 1 75 15 C 46 29 24 47 10 70 L 68 148 C 78 130 91 117 106 108 C 121 98 137 94 153 94 C 167 94 180 98 192 108 C 203 117 209 131 209 150 C 209 170 201 186 186 198 C 170 210 151 224 128 240 C 101 258 78 279 58 305 C 38 330 29 366 29 412 C 29 451 42 485 68 514 C 94 542 127 557 169 557 C 197 557 223 552 246 543 C 269 534 288 523 303 510 L 261 417 C 252 425 240 434 225 443 C 209 451 195 456 181 456 C 166 456 153 452 142 445 C 131 437 126 426 126 412 C 126 395 132 382 146 372 C 160 362 180 347 208 329 C 242 304 268 278 285 251 C 302 224 311 188 311 144 C 311 117 306 94 297 75 C 287 56 276 41 262 29 C 248 17 233 9 216 3 C 199 -2 183 -5 169 -5 Z M 169 613 L 169 613 Z M 21 786 L 120 786 L 170 699 L 221 786 L 318 786 L 220 613 L 119 613 L 21 786 Z" unicode="š" />
<glyph horiz-adv-x="387" d="M 5 0 L 5 0 Z M 382 619 L 259 619 L 259 0 L 129 0 L 129 619 L 5 619 L 5 730 L 382 730 L 382 619 Z M 193 791 L 193 791 Z M 45 964 L 144 964 L 194 877 L 245 964 L 342 964 L 244 791 L 143 791 L 45 964 Z" unicode="Ť" />
<glyph horiz-adv-x="249" d="M 3 0 L 3 0 Z M 227 113 L 251 22 C 244 16 234 10 221 5 C 208 0 190 -3 168 -3 C 153 -3 139 0 125 6 C 111 12 98 20 87 32 C 75 43 66 57 59 74 C 52 90 49 109 49 131 L 49 451 L 3 451 L 3 552 L 53 552 L 53 663 L 164 674 L 164 552 L 234 552 L 234 451 L 168 451 L 168 140 C 168 128 170 120 176 114 C 182 108 189 105 198 105 C 204 105 209 105 214 107 C 219 109 223 111 227 113 Z M 373 621 L 368 473 L 266 473 L 261 621 L 261 730 L 373 730 L 373 621 Z" unicode="ť" />
<glyph horiz-adv-x="387" d="M 360 405 L 259 405 L 259 0 L 129 0 L 129 405 L 27 405 L 27 508 L 129 508 L 129 619 L 5 619 L 5 730 L 382 730 L 382 619 L 259 619 L 259 508 L 360 508 L 360 405 Z" unicode="Ŧ" />
<glyph horiz-adv-x="249" d="M 251 22 C 244 16 234 10 221 5 C 208 0 190 -3 168 -3 C 153 -3 139 0 125 6 C 111 12 98 20 87 32 C 75 43 66 57 59 74 C 52 90 49 109 49 131 L 49 284 L 11 284 L 11 379 L 49 379 L 49 451 L 3 451 L 3 552 L 53 552 L 53 663 L 164 674 L 164 552 L 234 552 L 234 451 L 168 451 L 168 379 L 213 379 L 213 284 L 168 284 L 168 140 C 168 128 170 120 176 114 C 182 108 189 105 198 105 C 204 105 209 105 214 107 C 219 109 223 111 227 113 L 251 22 Z" unicode="ŧ" />
<glyph horiz-adv-x="538" d="M 48 0 L 48 0 Z M 491 730 L 491 224 C 491 182 484 147 471 118 C 458 88 441 64 420 46 C 399 28 375 14 347 6 C 319 -2 290 -7 261 -7 C 232 -7 205 -3 179 5 C 153 13 131 26 112 44 C 92 62 77 85 65 115 C 53 145 48 181 48 224 L 48 730 L 177 730 L 177 219 C 177 177 185 147 201 130 C 217 113 239 105 265 105 C 291 105 312 113 329 129 C 346 145 355 175 355 219 L 355 730 L 491 730 Z M 266 795 L 266 795 Z M 342 942 L 430 942 C 430 892 422 855 408 831 C 393 807 374 795 352 795 C 332 795 316 798 302 804 C 288 810 276 816 268 821 C 259 825 251 830 243 835 C 235 840 227 843 220 843 C 212 843 205 838 200 830 C 194 821 192 811 192 799 L 103 799 C 103 848 112 885 132 909 C 152 933 172 946 194 946 C 210 946 224 943 236 937 C 248 931 259 924 270 918 C 278 912 285 908 292 905 C 299 901 306 900 313 900 C 319 900 326 903 332 910 C 338 917 342 928 342 942 Z" unicode="Ũ" />
<glyph horiz-adv-x="423" d="M 34 0 L 34 0 Z M 34 552 L 153 552 L 153 157 C 153 134 158 117 168 106 C 178 94 192 89 209 89 C 225 89 238 95 250 108 C 262 120 268 143 268 176 L 268 552 L 387 552 L 387 0 L 280 0 L 280 71 C 272 50 256 32 234 17 C 212 1 186 -6 156 -6 C 124 -6 95 5 71 27 C 46 49 34 82 34 126 L 34 552 Z M 210 617 L 210 617 Z M 286 764 L 374 764 C 374 714 366 677 352 653 C 337 629 318 617 296 617 C 276 617 260 620 246 626 C 232 632 220 638 212 643 C 203 647 195 652 187 657 C 179 662 171 665 164 665 C 156 665 149 660 144 652 C 138 643 136 633 136 621 L 47 621 C 47 670 56 707 76 731 C 96 755 116 768 138 768 C 154 768 168 765 180 759 C 192 753 203 746 214 740 C 222 734 229 730 236 727 C 243 723 250 722 257 722 C 263 722 270 725 276 732 C 282 739 286 750 286 764 Z" unicode="ũ" />
<glyph horiz-adv-x="538" d="M 48 0 L 48 0 Z M 491 730 L 491 224 C 491 182 484 147 471 118 C 458 88 441 64 420 46 C 399 28 375 14 347 6 C 319 -2 290 -7 261 -7 C 232 -7 205 -3 179 5 C 153 13 131 26 112 44 C 92 62 77 85 65 115 C 53 145 48 181 48 224 L 48 730 L 177 730 L 177 219 C 177 177 185 147 201 130 C 217 113 239 105 265 105 C 291 105 312 113 329 129 C 346 145 355 175 355 219 L 355 730 L 491 730 Z M 266 800 L 266 800 Z M 395 800 L 137 800 L 137 897 L 395 897 L 395 800 Z" unicode="Ū" />
<glyph horiz-adv-x="423" d="M 34 0 L 34 0 Z M 34 552 L 153 552 L 153 157 C 153 134 158 117 168 106 C 178 94 192 89 209 89 C 225 89 238 95 250 108 C 262 120 268 143 268 176 L 268 552 L 387 552 L 387 0 L 280 0 L 280 71 C 272 50 256 32 234 17 C 212 1 186 -6 156 -6 C 124 -6 95 5 71 27 C 46 49 34 82 34 126 L 34 552 Z M 210 622 L 210 622 Z M 339 622 L 81 622 L 81 719 L 339 719 L 339 622 Z" unicode="ū" />
<glyph horiz-adv-x="538" d="M 48 0 L 48 0 Z M 491 730 L 491 224 C 491 182 484 147 471 118 C 458 88 441 64 420 46 C 399 28 375 14 347 6 C 319 -2 290 -7 261 -7 C 232 -7 205 -3 179 5 C 153 13 131 26 112 44 C 92 62 77 85 65 115 C 53 145 48 181 48 224 L 48 730 L 177 730 L 177 219 C 177 177 185 147 201 130 C 217 113 239 105 265 105 C 291 105 312 113 329 129 C 346 145 355 175 355 219 L 355 730 L 491 730 Z M 266 793 L 266 793 Z M 314 953 L 412 953 C 407 897 392 856 366 831 C 340 805 306 793 266 793 C 225 793 192 805 166 831 C 140 856 125 897 121 953 L 219 953 C 220 930 224 912 231 899 C 237 886 249 880 266 880 C 282 880 294 886 301 899 C 308 911 312 929 314 953 Z" unicode="Ŭ" />
<glyph horiz-adv-x="423" d="M 34 0 L 34 0 Z M 34 552 L 153 552 L 153 157 C 153 134 158 117 168 106 C 178 94 192 89 209 89 C 225 89 238 95 250 108 C 262 120 268 143 268 176 L 268 552 L 387 552 L 387 0 L 280 0 L 280 71 C 272 50 256 32 234 17 C 212 1 186 -6 156 -6 C 124 -6 95 5 71 27 C 46 49 34 82 34 126 L 34 552 Z M 210 615 L 210 615 Z M 258 775 L 356 775 C 351 719 336 678 310 653 C 284 627 250 615 210 615 C 169 615 136 627 110 653 C 84 678 69 719 65 775 L 163 775 C 164 752 168 734 175 721 C 181 708 193 702 210 702 C 226 702 238 708 245 721 C 252 733 256 751 258 775 Z" unicode="ŭ" />
<glyph horiz-adv-x="538" d="M 48 0 L 48 0 Z M 491 730 L 491 224 C 491 182 484 147 471 118 C 458 88 441 64 420 46 C 399 28 375 14 347 6 C 319 -2 290 -7 261 -7 C 232 -7 205 -3 179 5 C 153 13 131 26 112 44 C 92 62 77 85 65 115 C 53 145 48 181 48 224 L 48 730 L 177 730 L 177 219 C 177 177 185 147 201 130 C 217 113 239 105 265 105 C 291 105 312 113 329 129 C 346 145 355 175 355 219 L 355 730 L 491 730 Z M 266 768 L 266 768 Z M 266 768 C 231 768 201 780 177 805 C 152 829 140 859 140 894 C 140 928 152 958 177 983 C 201 1007 231 1020 266 1020 C 301 1020 331 1007 356 983 C 380 958 393 928 393 894 C 393 859 380 829 356 805 C 331 780 301 768 266 768 Z M 267 835 C 283 835 297 840 308 852 C 318 863 324 877 324 894 C 324 910 318 924 308 936 C 297 947 283 953 267 953 C 251 953 237 947 226 936 C 214 924 209 910 209 894 C 209 877 214 863 226 852 C 237 840 251 835 267 835 Z" unicode="Ů" />
<glyph horiz-adv-x="423" d="M 34 0 L 34 0 Z M 34 552 L 153 552 L 153 157 C 153 134 158 117 168 106 C 178 94 192 89 209 89 C 225 89 238 95 250 108 C 262 120 268 143 268 176 L 268 552 L 387 552 L 387 0 L 280 0 L 280 71 C 272 50 256 32 234 17 C 212 1 186 -6 156 -6 C 124 -6 95 5 71 27 C 46 49 34 82 34 126 L 34 552 Z M 210 590 L 210 590 Z M 210 590 C 175 590 145 602 121 627 C 96 651 84 681 84 716 C 84 750 96 780 121 805 C 145 829 175 842 210 842 C 245 842 275 829 300 805 C 324 780 337 750 337 716 C 337 681 324 651 300 627 C 275 602 245 590 210 590 Z M 211 657 C 227 657 241 662 252 674 C 262 685 268 699 268 716 C 268 732 262 746 252 758 C 241 769 227 775 211 775 C 195 775 181 769 170 758 C 158 746 153 732 153 716 C 153 699 158 685 170 674 C 181 662 195 657 211 657 Z" unicode="ů" />
<glyph horiz-adv-x="538" d="M 48 0 L 48 0 Z M 491 730 L 491 224 C 491 182 484 147 471 118 C 458 88 441 64 420 46 C 399 28 375 14 347 6 C 319 -2 290 -7 261 -7 C 232 -7 205 -3 179 5 C 153 13 131 26 112 44 C 92 62 77 85 65 115 C 53 145 48 181 48 224 L 48 730 L 177 730 L 177 219 C 177 177 185 147 201 130 C 217 113 239 105 265 105 C 291 105 312 113 329 129 C 346 145 355 175 355 219 L 355 730 L 491 730 Z M 266 790 L 266 790 Z M 75 790 L 142 954 L 268 954 L 180 790 L 75 790 Z M 264 790 L 332 954 L 458 954 L 369 790 L 264 790 Z" unicode="Ű" />
<glyph horiz-adv-x="423" d="M 19 0 L 19 0 Z M 34 552 L 153 552 L 153 157 C 153 134 158 117 168 106 C 178 94 192 89 209 89 C 225 89 238 95 250 108 C 262 120 268 143 268 176 L 268 552 L 387 552 L 387 0 L 280 0 L 280 71 C 272 50 256 32 234 17 C 212 1 186 -6 156 -6 C 124 -6 95 5 71 27 C 46 49 34 82 34 126 L 34 552 Z M 210 612 L 210 612 Z M 19 612 L 86 776 L 212 776 L 124 612 L 19 612 Z M 208 612 L 276 776 L 402 776 L 313 612 L 208 612 Z" unicode="ű" />
<glyph horiz-adv-x="538" d="M 48 0 L 48 0 Z M 491 730 L 491 224 C 491 182 484 147 471 118 C 458 88 441 64 420 46 C 399 28 375 14 347 6 C 319 -2 290 -7 261 -7 C 232 -7 205 -3 179 5 C 153 13 131 26 112 44 C 92 62 77 85 65 115 C 53 145 48 181 48 224 L 48 730 L 177 730 L 177 219 C 177 177 185 147 201 130 C 217 113 239 105 265 105 C 291 105 312 113 329 129 C 346 145 355 175 355 219 L 355 730 L 491 730 Z M 297 -7 L 297 -7 Z M 390 -82 L 423 -132 C 402 -154 380 -171 356 -182 C 332 -193 305 -199 276 -199 C 242 -199 217 -191 199 -177 C 181 -162 172 -143 172 -121 C 172 -95 183 -72 205 -50 C 227 -28 260 -9 304 6 L 348 6 C 322 -6 304 -19 292 -33 C 280 -46 274 -59 274 -72 C 274 -84 277 -93 285 -100 C 293 -107 303 -111 316 -111 C 331 -111 345 -108 358 -103 C 370 -97 381 -90 390 -82 Z" unicode="Ų" />
<glyph horiz-adv-x="423" d="M 34 0 L 34 0 Z M 34 552 L 153 552 L 153 157 C 153 134 158 117 168 106 C 178 94 192 89 209 89 C 225 89 238 95 250 108 C 262 120 268 143 268 176 L 268 552 L 387 552 L 387 0 L 280 0 L 280 71 C 272 50 256 32 234 17 C 212 1 186 -6 156 -6 C 124 -6 95 5 71 27 C 46 49 34 82 34 126 L 34 552 Z M 278 -7 L 278 -7 Z M 371 -82 L 404 -132 C 383 -154 361 -171 337 -182 C 313 -193 286 -199 257 -199 C 223 -199 198 -191 180 -177 C 162 -162 153 -143 153 -121 C 153 -95 164 -72 186 -50 C 208 -28 241 -9 285 6 L 329 6 C 303 -6 285 -19 273 -33 C 261 -46 255 -59 255 -72 C 255 -84 258 -93 266 -100 C 274 -107 284 -111 297 -111 C 312 -111 326 -108 339 -103 C 351 -97 362 -90 371 -82 Z" unicode="ų" />
<glyph horiz-adv-x="698" d="M 1 0 L 1 0 Z M 682 730 L 534 -3 L 446 -3 L 341 491 L 236 -3 L 148 -3 L 1 730 L 123 730 L 210 234 L 301 730 L 395 730 L 485 237 L 573 730 L 682 730 Z M 350 791 L 350 791 Z M 499 791 L 400 791 L 350 878 L 299 791 L 202 791 L 300 964 L 401 964 L 499 791 Z" unicode="Ŵ" />
<glyph horiz-adv-x="564" d="M 0 0 L 0 0 Z M 354 -2 L 285 281 L 210 -2 L 121 -2 L -1 552 L 108 552 L 181 188 L 245 459 L 328 459 L 389 190 L 464 552 L 565 552 L 442 -2 L 354 -2 Z M 282 613 L 282 613 Z M 431 613 L 332 613 L 282 700 L 231 613 L 134 613 L 232 786 L 333 786 L 431 613 Z" unicode="ŵ" />
<glyph horiz-adv-x="472" d="M 0 0 L 0 0 Z M 479 730 L 298 308 L 298 0 L 168 0 L 168 310 L -7 730 L 137 730 L 241 439 L 357 730 L 479 730 Z M 241 791 L 241 791 Z M 390 791 L 291 791 L 241 878 L 190 791 L 93 791 L 191 964 L 292 964 L 390 791 Z" unicode="Ŷ" />
<glyph horiz-adv-x="366" d="M 0 0 L 0 0 Z M 371 552 L 201 -91 C 192 -125 175 -151 151 -171 C 126 -190 98 -200 67 -200 C 38 -200 15 -196 -2 -190 C -20 -184 -32 -178 -38 -173 L 3 -90 C 6 -92 13 -95 24 -99 C 34 -103 44 -105 53 -105 C 66 -105 77 -99 87 -89 C 97 -79 104 -64 109 -45 L 130 45 L -5 552 L 115 552 L 189 212 L 263 552 L 371 552 Z M 188 613 L 188 613 Z M 337 613 L 238 613 L 188 700 L 137 613 L 40 613 L 138 786 L 239 786 L 337 613 Z" unicode="ŷ" />
<glyph horiz-adv-x="472" d="M 0 0 L 0 0 Z M 479 730 L 298 308 L 298 0 L 168 0 L 168 310 L -7 730 L 137 730 L 241 439 L 357 730 L 479 730 Z M 241 791 L 241 791 Z M 369 791 L 273 791 L 273 951 L 369 951 L 369 791 Z M 209 791 L 113 791 L 113 951 L 209 951 L 209 791 Z" unicode="Ÿ" />
<glyph horiz-adv-x="426" d="M 14 0 L 14 0 Z M 401 730 L 401 664 L 167 108 L 412 108 L 412 0 L 14 0 L 14 63 L 249 620 L 39 620 L 39 730 L 401 730 Z M 224 790 L 224 790 Z M 111 790 L 200 964 L 337 964 L 225 790 L 111 790 Z" unicode="Ź" />
<glyph horiz-adv-x="340" d="M 10 0 L 10 0 Z M 325 552 L 325 502 L 154 99 L 330 99 L 330 0 L 10 0 L 10 39 L 187 451 L 22 451 L 22 552 L 325 552 Z M 181 612 L 181 612 Z M 68 612 L 157 786 L 294 786 L 182 612 L 68 612 Z" unicode="ź" />
<glyph horiz-adv-x="426" d="M 14 0 L 14 0 Z M 401 730 L 401 664 L 167 108 L 412 108 L 412 0 L 14 0 L 14 63 L 249 620 L 39 620 L 39 730 L 401 730 Z M 224 794 L 224 794 Z M 279 794 L 170 794 L 170 924 L 279 924 L 279 794 Z" unicode="Ż" />
<glyph horiz-adv-x="340" d="M 10 0 L 10 0 Z M 325 552 L 325 502 L 154 99 L 330 99 L 330 0 L 10 0 L 10 39 L 187 451 L 22 451 L 22 552 L 325 552 Z M 181 616 L 181 616 Z M 236 616 L 127 616 L 127 746 L 236 746 L 236 616 Z" unicode="ż" />
<glyph horiz-adv-x="426" d="M 14 0 L 14 0 Z M 401 730 L 401 664 L 167 108 L 412 108 L 412 0 L 14 0 L 14 63 L 249 620 L 39 620 L 39 730 L 401 730 Z M 224 791 L 224 791 Z M 76 964 L 175 964 L 225 877 L 276 964 L 373 964 L 275 791 L 174 791 L 76 964 Z" unicode="Ž" />
<glyph horiz-adv-x="340" d="M 10 0 L 10 0 Z M 325 552 L 325 502 L 154 99 L 330 99 L 330 0 L 10 0 L 10 39 L 187 451 L 22 451 L 22 552 L 325 552 Z" unicode="ž" />
<glyph horiz-adv-x="372" d="M 201 -52 C 199 -68 195 -83 189 -99 C 182 -114 173 -127 162 -139 C 150 -151 137 -160 121 -168 C 105 -175 88 -179 70 -179 C 49 -179 29 -177 11 -173 C -7 -169 -22 -165 -32 -161 L -20 -76 C -15 -76 -8 -78 1 -80 C 10 -82 19 -83 28 -83 C 47 -83 63 -76 77 -64 C 90 -51 98 -33 101 -9 L 129 310 L 35 310 L 35 419 L 139 419 L 157 620 C 159 640 164 658 172 674 C 180 689 191 702 203 712 C 215 722 229 730 244 735 C 259 740 274 743 288 743 C 302 743 317 742 332 741 C 347 740 356 739 359 739 L 350 636 C 348 636 344 637 338 638 C 332 638 326 639 320 639 C 301 639 286 632 274 620 C 262 607 256 587 254 561 L 242 419 L 343 419 L 343 310 L 232 310 L 201 -52 Z" unicode="ƒ" />
<glyph horiz-adv-x="427" d="M 11 0 L 11 0 Z M 213 -7 C 171 -7 134 0 102 12 C 69 24 39 48 11 82 L 90 156 C 102 135 119 119 141 107 C 163 95 184 90 204 90 C 227 90 248 98 266 114 C 284 130 293 154 293 184 C 293 214 284 239 267 257 C 250 275 220 299 176 327 C 134 353 99 384 73 419 C 46 453 33 500 33 558 C 33 585 38 610 48 632 C 58 654 72 673 89 689 C 106 704 126 716 150 724 C 173 732 197 737 223 737 C 265 737 299 729 327 715 C 355 701 376 685 391 668 L 318 592 C 307 603 294 613 278 621 C 262 629 245 633 227 633 C 207 633 189 626 173 612 C 156 598 148 578 148 552 C 148 527 156 506 170 489 C 184 472 214 450 260 422 C 312 390 350 357 372 322 C 394 286 405 242 405 188 C 405 155 399 126 388 102 C 377 78 363 57 345 41 C 327 25 307 13 284 5 C 260 -3 237 -7 213 -7 Z M 193 -70 L 193 -70 Z M 290 -70 C 290 -92 286 -117 279 -143 C 272 -169 264 -195 254 -219 C 244 -243 233 -264 221 -284 C 209 -304 198 -318 188 -328 L 97 -288 C 104 -278 111 -266 119 -250 C 127 -234 134 -216 141 -197 C 147 -177 153 -157 158 -135 C 162 -113 165 -91 166 -70 L 290 -70 Z" unicode="Ș" />
<glyph horiz-adv-x="330" d="M 10 0 L 10 0 Z M 169 -5 C 135 -5 103 1 75 15 C 46 29 24 47 10 70 L 68 148 C 78 130 91 117 106 108 C 121 98 137 94 153 94 C 167 94 180 98 192 108 C 203 117 209 131 209 150 C 209 170 201 186 186 198 C 170 210 151 224 128 240 C 101 258 78 279 58 305 C 38 330 29 366 29 412 C 29 451 42 485 68 514 C 94 542 127 557 169 557 C 197 557 223 552 246 543 C 269 534 288 523 303 510 L 261 417 C 252 425 240 434 225 443 C 209 451 195 456 181 456 C 166 456 153 452 142 445 C 131 437 126 426 126 412 C 126 395 132 382 146 372 C 160 362 180 347 208 329 C 242 304 268 278 285 251 C 302 224 311 188 311 144 C 311 117 306 94 297 75 C 287 56 276 41 262 29 C 248 17 233 9 216 3 C 199 -2 183 -5 169 -5 Z M 153 -70 L 153 -70 Z M 250 -70 C 250 -92 246 -117 239 -143 C 232 -169 224 -195 214 -219 C 204 -243 193 -264 181 -284 C 169 -304 158 -318 148 -328 L 57 -288 C 64 -278 71 -266 79 -250 C 87 -234 94 -216 101 -197 C 107 -177 113 -157 118 -135 C 122 -113 125 -91 126 -70 L 250 -70 Z" unicode="ș" />
<glyph horiz-adv-x="387" d="M 5 0 L 5 0 Z M 382 619 L 259 619 L 259 0 L 129 0 L 129 619 L 5 619 L 5 730 L 382 730 L 382 619 Z M 171 -70 L 171 -70 Z M 268 -70 C 268 -92 264 -117 257 -143 C 250 -169 242 -195 232 -219 C 222 -243 211 -264 199 -284 C 187 -304 176 -318 166 -328 L 75 -288 C 82 -278 89 -266 97 -250 C 105 -234 112 -216 119 -197 C 125 -177 131 -157 136 -135 C 140 -113 143 -91 144 -70 L 268 -70 Z" unicode="Ț" />
<glyph horiz-adv-x="249" d="M 3 0 L 3 0 Z M 227 113 L 251 22 C 244 16 234 10 221 5 C 208 0 190 -3 168 -3 C 153 -3 139 0 125 6 C 111 12 98 20 87 32 C 75 43 66 57 59 74 C 52 90 49 109 49 131 L 49 451 L 3 451 L 3 552 L 53 552 L 53 663 L 164 674 L 164 552 L 234 552 L 234 451 L 168 451 L 168 140 C 168 128 170 120 176 114 C 182 108 189 105 198 105 C 204 105 209 105 214 107 C 219 109 223 111 227 113 Z M 123 -70 L 123 -70 Z M 220 -70 C 220 -92 216 -117 209 -143 C 202 -169 194 -195 184 -219 C 174 -243 163 -264 151 -284 C 139 -304 128 -318 118 -328 L 27 -288 C 34 -278 41 -266 49 -250 C 57 -234 64 -216 71 -197 C 77 -177 83 -157 88 -135 C 92 -113 95 -91 96 -70 L 220 -70 Z" unicode="ț" />
<glyph horiz-adv-x="198" d="M 160 552 L 160 -56 C 160 -88 148 -115 126 -138 C 103 -161 73 -173 35 -173 C 15 -173 -3 -169 -19 -162 C -35 -155 -45 -149 -49 -145 L -16 -69 C -13 -69 -9 -70 -4 -72 C 1 -74 7 -75 14 -75 C 22 -75 29 -72 34 -66 C 39 -60 42 -52 42 -44 L 42 552 L 160 552 Z" unicode="ȷ" />
<glyph horiz-adv-x="500" d="M 399 613 L 300 613 L 250 700 L 199 613 L 102 613 L 200 786 L 301 786 L 399 613 Z" unicode="ˆ" />
<glyph horiz-adv-x="500" d="M 102 786 L 201 786 L 251 699 L 302 786 L 399 786 L 301 613 L 200 613 L 102 786 Z" unicode="ˇ" />
<glyph horiz-adv-x="500" d="M 298 775 L 396 775 C 391 719 376 678 350 653 C 324 627 290 615 250 615 C 209 615 176 627 150 653 C 124 678 109 719 105 775 L 203 775 C 204 752 208 734 215 721 C 221 708 233 702 250 702 C 266 702 278 708 285 721 C 292 733 296 751 298 775 Z" unicode="˘" />
<glyph horiz-adv-x="500" d="M 305 616 L 196 616 L 196 746 L 305 746 L 305 616 Z" unicode="˙" />
<glyph horiz-adv-x="500" d="M 250 590 C 215 590 185 602 161 627 C 136 651 124 681 124 716 C 124 750 136 780 161 805 C 185 829 215 842 250 842 C 285 842 315 829 340 805 C 364 780 377 750 377 716 C 377 681 364 651 340 627 C 315 602 285 590 250 590 Z M 251 657 C 267 657 281 662 292 674 C 302 685 308 699 308 716 C 308 732 302 746 292 758 C 281 769 267 775 251 775 C 235 775 221 769 210 758 C 198 746 193 732 193 716 C 193 699 198 685 210 674 C 221 662 235 657 251 657 Z" unicode="˚" />
<glyph horiz-adv-x="500" d="M 352 -75 L 385 -125 C 364 -147 342 -164 318 -175 C 294 -186 267 -192 238 -192 C 204 -192 179 -184 161 -170 C 143 -155 134 -136 134 -114 C 134 -88 145 -65 167 -43 C 189 -21 222 -2 266 13 L 310 13 C 284 0 266 -12 254 -26 C 242 -39 236 -52 236 -65 C 236 -77 239 -86 247 -93 C 255 -100 265 -104 278 -104 C 293 -104 307 -101 320 -96 C 332 -90 343 -83 352 -75 Z" unicode="˛" />
<glyph horiz-adv-x="500" d="M 331 764 L 419 764 C 419 714 411 677 397 653 C 382 629 363 617 341 617 C 321 617 305 620 291 626 C 277 632 265 638 257 643 C 248 647 240 652 232 657 C 224 662 216 665 209 665 C 201 665 194 660 189 652 C 183 643 181 633 181 621 L 92 621 C 92 670 101 707 121 731 C 141 755 161 768 183 768 C 199 768 213 765 225 759 C 237 753 248 746 259 740 C 267 734 274 730 281 727 C 288 723 295 722 302 722 C 308 722 315 725 321 732 C 327 739 331 750 331 764 Z" unicode="˜" />
<glyph horiz-adv-x="500" d="M 82 612 L 149 776 L 275 776 L 187 612 L 82 612 Z M 271 612 L 339 776 L 465 776 L 376 612 L 271 612 Z" unicode="˝" />
<glyph horiz-adv-x="0" d="M 0 612 L 0 612 Z M 112 612 L -2 612 L -114 786 L 23 786 L 112 612 Z" unicode="̀" />
<glyph horiz-adv-x="0" d="M 0 612 L 0 612 Z M -113 612 L -24 786 L 113 786 L 1 612 L -113 612 Z" unicode="́" />
<glyph horiz-adv-x="0" d="M 0 613 L 0 613 Z M 149 613 L 50 613 L 0 700 L -51 613 L -148 613 L -50 786 L 51 786 L 149 613 Z" unicode="̂" />
<glyph horiz-adv-x="0" d="M 0 617 L 0 617 Z M 76 764 L 164 764 C 164 714 156 677 142 653 C 127 629 108 617 86 617 C 66 617 50 620 36 626 C 22 632 10 638 2 643 C -6 647 -15 652 -23 657 C -31 662 -38 665 -46 665 C -54 665 -60 660 -66 652 C -71 643 -74 633 -74 621 L -163 621 C -163 670 -153 707 -133 731 C -113 755 -93 768 -72 768 C -55 768 -41 765 -29 759 C -17 753 -6 746 4 740 C 12 734 19 730 26 727 C 33 723 40 722 47 722 C 53 722 60 725 66 732 C 72 739 76 750 76 764 Z" unicode="̃" />
<glyph horiz-adv-x="0" d="M 0 622 L 0 622 Z M 129 622 L -129 622 L -129 719 L 129 719 L 129 622 Z" unicode="̄" />
<glyph horiz-adv-x="0" d="M 0 615 L 0 615 Z M 48 775 L 146 775 C 141 719 126 678 100 653 C 74 627 40 615 0 615 C -40 615 -74 627 -100 653 C -126 678 -141 719 -145 775 L -47 775 C -45 752 -41 734 -35 721 C -28 708 -16 702 0 702 C 16 702 28 708 35 721 C 42 733 46 751 48 775 Z" unicode="̆" />
<glyph horiz-adv-x="0" d="M 0 616 L 0 616 Z M 55 616 L -54 616 L -54 746 L 55 746 L 55 616 Z" unicode="̇" />
<glyph horiz-adv-x="0" d="M 0 613 L 0 613 Z M 128 613 L 32 613 L 32 773 L 128 773 L 128 613 Z M -32 613 L -128 613 L -128 773 L -32 773 L -32 613 Z" unicode="̈" />
<glyph horiz-adv-x="0" d="M 0 590 L 0 590 Z M 0 590 C -34 590 -64 602 -89 627 C -113 651 -126 681 -126 716 C -126 750 -113 780 -89 805 C -64 829 -34 842 0 842 C 35 842 65 829 90 805 C 114 780 127 750 127 716 C 127 681 114 651 90 627 C 65 602 35 590 0 590 Z M 1 657 C 17 657 31 662 42 674 C 52 685 58 699 58 716 C 58 732 52 746 42 758 C 31 769 17 775 1 775 C -15 775 -28 769 -40 758 C -51 746 -57 732 -57 716 C -57 699 -51 685 -40 674 C -28 662 -15 657 1 657 Z" unicode="̊" />
<glyph horiz-adv-x="0" d="M 0 612 L 0 612 Z M -191 612 L -124 776 L 2 776 L -86 612 L -191 612 Z M -2 612 L 66 776 L 192 776 L 103 612 L -2 612 Z" unicode="̋" />
<glyph horiz-adv-x="0" d="M 0 613 L 0 613 Z M -148 786 L -49 786 L 1 699 L 52 786 L 149 786 L 51 613 L -50 613 L -148 786 Z" unicode="̌" />
<glyph horiz-adv-x="0" d="M 0 -70 L 0 -70 Z M 97 -70 C 97 -92 93 -117 86 -143 C 79 -169 71 -195 61 -219 C 51 -243 40 -264 28 -284 C 16 -304 5 -318 -5 -328 L -96 -288 C -88 -278 -81 -266 -73 -250 C -65 -234 -58 -216 -52 -197 C -45 -177 -39 -157 -35 -135 C -30 -113 -27 -91 -27 -70 L 97 -70 Z" unicode="̦" />
<glyph horiz-adv-x="0" d="M 0 0 L 0 0 Z M 3 -180 C -17 -180 -37 -177 -56 -171 C -75 -165 -91 -157 -104 -147 L -78 -103 C -71 -108 -62 -113 -50 -119 C -38 -125 -26 -128 -13 -128 C -3 -128 5 -125 12 -120 C 19 -115 23 -109 23 -101 C 23 -91 19 -84 13 -80 C 6 -75 -1 -73 -9 -73 C -15 -73 -20 -73 -25 -74 C -30 -75 -34 -77 -38 -79 L -51 -58 L 3 15 L 59 15 L 19 -39 C 43 -39 64 -44 80 -54 C 96 -64 105 -80 105 -103 C 105 -126 95 -145 75 -159 C 55 -173 31 -180 3 -180 Z" unicode="̧" />
<glyph horiz-adv-x="0" d="M 0 0 L 0 0 Z M 93 -75 L 126 -125 C 105 -147 83 -164 59 -175 C 35 -186 8 -192 -21 -192 C -54 -192 -80 -184 -98 -170 C -116 -155 -125 -136 -125 -114 C -125 -88 -113 -65 -91 -43 C -69 -21 -36 -2 7 13 L 51 13 C 25 0 7 -12 -5 -26 C -17 -39 -23 -52 -23 -65 C -23 -77 -19 -86 -11 -93 C -3 -100 6 -104 19 -104 C 34 -104 48 -101 61 -96 C 73 -90 84 -83 93 -75 Z" unicode="̨" />
<glyph horiz-adv-x="563" d="M 0 0 L 0 0 Z M 576 0 L -1 0 L 272 730 L 304 730 L 576 0 Z M 423 90 L 285 510 L 147 90 L 423 90 Z" unicode="Δ" />
<glyph horiz-adv-x="724" d="M 21 0 L 21 0 Z M 30 0 L 30 110 L 234 110 L 234 165 C 202 172 174 184 148 202 C 122 220 99 241 81 266 C 62 291 47 319 37 351 C 26 382 21 415 21 449 C 21 490 28 529 44 565 C 59 601 81 633 110 660 C 139 687 175 708 218 724 C 261 740 310 748 364 748 C 420 748 469 740 513 724 C 557 708 593 686 623 660 C 653 633 675 601 691 565 C 706 528 714 489 714 449 C 714 379 696 319 661 267 C 626 215 573 181 501 165 L 501 110 L 704 110 L 704 0 L 415 0 L 415 229 C 442 235 466 246 487 260 C 508 274 526 291 540 310 C 554 328 564 349 571 372 C 578 395 582 418 582 442 C 582 501 561 550 521 588 C 480 626 428 646 365 646 C 303 646 252 626 213 588 C 173 549 154 500 154 440 C 154 394 167 351 195 312 C 222 272 264 245 321 229 L 321 0 L 30 0 Z" unicode="Ω" />
<glyph horiz-adv-x="585" d="M 61 0 L 61 0 Z M 61 -98 L 61 552 L 179 552 L 179 174 C 179 149 189 128 211 112 C 232 96 256 88 283 88 C 312 88 339 96 363 112 C 387 128 400 152 400 183 L 400 552 L 519 552 L 519 0 L 409 0 L 409 87 C 400 64 381 43 352 24 C 322 4 291 -5 259 -5 C 240 -5 222 -1 204 6 C 186 14 175 25 170 39 L 170 -98 L 61 -98 Z" unicode="μ" />
<glyph horiz-adv-x="549" d="M 196 459 L 196 0 L 77 0 L 77 459 L 15 459 L 15 552 L 534 552 L 534 459 L 468 459 L 468 0 L 350 0 L 350 459 L 196 459 Z" unicode="π" />
<glyph horiz-adv-x="698" d="M 1 0 L 1 0 Z M 682 730 L 534 -3 L 446 -3 L 341 491 L 236 -3 L 148 -3 L 1 730 L 123 730 L 210 234 L 301 730 L 395 730 L 485 237 L 573 730 L 682 730 Z M 350 790 L 350 790 Z M 462 790 L 348 790 L 236 964 L 373 964 L 462 790 Z" unicode="Ẁ" />
<glyph horiz-adv-x="564" d="M 0 0 L 0 0 Z M 354 -2 L 285 281 L 210 -2 L 121 -2 L -1 552 L 108 552 L 181 188 L 245 459 L 328 459 L 389 190 L 464 552 L 565 552 L 442 -2 L 354 -2 Z M 282 612 L 282 612 Z M 394 612 L 280 612 L 168 786 L 305 786 L 394 612 Z" unicode="ẁ" />
<glyph horiz-adv-x="698" d="M 1 0 L 1 0 Z M 682 730 L 534 -3 L 446 -3 L 341 491 L 236 -3 L 148 -3 L 1 730 L 123 730 L 210 234 L 301 730 L 395 730 L 485 237 L 573 730 L 682 730 Z M 350 790 L 350 790 Z M 237 790 L 326 964 L 463 964 L 351 790 L 237 790 Z" unicode="Ẃ" />
<glyph horiz-adv-x="564" d="M 0 0 L 0 0 Z M 354 -2 L 285 281 L 210 -2 L 121 -2 L -1 552 L 108 552 L 181 188 L 245 459 L 328 459 L 389 190 L 464 552 L 565 552 L 442 -2 L 354 -2 Z M 282 612 L 282 612 Z M 169 612 L 258 786 L 395 786 L 283 612 L 169 612 Z" unicode="ẃ" />
<glyph horiz-adv-x="698" d="M 1 0 L 1 0 Z M 682 730 L 534 -3 L 446 -3 L 341 491 L 236 -3 L 148 -3 L 1 730 L 123 730 L 210 234 L 301 730 L 395 730 L 485 237 L 573 730 L 682 730 Z M 350 791 L 350 791 Z M 478 791 L 382 791 L 382 951 L 478 951 L 478 791 Z M 318 791 L 222 791 L 222 951 L 318 951 L 318 791 Z" unicode="Ẅ" />
<glyph horiz-adv-x="564" d="M 0 0 L 0 0 Z M 354 -2 L 285 281 L 210 -2 L 121 -2 L -1 552 L 108 552 L 181 188 L 245 459 L 328 459 L 389 190 L 464 552 L 565 552 L 442 -2 L 354 -2 Z M 282 613 L 282 613 Z M 410 613 L 314 613 L 314 773 L 410 773 L 410 613 Z M 250 613 L 154 613 L 154 773 L 250 773 L 250 613 Z" unicode="ẅ" />
<glyph horiz-adv-x="472" d="M 0 0 L 0 0 Z M 479 730 L 298 308 L 298 0 L 168 0 L 168 310 L -7 730 L 137 730 L 241 439 L 357 730 L 479 730 Z M 241 790 L 241 790 Z M 353 790 L 239 790 L 127 964 L 264 964 L 353 790 Z" unicode="Ỳ" />
<glyph horiz-adv-x="366" d="M 0 0 L 0 0 Z M 371 552 L 201 -91 C 192 -125 175 -151 151 -171 C 126 -190 98 -200 67 -200 C 38 -200 15 -196 -2 -190 C -20 -184 -32 -178 -38 -173 L 3 -90 C 6 -92 13 -95 24 -99 C 34 -103 44 -105 53 -105 C 66 -105 77 -99 87 -89 C 97 -79 104 -64 109 -45 L 130 45 L -5 552 L 115 552 L 189 212 L 263 552 L 371 552 Z M 188 612 L 188 612 Z M 300 612 L 186 612 L 74 786 L 211 786 L 300 612 Z" unicode="ỳ" />
<glyph horiz-adv-x="460" d="M 422 221 L 39 221 L 39 325 L 422 325 L 422 221 Z" unicode="–" />
<glyph horiz-adv-x="645" d="M 607 221 L 39 221 L 39 325 L 607 325 L 607 221 Z" unicode="—" />
<glyph horiz-adv-x="254" d="M 37 507 L 37 514 C 37 556 43 595 57 631 C 71 667 92 703 122 737 L 235 731 C 216 709 198 680 182 644 C 165 608 157 565 157 515 L 157 507 L 37 507 Z" unicode="‘" />
<glyph horiz-adv-x="254" d="M 217 737 L 217 730 C 217 688 210 649 197 613 C 183 576 162 541 133 507 L 19 513 C 37 535 55 565 72 601 C 89 637 98 679 98 729 L 98 737 L 217 737 Z" unicode="’" />
<glyph horiz-adv-x="255" d="M 216 116 L 216 109 C 216 67 209 27 196 -8 C 182 -44 161 -80 132 -114 L 19 -108 C 37 -86 55 -56 72 -20 C 88 15 97 58 97 108 L 97 116 L 216 116 Z" unicode="‚" />
<glyph horiz-adv-x="419" d="M 215 507 L 215 514 C 215 556 221 595 235 631 C 249 667 270 703 299 737 L 410 731 C 391 709 373 680 357 644 C 340 608 332 565 332 515 L 332 507 L 215 507 Z M 37 507 L 37 514 C 37 556 44 595 58 631 C 72 667 93 703 122 737 L 233 731 C 214 709 196 680 179 644 C 162 608 154 565 154 515 L 154 507 L 37 507 Z" unicode="“" />
<glyph horiz-adv-x="419" d="M 215 737 L 215 730 C 215 688 208 649 194 613 C 180 576 159 541 130 507 L 19 513 C 38 535 56 565 73 601 C 89 637 98 679 98 729 L 98 737 L 215 737 Z M 380 737 L 380 730 C 380 688 373 649 359 613 C 345 576 324 541 296 507 L 185 513 C 203 535 221 565 238 601 C 254 637 263 679 263 729 L 263 737 L 380 737 Z" unicode="”" />
<glyph horiz-adv-x="421" d="M 214 116 L 214 109 C 214 67 207 27 193 -8 C 179 -44 158 -80 130 -114 L 19 -108 C 37 -86 55 -56 72 -20 C 88 15 97 58 97 108 L 97 116 L 214 116 Z M 382 116 L 382 109 C 382 67 375 27 361 -8 C 347 -44 326 -80 298 -114 L 187 -108 C 205 -86 223 -56 240 -20 C 256 15 265 58 265 108 L 265 116 L 382 116 Z" unicode="„" />
<glyph horiz-adv-x="429" d="M 413 361 L 275 361 L 275 -179 L 149 -179 L 149 361 L 18 361 L 18 474 L 149 474 L 149 730 L 275 730 L 275 474 L 413 474 L 413 361 Z" unicode="†" />
<glyph horiz-adv-x="441" d="M 155 -179 L 155 94 L 29 94 L 29 207 L 155 207 L 155 372 L 29 372 L 29 485 L 155 485 L 155 730 L 280 730 L 280 485 L 413 485 L 413 372 L 280 372 L 280 207 L 413 207 L 413 94 L 280 94 L 280 -179 L 155 -179 Z" unicode="‡" />
<glyph horiz-adv-x="383" d="M 191 489 C 221 489 247 478 269 457 C 290 435 301 409 301 379 C 301 348 290 322 269 301 C 247 280 221 270 191 270 C 160 270 134 280 114 301 C 93 322 83 348 83 379 C 83 409 93 435 114 457 C 134 478 160 489 191 489 Z" unicode="•" />
<glyph horiz-adv-x="684" d="M 53 0 L 53 140 L 175 140 L 175 0 L 53 0 Z M 281 0 L 281 140 L 402 140 L 402 0 L 281 0 Z M 509 0 L 509 140 L 630 140 L 630 0 L 509 0 Z" unicode="…" />
<glyph horiz-adv-x="1004" d="M 170 363 C 153 363 136 366 120 374 C 103 382 88 393 75 409 C 61 425 50 444 42 468 C 34 492 30 519 30 551 C 30 604 43 649 69 685 C 95 721 128 740 167 740 C 188 740 208 735 226 725 C 244 715 259 701 272 685 C 284 668 294 648 301 626 C 308 603 312 579 312 554 C 312 527 308 502 301 479 C 293 455 283 435 271 418 C 258 400 243 387 225 377 C 207 367 189 363 170 363 Z M 89 0 L 496 730 L 578 730 L 173 0 L 89 0 Z M 119 551 C 119 525 122 502 128 481 C 134 460 148 450 170 450 C 192 450 206 460 213 480 C 219 500 223 524 223 551 C 223 575 219 598 213 619 C 206 640 192 651 172 651 C 150 651 136 640 129 620 C 122 600 119 577 119 551 Z M 513 -3 C 495 -3 478 0 461 8 C 444 16 429 27 416 43 C 402 59 391 78 383 102 C 375 126 371 153 371 185 C 371 238 384 283 411 319 C 438 355 473 374 515 374 C 537 374 556 369 574 359 C 592 349 607 335 619 319 C 631 302 641 282 648 260 C 654 237 658 213 658 188 C 658 161 654 136 647 113 C 640 89 630 69 618 52 C 605 34 590 21 572 11 C 554 1 534 -3 513 -3 Z M 829 -3 C 811 -3 794 0 777 8 C 759 16 744 27 731 43 C 717 59 706 78 698 102 C 690 126 686 153 686 185 C 686 238 699 283 727 319 C 754 355 789 374 831 374 C 853 374 872 369 890 359 C 908 349 923 335 935 319 C 947 302 957 282 964 260 C 970 237 974 213 974 188 C 974 161 970 136 963 113 C 956 89 946 69 934 52 C 921 34 906 21 888 11 C 870 1 850 -3 829 -3 Z M 512 85 C 534 85 549 95 557 115 C 565 135 569 158 569 185 C 569 211 565 235 557 256 C 549 276 534 287 514 287 C 495 287 481 276 473 256 C 464 235 460 211 460 185 C 460 158 463 135 471 115 C 479 95 492 85 512 85 Z M 828 85 C 850 85 865 95 873 115 C 881 135 885 158 885 185 C 885 211 881 235 873 256 C 865 276 850 287 830 287 C 811 287 797 276 788 256 C 779 235 775 211 775 185 C 775 158 779 135 787 115 C 795 95 808 85 828 85 Z" unicode="‰" />
<glyph horiz-adv-x="249" d="M 221 106 L 26 276 L 26 345 L 221 513 L 221 397 L 130 308 L 221 225 L 221 106 Z" unicode="‹" />
<glyph horiz-adv-x="251" d="M 28 515 L 224 344 L 224 276 L 28 108 L 28 223 L 119 312 L 28 395 L 28 515 Z" unicode="›" />
<glyph horiz-adv-x="145" d="M 307 730 L -50 0 L -145 0 L 212 730 L 307 730 Z" unicode="⁄" />
<glyph horiz-adv-x="330" d="M 13 452 L 13 519 L 195 736 L 260 736 L 260 523 L 317 523 L 317 452 L 260 452 L 260 373 L 168 373 L 168 452 L 13 452 Z M 103 519 L 170 519 L 170 603 L 103 519 Z" unicode="⁴" />
<glyph horiz-adv-x="479" d="M 464 114 C 448 76 423 46 390 23 C 357 0 321 -12 283 -12 C 229 -12 183 11 146 57 C 108 103 84 169 74 257 L 24 257 L 24 336 L 68 336 C 68 340 68 344 68 348 C 68 352 68 356 68 360 C 68 365 68 370 68 376 C 68 382 68 387 68 393 L 24 393 L 24 471 L 74 471 C 84 556 106 622 141 670 C 176 718 223 742 282 742 C 332 742 371 730 399 706 C 427 682 447 654 460 624 L 376 575 C 366 595 355 611 342 621 C 329 631 310 636 286 636 C 262 636 241 622 223 595 C 205 568 193 527 187 471 L 430 471 L 430 393 L 182 393 C 181 387 181 382 181 376 C 181 370 181 364 181 358 C 181 354 181 350 181 346 C 181 342 181 339 181 336 L 430 336 L 430 257 L 186 257 C 193 197 206 154 226 129 C 245 104 267 92 291 92 C 314 92 333 99 348 114 C 362 128 374 147 384 170 L 464 114 Z" unicode="€" />
<glyph horiz-adv-x="837" d="M 789 326 L 689 326 L 689 555 L 576 374 L 558 374 L 447 555 L 447 326 L 351 326 L 351 730 L 446 730 L 570 520 L 704 730 L 789 730 L 789 326 Z M 322 617 L 236 617 L 236 326 L 111 326 L 111 617 L 19 617 L 19 730 L 322 730 L 322 617 Z" unicode="™" />
<glyph horiz-adv-x="736" d="M 30 0 L 30 110 L 234 110 L 234 165 C 202 172 174 184 148 202 C 122 220 99 241 81 266 C 62 291 47 319 37 351 C 26 382 21 415 21 449 C 21 490 28 529 44 565 C 59 601 81 633 110 660 C 139 687 175 708 218 724 C 261 740 310 748 364 748 C 420 748 469 740 513 724 C 557 708 593 686 623 660 C 653 633 675 601 691 565 C 706 528 714 489 714 449 C 714 379 696 319 661 267 C 626 215 573 181 501 165 L 501 110 L 704 110 L 704 0 L 415 0 L 415 229 C 442 235 466 246 487 260 C 508 274 526 291 540 310 C 554 328 564 349 571 372 C 578 395 582 418 582 442 C 582 501 561 550 521 588 C 480 626 428 646 365 646 C 303 646 252 626 213 588 C 173 549 154 500 154 440 C 154 394 167 351 195 312 C 222 272 264 245 321 229 L 321 0 L 30 0 Z" unicode="Ω" />
<glyph horiz-adv-x="487" d="M 447 287 C 447 233 441 187 430 149 C 418 111 403 80 384 57 C 365 33 343 16 318 6 C 292 -3 266 -9 238 -9 C 211 -9 185 -4 160 5 C 135 15 113 29 93 48 C 73 66 58 90 46 118 C 34 146 28 178 28 216 C 28 250 33 282 43 310 C 53 338 67 363 84 383 C 101 403 121 419 145 430 C 168 441 193 447 219 447 C 249 447 274 442 293 432 C 311 422 327 408 339 388 C 332 442 320 490 304 530 C 288 570 269 604 248 631 C 227 657 204 677 180 691 C 155 705 131 712 109 714 L 164 802 C 188 802 217 792 250 773 C 282 753 313 723 342 682 C 371 640 396 587 416 522 C 436 456 447 378 447 287 Z M 236 88 C 264 88 286 99 300 122 C 314 145 322 179 322 224 C 322 264 315 294 301 316 C 287 337 265 348 236 348 C 209 348 188 337 174 315 C 159 293 152 261 152 218 C 152 172 159 138 173 118 C 187 98 208 88 236 88 Z" unicode="∂" />
<glyph horiz-adv-x="573" d="M 576 0 L -1 0 L 272 730 L 304 730 L 576 0 Z M 423 90 L 285 510 L 147 90 L 423 90 Z" unicode="∆" />
<glyph horiz-adv-x="657" d="M 236 623 L 236 0 L 111 0 L 111 623 L 15 623 L 15 730 L 642 730 L 642 623 L 552 623 L 552 0 L 428 0 L 428 623 L 236 623 Z" unicode="∏" />
<glyph horiz-adv-x="549" d="M 207 623 L 410 307 L 173 -72 L 519 -72 L 519 -179 L -25 -179 L 289 306 L 5 730 L 498 730 L 498 623 L 207 623 Z" unicode="∑" />
<glyph horiz-adv-x="461" d="M 423 283 L 39 283 L 39 381 L 423 381 L 423 283 Z" unicode="−" />
<glyph horiz-adv-x="510" d="M 508 730 L 198 0 L 186 0 L 11 333 L 95 398 L 207 170 L 433 730 L 508 730 Z" unicode="√" />
<glyph horiz-adv-x="351" d="M 101 -9 L 157 620 C 159 640 164 658 172 674 C 180 689 191 702 203 712 C 215 722 229 730 244 735 C 259 740 274 743 288 743 C 302 743 317 742 332 741 C 347 740 356 739 359 739 L 350 636 C 348 636 344 637 338 638 C 332 638 326 639 320 639 C 301 639 286 632 274 620 C 262 607 256 587 254 561 L 201 -52 C 199 -68 195 -83 189 -99 C 182 -114 173 -128 162 -140 C 150 -152 137 -161 121 -169 C 105 -176 88 -179 70 -179 C 48 -179 28 -176 10 -172 C -7 -168 -22 -163 -32 -159 L -20 -74 C -15 -74 -8 -76 1 -79 C 10 -81 19 -83 28 -83 C 47 -83 63 -76 77 -64 C 90 -51 98 -33 101 -9 Z" unicode="∫" />
<glyph horiz-adv-x="461" d="M 355 509 L 441 509 C 439 461 429 420 413 388 C 396 355 370 339 335 339 C 313 339 292 342 272 350 C 252 358 237 367 225 378 C 213 388 202 397 191 405 C 179 413 167 417 155 417 C 143 417 131 409 121 395 C 110 380 105 362 105 342 L 20 342 C 20 392 29 433 49 464 C 68 495 95 511 130 511 C 152 511 173 505 193 495 C 213 485 229 474 242 464 C 254 455 265 447 275 439 C 285 431 296 428 308 428 C 325 428 337 435 344 449 C 351 463 355 483 355 509 Z M 355 323 L 441 323 C 439 275 429 234 413 202 C 396 169 370 153 335 153 C 313 153 292 157 273 165 C 253 173 237 182 225 193 C 213 204 201 213 191 219 C 181 225 169 229 156 229 C 144 229 132 222 121 209 C 110 196 105 178 105 156 L 20 156 C 20 207 29 248 49 279 C 68 309 95 325 130 325 C 152 325 173 319 192 308 C 211 296 227 285 240 275 C 251 265 262 257 274 251 C 285 245 296 242 308 242 C 325 242 337 248 344 262 C 351 276 355 296 355 323 Z" unicode="≈" />
<glyph horiz-adv-x="461" d="M 419 164 L 223 164 L 184 56 L 108 77 L 139 164 L 52 164 L 52 260 L 174 260 L 220 388 L 52 388 L 52 484 L 255 484 L 293 590 L 369 569 L 338 484 L 419 484 L 419 388 L 304 388 L 258 260 L 419 260 L 419 164 Z" unicode="≠" />
<glyph horiz-adv-x="462" d="M 47 287 L 47 361 L 415 557 L 415 455 L 165 327 L 412 205 L 412 104 L 47 287 Z M 46 104 L 412 104 L 412 17 L 46 17 L 46 104 Z" unicode="≤" />
<glyph horiz-adv-x="461" d="M 411 287 L 47 104 L 47 205 L 294 327 L 45 455 L 45 557 L 411 361 L 411 287 Z M 412 104 L 412 17 L 46 17 L 46 104 L 412 104 Z" unicode="≥" />
<glyph horiz-adv-x="545" d="M 516 326 L 278 -26 L 267 -26 L 28 326 L 28 337 L 267 688 L 278 688 L 516 337 L 516 326 Z M 405 327 L 405 336 L 277 530 L 269 530 L 139 336 L 139 327 L 269 132 L 277 132 L 405 327 Z" unicode="◊" />
<glyph horiz-adv-x="730" d="M 448 664 L 282 664 L 282 730 L 448 730 L 448 664 Z M 659 282 L 591 282 L 591 448 L 659 448 L 659 282 Z M 139 282 L 71 282 L 71 448 L 139 448 L 139 282 Z M 442 288 L 288 288 L 288 442 L 442 442 L 442 288 Z M 448 0 L 282 0 L 282 67 L 448 67 L 448 0 Z" unicode="" />
<glyph horiz-adv-x="434" d="M 233 433 L 174 433 L 174 0 L 55 0 L 55 433 L 13 433 L 13 522 L 55 522 L 55 642 C 55 665 59 686 68 706 C 76 726 87 743 101 757 C 115 771 130 782 147 790 C 164 798 181 802 198 802 C 220 802 240 799 258 794 C 276 789 289 784 296 779 L 266 699 C 262 701 256 703 247 706 C 237 708 229 710 221 710 C 207 710 196 703 186 689 C 176 675 171 655 171 627 L 171 522 L 233 522 L 233 433 Z M 400 603 L 277 603 L 277 708 L 400 708 L 400 603 Z M 398 0 L 279 0 L 279 522 L 398 522 L 398 0 Z" unicode="ﬁ" />
<glyph horiz-adv-x="475" d="M 483 9 C 475 5 466 1 454 -1 C 442 -3 427 -5 411 -5 C 375 -5 344 6 320 28 C 296 50 284 83 284 125 L 284 740 L 271 697 C 267 699 260 702 250 705 C 240 708 231 710 223 710 C 209 710 196 703 186 689 C 176 675 171 655 171 627 L 171 552 L 236 552 L 236 451 L 174 451 L 174 0 L 55 0 L 55 451 L 5 451 L 5 552 L 55 552 L 55 642 C 55 665 59 686 68 706 C 76 726 87 743 101 757 C 115 771 130 782 147 790 C 164 798 181 802 198 802 C 215 802 231 800 247 797 C 262 793 274 790 284 786 L 284 800 L 402 800 L 402 144 C 402 127 405 115 411 108 C 417 101 427 98 441 98 C 445 98 449 98 453 99 C 457 99 460 100 462 101 L 483 9 Z" unicode="ﬂ" />
</font>
</defs>
</svg>
