<?xml version="1.0" encoding="utf-8" ?><svg version="1.1" xmlns = 'http://www.w3.org/2000/svg'><defs><font id='web' horiz-adv-x="1000">
<font-face font-family="web" descent="-200" cap-height="730" units-per-em="1000" bbox="-165,-321,946,1034" x-height="540" ascent="800" />
<missing-glyph horiz-adv-x="500" d="" /><glyph horiz-adv-x="178" d="" unicode=" " />
<glyph horiz-adv-x="257" d="M 179 426 L 148 201 L 108 201 L 77 426 L 77 730 L 179 730 L 179 426 Z M 175 0 L 82 0 L 82 105 L 175 105 L 175 0 Z" unicode="!" />
<glyph horiz-adv-x="334" d="M 287 624 L 281 487 L 209 487 L 204 623 L 204 730 L 287 730 L 287 624 Z M 130 623 L 125 487 L 52 487 L 47 623 L 47 730 L 130 730 L 130 623 Z" unicode="&#x22;" />
<glyph horiz-adv-x="543" d="M 496 219 L 385 219 L 366 0 L 307 1 L 326 219 L 191 219 L 172 0 L 113 1 L 132 219 L 29 219 L 29 300 L 139 300 L 150 427 L 47 427 L 47 508 L 158 508 L 177 730 L 236 729 L 217 508 L 352 508 L 371 730 L 430 729 L 411 508 L 514 508 L 514 427 L 403 427 L 392 300 L 496 300 L 496 219 Z M 198 300 L 333 300 L 344 427 L 209 427 L 198 300 Z" unicode="#" />
<glyph horiz-adv-x="455" d="M 421 186 C 421 158 416 134 408 112 C 399 90 387 72 372 56 C 357 40 340 28 320 18 C 300 8 279 2 257 0 L 257 -129 L 202 -129 L 202 -1 C 166 1 133 9 103 23 C 73 37 46 58 22 87 L 69 156 C 85 131 105 112 130 99 C 154 86 178 79 202 77 L 202 342 C 152 370 113 399 85 430 C 57 461 43 504 43 559 C 43 607 58 646 88 677 C 118 707 156 725 202 731 L 202 792 L 257 792 L 257 731 C 289 728 317 721 341 709 C 365 697 387 681 405 663 L 356 602 C 342 616 326 628 309 636 C 292 644 275 649 257 652 L 257 407 L 262 404 C 320 372 361 341 385 309 C 409 277 421 236 421 186 Z M 131 551 C 131 527 136 506 146 490 C 155 473 174 456 202 438 L 202 649 C 182 643 166 631 152 614 C 138 597 131 576 131 551 Z M 333 190 C 333 214 327 236 316 254 C 305 272 285 290 257 309 L 257 84 C 277 90 295 102 310 119 C 325 136 333 160 333 190 Z" unicode="$" />
<glyph horiz-adv-x="678" d="M 168 363 C 152 363 136 366 120 374 C 104 382 89 393 77 409 C 64 425 54 444 46 468 C 38 492 35 519 35 551 C 35 604 47 649 72 685 C 97 721 129 740 167 740 C 187 740 206 735 223 725 C 240 715 254 701 266 685 C 278 668 287 648 294 626 C 300 603 304 579 304 554 C 304 527 300 502 293 479 C 286 455 277 435 265 418 C 253 400 238 387 222 377 C 205 367 187 363 168 363 Z M 158 0 L 84 0 L 501 730 L 573 730 L 158 0 Z M 168 433 C 194 433 211 445 220 470 C 229 494 234 521 234 551 C 234 565 233 579 231 593 C 229 607 225 620 220 632 C 215 643 208 652 200 659 C 192 666 182 670 170 670 C 145 670 128 657 119 633 C 109 608 105 581 105 551 C 105 536 106 522 108 508 C 110 494 113 481 118 470 C 122 459 129 450 137 443 C 145 436 155 433 168 433 Z M 505 -3 C 488 -3 471 0 455 8 C 439 16 424 27 412 43 C 399 59 389 78 381 102 C 373 126 369 153 369 185 C 369 238 381 283 407 319 C 433 355 466 374 507 374 C 527 374 546 369 563 359 C 580 349 594 335 606 319 C 617 302 626 282 632 260 C 638 237 642 213 642 188 C 642 161 638 136 632 113 C 625 89 616 69 604 52 C 592 34 577 21 561 11 C 544 1 525 -3 505 -3 Z M 504 68 C 530 68 547 80 557 104 C 567 128 572 155 572 185 C 572 215 567 242 557 267 C 547 291 530 304 506 304 C 483 304 466 291 455 267 C 444 243 439 215 439 185 C 439 155 443 128 453 104 C 463 80 480 68 504 68 Z" unicode="%" />
<glyph horiz-adv-x="638" d="M 568 -5 L 492 76 C 460 48 424 27 386 13 C 348 -1 305 -8 258 -8 C 188 -8 132 8 91 41 C 49 74 29 120 29 180 C 29 240 43 286 73 318 C 103 350 140 378 184 404 L 173 416 C 156 433 139 456 123 484 C 107 512 99 545 99 583 C 99 602 102 621 110 640 C 117 658 128 675 142 689 C 156 703 173 715 194 724 C 215 732 239 737 267 737 C 320 737 363 722 395 694 C 427 665 444 631 444 592 C 444 551 432 515 409 484 C 386 452 354 422 313 394 L 494 205 C 502 217 511 231 521 245 C 530 259 539 275 549 291 L 622 240 C 611 221 600 203 589 187 C 577 171 566 155 555 141 L 634 59 L 568 -5 Z M 243 466 L 261 448 C 295 468 319 488 334 507 C 349 525 357 545 357 567 C 357 589 349 609 335 627 C 320 644 299 653 273 653 C 247 653 226 643 212 623 C 198 603 191 583 191 563 C 191 545 195 528 204 514 C 213 500 226 484 243 466 Z M 130 196 C 130 161 144 132 172 110 C 200 87 234 76 272 76 C 302 76 331 81 357 91 C 383 101 409 117 433 139 L 238 346 C 207 326 181 304 161 282 C 140 259 130 230 130 196 Z" unicode="&#x26;" />
<glyph horiz-adv-x="180" d="M 133 621 L 129 483 L 51 483 L 46 621 L 46 730 L 133 730 L 133 621 Z" unicode="'" />
<glyph horiz-adv-x="292" d="M 271 -95 L 271 -179 C 239 -163 208 -140 178 -111 C 148 -82 121 -48 98 -8 C 74 31 56 76 42 127 C 28 178 21 233 21 293 C 21 348 27 400 40 448 C 52 496 70 540 92 579 C 114 618 140 652 171 681 C 201 709 235 732 271 749 L 271 667 C 220 635 181 586 155 522 C 128 458 114 381 114 293 C 114 209 126 133 151 65 C 175 -2 215 -56 271 -95 Z" unicode="(" />
<glyph horiz-adv-x="292" d="M 21 666 L 21 749 C 55 734 87 713 118 685 C 148 657 175 623 197 584 C 219 544 237 499 251 449 C 264 398 271 343 271 284 C 271 228 264 176 251 127 C 237 78 219 34 197 -4 C 174 -43 147 -78 117 -108 C 87 -138 55 -161 21 -179 L 21 -92 C 75 -55 114 -3 140 62 C 165 128 178 202 178 284 C 178 374 166 452 140 518 C 114 584 74 633 21 666 Z" unicode=")" />
<glyph horiz-adv-x="380" d="M 361 578 L 230 555 L 325 468 L 255 412 L 192 528 L 130 414 L 55 467 L 154 556 L 24 577 L 65 668 L 168 601 L 145 730 L 239 730 L 215 601 L 324 660 L 361 578 Z" unicode="*" />
<glyph horiz-adv-x="472" d="M 448 295 L 274 295 L 274 125 L 199 125 L 199 295 L 25 295 L 25 369 L 199 369 L 199 537 L 274 537 L 274 369 L 448 369 L 448 295 Z" unicode="+" />
<glyph horiz-adv-x="206" d="M 172 104 C 171 82 168 58 162 34 C 156 10 148 -13 139 -36 C 130 -58 120 -79 109 -98 C 98 -117 87 -133 77 -145 L 6 -113 C 13 -103 21 -89 29 -73 C 37 -57 44 -39 51 -20 C 57 0 63 19 68 41 C 72 62 75 83 76 104 L 172 104 Z" unicode="," />
<glyph horiz-adv-x="313" d="M 279 224 L 35 224 L 35 308 L 279 308 L 279 224 Z" unicode="-" />
<glyph horiz-adv-x="208" d="M 151 0 L 57 0 L 57 125 L 151 125 L 151 0 Z" unicode="." />
<glyph horiz-adv-x="306" d="M 303 730 L 89 0 L 3 0 L 219 730 L 303 730 Z" unicode="/" />
<glyph horiz-adv-x="440" d="M 217 -7 C 190 -7 165 0 142 11 C 119 23 99 44 83 73 C 66 101 53 139 43 187 C 33 234 29 292 29 361 C 29 477 44 569 75 637 C 106 704 155 738 221 738 C 255 738 284 729 308 712 C 332 695 352 671 367 640 C 382 608 393 570 400 524 C 407 478 411 428 411 372 C 411 247 394 153 362 89 C 329 25 281 -7 217 -7 Z M 218 71 C 253 71 279 93 295 139 C 311 185 319 260 319 364 C 319 463 312 537 298 585 C 284 633 258 658 220 658 C 183 658 157 634 142 588 C 127 542 120 467 120 365 C 120 255 128 179 146 136 C 163 92 187 71 218 71 Z" unicode="0" />
<glyph horiz-adv-x="294" d="M 233 0 L 138 0 L 138 594 C 127 573 111 554 89 536 C 67 518 46 508 27 506 L 27 605 C 37 606 48 611 61 619 C 73 627 85 638 97 650 C 109 662 119 675 129 690 C 139 704 146 719 151 733 L 233 733 L 233 0 Z" unicode="1" />
<glyph horiz-adv-x="426" d="M 397 0 L 22 0 L 22 17 L 239 344 C 257 374 273 405 285 438 C 297 470 303 507 303 548 C 303 585 294 612 278 630 C 261 648 239 657 211 657 C 177 657 152 645 137 621 C 121 597 114 563 114 520 L 28 520 C 28 594 44 649 77 684 C 109 719 153 737 208 737 C 261 737 305 722 339 692 C 373 662 391 618 391 562 C 391 504 384 458 372 422 C 360 386 344 354 326 326 L 168 87 L 397 87 L 397 0 Z" unicode="2" />
<glyph horiz-adv-x="425" d="M 183 -7 C 135 -7 95 0 64 12 C 32 24 8 38 -8 53 L 27 126 C 41 112 61 99 86 87 C 110 75 141 70 177 70 C 219 70 253 84 277 113 C 301 141 314 178 314 224 C 314 247 310 267 303 284 C 295 301 286 315 274 326 C 262 336 248 344 233 350 C 217 355 202 358 186 358 L 111 358 L 111 437 L 185 437 C 215 437 240 447 260 467 C 280 487 290 516 290 554 C 290 586 280 612 262 631 C 244 650 218 660 185 660 C 157 660 132 654 110 642 C 88 630 70 615 54 595 L 1 651 C 19 673 44 693 77 711 C 110 729 153 738 205 738 C 257 738 298 723 330 694 C 362 664 378 624 378 573 C 378 527 366 489 343 459 C 320 429 292 411 260 403 C 276 399 293 393 310 384 C 327 374 342 362 356 347 C 369 331 380 313 388 292 C 396 271 401 247 401 221 C 401 193 397 166 389 139 C 381 111 368 87 351 65 C 333 43 311 26 283 13 C 255 0 222 -7 183 -7 Z" unicode="3" />
<glyph horiz-adv-x="416" d="M 415 182 L 344 182 L 344 0 L 264 0 L 264 182 L 3 182 L 2 243 L 286 738 L 344 738 L 344 263 L 415 263 L 415 182 Z M 264 253 L 264 567 L 91 253 L 264 253 Z" unicode="4" />
<glyph horiz-adv-x="415" d="M 203 -7 C 161 -7 122 0 86 16 C 50 31 22 50 3 74 L 48 144 C 62 127 81 111 104 96 C 127 80 154 73 185 73 C 223 73 252 88 274 119 C 296 149 307 192 307 247 C 307 295 297 332 278 358 C 259 384 234 397 204 397 C 171 397 147 390 131 376 C 115 362 103 345 95 324 L 32 345 L 59 730 L 364 730 L 363 643 L 126 643 L 108 409 C 115 423 128 438 146 452 C 164 466 193 474 233 474 C 281 474 320 456 351 420 C 382 384 398 329 398 255 C 398 211 392 172 382 139 C 371 106 357 79 339 57 C 321 35 301 19 277 9 C 253 -1 229 -7 203 -7 Z" unicode="5" />
<glyph horiz-adv-x="417" d="M 218 -9 C 192 -9 168 -4 144 5 C 120 15 100 29 82 49 C 64 68 50 92 40 121 C 29 149 24 182 24 220 C 24 286 38 354 66 424 C 94 494 137 568 195 648 L 266 745 L 334 700 L 293 641 C 271 610 250 580 230 550 C 210 520 191 492 175 466 C 159 440 145 416 134 394 C 122 372 115 353 112 338 C 123 364 140 386 164 404 C 188 422 215 431 245 431 C 269 431 290 425 310 415 C 329 404 345 389 358 370 C 371 350 381 327 389 301 C 396 275 400 246 400 215 C 400 149 383 96 349 54 C 315 12 271 -9 218 -9 Z M 216 71 C 245 71 268 83 286 108 C 303 132 312 167 312 211 C 312 257 303 292 286 316 C 268 339 245 351 217 351 C 189 351 165 339 145 317 C 125 294 116 260 116 215 C 116 165 125 128 145 105 C 165 82 188 71 216 71 Z" unicode="6" />
<glyph horiz-adv-x="354" d="M 359 730 L 359 686 L 108 -4 L 23 26 L 262 643 L 9 643 L 9 730 L 359 730 Z" unicode="7" />
<glyph horiz-adv-x="431" d="M 292 391 C 306 387 320 381 334 373 C 348 364 361 352 373 337 C 385 322 394 304 402 282 C 410 260 414 235 414 206 C 414 140 396 88 361 50 C 325 12 278 -7 218 -7 C 156 -7 107 11 71 48 C 35 85 17 135 17 198 C 17 229 21 256 29 280 C 37 303 48 322 61 338 C 73 354 87 366 101 375 C 115 384 129 390 141 393 C 129 397 116 403 104 411 C 92 419 81 429 71 443 C 61 456 52 472 46 491 C 40 510 37 533 37 559 C 37 587 41 612 51 634 C 60 656 73 674 89 690 C 105 705 123 717 145 725 C 167 733 190 737 215 737 C 268 737 311 721 344 689 C 377 657 394 616 394 566 C 394 540 390 517 384 497 C 378 477 370 460 360 446 C 350 432 340 420 328 411 C 316 402 304 395 292 391 Z M 216 415 C 243 415 266 424 285 444 C 303 463 313 494 313 537 C 313 576 303 606 284 628 C 265 649 242 660 216 660 C 188 660 164 649 145 629 C 126 609 117 578 117 538 C 117 514 120 495 126 479 C 132 463 140 450 150 441 C 160 431 170 425 182 421 C 194 417 205 415 216 415 Z M 217 70 C 249 70 274 81 294 103 C 313 125 323 161 323 209 C 323 253 312 286 290 308 C 268 329 243 340 217 340 C 187 340 162 329 140 308 C 118 287 108 253 108 205 C 108 161 119 127 141 104 C 163 81 188 70 217 70 Z" unicode="8" />
<glyph horiz-adv-x="417" d="M 166 -12 L 98 37 L 128 76 C 145 99 163 125 183 155 C 202 185 220 214 237 244 C 254 274 269 302 282 330 C 295 357 305 380 311 399 C 299 374 280 353 254 335 C 228 317 200 308 172 308 C 124 308 86 328 58 369 C 30 409 16 461 16 523 C 16 587 34 638 70 678 C 106 717 150 737 204 737 C 229 737 253 732 276 723 C 299 714 319 700 336 682 C 353 664 367 640 377 612 C 387 584 393 551 393 514 C 393 470 388 428 378 387 C 368 345 355 306 339 268 C 323 230 304 193 284 159 C 263 125 242 93 221 64 L 166 -12 Z M 199 388 C 211 388 223 390 235 395 C 247 399 257 407 267 417 C 277 427 285 440 291 456 C 297 472 301 492 301 516 C 301 566 291 602 272 624 C 252 646 229 657 202 657 C 171 657 147 645 130 623 C 113 600 105 567 105 524 C 105 476 113 441 129 420 C 145 398 169 388 199 388 Z" unicode="9" />
<glyph horiz-adv-x="206" d="M 150 420 L 56 420 L 56 540 L 150 540 L 150 420 Z M 150 0 L 56 0 L 56 121 L 150 121 L 150 0 Z" unicode=":" />
<glyph horiz-adv-x="206" d="M 156 420 L 63 420 L 63 540 L 156 540 L 156 420 Z M 159 100 C 158 76 155 52 149 28 C 143 4 136 -18 128 -40 C 120 -61 110 -81 100 -99 C 89 -117 78 -133 68 -145 L -3 -113 C 5 -103 13 -90 21 -74 C 29 -58 37 -40 44 -22 C 50 -3 56 16 60 37 C 64 58 67 79 67 100 L 159 100 Z" unicode=";" />
<glyph horiz-adv-x="386" d="M 341 102 L 31 294 L 31 356 L 341 545 L 341 458 L 120 325 L 341 191 L 341 102 Z" unicode="&#x3C;" />
<glyph horiz-adv-x="483" d="M 430 388 L 55 388 L 55 468 L 430 468 L 430 388 Z M 430 175 L 55 175 L 55 255 L 430 255 L 430 175 Z" unicode="=" />
<glyph horiz-adv-x="386" d="M 350 294 L 40 102 L 40 189 L 258 325 L 40 458 L 40 545 L 350 356 L 350 294 Z" unicode="&#x3E;" />
<glyph horiz-adv-x="427" d="M 154 204 C 154 245 159 280 170 309 C 180 337 197 365 220 393 C 238 414 256 438 274 464 C 292 490 301 521 301 557 C 301 587 291 611 272 629 C 253 646 229 655 201 655 C 174 655 151 648 131 634 C 111 620 93 602 78 582 L 23 640 C 47 674 76 699 110 716 C 144 733 179 742 217 742 C 275 742 319 726 351 695 C 383 664 399 622 399 568 C 399 543 395 520 389 500 C 382 479 373 460 363 442 C 353 424 341 408 329 393 C 316 377 303 362 291 348 C 272 328 259 305 253 278 C 247 251 243 226 243 204 L 154 204 Z M 150 0 L 150 113 L 251 113 L 251 0 L 150 0 Z" unicode="?" />
<glyph horiz-adv-x="799" d="M 396 -43 C 342 -43 292 -33 247 -13 C 201 7 163 33 131 67 C 99 101 74 141 56 187 C 38 233 30 282 30 334 C 30 386 39 435 57 481 C 75 527 101 566 134 600 C 166 634 205 661 251 681 C 297 701 347 711 401 711 C 457 711 507 702 553 685 C 598 668 637 644 669 614 C 701 584 725 547 743 504 C 760 461 769 414 769 364 C 769 321 764 284 755 253 C 745 222 733 197 718 177 C 702 157 685 143 665 134 C 645 124 626 120 606 120 C 577 120 554 127 537 141 C 520 155 510 173 507 195 C 498 179 480 163 452 146 C 424 128 391 120 353 120 C 307 120 271 131 245 155 C 219 179 206 212 206 254 C 206 277 210 297 220 315 C 230 333 243 347 260 359 C 277 371 297 380 321 386 C 344 392 369 395 396 395 L 487 395 L 487 410 C 487 441 477 463 459 476 C 441 489 418 496 391 496 C 367 496 345 493 324 487 C 303 481 286 476 274 472 L 250 528 C 269 537 291 545 316 551 C 341 557 368 560 398 560 C 452 560 492 546 518 519 C 544 492 558 449 558 391 L 558 240 C 558 225 562 212 572 201 C 581 190 595 185 614 185 C 625 185 636 187 648 192 C 659 197 669 206 678 219 C 686 231 693 249 699 272 C 705 295 708 324 708 360 C 708 402 700 442 686 478 C 672 514 651 545 625 571 C 598 597 566 617 528 631 C 490 645 447 653 401 653 C 355 653 313 644 275 628 C 237 611 204 588 177 559 C 150 530 129 496 114 457 C 98 418 91 377 91 333 C 91 289 98 248 113 209 C 128 169 149 135 176 106 C 202 77 235 54 273 37 C 311 20 352 12 398 12 C 418 12 437 13 456 17 C 475 21 497 28 522 40 L 543 -10 C 515 -22 490 -31 467 -36 C 444 -40 420 -43 396 -43 Z M 374 184 C 400 184 425 190 447 203 C 469 215 483 228 487 242 L 487 340 L 401 340 C 363 340 333 333 313 319 C 292 305 282 285 282 259 C 282 235 290 216 306 203 C 322 190 344 184 374 184 Z" unicode="@" />
<glyph horiz-adv-x="479" d="M 478 0 L 383 0 L 334 179 L 139 179 L 94 0 L 1 0 L 205 734 L 274 734 L 478 0 Z M 322 250 L 236 569 L 153 250 L 322 250 Z" unicode="A" />
<glyph horiz-adv-x="450" d="M 59 0 L 59 730 L 234 730 C 283 730 323 714 355 683 C 387 652 403 610 403 556 C 403 504 390 463 365 434 C 340 404 311 387 279 382 C 296 380 314 376 332 368 C 350 360 367 348 382 334 C 396 319 408 301 418 279 C 427 257 432 233 432 205 C 432 144 415 95 381 57 C 347 19 303 0 250 0 L 59 0 Z M 155 409 L 213 409 C 249 409 274 422 290 449 C 305 475 313 505 313 538 C 313 572 304 600 287 621 C 270 641 244 652 208 652 L 155 652 L 155 409 Z M 155 78 L 229 78 C 266 78 293 90 311 116 C 328 141 337 172 337 208 C 337 250 325 282 303 302 C 281 322 252 332 216 332 L 155 332 L 155 78 Z" unicode="B" />
<glyph horiz-adv-x="528" d="M 282 -7 C 208 -7 149 23 103 85 C 57 147 34 240 34 366 C 34 483 55 574 97 639 C 139 704 201 737 282 737 C 342 737 387 721 419 690 C 451 659 473 620 486 574 L 397 544 C 386 574 372 599 356 620 C 339 640 314 651 282 651 C 235 651 198 629 172 585 C 146 541 133 467 133 362 C 133 308 137 263 146 227 C 154 191 166 162 180 140 C 194 118 211 102 230 92 C 248 82 267 78 287 78 C 323 78 351 89 371 111 C 390 133 405 162 416 198 L 498 160 C 480 108 454 67 418 37 C 382 7 337 -7 282 -7 Z" unicode="C" />
<glyph horiz-adv-x="540" d="M 59 0 L 59 730 L 222 730 C 268 730 308 721 344 704 C 379 686 409 662 433 630 C 457 598 475 560 487 515 C 499 469 506 419 506 365 C 506 314 500 266 488 222 C 476 177 458 138 434 106 C 410 73 379 47 343 28 C 307 9 264 0 215 0 L 59 0 Z M 158 83 L 216 83 C 284 83 333 108 362 159 C 390 210 405 278 405 364 C 405 459 389 530 357 577 C 325 623 281 647 224 647 L 158 647 L 158 83 Z" unicode="D" />
<glyph horiz-adv-x="395" d="M 382 0 L 59 0 L 59 730 L 364 730 L 364 643 L 157 643 L 157 407 L 356 407 L 356 323 L 157 323 L 157 87 L 382 87 L 382 0 Z" unicode="E" />
<glyph horiz-adv-x="356" d="M 348 643 L 160 643 L 160 410 L 337 410 L 337 326 L 160 326 L 160 0 L 60 0 L 60 730 L 348 730 L 348 643 Z" unicode="F" />
<glyph horiz-adv-x="541" d="M 278 363 L 505 363 L 505 117 C 486 80 458 50 421 27 C 384 4 338 -7 284 -7 C 250 -7 217 1 187 18 C 156 34 129 58 107 90 C 84 121 66 160 53 207 C 40 253 34 306 34 365 C 34 421 39 473 51 519 C 63 565 79 604 101 636 C 123 668 149 692 181 710 C 212 727 247 736 285 736 C 343 736 387 723 418 697 C 449 671 472 641 488 605 L 408 552 C 397 579 382 602 363 620 C 344 638 320 648 291 648 C 243 648 204 624 176 578 C 148 532 134 459 134 360 C 134 260 148 188 178 142 C 208 96 243 73 285 73 C 316 73 343 78 365 89 C 387 99 404 116 415 140 L 415 280 L 278 280 L 278 363 Z" unicode="G" />
<glyph horiz-adv-x="535" d="M 475 0 L 375 0 L 375 320 L 159 320 L 159 0 L 59 0 L 59 730 L 159 730 L 159 402 L 375 402 L 375 730 L 475 730 L 475 0 Z" unicode="H" />
<glyph horiz-adv-x="227" d="M 164 0 L 63 0 L 63 730 L 164 730 L 164 0 Z" unicode="I" />
<glyph horiz-adv-x="288" d="M 231 730 L 231 182 C 231 127 216 82 186 46 C 156 10 115 -8 61 -8 C 48 -8 34 -6 19 -3 C 3 0 -8 3 -16 9 L 4 90 C 8 87 15 85 24 84 C 32 82 41 82 50 82 C 76 82 96 93 110 117 C 124 140 131 168 131 201 L 131 730 L 231 730 Z" unicode="J" />
<glyph horiz-adv-x="493" d="M 503 0 L 393 0 L 192 311 L 160 271 L 160 0 L 59 0 L 59 730 L 160 730 L 160 406 L 379 730 L 481 730 L 251 400 L 503 0 Z" unicode="K" />
<glyph horiz-adv-x="359" d="M 352 0 L 59 0 L 59 730 L 159 730 L 159 87 L 352 87 L 352 0 Z" unicode="L" />
<glyph horiz-adv-x="644" d="M 585 0 L 490 0 L 490 523 L 346 186 L 301 186 L 152 523 L 152 0 L 59 0 L 59 730 L 152 730 L 324 323 L 498 730 L 585 730 L 585 0 Z" unicode="M" />
<glyph horiz-adv-x="534" d="M 475 0 L 404 0 L 153 494 L 153 0 L 59 0 L 59 730 L 130 730 L 384 231 L 384 730 L 475 730 L 475 0 Z" unicode="N" />
<glyph horiz-adv-x="571" d="M 288 -7 C 207 -7 144 25 100 90 C 56 154 34 248 34 371 C 34 485 56 575 101 640 C 146 704 207 737 283 737 C 364 737 427 705 471 641 C 515 577 537 485 537 365 C 537 248 514 157 468 91 C 422 25 362 -7 288 -7 Z M 286 73 C 332 73 368 97 395 145 C 421 193 435 269 435 372 C 435 467 421 538 394 586 C 366 633 330 657 284 657 C 236 657 200 633 175 586 C 149 539 137 465 137 365 C 137 262 150 188 178 142 C 205 96 241 73 286 73 Z" unicode="O" />
<glyph horiz-adv-x="443" d="M 59 0 L 59 730 L 242 730 C 267 730 291 725 314 716 C 336 706 356 693 373 676 C 389 658 402 637 412 611 C 422 585 427 557 427 525 C 427 459 409 406 374 367 C 338 328 294 309 242 309 L 159 309 L 159 0 L 59 0 Z M 159 391 L 220 391 C 255 391 282 401 300 423 C 318 445 328 479 328 525 C 328 566 317 597 296 617 C 275 637 249 647 219 647 L 159 647 L 159 391 Z" unicode="P" />
<glyph horiz-adv-x="571" d="M 506 -61 L 506 -158 C 470 -151 432 -134 393 -108 C 354 -81 321 -47 294 -5 C 293 -5 292 -5 291 -5 C 289 -5 288 -5 288 -5 C 209 -5 147 27 102 91 C 56 155 34 248 34 371 C 34 485 56 575 102 640 C 147 704 207 737 283 737 C 363 737 426 705 470 641 C 514 577 537 485 537 366 C 537 278 523 204 496 145 C 468 85 432 43 387 19 C 407 -5 429 -23 452 -36 C 475 -49 493 -57 506 -61 Z M 136 365 C 136 276 146 208 168 161 C 189 113 218 85 255 76 C 249 92 245 110 242 129 C 238 148 237 168 238 188 L 321 188 C 321 169 324 151 328 134 C 332 117 337 102 344 88 C 372 105 395 137 411 184 C 427 231 436 293 436 370 C 436 470 421 543 393 588 C 364 633 328 656 284 656 C 236 656 200 633 174 587 C 148 541 136 467 136 365 Z" unicode="Q" />
<glyph horiz-adv-x="462" d="M 59 0 L 59 730 L 218 730 C 272 730 316 713 352 680 C 388 646 406 596 406 528 C 406 474 394 429 370 393 C 346 357 317 337 281 333 L 279 328 L 461 0 L 359 0 L 194 307 L 151 307 L 151 0 L 59 0 Z M 151 389 L 205 389 C 237 389 263 400 283 424 C 303 447 314 479 314 519 C 314 563 303 596 282 617 C 260 637 235 648 207 648 L 151 648 L 151 389 Z" unicode="R" />
<glyph horiz-adv-x="411" d="M 206 -7 C 167 -7 132 0 101 13 C 69 26 41 49 17 82 L 83 141 C 97 117 115 99 137 87 C 159 75 180 70 201 70 C 226 70 248 79 268 98 C 288 117 298 143 298 176 C 298 210 289 237 272 259 C 254 281 223 306 179 335 C 134 363 99 395 74 429 C 49 463 37 508 37 564 C 37 590 41 614 51 636 C 60 657 72 675 88 690 C 104 705 122 717 144 725 C 166 733 189 737 213 737 C 252 737 284 730 310 716 C 336 702 356 687 371 670 L 312 609 C 300 621 286 632 269 641 C 252 649 233 654 213 654 C 191 654 171 645 153 629 C 135 613 126 589 126 559 C 126 529 134 504 150 484 C 165 464 196 440 243 412 C 296 380 333 346 354 311 C 374 275 385 232 385 182 C 385 151 380 124 370 100 C 360 76 346 57 330 41 C 313 25 294 13 272 5 C 250 -3 228 -7 206 -7 Z" unicode="S" />
<glyph horiz-adv-x="377" d="M 370 643 L 238 643 L 238 0 L 138 0 L 138 643 L 7 643 L 7 730 L 370 730 L 370 643 Z" unicode="T" />
<glyph horiz-adv-x="534" d="M 478 730 L 478 218 C 478 177 472 142 460 114 C 448 85 432 62 412 44 C 392 26 369 13 343 5 C 317 -3 289 -7 261 -7 C 233 -7 207 -3 182 4 C 157 12 135 24 117 42 C 98 60 83 83 72 112 C 61 140 56 176 56 218 L 56 730 L 155 730 L 155 216 C 155 166 165 130 186 110 C 206 89 233 79 265 79 C 295 79 321 88 342 108 C 363 128 374 164 374 216 L 374 730 L 478 730 Z" unicode="U" />
<glyph horiz-adv-x="460" d="M 459 730 L 265 -4 L 191 -4 L 1 730 L 97 730 L 231 169 L 367 730 L 459 730 Z" unicode="V" />
<glyph horiz-adv-x="689" d="M 669 730 L 520 -3 L 451 -3 L 336 549 L 221 -3 L 153 -3 L 5 730 L 99 730 L 200 182 L 305 730 L 378 730 L 483 184 L 584 730 L 669 730 Z" unicode="W" />
<glyph horiz-adv-x="444" d="M 338 0 L 218 275 L 96 0 L 5 0 L 173 377 L 19 730 L 118 730 L 223 489 L 330 730 L 420 730 L 268 387 L 436 0 L 338 0 Z" unicode="X" />
<glyph horiz-adv-x="461" d="M 464 730 L 278 316 L 278 0 L 178 0 L 178 318 L -3 730 L 113 730 L 234 418 L 369 730 L 464 730 Z" unicode="Y" />
<glyph horiz-adv-x="419" d="M 393 730 L 393 679 L 136 84 L 405 84 L 405 0 L 15 0 L 15 49 L 272 644 L 43 644 L 43 730 L 393 730 Z" unicode="Z" />
<glyph horiz-adv-x="223" d="M 203 -179 L 47 -179 L 47 730 L 203 730 L 203 646 L 135 646 L 135 -95 L 203 -95 L 203 -179 Z" unicode="[" />
<glyph horiz-adv-x="306" d="M 3 730 L 86 730 L 303 0 L 218 0 L 3 730 Z" unicode="\" />
<glyph horiz-adv-x="226" d="M 180 -179 L 23 -179 L 23 -95 L 91 -95 L 91 646 L 23 646 L 23 730 L 180 730 L 180 -179 Z" unicode="]" />
<glyph horiz-adv-x="432" d="M 410 369 L 330 369 L 214 636 L 101 369 L 21 369 L 175 730 L 254 730 L 410 369 Z" unicode="^" />
<glyph horiz-adv-x="426" d="M 426 -157 L 0 -157 L 0 -82 L 426 -82 L 426 -157 Z" unicode="_" />
<glyph horiz-adv-x="500" d="M 342 602 L 254 602 L 152 774 L 257 774 L 342 602 Z" unicode="`" />
<glyph horiz-adv-x="373" d="M 333 0 L 257 0 L 257 51 C 240 32 224 18 208 9 C 192 0 170 -5 141 -5 C 105 -5 76 9 53 38 C 29 67 18 109 18 163 C 18 221 33 263 64 289 C 94 315 131 331 173 335 L 247 341 L 247 385 C 247 412 240 432 228 446 C 215 459 197 466 173 466 C 151 466 131 461 114 453 C 97 444 84 435 75 427 L 48 503 C 61 515 79 525 103 535 C 127 545 156 550 192 550 C 234 550 268 537 294 513 C 320 488 333 453 333 408 L 333 0 Z M 249 111 L 249 278 L 194 273 C 169 270 148 260 132 243 C 115 225 107 198 107 160 C 107 126 114 101 128 86 C 142 71 157 64 174 64 C 192 64 207 68 219 78 C 231 87 241 98 249 111 Z" unicode="a" />
<glyph horiz-adv-x="407" d="M 237 -4 C 209 -4 185 3 165 19 C 145 35 130 55 121 79 L 121 0 L 40 0 L 40 800 L 127 800 L 127 437 C 134 464 147 489 166 511 C 185 533 211 544 245 544 C 289 544 323 520 348 472 C 373 424 386 360 386 282 C 386 192 372 121 344 71 C 316 21 280 -4 237 -4 Z M 205 72 C 231 72 251 88 267 120 C 283 152 291 203 291 273 C 291 337 283 384 268 415 C 253 445 232 461 206 461 C 184 461 165 446 149 418 C 133 390 125 337 125 259 C 125 219 127 187 132 163 C 136 139 142 120 150 106 C 157 92 165 83 175 79 C 185 74 195 72 205 72 Z" unicode="b" />
<glyph horiz-adv-x="354" d="M 296 126 L 341 71 C 329 51 313 34 292 18 C 271 2 244 -5 210 -5 C 179 -5 152 1 128 15 C 104 29 85 48 69 72 C 53 96 41 124 33 158 C 25 192 21 229 21 269 C 21 305 24 340 32 374 C 40 408 51 437 67 462 C 83 487 102 507 126 522 C 149 537 176 545 207 545 C 243 545 272 535 296 516 C 319 497 336 477 346 455 L 281 407 C 274 422 265 435 253 446 C 241 457 226 463 208 463 C 178 463 155 445 139 411 C 123 377 116 331 116 273 C 116 203 126 153 146 121 C 166 89 191 74 221 74 C 241 74 257 80 269 92 C 280 104 289 115 296 126 Z" unicode="c" />
<glyph horiz-adv-x="420" d="M 179 -5 C 155 -5 133 1 113 15 C 93 29 77 48 63 72 C 49 96 39 124 32 157 C 24 190 21 226 21 265 C 21 349 35 417 65 467 C 94 517 132 543 178 543 C 207 543 232 532 252 511 C 272 489 286 464 293 434 L 293 800 L 379 800 L 379 0 L 298 0 L 298 81 C 292 60 279 40 259 22 C 239 4 212 -5 179 -5 Z M 207 72 C 233 72 255 88 271 121 C 287 153 295 204 295 274 C 295 343 286 391 269 419 C 251 446 230 460 206 460 C 178 460 156 444 140 414 C 124 384 116 336 116 270 C 116 202 124 152 140 120 C 156 88 178 72 207 72 Z" unicode="d" />
<glyph horiz-adv-x="387" d="M 199 -5 C 145 -5 101 19 69 69 C 37 119 21 185 21 267 C 21 352 37 419 71 469 C 105 519 147 544 197 544 C 255 544 298 517 327 464 C 355 410 370 338 370 248 L 112 248 C 112 200 120 159 138 126 C 155 92 181 76 215 76 C 239 76 260 83 276 97 C 292 111 304 124 314 138 L 356 87 C 343 66 323 45 297 25 C 271 5 238 -5 199 -5 Z M 109 312 L 281 312 C 281 362 273 400 259 427 C 244 453 224 467 200 467 C 174 467 153 453 137 427 C 121 401 111 362 109 312 Z" unicode="e" />
<glyph horiz-adv-x="218" d="M 218 459 L 152 459 L 152 0 L 61 0 L 61 459 L 9 459 L 9 540 L 61 540 L 61 674 C 61 694 64 712 72 728 C 79 744 89 757 101 768 C 113 779 126 787 141 793 C 156 799 171 802 187 802 C 195 802 207 800 221 797 C 235 793 248 788 258 781 L 233 713 C 231 713 227 714 221 716 C 215 718 207 719 198 719 C 183 719 171 714 163 704 C 155 694 151 678 151 655 L 151 540 L 218 540 L 218 459 Z" unicode="f" />
<glyph horiz-adv-x="418" d="M 177 12 C 131 12 94 35 65 83 C 36 130 22 194 22 276 C 22 360 37 426 67 474 C 97 521 133 545 177 545 C 208 545 234 535 254 516 C 274 496 288 475 296 451 L 296 540 L 377 540 L 377 9 C 377 -26 371 -57 360 -83 C 349 -109 335 -130 317 -147 C 299 -163 278 -176 255 -184 C 231 -192 208 -197 184 -197 C 150 -197 122 -193 100 -187 C 78 -181 61 -174 50 -167 L 79 -94 C 91 -99 105 -103 121 -107 C 136 -111 155 -113 179 -113 C 211 -113 238 -101 259 -78 C 280 -55 291 -22 291 21 L 291 114 C 283 87 270 63 251 43 C 231 22 207 12 177 12 Z M 206 90 C 232 90 254 104 270 133 C 286 162 294 211 294 281 C 294 347 284 393 266 421 C 247 448 226 462 204 462 C 177 462 156 446 140 416 C 124 386 117 340 117 278 C 117 216 124 170 138 138 C 152 106 175 90 206 90 Z" unicode="g" />
<glyph horiz-adv-x="402" d="M 362 0 L 271 0 L 271 400 C 271 422 265 439 253 450 C 241 461 226 467 207 467 C 186 467 168 460 154 448 C 139 435 132 412 132 379 L 132 0 L 40 0 L 40 800 L 126 800 L 126 475 C 132 495 145 511 163 525 C 181 538 206 545 239 545 C 275 545 305 535 328 517 C 350 498 362 467 362 423 L 362 0 Z" unicode="h" />
<glyph horiz-adv-x="177" d="M 41 620 L 41 705 L 136 705 L 136 620 L 41 620 Z M 43 0 L 43 540 L 134 540 L 134 0 L 43 0 Z" unicode="i" />
<glyph horiz-adv-x="179" d="M 138 620 L 44 620 L 44 705 L 138 705 L 138 620 Z M 136 540 L 136 -62 C 136 -90 126 -114 107 -134 C 87 -153 62 -163 31 -163 C 12 -163 -3 -159 -17 -153 C -31 -146 -39 -140 -43 -136 L -13 -78 C -10 -79 -6 -80 -1 -82 C 4 -84 10 -85 17 -85 C 25 -85 32 -82 38 -76 C 43 -70 46 -62 46 -53 L 46 540 L 136 540 Z" unicode="j" />
<glyph horiz-adv-x="370" d="M 379 0 L 283 0 L 176 222 L 132 151 L 132 0 L 40 0 L 40 800 L 126 800 L 126 264 L 274 540 L 369 540 L 234 299 L 379 0 Z" unicode="k" />
<glyph horiz-adv-x="199" d="M 39 103 L 39 800 L 131 800 L 131 120 C 131 105 134 94 140 88 C 146 82 155 79 167 79 C 171 79 175 79 179 80 C 183 80 186 81 189 82 L 203 7 C 196 4 188 1 178 -1 C 168 -3 157 -5 143 -5 C 113 -5 89 4 69 22 C 49 40 39 67 39 103 Z" unicode="l" />
<glyph horiz-adv-x="626" d="M 40 0 L 40 540 L 118 540 L 118 461 C 124 489 139 511 162 525 C 184 539 211 546 242 546 C 273 546 298 538 317 524 C 336 509 347 487 350 458 L 352 458 C 358 484 372 506 392 522 C 412 538 439 546 473 546 C 505 546 532 536 554 518 C 575 499 586 469 586 427 L 586 0 L 496 0 L 496 387 C 496 417 489 438 477 450 C 465 462 449 469 429 469 C 410 469 393 462 379 449 C 365 435 358 410 358 374 L 358 0 L 268 0 L 268 389 C 268 421 261 443 248 453 C 235 463 220 469 202 469 C 184 469 167 462 152 449 C 137 435 130 411 130 375 L 130 0 L 40 0 Z" unicode="m" />
<glyph horiz-adv-x="402" d="M 362 0 L 271 0 L 271 400 C 271 422 265 438 254 450 C 242 461 227 467 207 467 C 186 467 168 460 154 448 C 139 435 132 412 132 379 L 132 0 L 40 0 L 40 540 L 118 540 L 118 467 C 126 489 141 508 161 523 C 181 537 208 545 242 545 C 278 545 307 535 329 517 C 351 499 362 470 362 430 L 362 0 Z" unicode="n" />
<glyph horiz-adv-x="400" d="M 201 -5 C 149 -5 106 17 72 63 C 38 109 21 177 21 269 C 21 354 37 421 69 471 C 101 520 143 545 195 545 C 251 545 295 522 329 477 C 363 431 380 367 380 284 C 380 194 364 124 332 72 C 300 20 256 -5 201 -5 Z M 202 75 C 228 75 249 90 263 121 C 277 152 285 203 285 274 C 285 343 277 392 262 421 C 247 449 226 464 198 464 C 172 464 151 449 137 420 C 122 391 115 342 115 274 C 115 199 122 147 138 118 C 154 89 175 75 202 75 Z" unicode="o" />
<glyph horiz-adv-x="406" d="M 40 -200 L 40 540 L 116 540 L 116 433 C 122 460 136 485 158 509 C 180 533 208 545 242 545 C 266 545 288 538 306 525 C 324 512 339 494 351 472 C 363 450 371 423 377 392 C 383 360 386 326 386 290 C 386 196 372 124 345 73 C 318 21 282 -4 236 -4 C 208 -4 184 2 165 16 C 146 29 133 46 127 66 L 127 -200 L 40 -200 Z M 203 72 C 229 72 251 87 267 118 C 283 149 291 198 291 266 C 291 328 284 375 270 409 C 256 443 235 460 205 460 C 194 460 184 457 174 451 C 164 445 156 435 148 420 C 140 405 134 384 130 358 C 125 332 123 298 123 258 C 123 220 125 189 129 165 C 133 141 138 122 146 108 C 153 94 161 84 171 79 C 181 74 191 72 203 72 Z" unicode="p" />
<glyph horiz-adv-x="420" d="M 293 -200 L 293 95 C 286 69 272 46 252 26 C 231 6 203 -4 169 -4 C 125 -4 90 20 62 68 C 34 116 21 181 21 263 C 21 357 36 428 66 475 C 96 521 134 545 178 545 C 210 545 237 534 257 512 C 277 490 292 465 300 435 L 300 540 L 379 540 L 379 -200 L 293 -200 Z M 205 72 C 231 72 253 87 269 117 C 285 147 294 199 294 272 C 294 338 285 386 268 416 C 251 446 229 461 203 461 C 177 461 156 445 140 415 C 124 384 116 334 116 266 C 116 208 123 161 139 125 C 155 89 177 72 205 72 Z" unicode="q" />
<glyph horiz-adv-x="296" d="M 300 515 L 269 438 C 259 448 250 454 242 457 C 233 460 223 462 211 462 C 195 462 177 454 159 440 C 141 426 132 397 132 353 L 132 0 L 40 0 L 40 540 L 129 540 L 129 466 C 135 486 147 505 164 521 C 180 537 200 545 223 545 C 240 545 255 541 269 535 C 282 529 292 522 300 515 Z" unicode="r" />
<glyph horiz-adv-x="311" d="M 161 -5 C 129 -5 99 1 73 15 C 47 28 27 46 13 68 L 62 132 C 72 113 85 99 100 89 C 114 79 130 75 148 75 C 164 75 178 80 192 92 C 205 103 212 120 212 143 C 212 165 204 183 189 197 C 173 211 153 227 127 245 C 98 264 75 286 57 310 C 39 334 31 368 31 410 C 31 447 43 479 67 505 C 91 531 122 545 160 545 C 186 545 210 540 231 532 C 252 523 269 512 283 500 L 248 422 C 239 431 227 440 213 449 C 198 458 183 463 169 463 C 152 463 137 458 125 449 C 113 440 107 427 107 409 C 107 390 113 375 126 365 C 138 354 159 338 188 318 C 222 293 248 267 265 241 C 281 215 290 180 290 138 C 290 112 286 91 278 73 C 270 55 259 40 247 28 C 234 16 220 8 205 3 C 189 -2 175 -5 161 -5 Z" unicode="s" />
<glyph horiz-adv-x="221" d="M 204 93 L 222 17 C 216 12 208 7 197 3 C 186 0 171 -3 151 -3 C 126 -3 103 7 83 28 C 62 48 52 77 52 113 L 52 459 L 5 459 L 5 540 L 54 540 L 54 644 L 141 655 L 141 540 L 210 540 L 210 459 L 143 459 L 143 122 C 143 110 146 101 152 95 C 158 88 167 85 177 85 C 182 85 187 85 192 87 C 197 89 201 91 204 93 Z" unicode="t" />
<glyph horiz-adv-x="402" d="M 39 540 L 131 540 L 131 152 C 131 125 137 105 149 92 C 161 78 177 72 198 72 C 216 72 233 79 248 93 C 262 107 270 134 270 172 L 270 540 L 361 540 L 361 0 L 281 0 L 281 76 C 273 54 259 35 237 19 C 215 2 189 -6 158 -6 C 126 -6 99 5 75 28 C 51 50 39 83 39 125 L 39 540 Z" unicode="u" />
<glyph horiz-adv-x="337" d="M 341 540 L 205 -2 L 132 -2 L -4 540 L 88 540 L 173 167 L 257 540 L 341 540 Z" unicode="v" />
<glyph horiz-adv-x="543" d="M 351 -2 L 274 319 L 191 -2 L 121 -2 L 0 540 L 83 540 L 166 151 L 240 457 L 309 457 L 379 153 L 464 540 L 542 540 L 419 -2 L 351 -2 Z" unicode="w" />
<glyph horiz-adv-x="342" d="M 249 0 L 168 184 L 83 0 L 3 0 L 128 276 L 11 540 L 103 540 L 174 378 L 247 540 L 332 540 L 215 286 L 340 0 L 249 0 Z" unicode="x" />
<glyph horiz-adv-x="339" d="M 343 540 L 177 -96 C 168 -128 153 -154 132 -172 C 110 -190 86 -200 60 -200 C 31 -200 8 -197 -8 -191 C -24 -185 -35 -179 -41 -174 L -3 -108 C 0 -110 6 -113 17 -117 C 27 -120 37 -122 47 -122 C 59 -122 71 -117 82 -107 C 92 -97 100 -82 105 -62 L 130 43 L -4 540 L 89 540 L 175 173 L 258 540 L 343 540 Z" unicode="y" />
<glyph horiz-adv-x="322" d="M 306 540 L 306 502 L 122 79 L 311 79 L 311 0 L 11 0 L 11 31 L 197 459 L 23 459 L 23 540 L 306 540 Z" unicode="z" />
<glyph horiz-adv-x="254" d="M 234 -179 C 207 -179 182 -175 158 -167 C 134 -159 112 -148 94 -134 C 76 -120 61 -104 51 -86 C 40 -67 35 -47 35 -27 C 35 -1 38 21 44 43 C 50 64 56 82 64 98 C 71 114 78 130 85 144 C 91 158 95 172 95 186 C 95 201 87 216 71 230 C 55 244 37 251 17 251 L 17 320 C 37 320 55 327 72 342 C 89 356 98 373 98 392 C 98 396 94 407 87 423 C 80 439 72 456 64 475 C 55 493 48 512 43 530 C 38 548 36 565 36 583 C 36 603 41 624 52 644 C 62 664 76 681 94 697 C 112 712 133 724 157 734 C 181 744 207 749 234 749 L 234 682 C 208 681 185 670 163 650 C 141 630 131 605 131 577 C 131 567 132 555 135 541 C 138 527 143 514 150 500 C 160 479 169 460 177 443 C 185 426 189 411 189 399 C 189 372 181 348 165 328 C 149 307 126 293 96 285 C 127 277 150 262 166 241 C 181 220 189 198 189 175 C 189 156 185 139 178 125 C 170 111 163 96 155 82 C 147 68 140 53 136 37 C 132 21 130 6 130 -7 C 130 -19 132 -31 138 -43 C 144 -55 151 -66 161 -76 C 170 -86 181 -94 194 -101 C 206 -107 220 -111 234 -111 L 234 -179 Z" unicode="{" />
<glyph horiz-adv-x="228" d="M 158 -179 L 70 -179 L 70 730 L 158 730 L 158 -179 Z" unicode="|" />
<glyph horiz-adv-x="254" d="M 20 -179 L 20 -111 C 34 -111 47 -107 60 -101 C 72 -94 83 -86 93 -76 C 102 -66 109 -55 115 -43 C 121 -31 124 -19 124 -7 C 124 6 121 21 117 37 C 113 53 107 68 99 82 C 91 96 83 111 76 125 C 68 139 65 156 65 175 C 65 198 72 220 87 241 C 102 262 124 277 154 285 C 125 293 103 307 88 328 C 72 348 65 372 65 399 C 65 411 69 426 77 443 C 85 460 94 479 104 500 C 110 514 115 527 118 541 C 121 555 123 567 123 577 C 123 605 112 630 90 650 C 68 670 45 681 20 682 L 20 749 C 46 749 72 744 96 734 C 120 724 141 712 159 697 C 177 681 191 664 202 644 C 212 624 218 603 218 583 C 218 565 215 548 210 530 C 205 512 198 493 190 475 C 181 456 173 439 166 423 C 159 407 156 396 156 392 C 156 373 164 356 181 342 C 198 327 217 320 237 320 L 237 251 C 217 251 199 244 183 230 C 167 216 159 201 159 186 C 159 172 162 158 169 144 C 175 130 182 114 190 98 C 197 82 204 64 210 43 C 216 21 219 -1 219 -27 C 219 -47 213 -67 203 -86 C 192 -104 177 -120 159 -134 C 141 -148 120 -159 96 -167 C 72 -175 46 -179 20 -179 Z" unicode="}" />
<glyph horiz-adv-x="451" d="M 348 444 L 423 444 C 422 396 414 357 399 327 C 383 297 358 282 324 282 C 301 282 280 286 260 296 C 240 306 225 317 214 329 C 202 341 192 352 182 361 C 172 370 161 375 149 375 C 137 375 126 366 116 350 C 106 333 101 311 101 285 L 27 285 C 27 334 36 373 55 402 C 73 431 100 446 134 446 C 156 446 178 440 198 429 C 218 417 233 406 245 394 C 256 384 266 374 275 366 C 283 358 294 354 307 354 C 323 354 334 361 340 376 C 345 390 348 413 348 444 Z" unicode="~" />
<glyph horiz-adv-x="257" d="M 82 611 L 175 611 L 175 506 L 82 506 L 82 611 Z M 77 192 L 109 417 L 150 417 L 179 192 L 179 -102 L 77 -102 L 77 192 Z" unicode="¡" />
<glyph horiz-adv-x="351" d="M 336 145 C 325 132 312 119 298 107 C 283 94 260 86 230 83 L 230 -28 L 176 -28 L 176 82 C 126 88 87 111 61 152 C 34 192 21 243 21 303 C 21 330 24 356 31 382 C 37 407 47 430 60 450 C 72 470 88 486 108 499 C 128 512 150 521 176 525 L 176 634 L 230 634 L 230 526 C 258 522 281 514 299 502 C 317 490 331 477 342 465 L 310 400 C 301 410 291 420 279 429 C 267 438 250 443 230 445 L 230 160 C 250 161 267 166 279 176 C 291 185 300 194 307 203 L 336 145 Z M 116 307 C 116 272 121 243 132 220 C 143 197 158 181 176 171 L 176 437 C 156 428 141 412 131 389 C 121 366 116 339 116 307 Z" unicode="¢" />
<glyph horiz-adv-x="464" d="M 449 72 L 449 0 L 16 0 L 16 56 C 20 58 28 61 38 64 C 48 66 61 70 78 74 C 102 78 123 90 142 109 C 161 128 171 155 171 191 C 171 195 170 200 170 204 C 169 208 168 213 167 218 L 30 218 L 30 286 L 140 286 C 135 296 130 306 124 316 C 118 326 113 337 108 349 L 30 349 L 30 417 L 81 417 C 74 435 69 455 65 477 C 61 498 59 520 59 544 C 59 581 64 612 76 638 C 87 663 102 683 121 699 C 139 714 161 725 185 732 C 209 738 233 742 259 742 C 295 742 330 732 364 714 C 398 696 421 678 435 662 L 391 594 C 380 606 363 620 341 635 C 319 650 294 658 268 658 C 255 658 242 655 229 651 C 216 647 204 640 194 630 C 183 620 174 606 168 589 C 161 572 158 551 158 527 C 158 508 160 489 165 471 C 169 452 175 434 182 417 L 399 417 L 399 349 L 211 349 C 215 338 220 327 225 317 C 230 306 235 296 239 286 L 399 286 L 399 218 L 255 218 C 255 217 255 216 255 214 C 255 212 255 211 255 211 C 255 188 252 168 246 152 C 240 136 234 122 226 112 C 218 101 209 92 201 86 C 192 80 184 75 178 72 L 449 72 Z" unicode="£" />
<glyph horiz-adv-x="502" d="M 250 184 C 234 184 218 186 203 190 C 187 194 173 200 161 207 L 94 139 L 47 186 L 110 250 C 98 264 89 280 83 298 C 76 316 73 334 73 354 C 73 373 76 391 83 409 C 89 427 98 443 110 458 L 48 522 L 93 568 L 159 500 C 172 507 186 513 202 517 C 217 521 233 524 250 524 C 266 524 282 521 298 517 C 314 513 328 507 342 499 L 410 569 L 455 522 L 391 457 C 402 442 411 426 417 409 C 423 391 427 373 427 354 C 427 334 423 315 417 297 C 410 279 401 263 389 249 L 451 185 L 405 140 L 339 207 C 326 199 312 194 297 190 C 282 186 266 184 250 184 Z M 250 252 C 279 252 304 262 326 282 C 347 302 358 326 358 354 C 358 381 347 405 326 425 C 304 445 279 456 250 456 C 220 456 194 445 173 425 C 152 405 142 381 142 354 C 142 326 152 302 173 282 C 194 262 220 252 250 252 Z" unicode="¤" />
<glyph horiz-adv-x="462" d="M 427 141 L 280 141 L 280 0 L 180 0 L 180 141 L 36 141 L 36 210 L 180 210 L 180 272 L 36 272 L 36 340 L 175 340 L 5 730 L 102 730 L 232 423 L 367 730 L 458 730 L 286 340 L 427 340 L 427 272 L 280 272 L 280 210 L 427 210 L 427 141 Z" unicode="¥" />
<glyph horiz-adv-x="259" d="M 90 351 L 90 730 L 169 730 L 169 351 L 90 351 Z M 169 200 L 169 -179 L 90 -179 L 90 200 L 169 200 Z" unicode="¦" />
<glyph horiz-adv-x="534" d="M 284 -181 C 236 -181 192 -174 150 -160 C 108 -146 72 -128 43 -106 L 75 -29 C 101 -50 132 -68 168 -83 C 204 -97 238 -105 271 -105 C 300 -105 324 -96 342 -79 C 360 -62 370 -38 370 -8 C 370 19 363 40 349 55 C 335 69 314 83 287 96 L 189 148 C 162 160 139 172 119 183 C 99 194 82 206 69 219 C 56 232 46 247 40 264 C 34 280 31 301 31 326 C 31 356 37 382 51 402 C 65 422 81 439 100 453 C 83 464 71 480 63 500 C 55 520 51 544 51 574 C 51 600 56 624 67 645 C 78 666 93 684 112 698 C 130 712 152 722 178 730 C 203 738 230 742 260 742 C 312 742 354 733 388 717 C 422 700 449 682 470 663 L 426 592 C 401 612 376 630 351 646 C 325 661 295 669 259 669 C 226 669 199 660 178 643 C 156 626 146 603 146 574 C 146 552 152 534 166 520 C 179 506 200 492 228 480 L 353 415 C 399 394 434 372 458 348 C 482 324 495 290 495 247 C 495 218 485 192 465 170 C 445 148 423 134 400 130 C 406 126 413 120 421 112 C 429 104 437 94 445 83 C 452 71 458 58 463 43 C 468 28 471 12 471 -6 C 471 -33 466 -57 456 -79 C 446 -101 433 -119 417 -134 C 400 -149 380 -161 357 -169 C 334 -177 310 -181 284 -181 Z M 327 173 C 343 175 358 181 371 192 C 384 203 391 220 391 244 C 391 266 383 285 369 302 C 354 318 329 334 294 349 L 174 413 C 160 404 149 394 140 382 C 131 370 127 354 127 334 C 127 308 134 288 150 273 C 166 257 192 242 228 226 L 327 173 Z" unicode="§" />
<glyph horiz-adv-x="500" d="M 362 603 L 288 603 L 288 761 L 362 761 L 362 603 Z M 212 603 L 138 603 L 138 761 L 212 761 L 212 603 Z" unicode="¨" />
<glyph horiz-adv-x="804" d="M 402 28 C 352 28 306 37 263 56 C 219 75 181 101 149 133 C 117 165 91 202 73 246 C 54 290 45 336 45 385 C 45 434 54 480 73 524 C 91 567 117 605 149 637 C 181 669 219 695 263 714 C 306 732 352 742 402 742 C 451 742 497 732 541 714 C 584 695 622 669 654 637 C 686 605 712 567 731 524 C 749 480 759 434 759 385 C 759 336 749 290 731 246 C 712 202 686 165 654 133 C 622 101 584 75 541 56 C 497 37 451 28 402 28 Z M 402 87 C 442 87 481 94 517 110 C 553 126 585 147 612 174 C 638 201 659 233 675 269 C 691 305 699 344 699 385 C 699 425 691 464 675 500 C 659 536 638 568 612 595 C 585 622 553 643 517 659 C 481 675 442 683 402 683 C 361 683 322 675 286 659 C 250 643 218 622 192 595 C 165 568 144 536 128 500 C 112 464 105 425 105 385 C 105 344 112 305 128 269 C 144 233 165 201 192 174 C 218 147 250 126 286 110 C 322 94 361 87 402 87 Z M 561 251 C 546 227 525 206 499 190 C 473 173 440 165 401 165 C 377 165 353 169 331 179 C 308 188 288 202 271 220 C 253 238 239 260 229 287 C 219 313 214 344 214 379 C 214 413 218 443 228 471 C 238 499 251 522 267 541 C 283 560 303 575 326 586 C 348 596 372 602 398 602 C 439 602 472 594 498 579 C 524 564 544 545 559 522 L 501 477 C 490 492 477 505 461 515 C 445 525 425 530 400 530 C 367 530 340 515 319 487 C 297 458 287 422 287 379 C 287 332 299 296 323 271 C 347 245 374 233 404 233 C 426 233 446 238 464 249 C 482 260 496 274 507 292 L 561 251 Z" unicode="©" />
<glyph horiz-adv-x="403" d="M 359 330 L 285 330 L 285 386 C 272 366 254 350 232 340 C 209 329 184 324 158 324 C 120 324 90 335 68 357 C 46 379 36 409 36 449 C 36 492 51 524 81 546 C 111 568 151 580 202 582 L 282 589 L 282 599 C 282 623 275 641 261 653 C 247 664 227 670 202 670 C 180 670 160 666 140 659 C 120 652 102 643 86 632 L 58 686 C 76 700 98 713 126 724 C 153 735 184 741 218 741 C 261 741 295 729 321 707 C 346 684 359 648 359 598 L 359 330 Z M 283 437 L 283 526 L 197 522 C 173 520 152 514 136 503 C 119 491 111 473 111 449 C 111 430 117 415 131 405 C 144 394 161 389 181 389 C 201 389 221 393 239 402 C 257 410 272 422 283 437 Z M 359 213 L 42 213 L 42 286 L 359 286 L 359 213 Z" unicode="ª" />
<glyph horiz-adv-x="429" d="M 209 112 L 28 280 L 28 333 L 209 499 L 209 409 L 108 304 L 209 205 L 209 112 Z M 399 112 L 217 280 L 217 333 L 399 499 L 399 409 L 298 304 L 399 206 L 399 112 Z" unicode="«" />
<glyph horiz-adv-x="471" d="M 434 387 L 434 152 L 360 152 L 360 314 L 31 314 L 31 387 L 434 387 Z" unicode="¬" />
<glyph horiz-adv-x="804" d="M 402 28 C 352 28 306 37 263 56 C 219 75 181 101 149 133 C 117 165 91 202 73 246 C 54 290 45 336 45 385 C 45 434 54 480 73 524 C 91 567 117 605 149 637 C 181 669 219 695 263 714 C 306 732 352 742 402 742 C 451 742 497 732 541 714 C 584 695 622 669 654 637 C 686 605 712 567 731 524 C 749 480 759 434 759 385 C 759 336 749 290 731 246 C 712 202 686 165 654 133 C 622 101 584 75 541 56 C 497 37 451 28 402 28 Z M 402 87 C 442 87 481 94 517 109 C 553 124 585 145 612 171 C 638 197 659 229 675 266 C 691 302 699 342 699 385 C 699 427 691 467 675 503 C 659 539 638 571 612 598 C 585 624 553 645 517 660 C 481 675 442 683 402 683 C 360 683 322 675 286 660 C 250 644 218 623 192 597 C 165 570 144 538 128 502 C 112 466 105 427 105 385 C 105 343 112 303 128 267 C 144 231 165 199 192 173 C 218 146 250 125 286 110 C 322 94 360 87 402 87 Z M 274 180 L 274 603 L 418 603 C 436 603 453 600 470 596 C 487 591 502 584 515 575 C 528 565 539 553 547 538 C 555 523 559 506 559 486 C 559 450 548 422 527 402 C 506 382 483 370 459 367 L 459 363 L 591 180 L 518 180 L 395 349 L 336 349 L 336 180 L 274 180 Z M 335 404 L 420 404 C 438 404 455 409 472 421 C 488 433 497 451 498 476 C 498 500 489 518 472 528 C 454 538 434 544 411 544 L 335 544 L 335 404 Z" unicode="®" />
<glyph horiz-adv-x="500" d="M 371 618 L 129 618 L 129 695 L 371 695 L 371 618 Z" unicode="¯" />
<glyph horiz-adv-x="406" d="M 203 397 C 155 397 114 413 80 447 C 46 481 30 522 30 570 C 30 593 34 615 43 636 C 52 657 64 675 80 691 C 96 707 114 719 135 728 C 156 737 179 742 203 742 C 227 742 249 737 270 728 C 291 719 309 707 325 691 C 341 675 353 657 362 636 C 371 615 376 593 376 570 C 376 522 359 481 325 447 C 291 413 251 397 203 397 Z M 203 465 C 231 465 256 475 277 496 C 298 516 309 541 309 570 C 309 598 298 623 277 644 C 256 664 231 675 203 675 C 174 675 149 664 128 644 C 107 623 97 598 97 570 C 97 541 107 516 128 496 C 149 475 174 465 203 465 Z" unicode="°" />
<glyph horiz-adv-x="471" d="M 447 293 L 271 293 L 271 112 L 200 112 L 200 293 L 24 293 L 24 364 L 200 364 L 200 550 L 271 550 L 271 364 L 447 364 L 447 293 Z M 442 25 L 30 25 L 30 96 L 442 96 L 442 25 Z" unicode="±" />
<glyph horiz-adv-x="344" d="M 309 372 L 27 372 L 27 402 L 186 559 C 192 565 199 573 205 583 C 211 593 215 605 215 619 C 215 633 210 645 200 656 C 190 667 176 673 156 673 C 133 673 117 666 108 652 C 99 638 94 623 94 605 L 22 605 C 22 641 34 673 59 700 C 83 727 119 741 165 741 C 209 741 242 730 264 710 C 286 689 297 664 297 636 C 297 609 292 587 282 569 C 272 551 262 537 252 527 L 159 439 L 309 439 L 309 372 Z" unicode="²" />
<glyph horiz-adv-x="346" d="M 226 569 C 254 564 275 553 291 537 C 307 520 315 500 315 477 C 315 465 312 452 307 439 C 302 425 294 413 282 402 C 270 391 255 382 235 375 C 215 367 190 364 161 364 C 119 364 87 368 64 378 C 40 388 22 398 10 408 L 54 454 C 65 447 79 441 96 435 C 113 429 133 426 157 426 C 188 426 210 432 223 444 C 235 456 242 471 242 489 C 242 507 234 520 218 526 C 202 532 183 535 162 535 L 89 535 L 89 593 L 156 593 C 176 593 193 596 206 603 C 218 610 225 621 225 636 C 225 648 219 658 208 666 C 197 673 180 677 158 677 C 138 677 120 673 103 666 C 86 658 73 650 65 640 L 21 684 C 34 698 52 711 74 723 C 96 735 128 742 169 742 C 209 742 241 733 265 717 C 288 700 300 678 300 652 C 300 630 292 611 278 597 C 263 583 246 573 226 569 Z" unicode="³" />
<glyph horiz-adv-x="500" d="M 158 602 L 243 774 L 348 774 L 246 602 L 158 602 Z" unicode="´" />
<glyph horiz-adv-x="589" d="M 69 -106 L 69 540 L 161 540 L 161 167 C 161 138 173 114 199 95 C 224 75 252 66 283 66 C 299 66 316 68 333 73 C 350 78 365 85 379 95 C 392 105 403 117 411 132 C 419 146 424 163 424 183 L 424 540 L 515 540 L 515 0 L 431 0 L 431 99 C 422 72 401 48 369 26 C 336 4 302 -7 266 -7 C 242 -7 220 -1 198 9 C 176 19 161 34 154 53 L 154 -106 L 69 -106 Z" unicode="µ" />
<glyph horiz-adv-x="550" d="M 509 -181 L 438 -179 L 438 657 L 364 657 L 364 -179 L 292 -179 L 292 298 L 235 298 C 207 298 181 303 155 315 C 129 327 106 342 86 362 C 66 381 51 403 39 429 C 27 455 21 482 21 511 C 21 541 26 570 38 597 C 49 624 65 647 85 667 C 105 686 129 701 158 713 C 186 724 218 730 253 730 L 509 730 L 509 -181 Z M 293 375 L 293 653 L 276 653 C 232 653 195 639 167 613 C 138 587 124 554 124 514 C 124 476 138 444 166 416 C 194 388 228 375 266 375 L 293 375 Z" unicode="¶" />
<glyph horiz-adv-x="254" d="M 174 284 L 81 284 L 81 414 L 174 414 L 174 284 Z" unicode="·" />
<glyph horiz-adv-x="500" d="M 251 -180 C 231 -180 211 -177 193 -171 C 174 -165 158 -157 146 -147 L 169 -111 C 176 -117 186 -123 199 -129 C 211 -135 225 -138 240 -138 C 252 -138 262 -134 270 -128 C 278 -122 283 -114 283 -104 C 283 -92 278 -83 270 -78 C 262 -72 253 -70 245 -70 C 238 -70 232 -70 226 -71 C 220 -72 214 -74 210 -76 L 200 -58 L 252 13 L 296 13 L 256 -43 C 281 -41 302 -45 320 -55 C 338 -65 347 -81 347 -105 C 347 -128 337 -146 319 -160 C 300 -173 277 -180 251 -180 Z" unicode="¸" />
<glyph horiz-adv-x="318" d="M 144 372 L 144 646 C 136 634 122 624 101 614 C 80 604 63 598 49 596 L 48 678 C 72 681 94 688 112 698 C 130 708 149 722 168 740 L 225 740 L 225 372 L 144 372 Z" unicode="¹" />
<glyph horiz-adv-x="378" d="M 185 323 C 163 323 143 327 123 337 C 103 347 86 360 71 378 C 55 395 43 416 34 442 C 25 468 21 497 21 529 C 21 557 25 584 34 610 C 43 635 55 657 71 676 C 86 695 104 710 124 722 C 144 733 165 739 188 739 C 235 739 275 720 307 684 C 339 647 356 599 356 539 C 356 508 351 479 342 453 C 333 426 321 403 306 384 C 290 365 272 350 251 339 C 230 328 208 323 185 323 Z M 188 388 C 217 388 240 401 256 429 C 272 457 280 492 280 534 C 280 572 272 605 258 631 C 243 657 220 671 190 671 C 160 671 137 657 121 630 C 105 602 97 567 97 525 C 97 484 105 451 121 426 C 137 400 160 388 188 388 Z M 38 213 L 38 286 L 340 286 L 340 213 L 38 213 Z" unicode="º" />
<glyph horiz-adv-x="429" d="M 29 500 L 212 332 L 212 280 L 29 114 L 29 203 L 130 308 L 29 407 L 29 500 Z M 220 500 L 401 332 L 401 280 L 220 114 L 220 203 L 321 308 L 220 407 L 220 500 Z" unicode="»" />
<glyph horiz-adv-x="701" d="M 12 0 L 12 0 Z M 108 372 L 108 646 C 100 634 86 624 65 614 C 44 604 27 598 13 596 L 12 678 C 36 681 58 688 76 698 C 94 708 113 722 132 740 L 189 740 L 189 372 L 108 372 Z M 577 730 L 205 0 L 129 0 L 501 730 L 577 730 Z M 389 83 L 389 139 L 575 366 L 628 366 L 628 142 L 689 142 L 689 83 L 628 83 L 628 1 L 552 1 L 552 83 L 389 83 Z M 466 140 L 554 140 L 554 251 L 466 140 Z" unicode="¼" />
<glyph horiz-adv-x="769" d="M 12 0 L 12 0 Z M 108 372 L 108 646 C 100 634 86 624 65 614 C 44 604 27 598 13 596 L 12 678 C 36 681 58 688 76 698 C 94 708 113 722 132 740 L 189 740 L 189 372 L 108 372 Z M 577 730 L 205 0 L 129 0 L 501 730 L 577 730 Z M 743 0 L 461 0 L 461 30 L 620 187 C 626 193 633 201 639 211 C 645 221 649 233 649 247 C 649 261 644 273 634 284 C 624 295 610 301 590 301 C 567 301 551 294 542 280 C 533 266 528 251 528 233 L 456 233 C 456 269 468 301 493 328 C 517 355 553 369 599 369 C 643 369 676 358 698 338 C 720 317 731 292 731 264 C 731 237 726 215 716 197 C 706 179 696 165 686 155 L 593 67 L 743 67 L 743 0 Z" unicode="½" />
<glyph horiz-adv-x="761" d="M 12 0 L 12 0 Z M 637 730 L 265 0 L 189 0 L 561 730 L 637 730 Z M 449 83 L 449 139 L 635 366 L 688 366 L 688 142 L 749 142 L 749 83 L 688 83 L 688 1 L 612 1 L 612 83 L 449 83 Z M 526 140 L 614 140 L 614 251 L 526 140 Z M 228 569 C 256 564 277 553 293 537 C 309 520 317 500 317 477 C 317 465 314 452 309 439 C 304 425 296 413 284 402 C 272 391 257 382 237 375 C 217 367 192 364 163 364 C 121 364 89 368 66 378 C 42 388 24 398 12 408 L 56 454 C 67 447 81 441 98 435 C 115 429 135 426 159 426 C 190 426 212 432 225 444 C 237 456 244 471 244 489 C 244 507 236 520 220 526 C 204 532 185 535 164 535 L 91 535 L 91 593 L 158 593 C 178 593 195 596 208 603 C 220 610 227 621 227 636 C 227 648 221 658 210 666 C 199 673 182 677 160 677 C 140 677 122 673 105 666 C 88 658 75 650 67 640 L 23 684 C 36 698 54 711 76 723 C 98 735 130 742 171 742 C 211 742 243 733 267 717 C 290 700 302 678 302 652 C 302 630 294 611 280 597 C 265 583 248 573 228 569 Z" unicode="¾" />
<glyph horiz-adv-x="427" d="M 175 499 L 175 611 L 276 611 L 276 499 L 175 499 Z M 210 -131 C 152 -131 107 -115 75 -84 C 43 -52 27 -10 27 44 C 27 68 30 91 37 112 C 43 132 52 151 62 169 C 72 187 84 203 97 219 C 109 234 122 249 135 264 C 153 283 166 306 172 333 C 178 360 182 385 183 408 L 272 408 C 272 366 266 331 256 303 C 245 274 228 246 206 220 C 188 199 170 176 152 152 C 134 127 125 97 125 61 C 125 29 134 3 154 -16 C 174 -35 198 -45 228 -45 C 253 -45 275 -38 295 -24 C 314 -10 330 7 344 27 L 403 -29 C 379 -63 350 -88 316 -105 C 282 -122 246 -131 210 -131 Z" unicode="¿" />
<glyph horiz-adv-x="479" d="M 1 0 L 1 0 Z M 478 0 L 383 0 L 334 179 L 139 179 L 94 0 L 1 0 L 205 734 L 274 734 L 478 0 Z M 322 250 L 236 569 L 153 250 L 322 250 Z M 240 792 L 240 792 Z M 334 792 L 246 792 L 144 964 L 249 964 L 334 792 Z" unicode="À" />
<glyph horiz-adv-x="479" d="M 1 0 L 1 0 Z M 478 0 L 383 0 L 334 179 L 139 179 L 94 0 L 1 0 L 205 734 L 274 734 L 478 0 Z M 322 250 L 236 569 L 153 250 L 322 250 Z M 240 792 L 240 792 Z M 145 792 L 230 964 L 335 964 L 233 792 L 145 792 Z" unicode="Á" />
<glyph horiz-adv-x="479" d="M 1 0 L 1 0 Z M 478 0 L 383 0 L 334 179 L 139 179 L 94 0 L 1 0 L 205 734 L 274 734 L 478 0 Z M 322 250 L 236 569 L 153 250 L 322 250 Z M 240 793 L 240 793 Z M 377 793 L 298 793 L 240 895 L 181 793 L 104 793 L 202 964 L 279 964 L 377 793 Z" unicode="Â" />
<glyph horiz-adv-x="479" d="M 1 0 L 1 0 Z M 478 0 L 383 0 L 334 179 L 139 179 L 94 0 L 1 0 L 205 734 L 274 734 L 478 0 Z M 322 250 L 236 569 L 153 250 L 322 250 Z M 240 799 L 240 799 Z M 324 936 L 392 936 C 392 889 385 854 372 832 C 359 810 342 799 322 799 C 304 799 288 802 274 810 C 260 817 249 824 241 830 C 232 836 223 842 215 848 C 206 854 198 857 190 857 C 181 857 174 851 168 841 C 162 830 159 817 159 803 L 89 803 C 89 849 98 883 116 906 C 134 928 153 940 173 940 C 187 940 200 936 212 930 C 224 923 235 916 246 908 C 254 901 262 895 270 891 C 278 886 286 884 294 884 C 301 884 308 888 314 897 C 320 906 324 919 324 936 Z" unicode="Ã" />
<glyph horiz-adv-x="479" d="M 1 0 L 1 0 Z M 478 0 L 383 0 L 334 179 L 139 179 L 94 0 L 1 0 L 205 734 L 274 734 L 478 0 Z M 322 250 L 236 569 L 153 250 L 322 250 Z M 240 793 L 240 793 Z M 352 793 L 278 793 L 278 951 L 352 951 L 352 793 Z M 202 793 L 128 793 L 128 951 L 202 951 L 202 793 Z" unicode="Ä" />
<glyph horiz-adv-x="479" d="M 1 0 L 1 0 Z M 478 0 L 383 0 L 334 179 L 139 179 L 94 0 L 1 0 L 205 734 L 274 734 L 478 0 Z M 322 250 L 236 569 L 153 250 L 322 250 Z M 240 770 L 240 770 Z M 240 770 C 206 770 177 782 153 806 C 129 830 117 859 117 893 C 117 927 129 956 153 980 C 177 1004 206 1016 240 1016 C 274 1016 303 1004 327 980 C 351 956 364 927 364 893 C 364 859 351 830 327 806 C 303 782 274 770 240 770 Z M 241 825 C 259 825 275 831 288 845 C 300 858 307 874 307 893 C 307 911 300 927 288 941 C 275 954 259 961 241 961 C 222 961 206 954 193 941 C 180 927 174 911 174 893 C 174 874 180 858 193 845 C 206 831 222 825 241 825 Z" unicode="Å" />
<glyph horiz-adv-x="728" d="M 715 0 L 396 0 L 396 199 L 187 199 L 94 0 L 0 0 L 336 730 L 698 730 L 698 643 L 490 643 L 490 407 L 689 407 L 689 323 L 490 323 L 490 87 L 715 87 L 715 0 Z M 396 279 L 396 667 L 219 279 L 396 279 Z" unicode="Æ" />
<glyph horiz-adv-x="528" d="M 34 0 L 34 0 Z M 282 -7 C 208 -7 149 23 103 85 C 57 147 34 240 34 366 C 34 483 55 574 97 639 C 139 704 201 737 282 737 C 342 737 387 721 419 690 C 451 659 473 620 486 574 L 397 544 C 386 574 372 599 356 620 C 339 640 314 651 282 651 C 235 651 198 629 172 585 C 146 541 133 467 133 362 C 133 308 137 263 146 227 C 154 191 166 162 180 140 C 194 118 211 102 230 92 C 248 82 267 78 287 78 C 323 78 351 89 371 111 C 390 133 405 162 416 198 L 498 160 C 480 108 454 67 418 37 C 382 7 337 -7 282 -7 Z M 275 0 L 275 0 Z M 280 -180 C 260 -180 240 -177 222 -171 C 203 -165 187 -157 175 -147 L 198 -111 C 205 -117 215 -123 228 -129 C 240 -135 254 -138 269 -138 C 281 -138 291 -134 299 -128 C 307 -122 312 -114 312 -104 C 312 -92 307 -83 299 -78 C 291 -72 282 -70 274 -70 C 267 -70 261 -70 255 -71 C 249 -72 243 -74 239 -76 L 229 -58 L 281 13 L 325 13 L 285 -43 C 310 -41 331 -45 349 -55 C 367 -65 376 -81 376 -105 C 376 -128 366 -146 348 -160 C 329 -173 306 -180 280 -180 Z" unicode="Ç" />
<glyph horiz-adv-x="395" d="M 59 0 L 59 0 Z M 382 0 L 59 0 L 59 730 L 364 730 L 364 643 L 157 643 L 157 407 L 356 407 L 356 323 L 157 323 L 157 87 L 382 87 L 382 0 Z M 212 792 L 212 792 Z M 306 792 L 218 792 L 116 964 L 221 964 L 306 792 Z" unicode="È" />
<glyph horiz-adv-x="395" d="M 59 0 L 59 0 Z M 382 0 L 59 0 L 59 730 L 364 730 L 364 643 L 157 643 L 157 407 L 356 407 L 356 323 L 157 323 L 157 87 L 382 87 L 382 0 Z M 212 792 L 212 792 Z M 117 792 L 202 964 L 307 964 L 205 792 L 117 792 Z" unicode="É" />
<glyph horiz-adv-x="395" d="M 59 0 L 59 0 Z M 382 0 L 59 0 L 59 730 L 364 730 L 364 643 L 157 643 L 157 407 L 356 407 L 356 323 L 157 323 L 157 87 L 382 87 L 382 0 Z M 212 793 L 212 793 Z M 349 793 L 270 793 L 212 895 L 153 793 L 76 793 L 174 964 L 251 964 L 349 793 Z" unicode="Ê" />
<glyph horiz-adv-x="395" d="M 59 0 L 59 0 Z M 382 0 L 59 0 L 59 730 L 364 730 L 364 643 L 157 643 L 157 407 L 356 407 L 356 323 L 157 323 L 157 87 L 382 87 L 382 0 Z M 212 793 L 212 793 Z M 324 793 L 250 793 L 250 951 L 324 951 L 324 793 Z M 174 793 L 100 793 L 100 951 L 174 951 L 174 793 Z" unicode="Ë" />
<glyph horiz-adv-x="227" d="M 17 0 L 17 0 Z M 164 0 L 63 0 L 63 730 L 164 730 L 164 0 Z M 113 792 L 113 792 Z M 207 792 L 119 792 L 17 964 L 122 964 L 207 792 Z" unicode="Ì" />
<glyph horiz-adv-x="227" d="M 18 0 L 18 0 Z M 164 0 L 63 0 L 63 730 L 164 730 L 164 0 Z M 113 792 L 113 792 Z M 18 792 L 103 964 L 208 964 L 106 792 L 18 792 Z" unicode="Í" />
<glyph horiz-adv-x="227" d="M 0 0 L 0 0 Z M 164 0 L 63 0 L 63 730 L 164 730 L 164 0 Z M 113 793 L 113 793 Z M 250 793 L 171 793 L 113 895 L 54 793 L -23 793 L 75 964 L 152 964 L 250 793 Z" unicode="Î" />
<glyph horiz-adv-x="227" d="M 1 0 L 1 0 Z M 164 0 L 63 0 L 63 730 L 164 730 L 164 0 Z M 113 793 L 113 793 Z M 225 793 L 151 793 L 151 951 L 225 951 L 225 793 Z M 75 793 L 1 793 L 1 951 L 75 951 L 75 793 Z" unicode="Ï" />
<glyph horiz-adv-x="540" d="M 506 363 C 506 312 500 264 488 220 C 476 176 458 137 434 105 C 410 73 379 47 343 28 C 307 9 264 0 215 0 L 59 0 L 59 320 L 18 320 L 18 399 L 59 399 L 59 730 L 222 730 C 268 730 308 721 344 704 C 379 686 409 662 433 630 C 457 598 475 559 487 514 C 499 468 506 418 506 363 Z M 158 77 L 216 77 C 284 77 333 103 362 155 C 390 207 405 275 405 361 C 405 460 389 533 357 581 C 325 629 281 653 224 653 L 158 653 L 158 399 L 279 399 L 279 320 L 158 320 L 158 77 Z" unicode="Ð" />
<glyph horiz-adv-x="534" d="M 59 0 L 59 0 Z M 475 0 L 404 0 L 153 494 L 153 0 L 59 0 L 59 730 L 130 730 L 384 231 L 384 730 L 475 730 L 475 0 Z M 268 799 L 268 799 Z M 352 936 L 420 936 C 420 889 413 854 400 832 C 387 810 370 799 350 799 C 332 799 316 802 302 810 C 288 817 277 824 269 830 C 260 836 251 842 243 848 C 234 854 226 857 218 857 C 209 857 202 851 196 841 C 190 830 187 817 187 803 L 117 803 C 117 849 126 883 144 906 C 162 928 181 940 201 940 C 215 940 228 936 240 930 C 252 923 263 916 274 908 C 282 901 290 895 298 891 C 306 886 314 884 322 884 C 329 884 336 888 342 897 C 348 906 352 919 352 936 Z" unicode="Ñ" />
<glyph horiz-adv-x="571" d="M 34 0 L 34 0 Z M 288 -7 C 207 -7 144 25 100 90 C 56 154 34 248 34 371 C 34 485 56 575 101 640 C 146 704 207 737 283 737 C 364 737 427 705 471 641 C 515 577 537 485 537 365 C 537 248 514 157 468 91 C 422 25 362 -7 288 -7 Z M 286 73 C 332 73 368 97 395 145 C 421 193 435 269 435 372 C 435 467 421 538 394 586 C 366 633 330 657 284 657 C 236 657 200 633 175 586 C 149 539 137 465 137 365 C 137 262 150 188 178 142 C 205 96 241 73 286 73 Z M 285 792 L 285 792 Z M 379 792 L 291 792 L 189 964 L 294 964 L 379 792 Z" unicode="Ò" />
<glyph horiz-adv-x="571" d="M 34 0 L 34 0 Z M 288 -7 C 207 -7 144 25 100 90 C 56 154 34 248 34 371 C 34 485 56 575 101 640 C 146 704 207 737 283 737 C 364 737 427 705 471 641 C 515 577 537 485 537 365 C 537 248 514 157 468 91 C 422 25 362 -7 288 -7 Z M 286 73 C 332 73 368 97 395 145 C 421 193 435 269 435 372 C 435 467 421 538 394 586 C 366 633 330 657 284 657 C 236 657 200 633 175 586 C 149 539 137 465 137 365 C 137 262 150 188 178 142 C 205 96 241 73 286 73 Z M 285 792 L 285 792 Z M 190 792 L 275 964 L 380 964 L 278 792 L 190 792 Z" unicode="Ó" />
<glyph horiz-adv-x="571" d="M 34 0 L 34 0 Z M 288 -7 C 207 -7 144 25 100 90 C 56 154 34 248 34 371 C 34 485 56 575 101 640 C 146 704 207 737 283 737 C 364 737 427 705 471 641 C 515 577 537 485 537 365 C 537 248 514 157 468 91 C 422 25 362 -7 288 -7 Z M 286 73 C 332 73 368 97 395 145 C 421 193 435 269 435 372 C 435 467 421 538 394 586 C 366 633 330 657 284 657 C 236 657 200 633 175 586 C 149 539 137 465 137 365 C 137 262 150 188 178 142 C 205 96 241 73 286 73 Z M 285 793 L 285 793 Z M 422 793 L 343 793 L 285 895 L 226 793 L 149 793 L 247 964 L 324 964 L 422 793 Z" unicode="Ô" />
<glyph horiz-adv-x="571" d="M 34 0 L 34 0 Z M 288 -7 C 207 -7 144 25 100 90 C 56 154 34 248 34 371 C 34 485 56 575 101 640 C 146 704 207 737 283 737 C 364 737 427 705 471 641 C 515 577 537 485 537 365 C 537 248 514 157 468 91 C 422 25 362 -7 288 -7 Z M 286 73 C 332 73 368 97 395 145 C 421 193 435 269 435 372 C 435 467 421 538 394 586 C 366 633 330 657 284 657 C 236 657 200 633 175 586 C 149 539 137 465 137 365 C 137 262 150 188 178 142 C 205 96 241 73 286 73 Z M 285 799 L 285 799 Z M 369 936 L 437 936 C 437 889 430 854 417 832 C 404 810 387 799 367 799 C 349 799 333 802 319 810 C 305 817 294 824 286 830 C 277 836 268 842 260 848 C 251 854 243 857 235 857 C 226 857 219 851 213 841 C 207 830 204 817 204 803 L 134 803 C 134 849 143 883 161 906 C 179 928 198 940 218 940 C 232 940 245 936 257 930 C 269 923 280 916 291 908 C 299 901 307 895 315 891 C 323 886 331 884 339 884 C 346 884 353 888 359 897 C 365 906 369 919 369 936 Z" unicode="Õ" />
<glyph horiz-adv-x="571" d="M 34 0 L 34 0 Z M 288 -7 C 207 -7 144 25 100 90 C 56 154 34 248 34 371 C 34 485 56 575 101 640 C 146 704 207 737 283 737 C 364 737 427 705 471 641 C 515 577 537 485 537 365 C 537 248 514 157 468 91 C 422 25 362 -7 288 -7 Z M 286 73 C 332 73 368 97 395 145 C 421 193 435 269 435 372 C 435 467 421 538 394 586 C 366 633 330 657 284 657 C 236 657 200 633 175 586 C 149 539 137 465 137 365 C 137 262 150 188 178 142 C 205 96 241 73 286 73 Z M 285 793 L 285 793 Z M 397 793 L 323 793 L 323 951 L 397 951 L 397 793 Z M 247 793 L 173 793 L 173 951 L 247 951 L 247 793 Z" unicode="Ö" />
<glyph horiz-adv-x="471" d="M 104 148 L 56 196 L 188 328 L 57 459 L 104 507 L 235 376 L 367 507 L 415 459 L 284 328 L 415 197 L 368 147 L 235 280 L 104 148 Z" unicode="×" />
<glyph horiz-adv-x="571" d="M 288 -7 C 253 -7 221 0 193 11 C 164 23 139 42 119 66 L 69 -8 L 14 27 L 80 125 C 65 155 54 191 46 233 C 38 274 34 320 34 371 C 34 485 56 575 101 640 C 146 704 207 737 283 737 C 317 737 347 731 375 720 C 402 709 426 693 447 671 L 503 754 L 557 720 L 487 616 C 503 585 516 548 524 506 C 532 464 537 417 537 365 C 537 248 514 157 468 91 C 422 25 362 -7 288 -7 Z M 137 365 C 137 338 138 313 140 290 C 142 266 145 245 149 227 L 393 590 C 379 612 363 629 345 640 C 327 651 306 657 284 657 C 236 657 200 633 175 586 C 149 539 137 465 137 365 Z M 435 372 C 435 400 433 427 431 451 C 428 475 424 496 420 516 L 174 149 C 186 123 202 103 222 91 C 241 79 262 73 286 73 C 332 73 368 97 395 145 C 421 193 435 269 435 372 Z" unicode="Ø" />
<glyph horiz-adv-x="534" d="M 56 0 L 56 0 Z M 478 730 L 478 218 C 478 177 472 142 460 114 C 448 85 432 62 412 44 C 392 26 369 13 343 5 C 317 -3 289 -7 261 -7 C 233 -7 207 -3 182 4 C 157 12 135 24 117 42 C 98 60 83 83 72 112 C 61 140 56 176 56 218 L 56 730 L 155 730 L 155 216 C 155 166 165 130 186 110 C 206 89 233 79 265 79 C 295 79 321 88 342 108 C 363 128 374 164 374 216 L 374 730 L 478 730 Z M 265 792 L 265 792 Z M 359 792 L 271 792 L 169 964 L 274 964 L 359 792 Z" unicode="Ù" />
<glyph horiz-adv-x="534" d="M 56 0 L 56 0 Z M 478 730 L 478 218 C 478 177 472 142 460 114 C 448 85 432 62 412 44 C 392 26 369 13 343 5 C 317 -3 289 -7 261 -7 C 233 -7 207 -3 182 4 C 157 12 135 24 117 42 C 98 60 83 83 72 112 C 61 140 56 176 56 218 L 56 730 L 155 730 L 155 216 C 155 166 165 130 186 110 C 206 89 233 79 265 79 C 295 79 321 88 342 108 C 363 128 374 164 374 216 L 374 730 L 478 730 Z M 265 792 L 265 792 Z M 170 792 L 255 964 L 360 964 L 258 792 L 170 792 Z" unicode="Ú" />
<glyph horiz-adv-x="534" d="M 56 0 L 56 0 Z M 478 730 L 478 218 C 478 177 472 142 460 114 C 448 85 432 62 412 44 C 392 26 369 13 343 5 C 317 -3 289 -7 261 -7 C 233 -7 207 -3 182 4 C 157 12 135 24 117 42 C 98 60 83 83 72 112 C 61 140 56 176 56 218 L 56 730 L 155 730 L 155 216 C 155 166 165 130 186 110 C 206 89 233 79 265 79 C 295 79 321 88 342 108 C 363 128 374 164 374 216 L 374 730 L 478 730 Z M 265 793 L 265 793 Z M 402 793 L 323 793 L 265 895 L 206 793 L 129 793 L 227 964 L 304 964 L 402 793 Z" unicode="Û" />
<glyph horiz-adv-x="534" d="M 56 0 L 56 0 Z M 478 730 L 478 218 C 478 177 472 142 460 114 C 448 85 432 62 412 44 C 392 26 369 13 343 5 C 317 -3 289 -7 261 -7 C 233 -7 207 -3 182 4 C 157 12 135 24 117 42 C 98 60 83 83 72 112 C 61 140 56 176 56 218 L 56 730 L 155 730 L 155 216 C 155 166 165 130 186 110 C 206 89 233 79 265 79 C 295 79 321 88 342 108 C 363 128 374 164 374 216 L 374 730 L 478 730 Z M 265 793 L 265 793 Z M 377 793 L 303 793 L 303 951 L 377 951 L 377 793 Z M 227 793 L 153 793 L 153 951 L 227 951 L 227 793 Z" unicode="Ü" />
<glyph horiz-adv-x="461" d="M 0 0 L 0 0 Z M 464 730 L 278 316 L 278 0 L 178 0 L 178 318 L -3 730 L 113 730 L 234 418 L 369 730 L 464 730 Z M 235 792 L 235 792 Z M 140 792 L 225 964 L 330 964 L 228 792 L 140 792 Z" unicode="Ý" />
<glyph horiz-adv-x="443" d="M 59 0 L 59 730 L 159 730 L 159 601 L 234 601 C 260 601 285 596 309 587 C 333 577 353 564 371 546 C 388 528 402 505 412 479 C 422 452 427 422 427 388 C 427 316 408 261 370 221 C 332 181 285 162 229 162 L 159 162 L 159 0 L 59 0 Z M 157 242 L 225 242 C 257 242 284 254 304 280 C 324 305 335 341 335 387 C 335 431 323 464 301 486 C 278 508 253 520 225 520 L 157 520 L 157 242 Z" unicode="Þ" />
<glyph horiz-adv-x="483" d="M 338 -5 C 305 -5 276 1 251 15 C 226 28 206 46 192 69 L 241 131 C 253 113 266 99 281 89 C 295 79 311 75 328 75 C 342 75 356 80 370 92 C 384 104 391 121 391 144 C 391 166 382 185 365 200 C 347 215 325 233 298 253 C 268 273 244 294 227 315 C 210 336 202 366 202 405 C 202 439 211 468 229 490 C 247 512 268 527 292 534 C 298 536 305 545 312 560 C 318 574 322 597 323 627 C 323 665 314 690 297 704 C 279 718 259 725 237 725 C 211 725 190 715 174 697 C 158 679 150 651 150 613 L 150 0 L 58 0 L 58 618 C 58 676 73 722 105 754 C 137 786 180 802 234 802 C 284 802 325 786 357 756 C 389 725 405 680 405 621 C 405 576 398 540 386 512 C 373 484 359 469 345 465 C 329 464 314 459 301 450 C 288 441 282 427 282 409 C 282 390 289 375 303 364 C 317 353 341 336 374 313 C 404 290 428 266 444 240 C 460 214 469 180 469 138 C 469 112 464 91 456 73 C 448 55 437 40 424 28 C 411 16 397 8 382 3 C 366 -2 352 -5 338 -5 Z" unicode="ß" />
<glyph horiz-adv-x="373" d="M 18 0 L 18 0 Z M 333 0 L 257 0 L 257 51 C 240 32 224 18 208 9 C 192 0 170 -5 141 -5 C 105 -5 76 9 53 38 C 29 67 18 109 18 163 C 18 221 33 263 64 289 C 94 315 131 331 173 335 L 247 341 L 247 385 C 247 412 240 432 228 446 C 215 459 197 466 173 466 C 151 466 131 461 114 453 C 97 444 84 435 75 427 L 48 503 C 61 515 79 525 103 535 C 127 545 156 550 192 550 C 234 550 268 537 294 513 C 320 488 333 453 333 408 L 333 0 Z M 249 111 L 249 278 L 194 273 C 169 270 148 260 132 243 C 115 225 107 198 107 160 C 107 126 114 101 128 86 C 142 71 157 64 174 64 C 192 64 207 68 219 78 C 231 87 241 98 249 111 Z M 184 602 L 184 602 Z M 278 602 L 190 602 L 88 774 L 193 774 L 278 602 Z" unicode="à" />
<glyph horiz-adv-x="373" d="M 18 0 L 18 0 Z M 333 0 L 257 0 L 257 51 C 240 32 224 18 208 9 C 192 0 170 -5 141 -5 C 105 -5 76 9 53 38 C 29 67 18 109 18 163 C 18 221 33 263 64 289 C 94 315 131 331 173 335 L 247 341 L 247 385 C 247 412 240 432 228 446 C 215 459 197 466 173 466 C 151 466 131 461 114 453 C 97 444 84 435 75 427 L 48 503 C 61 515 79 525 103 535 C 127 545 156 550 192 550 C 234 550 268 537 294 513 C 320 488 333 453 333 408 L 333 0 Z M 249 111 L 249 278 L 194 273 C 169 270 148 260 132 243 C 115 225 107 198 107 160 C 107 126 114 101 128 86 C 142 71 157 64 174 64 C 192 64 207 68 219 78 C 231 87 241 98 249 111 Z M 184 602 L 184 602 Z M 89 602 L 174 774 L 279 774 L 177 602 L 89 602 Z" unicode="á" />
<glyph horiz-adv-x="373" d="M 18 0 L 18 0 Z M 333 0 L 257 0 L 257 51 C 240 32 224 18 208 9 C 192 0 170 -5 141 -5 C 105 -5 76 9 53 38 C 29 67 18 109 18 163 C 18 221 33 263 64 289 C 94 315 131 331 173 335 L 247 341 L 247 385 C 247 412 240 432 228 446 C 215 459 197 466 173 466 C 151 466 131 461 114 453 C 97 444 84 435 75 427 L 48 503 C 61 515 79 525 103 535 C 127 545 156 550 192 550 C 234 550 268 537 294 513 C 320 488 333 453 333 408 L 333 0 Z M 249 111 L 249 278 L 194 273 C 169 270 148 260 132 243 C 115 225 107 198 107 160 C 107 126 114 101 128 86 C 142 71 157 64 174 64 C 192 64 207 68 219 78 C 231 87 241 98 249 111 Z M 184 603 L 184 603 Z M 321 603 L 242 603 L 184 705 L 125 603 L 48 603 L 146 774 L 223 774 L 321 603 Z" unicode="â" />
<glyph horiz-adv-x="373" d="M 18 0 L 18 0 Z M 333 0 L 257 0 L 257 51 C 240 32 224 18 208 9 C 192 0 170 -5 141 -5 C 105 -5 76 9 53 38 C 29 67 18 109 18 163 C 18 221 33 263 64 289 C 94 315 131 331 173 335 L 247 341 L 247 385 C 247 412 240 432 228 446 C 215 459 197 466 173 466 C 151 466 131 461 114 453 C 97 444 84 435 75 427 L 48 503 C 61 515 79 525 103 535 C 127 545 156 550 192 550 C 234 550 268 537 294 513 C 320 488 333 453 333 408 L 333 0 Z M 249 111 L 249 278 L 194 273 C 169 270 148 260 132 243 C 115 225 107 198 107 160 C 107 126 114 101 128 86 C 142 71 157 64 174 64 C 192 64 207 68 219 78 C 231 87 241 98 249 111 Z M 184 609 L 184 609 Z M 268 746 L 336 746 C 336 699 329 664 316 642 C 303 620 286 609 266 609 C 248 609 232 612 218 620 C 204 627 193 634 185 640 C 176 646 167 652 159 658 C 150 664 142 667 134 667 C 125 667 118 661 112 651 C 106 640 103 627 103 613 L 33 613 C 33 659 42 693 60 716 C 78 738 97 750 117 750 C 131 750 144 746 156 740 C 168 733 179 726 190 718 C 198 711 206 705 214 701 C 222 696 230 694 238 694 C 245 694 252 698 258 707 C 264 716 268 729 268 746 Z" unicode="ã" />
<glyph horiz-adv-x="373" d="M 18 0 L 18 0 Z M 333 0 L 257 0 L 257 51 C 240 32 224 18 208 9 C 192 0 170 -5 141 -5 C 105 -5 76 9 53 38 C 29 67 18 109 18 163 C 18 221 33 263 64 289 C 94 315 131 331 173 335 L 247 341 L 247 385 C 247 412 240 432 228 446 C 215 459 197 466 173 466 C 151 466 131 461 114 453 C 97 444 84 435 75 427 L 48 503 C 61 515 79 525 103 535 C 127 545 156 550 192 550 C 234 550 268 537 294 513 C 320 488 333 453 333 408 L 333 0 Z M 249 111 L 249 278 L 194 273 C 169 270 148 260 132 243 C 115 225 107 198 107 160 C 107 126 114 101 128 86 C 142 71 157 64 174 64 C 192 64 207 68 219 78 C 231 87 241 98 249 111 Z M 184 603 L 184 603 Z M 296 603 L 222 603 L 222 761 L 296 761 L 296 603 Z M 146 603 L 72 603 L 72 761 L 146 761 L 146 603 Z" unicode="ä" />
<glyph horiz-adv-x="373" d="M 18 0 L 18 0 Z M 333 0 L 257 0 L 257 51 C 240 32 224 18 208 9 C 192 0 170 -5 141 -5 C 105 -5 76 9 53 38 C 29 67 18 109 18 163 C 18 221 33 263 64 289 C 94 315 131 331 173 335 L 247 341 L 247 385 C 247 412 240 432 228 446 C 215 459 197 466 173 466 C 151 466 131 461 114 453 C 97 444 84 435 75 427 L 48 503 C 61 515 79 525 103 535 C 127 545 156 550 192 550 C 234 550 268 537 294 513 C 320 488 333 453 333 408 L 333 0 Z M 249 111 L 249 278 L 194 273 C 169 270 148 260 132 243 C 115 225 107 198 107 160 C 107 126 114 101 128 86 C 142 71 157 64 174 64 C 192 64 207 68 219 78 C 231 87 241 98 249 111 Z M 184 580 L 184 580 Z M 184 580 C 150 580 121 592 97 616 C 73 640 61 669 61 703 C 61 737 73 766 97 790 C 121 814 150 826 184 826 C 218 826 247 814 271 790 C 295 766 308 737 308 703 C 308 669 295 640 271 616 C 247 592 218 580 184 580 Z M 185 635 C 203 635 219 641 232 655 C 244 668 251 684 251 703 C 251 721 244 737 232 751 C 219 764 203 771 185 771 C 166 771 150 764 137 751 C 124 737 118 721 118 703 C 118 684 124 668 137 655 C 150 641 166 635 185 635 Z" unicode="å" />
<glyph horiz-adv-x="607" d="M 417 -5 C 397 -5 380 -2 366 4 C 351 10 338 17 328 26 C 317 34 308 44 301 55 C 294 65 288 75 284 85 C 274 55 256 33 231 18 C 206 2 178 -5 146 -5 C 113 -5 84 9 58 39 C 32 68 19 109 19 161 C 19 219 34 262 64 289 C 94 315 131 330 173 334 L 247 339 L 247 364 C 247 404 240 431 227 445 C 213 459 194 467 170 467 C 147 467 127 462 111 453 C 95 444 83 436 76 430 L 49 503 C 63 515 80 525 101 534 C 122 543 150 548 185 548 C 211 548 236 541 258 529 C 280 516 294 496 299 470 C 305 486 319 503 339 519 C 359 535 386 543 420 543 C 474 543 516 516 546 464 C 576 412 591 340 591 250 L 332 250 C 332 200 340 159 357 125 C 374 91 399 75 433 75 C 457 75 478 81 494 95 C 510 109 523 122 534 136 L 578 87 C 564 66 544 45 518 25 C 492 5 459 -5 417 -5 Z M 331 312 L 502 312 C 502 360 494 397 480 425 C 465 453 445 467 420 467 C 395 467 374 453 358 426 C 342 399 333 361 331 312 Z M 174 64 C 192 64 208 70 224 83 C 239 95 247 116 249 145 L 249 276 L 193 271 C 169 269 149 259 132 242 C 115 225 107 198 107 160 C 107 126 114 101 128 86 C 142 71 158 64 174 64 Z" unicode="æ" />
<glyph horiz-adv-x="354" d="M 21 0 L 21 0 Z M 296 126 L 341 71 C 329 51 313 34 292 18 C 271 2 244 -5 210 -5 C 179 -5 152 1 128 15 C 104 29 85 48 69 72 C 53 96 41 124 33 158 C 25 192 21 229 21 269 C 21 305 24 340 32 374 C 40 408 51 437 67 462 C 83 487 102 507 126 522 C 149 537 176 545 207 545 C 243 545 272 535 296 516 C 319 497 336 477 346 455 L 281 407 C 274 422 265 435 253 446 C 241 457 226 463 208 463 C 178 463 155 445 139 411 C 123 377 116 331 116 273 C 116 203 126 153 146 121 C 166 89 191 74 221 74 C 241 74 257 80 269 92 C 280 104 289 115 296 126 Z M 193 0 L 193 0 Z M 198 -180 C 178 -180 158 -177 140 -171 C 121 -165 105 -157 93 -147 L 116 -111 C 123 -117 133 -123 146 -129 C 158 -135 172 -138 187 -138 C 199 -138 209 -134 217 -128 C 225 -122 230 -114 230 -104 C 230 -92 225 -83 217 -78 C 209 -72 200 -70 192 -70 C 185 -70 179 -70 173 -71 C 167 -72 161 -74 157 -76 L 147 -58 L 199 13 L 243 13 L 203 -43 C 228 -41 249 -45 267 -55 C 285 -65 294 -81 294 -105 C 294 -128 284 -146 266 -160 C 247 -173 224 -180 198 -180 Z" unicode="ç" />
<glyph horiz-adv-x="387" d="M 21 0 L 21 0 Z M 199 -5 C 145 -5 101 19 69 69 C 37 119 21 185 21 267 C 21 352 37 419 71 469 C 105 519 147 544 197 544 C 255 544 298 517 327 464 C 355 410 370 338 370 248 L 112 248 C 112 200 120 159 138 126 C 155 92 181 76 215 76 C 239 76 260 83 276 97 C 292 111 304 124 314 138 L 356 87 C 343 66 323 45 297 25 C 271 5 238 -5 199 -5 Z M 109 312 L 281 312 C 281 362 273 400 259 427 C 244 453 224 467 200 467 C 174 467 153 453 137 427 C 121 401 111 362 109 312 Z M 198 602 L 198 602 Z M 292 602 L 204 602 L 102 774 L 207 774 L 292 602 Z" unicode="è" />
<glyph horiz-adv-x="387" d="M 21 0 L 21 0 Z M 199 -5 C 145 -5 101 19 69 69 C 37 119 21 185 21 267 C 21 352 37 419 71 469 C 105 519 147 544 197 544 C 255 544 298 517 327 464 C 355 410 370 338 370 248 L 112 248 C 112 200 120 159 138 126 C 155 92 181 76 215 76 C 239 76 260 83 276 97 C 292 111 304 124 314 138 L 356 87 C 343 66 323 45 297 25 C 271 5 238 -5 199 -5 Z M 109 312 L 281 312 C 281 362 273 400 259 427 C 244 453 224 467 200 467 C 174 467 153 453 137 427 C 121 401 111 362 109 312 Z M 198 602 L 198 602 Z M 103 602 L 188 774 L 293 774 L 191 602 L 103 602 Z" unicode="é" />
<glyph horiz-adv-x="387" d="M 21 0 L 21 0 Z M 199 -5 C 145 -5 101 19 69 69 C 37 119 21 185 21 267 C 21 352 37 419 71 469 C 105 519 147 544 197 544 C 255 544 298 517 327 464 C 355 410 370 338 370 248 L 112 248 C 112 200 120 159 138 126 C 155 92 181 76 215 76 C 239 76 260 83 276 97 C 292 111 304 124 314 138 L 356 87 C 343 66 323 45 297 25 C 271 5 238 -5 199 -5 Z M 109 312 L 281 312 C 281 362 273 400 259 427 C 244 453 224 467 200 467 C 174 467 153 453 137 427 C 121 401 111 362 109 312 Z M 198 603 L 198 603 Z M 335 603 L 256 603 L 198 705 L 139 603 L 62 603 L 160 774 L 237 774 L 335 603 Z" unicode="ê" />
<glyph horiz-adv-x="387" d="M 21 0 L 21 0 Z M 199 -5 C 145 -5 101 19 69 69 C 37 119 21 185 21 267 C 21 352 37 419 71 469 C 105 519 147 544 197 544 C 255 544 298 517 327 464 C 355 410 370 338 370 248 L 112 248 C 112 200 120 159 138 126 C 155 92 181 76 215 76 C 239 76 260 83 276 97 C 292 111 304 124 314 138 L 356 87 C 343 66 323 45 297 25 C 271 5 238 -5 199 -5 Z M 109 312 L 281 312 C 281 362 273 400 259 427 C 244 453 224 467 200 467 C 174 467 153 453 137 427 C 121 401 111 362 109 312 Z M 198 603 L 198 603 Z M 310 603 L 236 603 L 236 761 L 310 761 L 310 603 Z M 160 603 L 86 603 L 86 761 L 160 761 L 160 603 Z" unicode="ë" />
<glyph horiz-adv-x="177" d="M 0 0 L 0 0 Z M 134 0 L 43 0 L 43 540 L 134 540 L 134 0 Z M 87 602 L 87 602 Z M 181 602 L 93 602 L -9 774 L 96 774 L 181 602 Z" unicode="ì" />
<glyph horiz-adv-x="177" d="M 0 0 L 0 0 Z M 134 0 L 43 0 L 43 540 L 134 540 L 134 0 Z M 87 602 L 87 602 Z M -8 602 L 77 774 L 182 774 L 80 602 L -8 602 Z" unicode="í" />
<glyph horiz-adv-x="177" d="M 0 0 L 0 0 Z M 134 0 L 43 0 L 43 540 L 134 540 L 134 0 Z M 87 603 L 87 603 Z M 224 603 L 145 603 L 87 705 L 28 603 L -49 603 L 49 774 L 126 774 L 224 603 Z" unicode="î" />
<glyph horiz-adv-x="177" d="M 0 0 L 0 0 Z M 134 0 L 43 0 L 43 540 L 134 540 L 134 0 Z M 87 603 L 87 603 Z M 199 603 L 125 603 L 125 761 L 199 761 L 199 603 Z M 49 603 L -25 603 L -25 761 L 49 761 L 49 603 Z" unicode="ï" />
<glyph horiz-adv-x="411" d="M 382 304 C 382 259 378 217 370 179 C 362 141 351 108 336 81 C 321 53 302 32 280 16 C 258 0 232 -7 203 -7 C 149 -7 105 16 71 62 C 37 108 21 174 21 258 C 21 302 25 342 34 376 C 43 410 55 438 71 460 C 86 482 103 498 123 510 C 143 521 163 527 185 527 C 211 527 232 521 248 511 C 264 500 277 484 287 464 C 283 494 278 522 270 549 C 262 575 254 600 246 623 L 163 587 L 144 652 L 217 683 C 205 706 193 725 182 741 C 170 756 161 766 155 772 L 218 802 C 224 796 234 786 247 772 C 259 757 272 737 286 713 L 347 739 L 366 675 L 316 653 C 333 612 348 562 362 504 C 375 446 382 379 382 304 Z M 200 72 C 228 72 250 87 264 118 C 278 148 285 196 285 261 C 285 330 277 379 263 409 C 248 438 226 453 198 453 C 171 453 150 437 136 405 C 122 373 115 325 115 261 C 115 194 122 146 137 116 C 152 86 173 72 200 72 Z" unicode="ð" />
<glyph horiz-adv-x="402" d="M 40 0 L 40 0 Z M 362 0 L 271 0 L 271 400 C 271 422 265 438 254 450 C 242 461 227 467 207 467 C 186 467 168 460 154 448 C 139 435 132 412 132 379 L 132 0 L 40 0 L 40 540 L 118 540 L 118 467 C 126 489 141 508 161 523 C 181 537 208 545 242 545 C 278 545 307 535 329 517 C 351 499 362 470 362 430 L 362 0 Z M 202 609 L 202 609 Z M 286 746 L 354 746 C 354 699 347 664 334 642 C 321 620 304 609 284 609 C 266 609 250 612 236 620 C 222 627 211 634 203 640 C 194 646 185 652 177 658 C 168 664 160 667 152 667 C 143 667 136 661 130 651 C 124 640 121 627 121 613 L 51 613 C 51 659 60 693 78 716 C 96 738 115 750 135 750 C 149 750 162 746 174 740 C 186 733 197 726 208 718 C 216 711 224 705 232 701 C 240 696 248 694 256 694 C 263 694 270 698 276 707 C 282 716 286 729 286 746 Z" unicode="ñ" />
<glyph horiz-adv-x="400" d="M 21 0 L 21 0 Z M 201 -5 C 149 -5 106 17 72 63 C 38 109 21 177 21 269 C 21 354 37 421 69 471 C 101 520 143 545 195 545 C 251 545 295 522 329 477 C 363 431 380 367 380 284 C 380 194 364 124 332 72 C 300 20 256 -5 201 -5 Z M 202 75 C 228 75 249 90 263 121 C 277 152 285 203 285 274 C 285 343 277 392 262 421 C 247 449 226 464 198 464 C 172 464 151 449 137 420 C 122 391 115 342 115 274 C 115 199 122 147 138 118 C 154 89 175 75 202 75 Z M 201 602 L 201 602 Z M 295 602 L 207 602 L 105 774 L 210 774 L 295 602 Z" unicode="ò" />
<glyph horiz-adv-x="400" d="M 21 0 L 21 0 Z M 201 -5 C 149 -5 106 17 72 63 C 38 109 21 177 21 269 C 21 354 37 421 69 471 C 101 520 143 545 195 545 C 251 545 295 522 329 477 C 363 431 380 367 380 284 C 380 194 364 124 332 72 C 300 20 256 -5 201 -5 Z M 202 75 C 228 75 249 90 263 121 C 277 152 285 203 285 274 C 285 343 277 392 262 421 C 247 449 226 464 198 464 C 172 464 151 449 137 420 C 122 391 115 342 115 274 C 115 199 122 147 138 118 C 154 89 175 75 202 75 Z M 201 602 L 201 602 Z M 106 602 L 191 774 L 296 774 L 194 602 L 106 602 Z" unicode="ó" />
<glyph horiz-adv-x="400" d="M 21 0 L 21 0 Z M 201 -5 C 149 -5 106 17 72 63 C 38 109 21 177 21 269 C 21 354 37 421 69 471 C 101 520 143 545 195 545 C 251 545 295 522 329 477 C 363 431 380 367 380 284 C 380 194 364 124 332 72 C 300 20 256 -5 201 -5 Z M 202 75 C 228 75 249 90 263 121 C 277 152 285 203 285 274 C 285 343 277 392 262 421 C 247 449 226 464 198 464 C 172 464 151 449 137 420 C 122 391 115 342 115 274 C 115 199 122 147 138 118 C 154 89 175 75 202 75 Z M 201 603 L 201 603 Z M 338 603 L 259 603 L 201 705 L 142 603 L 65 603 L 163 774 L 240 774 L 338 603 Z" unicode="ô" />
<glyph horiz-adv-x="400" d="M 21 0 L 21 0 Z M 201 -5 C 149 -5 106 17 72 63 C 38 109 21 177 21 269 C 21 354 37 421 69 471 C 101 520 143 545 195 545 C 251 545 295 522 329 477 C 363 431 380 367 380 284 C 380 194 364 124 332 72 C 300 20 256 -5 201 -5 Z M 202 75 C 228 75 249 90 263 121 C 277 152 285 203 285 274 C 285 343 277 392 262 421 C 247 449 226 464 198 464 C 172 464 151 449 137 420 C 122 391 115 342 115 274 C 115 199 122 147 138 118 C 154 89 175 75 202 75 Z M 201 609 L 201 609 Z M 285 746 L 353 746 C 353 699 346 664 333 642 C 320 620 303 609 283 609 C 265 609 249 612 235 620 C 221 627 210 634 202 640 C 193 646 184 652 176 658 C 167 664 159 667 151 667 C 142 667 135 661 129 651 C 123 640 120 627 120 613 L 50 613 C 50 659 59 693 77 716 C 95 738 114 750 134 750 C 148 750 161 746 173 740 C 185 733 196 726 207 718 C 215 711 223 705 231 701 C 239 696 247 694 255 694 C 262 694 269 698 275 707 C 281 716 285 729 285 746 Z" unicode="õ" />
<glyph horiz-adv-x="400" d="M 21 0 L 21 0 Z M 201 -5 C 149 -5 106 17 72 63 C 38 109 21 177 21 269 C 21 354 37 421 69 471 C 101 520 143 545 195 545 C 251 545 295 522 329 477 C 363 431 380 367 380 284 C 380 194 364 124 332 72 C 300 20 256 -5 201 -5 Z M 202 75 C 228 75 249 90 263 121 C 277 152 285 203 285 274 C 285 343 277 392 262 421 C 247 449 226 464 198 464 C 172 464 151 449 137 420 C 122 391 115 342 115 274 C 115 199 122 147 138 118 C 154 89 175 75 202 75 Z M 201 603 L 201 603 Z M 313 603 L 239 603 L 239 761 L 313 761 L 313 603 Z M 163 603 L 89 603 L 89 761 L 163 761 L 163 603 Z" unicode="ö" />
<glyph horiz-adv-x="471" d="M 192 448 L 192 564 L 279 564 L 279 448 L 192 448 Z M 25 291 L 25 370 L 445 370 L 445 291 L 25 291 Z M 192 97 L 192 213 L 279 213 L 279 97 L 192 97 Z" unicode="÷" />
<glyph horiz-adv-x="400" d="M 380 284 C 380 194 364 124 332 72 C 300 20 256 -5 201 -5 C 180 -5 160 -1 142 5 C 124 12 107 23 93 38 L 69 -4 L 28 23 L 61 80 C 48 102 38 129 31 161 C 24 193 21 229 21 269 C 21 354 37 421 69 471 C 101 520 143 545 195 545 C 217 545 238 541 257 534 C 276 526 293 516 308 502 L 336 550 L 377 524 L 340 461 C 352 439 362 414 369 384 C 376 354 380 320 380 284 Z M 115 274 C 115 256 115 239 116 224 C 117 208 119 194 121 182 L 262 423 C 254 437 245 448 235 454 C 224 460 212 464 198 464 C 172 464 151 449 137 420 C 122 391 115 342 115 274 Z M 285 274 C 285 290 284 305 283 319 C 282 333 281 346 280 358 L 139 117 C 146 102 155 91 166 85 C 177 78 189 75 202 75 C 228 75 249 90 263 121 C 277 152 285 203 285 274 Z" unicode="ø" />
<glyph horiz-adv-x="402" d="M 39 0 L 39 0 Z M 39 540 L 131 540 L 131 152 C 131 125 137 105 149 92 C 161 78 177 72 198 72 C 216 72 233 79 248 93 C 262 107 270 134 270 172 L 270 540 L 361 540 L 361 0 L 281 0 L 281 76 C 273 54 259 35 237 19 C 215 2 189 -6 158 -6 C 126 -6 99 5 75 28 C 51 50 39 83 39 125 L 39 540 Z M 200 602 L 200 602 Z M 294 602 L 206 602 L 104 774 L 209 774 L 294 602 Z" unicode="ù" />
<glyph horiz-adv-x="402" d="M 39 0 L 39 0 Z M 39 540 L 131 540 L 131 152 C 131 125 137 105 149 92 C 161 78 177 72 198 72 C 216 72 233 79 248 93 C 262 107 270 134 270 172 L 270 540 L 361 540 L 361 0 L 281 0 L 281 76 C 273 54 259 35 237 19 C 215 2 189 -6 158 -6 C 126 -6 99 5 75 28 C 51 50 39 83 39 125 L 39 540 Z M 200 602 L 200 602 Z M 105 602 L 190 774 L 295 774 L 193 602 L 105 602 Z" unicode="ú" />
<glyph horiz-adv-x="402" d="M 39 0 L 39 0 Z M 39 540 L 131 540 L 131 152 C 131 125 137 105 149 92 C 161 78 177 72 198 72 C 216 72 233 79 248 93 C 262 107 270 134 270 172 L 270 540 L 361 540 L 361 0 L 281 0 L 281 76 C 273 54 259 35 237 19 C 215 2 189 -6 158 -6 C 126 -6 99 5 75 28 C 51 50 39 83 39 125 L 39 540 Z M 200 603 L 200 603 Z M 337 603 L 258 603 L 200 705 L 141 603 L 64 603 L 162 774 L 239 774 L 337 603 Z" unicode="û" />
<glyph horiz-adv-x="402" d="M 39 0 L 39 0 Z M 39 540 L 131 540 L 131 152 C 131 125 137 105 149 92 C 161 78 177 72 198 72 C 216 72 233 79 248 93 C 262 107 270 134 270 172 L 270 540 L 361 540 L 361 0 L 281 0 L 281 76 C 273 54 259 35 237 19 C 215 2 189 -6 158 -6 C 126 -6 99 5 75 28 C 51 50 39 83 39 125 L 39 540 Z M 200 603 L 200 603 Z M 312 603 L 238 603 L 238 761 L 312 761 L 312 603 Z M 162 603 L 88 603 L 88 761 L 162 761 L 162 603 Z" unicode="ü" />
<glyph horiz-adv-x="339" d="M 0 0 L 0 0 Z M 343 540 L 177 -96 C 168 -128 153 -154 132 -172 C 110 -190 86 -200 60 -200 C 31 -200 8 -197 -8 -191 C -24 -185 -35 -179 -41 -174 L -3 -108 C 0 -110 6 -113 17 -117 C 27 -120 37 -122 47 -122 C 59 -122 71 -117 82 -107 C 92 -97 100 -82 105 -62 L 130 43 L -4 540 L 89 540 L 175 173 L 258 540 L 343 540 Z M 175 602 L 175 602 Z M 80 602 L 165 774 L 270 774 L 168 602 L 80 602 Z" unicode="ý" />
<glyph horiz-adv-x="406" d="M 40 -200 L 40 800 L 125 800 L 125 448 C 131 475 145 498 166 517 C 186 535 212 545 242 545 C 266 545 288 538 306 525 C 324 512 339 494 351 472 C 363 449 371 422 377 391 C 383 359 386 325 386 289 C 386 195 372 123 345 72 C 318 21 281 -4 235 -4 C 207 -4 184 3 165 17 C 146 31 133 48 127 69 L 127 -200 L 40 -200 Z M 202 71 C 228 71 250 86 266 117 C 282 148 290 197 290 265 C 290 327 283 375 270 409 C 256 443 235 460 205 460 C 194 460 184 457 174 451 C 164 445 156 435 148 420 C 140 405 134 384 130 358 C 125 332 123 298 123 258 C 123 220 125 188 129 164 C 133 140 138 121 145 107 C 152 93 160 84 170 79 C 180 73 190 71 202 71 Z" unicode="þ" />
<glyph horiz-adv-x="339" d="M 0 0 L 0 0 Z M 343 540 L 177 -96 C 168 -128 153 -154 132 -172 C 110 -190 86 -200 60 -200 C 31 -200 8 -197 -8 -191 C -24 -185 -35 -179 -41 -174 L -3 -108 C 0 -110 6 -113 17 -117 C 27 -120 37 -122 47 -122 C 59 -122 71 -117 82 -107 C 92 -97 100 -82 105 -62 L 130 43 L -4 540 L 89 540 L 175 173 L 258 540 L 343 540 Z M 175 603 L 175 603 Z M 287 603 L 213 603 L 213 761 L 287 761 L 287 603 Z M 137 603 L 63 603 L 63 761 L 137 761 L 137 603 Z" unicode="ÿ" />
<glyph horiz-adv-x="479" d="M 1 0 L 1 0 Z M 478 0 L 383 0 L 334 179 L 139 179 L 94 0 L 1 0 L 205 734 L 274 734 L 478 0 Z M 322 250 L 236 569 L 153 250 L 322 250 Z M 240 808 L 240 808 Z M 361 808 L 119 808 L 119 885 L 361 885 L 361 808 Z" unicode="Ā" />
<glyph horiz-adv-x="373" d="M 18 0 L 18 0 Z M 333 0 L 257 0 L 257 51 C 240 32 224 18 208 9 C 192 0 170 -5 141 -5 C 105 -5 76 9 53 38 C 29 67 18 109 18 163 C 18 221 33 263 64 289 C 94 315 131 331 173 335 L 247 341 L 247 385 C 247 412 240 432 228 446 C 215 459 197 466 173 466 C 151 466 131 461 114 453 C 97 444 84 435 75 427 L 48 503 C 61 515 79 525 103 535 C 127 545 156 550 192 550 C 234 550 268 537 294 513 C 320 488 333 453 333 408 L 333 0 Z M 249 111 L 249 278 L 194 273 C 169 270 148 260 132 243 C 115 225 107 198 107 160 C 107 126 114 101 128 86 C 142 71 157 64 174 64 C 192 64 207 68 219 78 C 231 87 241 98 249 111 Z M 184 618 L 184 618 Z M 305 618 L 63 618 L 63 695 L 305 695 L 305 618 Z" unicode="ā" />
<glyph horiz-adv-x="479" d="M 1 0 L 1 0 Z M 478 0 L 383 0 L 334 179 L 139 179 L 94 0 L 1 0 L 205 734 L 274 734 L 478 0 Z M 322 250 L 236 569 L 153 250 L 322 250 Z M 240 797 L 240 797 Z M 296 955 L 372 955 C 368 900 355 860 331 835 C 307 809 276 797 240 797 C 203 797 173 809 149 835 C 125 860 111 900 109 955 L 185 955 C 186 930 190 910 198 894 C 206 878 220 870 240 870 C 260 870 274 877 282 893 C 290 908 294 929 296 955 Z" unicode="Ă" />
<glyph horiz-adv-x="373" d="M 18 0 L 18 0 Z M 333 0 L 257 0 L 257 51 C 240 32 224 18 208 9 C 192 0 170 -5 141 -5 C 105 -5 76 9 53 38 C 29 67 18 109 18 163 C 18 221 33 263 64 289 C 94 315 131 331 173 335 L 247 341 L 247 385 C 247 412 240 432 228 446 C 215 459 197 466 173 466 C 151 466 131 461 114 453 C 97 444 84 435 75 427 L 48 503 C 61 515 79 525 103 535 C 127 545 156 550 192 550 C 234 550 268 537 294 513 C 320 488 333 453 333 408 L 333 0 Z M 249 111 L 249 278 L 194 273 C 169 270 148 260 132 243 C 115 225 107 198 107 160 C 107 126 114 101 128 86 C 142 71 157 64 174 64 C 192 64 207 68 219 78 C 231 87 241 98 249 111 Z M 184 607 L 184 607 Z M 240 765 L 316 765 C 312 710 299 670 275 645 C 251 619 220 607 184 607 C 147 607 117 619 93 645 C 69 670 55 710 53 765 L 129 765 C 130 740 134 720 142 704 C 150 688 164 680 184 680 C 204 680 218 687 226 703 C 234 718 238 739 240 765 Z" unicode="ă" />
<glyph horiz-adv-x="479" d="M 1 0 L 1 0 Z M 478 0 L 383 0 L 334 179 L 139 179 L 94 0 L 1 0 L 205 734 L 274 734 L 478 0 Z M 322 250 L 236 569 L 153 250 L 322 250 Z M 384 -9 L 384 -9 Z M 477 -96 L 504 -135 C 484 -155 462 -171 439 -182 C 416 -193 391 -199 363 -199 C 331 -199 307 -191 289 -177 C 271 -162 263 -143 263 -121 C 263 -96 273 -73 295 -51 C 317 -29 350 -11 394 4 L 429 4 C 399 -10 377 -24 363 -39 C 349 -53 343 -68 343 -84 C 343 -98 347 -109 356 -117 C 365 -125 377 -130 393 -130 C 410 -130 426 -126 440 -120 C 454 -114 466 -106 477 -96 Z" unicode="Ą" />
<glyph horiz-adv-x="373" d="M 18 0 L 18 0 Z M 333 0 L 257 0 L 257 51 C 240 32 224 18 208 9 C 192 0 170 -5 141 -5 C 105 -5 76 9 53 38 C 29 67 18 109 18 163 C 18 221 33 263 64 289 C 94 315 131 331 173 335 L 247 341 L 247 385 C 247 412 240 432 228 446 C 215 459 197 466 173 466 C 151 466 131 461 114 453 C 97 444 84 435 75 427 L 48 503 C 61 515 79 525 103 535 C 127 545 156 550 192 550 C 234 550 268 537 294 513 C 320 488 333 453 333 408 L 333 0 Z M 249 111 L 249 278 L 194 273 C 169 270 148 260 132 243 C 115 225 107 198 107 160 C 107 126 114 101 128 86 C 142 71 157 64 174 64 C 192 64 207 68 219 78 C 231 87 241 98 249 111 Z M 257 -9 L 257 -9 Z M 350 -96 L 377 -135 C 357 -155 335 -171 312 -182 C 289 -193 264 -199 236 -199 C 204 -199 180 -191 162 -177 C 144 -162 136 -143 136 -121 C 136 -96 146 -73 168 -51 C 190 -29 223 -11 267 4 L 302 4 C 272 -10 250 -24 236 -39 C 222 -53 216 -68 216 -84 C 216 -98 220 -109 229 -117 C 238 -125 250 -130 266 -130 C 283 -130 299 -126 313 -120 C 327 -114 339 -106 350 -96 Z" unicode="ą" />
<glyph horiz-adv-x="528" d="M 34 0 L 34 0 Z M 282 -7 C 208 -7 149 23 103 85 C 57 147 34 240 34 366 C 34 483 55 574 97 639 C 139 704 201 737 282 737 C 342 737 387 721 419 690 C 451 659 473 620 486 574 L 397 544 C 386 574 372 599 356 620 C 339 640 314 651 282 651 C 235 651 198 629 172 585 C 146 541 133 467 133 362 C 133 308 137 263 146 227 C 154 191 166 162 180 140 C 194 118 211 102 230 92 C 248 82 267 78 287 78 C 323 78 351 89 371 111 C 390 133 405 162 416 198 L 498 160 C 480 108 454 67 418 37 C 382 7 337 -7 282 -7 Z M 286 792 L 286 792 Z M 191 792 L 276 964 L 381 964 L 279 792 L 191 792 Z" unicode="Ć" />
<glyph horiz-adv-x="354" d="M 21 0 L 21 0 Z M 296 126 L 341 71 C 329 51 313 34 292 18 C 271 2 244 -5 210 -5 C 179 -5 152 1 128 15 C 104 29 85 48 69 72 C 53 96 41 124 33 158 C 25 192 21 229 21 269 C 21 305 24 340 32 374 C 40 408 51 437 67 462 C 83 487 102 507 126 522 C 149 537 176 545 207 545 C 243 545 272 535 296 516 C 319 497 336 477 346 455 L 281 407 C 274 422 265 435 253 446 C 241 457 226 463 208 463 C 178 463 155 445 139 411 C 123 377 116 331 116 273 C 116 203 126 153 146 121 C 166 89 191 74 221 74 C 241 74 257 80 269 92 C 280 104 289 115 296 126 Z M 204 602 L 204 602 Z M 109 602 L 194 774 L 299 774 L 197 602 L 109 602 Z" unicode="ć" />
<glyph horiz-adv-x="528" d="M 34 0 L 34 0 Z M 282 -7 C 208 -7 149 23 103 85 C 57 147 34 240 34 366 C 34 483 55 574 97 639 C 139 704 201 737 282 737 C 342 737 387 721 419 690 C 451 659 473 620 486 574 L 397 544 C 386 574 372 599 356 620 C 339 640 314 651 282 651 C 235 651 198 629 172 585 C 146 541 133 467 133 362 C 133 308 137 263 146 227 C 154 191 166 162 180 140 C 194 118 211 102 230 92 C 248 82 267 78 287 78 C 323 78 351 89 371 111 C 390 133 405 162 416 198 L 498 160 C 480 108 454 67 418 37 C 382 7 337 -7 282 -7 Z M 286 793 L 286 793 Z M 423 793 L 344 793 L 286 895 L 227 793 L 150 793 L 248 964 L 325 964 L 423 793 Z" unicode="Ĉ" />
<glyph horiz-adv-x="354" d="M 21 0 L 21 0 Z M 296 126 L 341 71 C 329 51 313 34 292 18 C 271 2 244 -5 210 -5 C 179 -5 152 1 128 15 C 104 29 85 48 69 72 C 53 96 41 124 33 158 C 25 192 21 229 21 269 C 21 305 24 340 32 374 C 40 408 51 437 67 462 C 83 487 102 507 126 522 C 149 537 176 545 207 545 C 243 545 272 535 296 516 C 319 497 336 477 346 455 L 281 407 C 274 422 265 435 253 446 C 241 457 226 463 208 463 C 178 463 155 445 139 411 C 123 377 116 331 116 273 C 116 203 126 153 146 121 C 166 89 191 74 221 74 C 241 74 257 80 269 92 C 280 104 289 115 296 126 Z M 204 603 L 204 603 Z M 341 603 L 262 603 L 204 705 L 145 603 L 68 603 L 166 774 L 243 774 L 341 603 Z" unicode="ĉ" />
<glyph horiz-adv-x="528" d="M 34 0 L 34 0 Z M 282 -7 C 208 -7 149 23 103 85 C 57 147 34 240 34 366 C 34 483 55 574 97 639 C 139 704 201 737 282 737 C 342 737 387 721 419 690 C 451 659 473 620 486 574 L 397 544 C 386 574 372 599 356 620 C 339 640 314 651 282 651 C 235 651 198 629 172 585 C 146 541 133 467 133 362 C 133 308 137 263 146 227 C 154 191 166 162 180 140 C 194 118 211 102 230 92 C 248 82 267 78 287 78 C 323 78 351 89 371 111 C 390 133 405 162 416 198 L 498 160 C 480 108 454 67 418 37 C 382 7 337 -7 282 -7 Z M 286 797 L 286 797 Z M 329 797 L 244 797 L 244 915 L 329 915 L 329 797 Z" unicode="Ċ" />
<glyph horiz-adv-x="354" d="M 21 0 L 21 0 Z M 296 126 L 341 71 C 329 51 313 34 292 18 C 271 2 244 -5 210 -5 C 179 -5 152 1 128 15 C 104 29 85 48 69 72 C 53 96 41 124 33 158 C 25 192 21 229 21 269 C 21 305 24 340 32 374 C 40 408 51 437 67 462 C 83 487 102 507 126 522 C 149 537 176 545 207 545 C 243 545 272 535 296 516 C 319 497 336 477 346 455 L 281 407 C 274 422 265 435 253 446 C 241 457 226 463 208 463 C 178 463 155 445 139 411 C 123 377 116 331 116 273 C 116 203 126 153 146 121 C 166 89 191 74 221 74 C 241 74 257 80 269 92 C 280 104 289 115 296 126 Z M 204 607 L 204 607 Z M 247 607 L 162 607 L 162 725 L 247 725 L 247 607 Z" unicode="ċ" />
<glyph horiz-adv-x="528" d="M 34 0 L 34 0 Z M 282 -7 C 208 -7 149 23 103 85 C 57 147 34 240 34 366 C 34 483 55 574 97 639 C 139 704 201 737 282 737 C 342 737 387 721 419 690 C 451 659 473 620 486 574 L 397 544 C 386 574 372 599 356 620 C 339 640 314 651 282 651 C 235 651 198 629 172 585 C 146 541 133 467 133 362 C 133 308 137 263 146 227 C 154 191 166 162 180 140 C 194 118 211 102 230 92 C 248 82 267 78 287 78 C 323 78 351 89 371 111 C 390 133 405 162 416 198 L 498 160 C 480 108 454 67 418 37 C 382 7 337 -7 282 -7 Z M 286 793 L 286 793 Z M 150 964 L 229 964 L 287 862 L 346 964 L 423 964 L 325 793 L 248 793 L 150 964 Z" unicode="Č" />
<glyph horiz-adv-x="354" d="M 21 0 L 21 0 Z M 296 126 L 341 71 C 329 51 313 34 292 18 C 271 2 244 -5 210 -5 C 179 -5 152 1 128 15 C 104 29 85 48 69 72 C 53 96 41 124 33 158 C 25 192 21 229 21 269 C 21 305 24 340 32 374 C 40 408 51 437 67 462 C 83 487 102 507 126 522 C 149 537 176 545 207 545 C 243 545 272 535 296 516 C 319 497 336 477 346 455 L 281 407 C 274 422 265 435 253 446 C 241 457 226 463 208 463 C 178 463 155 445 139 411 C 123 377 116 331 116 273 C 116 203 126 153 146 121 C 166 89 191 74 221 74 C 241 74 257 80 269 92 C 280 104 289 115 296 126 Z M 204 603 L 204 603 Z M 68 774 L 147 774 L 205 672 L 264 774 L 341 774 L 243 603 L 166 603 L 68 774 Z" unicode="č" />
<glyph horiz-adv-x="540" d="M 59 0 L 59 0 Z M 59 0 L 59 730 L 222 730 C 268 730 308 721 344 704 C 379 686 409 662 433 630 C 457 598 475 560 487 515 C 499 469 506 419 506 365 C 506 314 500 266 488 222 C 476 177 458 138 434 106 C 410 73 379 47 343 28 C 307 9 264 0 215 0 L 59 0 Z M 158 83 L 216 83 C 284 83 333 108 362 159 C 390 210 405 278 405 364 C 405 459 389 530 357 577 C 325 623 281 647 224 647 L 158 647 L 158 83 Z M 253 793 L 253 793 Z M 117 964 L 196 964 L 254 862 L 313 964 L 390 964 L 292 793 L 215 793 L 117 964 Z" unicode="Ď" />
<glyph horiz-adv-x="420" d="M 21 0 L 21 0 Z M 179 -5 C 155 -5 133 1 113 15 C 93 29 77 48 63 72 C 49 96 39 124 32 157 C 24 190 21 226 21 265 C 21 349 35 417 65 467 C 94 517 132 543 178 543 C 207 543 232 532 252 511 C 272 489 286 464 293 434 L 293 800 L 379 800 L 379 0 L 298 0 L 298 81 C 292 60 279 40 259 22 C 239 4 212 -5 179 -5 Z M 207 72 C 233 72 255 88 271 121 C 287 153 295 204 295 274 C 295 343 286 391 269 419 C 251 446 230 460 206 460 C 178 460 156 444 140 414 C 124 384 116 336 116 270 C 116 202 124 152 140 120 C 156 88 178 72 207 72 Z M 508 621 L 504 483 L 426 483 L 421 621 L 421 730 L 508 730 L 508 621 Z" unicode="ď" />
<glyph horiz-adv-x="540" d="M 18 0 L 18 0 Z M 506 363 C 506 312 500 264 488 220 C 476 176 458 137 434 105 C 410 73 379 47 343 28 C 307 9 264 0 215 0 L 59 0 L 59 320 L 18 320 L 18 399 L 59 399 L 59 730 L 222 730 C 268 730 308 721 344 704 C 379 686 409 662 433 630 C 457 598 475 559 487 514 C 499 468 506 418 506 363 Z M 158 77 L 216 77 C 284 77 333 103 362 155 C 390 207 405 275 405 361 C 405 460 389 533 357 581 C 325 629 281 653 224 653 L 158 653 L 158 399 L 279 399 L 279 320 L 158 320 L 158 77 Z" unicode="Đ" />
<glyph horiz-adv-x="420" d="M 298 81 C 292 60 279 40 259 22 C 239 4 212 -5 179 -5 C 155 -5 133 1 113 15 C 93 29 77 48 63 72 C 49 96 39 124 32 157 C 24 190 21 226 21 265 C 21 349 35 417 65 467 C 94 517 132 543 178 543 C 207 543 232 532 252 511 C 272 489 286 464 293 434 L 293 623 L 215 623 L 215 703 L 293 703 L 293 800 L 379 800 L 379 703 L 420 703 L 420 623 L 379 623 L 379 0 L 298 0 L 298 81 Z M 207 72 C 233 72 255 88 271 121 C 287 153 295 204 295 274 C 295 343 286 391 269 419 C 251 446 230 460 206 460 C 178 460 156 444 140 414 C 124 384 116 336 116 270 C 116 202 124 152 140 120 C 156 88 178 72 207 72 Z" unicode="đ" />
<glyph horiz-adv-x="395" d="M 59 0 L 59 0 Z M 382 0 L 59 0 L 59 730 L 364 730 L 364 643 L 157 643 L 157 407 L 356 407 L 356 323 L 157 323 L 157 87 L 382 87 L 382 0 Z M 212 808 L 212 808 Z M 333 808 L 91 808 L 91 885 L 333 885 L 333 808 Z" unicode="Ē" />
<glyph horiz-adv-x="387" d="M 21 0 L 21 0 Z M 199 -5 C 145 -5 101 19 69 69 C 37 119 21 185 21 267 C 21 352 37 419 71 469 C 105 519 147 544 197 544 C 255 544 298 517 327 464 C 355 410 370 338 370 248 L 112 248 C 112 200 120 159 138 126 C 155 92 181 76 215 76 C 239 76 260 83 276 97 C 292 111 304 124 314 138 L 356 87 C 343 66 323 45 297 25 C 271 5 238 -5 199 -5 Z M 109 312 L 281 312 C 281 362 273 400 259 427 C 244 453 224 467 200 467 C 174 467 153 453 137 427 C 121 401 111 362 109 312 Z M 198 618 L 198 618 Z M 319 618 L 77 618 L 77 695 L 319 695 L 319 618 Z" unicode="ē" />
<glyph horiz-adv-x="395" d="M 59 0 L 59 0 Z M 382 0 L 59 0 L 59 730 L 364 730 L 364 643 L 157 643 L 157 407 L 356 407 L 356 323 L 157 323 L 157 87 L 382 87 L 382 0 Z M 212 797 L 212 797 Z M 268 955 L 344 955 C 340 900 327 860 303 835 C 279 809 248 797 212 797 C 175 797 145 809 121 835 C 97 860 83 900 81 955 L 157 955 C 158 930 162 910 170 894 C 178 878 192 870 212 870 C 232 870 246 877 254 893 C 262 908 266 929 268 955 Z" unicode="Ĕ" />
<glyph horiz-adv-x="387" d="M 21 0 L 21 0 Z M 199 -5 C 145 -5 101 19 69 69 C 37 119 21 185 21 267 C 21 352 37 419 71 469 C 105 519 147 544 197 544 C 255 544 298 517 327 464 C 355 410 370 338 370 248 L 112 248 C 112 200 120 159 138 126 C 155 92 181 76 215 76 C 239 76 260 83 276 97 C 292 111 304 124 314 138 L 356 87 C 343 66 323 45 297 25 C 271 5 238 -5 199 -5 Z M 109 312 L 281 312 C 281 362 273 400 259 427 C 244 453 224 467 200 467 C 174 467 153 453 137 427 C 121 401 111 362 109 312 Z M 198 607 L 198 607 Z M 254 765 L 330 765 C 326 710 313 670 289 645 C 265 619 234 607 198 607 C 161 607 131 619 107 645 C 83 670 69 710 67 765 L 143 765 C 144 740 148 720 156 704 C 164 688 178 680 198 680 C 218 680 232 687 240 703 C 248 718 252 739 254 765 Z" unicode="ĕ" />
<glyph horiz-adv-x="395" d="M 59 0 L 59 0 Z M 382 0 L 59 0 L 59 730 L 364 730 L 364 643 L 157 643 L 157 407 L 356 407 L 356 323 L 157 323 L 157 87 L 382 87 L 382 0 Z M 212 797 L 212 797 Z M 255 797 L 170 797 L 170 915 L 255 915 L 255 797 Z" unicode="Ė" />
<glyph horiz-adv-x="387" d="M 21 0 L 21 0 Z M 199 -5 C 145 -5 101 19 69 69 C 37 119 21 185 21 267 C 21 352 37 419 71 469 C 105 519 147 544 197 544 C 255 544 298 517 327 464 C 355 410 370 338 370 248 L 112 248 C 112 200 120 159 138 126 C 155 92 181 76 215 76 C 239 76 260 83 276 97 C 292 111 304 124 314 138 L 356 87 C 343 66 323 45 297 25 C 271 5 238 -5 199 -5 Z M 109 312 L 281 312 C 281 362 273 400 259 427 C 244 453 224 467 200 467 C 174 467 153 453 137 427 C 121 401 111 362 109 312 Z M 198 607 L 198 607 Z M 241 607 L 156 607 L 156 725 L 241 725 L 241 607 Z" unicode="ė" />
<glyph horiz-adv-x="395" d="M 59 0 L 59 0 Z M 382 0 L 59 0 L 59 730 L 364 730 L 364 643 L 157 643 L 157 407 L 356 407 L 356 323 L 157 323 L 157 87 L 382 87 L 382 0 Z M 336 -9 L 336 -9 Z M 429 -96 L 456 -135 C 436 -155 414 -171 391 -182 C 368 -193 343 -199 315 -199 C 283 -199 259 -191 241 -177 C 223 -162 215 -143 215 -121 C 215 -96 225 -73 247 -51 C 269 -29 302 -11 346 4 L 381 4 C 351 -10 329 -24 315 -39 C 301 -53 295 -68 295 -84 C 295 -98 299 -109 308 -117 C 317 -125 329 -130 345 -130 C 362 -130 378 -126 392 -120 C 406 -114 418 -106 429 -96 Z" unicode="Ę" />
<glyph horiz-adv-x="387" d="M 21 0 L 21 0 Z M 199 -5 C 145 -5 101 19 69 69 C 37 119 21 185 21 267 C 21 352 37 419 71 469 C 105 519 147 544 197 544 C 255 544 298 517 327 464 C 355 410 370 338 370 248 L 112 248 C 112 200 120 159 138 126 C 155 92 181 76 215 76 C 239 76 260 83 276 97 C 292 111 304 124 314 138 L 356 87 C 343 66 323 45 297 25 C 271 5 238 -5 199 -5 Z M 109 312 L 281 312 C 281 362 273 400 259 427 C 244 453 224 467 200 467 C 174 467 153 453 137 427 C 121 401 111 362 109 312 Z M 208 -9 L 208 -9 Z M 301 -96 L 328 -135 C 308 -155 286 -171 263 -182 C 240 -193 215 -199 187 -199 C 155 -199 131 -191 113 -177 C 95 -162 87 -143 87 -121 C 87 -96 97 -73 119 -51 C 141 -29 174 -11 218 4 L 253 4 C 223 -10 201 -24 187 -39 C 173 -53 167 -68 167 -84 C 167 -98 171 -109 180 -117 C 189 -125 201 -130 217 -130 C 234 -130 250 -126 264 -120 C 278 -114 290 -106 301 -96 Z" unicode="ę" />
<glyph horiz-adv-x="395" d="M 59 0 L 59 0 Z M 382 0 L 59 0 L 59 730 L 364 730 L 364 643 L 157 643 L 157 407 L 356 407 L 356 323 L 157 323 L 157 87 L 382 87 L 382 0 Z M 212 793 L 212 793 Z M 76 964 L 155 964 L 213 862 L 272 964 L 349 964 L 251 793 L 174 793 L 76 964 Z" unicode="Ě" />
<glyph horiz-adv-x="387" d="M 21 0 L 21 0 Z M 199 -5 C 145 -5 101 19 69 69 C 37 119 21 185 21 267 C 21 352 37 419 71 469 C 105 519 147 544 197 544 C 255 544 298 517 327 464 C 355 410 370 338 370 248 L 112 248 C 112 200 120 159 138 126 C 155 92 181 76 215 76 C 239 76 260 83 276 97 C 292 111 304 124 314 138 L 356 87 C 343 66 323 45 297 25 C 271 5 238 -5 199 -5 Z M 109 312 L 281 312 C 281 362 273 400 259 427 C 244 453 224 467 200 467 C 174 467 153 453 137 427 C 121 401 111 362 109 312 Z M 198 603 L 198 603 Z M 62 774 L 141 774 L 199 672 L 258 774 L 335 774 L 237 603 L 160 603 L 62 774 Z" unicode="ě" />
<glyph horiz-adv-x="541" d="M 34 0 L 34 0 Z M 278 363 L 505 363 L 505 117 C 486 80 458 50 421 27 C 384 4 338 -7 284 -7 C 250 -7 217 1 187 18 C 156 34 129 58 107 90 C 84 121 66 160 53 207 C 40 253 34 306 34 365 C 34 421 39 473 51 519 C 63 565 79 604 101 636 C 123 668 149 692 181 710 C 212 727 247 736 285 736 C 343 736 387 723 418 697 C 449 671 472 641 488 605 L 408 552 C 397 579 382 602 363 620 C 344 638 320 648 291 648 C 243 648 204 624 176 578 C 148 532 134 459 134 360 C 134 260 148 188 178 142 C 208 96 243 73 285 73 C 316 73 343 78 365 89 C 387 99 404 116 415 140 L 415 280 L 278 280 L 278 363 Z M 287 793 L 287 793 Z M 424 793 L 345 793 L 287 895 L 228 793 L 151 793 L 249 964 L 326 964 L 424 793 Z" unicode="Ĝ" />
<glyph horiz-adv-x="418" d="M 22 0 L 22 0 Z M 177 12 C 131 12 94 35 65 83 C 36 130 22 194 22 276 C 22 360 37 426 67 474 C 97 521 133 545 177 545 C 208 545 234 535 254 516 C 274 496 288 475 296 451 L 296 540 L 377 540 L 377 9 C 377 -26 371 -57 360 -83 C 349 -109 335 -130 317 -147 C 299 -163 278 -176 255 -184 C 231 -192 208 -197 184 -197 C 150 -197 122 -193 100 -187 C 78 -181 61 -174 50 -167 L 79 -94 C 91 -99 105 -103 121 -107 C 136 -111 155 -113 179 -113 C 211 -113 238 -101 259 -78 C 280 -55 291 -22 291 21 L 291 114 C 283 87 270 63 251 43 C 231 22 207 12 177 12 Z M 206 90 C 232 90 254 104 270 133 C 286 162 294 211 294 281 C 294 347 284 393 266 421 C 247 448 226 462 204 462 C 177 462 156 446 140 416 C 124 386 117 340 117 278 C 117 216 124 170 138 138 C 152 106 175 90 206 90 Z M 205 603 L 205 603 Z M 342 603 L 263 603 L 205 705 L 146 603 L 69 603 L 167 774 L 244 774 L 342 603 Z" unicode="ĝ" />
<glyph horiz-adv-x="541" d="M 34 0 L 34 0 Z M 278 363 L 505 363 L 505 117 C 486 80 458 50 421 27 C 384 4 338 -7 284 -7 C 250 -7 217 1 187 18 C 156 34 129 58 107 90 C 84 121 66 160 53 207 C 40 253 34 306 34 365 C 34 421 39 473 51 519 C 63 565 79 604 101 636 C 123 668 149 692 181 710 C 212 727 247 736 285 736 C 343 736 387 723 418 697 C 449 671 472 641 488 605 L 408 552 C 397 579 382 602 363 620 C 344 638 320 648 291 648 C 243 648 204 624 176 578 C 148 532 134 459 134 360 C 134 260 148 188 178 142 C 208 96 243 73 285 73 C 316 73 343 78 365 89 C 387 99 404 116 415 140 L 415 280 L 278 280 L 278 363 Z M 287 797 L 287 797 Z M 343 955 L 419 955 C 415 900 402 860 378 835 C 354 809 323 797 287 797 C 250 797 220 809 196 835 C 172 860 158 900 156 955 L 232 955 C 233 930 237 910 245 894 C 253 878 267 870 287 870 C 307 870 321 877 329 893 C 337 908 341 929 343 955 Z" unicode="Ğ" />
<glyph horiz-adv-x="418" d="M 22 0 L 22 0 Z M 177 12 C 131 12 94 35 65 83 C 36 130 22 194 22 276 C 22 360 37 426 67 474 C 97 521 133 545 177 545 C 208 545 234 535 254 516 C 274 496 288 475 296 451 L 296 540 L 377 540 L 377 9 C 377 -26 371 -57 360 -83 C 349 -109 335 -130 317 -147 C 299 -163 278 -176 255 -184 C 231 -192 208 -197 184 -197 C 150 -197 122 -193 100 -187 C 78 -181 61 -174 50 -167 L 79 -94 C 91 -99 105 -103 121 -107 C 136 -111 155 -113 179 -113 C 211 -113 238 -101 259 -78 C 280 -55 291 -22 291 21 L 291 114 C 283 87 270 63 251 43 C 231 22 207 12 177 12 Z M 206 90 C 232 90 254 104 270 133 C 286 162 294 211 294 281 C 294 347 284 393 266 421 C 247 448 226 462 204 462 C 177 462 156 446 140 416 C 124 386 117 340 117 278 C 117 216 124 170 138 138 C 152 106 175 90 206 90 Z M 205 607 L 205 607 Z M 261 765 L 337 765 C 333 710 320 670 296 645 C 272 619 241 607 205 607 C 168 607 138 619 114 645 C 90 670 76 710 74 765 L 150 765 C 151 740 155 720 163 704 C 171 688 185 680 205 680 C 225 680 239 687 247 703 C 255 718 259 739 261 765 Z" unicode="ğ" />
<glyph horiz-adv-x="541" d="M 34 0 L 34 0 Z M 278 363 L 505 363 L 505 117 C 486 80 458 50 421 27 C 384 4 338 -7 284 -7 C 250 -7 217 1 187 18 C 156 34 129 58 107 90 C 84 121 66 160 53 207 C 40 253 34 306 34 365 C 34 421 39 473 51 519 C 63 565 79 604 101 636 C 123 668 149 692 181 710 C 212 727 247 736 285 736 C 343 736 387 723 418 697 C 449 671 472 641 488 605 L 408 552 C 397 579 382 602 363 620 C 344 638 320 648 291 648 C 243 648 204 624 176 578 C 148 532 134 459 134 360 C 134 260 148 188 178 142 C 208 96 243 73 285 73 C 316 73 343 78 365 89 C 387 99 404 116 415 140 L 415 280 L 278 280 L 278 363 Z M 287 797 L 287 797 Z M 330 797 L 245 797 L 245 915 L 330 915 L 330 797 Z" unicode="Ġ" />
<glyph horiz-adv-x="418" d="M 22 0 L 22 0 Z M 177 12 C 131 12 94 35 65 83 C 36 130 22 194 22 276 C 22 360 37 426 67 474 C 97 521 133 545 177 545 C 208 545 234 535 254 516 C 274 496 288 475 296 451 L 296 540 L 377 540 L 377 9 C 377 -26 371 -57 360 -83 C 349 -109 335 -130 317 -147 C 299 -163 278 -176 255 -184 C 231 -192 208 -197 184 -197 C 150 -197 122 -193 100 -187 C 78 -181 61 -174 50 -167 L 79 -94 C 91 -99 105 -103 121 -107 C 136 -111 155 -113 179 -113 C 211 -113 238 -101 259 -78 C 280 -55 291 -22 291 21 L 291 114 C 283 87 270 63 251 43 C 231 22 207 12 177 12 Z M 206 90 C 232 90 254 104 270 133 C 286 162 294 211 294 281 C 294 347 284 393 266 421 C 247 448 226 462 204 462 C 177 462 156 446 140 416 C 124 386 117 340 117 278 C 117 216 124 170 138 138 C 152 106 175 90 206 90 Z M 205 607 L 205 607 Z M 248 607 L 163 607 L 163 725 L 248 725 L 248 607 Z" unicode="ġ" />
<glyph horiz-adv-x="541" d="M 34 0 L 34 0 Z M 278 363 L 505 363 L 505 117 C 486 80 458 50 421 27 C 384 4 338 -7 284 -7 C 250 -7 217 1 187 18 C 156 34 129 58 107 90 C 84 121 66 160 53 207 C 40 253 34 306 34 365 C 34 421 39 473 51 519 C 63 565 79 604 101 636 C 123 668 149 692 181 710 C 212 727 247 736 285 736 C 343 736 387 723 418 697 C 449 671 472 641 488 605 L 408 552 C 397 579 382 602 363 620 C 344 638 320 648 291 648 C 243 648 204 624 176 578 C 148 532 134 459 134 360 C 134 260 148 188 178 142 C 208 96 243 73 285 73 C 316 73 343 78 365 89 C 387 99 404 116 415 140 L 415 280 L 278 280 L 278 363 Z M 284 -72 L 284 -72 Z M 367 -72 C 366 -94 363 -117 357 -141 C 351 -165 343 -189 334 -212 C 325 -234 315 -255 304 -274 C 293 -293 282 -309 272 -321 L 201 -289 C 208 -279 216 -265 224 -249 C 232 -233 239 -215 246 -196 C 252 -176 258 -156 263 -135 C 267 -113 270 -92 271 -72 L 367 -72 Z" unicode="Ģ" />
<glyph horiz-adv-x="418" d="M 22 0 L 22 0 Z M 177 12 C 131 12 94 35 65 83 C 36 130 22 194 22 276 C 22 360 37 426 67 474 C 97 521 133 545 177 545 C 208 545 234 535 254 516 C 274 496 288 475 296 451 L 296 540 L 377 540 L 377 9 C 377 -26 371 -57 360 -83 C 349 -109 335 -130 317 -147 C 299 -163 278 -176 255 -184 C 231 -192 208 -197 184 -197 C 150 -197 122 -193 100 -187 C 78 -181 61 -174 50 -167 L 79 -94 C 91 -99 105 -103 121 -107 C 136 -111 155 -113 179 -113 C 211 -113 238 -101 259 -78 C 280 -55 291 -22 291 21 L 291 114 C 283 87 270 63 251 43 C 231 22 207 12 177 12 Z M 206 90 C 232 90 254 104 270 133 C 286 162 294 211 294 281 C 294 347 284 393 266 421 C 247 448 226 462 204 462 C 177 462 156 446 140 416 C 124 386 117 340 117 278 C 117 216 124 170 138 138 C 152 106 175 90 206 90 Z" unicode="ģ" />
<glyph horiz-adv-x="535" d="M 59 0 L 59 0 Z M 475 0 L 375 0 L 375 320 L 159 320 L 159 0 L 59 0 L 59 730 L 159 730 L 159 402 L 375 402 L 375 730 L 475 730 L 475 0 Z M 263 793 L 263 793 Z M 400 793 L 321 793 L 263 895 L 204 793 L 127 793 L 225 964 L 302 964 L 400 793 Z" unicode="Ĥ" />
<glyph horiz-adv-x="402" d="M 40 0 L 40 0 Z M 362 0 L 271 0 L 271 400 C 271 422 265 439 253 450 C 241 461 226 467 207 467 C 186 467 168 460 154 448 C 139 435 132 412 132 379 L 132 0 L 40 0 L 40 800 L 126 800 L 126 475 C 132 495 145 511 163 525 C 181 538 206 545 239 545 C 275 545 305 535 328 517 C 350 498 362 467 362 423 L 362 0 Z M 207 863 L 207 863 Z M 344 863 L 265 863 L 207 965 L 148 863 L 71 863 L 169 1034 L 246 1034 L 344 863 Z" unicode="ĥ" />
<glyph horiz-adv-x="535" d="M 159 320 L 159 0 L 59 0 L 59 542 L 1 542 L 1 622 L 59 622 L 59 730 L 159 730 L 159 622 L 375 622 L 375 730 L 475 730 L 475 622 L 533 622 L 533 542 L 475 542 L 475 0 L 375 0 L 375 320 L 159 320 Z M 159 402 L 375 402 L 375 542 L 159 542 L 159 402 Z" unicode="Ħ" />
<glyph horiz-adv-x="402" d="M 132 379 L 132 0 L 40 0 L 40 623 L 9 623 L 9 703 L 40 703 L 40 800 L 126 800 L 126 703 L 213 703 L 213 623 L 126 623 L 126 475 C 132 495 145 511 163 525 C 181 538 206 545 239 545 C 275 545 305 535 328 517 C 350 498 362 467 362 423 L 362 0 L 271 0 L 271 400 C 271 422 265 439 253 450 C 241 461 226 467 207 467 C 186 467 168 460 154 448 C 139 435 132 412 132 379 Z" unicode="ħ" />
<glyph horiz-adv-x="227" d="M 0 0 L 0 0 Z M 164 0 L 63 0 L 63 730 L 164 730 L 164 0 Z M 113 799 L 113 799 Z M 197 936 L 265 936 C 265 889 258 854 245 832 C 232 810 215 799 195 799 C 177 799 161 802 147 810 C 133 817 122 824 114 830 C 105 836 96 842 88 848 C 79 854 71 857 63 857 C 54 857 47 851 41 841 C 35 830 32 817 32 803 L -38 803 C -38 849 -28 883 -10 906 C 7 928 26 940 46 940 C 60 940 73 936 85 930 C 97 923 108 916 119 908 C 127 901 135 895 143 891 C 151 886 159 884 167 884 C 174 884 181 888 187 897 C 193 906 197 919 197 936 Z" unicode="Ĩ" />
<glyph horiz-adv-x="177" d="M 0 0 L 0 0 Z M 134 0 L 43 0 L 43 540 L 134 540 L 134 0 Z M 87 609 L 87 609 Z M 171 746 L 239 746 C 239 699 232 664 219 642 C 206 620 189 609 169 609 C 151 609 135 612 121 620 C 107 627 96 634 88 640 C 79 646 70 652 62 658 C 53 664 45 667 37 667 C 28 667 21 661 15 651 C 9 640 6 627 6 613 L -64 613 C -64 659 -54 693 -36 716 C -18 738 0 750 20 750 C 34 750 47 746 59 740 C 71 733 82 726 93 718 C 101 711 109 705 117 701 C 125 696 133 694 141 694 C 148 694 155 698 161 707 C 167 716 171 729 171 746 Z" unicode="ĩ" />
<glyph horiz-adv-x="227" d="M 0 0 L 0 0 Z M 164 0 L 63 0 L 63 730 L 164 730 L 164 0 Z M 113 808 L 113 808 Z M 234 808 L -8 808 L -8 885 L 234 885 L 234 808 Z" unicode="Ī" />
<glyph horiz-adv-x="177" d="M 0 0 L 0 0 Z M 134 0 L 43 0 L 43 540 L 134 540 L 134 0 Z M 87 618 L 87 618 Z M 208 618 L -34 618 L -34 695 L 208 695 L 208 618 Z" unicode="ī" />
<glyph horiz-adv-x="227" d="M 0 0 L 0 0 Z M 164 0 L 63 0 L 63 730 L 164 730 L 164 0 Z M 113 797 L 113 797 Z M 169 955 L 245 955 C 241 900 228 860 204 835 C 180 809 149 797 113 797 C 76 797 46 809 22 835 C -2 860 -15 900 -18 955 L 58 955 C 59 930 63 910 71 894 C 79 878 93 870 113 870 C 133 870 147 877 155 893 C 163 908 167 929 169 955 Z" unicode="Ĭ" />
<glyph horiz-adv-x="177" d="M 0 0 L 0 0 Z M 134 0 L 43 0 L 43 540 L 134 540 L 134 0 Z M 87 607 L 87 607 Z M 143 765 L 219 765 C 215 710 202 670 178 645 C 154 619 123 607 87 607 C 50 607 20 619 -4 645 C -28 670 -41 710 -44 765 L 32 765 C 33 740 37 720 45 704 C 53 688 67 680 87 680 C 107 680 121 687 129 703 C 137 718 141 739 143 765 Z" unicode="ĭ" />
<glyph horiz-adv-x="227" d="M 0 0 L 0 0 Z M 164 0 L 63 0 L 63 730 L 164 730 L 164 0 Z M 65 -9 L 65 -9 Z M 158 -96 L 185 -135 C 165 -155 143 -171 120 -182 C 97 -193 72 -199 44 -199 C 12 -199 -11 -191 -29 -177 C -47 -162 -56 -143 -56 -121 C -56 -96 -45 -73 -23 -51 C -1 -29 31 -11 75 4 L 110 4 C 80 -10 58 -24 44 -39 C 30 -53 24 -68 24 -84 C 24 -98 28 -109 37 -117 C 46 -125 58 -130 74 -130 C 91 -130 107 -126 121 -120 C 135 -114 147 -106 158 -96 Z" unicode="Į" />
<glyph horiz-adv-x="177" d="M 0 0 L 0 0 Z M 41 620 L 41 705 L 136 705 L 136 620 L 41 620 Z M 43 0 L 43 540 L 134 540 L 134 0 L 43 0 Z M 33 -9 L 33 -9 Z M 126 -96 L 153 -135 C 133 -155 111 -171 88 -182 C 65 -193 40 -199 12 -199 C -19 -199 -43 -191 -61 -177 C -79 -162 -88 -143 -88 -121 C -88 -96 -77 -73 -55 -51 C -33 -29 -1 -11 43 4 L 78 4 C 48 -10 26 -24 12 -39 C -1 -53 -8 -68 -8 -84 C -8 -98 -3 -109 5 -117 C 14 -125 26 -130 42 -130 C 59 -130 75 -126 89 -120 C 103 -114 115 -106 126 -96 Z" unicode="į" />
<glyph horiz-adv-x="227" d="M 63 0 L 63 0 Z M 164 0 L 63 0 L 63 730 L 164 730 L 164 0 Z M 113 797 L 113 797 Z M 156 797 L 71 797 L 71 915 L 156 915 L 156 797 Z" unicode="İ" />
<glyph horiz-adv-x="177" d="M 134 0 L 43 0 L 43 540 L 134 540 L 134 0 Z" unicode="ı" />
<glyph horiz-adv-x="487" d="M 63 0 L 63 0 Z M 164 0 L 63 0 L 63 730 L 164 730 L 164 0 Z M 442 730 L 442 182 C 442 127 427 82 397 46 C 367 10 326 -8 272 -8 C 259 -8 245 -6 230 -3 C 214 0 203 3 195 9 L 215 90 C 219 87 226 85 235 84 C 243 82 252 82 261 82 C 287 82 307 93 321 117 C 335 140 342 168 342 201 L 342 730 L 442 730 Z" unicode="Ĳ" />
<glyph horiz-adv-x="350" d="M 41 0 L 41 0 Z M 41 620 L 41 705 L 136 705 L 136 620 L 41 620 Z M 43 0 L 43 540 L 134 540 L 134 0 L 43 0 Z M 309 620 L 215 620 L 215 705 L 309 705 L 309 620 Z M 307 540 L 307 -62 C 307 -90 297 -114 278 -134 C 258 -153 233 -163 202 -163 C 183 -163 167 -159 153 -153 C 139 -146 131 -140 128 -136 L 158 -78 C 160 -79 164 -80 170 -82 C 175 -84 181 -85 188 -85 C 196 -85 203 -82 209 -76 C 214 -70 217 -62 217 -53 L 217 540 L 307 540 Z" unicode="ĳ" />
<glyph horiz-adv-x="288" d="M 0 0 L 0 0 Z M 231 730 L 231 182 C 231 127 216 82 186 46 C 156 10 115 -8 61 -8 C 48 -8 34 -6 19 -3 C 3 0 -8 3 -16 9 L 4 90 C 8 87 15 85 24 84 C 32 82 41 82 50 82 C 76 82 96 93 110 117 C 124 140 131 168 131 201 L 131 730 L 231 730 Z M 181 793 L 181 793 Z M 318 793 L 239 793 L 181 895 L 122 793 L 45 793 L 143 964 L 220 964 L 318 793 Z" unicode="Ĵ" />
<glyph horiz-adv-x="179" d="M 0 0 L 0 0 Z M 136 540 L 136 -63 C 136 -94 125 -120 103 -141 C 81 -162 54 -173 22 -173 C 4 -173 -11 -169 -25 -163 C -39 -157 -47 -151 -51 -147 L -21 -89 C -18 -90 -14 -91 -9 -93 C -3 -94 2 -95 9 -95 C 18 -95 26 -91 34 -84 C 42 -76 46 -66 46 -54 L 46 540 L 136 540 Z M 92 603 L 92 603 Z M 229 603 L 150 603 L 92 705 L 33 603 L -44 603 L 54 774 L 131 774 L 229 603 Z" unicode="ĵ" />
<glyph horiz-adv-x="493" d="M 59 0 L 59 0 Z M 503 0 L 393 0 L 192 311 L 160 271 L 160 0 L 59 0 L 59 730 L 160 730 L 160 406 L 379 730 L 481 730 L 251 400 L 503 0 Z M 254 -72 L 254 -72 Z M 337 -72 C 336 -94 333 -117 327 -141 C 321 -165 313 -189 304 -212 C 295 -234 285 -255 274 -274 C 263 -293 252 -309 242 -321 L 171 -289 C 178 -279 186 -265 194 -249 C 202 -233 209 -215 216 -196 C 222 -176 228 -156 233 -135 C 237 -113 240 -92 241 -72 L 337 -72 Z" unicode="Ķ" />
<glyph horiz-adv-x="370" d="M 40 0 L 40 0 Z M 379 0 L 283 0 L 176 222 L 132 151 L 132 0 L 40 0 L 40 800 L 126 800 L 126 264 L 274 540 L 369 540 L 234 299 L 379 0 Z M 187 -72 L 187 -72 Z M 270 -72 C 269 -94 266 -117 260 -141 C 254 -165 246 -189 237 -212 C 228 -234 218 -255 207 -274 C 196 -293 185 -309 175 -321 L 104 -289 C 111 -279 119 -265 127 -249 C 135 -233 142 -215 149 -196 C 155 -176 161 -156 166 -135 C 170 -113 173 -92 174 -72 L 270 -72 Z" unicode="ķ" />
<glyph horiz-adv-x="370" d="M 379 0 L 283 0 L 176 222 L 132 151 L 132 0 L 40 0 L 40 540 L 126 540 L 126 264 L 274 540 L 369 540 L 234 299 L 379 0 Z" unicode="ĸ" />
<glyph horiz-adv-x="359" d="M 59 0 L 59 0 Z M 352 0 L 59 0 L 59 730 L 159 730 L 159 87 L 352 87 L 352 0 Z M 250 792 L 250 792 Z M 155 792 L 240 964 L 345 964 L 243 792 L 155 792 Z" unicode="Ĺ" />
<glyph horiz-adv-x="199" d="M 39 0 L 39 0 Z M 39 103 L 39 800 L 131 800 L 131 120 C 131 105 134 94 140 88 C 146 82 155 79 167 79 C 171 79 175 79 179 80 C 183 80 186 81 189 82 L 203 7 C 196 4 188 1 178 -1 C 168 -3 157 -5 143 -5 C 113 -5 89 4 69 22 C 49 40 39 67 39 103 Z M 141 862 L 141 862 Z M 46 862 L 131 1034 L 236 1034 L 134 862 L 46 862 Z" unicode="ĺ" />
<glyph horiz-adv-x="359" d="M 59 0 L 59 0 Z M 352 0 L 59 0 L 59 730 L 159 730 L 159 87 L 352 87 L 352 0 Z M 200 -72 L 200 -72 Z M 283 -72 C 282 -94 279 -117 273 -141 C 267 -165 259 -189 250 -212 C 241 -234 231 -255 220 -274 C 209 -293 198 -309 188 -321 L 117 -289 C 124 -279 132 -265 140 -249 C 148 -233 155 -215 162 -196 C 168 -176 174 -156 179 -135 C 183 -113 186 -92 187 -72 L 283 -72 Z" unicode="Ļ" />
<glyph horiz-adv-x="199" d="M 19 0 L 19 0 Z M 39 103 L 39 800 L 131 800 L 131 120 C 131 105 134 94 140 88 C 146 82 155 79 167 79 C 171 79 175 79 179 80 C 183 80 186 81 189 82 L 203 7 C 196 4 188 1 178 -1 C 168 -3 157 -5 143 -5 C 113 -5 89 4 69 22 C 49 40 39 67 39 103 Z M 102 -72 L 102 -72 Z M 185 -72 C 184 -94 181 -117 175 -141 C 169 -165 161 -189 152 -212 C 143 -234 133 -255 122 -274 C 111 -293 100 -309 90 -321 L 19 -289 C 26 -279 34 -265 42 -249 C 50 -233 57 -215 64 -196 C 70 -176 76 -156 81 -135 C 85 -113 88 -92 89 -72 L 185 -72 Z" unicode="ļ" />
<glyph horiz-adv-x="359" d="M 59 0 L 59 0 Z M 352 0 L 59 0 L 59 730 L 159 730 L 159 87 L 352 87 L 352 0 Z M 381 621 L 377 483 L 299 483 L 294 621 L 294 730 L 381 730 L 381 621 Z" unicode="Ľ" />
<glyph horiz-adv-x="199" d="M 39 0 L 39 0 Z M 39 103 L 39 800 L 131 800 L 131 120 C 131 105 134 94 140 88 C 146 82 155 79 167 79 C 171 79 175 79 179 80 C 183 80 186 81 189 82 L 203 7 C 196 4 188 1 178 -1 C 168 -3 157 -5 143 -5 C 113 -5 89 4 69 22 C 49 40 39 67 39 103 Z M 247 621 L 243 483 L 165 483 L 160 621 L 160 730 L 247 730 L 247 621 Z" unicode="ľ" />
<glyph horiz-adv-x="359" d="M 59 0 L 59 0 Z M 352 0 L 59 0 L 59 730 L 159 730 L 159 87 L 352 87 L 352 0 Z M 269 297 L 269 297 Z M 312 297 L 227 297 L 227 415 L 312 415 L 312 297 Z" unicode="Ŀ" />
<glyph horiz-adv-x="199" d="M 39 0 L 39 0 Z M 39 103 L 39 800 L 131 800 L 131 120 C 131 105 134 94 140 88 C 146 82 155 79 167 79 C 171 79 175 79 179 80 C 183 80 186 81 189 82 L 203 7 C 196 4 188 1 178 -1 C 168 -3 157 -5 143 -5 C 113 -5 89 4 69 22 C 49 40 39 67 39 103 Z M 203 248 L 203 248 Z M 246 248 L 161 248 L 161 366 L 246 366 L 246 248 Z" unicode="ŀ" />
<glyph horiz-adv-x="359" d="M 352 82 L 352 0 L 59 0 L 59 257 L 21 240 L -14 316 L 59 348 L 59 730 L 159 730 L 159 391 L 291 448 L 325 373 L 159 300 L 159 82 L 352 82 Z" unicode="Ł" />
<glyph horiz-adv-x="199" d="M 212 7 C 206 4 199 1 189 -1 C 179 -3 168 -5 156 -5 C 127 -5 103 4 84 22 C 65 40 56 67 56 103 L 56 257 L 17 238 L -13 311 L 56 344 L 56 800 L 146 800 L 146 388 L 199 413 L 231 340 L 146 299 L 146 123 C 146 107 148 95 154 89 C 159 82 167 79 178 79 C 181 79 184 79 188 79 C 191 79 194 80 197 81 L 212 7 Z" unicode="ł" />
<glyph horiz-adv-x="534" d="M 59 0 L 59 0 Z M 475 0 L 404 0 L 153 494 L 153 0 L 59 0 L 59 730 L 130 730 L 384 231 L 384 730 L 475 730 L 475 0 Z M 268 792 L 268 792 Z M 173 792 L 258 964 L 363 964 L 261 792 L 173 792 Z" unicode="Ń" />
<glyph horiz-adv-x="402" d="M 40 0 L 40 0 Z M 362 0 L 271 0 L 271 400 C 271 422 265 438 254 450 C 242 461 227 467 207 467 C 186 467 168 460 154 448 C 139 435 132 412 132 379 L 132 0 L 40 0 L 40 540 L 118 540 L 118 467 C 126 489 141 508 161 523 C 181 537 208 545 242 545 C 278 545 307 535 329 517 C 351 499 362 470 362 430 L 362 0 Z M 202 602 L 202 602 Z M 107 602 L 192 774 L 297 774 L 195 602 L 107 602 Z" unicode="ń" />
<glyph horiz-adv-x="534" d="M 59 0 L 59 0 Z M 475 0 L 404 0 L 153 494 L 153 0 L 59 0 L 59 730 L 130 730 L 384 231 L 384 730 L 475 730 L 475 0 Z M 252 -72 L 252 -72 Z M 335 -72 C 334 -94 331 -117 325 -141 C 319 -165 311 -189 302 -212 C 293 -234 283 -255 272 -274 C 261 -293 250 -309 240 -321 L 169 -289 C 176 -279 184 -265 192 -249 C 200 -233 207 -215 214 -196 C 220 -176 226 -156 231 -135 C 235 -113 238 -92 239 -72 L 335 -72 Z" unicode="Ņ" />
<glyph horiz-adv-x="402" d="M 40 0 L 40 0 Z M 362 0 L 271 0 L 271 400 C 271 422 265 438 254 450 C 242 461 227 467 207 467 C 186 467 168 460 154 448 C 139 435 132 412 132 379 L 132 0 L 40 0 L 40 540 L 118 540 L 118 467 C 126 489 141 508 161 523 C 181 537 208 545 242 545 C 278 545 307 535 329 517 C 351 499 362 470 362 430 L 362 0 Z M 183 -72 L 183 -72 Z M 266 -72 C 265 -94 262 -117 256 -141 C 250 -165 242 -189 233 -212 C 224 -234 214 -255 203 -274 C 192 -293 181 -309 171 -321 L 100 -289 C 107 -279 115 -265 123 -249 C 131 -233 138 -215 145 -196 C 151 -176 157 -156 162 -135 C 166 -113 169 -92 170 -72 L 266 -72 Z" unicode="ņ" />
<glyph horiz-adv-x="534" d="M 59 0 L 59 0 Z M 475 0 L 404 0 L 153 494 L 153 0 L 59 0 L 59 730 L 130 730 L 384 231 L 384 730 L 475 730 L 475 0 Z M 268 793 L 268 793 Z M 132 964 L 211 964 L 269 862 L 328 964 L 405 964 L 307 793 L 230 793 L 132 964 Z" unicode="Ň" />
<glyph horiz-adv-x="402" d="M 40 0 L 40 0 Z M 362 0 L 271 0 L 271 400 C 271 422 265 438 254 450 C 242 461 227 467 207 467 C 186 467 168 460 154 448 C 139 435 132 412 132 379 L 132 0 L 40 0 L 40 540 L 118 540 L 118 467 C 126 489 141 508 161 523 C 181 537 208 545 242 545 C 278 545 307 535 329 517 C 351 499 362 470 362 430 L 362 0 Z M 202 603 L 202 603 Z M 66 774 L 145 774 L 203 672 L 262 774 L 339 774 L 241 603 L 164 603 L 66 774 Z" unicode="ň" />
<glyph horiz-adv-x="534" d="M 384 730 L 475 730 L 475 -6 C 475 -60 460 -106 430 -142 C 400 -178 358 -196 304 -196 C 291 -196 277 -194 262 -191 C 246 -188 235 -184 228 -179 L 247 -98 C 251 -100 258 -102 267 -104 C 275 -105 284 -106 293 -106 C 319 -106 340 -94 358 -71 C 375 -47 384 -19 384 13 L 384 39 L 153 494 L 153 0 L 59 0 L 59 730 L 130 730 L 384 231 L 384 730 Z" unicode="Ŋ" />
<glyph horiz-adv-x="402" d="M 242 545 C 278 545 307 535 329 517 C 351 499 362 470 362 430 L 362 -18 C 362 -70 348 -113 321 -147 C 294 -180 255 -197 205 -197 C 193 -197 180 -195 166 -192 C 152 -189 141 -185 134 -181 L 154 -100 C 158 -102 163 -104 171 -105 C 179 -106 186 -107 194 -107 C 217 -107 236 -96 250 -76 C 264 -55 271 -29 271 2 L 271 400 C 271 422 265 438 254 450 C 242 461 227 467 207 467 C 186 467 168 460 154 448 C 139 435 132 412 132 379 L 132 0 L 40 0 L 40 540 L 118 540 L 118 467 C 126 489 141 508 161 523 C 181 537 208 545 242 545 Z" unicode="ŋ" />
<glyph horiz-adv-x="571" d="M 34 0 L 34 0 Z M 288 -7 C 207 -7 144 25 100 90 C 56 154 34 248 34 371 C 34 485 56 575 101 640 C 146 704 207 737 283 737 C 364 737 427 705 471 641 C 515 577 537 485 537 365 C 537 248 514 157 468 91 C 422 25 362 -7 288 -7 Z M 286 73 C 332 73 368 97 395 145 C 421 193 435 269 435 372 C 435 467 421 538 394 586 C 366 633 330 657 284 657 C 236 657 200 633 175 586 C 149 539 137 465 137 365 C 137 262 150 188 178 142 C 205 96 241 73 286 73 Z M 285 808 L 285 808 Z M 406 808 L 164 808 L 164 885 L 406 885 L 406 808 Z" unicode="Ō" />
<glyph horiz-adv-x="400" d="M 21 0 L 21 0 Z M 201 -5 C 149 -5 106 17 72 63 C 38 109 21 177 21 269 C 21 354 37 421 69 471 C 101 520 143 545 195 545 C 251 545 295 522 329 477 C 363 431 380 367 380 284 C 380 194 364 124 332 72 C 300 20 256 -5 201 -5 Z M 202 75 C 228 75 249 90 263 121 C 277 152 285 203 285 274 C 285 343 277 392 262 421 C 247 449 226 464 198 464 C 172 464 151 449 137 420 C 122 391 115 342 115 274 C 115 199 122 147 138 118 C 154 89 175 75 202 75 Z M 201 618 L 201 618 Z M 322 618 L 80 618 L 80 695 L 322 695 L 322 618 Z" unicode="ō" />
<glyph horiz-adv-x="571" d="M 34 0 L 34 0 Z M 288 -7 C 207 -7 144 25 100 90 C 56 154 34 248 34 371 C 34 485 56 575 101 640 C 146 704 207 737 283 737 C 364 737 427 705 471 641 C 515 577 537 485 537 365 C 537 248 514 157 468 91 C 422 25 362 -7 288 -7 Z M 286 73 C 332 73 368 97 395 145 C 421 193 435 269 435 372 C 435 467 421 538 394 586 C 366 633 330 657 284 657 C 236 657 200 633 175 586 C 149 539 137 465 137 365 C 137 262 150 188 178 142 C 205 96 241 73 286 73 Z M 285 797 L 285 797 Z M 341 955 L 417 955 C 413 900 400 860 376 835 C 352 809 321 797 285 797 C 248 797 218 809 194 835 C 170 860 156 900 154 955 L 230 955 C 231 930 235 910 243 894 C 251 878 265 870 285 870 C 305 870 319 877 327 893 C 335 908 339 929 341 955 Z" unicode="Ŏ" />
<glyph horiz-adv-x="400" d="M 21 0 L 21 0 Z M 201 -5 C 149 -5 106 17 72 63 C 38 109 21 177 21 269 C 21 354 37 421 69 471 C 101 520 143 545 195 545 C 251 545 295 522 329 477 C 363 431 380 367 380 284 C 380 194 364 124 332 72 C 300 20 256 -5 201 -5 Z M 202 75 C 228 75 249 90 263 121 C 277 152 285 203 285 274 C 285 343 277 392 262 421 C 247 449 226 464 198 464 C 172 464 151 449 137 420 C 122 391 115 342 115 274 C 115 199 122 147 138 118 C 154 89 175 75 202 75 Z M 201 607 L 201 607 Z M 257 765 L 333 765 C 329 710 316 670 292 645 C 268 619 237 607 201 607 C 164 607 134 619 110 645 C 86 670 72 710 70 765 L 146 765 C 147 740 151 720 159 704 C 167 688 181 680 201 680 C 221 680 235 687 243 703 C 251 718 255 739 257 765 Z" unicode="ŏ" />
<glyph horiz-adv-x="571" d="M 34 0 L 34 0 Z M 288 -7 C 207 -7 144 25 100 90 C 56 154 34 248 34 371 C 34 485 56 575 101 640 C 146 704 207 737 283 737 C 364 737 427 705 471 641 C 515 577 537 485 537 365 C 537 248 514 157 468 91 C 422 25 362 -7 288 -7 Z M 286 73 C 332 73 368 97 395 145 C 421 193 435 269 435 372 C 435 467 421 538 394 586 C 366 633 330 657 284 657 C 236 657 200 633 175 586 C 149 539 137 465 137 365 C 137 262 150 188 178 142 C 205 96 241 73 286 73 Z M 285 792 L 285 792 Z M 120 792 L 183 952 L 281 952 L 201 792 L 120 792 Z M 289 792 L 353 952 L 451 952 L 370 792 L 289 792 Z" unicode="Ő" />
<glyph horiz-adv-x="400" d="M 21 0 L 21 0 Z M 201 -5 C 149 -5 106 17 72 63 C 38 109 21 177 21 269 C 21 354 37 421 69 471 C 101 520 143 545 195 545 C 251 545 295 522 329 477 C 363 431 380 367 380 284 C 380 194 364 124 332 72 C 300 20 256 -5 201 -5 Z M 202 75 C 228 75 249 90 263 121 C 277 152 285 203 285 274 C 285 343 277 392 262 421 C 247 449 226 464 198 464 C 172 464 151 449 137 420 C 122 391 115 342 115 274 C 115 199 122 147 138 118 C 154 89 175 75 202 75 Z M 201 602 L 201 602 Z M 36 602 L 99 762 L 197 762 L 117 602 L 36 602 Z M 205 602 L 269 762 L 367 762 L 286 602 L 205 602 Z" unicode="ő" />
<glyph horiz-adv-x="752" d="M 262 -7 C 192 -7 137 25 96 90 C 54 154 34 248 34 371 C 34 485 54 575 96 640 C 138 704 192 737 259 737 C 306 737 342 724 368 698 C 394 672 410 643 417 611 L 417 730 L 722 730 L 722 643 L 514 643 L 514 407 L 713 407 L 713 323 L 514 323 L 514 87 L 739 87 L 739 0 L 417 0 L 417 126 C 413 110 407 94 399 78 C 390 62 379 47 366 35 C 353 22 338 12 320 4 C 302 -3 283 -7 262 -7 Z M 277 67 C 321 67 355 91 380 141 C 405 190 418 267 418 372 C 418 470 405 543 379 591 C 353 639 319 663 275 663 C 229 663 195 639 171 591 C 147 543 136 468 136 365 C 136 260 148 184 174 137 C 199 90 233 67 277 67 Z" unicode="Œ" />
<glyph horiz-adv-x="647" d="M 201 -5 C 149 -5 106 17 72 63 C 38 109 21 177 21 269 C 21 354 37 421 69 471 C 101 520 143 545 195 545 C 233 545 265 532 289 506 C 313 480 327 449 331 412 C 334 448 348 479 372 505 C 396 531 425 544 461 544 C 515 544 556 518 585 467 C 614 415 629 342 629 248 L 372 248 C 372 200 380 159 397 126 C 414 92 439 76 473 76 C 497 76 518 82 535 94 C 552 106 566 120 577 134 L 618 83 C 605 63 586 43 560 24 C 534 4 504 -5 468 -5 C 425 -5 392 7 370 32 C 347 56 334 86 330 120 C 323 86 309 56 289 32 C 268 7 239 -5 201 -5 Z M 369 312 L 542 312 C 542 361 534 399 518 426 C 502 453 482 467 458 467 C 432 467 412 453 396 426 C 380 399 371 361 369 312 Z M 202 74 C 228 74 249 89 263 121 C 277 152 285 203 285 274 C 285 343 277 392 262 421 C 247 449 226 464 198 464 C 172 464 151 449 137 420 C 122 390 115 342 115 274 C 115 198 122 146 138 117 C 154 88 175 74 202 74 Z" unicode="œ" />
<glyph horiz-adv-x="462" d="M 59 0 L 59 0 Z M 59 0 L 59 730 L 218 730 C 272 730 316 713 352 680 C 388 646 406 596 406 528 C 406 474 394 429 370 393 C 346 357 317 337 281 333 L 279 328 L 461 0 L 359 0 L 194 307 L 151 307 L 151 0 L 59 0 Z M 151 389 L 205 389 C 237 389 263 400 283 424 C 303 447 314 479 314 519 C 314 563 303 596 282 617 C 260 637 235 648 207 648 L 151 648 L 151 389 Z M 218 792 L 218 792 Z M 123 792 L 208 964 L 313 964 L 211 792 L 123 792 Z" unicode="Ŕ" />
<glyph horiz-adv-x="296" d="M 40 0 L 40 0 Z M 300 515 L 269 438 C 259 448 250 454 242 457 C 233 460 223 462 211 462 C 195 462 177 454 159 440 C 141 426 132 397 132 353 L 132 0 L 40 0 L 40 540 L 129 540 L 129 466 C 135 486 147 505 164 521 C 180 537 200 545 223 545 C 240 545 255 541 269 535 C 282 529 292 522 300 515 Z M 178 602 L 178 602 Z M 83 602 L 168 774 L 273 774 L 171 602 L 83 602 Z" unicode="ŕ" />
<glyph horiz-adv-x="462" d="M 59 0 L 59 0 Z M 59 0 L 59 730 L 218 730 C 272 730 316 713 352 680 C 388 646 406 596 406 528 C 406 474 394 429 370 393 C 346 357 317 337 281 333 L 279 328 L 461 0 L 359 0 L 194 307 L 151 307 L 151 0 L 59 0 Z M 151 389 L 205 389 C 237 389 263 400 283 424 C 303 447 314 479 314 519 C 314 563 303 596 282 617 C 260 637 235 648 207 648 L 151 648 L 151 389 Z M 224 -72 L 224 -72 Z M 307 -72 C 306 -94 303 -117 297 -141 C 291 -165 283 -189 274 -212 C 265 -234 255 -255 244 -274 C 233 -293 222 -309 212 -321 L 141 -289 C 148 -279 156 -265 164 -249 C 172 -233 179 -215 186 -196 C 192 -176 198 -156 203 -135 C 207 -113 210 -92 211 -72 L 307 -72 Z" unicode="Ŗ" />
<glyph horiz-adv-x="296" d="M 40 0 L 40 0 Z M 300 515 L 269 438 C 259 448 250 454 242 457 C 233 460 223 462 211 462 C 195 462 177 454 159 440 C 141 426 132 397 132 353 L 132 0 L 40 0 L 40 540 L 129 540 L 129 466 C 135 486 147 505 164 521 C 180 537 200 545 223 545 C 240 545 255 541 269 535 C 282 529 292 522 300 515 Z M 158 -72 L 158 -72 Z M 241 -72 C 240 -94 237 -117 231 -141 C 225 -165 217 -189 208 -212 C 199 -234 189 -255 178 -274 C 167 -293 156 -309 146 -321 L 75 -289 C 82 -279 90 -265 98 -249 C 106 -233 113 -215 120 -196 C 126 -176 132 -156 137 -135 C 141 -113 144 -92 145 -72 L 241 -72 Z" unicode="ŗ" />
<glyph horiz-adv-x="462" d="M 59 0 L 59 0 Z M 59 0 L 59 730 L 218 730 C 272 730 316 713 352 680 C 388 646 406 596 406 528 C 406 474 394 429 370 393 C 346 357 317 337 281 333 L 279 328 L 461 0 L 359 0 L 194 307 L 151 307 L 151 0 L 59 0 Z M 151 389 L 205 389 C 237 389 263 400 283 424 C 303 447 314 479 314 519 C 314 563 303 596 282 617 C 260 637 235 648 207 648 L 151 648 L 151 389 Z M 218 793 L 218 793 Z M 82 964 L 161 964 L 219 862 L 278 964 L 355 964 L 257 793 L 180 793 L 82 964 Z" unicode="Ř" />
<glyph horiz-adv-x="296" d="M 40 0 L 40 0 Z M 300 515 L 269 438 C 259 448 250 454 242 457 C 233 460 223 462 211 462 C 195 462 177 454 159 440 C 141 426 132 397 132 353 L 132 0 L 40 0 L 40 540 L 129 540 L 129 466 C 135 486 147 505 164 521 C 180 537 200 545 223 545 C 240 545 255 541 269 535 C 282 529 292 522 300 515 Z M 178 603 L 178 603 Z M 42 774 L 121 774 L 179 672 L 238 774 L 315 774 L 217 603 L 140 603 L 42 774 Z" unicode="ř" />
<glyph horiz-adv-x="411" d="M 17 0 L 17 0 Z M 206 -7 C 167 -7 132 0 101 13 C 69 26 41 49 17 82 L 83 141 C 97 117 115 99 137 87 C 159 75 180 70 201 70 C 226 70 248 79 268 98 C 288 117 298 143 298 176 C 298 210 289 237 272 259 C 254 281 223 306 179 335 C 134 363 99 395 74 429 C 49 463 37 508 37 564 C 37 590 41 614 51 636 C 60 657 72 675 88 690 C 104 705 122 717 144 725 C 166 733 189 737 213 737 C 252 737 284 730 310 716 C 336 702 356 687 371 670 L 312 609 C 300 621 286 632 269 641 C 252 649 233 654 213 654 C 191 654 171 645 153 629 C 135 613 126 589 126 559 C 126 529 134 504 150 484 C 165 464 196 440 243 412 C 296 380 333 346 354 311 C 374 275 385 232 385 182 C 385 151 380 124 370 100 C 360 76 346 57 330 41 C 313 25 294 13 272 5 C 250 -3 228 -7 206 -7 Z M 208 792 L 208 792 Z M 113 792 L 198 964 L 303 964 L 201 792 L 113 792 Z" unicode="Ś" />
<glyph horiz-adv-x="311" d="M 13 0 L 13 0 Z M 161 -5 C 129 -5 99 1 73 15 C 47 28 27 46 13 68 L 62 132 C 72 113 85 99 100 89 C 114 79 130 75 148 75 C 164 75 178 80 192 92 C 205 103 212 120 212 143 C 212 165 204 183 189 197 C 173 211 153 227 127 245 C 98 264 75 286 57 310 C 39 334 31 368 31 410 C 31 447 43 479 67 505 C 91 531 122 545 160 545 C 186 545 210 540 231 532 C 252 523 269 512 283 500 L 248 422 C 239 431 227 440 213 449 C 198 458 183 463 169 463 C 152 463 137 458 125 449 C 113 440 107 427 107 409 C 107 390 113 375 126 365 C 138 354 159 338 188 318 C 222 293 248 267 265 241 C 281 215 290 180 290 138 C 290 112 286 91 278 73 C 270 55 259 40 247 28 C 234 16 220 8 205 3 C 189 -2 175 -5 161 -5 Z M 159 602 L 159 602 Z M 64 602 L 149 774 L 254 774 L 152 602 L 64 602 Z" unicode="ś" />
<glyph horiz-adv-x="411" d="M 17 0 L 17 0 Z M 206 -7 C 167 -7 132 0 101 13 C 69 26 41 49 17 82 L 83 141 C 97 117 115 99 137 87 C 159 75 180 70 201 70 C 226 70 248 79 268 98 C 288 117 298 143 298 176 C 298 210 289 237 272 259 C 254 281 223 306 179 335 C 134 363 99 395 74 429 C 49 463 37 508 37 564 C 37 590 41 614 51 636 C 60 657 72 675 88 690 C 104 705 122 717 144 725 C 166 733 189 737 213 737 C 252 737 284 730 310 716 C 336 702 356 687 371 670 L 312 609 C 300 621 286 632 269 641 C 252 649 233 654 213 654 C 191 654 171 645 153 629 C 135 613 126 589 126 559 C 126 529 134 504 150 484 C 165 464 196 440 243 412 C 296 380 333 346 354 311 C 374 275 385 232 385 182 C 385 151 380 124 370 100 C 360 76 346 57 330 41 C 313 25 294 13 272 5 C 250 -3 228 -7 206 -7 Z M 208 793 L 208 793 Z M 345 793 L 266 793 L 208 895 L 149 793 L 72 793 L 170 964 L 247 964 L 345 793 Z" unicode="Ŝ" />
<glyph horiz-adv-x="311" d="M 13 0 L 13 0 Z M 161 -5 C 129 -5 99 1 73 15 C 47 28 27 46 13 68 L 62 132 C 72 113 85 99 100 89 C 114 79 130 75 148 75 C 164 75 178 80 192 92 C 205 103 212 120 212 143 C 212 165 204 183 189 197 C 173 211 153 227 127 245 C 98 264 75 286 57 310 C 39 334 31 368 31 410 C 31 447 43 479 67 505 C 91 531 122 545 160 545 C 186 545 210 540 231 532 C 252 523 269 512 283 500 L 248 422 C 239 431 227 440 213 449 C 198 458 183 463 169 463 C 152 463 137 458 125 449 C 113 440 107 427 107 409 C 107 390 113 375 126 365 C 138 354 159 338 188 318 C 222 293 248 267 265 241 C 281 215 290 180 290 138 C 290 112 286 91 278 73 C 270 55 259 40 247 28 C 234 16 220 8 205 3 C 189 -2 175 -5 161 -5 Z M 159 603 L 159 603 Z M 296 603 L 217 603 L 159 705 L 100 603 L 23 603 L 121 774 L 198 774 L 296 603 Z" unicode="ŝ" />
<glyph horiz-adv-x="411" d="M 17 0 L 17 0 Z M 206 -7 C 167 -7 132 0 101 13 C 69 26 41 49 17 82 L 83 141 C 97 117 115 99 137 87 C 159 75 180 70 201 70 C 226 70 248 79 268 98 C 288 117 298 143 298 176 C 298 210 289 237 272 259 C 254 281 223 306 179 335 C 134 363 99 395 74 429 C 49 463 37 508 37 564 C 37 590 41 614 51 636 C 60 657 72 675 88 690 C 104 705 122 717 144 725 C 166 733 189 737 213 737 C 252 737 284 730 310 716 C 336 702 356 687 371 670 L 312 609 C 300 621 286 632 269 641 C 252 649 233 654 213 654 C 191 654 171 645 153 629 C 135 613 126 589 126 559 C 126 529 134 504 150 484 C 165 464 196 440 243 412 C 296 380 333 346 354 311 C 374 275 385 232 385 182 C 385 151 380 124 370 100 C 360 76 346 57 330 41 C 313 25 294 13 272 5 C 250 -3 228 -7 206 -7 Z M 188 0 L 188 0 Z M 193 -180 C 173 -180 153 -177 135 -171 C 116 -165 100 -157 88 -147 L 111 -111 C 118 -117 128 -123 141 -129 C 153 -135 167 -138 182 -138 C 194 -138 204 -134 212 -128 C 220 -122 225 -114 225 -104 C 225 -92 220 -83 212 -78 C 204 -72 195 -70 187 -70 C 180 -70 174 -70 168 -71 C 162 -72 156 -74 152 -76 L 142 -58 L 194 13 L 238 13 L 198 -43 C 223 -41 244 -45 262 -55 C 280 -65 289 -81 289 -105 C 289 -128 279 -146 261 -160 C 242 -173 219 -180 193 -180 Z" unicode="Ş" />
<glyph horiz-adv-x="311" d="M 13 0 L 13 0 Z M 161 -5 C 129 -5 99 1 73 15 C 47 28 27 46 13 68 L 62 132 C 72 113 85 99 100 89 C 114 79 130 75 148 75 C 164 75 178 80 192 92 C 205 103 212 120 212 143 C 212 165 204 183 189 197 C 173 211 153 227 127 245 C 98 264 75 286 57 310 C 39 334 31 368 31 410 C 31 447 43 479 67 505 C 91 531 122 545 160 545 C 186 545 210 540 231 532 C 252 523 269 512 283 500 L 248 422 C 239 431 227 440 213 449 C 198 458 183 463 169 463 C 152 463 137 458 125 449 C 113 440 107 427 107 409 C 107 390 113 375 126 365 C 138 354 159 338 188 318 C 222 293 248 267 265 241 C 281 215 290 180 290 138 C 290 112 286 91 278 73 C 270 55 259 40 247 28 C 234 16 220 8 205 3 C 189 -2 175 -5 161 -5 Z M 147 0 L 147 0 Z M 152 -180 C 132 -180 112 -177 94 -171 C 75 -165 59 -157 47 -147 L 70 -111 C 77 -117 87 -123 100 -129 C 112 -135 126 -138 141 -138 C 153 -138 163 -134 171 -128 C 179 -122 184 -114 184 -104 C 184 -92 179 -83 171 -78 C 163 -72 154 -70 146 -70 C 139 -70 133 -70 127 -71 C 121 -72 115 -74 111 -76 L 101 -58 L 153 13 L 197 13 L 157 -43 C 182 -41 203 -45 221 -55 C 239 -65 248 -81 248 -105 C 248 -128 238 -146 220 -160 C 201 -173 178 -180 152 -180 Z" unicode="ş" />
<glyph horiz-adv-x="411" d="M 17 0 L 17 0 Z M 206 -7 C 167 -7 132 0 101 13 C 69 26 41 49 17 82 L 83 141 C 97 117 115 99 137 87 C 159 75 180 70 201 70 C 226 70 248 79 268 98 C 288 117 298 143 298 176 C 298 210 289 237 272 259 C 254 281 223 306 179 335 C 134 363 99 395 74 429 C 49 463 37 508 37 564 C 37 590 41 614 51 636 C 60 657 72 675 88 690 C 104 705 122 717 144 725 C 166 733 189 737 213 737 C 252 737 284 730 310 716 C 336 702 356 687 371 670 L 312 609 C 300 621 286 632 269 641 C 252 649 233 654 213 654 C 191 654 171 645 153 629 C 135 613 126 589 126 559 C 126 529 134 504 150 484 C 165 464 196 440 243 412 C 296 380 333 346 354 311 C 374 275 385 232 385 182 C 385 151 380 124 370 100 C 360 76 346 57 330 41 C 313 25 294 13 272 5 C 250 -3 228 -7 206 -7 Z M 208 793 L 208 793 Z M 72 964 L 151 964 L 209 862 L 268 964 L 345 964 L 247 793 L 170 793 L 72 964 Z" unicode="Š" />
<glyph horiz-adv-x="311" d="M 13 0 L 13 0 Z M 161 -5 C 129 -5 99 1 73 15 C 47 28 27 46 13 68 L 62 132 C 72 113 85 99 100 89 C 114 79 130 75 148 75 C 164 75 178 80 192 92 C 205 103 212 120 212 143 C 212 165 204 183 189 197 C 173 211 153 227 127 245 C 98 264 75 286 57 310 C 39 334 31 368 31 410 C 31 447 43 479 67 505 C 91 531 122 545 160 545 C 186 545 210 540 231 532 C 252 523 269 512 283 500 L 248 422 C 239 431 227 440 213 449 C 198 458 183 463 169 463 C 152 463 137 458 125 449 C 113 440 107 427 107 409 C 107 390 113 375 126 365 C 138 354 159 338 188 318 C 222 293 248 267 265 241 C 281 215 290 180 290 138 C 290 112 286 91 278 73 C 270 55 259 40 247 28 C 234 16 220 8 205 3 C 189 -2 175 -5 161 -5 Z M 159 603 L 159 603 Z M 23 774 L 102 774 L 160 672 L 219 774 L 296 774 L 198 603 L 121 603 L 23 774 Z" unicode="š" />
<glyph horiz-adv-x="377" d="M 7 0 L 7 0 Z M 370 643 L 238 643 L 238 0 L 138 0 L 138 643 L 7 643 L 7 730 L 370 730 L 370 643 Z M 188 793 L 188 793 Z M 52 964 L 131 964 L 189 862 L 248 964 L 325 964 L 227 793 L 150 793 L 52 964 Z" unicode="Ť" />
<glyph horiz-adv-x="221" d="M 5 0 L 5 0 Z M 204 93 L 222 17 C 216 12 208 7 197 3 C 186 0 171 -3 151 -3 C 126 -3 103 7 83 28 C 62 48 52 77 52 113 L 52 459 L 5 459 L 5 540 L 54 540 L 54 644 L 141 655 L 141 540 L 210 540 L 210 459 L 143 459 L 143 122 C 143 110 146 101 152 95 C 158 88 167 85 177 85 C 182 85 187 85 192 87 C 197 89 201 91 204 93 Z M 325 621 L 321 483 L 243 483 L 238 621 L 238 730 L 325 730 L 325 621 Z" unicode="ť" />
<glyph horiz-adv-x="377" d="M 347 439 L 238 439 L 238 0 L 138 0 L 138 439 L 30 439 L 30 519 L 138 519 L 138 643 L 7 643 L 7 730 L 370 730 L 370 643 L 238 643 L 238 519 L 347 519 L 347 439 Z" unicode="Ŧ" />
<glyph horiz-adv-x="221" d="M 222 17 C 216 12 208 7 197 3 C 186 0 171 -3 151 -3 C 126 -3 103 7 83 28 C 62 48 52 77 52 113 L 52 297 L 13 297 L 13 377 L 52 377 L 52 459 L 5 459 L 5 540 L 54 540 L 54 644 L 141 655 L 141 540 L 210 540 L 210 459 L 143 459 L 143 377 L 191 377 L 191 297 L 143 297 L 143 122 C 143 110 146 101 152 95 C 158 88 167 85 177 85 C 182 85 187 85 192 87 C 197 89 201 91 204 93 L 222 17 Z" unicode="ŧ" />
<glyph horiz-adv-x="534" d="M 56 0 L 56 0 Z M 478 730 L 478 218 C 478 177 472 142 460 114 C 448 85 432 62 412 44 C 392 26 369 13 343 5 C 317 -3 289 -7 261 -7 C 233 -7 207 -3 182 4 C 157 12 135 24 117 42 C 98 60 83 83 72 112 C 61 140 56 176 56 218 L 56 730 L 155 730 L 155 216 C 155 166 165 130 186 110 C 206 89 233 79 265 79 C 295 79 321 88 342 108 C 363 128 374 164 374 216 L 374 730 L 478 730 Z M 265 799 L 265 799 Z M 349 936 L 417 936 C 417 889 410 854 397 832 C 384 810 367 799 347 799 C 329 799 313 802 299 810 C 285 817 274 824 266 830 C 257 836 248 842 240 848 C 231 854 223 857 215 857 C 206 857 199 851 193 841 C 187 830 184 817 184 803 L 114 803 C 114 849 123 883 141 906 C 159 928 178 940 198 940 C 212 940 225 936 237 930 C 249 923 260 916 271 908 C 279 901 287 895 295 891 C 303 886 311 884 319 884 C 326 884 333 888 339 897 C 345 906 349 919 349 936 Z" unicode="Ũ" />
<glyph horiz-adv-x="402" d="M 39 0 L 39 0 Z M 39 540 L 131 540 L 131 152 C 131 125 137 105 149 92 C 161 78 177 72 198 72 C 216 72 233 79 248 93 C 262 107 270 134 270 172 L 270 540 L 361 540 L 361 0 L 281 0 L 281 76 C 273 54 259 35 237 19 C 215 2 189 -6 158 -6 C 126 -6 99 5 75 28 C 51 50 39 83 39 125 L 39 540 Z M 200 609 L 200 609 Z M 284 746 L 352 746 C 352 699 345 664 332 642 C 319 620 302 609 282 609 C 264 609 248 612 234 620 C 220 627 209 634 201 640 C 192 646 183 652 175 658 C 166 664 158 667 150 667 C 141 667 134 661 128 651 C 122 640 119 627 119 613 L 49 613 C 49 659 58 693 76 716 C 94 738 113 750 133 750 C 147 750 160 746 172 740 C 184 733 195 726 206 718 C 214 711 222 705 230 701 C 238 696 246 694 254 694 C 261 694 268 698 274 707 C 280 716 284 729 284 746 Z" unicode="ũ" />
<glyph horiz-adv-x="534" d="M 56 0 L 56 0 Z M 478 730 L 478 218 C 478 177 472 142 460 114 C 448 85 432 62 412 44 C 392 26 369 13 343 5 C 317 -3 289 -7 261 -7 C 233 -7 207 -3 182 4 C 157 12 135 24 117 42 C 98 60 83 83 72 112 C 61 140 56 176 56 218 L 56 730 L 155 730 L 155 216 C 155 166 165 130 186 110 C 206 89 233 79 265 79 C 295 79 321 88 342 108 C 363 128 374 164 374 216 L 374 730 L 478 730 Z M 265 808 L 265 808 Z M 386 808 L 144 808 L 144 885 L 386 885 L 386 808 Z" unicode="Ū" />
<glyph horiz-adv-x="402" d="M 39 0 L 39 0 Z M 39 540 L 131 540 L 131 152 C 131 125 137 105 149 92 C 161 78 177 72 198 72 C 216 72 233 79 248 93 C 262 107 270 134 270 172 L 270 540 L 361 540 L 361 0 L 281 0 L 281 76 C 273 54 259 35 237 19 C 215 2 189 -6 158 -6 C 126 -6 99 5 75 28 C 51 50 39 83 39 125 L 39 540 Z M 200 618 L 200 618 Z M 321 618 L 79 618 L 79 695 L 321 695 L 321 618 Z" unicode="ū" />
<glyph horiz-adv-x="534" d="M 56 0 L 56 0 Z M 478 730 L 478 218 C 478 177 472 142 460 114 C 448 85 432 62 412 44 C 392 26 369 13 343 5 C 317 -3 289 -7 261 -7 C 233 -7 207 -3 182 4 C 157 12 135 24 117 42 C 98 60 83 83 72 112 C 61 140 56 176 56 218 L 56 730 L 155 730 L 155 216 C 155 166 165 130 186 110 C 206 89 233 79 265 79 C 295 79 321 88 342 108 C 363 128 374 164 374 216 L 374 730 L 478 730 Z M 265 797 L 265 797 Z M 321 955 L 397 955 C 393 900 380 860 356 835 C 332 809 301 797 265 797 C 228 797 198 809 174 835 C 150 860 136 900 134 955 L 210 955 C 211 930 215 910 223 894 C 231 878 245 870 265 870 C 285 870 299 877 307 893 C 315 908 319 929 321 955 Z" unicode="Ŭ" />
<glyph horiz-adv-x="402" d="M 39 0 L 39 0 Z M 39 540 L 131 540 L 131 152 C 131 125 137 105 149 92 C 161 78 177 72 198 72 C 216 72 233 79 248 93 C 262 107 270 134 270 172 L 270 540 L 361 540 L 361 0 L 281 0 L 281 76 C 273 54 259 35 237 19 C 215 2 189 -6 158 -6 C 126 -6 99 5 75 28 C 51 50 39 83 39 125 L 39 540 Z M 200 607 L 200 607 Z M 256 765 L 332 765 C 328 710 315 670 291 645 C 267 619 236 607 200 607 C 163 607 133 619 109 645 C 85 670 71 710 69 765 L 145 765 C 146 740 150 720 158 704 C 166 688 180 680 200 680 C 220 680 234 687 242 703 C 250 718 254 739 256 765 Z" unicode="ŭ" />
<glyph horiz-adv-x="534" d="M 56 0 L 56 0 Z M 478 730 L 478 218 C 478 177 472 142 460 114 C 448 85 432 62 412 44 C 392 26 369 13 343 5 C 317 -3 289 -7 261 -7 C 233 -7 207 -3 182 4 C 157 12 135 24 117 42 C 98 60 83 83 72 112 C 61 140 56 176 56 218 L 56 730 L 155 730 L 155 216 C 155 166 165 130 186 110 C 206 89 233 79 265 79 C 295 79 321 88 342 108 C 363 128 374 164 374 216 L 374 730 L 478 730 Z M 265 770 L 265 770 Z M 265 770 C 231 770 202 782 178 806 C 154 830 142 859 142 893 C 142 927 154 956 178 980 C 202 1004 231 1016 265 1016 C 299 1016 328 1004 352 980 C 376 956 389 927 389 893 C 389 859 376 830 352 806 C 328 782 299 770 265 770 Z M 266 825 C 284 825 300 831 313 845 C 325 858 332 874 332 893 C 332 911 325 927 313 941 C 300 954 284 961 266 961 C 247 961 231 954 218 941 C 205 927 199 911 199 893 C 199 874 205 858 218 845 C 231 831 247 825 266 825 Z" unicode="Ů" />
<glyph horiz-adv-x="402" d="M 39 0 L 39 0 Z M 39 540 L 131 540 L 131 152 C 131 125 137 105 149 92 C 161 78 177 72 198 72 C 216 72 233 79 248 93 C 262 107 270 134 270 172 L 270 540 L 361 540 L 361 0 L 281 0 L 281 76 C 273 54 259 35 237 19 C 215 2 189 -6 158 -6 C 126 -6 99 5 75 28 C 51 50 39 83 39 125 L 39 540 Z M 200 580 L 200 580 Z M 200 580 C 166 580 137 592 113 616 C 89 640 77 669 77 703 C 77 737 89 766 113 790 C 137 814 166 826 200 826 C 234 826 263 814 287 790 C 311 766 324 737 324 703 C 324 669 311 640 287 616 C 263 592 234 580 200 580 Z M 201 635 C 219 635 235 641 248 655 C 260 668 267 684 267 703 C 267 721 260 737 248 751 C 235 764 219 771 201 771 C 182 771 166 764 153 751 C 140 737 134 721 134 703 C 134 684 140 668 153 655 C 166 641 182 635 201 635 Z" unicode="ů" />
<glyph horiz-adv-x="534" d="M 56 0 L 56 0 Z M 478 730 L 478 218 C 478 177 472 142 460 114 C 448 85 432 62 412 44 C 392 26 369 13 343 5 C 317 -3 289 -7 261 -7 C 233 -7 207 -3 182 4 C 157 12 135 24 117 42 C 98 60 83 83 72 112 C 61 140 56 176 56 218 L 56 730 L 155 730 L 155 216 C 155 166 165 130 186 110 C 206 89 233 79 265 79 C 295 79 321 88 342 108 C 363 128 374 164 374 216 L 374 730 L 478 730 Z M 265 792 L 265 792 Z M 100 792 L 163 952 L 261 952 L 181 792 L 100 792 Z M 269 792 L 333 952 L 431 952 L 350 792 L 269 792 Z" unicode="Ű" />
<glyph horiz-adv-x="402" d="M 35 0 L 35 0 Z M 39 540 L 131 540 L 131 152 C 131 125 137 105 149 92 C 161 78 177 72 198 72 C 216 72 233 79 248 93 C 262 107 270 134 270 172 L 270 540 L 361 540 L 361 0 L 281 0 L 281 76 C 273 54 259 35 237 19 C 215 2 189 -6 158 -6 C 126 -6 99 5 75 28 C 51 50 39 83 39 125 L 39 540 Z M 200 602 L 200 602 Z M 35 602 L 98 762 L 196 762 L 116 602 L 35 602 Z M 204 602 L 268 762 L 366 762 L 285 602 L 204 602 Z" unicode="ű" />
<glyph horiz-adv-x="534" d="M 56 0 L 56 0 Z M 478 730 L 478 218 C 478 177 472 142 460 114 C 448 85 432 62 412 44 C 392 26 369 13 343 5 C 317 -3 289 -7 261 -7 C 233 -7 207 -3 182 4 C 157 12 135 24 117 42 C 98 60 83 83 72 112 C 61 140 56 176 56 218 L 56 730 L 155 730 L 155 216 C 155 166 165 130 186 110 C 206 89 233 79 265 79 C 295 79 321 88 342 108 C 363 128 374 164 374 216 L 374 730 L 478 730 Z M 294 -9 L 294 -9 Z M 387 -96 L 414 -135 C 394 -155 372 -171 349 -182 C 326 -193 301 -199 273 -199 C 241 -199 217 -191 199 -177 C 181 -162 173 -143 173 -121 C 173 -96 183 -73 205 -51 C 227 -29 260 -11 304 4 L 339 4 C 309 -10 287 -24 273 -39 C 259 -53 253 -68 253 -84 C 253 -98 257 -109 266 -117 C 275 -125 287 -130 303 -130 C 320 -130 336 -126 350 -120 C 364 -114 376 -106 387 -96 Z" unicode="Ų" />
<glyph horiz-adv-x="402" d="M 39 0 L 39 0 Z M 39 540 L 131 540 L 131 152 C 131 125 137 105 149 92 C 161 78 177 72 198 72 C 216 72 233 79 248 93 C 262 107 270 134 270 172 L 270 540 L 361 540 L 361 0 L 281 0 L 281 76 C 273 54 259 35 237 19 C 215 2 189 -6 158 -6 C 126 -6 99 5 75 28 C 51 50 39 83 39 125 L 39 540 Z M 270 -9 L 270 -9 Z M 363 -96 L 390 -135 C 370 -155 348 -171 325 -182 C 302 -193 277 -199 249 -199 C 217 -199 193 -191 175 -177 C 157 -162 149 -143 149 -121 C 149 -96 159 -73 181 -51 C 203 -29 236 -11 280 4 L 315 4 C 285 -10 263 -24 249 -39 C 235 -53 229 -68 229 -84 C 229 -98 233 -109 242 -117 C 251 -125 263 -130 279 -130 C 296 -130 312 -126 326 -120 C 340 -114 352 -106 363 -96 Z" unicode="ų" />
<glyph horiz-adv-x="689" d="M 5 0 L 5 0 Z M 669 730 L 520 -3 L 451 -3 L 336 549 L 221 -3 L 153 -3 L 5 730 L 99 730 L 200 182 L 305 730 L 378 730 L 483 184 L 584 730 L 669 730 Z M 343 793 L 343 793 Z M 480 793 L 401 793 L 343 895 L 284 793 L 207 793 L 305 964 L 382 964 L 480 793 Z" unicode="Ŵ" />
<glyph horiz-adv-x="543" d="M 0 0 L 0 0 Z M 351 -2 L 274 319 L 191 -2 L 121 -2 L 0 540 L 83 540 L 166 151 L 240 457 L 309 457 L 379 153 L 464 540 L 542 540 L 419 -2 L 351 -2 Z M 271 603 L 271 603 Z M 408 603 L 329 603 L 271 705 L 212 603 L 135 603 L 233 774 L 310 774 L 408 603 Z" unicode="ŵ" />
<glyph horiz-adv-x="461" d="M 0 0 L 0 0 Z M 464 730 L 278 316 L 278 0 L 178 0 L 178 318 L -3 730 L 113 730 L 234 418 L 369 730 L 464 730 Z M 235 793 L 235 793 Z M 372 793 L 293 793 L 235 895 L 176 793 L 99 793 L 197 964 L 274 964 L 372 793 Z" unicode="Ŷ" />
<glyph horiz-adv-x="339" d="M 0 0 L 0 0 Z M 343 540 L 177 -96 C 168 -128 153 -154 132 -172 C 110 -190 86 -200 60 -200 C 31 -200 8 -197 -8 -191 C -24 -185 -35 -179 -41 -174 L -3 -108 C 0 -110 6 -113 17 -117 C 27 -120 37 -122 47 -122 C 59 -122 71 -117 82 -107 C 92 -97 100 -82 105 -62 L 130 43 L -4 540 L 89 540 L 175 173 L 258 540 L 343 540 Z M 175 603 L 175 603 Z M 312 603 L 233 603 L 175 705 L 116 603 L 39 603 L 137 774 L 214 774 L 312 603 Z" unicode="ŷ" />
<glyph horiz-adv-x="461" d="M 0 0 L 0 0 Z M 464 730 L 278 316 L 278 0 L 178 0 L 178 318 L -3 730 L 113 730 L 234 418 L 369 730 L 464 730 Z M 235 793 L 235 793 Z M 347 793 L 273 793 L 273 951 L 347 951 L 347 793 Z M 197 793 L 123 793 L 123 951 L 197 951 L 197 793 Z" unicode="Ÿ" />
<glyph horiz-adv-x="419" d="M 15 0 L 15 0 Z M 393 730 L 393 679 L 136 84 L 405 84 L 405 0 L 15 0 L 15 49 L 272 644 L 43 644 L 43 730 L 393 730 Z M 221 792 L 221 792 Z M 126 792 L 211 964 L 316 964 L 214 792 L 126 792 Z" unicode="Ź" />
<glyph horiz-adv-x="322" d="M 11 0 L 11 0 Z M 306 540 L 306 502 L 122 79 L 311 79 L 311 0 L 11 0 L 11 31 L 197 459 L 23 459 L 23 540 L 306 540 Z M 172 602 L 172 602 Z M 77 602 L 162 774 L 267 774 L 165 602 L 77 602 Z" unicode="ź" />
<glyph horiz-adv-x="419" d="M 15 0 L 15 0 Z M 393 730 L 393 679 L 136 84 L 405 84 L 405 0 L 15 0 L 15 49 L 272 644 L 43 644 L 43 730 L 393 730 Z M 221 797 L 221 797 Z M 264 797 L 179 797 L 179 915 L 264 915 L 264 797 Z" unicode="Ż" />
<glyph horiz-adv-x="322" d="M 11 0 L 11 0 Z M 306 540 L 306 502 L 122 79 L 311 79 L 311 0 L 11 0 L 11 31 L 197 459 L 23 459 L 23 540 L 306 540 Z M 172 607 L 172 607 Z M 215 607 L 130 607 L 130 725 L 215 725 L 215 607 Z" unicode="ż" />
<glyph horiz-adv-x="419" d="M 15 0 L 15 0 Z M 393 730 L 393 679 L 136 84 L 405 84 L 405 0 L 15 0 L 15 49 L 272 644 L 43 644 L 43 730 L 393 730 Z M 221 793 L 221 793 Z M 85 964 L 164 964 L 222 862 L 281 964 L 358 964 L 260 793 L 183 793 L 85 964 Z" unicode="Ž" />
<glyph horiz-adv-x="322" d="M 11 0 L 11 0 Z M 306 540 L 306 502 L 122 79 L 311 79 L 311 0 L 11 0 L 11 31 L 197 459 L 23 459 L 23 540 L 306 540 Z M 172 603 L 172 603 Z M 36 774 L 115 774 L 173 672 L 232 774 L 309 774 L 211 603 L 134 603 L 36 774 Z" unicode="ž" />
<glyph horiz-adv-x="358" d="M 184 -60 C 181 -92 168 -119 145 -143 C 121 -167 92 -179 58 -179 C 40 -179 22 -177 6 -175 C -9 -172 -22 -169 -30 -165 L -21 -98 C -16 -98 -9 -100 0 -102 C 9 -104 18 -105 27 -105 C 47 -105 64 -98 80 -84 C 95 -70 104 -51 107 -27 L 138 319 L 43 319 L 43 407 L 145 407 L 165 628 C 168 664 182 692 207 712 C 231 731 256 741 282 741 C 295 741 308 740 321 739 C 334 738 342 737 345 737 L 338 656 C 336 656 332 657 326 658 C 320 658 314 659 308 659 C 289 659 273 652 261 640 C 249 627 242 607 240 581 L 225 407 L 329 407 L 329 319 L 217 319 L 184 -60 Z" unicode="ƒ" />
<glyph horiz-adv-x="411" d="M 17 0 L 17 0 Z M 206 -7 C 167 -7 132 0 101 13 C 69 26 41 49 17 82 L 83 141 C 97 117 115 99 137 87 C 159 75 180 70 201 70 C 226 70 248 79 268 98 C 288 117 298 143 298 176 C 298 210 289 237 272 259 C 254 281 223 306 179 335 C 134 363 99 395 74 429 C 49 463 37 508 37 564 C 37 590 41 614 51 636 C 60 657 72 675 88 690 C 104 705 122 717 144 725 C 166 733 189 737 213 737 C 252 737 284 730 310 716 C 336 702 356 687 371 670 L 312 609 C 300 621 286 632 269 641 C 252 649 233 654 213 654 C 191 654 171 645 153 629 C 135 613 126 589 126 559 C 126 529 134 504 150 484 C 165 464 196 440 243 412 C 296 380 333 346 354 311 C 374 275 385 232 385 182 C 385 151 380 124 370 100 C 360 76 346 57 330 41 C 313 25 294 13 272 5 C 250 -3 228 -7 206 -7 Z M 188 -72 L 188 -72 Z M 271 -72 C 270 -94 267 -117 261 -141 C 255 -165 247 -189 238 -212 C 229 -234 219 -255 208 -274 C 197 -293 186 -309 176 -321 L 105 -289 C 112 -279 120 -265 128 -249 C 136 -233 143 -215 150 -196 C 156 -176 162 -156 167 -135 C 171 -113 174 -92 175 -72 L 271 -72 Z" unicode="Ș" />
<glyph horiz-adv-x="311" d="M 13 0 L 13 0 Z M 161 -5 C 129 -5 99 1 73 15 C 47 28 27 46 13 68 L 62 132 C 72 113 85 99 100 89 C 114 79 130 75 148 75 C 164 75 178 80 192 92 C 205 103 212 120 212 143 C 212 165 204 183 189 197 C 173 211 153 227 127 245 C 98 264 75 286 57 310 C 39 334 31 368 31 410 C 31 447 43 479 67 505 C 91 531 122 545 160 545 C 186 545 210 540 231 532 C 252 523 269 512 283 500 L 248 422 C 239 431 227 440 213 449 C 198 458 183 463 169 463 C 152 463 137 458 125 449 C 113 440 107 427 107 409 C 107 390 113 375 126 365 C 138 354 159 338 188 318 C 222 293 248 267 265 241 C 281 215 290 180 290 138 C 290 112 286 91 278 73 C 270 55 259 40 247 28 C 234 16 220 8 205 3 C 189 -2 175 -5 161 -5 Z M 147 -72 L 147 -72 Z M 230 -72 C 229 -94 226 -117 220 -141 C 214 -165 206 -189 197 -212 C 188 -234 178 -255 167 -274 C 156 -293 145 -309 135 -321 L 64 -289 C 71 -279 79 -265 87 -249 C 95 -233 102 -215 109 -196 C 115 -176 121 -156 126 -135 C 130 -113 133 -92 134 -72 L 230 -72 Z" unicode="ș" />
<glyph horiz-adv-x="377" d="M 7 0 L 7 0 Z M 370 643 L 238 643 L 238 0 L 138 0 L 138 643 L 7 643 L 7 730 L 370 730 L 370 643 Z M 165 -72 L 165 -72 Z M 248 -72 C 247 -94 244 -117 238 -141 C 232 -165 224 -189 215 -212 C 206 -234 196 -255 185 -274 C 174 -293 163 -309 153 -321 L 82 -289 C 89 -279 97 -265 105 -249 C 113 -233 120 -215 127 -196 C 133 -176 139 -156 144 -135 C 148 -113 151 -92 152 -72 L 248 -72 Z" unicode="Ț" />
<glyph horiz-adv-x="221" d="M 5 0 L 5 0 Z M 204 93 L 222 17 C 216 12 208 7 197 3 C 186 0 171 -3 151 -3 C 126 -3 103 7 83 28 C 62 48 52 77 52 113 L 52 459 L 5 459 L 5 540 L 54 540 L 54 644 L 141 655 L 141 540 L 210 540 L 210 459 L 143 459 L 143 122 C 143 110 146 101 152 95 C 158 88 167 85 177 85 C 182 85 187 85 192 87 C 197 89 201 91 204 93 Z M 109 -72 L 109 -72 Z M 192 -72 C 191 -94 188 -117 182 -141 C 176 -165 168 -189 159 -212 C 150 -234 140 -255 129 -274 C 118 -293 107 -309 97 -321 L 26 -289 C 33 -279 41 -265 49 -249 C 57 -233 64 -215 71 -196 C 77 -176 83 -156 88 -135 C 92 -113 95 -92 96 -72 L 192 -72 Z" unicode="ț" />
<glyph horiz-adv-x="179" d="M 136 540 L 136 -63 C 136 -94 125 -120 103 -141 C 81 -162 54 -173 22 -173 C 4 -173 -11 -169 -25 -163 C -39 -157 -47 -151 -51 -147 L -21 -89 C -18 -90 -14 -91 -9 -93 C -3 -94 2 -95 9 -95 C 18 -95 26 -91 34 -84 C 42 -76 46 -66 46 -54 L 46 540 L 136 540 Z" unicode="ȷ" />
<glyph horiz-adv-x="500" d="M 387 603 L 308 603 L 250 705 L 191 603 L 114 603 L 212 774 L 289 774 L 387 603 Z" unicode="ˆ" />
<glyph horiz-adv-x="500" d="M 114 774 L 193 774 L 251 672 L 310 774 L 387 774 L 289 603 L 212 603 L 114 774 Z" unicode="ˇ" />
<glyph horiz-adv-x="500" d="M 306 765 L 382 765 C 378 710 365 670 341 645 C 317 619 286 607 250 607 C 213 607 183 619 159 645 C 135 670 121 710 119 765 L 195 765 C 196 740 200 720 208 704 C 216 688 230 680 250 680 C 270 680 284 687 292 703 C 300 718 304 739 306 765 Z" unicode="˘" />
<glyph horiz-adv-x="500" d="M 293 607 L 208 607 L 208 725 L 293 725 L 293 607 Z" unicode="˙" />
<glyph horiz-adv-x="500" d="M 250 580 C 216 580 187 592 163 616 C 139 640 127 669 127 703 C 127 737 139 766 163 790 C 187 814 216 826 250 826 C 284 826 313 814 337 790 C 361 766 374 737 374 703 C 374 669 361 640 337 616 C 313 592 284 580 250 580 Z M 251 635 C 269 635 285 641 298 655 C 310 668 317 684 317 703 C 317 721 310 737 298 751 C 285 764 269 771 251 771 C 232 771 216 764 203 751 C 190 737 184 721 184 703 C 184 684 190 668 203 655 C 216 641 232 635 251 635 Z" unicode="˚" />
<glyph horiz-adv-x="500" d="M 350 -87 L 377 -126 C 357 -146 335 -162 312 -173 C 289 -184 264 -190 236 -190 C 204 -190 180 -182 162 -168 C 144 -153 136 -134 136 -112 C 136 -87 146 -64 168 -42 C 190 -20 223 -2 267 13 L 302 13 C 272 -1 250 -15 236 -30 C 222 -44 216 -59 216 -75 C 216 -89 220 -100 229 -108 C 238 -116 250 -121 266 -121 C 283 -121 299 -117 313 -111 C 327 -105 339 -97 350 -87 Z" unicode="˛" />
<glyph horiz-adv-x="500" d="M 337 746 L 405 746 C 405 699 398 664 385 642 C 372 620 355 609 335 609 C 317 609 301 612 287 620 C 273 627 262 634 254 640 C 245 646 236 652 228 658 C 219 664 211 667 203 667 C 194 667 187 661 181 651 C 175 640 172 627 172 613 L 102 613 C 102 659 111 693 129 716 C 147 738 166 750 186 750 C 200 750 213 746 225 740 C 237 733 248 726 259 718 C 267 711 275 705 283 701 C 291 696 299 694 307 694 C 314 694 321 698 327 707 C 333 716 337 729 337 746 Z" unicode="˜" />
<glyph horiz-adv-x="500" d="M 104 602 L 167 762 L 265 762 L 185 602 L 104 602 Z M 273 602 L 337 762 L 435 762 L 354 602 L 273 602 Z" unicode="˝" />
<glyph horiz-adv-x="0" d="M 0 602 L 0 602 Z M 94 602 L 6 602 L -96 774 L 9 774 L 94 602 Z" unicode="̀" />
<glyph horiz-adv-x="0" d="M 0 602 L 0 602 Z M -95 602 L -10 774 L 95 774 L -7 602 L -95 602 Z" unicode="́" />
<glyph horiz-adv-x="0" d="M 0 603 L 0 603 Z M 137 603 L 58 603 L 0 705 L -59 603 L -136 603 L -38 774 L 39 774 L 137 603 Z" unicode="̂" />
<glyph horiz-adv-x="0" d="M 0 609 L 0 609 Z M 84 746 L 152 746 C 152 699 145 664 132 642 C 119 620 102 609 82 609 C 64 609 48 612 34 620 C 20 627 9 634 1 640 C -7 646 -16 652 -25 658 C -33 664 -42 667 -50 667 C -58 667 -66 661 -72 651 C -78 640 -81 627 -81 613 L -151 613 C -151 659 -141 693 -123 716 C -105 738 -86 750 -67 750 C -52 750 -39 746 -27 740 C -15 733 -4 726 6 718 C 14 711 22 705 30 701 C 38 696 46 694 54 694 C 61 694 68 698 74 707 C 80 716 84 729 84 746 Z" unicode="̃" />
<glyph horiz-adv-x="0" d="M 0 618 L 0 618 Z M 121 618 L -121 618 L -121 695 L 121 695 L 121 618 Z" unicode="̄" />
<glyph horiz-adv-x="0" d="M 0 607 L 0 607 Z M 56 765 L 132 765 C 128 710 115 670 91 645 C 67 619 36 607 0 607 C -36 607 -67 619 -91 645 C -115 670 -128 710 -131 765 L -55 765 C -53 740 -49 720 -41 704 C -33 688 -20 680 0 680 C 20 680 34 687 42 703 C 50 718 54 739 56 765 Z" unicode="̆" />
<glyph horiz-adv-x="0" d="M 0 607 L 0 607 Z M 43 607 L -42 607 L -42 725 L 43 725 L 43 607 Z" unicode="̇" />
<glyph horiz-adv-x="0" d="M 0 603 L 0 603 Z M 112 603 L 38 603 L 38 761 L 112 761 L 112 603 Z M -38 603 L -112 603 L -112 761 L -38 761 L -38 603 Z" unicode="̈" />
<glyph horiz-adv-x="0" d="M 0 580 L 0 580 Z M 0 580 C -34 580 -63 592 -87 616 C -111 640 -123 669 -123 703 C -123 737 -111 766 -87 790 C -63 814 -34 826 0 826 C 34 826 63 814 87 790 C 111 766 124 737 124 703 C 124 669 111 640 87 616 C 63 592 34 580 0 580 Z M 1 635 C 19 635 35 641 48 655 C 60 668 67 684 67 703 C 67 721 60 737 48 751 C 35 764 19 771 1 771 C -17 771 -33 764 -46 751 C -59 737 -66 721 -66 703 C -66 684 -59 668 -46 655 C -33 641 -17 635 1 635 Z" unicode="̊" />
<glyph horiz-adv-x="0" d="M 0 602 L 0 602 Z M -165 602 L -102 762 L -4 762 L -84 602 L -165 602 Z M 4 602 L 68 762 L 166 762 L 85 602 L 4 602 Z" unicode="̋" />
<glyph horiz-adv-x="0" d="M 0 603 L 0 603 Z M -136 774 L -57 774 L 1 672 L 60 774 L 137 774 L 39 603 L -38 603 L -136 774 Z" unicode="̌" />
<glyph horiz-adv-x="0" d="M 0 -72 L 0 -72 Z M 83 -72 C 82 -94 79 -117 73 -141 C 67 -165 59 -189 50 -212 C 41 -234 31 -255 20 -274 C 9 -293 -1 -309 -12 -321 L -83 -289 C -75 -279 -68 -265 -60 -249 C -52 -233 -44 -215 -38 -196 C -31 -176 -25 -156 -21 -135 C -16 -113 -13 -92 -13 -72 L 83 -72 Z" unicode="̦" />
<glyph horiz-adv-x="0" d="M 0 0 L 0 0 Z M 5 -180 C -15 -180 -34 -177 -53 -171 C -71 -165 -87 -157 -100 -147 L -77 -111 C -69 -117 -59 -123 -47 -129 C -34 -135 -20 -138 -6 -138 C 6 -138 16 -134 24 -128 C 32 -122 37 -114 37 -104 C 37 -92 32 -83 24 -78 C 16 -72 7 -70 -1 -70 C -7 -70 -14 -70 -20 -71 C -26 -72 -31 -74 -36 -76 L -46 -58 L 6 13 L 50 13 L 10 -43 C 35 -41 56 -45 74 -55 C 92 -65 101 -81 101 -105 C 101 -128 91 -146 73 -160 C 54 -173 31 -180 5 -180 Z" unicode="̧" />
<glyph horiz-adv-x="0" d="M 0 0 L 0 0 Z M 93 -87 L 120 -126 C 100 -146 78 -162 55 -173 C 32 -184 7 -190 -21 -190 C -52 -190 -76 -182 -94 -168 C -112 -153 -121 -134 -121 -112 C -121 -87 -110 -64 -88 -42 C -66 -20 -34 -2 10 13 L 45 13 C 15 -1 -6 -15 -20 -30 C -34 -44 -41 -59 -41 -75 C -41 -89 -36 -100 -27 -108 C -18 -116 -6 -121 9 -121 C 26 -121 42 -117 56 -111 C 70 -105 82 -97 93 -87 Z" unicode="̨" />
<glyph horiz-adv-x="563" d="M 1 0 L 1 0 Z M 550 0 L 1 0 L 262 730 L 290 730 L 550 0 Z M 433 70 L 273 562 L 115 70 L 433 70 Z" unicode="Δ" />
<glyph horiz-adv-x="724" d="M 25 0 L 25 0 Z M 34 0 L 34 85 L 241 85 L 241 153 C 208 161 178 175 151 194 C 124 213 101 236 83 262 C 65 288 50 316 40 348 C 30 379 25 411 25 445 C 25 487 32 526 47 563 C 61 599 83 631 111 658 C 139 685 173 706 214 722 C 254 738 300 746 352 746 C 405 746 453 738 495 722 C 537 706 572 684 600 657 C 628 630 650 598 665 562 C 680 525 688 486 688 445 C 688 411 683 379 674 348 C 665 316 652 288 634 262 C 616 236 593 214 566 195 C 538 176 507 162 471 153 L 471 85 L 678 85 L 678 0 L 404 0 L 404 203 C 434 211 460 223 483 239 C 505 255 524 274 540 295 C 555 316 566 339 574 364 C 582 389 586 414 586 440 C 586 473 580 504 569 532 C 557 560 542 584 522 604 C 502 624 477 639 448 651 C 419 662 387 668 353 668 C 285 668 231 646 189 603 C 147 560 126 505 126 438 C 126 413 129 389 137 365 C 145 341 156 318 171 297 C 186 276 205 257 228 241 C 251 224 278 211 309 203 L 309 0 L 34 0 Z" unicode="Ω" />
<glyph horiz-adv-x="589" d="M 69 0 L 69 0 Z M 69 -106 L 69 540 L 161 540 L 161 167 C 161 138 173 114 199 95 C 224 75 252 66 283 66 C 299 66 316 68 333 73 C 350 78 365 85 379 95 C 392 105 403 117 411 132 C 419 146 424 163 424 183 L 424 540 L 515 540 L 515 0 L 431 0 L 431 99 C 422 72 401 48 369 26 C 336 4 302 -7 266 -7 C 242 -7 220 -1 198 9 C 176 19 161 34 154 53 L 154 -106 L 69 -106 Z" unicode="μ" />
<glyph horiz-adv-x="529" d="M 174 469 L 174 0 L 83 0 L 83 469 L 15 469 L 15 540 L 514 540 L 514 469 L 442 469 L 442 0 L 350 0 L 350 469 L 174 469 Z" unicode="π" />
<glyph horiz-adv-x="689" d="M 5 0 L 5 0 Z M 669 730 L 520 -3 L 451 -3 L 336 549 L 221 -3 L 153 -3 L 5 730 L 99 730 L 200 182 L 305 730 L 378 730 L 483 184 L 584 730 L 669 730 Z M 343 792 L 343 792 Z M 437 792 L 349 792 L 247 964 L 352 964 L 437 792 Z" unicode="Ẁ" />
<glyph horiz-adv-x="543" d="M 0 0 L 0 0 Z M 351 -2 L 274 319 L 191 -2 L 121 -2 L 0 540 L 83 540 L 166 151 L 240 457 L 309 457 L 379 153 L 464 540 L 542 540 L 419 -2 L 351 -2 Z M 271 602 L 271 602 Z M 365 602 L 277 602 L 175 774 L 280 774 L 365 602 Z" unicode="ẁ" />
<glyph horiz-adv-x="689" d="M 5 0 L 5 0 Z M 669 730 L 520 -3 L 451 -3 L 336 549 L 221 -3 L 153 -3 L 5 730 L 99 730 L 200 182 L 305 730 L 378 730 L 483 184 L 584 730 L 669 730 Z M 343 792 L 343 792 Z M 248 792 L 333 964 L 438 964 L 336 792 L 248 792 Z" unicode="Ẃ" />
<glyph horiz-adv-x="543" d="M 0 0 L 0 0 Z M 351 -2 L 274 319 L 191 -2 L 121 -2 L 0 540 L 83 540 L 166 151 L 240 457 L 309 457 L 379 153 L 464 540 L 542 540 L 419 -2 L 351 -2 Z M 271 602 L 271 602 Z M 176 602 L 261 774 L 366 774 L 264 602 L 176 602 Z" unicode="ẃ" />
<glyph horiz-adv-x="689" d="M 5 0 L 5 0 Z M 669 730 L 520 -3 L 451 -3 L 336 549 L 221 -3 L 153 -3 L 5 730 L 99 730 L 200 182 L 305 730 L 378 730 L 483 184 L 584 730 L 669 730 Z M 343 793 L 343 793 Z M 455 793 L 381 793 L 381 951 L 455 951 L 455 793 Z M 305 793 L 231 793 L 231 951 L 305 951 L 305 793 Z" unicode="Ẅ" />
<glyph horiz-adv-x="543" d="M 0 0 L 0 0 Z M 351 -2 L 274 319 L 191 -2 L 121 -2 L 0 540 L 83 540 L 166 151 L 240 457 L 309 457 L 379 153 L 464 540 L 542 540 L 419 -2 L 351 -2 Z M 271 603 L 271 603 Z M 383 603 L 309 603 L 309 761 L 383 761 L 383 603 Z M 233 603 L 159 603 L 159 761 L 233 761 L 233 603 Z" unicode="ẅ" />
<glyph horiz-adv-x="461" d="M 0 0 L 0 0 Z M 464 730 L 278 316 L 278 0 L 178 0 L 178 318 L -3 730 L 113 730 L 234 418 L 369 730 L 464 730 Z M 235 792 L 235 792 Z M 329 792 L 241 792 L 139 964 L 244 964 L 329 792 Z" unicode="Ỳ" />
<glyph horiz-adv-x="339" d="M 0 0 L 0 0 Z M 343 540 L 177 -96 C 168 -128 153 -154 132 -172 C 110 -190 86 -200 60 -200 C 31 -200 8 -197 -8 -191 C -24 -185 -35 -179 -41 -174 L -3 -108 C 0 -110 6 -113 17 -117 C 27 -120 37 -122 47 -122 C 59 -122 71 -117 82 -107 C 92 -97 100 -82 105 -62 L 130 43 L -4 540 L 89 540 L 175 173 L 258 540 L 343 540 Z M 175 602 L 175 602 Z M 269 602 L 181 602 L 79 774 L 184 774 L 269 602 Z" unicode="ỳ" />
<glyph horiz-adv-x="460" d="M 420 227 L 41 227 L 41 307 L 420 307 L 420 227 Z" unicode="–" />
<glyph horiz-adv-x="645" d="M 605 227 L 41 227 L 41 307 L 605 307 L 605 227 Z" unicode="—" />
<glyph horiz-adv-x="229" d="M 40 507 L 40 514 C 40 558 46 597 58 633 C 70 669 91 703 120 737 L 207 731 C 187 707 170 677 155 642 C 140 607 133 565 133 515 L 133 507 L 40 507 Z" unicode="‘" />
<glyph horiz-adv-x="229" d="M 189 737 L 189 730 C 189 686 182 647 170 611 C 158 575 137 540 109 507 L 22 513 C 41 537 58 567 73 602 C 88 637 96 679 96 729 L 96 737 L 189 737 Z" unicode="’" />
<glyph horiz-adv-x="231" d="M 188 112 L 188 105 C 188 61 181 22 169 -13 C 157 -49 136 -84 108 -118 L 21 -112 C 40 -88 57 -58 72 -23 C 87 12 95 54 95 104 L 95 112 L 188 112 Z" unicode="‚" />
<glyph horiz-adv-x="377" d="M 200 507 L 200 514 C 200 556 206 595 219 631 C 231 667 253 702 283 737 L 370 731 C 351 708 333 679 317 643 C 300 607 292 565 292 515 L 292 507 L 200 507 Z M 41 507 L 41 514 C 41 556 47 595 60 631 C 72 667 94 702 124 737 L 211 731 C 192 708 174 679 158 643 C 142 607 134 565 134 515 L 134 507 L 41 507 Z" unicode="“" />
<glyph horiz-adv-x="377" d="M 189 737 L 189 730 C 189 686 182 647 170 611 C 158 575 137 540 109 507 L 22 513 C 41 537 58 567 73 602 C 88 637 96 679 96 729 L 96 737 L 189 737 Z M 336 737 L 336 730 C 336 686 329 647 317 611 C 305 575 284 540 256 507 L 169 513 C 188 537 205 567 220 602 C 235 637 243 679 243 729 L 243 737 L 336 737 Z" unicode="”" />
<glyph horiz-adv-x="381" d="M 188 112 L 188 105 C 188 61 181 22 169 -13 C 157 -49 136 -84 108 -118 L 21 -112 C 40 -88 57 -58 72 -23 C 87 12 95 54 95 104 L 95 112 L 188 112 Z M 338 112 L 338 105 C 338 61 332 22 320 -13 C 308 -49 287 -84 259 -118 L 172 -112 C 191 -88 208 -58 223 -23 C 237 12 245 54 245 104 L 245 112 L 338 112 Z" unicode="„" />
<glyph horiz-adv-x="411" d="M 393 383 L 251 383 L 251 -179 L 154 -179 L 154 383 L 18 383 L 18 474 L 154 474 L 154 730 L 251 730 L 251 474 L 393 474 L 393 383 Z" unicode="†" />
<glyph horiz-adv-x="419" d="M 159 -179 L 159 111 L 27 111 L 27 203 L 159 203 L 159 383 L 27 383 L 27 474 L 159 474 L 159 730 L 255 730 L 255 474 L 393 474 L 393 383 L 255 383 L 255 203 L 393 203 L 393 111 L 255 111 L 255 -179 L 159 -179 Z" unicode="‡" />
<glyph horiz-adv-x="382" d="M 191 465 C 215 465 235 456 252 440 C 268 423 277 403 277 379 C 277 355 268 334 252 318 C 235 302 215 294 191 294 C 167 294 146 302 130 318 C 114 334 106 355 106 379 C 106 403 114 423 130 440 C 146 456 167 465 191 465 Z" unicode="•" />
<glyph horiz-adv-x="622" d="M 57 0 L 57 125 L 151 125 L 151 0 L 57 0 Z M 264 0 L 264 125 L 358 125 L 358 0 L 264 0 Z M 471 0 L 471 125 L 566 125 L 566 0 L 471 0 Z" unicode="…" />
<glyph horiz-adv-x="982" d="M 168 363 C 152 363 136 366 120 374 C 104 382 89 393 77 409 C 64 425 54 444 46 468 C 38 492 35 519 35 551 C 35 604 47 649 72 685 C 97 721 129 740 167 740 C 187 740 206 735 223 725 C 240 715 254 701 266 685 C 278 668 287 648 294 626 C 300 603 304 579 304 554 C 304 527 300 502 293 479 C 286 455 277 435 265 418 C 253 400 238 387 222 377 C 205 367 187 363 168 363 Z M 84 0 L 501 730 L 573 730 L 158 0 L 84 0 Z M 105 551 C 105 536 106 522 108 508 C 110 494 113 481 118 470 C 122 459 129 450 137 443 C 145 436 155 433 168 433 C 194 433 211 445 220 470 C 229 494 234 521 234 551 C 234 565 233 579 231 593 C 229 607 225 620 220 632 C 215 643 208 652 200 659 C 192 666 182 670 170 670 C 145 670 128 657 119 633 C 109 608 105 581 105 551 Z M 505 -3 C 488 -3 471 0 455 8 C 439 16 424 27 412 43 C 399 59 389 78 381 102 C 373 126 369 153 369 185 C 369 238 381 283 407 319 C 433 355 466 374 507 374 C 527 374 546 369 563 359 C 580 349 594 335 606 319 C 617 302 626 282 632 260 C 638 237 642 213 642 188 C 642 161 638 136 632 113 C 625 89 616 69 604 52 C 592 34 577 21 561 11 C 544 1 525 -3 505 -3 Z M 809 -3 C 792 -3 776 0 760 8 C 744 16 729 27 717 43 C 704 59 694 78 686 102 C 678 126 674 153 674 185 C 674 238 686 283 712 319 C 738 355 771 374 811 374 C 831 374 850 369 867 359 C 884 349 898 335 910 319 C 921 302 930 282 936 260 C 942 237 946 213 946 188 C 946 161 942 136 936 113 C 929 89 920 69 908 52 C 896 34 881 21 865 11 C 848 1 829 -3 809 -3 Z M 504 68 C 530 68 547 80 557 104 C 567 128 572 155 572 185 C 572 215 567 242 557 267 C 547 291 530 304 506 304 C 483 304 466 291 455 267 C 444 243 439 215 439 185 C 439 155 443 128 453 104 C 463 80 480 68 504 68 Z M 808 68 C 834 68 851 80 861 104 C 871 128 876 155 876 185 C 876 215 871 242 861 267 C 851 291 834 304 810 304 C 787 304 770 291 760 267 C 749 243 744 215 744 185 C 744 155 748 128 758 104 C 768 80 784 68 808 68 Z" unicode="‰" />
<glyph horiz-adv-x="238" d="M 209 112 L 28 280 L 28 333 L 209 499 L 209 409 L 108 304 L 209 205 L 209 112 Z" unicode="‹" />
<glyph horiz-adv-x="239" d="M 29 500 L 212 332 L 212 280 L 29 114 L 29 203 L 130 308 L 29 407 L 29 500 Z" unicode="›" />
<glyph horiz-adv-x="145" d="M 303 730 L -69 0 L -145 0 L 227 730 L 303 730 Z" unicode="⁄" />
<glyph horiz-adv-x="327" d="M 15 455 L 15 511 L 201 738 L 254 738 L 254 514 L 315 514 L 315 455 L 254 455 L 254 373 L 178 373 L 178 455 L 15 455 Z M 92 512 L 180 512 L 180 623 L 92 512 Z" unicode="⁴" />
<glyph horiz-adv-x="471" d="M 452 116 C 436 78 412 48 381 24 C 349 0 315 -12 277 -12 C 225 -12 180 11 144 59 C 107 106 83 175 73 265 L 26 265 L 26 330 L 69 330 C 68 334 68 339 68 345 C 68 351 68 356 68 362 C 68 368 68 374 68 380 C 68 386 68 391 69 397 L 26 397 L 26 463 L 73 463 C 82 550 104 618 139 668 C 173 717 219 742 276 742 C 323 742 360 730 387 707 C 413 683 433 656 446 626 L 382 587 C 371 611 358 628 343 640 C 327 652 306 658 280 658 C 250 658 225 641 204 608 C 182 574 168 526 161 463 L 422 463 L 422 397 L 156 397 C 155 391 155 384 155 378 C 155 371 155 364 155 358 C 155 353 155 348 155 344 C 155 339 155 334 155 330 L 422 330 L 422 265 L 160 265 C 168 197 183 147 206 116 C 229 85 255 70 283 70 C 309 70 331 78 348 95 C 365 111 379 133 390 159 L 452 116 Z" unicode="€" />
<glyph horiz-adv-x="796" d="M 748 338 L 672 338 L 672 594 L 551 398 L 533 398 L 415 594 L 415 338 L 340 338 L 340 730 L 417 730 L 545 513 L 682 730 L 748 730 L 748 338 Z M 311 643 L 217 643 L 217 338 L 122 338 L 122 643 L 22 643 L 22 730 L 311 730 L 311 643 Z" unicode="™" />
<glyph horiz-adv-x="713" d="M 34 0 L 34 85 L 241 85 L 241 153 C 208 161 178 175 151 194 C 124 213 101 236 83 262 C 65 288 50 316 40 348 C 30 379 25 411 25 445 C 25 487 32 526 47 563 C 61 599 83 631 111 658 C 139 685 173 706 214 722 C 254 738 300 746 352 746 C 405 746 453 738 495 722 C 537 706 572 684 600 657 C 628 630 650 598 665 562 C 680 525 688 486 688 445 C 688 411 683 379 674 348 C 665 316 652 288 634 262 C 616 236 593 214 566 195 C 538 176 507 162 471 153 L 471 85 L 678 85 L 678 0 L 404 0 L 404 203 C 434 211 460 223 483 239 C 505 255 524 274 540 295 C 555 316 566 339 574 364 C 582 389 586 414 586 440 C 586 473 580 504 569 532 C 557 560 542 584 522 604 C 502 624 477 639 448 651 C 419 662 387 668 353 668 C 285 668 231 646 189 603 C 147 560 126 505 126 438 C 126 413 129 389 137 365 C 145 341 156 318 171 297 C 186 276 205 257 228 241 C 251 224 278 211 309 203 L 309 0 L 34 0 Z" unicode="Ω" />
<glyph horiz-adv-x="453" d="M 413 277 C 413 226 408 183 398 147 C 388 111 374 81 357 59 C 340 36 320 19 297 9 C 273 -1 248 -7 222 -7 C 197 -7 173 -2 149 7 C 125 16 105 30 87 49 C 69 67 55 91 44 119 C 33 147 28 179 28 216 C 28 250 32 282 42 310 C 51 338 64 362 80 382 C 96 402 115 417 137 428 C 159 439 182 445 207 445 C 237 445 262 439 281 427 C 300 415 316 397 328 374 C 321 435 309 488 292 532 C 275 576 256 613 235 642 C 214 670 192 692 169 706 C 146 720 125 727 107 729 L 150 802 C 170 802 196 792 226 772 C 256 752 284 722 312 680 C 340 638 363 584 383 517 C 403 450 413 370 413 277 Z M 220 70 C 252 70 276 83 292 110 C 308 137 317 175 317 223 C 317 268 308 303 292 328 C 276 353 251 366 219 366 C 189 366 165 353 149 327 C 132 301 124 265 124 218 C 124 168 132 130 149 106 C 165 82 189 70 220 70 Z" unicode="∂" />
<glyph horiz-adv-x="551" d="M 550 0 L 1 0 L 262 730 L 290 730 L 550 0 Z M 433 70 L 273 562 L 115 70 L 433 70 Z" unicode="∆" />
<glyph horiz-adv-x="643" d="M 214 647 L 214 0 L 119 0 L 119 647 L 15 647 L 15 730 L 628 730 L 628 647 L 530 647 L 530 0 L 434 0 L 434 647 L 214 647 Z" unicode="∏" />
<glyph horiz-adv-x="532" d="M 171 647 L 382 307 L 138 -96 L 503 -96 L 503 -179 L -15 -179 L 289 306 L 15 730 L 482 730 L 482 647 L 171 647 Z" unicode="∑" />
<glyph horiz-adv-x="471" d="M 431 293 L 41 293 L 41 370 L 431 370 L 431 293 Z" unicode="−" />
<glyph horiz-adv-x="510" d="M 502 730 L 198 0 L 186 0 L 13 329 L 79 378 L 203 130 L 443 730 L 502 730 Z" unicode="√" />
<glyph horiz-adv-x="338" d="M 107 -27 L 165 628 C 168 664 182 692 207 712 C 231 731 256 741 282 741 C 295 741 308 740 321 739 C 334 738 342 737 345 737 L 338 656 C 336 656 332 657 326 658 C 320 658 314 659 308 659 C 289 659 273 652 261 640 C 249 627 242 607 240 581 L 184 -60 C 181 -92 168 -120 145 -144 C 121 -168 92 -179 58 -179 C 39 -179 22 -177 6 -173 C -10 -169 -22 -165 -30 -161 L -20 -96 C -16 -96 -9 -98 0 -101 C 9 -103 18 -105 27 -105 C 47 -105 64 -98 80 -84 C 95 -70 104 -51 107 -27 Z" unicode="∫" />
<glyph horiz-adv-x="471" d="M 375 499 L 443 499 C 442 451 433 412 417 382 C 401 352 376 337 343 337 C 321 337 300 341 280 351 C 260 360 244 371 232 383 C 219 394 206 404 194 413 C 182 422 168 427 154 427 C 140 427 127 419 114 403 C 101 387 95 366 95 340 L 28 340 C 28 390 37 429 57 458 C 77 486 103 501 136 501 C 158 501 179 495 199 484 C 219 473 235 462 249 451 C 261 440 272 430 284 422 C 295 413 308 409 322 409 C 340 409 354 416 362 431 C 370 445 375 468 375 499 Z M 375 322 L 443 322 C 442 274 433 235 417 205 C 401 175 376 161 343 161 C 321 161 300 165 281 174 C 261 182 245 193 232 206 C 219 218 207 228 195 236 C 183 244 170 248 156 248 C 142 248 128 240 115 226 C 101 212 95 191 95 164 L 28 164 C 28 213 37 252 57 281 C 77 309 103 324 136 324 C 158 324 179 318 198 306 C 216 294 232 281 246 269 C 258 258 271 249 283 242 C 295 234 308 231 322 231 C 340 231 354 238 362 252 C 370 266 375 289 375 322 Z" unicode="≈" />
<glyph horiz-adv-x="471" d="M 429 176 L 220 176 L 177 67 L 116 85 L 152 176 L 56 176 L 56 250 L 182 250 L 238 392 L 56 392 L 56 466 L 268 466 L 309 570 L 370 552 L 336 466 L 429 466 L 429 392 L 306 392 L 250 250 L 429 250 L 429 176 Z" unicode="≠" />
<glyph horiz-adv-x="471" d="M 51 295 L 51 355 L 419 552 L 419 473 L 141 327 L 418 185 L 418 106 L 51 295 Z M 50 93 L 418 93 L 418 23 L 50 23 L 50 93 Z" unicode="≤" />
<glyph horiz-adv-x="471" d="M 417 295 L 51 106 L 51 185 L 326 327 L 49 473 L 49 552 L 417 355 L 417 295 Z M 418 93 L 418 23 L 50 23 L 50 93 L 418 93 Z" unicode="≥" />
<glyph horiz-adv-x="533" d="M 504 326 L 272 -16 L 261 -16 L 30 326 L 30 337 L 261 678 L 272 678 L 504 337 L 504 326 Z M 417 327 L 417 336 L 271 556 L 263 556 L 117 336 L 117 327 L 263 106 L 271 106 L 417 327 Z" unicode="◊" />
<glyph horiz-adv-x="730" d="M 448 678 L 282 678 L 282 730 L 448 730 L 448 678 Z M 659 282 L 605 282 L 605 448 L 659 448 L 659 282 Z M 125 282 L 71 282 L 71 448 L 125 448 L 125 282 Z M 428 302 L 302 302 L 302 428 L 428 428 L 428 302 Z M 448 0 L 282 0 L 282 53 L 448 53 L 448 0 Z" unicode="" />
<glyph horiz-adv-x="410" d="M 217 441 L 152 441 L 152 0 L 61 0 L 61 441 L 17 441 L 17 510 L 61 510 L 61 646 C 61 669 65 690 73 709 C 81 728 91 744 104 758 C 116 772 131 782 147 790 C 163 798 178 802 194 802 C 214 802 232 799 250 795 C 267 790 279 785 286 781 L 263 718 C 259 720 251 723 240 726 C 229 728 219 730 211 730 C 195 730 181 722 169 706 C 157 690 151 667 151 635 L 151 510 L 217 510 L 217 441 Z M 368 611 L 273 611 L 273 697 L 368 697 L 368 611 Z M 366 0 L 275 0 L 275 510 L 366 510 L 366 0 Z" unicode="ﬁ" />
<glyph horiz-adv-x="437" d="M 441 7 C 435 4 427 1 417 -1 C 407 -3 396 -5 382 -5 C 352 -5 328 4 308 22 C 288 40 278 67 278 103 L 278 759 L 263 718 C 259 720 251 723 240 726 C 229 728 219 730 211 730 C 195 730 181 722 169 706 C 157 690 151 667 151 635 L 151 540 L 221 540 L 221 459 L 152 459 L 152 0 L 61 0 L 61 459 L 9 459 L 9 540 L 61 540 L 61 646 C 61 669 65 690 73 709 C 81 728 91 744 104 758 C 116 772 131 782 147 790 C 163 798 178 802 194 802 C 210 802 226 800 242 797 C 257 794 269 790 278 786 L 278 800 L 369 800 L 369 120 C 369 105 372 94 378 88 C 384 82 393 79 406 79 C 410 79 414 79 418 80 C 421 80 424 81 427 82 L 441 7 Z" unicode="ﬂ" />
</font>
</defs>
</svg>
