<?xml version="1.0" encoding="utf-8" ?><svg version="1.1" xmlns = 'http://www.w3.org/2000/svg'><defs><font id='web' horiz-adv-x="1000">
<font-face font-family="web" descent="-200" cap-height="730" units-per-em="1000" bbox="-182,-318,1130,1014" x-height="436" ascent="800" />
<missing-glyph horiz-adv-x="500" d="" /><glyph horiz-adv-x="213" d="" unicode=" " />
<glyph horiz-adv-x="267" d="M 187 435 L 159 204 L 115 204 L 88 435 L 88 730 L 187 730 L 187 435 Z M 183 0 L 92 0 L 92 106 L 183 106 L 183 0 Z" unicode="!" />
<glyph horiz-adv-x="404" d="M 337 624 L 331 490 L 262 490 L 258 623 L 258 730 L 337 730 L 337 624 Z M 146 623 L 142 490 L 72 490 L 68 623 L 68 730 L 146 730 L 146 623 Z" unicode="&#x22;" />
<glyph horiz-adv-x="622" d="M 362 0 L 382 224 L 225 224 L 205 0 L 151 0 L 171 224 L 35 224 L 35 297 L 177 297 L 189 429 L 53 429 L 53 502 L 195 502 L 215 729 L 269 729 L 249 502 L 406 502 L 426 729 L 478 729 L 458 502 L 587 502 L 587 429 L 452 429 L 440 297 L 569 297 L 569 224 L 434 224 L 414 0 L 362 0 Z M 231 297 L 388 297 L 400 429 L 243 429 L 231 297 Z" unicode="#" />
<glyph horiz-adv-x="518" d="M 479 188 C 479 138 461 95 425 61 C 389 27 343 7 287 2 L 287 -120 L 226 -120 L 226 2 C 184 5 146 14 112 30 C 78 46 50 64 30 85 L 74 152 C 91 135 113 120 141 107 C 169 93 197 84 226 80 L 226 346 C 161 374 115 404 87 436 C 59 468 46 508 46 555 C 46 601 62 640 96 672 C 129 704 172 723 226 729 L 226 789 L 287 789 L 287 728 C 317 725 347 718 377 706 C 406 694 433 676 458 654 L 409 592 C 391 608 372 622 351 632 C 329 642 308 648 287 652 L 287 407 L 290 406 C 360 374 409 342 437 311 C 465 280 479 239 479 188 Z M 125 556 C 124 530 131 509 146 492 C 161 475 188 457 226 437 L 226 655 C 195 651 170 641 152 623 C 134 605 125 583 125 556 Z M 401 190 C 401 216 393 238 379 257 C 365 275 334 296 287 319 L 287 77 C 319 80 346 92 368 113 C 390 133 401 159 401 190 Z" unicode="$" />
<glyph horiz-adv-x="758" d="M 198 363 C 180 363 161 366 143 374 C 125 382 108 393 93 409 C 78 425 66 444 57 468 C 47 492 43 519 43 551 C 43 577 47 601 55 624 C 63 647 75 667 89 684 C 103 701 119 715 138 725 C 156 735 176 740 198 740 C 221 740 242 735 261 725 C 280 715 296 701 310 685 C 324 668 334 648 342 626 C 349 603 353 579 353 554 C 353 527 349 502 341 479 C 333 455 322 435 308 418 C 294 400 278 387 259 377 C 240 367 220 363 198 363 Z M 198 0 L 135 0 L 552 730 L 615 730 L 198 0 Z M 197 427 C 223 427 244 438 258 462 C 272 485 280 515 280 551 C 280 586 273 616 260 640 C 247 664 227 676 200 676 C 174 676 154 664 140 640 C 126 616 119 586 119 551 C 119 512 126 482 142 460 C 157 438 175 427 197 427 Z M 561 -3 C 542 -3 523 0 505 8 C 487 16 470 27 456 43 C 442 59 430 78 421 102 C 412 126 408 153 408 185 C 408 211 412 235 420 258 C 428 281 438 301 452 318 C 466 335 482 349 501 359 C 520 369 541 374 564 374 C 587 374 608 369 627 359 C 646 349 662 335 676 319 C 689 302 699 282 706 260 C 713 237 717 213 717 188 C 717 161 713 136 705 113 C 697 89 687 69 673 52 C 659 34 643 21 624 11 C 604 1 583 -3 561 -3 Z M 561 62 C 587 62 608 73 622 96 C 636 118 644 148 644 185 C 644 221 637 250 623 274 C 609 298 589 310 563 310 C 539 310 519 298 505 274 C 491 250 484 221 484 185 C 484 145 491 114 507 93 C 522 72 540 62 561 62 Z" unicode="%" />
<glyph horiz-adv-x="694" d="M 617 -4 L 527 85 C 490 55 451 32 410 16 C 369 0 326 -8 281 -8 C 245 -8 211 -3 180 4 C 149 12 123 24 101 40 C 79 56 61 75 49 99 C 37 122 31 148 31 178 C 31 206 35 231 45 253 C 55 274 68 293 85 310 C 101 327 121 343 143 357 C 165 371 188 385 212 400 L 192 420 C 173 439 155 462 137 490 C 119 517 111 549 111 585 C 111 604 115 623 125 641 C 134 659 147 676 164 690 C 180 704 200 715 223 724 C 245 732 270 737 297 737 C 323 737 347 732 369 724 C 391 716 409 705 425 691 C 441 677 453 661 462 643 C 470 624 475 605 475 585 C 475 545 461 510 435 480 C 409 450 373 420 327 390 L 534 191 C 547 205 560 221 573 238 C 586 254 599 272 611 290 L 671 248 C 657 228 644 209 630 191 C 616 173 601 156 587 141 L 673 58 L 617 -4 Z M 256 458 L 276 439 C 314 463 343 486 364 508 C 385 530 396 555 396 582 C 396 606 387 628 371 648 C 354 667 329 677 296 677 C 266 677 242 667 223 648 C 203 628 194 607 194 585 C 194 561 199 539 211 518 C 223 496 238 476 256 458 Z M 125 178 C 125 142 140 113 170 92 C 200 71 237 61 281 61 C 317 61 351 67 384 81 C 416 94 447 112 476 136 L 263 350 C 219 323 185 297 161 273 C 137 248 125 216 125 178 Z" unicode="&#x26;" />
<glyph horiz-adv-x="214" d="M 146 621 L 142 486 L 72 486 L 68 621 L 68 730 L 146 730 L 146 621 Z" unicode="'" />
<glyph horiz-adv-x="310" d="M 298 -98 L 298 -179 C 261 -159 226 -132 193 -100 C 159 -68 130 -31 106 9 C 82 50 62 95 48 143 C 33 191 26 241 26 293 C 26 347 33 398 48 446 C 63 494 83 538 108 577 C 133 616 162 650 195 680 C 228 709 262 732 298 749 L 298 669 C 275 654 253 635 231 612 C 209 588 190 561 174 530 C 158 498 145 463 135 423 C 125 383 120 339 120 292 C 120 250 124 210 132 172 C 140 133 152 97 168 63 C 183 29 202 0 224 -28 C 246 -56 270 -79 298 -98 Z" unicode="(" />
<glyph horiz-adv-x="310" d="M 12 668 L 12 749 C 45 733 78 711 111 683 C 143 655 172 621 198 581 C 223 541 243 496 259 446 C 275 396 283 341 283 283 C 283 228 275 176 259 128 C 243 80 223 36 198 -3 C 172 -42 143 -77 111 -107 C 78 -137 45 -161 12 -179 L 12 -94 C 37 -77 61 -56 84 -31 C 106 -5 126 23 144 55 C 161 87 175 122 185 161 C 195 199 200 240 200 283 C 200 333 194 378 183 420 C 172 462 158 499 140 531 C 122 563 102 591 80 614 C 57 637 34 655 12 668 Z" unicode=")" />
<glyph horiz-adv-x="397" d="M 359 589 L 232 556 L 325 465 L 270 418 L 200 532 L 129 419 L 72 464 L 167 556 L 36 586 L 70 658 L 180 594 L 162 730 L 238 730 L 219 594 L 332 656 L 359 589 Z" unicode="*" />
<glyph horiz-adv-x="512" d="M 476 299 L 290 299 L 290 117 L 222 117 L 222 299 L 36 299 L 36 363 L 222 363 L 222 545 L 290 545 L 290 363 L 476 363 L 476 299 Z" unicode="+" />
<glyph horiz-adv-x="230" d="M 193 99 C 190 77 185 54 177 31 C 169 7 159 -14 149 -36 C 138 -58 126 -78 113 -97 C 99 -116 86 -132 72 -145 L 10 -116 C 18 -106 26 -94 36 -79 C 46 -63 55 -46 64 -27 C 72 -8 80 12 88 34 C 96 56 102 77 106 99 L 193 99 Z" unicode="," />
<glyph horiz-adv-x="339" d="M 294 226 L 46 226 L 46 302 L 294 302 L 294 226 Z" unicode="-" />
<glyph horiz-adv-x="232" d="M 162 0 L 70 0 L 70 120 L 162 120 L 162 0 Z" unicode="." />
<glyph horiz-adv-x="318" d="M 314 730 L 82 0 L 4 0 L 238 730 L 314 730 Z" unicode="/" />
<glyph horiz-adv-x="577" d="M 285 -12 C 247 -12 212 -3 182 14 C 152 31 126 56 105 88 C 84 120 68 159 57 205 C 45 251 40 303 40 361 C 40 411 45 460 55 506 C 65 552 80 593 101 628 C 121 662 147 690 179 711 C 210 731 247 742 290 742 C 333 742 370 732 402 712 C 433 692 459 665 479 631 C 499 597 513 558 523 513 C 532 467 537 419 537 369 C 537 315 531 264 521 218 C 511 171 495 131 475 97 C 455 63 429 36 397 17 C 365 -2 327 -12 285 -12 Z M 286 64 C 314 64 339 71 360 86 C 381 101 398 122 412 148 C 425 174 435 206 441 242 C 447 278 451 317 451 359 C 451 401 448 441 442 479 C 436 516 426 548 414 576 C 401 604 384 626 363 642 C 342 658 317 666 288 666 C 260 666 236 658 216 643 C 195 627 178 606 165 579 C 152 552 142 520 136 483 C 129 445 126 405 126 361 C 126 318 129 278 136 242 C 142 205 152 174 165 148 C 178 122 195 101 215 86 C 235 71 259 64 286 64 Z" unicode="0" />
<glyph horiz-adv-x="367" d="M 277 0 L 191 0 L 191 600 C 183 591 174 582 163 574 C 151 565 139 557 126 550 C 112 543 99 537 85 532 C 71 527 59 524 48 523 L 48 607 C 80 609 110 622 138 645 C 166 667 193 696 219 731 L 277 731 L 277 0 Z" unicode="1" />
<glyph horiz-adv-x="552" d="M 517 0 L 32 0 L 32 23 L 349 370 C 372 394 391 419 405 447 C 419 474 426 502 426 532 C 426 571 411 602 382 626 C 353 650 317 662 273 662 C 223 662 185 647 157 619 C 129 590 115 551 115 501 L 36 501 C 36 578 58 637 103 679 C 147 721 205 742 277 742 C 310 742 341 737 370 729 C 399 720 424 707 445 691 C 465 674 481 653 493 628 C 505 603 511 574 511 542 C 511 490 500 447 478 412 C 456 376 434 346 411 322 L 173 75 L 517 75 L 517 0 Z" unicode="2" />
<glyph horiz-adv-x="545" d="M 255 -12 C 195 -12 144 -3 103 13 C 62 30 30 49 6 71 L 49 134 C 69 118 96 102 129 87 C 162 71 203 64 251 64 C 311 64 357 79 390 109 C 422 139 439 177 439 221 C 439 261 422 294 389 318 C 356 342 314 354 264 354 L 146 354 L 146 431 L 265 431 C 309 431 345 443 372 467 C 399 491 413 519 413 551 C 413 581 400 607 376 631 C 351 655 316 667 271 667 C 223 667 184 657 156 638 C 127 618 104 596 86 571 L 35 628 C 43 640 54 652 68 666 C 82 680 98 692 118 703 C 138 714 161 723 188 731 C 215 738 246 742 280 742 C 346 742 399 725 439 692 C 478 659 498 616 498 563 C 498 541 494 521 487 503 C 479 485 470 468 458 454 C 446 440 432 428 416 418 C 400 408 384 400 368 396 C 410 385 446 364 476 334 C 506 303 521 263 521 215 C 521 188 516 161 506 134 C 496 106 480 82 459 61 C 437 39 410 22 376 8 C 342 -5 302 -12 255 -12 Z" unicode="3" />
<glyph horiz-adv-x="578" d="M 566 190 L 441 190 L 441 0 L 361 0 L 361 190 L 18 190 L 18 243 L 386 743 L 441 743 L 441 262 L 566 262 L 566 190 Z M 362 262 L 362 601 L 113 262 L 362 262 Z" unicode="4" />
<glyph horiz-adv-x="565" d="M 272 -12 C 216 -12 167 -2 126 16 C 85 34 53 55 31 79 L 73 141 C 94 118 121 99 154 85 C 186 70 225 63 269 63 C 325 63 369 81 401 117 C 433 153 449 199 449 255 C 449 307 433 349 403 379 C 372 409 333 425 285 425 C 250 425 218 417 188 402 C 158 387 136 365 122 337 L 65 352 L 95 730 L 481 730 L 481 651 L 159 651 L 140 414 C 154 440 177 460 208 475 C 239 489 273 497 309 497 C 377 497 432 475 474 431 C 515 387 536 330 536 259 C 536 220 529 184 517 151 C 505 117 487 89 465 65 C 443 41 415 22 382 8 C 349 -5 312 -12 272 -12 Z" unicode="5" />
<glyph horiz-adv-x="547" d="M 286 -12 C 248 -12 214 -5 184 7 C 153 19 127 37 105 59 C 83 81 67 108 55 140 C 43 171 37 205 37 242 C 37 317 58 390 100 462 C 142 533 197 607 263 683 L 317 746 L 381 697 L 341 652 C 291 594 246 539 208 489 C 170 438 146 396 138 362 C 148 384 167 405 195 425 C 222 445 258 455 302 455 C 337 455 368 449 396 437 C 424 425 447 408 466 387 C 485 366 500 341 510 313 C 520 285 525 254 525 222 C 525 190 519 160 508 132 C 496 104 480 79 459 58 C 438 36 413 19 384 7 C 354 -5 322 -12 286 -12 Z M 289 63 C 335 63 372 78 400 109 C 428 140 443 177 443 219 C 443 264 429 302 403 333 C 377 364 338 380 288 380 C 268 380 248 376 229 370 C 209 363 192 353 177 340 C 162 327 150 311 141 292 C 131 272 127 250 127 226 C 127 178 141 138 170 108 C 198 78 238 63 289 63 Z" unicode="6" />
<glyph horiz-adv-x="492" d="M 492 730 L 497 706 L 141 -7 L 66 27 L 380 651 L 16 651 L 16 730 L 492 730 Z" unicode="7" />
<glyph horiz-adv-x="590" d="M 402 385 C 419 380 436 373 454 364 C 472 354 488 342 502 327 C 516 311 528 293 537 272 C 546 250 551 226 551 198 C 551 168 545 141 533 115 C 521 89 505 66 483 48 C 461 29 435 14 403 4 C 371 -6 336 -12 296 -12 C 216 -12 154 7 110 45 C 66 83 44 133 44 195 C 44 224 49 250 59 273 C 69 295 81 314 97 330 C 112 346 128 358 146 367 C 164 375 180 381 196 383 C 183 387 169 393 154 401 C 138 409 124 420 111 434 C 97 448 86 464 77 484 C 68 503 64 525 64 550 C 64 579 70 606 82 630 C 94 654 111 674 132 690 C 152 706 177 719 205 728 C 233 737 264 742 296 742 C 369 742 426 724 467 688 C 508 652 529 608 530 555 C 530 531 526 509 518 490 C 510 471 500 454 488 440 C 476 426 462 414 447 405 C 431 395 416 389 402 385 Z M 296 414 C 342 414 379 426 406 450 C 433 474 447 503 447 538 C 447 580 433 612 406 634 C 378 656 342 668 296 668 C 253 668 217 656 188 632 C 158 608 144 577 144 539 C 144 501 158 470 188 448 C 218 425 254 414 296 414 Z M 296 59 C 350 59 392 72 424 99 C 455 125 471 161 471 206 C 471 248 455 282 423 306 C 391 330 349 343 296 343 C 244 343 202 331 170 307 C 138 283 122 248 122 203 C 122 160 137 125 169 99 C 200 72 242 59 296 59 Z" unicode="8" />
<glyph horiz-adv-x="547" d="M 227 -12 L 169 43 L 219 92 C 241 113 262 136 284 161 C 305 185 324 210 342 235 C 359 260 374 285 386 309 C 398 333 406 355 410 376 C 398 351 377 329 347 309 C 317 289 282 280 243 280 C 208 280 177 286 149 298 C 121 310 98 326 80 347 C 61 368 47 393 37 421 C 27 449 22 480 22 513 C 22 544 27 574 39 602 C 50 630 66 655 87 676 C 108 697 134 714 164 727 C 194 739 227 746 264 746 C 298 746 331 740 361 728 C 391 716 417 699 439 677 C 461 655 478 629 491 598 C 503 566 510 532 510 494 C 510 452 504 411 493 371 C 482 331 467 293 448 257 C 428 221 406 186 380 153 C 354 119 327 88 299 59 L 227 -12 Z M 259 355 C 305 355 343 369 375 399 C 407 428 423 465 423 511 C 423 535 418 558 410 578 C 401 598 389 614 375 628 C 361 642 344 652 325 660 C 305 667 285 671 264 671 C 216 671 177 655 149 625 C 121 594 107 558 107 516 C 107 470 119 431 145 401 C 171 370 209 355 259 355 Z" unicode="9" />
<glyph horiz-adv-x="239" d="M 164 316 L 76 316 L 76 436 L 164 436 L 164 316 Z M 164 0 L 76 0 L 76 120 L 164 120 L 164 0 Z" unicode=":" />
<glyph horiz-adv-x="239" d="M 170 316 L 81 316 L 81 436 L 170 436 L 170 316 Z M 175 99 C 168 53 154 7 132 -38 C 110 -83 85 -119 57 -145 L -5 -116 C 3 -106 12 -94 22 -79 C 32 -63 41 -46 50 -27 C 59 -7 67 12 75 34 C 83 56 88 77 91 99 L 175 99 Z" unicode=";" />
<glyph horiz-adv-x="408" d="M 357 88 L 48 299 L 48 348 L 357 561 L 357 473 L 141 325 L 357 175 L 357 88 Z" unicode="&#x3C;" />
<glyph horiz-adv-x="508" d="M 451 390 L 59 390 L 59 462 L 451 462 L 451 390 Z M 451 179 L 59 179 L 59 251 L 451 251 L 451 179 Z" unicode="=" />
<glyph horiz-adv-x="408" d="M 357 299 L 48 88 L 48 175 L 267 325 L 48 474 L 48 561 L 357 348 L 357 299 Z" unicode="&#x3E;" />
<glyph horiz-adv-x="455" d="M 170 199 C 170 241 176 277 188 307 C 200 336 220 364 246 392 C 256 402 266 413 278 425 C 289 436 300 448 310 461 C 320 474 328 488 334 504 C 340 520 344 537 344 556 C 344 590 331 616 306 636 C 280 656 250 666 214 666 C 182 666 154 658 129 644 C 103 629 82 610 66 588 L 13 641 C 39 674 71 699 110 716 C 149 733 189 742 231 742 C 293 742 342 725 378 692 C 414 659 433 616 433 563 C 433 537 429 515 421 495 C 413 475 404 456 392 440 C 380 424 366 408 352 394 C 338 379 324 365 310 351 C 287 331 272 306 265 278 C 258 250 254 223 254 199 L 170 199 Z M 166 0 L 166 99 L 261 99 L 261 0 L 166 0 Z" unicode="?" />
<glyph horiz-adv-x="844" d="M 412 -36 C 358 -36 308 -26 262 -6 C 216 14 176 41 143 75 C 110 109 84 149 66 195 C 47 241 38 291 38 343 C 38 395 47 445 66 491 C 85 537 111 577 145 611 C 178 645 218 671 264 691 C 310 711 361 721 416 721 C 472 721 524 712 571 695 C 617 678 657 654 690 624 C 722 593 748 556 766 514 C 784 471 794 424 794 374 C 794 329 788 291 778 260 C 767 229 754 204 738 185 C 722 165 704 151 685 143 C 666 134 648 130 632 130 C 601 130 576 137 558 152 C 539 166 527 184 523 206 C 514 189 495 172 467 155 C 438 138 405 130 368 130 C 317 130 279 142 255 166 C 230 190 218 221 218 259 C 218 303 236 337 273 362 C 309 387 356 400 412 400 L 514 400 L 514 412 C 514 448 504 473 486 487 C 467 500 442 507 412 507 C 386 507 363 503 341 497 C 319 491 300 484 285 478 L 261 536 C 280 545 303 553 330 559 C 357 565 384 569 411 569 C 467 569 509 555 539 527 C 569 499 584 457 584 399 L 584 247 C 584 231 587 217 595 205 C 602 192 616 186 637 186 C 645 186 655 188 667 194 C 678 199 688 208 698 222 C 708 235 716 254 723 278 C 729 302 733 332 733 370 C 733 412 725 451 710 487 C 695 523 674 553 647 579 C 619 605 586 625 547 640 C 507 655 464 663 416 663 C 370 663 327 654 289 638 C 250 621 217 598 189 570 C 161 541 140 507 124 468 C 108 428 101 387 101 343 C 101 299 108 258 124 219 C 140 179 161 145 189 116 C 217 87 250 64 289 47 C 327 30 369 22 415 22 C 435 22 456 24 478 28 C 500 32 522 39 546 51 L 569 -2 C 541 -14 515 -23 489 -28 C 463 -33 437 -36 412 -36 Z M 383 191 C 412 191 440 197 467 211 C 493 224 509 237 514 251 L 514 342 L 412 342 C 372 342 343 335 324 321 C 305 307 296 289 296 265 C 296 243 303 225 319 211 C 334 197 355 191 383 191 Z" unicode="@" />
<glyph horiz-adv-x="654" d="M 650 0 L 557 0 L 475 204 L 175 204 L 94 0 L 3 0 L 303 733 L 355 733 L 650 0 Z M 446 282 L 324 582 L 204 282 L 446 282 Z" unicode="A" />
<glyph horiz-adv-x="597" d="M 97 0 L 97 730 L 313 730 C 374 730 424 714 462 683 C 500 652 519 611 519 559 C 519 507 505 466 479 435 C 453 403 420 384 381 377 C 401 375 422 370 443 362 C 463 354 482 344 499 330 C 515 316 529 299 539 278 C 549 257 555 233 555 206 C 555 142 533 92 489 55 C 445 18 387 0 316 0 L 97 0 Z M 185 407 L 293 407 C 317 407 338 410 356 418 C 373 425 387 435 398 447 C 409 459 417 472 422 488 C 426 503 429 519 429 535 C 429 569 417 596 393 617 C 369 638 337 649 298 649 L 185 649 L 185 407 Z M 185 79 L 321 79 C 371 79 407 91 430 117 C 452 142 464 173 464 210 C 464 247 449 277 421 299 C 393 321 358 332 316 332 L 185 332 L 185 79 Z" unicode="B" />
<glyph horiz-adv-x="711" d="M 409 -12 C 359 -12 313 -3 269 13 C 225 30 186 55 154 87 C 121 119 95 159 76 206 C 57 253 48 306 48 365 C 48 419 57 469 75 515 C 93 561 118 600 150 634 C 182 668 220 694 265 713 C 309 732 358 742 411 742 C 477 742 532 732 576 714 C 620 695 658 670 689 638 L 634 564 C 611 590 582 611 546 629 C 510 647 466 656 414 656 C 371 656 333 648 299 634 C 265 619 236 599 213 573 C 189 547 171 515 159 479 C 147 443 141 403 141 361 C 141 313 148 270 164 234 C 179 197 199 167 224 143 C 249 119 278 100 311 88 C 343 76 377 70 413 70 C 467 70 514 80 554 102 C 594 123 626 149 651 180 L 703 121 C 671 82 630 50 580 25 C 530 0 473 -12 409 -12 Z" unicode="C" />
<glyph horiz-adv-x="747" d="M 97 0 L 97 730 L 311 730 C 371 730 425 721 473 705 C 521 688 562 664 595 634 C 628 604 653 567 671 523 C 689 479 698 431 698 379 C 698 325 689 275 672 229 C 654 183 629 143 596 109 C 562 75 520 48 470 29 C 420 9 362 0 296 0 L 97 0 Z M 187 80 L 293 80 C 345 80 391 87 430 102 C 469 117 501 138 527 165 C 553 191 572 223 585 259 C 597 295 604 334 604 376 C 604 457 577 523 524 573 C 471 623 399 648 307 648 L 187 648 L 187 80 Z" unicode="D" />
<glyph horiz-adv-x="580" d="M 526 0 L 97 0 L 97 730 L 507 730 L 507 649 L 186 649 L 186 401 L 493 401 L 493 320 L 186 320 L 186 81 L 526 81 L 526 0 Z" unicode="E" />
<glyph horiz-adv-x="507" d="M 466 649 L 186 649 L 186 403 L 451 403 L 451 322 L 186 322 L 186 0 L 97 0 L 97 730 L 466 730 L 466 649 Z" unicode="F" />
<glyph horiz-adv-x="774" d="M 426 365 L 726 365 L 726 150 C 699 101 659 62 605 32 C 551 2 488 -12 416 -12 C 364 -12 315 -2 270 16 C 225 34 186 60 153 94 C 120 127 94 167 76 213 C 57 259 48 310 48 365 C 48 422 58 474 78 521 C 98 567 124 607 158 640 C 192 672 231 697 276 715 C 321 733 369 742 419 742 C 455 742 487 738 515 732 C 543 726 567 718 588 708 C 609 698 627 687 642 675 C 657 663 670 651 681 640 L 622 579 C 602 597 576 615 543 631 C 509 647 467 656 415 656 C 375 656 339 648 305 634 C 271 620 242 600 218 575 C 194 549 175 519 161 483 C 147 447 140 407 140 364 C 140 324 147 286 161 250 C 175 214 194 182 219 155 C 243 128 273 107 308 91 C 342 75 380 67 420 67 C 471 67 517 77 558 98 C 598 118 628 145 647 178 L 647 282 L 426 282 L 426 365 Z" unicode="G" />
<glyph horiz-adv-x="762" d="M 665 0 L 575 0 L 575 318 L 187 318 L 187 0 L 97 0 L 97 730 L 187 730 L 187 403 L 575 403 L 575 730 L 665 730 L 665 0 Z" unicode="H" />
<glyph horiz-adv-x="293" d="M 192 0 L 102 0 L 102 730 L 192 730 L 192 0 Z" unicode="I" />
<glyph horiz-adv-x="381" d="M 311 730 L 311 192 C 311 165 306 139 298 114 C 290 89 277 67 261 49 C 244 31 223 16 197 5 C 171 -6 141 -12 107 -12 C 90 -12 74 -11 59 -9 C 43 -7 31 -5 22 -3 L 23 78 C 29 75 41 73 58 71 C 75 69 90 68 102 68 C 142 68 173 79 195 101 C 217 123 229 151 229 184 L 229 730 L 311 730 Z" unicode="J" />
<glyph horiz-adv-x="688" d="M 679 0 L 562 0 L 281 326 L 187 216 L 187 0 L 97 0 L 97 730 L 187 730 L 187 332 L 524 730 L 634 730 L 339 393 L 679 0 Z" unicode="K" />
<glyph horiz-adv-x="498" d="M 489 0 L 97 0 L 97 730 L 187 730 L 187 81 L 489 81 L 489 0 Z" unicode="L" />
<glyph horiz-adv-x="912" d="M 815 0 L 729 0 L 729 550 L 470 177 L 438 177 L 183 545 L 183 0 L 97 0 L 97 730 L 152 730 L 458 295 L 760 730 L 815 730 L 815 0 Z" unicode="M" />
<glyph horiz-adv-x="782" d="M 685 0 L 623 0 L 183 565 L 183 0 L 97 0 L 97 730 L 165 730 L 598 167 L 598 730 L 685 730 L 685 0 Z" unicode="N" />
<glyph horiz-adv-x="844" d="M 425 -12 C 369 -12 317 -2 271 16 C 224 35 184 61 151 95 C 118 129 93 169 75 216 C 57 263 48 314 48 370 C 48 422 57 470 76 516 C 95 562 121 601 154 635 C 187 668 226 694 272 713 C 317 732 365 742 417 742 C 472 742 523 732 570 714 C 616 696 656 670 690 637 C 723 604 749 565 768 519 C 786 473 796 422 796 367 C 796 311 786 260 766 214 C 746 167 720 127 686 94 C 652 60 613 34 568 16 C 522 -2 475 -12 425 -12 Z M 424 72 C 463 72 500 79 534 93 C 568 107 597 127 622 153 C 647 179 667 210 681 247 C 695 284 703 325 703 371 C 703 412 695 450 681 486 C 667 521 647 551 622 576 C 597 601 567 621 533 635 C 498 649 460 657 420 657 C 380 657 342 650 308 637 C 274 623 244 604 220 579 C 195 554 176 524 162 488 C 148 452 141 411 141 366 C 141 320 148 278 163 242 C 178 205 198 174 224 149 C 250 124 280 105 314 92 C 348 78 385 72 424 72 Z" unicode="O" />
<glyph horiz-adv-x="589" d="M 97 0 L 97 730 L 332 730 C 398 730 452 711 495 674 C 537 637 559 585 559 519 C 559 487 553 457 543 430 C 533 402 518 379 499 359 C 479 339 456 324 429 313 C 401 301 371 296 337 296 L 187 296 L 187 0 L 97 0 Z M 187 378 L 321 378 C 368 378 404 391 430 417 C 455 443 468 477 468 519 C 468 561 453 593 423 615 C 393 637 356 648 312 648 L 187 648 L 187 378 Z" unicode="P" />
<glyph horiz-adv-x="831" d="M 707 -75 L 707 -162 C 641 -161 582 -146 531 -118 C 480 -90 443 -53 419 -9 C 363 -8 313 1 267 20 C 221 39 181 65 149 99 C 117 132 92 172 74 218 C 56 264 48 315 48 370 C 48 422 57 470 76 516 C 95 562 121 601 155 635 C 188 668 227 694 272 713 C 317 732 366 742 418 742 C 473 742 524 732 570 714 C 616 696 656 670 690 637 C 723 604 749 564 768 518 C 786 472 796 421 796 365 C 796 321 789 279 776 240 C 762 200 744 165 720 134 C 696 102 667 75 634 53 C 600 31 564 14 525 4 C 543 -20 569 -39 602 -53 C 635 -67 670 -74 707 -75 Z M 424 74 C 463 74 500 81 534 95 C 568 109 597 129 622 155 C 647 181 667 212 681 249 C 695 286 703 327 703 373 C 703 415 695 453 681 489 C 666 524 646 554 621 579 C 596 603 566 622 532 636 C 497 650 460 657 420 657 C 380 657 342 650 308 637 C 274 623 244 604 220 579 C 195 554 176 524 162 488 C 148 452 141 411 141 366 C 141 320 148 279 163 243 C 178 207 198 176 224 151 C 250 126 280 107 314 94 C 348 80 385 74 424 74 Z" unicode="Q" />
<glyph horiz-adv-x="613" d="M 97 0 L 97 730 L 306 730 C 367 730 417 712 456 677 C 495 641 515 593 515 531 C 515 498 510 469 501 444 C 491 419 479 398 464 382 C 448 365 431 352 411 343 C 391 333 370 328 349 326 L 346 323 L 578 0 L 473 0 L 257 303 L 186 303 L 186 0 L 97 0 Z M 186 382 L 283 382 C 325 382 359 394 385 418 C 411 442 425 476 425 520 C 425 556 412 587 388 611 C 363 635 330 648 288 648 L 186 648 L 186 382 Z" unicode="R" />
<glyph horiz-adv-x="498" d="M 261 -12 C 211 -12 165 -4 125 12 C 85 28 51 50 25 79 L 77 148 C 97 124 123 105 156 91 C 189 77 223 70 257 70 C 294 70 325 80 349 101 C 373 122 386 150 386 184 C 386 213 375 239 353 261 C 331 283 295 306 243 329 C 183 354 136 384 101 418 C 66 452 49 499 49 561 C 49 613 67 656 104 690 C 140 724 189 742 249 742 C 289 742 325 735 357 723 C 389 711 419 694 446 673 L 402 601 C 381 619 358 633 333 644 C 308 654 282 660 256 660 C 218 660 189 649 167 629 C 145 609 135 585 135 558 C 135 526 145 500 167 480 C 189 460 231 436 293 410 C 358 381 404 349 432 315 C 459 281 473 238 473 186 C 473 155 467 127 455 103 C 443 78 428 57 409 40 C 389 23 367 10 341 1 C 315 -7 289 -12 261 -12 Z" unicode="S" />
<glyph horiz-adv-x="529" d="M 519 649 L 306 649 L 306 0 L 216 0 L 216 649 L 10 649 L 10 730 L 519 730 L 519 649 Z" unicode="T" />
<glyph horiz-adv-x="739" d="M 650 730 L 650 266 C 650 222 642 183 628 149 C 613 114 593 85 568 61 C 543 37 513 19 479 7 C 445 -5 408 -12 369 -12 C 330 -12 293 -6 259 6 C 225 18 195 35 170 59 C 145 83 125 112 111 147 C 96 181 89 221 89 266 L 89 730 L 176 730 L 176 257 C 176 229 181 204 191 182 C 201 159 214 139 231 123 C 248 107 268 94 292 85 C 315 75 340 71 367 71 C 393 71 419 75 443 84 C 467 92 487 105 505 121 C 523 137 537 156 547 179 C 557 202 563 228 563 257 L 563 730 L 650 730 Z" unicode="U" />
<glyph horiz-adv-x="656" d="M 655 730 L 351 -6 L 299 -6 L 3 730 L 97 730 L 329 146 L 562 730 L 655 730 Z" unicode="V" />
<glyph horiz-adv-x="922" d="M 916 730 L 689 -8 L 641 -8 L 462 565 L 277 -8 L 229 -8 L 7 730 L 96 730 L 258 174 L 441 730 L 490 730 L 667 174 L 832 730 L 916 730 Z" unicode="W" />
<glyph horiz-adv-x="604" d="M 492 0 L 302 302 L 109 0 L 11 0 L 253 378 L 31 730 L 132 730 L 304 458 L 478 730 L 575 730 L 352 381 L 593 0 L 492 0 Z" unicode="X" />
<glyph horiz-adv-x="644" d="M 641 730 L 365 328 L 365 0 L 275 0 L 275 331 L 2 730 L 104 730 L 324 410 L 544 730 L 641 730 Z" unicode="Y" />
<glyph horiz-adv-x="590" d="M 549 730 L 549 692 L 142 81 L 563 81 L 563 0 L 16 0 L 16 36 L 421 649 L 50 649 L 50 730 L 549 730 Z" unicode="Z" />
<glyph horiz-adv-x="290" d="M 247 -179 L 69 -179 L 69 730 L 247 730 L 247 658 L 148 658 L 148 -107 L 247 -107 L 247 -179 Z" unicode="[" />
<glyph horiz-adv-x="318" d="M 4 730 L 79 730 L 314 0 L 237 0 L 4 730 Z" unicode="\" />
<glyph horiz-adv-x="290" d="M 221 -179 L 42 -179 L 42 -107 L 141 -107 L 141 658 L 42 658 L 42 730 L 221 730 L 221 -179 Z" unicode="]" />
<glyph horiz-adv-x="509" d="M 436 369 L 362 369 L 253 639 L 150 369 L 78 369 L 218 730 L 289 730 L 436 369 Z" unicode="^" />
<glyph horiz-adv-x="500" d="M 500 -162 L 0 -162 L 0 -86 L 500 -86 L 500 -162 Z" unicode="_" />
<glyph horiz-adv-x="500" d="M 345 498 L 261 498 L 140 662 L 238 662 L 345 498 Z" unicode="`" />
<glyph horiz-adv-x="475" d="M 418 0 L 340 0 L 340 59 C 327 42 307 26 281 11 C 255 -4 223 -12 186 -12 C 131 -12 90 1 62 28 C 34 54 21 89 21 131 C 21 176 38 212 74 238 C 109 264 159 278 225 282 L 337 288 L 337 299 C 337 326 327 346 308 360 C 289 374 264 381 234 381 C 203 381 175 376 150 366 C 125 356 106 346 94 337 L 59 395 C 74 407 97 419 128 431 C 159 442 197 448 241 448 C 291 448 333 435 367 411 C 401 387 418 348 418 296 L 418 0 Z M 338 114 L 338 225 L 230 220 C 190 218 158 209 136 195 C 114 180 103 160 103 135 C 103 110 111 91 129 78 C 147 64 170 58 199 58 C 231 58 259 64 285 77 C 311 89 328 102 338 114 Z" unicode="a" />
<glyph horiz-adv-x="540" d="M 311 -7 C 265 -7 228 3 199 23 C 170 43 151 65 143 90 L 143 0 L 65 0 L 65 730 L 146 730 L 146 349 C 154 371 172 393 201 415 C 230 437 266 448 308 448 C 339 448 367 442 392 431 C 417 419 438 404 456 384 C 474 364 487 341 497 314 C 507 287 512 258 512 227 C 512 192 506 160 495 131 C 484 102 470 77 452 57 C 434 37 412 21 388 10 C 363 -1 337 -7 311 -7 Z M 288 57 C 328 57 361 71 387 101 C 412 131 425 171 425 221 C 425 267 413 305 389 336 C 365 367 331 383 285 383 C 267 383 249 379 233 371 C 216 363 201 353 188 339 C 175 325 165 307 157 287 C 149 266 146 243 146 217 C 146 191 150 169 158 149 C 166 129 176 113 190 99 C 203 85 218 75 235 68 C 252 60 270 57 288 57 Z" unicode="b" />
<glyph horiz-adv-x="462" d="M 385 135 L 454 96 C 439 70 416 45 384 23 C 352 0 309 -11 255 -11 C 221 -11 190 -5 162 6 C 134 18 110 34 90 54 C 70 74 55 99 45 127 C 34 155 29 185 29 218 C 29 250 34 281 46 309 C 58 337 74 361 95 382 C 115 402 140 419 168 431 C 196 443 226 449 259 449 C 311 449 353 437 386 415 C 419 393 443 369 457 343 L 380 304 C 368 324 352 341 332 354 C 312 367 288 374 258 374 C 216 374 181 358 155 328 C 128 298 115 261 115 218 C 115 174 128 137 154 107 C 180 77 215 63 258 63 C 294 63 322 71 342 88 C 361 104 375 120 385 135 Z" unicode="c" />
<glyph horiz-adv-x="538" d="M 236 -8 C 204 -8 176 -2 151 9 C 125 21 104 36 86 56 C 68 76 54 99 44 125 C 34 151 29 179 29 209 C 29 244 34 276 45 306 C 56 336 71 361 90 382 C 108 403 130 419 156 431 C 182 443 209 449 238 449 C 277 449 310 440 337 422 C 363 404 382 384 392 363 L 392 730 L 473 730 L 473 0 L 395 0 L 395 94 C 386 68 368 45 340 24 C 312 2 278 -8 236 -8 Z M 258 58 C 294 58 325 73 353 103 C 381 133 395 173 395 223 C 395 249 391 272 383 292 C 375 312 364 328 351 342 C 338 355 323 365 306 372 C 288 378 271 382 253 382 C 212 382 179 366 153 336 C 127 306 115 267 115 219 C 115 175 127 137 152 105 C 176 73 212 58 258 58 Z" unicode="d" />
<glyph horiz-adv-x="498" d="M 268 -11 C 234 -11 202 -5 173 4 C 143 14 118 29 97 49 C 76 68 60 92 48 120 C 36 148 30 179 30 215 C 30 247 35 278 47 306 C 58 334 74 359 94 380 C 114 401 138 418 167 430 C 195 442 227 449 261 449 C 327 449 380 426 421 382 C 462 338 483 275 483 194 L 107 194 C 109 153 124 120 153 95 C 181 70 220 58 268 58 C 309 58 340 64 361 77 C 382 89 398 102 410 116 L 462 67 C 443 46 420 28 392 12 C 364 -3 323 -11 268 -11 Z M 110 259 L 403 259 C 401 291 388 319 362 344 C 336 368 302 381 258 381 C 214 381 179 368 153 344 C 127 319 112 291 110 259 Z" unicode="e" />
<glyph horiz-adv-x="304" d="M 299 362 L 191 362 L 191 0 L 108 0 L 108 362 L 18 362 L 18 436 L 108 436 L 108 567 C 108 595 112 620 120 642 C 128 663 139 680 153 694 C 167 708 183 718 201 725 C 219 731 237 735 256 735 C 266 735 277 734 287 733 C 297 731 306 730 312 728 L 310 646 C 306 647 300 648 294 650 C 287 651 279 652 271 652 C 250 652 231 644 215 628 C 199 612 191 591 191 563 L 191 436 L 299 436 L 299 362 Z" unicode="f" />
<glyph horiz-adv-x="538" d="M 235 -4 C 203 -4 175 1 149 13 C 123 24 102 40 84 60 C 66 80 53 103 43 131 C 33 158 29 187 29 219 C 29 286 48 341 88 384 C 127 427 177 449 237 449 C 275 449 309 440 337 422 C 365 404 385 383 395 361 L 395 436 L 473 436 L 473 32 C 473 -6 467 -40 455 -68 C 443 -96 426 -120 406 -138 C 386 -156 362 -170 334 -179 C 306 -187 277 -192 247 -192 C 201 -192 164 -187 138 -178 C 112 -169 92 -160 78 -152 L 109 -87 C 119 -95 135 -103 157 -112 C 178 -121 206 -126 240 -126 C 259 -126 278 -123 297 -118 C 315 -112 332 -104 346 -93 C 360 -81 371 -67 379 -50 C 387 -32 392 -12 392 11 L 392 91 C 383 65 364 43 336 24 C 307 5 273 -4 235 -4 Z M 257 57 C 295 57 327 72 354 103 C 381 134 395 174 395 222 C 395 270 380 308 352 338 C 324 368 289 383 249 383 C 212 383 180 368 154 338 C 128 308 115 268 115 220 C 115 174 127 135 153 104 C 178 72 213 57 257 57 Z" unicode="g" />
<glyph horiz-adv-x="524" d="M 464 0 L 381 0 L 381 281 C 381 313 371 338 352 356 C 332 374 306 383 274 383 C 241 383 212 372 186 351 C 160 329 148 297 148 255 L 148 0 L 65 0 L 65 730 L 143 730 L 143 347 C 151 375 169 399 197 419 C 225 439 261 449 305 449 C 353 449 391 435 420 408 C 449 380 464 343 464 295 L 464 0 Z" unicode="h" />
<glyph horiz-adv-x="224" d="M 69 539 L 69 627 L 156 627 L 156 539 L 69 539 Z M 71 0 L 71 436 L 154 436 L 154 0 L 71 0 Z" unicode="i" />
<glyph horiz-adv-x="214" d="M 151 539 L 64 539 L 64 627 L 151 627 L 151 539 Z M 149 436 L 149 -69 C 149 -106 137 -138 114 -164 C 91 -190 60 -202 22 -202 C 14 -202 4 -201 -7 -200 C -18 -198 -26 -197 -32 -196 L -30 -127 C -27 -127 -22 -128 -15 -129 C -8 -129 -2 -130 3 -130 C 19 -130 34 -124 47 -112 C 59 -100 66 -82 66 -58 L 66 436 L 149 436 Z" unicode="j" />
<glyph horiz-adv-x="482" d="M 495 0 L 395 0 L 233 200 L 147 109 L 147 0 L 65 0 L 65 730 L 143 730 L 143 199 L 358 436 L 455 436 L 286 256 L 495 0 Z" unicode="k" />
<glyph horiz-adv-x="217" d="M 150 730 L 150 0 L 67 0 L 67 730 L 150 730 Z" unicode="l" />
<glyph horiz-adv-x="836" d="M 65 0 L 65 436 L 145 436 L 145 353 C 153 379 171 401 200 420 C 229 439 265 449 307 449 C 343 449 374 440 399 423 C 424 405 440 382 446 352 L 450 352 C 459 380 478 404 508 422 C 538 440 573 449 615 449 C 665 449 704 435 733 407 C 762 379 777 342 777 296 L 777 0 L 695 0 L 695 281 C 695 311 685 336 667 355 C 648 373 622 383 588 383 C 572 383 557 380 542 375 C 526 370 513 362 501 352 C 489 341 480 327 473 311 C 465 295 462 276 462 254 L 462 0 L 380 0 L 380 281 C 380 311 370 336 352 355 C 333 373 307 383 273 383 C 239 383 209 371 184 349 C 159 327 147 295 147 253 L 147 0 L 65 0 Z" unicode="m" />
<glyph horiz-adv-x="523" d="M 464 0 L 381 0 L 381 282 C 381 312 371 337 352 355 C 333 373 307 383 273 383 C 240 383 211 372 186 350 C 160 328 148 295 148 251 L 148 0 L 65 0 L 65 436 L 145 436 L 145 355 C 155 381 174 404 203 422 C 232 440 265 449 303 449 C 352 449 391 435 420 407 C 449 379 464 342 464 296 L 464 0 Z" unicode="n" />
<glyph horiz-adv-x="527" d="M 260 -11 C 230 -11 202 -5 174 5 C 146 15 122 30 100 50 C 78 70 61 94 48 122 C 35 150 29 182 29 217 C 29 248 35 278 47 306 C 59 334 76 359 97 380 C 117 401 142 418 170 430 C 198 442 227 449 258 449 C 290 449 320 443 350 433 C 379 422 404 407 426 388 C 448 368 465 345 478 318 C 491 291 498 261 498 229 C 498 195 491 163 479 134 C 467 104 450 79 429 58 C 407 36 382 19 353 7 C 324 -4 293 -11 260 -11 Z M 263 61 C 306 61 342 76 370 106 C 398 136 412 176 412 224 C 412 266 398 302 370 332 C 342 362 304 377 256 377 C 216 377 183 362 156 333 C 128 303 115 266 115 220 C 115 170 129 131 158 103 C 186 75 221 61 263 61 Z" unicode="o" />
<glyph horiz-adv-x="540" d="M 65 -200 L 65 436 L 143 436 L 143 346 C 151 370 171 393 201 415 C 231 437 268 448 312 448 C 342 448 369 442 394 431 C 418 419 439 404 457 384 C 474 364 487 340 497 313 C 507 285 512 256 512 225 C 512 188 506 155 494 126 C 482 97 467 73 449 53 C 430 33 409 18 385 8 C 361 -1 337 -7 314 -7 C 272 -7 235 2 205 22 C 174 41 154 62 146 86 L 146 -200 L 65 -200 Z M 293 57 C 330 57 361 71 387 100 C 412 129 425 169 425 219 C 425 265 413 303 389 335 C 365 366 330 382 285 382 C 247 382 214 367 187 338 C 159 309 146 268 146 214 C 146 188 150 165 158 145 C 166 125 177 109 191 96 C 204 83 220 73 238 67 C 256 60 274 57 293 57 Z" unicode="p" />
<glyph horiz-adv-x="538" d="M 392 -200 L 392 89 C 382 64 363 42 336 22 C 309 2 276 -8 236 -8 C 204 -8 176 -2 151 9 C 125 20 104 36 86 56 C 68 76 54 99 44 127 C 34 154 30 183 30 215 C 30 249 35 280 47 309 C 58 337 73 362 92 383 C 110 403 132 419 158 431 C 183 443 210 449 238 449 C 277 449 310 439 338 421 C 365 403 383 383 392 362 L 392 436 L 473 436 L 473 -200 L 392 -200 Z M 257 58 C 273 58 290 61 307 69 C 323 77 338 88 351 102 C 364 116 375 134 383 155 C 391 175 395 198 395 224 C 395 250 391 272 383 292 C 375 312 365 328 352 342 C 339 355 324 365 307 372 C 290 378 273 382 255 382 C 212 382 178 367 153 338 C 128 308 116 271 116 225 C 116 178 128 138 152 106 C 176 74 211 58 257 58 Z" unicode="q" />
<glyph horiz-adv-x="382" d="M 378 418 L 345 348 C 330 359 315 367 300 371 C 285 375 271 377 258 377 C 230 377 205 365 182 343 C 159 320 148 289 148 251 L 148 0 L 65 0 L 65 436 L 145 436 L 145 353 C 147 363 152 373 160 384 C 168 395 177 405 189 415 C 201 424 214 432 230 438 C 246 444 263 448 283 448 C 302 448 320 445 337 440 C 353 434 367 427 378 418 Z" unicode="r" />
<glyph horiz-adv-x="382" d="M 202 -12 C 162 -12 127 -7 99 3 C 71 13 47 27 28 46 L 71 103 C 85 89 104 78 126 70 C 148 62 173 58 201 58 C 223 58 240 63 254 74 C 268 84 275 99 275 118 C 275 134 267 148 251 159 C 235 169 209 180 173 191 C 129 203 95 220 73 240 C 50 260 39 288 39 322 C 39 359 53 389 82 413 C 110 436 147 448 191 448 C 223 448 252 443 278 433 C 303 423 323 412 338 401 L 298 346 C 286 354 271 361 252 369 C 233 377 212 381 190 381 C 171 381 154 377 138 369 C 122 361 115 350 115 334 C 115 321 120 310 130 302 C 140 293 165 282 205 270 C 253 255 289 237 314 216 C 338 194 351 164 351 126 C 351 84 337 50 309 25 C 281 0 246 -12 202 -12 Z" unicode="s" />
<glyph horiz-adv-x="253" d="M 242 67 L 242 -3 C 239 -3 233 -4 225 -5 C 216 -5 207 -6 197 -6 C 182 -6 167 -4 152 -1 C 137 2 123 8 111 16 C 99 24 89 36 81 50 C 73 64 70 81 70 103 L 70 362 L 9 362 L 9 436 L 70 436 L 70 534 L 153 545 L 153 436 L 237 436 L 237 362 L 153 362 L 153 120 C 153 98 158 83 170 76 C 181 68 196 65 215 65 C 218 65 223 65 230 65 C 237 65 241 66 242 67 Z" unicode="t" />
<glyph horiz-adv-x="524" d="M 60 436 L 142 436 L 142 156 C 142 124 151 100 171 83 C 191 65 217 57 250 57 C 284 57 313 67 338 88 C 363 108 376 140 376 182 L 376 436 L 458 436 L 458 0 L 378 0 L 378 86 C 365 57 344 34 315 16 C 286 -1 253 -10 217 -10 C 171 -10 134 3 104 31 C 74 58 60 96 60 145 L 60 436 Z" unicode="u" />
<glyph horiz-adv-x="465" d="M 468 436 L 251 -3 L 207 -3 L -3 436 L 88 436 L 234 116 L 382 436 L 468 436 Z" unicode="v" />
<glyph horiz-adv-x="666" d="M 454 -3 L 335 291 L 211 -3 L 165 -3 L 7 436 L 94 436 L 198 122 L 315 404 L 361 404 L 474 122 L 579 436 L 659 436 L 501 -3 L 454 -3 Z" unicode="w" />
<glyph horiz-adv-x="421" d="M 318 0 L 208 163 L 94 0 L 6 0 L 165 227 L 25 436 L 120 436 L 213 297 L 311 436 L 399 436 L 256 232 L 412 0 L 318 0 Z" unicode="x" />
<glyph horiz-adv-x="470" d="M 469 436 L 213 -91 C 190 -137 165 -166 139 -180 C 113 -193 89 -200 67 -200 C 53 -200 41 -198 31 -196 C 21 -193 13 -191 8 -189 L 30 -112 C 32 -113 37 -115 45 -117 C 53 -119 60 -121 68 -121 C 83 -121 97 -116 110 -106 C 123 -96 137 -78 151 -50 L 192 34 L -2 436 L 89 436 L 234 113 L 383 436 L 469 436 Z" unicode="y" />
<glyph horiz-adv-x="384" d="M 366 436 L 366 397 L 137 74 L 372 74 L 372 0 L 11 0 L 11 24 L 248 362 L 25 362 L 25 436 L 366 436 Z" unicode="z" />
<glyph horiz-adv-x="317" d="M 284 -179 C 222 -178 170 -163 130 -134 C 90 -105 70 -70 70 -28 C 70 -3 73 19 79 40 C 85 60 91 79 99 95 C 105 111 112 126 119 140 C 125 154 129 169 129 184 C 129 200 120 216 102 231 C 84 246 59 254 28 254 L 28 316 C 59 316 84 324 103 340 C 122 356 132 373 132 393 C 132 399 128 411 122 427 C 115 443 107 460 99 478 C 90 496 83 514 78 532 C 72 550 70 568 70 586 C 70 606 75 626 86 646 C 96 665 111 682 130 697 C 148 712 171 724 197 734 C 223 743 252 748 284 749 L 284 688 C 247 687 216 676 192 655 C 168 634 156 609 156 580 C 156 569 157 557 161 543 C 164 529 169 515 176 501 C 186 481 194 462 202 445 C 210 428 214 413 214 400 C 214 372 205 348 188 327 C 170 306 143 292 107 285 C 145 277 172 263 189 242 C 205 221 214 198 214 174 C 214 154 210 137 203 123 C 195 109 188 94 181 80 C 173 65 166 50 162 34 C 157 18 155 4 155 -10 C 155 -35 166 -59 190 -82 C 213 -105 244 -117 284 -118 L 284 -179 Z" unicode="{" />
<glyph horiz-adv-x="257" d="M 168 -179 L 89 -179 L 89 730 L 168 730 L 168 -179 Z" unicode="|" />
<glyph horiz-adv-x="317" d="M 33 -179 L 33 -118 C 72 -117 103 -105 127 -82 C 150 -59 162 -35 162 -10 C 162 4 159 18 155 34 C 150 50 144 65 136 80 C 128 94 121 109 114 123 C 106 137 103 154 103 174 C 103 198 111 221 128 242 C 144 263 172 277 210 285 C 173 292 146 306 129 327 C 111 348 103 372 103 400 C 103 413 106 428 114 445 C 122 462 131 481 141 501 C 147 515 152 529 156 543 C 159 557 161 569 161 580 C 161 609 148 634 124 655 C 100 676 69 687 33 688 L 33 749 C 64 748 93 743 119 734 C 145 724 168 712 187 697 C 205 682 220 665 230 646 C 240 626 246 606 246 586 C 246 568 243 550 238 532 C 233 514 226 496 218 478 C 209 460 201 443 195 427 C 188 411 185 399 185 393 C 185 373 194 356 213 340 C 231 324 257 316 289 316 L 289 254 C 257 254 232 246 214 231 C 196 216 187 200 187 184 C 187 169 190 154 197 140 C 204 126 211 111 218 95 C 225 79 232 60 238 40 C 244 19 247 -3 247 -28 C 247 -70 226 -105 186 -134 C 146 -163 95 -178 33 -179 Z" unicode="}" />
<glyph horiz-adv-x="500" d="M 392 437 L 465 437 C 465 378 456 335 438 308 C 420 280 394 267 358 267 C 335 267 315 271 298 281 C 280 291 265 301 252 312 C 238 323 223 333 209 342 C 195 351 180 356 165 356 C 150 356 137 348 125 334 C 113 319 108 298 108 270 L 36 270 C 36 328 46 371 66 399 C 86 427 109 442 136 442 C 162 442 185 437 205 427 C 224 417 242 406 260 393 C 272 382 286 372 300 363 C 314 354 329 350 347 350 C 365 350 377 357 383 371 C 389 385 392 407 392 437 Z" unicode="~" />
<glyph horiz-adv-x="299" d="M 104 585 L 195 585 L 195 480 L 104 480 L 104 585 Z M 100 150 L 129 382 L 173 382 L 199 150 L 199 -130 L 100 -130 L 100 150 Z" unicode="¡" />
<glyph horiz-adv-x="573" d="M 553 195 C 534 168 509 142 477 116 C 445 90 403 75 349 71 L 349 -33 L 278 -33 L 278 73 C 210 81 154 110 112 159 C 69 207 48 267 48 339 C 48 374 53 407 65 439 C 76 470 92 498 112 522 C 132 546 157 566 185 582 C 213 598 244 608 278 613 L 278 711 L 349 711 L 349 615 C 401 610 444 595 478 569 C 512 543 537 514 552 482 L 483 451 C 470 472 452 492 430 510 C 408 528 381 539 349 544 L 349 143 C 387 147 417 159 439 179 C 461 199 478 218 491 238 L 553 195 Z M 130 343 C 130 293 143 249 170 213 C 196 177 232 154 278 145 L 278 542 C 234 532 198 508 171 471 C 143 433 130 391 130 343 Z" unicode="¢" />
<glyph horiz-adv-x="586" d="M 577 75 L 577 0 L 16 0 L 16 51 C 22 53 32 56 46 59 C 60 62 81 66 107 71 C 133 75 157 86 180 103 C 202 120 214 144 214 176 C 214 183 213 190 211 198 C 209 205 206 213 204 221 L 29 221 L 29 282 L 172 282 C 165 292 158 303 151 315 C 143 327 136 339 129 351 L 29 351 L 29 413 L 97 413 C 88 432 81 452 76 474 C 70 496 68 519 68 543 C 68 580 75 611 89 637 C 103 663 121 683 145 699 C 168 714 195 725 226 732 C 256 738 288 742 322 742 C 378 742 428 732 474 714 C 520 696 553 678 574 662 L 525 590 C 506 604 478 619 442 636 C 406 652 366 661 323 661 C 301 661 281 658 261 654 C 241 650 223 643 208 633 C 192 623 180 609 171 592 C 161 574 157 553 157 528 C 157 508 160 488 167 469 C 173 450 181 431 191 413 L 491 413 L 491 351 L 228 351 C 235 339 242 327 249 315 C 256 303 262 292 268 282 L 491 282 L 491 221 L 288 221 C 288 219 289 218 289 216 C 289 214 289 212 289 211 C 289 191 285 173 279 157 C 272 141 264 128 254 117 C 244 106 232 97 220 90 C 208 82 196 77 186 75 L 577 75 Z" unicode="£" />
<glyph horiz-adv-x="502" d="M 440 188 L 402 150 L 343 211 C 329 203 315 196 299 192 C 283 188 266 186 250 186 C 233 186 217 188 201 192 C 185 196 170 203 157 211 L 98 150 L 58 190 L 114 248 C 101 262 91 279 84 297 C 77 315 74 334 74 354 C 74 374 77 394 84 412 C 91 430 101 446 114 461 L 58 519 L 96 557 L 156 496 C 169 504 184 510 200 515 C 216 519 232 522 250 522 C 267 522 284 519 300 515 C 316 510 332 503 346 495 L 407 558 L 445 519 L 388 459 C 400 444 409 428 416 410 C 422 392 426 374 426 354 C 426 333 422 313 415 295 C 407 277 397 260 385 246 L 440 188 Z M 250 247 C 280 247 307 257 330 279 C 352 300 364 325 364 354 C 364 382 352 407 330 429 C 307 450 280 461 250 461 C 218 461 192 450 170 429 C 148 407 137 382 137 354 C 137 325 148 300 170 279 C 192 257 218 247 250 247 Z" unicode="¤" />
<glyph horiz-adv-x="647" d="M 559 147 L 362 147 L 362 0 L 272 0 L 272 147 L 83 147 L 83 212 L 272 212 L 272 273 L 83 273 L 83 338 L 272 338 L 272 344 L 37 730 L 137 730 L 322 423 L 507 730 L 602 730 L 362 340 L 362 338 L 559 338 L 559 273 L 362 273 L 362 212 L 559 212 L 559 147 Z" unicode="¥" />
<glyph horiz-adv-x="273" d="M 101 351 L 101 730 L 173 730 L 173 351 L 101 351 Z M 173 200 L 173 -179 L 101 -179 L 101 200 L 173 200 Z" unicode="¦" />
<glyph horiz-adv-x="676" d="M 356 -181 C 298 -181 243 -174 193 -160 C 143 -146 101 -128 67 -106 L 104 -36 C 136 -57 175 -75 221 -89 C 267 -103 311 -111 353 -111 C 391 -111 424 -102 450 -85 C 476 -67 490 -42 490 -10 C 490 18 479 40 458 56 C 437 71 410 85 378 98 L 241 153 C 211 165 184 177 161 188 C 137 198 118 210 102 223 C 86 235 75 250 67 267 C 59 283 55 304 55 328 C 55 359 63 385 79 405 C 95 425 115 441 138 454 C 117 465 102 481 93 501 C 84 521 80 545 80 575 C 80 601 86 625 98 646 C 110 666 128 684 150 698 C 172 712 198 723 228 731 C 258 738 290 742 325 742 C 387 742 438 733 478 716 C 518 699 552 681 582 662 L 544 598 C 512 618 479 635 445 651 C 411 667 370 675 322 675 C 279 675 243 666 213 648 C 183 630 168 606 168 575 C 168 554 175 536 189 522 C 203 507 224 495 253 485 L 435 415 C 495 393 540 370 572 346 C 604 322 620 288 620 244 C 620 206 607 177 582 157 C 557 137 530 123 500 117 C 507 113 515 107 525 100 C 534 92 543 83 551 73 C 559 63 566 50 572 36 C 578 22 581 6 581 -11 C 581 -37 575 -61 563 -82 C 551 -103 536 -121 516 -136 C 496 -150 472 -161 444 -169 C 416 -177 387 -181 356 -181 Z M 438 160 C 461 162 482 168 502 180 C 522 192 532 210 532 236 C 532 259 520 279 498 297 C 476 314 439 332 387 351 L 211 419 C 191 410 174 399 161 387 C 147 375 141 358 141 336 C 141 309 152 288 176 272 C 199 256 237 238 289 218 L 438 160 Z" unicode="§" />
<glyph horiz-adv-x="500" d="M 377 499 L 306 499 L 306 656 L 377 656 L 377 499 Z M 194 499 L 123 499 L 123 656 L 194 656 L 194 499 Z" unicode="¨" />
<glyph horiz-adv-x="831" d="M 415 2 C 364 2 316 11 271 31 C 226 51 187 77 154 111 C 120 144 94 183 74 228 C 54 273 45 321 45 372 C 45 422 54 470 74 516 C 94 561 120 600 154 634 C 187 667 226 693 271 713 C 316 732 364 742 415 742 C 465 742 513 732 559 713 C 604 693 643 667 677 634 C 710 600 736 561 756 516 C 776 470 786 422 786 372 C 786 321 776 273 756 228 C 736 183 710 144 677 111 C 643 77 604 51 559 31 C 513 11 465 2 415 2 Z M 415 57 C 457 57 498 65 536 82 C 574 98 607 121 635 149 C 663 177 686 211 702 249 C 718 287 727 328 727 371 C 727 413 718 454 702 492 C 686 530 663 564 635 593 C 607 621 574 644 536 661 C 498 677 457 686 415 686 C 371 686 331 677 293 661 C 255 644 222 621 194 593 C 166 564 143 530 127 492 C 111 454 103 413 103 371 C 103 328 111 287 127 249 C 143 211 166 177 194 149 C 222 121 255 98 293 82 C 331 65 371 57 415 57 Z M 588 242 C 571 217 548 196 520 180 C 491 163 456 155 415 155 C 388 155 362 159 338 169 C 313 179 291 193 272 211 C 253 229 238 252 227 280 C 215 307 210 338 210 373 C 210 407 215 438 225 466 C 235 494 250 517 268 537 C 286 557 307 572 331 583 C 355 593 382 599 410 599 C 454 599 489 591 517 576 C 545 561 567 542 583 520 L 523 476 C 512 490 498 503 481 513 C 463 523 440 529 412 529 C 376 529 346 513 322 483 C 298 453 286 415 286 371 C 286 347 289 325 297 307 C 304 288 314 272 326 260 C 338 247 351 237 367 231 C 383 224 399 221 416 221 C 440 221 462 226 482 237 C 502 248 518 263 530 281 L 588 242 Z" unicode="©" />
<glyph horiz-adv-x="435" d="M 393 336 L 328 336 L 328 393 C 313 373 292 357 265 347 C 237 336 208 331 178 331 C 134 331 100 341 74 363 C 48 385 36 415 36 454 C 36 496 53 529 87 552 C 121 574 167 587 224 591 L 323 597 L 323 603 C 323 627 314 645 296 658 C 278 670 253 677 223 677 C 198 677 174 672 151 664 C 128 655 108 645 91 634 L 65 691 C 85 705 110 718 139 728 C 167 738 200 743 237 743 C 284 743 322 732 350 710 C 378 688 393 652 393 604 L 393 336 Z M 325 445 L 325 543 L 220 537 C 187 535 160 528 140 517 C 119 506 109 487 109 460 C 109 438 117 421 135 409 C 152 396 175 390 203 390 C 226 390 249 395 272 405 C 294 415 312 428 325 445 Z M 406 221 L 42 221 L 42 288 L 406 288 L 406 221 Z" unicode="ª" />
<glyph horiz-adv-x="449" d="M 205 80 L 28 247 L 28 310 L 205 475 L 205 386 L 101 276 L 205 172 L 205 80 Z M 420 80 L 242 247 L 242 310 L 420 475 L 420 386 L 315 276 L 420 173 L 420 80 Z" unicode="«" />
<glyph horiz-adv-x="500" d="M 451 380 L 451 131 L 380 131 L 380 308 L 31 308 L 31 380 L 451 380 Z" unicode="¬" />
<glyph horiz-adv-x="831" d="M 415 2 C 364 2 316 11 271 31 C 226 51 187 77 154 111 C 120 144 94 183 74 228 C 54 273 45 321 45 372 C 45 422 54 470 74 516 C 94 561 120 600 154 634 C 187 667 226 693 271 713 C 316 732 364 742 415 742 C 465 742 513 732 559 713 C 604 693 643 667 677 634 C 710 600 736 561 756 516 C 776 470 786 422 786 372 C 786 321 776 273 756 228 C 736 183 710 144 677 111 C 643 77 604 51 559 31 C 513 11 465 2 415 2 Z M 415 57 C 457 57 498 65 536 81 C 574 97 607 120 635 148 C 663 176 686 209 702 247 C 718 285 727 327 727 371 C 727 415 718 456 702 495 C 686 533 663 567 635 595 C 607 623 574 645 536 661 C 498 677 457 686 415 686 C 372 686 332 677 294 661 C 256 645 222 622 194 594 C 166 566 143 532 127 494 C 111 455 103 414 103 371 C 103 327 111 286 127 248 C 143 210 166 176 194 148 C 222 120 256 97 294 81 C 332 65 372 57 415 57 Z M 277 164 L 277 599 L 434 599 C 452 599 469 596 487 592 C 504 587 520 580 534 570 C 548 560 559 548 567 533 C 575 517 580 499 580 479 C 580 440 569 411 547 393 C 525 374 503 363 481 360 L 480 356 L 613 164 L 534 164 L 420 335 L 347 335 L 347 164 L 277 164 Z M 347 394 L 438 394 C 456 394 472 400 488 413 C 503 426 511 445 511 470 C 511 496 503 513 487 523 C 471 532 451 537 428 537 L 347 537 L 347 394 Z" unicode="®" />
<glyph horiz-adv-x="500" d="M 379 525 L 121 525 L 121 587 L 379 587 L 379 525 Z" unicode="¯" />
<glyph horiz-adv-x="436" d="M 218 366 C 192 366 167 371 144 381 C 121 391 101 404 85 421 C 68 437 55 457 45 480 C 35 503 30 528 30 554 C 30 580 35 604 45 627 C 55 650 68 670 85 687 C 101 703 121 717 144 727 C 167 737 192 742 218 742 C 244 742 268 737 291 727 C 314 717 334 703 351 687 C 367 670 381 650 391 627 C 401 604 406 580 406 554 C 406 528 401 503 391 480 C 381 457 367 437 351 421 C 334 404 314 391 291 381 C 268 371 244 366 218 366 Z M 218 432 C 252 432 281 444 305 468 C 329 492 341 520 341 554 C 341 588 329 617 305 641 C 281 665 252 677 218 677 C 184 677 155 665 131 641 C 107 617 95 588 95 554 C 95 520 107 492 131 468 C 155 444 184 432 218 432 Z" unicode="°" />
<glyph horiz-adv-x="500" d="M 474 299 L 286 299 L 286 114 L 215 114 L 215 299 L 26 299 L 26 363 L 215 363 L 215 548 L 286 548 L 286 363 L 474 363 L 474 299 Z M 468 26 L 34 26 L 34 86 L 468 86 L 468 26 Z" unicode="±" />
<glyph horiz-adv-x="342" d="M 308 372 L 27 372 L 27 399 L 190 555 C 197 561 204 570 212 581 C 219 592 223 605 223 620 C 223 635 217 649 206 661 C 194 673 178 679 156 679 C 131 679 113 671 103 656 C 93 641 87 624 87 605 L 22 605 C 22 641 34 672 58 700 C 82 727 118 741 164 741 C 208 741 241 730 263 710 C 285 689 297 664 297 635 C 297 608 292 586 282 568 C 272 550 261 536 250 526 L 147 432 L 308 432 L 308 372 Z" unicode="²" />
<glyph horiz-adv-x="346" d="M 225 569 C 253 565 275 554 291 537 C 307 520 315 500 315 477 C 315 464 312 451 307 438 C 302 424 294 412 282 401 C 270 390 255 381 235 374 C 215 367 190 364 161 364 C 120 364 88 368 65 378 C 42 388 24 398 11 408 L 51 449 C 62 442 76 435 94 429 C 112 423 133 420 158 420 C 190 420 214 426 228 439 C 242 452 249 468 249 487 C 249 507 240 521 223 528 C 206 534 186 538 164 538 L 92 538 L 92 591 L 159 591 C 181 591 198 595 212 603 C 225 611 232 623 232 639 C 232 652 226 663 214 671 C 202 679 184 683 160 683 C 139 683 120 679 102 671 C 84 663 71 653 63 643 L 23 682 C 36 696 54 710 76 723 C 98 735 129 742 170 742 C 211 742 243 733 266 716 C 288 699 300 678 300 652 C 300 630 292 611 278 597 C 263 583 245 573 225 569 Z" unicode="³" />
<glyph horiz-adv-x="500" d="M 156 498 L 262 662 L 361 662 L 240 498 L 156 498 Z" unicode="´" />
<glyph horiz-adv-x="561" d="M 72 -109 L 72 436 L 154 436 L 154 156 C 154 124 163 100 183 83 C 203 65 229 57 262 57 C 296 57 325 67 351 88 C 376 108 389 140 389 182 L 389 436 L 471 436 L 471 0 L 396 0 L 396 97 C 384 67 366 43 340 23 C 314 3 283 -7 247 -8 C 222 -8 201 -4 184 6 C 167 16 155 30 148 48 L 148 -109 L 72 -109 Z" unicode="µ" />
<glyph horiz-adv-x="680" d="M 605 -179 L 548 -179 L 548 664 L 429 664 L 429 -179 L 371 -179 L 371 247 L 262 247 C 231 247 201 253 172 266 C 143 279 118 296 96 318 C 74 339 56 364 43 393 C 29 422 23 453 23 485 C 23 519 29 552 42 582 C 54 612 72 637 94 659 C 116 681 144 698 176 711 C 208 723 243 730 282 730 L 605 730 L 605 -179 Z M 372 316 L 372 661 L 300 661 C 246 661 207 644 183 611 C 159 578 148 537 148 488 C 148 464 151 442 157 422 C 163 401 171 383 183 367 C 195 351 209 339 227 330 C 245 320 265 316 289 316 L 372 316 Z" unicode="¶" />
<glyph horiz-adv-x="248" d="M 166 277 L 82 277 L 82 401 L 166 401 L 166 277 Z" unicode="·" />
<glyph horiz-adv-x="500" d="M 256 -187 C 232 -187 207 -184 183 -178 C 158 -172 139 -164 125 -155 L 135 -116 C 145 -122 158 -127 175 -133 C 191 -139 209 -142 229 -142 C 245 -142 258 -138 270 -131 C 282 -124 288 -115 288 -103 C 288 -90 282 -81 272 -75 C 262 -69 250 -67 238 -67 C 229 -67 222 -67 216 -68 C 210 -69 203 -71 196 -74 L 182 -59 L 242 11 L 295 11 L 245 -51 C 279 -43 309 -45 333 -58 C 357 -70 369 -89 369 -113 C 369 -137 357 -156 335 -168 C 312 -180 286 -187 256 -187 Z" unicode="¸" />
<glyph horiz-adv-x="318" d="M 143 372 L 143 652 C 135 640 122 630 102 622 C 82 613 65 607 51 605 L 50 678 C 74 681 96 688 114 699 C 132 709 150 723 168 740 L 220 740 L 220 372 L 143 372 Z" unicode="¹" />
<glyph horiz-adv-x="444" d="M 219 330 C 193 330 168 334 144 344 C 120 353 99 366 81 384 C 63 401 48 422 37 448 C 26 473 21 501 21 533 C 21 561 26 587 37 613 C 47 638 62 660 80 679 C 98 697 119 712 143 724 C 167 735 193 741 221 741 C 249 741 276 736 301 726 C 325 716 347 703 365 686 C 383 668 397 647 407 623 C 417 599 423 572 423 543 C 423 512 417 484 407 458 C 396 432 381 409 363 390 C 345 371 323 356 299 346 C 274 335 247 330 219 330 Z M 220 398 C 257 398 288 411 312 438 C 336 464 349 498 349 540 C 349 578 337 611 314 637 C 291 663 260 677 220 677 C 184 677 154 663 130 636 C 106 608 95 574 95 533 C 95 493 106 460 130 435 C 154 410 184 398 220 398 Z M 38 221 L 38 288 L 402 288 L 402 221 L 38 221 Z" unicode="º" />
<glyph horiz-adv-x="449" d="M 30 475 L 207 307 L 207 245 L 30 80 L 30 168 L 134 278 L 30 382 L 30 475 Z M 244 475 L 421 307 L 421 245 L 244 80 L 244 168 L 349 278 L 244 382 L 244 475 Z" unicode="»" />
<glyph horiz-adv-x="699" d="M 12 0 L 12 0 Z M 105 372 L 105 652 C 97 640 84 630 64 622 C 44 613 27 607 13 605 L 12 678 C 36 681 58 688 76 699 C 94 709 112 723 130 740 L 182 740 L 182 372 L 105 372 Z M 573 730 L 200 0 L 127 0 L 500 730 L 573 730 Z M 387 84 L 387 135 L 576 366 L 624 366 L 624 138 L 687 138 L 687 84 L 624 84 L 624 1 L 555 1 L 555 84 L 387 84 Z M 444 129 L 557 129 L 557 270 L 444 129 Z" unicode="¼" />
<glyph horiz-adv-x="765" d="M 12 0 L 12 0 Z M 105 372 L 105 652 C 97 640 84 630 64 622 C 44 613 27 607 13 605 L 12 678 C 36 681 58 688 76 699 C 94 709 112 723 130 740 L 182 740 L 182 372 L 105 372 Z M 573 730 L 200 0 L 127 0 L 500 730 L 573 730 Z M 740 0 L 459 0 L 459 27 L 622 183 C 629 189 636 198 644 209 C 651 220 655 233 655 248 C 655 263 649 277 638 289 C 626 301 610 307 588 307 C 563 307 545 299 535 284 C 525 269 519 252 519 233 L 454 233 C 454 269 466 300 490 328 C 514 355 550 369 596 369 C 640 369 673 358 695 338 C 717 317 729 292 729 263 C 729 236 724 214 714 196 C 704 178 693 164 682 154 L 579 60 L 740 60 L 740 0 Z" unicode="½" />
<glyph horiz-adv-x="760" d="M 12 0 L 12 0 Z M 635 730 L 262 0 L 189 0 L 562 730 L 635 730 Z M 449 84 L 449 135 L 638 366 L 686 366 L 686 138 L 749 138 L 749 84 L 686 84 L 686 1 L 617 1 L 617 84 L 449 84 Z M 506 129 L 619 129 L 619 270 L 506 129 Z M 226 569 C 254 565 276 554 292 537 C 308 520 316 500 316 477 C 316 464 313 451 308 438 C 303 424 295 412 283 401 C 271 390 256 381 236 374 C 216 367 191 364 162 364 C 121 364 89 368 66 378 C 43 388 25 398 12 408 L 52 449 C 63 442 77 435 95 429 C 113 423 134 420 159 420 C 191 420 215 426 229 439 C 243 452 250 468 250 487 C 250 507 241 521 224 528 C 207 534 187 538 165 538 L 93 538 L 93 591 L 160 591 C 182 591 199 595 213 603 C 226 611 233 623 233 639 C 233 652 227 663 215 671 C 203 679 185 683 161 683 C 140 683 121 679 103 671 C 85 663 72 653 64 643 L 24 682 C 37 696 55 710 77 723 C 99 735 130 742 171 742 C 212 742 244 733 267 716 C 289 699 301 678 301 652 C 301 630 293 611 279 597 C 264 583 246 573 226 569 Z" unicode="¾" />
<glyph horiz-adv-x="468" d="M 207 491 L 207 585 L 302 585 L 302 491 L 207 491 Z M 234 -146 C 203 -146 174 -142 148 -134 C 122 -126 99 -115 80 -101 C 60 -87 45 -69 34 -47 C 22 -25 17 -1 17 26 C 17 52 21 75 29 95 C 37 115 48 132 61 148 C 74 163 88 176 103 188 C 118 200 132 210 145 220 C 175 242 193 268 201 298 C 209 328 213 358 214 389 L 298 389 C 298 338 292 298 282 270 C 272 242 250 215 218 190 C 205 180 192 170 179 160 C 165 150 153 139 142 127 C 131 115 122 102 116 88 C 109 73 106 56 106 37 C 106 3 119 -23 145 -43 C 171 -63 204 -73 242 -73 C 276 -73 306 -65 334 -50 C 361 -34 383 -16 401 5 L 457 -47 C 435 -73 406 -96 368 -116 C 330 -136 286 -146 234 -146 Z" unicode="¿" />
<glyph horiz-adv-x="654" d="M 3 0 L 3 0 Z M 650 0 L 557 0 L 475 204 L 175 204 L 94 0 L 3 0 L 303 733 L 355 733 L 650 0 Z M 446 282 L 324 582 L 204 282 L 446 282 Z M 327 792 L 327 792 Z M 430 792 L 346 792 L 225 956 L 323 956 L 430 792 Z" unicode="À" />
<glyph horiz-adv-x="654" d="M 3 0 L 3 0 Z M 650 0 L 557 0 L 475 204 L 175 204 L 94 0 L 3 0 L 303 733 L 355 733 L 650 0 Z M 446 282 L 324 582 L 204 282 L 446 282 Z M 327 792 L 327 792 Z M 225 792 L 331 956 L 430 956 L 309 792 L 225 792 Z" unicode="Á" />
<glyph horiz-adv-x="654" d="M 3 0 L 3 0 Z M 650 0 L 557 0 L 475 204 L 175 204 L 94 0 L 3 0 L 303 733 L 355 733 L 650 0 Z M 446 282 L 324 582 L 204 282 L 446 282 Z M 327 793 L 327 793 Z M 493 793 L 415 793 L 327 905 L 238 793 L 162 793 L 285 964 L 370 964 L 493 793 Z" unicode="Â" />
<glyph horiz-adv-x="654" d="M 3 0 L 3 0 Z M 650 0 L 557 0 L 475 204 L 175 204 L 94 0 L 3 0 L 303 733 L 355 733 L 650 0 Z M 446 282 L 324 582 L 204 282 L 446 282 Z M 327 800 L 327 800 Z M 424 934 L 486 934 C 486 888 479 854 466 832 C 453 810 436 800 415 800 C 396 800 379 803 365 811 C 351 819 339 826 330 833 C 320 839 310 846 300 853 C 290 859 281 863 273 863 C 263 863 255 857 248 846 C 240 835 237 821 237 804 L 174 804 C 174 849 182 883 200 905 C 218 927 237 938 258 938 C 273 938 287 934 299 927 C 311 919 323 911 336 903 C 344 896 353 889 363 882 C 372 875 381 872 391 872 C 399 872 407 877 414 889 C 420 900 424 915 424 934 Z" unicode="Ã" />
<glyph horiz-adv-x="654" d="M 3 0 L 3 0 Z M 650 0 L 557 0 L 475 204 L 175 204 L 94 0 L 3 0 L 303 733 L 355 733 L 650 0 Z M 446 282 L 324 582 L 204 282 L 446 282 Z M 327 793 L 327 793 Z M 452 793 L 381 793 L 381 950 L 452 950 L 452 793 Z M 269 793 L 198 793 L 198 950 L 269 950 L 269 793 Z" unicode="Ä" />
<glyph horiz-adv-x="654" d="M 3 0 L 3 0 Z M 650 0 L 557 0 L 475 204 L 175 204 L 94 0 L 3 0 L 303 733 L 355 733 L 650 0 Z M 446 282 L 324 582 L 204 282 L 446 282 Z M 327 790 L 327 790 Z M 327 790 C 295 790 269 800 247 822 C 225 844 215 870 215 902 C 215 933 225 959 247 981 C 269 1003 295 1014 327 1014 C 358 1014 385 1003 407 981 C 429 959 440 933 440 902 C 440 870 429 844 407 822 C 385 800 358 790 327 790 Z M 327 839 C 344 839 359 845 371 857 C 383 869 389 884 389 902 C 389 920 383 935 371 947 C 359 959 344 966 327 966 C 309 966 295 959 283 947 C 271 935 265 920 265 902 C 265 884 271 869 283 857 C 295 845 309 839 327 839 Z" unicode="Å" />
<glyph horiz-adv-x="968" d="M 913 0 L 485 0 L 485 252 L 238 252 L 80 0 L -17 0 L 446 730 L 894 730 L 894 649 L 574 649 L 574 401 L 880 401 L 880 320 L 574 320 L 574 81 L 913 81 L 913 0 Z M 485 328 L 485 644 L 286 328 L 485 328 Z" unicode="Æ" />
<glyph horiz-adv-x="711" d="M 48 0 L 48 0 Z M 409 -12 C 359 -12 313 -3 269 13 C 225 30 186 55 154 87 C 121 119 95 159 76 206 C 57 253 48 306 48 365 C 48 419 57 469 75 515 C 93 561 118 600 150 634 C 182 668 220 694 265 713 C 309 732 358 742 411 742 C 477 742 532 732 576 714 C 620 695 658 670 689 638 L 634 564 C 611 590 582 611 546 629 C 510 647 466 656 414 656 C 371 656 333 648 299 634 C 265 619 236 599 213 573 C 189 547 171 515 159 479 C 147 443 141 403 141 361 C 141 313 148 270 164 234 C 179 197 199 167 224 143 C 249 119 278 100 311 88 C 343 76 377 70 413 70 C 467 70 514 80 554 102 C 594 123 626 149 651 180 L 703 121 C 671 82 630 50 580 25 C 530 0 473 -12 409 -12 Z M 390 -2 L 390 -2 Z M 399 -189 C 375 -189 350 -186 326 -180 C 301 -174 282 -166 268 -157 L 278 -118 C 288 -124 301 -129 318 -135 C 334 -141 352 -144 372 -144 C 388 -144 401 -140 413 -133 C 425 -126 431 -117 431 -105 C 431 -92 425 -83 415 -77 C 405 -71 393 -69 381 -69 C 372 -69 365 -69 359 -70 C 353 -71 346 -73 339 -76 L 325 -61 L 385 9 L 438 9 L 388 -53 C 422 -45 452 -47 476 -60 C 500 -72 512 -91 512 -115 C 512 -139 500 -158 478 -170 C 455 -182 429 -189 399 -189 Z" unicode="Ç" />
<glyph horiz-adv-x="580" d="M 97 0 L 97 0 Z M 526 0 L 97 0 L 97 730 L 507 730 L 507 649 L 186 649 L 186 401 L 493 401 L 493 320 L 186 320 L 186 81 L 526 81 L 526 0 Z M 305 792 L 305 792 Z M 408 792 L 324 792 L 203 956 L 301 956 L 408 792 Z" unicode="È" />
<glyph horiz-adv-x="580" d="M 97 0 L 97 0 Z M 526 0 L 97 0 L 97 730 L 507 730 L 507 649 L 186 649 L 186 401 L 493 401 L 493 320 L 186 320 L 186 81 L 526 81 L 526 0 Z M 305 792 L 305 792 Z M 203 792 L 309 956 L 408 956 L 287 792 L 203 792 Z" unicode="É" />
<glyph horiz-adv-x="580" d="M 97 0 L 97 0 Z M 526 0 L 97 0 L 97 730 L 507 730 L 507 649 L 186 649 L 186 401 L 493 401 L 493 320 L 186 320 L 186 81 L 526 81 L 526 0 Z M 305 793 L 305 793 Z M 471 793 L 393 793 L 305 905 L 216 793 L 140 793 L 263 964 L 348 964 L 471 793 Z" unicode="Ê" />
<glyph horiz-adv-x="580" d="M 97 0 L 97 0 Z M 526 0 L 97 0 L 97 730 L 507 730 L 507 649 L 186 649 L 186 401 L 493 401 L 493 320 L 186 320 L 186 81 L 526 81 L 526 0 Z M 305 793 L 305 793 Z M 430 793 L 359 793 L 359 950 L 430 950 L 430 793 Z M 247 793 L 176 793 L 176 950 L 247 950 L 247 793 Z" unicode="Ë" />
<glyph horiz-adv-x="293" d="M 45 0 L 45 0 Z M 192 0 L 102 0 L 102 730 L 192 730 L 192 0 Z M 147 792 L 147 792 Z M 250 792 L 166 792 L 45 956 L 143 956 L 250 792 Z" unicode="Ì" />
<glyph horiz-adv-x="293" d="M 45 0 L 45 0 Z M 192 0 L 102 0 L 102 730 L 192 730 L 192 0 Z M 147 792 L 147 792 Z M 45 792 L 151 956 L 250 956 L 129 792 L 45 792 Z" unicode="Í" />
<glyph horiz-adv-x="293" d="M 0 0 L 0 0 Z M 192 0 L 102 0 L 102 730 L 192 730 L 192 0 Z M 147 793 L 147 793 Z M 313 793 L 235 793 L 147 905 L 58 793 L -18 793 L 105 964 L 190 964 L 313 793 Z" unicode="Î" />
<glyph horiz-adv-x="293" d="M 18 0 L 18 0 Z M 192 0 L 102 0 L 102 730 L 192 730 L 192 0 Z M 147 793 L 147 793 Z M 272 793 L 201 793 L 201 950 L 272 950 L 272 793 Z M 89 793 L 18 793 L 18 950 L 89 950 L 89 793 Z" unicode="Ï" />
<glyph horiz-adv-x="747" d="M 698 367 C 698 316 689 268 672 224 C 654 179 629 140 596 107 C 562 74 520 48 470 29 C 420 9 362 0 296 0 L 97 0 L 97 319 L 35 319 L 35 395 L 97 395 L 97 730 L 311 730 C 372 730 427 721 475 704 C 523 687 564 663 597 632 C 629 600 654 562 672 517 C 689 472 698 422 698 367 Z M 187 80 L 289 80 C 345 80 393 88 433 104 C 473 120 505 141 531 167 C 556 193 574 224 586 258 C 598 292 604 328 604 364 C 604 452 578 522 526 572 C 474 622 402 648 311 648 L 187 648 L 187 395 L 375 395 L 375 319 L 187 319 L 187 80 Z" unicode="Ð" />
<glyph horiz-adv-x="782" d="M 97 0 L 97 0 Z M 685 0 L 623 0 L 183 565 L 183 0 L 97 0 L 97 730 L 165 730 L 598 167 L 598 730 L 685 730 L 685 0 Z M 393 800 L 393 800 Z M 490 934 L 552 934 C 552 888 545 854 532 832 C 519 810 502 800 481 800 C 462 800 445 803 431 811 C 417 819 405 826 396 833 C 386 839 376 846 366 853 C 356 859 347 863 339 863 C 329 863 321 857 314 846 C 306 835 303 821 303 804 L 240 804 C 240 849 248 883 266 905 C 284 927 303 938 324 938 C 339 938 353 934 365 927 C 377 919 389 911 402 903 C 410 896 419 889 429 882 C 438 875 447 872 457 872 C 465 872 473 877 480 889 C 486 900 490 915 490 934 Z" unicode="Ñ" />
<glyph horiz-adv-x="844" d="M 48 0 L 48 0 Z M 425 -12 C 369 -12 317 -2 271 16 C 224 35 184 61 151 95 C 118 129 93 169 75 216 C 57 263 48 314 48 370 C 48 422 57 470 76 516 C 95 562 121 601 154 635 C 187 668 226 694 272 713 C 317 732 365 742 417 742 C 472 742 523 732 570 714 C 616 696 656 670 690 637 C 723 604 749 565 768 519 C 786 473 796 422 796 367 C 796 311 786 260 766 214 C 746 167 720 127 686 94 C 652 60 613 34 568 16 C 522 -2 475 -12 425 -12 Z M 424 72 C 463 72 500 79 534 93 C 568 107 597 127 622 153 C 647 179 667 210 681 247 C 695 284 703 325 703 371 C 703 412 695 450 681 486 C 667 521 647 551 622 576 C 597 601 567 621 533 635 C 498 649 460 657 420 657 C 380 657 342 650 308 637 C 274 623 244 604 220 579 C 195 554 176 524 162 488 C 148 452 141 411 141 366 C 141 320 148 278 163 242 C 178 205 198 174 224 149 C 250 124 280 105 314 92 C 348 78 385 72 424 72 Z M 420 792 L 420 792 Z M 523 792 L 439 792 L 318 956 L 416 956 L 523 792 Z" unicode="Ò" />
<glyph horiz-adv-x="844" d="M 48 0 L 48 0 Z M 425 -12 C 369 -12 317 -2 271 16 C 224 35 184 61 151 95 C 118 129 93 169 75 216 C 57 263 48 314 48 370 C 48 422 57 470 76 516 C 95 562 121 601 154 635 C 187 668 226 694 272 713 C 317 732 365 742 417 742 C 472 742 523 732 570 714 C 616 696 656 670 690 637 C 723 604 749 565 768 519 C 786 473 796 422 796 367 C 796 311 786 260 766 214 C 746 167 720 127 686 94 C 652 60 613 34 568 16 C 522 -2 475 -12 425 -12 Z M 424 72 C 463 72 500 79 534 93 C 568 107 597 127 622 153 C 647 179 667 210 681 247 C 695 284 703 325 703 371 C 703 412 695 450 681 486 C 667 521 647 551 622 576 C 597 601 567 621 533 635 C 498 649 460 657 420 657 C 380 657 342 650 308 637 C 274 623 244 604 220 579 C 195 554 176 524 162 488 C 148 452 141 411 141 366 C 141 320 148 278 163 242 C 178 205 198 174 224 149 C 250 124 280 105 314 92 C 348 78 385 72 424 72 Z M 420 792 L 420 792 Z M 318 792 L 424 956 L 523 956 L 402 792 L 318 792 Z" unicode="Ó" />
<glyph horiz-adv-x="844" d="M 48 0 L 48 0 Z M 425 -12 C 369 -12 317 -2 271 16 C 224 35 184 61 151 95 C 118 129 93 169 75 216 C 57 263 48 314 48 370 C 48 422 57 470 76 516 C 95 562 121 601 154 635 C 187 668 226 694 272 713 C 317 732 365 742 417 742 C 472 742 523 732 570 714 C 616 696 656 670 690 637 C 723 604 749 565 768 519 C 786 473 796 422 796 367 C 796 311 786 260 766 214 C 746 167 720 127 686 94 C 652 60 613 34 568 16 C 522 -2 475 -12 425 -12 Z M 424 72 C 463 72 500 79 534 93 C 568 107 597 127 622 153 C 647 179 667 210 681 247 C 695 284 703 325 703 371 C 703 412 695 450 681 486 C 667 521 647 551 622 576 C 597 601 567 621 533 635 C 498 649 460 657 420 657 C 380 657 342 650 308 637 C 274 623 244 604 220 579 C 195 554 176 524 162 488 C 148 452 141 411 141 366 C 141 320 148 278 163 242 C 178 205 198 174 224 149 C 250 124 280 105 314 92 C 348 78 385 72 424 72 Z M 420 793 L 420 793 Z M 586 793 L 508 793 L 420 905 L 331 793 L 255 793 L 378 964 L 463 964 L 586 793 Z" unicode="Ô" />
<glyph horiz-adv-x="844" d="M 48 0 L 48 0 Z M 425 -12 C 369 -12 317 -2 271 16 C 224 35 184 61 151 95 C 118 129 93 169 75 216 C 57 263 48 314 48 370 C 48 422 57 470 76 516 C 95 562 121 601 154 635 C 187 668 226 694 272 713 C 317 732 365 742 417 742 C 472 742 523 732 570 714 C 616 696 656 670 690 637 C 723 604 749 565 768 519 C 786 473 796 422 796 367 C 796 311 786 260 766 214 C 746 167 720 127 686 94 C 652 60 613 34 568 16 C 522 -2 475 -12 425 -12 Z M 424 72 C 463 72 500 79 534 93 C 568 107 597 127 622 153 C 647 179 667 210 681 247 C 695 284 703 325 703 371 C 703 412 695 450 681 486 C 667 521 647 551 622 576 C 597 601 567 621 533 635 C 498 649 460 657 420 657 C 380 657 342 650 308 637 C 274 623 244 604 220 579 C 195 554 176 524 162 488 C 148 452 141 411 141 366 C 141 320 148 278 163 242 C 178 205 198 174 224 149 C 250 124 280 105 314 92 C 348 78 385 72 424 72 Z M 420 800 L 420 800 Z M 517 934 L 579 934 C 579 888 572 854 559 832 C 546 810 529 800 508 800 C 489 800 472 803 458 811 C 444 819 432 826 423 833 C 413 839 403 846 393 853 C 383 859 374 863 366 863 C 356 863 348 857 341 846 C 333 835 330 821 330 804 L 267 804 C 267 849 275 883 293 905 C 311 927 330 938 351 938 C 366 938 380 934 392 927 C 404 919 416 911 429 903 C 437 896 446 889 456 882 C 465 875 474 872 484 872 C 492 872 500 877 507 889 C 513 900 517 915 517 934 Z" unicode="Õ" />
<glyph horiz-adv-x="844" d="M 48 0 L 48 0 Z M 425 -12 C 369 -12 317 -2 271 16 C 224 35 184 61 151 95 C 118 129 93 169 75 216 C 57 263 48 314 48 370 C 48 422 57 470 76 516 C 95 562 121 601 154 635 C 187 668 226 694 272 713 C 317 732 365 742 417 742 C 472 742 523 732 570 714 C 616 696 656 670 690 637 C 723 604 749 565 768 519 C 786 473 796 422 796 367 C 796 311 786 260 766 214 C 746 167 720 127 686 94 C 652 60 613 34 568 16 C 522 -2 475 -12 425 -12 Z M 424 72 C 463 72 500 79 534 93 C 568 107 597 127 622 153 C 647 179 667 210 681 247 C 695 284 703 325 703 371 C 703 412 695 450 681 486 C 667 521 647 551 622 576 C 597 601 567 621 533 635 C 498 649 460 657 420 657 C 380 657 342 650 308 637 C 274 623 244 604 220 579 C 195 554 176 524 162 488 C 148 452 141 411 141 366 C 141 320 148 278 163 242 C 178 205 198 174 224 149 C 250 124 280 105 314 92 C 348 78 385 72 424 72 Z M 420 793 L 420 793 Z M 545 793 L 474 793 L 474 950 L 545 950 L 545 793 Z M 362 793 L 291 793 L 291 950 L 362 950 L 362 793 Z" unicode="Ö" />
<glyph horiz-adv-x="501" d="M 112 146 L 66 193 L 203 331 L 67 468 L 113 515 L 251 378 L 388 515 L 435 468 L 297 331 L 436 193 L 388 145 L 251 284 L 112 146 Z" unicode="×" />
<glyph horiz-adv-x="844" d="M 796 367 C 796 311 786 260 766 214 C 746 167 720 127 686 94 C 652 60 613 34 568 16 C 522 -2 475 -12 425 -12 C 374 -12 327 -4 285 11 C 242 26 205 48 173 76 L 102 5 L 57 50 L 129 122 C 103 154 83 192 69 234 C 55 276 48 321 48 370 C 48 422 57 470 76 516 C 95 562 121 601 154 635 C 187 668 226 694 272 713 C 317 732 365 742 417 742 C 466 742 512 734 554 720 C 596 706 633 686 666 660 L 750 744 L 795 699 L 711 615 C 737 583 758 546 773 504 C 788 462 796 416 796 367 Z M 141 366 C 141 330 145 296 154 266 C 163 236 176 209 193 186 L 602 595 C 577 615 549 630 519 641 C 488 651 455 657 420 657 C 380 657 342 650 308 637 C 274 623 244 604 220 579 C 195 554 176 524 162 488 C 148 452 141 411 141 366 Z M 703 371 C 703 405 698 438 688 468 C 678 498 664 526 646 550 L 236 139 C 260 117 289 100 321 89 C 353 77 388 72 424 72 C 463 72 500 79 534 93 C 568 107 597 127 622 153 C 647 179 667 210 681 247 C 695 284 703 325 703 371 Z" unicode="Ø" />
<glyph horiz-adv-x="739" d="M 89 0 L 89 0 Z M 650 730 L 650 266 C 650 222 642 183 628 149 C 613 114 593 85 568 61 C 543 37 513 19 479 7 C 445 -5 408 -12 369 -12 C 330 -12 293 -6 259 6 C 225 18 195 35 170 59 C 145 83 125 112 111 147 C 96 181 89 221 89 266 L 89 730 L 176 730 L 176 257 C 176 229 181 204 191 182 C 201 159 214 139 231 123 C 248 107 268 94 292 85 C 315 75 340 71 367 71 C 393 71 419 75 443 84 C 467 92 487 105 505 121 C 523 137 537 156 547 179 C 557 202 563 228 563 257 L 563 730 L 650 730 Z M 369 792 L 369 792 Z M 472 792 L 388 792 L 267 956 L 365 956 L 472 792 Z" unicode="Ù" />
<glyph horiz-adv-x="739" d="M 89 0 L 89 0 Z M 650 730 L 650 266 C 650 222 642 183 628 149 C 613 114 593 85 568 61 C 543 37 513 19 479 7 C 445 -5 408 -12 369 -12 C 330 -12 293 -6 259 6 C 225 18 195 35 170 59 C 145 83 125 112 111 147 C 96 181 89 221 89 266 L 89 730 L 176 730 L 176 257 C 176 229 181 204 191 182 C 201 159 214 139 231 123 C 248 107 268 94 292 85 C 315 75 340 71 367 71 C 393 71 419 75 443 84 C 467 92 487 105 505 121 C 523 137 537 156 547 179 C 557 202 563 228 563 257 L 563 730 L 650 730 Z M 369 792 L 369 792 Z M 267 792 L 373 956 L 472 956 L 351 792 L 267 792 Z" unicode="Ú" />
<glyph horiz-adv-x="739" d="M 89 0 L 89 0 Z M 650 730 L 650 266 C 650 222 642 183 628 149 C 613 114 593 85 568 61 C 543 37 513 19 479 7 C 445 -5 408 -12 369 -12 C 330 -12 293 -6 259 6 C 225 18 195 35 170 59 C 145 83 125 112 111 147 C 96 181 89 221 89 266 L 89 730 L 176 730 L 176 257 C 176 229 181 204 191 182 C 201 159 214 139 231 123 C 248 107 268 94 292 85 C 315 75 340 71 367 71 C 393 71 419 75 443 84 C 467 92 487 105 505 121 C 523 137 537 156 547 179 C 557 202 563 228 563 257 L 563 730 L 650 730 Z M 369 793 L 369 793 Z M 535 793 L 457 793 L 369 905 L 280 793 L 204 793 L 327 964 L 412 964 L 535 793 Z" unicode="Û" />
<glyph horiz-adv-x="739" d="M 89 0 L 89 0 Z M 650 730 L 650 266 C 650 222 642 183 628 149 C 613 114 593 85 568 61 C 543 37 513 19 479 7 C 445 -5 408 -12 369 -12 C 330 -12 293 -6 259 6 C 225 18 195 35 170 59 C 145 83 125 112 111 147 C 96 181 89 221 89 266 L 89 730 L 176 730 L 176 257 C 176 229 181 204 191 182 C 201 159 214 139 231 123 C 248 107 268 94 292 85 C 315 75 340 71 367 71 C 393 71 419 75 443 84 C 467 92 487 105 505 121 C 523 137 537 156 547 179 C 557 202 563 228 563 257 L 563 730 L 650 730 Z M 369 793 L 369 793 Z M 494 793 L 423 793 L 423 950 L 494 950 L 494 793 Z M 311 793 L 240 793 L 240 950 L 311 950 L 311 793 Z" unicode="Ü" />
<glyph horiz-adv-x="644" d="M 2 0 L 2 0 Z M 641 730 L 365 328 L 365 0 L 275 0 L 275 331 L 2 730 L 104 730 L 324 410 L 544 730 L 641 730 Z M 322 792 L 322 792 Z M 220 792 L 326 956 L 425 956 L 304 792 L 220 792 Z" unicode="Ý" />
<glyph horiz-adv-x="593" d="M 97 0 L 97 730 L 187 730 L 187 592 L 330 592 C 403 592 460 571 501 531 C 541 491 562 439 562 377 C 562 345 556 316 545 289 C 534 261 519 238 499 218 C 479 198 456 183 428 172 C 400 161 369 156 336 156 L 187 156 L 187 0 L 97 0 Z M 187 238 L 322 238 C 367 238 403 250 430 276 C 457 301 471 336 471 380 C 471 422 455 455 425 477 C 394 499 357 510 313 510 L 187 510 L 187 238 Z" unicode="Þ" />
<glyph horiz-adv-x="621" d="M 437 -12 C 399 -12 366 -7 338 3 C 310 13 286 27 267 46 L 310 103 C 322 90 340 79 364 71 C 387 62 411 58 436 58 C 458 58 476 63 491 73 C 506 83 514 97 514 115 C 514 133 506 147 491 158 C 475 168 448 180 409 192 C 356 207 320 227 302 252 C 284 276 275 304 275 336 C 275 366 284 391 304 411 C 324 431 346 442 371 445 C 377 447 386 455 396 468 C 406 480 412 509 412 553 C 412 593 400 623 378 645 C 356 666 327 677 293 677 C 259 677 231 667 208 647 C 185 627 174 599 174 562 L 174 0 L 90 0 L 90 566 C 90 593 95 618 106 640 C 117 662 132 681 150 697 C 168 712 190 724 214 732 C 238 740 264 745 290 745 C 318 745 345 740 370 732 C 394 724 416 711 434 695 C 452 679 467 658 477 634 C 487 610 493 582 493 551 C 493 503 484 466 466 440 C 448 414 431 398 416 392 C 398 391 383 386 370 378 C 356 369 350 356 350 340 C 350 326 357 313 371 301 C 385 289 411 277 449 267 C 497 253 532 236 555 214 C 578 192 590 161 590 123 C 590 78 575 44 545 22 C 515 0 479 -12 437 -12 Z" unicode="ß" />
<glyph horiz-adv-x="475" d="M 21 0 L 21 0 Z M 418 0 L 340 0 L 340 59 C 327 42 307 26 281 11 C 255 -4 223 -12 186 -12 C 131 -12 90 1 62 28 C 34 54 21 89 21 131 C 21 176 38 212 74 238 C 109 264 159 278 225 282 L 337 288 L 337 299 C 337 326 327 346 308 360 C 289 374 264 381 234 381 C 203 381 175 376 150 366 C 125 356 106 346 94 337 L 59 395 C 74 407 97 419 128 431 C 159 442 197 448 241 448 C 291 448 333 435 367 411 C 401 387 418 348 418 296 L 418 0 Z M 338 114 L 338 225 L 230 220 C 190 218 158 209 136 195 C 114 180 103 160 103 135 C 103 110 111 91 129 78 C 147 64 170 58 199 58 C 231 58 259 64 285 77 C 311 89 328 102 338 114 Z M 231 498 L 231 498 Z M 334 498 L 250 498 L 129 662 L 227 662 L 334 498 Z" unicode="à" />
<glyph horiz-adv-x="475" d="M 21 0 L 21 0 Z M 418 0 L 340 0 L 340 59 C 327 42 307 26 281 11 C 255 -4 223 -12 186 -12 C 131 -12 90 1 62 28 C 34 54 21 89 21 131 C 21 176 38 212 74 238 C 109 264 159 278 225 282 L 337 288 L 337 299 C 337 326 327 346 308 360 C 289 374 264 381 234 381 C 203 381 175 376 150 366 C 125 356 106 346 94 337 L 59 395 C 74 407 97 419 128 431 C 159 442 197 448 241 448 C 291 448 333 435 367 411 C 401 387 418 348 418 296 L 418 0 Z M 338 114 L 338 225 L 230 220 C 190 218 158 209 136 195 C 114 180 103 160 103 135 C 103 110 111 91 129 78 C 147 64 170 58 199 58 C 231 58 259 64 285 77 C 311 89 328 102 338 114 Z M 231 498 L 231 498 Z M 129 498 L 235 662 L 334 662 L 213 498 L 129 498 Z" unicode="á" />
<glyph horiz-adv-x="475" d="M 21 0 L 21 0 Z M 418 0 L 340 0 L 340 59 C 327 42 307 26 281 11 C 255 -4 223 -12 186 -12 C 131 -12 90 1 62 28 C 34 54 21 89 21 131 C 21 176 38 212 74 238 C 109 264 159 278 225 282 L 337 288 L 337 299 C 337 326 327 346 308 360 C 289 374 264 381 234 381 C 203 381 175 376 150 366 C 125 356 106 346 94 337 L 59 395 C 74 407 97 419 128 431 C 159 442 197 448 241 448 C 291 448 333 435 367 411 C 401 387 418 348 418 296 L 418 0 Z M 338 114 L 338 225 L 230 220 C 190 218 158 209 136 195 C 114 180 103 160 103 135 C 103 110 111 91 129 78 C 147 64 170 58 199 58 C 231 58 259 64 285 77 C 311 89 328 102 338 114 Z M 231 499 L 231 499 Z M 397 499 L 319 499 L 231 611 L 142 499 L 66 499 L 189 670 L 274 670 L 397 499 Z" unicode="â" />
<glyph horiz-adv-x="475" d="M 21 0 L 21 0 Z M 418 0 L 340 0 L 340 59 C 327 42 307 26 281 11 C 255 -4 223 -12 186 -12 C 131 -12 90 1 62 28 C 34 54 21 89 21 131 C 21 176 38 212 74 238 C 109 264 159 278 225 282 L 337 288 L 337 299 C 337 326 327 346 308 360 C 289 374 264 381 234 381 C 203 381 175 376 150 366 C 125 356 106 346 94 337 L 59 395 C 74 407 97 419 128 431 C 159 442 197 448 241 448 C 291 448 333 435 367 411 C 401 387 418 348 418 296 L 418 0 Z M 338 114 L 338 225 L 230 220 C 190 218 158 209 136 195 C 114 180 103 160 103 135 C 103 110 111 91 129 78 C 147 64 170 58 199 58 C 231 58 259 64 285 77 C 311 89 328 102 338 114 Z M 231 506 L 231 506 Z M 328 640 L 390 640 C 390 594 383 560 370 538 C 357 516 340 506 319 506 C 300 506 283 509 269 517 C 255 525 243 532 234 539 C 224 545 214 552 204 559 C 194 565 185 569 177 569 C 167 569 159 563 152 552 C 144 541 141 527 141 510 L 78 510 C 78 555 86 589 104 611 C 122 633 141 644 162 644 C 177 644 191 640 203 633 C 215 625 227 617 240 609 C 248 602 257 595 267 588 C 276 581 285 578 295 578 C 303 578 311 583 318 595 C 324 606 328 621 328 640 Z" unicode="ã" />
<glyph horiz-adv-x="475" d="M 21 0 L 21 0 Z M 418 0 L 340 0 L 340 59 C 327 42 307 26 281 11 C 255 -4 223 -12 186 -12 C 131 -12 90 1 62 28 C 34 54 21 89 21 131 C 21 176 38 212 74 238 C 109 264 159 278 225 282 L 337 288 L 337 299 C 337 326 327 346 308 360 C 289 374 264 381 234 381 C 203 381 175 376 150 366 C 125 356 106 346 94 337 L 59 395 C 74 407 97 419 128 431 C 159 442 197 448 241 448 C 291 448 333 435 367 411 C 401 387 418 348 418 296 L 418 0 Z M 338 114 L 338 225 L 230 220 C 190 218 158 209 136 195 C 114 180 103 160 103 135 C 103 110 111 91 129 78 C 147 64 170 58 199 58 C 231 58 259 64 285 77 C 311 89 328 102 338 114 Z M 231 499 L 231 499 Z M 356 499 L 285 499 L 285 656 L 356 656 L 356 499 Z M 173 499 L 102 499 L 102 656 L 173 656 L 173 499 Z" unicode="ä" />
<glyph horiz-adv-x="475" d="M 21 0 L 21 0 Z M 418 0 L 340 0 L 340 59 C 327 42 307 26 281 11 C 255 -4 223 -12 186 -12 C 131 -12 90 1 62 28 C 34 54 21 89 21 131 C 21 176 38 212 74 238 C 109 264 159 278 225 282 L 337 288 L 337 299 C 337 326 327 346 308 360 C 289 374 264 381 234 381 C 203 381 175 376 150 366 C 125 356 106 346 94 337 L 59 395 C 74 407 97 419 128 431 C 159 442 197 448 241 448 C 291 448 333 435 367 411 C 401 387 418 348 418 296 L 418 0 Z M 338 114 L 338 225 L 230 220 C 190 218 158 209 136 195 C 114 180 103 160 103 135 C 103 110 111 91 129 78 C 147 64 170 58 199 58 C 231 58 259 64 285 77 C 311 89 328 102 338 114 Z M 231 496 L 231 496 Z M 231 496 C 199 496 173 506 151 528 C 129 550 119 576 119 608 C 119 639 129 665 151 687 C 173 709 199 720 231 720 C 262 720 289 709 311 687 C 333 665 344 639 344 608 C 344 576 333 550 311 528 C 289 506 262 496 231 496 Z M 231 545 C 248 545 263 551 275 563 C 287 575 293 590 293 608 C 293 626 287 641 275 653 C 263 665 248 672 231 672 C 213 672 199 665 187 653 C 175 641 169 626 169 608 C 169 590 175 575 187 563 C 199 551 213 545 231 545 Z" unicode="å" />
<glyph horiz-adv-x="807" d="M 580 -11 C 525 -11 482 -1 451 19 C 419 39 397 62 383 89 C 371 64 347 41 312 20 C 277 -1 234 -12 183 -12 C 133 -12 94 0 65 26 C 35 51 21 86 21 131 C 21 176 38 212 74 238 C 109 264 160 278 226 282 L 344 288 L 344 299 C 344 327 332 347 309 361 C 286 374 260 381 231 381 C 201 381 173 376 148 366 C 123 356 105 346 94 337 L 59 395 C 75 409 100 422 132 432 C 164 442 199 448 237 448 C 278 448 313 439 343 423 C 372 407 391 387 399 364 C 410 385 430 404 458 422 C 486 440 526 449 576 449 C 642 449 694 425 733 378 C 772 330 792 269 792 194 L 425 194 C 427 152 441 118 467 94 C 492 70 529 58 577 58 C 618 58 649 64 669 76 C 689 88 705 101 719 116 L 771 67 C 750 43 725 24 697 10 C 668 -3 629 -11 580 -11 Z M 428 259 L 713 259 C 713 289 699 317 672 343 C 645 368 610 381 566 381 C 522 381 488 368 466 343 C 443 318 430 290 428 259 Z M 201 58 C 240 58 273 67 300 86 C 326 104 342 126 347 151 L 347 225 L 230 220 C 192 218 161 210 138 196 C 114 182 103 162 103 136 C 103 108 112 88 132 76 C 151 64 174 58 201 58 Z" unicode="æ" />
<glyph horiz-adv-x="462" d="M 29 0 L 29 0 Z M 385 135 L 454 96 C 439 70 416 45 384 23 C 352 0 309 -11 255 -11 C 221 -11 190 -5 162 6 C 134 18 110 34 90 54 C 70 74 55 99 45 127 C 34 155 29 185 29 218 C 29 250 34 281 46 309 C 58 337 74 361 95 382 C 115 402 140 419 168 431 C 196 443 226 449 259 449 C 311 449 353 437 386 415 C 419 393 443 369 457 343 L 380 304 C 368 324 352 341 332 354 C 312 367 288 374 258 374 C 216 374 181 358 155 328 C 128 298 115 261 115 218 C 115 174 128 137 154 107 C 180 77 215 63 258 63 C 294 63 322 71 342 88 C 361 104 375 120 385 135 Z M 248 -2 L 248 -2 Z M 257 -189 C 233 -189 208 -186 184 -180 C 159 -174 140 -166 126 -157 L 136 -118 C 146 -124 159 -129 176 -135 C 192 -141 210 -144 230 -144 C 246 -144 259 -140 271 -133 C 283 -126 289 -117 289 -105 C 289 -92 283 -83 273 -77 C 263 -71 251 -69 239 -69 C 230 -69 223 -69 217 -70 C 211 -71 204 -73 197 -76 L 183 -61 L 243 9 L 296 9 L 246 -53 C 280 -45 310 -47 334 -60 C 358 -72 370 -91 370 -115 C 370 -139 358 -158 336 -170 C 313 -182 287 -189 257 -189 Z" unicode="ç" />
<glyph horiz-adv-x="498" d="M 30 0 L 30 0 Z M 268 -11 C 234 -11 202 -5 173 4 C 143 14 118 29 97 49 C 76 68 60 92 48 120 C 36 148 30 179 30 215 C 30 247 35 278 47 306 C 58 334 74 359 94 380 C 114 401 138 418 167 430 C 195 442 227 449 261 449 C 327 449 380 426 421 382 C 462 338 483 275 483 194 L 107 194 C 109 153 124 120 153 95 C 181 70 220 58 268 58 C 309 58 340 64 361 77 C 382 89 398 102 410 116 L 462 67 C 443 46 420 28 392 12 C 364 -3 323 -11 268 -11 Z M 110 259 L 403 259 C 401 291 388 319 362 344 C 336 368 302 381 258 381 C 214 381 179 368 153 344 C 127 319 112 291 110 259 Z M 257 498 L 257 498 Z M 360 498 L 276 498 L 155 662 L 253 662 L 360 498 Z" unicode="è" />
<glyph horiz-adv-x="498" d="M 30 0 L 30 0 Z M 268 -11 C 234 -11 202 -5 173 4 C 143 14 118 29 97 49 C 76 68 60 92 48 120 C 36 148 30 179 30 215 C 30 247 35 278 47 306 C 58 334 74 359 94 380 C 114 401 138 418 167 430 C 195 442 227 449 261 449 C 327 449 380 426 421 382 C 462 338 483 275 483 194 L 107 194 C 109 153 124 120 153 95 C 181 70 220 58 268 58 C 309 58 340 64 361 77 C 382 89 398 102 410 116 L 462 67 C 443 46 420 28 392 12 C 364 -3 323 -11 268 -11 Z M 110 259 L 403 259 C 401 291 388 319 362 344 C 336 368 302 381 258 381 C 214 381 179 368 153 344 C 127 319 112 291 110 259 Z M 257 498 L 257 498 Z M 155 498 L 261 662 L 360 662 L 239 498 L 155 498 Z" unicode="é" />
<glyph horiz-adv-x="498" d="M 30 0 L 30 0 Z M 268 -11 C 234 -11 202 -5 173 4 C 143 14 118 29 97 49 C 76 68 60 92 48 120 C 36 148 30 179 30 215 C 30 247 35 278 47 306 C 58 334 74 359 94 380 C 114 401 138 418 167 430 C 195 442 227 449 261 449 C 327 449 380 426 421 382 C 462 338 483 275 483 194 L 107 194 C 109 153 124 120 153 95 C 181 70 220 58 268 58 C 309 58 340 64 361 77 C 382 89 398 102 410 116 L 462 67 C 443 46 420 28 392 12 C 364 -3 323 -11 268 -11 Z M 110 259 L 403 259 C 401 291 388 319 362 344 C 336 368 302 381 258 381 C 214 381 179 368 153 344 C 127 319 112 291 110 259 Z M 257 499 L 257 499 Z M 423 499 L 345 499 L 257 611 L 168 499 L 92 499 L 215 670 L 300 670 L 423 499 Z" unicode="ê" />
<glyph horiz-adv-x="498" d="M 30 0 L 30 0 Z M 268 -11 C 234 -11 202 -5 173 4 C 143 14 118 29 97 49 C 76 68 60 92 48 120 C 36 148 30 179 30 215 C 30 247 35 278 47 306 C 58 334 74 359 94 380 C 114 401 138 418 167 430 C 195 442 227 449 261 449 C 327 449 380 426 421 382 C 462 338 483 275 483 194 L 107 194 C 109 153 124 120 153 95 C 181 70 220 58 268 58 C 309 58 340 64 361 77 C 382 89 398 102 410 116 L 462 67 C 443 46 420 28 392 12 C 364 -3 323 -11 268 -11 Z M 110 259 L 403 259 C 401 291 388 319 362 344 C 336 368 302 381 258 381 C 214 381 179 368 153 344 C 127 319 112 291 110 259 Z M 257 499 L 257 499 Z M 382 499 L 311 499 L 311 656 L 382 656 L 382 499 Z M 199 499 L 128 499 L 128 656 L 199 656 L 199 499 Z" unicode="ë" />
<glyph horiz-adv-x="224" d="M 9 0 L 9 0 Z M 154 0 L 71 0 L 71 436 L 154 436 L 154 0 Z M 111 498 L 111 498 Z M 214 498 L 130 498 L 9 662 L 107 662 L 214 498 Z" unicode="ì" />
<glyph horiz-adv-x="224" d="M 9 0 L 9 0 Z M 154 0 L 71 0 L 71 436 L 154 436 L 154 0 Z M 111 498 L 111 498 Z M 9 498 L 115 662 L 214 662 L 93 498 L 9 498 Z" unicode="í" />
<glyph horiz-adv-x="224" d="M 0 0 L 0 0 Z M 154 0 L 71 0 L 71 436 L 154 436 L 154 0 Z M 111 499 L 111 499 Z M 277 499 L 199 499 L 111 611 L 22 499 L -54 499 L 69 670 L 154 670 L 277 499 Z" unicode="î" />
<glyph horiz-adv-x="224" d="M 0 0 L 0 0 Z M 154 0 L 71 0 L 71 436 L 154 436 L 154 0 Z M 111 499 L 111 499 Z M 236 499 L 165 499 L 165 656 L 236 656 L 236 499 Z M 53 499 L -18 499 L -18 656 L 53 656 L 53 499 Z" unicode="ï" />
<glyph horiz-adv-x="544" d="M 509 239 C 509 205 503 172 492 142 C 480 112 464 85 444 63 C 423 40 397 22 367 9 C 337 -4 303 -11 265 -11 C 232 -11 201 -5 173 6 C 144 17 119 33 98 53 C 76 73 60 97 48 126 C 36 154 30 186 30 220 C 30 251 36 280 49 308 C 61 336 78 360 100 380 C 121 400 146 417 174 429 C 202 441 231 447 262 447 C 282 447 300 444 318 439 C 335 433 350 427 364 419 C 378 411 390 403 400 394 C 410 385 417 377 422 369 C 417 412 407 451 391 485 C 375 519 356 550 336 576 L 185 538 L 167 593 L 291 624 C 266 646 242 664 219 678 C 196 692 179 701 167 706 L 237 742 C 253 733 273 721 297 705 C 321 689 345 668 369 643 L 450 663 L 467 608 L 410 594 C 437 556 460 507 480 449 C 499 391 509 321 509 239 Z M 263 60 C 311 60 349 75 379 107 C 408 138 423 176 423 220 C 423 264 409 302 382 332 C 354 362 317 377 271 377 C 249 377 228 372 209 364 C 190 356 173 344 159 330 C 145 316 134 299 126 280 C 118 261 114 241 114 220 C 114 174 128 135 158 105 C 187 75 222 60 263 60 Z" unicode="ð" />
<glyph horiz-adv-x="523" d="M 65 0 L 65 0 Z M 464 0 L 381 0 L 381 282 C 381 312 371 337 352 355 C 333 373 307 383 273 383 C 240 383 211 372 186 350 C 160 328 148 295 148 251 L 148 0 L 65 0 L 65 436 L 145 436 L 145 355 C 155 381 174 404 203 422 C 232 440 265 449 303 449 C 352 449 391 435 420 407 C 449 379 464 342 464 296 L 464 0 Z M 261 506 L 261 506 Z M 358 640 L 420 640 C 420 594 413 560 400 538 C 387 516 370 506 349 506 C 330 506 313 509 299 517 C 285 525 273 532 264 539 C 254 545 244 552 234 559 C 224 565 215 569 207 569 C 197 569 189 563 182 552 C 174 541 171 527 171 510 L 108 510 C 108 555 116 589 134 611 C 152 633 171 644 192 644 C 207 644 221 640 233 633 C 245 625 257 617 270 609 C 278 602 287 595 297 588 C 306 581 315 578 325 578 C 333 578 341 583 348 595 C 354 606 358 621 358 640 Z" unicode="ñ" />
<glyph horiz-adv-x="527" d="M 29 0 L 29 0 Z M 260 -11 C 230 -11 202 -5 174 5 C 146 15 122 30 100 50 C 78 70 61 94 48 122 C 35 150 29 182 29 217 C 29 248 35 278 47 306 C 59 334 76 359 97 380 C 117 401 142 418 170 430 C 198 442 227 449 258 449 C 290 449 320 443 350 433 C 379 422 404 407 426 388 C 448 368 465 345 478 318 C 491 291 498 261 498 229 C 498 195 491 163 479 134 C 467 104 450 79 429 58 C 407 36 382 19 353 7 C 324 -4 293 -11 260 -11 Z M 263 61 C 306 61 342 76 370 106 C 398 136 412 176 412 224 C 412 266 398 302 370 332 C 342 362 304 377 256 377 C 216 377 183 362 156 333 C 128 303 115 266 115 220 C 115 170 129 131 158 103 C 186 75 221 61 263 61 Z M 256 498 L 256 498 Z M 359 498 L 275 498 L 154 662 L 252 662 L 359 498 Z" unicode="ò" />
<glyph horiz-adv-x="527" d="M 29 0 L 29 0 Z M 260 -11 C 230 -11 202 -5 174 5 C 146 15 122 30 100 50 C 78 70 61 94 48 122 C 35 150 29 182 29 217 C 29 248 35 278 47 306 C 59 334 76 359 97 380 C 117 401 142 418 170 430 C 198 442 227 449 258 449 C 290 449 320 443 350 433 C 379 422 404 407 426 388 C 448 368 465 345 478 318 C 491 291 498 261 498 229 C 498 195 491 163 479 134 C 467 104 450 79 429 58 C 407 36 382 19 353 7 C 324 -4 293 -11 260 -11 Z M 263 61 C 306 61 342 76 370 106 C 398 136 412 176 412 224 C 412 266 398 302 370 332 C 342 362 304 377 256 377 C 216 377 183 362 156 333 C 128 303 115 266 115 220 C 115 170 129 131 158 103 C 186 75 221 61 263 61 Z M 256 498 L 256 498 Z M 154 498 L 260 662 L 359 662 L 238 498 L 154 498 Z" unicode="ó" />
<glyph horiz-adv-x="527" d="M 29 0 L 29 0 Z M 260 -11 C 230 -11 202 -5 174 5 C 146 15 122 30 100 50 C 78 70 61 94 48 122 C 35 150 29 182 29 217 C 29 248 35 278 47 306 C 59 334 76 359 97 380 C 117 401 142 418 170 430 C 198 442 227 449 258 449 C 290 449 320 443 350 433 C 379 422 404 407 426 388 C 448 368 465 345 478 318 C 491 291 498 261 498 229 C 498 195 491 163 479 134 C 467 104 450 79 429 58 C 407 36 382 19 353 7 C 324 -4 293 -11 260 -11 Z M 263 61 C 306 61 342 76 370 106 C 398 136 412 176 412 224 C 412 266 398 302 370 332 C 342 362 304 377 256 377 C 216 377 183 362 156 333 C 128 303 115 266 115 220 C 115 170 129 131 158 103 C 186 75 221 61 263 61 Z M 256 499 L 256 499 Z M 422 499 L 344 499 L 256 611 L 167 499 L 91 499 L 214 670 L 299 670 L 422 499 Z" unicode="ô" />
<glyph horiz-adv-x="527" d="M 29 0 L 29 0 Z M 260 -11 C 230 -11 202 -5 174 5 C 146 15 122 30 100 50 C 78 70 61 94 48 122 C 35 150 29 182 29 217 C 29 248 35 278 47 306 C 59 334 76 359 97 380 C 117 401 142 418 170 430 C 198 442 227 449 258 449 C 290 449 320 443 350 433 C 379 422 404 407 426 388 C 448 368 465 345 478 318 C 491 291 498 261 498 229 C 498 195 491 163 479 134 C 467 104 450 79 429 58 C 407 36 382 19 353 7 C 324 -4 293 -11 260 -11 Z M 263 61 C 306 61 342 76 370 106 C 398 136 412 176 412 224 C 412 266 398 302 370 332 C 342 362 304 377 256 377 C 216 377 183 362 156 333 C 128 303 115 266 115 220 C 115 170 129 131 158 103 C 186 75 221 61 263 61 Z M 256 506 L 256 506 Z M 353 640 L 415 640 C 415 594 408 560 395 538 C 382 516 365 506 344 506 C 325 506 308 509 294 517 C 280 525 268 532 259 539 C 249 545 239 552 229 559 C 219 565 210 569 202 569 C 192 569 184 563 177 552 C 169 541 166 527 166 510 L 103 510 C 103 555 111 589 129 611 C 147 633 166 644 187 644 C 202 644 216 640 228 633 C 240 625 252 617 265 609 C 273 602 282 595 292 588 C 301 581 310 578 320 578 C 328 578 336 583 343 595 C 349 606 353 621 353 640 Z" unicode="õ" />
<glyph horiz-adv-x="527" d="M 29 0 L 29 0 Z M 260 -11 C 230 -11 202 -5 174 5 C 146 15 122 30 100 50 C 78 70 61 94 48 122 C 35 150 29 182 29 217 C 29 248 35 278 47 306 C 59 334 76 359 97 380 C 117 401 142 418 170 430 C 198 442 227 449 258 449 C 290 449 320 443 350 433 C 379 422 404 407 426 388 C 448 368 465 345 478 318 C 491 291 498 261 498 229 C 498 195 491 163 479 134 C 467 104 450 79 429 58 C 407 36 382 19 353 7 C 324 -4 293 -11 260 -11 Z M 263 61 C 306 61 342 76 370 106 C 398 136 412 176 412 224 C 412 266 398 302 370 332 C 342 362 304 377 256 377 C 216 377 183 362 156 333 C 128 303 115 266 115 220 C 115 170 129 131 158 103 C 186 75 221 61 263 61 Z M 256 499 L 256 499 Z M 381 499 L 310 499 L 310 656 L 381 656 L 381 499 Z M 198 499 L 127 499 L 127 656 L 198 656 L 198 499 Z" unicode="ö" />
<glyph horiz-adv-x="500" d="M 210 448 L 210 561 L 290 561 L 290 448 L 210 448 Z M 26 295 L 26 366 L 474 366 L 474 295 L 26 295 Z M 210 100 L 210 213 L 290 213 L 290 100 L 210 100 Z" unicode="÷" />
<glyph horiz-adv-x="527" d="M 498 229 C 498 195 491 163 479 134 C 467 104 450 79 429 58 C 407 36 382 19 353 7 C 324 -4 293 -11 260 -11 C 233 -11 207 -6 182 2 C 157 10 134 23 114 39 L 70 -5 L 36 30 L 79 73 C 63 91 51 113 42 137 C 33 161 29 188 29 217 C 29 248 35 278 47 306 C 59 334 76 359 97 380 C 117 401 142 418 170 430 C 198 442 227 449 258 449 C 286 449 314 444 340 436 C 366 428 389 416 410 401 L 455 445 L 488 410 L 446 368 C 462 350 474 329 484 305 C 493 281 498 256 498 229 Z M 115 220 C 115 202 117 186 121 171 C 125 156 130 142 137 130 L 355 346 C 342 355 327 362 311 368 C 294 374 276 377 256 377 C 216 377 183 362 156 333 C 128 303 115 266 115 220 Z M 412 224 C 412 240 410 255 406 270 C 402 284 396 298 388 310 L 169 93 C 181 82 196 74 212 69 C 228 63 245 61 263 61 C 306 61 342 76 370 106 C 398 136 412 176 412 224 Z" unicode="ø" />
<glyph horiz-adv-x="524" d="M 60 0 L 60 0 Z M 60 436 L 142 436 L 142 156 C 142 124 151 100 171 83 C 191 65 217 57 250 57 C 284 57 313 67 338 88 C 363 108 376 140 376 182 L 376 436 L 458 436 L 458 0 L 378 0 L 378 86 C 365 57 344 34 315 16 C 286 -1 253 -10 217 -10 C 171 -10 134 3 104 31 C 74 58 60 96 60 145 L 60 436 Z M 259 498 L 259 498 Z M 362 498 L 278 498 L 157 662 L 255 662 L 362 498 Z" unicode="ù" />
<glyph horiz-adv-x="524" d="M 60 0 L 60 0 Z M 60 436 L 142 436 L 142 156 C 142 124 151 100 171 83 C 191 65 217 57 250 57 C 284 57 313 67 338 88 C 363 108 376 140 376 182 L 376 436 L 458 436 L 458 0 L 378 0 L 378 86 C 365 57 344 34 315 16 C 286 -1 253 -10 217 -10 C 171 -10 134 3 104 31 C 74 58 60 96 60 145 L 60 436 Z M 259 498 L 259 498 Z M 157 498 L 263 662 L 362 662 L 241 498 L 157 498 Z" unicode="ú" />
<glyph horiz-adv-x="524" d="M 60 0 L 60 0 Z M 60 436 L 142 436 L 142 156 C 142 124 151 100 171 83 C 191 65 217 57 250 57 C 284 57 313 67 338 88 C 363 108 376 140 376 182 L 376 436 L 458 436 L 458 0 L 378 0 L 378 86 C 365 57 344 34 315 16 C 286 -1 253 -10 217 -10 C 171 -10 134 3 104 31 C 74 58 60 96 60 145 L 60 436 Z M 259 499 L 259 499 Z M 425 499 L 347 499 L 259 611 L 170 499 L 94 499 L 217 670 L 302 670 L 425 499 Z" unicode="û" />
<glyph horiz-adv-x="524" d="M 60 0 L 60 0 Z M 60 436 L 142 436 L 142 156 C 142 124 151 100 171 83 C 191 65 217 57 250 57 C 284 57 313 67 338 88 C 363 108 376 140 376 182 L 376 436 L 458 436 L 458 0 L 378 0 L 378 86 C 365 57 344 34 315 16 C 286 -1 253 -10 217 -10 C 171 -10 134 3 104 31 C 74 58 60 96 60 145 L 60 436 Z M 259 499 L 259 499 Z M 384 499 L 313 499 L 313 656 L 384 656 L 384 499 Z M 201 499 L 130 499 L 130 656 L 201 656 L 201 499 Z" unicode="ü" />
<glyph horiz-adv-x="470" d="M 0 0 L 0 0 Z M 469 436 L 213 -91 C 190 -137 165 -166 139 -180 C 113 -193 89 -200 67 -200 C 53 -200 41 -198 31 -196 C 21 -193 13 -191 8 -189 L 30 -112 C 32 -113 37 -115 45 -117 C 53 -119 60 -121 68 -121 C 83 -121 97 -116 110 -106 C 123 -96 137 -78 151 -50 L 192 34 L -2 436 L 89 436 L 234 113 L 383 436 L 469 436 Z M 236 498 L 236 498 Z M 134 498 L 240 662 L 339 662 L 218 498 L 134 498 Z" unicode="ý" />
<glyph horiz-adv-x="540" d="M 65 -200 L 65 730 L 144 730 L 144 344 C 150 368 169 392 199 414 C 229 436 267 448 311 448 C 341 448 368 442 393 431 C 418 419 439 404 457 384 C 474 364 487 341 497 314 C 507 287 512 258 512 228 C 512 191 506 158 495 129 C 483 100 468 75 450 55 C 431 35 410 19 386 9 C 362 -1 338 -7 314 -7 C 271 -7 234 2 204 22 C 174 41 154 62 146 86 L 146 -200 L 65 -200 Z M 291 57 C 329 57 360 71 386 100 C 412 128 425 168 425 218 C 425 264 413 303 389 335 C 365 366 330 382 285 382 C 247 382 214 367 187 338 C 159 309 146 268 146 214 C 146 188 150 166 158 146 C 166 126 177 110 191 97 C 204 83 219 73 237 67 C 254 60 272 57 291 57 Z" unicode="þ" />
<glyph horiz-adv-x="470" d="M 0 0 L 0 0 Z M 469 436 L 213 -91 C 190 -137 165 -166 139 -180 C 113 -193 89 -200 67 -200 C 53 -200 41 -198 31 -196 C 21 -193 13 -191 8 -189 L 30 -112 C 32 -113 37 -115 45 -117 C 53 -119 60 -121 68 -121 C 83 -121 97 -116 110 -106 C 123 -96 137 -78 151 -50 L 192 34 L -2 436 L 89 436 L 234 113 L 383 436 L 469 436 Z M 236 499 L 236 499 Z M 361 499 L 290 499 L 290 656 L 361 656 L 361 499 Z M 178 499 L 107 499 L 107 656 L 178 656 L 178 499 Z" unicode="ÿ" />
<glyph horiz-adv-x="654" d="M 3 0 L 3 0 Z M 650 0 L 557 0 L 475 204 L 175 204 L 94 0 L 3 0 L 303 733 L 355 733 L 650 0 Z M 446 282 L 324 582 L 204 282 L 446 282 Z M 327 819 L 327 819 Z M 456 819 L 198 819 L 198 881 L 456 881 L 456 819 Z" unicode="Ā" />
<glyph horiz-adv-x="475" d="M 21 0 L 21 0 Z M 418 0 L 340 0 L 340 59 C 327 42 307 26 281 11 C 255 -4 223 -12 186 -12 C 131 -12 90 1 62 28 C 34 54 21 89 21 131 C 21 176 38 212 74 238 C 109 264 159 278 225 282 L 337 288 L 337 299 C 337 326 327 346 308 360 C 289 374 264 381 234 381 C 203 381 175 376 150 366 C 125 356 106 346 94 337 L 59 395 C 74 407 97 419 128 431 C 159 442 197 448 241 448 C 291 448 333 435 367 411 C 401 387 418 348 418 296 L 418 0 Z M 338 114 L 338 225 L 230 220 C 190 218 158 209 136 195 C 114 180 103 160 103 135 C 103 110 111 91 129 78 C 147 64 170 58 199 58 C 231 58 259 64 285 77 C 311 89 328 102 338 114 Z M 231 525 L 231 525 Z M 360 525 L 102 525 L 102 587 L 360 587 L 360 525 Z" unicode="ā" />
<glyph horiz-adv-x="654" d="M 3 0 L 3 0 Z M 650 0 L 557 0 L 475 204 L 175 204 L 94 0 L 3 0 L 303 733 L 355 733 L 650 0 Z M 446 282 L 324 582 L 204 282 L 446 282 Z M 327 798 L 327 798 Z M 412 955 L 482 955 C 478 900 461 860 433 835 C 404 810 369 798 327 798 C 285 798 249 810 221 835 C 192 860 176 900 172 955 L 242 955 C 244 922 252 895 265 875 C 278 854 299 844 327 844 C 355 844 375 854 389 874 C 402 894 410 921 412 955 Z" unicode="Ă" />
<glyph horiz-adv-x="475" d="M 21 0 L 21 0 Z M 418 0 L 340 0 L 340 59 C 327 42 307 26 281 11 C 255 -4 223 -12 186 -12 C 131 -12 90 1 62 28 C 34 54 21 89 21 131 C 21 176 38 212 74 238 C 109 264 159 278 225 282 L 337 288 L 337 299 C 337 326 327 346 308 360 C 289 374 264 381 234 381 C 203 381 175 376 150 366 C 125 356 106 346 94 337 L 59 395 C 74 407 97 419 128 431 C 159 442 197 448 241 448 C 291 448 333 435 367 411 C 401 387 418 348 418 296 L 418 0 Z M 338 114 L 338 225 L 230 220 C 190 218 158 209 136 195 C 114 180 103 160 103 135 C 103 110 111 91 129 78 C 147 64 170 58 199 58 C 231 58 259 64 285 77 C 311 89 328 102 338 114 Z M 231 504 L 231 504 Z M 316 661 L 386 661 C 382 606 365 566 337 541 C 308 516 273 504 231 504 C 189 504 153 516 125 541 C 96 566 80 606 76 661 L 146 661 C 148 628 156 601 169 581 C 182 560 203 550 231 550 C 259 550 279 560 293 580 C 306 600 314 627 316 661 Z" unicode="ă" />
<glyph horiz-adv-x="654" d="M 3 0 L 3 0 Z M 650 0 L 557 0 L 475 204 L 175 204 L 94 0 L 3 0 L 303 733 L 355 733 L 650 0 Z M 446 282 L 324 582 L 204 282 L 446 282 Z M 542 -9 L 542 -9 Z M 648 -101 L 672 -136 C 652 -156 630 -171 605 -182 C 579 -192 551 -198 521 -198 C 487 -198 460 -190 440 -176 C 420 -161 411 -143 411 -121 C 411 -96 423 -73 449 -51 C 474 -29 509 -11 555 5 L 586 4 C 554 -10 528 -25 510 -40 C 491 -55 482 -71 482 -87 C 482 -102 488 -114 501 -123 C 513 -131 529 -136 548 -136 C 568 -136 587 -132 605 -126 C 623 -119 637 -111 648 -101 Z" unicode="Ą" />
<glyph horiz-adv-x="475" d="M 21 0 L 21 0 Z M 418 0 L 340 0 L 340 59 C 327 42 307 26 281 11 C 255 -4 223 -12 186 -12 C 131 -12 90 1 62 28 C 34 54 21 89 21 131 C 21 176 38 212 74 238 C 109 264 159 278 225 282 L 337 288 L 337 299 C 337 326 327 346 308 360 C 289 374 264 381 234 381 C 203 381 175 376 150 366 C 125 356 106 346 94 337 L 59 395 C 74 407 97 419 128 431 C 159 442 197 448 241 448 C 291 448 333 435 367 411 C 401 387 418 348 418 296 L 418 0 Z M 338 114 L 338 225 L 230 220 C 190 218 158 209 136 195 C 114 180 103 160 103 135 C 103 110 111 91 129 78 C 147 64 170 58 199 58 C 231 58 259 64 285 77 C 311 89 328 102 338 114 Z M 339 -9 L 339 -9 Z M 445 -101 L 469 -136 C 449 -156 427 -171 402 -182 C 376 -192 348 -198 318 -198 C 284 -198 257 -190 237 -176 C 217 -161 208 -143 208 -121 C 208 -96 220 -73 246 -51 C 271 -29 306 -11 352 5 L 383 4 C 351 -10 325 -25 307 -40 C 288 -55 279 -71 279 -87 C 279 -102 285 -114 298 -123 C 310 -131 326 -136 345 -136 C 365 -136 384 -132 402 -126 C 420 -119 434 -111 445 -101 Z" unicode="ą" />
<glyph horiz-adv-x="711" d="M 48 0 L 48 0 Z M 409 -12 C 359 -12 313 -3 269 13 C 225 30 186 55 154 87 C 121 119 95 159 76 206 C 57 253 48 306 48 365 C 48 419 57 469 75 515 C 93 561 118 600 150 634 C 182 668 220 694 265 713 C 309 732 358 742 411 742 C 477 742 532 732 576 714 C 620 695 658 670 689 638 L 634 564 C 611 590 582 611 546 629 C 510 647 466 656 414 656 C 371 656 333 648 299 634 C 265 619 236 599 213 573 C 189 547 171 515 159 479 C 147 443 141 403 141 361 C 141 313 148 270 164 234 C 179 197 199 167 224 143 C 249 119 278 100 311 88 C 343 76 377 70 413 70 C 467 70 514 80 554 102 C 594 123 626 149 651 180 L 703 121 C 671 82 630 50 580 25 C 530 0 473 -12 409 -12 Z M 411 792 L 411 792 Z M 309 792 L 415 956 L 514 956 L 393 792 L 309 792 Z" unicode="Ć" />
<glyph horiz-adv-x="462" d="M 29 0 L 29 0 Z M 385 135 L 454 96 C 439 70 416 45 384 23 C 352 0 309 -11 255 -11 C 221 -11 190 -5 162 6 C 134 18 110 34 90 54 C 70 74 55 99 45 127 C 34 155 29 185 29 218 C 29 250 34 281 46 309 C 58 337 74 361 95 382 C 115 402 140 419 168 431 C 196 443 226 449 259 449 C 311 449 353 437 386 415 C 419 393 443 369 457 343 L 380 304 C 368 324 352 341 332 354 C 312 367 288 374 258 374 C 216 374 181 358 155 328 C 128 298 115 261 115 218 C 115 174 128 137 154 107 C 180 77 215 63 258 63 C 294 63 322 71 342 88 C 361 104 375 120 385 135 Z M 246 498 L 246 498 Z M 144 498 L 250 662 L 349 662 L 228 498 L 144 498 Z" unicode="ć" />
<glyph horiz-adv-x="711" d="M 48 0 L 48 0 Z M 409 -12 C 359 -12 313 -3 269 13 C 225 30 186 55 154 87 C 121 119 95 159 76 206 C 57 253 48 306 48 365 C 48 419 57 469 75 515 C 93 561 118 600 150 634 C 182 668 220 694 265 713 C 309 732 358 742 411 742 C 477 742 532 732 576 714 C 620 695 658 670 689 638 L 634 564 C 611 590 582 611 546 629 C 510 647 466 656 414 656 C 371 656 333 648 299 634 C 265 619 236 599 213 573 C 189 547 171 515 159 479 C 147 443 141 403 141 361 C 141 313 148 270 164 234 C 179 197 199 167 224 143 C 249 119 278 100 311 88 C 343 76 377 70 413 70 C 467 70 514 80 554 102 C 594 123 626 149 651 180 L 703 121 C 671 82 630 50 580 25 C 530 0 473 -12 409 -12 Z M 411 793 L 411 793 Z M 577 793 L 499 793 L 411 905 L 322 793 L 246 793 L 369 964 L 454 964 L 577 793 Z" unicode="Ĉ" />
<glyph horiz-adv-x="462" d="M 29 0 L 29 0 Z M 385 135 L 454 96 C 439 70 416 45 384 23 C 352 0 309 -11 255 -11 C 221 -11 190 -5 162 6 C 134 18 110 34 90 54 C 70 74 55 99 45 127 C 34 155 29 185 29 218 C 29 250 34 281 46 309 C 58 337 74 361 95 382 C 115 402 140 419 168 431 C 196 443 226 449 259 449 C 311 449 353 437 386 415 C 419 393 443 369 457 343 L 380 304 C 368 324 352 341 332 354 C 312 367 288 374 258 374 C 216 374 181 358 155 328 C 128 298 115 261 115 218 C 115 174 128 137 154 107 C 180 77 215 63 258 63 C 294 63 322 71 342 88 C 361 104 375 120 385 135 Z M 246 499 L 246 499 Z M 412 499 L 334 499 L 246 611 L 157 499 L 81 499 L 204 670 L 289 670 L 412 499 Z" unicode="ĉ" />
<glyph horiz-adv-x="711" d="M 48 0 L 48 0 Z M 409 -12 C 359 -12 313 -3 269 13 C 225 30 186 55 154 87 C 121 119 95 159 76 206 C 57 253 48 306 48 365 C 48 419 57 469 75 515 C 93 561 118 600 150 634 C 182 668 220 694 265 713 C 309 732 358 742 411 742 C 477 742 532 732 576 714 C 620 695 658 670 689 638 L 634 564 C 611 590 582 611 546 629 C 510 647 466 656 414 656 C 371 656 333 648 299 634 C 265 619 236 599 213 573 C 189 547 171 515 159 479 C 147 443 141 403 141 361 C 141 313 148 270 164 234 C 179 197 199 167 224 143 C 249 119 278 100 311 88 C 343 76 377 70 413 70 C 467 70 514 80 554 102 C 594 123 626 149 651 180 L 703 121 C 671 82 630 50 580 25 C 530 0 473 -12 409 -12 Z M 411 793 L 411 793 Z M 450 793 L 373 793 L 373 956 L 450 956 L 450 793 Z" unicode="Ċ" />
<glyph horiz-adv-x="462" d="M 29 0 L 29 0 Z M 385 135 L 454 96 C 439 70 416 45 384 23 C 352 0 309 -11 255 -11 C 221 -11 190 -5 162 6 C 134 18 110 34 90 54 C 70 74 55 99 45 127 C 34 155 29 185 29 218 C 29 250 34 281 46 309 C 58 337 74 361 95 382 C 115 402 140 419 168 431 C 196 443 226 449 259 449 C 311 449 353 437 386 415 C 419 393 443 369 457 343 L 380 304 C 368 324 352 341 332 354 C 312 367 288 374 258 374 C 216 374 181 358 155 328 C 128 298 115 261 115 218 C 115 174 128 137 154 107 C 180 77 215 63 258 63 C 294 63 322 71 342 88 C 361 104 375 120 385 135 Z M 246 499 L 246 499 Z M 285 499 L 208 499 L 208 662 L 285 662 L 285 499 Z" unicode="ċ" />
<glyph horiz-adv-x="711" d="M 48 0 L 48 0 Z M 409 -12 C 359 -12 313 -3 269 13 C 225 30 186 55 154 87 C 121 119 95 159 76 206 C 57 253 48 306 48 365 C 48 419 57 469 75 515 C 93 561 118 600 150 634 C 182 668 220 694 265 713 C 309 732 358 742 411 742 C 477 742 532 732 576 714 C 620 695 658 670 689 638 L 634 564 C 611 590 582 611 546 629 C 510 647 466 656 414 656 C 371 656 333 648 299 634 C 265 619 236 599 213 573 C 189 547 171 515 159 479 C 147 443 141 403 141 361 C 141 313 148 270 164 234 C 179 197 199 167 224 143 C 249 119 278 100 311 88 C 343 76 377 70 413 70 C 467 70 514 80 554 102 C 594 123 626 149 651 180 L 703 121 C 671 82 630 50 580 25 C 530 0 473 -12 409 -12 Z M 411 793 L 411 793 Z M 246 964 L 324 964 L 412 851 L 501 964 L 577 964 L 454 793 L 369 793 L 246 964 Z" unicode="Č" />
<glyph horiz-adv-x="462" d="M 29 0 L 29 0 Z M 385 135 L 454 96 C 439 70 416 45 384 23 C 352 0 309 -11 255 -11 C 221 -11 190 -5 162 6 C 134 18 110 34 90 54 C 70 74 55 99 45 127 C 34 155 29 185 29 218 C 29 250 34 281 46 309 C 58 337 74 361 95 382 C 115 402 140 419 168 431 C 196 443 226 449 259 449 C 311 449 353 437 386 415 C 419 393 443 369 457 343 L 380 304 C 368 324 352 341 332 354 C 312 367 288 374 258 374 C 216 374 181 358 155 328 C 128 298 115 261 115 218 C 115 174 128 137 154 107 C 180 77 215 63 258 63 C 294 63 322 71 342 88 C 361 104 375 120 385 135 Z M 246 499 L 246 499 Z M 81 670 L 159 670 L 247 557 L 336 670 L 412 670 L 289 499 L 204 499 L 81 670 Z" unicode="č" />
<glyph horiz-adv-x="747" d="M 97 0 L 97 0 Z M 97 0 L 97 730 L 311 730 C 371 730 425 721 473 705 C 521 688 562 664 595 634 C 628 604 653 567 671 523 C 689 479 698 431 698 379 C 698 325 689 275 672 229 C 654 183 629 143 596 109 C 562 75 520 48 470 29 C 420 9 362 0 296 0 L 97 0 Z M 187 80 L 293 80 C 345 80 391 87 430 102 C 469 117 501 138 527 165 C 553 191 572 223 585 259 C 597 295 604 334 604 376 C 604 457 577 523 524 573 C 471 623 399 648 307 648 L 187 648 L 187 80 Z M 346 793 L 346 793 Z M 181 964 L 259 964 L 347 851 L 436 964 L 512 964 L 389 793 L 304 793 L 181 964 Z" unicode="Ď" />
<glyph horiz-adv-x="538" d="M 29 0 L 29 0 Z M 236 -8 C 204 -8 176 -2 151 9 C 125 21 104 36 86 56 C 68 76 54 99 44 125 C 34 151 29 179 29 209 C 29 244 34 276 45 306 C 56 336 71 361 90 382 C 108 403 130 419 156 431 C 182 443 209 449 238 449 C 277 449 310 440 337 422 C 363 404 382 384 392 363 L 392 730 L 473 730 L 473 0 L 395 0 L 395 94 C 386 68 368 45 340 24 C 312 2 278 -8 236 -8 Z M 258 58 C 294 58 325 73 353 103 C 381 133 395 173 395 223 C 395 249 391 272 383 292 C 375 312 364 328 351 342 C 338 355 323 365 306 372 C 288 378 271 382 253 382 C 212 382 179 366 153 336 C 127 306 115 267 115 219 C 115 175 127 137 152 105 C 176 73 212 58 258 58 Z M 617 621 L 613 486 L 543 486 L 539 621 L 539 730 L 617 730 L 617 621 Z" unicode="ď" />
<glyph horiz-adv-x="747" d="M 35 0 L 35 0 Z M 698 367 C 698 316 689 268 672 224 C 654 179 629 140 596 107 C 562 74 520 48 470 29 C 420 9 362 0 296 0 L 97 0 L 97 319 L 35 319 L 35 395 L 97 395 L 97 730 L 311 730 C 372 730 427 721 475 704 C 523 687 564 663 597 632 C 629 600 654 562 672 517 C 689 472 698 422 698 367 Z M 187 80 L 289 80 C 345 80 393 88 433 104 C 473 120 505 141 531 167 C 556 193 574 224 586 258 C 598 292 604 328 604 364 C 604 452 578 522 526 572 C 474 622 402 648 311 648 L 187 648 L 187 395 L 375 395 L 375 319 L 187 319 L 187 80 Z" unicode="Đ" />
<glyph horiz-adv-x="538" d="M 395 94 C 386 68 368 45 340 24 C 312 2 278 -8 236 -8 C 204 -8 176 -2 151 9 C 125 21 104 36 86 56 C 68 76 54 99 44 125 C 34 151 29 179 29 209 C 29 244 34 276 45 306 C 56 336 71 361 90 382 C 108 403 130 419 156 431 C 182 443 209 449 238 449 C 277 449 310 440 337 422 C 363 404 382 384 392 363 L 392 552 L 276 552 L 276 624 L 392 624 L 392 730 L 473 730 L 473 624 L 531 624 L 531 552 L 473 552 L 473 0 L 395 0 L 395 94 Z M 258 58 C 294 58 325 73 353 103 C 381 133 395 173 395 223 C 395 249 391 272 383 292 C 375 312 364 328 351 342 C 338 355 323 365 306 372 C 288 378 271 382 253 382 C 212 382 179 366 153 336 C 127 306 115 267 115 219 C 115 175 127 137 152 105 C 176 73 212 58 258 58 Z" unicode="đ" />
<glyph horiz-adv-x="580" d="M 97 0 L 97 0 Z M 526 0 L 97 0 L 97 730 L 507 730 L 507 649 L 186 649 L 186 401 L 493 401 L 493 320 L 186 320 L 186 81 L 526 81 L 526 0 Z M 305 819 L 305 819 Z M 434 819 L 176 819 L 176 881 L 434 881 L 434 819 Z" unicode="Ē" />
<glyph horiz-adv-x="498" d="M 30 0 L 30 0 Z M 268 -11 C 234 -11 202 -5 173 4 C 143 14 118 29 97 49 C 76 68 60 92 48 120 C 36 148 30 179 30 215 C 30 247 35 278 47 306 C 58 334 74 359 94 380 C 114 401 138 418 167 430 C 195 442 227 449 261 449 C 327 449 380 426 421 382 C 462 338 483 275 483 194 L 107 194 C 109 153 124 120 153 95 C 181 70 220 58 268 58 C 309 58 340 64 361 77 C 382 89 398 102 410 116 L 462 67 C 443 46 420 28 392 12 C 364 -3 323 -11 268 -11 Z M 110 259 L 403 259 C 401 291 388 319 362 344 C 336 368 302 381 258 381 C 214 381 179 368 153 344 C 127 319 112 291 110 259 Z M 257 525 L 257 525 Z M 386 525 L 128 525 L 128 587 L 386 587 L 386 525 Z" unicode="ē" />
<glyph horiz-adv-x="580" d="M 97 0 L 97 0 Z M 526 0 L 97 0 L 97 730 L 507 730 L 507 649 L 186 649 L 186 401 L 493 401 L 493 320 L 186 320 L 186 81 L 526 81 L 526 0 Z M 305 798 L 305 798 Z M 390 955 L 460 955 C 456 900 439 860 411 835 C 382 810 347 798 305 798 C 263 798 227 810 199 835 C 170 860 154 900 150 955 L 220 955 C 222 922 230 895 243 875 C 256 854 277 844 305 844 C 333 844 353 854 367 874 C 380 894 388 921 390 955 Z" unicode="Ĕ" />
<glyph horiz-adv-x="498" d="M 30 0 L 30 0 Z M 268 -11 C 234 -11 202 -5 173 4 C 143 14 118 29 97 49 C 76 68 60 92 48 120 C 36 148 30 179 30 215 C 30 247 35 278 47 306 C 58 334 74 359 94 380 C 114 401 138 418 167 430 C 195 442 227 449 261 449 C 327 449 380 426 421 382 C 462 338 483 275 483 194 L 107 194 C 109 153 124 120 153 95 C 181 70 220 58 268 58 C 309 58 340 64 361 77 C 382 89 398 102 410 116 L 462 67 C 443 46 420 28 392 12 C 364 -3 323 -11 268 -11 Z M 110 259 L 403 259 C 401 291 388 319 362 344 C 336 368 302 381 258 381 C 214 381 179 368 153 344 C 127 319 112 291 110 259 Z M 257 504 L 257 504 Z M 342 661 L 412 661 C 408 606 391 566 363 541 C 334 516 299 504 257 504 C 215 504 179 516 151 541 C 122 566 106 606 102 661 L 172 661 C 174 628 182 601 195 581 C 208 560 229 550 257 550 C 285 550 305 560 319 580 C 332 600 340 627 342 661 Z" unicode="ĕ" />
<glyph horiz-adv-x="580" d="M 97 0 L 97 0 Z M 526 0 L 97 0 L 97 730 L 507 730 L 507 649 L 186 649 L 186 401 L 493 401 L 493 320 L 186 320 L 186 81 L 526 81 L 526 0 Z M 305 793 L 305 793 Z M 344 793 L 267 793 L 267 956 L 344 956 L 344 793 Z" unicode="Ė" />
<glyph horiz-adv-x="498" d="M 30 0 L 30 0 Z M 268 -11 C 234 -11 202 -5 173 4 C 143 14 118 29 97 49 C 76 68 60 92 48 120 C 36 148 30 179 30 215 C 30 247 35 278 47 306 C 58 334 74 359 94 380 C 114 401 138 418 167 430 C 195 442 227 449 261 449 C 327 449 380 426 421 382 C 462 338 483 275 483 194 L 107 194 C 109 153 124 120 153 95 C 181 70 220 58 268 58 C 309 58 340 64 361 77 C 382 89 398 102 410 116 L 462 67 C 443 46 420 28 392 12 C 364 -3 323 -11 268 -11 Z M 110 259 L 403 259 C 401 291 388 319 362 344 C 336 368 302 381 258 381 C 214 381 179 368 153 344 C 127 319 112 291 110 259 Z M 257 499 L 257 499 Z M 296 499 L 219 499 L 219 662 L 296 662 L 296 499 Z" unicode="ė" />
<glyph horiz-adv-x="580" d="M 97 0 L 97 0 Z M 526 0 L 97 0 L 97 730 L 507 730 L 507 649 L 186 649 L 186 401 L 493 401 L 493 320 L 186 320 L 186 81 L 526 81 L 526 0 Z M 482 -9 L 482 -9 Z M 588 -101 L 612 -136 C 592 -156 570 -171 545 -182 C 519 -192 491 -198 461 -198 C 427 -198 400 -190 380 -176 C 360 -161 351 -143 351 -121 C 351 -96 363 -73 389 -51 C 414 -29 449 -11 495 5 L 526 4 C 494 -10 468 -25 450 -40 C 431 -55 422 -71 422 -87 C 422 -102 428 -114 441 -123 C 453 -131 469 -136 488 -136 C 508 -136 527 -132 545 -126 C 563 -119 577 -111 588 -101 Z" unicode="Ę" />
<glyph horiz-adv-x="498" d="M 30 0 L 30 0 Z M 268 -11 C 234 -11 202 -5 173 4 C 143 14 118 29 97 49 C 76 68 60 92 48 120 C 36 148 30 179 30 215 C 30 247 35 278 47 306 C 58 334 74 359 94 380 C 114 401 138 418 167 430 C 195 442 227 449 261 449 C 327 449 380 426 421 382 C 462 338 483 275 483 194 L 107 194 C 109 153 124 120 153 95 C 181 70 220 58 268 58 C 309 58 340 64 361 77 C 382 89 398 102 410 116 L 462 67 C 443 46 420 28 392 12 C 364 -3 323 -11 268 -11 Z M 110 259 L 403 259 C 401 291 388 319 362 344 C 336 368 302 381 258 381 C 214 381 179 368 153 344 C 127 319 112 291 110 259 Z M 325 -9 L 325 -9 Z M 431 -101 L 455 -136 C 435 -156 413 -171 388 -182 C 362 -192 334 -198 304 -198 C 270 -198 243 -190 223 -176 C 203 -161 194 -143 194 -121 C 194 -96 206 -73 232 -51 C 257 -29 292 -11 338 5 L 369 4 C 337 -10 311 -25 293 -40 C 274 -55 265 -71 265 -87 C 265 -102 271 -114 284 -123 C 296 -131 312 -136 331 -136 C 351 -136 370 -132 388 -126 C 406 -119 420 -111 431 -101 Z" unicode="ę" />
<glyph horiz-adv-x="580" d="M 97 0 L 97 0 Z M 526 0 L 97 0 L 97 730 L 507 730 L 507 649 L 186 649 L 186 401 L 493 401 L 493 320 L 186 320 L 186 81 L 526 81 L 526 0 Z M 305 793 L 305 793 Z M 140 964 L 218 964 L 306 851 L 395 964 L 471 964 L 348 793 L 263 793 L 140 964 Z" unicode="Ě" />
<glyph horiz-adv-x="498" d="M 30 0 L 30 0 Z M 268 -11 C 234 -11 202 -5 173 4 C 143 14 118 29 97 49 C 76 68 60 92 48 120 C 36 148 30 179 30 215 C 30 247 35 278 47 306 C 58 334 74 359 94 380 C 114 401 138 418 167 430 C 195 442 227 449 261 449 C 327 449 380 426 421 382 C 462 338 483 275 483 194 L 107 194 C 109 153 124 120 153 95 C 181 70 220 58 268 58 C 309 58 340 64 361 77 C 382 89 398 102 410 116 L 462 67 C 443 46 420 28 392 12 C 364 -3 323 -11 268 -11 Z M 110 259 L 403 259 C 401 291 388 319 362 344 C 336 368 302 381 258 381 C 214 381 179 368 153 344 C 127 319 112 291 110 259 Z M 257 499 L 257 499 Z M 92 670 L 170 670 L 258 557 L 347 670 L 423 670 L 300 499 L 215 499 L 92 670 Z" unicode="ě" />
<glyph horiz-adv-x="774" d="M 48 0 L 48 0 Z M 426 365 L 726 365 L 726 150 C 699 101 659 62 605 32 C 551 2 488 -12 416 -12 C 364 -12 315 -2 270 16 C 225 34 186 60 153 94 C 120 127 94 167 76 213 C 57 259 48 310 48 365 C 48 422 58 474 78 521 C 98 567 124 607 158 640 C 192 672 231 697 276 715 C 321 733 369 742 419 742 C 455 742 487 738 515 732 C 543 726 567 718 588 708 C 609 698 627 687 642 675 C 657 663 670 651 681 640 L 622 579 C 602 597 576 615 543 631 C 509 647 467 656 415 656 C 375 656 339 648 305 634 C 271 620 242 600 218 575 C 194 549 175 519 161 483 C 147 447 140 407 140 364 C 140 324 147 286 161 250 C 175 214 194 182 219 155 C 243 128 273 107 308 91 C 342 75 380 67 420 67 C 471 67 517 77 558 98 C 598 118 628 145 647 178 L 647 282 L 426 282 L 426 365 Z M 418 793 L 418 793 Z M 584 793 L 506 793 L 418 905 L 329 793 L 253 793 L 376 964 L 461 964 L 584 793 Z" unicode="Ĝ" />
<glyph horiz-adv-x="538" d="M 29 0 L 29 0 Z M 235 -4 C 203 -4 175 1 149 13 C 123 24 102 40 84 60 C 66 80 53 103 43 131 C 33 158 29 187 29 219 C 29 286 48 341 88 384 C 127 427 177 449 237 449 C 275 449 309 440 337 422 C 365 404 385 383 395 361 L 395 436 L 473 436 L 473 32 C 473 -6 467 -40 455 -68 C 443 -96 426 -120 406 -138 C 386 -156 362 -170 334 -179 C 306 -187 277 -192 247 -192 C 201 -192 164 -187 138 -178 C 112 -169 92 -160 78 -152 L 109 -87 C 119 -95 135 -103 157 -112 C 178 -121 206 -126 240 -126 C 259 -126 278 -123 297 -118 C 315 -112 332 -104 346 -93 C 360 -81 371 -67 379 -50 C 387 -32 392 -12 392 11 L 392 91 C 383 65 364 43 336 24 C 307 5 273 -4 235 -4 Z M 257 57 C 295 57 327 72 354 103 C 381 134 395 174 395 222 C 395 270 380 308 352 338 C 324 368 289 383 249 383 C 212 383 180 368 154 338 C 128 308 115 268 115 220 C 115 174 127 135 153 104 C 178 72 213 57 257 57 Z M 243 499 L 243 499 Z M 409 499 L 331 499 L 243 611 L 154 499 L 78 499 L 201 670 L 286 670 L 409 499 Z" unicode="ĝ" />
<glyph horiz-adv-x="774" d="M 48 0 L 48 0 Z M 426 365 L 726 365 L 726 150 C 699 101 659 62 605 32 C 551 2 488 -12 416 -12 C 364 -12 315 -2 270 16 C 225 34 186 60 153 94 C 120 127 94 167 76 213 C 57 259 48 310 48 365 C 48 422 58 474 78 521 C 98 567 124 607 158 640 C 192 672 231 697 276 715 C 321 733 369 742 419 742 C 455 742 487 738 515 732 C 543 726 567 718 588 708 C 609 698 627 687 642 675 C 657 663 670 651 681 640 L 622 579 C 602 597 576 615 543 631 C 509 647 467 656 415 656 C 375 656 339 648 305 634 C 271 620 242 600 218 575 C 194 549 175 519 161 483 C 147 447 140 407 140 364 C 140 324 147 286 161 250 C 175 214 194 182 219 155 C 243 128 273 107 308 91 C 342 75 380 67 420 67 C 471 67 517 77 558 98 C 598 118 628 145 647 178 L 647 282 L 426 282 L 426 365 Z M 418 798 L 418 798 Z M 503 955 L 573 955 C 569 900 552 860 524 835 C 495 810 460 798 418 798 C 376 798 340 810 312 835 C 283 860 267 900 263 955 L 333 955 C 335 922 343 895 356 875 C 369 854 390 844 418 844 C 446 844 466 854 480 874 C 493 894 501 921 503 955 Z" unicode="Ğ" />
<glyph horiz-adv-x="538" d="M 29 0 L 29 0 Z M 235 -4 C 203 -4 175 1 149 13 C 123 24 102 40 84 60 C 66 80 53 103 43 131 C 33 158 29 187 29 219 C 29 286 48 341 88 384 C 127 427 177 449 237 449 C 275 449 309 440 337 422 C 365 404 385 383 395 361 L 395 436 L 473 436 L 473 32 C 473 -6 467 -40 455 -68 C 443 -96 426 -120 406 -138 C 386 -156 362 -170 334 -179 C 306 -187 277 -192 247 -192 C 201 -192 164 -187 138 -178 C 112 -169 92 -160 78 -152 L 109 -87 C 119 -95 135 -103 157 -112 C 178 -121 206 -126 240 -126 C 259 -126 278 -123 297 -118 C 315 -112 332 -104 346 -93 C 360 -81 371 -67 379 -50 C 387 -32 392 -12 392 11 L 392 91 C 383 65 364 43 336 24 C 307 5 273 -4 235 -4 Z M 257 57 C 295 57 327 72 354 103 C 381 134 395 174 395 222 C 395 270 380 308 352 338 C 324 368 289 383 249 383 C 212 383 180 368 154 338 C 128 308 115 268 115 220 C 115 174 127 135 153 104 C 178 72 213 57 257 57 Z M 243 504 L 243 504 Z M 328 661 L 398 661 C 394 606 377 566 349 541 C 320 516 285 504 243 504 C 201 504 165 516 137 541 C 108 566 92 606 88 661 L 158 661 C 160 628 168 601 181 581 C 194 560 215 550 243 550 C 271 550 291 560 305 580 C 318 600 326 627 328 661 Z" unicode="ğ" />
<glyph horiz-adv-x="774" d="M 48 0 L 48 0 Z M 426 365 L 726 365 L 726 150 C 699 101 659 62 605 32 C 551 2 488 -12 416 -12 C 364 -12 315 -2 270 16 C 225 34 186 60 153 94 C 120 127 94 167 76 213 C 57 259 48 310 48 365 C 48 422 58 474 78 521 C 98 567 124 607 158 640 C 192 672 231 697 276 715 C 321 733 369 742 419 742 C 455 742 487 738 515 732 C 543 726 567 718 588 708 C 609 698 627 687 642 675 C 657 663 670 651 681 640 L 622 579 C 602 597 576 615 543 631 C 509 647 467 656 415 656 C 375 656 339 648 305 634 C 271 620 242 600 218 575 C 194 549 175 519 161 483 C 147 447 140 407 140 364 C 140 324 147 286 161 250 C 175 214 194 182 219 155 C 243 128 273 107 308 91 C 342 75 380 67 420 67 C 471 67 517 77 558 98 C 598 118 628 145 647 178 L 647 282 L 426 282 L 426 365 Z M 418 793 L 418 793 Z M 457 793 L 380 793 L 380 956 L 457 956 L 457 793 Z" unicode="Ġ" />
<glyph horiz-adv-x="538" d="M 29 0 L 29 0 Z M 235 -4 C 203 -4 175 1 149 13 C 123 24 102 40 84 60 C 66 80 53 103 43 131 C 33 158 29 187 29 219 C 29 286 48 341 88 384 C 127 427 177 449 237 449 C 275 449 309 440 337 422 C 365 404 385 383 395 361 L 395 436 L 473 436 L 473 32 C 473 -6 467 -40 455 -68 C 443 -96 426 -120 406 -138 C 386 -156 362 -170 334 -179 C 306 -187 277 -192 247 -192 C 201 -192 164 -187 138 -178 C 112 -169 92 -160 78 -152 L 109 -87 C 119 -95 135 -103 157 -112 C 178 -121 206 -126 240 -126 C 259 -126 278 -123 297 -118 C 315 -112 332 -104 346 -93 C 360 -81 371 -67 379 -50 C 387 -32 392 -12 392 11 L 392 91 C 383 65 364 43 336 24 C 307 5 273 -4 235 -4 Z M 257 57 C 295 57 327 72 354 103 C 381 134 395 174 395 222 C 395 270 380 308 352 338 C 324 368 289 383 249 383 C 212 383 180 368 154 338 C 128 308 115 268 115 220 C 115 174 127 135 153 104 C 178 72 213 57 257 57 Z M 243 499 L 243 499 Z M 282 499 L 205 499 L 205 662 L 282 662 L 282 499 Z" unicode="ġ" />
<glyph horiz-adv-x="774" d="M 48 0 L 48 0 Z M 426 365 L 726 365 L 726 150 C 699 101 659 62 605 32 C 551 2 488 -12 416 -12 C 364 -12 315 -2 270 16 C 225 34 186 60 153 94 C 120 127 94 167 76 213 C 57 259 48 310 48 365 C 48 422 58 474 78 521 C 98 567 124 607 158 640 C 192 672 231 697 276 715 C 321 733 369 742 419 742 C 455 742 487 738 515 732 C 543 726 567 718 588 708 C 609 698 627 687 642 675 C 657 663 670 651 681 640 L 622 579 C 602 597 576 615 543 631 C 509 647 467 656 415 656 C 375 656 339 648 305 634 C 271 620 242 600 218 575 C 194 549 175 519 161 483 C 147 447 140 407 140 364 C 140 324 147 286 161 250 C 175 214 194 182 219 155 C 243 128 273 107 308 91 C 342 75 380 67 420 67 C 471 67 517 77 558 98 C 598 118 628 145 647 178 L 647 282 L 426 282 L 426 365 Z" unicode="Ģ" />
<glyph horiz-adv-x="538" d="M 29 0 L 29 0 Z M 235 -4 C 203 -4 175 1 149 13 C 123 24 102 40 84 60 C 66 80 53 103 43 131 C 33 158 29 187 29 219 C 29 286 48 341 88 384 C 127 427 177 449 237 449 C 275 449 309 440 337 422 C 365 404 385 383 395 361 L 395 436 L 473 436 L 473 32 C 473 -6 467 -40 455 -68 C 443 -96 426 -120 406 -138 C 386 -156 362 -170 334 -179 C 306 -187 277 -192 247 -192 C 201 -192 164 -187 138 -178 C 112 -169 92 -160 78 -152 L 109 -87 C 119 -95 135 -103 157 -112 C 178 -121 206 -126 240 -126 C 259 -126 278 -123 297 -118 C 315 -112 332 -104 346 -93 C 360 -81 371 -67 379 -50 C 387 -32 392 -12 392 11 L 392 91 C 383 65 364 43 336 24 C 307 5 273 -4 235 -4 Z M 257 57 C 295 57 327 72 354 103 C 381 134 395 174 395 222 C 395 270 380 308 352 338 C 324 368 289 383 249 383 C 212 383 180 368 154 338 C 128 308 115 268 115 220 C 115 174 127 135 153 104 C 178 72 213 57 257 57 Z" unicode="ģ" />
<glyph horiz-adv-x="762" d="M 97 0 L 97 0 Z M 665 0 L 575 0 L 575 318 L 187 318 L 187 0 L 97 0 L 97 730 L 187 730 L 187 403 L 575 403 L 575 730 L 665 730 L 665 0 Z M 380 793 L 380 793 Z M 546 793 L 468 793 L 380 905 L 291 793 L 215 793 L 338 964 L 423 964 L 546 793 Z" unicode="Ĥ" />
<glyph horiz-adv-x="524" d="M 65 0 L 65 0 Z M 464 0 L 381 0 L 381 281 C 381 313 371 338 352 356 C 332 374 306 383 274 383 C 241 383 212 372 186 351 C 160 329 148 297 148 255 L 148 0 L 65 0 L 65 730 L 143 730 L 143 347 C 151 375 169 399 197 419 C 225 439 261 449 305 449 C 353 449 391 435 420 408 C 449 380 464 343 464 295 L 464 0 Z M 264 793 L 264 793 Z M 430 793 L 352 793 L 264 905 L 175 793 L 99 793 L 222 964 L 307 964 L 430 793 Z" unicode="ĥ" />
<glyph horiz-adv-x="762" d="M 187 318 L 187 0 L 97 0 L 97 554 L 12 554 L 12 624 L 97 624 L 97 730 L 187 730 L 187 624 L 575 624 L 575 730 L 665 730 L 665 624 L 750 624 L 750 554 L 665 554 L 665 0 L 575 0 L 575 318 L 187 318 Z M 187 403 L 575 403 L 575 554 L 187 554 L 187 403 Z" unicode="Ħ" />
<glyph horiz-adv-x="524" d="M 148 255 L 148 0 L 65 0 L 65 554 L 8 554 L 8 624 L 65 624 L 65 730 L 143 730 L 143 624 L 270 624 L 270 554 L 143 554 L 143 347 C 151 375 169 399 197 419 C 225 439 261 449 305 449 C 353 449 391 435 420 408 C 449 380 464 343 464 295 L 464 0 L 381 0 L 381 281 C 381 313 371 338 352 356 C 332 374 306 383 274 383 C 241 383 212 372 186 351 C 160 329 148 297 148 255 Z" unicode="ħ" />
<glyph horiz-adv-x="293" d="M 0 0 L 0 0 Z M 192 0 L 102 0 L 102 730 L 192 730 L 192 0 Z M 147 800 L 147 800 Z M 244 934 L 306 934 C 306 888 299 854 286 832 C 273 810 256 800 235 800 C 216 800 199 803 185 811 C 171 819 159 826 150 833 C 140 839 130 846 120 853 C 110 859 101 863 93 863 C 83 863 75 857 68 846 C 60 835 57 821 57 804 L -6 804 C -6 849 2 883 20 905 C 38 927 57 938 78 938 C 93 938 107 934 119 927 C 131 919 143 911 156 903 C 164 896 173 889 183 882 C 192 875 201 872 211 872 C 219 872 227 877 234 889 C 240 900 244 915 244 934 Z" unicode="Ĩ" />
<glyph horiz-adv-x="224" d="M 0 0 L 0 0 Z M 154 0 L 71 0 L 71 436 L 154 436 L 154 0 Z M 111 506 L 111 506 Z M 208 640 L 270 640 C 270 594 263 560 250 538 C 237 516 220 506 199 506 C 180 506 163 509 149 517 C 135 525 123 532 114 539 C 104 545 94 552 84 559 C 74 565 65 569 57 569 C 47 569 39 563 32 552 C 24 541 21 527 21 510 L -42 510 C -42 555 -33 589 -15 611 C 2 633 21 644 42 644 C 57 644 71 640 83 633 C 95 625 107 617 120 609 C 128 602 137 595 147 588 C 156 581 165 578 175 578 C 183 578 191 583 198 595 C 204 606 208 621 208 640 Z" unicode="ĩ" />
<glyph horiz-adv-x="293" d="M 18 0 L 18 0 Z M 192 0 L 102 0 L 102 730 L 192 730 L 192 0 Z M 147 819 L 147 819 Z M 276 819 L 18 819 L 18 881 L 276 881 L 276 819 Z" unicode="Ī" />
<glyph horiz-adv-x="224" d="M 0 0 L 0 0 Z M 154 0 L 71 0 L 71 436 L 154 436 L 154 0 Z M 111 525 L 111 525 Z M 240 525 L -18 525 L -18 587 L 240 587 L 240 525 Z" unicode="ī" />
<glyph horiz-adv-x="293" d="M 0 0 L 0 0 Z M 192 0 L 102 0 L 102 730 L 192 730 L 192 0 Z M 147 798 L 147 798 Z M 232 955 L 302 955 C 298 900 281 860 253 835 C 224 810 189 798 147 798 C 105 798 69 810 41 835 C 12 860 -4 900 -8 955 L 62 955 C 64 922 72 895 85 875 C 98 854 119 844 147 844 C 175 844 195 854 209 874 C 222 894 230 921 232 955 Z" unicode="Ĭ" />
<glyph horiz-adv-x="224" d="M 0 0 L 0 0 Z M 154 0 L 71 0 L 71 436 L 154 436 L 154 0 Z M 111 504 L 111 504 Z M 196 661 L 266 661 C 262 606 245 566 217 541 C 188 516 153 504 111 504 C 69 504 33 516 5 541 C -23 566 -40 606 -44 661 L 26 661 C 28 628 36 601 49 581 C 62 560 83 550 111 550 C 139 550 159 560 173 580 C 186 600 194 627 196 661 Z" unicode="ĭ" />
<glyph horiz-adv-x="293" d="M 0 0 L 0 0 Z M 192 0 L 102 0 L 102 730 L 192 730 L 192 0 Z M 91 -12 L 91 -12 Z M 197 -104 L 221 -139 C 201 -159 179 -174 154 -185 C 128 -195 100 -201 70 -201 C 36 -201 9 -193 -10 -179 C -30 -164 -40 -146 -40 -124 C -40 -99 -27 -76 -2 -54 C 23 -32 58 -14 104 2 L 135 1 C 103 -13 77 -28 59 -43 C 40 -58 31 -74 31 -90 C 31 -105 37 -117 50 -126 C 62 -134 78 -139 97 -139 C 117 -139 136 -135 154 -129 C 172 -122 186 -114 197 -104 Z" unicode="Į" />
<glyph horiz-adv-x="224" d="M 0 0 L 0 0 Z M 69 539 L 69 627 L 156 627 L 156 539 L 69 539 Z M 71 0 L 71 436 L 154 436 L 154 0 L 71 0 Z M 69 -9 L 69 -9 Z M 175 -101 L 199 -136 C 179 -156 157 -171 132 -182 C 106 -192 78 -198 48 -198 C 14 -198 -12 -190 -32 -176 C -52 -161 -62 -143 -62 -121 C -62 -96 -49 -73 -24 -51 C 1 -29 36 -11 82 5 L 113 4 C 81 -10 55 -25 37 -40 C 18 -55 9 -71 9 -87 C 9 -102 15 -114 28 -123 C 40 -131 56 -136 75 -136 C 95 -136 114 -132 132 -126 C 150 -119 164 -111 175 -101 Z" unicode="į" />
<glyph horiz-adv-x="293" d="M 102 0 L 102 0 Z M 192 0 L 102 0 L 102 730 L 192 730 L 192 0 Z M 147 793 L 147 793 Z M 186 793 L 109 793 L 109 956 L 186 956 L 186 793 Z" unicode="İ" />
<glyph horiz-adv-x="224" d="M 154 0 L 71 0 L 71 436 L 154 436 L 154 0 Z" unicode="ı" />
<glyph horiz-adv-x="607" d="M 102 0 L 102 0 Z M 192 0 L 102 0 L 102 730 L 192 730 L 192 0 Z M 526 730 L 526 192 C 526 165 521 139 513 114 C 505 89 492 67 476 49 C 459 31 438 16 412 5 C 386 -6 356 -12 322 -12 C 305 -12 289 -11 274 -9 C 258 -7 246 -5 237 -3 L 238 78 C 244 75 256 73 273 71 C 290 69 305 68 317 68 C 357 68 388 79 410 101 C 432 123 444 151 444 184 L 444 730 L 526 730 Z" unicode="Ĳ" />
<glyph horiz-adv-x="412" d="M 69 0 L 69 0 Z M 69 539 L 69 627 L 156 627 L 156 539 L 69 539 Z M 71 0 L 71 436 L 154 436 L 154 0 L 71 0 Z M 359 539 L 272 539 L 272 627 L 359 627 L 359 539 Z M 357 436 L 357 -69 C 357 -106 345 -138 322 -164 C 299 -190 268 -202 230 -202 C 222 -202 212 -201 201 -200 C 189 -198 181 -197 176 -196 L 178 -127 C 180 -127 185 -128 192 -129 C 199 -129 205 -130 211 -130 C 227 -130 242 -124 255 -112 C 267 -100 274 -82 274 -58 L 274 436 L 357 436 Z" unicode="ĳ" />
<glyph horiz-adv-x="381" d="M 22 0 L 22 0 Z M 311 730 L 311 192 C 311 165 306 139 298 114 C 290 89 277 67 261 49 C 244 31 223 16 197 5 C 171 -6 141 -12 107 -12 C 90 -12 74 -11 59 -9 C 43 -7 31 -5 22 -3 L 23 78 C 29 75 41 73 58 71 C 75 69 90 68 102 68 C 142 68 173 79 195 101 C 217 123 229 151 229 184 L 229 730 L 311 730 Z M 270 793 L 270 793 Z M 436 793 L 358 793 L 270 905 L 181 793 L 105 793 L 228 964 L 313 964 L 436 793 Z" unicode="Ĵ" />
<glyph horiz-adv-x="214" d="M 0 0 L 0 0 Z M 149 436 L 149 -69 C 149 -106 137 -138 114 -164 C 91 -190 60 -202 22 -202 C 14 -202 4 -201 -7 -200 C -18 -198 -26 -197 -32 -196 L -30 -127 C -27 -127 -22 -128 -15 -129 C -8 -129 -2 -130 3 -130 C 19 -130 34 -124 47 -112 C 59 -100 66 -82 66 -58 L 66 436 L 149 436 Z M 107 499 L 107 499 Z M 273 499 L 195 499 L 107 611 L 18 499 L -58 499 L 65 670 L 150 670 L 273 499 Z" unicode="ĵ" />
<glyph horiz-adv-x="688" d="M 97 0 L 97 0 Z M 679 0 L 562 0 L 281 326 L 187 216 L 187 0 L 97 0 L 97 730 L 187 730 L 187 332 L 524 730 L 634 730 L 339 393 L 679 0 Z M 348 -72 L 348 -72 Z M 439 -72 C 436 -94 431 -116 423 -140 C 415 -163 405 -185 395 -207 C 384 -229 372 -249 359 -268 C 345 -287 332 -303 318 -316 L 256 -287 C 264 -277 272 -265 282 -250 C 292 -234 301 -217 310 -198 C 318 -179 326 -159 334 -137 C 342 -115 348 -93 352 -72 L 439 -72 Z" unicode="Ķ" />
<glyph horiz-adv-x="482" d="M 65 0 L 65 0 Z M 495 0 L 395 0 L 233 200 L 147 109 L 147 0 L 65 0 L 65 730 L 143 730 L 143 199 L 358 436 L 455 436 L 286 256 L 495 0 Z M 241 -72 L 241 -72 Z M 332 -72 C 329 -94 324 -116 316 -140 C 308 -163 298 -185 288 -207 C 277 -229 265 -249 252 -268 C 238 -287 225 -303 211 -316 L 149 -287 C 157 -277 165 -265 175 -250 C 185 -234 194 -217 203 -198 C 211 -179 219 -159 227 -137 C 235 -115 241 -93 245 -72 L 332 -72 Z" unicode="ķ" />
<glyph horiz-adv-x="482" d="M 495 0 L 395 0 L 233 200 L 147 109 L 147 0 L 65 0 L 65 436 L 143 436 L 143 199 L 358 436 L 455 436 L 286 256 L 495 0 Z" unicode="ĸ" />
<glyph horiz-adv-x="498" d="M 97 0 L 97 0 Z M 489 0 L 97 0 L 97 730 L 187 730 L 187 81 L 489 81 L 489 0 Z M 298 792 L 298 792 Z M 196 792 L 302 956 L 401 956 L 280 792 L 196 792 Z" unicode="Ĺ" />
<glyph horiz-adv-x="217" d="M 67 0 L 67 0 Z M 170 792 L 170 792 Z M 68 792 L 174 956 L 273 956 L 152 792 L 68 792 Z M 150 730 L 150 0 L 67 0 L 67 730 L 150 730 Z" unicode="ĺ" />
<glyph horiz-adv-x="498" d="M 97 0 L 97 0 Z M 489 0 L 97 0 L 97 730 L 187 730 L 187 81 L 489 81 L 489 0 Z M 269 -72 L 269 -72 Z M 360 -72 C 357 -94 352 -116 344 -140 C 336 -163 326 -185 316 -207 C 305 -229 293 -249 280 -268 C 266 -287 253 -303 239 -316 L 177 -287 C 185 -277 193 -265 203 -250 C 213 -234 222 -217 231 -198 C 239 -179 247 -159 255 -137 C 263 -115 269 -93 273 -72 L 360 -72 Z" unicode="Ļ" />
<glyph horiz-adv-x="217" d="M 0 0 L 0 0 Z M 150 730 L 150 0 L 67 0 L 67 730 L 150 730 Z M 76 -72 L 76 -72 Z M 167 -72 C 164 -94 159 -116 151 -140 C 143 -163 133 -185 123 -207 C 112 -229 100 -249 87 -268 C 73 -287 60 -303 46 -316 L -16 -287 C -8 -277 0 -265 10 -250 C 20 -234 29 -217 38 -198 C 46 -179 54 -159 62 -137 C 70 -115 76 -93 80 -72 L 167 -72 Z" unicode="ļ" />
<glyph horiz-adv-x="498" d="M 97 0 L 97 0 Z M 489 0 L 97 0 L 97 730 L 187 730 L 187 81 L 489 81 L 489 0 Z M 469 621 L 465 486 L 395 486 L 391 621 L 391 730 L 469 730 L 469 621 Z" unicode="Ľ" />
<glyph horiz-adv-x="217" d="M 67 0 L 67 0 Z M 295 621 L 291 486 L 221 486 L 217 621 L 217 730 L 295 730 L 295 621 Z M 150 730 L 150 0 L 67 0 L 67 730 L 150 730 Z" unicode="ľ" />
<glyph horiz-adv-x="498" d="M 97 0 L 97 0 Z M 489 0 L 97 0 L 97 730 L 187 730 L 187 81 L 489 81 L 489 0 Z M 363 280 L 363 280 Z M 402 280 L 325 280 L 325 443 L 402 443 L 402 280 Z" unicode="Ŀ" />
<glyph horiz-adv-x="217" d="M 67 0 L 67 0 Z M 150 730 L 150 0 L 67 0 L 67 730 L 150 730 Z M 267 186 L 267 186 Z M 306 186 L 229 186 L 229 349 L 306 349 L 306 186 Z" unicode="ŀ" />
<glyph horiz-adv-x="498" d="M 489 81 L 489 0 L 97 0 L 97 274 L 35 249 L 4 311 L 97 349 L 97 730 L 187 730 L 187 385 L 358 455 L 387 392 L 187 311 L 187 81 L 489 81 Z" unicode="Ł" />
<glyph horiz-adv-x="217" d="M 225 345 L 150 309 L 150 0 L 67 0 L 67 270 L 18 247 L -8 311 L 67 346 L 67 730 L 150 730 L 150 385 L 198 408 L 225 345 Z" unicode="ł" />
<glyph horiz-adv-x="782" d="M 97 0 L 97 0 Z M 685 0 L 623 0 L 183 565 L 183 0 L 97 0 L 97 730 L 165 730 L 598 167 L 598 730 L 685 730 L 685 0 Z M 393 792 L 393 792 Z M 291 792 L 397 956 L 496 956 L 375 792 L 291 792 Z" unicode="Ń" />
<glyph horiz-adv-x="523" d="M 65 0 L 65 0 Z M 464 0 L 381 0 L 381 282 C 381 312 371 337 352 355 C 333 373 307 383 273 383 C 240 383 211 372 186 350 C 160 328 148 295 148 251 L 148 0 L 65 0 L 65 436 L 145 436 L 145 355 C 155 381 174 404 203 422 C 232 440 265 449 303 449 C 352 449 391 435 420 407 C 449 379 464 342 464 296 L 464 0 Z M 261 498 L 261 498 Z M 159 498 L 265 662 L 364 662 L 243 498 L 159 498 Z" unicode="ń" />
<glyph horiz-adv-x="782" d="M 97 0 L 97 0 Z M 685 0 L 623 0 L 183 565 L 183 0 L 97 0 L 97 730 L 165 730 L 598 167 L 598 730 L 685 730 L 685 0 Z M 365 -72 L 365 -72 Z M 456 -72 C 453 -94 448 -116 440 -140 C 432 -163 422 -185 412 -207 C 401 -229 389 -249 376 -268 C 362 -287 349 -303 335 -316 L 273 -287 C 281 -277 289 -265 299 -250 C 309 -234 318 -217 327 -198 C 335 -179 343 -159 351 -137 C 359 -115 365 -93 369 -72 L 456 -72 Z" unicode="Ņ" />
<glyph horiz-adv-x="523" d="M 65 0 L 65 0 Z M 464 0 L 381 0 L 381 282 C 381 312 371 337 352 355 C 333 373 307 383 273 383 C 240 383 211 372 186 350 C 160 328 148 295 148 251 L 148 0 L 65 0 L 65 436 L 145 436 L 145 355 C 155 381 174 404 203 422 C 232 440 265 449 303 449 C 352 449 391 435 420 407 C 449 379 464 342 464 296 L 464 0 Z M 226 -72 L 226 -72 Z M 317 -72 C 314 -94 309 -116 301 -140 C 293 -163 283 -185 273 -207 C 262 -229 250 -249 237 -268 C 223 -287 210 -303 196 -316 L 134 -287 C 142 -277 150 -265 160 -250 C 170 -234 179 -217 188 -198 C 196 -179 204 -159 212 -137 C 220 -115 226 -93 230 -72 L 317 -72 Z" unicode="ņ" />
<glyph horiz-adv-x="782" d="M 97 0 L 97 0 Z M 685 0 L 623 0 L 183 565 L 183 0 L 97 0 L 97 730 L 165 730 L 598 167 L 598 730 L 685 730 L 685 0 Z M 393 793 L 393 793 Z M 228 964 L 306 964 L 394 851 L 483 964 L 559 964 L 436 793 L 351 793 L 228 964 Z" unicode="Ň" />
<glyph horiz-adv-x="523" d="M 65 0 L 65 0 Z M 464 0 L 381 0 L 381 282 C 381 312 371 337 352 355 C 333 373 307 383 273 383 C 240 383 211 372 186 350 C 160 328 148 295 148 251 L 148 0 L 65 0 L 65 436 L 145 436 L 145 355 C 155 381 174 404 203 422 C 232 440 265 449 303 449 C 352 449 391 435 420 407 C 449 379 464 342 464 296 L 464 0 Z M 261 499 L 261 499 Z M 96 670 L 174 670 L 262 557 L 351 670 L 427 670 L 304 499 L 219 499 L 96 670 Z" unicode="ň" />
<glyph horiz-adv-x="790" d="M 598 730 L 685 730 L 685 0 L 685 0 C 684 -26 679 -52 671 -76 C 662 -100 649 -122 633 -140 C 616 -158 595 -172 570 -183 C 544 -194 515 -200 481 -200 C 464 -200 448 -199 432 -197 C 416 -195 404 -193 395 -191 L 396 -110 C 402 -112 414 -115 432 -117 C 449 -119 463 -120 475 -120 C 515 -120 546 -108 568 -86 C 590 -64 602 -36 602 -4 L 602 27 L 183 565 L 183 0 L 97 0 L 97 730 L 165 730 L 598 167 L 598 730 Z" unicode="Ŋ" />
<glyph horiz-adv-x="523" d="M 303 449 C 352 449 391 435 420 407 C 449 379 464 342 464 296 L 464 -69 C 464 -106 452 -138 429 -164 C 406 -190 375 -202 337 -202 C 329 -202 320 -201 308 -200 C 296 -198 288 -197 283 -196 L 285 -127 C 287 -127 292 -128 299 -129 C 306 -129 312 -130 318 -130 C 334 -130 349 -124 362 -112 C 374 -100 381 -82 381 -58 L 381 282 C 381 312 371 337 352 355 C 333 373 307 383 273 383 C 240 383 211 372 186 350 C 160 328 148 295 148 251 L 148 0 L 65 0 L 65 436 L 145 436 L 145 355 C 155 381 174 404 203 422 C 232 440 265 449 303 449 Z" unicode="ŋ" />
<glyph horiz-adv-x="844" d="M 48 0 L 48 0 Z M 425 -12 C 369 -12 317 -2 271 16 C 224 35 184 61 151 95 C 118 129 93 169 75 216 C 57 263 48 314 48 370 C 48 422 57 470 76 516 C 95 562 121 601 154 635 C 187 668 226 694 272 713 C 317 732 365 742 417 742 C 472 742 523 732 570 714 C 616 696 656 670 690 637 C 723 604 749 565 768 519 C 786 473 796 422 796 367 C 796 311 786 260 766 214 C 746 167 720 127 686 94 C 652 60 613 34 568 16 C 522 -2 475 -12 425 -12 Z M 424 72 C 463 72 500 79 534 93 C 568 107 597 127 622 153 C 647 179 667 210 681 247 C 695 284 703 325 703 371 C 703 412 695 450 681 486 C 667 521 647 551 622 576 C 597 601 567 621 533 635 C 498 649 460 657 420 657 C 380 657 342 650 308 637 C 274 623 244 604 220 579 C 195 554 176 524 162 488 C 148 452 141 411 141 366 C 141 320 148 278 163 242 C 178 205 198 174 224 149 C 250 124 280 105 314 92 C 348 78 385 72 424 72 Z M 420 819 L 420 819 Z M 549 819 L 291 819 L 291 881 L 549 881 L 549 819 Z" unicode="Ō" />
<glyph horiz-adv-x="527" d="M 29 0 L 29 0 Z M 260 -11 C 230 -11 202 -5 174 5 C 146 15 122 30 100 50 C 78 70 61 94 48 122 C 35 150 29 182 29 217 C 29 248 35 278 47 306 C 59 334 76 359 97 380 C 117 401 142 418 170 430 C 198 442 227 449 258 449 C 290 449 320 443 350 433 C 379 422 404 407 426 388 C 448 368 465 345 478 318 C 491 291 498 261 498 229 C 498 195 491 163 479 134 C 467 104 450 79 429 58 C 407 36 382 19 353 7 C 324 -4 293 -11 260 -11 Z M 263 61 C 306 61 342 76 370 106 C 398 136 412 176 412 224 C 412 266 398 302 370 332 C 342 362 304 377 256 377 C 216 377 183 362 156 333 C 128 303 115 266 115 220 C 115 170 129 131 158 103 C 186 75 221 61 263 61 Z M 256 525 L 256 525 Z M 385 525 L 127 525 L 127 587 L 385 587 L 385 525 Z" unicode="ō" />
<glyph horiz-adv-x="844" d="M 48 0 L 48 0 Z M 425 -12 C 369 -12 317 -2 271 16 C 224 35 184 61 151 95 C 118 129 93 169 75 216 C 57 263 48 314 48 370 C 48 422 57 470 76 516 C 95 562 121 601 154 635 C 187 668 226 694 272 713 C 317 732 365 742 417 742 C 472 742 523 732 570 714 C 616 696 656 670 690 637 C 723 604 749 565 768 519 C 786 473 796 422 796 367 C 796 311 786 260 766 214 C 746 167 720 127 686 94 C 652 60 613 34 568 16 C 522 -2 475 -12 425 -12 Z M 424 72 C 463 72 500 79 534 93 C 568 107 597 127 622 153 C 647 179 667 210 681 247 C 695 284 703 325 703 371 C 703 412 695 450 681 486 C 667 521 647 551 622 576 C 597 601 567 621 533 635 C 498 649 460 657 420 657 C 380 657 342 650 308 637 C 274 623 244 604 220 579 C 195 554 176 524 162 488 C 148 452 141 411 141 366 C 141 320 148 278 163 242 C 178 205 198 174 224 149 C 250 124 280 105 314 92 C 348 78 385 72 424 72 Z M 420 798 L 420 798 Z M 505 955 L 575 955 C 571 900 554 860 526 835 C 497 810 462 798 420 798 C 378 798 342 810 314 835 C 285 860 269 900 265 955 L 335 955 C 337 922 345 895 358 875 C 371 854 392 844 420 844 C 448 844 468 854 482 874 C 495 894 503 921 505 955 Z" unicode="Ŏ" />
<glyph horiz-adv-x="527" d="M 29 0 L 29 0 Z M 260 -11 C 230 -11 202 -5 174 5 C 146 15 122 30 100 50 C 78 70 61 94 48 122 C 35 150 29 182 29 217 C 29 248 35 278 47 306 C 59 334 76 359 97 380 C 117 401 142 418 170 430 C 198 442 227 449 258 449 C 290 449 320 443 350 433 C 379 422 404 407 426 388 C 448 368 465 345 478 318 C 491 291 498 261 498 229 C 498 195 491 163 479 134 C 467 104 450 79 429 58 C 407 36 382 19 353 7 C 324 -4 293 -11 260 -11 Z M 263 61 C 306 61 342 76 370 106 C 398 136 412 176 412 224 C 412 266 398 302 370 332 C 342 362 304 377 256 377 C 216 377 183 362 156 333 C 128 303 115 266 115 220 C 115 170 129 131 158 103 C 186 75 221 61 263 61 Z M 256 504 L 256 504 Z M 341 661 L 411 661 C 407 606 390 566 362 541 C 333 516 298 504 256 504 C 214 504 178 516 150 541 C 121 566 105 606 101 661 L 171 661 C 173 628 181 601 194 581 C 207 560 228 550 256 550 C 284 550 304 560 318 580 C 331 600 339 627 341 661 Z" unicode="ŏ" />
<glyph horiz-adv-x="844" d="M 48 0 L 48 0 Z M 425 -12 C 369 -12 317 -2 271 16 C 224 35 184 61 151 95 C 118 129 93 169 75 216 C 57 263 48 314 48 370 C 48 422 57 470 76 516 C 95 562 121 601 154 635 C 187 668 226 694 272 713 C 317 732 365 742 417 742 C 472 742 523 732 570 714 C 616 696 656 670 690 637 C 723 604 749 565 768 519 C 786 473 796 422 796 367 C 796 311 786 260 766 214 C 746 167 720 127 686 94 C 652 60 613 34 568 16 C 522 -2 475 -12 425 -12 Z M 424 72 C 463 72 500 79 534 93 C 568 107 597 127 622 153 C 647 179 667 210 681 247 C 695 284 703 325 703 371 C 703 412 695 450 681 486 C 667 521 647 551 622 576 C 597 601 567 621 533 635 C 498 649 460 657 420 657 C 380 657 342 650 308 637 C 274 623 244 604 220 579 C 195 554 176 524 162 488 C 148 452 141 411 141 366 C 141 320 148 278 163 242 C 178 205 198 174 224 149 C 250 124 280 105 314 92 C 348 78 385 72 424 72 Z M 420 792 L 420 792 Z M 238 792 L 332 942 L 421 942 L 312 792 L 238 792 Z M 419 792 L 514 942 L 603 942 L 493 792 L 419 792 Z" unicode="Ő" />
<glyph horiz-adv-x="527" d="M 29 0 L 29 0 Z M 260 -11 C 230 -11 202 -5 174 5 C 146 15 122 30 100 50 C 78 70 61 94 48 122 C 35 150 29 182 29 217 C 29 248 35 278 47 306 C 59 334 76 359 97 380 C 117 401 142 418 170 430 C 198 442 227 449 258 449 C 290 449 320 443 350 433 C 379 422 404 407 426 388 C 448 368 465 345 478 318 C 491 291 498 261 498 229 C 498 195 491 163 479 134 C 467 104 450 79 429 58 C 407 36 382 19 353 7 C 324 -4 293 -11 260 -11 Z M 263 61 C 306 61 342 76 370 106 C 398 136 412 176 412 224 C 412 266 398 302 370 332 C 342 362 304 377 256 377 C 216 377 183 362 156 333 C 128 303 115 266 115 220 C 115 170 129 131 158 103 C 186 75 221 61 263 61 Z M 256 498 L 256 498 Z M 74 498 L 168 648 L 257 648 L 148 498 L 74 498 Z M 255 498 L 350 648 L 439 648 L 329 498 L 255 498 Z" unicode="ő" />
<glyph horiz-adv-x="1184" d="M 413 -12 C 359 -12 310 -2 265 16 C 220 35 182 61 150 95 C 118 129 93 169 75 216 C 57 262 48 313 48 369 C 48 421 57 470 76 516 C 95 562 121 601 154 635 C 187 668 226 694 272 713 C 317 732 365 742 417 742 C 445 742 474 738 504 730 C 534 722 562 711 588 697 C 614 683 637 667 657 647 C 677 627 692 606 702 584 L 702 730 L 1110 730 L 1110 649 L 789 649 L 789 401 L 1096 401 L 1096 320 L 789 320 L 789 81 L 1130 81 L 1130 0 L 702 0 L 702 158 C 683 110 648 69 598 37 C 548 4 486 -12 413 -12 Z M 423 71 C 461 71 497 77 531 90 C 565 103 595 122 621 148 C 646 173 666 204 681 242 C 695 279 703 322 703 370 C 703 418 694 460 676 496 C 658 532 635 562 608 586 C 580 610 550 628 516 640 C 482 652 450 658 420 658 C 380 658 343 651 309 637 C 275 623 245 604 220 579 C 195 553 175 523 161 487 C 147 451 140 410 140 366 C 140 320 147 278 162 242 C 177 205 197 174 223 149 C 249 124 279 105 314 91 C 348 77 385 71 423 71 Z" unicode="Œ" />
<glyph horiz-adv-x="887" d="M 263 -11 C 229 -11 198 -5 170 6 C 141 17 116 33 96 53 C 75 73 59 98 47 126 C 35 154 29 184 29 217 C 29 249 35 279 47 307 C 59 335 75 360 96 381 C 116 402 141 419 170 431 C 198 443 229 449 263 449 C 315 449 358 437 392 415 C 425 392 447 365 459 335 C 464 348 472 361 483 375 C 494 389 508 401 524 412 C 540 422 558 431 579 438 C 600 445 623 449 649 449 C 685 449 716 442 744 430 C 772 418 795 400 814 378 C 833 356 847 329 857 297 C 867 265 872 231 872 194 L 497 194 C 499 155 515 123 545 97 C 574 71 611 58 657 58 C 699 58 729 64 749 76 C 768 88 785 102 799 116 L 851 67 C 832 46 809 28 782 12 C 754 -3 713 -11 657 -11 C 599 -11 554 1 521 25 C 487 49 466 75 458 103 C 453 90 445 77 435 64 C 424 50 410 38 394 27 C 378 16 358 7 336 0 C 314 -7 289 -11 263 -11 Z M 499 259 L 793 259 C 791 291 777 320 751 344 C 725 368 691 381 647 381 C 604 381 570 368 544 344 C 518 320 503 291 499 259 Z M 263 61 C 307 61 343 75 371 104 C 399 133 413 173 413 224 C 413 268 398 305 369 334 C 340 362 304 377 260 377 C 218 377 183 362 156 332 C 128 302 115 264 115 220 C 115 170 129 131 157 103 C 185 75 221 61 263 61 Z" unicode="œ" />
<glyph horiz-adv-x="613" d="M 97 0 L 97 0 Z M 97 0 L 97 730 L 306 730 C 367 730 417 712 456 677 C 495 641 515 593 515 531 C 515 498 510 469 501 444 C 491 419 479 398 464 382 C 448 365 431 352 411 343 C 391 333 370 328 349 326 L 346 323 L 578 0 L 473 0 L 257 303 L 186 303 L 186 0 L 97 0 Z M 186 382 L 283 382 C 325 382 359 394 385 418 C 411 442 425 476 425 520 C 425 556 412 587 388 611 C 363 635 330 648 288 648 L 186 648 L 186 382 Z M 294 792 L 294 792 Z M 192 792 L 298 956 L 397 956 L 276 792 L 192 792 Z" unicode="Ŕ" />
<glyph horiz-adv-x="382" d="M 65 0 L 65 0 Z M 378 418 L 345 348 C 330 359 315 367 300 371 C 285 375 271 377 258 377 C 230 377 205 365 182 343 C 159 320 148 289 148 251 L 148 0 L 65 0 L 65 436 L 145 436 L 145 353 C 147 363 152 373 160 384 C 168 395 177 405 189 415 C 201 424 214 432 230 438 C 246 444 263 448 283 448 C 302 448 320 445 337 440 C 353 434 367 427 378 418 Z M 221 498 L 221 498 Z M 119 498 L 225 662 L 324 662 L 203 498 L 119 498 Z" unicode="ŕ" />
<glyph horiz-adv-x="613" d="M 97 0 L 97 0 Z M 97 0 L 97 730 L 306 730 C 367 730 417 712 456 677 C 495 641 515 593 515 531 C 515 498 510 469 501 444 C 491 419 479 398 464 382 C 448 365 431 352 411 343 C 391 333 370 328 349 326 L 346 323 L 578 0 L 473 0 L 257 303 L 186 303 L 186 0 L 97 0 Z M 186 382 L 283 382 C 325 382 359 394 385 418 C 411 442 425 476 425 520 C 425 556 412 587 388 611 C 363 635 330 648 288 648 L 186 648 L 186 382 Z M 295 -72 L 295 -72 Z M 386 -72 C 383 -94 378 -116 370 -140 C 362 -163 352 -185 342 -207 C 331 -229 319 -249 306 -268 C 292 -287 279 -303 265 -316 L 203 -287 C 211 -277 219 -265 229 -250 C 239 -234 248 -217 257 -198 C 265 -179 273 -159 281 -137 C 289 -115 295 -93 299 -72 L 386 -72 Z" unicode="Ŗ" />
<glyph horiz-adv-x="382" d="M 65 0 L 65 0 Z M 378 418 L 345 348 C 330 359 315 367 300 371 C 285 375 271 377 258 377 C 230 377 205 365 182 343 C 159 320 148 289 148 251 L 148 0 L 65 0 L 65 436 L 145 436 L 145 353 C 147 363 152 373 160 384 C 168 395 177 405 189 415 C 201 424 214 432 230 438 C 246 444 263 448 283 448 C 302 448 320 445 337 440 C 353 434 367 427 378 418 Z M 185 -72 L 185 -72 Z M 276 -72 C 273 -94 268 -116 260 -140 C 252 -163 242 -185 232 -207 C 221 -229 209 -249 196 -268 C 182 -287 169 -303 155 -316 L 93 -287 C 101 -277 109 -265 119 -250 C 129 -234 138 -217 147 -198 C 155 -179 163 -159 171 -137 C 179 -115 185 -93 189 -72 L 276 -72 Z" unicode="ŗ" />
<glyph horiz-adv-x="613" d="M 97 0 L 97 0 Z M 97 0 L 97 730 L 306 730 C 367 730 417 712 456 677 C 495 641 515 593 515 531 C 515 498 510 469 501 444 C 491 419 479 398 464 382 C 448 365 431 352 411 343 C 391 333 370 328 349 326 L 346 323 L 578 0 L 473 0 L 257 303 L 186 303 L 186 0 L 97 0 Z M 186 382 L 283 382 C 325 382 359 394 385 418 C 411 442 425 476 425 520 C 425 556 412 587 388 611 C 363 635 330 648 288 648 L 186 648 L 186 382 Z M 294 793 L 294 793 Z M 129 964 L 207 964 L 295 851 L 384 964 L 460 964 L 337 793 L 252 793 L 129 964 Z" unicode="Ř" />
<glyph horiz-adv-x="382" d="M 56 0 L 56 0 Z M 378 418 L 345 348 C 330 359 315 367 300 371 C 285 375 271 377 258 377 C 230 377 205 365 182 343 C 159 320 148 289 148 251 L 148 0 L 65 0 L 65 436 L 145 436 L 145 353 C 147 363 152 373 160 384 C 168 395 177 405 189 415 C 201 424 214 432 230 438 C 246 444 263 448 283 448 C 302 448 320 445 337 440 C 353 434 367 427 378 418 Z M 221 499 L 221 499 Z M 56 670 L 134 670 L 222 557 L 311 670 L 387 670 L 264 499 L 179 499 L 56 670 Z" unicode="ř" />
<glyph horiz-adv-x="498" d="M 25 0 L 25 0 Z M 261 -12 C 211 -12 165 -4 125 12 C 85 28 51 50 25 79 L 77 148 C 97 124 123 105 156 91 C 189 77 223 70 257 70 C 294 70 325 80 349 101 C 373 122 386 150 386 184 C 386 213 375 239 353 261 C 331 283 295 306 243 329 C 183 354 136 384 101 418 C 66 452 49 499 49 561 C 49 613 67 656 104 690 C 140 724 189 742 249 742 C 289 742 325 735 357 723 C 389 711 419 694 446 673 L 402 601 C 381 619 358 633 333 644 C 308 654 282 660 256 660 C 218 660 189 649 167 629 C 145 609 135 585 135 558 C 135 526 145 500 167 480 C 189 460 231 436 293 410 C 358 381 404 349 432 315 C 459 281 473 238 473 186 C 473 155 467 127 455 103 C 443 78 428 57 409 40 C 389 23 367 10 341 1 C 315 -7 289 -12 261 -12 Z M 249 792 L 249 792 Z M 147 792 L 253 956 L 352 956 L 231 792 L 147 792 Z" unicode="Ś" />
<glyph horiz-adv-x="382" d="M 28 0 L 28 0 Z M 202 -12 C 162 -12 127 -7 99 3 C 71 13 47 27 28 46 L 71 103 C 85 89 104 78 126 70 C 148 62 173 58 201 58 C 223 58 240 63 254 74 C 268 84 275 99 275 118 C 275 134 267 148 251 159 C 235 169 209 180 173 191 C 129 203 95 220 73 240 C 50 260 39 288 39 322 C 39 359 53 389 82 413 C 110 436 147 448 191 448 C 223 448 252 443 278 433 C 303 423 323 412 338 401 L 298 346 C 286 354 271 361 252 369 C 233 377 212 381 190 381 C 171 381 154 377 138 369 C 122 361 115 350 115 334 C 115 321 120 310 130 302 C 140 293 165 282 205 270 C 253 255 289 237 314 216 C 338 194 351 164 351 126 C 351 84 337 50 309 25 C 281 0 246 -12 202 -12 Z M 194 498 L 194 498 Z M 92 498 L 198 662 L 297 662 L 176 498 L 92 498 Z" unicode="ś" />
<glyph horiz-adv-x="498" d="M 25 0 L 25 0 Z M 261 -12 C 211 -12 165 -4 125 12 C 85 28 51 50 25 79 L 77 148 C 97 124 123 105 156 91 C 189 77 223 70 257 70 C 294 70 325 80 349 101 C 373 122 386 150 386 184 C 386 213 375 239 353 261 C 331 283 295 306 243 329 C 183 354 136 384 101 418 C 66 452 49 499 49 561 C 49 613 67 656 104 690 C 140 724 189 742 249 742 C 289 742 325 735 357 723 C 389 711 419 694 446 673 L 402 601 C 381 619 358 633 333 644 C 308 654 282 660 256 660 C 218 660 189 649 167 629 C 145 609 135 585 135 558 C 135 526 145 500 167 480 C 189 460 231 436 293 410 C 358 381 404 349 432 315 C 459 281 473 238 473 186 C 473 155 467 127 455 103 C 443 78 428 57 409 40 C 389 23 367 10 341 1 C 315 -7 289 -12 261 -12 Z M 249 793 L 249 793 Z M 415 793 L 337 793 L 249 905 L 160 793 L 84 793 L 207 964 L 292 964 L 415 793 Z" unicode="Ŝ" />
<glyph horiz-adv-x="382" d="M 28 0 L 28 0 Z M 202 -12 C 162 -12 127 -7 99 3 C 71 13 47 27 28 46 L 71 103 C 85 89 104 78 126 70 C 148 62 173 58 201 58 C 223 58 240 63 254 74 C 268 84 275 99 275 118 C 275 134 267 148 251 159 C 235 169 209 180 173 191 C 129 203 95 220 73 240 C 50 260 39 288 39 322 C 39 359 53 389 82 413 C 110 436 147 448 191 448 C 223 448 252 443 278 433 C 303 423 323 412 338 401 L 298 346 C 286 354 271 361 252 369 C 233 377 212 381 190 381 C 171 381 154 377 138 369 C 122 361 115 350 115 334 C 115 321 120 310 130 302 C 140 293 165 282 205 270 C 253 255 289 237 314 216 C 338 194 351 164 351 126 C 351 84 337 50 309 25 C 281 0 246 -12 202 -12 Z M 194 499 L 194 499 Z M 360 499 L 282 499 L 194 611 L 105 499 L 29 499 L 152 670 L 237 670 L 360 499 Z" unicode="ŝ" />
<glyph horiz-adv-x="498" d="M 25 0 L 25 0 Z M 261 -12 C 211 -12 165 -4 125 12 C 85 28 51 50 25 79 L 77 148 C 97 124 123 105 156 91 C 189 77 223 70 257 70 C 294 70 325 80 349 101 C 373 122 386 150 386 184 C 386 213 375 239 353 261 C 331 283 295 306 243 329 C 183 354 136 384 101 418 C 66 452 49 499 49 561 C 49 613 67 656 104 690 C 140 724 189 742 249 742 C 289 742 325 735 357 723 C 389 711 419 694 446 673 L 402 601 C 381 619 358 633 333 644 C 308 654 282 660 256 660 C 218 660 189 649 167 629 C 145 609 135 585 135 558 C 135 526 145 500 167 480 C 189 460 231 436 293 410 C 358 381 404 349 432 315 C 459 281 473 238 473 186 C 473 155 467 127 455 103 C 443 78 428 57 409 40 C 389 23 367 10 341 1 C 315 -7 289 -12 261 -12 Z M 234 -2 L 234 -2 Z M 243 -189 C 219 -189 194 -186 170 -180 C 145 -174 126 -166 112 -157 L 122 -118 C 132 -124 145 -129 162 -135 C 178 -141 196 -144 216 -144 C 232 -144 245 -140 257 -133 C 269 -126 275 -117 275 -105 C 275 -92 269 -83 259 -77 C 249 -71 237 -69 225 -69 C 216 -69 209 -69 203 -70 C 197 -71 190 -73 183 -76 L 169 -61 L 229 9 L 282 9 L 232 -53 C 266 -45 296 -47 320 -60 C 344 -72 356 -91 356 -115 C 356 -139 344 -158 322 -170 C 299 -182 273 -189 243 -189 Z" unicode="Ş" />
<glyph horiz-adv-x="382" d="M 28 0 L 28 0 Z M 202 -12 C 162 -12 127 -7 99 3 C 71 13 47 27 28 46 L 71 103 C 85 89 104 78 126 70 C 148 62 173 58 201 58 C 223 58 240 63 254 74 C 268 84 275 99 275 118 C 275 134 267 148 251 159 C 235 169 209 180 173 191 C 129 203 95 220 73 240 C 50 260 39 288 39 322 C 39 359 53 389 82 413 C 110 436 147 448 191 448 C 223 448 252 443 278 433 C 303 423 323 412 338 401 L 298 346 C 286 354 271 361 252 369 C 233 377 212 381 190 381 C 171 381 154 377 138 369 C 122 361 115 350 115 334 C 115 321 120 310 130 302 C 140 293 165 282 205 270 C 253 255 289 237 314 216 C 338 194 351 164 351 126 C 351 84 337 50 309 25 C 281 0 246 -12 202 -12 Z M 181 -2 L 181 -2 Z M 190 -189 C 166 -189 141 -186 117 -180 C 92 -174 73 -166 59 -157 L 69 -118 C 79 -124 92 -129 109 -135 C 125 -141 143 -144 163 -144 C 179 -144 192 -140 204 -133 C 216 -126 222 -117 222 -105 C 222 -92 216 -83 206 -77 C 196 -71 184 -69 172 -69 C 163 -69 156 -69 150 -70 C 144 -71 137 -73 130 -76 L 116 -61 L 176 9 L 229 9 L 179 -53 C 213 -45 243 -47 267 -60 C 291 -72 303 -91 303 -115 C 303 -139 291 -158 269 -170 C 246 -182 220 -189 190 -189 Z" unicode="ş" />
<glyph horiz-adv-x="498" d="M 25 0 L 25 0 Z M 261 -12 C 211 -12 165 -4 125 12 C 85 28 51 50 25 79 L 77 148 C 97 124 123 105 156 91 C 189 77 223 70 257 70 C 294 70 325 80 349 101 C 373 122 386 150 386 184 C 386 213 375 239 353 261 C 331 283 295 306 243 329 C 183 354 136 384 101 418 C 66 452 49 499 49 561 C 49 613 67 656 104 690 C 140 724 189 742 249 742 C 289 742 325 735 357 723 C 389 711 419 694 446 673 L 402 601 C 381 619 358 633 333 644 C 308 654 282 660 256 660 C 218 660 189 649 167 629 C 145 609 135 585 135 558 C 135 526 145 500 167 480 C 189 460 231 436 293 410 C 358 381 404 349 432 315 C 459 281 473 238 473 186 C 473 155 467 127 455 103 C 443 78 428 57 409 40 C 389 23 367 10 341 1 C 315 -7 289 -12 261 -12 Z M 249 793 L 249 793 Z M 84 964 L 162 964 L 250 851 L 339 964 L 415 964 L 292 793 L 207 793 L 84 964 Z" unicode="Š" />
<glyph horiz-adv-x="382" d="M 28 0 L 28 0 Z M 202 -12 C 162 -12 127 -7 99 3 C 71 13 47 27 28 46 L 71 103 C 85 89 104 78 126 70 C 148 62 173 58 201 58 C 223 58 240 63 254 74 C 268 84 275 99 275 118 C 275 134 267 148 251 159 C 235 169 209 180 173 191 C 129 203 95 220 73 240 C 50 260 39 288 39 322 C 39 359 53 389 82 413 C 110 436 147 448 191 448 C 223 448 252 443 278 433 C 303 423 323 412 338 401 L 298 346 C 286 354 271 361 252 369 C 233 377 212 381 190 381 C 171 381 154 377 138 369 C 122 361 115 350 115 334 C 115 321 120 310 130 302 C 140 293 165 282 205 270 C 253 255 289 237 314 216 C 338 194 351 164 351 126 C 351 84 337 50 309 25 C 281 0 246 -12 202 -12 Z M 194 499 L 194 499 Z M 29 670 L 107 670 L 195 557 L 284 670 L 360 670 L 237 499 L 152 499 L 29 670 Z" unicode="š" />
<glyph horiz-adv-x="529" d="M 10 0 L 10 0 Z M 519 649 L 306 649 L 306 0 L 216 0 L 216 649 L 10 649 L 10 730 L 519 730 L 519 649 Z M 262 793 L 262 793 Z M 97 964 L 175 964 L 263 851 L 352 964 L 428 964 L 305 793 L 220 793 L 97 964 Z" unicode="Ť" />
<glyph horiz-adv-x="253" d="M 9 0 L 9 0 Z M 242 67 L 242 -3 C 239 -3 233 -4 225 -5 C 216 -5 207 -6 197 -6 C 182 -6 167 -4 152 -1 C 137 2 123 8 111 16 C 99 24 89 36 81 50 C 73 64 70 81 70 103 L 70 362 L 9 362 L 9 436 L 70 436 L 70 534 L 153 545 L 153 436 L 237 436 L 237 362 L 153 362 L 153 120 C 153 98 158 83 170 76 C 181 68 196 65 215 65 C 218 65 223 65 230 65 C 237 65 241 66 242 67 Z M 321 621 L 317 486 L 247 486 L 243 621 L 243 730 L 321 730 L 321 621 Z" unicode="ť" />
<glyph horiz-adv-x="529" d="M 436 467 L 306 467 L 306 0 L 216 0 L 216 467 L 81 467 L 81 537 L 216 537 L 216 649 L 10 649 L 10 730 L 519 730 L 519 649 L 306 649 L 306 537 L 436 537 L 436 467 Z" unicode="Ŧ" />
<glyph horiz-adv-x="253" d="M 242 -3 C 239 -3 233 -4 225 -5 C 216 -5 207 -6 197 -6 C 182 -6 167 -4 152 -1 C 137 2 123 8 111 16 C 99 24 89 36 81 50 C 73 64 70 81 70 103 L 70 228 L 18 228 L 18 299 L 70 299 L 70 362 L 9 362 L 9 436 L 70 436 L 70 534 L 153 545 L 153 436 L 237 436 L 237 362 L 153 362 L 153 299 L 227 299 L 227 228 L 153 228 L 153 120 C 153 98 158 83 170 76 C 181 68 196 65 215 65 C 218 65 223 65 230 65 C 237 65 241 66 242 67 L 242 -3 Z" unicode="ŧ" />
<glyph horiz-adv-x="739" d="M 89 0 L 89 0 Z M 650 730 L 650 266 C 650 222 642 183 628 149 C 613 114 593 85 568 61 C 543 37 513 19 479 7 C 445 -5 408 -12 369 -12 C 330 -12 293 -6 259 6 C 225 18 195 35 170 59 C 145 83 125 112 111 147 C 96 181 89 221 89 266 L 89 730 L 176 730 L 176 257 C 176 229 181 204 191 182 C 201 159 214 139 231 123 C 248 107 268 94 292 85 C 315 75 340 71 367 71 C 393 71 419 75 443 84 C 467 92 487 105 505 121 C 523 137 537 156 547 179 C 557 202 563 228 563 257 L 563 730 L 650 730 Z M 369 800 L 369 800 Z M 466 934 L 528 934 C 528 888 521 854 508 832 C 495 810 478 800 457 800 C 438 800 421 803 407 811 C 393 819 381 826 372 833 C 362 839 352 846 342 853 C 332 859 323 863 315 863 C 305 863 297 857 290 846 C 282 835 279 821 279 804 L 216 804 C 216 849 224 883 242 905 C 260 927 279 938 300 938 C 315 938 329 934 341 927 C 353 919 365 911 378 903 C 386 896 395 889 405 882 C 414 875 423 872 433 872 C 441 872 449 877 456 889 C 462 900 466 915 466 934 Z" unicode="Ũ" />
<glyph horiz-adv-x="524" d="M 60 0 L 60 0 Z M 60 436 L 142 436 L 142 156 C 142 124 151 100 171 83 C 191 65 217 57 250 57 C 284 57 313 67 338 88 C 363 108 376 140 376 182 L 376 436 L 458 436 L 458 0 L 378 0 L 378 86 C 365 57 344 34 315 16 C 286 -1 253 -10 217 -10 C 171 -10 134 3 104 31 C 74 58 60 96 60 145 L 60 436 Z M 259 506 L 259 506 Z M 356 640 L 418 640 C 418 594 411 560 398 538 C 385 516 368 506 347 506 C 328 506 311 509 297 517 C 283 525 271 532 262 539 C 252 545 242 552 232 559 C 222 565 213 569 205 569 C 195 569 187 563 180 552 C 172 541 169 527 169 510 L 106 510 C 106 555 114 589 132 611 C 150 633 169 644 190 644 C 205 644 219 640 231 633 C 243 625 255 617 268 609 C 276 602 285 595 295 588 C 304 581 313 578 323 578 C 331 578 339 583 346 595 C 352 606 356 621 356 640 Z" unicode="ũ" />
<glyph horiz-adv-x="739" d="M 89 0 L 89 0 Z M 650 730 L 650 266 C 650 222 642 183 628 149 C 613 114 593 85 568 61 C 543 37 513 19 479 7 C 445 -5 408 -12 369 -12 C 330 -12 293 -6 259 6 C 225 18 195 35 170 59 C 145 83 125 112 111 147 C 96 181 89 221 89 266 L 89 730 L 176 730 L 176 257 C 176 229 181 204 191 182 C 201 159 214 139 231 123 C 248 107 268 94 292 85 C 315 75 340 71 367 71 C 393 71 419 75 443 84 C 467 92 487 105 505 121 C 523 137 537 156 547 179 C 557 202 563 228 563 257 L 563 730 L 650 730 Z M 369 819 L 369 819 Z M 498 819 L 240 819 L 240 881 L 498 881 L 498 819 Z" unicode="Ū" />
<glyph horiz-adv-x="524" d="M 60 0 L 60 0 Z M 60 436 L 142 436 L 142 156 C 142 124 151 100 171 83 C 191 65 217 57 250 57 C 284 57 313 67 338 88 C 363 108 376 140 376 182 L 376 436 L 458 436 L 458 0 L 378 0 L 378 86 C 365 57 344 34 315 16 C 286 -1 253 -10 217 -10 C 171 -10 134 3 104 31 C 74 58 60 96 60 145 L 60 436 Z M 259 525 L 259 525 Z M 388 525 L 130 525 L 130 587 L 388 587 L 388 525 Z" unicode="ū" />
<glyph horiz-adv-x="739" d="M 89 0 L 89 0 Z M 650 730 L 650 266 C 650 222 642 183 628 149 C 613 114 593 85 568 61 C 543 37 513 19 479 7 C 445 -5 408 -12 369 -12 C 330 -12 293 -6 259 6 C 225 18 195 35 170 59 C 145 83 125 112 111 147 C 96 181 89 221 89 266 L 89 730 L 176 730 L 176 257 C 176 229 181 204 191 182 C 201 159 214 139 231 123 C 248 107 268 94 292 85 C 315 75 340 71 367 71 C 393 71 419 75 443 84 C 467 92 487 105 505 121 C 523 137 537 156 547 179 C 557 202 563 228 563 257 L 563 730 L 650 730 Z M 369 798 L 369 798 Z M 454 955 L 524 955 C 520 900 503 860 475 835 C 446 810 411 798 369 798 C 327 798 291 810 263 835 C 234 860 218 900 214 955 L 284 955 C 286 922 294 895 307 875 C 320 854 341 844 369 844 C 397 844 417 854 431 874 C 444 894 452 921 454 955 Z" unicode="Ŭ" />
<glyph horiz-adv-x="524" d="M 60 0 L 60 0 Z M 60 436 L 142 436 L 142 156 C 142 124 151 100 171 83 C 191 65 217 57 250 57 C 284 57 313 67 338 88 C 363 108 376 140 376 182 L 376 436 L 458 436 L 458 0 L 378 0 L 378 86 C 365 57 344 34 315 16 C 286 -1 253 -10 217 -10 C 171 -10 134 3 104 31 C 74 58 60 96 60 145 L 60 436 Z M 259 504 L 259 504 Z M 344 661 L 414 661 C 410 606 393 566 365 541 C 336 516 301 504 259 504 C 217 504 181 516 153 541 C 124 566 108 606 104 661 L 174 661 C 176 628 184 601 197 581 C 210 560 231 550 259 550 C 287 550 307 560 321 580 C 334 600 342 627 344 661 Z" unicode="ŭ" />
<glyph horiz-adv-x="739" d="M 89 0 L 89 0 Z M 650 730 L 650 266 C 650 222 642 183 628 149 C 613 114 593 85 568 61 C 543 37 513 19 479 7 C 445 -5 408 -12 369 -12 C 330 -12 293 -6 259 6 C 225 18 195 35 170 59 C 145 83 125 112 111 147 C 96 181 89 221 89 266 L 89 730 L 176 730 L 176 257 C 176 229 181 204 191 182 C 201 159 214 139 231 123 C 248 107 268 94 292 85 C 315 75 340 71 367 71 C 393 71 419 75 443 84 C 467 92 487 105 505 121 C 523 137 537 156 547 179 C 557 202 563 228 563 257 L 563 730 L 650 730 Z M 369 790 L 369 790 Z M 369 790 C 337 790 311 800 289 822 C 267 844 257 870 257 902 C 257 933 267 959 289 981 C 311 1003 337 1014 369 1014 C 400 1014 427 1003 449 981 C 471 959 482 933 482 902 C 482 870 471 844 449 822 C 427 800 400 790 369 790 Z M 369 839 C 386 839 401 845 413 857 C 425 869 431 884 431 902 C 431 920 425 935 413 947 C 401 959 386 966 369 966 C 351 966 337 959 325 947 C 313 935 307 920 307 902 C 307 884 313 869 325 857 C 337 845 351 839 369 839 Z" unicode="Ů" />
<glyph horiz-adv-x="524" d="M 60 0 L 60 0 Z M 60 436 L 142 436 L 142 156 C 142 124 151 100 171 83 C 191 65 217 57 250 57 C 284 57 313 67 338 88 C 363 108 376 140 376 182 L 376 436 L 458 436 L 458 0 L 378 0 L 378 86 C 365 57 344 34 315 16 C 286 -1 253 -10 217 -10 C 171 -10 134 3 104 31 C 74 58 60 96 60 145 L 60 436 Z M 259 496 L 259 496 Z M 259 496 C 227 496 201 506 179 528 C 157 550 147 576 147 608 C 147 639 157 665 179 687 C 201 709 227 720 259 720 C 290 720 317 709 339 687 C 361 665 372 639 372 608 C 372 576 361 550 339 528 C 317 506 290 496 259 496 Z M 259 545 C 276 545 291 551 303 563 C 315 575 321 590 321 608 C 321 626 315 641 303 653 C 291 665 276 672 259 672 C 241 672 227 665 215 653 C 203 641 197 626 197 608 C 197 590 203 575 215 563 C 227 551 241 545 259 545 Z" unicode="ů" />
<glyph horiz-adv-x="739" d="M 89 0 L 89 0 Z M 650 730 L 650 266 C 650 222 642 183 628 149 C 613 114 593 85 568 61 C 543 37 513 19 479 7 C 445 -5 408 -12 369 -12 C 330 -12 293 -6 259 6 C 225 18 195 35 170 59 C 145 83 125 112 111 147 C 96 181 89 221 89 266 L 89 730 L 176 730 L 176 257 C 176 229 181 204 191 182 C 201 159 214 139 231 123 C 248 107 268 94 292 85 C 315 75 340 71 367 71 C 393 71 419 75 443 84 C 467 92 487 105 505 121 C 523 137 537 156 547 179 C 557 202 563 228 563 257 L 563 730 L 650 730 Z M 369 792 L 369 792 Z M 187 792 L 281 942 L 370 942 L 261 792 L 187 792 Z M 368 792 L 463 942 L 552 942 L 442 792 L 368 792 Z" unicode="Ű" />
<glyph horiz-adv-x="524" d="M 60 0 L 60 0 Z M 60 436 L 142 436 L 142 156 C 142 124 151 100 171 83 C 191 65 217 57 250 57 C 284 57 313 67 338 88 C 363 108 376 140 376 182 L 376 436 L 458 436 L 458 0 L 378 0 L 378 86 C 365 57 344 34 315 16 C 286 -1 253 -10 217 -10 C 171 -10 134 3 104 31 C 74 58 60 96 60 145 L 60 436 Z M 259 498 L 259 498 Z M 77 498 L 171 648 L 260 648 L 151 498 L 77 498 Z M 258 498 L 353 648 L 442 648 L 332 498 L 258 498 Z" unicode="ű" />
<glyph horiz-adv-x="739" d="M 89 0 L 89 0 Z M 650 730 L 650 266 C 650 222 642 183 628 149 C 613 114 593 85 568 61 C 543 37 513 19 479 7 C 445 -5 408 -12 369 -12 C 330 -12 293 -6 259 6 C 225 18 195 35 170 59 C 145 83 125 112 111 147 C 96 181 89 221 89 266 L 89 730 L 176 730 L 176 257 C 176 229 181 204 191 182 C 201 159 214 139 231 123 C 248 107 268 94 292 85 C 315 75 340 71 367 71 C 393 71 419 75 443 84 C 467 92 487 105 505 121 C 523 137 537 156 547 179 C 557 202 563 228 563 257 L 563 730 L 650 730 Z M 425 -9 L 425 -9 Z M 531 -101 L 555 -136 C 535 -156 513 -171 488 -182 C 462 -192 434 -198 404 -198 C 370 -198 343 -190 323 -176 C 303 -161 294 -143 294 -121 C 294 -96 306 -73 332 -51 C 357 -29 392 -11 438 5 L 469 4 C 437 -10 411 -25 393 -40 C 374 -55 365 -71 365 -87 C 365 -102 371 -114 384 -123 C 396 -131 412 -136 431 -136 C 451 -136 470 -132 488 -126 C 506 -119 520 -111 531 -101 Z" unicode="Ų" />
<glyph horiz-adv-x="524" d="M 60 0 L 60 0 Z M 60 436 L 142 436 L 142 156 C 142 124 151 100 171 83 C 191 65 217 57 250 57 C 284 57 313 67 338 88 C 363 108 376 140 376 182 L 376 436 L 458 436 L 458 0 L 378 0 L 378 86 C 365 57 344 34 315 16 C 286 -1 253 -10 217 -10 C 171 -10 134 3 104 31 C 74 58 60 96 60 145 L 60 436 Z M 375 -9 L 375 -9 Z M 481 -101 L 505 -136 C 485 -156 463 -171 438 -182 C 412 -192 384 -198 354 -198 C 320 -198 293 -190 273 -176 C 253 -161 244 -143 244 -121 C 244 -96 256 -73 282 -51 C 307 -29 342 -11 388 5 L 419 4 C 387 -10 361 -25 343 -40 C 324 -55 315 -71 315 -87 C 315 -102 321 -114 334 -123 C 346 -131 362 -136 381 -136 C 401 -136 420 -132 438 -126 C 456 -119 470 -111 481 -101 Z" unicode="ų" />
<glyph horiz-adv-x="922" d="M 7 0 L 7 0 Z M 916 730 L 689 -8 L 641 -8 L 462 565 L 277 -8 L 229 -8 L 7 730 L 96 730 L 258 174 L 441 730 L 490 730 L 667 174 L 832 730 L 916 730 Z M 466 793 L 466 793 Z M 632 793 L 554 793 L 466 905 L 377 793 L 301 793 L 424 964 L 509 964 L 632 793 Z" unicode="Ŵ" />
<glyph horiz-adv-x="666" d="M 7 0 L 7 0 Z M 454 -3 L 335 291 L 211 -3 L 165 -3 L 7 436 L 94 436 L 198 122 L 315 404 L 361 404 L 474 122 L 579 436 L 659 436 L 501 -3 L 454 -3 Z M 334 499 L 334 499 Z M 500 499 L 422 499 L 334 611 L 245 499 L 169 499 L 292 670 L 377 670 L 500 499 Z" unicode="ŵ" />
<glyph horiz-adv-x="605" d="M 2 0 L 2 0 Z M 641 730 L 365 328 L 365 0 L 275 0 L 275 331 L 2 730 L 104 730 L 324 410 L 544 730 L 641 730 Z M 322 793 L 322 793 Z M 488 793 L 410 793 L 322 905 L 233 793 L 157 793 L 280 964 L 365 964 L 488 793 Z" unicode="Ŷ" />
<glyph horiz-adv-x="470" d="M 0 0 L 0 0 Z M 469 436 L 213 -91 C 190 -137 165 -166 139 -180 C 113 -193 89 -200 67 -200 C 53 -200 41 -198 31 -196 C 21 -193 13 -191 8 -189 L 30 -112 C 32 -113 37 -115 45 -117 C 53 -119 60 -121 68 -121 C 83 -121 97 -116 110 -106 C 123 -96 137 -78 151 -50 L 192 34 L -2 436 L 89 436 L 234 113 L 383 436 L 469 436 Z M 236 499 L 236 499 Z M 402 499 L 324 499 L 236 611 L 147 499 L 71 499 L 194 670 L 279 670 L 402 499 Z" unicode="ŷ" />
<glyph horiz-adv-x="644" d="M 2 0 L 2 0 Z M 641 730 L 365 328 L 365 0 L 275 0 L 275 331 L 2 730 L 104 730 L 324 410 L 544 730 L 641 730 Z M 322 793 L 322 793 Z M 447 793 L 376 793 L 376 950 L 447 950 L 447 793 Z M 264 793 L 193 793 L 193 950 L 264 950 L 264 793 Z" unicode="Ÿ" />
<glyph horiz-adv-x="560" d="M 16 0 L 16 0 Z M 549 730 L 549 692 L 142 81 L 563 81 L 563 0 L 16 0 L 16 36 L 421 649 L 50 649 L 50 730 L 549 730 Z M 293 792 L 293 792 Z M 191 792 L 297 956 L 396 956 L 275 792 L 191 792 Z" unicode="Ź" />
<glyph horiz-adv-x="384" d="M 11 0 L 11 0 Z M 366 436 L 366 397 L 137 74 L 372 74 L 372 0 L 11 0 L 11 24 L 248 362 L 25 362 L 25 436 L 366 436 Z M 197 498 L 197 498 Z M 95 498 L 201 662 L 300 662 L 179 498 L 95 498 Z" unicode="ź" />
<glyph horiz-adv-x="560" d="M 16 0 L 16 0 Z M 549 730 L 549 692 L 142 81 L 563 81 L 563 0 L 16 0 L 16 36 L 421 649 L 50 649 L 50 730 L 549 730 Z M 293 793 L 293 793 Z M 332 793 L 255 793 L 255 956 L 332 956 L 332 793 Z" unicode="Ż" />
<glyph horiz-adv-x="384" d="M 11 0 L 11 0 Z M 366 436 L 366 397 L 137 74 L 372 74 L 372 0 L 11 0 L 11 24 L 248 362 L 25 362 L 25 436 L 366 436 Z M 197 499 L 197 499 Z M 236 499 L 159 499 L 159 662 L 236 662 L 236 499 Z" unicode="ż" />
<glyph horiz-adv-x="590" d="M 16 0 L 16 0 Z M 549 730 L 549 692 L 142 81 L 563 81 L 563 0 L 16 0 L 16 36 L 421 649 L 50 649 L 50 730 L 549 730 Z M 293 793 L 293 793 Z M 128 964 L 206 964 L 294 851 L 383 964 L 459 964 L 336 793 L 251 793 L 128 964 Z" unicode="Ž" />
<glyph horiz-adv-x="384" d="M 11 0 L 11 0 Z M 366 436 L 366 397 L 137 74 L 372 74 L 372 0 L 11 0 L 11 24 L 248 362 L 25 362 L 25 436 L 366 436 Z M 197 499 L 197 499 Z M 32 670 L 110 670 L 198 557 L 287 670 L 363 670 L 240 499 L 155 499 L 32 670 Z" unicode="ž" />
<glyph horiz-adv-x="353" d="M 179 -62 C 176 -94 163 -121 140 -144 C 116 -167 88 -179 54 -179 C 37 -179 21 -177 5 -175 C -10 -172 -22 -169 -30 -166 L -22 -106 C -17 -106 -10 -107 0 -109 C 9 -111 18 -112 27 -112 C 47 -112 64 -105 78 -91 C 91 -77 99 -58 102 -33 L 134 332 L 45 332 L 45 403 L 141 403 L 161 630 C 163 648 168 663 176 677 C 184 691 193 702 205 712 C 216 721 228 728 242 733 C 255 737 268 740 281 740 C 293 740 306 739 318 738 C 330 737 337 736 340 736 L 333 663 C 331 663 327 664 321 665 C 315 665 309 666 303 666 C 284 666 268 659 256 647 C 244 634 237 614 235 588 L 219 403 L 324 403 L 324 332 L 213 332 L 179 -62 Z" unicode="ƒ" />
<glyph horiz-adv-x="498" d="M 25 0 L 25 0 Z M 261 -12 C 211 -12 165 -4 125 12 C 85 28 51 50 25 79 L 77 148 C 97 124 123 105 156 91 C 189 77 223 70 257 70 C 294 70 325 80 349 101 C 373 122 386 150 386 184 C 386 213 375 239 353 261 C 331 283 295 306 243 329 C 183 354 136 384 101 418 C 66 452 49 499 49 561 C 49 613 67 656 104 690 C 140 724 189 742 249 742 C 289 742 325 735 357 723 C 389 711 419 694 446 673 L 402 601 C 381 619 358 633 333 644 C 308 654 282 660 256 660 C 218 660 189 649 167 629 C 145 609 135 585 135 558 C 135 526 145 500 167 480 C 189 460 231 436 293 410 C 358 381 404 349 432 315 C 459 281 473 238 473 186 C 473 155 467 127 455 103 C 443 78 428 57 409 40 C 389 23 367 10 341 1 C 315 -7 289 -12 261 -12 Z M 234 -74 L 234 -74 Z M 325 -74 C 322 -96 317 -118 309 -142 C 301 -165 291 -187 281 -209 C 270 -231 258 -251 245 -270 C 231 -289 218 -305 204 -318 L 142 -289 C 150 -279 158 -267 168 -252 C 178 -236 187 -219 196 -200 C 204 -181 212 -161 220 -139 C 228 -117 234 -95 238 -74 L 325 -74 Z" unicode="Ș" />
<glyph horiz-adv-x="382" d="M 28 0 L 28 0 Z M 202 -12 C 162 -12 127 -7 99 3 C 71 13 47 27 28 46 L 71 103 C 85 89 104 78 126 70 C 148 62 173 58 201 58 C 223 58 240 63 254 74 C 268 84 275 99 275 118 C 275 134 267 148 251 159 C 235 169 209 180 173 191 C 129 203 95 220 73 240 C 50 260 39 288 39 322 C 39 359 53 389 82 413 C 110 436 147 448 191 448 C 223 448 252 443 278 433 C 303 423 323 412 338 401 L 298 346 C 286 354 271 361 252 369 C 233 377 212 381 190 381 C 171 381 154 377 138 369 C 122 361 115 350 115 334 C 115 321 120 310 130 302 C 140 293 165 282 205 270 C 253 255 289 237 314 216 C 338 194 351 164 351 126 C 351 84 337 50 309 25 C 281 0 246 -12 202 -12 Z M 181 -74 L 181 -74 Z M 272 -74 C 269 -96 264 -118 256 -142 C 248 -165 238 -187 228 -209 C 217 -231 205 -251 192 -270 C 178 -289 165 -305 151 -318 L 89 -289 C 97 -279 105 -267 115 -252 C 125 -236 134 -219 143 -200 C 151 -181 159 -161 167 -139 C 175 -117 181 -95 185 -74 L 272 -74 Z" unicode="ș" />
<glyph horiz-adv-x="529" d="M 10 0 L 10 0 Z M 519 649 L 306 649 L 306 0 L 216 0 L 216 649 L 10 649 L 10 730 L 519 730 L 519 649 Z M 237 -72 L 237 -72 Z M 328 -72 C 325 -94 320 -116 312 -140 C 304 -163 294 -185 284 -207 C 273 -229 261 -249 248 -268 C 234 -287 221 -303 207 -316 L 145 -287 C 153 -277 161 -265 171 -250 C 181 -234 190 -217 199 -198 C 207 -179 215 -159 223 -137 C 231 -115 237 -93 241 -72 L 328 -72 Z" unicode="Ț" />
<glyph horiz-adv-x="253" d="M 9 0 L 9 0 Z M 242 67 L 242 -3 C 239 -3 233 -4 225 -5 C 216 -5 207 -6 197 -6 C 182 -6 167 -4 152 -1 C 137 2 123 8 111 16 C 99 24 89 36 81 50 C 73 64 70 81 70 103 L 70 362 L 9 362 L 9 436 L 70 436 L 70 534 L 153 545 L 153 436 L 237 436 L 237 362 L 153 362 L 153 120 C 153 98 158 83 170 76 C 181 68 196 65 215 65 C 218 65 223 65 230 65 C 237 65 241 66 242 67 Z M 124 -72 L 124 -72 Z M 215 -72 C 212 -94 207 -116 199 -140 C 191 -163 181 -185 171 -207 C 160 -229 148 -249 135 -268 C 121 -287 108 -303 94 -316 L 32 -287 C 40 -277 48 -265 58 -250 C 68 -234 77 -217 86 -198 C 94 -179 102 -159 110 -137 C 118 -115 124 -93 128 -72 L 215 -72 Z" unicode="ț" />
<glyph horiz-adv-x="214" d="M 149 436 L 149 -69 C 149 -106 137 -138 114 -164 C 91 -190 60 -202 22 -202 C 14 -202 4 -201 -7 -200 C -18 -198 -26 -197 -32 -196 L -30 -127 C -27 -127 -22 -128 -15 -129 C -8 -129 -2 -130 3 -130 C 19 -130 34 -124 47 -112 C 59 -100 66 -82 66 -58 L 66 436 L 149 436 Z" unicode="ȷ" />
<glyph horiz-adv-x="500" d="M 416 499 L 338 499 L 250 611 L 161 499 L 85 499 L 208 670 L 293 670 L 416 499 Z" unicode="ˆ" />
<glyph horiz-adv-x="500" d="M 85 670 L 163 670 L 251 557 L 340 670 L 416 670 L 293 499 L 208 499 L 85 670 Z" unicode="ˇ" />
<glyph horiz-adv-x="500" d="M 335 661 L 405 661 C 401 606 384 566 356 541 C 327 516 292 504 250 504 C 208 504 172 516 144 541 C 115 566 99 606 95 661 L 165 661 C 167 628 175 601 188 581 C 201 560 222 550 250 550 C 278 550 298 560 312 580 C 325 600 333 627 335 661 Z" unicode="˘" />
<glyph horiz-adv-x="500" d="M 289 499 L 212 499 L 212 662 L 289 662 L 289 499 Z" unicode="˙" />
<glyph horiz-adv-x="500" d="M 250 496 C 218 496 192 506 170 528 C 148 550 138 576 138 608 C 138 639 148 665 170 687 C 192 709 218 720 250 720 C 281 720 308 709 330 687 C 352 665 363 639 363 608 C 363 576 352 550 330 528 C 308 506 281 496 250 496 Z M 250 545 C 267 545 282 551 294 563 C 306 575 312 590 312 608 C 312 626 306 641 294 653 C 282 665 267 672 250 672 C 232 672 218 665 206 653 C 194 641 188 626 188 608 C 188 590 194 575 206 563 C 218 551 232 545 250 545 Z" unicode="˚" />
<glyph horiz-adv-x="500" d="M 362 -92 L 386 -127 C 366 -147 344 -162 319 -173 C 293 -183 265 -189 235 -189 C 201 -189 174 -181 154 -167 C 134 -152 125 -134 125 -112 C 125 -87 137 -64 163 -42 C 188 -20 223 -2 269 14 L 300 13 C 268 -1 242 -16 224 -31 C 205 -46 196 -62 196 -78 C 196 -93 202 -105 215 -114 C 227 -122 243 -127 262 -127 C 282 -127 301 -123 319 -117 C 337 -110 351 -102 362 -92 Z" unicode="˛" />
<glyph horiz-adv-x="500" d="M 347 640 L 409 640 C 409 594 402 560 389 538 C 376 516 359 506 338 506 C 319 506 302 509 288 517 C 274 525 262 532 253 539 C 243 545 233 552 223 559 C 213 565 204 569 196 569 C 186 569 178 563 171 552 C 163 541 160 527 160 510 L 97 510 C 97 555 105 589 123 611 C 141 633 160 644 181 644 C 196 644 210 640 222 633 C 234 625 246 617 259 609 C 267 602 276 595 286 588 C 295 581 304 578 314 578 C 322 578 330 583 337 595 C 343 606 347 621 347 640 Z" unicode="˜" />
<glyph horiz-adv-x="500" d="M 79 498 L 173 648 L 262 648 L 153 498 L 79 498 Z M 260 498 L 355 648 L 444 648 L 334 498 L 260 498 Z" unicode="˝" />
<glyph horiz-adv-x="0" d="M 0 498 L 0 498 Z M 103 498 L 19 498 L -102 662 L -4 662 L 103 498 Z" unicode="̀" />
<glyph horiz-adv-x="0" d="M 0 498 L 0 498 Z M -102 498 L 4 662 L 103 662 L -18 498 L -102 498 Z" unicode="́" />
<glyph horiz-adv-x="0" d="M 0 499 L 0 499 Z M 166 499 L 88 499 L 0 611 L -89 499 L -165 499 L -42 670 L 43 670 L 166 499 Z" unicode="̂" />
<glyph horiz-adv-x="0" d="M 0 506 L 0 506 Z M 97 640 L 159 640 C 159 594 152 560 139 538 C 126 516 109 506 88 506 C 69 506 52 509 38 517 C 24 525 12 532 3 539 C -7 545 -16 552 -26 559 C -36 565 -45 569 -54 569 C -63 569 -71 563 -79 552 C -86 541 -90 527 -90 510 L -153 510 C -153 555 -144 589 -126 611 C -108 633 -89 644 -69 644 C -53 644 -40 640 -28 633 C -16 625 -3 617 9 609 C 17 602 26 595 36 588 C 45 581 54 578 64 578 C 72 578 80 583 87 595 C 93 606 97 621 97 640 Z" unicode="̃" />
<glyph horiz-adv-x="0" d="M 0 525 L 0 525 Z M 129 525 L -129 525 L -129 587 L 129 587 L 129 525 Z" unicode="̄" />
<glyph horiz-adv-x="0" d="M 0 504 L 0 504 Z M 85 661 L 155 661 C 151 606 134 566 106 541 C 77 516 42 504 0 504 C -42 504 -77 516 -106 541 C -134 566 -151 606 -155 661 L -85 661 C -82 628 -74 601 -61 581 C -48 560 -28 550 0 550 C 28 550 48 560 62 580 C 75 600 83 627 85 661 Z" unicode="̆" />
<glyph horiz-adv-x="0" d="M 0 499 L 0 499 Z M 39 499 L -38 499 L -38 662 L 39 662 L 39 499 Z" unicode="̇" />
<glyph horiz-adv-x="0" d="M 0 499 L 0 499 Z M 125 499 L 54 499 L 54 656 L 125 656 L 125 499 Z M -58 499 L -129 499 L -129 656 L -58 656 L -58 499 Z" unicode="̈" />
<glyph horiz-adv-x="0" d="M 0 496 L 0 496 Z M 0 496 C -31 496 -57 506 -79 528 C -101 550 -112 576 -112 608 C -112 639 -101 665 -79 687 C -57 709 -31 720 0 720 C 31 720 58 709 80 687 C 102 665 113 639 113 608 C 113 576 102 550 80 528 C 58 506 31 496 0 496 Z M 0 545 C 17 545 32 551 44 563 C 56 575 62 590 62 608 C 62 626 56 641 44 653 C 32 665 17 672 0 672 C -17 672 -32 665 -44 653 C -56 641 -62 626 -62 608 C -62 590 -56 575 -44 563 C -32 551 -17 545 0 545 Z" unicode="̊" />
<glyph horiz-adv-x="0" d="M 0 498 L 0 498 Z M -182 498 L -88 648 L 1 648 L -108 498 L -182 498 Z M -1 498 L 94 648 L 183 648 L 73 498 L -1 498 Z" unicode="̋" />
<glyph horiz-adv-x="0" d="M 0 499 L 0 499 Z M -165 670 L -87 670 L 1 557 L 90 670 L 166 670 L 43 499 L -42 499 L -165 670 Z" unicode="̌" />
<glyph horiz-adv-x="0" d="M 0 -72 L 0 -72 Z M 91 -72 C 88 -94 83 -116 75 -140 C 67 -163 57 -185 47 -207 C 36 -229 24 -249 11 -268 C -2 -287 -16 -303 -30 -316 L -92 -287 C -84 -277 -75 -265 -65 -250 C -55 -234 -46 -217 -38 -198 C -29 -179 -21 -159 -13 -137 C -5 -115 0 -93 4 -72 L 91 -72 Z" unicode="̦" />
<glyph horiz-adv-x="0" d="M 0 0 L 0 0 Z M 9 -187 C -15 -187 -39 -184 -64 -178 C -88 -172 -108 -164 -122 -155 L -112 -116 C -102 -122 -88 -127 -72 -133 C -55 -139 -37 -142 -18 -142 C -2 -142 11 -138 23 -131 C 35 -124 41 -115 41 -103 C 41 -90 35 -81 25 -75 C 15 -69 3 -67 -9 -67 C -17 -67 -25 -67 -31 -68 C -37 -69 -43 -71 -51 -74 L -65 -59 L -5 11 L 48 11 L -2 -51 C 32 -43 62 -45 86 -58 C 110 -70 122 -89 122 -113 C 122 -137 110 -156 88 -168 C 65 -180 39 -187 9 -187 Z" unicode="̧" />
<glyph horiz-adv-x="0" d="M 0 0 L 0 0 Z M 106 -92 L 130 -127 C 110 -147 88 -162 63 -173 C 37 -183 9 -189 -21 -189 C -55 -189 -81 -181 -101 -167 C -121 -152 -131 -134 -131 -112 C -131 -87 -118 -64 -93 -42 C -67 -20 -32 -2 13 14 L 44 13 C 12 -1 -13 -16 -32 -31 C -50 -46 -60 -62 -60 -78 C -60 -93 -53 -105 -41 -114 C -28 -122 -12 -127 6 -127 C 26 -127 45 -123 63 -117 C 81 -110 95 -102 106 -92 Z" unicode="̨" />
<glyph horiz-adv-x="563" d="M 1 0 L 1 0 Z M 639 0 L 1 0 L 306 730 L 335 730 L 639 0 Z M 521 71 L 318 565 L 115 71 L 521 71 Z" unicode="Δ" />
<glyph horiz-adv-x="724" d="M 48 0 L 48 0 Z M 57 0 L 57 77 L 263 77 L 263 154 C 196 182 143 223 105 275 C 67 327 48 384 48 444 C 48 486 56 525 72 562 C 88 599 110 631 139 658 C 168 685 203 706 245 722 C 286 738 332 746 383 746 C 435 746 483 738 526 722 C 568 706 604 684 634 657 C 663 630 686 598 702 561 C 718 524 726 485 726 444 C 726 382 707 326 671 274 C 635 222 581 182 511 154 L 511 77 L 716 77 L 716 0 L 435 0 L 435 195 C 496 217 545 251 581 296 C 617 340 635 388 635 440 C 635 474 628 505 616 534 C 603 563 585 588 563 609 C 541 630 514 646 484 658 C 453 670 420 676 384 676 C 348 676 316 670 286 658 C 256 646 230 630 209 609 C 187 588 170 563 158 534 C 146 504 140 472 140 438 C 140 388 157 341 192 297 C 227 253 276 219 339 195 L 339 0 L 57 0 Z" unicode="Ω" />
<glyph horiz-adv-x="591" d="M 72 0 L 72 0 Z M 72 -109 L 72 436 L 154 436 L 154 156 C 154 124 163 100 183 83 C 203 65 229 57 262 57 C 296 57 325 67 351 88 C 376 108 389 140 389 182 L 389 436 L 471 436 L 471 0 L 396 0 L 396 97 C 384 67 366 43 340 23 C 314 3 283 -7 247 -8 C 222 -8 201 -4 184 6 C 167 16 155 30 148 48 L 148 -109 L 72 -109 Z" unicode="μ" />
<glyph horiz-adv-x="623" d="M 177 455 L 177 0 L 95 0 L 95 455 L 15 455 L 15 520 L 608 520 L 608 455 L 523 455 L 523 0 L 440 0 L 440 455 L 177 455 Z" unicode="π" />
<glyph horiz-adv-x="922" d="M 7 0 L 7 0 Z M 916 730 L 689 -8 L 641 -8 L 462 565 L 277 -8 L 229 -8 L 7 730 L 96 730 L 258 174 L 441 730 L 490 730 L 667 174 L 832 730 L 916 730 Z M 466 792 L 466 792 Z M 569 792 L 485 792 L 364 956 L 462 956 L 569 792 Z" unicode="Ẁ" />
<glyph horiz-adv-x="666" d="M 7 0 L 7 0 Z M 454 -3 L 335 291 L 211 -3 L 165 -3 L 7 436 L 94 436 L 198 122 L 315 404 L 361 404 L 474 122 L 579 436 L 659 436 L 501 -3 L 454 -3 Z M 334 498 L 334 498 Z M 437 498 L 353 498 L 232 662 L 330 662 L 437 498 Z" unicode="ẁ" />
<glyph horiz-adv-x="922" d="M 7 0 L 7 0 Z M 916 730 L 689 -8 L 641 -8 L 462 565 L 277 -8 L 229 -8 L 7 730 L 96 730 L 258 174 L 441 730 L 490 730 L 667 174 L 832 730 L 916 730 Z M 466 792 L 466 792 Z M 364 792 L 470 956 L 569 956 L 448 792 L 364 792 Z" unicode="Ẃ" />
<glyph horiz-adv-x="666" d="M 7 0 L 7 0 Z M 454 -3 L 335 291 L 211 -3 L 165 -3 L 7 436 L 94 436 L 198 122 L 315 404 L 361 404 L 474 122 L 579 436 L 659 436 L 501 -3 L 454 -3 Z M 334 498 L 334 498 Z M 232 498 L 338 662 L 437 662 L 316 498 L 232 498 Z" unicode="ẃ" />
<glyph horiz-adv-x="922" d="M 7 0 L 7 0 Z M 916 730 L 689 -8 L 641 -8 L 462 565 L 277 -8 L 229 -8 L 7 730 L 96 730 L 258 174 L 441 730 L 490 730 L 667 174 L 832 730 L 916 730 Z M 466 793 L 466 793 Z M 591 793 L 520 793 L 520 950 L 591 950 L 591 793 Z M 408 793 L 337 793 L 337 950 L 408 950 L 408 793 Z" unicode="Ẅ" />
<glyph horiz-adv-x="666" d="M 7 0 L 7 0 Z M 454 -3 L 335 291 L 211 -3 L 165 -3 L 7 436 L 94 436 L 198 122 L 315 404 L 361 404 L 474 122 L 579 436 L 659 436 L 501 -3 L 454 -3 Z M 334 499 L 334 499 Z M 459 499 L 388 499 L 388 656 L 459 656 L 459 499 Z M 276 499 L 205 499 L 205 656 L 276 656 L 276 499 Z" unicode="ẅ" />
<glyph horiz-adv-x="605" d="M 2 0 L 2 0 Z M 641 730 L 365 328 L 365 0 L 275 0 L 275 331 L 2 730 L 104 730 L 324 410 L 544 730 L 641 730 Z M 322 792 L 322 792 Z M 425 792 L 341 792 L 220 956 L 318 956 L 425 792 Z" unicode="Ỳ" />
<glyph horiz-adv-x="470" d="M 0 0 L 0 0 Z M 469 436 L 213 -91 C 190 -137 165 -166 139 -180 C 113 -193 89 -200 67 -200 C 53 -200 41 -198 31 -196 C 21 -193 13 -191 8 -189 L 30 -112 C 32 -113 37 -115 45 -117 C 53 -119 60 -121 68 -121 C 83 -121 97 -116 110 -106 C 123 -96 137 -78 151 -50 L 192 34 L -2 436 L 89 436 L 234 113 L 383 436 L 469 436 Z M 236 498 L 236 498 Z M 339 498 L 255 498 L 134 662 L 232 662 L 339 498 Z" unicode="ỳ" />
<glyph horiz-adv-x="460" d="M 420 228 L 41 228 L 41 300 L 420 300 L 420 228 Z" unicode="–" />
<glyph horiz-adv-x="645" d="M 605 228 L 41 228 L 41 300 L 605 300 L 605 228 Z" unicode="—" />
<glyph horiz-adv-x="263" d="M 34 507 L 34 514 C 34 550 45 589 69 629 C 92 669 123 705 163 737 L 246 731 C 236 725 224 715 210 701 C 196 687 182 670 170 651 C 157 631 146 610 137 587 C 128 563 124 539 124 515 L 124 507 L 34 507 Z" unicode="‘" />
<glyph horiz-adv-x="263" d="M 228 737 L 228 730 C 228 693 216 655 192 616 C 168 577 137 541 99 507 L 16 513 C 26 521 38 532 52 546 C 66 560 79 577 92 596 C 104 614 115 635 124 658 C 133 680 138 704 138 729 L 138 737 L 228 737 Z" unicode="’" />
<glyph horiz-adv-x="263" d="M 228 111 L 228 104 C 228 67 216 29 192 -9 C 168 -48 137 -85 99 -119 L 16 -113 C 26 -105 38 -93 52 -79 C 66 -65 79 -48 92 -30 C 104 -11 115 9 124 32 C 133 54 138 78 138 103 L 138 111 L 228 111 Z" unicode="‚" />
<glyph horiz-adv-x="437" d="M 220 507 L 220 514 C 220 550 230 587 251 625 C 271 663 302 700 342 737 L 421 731 C 411 722 399 710 386 696 C 372 682 360 665 348 647 C 336 628 325 607 317 585 C 309 563 305 539 305 515 L 305 507 L 220 507 Z M 34 507 L 34 514 C 34 550 45 587 67 625 C 89 663 118 700 156 737 L 235 731 C 226 723 215 711 202 697 C 188 683 175 666 163 648 C 151 629 140 608 132 586 C 123 563 119 539 119 515 L 119 507 L 34 507 Z" unicode="“" />
<glyph horiz-adv-x="437" d="M 217 737 L 217 730 C 217 693 207 656 188 618 C 168 580 138 543 96 507 L 16 513 C 27 522 39 534 53 549 C 67 563 79 580 91 598 C 103 616 113 637 121 659 C 129 681 133 704 133 729 L 133 737 L 217 737 Z M 403 737 L 403 730 C 403 693 392 655 372 617 C 352 579 322 542 282 507 L 202 513 C 214 523 226 535 240 549 C 254 563 266 580 278 598 C 290 616 299 637 307 659 C 315 681 319 704 319 729 L 319 737 L 403 737 Z" unicode="”" />
<glyph horiz-adv-x="437" d="M 217 115 L 217 108 C 217 71 207 34 188 -3 C 168 -41 138 -78 96 -115 L 16 -109 C 27 -99 39 -87 53 -73 C 67 -58 79 -41 91 -23 C 103 -5 113 15 121 37 C 129 59 133 82 133 107 L 133 115 L 217 115 Z M 403 115 L 403 108 C 403 71 392 33 372 -4 C 352 -42 322 -79 282 -115 L 202 -109 C 214 -99 226 -86 240 -72 C 254 -58 266 -41 278 -23 C 290 -5 299 15 307 37 C 315 59 319 82 319 107 L 319 115 L 403 115 Z" unicode="„" />
<glyph horiz-adv-x="565" d="M 540 388 L 323 388 L 323 -179 L 236 -179 L 236 388 L 25 388 L 25 470 L 236 470 L 236 730 L 323 730 L 323 470 L 540 470 L 540 388 Z" unicode="†" />
<glyph horiz-adv-x="565" d="M 237 -179 L 237 110 L 29 110 L 29 193 L 237 193 L 237 379 L 29 379 L 29 462 L 237 462 L 237 730 L 323 730 L 323 462 L 536 462 L 536 379 L 323 379 L 323 193 L 536 193 L 536 110 L 323 110 L 323 -179 L 237 -179 Z" unicode="‡" />
<glyph horiz-adv-x="382" d="M 191 457 C 213 457 231 449 246 434 C 261 419 269 401 269 379 C 269 357 261 339 246 324 C 231 308 213 301 191 301 C 169 301 150 308 135 324 C 120 339 113 357 113 379 C 113 401 120 419 135 434 C 150 449 169 457 191 457 Z" unicode="•" />
<glyph horiz-adv-x="695" d="M 74 0 L 74 120 L 159 120 L 159 0 L 74 0 Z M 305 0 L 305 120 L 390 120 L 390 0 L 305 0 Z M 536 0 L 536 120 L 621 120 L 621 0 L 536 0 Z" unicode="…" />
<glyph horiz-adv-x="1106" d="M 198 363 C 180 363 161 366 143 374 C 125 382 108 393 93 409 C 78 425 66 444 57 468 C 47 492 43 519 43 551 C 43 577 47 601 55 624 C 63 647 75 667 89 684 C 103 701 119 715 138 725 C 156 735 176 740 198 740 C 221 740 242 735 261 725 C 280 715 296 701 310 685 C 324 668 334 648 342 626 C 349 603 353 579 353 554 C 353 527 349 502 341 479 C 333 455 322 435 308 418 C 294 400 278 387 259 377 C 240 367 220 363 198 363 Z M 135 0 L 552 730 L 614 730 L 196 0 L 135 0 Z M 119 551 C 119 512 126 482 142 460 C 157 438 175 427 197 427 C 223 427 244 438 258 462 C 272 485 280 515 280 551 C 280 586 273 616 260 640 C 247 664 227 676 200 676 C 174 676 154 664 140 640 C 126 616 119 586 119 551 Z M 561 -3 C 542 -3 523 0 505 8 C 487 16 470 27 456 43 C 442 59 430 78 421 102 C 412 126 408 153 408 185 C 408 211 412 235 420 258 C 428 281 438 301 452 318 C 466 335 482 349 501 359 C 520 369 541 374 564 374 C 587 374 608 369 627 359 C 646 349 662 335 676 319 C 689 302 699 282 706 260 C 713 237 717 213 717 188 C 717 161 713 136 705 113 C 697 89 687 69 673 52 C 659 34 643 21 624 11 C 604 1 583 -3 561 -3 Z M 906 -3 C 888 -3 869 0 851 8 C 833 16 816 27 802 43 C 787 59 775 78 766 102 C 757 126 753 153 753 185 C 753 211 757 235 765 258 C 773 281 783 301 797 318 C 811 335 827 349 847 359 C 866 369 887 374 909 374 C 932 374 953 369 972 359 C 991 349 1007 335 1021 319 C 1034 302 1044 282 1052 260 C 1059 237 1063 213 1063 188 C 1063 161 1059 136 1051 113 C 1043 89 1033 69 1019 52 C 1005 34 988 21 969 11 C 949 1 928 -3 906 -3 Z M 561 62 C 587 62 608 73 622 96 C 636 118 644 148 644 185 C 644 221 637 250 623 274 C 609 298 589 310 563 310 C 539 310 519 298 505 274 C 491 250 484 221 484 185 C 484 145 491 114 507 93 C 522 72 540 62 561 62 Z M 907 62 C 933 62 954 73 969 96 C 983 118 991 148 991 185 C 991 221 984 250 970 274 C 956 298 936 310 909 310 C 885 310 865 298 851 274 C 837 250 830 221 830 185 C 830 145 837 114 853 93 C 868 72 886 62 907 62 Z" unicode="‰" />
<glyph horiz-adv-x="235" d="M 205 80 L 28 247 L 28 310 L 205 475 L 205 385 L 101 276 L 205 172 L 205 80 Z" unicode="‹" />
<glyph horiz-adv-x="235" d="M 30 475 L 207 307 L 207 245 L 30 80 L 30 169 L 134 278 L 30 382 L 30 475 Z" unicode="›" />
<glyph horiz-adv-x="145" d="M 301 730 L -72 0 L -145 0 L 228 730 L 301 730 Z" unicode="⁄" />
<glyph horiz-adv-x="326" d="M 15 456 L 15 507 L 204 738 L 252 738 L 252 510 L 315 510 L 315 456 L 252 456 L 252 373 L 183 373 L 183 456 L 15 456 Z M 72 501 L 185 501 L 185 642 L 72 501 Z" unicode="⁴" />
<glyph horiz-adv-x="567" d="M 564 116 C 543 79 513 48 473 24 C 433 0 390 -12 342 -12 C 280 -12 226 12 180 60 C 134 108 103 174 89 258 L 39 258 L 39 325 L 81 325 C 80 331 80 337 80 343 C 80 349 80 355 80 362 C 80 366 80 371 80 375 C 80 379 80 383 80 388 L 39 388 L 39 455 L 86 455 C 92 496 102 534 116 570 C 130 605 147 635 169 661 C 190 686 215 706 244 720 C 273 734 305 742 341 742 C 398 742 444 730 478 707 C 512 684 537 657 554 626 L 487 591 C 472 615 453 635 430 651 C 406 667 377 675 341 675 C 294 675 255 655 224 617 C 192 579 172 525 164 455 L 490 455 L 490 388 L 158 388 C 158 384 158 380 158 376 C 158 372 158 367 158 363 C 158 356 158 349 158 343 C 158 337 158 331 159 325 L 490 325 L 490 258 L 167 258 C 179 192 202 141 235 107 C 267 72 303 55 343 55 C 379 55 410 65 437 85 C 463 105 484 128 499 156 L 564 116 Z" unicode="€" />
<glyph horiz-adv-x="876" d="M 819 307 L 745 307 L 745 607 L 609 407 L 586 407 L 452 606 L 452 307 L 379 307 L 379 730 L 455 730 L 598 518 L 740 730 L 819 730 L 819 307 Z M 350 650 L 224 650 L 224 307 L 145 307 L 145 650 L 21 650 L 21 730 L 350 730 L 350 650 Z" unicode="™" />
<glyph horiz-adv-x="774" d="M 57 0 L 57 77 L 263 77 L 263 154 C 196 182 143 223 105 275 C 67 327 48 384 48 444 C 48 486 56 525 72 562 C 88 599 110 631 139 658 C 168 685 203 706 245 722 C 286 738 332 746 383 746 C 435 746 483 738 526 722 C 568 706 604 684 634 657 C 663 630 686 598 702 561 C 718 524 726 485 726 444 C 726 382 707 326 671 274 C 635 222 581 182 511 154 L 511 77 L 716 77 L 716 0 L 435 0 L 435 195 C 496 217 545 251 581 296 C 617 340 635 388 635 440 C 635 474 628 505 616 534 C 603 563 585 588 563 609 C 541 630 514 646 484 658 C 453 670 420 676 384 676 C 348 676 316 670 286 658 C 256 646 230 630 209 609 C 187 588 170 563 158 534 C 146 504 140 472 140 438 C 140 388 157 341 192 297 C 227 253 276 219 339 195 L 339 0 L 57 0 Z" unicode="Ω" />
<glyph horiz-adv-x="553" d="M 508 270 C 508 222 501 180 489 144 C 476 108 459 79 437 56 C 415 33 389 16 359 5 C 329 -5 298 -11 265 -11 C 235 -11 206 -5 178 5 C 150 15 125 30 103 50 C 81 69 63 93 50 121 C 36 149 30 181 30 216 C 30 247 35 277 47 306 C 59 334 75 359 96 381 C 116 402 140 419 168 432 C 196 444 226 451 258 451 C 300 451 337 440 369 419 C 400 398 423 372 437 340 C 431 412 418 475 397 527 C 376 579 351 621 322 654 C 293 687 261 712 227 728 C 193 744 160 752 128 754 L 167 802 C 200 802 237 792 277 774 C 317 755 354 725 388 683 C 422 641 450 586 473 518 C 496 450 508 367 508 270 Z M 267 48 C 313 48 350 64 379 97 C 407 129 422 173 422 228 C 422 272 408 310 380 342 C 352 374 315 390 267 390 C 223 390 187 374 159 342 C 130 310 116 269 116 219 C 116 165 130 123 159 93 C 187 63 223 48 267 48 Z" unicode="∂" />
<glyph horiz-adv-x="640" d="M 639 0 L 1 0 L 306 730 L 335 730 L 639 0 Z M 521 71 L 318 565 L 115 71 L 521 71 Z" unicode="∆" />
<glyph horiz-adv-x="700" d="M 220 655 L 220 0 L 133 0 L 133 655 L 15 655 L 15 730 L 685 730 L 685 655 L 571 655 L 571 0 L 485 0 L 485 655 L 220 655 Z" unicode="∏" />
<glyph horiz-adv-x="618" d="M 159 655 L 416 307 L 127 -104 L 572 -104 L 572 -179 L -12 -179 L 332 306 L 18 730 L 551 730 L 551 655 L 159 655 Z" unicode="∑" />
<glyph horiz-adv-x="512" d="M 472 298 L 41 298 L 41 365 L 472 365 L 472 298 Z" unicode="−" />
<glyph horiz-adv-x="510" d="M 500 730 L 198 0 L 186 0 L 14 327 L 74 371 L 202 116 L 446 730 L 500 730 Z" unicode="√" />
<glyph horiz-adv-x="334" d="M 109 -33 L 167 630 C 170 666 184 693 208 712 C 232 730 256 740 281 740 C 293 740 306 739 318 738 C 330 737 337 736 340 736 L 333 663 C 331 663 327 664 321 665 C 315 665 309 666 303 666 C 284 666 268 659 256 647 C 244 634 237 614 235 588 L 179 -62 C 176 -94 163 -121 140 -145 C 116 -168 88 -179 54 -179 C 36 -179 20 -177 5 -174 C -10 -170 -22 -166 -30 -162 L -21 -103 C -17 -103 -10 -105 0 -108 C 9 -110 18 -112 27 -112 C 47 -112 65 -105 81 -91 C 97 -77 106 -58 109 -33 Z" unicode="∫" />
<glyph horiz-adv-x="500" d="M 374 496 L 448 496 C 447 448 440 409 427 380 C 413 351 390 337 358 337 C 336 337 317 341 299 350 C 281 359 265 369 253 380 C 239 391 225 401 209 410 C 193 418 178 423 164 423 C 150 423 137 415 123 400 C 109 385 103 365 103 340 L 39 340 C 39 388 48 427 68 455 C 87 483 112 497 143 497 C 163 497 182 492 198 483 C 214 474 228 464 241 454 C 253 445 266 437 280 429 C 294 421 309 418 323 418 C 341 418 354 424 362 437 C 370 449 374 469 374 496 Z M 376 322 L 448 322 C 447 274 438 235 422 206 C 406 177 381 163 348 163 C 325 163 305 167 289 176 C 273 185 259 195 247 206 C 234 216 220 226 206 234 C 191 242 177 246 164 246 C 151 246 138 238 125 224 C 111 210 105 190 105 166 L 39 166 C 39 214 49 253 69 281 C 89 309 115 324 148 324 C 170 324 190 319 207 309 C 224 299 239 289 251 279 C 261 269 274 260 288 253 C 302 245 315 242 328 242 C 344 242 356 248 364 261 C 372 274 376 294 376 322 Z" unicode="≈" />
<glyph horiz-adv-x="500" d="M 457 179 L 223 179 L 171 71 L 116 95 L 156 179 L 65 179 L 65 250 L 191 250 L 258 390 L 65 390 L 65 461 L 292 461 L 345 570 L 400 546 L 359 461 L 457 461 L 457 390 L 325 390 L 257 250 L 457 250 L 457 179 Z" unicode="≠" />
<glyph horiz-adv-x="500" d="M 62 298 L 62 352 L 433 556 L 433 477 L 143 327 L 433 174 L 433 95 L 62 298 Z M 61 80 L 433 80 L 433 17 L 61 17 L 61 80 Z" unicode="≤" />
<glyph horiz-adv-x="500" d="M 432 298 L 61 95 L 61 174 L 351 327 L 61 477 L 61 556 L 432 352 L 432 298 Z M 433 80 L 433 17 L 61 17 L 61 80 L 433 80 Z" unicode="≥" />
<glyph horiz-adv-x="530" d="M 500 326 L 270 -12 L 259 -12 L 30 326 L 30 337 L 259 674 L 270 674 L 500 337 L 500 326 Z M 421 327 L 421 336 L 269 565 L 261 565 L 109 336 L 109 327 L 261 97 L 269 97 L 421 327 Z" unicode="◊" />
<glyph horiz-adv-x="730" d="M 448 683 L 282 683 L 282 730 L 448 730 L 448 683 Z M 659 282 L 610 282 L 610 448 L 659 448 L 659 282 Z M 120 282 L 71 282 L 71 448 L 120 448 L 120 282 Z M 423 307 L 307 307 L 307 423 L 423 423 L 423 307 Z M 448 0 L 282 0 L 282 48 L 448 48 L 448 0 Z" unicode="" />
<glyph horiz-adv-x="542" d="M 316 372 L 198 372 L 198 0 L 116 0 L 116 372 L 18 372 L 18 436 L 116 436 L 116 526 C 116 565 121 599 133 628 C 145 656 160 680 179 698 C 197 716 218 730 242 739 C 265 748 288 753 311 753 C 325 753 338 751 350 749 C 362 747 372 744 380 742 L 379 673 C 373 675 366 676 356 678 C 346 680 336 681 324 681 C 309 681 294 677 279 671 C 264 664 251 654 239 642 C 227 630 217 615 209 598 C 201 580 198 561 198 540 L 198 436 L 316 436 L 316 372 Z M 476 539 L 390 539 L 390 627 L 476 627 L 476 539 Z M 474 0 L 392 0 L 392 436 L 474 436 L 474 0 Z" unicode="ﬁ" />
<glyph horiz-adv-x="536" d="M 316 372 L 198 372 L 198 0 L 116 0 L 116 372 L 18 372 L 18 436 L 116 436 L 116 506 C 116 545 121 579 133 609 C 145 638 160 662 179 681 C 197 700 218 714 242 724 C 265 733 288 738 311 738 C 325 738 338 736 350 734 C 362 732 372 729 380 727 L 379 658 C 373 660 366 661 356 663 C 346 665 336 666 324 666 C 309 666 294 662 279 655 C 264 647 251 637 239 624 C 227 611 217 596 209 578 C 201 560 198 540 198 519 L 198 436 L 316 436 L 316 372 Z M 468 730 L 468 0 L 386 0 L 386 730 L 468 730 Z" unicode="ﬂ" />
</font>
</defs>
</svg>
