<?xml version="1.0" encoding="utf-8" ?><svg version="1.1" xmlns = 'http://www.w3.org/2000/svg'><defs><font id='web' horiz-adv-x="1000">
<font-face font-family="web" descent="-200" cap-height="730" units-per-em="1000" bbox="-174,-326,1011,1018" x-height="488" ascent="800" />
<missing-glyph horiz-adv-x="500" d="" /><glyph horiz-adv-x="200" d="" unicode=" " />
<glyph horiz-adv-x="267" d="M 186 429 L 155 204 L 112 204 L 82 429 L 82 730 L 186 730 L 186 429 Z M 182 0 L 87 0 L 87 106 L 182 106 L 182 0 Z" unicode="!" />
<glyph horiz-adv-x="363" d="M 309 621 L 303 483 L 229 483 L 224 620 L 224 730 L 309 730 L 309 621 Z M 139 620 L 134 483 L 59 483 L 54 620 L 54 730 L 139 730 L 139 620 Z" unicode="&#x22;" />
<glyph horiz-adv-x="575" d="M 524 219 L 406 219 L 387 0 L 328 1 L 347 219 L 203 219 L 184 0 L 126 1 L 145 219 L 31 219 L 31 298 L 152 298 L 163 428 L 51 428 L 51 508 L 171 508 L 190 730 L 248 729 L 229 508 L 373 508 L 392 730 L 451 729 L 432 508 L 544 508 L 544 428 L 425 428 L 413 298 L 524 298 L 524 219 Z M 210 298 L 354 298 L 365 428 L 222 428 L 210 298 Z" unicode="#" />
<glyph horiz-adv-x="483" d="M 447 187 C 447 133 429 90 395 58 C 361 25 319 6 271 1 L 271 -126 L 212 -126 L 212 0 C 173 2 138 11 106 25 C 74 39 47 60 25 86 L 68 155 C 84 133 106 116 132 103 C 158 89 185 81 212 79 L 212 343 C 156 371 114 400 86 432 C 58 463 44 505 44 557 C 44 605 59 644 91 676 C 123 707 163 725 212 731 L 212 791 L 271 791 L 271 731 C 304 727 334 720 360 708 C 386 696 409 680 429 660 L 380 597 C 365 612 348 624 329 633 C 309 642 290 648 271 651 L 271 408 L 275 406 C 337 374 381 343 407 311 C 433 279 447 238 447 187 Z M 132 552 C 132 528 138 508 149 492 C 160 476 181 458 212 440 L 212 649 C 189 644 170 633 155 616 C 139 599 132 578 132 552 Z M 359 189 C 359 213 352 235 340 253 C 328 271 305 290 271 311 L 271 82 C 295 87 316 98 333 116 C 350 134 359 158 359 189 Z" unicode="$" />
<glyph horiz-adv-x="726" d="M 181 360 C 163 360 146 364 129 372 C 111 380 96 392 83 408 C 69 424 58 443 50 467 C 42 491 38 518 38 550 C 38 576 41 601 49 624 C 56 647 66 667 79 684 C 91 701 106 715 124 725 C 141 735 160 740 180 740 C 202 740 222 735 240 725 C 258 715 273 701 286 684 C 299 667 309 647 316 625 C 323 602 327 578 327 553 C 327 526 323 501 316 477 C 308 453 298 433 285 416 C 272 398 257 385 239 375 C 221 365 201 360 181 360 Z M 175 0 L 100 0 L 535 730 L 609 730 L 175 0 Z M 181 431 C 205 431 223 443 233 467 C 243 491 249 518 249 550 C 249 580 244 608 234 632 C 224 656 207 669 183 669 C 159 669 141 656 131 632 C 120 608 115 580 115 550 C 115 517 120 489 131 466 C 141 442 158 431 181 431 Z M 542 -3 C 524 -3 506 1 489 9 C 471 17 456 29 442 45 C 428 61 417 80 409 104 C 401 128 397 155 397 187 C 397 213 400 238 408 261 C 415 284 425 304 438 321 C 451 338 467 352 485 362 C 503 372 522 377 544 377 C 566 377 586 372 604 362 C 622 352 637 338 650 321 C 662 304 672 284 679 262 C 685 239 689 215 689 190 C 689 162 685 137 678 113 C 670 89 660 69 648 52 C 635 35 619 22 601 12 C 583 2 563 -3 542 -3 Z M 541 69 C 565 69 583 80 594 104 C 605 127 611 155 611 187 C 611 217 605 245 595 269 C 584 293 567 306 543 306 C 521 306 504 294 493 270 C 481 246 476 219 476 187 C 476 154 481 126 492 103 C 503 80 519 69 541 69 Z" unicode="%" />
<glyph horiz-adv-x="660" d="M 586 -5 L 506 77 C 473 49 437 27 398 13 C 358 0 315 -8 267 -8 C 195 -8 138 8 94 41 C 50 74 29 120 29 180 C 29 208 33 233 42 255 C 50 277 62 296 77 313 C 91 330 108 345 128 359 C 148 373 169 386 191 399 L 180 411 C 163 429 145 452 127 480 C 109 508 100 541 100 581 C 100 601 104 621 112 640 C 120 658 132 675 148 689 C 163 703 182 715 204 724 C 226 732 250 737 277 737 C 331 737 374 722 407 692 C 440 662 457 627 457 587 C 457 546 444 510 420 480 C 395 450 362 420 320 392 L 508 204 C 518 216 528 230 538 245 C 548 260 558 276 568 293 L 641 244 C 629 225 618 207 606 189 C 594 171 582 155 570 141 L 649 62 L 586 -5 Z M 249 463 L 267 445 C 301 466 326 486 343 506 C 359 526 368 547 368 570 C 368 592 360 613 345 631 C 330 649 308 658 280 658 C 253 658 232 648 217 630 C 201 612 194 592 194 572 C 194 552 199 533 209 515 C 219 497 232 479 249 463 Z M 131 188 C 131 152 145 124 174 104 C 203 83 238 73 278 73 C 310 73 339 78 367 89 C 395 100 421 116 446 138 L 245 345 C 211 323 183 300 162 277 C 141 253 131 224 131 188 Z" unicode="&#x26;" />
<glyph horiz-adv-x="195" d="M 141 618 L 136 478 L 58 478 L 54 618 L 54 730 L 141 730 L 141 618 Z" unicode="'" />
<glyph horiz-adv-x="305" d="M 286 -104 L 286 -180 C 251 -163 218 -140 186 -110 C 154 -80 127 -44 103 -4 C 79 35 59 81 45 131 C 31 181 24 235 24 293 C 24 348 30 400 44 449 C 58 497 76 541 100 580 C 124 618 152 652 184 681 C 216 710 250 733 286 749 L 286 675 C 236 644 197 596 167 531 C 137 466 122 387 122 293 C 122 207 135 129 163 59 C 190 -10 231 -64 286 -104 Z" unicode="(" />
<glyph horiz-adv-x="305" d="M 19 675 L 19 749 C 53 734 86 713 118 685 C 150 657 178 623 202 584 C 226 544 245 499 259 449 C 273 398 281 343 281 284 C 281 228 273 176 259 127 C 245 78 226 34 202 -5 C 178 -45 151 -79 119 -109 C 87 -139 53 -162 19 -180 L 19 -102 C 71 -65 111 -13 140 54 C 169 121 184 198 185 284 C 185 381 170 463 140 529 C 109 595 69 644 19 675 Z" unicode=")" />
<glyph horiz-adv-x="392" d="M 364 584 L 235 552 L 327 460 L 269 412 L 197 525 L 127 413 L 67 459 L 160 553 L 31 583 L 64 657 L 174 596 L 158 730 L 237 730 L 220 596 L 335 652 L 364 584 Z" unicode="*" />
<glyph horiz-adv-x="484" d="M 457 294 L 280 294 L 280 121 L 204 121 L 204 294 L 27 294 L 27 368 L 204 368 L 204 541 L 280 541 L 280 368 L 457 368 L 457 294 Z" unicode="+" />
<glyph horiz-adv-x="219" d="M 183 106 C 181 82 177 58 171 34 C 165 9 157 -14 147 -37 C 137 -59 127 -80 115 -99 C 103 -118 92 -134 80 -146 L 10 -115 C 17 -105 25 -93 33 -77 C 41 -61 49 -43 57 -23 C 64 -3 70 17 76 39 C 81 61 85 84 87 106 L 183 106 Z" unicode="," />
<glyph horiz-adv-x="325" d="M 288 224 L 38 224 L 38 308 L 288 308 L 288 224 Z" unicode="-" />
<glyph horiz-adv-x="220" d="M 158 0 L 62 0 L 62 127 L 158 127 L 158 0 Z" unicode="." />
<glyph horiz-adv-x="312" d="M 309 730 L 89 0 L 3 0 L 225 730 L 309 730 Z" unicode="/" />
<glyph horiz-adv-x="491" d="M 242 -9 C 180 -9 130 20 91 78 C 52 136 33 230 33 361 C 33 417 37 468 46 515 C 54 561 67 601 85 634 C 102 667 124 693 151 711 C 178 729 210 739 247 739 C 284 739 316 730 343 712 C 370 694 392 669 409 637 C 425 605 438 566 446 521 C 454 475 458 425 458 371 C 458 251 440 158 404 91 C 368 24 314 -9 242 -9 Z M 243 72 C 285 72 315 96 335 144 C 354 192 364 264 364 362 C 364 456 355 528 338 580 C 320 631 289 657 245 657 C 203 657 172 632 154 583 C 135 534 126 461 126 363 C 126 261 136 187 156 141 C 176 95 205 72 243 72 Z" unicode="0" />
<glyph horiz-adv-x="323" d="M 252 0 L 156 0 L 156 593 C 144 573 126 555 102 538 C 77 521 54 511 33 509 L 33 606 C 57 608 84 623 112 649 C 140 675 161 702 176 732 L 252 732 L 252 0 Z" unicode="1" />
<glyph horiz-adv-x="471" d="M 442 0 L 24 0 L 24 27 L 273 356 C 293 382 310 411 323 443 C 336 474 343 508 343 544 C 343 579 332 606 312 626 C 291 646 264 656 230 656 C 191 656 162 642 143 616 C 124 590 115 556 115 514 L 30 514 C 30 589 49 645 86 683 C 122 720 172 739 234 739 C 292 739 339 723 377 691 C 415 659 434 614 434 554 C 434 498 426 453 410 419 C 394 384 375 353 355 325 L 171 85 L 442 85 L 442 0 Z" unicode="2" />
<glyph horiz-adv-x="468" d="M 215 -9 C 161 -9 117 -1 83 14 C 49 30 22 47 3 67 L 48 137 C 63 121 84 107 110 93 C 136 79 168 72 206 72 C 254 72 291 86 317 116 C 343 146 356 182 356 224 C 356 246 352 265 344 282 C 336 298 326 312 313 323 C 300 333 285 341 268 347 C 251 353 233 356 215 356 L 122 356 L 122 437 L 213 437 C 247 437 275 447 298 468 C 321 489 333 517 333 551 C 333 580 323 605 304 626 C 285 646 258 657 222 657 C 188 657 159 650 136 636 C 112 622 93 603 77 581 L 21 640 C 38 665 64 688 99 708 C 133 728 178 739 232 739 C 290 739 336 723 370 693 C 404 663 422 621 422 569 C 422 523 409 485 384 456 C 359 426 332 408 302 400 C 320 396 337 389 355 379 C 372 369 387 357 401 342 C 414 327 425 309 433 288 C 441 267 445 244 445 219 C 445 191 440 164 432 137 C 423 109 409 85 391 63 C 372 41 348 24 319 11 C 289 -2 255 -9 215 -9 Z" unicode="3" />
<glyph horiz-adv-x="472" d="M 468 189 L 379 189 L 379 0 L 296 0 L 296 189 L 7 189 L 7 252 L 318 739 L 379 739 L 379 269 L 468 269 L 468 189 Z M 297 266 L 297 571 L 104 266 L 297 266 Z" unicode="4" />
<glyph horiz-adv-x="466" d="M 226 -9 C 179 -9 137 0 99 16 C 61 33 32 53 12 77 L 63 145 C 78 126 99 109 125 94 C 151 79 182 72 216 72 C 258 72 291 87 315 119 C 339 151 352 193 352 247 C 352 295 340 333 318 360 C 295 387 266 401 232 401 C 198 401 171 394 151 380 C 131 366 116 348 106 324 L 43 341 L 71 730 L 403 730 L 403 644 L 140 644 L 124 416 C 133 432 149 446 171 460 C 193 474 222 481 259 481 C 313 481 358 461 393 423 C 427 385 445 329 445 255 C 445 213 439 175 428 142 C 417 109 402 81 382 59 C 362 37 339 20 313 8 C 286 -3 257 -9 226 -9 Z" unicode="5" />
<glyph horiz-adv-x="468" d="M 244 -10 C 213 -10 184 -4 158 6 C 132 16 109 32 90 52 C 70 72 55 98 44 128 C 33 158 28 192 28 230 C 28 306 45 379 81 449 C 117 519 165 592 226 666 L 291 748 L 358 698 L 314 644 C 266 584 225 530 192 480 C 158 430 138 390 130 360 C 140 381 156 399 180 415 C 203 431 231 439 264 439 C 318 439 363 418 397 377 C 431 336 448 283 448 218 C 448 185 443 155 433 127 C 423 99 409 75 391 55 C 373 35 351 19 326 7 C 300 -4 273 -10 244 -10 Z M 242 71 C 277 71 305 84 326 110 C 346 136 357 171 357 215 C 357 261 347 296 327 322 C 307 347 279 360 243 360 C 210 360 182 348 158 324 C 134 300 122 265 122 220 C 122 172 133 135 156 109 C 178 83 207 71 242 71 Z" unicode="6" />
<glyph horiz-adv-x="403" d="M 404 730 L 407 689 L 121 -5 L 38 28 L 299 644 L 11 644 L 11 730 L 404 730 Z" unicode="7" />
<glyph horiz-adv-x="487" d="M 329 389 C 345 385 361 378 377 369 C 393 359 407 347 420 332 C 432 316 443 298 451 276 C 459 254 463 230 463 202 C 463 138 443 87 404 49 C 364 10 311 -9 244 -9 C 176 -9 123 9 84 47 C 45 85 26 135 26 197 C 26 226 30 252 39 275 C 47 298 58 318 72 334 C 85 350 99 362 115 371 C 131 380 146 386 160 389 C 146 393 133 399 119 407 C 105 415 93 426 82 440 C 71 454 62 470 55 489 C 48 508 45 530 45 556 C 45 584 50 610 60 633 C 70 655 85 674 103 690 C 121 706 142 718 166 726 C 190 734 215 739 243 739 C 303 739 351 722 387 689 C 423 656 442 614 442 562 C 442 537 438 515 432 496 C 425 476 416 459 406 445 C 395 431 383 419 369 410 C 355 400 342 393 329 389 Z M 244 421 C 276 421 303 431 325 451 C 346 471 357 501 357 539 C 357 577 346 606 325 627 C 303 648 276 659 244 659 C 211 659 184 648 162 628 C 140 607 129 578 129 540 C 129 498 141 467 165 449 C 189 430 215 421 244 421 Z M 245 70 C 283 70 313 81 336 105 C 359 129 371 164 371 211 C 371 255 358 288 334 310 C 309 332 279 343 245 343 C 209 343 178 332 153 310 C 128 288 116 253 116 207 C 116 163 128 130 153 106 C 178 82 209 70 245 70 Z" unicode="8" />
<glyph horiz-adv-x="468" d="M 188 -13 L 124 40 L 165 85 C 183 107 202 131 222 158 C 242 185 260 212 276 239 C 292 266 307 292 320 317 C 332 342 341 364 346 382 C 334 359 314 339 287 321 C 259 303 230 295 199 295 C 172 295 147 300 125 311 C 103 322 84 337 69 357 C 53 377 41 400 33 428 C 24 455 20 485 20 517 C 20 549 25 578 35 606 C 45 633 60 656 79 676 C 97 696 119 711 145 723 C 170 734 198 740 228 740 C 256 740 283 734 309 724 C 335 714 357 699 376 679 C 395 659 410 634 422 604 C 433 574 439 539 439 500 C 439 456 433 414 422 372 C 411 330 397 291 379 254 C 361 216 340 181 317 148 C 294 114 271 84 248 58 L 188 -13 Z M 224 374 C 254 374 282 385 308 409 C 333 432 346 466 346 512 C 346 561 334 598 311 622 C 288 646 260 658 228 658 C 192 658 163 645 142 620 C 121 594 111 560 111 518 C 111 472 120 436 140 411 C 160 386 188 374 224 374 Z" unicode="9" />
<glyph horiz-adv-x="219" d="M 157 365 L 62 365 L 62 488 L 157 488 L 157 365 Z M 157 0 L 62 0 L 62 124 L 157 124 L 157 0 Z" unicode=":" />
<glyph horiz-adv-x="219" d="M 163 365 L 69 365 L 69 488 L 163 488 L 163 365 Z M 167 100 C 165 76 161 52 155 28 C 149 4 141 -18 132 -40 C 122 -61 112 -81 101 -99 C 90 -117 79 -133 67 -145 L -4 -113 C 4 -103 12 -91 21 -75 C 29 -59 37 -42 45 -23 C 53 -4 59 15 65 37 C 70 58 73 79 74 100 L 167 100 Z" unicode=";" />
<glyph horiz-adv-x="380" d="M 334 99 L 36 293 L 36 357 L 334 550 L 334 462 L 128 326 L 334 189 L 334 99 Z" unicode="&#x3C;" />
<glyph horiz-adv-x="491" d="M 437 388 L 55 388 L 55 468 L 437 468 L 437 388 Z M 437 175 L 55 175 L 55 255 L 437 255 L 437 175 Z" unicode="=" />
<glyph horiz-adv-x="380" d="M 342 293 L 43 99 L 43 188 L 248 326 L 43 463 L 43 550 L 342 357 L 342 293 Z" unicode="&#x3E;" />
<glyph horiz-adv-x="441" d="M 159 203 C 159 245 164 281 175 310 C 185 339 203 367 228 395 C 248 415 267 438 287 463 C 306 488 316 519 316 555 C 316 587 305 612 284 630 C 263 648 237 658 206 658 C 178 658 153 650 131 636 C 109 622 90 604 76 584 L 19 641 C 43 673 72 698 108 716 C 144 733 182 742 222 742 C 281 742 328 726 362 694 C 396 662 414 620 414 567 C 414 541 410 518 403 498 C 396 477 387 458 376 441 C 365 424 353 408 340 394 C 326 379 313 365 301 351 C 280 331 266 308 260 281 C 253 253 249 227 249 203 L 159 203 Z M 154 0 L 154 113 L 257 113 L 257 0 L 154 0 Z" unicode="?" />
<glyph horiz-adv-x="832" d="M 411 -38 C 357 -38 307 -28 261 -8 C 215 12 175 39 142 73 C 109 107 83 147 65 193 C 47 239 38 289 38 341 C 38 393 47 443 66 489 C 84 535 110 576 143 610 C 176 644 216 670 263 690 C 309 710 360 720 415 720 C 471 720 523 711 570 694 C 617 677 657 653 690 623 C 722 593 748 556 766 513 C 784 470 793 423 793 373 C 793 329 788 291 778 260 C 768 229 755 204 739 184 C 723 164 706 150 686 141 C 666 132 647 128 629 128 C 598 128 573 135 555 149 C 536 163 524 180 520 202 C 511 186 493 169 465 153 C 437 136 404 128 366 128 C 318 128 281 140 255 164 C 229 188 217 220 217 259 C 217 303 235 337 272 362 C 308 387 355 400 412 400 L 507 400 L 507 412 C 507 444 498 467 480 480 C 462 492 439 499 409 499 C 384 499 361 496 340 490 C 319 484 301 478 287 472 L 261 534 C 279 543 302 551 329 557 C 355 563 383 567 411 567 C 466 567 508 553 538 526 C 568 499 583 456 583 398 L 583 249 C 583 234 587 221 595 209 C 603 197 617 191 637 191 C 647 191 657 193 668 198 C 678 203 688 212 697 225 C 705 238 713 256 719 279 C 725 302 728 332 728 368 C 728 410 720 448 706 484 C 691 520 670 550 644 576 C 617 602 584 622 546 637 C 507 651 464 659 416 659 C 370 659 327 650 289 634 C 250 618 217 595 190 567 C 162 538 141 504 126 466 C 110 427 103 386 103 342 C 103 298 110 257 126 218 C 141 179 162 145 190 116 C 217 87 250 64 288 47 C 326 30 367 22 413 22 C 433 22 454 24 476 28 C 498 32 520 40 544 51 L 568 -4 C 540 -16 514 -25 488 -30 C 462 -35 437 -38 411 -38 Z M 388 195 C 414 195 440 201 464 213 C 488 225 502 237 508 250 L 508 340 L 415 340 C 377 340 348 333 329 320 C 310 307 301 289 301 266 C 301 244 308 226 323 214 C 338 201 360 195 388 195 Z" unicode="@" />
<glyph horiz-adv-x="539" d="M 537 0 L 439 0 L 380 182 L 152 182 L 96 0 L 2 0 L 236 734 L 303 734 L 537 0 Z M 361 261 L 266 562 L 171 261 L 361 261 Z" unicode="A" />
<glyph horiz-adv-x="505" d="M 71 0 L 71 730 L 263 730 C 317 730 361 714 396 684 C 430 653 448 611 448 557 C 448 506 435 466 411 436 C 386 406 357 388 323 382 C 341 380 359 376 377 368 C 395 360 412 348 427 334 C 441 320 453 302 463 280 C 472 258 477 233 477 205 C 477 143 458 93 420 56 C 382 18 334 0 275 0 L 71 0 Z M 167 412 L 242 412 C 282 412 310 424 327 450 C 343 476 352 505 352 537 C 352 570 342 597 323 617 C 304 637 276 647 238 647 L 167 647 L 167 412 Z M 167 84 L 261 84 C 302 84 332 96 351 121 C 369 145 379 175 379 211 C 379 250 367 280 343 300 C 319 320 289 331 252 331 L 167 331 L 167 84 Z" unicode="B" />
<glyph horiz-adv-x="579" d="M 321 -9 C 281 -9 243 -1 209 15 C 175 31 145 54 120 86 C 94 117 74 156 60 203 C 46 250 39 304 39 366 C 39 423 45 475 58 521 C 71 567 90 607 114 639 C 138 671 168 695 203 713 C 238 730 278 739 322 739 C 384 739 433 725 469 699 C 504 673 531 640 550 600 L 468 555 C 454 581 435 603 413 621 C 391 639 361 648 323 648 C 265 648 220 624 188 578 C 155 532 139 460 139 363 C 139 312 144 269 155 233 C 165 197 179 167 197 145 C 215 123 235 106 258 96 C 281 86 305 81 329 81 C 369 81 401 90 425 109 C 449 128 469 153 485 184 L 561 142 C 540 96 510 60 470 32 C 430 4 380 -9 321 -9 Z" unicode="C" />
<glyph horiz-adv-x="609" d="M 71 0 L 71 730 L 253 730 C 303 730 348 721 388 704 C 427 686 460 662 487 631 C 514 599 535 561 549 517 C 563 472 570 423 570 369 C 570 317 563 268 549 223 C 535 178 515 139 488 106 C 461 73 427 47 386 28 C 344 9 296 0 242 0 L 71 0 Z M 171 85 L 242 85 C 282 85 316 91 345 105 C 373 119 397 138 415 163 C 433 187 446 217 455 252 C 463 287 468 325 468 367 C 468 457 449 526 411 573 C 373 620 320 644 253 644 L 171 644 L 171 85 Z" unicode="D" />
<glyph horiz-adv-x="457" d="M 432 0 L 71 0 L 71 730 L 414 730 L 414 641 L 169 641 L 169 408 L 403 408 L 403 320 L 169 320 L 169 89 L 432 89 L 432 0 Z" unicode="E" />
<glyph horiz-adv-x="410" d="M 392 641 L 172 641 L 172 409 L 379 409 L 379 322 L 172 322 L 172 0 L 72 0 L 72 730 L 392 730 L 392 641 Z" unicode="F" />
<glyph horiz-adv-x="616" d="M 327 365 L 579 365 L 579 129 C 557 87 525 54 482 29 C 439 3 387 -9 326 -9 C 286 -9 248 0 213 17 C 178 34 148 59 122 91 C 96 123 75 162 60 208 C 45 254 38 307 38 365 C 38 421 45 473 59 519 C 73 565 93 605 119 637 C 145 669 175 694 211 712 C 247 729 286 738 328 738 C 390 738 438 725 473 700 C 507 675 533 646 551 614 L 474 562 C 460 585 441 605 419 622 C 396 639 366 648 328 648 C 272 648 227 624 192 577 C 156 529 139 458 139 364 C 139 317 143 275 153 239 C 163 203 176 173 193 149 C 210 125 230 106 254 94 C 277 81 302 75 329 75 C 367 75 399 81 427 95 C 454 109 475 129 490 155 L 490 279 L 327 279 L 327 365 Z" unicode="G" />
<glyph horiz-adv-x="611" d="M 540 0 L 440 0 L 440 316 L 171 316 L 171 0 L 71 0 L 71 730 L 171 730 L 171 405 L 440 405 L 440 730 L 540 730 L 540 0 Z" unicode="H" />
<glyph horiz-adv-x="251" d="M 176 0 L 76 0 L 76 730 L 176 730 L 176 0 Z" unicode="I" />
<glyph horiz-adv-x="328" d="M 263 730 L 263 186 C 263 158 259 133 251 109 C 243 85 231 64 216 47 C 200 29 181 16 159 6 C 137 -4 111 -9 83 -9 C 69 -9 54 -8 38 -6 C 22 -4 9 0 1 4 L 14 90 C 19 87 27 85 38 83 C 48 81 59 81 69 81 C 99 81 123 92 140 115 C 156 137 165 165 165 198 L 165 730 L 263 730 Z" unicode="J" />
<glyph horiz-adv-x="557" d="M 560 0 L 444 0 L 225 325 L 172 259 L 172 0 L 71 0 L 71 730 L 172 730 L 172 382 L 425 730 L 534 730 L 291 400 L 560 0 Z" unicode="K" />
<glyph horiz-adv-x="411" d="M 404 0 L 71 0 L 71 730 L 171 730 L 171 89 L 404 89 L 404 0 Z" unicode="L" />
<glyph horiz-adv-x="735" d="M 664 0 L 569 0 L 569 519 L 390 165 L 347 165 L 165 518 L 165 0 L 71 0 L 71 730 L 152 730 L 370 306 L 587 730 L 664 730 L 664 0 Z" unicode="M" />
<glyph horiz-adv-x="618" d="M 546 0 L 476 0 L 165 515 L 165 0 L 71 0 L 71 730 L 144 730 L 455 216 L 455 730 L 546 730 L 546 0 Z" unicode="N" />
<glyph horiz-adv-x="661" d="M 333 -9 C 242 -9 170 24 117 92 C 64 159 38 252 38 371 C 38 427 45 477 59 523 C 73 568 92 607 118 639 C 143 671 173 695 209 713 C 245 730 284 739 327 739 C 418 739 490 706 543 640 C 596 574 623 482 623 366 C 623 308 615 256 601 210 C 586 163 566 123 540 91 C 514 59 484 34 448 17 C 412 0 374 -9 333 -9 Z M 333 77 C 389 77 434 101 469 150 C 503 199 521 272 521 370 C 521 460 503 530 467 579 C 431 627 385 652 327 652 C 269 652 224 628 191 581 C 157 533 141 462 141 366 C 141 268 159 196 195 148 C 231 100 277 77 333 77 Z" unicode="O" />
<glyph horiz-adv-x="496" d="M 71 0 L 71 730 L 275 730 C 303 730 330 725 354 716 C 378 706 400 693 418 675 C 436 657 450 635 460 609 C 470 583 476 553 476 520 C 476 454 457 400 420 360 C 382 319 335 299 277 299 L 171 299 L 171 0 L 71 0 Z M 171 384 L 254 384 C 293 384 323 395 345 419 C 366 442 377 476 377 520 C 377 562 364 593 340 614 C 315 634 285 645 250 645 L 171 645 L 171 384 Z" unicode="P" />
<glyph horiz-adv-x="659" d="M 573 -72 L 573 -165 C 521 -159 474 -141 431 -111 C 387 -80 354 -45 332 -6 C 242 -5 170 28 117 94 C 64 160 38 253 38 371 C 38 426 45 476 59 522 C 73 568 93 606 119 638 C 144 670 174 694 210 712 C 246 730 285 739 327 739 C 417 739 489 706 543 640 C 596 574 623 482 623 365 C 623 275 605 200 569 138 C 533 76 487 33 429 11 C 446 -11 468 -30 495 -45 C 522 -60 548 -69 573 -72 Z M 332 75 C 388 75 433 100 468 150 C 503 200 521 273 521 369 C 521 417 516 458 506 494 C 496 530 482 559 465 583 C 447 606 427 623 403 635 C 379 647 354 653 327 653 C 269 653 224 629 190 582 C 156 535 140 463 140 366 C 140 269 158 196 194 148 C 230 99 276 75 332 75 Z" unicode="Q" />
<glyph horiz-adv-x="514" d="M 71 0 L 71 730 L 251 730 C 307 730 353 713 391 680 C 428 646 447 597 447 532 C 447 474 433 428 407 393 C 380 357 348 337 310 332 L 308 328 L 504 0 L 396 0 L 216 307 L 166 307 L 166 0 L 71 0 Z M 166 391 L 235 391 C 269 391 296 402 318 424 C 340 446 351 478 351 519 C 351 561 340 592 318 613 C 296 634 268 645 236 645 L 166 645 L 166 391 Z" unicode="R" />
<glyph horiz-adv-x="458" d="M 232 -9 C 188 -9 148 -1 114 12 C 79 26 49 49 23 81 L 82 148 C 98 124 120 105 147 92 C 173 78 200 72 228 72 C 256 72 281 81 303 101 C 324 120 335 146 335 179 C 335 211 325 239 307 261 C 289 283 256 307 208 335 C 155 363 114 394 86 426 C 57 458 43 504 43 562 C 43 615 61 658 97 690 C 133 722 179 739 233 739 C 274 739 309 732 338 718 C 367 704 391 689 410 671 L 355 601 C 340 615 322 627 301 637 C 280 646 258 651 234 651 C 207 651 184 642 165 626 C 146 609 137 586 137 557 C 137 527 145 503 163 484 C 181 464 216 441 268 413 C 326 381 368 348 392 313 C 416 278 429 235 429 184 C 429 153 423 125 412 101 C 401 77 387 57 369 41 C 351 25 330 12 306 4 C 282 -4 257 -9 232 -9 Z" unicode="S" />
<glyph horiz-adv-x="432" d="M 424 641 L 265 641 L 265 0 L 165 0 L 165 641 L 8 641 L 8 730 L 424 730 L 424 641 Z" unicode="T" />
<glyph horiz-adv-x="607" d="M 540 730 L 540 234 C 540 192 533 156 520 126 C 507 95 490 70 468 50 C 446 30 420 15 391 5 C 362 -4 331 -9 299 -9 C 267 -9 238 -4 210 5 C 182 14 157 28 136 48 C 115 68 98 93 86 124 C 73 154 67 191 67 234 L 67 730 L 165 730 L 165 232 C 165 180 178 141 204 116 C 230 91 263 79 301 79 C 339 79 371 91 398 115 C 425 139 439 178 439 232 L 439 730 L 540 730 Z" unicode="U" />
<glyph horiz-adv-x="529" d="M 527 730 L 296 -5 L 227 -5 L 2 730 L 101 730 L 265 179 L 430 730 L 527 730 Z" unicode="V" />
<glyph horiz-adv-x="769" d="M 753 730 L 578 -4 L 514 -4 L 380 537 L 242 -4 L 178 -4 L 6 730 L 102 730 L 220 196 L 350 730 L 418 730 L 547 195 L 665 730 L 753 730 Z" unicode="W" />
<glyph horiz-adv-x="502" d="M 390 0 L 248 282 L 105 0 L 8 0 L 200 378 L 23 730 L 126 730 L 252 480 L 379 730 L 476 730 L 300 384 L 493 0 L 390 0 Z" unicode="X" />
<glyph horiz-adv-x="526" d="M 528 730 L 311 312 L 311 0 L 211 0 L 211 314 L -2 730 L 109 730 L 266 412 L 428 730 L 528 730 Z" unicode="Y" />
<glyph horiz-adv-x="477" d="M 447 730 L 447 682 L 142 88 L 459 88 L 459 0 L 16 0 L 16 46 L 321 641 L 45 641 L 45 730 L 447 730 Z" unicode="Z" />
<glyph horiz-adv-x="256" d="M 229 -179 L 60 -179 L 60 730 L 229 730 L 229 653 L 148 653 L 148 -100 L 229 -100 L 229 -179 Z" unicode="[" />
<glyph horiz-adv-x="312" d="M 3 730 L 86 730 L 309 0 L 224 0 L 3 730 Z" unicode="\" />
<glyph horiz-adv-x="255" d="M 197 -179 L 29 -179 L 29 -102 L 109 -102 L 109 653 L 29 653 L 29 730 L 197 730 L 197 -179 Z" unicode="]" />
<glyph horiz-adv-x="458" d="M 420 369 L 339 369 L 227 634 L 119 369 L 39 369 L 188 730 L 267 730 L 420 369 Z" unicode="^" />
<glyph horiz-adv-x="450" d="M 450 -159 L 0 -159 L 0 -82 L 450 -82 L 450 -159 Z" unicode="_" />
<glyph horiz-adv-x="500" d="M 345 548 L 255 548 L 146 717 L 253 717 L 345 548 Z" unicode="`" />
<glyph horiz-adv-x="427" d="M 379 0 L 296 0 L 296 55 C 281 36 263 21 241 10 C 219 -1 192 -7 160 -7 C 118 -7 85 6 60 33 C 35 60 23 97 23 144 C 23 197 40 237 74 263 C 108 289 151 303 203 306 L 291 312 L 291 338 C 291 366 283 386 268 400 C 252 413 230 420 202 420 C 176 420 154 415 134 407 C 114 398 97 389 85 379 L 55 447 C 71 460 93 472 121 482 C 148 492 181 498 220 498 C 266 498 304 485 334 461 C 364 436 379 399 379 349 L 379 0 Z M 293 115 L 293 245 L 215 240 C 186 238 162 230 142 215 C 122 199 112 176 112 146 C 112 119 120 99 136 86 C 152 73 170 67 192 67 C 214 67 234 71 252 81 C 270 91 283 102 293 115 Z" unicode="a" />
<glyph horiz-adv-x="472" d="M 273 -5 C 237 -5 208 3 185 20 C 162 36 146 57 137 81 L 137 0 L 52 0 L 52 785 L 139 785 L 139 394 C 147 420 163 443 186 464 C 209 484 240 495 278 495 C 329 495 370 472 400 428 C 430 384 446 326 446 256 C 446 174 429 110 396 64 C 362 18 321 -5 273 -5 Z M 243 68 C 275 68 301 83 321 114 C 340 144 350 188 350 246 C 350 300 340 341 322 371 C 303 401 277 416 243 416 C 214 416 189 402 169 375 C 148 347 138 301 138 236 C 138 172 148 128 170 104 C 191 80 215 68 243 68 Z" unicode="b" />
<glyph horiz-adv-x="407" d="M 336 133 L 395 84 C 382 62 363 42 338 22 C 313 2 278 -7 232 -7 C 200 -7 171 0 145 11 C 119 23 98 41 80 63 C 62 85 49 111 40 142 C 30 173 26 207 26 243 C 26 277 30 310 40 341 C 50 371 63 398 81 421 C 99 443 120 461 146 475 C 172 488 201 495 234 495 C 278 495 313 485 340 465 C 366 445 385 423 397 400 L 329 352 C 320 368 308 383 293 396 C 277 408 257 415 233 415 C 199 415 171 399 151 367 C 131 335 121 295 121 246 C 121 189 132 146 155 116 C 177 86 206 71 240 71 C 266 71 287 78 301 92 C 315 106 327 119 336 133 Z" unicode="c" />
<glyph horiz-adv-x="480" d="M 207 -6 C 179 -6 154 0 132 12 C 110 24 91 41 75 63 C 59 85 47 111 39 141 C 30 171 26 203 26 239 C 26 315 43 377 79 424 C 114 470 158 494 210 494 C 243 494 271 484 294 466 C 317 447 333 425 341 400 L 341 785 L 428 785 L 428 0 L 345 0 L 345 83 C 338 62 323 42 300 23 C 277 3 246 -6 207 -6 Z M 233 68 C 265 68 292 83 312 114 C 332 145 343 190 343 248 C 343 306 332 348 310 375 C 288 402 261 416 231 416 C 197 416 171 401 151 372 C 131 342 122 300 122 244 C 122 190 131 147 151 115 C 170 83 197 68 233 68 Z" unicode="d" />
<glyph horiz-adv-x="446" d="M 233 -7 C 171 -7 121 15 83 59 C 45 103 26 164 26 242 C 26 280 31 314 41 345 C 51 376 66 403 84 425 C 102 447 123 465 147 477 C 171 489 198 495 227 495 C 289 495 337 471 372 423 C 406 375 424 307 424 219 L 117 219 C 117 172 128 135 150 109 C 172 83 201 70 239 70 C 270 70 295 76 313 89 C 331 101 347 115 360 130 L 409 78 C 392 57 370 38 343 20 C 316 2 279 -7 233 -7 Z M 118 286 L 334 286 C 333 326 323 359 305 383 C 286 407 261 420 229 420 C 197 420 171 407 151 383 C 131 358 120 326 118 286 Z" unicode="e" />
<glyph horiz-adv-x="257" d="M 250 408 L 169 408 L 169 0 L 77 0 L 77 408 L 14 408 L 14 488 L 77 488 L 77 648 C 77 670 80 690 88 708 C 95 725 105 739 117 751 C 129 763 142 772 158 778 C 173 784 189 788 205 788 C 218 788 231 786 245 783 C 258 779 269 775 278 770 L 257 694 C 253 695 248 697 242 699 C 235 701 227 702 219 702 C 204 702 192 696 182 684 C 172 672 168 654 168 630 L 168 488 L 250 488 L 250 408 Z" unicode="f" />
<glyph horiz-adv-x="478" d="M 208 4 C 154 4 111 26 77 70 C 43 114 27 172 27 246 C 27 322 44 383 79 428 C 114 472 157 495 209 495 C 242 495 270 485 294 467 C 318 449 334 428 343 404 L 343 488 L 427 488 L 427 24 C 427 -14 421 -46 409 -74 C 397 -102 381 -125 361 -143 C 341 -161 319 -175 293 -184 C 267 -192 241 -197 215 -197 C 176 -197 145 -193 121 -185 C 97 -177 79 -170 67 -162 L 97 -91 C 109 -97 124 -103 142 -109 C 160 -115 183 -118 210 -118 C 246 -118 276 -106 301 -82 C 326 -58 339 -23 339 23 L 339 98 C 331 74 315 53 293 33 C 270 13 242 4 208 4 Z M 233 76 C 263 76 289 90 310 119 C 331 147 342 191 342 251 C 342 307 330 348 308 376 C 286 403 260 417 231 417 C 198 417 172 402 152 372 C 132 342 122 301 122 247 C 122 193 131 151 150 121 C 169 91 197 76 233 76 Z" unicode="g" />
<glyph horiz-adv-x="462" d="M 413 0 L 321 0 L 321 336 C 321 362 313 382 298 396 C 283 410 263 417 239 417 C 214 417 192 409 173 393 C 153 377 144 352 144 316 L 144 0 L 52 0 L 52 785 L 138 785 L 138 413 C 145 436 160 456 183 472 C 205 488 235 496 272 496 C 312 496 346 485 373 463 C 399 441 413 407 413 361 L 413 0 Z" unicode="h" />
<glyph horiz-adv-x="202" d="M 53 580 L 53 674 L 149 674 L 149 580 L 53 580 Z M 55 0 L 55 488 L 147 488 L 147 0 L 55 0 Z" unicode="i" />
<glyph horiz-adv-x="208" d="M 158 580 L 63 580 L 63 674 L 158 674 L 158 580 Z M 156 488 L 156 -67 C 156 -103 145 -132 124 -155 C 102 -177 75 -188 41 -188 C 25 -188 10 -186 -4 -182 C -18 -178 -29 -174 -36 -170 L -14 -102 C -10 -104 -4 -105 2 -107 C 8 -108 16 -109 24 -109 C 35 -109 45 -104 53 -95 C 61 -85 65 -72 65 -56 L 65 488 L 156 488 Z" unicode="j" />
<glyph horiz-adv-x="425" d="M 437 1 L 336 0 L 207 208 L 143 127 L 143 0 L 52 0 L 52 785 L 140 785 L 140 233 L 318 488 L 415 488 L 267 279 L 437 1 Z" unicode="k" />
<glyph horiz-adv-x="196" d="M 144 788 L 144 0 L 52 0 L 52 788 L 144 788 Z" unicode="l" />
<glyph horiz-adv-x="725" d="M 52 0 L 52 488 L 134 488 L 134 409 C 142 437 159 458 185 473 C 211 488 241 496 275 496 C 309 496 337 488 359 472 C 381 456 394 435 399 407 L 402 407 C 410 433 426 455 450 471 C 474 487 503 496 539 496 C 579 496 611 485 637 463 C 662 441 675 409 675 365 L 675 0 L 584 0 L 584 329 C 584 360 576 383 561 397 C 545 411 525 418 501 418 C 478 418 457 410 438 394 C 418 378 409 350 409 312 L 409 0 L 318 0 L 318 332 C 318 363 310 385 295 398 C 279 411 260 418 237 418 C 213 418 192 409 172 393 C 152 376 143 349 143 311 L 143 0 L 52 0 Z" unicode="m" />
<glyph horiz-adv-x="462" d="M 413 0 L 321 0 L 321 340 C 321 364 313 383 299 397 C 284 410 264 417 240 417 C 215 417 193 409 173 394 C 153 378 144 352 144 315 L 144 0 L 52 0 L 52 488 L 135 488 L 135 410 C 143 434 160 455 184 471 C 208 487 238 496 274 496 C 314 496 347 485 373 463 C 399 441 413 410 413 368 L 413 0 Z" unicode="n" />
<glyph horiz-adv-x="464" d="M 231 -7 C 202 -7 175 -1 150 9 C 125 20 103 36 85 57 C 67 78 52 104 42 135 C 31 166 26 202 26 242 C 26 279 31 313 41 345 C 51 376 65 403 83 425 C 101 447 122 465 147 477 C 171 489 198 496 227 496 C 288 496 338 474 378 431 C 418 388 438 330 438 256 C 438 216 433 180 423 148 C 413 116 398 88 380 65 C 362 42 340 24 315 12 C 289 0 261 -7 231 -7 Z M 232 71 C 266 71 292 86 312 116 C 332 146 342 190 342 248 C 342 304 332 346 312 374 C 292 402 264 417 228 417 C 196 417 170 402 151 373 C 131 344 122 301 122 245 C 122 184 132 140 153 112 C 173 84 200 71 232 71 Z" unicode="o" />
<glyph horiz-adv-x="472" d="M 52 -199 L 52 488 L 134 488 L 134 389 C 141 416 157 440 182 462 C 207 484 239 495 277 495 C 330 495 371 473 401 429 C 431 385 446 328 446 258 C 446 175 429 110 395 64 C 361 18 320 -5 270 -5 C 237 -5 209 2 187 17 C 164 32 148 50 140 71 L 140 -199 L 52 -199 Z M 243 68 C 275 68 300 82 320 112 C 340 141 350 184 350 242 C 350 294 341 337 324 369 C 306 401 280 417 244 417 C 215 417 190 403 169 377 C 147 350 137 303 137 236 C 137 172 147 128 168 104 C 188 80 213 68 243 68 Z" unicode="p" />
<glyph horiz-adv-x="480" d="M 340 -199 L 340 87 C 331 63 315 42 292 23 C 268 3 239 -6 203 -6 C 176 -6 152 0 130 12 C 108 24 89 41 74 63 C 58 84 46 110 38 140 C 30 170 26 203 26 239 C 26 279 30 315 40 347 C 49 379 62 405 78 427 C 94 449 114 465 136 477 C 158 489 182 495 208 495 C 244 495 273 485 297 465 C 321 445 337 422 346 397 L 346 488 L 428 488 L 428 -199 L 340 -199 Z M 232 68 C 263 68 289 82 310 112 C 331 141 342 186 342 246 C 342 303 331 346 310 374 C 288 402 262 416 230 416 C 197 416 171 401 151 371 C 131 341 122 298 122 242 C 122 191 131 149 151 117 C 170 84 197 68 232 68 Z" unicode="q" />
<glyph horiz-adv-x="340" d="M 344 465 L 310 387 C 299 397 288 403 277 407 C 265 411 253 413 240 413 C 229 413 218 411 207 407 C 195 403 185 396 176 387 C 166 377 159 365 153 350 C 147 334 144 316 144 295 L 144 0 L 52 0 L 52 488 L 140 488 L 140 404 C 146 426 160 447 181 466 C 202 485 228 495 258 495 C 277 495 294 492 309 486 C 323 480 335 473 344 465 Z" unicode="r" />
<glyph horiz-adv-x="354" d="M 187 -7 C 151 -7 118 -1 90 11 C 61 23 38 39 21 59 L 67 122 C 81 105 98 92 118 83 C 138 73 159 69 180 69 C 198 69 213 74 227 85 C 241 95 248 111 248 131 C 248 149 240 165 225 178 C 209 190 185 204 152 220 C 114 236 85 256 65 278 C 45 300 36 331 36 369 C 36 405 49 435 77 459 C 105 483 139 495 179 495 C 211 495 239 490 263 481 C 286 471 305 460 320 448 L 279 381 C 268 389 254 398 238 406 C 221 414 203 418 185 418 C 167 418 151 413 138 405 C 124 396 118 384 118 368 C 118 352 124 339 136 329 C 148 319 172 305 208 289 C 250 268 280 246 300 224 C 320 201 330 170 330 131 C 330 108 325 88 317 71 C 309 54 298 40 285 28 C 271 16 256 8 239 2 C 221 -4 204 -7 187 -7 Z" unicode="s" />
<glyph horiz-adv-x="254" d="M 235 87 L 249 14 C 243 9 234 5 222 1 C 210 -3 195 -5 177 -5 C 163 -5 150 -2 136 2 C 122 6 110 13 99 23 C 88 33 79 46 72 62 C 65 78 62 97 62 120 L 62 408 L 10 408 L 10 488 L 64 488 L 64 613 L 152 624 L 152 488 L 235 488 L 235 408 L 154 408 L 154 126 C 154 110 158 98 166 90 C 174 82 184 78 198 78 C 204 78 211 79 219 81 C 226 83 231 85 235 87 Z" unicode="t" />
<glyph horiz-adv-x="462" d="M 49 488 L 141 488 L 141 157 C 141 126 148 103 164 89 C 180 74 200 67 226 67 C 250 67 272 75 291 92 C 309 109 319 137 319 175 L 319 488 L 410 488 L 410 0 L 325 0 L 325 74 C 316 51 300 32 276 16 C 252 0 223 -7 189 -7 C 151 -7 118 4 90 27 C 62 50 49 85 49 133 L 49 488 Z" unicode="u" />
<glyph horiz-adv-x="394" d="M 398 488 L 231 -2 L 162 -2 L -4 488 L 93 488 L 200 152 L 308 488 L 398 488 Z" unicode="v" />
<glyph horiz-adv-x="602" d="M 395 -2 L 303 292 L 207 -2 L 141 -2 L 2 488 L 91 488 L 184 140 L 274 429 L 338 429 L 423 142 L 518 488 L 600 488 L 460 -2 L 395 -2 Z" unicode="w" />
<glyph horiz-adv-x="381" d="M 281 0 L 188 169 L 92 0 L 3 0 L 143 249 L 11 488 L 108 488 L 192 336 L 277 488 L 368 488 L 237 256 L 378 0 L 281 0 Z" unicode="x" />
<glyph horiz-adv-x="397" d="M 400 488 L 197 -96 C 183 -132 164 -159 139 -175 C 114 -191 88 -200 62 -200 C 43 -200 27 -198 14 -194 C 1 -190 -7 -186 -13 -183 L 18 -108 C 20 -110 26 -112 35 -115 C 44 -117 53 -119 62 -119 C 74 -119 86 -114 97 -104 C 108 -94 118 -79 126 -58 L 156 38 L -4 488 L 93 488 L 203 157 L 310 488 L 400 488 Z" unicode="y" />
<glyph horiz-adv-x="360" d="M 340 488 L 340 446 L 135 80 L 349 80 L 349 0 L 12 0 L 12 35 L 223 408 L 25 408 L 25 488 L 340 488 Z" unicode="z" />
<glyph horiz-adv-x="270" d="M 250 -179 C 221 -178 194 -174 169 -166 C 144 -158 122 -147 104 -133 C 85 -119 70 -103 60 -85 C 49 -67 44 -47 44 -26 C 44 0 46 22 52 43 C 58 64 64 82 71 98 C 78 114 85 130 92 144 C 98 158 102 172 102 185 C 102 201 93 216 77 230 C 60 244 40 251 17 251 L 17 320 C 40 320 60 327 78 342 C 95 357 104 374 105 393 C 105 397 101 407 94 423 C 87 438 79 455 71 474 C 62 492 55 511 51 529 C 47 547 45 564 45 582 C 45 602 50 623 61 643 C 71 663 86 680 104 696 C 122 711 143 723 169 733 C 194 743 221 748 250 749 L 250 682 C 220 681 195 670 173 650 C 151 629 139 604 139 576 C 139 566 140 554 143 541 C 146 527 151 513 158 499 C 167 479 176 460 184 444 C 192 427 196 412 196 400 C 196 373 188 349 172 328 C 156 307 131 293 99 285 C 132 277 156 262 172 241 C 188 219 196 197 196 175 C 196 156 192 139 185 125 C 177 111 170 97 163 83 C 155 68 149 53 145 37 C 141 21 139 7 139 -6 C 139 -18 141 -30 147 -42 C 153 -54 160 -66 170 -76 C 180 -86 191 -94 205 -101 C 219 -107 234 -111 250 -111 L 250 -179 Z" unicode="{" />
<glyph horiz-adv-x="238" d="M 163 -179 L 75 -179 L 75 730 L 163 730 L 163 -179 Z" unicode="|" />
<glyph horiz-adv-x="270" d="M 20 -179 L 20 -111 C 36 -111 50 -107 64 -101 C 78 -94 89 -86 99 -76 C 109 -66 117 -54 123 -42 C 129 -30 132 -18 132 -6 C 132 7 129 21 125 37 C 121 53 115 68 108 83 C 100 97 92 111 85 125 C 77 139 74 156 74 175 C 74 198 82 220 98 241 C 113 262 137 277 169 285 C 137 293 114 307 98 328 C 82 349 74 373 74 400 C 74 412 78 427 86 444 C 94 460 103 479 113 499 C 119 513 124 527 127 541 C 129 554 131 566 131 576 C 131 604 119 629 97 650 C 75 670 49 681 20 682 L 20 749 C 48 748 75 743 101 733 C 126 723 148 711 166 696 C 184 680 199 663 210 643 C 220 623 226 602 226 582 C 226 564 223 547 219 529 C 214 511 207 492 199 474 C 190 455 182 438 176 423 C 169 407 166 397 166 393 C 166 374 174 357 192 342 C 209 327 230 320 254 320 L 254 251 C 230 251 209 244 193 230 C 177 216 168 201 168 185 C 168 172 171 158 178 144 C 184 130 191 114 199 98 C 205 82 212 64 218 43 C 224 22 227 0 227 -26 C 227 -47 221 -67 210 -85 C 199 -103 184 -119 166 -133 C 147 -147 125 -158 100 -166 C 75 -174 48 -178 20 -179 Z" unicode="}" />
<glyph horiz-adv-x="467" d="M 364 442 L 438 442 C 437 390 429 349 413 320 C 397 290 371 276 336 276 C 312 276 292 280 275 290 C 258 300 243 311 231 323 C 217 335 205 345 193 354 C 181 362 169 367 155 367 C 141 367 129 359 118 343 C 107 327 102 305 102 279 L 29 279 C 29 332 38 373 57 402 C 75 430 101 445 134 445 C 158 445 180 439 198 429 C 216 418 232 406 247 394 C 259 384 271 374 282 366 C 292 357 305 353 320 353 C 338 353 349 360 355 375 C 361 389 364 412 364 442 Z" unicode="~" />
<glyph horiz-adv-x="273" d="M 89 600 L 184 600 L 184 493 L 89 493 L 89 600 Z M 84 175 L 116 401 L 159 401 L 189 175 L 189 -116 L 84 -116 L 84 175 Z" unicode="¡" />
<glyph horiz-adv-x="424" d="M 411 164 C 397 147 380 130 360 113 C 339 96 309 86 270 82 L 270 -27 L 209 -27 L 209 83 C 153 90 109 115 77 158 C 45 201 30 255 30 319 C 30 349 34 378 42 405 C 50 432 61 456 77 477 C 92 498 111 516 133 530 C 155 544 181 554 209 558 L 209 665 L 270 665 L 270 560 C 306 556 336 545 360 528 C 384 511 401 493 413 474 L 361 421 C 351 434 339 446 325 458 C 311 470 292 477 270 480 L 270 159 C 296 161 316 168 331 181 C 345 193 357 206 366 218 L 411 164 Z M 124 322 C 124 282 131 248 147 221 C 162 194 183 176 209 166 L 209 474 C 181 464 160 446 146 419 C 131 391 124 359 124 322 Z" unicode="¢" />
<glyph horiz-adv-x="509" d="M 495 78 L 495 0 L 19 0 L 19 64 C 23 66 31 69 43 72 C 54 74 69 77 88 81 C 113 85 136 97 157 115 C 177 133 188 158 188 192 C 188 194 187 197 187 201 C 187 205 186 208 186 212 L 33 212 L 33 282 L 156 282 C 150 292 144 302 138 313 C 132 324 126 335 120 347 L 33 347 L 33 417 L 89 417 C 82 435 76 455 72 477 C 67 498 65 520 65 544 C 65 581 71 612 83 638 C 95 663 112 683 132 699 C 152 714 176 725 203 732 C 229 738 257 742 286 742 C 329 742 370 733 409 716 C 447 698 475 682 492 666 L 445 592 C 431 604 410 618 382 634 C 354 649 324 657 292 657 C 276 657 260 654 245 650 C 229 646 216 639 204 629 C 192 619 182 605 175 589 C 167 572 164 551 164 527 C 164 508 166 489 171 471 C 176 452 183 434 191 417 L 434 417 L 434 347 L 225 347 C 230 336 235 325 241 314 C 247 303 252 292 256 282 L 434 282 L 434 212 L 272 212 C 272 190 268 172 262 156 C 256 140 248 127 240 117 C 231 107 222 98 212 92 C 202 86 193 81 185 78 L 495 78 Z" unicode="£" />
<glyph horiz-adv-x="502" d="M 444 189 L 401 146 L 341 208 C 327 200 313 194 298 190 C 282 186 266 184 250 184 C 233 184 217 186 202 190 C 186 194 172 200 159 208 L 99 146 L 54 191 L 110 250 C 98 264 89 280 83 298 C 76 316 73 334 73 354 C 73 374 76 392 83 410 C 89 428 99 444 111 459 L 54 518 L 97 562 L 158 499 C 171 507 185 513 201 517 C 217 521 233 524 250 524 C 267 524 284 521 300 517 C 316 513 330 506 344 498 L 406 563 L 449 518 L 390 457 C 401 442 410 426 416 409 C 422 391 426 373 426 354 C 426 334 422 315 416 297 C 409 279 400 262 388 248 L 444 189 Z M 250 252 C 279 252 304 262 326 282 C 347 302 358 326 358 354 C 358 381 347 405 326 425 C 304 445 279 456 250 456 C 220 456 194 445 173 425 C 152 405 142 381 142 354 C 142 326 152 302 173 282 C 194 262 220 252 250 252 Z" unicode="¤" />
<glyph horiz-adv-x="527" d="M 474 137 L 311 137 L 311 0 L 211 0 L 211 137 L 52 137 L 52 207 L 211 207 L 211 261 L 52 261 L 52 332 L 210 332 L 14 730 L 119 730 L 264 422 L 413 730 L 512 730 L 313 332 L 473 332 L 473 261 L 311 261 L 311 207 L 474 207 L 474 137 Z" unicode="¥" />
<glyph horiz-adv-x="265" d="M 93 351 L 93 730 L 172 730 L 172 351 L 93 351 Z M 172 200 L 172 -179 L 93 -179 L 93 200 L 172 200 Z" unicode="¦" />
<glyph horiz-adv-x="581" d="M 308 -181 C 256 -181 208 -174 164 -160 C 119 -146 81 -128 50 -106 L 85 -29 C 113 -50 147 -68 186 -82 C 225 -96 262 -104 297 -104 C 329 -104 356 -95 376 -79 C 396 -62 407 -38 407 -8 C 407 19 398 40 382 54 C 366 68 343 82 315 96 L 206 148 C 178 160 153 172 132 183 C 110 194 93 206 79 219 C 65 232 55 247 48 264 C 41 280 38 301 38 326 C 38 356 45 382 59 402 C 73 422 91 439 111 453 C 93 464 80 480 72 500 C 63 520 59 544 59 574 C 59 600 64 624 76 645 C 87 666 103 684 123 698 C 143 712 166 722 194 730 C 221 738 250 742 282 742 C 338 742 383 733 419 717 C 454 700 483 682 507 663 L 464 592 C 437 612 409 630 381 646 C 353 661 319 669 280 669 C 244 669 215 660 191 643 C 167 626 156 603 156 574 C 156 553 162 536 176 522 C 190 508 211 494 239 482 L 380 417 C 431 396 470 373 497 349 C 523 325 537 291 537 247 C 537 214 526 187 504 166 C 482 145 457 132 431 128 C 438 123 446 117 455 109 C 464 101 472 91 480 80 C 488 69 494 56 500 42 C 505 27 508 11 508 -7 C 508 -34 502 -58 492 -80 C 482 -102 468 -120 450 -135 C 432 -149 410 -161 386 -169 C 362 -177 336 -181 308 -181 Z M 363 170 C 381 172 398 179 414 190 C 430 201 439 218 439 242 C 439 264 429 284 411 300 C 392 316 362 333 322 350 L 187 413 C 171 404 158 394 147 382 C 136 370 131 354 131 334 C 131 308 140 288 159 273 C 178 258 208 242 250 224 L 363 170 Z" unicode="§" />
<glyph horiz-adv-x="500" d="M 369 549 L 293 549 L 293 707 L 369 707 L 369 549 Z M 207 549 L 131 549 L 131 707 L 207 707 L 207 549 Z" unicode="¨" />
<glyph horiz-adv-x="822" d="M 411 12 C 361 12 313 21 269 41 C 224 60 185 86 152 119 C 119 151 93 190 74 235 C 55 279 46 327 46 377 C 46 427 55 474 74 519 C 93 563 119 602 152 635 C 185 668 224 694 269 713 C 313 732 361 742 411 742 C 461 742 508 732 553 713 C 597 694 636 668 669 635 C 701 602 727 563 747 519 C 766 474 776 427 776 377 C 776 327 766 279 747 235 C 727 190 701 151 669 119 C 636 86 597 60 553 41 C 508 21 461 12 411 12 Z M 411 73 C 452 73 491 81 528 97 C 564 113 596 134 624 162 C 651 189 673 221 689 258 C 705 295 713 334 713 376 C 713 417 705 456 689 494 C 673 531 651 563 624 591 C 596 618 564 640 528 656 C 491 672 452 681 411 681 C 369 681 329 672 292 656 C 255 640 223 618 196 591 C 169 563 148 531 132 494 C 116 456 108 417 108 376 C 108 334 116 295 132 258 C 148 221 169 189 196 162 C 223 134 255 113 292 97 C 329 81 369 73 411 73 Z M 578 247 C 562 222 541 201 513 185 C 485 168 450 160 410 160 C 384 160 360 164 336 174 C 312 183 292 197 274 215 C 256 233 241 256 230 283 C 219 310 214 341 214 376 C 214 410 219 440 229 468 C 239 496 252 519 270 539 C 287 558 307 573 331 584 C 354 594 379 600 406 600 C 449 600 484 592 511 577 C 537 562 558 543 574 520 L 510 473 C 499 487 486 499 470 509 C 454 519 434 524 409 524 C 375 524 348 509 326 481 C 304 453 294 417 294 374 C 294 328 306 293 330 268 C 354 243 382 231 412 231 C 434 231 455 236 473 247 C 491 258 505 272 516 289 L 578 247 Z" unicode="©" />
<glyph horiz-adv-x="438" d="M 391 317 L 315 317 L 315 375 C 301 354 281 338 256 327 C 230 315 203 310 173 310 C 131 310 97 321 73 345 C 49 368 37 400 37 440 C 37 484 53 518 87 541 C 120 564 165 577 222 580 L 312 587 L 312 595 C 312 619 304 637 288 649 C 272 661 250 667 222 667 C 198 667 175 663 153 655 C 131 647 111 636 95 624 L 62 686 C 82 701 106 714 136 725 C 166 736 199 742 236 742 C 284 742 321 730 349 707 C 377 683 391 646 391 595 L 391 317 Z M 313 430 L 313 521 L 217 516 C 188 514 164 508 145 497 C 126 486 117 468 117 444 C 117 424 124 408 140 397 C 155 385 175 380 200 380 C 222 380 243 384 264 393 C 284 402 301 414 313 430 Z M 398 195 L 43 195 L 43 270 L 398 270 L 398 195 Z" unicode="ª" />
<glyph horiz-adv-x="438" d="M 209 93 L 28 263 L 28 320 L 209 488 L 209 395 L 108 290 L 209 189 L 209 93 Z M 409 93 L 227 263 L 227 320 L 409 488 L 409 395 L 308 290 L 409 190 L 409 93 Z" unicode="«" />
<glyph horiz-adv-x="490" d="M 446 386 L 446 138 L 368 138 L 368 308 L 31 308 L 31 386 L 446 386 Z" unicode="¬" />
<glyph horiz-adv-x="822" d="M 411 12 C 361 12 313 21 269 41 C 224 60 185 86 152 119 C 119 151 93 190 74 235 C 55 279 46 327 46 377 C 46 427 55 474 74 519 C 93 563 119 602 152 635 C 185 668 224 694 269 713 C 313 732 361 742 411 742 C 461 742 508 732 553 713 C 597 694 636 668 669 635 C 701 602 727 563 747 519 C 766 474 776 427 776 377 C 776 327 766 279 747 235 C 727 190 701 151 669 119 C 636 86 597 60 553 41 C 508 21 461 12 411 12 Z M 411 73 C 452 73 491 80 528 96 C 565 112 597 133 624 160 C 651 187 673 219 689 256 C 705 293 713 333 713 377 C 713 419 705 459 689 497 C 673 534 651 566 624 593 C 597 620 565 641 528 657 C 491 673 452 681 411 681 C 369 681 330 673 293 657 C 256 641 224 619 197 592 C 169 564 148 532 132 495 C 116 458 108 419 108 377 C 108 335 116 295 132 258 C 148 220 169 188 197 161 C 224 133 256 112 293 96 C 330 80 369 73 411 73 Z M 276 171 L 276 601 L 429 601 C 447 601 464 598 482 594 C 499 589 514 582 528 572 C 541 562 552 550 560 535 C 568 520 573 502 573 482 C 573 444 562 415 542 396 C 521 377 499 366 476 363 L 475 359 L 606 171 L 524 171 L 409 340 L 348 340 L 348 171 L 276 171 Z M 347 402 L 432 402 C 450 402 466 408 480 420 C 494 432 502 449 503 473 C 503 496 495 512 479 522 C 463 532 444 537 422 537 L 347 537 L 347 402 Z" unicode="®" />
<glyph horiz-adv-x="500" d="M 375 568 L 125 568 L 125 641 L 375 641 L 375 568 Z" unicode="¯" />
<glyph horiz-adv-x="420" d="M 210 382 C 185 382 162 386 140 396 C 118 406 98 419 82 435 C 66 451 53 470 44 492 C 34 514 30 538 30 563 C 30 587 34 610 44 632 C 53 654 66 673 82 689 C 98 705 118 718 140 728 C 162 737 185 742 210 742 C 234 742 258 737 280 728 C 302 718 321 705 337 689 C 353 673 366 654 376 632 C 385 610 390 587 390 563 C 390 538 385 514 376 492 C 366 470 353 451 337 435 C 321 419 302 406 280 396 C 258 386 234 382 210 382 Z M 210 455 C 239 455 264 465 286 486 C 308 507 319 533 319 563 C 319 592 308 617 286 639 C 264 660 239 671 210 671 C 180 671 155 660 133 639 C 111 617 101 592 101 563 C 101 533 111 507 133 486 C 155 465 180 455 210 455 Z" unicode="°" />
<glyph horiz-adv-x="490" d="M 465 294 L 284 294 L 284 112 L 207 112 L 207 294 L 25 294 L 25 366 L 207 366 L 207 550 L 284 550 L 284 366 L 465 366 L 465 294 Z M 461 25 L 32 25 L 32 95 L 461 95 L 461 25 Z" unicode="±" />
<glyph horiz-adv-x="340" d="M 307 372 L 26 372 L 26 402 L 185 559 C 191 565 198 573 204 583 C 210 593 214 605 214 619 C 214 633 209 645 199 656 C 189 667 175 673 155 673 C 132 673 116 666 107 652 C 97 638 92 623 92 605 L 20 605 C 20 641 32 673 57 700 C 82 727 117 741 163 741 C 207 741 240 730 262 710 C 284 689 296 664 296 636 C 296 609 291 587 281 569 C 271 551 261 537 251 527 L 158 439 L 307 439 L 307 372 Z" unicode="²" />
<glyph horiz-adv-x="346" d="M 226 569 C 253 564 275 553 291 537 C 307 521 315 501 315 477 C 315 465 312 452 307 439 C 302 425 294 413 282 402 C 270 391 255 382 235 375 C 215 367 190 364 161 364 C 119 364 87 369 64 379 C 40 389 22 398 10 408 L 55 454 C 65 447 79 441 96 435 C 113 429 133 426 157 426 C 188 426 210 432 223 444 C 235 456 242 471 242 489 C 242 507 234 520 218 526 C 202 532 184 535 162 535 L 89 535 L 89 593 L 156 593 C 176 593 193 596 206 603 C 218 610 225 621 225 636 C 225 648 219 658 208 666 C 197 673 180 677 158 677 C 138 677 120 673 103 666 C 86 658 73 650 65 640 L 21 684 C 34 698 52 711 74 723 C 96 735 128 742 169 742 C 209 742 241 733 265 717 C 288 700 300 678 300 652 C 300 630 292 611 278 597 C 263 583 246 573 226 569 Z" unicode="³" />
<glyph horiz-adv-x="500" d="M 156 549 L 247 718 L 354 718 L 246 549 L 156 549 Z" unicode="´" />
<glyph horiz-adv-x="589" d="M 71 -120 L 71 501 L 162 501 L 162 164 C 162 134 174 111 198 93 C 222 75 251 66 283 66 C 299 66 316 68 333 73 C 349 78 364 86 377 96 C 390 106 401 119 409 135 C 417 150 421 168 421 188 L 421 501 L 513 501 L 513 0 L 428 0 L 428 98 C 418 70 397 46 366 26 C 334 5 301 -5 267 -6 C 243 -6 220 -2 199 8 C 178 18 164 32 156 50 L 156 -120 L 71 -120 Z" unicode="µ" />
<glyph horiz-adv-x="597" d="M 545 -180 L 481 -179 L 481 657 L 389 657 L 389 -179 L 325 -179 L 325 281 L 245 281 C 216 281 188 287 162 299 C 135 311 111 327 91 347 C 70 367 53 390 41 417 C 29 444 23 472 23 502 C 23 534 28 564 40 592 C 52 620 68 644 89 664 C 110 684 135 700 165 712 C 195 724 228 730 264 730 L 545 730 L 545 -180 Z M 326 358 L 326 653 L 288 653 C 242 653 205 639 178 611 C 151 583 138 547 138 505 C 138 465 151 431 178 402 C 205 372 238 358 278 358 L 326 358 Z" unicode="¶" />
<glyph horiz-adv-x="252" d="M 173 279 L 80 279 L 80 409 L 173 409 L 173 279 Z" unicode="·" />
<glyph horiz-adv-x="500" d="M 253 -184 C 231 -184 209 -181 187 -175 C 165 -169 148 -161 135 -152 L 151 -113 C 159 -119 171 -124 185 -130 C 199 -136 215 -139 232 -139 C 245 -139 257 -135 267 -129 C 277 -122 282 -113 282 -103 C 282 -90 277 -81 268 -76 C 259 -71 250 -69 240 -69 C 232 -69 226 -69 220 -70 C 214 -71 209 -73 203 -76 L 190 -60 L 247 13 L 298 13 L 252 -47 C 282 -42 307 -45 328 -57 C 348 -68 359 -85 359 -109 C 359 -133 348 -152 327 -165 C 306 -177 281 -184 253 -184 Z" unicode="¸" />
<glyph horiz-adv-x="319" d="M 141 372 L 141 643 C 133 631 120 621 100 613 C 80 604 63 598 49 596 L 48 678 C 72 681 94 688 112 698 C 130 708 149 722 168 740 L 225 740 L 225 372 L 141 372 Z" unicode="¹" />
<glyph horiz-adv-x="431" d="M 212 309 C 187 309 163 313 141 323 C 118 333 98 347 81 365 C 63 383 49 406 39 432 C 29 458 24 488 24 522 C 24 551 29 579 39 605 C 49 631 63 654 80 674 C 97 694 117 709 141 721 C 164 733 188 739 214 739 C 240 739 265 734 289 724 C 313 714 333 700 351 682 C 368 664 382 642 392 616 C 402 590 407 562 407 532 C 407 500 401 470 391 443 C 381 415 367 392 349 372 C 331 352 311 337 287 326 C 263 314 238 309 212 309 Z M 214 381 C 248 381 275 395 295 423 C 315 451 326 486 326 529 C 326 568 316 601 297 628 C 277 654 250 668 215 668 C 181 668 155 654 135 626 C 115 598 105 562 105 520 C 105 478 115 444 135 419 C 155 393 182 381 214 381 Z M 41 195 L 41 270 L 389 270 L 389 195 L 41 195 Z" unicode="º" />
<glyph horiz-adv-x="439" d="M 30 488 L 212 318 L 212 262 L 30 94 L 30 186 L 131 291 L 30 392 L 30 488 Z M 230 488 L 412 318 L 412 262 L 230 94 L 230 186 L 331 291 L 230 392 L 230 488 Z" unicode="»" />
<glyph horiz-adv-x="697" d="M 10 0 L 10 0 Z M 103 372 L 103 643 C 95 631 82 621 62 613 C 42 604 25 598 11 596 L 10 678 C 34 681 56 688 74 698 C 92 708 111 722 130 740 L 187 740 L 187 372 L 103 372 Z M 575 730 L 206 0 L 127 0 L 496 730 L 575 730 Z M 387 83 L 387 139 L 573 366 L 626 366 L 626 142 L 687 142 L 687 83 L 626 83 L 626 1 L 550 1 L 550 83 L 387 83 Z M 459 137 L 552 137 L 552 254 L 459 137 Z" unicode="¼" />
<glyph horiz-adv-x="763" d="M 10 0 L 10 0 Z M 103 372 L 103 643 C 95 631 82 621 62 613 C 42 604 25 598 11 596 L 10 678 C 34 681 56 688 74 698 C 92 708 111 722 130 740 L 187 740 L 187 372 L 103 372 Z M 575 730 L 206 0 L 127 0 L 496 730 L 575 730 Z M 739 0 L 458 0 L 458 30 L 617 187 C 623 193 630 201 636 211 C 642 221 646 233 646 247 C 646 261 641 273 631 284 C 621 295 607 301 587 301 C 564 301 548 294 539 280 C 529 266 524 251 524 233 L 452 233 C 452 269 464 301 489 328 C 514 355 549 369 595 369 C 639 369 672 358 694 338 C 716 317 728 292 728 264 C 728 237 723 215 713 197 C 703 179 693 165 683 155 L 590 67 L 739 67 L 739 0 Z" unicode="½" />
<glyph horiz-adv-x="757" d="M 11 0 L 11 0 Z M 635 730 L 266 0 L 187 0 L 556 730 L 635 730 Z M 447 83 L 447 139 L 633 366 L 686 366 L 686 142 L 747 142 L 747 83 L 686 83 L 686 1 L 610 1 L 610 83 L 447 83 Z M 519 137 L 612 137 L 612 254 L 519 137 Z M 227 569 C 254 564 276 553 292 537 C 308 521 316 501 316 477 C 316 465 313 452 308 439 C 303 425 295 413 283 402 C 271 391 256 382 236 375 C 216 367 191 364 162 364 C 120 364 88 369 65 379 C 41 389 23 398 11 408 L 56 454 C 66 447 80 441 97 435 C 114 429 134 426 158 426 C 189 426 211 432 224 444 C 236 456 243 471 243 489 C 243 507 235 520 219 526 C 203 532 185 535 163 535 L 90 535 L 90 593 L 157 593 C 177 593 194 596 207 603 C 219 610 226 621 226 636 C 226 648 220 658 209 666 C 198 673 181 677 159 677 C 139 677 121 673 104 666 C 87 658 74 650 66 640 L 22 684 C 35 698 53 711 75 723 C 97 735 129 742 170 742 C 210 742 242 733 266 717 C 289 700 301 678 301 652 C 301 630 293 611 279 597 C 264 583 247 573 227 569 Z" unicode="¾" />
<glyph horiz-adv-x="443" d="M 186 488 L 186 600 L 288 600 L 288 488 L 186 488 Z M 220 -140 C 161 -140 114 -124 78 -93 C 42 -62 25 -19 25 35 C 25 60 28 83 36 104 C 43 124 52 143 63 160 C 74 176 86 192 100 206 C 113 220 126 233 139 246 C 161 266 175 290 182 318 C 189 346 193 372 194 397 L 284 397 C 284 353 278 316 268 288 C 257 259 239 231 213 205 C 193 184 173 162 153 138 C 133 114 123 85 123 49 C 123 16 133 -9 155 -28 C 177 -47 204 -57 236 -57 C 264 -57 289 -49 311 -35 C 333 -21 351 -3 366 17 L 424 -40 C 401 -70 372 -95 336 -113 C 300 -131 262 -140 220 -140 Z" unicode="¿" />
<glyph horiz-adv-x="539" d="M 2 0 L 2 0 Z M 537 0 L 439 0 L 380 182 L 152 182 L 96 0 L 2 0 L 236 734 L 303 734 L 537 0 Z M 361 261 L 266 562 L 171 261 L 361 261 Z M 267 790 L 267 790 Z M 366 790 L 276 790 L 167 959 L 274 959 L 366 790 Z" unicode="À" />
<glyph horiz-adv-x="539" d="M 2 0 L 2 0 Z M 537 0 L 439 0 L 380 182 L 152 182 L 96 0 L 2 0 L 236 734 L 303 734 L 537 0 Z M 361 261 L 266 562 L 171 261 L 361 261 Z M 267 791 L 267 791 Z M 168 791 L 259 960 L 366 960 L 258 791 L 168 791 Z" unicode="Á" />
<glyph horiz-adv-x="539" d="M 2 0 L 2 0 Z M 537 0 L 439 0 L 380 182 L 152 182 L 96 0 L 2 0 L 236 734 L 303 734 L 537 0 Z M 361 261 L 266 562 L 171 261 L 361 261 Z M 267 791 L 267 791 Z M 415 791 L 335 791 L 267 899 L 198 791 L 120 791 L 226 962 L 309 962 L 415 791 Z" unicode="Â" />
<glyph horiz-adv-x="539" d="M 2 0 L 2 0 Z M 537 0 L 439 0 L 380 182 L 152 182 L 96 0 L 2 0 L 236 734 L 303 734 L 537 0 Z M 361 261 L 266 562 L 171 261 L 361 261 Z M 267 797 L 267 797 Z M 355 934 L 424 934 C 424 887 417 852 404 830 C 390 808 373 797 352 797 C 334 797 318 800 304 808 C 290 815 279 822 270 829 C 260 835 251 842 242 849 C 232 856 223 860 214 860 C 205 860 197 854 191 844 C 184 834 180 819 180 801 L 111 801 C 111 847 119 881 137 904 C 154 926 173 938 194 938 C 210 938 224 934 236 927 C 248 919 260 911 271 903 C 279 896 288 890 296 884 C 304 878 313 875 322 875 C 330 875 338 880 345 890 C 351 900 355 915 355 934 Z" unicode="Ã" />
<glyph horiz-adv-x="539" d="M 2 0 L 2 0 Z M 537 0 L 439 0 L 380 182 L 152 182 L 96 0 L 2 0 L 236 734 L 303 734 L 537 0 Z M 361 261 L 266 562 L 171 261 L 361 261 Z M 267 791 L 267 791 Z M 386 791 L 310 791 L 310 949 L 386 949 L 386 791 Z M 224 791 L 148 791 L 148 949 L 224 949 L 224 791 Z" unicode="Ä" />
<glyph horiz-adv-x="539" d="M 2 0 L 2 0 Z M 537 0 L 439 0 L 380 182 L 152 182 L 96 0 L 2 0 L 236 734 L 303 734 L 537 0 Z M 361 261 L 266 562 L 171 261 L 361 261 Z M 267 781 L 267 781 Z M 267 781 C 234 781 206 792 183 816 C 159 839 148 867 148 900 C 148 932 159 960 183 983 C 206 1006 234 1018 267 1018 C 299 1018 327 1006 350 983 C 373 960 385 932 385 900 C 385 867 373 839 350 816 C 327 792 299 781 267 781 Z M 267 836 C 284 836 298 842 310 854 C 322 866 328 882 328 900 C 328 917 322 932 310 944 C 298 956 284 963 267 963 C 250 963 235 956 223 944 C 211 932 205 917 205 900 C 205 882 211 866 223 854 C 235 842 250 836 267 836 Z" unicode="Å" />
<glyph horiz-adv-x="811" d="M 785 0 L 429 0 L 429 217 L 208 217 L 92 0 L -6 0 L 374 730 L 768 730 L 768 644 L 523 644 L 523 405 L 757 405 L 757 321 L 523 321 L 523 86 L 785 86 L 785 0 Z M 429 296 L 429 659 L 244 296 L 429 296 Z" unicode="Æ" />
<glyph horiz-adv-x="579" d="M 39 0 L 39 0 Z M 321 -9 C 281 -9 243 -1 209 15 C 175 31 145 54 120 86 C 94 117 74 156 60 203 C 46 250 39 304 39 366 C 39 423 45 475 58 521 C 71 567 90 607 114 639 C 138 671 168 695 203 713 C 238 730 278 739 322 739 C 384 739 433 725 469 699 C 504 673 531 640 550 600 L 468 555 C 454 581 435 603 413 621 C 391 639 361 648 323 648 C 265 648 220 624 188 578 C 155 532 139 460 139 363 C 139 312 144 269 155 233 C 165 197 179 167 197 145 C 215 123 235 106 258 96 C 281 86 305 81 329 81 C 369 81 401 90 425 109 C 449 128 469 153 485 184 L 561 142 C 540 96 510 60 470 32 C 430 4 380 -9 321 -9 Z M 314 -2 L 314 -2 Z M 320 -186 C 298 -186 276 -183 254 -177 C 232 -171 215 -163 202 -154 L 218 -115 C 226 -121 238 -126 252 -132 C 266 -138 282 -141 299 -141 C 312 -141 324 -137 334 -131 C 344 -124 349 -115 349 -105 C 349 -92 344 -83 335 -78 C 326 -73 317 -71 307 -71 C 299 -71 293 -71 287 -72 C 281 -73 276 -75 270 -78 L 257 -62 L 314 11 L 365 11 L 319 -49 C 349 -44 374 -47 395 -59 C 415 -70 426 -87 426 -111 C 426 -135 415 -154 394 -167 C 373 -179 348 -186 320 -186 Z" unicode="Ç" />
<glyph horiz-adv-x="457" d="M 71 0 L 71 0 Z M 432 0 L 71 0 L 71 730 L 414 730 L 414 641 L 169 641 L 169 408 L 403 408 L 403 320 L 169 320 L 169 89 L 432 89 L 432 0 Z M 244 790 L 244 790 Z M 343 790 L 253 790 L 144 959 L 251 959 L 343 790 Z" unicode="È" />
<glyph horiz-adv-x="457" d="M 71 0 L 71 0 Z M 432 0 L 71 0 L 71 730 L 414 730 L 414 641 L 169 641 L 169 408 L 403 408 L 403 320 L 169 320 L 169 89 L 432 89 L 432 0 Z M 244 791 L 244 791 Z M 145 791 L 236 960 L 343 960 L 235 791 L 145 791 Z" unicode="É" />
<glyph horiz-adv-x="457" d="M 71 0 L 71 0 Z M 432 0 L 71 0 L 71 730 L 414 730 L 414 641 L 169 641 L 169 408 L 403 408 L 403 320 L 169 320 L 169 89 L 432 89 L 432 0 Z M 244 791 L 244 791 Z M 392 791 L 312 791 L 244 899 L 175 791 L 97 791 L 203 962 L 286 962 L 392 791 Z" unicode="Ê" />
<glyph horiz-adv-x="457" d="M 71 0 L 71 0 Z M 432 0 L 71 0 L 71 730 L 414 730 L 414 641 L 169 641 L 169 408 L 403 408 L 403 320 L 169 320 L 169 89 L 432 89 L 432 0 Z M 244 791 L 244 791 Z M 363 791 L 287 791 L 287 949 L 363 949 L 363 791 Z M 201 791 L 125 791 L 125 949 L 201 949 L 201 791 Z" unicode="Ë" />
<glyph horiz-adv-x="251" d="M 26 0 L 26 0 Z M 176 0 L 76 0 L 76 730 L 176 730 L 176 0 Z M 126 790 L 126 790 Z M 225 790 L 135 790 L 26 959 L 133 959 L 225 790 Z" unicode="Ì" />
<glyph horiz-adv-x="251" d="M 27 0 L 27 0 Z M 176 0 L 76 0 L 76 730 L 176 730 L 176 0 Z M 126 791 L 126 791 Z M 27 791 L 118 960 L 225 960 L 117 791 L 27 791 Z" unicode="Í" />
<glyph horiz-adv-x="251" d="M 0 0 L 0 0 Z M 176 0 L 76 0 L 76 730 L 176 730 L 176 0 Z M 126 791 L 126 791 Z M 274 791 L 194 791 L 126 899 L 57 791 L -21 791 L 85 962 L 168 962 L 274 791 Z" unicode="Î" />
<glyph horiz-adv-x="251" d="M 7 0 L 7 0 Z M 176 0 L 76 0 L 76 730 L 176 730 L 176 0 Z M 126 791 L 126 791 Z M 245 791 L 169 791 L 169 949 L 245 949 L 245 791 Z M 83 791 L 7 791 L 7 949 L 83 949 L 83 791 Z" unicode="Ï" />
<glyph horiz-adv-x="609" d="M 570 364 C 570 313 563 265 549 221 C 535 177 515 138 488 106 C 461 73 427 47 386 28 C 344 9 296 0 242 0 L 71 0 L 71 322 L 24 322 L 24 398 L 71 398 L 71 730 L 253 730 C 303 730 348 721 388 704 C 428 686 461 662 488 630 C 514 598 535 560 549 515 C 563 469 570 419 570 364 Z M 170 79 L 241 79 C 282 79 317 86 346 100 C 375 114 399 134 417 159 C 435 184 448 214 456 249 C 464 283 469 321 469 362 C 469 457 450 529 412 578 C 374 626 321 651 254 651 L 170 651 L 170 398 L 323 398 L 323 322 L 170 322 L 170 79 Z" unicode="Ð" />
<glyph horiz-adv-x="618" d="M 71 0 L 71 0 Z M 546 0 L 476 0 L 165 515 L 165 0 L 71 0 L 71 730 L 144 730 L 455 216 L 455 730 L 546 730 L 546 0 Z M 309 797 L 309 797 Z M 397 934 L 466 934 C 466 887 459 852 446 830 C 432 808 415 797 394 797 C 376 797 360 800 346 808 C 332 815 321 822 312 829 C 302 835 293 842 284 849 C 274 856 265 860 256 860 C 247 860 239 854 233 844 C 226 834 222 819 222 801 L 153 801 C 153 847 161 881 179 904 C 196 926 215 938 236 938 C 252 938 266 934 278 927 C 290 919 302 911 313 903 C 321 896 330 890 338 884 C 346 878 355 875 364 875 C 372 875 380 880 387 890 C 393 900 397 915 397 934 Z" unicode="Ñ" />
<glyph horiz-adv-x="661" d="M 38 0 L 38 0 Z M 333 -9 C 242 -9 170 24 117 92 C 64 159 38 252 38 371 C 38 427 45 477 59 523 C 73 568 92 607 118 639 C 143 671 173 695 209 713 C 245 730 284 739 327 739 C 418 739 490 706 543 640 C 596 574 623 482 623 366 C 623 308 615 256 601 210 C 586 163 566 123 540 91 C 514 59 484 34 448 17 C 412 0 374 -9 333 -9 Z M 333 77 C 389 77 434 101 469 150 C 503 199 521 272 521 370 C 521 460 503 530 467 579 C 431 627 385 652 327 652 C 269 652 224 628 191 581 C 157 533 141 462 141 366 C 141 268 159 196 195 148 C 231 100 277 77 333 77 Z M 328 790 L 328 790 Z M 427 790 L 337 790 L 228 959 L 335 959 L 427 790 Z" unicode="Ò" />
<glyph horiz-adv-x="661" d="M 38 0 L 38 0 Z M 333 -9 C 242 -9 170 24 117 92 C 64 159 38 252 38 371 C 38 427 45 477 59 523 C 73 568 92 607 118 639 C 143 671 173 695 209 713 C 245 730 284 739 327 739 C 418 739 490 706 543 640 C 596 574 623 482 623 366 C 623 308 615 256 601 210 C 586 163 566 123 540 91 C 514 59 484 34 448 17 C 412 0 374 -9 333 -9 Z M 333 77 C 389 77 434 101 469 150 C 503 199 521 272 521 370 C 521 460 503 530 467 579 C 431 627 385 652 327 652 C 269 652 224 628 191 581 C 157 533 141 462 141 366 C 141 268 159 196 195 148 C 231 100 277 77 333 77 Z M 328 791 L 328 791 Z M 229 791 L 320 960 L 427 960 L 319 791 L 229 791 Z" unicode="Ó" />
<glyph horiz-adv-x="661" d="M 38 0 L 38 0 Z M 333 -9 C 242 -9 170 24 117 92 C 64 159 38 252 38 371 C 38 427 45 477 59 523 C 73 568 92 607 118 639 C 143 671 173 695 209 713 C 245 730 284 739 327 739 C 418 739 490 706 543 640 C 596 574 623 482 623 366 C 623 308 615 256 601 210 C 586 163 566 123 540 91 C 514 59 484 34 448 17 C 412 0 374 -9 333 -9 Z M 333 77 C 389 77 434 101 469 150 C 503 199 521 272 521 370 C 521 460 503 530 467 579 C 431 627 385 652 327 652 C 269 652 224 628 191 581 C 157 533 141 462 141 366 C 141 268 159 196 195 148 C 231 100 277 77 333 77 Z M 328 791 L 328 791 Z M 476 791 L 396 791 L 328 899 L 259 791 L 181 791 L 287 962 L 370 962 L 476 791 Z" unicode="Ô" />
<glyph horiz-adv-x="661" d="M 38 0 L 38 0 Z M 333 -9 C 242 -9 170 24 117 92 C 64 159 38 252 38 371 C 38 427 45 477 59 523 C 73 568 92 607 118 639 C 143 671 173 695 209 713 C 245 730 284 739 327 739 C 418 739 490 706 543 640 C 596 574 623 482 623 366 C 623 308 615 256 601 210 C 586 163 566 123 540 91 C 514 59 484 34 448 17 C 412 0 374 -9 333 -9 Z M 333 77 C 389 77 434 101 469 150 C 503 199 521 272 521 370 C 521 460 503 530 467 579 C 431 627 385 652 327 652 C 269 652 224 628 191 581 C 157 533 141 462 141 366 C 141 268 159 196 195 148 C 231 100 277 77 333 77 Z M 328 797 L 328 797 Z M 416 934 L 485 934 C 485 887 478 852 465 830 C 451 808 434 797 413 797 C 395 797 379 800 365 808 C 351 815 340 822 331 829 C 321 835 312 842 303 849 C 293 856 284 860 275 860 C 266 860 258 854 252 844 C 245 834 241 819 241 801 L 172 801 C 172 847 180 881 198 904 C 215 926 234 938 255 938 C 271 938 285 934 297 927 C 309 919 321 911 332 903 C 340 896 349 890 357 884 C 365 878 374 875 383 875 C 391 875 399 880 406 890 C 412 900 416 915 416 934 Z" unicode="Õ" />
<glyph horiz-adv-x="661" d="M 38 0 L 38 0 Z M 333 -9 C 242 -9 170 24 117 92 C 64 159 38 252 38 371 C 38 427 45 477 59 523 C 73 568 92 607 118 639 C 143 671 173 695 209 713 C 245 730 284 739 327 739 C 418 739 490 706 543 640 C 596 574 623 482 623 366 C 623 308 615 256 601 210 C 586 163 566 123 540 91 C 514 59 484 34 448 17 C 412 0 374 -9 333 -9 Z M 333 77 C 389 77 434 101 469 150 C 503 199 521 272 521 370 C 521 460 503 530 467 579 C 431 627 385 652 327 652 C 269 652 224 628 191 581 C 157 533 141 462 141 366 C 141 268 159 196 195 148 C 231 100 277 77 333 77 Z M 328 791 L 328 791 Z M 447 791 L 371 791 L 371 949 L 447 949 L 447 791 Z M 285 791 L 209 791 L 209 949 L 285 949 L 285 791 Z" unicode="Ö" />
<glyph horiz-adv-x="491" d="M 110 144 L 60 195 L 195 330 L 61 464 L 111 515 L 246 381 L 380 515 L 431 464 L 296 330 L 431 195 L 381 143 L 246 280 L 110 144 Z" unicode="×" />
<glyph horiz-adv-x="661" d="M 623 366 C 623 308 615 256 601 210 C 586 163 566 123 540 91 C 514 59 484 34 448 17 C 412 0 374 -9 333 -9 C 293 -9 256 -2 222 11 C 188 25 159 45 135 71 L 77 -3 L 31 32 L 98 119 C 78 150 63 187 53 229 C 43 271 38 319 38 371 C 38 427 45 477 59 523 C 73 568 92 607 118 639 C 143 671 173 695 209 713 C 245 730 284 739 327 739 C 367 739 403 732 436 720 C 468 707 497 688 522 664 L 588 748 L 633 713 L 559 618 C 579 587 595 550 606 508 C 617 465 623 418 623 366 Z M 141 366 C 141 333 143 303 147 277 C 151 250 158 226 166 205 L 462 586 C 445 607 425 623 402 635 C 379 646 354 652 327 652 C 269 652 224 628 191 581 C 157 533 141 462 141 366 Z M 521 370 C 521 402 518 432 513 459 C 508 486 501 511 493 533 L 195 149 C 211 125 231 107 255 95 C 279 83 305 77 333 77 C 389 77 434 101 469 150 C 503 199 521 272 521 370 Z" unicode="Ø" />
<glyph horiz-adv-x="607" d="M 67 0 L 67 0 Z M 540 730 L 540 234 C 540 192 533 156 520 126 C 507 95 490 70 468 50 C 446 30 420 15 391 5 C 362 -4 331 -9 299 -9 C 267 -9 238 -4 210 5 C 182 14 157 28 136 48 C 115 68 98 93 86 124 C 73 154 67 191 67 234 L 67 730 L 165 730 L 165 232 C 165 180 178 141 204 116 C 230 91 263 79 301 79 C 339 79 371 91 398 115 C 425 139 439 178 439 232 L 439 730 L 540 730 Z M 302 790 L 302 790 Z M 401 790 L 311 790 L 202 959 L 309 959 L 401 790 Z" unicode="Ù" />
<glyph horiz-adv-x="607" d="M 67 0 L 67 0 Z M 540 730 L 540 234 C 540 192 533 156 520 126 C 507 95 490 70 468 50 C 446 30 420 15 391 5 C 362 -4 331 -9 299 -9 C 267 -9 238 -4 210 5 C 182 14 157 28 136 48 C 115 68 98 93 86 124 C 73 154 67 191 67 234 L 67 730 L 165 730 L 165 232 C 165 180 178 141 204 116 C 230 91 263 79 301 79 C 339 79 371 91 398 115 C 425 139 439 178 439 232 L 439 730 L 540 730 Z M 302 791 L 302 791 Z M 203 791 L 294 960 L 401 960 L 293 791 L 203 791 Z" unicode="Ú" />
<glyph horiz-adv-x="607" d="M 67 0 L 67 0 Z M 540 730 L 540 234 C 540 192 533 156 520 126 C 507 95 490 70 468 50 C 446 30 420 15 391 5 C 362 -4 331 -9 299 -9 C 267 -9 238 -4 210 5 C 182 14 157 28 136 48 C 115 68 98 93 86 124 C 73 154 67 191 67 234 L 67 730 L 165 730 L 165 232 C 165 180 178 141 204 116 C 230 91 263 79 301 79 C 339 79 371 91 398 115 C 425 139 439 178 439 232 L 439 730 L 540 730 Z M 302 791 L 302 791 Z M 450 791 L 370 791 L 302 899 L 233 791 L 155 791 L 261 962 L 344 962 L 450 791 Z" unicode="Û" />
<glyph horiz-adv-x="607" d="M 67 0 L 67 0 Z M 540 730 L 540 234 C 540 192 533 156 520 126 C 507 95 490 70 468 50 C 446 30 420 15 391 5 C 362 -4 331 -9 299 -9 C 267 -9 238 -4 210 5 C 182 14 157 28 136 48 C 115 68 98 93 86 124 C 73 154 67 191 67 234 L 67 730 L 165 730 L 165 232 C 165 180 178 141 204 116 C 230 91 263 79 301 79 C 339 79 371 91 398 115 C 425 139 439 178 439 232 L 439 730 L 540 730 Z M 302 791 L 302 791 Z M 421 791 L 345 791 L 345 949 L 421 949 L 421 791 Z M 259 791 L 183 791 L 183 949 L 259 949 L 259 791 Z" unicode="Ü" />
<glyph horiz-adv-x="526" d="M 0 0 L 0 0 Z M 528 730 L 311 312 L 311 0 L 211 0 L 211 314 L -2 730 L 109 730 L 266 412 L 428 730 L 528 730 Z M 266 791 L 266 791 Z M 167 791 L 258 960 L 365 960 L 257 791 L 167 791 Z" unicode="Ý" />
<glyph horiz-adv-x="496" d="M 71 0 L 71 730 L 171 730 L 171 600 L 270 600 C 330 600 379 580 418 542 C 456 504 476 451 476 385 C 476 315 456 260 417 220 C 377 180 328 160 268 160 L 171 160 L 171 0 L 71 0 Z M 169 240 L 260 240 C 296 240 326 252 348 278 C 370 303 381 339 381 385 C 381 429 368 462 344 485 C 319 507 290 519 257 519 L 169 519 L 169 240 Z" unicode="Þ" />
<glyph horiz-adv-x="541" d="M 375 -7 C 339 -7 307 -1 279 11 C 251 23 229 39 212 59 L 258 121 C 272 105 289 92 308 83 C 327 74 347 70 368 70 C 386 70 403 75 417 85 C 431 95 438 111 438 131 C 438 149 430 165 414 178 C 398 191 373 206 340 223 C 300 241 270 261 251 283 C 231 305 222 333 222 369 C 222 403 232 431 252 453 C 272 474 295 488 320 495 C 326 497 333 506 340 521 C 347 536 351 562 352 598 C 352 638 342 667 324 685 C 305 703 282 713 254 713 C 227 713 205 704 187 686 C 169 668 161 640 161 602 L 161 0 L 68 0 L 68 608 C 68 666 85 710 119 742 C 153 774 198 790 252 790 C 304 790 348 773 384 741 C 420 709 438 661 438 598 C 438 550 430 512 416 485 C 401 458 386 442 372 438 C 354 435 337 429 323 420 C 308 410 300 396 300 378 C 300 360 307 345 323 332 C 339 319 364 304 400 288 C 441 268 471 246 491 224 C 511 201 521 170 521 131 C 521 108 516 88 508 71 C 499 53 488 39 474 27 C 460 15 445 7 427 1 C 409 -4 392 -7 375 -7 Z" unicode="ß" />
<glyph horiz-adv-x="427" d="M 23 0 L 23 0 Z M 379 0 L 296 0 L 296 55 C 281 36 263 21 241 10 C 219 -1 192 -7 160 -7 C 118 -7 85 6 60 33 C 35 60 23 97 23 144 C 23 197 40 237 74 263 C 108 289 151 303 203 306 L 291 312 L 291 338 C 291 366 283 386 268 400 C 252 413 230 420 202 420 C 176 420 154 415 134 407 C 114 398 97 389 85 379 L 55 447 C 71 460 93 472 121 482 C 148 492 181 498 220 498 C 266 498 304 485 334 461 C 364 436 379 399 379 349 L 379 0 Z M 293 115 L 293 245 L 215 240 C 186 238 162 230 142 215 C 122 199 112 176 112 146 C 112 119 120 99 136 86 C 152 73 170 67 192 67 C 214 67 234 71 252 81 C 270 91 283 102 293 115 Z M 208 548 L 208 548 Z M 307 548 L 217 548 L 108 717 L 215 717 L 307 548 Z" unicode="à" />
<glyph horiz-adv-x="427" d="M 23 0 L 23 0 Z M 379 0 L 296 0 L 296 55 C 281 36 263 21 241 10 C 219 -1 192 -7 160 -7 C 118 -7 85 6 60 33 C 35 60 23 97 23 144 C 23 197 40 237 74 263 C 108 289 151 303 203 306 L 291 312 L 291 338 C 291 366 283 386 268 400 C 252 413 230 420 202 420 C 176 420 154 415 134 407 C 114 398 97 389 85 379 L 55 447 C 71 460 93 472 121 482 C 148 492 181 498 220 498 C 266 498 304 485 334 461 C 364 436 379 399 379 349 L 379 0 Z M 293 115 L 293 245 L 215 240 C 186 238 162 230 142 215 C 122 199 112 176 112 146 C 112 119 120 99 136 86 C 152 73 170 67 192 67 C 214 67 234 71 252 81 C 270 91 283 102 293 115 Z M 208 549 L 208 549 Z M 109 549 L 200 718 L 307 718 L 199 549 L 109 549 Z" unicode="á" />
<glyph horiz-adv-x="427" d="M 23 0 L 23 0 Z M 379 0 L 296 0 L 296 55 C 281 36 263 21 241 10 C 219 -1 192 -7 160 -7 C 118 -7 85 6 60 33 C 35 60 23 97 23 144 C 23 197 40 237 74 263 C 108 289 151 303 203 306 L 291 312 L 291 338 C 291 366 283 386 268 400 C 252 413 230 420 202 420 C 176 420 154 415 134 407 C 114 398 97 389 85 379 L 55 447 C 71 460 93 472 121 482 C 148 492 181 498 220 498 C 266 498 304 485 334 461 C 364 436 379 399 379 349 L 379 0 Z M 293 115 L 293 245 L 215 240 C 186 238 162 230 142 215 C 122 199 112 176 112 146 C 112 119 120 99 136 86 C 152 73 170 67 192 67 C 214 67 234 71 252 81 C 270 91 283 102 293 115 Z M 208 549 L 208 549 Z M 356 549 L 276 549 L 208 657 L 139 549 L 61 549 L 167 720 L 250 720 L 356 549 Z" unicode="â" />
<glyph horiz-adv-x="427" d="M 23 0 L 23 0 Z M 379 0 L 296 0 L 296 55 C 281 36 263 21 241 10 C 219 -1 192 -7 160 -7 C 118 -7 85 6 60 33 C 35 60 23 97 23 144 C 23 197 40 237 74 263 C 108 289 151 303 203 306 L 291 312 L 291 338 C 291 366 283 386 268 400 C 252 413 230 420 202 420 C 176 420 154 415 134 407 C 114 398 97 389 85 379 L 55 447 C 71 460 93 472 121 482 C 148 492 181 498 220 498 C 266 498 304 485 334 461 C 364 436 379 399 379 349 L 379 0 Z M 293 115 L 293 245 L 215 240 C 186 238 162 230 142 215 C 122 199 112 176 112 146 C 112 119 120 99 136 86 C 152 73 170 67 192 67 C 214 67 234 71 252 81 C 270 91 283 102 293 115 Z M 208 555 L 208 555 Z M 296 692 L 365 692 C 365 645 358 610 345 588 C 331 566 314 555 293 555 C 275 555 259 558 245 566 C 231 573 220 580 211 587 C 201 593 192 600 183 607 C 173 614 164 618 155 618 C 146 618 138 612 132 602 C 125 592 121 577 121 559 L 52 559 C 52 605 60 639 78 662 C 95 684 114 696 135 696 C 151 696 165 692 177 685 C 189 677 201 669 212 661 C 220 654 229 648 237 642 C 245 636 254 633 263 633 C 271 633 279 638 286 648 C 292 658 296 673 296 692 Z" unicode="ã" />
<glyph horiz-adv-x="427" d="M 23 0 L 23 0 Z M 379 0 L 296 0 L 296 55 C 281 36 263 21 241 10 C 219 -1 192 -7 160 -7 C 118 -7 85 6 60 33 C 35 60 23 97 23 144 C 23 197 40 237 74 263 C 108 289 151 303 203 306 L 291 312 L 291 338 C 291 366 283 386 268 400 C 252 413 230 420 202 420 C 176 420 154 415 134 407 C 114 398 97 389 85 379 L 55 447 C 71 460 93 472 121 482 C 148 492 181 498 220 498 C 266 498 304 485 334 461 C 364 436 379 399 379 349 L 379 0 Z M 293 115 L 293 245 L 215 240 C 186 238 162 230 142 215 C 122 199 112 176 112 146 C 112 119 120 99 136 86 C 152 73 170 67 192 67 C 214 67 234 71 252 81 C 270 91 283 102 293 115 Z M 208 549 L 208 549 Z M 327 549 L 251 549 L 251 707 L 327 707 L 327 549 Z M 165 549 L 89 549 L 89 707 L 165 707 L 165 549 Z" unicode="ä" />
<glyph horiz-adv-x="427" d="M 23 0 L 23 0 Z M 379 0 L 296 0 L 296 55 C 281 36 263 21 241 10 C 219 -1 192 -7 160 -7 C 118 -7 85 6 60 33 C 35 60 23 97 23 144 C 23 197 40 237 74 263 C 108 289 151 303 203 306 L 291 312 L 291 338 C 291 366 283 386 268 400 C 252 413 230 420 202 420 C 176 420 154 415 134 407 C 114 398 97 389 85 379 L 55 447 C 71 460 93 472 121 482 C 148 492 181 498 220 498 C 266 498 304 485 334 461 C 364 436 379 399 379 349 L 379 0 Z M 293 115 L 293 245 L 215 240 C 186 238 162 230 142 215 C 122 199 112 176 112 146 C 112 119 120 99 136 86 C 152 73 170 67 192 67 C 214 67 234 71 252 81 C 270 91 283 102 293 115 Z M 208 539 L 208 539 Z M 208 539 C 175 539 147 550 124 574 C 100 597 89 625 89 658 C 89 690 100 718 124 741 C 147 764 175 776 208 776 C 240 776 268 764 291 741 C 314 718 326 690 326 658 C 326 625 314 597 291 574 C 268 550 240 539 208 539 Z M 208 594 C 225 594 239 600 251 612 C 263 624 269 640 269 658 C 269 675 263 690 251 702 C 239 714 225 721 208 721 C 191 721 176 714 164 702 C 152 690 146 675 146 658 C 146 640 152 624 164 612 C 176 600 191 594 208 594 Z" unicode="å" />
<glyph horiz-adv-x="708" d="M 495 -7 C 449 -7 412 3 385 25 C 358 47 340 69 332 93 C 320 64 300 40 271 21 C 241 2 207 -7 167 -7 C 127 -7 93 6 66 33 C 38 59 25 96 25 143 C 25 195 42 235 76 261 C 110 287 153 302 205 306 L 297 311 L 297 329 C 297 362 288 386 271 400 C 254 414 231 421 203 421 C 177 421 154 416 134 407 C 114 397 98 388 87 379 L 57 446 C 74 460 96 472 122 482 C 148 492 178 497 212 497 C 246 497 275 489 300 475 C 325 460 341 439 348 413 C 356 432 373 450 397 468 C 421 486 454 495 495 495 C 554 495 601 470 635 422 C 669 373 686 306 686 220 L 382 220 C 382 172 393 135 414 109 C 435 83 464 70 501 70 C 533 70 558 76 576 89 C 594 101 609 115 622 130 L 672 78 C 655 56 633 37 605 19 C 577 1 541 -7 495 -7 Z M 381 284 L 597 284 C 596 324 586 356 567 382 C 548 407 522 420 490 420 C 458 420 432 407 413 383 C 394 358 383 325 381 284 Z M 196 67 C 221 67 243 75 263 91 C 282 107 294 128 298 153 L 298 245 L 217 240 C 188 238 164 230 144 216 C 124 202 114 179 114 148 C 114 119 122 98 139 86 C 155 73 174 67 196 67 Z" unicode="æ" />
<glyph horiz-adv-x="407" d="M 26 0 L 26 0 Z M 336 133 L 395 84 C 382 62 363 42 338 22 C 313 2 278 -7 232 -7 C 200 -7 171 0 145 11 C 119 23 98 41 80 63 C 62 85 49 111 40 142 C 30 173 26 207 26 243 C 26 277 30 310 40 341 C 50 371 63 398 81 421 C 99 443 120 461 146 475 C 172 488 201 495 234 495 C 278 495 313 485 340 465 C 366 445 385 423 397 400 L 329 352 C 320 368 308 383 293 396 C 277 408 257 415 233 415 C 199 415 171 399 151 367 C 131 335 121 295 121 246 C 121 189 132 146 155 116 C 177 86 206 71 240 71 C 266 71 287 78 301 92 C 315 106 327 119 336 133 Z M 220 -2 L 220 -2 Z M 226 -186 C 204 -186 182 -183 160 -177 C 138 -171 121 -163 108 -154 L 124 -115 C 132 -121 144 -126 158 -132 C 172 -138 188 -141 205 -141 C 218 -141 230 -137 240 -131 C 250 -124 255 -115 255 -105 C 255 -92 250 -83 241 -78 C 232 -73 223 -71 213 -71 C 205 -71 199 -71 193 -72 C 187 -73 182 -75 176 -78 L 163 -62 L 220 11 L 271 11 L 225 -49 C 255 -44 280 -47 301 -59 C 321 -70 332 -87 332 -111 C 332 -135 321 -154 300 -167 C 279 -179 254 -186 226 -186 Z" unicode="ç" />
<glyph horiz-adv-x="446" d="M 26 0 L 26 0 Z M 233 -7 C 171 -7 121 15 83 59 C 45 103 26 164 26 242 C 26 280 31 314 41 345 C 51 376 66 403 84 425 C 102 447 123 465 147 477 C 171 489 198 495 227 495 C 289 495 337 471 372 423 C 406 375 424 307 424 219 L 117 219 C 117 172 128 135 150 109 C 172 83 201 70 239 70 C 270 70 295 76 313 89 C 331 101 347 115 360 130 L 409 78 C 392 57 370 38 343 20 C 316 2 279 -7 233 -7 Z M 118 286 L 334 286 C 333 326 323 359 305 383 C 286 407 261 420 229 420 C 197 420 171 407 151 383 C 131 358 120 326 118 286 Z M 227 548 L 227 548 Z M 326 548 L 236 548 L 127 717 L 234 717 L 326 548 Z" unicode="è" />
<glyph horiz-adv-x="446" d="M 26 0 L 26 0 Z M 233 -7 C 171 -7 121 15 83 59 C 45 103 26 164 26 242 C 26 280 31 314 41 345 C 51 376 66 403 84 425 C 102 447 123 465 147 477 C 171 489 198 495 227 495 C 289 495 337 471 372 423 C 406 375 424 307 424 219 L 117 219 C 117 172 128 135 150 109 C 172 83 201 70 239 70 C 270 70 295 76 313 89 C 331 101 347 115 360 130 L 409 78 C 392 57 370 38 343 20 C 316 2 279 -7 233 -7 Z M 118 286 L 334 286 C 333 326 323 359 305 383 C 286 407 261 420 229 420 C 197 420 171 407 151 383 C 131 358 120 326 118 286 Z M 227 549 L 227 549 Z M 128 549 L 219 718 L 326 718 L 218 549 L 128 549 Z" unicode="é" />
<glyph horiz-adv-x="446" d="M 26 0 L 26 0 Z M 233 -7 C 171 -7 121 15 83 59 C 45 103 26 164 26 242 C 26 280 31 314 41 345 C 51 376 66 403 84 425 C 102 447 123 465 147 477 C 171 489 198 495 227 495 C 289 495 337 471 372 423 C 406 375 424 307 424 219 L 117 219 C 117 172 128 135 150 109 C 172 83 201 70 239 70 C 270 70 295 76 313 89 C 331 101 347 115 360 130 L 409 78 C 392 57 370 38 343 20 C 316 2 279 -7 233 -7 Z M 118 286 L 334 286 C 333 326 323 359 305 383 C 286 407 261 420 229 420 C 197 420 171 407 151 383 C 131 358 120 326 118 286 Z M 227 549 L 227 549 Z M 375 549 L 295 549 L 227 657 L 158 549 L 80 549 L 186 720 L 269 720 L 375 549 Z" unicode="ê" />
<glyph horiz-adv-x="446" d="M 26 0 L 26 0 Z M 233 -7 C 171 -7 121 15 83 59 C 45 103 26 164 26 242 C 26 280 31 314 41 345 C 51 376 66 403 84 425 C 102 447 123 465 147 477 C 171 489 198 495 227 495 C 289 495 337 471 372 423 C 406 375 424 307 424 219 L 117 219 C 117 172 128 135 150 109 C 172 83 201 70 239 70 C 270 70 295 76 313 89 C 331 101 347 115 360 130 L 409 78 C 392 57 370 38 343 20 C 316 2 279 -7 233 -7 Z M 118 286 L 334 286 C 333 326 323 359 305 383 C 286 407 261 420 229 420 C 197 420 171 407 151 383 C 131 358 120 326 118 286 Z M 227 549 L 227 549 Z M 346 549 L 270 549 L 270 707 L 346 707 L 346 549 Z M 184 549 L 108 549 L 108 707 L 184 707 L 184 549 Z" unicode="ë" />
<glyph horiz-adv-x="202" d="M 0 0 L 0 0 Z M 147 0 L 55 0 L 55 488 L 147 488 L 147 0 Z M 100 548 L 100 548 Z M 199 548 L 109 548 L 0 717 L 107 717 L 199 548 Z" unicode="ì" />
<glyph horiz-adv-x="202" d="M 1 0 L 1 0 Z M 147 0 L 55 0 L 55 488 L 147 488 L 147 0 Z M 100 549 L 100 549 Z M 1 549 L 92 718 L 199 718 L 91 549 L 1 549 Z" unicode="í" />
<glyph horiz-adv-x="202" d="M 0 0 L 0 0 Z M 147 0 L 55 0 L 55 488 L 147 488 L 147 0 Z M 100 549 L 100 549 Z M 248 549 L 168 549 L 100 657 L 31 549 L -47 549 L 59 720 L 142 720 L 248 549 Z" unicode="î" />
<glyph horiz-adv-x="202" d="M 0 0 L 0 0 Z M 147 0 L 55 0 L 55 488 L 147 488 L 147 0 Z M 100 549 L 100 549 Z M 219 549 L 143 549 L 143 707 L 219 707 L 219 549 Z M 57 549 L -19 549 L -19 707 L 57 707 L 57 549 Z" unicode="ï" />
<glyph horiz-adv-x="473" d="M 440 285 C 440 243 435 204 426 168 C 417 132 404 101 387 75 C 369 49 348 28 322 13 C 296 -1 266 -9 233 -9 C 173 -9 123 12 85 56 C 46 100 27 160 27 238 C 27 276 32 311 43 342 C 53 373 67 399 85 421 C 103 442 123 458 147 470 C 170 481 194 487 219 487 C 250 487 277 480 299 466 C 321 452 338 435 350 415 C 345 453 337 490 325 524 C 313 558 300 590 286 618 L 187 579 L 165 640 L 251 674 C 236 695 221 713 207 728 C 192 742 180 753 170 759 L 244 790 C 254 783 267 772 281 758 C 295 743 310 725 326 703 L 395 730 L 416 669 L 359 647 C 381 605 400 554 416 494 C 432 434 440 364 440 285 Z M 232 69 C 268 69 295 84 315 114 C 334 144 344 186 344 241 C 344 297 334 340 314 368 C 294 396 267 411 231 411 C 197 411 170 395 150 365 C 130 335 120 293 120 241 C 120 184 130 141 151 112 C 171 83 198 69 232 69 Z" unicode="ð" />
<glyph horiz-adv-x="462" d="M 52 0 L 52 0 Z M 413 0 L 321 0 L 321 340 C 321 364 313 383 299 397 C 284 410 264 417 240 417 C 215 417 193 409 173 394 C 153 378 144 352 144 315 L 144 0 L 52 0 L 52 488 L 135 488 L 135 410 C 143 434 160 455 184 471 C 208 487 238 496 274 496 C 314 496 347 485 373 463 C 399 441 413 410 413 368 L 413 0 Z M 235 555 L 235 555 Z M 323 692 L 392 692 C 392 645 385 610 372 588 C 358 566 341 555 320 555 C 302 555 286 558 272 566 C 258 573 247 580 238 587 C 228 593 219 600 210 607 C 200 614 191 618 182 618 C 173 618 165 612 159 602 C 152 592 148 577 148 559 L 79 559 C 79 605 87 639 105 662 C 122 684 141 696 162 696 C 178 696 192 692 204 685 C 216 677 228 669 239 661 C 247 654 256 648 264 642 C 272 636 281 633 290 633 C 298 633 306 638 313 648 C 319 658 323 673 323 692 Z" unicode="ñ" />
<glyph horiz-adv-x="464" d="M 26 0 L 26 0 Z M 231 -7 C 202 -7 175 -1 150 9 C 125 20 103 36 85 57 C 67 78 52 104 42 135 C 31 166 26 202 26 242 C 26 279 31 313 41 345 C 51 376 65 403 83 425 C 101 447 122 465 147 477 C 171 489 198 496 227 496 C 288 496 338 474 378 431 C 418 388 438 330 438 256 C 438 216 433 180 423 148 C 413 116 398 88 380 65 C 362 42 340 24 315 12 C 289 0 261 -7 231 -7 Z M 232 71 C 266 71 292 86 312 116 C 332 146 342 190 342 248 C 342 304 332 346 312 374 C 292 402 264 417 228 417 C 196 417 170 402 151 373 C 131 344 122 301 122 245 C 122 184 132 140 153 112 C 173 84 200 71 232 71 Z M 230 548 L 230 548 Z M 329 548 L 239 548 L 130 717 L 237 717 L 329 548 Z" unicode="ò" />
<glyph horiz-adv-x="464" d="M 26 0 L 26 0 Z M 231 -7 C 202 -7 175 -1 150 9 C 125 20 103 36 85 57 C 67 78 52 104 42 135 C 31 166 26 202 26 242 C 26 279 31 313 41 345 C 51 376 65 403 83 425 C 101 447 122 465 147 477 C 171 489 198 496 227 496 C 288 496 338 474 378 431 C 418 388 438 330 438 256 C 438 216 433 180 423 148 C 413 116 398 88 380 65 C 362 42 340 24 315 12 C 289 0 261 -7 231 -7 Z M 232 71 C 266 71 292 86 312 116 C 332 146 342 190 342 248 C 342 304 332 346 312 374 C 292 402 264 417 228 417 C 196 417 170 402 151 373 C 131 344 122 301 122 245 C 122 184 132 140 153 112 C 173 84 200 71 232 71 Z M 230 549 L 230 549 Z M 131 549 L 222 718 L 329 718 L 221 549 L 131 549 Z" unicode="ó" />
<glyph horiz-adv-x="464" d="M 26 0 L 26 0 Z M 231 -7 C 202 -7 175 -1 150 9 C 125 20 103 36 85 57 C 67 78 52 104 42 135 C 31 166 26 202 26 242 C 26 279 31 313 41 345 C 51 376 65 403 83 425 C 101 447 122 465 147 477 C 171 489 198 496 227 496 C 288 496 338 474 378 431 C 418 388 438 330 438 256 C 438 216 433 180 423 148 C 413 116 398 88 380 65 C 362 42 340 24 315 12 C 289 0 261 -7 231 -7 Z M 232 71 C 266 71 292 86 312 116 C 332 146 342 190 342 248 C 342 304 332 346 312 374 C 292 402 264 417 228 417 C 196 417 170 402 151 373 C 131 344 122 301 122 245 C 122 184 132 140 153 112 C 173 84 200 71 232 71 Z M 230 549 L 230 549 Z M 378 549 L 298 549 L 230 657 L 161 549 L 83 549 L 189 720 L 272 720 L 378 549 Z" unicode="ô" />
<glyph horiz-adv-x="464" d="M 26 0 L 26 0 Z M 231 -7 C 202 -7 175 -1 150 9 C 125 20 103 36 85 57 C 67 78 52 104 42 135 C 31 166 26 202 26 242 C 26 279 31 313 41 345 C 51 376 65 403 83 425 C 101 447 122 465 147 477 C 171 489 198 496 227 496 C 288 496 338 474 378 431 C 418 388 438 330 438 256 C 438 216 433 180 423 148 C 413 116 398 88 380 65 C 362 42 340 24 315 12 C 289 0 261 -7 231 -7 Z M 232 71 C 266 71 292 86 312 116 C 332 146 342 190 342 248 C 342 304 332 346 312 374 C 292 402 264 417 228 417 C 196 417 170 402 151 373 C 131 344 122 301 122 245 C 122 184 132 140 153 112 C 173 84 200 71 232 71 Z M 230 555 L 230 555 Z M 318 692 L 387 692 C 387 645 380 610 367 588 C 353 566 336 555 315 555 C 297 555 281 558 267 566 C 253 573 242 580 233 587 C 223 593 214 600 205 607 C 195 614 186 618 177 618 C 168 618 160 612 154 602 C 147 592 143 577 143 559 L 74 559 C 74 605 82 639 100 662 C 117 684 136 696 157 696 C 173 696 187 692 199 685 C 211 677 223 669 234 661 C 242 654 251 648 259 642 C 267 636 276 633 285 633 C 293 633 301 638 308 648 C 314 658 318 673 318 692 Z" unicode="õ" />
<glyph horiz-adv-x="464" d="M 26 0 L 26 0 Z M 231 -7 C 202 -7 175 -1 150 9 C 125 20 103 36 85 57 C 67 78 52 104 42 135 C 31 166 26 202 26 242 C 26 279 31 313 41 345 C 51 376 65 403 83 425 C 101 447 122 465 147 477 C 171 489 198 496 227 496 C 288 496 338 474 378 431 C 418 388 438 330 438 256 C 438 216 433 180 423 148 C 413 116 398 88 380 65 C 362 42 340 24 315 12 C 289 0 261 -7 231 -7 Z M 232 71 C 266 71 292 86 312 116 C 332 146 342 190 342 248 C 342 304 332 346 312 374 C 292 402 264 417 228 417 C 196 417 170 402 151 373 C 131 344 122 301 122 245 C 122 184 132 140 153 112 C 173 84 200 71 232 71 Z M 230 549 L 230 549 Z M 349 549 L 273 549 L 273 707 L 349 707 L 349 549 Z M 187 549 L 111 549 L 111 707 L 187 707 L 187 549 Z" unicode="ö" />
<glyph horiz-adv-x="490" d="M 201 448 L 201 564 L 289 564 L 289 448 L 201 448 Z M 25 291 L 25 370 L 465 370 L 465 291 L 25 291 Z M 201 97 L 201 213 L 289 213 L 289 97 L 201 97 Z" unicode="÷" />
<glyph horiz-adv-x="464" d="M 438 256 C 438 216 433 180 423 148 C 413 116 398 88 380 65 C 362 42 340 24 315 12 C 289 0 261 -7 231 -7 C 206 -7 183 -3 161 5 C 139 13 120 24 103 40 L 68 -5 L 32 26 L 71 76 C 57 96 46 121 38 149 C 30 177 26 208 26 242 C 26 279 31 313 41 345 C 51 376 65 403 83 425 C 101 447 122 465 147 477 C 171 489 198 496 227 496 C 253 496 277 492 300 484 C 322 476 342 464 360 450 L 396 496 L 432 466 L 392 415 C 406 395 418 371 426 345 C 434 318 438 288 438 256 Z M 122 245 C 122 227 123 211 125 196 C 127 181 129 168 133 156 L 307 381 C 297 393 286 402 273 408 C 259 414 244 417 228 417 C 196 417 170 402 151 373 C 131 344 122 301 122 245 Z M 342 248 C 342 264 341 280 339 295 C 337 309 334 323 331 335 L 156 109 C 165 96 176 86 189 80 C 202 74 216 71 232 71 C 266 71 292 86 312 116 C 332 146 342 190 342 248 Z" unicode="ø" />
<glyph horiz-adv-x="462" d="M 49 0 L 49 0 Z M 49 488 L 141 488 L 141 157 C 141 126 148 103 164 89 C 180 74 200 67 226 67 C 250 67 272 75 291 92 C 309 109 319 137 319 175 L 319 488 L 410 488 L 410 0 L 325 0 L 325 74 C 316 51 300 32 276 16 C 252 0 223 -7 189 -7 C 151 -7 118 4 90 27 C 62 50 49 85 49 133 L 49 488 Z M 230 548 L 230 548 Z M 329 548 L 239 548 L 130 717 L 237 717 L 329 548 Z" unicode="ù" />
<glyph horiz-adv-x="462" d="M 49 0 L 49 0 Z M 49 488 L 141 488 L 141 157 C 141 126 148 103 164 89 C 180 74 200 67 226 67 C 250 67 272 75 291 92 C 309 109 319 137 319 175 L 319 488 L 410 488 L 410 0 L 325 0 L 325 74 C 316 51 300 32 276 16 C 252 0 223 -7 189 -7 C 151 -7 118 4 90 27 C 62 50 49 85 49 133 L 49 488 Z M 230 549 L 230 549 Z M 131 549 L 222 718 L 329 718 L 221 549 L 131 549 Z" unicode="ú" />
<glyph horiz-adv-x="462" d="M 49 0 L 49 0 Z M 49 488 L 141 488 L 141 157 C 141 126 148 103 164 89 C 180 74 200 67 226 67 C 250 67 272 75 291 92 C 309 109 319 137 319 175 L 319 488 L 410 488 L 410 0 L 325 0 L 325 74 C 316 51 300 32 276 16 C 252 0 223 -7 189 -7 C 151 -7 118 4 90 27 C 62 50 49 85 49 133 L 49 488 Z M 230 549 L 230 549 Z M 378 549 L 298 549 L 230 657 L 161 549 L 83 549 L 189 720 L 272 720 L 378 549 Z" unicode="û" />
<glyph horiz-adv-x="462" d="M 49 0 L 49 0 Z M 49 488 L 141 488 L 141 157 C 141 126 148 103 164 89 C 180 74 200 67 226 67 C 250 67 272 75 291 92 C 309 109 319 137 319 175 L 319 488 L 410 488 L 410 0 L 325 0 L 325 74 C 316 51 300 32 276 16 C 252 0 223 -7 189 -7 C 151 -7 118 4 90 27 C 62 50 49 85 49 133 L 49 488 Z M 230 549 L 230 549 Z M 349 549 L 273 549 L 273 707 L 349 707 L 349 549 Z M 187 549 L 111 549 L 111 707 L 187 707 L 187 549 Z" unicode="ü" />
<glyph horiz-adv-x="397" d="M 0 0 L 0 0 Z M 400 488 L 197 -96 C 183 -132 164 -159 139 -175 C 114 -191 88 -200 62 -200 C 43 -200 27 -198 14 -194 C 1 -190 -7 -186 -13 -183 L 18 -108 C 20 -110 26 -112 35 -115 C 44 -117 53 -119 62 -119 C 74 -119 86 -114 97 -104 C 108 -94 118 -79 126 -58 L 156 38 L -4 488 L 93 488 L 203 157 L 310 488 L 400 488 Z M 201 549 L 201 549 Z M 102 549 L 193 718 L 300 718 L 192 549 L 102 549 Z" unicode="ý" />
<glyph horiz-adv-x="472" d="M 52 -199 L 52 785 L 138 785 L 138 395 C 145 421 161 445 186 465 C 210 485 241 495 277 495 C 304 495 328 489 349 477 C 370 465 388 449 402 428 C 416 407 427 382 435 353 C 442 323 446 292 446 258 C 446 176 429 111 397 65 C 364 18 322 -5 272 -5 C 238 -5 210 2 187 18 C 163 34 148 52 140 74 L 140 -199 L 52 -199 Z M 242 68 C 274 68 300 82 320 112 C 340 141 350 184 350 242 C 350 294 341 336 324 368 C 306 400 280 417 244 417 C 215 417 190 403 169 377 C 147 350 137 303 137 236 C 137 172 147 128 168 104 C 188 80 213 68 242 68 Z" unicode="þ" />
<glyph horiz-adv-x="397" d="M 0 0 L 0 0 Z M 400 488 L 197 -96 C 183 -132 164 -159 139 -175 C 114 -191 88 -200 62 -200 C 43 -200 27 -198 14 -194 C 1 -190 -7 -186 -13 -183 L 18 -108 C 20 -110 26 -112 35 -115 C 44 -117 53 -119 62 -119 C 74 -119 86 -114 97 -104 C 108 -94 118 -79 126 -58 L 156 38 L -4 488 L 93 488 L 203 157 L 310 488 L 400 488 Z M 201 549 L 201 549 Z M 320 549 L 244 549 L 244 707 L 320 707 L 320 549 Z M 158 549 L 82 549 L 82 707 L 158 707 L 158 549 Z" unicode="ÿ" />
<glyph horiz-adv-x="539" d="M 2 0 L 2 0 Z M 537 0 L 439 0 L 380 182 L 152 182 L 96 0 L 2 0 L 236 734 L 303 734 L 537 0 Z M 361 261 L 266 562 L 171 261 L 361 261 Z M 267 810 L 267 810 Z M 392 810 L 142 810 L 142 883 L 392 883 L 392 810 Z" unicode="Ā" />
<glyph horiz-adv-x="427" d="M 23 0 L 23 0 Z M 379 0 L 296 0 L 296 55 C 281 36 263 21 241 10 C 219 -1 192 -7 160 -7 C 118 -7 85 6 60 33 C 35 60 23 97 23 144 C 23 197 40 237 74 263 C 108 289 151 303 203 306 L 291 312 L 291 338 C 291 366 283 386 268 400 C 252 413 230 420 202 420 C 176 420 154 415 134 407 C 114 398 97 389 85 379 L 55 447 C 71 460 93 472 121 482 C 148 492 181 498 220 498 C 266 498 304 485 334 461 C 364 436 379 399 379 349 L 379 0 Z M 293 115 L 293 245 L 215 240 C 186 238 162 230 142 215 C 122 199 112 176 112 146 C 112 119 120 99 136 86 C 152 73 170 67 192 67 C 214 67 234 71 252 81 C 270 91 283 102 293 115 Z M 208 568 L 208 568 Z M 333 568 L 83 568 L 83 641 L 333 641 L 333 568 Z" unicode="ā" />
<glyph horiz-adv-x="539" d="M 2 0 L 2 0 Z M 537 0 L 439 0 L 380 182 L 152 182 L 96 0 L 2 0 L 236 734 L 303 734 L 537 0 Z M 361 261 L 266 562 L 171 261 L 361 261 Z M 267 795 L 267 795 Z M 331 953 L 408 953 C 404 897 389 857 363 832 C 337 807 305 795 267 795 C 228 795 196 807 170 832 C 144 857 130 897 127 953 L 203 953 C 205 925 210 902 220 886 C 229 869 245 861 267 861 C 289 861 304 869 314 885 C 324 901 329 923 331 953 Z" unicode="Ă" />
<glyph horiz-adv-x="427" d="M 23 0 L 23 0 Z M 379 0 L 296 0 L 296 55 C 281 36 263 21 241 10 C 219 -1 192 -7 160 -7 C 118 -7 85 6 60 33 C 35 60 23 97 23 144 C 23 197 40 237 74 263 C 108 289 151 303 203 306 L 291 312 L 291 338 C 291 366 283 386 268 400 C 252 413 230 420 202 420 C 176 420 154 415 134 407 C 114 398 97 389 85 379 L 55 447 C 71 460 93 472 121 482 C 148 492 181 498 220 498 C 266 498 304 485 334 461 C 364 436 379 399 379 349 L 379 0 Z M 293 115 L 293 245 L 215 240 C 186 238 162 230 142 215 C 122 199 112 176 112 146 C 112 119 120 99 136 86 C 152 73 170 67 192 67 C 214 67 234 71 252 81 C 270 91 283 102 293 115 Z M 208 553 L 208 553 Z M 272 711 L 349 711 C 345 655 330 615 304 590 C 278 565 246 553 208 553 C 169 553 137 565 111 590 C 85 615 71 655 68 711 L 144 711 C 146 683 151 660 161 644 C 170 627 186 619 208 619 C 230 619 245 627 255 643 C 265 659 270 681 272 711 Z" unicode="ă" />
<glyph horiz-adv-x="539" d="M 2 0 L 2 0 Z M 537 0 L 439 0 L 380 182 L 152 182 L 96 0 L 2 0 L 236 734 L 303 734 L 537 0 Z M 361 261 L 266 562 L 171 261 L 361 261 Z M 449 -8 L 449 -8 Z M 549 -96 L 575 -134 C 555 -154 533 -170 509 -181 C 485 -192 458 -198 429 -198 C 396 -198 370 -190 352 -176 C 333 -161 324 -142 324 -120 C 324 -95 333 -72 353 -51 C 373 -29 402 -11 442 4 L 496 4 C 468 -8 446 -22 429 -38 C 411 -53 403 -68 403 -83 C 403 -97 408 -108 418 -116 C 428 -124 442 -129 459 -129 C 477 -129 494 -125 510 -119 C 525 -113 538 -105 549 -96 Z" unicode="Ą" />
<glyph horiz-adv-x="427" d="M 23 0 L 23 0 Z M 379 0 L 296 0 L 296 55 C 281 36 263 21 241 10 C 219 -1 192 -7 160 -7 C 118 -7 85 6 60 33 C 35 60 23 97 23 144 C 23 197 40 237 74 263 C 108 289 151 303 203 306 L 291 312 L 291 338 C 291 366 283 386 268 400 C 252 413 230 420 202 420 C 176 420 154 415 134 407 C 114 398 97 389 85 379 L 55 447 C 71 460 93 472 121 482 C 148 492 181 498 220 498 C 266 498 304 485 334 461 C 364 436 379 399 379 349 L 379 0 Z M 293 115 L 293 245 L 215 240 C 186 238 162 230 142 215 C 122 199 112 176 112 146 C 112 119 120 99 136 86 C 152 73 170 67 192 67 C 214 67 234 71 252 81 C 270 91 283 102 293 115 Z M 309 -8 L 309 -8 Z M 409 -96 L 435 -134 C 415 -154 393 -170 369 -181 C 345 -192 318 -198 289 -198 C 256 -198 230 -190 212 -176 C 193 -161 184 -142 184 -120 C 184 -95 193 -72 213 -51 C 233 -29 262 -11 302 4 L 356 4 C 328 -8 306 -22 289 -38 C 271 -53 263 -68 263 -83 C 263 -97 268 -108 278 -116 C 288 -124 302 -129 319 -129 C 337 -129 354 -125 370 -119 C 385 -113 398 -105 409 -96 Z" unicode="ą" />
<glyph horiz-adv-x="579" d="M 39 0 L 39 0 Z M 321 -9 C 281 -9 243 -1 209 15 C 175 31 145 54 120 86 C 94 117 74 156 60 203 C 46 250 39 304 39 366 C 39 423 45 475 58 521 C 71 567 90 607 114 639 C 138 671 168 695 203 713 C 238 730 278 739 322 739 C 384 739 433 725 469 699 C 504 673 531 640 550 600 L 468 555 C 454 581 435 603 413 621 C 391 639 361 648 323 648 C 265 648 220 624 188 578 C 155 532 139 460 139 363 C 139 312 144 269 155 233 C 165 197 179 167 197 145 C 215 123 235 106 258 96 C 281 86 305 81 329 81 C 369 81 401 90 425 109 C 449 128 469 153 485 184 L 561 142 C 540 96 510 60 470 32 C 430 4 380 -9 321 -9 Z M 324 791 L 324 791 Z M 225 791 L 316 960 L 423 960 L 315 791 L 225 791 Z" unicode="Ć" />
<glyph horiz-adv-x="407" d="M 26 0 L 26 0 Z M 336 133 L 395 84 C 382 62 363 42 338 22 C 313 2 278 -7 232 -7 C 200 -7 171 0 145 11 C 119 23 98 41 80 63 C 62 85 49 111 40 142 C 30 173 26 207 26 243 C 26 277 30 310 40 341 C 50 371 63 398 81 421 C 99 443 120 461 146 475 C 172 488 201 495 234 495 C 278 495 313 485 340 465 C 366 445 385 423 397 400 L 329 352 C 320 368 308 383 293 396 C 277 408 257 415 233 415 C 199 415 171 399 151 367 C 131 335 121 295 121 246 C 121 189 132 146 155 116 C 177 86 206 71 240 71 C 266 71 287 78 301 92 C 315 106 327 119 336 133 Z M 226 549 L 226 549 Z M 127 549 L 218 718 L 325 718 L 217 549 L 127 549 Z" unicode="ć" />
<glyph horiz-adv-x="579" d="M 39 0 L 39 0 Z M 321 -9 C 281 -9 243 -1 209 15 C 175 31 145 54 120 86 C 94 117 74 156 60 203 C 46 250 39 304 39 366 C 39 423 45 475 58 521 C 71 567 90 607 114 639 C 138 671 168 695 203 713 C 238 730 278 739 322 739 C 384 739 433 725 469 699 C 504 673 531 640 550 600 L 468 555 C 454 581 435 603 413 621 C 391 639 361 648 323 648 C 265 648 220 624 188 578 C 155 532 139 460 139 363 C 139 312 144 269 155 233 C 165 197 179 167 197 145 C 215 123 235 106 258 96 C 281 86 305 81 329 81 C 369 81 401 90 425 109 C 449 128 469 153 485 184 L 561 142 C 540 96 510 60 470 32 C 430 4 380 -9 321 -9 Z M 324 791 L 324 791 Z M 472 791 L 392 791 L 324 899 L 255 791 L 177 791 L 283 962 L 366 962 L 472 791 Z" unicode="Ĉ" />
<glyph horiz-adv-x="407" d="M 26 0 L 26 0 Z M 336 133 L 395 84 C 382 62 363 42 338 22 C 313 2 278 -7 232 -7 C 200 -7 171 0 145 11 C 119 23 98 41 80 63 C 62 85 49 111 40 142 C 30 173 26 207 26 243 C 26 277 30 310 40 341 C 50 371 63 398 81 421 C 99 443 120 461 146 475 C 172 488 201 495 234 495 C 278 495 313 485 340 465 C 366 445 385 423 397 400 L 329 352 C 320 368 308 383 293 396 C 277 408 257 415 233 415 C 199 415 171 399 151 367 C 131 335 121 295 121 246 C 121 189 132 146 155 116 C 177 86 206 71 240 71 C 266 71 287 78 301 92 C 315 106 327 119 336 133 Z M 226 549 L 226 549 Z M 374 549 L 294 549 L 226 657 L 157 549 L 79 549 L 185 720 L 268 720 L 374 549 Z" unicode="ĉ" />
<glyph horiz-adv-x="579" d="M 39 0 L 39 0 Z M 321 -9 C 281 -9 243 -1 209 15 C 175 31 145 54 120 86 C 94 117 74 156 60 203 C 46 250 39 304 39 366 C 39 423 45 475 58 521 C 71 567 90 607 114 639 C 138 671 168 695 203 713 C 238 730 278 739 322 739 C 384 739 433 725 469 699 C 504 673 531 640 550 600 L 468 555 C 454 581 435 603 413 621 C 391 639 361 648 323 648 C 265 648 220 624 188 578 C 155 532 139 460 139 363 C 139 312 144 269 155 233 C 165 197 179 167 197 145 C 215 123 235 106 258 96 C 281 86 305 81 329 81 C 369 81 401 90 425 109 C 449 128 469 153 485 184 L 561 142 C 540 96 510 60 470 32 C 430 4 380 -9 321 -9 Z M 324 798 L 324 798 Z M 367 798 L 282 798 L 282 931 L 367 931 L 367 798 Z" unicode="Ċ" />
<glyph horiz-adv-x="407" d="M 26 0 L 26 0 Z M 336 133 L 395 84 C 382 62 363 42 338 22 C 313 2 278 -7 232 -7 C 200 -7 171 0 145 11 C 119 23 98 41 80 63 C 62 85 49 111 40 142 C 30 173 26 207 26 243 C 26 277 30 310 40 341 C 50 371 63 398 81 421 C 99 443 120 461 146 475 C 172 488 201 495 234 495 C 278 495 313 485 340 465 C 366 445 385 423 397 400 L 329 352 C 320 368 308 383 293 396 C 277 408 257 415 233 415 C 199 415 171 399 151 367 C 131 335 121 295 121 246 C 121 189 132 146 155 116 C 177 86 206 71 240 71 C 266 71 287 78 301 92 C 315 106 327 119 336 133 Z M 226 556 L 226 556 Z M 269 556 L 184 556 L 184 689 L 269 689 L 269 556 Z" unicode="ċ" />
<glyph horiz-adv-x="579" d="M 39 0 L 39 0 Z M 321 -9 C 281 -9 243 -1 209 15 C 175 31 145 54 120 86 C 94 117 74 156 60 203 C 46 250 39 304 39 366 C 39 423 45 475 58 521 C 71 567 90 607 114 639 C 138 671 168 695 203 713 C 238 730 278 739 322 739 C 384 739 433 725 469 699 C 504 673 531 640 550 600 L 468 555 C 454 581 435 603 413 621 C 391 639 361 648 323 648 C 265 648 220 624 188 578 C 155 532 139 460 139 363 C 139 312 144 269 155 233 C 165 197 179 167 197 145 C 215 123 235 106 258 96 C 281 86 305 81 329 81 C 369 81 401 90 425 109 C 449 128 469 153 485 184 L 561 142 C 540 96 510 60 470 32 C 430 4 380 -9 321 -9 Z M 324 791 L 324 791 Z M 177 962 L 257 962 L 325 854 L 394 962 L 472 962 L 366 791 L 283 791 L 177 962 Z" unicode="Č" />
<glyph horiz-adv-x="407" d="M 26 0 L 26 0 Z M 336 133 L 395 84 C 382 62 363 42 338 22 C 313 2 278 -7 232 -7 C 200 -7 171 0 145 11 C 119 23 98 41 80 63 C 62 85 49 111 40 142 C 30 173 26 207 26 243 C 26 277 30 310 40 341 C 50 371 63 398 81 421 C 99 443 120 461 146 475 C 172 488 201 495 234 495 C 278 495 313 485 340 465 C 366 445 385 423 397 400 L 329 352 C 320 368 308 383 293 396 C 277 408 257 415 233 415 C 199 415 171 399 151 367 C 131 335 121 295 121 246 C 121 189 132 146 155 116 C 177 86 206 71 240 71 C 266 71 287 78 301 92 C 315 106 327 119 336 133 Z M 226 549 L 226 549 Z M 79 720 L 159 720 L 227 612 L 296 720 L 374 720 L 268 549 L 185 549 L 79 720 Z" unicode="č" />
<glyph horiz-adv-x="609" d="M 71 0 L 71 0 Z M 71 0 L 71 730 L 253 730 C 303 730 348 721 388 704 C 427 686 460 662 487 631 C 514 599 535 561 549 517 C 563 472 570 423 570 369 C 570 317 563 268 549 223 C 535 178 515 139 488 106 C 461 73 427 47 386 28 C 344 9 296 0 242 0 L 71 0 Z M 171 85 L 242 85 C 282 85 316 91 345 105 C 373 119 397 138 415 163 C 433 187 446 217 455 252 C 463 287 468 325 468 367 C 468 457 449 526 411 573 C 373 620 320 644 253 644 L 171 644 L 171 85 Z M 284 791 L 284 791 Z M 137 962 L 217 962 L 285 854 L 354 962 L 432 962 L 326 791 L 243 791 L 137 962 Z" unicode="Ď" />
<glyph horiz-adv-x="480" d="M 26 0 L 26 0 Z M 207 -6 C 179 -6 154 0 132 12 C 110 24 91 41 75 63 C 59 85 47 111 39 141 C 30 171 26 203 26 239 C 26 315 43 377 79 424 C 114 470 158 494 210 494 C 243 494 271 484 294 466 C 317 447 333 425 341 400 L 341 785 L 428 785 L 428 0 L 345 0 L 345 83 C 338 62 323 42 300 23 C 277 3 246 -6 207 -6 Z M 233 68 C 265 68 292 83 312 114 C 332 145 343 190 343 248 C 343 306 332 348 310 375 C 288 402 261 416 231 416 C 197 416 171 401 151 372 C 131 342 122 300 122 244 C 122 190 131 147 151 115 C 170 83 197 68 233 68 Z M 561 618 L 556 478 L 478 478 L 474 618 L 474 730 L 561 730 L 561 618 Z" unicode="ď" />
<glyph horiz-adv-x="609" d="M 24 0 L 24 0 Z M 570 364 C 570 313 563 265 549 221 C 535 177 515 138 488 106 C 461 73 427 47 386 28 C 344 9 296 0 242 0 L 71 0 L 71 322 L 24 322 L 24 398 L 71 398 L 71 730 L 253 730 C 303 730 348 721 388 704 C 428 686 461 662 488 630 C 514 598 535 560 549 515 C 563 469 570 419 570 364 Z M 170 79 L 241 79 C 282 79 317 86 346 100 C 375 114 399 134 417 159 C 435 184 448 214 456 249 C 464 283 469 321 469 362 C 469 457 450 529 412 578 C 374 626 321 651 254 651 L 170 651 L 170 398 L 323 398 L 323 322 L 170 322 L 170 79 Z" unicode="Đ" />
<glyph horiz-adv-x="480" d="M 345 83 C 338 62 323 42 300 23 C 277 3 246 -6 207 -6 C 179 -6 154 0 132 12 C 110 24 91 41 75 63 C 59 85 47 111 39 141 C 30 171 26 203 26 239 C 26 315 43 377 79 424 C 114 470 158 494 210 494 C 243 494 271 484 294 466 C 317 447 333 425 341 400 L 341 593 L 229 593 L 229 672 L 341 672 L 341 785 L 428 785 L 428 672 L 474 672 L 474 593 L 428 593 L 428 0 L 345 0 L 345 83 Z M 233 68 C 265 68 292 83 312 114 C 332 145 343 190 343 248 C 343 306 332 348 310 375 C 288 402 261 416 231 416 C 197 416 171 401 151 372 C 131 342 122 300 122 244 C 122 190 131 147 151 115 C 170 83 197 68 233 68 Z" unicode="đ" />
<glyph horiz-adv-x="457" d="M 71 0 L 71 0 Z M 432 0 L 71 0 L 71 730 L 414 730 L 414 641 L 169 641 L 169 408 L 403 408 L 403 320 L 169 320 L 169 89 L 432 89 L 432 0 Z M 244 810 L 244 810 Z M 369 810 L 119 810 L 119 883 L 369 883 L 369 810 Z" unicode="Ē" />
<glyph horiz-adv-x="446" d="M 26 0 L 26 0 Z M 233 -7 C 171 -7 121 15 83 59 C 45 103 26 164 26 242 C 26 280 31 314 41 345 C 51 376 66 403 84 425 C 102 447 123 465 147 477 C 171 489 198 495 227 495 C 289 495 337 471 372 423 C 406 375 424 307 424 219 L 117 219 C 117 172 128 135 150 109 C 172 83 201 70 239 70 C 270 70 295 76 313 89 C 331 101 347 115 360 130 L 409 78 C 392 57 370 38 343 20 C 316 2 279 -7 233 -7 Z M 118 286 L 334 286 C 333 326 323 359 305 383 C 286 407 261 420 229 420 C 197 420 171 407 151 383 C 131 358 120 326 118 286 Z M 227 568 L 227 568 Z M 352 568 L 102 568 L 102 641 L 352 641 L 352 568 Z" unicode="ē" />
<glyph horiz-adv-x="457" d="M 71 0 L 71 0 Z M 432 0 L 71 0 L 71 730 L 414 730 L 414 641 L 169 641 L 169 408 L 403 408 L 403 320 L 169 320 L 169 89 L 432 89 L 432 0 Z M 244 795 L 244 795 Z M 308 953 L 385 953 C 381 897 366 857 340 832 C 314 807 282 795 244 795 C 205 795 173 807 147 832 C 121 857 107 897 104 953 L 180 953 C 182 925 187 902 197 886 C 206 869 222 861 244 861 C 266 861 281 869 291 885 C 301 901 306 923 308 953 Z" unicode="Ĕ" />
<glyph horiz-adv-x="446" d="M 26 0 L 26 0 Z M 233 -7 C 171 -7 121 15 83 59 C 45 103 26 164 26 242 C 26 280 31 314 41 345 C 51 376 66 403 84 425 C 102 447 123 465 147 477 C 171 489 198 495 227 495 C 289 495 337 471 372 423 C 406 375 424 307 424 219 L 117 219 C 117 172 128 135 150 109 C 172 83 201 70 239 70 C 270 70 295 76 313 89 C 331 101 347 115 360 130 L 409 78 C 392 57 370 38 343 20 C 316 2 279 -7 233 -7 Z M 118 286 L 334 286 C 333 326 323 359 305 383 C 286 407 261 420 229 420 C 197 420 171 407 151 383 C 131 358 120 326 118 286 Z M 227 553 L 227 553 Z M 291 711 L 368 711 C 364 655 349 615 323 590 C 297 565 265 553 227 553 C 188 553 156 565 130 590 C 104 615 90 655 87 711 L 163 711 C 165 683 170 660 180 644 C 189 627 205 619 227 619 C 249 619 264 627 274 643 C 284 659 289 681 291 711 Z" unicode="ĕ" />
<glyph horiz-adv-x="457" d="M 71 0 L 71 0 Z M 432 0 L 71 0 L 71 730 L 414 730 L 414 641 L 169 641 L 169 408 L 403 408 L 403 320 L 169 320 L 169 89 L 432 89 L 432 0 Z M 244 798 L 244 798 Z M 287 798 L 202 798 L 202 931 L 287 931 L 287 798 Z" unicode="Ė" />
<glyph horiz-adv-x="446" d="M 26 0 L 26 0 Z M 233 -7 C 171 -7 121 15 83 59 C 45 103 26 164 26 242 C 26 280 31 314 41 345 C 51 376 66 403 84 425 C 102 447 123 465 147 477 C 171 489 198 495 227 495 C 289 495 337 471 372 423 C 406 375 424 307 424 219 L 117 219 C 117 172 128 135 150 109 C 172 83 201 70 239 70 C 270 70 295 76 313 89 C 331 101 347 115 360 130 L 409 78 C 392 57 370 38 343 20 C 316 2 279 -7 233 -7 Z M 118 286 L 334 286 C 333 326 323 359 305 383 C 286 407 261 420 229 420 C 197 420 171 407 151 383 C 131 358 120 326 118 286 Z M 227 556 L 227 556 Z M 270 556 L 185 556 L 185 689 L 270 689 L 270 556 Z" unicode="ė" />
<glyph horiz-adv-x="457" d="M 71 0 L 71 0 Z M 432 0 L 71 0 L 71 730 L 414 730 L 414 641 L 169 641 L 169 408 L 403 408 L 403 320 L 169 320 L 169 89 L 432 89 L 432 0 Z M 384 -8 L 384 -8 Z M 484 -96 L 510 -134 C 490 -154 468 -170 444 -181 C 420 -192 393 -198 364 -198 C 331 -198 305 -190 287 -176 C 268 -161 259 -142 259 -120 C 259 -95 268 -72 288 -51 C 308 -29 337 -11 377 4 L 431 4 C 403 -8 381 -22 364 -38 C 346 -53 338 -68 338 -83 C 338 -97 343 -108 353 -116 C 363 -124 377 -129 394 -129 C 412 -129 429 -125 445 -119 C 460 -113 473 -105 484 -96 Z" unicode="Ę" />
<glyph horiz-adv-x="446" d="M 26 0 L 26 0 Z M 233 -7 C 171 -7 121 15 83 59 C 45 103 26 164 26 242 C 26 280 31 314 41 345 C 51 376 66 403 84 425 C 102 447 123 465 147 477 C 171 489 198 495 227 495 C 289 495 337 471 372 423 C 406 375 424 307 424 219 L 117 219 C 117 172 128 135 150 109 C 172 83 201 70 239 70 C 270 70 295 76 313 89 C 331 101 347 115 360 130 L 409 78 C 392 57 370 38 343 20 C 316 2 279 -7 233 -7 Z M 118 286 L 334 286 C 333 326 323 359 305 383 C 286 407 261 420 229 420 C 197 420 171 407 151 383 C 131 358 120 326 118 286 Z M 259 -8 L 259 -8 Z M 359 -96 L 385 -134 C 365 -154 343 -170 319 -181 C 295 -192 268 -198 239 -198 C 206 -198 180 -190 162 -176 C 143 -161 134 -142 134 -120 C 134 -95 143 -72 163 -51 C 183 -29 212 -11 252 4 L 306 4 C 278 -8 256 -22 239 -38 C 221 -53 213 -68 213 -83 C 213 -97 218 -108 228 -116 C 238 -124 252 -129 269 -129 C 287 -129 304 -125 320 -119 C 335 -113 348 -105 359 -96 Z" unicode="ę" />
<glyph horiz-adv-x="457" d="M 71 0 L 71 0 Z M 432 0 L 71 0 L 71 730 L 414 730 L 414 641 L 169 641 L 169 408 L 403 408 L 403 320 L 169 320 L 169 89 L 432 89 L 432 0 Z M 244 791 L 244 791 Z M 97 962 L 177 962 L 245 854 L 314 962 L 392 962 L 286 791 L 203 791 L 97 962 Z" unicode="Ě" />
<glyph horiz-adv-x="446" d="M 26 0 L 26 0 Z M 233 -7 C 171 -7 121 15 83 59 C 45 103 26 164 26 242 C 26 280 31 314 41 345 C 51 376 66 403 84 425 C 102 447 123 465 147 477 C 171 489 198 495 227 495 C 289 495 337 471 372 423 C 406 375 424 307 424 219 L 117 219 C 117 172 128 135 150 109 C 172 83 201 70 239 70 C 270 70 295 76 313 89 C 331 101 347 115 360 130 L 409 78 C 392 57 370 38 343 20 C 316 2 279 -7 233 -7 Z M 118 286 L 334 286 C 333 326 323 359 305 383 C 286 407 261 420 229 420 C 197 420 171 407 151 383 C 131 358 120 326 118 286 Z M 227 549 L 227 549 Z M 80 720 L 160 720 L 228 612 L 297 720 L 375 720 L 269 549 L 186 549 L 80 720 Z" unicode="ě" />
<glyph horiz-adv-x="616" d="M 38 0 L 38 0 Z M 327 365 L 579 365 L 579 129 C 557 87 525 54 482 29 C 439 3 387 -9 326 -9 C 286 -9 248 0 213 17 C 178 34 148 59 122 91 C 96 123 75 162 60 208 C 45 254 38 307 38 365 C 38 421 45 473 59 519 C 73 565 93 605 119 637 C 145 669 175 694 211 712 C 247 729 286 738 328 738 C 390 738 438 725 473 700 C 507 675 533 646 551 614 L 474 562 C 460 585 441 605 419 622 C 396 639 366 648 328 648 C 272 648 227 624 192 577 C 156 529 139 458 139 364 C 139 317 143 275 153 239 C 163 203 176 173 193 149 C 210 125 230 106 254 94 C 277 81 302 75 329 75 C 367 75 399 81 427 95 C 454 109 475 129 490 155 L 490 279 L 327 279 L 327 365 Z M 327 791 L 327 791 Z M 475 791 L 395 791 L 327 899 L 258 791 L 180 791 L 286 962 L 369 962 L 475 791 Z" unicode="Ĝ" />
<glyph horiz-adv-x="478" d="M 27 0 L 27 0 Z M 208 4 C 154 4 111 26 77 70 C 43 114 27 172 27 246 C 27 322 44 383 79 428 C 114 472 157 495 209 495 C 242 495 270 485 294 467 C 318 449 334 428 343 404 L 343 488 L 427 488 L 427 24 C 427 -14 421 -46 409 -74 C 397 -102 381 -125 361 -143 C 341 -161 319 -175 293 -184 C 267 -192 241 -197 215 -197 C 176 -197 145 -193 121 -185 C 97 -177 79 -170 67 -162 L 97 -91 C 109 -97 124 -103 142 -109 C 160 -115 183 -118 210 -118 C 246 -118 276 -106 301 -82 C 326 -58 339 -23 339 23 L 339 98 C 331 74 315 53 293 33 C 270 13 242 4 208 4 Z M 233 76 C 263 76 289 90 310 119 C 331 147 342 191 342 251 C 342 307 330 348 308 376 C 286 403 260 417 231 417 C 198 417 172 402 152 372 C 132 342 122 301 122 247 C 122 193 131 151 150 121 C 169 91 197 76 233 76 Z M 225 549 L 225 549 Z M 373 549 L 293 549 L 225 657 L 156 549 L 78 549 L 184 720 L 267 720 L 373 549 Z" unicode="ĝ" />
<glyph horiz-adv-x="616" d="M 38 0 L 38 0 Z M 327 365 L 579 365 L 579 129 C 557 87 525 54 482 29 C 439 3 387 -9 326 -9 C 286 -9 248 0 213 17 C 178 34 148 59 122 91 C 96 123 75 162 60 208 C 45 254 38 307 38 365 C 38 421 45 473 59 519 C 73 565 93 605 119 637 C 145 669 175 694 211 712 C 247 729 286 738 328 738 C 390 738 438 725 473 700 C 507 675 533 646 551 614 L 474 562 C 460 585 441 605 419 622 C 396 639 366 648 328 648 C 272 648 227 624 192 577 C 156 529 139 458 139 364 C 139 317 143 275 153 239 C 163 203 176 173 193 149 C 210 125 230 106 254 94 C 277 81 302 75 329 75 C 367 75 399 81 427 95 C 454 109 475 129 490 155 L 490 279 L 327 279 L 327 365 Z M 327 795 L 327 795 Z M 391 953 L 468 953 C 464 897 449 857 423 832 C 397 807 365 795 327 795 C 288 795 256 807 230 832 C 204 857 190 897 187 953 L 263 953 C 265 925 270 902 280 886 C 289 869 305 861 327 861 C 349 861 364 869 374 885 C 384 901 389 923 391 953 Z" unicode="Ğ" />
<glyph horiz-adv-x="478" d="M 27 0 L 27 0 Z M 208 4 C 154 4 111 26 77 70 C 43 114 27 172 27 246 C 27 322 44 383 79 428 C 114 472 157 495 209 495 C 242 495 270 485 294 467 C 318 449 334 428 343 404 L 343 488 L 427 488 L 427 24 C 427 -14 421 -46 409 -74 C 397 -102 381 -125 361 -143 C 341 -161 319 -175 293 -184 C 267 -192 241 -197 215 -197 C 176 -197 145 -193 121 -185 C 97 -177 79 -170 67 -162 L 97 -91 C 109 -97 124 -103 142 -109 C 160 -115 183 -118 210 -118 C 246 -118 276 -106 301 -82 C 326 -58 339 -23 339 23 L 339 98 C 331 74 315 53 293 33 C 270 13 242 4 208 4 Z M 233 76 C 263 76 289 90 310 119 C 331 147 342 191 342 251 C 342 307 330 348 308 376 C 286 403 260 417 231 417 C 198 417 172 402 152 372 C 132 342 122 301 122 247 C 122 193 131 151 150 121 C 169 91 197 76 233 76 Z M 225 553 L 225 553 Z M 289 711 L 366 711 C 362 655 347 615 321 590 C 295 565 263 553 225 553 C 186 553 154 565 128 590 C 102 615 88 655 85 711 L 161 711 C 163 683 168 660 178 644 C 187 627 203 619 225 619 C 247 619 262 627 272 643 C 282 659 287 681 289 711 Z" unicode="ğ" />
<glyph horiz-adv-x="616" d="M 38 0 L 38 0 Z M 327 365 L 579 365 L 579 129 C 557 87 525 54 482 29 C 439 3 387 -9 326 -9 C 286 -9 248 0 213 17 C 178 34 148 59 122 91 C 96 123 75 162 60 208 C 45 254 38 307 38 365 C 38 421 45 473 59 519 C 73 565 93 605 119 637 C 145 669 175 694 211 712 C 247 729 286 738 328 738 C 390 738 438 725 473 700 C 507 675 533 646 551 614 L 474 562 C 460 585 441 605 419 622 C 396 639 366 648 328 648 C 272 648 227 624 192 577 C 156 529 139 458 139 364 C 139 317 143 275 153 239 C 163 203 176 173 193 149 C 210 125 230 106 254 94 C 277 81 302 75 329 75 C 367 75 399 81 427 95 C 454 109 475 129 490 155 L 490 279 L 327 279 L 327 365 Z M 327 798 L 327 798 Z M 370 798 L 285 798 L 285 931 L 370 931 L 370 798 Z" unicode="Ġ" />
<glyph horiz-adv-x="478" d="M 27 0 L 27 0 Z M 208 4 C 154 4 111 26 77 70 C 43 114 27 172 27 246 C 27 322 44 383 79 428 C 114 472 157 495 209 495 C 242 495 270 485 294 467 C 318 449 334 428 343 404 L 343 488 L 427 488 L 427 24 C 427 -14 421 -46 409 -74 C 397 -102 381 -125 361 -143 C 341 -161 319 -175 293 -184 C 267 -192 241 -197 215 -197 C 176 -197 145 -193 121 -185 C 97 -177 79 -170 67 -162 L 97 -91 C 109 -97 124 -103 142 -109 C 160 -115 183 -118 210 -118 C 246 -118 276 -106 301 -82 C 326 -58 339 -23 339 23 L 339 98 C 331 74 315 53 293 33 C 270 13 242 4 208 4 Z M 233 76 C 263 76 289 90 310 119 C 331 147 342 191 342 251 C 342 307 330 348 308 376 C 286 403 260 417 231 417 C 198 417 172 402 152 372 C 132 342 122 301 122 247 C 122 193 131 151 150 121 C 169 91 197 76 233 76 Z M 225 556 L 225 556 Z M 268 556 L 183 556 L 183 689 L 268 689 L 268 556 Z" unicode="ġ" />
<glyph horiz-adv-x="616" d="M 38 0 L 38 0 Z M 327 365 L 579 365 L 579 129 C 557 87 525 54 482 29 C 439 3 387 -9 326 -9 C 286 -9 248 0 213 17 C 178 34 148 59 122 91 C 96 123 75 162 60 208 C 45 254 38 307 38 365 C 38 421 45 473 59 519 C 73 565 93 605 119 637 C 145 669 175 694 211 712 C 247 729 286 738 328 738 C 390 738 438 725 473 700 C 507 675 533 646 551 614 L 474 562 C 460 585 441 605 419 622 C 396 639 366 648 328 648 C 272 648 227 624 192 577 C 156 529 139 458 139 364 C 139 317 143 275 153 239 C 163 203 176 173 193 149 C 210 125 230 106 254 94 C 277 81 302 75 329 75 C 367 75 399 81 427 95 C 454 109 475 129 490 155 L 490 279 L 327 279 L 327 365 Z" unicode="Ģ" />
<glyph horiz-adv-x="478" d="M 27 0 L 27 0 Z M 208 4 C 154 4 111 26 77 70 C 43 114 27 172 27 246 C 27 322 44 383 79 428 C 114 472 157 495 209 495 C 242 495 270 485 294 467 C 318 449 334 428 343 404 L 343 488 L 427 488 L 427 24 C 427 -14 421 -46 409 -74 C 397 -102 381 -125 361 -143 C 341 -161 319 -175 293 -184 C 267 -192 241 -197 215 -197 C 176 -197 145 -193 121 -185 C 97 -177 79 -170 67 -162 L 97 -91 C 109 -97 124 -103 142 -109 C 160 -115 183 -118 210 -118 C 246 -118 276 -106 301 -82 C 326 -58 339 -23 339 23 L 339 98 C 331 74 315 53 293 33 C 270 13 242 4 208 4 Z M 233 76 C 263 76 289 90 310 119 C 331 147 342 191 342 251 C 342 307 330 348 308 376 C 286 403 260 417 231 417 C 198 417 172 402 152 372 C 132 342 122 301 122 247 C 122 193 131 151 150 121 C 169 91 197 76 233 76 Z" unicode="ģ" />
<glyph horiz-adv-x="611" d="M 71 0 L 71 0 Z M 540 0 L 440 0 L 440 316 L 171 316 L 171 0 L 71 0 L 71 730 L 171 730 L 171 405 L 440 405 L 440 730 L 540 730 L 540 0 Z M 305 791 L 305 791 Z M 453 791 L 373 791 L 305 899 L 236 791 L 158 791 L 264 962 L 347 962 L 453 791 Z" unicode="Ĥ" />
<glyph horiz-adv-x="462" d="M 52 0 L 52 0 Z M 413 0 L 321 0 L 321 336 C 321 362 313 382 298 396 C 283 410 263 417 239 417 C 214 417 192 409 173 393 C 153 377 144 352 144 316 L 144 0 L 52 0 L 52 785 L 138 785 L 138 413 C 145 436 160 456 183 472 C 205 488 235 496 272 496 C 312 496 346 485 373 463 C 399 441 413 407 413 361 L 413 0 Z M 241 846 L 241 846 Z M 389 846 L 309 846 L 241 954 L 172 846 L 94 846 L 200 1017 L 283 1017 L 389 846 Z" unicode="ĥ" />
<glyph horiz-adv-x="611" d="M 171 316 L 171 0 L 71 0 L 71 544 L 8 544 L 8 623 L 71 623 L 71 730 L 171 730 L 171 623 L 440 623 L 440 730 L 540 730 L 540 623 L 604 623 L 604 544 L 540 544 L 540 0 L 440 0 L 440 316 L 171 316 Z M 171 405 L 440 405 L 440 544 L 171 544 L 171 405 Z" unicode="Ħ" />
<glyph horiz-adv-x="462" d="M 144 316 L 144 0 L 52 0 L 52 593 L 9 593 L 9 672 L 52 672 L 52 785 L 138 785 L 138 672 L 256 672 L 256 593 L 138 593 L 138 413 C 145 436 160 456 183 472 C 205 488 235 496 272 496 C 312 496 346 485 373 463 C 399 441 413 407 413 361 L 413 0 L 321 0 L 321 336 C 321 362 313 382 298 396 C 283 410 263 417 239 417 C 214 417 192 409 173 393 C 153 377 144 352 144 316 Z" unicode="ħ" />
<glyph horiz-adv-x="251" d="M 0 0 L 0 0 Z M 176 0 L 76 0 L 76 730 L 176 730 L 176 0 Z M 126 797 L 126 797 Z M 214 934 L 283 934 C 283 887 276 852 263 830 C 249 808 232 797 211 797 C 193 797 177 800 163 808 C 149 815 138 822 129 829 C 119 835 110 842 101 849 C 91 856 82 860 73 860 C 64 860 56 854 50 844 C 43 834 39 819 39 801 L -30 801 C -30 847 -21 881 -4 904 C 13 926 32 938 53 938 C 69 938 83 934 95 927 C 107 919 119 911 130 903 C 138 896 147 890 155 884 C 163 878 172 875 181 875 C 189 875 197 880 204 890 C 210 900 214 915 214 934 Z" unicode="Ĩ" />
<glyph horiz-adv-x="202" d="M 0 0 L 0 0 Z M 147 0 L 55 0 L 55 488 L 147 488 L 147 0 Z M 100 555 L 100 555 Z M 188 692 L 257 692 C 257 645 250 610 237 588 C 223 566 206 555 185 555 C 167 555 151 558 137 566 C 123 573 112 580 103 587 C 93 593 84 600 75 607 C 65 614 56 618 47 618 C 38 618 30 612 24 602 C 17 592 13 577 13 559 L -56 559 C -56 605 -47 639 -30 662 C -12 684 6 696 27 696 C 43 696 57 692 69 685 C 81 677 93 669 104 661 C 112 654 121 648 129 642 C 137 636 146 633 155 633 C 163 633 171 638 178 648 C 184 658 188 673 188 692 Z" unicode="ĩ" />
<glyph horiz-adv-x="251" d="M 1 0 L 1 0 Z M 176 0 L 76 0 L 76 730 L 176 730 L 176 0 Z M 126 810 L 126 810 Z M 251 810 L 1 810 L 1 883 L 251 883 L 251 810 Z" unicode="Ī" />
<glyph horiz-adv-x="202" d="M 0 0 L 0 0 Z M 147 0 L 55 0 L 55 488 L 147 488 L 147 0 Z M 100 568 L 100 568 Z M 225 568 L -25 568 L -25 641 L 225 641 L 225 568 Z" unicode="ī" />
<glyph horiz-adv-x="251" d="M 0 0 L 0 0 Z M 176 0 L 76 0 L 76 730 L 176 730 L 176 0 Z M 126 795 L 126 795 Z M 190 953 L 267 953 C 263 897 248 857 222 832 C 196 807 164 795 126 795 C 87 795 55 807 29 832 C 3 857 -10 897 -14 953 L 62 953 C 64 925 69 902 79 886 C 88 869 104 861 126 861 C 148 861 163 869 173 885 C 183 901 188 923 190 953 Z" unicode="Ĭ" />
<glyph horiz-adv-x="202" d="M 0 0 L 0 0 Z M 147 0 L 55 0 L 55 488 L 147 488 L 147 0 Z M 100 553 L 100 553 Z M 164 711 L 241 711 C 237 655 222 615 196 590 C 170 565 138 553 100 553 C 61 553 29 565 3 590 C -22 615 -36 655 -40 711 L 36 711 C 38 683 43 660 53 644 C 62 627 78 619 100 619 C 122 619 137 627 147 643 C 157 659 162 681 164 711 Z" unicode="ĭ" />
<glyph horiz-adv-x="251" d="M 0 0 L 0 0 Z M 176 0 L 76 0 L 76 730 L 176 730 L 176 0 Z M 87 -9 L 87 -9 Z M 187 -97 L 213 -135 C 193 -155 171 -171 147 -182 C 123 -193 96 -199 67 -199 C 34 -199 8 -191 -10 -177 C -28 -162 -38 -143 -38 -121 C -38 -96 -28 -73 -8 -52 C 11 -30 40 -12 80 3 L 134 3 C 106 -9 84 -23 67 -39 C 49 -54 41 -69 41 -84 C 41 -98 46 -109 56 -117 C 66 -125 80 -130 97 -130 C 115 -130 132 -126 148 -120 C 163 -114 176 -106 187 -97 Z" unicode="Į" />
<glyph horiz-adv-x="202" d="M 0 0 L 0 0 Z M 53 580 L 53 674 L 149 674 L 149 580 L 53 580 Z M 55 0 L 55 488 L 147 488 L 147 0 L 55 0 Z M 64 -8 L 64 -8 Z M 164 -96 L 190 -134 C 170 -154 148 -170 124 -181 C 100 -192 73 -198 44 -198 C 11 -198 -14 -190 -33 -176 C -51 -161 -61 -142 -61 -120 C -61 -95 -51 -72 -31 -51 C -11 -29 17 -11 57 4 L 111 4 C 83 -8 61 -22 44 -38 C 26 -53 18 -68 18 -83 C 18 -97 23 -108 33 -116 C 43 -124 57 -129 74 -129 C 92 -129 109 -125 125 -119 C 140 -113 153 -105 164 -96 Z" unicode="į" />
<glyph horiz-adv-x="251" d="M 76 0 L 76 0 Z M 176 0 L 76 0 L 76 730 L 176 730 L 176 0 Z M 126 798 L 126 798 Z M 169 798 L 84 798 L 84 931 L 169 931 L 169 798 Z" unicode="İ" />
<glyph horiz-adv-x="202" d="M 147 0 L 55 0 L 55 488 L 147 488 L 147 0 Z" unicode="ı" />
<glyph horiz-adv-x="542" d="M 76 0 L 76 0 Z M 176 0 L 76 0 L 76 730 L 176 730 L 176 0 Z M 480 730 L 480 186 C 480 158 476 133 468 109 C 460 85 448 64 433 47 C 417 29 398 16 376 6 C 354 -4 328 -9 300 -9 C 286 -9 271 -8 255 -6 C 239 -4 226 0 218 4 L 231 90 C 236 87 244 85 255 83 C 265 81 276 81 286 81 C 316 81 340 92 357 115 C 373 137 382 165 382 198 L 382 730 L 480 730 Z" unicode="Ĳ" />
<glyph horiz-adv-x="390" d="M 53 0 L 53 0 Z M 53 580 L 53 674 L 149 674 L 149 580 L 53 580 Z M 55 0 L 55 488 L 147 488 L 147 0 L 55 0 Z M 341 580 L 246 580 L 246 674 L 341 674 L 341 580 Z M 339 488 L 339 -67 C 339 -103 328 -132 307 -155 C 285 -177 258 -188 224 -188 C 208 -188 193 -186 179 -182 C 164 -178 153 -174 147 -170 L 169 -102 C 173 -104 178 -105 185 -107 C 191 -108 199 -109 207 -109 C 218 -109 228 -104 236 -95 C 244 -85 248 -72 248 -56 L 248 488 L 339 488 Z" unicode="ĳ" />
<glyph horiz-adv-x="328" d="M 1 0 L 1 0 Z M 263 730 L 263 186 C 263 158 259 133 251 109 C 243 85 231 64 216 47 C 200 29 181 16 159 6 C 137 -4 111 -9 83 -9 C 69 -9 54 -8 38 -6 C 22 -4 9 0 1 4 L 14 90 C 19 87 27 85 38 83 C 48 81 59 81 69 81 C 99 81 123 92 140 115 C 156 137 165 165 165 198 L 165 730 L 263 730 Z M 213 791 L 213 791 Z M 361 791 L 281 791 L 213 899 L 144 791 L 66 791 L 172 962 L 255 962 L 361 791 Z" unicode="Ĵ" />
<glyph horiz-adv-x="208" d="M 0 0 L 0 0 Z M 156 488 L 156 -67 C 156 -103 144 -133 122 -157 C 100 -180 72 -192 38 -192 C 23 -192 8 -190 -6 -186 C -21 -182 -32 -177 -38 -173 L -17 -105 C -13 -107 -7 -108 -1 -110 C 5 -112 13 -113 21 -113 C 33 -113 43 -107 52 -97 C 60 -87 65 -73 65 -57 L 65 488 L 156 488 Z M 109 549 L 109 549 Z M 257 549 L 177 549 L 109 657 L 40 549 L -38 549 L 68 720 L 151 720 L 257 549 Z" unicode="ĵ" />
<glyph horiz-adv-x="557" d="M 71 0 L 71 0 Z M 560 0 L 444 0 L 225 325 L 172 259 L 172 0 L 71 0 L 71 730 L 172 730 L 172 382 L 425 730 L 534 730 L 291 400 L 560 0 Z M 280 -72 L 280 -72 Z M 367 -72 C 365 -95 361 -119 355 -144 C 349 -168 341 -192 331 -215 C 321 -237 311 -258 299 -277 C 287 -296 276 -312 264 -324 L 194 -293 C 201 -283 209 -271 217 -255 C 225 -239 233 -221 241 -201 C 248 -181 254 -160 260 -138 C 265 -116 269 -94 271 -72 L 367 -72 Z" unicode="Ķ" />
<glyph horiz-adv-x="425" d="M 52 0 L 52 0 Z M 437 1 L 336 0 L 207 208 L 143 127 L 143 0 L 52 0 L 52 785 L 140 785 L 140 233 L 318 488 L 415 488 L 267 279 L 437 1 Z M 214 -72 L 214 -72 Z M 301 -72 C 299 -95 295 -119 289 -144 C 283 -168 275 -192 265 -215 C 255 -237 245 -258 233 -277 C 221 -296 210 -312 198 -324 L 128 -293 C 135 -283 143 -271 151 -255 C 159 -239 167 -221 175 -201 C 182 -181 188 -160 194 -138 C 199 -116 203 -94 205 -72 L 301 -72 Z" unicode="ķ" />
<glyph horiz-adv-x="425" d="M 437 1 L 336 0 L 207 208 L 143 127 L 143 0 L 52 0 L 52 488 L 140 488 L 140 233 L 318 488 L 415 488 L 267 279 L 437 1 Z" unicode="ĸ" />
<glyph horiz-adv-x="411" d="M 71 0 L 71 0 Z M 404 0 L 71 0 L 71 730 L 171 730 L 171 89 L 404 89 L 404 0 Z M 249 791 L 249 791 Z M 150 791 L 241 960 L 348 960 L 240 791 L 150 791 Z" unicode="Ĺ" />
<glyph horiz-adv-x="196" d="M 52 0 L 52 0 Z M 155 849 L 155 849 Z M 56 849 L 147 1018 L 254 1018 L 146 849 L 56 849 Z M 144 788 L 144 0 L 52 0 L 52 788 L 144 788 Z" unicode="ĺ" />
<glyph horiz-adv-x="411" d="M 71 0 L 71 0 Z M 404 0 L 71 0 L 71 730 L 171 730 L 171 89 L 404 89 L 404 0 Z M 223 -72 L 223 -72 Z M 310 -72 C 308 -95 304 -119 298 -144 C 292 -168 284 -192 274 -215 C 264 -237 254 -258 242 -277 C 230 -296 219 -312 207 -324 L 137 -293 C 144 -283 152 -271 160 -255 C 168 -239 176 -221 184 -201 C 191 -181 197 -160 203 -138 C 208 -116 212 -94 214 -72 L 310 -72 Z" unicode="Ļ" />
<glyph horiz-adv-x="196" d="M 0 0 L 0 0 Z M 144 788 L 144 0 L 52 0 L 52 788 L 144 788 Z M 73 -72 L 73 -72 Z M 160 -72 C 158 -95 154 -119 148 -144 C 142 -168 134 -192 124 -215 C 114 -237 104 -258 92 -277 C 80 -296 69 -312 57 -324 L -13 -293 C -5 -283 2 -271 10 -255 C 18 -239 26 -221 34 -201 C 41 -181 47 -160 53 -138 C 58 -116 62 -94 64 -72 L 160 -72 Z" unicode="ļ" />
<glyph horiz-adv-x="411" d="M 71 0 L 71 0 Z M 404 0 L 71 0 L 71 730 L 171 730 L 171 89 L 404 89 L 404 0 Z M 415 618 L 410 478 L 332 478 L 328 618 L 328 730 L 415 730 L 415 618 Z" unicode="Ľ" />
<glyph horiz-adv-x="196" d="M 52 0 L 52 0 Z M 144 788 L 144 0 L 52 0 L 52 788 L 144 788 Z M 281 618 L 276 478 L 198 478 L 194 618 L 194 730 L 281 730 L 281 618 Z" unicode="ľ" />
<glyph horiz-adv-x="411" d="M 71 0 L 71 0 Z M 404 0 L 71 0 L 71 730 L 171 730 L 171 89 L 404 89 L 404 0 Z M 305 294 L 305 294 Z M 348 294 L 263 294 L 263 427 L 348 427 L 348 294 Z" unicode="Ŀ" />
<glyph horiz-adv-x="196" d="M 52 0 L 52 0 Z M 144 788 L 144 0 L 52 0 L 52 788 L 144 788 Z M 233 216 L 233 216 Z M 276 216 L 191 216 L 191 349 L 276 349 L 276 216 Z" unicode="ŀ" />
<glyph horiz-adv-x="411" d="M 399 83 L 399 0 L 71 0 L 71 264 L 25 245 L -8 316 L 71 349 L 71 730 L 171 730 L 171 392 L 314 452 L 346 381 L 171 307 L 171 83 L 399 83 Z" unicode="Ł" />
<glyph horiz-adv-x="196" d="M 220 337 L 152 306 L 152 0 L 60 0 L 60 263 L 19 244 L -7 307 L 60 339 L 60 785 L 152 785 L 152 382 L 192 401 L 220 337 Z" unicode="ł" />
<glyph horiz-adv-x="618" d="M 71 0 L 71 0 Z M 546 0 L 476 0 L 165 515 L 165 0 L 71 0 L 71 730 L 144 730 L 455 216 L 455 730 L 546 730 L 546 0 Z M 309 791 L 309 791 Z M 210 791 L 301 960 L 408 960 L 300 791 L 210 791 Z" unicode="Ń" />
<glyph horiz-adv-x="462" d="M 52 0 L 52 0 Z M 413 0 L 321 0 L 321 340 C 321 364 313 383 299 397 C 284 410 264 417 240 417 C 215 417 193 409 173 394 C 153 378 144 352 144 315 L 144 0 L 52 0 L 52 488 L 135 488 L 135 410 C 143 434 160 455 184 471 C 208 487 238 496 274 496 C 314 496 347 485 373 463 C 399 441 413 410 413 368 L 413 0 Z M 235 549 L 235 549 Z M 136 549 L 227 718 L 334 718 L 226 549 L 136 549 Z" unicode="ń" />
<glyph horiz-adv-x="618" d="M 71 0 L 71 0 Z M 546 0 L 476 0 L 165 515 L 165 0 L 71 0 L 71 730 L 144 730 L 455 216 L 455 730 L 546 730 L 546 0 Z M 293 -72 L 293 -72 Z M 380 -72 C 378 -95 374 -119 368 -144 C 362 -168 354 -192 344 -215 C 334 -237 324 -258 312 -277 C 300 -296 289 -312 277 -324 L 207 -293 C 214 -283 222 -271 230 -255 C 238 -239 246 -221 254 -201 C 261 -181 267 -160 273 -138 C 278 -116 282 -94 284 -72 L 380 -72 Z" unicode="Ņ" />
<glyph horiz-adv-x="462" d="M 52 0 L 52 0 Z M 413 0 L 321 0 L 321 340 C 321 364 313 383 299 397 C 284 410 264 417 240 417 C 215 417 193 409 173 394 C 153 378 144 352 144 315 L 144 0 L 52 0 L 52 488 L 135 488 L 135 410 C 143 434 160 455 184 471 C 208 487 238 496 274 496 C 314 496 347 485 373 463 C 399 441 413 410 413 368 L 413 0 Z M 212 -72 L 212 -72 Z M 299 -72 C 297 -95 293 -119 287 -144 C 281 -168 273 -192 263 -215 C 253 -237 243 -258 231 -277 C 219 -296 208 -312 196 -324 L 126 -293 C 133 -283 141 -271 149 -255 C 157 -239 165 -221 173 -201 C 180 -181 186 -160 192 -138 C 197 -116 201 -94 203 -72 L 299 -72 Z" unicode="ņ" />
<glyph horiz-adv-x="618" d="M 71 0 L 71 0 Z M 546 0 L 476 0 L 165 515 L 165 0 L 71 0 L 71 730 L 144 730 L 455 216 L 455 730 L 546 730 L 546 0 Z M 309 791 L 309 791 Z M 162 962 L 242 962 L 310 854 L 379 962 L 457 962 L 351 791 L 268 791 L 162 962 Z" unicode="Ň" />
<glyph horiz-adv-x="462" d="M 52 0 L 52 0 Z M 413 0 L 321 0 L 321 340 C 321 364 313 383 299 397 C 284 410 264 417 240 417 C 215 417 193 409 173 394 C 153 378 144 352 144 315 L 144 0 L 52 0 L 52 488 L 135 488 L 135 410 C 143 434 160 455 184 471 C 208 487 238 496 274 496 C 314 496 347 485 373 463 C 399 441 413 410 413 368 L 413 0 Z M 235 549 L 235 549 Z M 88 720 L 168 720 L 236 612 L 305 720 L 383 720 L 277 549 L 194 549 L 88 720 Z" unicode="ň" />
<glyph horiz-adv-x="619" d="M 455 730 L 546 730 L 546 -2 C 546 -58 531 -105 502 -142 C 472 -179 431 -198 377 -198 C 361 -198 345 -196 329 -193 C 312 -190 299 -186 290 -182 L 302 -97 C 308 -99 316 -102 328 -104 C 340 -106 351 -108 363 -108 C 391 -108 414 -96 431 -73 C 447 -50 456 -22 456 10 L 456 33 L 165 515 L 165 0 L 71 0 L 71 730 L 144 730 L 455 216 L 455 730 Z" unicode="Ŋ" />
<glyph horiz-adv-x="462" d="M 274 496 C 314 496 347 485 373 463 C 399 441 413 410 413 368 L 413 -52 C 413 -96 401 -131 377 -159 C 353 -186 321 -200 281 -200 C 267 -200 253 -198 238 -196 C 223 -193 212 -189 205 -185 L 223 -109 C 227 -111 233 -112 241 -114 C 248 -116 256 -117 264 -117 C 280 -117 294 -109 305 -95 C 315 -80 321 -61 321 -38 L 321 340 C 321 364 313 383 299 397 C 284 410 264 417 240 417 C 215 417 193 409 173 394 C 153 378 144 352 144 315 L 144 0 L 52 0 L 52 488 L 135 488 L 135 410 C 143 434 160 455 184 471 C 208 487 238 496 274 496 Z" unicode="ŋ" />
<glyph horiz-adv-x="661" d="M 38 0 L 38 0 Z M 333 -9 C 242 -9 170 24 117 92 C 64 159 38 252 38 371 C 38 427 45 477 59 523 C 73 568 92 607 118 639 C 143 671 173 695 209 713 C 245 730 284 739 327 739 C 418 739 490 706 543 640 C 596 574 623 482 623 366 C 623 308 615 256 601 210 C 586 163 566 123 540 91 C 514 59 484 34 448 17 C 412 0 374 -9 333 -9 Z M 333 77 C 389 77 434 101 469 150 C 503 199 521 272 521 370 C 521 460 503 530 467 579 C 431 627 385 652 327 652 C 269 652 224 628 191 581 C 157 533 141 462 141 366 C 141 268 159 196 195 148 C 231 100 277 77 333 77 Z M 328 810 L 328 810 Z M 453 810 L 203 810 L 203 883 L 453 883 L 453 810 Z" unicode="Ō" />
<glyph horiz-adv-x="464" d="M 26 0 L 26 0 Z M 231 -7 C 202 -7 175 -1 150 9 C 125 20 103 36 85 57 C 67 78 52 104 42 135 C 31 166 26 202 26 242 C 26 279 31 313 41 345 C 51 376 65 403 83 425 C 101 447 122 465 147 477 C 171 489 198 496 227 496 C 288 496 338 474 378 431 C 418 388 438 330 438 256 C 438 216 433 180 423 148 C 413 116 398 88 380 65 C 362 42 340 24 315 12 C 289 0 261 -7 231 -7 Z M 232 71 C 266 71 292 86 312 116 C 332 146 342 190 342 248 C 342 304 332 346 312 374 C 292 402 264 417 228 417 C 196 417 170 402 151 373 C 131 344 122 301 122 245 C 122 184 132 140 153 112 C 173 84 200 71 232 71 Z M 230 568 L 230 568 Z M 355 568 L 105 568 L 105 641 L 355 641 L 355 568 Z" unicode="ō" />
<glyph horiz-adv-x="661" d="M 38 0 L 38 0 Z M 333 -9 C 242 -9 170 24 117 92 C 64 159 38 252 38 371 C 38 427 45 477 59 523 C 73 568 92 607 118 639 C 143 671 173 695 209 713 C 245 730 284 739 327 739 C 418 739 490 706 543 640 C 596 574 623 482 623 366 C 623 308 615 256 601 210 C 586 163 566 123 540 91 C 514 59 484 34 448 17 C 412 0 374 -9 333 -9 Z M 333 77 C 389 77 434 101 469 150 C 503 199 521 272 521 370 C 521 460 503 530 467 579 C 431 627 385 652 327 652 C 269 652 224 628 191 581 C 157 533 141 462 141 366 C 141 268 159 196 195 148 C 231 100 277 77 333 77 Z M 328 795 L 328 795 Z M 392 953 L 469 953 C 465 897 450 857 424 832 C 398 807 366 795 328 795 C 289 795 257 807 231 832 C 205 857 191 897 188 953 L 264 953 C 266 925 271 902 281 886 C 290 869 306 861 328 861 C 350 861 365 869 375 885 C 385 901 390 923 392 953 Z" unicode="Ŏ" />
<glyph horiz-adv-x="464" d="M 26 0 L 26 0 Z M 231 -7 C 202 -7 175 -1 150 9 C 125 20 103 36 85 57 C 67 78 52 104 42 135 C 31 166 26 202 26 242 C 26 279 31 313 41 345 C 51 376 65 403 83 425 C 101 447 122 465 147 477 C 171 489 198 496 227 496 C 288 496 338 474 378 431 C 418 388 438 330 438 256 C 438 216 433 180 423 148 C 413 116 398 88 380 65 C 362 42 340 24 315 12 C 289 0 261 -7 231 -7 Z M 232 71 C 266 71 292 86 312 116 C 332 146 342 190 342 248 C 342 304 332 346 312 374 C 292 402 264 417 228 417 C 196 417 170 402 151 373 C 131 344 122 301 122 245 C 122 184 132 140 153 112 C 173 84 200 71 232 71 Z M 230 553 L 230 553 Z M 294 711 L 371 711 C 367 655 352 615 326 590 C 300 565 268 553 230 553 C 191 553 159 565 133 590 C 107 615 93 655 90 711 L 166 711 C 168 683 173 660 183 644 C 192 627 208 619 230 619 C 252 619 267 627 277 643 C 287 659 292 681 294 711 Z" unicode="ŏ" />
<glyph horiz-adv-x="661" d="M 38 0 L 38 0 Z M 333 -9 C 242 -9 170 24 117 92 C 64 159 38 252 38 371 C 38 427 45 477 59 523 C 73 568 92 607 118 639 C 143 671 173 695 209 713 C 245 730 284 739 327 739 C 418 739 490 706 543 640 C 596 574 623 482 623 366 C 623 308 615 256 601 210 C 586 163 566 123 540 91 C 514 59 484 34 448 17 C 412 0 374 -9 333 -9 Z M 333 77 C 389 77 434 101 469 150 C 503 199 521 272 521 370 C 521 460 503 530 467 579 C 431 627 385 652 327 652 C 269 652 224 628 191 581 C 157 533 141 462 141 366 C 141 268 159 196 195 148 C 231 100 277 77 333 77 Z M 328 790 L 328 790 Z M 154 790 L 228 946 L 326 946 L 236 790 L 154 790 Z M 329 790 L 404 946 L 502 946 L 411 790 L 329 790 Z" unicode="Ő" />
<glyph horiz-adv-x="464" d="M 26 0 L 26 0 Z M 231 -7 C 202 -7 175 -1 150 9 C 125 20 103 36 85 57 C 67 78 52 104 42 135 C 31 166 26 202 26 242 C 26 279 31 313 41 345 C 51 376 65 403 83 425 C 101 447 122 465 147 477 C 171 489 198 496 227 496 C 288 496 338 474 378 431 C 418 388 438 330 438 256 C 438 216 433 180 423 148 C 413 116 398 88 380 65 C 362 42 340 24 315 12 C 289 0 261 -7 231 -7 Z M 232 71 C 266 71 292 86 312 116 C 332 146 342 190 342 248 C 342 304 332 346 312 374 C 292 402 264 417 228 417 C 196 417 170 402 151 373 C 131 344 122 301 122 245 C 122 184 132 140 153 112 C 173 84 200 71 232 71 Z M 230 548 L 230 548 Z M 56 548 L 130 704 L 228 704 L 138 548 L 56 548 Z M 231 548 L 306 704 L 404 704 L 313 548 L 231 548 Z" unicode="ő" />
<glyph horiz-adv-x="894" d="M 313 -8 C 230 -8 163 25 113 91 C 63 157 38 250 38 370 C 38 426 44 478 58 524 C 72 570 91 608 115 640 C 139 671 168 695 202 712 C 236 729 272 738 312 738 C 360 738 402 725 438 699 C 474 673 497 642 508 606 L 508 730 L 850 730 L 850 644 L 604 644 L 604 405 L 839 405 L 839 321 L 604 321 L 604 86 L 868 86 L 868 0 L 508 0 L 508 131 C 502 113 494 95 483 79 C 472 62 458 47 442 34 C 425 21 406 11 384 3 C 362 -4 339 -8 313 -8 Z M 326 69 C 380 69 424 94 458 144 C 492 194 509 270 509 371 C 509 419 504 461 494 497 C 484 533 470 563 453 587 C 436 611 416 628 394 640 C 371 652 347 658 323 658 C 267 658 223 634 190 586 C 156 538 140 464 140 365 C 140 264 157 189 192 141 C 227 93 272 69 326 69 Z" unicode="Œ" />
<glyph horiz-adv-x="760" d="M 228 -7 C 200 -7 173 -1 149 9 C 124 20 102 36 84 57 C 66 78 51 104 41 136 C 31 167 26 202 26 242 C 26 279 31 313 41 345 C 51 376 65 403 83 425 C 101 447 122 465 147 477 C 171 489 198 496 228 496 C 251 496 272 492 290 485 C 308 478 324 469 338 458 C 351 447 362 435 371 421 C 379 407 385 392 388 378 C 390 391 396 405 404 419 C 412 433 423 445 436 457 C 449 468 465 477 483 484 C 501 491 521 495 543 495 C 605 495 652 471 686 423 C 720 375 737 307 737 220 L 431 220 C 431 174 443 137 465 110 C 487 82 516 69 552 69 C 583 69 608 75 627 88 C 646 100 662 114 675 129 L 724 77 C 707 56 685 37 659 19 C 632 1 596 -7 550 -7 C 502 -7 465 4 437 28 C 409 52 392 78 386 107 C 382 93 375 80 367 66 C 358 52 347 40 334 30 C 321 19 306 10 288 3 C 270 -3 250 -7 228 -7 Z M 432 285 L 648 285 C 647 325 637 358 618 383 C 598 407 573 420 541 420 C 509 420 483 407 464 382 C 445 357 434 325 432 285 Z M 232 71 C 266 71 292 85 312 115 C 332 145 342 189 342 248 C 342 304 332 346 312 374 C 292 402 264 416 229 416 C 196 416 170 401 150 373 C 130 344 121 302 121 246 C 121 184 131 140 152 112 C 172 84 199 71 232 71 Z" unicode="œ" />
<glyph horiz-adv-x="514" d="M 71 0 L 71 0 Z M 71 0 L 71 730 L 251 730 C 307 730 353 713 391 680 C 428 646 447 597 447 532 C 447 474 433 428 407 393 C 380 357 348 337 310 332 L 308 328 L 504 0 L 396 0 L 216 307 L 166 307 L 166 0 L 71 0 Z M 166 391 L 235 391 C 269 391 296 402 318 424 C 340 446 351 478 351 519 C 351 561 340 592 318 613 C 296 634 268 645 236 645 L 166 645 L 166 391 Z M 243 791 L 243 791 Z M 144 791 L 235 960 L 342 960 L 234 791 L 144 791 Z" unicode="Ŕ" />
<glyph horiz-adv-x="340" d="M 52 0 L 52 0 Z M 344 465 L 310 387 C 299 397 288 403 277 407 C 265 411 253 413 240 413 C 229 413 218 411 207 407 C 195 403 185 396 176 387 C 166 377 159 365 153 350 C 147 334 144 316 144 295 L 144 0 L 52 0 L 52 488 L 140 488 L 140 404 C 146 426 160 447 181 466 C 202 485 228 495 258 495 C 277 495 294 492 309 486 C 323 480 335 473 344 465 Z M 201 549 L 201 549 Z M 102 549 L 193 718 L 300 718 L 192 549 L 102 549 Z" unicode="ŕ" />
<glyph horiz-adv-x="514" d="M 71 0 L 71 0 Z M 71 0 L 71 730 L 251 730 C 307 730 353 713 391 680 C 428 646 447 597 447 532 C 447 474 433 428 407 393 C 380 357 348 337 310 332 L 308 328 L 504 0 L 396 0 L 216 307 L 166 307 L 166 0 L 71 0 Z M 166 391 L 235 391 C 269 391 296 402 318 424 C 340 446 351 478 351 519 C 351 561 340 592 318 613 C 296 634 268 645 236 645 L 166 645 L 166 391 Z M 249 -72 L 249 -72 Z M 336 -72 C 334 -95 330 -119 324 -144 C 318 -168 310 -192 300 -215 C 290 -237 280 -258 268 -277 C 256 -296 245 -312 233 -324 L 163 -293 C 170 -283 178 -271 186 -255 C 194 -239 202 -221 210 -201 C 217 -181 223 -160 229 -138 C 234 -116 238 -94 240 -72 L 336 -72 Z" unicode="Ŗ" />
<glyph horiz-adv-x="340" d="M 52 0 L 52 0 Z M 344 465 L 310 387 C 299 397 288 403 277 407 C 265 411 253 413 240 413 C 229 413 218 411 207 407 C 195 403 185 396 176 387 C 166 377 159 365 153 350 C 147 334 144 316 144 295 L 144 0 L 52 0 L 52 488 L 140 488 L 140 404 C 146 426 160 447 181 466 C 202 485 228 495 258 495 C 277 495 294 492 309 486 C 323 480 335 473 344 465 Z M 178 -72 L 178 -72 Z M 265 -72 C 263 -95 259 -119 253 -144 C 247 -168 239 -192 229 -215 C 219 -237 209 -258 197 -277 C 185 -296 174 -312 162 -324 L 92 -293 C 99 -283 107 -271 115 -255 C 123 -239 131 -221 139 -201 C 146 -181 152 -160 158 -138 C 163 -116 167 -94 169 -72 L 265 -72 Z" unicode="ŗ" />
<glyph horiz-adv-x="514" d="M 71 0 L 71 0 Z M 71 0 L 71 730 L 251 730 C 307 730 353 713 391 680 C 428 646 447 597 447 532 C 447 474 433 428 407 393 C 380 357 348 337 310 332 L 308 328 L 504 0 L 396 0 L 216 307 L 166 307 L 166 0 L 71 0 Z M 166 391 L 235 391 C 269 391 296 402 318 424 C 340 446 351 478 351 519 C 351 561 340 592 318 613 C 296 634 268 645 236 645 L 166 645 L 166 391 Z M 243 791 L 243 791 Z M 96 962 L 176 962 L 244 854 L 313 962 L 391 962 L 285 791 L 202 791 L 96 962 Z" unicode="Ř" />
<glyph horiz-adv-x="340" d="M 52 0 L 52 0 Z M 344 465 L 310 387 C 299 397 288 403 277 407 C 265 411 253 413 240 413 C 229 413 218 411 207 407 C 195 403 185 396 176 387 C 166 377 159 365 153 350 C 147 334 144 316 144 295 L 144 0 L 52 0 L 52 488 L 140 488 L 140 404 C 146 426 160 447 181 466 C 202 485 228 495 258 495 C 277 495 294 492 309 486 C 323 480 335 473 344 465 Z M 201 549 L 201 549 Z M 54 720 L 134 720 L 202 612 L 271 720 L 349 720 L 243 549 L 160 549 L 54 720 Z" unicode="ř" />
<glyph horiz-adv-x="458" d="M 23 0 L 23 0 Z M 232 -9 C 188 -9 148 -1 114 12 C 79 26 49 49 23 81 L 82 148 C 98 124 120 105 147 92 C 173 78 200 72 228 72 C 256 72 281 81 303 101 C 324 120 335 146 335 179 C 335 211 325 239 307 261 C 289 283 256 307 208 335 C 155 363 114 394 86 426 C 57 458 43 504 43 562 C 43 615 61 658 97 690 C 133 722 179 739 233 739 C 274 739 309 732 338 718 C 367 704 391 689 410 671 L 355 601 C 340 615 322 627 301 637 C 280 646 258 651 234 651 C 207 651 184 642 165 626 C 146 609 137 586 137 557 C 137 527 145 503 163 484 C 181 464 216 441 268 413 C 326 381 368 348 392 313 C 416 278 429 235 429 184 C 429 153 423 125 412 101 C 401 77 387 57 369 41 C 351 25 330 12 306 4 C 282 -4 257 -9 232 -9 Z M 229 791 L 229 791 Z M 130 791 L 221 960 L 328 960 L 220 791 L 130 791 Z" unicode="Ś" />
<glyph horiz-adv-x="354" d="M 21 0 L 21 0 Z M 187 -7 C 151 -7 118 -1 90 11 C 61 23 38 39 21 59 L 67 122 C 81 105 98 92 118 83 C 138 73 159 69 180 69 C 198 69 213 74 227 85 C 241 95 248 111 248 131 C 248 149 240 165 225 178 C 209 190 185 204 152 220 C 114 236 85 256 65 278 C 45 300 36 331 36 369 C 36 405 49 435 77 459 C 105 483 139 495 179 495 C 211 495 239 490 263 481 C 286 471 305 460 320 448 L 279 381 C 268 389 254 398 238 406 C 221 414 203 418 185 418 C 167 418 151 413 138 405 C 124 396 118 384 118 368 C 118 352 124 339 136 329 C 148 319 172 305 208 289 C 250 268 280 246 300 224 C 320 201 330 170 330 131 C 330 108 325 88 317 71 C 309 54 298 40 285 28 C 271 16 256 8 239 2 C 221 -4 204 -7 187 -7 Z M 181 549 L 181 549 Z M 82 549 L 173 718 L 280 718 L 172 549 L 82 549 Z" unicode="ś" />
<glyph horiz-adv-x="458" d="M 23 0 L 23 0 Z M 232 -9 C 188 -9 148 -1 114 12 C 79 26 49 49 23 81 L 82 148 C 98 124 120 105 147 92 C 173 78 200 72 228 72 C 256 72 281 81 303 101 C 324 120 335 146 335 179 C 335 211 325 239 307 261 C 289 283 256 307 208 335 C 155 363 114 394 86 426 C 57 458 43 504 43 562 C 43 615 61 658 97 690 C 133 722 179 739 233 739 C 274 739 309 732 338 718 C 367 704 391 689 410 671 L 355 601 C 340 615 322 627 301 637 C 280 646 258 651 234 651 C 207 651 184 642 165 626 C 146 609 137 586 137 557 C 137 527 145 503 163 484 C 181 464 216 441 268 413 C 326 381 368 348 392 313 C 416 278 429 235 429 184 C 429 153 423 125 412 101 C 401 77 387 57 369 41 C 351 25 330 12 306 4 C 282 -4 257 -9 232 -9 Z M 229 791 L 229 791 Z M 377 791 L 297 791 L 229 899 L 160 791 L 82 791 L 188 962 L 271 962 L 377 791 Z" unicode="Ŝ" />
<glyph horiz-adv-x="354" d="M 21 0 L 21 0 Z M 187 -7 C 151 -7 118 -1 90 11 C 61 23 38 39 21 59 L 67 122 C 81 105 98 92 118 83 C 138 73 159 69 180 69 C 198 69 213 74 227 85 C 241 95 248 111 248 131 C 248 149 240 165 225 178 C 209 190 185 204 152 220 C 114 236 85 256 65 278 C 45 300 36 331 36 369 C 36 405 49 435 77 459 C 105 483 139 495 179 495 C 211 495 239 490 263 481 C 286 471 305 460 320 448 L 279 381 C 268 389 254 398 238 406 C 221 414 203 418 185 418 C 167 418 151 413 138 405 C 124 396 118 384 118 368 C 118 352 124 339 136 329 C 148 319 172 305 208 289 C 250 268 280 246 300 224 C 320 201 330 170 330 131 C 330 108 325 88 317 71 C 309 54 298 40 285 28 C 271 16 256 8 239 2 C 221 -4 204 -7 187 -7 Z M 181 549 L 181 549 Z M 329 549 L 249 549 L 181 657 L 112 549 L 34 549 L 140 720 L 223 720 L 329 549 Z" unicode="ŝ" />
<glyph horiz-adv-x="458" d="M 23 0 L 23 0 Z M 232 -9 C 188 -9 148 -1 114 12 C 79 26 49 49 23 81 L 82 148 C 98 124 120 105 147 92 C 173 78 200 72 228 72 C 256 72 281 81 303 101 C 324 120 335 146 335 179 C 335 211 325 239 307 261 C 289 283 256 307 208 335 C 155 363 114 394 86 426 C 57 458 43 504 43 562 C 43 615 61 658 97 690 C 133 722 179 739 233 739 C 274 739 309 732 338 718 C 367 704 391 689 410 671 L 355 601 C 340 615 322 627 301 637 C 280 646 258 651 234 651 C 207 651 184 642 165 626 C 146 609 137 586 137 557 C 137 527 145 503 163 484 C 181 464 216 441 268 413 C 326 381 368 348 392 313 C 416 278 429 235 429 184 C 429 153 423 125 412 101 C 401 77 387 57 369 41 C 351 25 330 12 306 4 C 282 -4 257 -9 232 -9 Z M 212 -2 L 212 -2 Z M 218 -186 C 196 -186 174 -183 152 -177 C 130 -171 113 -163 100 -154 L 116 -115 C 124 -121 136 -126 150 -132 C 164 -138 180 -141 197 -141 C 210 -141 222 -137 232 -131 C 242 -124 247 -115 247 -105 C 247 -92 242 -83 233 -78 C 224 -73 215 -71 205 -71 C 197 -71 191 -71 185 -72 C 179 -73 174 -75 168 -78 L 155 -62 L 212 11 L 263 11 L 217 -49 C 247 -44 272 -47 293 -59 C 313 -70 324 -87 324 -111 C 324 -135 313 -154 292 -167 C 271 -179 246 -186 218 -186 Z" unicode="Ş" />
<glyph horiz-adv-x="354" d="M 21 0 L 21 0 Z M 187 -7 C 151 -7 118 -1 90 11 C 61 23 38 39 21 59 L 67 122 C 81 105 98 92 118 83 C 138 73 159 69 180 69 C 198 69 213 74 227 85 C 241 95 248 111 248 131 C 248 149 240 165 225 178 C 209 190 185 204 152 220 C 114 236 85 256 65 278 C 45 300 36 331 36 369 C 36 405 49 435 77 459 C 105 483 139 495 179 495 C 211 495 239 490 263 481 C 286 471 305 460 320 448 L 279 381 C 268 389 254 398 238 406 C 221 414 203 418 185 418 C 167 418 151 413 138 405 C 124 396 118 384 118 368 C 118 352 124 339 136 329 C 148 319 172 305 208 289 C 250 268 280 246 300 224 C 320 201 330 170 330 131 C 330 108 325 88 317 71 C 309 54 298 40 285 28 C 271 16 256 8 239 2 C 221 -4 204 -7 187 -7 Z M 168 -1 L 168 -1 Z M 174 -185 C 152 -185 130 -182 108 -176 C 86 -170 69 -162 56 -153 L 72 -114 C 80 -120 92 -125 106 -131 C 120 -137 136 -140 153 -140 C 166 -140 178 -136 188 -130 C 198 -123 203 -114 203 -104 C 203 -91 198 -82 189 -77 C 180 -72 171 -70 161 -70 C 153 -70 147 -70 141 -71 C 135 -72 130 -74 124 -77 L 111 -61 L 168 12 L 219 12 L 173 -48 C 203 -43 228 -46 249 -58 C 269 -69 280 -86 280 -110 C 280 -134 269 -153 248 -166 C 227 -178 202 -185 174 -185 Z" unicode="ş" />
<glyph horiz-adv-x="458" d="M 23 0 L 23 0 Z M 232 -9 C 188 -9 148 -1 114 12 C 79 26 49 49 23 81 L 82 148 C 98 124 120 105 147 92 C 173 78 200 72 228 72 C 256 72 281 81 303 101 C 324 120 335 146 335 179 C 335 211 325 239 307 261 C 289 283 256 307 208 335 C 155 363 114 394 86 426 C 57 458 43 504 43 562 C 43 615 61 658 97 690 C 133 722 179 739 233 739 C 274 739 309 732 338 718 C 367 704 391 689 410 671 L 355 601 C 340 615 322 627 301 637 C 280 646 258 651 234 651 C 207 651 184 642 165 626 C 146 609 137 586 137 557 C 137 527 145 503 163 484 C 181 464 216 441 268 413 C 326 381 368 348 392 313 C 416 278 429 235 429 184 C 429 153 423 125 412 101 C 401 77 387 57 369 41 C 351 25 330 12 306 4 C 282 -4 257 -9 232 -9 Z M 229 791 L 229 791 Z M 82 962 L 162 962 L 230 854 L 299 962 L 377 962 L 271 791 L 188 791 L 82 962 Z" unicode="Š" />
<glyph horiz-adv-x="354" d="M 21 0 L 21 0 Z M 187 -7 C 151 -7 118 -1 90 11 C 61 23 38 39 21 59 L 67 122 C 81 105 98 92 118 83 C 138 73 159 69 180 69 C 198 69 213 74 227 85 C 241 95 248 111 248 131 C 248 149 240 165 225 178 C 209 190 185 204 152 220 C 114 236 85 256 65 278 C 45 300 36 331 36 369 C 36 405 49 435 77 459 C 105 483 139 495 179 495 C 211 495 239 490 263 481 C 286 471 305 460 320 448 L 279 381 C 268 389 254 398 238 406 C 221 414 203 418 185 418 C 167 418 151 413 138 405 C 124 396 118 384 118 368 C 118 352 124 339 136 329 C 148 319 172 305 208 289 C 250 268 280 246 300 224 C 320 201 330 170 330 131 C 330 108 325 88 317 71 C 309 54 298 40 285 28 C 271 16 256 8 239 2 C 221 -4 204 -7 187 -7 Z M 181 549 L 181 549 Z M 34 720 L 114 720 L 182 612 L 251 720 L 329 720 L 223 549 L 140 549 L 34 720 Z" unicode="š" />
<glyph horiz-adv-x="432" d="M 8 0 L 8 0 Z M 424 641 L 265 641 L 265 0 L 165 0 L 165 641 L 8 641 L 8 730 L 424 730 L 424 641 Z M 215 791 L 215 791 Z M 68 962 L 148 962 L 216 854 L 285 962 L 363 962 L 257 791 L 174 791 L 68 962 Z" unicode="Ť" />
<glyph horiz-adv-x="254" d="M 10 0 L 10 0 Z M 235 87 L 249 14 C 243 9 234 5 222 1 C 210 -3 195 -5 177 -5 C 163 -5 150 -2 136 2 C 122 6 110 13 99 23 C 88 33 79 46 72 62 C 65 78 62 97 62 120 L 62 408 L 10 408 L 10 488 L 64 488 L 64 613 L 152 624 L 152 488 L 235 488 L 235 408 L 154 408 L 154 126 C 154 110 158 98 166 90 C 174 82 184 78 198 78 C 204 78 211 79 219 81 C 226 83 231 85 235 87 Z M 342 618 L 337 478 L 259 478 L 255 618 L 255 730 L 342 730 L 342 618 Z" unicode="ť" />
<glyph horiz-adv-x="432" d="M 384 447 L 265 447 L 265 0 L 165 0 L 165 447 L 46 447 L 46 526 L 165 526 L 165 641 L 8 641 L 8 730 L 424 730 L 424 641 L 265 641 L 265 526 L 384 526 L 384 447 Z" unicode="Ŧ" />
<glyph horiz-adv-x="254" d="M 249 14 C 243 9 234 5 222 1 C 210 -3 195 -5 177 -5 C 163 -5 150 -2 136 2 C 122 6 110 13 99 23 C 88 33 79 46 72 62 C 65 78 62 97 62 120 L 62 262 L 18 262 L 18 341 L 62 341 L 62 408 L 10 408 L 10 488 L 64 488 L 64 613 L 152 624 L 152 488 L 235 488 L 235 408 L 154 408 L 154 341 L 219 341 L 219 262 L 154 262 L 154 126 C 154 110 158 98 166 90 C 174 82 184 78 198 78 C 204 78 211 79 219 81 C 226 83 231 85 235 87 L 249 14 Z" unicode="ŧ" />
<glyph horiz-adv-x="607" d="M 67 0 L 67 0 Z M 540 730 L 540 234 C 540 192 533 156 520 126 C 507 95 490 70 468 50 C 446 30 420 15 391 5 C 362 -4 331 -9 299 -9 C 267 -9 238 -4 210 5 C 182 14 157 28 136 48 C 115 68 98 93 86 124 C 73 154 67 191 67 234 L 67 730 L 165 730 L 165 232 C 165 180 178 141 204 116 C 230 91 263 79 301 79 C 339 79 371 91 398 115 C 425 139 439 178 439 232 L 439 730 L 540 730 Z M 302 797 L 302 797 Z M 390 934 L 459 934 C 459 887 452 852 439 830 C 425 808 408 797 387 797 C 369 797 353 800 339 808 C 325 815 314 822 305 829 C 295 835 286 842 277 849 C 267 856 258 860 249 860 C 240 860 232 854 226 844 C 219 834 215 819 215 801 L 146 801 C 146 847 154 881 172 904 C 189 926 208 938 229 938 C 245 938 259 934 271 927 C 283 919 295 911 306 903 C 314 896 323 890 331 884 C 339 878 348 875 357 875 C 365 875 373 880 380 890 C 386 900 390 915 390 934 Z" unicode="Ũ" />
<glyph horiz-adv-x="462" d="M 49 0 L 49 0 Z M 49 488 L 141 488 L 141 157 C 141 126 148 103 164 89 C 180 74 200 67 226 67 C 250 67 272 75 291 92 C 309 109 319 137 319 175 L 319 488 L 410 488 L 410 0 L 325 0 L 325 74 C 316 51 300 32 276 16 C 252 0 223 -7 189 -7 C 151 -7 118 4 90 27 C 62 50 49 85 49 133 L 49 488 Z M 230 555 L 230 555 Z M 318 692 L 387 692 C 387 645 380 610 367 588 C 353 566 336 555 315 555 C 297 555 281 558 267 566 C 253 573 242 580 233 587 C 223 593 214 600 205 607 C 195 614 186 618 177 618 C 168 618 160 612 154 602 C 147 592 143 577 143 559 L 74 559 C 74 605 82 639 100 662 C 117 684 136 696 157 696 C 173 696 187 692 199 685 C 211 677 223 669 234 661 C 242 654 251 648 259 642 C 267 636 276 633 285 633 C 293 633 301 638 308 648 C 314 658 318 673 318 692 Z" unicode="ũ" />
<glyph horiz-adv-x="607" d="M 67 0 L 67 0 Z M 540 730 L 540 234 C 540 192 533 156 520 126 C 507 95 490 70 468 50 C 446 30 420 15 391 5 C 362 -4 331 -9 299 -9 C 267 -9 238 -4 210 5 C 182 14 157 28 136 48 C 115 68 98 93 86 124 C 73 154 67 191 67 234 L 67 730 L 165 730 L 165 232 C 165 180 178 141 204 116 C 230 91 263 79 301 79 C 339 79 371 91 398 115 C 425 139 439 178 439 232 L 439 730 L 540 730 Z M 302 810 L 302 810 Z M 427 810 L 177 810 L 177 883 L 427 883 L 427 810 Z" unicode="Ū" />
<glyph horiz-adv-x="462" d="M 49 0 L 49 0 Z M 49 488 L 141 488 L 141 157 C 141 126 148 103 164 89 C 180 74 200 67 226 67 C 250 67 272 75 291 92 C 309 109 319 137 319 175 L 319 488 L 410 488 L 410 0 L 325 0 L 325 74 C 316 51 300 32 276 16 C 252 0 223 -7 189 -7 C 151 -7 118 4 90 27 C 62 50 49 85 49 133 L 49 488 Z M 230 568 L 230 568 Z M 355 568 L 105 568 L 105 641 L 355 641 L 355 568 Z" unicode="ū" />
<glyph horiz-adv-x="607" d="M 67 0 L 67 0 Z M 540 730 L 540 234 C 540 192 533 156 520 126 C 507 95 490 70 468 50 C 446 30 420 15 391 5 C 362 -4 331 -9 299 -9 C 267 -9 238 -4 210 5 C 182 14 157 28 136 48 C 115 68 98 93 86 124 C 73 154 67 191 67 234 L 67 730 L 165 730 L 165 232 C 165 180 178 141 204 116 C 230 91 263 79 301 79 C 339 79 371 91 398 115 C 425 139 439 178 439 232 L 439 730 L 540 730 Z M 302 795 L 302 795 Z M 366 953 L 443 953 C 439 897 424 857 398 832 C 372 807 340 795 302 795 C 263 795 231 807 205 832 C 179 857 165 897 162 953 L 238 953 C 240 925 245 902 255 886 C 264 869 280 861 302 861 C 324 861 339 869 349 885 C 359 901 364 923 366 953 Z" unicode="Ŭ" />
<glyph horiz-adv-x="462" d="M 49 0 L 49 0 Z M 49 488 L 141 488 L 141 157 C 141 126 148 103 164 89 C 180 74 200 67 226 67 C 250 67 272 75 291 92 C 309 109 319 137 319 175 L 319 488 L 410 488 L 410 0 L 325 0 L 325 74 C 316 51 300 32 276 16 C 252 0 223 -7 189 -7 C 151 -7 118 4 90 27 C 62 50 49 85 49 133 L 49 488 Z M 230 553 L 230 553 Z M 294 711 L 371 711 C 367 655 352 615 326 590 C 300 565 268 553 230 553 C 191 553 159 565 133 590 C 107 615 93 655 90 711 L 166 711 C 168 683 173 660 183 644 C 192 627 208 619 230 619 C 252 619 267 627 277 643 C 287 659 292 681 294 711 Z" unicode="ŭ" />
<glyph horiz-adv-x="607" d="M 67 0 L 67 0 Z M 540 730 L 540 234 C 540 192 533 156 520 126 C 507 95 490 70 468 50 C 446 30 420 15 391 5 C 362 -4 331 -9 299 -9 C 267 -9 238 -4 210 5 C 182 14 157 28 136 48 C 115 68 98 93 86 124 C 73 154 67 191 67 234 L 67 730 L 165 730 L 165 232 C 165 180 178 141 204 116 C 230 91 263 79 301 79 C 339 79 371 91 398 115 C 425 139 439 178 439 232 L 439 730 L 540 730 Z M 302 781 L 302 781 Z M 302 781 C 269 781 241 792 218 816 C 194 839 183 867 183 900 C 183 932 194 960 218 983 C 241 1006 269 1018 302 1018 C 334 1018 362 1006 385 983 C 408 960 420 932 420 900 C 420 867 408 839 385 816 C 362 792 334 781 302 781 Z M 302 836 C 319 836 333 842 345 854 C 357 866 363 882 363 900 C 363 917 357 932 345 944 C 333 956 319 963 302 963 C 285 963 270 956 258 944 C 246 932 240 917 240 900 C 240 882 246 866 258 854 C 270 842 285 836 302 836 Z" unicode="Ů" />
<glyph horiz-adv-x="462" d="M 49 0 L 49 0 Z M 49 488 L 141 488 L 141 157 C 141 126 148 103 164 89 C 180 74 200 67 226 67 C 250 67 272 75 291 92 C 309 109 319 137 319 175 L 319 488 L 410 488 L 410 0 L 325 0 L 325 74 C 316 51 300 32 276 16 C 252 0 223 -7 189 -7 C 151 -7 118 4 90 27 C 62 50 49 85 49 133 L 49 488 Z M 230 539 L 230 539 Z M 230 539 C 197 539 169 550 146 574 C 122 597 111 625 111 658 C 111 690 122 718 146 741 C 169 764 197 776 230 776 C 262 776 290 764 313 741 C 336 718 348 690 348 658 C 348 625 336 597 313 574 C 290 550 262 539 230 539 Z M 230 594 C 247 594 261 600 273 612 C 285 624 291 640 291 658 C 291 675 285 690 273 702 C 261 714 247 721 230 721 C 213 721 198 714 186 702 C 174 690 168 675 168 658 C 168 640 174 624 186 612 C 198 600 213 594 230 594 Z" unicode="ů" />
<glyph horiz-adv-x="607" d="M 67 0 L 67 0 Z M 540 730 L 540 234 C 540 192 533 156 520 126 C 507 95 490 70 468 50 C 446 30 420 15 391 5 C 362 -4 331 -9 299 -9 C 267 -9 238 -4 210 5 C 182 14 157 28 136 48 C 115 68 98 93 86 124 C 73 154 67 191 67 234 L 67 730 L 165 730 L 165 232 C 165 180 178 141 204 116 C 230 91 263 79 301 79 C 339 79 371 91 398 115 C 425 139 439 178 439 232 L 439 730 L 540 730 Z M 302 790 L 302 790 Z M 128 790 L 202 946 L 300 946 L 210 790 L 128 790 Z M 303 790 L 378 946 L 476 946 L 385 790 L 303 790 Z" unicode="Ű" />
<glyph horiz-adv-x="462" d="M 49 0 L 49 0 Z M 49 488 L 141 488 L 141 157 C 141 126 148 103 164 89 C 180 74 200 67 226 67 C 250 67 272 75 291 92 C 309 109 319 137 319 175 L 319 488 L 410 488 L 410 0 L 325 0 L 325 74 C 316 51 300 32 276 16 C 252 0 223 -7 189 -7 C 151 -7 118 4 90 27 C 62 50 49 85 49 133 L 49 488 Z M 230 548 L 230 548 Z M 56 548 L 130 704 L 228 704 L 138 548 L 56 548 Z M 231 548 L 306 704 L 404 704 L 313 548 L 231 548 Z" unicode="ű" />
<glyph horiz-adv-x="607" d="M 67 0 L 67 0 Z M 540 730 L 540 234 C 540 192 533 156 520 126 C 507 95 490 70 468 50 C 446 30 420 15 391 5 C 362 -4 331 -9 299 -9 C 267 -9 238 -4 210 5 C 182 14 157 28 136 48 C 115 68 98 93 86 124 C 73 154 67 191 67 234 L 67 730 L 165 730 L 165 232 C 165 180 178 141 204 116 C 230 91 263 79 301 79 C 339 79 371 91 398 115 C 425 139 439 178 439 232 L 439 730 L 540 730 Z M 336 -8 L 336 -8 Z M 436 -96 L 462 -134 C 442 -154 420 -170 396 -181 C 372 -192 345 -198 316 -198 C 283 -198 257 -190 239 -176 C 220 -161 211 -142 211 -120 C 211 -95 220 -72 240 -51 C 260 -29 289 -11 329 4 L 383 4 C 355 -8 333 -22 316 -38 C 298 -53 290 -68 290 -83 C 290 -97 295 -108 305 -116 C 315 -124 329 -129 346 -129 C 364 -129 381 -125 397 -119 C 412 -113 425 -105 436 -96 Z" unicode="Ų" />
<glyph horiz-adv-x="462" d="M 49 0 L 49 0 Z M 49 488 L 141 488 L 141 157 C 141 126 148 103 164 89 C 180 74 200 67 226 67 C 250 67 272 75 291 92 C 309 109 319 137 319 175 L 319 488 L 410 488 L 410 0 L 325 0 L 325 74 C 316 51 300 32 276 16 C 252 0 223 -7 189 -7 C 151 -7 118 4 90 27 C 62 50 49 85 49 133 L 49 488 Z M 334 -8 L 334 -8 Z M 434 -96 L 460 -134 C 440 -154 418 -170 394 -181 C 370 -192 343 -198 314 -198 C 281 -198 255 -190 237 -176 C 218 -161 209 -142 209 -120 C 209 -95 218 -72 238 -51 C 258 -29 287 -11 327 4 L 381 4 C 353 -8 331 -22 314 -38 C 296 -53 288 -68 288 -83 C 288 -97 293 -108 303 -116 C 313 -124 327 -129 344 -129 C 362 -129 379 -125 395 -119 C 410 -113 423 -105 434 -96 Z" unicode="ų" />
<glyph horiz-adv-x="769" d="M 6 0 L 6 0 Z M 753 730 L 578 -4 L 514 -4 L 380 537 L 242 -4 L 178 -4 L 6 730 L 102 730 L 220 196 L 350 730 L 418 730 L 547 195 L 665 730 L 753 730 Z M 384 791 L 384 791 Z M 532 791 L 452 791 L 384 899 L 315 791 L 237 791 L 343 962 L 426 962 L 532 791 Z" unicode="Ŵ" />
<glyph horiz-adv-x="602" d="M 2 0 L 2 0 Z M 395 -2 L 303 292 L 207 -2 L 141 -2 L 2 488 L 91 488 L 184 140 L 274 429 L 338 429 L 423 142 L 518 488 L 600 488 L 460 -2 L 395 -2 Z M 302 549 L 302 549 Z M 450 549 L 370 549 L 302 657 L 233 549 L 155 549 L 261 720 L 344 720 L 450 549 Z" unicode="ŵ" />
<glyph horiz-adv-x="519" d="M 0 0 L 0 0 Z M 528 730 L 311 312 L 311 0 L 211 0 L 211 314 L -2 730 L 109 730 L 266 412 L 428 730 L 528 730 Z M 266 791 L 266 791 Z M 414 791 L 334 791 L 266 899 L 197 791 L 119 791 L 225 962 L 308 962 L 414 791 Z" unicode="Ŷ" />
<glyph horiz-adv-x="397" d="M 0 0 L 0 0 Z M 400 488 L 197 -96 C 183 -132 164 -159 139 -175 C 114 -191 88 -200 62 -200 C 43 -200 27 -198 14 -194 C 1 -190 -7 -186 -13 -183 L 18 -108 C 20 -110 26 -112 35 -115 C 44 -117 53 -119 62 -119 C 74 -119 86 -114 97 -104 C 108 -94 118 -79 126 -58 L 156 38 L -4 488 L 93 488 L 203 157 L 310 488 L 400 488 Z M 201 549 L 201 549 Z M 349 549 L 269 549 L 201 657 L 132 549 L 54 549 L 160 720 L 243 720 L 349 549 Z" unicode="ŷ" />
<glyph horiz-adv-x="526" d="M 0 0 L 0 0 Z M 528 730 L 311 312 L 311 0 L 211 0 L 211 314 L -2 730 L 109 730 L 266 412 L 428 730 L 528 730 Z M 266 791 L 266 791 Z M 385 791 L 309 791 L 309 949 L 385 949 L 385 791 Z M 223 791 L 147 791 L 147 949 L 223 949 L 223 791 Z" unicode="Ÿ" />
<glyph horiz-adv-x="471" d="M 16 0 L 16 0 Z M 447 730 L 447 682 L 142 88 L 459 88 L 459 0 L 16 0 L 16 46 L 321 641 L 45 641 L 45 730 L 447 730 Z M 244 791 L 244 791 Z M 145 791 L 236 960 L 343 960 L 235 791 L 145 791 Z" unicode="Ź" />
<glyph horiz-adv-x="360" d="M 12 0 L 12 0 Z M 340 488 L 340 446 L 135 80 L 349 80 L 349 0 L 12 0 L 12 35 L 223 408 L 25 408 L 25 488 L 340 488 Z M 186 549 L 186 549 Z M 87 549 L 178 718 L 285 718 L 177 549 L 87 549 Z" unicode="ź" />
<glyph horiz-adv-x="471" d="M 16 0 L 16 0 Z M 447 730 L 447 682 L 142 88 L 459 88 L 459 0 L 16 0 L 16 46 L 321 641 L 45 641 L 45 730 L 447 730 Z M 244 798 L 244 798 Z M 287 798 L 202 798 L 202 931 L 287 931 L 287 798 Z" unicode="Ż" />
<glyph horiz-adv-x="360" d="M 12 0 L 12 0 Z M 340 488 L 340 446 L 135 80 L 349 80 L 349 0 L 12 0 L 12 35 L 223 408 L 25 408 L 25 488 L 340 488 Z M 186 556 L 186 556 Z M 229 556 L 144 556 L 144 689 L 229 689 L 229 556 Z" unicode="ż" />
<glyph horiz-adv-x="477" d="M 16 0 L 16 0 Z M 447 730 L 447 682 L 142 88 L 459 88 L 459 0 L 16 0 L 16 46 L 321 641 L 45 641 L 45 730 L 447 730 Z M 244 791 L 244 791 Z M 97 962 L 177 962 L 245 854 L 314 962 L 392 962 L 286 791 L 203 791 L 97 962 Z" unicode="Ž" />
<glyph horiz-adv-x="360" d="M 12 0 L 12 0 Z M 340 488 L 340 446 L 135 80 L 349 80 L 349 0 L 12 0 L 12 35 L 223 408 L 25 408 L 25 488 L 340 488 Z M 186 549 L 186 549 Z M 39 720 L 119 720 L 187 612 L 256 720 L 334 720 L 228 549 L 145 549 L 39 720 Z" unicode="ž" />
<glyph horiz-adv-x="361" d="M 184 -60 C 181 -92 168 -119 145 -143 C 121 -167 92 -179 58 -179 C 40 -179 22 -177 6 -175 C -9 -172 -22 -169 -30 -165 L -21 -97 C -16 -97 -9 -98 0 -100 C 9 -102 18 -103 27 -103 C 47 -103 64 -96 79 -83 C 94 -69 103 -50 106 -26 L 137 328 L 43 328 L 43 407 L 144 407 L 164 628 C 165 646 169 663 177 677 C 185 691 194 702 206 712 C 217 721 229 728 243 733 C 256 738 269 741 282 741 C 295 741 308 740 321 739 C 334 738 342 737 345 737 L 338 656 C 336 656 332 657 326 658 C 320 658 314 659 308 659 C 289 659 273 652 261 640 C 249 627 242 607 240 581 L 225 407 L 329 407 L 329 328 L 218 328 L 184 -60 Z" unicode="ƒ" />
<glyph horiz-adv-x="458" d="M 23 0 L 23 0 Z M 232 -9 C 188 -9 148 -1 114 12 C 79 26 49 49 23 81 L 82 148 C 98 124 120 105 147 92 C 173 78 200 72 228 72 C 256 72 281 81 303 101 C 324 120 335 146 335 179 C 335 211 325 239 307 261 C 289 283 256 307 208 335 C 155 363 114 394 86 426 C 57 458 43 504 43 562 C 43 615 61 658 97 690 C 133 722 179 739 233 739 C 274 739 309 732 338 718 C 367 704 391 689 410 671 L 355 601 C 340 615 322 627 301 637 C 280 646 258 651 234 651 C 207 651 184 642 165 626 C 146 609 137 586 137 557 C 137 527 145 503 163 484 C 181 464 216 441 268 413 C 326 381 368 348 392 313 C 416 278 429 235 429 184 C 429 153 423 125 412 101 C 401 77 387 57 369 41 C 351 25 330 12 306 4 C 282 -4 257 -9 232 -9 Z M 212 -74 L 212 -74 Z M 299 -74 C 297 -97 293 -121 287 -146 C 281 -170 273 -194 263 -217 C 253 -239 243 -260 231 -279 C 219 -298 208 -314 196 -326 L 126 -295 C 133 -285 141 -273 149 -257 C 157 -241 165 -223 173 -203 C 180 -183 186 -162 192 -140 C 197 -118 201 -96 203 -74 L 299 -74 Z" unicode="Ș" />
<glyph horiz-adv-x="354" d="M 21 0 L 21 0 Z M 187 -7 C 151 -7 118 -1 90 11 C 61 23 38 39 21 59 L 67 122 C 81 105 98 92 118 83 C 138 73 159 69 180 69 C 198 69 213 74 227 85 C 241 95 248 111 248 131 C 248 149 240 165 225 178 C 209 190 185 204 152 220 C 114 236 85 256 65 278 C 45 300 36 331 36 369 C 36 405 49 435 77 459 C 105 483 139 495 179 495 C 211 495 239 490 263 481 C 286 471 305 460 320 448 L 279 381 C 268 389 254 398 238 406 C 221 414 203 418 185 418 C 167 418 151 413 138 405 C 124 396 118 384 118 368 C 118 352 124 339 136 329 C 148 319 172 305 208 289 C 250 268 280 246 300 224 C 320 201 330 170 330 131 C 330 108 325 88 317 71 C 309 54 298 40 285 28 C 271 16 256 8 239 2 C 221 -4 204 -7 187 -7 Z M 168 -73 L 168 -73 Z M 255 -73 C 253 -96 249 -120 243 -145 C 237 -169 229 -193 219 -216 C 209 -238 199 -259 187 -278 C 175 -297 164 -313 152 -325 L 82 -294 C 89 -284 97 -272 105 -256 C 113 -240 121 -222 129 -202 C 136 -182 142 -161 148 -139 C 153 -117 157 -95 159 -73 L 255 -73 Z" unicode="ș" />
<glyph horiz-adv-x="432" d="M 8 0 L 8 0 Z M 424 641 L 265 641 L 265 0 L 165 0 L 165 641 L 8 641 L 8 730 L 424 730 L 424 641 Z M 190 -72 L 190 -72 Z M 277 -72 C 275 -95 271 -119 265 -144 C 259 -168 251 -192 241 -215 C 231 -237 221 -258 209 -277 C 197 -296 186 -312 174 -324 L 104 -293 C 111 -283 119 -271 127 -255 C 135 -239 143 -221 151 -201 C 158 -181 164 -160 170 -138 C 175 -116 179 -94 181 -72 L 277 -72 Z" unicode="Ț" />
<glyph horiz-adv-x="254" d="M 10 0 L 10 0 Z M 235 87 L 249 14 C 243 9 234 5 222 1 C 210 -3 195 -5 177 -5 C 163 -5 150 -2 136 2 C 122 6 110 13 99 23 C 88 33 79 46 72 62 C 65 78 62 97 62 120 L 62 408 L 10 408 L 10 488 L 64 488 L 64 613 L 152 624 L 152 488 L 235 488 L 235 408 L 154 408 L 154 126 C 154 110 158 98 166 90 C 174 82 184 78 198 78 C 204 78 211 79 219 81 C 226 83 231 85 235 87 Z M 125 -72 L 125 -72 Z M 212 -72 C 210 -95 206 -119 200 -144 C 194 -168 186 -192 176 -215 C 166 -237 156 -258 144 -277 C 132 -296 121 -312 109 -324 L 39 -293 C 46 -283 54 -271 62 -255 C 70 -239 78 -221 86 -201 C 93 -181 99 -160 105 -138 C 110 -116 114 -94 116 -72 L 212 -72 Z" unicode="ț" />
<glyph horiz-adv-x="208" d="M 156 488 L 156 -67 C 156 -103 144 -133 122 -157 C 100 -180 72 -192 38 -192 C 23 -192 8 -190 -6 -186 C -21 -182 -32 -177 -38 -173 L -17 -105 C -13 -107 -7 -108 -1 -110 C 5 -112 13 -113 21 -113 C 33 -113 43 -107 52 -97 C 60 -87 65 -73 65 -57 L 65 488 L 156 488 Z" unicode="ȷ" />
<glyph horiz-adv-x="500" d="M 398 549 L 318 549 L 250 657 L 181 549 L 103 549 L 209 720 L 292 720 L 398 549 Z" unicode="ˆ" />
<glyph horiz-adv-x="500" d="M 103 720 L 183 720 L 251 612 L 320 720 L 398 720 L 292 549 L 209 549 L 103 720 Z" unicode="ˇ" />
<glyph horiz-adv-x="500" d="M 314 711 L 391 711 C 387 655 372 615 346 590 C 320 565 288 553 250 553 C 211 553 179 565 153 590 C 127 615 113 655 110 711 L 186 711 C 188 683 193 660 203 644 C 212 627 228 619 250 619 C 272 619 287 627 297 643 C 307 659 312 681 314 711 Z" unicode="˘" />
<glyph horiz-adv-x="500" d="M 293 556 L 208 556 L 208 689 L 293 689 L 293 556 Z" unicode="˙" />
<glyph horiz-adv-x="503" d="M 252 539 C 219 539 191 550 168 574 C 144 597 133 625 133 658 C 133 690 144 718 168 741 C 191 764 219 776 252 776 C 284 776 312 764 335 741 C 358 718 370 690 370 658 C 370 625 358 597 335 574 C 312 550 284 539 252 539 Z M 252 594 C 269 594 283 600 295 612 C 307 624 313 640 313 658 C 313 675 307 690 295 702 C 283 714 269 721 252 721 C 235 721 220 714 208 702 C 196 690 190 675 190 658 C 190 640 196 624 208 612 C 220 600 235 594 252 594 Z" unicode="˚" />
<glyph horiz-adv-x="500" d="M 356 -88 L 382 -126 C 362 -146 340 -162 316 -173 C 292 -184 265 -190 236 -190 C 203 -190 177 -182 159 -168 C 140 -153 131 -134 131 -112 C 131 -87 140 -64 160 -43 C 180 -21 209 -3 249 12 L 303 12 C 275 0 253 -14 236 -30 C 218 -45 210 -60 210 -75 C 210 -89 215 -100 225 -108 C 235 -116 249 -121 266 -121 C 284 -121 301 -117 317 -111 C 332 -105 345 -97 356 -88 Z" unicode="˛" />
<glyph horiz-adv-x="500" d="M 341 692 L 410 692 C 410 645 403 610 390 588 C 376 566 359 555 338 555 C 320 555 304 558 290 566 C 276 573 265 580 256 587 C 246 593 237 600 228 607 C 218 614 209 618 200 618 C 191 618 183 612 177 602 C 170 592 166 577 166 559 L 97 559 C 97 605 105 639 123 662 C 140 684 159 696 180 696 C 196 696 210 692 222 685 C 234 677 246 669 257 661 C 265 654 274 648 282 642 C 290 636 299 633 308 633 C 316 633 324 638 331 648 C 337 658 341 673 341 692 Z" unicode="˜" />
<glyph horiz-adv-x="500" d="M 93 548 L 167 704 L 265 704 L 175 548 L 93 548 Z M 268 548 L 343 704 L 441 704 L 350 548 L 268 548 Z" unicode="˝" />
<glyph horiz-adv-x="0" d="M 0 548 L 0 548 Z M 99 548 L 9 548 L -100 717 L 7 717 L 99 548 Z" unicode="̀" />
<glyph horiz-adv-x="0" d="M 0 549 L 0 549 Z M -99 549 L -8 718 L 99 718 L -9 549 L -99 549 Z" unicode="́" />
<glyph horiz-adv-x="0" d="M 0 549 L 0 549 Z M 148 549 L 68 549 L 0 657 L -69 549 L -147 549 L -41 720 L 42 720 L 148 549 Z" unicode="̂" />
<glyph horiz-adv-x="0" d="M 0 555 L 0 555 Z M 88 692 L 157 692 C 157 645 150 610 137 588 C 123 566 106 555 85 555 C 67 555 51 558 37 566 C 23 573 12 580 3 587 C -6 593 -15 600 -25 607 C -34 614 -43 618 -53 618 C -61 618 -69 612 -76 602 C -82 592 -86 577 -87 559 L -156 559 C -156 605 -147 639 -130 662 C -112 684 -93 696 -73 696 C -57 696 -42 692 -30 685 C -18 677 -6 669 4 661 C 12 654 21 648 29 642 C 37 636 46 633 55 633 C 63 633 71 638 78 648 C 84 658 88 673 88 692 Z" unicode="̃" />
<glyph horiz-adv-x="0" d="M 0 568 L 0 568 Z M 125 568 L -125 568 L -125 641 L 125 641 L 125 568 Z" unicode="̄" />
<glyph horiz-adv-x="0" d="M 0 553 L 0 553 Z M 64 711 L 141 711 C 137 655 122 615 96 590 C 70 565 38 553 0 553 C -38 553 -70 565 -96 590 C -122 615 -136 655 -140 711 L -64 711 C -62 683 -56 660 -47 644 C -37 627 -22 619 0 619 C 22 619 37 627 47 643 C 57 659 62 681 64 711 Z" unicode="̆" />
<glyph horiz-adv-x="0" d="M 0 556 L 0 556 Z M 43 556 L -42 556 L -42 689 L 43 689 L 43 556 Z" unicode="̇" />
<glyph horiz-adv-x="0" d="M 0 549 L 0 549 Z M 119 549 L 43 549 L 43 707 L 119 707 L 119 549 Z M -43 549 L -119 549 L -119 707 L -43 707 L -43 549 Z" unicode="̈" />
<glyph horiz-adv-x="0" d="M 0 539 L 0 539 Z M 0 539 C -32 539 -60 550 -84 574 C -107 597 -119 625 -119 658 C -119 690 -107 718 -84 741 C -60 764 -32 776 0 776 C 32 776 60 764 83 741 C 106 718 118 690 118 658 C 118 625 106 597 83 574 C 60 550 32 539 0 539 Z M 0 594 C 17 594 31 600 43 612 C 55 624 61 640 61 658 C 61 675 55 690 43 702 C 31 714 17 721 0 721 C -16 721 -31 714 -43 702 C -55 690 -62 675 -62 658 C -62 640 -55 624 -43 612 C -31 600 -16 594 0 594 Z" unicode="̊" />
<glyph horiz-adv-x="0" d="M 0 548 L 0 548 Z M -174 548 L -100 704 L -2 704 L -92 548 L -174 548 Z M 1 548 L 76 704 L 174 704 L 83 548 L 1 548 Z" unicode="̋" />
<glyph horiz-adv-x="0" d="M 0 549 L 0 549 Z M -147 720 L -67 720 L 1 612 L 70 720 L 148 720 L 42 549 L -41 549 L -147 720 Z" unicode="̌" />
<glyph horiz-adv-x="0" d="M 0 -72 L 0 -72 Z M 87 -72 C 85 -95 81 -119 75 -144 C 69 -168 61 -192 51 -215 C 41 -237 31 -258 19 -277 C 7 -296 -4 -312 -16 -324 L -86 -293 C -78 -283 -70 -271 -62 -255 C -54 -239 -46 -221 -39 -201 C -31 -181 -25 -160 -20 -138 C -14 -116 -11 -94 -9 -72 L 87 -72 Z" unicode="̦" />
<glyph horiz-adv-x="0" d="M 0 0 L 0 0 Z M 6 -184 C -16 -184 -37 -181 -59 -175 C -81 -169 -98 -161 -112 -152 L -96 -113 C -87 -119 -75 -124 -61 -130 C -47 -136 -31 -139 -15 -139 C -1 -139 10 -135 20 -129 C 30 -122 35 -113 35 -103 C 35 -90 30 -81 21 -76 C 12 -71 3 -69 -7 -69 C -14 -69 -20 -69 -26 -70 C -32 -71 -38 -73 -44 -76 L -57 -60 L 0 13 L 51 13 L 5 -47 C 35 -42 60 -45 81 -57 C 101 -68 112 -85 112 -109 C 112 -133 101 -152 80 -165 C 59 -177 34 -184 6 -184 Z" unicode="̧" />
<glyph horiz-adv-x="0" d="M 0 0 L 0 0 Z M 100 -88 L 126 -126 C 106 -146 84 -162 60 -173 C 36 -184 9 -190 -20 -190 C -52 -190 -78 -182 -97 -168 C -115 -153 -125 -134 -125 -112 C -125 -87 -115 -64 -95 -43 C -75 -21 -46 -3 -7 12 L 47 12 C 19 0 -2 -14 -20 -30 C -37 -45 -46 -60 -46 -75 C -46 -89 -40 -100 -30 -108 C -20 -116 -6 -121 10 -121 C 28 -121 45 -117 61 -111 C 76 -105 89 -97 100 -88 Z" unicode="̨" />
<glyph horiz-adv-x="565" d="M 1 0 L 1 0 Z M 583 0 L 1 0 L 275 730 L 310 730 L 583 0 Z M 460 73 L 289 563 L 120 73 L 460 73 Z" unicode="Δ" />
<glyph horiz-adv-x="724" d="M 30 0 L 30 0 Z M 39 0 L 39 85 L 247 85 L 247 154 C 214 164 184 178 158 198 C 131 217 108 239 89 265 C 70 291 55 319 45 350 C 35 380 30 412 30 445 C 30 487 37 526 53 563 C 68 599 90 631 118 658 C 146 685 181 706 223 722 C 264 738 310 746 362 746 C 415 746 463 738 505 722 C 547 706 583 684 612 657 C 640 630 662 598 678 562 C 693 525 701 486 701 445 C 701 411 696 379 687 349 C 678 319 664 291 646 266 C 628 240 605 218 578 199 C 550 179 519 164 483 154 L 483 85 L 691 85 L 691 0 L 413 0 L 413 203 C 443 211 469 224 493 241 C 516 257 535 276 551 297 C 567 318 579 341 587 365 C 595 389 599 414 599 440 C 599 473 593 504 581 532 C 569 560 553 584 533 604 C 512 624 487 639 458 651 C 429 662 397 668 363 668 C 295 668 239 646 196 603 C 153 560 132 505 132 438 C 132 413 136 389 144 365 C 152 341 163 319 179 299 C 194 278 213 259 237 243 C 260 226 287 213 318 203 L 318 0 L 39 0 Z" unicode="Ω" />
<glyph horiz-adv-x="589" d="M 71 0 L 71 0 Z M 71 -120 L 71 501 L 162 501 L 162 164 C 162 134 174 111 198 93 C 222 75 251 66 283 66 C 299 66 316 68 333 73 C 349 78 364 86 377 96 C 390 106 401 119 409 135 C 417 150 421 168 421 188 L 421 501 L 513 501 L 513 0 L 428 0 L 428 98 C 418 70 397 46 366 26 C 334 5 301 -5 267 -6 C 243 -6 220 -2 199 8 C 178 18 164 32 156 50 L 156 -120 L 71 -120 Z" unicode="μ" />
<glyph horiz-adv-x="562" d="M 178 445 L 178 0 L 86 0 L 86 445 L 15 445 L 15 517 L 547 517 L 547 445 L 472 445 L 472 0 L 380 0 L 380 445 L 178 445 Z" unicode="π" />
<glyph horiz-adv-x="769" d="M 6 0 L 6 0 Z M 753 730 L 578 -4 L 514 -4 L 380 537 L 242 -4 L 178 -4 L 6 730 L 102 730 L 220 196 L 350 730 L 418 730 L 547 195 L 665 730 L 753 730 Z M 384 790 L 384 790 Z M 483 790 L 393 790 L 284 959 L 391 959 L 483 790 Z" unicode="Ẁ" />
<glyph horiz-adv-x="602" d="M 2 0 L 2 0 Z M 395 -2 L 303 292 L 207 -2 L 141 -2 L 2 488 L 91 488 L 184 140 L 274 429 L 338 429 L 423 142 L 518 488 L 600 488 L 460 -2 L 395 -2 Z M 302 548 L 302 548 Z M 401 548 L 311 548 L 202 717 L 309 717 L 401 548 Z" unicode="ẁ" />
<glyph horiz-adv-x="769" d="M 6 0 L 6 0 Z M 753 730 L 578 -4 L 514 -4 L 380 537 L 242 -4 L 178 -4 L 6 730 L 102 730 L 220 196 L 350 730 L 418 730 L 547 195 L 665 730 L 753 730 Z M 384 791 L 384 791 Z M 285 791 L 376 960 L 483 960 L 375 791 L 285 791 Z" unicode="Ẃ" />
<glyph horiz-adv-x="602" d="M 2 0 L 2 0 Z M 395 -2 L 303 292 L 207 -2 L 141 -2 L 2 488 L 91 488 L 184 140 L 274 429 L 338 429 L 423 142 L 518 488 L 600 488 L 460 -2 L 395 -2 Z M 302 549 L 302 549 Z M 203 549 L 294 718 L 401 718 L 293 549 L 203 549 Z" unicode="ẃ" />
<glyph horiz-adv-x="769" d="M 6 0 L 6 0 Z M 753 730 L 578 -4 L 514 -4 L 380 537 L 242 -4 L 178 -4 L 6 730 L 102 730 L 220 196 L 350 730 L 418 730 L 547 195 L 665 730 L 753 730 Z M 384 791 L 384 791 Z M 503 791 L 427 791 L 427 949 L 503 949 L 503 791 Z M 341 791 L 265 791 L 265 949 L 341 949 L 341 791 Z" unicode="Ẅ" />
<glyph horiz-adv-x="602" d="M 2 0 L 2 0 Z M 395 -2 L 303 292 L 207 -2 L 141 -2 L 2 488 L 91 488 L 184 140 L 274 429 L 338 429 L 423 142 L 518 488 L 600 488 L 460 -2 L 395 -2 Z M 302 549 L 302 549 Z M 421 549 L 345 549 L 345 707 L 421 707 L 421 549 Z M 259 549 L 183 549 L 183 707 L 259 707 L 259 549 Z" unicode="ẅ" />
<glyph horiz-adv-x="519" d="M 0 0 L 0 0 Z M 528 730 L 311 312 L 311 0 L 211 0 L 211 314 L -2 730 L 109 730 L 266 412 L 428 730 L 528 730 Z M 266 790 L 266 790 Z M 365 790 L 275 790 L 166 959 L 273 959 L 365 790 Z" unicode="Ỳ" />
<glyph horiz-adv-x="397" d="M 0 0 L 0 0 Z M 400 488 L 197 -96 C 183 -132 164 -159 139 -175 C 114 -191 88 -200 62 -200 C 43 -200 27 -198 14 -194 C 1 -190 -7 -186 -13 -183 L 18 -108 C 20 -110 26 -112 35 -115 C 44 -117 53 -119 62 -119 C 74 -119 86 -114 97 -104 C 108 -94 118 -79 126 -58 L 156 38 L -4 488 L 93 488 L 203 157 L 310 488 L 400 488 Z M 201 548 L 201 548 Z M 300 548 L 210 548 L 101 717 L 208 717 L 300 548 Z" unicode="ỳ" />
<glyph horiz-adv-x="460" d="M 420 221 L 41 221 L 41 301 L 420 301 L 420 221 Z" unicode="–" />
<glyph horiz-adv-x="645" d="M 605 221 L 41 221 L 41 301 L 605 301 L 605 221 Z" unicode="—" />
<glyph horiz-adv-x="243" d="M 38 507 L 38 514 C 38 555 46 594 62 632 C 78 669 102 704 134 737 L 223 731 C 213 721 202 708 192 694 C 182 680 172 663 163 645 C 154 627 147 607 141 585 C 135 563 133 539 133 515 L 133 507 L 38 507 Z" unicode="‘" />
<glyph horiz-adv-x="243" d="M 205 737 L 205 730 C 205 689 197 650 181 613 C 165 576 141 541 109 507 L 20 513 C 30 523 40 536 50 551 C 60 565 70 582 79 600 C 88 618 95 637 101 659 C 107 681 110 704 110 729 L 110 737 L 205 737 Z" unicode="’" />
<glyph horiz-adv-x="244" d="M 204 112 L 204 105 C 204 64 196 25 180 -11 C 164 -48 140 -84 108 -118 L 19 -112 C 29 -101 39 -88 49 -74 C 59 -59 69 -43 78 -25 C 87 -7 94 12 100 34 C 106 56 109 79 109 104 L 109 112 L 204 112 Z" unicode="‚" />
<glyph horiz-adv-x="401" d="M 207 507 L 207 514 C 207 552 215 589 231 626 C 247 663 273 700 307 737 L 391 731 C 381 721 371 709 360 695 C 349 680 339 663 329 645 C 319 627 311 607 305 585 C 299 563 296 539 296 515 L 296 507 L 207 507 Z M 39 507 L 39 514 C 39 552 47 589 64 626 C 81 663 106 700 139 737 L 223 731 C 214 721 204 709 193 695 C 182 681 172 664 162 646 C 152 628 144 607 138 585 C 131 563 128 539 128 515 L 128 507 L 39 507 Z" unicode="“" />
<glyph horiz-adv-x="401" d="M 198 737 L 198 730 C 198 689 190 650 175 614 C 159 577 135 541 103 507 L 20 513 C 40 535 60 565 80 601 C 100 637 110 679 110 729 L 110 737 L 198 737 Z M 362 737 L 362 730 C 362 689 354 650 338 613 C 322 576 298 541 267 507 L 184 513 C 204 535 224 565 244 601 C 263 637 273 679 273 729 L 273 737 L 362 737 Z" unicode="”" />
<glyph horiz-adv-x="404" d="M 198 114 L 198 107 C 198 65 190 26 175 -10 C 159 -46 135 -82 103 -116 L 19 -110 C 40 -87 60 -58 80 -22 C 99 13 109 56 109 106 L 109 114 L 198 114 Z M 364 114 L 364 107 C 364 65 356 26 340 -10 C 324 -46 301 -82 270 -116 L 186 -110 C 206 -87 226 -58 246 -22 C 265 13 275 56 275 106 L 275 114 L 364 114 Z" unicode="„" />
<glyph horiz-adv-x="462" d="M 442 383 L 277 383 L 277 -179 L 180 -179 L 180 383 L 21 383 L 21 471 L 180 471 L 180 730 L 277 730 L 277 471 L 442 471 L 442 383 Z" unicode="†" />
<glyph horiz-adv-x="468" d="M 183 -179 L 183 108 L 28 108 L 28 197 L 183 197 L 183 380 L 28 380 L 28 468 L 183 468 L 183 730 L 280 730 L 280 468 L 441 468 L 441 380 L 280 380 L 280 197 L 441 197 L 441 108 L 280 108 L 280 -179 L 183 -179 Z" unicode="‡" />
<glyph horiz-adv-x="382" d="M 191 465 C 215 465 235 456 252 440 C 268 423 277 403 277 379 C 277 355 268 334 252 318 C 235 302 215 294 191 294 C 167 294 146 302 130 318 C 114 334 106 355 106 379 C 106 403 114 423 130 440 C 146 456 167 465 191 465 Z" unicode="•" />
<glyph horiz-adv-x="651" d="M 62 0 L 62 126 L 156 126 L 156 0 L 62 0 Z M 279 0 L 279 126 L 372 126 L 372 0 L 279 0 Z M 495 0 L 495 126 L 589 126 L 589 0 L 495 0 Z" unicode="…" />
<glyph horiz-adv-x="1049" d="M 181 360 C 163 360 146 364 129 372 C 111 380 96 392 83 408 C 69 424 58 443 50 467 C 42 491 38 518 38 550 C 38 576 41 601 49 624 C 56 647 66 667 79 684 C 91 701 106 715 124 725 C 141 735 160 740 180 740 C 202 740 222 735 240 725 C 258 715 273 701 286 684 C 299 667 309 647 316 625 C 323 602 327 578 327 553 C 327 526 323 501 316 477 C 308 453 298 433 285 416 C 272 398 257 385 239 375 C 221 365 201 360 181 360 Z M 101 0 L 533 730 L 607 730 L 175 0 L 101 0 Z M 116 550 C 116 518 121 490 131 466 C 141 442 158 431 181 431 C 205 431 223 443 233 467 C 243 491 249 518 249 550 C 249 580 244 608 234 632 C 224 656 207 669 183 669 C 159 669 141 656 131 632 C 121 608 116 580 116 550 Z M 539 -3 C 521 -3 503 1 486 9 C 468 17 453 29 439 45 C 425 61 414 80 406 104 C 398 128 394 155 394 187 C 394 213 397 238 405 261 C 412 284 422 304 435 321 C 448 338 464 352 482 362 C 500 372 519 377 541 377 C 563 377 583 372 601 362 C 619 352 634 338 647 321 C 659 304 669 284 676 262 C 682 239 686 215 686 190 C 686 162 682 137 675 113 C 668 89 658 69 645 52 C 632 35 617 22 599 12 C 581 2 561 -3 539 -3 Z M 864 -3 C 846 -3 828 1 811 9 C 793 17 778 29 764 45 C 750 61 739 80 731 104 C 723 128 719 155 719 187 C 719 213 722 238 730 261 C 737 284 747 304 760 321 C 773 338 789 352 807 362 C 825 372 844 377 866 377 C 888 377 908 372 926 362 C 944 352 959 338 972 321 C 984 304 994 284 1001 262 C 1007 239 1011 215 1011 190 C 1011 162 1007 137 1000 113 C 992 89 982 69 970 52 C 957 35 941 22 923 12 C 905 2 885 -3 864 -3 Z M 538 69 C 562 69 580 80 592 104 C 603 127 609 155 609 187 C 609 217 603 245 593 269 C 582 293 564 306 540 306 C 518 306 501 294 490 270 C 478 246 473 219 473 187 C 473 154 478 126 489 103 C 500 80 516 69 538 69 Z M 864 69 C 888 69 906 80 917 104 C 928 127 934 155 934 187 C 934 217 928 245 918 269 C 907 293 890 306 866 306 C 843 306 826 294 815 270 C 803 246 798 219 798 187 C 798 154 803 126 814 103 C 825 80 842 69 864 69 Z" unicode="‰" />
<glyph horiz-adv-x="238" d="M 209 96 L 28 263 L 28 319 L 209 485 L 209 393 L 108 289 L 209 190 L 209 96 Z" unicode="‹" />
<glyph horiz-adv-x="239" d="M 29 486 L 212 318 L 212 262 L 29 97 L 29 188 L 130 292 L 29 391 L 29 486 Z" unicode="›" />
<glyph horiz-adv-x="145" d="M 303 730 L -66 0 L -145 0 L 224 730 L 303 730 Z" unicode="⁄" />
<glyph horiz-adv-x="327" d="M 15 455 L 15 511 L 201 738 L 254 738 L 254 514 L 315 514 L 315 455 L 254 455 L 254 373 L 178 373 L 178 455 L 15 455 Z M 87 509 L 180 509 L 180 626 L 87 509 Z" unicode="⁴" />
<glyph horiz-adv-x="503" d="M 489 116 C 471 78 445 48 411 24 C 377 0 339 -12 298 -12 C 243 -12 196 11 156 59 C 116 106 90 172 78 257 L 30 257 L 30 327 L 72 327 C 71 332 71 338 71 344 C 71 350 71 356 71 362 C 71 367 71 372 71 378 C 71 384 71 389 72 394 L 30 394 L 30 464 L 77 464 C 82 505 91 543 103 577 C 115 611 131 641 149 665 C 167 689 189 708 214 722 C 238 735 266 742 297 742 C 348 742 388 730 417 707 C 446 683 468 656 482 626 L 415 584 C 403 606 388 624 371 639 C 353 653 330 661 300 661 C 266 661 237 644 213 610 C 189 576 173 528 165 464 L 445 464 L 445 394 L 160 394 C 159 388 159 383 159 377 C 159 371 159 366 159 361 C 159 355 159 349 159 343 C 159 337 159 332 160 327 L 445 327 L 445 257 L 166 257 C 176 193 193 145 219 114 C 244 82 272 67 303 67 C 331 67 356 76 376 95 C 396 113 412 136 424 162 L 489 116 Z" unicode="€" />
<glyph horiz-adv-x="855" d="M 803 320 L 722 320 L 722 594 L 594 398 L 574 398 L 447 593 L 447 320 L 368 320 L 368 730 L 446 730 L 585 516 L 727 730 L 803 730 L 803 320 Z M 339 641 L 227 641 L 227 320 L 136 320 L 136 641 L 20 641 L 20 730 L 339 730 L 339 641 Z" unicode="™" />
<glyph horiz-adv-x="732" d="M 39 0 L 39 85 L 247 85 L 247 154 C 214 164 184 178 158 198 C 131 217 108 239 89 265 C 70 291 55 319 45 350 C 35 380 30 412 30 445 C 30 487 37 526 53 563 C 68 599 90 631 118 658 C 146 685 181 706 223 722 C 264 738 310 746 362 746 C 415 746 463 738 505 722 C 547 706 583 684 612 657 C 640 630 662 598 678 562 C 693 525 701 486 701 445 C 701 411 696 379 687 349 C 678 319 664 291 646 266 C 628 240 605 218 578 199 C 550 179 519 164 483 154 L 483 85 L 691 85 L 691 0 L 413 0 L 413 203 C 443 211 469 224 493 241 C 516 257 535 276 551 297 C 567 318 579 341 587 365 C 595 389 599 414 599 440 C 599 473 593 504 581 532 C 569 560 553 584 533 604 C 512 624 487 639 458 651 C 429 662 397 668 363 668 C 295 668 239 646 196 603 C 153 560 132 505 132 438 C 132 413 136 389 144 365 C 152 341 163 319 179 299 C 194 278 213 259 237 243 C 260 226 287 213 318 203 L 318 0 L 39 0 Z" unicode="Ω" />
<glyph horiz-adv-x="494" d="M 454 279 C 454 228 448 184 437 148 C 426 112 411 82 392 59 C 372 35 350 18 324 7 C 298 -3 271 -9 242 -9 C 214 -9 188 -4 163 6 C 137 16 115 30 95 50 C 75 69 60 93 48 121 C 36 149 30 182 30 219 C 30 253 35 284 45 313 C 55 341 70 366 88 387 C 106 407 127 423 151 435 C 175 447 200 453 228 453 C 264 453 294 445 318 429 C 342 413 361 391 374 364 C 367 430 354 486 336 534 C 318 581 297 620 273 650 C 249 680 224 703 198 718 C 171 732 146 740 123 742 L 165 802 C 189 802 218 792 252 773 C 285 753 316 723 346 681 C 376 639 401 585 422 519 C 443 453 454 373 454 279 Z M 241 61 C 277 61 306 75 327 105 C 347 135 358 176 358 228 C 358 274 348 312 328 340 C 308 368 279 382 241 382 C 206 382 178 367 157 339 C 136 311 126 272 126 222 C 126 168 136 128 157 101 C 177 74 205 61 241 61 Z" unicode="∂" />
<glyph horiz-adv-x="584" d="M 583 0 L 1 0 L 275 730 L 310 730 L 583 0 Z M 460 73 L 289 563 L 120 73 L 460 73 Z" unicode="∆" />
<glyph horiz-adv-x="662" d="M 218 647 L 218 0 L 122 0 L 122 647 L 15 647 L 15 730 L 647 730 L 647 647 L 545 647 L 545 0 L 449 0 L 449 647 L 218 647 Z" unicode="∏" />
<glyph horiz-adv-x="561" d="M 172 646 L 395 307 L 140 -95 L 526 -95 L 526 -179 L -15 -179 L 301 306 L 15 730 L 505 730 L 505 646 L 172 646 Z" unicode="∑" />
<glyph horiz-adv-x="500" d="M 460 294 L 41 294 L 41 370 L 460 370 L 460 294 Z" unicode="−" />
<glyph horiz-adv-x="510" d="M 502 730 L 198 0 L 186 0 L 13 329 L 79 378 L 203 130 L 443 730 L 502 730 Z" unicode="√" />
<glyph horiz-adv-x="338" d="M 107 -27 L 165 628 C 168 664 182 692 207 712 C 231 731 256 741 282 741 C 295 741 308 740 321 739 C 334 738 342 737 345 737 L 338 656 C 336 656 332 657 326 658 C 320 658 314 659 308 659 C 289 659 273 652 261 640 C 249 627 242 607 240 581 L 184 -60 C 181 -92 168 -120 145 -144 C 121 -168 92 -179 58 -179 C 39 -179 22 -177 6 -173 C -10 -169 -22 -165 -30 -161 L -20 -96 C -16 -96 -9 -98 0 -101 C 9 -103 18 -105 27 -105 C 47 -105 64 -98 80 -84 C 95 -70 104 -51 107 -27 Z" unicode="∫" />
<glyph horiz-adv-x="481" d="M 371 499 L 449 499 C 447 451 439 412 423 382 C 407 352 382 337 350 337 C 328 337 308 341 290 351 C 272 360 257 370 245 381 C 232 392 219 402 206 410 C 193 418 179 423 165 423 C 151 423 138 415 125 400 C 112 384 106 364 106 340 L 34 340 C 34 390 43 429 63 458 C 83 486 109 501 141 501 C 163 501 182 496 200 486 C 217 476 232 465 245 455 C 257 445 270 437 282 429 C 294 421 306 417 320 417 C 338 417 351 423 359 437 C 367 451 371 471 371 499 Z M 372 322 L 449 322 C 447 274 438 235 422 205 C 405 175 380 161 346 161 C 324 161 304 165 287 174 C 269 182 254 192 242 204 C 229 215 216 224 204 232 C 192 240 179 244 165 244 C 152 244 139 236 126 222 C 113 208 107 188 107 164 L 34 164 C 34 213 44 252 64 281 C 84 309 110 324 144 324 C 166 324 186 318 204 308 C 222 297 237 286 250 276 C 261 266 273 257 285 250 C 297 242 310 239 323 239 C 340 239 352 245 360 259 C 368 272 372 293 372 322 Z" unicode="≈" />
<glyph horiz-adv-x="490" d="M 448 175 L 224 175 L 175 67 L 114 90 L 152 175 L 62 175 L 62 253 L 187 253 L 248 389 L 62 389 L 62 466 L 283 466 L 332 575 L 393 552 L 354 466 L 448 466 L 448 389 L 320 389 L 259 253 L 448 253 L 448 175 Z" unicode="≠" />
<glyph horiz-adv-x="490" d="M 58 295 L 58 355 L 428 556 L 428 473 L 149 327 L 428 181 L 428 97 L 58 295 Z M 57 87 L 428 87 L 428 19 L 57 19 L 57 87 Z" unicode="≤" />
<glyph horiz-adv-x="490" d="M 427 295 L 58 97 L 58 180 L 336 327 L 57 473 L 57 556 L 427 355 L 427 295 Z M 428 87 L 428 19 L 57 19 L 57 87 L 428 87 Z" unicode="≥" />
<glyph horiz-adv-x="533" d="M 504 326 L 272 -16 L 261 -16 L 30 326 L 30 337 L 261 678 L 272 678 L 504 337 L 504 326 Z M 417 327 L 417 336 L 271 556 L 263 556 L 117 336 L 117 327 L 263 106 L 271 106 L 417 327 Z" unicode="◊" />
<glyph horiz-adv-x="730" d="M 448 678 L 282 678 L 282 730 L 448 730 L 448 678 Z M 659 282 L 605 282 L 605 448 L 659 448 L 659 282 Z M 125 282 L 71 282 L 71 448 L 125 448 L 125 282 Z M 428 302 L 302 302 L 302 428 L 428 428 L 428 302 Z M 448 0 L 282 0 L 282 53 L 448 53 L 448 0 Z" unicode="" />
<glyph horiz-adv-x="476" d="M 264 404 L 173 404 L 173 0 L 81 0 L 81 404 L 17 404 L 17 478 L 81 478 L 81 614 C 81 642 85 667 95 689 C 104 711 116 729 131 744 C 145 758 162 770 180 778 C 198 786 217 790 235 790 C 253 790 270 788 287 784 C 303 780 315 775 322 771 L 302 699 C 297 701 289 703 279 706 C 269 708 259 710 249 710 C 230 710 212 701 196 684 C 179 666 171 641 171 607 L 171 478 L 264 478 L 264 404 Z M 424 579 L 328 579 L 328 667 L 424 667 L 424 579 Z M 422 0 L 330 0 L 330 478 L 422 478 L 422 0 Z" unicode="ﬁ" />
<glyph horiz-adv-x="469" d="M 265 410 L 173 410 L 173 0 L 81 0 L 81 410 L 14 410 L 14 488 L 81 488 L 81 611 C 81 639 85 664 95 686 C 104 708 116 726 131 741 C 145 756 162 768 180 776 C 198 784 217 788 235 788 C 253 788 270 786 286 782 C 302 778 314 773 322 769 L 302 697 C 297 699 289 701 279 704 C 269 707 259 709 249 709 C 230 709 212 700 196 682 C 179 664 171 638 171 604 L 171 488 L 265 488 L 265 410 Z M 417 785 L 417 0 L 325 0 L 325 785 L 417 785 Z" unicode="ﬂ" />
</font>
</defs>
</svg>
