<?xml version="1.0" encoding="utf-8" ?><svg version="1.1" xmlns = 'http://www.w3.org/2000/svg'><defs><font id='web' horiz-adv-x="1000">
<font-face font-family="web" descent="-200" cap-height="730" units-per-em="1000" bbox="-166,-342,1083,1025" x-height="533" ascent="800" />
<missing-glyph horiz-adv-x="500" d="" /><glyph horiz-adv-x="227" d="" unicode=" " />
<glyph horiz-adv-x="281" d="M 183 433 L 159 196 L 122 196 L 98 433 L 98 730 L 183 730 L 183 433 Z M 181 0 L 101 0 L 101 87 L 181 87 L 181 0 Z" unicode="!" />
<glyph horiz-adv-x="379" d="M 310 615 L 305 480 L 245 480 L 241 614 L 241 730 L 310 730 L 310 615 Z M 137 614 L 133 480 L 72 480 L 68 614 L 68 730 L 137 730 L 137 614 Z" unicode="&#x22;" />
<glyph horiz-adv-x="609" d="M 554 230 L 419 230 L 399 0 L 351 1 L 371 230 L 214 230 L 194 0 L 146 1 L 166 230 L 32 230 L 32 290 L 171 290 L 184 436 L 55 436 L 55 497 L 190 497 L 210 730 L 258 729 L 238 497 L 395 497 L 415 730 L 463 729 L 443 497 L 577 497 L 577 436 L 437 436 L 424 290 L 554 290 L 554 230 Z M 219 290 L 376 290 L 389 436 L 232 436 L 219 290 Z" unicode="#" />
<glyph horiz-adv-x="507" d="M 466 184 C 466 157 461 133 451 111 C 441 89 427 70 410 54 C 392 38 372 26 349 17 C 325 8 300 3 274 1 L 274 -122 L 229 -122 L 229 1 C 187 3 148 12 114 28 C 80 43 52 62 31 86 L 62 146 C 80 123 105 104 136 89 C 167 74 198 65 229 62 L 229 347 C 163 378 116 409 88 439 C 60 469 46 509 46 559 C 46 608 63 648 97 679 C 131 710 175 727 229 730 L 229 790 L 274 790 L 274 729 C 310 726 343 718 372 706 C 401 694 426 678 447 658 L 409 606 C 391 624 371 638 347 648 C 323 658 299 665 274 668 L 274 401 L 279 399 C 345 367 392 336 422 305 C 451 274 466 234 466 184 Z M 118 556 C 118 527 126 503 142 485 C 158 466 187 445 229 423 L 229 668 C 197 664 171 653 150 633 C 128 613 118 588 118 556 Z M 393 182 C 393 210 385 235 369 256 C 353 277 322 300 274 325 L 274 62 C 308 65 336 77 359 98 C 381 118 393 146 393 182 Z" unicode="$" />
<glyph horiz-adv-x="793" d="M 196 355 C 176 355 156 359 138 368 C 119 376 103 389 89 405 C 75 421 63 441 55 465 C 46 489 42 516 42 547 C 42 573 45 598 53 622 C 61 645 71 665 85 683 C 99 701 115 715 134 725 C 152 735 173 741 196 741 C 219 741 240 735 259 725 C 278 715 294 701 308 684 C 321 666 331 646 339 623 C 346 599 350 575 350 550 C 350 522 346 497 338 473 C 330 449 320 429 307 411 C 293 393 277 380 258 370 C 239 360 218 355 196 355 Z M 180 0 L 109 0 L 600 730 L 670 730 L 180 0 Z M 194 413 C 224 413 247 425 263 451 C 279 477 287 509 287 547 C 287 583 279 615 265 642 C 250 668 227 682 197 682 C 167 682 144 668 128 642 C 112 616 105 584 105 547 C 105 507 113 474 129 450 C 145 425 167 413 194 413 Z M 596 -3 C 576 -3 556 1 538 10 C 519 18 503 31 489 47 C 475 63 463 84 455 108 C 446 132 442 159 442 190 C 442 216 445 240 453 264 C 461 288 471 308 485 326 C 499 343 515 357 534 367 C 553 377 574 383 597 383 C 620 383 641 377 661 367 C 680 357 696 343 710 326 C 723 309 733 289 741 266 C 748 242 752 218 752 193 C 752 165 748 140 740 116 C 732 92 722 72 708 54 C 694 36 678 22 659 12 C 640 2 619 -3 596 -3 Z M 594 56 C 625 56 648 68 664 94 C 679 120 687 152 687 190 C 687 226 679 258 665 285 C 650 311 627 325 597 325 C 567 325 545 311 529 285 C 513 259 506 227 506 190 C 506 150 514 117 530 93 C 546 68 568 56 594 56 Z" unicode="%" />
<glyph horiz-adv-x="692" d="M 627 -4 L 536 80 C 502 52 464 30 422 15 C 380 0 333 -8 279 -8 C 207 -8 148 7 103 39 C 57 70 35 114 35 171 C 35 198 39 222 49 243 C 58 264 70 283 86 300 C 101 316 119 332 139 346 C 159 360 181 373 204 387 L 184 406 C 165 424 147 447 129 475 C 111 503 102 538 102 580 C 102 601 106 621 116 640 C 126 659 139 676 156 690 C 172 704 192 716 214 724 C 236 732 259 737 284 737 C 340 737 383 721 415 691 C 447 660 463 623 463 581 C 463 539 449 503 422 475 C 394 446 358 417 313 388 L 533 185 C 544 198 555 212 567 228 C 578 244 589 260 600 277 L 667 238 C 654 218 641 200 629 182 C 616 164 603 148 590 133 L 672 57 L 627 -4 Z M 241 454 L 269 428 C 307 452 336 476 357 498 C 378 520 389 544 389 571 C 389 598 380 622 362 642 C 344 662 318 672 284 672 C 253 672 228 661 208 641 C 188 620 178 597 178 573 C 178 550 183 529 195 509 C 207 489 222 470 241 454 Z M 117 180 C 117 142 133 112 166 90 C 199 68 239 58 285 58 C 321 58 356 64 388 77 C 420 89 450 108 479 133 L 248 347 C 208 322 177 297 153 273 C 129 249 117 218 117 180 Z" unicode="&#x26;" />
<glyph horiz-adv-x="206" d="M 138 611 L 134 474 L 72 474 L 68 611 L 68 730 L 138 730 L 138 611 Z" unicode="'" />
<glyph horiz-adv-x="319" d="M 301 -118 L 301 -183 C 262 -164 226 -138 193 -106 C 159 -74 131 -37 107 4 C 83 45 64 90 50 140 C 36 189 30 240 30 293 C 30 346 37 397 51 445 C 65 493 85 536 110 575 C 134 614 163 648 196 678 C 229 708 264 731 301 749 L 301 689 C 249 656 205 606 169 538 C 133 470 115 388 115 293 C 115 250 119 208 127 168 C 135 127 147 89 163 54 C 179 18 198 -13 222 -43 C 245 -72 271 -97 301 -118 Z" unicode="(" />
<glyph horiz-adv-x="319" d="M 18 689 L 18 749 C 52 733 86 711 119 683 C 151 654 180 620 205 580 C 230 540 250 494 266 444 C 281 394 289 340 289 282 C 289 228 281 177 267 129 C 253 81 233 37 209 -3 C 184 -43 155 -78 122 -109 C 89 -139 54 -164 18 -183 L 18 -116 C 71 -78 115 -25 150 45 C 185 115 203 194 204 282 C 204 332 199 379 189 422 C 179 465 165 504 149 538 C 132 572 112 602 90 628 C 67 653 43 673 18 689 Z" unicode=")" />
<glyph horiz-adv-x="410" d="M 375 582 L 240 547 L 337 451 L 282 404 L 206 522 L 131 405 L 76 450 L 172 548 L 37 583 L 66 649 L 185 586 L 168 730 L 244 730 L 227 586 L 349 645 L 375 582 Z" unicode="*" />
<glyph horiz-adv-x="493" d="M 466 300 L 278 300 L 278 118 L 215 118 L 215 300 L 27 300 L 27 363 L 215 363 L 215 544 L 278 544 L 278 363 L 466 363 L 466 300 Z" unicode="+" />
<glyph horiz-adv-x="225" d="M 182 105 C 177 55 164 7 143 -39 C 122 -85 98 -121 72 -149 L 16 -123 C 24 -113 32 -100 41 -84 C 50 -67 59 -48 67 -28 C 75 -8 83 13 90 36 C 96 59 101 82 104 105 L 182 105 Z" unicode="," />
<glyph horiz-adv-x="333" d="M 291 229 L 42 229 L 42 296 L 291 296 L 291 229 Z" unicode="-" />
<glyph horiz-adv-x="226" d="M 151 0 L 75 0 L 75 122 L 151 122 L 151 0 Z" unicode="." />
<glyph horiz-adv-x="308" d="M 303 730 L 75 0 L 5 0 L 235 730 L 303 730 Z" unicode="/" />
<glyph horiz-adv-x="545" d="M 269 -10 C 199 -10 144 22 102 86 C 60 150 39 242 39 361 C 39 414 43 464 53 510 C 63 556 77 597 97 631 C 116 665 140 691 170 711 C 200 731 234 741 274 741 C 314 741 349 731 379 712 C 409 692 433 666 451 633 C 469 599 483 560 492 515 C 501 469 506 421 506 369 C 506 313 501 261 491 214 C 481 167 467 127 447 94 C 427 61 403 35 373 17 C 343 0 308 -10 269 -10 Z M 270 56 C 324 56 364 83 390 138 C 416 193 429 267 429 361 C 429 407 426 449 420 488 C 414 526 405 559 393 587 C 381 614 365 635 345 651 C 325 666 300 674 272 674 C 218 674 179 646 154 590 C 128 534 116 458 116 363 C 116 266 129 191 155 137 C 181 83 220 56 270 56 Z" unicode="0" />
<glyph horiz-adv-x="348" d="M 260 0 L 183 0 L 183 626 C 170 606 150 586 123 566 C 96 546 69 534 43 532 L 43 606 C 71 608 101 622 131 648 C 161 674 185 701 204 731 L 260 731 L 260 0 Z" unicode="1" />
<glyph horiz-adv-x="519" d="M 489 0 L 31 0 L 31 25 L 322 350 C 342 373 361 400 377 432 C 393 464 402 499 402 538 C 402 581 388 614 361 638 C 333 662 299 674 257 674 C 210 674 174 659 148 629 C 122 599 109 559 109 509 L 38 509 C 39 584 60 641 101 681 C 141 720 196 740 265 740 C 327 740 378 723 418 689 C 458 655 479 608 479 548 C 479 494 469 449 450 414 C 430 378 409 347 387 321 L 160 70 L 489 70 L 489 0 Z" unicode="2" />
<glyph horiz-adv-x="521" d="M 249 -10 C 189 -10 139 -2 99 13 C 59 29 29 47 8 67 L 46 128 C 64 111 90 95 122 79 C 154 63 193 55 240 55 C 296 55 339 70 371 102 C 402 134 418 173 418 219 C 418 263 402 297 372 323 C 341 348 303 361 257 361 L 140 361 L 140 425 L 253 425 C 295 425 329 437 355 462 C 381 486 394 517 394 553 C 394 585 381 613 357 638 C 332 662 297 675 253 675 C 209 675 172 665 144 647 C 115 628 92 606 75 580 L 30 630 C 50 660 79 686 117 708 C 155 730 202 741 260 741 C 324 741 374 725 412 693 C 450 661 469 620 469 568 C 469 523 455 485 428 455 C 401 425 369 405 332 397 C 353 393 373 386 393 376 C 413 366 430 354 444 339 C 458 324 470 306 479 286 C 487 265 492 242 492 217 C 492 187 486 159 476 131 C 465 103 449 79 429 59 C 408 38 382 21 352 9 C 322 -3 287 -10 249 -10 Z" unicode="3" />
<glyph horiz-adv-x="526" d="M 522 190 L 411 190 L 411 0 L 341 0 L 341 190 L 13 190 L 12 245 L 356 742 L 411 742 L 411 253 L 522 253 L 522 190 Z M 342 251 L 343 621 L 91 251 L 342 251 Z" unicode="4" />
<glyph horiz-adv-x="528" d="M 253 -10 C 203 -10 157 -1 117 15 C 77 32 46 53 25 77 L 65 136 C 82 116 106 98 138 81 C 169 64 206 56 248 56 C 300 56 341 74 372 110 C 402 146 418 193 418 253 C 418 307 403 350 375 381 C 346 411 310 427 268 427 C 231 427 199 419 173 404 C 146 388 126 366 113 338 L 62 352 L 90 730 L 448 730 L 447 660 L 146 660 L 128 411 C 139 431 159 450 187 466 C 215 482 248 490 287 490 C 347 490 397 469 436 428 C 475 387 495 330 495 258 C 495 177 472 112 427 63 C 382 14 324 -10 253 -10 Z" unicode="5" />
<glyph horiz-adv-x="523" d="M 271 -11 C 237 -11 206 -5 177 6 C 148 18 123 34 102 56 C 81 78 65 104 53 135 C 41 166 35 201 35 240 C 35 280 40 319 52 357 C 63 395 79 433 100 470 C 120 506 145 542 173 578 C 201 614 233 649 267 683 L 334 752 L 383 703 L 328 648 C 274 593 227 539 189 487 C 151 434 128 390 120 354 C 131 378 151 401 181 422 C 211 442 246 453 287 453 C 319 453 348 447 374 436 C 400 424 422 408 440 388 C 458 368 471 344 481 316 C 491 288 496 257 496 224 C 496 191 490 160 479 132 C 467 103 452 78 432 57 C 412 35 388 19 361 7 C 333 -5 303 -11 271 -11 Z M 268 55 C 314 55 351 71 379 104 C 406 136 420 176 420 222 C 420 268 407 308 381 341 C 355 373 317 390 269 390 C 248 390 228 386 209 378 C 189 370 172 360 158 346 C 143 332 131 314 123 294 C 114 274 110 251 110 227 C 110 176 124 135 153 103 C 181 71 220 55 268 55 Z" unicode="6" />
<glyph horiz-adv-x="452" d="M 443 730 L 452 694 L 130 -5 L 62 24 L 362 659 L 14 659 L 14 730 L 443 730 Z" unicode="7" />
<glyph horiz-adv-x="552" d="M 359 388 C 379 384 399 377 419 367 C 438 357 455 344 469 328 C 483 312 494 294 503 272 C 511 250 516 226 516 199 C 516 137 494 86 451 48 C 408 9 350 -10 277 -10 C 203 -10 145 9 102 47 C 58 85 37 134 37 195 C 37 223 41 248 51 271 C 61 294 73 314 89 330 C 104 346 121 359 140 369 C 158 379 177 385 196 387 C 179 391 162 397 146 406 C 130 415 115 427 102 441 C 89 455 79 471 71 490 C 63 509 59 530 59 554 C 59 582 64 607 76 630 C 87 653 102 673 122 689 C 141 705 164 718 190 727 C 216 735 245 740 276 740 C 340 740 393 723 433 690 C 473 656 494 612 494 558 C 494 535 490 514 482 495 C 474 476 464 459 452 445 C 440 430 425 418 409 408 C 393 398 376 392 359 388 Z M 277 410 C 320 410 355 422 383 446 C 411 470 425 502 425 542 C 425 583 410 616 382 640 C 354 664 319 677 277 677 C 235 677 199 665 171 641 C 142 617 128 584 128 543 C 128 521 132 502 140 486 C 148 469 159 455 173 444 C 187 432 203 424 221 418 C 239 412 257 410 277 410 Z M 278 53 C 327 53 367 66 397 93 C 427 120 443 158 443 206 C 443 252 427 287 395 311 C 363 335 324 348 278 348 C 230 348 191 336 159 312 C 127 288 111 251 111 203 C 111 157 126 121 158 94 C 190 66 230 53 278 53 Z" unicode="8" />
<glyph horiz-adv-x="523" d="M 202 -16 L 157 34 L 221 90 C 242 110 263 132 283 158 C 303 184 322 210 339 237 C 355 263 370 290 382 316 C 394 342 403 365 409 387 C 396 360 373 336 340 315 C 306 293 271 283 234 283 C 170 283 120 304 83 347 C 45 390 27 445 27 513 C 27 545 32 574 44 602 C 56 630 72 654 92 675 C 112 695 136 711 164 723 C 192 735 223 741 256 741 C 288 741 318 735 346 724 C 374 713 399 697 420 676 C 441 655 458 629 470 598 C 482 567 488 532 488 493 C 488 447 481 402 469 359 C 456 315 439 275 419 237 C 399 199 375 164 349 132 C 323 99 296 70 269 46 L 202 -16 Z M 253 344 C 297 344 334 359 366 389 C 398 419 414 458 414 505 C 414 558 398 600 367 631 C 336 661 299 677 257 677 C 209 677 172 661 144 629 C 116 597 103 558 103 512 C 103 464 115 424 141 392 C 167 360 204 344 253 344 Z" unicode="9" />
<glyph horiz-adv-x="221" d="M 149 415 L 73 415 L 73 533 L 149 533 L 149 415 Z M 149 0 L 73 0 L 73 119 L 149 119 L 149 0 Z" unicode=":" />
<glyph horiz-adv-x="221" d="M 154 415 L 78 415 L 78 533 L 154 533 L 154 415 Z M 160 95 C 154 49 142 5 122 -38 C 102 -81 78 -117 52 -145 L -4 -119 C 12 -98 30 -67 49 -27 C 68 12 80 53 85 95 L 160 95 Z" unicode=";" />
<glyph horiz-adv-x="393" d="M 346 100 L 39 298 L 39 356 L 346 552 L 346 482 L 114 328 L 346 171 L 346 100 Z" unicode="&#x3C;" />
<glyph horiz-adv-x="497" d="M 445 392 L 53 392 L 53 456 L 445 456 L 445 392 Z M 445 182 L 53 182 L 53 247 L 445 247 L 445 182 Z" unicode="=" />
<glyph horiz-adv-x="393" d="M 353 298 L 46 100 L 46 171 L 278 328 L 46 483 L 46 552 L 353 356 L 353 298 Z" unicode="&#x3E;" />
<glyph horiz-adv-x="457" d="M 169 192 C 169 241 174 281 184 311 C 194 341 214 369 243 395 C 255 405 267 416 279 427 C 291 438 303 450 313 463 C 323 476 332 491 339 507 C 345 523 349 541 349 561 C 349 595 336 623 311 643 C 286 663 255 673 218 673 C 185 673 156 665 130 650 C 104 635 82 616 65 594 L 17 642 C 39 671 68 695 104 714 C 140 732 181 742 227 742 C 285 742 333 726 371 696 C 409 666 428 624 428 570 C 428 544 424 521 416 501 C 408 480 397 461 385 445 C 373 429 359 414 345 401 C 331 387 317 375 305 365 C 278 343 261 316 254 284 C 246 252 242 221 242 192 L 169 192 Z M 166 0 L 166 109 L 248 109 L 248 0 L 166 0 Z" unicode="?" />
<glyph horiz-adv-x="860" d="M 426 -27 C 372 -27 321 -17 275 3 C 229 23 189 50 155 84 C 121 118 95 158 76 205 C 56 251 47 301 47 354 C 47 407 56 457 76 503 C 95 549 121 590 155 624 C 189 658 229 684 277 704 C 324 724 375 734 431 734 C 488 734 540 725 587 708 C 634 690 674 666 708 636 C 741 606 767 569 785 527 C 803 484 813 437 813 387 C 813 343 808 305 798 274 C 788 242 776 217 761 197 C 745 177 728 163 708 154 C 688 145 669 141 650 141 C 617 141 592 148 574 162 C 556 176 545 194 541 215 C 533 198 514 182 484 166 C 453 150 418 142 378 142 C 330 142 293 153 267 177 C 241 200 228 230 228 268 C 228 310 245 343 280 368 C 314 393 363 406 425 406 L 531 406 L 531 420 C 531 458 520 484 498 498 C 476 512 450 520 420 520 C 396 520 373 517 351 512 C 329 506 310 500 295 494 L 273 546 C 291 554 314 562 342 569 C 369 575 396 579 423 579 C 479 579 521 565 550 537 C 578 509 593 466 593 409 L 593 258 C 593 242 597 227 607 213 C 617 199 633 193 656 193 C 666 193 678 195 690 200 C 702 205 714 214 725 228 C 735 242 744 261 751 286 C 758 310 762 342 762 381 C 762 423 754 463 739 501 C 723 539 701 571 673 599 C 644 626 609 648 568 664 C 527 680 481 688 431 688 C 382 688 337 679 296 662 C 255 644 220 621 191 591 C 161 561 138 526 122 486 C 106 445 98 401 98 355 C 98 309 106 265 123 224 C 140 183 163 147 193 117 C 222 87 257 63 297 45 C 337 27 381 19 428 19 C 450 19 474 21 498 26 C 522 31 547 40 572 52 L 591 9 C 564 -3 537 -12 509 -18 C 481 -24 453 -27 426 -27 Z M 403 196 C 431 196 458 202 484 216 C 510 229 526 243 532 257 L 532 359 L 432 359 C 388 359 355 351 333 337 C 311 322 300 301 300 274 C 300 249 308 230 326 216 C 343 202 369 196 403 196 Z" unicode="@" />
<glyph horiz-adv-x="589" d="M 586 0 L 504 0 L 428 209 L 154 209 L 81 0 L 3 0 L 268 734 L 322 734 L 586 0 Z M 412 269 L 290 611 L 170 269 L 412 269 Z" unicode="A" />
<glyph horiz-adv-x="550" d="M 88 0 L 88 730 L 277 730 C 337 730 385 714 420 683 C 455 652 473 609 473 554 C 473 506 460 466 435 434 C 409 402 377 383 337 377 C 357 375 377 371 397 363 C 417 355 436 344 453 330 C 469 315 483 297 493 275 C 503 253 509 227 509 198 C 509 140 489 92 450 55 C 410 18 358 0 293 0 L 88 0 Z M 163 400 L 262 400 C 286 400 307 404 324 412 C 341 420 355 431 366 445 C 376 458 384 473 389 491 C 394 508 397 525 397 543 C 397 580 384 610 360 632 C 336 654 302 666 259 666 L 163 666 L 163 400 Z M 164 64 L 286 64 C 334 64 370 78 393 106 C 416 134 428 168 428 207 C 428 247 414 278 386 302 C 358 325 324 337 282 337 L 164 337 L 164 64 Z" unicode="B" />
<glyph horiz-adv-x="674" d="M 367 -10 C 323 -10 282 -1 243 15 C 204 31 170 56 141 88 C 111 120 88 159 71 206 C 53 252 45 305 45 365 C 45 421 52 472 68 518 C 84 564 106 604 134 637 C 162 669 196 695 236 713 C 276 731 320 740 368 740 C 430 740 482 728 524 705 C 566 682 599 650 624 610 L 560 568 C 540 596 515 620 485 640 C 455 659 416 669 368 669 C 294 669 235 642 191 589 C 147 535 126 461 126 366 C 126 314 133 269 147 231 C 161 193 180 161 203 136 C 226 110 252 91 282 79 C 312 66 342 60 374 60 C 423 60 464 71 498 93 C 531 115 558 143 579 177 L 640 139 C 615 95 579 60 533 32 C 487 4 431 -10 367 -10 Z" unicode="C" />
<glyph horiz-adv-x="675" d="M 88 0 L 88 730 L 277 730 C 332 730 382 721 426 705 C 470 688 507 664 537 634 C 567 603 590 566 606 522 C 622 478 630 430 630 377 C 630 323 622 274 607 228 C 591 182 568 142 538 108 C 508 74 470 48 424 29 C 378 9 326 0 266 0 L 88 0 Z M 168 65 L 263 65 C 311 65 354 72 390 88 C 426 104 455 125 479 153 C 502 180 519 213 531 251 C 542 289 548 330 548 375 C 548 465 523 535 475 587 C 426 639 359 665 275 665 L 168 665 L 168 65 Z" unicode="D" />
<glyph horiz-adv-x="516" d="M 472 0 L 88 0 L 88 730 L 454 730 L 454 661 L 166 661 L 166 398 L 442 398 L 442 330 L 166 330 L 166 69 L 472 69 L 472 0 Z" unicode="E" />
<glyph horiz-adv-x="466" d="M 431 661 L 168 661 L 168 403 L 417 403 L 417 335 L 168 335 L 168 0 L 88 0 L 88 730 L 431 730 L 431 661 Z" unicode="F" />
<glyph horiz-adv-x="712" d="M 379 357 L 662 357 L 662 142 C 635 94 596 57 546 30 C 496 3 439 -10 376 -10 C 330 -10 287 -1 247 16 C 207 34 172 59 142 92 C 112 124 88 164 71 210 C 53 256 45 308 45 365 C 45 421 53 473 71 520 C 88 566 111 606 141 638 C 171 670 206 695 247 713 C 287 731 331 740 377 740 C 441 740 493 728 533 706 C 573 683 604 657 626 628 L 570 575 C 550 599 525 621 495 640 C 465 658 425 668 377 668 C 341 668 308 661 277 648 C 246 634 219 615 197 590 C 175 564 157 533 144 495 C 131 457 125 413 125 365 C 125 317 131 274 145 236 C 158 197 176 164 199 138 C 221 111 248 90 279 76 C 310 62 343 55 377 55 C 424 55 466 64 504 83 C 542 101 570 129 589 165 L 589 289 L 379 289 L 379 357 Z" unicode="G" />
<glyph horiz-adv-x="685" d="M 597 0 L 517 0 L 517 327 L 168 327 L 168 0 L 88 0 L 88 730 L 168 730 L 168 395 L 517 395 L 517 730 L 597 730 L 597 0 Z" unicode="H" />
<glyph horiz-adv-x="264" d="M 172 0 L 92 0 L 92 730 L 172 730 L 172 0 Z" unicode="I" />
<glyph horiz-adv-x="379" d="M 295 730 L 295 188 C 295 161 290 135 282 111 C 274 87 261 66 245 48 C 229 30 209 15 185 5 C 161 -5 133 -11 102 -11 C 87 -11 70 -9 51 -7 C 32 -4 17 0 7 7 L 33 71 C 38 68 46 65 57 63 C 68 61 80 60 93 60 C 131 60 161 72 183 98 C 204 124 215 155 215 191 L 215 730 L 295 730 Z" unicode="J" />
<glyph horiz-adv-x="602" d="M 591 0 L 496 0 L 260 346 L 168 230 L 168 0 L 88 0 L 88 730 L 168 730 L 168 329 L 470 730 L 556 730 L 313 408 L 591 0 Z" unicode="K" />
<glyph horiz-adv-x="466" d="M 456 0 L 88 0 L 88 730 L 168 730 L 168 69 L 456 69 L 456 0 Z" unicode="L" />
<glyph horiz-adv-x="818" d="M 730 0 L 655 0 L 655 571 L 428 192 L 393 192 L 162 571 L 162 0 L 88 0 L 88 730 L 150 730 L 413 291 L 669 730 L 730 730 L 730 0 Z" unicode="M" />
<glyph horiz-adv-x="706" d="M 618 0 L 560 0 L 163 575 L 163 0 L 88 0 L 88 730 L 148 730 L 545 155 L 545 730 L 618 730 L 618 0 Z" unicode="N" />
<glyph horiz-adv-x="755" d="M 380 -10 C 330 -10 285 0 244 17 C 203 35 168 61 139 94 C 109 127 86 167 70 214 C 53 261 45 313 45 370 C 45 424 53 474 70 520 C 86 566 109 605 138 637 C 167 669 202 695 242 713 C 282 731 326 740 374 740 C 424 740 469 731 511 713 C 553 695 588 669 618 637 C 647 605 670 565 686 519 C 702 473 710 422 710 366 C 710 310 701 258 684 212 C 666 166 643 126 614 93 C 584 60 549 35 509 17 C 469 -1 426 -10 380 -10 Z M 384 56 C 418 56 451 63 481 77 C 511 91 537 111 559 137 C 581 163 598 196 611 235 C 623 274 630 318 630 368 C 630 413 623 454 610 492 C 597 530 579 562 556 588 C 533 614 506 635 474 649 C 442 663 408 671 371 671 C 299 671 240 644 194 591 C 148 537 126 463 126 368 C 126 318 132 274 146 236 C 160 197 178 164 201 138 C 224 111 251 91 283 77 C 315 63 348 56 384 56 Z" unicode="O" />
<glyph horiz-adv-x="545" d="M 88 0 L 88 730 L 303 730 C 333 730 361 725 387 716 C 413 707 436 694 455 676 C 474 658 489 637 500 611 C 511 585 517 556 517 524 C 517 459 497 406 458 366 C 419 326 369 306 308 306 L 168 306 L 168 0 L 88 0 Z M 167 371 L 293 371 C 339 371 374 384 399 412 C 424 440 437 477 437 525 C 437 571 422 605 393 629 C 363 653 328 665 287 665 L 167 665 L 167 371 Z" unicode="P" />
<glyph horiz-adv-x="755" d="M 639 -100 L 639 -172 C 585 -169 535 -153 487 -125 C 439 -97 402 -58 374 -8 C 324 -7 279 2 239 20 C 199 38 164 63 136 96 C 107 128 85 168 69 215 C 53 261 45 313 45 370 C 45 424 53 473 69 519 C 85 565 108 604 137 636 C 166 668 201 694 241 712 C 281 730 326 740 374 740 C 424 740 469 731 511 713 C 552 695 587 670 617 638 C 646 606 669 566 685 520 C 701 474 710 422 710 366 C 710 318 703 274 691 234 C 679 193 661 157 639 126 C 617 94 590 68 559 46 C 528 24 494 9 457 1 C 480 -31 508 -56 541 -72 C 574 -88 607 -98 639 -100 Z M 125 370 C 125 324 130 282 142 246 C 154 209 170 178 190 152 C 210 126 233 105 260 89 C 286 73 315 63 346 59 C 341 75 337 93 334 112 C 331 131 330 151 330 172 L 408 172 C 408 150 410 130 414 112 C 417 93 421 76 427 60 C 486 70 535 102 573 156 C 611 209 630 279 630 366 C 630 414 623 457 609 495 C 595 533 577 565 554 591 C 531 617 504 636 472 650 C 440 664 407 671 371 671 C 335 671 301 664 271 650 C 241 636 215 617 193 592 C 171 566 155 535 143 497 C 131 459 125 417 125 370 Z" unicode="Q" />
<glyph horiz-adv-x="551" d="M 88 0 L 88 730 L 273 730 C 331 730 379 713 417 679 C 455 645 474 597 474 536 C 474 506 469 479 461 455 C 452 431 440 411 426 394 C 411 377 394 364 375 354 C 355 344 335 339 314 337 L 310 334 L 527 0 L 436 0 L 236 317 L 165 317 L 165 0 L 88 0 Z M 164 383 L 253 383 C 294 383 328 395 355 420 C 381 445 395 481 395 528 C 395 571 382 605 358 629 C 333 653 301 666 261 666 L 164 666 L 164 383 Z" unicode="R" />
<glyph horiz-adv-x="527" d="M 267 -10 C 217 -10 173 -2 135 13 C 97 28 65 50 40 79 L 92 137 C 111 110 137 90 169 76 C 201 62 234 55 267 55 C 303 55 334 65 360 87 C 386 109 400 137 400 173 C 400 207 389 236 367 260 C 345 284 307 310 251 338 C 215 354 185 369 161 384 C 137 399 117 415 102 432 C 87 449 76 468 70 489 C 63 510 60 535 60 563 C 60 617 78 660 116 692 C 153 724 201 740 259 740 C 304 740 342 732 374 717 C 405 702 431 685 453 665 L 406 605 C 385 623 362 639 336 651 C 310 663 282 669 254 669 C 220 669 191 659 169 640 C 147 620 136 594 136 562 C 136 526 147 498 171 476 C 194 454 235 430 294 402 C 363 369 411 336 437 304 C 463 271 476 230 476 180 C 476 150 470 124 459 100 C 447 76 432 56 413 40 C 394 24 372 11 347 3 C 321 -5 295 -10 267 -10 Z" unicode="S" />
<glyph horiz-adv-x="481" d="M 472 661 L 278 661 L 278 0 L 198 0 L 198 661 L 9 661 L 9 730 L 472 730 L 472 661 Z" unicode="T" />
<glyph horiz-adv-x="682" d="M 598 730 L 598 249 C 598 207 591 169 577 137 C 563 104 545 77 522 55 C 498 33 471 17 439 6 C 407 -4 374 -10 339 -10 C 304 -10 271 -4 240 6 C 209 16 182 32 159 53 C 136 74 118 101 104 134 C 90 166 84 205 84 249 L 84 730 L 162 730 L 162 247 C 162 217 166 190 176 167 C 185 144 198 125 214 109 C 230 93 248 81 270 73 C 292 65 315 61 339 61 C 363 61 386 64 408 72 C 430 80 449 91 465 107 C 481 122 494 141 504 165 C 514 188 519 215 519 247 L 519 730 L 598 730 Z" unicode="U" />
<glyph horiz-adv-x="592" d="M 589 730 L 319 -6 L 264 -6 L 3 730 L 87 730 L 293 127 L 509 730 L 589 730 Z" unicode="V" />
<glyph horiz-adv-x="849" d="M 833 730 L 635 -5 L 584 -5 L 424 587 L 257 -5 L 207 -5 L 12 730 L 93 730 L 241 148 L 400 730 L 452 730 L 611 146 L 760 730 L 833 730 Z" unicode="W" />
<glyph horiz-adv-x="553" d="M 452 0 L 275 308 L 96 0 L 14 0 L 234 378 L 31 730 L 119 730 L 278 454 L 439 730 L 520 730 L 319 384 L 540 0 L 452 0 Z" unicode="X" />
<glyph horiz-adv-x="585" d="M 584 730 L 330 317 L 330 0 L 250 0 L 250 320 L 2 730 L 93 730 L 295 394 L 502 730 L 584 730 Z" unicode="Y" />
<glyph horiz-adv-x="528" d="M 496 730 L 496 693 L 123 69 L 509 69 L 509 0 L 19 0 L 19 35 L 389 660 L 53 660 L 53 730 L 496 730 Z" unicode="Z" />
<glyph horiz-adv-x="294" d="M 257 -179 L 85 -179 L 85 730 L 257 730 L 257 669 L 156 669 L 156 -116 L 257 -116 L 257 -179 Z" unicode="[" />
<glyph horiz-adv-x="308" d="M 5 730 L 72 730 L 303 0 L 235 0 L 5 730 Z" unicode="\" />
<glyph horiz-adv-x="279" d="M 206 -179 L 38 -179 L 38 -119 L 135 -119 L 135 670 L 38 670 L 38 730 L 206 730 L 206 -179 Z" unicode="]" />
<glyph horiz-adv-x="484" d="M 423 369 L 357 369 L 239 651 L 126 369 L 62 369 L 207 730 L 271 730 L 423 369 Z" unicode="^" />
<glyph horiz-adv-x="476" d="M 476 -151 L 0 -151 L 0 -90 L 476 -90 L 476 -151 Z" unicode="_" />
<glyph horiz-adv-x="500" d="M 336 587 L 262 587 L 151 754 L 237 754 L 336 587 Z" unicode="`" />
<glyph horiz-adv-x="510" d="M 445 0 L 376 0 L 376 70 C 357 46 333 28 304 14 C 275 0 241 -7 201 -7 C 152 -7 113 6 83 34 C 53 62 38 101 38 151 C 38 209 58 252 98 282 C 138 311 189 328 252 332 L 373 341 L 373 366 C 373 404 362 433 341 451 C 319 469 290 479 254 479 C 223 479 195 473 169 462 C 143 451 120 439 101 425 L 72 482 C 94 498 122 513 154 525 C 186 537 223 544 265 544 C 319 544 363 530 396 502 C 428 474 445 431 445 373 L 445 0 Z M 374 124 L 374 285 L 252 277 C 212 274 179 263 153 244 C 127 224 114 195 114 155 C 114 121 124 95 146 77 C 168 59 195 50 228 50 C 258 50 286 57 312 71 C 338 85 359 102 374 124 Z" unicode="a" />
<glyph horiz-adv-x="569" d="M 322 -7 C 274 -7 235 5 205 30 C 175 55 156 85 146 121 L 146 0 L 76 0 L 76 800 L 145 800 L 145 399 C 154 437 174 470 205 498 C 235 526 276 541 326 541 C 388 541 437 516 475 468 C 513 419 532 355 532 277 C 532 233 526 194 515 159 C 504 123 489 93 471 69 C 452 45 430 26 404 13 C 378 0 351 -7 322 -7 Z M 302 56 C 347 56 384 75 412 115 C 440 155 455 206 455 270 C 455 332 441 382 415 420 C 389 458 351 477 301 477 C 259 477 222 459 191 425 C 160 391 145 336 145 260 C 145 188 160 136 190 104 C 220 72 258 56 302 56 Z" unicode="b" />
<glyph horiz-adv-x="504" d="M 427 146 L 479 104 C 470 91 460 78 448 64 C 436 50 423 38 407 28 C 391 17 373 8 352 1 C 331 -5 307 -9 280 -9 C 243 -9 210 -2 180 11 C 150 25 124 44 103 68 C 82 92 66 120 54 154 C 42 188 37 225 37 265 C 37 303 42 338 54 372 C 66 406 82 435 104 460 C 125 485 151 505 181 520 C 211 534 245 542 281 542 C 308 542 332 538 354 531 C 376 523 395 514 411 502 C 427 490 440 477 451 463 C 462 449 471 434 477 420 L 416 387 C 405 409 389 429 367 447 C 345 465 316 475 279 475 C 254 475 231 469 211 458 C 190 447 173 432 159 414 C 145 396 134 374 126 348 C 118 322 114 295 114 267 C 114 204 129 153 160 115 C 191 76 232 57 284 57 C 324 57 355 67 377 87 C 399 107 415 126 427 146 Z" unicode="c" />
<glyph horiz-adv-x="575" d="M 254 -9 C 222 -9 192 -2 166 11 C 139 24 116 43 97 67 C 78 91 63 119 53 153 C 43 187 38 224 38 265 C 38 305 43 342 55 376 C 66 410 81 440 101 464 C 121 488 144 507 171 521 C 198 535 227 542 258 542 C 299 542 335 528 366 502 C 397 476 417 445 427 410 L 427 800 L 499 800 L 499 0 L 431 0 L 431 128 C 427 113 420 98 410 82 C 400 66 388 51 373 38 C 358 24 341 13 321 4 C 301 -4 278 -9 254 -9 Z M 270 54 C 317 54 355 73 384 113 C 413 153 428 205 428 271 C 428 305 423 336 415 362 C 406 388 394 409 380 426 C 366 443 349 456 331 465 C 312 473 293 478 273 478 C 225 478 186 459 157 421 C 128 383 114 331 114 266 C 114 203 128 152 156 113 C 184 73 222 54 270 54 Z" unicode="d" />
<glyph horiz-adv-x="542" d="M 280 -9 C 244 -9 212 -2 182 10 C 152 22 126 40 105 64 C 83 88 67 117 55 151 C 43 185 37 223 37 266 C 37 305 43 341 55 375 C 67 409 84 438 105 463 C 126 487 151 507 181 521 C 210 535 241 542 275 542 C 345 542 401 515 443 462 C 485 409 506 337 506 246 L 112 246 C 112 192 128 147 158 111 C 188 75 230 58 282 58 C 322 58 354 65 379 81 C 404 96 425 114 442 134 L 484 85 C 463 60 437 38 405 19 C 373 0 331 -9 280 -9 Z M 111 300 L 431 300 C 430 352 415 395 386 429 C 356 462 319 479 274 479 C 228 479 190 461 160 427 C 130 392 114 350 111 300 Z" unicode="e" />
<glyph horiz-adv-x="300" d="M 289 468 L 177 468 L 177 0 L 102 0 L 102 468 L 15 468 L 15 533 L 102 533 L 102 659 C 102 681 105 701 113 719 C 120 737 130 752 142 764 C 154 776 169 786 185 793 C 201 799 217 803 234 803 C 250 803 265 801 280 797 C 295 793 307 788 317 782 L 297 722 C 291 724 284 727 274 729 C 264 731 254 733 244 733 C 225 733 209 725 196 709 C 182 693 176 671 176 644 L 176 533 L 289 533 L 289 468 Z" unicode="f" />
<glyph horiz-adv-x="569" d="M 254 4 C 190 4 138 28 98 77 C 58 125 38 189 38 269 C 38 309 43 346 54 380 C 65 414 80 442 99 466 C 118 490 141 508 168 521 C 194 534 223 541 255 541 C 298 541 335 528 367 503 C 398 478 419 447 430 411 L 430 533 L 498 533 L 498 54 C 498 10 490 -28 475 -60 C 460 -92 440 -118 416 -139 C 392 -159 365 -175 335 -185 C 305 -195 275 -200 245 -200 C 199 -200 164 -196 139 -188 C 113 -180 94 -173 82 -166 L 113 -104 C 124 -110 140 -117 161 -124 C 182 -131 208 -135 239 -135 C 263 -135 287 -131 310 -123 C 333 -115 353 -103 370 -87 C 387 -71 401 -52 411 -28 C 421 -4 427 24 427 56 L 427 146 C 422 129 414 112 404 95 C 394 78 381 63 367 49 C 352 35 335 24 316 16 C 297 8 276 4 254 4 Z M 273 66 C 292 66 311 70 329 78 C 347 86 364 99 378 117 C 392 134 404 156 413 183 C 422 209 427 241 427 277 C 427 341 411 389 381 423 C 350 457 314 474 273 474 C 226 474 188 455 159 418 C 129 380 115 330 115 266 C 115 204 129 155 157 119 C 185 83 223 66 273 66 Z" unicode="g" />
<glyph horiz-adv-x="553" d="M 482 0 L 408 0 L 408 375 C 408 408 396 433 374 451 C 351 469 324 478 292 478 C 275 478 258 475 241 470 C 224 465 209 457 195 447 C 181 436 170 422 162 406 C 154 390 150 370 150 348 L 150 0 L 76 0 L 76 800 L 145 800 L 145 435 C 153 465 172 491 203 511 C 234 531 272 542 316 542 C 338 542 359 539 379 533 C 399 527 417 518 432 506 C 447 494 459 478 468 460 C 477 442 482 420 482 396 L 482 0 Z" unicode="h" />
<glyph horiz-adv-x="230" d="M 75 649 L 75 731 L 155 731 L 155 649 L 75 649 Z M 78 0 L 78 533 L 153 533 L 153 0 L 78 0 Z" unicode="i" />
<glyph horiz-adv-x="253" d="M 183 649 L 104 649 L 104 731 L 183 731 L 183 649 Z M 181 533 L 181 -39 C 181 -87 168 -123 142 -148 C 116 -173 87 -186 53 -186 C 35 -186 17 -183 0 -179 C -16 -174 -29 -168 -39 -162 L -16 -107 C -8 -111 0 -114 10 -117 C 20 -119 32 -121 45 -121 C 61 -121 75 -113 88 -98 C 100 -82 107 -61 107 -35 L 107 533 L 181 533 Z" unicode="j" />
<glyph horiz-adv-x="494" d="M 509 1 L 425 0 L 245 255 L 150 145 L 150 0 L 76 0 L 76 800 L 149 800 L 149 229 L 389 533 L 469 533 L 295 311 L 509 1 Z" unicode="k" />
<glyph horiz-adv-x="256" d="M 72 105 L 72 800 L 146 800 L 146 125 C 146 104 151 88 161 78 C 171 67 186 62 204 62 C 210 62 217 62 225 63 C 233 64 239 65 244 67 L 249 4 C 243 1 234 -1 222 -3 C 210 -5 199 -6 187 -6 C 156 -6 129 3 106 21 C 83 39 72 67 72 105 Z" unicode="l" />
<glyph horiz-adv-x="875" d="M 76 0 L 76 533 L 141 533 L 141 427 C 151 463 173 491 207 511 C 240 531 276 542 315 542 C 356 542 391 531 420 511 C 448 491 465 463 469 427 L 472 427 C 479 461 499 488 531 510 C 563 531 600 542 640 542 C 686 542 724 529 756 505 C 788 481 804 445 804 397 L 804 0 L 730 0 L 730 372 C 730 408 718 435 696 452 C 673 469 645 478 613 478 C 597 478 581 475 565 470 C 549 464 534 456 521 446 C 508 435 497 421 489 405 C 481 388 477 368 477 346 L 477 0 L 403 0 L 403 377 C 403 409 391 434 369 452 C 346 469 318 478 286 478 C 270 478 253 475 237 470 C 221 464 206 456 193 445 C 180 434 170 420 162 403 C 154 386 150 366 150 343 L 150 0 L 76 0 Z" unicode="m" />
<glyph horiz-adv-x="553" d="M 482 0 L 408 0 L 408 379 C 408 410 396 434 373 452 C 350 469 323 478 293 478 C 277 478 260 475 243 470 C 226 465 211 457 197 447 C 183 437 172 423 163 407 C 154 390 150 370 150 347 L 150 0 L 76 0 L 76 533 L 140 533 L 140 427 C 151 461 172 488 204 510 C 236 531 274 542 318 542 C 340 542 361 538 381 532 C 401 526 418 517 433 505 C 447 493 459 479 468 462 C 477 444 482 425 482 403 L 482 0 Z" unicode="n" />
<glyph horiz-adv-x="558" d="M 277 -9 C 244 -9 213 -2 184 9 C 155 21 130 39 108 63 C 86 86 69 115 56 149 C 43 183 37 221 37 264 C 37 304 43 341 55 375 C 67 409 84 438 106 463 C 128 487 153 507 183 521 C 212 535 243 542 277 542 C 311 542 344 535 374 523 C 404 510 429 492 451 470 C 473 447 490 419 502 387 C 514 354 521 318 521 278 C 521 236 514 197 502 162 C 490 126 473 96 451 71 C 429 46 404 26 374 12 C 344 -1 311 -9 277 -9 Z M 280 57 C 329 57 369 76 399 116 C 429 155 444 207 444 271 C 444 332 428 381 398 419 C 367 457 326 476 275 476 C 227 476 189 456 159 417 C 129 378 115 328 115 266 C 115 198 130 147 162 111 C 194 75 233 57 280 57 Z" unicode="o" />
<glyph horiz-adv-x="570" d="M 76 -196 L 76 533 L 142 533 L 142 395 C 150 435 170 469 202 498 C 233 526 274 541 324 541 C 388 541 439 516 476 468 C 513 419 532 355 532 277 C 532 191 512 122 472 71 C 432 19 382 -6 321 -6 C 275 -6 238 5 208 29 C 178 53 158 82 149 116 L 149 -196 L 76 -196 Z M 302 56 C 346 56 382 75 411 114 C 440 153 455 205 455 269 C 455 329 442 378 416 418 C 390 457 353 477 303 477 C 259 477 221 460 191 426 C 160 392 145 337 145 261 C 145 187 160 135 191 103 C 221 71 258 56 302 56 Z" unicode="p" />
<glyph horiz-adv-x="574" d="M 425 -196 L 425 130 C 420 114 412 97 402 81 C 392 65 379 50 365 37 C 350 24 333 13 313 5 C 293 -3 272 -8 248 -8 C 216 -8 188 -1 162 11 C 136 24 113 42 95 66 C 77 89 63 117 53 150 C 43 182 38 218 38 257 C 38 301 43 340 55 376 C 66 411 81 441 101 465 C 121 489 144 508 171 521 C 198 534 227 541 258 541 C 280 541 301 537 321 529 C 340 521 357 510 372 497 C 387 484 400 469 410 453 C 420 436 428 419 432 402 L 432 533 L 498 533 L 498 -196 L 425 -196 Z M 271 54 C 315 54 352 72 382 110 C 412 148 428 201 428 270 C 428 338 412 389 381 424 C 350 459 313 477 270 477 C 223 477 185 458 157 420 C 128 382 114 331 114 265 C 114 203 128 152 156 113 C 184 73 223 54 271 54 Z" unicode="q" />
<glyph horiz-adv-x="403" d="M 405 513 L 371 447 C 362 455 350 462 336 467 C 322 472 305 475 287 475 C 271 475 254 471 238 465 C 222 458 207 448 194 436 C 181 423 170 407 162 389 C 154 371 150 350 150 327 L 150 0 L 76 0 L 76 533 L 145 533 L 145 416 C 152 449 171 478 201 504 C 231 529 268 542 310 542 C 332 542 351 539 367 533 C 383 527 396 521 405 513 Z" unicode="r" />
<glyph horiz-adv-x="425" d="M 227 -9 C 184 -9 146 -2 114 10 C 81 23 54 40 34 62 L 70 112 C 88 94 110 80 137 69 C 163 57 191 52 221 52 C 247 52 270 60 290 76 C 310 92 320 113 320 139 C 320 161 311 181 293 198 C 275 214 242 232 195 250 C 141 269 104 291 84 317 C 63 342 53 373 53 409 C 53 448 68 480 100 505 C 131 529 169 542 215 542 C 257 542 291 536 317 525 C 343 513 364 502 380 490 L 351 431 C 334 443 315 454 293 464 C 271 474 247 480 221 480 C 195 480 173 473 153 460 C 133 447 124 430 124 408 C 124 386 131 369 146 355 C 160 341 192 324 242 306 C 296 284 334 261 357 236 C 380 210 392 178 392 139 C 392 115 387 94 378 76 C 369 58 357 42 342 30 C 326 17 309 7 289 1 C 269 -5 248 -9 227 -9 Z" unicode="s" />
<glyph horiz-adv-x="310" d="M 282 79 L 295 18 C 287 11 275 5 259 1 C 243 -2 225 -5 207 -5 C 174 -5 146 5 122 27 C 98 48 87 82 87 128 L 87 470 L 14 470 L 14 533 L 88 533 L 88 662 L 160 672 L 160 533 L 281 533 L 281 470 L 161 470 L 161 131 C 161 109 166 92 176 80 C 186 68 201 62 220 62 C 232 62 244 64 256 68 C 267 72 276 75 282 79 Z" unicode="t" />
<glyph horiz-adv-x="553" d="M 70 533 L 145 533 L 145 180 C 145 134 157 101 181 82 C 205 62 235 53 271 53 C 305 53 336 64 362 88 C 388 111 402 144 402 188 L 402 533 L 477 533 L 477 0 L 410 0 L 410 104 C 402 74 383 48 353 25 C 323 2 286 -9 241 -9 C 218 -9 196 -5 175 0 C 154 6 136 16 121 29 C 105 42 93 59 84 79 C 74 99 70 124 70 152 L 70 533 Z" unicode="u" />
<glyph horiz-adv-x="458" d="M 461 533 L 254 -2 L 202 -2 L -3 533 L 77 533 L 231 119 L 386 533 L 461 533 Z" unicode="v" />
<glyph horiz-adv-x="682" d="M 464 -2 L 346 343 L 218 -2 L 169 -2 L 5 533 L 79 533 L 203 114 L 323 453 L 374 453 L 485 116 L 608 533 L 677 533 L 512 -2 L 464 -2 Z" unicode="w" />
<glyph horiz-adv-x="423" d="M 343 0 L 210 218 L 74 0 L 3 0 L 174 276 L 17 533 L 95 533 L 213 339 L 334 533 L 406 533 L 249 281 L 420 0 L 343 0 Z" unicode="x" />
<glyph horiz-adv-x="463" d="M 466 533 L 220 -88 C 202 -130 180 -159 154 -175 C 127 -191 101 -200 75 -200 C 57 -200 43 -198 31 -194 C 19 -190 11 -187 7 -185 L 33 -122 C 35 -124 41 -126 50 -129 C 58 -131 67 -133 76 -133 C 91 -133 106 -127 120 -115 C 134 -103 148 -83 160 -57 L 194 32 L -3 533 L 76 533 L 232 122 L 391 533 L 466 533 Z" unicode="y" />
<glyph horiz-adv-x="417" d="M 388 533 L 388 499 L 119 65 L 407 65 L 407 0 L 17 0 L 17 32 L 288 467 L 31 467 L 31 533 L 388 533 Z" unicode="z" />
<glyph horiz-adv-x="276" d="M 261 -179 C 205 -175 158 -157 121 -127 C 83 -97 64 -60 62 -17 C 61 5 63 26 67 45 C 71 64 77 81 83 96 C 88 110 93 124 99 138 C 104 152 106 165 106 178 C 105 198 96 216 80 232 C 63 248 41 257 15 258 L 15 313 C 42 313 64 321 82 339 C 99 356 108 376 109 400 C 109 405 106 415 101 429 C 95 443 89 459 83 476 C 76 493 71 510 67 527 C 63 543 62 560 62 576 C 62 597 68 618 78 638 C 88 658 101 676 119 692 C 136 708 157 721 181 731 C 205 741 232 747 261 749 L 261 694 C 225 690 196 677 174 654 C 151 630 139 603 138 572 C 138 562 139 550 141 537 C 143 524 146 511 152 499 C 160 480 167 463 173 447 C 179 431 182 417 182 405 C 181 376 173 350 157 328 C 141 306 116 291 84 285 C 116 278 140 264 156 242 C 172 220 180 196 181 171 C 181 153 179 137 173 123 C 167 109 162 95 156 81 C 150 68 145 54 142 39 C 138 24 137 10 138 -2 C 140 -29 152 -55 174 -81 C 196 -106 225 -120 261 -124 L 261 -179 Z" unicode="{" />
<glyph horiz-adv-x="245" d="M 158 -179 L 87 -179 L 87 730 L 158 730 L 158 -179 Z" unicode="|" />
<glyph horiz-adv-x="276" d="M 16 -179 L 16 -124 C 50 -120 79 -106 101 -81 C 123 -55 136 -29 138 -2 C 138 10 137 24 134 39 C 131 53 126 67 120 81 C 114 95 108 109 102 123 C 96 137 94 153 95 171 C 96 196 104 220 120 242 C 135 264 159 278 192 285 C 159 291 135 306 119 328 C 103 350 94 376 94 405 C 94 417 97 431 103 447 C 109 463 116 480 124 499 C 129 511 133 524 135 537 C 137 550 138 562 138 572 C 136 602 124 629 102 653 C 79 677 50 690 16 694 L 16 749 C 44 747 71 741 95 731 C 119 721 140 708 157 692 C 174 676 188 658 198 638 C 208 618 213 597 214 576 C 214 560 213 543 209 527 C 205 510 200 493 194 476 C 187 459 181 443 175 429 C 169 415 167 405 168 400 C 168 376 177 356 194 339 C 211 321 234 313 262 313 L 262 258 C 234 257 212 248 196 232 C 179 216 170 198 170 178 C 169 165 171 152 177 138 C 182 124 188 110 194 96 C 199 81 204 64 208 45 C 212 26 214 5 214 -17 C 212 -60 193 -97 155 -127 C 117 -157 71 -175 16 -179 Z" unicode="}" />
<glyph horiz-adv-x="482" d="M 384 436 L 447 436 C 446 381 438 340 422 313 C 406 286 380 273 346 273 C 323 273 303 278 286 288 C 268 298 253 310 241 322 C 227 334 213 345 199 355 C 185 365 171 370 157 370 C 142 370 128 362 116 346 C 104 330 98 306 98 276 L 36 276 C 36 330 45 370 65 398 C 84 425 108 439 137 439 C 161 439 183 433 202 423 C 221 413 238 401 254 387 C 266 376 279 366 292 356 C 304 346 319 342 336 342 C 354 342 367 349 374 364 C 380 379 384 403 384 436 Z" unicode="~" />
<glyph horiz-adv-x="281" d="M 101 615 L 181 615 L 181 529 L 101 529 L 101 615 Z M 98 185 L 123 422 L 160 422 L 183 185 L 183 -110 L 98 -110 L 98 185 Z" unicode="¡" />
<glyph horiz-adv-x="494" d="M 475 206 C 459 183 438 160 412 138 C 385 116 347 103 298 100 L 298 -4 L 245 -4 L 245 101 C 183 108 133 135 96 181 C 58 227 40 284 40 352 C 40 384 44 415 54 445 C 64 474 78 500 96 523 C 114 545 135 564 161 579 C 186 594 214 604 245 608 L 245 708 L 298 708 L 298 609 C 344 606 381 594 411 572 C 441 550 462 526 476 500 L 426 464 C 413 484 396 502 376 518 C 355 534 329 543 298 546 L 298 163 C 334 165 363 176 383 194 C 403 212 419 229 430 247 L 475 206 Z M 114 356 C 114 307 125 265 149 231 C 173 197 205 175 245 167 L 245 543 C 205 534 173 512 149 477 C 125 442 114 402 114 356 Z" unicode="¢" />
<glyph horiz-adv-x="558" d="M 544 58 L 544 0 L 30 0 L 30 46 C 36 48 44 51 55 53 C 65 55 79 57 97 61 C 109 63 122 67 136 73 C 150 79 162 86 174 96 C 185 106 194 118 202 132 C 209 146 213 162 213 181 C 213 187 212 194 211 201 C 209 207 207 214 205 221 L 41 221 L 41 275 L 178 275 C 170 288 162 302 154 317 C 145 332 136 348 128 364 L 41 364 L 41 418 L 103 418 C 96 436 90 456 86 477 C 81 497 79 519 79 542 C 79 580 85 611 98 637 C 111 663 128 683 150 699 C 172 714 197 725 225 732 C 253 738 283 742 313 742 C 362 742 407 732 449 714 C 490 695 520 677 539 661 L 502 607 C 485 619 460 634 427 650 C 393 666 357 675 317 675 C 297 675 277 672 258 668 C 238 663 221 655 207 644 C 192 633 180 618 171 599 C 162 580 158 557 158 529 C 158 510 160 491 165 473 C 170 454 177 436 185 418 L 468 418 L 468 364 L 212 364 C 220 348 229 333 237 318 C 245 303 253 289 260 275 L 468 275 L 468 221 L 278 221 C 278 217 279 213 280 209 C 280 205 281 201 281 197 C 281 174 277 154 269 138 C 261 121 251 107 239 96 C 227 85 215 77 202 71 C 189 65 178 60 169 58 L 544 58 Z" unicode="£" />
<glyph horiz-adv-x="502" d="M 441 184 L 406 149 L 344 213 C 330 205 316 198 300 194 C 284 189 267 187 250 187 C 232 187 215 189 199 194 C 183 198 168 205 155 214 L 92 149 L 56 185 L 116 247 C 103 261 93 278 86 296 C 78 314 75 333 75 354 C 75 374 78 394 86 412 C 93 430 103 446 116 461 L 55 524 L 91 559 L 154 494 C 167 502 182 509 198 514 C 214 518 232 521 250 521 C 268 521 285 518 301 513 C 317 508 333 501 347 493 L 411 560 L 446 523 L 385 460 C 397 445 406 429 413 411 C 420 393 424 374 424 354 C 424 333 420 313 412 295 C 404 276 394 259 382 245 L 441 184 Z M 250 242 C 282 242 310 253 334 275 C 357 297 369 324 369 354 C 369 384 357 411 334 433 C 310 455 282 466 250 466 C 216 466 188 455 165 433 C 142 411 131 384 131 354 C 131 324 142 297 165 275 C 188 253 216 242 250 242 Z" unicode="¤" />
<glyph horiz-adv-x="577" d="M 508 154 L 327 154 L 327 0 L 247 0 L 247 154 L 67 154 L 67 207 L 247 207 L 247 274 L 67 274 L 67 328 L 247 328 L 247 333 L 27 730 L 112 730 L 290 403 L 469 730 L 550 730 L 327 331 L 327 328 L 507 328 L 507 274 L 327 274 L 327 207 L 508 207 L 508 154 Z" unicode="¥" />
<glyph horiz-adv-x="263" d="M 99 351 L 99 730 L 164 730 L 164 351 L 99 351 Z M 164 200 L 164 -179 L 99 -179 L 99 200 L 164 200 Z" unicode="¦" />
<glyph horiz-adv-x="624" d="M 330 -180 C 276 -180 226 -173 179 -160 C 131 -146 92 -128 60 -106 L 91 -43 C 120 -64 156 -82 200 -96 C 243 -110 285 -118 325 -118 C 363 -118 394 -108 420 -90 C 445 -72 458 -46 458 -13 C 458 17 448 41 429 57 C 409 73 384 87 353 100 L 221 159 C 193 171 168 182 146 193 C 124 203 106 215 92 228 C 78 240 67 255 60 271 C 52 287 49 307 49 331 C 49 362 56 387 72 407 C 88 427 106 443 127 456 C 108 466 94 482 85 502 C 75 522 71 546 71 576 C 71 602 76 626 88 647 C 100 667 116 685 137 699 C 157 713 182 723 210 731 C 238 738 268 742 300 742 C 358 742 405 733 443 717 C 480 700 512 681 539 661 L 505 604 C 475 624 445 643 413 659 C 381 675 342 683 298 683 C 256 683 221 673 192 654 C 163 635 149 609 149 576 C 149 554 155 535 169 520 C 182 504 203 491 231 481 L 406 407 C 460 386 501 364 529 340 C 557 316 572 283 572 241 C 572 205 560 177 536 157 C 512 137 487 124 460 119 C 466 115 474 109 483 102 C 492 94 501 85 509 75 C 517 64 524 51 530 37 C 536 22 539 6 539 -12 C 539 -38 533 -62 522 -83 C 511 -103 496 -121 478 -135 C 459 -149 437 -160 412 -168 C 386 -176 359 -180 330 -180 Z M 404 156 C 425 158 445 165 464 177 C 482 189 492 208 492 235 C 492 259 481 280 461 298 C 441 316 408 334 362 351 L 190 424 C 172 414 156 403 144 391 C 132 378 126 360 126 337 C 126 309 136 287 158 270 C 179 252 213 235 259 219 L 404 156 Z" unicode="§" />
<glyph horiz-adv-x="500" d="M 365 588 L 303 588 L 303 745 L 365 745 L 365 588 Z M 197 588 L 135 588 L 135 745 L 197 745 L 197 588 Z" unicode="¨" />
<glyph horiz-adv-x="838" d="M 419 4 C 368 4 320 13 275 33 C 230 52 191 78 158 112 C 124 145 98 184 79 229 C 59 274 50 322 50 373 C 50 423 59 471 79 516 C 98 561 124 600 158 634 C 191 667 230 693 275 713 C 320 732 368 742 419 742 C 469 742 517 732 562 713 C 607 693 646 667 680 634 C 713 600 739 561 759 516 C 778 471 788 423 788 373 C 788 322 778 274 759 229 C 739 184 713 145 680 112 C 646 78 607 52 562 33 C 517 13 469 4 419 4 Z M 420 52 C 464 52 505 60 544 77 C 582 94 616 117 645 146 C 673 174 696 208 713 247 C 729 286 738 328 738 372 C 738 416 729 457 713 496 C 696 535 673 569 645 599 C 616 628 582 651 544 668 C 505 685 464 694 420 694 C 376 694 334 685 295 668 C 256 651 222 628 193 599 C 164 569 141 535 125 496 C 108 457 100 416 100 372 C 100 328 108 286 125 247 C 141 208 164 174 193 146 C 222 117 256 94 295 77 C 334 60 376 52 420 52 Z M 587 239 C 571 215 550 194 522 178 C 494 161 460 153 420 153 C 394 153 369 157 345 167 C 321 177 299 191 281 209 C 263 227 248 250 237 278 C 225 305 220 336 220 371 C 220 404 225 435 235 463 C 245 491 258 514 276 534 C 293 554 314 569 338 580 C 362 590 387 596 415 596 C 457 596 492 588 519 574 C 545 560 566 541 582 519 L 531 481 C 519 496 505 509 487 520 C 469 530 445 536 417 536 C 379 536 347 520 322 488 C 297 456 285 416 285 370 C 285 344 288 322 296 302 C 304 282 314 265 327 252 C 340 238 355 228 371 221 C 387 214 404 211 421 211 C 446 211 469 216 489 228 C 509 239 525 254 538 273 L 587 239 Z" unicode="©" />
<glyph horiz-adv-x="473" d="M 418 293 L 356 293 L 356 357 C 340 334 317 316 288 304 C 258 292 227 286 193 286 C 146 286 109 298 82 322 C 54 346 41 380 41 422 C 41 469 59 505 95 530 C 131 554 178 568 238 571 L 356 579 L 356 588 C 356 618 345 641 325 657 C 305 673 277 681 243 681 C 215 681 188 676 163 667 C 137 657 115 646 96 634 L 72 685 C 93 701 119 714 149 725 C 179 736 214 742 253 742 C 303 742 343 729 373 705 C 403 681 418 642 418 588 L 418 293 Z M 355 407 L 355 526 L 232 519 C 196 517 166 509 142 495 C 118 481 107 458 107 427 C 107 401 117 380 137 366 C 157 351 182 344 214 344 C 241 344 268 349 294 361 C 320 372 340 387 355 407 Z M 428 171 L 47 171 L 47 233 L 428 233 L 428 171 Z" unicode="ª" />
<glyph horiz-adv-x="431" d="M 201 109 L 29 282 L 29 326 L 201 497 L 201 421 L 93 304 L 201 190 L 201 109 Z M 400 109 L 227 282 L 227 326 L 400 497 L 400 421 L 293 304 L 400 190 L 400 109 Z" unicode="«" />
<glyph horiz-adv-x="492" d="M 446 375 L 446 137 L 384 137 L 384 312 L 32 312 L 32 375 L 446 375 Z" unicode="¬" />
<glyph horiz-adv-x="837" d="M 419 4 C 368 4 320 13 275 33 C 230 52 191 78 158 112 C 124 145 98 184 78 229 C 58 274 49 322 49 373 C 49 423 58 471 78 516 C 98 561 124 600 158 634 C 191 667 230 693 275 713 C 320 732 368 742 419 742 C 469 742 517 732 562 713 C 607 693 646 667 680 634 C 713 600 739 561 759 516 C 778 471 788 423 788 373 C 788 322 778 274 759 229 C 739 184 713 145 680 112 C 646 78 607 52 562 33 C 517 13 469 4 419 4 Z M 419 52 C 463 52 504 60 543 77 C 581 93 615 116 644 145 C 673 173 696 207 713 247 C 729 286 738 328 738 373 C 738 417 729 458 713 498 C 696 537 673 571 644 600 C 615 629 581 652 543 669 C 504 685 463 694 419 694 C 375 694 333 685 294 668 C 255 651 221 628 192 599 C 163 570 140 536 124 497 C 107 458 99 417 99 373 C 99 328 107 286 124 247 C 140 208 163 174 192 145 C 221 116 255 93 294 77 C 333 60 375 52 419 52 Z M 283 165 L 283 598 L 436 598 C 454 598 471 595 488 591 C 505 586 520 579 533 570 C 545 560 556 548 564 533 C 572 517 576 499 576 479 C 576 441 565 412 545 392 C 524 372 501 360 476 357 L 475 353 L 613 165 L 547 165 L 419 345 L 340 345 L 340 165 L 283 165 Z M 339 394 L 442 394 C 462 394 481 400 497 414 C 513 428 521 447 521 473 C 521 498 513 517 495 529 C 477 541 456 547 431 547 L 339 547 L 339 394 Z" unicode="®" />
<glyph horiz-adv-x="500" d="M 373 608 L 127 608 L 127 671 L 373 671 L 373 608 Z" unicode="¯" />
<glyph horiz-adv-x="424" d="M 212 378 C 186 378 163 382 141 392 C 119 402 99 415 83 431 C 67 447 54 467 44 489 C 34 511 30 534 30 560 C 30 585 34 609 44 631 C 54 653 67 672 83 688 C 99 704 119 717 141 727 C 163 737 186 742 212 742 C 237 742 261 737 283 727 C 305 717 324 704 340 688 C 356 672 369 653 379 631 C 389 609 394 585 394 560 C 394 534 389 511 379 489 C 369 467 356 447 340 431 C 324 415 305 402 283 392 C 261 382 237 378 212 378 Z M 212 438 C 245 438 274 450 299 474 C 323 498 336 526 336 560 C 336 593 323 622 299 646 C 274 670 245 683 212 683 C 178 683 149 670 125 646 C 101 622 89 593 89 560 C 89 526 101 498 125 474 C 149 450 178 438 212 438 Z" unicode="°" />
<glyph horiz-adv-x="492" d="M 466 301 L 277 301 L 277 115 L 216 115 L 216 301 L 27 301 L 27 359 L 216 359 L 216 547 L 277 547 L 277 359 L 466 359 L 466 301 Z M 460 28 L 35 28 L 35 86 L 460 86 L 460 28 Z" unicode="±" />
<glyph horiz-adv-x="329" d="M 303 372 L 24 372 L 24 396 L 190 551 C 198 558 206 567 214 579 C 222 591 226 605 226 621 C 226 637 219 652 207 666 C 195 679 177 686 153 686 C 125 686 106 677 94 661 C 82 645 76 626 76 606 L 17 606 C 17 641 29 672 53 700 C 77 727 113 741 159 741 C 203 741 236 730 258 709 C 280 688 292 663 292 635 C 292 608 286 586 276 568 C 266 550 255 535 244 525 L 132 426 L 303 426 L 303 372 Z" unicode="²" />
<glyph horiz-adv-x="346" d="M 223 569 C 252 565 275 554 291 537 C 307 520 315 500 315 477 C 315 464 312 451 307 438 C 302 424 294 412 282 401 C 270 390 255 381 235 374 C 215 367 190 364 161 364 C 121 364 89 368 67 378 C 44 387 26 397 12 407 L 48 444 C 60 436 75 430 93 424 C 111 418 133 415 159 415 C 193 415 217 421 233 435 C 248 449 256 466 256 486 C 256 508 246 522 228 530 C 210 537 189 541 167 541 L 95 541 L 95 588 L 162 588 C 185 588 204 592 218 602 C 232 611 239 624 239 641 C 239 655 232 667 220 676 C 207 685 188 690 162 690 C 139 690 119 685 101 677 C 83 668 70 658 61 646 L 25 681 C 37 695 55 709 77 722 C 99 735 131 742 171 742 C 212 742 244 733 266 716 C 288 698 300 677 300 652 C 300 630 292 612 277 598 C 262 583 244 573 223 569 Z" unicode="³" />
<glyph horiz-adv-x="500" d="M 165 591 L 263 758 L 349 758 L 238 591 L 165 591 Z" unicode="´" />
<glyph horiz-adv-x="610" d="M 81 -156 L 81 533 L 154 533 L 154 164 C 154 131 168 104 196 83 C 224 61 257 51 294 51 C 312 51 330 54 349 60 C 367 66 384 76 400 88 C 415 100 427 116 437 135 C 447 153 452 175 452 199 L 452 533 L 525 533 L 525 0 L 457 0 L 457 107 C 452 92 444 78 432 64 C 420 50 405 37 389 27 C 373 17 355 8 336 2 C 317 -3 298 -7 279 -7 C 251 -7 225 -1 200 10 C 175 22 158 38 148 60 L 148 -156 L 81 -156 Z" unicode="µ" />
<glyph horiz-adv-x="640" d="M 569 -179 L 516 -179 L 516 671 L 404 671 L 404 -179 L 350 -179 L 350 267 L 258 267 C 228 267 200 273 172 285 C 144 297 119 314 98 335 C 77 355 60 379 48 407 C 35 435 29 464 29 495 C 29 528 35 559 47 588 C 59 616 75 641 97 662 C 119 683 145 700 176 712 C 206 724 240 730 277 730 L 569 730 L 569 -179 Z M 351 329 L 351 668 L 301 668 C 251 668 210 651 178 619 C 146 587 130 546 130 498 C 130 475 134 453 143 433 C 151 412 163 394 178 379 C 192 363 209 351 229 342 C 248 333 268 329 290 329 L 351 329 Z" unicode="¶" />
<glyph horiz-adv-x="242" d="M 159 292 L 83 292 L 83 415 L 159 415 L 159 292 Z" unicode="·" />
<glyph horiz-adv-x="500" d="M 253 -184 C 231 -184 208 -181 186 -175 C 164 -169 146 -161 133 -152 L 148 -119 C 157 -125 169 -130 184 -136 C 199 -142 216 -145 235 -145 C 251 -145 264 -141 276 -134 C 287 -126 293 -117 293 -105 C 293 -91 287 -81 277 -75 C 267 -69 256 -67 244 -67 C 235 -67 228 -67 222 -68 C 216 -69 209 -71 202 -74 L 191 -61 L 247 11 L 290 11 L 243 -51 C 275 -44 303 -46 325 -58 C 347 -69 359 -87 359 -111 C 359 -135 348 -153 327 -165 C 306 -177 281 -184 253 -184 Z" unicode="¸" />
<glyph horiz-adv-x="322" d="M 147 372 L 147 663 C 140 651 126 640 106 631 C 86 621 68 615 53 613 L 52 678 C 76 681 97 688 115 699 C 133 710 150 724 168 741 L 215 741 L 215 372 L 147 372 Z" unicode="¹" />
<glyph horiz-adv-x="482" d="M 238 284 C 211 284 185 289 160 299 C 135 309 113 324 95 344 C 76 363 61 387 50 415 C 38 443 33 474 33 509 C 33 539 38 569 49 597 C 60 625 75 649 94 670 C 112 691 134 708 159 720 C 184 732 211 739 240 739 C 269 739 296 733 322 723 C 348 712 370 697 389 678 C 407 658 422 635 433 608 C 444 581 450 551 450 519 C 450 485 444 454 433 426 C 422 397 407 372 388 351 C 369 330 347 314 321 302 C 295 290 267 284 238 284 Z M 239 344 C 281 344 316 360 343 393 C 369 425 383 466 383 516 C 383 562 370 600 345 632 C 320 664 285 680 240 680 C 198 680 164 663 138 631 C 112 598 99 557 99 508 C 99 459 112 419 139 389 C 165 359 199 344 239 344 Z M 52 171 L 52 233 L 427 233 L 427 171 L 52 171 Z" unicode="º" />
<glyph horiz-adv-x="435" d="M 31 497 L 204 325 L 204 280 L 31 110 L 31 186 L 139 303 L 31 417 L 31 497 Z M 234 497 L 406 325 L 406 280 L 234 110 L 234 186 L 342 303 L 234 417 L 234 497 Z" unicode="»" />
<glyph horiz-adv-x="686" d="M 7 0 L 7 0 Z M 102 372 L 102 663 C 95 651 81 640 61 631 C 41 621 23 615 8 613 L 7 678 C 31 681 52 688 70 699 C 88 710 105 724 123 741 L 170 741 L 170 372 L 102 372 Z M 565 730 L 184 0 L 120 0 L 501 730 L 565 730 Z M 380 86 L 380 131 L 572 367 L 615 367 L 615 135 L 679 135 L 679 86 L 615 86 L 615 1 L 553 1 L 553 86 L 380 86 Z M 436 128 L 555 128 L 555 279 L 436 128 Z" unicode="¼" />
<glyph horiz-adv-x="742" d="M 7 0 L 7 0 Z M 102 372 L 102 663 C 95 651 81 640 61 631 C 41 621 23 615 8 613 L 7 678 C 31 681 52 688 70 699 C 88 710 105 724 123 741 L 170 741 L 170 372 L 102 372 Z M 565 730 L 184 0 L 120 0 L 501 730 L 565 730 Z M 728 0 L 449 0 L 449 24 L 615 179 C 623 186 631 195 639 207 C 647 219 651 233 651 249 C 651 265 644 280 632 294 C 620 307 602 314 578 314 C 550 314 531 305 519 289 C 507 273 501 254 501 234 L 442 234 C 442 269 454 300 478 328 C 502 355 538 369 584 369 C 628 369 661 358 683 337 C 705 316 717 291 717 263 C 717 236 711 214 701 196 C 691 178 680 163 669 153 L 557 54 L 728 54 L 728 0 Z" unicode="½" />
<glyph horiz-adv-x="749" d="M 7 0 L 7 0 Z M 628 730 L 247 0 L 183 0 L 564 730 L 628 730 Z M 443 86 L 443 131 L 635 367 L 678 367 L 678 135 L 742 135 L 742 86 L 678 86 L 678 1 L 616 1 L 616 86 L 443 86 Z M 499 128 L 618 128 L 618 279 L 499 128 Z M 218 569 C 247 565 270 554 286 537 C 302 520 310 500 310 477 C 310 464 307 451 302 438 C 297 424 289 412 277 401 C 265 390 250 381 230 374 C 210 367 185 364 156 364 C 116 364 84 368 62 378 C 39 387 21 397 7 407 L 43 444 C 55 436 70 430 88 424 C 106 418 128 415 154 415 C 188 415 212 421 228 435 C 243 449 251 466 251 486 C 251 508 241 522 223 530 C 205 537 184 541 162 541 L 90 541 L 90 588 L 157 588 C 180 588 199 592 213 602 C 227 611 234 624 234 641 C 234 655 227 667 215 676 C 202 685 183 690 157 690 C 134 690 114 685 96 677 C 78 668 65 658 56 646 L 20 681 C 32 695 50 709 72 722 C 94 735 126 742 166 742 C 207 742 239 733 261 716 C 283 698 295 677 295 652 C 295 630 287 612 272 598 C 257 583 239 573 218 569 Z" unicode="¾" />
<glyph horiz-adv-x="457" d="M 208 507 L 208 615 L 291 615 L 291 507 L 208 507 Z M 230 -127 C 172 -127 124 -111 86 -81 C 48 -51 29 -8 29 46 C 29 71 33 94 41 115 C 49 135 59 154 71 170 C 83 186 97 201 111 215 C 125 228 139 240 152 251 C 178 273 195 299 202 331 C 209 363 213 393 214 423 L 288 423 C 288 373 282 334 272 304 C 262 274 242 247 214 221 C 202 211 189 200 177 189 C 165 178 153 166 143 153 C 133 140 124 126 118 110 C 111 94 108 76 108 57 C 108 21 120 -6 145 -27 C 170 -47 201 -58 239 -58 C 271 -58 300 -50 326 -35 C 352 -20 373 -1 391 21 L 440 -27 C 417 -56 388 -80 352 -99 C 316 -117 276 -127 230 -127 Z" unicode="¿" />
<glyph horiz-adv-x="589" d="M 3 0 L 3 0 Z M 586 0 L 504 0 L 428 209 L 154 209 L 81 0 L 3 0 L 268 734 L 322 734 L 586 0 Z M 412 269 L 290 611 L 170 269 L 412 269 Z M 292 784 L 292 784 Z M 384 784 L 310 784 L 199 951 L 285 951 L 384 784 Z" unicode="À" />
<glyph horiz-adv-x="589" d="M 3 0 L 3 0 Z M 586 0 L 504 0 L 428 209 L 154 209 L 81 0 L 3 0 L 268 734 L 322 734 L 586 0 Z M 412 269 L 290 611 L 170 269 L 412 269 Z M 292 788 L 292 788 Z M 200 788 L 298 955 L 384 955 L 273 788 L 200 788 Z" unicode="Á" />
<glyph horiz-adv-x="589" d="M 3 0 L 3 0 Z M 586 0 L 504 0 L 428 209 L 154 209 L 81 0 L 3 0 L 268 734 L 322 734 L 586 0 Z M 412 269 L 290 611 L 170 269 L 412 269 Z M 292 785 L 292 785 Z M 442 785 L 374 785 L 292 906 L 208 785 L 142 785 L 257 955 L 328 955 L 442 785 Z" unicode="Â" />
<glyph horiz-adv-x="589" d="M 3 0 L 3 0 Z M 586 0 L 504 0 L 428 209 L 154 209 L 81 0 L 3 0 L 268 734 L 322 734 L 586 0 Z M 412 269 L 290 611 L 170 269 L 412 269 Z M 292 792 L 292 792 Z M 395 923 L 454 923 C 454 879 447 846 434 824 C 421 802 403 792 381 792 C 363 792 346 796 332 805 C 318 813 305 822 294 832 C 283 840 272 849 261 857 C 250 865 239 870 229 870 C 218 870 209 863 201 851 C 193 839 188 821 188 797 L 130 797 C 130 841 138 873 156 895 C 173 917 192 928 213 928 C 229 928 244 923 257 915 C 270 906 283 896 295 886 C 305 877 316 869 326 862 C 336 854 346 851 357 851 C 367 851 376 857 384 870 C 391 882 395 900 395 923 Z" unicode="Ã" />
<glyph horiz-adv-x="589" d="M 3 0 L 3 0 Z M 586 0 L 504 0 L 428 209 L 154 209 L 81 0 L 3 0 L 268 734 L 322 734 L 586 0 Z M 412 269 L 290 611 L 170 269 L 412 269 Z M 292 785 L 292 785 Z M 407 785 L 345 785 L 345 942 L 407 942 L 407 785 Z M 239 785 L 177 785 L 177 942 L 239 942 L 239 785 Z" unicode="Ä" />
<glyph horiz-adv-x="589" d="M 3 0 L 3 0 Z M 586 0 L 504 0 L 428 209 L 154 209 L 81 0 L 3 0 L 268 734 L 322 734 L 586 0 Z M 412 269 L 290 611 L 170 269 L 412 269 Z M 292 779 L 292 779 Z M 292 779 C 259 779 231 790 208 814 C 184 837 173 865 173 898 C 173 930 184 958 208 981 C 231 1004 259 1016 292 1016 C 325 1016 353 1004 376 981 C 399 958 411 930 411 898 C 411 865 399 837 376 814 C 353 790 325 779 292 779 Z M 292 826 C 312 826 328 833 342 847 C 355 861 362 878 362 898 C 362 918 355 935 342 949 C 328 963 312 970 292 970 C 272 970 256 963 242 949 C 228 935 221 918 221 898 C 221 878 228 861 242 847 C 256 833 272 826 292 826 Z" unicode="Å" />
<glyph horiz-adv-x="878" d="M 834 0 L 453 0 L 453 246 L 218 246 L 74 0 L -9 0 L 414 730 L 816 730 L 816 661 L 529 661 L 529 398 L 805 398 L 805 331 L 529 331 L 529 69 L 834 69 L 834 0 Z M 453 312 L 454 672 L 251 312 L 453 312 Z" unicode="Æ" />
<glyph horiz-adv-x="674" d="M 45 0 L 45 0 Z M 367 -10 C 323 -10 282 -1 243 15 C 204 31 170 56 141 88 C 111 120 88 159 71 206 C 53 252 45 305 45 365 C 45 421 52 472 68 518 C 84 564 106 604 134 637 C 162 669 196 695 236 713 C 276 731 320 740 368 740 C 430 740 482 728 524 705 C 566 682 599 650 624 610 L 560 568 C 540 596 515 620 485 640 C 455 659 416 669 368 669 C 294 669 235 642 191 589 C 147 535 126 461 126 366 C 126 314 133 269 147 231 C 161 193 180 161 203 136 C 226 110 252 91 282 79 C 312 66 342 60 374 60 C 423 60 464 71 498 93 C 531 115 558 143 579 177 L 640 139 C 615 95 579 60 533 32 C 487 4 431 -10 367 -10 Z M 362 -7 L 362 -7 Z M 369 -191 C 347 -191 324 -188 302 -182 C 280 -176 262 -168 249 -159 L 264 -126 C 273 -132 285 -137 300 -143 C 315 -149 332 -152 351 -152 C 367 -152 380 -148 392 -141 C 403 -133 409 -124 409 -112 C 409 -98 403 -88 393 -82 C 383 -76 372 -74 360 -74 C 351 -74 344 -74 338 -75 C 332 -76 325 -78 318 -81 L 307 -68 L 363 4 L 406 4 L 359 -58 C 391 -51 419 -53 441 -65 C 463 -76 475 -94 475 -118 C 475 -142 464 -160 443 -172 C 422 -184 397 -191 369 -191 Z" unicode="Ç" />
<glyph horiz-adv-x="516" d="M 88 0 L 88 0 Z M 472 0 L 88 0 L 88 730 L 454 730 L 454 661 L 166 661 L 166 398 L 442 398 L 442 330 L 166 330 L 166 69 L 472 69 L 472 0 Z M 276 784 L 276 784 Z M 368 784 L 294 784 L 183 951 L 269 951 L 368 784 Z" unicode="È" />
<glyph horiz-adv-x="516" d="M 88 0 L 88 0 Z M 472 0 L 88 0 L 88 730 L 454 730 L 454 661 L 166 661 L 166 398 L 442 398 L 442 330 L 166 330 L 166 69 L 472 69 L 472 0 Z M 276 788 L 276 788 Z M 184 788 L 282 955 L 368 955 L 257 788 L 184 788 Z" unicode="É" />
<glyph horiz-adv-x="516" d="M 88 0 L 88 0 Z M 472 0 L 88 0 L 88 730 L 454 730 L 454 661 L 166 661 L 166 398 L 442 398 L 442 330 L 166 330 L 166 69 L 472 69 L 472 0 Z M 276 785 L 276 785 Z M 426 785 L 358 785 L 276 906 L 192 785 L 126 785 L 241 955 L 312 955 L 426 785 Z" unicode="Ê" />
<glyph horiz-adv-x="516" d="M 88 0 L 88 0 Z M 472 0 L 88 0 L 88 730 L 454 730 L 454 661 L 166 661 L 166 398 L 442 398 L 442 330 L 166 330 L 166 69 L 472 69 L 472 0 Z M 276 785 L 276 785 Z M 391 785 L 329 785 L 329 942 L 391 942 L 391 785 Z M 223 785 L 161 785 L 161 942 L 223 942 L 223 785 Z" unicode="Ë" />
<glyph horiz-adv-x="264" d="M 39 0 L 39 0 Z M 172 0 L 92 0 L 92 730 L 172 730 L 172 0 Z M 132 784 L 132 784 Z M 224 784 L 150 784 L 39 951 L 125 951 L 224 784 Z" unicode="Ì" />
<glyph horiz-adv-x="264" d="M 40 0 L 40 0 Z M 172 0 L 92 0 L 92 730 L 172 730 L 172 0 Z M 132 788 L 132 788 Z M 40 788 L 138 955 L 224 955 L 113 788 L 40 788 Z" unicode="Í" />
<glyph horiz-adv-x="264" d="M 0 0 L 0 0 Z M 172 0 L 92 0 L 92 730 L 172 730 L 172 0 Z M 132 785 L 132 785 Z M 282 785 L 214 785 L 132 906 L 48 785 L -18 785 L 97 955 L 168 955 L 282 785 Z" unicode="Î" />
<glyph horiz-adv-x="264" d="M 17 0 L 17 0 Z M 172 0 L 92 0 L 92 730 L 172 730 L 172 0 Z M 132 785 L 132 785 Z M 247 785 L 185 785 L 185 942 L 247 942 L 247 785 Z M 79 785 L 17 785 L 17 942 L 79 942 L 79 785 Z" unicode="Ï" />
<glyph horiz-adv-x="675" d="M 630 366 C 630 315 622 267 607 223 C 591 178 568 139 538 107 C 508 74 470 48 424 29 C 378 9 326 0 266 0 L 88 0 L 88 329 L 31 329 L 31 389 L 88 389 L 88 730 L 277 730 C 332 730 382 721 426 704 C 470 687 507 663 537 632 C 567 600 590 562 606 517 C 622 471 630 421 630 366 Z M 165 61 L 258 61 C 310 61 354 69 391 85 C 428 101 458 123 481 151 C 504 178 521 210 532 247 C 542 284 548 323 548 364 C 548 461 523 536 475 589 C 427 642 360 669 276 669 L 165 669 L 165 389 L 343 389 L 343 329 L 165 329 L 165 61 Z" unicode="Ð" />
<glyph horiz-adv-x="706" d="M 88 0 L 88 0 Z M 618 0 L 560 0 L 163 575 L 163 0 L 88 0 L 88 730 L 148 730 L 545 155 L 545 730 L 618 730 L 618 0 Z M 353 792 L 353 792 Z M 456 923 L 515 923 C 515 879 508 846 495 824 C 482 802 464 792 442 792 C 424 792 407 796 393 805 C 379 813 366 822 355 832 C 344 840 333 849 322 857 C 311 865 300 870 290 870 C 279 870 270 863 262 851 C 254 839 249 821 249 797 L 191 797 C 191 841 199 873 217 895 C 234 917 253 928 274 928 C 290 928 305 923 318 915 C 331 906 344 896 356 886 C 366 877 377 869 387 862 C 397 854 407 851 418 851 C 428 851 437 857 445 870 C 452 882 456 900 456 923 Z" unicode="Ñ" />
<glyph horiz-adv-x="755" d="M 45 0 L 45 0 Z M 380 -10 C 330 -10 285 0 244 17 C 203 35 168 61 139 94 C 109 127 86 167 70 214 C 53 261 45 313 45 370 C 45 424 53 474 70 520 C 86 566 109 605 138 637 C 167 669 202 695 242 713 C 282 731 326 740 374 740 C 424 740 469 731 511 713 C 553 695 588 669 618 637 C 647 605 670 565 686 519 C 702 473 710 422 710 366 C 710 310 701 258 684 212 C 666 166 643 126 614 93 C 584 60 549 35 509 17 C 469 -1 426 -10 380 -10 Z M 384 56 C 418 56 451 63 481 77 C 511 91 537 111 559 137 C 581 163 598 196 611 235 C 623 274 630 318 630 368 C 630 413 623 454 610 492 C 597 530 579 562 556 588 C 533 614 506 635 474 649 C 442 663 408 671 371 671 C 299 671 240 644 194 591 C 148 537 126 463 126 368 C 126 318 132 274 146 236 C 160 197 178 164 201 138 C 224 111 251 91 283 77 C 315 63 348 56 384 56 Z M 374 784 L 374 784 Z M 466 784 L 392 784 L 281 951 L 367 951 L 466 784 Z" unicode="Ò" />
<glyph horiz-adv-x="755" d="M 45 0 L 45 0 Z M 380 -10 C 330 -10 285 0 244 17 C 203 35 168 61 139 94 C 109 127 86 167 70 214 C 53 261 45 313 45 370 C 45 424 53 474 70 520 C 86 566 109 605 138 637 C 167 669 202 695 242 713 C 282 731 326 740 374 740 C 424 740 469 731 511 713 C 553 695 588 669 618 637 C 647 605 670 565 686 519 C 702 473 710 422 710 366 C 710 310 701 258 684 212 C 666 166 643 126 614 93 C 584 60 549 35 509 17 C 469 -1 426 -10 380 -10 Z M 384 56 C 418 56 451 63 481 77 C 511 91 537 111 559 137 C 581 163 598 196 611 235 C 623 274 630 318 630 368 C 630 413 623 454 610 492 C 597 530 579 562 556 588 C 533 614 506 635 474 649 C 442 663 408 671 371 671 C 299 671 240 644 194 591 C 148 537 126 463 126 368 C 126 318 132 274 146 236 C 160 197 178 164 201 138 C 224 111 251 91 283 77 C 315 63 348 56 384 56 Z M 374 788 L 374 788 Z M 282 788 L 380 955 L 466 955 L 355 788 L 282 788 Z" unicode="Ó" />
<glyph horiz-adv-x="755" d="M 45 0 L 45 0 Z M 380 -10 C 330 -10 285 0 244 17 C 203 35 168 61 139 94 C 109 127 86 167 70 214 C 53 261 45 313 45 370 C 45 424 53 474 70 520 C 86 566 109 605 138 637 C 167 669 202 695 242 713 C 282 731 326 740 374 740 C 424 740 469 731 511 713 C 553 695 588 669 618 637 C 647 605 670 565 686 519 C 702 473 710 422 710 366 C 710 310 701 258 684 212 C 666 166 643 126 614 93 C 584 60 549 35 509 17 C 469 -1 426 -10 380 -10 Z M 384 56 C 418 56 451 63 481 77 C 511 91 537 111 559 137 C 581 163 598 196 611 235 C 623 274 630 318 630 368 C 630 413 623 454 610 492 C 597 530 579 562 556 588 C 533 614 506 635 474 649 C 442 663 408 671 371 671 C 299 671 240 644 194 591 C 148 537 126 463 126 368 C 126 318 132 274 146 236 C 160 197 178 164 201 138 C 224 111 251 91 283 77 C 315 63 348 56 384 56 Z M 374 785 L 374 785 Z M 524 785 L 456 785 L 374 906 L 290 785 L 224 785 L 339 955 L 410 955 L 524 785 Z" unicode="Ô" />
<glyph horiz-adv-x="755" d="M 45 0 L 45 0 Z M 380 -10 C 330 -10 285 0 244 17 C 203 35 168 61 139 94 C 109 127 86 167 70 214 C 53 261 45 313 45 370 C 45 424 53 474 70 520 C 86 566 109 605 138 637 C 167 669 202 695 242 713 C 282 731 326 740 374 740 C 424 740 469 731 511 713 C 553 695 588 669 618 637 C 647 605 670 565 686 519 C 702 473 710 422 710 366 C 710 310 701 258 684 212 C 666 166 643 126 614 93 C 584 60 549 35 509 17 C 469 -1 426 -10 380 -10 Z M 384 56 C 418 56 451 63 481 77 C 511 91 537 111 559 137 C 581 163 598 196 611 235 C 623 274 630 318 630 368 C 630 413 623 454 610 492 C 597 530 579 562 556 588 C 533 614 506 635 474 649 C 442 663 408 671 371 671 C 299 671 240 644 194 591 C 148 537 126 463 126 368 C 126 318 132 274 146 236 C 160 197 178 164 201 138 C 224 111 251 91 283 77 C 315 63 348 56 384 56 Z M 374 792 L 374 792 Z M 477 923 L 536 923 C 536 879 529 846 516 824 C 503 802 485 792 463 792 C 445 792 428 796 414 805 C 400 813 387 822 376 832 C 365 840 354 849 343 857 C 332 865 321 870 311 870 C 300 870 291 863 283 851 C 275 839 270 821 270 797 L 212 797 C 212 841 220 873 238 895 C 255 917 274 928 295 928 C 311 928 326 923 339 915 C 352 906 365 896 377 886 C 387 877 398 869 408 862 C 418 854 428 851 439 851 C 449 851 458 857 466 870 C 473 882 477 900 477 923 Z" unicode="Õ" />
<glyph horiz-adv-x="755" d="M 45 0 L 45 0 Z M 380 -10 C 330 -10 285 0 244 17 C 203 35 168 61 139 94 C 109 127 86 167 70 214 C 53 261 45 313 45 370 C 45 424 53 474 70 520 C 86 566 109 605 138 637 C 167 669 202 695 242 713 C 282 731 326 740 374 740 C 424 740 469 731 511 713 C 553 695 588 669 618 637 C 647 605 670 565 686 519 C 702 473 710 422 710 366 C 710 310 701 258 684 212 C 666 166 643 126 614 93 C 584 60 549 35 509 17 C 469 -1 426 -10 380 -10 Z M 384 56 C 418 56 451 63 481 77 C 511 91 537 111 559 137 C 581 163 598 196 611 235 C 623 274 630 318 630 368 C 630 413 623 454 610 492 C 597 530 579 562 556 588 C 533 614 506 635 474 649 C 442 663 408 671 371 671 C 299 671 240 644 194 591 C 148 537 126 463 126 368 C 126 318 132 274 146 236 C 160 197 178 164 201 138 C 224 111 251 91 283 77 C 315 63 348 56 384 56 Z M 374 785 L 374 785 Z M 489 785 L 427 785 L 427 942 L 489 942 L 489 785 Z M 321 785 L 259 785 L 259 942 L 321 942 L 321 785 Z" unicode="Ö" />
<glyph horiz-adv-x="492" d="M 108 151 L 67 192 L 205 330 L 68 467 L 109 509 L 246 371 L 384 509 L 425 467 L 287 330 L 425 192 L 384 150 L 246 290 L 108 151 Z" unicode="×" />
<glyph horiz-adv-x="755" d="M 710 366 C 710 310 701 258 684 212 C 666 166 643 126 614 93 C 584 60 549 35 509 17 C 469 -1 426 -10 380 -10 C 336 -10 295 -2 257 12 C 219 27 185 48 157 75 L 91 1 L 47 38 L 119 119 C 95 151 77 188 64 231 C 51 273 45 320 45 370 C 45 424 53 474 70 520 C 86 566 109 605 138 637 C 167 669 202 695 242 713 C 282 731 326 740 374 740 C 418 740 460 732 498 718 C 536 704 569 684 598 658 L 673 742 L 716 706 L 636 615 C 659 583 677 546 690 504 C 703 462 710 416 710 366 Z M 126 368 C 126 330 130 295 138 263 C 146 231 157 203 172 179 L 546 599 C 523 621 497 639 467 652 C 437 664 405 671 371 671 C 299 671 240 644 194 591 C 148 537 126 463 126 368 Z M 630 368 C 630 404 625 438 617 470 C 608 501 596 529 582 554 L 207 132 C 229 107 256 88 287 75 C 317 62 350 56 384 56 C 418 56 451 63 481 77 C 511 91 537 111 559 137 C 581 163 598 196 611 235 C 623 274 630 318 630 368 Z" unicode="Ø" />
<glyph horiz-adv-x="682" d="M 84 0 L 84 0 Z M 598 730 L 598 249 C 598 207 591 169 577 137 C 563 104 545 77 522 55 C 498 33 471 17 439 6 C 407 -4 374 -10 339 -10 C 304 -10 271 -4 240 6 C 209 16 182 32 159 53 C 136 74 118 101 104 134 C 90 166 84 205 84 249 L 84 730 L 162 730 L 162 247 C 162 217 166 190 176 167 C 185 144 198 125 214 109 C 230 93 248 81 270 73 C 292 65 315 61 339 61 C 363 61 386 64 408 72 C 430 80 449 91 465 107 C 481 122 494 141 504 165 C 514 188 519 215 519 247 L 519 730 L 598 730 Z M 340 784 L 340 784 Z M 432 784 L 358 784 L 247 951 L 333 951 L 432 784 Z" unicode="Ù" />
<glyph horiz-adv-x="682" d="M 84 0 L 84 0 Z M 598 730 L 598 249 C 598 207 591 169 577 137 C 563 104 545 77 522 55 C 498 33 471 17 439 6 C 407 -4 374 -10 339 -10 C 304 -10 271 -4 240 6 C 209 16 182 32 159 53 C 136 74 118 101 104 134 C 90 166 84 205 84 249 L 84 730 L 162 730 L 162 247 C 162 217 166 190 176 167 C 185 144 198 125 214 109 C 230 93 248 81 270 73 C 292 65 315 61 339 61 C 363 61 386 64 408 72 C 430 80 449 91 465 107 C 481 122 494 141 504 165 C 514 188 519 215 519 247 L 519 730 L 598 730 Z M 340 788 L 340 788 Z M 248 788 L 346 955 L 432 955 L 321 788 L 248 788 Z" unicode="Ú" />
<glyph horiz-adv-x="682" d="M 84 0 L 84 0 Z M 598 730 L 598 249 C 598 207 591 169 577 137 C 563 104 545 77 522 55 C 498 33 471 17 439 6 C 407 -4 374 -10 339 -10 C 304 -10 271 -4 240 6 C 209 16 182 32 159 53 C 136 74 118 101 104 134 C 90 166 84 205 84 249 L 84 730 L 162 730 L 162 247 C 162 217 166 190 176 167 C 185 144 198 125 214 109 C 230 93 248 81 270 73 C 292 65 315 61 339 61 C 363 61 386 64 408 72 C 430 80 449 91 465 107 C 481 122 494 141 504 165 C 514 188 519 215 519 247 L 519 730 L 598 730 Z M 340 785 L 340 785 Z M 490 785 L 422 785 L 340 906 L 256 785 L 190 785 L 305 955 L 376 955 L 490 785 Z" unicode="Û" />
<glyph horiz-adv-x="682" d="M 84 0 L 84 0 Z M 598 730 L 598 249 C 598 207 591 169 577 137 C 563 104 545 77 522 55 C 498 33 471 17 439 6 C 407 -4 374 -10 339 -10 C 304 -10 271 -4 240 6 C 209 16 182 32 159 53 C 136 74 118 101 104 134 C 90 166 84 205 84 249 L 84 730 L 162 730 L 162 247 C 162 217 166 190 176 167 C 185 144 198 125 214 109 C 230 93 248 81 270 73 C 292 65 315 61 339 61 C 363 61 386 64 408 72 C 430 80 449 91 465 107 C 481 122 494 141 504 165 C 514 188 519 215 519 247 L 519 730 L 598 730 Z M 340 785 L 340 785 Z M 455 785 L 393 785 L 393 942 L 455 942 L 455 785 Z M 287 785 L 225 785 L 225 942 L 287 942 L 287 785 Z" unicode="Ü" />
<glyph horiz-adv-x="585" d="M 2 0 L 2 0 Z M 584 730 L 330 317 L 330 0 L 250 0 L 250 320 L 2 730 L 93 730 L 295 394 L 502 730 L 584 730 Z M 295 788 L 295 788 Z M 203 788 L 301 955 L 387 955 L 276 788 L 203 788 Z" unicode="Ý" />
<glyph horiz-adv-x="542" d="M 88 0 L 88 730 L 168 730 L 168 597 L 301 597 C 367 597 419 577 458 539 C 497 501 517 450 517 386 C 517 320 497 268 457 228 C 417 188 367 168 305 168 L 168 168 L 168 0 L 88 0 Z M 166 229 L 294 229 C 338 229 373 243 399 271 C 425 299 438 338 438 388 C 438 436 423 472 394 496 C 364 520 329 533 288 533 L 166 533 L 166 229 Z" unicode="Þ" />
<glyph horiz-adv-x="600" d="M 406 -9 C 364 -9 327 -2 296 10 C 264 22 238 40 218 62 L 253 112 C 272 93 295 78 321 68 C 347 57 373 52 401 52 C 428 52 451 60 470 76 C 489 92 499 113 499 139 C 499 161 490 181 472 199 C 454 216 423 234 377 252 C 324 270 286 290 264 311 C 242 331 231 362 231 402 C 231 438 243 466 267 488 C 291 509 318 522 348 526 C 354 530 360 538 368 552 C 375 566 379 587 380 617 C 380 659 368 691 345 712 C 321 732 295 743 265 743 C 234 743 208 733 188 715 C 167 696 157 668 157 630 L 157 0 L 82 0 L 82 637 C 82 691 99 732 133 761 C 167 789 209 804 260 804 C 285 804 309 800 332 792 C 355 784 375 773 392 758 C 409 743 423 725 433 703 C 443 681 449 657 449 629 C 449 588 443 556 432 533 C 420 509 409 494 399 488 C 374 485 351 477 329 463 C 307 449 296 431 294 409 C 294 386 303 368 323 354 C 343 340 376 323 422 305 C 475 284 513 261 537 236 C 561 211 573 179 573 140 C 573 116 568 95 559 77 C 549 58 537 42 522 30 C 507 17 489 7 469 1 C 449 -5 428 -9 406 -9 Z" unicode="ß" />
<glyph horiz-adv-x="510" d="M 38 0 L 38 0 Z M 445 0 L 376 0 L 376 70 C 357 46 333 28 304 14 C 275 0 241 -7 201 -7 C 152 -7 113 6 83 34 C 53 62 38 101 38 151 C 38 209 58 252 98 282 C 138 311 189 328 252 332 L 373 341 L 373 366 C 373 404 362 433 341 451 C 319 469 290 479 254 479 C 223 479 195 473 169 462 C 143 451 120 439 101 425 L 72 482 C 94 498 122 513 154 525 C 186 537 223 544 265 544 C 319 544 363 530 396 502 C 428 474 445 431 445 373 L 445 0 Z M 374 124 L 374 285 L 252 277 C 212 274 179 263 153 244 C 127 224 114 195 114 155 C 114 121 124 95 146 77 C 168 59 195 50 228 50 C 258 50 286 57 312 71 C 338 85 359 102 374 124 Z M 252 587 L 252 587 Z M 344 587 L 270 587 L 159 754 L 245 754 L 344 587 Z" unicode="à" />
<glyph horiz-adv-x="510" d="M 38 0 L 38 0 Z M 445 0 L 376 0 L 376 70 C 357 46 333 28 304 14 C 275 0 241 -7 201 -7 C 152 -7 113 6 83 34 C 53 62 38 101 38 151 C 38 209 58 252 98 282 C 138 311 189 328 252 332 L 373 341 L 373 366 C 373 404 362 433 341 451 C 319 469 290 479 254 479 C 223 479 195 473 169 462 C 143 451 120 439 101 425 L 72 482 C 94 498 122 513 154 525 C 186 537 223 544 265 544 C 319 544 363 530 396 502 C 428 474 445 431 445 373 L 445 0 Z M 374 124 L 374 285 L 252 277 C 212 274 179 263 153 244 C 127 224 114 195 114 155 C 114 121 124 95 146 77 C 168 59 195 50 228 50 C 258 50 286 57 312 71 C 338 85 359 102 374 124 Z M 252 591 L 252 591 Z M 160 591 L 258 758 L 344 758 L 233 591 L 160 591 Z" unicode="á" />
<glyph horiz-adv-x="510" d="M 38 0 L 38 0 Z M 445 0 L 376 0 L 376 70 C 357 46 333 28 304 14 C 275 0 241 -7 201 -7 C 152 -7 113 6 83 34 C 53 62 38 101 38 151 C 38 209 58 252 98 282 C 138 311 189 328 252 332 L 373 341 L 373 366 C 373 404 362 433 341 451 C 319 469 290 479 254 479 C 223 479 195 473 169 462 C 143 451 120 439 101 425 L 72 482 C 94 498 122 513 154 525 C 186 537 223 544 265 544 C 319 544 363 530 396 502 C 428 474 445 431 445 373 L 445 0 Z M 374 124 L 374 285 L 252 277 C 212 274 179 263 153 244 C 127 224 114 195 114 155 C 114 121 124 95 146 77 C 168 59 195 50 228 50 C 258 50 286 57 312 71 C 338 85 359 102 374 124 Z M 252 588 L 252 588 Z M 402 588 L 334 588 L 252 709 L 168 588 L 102 588 L 217 758 L 288 758 L 402 588 Z" unicode="â" />
<glyph horiz-adv-x="510" d="M 38 0 L 38 0 Z M 445 0 L 376 0 L 376 70 C 357 46 333 28 304 14 C 275 0 241 -7 201 -7 C 152 -7 113 6 83 34 C 53 62 38 101 38 151 C 38 209 58 252 98 282 C 138 311 189 328 252 332 L 373 341 L 373 366 C 373 404 362 433 341 451 C 319 469 290 479 254 479 C 223 479 195 473 169 462 C 143 451 120 439 101 425 L 72 482 C 94 498 122 513 154 525 C 186 537 223 544 265 544 C 319 544 363 530 396 502 C 428 474 445 431 445 373 L 445 0 Z M 374 124 L 374 285 L 252 277 C 212 274 179 263 153 244 C 127 224 114 195 114 155 C 114 121 124 95 146 77 C 168 59 195 50 228 50 C 258 50 286 57 312 71 C 338 85 359 102 374 124 Z M 252 595 L 252 595 Z M 355 726 L 414 726 C 414 682 407 649 394 627 C 381 605 363 595 341 595 C 323 595 306 599 292 608 C 278 616 265 625 254 635 C 243 643 232 652 221 660 C 210 668 199 673 189 673 C 178 673 169 666 161 654 C 153 642 148 624 148 600 L 90 600 C 90 644 98 676 116 698 C 133 720 152 731 173 731 C 189 731 204 726 217 718 C 230 709 243 699 255 689 C 265 680 276 672 286 665 C 296 657 306 654 317 654 C 327 654 336 660 344 673 C 351 685 355 703 355 726 Z" unicode="ã" />
<glyph horiz-adv-x="510" d="M 38 0 L 38 0 Z M 445 0 L 376 0 L 376 70 C 357 46 333 28 304 14 C 275 0 241 -7 201 -7 C 152 -7 113 6 83 34 C 53 62 38 101 38 151 C 38 209 58 252 98 282 C 138 311 189 328 252 332 L 373 341 L 373 366 C 373 404 362 433 341 451 C 319 469 290 479 254 479 C 223 479 195 473 169 462 C 143 451 120 439 101 425 L 72 482 C 94 498 122 513 154 525 C 186 537 223 544 265 544 C 319 544 363 530 396 502 C 428 474 445 431 445 373 L 445 0 Z M 374 124 L 374 285 L 252 277 C 212 274 179 263 153 244 C 127 224 114 195 114 155 C 114 121 124 95 146 77 C 168 59 195 50 228 50 C 258 50 286 57 312 71 C 338 85 359 102 374 124 Z M 252 588 L 252 588 Z M 367 588 L 305 588 L 305 745 L 367 745 L 367 588 Z M 199 588 L 137 588 L 137 745 L 199 745 L 199 588 Z" unicode="ä" />
<glyph horiz-adv-x="510" d="M 38 0 L 38 0 Z M 445 0 L 376 0 L 376 70 C 357 46 333 28 304 14 C 275 0 241 -7 201 -7 C 152 -7 113 6 83 34 C 53 62 38 101 38 151 C 38 209 58 252 98 282 C 138 311 189 328 252 332 L 373 341 L 373 366 C 373 404 362 433 341 451 C 319 469 290 479 254 479 C 223 479 195 473 169 462 C 143 451 120 439 101 425 L 72 482 C 94 498 122 513 154 525 C 186 537 223 544 265 544 C 319 544 363 530 396 502 C 428 474 445 431 445 373 L 445 0 Z M 374 124 L 374 285 L 252 277 C 212 274 179 263 153 244 C 127 224 114 195 114 155 C 114 121 124 95 146 77 C 168 59 195 50 228 50 C 258 50 286 57 312 71 C 338 85 359 102 374 124 Z M 252 582 L 252 582 Z M 252 582 C 219 582 191 593 168 617 C 144 640 133 668 133 701 C 133 733 144 761 168 784 C 191 807 219 819 252 819 C 285 819 313 807 336 784 C 359 761 371 733 371 701 C 371 668 359 640 336 617 C 313 593 285 582 252 582 Z M 252 629 C 272 629 288 636 302 650 C 315 664 322 681 322 701 C 322 721 315 738 302 752 C 288 766 272 773 252 773 C 232 773 216 766 202 752 C 188 738 181 721 181 701 C 181 681 188 664 202 650 C 216 636 232 629 252 629 Z" unicode="å" />
<glyph horiz-adv-x="877" d="M 614 -9 C 586 -9 560 -4 537 3 C 513 11 493 22 475 35 C 457 48 443 63 432 79 C 420 95 412 110 408 126 C 395 88 371 56 335 31 C 299 5 255 -7 205 -7 C 159 -7 120 6 90 34 C 59 62 44 100 44 150 C 44 210 64 254 104 282 C 144 310 195 327 258 331 L 380 340 L 380 356 C 380 397 369 428 347 448 C 325 468 296 479 259 479 C 228 479 200 473 174 462 C 148 450 125 438 107 425 L 79 482 C 101 498 128 513 158 525 C 188 537 222 544 260 544 C 305 544 342 533 370 512 C 398 491 416 460 423 420 C 427 433 435 447 445 461 C 455 475 468 488 484 500 C 500 512 518 521 540 529 C 561 537 585 541 611 541 C 680 541 736 514 778 462 C 820 409 841 337 842 247 L 447 247 C 447 191 464 145 496 110 C 528 74 568 57 617 57 C 663 57 697 65 720 83 C 743 100 762 117 777 134 L 820 85 C 798 59 772 37 740 19 C 708 0 666 -9 614 -9 Z M 447 300 L 766 300 C 765 350 750 392 722 427 C 694 461 656 479 609 479 C 563 479 526 461 496 427 C 466 393 450 350 447 300 Z M 230 50 C 266 50 297 62 325 86 C 352 110 371 140 381 174 L 381 284 L 258 276 C 220 273 187 263 160 246 C 133 228 120 199 120 157 C 120 121 130 95 152 77 C 173 59 199 50 230 50 Z" unicode="æ" />
<glyph horiz-adv-x="504" d="M 37 0 L 37 0 Z M 427 146 L 479 104 C 470 91 460 78 448 64 C 436 50 423 38 407 28 C 391 17 373 8 352 1 C 331 -5 307 -9 280 -9 C 243 -9 210 -2 180 11 C 150 25 124 44 103 68 C 82 92 66 120 54 154 C 42 188 37 225 37 265 C 37 303 42 338 54 372 C 66 406 82 435 104 460 C 125 485 151 505 181 520 C 211 534 245 542 281 542 C 308 542 332 538 354 531 C 376 523 395 514 411 502 C 427 490 440 477 451 463 C 462 449 471 434 477 420 L 416 387 C 405 409 389 429 367 447 C 345 465 316 475 279 475 C 254 475 231 469 211 458 C 190 447 173 432 159 414 C 145 396 134 374 126 348 C 118 322 114 295 114 267 C 114 204 129 153 160 115 C 191 76 232 57 284 57 C 324 57 355 67 377 87 C 399 107 415 126 427 146 Z M 268 -7 L 268 -7 Z M 275 -191 C 253 -191 230 -188 208 -182 C 186 -176 168 -168 155 -159 L 170 -126 C 179 -132 191 -137 206 -143 C 221 -149 238 -152 257 -152 C 273 -152 286 -148 298 -141 C 309 -133 315 -124 315 -112 C 315 -98 309 -88 299 -82 C 289 -76 278 -74 266 -74 C 257 -74 250 -74 244 -75 C 238 -76 231 -78 224 -81 L 213 -68 L 269 4 L 312 4 L 265 -58 C 297 -51 325 -53 347 -65 C 369 -76 381 -94 381 -118 C 381 -142 370 -160 349 -172 C 328 -184 303 -191 275 -191 Z" unicode="ç" />
<glyph horiz-adv-x="542" d="M 37 0 L 37 0 Z M 280 -9 C 244 -9 212 -2 182 10 C 152 22 126 40 105 64 C 83 88 67 117 55 151 C 43 185 37 223 37 266 C 37 305 43 341 55 375 C 67 409 84 438 105 463 C 126 487 151 507 181 521 C 210 535 241 542 275 542 C 345 542 401 515 443 462 C 485 409 506 337 506 246 L 112 246 C 112 192 128 147 158 111 C 188 75 230 58 282 58 C 322 58 354 65 379 81 C 404 96 425 114 442 134 L 484 85 C 463 60 437 38 405 19 C 373 0 331 -9 280 -9 Z M 111 300 L 431 300 C 430 352 415 395 386 429 C 356 462 319 479 274 479 C 228 479 190 461 160 427 C 130 392 114 350 111 300 Z M 274 587 L 274 587 Z M 366 587 L 292 587 L 181 754 L 267 754 L 366 587 Z" unicode="è" />
<glyph horiz-adv-x="542" d="M 37 0 L 37 0 Z M 280 -9 C 244 -9 212 -2 182 10 C 152 22 126 40 105 64 C 83 88 67 117 55 151 C 43 185 37 223 37 266 C 37 305 43 341 55 375 C 67 409 84 438 105 463 C 126 487 151 507 181 521 C 210 535 241 542 275 542 C 345 542 401 515 443 462 C 485 409 506 337 506 246 L 112 246 C 112 192 128 147 158 111 C 188 75 230 58 282 58 C 322 58 354 65 379 81 C 404 96 425 114 442 134 L 484 85 C 463 60 437 38 405 19 C 373 0 331 -9 280 -9 Z M 111 300 L 431 300 C 430 352 415 395 386 429 C 356 462 319 479 274 479 C 228 479 190 461 160 427 C 130 392 114 350 111 300 Z M 274 591 L 274 591 Z M 182 591 L 280 758 L 366 758 L 255 591 L 182 591 Z" unicode="é" />
<glyph horiz-adv-x="542" d="M 37 0 L 37 0 Z M 280 -9 C 244 -9 212 -2 182 10 C 152 22 126 40 105 64 C 83 88 67 117 55 151 C 43 185 37 223 37 266 C 37 305 43 341 55 375 C 67 409 84 438 105 463 C 126 487 151 507 181 521 C 210 535 241 542 275 542 C 345 542 401 515 443 462 C 485 409 506 337 506 246 L 112 246 C 112 192 128 147 158 111 C 188 75 230 58 282 58 C 322 58 354 65 379 81 C 404 96 425 114 442 134 L 484 85 C 463 60 437 38 405 19 C 373 0 331 -9 280 -9 Z M 111 300 L 431 300 C 430 352 415 395 386 429 C 356 462 319 479 274 479 C 228 479 190 461 160 427 C 130 392 114 350 111 300 Z M 274 588 L 274 588 Z M 424 588 L 356 588 L 274 709 L 190 588 L 124 588 L 239 758 L 310 758 L 424 588 Z" unicode="ê" />
<glyph horiz-adv-x="542" d="M 37 0 L 37 0 Z M 280 -9 C 244 -9 212 -2 182 10 C 152 22 126 40 105 64 C 83 88 67 117 55 151 C 43 185 37 223 37 266 C 37 305 43 341 55 375 C 67 409 84 438 105 463 C 126 487 151 507 181 521 C 210 535 241 542 275 542 C 345 542 401 515 443 462 C 485 409 506 337 506 246 L 112 246 C 112 192 128 147 158 111 C 188 75 230 58 282 58 C 322 58 354 65 379 81 C 404 96 425 114 442 134 L 484 85 C 463 60 437 38 405 19 C 373 0 331 -9 280 -9 Z M 111 300 L 431 300 C 430 352 415 395 386 429 C 356 462 319 479 274 479 C 228 479 190 461 160 427 C 130 392 114 350 111 300 Z M 274 588 L 274 588 Z M 389 588 L 327 588 L 327 745 L 389 745 L 389 588 Z M 221 588 L 159 588 L 159 745 L 221 745 L 221 588 Z" unicode="ë" />
<glyph horiz-adv-x="230" d="M 22 0 L 22 0 Z M 153 0 L 78 0 L 78 533 L 153 533 L 153 0 Z M 115 587 L 115 587 Z M 207 587 L 133 587 L 22 754 L 108 754 L 207 587 Z" unicode="ì" />
<glyph horiz-adv-x="230" d="M 23 0 L 23 0 Z M 153 0 L 78 0 L 78 533 L 153 533 L 153 0 Z M 115 591 L 115 591 Z M 23 591 L 121 758 L 207 758 L 96 591 L 23 591 Z" unicode="í" />
<glyph horiz-adv-x="230" d="M 0 0 L 0 0 Z M 153 0 L 78 0 L 78 533 L 153 533 L 153 0 Z M 115 588 L 115 588 Z M 265 588 L 197 588 L 115 709 L 31 588 L -35 588 L 80 758 L 151 758 L 265 588 Z" unicode="î" />
<glyph horiz-adv-x="230" d="M 0 0 L 0 0 Z M 153 0 L 78 0 L 78 533 L 153 533 L 153 0 Z M 115 588 L 115 588 Z M 230 588 L 168 588 L 168 745 L 230 745 L 230 588 Z M 62 588 L 0 588 L 0 745 L 62 745 L 62 588 Z" unicode="ï" />
<glyph horiz-adv-x="560" d="M 517 296 C 517 252 511 211 501 174 C 490 136 474 104 454 77 C 433 50 408 29 378 14 C 348 -1 314 -9 276 -9 C 242 -9 211 -2 182 9 C 152 21 127 39 106 62 C 85 85 68 113 56 146 C 44 178 38 215 38 256 C 38 294 44 330 56 364 C 68 397 84 426 105 450 C 125 474 149 492 177 506 C 204 520 233 527 264 527 C 304 527 339 516 371 495 C 402 474 425 447 439 414 C 433 468 423 515 408 557 C 392 598 375 633 356 662 L 230 604 L 216 645 L 330 697 C 310 719 289 737 269 751 C 249 764 230 773 214 778 L 278 802 C 291 798 307 790 326 777 C 345 763 365 745 385 722 L 458 755 L 471 714 L 412 687 C 440 645 464 592 485 527 C 506 462 517 385 517 296 Z M 278 54 C 328 54 368 73 398 111 C 428 149 443 201 443 265 C 443 326 428 375 399 412 C 369 449 329 468 277 468 C 229 468 189 448 159 409 C 129 370 114 321 114 261 C 114 197 129 146 161 109 C 192 72 231 54 278 54 Z" unicode="ð" />
<glyph horiz-adv-x="553" d="M 76 0 L 76 0 Z M 482 0 L 408 0 L 408 379 C 408 410 396 434 373 452 C 350 469 323 478 293 478 C 277 478 260 475 243 470 C 226 465 211 457 197 447 C 183 437 172 423 163 407 C 154 390 150 370 150 347 L 150 0 L 76 0 L 76 533 L 140 533 L 140 427 C 151 461 172 488 204 510 C 236 531 274 542 318 542 C 340 542 361 538 381 532 C 401 526 418 517 433 505 C 447 493 459 479 468 462 C 477 444 482 425 482 403 L 482 0 Z M 287 595 L 287 595 Z M 390 726 L 449 726 C 449 682 442 649 429 627 C 416 605 398 595 376 595 C 358 595 341 599 327 608 C 313 616 300 625 289 635 C 278 643 267 652 256 660 C 245 668 234 673 224 673 C 213 673 204 666 196 654 C 188 642 183 624 183 600 L 125 600 C 125 644 133 676 151 698 C 168 720 187 731 208 731 C 224 731 239 726 252 718 C 265 709 278 699 290 689 C 300 680 311 672 321 665 C 331 657 341 654 352 654 C 362 654 371 660 379 673 C 386 685 390 703 390 726 Z" unicode="ñ" />
<glyph horiz-adv-x="558" d="M 37 0 L 37 0 Z M 277 -9 C 244 -9 213 -2 184 9 C 155 21 130 39 108 63 C 86 86 69 115 56 149 C 43 183 37 221 37 264 C 37 304 43 341 55 375 C 67 409 84 438 106 463 C 128 487 153 507 183 521 C 212 535 243 542 277 542 C 311 542 344 535 374 523 C 404 510 429 492 451 470 C 473 447 490 419 502 387 C 514 354 521 318 521 278 C 521 236 514 197 502 162 C 490 126 473 96 451 71 C 429 46 404 26 374 12 C 344 -1 311 -9 277 -9 Z M 280 57 C 329 57 369 76 399 116 C 429 155 444 207 444 271 C 444 332 428 381 398 419 C 367 457 326 476 275 476 C 227 476 189 456 159 417 C 129 378 115 328 115 266 C 115 198 130 147 162 111 C 194 75 233 57 280 57 Z M 278 587 L 278 587 Z M 370 587 L 296 587 L 185 754 L 271 754 L 370 587 Z" unicode="ò" />
<glyph horiz-adv-x="558" d="M 37 0 L 37 0 Z M 277 -9 C 244 -9 213 -2 184 9 C 155 21 130 39 108 63 C 86 86 69 115 56 149 C 43 183 37 221 37 264 C 37 304 43 341 55 375 C 67 409 84 438 106 463 C 128 487 153 507 183 521 C 212 535 243 542 277 542 C 311 542 344 535 374 523 C 404 510 429 492 451 470 C 473 447 490 419 502 387 C 514 354 521 318 521 278 C 521 236 514 197 502 162 C 490 126 473 96 451 71 C 429 46 404 26 374 12 C 344 -1 311 -9 277 -9 Z M 280 57 C 329 57 369 76 399 116 C 429 155 444 207 444 271 C 444 332 428 381 398 419 C 367 457 326 476 275 476 C 227 476 189 456 159 417 C 129 378 115 328 115 266 C 115 198 130 147 162 111 C 194 75 233 57 280 57 Z M 278 591 L 278 591 Z M 186 591 L 284 758 L 370 758 L 259 591 L 186 591 Z" unicode="ó" />
<glyph horiz-adv-x="558" d="M 37 0 L 37 0 Z M 277 -9 C 244 -9 213 -2 184 9 C 155 21 130 39 108 63 C 86 86 69 115 56 149 C 43 183 37 221 37 264 C 37 304 43 341 55 375 C 67 409 84 438 106 463 C 128 487 153 507 183 521 C 212 535 243 542 277 542 C 311 542 344 535 374 523 C 404 510 429 492 451 470 C 473 447 490 419 502 387 C 514 354 521 318 521 278 C 521 236 514 197 502 162 C 490 126 473 96 451 71 C 429 46 404 26 374 12 C 344 -1 311 -9 277 -9 Z M 280 57 C 329 57 369 76 399 116 C 429 155 444 207 444 271 C 444 332 428 381 398 419 C 367 457 326 476 275 476 C 227 476 189 456 159 417 C 129 378 115 328 115 266 C 115 198 130 147 162 111 C 194 75 233 57 280 57 Z M 278 588 L 278 588 Z M 428 588 L 360 588 L 278 709 L 194 588 L 128 588 L 243 758 L 314 758 L 428 588 Z" unicode="ô" />
<glyph horiz-adv-x="558" d="M 37 0 L 37 0 Z M 277 -9 C 244 -9 213 -2 184 9 C 155 21 130 39 108 63 C 86 86 69 115 56 149 C 43 183 37 221 37 264 C 37 304 43 341 55 375 C 67 409 84 438 106 463 C 128 487 153 507 183 521 C 212 535 243 542 277 542 C 311 542 344 535 374 523 C 404 510 429 492 451 470 C 473 447 490 419 502 387 C 514 354 521 318 521 278 C 521 236 514 197 502 162 C 490 126 473 96 451 71 C 429 46 404 26 374 12 C 344 -1 311 -9 277 -9 Z M 280 57 C 329 57 369 76 399 116 C 429 155 444 207 444 271 C 444 332 428 381 398 419 C 367 457 326 476 275 476 C 227 476 189 456 159 417 C 129 378 115 328 115 266 C 115 198 130 147 162 111 C 194 75 233 57 280 57 Z M 278 595 L 278 595 Z M 381 726 L 440 726 C 440 682 433 649 420 627 C 407 605 389 595 367 595 C 349 595 332 599 318 608 C 304 616 291 625 280 635 C 269 643 258 652 247 660 C 236 668 225 673 215 673 C 204 673 195 666 187 654 C 179 642 174 624 174 600 L 116 600 C 116 644 124 676 142 698 C 159 720 178 731 199 731 C 215 731 230 726 243 718 C 256 709 269 699 281 689 C 291 680 302 672 312 665 C 322 657 332 654 343 654 C 353 654 362 660 370 673 C 377 685 381 703 381 726 Z" unicode="õ" />
<glyph horiz-adv-x="558" d="M 37 0 L 37 0 Z M 277 -9 C 244 -9 213 -2 184 9 C 155 21 130 39 108 63 C 86 86 69 115 56 149 C 43 183 37 221 37 264 C 37 304 43 341 55 375 C 67 409 84 438 106 463 C 128 487 153 507 183 521 C 212 535 243 542 277 542 C 311 542 344 535 374 523 C 404 510 429 492 451 470 C 473 447 490 419 502 387 C 514 354 521 318 521 278 C 521 236 514 197 502 162 C 490 126 473 96 451 71 C 429 46 404 26 374 12 C 344 -1 311 -9 277 -9 Z M 280 57 C 329 57 369 76 399 116 C 429 155 444 207 444 271 C 444 332 428 381 398 419 C 367 457 326 476 275 476 C 227 476 189 456 159 417 C 129 378 115 328 115 266 C 115 198 130 147 162 111 C 194 75 233 57 280 57 Z M 278 588 L 278 588 Z M 393 588 L 331 588 L 331 745 L 393 745 L 393 588 Z M 225 588 L 163 588 L 163 745 L 225 745 L 225 588 Z" unicode="ö" />
<glyph horiz-adv-x="492" d="M 211 447 L 211 558 L 282 558 L 282 447 L 211 447 Z M 27 299 L 27 363 L 465 363 L 465 299 L 27 299 Z M 211 103 L 211 213 L 282 213 L 282 103 L 211 103 Z" unicode="÷" />
<glyph horiz-adv-x="558" d="M 521 278 C 521 236 514 197 502 162 C 490 126 473 96 451 71 C 429 46 404 26 374 12 C 344 -1 311 -9 277 -9 C 247 -9 218 -3 191 6 C 164 16 140 32 120 52 L 69 -7 L 29 27 L 85 92 C 70 114 58 139 50 168 C 41 197 37 229 37 264 C 37 304 43 341 55 375 C 67 409 84 438 106 463 C 128 487 153 507 183 521 C 212 535 243 542 277 542 C 306 542 333 537 359 528 C 385 519 408 506 429 490 L 479 548 L 518 514 L 466 453 C 483 431 496 405 506 375 C 516 345 521 313 521 278 Z M 115 266 C 115 243 117 222 121 203 C 125 184 130 167 137 152 L 382 436 C 368 448 352 458 334 465 C 316 472 296 476 275 476 C 227 476 189 456 159 417 C 129 378 115 328 115 266 Z M 444 271 C 444 295 441 317 436 338 C 431 359 424 378 415 395 L 166 106 C 180 90 197 77 217 69 C 236 61 257 57 280 57 C 329 57 369 76 399 116 C 429 155 444 207 444 271 Z" unicode="ø" />
<glyph horiz-adv-x="553" d="M 70 0 L 70 0 Z M 70 533 L 145 533 L 145 180 C 145 134 157 101 181 82 C 205 62 235 53 271 53 C 305 53 336 64 362 88 C 388 111 402 144 402 188 L 402 533 L 477 533 L 477 0 L 410 0 L 410 104 C 402 74 383 48 353 25 C 323 2 286 -9 241 -9 C 218 -9 196 -5 175 0 C 154 6 136 16 121 29 C 105 42 93 59 84 79 C 74 99 70 124 70 152 L 70 533 Z M 274 587 L 274 587 Z M 366 587 L 292 587 L 181 754 L 267 754 L 366 587 Z" unicode="ù" />
<glyph horiz-adv-x="553" d="M 70 0 L 70 0 Z M 70 533 L 145 533 L 145 180 C 145 134 157 101 181 82 C 205 62 235 53 271 53 C 305 53 336 64 362 88 C 388 111 402 144 402 188 L 402 533 L 477 533 L 477 0 L 410 0 L 410 104 C 402 74 383 48 353 25 C 323 2 286 -9 241 -9 C 218 -9 196 -5 175 0 C 154 6 136 16 121 29 C 105 42 93 59 84 79 C 74 99 70 124 70 152 L 70 533 Z M 274 591 L 274 591 Z M 182 591 L 280 758 L 366 758 L 255 591 L 182 591 Z" unicode="ú" />
<glyph horiz-adv-x="553" d="M 70 0 L 70 0 Z M 70 533 L 145 533 L 145 180 C 145 134 157 101 181 82 C 205 62 235 53 271 53 C 305 53 336 64 362 88 C 388 111 402 144 402 188 L 402 533 L 477 533 L 477 0 L 410 0 L 410 104 C 402 74 383 48 353 25 C 323 2 286 -9 241 -9 C 218 -9 196 -5 175 0 C 154 6 136 16 121 29 C 105 42 93 59 84 79 C 74 99 70 124 70 152 L 70 533 Z M 274 588 L 274 588 Z M 424 588 L 356 588 L 274 709 L 190 588 L 124 588 L 239 758 L 310 758 L 424 588 Z" unicode="û" />
<glyph horiz-adv-x="553" d="M 70 0 L 70 0 Z M 70 533 L 145 533 L 145 180 C 145 134 157 101 181 82 C 205 62 235 53 271 53 C 305 53 336 64 362 88 C 388 111 402 144 402 188 L 402 533 L 477 533 L 477 0 L 410 0 L 410 104 C 402 74 383 48 353 25 C 323 2 286 -9 241 -9 C 218 -9 196 -5 175 0 C 154 6 136 16 121 29 C 105 42 93 59 84 79 C 74 99 70 124 70 152 L 70 533 Z M 274 588 L 274 588 Z M 389 588 L 327 588 L 327 745 L 389 745 L 389 588 Z M 221 588 L 159 588 L 159 745 L 221 745 L 221 588 Z" unicode="ü" />
<glyph horiz-adv-x="463" d="M 0 0 L 0 0 Z M 466 533 L 220 -88 C 202 -130 180 -159 154 -175 C 127 -191 101 -200 75 -200 C 57 -200 43 -198 31 -194 C 19 -190 11 -187 7 -185 L 33 -122 C 35 -124 41 -126 50 -129 C 58 -131 67 -133 76 -133 C 91 -133 106 -127 120 -115 C 134 -103 148 -83 160 -57 L 194 32 L -3 533 L 76 533 L 232 122 L 391 533 L 466 533 Z M 233 591 L 233 591 Z M 141 591 L 239 758 L 325 758 L 214 591 L 141 591 Z" unicode="ý" />
<glyph horiz-adv-x="570" d="M 76 -196 L 76 800 L 148 800 L 148 405 C 156 441 176 472 206 500 C 236 527 276 541 326 541 C 390 541 440 516 477 468 C 513 419 532 355 532 277 C 532 191 512 122 472 71 C 432 19 382 -6 321 -6 C 275 -6 238 6 208 30 C 178 54 158 83 149 117 L 149 -196 L 76 -196 Z M 301 56 C 345 56 382 75 411 114 C 440 152 455 204 455 268 C 455 328 442 377 416 417 C 390 457 353 477 303 477 C 259 477 221 460 191 426 C 160 392 145 337 145 261 C 145 187 160 135 190 103 C 220 71 257 56 301 56 Z" unicode="þ" />
<glyph horiz-adv-x="463" d="M 0 0 L 0 0 Z M 466 533 L 220 -88 C 202 -130 180 -159 154 -175 C 127 -191 101 -200 75 -200 C 57 -200 43 -198 31 -194 C 19 -190 11 -187 7 -185 L 33 -122 C 35 -124 41 -126 50 -129 C 58 -131 67 -133 76 -133 C 91 -133 106 -127 120 -115 C 134 -103 148 -83 160 -57 L 194 32 L -3 533 L 76 533 L 232 122 L 391 533 L 466 533 Z M 233 588 L 233 588 Z M 348 588 L 286 588 L 286 745 L 348 745 L 348 588 Z M 180 588 L 118 588 L 118 745 L 180 745 L 180 588 Z" unicode="ÿ" />
<glyph horiz-adv-x="589" d="M 3 0 L 3 0 Z M 586 0 L 504 0 L 428 209 L 154 209 L 81 0 L 3 0 L 268 734 L 322 734 L 586 0 Z M 412 269 L 290 611 L 170 269 L 412 269 Z M 292 805 L 292 805 Z M 415 805 L 169 805 L 169 868 L 415 868 L 415 805 Z" unicode="Ā" />
<glyph horiz-adv-x="510" d="M 38 0 L 38 0 Z M 445 0 L 376 0 L 376 70 C 357 46 333 28 304 14 C 275 0 241 -7 201 -7 C 152 -7 113 6 83 34 C 53 62 38 101 38 151 C 38 209 58 252 98 282 C 138 311 189 328 252 332 L 373 341 L 373 366 C 373 404 362 433 341 451 C 319 469 290 479 254 479 C 223 479 195 473 169 462 C 143 451 120 439 101 425 L 72 482 C 94 498 122 513 154 525 C 186 537 223 544 265 544 C 319 544 363 530 396 502 C 428 474 445 431 445 373 L 445 0 Z M 374 124 L 374 285 L 252 277 C 212 274 179 263 153 244 C 127 224 114 195 114 155 C 114 121 124 95 146 77 C 168 59 195 50 228 50 C 258 50 286 57 312 71 C 338 85 359 102 374 124 Z M 252 608 L 252 608 Z M 375 608 L 129 608 L 129 671 L 375 671 L 375 608 Z" unicode="ā" />
<glyph horiz-adv-x="589" d="M 3 0 L 3 0 Z M 586 0 L 504 0 L 428 209 L 154 209 L 81 0 L 3 0 L 268 734 L 322 734 L 586 0 Z M 412 269 L 290 611 L 170 269 L 412 269 Z M 292 791 L 292 791 Z M 372 947 L 434 947 C 430 893 415 853 389 828 C 363 803 330 791 292 791 C 253 791 221 803 195 828 C 169 853 154 893 150 947 L 212 947 C 214 917 222 892 234 873 C 246 854 265 845 292 845 C 318 845 338 854 350 873 C 362 891 370 916 372 947 Z" unicode="Ă" />
<glyph horiz-adv-x="510" d="M 38 0 L 38 0 Z M 445 0 L 376 0 L 376 70 C 357 46 333 28 304 14 C 275 0 241 -7 201 -7 C 152 -7 113 6 83 34 C 53 62 38 101 38 151 C 38 209 58 252 98 282 C 138 311 189 328 252 332 L 373 341 L 373 366 C 373 404 362 433 341 451 C 319 469 290 479 254 479 C 223 479 195 473 169 462 C 143 451 120 439 101 425 L 72 482 C 94 498 122 513 154 525 C 186 537 223 544 265 544 C 319 544 363 530 396 502 C 428 474 445 431 445 373 L 445 0 Z M 374 124 L 374 285 L 252 277 C 212 274 179 263 153 244 C 127 224 114 195 114 155 C 114 121 124 95 146 77 C 168 59 195 50 228 50 C 258 50 286 57 312 71 C 338 85 359 102 374 124 Z M 252 594 L 252 594 Z M 332 750 L 394 750 C 390 696 375 656 349 631 C 323 606 290 594 252 594 C 213 594 181 606 155 631 C 129 656 114 696 110 750 L 172 750 C 174 720 182 695 194 676 C 206 657 225 648 252 648 C 278 648 298 657 310 676 C 322 694 330 719 332 750 Z" unicode="ă" />
<glyph horiz-adv-x="589" d="M 3 0 L 3 0 Z M 586 0 L 504 0 L 428 209 L 154 209 L 81 0 L 3 0 L 268 734 L 322 734 L 586 0 Z M 412 269 L 290 611 L 170 269 L 412 269 Z M 510 -8 L 510 -8 Z M 618 -104 L 640 -135 C 621 -154 599 -169 575 -180 C 550 -190 523 -196 494 -196 C 461 -196 435 -188 417 -174 C 398 -160 389 -141 389 -119 C 389 -95 399 -73 419 -52 C 439 -31 469 -13 508 3 L 551 2 C 519 -12 495 -27 478 -42 C 461 -57 453 -73 453 -90 C 453 -106 459 -118 471 -127 C 483 -136 498 -141 517 -141 C 538 -141 557 -137 575 -130 C 592 -123 606 -114 618 -104 Z" unicode="Ą" />
<glyph horiz-adv-x="510" d="M 38 0 L 38 0 Z M 445 0 L 376 0 L 376 70 C 357 46 333 28 304 14 C 275 0 241 -7 201 -7 C 152 -7 113 6 83 34 C 53 62 38 101 38 151 C 38 209 58 252 98 282 C 138 311 189 328 252 332 L 373 341 L 373 366 C 373 404 362 433 341 451 C 319 469 290 479 254 479 C 223 479 195 473 169 462 C 143 451 120 439 101 425 L 72 482 C 94 498 122 513 154 525 C 186 537 223 544 265 544 C 319 544 363 530 396 502 C 428 474 445 431 445 373 L 445 0 Z M 374 124 L 374 285 L 252 277 C 212 274 179 263 153 244 C 127 224 114 195 114 155 C 114 121 124 95 146 77 C 168 59 195 50 228 50 C 258 50 286 57 312 71 C 338 85 359 102 374 124 Z M 382 -8 L 382 -8 Z M 490 -104 L 512 -135 C 493 -154 471 -169 447 -180 C 422 -190 395 -196 366 -196 C 333 -196 307 -188 289 -174 C 270 -160 261 -141 261 -119 C 261 -95 271 -73 291 -52 C 311 -31 341 -13 380 3 L 423 2 C 391 -12 367 -27 350 -42 C 333 -57 325 -73 325 -90 C 325 -106 331 -118 343 -127 C 355 -136 370 -141 389 -141 C 410 -141 429 -137 447 -130 C 464 -123 478 -114 490 -104 Z" unicode="ą" />
<glyph horiz-adv-x="674" d="M 45 0 L 45 0 Z M 367 -10 C 323 -10 282 -1 243 15 C 204 31 170 56 141 88 C 111 120 88 159 71 206 C 53 252 45 305 45 365 C 45 421 52 472 68 518 C 84 564 106 604 134 637 C 162 669 196 695 236 713 C 276 731 320 740 368 740 C 430 740 482 728 524 705 C 566 682 599 650 624 610 L 560 568 C 540 596 515 620 485 640 C 455 659 416 669 368 669 C 294 669 235 642 191 589 C 147 535 126 461 126 366 C 126 314 133 269 147 231 C 161 193 180 161 203 136 C 226 110 252 91 282 79 C 312 66 342 60 374 60 C 423 60 464 71 498 93 C 531 115 558 143 579 177 L 640 139 C 615 95 579 60 533 32 C 487 4 431 -10 367 -10 Z M 368 788 L 368 788 Z M 276 788 L 374 955 L 460 955 L 349 788 L 276 788 Z" unicode="Ć" />
<glyph horiz-adv-x="504" d="M 37 0 L 37 0 Z M 427 146 L 479 104 C 470 91 460 78 448 64 C 436 50 423 38 407 28 C 391 17 373 8 352 1 C 331 -5 307 -9 280 -9 C 243 -9 210 -2 180 11 C 150 25 124 44 103 68 C 82 92 66 120 54 154 C 42 188 37 225 37 265 C 37 303 42 338 54 372 C 66 406 82 435 104 460 C 125 485 151 505 181 520 C 211 534 245 542 281 542 C 308 542 332 538 354 531 C 376 523 395 514 411 502 C 427 490 440 477 451 463 C 462 449 471 434 477 420 L 416 387 C 405 409 389 429 367 447 C 345 465 316 475 279 475 C 254 475 231 469 211 458 C 190 447 173 432 159 414 C 145 396 134 374 126 348 C 118 322 114 295 114 267 C 114 204 129 153 160 115 C 191 76 232 57 284 57 C 324 57 355 67 377 87 C 399 107 415 126 427 146 Z M 279 591 L 279 591 Z M 187 591 L 285 758 L 371 758 L 260 591 L 187 591 Z" unicode="ć" />
<glyph horiz-adv-x="674" d="M 45 0 L 45 0 Z M 367 -10 C 323 -10 282 -1 243 15 C 204 31 170 56 141 88 C 111 120 88 159 71 206 C 53 252 45 305 45 365 C 45 421 52 472 68 518 C 84 564 106 604 134 637 C 162 669 196 695 236 713 C 276 731 320 740 368 740 C 430 740 482 728 524 705 C 566 682 599 650 624 610 L 560 568 C 540 596 515 620 485 640 C 455 659 416 669 368 669 C 294 669 235 642 191 589 C 147 535 126 461 126 366 C 126 314 133 269 147 231 C 161 193 180 161 203 136 C 226 110 252 91 282 79 C 312 66 342 60 374 60 C 423 60 464 71 498 93 C 531 115 558 143 579 177 L 640 139 C 615 95 579 60 533 32 C 487 4 431 -10 367 -10 Z M 368 785 L 368 785 Z M 518 785 L 450 785 L 368 906 L 284 785 L 218 785 L 333 955 L 404 955 L 518 785 Z" unicode="Ĉ" />
<glyph horiz-adv-x="504" d="M 37 0 L 37 0 Z M 427 146 L 479 104 C 470 91 460 78 448 64 C 436 50 423 38 407 28 C 391 17 373 8 352 1 C 331 -5 307 -9 280 -9 C 243 -9 210 -2 180 11 C 150 25 124 44 103 68 C 82 92 66 120 54 154 C 42 188 37 225 37 265 C 37 303 42 338 54 372 C 66 406 82 435 104 460 C 125 485 151 505 181 520 C 211 534 245 542 281 542 C 308 542 332 538 354 531 C 376 523 395 514 411 502 C 427 490 440 477 451 463 C 462 449 471 434 477 420 L 416 387 C 405 409 389 429 367 447 C 345 465 316 475 279 475 C 254 475 231 469 211 458 C 190 447 173 432 159 414 C 145 396 134 374 126 348 C 118 322 114 295 114 267 C 114 204 129 153 160 115 C 191 76 232 57 284 57 C 324 57 355 67 377 87 C 399 107 415 126 427 146 Z M 279 588 L 279 588 Z M 429 588 L 361 588 L 279 709 L 195 588 L 129 588 L 244 758 L 315 758 L 429 588 Z" unicode="ĉ" />
<glyph horiz-adv-x="674" d="M 45 0 L 45 0 Z M 367 -10 C 323 -10 282 -1 243 15 C 204 31 170 56 141 88 C 111 120 88 159 71 206 C 53 252 45 305 45 365 C 45 421 52 472 68 518 C 84 564 106 604 134 637 C 162 669 196 695 236 713 C 276 731 320 740 368 740 C 430 740 482 728 524 705 C 566 682 599 650 624 610 L 560 568 C 540 596 515 620 485 640 C 455 659 416 669 368 669 C 294 669 235 642 191 589 C 147 535 126 461 126 366 C 126 314 133 269 147 231 C 161 193 180 161 203 136 C 226 110 252 91 282 79 C 312 66 342 60 374 60 C 423 60 464 71 498 93 C 531 115 558 143 579 177 L 640 139 C 615 95 579 60 533 32 C 487 4 431 -10 367 -10 Z M 368 787 L 368 787 Z M 403 787 L 334 787 L 334 932 L 403 933 L 403 787 Z" unicode="Ċ" />
<glyph horiz-adv-x="504" d="M 37 0 L 37 0 Z M 427 146 L 479 104 C 470 91 460 78 448 64 C 436 50 423 38 407 28 C 391 17 373 8 352 1 C 331 -5 307 -9 280 -9 C 243 -9 210 -2 180 11 C 150 25 124 44 103 68 C 82 92 66 120 54 154 C 42 188 37 225 37 265 C 37 303 42 338 54 372 C 66 406 82 435 104 460 C 125 485 151 505 181 520 C 211 534 245 542 281 542 C 308 542 332 538 354 531 C 376 523 395 514 411 502 C 427 490 440 477 451 463 C 462 449 471 434 477 420 L 416 387 C 405 409 389 429 367 447 C 345 465 316 475 279 475 C 254 475 231 469 211 458 C 190 447 173 432 159 414 C 145 396 134 374 126 348 C 118 322 114 295 114 267 C 114 204 129 153 160 115 C 191 76 232 57 284 57 C 324 57 355 67 377 87 C 399 107 415 126 427 146 Z M 279 590 L 279 590 Z M 314 590 L 245 590 L 245 735 L 314 736 L 314 590 Z" unicode="ċ" />
<glyph horiz-adv-x="674" d="M 45 0 L 45 0 Z M 367 -10 C 323 -10 282 -1 243 15 C 204 31 170 56 141 88 C 111 120 88 159 71 206 C 53 252 45 305 45 365 C 45 421 52 472 68 518 C 84 564 106 604 134 637 C 162 669 196 695 236 713 C 276 731 320 740 368 740 C 430 740 482 728 524 705 C 566 682 599 650 624 610 L 560 568 C 540 596 515 620 485 640 C 455 659 416 669 368 669 C 294 669 235 642 191 589 C 147 535 126 461 126 366 C 126 314 133 269 147 231 C 161 193 180 161 203 136 C 226 110 252 91 282 79 C 312 66 342 60 374 60 C 423 60 464 71 498 93 C 531 115 558 143 579 177 L 640 139 C 615 95 579 60 533 32 C 487 4 431 -10 367 -10 Z M 368 785 L 368 785 Z M 218 955 L 286 955 L 369 834 L 452 955 L 518 955 L 404 785 L 333 785 L 218 955 Z" unicode="Č" />
<glyph horiz-adv-x="504" d="M 37 0 L 37 0 Z M 427 146 L 479 104 C 470 91 460 78 448 64 C 436 50 423 38 407 28 C 391 17 373 8 352 1 C 331 -5 307 -9 280 -9 C 243 -9 210 -2 180 11 C 150 25 124 44 103 68 C 82 92 66 120 54 154 C 42 188 37 225 37 265 C 37 303 42 338 54 372 C 66 406 82 435 104 460 C 125 485 151 505 181 520 C 211 534 245 542 281 542 C 308 542 332 538 354 531 C 376 523 395 514 411 502 C 427 490 440 477 451 463 C 462 449 471 434 477 420 L 416 387 C 405 409 389 429 367 447 C 345 465 316 475 279 475 C 254 475 231 469 211 458 C 190 447 173 432 159 414 C 145 396 134 374 126 348 C 118 322 114 295 114 267 C 114 204 129 153 160 115 C 191 76 232 57 284 57 C 324 57 355 67 377 87 C 399 107 415 126 427 146 Z M 279 588 L 279 588 Z M 129 758 L 197 758 L 280 637 L 363 758 L 429 758 L 315 588 L 244 588 L 129 758 Z" unicode="č" />
<glyph horiz-adv-x="675" d="M 88 0 L 88 0 Z M 88 0 L 88 730 L 277 730 C 332 730 382 721 426 705 C 470 688 507 664 537 634 C 567 603 590 566 606 522 C 622 478 630 430 630 377 C 630 323 622 274 607 228 C 591 182 568 142 538 108 C 508 74 470 48 424 29 C 378 9 326 0 266 0 L 88 0 Z M 168 65 L 263 65 C 311 65 354 72 390 88 C 426 104 455 125 479 153 C 502 180 519 213 531 251 C 542 289 548 330 548 375 C 548 465 523 535 475 587 C 426 639 359 665 275 665 L 168 665 L 168 65 Z M 319 785 L 319 785 Z M 169 955 L 237 955 L 320 834 L 403 955 L 469 955 L 355 785 L 284 785 L 169 955 Z" unicode="Ď" />
<glyph horiz-adv-x="575" d="M 38 0 L 38 0 Z M 254 -9 C 222 -9 192 -2 166 11 C 139 24 116 43 97 67 C 78 91 63 119 53 153 C 43 187 38 224 38 265 C 38 305 43 342 55 376 C 66 410 81 440 101 464 C 121 488 144 507 171 521 C 198 535 227 542 258 542 C 299 542 335 528 366 502 C 397 476 417 445 427 410 L 427 800 L 499 800 L 499 0 L 431 0 L 431 128 C 427 113 420 98 410 82 C 400 66 388 51 373 38 C 358 24 341 13 321 4 C 301 -4 278 -9 254 -9 Z M 270 54 C 317 54 355 73 384 113 C 413 153 428 205 428 271 C 428 305 423 336 415 362 C 406 388 394 409 380 426 C 366 443 349 456 331 465 C 312 473 293 478 273 478 C 225 478 186 459 157 421 C 128 383 114 331 114 266 C 114 203 128 152 156 113 C 184 73 222 54 270 54 Z M 622 611 L 618 474 L 556 474 L 552 611 L 552 730 L 622 730 L 622 611 Z" unicode="ď" />
<glyph horiz-adv-x="675" d="M 31 0 L 31 0 Z M 630 366 C 630 315 622 267 607 223 C 591 178 568 139 538 107 C 508 74 470 48 424 29 C 378 9 326 0 266 0 L 88 0 L 88 329 L 31 329 L 31 389 L 88 389 L 88 730 L 277 730 C 332 730 382 721 426 704 C 470 687 507 663 537 632 C 567 600 590 562 606 517 C 622 471 630 421 630 366 Z M 165 61 L 258 61 C 310 61 354 69 391 85 C 428 101 458 123 481 151 C 504 178 521 210 532 247 C 542 284 548 323 548 364 C 548 461 523 536 475 589 C 427 642 360 669 276 669 L 165 669 L 165 389 L 343 389 L 343 329 L 165 329 L 165 61 Z" unicode="Đ" />
<glyph horiz-adv-x="575" d="M 431 128 C 427 113 420 98 410 82 C 400 66 388 51 373 38 C 358 24 341 13 321 4 C 301 -4 278 -9 254 -9 C 222 -9 192 -2 166 11 C 139 24 116 43 97 67 C 78 91 63 119 53 153 C 43 187 38 224 38 265 C 38 305 43 342 55 376 C 66 410 81 440 101 464 C 121 488 144 507 171 521 C 198 535 227 542 258 542 C 299 542 335 528 366 502 C 397 476 417 445 427 410 L 427 633 L 266 633 L 266 697 L 427 697 L 427 800 L 499 800 L 499 697 L 570 697 L 570 633 L 499 633 L 499 0 L 431 0 L 431 128 Z M 270 54 C 317 54 355 73 384 113 C 413 153 428 205 428 271 C 428 305 423 336 415 362 C 406 388 394 409 380 426 C 366 443 349 456 331 465 C 312 473 293 478 273 478 C 225 478 186 459 157 421 C 128 383 114 331 114 266 C 114 203 128 152 156 113 C 184 73 222 54 270 54 Z" unicode="đ" />
<glyph horiz-adv-x="516" d="M 88 0 L 88 0 Z M 472 0 L 88 0 L 88 730 L 454 730 L 454 661 L 166 661 L 166 398 L 442 398 L 442 330 L 166 330 L 166 69 L 472 69 L 472 0 Z M 276 805 L 276 805 Z M 399 805 L 153 805 L 153 868 L 399 868 L 399 805 Z" unicode="Ē" />
<glyph horiz-adv-x="542" d="M 37 0 L 37 0 Z M 280 -9 C 244 -9 212 -2 182 10 C 152 22 126 40 105 64 C 83 88 67 117 55 151 C 43 185 37 223 37 266 C 37 305 43 341 55 375 C 67 409 84 438 105 463 C 126 487 151 507 181 521 C 210 535 241 542 275 542 C 345 542 401 515 443 462 C 485 409 506 337 506 246 L 112 246 C 112 192 128 147 158 111 C 188 75 230 58 282 58 C 322 58 354 65 379 81 C 404 96 425 114 442 134 L 484 85 C 463 60 437 38 405 19 C 373 0 331 -9 280 -9 Z M 111 300 L 431 300 C 430 352 415 395 386 429 C 356 462 319 479 274 479 C 228 479 190 461 160 427 C 130 392 114 350 111 300 Z M 274 608 L 274 608 Z M 397 608 L 151 608 L 151 671 L 397 671 L 397 608 Z" unicode="ē" />
<glyph horiz-adv-x="516" d="M 88 0 L 88 0 Z M 472 0 L 88 0 L 88 730 L 454 730 L 454 661 L 166 661 L 166 398 L 442 398 L 442 330 L 166 330 L 166 69 L 472 69 L 472 0 Z M 276 791 L 276 791 Z M 356 947 L 418 947 C 414 893 399 853 373 828 C 347 803 314 791 276 791 C 237 791 205 803 179 828 C 153 853 138 893 134 947 L 196 947 C 198 917 206 892 218 873 C 230 854 249 845 276 845 C 302 845 322 854 334 873 C 346 891 354 916 356 947 Z" unicode="Ĕ" />
<glyph horiz-adv-x="542" d="M 37 0 L 37 0 Z M 280 -9 C 244 -9 212 -2 182 10 C 152 22 126 40 105 64 C 83 88 67 117 55 151 C 43 185 37 223 37 266 C 37 305 43 341 55 375 C 67 409 84 438 105 463 C 126 487 151 507 181 521 C 210 535 241 542 275 542 C 345 542 401 515 443 462 C 485 409 506 337 506 246 L 112 246 C 112 192 128 147 158 111 C 188 75 230 58 282 58 C 322 58 354 65 379 81 C 404 96 425 114 442 134 L 484 85 C 463 60 437 38 405 19 C 373 0 331 -9 280 -9 Z M 111 300 L 431 300 C 430 352 415 395 386 429 C 356 462 319 479 274 479 C 228 479 190 461 160 427 C 130 392 114 350 111 300 Z M 274 594 L 274 594 Z M 354 750 L 416 750 C 412 696 397 656 371 631 C 345 606 312 594 274 594 C 235 594 203 606 177 631 C 151 656 136 696 132 750 L 194 750 C 196 720 204 695 216 676 C 228 657 247 648 274 648 C 300 648 320 657 332 676 C 344 694 352 719 354 750 Z" unicode="ĕ" />
<glyph horiz-adv-x="516" d="M 88 0 L 88 0 Z M 472 0 L 88 0 L 88 730 L 454 730 L 454 661 L 166 661 L 166 398 L 442 398 L 442 330 L 166 330 L 166 69 L 472 69 L 472 0 Z M 276 787 L 276 787 Z M 311 787 L 242 787 L 242 932 L 311 933 L 311 787 Z" unicode="Ė" />
<glyph horiz-adv-x="542" d="M 37 0 L 37 0 Z M 280 -9 C 244 -9 212 -2 182 10 C 152 22 126 40 105 64 C 83 88 67 117 55 151 C 43 185 37 223 37 266 C 37 305 43 341 55 375 C 67 409 84 438 105 463 C 126 487 151 507 181 521 C 210 535 241 542 275 542 C 345 542 401 515 443 462 C 485 409 506 337 506 246 L 112 246 C 112 192 128 147 158 111 C 188 75 230 58 282 58 C 322 58 354 65 379 81 C 404 96 425 114 442 134 L 484 85 C 463 60 437 38 405 19 C 373 0 331 -9 280 -9 Z M 111 300 L 431 300 C 430 352 415 395 386 429 C 356 462 319 479 274 479 C 228 479 190 461 160 427 C 130 392 114 350 111 300 Z M 274 590 L 274 590 Z M 309 590 L 240 590 L 240 735 L 309 736 L 309 590 Z" unicode="ė" />
<glyph horiz-adv-x="516" d="M 88 0 L 88 0 Z M 472 0 L 88 0 L 88 730 L 454 730 L 454 661 L 166 661 L 166 398 L 442 398 L 442 330 L 166 330 L 166 69 L 472 69 L 472 0 Z M 431 -8 L 431 -8 Z M 539 -104 L 561 -135 C 542 -154 520 -169 496 -180 C 471 -190 444 -196 415 -196 C 382 -196 356 -188 338 -174 C 319 -160 310 -141 310 -119 C 310 -95 320 -73 340 -52 C 360 -31 390 -13 429 3 L 472 2 C 440 -12 416 -27 399 -42 C 382 -57 374 -73 374 -90 C 374 -106 380 -118 392 -127 C 404 -136 419 -141 438 -141 C 459 -141 478 -137 496 -130 C 513 -123 527 -114 539 -104 Z" unicode="Ę" />
<glyph horiz-adv-x="542" d="M 37 0 L 37 0 Z M 280 -9 C 244 -9 212 -2 182 10 C 152 22 126 40 105 64 C 83 88 67 117 55 151 C 43 185 37 223 37 266 C 37 305 43 341 55 375 C 67 409 84 438 105 463 C 126 487 151 507 181 521 C 210 535 241 542 275 542 C 345 542 401 515 443 462 C 485 409 506 337 506 246 L 112 246 C 112 192 128 147 158 111 C 188 75 230 58 282 58 C 322 58 354 65 379 81 C 404 96 425 114 442 134 L 484 85 C 463 60 437 38 405 19 C 373 0 331 -9 280 -9 Z M 111 300 L 431 300 C 430 352 415 395 386 429 C 356 462 319 479 274 479 C 228 479 190 461 160 427 C 130 392 114 350 111 300 Z M 318 -8 L 318 -8 Z M 426 -104 L 448 -135 C 429 -154 407 -169 383 -180 C 358 -190 331 -196 302 -196 C 269 -196 243 -188 225 -174 C 206 -160 197 -141 197 -119 C 197 -95 207 -73 227 -52 C 247 -31 277 -13 316 3 L 359 2 C 327 -12 303 -27 286 -42 C 269 -57 261 -73 261 -90 C 261 -106 267 -118 279 -127 C 291 -136 306 -141 325 -141 C 346 -141 365 -137 383 -130 C 400 -123 414 -114 426 -104 Z" unicode="ę" />
<glyph horiz-adv-x="516" d="M 88 0 L 88 0 Z M 472 0 L 88 0 L 88 730 L 454 730 L 454 661 L 166 661 L 166 398 L 442 398 L 442 330 L 166 330 L 166 69 L 472 69 L 472 0 Z M 276 785 L 276 785 Z M 126 955 L 194 955 L 277 834 L 360 955 L 426 955 L 312 785 L 241 785 L 126 955 Z" unicode="Ě" />
<glyph horiz-adv-x="542" d="M 37 0 L 37 0 Z M 280 -9 C 244 -9 212 -2 182 10 C 152 22 126 40 105 64 C 83 88 67 117 55 151 C 43 185 37 223 37 266 C 37 305 43 341 55 375 C 67 409 84 438 105 463 C 126 487 151 507 181 521 C 210 535 241 542 275 542 C 345 542 401 515 443 462 C 485 409 506 337 506 246 L 112 246 C 112 192 128 147 158 111 C 188 75 230 58 282 58 C 322 58 354 65 379 81 C 404 96 425 114 442 134 L 484 85 C 463 60 437 38 405 19 C 373 0 331 -9 280 -9 Z M 111 300 L 431 300 C 430 352 415 395 386 429 C 356 462 319 479 274 479 C 228 479 190 461 160 427 C 130 392 114 350 111 300 Z M 274 588 L 274 588 Z M 124 758 L 192 758 L 275 637 L 358 758 L 424 758 L 310 588 L 239 588 L 124 758 Z" unicode="ě" />
<glyph horiz-adv-x="712" d="M 45 0 L 45 0 Z M 379 357 L 662 357 L 662 142 C 635 94 596 57 546 30 C 496 3 439 -10 376 -10 C 330 -10 287 -1 247 16 C 207 34 172 59 142 92 C 112 124 88 164 71 210 C 53 256 45 308 45 365 C 45 421 53 473 71 520 C 88 566 111 606 141 638 C 171 670 206 695 247 713 C 287 731 331 740 377 740 C 441 740 493 728 533 706 C 573 683 604 657 626 628 L 570 575 C 550 599 525 621 495 640 C 465 658 425 668 377 668 C 341 668 308 661 277 648 C 246 634 219 615 197 590 C 175 564 157 533 144 495 C 131 457 125 413 125 365 C 125 317 131 274 145 236 C 158 197 176 164 199 138 C 221 111 248 90 279 76 C 310 62 343 55 377 55 C 424 55 466 64 504 83 C 542 101 570 129 589 165 L 589 289 L 379 289 L 379 357 Z M 376 785 L 376 785 Z M 526 785 L 458 785 L 376 906 L 292 785 L 226 785 L 341 955 L 412 955 L 526 785 Z" unicode="Ĝ" />
<glyph horiz-adv-x="569" d="M 38 0 L 38 0 Z M 254 4 C 190 4 138 28 98 77 C 58 125 38 189 38 269 C 38 309 43 346 54 380 C 65 414 80 442 99 466 C 118 490 141 508 168 521 C 194 534 223 541 255 541 C 298 541 335 528 367 503 C 398 478 419 447 430 411 L 430 533 L 498 533 L 498 54 C 498 10 490 -28 475 -60 C 460 -92 440 -118 416 -139 C 392 -159 365 -175 335 -185 C 305 -195 275 -200 245 -200 C 199 -200 164 -196 139 -188 C 113 -180 94 -173 82 -166 L 113 -104 C 124 -110 140 -117 161 -124 C 182 -131 208 -135 239 -135 C 263 -135 287 -131 310 -123 C 333 -115 353 -103 370 -87 C 387 -71 401 -52 411 -28 C 421 -4 427 24 427 56 L 427 146 C 422 129 414 112 404 95 C 394 78 381 63 367 49 C 352 35 335 24 316 16 C 297 8 276 4 254 4 Z M 273 66 C 292 66 311 70 329 78 C 347 86 364 99 378 117 C 392 134 404 156 413 183 C 422 209 427 241 427 277 C 427 341 411 389 381 423 C 350 457 314 474 273 474 C 226 474 188 455 159 418 C 129 380 115 330 115 266 C 115 204 129 155 157 119 C 185 83 223 66 273 66 Z M 270 588 L 270 588 Z M 420 588 L 352 588 L 270 709 L 186 588 L 120 588 L 235 758 L 306 758 L 420 588 Z" unicode="ĝ" />
<glyph horiz-adv-x="712" d="M 45 0 L 45 0 Z M 379 357 L 662 357 L 662 142 C 635 94 596 57 546 30 C 496 3 439 -10 376 -10 C 330 -10 287 -1 247 16 C 207 34 172 59 142 92 C 112 124 88 164 71 210 C 53 256 45 308 45 365 C 45 421 53 473 71 520 C 88 566 111 606 141 638 C 171 670 206 695 247 713 C 287 731 331 740 377 740 C 441 740 493 728 533 706 C 573 683 604 657 626 628 L 570 575 C 550 599 525 621 495 640 C 465 658 425 668 377 668 C 341 668 308 661 277 648 C 246 634 219 615 197 590 C 175 564 157 533 144 495 C 131 457 125 413 125 365 C 125 317 131 274 145 236 C 158 197 176 164 199 138 C 221 111 248 90 279 76 C 310 62 343 55 377 55 C 424 55 466 64 504 83 C 542 101 570 129 589 165 L 589 289 L 379 289 L 379 357 Z M 376 791 L 376 791 Z M 456 947 L 518 947 C 514 893 499 853 473 828 C 447 803 414 791 376 791 C 337 791 305 803 279 828 C 253 853 238 893 234 947 L 296 947 C 298 917 306 892 318 873 C 330 854 349 845 376 845 C 402 845 422 854 434 873 C 446 891 454 916 456 947 Z" unicode="Ğ" />
<glyph horiz-adv-x="569" d="M 38 0 L 38 0 Z M 254 4 C 190 4 138 28 98 77 C 58 125 38 189 38 269 C 38 309 43 346 54 380 C 65 414 80 442 99 466 C 118 490 141 508 168 521 C 194 534 223 541 255 541 C 298 541 335 528 367 503 C 398 478 419 447 430 411 L 430 533 L 498 533 L 498 54 C 498 10 490 -28 475 -60 C 460 -92 440 -118 416 -139 C 392 -159 365 -175 335 -185 C 305 -195 275 -200 245 -200 C 199 -200 164 -196 139 -188 C 113 -180 94 -173 82 -166 L 113 -104 C 124 -110 140 -117 161 -124 C 182 -131 208 -135 239 -135 C 263 -135 287 -131 310 -123 C 333 -115 353 -103 370 -87 C 387 -71 401 -52 411 -28 C 421 -4 427 24 427 56 L 427 146 C 422 129 414 112 404 95 C 394 78 381 63 367 49 C 352 35 335 24 316 16 C 297 8 276 4 254 4 Z M 273 66 C 292 66 311 70 329 78 C 347 86 364 99 378 117 C 392 134 404 156 413 183 C 422 209 427 241 427 277 C 427 341 411 389 381 423 C 350 457 314 474 273 474 C 226 474 188 455 159 418 C 129 380 115 330 115 266 C 115 204 129 155 157 119 C 185 83 223 66 273 66 Z M 270 594 L 270 594 Z M 350 750 L 412 750 C 408 696 393 656 367 631 C 341 606 308 594 270 594 C 231 594 199 606 173 631 C 147 656 132 696 128 750 L 190 750 C 192 720 200 695 212 676 C 224 657 243 648 270 648 C 296 648 316 657 328 676 C 340 694 348 719 350 750 Z" unicode="ğ" />
<glyph horiz-adv-x="712" d="M 45 0 L 45 0 Z M 379 357 L 662 357 L 662 142 C 635 94 596 57 546 30 C 496 3 439 -10 376 -10 C 330 -10 287 -1 247 16 C 207 34 172 59 142 92 C 112 124 88 164 71 210 C 53 256 45 308 45 365 C 45 421 53 473 71 520 C 88 566 111 606 141 638 C 171 670 206 695 247 713 C 287 731 331 740 377 740 C 441 740 493 728 533 706 C 573 683 604 657 626 628 L 570 575 C 550 599 525 621 495 640 C 465 658 425 668 377 668 C 341 668 308 661 277 648 C 246 634 219 615 197 590 C 175 564 157 533 144 495 C 131 457 125 413 125 365 C 125 317 131 274 145 236 C 158 197 176 164 199 138 C 221 111 248 90 279 76 C 310 62 343 55 377 55 C 424 55 466 64 504 83 C 542 101 570 129 589 165 L 589 289 L 379 289 L 379 357 Z M 376 787 L 376 787 Z M 411 787 L 342 787 L 342 932 L 411 933 L 411 787 Z" unicode="Ġ" />
<glyph horiz-adv-x="569" d="M 38 0 L 38 0 Z M 254 4 C 190 4 138 28 98 77 C 58 125 38 189 38 269 C 38 309 43 346 54 380 C 65 414 80 442 99 466 C 118 490 141 508 168 521 C 194 534 223 541 255 541 C 298 541 335 528 367 503 C 398 478 419 447 430 411 L 430 533 L 498 533 L 498 54 C 498 10 490 -28 475 -60 C 460 -92 440 -118 416 -139 C 392 -159 365 -175 335 -185 C 305 -195 275 -200 245 -200 C 199 -200 164 -196 139 -188 C 113 -180 94 -173 82 -166 L 113 -104 C 124 -110 140 -117 161 -124 C 182 -131 208 -135 239 -135 C 263 -135 287 -131 310 -123 C 333 -115 353 -103 370 -87 C 387 -71 401 -52 411 -28 C 421 -4 427 24 427 56 L 427 146 C 422 129 414 112 404 95 C 394 78 381 63 367 49 C 352 35 335 24 316 16 C 297 8 276 4 254 4 Z M 273 66 C 292 66 311 70 329 78 C 347 86 364 99 378 117 C 392 134 404 156 413 183 C 422 209 427 241 427 277 C 427 341 411 389 381 423 C 350 457 314 474 273 474 C 226 474 188 455 159 418 C 129 380 115 330 115 266 C 115 204 129 155 157 119 C 185 83 223 66 273 66 Z M 270 590 L 270 590 Z M 305 590 L 236 590 L 236 735 L 305 736 L 305 590 Z" unicode="ġ" />
<glyph horiz-adv-x="712" d="M 45 0 L 45 0 Z M 379 357 L 662 357 L 662 142 C 635 94 596 57 546 30 C 496 3 439 -10 376 -10 C 330 -10 287 -1 247 16 C 207 34 172 59 142 92 C 112 124 88 164 71 210 C 53 256 45 308 45 365 C 45 421 53 473 71 520 C 88 566 111 606 141 638 C 171 670 206 695 247 713 C 287 731 331 740 377 740 C 441 740 493 728 533 706 C 573 683 604 657 626 628 L 570 575 C 550 599 525 621 495 640 C 465 658 425 668 377 668 C 341 668 308 661 277 648 C 246 634 219 615 197 590 C 175 564 157 533 144 495 C 131 457 125 413 125 365 C 125 317 131 274 145 236 C 158 197 176 164 199 138 C 221 111 248 90 279 76 C 310 62 343 55 377 55 C 424 55 466 64 504 83 C 542 101 570 129 589 165 L 589 289 L 379 289 L 379 357 Z" unicode="Ģ" />
<glyph horiz-adv-x="569" d="M 38 0 L 38 0 Z M 254 4 C 190 4 138 28 98 77 C 58 125 38 189 38 269 C 38 309 43 346 54 380 C 65 414 80 442 99 466 C 118 490 141 508 168 521 C 194 534 223 541 255 541 C 298 541 335 528 367 503 C 398 478 419 447 430 411 L 430 533 L 498 533 L 498 54 C 498 10 490 -28 475 -60 C 460 -92 440 -118 416 -139 C 392 -159 365 -175 335 -185 C 305 -195 275 -200 245 -200 C 199 -200 164 -196 139 -188 C 113 -180 94 -173 82 -166 L 113 -104 C 124 -110 140 -117 161 -124 C 182 -131 208 -135 239 -135 C 263 -135 287 -131 310 -123 C 333 -115 353 -103 370 -87 C 387 -71 401 -52 411 -28 C 421 -4 427 24 427 56 L 427 146 C 422 129 414 112 404 95 C 394 78 381 63 367 49 C 352 35 335 24 316 16 C 297 8 276 4 254 4 Z M 273 66 C 292 66 311 70 329 78 C 347 86 364 99 378 117 C 392 134 404 156 413 183 C 422 209 427 241 427 277 C 427 341 411 389 381 423 C 350 457 314 474 273 474 C 226 474 188 455 159 418 C 129 380 115 330 115 266 C 115 204 129 155 157 119 C 185 83 223 66 273 66 Z" unicode="ģ" />
<glyph horiz-adv-x="685" d="M 88 0 L 88 0 Z M 597 0 L 517 0 L 517 327 L 168 327 L 168 0 L 88 0 L 88 730 L 168 730 L 168 395 L 517 395 L 517 730 L 597 730 L 597 0 Z M 341 785 L 341 785 Z M 491 785 L 423 785 L 341 906 L 257 785 L 191 785 L 306 955 L 377 955 L 491 785 Z" unicode="Ĥ" />
<glyph horiz-adv-x="553" d="M 76 0 L 76 0 Z M 482 0 L 408 0 L 408 375 C 408 408 396 433 374 451 C 351 469 324 478 292 478 C 275 478 258 475 241 470 C 224 465 209 457 195 447 C 181 436 170 422 162 406 C 154 390 150 370 150 348 L 150 0 L 76 0 L 76 800 L 145 800 L 145 435 C 153 465 172 491 203 511 C 234 531 272 542 316 542 C 338 542 359 539 379 533 C 399 527 417 518 432 506 C 447 494 459 478 468 460 C 477 442 482 420 482 396 L 482 0 Z M 305 855 L 305 855 Z M 455 855 L 387 855 L 305 976 L 221 855 L 155 855 L 270 1025 L 341 1025 L 455 855 Z" unicode="ĥ" />
<glyph horiz-adv-x="685" d="M 168 327 L 168 0 L 88 0 L 88 549 L 8 549 L 8 613 L 88 613 L 88 730 L 168 730 L 168 613 L 517 613 L 517 730 L 597 730 L 597 613 L 678 613 L 678 549 L 597 549 L 597 0 L 517 0 L 517 327 L 168 327 Z M 168 395 L 517 395 L 517 549 L 168 549 L 168 395 Z" unicode="Ħ" />
<glyph horiz-adv-x="553" d="M 150 348 L 150 0 L 76 0 L 76 633 L 8 633 L 8 697 L 76 697 L 76 800 L 145 800 L 145 697 L 310 697 L 310 633 L 145 633 L 145 435 C 153 465 172 491 203 511 C 234 531 272 542 316 542 C 338 542 359 539 379 533 C 399 527 417 518 432 506 C 447 494 459 478 468 460 C 477 442 482 420 482 396 L 482 0 L 408 0 L 408 375 C 408 408 396 433 374 451 C 351 469 324 478 292 478 C 275 478 258 475 241 470 C 224 465 209 457 195 447 C 181 436 170 422 162 406 C 154 390 150 370 150 348 Z" unicode="ħ" />
<glyph horiz-adv-x="264" d="M 0 0 L 0 0 Z M 172 0 L 92 0 L 92 730 L 172 730 L 172 0 Z M 132 792 L 132 792 Z M 235 923 L 294 923 C 294 879 287 846 274 824 C 261 802 243 792 221 792 C 203 792 186 796 172 805 C 158 813 145 822 134 832 C 123 840 112 849 101 857 C 90 865 79 870 69 870 C 58 870 49 863 41 851 C 33 839 28 821 28 797 L -30 797 C -30 841 -21 873 -4 895 C 13 917 32 928 53 928 C 69 928 84 923 97 915 C 110 906 123 896 135 886 C 145 877 156 869 166 862 C 176 854 186 851 197 851 C 207 851 216 857 224 870 C 231 882 235 900 235 923 Z" unicode="Ĩ" />
<glyph horiz-adv-x="230" d="M 0 0 L 0 0 Z M 153 0 L 78 0 L 78 533 L 153 533 L 153 0 Z M 115 595 L 115 595 Z M 218 726 L 277 726 C 277 682 270 649 257 627 C 244 605 226 595 204 595 C 186 595 169 599 155 608 C 141 616 128 625 117 635 C 106 643 95 652 84 660 C 73 668 62 673 52 673 C 41 673 32 666 24 654 C 16 642 11 624 11 600 L -47 600 C -47 644 -38 676 -21 698 C -3 720 15 731 36 731 C 52 731 67 726 80 718 C 93 709 106 699 118 689 C 128 680 139 672 149 665 C 159 657 169 654 180 654 C 190 654 199 660 207 673 C 214 685 218 703 218 726 Z" unicode="ĩ" />
<glyph horiz-adv-x="264" d="M 9 0 L 9 0 Z M 172 0 L 92 0 L 92 730 L 172 730 L 172 0 Z M 132 805 L 132 805 Z M 255 805 L 9 805 L 9 868 L 255 868 L 255 805 Z" unicode="Ī" />
<glyph horiz-adv-x="230" d="M 0 0 L 0 0 Z M 153 0 L 78 0 L 78 533 L 153 533 L 153 0 Z M 115 608 L 115 608 Z M 238 608 L -8 608 L -8 671 L 238 671 L 238 608 Z" unicode="ī" />
<glyph horiz-adv-x="264" d="M 0 0 L 0 0 Z M 172 0 L 92 0 L 92 730 L 172 730 L 172 0 Z M 132 791 L 132 791 Z M 212 947 L 274 947 C 270 893 255 853 229 828 C 203 803 170 791 132 791 C 93 791 61 803 35 828 C 9 853 -6 893 -10 947 L 52 947 C 54 917 62 892 74 873 C 86 854 105 845 132 845 C 158 845 178 854 190 873 C 202 891 210 916 212 947 Z" unicode="Ĭ" />
<glyph horiz-adv-x="230" d="M 0 0 L 0 0 Z M 153 0 L 78 0 L 78 533 L 153 533 L 153 0 Z M 115 594 L 115 594 Z M 195 750 L 257 750 C 253 696 238 656 212 631 C 186 606 153 594 115 594 C 76 594 44 606 18 631 C -8 656 -23 696 -27 750 L 35 750 C 37 720 45 695 57 676 C 69 657 88 648 115 648 C 141 648 161 657 173 676 C 185 694 193 719 195 750 Z" unicode="ĭ" />
<glyph horiz-adv-x="264" d="M 0 0 L 0 0 Z M 172 0 L 92 0 L 92 730 L 172 730 L 172 0 Z M 99 -8 L 99 -8 Z M 207 -104 L 229 -135 C 210 -154 188 -169 164 -180 C 139 -190 112 -196 83 -196 C 50 -196 24 -188 6 -174 C -12 -160 -22 -141 -22 -119 C -22 -95 -11 -73 8 -52 C 28 -31 58 -13 97 3 L 140 2 C 108 -12 84 -27 67 -42 C 50 -57 42 -73 42 -90 C 42 -106 48 -118 60 -127 C 72 -136 87 -141 106 -141 C 127 -141 146 -137 164 -130 C 181 -123 195 -114 207 -104 Z" unicode="Į" />
<glyph horiz-adv-x="230" d="M 0 0 L 0 0 Z M 75 649 L 75 731 L 155 731 L 155 649 L 75 649 Z M 78 0 L 78 533 L 153 533 L 153 0 L 78 0 Z M 82 -8 L 82 -8 Z M 190 -104 L 212 -135 C 193 -154 171 -169 147 -180 C 122 -190 95 -196 66 -196 C 33 -196 7 -188 -11 -174 C -29 -160 -39 -141 -39 -119 C -39 -95 -28 -73 -8 -52 C 11 -31 41 -13 80 3 L 123 2 C 91 -12 67 -27 50 -42 C 33 -57 25 -73 25 -90 C 25 -106 31 -118 43 -127 C 55 -136 70 -141 89 -141 C 110 -141 129 -137 147 -130 C 164 -123 178 -114 190 -104 Z" unicode="į" />
<glyph horiz-adv-x="264" d="M 92 0 L 92 0 Z M 172 0 L 92 0 L 92 730 L 172 730 L 172 0 Z M 132 787 L 132 787 Z M 167 787 L 98 787 L 98 932 L 167 933 L 167 787 Z" unicode="İ" />
<glyph horiz-adv-x="230" d="M 153 0 L 78 0 L 78 533 L 153 533 L 153 0 Z" unicode="ı" />
<glyph horiz-adv-x="589" d="M 92 0 L 92 0 Z M 172 0 L 92 0 L 92 730 L 172 730 L 172 0 Z M 508 730 L 508 188 C 508 161 503 135 495 111 C 487 87 474 66 458 48 C 442 30 422 15 398 5 C 374 -5 346 -11 315 -11 C 300 -11 283 -9 264 -7 C 245 -4 230 0 220 7 L 246 71 C 251 68 259 65 270 63 C 281 61 293 60 306 60 C 344 60 374 72 396 98 C 417 124 428 155 428 191 L 428 730 L 508 730 Z" unicode="Ĳ" />
<glyph horiz-adv-x="444" d="M 75 0 L 75 0 Z M 75 649 L 75 731 L 155 731 L 155 649 L 75 649 Z M 78 0 L 78 533 L 153 533 L 153 0 L 78 0 Z M 373 649 L 294 649 L 294 731 L 373 731 L 373 649 Z M 371 533 L 371 -39 C 371 -87 358 -123 332 -148 C 306 -173 277 -186 243 -186 C 225 -186 207 -183 190 -179 C 173 -174 160 -168 151 -162 L 174 -107 C 181 -111 190 -114 200 -117 C 210 -119 222 -121 235 -121 C 251 -121 265 -113 278 -98 C 290 -82 297 -61 297 -35 L 297 533 L 371 533 Z" unicode="ĳ" />
<glyph horiz-adv-x="379" d="M 7 0 L 7 0 Z M 295 730 L 295 188 C 295 161 290 135 282 111 C 274 87 261 66 245 48 C 229 30 209 15 185 5 C 161 -5 133 -11 102 -11 C 87 -11 70 -9 51 -7 C 32 -4 17 0 7 7 L 33 71 C 38 68 46 65 57 63 C 68 61 80 60 93 60 C 131 60 161 72 183 98 C 204 124 215 155 215 191 L 215 730 L 295 730 Z M 254 785 L 254 785 Z M 404 785 L 336 785 L 254 906 L 170 785 L 104 785 L 219 955 L 290 955 L 404 785 Z" unicode="Ĵ" />
<glyph horiz-adv-x="253" d="M 0 0 L 0 0 Z M 181 533 L 181 -40 C 181 -90 167 -128 140 -154 C 112 -180 81 -194 46 -194 C 28 -194 11 -191 -5 -187 C -22 -182 -36 -176 -46 -170 L -22 -115 C -15 -119 -6 -122 3 -125 C 13 -127 25 -129 38 -129 C 55 -129 71 -120 85 -104 C 99 -87 107 -64 107 -35 L 107 533 L 181 533 Z M 141 588 L 141 588 Z M 291 588 L 223 588 L 141 709 L 57 588 L -9 588 L 106 758 L 177 758 L 291 588 Z" unicode="ĵ" />
<glyph horiz-adv-x="602" d="M 88 0 L 88 0 Z M 591 0 L 496 0 L 260 346 L 168 230 L 168 0 L 88 0 L 88 730 L 168 730 L 168 329 L 470 730 L 556 730 L 313 408 L 591 0 Z M 299 -81 L 299 -81 Z M 382 -81 C 377 -131 364 -179 343 -225 C 322 -271 298 -307 272 -335 L 216 -309 C 224 -299 232 -286 241 -270 C 250 -253 259 -234 267 -214 C 275 -194 283 -172 290 -149 C 296 -126 301 -103 304 -81 L 382 -81 Z" unicode="Ķ" />
<glyph horiz-adv-x="494" d="M 76 0 L 76 0 Z M 509 1 L 425 0 L 245 255 L 150 145 L 150 0 L 76 0 L 76 800 L 149 800 L 149 229 L 389 533 L 469 533 L 295 311 L 509 1 Z M 256 -81 L 256 -81 Z M 339 -81 C 334 -131 321 -179 300 -225 C 279 -271 255 -307 229 -335 L 173 -309 C 181 -299 189 -286 198 -270 C 207 -253 216 -234 224 -214 C 232 -194 240 -172 247 -149 C 253 -126 258 -103 261 -81 L 339 -81 Z" unicode="ķ" />
<glyph horiz-adv-x="494" d="M 509 1 L 425 0 L 245 255 L 150 145 L 150 0 L 76 0 L 76 533 L 149 533 L 149 229 L 389 533 L 469 533 L 295 311 L 509 1 Z" unicode="ĸ" />
<glyph horiz-adv-x="466" d="M 88 0 L 88 0 Z M 456 0 L 88 0 L 88 730 L 168 730 L 168 69 L 456 69 L 456 0 Z M 303 788 L 303 788 Z M 211 788 L 309 955 L 395 955 L 284 788 L 211 788 Z" unicode="Ĺ" />
<glyph horiz-adv-x="256" d="M 72 0 L 72 0 Z M 72 105 L 72 800 L 146 800 L 146 125 C 146 104 151 88 161 78 C 171 67 186 62 204 62 C 210 62 217 62 225 63 C 233 64 239 65 244 67 L 249 4 C 243 1 234 -1 222 -3 C 210 -5 199 -6 187 -6 C 156 -6 129 3 106 21 C 83 39 72 67 72 105 Z M 169 858 L 169 858 Z M 77 858 L 175 1025 L 261 1025 L 150 858 L 77 858 Z" unicode="ĺ" />
<glyph horiz-adv-x="466" d="M 88 0 L 88 0 Z M 456 0 L 88 0 L 88 730 L 168 730 L 168 69 L 456 69 L 456 0 Z M 254 -81 L 254 -81 Z M 337 -81 C 332 -131 319 -179 298 -225 C 277 -271 253 -307 227 -335 L 171 -309 C 179 -299 187 -286 196 -270 C 205 -253 214 -234 222 -214 C 230 -194 238 -172 245 -149 C 251 -126 256 -103 259 -81 L 337 -81 Z" unicode="Ļ" />
<glyph horiz-adv-x="256" d="M 38 0 L 38 0 Z M 72 105 L 72 800 L 146 800 L 146 125 C 146 104 151 88 161 78 C 171 67 186 62 204 62 C 210 62 217 62 225 63 C 233 64 239 65 244 67 L 249 4 C 243 1 234 -1 222 -3 C 210 -5 199 -6 187 -6 C 156 -6 129 3 106 21 C 83 39 72 67 72 105 Z M 121 -81 L 121 -81 Z M 204 -81 C 199 -131 186 -179 165 -225 C 144 -271 120 -307 94 -335 L 38 -309 C 46 -299 54 -286 63 -270 C 72 -253 81 -234 89 -214 C 97 -194 105 -172 112 -149 C 118 -126 123 -103 126 -81 L 204 -81 Z" unicode="ļ" />
<glyph horiz-adv-x="466" d="M 88 0 L 88 0 Z M 456 0 L 88 0 L 88 730 L 168 730 L 168 69 L 456 69 L 456 0 Z M 485 611 L 481 474 L 419 474 L 415 611 L 415 730 L 485 730 L 485 611 Z" unicode="Ľ" />
<glyph horiz-adv-x="256" d="M 72 0 L 72 0 Z M 72 105 L 72 800 L 146 800 L 146 125 C 146 104 151 88 161 78 C 171 67 186 62 204 62 C 210 62 217 62 225 63 C 233 64 239 65 244 67 L 249 4 C 243 1 234 -1 222 -3 C 210 -5 199 -6 187 -6 C 156 -6 129 3 106 21 C 83 39 72 67 72 105 Z M 281 611 L 277 474 L 215 474 L 211 611 L 211 730 L 281 730 L 281 611 Z" unicode="ľ" />
<glyph horiz-adv-x="466" d="M 88 0 L 88 0 Z M 456 0 L 88 0 L 88 730 L 168 730 L 168 69 L 456 69 L 456 0 Z M 323 285 L 323 285 Z M 358 285 L 289 285 L 289 430 L 358 431 L 358 285 Z" unicode="Ŀ" />
<glyph horiz-adv-x="256" d="M 72 0 L 72 0 Z M 72 105 L 72 800 L 146 800 L 146 125 C 146 104 151 88 161 78 C 171 67 186 62 204 62 C 210 62 217 62 225 63 C 233 64 239 65 244 67 L 249 4 C 243 1 234 -1 222 -3 C 210 -5 199 -6 187 -6 C 156 -6 129 3 106 21 C 83 39 72 67 72 105 Z M 247 236 L 247 236 Z M 282 236 L 213 236 L 213 381 L 282 382 L 282 236 Z" unicode="ŀ" />
<glyph horiz-adv-x="466" d="M 441 65 L 441 0 L 88 0 L 88 273 L 30 249 L 2 307 L 88 342 L 88 730 L 168 730 L 168 375 L 347 449 L 373 392 L 168 307 L 168 65 L 441 65 Z" unicode="Ł" />
<glyph horiz-adv-x="256" d="M 251 4 C 245 1 237 -1 225 -3 C 213 -5 202 -6 191 -6 C 160 -6 133 3 110 21 C 87 39 76 67 76 105 L 76 279 L 20 253 L 0 303 L 76 339 L 76 800 L 150 800 L 150 373 L 233 412 L 254 363 L 150 314 L 150 126 C 150 105 155 89 165 78 C 175 67 189 62 207 62 C 213 62 220 62 228 63 C 236 64 242 65 246 67 L 251 4 Z" unicode="ł" />
<glyph horiz-adv-x="706" d="M 88 0 L 88 0 Z M 618 0 L 560 0 L 163 575 L 163 0 L 88 0 L 88 730 L 148 730 L 545 155 L 545 730 L 618 730 L 618 0 Z M 353 788 L 353 788 Z M 261 788 L 359 955 L 445 955 L 334 788 L 261 788 Z" unicode="Ń" />
<glyph horiz-adv-x="553" d="M 76 0 L 76 0 Z M 482 0 L 408 0 L 408 379 C 408 410 396 434 373 452 C 350 469 323 478 293 478 C 277 478 260 475 243 470 C 226 465 211 457 197 447 C 183 437 172 423 163 407 C 154 390 150 370 150 347 L 150 0 L 76 0 L 76 533 L 140 533 L 140 427 C 151 461 172 488 204 510 C 236 531 274 542 318 542 C 340 542 361 538 381 532 C 401 526 418 517 433 505 C 447 493 459 479 468 462 C 477 444 482 425 482 403 L 482 0 Z M 287 591 L 287 591 Z M 195 591 L 293 758 L 379 758 L 268 591 L 195 591 Z" unicode="ń" />
<glyph horiz-adv-x="706" d="M 88 0 L 88 0 Z M 618 0 L 560 0 L 163 575 L 163 0 L 88 0 L 88 730 L 148 730 L 545 155 L 545 730 L 618 730 L 618 0 Z M 337 -81 L 337 -81 Z M 420 -81 C 415 -131 402 -179 381 -225 C 360 -271 336 -307 310 -335 L 254 -309 C 262 -299 270 -286 279 -270 C 288 -253 297 -234 305 -214 C 313 -194 321 -172 328 -149 C 334 -126 339 -103 342 -81 L 420 -81 Z" unicode="Ņ" />
<glyph horiz-adv-x="553" d="M 76 0 L 76 0 Z M 482 0 L 408 0 L 408 379 C 408 410 396 434 373 452 C 350 469 323 478 293 478 C 277 478 260 475 243 470 C 226 465 211 457 197 447 C 183 437 172 423 163 407 C 154 390 150 370 150 347 L 150 0 L 76 0 L 76 533 L 140 533 L 140 427 C 151 461 172 488 204 510 C 236 531 274 542 318 542 C 340 542 361 538 381 532 C 401 526 418 517 433 505 C 447 493 459 479 468 462 C 477 444 482 425 482 403 L 482 0 Z M 256 -81 L 256 -81 Z M 339 -81 C 334 -131 321 -179 300 -225 C 279 -271 255 -307 229 -335 L 173 -309 C 181 -299 189 -286 198 -270 C 207 -253 216 -234 224 -214 C 232 -194 240 -172 247 -149 C 253 -126 258 -103 261 -81 L 339 -81 Z" unicode="ņ" />
<glyph horiz-adv-x="706" d="M 88 0 L 88 0 Z M 618 0 L 560 0 L 163 575 L 163 0 L 88 0 L 88 730 L 148 730 L 545 155 L 545 730 L 618 730 L 618 0 Z M 353 785 L 353 785 Z M 203 955 L 271 955 L 354 834 L 437 955 L 503 955 L 389 785 L 318 785 L 203 955 Z" unicode="Ň" />
<glyph horiz-adv-x="553" d="M 76 0 L 76 0 Z M 482 0 L 408 0 L 408 379 C 408 410 396 434 373 452 C 350 469 323 478 293 478 C 277 478 260 475 243 470 C 226 465 211 457 197 447 C 183 437 172 423 163 407 C 154 390 150 370 150 347 L 150 0 L 76 0 L 76 533 L 140 533 L 140 427 C 151 461 172 488 204 510 C 236 531 274 542 318 542 C 340 542 361 538 381 532 C 401 526 418 517 433 505 C 447 493 459 479 468 462 C 477 444 482 425 482 403 L 482 0 Z M 287 588 L 287 588 Z M 137 758 L 205 758 L 288 637 L 371 758 L 437 758 L 323 588 L 252 588 L 137 758 Z" unicode="ň" />
<glyph horiz-adv-x="706" d="M 545 730 L 618 730 L 618 -2 C 618 -60 602 -108 571 -144 C 540 -180 499 -199 447 -199 C 427 -199 407 -197 387 -193 C 367 -189 350 -184 338 -176 L 359 -114 C 367 -118 379 -122 393 -126 C 407 -129 422 -131 439 -131 C 471 -131 496 -118 516 -92 C 535 -66 545 -34 545 3 L 545 22 L 163 575 L 163 0 L 88 0 L 88 730 L 148 730 L 545 155 L 545 730 Z" unicode="Ŋ" />
<glyph horiz-adv-x="553" d="M 318 542 C 340 542 361 538 381 532 C 401 526 418 517 433 505 C 447 493 459 479 468 462 C 477 444 482 425 482 403 L 482 -28 C 482 -84 467 -126 439 -156 C 411 -186 377 -201 337 -201 C 320 -201 303 -199 286 -195 C 269 -191 255 -185 245 -179 L 266 -118 C 273 -122 282 -125 293 -128 C 304 -130 316 -132 329 -132 C 349 -132 368 -122 384 -102 C 400 -82 408 -55 408 -21 L 408 379 C 408 410 396 434 373 452 C 350 469 323 478 293 478 C 277 478 260 475 243 470 C 226 465 211 457 197 447 C 183 437 172 423 163 407 C 154 390 150 370 150 347 L 150 0 L 76 0 L 76 533 L 140 533 L 140 427 C 151 461 172 488 204 510 C 236 531 274 542 318 542 Z" unicode="ŋ" />
<glyph horiz-adv-x="755" d="M 45 0 L 45 0 Z M 380 -10 C 330 -10 285 0 244 17 C 203 35 168 61 139 94 C 109 127 86 167 70 214 C 53 261 45 313 45 370 C 45 424 53 474 70 520 C 86 566 109 605 138 637 C 167 669 202 695 242 713 C 282 731 326 740 374 740 C 424 740 469 731 511 713 C 553 695 588 669 618 637 C 647 605 670 565 686 519 C 702 473 710 422 710 366 C 710 310 701 258 684 212 C 666 166 643 126 614 93 C 584 60 549 35 509 17 C 469 -1 426 -10 380 -10 Z M 384 56 C 418 56 451 63 481 77 C 511 91 537 111 559 137 C 581 163 598 196 611 235 C 623 274 630 318 630 368 C 630 413 623 454 610 492 C 597 530 579 562 556 588 C 533 614 506 635 474 649 C 442 663 408 671 371 671 C 299 671 240 644 194 591 C 148 537 126 463 126 368 C 126 318 132 274 146 236 C 160 197 178 164 201 138 C 224 111 251 91 283 77 C 315 63 348 56 384 56 Z M 374 805 L 374 805 Z M 497 805 L 251 805 L 251 868 L 497 868 L 497 805 Z" unicode="Ō" />
<glyph horiz-adv-x="558" d="M 37 0 L 37 0 Z M 277 -9 C 244 -9 213 -2 184 9 C 155 21 130 39 108 63 C 86 86 69 115 56 149 C 43 183 37 221 37 264 C 37 304 43 341 55 375 C 67 409 84 438 106 463 C 128 487 153 507 183 521 C 212 535 243 542 277 542 C 311 542 344 535 374 523 C 404 510 429 492 451 470 C 473 447 490 419 502 387 C 514 354 521 318 521 278 C 521 236 514 197 502 162 C 490 126 473 96 451 71 C 429 46 404 26 374 12 C 344 -1 311 -9 277 -9 Z M 280 57 C 329 57 369 76 399 116 C 429 155 444 207 444 271 C 444 332 428 381 398 419 C 367 457 326 476 275 476 C 227 476 189 456 159 417 C 129 378 115 328 115 266 C 115 198 130 147 162 111 C 194 75 233 57 280 57 Z M 278 608 L 278 608 Z M 401 608 L 155 608 L 155 671 L 401 671 L 401 608 Z" unicode="ō" />
<glyph horiz-adv-x="755" d="M 45 0 L 45 0 Z M 380 -10 C 330 -10 285 0 244 17 C 203 35 168 61 139 94 C 109 127 86 167 70 214 C 53 261 45 313 45 370 C 45 424 53 474 70 520 C 86 566 109 605 138 637 C 167 669 202 695 242 713 C 282 731 326 740 374 740 C 424 740 469 731 511 713 C 553 695 588 669 618 637 C 647 605 670 565 686 519 C 702 473 710 422 710 366 C 710 310 701 258 684 212 C 666 166 643 126 614 93 C 584 60 549 35 509 17 C 469 -1 426 -10 380 -10 Z M 384 56 C 418 56 451 63 481 77 C 511 91 537 111 559 137 C 581 163 598 196 611 235 C 623 274 630 318 630 368 C 630 413 623 454 610 492 C 597 530 579 562 556 588 C 533 614 506 635 474 649 C 442 663 408 671 371 671 C 299 671 240 644 194 591 C 148 537 126 463 126 368 C 126 318 132 274 146 236 C 160 197 178 164 201 138 C 224 111 251 91 283 77 C 315 63 348 56 384 56 Z M 374 791 L 374 791 Z M 454 947 L 516 947 C 512 893 497 853 471 828 C 445 803 412 791 374 791 C 335 791 303 803 277 828 C 251 853 236 893 232 947 L 294 947 C 296 917 304 892 316 873 C 328 854 347 845 374 845 C 400 845 420 854 432 873 C 444 891 452 916 454 947 Z" unicode="Ŏ" />
<glyph horiz-adv-x="558" d="M 37 0 L 37 0 Z M 277 -9 C 244 -9 213 -2 184 9 C 155 21 130 39 108 63 C 86 86 69 115 56 149 C 43 183 37 221 37 264 C 37 304 43 341 55 375 C 67 409 84 438 106 463 C 128 487 153 507 183 521 C 212 535 243 542 277 542 C 311 542 344 535 374 523 C 404 510 429 492 451 470 C 473 447 490 419 502 387 C 514 354 521 318 521 278 C 521 236 514 197 502 162 C 490 126 473 96 451 71 C 429 46 404 26 374 12 C 344 -1 311 -9 277 -9 Z M 280 57 C 329 57 369 76 399 116 C 429 155 444 207 444 271 C 444 332 428 381 398 419 C 367 457 326 476 275 476 C 227 476 189 456 159 417 C 129 378 115 328 115 266 C 115 198 130 147 162 111 C 194 75 233 57 280 57 Z M 278 594 L 278 594 Z M 358 750 L 420 750 C 416 696 401 656 375 631 C 349 606 316 594 278 594 C 239 594 207 606 181 631 C 155 656 140 696 136 750 L 198 750 C 200 720 208 695 220 676 C 232 657 251 648 278 648 C 304 648 324 657 336 676 C 348 694 356 719 358 750 Z" unicode="ŏ" />
<glyph horiz-adv-x="755" d="M 45 0 L 45 0 Z M 380 -10 C 330 -10 285 0 244 17 C 203 35 168 61 139 94 C 109 127 86 167 70 214 C 53 261 45 313 45 370 C 45 424 53 474 70 520 C 86 566 109 605 138 637 C 167 669 202 695 242 713 C 282 731 326 740 374 740 C 424 740 469 731 511 713 C 553 695 588 669 618 637 C 647 605 670 565 686 519 C 702 473 710 422 710 366 C 710 310 701 258 684 212 C 666 166 643 126 614 93 C 584 60 549 35 509 17 C 469 -1 426 -10 380 -10 Z M 384 56 C 418 56 451 63 481 77 C 511 91 537 111 559 137 C 581 163 598 196 611 235 C 623 274 630 318 630 368 C 630 413 623 454 610 492 C 597 530 579 562 556 588 C 533 614 506 635 474 649 C 442 663 408 671 371 671 C 299 671 240 644 194 591 C 148 537 126 463 126 368 C 126 318 132 274 146 236 C 160 197 178 164 201 138 C 224 111 251 91 283 77 C 315 63 348 56 384 56 Z M 374 784 L 374 784 Z M 208 784 L 291 936 L 371 936 L 275 784 L 208 784 Z M 377 784 L 461 936 L 540 936 L 444 784 L 377 784 Z" unicode="Ő" />
<glyph horiz-adv-x="558" d="M 37 0 L 37 0 Z M 277 -9 C 244 -9 213 -2 184 9 C 155 21 130 39 108 63 C 86 86 69 115 56 149 C 43 183 37 221 37 264 C 37 304 43 341 55 375 C 67 409 84 438 106 463 C 128 487 153 507 183 521 C 212 535 243 542 277 542 C 311 542 344 535 374 523 C 404 510 429 492 451 470 C 473 447 490 419 502 387 C 514 354 521 318 521 278 C 521 236 514 197 502 162 C 490 126 473 96 451 71 C 429 46 404 26 374 12 C 344 -1 311 -9 277 -9 Z M 280 57 C 329 57 369 76 399 116 C 429 155 444 207 444 271 C 444 332 428 381 398 419 C 367 457 326 476 275 476 C 227 476 189 456 159 417 C 129 378 115 328 115 266 C 115 198 130 147 162 111 C 194 75 233 57 280 57 Z M 278 587 L 278 587 Z M 112 587 L 195 739 L 275 739 L 179 587 L 112 587 Z M 281 587 L 365 739 L 444 739 L 348 587 L 281 587 Z" unicode="ő" />
<glyph horiz-adv-x="1049" d="M 365 -10 C 318 -10 275 -1 236 17 C 196 35 162 60 134 93 C 106 126 84 166 68 213 C 52 259 45 311 45 369 C 45 423 53 473 69 519 C 85 565 108 604 137 636 C 165 668 199 694 239 712 C 278 730 320 740 366 740 C 394 740 422 735 449 726 C 476 717 501 705 524 689 C 546 673 566 654 583 632 C 599 610 611 587 619 562 L 619 730 L 984 730 L 984 660 L 694 660 L 694 398 L 973 398 L 973 331 L 694 331 L 694 69 L 1003 69 L 1003 0 L 619 0 L 619 181 C 611 155 600 130 586 107 C 571 83 553 63 531 46 C 509 28 485 15 457 5 C 429 -5 398 -10 365 -10 Z M 375 53 C 409 53 441 59 471 73 C 501 87 528 107 550 134 C 572 160 589 193 602 233 C 614 273 621 318 621 370 C 621 420 613 464 598 502 C 583 540 564 572 540 598 C 516 623 490 642 460 655 C 430 667 401 674 372 674 C 336 674 304 667 274 653 C 244 639 218 618 196 592 C 174 566 157 533 145 495 C 133 457 127 413 127 365 C 127 315 133 270 146 232 C 159 193 177 160 199 134 C 221 107 248 87 278 73 C 308 59 341 53 375 53 Z" unicode="Œ" />
<glyph horiz-adv-x="946" d="M 277 -9 C 244 -9 213 -2 184 9 C 155 21 130 39 108 63 C 86 86 69 115 56 149 C 43 183 37 221 37 264 C 37 303 43 340 55 374 C 67 408 84 437 106 462 C 128 486 153 506 183 520 C 212 534 243 542 277 542 C 307 542 333 537 357 527 C 381 517 401 504 418 488 C 434 472 448 455 458 435 C 468 415 474 396 478 377 C 480 395 486 413 497 433 C 508 452 522 470 540 486 C 558 502 579 516 603 526 C 627 536 652 542 680 542 C 748 542 804 515 846 463 C 888 410 909 338 910 247 L 516 247 C 516 191 532 145 564 110 C 595 74 636 57 686 57 C 726 57 758 64 783 80 C 808 95 829 113 846 133 L 889 85 C 867 59 841 37 809 19 C 777 0 736 -9 685 -9 C 657 -9 630 -4 606 5 C 582 14 560 26 542 42 C 524 57 509 74 497 94 C 485 113 478 133 476 153 C 473 134 466 115 456 96 C 445 76 431 59 414 43 C 397 27 377 15 354 5 C 331 -4 305 -9 277 -9 Z M 516 300 L 835 300 C 834 352 819 395 789 429 C 759 462 722 479 677 479 C 631 479 594 461 565 427 C 535 392 519 350 516 300 Z M 280 57 C 328 57 368 76 398 115 C 428 153 444 205 444 271 C 444 332 428 381 398 419 C 367 456 326 475 275 475 C 227 475 189 455 159 417 C 129 379 115 328 115 266 C 115 198 130 147 162 111 C 194 75 233 57 280 57 Z" unicode="œ" />
<glyph horiz-adv-x="551" d="M 88 0 L 88 0 Z M 88 0 L 88 730 L 273 730 C 331 730 379 713 417 679 C 455 645 474 597 474 536 C 474 506 469 479 461 455 C 452 431 440 411 426 394 C 411 377 394 364 375 354 C 355 344 335 339 314 337 L 310 334 L 527 0 L 436 0 L 236 317 L 165 317 L 165 0 L 88 0 Z M 164 383 L 253 383 C 294 383 328 395 355 420 C 381 445 395 481 395 528 C 395 571 382 605 358 629 C 333 653 301 666 261 666 L 164 666 L 164 383 Z M 269 788 L 269 788 Z M 177 788 L 275 955 L 361 955 L 250 788 L 177 788 Z" unicode="Ŕ" />
<glyph horiz-adv-x="403" d="M 76 0 L 76 0 Z M 405 513 L 371 447 C 362 455 350 462 336 467 C 322 472 305 475 287 475 C 271 475 254 471 238 465 C 222 458 207 448 194 436 C 181 423 170 407 162 389 C 154 371 150 350 150 327 L 150 0 L 76 0 L 76 533 L 145 533 L 145 416 C 152 449 171 478 201 504 C 231 529 268 542 310 542 C 332 542 351 539 367 533 C 383 527 396 521 405 513 Z M 246 591 L 246 591 Z M 154 591 L 252 758 L 338 758 L 227 591 L 154 591 Z" unicode="ŕ" />
<glyph horiz-adv-x="551" d="M 88 0 L 88 0 Z M 88 0 L 88 730 L 273 730 C 331 730 379 713 417 679 C 455 645 474 597 474 536 C 474 506 469 479 461 455 C 452 431 440 411 426 394 C 411 377 394 364 375 354 C 355 344 335 339 314 337 L 310 334 L 527 0 L 436 0 L 236 317 L 165 317 L 165 0 L 88 0 Z M 164 383 L 253 383 C 294 383 328 395 355 420 C 381 445 395 481 395 528 C 395 571 382 605 358 629 C 333 653 301 666 261 666 L 164 666 L 164 383 Z M 264 -81 L 264 -81 Z M 347 -81 C 342 -131 329 -179 308 -225 C 287 -271 263 -307 237 -335 L 181 -309 C 189 -299 197 -286 206 -270 C 215 -253 224 -234 232 -214 C 240 -194 248 -172 255 -149 C 261 -126 266 -103 269 -81 L 347 -81 Z" unicode="Ŗ" />
<glyph horiz-adv-x="403" d="M 76 0 L 76 0 Z M 405 513 L 371 447 C 362 455 350 462 336 467 C 322 472 305 475 287 475 C 271 475 254 471 238 465 C 222 458 207 448 194 436 C 181 423 170 407 162 389 C 154 371 150 350 150 327 L 150 0 L 76 0 L 76 533 L 145 533 L 145 416 C 152 449 171 478 201 504 C 231 529 268 542 310 542 C 332 542 351 539 367 533 C 383 527 396 521 405 513 Z M 219 -81 L 219 -81 Z M 302 -81 C 297 -131 284 -179 263 -225 C 242 -271 218 -307 192 -335 L 136 -309 C 144 -299 152 -286 161 -270 C 170 -253 179 -234 187 -214 C 195 -194 203 -172 210 -149 C 216 -126 221 -103 224 -81 L 302 -81 Z" unicode="ŗ" />
<glyph horiz-adv-x="551" d="M 88 0 L 88 0 Z M 88 0 L 88 730 L 273 730 C 331 730 379 713 417 679 C 455 645 474 597 474 536 C 474 506 469 479 461 455 C 452 431 440 411 426 394 C 411 377 394 364 375 354 C 355 344 335 339 314 337 L 310 334 L 527 0 L 436 0 L 236 317 L 165 317 L 165 0 L 88 0 Z M 164 383 L 253 383 C 294 383 328 395 355 420 C 381 445 395 481 395 528 C 395 571 382 605 358 629 C 333 653 301 666 261 666 L 164 666 L 164 383 Z M 269 785 L 269 785 Z M 119 955 L 187 955 L 270 834 L 353 955 L 419 955 L 305 785 L 234 785 L 119 955 Z" unicode="Ř" />
<glyph horiz-adv-x="403" d="M 76 0 L 76 0 Z M 405 513 L 371 447 C 362 455 350 462 336 467 C 322 472 305 475 287 475 C 271 475 254 471 238 465 C 222 458 207 448 194 436 C 181 423 170 407 162 389 C 154 371 150 350 150 327 L 150 0 L 76 0 L 76 533 L 145 533 L 145 416 C 152 449 171 478 201 504 C 231 529 268 542 310 542 C 332 542 351 539 367 533 C 383 527 396 521 405 513 Z M 246 588 L 246 588 Z M 96 758 L 164 758 L 247 637 L 330 758 L 396 758 L 282 588 L 211 588 L 96 758 Z" unicode="ř" />
<glyph horiz-adv-x="527" d="M 40 0 L 40 0 Z M 267 -10 C 217 -10 173 -2 135 13 C 97 28 65 50 40 79 L 92 137 C 111 110 137 90 169 76 C 201 62 234 55 267 55 C 303 55 334 65 360 87 C 386 109 400 137 400 173 C 400 207 389 236 367 260 C 345 284 307 310 251 338 C 215 354 185 369 161 384 C 137 399 117 415 102 432 C 87 449 76 468 70 489 C 63 510 60 535 60 563 C 60 617 78 660 116 692 C 153 724 201 740 259 740 C 304 740 342 732 374 717 C 405 702 431 685 453 665 L 406 605 C 385 623 362 639 336 651 C 310 663 282 669 254 669 C 220 669 191 659 169 640 C 147 620 136 594 136 562 C 136 526 147 498 171 476 C 194 454 235 430 294 402 C 363 369 411 336 437 304 C 463 271 476 230 476 180 C 476 150 470 124 459 100 C 447 76 432 56 413 40 C 394 24 372 11 347 3 C 321 -5 295 -10 267 -10 Z M 259 788 L 259 788 Z M 167 788 L 265 955 L 351 955 L 240 788 L 167 788 Z" unicode="Ś" />
<glyph horiz-adv-x="425" d="M 34 0 L 34 0 Z M 227 -9 C 184 -9 146 -2 114 10 C 81 23 54 40 34 62 L 70 112 C 88 94 110 80 137 69 C 163 57 191 52 221 52 C 247 52 270 60 290 76 C 310 92 320 113 320 139 C 320 161 311 181 293 198 C 275 214 242 232 195 250 C 141 269 104 291 84 317 C 63 342 53 373 53 409 C 53 448 68 480 100 505 C 131 529 169 542 215 542 C 257 542 291 536 317 525 C 343 513 364 502 380 490 L 351 431 C 334 443 315 454 293 464 C 271 474 247 480 221 480 C 195 480 173 473 153 460 C 133 447 124 430 124 408 C 124 386 131 369 146 355 C 160 341 192 324 242 306 C 296 284 334 261 357 236 C 380 210 392 178 392 139 C 392 115 387 94 378 76 C 369 58 357 42 342 30 C 326 17 309 7 289 1 C 269 -5 248 -9 227 -9 Z M 217 591 L 217 591 Z M 125 591 L 223 758 L 309 758 L 198 591 L 125 591 Z" unicode="ś" />
<glyph horiz-adv-x="527" d="M 40 0 L 40 0 Z M 267 -10 C 217 -10 173 -2 135 13 C 97 28 65 50 40 79 L 92 137 C 111 110 137 90 169 76 C 201 62 234 55 267 55 C 303 55 334 65 360 87 C 386 109 400 137 400 173 C 400 207 389 236 367 260 C 345 284 307 310 251 338 C 215 354 185 369 161 384 C 137 399 117 415 102 432 C 87 449 76 468 70 489 C 63 510 60 535 60 563 C 60 617 78 660 116 692 C 153 724 201 740 259 740 C 304 740 342 732 374 717 C 405 702 431 685 453 665 L 406 605 C 385 623 362 639 336 651 C 310 663 282 669 254 669 C 220 669 191 659 169 640 C 147 620 136 594 136 562 C 136 526 147 498 171 476 C 194 454 235 430 294 402 C 363 369 411 336 437 304 C 463 271 476 230 476 180 C 476 150 470 124 459 100 C 447 76 432 56 413 40 C 394 24 372 11 347 3 C 321 -5 295 -10 267 -10 Z M 259 785 L 259 785 Z M 409 785 L 341 785 L 259 906 L 175 785 L 109 785 L 224 955 L 295 955 L 409 785 Z" unicode="Ŝ" />
<glyph horiz-adv-x="425" d="M 34 0 L 34 0 Z M 227 -9 C 184 -9 146 -2 114 10 C 81 23 54 40 34 62 L 70 112 C 88 94 110 80 137 69 C 163 57 191 52 221 52 C 247 52 270 60 290 76 C 310 92 320 113 320 139 C 320 161 311 181 293 198 C 275 214 242 232 195 250 C 141 269 104 291 84 317 C 63 342 53 373 53 409 C 53 448 68 480 100 505 C 131 529 169 542 215 542 C 257 542 291 536 317 525 C 343 513 364 502 380 490 L 351 431 C 334 443 315 454 293 464 C 271 474 247 480 221 480 C 195 480 173 473 153 460 C 133 447 124 430 124 408 C 124 386 131 369 146 355 C 160 341 192 324 242 306 C 296 284 334 261 357 236 C 380 210 392 178 392 139 C 392 115 387 94 378 76 C 369 58 357 42 342 30 C 326 17 309 7 289 1 C 269 -5 248 -9 227 -9 Z M 217 588 L 217 588 Z M 367 588 L 299 588 L 217 709 L 133 588 L 67 588 L 182 758 L 253 758 L 367 588 Z" unicode="ŝ" />
<glyph horiz-adv-x="527" d="M 40 0 L 40 0 Z M 267 -10 C 217 -10 173 -2 135 13 C 97 28 65 50 40 79 L 92 137 C 111 110 137 90 169 76 C 201 62 234 55 267 55 C 303 55 334 65 360 87 C 386 109 400 137 400 173 C 400 207 389 236 367 260 C 345 284 307 310 251 338 C 215 354 185 369 161 384 C 137 399 117 415 102 432 C 87 449 76 468 70 489 C 63 510 60 535 60 563 C 60 617 78 660 116 692 C 153 724 201 740 259 740 C 304 740 342 732 374 717 C 405 702 431 685 453 665 L 406 605 C 385 623 362 639 336 651 C 310 663 282 669 254 669 C 220 669 191 659 169 640 C 147 620 136 594 136 562 C 136 526 147 498 171 476 C 194 454 235 430 294 402 C 363 369 411 336 437 304 C 463 271 476 230 476 180 C 476 150 470 124 459 100 C 447 76 432 56 413 40 C 394 24 372 11 347 3 C 321 -5 295 -10 267 -10 Z M 253 -7 L 253 -7 Z M 260 -191 C 238 -191 215 -188 193 -182 C 171 -176 153 -168 140 -159 L 155 -126 C 164 -132 176 -137 191 -143 C 206 -149 223 -152 242 -152 C 258 -152 271 -148 283 -141 C 294 -133 300 -124 300 -112 C 300 -98 294 -88 284 -82 C 274 -76 263 -74 251 -74 C 242 -74 235 -74 229 -75 C 223 -76 216 -78 209 -81 L 198 -68 L 254 4 L 297 4 L 250 -58 C 282 -51 310 -53 332 -65 C 354 -76 366 -94 366 -118 C 366 -142 355 -160 334 -172 C 313 -184 288 -191 260 -191 Z" unicode="Ş" />
<glyph horiz-adv-x="425" d="M 34 0 L 34 0 Z M 227 -9 C 184 -9 146 -2 114 10 C 81 23 54 40 34 62 L 70 112 C 88 94 110 80 137 69 C 163 57 191 52 221 52 C 247 52 270 60 290 76 C 310 92 320 113 320 139 C 320 161 311 181 293 198 C 275 214 242 232 195 250 C 141 269 104 291 84 317 C 63 342 53 373 53 409 C 53 448 68 480 100 505 C 131 529 169 542 215 542 C 257 542 291 536 317 525 C 343 513 364 502 380 490 L 351 431 C 334 443 315 454 293 464 C 271 474 247 480 221 480 C 195 480 173 473 153 460 C 133 447 124 430 124 408 C 124 386 131 369 146 355 C 160 341 192 324 242 306 C 296 284 334 261 357 236 C 380 210 392 178 392 139 C 392 115 387 94 378 76 C 369 58 357 42 342 30 C 326 17 309 7 289 1 C 269 -5 248 -9 227 -9 Z M 208 -3 L 208 -3 Z M 215 -187 C 193 -187 170 -184 148 -178 C 126 -172 108 -164 95 -155 L 110 -122 C 119 -128 131 -133 146 -139 C 161 -145 178 -148 197 -148 C 213 -148 226 -144 238 -137 C 249 -129 255 -120 255 -108 C 255 -94 249 -84 239 -78 C 229 -72 218 -70 206 -70 C 197 -70 190 -70 184 -71 C 178 -72 171 -74 164 -77 L 153 -64 L 209 8 L 252 8 L 205 -54 C 237 -47 265 -49 287 -61 C 309 -72 321 -90 321 -114 C 321 -138 310 -156 289 -168 C 268 -180 243 -187 215 -187 Z" unicode="ş" />
<glyph horiz-adv-x="527" d="M 40 0 L 40 0 Z M 267 -10 C 217 -10 173 -2 135 13 C 97 28 65 50 40 79 L 92 137 C 111 110 137 90 169 76 C 201 62 234 55 267 55 C 303 55 334 65 360 87 C 386 109 400 137 400 173 C 400 207 389 236 367 260 C 345 284 307 310 251 338 C 215 354 185 369 161 384 C 137 399 117 415 102 432 C 87 449 76 468 70 489 C 63 510 60 535 60 563 C 60 617 78 660 116 692 C 153 724 201 740 259 740 C 304 740 342 732 374 717 C 405 702 431 685 453 665 L 406 605 C 385 623 362 639 336 651 C 310 663 282 669 254 669 C 220 669 191 659 169 640 C 147 620 136 594 136 562 C 136 526 147 498 171 476 C 194 454 235 430 294 402 C 363 369 411 336 437 304 C 463 271 476 230 476 180 C 476 150 470 124 459 100 C 447 76 432 56 413 40 C 394 24 372 11 347 3 C 321 -5 295 -10 267 -10 Z M 259 785 L 259 785 Z M 109 955 L 177 955 L 260 834 L 343 955 L 409 955 L 295 785 L 224 785 L 109 955 Z" unicode="Š" />
<glyph horiz-adv-x="425" d="M 34 0 L 34 0 Z M 227 -9 C 184 -9 146 -2 114 10 C 81 23 54 40 34 62 L 70 112 C 88 94 110 80 137 69 C 163 57 191 52 221 52 C 247 52 270 60 290 76 C 310 92 320 113 320 139 C 320 161 311 181 293 198 C 275 214 242 232 195 250 C 141 269 104 291 84 317 C 63 342 53 373 53 409 C 53 448 68 480 100 505 C 131 529 169 542 215 542 C 257 542 291 536 317 525 C 343 513 364 502 380 490 L 351 431 C 334 443 315 454 293 464 C 271 474 247 480 221 480 C 195 480 173 473 153 460 C 133 447 124 430 124 408 C 124 386 131 369 146 355 C 160 341 192 324 242 306 C 296 284 334 261 357 236 C 380 210 392 178 392 139 C 392 115 387 94 378 76 C 369 58 357 42 342 30 C 326 17 309 7 289 1 C 269 -5 248 -9 227 -9 Z M 217 588 L 217 588 Z M 67 758 L 135 758 L 218 637 L 301 758 L 367 758 L 253 588 L 182 588 L 67 758 Z" unicode="š" />
<glyph horiz-adv-x="481" d="M 9 0 L 9 0 Z M 472 661 L 278 661 L 278 0 L 198 0 L 198 661 L 9 661 L 9 730 L 472 730 L 472 661 Z M 239 785 L 239 785 Z M 89 955 L 157 955 L 240 834 L 323 955 L 389 955 L 275 785 L 204 785 L 89 955 Z" unicode="Ť" />
<glyph horiz-adv-x="310" d="M 14 0 L 14 0 Z M 282 79 L 295 18 C 287 11 275 5 259 1 C 243 -2 225 -5 207 -5 C 174 -5 146 5 122 27 C 98 48 87 82 87 128 L 87 470 L 14 470 L 14 533 L 88 533 L 88 662 L 160 672 L 160 533 L 281 533 L 281 470 L 161 470 L 161 131 C 161 109 166 92 176 80 C 186 68 201 62 220 62 C 232 62 244 64 256 68 C 267 72 276 75 282 79 Z M 375 611 L 371 474 L 309 474 L 305 611 L 305 730 L 375 730 L 375 611 Z" unicode="ť" />
<glyph horiz-adv-x="481" d="M 416 467 L 278 467 L 278 0 L 198 0 L 198 467 L 62 467 L 62 531 L 198 531 L 198 661 L 9 661 L 9 730 L 472 730 L 472 661 L 278 661 L 278 531 L 416 531 L 416 467 Z" unicode="Ŧ" />
<glyph horiz-adv-x="310" d="M 295 18 C 287 11 275 5 259 1 C 243 -2 225 -5 207 -5 C 174 -5 146 5 122 27 C 98 48 87 82 87 128 L 87 312 L 20 312 L 20 376 L 87 376 L 87 470 L 14 470 L 14 533 L 88 533 L 88 662 L 160 672 L 160 533 L 281 533 L 281 470 L 161 470 L 161 376 L 259 376 L 259 312 L 161 312 L 161 131 C 161 109 166 92 176 80 C 186 68 201 62 220 62 C 232 62 244 64 256 68 C 267 72 276 75 282 79 L 295 18 Z" unicode="ŧ" />
<glyph horiz-adv-x="682" d="M 84 0 L 84 0 Z M 598 730 L 598 249 C 598 207 591 169 577 137 C 563 104 545 77 522 55 C 498 33 471 17 439 6 C 407 -4 374 -10 339 -10 C 304 -10 271 -4 240 6 C 209 16 182 32 159 53 C 136 74 118 101 104 134 C 90 166 84 205 84 249 L 84 730 L 162 730 L 162 247 C 162 217 166 190 176 167 C 185 144 198 125 214 109 C 230 93 248 81 270 73 C 292 65 315 61 339 61 C 363 61 386 64 408 72 C 430 80 449 91 465 107 C 481 122 494 141 504 165 C 514 188 519 215 519 247 L 519 730 L 598 730 Z M 340 792 L 340 792 Z M 443 923 L 502 923 C 502 879 495 846 482 824 C 469 802 451 792 429 792 C 411 792 394 796 380 805 C 366 813 353 822 342 832 C 331 840 320 849 309 857 C 298 865 287 870 277 870 C 266 870 257 863 249 851 C 241 839 236 821 236 797 L 178 797 C 178 841 186 873 204 895 C 221 917 240 928 261 928 C 277 928 292 923 305 915 C 318 906 331 896 343 886 C 353 877 364 869 374 862 C 384 854 394 851 405 851 C 415 851 424 857 432 870 C 439 882 443 900 443 923 Z" unicode="Ũ" />
<glyph horiz-adv-x="553" d="M 70 0 L 70 0 Z M 70 533 L 145 533 L 145 180 C 145 134 157 101 181 82 C 205 62 235 53 271 53 C 305 53 336 64 362 88 C 388 111 402 144 402 188 L 402 533 L 477 533 L 477 0 L 410 0 L 410 104 C 402 74 383 48 353 25 C 323 2 286 -9 241 -9 C 218 -9 196 -5 175 0 C 154 6 136 16 121 29 C 105 42 93 59 84 79 C 74 99 70 124 70 152 L 70 533 Z M 274 595 L 274 595 Z M 377 726 L 436 726 C 436 682 429 649 416 627 C 403 605 385 595 363 595 C 345 595 328 599 314 608 C 300 616 287 625 276 635 C 265 643 254 652 243 660 C 232 668 221 673 211 673 C 200 673 191 666 183 654 C 175 642 170 624 170 600 L 112 600 C 112 644 120 676 138 698 C 155 720 174 731 195 731 C 211 731 226 726 239 718 C 252 709 265 699 277 689 C 287 680 298 672 308 665 C 318 657 328 654 339 654 C 349 654 358 660 366 673 C 373 685 377 703 377 726 Z" unicode="ũ" />
<glyph horiz-adv-x="682" d="M 84 0 L 84 0 Z M 598 730 L 598 249 C 598 207 591 169 577 137 C 563 104 545 77 522 55 C 498 33 471 17 439 6 C 407 -4 374 -10 339 -10 C 304 -10 271 -4 240 6 C 209 16 182 32 159 53 C 136 74 118 101 104 134 C 90 166 84 205 84 249 L 84 730 L 162 730 L 162 247 C 162 217 166 190 176 167 C 185 144 198 125 214 109 C 230 93 248 81 270 73 C 292 65 315 61 339 61 C 363 61 386 64 408 72 C 430 80 449 91 465 107 C 481 122 494 141 504 165 C 514 188 519 215 519 247 L 519 730 L 598 730 Z M 340 805 L 340 805 Z M 463 805 L 217 805 L 217 868 L 463 868 L 463 805 Z" unicode="Ū" />
<glyph horiz-adv-x="553" d="M 70 0 L 70 0 Z M 70 533 L 145 533 L 145 180 C 145 134 157 101 181 82 C 205 62 235 53 271 53 C 305 53 336 64 362 88 C 388 111 402 144 402 188 L 402 533 L 477 533 L 477 0 L 410 0 L 410 104 C 402 74 383 48 353 25 C 323 2 286 -9 241 -9 C 218 -9 196 -5 175 0 C 154 6 136 16 121 29 C 105 42 93 59 84 79 C 74 99 70 124 70 152 L 70 533 Z M 274 608 L 274 608 Z M 397 608 L 151 608 L 151 671 L 397 671 L 397 608 Z" unicode="ū" />
<glyph horiz-adv-x="682" d="M 84 0 L 84 0 Z M 598 730 L 598 249 C 598 207 591 169 577 137 C 563 104 545 77 522 55 C 498 33 471 17 439 6 C 407 -4 374 -10 339 -10 C 304 -10 271 -4 240 6 C 209 16 182 32 159 53 C 136 74 118 101 104 134 C 90 166 84 205 84 249 L 84 730 L 162 730 L 162 247 C 162 217 166 190 176 167 C 185 144 198 125 214 109 C 230 93 248 81 270 73 C 292 65 315 61 339 61 C 363 61 386 64 408 72 C 430 80 449 91 465 107 C 481 122 494 141 504 165 C 514 188 519 215 519 247 L 519 730 L 598 730 Z M 340 791 L 340 791 Z M 420 947 L 482 947 C 478 893 463 853 437 828 C 411 803 378 791 340 791 C 301 791 269 803 243 828 C 217 853 202 893 198 947 L 260 947 C 262 917 270 892 282 873 C 294 854 313 845 340 845 C 366 845 386 854 398 873 C 410 891 418 916 420 947 Z" unicode="Ŭ" />
<glyph horiz-adv-x="553" d="M 70 0 L 70 0 Z M 70 533 L 145 533 L 145 180 C 145 134 157 101 181 82 C 205 62 235 53 271 53 C 305 53 336 64 362 88 C 388 111 402 144 402 188 L 402 533 L 477 533 L 477 0 L 410 0 L 410 104 C 402 74 383 48 353 25 C 323 2 286 -9 241 -9 C 218 -9 196 -5 175 0 C 154 6 136 16 121 29 C 105 42 93 59 84 79 C 74 99 70 124 70 152 L 70 533 Z M 274 594 L 274 594 Z M 354 750 L 416 750 C 412 696 397 656 371 631 C 345 606 312 594 274 594 C 235 594 203 606 177 631 C 151 656 136 696 132 750 L 194 750 C 196 720 204 695 216 676 C 228 657 247 648 274 648 C 300 648 320 657 332 676 C 344 694 352 719 354 750 Z" unicode="ŭ" />
<glyph horiz-adv-x="682" d="M 84 0 L 84 0 Z M 598 730 L 598 249 C 598 207 591 169 577 137 C 563 104 545 77 522 55 C 498 33 471 17 439 6 C 407 -4 374 -10 339 -10 C 304 -10 271 -4 240 6 C 209 16 182 32 159 53 C 136 74 118 101 104 134 C 90 166 84 205 84 249 L 84 730 L 162 730 L 162 247 C 162 217 166 190 176 167 C 185 144 198 125 214 109 C 230 93 248 81 270 73 C 292 65 315 61 339 61 C 363 61 386 64 408 72 C 430 80 449 91 465 107 C 481 122 494 141 504 165 C 514 188 519 215 519 247 L 519 730 L 598 730 Z M 340 779 L 340 779 Z M 340 779 C 307 779 279 790 256 814 C 232 837 221 865 221 898 C 221 930 232 958 256 981 C 279 1004 307 1016 340 1016 C 373 1016 401 1004 424 981 C 447 958 459 930 459 898 C 459 865 447 837 424 814 C 401 790 373 779 340 779 Z M 340 826 C 360 826 376 833 390 847 C 403 861 410 878 410 898 C 410 918 403 935 390 949 C 376 963 360 970 340 970 C 320 970 304 963 290 949 C 276 935 269 918 269 898 C 269 878 276 861 290 847 C 304 833 320 826 340 826 Z" unicode="Ů" />
<glyph horiz-adv-x="553" d="M 70 0 L 70 0 Z M 70 533 L 145 533 L 145 180 C 145 134 157 101 181 82 C 205 62 235 53 271 53 C 305 53 336 64 362 88 C 388 111 402 144 402 188 L 402 533 L 477 533 L 477 0 L 410 0 L 410 104 C 402 74 383 48 353 25 C 323 2 286 -9 241 -9 C 218 -9 196 -5 175 0 C 154 6 136 16 121 29 C 105 42 93 59 84 79 C 74 99 70 124 70 152 L 70 533 Z M 274 582 L 274 582 Z M 274 582 C 241 582 213 593 190 617 C 166 640 155 668 155 701 C 155 733 166 761 190 784 C 213 807 241 819 274 819 C 307 819 335 807 358 784 C 381 761 393 733 393 701 C 393 668 381 640 358 617 C 335 593 307 582 274 582 Z M 274 629 C 294 629 310 636 324 650 C 337 664 344 681 344 701 C 344 721 337 738 324 752 C 310 766 294 773 274 773 C 254 773 238 766 224 752 C 210 738 203 721 203 701 C 203 681 210 664 224 650 C 238 636 254 629 274 629 Z" unicode="ů" />
<glyph horiz-adv-x="682" d="M 84 0 L 84 0 Z M 598 730 L 598 249 C 598 207 591 169 577 137 C 563 104 545 77 522 55 C 498 33 471 17 439 6 C 407 -4 374 -10 339 -10 C 304 -10 271 -4 240 6 C 209 16 182 32 159 53 C 136 74 118 101 104 134 C 90 166 84 205 84 249 L 84 730 L 162 730 L 162 247 C 162 217 166 190 176 167 C 185 144 198 125 214 109 C 230 93 248 81 270 73 C 292 65 315 61 339 61 C 363 61 386 64 408 72 C 430 80 449 91 465 107 C 481 122 494 141 504 165 C 514 188 519 215 519 247 L 519 730 L 598 730 Z M 340 784 L 340 784 Z M 174 784 L 257 936 L 337 936 L 241 784 L 174 784 Z M 343 784 L 427 936 L 506 936 L 410 784 L 343 784 Z" unicode="Ű" />
<glyph horiz-adv-x="553" d="M 70 0 L 70 0 Z M 70 533 L 145 533 L 145 180 C 145 134 157 101 181 82 C 205 62 235 53 271 53 C 305 53 336 64 362 88 C 388 111 402 144 402 188 L 402 533 L 477 533 L 477 0 L 410 0 L 410 104 C 402 74 383 48 353 25 C 323 2 286 -9 241 -9 C 218 -9 196 -5 175 0 C 154 6 136 16 121 29 C 105 42 93 59 84 79 C 74 99 70 124 70 152 L 70 533 Z M 274 587 L 274 587 Z M 108 587 L 191 739 L 271 739 L 175 587 L 108 587 Z M 277 587 L 361 739 L 440 739 L 344 587 L 277 587 Z" unicode="ű" />
<glyph horiz-adv-x="682" d="M 84 0 L 84 0 Z M 598 730 L 598 249 C 598 207 591 169 577 137 C 563 104 545 77 522 55 C 498 33 471 17 439 6 C 407 -4 374 -10 339 -10 C 304 -10 271 -4 240 6 C 209 16 182 32 159 53 C 136 74 118 101 104 134 C 90 166 84 205 84 249 L 84 730 L 162 730 L 162 247 C 162 217 166 190 176 167 C 185 144 198 125 214 109 C 230 93 248 81 270 73 C 292 65 315 61 339 61 C 363 61 386 64 408 72 C 430 80 449 91 465 107 C 481 122 494 141 504 165 C 514 188 519 215 519 247 L 519 730 L 598 730 Z M 380 -9 L 380 -9 Z M 488 -105 L 510 -136 C 491 -155 469 -170 445 -181 C 420 -191 393 -197 364 -197 C 331 -197 305 -189 287 -175 C 268 -161 259 -142 259 -120 C 259 -96 269 -74 289 -53 C 309 -32 339 -14 378 2 L 421 1 C 389 -13 365 -28 348 -43 C 331 -58 323 -74 323 -91 C 323 -107 329 -119 341 -128 C 353 -137 368 -142 387 -142 C 408 -142 427 -138 445 -131 C 462 -124 476 -115 488 -105 Z" unicode="Ų" />
<glyph horiz-adv-x="553" d="M 70 0 L 70 0 Z M 70 533 L 145 533 L 145 180 C 145 134 157 101 181 82 C 205 62 235 53 271 53 C 305 53 336 64 362 88 C 388 111 402 144 402 188 L 402 533 L 477 533 L 477 0 L 410 0 L 410 104 C 402 74 383 48 353 25 C 323 2 286 -9 241 -9 C 218 -9 196 -5 175 0 C 154 6 136 16 121 29 C 105 42 93 59 84 79 C 74 99 70 124 70 152 L 70 533 Z M 413 -8 L 413 -8 Z M 521 -104 L 543 -135 C 524 -154 502 -169 478 -180 C 453 -190 426 -196 397 -196 C 364 -196 338 -188 320 -174 C 301 -160 292 -141 292 -119 C 292 -95 302 -73 322 -52 C 342 -31 372 -13 411 3 L 454 2 C 422 -12 398 -27 381 -42 C 364 -57 356 -73 356 -90 C 356 -106 362 -118 374 -127 C 386 -136 401 -141 420 -141 C 441 -141 460 -137 478 -130 C 495 -123 509 -114 521 -104 Z" unicode="ų" />
<glyph horiz-adv-x="849" d="M 12 0 L 12 0 Z M 833 730 L 635 -5 L 584 -5 L 424 587 L 257 -5 L 207 -5 L 12 730 L 93 730 L 241 148 L 400 730 L 452 730 L 611 146 L 760 730 L 833 730 Z M 424 785 L 424 785 Z M 574 785 L 506 785 L 424 906 L 340 785 L 274 785 L 389 955 L 460 955 L 574 785 Z" unicode="Ŵ" />
<glyph horiz-adv-x="682" d="M 5 0 L 5 0 Z M 464 -2 L 346 343 L 218 -2 L 169 -2 L 5 533 L 79 533 L 203 114 L 323 453 L 374 453 L 485 116 L 608 533 L 677 533 L 512 -2 L 464 -2 Z M 346 588 L 346 588 Z M 496 588 L 428 588 L 346 709 L 262 588 L 196 588 L 311 758 L 382 758 L 496 588 Z" unicode="ŵ" />
<glyph horiz-adv-x="585" d="M 2 0 L 2 0 Z M 584 730 L 330 317 L 330 0 L 250 0 L 250 320 L 2 730 L 93 730 L 295 394 L 502 730 L 584 730 Z M 295 785 L 295 785 Z M 445 785 L 377 785 L 295 906 L 211 785 L 145 785 L 260 955 L 331 955 L 445 785 Z" unicode="Ŷ" />
<glyph horiz-adv-x="463" d="M 0 0 L 0 0 Z M 466 533 L 220 -88 C 202 -130 180 -159 154 -175 C 127 -191 101 -200 75 -200 C 57 -200 43 -198 31 -194 C 19 -190 11 -187 7 -185 L 33 -122 C 35 -124 41 -126 50 -129 C 58 -131 67 -133 76 -133 C 91 -133 106 -127 120 -115 C 134 -103 148 -83 160 -57 L 194 32 L -3 533 L 76 533 L 232 122 L 391 533 L 466 533 Z M 233 588 L 233 588 Z M 383 588 L 315 588 L 233 709 L 149 588 L 83 588 L 198 758 L 269 758 L 383 588 Z" unicode="ŷ" />
<glyph horiz-adv-x="585" d="M 2 0 L 2 0 Z M 584 730 L 330 317 L 330 0 L 250 0 L 250 320 L 2 730 L 93 730 L 295 394 L 502 730 L 584 730 Z M 295 785 L 295 785 Z M 410 785 L 348 785 L 348 942 L 410 942 L 410 785 Z M 242 785 L 180 785 L 180 942 L 242 942 L 242 785 Z" unicode="Ÿ" />
<glyph horiz-adv-x="528" d="M 19 0 L 19 0 Z M 496 730 L 496 693 L 123 69 L 509 69 L 509 0 L 19 0 L 19 35 L 389 660 L 53 660 L 53 730 L 496 730 Z M 268 788 L 268 788 Z M 176 788 L 274 955 L 360 955 L 249 788 L 176 788 Z" unicode="Ź" />
<glyph horiz-adv-x="417" d="M 17 0 L 17 0 Z M 388 533 L 388 499 L 119 65 L 407 65 L 407 0 L 17 0 L 17 32 L 288 467 L 31 467 L 31 533 L 388 533 Z M 216 591 L 216 591 Z M 124 591 L 222 758 L 308 758 L 197 591 L 124 591 Z" unicode="ź" />
<glyph horiz-adv-x="528" d="M 19 0 L 19 0 Z M 496 730 L 496 693 L 123 69 L 509 69 L 509 0 L 19 0 L 19 35 L 389 660 L 53 660 L 53 730 L 496 730 Z M 268 787 L 268 787 Z M 303 787 L 234 787 L 234 932 L 303 933 L 303 787 Z" unicode="Ż" />
<glyph horiz-adv-x="417" d="M 17 0 L 17 0 Z M 388 533 L 388 499 L 119 65 L 407 65 L 407 0 L 17 0 L 17 32 L 288 467 L 31 467 L 31 533 L 388 533 Z M 216 590 L 216 590 Z M 251 590 L 182 590 L 182 735 L 251 736 L 251 590 Z" unicode="ż" />
<glyph horiz-adv-x="528" d="M 19 0 L 19 0 Z M 496 730 L 496 693 L 123 69 L 509 69 L 509 0 L 19 0 L 19 35 L 389 660 L 53 660 L 53 730 L 496 730 Z M 268 785 L 268 785 Z M 118 955 L 186 955 L 269 834 L 352 955 L 418 955 L 304 785 L 233 785 L 118 955 Z" unicode="Ž" />
<glyph horiz-adv-x="417" d="M 17 0 L 17 0 Z M 388 533 L 388 499 L 119 65 L 407 65 L 407 0 L 17 0 L 17 32 L 288 467 L 31 467 L 31 533 L 388 533 Z M 216 588 L 216 588 Z M 66 758 L 134 758 L 217 637 L 300 758 L 366 758 L 252 588 L 181 588 L 66 758 Z" unicode="ž" />
<glyph horiz-adv-x="364" d="M 173 -65 C 170 -97 157 -124 134 -146 C 111 -168 83 -179 51 -179 C 34 -179 18 -177 4 -175 C -10 -173 -21 -170 -29 -167 L -22 -113 C -17 -113 -10 -114 0 -116 C 9 -118 18 -119 27 -119 C 47 -119 66 -112 82 -98 C 98 -84 107 -64 110 -39 L 144 338 L 47 338 L 47 400 L 149 400 L 170 633 C 172 667 185 693 208 711 C 231 729 255 739 279 739 C 291 739 303 738 314 737 C 325 736 332 735 335 735 L 329 670 C 327 670 323 671 317 672 C 311 672 305 673 299 673 C 280 673 264 666 252 654 C 240 641 232 621 230 595 L 213 400 L 319 400 L 319 338 L 208 338 L 173 -65 Z" unicode="ƒ" />
<glyph horiz-adv-x="527" d="M 40 0 L 40 0 Z M 267 -10 C 217 -10 173 -2 135 13 C 97 28 65 50 40 79 L 92 137 C 111 110 137 90 169 76 C 201 62 234 55 267 55 C 303 55 334 65 360 87 C 386 109 400 137 400 173 C 400 207 389 236 367 260 C 345 284 307 310 251 338 C 215 354 185 369 161 384 C 137 399 117 415 102 432 C 87 449 76 468 70 489 C 63 510 60 535 60 563 C 60 617 78 660 116 692 C 153 724 201 740 259 740 C 304 740 342 732 374 717 C 405 702 431 685 453 665 L 406 605 C 385 623 362 639 336 651 C 310 663 282 669 254 669 C 220 669 191 659 169 640 C 147 620 136 594 136 562 C 136 526 147 498 171 476 C 194 454 235 430 294 402 C 363 369 411 336 437 304 C 463 271 476 230 476 180 C 476 150 470 124 459 100 C 447 76 432 56 413 40 C 394 24 372 11 347 3 C 321 -5 295 -10 267 -10 Z M 253 -88 L 253 -88 Z M 336 -88 C 331 -138 318 -186 297 -232 C 276 -278 252 -314 226 -342 L 170 -316 C 178 -306 186 -293 195 -277 C 204 -260 213 -241 221 -221 C 229 -201 237 -179 244 -156 C 250 -133 255 -110 258 -88 L 336 -88 Z" unicode="Ș" />
<glyph horiz-adv-x="425" d="M 34 0 L 34 0 Z M 227 -9 C 184 -9 146 -2 114 10 C 81 23 54 40 34 62 L 70 112 C 88 94 110 80 137 69 C 163 57 191 52 221 52 C 247 52 270 60 290 76 C 310 92 320 113 320 139 C 320 161 311 181 293 198 C 275 214 242 232 195 250 C 141 269 104 291 84 317 C 63 342 53 373 53 409 C 53 448 68 480 100 505 C 131 529 169 542 215 542 C 257 542 291 536 317 525 C 343 513 364 502 380 490 L 351 431 C 334 443 315 454 293 464 C 271 474 247 480 221 480 C 195 480 173 473 153 460 C 133 447 124 430 124 408 C 124 386 131 369 146 355 C 160 341 192 324 242 306 C 296 284 334 261 357 236 C 380 210 392 178 392 139 C 392 115 387 94 378 76 C 369 58 357 42 342 30 C 326 17 309 7 289 1 C 269 -5 248 -9 227 -9 Z M 208 -84 L 208 -84 Z M 291 -84 C 286 -134 273 -182 252 -228 C 231 -274 207 -310 181 -338 L 125 -312 C 133 -302 141 -289 150 -273 C 159 -256 168 -237 176 -217 C 184 -197 192 -175 199 -152 C 205 -129 210 -106 213 -84 L 291 -84 Z" unicode="ș" />
<glyph horiz-adv-x="481" d="M 9 0 L 9 0 Z M 472 661 L 278 661 L 278 0 L 198 0 L 198 661 L 9 661 L 9 730 L 472 730 L 472 661 Z M 207 -81 L 207 -81 Z M 290 -81 C 285 -131 272 -179 251 -225 C 230 -271 206 -307 180 -335 L 124 -309 C 132 -299 140 -286 149 -270 C 158 -253 167 -234 175 -214 C 183 -194 191 -172 198 -149 C 204 -126 209 -103 212 -81 L 290 -81 Z" unicode="Ț" />
<glyph horiz-adv-x="310" d="M 14 0 L 14 0 Z M 282 79 L 295 18 C 287 11 275 5 259 1 C 243 -2 225 -5 207 -5 C 174 -5 146 5 122 27 C 98 48 87 82 87 128 L 87 470 L 14 470 L 14 533 L 88 533 L 88 662 L 160 672 L 160 533 L 281 533 L 281 470 L 161 470 L 161 131 C 161 109 166 92 176 80 C 186 68 201 62 220 62 C 232 62 244 64 256 68 C 267 72 276 75 282 79 Z M 146 -81 L 146 -81 Z M 229 -81 C 224 -131 211 -179 190 -225 C 169 -271 145 -307 119 -335 L 63 -309 C 71 -299 79 -286 88 -270 C 97 -253 106 -234 114 -214 C 122 -194 130 -172 137 -149 C 143 -126 148 -103 151 -81 L 229 -81 Z" unicode="ț" />
<glyph horiz-adv-x="253" d="M 181 533 L 181 -40 C 181 -90 167 -128 140 -154 C 112 -180 81 -194 46 -194 C 28 -194 11 -191 -5 -187 C -22 -182 -36 -176 -46 -170 L -22 -115 C -15 -119 -6 -122 3 -125 C 13 -127 25 -129 38 -129 C 55 -129 71 -120 85 -104 C 99 -87 107 -64 107 -35 L 107 533 L 181 533 Z" unicode="ȷ" />
<glyph horiz-adv-x="500" d="M 400 588 L 332 588 L 250 709 L 166 588 L 100 588 L 215 758 L 286 758 L 400 588 Z" unicode="ˆ" />
<glyph horiz-adv-x="500" d="M 100 758 L 168 758 L 251 637 L 334 758 L 400 758 L 286 588 L 215 588 L 100 758 Z" unicode="ˇ" />
<glyph horiz-adv-x="500" d="M 330 750 L 392 750 C 388 696 373 656 347 631 C 321 606 288 594 250 594 C 211 594 179 606 153 631 C 127 656 112 696 108 750 L 170 750 C 172 720 180 695 192 676 C 204 657 223 648 250 648 C 276 648 296 657 308 676 C 320 694 328 719 330 750 Z" unicode="˘" />
<glyph horiz-adv-x="500" d="M 285 590 L 216 590 L 216 735 L 285 736 L 285 590 Z" unicode="˙" />
<glyph horiz-adv-x="509" d="M 255 582 C 222 582 194 593 171 617 C 147 640 136 668 136 701 C 136 733 147 761 171 784 C 194 807 222 819 255 819 C 288 819 316 807 339 784 C 362 761 374 733 374 701 C 374 668 362 640 339 617 C 316 593 288 582 255 582 Z M 255 629 C 275 629 291 636 305 650 C 318 664 325 681 325 701 C 325 721 318 738 305 752 C 291 766 275 773 255 773 C 235 773 219 766 205 752 C 191 738 184 721 184 701 C 184 681 191 664 205 650 C 219 636 235 629 255 629 Z" unicode="˚" />
<glyph horiz-adv-x="500" d="M 358 -96 L 380 -127 C 361 -146 339 -161 315 -172 C 290 -182 263 -188 234 -188 C 201 -188 175 -180 157 -166 C 138 -152 129 -133 129 -111 C 129 -87 139 -65 159 -44 C 179 -23 209 -5 248 11 L 291 10 C 259 -4 235 -19 218 -34 C 201 -49 193 -65 193 -82 C 193 -98 199 -110 211 -119 C 223 -128 238 -133 257 -133 C 278 -133 297 -129 315 -122 C 332 -115 346 -106 358 -96 Z" unicode="˛" />
<glyph horiz-adv-x="500" d="M 355 726 L 414 726 C 414 682 407 649 394 627 C 381 605 363 595 341 595 C 323 595 306 599 292 608 C 278 616 265 625 254 635 C 243 643 232 652 221 660 C 210 668 199 673 189 673 C 178 673 169 666 161 654 C 153 642 148 624 148 600 L 90 600 C 90 644 98 676 116 698 C 133 720 152 731 173 731 C 189 731 204 726 217 718 C 230 709 243 699 255 689 C 265 680 276 672 286 665 C 296 657 306 654 317 654 C 327 654 336 660 344 673 C 351 685 355 703 355 726 Z" unicode="˜" />
<glyph horiz-adv-x="500" d="M 96 587 L 179 739 L 259 739 L 163 587 L 96 587 Z M 265 587 L 349 739 L 428 739 L 332 587 L 265 587 Z" unicode="˝" />
<glyph horiz-adv-x="0" d="M 0 587 L 0 587 Z M 92 587 L 18 587 L -93 754 L -7 754 L 92 587 Z" unicode="̀" />
<glyph horiz-adv-x="0" d="M 0 591 L 0 591 Z M -92 591 L 6 758 L 92 758 L -19 591 L -92 591 Z" unicode="́" />
<glyph horiz-adv-x="0" d="M 0 588 L 0 588 Z M 150 588 L 82 588 L 0 709 L -84 588 L -150 588 L -35 758 L 36 758 L 150 588 Z" unicode="̂" />
<glyph horiz-adv-x="0" d="M 0 595 L 0 595 Z M 103 726 L 162 726 C 162 682 155 649 142 627 C 129 605 111 595 89 595 C 71 595 54 599 40 608 C 26 616 13 625 2 635 C -8 643 -19 652 -30 660 C -41 668 -52 673 -63 673 C -73 673 -83 666 -91 654 C -99 642 -103 624 -104 600 L -162 600 C -162 644 -153 676 -136 698 C -118 720 -99 731 -79 731 C -62 731 -47 726 -34 718 C -21 709 -9 699 3 689 C 13 680 24 672 34 665 C 44 657 54 654 65 654 C 75 654 84 660 92 673 C 99 685 103 703 103 726 Z" unicode="̃" />
<glyph horiz-adv-x="0" d="M 0 608 L 0 608 Z M 123 608 L -123 608 L -123 671 L 123 671 L 123 608 Z" unicode="̄" />
<glyph horiz-adv-x="0" d="M 0 594 L 0 594 Z M 80 750 L 142 750 C 138 696 123 656 97 631 C 71 606 38 594 0 594 C -38 594 -71 606 -97 631 C -123 656 -138 696 -142 750 L -80 750 C -77 720 -70 695 -58 676 C -46 657 -26 648 0 648 C 26 648 46 657 58 676 C 70 694 78 719 80 750 Z" unicode="̆" />
<glyph horiz-adv-x="0" d="M 0 590 L 0 590 Z M 35 590 L -34 590 L -34 735 L 35 736 L 35 590 Z" unicode="̇" />
<glyph horiz-adv-x="0" d="M 0 588 L 0 588 Z M 115 588 L 53 588 L 53 745 L 115 745 L 115 588 Z M -53 588 L -115 588 L -115 745 L -53 745 L -53 588 Z" unicode="̈" />
<glyph horiz-adv-x="0" d="M 0 582 L 0 582 Z M 0 582 C -32 582 -60 593 -84 617 C -107 640 -119 668 -119 701 C -119 733 -107 761 -84 784 C -60 807 -32 819 0 819 C 33 819 61 807 84 784 C 107 761 119 733 119 701 C 119 668 107 640 84 617 C 61 593 33 582 0 582 Z M 0 629 C 20 629 36 636 50 650 C 63 664 70 681 70 701 C 70 721 63 738 50 752 C 36 766 20 773 0 773 C -19 773 -36 766 -50 752 C -64 738 -71 721 -71 701 C -71 681 -64 664 -50 650 C -36 636 -19 629 0 629 Z" unicode="̊" />
<glyph horiz-adv-x="0" d="M 0 587 L 0 587 Z M -166 587 L -83 739 L -3 739 L -99 587 L -166 587 Z M 3 587 L 87 739 L 166 739 L 70 587 L 3 587 Z" unicode="̋" />
<glyph horiz-adv-x="0" d="M 0 588 L 0 588 Z M -150 758 L -82 758 L 1 637 L 84 758 L 150 758 L 36 588 L -35 588 L -150 758 Z" unicode="̌" />
<glyph horiz-adv-x="0" d="M 0 -81 L 0 -81 Z M 83 -81 C 78 -131 65 -179 44 -225 C 23 -271 0 -307 -27 -335 L -83 -309 C -75 -299 -66 -286 -57 -270 C -48 -253 -39 -234 -31 -214 C -23 -194 -15 -172 -9 -149 C -2 -126 2 -103 5 -81 L 83 -81 Z" unicode="̦" />
<glyph horiz-adv-x="0" d="M 0 0 L 0 0 Z M 7 -184 C -15 -184 -37 -181 -59 -175 C -81 -169 -99 -161 -113 -152 L -98 -119 C -88 -125 -76 -130 -61 -136 C -46 -142 -29 -145 -11 -145 C 5 -145 18 -141 30 -134 C 41 -126 47 -117 47 -105 C 47 -91 41 -81 31 -75 C 21 -69 10 -67 -2 -67 C -10 -67 -18 -67 -24 -68 C -30 -69 -36 -71 -44 -74 L -55 -61 L 1 11 L 44 11 L -3 -51 C 29 -44 57 -46 79 -58 C 101 -69 113 -87 113 -111 C 113 -135 102 -153 81 -165 C 60 -177 35 -184 7 -184 Z" unicode="̧" />
<glyph horiz-adv-x="0" d="M 0 0 L 0 0 Z M 108 -96 L 130 -127 C 111 -146 89 -161 65 -172 C 40 -182 13 -188 -16 -188 C -48 -188 -74 -180 -93 -166 C -111 -152 -121 -133 -121 -111 C -121 -87 -110 -65 -90 -44 C -70 -23 -40 -5 -2 11 L 41 10 C 9 -4 -14 -19 -31 -34 C -48 -49 -57 -65 -57 -82 C -57 -98 -51 -110 -39 -119 C -27 -128 -11 -133 7 -133 C 28 -133 47 -129 65 -122 C 82 -115 96 -106 108 -96 Z" unicode="̨" />
<glyph horiz-adv-x="579" d="M 2 0 L 2 0 Z M 612 0 L 2 0 L 286 731 L 331 731 L 612 0 Z M 508 61 L 304 611 L 102 61 L 508 61 Z" unicode="Δ" />
<glyph horiz-adv-x="724" d="M 36 0 L 36 0 Z M 45 0 L 45 69 L 263 69 L 263 146 C 229 158 198 174 170 194 C 142 214 118 236 98 262 C 78 288 63 316 52 347 C 41 378 36 410 36 443 C 36 485 43 524 59 561 C 74 598 96 630 124 657 C 152 684 187 705 227 721 C 267 737 313 745 363 745 C 415 745 461 737 503 721 C 544 705 579 683 608 656 C 636 629 658 597 674 560 C 689 523 697 484 697 442 C 697 376 677 316 637 262 C 597 208 541 170 469 146 L 469 69 L 687 69 L 687 0 L 414 0 L 414 186 C 445 196 473 211 499 229 C 524 247 545 267 562 289 C 579 311 592 335 602 361 C 611 387 616 413 616 439 C 616 474 609 507 597 537 C 584 567 567 592 545 614 C 523 636 496 653 465 665 C 433 677 399 683 363 683 C 327 683 293 676 263 664 C 233 652 207 635 185 614 C 163 592 147 566 135 536 C 123 506 117 473 117 437 C 117 386 134 337 169 291 C 204 244 254 209 318 186 L 318 0 L 45 0 Z" unicode="Ω" />
<glyph horiz-adv-x="593" d="M 81 0 L 81 0 Z M 81 -156 L 81 533 L 154 533 L 154 164 C 154 131 168 104 196 83 C 224 61 257 51 294 51 C 312 51 330 54 349 60 C 367 66 384 76 400 88 C 415 100 427 116 437 135 C 447 153 452 175 452 199 L 452 533 L 525 533 L 525 0 L 457 0 L 457 107 C 452 92 444 78 432 64 C 420 50 405 37 389 27 C 373 17 355 8 336 2 C 317 -3 298 -7 279 -7 C 251 -7 225 -1 200 10 C 175 22 158 38 148 60 L 148 -156 L 81 -156 Z" unicode="μ" />
<glyph horiz-adv-x="583" d="M 167 475 L 167 0 L 93 0 L 93 475 L 15 475 L 15 533 L 568 533 L 568 475 L 484 475 L 484 0 L 410 0 L 410 475 L 167 475 Z" unicode="π" />
<glyph horiz-adv-x="849" d="M 12 0 L 12 0 Z M 833 730 L 635 -5 L 584 -5 L 424 587 L 257 -5 L 207 -5 L 12 730 L 93 730 L 241 148 L 400 730 L 452 730 L 611 146 L 760 730 L 833 730 Z M 424 784 L 424 784 Z M 516 784 L 442 784 L 331 951 L 417 951 L 516 784 Z" unicode="Ẁ" />
<glyph horiz-adv-x="682" d="M 5 0 L 5 0 Z M 464 -2 L 346 343 L 218 -2 L 169 -2 L 5 533 L 79 533 L 203 114 L 323 453 L 374 453 L 485 116 L 608 533 L 677 533 L 512 -2 L 464 -2 Z M 346 587 L 346 587 Z M 438 587 L 364 587 L 253 754 L 339 754 L 438 587 Z" unicode="ẁ" />
<glyph horiz-adv-x="849" d="M 12 0 L 12 0 Z M 833 730 L 635 -5 L 584 -5 L 424 587 L 257 -5 L 207 -5 L 12 730 L 93 730 L 241 148 L 400 730 L 452 730 L 611 146 L 760 730 L 833 730 Z M 424 788 L 424 788 Z M 332 788 L 430 955 L 516 955 L 405 788 L 332 788 Z" unicode="Ẃ" />
<glyph horiz-adv-x="682" d="M 5 0 L 5 0 Z M 464 -2 L 346 343 L 218 -2 L 169 -2 L 5 533 L 79 533 L 203 114 L 323 453 L 374 453 L 485 116 L 608 533 L 677 533 L 512 -2 L 464 -2 Z M 346 591 L 346 591 Z M 254 591 L 352 758 L 438 758 L 327 591 L 254 591 Z" unicode="ẃ" />
<glyph horiz-adv-x="849" d="M 12 0 L 12 0 Z M 833 730 L 635 -5 L 584 -5 L 424 587 L 257 -5 L 207 -5 L 12 730 L 93 730 L 241 148 L 400 730 L 452 730 L 611 146 L 760 730 L 833 730 Z M 424 785 L 424 785 Z M 539 785 L 477 785 L 477 942 L 539 942 L 539 785 Z M 371 785 L 309 785 L 309 942 L 371 942 L 371 785 Z" unicode="Ẅ" />
<glyph horiz-adv-x="682" d="M 5 0 L 5 0 Z M 464 -2 L 346 343 L 218 -2 L 169 -2 L 5 533 L 79 533 L 203 114 L 323 453 L 374 453 L 485 116 L 608 533 L 677 533 L 512 -2 L 464 -2 Z M 346 588 L 346 588 Z M 461 588 L 399 588 L 399 745 L 461 745 L 461 588 Z M 293 588 L 231 588 L 231 745 L 293 745 L 293 588 Z" unicode="ẅ" />
<glyph horiz-adv-x="585" d="M 2 0 L 2 0 Z M 584 730 L 330 317 L 330 0 L 250 0 L 250 320 L 2 730 L 93 730 L 295 394 L 502 730 L 584 730 Z M 295 784 L 295 784 Z M 387 784 L 313 784 L 202 951 L 288 951 L 387 784 Z" unicode="Ỳ" />
<glyph horiz-adv-x="463" d="M 0 0 L 0 0 Z M 466 533 L 220 -88 C 202 -130 180 -159 154 -175 C 127 -191 101 -200 75 -200 C 57 -200 43 -198 31 -194 C 19 -190 11 -187 7 -185 L 33 -122 C 35 -124 41 -126 50 -129 C 58 -131 67 -133 76 -133 C 91 -133 106 -127 120 -115 C 134 -103 148 -83 160 -57 L 194 32 L -3 533 L 76 533 L 232 122 L 391 533 L 466 533 Z M 233 587 L 233 587 Z M 325 587 L 251 587 L 140 754 L 226 754 L 325 587 Z" unicode="ỳ" />
<glyph horiz-adv-x="460" d="M 419 231 L 42 231 L 42 295 L 419 295 L 419 231 Z" unicode="–" />
<glyph horiz-adv-x="645" d="M 604 231 L 42 231 L 42 295 L 604 295 L 604 231 Z" unicode="—" />
<glyph horiz-adv-x="240" d="M 37 507 L 37 514 C 37 553 46 592 66 630 C 86 668 113 704 149 737 L 221 731 C 211 723 200 711 188 697 C 176 683 164 666 154 648 C 143 629 134 608 127 586 C 119 563 116 539 116 515 L 116 507 L 37 507 Z" unicode="‘" />
<glyph horiz-adv-x="240" d="M 203 737 L 203 730 C 203 690 193 652 173 614 C 153 576 125 541 91 507 L 19 513 C 29 523 40 535 52 549 C 64 563 76 580 86 598 C 96 616 105 637 113 659 C 120 681 124 704 124 729 L 124 737 L 203 737 Z" unicode="’" />
<glyph horiz-adv-x="241" d="M 203 110 L 203 103 C 203 63 193 25 173 -13 C 153 -51 125 -86 91 -120 L 19 -114 C 29 -104 40 -91 52 -77 C 64 -63 75 -46 86 -28 C 96 -10 105 10 113 32 C 120 54 124 77 124 102 L 124 110 L 203 110 Z" unicode="‚" />
<glyph horiz-adv-x="400" d="M 207 507 L 207 514 C 207 552 216 589 236 627 C 256 664 284 701 321 737 L 387 731 C 377 721 366 709 354 695 C 341 681 329 664 318 646 C 306 628 297 607 289 585 C 281 563 278 539 278 515 L 278 507 L 207 507 Z M 38 507 L 38 514 C 38 552 48 589 68 627 C 88 664 116 701 152 737 L 217 731 C 208 722 197 710 185 696 C 172 681 160 664 149 646 C 137 628 128 607 120 585 C 112 563 108 539 108 515 L 108 507 L 38 507 Z" unicode="“" />
<glyph horiz-adv-x="400" d="M 196 737 L 196 730 C 196 690 186 652 168 616 C 149 579 121 543 85 507 L 19 513 C 29 523 41 536 53 551 C 65 565 77 582 88 600 C 98 618 107 637 114 659 C 121 681 125 704 125 729 L 125 737 L 196 737 Z M 362 737 L 362 730 C 362 690 352 652 333 615 C 314 577 287 541 251 507 L 185 513 C 196 523 208 536 221 551 C 233 565 245 582 255 600 C 265 618 274 637 281 659 C 288 681 292 704 292 729 L 292 737 L 362 737 Z" unicode="”" />
<glyph horiz-adv-x="401" d="M 196 112 L 196 105 C 196 65 186 27 168 -9 C 149 -46 121 -82 84 -118 L 19 -112 C 29 -101 41 -88 53 -74 C 65 -60 77 -43 88 -25 C 98 -7 107 12 114 34 C 121 56 125 79 125 104 L 125 112 L 196 112 Z M 363 112 L 363 105 C 363 65 353 27 334 -10 C 315 -48 288 -84 252 -118 L 186 -112 C 197 -101 209 -88 222 -74 C 234 -59 246 -43 256 -25 C 266 -7 275 12 282 34 C 289 56 293 79 293 104 L 293 112 L 363 112 Z" unicode="„" />
<glyph horiz-adv-x="509" d="M 487 407 L 291 407 L 291 -179 L 213 -179 L 213 407 L 23 407 L 23 471 L 213 471 L 213 730 L 291 730 L 291 471 L 487 471 L 487 407 Z" unicode="†" />
<glyph horiz-adv-x="512" d="M 215 -179 L 215 129 L 27 129 L 27 194 L 215 194 L 215 396 L 27 396 L 27 460 L 215 460 L 215 730 L 292 730 L 292 460 L 485 460 L 485 396 L 292 396 L 292 194 L 485 194 L 485 129 L 292 129 L 292 -179 L 215 -179 Z" unicode="‡" />
<glyph horiz-adv-x="382" d="M 191 450 C 211 450 227 443 241 429 C 255 415 262 399 262 379 C 262 359 255 343 241 329 C 227 315 211 309 191 309 C 171 309 154 315 141 329 C 127 343 121 359 121 379 C 121 399 127 415 141 429 C 154 443 171 450 191 450 Z" unicode="•" />
<glyph horiz-adv-x="648" d="M 70 0 L 70 120 L 146 120 L 146 0 L 70 0 Z M 286 0 L 286 120 L 362 120 L 362 0 L 286 0 Z M 502 0 L 502 120 L 578 120 L 578 0 L 502 0 Z" unicode="…" />
<glyph horiz-adv-x="1125" d="M 196 355 C 176 355 156 359 138 368 C 119 376 103 389 89 405 C 75 421 63 441 55 465 C 46 489 42 516 42 547 C 42 573 45 598 53 622 C 61 645 71 665 85 683 C 99 701 115 715 134 725 C 152 735 173 741 196 741 C 219 741 240 735 259 725 C 278 715 294 701 308 684 C 321 666 331 646 339 623 C 346 599 350 575 350 550 C 350 522 346 497 338 473 C 330 449 320 429 307 411 C 293 393 277 380 258 370 C 239 360 218 355 196 355 Z M 116 0 L 582 730 L 652 730 L 186 0 L 116 0 Z M 106 547 C 106 507 114 474 130 450 C 146 425 167 413 194 413 C 224 413 247 425 263 451 C 278 477 286 509 286 547 C 286 583 278 615 264 642 C 250 668 227 682 197 682 C 167 682 144 668 129 642 C 113 616 106 584 106 547 Z M 583 -3 C 563 -3 543 1 525 10 C 506 18 489 31 475 47 C 461 63 449 84 441 108 C 432 132 428 159 428 190 C 428 216 431 240 439 264 C 447 288 457 308 471 326 C 485 343 501 357 520 367 C 539 377 560 383 583 383 C 606 383 627 377 647 367 C 666 357 682 343 696 326 C 709 309 719 289 727 266 C 734 242 738 218 738 193 C 738 165 734 140 727 116 C 719 92 709 72 695 54 C 681 36 665 22 646 12 C 627 2 606 -3 583 -3 Z M 928 -3 C 908 -3 888 1 870 10 C 851 18 834 31 820 47 C 806 63 794 84 786 108 C 777 132 773 159 773 190 C 773 216 776 240 784 264 C 792 288 802 308 816 326 C 830 343 846 357 866 367 C 885 377 906 383 929 383 C 952 383 973 377 992 367 C 1011 357 1027 343 1041 326 C 1054 309 1064 289 1072 266 C 1079 242 1083 218 1083 193 C 1083 165 1079 140 1071 116 C 1063 92 1053 72 1040 54 C 1026 36 1010 22 991 12 C 971 2 950 -3 928 -3 Z M 581 56 C 611 56 634 68 650 94 C 666 120 674 152 674 190 C 674 226 666 258 652 285 C 637 311 614 325 584 325 C 554 325 532 311 516 285 C 500 259 493 227 493 190 C 493 150 501 117 517 93 C 533 68 555 56 581 56 Z M 926 56 C 956 56 979 68 995 94 C 1011 120 1019 152 1019 190 C 1019 226 1011 258 997 285 C 982 311 959 325 929 325 C 899 325 877 311 861 285 C 845 259 838 227 838 190 C 838 150 846 117 862 93 C 878 68 900 56 926 56 Z" unicode="‰" />
<glyph horiz-adv-x="231" d="M 201 117 L 29 282 L 29 325 L 201 489 L 201 416 L 93 302 L 201 192 L 201 117 Z" unicode="‹" />
<glyph horiz-adv-x="232" d="M 30 490 L 203 324 L 203 282 L 30 118 L 30 191 L 138 304 L 30 414 L 30 490 Z" unicode="›" />
<glyph horiz-adv-x="145" d="M 300 730 L -81 0 L -145 0 L 236 730 L 300 730 Z" unicode="⁄" />
<glyph horiz-adv-x="325" d="M 15 458 L 15 503 L 207 739 L 250 739 L 250 507 L 314 507 L 314 458 L 250 458 L 250 373 L 188 373 L 188 458 L 15 458 Z M 71 500 L 190 500 L 190 651 L 71 500 Z" unicode="⁴" />
<glyph horiz-adv-x="534" d="M 524 117 C 505 79 477 48 441 24 C 404 0 364 -12 320 -12 C 262 -12 211 12 167 61 C 123 109 95 177 83 265 L 36 265 L 36 318 L 77 318 C 76 324 76 331 76 339 C 76 347 76 354 76 362 C 76 369 76 376 76 384 C 76 391 76 398 77 405 L 36 405 L 36 459 L 82 459 C 88 501 97 539 111 574 C 124 608 141 638 161 663 C 181 688 204 707 231 721 C 257 735 287 742 319 742 C 371 742 412 730 444 708 C 475 685 499 658 515 627 L 458 595 C 444 621 426 641 404 657 C 382 672 354 680 320 680 C 277 680 241 660 211 621 C 181 582 161 528 152 459 L 465 459 L 465 405 L 147 405 C 146 398 146 391 146 383 C 146 375 146 368 146 361 C 146 353 146 346 146 339 C 146 331 146 324 147 318 L 465 318 L 465 265 L 153 265 C 163 194 185 140 217 104 C 249 67 284 49 322 49 C 356 49 385 59 410 79 C 434 99 454 124 469 152 L 524 117 Z" unicode="€" />
<glyph horiz-adv-x="858" d="M 800 310 L 734 310 L 734 620 L 590 415 L 579 415 L 436 619 L 436 310 L 372 310 L 372 730 L 424 730 L 586 503 L 749 730 L 800 730 L 800 310 Z M 343 656 L 219 656 L 219 310 L 143 310 L 143 656 L 23 656 L 23 730 L 343 730 L 343 656 Z" unicode="™" />
<glyph horiz-adv-x="733" d="M 45 0 L 45 69 L 263 69 L 263 146 C 229 158 198 174 170 194 C 142 214 118 236 98 262 C 78 288 63 316 52 347 C 41 378 36 410 36 443 C 36 485 43 524 59 561 C 74 598 96 630 124 657 C 152 684 187 705 227 721 C 267 737 313 745 363 745 C 415 745 461 737 503 721 C 544 705 579 683 608 656 C 636 629 658 597 674 560 C 689 523 697 484 697 442 C 697 376 677 316 637 262 C 597 208 541 170 469 146 L 469 69 L 687 69 L 687 0 L 414 0 L 414 186 C 445 196 473 211 499 229 C 524 247 545 267 562 289 C 579 311 592 335 602 361 C 611 387 616 413 616 439 C 616 474 609 507 597 537 C 584 567 567 592 545 614 C 523 636 496 653 465 665 C 433 677 399 683 363 683 C 327 683 293 676 263 664 C 233 652 207 635 185 614 C 163 592 147 566 135 536 C 123 506 117 473 117 437 C 117 386 134 337 169 291 C 204 244 254 209 318 186 L 318 0 L 45 0 Z" unicode="Ω" />
<glyph horiz-adv-x="545" d="M 504 284 C 504 234 498 190 486 154 C 474 117 457 86 436 62 C 414 38 389 20 361 8 C 332 -3 301 -9 269 -9 C 239 -9 210 -3 182 7 C 154 18 129 34 108 54 C 87 74 70 99 57 129 C 44 159 38 192 38 230 C 38 264 43 296 55 326 C 66 356 82 383 102 405 C 122 427 145 445 172 458 C 199 471 228 478 260 478 C 303 478 340 467 371 446 C 402 424 425 397 439 364 C 432 434 418 493 398 543 C 378 592 354 632 328 663 C 301 693 273 716 243 730 C 213 744 184 752 158 753 L 193 802 C 221 802 253 792 289 774 C 325 755 358 725 390 684 C 422 643 449 590 471 524 C 493 458 504 378 504 284 Z M 269 46 C 316 46 354 63 383 99 C 412 135 427 182 427 241 C 427 291 413 334 385 369 C 357 403 318 421 268 421 C 223 421 186 403 157 368 C 128 333 114 288 114 234 C 114 174 128 128 158 95 C 187 62 224 46 269 46 Z" unicode="∂" />
<glyph horiz-adv-x="614" d="M 612 0 L 2 0 L 286 731 L 331 731 L 612 0 Z M 508 61 L 304 611 L 102 61 L 508 61 Z" unicode="∆" />
<glyph horiz-adv-x="678" d="M 209 663 L 209 0 L 132 0 L 132 663 L 15 663 L 15 730 L 663 730 L 663 663 L 550 663 L 550 0 L 473 0 L 473 663 L 209 663 Z" unicode="∏" />
<glyph horiz-adv-x="585" d="M 151 661 L 395 307 L 119 -110 L 545 -110 L 545 -179 L -9 -179 L 315 306 L 21 730 L 524 730 L 524 661 L 151 661 Z" unicode="∑" />
<glyph horiz-adv-x="500" d="M 459 300 L 42 300 L 42 364 L 459 364 L 459 300 Z" unicode="−" />
<glyph horiz-adv-x="510" d="M 498 730 L 198 0 L 186 0 L 15 326 L 69 364 L 201 103 L 450 730 L 498 730 Z" unicode="√" />
<glyph horiz-adv-x="331" d="M 110 -39 L 170 633 C 172 667 185 693 208 711 C 231 729 255 739 279 739 C 291 739 303 738 314 737 C 325 736 332 735 335 735 L 329 670 C 327 670 323 671 317 672 C 311 672 305 673 299 673 C 280 673 264 666 252 654 C 240 641 232 621 230 595 L 173 -65 C 170 -97 157 -124 134 -146 C 111 -168 83 -179 51 -179 C 34 -179 18 -177 4 -174 C -10 -170 -21 -167 -29 -163 L -21 -110 C -17 -111 -10 -113 0 -115 C 9 -117 18 -119 27 -119 C 47 -119 66 -112 82 -98 C 98 -84 107 -64 110 -39 Z" unicode="∫" />
<glyph horiz-adv-x="492" d="M 398 493 L 452 493 C 451 444 443 406 427 378 C 411 350 386 337 353 337 C 330 337 310 342 293 353 C 275 363 260 375 247 388 C 233 401 219 413 205 423 C 191 433 177 438 161 438 C 146 438 131 429 116 412 C 101 394 94 370 94 340 L 40 340 C 40 388 50 425 70 453 C 90 481 117 495 149 495 C 171 495 192 489 210 477 C 228 465 245 452 259 438 C 271 426 284 416 297 406 C 310 396 324 391 340 391 C 360 391 375 399 384 415 C 393 431 398 457 398 493 Z M 398 322 L 452 322 C 451 273 443 235 427 207 C 411 179 386 165 353 165 C 330 165 310 170 293 181 C 275 191 260 203 247 216 C 233 230 219 241 205 251 C 191 261 177 266 162 266 C 146 266 131 257 116 240 C 101 223 94 199 94 168 L 40 168 C 40 216 50 254 70 282 C 90 310 117 324 149 324 C 171 324 192 317 210 305 C 228 293 244 280 258 266 C 270 254 283 243 297 233 C 310 223 324 219 340 219 C 360 219 375 227 384 243 C 393 259 398 286 398 322 Z" unicode="≈" />
<glyph horiz-adv-x="492" d="M 450 183 L 216 183 L 166 75 L 123 93 L 165 183 L 63 183 L 63 246 L 194 246 L 263 393 L 63 393 L 63 455 L 292 455 L 340 559 L 383 541 L 343 455 L 450 455 L 450 393 L 314 393 L 246 246 L 450 246 L 450 183 Z" unicode="≠" />
<glyph horiz-adv-x="492" d="M 59 300 L 59 350 L 429 552 L 429 488 L 131 327 L 429 165 L 429 101 L 59 300 Z M 58 79 L 429 79 L 429 27 L 58 27 L 58 79 Z" unicode="≤" />
<glyph horiz-adv-x="492" d="M 428 300 L 58 101 L 58 165 L 356 327 L 58 488 L 58 552 L 428 350 L 428 300 Z M 429 79 L 429 27 L 58 27 L 58 79 L 429 79 Z" unicode="≥" />
<glyph horiz-adv-x="526" d="M 495 326 L 268 -9 L 258 -9 L 31 326 L 31 337 L 258 671 L 268 671 L 495 337 L 495 326 Z M 425 327 L 425 336 L 268 573 L 259 573 L 101 336 L 101 327 L 259 89 L 268 89 L 425 327 Z" unicode="◊" />
<glyph horiz-adv-x="730" d="M 448 688 L 282 688 L 282 730 L 448 730 L 448 688 Z M 659 282 L 615 282 L 615 448 L 659 448 L 659 282 Z M 115 282 L 71 282 L 71 448 L 115 448 L 115 282 Z M 418 312 L 312 312 L 312 418 L 418 418 L 418 312 Z M 448 0 L 282 0 L 282 43 L 448 43 L 448 0 Z" unicode="" />
<glyph horiz-adv-x="575" d="M 332 464 L 186 464 L 186 0 L 112 0 L 112 464 L 18 464 L 18 525 L 112 525 L 112 614 C 112 645 117 672 127 696 C 137 720 149 739 165 755 C 181 771 199 782 219 790 C 239 798 258 802 278 802 C 294 802 310 800 327 797 C 343 793 355 789 363 785 L 342 722 C 336 724 328 727 317 730 C 305 733 294 735 284 735 C 273 735 262 732 250 728 C 238 723 228 716 218 706 C 208 696 200 684 194 669 C 188 654 185 636 185 616 L 185 525 L 332 525 L 332 464 Z M 500 646 L 420 646 L 420 720 L 500 720 L 500 646 Z M 498 0 L 423 0 L 423 525 L 498 525 L 498 0 Z" unicode="ﬁ" />
<glyph horiz-adv-x="592" d="M 332 468 L 185 468 L 185 0 L 111 0 L 111 468 L 15 468 L 15 533 L 111 533 L 111 614 C 111 645 116 672 126 696 C 136 720 148 739 164 755 C 180 771 198 782 218 790 C 238 798 257 802 277 802 C 293 802 309 800 326 797 C 342 793 354 789 362 785 L 341 722 C 335 724 327 727 316 730 C 304 733 293 735 283 735 C 272 735 261 732 249 728 C 237 723 227 716 217 706 C 207 696 199 684 193 669 C 187 654 184 636 184 616 L 184 533 L 332 533 L 332 468 Z M 408 105 L 408 800 L 482 800 L 482 125 C 482 104 487 88 497 78 C 507 67 522 62 540 62 C 546 62 553 62 561 63 C 569 64 575 65 580 67 L 585 4 C 579 1 570 -1 558 -3 C 546 -5 535 -6 523 -6 C 492 -6 465 3 442 21 C 419 39 408 67 408 105 Z" unicode="ﬂ" />
</font>
</defs>
</svg>
