<?xml version="1.0" encoding="utf-8" ?><svg version="1.1" xmlns = 'http://www.w3.org/2000/svg'><defs><font id='web' horiz-adv-x="1000">
<font-face font-family="web" descent="-200" cap-height="730" units-per-em="1000" bbox="-165,-319,946,1034" x-height="488" ascent="800" />
<missing-glyph horiz-adv-x="500" d="" /><glyph horiz-adv-x="178" d="" unicode=" " />
<glyph horiz-adv-x="257" d="M 179 426 L 148 201 L 108 201 L 77 426 L 77 730 L 179 730 L 179 426 Z M 175 0 L 82 0 L 82 105 L 175 105 L 175 0 Z" unicode="!" />
<glyph horiz-adv-x="334" d="M 287 624 L 281 487 L 209 487 L 204 623 L 204 730 L 287 730 L 287 624 Z M 130 623 L 125 487 L 52 487 L 47 623 L 47 730 L 130 730 L 130 623 Z" unicode="&#x22;" />
<glyph horiz-adv-x="543" d="M 496 219 L 385 219 L 366 0 L 307 1 L 326 219 L 191 219 L 172 0 L 113 1 L 132 219 L 29 219 L 29 300 L 139 300 L 150 427 L 47 427 L 47 508 L 158 508 L 177 730 L 236 729 L 217 508 L 352 508 L 371 730 L 430 729 L 411 508 L 514 508 L 514 427 L 403 427 L 392 300 L 496 300 L 496 219 Z M 198 300 L 333 300 L 344 427 L 209 427 L 198 300 Z" unicode="#" />
<glyph horiz-adv-x="455" d="M 421 186 C 421 158 416 134 408 112 C 399 90 387 72 373 56 C 358 40 341 28 321 18 C 301 8 280 2 258 0 L 258 -129 L 201 -129 L 201 -1 C 165 1 132 9 102 23 C 72 37 46 58 23 87 L 67 152 C 83 128 104 110 128 98 C 152 86 177 79 201 77 L 201 343 C 151 371 112 400 85 431 C 57 462 44 505 44 559 C 44 607 58 646 88 677 C 118 707 155 725 201 730 L 201 792 L 258 792 L 258 731 C 290 728 318 721 342 709 C 366 697 387 681 405 663 L 357 602 C 343 616 327 628 310 636 C 293 644 276 649 258 652 L 258 408 L 263 405 C 321 373 362 341 386 309 C 409 277 421 236 421 186 Z M 132 552 C 132 528 137 508 147 492 C 156 476 174 459 201 441 L 201 648 C 181 642 165 630 152 614 C 138 597 132 576 132 552 Z M 334 190 C 334 214 328 236 317 254 C 305 272 286 290 258 309 L 258 84 C 278 90 296 102 311 120 C 326 137 334 160 334 190 Z" unicode="$" />
<glyph horiz-adv-x="678" d="M 168 363 C 152 363 136 366 120 374 C 104 382 89 393 77 409 C 64 425 54 444 46 468 C 38 492 35 519 35 551 C 35 604 47 649 72 685 C 97 721 129 740 167 740 C 187 740 206 735 223 725 C 240 715 254 701 266 685 C 278 668 287 648 294 626 C 300 603 304 579 304 554 C 304 527 300 502 293 479 C 286 455 277 435 265 418 C 253 400 238 387 222 377 C 205 367 187 363 168 363 Z M 156 0 L 85 0 L 503 730 L 572 730 L 156 0 Z M 168 434 C 192 434 208 446 216 471 C 224 495 229 522 229 551 C 229 565 228 579 226 593 C 224 607 220 620 216 631 C 212 642 206 651 198 658 C 190 665 181 669 170 669 C 147 669 131 656 123 632 C 114 607 110 580 110 551 C 110 522 114 495 122 471 C 130 446 145 434 168 434 Z M 505 -3 C 488 -3 471 0 455 8 C 439 16 424 27 412 43 C 399 59 389 78 381 102 C 373 126 369 153 369 185 C 369 238 381 283 407 319 C 433 355 466 374 507 374 C 527 374 546 369 563 359 C 580 349 594 335 606 319 C 617 302 626 282 632 260 C 638 237 642 213 642 188 C 642 161 638 136 632 113 C 625 89 616 69 604 52 C 592 34 577 21 561 11 C 544 1 525 -3 505 -3 Z M 504 69 C 528 69 544 81 553 105 C 561 129 566 155 566 185 C 566 199 565 214 563 228 C 561 242 557 255 552 266 C 547 277 541 286 533 293 C 525 300 516 304 506 304 C 485 304 470 291 460 267 C 450 243 445 215 445 185 C 445 155 449 129 458 105 C 467 81 482 69 504 69 Z" unicode="%" />
<glyph horiz-adv-x="629" d="M 558 -6 L 485 74 C 453 47 418 27 381 13 C 343 -1 302 -8 256 -8 C 186 -8 131 8 90 42 C 48 75 28 122 28 182 C 28 241 43 287 73 319 C 103 351 139 379 183 404 L 172 416 C 156 433 139 456 123 484 C 106 512 98 545 98 583 C 98 603 101 622 109 641 C 116 659 127 676 141 690 C 155 704 172 715 193 724 C 213 732 237 737 265 737 C 317 737 360 722 392 694 C 424 666 441 632 441 592 C 441 550 429 514 406 483 C 382 452 350 422 310 394 L 487 204 C 496 216 505 230 515 244 C 524 258 533 273 543 290 L 614 240 C 603 221 592 203 581 187 C 569 170 558 154 547 140 L 624 57 L 558 -6 Z M 241 468 L 259 448 C 291 468 315 488 330 508 C 344 527 352 547 352 568 C 352 590 345 610 331 628 C 317 646 296 655 270 655 C 244 655 224 645 211 627 C 197 609 191 590 191 570 C 191 552 195 535 203 518 C 211 501 224 484 241 468 Z M 128 192 C 128 156 142 128 171 107 C 199 85 233 75 271 75 C 301 75 329 80 355 90 C 381 100 405 116 428 137 L 235 347 C 204 327 178 305 158 281 C 138 257 128 228 128 192 Z" unicode="&#x26;" />
<glyph horiz-adv-x="180" d="M 133 621 L 129 483 L 51 483 L 46 621 L 46 730 L 133 730 L 133 621 Z" unicode="'" />
<glyph horiz-adv-x="292" d="M 271 -106 L 271 -179 C 239 -163 208 -140 178 -111 C 148 -82 121 -48 98 -8 C 74 31 56 76 42 127 C 28 178 21 233 21 293 C 21 348 27 400 40 448 C 52 496 70 540 92 579 C 114 618 140 652 171 681 C 201 709 235 732 271 749 L 271 678 C 220 645 181 595 155 529 C 128 463 114 384 114 293 C 114 207 126 129 151 59 C 175 -11 215 -66 271 -106 Z" unicode="(" />
<glyph horiz-adv-x="292" d="M 21 678 L 21 749 C 55 734 87 713 118 685 C 148 657 175 623 197 584 C 219 544 237 499 251 449 C 264 398 271 343 271 284 C 271 228 264 176 251 127 C 237 78 219 34 197 -4 C 174 -43 147 -78 117 -108 C 87 -138 55 -161 21 -179 L 21 -104 C 75 -66 114 -12 140 55 C 165 123 178 200 178 284 C 178 377 166 457 140 525 C 114 593 74 644 21 678 Z" unicode=")" />
<glyph horiz-adv-x="380" d="M 357 587 L 228 555 L 318 462 L 263 418 L 192 529 L 122 419 L 63 461 L 155 556 L 29 587 L 61 658 L 169 599 L 155 730 L 228 730 L 214 599 L 328 651 L 357 587 Z" unicode="*" />
<glyph horiz-adv-x="472" d="M 448 295 L 274 295 L 274 125 L 199 125 L 199 295 L 25 295 L 25 368 L 199 368 L 199 537 L 274 537 L 274 368 L 448 368 L 448 295 Z" unicode="+" />
<glyph horiz-adv-x="206" d="M 173 103 C 172 81 169 57 163 33 C 157 9 149 -14 140 -36 C 131 -58 121 -79 110 -98 C 99 -117 88 -133 78 -145 L 7 -113 C 14 -103 21 -90 29 -74 C 37 -58 44 -41 51 -22 C 57 -2 63 17 68 39 C 72 61 75 82 76 103 L 173 103 Z" unicode="," />
<glyph horiz-adv-x="313" d="M 279 224 L 35 224 L 35 308 L 279 308 L 279 224 Z" unicode="-" />
<glyph horiz-adv-x="208" d="M 151 0 L 57 0 L 57 125 L 151 125 L 151 0 Z" unicode="." />
<glyph horiz-adv-x="306" d="M 303 730 L 89 0 L 3 0 L 219 730 L 303 730 Z" unicode="/" />
<glyph horiz-adv-x="440" d="M 217 -7 C 190 -7 165 0 142 11 C 119 23 99 44 83 73 C 66 101 53 139 43 187 C 33 234 29 292 29 361 C 29 477 44 569 75 637 C 106 704 155 738 221 738 C 255 738 284 729 308 712 C 332 695 352 671 367 640 C 382 608 393 570 400 524 C 407 478 411 428 411 372 C 411 247 394 153 362 89 C 329 25 281 -7 217 -7 Z M 218 72 C 252 72 278 94 294 140 C 310 185 319 259 319 363 C 319 462 312 536 298 584 C 284 632 258 657 220 657 C 183 657 157 633 143 587 C 128 541 121 466 121 364 C 121 254 129 178 146 136 C 163 93 187 72 218 72 Z" unicode="0" />
<glyph horiz-adv-x="294" d="M 233 0 L 138 0 L 138 592 C 127 571 111 552 89 534 C 67 516 46 506 27 504 L 27 605 C 37 606 48 611 61 619 C 73 627 85 638 97 650 C 109 662 119 675 129 690 C 139 704 146 719 151 733 L 233 733 L 233 0 Z" unicode="1" />
<glyph horiz-adv-x="426" d="M 396 0 L 21 0 L 21 25 L 236 350 C 255 379 271 410 283 443 C 295 476 302 512 302 551 C 302 585 293 610 276 628 C 259 646 236 655 207 655 C 172 655 147 642 132 618 C 117 593 110 560 110 520 L 27 520 C 27 594 43 649 76 684 C 108 719 152 737 207 737 C 259 737 303 722 338 692 C 372 662 390 618 390 560 C 390 504 383 458 370 423 C 356 388 340 356 322 328 L 161 85 L 396 85 L 396 0 Z" unicode="2" />
<glyph horiz-adv-x="424" d="M 189 -7 C 141 -7 101 0 71 15 C 41 29 17 46 1 65 L 43 133 C 56 117 74 103 96 91 C 118 78 145 72 179 72 C 223 72 257 87 280 117 C 302 147 314 183 314 225 C 314 248 310 268 303 285 C 295 302 286 316 274 327 C 262 337 248 345 233 351 C 217 356 202 359 186 359 L 111 359 L 111 439 L 185 439 C 215 439 240 449 261 469 C 282 489 293 517 293 554 C 293 584 284 608 268 628 C 251 647 227 657 195 657 C 167 657 142 651 122 639 C 101 627 83 610 69 590 L 14 645 C 30 669 54 691 86 710 C 117 728 157 738 206 738 C 258 738 300 723 331 694 C 362 664 378 624 378 572 C 378 524 366 485 342 457 C 318 428 293 410 267 403 C 283 399 299 393 315 383 C 331 373 345 361 358 346 C 370 331 381 313 389 292 C 397 271 401 247 401 221 C 401 193 397 166 389 139 C 381 111 369 87 353 65 C 336 43 314 26 287 13 C 259 0 227 -7 189 -7 Z" unicode="3" />
<glyph horiz-adv-x="417" d="M 415 190 L 344 190 L 344 0 L 264 0 L 264 190 L 3 190 L 2 252 L 286 738 L 344 738 L 344 270 L 415 270 L 415 190 Z M 264 265 L 264 560 L 95 265 L 264 265 Z" unicode="4" />
<glyph horiz-adv-x="412" d="M 202 -7 C 160 -7 121 0 85 16 C 49 32 21 52 3 76 L 55 142 C 68 123 86 107 109 93 C 132 79 158 72 188 72 C 224 72 253 87 274 118 C 295 148 306 190 306 244 C 306 292 296 329 277 355 C 258 381 234 394 204 394 C 170 394 146 387 130 373 C 114 359 102 341 94 320 L 31 337 L 58 730 L 363 730 L 362 645 L 127 645 L 110 413 C 118 426 131 439 149 453 C 167 467 194 474 232 474 C 280 474 319 456 350 420 C 381 384 397 328 397 253 C 397 209 391 170 381 138 C 370 105 356 78 338 57 C 320 35 300 19 276 9 C 252 -1 228 -7 202 -7 Z" unicode="5" />
<glyph horiz-adv-x="417" d="M 218 -9 C 191 -9 166 -4 142 5 C 118 15 98 29 81 48 C 63 67 49 91 39 120 C 29 148 24 181 24 219 C 24 292 39 363 69 432 C 99 501 142 574 198 652 L 266 745 L 334 701 L 292 644 C 246 580 207 522 177 471 C 147 419 128 379 121 351 C 131 373 146 391 166 405 C 186 419 211 427 240 427 C 286 427 325 407 355 367 C 385 327 400 276 400 212 C 400 180 395 150 386 123 C 377 96 365 73 349 53 C 333 33 313 18 291 7 C 269 -3 244 -9 218 -9 Z M 216 71 C 245 71 268 83 286 107 C 303 131 312 165 312 209 C 312 256 303 291 286 314 C 268 336 245 348 217 348 C 188 348 164 336 145 314 C 125 291 116 258 116 214 C 116 164 125 128 145 105 C 165 82 188 71 216 71 Z" unicode="6" />
<glyph horiz-adv-x="354" d="M 359 730 L 359 686 L 105 -4 L 23 26 L 258 645 L 9 645 L 9 730 L 359 730 Z" unicode="7" />
<glyph horiz-adv-x="430" d="M 291 391 C 305 387 319 381 333 372 C 347 363 361 351 373 336 C 385 321 394 303 402 281 C 410 259 414 233 414 205 C 414 139 396 87 360 49 C 324 11 276 -7 215 -7 C 154 -7 106 11 70 48 C 34 85 17 135 17 198 C 17 228 21 255 29 278 C 37 301 48 321 60 337 C 72 353 86 365 100 374 C 114 383 128 389 140 392 C 115 398 91 415 69 441 C 47 467 36 506 36 558 C 36 586 40 611 50 633 C 59 655 72 674 88 690 C 104 705 123 717 145 725 C 167 733 190 737 215 737 C 268 737 311 721 344 689 C 377 657 394 616 394 566 C 394 540 390 517 384 497 C 378 477 370 460 360 446 C 350 432 339 420 327 411 C 315 402 303 395 291 391 Z M 216 422 C 242 422 265 431 284 451 C 302 470 312 500 312 541 C 312 578 302 607 284 628 C 265 648 242 659 216 659 C 188 659 164 649 145 629 C 126 609 117 580 117 542 C 117 519 120 500 126 485 C 132 469 139 457 149 448 C 159 438 169 432 181 428 C 193 424 204 422 216 422 Z M 217 71 C 248 71 273 82 293 105 C 312 127 322 163 322 212 C 322 257 311 290 289 312 C 267 334 243 345 217 345 C 187 345 161 334 140 312 C 118 290 108 256 108 208 C 108 163 119 129 141 106 C 163 82 188 71 217 71 Z" unicode="8" />
<glyph horiz-adv-x="417" d="M 166 -12 L 98 35 L 128 76 C 145 99 163 125 183 155 C 202 184 220 213 237 242 C 253 271 268 299 281 326 C 293 352 302 374 307 392 C 295 369 276 349 251 333 C 226 316 200 308 172 308 C 126 308 88 328 59 369 C 30 409 16 461 16 523 C 16 587 34 638 70 678 C 106 717 150 737 204 737 C 229 737 253 732 276 723 C 299 713 319 699 336 681 C 353 662 367 638 377 610 C 387 581 393 547 393 508 C 393 466 387 424 377 382 C 367 340 353 301 337 263 C 320 225 301 190 281 156 C 261 122 241 91 221 64 L 166 -12 Z M 199 387 C 211 387 223 389 235 394 C 247 399 257 407 267 417 C 277 427 285 441 291 457 C 297 473 301 493 301 517 C 301 567 291 602 272 624 C 252 645 229 656 202 656 C 171 656 147 644 130 622 C 113 599 105 566 105 524 C 105 477 113 442 129 420 C 145 398 169 387 199 387 Z" unicode="9" />
<glyph horiz-adv-x="206" d="M 150 368 L 56 368 L 56 488 L 150 488 L 150 368 Z M 150 0 L 56 0 L 56 121 L 150 121 L 150 0 Z" unicode=":" />
<glyph horiz-adv-x="206" d="M 157 368 L 63 368 L 63 488 L 157 488 L 157 368 Z M 159 99 C 158 75 155 52 149 28 C 143 4 136 -18 128 -40 C 120 -62 110 -82 100 -100 C 89 -118 78 -133 68 -145 L -3 -113 C 11 -93 27 -64 43 -24 C 59 16 67 57 67 99 L 159 99 Z" unicode=";" />
<glyph horiz-adv-x="362" d="M 320 102 L 31 294 L 31 356 L 320 545 L 320 459 L 119 325 L 320 191 L 320 102 Z" unicode="&#x3C;" />
<glyph horiz-adv-x="483" d="M 430 388 L 55 388 L 55 468 L 430 468 L 430 388 Z M 430 175 L 55 175 L 55 255 L 430 255 L 430 175 Z" unicode="=" />
<glyph horiz-adv-x="362" d="M 328 294 L 40 102 L 40 190 L 237 325 L 40 459 L 40 545 L 328 356 L 328 294 Z" unicode="&#x3E;" />
<glyph horiz-adv-x="427" d="M 154 204 C 154 245 159 280 170 309 C 180 337 197 365 220 393 C 238 414 256 438 274 464 C 292 490 301 521 301 557 C 301 588 291 613 272 631 C 252 649 228 658 200 658 C 173 658 150 651 130 637 C 110 623 93 605 79 585 L 23 640 C 47 674 76 699 110 716 C 144 733 179 742 217 742 C 275 742 319 726 351 695 C 383 664 399 622 399 568 C 399 543 395 520 389 500 C 382 479 373 460 363 442 C 353 424 341 408 329 393 C 316 377 303 362 291 348 C 272 328 259 305 253 278 C 247 251 243 226 243 204 L 154 204 Z M 150 0 L 150 113 L 251 113 L 251 0 L 150 0 Z" unicode="?" />
<glyph horiz-adv-x="814" d="M 404 -41 C 349 -41 299 -31 253 -11 C 207 9 168 36 136 70 C 104 104 79 144 61 190 C 43 236 34 285 34 337 C 34 389 43 438 62 484 C 80 530 106 571 139 605 C 171 639 211 665 257 685 C 303 705 353 715 408 715 C 464 715 515 706 561 689 C 607 672 647 648 679 618 C 711 588 736 551 754 508 C 772 465 781 418 781 368 C 781 324 776 287 766 256 C 756 225 743 200 727 180 C 711 160 694 146 675 137 C 655 128 636 124 618 124 C 588 124 564 131 546 145 C 528 159 517 177 513 199 C 504 183 486 166 458 149 C 430 132 398 124 360 124 C 312 124 275 135 249 159 C 223 183 211 215 211 255 C 211 277 216 298 226 316 C 236 334 249 348 267 360 C 284 372 304 381 328 387 C 352 393 377 397 405 397 L 498 397 L 498 410 C 498 442 489 465 471 478 C 453 490 430 497 402 497 C 377 497 354 494 333 488 C 312 482 294 476 280 471 L 255 531 C 274 540 297 548 323 554 C 349 560 376 563 404 563 C 459 563 501 549 529 522 C 557 495 572 452 572 394 L 572 243 C 572 228 576 215 584 204 C 592 192 606 187 625 187 C 635 187 645 189 656 194 C 667 199 677 208 686 221 C 695 234 702 252 708 275 C 714 298 717 328 717 364 C 717 406 709 444 695 480 C 681 516 660 546 634 572 C 607 598 574 618 536 632 C 498 646 455 654 408 654 C 362 654 321 645 283 629 C 245 612 212 589 185 561 C 158 533 137 499 122 461 C 106 422 99 381 99 337 C 99 293 106 252 121 214 C 136 175 157 141 184 113 C 211 84 243 61 281 44 C 319 27 360 19 406 19 C 426 19 446 20 466 24 C 486 28 508 35 532 47 L 556 -7 C 528 -19 502 -28 478 -33 C 453 -38 428 -41 404 -41 Z M 379 190 C 406 190 432 196 456 209 C 480 221 494 234 499 247 L 499 338 L 407 338 C 369 338 340 331 321 318 C 302 304 293 286 293 262 C 293 239 300 221 315 209 C 330 196 351 190 379 190 Z" unicode="@" />
<glyph horiz-adv-x="479" d="M 478 0 L 383 0 L 334 177 L 139 177 L 94 0 L 1 0 L 205 734 L 274 734 L 478 0 Z M 320 255 L 237 555 L 155 255 L 320 255 Z" unicode="A" />
<glyph horiz-adv-x="452" d="M 59 0 L 59 730 L 234 730 C 283 730 324 714 357 684 C 390 653 407 611 407 557 C 407 505 394 464 370 435 C 346 406 318 389 288 383 C 304 381 321 377 338 369 C 355 361 370 349 384 335 C 398 320 409 302 418 281 C 427 259 432 234 432 206 C 432 144 415 95 381 57 C 347 19 303 0 250 0 L 59 0 Z M 155 413 L 214 413 C 249 413 274 425 290 451 C 305 477 313 505 313 537 C 313 571 304 597 287 617 C 270 637 244 647 208 647 L 155 647 L 155 413 Z M 155 84 L 229 84 C 266 84 293 96 310 120 C 327 144 336 174 336 210 C 336 252 325 282 303 302 C 281 322 252 332 217 332 L 155 332 L 155 84 Z" unicode="B" />
<glyph horiz-adv-x="505" d="M 277 -7 C 241 -7 209 0 179 16 C 149 31 123 54 102 85 C 80 115 64 154 52 201 C 40 248 34 303 34 366 C 34 483 55 574 97 639 C 139 704 199 737 278 737 C 339 737 384 722 414 693 C 444 663 465 628 478 586 L 390 554 C 380 580 366 602 350 620 C 334 638 310 648 279 648 C 233 648 198 626 172 583 C 146 539 134 466 134 362 C 134 309 138 265 147 229 C 155 193 167 164 181 142 C 195 120 211 104 229 95 C 247 85 266 81 285 81 C 319 81 345 90 363 109 C 381 127 395 152 406 183 L 487 148 C 470 100 445 62 411 34 C 377 6 332 -7 277 -7 Z" unicode="C" />
<glyph horiz-adv-x="538" d="M 59 0 L 59 730 L 221 730 C 267 730 307 721 343 704 C 378 686 408 662 432 630 C 456 598 474 560 486 515 C 498 469 505 419 505 364 C 505 313 499 265 487 221 C 475 176 457 137 433 105 C 409 73 378 47 342 28 C 305 9 262 0 213 0 L 59 0 Z M 158 85 L 215 85 C 283 85 331 110 360 160 C 389 210 404 278 404 362 C 404 458 388 529 356 575 C 324 621 279 644 223 644 L 158 644 L 158 85 Z" unicode="D" />
<glyph horiz-adv-x="393" d="M 382 0 L 59 0 L 59 730 L 364 730 L 364 641 L 157 641 L 157 409 L 356 409 L 356 321 L 157 321 L 157 89 L 382 89 L 382 0 Z" unicode="E" />
<glyph horiz-adv-x="355" d="M 348 641 L 160 641 L 160 410 L 337 410 L 337 323 L 160 323 L 160 0 L 60 0 L 60 730 L 348 730 L 348 641 Z" unicode="F" />
<glyph horiz-adv-x="533" d="M 278 363 L 502 363 L 502 117 C 483 80 455 50 419 27 C 382 4 336 -7 280 -7 C 246 -7 215 1 185 18 C 155 34 128 58 106 90 C 84 121 66 160 53 207 C 40 253 34 306 34 365 C 34 421 39 473 51 519 C 63 565 79 604 101 636 C 123 668 149 693 180 711 C 210 728 244 737 282 737 C 339 737 383 723 414 697 C 445 670 468 639 483 603 L 400 560 C 389 584 375 605 357 622 C 339 639 314 648 284 648 C 239 648 203 625 175 579 C 147 533 134 460 134 362 C 134 263 148 191 177 145 C 206 99 241 76 283 76 C 314 76 340 81 362 92 C 383 102 400 119 412 141 L 412 279 L 278 279 L 278 363 Z" unicode="G" />
<glyph horiz-adv-x="535" d="M 475 0 L 375 0 L 375 317 L 159 317 L 159 0 L 59 0 L 59 730 L 159 730 L 159 405 L 375 405 L 375 730 L 475 730 L 475 0 Z" unicode="H" />
<glyph horiz-adv-x="227" d="M 164 0 L 63 0 L 63 730 L 164 730 L 164 0 Z" unicode="I" />
<glyph horiz-adv-x="287" d="M 231 730 L 231 182 C 231 127 216 82 187 46 C 157 10 117 -8 66 -8 C 54 -8 40 -7 26 -5 C 12 -3 1 0 -6 5 L 4 92 C 8 89 15 87 24 85 C 32 83 41 83 50 83 C 76 83 96 94 110 118 C 124 141 131 169 131 202 L 131 730 L 231 730 Z" unicode="J" />
<glyph horiz-adv-x="493" d="M 503 0 L 393 0 L 192 323 L 160 282 L 160 0 L 59 0 L 59 730 L 160 730 L 160 405 L 379 730 L 484 730 L 257 399 L 503 0 Z" unicode="K" />
<glyph horiz-adv-x="359" d="M 352 0 L 59 0 L 59 730 L 159 730 L 159 89 L 352 89 L 352 0 Z" unicode="L" />
<glyph horiz-adv-x="644" d="M 585 0 L 490 0 L 490 513 L 346 164 L 301 164 L 153 513 L 153 0 L 59 0 L 59 730 L 148 730 L 324 314 L 502 730 L 585 730 L 585 0 Z" unicode="M" />
<glyph horiz-adv-x="534" d="M 475 0 L 404 0 L 153 496 L 153 0 L 59 0 L 59 730 L 130 730 L 384 232 L 384 730 L 475 730 L 475 0 Z" unicode="N" />
<glyph horiz-adv-x="570" d="M 287 -7 C 207 -7 144 25 100 90 C 56 154 34 248 34 371 C 34 485 56 575 101 640 C 146 704 206 737 282 737 C 363 737 426 705 470 641 C 514 577 536 485 536 365 C 536 248 513 157 467 91 C 421 25 361 -7 287 -7 Z M 286 77 C 332 77 368 100 394 148 C 420 196 434 270 434 372 C 434 466 420 537 393 583 C 366 629 329 653 283 653 C 235 653 199 630 174 584 C 148 538 136 464 136 364 C 136 263 149 190 177 145 C 204 99 240 77 286 77 Z" unicode="O" />
<glyph horiz-adv-x="443" d="M 59 0 L 59 730 L 242 730 C 267 730 291 725 314 716 C 336 706 356 693 373 675 C 389 657 402 636 412 610 C 422 584 427 555 427 523 C 427 456 409 403 374 363 C 338 323 294 304 242 304 L 159 304 L 159 0 L 59 0 Z M 159 388 L 215 388 C 251 388 279 398 299 420 C 319 442 329 476 329 522 C 329 564 317 595 295 615 C 273 635 246 645 215 645 L 159 645 L 159 388 Z" unicode="P" />
<glyph horiz-adv-x="570" d="M 506 -65 L 506 -158 C 464 -150 424 -131 387 -101 C 349 -71 320 -39 298 -5 C 296 -5 294 -5 292 -5 C 290 -5 289 -5 287 -5 C 209 -5 147 27 102 91 C 56 155 34 248 34 371 C 34 485 56 575 102 640 C 147 704 207 737 282 737 C 362 737 425 705 469 641 C 513 577 536 485 536 365 C 536 277 522 203 495 144 C 467 84 431 43 385 19 C 401 -2 421 -20 444 -36 C 467 -52 488 -61 506 -65 Z M 286 72 C 332 72 368 96 395 146 C 421 196 435 270 435 370 C 435 470 420 542 392 587 C 363 632 327 655 283 655 C 235 655 199 632 174 586 C 148 540 136 466 136 364 C 136 264 149 191 176 143 C 203 95 240 72 286 72 Z" unicode="Q" />
<glyph horiz-adv-x="462" d="M 59 0 L 59 730 L 219 730 C 273 730 317 713 353 681 C 388 648 406 598 406 532 C 406 478 394 433 371 397 C 348 361 319 340 283 334 L 281 330 L 462 0 L 358 0 L 191 309 L 151 309 L 151 0 L 59 0 Z M 151 393 L 206 393 C 237 393 262 404 282 426 C 302 448 312 479 312 519 C 312 563 301 595 280 615 C 259 635 234 645 206 645 L 151 645 L 151 393 Z" unicode="R" />
<glyph horiz-adv-x="411" d="M 206 -7 C 167 -7 132 0 101 13 C 70 26 42 49 18 82 L 76 144 C 90 119 109 101 132 89 C 154 77 177 71 200 71 C 225 71 247 80 267 100 C 287 119 297 145 297 178 C 297 212 288 240 272 262 C 256 284 225 310 180 339 C 136 367 101 398 75 431 C 49 463 36 508 36 564 C 36 590 40 614 50 636 C 59 657 72 675 88 690 C 104 705 123 717 145 725 C 166 733 189 737 213 737 C 253 737 286 730 312 717 C 338 703 358 688 373 672 L 318 608 C 306 620 292 630 274 639 C 256 647 236 652 216 652 C 193 652 173 644 155 628 C 137 612 128 588 128 558 C 128 529 136 505 151 486 C 166 466 197 442 243 414 C 295 381 333 347 355 311 C 377 275 388 232 388 182 C 388 151 382 124 372 100 C 362 76 348 57 331 41 C 314 25 295 13 273 5 C 251 -3 228 -7 206 -7 Z" unicode="S" />
<glyph horiz-adv-x="377" d="M 370 641 L 238 641 L 238 0 L 138 0 L 138 641 L 7 641 L 7 730 L 370 730 L 370 641 Z" unicode="T" />
<glyph horiz-adv-x="534" d="M 478 730 L 478 218 C 478 178 472 143 460 115 C 448 86 432 63 412 45 C 392 27 369 13 343 5 C 317 -2 289 -7 261 -7 C 233 -7 207 -3 182 5 C 157 13 135 25 117 43 C 98 61 83 84 72 113 C 61 141 56 176 56 218 L 56 730 L 154 730 L 154 216 C 154 166 164 130 185 110 C 206 89 233 79 265 79 C 295 79 321 88 343 108 C 365 128 376 164 376 216 L 376 730 L 478 730 Z" unicode="U" />
<glyph horiz-adv-x="460" d="M 459 730 L 265 -4 L 191 -4 L 1 730 L 97 730 L 232 188 L 365 730 L 459 730 Z" unicode="V" />
<glyph horiz-adv-x="688" d="M 669 730 L 519 -3 L 451 -3 L 337 532 L 221 -3 L 153 -3 L 4 730 L 98 730 L 197 197 L 304 730 L 378 730 L 484 197 L 584 730 L 669 730 Z" unicode="W" />
<glyph horiz-adv-x="444" d="M 338 0 L 219 273 L 98 0 L 5 0 L 173 379 L 19 730 L 117 730 L 222 490 L 328 730 L 420 730 L 268 385 L 436 0 L 338 0 Z" unicode="X" />
<glyph horiz-adv-x="461" d="M 464 730 L 278 309 L 278 0 L 178 0 L 178 310 L -3 730 L 107 730 L 234 413 L 368 730 L 464 730 Z" unicode="Y" />
<glyph horiz-adv-x="419" d="M 393 730 L 393 679 L 136 87 L 405 87 L 405 0 L 15 0 L 15 49 L 274 641 L 43 641 L 43 730 L 393 730 Z" unicode="Z" />
<glyph horiz-adv-x="223" d="M 203 -179 L 47 -179 L 47 730 L 203 730 L 203 652 L 135 652 L 135 -100 L 203 -100 L 203 -179 Z" unicode="[" />
<glyph horiz-adv-x="306" d="M 3 730 L 86 730 L 303 0 L 218 0 L 3 730 Z" unicode="\" />
<glyph horiz-adv-x="226" d="M 180 -179 L 23 -179 L 23 -102 L 91 -102 L 91 653 L 23 653 L 23 730 L 180 730 L 180 -179 Z" unicode="]" />
<glyph horiz-adv-x="432" d="M 410 369 L 330 369 L 214 636 L 101 369 L 21 369 L 175 730 L 254 730 L 410 369 Z" unicode="^" />
<glyph horiz-adv-x="426" d="M 426 -157 L 0 -157 L 0 -82 L 426 -82 L 426 -157 Z" unicode="_" />
<glyph horiz-adv-x="500" d="M 342 550 L 254 550 L 152 722 L 257 722 L 342 550 Z" unicode="`" />
<glyph horiz-adv-x="373" d="M 333 0 L 254 0 L 254 50 C 239 32 223 19 205 9 C 187 0 165 -5 137 -5 C 103 -5 75 8 53 34 C 30 60 19 98 19 146 C 19 199 34 238 64 262 C 94 286 131 300 173 303 L 247 308 L 247 342 C 247 368 240 387 227 400 C 214 412 195 419 170 419 C 147 419 128 415 112 407 C 96 399 83 391 75 383 L 48 451 C 62 463 81 474 104 483 C 127 492 156 497 192 497 C 232 497 266 485 293 462 C 319 438 333 404 333 359 L 333 0 Z M 249 108 L 249 243 L 192 239 C 169 237 149 228 131 214 C 113 199 105 176 105 146 C 105 118 112 98 126 86 C 140 74 156 68 173 68 C 191 68 207 72 219 80 C 231 88 241 97 249 108 Z" unicode="a" />
<glyph horiz-adv-x="407" d="M 237 -4 C 209 -4 185 3 166 17 C 147 31 133 48 124 69 L 124 0 L 40 0 L 40 795 L 127 795 L 127 400 C 134 423 147 444 166 464 C 185 483 211 493 245 493 C 288 493 322 471 348 427 C 373 383 386 327 386 257 C 386 174 372 110 344 64 C 316 18 280 -4 237 -4 Z M 205 68 C 231 68 251 82 267 112 C 282 141 290 186 290 246 C 290 301 282 342 268 370 C 253 398 232 412 206 412 C 184 412 165 399 149 373 C 133 347 125 301 125 233 C 125 199 127 171 132 149 C 136 127 142 111 150 99 C 157 87 165 78 175 74 C 185 70 195 68 205 68 Z" unicode="b" />
<glyph horiz-adv-x="348" d="M 287 123 L 338 73 C 327 54 311 36 291 20 C 271 3 242 -5 204 -5 C 174 -5 148 1 125 13 C 102 25 83 43 68 65 C 52 87 41 113 33 143 C 25 173 21 207 21 243 C 21 276 24 308 32 339 C 40 369 51 396 67 419 C 82 441 101 459 124 473 C 147 486 174 493 205 493 C 241 493 270 484 292 467 C 314 449 331 431 342 412 L 282 360 C 274 374 264 387 252 398 C 240 408 224 414 205 414 C 177 414 155 398 139 368 C 123 337 116 297 116 247 C 116 187 125 142 144 114 C 163 85 187 71 215 71 C 235 71 250 76 261 88 C 271 100 280 111 287 123 Z" unicode="c" />
<glyph horiz-adv-x="420" d="M 178 -5 C 154 -5 132 1 113 13 C 93 25 77 42 63 64 C 49 86 39 112 32 142 C 24 172 21 204 21 239 C 21 316 36 377 66 423 C 96 468 134 491 180 491 C 210 491 234 481 254 463 C 273 445 286 423 293 399 L 293 795 L 379 795 L 379 0 L 297 0 L 297 71 C 291 53 278 35 260 19 C 241 3 214 -5 178 -5 Z M 207 69 C 233 69 255 83 271 113 C 287 143 295 187 295 247 C 295 305 286 347 268 373 C 250 399 229 412 204 412 C 177 412 156 398 140 370 C 124 342 117 299 117 243 C 117 187 124 144 140 114 C 156 84 178 69 207 69 Z" unicode="d" />
<glyph horiz-adv-x="387" d="M 200 -5 C 146 -5 102 17 70 61 C 37 105 21 165 21 241 C 21 280 25 315 34 347 C 43 378 56 404 72 426 C 88 447 106 463 127 475 C 148 487 171 493 195 493 C 251 493 294 469 323 422 C 352 375 367 308 367 221 L 112 221 C 112 171 120 134 138 108 C 156 82 180 70 211 70 C 236 70 257 76 273 88 C 289 100 302 113 313 128 L 357 79 C 344 60 325 41 300 23 C 275 4 242 -5 200 -5 Z M 113 285 L 279 285 C 278 327 271 360 257 384 C 243 407 224 419 200 419 C 174 419 154 407 139 384 C 124 360 115 327 113 285 Z" unicode="e" />
<glyph horiz-adv-x="218" d="M 213 409 L 152 409 L 152 0 L 61 0 L 61 409 L 13 409 L 13 488 L 61 488 L 61 672 C 61 691 64 708 71 724 C 78 740 87 753 98 764 C 108 774 120 782 134 788 C 148 794 162 797 176 797 C 187 797 199 795 212 792 C 225 789 236 785 244 779 L 219 707 C 217 707 214 709 208 711 C 202 713 196 714 190 714 C 177 714 167 709 161 699 C 154 689 151 673 151 651 L 151 488 L 213 488 L 213 409 Z" unicode="f" />
<glyph horiz-adv-x="418" d="M 181 5 C 134 5 96 26 66 69 C 36 112 22 171 22 245 C 22 323 37 383 68 427 C 99 470 136 492 180 492 C 209 492 233 483 253 466 C 272 448 286 429 295 408 L 295 488 L 377 488 L 377 9 C 377 -26 371 -57 361 -83 C 350 -109 336 -130 319 -147 C 301 -163 281 -176 259 -184 C 236 -192 213 -197 190 -197 C 157 -197 130 -193 109 -187 C 87 -180 71 -173 61 -166 L 88 -97 C 100 -103 113 -107 129 -111 C 144 -115 163 -117 186 -117 C 216 -117 241 -105 261 -83 C 281 -61 291 -29 291 13 L 291 90 C 283 68 270 48 252 31 C 233 13 209 5 181 5 Z M 206 77 C 232 77 254 90 270 118 C 286 146 294 190 294 251 C 294 309 284 351 266 377 C 247 403 226 416 204 416 C 177 416 156 401 140 372 C 124 343 117 302 117 248 C 117 194 124 152 138 122 C 152 92 175 77 206 77 Z" unicode="g" />
<glyph horiz-adv-x="402" d="M 362 0 L 271 0 L 271 343 C 271 367 265 384 253 396 C 241 408 226 414 206 414 C 185 414 167 407 153 395 C 139 382 132 359 132 326 L 132 0 L 40 0 L 40 795 L 126 795 L 126 423 C 132 443 145 460 163 473 C 181 486 206 493 238 493 C 275 493 305 483 328 464 C 350 445 362 414 362 370 L 362 0 Z" unicode="h" />
<glyph horiz-adv-x="177" d="M 41 572 L 41 662 L 136 662 L 136 572 L 41 572 Z M 43 0 L 43 488 L 134 488 L 134 0 L 43 0 Z" unicode="i" />
<glyph horiz-adv-x="178" d="M 138 572 L 44 572 L 44 662 L 138 662 L 138 572 Z M 136 488 L 136 -82 C 136 -110 127 -134 109 -153 C 91 -172 67 -182 37 -182 C 22 -182 8 -179 -5 -175 C -18 -171 -26 -167 -30 -163 L -6 -99 C -3 -99 0 -100 4 -102 C 8 -103 12 -104 18 -104 C 26 -104 32 -101 38 -95 C 43 -89 46 -80 46 -70 L 46 488 L 136 488 Z" unicode="j" />
<glyph horiz-adv-x="371" d="M 379 1 L 283 0 L 179 200 L 131 128 L 131 0 L 40 0 L 40 795 L 126 795 L 126 237 L 276 488 L 369 488 L 239 274 L 379 1 Z" unicode="k" />
<glyph horiz-adv-x="172" d="M 132 800 L 132 0 L 40 0 L 40 800 L 132 800 Z" unicode="l" />
<glyph horiz-adv-x="626" d="M 40 0 L 40 488 L 121 488 L 121 417 C 127 443 141 462 163 475 C 185 487 211 494 241 494 C 272 494 297 486 315 472 C 333 458 345 438 350 414 L 353 414 C 359 438 372 458 392 472 C 412 486 438 494 471 494 C 504 494 531 484 553 466 C 575 447 586 417 586 375 L 586 0 L 496 0 L 496 333 C 496 363 489 385 477 397 C 465 409 449 415 429 415 C 410 415 393 408 379 395 C 365 381 358 356 358 320 L 358 0 L 268 0 L 268 335 C 268 367 261 389 249 399 C 236 409 221 415 204 415 C 186 415 169 408 153 395 C 137 381 130 357 130 321 L 130 0 L 40 0 Z" unicode="m" />
<glyph horiz-adv-x="402" d="M 362 0 L 271 0 L 271 347 C 271 369 265 385 254 397 C 242 408 227 414 207 414 C 186 414 168 407 154 395 C 139 383 132 360 132 326 L 132 0 L 40 0 L 40 488 L 122 488 L 122 419 C 129 441 142 458 162 472 C 182 486 208 493 241 493 C 277 493 306 483 328 465 C 350 447 362 418 362 378 L 362 0 Z" unicode="n" />
<glyph horiz-adv-x="400" d="M 201 -5 C 149 -5 106 16 72 58 C 38 100 21 161 21 243 C 21 319 37 379 69 425 C 101 470 143 493 195 493 C 251 493 295 472 329 430 C 363 388 380 330 380 256 C 380 176 364 113 332 66 C 300 18 256 -5 201 -5 Z M 201 71 C 228 71 249 85 263 113 C 277 141 284 186 284 247 C 284 307 276 350 262 376 C 247 402 226 416 198 416 C 172 416 152 402 138 376 C 123 349 116 306 116 247 C 116 182 123 136 139 110 C 155 84 175 71 201 71 Z" unicode="o" />
<glyph horiz-adv-x="406" d="M 40 -200 L 40 488 L 121 488 L 121 395 C 127 419 140 442 161 462 C 182 482 209 493 242 493 C 289 493 325 471 349 428 C 373 385 386 329 386 261 C 386 177 372 112 344 66 C 316 19 278 -4 232 -4 C 206 -4 183 2 165 14 C 146 26 133 40 127 57 L 127 -200 L 40 -200 Z M 203 67 C 229 67 250 81 266 109 C 282 137 290 181 290 240 C 290 294 283 336 270 367 C 257 397 236 413 206 413 C 184 413 165 400 148 376 C 131 352 123 304 123 233 C 123 166 130 122 146 100 C 161 78 180 67 203 67 Z" unicode="p" />
<glyph horiz-adv-x="420" d="M 293 -200 L 293 80 C 285 57 271 37 251 21 C 231 4 205 -4 174 -4 C 150 -4 129 2 110 14 C 91 26 75 42 62 64 C 49 86 39 112 32 142 C 24 172 21 204 21 240 C 21 320 36 383 66 427 C 96 471 133 493 177 493 C 210 493 237 483 257 465 C 277 446 291 424 299 399 L 299 488 L 379 488 L 379 -200 L 293 -200 Z M 205 69 C 231 69 253 82 270 110 C 286 138 295 183 295 245 C 295 302 286 344 269 372 C 251 399 229 413 203 413 C 177 413 156 398 140 370 C 124 342 117 298 117 240 C 117 190 124 149 140 117 C 155 85 177 69 205 69 Z" unicode="q" />
<glyph horiz-adv-x="296" d="M 300 463 L 271 387 C 261 396 251 402 242 405 C 233 408 223 410 211 410 C 195 410 177 403 159 389 C 141 375 132 345 132 301 L 132 0 L 40 0 L 40 488 L 129 488 L 129 413 C 135 433 147 452 164 468 C 180 484 200 493 223 493 C 240 493 255 489 269 483 C 282 477 292 470 300 463 Z" unicode="r" />
<glyph horiz-adv-x="309" d="M 162 -5 C 129 -5 100 1 75 13 C 49 25 29 42 15 63 L 61 125 C 72 108 86 95 102 85 C 118 75 135 71 152 71 C 166 71 180 76 193 86 C 205 96 212 111 212 131 C 212 149 204 165 190 178 C 175 190 154 205 127 222 C 97 239 74 258 56 280 C 38 302 29 332 29 370 C 29 404 41 433 66 457 C 90 481 120 493 156 493 C 184 493 208 488 229 480 C 249 471 267 461 281 449 L 239 381 C 231 389 220 396 206 404 C 192 411 178 415 164 415 C 148 415 134 410 123 402 C 111 394 106 382 106 367 C 106 351 112 339 125 329 C 137 319 158 304 188 286 C 223 264 249 241 265 219 C 281 197 289 166 289 128 C 289 105 285 85 277 69 C 269 52 258 38 246 27 C 234 16 220 8 205 3 C 190 -2 176 -5 162 -5 Z" unicode="s" />
<glyph horiz-adv-x="221" d="M 203 88 L 221 16 C 215 11 206 6 196 2 C 185 -1 170 -4 152 -4 C 142 -4 131 -1 119 2 C 107 6 96 13 86 23 C 76 32 68 44 62 59 C 55 73 52 91 52 113 L 52 409 L 9 409 L 9 488 L 54 488 L 54 614 L 141 625 L 141 488 L 206 488 L 206 409 L 143 409 L 143 117 C 143 105 146 95 152 89 C 158 83 166 80 176 80 C 180 80 185 80 191 82 C 196 84 200 86 203 88 Z" unicode="t" />
<glyph horiz-adv-x="402" d="M 39 488 L 131 488 L 131 146 C 131 119 137 99 149 87 C 161 74 177 68 198 68 C 216 68 233 75 248 89 C 262 103 270 128 270 166 L 270 488 L 361 488 L 361 0 L 277 0 L 277 64 C 270 44 256 28 236 14 C 216 0 191 -6 161 -6 C 128 -6 99 4 75 25 C 51 45 39 78 39 122 L 39 488 Z" unicode="u" />
<glyph horiz-adv-x="337" d="M 341 488 L 207 -2 L 131 -2 L -4 488 L 90 488 L 173 159 L 254 488 L 341 488 Z" unicode="v" />
<glyph horiz-adv-x="543" d="M 348 -2 L 272 285 L 194 -2 L 121 -2 L 0 488 L 86 488 L 167 141 L 240 425 L 308 425 L 379 142 L 464 488 L 542 488 L 419 -2 L 348 -2 Z" unicode="w" />
<glyph horiz-adv-x="342" d="M 247 0 L 168 159 L 89 0 L 3 0 L 125 248 L 6 488 L 101 488 L 172 343 L 243 488 L 332 488 L 216 254 L 340 0 L 247 0 Z" unicode="x" />
<glyph horiz-adv-x="339" d="M 343 488 L 175 -102 C 165 -134 149 -159 127 -175 C 105 -191 80 -200 53 -200 C 33 -200 16 -197 2 -193 C -11 -189 -21 -184 -27 -180 L 6 -110 C 8 -112 14 -115 24 -118 C 33 -120 42 -122 51 -122 C 62 -122 72 -117 82 -108 C 92 -99 99 -85 104 -67 L 131 39 L -4 488 L 91 488 L 176 168 L 256 488 L 343 488 Z" unicode="y" />
<glyph horiz-adv-x="322" d="M 305 488 L 305 446 L 126 79 L 311 79 L 311 0 L 11 0 L 11 35 L 196 409 L 23 409 L 23 488 L 305 488 Z" unicode="z" />
<glyph horiz-adv-x="254" d="M 234 -179 C 207 -179 182 -175 158 -167 C 134 -159 112 -148 94 -134 C 76 -120 61 -104 51 -86 C 40 -67 35 -47 35 -27 C 35 -1 38 21 44 43 C 50 64 56 82 64 98 C 71 114 78 130 85 144 C 91 158 95 172 95 186 C 95 201 87 216 71 230 C 55 244 37 251 17 251 L 17 320 C 37 320 55 327 72 342 C 89 356 98 373 98 392 C 98 396 94 407 87 423 C 80 439 72 456 64 475 C 55 493 48 512 43 530 C 38 548 36 565 36 583 C 36 603 41 624 52 644 C 62 664 76 681 94 697 C 112 712 133 724 157 734 C 181 744 207 749 234 749 L 234 682 C 208 681 185 670 163 650 C 141 630 131 605 131 577 C 131 567 132 555 135 541 C 138 527 143 514 150 500 C 160 479 169 460 177 443 C 185 426 189 411 189 399 C 189 372 181 348 165 328 C 149 307 126 293 96 285 C 127 277 150 262 166 241 C 181 220 189 198 189 175 C 189 156 185 139 178 125 C 170 111 163 96 155 82 C 147 68 140 53 136 37 C 132 21 130 6 130 -7 C 130 -19 132 -31 138 -43 C 144 -55 151 -66 161 -76 C 170 -86 181 -94 194 -101 C 206 -107 220 -111 234 -111 L 234 -179 Z" unicode="{" />
<glyph horiz-adv-x="228" d="M 158 -179 L 70 -179 L 70 730 L 158 730 L 158 -179 Z" unicode="|" />
<glyph horiz-adv-x="254" d="M 20 -179 L 20 -111 C 34 -111 47 -107 60 -101 C 72 -94 83 -86 93 -76 C 102 -66 109 -55 115 -43 C 121 -31 124 -19 124 -7 C 124 6 121 21 117 37 C 113 53 107 68 99 82 C 91 96 83 111 76 125 C 68 139 65 156 65 175 C 65 198 72 220 87 241 C 102 262 124 277 154 285 C 125 293 103 307 88 328 C 72 348 65 372 65 399 C 65 411 69 426 77 443 C 85 460 94 479 104 500 C 110 514 115 527 118 541 C 121 555 123 567 123 577 C 123 605 112 630 90 650 C 68 670 45 681 20 682 L 20 749 C 46 749 72 744 96 734 C 120 724 141 712 159 697 C 177 681 191 664 202 644 C 212 624 218 603 218 583 C 218 565 215 548 210 530 C 205 512 198 493 190 475 C 181 456 173 439 166 423 C 159 407 156 396 156 392 C 156 373 164 356 181 342 C 198 327 217 320 237 320 L 237 251 C 217 251 199 244 183 230 C 167 216 159 201 159 186 C 159 172 162 158 169 144 C 175 130 182 114 190 98 C 197 82 204 64 210 43 C 216 21 219 -1 219 -27 C 219 -47 213 -67 203 -86 C 192 -104 177 -120 159 -134 C 141 -148 120 -159 96 -167 C 72 -175 46 -179 20 -179 Z" unicode="}" />
<glyph horiz-adv-x="451" d="M 352 443 L 423 443 C 422 395 414 356 399 326 C 383 296 359 282 325 282 C 301 282 281 286 264 296 C 246 306 232 317 220 330 C 207 342 195 353 185 362 C 175 371 163 376 149 376 C 136 376 124 367 113 350 C 102 333 97 311 97 285 L 27 285 C 27 334 36 373 55 402 C 73 431 100 446 134 446 C 156 446 177 440 195 428 C 213 416 228 405 240 393 C 252 382 263 372 273 363 C 283 354 294 350 307 350 C 325 350 337 357 343 373 C 349 389 352 412 352 443 Z" unicode="~" />
<glyph horiz-adv-x="257" d="M 82 602 L 175 602 L 175 497 L 82 497 L 82 602 Z M 77 183 L 109 408 L 150 408 L 179 183 L 179 -111 L 77 -111 L 77 183 Z" unicode="¡" />
<glyph horiz-adv-x="349" d="M 338 142 C 327 130 314 117 299 105 C 284 93 261 85 229 82 L 229 -28 L 176 -28 L 176 82 C 126 88 87 111 61 152 C 34 192 21 243 21 303 C 21 330 24 356 31 382 C 37 407 47 430 60 450 C 72 470 88 486 108 499 C 128 512 150 521 176 525 L 176 634 L 229 634 L 229 526 C 258 523 281 515 299 503 C 317 490 331 477 342 464 L 303 401 C 294 411 284 420 273 428 C 262 436 247 442 229 444 L 229 157 C 249 157 265 162 277 172 C 289 181 298 190 305 199 L 338 142 Z M 116 305 C 116 269 121 240 132 217 C 143 194 158 178 176 168 L 176 437 C 156 428 141 412 131 389 C 121 365 116 337 116 305 Z" unicode="¢" />
<glyph horiz-adv-x="464" d="M 449 79 L 449 0 L 16 0 L 16 68 C 20 70 28 73 38 75 C 48 77 61 80 78 84 C 102 88 123 100 142 118 C 161 136 171 161 171 195 C 171 197 171 200 171 202 C 171 204 170 207 170 210 L 30 210 L 30 282 L 142 282 C 137 290 132 300 127 310 C 122 320 117 330 112 341 L 30 341 L 30 413 L 82 413 C 75 432 69 453 65 475 C 61 497 59 520 59 544 C 59 581 64 612 76 638 C 87 663 102 683 121 699 C 140 714 162 725 187 732 C 211 738 237 742 263 742 C 299 742 335 733 371 716 C 406 699 431 683 446 667 L 400 594 C 388 606 371 620 347 635 C 323 650 298 658 271 658 C 257 658 244 655 230 651 C 216 647 204 640 194 630 C 183 620 174 606 168 589 C 161 572 158 551 158 527 C 158 507 160 488 165 469 C 170 450 176 431 183 413 L 399 413 L 399 341 L 215 341 C 219 331 224 321 229 311 C 233 301 237 291 241 282 L 399 282 L 399 210 L 255 210 C 254 188 251 170 245 155 C 239 140 233 127 225 117 C 217 107 209 99 201 93 C 192 87 185 82 179 79 L 449 79 Z" unicode="£" />
<glyph horiz-adv-x="502" d="M 250 184 C 233 184 217 186 202 190 C 186 194 172 200 160 208 L 98 144 L 52 190 L 110 250 C 98 264 89 280 83 298 C 76 316 73 334 73 354 C 73 374 76 392 83 410 C 89 428 99 444 111 459 L 52 519 L 96 563 L 158 499 C 171 507 185 513 201 517 C 217 521 233 524 250 524 C 266 524 283 521 299 517 C 315 513 330 506 344 498 L 407 564 L 451 519 L 391 457 C 402 443 411 427 417 409 C 423 391 427 373 427 354 C 427 334 423 315 417 297 C 410 279 400 262 388 248 L 446 188 L 402 145 L 341 208 C 327 200 313 194 298 190 C 282 186 266 184 250 184 Z M 250 252 C 279 252 304 262 326 282 C 347 302 358 326 358 354 C 358 381 347 405 326 425 C 304 445 279 456 250 456 C 220 456 194 445 173 425 C 152 405 142 381 142 354 C 142 326 152 302 173 282 C 194 262 220 252 250 252 Z" unicode="¤" />
<glyph horiz-adv-x="462" d="M 427 138 L 280 138 L 280 0 L 180 0 L 180 138 L 36 138 L 36 210 L 180 210 L 180 261 L 36 261 L 36 332 L 179 332 L 5 730 L 106 730 L 232 423 L 363 730 L 458 730 L 282 332 L 427 332 L 427 261 L 280 261 L 280 210 L 427 210 L 427 138 Z" unicode="¥" />
<glyph horiz-adv-x="259" d="M 90 351 L 90 730 L 169 730 L 169 351 L 90 351 Z M 169 200 L 169 -179 L 90 -179 L 90 200 L 169 200 Z" unicode="¦" />
<glyph horiz-adv-x="534" d="M 284 -181 C 236 -181 191 -174 149 -160 C 107 -146 72 -128 42 -106 L 74 -29 C 100 -50 132 -68 168 -83 C 204 -97 238 -105 270 -105 C 299 -105 323 -96 342 -79 C 360 -62 370 -38 370 -8 C 370 19 362 40 348 54 C 334 68 313 82 286 96 L 188 148 C 161 160 138 172 118 183 C 98 194 81 206 69 219 C 56 232 46 247 40 264 C 34 280 31 301 31 326 C 31 356 37 382 51 402 C 64 422 80 439 99 453 C 82 464 70 480 62 500 C 54 520 50 544 50 574 C 50 600 55 624 66 645 C 77 666 92 684 111 698 C 129 712 151 722 177 730 C 203 738 230 742 260 742 C 312 742 354 733 388 717 C 422 700 449 682 470 663 L 425 592 C 401 612 376 630 350 646 C 324 661 294 669 258 669 C 225 669 198 660 177 643 C 156 626 146 603 146 574 C 146 552 152 534 166 520 C 179 506 199 492 227 480 L 353 415 C 399 394 434 371 458 347 C 482 323 494 289 494 247 C 494 216 483 190 463 169 C 442 147 419 135 395 133 C 409 123 426 107 444 83 C 462 59 471 30 471 -6 C 471 -33 466 -57 456 -79 C 446 -101 433 -119 417 -134 C 400 -149 380 -161 357 -169 C 334 -177 310 -181 284 -181 Z M 327 173 C 343 175 358 181 373 192 C 387 203 395 220 395 244 C 395 266 386 285 370 301 C 353 317 327 333 293 349 L 173 413 C 159 404 147 394 137 382 C 127 370 122 354 122 334 C 122 308 130 288 147 274 C 164 259 191 243 227 226 L 327 173 Z" unicode="§" />
<glyph horiz-adv-x="500" d="M 362 551 L 288 551 L 288 709 L 362 709 L 362 551 Z M 212 551 L 138 551 L 138 709 L 212 709 L 212 551 Z" unicode="¨" />
<glyph horiz-adv-x="812" d="M 406 21 C 356 21 310 30 266 49 C 222 68 183 94 151 127 C 118 159 92 198 73 242 C 54 286 45 332 45 382 C 45 431 54 478 73 522 C 92 566 118 604 151 636 C 183 668 222 694 266 713 C 310 732 356 742 406 742 C 455 742 502 732 546 713 C 590 694 628 668 661 636 C 693 604 719 566 738 522 C 757 478 767 431 767 382 C 767 332 757 286 738 242 C 719 198 693 159 661 127 C 628 94 590 68 546 49 C 502 30 455 21 406 21 Z M 406 81 C 446 81 485 89 521 105 C 557 121 589 142 616 169 C 643 196 664 228 680 264 C 696 300 704 339 704 381 C 704 421 696 460 680 497 C 664 533 643 565 616 592 C 589 619 557 641 521 657 C 485 673 446 681 406 681 C 364 681 325 673 289 657 C 253 641 221 619 194 592 C 167 565 146 533 130 497 C 114 460 107 421 107 381 C 107 339 114 300 130 264 C 146 228 167 196 194 169 C 221 142 253 121 289 105 C 325 89 364 81 406 81 Z M 569 250 C 554 225 533 204 506 188 C 478 172 445 164 405 164 C 380 164 356 168 333 178 C 309 187 289 201 271 219 C 253 237 238 259 228 286 C 217 313 212 344 212 379 C 212 413 216 443 226 471 C 236 499 249 522 266 542 C 283 561 303 576 326 587 C 349 597 374 603 401 603 C 443 603 477 595 504 580 C 530 565 551 546 566 523 L 504 476 C 493 490 480 503 464 513 C 448 523 428 528 404 528 C 371 528 344 513 322 485 C 300 456 290 420 290 378 C 290 332 302 296 326 271 C 350 246 377 234 407 234 C 429 234 449 239 467 250 C 485 261 499 275 510 292 L 569 250 Z" unicode="©" />
<glyph horiz-adv-x="420" d="M 375 321 L 298 321 L 298 379 C 284 358 266 342 242 331 C 218 320 192 315 164 315 C 124 315 93 326 70 349 C 47 372 36 404 36 444 C 36 488 51 521 83 543 C 115 565 157 577 211 579 L 294 586 L 294 595 C 294 620 286 638 272 650 C 258 662 237 668 211 668 C 189 668 167 664 147 656 C 127 648 109 638 94 626 L 59 686 C 77 700 101 713 130 724 C 158 735 190 741 226 741 C 272 741 308 729 335 706 C 361 683 375 646 375 595 L 375 321 Z M 296 432 L 296 520 L 206 515 C 179 513 157 507 140 497 C 122 486 114 468 114 444 C 114 425 121 410 135 400 C 149 389 167 384 190 384 C 210 384 230 388 250 397 C 269 405 284 417 296 432 Z M 377 204 L 42 204 L 42 278 L 377 278 L 377 204 Z" unicode="ª" />
<glyph horiz-adv-x="429" d="M 209 97 L 28 265 L 28 318 L 209 484 L 209 394 L 108 289 L 209 190 L 209 97 Z M 399 97 L 217 265 L 217 318 L 399 484 L 399 394 L 298 289 L 399 191 L 399 97 Z" unicode="«" />
<glyph horiz-adv-x="485" d="M 443 387 L 443 141 L 366 141 L 366 310 L 31 310 L 31 387 L 443 387 Z" unicode="¬" />
<glyph horiz-adv-x="812" d="M 406 21 C 356 21 310 30 266 49 C 222 68 183 94 151 127 C 118 159 92 198 73 242 C 54 286 45 332 45 382 C 45 431 54 478 73 522 C 92 566 118 604 151 636 C 183 668 222 694 266 713 C 310 732 356 742 406 742 C 455 742 502 732 546 713 C 590 694 628 668 661 636 C 693 604 719 566 738 522 C 757 478 767 431 767 382 C 767 332 757 286 738 242 C 719 198 693 159 661 127 C 628 94 590 68 546 49 C 502 30 455 21 406 21 Z M 406 81 C 447 81 486 88 522 104 C 558 119 590 140 617 167 C 643 193 664 225 680 262 C 696 298 704 338 704 381 C 704 423 696 463 680 500 C 664 536 643 568 617 595 C 590 621 558 642 522 658 C 486 673 447 681 406 681 C 364 681 325 673 289 657 C 253 641 221 620 194 594 C 167 567 146 535 130 499 C 114 462 107 423 107 381 C 107 339 114 299 130 263 C 146 226 167 194 194 168 C 221 141 253 120 289 104 C 325 88 364 81 406 81 Z M 275 175 L 275 604 L 423 604 C 441 604 458 601 476 597 C 493 592 508 585 522 575 C 535 565 546 553 554 538 C 562 523 567 505 567 485 C 567 447 556 419 535 400 C 514 381 492 370 469 367 L 468 363 L 597 175 L 518 175 L 403 344 L 344 344 L 344 175 L 275 175 Z M 344 404 L 426 404 C 442 404 458 409 474 421 C 489 433 497 451 498 475 C 498 499 490 516 474 526 C 458 536 438 541 416 541 L 344 541 L 344 404 Z" unicode="®" />
<glyph horiz-adv-x="500" d="M 371 570 L 129 570 L 129 643 L 371 643 L 371 570 Z" unicode="¯" />
<glyph horiz-adv-x="412" d="M 206 391 C 157 391 115 408 81 442 C 47 476 30 518 30 567 C 30 591 34 613 44 635 C 53 656 65 674 81 690 C 97 706 115 718 137 728 C 158 737 181 742 206 742 C 230 742 252 737 274 728 C 296 718 314 706 330 690 C 346 674 358 656 368 635 C 377 613 382 591 382 567 C 382 542 377 519 368 498 C 358 476 346 458 330 442 C 314 426 296 414 274 405 C 252 395 230 391 206 391 Z M 206 462 C 234 462 259 472 280 493 C 301 513 312 538 312 567 C 312 595 301 620 280 641 C 259 661 234 672 206 672 C 177 672 152 661 131 641 C 110 620 100 595 100 567 C 100 538 110 513 131 493 C 152 472 177 462 206 462 Z" unicode="°" />
<glyph horiz-adv-x="485" d="M 461 294 L 281 294 L 281 112 L 206 112 L 206 294 L 25 294 L 25 366 L 206 366 L 206 550 L 281 550 L 281 366 L 461 366 L 461 294 Z M 456 25 L 31 25 L 31 96 L 456 96 L 456 25 Z" unicode="±" />
<glyph horiz-adv-x="344" d="M 309 372 L 27 372 L 27 402 L 186 559 C 192 565 199 573 205 583 C 211 593 215 605 215 619 C 215 633 210 645 200 656 C 190 667 176 673 156 673 C 133 673 117 666 108 652 C 99 638 94 623 94 605 L 22 605 C 22 641 34 673 59 700 C 83 727 119 741 165 741 C 209 741 242 730 264 710 C 286 689 297 664 297 636 C 297 609 292 587 282 569 C 272 551 262 537 252 527 L 159 439 L 309 439 L 309 372 Z" unicode="²" />
<glyph horiz-adv-x="346" d="M 226 569 C 253 564 275 553 291 537 C 307 521 315 501 315 477 C 315 465 312 452 307 439 C 302 425 294 413 282 402 C 270 391 255 382 235 375 C 215 367 190 364 161 364 C 120 364 88 369 65 379 C 41 389 23 399 11 409 L 55 454 C 65 447 79 441 96 435 C 113 429 133 426 157 426 C 188 426 210 432 223 444 C 235 456 242 471 242 489 C 242 507 234 520 219 526 C 203 532 184 535 162 535 L 89 535 L 89 593 L 156 593 C 176 593 193 596 206 603 C 218 610 225 621 225 636 C 225 648 219 658 208 666 C 197 673 180 677 158 677 C 138 677 120 673 103 666 C 86 658 73 650 65 640 L 21 684 C 34 698 52 711 74 723 C 96 735 128 742 169 742 C 209 742 241 733 265 717 C 288 700 300 678 300 652 C 300 630 292 611 278 597 C 263 583 246 573 226 569 Z" unicode="³" />
<glyph horiz-adv-x="500" d="M 158 550 L 243 722 L 348 722 L 246 550 L 158 550 Z" unicode="´" />
<glyph horiz-adv-x="589" d="M 69 -106 L 69 508 L 161 508 L 161 163 C 161 133 173 110 199 92 C 224 74 252 66 283 66 C 299 66 316 68 333 73 C 350 78 365 85 379 95 C 392 105 403 117 411 132 C 419 146 424 163 424 183 L 424 508 L 515 508 L 515 0 L 431 0 L 431 99 C 421 71 400 47 368 26 C 336 5 302 -5 268 -6 C 244 -6 221 -1 199 8 C 177 18 162 33 154 52 L 154 -106 L 69 -106 Z" unicode="µ" />
<glyph horiz-adv-x="550" d="M 509 -181 L 446 -179 L 446 657 L 364 657 L 364 -179 L 301 -179 L 301 298 L 235 298 C 207 298 181 303 155 315 C 129 327 106 342 86 362 C 66 381 51 403 39 429 C 27 455 21 482 21 511 C 21 541 26 570 38 597 C 49 624 65 647 85 667 C 105 686 129 701 158 713 C 186 724 218 730 253 730 L 509 730 L 509 -181 Z M 302 375 L 302 653 L 276 653 C 232 653 195 639 167 613 C 138 587 124 554 124 514 C 124 476 138 444 166 416 C 194 388 228 375 266 375 L 302 375 Z" unicode="¶" />
<glyph horiz-adv-x="251" d="M 173 279 L 79 279 L 79 409 L 173 409 L 173 279 Z" unicode="·" />
<glyph horiz-adv-x="500" d="M 252 -182 C 231 -182 210 -179 190 -173 C 170 -167 153 -159 141 -149 L 159 -113 C 167 -118 177 -124 191 -130 C 205 -136 219 -139 235 -139 C 247 -139 258 -135 268 -129 C 277 -123 282 -114 282 -104 C 282 -91 277 -82 269 -77 C 261 -72 252 -70 242 -70 C 235 -70 229 -70 223 -71 C 217 -72 212 -74 206 -77 L 194 -60 L 249 13 L 297 13 L 253 -46 C 281 -42 304 -45 324 -56 C 343 -66 353 -83 353 -107 C 353 -131 343 -149 323 -162 C 303 -175 279 -182 252 -182 Z" unicode="¸" />
<glyph horiz-adv-x="318" d="M 141 372 L 141 644 C 134 632 120 622 100 613 C 80 604 63 598 49 596 L 48 678 C 72 681 94 688 112 698 C 130 708 149 722 168 740 L 225 740 L 225 372 L 141 372 Z" unicode="¹" />
<glyph horiz-adv-x="400" d="M 197 314 C 174 314 152 318 131 328 C 109 338 91 352 75 370 C 59 388 46 410 36 436 C 26 462 21 491 21 524 C 21 553 25 581 35 607 C 45 633 58 655 74 675 C 90 695 108 710 130 722 C 152 733 175 739 199 739 C 249 739 291 720 326 682 C 361 644 379 595 379 534 C 379 502 374 473 364 446 C 354 419 341 396 325 376 C 309 356 289 341 267 330 C 245 319 221 314 197 314 Z M 199 383 C 229 383 254 397 272 425 C 290 453 300 488 300 530 C 300 569 291 602 274 628 C 257 654 232 668 200 668 C 169 668 145 654 127 626 C 109 598 100 563 100 521 C 100 479 109 446 128 421 C 146 395 170 383 199 383 Z M 38 204 L 38 278 L 362 278 L 362 204 L 38 204 Z" unicode="º" />
<glyph horiz-adv-x="429" d="M 29 485 L 212 316 L 212 264 L 29 98 L 29 187 L 130 292 L 29 391 L 29 485 Z M 220 485 L 401 316 L 401 264 L 220 98 L 220 187 L 321 292 L 220 391 L 220 485 Z" unicode="»" />
<glyph horiz-adv-x="701" d="M 12 0 L 12 0 Z M 105 372 L 105 644 C 98 632 84 622 64 613 C 44 604 27 598 13 596 L 12 678 C 36 681 58 688 76 698 C 94 708 113 722 132 740 L 189 740 L 189 372 L 105 372 Z M 577 730 L 207 0 L 129 0 L 498 730 L 577 730 Z M 389 83 L 389 139 L 575 366 L 628 366 L 628 142 L 689 142 L 689 83 L 628 83 L 628 1 L 552 1 L 552 83 L 389 83 Z M 466 140 L 554 140 L 554 251 L 466 140 Z" unicode="¼" />
<glyph horiz-adv-x="769" d="M 12 0 L 12 0 Z M 105 372 L 105 644 C 98 632 84 622 64 613 C 44 604 27 598 13 596 L 12 678 C 36 681 58 688 76 698 C 94 708 113 722 132 740 L 189 740 L 189 372 L 105 372 Z M 577 730 L 207 0 L 129 0 L 498 730 L 577 730 Z M 743 0 L 461 0 L 461 30 L 620 187 C 626 193 633 201 639 211 C 645 221 649 233 649 247 C 649 261 644 273 634 284 C 624 295 610 301 590 301 C 567 301 551 294 542 280 C 533 266 528 251 528 233 L 456 233 C 456 269 468 301 493 328 C 517 355 553 369 599 369 C 643 369 676 358 698 338 C 720 317 731 292 731 264 C 731 237 726 215 716 197 C 706 179 696 165 686 155 L 593 67 L 743 67 L 743 0 Z" unicode="½" />
<glyph horiz-adv-x="761" d="M 13 0 L 13 0 Z M 637 730 L 267 0 L 189 0 L 558 730 L 637 730 Z M 449 83 L 449 139 L 635 366 L 688 366 L 688 142 L 749 142 L 749 83 L 688 83 L 688 1 L 612 1 L 612 83 L 449 83 Z M 526 140 L 614 140 L 614 251 L 526 140 Z M 228 569 C 255 564 277 553 293 537 C 309 521 317 501 317 477 C 317 465 314 452 309 439 C 304 425 296 413 284 402 C 272 391 257 382 237 375 C 217 367 192 364 163 364 C 122 364 90 369 67 379 C 43 389 25 399 13 409 L 57 454 C 67 447 81 441 98 435 C 115 429 135 426 159 426 C 190 426 212 432 225 444 C 237 456 244 471 244 489 C 244 507 236 520 221 526 C 205 532 186 535 164 535 L 91 535 L 91 593 L 158 593 C 178 593 195 596 208 603 C 220 610 227 621 227 636 C 227 648 221 658 210 666 C 199 673 182 677 160 677 C 140 677 122 673 105 666 C 88 658 75 650 67 640 L 23 684 C 36 698 54 711 76 723 C 98 735 130 742 171 742 C 211 742 243 733 267 717 C 290 700 302 678 302 652 C 302 630 294 611 280 597 C 265 583 248 573 228 569 Z" unicode="¾" />
<glyph horiz-adv-x="427" d="M 175 490 L 175 602 L 276 602 L 276 490 L 175 490 Z M 210 -140 C 152 -140 107 -124 75 -93 C 43 -62 28 -20 28 34 C 28 59 31 82 38 103 C 44 123 53 142 63 160 C 73 178 85 194 98 210 C 110 225 123 240 135 255 C 153 273 166 296 172 324 C 178 351 182 376 183 399 L 273 399 C 273 357 267 322 256 293 C 245 264 228 236 206 210 C 188 188 171 165 153 140 C 135 115 126 85 126 49 C 126 16 135 -9 155 -28 C 175 -47 199 -57 228 -57 C 254 -57 276 -50 296 -36 C 316 -22 332 -4 346 16 L 403 -39 C 379 -73 350 -98 316 -115 C 282 -131 246 -140 210 -140 Z" unicode="¿" />
<glyph horiz-adv-x="479" d="M 1 0 L 1 0 Z M 478 0 L 383 0 L 334 177 L 139 177 L 94 0 L 1 0 L 205 734 L 274 734 L 478 0 Z M 320 255 L 237 555 L 155 255 L 320 255 Z M 237 792 L 237 792 Z M 332 792 L 244 792 L 142 964 L 247 964 L 332 792 Z" unicode="À" />
<glyph horiz-adv-x="479" d="M 1 0 L 1 0 Z M 478 0 L 383 0 L 334 177 L 139 177 L 94 0 L 1 0 L 205 734 L 274 734 L 478 0 Z M 320 255 L 237 555 L 155 255 L 320 255 Z M 237 792 L 237 792 Z M 142 792 L 227 964 L 332 964 L 230 792 L 142 792 Z" unicode="Á" />
<glyph horiz-adv-x="479" d="M 1 0 L 1 0 Z M 478 0 L 383 0 L 334 177 L 139 177 L 94 0 L 1 0 L 205 734 L 274 734 L 478 0 Z M 320 255 L 237 555 L 155 255 L 320 255 Z M 237 793 L 237 793 Z M 374 793 L 297 793 L 237 899 L 176 793 L 101 793 L 199 964 L 276 964 L 374 793 Z" unicode="Â" />
<glyph horiz-adv-x="479" d="M 1 0 L 1 0 Z M 478 0 L 383 0 L 334 177 L 139 177 L 94 0 L 1 0 L 205 734 L 274 734 L 478 0 Z M 320 255 L 237 555 L 155 255 L 320 255 Z M 237 799 L 237 799 Z M 321 936 L 389 936 C 389 890 382 855 369 833 C 356 810 339 799 319 799 C 301 799 285 802 272 810 C 259 817 248 824 240 831 C 231 837 222 844 213 850 C 204 856 195 860 187 860 C 178 860 170 854 164 844 C 158 834 154 820 154 803 L 86 803 C 86 849 94 883 111 906 C 128 928 146 940 166 940 C 182 940 195 936 207 929 C 219 921 230 914 241 906 C 249 899 257 893 265 887 C 273 881 281 879 290 879 C 298 879 305 883 311 893 C 317 903 321 917 321 936 Z" unicode="Ã" />
<glyph horiz-adv-x="479" d="M 1 0 L 1 0 Z M 478 0 L 383 0 L 334 177 L 139 177 L 94 0 L 1 0 L 205 734 L 274 734 L 478 0 Z M 320 255 L 237 555 L 155 255 L 320 255 Z M 237 793 L 237 793 Z M 349 793 L 275 793 L 275 951 L 349 951 L 349 793 Z M 199 793 L 125 793 L 125 951 L 199 951 L 199 793 Z" unicode="Ä" />
<glyph horiz-adv-x="479" d="M 1 0 L 1 0 Z M 478 0 L 383 0 L 334 177 L 139 177 L 94 0 L 1 0 L 205 734 L 274 734 L 478 0 Z M 320 255 L 237 555 L 155 255 L 320 255 Z M 237 780 L 237 780 Z M 237 780 C 204 780 176 791 153 814 C 130 837 119 865 119 898 C 119 930 130 958 153 981 C 176 1004 204 1016 237 1016 C 270 1016 298 1004 321 981 C 344 958 356 930 356 898 C 356 865 344 837 321 814 C 298 791 270 780 237 780 Z M 237 833 C 255 833 269 839 281 852 C 293 864 299 880 299 898 C 299 916 293 931 281 943 C 269 955 255 962 237 962 C 220 962 205 955 193 943 C 181 931 175 916 175 898 C 175 880 181 864 193 852 C 205 839 220 833 237 833 Z" unicode="Å" />
<glyph horiz-adv-x="729" d="M 718 0 L 400 0 L 400 203 L 190 203 L 95 0 L 1 0 L 340 730 L 700 730 L 700 646 L 493 646 L 493 405 L 692 405 L 692 322 L 493 322 L 493 84 L 718 84 L 718 0 Z M 400 279 L 401 665 L 221 279 L 400 279 Z" unicode="Æ" />
<glyph horiz-adv-x="505" d="M 34 0 L 34 0 Z M 277 -7 C 241 -7 209 0 179 16 C 149 31 123 54 102 85 C 80 115 64 154 52 201 C 40 248 34 303 34 366 C 34 483 55 574 97 639 C 139 704 199 737 278 737 C 339 737 384 722 414 693 C 444 663 465 628 478 586 L 390 554 C 380 580 366 602 350 620 C 334 638 310 648 279 648 C 233 648 198 626 172 583 C 146 539 134 466 134 362 C 134 309 138 265 147 229 C 155 193 167 164 181 142 C 195 120 211 104 229 95 C 247 85 266 81 285 81 C 319 81 345 90 363 109 C 381 127 395 152 406 183 L 487 148 C 470 100 445 62 411 34 C 377 6 332 -7 277 -7 Z M 272 0 L 272 0 Z M 277 -182 C 256 -182 235 -179 215 -173 C 195 -167 178 -159 166 -149 L 184 -113 C 192 -118 202 -124 216 -130 C 230 -136 244 -139 260 -139 C 272 -139 283 -135 293 -129 C 302 -123 307 -114 307 -104 C 307 -91 302 -82 294 -77 C 286 -72 277 -70 267 -70 C 260 -70 254 -70 248 -71 C 242 -72 237 -74 231 -77 L 219 -60 L 274 13 L 322 13 L 278 -46 C 306 -42 329 -45 349 -56 C 368 -66 378 -83 378 -107 C 378 -131 368 -149 348 -162 C 328 -175 304 -182 277 -182 Z" unicode="Ç" />
<glyph horiz-adv-x="393" d="M 59 0 L 59 0 Z M 382 0 L 59 0 L 59 730 L 364 730 L 364 641 L 157 641 L 157 409 L 356 409 L 356 321 L 157 321 L 157 89 L 382 89 L 382 0 Z M 211 792 L 211 792 Z M 306 792 L 218 792 L 116 964 L 221 964 L 306 792 Z" unicode="È" />
<glyph horiz-adv-x="393" d="M 59 0 L 59 0 Z M 382 0 L 59 0 L 59 730 L 364 730 L 364 641 L 157 641 L 157 409 L 356 409 L 356 321 L 157 321 L 157 89 L 382 89 L 382 0 Z M 211 792 L 211 792 Z M 116 792 L 201 964 L 306 964 L 204 792 L 116 792 Z" unicode="É" />
<glyph horiz-adv-x="393" d="M 59 0 L 59 0 Z M 382 0 L 59 0 L 59 730 L 364 730 L 364 641 L 157 641 L 157 409 L 356 409 L 356 321 L 157 321 L 157 89 L 382 89 L 382 0 Z M 211 793 L 211 793 Z M 348 793 L 271 793 L 211 899 L 150 793 L 75 793 L 173 964 L 250 964 L 348 793 Z" unicode="Ê" />
<glyph horiz-adv-x="393" d="M 59 0 L 59 0 Z M 382 0 L 59 0 L 59 730 L 364 730 L 364 641 L 157 641 L 157 409 L 356 409 L 356 321 L 157 321 L 157 89 L 382 89 L 382 0 Z M 211 793 L 211 793 Z M 323 793 L 249 793 L 249 951 L 323 951 L 323 793 Z M 173 793 L 99 793 L 99 951 L 173 951 L 173 793 Z" unicode="Ë" />
<glyph horiz-adv-x="227" d="M 19 0 L 19 0 Z M 164 0 L 63 0 L 63 730 L 164 730 L 164 0 Z M 114 792 L 114 792 Z M 209 792 L 121 792 L 19 964 L 124 964 L 209 792 Z" unicode="Ì" />
<glyph horiz-adv-x="227" d="M 19 0 L 19 0 Z M 164 0 L 63 0 L 63 730 L 164 730 L 164 0 Z M 114 792 L 114 792 Z M 19 792 L 104 964 L 209 964 L 107 792 L 19 792 Z" unicode="Í" />
<glyph horiz-adv-x="227" d="M 0 0 L 0 0 Z M 164 0 L 63 0 L 63 730 L 164 730 L 164 0 Z M 114 793 L 114 793 Z M 251 793 L 174 793 L 114 899 L 53 793 L -22 793 L 76 964 L 153 964 L 251 793 Z" unicode="Î" />
<glyph horiz-adv-x="227" d="M 2 0 L 2 0 Z M 164 0 L 63 0 L 63 730 L 164 730 L 164 0 Z M 114 793 L 114 793 Z M 226 793 L 152 793 L 152 951 L 226 951 L 226 793 Z M 76 793 L 2 793 L 2 951 L 76 951 L 76 793 Z" unicode="Ï" />
<glyph horiz-adv-x="538" d="M 505 363 C 505 312 499 264 487 220 C 475 176 457 137 433 105 C 409 73 378 47 342 28 C 305 9 262 0 213 0 L 59 0 L 59 324 L 18 324 L 18 399 L 59 399 L 59 730 L 221 730 C 267 730 307 721 343 704 C 378 686 408 662 432 630 C 456 598 474 559 486 514 C 498 468 505 418 505 363 Z M 158 77 L 215 77 C 283 77 331 103 360 155 C 389 207 404 275 404 361 C 404 460 388 533 356 581 C 324 629 279 653 223 653 L 158 653 L 158 399 L 297 399 L 297 324 L 158 324 L 158 77 Z" unicode="Ð" />
<glyph horiz-adv-x="534" d="M 59 0 L 59 0 Z M 475 0 L 404 0 L 153 496 L 153 0 L 59 0 L 59 730 L 130 730 L 384 232 L 384 730 L 475 730 L 475 0 Z M 267 799 L 267 799 Z M 351 936 L 419 936 C 419 890 412 855 399 833 C 386 810 369 799 349 799 C 331 799 315 802 302 810 C 289 817 278 824 270 831 C 261 837 252 844 243 850 C 234 856 225 860 217 860 C 208 860 200 854 194 844 C 188 834 184 820 184 803 L 116 803 C 116 849 124 883 141 906 C 158 928 176 940 196 940 C 212 940 225 936 237 929 C 249 921 260 914 271 906 C 279 899 287 893 295 887 C 303 881 311 879 320 879 C 328 879 335 883 341 893 C 347 903 351 917 351 936 Z" unicode="Ñ" />
<glyph horiz-adv-x="570" d="M 34 0 L 34 0 Z M 287 -7 C 207 -7 144 25 100 90 C 56 154 34 248 34 371 C 34 485 56 575 101 640 C 146 704 206 737 282 737 C 363 737 426 705 470 641 C 514 577 536 485 536 365 C 536 248 513 157 467 91 C 421 25 361 -7 287 -7 Z M 286 77 C 332 77 368 100 394 148 C 420 196 434 270 434 372 C 434 466 420 537 393 583 C 366 629 329 653 283 653 C 235 653 199 630 174 584 C 148 538 136 464 136 364 C 136 263 149 190 177 145 C 204 99 240 77 286 77 Z M 284 792 L 284 792 Z M 379 792 L 291 792 L 189 964 L 294 964 L 379 792 Z" unicode="Ò" />
<glyph horiz-adv-x="570" d="M 34 0 L 34 0 Z M 287 -7 C 207 -7 144 25 100 90 C 56 154 34 248 34 371 C 34 485 56 575 101 640 C 146 704 206 737 282 737 C 363 737 426 705 470 641 C 514 577 536 485 536 365 C 536 248 513 157 467 91 C 421 25 361 -7 287 -7 Z M 286 77 C 332 77 368 100 394 148 C 420 196 434 270 434 372 C 434 466 420 537 393 583 C 366 629 329 653 283 653 C 235 653 199 630 174 584 C 148 538 136 464 136 364 C 136 263 149 190 177 145 C 204 99 240 77 286 77 Z M 284 792 L 284 792 Z M 189 792 L 274 964 L 379 964 L 277 792 L 189 792 Z" unicode="Ó" />
<glyph horiz-adv-x="570" d="M 34 0 L 34 0 Z M 287 -7 C 207 -7 144 25 100 90 C 56 154 34 248 34 371 C 34 485 56 575 101 640 C 146 704 206 737 282 737 C 363 737 426 705 470 641 C 514 577 536 485 536 365 C 536 248 513 157 467 91 C 421 25 361 -7 287 -7 Z M 286 77 C 332 77 368 100 394 148 C 420 196 434 270 434 372 C 434 466 420 537 393 583 C 366 629 329 653 283 653 C 235 653 199 630 174 584 C 148 538 136 464 136 364 C 136 263 149 190 177 145 C 204 99 240 77 286 77 Z M 284 793 L 284 793 Z M 421 793 L 344 793 L 284 899 L 223 793 L 148 793 L 246 964 L 323 964 L 421 793 Z" unicode="Ô" />
<glyph horiz-adv-x="570" d="M 34 0 L 34 0 Z M 287 -7 C 207 -7 144 25 100 90 C 56 154 34 248 34 371 C 34 485 56 575 101 640 C 146 704 206 737 282 737 C 363 737 426 705 470 641 C 514 577 536 485 536 365 C 536 248 513 157 467 91 C 421 25 361 -7 287 -7 Z M 286 77 C 332 77 368 100 394 148 C 420 196 434 270 434 372 C 434 466 420 537 393 583 C 366 629 329 653 283 653 C 235 653 199 630 174 584 C 148 538 136 464 136 364 C 136 263 149 190 177 145 C 204 99 240 77 286 77 Z M 284 799 L 284 799 Z M 368 936 L 436 936 C 436 890 429 855 416 833 C 403 810 386 799 366 799 C 348 799 332 802 319 810 C 306 817 295 824 287 831 C 278 837 269 844 260 850 C 251 856 242 860 234 860 C 225 860 217 854 211 844 C 205 834 201 820 201 803 L 133 803 C 133 849 141 883 158 906 C 175 928 193 940 213 940 C 229 940 242 936 254 929 C 266 921 277 914 288 906 C 296 899 304 893 312 887 C 320 881 328 879 337 879 C 345 879 352 883 358 893 C 364 903 368 917 368 936 Z" unicode="Õ" />
<glyph horiz-adv-x="570" d="M 34 0 L 34 0 Z M 287 -7 C 207 -7 144 25 100 90 C 56 154 34 248 34 371 C 34 485 56 575 101 640 C 146 704 206 737 282 737 C 363 737 426 705 470 641 C 514 577 536 485 536 365 C 536 248 513 157 467 91 C 421 25 361 -7 287 -7 Z M 286 77 C 332 77 368 100 394 148 C 420 196 434 270 434 372 C 434 466 420 537 393 583 C 366 629 329 653 283 653 C 235 653 199 630 174 584 C 148 538 136 464 136 364 C 136 263 149 190 177 145 C 204 99 240 77 286 77 Z M 284 793 L 284 793 Z M 396 793 L 322 793 L 322 951 L 396 951 L 396 793 Z M 246 793 L 172 793 L 172 951 L 246 951 L 246 793 Z" unicode="Ö" />
<glyph horiz-adv-x="486" d="M 109 145 L 59 195 L 193 329 L 60 462 L 110 513 L 243 380 L 377 513 L 427 462 L 293 329 L 427 196 L 378 144 L 243 280 L 109 145 Z" unicode="×" />
<glyph horiz-adv-x="570" d="M 536 365 C 536 248 513 157 467 91 C 421 25 361 -7 287 -7 C 251 -7 218 0 189 13 C 159 26 134 45 114 71 L 62 -6 L 19 23 L 83 119 C 67 149 54 186 46 228 C 38 270 34 318 34 371 C 34 485 56 575 101 640 C 146 704 206 737 282 737 C 316 737 348 731 377 719 C 405 707 430 689 451 666 L 507 750 L 550 722 L 483 622 C 500 591 513 554 522 511 C 531 467 536 419 536 365 Z M 136 364 C 136 335 137 308 139 284 C 141 260 145 238 150 218 L 394 582 C 381 606 365 623 346 635 C 327 647 306 653 283 653 C 235 653 199 630 174 584 C 148 538 136 464 136 364 Z M 434 372 C 434 402 432 430 429 455 C 426 480 422 503 417 524 L 171 156 C 183 129 199 109 219 96 C 239 83 261 77 286 77 C 332 77 368 100 394 148 C 420 196 434 270 434 372 Z" unicode="Ø" />
<glyph horiz-adv-x="534" d="M 56 0 L 56 0 Z M 478 730 L 478 218 C 478 178 472 143 460 115 C 448 86 432 63 412 45 C 392 27 369 13 343 5 C 317 -2 289 -7 261 -7 C 233 -7 207 -3 182 5 C 157 13 135 25 117 43 C 98 61 83 84 72 113 C 61 141 56 176 56 218 L 56 730 L 154 730 L 154 216 C 154 166 164 130 185 110 C 206 89 233 79 265 79 C 295 79 321 88 343 108 C 365 128 376 164 376 216 L 376 730 L 478 730 Z M 265 792 L 265 792 Z M 360 792 L 272 792 L 170 964 L 275 964 L 360 792 Z" unicode="Ù" />
<glyph horiz-adv-x="534" d="M 56 0 L 56 0 Z M 478 730 L 478 218 C 478 178 472 143 460 115 C 448 86 432 63 412 45 C 392 27 369 13 343 5 C 317 -2 289 -7 261 -7 C 233 -7 207 -3 182 5 C 157 13 135 25 117 43 C 98 61 83 84 72 113 C 61 141 56 176 56 218 L 56 730 L 154 730 L 154 216 C 154 166 164 130 185 110 C 206 89 233 79 265 79 C 295 79 321 88 343 108 C 365 128 376 164 376 216 L 376 730 L 478 730 Z M 265 792 L 265 792 Z M 170 792 L 255 964 L 360 964 L 258 792 L 170 792 Z" unicode="Ú" />
<glyph horiz-adv-x="534" d="M 56 0 L 56 0 Z M 478 730 L 478 218 C 478 178 472 143 460 115 C 448 86 432 63 412 45 C 392 27 369 13 343 5 C 317 -2 289 -7 261 -7 C 233 -7 207 -3 182 5 C 157 13 135 25 117 43 C 98 61 83 84 72 113 C 61 141 56 176 56 218 L 56 730 L 154 730 L 154 216 C 154 166 164 130 185 110 C 206 89 233 79 265 79 C 295 79 321 88 343 108 C 365 128 376 164 376 216 L 376 730 L 478 730 Z M 265 793 L 265 793 Z M 402 793 L 325 793 L 265 899 L 204 793 L 129 793 L 227 964 L 304 964 L 402 793 Z" unicode="Û" />
<glyph horiz-adv-x="534" d="M 56 0 L 56 0 Z M 478 730 L 478 218 C 478 178 472 143 460 115 C 448 86 432 63 412 45 C 392 27 369 13 343 5 C 317 -2 289 -7 261 -7 C 233 -7 207 -3 182 5 C 157 13 135 25 117 43 C 98 61 83 84 72 113 C 61 141 56 176 56 218 L 56 730 L 154 730 L 154 216 C 154 166 164 130 185 110 C 206 89 233 79 265 79 C 295 79 321 88 343 108 C 365 128 376 164 376 216 L 376 730 L 478 730 Z M 265 793 L 265 793 Z M 377 793 L 303 793 L 303 951 L 377 951 L 377 793 Z M 227 793 L 153 793 L 153 951 L 227 951 L 227 793 Z" unicode="Ü" />
<glyph horiz-adv-x="461" d="M 0 0 L 0 0 Z M 464 730 L 278 309 L 278 0 L 178 0 L 178 310 L -3 730 L 107 730 L 234 413 L 368 730 L 464 730 Z M 234 792 L 234 792 Z M 139 792 L 224 964 L 329 964 L 227 792 L 139 792 Z" unicode="Ý" />
<glyph horiz-adv-x="443" d="M 59 0 L 59 730 L 159 730 L 159 601 L 234 601 C 260 601 285 596 309 587 C 333 577 353 564 371 546 C 388 528 402 505 412 479 C 422 452 427 422 427 388 C 427 316 408 261 370 221 C 332 181 285 162 229 162 L 159 162 L 159 0 L 59 0 Z M 157 240 L 225 240 C 257 240 284 252 304 278 C 324 303 335 339 335 387 C 335 431 323 464 301 487 C 278 510 253 522 225 522 L 157 522 L 157 240 Z" unicode="Þ" />
<glyph horiz-adv-x="480" d="M 335 -5 C 302 -5 273 1 249 14 C 224 26 204 43 190 63 L 236 123 C 248 107 262 94 277 85 C 292 76 308 72 326 72 C 340 72 354 76 367 86 C 380 96 387 111 387 132 C 387 150 379 166 363 180 C 347 193 325 209 297 227 C 266 246 242 266 225 287 C 207 308 199 336 199 370 C 199 405 208 433 228 454 C 248 475 269 490 292 499 C 298 501 305 511 311 528 C 317 544 321 572 322 610 C 322 650 313 678 297 695 C 281 711 260 720 235 720 C 210 720 190 710 174 692 C 158 674 150 646 150 608 L 150 0 L 58 0 L 58 613 C 58 671 73 717 105 749 C 137 781 180 797 234 797 C 284 797 325 781 358 749 C 390 717 407 669 407 604 C 407 553 399 513 385 485 C 370 457 355 441 341 437 C 323 435 308 429 295 420 C 281 411 275 397 275 379 C 275 361 282 346 296 334 C 310 321 333 305 364 285 C 398 263 423 241 440 219 C 456 197 465 166 465 128 C 465 105 460 85 452 69 C 444 52 433 38 421 27 C 408 16 394 8 379 3 C 363 -2 349 -5 335 -5 Z" unicode="ß" />
<glyph horiz-adv-x="373" d="M 19 0 L 19 0 Z M 333 0 L 254 0 L 254 50 C 239 32 223 19 205 9 C 187 0 165 -5 137 -5 C 103 -5 75 8 53 34 C 30 60 19 98 19 146 C 19 199 34 238 64 262 C 94 286 131 300 173 303 L 247 308 L 247 342 C 247 368 240 387 227 400 C 214 412 195 419 170 419 C 147 419 128 415 112 407 C 96 399 83 391 75 383 L 48 451 C 62 463 81 474 104 483 C 127 492 156 497 192 497 C 232 497 266 485 293 462 C 319 438 333 404 333 359 L 333 0 Z M 249 108 L 249 243 L 192 239 C 169 237 149 228 131 214 C 113 199 105 176 105 146 C 105 118 112 98 126 86 C 140 74 156 68 173 68 C 191 68 207 72 219 80 C 231 88 241 97 249 108 Z M 181 550 L 181 550 Z M 276 550 L 188 550 L 86 722 L 191 722 L 276 550 Z" unicode="à" />
<glyph horiz-adv-x="373" d="M 19 0 L 19 0 Z M 333 0 L 254 0 L 254 50 C 239 32 223 19 205 9 C 187 0 165 -5 137 -5 C 103 -5 75 8 53 34 C 30 60 19 98 19 146 C 19 199 34 238 64 262 C 94 286 131 300 173 303 L 247 308 L 247 342 C 247 368 240 387 227 400 C 214 412 195 419 170 419 C 147 419 128 415 112 407 C 96 399 83 391 75 383 L 48 451 C 62 463 81 474 104 483 C 127 492 156 497 192 497 C 232 497 266 485 293 462 C 319 438 333 404 333 359 L 333 0 Z M 249 108 L 249 243 L 192 239 C 169 237 149 228 131 214 C 113 199 105 176 105 146 C 105 118 112 98 126 86 C 140 74 156 68 173 68 C 191 68 207 72 219 80 C 231 88 241 97 249 108 Z M 181 550 L 181 550 Z M 86 550 L 171 722 L 276 722 L 174 550 L 86 550 Z" unicode="á" />
<glyph horiz-adv-x="373" d="M 19 0 L 19 0 Z M 333 0 L 254 0 L 254 50 C 239 32 223 19 205 9 C 187 0 165 -5 137 -5 C 103 -5 75 8 53 34 C 30 60 19 98 19 146 C 19 199 34 238 64 262 C 94 286 131 300 173 303 L 247 308 L 247 342 C 247 368 240 387 227 400 C 214 412 195 419 170 419 C 147 419 128 415 112 407 C 96 399 83 391 75 383 L 48 451 C 62 463 81 474 104 483 C 127 492 156 497 192 497 C 232 497 266 485 293 462 C 319 438 333 404 333 359 L 333 0 Z M 249 108 L 249 243 L 192 239 C 169 237 149 228 131 214 C 113 199 105 176 105 146 C 105 118 112 98 126 86 C 140 74 156 68 173 68 C 191 68 207 72 219 80 C 231 88 241 97 249 108 Z M 181 551 L 181 551 Z M 318 551 L 241 551 L 181 657 L 120 551 L 45 551 L 143 722 L 220 722 L 318 551 Z" unicode="â" />
<glyph horiz-adv-x="373" d="M 19 0 L 19 0 Z M 333 0 L 254 0 L 254 50 C 239 32 223 19 205 9 C 187 0 165 -5 137 -5 C 103 -5 75 8 53 34 C 30 60 19 98 19 146 C 19 199 34 238 64 262 C 94 286 131 300 173 303 L 247 308 L 247 342 C 247 368 240 387 227 400 C 214 412 195 419 170 419 C 147 419 128 415 112 407 C 96 399 83 391 75 383 L 48 451 C 62 463 81 474 104 483 C 127 492 156 497 192 497 C 232 497 266 485 293 462 C 319 438 333 404 333 359 L 333 0 Z M 249 108 L 249 243 L 192 239 C 169 237 149 228 131 214 C 113 199 105 176 105 146 C 105 118 112 98 126 86 C 140 74 156 68 173 68 C 191 68 207 72 219 80 C 231 88 241 97 249 108 Z M 181 557 L 181 557 Z M 265 694 L 333 694 C 333 648 326 613 313 591 C 300 568 283 557 263 557 C 245 557 229 560 216 568 C 203 575 192 582 184 589 C 175 595 166 602 157 608 C 148 614 139 618 131 618 C 122 618 114 612 108 602 C 102 592 98 578 98 561 L 30 561 C 30 607 38 641 55 664 C 72 686 90 698 110 698 C 126 698 139 694 151 687 C 163 679 174 672 185 664 C 193 657 201 651 209 645 C 217 639 225 637 234 637 C 242 637 249 641 255 651 C 261 661 265 675 265 694 Z" unicode="ã" />
<glyph horiz-adv-x="373" d="M 19 0 L 19 0 Z M 333 0 L 254 0 L 254 50 C 239 32 223 19 205 9 C 187 0 165 -5 137 -5 C 103 -5 75 8 53 34 C 30 60 19 98 19 146 C 19 199 34 238 64 262 C 94 286 131 300 173 303 L 247 308 L 247 342 C 247 368 240 387 227 400 C 214 412 195 419 170 419 C 147 419 128 415 112 407 C 96 399 83 391 75 383 L 48 451 C 62 463 81 474 104 483 C 127 492 156 497 192 497 C 232 497 266 485 293 462 C 319 438 333 404 333 359 L 333 0 Z M 249 108 L 249 243 L 192 239 C 169 237 149 228 131 214 C 113 199 105 176 105 146 C 105 118 112 98 126 86 C 140 74 156 68 173 68 C 191 68 207 72 219 80 C 231 88 241 97 249 108 Z M 181 551 L 181 551 Z M 293 551 L 219 551 L 219 709 L 293 709 L 293 551 Z M 143 551 L 69 551 L 69 709 L 143 709 L 143 551 Z" unicode="ä" />
<glyph horiz-adv-x="373" d="M 19 0 L 19 0 Z M 333 0 L 254 0 L 254 50 C 239 32 223 19 205 9 C 187 0 165 -5 137 -5 C 103 -5 75 8 53 34 C 30 60 19 98 19 146 C 19 199 34 238 64 262 C 94 286 131 300 173 303 L 247 308 L 247 342 C 247 368 240 387 227 400 C 214 412 195 419 170 419 C 147 419 128 415 112 407 C 96 399 83 391 75 383 L 48 451 C 62 463 81 474 104 483 C 127 492 156 497 192 497 C 232 497 266 485 293 462 C 319 438 333 404 333 359 L 333 0 Z M 249 108 L 249 243 L 192 239 C 169 237 149 228 131 214 C 113 199 105 176 105 146 C 105 118 112 98 126 86 C 140 74 156 68 173 68 C 191 68 207 72 219 80 C 231 88 241 97 249 108 Z M 181 538 L 181 538 Z M 181 538 C 148 538 120 549 97 572 C 74 595 63 623 63 656 C 63 688 74 716 97 739 C 120 762 148 774 181 774 C 214 774 242 762 265 739 C 288 716 300 688 300 656 C 300 623 288 595 265 572 C 242 549 214 538 181 538 Z M 181 591 C 199 591 213 597 225 610 C 237 622 243 638 243 656 C 243 674 237 689 225 701 C 213 713 199 720 181 720 C 164 720 149 713 137 701 C 125 689 119 674 119 656 C 119 638 125 622 137 610 C 149 597 164 591 181 591 Z" unicode="å" />
<glyph horiz-adv-x="607" d="M 419 -5 C 380 -5 349 5 327 26 C 305 46 290 67 284 88 C 274 58 256 35 231 19 C 205 3 177 -5 145 -5 C 111 -5 81 8 56 34 C 31 60 19 97 19 144 C 19 196 34 235 64 260 C 94 285 131 299 173 302 L 250 307 L 250 329 C 250 363 242 387 228 400 C 214 413 194 420 170 420 C 146 420 126 415 110 407 C 94 399 82 391 74 384 L 49 451 C 63 463 81 474 103 482 C 125 490 151 494 182 494 C 209 494 234 487 257 475 C 279 463 293 443 298 417 C 306 435 320 452 340 468 C 360 484 387 492 422 492 C 474 492 514 468 544 421 C 573 373 588 307 588 222 L 334 222 C 334 172 342 135 359 109 C 375 83 399 70 430 70 C 455 70 475 75 491 87 C 506 99 520 112 533 127 L 579 79 C 565 60 545 41 521 23 C 497 4 463 -5 419 -5 Z M 332 284 L 500 284 C 499 326 491 359 477 383 C 462 407 442 419 418 419 C 393 419 373 407 358 384 C 343 360 334 327 332 284 Z M 175 68 C 194 68 211 74 227 88 C 242 101 250 120 251 145 L 251 242 L 191 238 C 168 236 148 229 131 215 C 113 201 105 178 105 147 C 105 118 112 98 127 86 C 141 74 157 68 175 68 Z" unicode="æ" />
<glyph horiz-adv-x="348" d="M 21 0 L 21 0 Z M 287 123 L 338 73 C 327 54 311 36 291 20 C 271 3 242 -5 204 -5 C 174 -5 148 1 125 13 C 102 25 83 43 68 65 C 52 87 41 113 33 143 C 25 173 21 207 21 243 C 21 276 24 308 32 339 C 40 369 51 396 67 419 C 82 441 101 459 124 473 C 147 486 174 493 205 493 C 241 493 270 484 292 467 C 314 449 331 431 342 412 L 282 360 C 274 374 264 387 252 398 C 240 408 224 414 205 414 C 177 414 155 398 139 368 C 123 337 116 297 116 247 C 116 187 125 142 144 114 C 163 85 187 71 215 71 C 235 71 250 76 261 88 C 271 100 280 111 287 123 Z M 190 0 L 190 0 Z M 195 -182 C 174 -182 153 -179 133 -173 C 113 -167 96 -159 84 -149 L 102 -113 C 110 -118 120 -124 134 -130 C 148 -136 162 -139 178 -139 C 190 -139 201 -135 211 -129 C 220 -123 225 -114 225 -104 C 225 -91 220 -82 212 -77 C 204 -72 195 -70 185 -70 C 178 -70 172 -70 166 -71 C 160 -72 155 -74 149 -77 L 137 -60 L 192 13 L 240 13 L 196 -46 C 224 -42 247 -45 267 -56 C 286 -66 296 -83 296 -107 C 296 -131 286 -149 266 -162 C 246 -175 222 -182 195 -182 Z" unicode="ç" />
<glyph horiz-adv-x="387" d="M 21 0 L 21 0 Z M 200 -5 C 146 -5 102 17 70 61 C 37 105 21 165 21 241 C 21 280 25 315 34 347 C 43 378 56 404 72 426 C 88 447 106 463 127 475 C 148 487 171 493 195 493 C 251 493 294 469 323 422 C 352 375 367 308 367 221 L 112 221 C 112 171 120 134 138 108 C 156 82 180 70 211 70 C 236 70 257 76 273 88 C 289 100 302 113 313 128 L 357 79 C 344 60 325 41 300 23 C 275 4 242 -5 200 -5 Z M 113 285 L 279 285 C 278 327 271 360 257 384 C 243 407 224 419 200 419 C 174 419 154 407 139 384 C 124 360 115 327 113 285 Z M 197 550 L 197 550 Z M 292 550 L 204 550 L 102 722 L 207 722 L 292 550 Z" unicode="è" />
<glyph horiz-adv-x="387" d="M 21 0 L 21 0 Z M 200 -5 C 146 -5 102 17 70 61 C 37 105 21 165 21 241 C 21 280 25 315 34 347 C 43 378 56 404 72 426 C 88 447 106 463 127 475 C 148 487 171 493 195 493 C 251 493 294 469 323 422 C 352 375 367 308 367 221 L 112 221 C 112 171 120 134 138 108 C 156 82 180 70 211 70 C 236 70 257 76 273 88 C 289 100 302 113 313 128 L 357 79 C 344 60 325 41 300 23 C 275 4 242 -5 200 -5 Z M 113 285 L 279 285 C 278 327 271 360 257 384 C 243 407 224 419 200 419 C 174 419 154 407 139 384 C 124 360 115 327 113 285 Z M 197 550 L 197 550 Z M 102 550 L 187 722 L 292 722 L 190 550 L 102 550 Z" unicode="é" />
<glyph horiz-adv-x="387" d="M 21 0 L 21 0 Z M 200 -5 C 146 -5 102 17 70 61 C 37 105 21 165 21 241 C 21 280 25 315 34 347 C 43 378 56 404 72 426 C 88 447 106 463 127 475 C 148 487 171 493 195 493 C 251 493 294 469 323 422 C 352 375 367 308 367 221 L 112 221 C 112 171 120 134 138 108 C 156 82 180 70 211 70 C 236 70 257 76 273 88 C 289 100 302 113 313 128 L 357 79 C 344 60 325 41 300 23 C 275 4 242 -5 200 -5 Z M 113 285 L 279 285 C 278 327 271 360 257 384 C 243 407 224 419 200 419 C 174 419 154 407 139 384 C 124 360 115 327 113 285 Z M 197 551 L 197 551 Z M 334 551 L 257 551 L 197 657 L 136 551 L 61 551 L 159 722 L 236 722 L 334 551 Z" unicode="ê" />
<glyph horiz-adv-x="387" d="M 21 0 L 21 0 Z M 200 -5 C 146 -5 102 17 70 61 C 37 105 21 165 21 241 C 21 280 25 315 34 347 C 43 378 56 404 72 426 C 88 447 106 463 127 475 C 148 487 171 493 195 493 C 251 493 294 469 323 422 C 352 375 367 308 367 221 L 112 221 C 112 171 120 134 138 108 C 156 82 180 70 211 70 C 236 70 257 76 273 88 C 289 100 302 113 313 128 L 357 79 C 344 60 325 41 300 23 C 275 4 242 -5 200 -5 Z M 113 285 L 279 285 C 278 327 271 360 257 384 C 243 407 224 419 200 419 C 174 419 154 407 139 384 C 124 360 115 327 113 285 Z M 197 551 L 197 551 Z M 309 551 L 235 551 L 235 709 L 309 709 L 309 551 Z M 159 551 L 85 551 L 85 709 L 159 709 L 159 551 Z" unicode="ë" />
<glyph horiz-adv-x="177" d="M 0 0 L 0 0 Z M 134 0 L 43 0 L 43 488 L 134 488 L 134 0 Z M 87 550 L 87 550 Z M 182 550 L 94 550 L -8 722 L 97 722 L 182 550 Z" unicode="ì" />
<glyph horiz-adv-x="177" d="M 0 0 L 0 0 Z M 134 0 L 43 0 L 43 488 L 134 488 L 134 0 Z M 87 550 L 87 550 Z M -8 550 L 77 722 L 182 722 L 80 550 L -8 550 Z" unicode="í" />
<glyph horiz-adv-x="177" d="M 0 0 L 0 0 Z M 134 0 L 43 0 L 43 488 L 134 488 L 134 0 Z M 87 551 L 87 551 Z M 224 551 L 147 551 L 87 657 L 26 551 L -49 551 L 49 722 L 126 722 L 224 551 Z" unicode="î" />
<glyph horiz-adv-x="177" d="M 0 0 L 0 0 Z M 134 0 L 43 0 L 43 488 L 134 488 L 134 0 Z M 87 551 L 87 551 Z M 199 551 L 125 551 L 125 709 L 199 709 L 199 551 Z M 49 551 L -25 551 L -25 709 L 49 709 L 49 551 Z" unicode="ï" />
<glyph horiz-adv-x="411" d="M 382 293 C 382 249 378 209 370 173 C 362 136 351 104 336 78 C 321 51 302 30 280 15 C 258 0 232 -7 203 -7 C 149 -7 105 14 71 57 C 37 99 21 160 21 238 C 21 279 25 315 35 346 C 44 377 56 403 72 423 C 87 443 105 459 125 469 C 145 479 165 485 187 485 C 213 485 235 479 253 469 C 271 458 285 443 296 424 C 292 458 286 491 276 524 C 266 557 256 588 244 617 L 168 584 L 144 649 L 213 679 C 201 701 189 720 178 736 C 166 752 157 763 150 770 L 218 800 C 226 792 235 781 247 766 C 259 751 271 732 284 710 L 347 737 L 371 672 L 314 647 C 332 605 348 554 362 495 C 375 435 382 368 382 293 Z M 200 70 C 228 70 250 84 264 112 C 278 140 285 182 285 239 C 285 300 277 344 263 370 C 248 396 226 410 198 410 C 171 410 150 395 136 367 C 122 338 115 296 115 240 C 115 180 122 137 137 110 C 152 83 173 70 200 70 Z" unicode="ð" />
<glyph horiz-adv-x="402" d="M 40 0 L 40 0 Z M 362 0 L 271 0 L 271 347 C 271 369 265 385 254 397 C 242 408 227 414 207 414 C 186 414 168 407 154 395 C 139 383 132 360 132 326 L 132 0 L 40 0 L 40 488 L 122 488 L 122 419 C 129 441 142 458 162 472 C 182 486 208 493 241 493 C 277 493 306 483 328 465 C 350 447 362 418 362 378 L 362 0 Z M 202 557 L 202 557 Z M 286 694 L 354 694 C 354 648 347 613 334 591 C 321 568 304 557 284 557 C 266 557 250 560 237 568 C 224 575 213 582 205 589 C 196 595 187 602 178 608 C 169 614 160 618 152 618 C 143 618 135 612 129 602 C 123 592 119 578 119 561 L 51 561 C 51 607 59 641 76 664 C 93 686 111 698 131 698 C 147 698 160 694 172 687 C 184 679 195 672 206 664 C 214 657 222 651 230 645 C 238 639 246 637 255 637 C 263 637 270 641 276 651 C 282 661 286 675 286 694 Z" unicode="ñ" />
<glyph horiz-adv-x="400" d="M 21 0 L 21 0 Z M 201 -5 C 149 -5 106 16 72 58 C 38 100 21 161 21 243 C 21 319 37 379 69 425 C 101 470 143 493 195 493 C 251 493 295 472 329 430 C 363 388 380 330 380 256 C 380 176 364 113 332 66 C 300 18 256 -5 201 -5 Z M 201 71 C 228 71 249 85 263 113 C 277 141 284 186 284 247 C 284 307 276 350 262 376 C 247 402 226 416 198 416 C 172 416 152 402 138 376 C 123 349 116 306 116 247 C 116 182 123 136 139 110 C 155 84 175 71 201 71 Z M 201 550 L 201 550 Z M 296 550 L 208 550 L 106 722 L 211 722 L 296 550 Z" unicode="ò" />
<glyph horiz-adv-x="400" d="M 21 0 L 21 0 Z M 201 -5 C 149 -5 106 16 72 58 C 38 100 21 161 21 243 C 21 319 37 379 69 425 C 101 470 143 493 195 493 C 251 493 295 472 329 430 C 363 388 380 330 380 256 C 380 176 364 113 332 66 C 300 18 256 -5 201 -5 Z M 201 71 C 228 71 249 85 263 113 C 277 141 284 186 284 247 C 284 307 276 350 262 376 C 247 402 226 416 198 416 C 172 416 152 402 138 376 C 123 349 116 306 116 247 C 116 182 123 136 139 110 C 155 84 175 71 201 71 Z M 201 550 L 201 550 Z M 106 550 L 191 722 L 296 722 L 194 550 L 106 550 Z" unicode="ó" />
<glyph horiz-adv-x="400" d="M 21 0 L 21 0 Z M 201 -5 C 149 -5 106 16 72 58 C 38 100 21 161 21 243 C 21 319 37 379 69 425 C 101 470 143 493 195 493 C 251 493 295 472 329 430 C 363 388 380 330 380 256 C 380 176 364 113 332 66 C 300 18 256 -5 201 -5 Z M 201 71 C 228 71 249 85 263 113 C 277 141 284 186 284 247 C 284 307 276 350 262 376 C 247 402 226 416 198 416 C 172 416 152 402 138 376 C 123 349 116 306 116 247 C 116 182 123 136 139 110 C 155 84 175 71 201 71 Z M 201 551 L 201 551 Z M 338 551 L 261 551 L 201 657 L 140 551 L 65 551 L 163 722 L 240 722 L 338 551 Z" unicode="ô" />
<glyph horiz-adv-x="400" d="M 21 0 L 21 0 Z M 201 -5 C 149 -5 106 16 72 58 C 38 100 21 161 21 243 C 21 319 37 379 69 425 C 101 470 143 493 195 493 C 251 493 295 472 329 430 C 363 388 380 330 380 256 C 380 176 364 113 332 66 C 300 18 256 -5 201 -5 Z M 201 71 C 228 71 249 85 263 113 C 277 141 284 186 284 247 C 284 307 276 350 262 376 C 247 402 226 416 198 416 C 172 416 152 402 138 376 C 123 349 116 306 116 247 C 116 182 123 136 139 110 C 155 84 175 71 201 71 Z M 201 557 L 201 557 Z M 285 694 L 353 694 C 353 648 346 613 333 591 C 320 568 303 557 283 557 C 265 557 249 560 236 568 C 223 575 212 582 204 589 C 195 595 186 602 177 608 C 168 614 159 618 151 618 C 142 618 134 612 128 602 C 122 592 118 578 118 561 L 50 561 C 50 607 58 641 75 664 C 92 686 110 698 130 698 C 146 698 159 694 171 687 C 183 679 194 672 205 664 C 213 657 221 651 229 645 C 237 639 245 637 254 637 C 262 637 269 641 275 651 C 281 661 285 675 285 694 Z" unicode="õ" />
<glyph horiz-adv-x="400" d="M 21 0 L 21 0 Z M 201 -5 C 149 -5 106 16 72 58 C 38 100 21 161 21 243 C 21 319 37 379 69 425 C 101 470 143 493 195 493 C 251 493 295 472 329 430 C 363 388 380 330 380 256 C 380 176 364 113 332 66 C 300 18 256 -5 201 -5 Z M 201 71 C 228 71 249 85 263 113 C 277 141 284 186 284 247 C 284 307 276 350 262 376 C 247 402 226 416 198 416 C 172 416 152 402 138 376 C 123 349 116 306 116 247 C 116 182 123 136 139 110 C 155 84 175 71 201 71 Z M 201 551 L 201 551 Z M 313 551 L 239 551 L 239 709 L 313 709 L 313 551 Z M 163 551 L 89 551 L 89 709 L 163 709 L 163 551 Z" unicode="ö" />
<glyph horiz-adv-x="485" d="M 199 448 L 199 564 L 286 564 L 286 448 L 199 448 Z M 25 291 L 25 370 L 460 370 L 460 291 L 25 291 Z M 199 97 L 199 213 L 286 213 L 286 97 L 199 97 Z" unicode="÷" />
<glyph horiz-adv-x="400" d="M 380 256 C 380 176 364 113 332 66 C 300 18 256 -5 201 -5 C 179 -5 159 -1 141 5 C 122 12 105 23 91 37 L 65 -2 L 33 22 L 64 69 C 50 89 40 114 32 143 C 24 172 21 205 21 243 C 21 319 37 379 69 425 C 101 470 143 493 195 493 C 218 493 240 489 260 481 C 280 473 298 462 313 448 L 341 490 L 373 467 L 340 416 C 352 396 362 372 369 345 C 376 318 380 288 380 256 Z M 116 247 C 116 229 116 213 118 199 C 119 184 121 171 123 159 L 264 373 C 256 387 247 398 236 405 C 225 412 212 416 198 416 C 172 416 152 402 138 376 C 123 349 116 306 116 247 Z M 284 247 C 284 261 283 275 282 288 C 281 300 280 312 279 323 L 139 111 C 146 97 155 86 166 80 C 176 74 188 71 201 71 C 228 71 249 85 263 113 C 277 141 284 186 284 247 Z" unicode="ø" />
<glyph horiz-adv-x="402" d="M 39 0 L 39 0 Z M 39 488 L 131 488 L 131 146 C 131 119 137 99 149 87 C 161 74 177 68 198 68 C 216 68 233 75 248 89 C 262 103 270 128 270 166 L 270 488 L 361 488 L 361 0 L 277 0 L 277 64 C 270 44 256 28 236 14 C 216 0 191 -6 161 -6 C 128 -6 99 4 75 25 C 51 45 39 78 39 122 L 39 488 Z M 200 550 L 200 550 Z M 295 550 L 207 550 L 105 722 L 210 722 L 295 550 Z" unicode="ù" />
<glyph horiz-adv-x="402" d="M 39 0 L 39 0 Z M 39 488 L 131 488 L 131 146 C 131 119 137 99 149 87 C 161 74 177 68 198 68 C 216 68 233 75 248 89 C 262 103 270 128 270 166 L 270 488 L 361 488 L 361 0 L 277 0 L 277 64 C 270 44 256 28 236 14 C 216 0 191 -6 161 -6 C 128 -6 99 4 75 25 C 51 45 39 78 39 122 L 39 488 Z M 200 550 L 200 550 Z M 105 550 L 190 722 L 295 722 L 193 550 L 105 550 Z" unicode="ú" />
<glyph horiz-adv-x="402" d="M 39 0 L 39 0 Z M 39 488 L 131 488 L 131 146 C 131 119 137 99 149 87 C 161 74 177 68 198 68 C 216 68 233 75 248 89 C 262 103 270 128 270 166 L 270 488 L 361 488 L 361 0 L 277 0 L 277 64 C 270 44 256 28 236 14 C 216 0 191 -6 161 -6 C 128 -6 99 4 75 25 C 51 45 39 78 39 122 L 39 488 Z M 200 551 L 200 551 Z M 337 551 L 260 551 L 200 657 L 139 551 L 64 551 L 162 722 L 239 722 L 337 551 Z" unicode="û" />
<glyph horiz-adv-x="402" d="M 39 0 L 39 0 Z M 39 488 L 131 488 L 131 146 C 131 119 137 99 149 87 C 161 74 177 68 198 68 C 216 68 233 75 248 89 C 262 103 270 128 270 166 L 270 488 L 361 488 L 361 0 L 277 0 L 277 64 C 270 44 256 28 236 14 C 216 0 191 -6 161 -6 C 128 -6 99 4 75 25 C 51 45 39 78 39 122 L 39 488 Z M 200 551 L 200 551 Z M 312 551 L 238 551 L 238 709 L 312 709 L 312 551 Z M 162 551 L 88 551 L 88 709 L 162 709 L 162 551 Z" unicode="ü" />
<glyph horiz-adv-x="339" d="M 0 0 L 0 0 Z M 343 488 L 175 -102 C 165 -134 149 -159 127 -175 C 105 -191 80 -200 53 -200 C 33 -200 16 -197 2 -193 C -11 -189 -21 -184 -27 -180 L 6 -110 C 8 -112 14 -115 24 -118 C 33 -120 42 -122 51 -122 C 62 -122 72 -117 82 -108 C 92 -99 99 -85 104 -67 L 131 39 L -4 488 L 91 488 L 176 168 L 256 488 L 343 488 Z M 173 550 L 173 550 Z M 78 550 L 163 722 L 268 722 L 166 550 L 78 550 Z" unicode="ý" />
<glyph horiz-adv-x="406" d="M 40 -200 L 40 795 L 125 795 L 125 402 C 131 426 145 448 166 466 C 186 484 212 493 242 493 C 266 493 288 487 306 475 C 324 463 339 446 351 426 C 363 405 371 380 377 352 C 383 324 386 293 386 260 C 386 176 372 111 345 65 C 318 19 281 -4 235 -4 C 207 -4 184 2 165 15 C 146 27 133 43 127 61 L 127 -200 L 40 -200 Z M 202 67 C 229 67 250 81 266 109 C 282 137 290 180 290 239 C 290 293 283 335 270 366 C 257 397 236 413 206 413 C 184 413 165 400 148 376 C 131 352 123 304 123 233 C 123 166 130 122 145 100 C 160 78 179 67 202 67 Z" unicode="þ" />
<glyph horiz-adv-x="339" d="M 0 0 L 0 0 Z M 343 488 L 175 -102 C 165 -134 149 -159 127 -175 C 105 -191 80 -200 53 -200 C 33 -200 16 -197 2 -193 C -11 -189 -21 -184 -27 -180 L 6 -110 C 8 -112 14 -115 24 -118 C 33 -120 42 -122 51 -122 C 62 -122 72 -117 82 -108 C 92 -99 99 -85 104 -67 L 131 39 L -4 488 L 91 488 L 176 168 L 256 488 L 343 488 Z M 173 551 L 173 551 Z M 285 551 L 211 551 L 211 709 L 285 709 L 285 551 Z M 135 551 L 61 551 L 61 709 L 135 709 L 135 551 Z" unicode="ÿ" />
<glyph horiz-adv-x="479" d="M 1 0 L 1 0 Z M 478 0 L 383 0 L 334 177 L 139 177 L 94 0 L 1 0 L 205 734 L 274 734 L 478 0 Z M 320 255 L 237 555 L 155 255 L 320 255 Z M 237 812 L 237 812 Z M 358 812 L 116 812 L 116 885 L 358 885 L 358 812 Z" unicode="Ā" />
<glyph horiz-adv-x="373" d="M 19 0 L 19 0 Z M 333 0 L 254 0 L 254 50 C 239 32 223 19 205 9 C 187 0 165 -5 137 -5 C 103 -5 75 8 53 34 C 30 60 19 98 19 146 C 19 199 34 238 64 262 C 94 286 131 300 173 303 L 247 308 L 247 342 C 247 368 240 387 227 400 C 214 412 195 419 170 419 C 147 419 128 415 112 407 C 96 399 83 391 75 383 L 48 451 C 62 463 81 474 104 483 C 127 492 156 497 192 497 C 232 497 266 485 293 462 C 319 438 333 404 333 359 L 333 0 Z M 249 108 L 249 243 L 192 239 C 169 237 149 228 131 214 C 113 199 105 176 105 146 C 105 118 112 98 126 86 C 140 74 156 68 173 68 C 191 68 207 72 219 80 C 231 88 241 97 249 108 Z M 181 570 L 181 570 Z M 302 570 L 60 570 L 60 643 L 302 643 L 302 570 Z" unicode="ā" />
<glyph horiz-adv-x="479" d="M 1 0 L 1 0 Z M 478 0 L 383 0 L 334 177 L 139 177 L 94 0 L 1 0 L 205 734 L 274 734 L 478 0 Z M 320 255 L 237 555 L 155 255 L 320 255 Z M 237 797 L 237 797 Z M 293 955 L 369 955 C 365 900 352 860 328 835 C 304 809 273 797 237 797 C 200 797 170 809 146 835 C 122 860 108 900 106 955 L 182 955 C 183 928 187 907 195 891 C 203 875 217 868 237 868 C 257 868 271 875 279 890 C 287 905 291 927 293 955 Z" unicode="Ă" />
<glyph horiz-adv-x="373" d="M 19 0 L 19 0 Z M 333 0 L 254 0 L 254 50 C 239 32 223 19 205 9 C 187 0 165 -5 137 -5 C 103 -5 75 8 53 34 C 30 60 19 98 19 146 C 19 199 34 238 64 262 C 94 286 131 300 173 303 L 247 308 L 247 342 C 247 368 240 387 227 400 C 214 412 195 419 170 419 C 147 419 128 415 112 407 C 96 399 83 391 75 383 L 48 451 C 62 463 81 474 104 483 C 127 492 156 497 192 497 C 232 497 266 485 293 462 C 319 438 333 404 333 359 L 333 0 Z M 249 108 L 249 243 L 192 239 C 169 237 149 228 131 214 C 113 199 105 176 105 146 C 105 118 112 98 126 86 C 140 74 156 68 173 68 C 191 68 207 72 219 80 C 231 88 241 97 249 108 Z M 181 555 L 181 555 Z M 237 713 L 313 713 C 309 658 296 618 272 593 C 248 567 217 555 181 555 C 144 555 114 567 90 593 C 66 618 52 658 50 713 L 126 713 C 127 686 131 665 139 649 C 147 633 161 626 181 626 C 201 626 215 633 223 648 C 231 663 235 685 237 713 Z" unicode="ă" />
<glyph horiz-adv-x="479" d="M 1 0 L 1 0 Z M 478 0 L 383 0 L 334 177 L 139 177 L 94 0 L 1 0 L 205 734 L 274 734 L 478 0 Z M 320 255 L 237 555 L 155 255 L 320 255 Z M 395 -9 L 395 -9 Z M 490 -96 L 517 -135 C 497 -155 475 -171 452 -182 C 428 -193 402 -199 374 -199 C 342 -199 317 -191 299 -177 C 281 -162 272 -143 272 -121 C 272 -96 281 -73 300 -51 C 318 -29 348 -11 388 4 L 445 4 C 417 -8 395 -22 378 -38 C 360 -53 352 -68 352 -84 C 352 -98 356 -109 366 -117 C 376 -125 388 -130 404 -130 C 421 -130 437 -126 452 -120 C 466 -114 479 -106 490 -96 Z" unicode="Ą" />
<glyph horiz-adv-x="373" d="M 19 0 L 19 0 Z M 333 0 L 254 0 L 254 50 C 239 32 223 19 205 9 C 187 0 165 -5 137 -5 C 103 -5 75 8 53 34 C 30 60 19 98 19 146 C 19 199 34 238 64 262 C 94 286 131 300 173 303 L 247 308 L 247 342 C 247 368 240 387 227 400 C 214 412 195 419 170 419 C 147 419 128 415 112 407 C 96 399 83 391 75 383 L 48 451 C 62 463 81 474 104 483 C 127 492 156 497 192 497 C 232 497 266 485 293 462 C 319 438 333 404 333 359 L 333 0 Z M 249 108 L 249 243 L 192 239 C 169 237 149 228 131 214 C 113 199 105 176 105 146 C 105 118 112 98 126 86 C 140 74 156 68 173 68 C 191 68 207 72 219 80 C 231 88 241 97 249 108 Z M 266 -9 L 266 -9 Z M 361 -96 L 388 -135 C 368 -155 346 -171 323 -182 C 299 -193 273 -199 245 -199 C 213 -199 188 -191 170 -177 C 152 -162 143 -143 143 -121 C 143 -96 152 -73 171 -51 C 189 -29 219 -11 259 4 L 316 4 C 288 -8 266 -22 249 -38 C 231 -53 223 -68 223 -84 C 223 -98 227 -109 237 -117 C 247 -125 259 -130 275 -130 C 292 -130 308 -126 323 -120 C 337 -114 350 -106 361 -96 Z" unicode="ą" />
<glyph horiz-adv-x="505" d="M 34 0 L 34 0 Z M 277 -7 C 241 -7 209 0 179 16 C 149 31 123 54 102 85 C 80 115 64 154 52 201 C 40 248 34 303 34 366 C 34 483 55 574 97 639 C 139 704 199 737 278 737 C 339 737 384 722 414 693 C 444 663 465 628 478 586 L 390 554 C 380 580 366 602 350 620 C 334 638 310 648 279 648 C 233 648 198 626 172 583 C 146 539 134 466 134 362 C 134 309 138 265 147 229 C 155 193 167 164 181 142 C 195 120 211 104 229 95 C 247 85 266 81 285 81 C 319 81 345 90 363 109 C 381 127 395 152 406 183 L 487 148 C 470 100 445 62 411 34 C 377 6 332 -7 277 -7 Z M 281 792 L 281 792 Z M 186 792 L 271 964 L 376 964 L 274 792 L 186 792 Z" unicode="Ć" />
<glyph horiz-adv-x="348" d="M 21 0 L 21 0 Z M 287 123 L 338 73 C 327 54 311 36 291 20 C 271 3 242 -5 204 -5 C 174 -5 148 1 125 13 C 102 25 83 43 68 65 C 52 87 41 113 33 143 C 25 173 21 207 21 243 C 21 276 24 308 32 339 C 40 369 51 396 67 419 C 82 441 101 459 124 473 C 147 486 174 493 205 493 C 241 493 270 484 292 467 C 314 449 331 431 342 412 L 282 360 C 274 374 264 387 252 398 C 240 408 224 414 205 414 C 177 414 155 398 139 368 C 123 337 116 297 116 247 C 116 187 125 142 144 114 C 163 85 187 71 215 71 C 235 71 250 76 261 88 C 271 100 280 111 287 123 Z M 197 550 L 197 550 Z M 102 550 L 187 722 L 292 722 L 190 550 L 102 550 Z" unicode="ć" />
<glyph horiz-adv-x="505" d="M 34 0 L 34 0 Z M 277 -7 C 241 -7 209 0 179 16 C 149 31 123 54 102 85 C 80 115 64 154 52 201 C 40 248 34 303 34 366 C 34 483 55 574 97 639 C 139 704 199 737 278 737 C 339 737 384 722 414 693 C 444 663 465 628 478 586 L 390 554 C 380 580 366 602 350 620 C 334 638 310 648 279 648 C 233 648 198 626 172 583 C 146 539 134 466 134 362 C 134 309 138 265 147 229 C 155 193 167 164 181 142 C 195 120 211 104 229 95 C 247 85 266 81 285 81 C 319 81 345 90 363 109 C 381 127 395 152 406 183 L 487 148 C 470 100 445 62 411 34 C 377 6 332 -7 277 -7 Z M 281 793 L 281 793 Z M 418 793 L 341 793 L 281 899 L 220 793 L 145 793 L 243 964 L 320 964 L 418 793 Z" unicode="Ĉ" />
<glyph horiz-adv-x="348" d="M 21 0 L 21 0 Z M 287 123 L 338 73 C 327 54 311 36 291 20 C 271 3 242 -5 204 -5 C 174 -5 148 1 125 13 C 102 25 83 43 68 65 C 52 87 41 113 33 143 C 25 173 21 207 21 243 C 21 276 24 308 32 339 C 40 369 51 396 67 419 C 82 441 101 459 124 473 C 147 486 174 493 205 493 C 241 493 270 484 292 467 C 314 449 331 431 342 412 L 282 360 C 274 374 264 387 252 398 C 240 408 224 414 205 414 C 177 414 155 398 139 368 C 123 337 116 297 116 247 C 116 187 125 142 144 114 C 163 85 187 71 215 71 C 235 71 250 76 261 88 C 271 100 280 111 287 123 Z M 197 551 L 197 551 Z M 334 551 L 257 551 L 197 657 L 136 551 L 61 551 L 159 722 L 236 722 L 334 551 Z" unicode="ĉ" />
<glyph horiz-adv-x="505" d="M 34 0 L 34 0 Z M 277 -7 C 241 -7 209 0 179 16 C 149 31 123 54 102 85 C 80 115 64 154 52 201 C 40 248 34 303 34 366 C 34 483 55 574 97 639 C 139 704 199 737 278 737 C 339 737 384 722 414 693 C 444 663 465 628 478 586 L 390 554 C 380 580 366 602 350 620 C 334 638 310 648 279 648 C 233 648 198 626 172 583 C 146 539 134 466 134 362 C 134 309 138 265 147 229 C 155 193 167 164 181 142 C 195 120 211 104 229 95 C 247 85 266 81 285 81 C 319 81 345 90 363 109 C 381 127 395 152 406 183 L 487 148 C 470 100 445 62 411 34 C 377 6 332 -7 277 -7 Z M 281 804 L 281 804 Z M 324 804 L 239 804 L 239 922 L 324 922 L 324 804 Z" unicode="Ċ" />
<glyph horiz-adv-x="348" d="M 21 0 L 21 0 Z M 287 123 L 338 73 C 327 54 311 36 291 20 C 271 3 242 -5 204 -5 C 174 -5 148 1 125 13 C 102 25 83 43 68 65 C 52 87 41 113 33 143 C 25 173 21 207 21 243 C 21 276 24 308 32 339 C 40 369 51 396 67 419 C 82 441 101 459 124 473 C 147 486 174 493 205 493 C 241 493 270 484 292 467 C 314 449 331 431 342 412 L 282 360 C 274 374 264 387 252 398 C 240 408 224 414 205 414 C 177 414 155 398 139 368 C 123 337 116 297 116 247 C 116 187 125 142 144 114 C 163 85 187 71 215 71 C 235 71 250 76 261 88 C 271 100 280 111 287 123 Z M 197 562 L 197 562 Z M 240 562 L 155 562 L 155 680 L 240 680 L 240 562 Z" unicode="ċ" />
<glyph horiz-adv-x="505" d="M 34 0 L 34 0 Z M 277 -7 C 241 -7 209 0 179 16 C 149 31 123 54 102 85 C 80 115 64 154 52 201 C 40 248 34 303 34 366 C 34 483 55 574 97 639 C 139 704 199 737 278 737 C 339 737 384 722 414 693 C 444 663 465 628 478 586 L 390 554 C 380 580 366 602 350 620 C 334 638 310 648 279 648 C 233 648 198 626 172 583 C 146 539 134 466 134 362 C 134 309 138 265 147 229 C 155 193 167 164 181 142 C 195 120 211 104 229 95 C 247 85 266 81 285 81 C 319 81 345 90 363 109 C 381 127 395 152 406 183 L 487 148 C 470 100 445 62 411 34 C 377 6 332 -7 277 -7 Z M 281 793 L 281 793 Z M 145 964 L 222 964 L 282 857 L 343 964 L 418 964 L 320 793 L 243 793 L 145 964 Z" unicode="Č" />
<glyph horiz-adv-x="348" d="M 21 0 L 21 0 Z M 287 123 L 338 73 C 327 54 311 36 291 20 C 271 3 242 -5 204 -5 C 174 -5 148 1 125 13 C 102 25 83 43 68 65 C 52 87 41 113 33 143 C 25 173 21 207 21 243 C 21 276 24 308 32 339 C 40 369 51 396 67 419 C 82 441 101 459 124 473 C 147 486 174 493 205 493 C 241 493 270 484 292 467 C 314 449 331 431 342 412 L 282 360 C 274 374 264 387 252 398 C 240 408 224 414 205 414 C 177 414 155 398 139 368 C 123 337 116 297 116 247 C 116 187 125 142 144 114 C 163 85 187 71 215 71 C 235 71 250 76 261 88 C 271 100 280 111 287 123 Z M 197 551 L 197 551 Z M 61 722 L 138 722 L 198 615 L 259 722 L 334 722 L 236 551 L 159 551 L 61 722 Z" unicode="č" />
<glyph horiz-adv-x="538" d="M 59 0 L 59 0 Z M 59 0 L 59 730 L 221 730 C 267 730 307 721 343 704 C 378 686 408 662 432 630 C 456 598 474 560 486 515 C 498 469 505 419 505 364 C 505 313 499 265 487 221 C 475 176 457 137 433 105 C 409 73 378 47 342 28 C 305 9 262 0 213 0 L 59 0 Z M 158 85 L 215 85 C 283 85 331 110 360 160 C 389 210 404 278 404 362 C 404 458 388 529 356 575 C 324 621 279 644 223 644 L 158 644 L 158 85 Z M 248 793 L 248 793 Z M 112 964 L 189 964 L 249 857 L 310 964 L 385 964 L 287 793 L 210 793 L 112 964 Z" unicode="Ď" />
<glyph horiz-adv-x="420" d="M 21 0 L 21 0 Z M 178 -5 C 154 -5 132 1 113 13 C 93 25 77 42 63 64 C 49 86 39 112 32 142 C 24 172 21 204 21 239 C 21 316 36 377 66 423 C 96 468 134 491 180 491 C 210 491 234 481 254 463 C 273 445 286 423 293 399 L 293 795 L 379 795 L 379 0 L 297 0 L 297 71 C 291 53 278 35 260 19 C 241 3 214 -5 178 -5 Z M 207 69 C 233 69 255 83 271 113 C 287 143 295 187 295 247 C 295 305 286 347 268 373 C 250 399 229 412 204 412 C 177 412 156 398 140 370 C 124 342 117 299 117 243 C 117 187 124 144 140 114 C 156 84 178 69 207 69 Z M 508 621 L 504 483 L 426 483 L 421 621 L 421 730 L 508 730 L 508 621 Z" unicode="ď" />
<glyph horiz-adv-x="538" d="M 18 0 L 18 0 Z M 505 363 C 505 312 499 264 487 220 C 475 176 457 137 433 105 C 409 73 378 47 342 28 C 305 9 262 0 213 0 L 59 0 L 59 324 L 18 324 L 18 399 L 59 399 L 59 730 L 221 730 C 267 730 307 721 343 704 C 378 686 408 662 432 630 C 456 598 474 559 486 514 C 498 468 505 418 505 363 Z M 158 77 L 215 77 C 283 77 331 103 360 155 C 389 207 404 275 404 361 C 404 460 388 533 356 581 C 324 629 279 653 223 653 L 158 653 L 158 399 L 297 399 L 297 324 L 158 324 L 158 77 Z" unicode="Đ" />
<glyph horiz-adv-x="420" d="M 297 71 C 291 53 278 35 260 19 C 241 3 214 -5 178 -5 C 154 -5 132 1 113 13 C 93 25 77 42 63 64 C 49 86 39 112 32 142 C 24 172 21 204 21 239 C 21 316 36 377 66 423 C 96 468 134 491 180 491 C 210 491 234 481 254 463 C 273 445 286 423 293 399 L 293 596 L 199 596 L 199 675 L 293 675 L 293 795 L 379 795 L 379 675 L 415 675 L 415 596 L 379 596 L 379 0 L 297 0 L 297 71 Z M 207 69 C 233 69 255 83 271 113 C 287 143 295 187 295 247 C 295 305 286 347 268 373 C 250 399 229 412 204 412 C 177 412 156 398 140 370 C 124 342 117 299 117 243 C 117 187 124 144 140 114 C 156 84 178 69 207 69 Z" unicode="đ" />
<glyph horiz-adv-x="393" d="M 59 0 L 59 0 Z M 382 0 L 59 0 L 59 730 L 364 730 L 364 641 L 157 641 L 157 409 L 356 409 L 356 321 L 157 321 L 157 89 L 382 89 L 382 0 Z M 211 812 L 211 812 Z M 332 812 L 90 812 L 90 885 L 332 885 L 332 812 Z" unicode="Ē" />
<glyph horiz-adv-x="387" d="M 21 0 L 21 0 Z M 200 -5 C 146 -5 102 17 70 61 C 37 105 21 165 21 241 C 21 280 25 315 34 347 C 43 378 56 404 72 426 C 88 447 106 463 127 475 C 148 487 171 493 195 493 C 251 493 294 469 323 422 C 352 375 367 308 367 221 L 112 221 C 112 171 120 134 138 108 C 156 82 180 70 211 70 C 236 70 257 76 273 88 C 289 100 302 113 313 128 L 357 79 C 344 60 325 41 300 23 C 275 4 242 -5 200 -5 Z M 113 285 L 279 285 C 278 327 271 360 257 384 C 243 407 224 419 200 419 C 174 419 154 407 139 384 C 124 360 115 327 113 285 Z M 197 570 L 197 570 Z M 318 570 L 76 570 L 76 643 L 318 643 L 318 570 Z" unicode="ē" />
<glyph horiz-adv-x="393" d="M 59 0 L 59 0 Z M 382 0 L 59 0 L 59 730 L 364 730 L 364 641 L 157 641 L 157 409 L 356 409 L 356 321 L 157 321 L 157 89 L 382 89 L 382 0 Z M 211 797 L 211 797 Z M 267 955 L 343 955 C 339 900 326 860 302 835 C 278 809 247 797 211 797 C 174 797 144 809 120 835 C 96 860 82 900 80 955 L 156 955 C 157 928 161 907 169 891 C 177 875 191 868 211 868 C 231 868 245 875 253 890 C 261 905 265 927 267 955 Z" unicode="Ĕ" />
<glyph horiz-adv-x="387" d="M 21 0 L 21 0 Z M 200 -5 C 146 -5 102 17 70 61 C 37 105 21 165 21 241 C 21 280 25 315 34 347 C 43 378 56 404 72 426 C 88 447 106 463 127 475 C 148 487 171 493 195 493 C 251 493 294 469 323 422 C 352 375 367 308 367 221 L 112 221 C 112 171 120 134 138 108 C 156 82 180 70 211 70 C 236 70 257 76 273 88 C 289 100 302 113 313 128 L 357 79 C 344 60 325 41 300 23 C 275 4 242 -5 200 -5 Z M 113 285 L 279 285 C 278 327 271 360 257 384 C 243 407 224 419 200 419 C 174 419 154 407 139 384 C 124 360 115 327 113 285 Z M 197 555 L 197 555 Z M 253 713 L 329 713 C 325 658 312 618 288 593 C 264 567 233 555 197 555 C 160 555 130 567 106 593 C 82 618 68 658 66 713 L 142 713 C 143 686 147 665 155 649 C 163 633 177 626 197 626 C 217 626 231 633 239 648 C 247 663 251 685 253 713 Z" unicode="ĕ" />
<glyph horiz-adv-x="393" d="M 59 0 L 59 0 Z M 382 0 L 59 0 L 59 730 L 364 730 L 364 641 L 157 641 L 157 409 L 356 409 L 356 321 L 157 321 L 157 89 L 382 89 L 382 0 Z M 211 804 L 211 804 Z M 254 804 L 169 804 L 169 922 L 254 922 L 254 804 Z" unicode="Ė" />
<glyph horiz-adv-x="387" d="M 21 0 L 21 0 Z M 200 -5 C 146 -5 102 17 70 61 C 37 105 21 165 21 241 C 21 280 25 315 34 347 C 43 378 56 404 72 426 C 88 447 106 463 127 475 C 148 487 171 493 195 493 C 251 493 294 469 323 422 C 352 375 367 308 367 221 L 112 221 C 112 171 120 134 138 108 C 156 82 180 70 211 70 C 236 70 257 76 273 88 C 289 100 302 113 313 128 L 357 79 C 344 60 325 41 300 23 C 275 4 242 -5 200 -5 Z M 113 285 L 279 285 C 278 327 271 360 257 384 C 243 407 224 419 200 419 C 174 419 154 407 139 384 C 124 360 115 327 113 285 Z M 197 562 L 197 562 Z M 240 562 L 155 562 L 155 680 L 240 680 L 240 562 Z" unicode="ė" />
<glyph horiz-adv-x="393" d="M 59 0 L 59 0 Z M 382 0 L 59 0 L 59 730 L 364 730 L 364 641 L 157 641 L 157 409 L 356 409 L 356 321 L 157 321 L 157 89 L 382 89 L 382 0 Z M 331 -9 L 331 -9 Z M 426 -96 L 453 -135 C 433 -155 411 -171 388 -182 C 364 -193 338 -199 310 -199 C 278 -199 253 -191 235 -177 C 217 -162 208 -143 208 -121 C 208 -96 217 -73 236 -51 C 254 -29 284 -11 324 4 L 381 4 C 353 -8 331 -22 314 -38 C 296 -53 288 -68 288 -84 C 288 -98 292 -109 302 -117 C 312 -125 324 -130 340 -130 C 357 -130 373 -126 388 -120 C 402 -114 415 -106 426 -96 Z" unicode="Ę" />
<glyph horiz-adv-x="387" d="M 21 0 L 21 0 Z M 200 -5 C 146 -5 102 17 70 61 C 37 105 21 165 21 241 C 21 280 25 315 34 347 C 43 378 56 404 72 426 C 88 447 106 463 127 475 C 148 487 171 493 195 493 C 251 493 294 469 323 422 C 352 375 367 308 367 221 L 112 221 C 112 171 120 134 138 108 C 156 82 180 70 211 70 C 236 70 257 76 273 88 C 289 100 302 113 313 128 L 357 79 C 344 60 325 41 300 23 C 275 4 242 -5 200 -5 Z M 113 285 L 279 285 C 278 327 271 360 257 384 C 243 407 224 419 200 419 C 174 419 154 407 139 384 C 124 360 115 327 113 285 Z M 210 -9 L 210 -9 Z M 305 -96 L 332 -135 C 312 -155 290 -171 267 -182 C 243 -193 217 -199 189 -199 C 157 -199 132 -191 114 -177 C 96 -162 87 -143 87 -121 C 87 -96 96 -73 115 -51 C 133 -29 163 -11 203 4 L 260 4 C 232 -8 210 -22 193 -38 C 175 -53 167 -68 167 -84 C 167 -98 171 -109 181 -117 C 191 -125 203 -130 219 -130 C 236 -130 252 -126 267 -120 C 281 -114 294 -106 305 -96 Z" unicode="ę" />
<glyph horiz-adv-x="393" d="M 59 0 L 59 0 Z M 382 0 L 59 0 L 59 730 L 364 730 L 364 641 L 157 641 L 157 409 L 356 409 L 356 321 L 157 321 L 157 89 L 382 89 L 382 0 Z M 211 793 L 211 793 Z M 75 964 L 152 964 L 212 857 L 273 964 L 348 964 L 250 793 L 173 793 L 75 964 Z" unicode="Ě" />
<glyph horiz-adv-x="387" d="M 21 0 L 21 0 Z M 200 -5 C 146 -5 102 17 70 61 C 37 105 21 165 21 241 C 21 280 25 315 34 347 C 43 378 56 404 72 426 C 88 447 106 463 127 475 C 148 487 171 493 195 493 C 251 493 294 469 323 422 C 352 375 367 308 367 221 L 112 221 C 112 171 120 134 138 108 C 156 82 180 70 211 70 C 236 70 257 76 273 88 C 289 100 302 113 313 128 L 357 79 C 344 60 325 41 300 23 C 275 4 242 -5 200 -5 Z M 113 285 L 279 285 C 278 327 271 360 257 384 C 243 407 224 419 200 419 C 174 419 154 407 139 384 C 124 360 115 327 113 285 Z M 197 551 L 197 551 Z M 61 722 L 138 722 L 198 615 L 259 722 L 334 722 L 236 551 L 159 551 L 61 722 Z" unicode="ě" />
<glyph horiz-adv-x="533" d="M 34 0 L 34 0 Z M 278 363 L 502 363 L 502 117 C 483 80 455 50 419 27 C 382 4 336 -7 280 -7 C 246 -7 215 1 185 18 C 155 34 128 58 106 90 C 84 121 66 160 53 207 C 40 253 34 306 34 365 C 34 421 39 473 51 519 C 63 565 79 604 101 636 C 123 668 149 693 180 711 C 210 728 244 737 282 737 C 339 737 383 723 414 697 C 445 670 468 639 483 603 L 400 560 C 389 584 375 605 357 622 C 339 639 314 648 284 648 C 239 648 203 625 175 579 C 147 533 134 460 134 362 C 134 263 148 191 177 145 C 206 99 241 76 283 76 C 314 76 340 81 362 92 C 383 102 400 119 412 141 L 412 279 L 278 279 L 278 363 Z M 281 793 L 281 793 Z M 418 793 L 341 793 L 281 899 L 220 793 L 145 793 L 243 964 L 320 964 L 418 793 Z" unicode="Ĝ" />
<glyph horiz-adv-x="418" d="M 22 0 L 22 0 Z M 181 5 C 134 5 96 26 66 69 C 36 112 22 171 22 245 C 22 323 37 383 68 427 C 99 470 136 492 180 492 C 209 492 233 483 253 466 C 272 448 286 429 295 408 L 295 488 L 377 488 L 377 9 C 377 -26 371 -57 361 -83 C 350 -109 336 -130 319 -147 C 301 -163 281 -176 259 -184 C 236 -192 213 -197 190 -197 C 157 -197 130 -193 109 -187 C 87 -180 71 -173 61 -166 L 88 -97 C 100 -103 113 -107 129 -111 C 144 -115 163 -117 186 -117 C 216 -117 241 -105 261 -83 C 281 -61 291 -29 291 13 L 291 90 C 283 68 270 48 252 31 C 233 13 209 5 181 5 Z M 206 77 C 232 77 254 90 270 118 C 286 146 294 190 294 251 C 294 309 284 351 266 377 C 247 403 226 416 204 416 C 177 416 156 401 140 372 C 124 343 117 302 117 248 C 117 194 124 152 138 122 C 152 92 175 77 206 77 Z M 200 551 L 200 551 Z M 337 551 L 260 551 L 200 657 L 139 551 L 64 551 L 162 722 L 239 722 L 337 551 Z" unicode="ĝ" />
<glyph horiz-adv-x="533" d="M 34 0 L 34 0 Z M 278 363 L 502 363 L 502 117 C 483 80 455 50 419 27 C 382 4 336 -7 280 -7 C 246 -7 215 1 185 18 C 155 34 128 58 106 90 C 84 121 66 160 53 207 C 40 253 34 306 34 365 C 34 421 39 473 51 519 C 63 565 79 604 101 636 C 123 668 149 693 180 711 C 210 728 244 737 282 737 C 339 737 383 723 414 697 C 445 670 468 639 483 603 L 400 560 C 389 584 375 605 357 622 C 339 639 314 648 284 648 C 239 648 203 625 175 579 C 147 533 134 460 134 362 C 134 263 148 191 177 145 C 206 99 241 76 283 76 C 314 76 340 81 362 92 C 383 102 400 119 412 141 L 412 279 L 278 279 L 278 363 Z M 281 797 L 281 797 Z M 337 955 L 413 955 C 409 900 396 860 372 835 C 348 809 317 797 281 797 C 244 797 214 809 190 835 C 166 860 152 900 150 955 L 226 955 C 227 928 231 907 239 891 C 247 875 261 868 281 868 C 301 868 315 875 323 890 C 331 905 335 927 337 955 Z" unicode="Ğ" />
<glyph horiz-adv-x="418" d="M 22 0 L 22 0 Z M 181 5 C 134 5 96 26 66 69 C 36 112 22 171 22 245 C 22 323 37 383 68 427 C 99 470 136 492 180 492 C 209 492 233 483 253 466 C 272 448 286 429 295 408 L 295 488 L 377 488 L 377 9 C 377 -26 371 -57 361 -83 C 350 -109 336 -130 319 -147 C 301 -163 281 -176 259 -184 C 236 -192 213 -197 190 -197 C 157 -197 130 -193 109 -187 C 87 -180 71 -173 61 -166 L 88 -97 C 100 -103 113 -107 129 -111 C 144 -115 163 -117 186 -117 C 216 -117 241 -105 261 -83 C 281 -61 291 -29 291 13 L 291 90 C 283 68 270 48 252 31 C 233 13 209 5 181 5 Z M 206 77 C 232 77 254 90 270 118 C 286 146 294 190 294 251 C 294 309 284 351 266 377 C 247 403 226 416 204 416 C 177 416 156 401 140 372 C 124 343 117 302 117 248 C 117 194 124 152 138 122 C 152 92 175 77 206 77 Z M 200 555 L 200 555 Z M 256 713 L 332 713 C 328 658 315 618 291 593 C 267 567 236 555 200 555 C 163 555 133 567 109 593 C 85 618 71 658 69 713 L 145 713 C 146 686 150 665 158 649 C 166 633 180 626 200 626 C 220 626 234 633 242 648 C 250 663 254 685 256 713 Z" unicode="ğ" />
<glyph horiz-adv-x="533" d="M 34 0 L 34 0 Z M 278 363 L 502 363 L 502 117 C 483 80 455 50 419 27 C 382 4 336 -7 280 -7 C 246 -7 215 1 185 18 C 155 34 128 58 106 90 C 84 121 66 160 53 207 C 40 253 34 306 34 365 C 34 421 39 473 51 519 C 63 565 79 604 101 636 C 123 668 149 693 180 711 C 210 728 244 737 282 737 C 339 737 383 723 414 697 C 445 670 468 639 483 603 L 400 560 C 389 584 375 605 357 622 C 339 639 314 648 284 648 C 239 648 203 625 175 579 C 147 533 134 460 134 362 C 134 263 148 191 177 145 C 206 99 241 76 283 76 C 314 76 340 81 362 92 C 383 102 400 119 412 141 L 412 279 L 278 279 L 278 363 Z M 281 804 L 281 804 Z M 324 804 L 239 804 L 239 922 L 324 922 L 324 804 Z" unicode="Ġ" />
<glyph horiz-adv-x="418" d="M 22 0 L 22 0 Z M 181 5 C 134 5 96 26 66 69 C 36 112 22 171 22 245 C 22 323 37 383 68 427 C 99 470 136 492 180 492 C 209 492 233 483 253 466 C 272 448 286 429 295 408 L 295 488 L 377 488 L 377 9 C 377 -26 371 -57 361 -83 C 350 -109 336 -130 319 -147 C 301 -163 281 -176 259 -184 C 236 -192 213 -197 190 -197 C 157 -197 130 -193 109 -187 C 87 -180 71 -173 61 -166 L 88 -97 C 100 -103 113 -107 129 -111 C 144 -115 163 -117 186 -117 C 216 -117 241 -105 261 -83 C 281 -61 291 -29 291 13 L 291 90 C 283 68 270 48 252 31 C 233 13 209 5 181 5 Z M 206 77 C 232 77 254 90 270 118 C 286 146 294 190 294 251 C 294 309 284 351 266 377 C 247 403 226 416 204 416 C 177 416 156 401 140 372 C 124 343 117 302 117 248 C 117 194 124 152 138 122 C 152 92 175 77 206 77 Z M 200 562 L 200 562 Z M 243 562 L 158 562 L 158 680 L 243 680 L 243 562 Z" unicode="ġ" />
<glyph horiz-adv-x="533" d="M 34 0 L 34 0 Z M 278 363 L 502 363 L 502 117 C 483 80 455 50 419 27 C 382 4 336 -7 280 -7 C 246 -7 215 1 185 18 C 155 34 128 58 106 90 C 84 121 66 160 53 207 C 40 253 34 306 34 365 C 34 421 39 473 51 519 C 63 565 79 604 101 636 C 123 668 149 693 180 711 C 210 728 244 737 282 737 C 339 737 383 723 414 697 C 445 670 468 639 483 603 L 400 560 C 389 584 375 605 357 622 C 339 639 314 648 284 648 C 239 648 203 625 175 579 C 147 533 134 460 134 362 C 134 263 148 191 177 145 C 206 99 241 76 283 76 C 314 76 340 81 362 92 C 383 102 400 119 412 141 L 412 279 L 278 279 L 278 363 Z M 274 -71 L 274 -71 Z M 357 -71 C 356 -93 353 -116 347 -140 C 341 -164 333 -188 324 -210 C 315 -232 305 -253 294 -272 C 283 -291 272 -307 262 -319 L 191 -287 C 198 -277 205 -264 213 -248 C 221 -232 228 -215 235 -196 C 241 -176 247 -156 252 -134 C 256 -112 259 -91 260 -71 L 357 -71 Z" unicode="Ģ" />
<glyph horiz-adv-x="418" d="M 22 0 L 22 0 Z M 181 5 C 134 5 96 26 66 69 C 36 112 22 171 22 245 C 22 323 37 383 68 427 C 99 470 136 492 180 492 C 209 492 233 483 253 466 C 272 448 286 429 295 408 L 295 488 L 377 488 L 377 9 C 377 -26 371 -57 361 -83 C 350 -109 336 -130 319 -147 C 301 -163 281 -176 259 -184 C 236 -192 213 -197 190 -197 C 157 -197 130 -193 109 -187 C 87 -180 71 -173 61 -166 L 88 -97 C 100 -103 113 -107 129 -111 C 144 -115 163 -117 186 -117 C 216 -117 241 -105 261 -83 C 281 -61 291 -29 291 13 L 291 90 C 283 68 270 48 252 31 C 233 13 209 5 181 5 Z M 206 77 C 232 77 254 90 270 118 C 286 146 294 190 294 251 C 294 309 284 351 266 377 C 247 403 226 416 204 416 C 177 416 156 401 140 372 C 124 343 117 302 117 248 C 117 194 124 152 138 122 C 152 92 175 77 206 77 Z" unicode="ģ" />
<glyph horiz-adv-x="535" d="M 59 0 L 59 0 Z M 475 0 L 375 0 L 375 317 L 159 317 L 159 0 L 59 0 L 59 730 L 159 730 L 159 405 L 375 405 L 375 730 L 475 730 L 475 0 Z M 266 793 L 266 793 Z M 403 793 L 326 793 L 266 899 L 205 793 L 130 793 L 228 964 L 305 964 L 403 793 Z" unicode="Ĥ" />
<glyph horiz-adv-x="402" d="M 40 0 L 40 0 Z M 362 0 L 271 0 L 271 343 C 271 367 265 384 253 396 C 241 408 226 414 206 414 C 185 414 167 407 153 395 C 139 382 132 359 132 326 L 132 0 L 40 0 L 40 795 L 126 795 L 126 423 C 132 443 145 460 163 473 C 181 486 206 493 238 493 C 275 493 305 483 328 464 C 350 445 362 414 362 370 L 362 0 Z M 204 858 L 204 858 Z M 341 858 L 264 858 L 204 964 L 143 858 L 68 858 L 166 1029 L 243 1029 L 341 858 Z" unicode="ĥ" />
<glyph horiz-adv-x="535" d="M 159 317 L 159 0 L 59 0 L 59 543 L 6 543 L 6 622 L 59 622 L 59 730 L 159 730 L 159 622 L 375 622 L 375 730 L 475 730 L 475 622 L 528 622 L 528 543 L 475 543 L 475 0 L 375 0 L 375 317 L 159 317 Z M 159 405 L 375 405 L 375 543 L 159 543 L 159 405 Z" unicode="Ħ" />
<glyph horiz-adv-x="402" d="M 132 326 L 132 0 L 40 0 L 40 596 L 10 596 L 10 675 L 40 675 L 40 795 L 126 795 L 126 675 L 224 675 L 224 596 L 126 596 L 126 423 C 132 443 145 460 163 473 C 181 486 206 493 238 493 C 275 493 305 483 328 464 C 350 445 362 414 362 370 L 362 0 L 271 0 L 271 343 C 271 367 265 384 253 396 C 241 408 226 414 206 414 C 185 414 167 407 153 395 C 139 382 132 359 132 326 Z" unicode="ħ" />
<glyph horiz-adv-x="227" d="M 0 0 L 0 0 Z M 164 0 L 63 0 L 63 730 L 164 730 L 164 0 Z M 114 799 L 114 799 Z M 198 936 L 266 936 C 266 890 259 855 246 833 C 233 810 216 799 196 799 C 178 799 162 802 149 810 C 136 817 125 824 117 831 C 108 837 99 844 90 850 C 81 856 72 860 64 860 C 55 860 47 854 41 844 C 35 834 31 820 31 803 L -37 803 C -37 849 -28 883 -11 906 C 5 928 23 940 43 940 C 59 940 72 936 84 929 C 96 921 107 914 118 906 C 126 899 134 893 142 887 C 150 881 158 879 167 879 C 175 879 182 883 188 893 C 194 903 198 917 198 936 Z" unicode="Ĩ" />
<glyph horiz-adv-x="177" d="M 0 0 L 0 0 Z M 134 0 L 43 0 L 43 488 L 134 488 L 134 0 Z M 87 557 L 87 557 Z M 171 694 L 239 694 C 239 648 232 613 219 591 C 206 568 189 557 169 557 C 151 557 135 560 122 568 C 109 575 98 582 90 589 C 81 595 72 602 63 608 C 54 614 45 618 37 618 C 28 618 20 612 14 602 C 8 592 4 578 4 561 L -64 561 C -64 607 -55 641 -38 664 C -21 686 -3 698 16 698 C 32 698 45 694 57 687 C 69 679 80 672 91 664 C 99 657 107 651 115 645 C 123 639 131 637 140 637 C 148 637 155 641 161 651 C 167 661 171 675 171 694 Z" unicode="ĩ" />
<glyph horiz-adv-x="227" d="M 0 0 L 0 0 Z M 164 0 L 63 0 L 63 730 L 164 730 L 164 0 Z M 114 812 L 114 812 Z M 235 812 L -7 812 L -7 885 L 235 885 L 235 812 Z" unicode="Ī" />
<glyph horiz-adv-x="177" d="M 0 0 L 0 0 Z M 134 0 L 43 0 L 43 488 L 134 488 L 134 0 Z M 87 570 L 87 570 Z M 208 570 L -34 570 L -34 643 L 208 643 L 208 570 Z" unicode="ī" />
<glyph horiz-adv-x="227" d="M 0 0 L 0 0 Z M 164 0 L 63 0 L 63 730 L 164 730 L 164 0 Z M 114 797 L 114 797 Z M 170 955 L 246 955 C 242 900 229 860 205 835 C 181 809 150 797 114 797 C 77 797 47 809 23 835 C -1 860 -14 900 -17 955 L 59 955 C 60 928 64 907 72 891 C 80 875 94 868 114 868 C 134 868 148 875 156 890 C 164 905 168 927 170 955 Z" unicode="Ĭ" />
<glyph horiz-adv-x="177" d="M 0 0 L 0 0 Z M 134 0 L 43 0 L 43 488 L 134 488 L 134 0 Z M 87 555 L 87 555 Z M 143 713 L 219 713 C 215 658 202 618 178 593 C 154 567 123 555 87 555 C 50 555 20 567 -4 593 C -28 618 -41 658 -44 713 L 32 713 C 33 686 37 665 45 649 C 53 633 67 626 87 626 C 107 626 121 633 129 648 C 137 663 141 685 143 713 Z" unicode="ĭ" />
<glyph horiz-adv-x="227" d="M 0 0 L 0 0 Z M 164 0 L 63 0 L 63 730 L 164 730 L 164 0 Z M 76 -9 L 76 -9 Z M 171 -96 L 198 -135 C 178 -155 156 -171 133 -182 C 109 -193 83 -199 55 -199 C 23 -199 -2 -191 -20 -177 C -38 -162 -47 -143 -47 -121 C -47 -96 -37 -73 -19 -51 C 0 -29 29 -11 69 4 L 126 4 C 98 -8 76 -22 59 -38 C 41 -53 33 -68 33 -84 C 33 -98 37 -109 47 -117 C 57 -125 69 -130 85 -130 C 102 -130 118 -126 133 -120 C 147 -114 160 -106 171 -96 Z" unicode="Į" />
<glyph horiz-adv-x="177" d="M 0 0 L 0 0 Z M 41 572 L 41 662 L 136 662 L 136 572 L 41 572 Z M 43 0 L 43 488 L 134 488 L 134 0 L 43 0 Z M 49 -9 L 49 -9 Z M 144 -96 L 171 -135 C 151 -155 129 -171 106 -182 C 82 -193 56 -199 28 -199 C -4 -199 -29 -191 -47 -177 C -65 -162 -74 -143 -74 -121 C -74 -96 -64 -73 -46 -51 C -27 -29 2 -11 42 4 L 99 4 C 71 -8 49 -22 32 -38 C 14 -53 6 -68 6 -84 C 6 -98 10 -109 20 -117 C 30 -125 42 -130 58 -130 C 75 -130 91 -126 106 -120 C 120 -114 133 -106 144 -96 Z" unicode="į" />
<glyph horiz-adv-x="227" d="M 63 0 L 63 0 Z M 164 0 L 63 0 L 63 730 L 164 730 L 164 0 Z M 114 804 L 114 804 Z M 157 804 L 72 804 L 72 922 L 157 922 L 157 804 Z" unicode="İ" />
<glyph horiz-adv-x="177" d="M 134 0 L 43 0 L 43 488 L 134 488 L 134 0 Z" unicode="ı" />
<glyph horiz-adv-x="497" d="M 63 0 L 63 0 Z M 164 0 L 63 0 L 63 730 L 164 730 L 164 0 Z M 447 730 L 447 182 C 447 127 432 82 403 46 C 373 10 333 -8 282 -8 C 270 -8 256 -7 242 -5 C 228 -3 217 0 210 5 L 220 92 C 224 89 231 87 240 85 C 248 83 257 83 266 83 C 292 83 312 94 326 118 C 340 141 347 169 347 202 L 347 730 L 447 730 Z" unicode="Ĳ" />
<glyph horiz-adv-x="350" d="M 41 0 L 41 0 Z M 41 572 L 41 662 L 136 662 L 136 572 L 41 572 Z M 43 0 L 43 488 L 134 488 L 134 0 L 43 0 Z M 310 572 L 216 572 L 216 662 L 310 662 L 310 572 Z M 308 488 L 308 -82 C 308 -110 299 -134 281 -153 C 263 -172 239 -182 209 -182 C 194 -182 180 -179 167 -175 C 153 -171 145 -167 142 -163 L 166 -99 C 168 -99 172 -100 176 -102 C 180 -103 184 -104 190 -104 C 198 -104 204 -101 210 -95 C 215 -89 218 -80 218 -70 L 218 488 L 308 488 Z" unicode="ĳ" />
<glyph horiz-adv-x="287" d="M 0 0 L 0 0 Z M 231 730 L 231 182 C 231 127 216 82 187 46 C 157 10 117 -8 66 -8 C 54 -8 40 -7 26 -5 C 12 -3 1 0 -6 5 L 4 92 C 8 89 15 87 24 85 C 32 83 41 83 50 83 C 76 83 96 94 110 118 C 124 141 131 169 131 202 L 131 730 L 231 730 Z M 181 793 L 181 793 Z M 318 793 L 241 793 L 181 899 L 120 793 L 45 793 L 143 964 L 220 964 L 318 793 Z" unicode="Ĵ" />
<glyph horiz-adv-x="178" d="M 0 0 L 0 0 Z M 136 488 L 136 -82 C 136 -112 126 -137 107 -157 C 88 -177 63 -187 33 -187 C 18 -187 4 -184 -9 -180 C -22 -176 -30 -172 -34 -168 L -10 -104 C -7 -104 -4 -105 0 -107 C 4 -108 8 -109 14 -109 C 22 -109 30 -105 36 -99 C 42 -92 46 -83 46 -71 L 46 488 L 136 488 Z M 90 551 L 90 551 Z M 227 551 L 150 551 L 90 657 L 29 551 L -46 551 L 52 722 L 129 722 L 227 551 Z" unicode="ĵ" />
<glyph horiz-adv-x="493" d="M 59 0 L 59 0 Z M 503 0 L 393 0 L 192 323 L 160 282 L 160 0 L 59 0 L 59 730 L 160 730 L 160 405 L 379 730 L 484 730 L 257 399 L 503 0 Z M 250 -71 L 250 -71 Z M 333 -71 C 332 -93 329 -116 323 -140 C 317 -164 309 -188 300 -210 C 291 -232 281 -253 270 -272 C 259 -291 248 -307 238 -319 L 167 -287 C 174 -277 181 -264 189 -248 C 197 -232 204 -215 211 -196 C 217 -176 223 -156 228 -134 C 232 -112 235 -91 236 -71 L 333 -71 Z" unicode="Ķ" />
<glyph horiz-adv-x="371" d="M 40 0 L 40 0 Z M 379 1 L 283 0 L 179 200 L 131 128 L 131 0 L 40 0 L 40 795 L 126 795 L 126 237 L 276 488 L 369 488 L 239 274 L 379 1 Z M 186 -71 L 186 -71 Z M 269 -71 C 268 -93 265 -116 259 -140 C 253 -164 245 -188 236 -210 C 227 -232 217 -253 206 -272 C 195 -291 184 -307 174 -319 L 103 -287 C 110 -277 117 -264 125 -248 C 133 -232 140 -215 147 -196 C 153 -176 159 -156 164 -134 C 168 -112 171 -91 172 -71 L 269 -71 Z" unicode="ķ" />
<glyph horiz-adv-x="371" d="M 379 1 L 283 0 L 179 200 L 131 128 L 131 0 L 40 0 L 40 488 L 126 488 L 126 237 L 276 488 L 369 488 L 239 274 L 379 1 Z" unicode="ĸ" />
<glyph horiz-adv-x="359" d="M 59 0 L 59 0 Z M 352 0 L 59 0 L 59 730 L 159 730 L 159 89 L 352 89 L 352 0 Z M 210 792 L 210 792 Z M 115 792 L 200 964 L 305 964 L 203 792 L 115 792 Z" unicode="Ĺ" />
<glyph horiz-adv-x="172" d="M 40 0 L 40 0 Z M 140 862 L 140 862 Z M 45 862 L 130 1034 L 235 1034 L 133 862 L 45 862 Z M 132 800 L 132 0 L 40 0 L 40 800 L 132 800 Z" unicode="ĺ" />
<glyph horiz-adv-x="359" d="M 59 0 L 59 0 Z M 352 0 L 59 0 L 59 730 L 159 730 L 159 89 L 352 89 L 352 0 Z M 196 -71 L 196 -71 Z M 279 -71 C 278 -93 275 -116 269 -140 C 263 -164 255 -188 246 -210 C 237 -232 227 -253 216 -272 C 205 -291 194 -307 184 -319 L 113 -287 C 120 -277 127 -264 135 -248 C 143 -232 150 -215 157 -196 C 163 -176 169 -156 174 -134 C 178 -112 181 -91 182 -71 L 279 -71 Z" unicode="Ļ" />
<glyph horiz-adv-x="172" d="M 0 0 L 0 0 Z M 132 800 L 132 0 L 40 0 L 40 800 L 132 800 Z M 67 -71 L 67 -71 Z M 150 -71 C 149 -93 146 -116 140 -140 C 134 -164 126 -188 117 -210 C 108 -232 98 -253 87 -272 C 76 -291 65 -307 55 -319 L -16 -287 C -8 -277 -1 -264 6 -248 C 14 -232 21 -215 28 -196 C 34 -176 40 -156 45 -134 C 49 -112 52 -91 53 -71 L 150 -71 Z" unicode="ļ" />
<glyph horiz-adv-x="359" d="M 59 0 L 59 0 Z M 352 0 L 59 0 L 59 730 L 159 730 L 159 89 L 352 89 L 352 0 Z M 366 621 L 362 483 L 284 483 L 279 621 L 279 730 L 366 730 L 366 621 Z" unicode="Ľ" />
<glyph horiz-adv-x="172" d="M 40 0 L 40 0 Z M 132 800 L 132 0 L 40 0 L 40 800 L 132 800 Z M 266 621 L 262 483 L 184 483 L 179 621 L 179 730 L 266 730 L 266 621 Z" unicode="ľ" />
<glyph horiz-adv-x="359" d="M 59 0 L 59 0 Z M 352 0 L 59 0 L 59 730 L 159 730 L 159 89 L 352 89 L 352 0 Z M 276 300 L 276 300 Z M 319 300 L 234 300 L 234 418 L 319 418 L 319 300 Z" unicode="Ŀ" />
<glyph horiz-adv-x="172" d="M 40 0 L 40 0 Z M 132 800 L 132 0 L 40 0 L 40 800 L 132 800 Z M 213 222 L 213 222 Z M 256 222 L 171 222 L 171 340 L 256 340 L 256 222 Z" unicode="ŀ" />
<glyph horiz-adv-x="359" d="M 352 82 L 352 0 L 59 0 L 59 261 L 20 244 L -13 316 L 59 347 L 59 730 L 159 730 L 159 390 L 286 445 L 318 373 L 159 304 L 159 82 L 352 82 Z" unicode="Ł" />
<glyph horiz-adv-x="172" d="M 204 329 L 144 301 L 144 0 L 52 0 L 52 258 L 19 243 L -8 307 L 52 335 L 52 795 L 144 795 L 144 378 L 176 393 L 204 329 Z" unicode="ł" />
<glyph horiz-adv-x="534" d="M 59 0 L 59 0 Z M 475 0 L 404 0 L 153 496 L 153 0 L 59 0 L 59 730 L 130 730 L 384 232 L 384 730 L 475 730 L 475 0 Z M 267 792 L 267 792 Z M 172 792 L 257 964 L 362 964 L 260 792 L 172 792 Z" unicode="Ń" />
<glyph horiz-adv-x="402" d="M 40 0 L 40 0 Z M 362 0 L 271 0 L 271 347 C 271 369 265 385 254 397 C 242 408 227 414 207 414 C 186 414 168 407 154 395 C 139 383 132 360 132 326 L 132 0 L 40 0 L 40 488 L 122 488 L 122 419 C 129 441 142 458 162 472 C 182 486 208 493 241 493 C 277 493 306 483 328 465 C 350 447 362 418 362 378 L 362 0 Z M 202 550 L 202 550 Z M 107 550 L 192 722 L 297 722 L 195 550 L 107 550 Z" unicode="ń" />
<glyph horiz-adv-x="534" d="M 59 0 L 59 0 Z M 475 0 L 404 0 L 153 496 L 153 0 L 59 0 L 59 730 L 130 730 L 384 232 L 384 730 L 475 730 L 475 0 Z M 254 -71 L 254 -71 Z M 337 -71 C 336 -93 333 -116 327 -140 C 321 -164 313 -188 304 -210 C 295 -232 285 -253 274 -272 C 263 -291 252 -307 242 -319 L 171 -287 C 178 -277 185 -264 193 -248 C 201 -232 208 -215 215 -196 C 221 -176 227 -156 232 -134 C 236 -112 239 -91 240 -71 L 337 -71 Z" unicode="Ņ" />
<glyph horiz-adv-x="402" d="M 40 0 L 40 0 Z M 362 0 L 271 0 L 271 347 C 271 369 265 385 254 397 C 242 408 227 414 207 414 C 186 414 168 407 154 395 C 139 383 132 360 132 326 L 132 0 L 40 0 L 40 488 L 122 488 L 122 419 C 129 441 142 458 162 472 C 182 486 208 493 241 493 C 277 493 306 483 328 465 C 350 447 362 418 362 378 L 362 0 Z M 187 -71 L 187 -71 Z M 270 -71 C 269 -93 266 -116 260 -140 C 254 -164 246 -188 237 -210 C 228 -232 218 -253 207 -272 C 196 -291 185 -307 175 -319 L 104 -287 C 111 -277 118 -264 126 -248 C 134 -232 141 -215 148 -196 C 154 -176 160 -156 165 -134 C 169 -112 172 -91 173 -71 L 270 -71 Z" unicode="ņ" />
<glyph horiz-adv-x="534" d="M 59 0 L 59 0 Z M 475 0 L 404 0 L 153 496 L 153 0 L 59 0 L 59 730 L 130 730 L 384 232 L 384 730 L 475 730 L 475 0 Z M 267 793 L 267 793 Z M 131 964 L 208 964 L 268 857 L 329 964 L 404 964 L 306 793 L 229 793 L 131 964 Z" unicode="Ň" />
<glyph horiz-adv-x="402" d="M 40 0 L 40 0 Z M 362 0 L 271 0 L 271 347 C 271 369 265 385 254 397 C 242 408 227 414 207 414 C 186 414 168 407 154 395 C 139 383 132 360 132 326 L 132 0 L 40 0 L 40 488 L 122 488 L 122 419 C 129 441 142 458 162 472 C 182 486 208 493 241 493 C 277 493 306 483 328 465 C 350 447 362 418 362 378 L 362 0 Z M 202 551 L 202 551 Z M 66 722 L 143 722 L 203 615 L 264 722 L 339 722 L 241 551 L 164 551 L 66 722 Z" unicode="ň" />
<glyph horiz-adv-x="534" d="M 384 730 L 475 730 L 475 -6 C 475 -60 461 -106 433 -142 C 405 -178 365 -196 314 -196 C 302 -196 288 -195 274 -193 C 260 -191 249 -187 242 -183 L 252 -96 C 256 -98 263 -100 272 -102 C 280 -104 289 -105 298 -105 C 324 -105 344 -93 360 -70 C 376 -46 384 -18 384 14 L 384 40 L 153 496 L 153 0 L 59 0 L 59 730 L 130 730 L 384 232 L 384 730 Z" unicode="Ŋ" />
<glyph horiz-adv-x="402" d="M 241 493 C 277 493 306 483 328 465 C 350 447 362 418 362 378 L 362 -60 C 362 -100 351 -133 329 -159 C 307 -185 276 -199 237 -199 C 225 -199 212 -197 199 -195 C 185 -192 176 -189 171 -185 L 190 -110 C 192 -111 196 -112 202 -113 C 208 -114 214 -115 220 -115 C 234 -115 246 -108 256 -94 C 266 -80 271 -63 271 -43 L 271 347 C 271 369 265 385 254 397 C 242 408 227 414 207 414 C 186 414 168 407 154 395 C 139 383 132 360 132 326 L 132 0 L 40 0 L 40 488 L 122 488 L 122 419 C 129 441 142 458 162 472 C 182 486 208 493 241 493 Z" unicode="ŋ" />
<glyph horiz-adv-x="570" d="M 34 0 L 34 0 Z M 287 -7 C 207 -7 144 25 100 90 C 56 154 34 248 34 371 C 34 485 56 575 101 640 C 146 704 206 737 282 737 C 363 737 426 705 470 641 C 514 577 536 485 536 365 C 536 248 513 157 467 91 C 421 25 361 -7 287 -7 Z M 286 77 C 332 77 368 100 394 148 C 420 196 434 270 434 372 C 434 466 420 537 393 583 C 366 629 329 653 283 653 C 235 653 199 630 174 584 C 148 538 136 464 136 364 C 136 263 149 190 177 145 C 204 99 240 77 286 77 Z M 284 812 L 284 812 Z M 405 812 L 163 812 L 163 885 L 405 885 L 405 812 Z" unicode="Ō" />
<glyph horiz-adv-x="400" d="M 21 0 L 21 0 Z M 201 -5 C 149 -5 106 16 72 58 C 38 100 21 161 21 243 C 21 319 37 379 69 425 C 101 470 143 493 195 493 C 251 493 295 472 329 430 C 363 388 380 330 380 256 C 380 176 364 113 332 66 C 300 18 256 -5 201 -5 Z M 201 71 C 228 71 249 85 263 113 C 277 141 284 186 284 247 C 284 307 276 350 262 376 C 247 402 226 416 198 416 C 172 416 152 402 138 376 C 123 349 116 306 116 247 C 116 182 123 136 139 110 C 155 84 175 71 201 71 Z M 201 570 L 201 570 Z M 322 570 L 80 570 L 80 643 L 322 643 L 322 570 Z" unicode="ō" />
<glyph horiz-adv-x="570" d="M 34 0 L 34 0 Z M 287 -7 C 207 -7 144 25 100 90 C 56 154 34 248 34 371 C 34 485 56 575 101 640 C 146 704 206 737 282 737 C 363 737 426 705 470 641 C 514 577 536 485 536 365 C 536 248 513 157 467 91 C 421 25 361 -7 287 -7 Z M 286 77 C 332 77 368 100 394 148 C 420 196 434 270 434 372 C 434 466 420 537 393 583 C 366 629 329 653 283 653 C 235 653 199 630 174 584 C 148 538 136 464 136 364 C 136 263 149 190 177 145 C 204 99 240 77 286 77 Z M 284 797 L 284 797 Z M 340 955 L 416 955 C 412 900 399 860 375 835 C 351 809 320 797 284 797 C 247 797 217 809 193 835 C 169 860 155 900 153 955 L 229 955 C 230 928 234 907 242 891 C 250 875 264 868 284 868 C 304 868 318 875 326 890 C 334 905 338 927 340 955 Z" unicode="Ŏ" />
<glyph horiz-adv-x="400" d="M 21 0 L 21 0 Z M 201 -5 C 149 -5 106 16 72 58 C 38 100 21 161 21 243 C 21 319 37 379 69 425 C 101 470 143 493 195 493 C 251 493 295 472 329 430 C 363 388 380 330 380 256 C 380 176 364 113 332 66 C 300 18 256 -5 201 -5 Z M 201 71 C 228 71 249 85 263 113 C 277 141 284 186 284 247 C 284 307 276 350 262 376 C 247 402 226 416 198 416 C 172 416 152 402 138 376 C 123 349 116 306 116 247 C 116 182 123 136 139 110 C 155 84 175 71 201 71 Z M 201 555 L 201 555 Z M 257 713 L 333 713 C 329 658 316 618 292 593 C 268 567 237 555 201 555 C 164 555 134 567 110 593 C 86 618 72 658 70 713 L 146 713 C 147 686 151 665 159 649 C 167 633 181 626 201 626 C 221 626 235 633 243 648 C 251 663 255 685 257 713 Z" unicode="ŏ" />
<glyph horiz-adv-x="570" d="M 34 0 L 34 0 Z M 287 -7 C 207 -7 144 25 100 90 C 56 154 34 248 34 371 C 34 485 56 575 101 640 C 146 704 206 737 282 737 C 363 737 426 705 470 641 C 514 577 536 485 536 365 C 536 248 513 157 467 91 C 421 25 361 -7 287 -7 Z M 286 77 C 332 77 368 100 394 148 C 420 196 434 270 434 372 C 434 466 420 537 393 583 C 366 629 329 653 283 653 C 235 653 199 630 174 584 C 148 538 136 464 136 364 C 136 263 149 190 177 145 C 204 99 240 77 286 77 Z M 284 792 L 284 792 Z M 119 792 L 182 952 L 280 952 L 200 792 L 119 792 Z M 288 792 L 352 952 L 450 952 L 369 792 L 288 792 Z" unicode="Ő" />
<glyph horiz-adv-x="400" d="M 21 0 L 21 0 Z M 201 -5 C 149 -5 106 16 72 58 C 38 100 21 161 21 243 C 21 319 37 379 69 425 C 101 470 143 493 195 493 C 251 493 295 472 329 430 C 363 388 380 330 380 256 C 380 176 364 113 332 66 C 300 18 256 -5 201 -5 Z M 201 71 C 228 71 249 85 263 113 C 277 141 284 186 284 247 C 284 307 276 350 262 376 C 247 402 226 416 198 416 C 172 416 152 402 138 376 C 123 349 116 306 116 247 C 116 182 123 136 139 110 C 155 84 175 71 201 71 Z M 201 550 L 201 550 Z M 36 550 L 99 710 L 197 710 L 117 550 L 36 550 Z M 205 550 L 269 710 L 367 710 L 286 550 L 205 550 Z" unicode="ő" />
<glyph horiz-adv-x="751" d="M 264 -7 C 193 -7 137 24 96 88 C 54 152 34 246 34 371 C 34 489 54 580 96 642 C 138 704 192 736 260 736 C 306 736 342 723 368 699 C 394 675 410 647 417 617 L 417 730 L 722 730 L 722 646 L 514 646 L 514 405 L 713 405 L 713 322 L 514 322 L 514 84 L 739 84 L 739 0 L 417 0 L 417 117 C 413 102 407 87 399 73 C 391 58 380 45 367 33 C 354 21 339 11 322 4 C 304 -3 285 -7 264 -7 Z M 277 66 C 321 66 355 90 380 140 C 405 190 418 267 418 372 C 418 470 405 542 379 590 C 353 638 319 662 275 662 C 229 662 195 638 171 592 C 147 546 136 470 136 365 C 136 258 148 181 174 135 C 199 89 233 66 277 66 Z" unicode="Œ" />
<glyph horiz-adv-x="646" d="M 196 -5 C 146 -5 104 16 71 58 C 37 100 21 161 21 243 C 21 319 37 379 69 425 C 101 470 143 493 195 493 C 234 493 265 481 289 458 C 313 435 326 409 329 381 C 332 408 345 433 367 457 C 389 481 419 493 457 493 C 511 493 552 469 582 423 C 611 376 626 309 626 222 L 372 222 C 372 174 380 136 397 110 C 414 83 438 70 468 70 C 493 70 514 75 531 87 C 547 98 561 111 573 126 L 618 77 C 604 58 585 40 561 22 C 536 4 504 -5 464 -5 C 422 -5 390 6 368 28 C 346 50 332 75 328 103 C 321 76 306 51 284 29 C 261 6 232 -5 196 -5 Z M 372 285 L 539 285 C 538 327 530 359 515 383 C 500 407 480 419 456 419 C 431 419 411 407 397 383 C 382 359 374 327 372 285 Z M 201 71 C 228 71 249 85 263 113 C 277 141 285 186 285 247 C 285 307 277 350 262 376 C 247 402 226 415 198 415 C 172 415 151 401 137 375 C 123 348 116 305 116 247 C 116 182 123 136 139 110 C 154 84 175 71 201 71 Z" unicode="œ" />
<glyph horiz-adv-x="462" d="M 59 0 L 59 0 Z M 59 0 L 59 730 L 219 730 C 273 730 317 713 353 681 C 388 648 406 598 406 532 C 406 478 394 433 371 397 C 348 361 319 340 283 334 L 281 330 L 462 0 L 358 0 L 191 309 L 151 309 L 151 0 L 59 0 Z M 151 393 L 206 393 C 237 393 262 404 282 426 C 302 448 312 479 312 519 C 312 563 301 595 280 615 C 259 635 234 645 206 645 L 151 645 L 151 393 Z M 214 792 L 214 792 Z M 119 792 L 204 964 L 309 964 L 207 792 L 119 792 Z" unicode="Ŕ" />
<glyph horiz-adv-x="296" d="M 40 0 L 40 0 Z M 300 463 L 271 387 C 261 396 251 402 242 405 C 233 408 223 410 211 410 C 195 410 177 403 159 389 C 141 375 132 345 132 301 L 132 0 L 40 0 L 40 488 L 129 488 L 129 413 C 135 433 147 452 164 468 C 180 484 200 493 223 493 C 240 493 255 489 269 483 C 282 477 292 470 300 463 Z M 173 550 L 173 550 Z M 78 550 L 163 722 L 268 722 L 166 550 L 78 550 Z" unicode="ŕ" />
<glyph horiz-adv-x="462" d="M 59 0 L 59 0 Z M 59 0 L 59 730 L 219 730 C 273 730 317 713 353 681 C 388 648 406 598 406 532 C 406 478 394 433 371 397 C 348 361 319 340 283 334 L 281 330 L 462 0 L 358 0 L 191 309 L 151 309 L 151 0 L 59 0 Z M 151 393 L 206 393 C 237 393 262 404 282 426 C 302 448 312 479 312 519 C 312 563 301 595 280 615 C 259 635 234 645 206 645 L 151 645 L 151 393 Z M 226 -71 L 226 -71 Z M 309 -71 C 308 -93 305 -116 299 -140 C 293 -164 285 -188 276 -210 C 267 -232 257 -253 246 -272 C 235 -291 224 -307 214 -319 L 143 -287 C 150 -277 157 -264 165 -248 C 173 -232 180 -215 187 -196 C 193 -176 199 -156 204 -134 C 208 -112 211 -91 212 -71 L 309 -71 Z" unicode="Ŗ" />
<glyph horiz-adv-x="296" d="M 40 0 L 40 0 Z M 300 463 L 271 387 C 261 396 251 402 242 405 C 233 408 223 410 211 410 C 195 410 177 403 159 389 C 141 375 132 345 132 301 L 132 0 L 40 0 L 40 488 L 129 488 L 129 413 C 135 433 147 452 164 468 C 180 484 200 493 223 493 C 240 493 255 489 269 483 C 282 477 292 470 300 463 Z M 155 -71 L 155 -71 Z M 238 -71 C 237 -93 234 -116 228 -140 C 222 -164 214 -188 205 -210 C 196 -232 186 -253 175 -272 C 164 -291 153 -307 143 -319 L 72 -287 C 79 -277 86 -264 94 -248 C 102 -232 109 -215 116 -196 C 122 -176 128 -156 133 -134 C 137 -112 140 -91 141 -71 L 238 -71 Z" unicode="ŗ" />
<glyph horiz-adv-x="462" d="M 59 0 L 59 0 Z M 59 0 L 59 730 L 219 730 C 273 730 317 713 353 681 C 388 648 406 598 406 532 C 406 478 394 433 371 397 C 348 361 319 340 283 334 L 281 330 L 462 0 L 358 0 L 191 309 L 151 309 L 151 0 L 59 0 Z M 151 393 L 206 393 C 237 393 262 404 282 426 C 302 448 312 479 312 519 C 312 563 301 595 280 615 C 259 635 234 645 206 645 L 151 645 L 151 393 Z M 214 793 L 214 793 Z M 78 964 L 155 964 L 215 857 L 276 964 L 351 964 L 253 793 L 176 793 L 78 964 Z" unicode="Ř" />
<glyph horiz-adv-x="296" d="M 37 0 L 37 0 Z M 300 463 L 271 387 C 261 396 251 402 242 405 C 233 408 223 410 211 410 C 195 410 177 403 159 389 C 141 375 132 345 132 301 L 132 0 L 40 0 L 40 488 L 129 488 L 129 413 C 135 433 147 452 164 468 C 180 484 200 493 223 493 C 240 493 255 489 269 483 C 282 477 292 470 300 463 Z M 173 551 L 173 551 Z M 37 722 L 114 722 L 174 615 L 235 722 L 310 722 L 212 551 L 135 551 L 37 722 Z" unicode="ř" />
<glyph horiz-adv-x="411" d="M 18 0 L 18 0 Z M 206 -7 C 167 -7 132 0 101 13 C 70 26 42 49 18 82 L 76 144 C 90 119 109 101 132 89 C 154 77 177 71 200 71 C 225 71 247 80 267 100 C 287 119 297 145 297 178 C 297 212 288 240 272 262 C 256 284 225 310 180 339 C 136 367 101 398 75 431 C 49 463 36 508 36 564 C 36 590 40 614 50 636 C 59 657 72 675 88 690 C 104 705 123 717 145 725 C 166 733 189 737 213 737 C 253 737 286 730 312 717 C 338 703 358 688 373 672 L 318 608 C 306 620 292 630 274 639 C 256 647 236 652 216 652 C 193 652 173 644 155 628 C 137 612 128 588 128 558 C 128 529 136 505 151 486 C 166 466 197 442 243 414 C 295 381 333 347 355 311 C 377 275 388 232 388 182 C 388 151 382 124 372 100 C 362 76 348 57 331 41 C 314 25 295 13 273 5 C 251 -3 228 -7 206 -7 Z M 208 792 L 208 792 Z M 113 792 L 198 964 L 303 964 L 201 792 L 113 792 Z" unicode="Ś" />
<glyph horiz-adv-x="309" d="M 15 0 L 15 0 Z M 162 -5 C 129 -5 100 1 75 13 C 49 25 29 42 15 63 L 61 125 C 72 108 86 95 102 85 C 118 75 135 71 152 71 C 166 71 180 76 193 86 C 205 96 212 111 212 131 C 212 149 204 165 190 178 C 175 190 154 205 127 222 C 97 239 74 258 56 280 C 38 302 29 332 29 370 C 29 404 41 433 66 457 C 90 481 120 493 156 493 C 184 493 208 488 229 480 C 249 471 267 461 281 449 L 239 381 C 231 389 220 396 206 404 C 192 411 178 415 164 415 C 148 415 134 410 123 402 C 111 394 106 382 106 367 C 106 351 112 339 125 329 C 137 319 158 304 188 286 C 223 264 249 241 265 219 C 281 197 289 166 289 128 C 289 105 285 85 277 69 C 269 52 258 38 246 27 C 234 16 220 8 205 3 C 190 -2 176 -5 162 -5 Z M 158 550 L 158 550 Z M 63 550 L 148 722 L 253 722 L 151 550 L 63 550 Z" unicode="ś" />
<glyph horiz-adv-x="411" d="M 18 0 L 18 0 Z M 206 -7 C 167 -7 132 0 101 13 C 70 26 42 49 18 82 L 76 144 C 90 119 109 101 132 89 C 154 77 177 71 200 71 C 225 71 247 80 267 100 C 287 119 297 145 297 178 C 297 212 288 240 272 262 C 256 284 225 310 180 339 C 136 367 101 398 75 431 C 49 463 36 508 36 564 C 36 590 40 614 50 636 C 59 657 72 675 88 690 C 104 705 123 717 145 725 C 166 733 189 737 213 737 C 253 737 286 730 312 717 C 338 703 358 688 373 672 L 318 608 C 306 620 292 630 274 639 C 256 647 236 652 216 652 C 193 652 173 644 155 628 C 137 612 128 588 128 558 C 128 529 136 505 151 486 C 166 466 197 442 243 414 C 295 381 333 347 355 311 C 377 275 388 232 388 182 C 388 151 382 124 372 100 C 362 76 348 57 331 41 C 314 25 295 13 273 5 C 251 -3 228 -7 206 -7 Z M 208 793 L 208 793 Z M 345 793 L 268 793 L 208 899 L 147 793 L 72 793 L 170 964 L 247 964 L 345 793 Z" unicode="Ŝ" />
<glyph horiz-adv-x="309" d="M 15 0 L 15 0 Z M 162 -5 C 129 -5 100 1 75 13 C 49 25 29 42 15 63 L 61 125 C 72 108 86 95 102 85 C 118 75 135 71 152 71 C 166 71 180 76 193 86 C 205 96 212 111 212 131 C 212 149 204 165 190 178 C 175 190 154 205 127 222 C 97 239 74 258 56 280 C 38 302 29 332 29 370 C 29 404 41 433 66 457 C 90 481 120 493 156 493 C 184 493 208 488 229 480 C 249 471 267 461 281 449 L 239 381 C 231 389 220 396 206 404 C 192 411 178 415 164 415 C 148 415 134 410 123 402 C 111 394 106 382 106 367 C 106 351 112 339 125 329 C 137 319 158 304 188 286 C 223 264 249 241 265 219 C 281 197 289 166 289 128 C 289 105 285 85 277 69 C 269 52 258 38 246 27 C 234 16 220 8 205 3 C 190 -2 176 -5 162 -5 Z M 158 551 L 158 551 Z M 295 551 L 218 551 L 158 657 L 97 551 L 22 551 L 120 722 L 197 722 L 295 551 Z" unicode="ŝ" />
<glyph horiz-adv-x="411" d="M 18 0 L 18 0 Z M 206 -7 C 167 -7 132 0 101 13 C 70 26 42 49 18 82 L 76 144 C 90 119 109 101 132 89 C 154 77 177 71 200 71 C 225 71 247 80 267 100 C 287 119 297 145 297 178 C 297 212 288 240 272 262 C 256 284 225 310 180 339 C 136 367 101 398 75 431 C 49 463 36 508 36 564 C 36 590 40 614 50 636 C 59 657 72 675 88 690 C 104 705 123 717 145 725 C 166 733 189 737 213 737 C 253 737 286 730 312 717 C 338 703 358 688 373 672 L 318 608 C 306 620 292 630 274 639 C 256 647 236 652 216 652 C 193 652 173 644 155 628 C 137 612 128 588 128 558 C 128 529 136 505 151 486 C 166 466 197 442 243 414 C 295 381 333 347 355 311 C 377 275 388 232 388 182 C 388 151 382 124 372 100 C 362 76 348 57 331 41 C 314 25 295 13 273 5 C 251 -3 228 -7 206 -7 Z M 186 0 L 186 0 Z M 191 -182 C 170 -182 149 -179 129 -173 C 109 -167 92 -159 80 -149 L 98 -113 C 106 -118 116 -124 130 -130 C 144 -136 158 -139 174 -139 C 186 -139 197 -135 207 -129 C 216 -123 221 -114 221 -104 C 221 -91 216 -82 208 -77 C 200 -72 191 -70 181 -70 C 174 -70 168 -70 162 -71 C 156 -72 151 -74 145 -77 L 133 -60 L 188 13 L 236 13 L 192 -46 C 220 -42 243 -45 263 -56 C 282 -66 292 -83 292 -107 C 292 -131 282 -149 262 -162 C 242 -175 218 -182 191 -182 Z" unicode="Ş" />
<glyph horiz-adv-x="309" d="M 15 0 L 15 0 Z M 162 -5 C 129 -5 100 1 75 13 C 49 25 29 42 15 63 L 61 125 C 72 108 86 95 102 85 C 118 75 135 71 152 71 C 166 71 180 76 193 86 C 205 96 212 111 212 131 C 212 149 204 165 190 178 C 175 190 154 205 127 222 C 97 239 74 258 56 280 C 38 302 29 332 29 370 C 29 404 41 433 66 457 C 90 481 120 493 156 493 C 184 493 208 488 229 480 C 249 471 267 461 281 449 L 239 381 C 231 389 220 396 206 404 C 192 411 178 415 164 415 C 148 415 134 410 123 402 C 111 394 106 382 106 367 C 106 351 112 339 125 329 C 137 319 158 304 188 286 C 223 264 249 241 265 219 C 281 197 289 166 289 128 C 289 105 285 85 277 69 C 269 52 258 38 246 27 C 234 16 220 8 205 3 C 190 -2 176 -5 162 -5 Z M 144 0 L 144 0 Z M 149 -182 C 128 -182 107 -179 87 -173 C 67 -167 50 -159 38 -149 L 56 -113 C 64 -118 74 -124 88 -130 C 102 -136 116 -139 132 -139 C 144 -139 155 -135 165 -129 C 174 -123 179 -114 179 -104 C 179 -91 174 -82 166 -77 C 158 -72 149 -70 139 -70 C 132 -70 126 -70 120 -71 C 114 -72 109 -74 103 -77 L 91 -60 L 146 13 L 194 13 L 150 -46 C 178 -42 201 -45 221 -56 C 240 -66 250 -83 250 -107 C 250 -131 240 -149 220 -162 C 200 -175 176 -182 149 -182 Z" unicode="ş" />
<glyph horiz-adv-x="411" d="M 18 0 L 18 0 Z M 206 -7 C 167 -7 132 0 101 13 C 70 26 42 49 18 82 L 76 144 C 90 119 109 101 132 89 C 154 77 177 71 200 71 C 225 71 247 80 267 100 C 287 119 297 145 297 178 C 297 212 288 240 272 262 C 256 284 225 310 180 339 C 136 367 101 398 75 431 C 49 463 36 508 36 564 C 36 590 40 614 50 636 C 59 657 72 675 88 690 C 104 705 123 717 145 725 C 166 733 189 737 213 737 C 253 737 286 730 312 717 C 338 703 358 688 373 672 L 318 608 C 306 620 292 630 274 639 C 256 647 236 652 216 652 C 193 652 173 644 155 628 C 137 612 128 588 128 558 C 128 529 136 505 151 486 C 166 466 197 442 243 414 C 295 381 333 347 355 311 C 377 275 388 232 388 182 C 388 151 382 124 372 100 C 362 76 348 57 331 41 C 314 25 295 13 273 5 C 251 -3 228 -7 206 -7 Z M 208 793 L 208 793 Z M 72 964 L 149 964 L 209 857 L 270 964 L 345 964 L 247 793 L 170 793 L 72 964 Z" unicode="Š" />
<glyph horiz-adv-x="309" d="M 15 0 L 15 0 Z M 162 -5 C 129 -5 100 1 75 13 C 49 25 29 42 15 63 L 61 125 C 72 108 86 95 102 85 C 118 75 135 71 152 71 C 166 71 180 76 193 86 C 205 96 212 111 212 131 C 212 149 204 165 190 178 C 175 190 154 205 127 222 C 97 239 74 258 56 280 C 38 302 29 332 29 370 C 29 404 41 433 66 457 C 90 481 120 493 156 493 C 184 493 208 488 229 480 C 249 471 267 461 281 449 L 239 381 C 231 389 220 396 206 404 C 192 411 178 415 164 415 C 148 415 134 410 123 402 C 111 394 106 382 106 367 C 106 351 112 339 125 329 C 137 319 158 304 188 286 C 223 264 249 241 265 219 C 281 197 289 166 289 128 C 289 105 285 85 277 69 C 269 52 258 38 246 27 C 234 16 220 8 205 3 C 190 -2 176 -5 162 -5 Z M 158 551 L 158 551 Z M 22 722 L 99 722 L 159 615 L 220 722 L 295 722 L 197 551 L 120 551 L 22 722 Z" unicode="š" />
<glyph horiz-adv-x="377" d="M 7 0 L 7 0 Z M 370 641 L 238 641 L 238 0 L 138 0 L 138 641 L 7 641 L 7 730 L 370 730 L 370 641 Z M 188 793 L 188 793 Z M 52 964 L 129 964 L 189 857 L 250 964 L 325 964 L 227 793 L 150 793 L 52 964 Z" unicode="Ť" />
<glyph horiz-adv-x="221" d="M 9 0 L 9 0 Z M 203 88 L 221 16 C 215 11 206 6 196 2 C 185 -1 170 -4 152 -4 C 142 -4 131 -1 119 2 C 107 6 96 13 86 23 C 76 32 68 44 62 59 C 55 73 52 91 52 113 L 52 409 L 9 409 L 9 488 L 54 488 L 54 614 L 141 625 L 141 488 L 206 488 L 206 409 L 143 409 L 143 117 C 143 105 146 95 152 89 C 158 83 166 80 176 80 C 180 80 185 80 191 82 C 196 84 200 86 203 88 Z M 316 621 L 312 483 L 234 483 L 229 621 L 229 730 L 316 730 L 316 621 Z" unicode="ť" />
<glyph horiz-adv-x="377" d="M 349 447 L 238 447 L 238 0 L 138 0 L 138 447 L 28 447 L 28 526 L 138 526 L 138 641 L 7 641 L 7 730 L 370 730 L 370 641 L 238 641 L 238 526 L 349 526 L 349 447 Z" unicode="Ŧ" />
<glyph horiz-adv-x="221" d="M 221 16 C 215 11 206 6 196 2 C 185 -1 170 -4 152 -4 C 142 -4 131 -1 119 2 C 107 6 96 13 86 23 C 76 32 68 44 62 59 C 55 73 52 91 52 113 L 52 264 L 18 264 L 18 343 L 52 343 L 52 409 L 9 409 L 9 488 L 54 488 L 54 614 L 141 625 L 141 488 L 206 488 L 206 409 L 143 409 L 143 343 L 191 343 L 191 264 L 143 264 L 143 117 C 143 105 146 95 152 89 C 158 83 166 80 176 80 C 180 80 185 80 191 82 C 196 84 200 86 203 88 L 221 16 Z" unicode="ŧ" />
<glyph horiz-adv-x="534" d="M 56 0 L 56 0 Z M 478 730 L 478 218 C 478 178 472 143 460 115 C 448 86 432 63 412 45 C 392 27 369 13 343 5 C 317 -2 289 -7 261 -7 C 233 -7 207 -3 182 5 C 157 13 135 25 117 43 C 98 61 83 84 72 113 C 61 141 56 176 56 218 L 56 730 L 154 730 L 154 216 C 154 166 164 130 185 110 C 206 89 233 79 265 79 C 295 79 321 88 343 108 C 365 128 376 164 376 216 L 376 730 L 478 730 Z M 265 799 L 265 799 Z M 349 936 L 417 936 C 417 890 410 855 397 833 C 384 810 367 799 347 799 C 329 799 313 802 300 810 C 287 817 276 824 268 831 C 259 837 250 844 241 850 C 232 856 223 860 215 860 C 206 860 198 854 192 844 C 186 834 182 820 182 803 L 114 803 C 114 849 122 883 139 906 C 156 928 174 940 194 940 C 210 940 223 936 235 929 C 247 921 258 914 269 906 C 277 899 285 893 293 887 C 301 881 309 879 318 879 C 326 879 333 883 339 893 C 345 903 349 917 349 936 Z" unicode="Ũ" />
<glyph horiz-adv-x="402" d="M 39 0 L 39 0 Z M 39 488 L 131 488 L 131 146 C 131 119 137 99 149 87 C 161 74 177 68 198 68 C 216 68 233 75 248 89 C 262 103 270 128 270 166 L 270 488 L 361 488 L 361 0 L 277 0 L 277 64 C 270 44 256 28 236 14 C 216 0 191 -6 161 -6 C 128 -6 99 4 75 25 C 51 45 39 78 39 122 L 39 488 Z M 200 557 L 200 557 Z M 284 694 L 352 694 C 352 648 345 613 332 591 C 319 568 302 557 282 557 C 264 557 248 560 235 568 C 222 575 211 582 203 589 C 194 595 185 602 176 608 C 167 614 158 618 150 618 C 141 618 133 612 127 602 C 121 592 117 578 117 561 L 49 561 C 49 607 57 641 74 664 C 91 686 109 698 129 698 C 145 698 158 694 170 687 C 182 679 193 672 204 664 C 212 657 220 651 228 645 C 236 639 244 637 253 637 C 261 637 268 641 274 651 C 280 661 284 675 284 694 Z" unicode="ũ" />
<glyph horiz-adv-x="534" d="M 56 0 L 56 0 Z M 478 730 L 478 218 C 478 178 472 143 460 115 C 448 86 432 63 412 45 C 392 27 369 13 343 5 C 317 -2 289 -7 261 -7 C 233 -7 207 -3 182 5 C 157 13 135 25 117 43 C 98 61 83 84 72 113 C 61 141 56 176 56 218 L 56 730 L 154 730 L 154 216 C 154 166 164 130 185 110 C 206 89 233 79 265 79 C 295 79 321 88 343 108 C 365 128 376 164 376 216 L 376 730 L 478 730 Z M 265 812 L 265 812 Z M 386 812 L 144 812 L 144 885 L 386 885 L 386 812 Z" unicode="Ū" />
<glyph horiz-adv-x="402" d="M 39 0 L 39 0 Z M 39 488 L 131 488 L 131 146 C 131 119 137 99 149 87 C 161 74 177 68 198 68 C 216 68 233 75 248 89 C 262 103 270 128 270 166 L 270 488 L 361 488 L 361 0 L 277 0 L 277 64 C 270 44 256 28 236 14 C 216 0 191 -6 161 -6 C 128 -6 99 4 75 25 C 51 45 39 78 39 122 L 39 488 Z M 200 570 L 200 570 Z M 321 570 L 79 570 L 79 643 L 321 643 L 321 570 Z" unicode="ū" />
<glyph horiz-adv-x="534" d="M 56 0 L 56 0 Z M 478 730 L 478 218 C 478 178 472 143 460 115 C 448 86 432 63 412 45 C 392 27 369 13 343 5 C 317 -2 289 -7 261 -7 C 233 -7 207 -3 182 5 C 157 13 135 25 117 43 C 98 61 83 84 72 113 C 61 141 56 176 56 218 L 56 730 L 154 730 L 154 216 C 154 166 164 130 185 110 C 206 89 233 79 265 79 C 295 79 321 88 343 108 C 365 128 376 164 376 216 L 376 730 L 478 730 Z M 265 797 L 265 797 Z M 321 955 L 397 955 C 393 900 380 860 356 835 C 332 809 301 797 265 797 C 228 797 198 809 174 835 C 150 860 136 900 134 955 L 210 955 C 211 928 215 907 223 891 C 231 875 245 868 265 868 C 285 868 299 875 307 890 C 315 905 319 927 321 955 Z" unicode="Ŭ" />
<glyph horiz-adv-x="402" d="M 39 0 L 39 0 Z M 39 488 L 131 488 L 131 146 C 131 119 137 99 149 87 C 161 74 177 68 198 68 C 216 68 233 75 248 89 C 262 103 270 128 270 166 L 270 488 L 361 488 L 361 0 L 277 0 L 277 64 C 270 44 256 28 236 14 C 216 0 191 -6 161 -6 C 128 -6 99 4 75 25 C 51 45 39 78 39 122 L 39 488 Z M 200 555 L 200 555 Z M 256 713 L 332 713 C 328 658 315 618 291 593 C 267 567 236 555 200 555 C 163 555 133 567 109 593 C 85 618 71 658 69 713 L 145 713 C 146 686 150 665 158 649 C 166 633 180 626 200 626 C 220 626 234 633 242 648 C 250 663 254 685 256 713 Z" unicode="ŭ" />
<glyph horiz-adv-x="534" d="M 56 0 L 56 0 Z M 478 730 L 478 218 C 478 178 472 143 460 115 C 448 86 432 63 412 45 C 392 27 369 13 343 5 C 317 -2 289 -7 261 -7 C 233 -7 207 -3 182 5 C 157 13 135 25 117 43 C 98 61 83 84 72 113 C 61 141 56 176 56 218 L 56 730 L 154 730 L 154 216 C 154 166 164 130 185 110 C 206 89 233 79 265 79 C 295 79 321 88 343 108 C 365 128 376 164 376 216 L 376 730 L 478 730 Z M 265 780 L 265 780 Z M 265 780 C 232 780 204 791 181 814 C 158 837 147 865 147 898 C 147 930 158 958 181 981 C 204 1004 232 1016 265 1016 C 298 1016 326 1004 349 981 C 372 958 384 930 384 898 C 384 865 372 837 349 814 C 326 791 298 780 265 780 Z M 265 833 C 283 833 297 839 309 852 C 321 864 327 880 327 898 C 327 916 321 931 309 943 C 297 955 283 962 265 962 C 248 962 233 955 221 943 C 209 931 203 916 203 898 C 203 880 209 864 221 852 C 233 839 248 833 265 833 Z" unicode="Ů" />
<glyph horiz-adv-x="402" d="M 39 0 L 39 0 Z M 39 488 L 131 488 L 131 146 C 131 119 137 99 149 87 C 161 74 177 68 198 68 C 216 68 233 75 248 89 C 262 103 270 128 270 166 L 270 488 L 361 488 L 361 0 L 277 0 L 277 64 C 270 44 256 28 236 14 C 216 0 191 -6 161 -6 C 128 -6 99 4 75 25 C 51 45 39 78 39 122 L 39 488 Z M 200 538 L 200 538 Z M 200 538 C 167 538 139 549 116 572 C 93 595 82 623 82 656 C 82 688 93 716 116 739 C 139 762 167 774 200 774 C 233 774 261 762 284 739 C 307 716 319 688 319 656 C 319 623 307 595 284 572 C 261 549 233 538 200 538 Z M 200 591 C 218 591 232 597 244 610 C 256 622 262 638 262 656 C 262 674 256 689 244 701 C 232 713 218 720 200 720 C 183 720 168 713 156 701 C 144 689 138 674 138 656 C 138 638 144 622 156 610 C 168 597 183 591 200 591 Z" unicode="ů" />
<glyph horiz-adv-x="534" d="M 56 0 L 56 0 Z M 478 730 L 478 218 C 478 178 472 143 460 115 C 448 86 432 63 412 45 C 392 27 369 13 343 5 C 317 -2 289 -7 261 -7 C 233 -7 207 -3 182 5 C 157 13 135 25 117 43 C 98 61 83 84 72 113 C 61 141 56 176 56 218 L 56 730 L 154 730 L 154 216 C 154 166 164 130 185 110 C 206 89 233 79 265 79 C 295 79 321 88 343 108 C 365 128 376 164 376 216 L 376 730 L 478 730 Z M 265 792 L 265 792 Z M 100 792 L 163 952 L 261 952 L 181 792 L 100 792 Z M 269 792 L 333 952 L 431 952 L 350 792 L 269 792 Z" unicode="Ű" />
<glyph horiz-adv-x="402" d="M 35 0 L 35 0 Z M 39 488 L 131 488 L 131 146 C 131 119 137 99 149 87 C 161 74 177 68 198 68 C 216 68 233 75 248 89 C 262 103 270 128 270 166 L 270 488 L 361 488 L 361 0 L 277 0 L 277 64 C 270 44 256 28 236 14 C 216 0 191 -6 161 -6 C 128 -6 99 4 75 25 C 51 45 39 78 39 122 L 39 488 Z M 200 550 L 200 550 Z M 35 550 L 98 710 L 196 710 L 116 550 L 35 550 Z M 204 550 L 268 710 L 366 710 L 285 550 L 204 550 Z" unicode="ű" />
<glyph horiz-adv-x="534" d="M 56 0 L 56 0 Z M 478 730 L 478 218 C 478 178 472 143 460 115 C 448 86 432 63 412 45 C 392 27 369 13 343 5 C 317 -2 289 -7 261 -7 C 233 -7 207 -3 182 5 C 157 13 135 25 117 43 C 98 61 83 84 72 113 C 61 141 56 176 56 218 L 56 730 L 154 730 L 154 216 C 154 166 164 130 185 110 C 206 89 233 79 265 79 C 295 79 321 88 343 108 C 365 128 376 164 376 216 L 376 730 L 478 730 Z M 289 -9 L 289 -9 Z M 384 -96 L 411 -135 C 391 -155 369 -171 346 -182 C 322 -193 296 -199 268 -199 C 236 -199 211 -191 193 -177 C 175 -162 166 -143 166 -121 C 166 -96 175 -73 194 -51 C 212 -29 242 -11 282 4 L 339 4 C 311 -8 289 -22 272 -38 C 254 -53 246 -68 246 -84 C 246 -98 250 -109 260 -117 C 270 -125 282 -130 298 -130 C 315 -130 331 -126 346 -120 C 360 -114 373 -106 384 -96 Z" unicode="Ų" />
<glyph horiz-adv-x="402" d="M 39 0 L 39 0 Z M 39 488 L 131 488 L 131 146 C 131 119 137 99 149 87 C 161 74 177 68 198 68 C 216 68 233 75 248 89 C 262 103 270 128 270 166 L 270 488 L 361 488 L 361 0 L 277 0 L 277 64 C 270 44 256 28 236 14 C 216 0 191 -6 161 -6 C 128 -6 99 4 75 25 C 51 45 39 78 39 122 L 39 488 Z M 283 -9 L 283 -9 Z M 378 -96 L 405 -135 C 385 -155 363 -171 340 -182 C 316 -193 290 -199 262 -199 C 230 -199 205 -191 187 -177 C 169 -162 160 -143 160 -121 C 160 -96 169 -73 188 -51 C 206 -29 236 -11 276 4 L 333 4 C 305 -8 283 -22 266 -38 C 248 -53 240 -68 240 -84 C 240 -98 244 -109 254 -117 C 264 -125 276 -130 292 -130 C 309 -130 325 -126 340 -120 C 354 -114 367 -106 378 -96 Z" unicode="ų" />
<glyph horiz-adv-x="688" d="M 4 0 L 4 0 Z M 669 730 L 519 -3 L 451 -3 L 337 532 L 221 -3 L 153 -3 L 4 730 L 98 730 L 197 197 L 304 730 L 378 730 L 484 197 L 584 730 L 669 730 Z M 342 793 L 342 793 Z M 479 793 L 402 793 L 342 899 L 281 793 L 206 793 L 304 964 L 381 964 L 479 793 Z" unicode="Ŵ" />
<glyph horiz-adv-x="543" d="M 0 0 L 0 0 Z M 348 -2 L 272 285 L 194 -2 L 121 -2 L 0 488 L 86 488 L 167 141 L 240 425 L 308 425 L 379 142 L 464 488 L 542 488 L 419 -2 L 348 -2 Z M 271 551 L 271 551 Z M 408 551 L 331 551 L 271 657 L 210 551 L 135 551 L 233 722 L 310 722 L 408 551 Z" unicode="ŵ" />
<glyph horiz-adv-x="461" d="M 0 0 L 0 0 Z M 464 730 L 278 309 L 278 0 L 178 0 L 178 310 L -3 730 L 107 730 L 234 413 L 368 730 L 464 730 Z M 234 793 L 234 793 Z M 371 793 L 294 793 L 234 899 L 173 793 L 98 793 L 196 964 L 273 964 L 371 793 Z" unicode="Ŷ" />
<glyph horiz-adv-x="339" d="M 0 0 L 0 0 Z M 343 488 L 175 -102 C 165 -134 149 -159 127 -175 C 105 -191 80 -200 53 -200 C 33 -200 16 -197 2 -193 C -11 -189 -21 -184 -27 -180 L 6 -110 C 8 -112 14 -115 24 -118 C 33 -120 42 -122 51 -122 C 62 -122 72 -117 82 -108 C 92 -99 99 -85 104 -67 L 131 39 L -4 488 L 91 488 L 176 168 L 256 488 L 343 488 Z M 173 551 L 173 551 Z M 310 551 L 233 551 L 173 657 L 112 551 L 37 551 L 135 722 L 212 722 L 310 551 Z" unicode="ŷ" />
<glyph horiz-adv-x="461" d="M 0 0 L 0 0 Z M 464 730 L 278 309 L 278 0 L 178 0 L 178 310 L -3 730 L 107 730 L 234 413 L 368 730 L 464 730 Z M 234 793 L 234 793 Z M 346 793 L 272 793 L 272 951 L 346 951 L 346 793 Z M 196 793 L 122 793 L 122 951 L 196 951 L 196 793 Z" unicode="Ÿ" />
<glyph horiz-adv-x="419" d="M 15 0 L 15 0 Z M 393 730 L 393 679 L 136 87 L 405 87 L 405 0 L 15 0 L 15 49 L 274 641 L 43 641 L 43 730 L 393 730 Z M 220 792 L 220 792 Z M 125 792 L 210 964 L 315 964 L 213 792 L 125 792 Z" unicode="Ź" />
<glyph horiz-adv-x="322" d="M 11 0 L 11 0 Z M 305 488 L 305 446 L 126 79 L 311 79 L 311 0 L 11 0 L 11 35 L 196 409 L 23 409 L 23 488 L 305 488 Z M 168 550 L 168 550 Z M 73 550 L 158 722 L 263 722 L 161 550 L 73 550 Z" unicode="ź" />
<glyph horiz-adv-x="419" d="M 15 0 L 15 0 Z M 393 730 L 393 679 L 136 87 L 405 87 L 405 0 L 15 0 L 15 49 L 274 641 L 43 641 L 43 730 L 393 730 Z M 220 804 L 220 804 Z M 263 804 L 178 804 L 178 922 L 263 922 L 263 804 Z" unicode="Ż" />
<glyph horiz-adv-x="322" d="M 11 0 L 11 0 Z M 305 488 L 305 446 L 126 79 L 311 79 L 311 0 L 11 0 L 11 35 L 196 409 L 23 409 L 23 488 L 305 488 Z M 168 562 L 168 562 Z M 211 562 L 126 562 L 126 680 L 211 680 L 211 562 Z" unicode="ż" />
<glyph horiz-adv-x="419" d="M 15 0 L 15 0 Z M 393 730 L 393 679 L 136 87 L 405 87 L 405 0 L 15 0 L 15 49 L 274 641 L 43 641 L 43 730 L 393 730 Z M 220 793 L 220 793 Z M 84 964 L 161 964 L 221 857 L 282 964 L 357 964 L 259 793 L 182 793 L 84 964 Z" unicode="Ž" />
<glyph horiz-adv-x="322" d="M 11 0 L 11 0 Z M 305 488 L 305 446 L 126 79 L 311 79 L 311 0 L 11 0 L 11 35 L 196 409 L 23 409 L 23 488 L 305 488 Z M 168 551 L 168 551 Z M 32 722 L 109 722 L 169 615 L 230 722 L 305 722 L 207 551 L 130 551 L 32 722 Z" unicode="ž" />
<glyph horiz-adv-x="358" d="M 184 -60 C 181 -92 168 -119 145 -143 C 121 -167 92 -179 58 -179 C 40 -179 22 -177 6 -175 C -9 -172 -22 -169 -30 -165 L -21 -96 C -16 -96 -9 -98 0 -100 C 9 -102 18 -103 27 -103 C 47 -103 64 -96 80 -82 C 95 -68 104 -49 107 -25 L 138 327 L 43 327 L 43 407 L 145 407 L 165 628 C 168 664 182 692 207 712 C 231 731 256 741 282 741 C 295 741 308 740 321 739 C 334 738 342 737 345 737 L 338 656 C 336 656 332 657 326 658 C 320 658 314 659 308 659 C 289 659 273 652 261 640 C 249 627 242 607 240 581 L 225 407 L 329 407 L 329 327 L 218 327 L 184 -60 Z" unicode="ƒ" />
<glyph horiz-adv-x="411" d="M 18 0 L 18 0 Z M 206 -7 C 167 -7 132 0 101 13 C 70 26 42 49 18 82 L 76 144 C 90 119 109 101 132 89 C 154 77 177 71 200 71 C 225 71 247 80 267 100 C 287 119 297 145 297 178 C 297 212 288 240 272 262 C 256 284 225 310 180 339 C 136 367 101 398 75 431 C 49 463 36 508 36 564 C 36 590 40 614 50 636 C 59 657 72 675 88 690 C 104 705 123 717 145 725 C 166 733 189 737 213 737 C 253 737 286 730 312 717 C 338 703 358 688 373 672 L 318 608 C 306 620 292 630 274 639 C 256 647 236 652 216 652 C 193 652 173 644 155 628 C 137 612 128 588 128 558 C 128 529 136 505 151 486 C 166 466 197 442 243 414 C 295 381 333 347 355 311 C 377 275 388 232 388 182 C 388 151 382 124 372 100 C 362 76 348 57 331 41 C 314 25 295 13 273 5 C 251 -3 228 -7 206 -7 Z M 186 -71 L 186 -71 Z M 269 -71 C 268 -93 265 -116 259 -140 C 253 -164 245 -188 236 -210 C 227 -232 217 -253 206 -272 C 195 -291 184 -307 174 -319 L 103 -287 C 110 -277 117 -264 125 -248 C 133 -232 140 -215 147 -196 C 153 -176 159 -156 164 -134 C 168 -112 171 -91 172 -71 L 269 -71 Z" unicode="Ș" />
<glyph horiz-adv-x="309" d="M 15 0 L 15 0 Z M 162 -5 C 129 -5 100 1 75 13 C 49 25 29 42 15 63 L 61 125 C 72 108 86 95 102 85 C 118 75 135 71 152 71 C 166 71 180 76 193 86 C 205 96 212 111 212 131 C 212 149 204 165 190 178 C 175 190 154 205 127 222 C 97 239 74 258 56 280 C 38 302 29 332 29 370 C 29 404 41 433 66 457 C 90 481 120 493 156 493 C 184 493 208 488 229 480 C 249 471 267 461 281 449 L 239 381 C 231 389 220 396 206 404 C 192 411 178 415 164 415 C 148 415 134 410 123 402 C 111 394 106 382 106 367 C 106 351 112 339 125 329 C 137 319 158 304 188 286 C 223 264 249 241 265 219 C 281 197 289 166 289 128 C 289 105 285 85 277 69 C 269 52 258 38 246 27 C 234 16 220 8 205 3 C 190 -2 176 -5 162 -5 Z M 144 -71 L 144 -71 Z M 227 -71 C 226 -93 223 -116 217 -140 C 211 -164 203 -188 194 -210 C 185 -232 175 -253 164 -272 C 153 -291 142 -307 132 -319 L 61 -287 C 68 -277 75 -264 83 -248 C 91 -232 98 -215 105 -196 C 111 -176 117 -156 122 -134 C 126 -112 129 -91 130 -71 L 227 -71 Z" unicode="ș" />
<glyph horiz-adv-x="377" d="M 7 0 L 7 0 Z M 370 641 L 238 641 L 238 0 L 138 0 L 138 641 L 7 641 L 7 730 L 370 730 L 370 641 Z M 166 -71 L 166 -71 Z M 249 -71 C 248 -93 245 -116 239 -140 C 233 -164 225 -188 216 -210 C 207 -232 197 -253 186 -272 C 175 -291 164 -307 154 -319 L 83 -287 C 90 -277 97 -264 105 -248 C 113 -232 120 -215 127 -196 C 133 -176 139 -156 144 -134 C 148 -112 151 -91 152 -71 L 249 -71 Z" unicode="Ț" />
<glyph horiz-adv-x="221" d="M 9 0 L 9 0 Z M 203 88 L 221 16 C 215 11 206 6 196 2 C 185 -1 170 -4 152 -4 C 142 -4 131 -1 119 2 C 107 6 96 13 86 23 C 76 32 68 44 62 59 C 55 73 52 91 52 113 L 52 409 L 9 409 L 9 488 L 54 488 L 54 614 L 141 625 L 141 488 L 206 488 L 206 409 L 143 409 L 143 117 C 143 105 146 95 152 89 C 158 83 166 80 176 80 C 180 80 185 80 191 82 C 196 84 200 86 203 88 Z M 111 -71 L 111 -71 Z M 194 -71 C 193 -93 190 -116 184 -140 C 178 -164 170 -188 161 -210 C 152 -232 142 -253 131 -272 C 120 -291 109 -307 99 -319 L 28 -287 C 35 -277 42 -264 50 -248 C 58 -232 65 -215 72 -196 C 78 -176 84 -156 89 -134 C 93 -112 96 -91 97 -71 L 194 -71 Z" unicode="ț" />
<glyph horiz-adv-x="178" d="M 136 488 L 136 -82 C 136 -112 126 -137 107 -157 C 88 -177 63 -187 33 -187 C 18 -187 4 -184 -9 -180 C -22 -176 -30 -172 -34 -168 L -10 -104 C -7 -104 -4 -105 0 -107 C 4 -108 8 -109 14 -109 C 22 -109 30 -105 36 -99 C 42 -92 46 -83 46 -71 L 46 488 L 136 488 Z" unicode="ȷ" />
<glyph horiz-adv-x="500" d="M 387 551 L 310 551 L 250 657 L 189 551 L 114 551 L 212 722 L 289 722 L 387 551 Z" unicode="ˆ" />
<glyph horiz-adv-x="500" d="M 114 722 L 191 722 L 251 615 L 312 722 L 387 722 L 289 551 L 212 551 L 114 722 Z" unicode="ˇ" />
<glyph horiz-adv-x="500" d="M 306 713 L 382 713 C 378 658 365 618 341 593 C 317 567 286 555 250 555 C 213 555 183 567 159 593 C 135 618 121 658 119 713 L 195 713 C 196 686 200 665 208 649 C 216 633 230 626 250 626 C 270 626 284 633 292 648 C 300 663 304 685 306 713 Z" unicode="˘" />
<glyph horiz-adv-x="500" d="M 293 562 L 208 562 L 208 680 L 293 680 L 293 562 Z" unicode="˙" />
<glyph horiz-adv-x="500" d="M 250 538 C 217 538 189 549 166 572 C 143 595 132 623 132 656 C 132 688 143 716 166 739 C 189 762 217 774 250 774 C 283 774 311 762 334 739 C 357 716 369 688 369 656 C 369 623 357 595 334 572 C 311 549 283 538 250 538 Z M 250 591 C 268 591 282 597 294 610 C 306 622 312 638 312 656 C 312 674 306 689 294 701 C 282 713 268 720 250 720 C 233 720 218 713 206 701 C 194 689 188 674 188 656 C 188 638 194 622 206 610 C 218 597 233 591 250 591 Z" unicode="˚" />
<glyph horiz-adv-x="500" d="M 352 -87 L 379 -126 C 359 -146 337 -162 314 -173 C 290 -184 264 -190 236 -190 C 204 -190 179 -182 161 -168 C 143 -153 134 -134 134 -112 C 134 -87 143 -64 162 -42 C 180 -20 210 -2 250 13 L 307 13 C 279 0 257 -13 240 -29 C 222 -44 214 -59 214 -75 C 214 -89 218 -100 228 -108 C 238 -116 250 -121 266 -121 C 283 -121 299 -117 314 -111 C 328 -105 341 -97 352 -87 Z" unicode="˛" />
<glyph horiz-adv-x="500" d="M 337 694 L 405 694 C 405 648 398 613 385 591 C 372 568 355 557 335 557 C 317 557 301 560 288 568 C 275 575 264 582 256 589 C 247 595 238 602 229 608 C 220 614 211 618 203 618 C 194 618 186 612 180 602 C 174 592 170 578 170 561 L 102 561 C 102 607 110 641 127 664 C 144 686 162 698 182 698 C 198 698 211 694 223 687 C 235 679 246 672 257 664 C 265 657 273 651 281 645 C 289 639 297 637 306 637 C 314 637 321 641 327 651 C 333 661 337 675 337 694 Z" unicode="˜" />
<glyph horiz-adv-x="500" d="M 104 550 L 167 710 L 265 710 L 185 550 L 104 550 Z M 273 550 L 337 710 L 435 710 L 354 550 L 273 550 Z" unicode="˝" />
<glyph horiz-adv-x="0" d="M 0 550 L 0 550 Z M 95 550 L 7 550 L -95 722 L 10 722 L 95 550 Z" unicode="̀" />
<glyph horiz-adv-x="0" d="M 0 550 L 0 550 Z M -95 550 L -10 722 L 95 722 L -7 550 L -95 550 Z" unicode="́" />
<glyph horiz-adv-x="0" d="M 0 551 L 0 551 Z M 137 551 L 60 551 L 0 657 L -61 551 L -136 551 L -38 722 L 39 722 L 137 551 Z" unicode="̂" />
<glyph horiz-adv-x="0" d="M 0 557 L 0 557 Z M 84 694 L 152 694 C 152 648 145 613 132 591 C 119 568 102 557 82 557 C 64 557 48 560 35 568 C 22 575 11 582 3 589 C -5 595 -14 602 -23 608 C -32 614 -41 618 -50 618 C -58 618 -66 612 -72 602 C -78 592 -82 578 -83 561 L -151 561 C -151 607 -142 641 -125 664 C -108 686 -90 698 -71 698 C -55 698 -41 694 -29 687 C -17 679 -6 672 4 664 C 12 657 20 651 28 645 C 36 639 44 637 53 637 C 61 637 68 641 74 651 C 80 661 84 675 84 694 Z" unicode="̃" />
<glyph horiz-adv-x="0" d="M 0 570 L 0 570 Z M 121 570 L -121 570 L -121 643 L 121 643 L 121 570 Z" unicode="̄" />
<glyph horiz-adv-x="0" d="M 0 555 L 0 555 Z M 56 713 L 132 713 C 128 658 115 618 91 593 C 67 567 36 555 0 555 C -36 555 -67 567 -91 593 C -115 618 -128 658 -131 713 L -55 713 C -53 686 -49 665 -41 649 C -33 633 -20 626 0 626 C 20 626 34 633 42 648 C 50 663 54 685 56 713 Z" unicode="̆" />
<glyph horiz-adv-x="0" d="M 0 562 L 0 562 Z M 43 562 L -42 562 L -42 680 L 43 680 L 43 562 Z" unicode="̇" />
<glyph horiz-adv-x="0" d="M 0 551 L 0 551 Z M 112 551 L 38 551 L 38 709 L 112 709 L 112 551 Z M -38 551 L -112 551 L -112 709 L -38 709 L -38 551 Z" unicode="̈" />
<glyph horiz-adv-x="0" d="M 0 538 L 0 538 Z M 0 538 C -32 538 -60 549 -83 572 C -106 595 -118 623 -118 656 C -118 688 -106 716 -83 739 C -60 762 -32 774 0 774 C 33 774 61 762 84 739 C 107 716 119 688 119 656 C 119 623 107 595 84 572 C 61 549 33 538 0 538 Z M 0 591 C 18 591 32 597 44 610 C 56 622 62 638 62 656 C 62 674 56 689 44 701 C 32 713 18 720 0 720 C -16 720 -31 713 -43 701 C -55 689 -62 674 -62 656 C -62 638 -55 622 -43 610 C -31 597 -16 591 0 591 Z" unicode="̊" />
<glyph horiz-adv-x="0" d="M 0 550 L 0 550 Z M -165 550 L -102 710 L -4 710 L -84 550 L -165 550 Z M 4 550 L 68 710 L 166 710 L 85 550 L 4 550 Z" unicode="̋" />
<glyph horiz-adv-x="0" d="M 0 551 L 0 551 Z M -136 722 L -59 722 L 1 615 L 62 722 L 137 722 L 39 551 L -38 551 L -136 722 Z" unicode="̌" />
<glyph horiz-adv-x="0" d="M 0 -71 L 0 -71 Z M 83 -71 C 82 -93 79 -116 73 -140 C 67 -164 59 -188 50 -210 C 41 -232 31 -253 20 -272 C 9 -291 -1 -307 -12 -319 L -83 -287 C -75 -277 -68 -264 -60 -248 C -52 -232 -45 -215 -39 -196 C -32 -176 -26 -156 -22 -134 C -17 -112 -14 -91 -14 -71 L 83 -71 Z" unicode="̦" />
<glyph horiz-adv-x="0" d="M 0 0 L 0 0 Z M 5 -182 C -15 -182 -36 -179 -56 -173 C -76 -167 -93 -159 -106 -149 L -88 -113 C -80 -118 -69 -124 -55 -130 C -41 -136 -27 -139 -12 -139 C 0 -139 11 -135 21 -129 C 30 -123 35 -114 35 -104 C 35 -91 30 -82 22 -77 C 14 -72 5 -70 -5 -70 C -11 -70 -17 -70 -23 -71 C -29 -72 -35 -74 -41 -77 L -53 -60 L 2 13 L 50 13 L 6 -46 C 34 -42 57 -45 77 -56 C 96 -66 106 -83 106 -107 C 106 -131 96 -149 76 -162 C 56 -175 32 -182 5 -182 Z" unicode="̧" />
<glyph horiz-adv-x="0" d="M 0 0 L 0 0 Z M 95 -87 L 122 -126 C 102 -146 80 -162 57 -173 C 33 -184 7 -190 -21 -190 C -53 -190 -78 -182 -96 -168 C -114 -153 -123 -134 -123 -112 C -123 -87 -113 -64 -95 -42 C -76 -20 -47 -2 -7 13 L 50 13 C 22 0 0 -13 -17 -29 C -34 -44 -43 -59 -43 -75 C -43 -89 -38 -100 -28 -108 C -18 -116 -6 -121 9 -121 C 26 -121 42 -117 57 -111 C 71 -105 84 -97 95 -87 Z" unicode="̨" />
<glyph horiz-adv-x="563" d="M 1 0 L 1 0 Z M 550 0 L 1 0 L 262 730 L 290 730 L 550 0 Z M 433 70 L 273 562 L 115 70 L 433 70 Z" unicode="Δ" />
<glyph horiz-adv-x="724" d="M 25 0 L 25 0 Z M 34 0 L 34 85 L 241 85 L 241 153 C 208 161 178 175 151 194 C 124 213 101 236 83 262 C 65 288 50 316 40 348 C 30 379 25 411 25 445 C 25 487 32 526 47 563 C 61 599 83 631 111 658 C 139 685 173 706 214 722 C 254 738 300 746 352 746 C 405 746 453 738 495 722 C 537 706 572 684 600 657 C 628 630 650 598 665 562 C 680 525 688 486 688 445 C 688 411 683 379 674 348 C 665 316 652 288 634 262 C 616 236 593 214 566 195 C 538 176 507 162 471 153 L 471 85 L 678 85 L 678 0 L 404 0 L 404 203 C 434 211 460 223 483 239 C 505 255 524 274 540 295 C 555 316 566 339 574 364 C 582 389 586 414 586 440 C 586 473 580 504 569 532 C 557 560 542 584 522 604 C 502 624 477 639 448 651 C 419 662 387 668 353 668 C 285 668 231 646 189 603 C 147 560 126 505 126 438 C 126 413 129 389 137 365 C 145 341 156 318 171 297 C 186 276 205 257 228 241 C 251 224 278 211 309 203 L 309 0 L 34 0 Z" unicode="Ω" />
<glyph horiz-adv-x="589" d="M 69 0 L 69 0 Z M 69 -106 L 69 508 L 161 508 L 161 163 C 161 133 173 110 199 92 C 224 74 252 66 283 66 C 299 66 316 68 333 73 C 350 78 365 85 379 95 C 392 105 403 117 411 132 C 419 146 424 163 424 183 L 424 508 L 515 508 L 515 0 L 431 0 L 431 99 C 421 71 400 47 368 26 C 336 5 302 -5 268 -6 C 244 -6 221 -1 199 8 C 177 18 162 33 154 52 L 154 -106 L 69 -106 Z" unicode="μ" />
<glyph horiz-adv-x="529" d="M 174 436 L 174 0 L 83 0 L 83 436 L 15 436 L 15 508 L 514 508 L 514 436 L 442 436 L 442 0 L 350 0 L 350 436 L 174 436 Z" unicode="π" />
<glyph horiz-adv-x="688" d="M 4 0 L 4 0 Z M 669 730 L 519 -3 L 451 -3 L 337 532 L 221 -3 L 153 -3 L 4 730 L 98 730 L 197 197 L 304 730 L 378 730 L 484 197 L 584 730 L 669 730 Z M 342 792 L 342 792 Z M 437 792 L 349 792 L 247 964 L 352 964 L 437 792 Z" unicode="Ẁ" />
<glyph horiz-adv-x="543" d="M 0 0 L 0 0 Z M 348 -2 L 272 285 L 194 -2 L 121 -2 L 0 488 L 86 488 L 167 141 L 240 425 L 308 425 L 379 142 L 464 488 L 542 488 L 419 -2 L 348 -2 Z M 271 550 L 271 550 Z M 366 550 L 278 550 L 176 722 L 281 722 L 366 550 Z" unicode="ẁ" />
<glyph horiz-adv-x="688" d="M 4 0 L 4 0 Z M 669 730 L 519 -3 L 451 -3 L 337 532 L 221 -3 L 153 -3 L 4 730 L 98 730 L 197 197 L 304 730 L 378 730 L 484 197 L 584 730 L 669 730 Z M 342 792 L 342 792 Z M 247 792 L 332 964 L 437 964 L 335 792 L 247 792 Z" unicode="Ẃ" />
<glyph horiz-adv-x="543" d="M 0 0 L 0 0 Z M 348 -2 L 272 285 L 194 -2 L 121 -2 L 0 488 L 86 488 L 167 141 L 240 425 L 308 425 L 379 142 L 464 488 L 542 488 L 419 -2 L 348 -2 Z M 271 550 L 271 550 Z M 176 550 L 261 722 L 366 722 L 264 550 L 176 550 Z" unicode="ẃ" />
<glyph horiz-adv-x="688" d="M 4 0 L 4 0 Z M 669 730 L 519 -3 L 451 -3 L 337 532 L 221 -3 L 153 -3 L 4 730 L 98 730 L 197 197 L 304 730 L 378 730 L 484 197 L 584 730 L 669 730 Z M 342 793 L 342 793 Z M 454 793 L 380 793 L 380 951 L 454 951 L 454 793 Z M 304 793 L 230 793 L 230 951 L 304 951 L 304 793 Z" unicode="Ẅ" />
<glyph horiz-adv-x="543" d="M 0 0 L 0 0 Z M 348 -2 L 272 285 L 194 -2 L 121 -2 L 0 488 L 86 488 L 167 141 L 240 425 L 308 425 L 379 142 L 464 488 L 542 488 L 419 -2 L 348 -2 Z M 271 551 L 271 551 Z M 383 551 L 309 551 L 309 709 L 383 709 L 383 551 Z M 233 551 L 159 551 L 159 709 L 233 709 L 233 551 Z" unicode="ẅ" />
<glyph horiz-adv-x="461" d="M 0 0 L 0 0 Z M 464 730 L 278 309 L 278 0 L 178 0 L 178 310 L -3 730 L 107 730 L 234 413 L 368 730 L 464 730 Z M 234 792 L 234 792 Z M 329 792 L 241 792 L 139 964 L 244 964 L 329 792 Z" unicode="Ỳ" />
<glyph horiz-adv-x="339" d="M 0 0 L 0 0 Z M 343 488 L 175 -102 C 165 -134 149 -159 127 -175 C 105 -191 80 -200 53 -200 C 33 -200 16 -197 2 -193 C -11 -189 -21 -184 -27 -180 L 6 -110 C 8 -112 14 -115 24 -118 C 33 -120 42 -122 51 -122 C 62 -122 72 -117 82 -108 C 92 -99 99 -85 104 -67 L 131 39 L -4 488 L 91 488 L 176 168 L 256 488 L 343 488 Z M 173 550 L 173 550 Z M 268 550 L 180 550 L 78 722 L 183 722 L 268 550 Z" unicode="ỳ" />
<glyph horiz-adv-x="460" d="M 420 218 L 41 218 L 41 299 L 420 299 L 420 218 Z" unicode="–" />
<glyph horiz-adv-x="645" d="M 605 218 L 41 218 L 41 299 L 605 299 L 605 218 Z" unicode="—" />
<glyph horiz-adv-x="229" d="M 40 507 L 40 514 C 40 558 46 597 58 633 C 70 669 91 703 120 737 L 207 731 C 187 707 170 677 155 642 C 140 607 133 565 133 515 L 133 507 L 40 507 Z" unicode="‘" />
<glyph horiz-adv-x="229" d="M 189 737 L 189 730 C 189 686 182 647 170 611 C 158 575 137 540 109 507 L 22 513 C 41 537 58 567 73 602 C 88 637 96 679 96 729 L 96 737 L 189 737 Z" unicode="’" />
<glyph horiz-adv-x="231" d="M 188 112 L 188 105 C 188 61 181 22 169 -13 C 157 -49 136 -84 108 -118 L 21 -112 C 40 -88 57 -58 72 -23 C 87 12 95 54 95 104 L 95 112 L 188 112 Z" unicode="‚" />
<glyph horiz-adv-x="377" d="M 198 507 L 198 514 C 198 553 205 591 219 627 C 233 663 255 700 286 737 L 370 731 C 351 711 332 682 314 645 C 296 607 287 564 287 515 L 287 507 L 198 507 Z M 42 507 L 42 514 C 42 553 49 591 63 627 C 77 663 99 700 130 737 L 213 731 C 195 711 177 682 159 645 C 140 607 131 564 131 515 L 131 507 L 42 507 Z" unicode="“" />
<glyph horiz-adv-x="377" d="M 185 737 L 185 730 C 185 686 178 647 166 611 C 153 575 133 541 105 507 L 22 513 C 42 537 59 567 74 602 C 89 637 97 679 97 729 L 97 737 L 185 737 Z M 336 737 L 336 730 C 336 686 329 647 316 611 C 302 575 282 541 255 507 L 172 513 C 192 537 209 567 224 602 C 239 637 247 679 247 729 L 247 737 L 336 737 Z" unicode="”" />
<glyph horiz-adv-x="381" d="M 184 112 L 184 105 C 184 61 177 22 165 -13 C 153 -49 133 -84 105 -118 L 21 -112 C 41 -87 59 -57 73 -22 C 87 12 95 54 95 104 L 95 112 L 184 112 Z M 338 112 L 338 105 C 338 61 331 22 319 -13 C 306 -49 286 -84 259 -118 L 175 -112 C 195 -87 212 -57 227 -22 C 241 12 249 54 249 104 L 249 112 L 338 112 Z" unicode="„" />
<glyph horiz-adv-x="411" d="M 393 381 L 251 381 L 251 -179 L 154 -179 L 154 381 L 18 381 L 18 472 L 154 472 L 154 730 L 251 730 L 251 472 L 393 472 L 393 381 Z" unicode="†" />
<glyph horiz-adv-x="419" d="M 159 -179 L 159 107 L 27 107 L 27 198 L 159 198 L 159 378 L 27 378 L 27 470 L 159 470 L 159 730 L 255 730 L 255 470 L 393 470 L 393 378 L 255 378 L 255 198 L 393 198 L 393 107 L 255 107 L 255 -179 L 159 -179 Z" unicode="‡" />
<glyph horiz-adv-x="382" d="M 191 465 C 215 465 235 456 252 440 C 268 423 277 403 277 379 C 277 355 268 334 252 318 C 235 302 215 294 191 294 C 167 294 146 302 130 318 C 114 334 106 355 106 379 C 106 403 114 423 130 440 C 146 456 167 465 191 465 Z" unicode="•" />
<glyph horiz-adv-x="622" d="M 57 0 L 57 125 L 151 125 L 151 0 L 57 0 Z M 264 0 L 264 125 L 358 125 L 358 0 L 264 0 Z M 471 0 L 471 125 L 566 125 L 566 0 L 471 0 Z" unicode="…" />
<glyph horiz-adv-x="982" d="M 168 363 C 152 363 136 366 120 374 C 104 382 89 393 77 409 C 64 425 54 444 46 468 C 38 492 35 519 35 551 C 35 604 47 649 72 685 C 97 721 129 740 167 740 C 187 740 206 735 223 725 C 240 715 254 701 266 685 C 278 668 287 648 294 626 C 300 603 304 579 304 554 C 304 527 300 502 293 479 C 286 455 277 435 265 418 C 253 400 238 387 222 377 C 205 367 187 363 168 363 Z M 85 0 L 503 730 L 572 730 L 156 0 L 85 0 Z M 110 551 C 110 537 110 523 112 509 C 114 495 117 482 121 471 C 125 460 131 451 139 444 C 147 437 156 434 168 434 C 192 434 208 446 216 471 C 224 495 229 522 229 551 C 229 565 228 579 226 593 C 224 607 220 620 216 631 C 212 642 206 651 198 658 C 190 665 181 669 170 669 C 147 669 131 656 123 632 C 114 607 110 580 110 551 Z M 505 -3 C 488 -3 471 0 455 8 C 439 16 424 27 412 43 C 399 59 389 78 381 102 C 373 126 369 153 369 185 C 369 238 381 283 407 319 C 433 355 466 374 507 374 C 527 374 546 369 563 359 C 580 349 594 335 606 319 C 617 302 626 282 632 260 C 638 237 642 213 642 188 C 642 161 638 136 632 113 C 625 89 616 69 604 52 C 592 34 577 21 561 11 C 544 1 525 -3 505 -3 Z M 809 -3 C 792 -3 776 0 760 8 C 744 16 729 27 717 43 C 704 59 694 78 686 102 C 678 126 674 153 674 185 C 674 238 686 283 712 319 C 738 355 771 374 811 374 C 831 374 850 369 867 359 C 884 349 898 335 910 319 C 921 302 930 282 936 260 C 942 237 946 213 946 188 C 946 161 942 136 936 113 C 929 89 920 69 908 52 C 896 34 881 21 865 11 C 848 1 829 -3 809 -3 Z M 504 68 C 528 68 544 80 553 104 C 562 128 567 155 567 185 C 567 199 565 214 563 228 C 561 242 557 255 553 266 C 548 277 542 286 534 293 C 526 300 516 304 506 304 C 485 304 470 291 460 267 C 450 243 445 215 445 185 C 445 155 449 128 458 104 C 467 80 482 68 504 68 Z M 808 68 C 832 68 848 80 857 104 C 866 128 871 155 871 185 C 871 199 870 214 868 228 C 866 242 862 255 857 266 C 852 277 846 286 838 293 C 830 300 821 304 810 304 C 789 304 774 291 764 267 C 754 243 749 215 749 185 C 749 155 753 128 762 104 C 770 80 786 68 808 68 Z" unicode="‰" />
<glyph horiz-adv-x="238" d="M 209 97 L 28 265 L 28 318 L 209 484 L 209 394 L 108 289 L 209 190 L 209 97 Z" unicode="‹" />
<glyph horiz-adv-x="239" d="M 29 485 L 212 316 L 212 264 L 29 98 L 29 187 L 130 292 L 29 391 L 29 485 Z" unicode="›" />
<glyph horiz-adv-x="145" d="M 303 730 L -67 0 L -145 0 L 224 730 L 303 730 Z" unicode="⁄" />
<glyph horiz-adv-x="327" d="M 15 455 L 15 511 L 201 738 L 254 738 L 254 514 L 315 514 L 315 455 L 254 455 L 254 373 L 178 373 L 178 455 L 15 455 Z M 92 512 L 180 512 L 180 623 L 92 512 Z" unicode="⁴" />
<glyph horiz-adv-x="471" d="M 452 116 C 436 78 412 48 381 24 C 349 0 315 -12 277 -12 C 226 -12 182 11 145 59 C 108 107 84 174 74 260 L 26 260 L 26 330 L 69 330 C 68 334 68 339 68 345 C 68 351 68 356 68 362 C 68 367 68 372 68 378 C 68 383 68 388 68 393 L 26 393 L 26 463 L 73 463 C 83 547 105 615 140 666 C 174 716 220 742 276 742 C 323 742 360 730 387 707 C 413 683 433 656 446 626 L 382 582 C 371 603 358 621 343 635 C 327 649 306 657 280 657 C 250 657 225 640 204 607 C 182 573 168 525 161 463 L 422 463 L 422 393 L 156 393 C 155 387 155 382 155 376 C 155 370 155 365 155 360 C 155 355 155 350 155 345 C 155 339 155 334 155 330 L 422 330 L 422 260 L 161 260 C 169 194 185 146 208 116 C 230 85 255 70 283 70 C 309 70 331 79 348 97 C 365 115 379 137 390 163 L 452 116 Z" unicode="€" />
<glyph horiz-adv-x="830" d="M 781 329 L 701 329 L 701 594 L 578 398 L 556 398 L 435 593 L 435 329 L 357 329 L 357 730 L 438 730 L 569 518 L 704 730 L 781 730 L 781 329 Z M 328 642 L 223 642 L 223 329 L 132 329 L 132 642 L 21 642 L 21 730 L 328 730 L 328 642 Z" unicode="™" />
<glyph horiz-adv-x="713" d="M 34 0 L 34 85 L 241 85 L 241 153 C 208 161 178 175 151 194 C 124 213 101 236 83 262 C 65 288 50 316 40 348 C 30 379 25 411 25 445 C 25 487 32 526 47 563 C 61 599 83 631 111 658 C 139 685 173 706 214 722 C 254 738 300 746 352 746 C 405 746 453 738 495 722 C 537 706 572 684 600 657 C 628 630 650 598 665 562 C 680 525 688 486 688 445 C 688 411 683 379 674 348 C 665 316 652 288 634 262 C 616 236 593 214 566 195 C 538 176 507 162 471 153 L 471 85 L 678 85 L 678 0 L 404 0 L 404 203 C 434 211 460 223 483 239 C 505 255 524 274 540 295 C 555 316 566 339 574 364 C 582 389 586 414 586 440 C 586 473 580 504 569 532 C 557 560 542 584 522 604 C 502 624 477 639 448 651 C 419 662 387 668 353 668 C 285 668 231 646 189 603 C 147 560 126 505 126 438 C 126 413 129 389 137 365 C 145 341 156 318 171 297 C 186 276 205 257 228 241 C 251 224 278 211 309 203 L 309 0 L 34 0 Z" unicode="Ω" />
<glyph horiz-adv-x="453" d="M 413 277 C 413 226 408 183 398 147 C 388 111 374 81 357 59 C 340 36 320 19 297 9 C 273 -1 248 -7 222 -7 C 197 -7 173 -2 149 7 C 125 16 105 30 87 49 C 69 67 55 91 44 119 C 33 147 28 179 28 216 C 28 250 32 282 42 310 C 51 338 64 362 80 382 C 96 402 115 417 137 428 C 159 439 182 445 207 445 C 237 445 263 438 283 424 C 303 410 320 391 332 367 C 325 431 313 486 296 533 C 279 579 260 617 239 647 C 217 677 195 699 172 714 C 149 729 128 737 109 738 L 150 802 C 170 802 196 792 226 772 C 256 752 284 722 312 680 C 340 638 363 584 383 517 C 403 450 413 370 413 277 Z M 220 65 C 252 65 276 78 292 106 C 308 134 317 173 317 223 C 317 269 308 306 292 332 C 276 358 251 371 219 371 C 189 371 165 357 149 331 C 132 305 124 267 124 218 C 124 166 132 127 149 102 C 165 77 189 65 220 65 Z" unicode="∂" />
<glyph horiz-adv-x="551" d="M 550 0 L 1 0 L 262 730 L 290 730 L 550 0 Z M 433 70 L 273 562 L 115 70 L 433 70 Z" unicode="∆" />
<glyph horiz-adv-x="643" d="M 214 647 L 214 0 L 119 0 L 119 647 L 15 647 L 15 730 L 628 730 L 628 647 L 530 647 L 530 0 L 434 0 L 434 647 L 214 647 Z" unicode="∏" />
<glyph horiz-adv-x="532" d="M 171 647 L 382 307 L 138 -96 L 503 -96 L 503 -179 L -15 -179 L 289 306 L 15 730 L 482 730 L 482 647 L 171 647 Z" unicode="∑" />
<glyph horiz-adv-x="492" d="M 452 294 L 41 294 L 41 369 L 452 369 L 452 294 Z" unicode="−" />
<glyph horiz-adv-x="510" d="M 502 730 L 198 0 L 186 0 L 13 329 L 79 378 L 203 130 L 443 730 L 502 730 Z" unicode="√" />
<glyph horiz-adv-x="338" d="M 107 -27 L 165 628 C 168 664 182 692 207 712 C 231 731 256 741 282 741 C 295 741 308 740 321 739 C 334 738 342 737 345 737 L 338 656 C 336 656 332 657 326 658 C 320 658 314 659 308 659 C 289 659 273 652 261 640 C 249 627 242 607 240 581 L 184 -60 C 181 -92 168 -120 145 -144 C 121 -168 92 -179 58 -179 C 39 -179 22 -177 6 -173 C -10 -169 -22 -165 -30 -161 L -20 -96 C -16 -96 -9 -98 0 -101 C 9 -103 18 -105 27 -105 C 47 -105 64 -98 80 -84 C 95 -70 104 -51 107 -27 Z" unicode="∫" />
<glyph horiz-adv-x="471" d="M 366 499 L 446 499 C 444 451 435 412 419 382 C 403 352 378 337 346 337 C 324 337 305 341 287 350 C 269 359 254 369 242 380 C 229 391 216 401 204 409 C 192 417 178 422 164 422 C 151 422 138 414 125 399 C 112 384 106 364 106 340 L 32 340 C 32 390 41 429 61 458 C 81 486 106 501 138 501 C 159 501 179 496 197 486 C 215 476 230 465 243 455 C 255 446 266 438 278 430 C 290 422 302 418 315 418 C 333 418 346 424 354 438 C 362 451 366 471 366 499 Z M 368 322 L 446 322 C 444 274 435 235 419 205 C 403 175 378 161 344 161 C 322 161 302 165 284 174 C 266 182 251 192 239 203 C 226 214 214 223 203 231 C 191 239 179 243 165 243 C 152 243 139 236 126 222 C 113 208 107 188 107 164 L 32 164 C 32 213 42 252 62 281 C 82 309 108 324 141 324 C 163 324 184 318 202 308 C 220 297 235 286 247 276 C 259 266 270 257 282 250 C 293 243 305 240 318 240 C 336 240 348 246 356 259 C 364 272 368 293 368 322 Z" unicode="≈" />
<glyph horiz-adv-x="485" d="M 443 175 L 224 175 L 177 66 L 113 89 L 151 175 L 60 175 L 60 252 L 184 252 L 245 390 L 60 390 L 60 466 L 278 466 L 325 574 L 388 551 L 351 466 L 443 466 L 443 390 L 318 390 L 258 252 L 443 252 L 443 175 Z" unicode="≠" />
<glyph horiz-adv-x="485" d="M 56 295 L 56 355 L 426 555 L 426 472 L 147 327 L 425 183 L 425 99 L 56 295 Z M 55 89 L 425 89 L 425 19 L 55 19 L 55 89 Z" unicode="≤" />
<glyph horiz-adv-x="485" d="M 424 295 L 56 99 L 56 183 L 334 327 L 55 472 L 55 555 L 424 355 L 424 295 Z M 425 89 L 425 19 L 55 19 L 55 89 L 425 89 Z" unicode="≥" />
<glyph horiz-adv-x="533" d="M 504 326 L 272 -16 L 261 -16 L 30 326 L 30 337 L 261 678 L 272 678 L 504 337 L 504 326 Z M 417 327 L 417 336 L 271 556 L 263 556 L 117 336 L 117 327 L 263 106 L 271 106 L 417 327 Z" unicode="◊" />
<glyph horiz-adv-x="730" d="M 448 678 L 282 678 L 282 730 L 448 730 L 448 678 Z M 659 282 L 605 282 L 605 448 L 659 448 L 659 282 Z M 125 282 L 71 282 L 71 448 L 125 448 L 125 282 Z M 428 302 L 302 302 L 302 428 L 428 428 L 428 302 Z M 448 0 L 282 0 L 282 53 L 448 53 L 448 0 Z" unicode="" />
<glyph horiz-adv-x="410" d="M 217 400 L 152 400 L 152 0 L 61 0 L 61 400 L 17 400 L 17 473 L 61 473 L 61 643 C 61 665 65 686 73 705 C 81 724 91 740 104 754 C 116 767 131 777 147 785 C 163 793 178 797 194 797 C 214 797 233 794 250 790 C 267 786 279 781 286 776 L 263 708 C 258 710 250 713 240 716 C 230 719 220 721 211 721 C 195 721 181 713 169 697 C 157 681 151 658 151 627 L 151 473 L 217 473 L 217 400 Z M 368 572 L 273 572 L 273 657 L 368 657 L 368 572 Z M 366 0 L 275 0 L 275 473 L 366 473 L 366 0 Z" unicode="ﬁ" />
<glyph horiz-adv-x="408" d="M 152 409 L 152 0 L 61 0 L 61 409 L 13 409 L 13 488 L 61 488 L 61 642 C 61 664 65 685 73 705 C 81 724 91 740 104 754 C 116 767 131 777 147 785 C 163 793 178 797 194 797 C 210 797 226 795 241 792 C 255 789 267 786 276 782 L 276 795 L 368 795 L 368 0 L 276 0 L 276 746 L 263 708 C 258 710 250 712 240 715 C 230 718 220 720 211 720 C 195 720 181 712 169 697 C 157 681 151 658 151 627 L 151 488 L 219 488 L 219 409 L 152 409 Z" unicode="ﬂ" />
</font>
</defs>
</svg>
