<?xml version="1.0" encoding="utf-8" ?><svg version="1.1" xmlns = 'http://www.w3.org/2000/svg'><defs><font id='web' horiz-adv-x="1000">
<font-face font-family="web" descent="-200" cap-height="730" units-per-em="1000" bbox="-174,-334,1034,1030" x-height="540" ascent="800" />
<missing-glyph horiz-adv-x="500" d="" /><glyph horiz-adv-x="209" d="" unicode=" " />
<glyph horiz-adv-x="273" d="M 189 429 L 157 204 L 114 204 L 84 429 L 84 730 L 189 730 L 189 429 Z M 184 0 L 89 0 L 89 105 L 184 105 L 184 0 Z" unicode="!" />
<glyph horiz-adv-x="366" d="M 311 618 L 304 479 L 230 479 L 226 617 L 226 730 L 311 730 L 311 618 Z M 140 617 L 136 479 L 60 479 L 56 617 L 56 730 L 140 730 L 140 617 Z" unicode="&#x22;" />
<glyph horiz-adv-x="580" d="M 528 219 L 408 219 L 389 0 L 330 1 L 349 219 L 204 219 L 185 0 L 127 1 L 146 219 L 31 219 L 31 297 L 153 297 L 165 430 L 52 430 L 52 508 L 172 508 L 191 730 L 249 729 L 230 508 L 375 508 L 394 730 L 453 729 L 434 508 L 549 508 L 549 430 L 427 430 L 415 297 L 528 297 L 528 219 Z M 211 297 L 356 297 L 368 430 L 223 430 L 211 297 Z" unicode="#" />
<glyph horiz-adv-x="488" d="M 451 186 C 451 158 446 134 436 112 C 426 90 413 72 397 56 C 381 40 362 28 340 18 C 318 8 295 2 271 0 L 271 -126 L 216 -126 L 216 0 C 176 2 140 11 108 25 C 76 39 48 60 25 86 L 68 158 C 84 135 106 116 134 102 C 162 88 189 79 216 77 L 216 341 C 158 370 114 400 86 432 C 57 463 43 505 43 557 C 43 606 59 646 92 678 C 124 709 166 727 216 731 L 216 791 L 271 791 L 271 731 C 306 727 337 719 364 707 C 391 694 414 678 433 660 L 386 597 C 370 613 353 625 333 634 C 313 643 292 649 271 652 L 271 406 L 276 404 C 338 373 382 342 410 311 C 437 279 451 238 451 186 Z M 132 551 C 132 526 138 505 150 489 C 161 472 183 454 216 436 L 216 651 C 192 645 172 634 156 617 C 140 599 132 577 132 551 Z M 362 188 C 362 212 355 234 343 252 C 330 270 306 290 271 311 L 271 80 C 296 85 317 97 335 115 C 353 133 362 157 362 188 Z" unicode="$" />
<glyph horiz-adv-x="747" d="M 184 358 C 165 358 147 362 129 370 C 111 378 96 391 82 407 C 68 423 57 442 49 466 C 41 490 37 517 37 548 C 37 574 40 599 48 623 C 55 646 65 666 78 684 C 91 701 107 715 125 725 C 143 735 162 740 183 740 C 205 740 226 735 244 725 C 262 715 278 701 291 684 C 304 666 314 646 321 623 C 328 600 332 576 332 551 C 332 524 328 499 321 475 C 313 451 303 431 290 414 C 276 396 261 383 243 373 C 225 363 205 358 184 358 Z M 179 0 L 98 0 L 551 730 L 630 730 L 179 0 Z M 183 428 C 209 428 228 440 240 464 C 252 488 258 516 258 548 C 258 579 252 607 241 631 C 230 655 211 668 185 668 C 159 668 140 656 128 632 C 116 608 111 580 111 548 C 111 515 116 487 128 463 C 140 439 158 428 183 428 Z M 560 -3 C 541 -3 523 1 505 9 C 487 17 471 30 457 46 C 443 62 432 82 424 106 C 416 130 412 157 412 188 C 412 214 415 239 423 263 C 430 286 440 306 453 324 C 466 341 482 355 500 365 C 518 375 539 380 561 380 C 583 380 604 374 622 364 C 640 354 656 340 669 323 C 681 306 691 286 698 263 C 705 240 709 216 709 191 C 709 164 705 139 698 115 C 690 91 680 71 667 53 C 654 35 638 22 620 12 C 602 2 582 -3 560 -3 Z M 558 69 C 585 69 604 80 616 104 C 628 127 634 155 634 188 C 634 220 628 248 617 272 C 605 296 586 309 560 309 C 535 309 516 297 504 273 C 492 249 486 220 486 188 C 486 154 492 126 504 103 C 516 80 534 69 558 69 Z" unicode="%" />
<glyph horiz-adv-x="672" d="M 601 -5 L 518 76 C 485 48 448 27 408 13 C 368 0 322 -8 271 -8 C 197 -8 139 8 96 41 C 52 73 31 119 31 178 C 31 206 35 231 44 253 C 52 274 64 293 78 310 C 92 327 109 342 129 356 C 149 370 169 383 191 396 L 180 406 C 163 423 145 446 127 474 C 108 502 99 537 99 578 C 99 599 103 619 112 639 C 121 658 133 675 149 689 C 165 703 184 715 206 724 C 228 732 252 737 279 737 C 335 737 379 722 412 692 C 444 662 461 626 461 585 C 461 544 448 509 424 479 C 399 449 365 419 323 391 L 516 206 C 525 218 535 232 545 246 C 555 260 564 276 574 293 L 652 243 C 640 224 629 206 617 189 C 605 172 594 156 582 142 L 662 65 L 601 -5 Z M 251 461 L 270 443 C 304 464 329 484 346 503 C 363 522 372 543 372 566 C 372 589 364 610 348 628 C 332 646 310 655 282 655 C 254 655 233 645 217 626 C 201 606 193 586 193 565 C 193 545 198 527 208 511 C 218 494 233 477 251 461 Z M 132 191 C 132 156 146 128 176 107 C 206 85 241 75 282 75 C 314 75 345 80 373 91 C 401 102 427 118 453 140 L 246 342 C 212 320 185 298 164 276 C 142 253 132 225 132 191 Z" unicode="&#x26;" />
<glyph horiz-adv-x="198" d="M 142 615 L 138 473 L 60 473 L 55 615 L 55 730 L 142 730 L 142 615 Z" unicode="'" />
<glyph horiz-adv-x="311" d="M 291 -99 L 291 -182 C 255 -165 221 -141 189 -111 C 157 -81 129 -45 105 -5 C 81 35 61 81 47 131 C 33 181 26 235 26 293 C 26 348 32 400 46 449 C 60 497 79 541 103 580 C 127 618 155 652 187 681 C 219 710 254 733 291 749 L 291 671 C 241 640 201 593 171 529 C 141 465 125 386 125 293 C 125 207 138 130 166 61 C 194 -7 235 -61 291 -99 Z" unicode="(" />
<glyph horiz-adv-x="311" d="M 20 671 L 20 749 C 54 734 88 713 120 685 C 152 657 181 623 205 584 C 229 544 248 499 263 449 C 277 398 285 343 285 284 C 285 228 278 176 264 127 C 250 78 230 34 206 -6 C 182 -46 154 -81 122 -111 C 90 -141 56 -164 20 -182 L 20 -97 C 72 -61 112 -9 141 56 C 170 122 185 198 186 284 C 186 380 170 461 140 527 C 110 592 70 640 20 671 Z" unicode=")" />
<glyph horiz-adv-x="397" d="M 372 575 L 240 548 L 337 460 L 268 403 L 200 519 L 134 404 L 63 459 L 160 549 L 29 575 L 67 662 L 175 595 L 153 730 L 248 730 L 224 595 L 338 656 L 372 575 Z" unicode="*" />
<glyph horiz-adv-x="481" d="M 457 294 L 279 294 L 279 121 L 203 121 L 203 294 L 25 294 L 25 369 L 203 369 L 203 541 L 279 541 L 279 369 L 457 369 L 457 294 Z" unicode="+" />
<glyph horiz-adv-x="222" d="M 185 109 C 183 84 179 59 173 34 C 167 8 159 -15 149 -38 C 139 -60 129 -81 117 -101 C 105 -120 93 -136 81 -148 L 11 -116 C 18 -106 26 -93 34 -77 C 42 -60 50 -42 58 -22 C 66 -2 72 19 78 42 C 83 64 86 87 88 109 L 185 109 Z" unicode="," />
<glyph horiz-adv-x="327" d="M 290 224 L 38 224 L 38 308 L 290 308 L 290 224 Z" unicode="-" />
<glyph horiz-adv-x="224" d="M 159 0 L 65 0 L 65 129 L 159 129 L 159 0 Z" unicode="." />
<glyph horiz-adv-x="312" d="M 309 730 L 89 0 L 3 0 L 225 730 L 309 730 Z" unicode="/" />
<glyph horiz-adv-x="495" d="M 245 -9 C 183 -9 132 20 92 78 C 52 136 33 231 33 361 C 33 417 37 468 46 515 C 54 561 67 601 85 634 C 103 667 125 693 153 711 C 180 729 212 739 249 739 C 287 739 319 730 346 712 C 373 694 395 669 413 637 C 430 605 443 566 451 521 C 459 475 463 425 463 371 C 463 251 444 158 408 91 C 371 24 317 -9 245 -9 Z M 245 72 C 287 72 318 96 338 144 C 358 192 368 264 368 362 C 368 457 359 530 341 581 C 323 632 292 658 248 658 C 205 658 174 633 155 584 C 136 535 127 462 127 364 C 127 262 137 187 157 141 C 177 95 207 72 245 72 Z" unicode="0" />
<glyph horiz-adv-x="326" d="M 254 0 L 158 0 L 158 597 C 146 577 128 559 104 541 C 79 523 55 512 33 510 L 33 606 C 45 607 58 611 72 619 C 86 627 100 637 113 649 C 126 661 138 674 150 688 C 162 702 171 717 178 732 L 254 732 L 254 0 Z" unicode="1" />
<glyph horiz-adv-x="475" d="M 447 0 L 25 0 L 25 24 L 276 350 C 295 376 312 405 326 437 C 340 468 347 503 347 542 C 347 580 336 608 315 628 C 294 648 267 658 234 658 C 196 658 167 645 148 619 C 128 593 119 558 119 514 L 31 514 C 31 588 50 644 88 682 C 125 720 175 739 238 739 C 296 739 344 722 382 690 C 419 658 438 613 438 556 C 438 499 430 453 414 418 C 398 382 380 351 360 323 L 177 87 L 447 87 L 447 0 Z" unicode="2" />
<glyph horiz-adv-x="473" d="M 216 -9 C 162 -9 117 -1 81 12 C 45 26 17 42 -2 59 L 39 134 C 55 119 77 105 105 91 C 133 77 168 71 208 71 C 254 71 291 85 318 114 C 345 142 359 179 359 223 C 359 267 345 300 317 322 C 289 344 256 355 220 355 L 123 355 L 123 434 L 217 434 C 251 434 279 444 301 466 C 323 487 335 515 335 551 C 335 581 324 607 304 628 C 283 648 254 659 218 659 C 183 659 153 651 129 637 C 105 623 84 605 68 584 L 14 643 C 32 668 60 690 96 710 C 132 729 177 739 232 739 C 290 739 336 723 372 693 C 408 663 426 621 426 569 C 426 525 413 487 388 457 C 363 427 333 407 299 399 C 317 395 336 389 354 380 C 372 370 388 358 402 343 C 416 327 427 309 436 288 C 444 267 449 244 449 219 C 449 190 444 162 434 135 C 424 107 410 83 391 62 C 372 40 348 23 319 10 C 289 -2 255 -9 216 -9 Z" unicode="3" />
<glyph horiz-adv-x="473" d="M 471 184 L 382 184 L 382 0 L 298 0 L 298 184 L 7 184 L 6 248 L 318 739 L 382 739 L 382 264 L 471 264 L 471 184 Z M 299 258 L 299 579 L 100 258 L 299 258 Z" unicode="4" />
<glyph horiz-adv-x="472" d="M 228 -9 C 181 -9 138 0 100 16 C 61 32 31 52 11 76 L 59 148 C 75 130 96 113 122 97 C 148 80 180 72 216 72 C 258 72 292 88 317 120 C 341 152 354 195 354 249 C 354 298 342 336 320 363 C 297 390 269 404 235 404 C 201 404 174 397 154 383 C 134 369 118 350 108 327 L 45 346 L 73 730 L 406 730 L 406 643 L 141 643 L 124 415 C 132 430 148 445 170 460 C 192 474 223 482 261 482 C 315 482 360 462 395 424 C 430 385 448 329 448 256 C 448 214 442 176 431 143 C 419 109 404 81 384 59 C 364 37 341 20 315 8 C 288 -3 259 -9 228 -9 Z" unicode="5" />
<glyph horiz-adv-x="475" d="M 247 -10 C 217 -10 189 -4 163 6 C 136 16 113 32 93 53 C 73 73 58 99 46 129 C 34 159 29 194 29 233 C 29 307 47 379 83 450 C 119 521 168 593 231 667 L 301 750 L 365 697 L 318 641 C 294 612 272 584 250 556 C 228 528 208 502 191 478 C 173 453 159 430 147 409 C 135 388 128 370 125 354 C 135 378 154 400 180 418 C 206 436 236 445 270 445 C 326 445 370 424 403 382 C 436 340 453 287 453 222 C 453 188 447 157 437 129 C 427 101 412 76 394 56 C 376 35 354 19 329 7 C 303 -4 276 -10 247 -10 Z M 244 71 C 280 71 308 84 330 111 C 351 138 362 174 362 218 C 362 264 351 300 330 326 C 309 352 280 366 244 366 C 210 366 181 353 157 329 C 133 304 121 269 121 223 C 121 174 132 136 155 110 C 178 84 208 71 244 71 Z" unicode="6" />
<glyph horiz-adv-x="406" d="M 404 730 L 409 686 L 125 -5 L 41 28 L 305 642 L 11 642 L 11 730 L 404 730 Z" unicode="7" />
<glyph horiz-adv-x="492" d="M 331 390 C 347 386 364 379 380 370 C 396 360 411 348 424 333 C 437 317 447 299 455 277 C 463 255 467 230 467 202 C 467 138 447 86 407 48 C 367 10 314 -9 247 -9 C 179 -9 125 9 85 47 C 45 85 26 135 26 197 C 26 226 30 252 39 275 C 47 298 58 318 72 334 C 85 350 100 363 116 373 C 132 382 148 388 163 391 C 149 395 135 401 121 410 C 107 418 94 429 84 443 C 73 456 64 472 57 491 C 50 510 47 532 47 556 C 47 584 52 609 62 632 C 72 654 86 673 104 689 C 122 705 143 717 167 726 C 191 734 218 739 246 739 C 305 739 353 722 390 690 C 426 657 445 614 445 562 C 445 514 433 475 409 446 C 385 417 359 398 331 390 Z M 247 416 C 279 416 307 426 329 446 C 351 466 362 497 362 537 C 362 575 350 606 328 628 C 306 650 279 661 247 661 C 214 661 186 650 164 629 C 141 608 130 578 130 538 C 130 494 142 462 167 444 C 191 425 218 416 247 416 Z M 247 69 C 285 69 315 80 339 104 C 363 128 375 163 375 209 C 375 253 362 285 337 307 C 311 328 281 339 247 339 C 211 339 180 328 155 307 C 129 285 117 252 117 206 C 117 162 129 129 155 105 C 180 81 211 69 247 69 Z" unicode="8" />
<glyph horiz-adv-x="474" d="M 189 -15 L 127 41 L 173 88 C 191 109 210 133 230 160 C 249 186 267 213 284 240 C 300 267 315 293 328 319 C 341 344 351 366 357 385 C 344 361 323 339 294 321 C 265 302 235 293 203 293 C 147 293 103 313 70 355 C 37 396 21 450 21 516 C 21 548 26 578 37 606 C 47 633 62 656 81 676 C 100 696 122 711 148 722 C 174 733 202 739 232 739 C 261 739 289 733 315 723 C 341 713 363 698 383 678 C 402 658 417 634 429 604 C 440 574 446 539 446 501 C 446 455 440 412 429 370 C 417 328 402 288 384 250 C 366 212 345 177 321 144 C 297 111 273 81 249 54 L 189 -15 Z M 229 371 C 261 371 289 382 315 405 C 340 428 353 463 353 509 C 353 559 341 596 317 621 C 293 646 265 659 232 659 C 195 659 166 646 145 620 C 123 594 113 559 113 516 C 113 470 123 434 143 409 C 163 383 191 371 229 371 Z" unicode="9" />
<glyph horiz-adv-x="219" d="M 157 417 L 62 417 L 62 540 L 157 540 L 157 417 Z M 157 0 L 62 0 L 62 124 L 157 124 L 157 0 Z" unicode=":" />
<glyph horiz-adv-x="219" d="M 163 417 L 69 417 L 69 540 L 163 540 L 163 417 Z M 167 101 C 165 77 161 53 155 29 C 149 5 141 -17 132 -39 C 122 -61 112 -81 101 -99 C 90 -117 79 -133 67 -145 L -4 -113 C 12 -93 28 -62 46 -22 C 64 17 73 59 75 101 L 167 101 Z" unicode=";" />
<glyph horiz-adv-x="396" d="M 349 101 L 35 292 L 35 360 L 349 549 L 349 463 L 126 327 L 349 189 L 349 101 Z" unicode="&#x3C;" />
<glyph horiz-adv-x="489" d="M 436 388 L 53 388 L 53 468 L 436 468 L 436 388 Z M 436 175 L 53 175 L 53 255 L 436 255 L 436 175 Z" unicode="=" />
<glyph horiz-adv-x="396" d="M 358 292 L 44 101 L 44 188 L 265 327 L 44 463 L 44 549 L 358 360 L 358 292 Z" unicode="&#x3E;" />
<glyph horiz-adv-x="445" d="M 159 203 C 159 247 164 283 174 312 C 184 341 203 369 229 396 C 249 416 270 439 290 464 C 310 488 320 519 320 555 C 320 586 309 611 288 629 C 267 647 241 656 209 656 C 180 656 155 648 133 634 C 111 620 92 602 76 582 L 18 641 C 40 672 69 697 105 715 C 141 733 180 742 223 742 C 282 742 329 726 365 695 C 400 663 418 621 418 567 C 418 541 414 518 407 498 C 399 477 390 458 379 442 C 368 425 356 409 343 395 C 329 381 316 367 304 355 C 281 335 266 311 260 283 C 253 255 249 228 249 203 L 159 203 Z M 155 0 L 155 116 L 257 116 L 257 0 L 155 0 Z" unicode="?" />
<glyph horiz-adv-x="829" d="M 411 -37 C 357 -37 307 -27 261 -7 C 215 13 175 40 142 74 C 109 108 83 148 65 194 C 47 240 38 290 38 342 C 38 394 47 444 66 490 C 84 536 110 577 143 611 C 176 645 216 671 263 691 C 309 711 360 721 416 721 C 472 721 524 712 571 695 C 617 678 657 654 690 624 C 722 594 747 557 765 515 C 783 472 792 425 792 374 C 792 330 787 293 777 262 C 767 231 755 206 740 186 C 724 166 707 152 687 143 C 667 133 648 129 628 129 C 597 129 573 136 555 150 C 537 164 525 181 521 202 C 512 186 494 170 466 154 C 438 138 405 130 365 130 C 319 130 282 141 256 165 C 230 188 217 220 217 260 C 217 304 235 339 271 364 C 307 388 354 401 412 401 L 505 401 L 505 414 C 505 444 495 466 476 480 C 457 493 433 500 405 500 C 381 500 359 497 338 491 C 317 485 300 480 287 475 L 261 535 C 279 543 302 551 328 558 C 354 564 382 568 411 568 C 465 568 507 554 536 527 C 564 500 579 457 579 399 L 579 251 C 579 236 583 223 593 211 C 602 199 617 193 637 194 C 647 194 658 196 669 201 C 680 205 690 214 699 227 C 708 240 715 258 721 281 C 727 303 730 333 730 369 C 730 411 722 450 708 486 C 693 522 672 554 645 580 C 618 606 585 626 546 641 C 507 656 464 664 416 664 C 369 664 326 655 287 639 C 248 622 215 599 187 571 C 159 542 138 508 123 469 C 107 429 100 387 100 343 C 100 299 107 257 123 217 C 139 177 160 143 188 114 C 215 84 248 61 287 44 C 325 27 367 19 413 19 C 433 19 454 21 476 25 C 498 29 521 37 546 49 L 568 -2 C 541 -14 515 -23 489 -29 C 463 -34 437 -37 411 -37 Z M 392 195 C 418 195 442 201 464 213 C 486 225 500 237 506 250 L 506 344 L 418 344 C 380 344 350 337 330 324 C 309 310 299 291 299 267 C 299 244 306 226 322 214 C 338 201 361 195 392 195 Z" unicode="@" />
<glyph horiz-adv-x="538" d="M 537 0 L 438 0 L 380 183 L 151 183 L 96 0 L 1 0 L 236 734 L 304 734 L 537 0 Z M 364 256 L 265 575 L 168 256 L 364 256 Z" unicode="A" />
<glyph horiz-adv-x="506" d="M 71 0 L 71 730 L 263 730 C 317 730 361 714 395 683 C 429 652 446 609 446 555 C 446 505 433 465 408 435 C 382 405 352 387 317 381 C 335 379 354 375 374 367 C 393 359 410 347 426 333 C 441 318 453 300 463 278 C 473 256 478 231 478 202 C 478 142 459 93 421 56 C 383 18 335 0 276 0 L 71 0 Z M 166 409 L 242 409 C 262 409 279 412 293 420 C 307 427 319 437 328 449 C 337 461 344 474 348 490 C 352 506 354 522 354 538 C 354 572 344 599 324 620 C 304 640 276 651 238 651 L 166 651 L 166 409 Z M 167 79 L 261 79 C 302 79 332 91 351 117 C 370 142 380 173 380 209 C 380 249 368 279 344 299 C 320 319 290 330 253 330 L 167 330 L 167 79 Z" unicode="B" />
<glyph horiz-adv-x="602" d="M 324 -9 C 284 -9 246 0 211 15 C 175 31 145 55 120 87 C 94 118 74 157 60 204 C 45 251 38 305 38 366 C 38 423 44 475 58 521 C 71 567 90 607 115 639 C 139 671 169 695 205 713 C 241 730 281 739 325 739 C 387 739 436 725 473 697 C 510 669 538 633 557 589 L 473 548 C 458 577 439 601 417 621 C 394 641 363 651 325 651 C 267 651 221 627 188 581 C 154 535 138 462 138 364 C 138 312 143 268 154 232 C 165 196 180 166 198 144 C 216 121 236 104 259 94 C 282 83 306 78 331 78 C 373 78 406 89 431 111 C 456 133 476 161 491 195 L 571 152 C 550 104 519 65 477 35 C 435 5 384 -9 324 -9 Z" unicode="C" />
<glyph horiz-adv-x="610" d="M 71 0 L 71 730 L 253 730 C 303 730 348 721 388 704 C 428 686 461 662 488 631 C 515 599 536 561 550 517 C 564 472 571 423 571 369 C 571 317 564 268 550 223 C 536 178 516 139 489 106 C 461 73 427 47 386 28 C 345 9 297 0 243 0 L 71 0 Z M 171 83 L 243 83 C 283 83 317 90 346 104 C 374 118 398 137 416 162 C 434 187 447 217 456 252 C 464 287 469 326 469 368 C 469 459 450 528 412 576 C 374 624 321 648 254 648 L 171 648 L 171 83 Z" unicode="D" />
<glyph horiz-adv-x="459" d="M 432 0 L 71 0 L 71 730 L 414 730 L 414 643 L 169 643 L 169 407 L 403 407 L 403 323 L 169 323 L 169 87 L 432 87 L 432 0 Z" unicode="E" />
<glyph horiz-adv-x="415" d="M 394 643 L 172 643 L 172 410 L 382 410 L 382 326 L 172 326 L 172 0 L 72 0 L 72 730 L 394 730 L 394 643 Z" unicode="F" />
<glyph horiz-adv-x="626" d="M 327 364 L 584 364 L 584 129 C 562 87 529 54 485 29 C 441 3 389 -9 329 -9 C 289 -9 251 0 215 16 C 179 33 149 58 123 90 C 97 122 76 161 61 208 C 45 254 38 307 38 365 C 38 421 45 473 60 519 C 74 565 94 605 120 637 C 146 669 177 693 213 711 C 249 729 288 738 330 738 C 392 738 440 725 476 701 C 512 676 539 647 557 615 L 482 556 C 467 581 448 603 425 621 C 401 639 371 649 333 649 C 276 649 229 625 193 578 C 156 531 138 459 138 363 C 138 315 143 272 153 236 C 163 199 176 169 194 145 C 211 121 231 102 255 90 C 279 78 304 72 331 72 C 369 72 402 78 430 92 C 458 106 480 127 494 156 L 494 280 L 327 280 L 327 364 Z" unicode="G" />
<glyph horiz-adv-x="611" d="M 540 0 L 440 0 L 440 319 L 171 319 L 171 0 L 71 0 L 71 730 L 171 730 L 171 403 L 440 403 L 440 730 L 540 730 L 540 0 Z" unicode="H" />
<glyph horiz-adv-x="251" d="M 176 0 L 75 0 L 75 730 L 176 730 L 176 0 Z" unicode="I" />
<glyph horiz-adv-x="337" d="M 268 730 L 268 186 C 268 158 263 133 255 109 C 247 85 235 64 219 47 C 203 29 184 16 161 6 C 138 -4 112 -9 83 -9 C 68 -9 52 -7 34 -5 C 16 -2 3 2 -6 9 L 19 89 C 24 86 31 84 41 82 C 51 80 61 80 71 80 C 101 80 125 91 142 115 C 159 138 168 166 168 199 L 168 730 L 268 730 Z" unicode="J" />
<glyph horiz-adv-x="554" d="M 555 0 L 441 0 L 229 321 L 172 250 L 172 0 L 71 0 L 71 730 L 172 730 L 172 379 L 423 730 L 528 730 L 291 404 L 555 0 Z" unicode="K" />
<glyph horiz-adv-x="417" d="M 409 0 L 71 0 L 71 730 L 171 730 L 171 87 L 409 87 L 409 0 Z" unicode="L" />
<glyph horiz-adv-x="735" d="M 664 0 L 570 0 L 570 526 L 391 179 L 347 179 L 164 526 L 164 0 L 71 0 L 71 730 L 156 730 L 371 310 L 583 730 L 664 730 L 664 0 Z" unicode="M" />
<glyph horiz-adv-x="619" d="M 548 0 L 477 0 L 165 515 L 165 0 L 71 0 L 71 730 L 144 730 L 457 213 L 457 730 L 548 730 L 548 0 Z" unicode="N" />
<glyph horiz-adv-x="662" d="M 333 -9 C 243 -9 171 24 118 92 C 64 160 38 253 38 371 C 38 427 45 477 59 523 C 73 569 92 607 118 639 C 143 671 173 695 209 713 C 245 730 284 739 327 739 C 418 739 490 705 543 639 C 596 573 623 482 623 366 C 623 308 615 256 601 210 C 586 163 566 123 540 91 C 514 59 484 34 448 17 C 412 0 374 -9 333 -9 Z M 335 73 C 390 73 435 97 470 147 C 504 196 522 270 522 369 C 522 461 503 531 467 581 C 431 630 384 655 326 655 C 269 655 224 631 190 583 C 156 535 140 463 140 367 C 140 269 158 195 195 146 C 232 97 279 73 335 73 Z" unicode="O" />
<glyph horiz-adv-x="500" d="M 71 0 L 71 730 L 277 730 C 305 730 332 725 357 716 C 381 706 403 693 421 675 C 439 657 453 636 463 610 C 473 584 479 554 479 522 C 479 456 460 403 422 363 C 384 323 337 303 279 303 L 171 303 L 171 0 L 71 0 Z M 171 385 L 259 385 C 298 385 328 396 348 420 C 368 444 379 478 379 522 C 379 564 367 595 343 616 C 319 637 290 648 256 648 L 171 648 L 171 385 Z" unicode="P" />
<glyph horiz-adv-x="662" d="M 573 -75 L 573 -169 C 527 -164 481 -148 437 -120 C 392 -92 355 -54 327 -6 C 239 -4 168 29 116 96 C 64 162 38 254 38 371 C 38 426 45 476 59 522 C 73 568 92 606 118 638 C 144 670 174 694 210 712 C 246 730 285 739 328 739 C 418 739 489 706 543 640 C 596 574 623 482 623 366 C 623 275 605 199 569 137 C 533 75 485 33 427 11 C 449 -17 473 -37 500 -51 C 527 -64 551 -72 573 -75 Z M 139 368 C 139 282 153 215 182 167 C 210 118 247 88 292 78 C 287 94 283 112 281 130 C 279 148 278 168 279 188 L 369 188 C 369 167 371 148 375 130 C 378 112 382 96 388 82 C 428 96 461 127 486 175 C 510 223 523 288 523 368 C 523 416 517 458 507 494 C 497 530 483 560 465 584 C 447 608 427 625 403 637 C 379 649 353 655 326 655 C 269 655 224 631 190 584 C 156 537 139 465 139 368 Z" unicode="Q" />
<glyph horiz-adv-x="514" d="M 71 0 L 71 730 L 252 730 C 308 730 354 713 392 679 C 430 645 449 596 449 531 C 449 473 435 427 408 392 C 380 357 348 337 310 333 L 308 328 L 504 0 L 397 0 L 219 307 L 166 307 L 166 0 L 71 0 Z M 165 389 L 234 389 C 268 389 297 400 319 423 C 341 446 353 478 353 520 C 353 563 342 595 320 617 C 298 638 270 649 238 649 L 165 649 L 165 389 Z" unicode="R" />
<glyph horiz-adv-x="475" d="M 239 -9 C 193 -9 152 -1 117 12 C 82 26 52 49 26 80 L 92 146 C 108 121 129 102 156 89 C 183 76 210 70 237 70 C 266 70 292 79 314 98 C 336 117 347 143 347 176 C 347 208 337 236 318 258 C 299 280 265 304 215 332 C 157 362 114 393 87 426 C 60 459 47 504 47 561 C 47 615 65 658 102 690 C 139 722 185 739 239 739 C 283 739 319 731 349 717 C 378 702 401 685 419 667 L 361 599 C 345 614 326 627 305 637 C 283 647 261 652 237 652 C 210 652 187 643 168 627 C 148 611 139 588 139 558 C 139 527 148 502 168 482 C 187 462 223 439 275 411 C 335 379 378 346 402 312 C 426 278 438 235 438 183 C 438 152 432 125 421 101 C 410 77 396 57 378 41 C 360 25 338 12 314 4 C 290 -4 265 -9 239 -9 Z" unicode="S" />
<glyph horiz-adv-x="435" d="M 427 643 L 267 643 L 267 0 L 167 0 L 167 643 L 8 643 L 8 730 L 427 730 L 427 643 Z" unicode="T" />
<glyph horiz-adv-x="610" d="M 543 730 L 543 234 C 543 192 536 156 523 126 C 510 95 493 70 471 50 C 449 30 423 15 394 5 C 364 -4 333 -9 301 -9 C 269 -9 239 -4 211 5 C 183 14 158 28 137 48 C 116 67 99 92 87 123 C 74 154 68 191 68 234 L 68 730 L 166 730 L 166 233 C 166 180 179 141 206 116 C 232 91 265 79 303 79 C 341 79 373 90 400 114 C 427 138 441 177 441 233 L 441 730 L 543 730 Z" unicode="U" />
<glyph horiz-adv-x="530" d="M 529 730 L 298 -5 L 227 -5 L 1 730 L 102 730 L 265 166 L 433 730 L 529 730 Z" unicode="V" />
<glyph horiz-adv-x="772" d="M 754 730 L 580 -4 L 515 -4 L 381 549 L 244 -4 L 179 -4 L 7 730 L 104 730 L 224 185 L 351 730 L 420 730 L 547 185 L 667 730 L 754 730 Z" unicode="W" />
<glyph horiz-adv-x="505" d="M 392 0 L 249 282 L 105 0 L 9 0 L 202 377 L 23 730 L 127 730 L 254 479 L 382 730 L 478 730 L 301 384 L 495 0 L 392 0 Z" unicode="X" />
<glyph horiz-adv-x="529" d="M 530 730 L 312 314 L 312 0 L 212 0 L 212 316 L -2 730 L 113 730 L 268 413 L 432 730 L 530 730 Z" unicode="Y" />
<glyph horiz-adv-x="476" d="M 448 730 L 448 682 L 142 85 L 460 85 L 460 0 L 17 0 L 17 46 L 320 643 L 46 643 L 46 730 L 448 730 Z" unicode="Z" />
<glyph horiz-adv-x="265" d="M 238 -179 L 65 -179 L 65 730 L 238 730 L 238 650 L 154 650 L 154 -98 L 238 -98 L 238 -179 Z" unicode="[" />
<glyph horiz-adv-x="312" d="M 3 730 L 86 730 L 309 0 L 224 0 L 3 730 Z" unicode="\" />
<glyph horiz-adv-x="261" d="M 199 -179 L 29 -179 L 29 -100 L 111 -100 L 111 651 L 29 651 L 29 730 L 199 730 L 199 -179 Z" unicode="]" />
<glyph horiz-adv-x="459" d="M 420 369 L 339 369 L 227 634 L 119 369 L 39 369 L 188 730 L 267 730 L 420 369 Z" unicode="^" />
<glyph horiz-adv-x="450" d="M 450 -157 L 0 -157 L 0 -82 L 450 -82 L 450 -157 Z" unicode="_" />
<glyph horiz-adv-x="500" d="M 345 598 L 255 598 L 146 767 L 253 767 L 345 598 Z" unicode="`" />
<glyph horiz-adv-x="447" d="M 396 0 L 315 0 L 315 59 C 297 37 278 21 256 10 C 234 0 205 -6 170 -6 C 127 -6 92 8 66 37 C 39 65 26 106 26 158 C 26 217 44 261 80 289 C 116 317 161 334 216 338 L 308 345 L 308 377 C 308 407 300 430 284 446 C 268 461 245 469 216 469 C 189 469 165 464 143 454 C 121 444 103 433 89 422 L 58 496 C 76 510 99 523 128 534 C 157 545 192 551 232 551 C 282 551 321 537 351 511 C 381 484 396 444 396 392 L 396 0 Z M 310 122 L 310 279 L 226 273 C 195 270 169 260 149 243 C 128 225 118 198 118 160 C 118 127 126 103 143 87 C 160 71 180 64 204 64 C 227 64 248 69 266 80 C 284 91 299 105 310 122 Z" unicode="a" />
<glyph horiz-adv-x="493" d="M 284 -5 C 246 -5 215 4 191 24 C 167 43 150 67 140 95 L 140 0 L 56 0 L 56 800 L 143 800 L 143 427 C 151 459 168 486 192 510 C 216 534 248 546 290 546 C 342 546 384 521 416 473 C 448 425 464 361 464 282 C 464 192 446 121 412 71 C 377 20 334 -5 284 -5 Z M 254 72 C 288 72 315 89 336 123 C 357 157 368 208 368 274 C 368 336 358 383 338 416 C 318 448 290 465 254 465 C 223 465 197 450 175 420 C 153 390 142 337 142 262 C 142 188 153 138 175 112 C 197 85 223 72 254 72 Z" unicode="b" />
<glyph horiz-adv-x="433" d="M 360 140 L 415 87 C 400 64 379 43 353 23 C 326 3 291 -7 247 -7 C 213 -7 182 0 155 13 C 128 27 105 46 86 70 C 67 94 53 124 43 158 C 33 192 28 229 28 269 C 28 307 33 343 43 377 C 53 411 67 440 86 465 C 104 490 127 510 154 525 C 181 539 212 547 246 547 C 292 547 329 535 357 513 C 385 490 405 466 416 440 L 346 396 C 337 414 325 430 309 444 C 293 458 271 465 245 465 C 207 465 178 447 156 411 C 134 375 124 328 124 272 C 124 206 136 157 161 124 C 185 90 217 74 255 74 C 284 74 307 81 323 96 C 339 110 351 125 360 140 Z" unicode="c" />
<glyph horiz-adv-x="501" d="M 217 -7 C 189 -7 163 0 140 13 C 116 26 96 45 80 69 C 64 93 51 122 42 156 C 33 190 29 227 29 267 C 29 308 33 346 43 381 C 53 415 66 445 83 469 C 99 493 119 512 143 526 C 166 539 191 546 219 546 C 253 546 282 534 307 512 C 331 490 348 463 357 433 L 357 800 L 445 800 L 445 0 L 363 0 L 363 97 C 359 85 353 73 345 61 C 337 49 326 38 314 28 C 302 18 287 9 271 3 C 255 -3 237 -7 217 -7 Z M 241 71 C 277 71 305 88 327 123 C 348 157 359 208 359 274 C 359 342 347 390 324 420 C 300 449 273 464 242 464 C 206 464 177 447 156 415 C 134 383 124 334 124 270 C 124 206 134 156 155 122 C 176 88 205 71 241 71 Z" unicode="d" />
<glyph horiz-adv-x="468" d="M 241 -7 C 178 -7 127 17 87 67 C 47 117 28 184 28 268 C 28 309 33 347 44 381 C 54 415 69 445 88 469 C 106 493 128 512 154 526 C 180 540 208 547 238 547 C 303 547 353 520 389 466 C 425 412 443 338 443 245 L 120 245 C 120 197 132 157 154 124 C 176 91 209 75 251 75 C 282 75 308 82 328 96 C 348 110 364 126 377 142 L 424 86 C 407 63 384 42 354 22 C 324 2 287 -7 241 -7 Z M 118 311 L 351 311 C 350 359 339 398 319 426 C 298 454 271 469 239 469 C 205 469 177 454 155 426 C 133 397 120 359 118 311 Z" unicode="e" />
<glyph horiz-adv-x="267" d="M 260 460 L 171 460 L 171 0 L 79 0 L 79 460 L 11 460 L 11 540 L 79 540 L 79 662 C 79 684 82 703 90 721 C 98 738 108 753 121 765 C 133 777 148 786 164 792 C 180 798 197 802 214 802 C 227 802 242 800 258 796 C 274 792 287 787 298 780 L 273 708 C 269 710 262 712 254 714 C 246 716 236 718 226 718 C 209 718 195 711 185 699 C 175 686 170 667 170 643 L 170 540 L 260 540 L 260 460 Z" unicode="f" />
<glyph horiz-adv-x="498" d="M 215 10 C 161 10 116 34 82 82 C 47 130 30 195 30 275 C 30 359 47 425 83 474 C 118 522 163 547 217 547 C 253 547 283 536 309 515 C 334 494 351 469 361 441 L 361 540 L 444 540 L 444 32 C 444 -8 437 -42 424 -71 C 410 -100 393 -124 372 -143 C 350 -162 326 -176 299 -185 C 271 -194 244 -199 217 -199 C 175 -199 142 -195 117 -187 C 92 -179 73 -172 61 -164 L 95 -89 C 107 -95 123 -101 142 -107 C 160 -113 183 -116 211 -116 C 251 -116 286 -102 314 -76 C 342 -50 356 -12 356 38 L 356 125 C 352 111 345 97 337 83 C 329 69 319 57 307 46 C 295 35 282 26 266 20 C 250 13 233 10 215 10 Z M 243 87 C 274 87 301 102 324 132 C 346 162 358 212 358 281 C 358 344 346 390 323 419 C 299 448 272 463 242 463 C 206 463 178 446 157 414 C 135 382 125 335 125 275 C 125 214 135 167 155 135 C 175 103 205 87 243 87 Z" unicode="g" />
<glyph horiz-adv-x="481" d="M 428 0 L 336 0 L 336 389 C 336 414 328 433 312 447 C 296 461 275 468 251 468 C 225 468 201 460 180 444 C 158 428 148 401 148 365 L 148 0 L 56 0 L 56 800 L 142 800 L 142 462 C 149 486 165 507 189 523 C 213 539 244 547 282 547 C 323 547 358 536 386 514 C 414 492 428 459 428 413 L 428 0 Z" unicode="h" />
<glyph horiz-adv-x="209" d="M 56 634 L 56 726 L 153 726 L 153 634 L 56 634 Z M 58 0 L 58 540 L 151 540 L 151 0 L 58 0 Z" unicode="i" />
<glyph horiz-adv-x="225" d="M 172 634 L 76 634 L 76 726 L 172 726 L 172 634 Z M 170 540 L 170 -44 C 170 -84 158 -116 134 -140 C 110 -164 80 -176 46 -176 C 25 -176 6 -173 -11 -167 C -28 -161 -40 -154 -48 -148 L -18 -84 C -12 -86 -5 -89 3 -92 C 12 -94 22 -96 33 -96 C 45 -96 56 -90 65 -79 C 73 -68 78 -54 78 -37 L 78 540 L 170 540 Z" unicode="j" />
<glyph horiz-adv-x="440" d="M 453 1 L 353 0 L 213 233 L 148 148 L 148 0 L 56 0 L 56 800 L 145 800 L 145 256 L 333 540 L 430 540 L 273 306 L 453 1 Z" unicode="k" />
<glyph horiz-adv-x="236" d="M 53 110 L 53 800 L 146 800 L 146 131 C 146 113 150 100 158 91 C 166 82 178 78 194 78 C 199 78 205 78 211 79 C 217 80 221 81 225 82 L 235 5 C 228 2 219 0 208 -2 C 196 -4 184 -5 171 -5 C 139 -5 111 4 88 24 C 64 43 53 72 53 110 Z" unicode="l" />
<glyph horiz-adv-x="753" d="M 56 0 L 56 540 L 136 540 L 136 450 C 144 482 163 506 191 523 C 219 539 250 548 284 548 C 319 548 349 539 373 522 C 397 505 410 480 414 448 L 417 448 C 424 478 441 503 467 521 C 493 539 524 548 561 548 C 600 548 633 537 660 515 C 686 493 700 460 700 416 L 700 0 L 608 0 L 608 380 C 608 412 599 435 583 449 C 566 463 545 470 521 470 C 497 470 474 461 454 445 C 433 428 423 400 423 362 L 423 0 L 332 0 L 332 383 C 332 414 323 436 307 450 C 290 463 270 470 246 470 C 222 470 199 461 178 444 C 157 427 147 399 147 360 L 147 0 L 56 0 Z" unicode="m" />
<glyph horiz-adv-x="481" d="M 428 0 L 336 0 L 336 390 C 336 415 328 434 312 448 C 296 461 276 468 252 468 C 226 468 203 460 181 444 C 159 428 148 402 148 364 L 148 0 L 56 0 L 56 540 L 135 540 L 135 452 C 144 480 162 502 188 520 C 214 538 247 547 285 547 C 325 547 358 536 386 515 C 414 493 428 462 428 420 L 428 0 Z" unicode="n" />
<glyph horiz-adv-x="484" d="M 241 -7 C 211 -7 184 -1 158 11 C 132 23 109 40 90 63 C 70 86 55 115 44 150 C 33 184 28 224 28 269 C 28 311 33 349 44 383 C 54 417 69 447 88 471 C 106 495 128 513 154 527 C 180 540 208 547 238 547 C 302 547 354 523 395 477 C 435 431 456 366 456 283 C 456 195 436 125 396 72 C 356 19 304 -7 241 -7 Z M 243 74 C 279 74 307 91 328 125 C 349 159 360 209 360 275 C 360 339 349 387 328 418 C 306 449 277 465 239 465 C 204 465 176 449 155 417 C 134 385 124 336 124 271 C 124 201 135 151 158 120 C 180 89 209 74 243 74 Z" unicode="o" />
<glyph horiz-adv-x="492" d="M 56 -198 L 56 540 L 135 540 L 135 423 C 142 455 159 484 185 509 C 211 534 245 547 287 547 C 315 547 341 540 363 528 C 385 515 403 497 418 474 C 433 451 444 424 452 392 C 460 360 464 324 464 286 C 464 194 447 123 413 72 C 379 20 336 -5 282 -5 C 247 -5 218 3 194 21 C 170 38 153 59 145 85 L 145 -198 L 56 -198 Z M 253 72 C 287 72 314 88 336 122 C 358 155 369 204 369 269 C 369 329 359 376 340 411 C 321 446 293 464 255 464 C 223 464 196 449 174 420 C 152 391 141 338 141 262 C 141 188 151 138 173 112 C 195 85 221 72 253 72 Z" unicode="p" />
<glyph horiz-adv-x="501" d="M 356 -198 L 356 105 C 347 78 330 53 305 29 C 280 5 248 -6 208 -6 C 155 -6 112 18 79 67 C 45 116 29 181 29 262 C 29 308 33 348 43 384 C 53 420 66 450 83 474 C 100 498 120 516 144 528 C 167 540 192 547 219 547 C 257 547 288 534 313 510 C 338 486 355 458 364 428 L 364 540 L 445 540 L 445 -198 L 356 -198 Z M 241 71 C 275 71 303 87 325 120 C 347 152 358 203 358 273 C 358 339 346 387 324 418 C 302 449 274 465 240 465 C 204 465 176 448 155 415 C 134 382 124 333 124 267 C 124 208 134 161 155 125 C 176 89 205 71 241 71 Z" unicode="q" />
<glyph horiz-adv-x="355" d="M 359 517 L 322 438 C 312 447 302 454 291 458 C 279 462 266 464 252 464 C 240 464 227 461 215 457 C 203 453 192 446 182 436 C 172 426 163 413 157 397 C 151 381 148 363 148 341 L 148 0 L 56 0 L 56 540 L 143 540 L 143 448 C 150 474 165 497 188 517 C 211 537 239 547 272 547 C 292 547 309 544 324 538 C 338 532 350 525 359 517 Z" unicode="r" />
<glyph horiz-adv-x="376" d="M 198 -7 C 160 -7 125 0 95 12 C 65 25 41 43 23 65 L 69 129 C 83 111 101 96 122 86 C 143 76 165 71 188 71 C 208 71 226 77 242 90 C 257 102 265 120 265 143 C 265 165 256 183 240 198 C 223 212 197 228 162 245 C 122 263 92 285 72 311 C 52 337 42 370 42 410 C 42 449 56 482 84 508 C 112 534 148 547 192 547 C 227 547 257 542 281 532 C 305 522 325 510 340 498 L 306 423 C 292 433 276 443 258 453 C 240 463 220 468 200 468 C 179 468 161 462 146 452 C 131 442 124 427 124 409 C 124 389 130 374 144 362 C 158 350 184 335 222 317 C 266 294 298 269 318 243 C 338 217 349 183 349 141 C 349 116 344 94 336 76 C 327 57 315 41 301 29 C 287 17 271 8 253 2 C 235 -4 216 -7 198 -7 Z" unicode="s" />
<glyph horiz-adv-x="275" d="M 253 95 L 270 19 C 262 13 250 7 236 3 C 222 -1 204 -4 184 -4 C 153 -4 126 7 102 29 C 78 51 67 83 67 126 L 67 461 L 8 461 L 8 540 L 69 540 L 69 657 L 158 669 L 158 540 L 254 540 L 254 461 L 159 461 L 159 134 C 159 117 163 104 171 95 C 179 86 190 82 205 82 C 214 82 223 83 232 86 C 241 89 248 92 253 95 Z" unicode="t" />
<glyph horiz-adv-x="481" d="M 53 540 L 145 540 L 145 168 C 145 134 153 109 170 93 C 187 77 209 70 237 70 C 262 70 284 79 304 97 C 323 115 333 144 333 182 L 333 540 L 425 540 L 425 0 L 343 0 L 343 88 C 335 63 318 41 293 21 C 267 1 236 -8 198 -8 C 159 -8 125 4 96 29 C 67 53 53 90 53 138 L 53 540 Z" unicode="u" />
<glyph horiz-adv-x="406" d="M 410 540 L 236 -2 L 168 -2 L -4 540 L 91 540 L 206 159 L 322 540 L 410 540 Z" unicode="v" />
<glyph horiz-adv-x="619" d="M 409 -2 L 314 323 L 210 -2 L 145 -2 L 1 540 L 89 540 L 189 148 L 283 462 L 349 462 L 436 150 L 536 540 L 618 540 L 473 -2 L 409 -2 Z" unicode="w" />
<glyph horiz-adv-x="391" d="M 295 0 L 192 196 L 86 0 L 2 0 L 150 276 L 12 540 L 107 540 L 198 365 L 292 540 L 379 540 L 240 285 L 389 0 L 295 0 Z" unicode="x" />
<glyph horiz-adv-x="409" d="M 413 540 L 206 -89 C 193 -127 174 -155 149 -173 C 123 -191 97 -200 69 -200 C 45 -200 25 -197 10 -192 C -4 -187 -14 -182 -20 -178 L 15 -106 C 18 -108 24 -111 34 -114 C 44 -117 53 -119 63 -119 C 77 -119 91 -113 103 -103 C 115 -92 125 -75 133 -53 L 161 40 L -4 540 L 91 540 L 208 162 L 324 540 L 413 540 Z" unicode="y" />
<glyph horiz-adv-x="376" d="M 354 540 L 354 500 L 133 80 L 365 80 L 365 0 L 14 0 L 14 35 L 236 459 L 26 459 L 26 540 L 354 540 Z" unicode="z" />
<glyph horiz-adv-x="263" d="M 247 -179 C 218 -178 191 -174 166 -166 C 141 -158 119 -147 101 -133 C 83 -119 68 -102 57 -84 C 46 -65 41 -45 41 -24 C 41 0 43 23 49 44 C 55 65 61 83 68 99 C 74 115 81 130 88 144 C 94 158 98 172 98 185 C 97 201 88 216 72 230 C 56 244 36 251 13 251 L 13 320 C 36 320 56 327 74 342 C 91 357 100 374 100 393 C 100 397 96 407 90 423 C 84 438 76 455 68 474 C 59 492 52 510 48 528 C 44 546 42 563 42 581 C 42 601 47 622 58 642 C 68 662 83 679 101 695 C 119 711 140 723 166 733 C 191 743 218 748 247 749 L 247 682 C 217 680 192 669 170 648 C 148 627 137 602 137 574 C 137 565 138 554 140 540 C 142 526 147 513 154 499 C 163 479 172 460 180 444 C 188 427 192 412 192 400 C 191 373 183 349 167 328 C 151 307 127 293 95 285 C 127 277 151 262 167 241 C 183 219 191 197 192 175 C 192 156 188 139 181 125 C 173 111 166 97 159 83 C 151 69 146 54 142 38 C 138 22 136 8 136 -4 C 136 -16 139 -28 145 -40 C 151 -52 158 -64 168 -74 C 178 -84 189 -93 203 -100 C 216 -106 231 -110 247 -111 L 247 -179 Z" unicode="{" />
<glyph horiz-adv-x="238" d="M 163 -179 L 75 -179 L 75 730 L 163 730 L 163 -179 Z" unicode="|" />
<glyph horiz-adv-x="263" d="M 15 -179 L 15 -111 C 31 -110 45 -106 59 -100 C 73 -93 84 -84 94 -74 C 104 -64 112 -52 118 -40 C 124 -28 127 -16 127 -4 C 127 8 125 22 121 38 C 117 54 111 69 104 83 C 96 97 88 111 81 125 C 74 139 71 156 71 175 C 71 197 79 219 94 241 C 109 262 133 277 165 285 C 134 293 111 307 95 328 C 79 349 71 373 71 400 C 71 412 74 427 82 444 C 90 460 99 479 109 499 C 115 513 120 526 122 540 C 124 554 126 565 126 574 C 125 602 114 627 92 648 C 70 669 45 680 15 682 L 15 749 C 44 748 71 743 96 733 C 121 723 143 711 161 695 C 179 679 194 662 205 642 C 215 622 221 601 221 581 C 221 563 218 546 214 528 C 210 510 203 492 195 474 C 186 455 178 438 172 423 C 165 407 162 397 162 393 C 162 374 171 357 189 342 C 206 327 226 320 250 320 L 250 251 C 226 251 206 244 190 230 C 173 216 165 201 165 185 C 165 172 168 158 175 144 C 181 130 188 115 195 99 C 201 83 207 65 213 44 C 219 23 222 0 222 -24 C 222 -45 216 -65 205 -84 C 194 -102 179 -119 161 -133 C 142 -147 120 -158 95 -166 C 70 -174 43 -178 15 -179 Z" unicode="}" />
<glyph horiz-adv-x="467" d="M 361 442 L 438 442 C 437 390 429 349 413 320 C 397 290 371 276 336 276 C 312 276 291 280 273 290 C 254 300 239 310 227 322 C 214 334 202 344 191 353 C 179 361 167 366 155 366 C 142 366 130 358 120 342 C 110 326 105 305 105 279 L 29 279 C 29 332 38 373 57 402 C 75 430 101 445 134 445 C 158 445 180 439 200 429 C 220 419 236 407 250 395 C 262 385 273 375 283 367 C 293 359 306 355 320 355 C 336 355 347 362 353 376 C 358 390 361 412 361 442 Z" unicode="~" />
<glyph horiz-adv-x="273" d="M 89 611 L 184 611 L 184 507 L 89 507 L 89 611 Z M 84 187 L 116 412 L 159 412 L 189 187 L 189 -107 L 84 -107 L 84 187 Z" unicode="¡" />
<glyph horiz-adv-x="425" d="M 410 172 C 396 154 379 137 359 120 C 338 103 308 92 269 88 L 269 -21 L 209 -21 L 209 89 C 153 95 110 120 78 164 C 46 207 30 261 30 325 C 30 355 34 384 42 411 C 50 438 61 462 77 483 C 92 504 111 522 133 536 C 155 550 181 560 209 564 L 209 671 L 269 671 L 269 566 C 306 562 336 552 360 535 C 383 517 401 499 413 480 L 367 426 C 356 440 343 452 328 464 C 312 476 293 483 269 486 L 269 167 C 295 169 316 176 331 189 C 346 201 358 214 367 226 L 410 172 Z M 124 329 C 124 289 131 255 147 229 C 162 202 183 184 209 174 L 209 480 C 181 470 160 452 146 425 C 131 397 124 365 124 329 Z" unicode="¢" />
<glyph horiz-adv-x="513" d="M 498 72 L 498 0 L 22 0 L 22 56 C 27 58 35 61 46 64 C 56 66 70 70 88 74 C 113 78 136 90 158 109 C 180 128 191 155 191 191 C 191 195 190 199 190 203 C 189 207 188 211 188 216 L 36 216 L 36 283 L 158 283 C 152 293 145 305 139 317 C 132 329 125 342 119 355 L 36 355 L 36 423 L 90 423 C 83 441 78 461 74 481 C 70 501 68 522 68 544 C 68 581 74 612 86 638 C 98 663 115 683 135 699 C 155 714 179 725 205 732 C 231 738 258 742 286 742 C 328 742 369 732 407 714 C 445 696 472 678 488 662 L 443 594 C 429 606 409 620 382 635 C 355 650 326 658 294 658 C 278 658 263 655 248 651 C 232 647 219 640 207 630 C 195 620 185 606 178 589 C 170 572 167 551 167 527 C 167 509 169 491 174 474 C 178 456 184 439 191 423 L 437 423 L 437 355 L 223 355 C 229 342 236 330 242 318 C 248 306 253 294 258 283 L 437 283 L 437 216 L 275 216 C 275 215 275 214 275 213 C 275 212 275 211 275 211 C 275 188 271 168 265 152 C 259 136 251 122 242 112 C 232 101 222 92 212 86 C 202 79 193 74 185 72 L 498 72 Z" unicode="£" />
<glyph horiz-adv-x="502" d="M 447 187 L 403 143 L 340 208 C 327 200 313 194 298 190 C 282 186 266 184 250 184 C 233 184 217 186 202 190 C 186 194 172 200 159 208 L 96 143 L 50 189 L 110 250 C 98 264 89 280 83 298 C 76 316 73 334 73 354 C 73 373 76 392 83 410 C 89 428 98 444 110 458 L 50 520 L 95 565 L 159 500 C 171 507 185 513 201 517 C 217 521 233 524 250 524 C 266 524 283 521 299 517 C 315 513 329 507 343 499 L 408 566 L 452 520 L 391 456 C 401 442 410 426 416 408 C 422 390 426 372 426 354 C 426 334 422 315 416 297 C 409 279 400 262 388 248 L 447 187 Z M 250 252 C 279 252 304 262 326 282 C 347 302 358 326 358 354 C 358 381 347 405 326 425 C 304 445 279 456 250 456 C 220 456 194 445 173 425 C 152 405 142 381 142 354 C 142 326 152 302 173 282 C 194 262 220 252 250 252 Z" unicode="¤" />
<glyph horiz-adv-x="527" d="M 474 138 L 312 138 L 312 0 L 212 0 L 212 138 L 52 138 L 52 205 L 212 205 L 212 267 L 52 267 L 52 335 L 209 335 L 14 730 L 115 730 L 265 418 L 418 730 L 514 730 L 317 335 L 473 335 L 473 267 L 312 267 L 312 205 L 474 205 L 474 138 Z" unicode="¥" />
<glyph horiz-adv-x="265" d="M 93 351 L 93 730 L 173 730 L 173 351 L 93 351 Z M 173 200 L 173 -179 L 93 -179 L 93 200 L 173 200 Z" unicode="¦" />
<glyph horiz-adv-x="581" d="M 308 -181 C 257 -181 209 -174 164 -160 C 119 -146 81 -128 51 -106 L 85 -29 C 113 -50 147 -68 187 -82 C 226 -96 263 -104 298 -104 C 330 -104 356 -95 377 -79 C 397 -62 408 -38 408 -8 C 408 19 399 40 383 55 C 367 69 344 83 315 96 L 207 148 C 179 160 154 172 133 183 C 111 194 94 206 80 219 C 66 232 56 247 49 264 C 42 280 39 301 39 326 C 39 356 46 382 60 402 C 74 422 91 439 112 453 C 94 464 80 480 72 500 C 64 520 60 544 60 574 C 60 600 65 624 77 645 C 88 666 104 684 124 698 C 144 712 167 722 194 730 C 221 738 250 742 282 742 C 338 742 383 733 419 717 C 455 700 484 682 508 663 L 465 592 C 438 612 410 630 382 646 C 354 661 320 669 280 669 C 244 669 215 660 191 643 C 167 626 156 603 156 574 C 156 553 162 535 176 521 C 190 507 211 494 240 482 L 380 417 C 431 396 470 373 497 349 C 523 325 537 291 537 247 C 537 215 526 189 505 167 C 483 145 460 131 434 126 C 440 122 448 116 457 108 C 465 100 473 91 481 80 C 488 69 494 56 500 42 C 505 27 508 11 508 -7 C 508 -34 502 -58 492 -80 C 482 -102 468 -120 450 -135 C 432 -149 411 -161 387 -169 C 362 -177 336 -181 308 -181 Z M 363 170 C 381 172 398 179 413 190 C 428 201 436 218 436 242 C 436 264 427 284 410 301 C 393 317 364 334 323 350 L 188 413 C 172 404 159 394 149 382 C 139 370 134 354 134 334 C 134 308 143 288 161 272 C 179 256 209 240 251 224 L 363 170 Z" unicode="§" />
<glyph horiz-adv-x="500" d="M 369 599 L 293 599 L 293 757 L 369 757 L 369 599 Z M 207 599 L 131 599 L 131 757 L 207 757 L 207 599 Z" unicode="¨" />
<glyph horiz-adv-x="821" d="M 411 15 C 361 15 313 24 269 43 C 225 62 186 88 153 121 C 120 154 94 193 75 237 C 56 281 47 329 47 379 C 47 429 56 476 75 520 C 94 564 120 602 153 635 C 186 668 225 694 269 713 C 313 732 361 742 411 742 C 461 742 508 732 552 713 C 596 694 634 668 667 635 C 700 602 726 564 745 520 C 764 476 774 429 774 379 C 774 329 764 281 745 237 C 726 193 700 154 667 121 C 634 88 596 62 552 43 C 508 24 461 15 411 15 Z M 411 74 C 452 74 491 82 528 98 C 565 114 597 135 625 163 C 652 191 674 223 690 260 C 706 297 714 336 714 378 C 714 419 706 458 690 496 C 674 533 652 565 625 593 C 597 620 565 642 528 658 C 491 674 452 683 411 683 C 369 683 330 674 293 658 C 256 642 224 620 196 593 C 168 565 147 533 131 496 C 115 458 107 419 107 378 C 107 336 115 297 131 260 C 147 223 168 191 196 163 C 224 135 256 114 293 98 C 330 82 369 74 411 74 Z M 575 246 C 560 221 539 200 511 184 C 483 167 450 159 410 159 C 385 159 361 163 338 173 C 314 182 294 196 276 214 C 258 232 243 255 233 282 C 222 308 217 339 217 374 C 217 408 222 438 232 466 C 242 494 255 517 272 537 C 289 556 309 571 332 582 C 355 592 380 598 406 598 C 448 598 483 590 509 575 C 535 560 556 541 571 518 L 511 472 C 500 486 487 499 471 509 C 455 519 434 524 409 524 C 375 524 348 509 326 481 C 304 452 294 416 294 374 C 294 328 306 292 330 267 C 354 241 382 229 412 229 C 434 229 455 234 473 245 C 491 256 506 270 517 287 L 575 246 Z" unicode="©" />
<glyph horiz-adv-x="442" d="M 393 311 L 317 311 L 317 369 C 303 348 283 332 258 321 C 232 309 204 304 174 304 C 132 304 98 315 74 339 C 50 362 38 394 38 436 C 38 481 54 515 88 539 C 121 562 166 575 223 578 L 315 584 L 315 593 C 315 618 307 637 291 649 C 275 661 252 668 223 668 C 199 668 175 664 153 656 C 131 648 110 637 92 625 L 63 684 C 83 700 107 713 137 724 C 167 735 200 741 238 741 C 285 741 323 729 351 706 C 379 682 393 644 393 592 L 393 311 Z M 316 425 L 316 520 L 217 515 C 188 513 164 507 145 495 C 125 483 116 465 116 439 C 116 418 123 402 139 390 C 155 378 175 373 199 373 C 222 373 244 377 265 387 C 286 396 303 409 316 425 Z M 398 185 L 44 185 L 44 260 L 398 260 L 398 185 Z" unicode="ª" />
<glyph horiz-adv-x="439" d="M 209 107 L 28 280 L 28 334 L 209 504 L 209 411 L 108 305 L 209 204 L 209 107 Z M 409 107 L 227 280 L 227 334 L 409 504 L 409 411 L 308 305 L 409 204 L 409 107 Z" unicode="«" />
<glyph horiz-adv-x="481" d="M 440 387 L 440 145 L 364 145 L 364 311 L 31 311 L 31 387 L 440 387 Z" unicode="¬" />
<glyph horiz-adv-x="821" d="M 411 15 C 361 15 313 24 269 43 C 225 62 186 88 153 121 C 120 154 94 193 75 237 C 56 281 47 329 47 379 C 47 429 56 476 75 520 C 94 564 120 602 153 635 C 186 668 225 694 269 713 C 313 732 361 742 411 742 C 461 742 508 732 552 713 C 596 694 634 668 667 635 C 700 602 726 564 745 520 C 764 476 774 429 774 379 C 774 329 764 281 745 237 C 726 193 700 154 667 121 C 634 88 596 62 552 43 C 508 24 461 15 411 15 Z M 411 74 C 452 74 491 81 528 97 C 565 113 597 134 625 161 C 652 188 674 220 690 257 C 706 294 714 334 714 378 C 714 421 706 461 690 499 C 674 536 652 568 625 595 C 597 622 565 643 528 659 C 491 675 452 683 411 683 C 369 683 329 675 292 659 C 255 643 223 621 196 594 C 168 566 147 534 131 497 C 115 459 107 420 107 378 C 107 336 115 296 131 259 C 147 221 168 189 196 162 C 223 134 255 113 292 97 C 329 81 369 74 411 74 Z M 277 172 L 277 599 L 428 599 C 446 599 463 596 480 592 C 497 587 512 580 525 570 C 538 560 549 548 557 534 C 565 519 569 501 569 481 C 569 444 559 415 539 395 C 519 375 496 363 472 360 L 471 356 L 605 172 L 528 172 L 405 344 L 343 344 L 343 172 L 277 172 Z M 342 401 L 432 401 C 450 401 466 407 481 419 C 496 431 504 449 505 472 C 505 495 496 512 480 523 C 464 533 444 539 422 539 L 342 539 L 342 401 Z" unicode="®" />
<glyph horiz-adv-x="500" d="M 375 613 L 125 613 L 125 691 L 375 691 L 375 613 Z" unicode="¯" />
<glyph horiz-adv-x="416" d="M 208 386 C 183 386 160 390 138 400 C 116 409 98 422 82 438 C 66 454 53 473 44 495 C 34 517 30 540 30 565 C 30 589 34 612 44 634 C 53 655 66 674 82 690 C 98 706 116 718 138 728 C 160 737 183 742 208 742 C 232 742 255 737 277 728 C 299 718 318 706 334 690 C 350 674 362 655 372 634 C 381 612 386 589 386 565 C 386 540 381 517 372 495 C 362 473 350 454 334 438 C 318 422 299 409 277 400 C 255 390 232 386 208 386 Z M 208 458 C 237 458 262 468 284 489 C 305 510 316 535 316 565 C 316 593 305 618 284 640 C 262 661 237 672 208 672 C 178 672 153 661 132 640 C 110 618 100 593 100 565 C 100 535 110 510 132 489 C 153 468 178 458 208 458 Z" unicode="°" />
<glyph horiz-adv-x="481" d="M 456 293 L 278 293 L 278 112 L 204 112 L 204 293 L 24 293 L 24 365 L 204 365 L 204 550 L 278 550 L 278 365 L 456 365 L 456 293 Z M 452 25 L 31 25 L 31 96 L 452 96 L 452 25 Z" unicode="±" />
<glyph horiz-adv-x="336" d="M 306 372 L 25 372 L 25 402 L 183 559 C 189 565 196 573 203 583 C 209 593 213 605 213 619 C 213 633 208 645 198 656 C 188 667 173 673 154 673 C 131 673 115 666 106 652 C 96 638 91 623 91 605 L 19 605 C 19 641 31 673 56 700 C 81 727 116 741 162 741 C 206 741 239 730 261 710 C 283 689 295 664 295 636 C 295 609 290 587 280 569 C 270 551 260 537 249 527 L 157 439 L 306 439 L 306 372 Z" unicode="²" />
<glyph horiz-adv-x="346" d="M 226 569 C 254 564 275 553 291 537 C 307 520 315 500 315 477 C 315 465 312 452 307 439 C 302 425 294 413 282 402 C 270 391 255 382 235 375 C 215 367 190 364 161 364 C 119 364 87 368 64 378 C 40 388 22 398 10 408 L 54 454 C 65 447 79 441 96 435 C 113 429 133 426 157 426 C 188 426 210 432 223 444 C 235 456 242 471 242 489 C 242 507 234 520 218 526 C 202 532 183 535 162 535 L 89 535 L 89 593 L 156 593 C 176 593 193 596 206 603 C 218 610 225 621 225 636 C 225 648 219 658 208 666 C 197 673 180 677 158 677 C 138 677 120 673 103 666 C 86 658 73 650 65 640 L 21 684 C 34 698 52 711 74 723 C 96 735 128 742 169 742 C 209 742 241 733 265 717 C 288 700 300 678 300 652 C 300 630 292 611 278 597 C 263 583 246 573 226 569 Z" unicode="³" />
<glyph horiz-adv-x="500" d="M 156 601 L 247 770 L 354 770 L 246 601 L 156 601 Z" unicode="´" />
<glyph horiz-adv-x="601" d="M 73 -135 L 73 540 L 164 540 L 164 169 C 164 139 176 115 202 95 C 228 75 257 66 290 66 C 306 66 323 68 340 74 C 357 79 372 87 386 98 C 399 108 410 122 419 138 C 427 154 432 172 432 193 L 432 540 L 523 540 L 523 0 L 439 0 L 439 99 C 434 85 426 72 415 60 C 403 47 390 36 375 26 C 359 16 343 9 325 3 C 307 -3 289 -6 271 -7 C 247 -7 224 -1 202 8 C 180 18 165 33 157 52 L 157 -135 L 73 -135 Z" unicode="µ" />
<glyph horiz-adv-x="600" d="M 546 -180 L 477 -179 L 477 657 L 390 657 L 390 -179 L 321 -179 L 321 281 L 247 281 C 218 281 190 287 163 299 C 136 311 112 327 92 347 C 71 367 54 390 42 417 C 30 444 24 472 24 502 C 24 534 29 564 41 592 C 53 620 69 644 90 664 C 111 684 136 700 166 712 C 196 724 229 730 265 730 L 546 730 L 546 -180 Z M 322 358 L 322 653 L 291 653 C 247 653 210 639 182 611 C 153 583 139 547 139 505 C 139 465 153 431 181 402 C 209 372 243 358 282 358 L 322 358 Z" unicode="¶" />
<glyph horiz-adv-x="255" d="M 174 284 L 81 284 L 81 416 L 174 416 L 174 284 Z" unicode="·" />
<glyph horiz-adv-x="500" d="M 253 -183 C 231 -183 210 -180 189 -174 C 168 -168 151 -160 139 -150 L 159 -113 C 167 -118 177 -123 191 -129 C 204 -135 219 -138 235 -138 C 247 -138 258 -134 268 -128 C 278 -122 283 -113 283 -103 C 283 -91 278 -82 270 -77 C 261 -71 251 -69 241 -69 C 234 -69 228 -69 222 -70 C 216 -71 210 -73 205 -76 L 194 -59 L 249 13 L 297 13 L 253 -45 C 281 -42 305 -46 325 -56 C 345 -66 355 -84 355 -108 C 355 -132 345 -150 325 -163 C 305 -176 281 -183 253 -183 Z" unicode="¸" />
<glyph horiz-adv-x="321" d="M 142 372 L 142 644 C 134 633 120 623 100 614 C 80 604 63 598 49 596 L 48 678 C 72 681 94 688 112 698 C 130 708 149 722 168 740 L 225 740 L 225 372 L 142 372 Z" unicode="¹" />
<glyph horiz-adv-x="433" d="M 213 302 C 189 302 165 307 143 317 C 120 327 100 341 83 360 C 66 378 52 401 42 428 C 32 455 27 485 27 519 C 27 548 32 576 42 603 C 52 630 65 654 82 674 C 99 694 119 709 142 721 C 165 733 189 739 215 739 C 241 739 266 734 290 724 C 313 714 333 699 350 681 C 367 663 381 641 391 615 C 401 589 406 560 406 529 C 406 496 400 466 390 438 C 380 410 366 386 349 366 C 331 346 311 330 288 319 C 264 307 239 302 213 302 Z M 215 372 C 249 372 276 386 296 415 C 316 444 327 481 327 525 C 327 566 317 600 298 628 C 279 655 252 669 216 669 C 182 669 155 654 135 626 C 115 597 106 560 106 516 C 106 472 116 437 136 411 C 156 385 182 372 215 372 Z M 44 185 L 44 260 L 388 260 L 388 185 L 44 185 Z" unicode="º" />
<glyph horiz-adv-x="440" d="M 30 505 L 212 333 L 212 279 L 30 109 L 30 201 L 131 307 L 30 408 L 30 505 Z M 231 505 L 413 333 L 413 279 L 231 109 L 231 201 L 332 307 L 231 409 L 231 505 Z" unicode="»" />
<glyph horiz-adv-x="694" d="M 8 0 L 8 0 Z M 102 372 L 102 644 C 94 633 80 623 60 614 C 40 604 23 598 9 596 L 8 678 C 32 681 54 688 72 698 C 90 708 109 722 128 740 L 185 740 L 185 372 L 102 372 Z M 573 730 L 203 0 L 125 0 L 495 730 L 573 730 Z M 385 83 L 385 139 L 571 366 L 624 366 L 624 142 L 685 142 L 685 83 L 624 83 L 624 1 L 548 1 L 548 83 L 385 83 Z M 457 137 L 550 137 L 550 254 L 457 137 Z" unicode="¼" />
<glyph horiz-adv-x="757" d="M 8 0 L 8 0 Z M 102 372 L 102 644 C 94 633 80 623 60 614 C 40 604 23 598 9 596 L 8 678 C 32 681 54 688 72 698 C 90 708 109 722 128 740 L 185 740 L 185 372 L 102 372 Z M 573 730 L 203 0 L 125 0 L 495 730 L 573 730 Z M 736 0 L 455 0 L 455 30 L 613 187 C 619 193 626 201 633 211 C 639 221 643 233 643 247 C 643 261 638 273 628 284 C 618 295 603 301 584 301 C 561 301 545 294 536 280 C 526 266 521 251 521 233 L 449 233 C 449 269 461 301 486 328 C 511 355 546 369 592 369 C 636 369 669 358 691 338 C 713 317 725 292 725 264 C 725 237 720 215 710 197 C 700 179 690 165 679 155 L 587 67 L 736 67 L 736 0 Z" unicode="½" />
<glyph horiz-adv-x="754" d="M 9 0 L 9 0 Z M 633 730 L 263 0 L 185 0 L 555 730 L 633 730 Z M 445 83 L 445 139 L 631 366 L 684 366 L 684 142 L 745 142 L 745 83 L 684 83 L 684 1 L 608 1 L 608 83 L 445 83 Z M 517 137 L 610 137 L 610 254 L 517 137 Z M 225 569 C 253 564 274 553 290 537 C 306 520 314 500 314 477 C 314 465 311 452 306 439 C 301 425 293 413 281 402 C 269 391 254 382 234 375 C 214 367 189 364 160 364 C 118 364 86 368 63 378 C 39 388 21 398 9 408 L 53 454 C 64 447 78 441 95 435 C 112 429 132 426 156 426 C 187 426 209 432 222 444 C 234 456 241 471 241 489 C 241 507 233 520 217 526 C 201 532 182 535 161 535 L 88 535 L 88 593 L 155 593 C 175 593 192 596 205 603 C 217 610 224 621 224 636 C 224 648 218 658 207 666 C 196 673 179 677 157 677 C 137 677 119 673 102 666 C 85 658 72 650 64 640 L 20 684 C 33 698 51 711 73 723 C 95 735 127 742 168 742 C 208 742 240 733 264 717 C 287 700 299 678 299 652 C 299 630 291 611 277 597 C 262 583 245 573 225 569 Z" unicode="¾" />
<glyph horiz-adv-x="444" d="M 187 495 L 187 611 L 289 611 L 289 495 L 187 495 Z M 221 -131 C 162 -131 115 -115 79 -84 C 43 -52 26 -9 26 45 C 26 70 29 93 37 114 C 44 134 53 153 64 170 C 75 186 87 202 101 216 C 114 230 127 244 140 257 C 162 277 176 301 183 329 C 190 357 194 383 195 409 L 286 409 C 286 365 280 328 269 299 C 258 270 240 243 214 217 C 194 196 174 174 154 150 C 134 126 124 97 124 61 C 124 28 134 2 156 -16 C 178 -35 204 -45 236 -45 C 264 -45 289 -38 311 -24 C 333 -10 351 7 366 27 L 425 -30 C 402 -61 373 -86 337 -104 C 301 -122 263 -131 221 -131 Z" unicode="¿" />
<glyph horiz-adv-x="538" d="M 1 0 L 1 0 Z M 537 0 L 438 0 L 380 183 L 151 183 L 96 0 L 1 0 L 236 734 L 304 734 L 537 0 Z M 364 256 L 265 575 L 168 256 L 364 256 Z M 267 788 L 267 788 Z M 366 788 L 276 788 L 167 957 L 274 957 L 366 788 Z" unicode="À" />
<glyph horiz-adv-x="538" d="M 1 0 L 1 0 Z M 537 0 L 438 0 L 380 183 L 151 183 L 96 0 L 1 0 L 236 734 L 304 734 L 537 0 Z M 364 256 L 265 575 L 168 256 L 364 256 Z M 267 791 L 267 791 Z M 168 791 L 259 960 L 366 960 L 258 791 L 168 791 Z" unicode="Á" />
<glyph horiz-adv-x="538" d="M 1 0 L 1 0 Z M 537 0 L 438 0 L 380 183 L 151 183 L 96 0 L 1 0 L 236 734 L 304 734 L 537 0 Z M 364 256 L 265 575 L 168 256 L 364 256 Z M 267 789 L 267 789 Z M 415 789 L 334 789 L 267 895 L 199 789 L 120 789 L 226 960 L 309 960 L 415 789 Z" unicode="Â" />
<glyph horiz-adv-x="538" d="M 1 0 L 1 0 Z M 537 0 L 438 0 L 380 183 L 151 183 L 96 0 L 1 0 L 236 734 L 304 734 L 537 0 Z M 364 256 L 265 575 L 168 256 L 364 256 Z M 267 795 L 267 795 Z M 357 932 L 427 932 C 427 885 420 850 407 828 C 393 806 375 795 353 795 C 335 795 319 798 305 806 C 291 813 279 820 269 828 C 259 834 249 841 240 848 C 230 855 221 859 213 859 C 203 859 195 853 189 843 C 182 832 178 817 178 799 L 108 799 C 108 845 117 879 135 902 C 153 924 173 936 194 936 C 210 936 224 932 236 925 C 248 917 260 909 272 901 C 280 894 289 888 298 882 C 306 876 315 874 324 874 C 332 874 340 879 347 889 C 353 899 357 913 357 932 Z" unicode="Ã" />
<glyph horiz-adv-x="538" d="M 1 0 L 1 0 Z M 537 0 L 438 0 L 380 183 L 151 183 L 96 0 L 1 0 L 236 734 L 304 734 L 537 0 Z M 364 256 L 265 575 L 168 256 L 364 256 Z M 267 789 L 267 789 Z M 386 789 L 310 789 L 310 947 L 386 947 L 386 789 Z M 224 789 L 148 789 L 148 947 L 224 947 L 224 789 Z" unicode="Ä" />
<glyph horiz-adv-x="538" d="M 1 0 L 1 0 Z M 537 0 L 438 0 L 380 183 L 151 183 L 96 0 L 1 0 L 236 734 L 304 734 L 537 0 Z M 364 256 L 265 575 L 168 256 L 364 256 Z M 267 774 L 267 774 Z M 267 774 C 233 774 204 786 180 810 C 156 834 144 863 144 897 C 144 931 156 959 180 983 C 204 1007 233 1019 267 1019 C 301 1019 330 1007 354 983 C 378 959 391 931 391 897 C 391 863 378 834 354 810 C 330 786 301 774 267 774 Z M 268 830 C 286 830 301 836 313 849 C 325 862 332 878 332 897 C 332 915 325 930 313 943 C 301 956 286 963 268 963 C 250 963 234 956 221 943 C 208 930 202 915 202 897 C 202 878 208 862 221 849 C 234 836 250 830 268 830 Z" unicode="Å" />
<glyph horiz-adv-x="810" d="M 784 0 L 427 0 L 427 215 L 206 215 L 92 0 L -7 0 L 371 730 L 766 730 L 766 643 L 521 643 L 521 407 L 755 407 L 755 323 L 521 323 L 521 87 L 784 87 L 784 0 Z M 427 296 L 427 664 L 243 296 L 427 296 Z" unicode="Æ" />
<glyph horiz-adv-x="602" d="M 38 0 L 38 0 Z M 324 -9 C 284 -9 246 0 211 15 C 175 31 145 55 120 87 C 94 118 74 157 60 204 C 45 251 38 305 38 366 C 38 423 44 475 58 521 C 71 567 90 607 115 639 C 139 671 169 695 205 713 C 241 730 281 739 325 739 C 387 739 436 725 473 697 C 510 669 538 633 557 589 L 473 548 C 458 577 439 601 417 621 C 394 641 363 651 325 651 C 267 651 221 627 188 581 C 154 535 138 462 138 364 C 138 312 143 268 154 232 C 165 196 180 166 198 144 C 216 121 236 104 259 94 C 282 83 306 78 331 78 C 373 78 406 89 431 111 C 456 133 476 161 491 195 L 571 152 C 550 104 519 65 477 35 C 435 5 384 -9 324 -9 Z M 319 -3 L 319 -3 Z M 325 -186 C 303 -186 282 -183 261 -177 C 240 -171 223 -163 211 -153 L 231 -116 C 239 -121 249 -126 263 -132 C 276 -138 291 -141 307 -141 C 319 -141 330 -137 340 -131 C 350 -125 355 -116 355 -106 C 355 -94 350 -85 342 -80 C 333 -74 323 -72 313 -72 C 306 -72 300 -72 294 -73 C 288 -74 282 -76 277 -79 L 266 -62 L 321 10 L 369 10 L 325 -48 C 353 -45 377 -49 397 -59 C 417 -69 427 -87 427 -111 C 427 -135 417 -153 397 -166 C 377 -179 353 -186 325 -186 Z" unicode="Ç" />
<glyph horiz-adv-x="459" d="M 71 0 L 71 0 Z M 432 0 L 71 0 L 71 730 L 414 730 L 414 643 L 169 643 L 169 407 L 403 407 L 403 323 L 169 323 L 169 87 L 432 87 L 432 0 Z M 246 788 L 246 788 Z M 345 788 L 255 788 L 146 957 L 253 957 L 345 788 Z" unicode="È" />
<glyph horiz-adv-x="459" d="M 71 0 L 71 0 Z M 432 0 L 71 0 L 71 730 L 414 730 L 414 643 L 169 643 L 169 407 L 403 407 L 403 323 L 169 323 L 169 87 L 432 87 L 432 0 Z M 246 791 L 246 791 Z M 147 791 L 238 960 L 345 960 L 237 791 L 147 791 Z" unicode="É" />
<glyph horiz-adv-x="459" d="M 71 0 L 71 0 Z M 432 0 L 71 0 L 71 730 L 414 730 L 414 643 L 169 643 L 169 407 L 403 407 L 403 323 L 169 323 L 169 87 L 432 87 L 432 0 Z M 246 789 L 246 789 Z M 394 789 L 313 789 L 246 895 L 178 789 L 99 789 L 205 960 L 288 960 L 394 789 Z" unicode="Ê" />
<glyph horiz-adv-x="459" d="M 71 0 L 71 0 Z M 432 0 L 71 0 L 71 730 L 414 730 L 414 643 L 169 643 L 169 407 L 403 407 L 403 323 L 169 323 L 169 87 L 432 87 L 432 0 Z M 246 789 L 246 789 Z M 365 789 L 289 789 L 289 947 L 365 947 L 365 789 Z M 203 789 L 127 789 L 127 947 L 203 947 L 203 789 Z" unicode="Ë" />
<glyph horiz-adv-x="251" d="M 25 0 L 25 0 Z M 176 0 L 75 0 L 75 730 L 176 730 L 176 0 Z M 125 788 L 125 788 Z M 224 788 L 134 788 L 25 957 L 132 957 L 224 788 Z" unicode="Ì" />
<glyph horiz-adv-x="251" d="M 26 0 L 26 0 Z M 176 0 L 75 0 L 75 730 L 176 730 L 176 0 Z M 125 791 L 125 791 Z M 26 791 L 117 960 L 224 960 L 116 791 L 26 791 Z" unicode="Í" />
<glyph horiz-adv-x="251" d="M 0 0 L 0 0 Z M 176 0 L 75 0 L 75 730 L 176 730 L 176 0 Z M 125 789 L 125 789 Z M 273 789 L 192 789 L 125 895 L 57 789 L -22 789 L 84 960 L 167 960 L 273 789 Z" unicode="Î" />
<glyph horiz-adv-x="251" d="M 6 0 L 6 0 Z M 176 0 L 75 0 L 75 730 L 176 730 L 176 0 Z M 125 789 L 125 789 Z M 244 789 L 168 789 L 168 947 L 244 947 L 244 789 Z M 82 789 L 6 789 L 6 947 L 82 947 L 82 789 Z" unicode="Ï" />
<glyph horiz-adv-x="610" d="M 571 364 C 571 313 564 265 550 221 C 536 177 516 138 489 106 C 461 73 427 47 386 28 C 345 9 297 0 243 0 L 71 0 L 71 320 L 24 320 L 24 397 L 71 397 L 71 730 L 253 730 C 303 730 348 721 388 704 C 428 686 461 662 488 630 C 515 598 536 560 550 515 C 564 469 571 419 571 364 Z M 169 77 L 241 77 C 282 77 317 84 347 98 C 376 112 400 132 418 158 C 436 183 449 213 457 248 C 465 283 470 321 470 362 C 470 458 450 530 412 579 C 374 628 321 653 254 653 L 169 653 L 169 397 L 311 397 L 311 320 L 169 320 L 169 77 Z" unicode="Ð" />
<glyph horiz-adv-x="619" d="M 71 0 L 71 0 Z M 548 0 L 477 0 L 165 515 L 165 0 L 71 0 L 71 730 L 144 730 L 457 213 L 457 730 L 548 730 L 548 0 Z M 310 795 L 310 795 Z M 400 932 L 470 932 C 470 885 463 850 450 828 C 436 806 418 795 396 795 C 378 795 362 798 348 806 C 334 813 322 820 312 828 C 302 834 292 841 283 848 C 273 855 264 859 256 859 C 246 859 238 853 232 843 C 225 832 221 817 221 799 L 151 799 C 151 845 160 879 178 902 C 196 924 216 936 237 936 C 253 936 267 932 279 925 C 291 917 303 909 315 901 C 323 894 332 888 341 882 C 349 876 358 874 367 874 C 375 874 383 879 390 889 C 396 899 400 913 400 932 Z" unicode="Ñ" />
<glyph horiz-adv-x="662" d="M 38 0 L 38 0 Z M 333 -9 C 243 -9 171 24 118 92 C 64 160 38 253 38 371 C 38 427 45 477 59 523 C 73 569 92 607 118 639 C 143 671 173 695 209 713 C 245 730 284 739 327 739 C 418 739 490 705 543 639 C 596 573 623 482 623 366 C 623 308 615 256 601 210 C 586 163 566 123 540 91 C 514 59 484 34 448 17 C 412 0 374 -9 333 -9 Z M 335 73 C 390 73 435 97 470 147 C 504 196 522 270 522 369 C 522 461 503 531 467 581 C 431 630 384 655 326 655 C 269 655 224 631 190 583 C 156 535 140 463 140 367 C 140 269 158 195 195 146 C 232 97 279 73 335 73 Z M 329 788 L 329 788 Z M 428 788 L 338 788 L 229 957 L 336 957 L 428 788 Z" unicode="Ò" />
<glyph horiz-adv-x="662" d="M 38 0 L 38 0 Z M 333 -9 C 243 -9 171 24 118 92 C 64 160 38 253 38 371 C 38 427 45 477 59 523 C 73 569 92 607 118 639 C 143 671 173 695 209 713 C 245 730 284 739 327 739 C 418 739 490 705 543 639 C 596 573 623 482 623 366 C 623 308 615 256 601 210 C 586 163 566 123 540 91 C 514 59 484 34 448 17 C 412 0 374 -9 333 -9 Z M 335 73 C 390 73 435 97 470 147 C 504 196 522 270 522 369 C 522 461 503 531 467 581 C 431 630 384 655 326 655 C 269 655 224 631 190 583 C 156 535 140 463 140 367 C 140 269 158 195 195 146 C 232 97 279 73 335 73 Z M 329 791 L 329 791 Z M 230 791 L 321 960 L 428 960 L 320 791 L 230 791 Z" unicode="Ó" />
<glyph horiz-adv-x="662" d="M 38 0 L 38 0 Z M 333 -9 C 243 -9 171 24 118 92 C 64 160 38 253 38 371 C 38 427 45 477 59 523 C 73 569 92 607 118 639 C 143 671 173 695 209 713 C 245 730 284 739 327 739 C 418 739 490 705 543 639 C 596 573 623 482 623 366 C 623 308 615 256 601 210 C 586 163 566 123 540 91 C 514 59 484 34 448 17 C 412 0 374 -9 333 -9 Z M 335 73 C 390 73 435 97 470 147 C 504 196 522 270 522 369 C 522 461 503 531 467 581 C 431 630 384 655 326 655 C 269 655 224 631 190 583 C 156 535 140 463 140 367 C 140 269 158 195 195 146 C 232 97 279 73 335 73 Z M 329 789 L 329 789 Z M 477 789 L 396 789 L 329 895 L 261 789 L 182 789 L 288 960 L 371 960 L 477 789 Z" unicode="Ô" />
<glyph horiz-adv-x="662" d="M 38 0 L 38 0 Z M 333 -9 C 243 -9 171 24 118 92 C 64 160 38 253 38 371 C 38 427 45 477 59 523 C 73 569 92 607 118 639 C 143 671 173 695 209 713 C 245 730 284 739 327 739 C 418 739 490 705 543 639 C 596 573 623 482 623 366 C 623 308 615 256 601 210 C 586 163 566 123 540 91 C 514 59 484 34 448 17 C 412 0 374 -9 333 -9 Z M 335 73 C 390 73 435 97 470 147 C 504 196 522 270 522 369 C 522 461 503 531 467 581 C 431 630 384 655 326 655 C 269 655 224 631 190 583 C 156 535 140 463 140 367 C 140 269 158 195 195 146 C 232 97 279 73 335 73 Z M 329 795 L 329 795 Z M 419 932 L 489 932 C 489 885 482 850 469 828 C 455 806 437 795 415 795 C 397 795 381 798 367 806 C 353 813 341 820 331 828 C 321 834 311 841 302 848 C 292 855 283 859 275 859 C 265 859 257 853 251 843 C 244 832 240 817 240 799 L 170 799 C 170 845 179 879 197 902 C 215 924 235 936 256 936 C 272 936 286 932 298 925 C 310 917 322 909 334 901 C 342 894 351 888 360 882 C 368 876 377 874 386 874 C 394 874 402 879 409 889 C 415 899 419 913 419 932 Z" unicode="Õ" />
<glyph horiz-adv-x="662" d="M 38 0 L 38 0 Z M 333 -9 C 243 -9 171 24 118 92 C 64 160 38 253 38 371 C 38 427 45 477 59 523 C 73 569 92 607 118 639 C 143 671 173 695 209 713 C 245 730 284 739 327 739 C 418 739 490 705 543 639 C 596 573 623 482 623 366 C 623 308 615 256 601 210 C 586 163 566 123 540 91 C 514 59 484 34 448 17 C 412 0 374 -9 333 -9 Z M 335 73 C 390 73 435 97 470 147 C 504 196 522 270 522 369 C 522 461 503 531 467 581 C 431 630 384 655 326 655 C 269 655 224 631 190 583 C 156 535 140 463 140 367 C 140 269 158 195 195 146 C 232 97 279 73 335 73 Z M 329 789 L 329 789 Z M 448 789 L 372 789 L 372 947 L 448 947 L 448 789 Z M 286 789 L 210 789 L 210 947 L 286 947 L 286 789 Z" unicode="Ö" />
<glyph horiz-adv-x="481" d="M 107 146 L 58 195 L 191 329 L 59 461 L 108 511 L 240 378 L 374 511 L 423 461 L 290 329 L 423 196 L 374 145 L 240 280 L 107 146 Z" unicode="×" />
<glyph horiz-adv-x="662" d="M 623 366 C 623 308 615 256 601 210 C 586 163 566 123 540 91 C 514 59 484 34 448 17 C 412 0 374 -9 333 -9 C 294 -9 258 -2 225 11 C 192 24 163 43 139 68 L 82 -6 L 28 34 L 97 123 C 78 154 63 191 53 233 C 43 275 38 321 38 371 C 38 427 45 477 59 523 C 73 569 92 607 118 639 C 143 671 173 695 209 713 C 245 730 284 739 327 739 C 365 739 401 732 434 720 C 466 708 495 690 520 667 L 585 751 L 639 711 L 563 613 C 582 582 597 546 607 504 C 617 462 623 416 623 366 Z M 140 367 C 140 335 142 306 146 280 C 150 253 156 229 164 209 L 461 591 C 444 611 424 627 401 638 C 378 649 353 655 326 655 C 269 655 224 631 190 583 C 156 535 140 463 140 367 Z M 522 369 C 522 400 519 429 515 456 C 511 482 504 506 496 527 L 198 143 C 214 119 234 102 258 90 C 282 78 307 73 335 73 C 390 73 435 97 470 147 C 504 196 522 270 522 369 Z" unicode="Ø" />
<glyph horiz-adv-x="610" d="M 68 0 L 68 0 Z M 543 730 L 543 234 C 543 192 536 156 523 126 C 510 95 493 70 471 50 C 449 30 423 15 394 5 C 364 -4 333 -9 301 -9 C 269 -9 239 -4 211 5 C 183 14 158 28 137 48 C 116 67 99 92 87 123 C 74 154 68 191 68 234 L 68 730 L 166 730 L 166 233 C 166 180 179 141 206 116 C 232 91 265 79 303 79 C 341 79 373 90 400 114 C 427 138 441 177 441 233 L 441 730 L 543 730 Z M 303 788 L 303 788 Z M 402 788 L 312 788 L 203 957 L 310 957 L 402 788 Z" unicode="Ù" />
<glyph horiz-adv-x="610" d="M 68 0 L 68 0 Z M 543 730 L 543 234 C 543 192 536 156 523 126 C 510 95 493 70 471 50 C 449 30 423 15 394 5 C 364 -4 333 -9 301 -9 C 269 -9 239 -4 211 5 C 183 14 158 28 137 48 C 116 67 99 92 87 123 C 74 154 68 191 68 234 L 68 730 L 166 730 L 166 233 C 166 180 179 141 206 116 C 232 91 265 79 303 79 C 341 79 373 90 400 114 C 427 138 441 177 441 233 L 441 730 L 543 730 Z M 303 791 L 303 791 Z M 204 791 L 295 960 L 402 960 L 294 791 L 204 791 Z" unicode="Ú" />
<glyph horiz-adv-x="610" d="M 68 0 L 68 0 Z M 543 730 L 543 234 C 543 192 536 156 523 126 C 510 95 493 70 471 50 C 449 30 423 15 394 5 C 364 -4 333 -9 301 -9 C 269 -9 239 -4 211 5 C 183 14 158 28 137 48 C 116 67 99 92 87 123 C 74 154 68 191 68 234 L 68 730 L 166 730 L 166 233 C 166 180 179 141 206 116 C 232 91 265 79 303 79 C 341 79 373 90 400 114 C 427 138 441 177 441 233 L 441 730 L 543 730 Z M 303 789 L 303 789 Z M 451 789 L 370 789 L 303 895 L 235 789 L 156 789 L 262 960 L 345 960 L 451 789 Z" unicode="Û" />
<glyph horiz-adv-x="610" d="M 68 0 L 68 0 Z M 543 730 L 543 234 C 543 192 536 156 523 126 C 510 95 493 70 471 50 C 449 30 423 15 394 5 C 364 -4 333 -9 301 -9 C 269 -9 239 -4 211 5 C 183 14 158 28 137 48 C 116 67 99 92 87 123 C 74 154 68 191 68 234 L 68 730 L 166 730 L 166 233 C 166 180 179 141 206 116 C 232 91 265 79 303 79 C 341 79 373 90 400 114 C 427 138 441 177 441 233 L 441 730 L 543 730 Z M 303 789 L 303 789 Z M 422 789 L 346 789 L 346 947 L 422 947 L 422 789 Z M 260 789 L 184 789 L 184 947 L 260 947 L 260 789 Z" unicode="Ü" />
<glyph horiz-adv-x="529" d="M 0 0 L 0 0 Z M 530 730 L 312 314 L 312 0 L 212 0 L 212 316 L -2 730 L 113 730 L 268 413 L 432 730 L 530 730 Z M 268 791 L 268 791 Z M 169 791 L 260 960 L 367 960 L 259 791 L 169 791 Z" unicode="Ý" />
<glyph horiz-adv-x="498" d="M 71 0 L 71 730 L 171 730 L 171 601 L 272 601 C 332 601 381 582 420 544 C 459 506 479 453 479 386 C 479 317 459 262 419 222 C 379 182 330 162 270 162 L 171 162 L 171 0 L 71 0 Z M 169 241 L 262 241 C 298 241 328 253 350 279 C 372 304 384 340 384 387 C 384 431 371 464 346 487 C 321 509 292 521 260 521 L 169 521 L 169 241 Z" unicode="Þ" />
<glyph horiz-adv-x="554" d="M 382 -7 C 344 -7 310 0 281 13 C 251 26 228 44 210 66 L 256 128 C 272 110 290 96 311 86 C 331 76 352 71 374 71 C 394 71 411 77 427 90 C 442 103 450 121 450 144 C 450 165 441 183 423 199 C 405 215 379 232 345 250 C 303 270 271 290 251 311 C 231 332 221 363 221 403 C 221 439 231 468 252 490 C 272 512 296 526 322 532 C 328 534 334 542 341 556 C 347 569 351 590 353 618 C 353 657 343 685 323 702 C 303 718 280 727 255 727 C 228 727 206 718 188 700 C 170 682 161 654 161 616 L 161 0 L 68 0 L 68 624 C 68 682 84 726 118 757 C 152 787 196 803 250 803 C 276 803 300 799 323 791 C 346 783 366 771 383 756 C 399 741 412 722 422 700 C 432 677 437 651 437 623 C 437 580 430 546 418 520 C 406 494 393 479 381 474 C 361 472 343 466 327 455 C 310 444 301 429 300 410 C 300 390 308 374 326 362 C 344 350 372 333 411 313 C 453 291 484 268 504 242 C 524 216 535 183 535 142 C 535 116 530 94 521 76 C 512 57 500 41 486 29 C 472 17 455 8 437 2 C 419 -4 400 -7 382 -7 Z" unicode="ß" />
<glyph horiz-adv-x="447" d="M 26 0 L 26 0 Z M 396 0 L 315 0 L 315 59 C 297 37 278 21 256 10 C 234 0 205 -6 170 -6 C 127 -6 92 8 66 37 C 39 65 26 106 26 158 C 26 217 44 261 80 289 C 116 317 161 334 216 338 L 308 345 L 308 377 C 308 407 300 430 284 446 C 268 461 245 469 216 469 C 189 469 165 464 143 454 C 121 444 103 433 89 422 L 58 496 C 76 510 99 523 128 534 C 157 545 192 551 232 551 C 282 551 321 537 351 511 C 381 484 396 444 396 392 L 396 0 Z M 310 122 L 310 279 L 226 273 C 195 270 169 260 149 243 C 128 225 118 198 118 160 C 118 127 126 103 143 87 C 160 71 180 64 204 64 C 227 64 248 69 266 80 C 284 91 299 105 310 122 Z M 220 598 L 220 598 Z M 319 598 L 229 598 L 120 767 L 227 767 L 319 598 Z" unicode="à" />
<glyph horiz-adv-x="447" d="M 26 0 L 26 0 Z M 396 0 L 315 0 L 315 59 C 297 37 278 21 256 10 C 234 0 205 -6 170 -6 C 127 -6 92 8 66 37 C 39 65 26 106 26 158 C 26 217 44 261 80 289 C 116 317 161 334 216 338 L 308 345 L 308 377 C 308 407 300 430 284 446 C 268 461 245 469 216 469 C 189 469 165 464 143 454 C 121 444 103 433 89 422 L 58 496 C 76 510 99 523 128 534 C 157 545 192 551 232 551 C 282 551 321 537 351 511 C 381 484 396 444 396 392 L 396 0 Z M 310 122 L 310 279 L 226 273 C 195 270 169 260 149 243 C 128 225 118 198 118 160 C 118 127 126 103 143 87 C 160 71 180 64 204 64 C 227 64 248 69 266 80 C 284 91 299 105 310 122 Z M 220 601 L 220 601 Z M 121 601 L 212 770 L 319 770 L 211 601 L 121 601 Z" unicode="á" />
<glyph horiz-adv-x="447" d="M 26 0 L 26 0 Z M 396 0 L 315 0 L 315 59 C 297 37 278 21 256 10 C 234 0 205 -6 170 -6 C 127 -6 92 8 66 37 C 39 65 26 106 26 158 C 26 217 44 261 80 289 C 116 317 161 334 216 338 L 308 345 L 308 377 C 308 407 300 430 284 446 C 268 461 245 469 216 469 C 189 469 165 464 143 454 C 121 444 103 433 89 422 L 58 496 C 76 510 99 523 128 534 C 157 545 192 551 232 551 C 282 551 321 537 351 511 C 381 484 396 444 396 392 L 396 0 Z M 310 122 L 310 279 L 226 273 C 195 270 169 260 149 243 C 128 225 118 198 118 160 C 118 127 126 103 143 87 C 160 71 180 64 204 64 C 227 64 248 69 266 80 C 284 91 299 105 310 122 Z M 220 599 L 220 599 Z M 368 599 L 287 599 L 220 705 L 152 599 L 73 599 L 179 770 L 262 770 L 368 599 Z" unicode="â" />
<glyph horiz-adv-x="447" d="M 26 0 L 26 0 Z M 396 0 L 315 0 L 315 59 C 297 37 278 21 256 10 C 234 0 205 -6 170 -6 C 127 -6 92 8 66 37 C 39 65 26 106 26 158 C 26 217 44 261 80 289 C 116 317 161 334 216 338 L 308 345 L 308 377 C 308 407 300 430 284 446 C 268 461 245 469 216 469 C 189 469 165 464 143 454 C 121 444 103 433 89 422 L 58 496 C 76 510 99 523 128 534 C 157 545 192 551 232 551 C 282 551 321 537 351 511 C 381 484 396 444 396 392 L 396 0 Z M 310 122 L 310 279 L 226 273 C 195 270 169 260 149 243 C 128 225 118 198 118 160 C 118 127 126 103 143 87 C 160 71 180 64 204 64 C 227 64 248 69 266 80 C 284 91 299 105 310 122 Z M 220 605 L 220 605 Z M 310 742 L 380 742 C 380 695 373 660 360 638 C 346 616 328 605 306 605 C 288 605 272 608 258 616 C 244 623 232 630 222 638 C 212 644 202 651 193 658 C 183 665 174 669 166 669 C 156 669 148 663 142 653 C 135 642 131 627 131 609 L 61 609 C 61 655 70 689 88 712 C 106 734 126 746 147 746 C 163 746 177 742 189 735 C 201 727 213 719 225 711 C 233 704 242 698 251 692 C 259 686 268 684 277 684 C 285 684 293 689 300 699 C 306 709 310 723 310 742 Z" unicode="ã" />
<glyph horiz-adv-x="447" d="M 26 0 L 26 0 Z M 396 0 L 315 0 L 315 59 C 297 37 278 21 256 10 C 234 0 205 -6 170 -6 C 127 -6 92 8 66 37 C 39 65 26 106 26 158 C 26 217 44 261 80 289 C 116 317 161 334 216 338 L 308 345 L 308 377 C 308 407 300 430 284 446 C 268 461 245 469 216 469 C 189 469 165 464 143 454 C 121 444 103 433 89 422 L 58 496 C 76 510 99 523 128 534 C 157 545 192 551 232 551 C 282 551 321 537 351 511 C 381 484 396 444 396 392 L 396 0 Z M 310 122 L 310 279 L 226 273 C 195 270 169 260 149 243 C 128 225 118 198 118 160 C 118 127 126 103 143 87 C 160 71 180 64 204 64 C 227 64 248 69 266 80 C 284 91 299 105 310 122 Z M 220 599 L 220 599 Z M 339 599 L 263 599 L 263 757 L 339 757 L 339 599 Z M 177 599 L 101 599 L 101 757 L 177 757 L 177 599 Z" unicode="ä" />
<glyph horiz-adv-x="447" d="M 26 0 L 26 0 Z M 396 0 L 315 0 L 315 59 C 297 37 278 21 256 10 C 234 0 205 -6 170 -6 C 127 -6 92 8 66 37 C 39 65 26 106 26 158 C 26 217 44 261 80 289 C 116 317 161 334 216 338 L 308 345 L 308 377 C 308 407 300 430 284 446 C 268 461 245 469 216 469 C 189 469 165 464 143 454 C 121 444 103 433 89 422 L 58 496 C 76 510 99 523 128 534 C 157 545 192 551 232 551 C 282 551 321 537 351 511 C 381 484 396 444 396 392 L 396 0 Z M 310 122 L 310 279 L 226 273 C 195 270 169 260 149 243 C 128 225 118 198 118 160 C 118 127 126 103 143 87 C 160 71 180 64 204 64 C 227 64 248 69 266 80 C 284 91 299 105 310 122 Z M 220 584 L 220 584 Z M 220 584 C 186 584 157 596 133 620 C 109 644 97 673 97 707 C 97 741 109 769 133 793 C 157 817 186 829 220 829 C 254 829 283 817 307 793 C 331 769 344 741 344 707 C 344 673 331 644 307 620 C 283 596 254 584 220 584 Z M 221 640 C 239 640 254 646 266 659 C 278 672 285 688 285 707 C 285 725 278 740 266 753 C 254 766 239 773 221 773 C 203 773 187 766 174 753 C 161 740 155 725 155 707 C 155 688 161 672 174 659 C 187 646 203 640 221 640 Z" unicode="å" />
<glyph horiz-adv-x="745" d="M 516 -7 C 492 -7 471 -3 453 3 C 434 9 418 18 404 28 C 390 38 378 50 369 62 C 359 74 352 86 348 98 C 336 67 314 42 284 23 C 254 3 218 -6 176 -6 C 136 -6 101 8 73 37 C 45 66 31 106 31 157 C 31 217 48 261 84 289 C 120 317 165 333 220 337 L 312 343 L 312 363 C 312 401 303 428 287 444 C 271 460 247 469 217 469 C 191 469 167 464 146 454 C 124 444 107 434 93 424 L 62 496 C 80 510 103 523 129 534 C 155 544 188 550 226 550 C 261 550 291 542 317 526 C 342 510 358 488 365 459 C 373 477 390 496 415 516 C 440 536 474 546 516 546 C 578 546 628 519 664 466 C 700 412 719 339 720 247 L 397 247 C 397 197 408 156 432 123 C 455 90 487 74 527 74 C 561 74 587 81 606 96 C 624 111 640 126 653 141 L 702 86 C 684 63 660 42 631 22 C 602 2 564 -7 516 -7 Z M 396 311 L 628 311 C 627 357 616 395 596 425 C 576 454 549 469 515 469 C 482 469 455 454 433 426 C 411 397 398 359 396 311 Z M 206 64 C 231 64 254 72 274 89 C 294 106 308 129 314 158 L 314 277 L 230 271 C 200 269 174 259 153 243 C 132 227 122 199 122 161 C 122 127 130 103 147 87 C 164 71 184 64 206 64 Z" unicode="æ" />
<glyph horiz-adv-x="433" d="M 28 0 L 28 0 Z M 360 140 L 415 87 C 400 64 379 43 353 23 C 326 3 291 -7 247 -7 C 213 -7 182 0 155 13 C 128 27 105 46 86 70 C 67 94 53 124 43 158 C 33 192 28 229 28 269 C 28 307 33 343 43 377 C 53 411 67 440 86 465 C 104 490 127 510 154 525 C 181 539 212 547 246 547 C 292 547 329 535 357 513 C 385 490 405 466 416 440 L 346 396 C 337 414 325 430 309 444 C 293 458 271 465 245 465 C 207 465 178 447 156 411 C 134 375 124 328 124 272 C 124 206 136 157 161 124 C 185 90 217 74 255 74 C 284 74 307 81 323 96 C 339 110 351 125 360 140 Z M 234 -3 L 234 -3 Z M 240 -186 C 218 -186 197 -183 176 -177 C 155 -171 138 -163 126 -153 L 146 -116 C 154 -121 164 -126 178 -132 C 191 -138 206 -141 222 -141 C 234 -141 245 -137 255 -131 C 265 -125 270 -116 270 -106 C 270 -94 265 -85 257 -80 C 248 -74 238 -72 228 -72 C 221 -72 215 -72 209 -73 C 203 -74 197 -76 192 -79 L 181 -62 L 236 10 L 284 10 L 240 -48 C 268 -45 292 -49 312 -59 C 332 -69 342 -87 342 -111 C 342 -135 332 -153 312 -166 C 292 -179 268 -186 240 -186 Z" unicode="ç" />
<glyph horiz-adv-x="468" d="M 28 0 L 28 0 Z M 241 -7 C 178 -7 127 17 87 67 C 47 117 28 184 28 268 C 28 309 33 347 44 381 C 54 415 69 445 88 469 C 106 493 128 512 154 526 C 180 540 208 547 238 547 C 303 547 353 520 389 466 C 425 412 443 338 443 245 L 120 245 C 120 197 132 157 154 124 C 176 91 209 75 251 75 C 282 75 308 82 328 96 C 348 110 364 126 377 142 L 424 86 C 407 63 384 42 354 22 C 324 2 287 -7 241 -7 Z M 118 311 L 351 311 C 350 359 339 398 319 426 C 298 454 271 469 239 469 C 205 469 177 454 155 426 C 133 397 120 359 118 311 Z M 238 598 L 238 598 Z M 337 598 L 247 598 L 138 767 L 245 767 L 337 598 Z" unicode="è" />
<glyph horiz-adv-x="468" d="M 28 0 L 28 0 Z M 241 -7 C 178 -7 127 17 87 67 C 47 117 28 184 28 268 C 28 309 33 347 44 381 C 54 415 69 445 88 469 C 106 493 128 512 154 526 C 180 540 208 547 238 547 C 303 547 353 520 389 466 C 425 412 443 338 443 245 L 120 245 C 120 197 132 157 154 124 C 176 91 209 75 251 75 C 282 75 308 82 328 96 C 348 110 364 126 377 142 L 424 86 C 407 63 384 42 354 22 C 324 2 287 -7 241 -7 Z M 118 311 L 351 311 C 350 359 339 398 319 426 C 298 454 271 469 239 469 C 205 469 177 454 155 426 C 133 397 120 359 118 311 Z M 238 601 L 238 601 Z M 139 601 L 230 770 L 337 770 L 229 601 L 139 601 Z" unicode="é" />
<glyph horiz-adv-x="468" d="M 28 0 L 28 0 Z M 241 -7 C 178 -7 127 17 87 67 C 47 117 28 184 28 268 C 28 309 33 347 44 381 C 54 415 69 445 88 469 C 106 493 128 512 154 526 C 180 540 208 547 238 547 C 303 547 353 520 389 466 C 425 412 443 338 443 245 L 120 245 C 120 197 132 157 154 124 C 176 91 209 75 251 75 C 282 75 308 82 328 96 C 348 110 364 126 377 142 L 424 86 C 407 63 384 42 354 22 C 324 2 287 -7 241 -7 Z M 118 311 L 351 311 C 350 359 339 398 319 426 C 298 454 271 469 239 469 C 205 469 177 454 155 426 C 133 397 120 359 118 311 Z M 238 599 L 238 599 Z M 386 599 L 305 599 L 238 705 L 170 599 L 91 599 L 197 770 L 280 770 L 386 599 Z" unicode="ê" />
<glyph horiz-adv-x="468" d="M 28 0 L 28 0 Z M 241 -7 C 178 -7 127 17 87 67 C 47 117 28 184 28 268 C 28 309 33 347 44 381 C 54 415 69 445 88 469 C 106 493 128 512 154 526 C 180 540 208 547 238 547 C 303 547 353 520 389 466 C 425 412 443 338 443 245 L 120 245 C 120 197 132 157 154 124 C 176 91 209 75 251 75 C 282 75 308 82 328 96 C 348 110 364 126 377 142 L 424 86 C 407 63 384 42 354 22 C 324 2 287 -7 241 -7 Z M 118 311 L 351 311 C 350 359 339 398 319 426 C 298 454 271 469 239 469 C 205 469 177 454 155 426 C 133 397 120 359 118 311 Z M 238 599 L 238 599 Z M 357 599 L 281 599 L 281 757 L 357 757 L 357 599 Z M 195 599 L 119 599 L 119 757 L 195 757 L 195 599 Z" unicode="ë" />
<glyph horiz-adv-x="209" d="M 4 0 L 4 0 Z M 151 0 L 58 0 L 58 540 L 151 540 L 151 0 Z M 104 598 L 104 598 Z M 203 598 L 113 598 L 4 767 L 111 767 L 203 598 Z" unicode="ì" />
<glyph horiz-adv-x="209" d="M 5 0 L 5 0 Z M 151 0 L 58 0 L 58 540 L 151 540 L 151 0 Z M 104 601 L 104 601 Z M 5 601 L 96 770 L 203 770 L 95 601 L 5 601 Z" unicode="í" />
<glyph horiz-adv-x="209" d="M 0 0 L 0 0 Z M 151 0 L 58 0 L 58 540 L 151 540 L 151 0 Z M 104 599 L 104 599 Z M 252 599 L 171 599 L 104 705 L 36 599 L -43 599 L 63 770 L 146 770 L 252 599 Z" unicode="î" />
<glyph horiz-adv-x="209" d="M 0 0 L 0 0 Z M 151 0 L 58 0 L 58 540 L 151 540 L 151 0 Z M 104 599 L 104 599 Z M 223 599 L 147 599 L 147 757 L 223 757 L 223 599 Z M 61 599 L -15 599 L -15 757 L 61 757 L 61 599 Z" unicode="ï" />
<glyph horiz-adv-x="490" d="M 454 302 C 454 258 449 216 440 178 C 430 140 417 107 399 79 C 381 51 359 30 333 14 C 306 -1 276 -9 242 -9 C 180 -9 129 14 89 62 C 49 109 29 174 29 258 C 29 300 34 337 45 371 C 55 405 70 433 88 457 C 106 480 127 498 151 510 C 175 522 199 529 225 529 C 257 529 284 521 307 507 C 329 492 347 472 359 448 C 354 486 347 521 337 553 C 327 585 315 613 303 638 L 198 593 L 180 651 L 272 690 C 257 712 242 730 227 744 C 212 758 199 767 189 773 L 261 802 C 270 797 282 788 296 774 C 310 760 325 742 341 720 L 408 748 L 426 691 L 372 668 C 394 626 413 575 429 514 C 445 453 454 382 454 302 Z M 241 71 C 279 71 308 87 329 120 C 349 153 360 201 360 264 C 360 328 349 375 328 407 C 307 439 278 455 240 455 C 204 455 175 438 154 404 C 133 370 123 323 123 263 C 123 199 133 151 155 119 C 177 87 205 71 241 71 Z" unicode="ð" />
<glyph horiz-adv-x="481" d="M 56 0 L 56 0 Z M 428 0 L 336 0 L 336 390 C 336 415 328 434 312 448 C 296 461 276 468 252 468 C 226 468 203 460 181 444 C 159 428 148 402 148 364 L 148 0 L 56 0 L 56 540 L 135 540 L 135 452 C 144 480 162 502 188 520 C 214 538 247 547 285 547 C 325 547 358 536 386 515 C 414 493 428 462 428 420 L 428 0 Z M 248 605 L 248 605 Z M 338 742 L 408 742 C 408 695 401 660 388 638 C 374 616 356 605 334 605 C 316 605 300 608 286 616 C 272 623 260 630 250 638 C 240 644 230 651 221 658 C 211 665 202 669 194 669 C 184 669 176 663 170 653 C 163 642 159 627 159 609 L 89 609 C 89 655 98 689 116 712 C 134 734 154 746 175 746 C 191 746 205 742 217 735 C 229 727 241 719 253 711 C 261 704 270 698 279 692 C 287 686 296 684 305 684 C 313 684 321 689 328 699 C 334 709 338 723 338 742 Z" unicode="ñ" />
<glyph horiz-adv-x="484" d="M 28 0 L 28 0 Z M 241 -7 C 211 -7 184 -1 158 11 C 132 23 109 40 90 63 C 70 86 55 115 44 150 C 33 184 28 224 28 269 C 28 311 33 349 44 383 C 54 417 69 447 88 471 C 106 495 128 513 154 527 C 180 540 208 547 238 547 C 302 547 354 523 395 477 C 435 431 456 366 456 283 C 456 195 436 125 396 72 C 356 19 304 -7 241 -7 Z M 243 74 C 279 74 307 91 328 125 C 349 159 360 209 360 275 C 360 339 349 387 328 418 C 306 449 277 465 239 465 C 204 465 176 449 155 417 C 134 385 124 336 124 271 C 124 201 135 151 158 120 C 180 89 209 74 243 74 Z M 242 598 L 242 598 Z M 341 598 L 251 598 L 142 767 L 249 767 L 341 598 Z" unicode="ò" />
<glyph horiz-adv-x="484" d="M 28 0 L 28 0 Z M 241 -7 C 211 -7 184 -1 158 11 C 132 23 109 40 90 63 C 70 86 55 115 44 150 C 33 184 28 224 28 269 C 28 311 33 349 44 383 C 54 417 69 447 88 471 C 106 495 128 513 154 527 C 180 540 208 547 238 547 C 302 547 354 523 395 477 C 435 431 456 366 456 283 C 456 195 436 125 396 72 C 356 19 304 -7 241 -7 Z M 243 74 C 279 74 307 91 328 125 C 349 159 360 209 360 275 C 360 339 349 387 328 418 C 306 449 277 465 239 465 C 204 465 176 449 155 417 C 134 385 124 336 124 271 C 124 201 135 151 158 120 C 180 89 209 74 243 74 Z M 242 601 L 242 601 Z M 143 601 L 234 770 L 341 770 L 233 601 L 143 601 Z" unicode="ó" />
<glyph horiz-adv-x="484" d="M 28 0 L 28 0 Z M 241 -7 C 211 -7 184 -1 158 11 C 132 23 109 40 90 63 C 70 86 55 115 44 150 C 33 184 28 224 28 269 C 28 311 33 349 44 383 C 54 417 69 447 88 471 C 106 495 128 513 154 527 C 180 540 208 547 238 547 C 302 547 354 523 395 477 C 435 431 456 366 456 283 C 456 195 436 125 396 72 C 356 19 304 -7 241 -7 Z M 243 74 C 279 74 307 91 328 125 C 349 159 360 209 360 275 C 360 339 349 387 328 418 C 306 449 277 465 239 465 C 204 465 176 449 155 417 C 134 385 124 336 124 271 C 124 201 135 151 158 120 C 180 89 209 74 243 74 Z M 242 599 L 242 599 Z M 390 599 L 309 599 L 242 705 L 174 599 L 95 599 L 201 770 L 284 770 L 390 599 Z" unicode="ô" />
<glyph horiz-adv-x="484" d="M 28 0 L 28 0 Z M 241 -7 C 211 -7 184 -1 158 11 C 132 23 109 40 90 63 C 70 86 55 115 44 150 C 33 184 28 224 28 269 C 28 311 33 349 44 383 C 54 417 69 447 88 471 C 106 495 128 513 154 527 C 180 540 208 547 238 547 C 302 547 354 523 395 477 C 435 431 456 366 456 283 C 456 195 436 125 396 72 C 356 19 304 -7 241 -7 Z M 243 74 C 279 74 307 91 328 125 C 349 159 360 209 360 275 C 360 339 349 387 328 418 C 306 449 277 465 239 465 C 204 465 176 449 155 417 C 134 385 124 336 124 271 C 124 201 135 151 158 120 C 180 89 209 74 243 74 Z M 242 605 L 242 605 Z M 332 742 L 402 742 C 402 695 395 660 382 638 C 368 616 350 605 328 605 C 310 605 294 608 280 616 C 266 623 254 630 244 638 C 234 644 224 651 215 658 C 205 665 196 669 188 669 C 178 669 170 663 164 653 C 157 642 153 627 153 609 L 83 609 C 83 655 92 689 110 712 C 128 734 148 746 169 746 C 185 746 199 742 211 735 C 223 727 235 719 247 711 C 255 704 264 698 273 692 C 281 686 290 684 299 684 C 307 684 315 689 322 699 C 328 709 332 723 332 742 Z" unicode="õ" />
<glyph horiz-adv-x="484" d="M 28 0 L 28 0 Z M 241 -7 C 211 -7 184 -1 158 11 C 132 23 109 40 90 63 C 70 86 55 115 44 150 C 33 184 28 224 28 269 C 28 311 33 349 44 383 C 54 417 69 447 88 471 C 106 495 128 513 154 527 C 180 540 208 547 238 547 C 302 547 354 523 395 477 C 435 431 456 366 456 283 C 456 195 436 125 396 72 C 356 19 304 -7 241 -7 Z M 243 74 C 279 74 307 91 328 125 C 349 159 360 209 360 275 C 360 339 349 387 328 418 C 306 449 277 465 239 465 C 204 465 176 449 155 417 C 134 385 124 336 124 271 C 124 201 135 151 158 120 C 180 89 209 74 243 74 Z M 242 599 L 242 599 Z M 361 599 L 285 599 L 285 757 L 361 757 L 361 599 Z M 199 599 L 123 599 L 123 757 L 199 757 L 199 599 Z" unicode="ö" />
<glyph horiz-adv-x="481" d="M 197 448 L 197 564 L 284 564 L 284 448 L 197 448 Z M 25 291 L 25 370 L 455 370 L 455 291 L 25 291 Z M 197 97 L 197 213 L 284 213 L 284 97 L 197 97 Z" unicode="÷" />
<glyph horiz-adv-x="484" d="M 241 -7 C 216 -7 192 -2 170 5 C 147 13 127 26 109 43 L 72 -8 L 27 26 L 72 88 C 58 110 47 137 39 167 C 31 197 28 231 28 269 C 28 311 33 349 44 383 C 54 417 69 447 88 471 C 106 495 128 513 154 527 C 180 540 208 547 238 547 C 264 547 288 543 310 535 C 332 527 353 515 371 501 L 410 555 L 455 522 L 409 459 C 423 437 435 411 443 381 C 451 351 456 319 456 283 C 456 195 436 125 396 72 C 356 19 304 -7 241 -7 Z M 124 271 C 124 252 125 234 127 218 C 129 202 131 187 135 175 L 320 430 C 309 442 297 450 284 456 C 270 462 255 465 239 465 C 204 465 176 449 155 417 C 134 385 124 336 124 271 Z M 360 275 C 360 294 359 312 357 329 C 355 345 352 360 348 374 L 161 115 C 171 101 183 90 197 84 C 211 77 226 74 243 74 C 279 74 307 91 328 125 C 349 159 360 209 360 275 Z" unicode="ø" />
<glyph horiz-adv-x="481" d="M 53 0 L 53 0 Z M 53 540 L 145 540 L 145 168 C 145 134 153 109 170 93 C 187 77 209 70 237 70 C 262 70 284 79 304 97 C 323 115 333 144 333 182 L 333 540 L 425 540 L 425 0 L 343 0 L 343 88 C 335 63 318 41 293 21 C 267 1 236 -8 198 -8 C 159 -8 125 4 96 29 C 67 53 53 90 53 138 L 53 540 Z M 239 598 L 239 598 Z M 338 598 L 248 598 L 139 767 L 246 767 L 338 598 Z" unicode="ù" />
<glyph horiz-adv-x="481" d="M 53 0 L 53 0 Z M 53 540 L 145 540 L 145 168 C 145 134 153 109 170 93 C 187 77 209 70 237 70 C 262 70 284 79 304 97 C 323 115 333 144 333 182 L 333 540 L 425 540 L 425 0 L 343 0 L 343 88 C 335 63 318 41 293 21 C 267 1 236 -8 198 -8 C 159 -8 125 4 96 29 C 67 53 53 90 53 138 L 53 540 Z M 239 601 L 239 601 Z M 140 601 L 231 770 L 338 770 L 230 601 L 140 601 Z" unicode="ú" />
<glyph horiz-adv-x="481" d="M 53 0 L 53 0 Z M 53 540 L 145 540 L 145 168 C 145 134 153 109 170 93 C 187 77 209 70 237 70 C 262 70 284 79 304 97 C 323 115 333 144 333 182 L 333 540 L 425 540 L 425 0 L 343 0 L 343 88 C 335 63 318 41 293 21 C 267 1 236 -8 198 -8 C 159 -8 125 4 96 29 C 67 53 53 90 53 138 L 53 540 Z M 239 599 L 239 599 Z M 387 599 L 306 599 L 239 705 L 171 599 L 92 599 L 198 770 L 281 770 L 387 599 Z" unicode="û" />
<glyph horiz-adv-x="481" d="M 53 0 L 53 0 Z M 53 540 L 145 540 L 145 168 C 145 134 153 109 170 93 C 187 77 209 70 237 70 C 262 70 284 79 304 97 C 323 115 333 144 333 182 L 333 540 L 425 540 L 425 0 L 343 0 L 343 88 C 335 63 318 41 293 21 C 267 1 236 -8 198 -8 C 159 -8 125 4 96 29 C 67 53 53 90 53 138 L 53 540 Z M 239 599 L 239 599 Z M 358 599 L 282 599 L 282 757 L 358 757 L 358 599 Z M 196 599 L 120 599 L 120 757 L 196 757 L 196 599 Z" unicode="ü" />
<glyph horiz-adv-x="409" d="M 0 0 L 0 0 Z M 413 540 L 206 -89 C 193 -127 174 -155 149 -173 C 123 -191 97 -200 69 -200 C 45 -200 25 -197 10 -192 C -4 -187 -14 -182 -20 -178 L 15 -106 C 18 -108 24 -111 34 -114 C 44 -117 53 -119 63 -119 C 77 -119 91 -113 103 -103 C 115 -92 125 -75 133 -53 L 161 40 L -4 540 L 91 540 L 208 162 L 324 540 L 413 540 Z M 208 601 L 208 601 Z M 109 601 L 200 770 L 307 770 L 199 601 L 109 601 Z" unicode="ý" />
<glyph horiz-adv-x="492" d="M 56 -198 L 56 800 L 144 800 L 144 437 C 151 467 167 492 192 514 C 217 536 249 547 289 547 C 317 547 342 540 364 528 C 386 515 404 497 419 474 C 433 451 444 423 452 391 C 460 359 464 323 464 285 C 464 194 447 123 413 72 C 379 20 336 -5 282 -5 C 247 -5 218 3 194 21 C 170 39 153 61 145 87 L 145 -198 L 56 -198 Z M 252 71 C 286 71 313 87 335 121 C 357 154 368 203 368 269 C 368 329 358 376 340 411 C 321 446 293 464 255 464 C 223 464 196 449 174 420 C 152 391 141 338 141 261 C 141 187 151 137 173 111 C 194 84 220 71 252 71 Z" unicode="þ" />
<glyph horiz-adv-x="409" d="M 0 0 L 0 0 Z M 413 540 L 206 -89 C 193 -127 174 -155 149 -173 C 123 -191 97 -200 69 -200 C 45 -200 25 -197 10 -192 C -4 -187 -14 -182 -20 -178 L 15 -106 C 18 -108 24 -111 34 -114 C 44 -117 53 -119 63 -119 C 77 -119 91 -113 103 -103 C 115 -92 125 -75 133 -53 L 161 40 L -4 540 L 91 540 L 208 162 L 324 540 L 413 540 Z M 208 599 L 208 599 Z M 327 599 L 251 599 L 251 757 L 327 757 L 327 599 Z M 165 599 L 89 599 L 89 757 L 165 757 L 165 599 Z" unicode="ÿ" />
<glyph horiz-adv-x="538" d="M 1 0 L 1 0 Z M 537 0 L 438 0 L 380 183 L 151 183 L 96 0 L 1 0 L 236 734 L 304 734 L 537 0 Z M 364 256 L 265 575 L 168 256 L 364 256 Z M 267 803 L 267 803 Z M 392 803 L 142 803 L 142 881 L 392 881 L 392 803 Z" unicode="Ā" />
<glyph horiz-adv-x="447" d="M 26 0 L 26 0 Z M 396 0 L 315 0 L 315 59 C 297 37 278 21 256 10 C 234 0 205 -6 170 -6 C 127 -6 92 8 66 37 C 39 65 26 106 26 158 C 26 217 44 261 80 289 C 116 317 161 334 216 338 L 308 345 L 308 377 C 308 407 300 430 284 446 C 268 461 245 469 216 469 C 189 469 165 464 143 454 C 121 444 103 433 89 422 L 58 496 C 76 510 99 523 128 534 C 157 545 192 551 232 551 C 282 551 321 537 351 511 C 381 484 396 444 396 392 L 396 0 Z M 310 122 L 310 279 L 226 273 C 195 270 169 260 149 243 C 128 225 118 198 118 160 C 118 127 126 103 143 87 C 160 71 180 64 204 64 C 227 64 248 69 266 80 C 284 91 299 105 310 122 Z M 220 613 L 220 613 Z M 345 613 L 95 613 L 95 691 L 345 691 L 345 613 Z" unicode="ā" />
<glyph horiz-adv-x="538" d="M 1 0 L 1 0 Z M 537 0 L 438 0 L 380 183 L 151 183 L 96 0 L 1 0 L 236 734 L 304 734 L 537 0 Z M 364 256 L 265 575 L 168 256 L 364 256 Z M 267 793 L 267 793 Z M 331 951 L 408 951 C 404 896 389 856 363 831 C 337 805 305 793 267 793 C 228 793 196 805 170 831 C 144 856 130 896 127 951 L 203 951 C 205 925 210 903 220 887 C 229 871 245 863 267 863 C 289 863 304 870 314 886 C 324 902 329 923 331 951 Z" unicode="Ă" />
<glyph horiz-adv-x="447" d="M 26 0 L 26 0 Z M 396 0 L 315 0 L 315 59 C 297 37 278 21 256 10 C 234 0 205 -6 170 -6 C 127 -6 92 8 66 37 C 39 65 26 106 26 158 C 26 217 44 261 80 289 C 116 317 161 334 216 338 L 308 345 L 308 377 C 308 407 300 430 284 446 C 268 461 245 469 216 469 C 189 469 165 464 143 454 C 121 444 103 433 89 422 L 58 496 C 76 510 99 523 128 534 C 157 545 192 551 232 551 C 282 551 321 537 351 511 C 381 484 396 444 396 392 L 396 0 Z M 310 122 L 310 279 L 226 273 C 195 270 169 260 149 243 C 128 225 118 198 118 160 C 118 127 126 103 143 87 C 160 71 180 64 204 64 C 227 64 248 69 266 80 C 284 91 299 105 310 122 Z M 220 603 L 220 603 Z M 284 761 L 361 761 C 357 706 342 666 316 641 C 290 615 258 603 220 603 C 181 603 149 615 123 641 C 97 666 83 706 80 761 L 156 761 C 158 735 163 713 173 697 C 182 681 198 673 220 673 C 242 673 257 680 267 696 C 277 712 282 733 284 761 Z" unicode="ă" />
<glyph horiz-adv-x="538" d="M 1 0 L 1 0 Z M 537 0 L 438 0 L 380 183 L 151 183 L 96 0 L 1 0 L 236 734 L 304 734 L 537 0 Z M 364 256 L 265 575 L 168 256 L 364 256 Z M 448 -8 L 448 -8 Z M 546 -96 L 573 -134 C 553 -154 531 -170 507 -181 C 483 -192 456 -198 428 -198 C 395 -198 370 -190 352 -176 C 334 -161 325 -142 325 -120 C 325 -96 335 -73 355 -52 C 375 -30 406 -12 446 3 L 490 3 C 461 -11 439 -25 425 -39 C 411 -53 404 -68 404 -83 C 404 -97 409 -108 419 -116 C 429 -124 442 -129 458 -129 C 476 -129 493 -125 508 -119 C 522 -113 535 -105 546 -96 Z" unicode="Ą" />
<glyph horiz-adv-x="447" d="M 26 0 L 26 0 Z M 396 0 L 315 0 L 315 59 C 297 37 278 21 256 10 C 234 0 205 -6 170 -6 C 127 -6 92 8 66 37 C 39 65 26 106 26 158 C 26 217 44 261 80 289 C 116 317 161 334 216 338 L 308 345 L 308 377 C 308 407 300 430 284 446 C 268 461 245 469 216 469 C 189 469 165 464 143 454 C 121 444 103 433 89 422 L 58 496 C 76 510 99 523 128 534 C 157 545 192 551 232 551 C 282 551 321 537 351 511 C 381 484 396 444 396 392 L 396 0 Z M 310 122 L 310 279 L 226 273 C 195 270 169 260 149 243 C 128 225 118 198 118 160 C 118 127 126 103 143 87 C 160 71 180 64 204 64 C 227 64 248 69 266 80 C 284 91 299 105 310 122 Z M 325 -8 L 325 -8 Z M 423 -96 L 450 -134 C 430 -154 408 -170 384 -181 C 360 -192 333 -198 305 -198 C 272 -198 247 -190 229 -176 C 211 -161 202 -142 202 -120 C 202 -96 212 -73 232 -52 C 252 -30 283 -12 323 3 L 367 3 C 338 -11 316 -25 302 -39 C 288 -53 281 -68 281 -83 C 281 -97 286 -108 296 -116 C 306 -124 319 -129 335 -129 C 353 -129 370 -125 385 -119 C 399 -113 412 -105 423 -96 Z" unicode="ą" />
<glyph horiz-adv-x="602" d="M 38 0 L 38 0 Z M 324 -9 C 284 -9 246 0 211 15 C 175 31 145 55 120 87 C 94 118 74 157 60 204 C 45 251 38 305 38 366 C 38 423 44 475 58 521 C 71 567 90 607 115 639 C 139 671 169 695 205 713 C 241 730 281 739 325 739 C 387 739 436 725 473 697 C 510 669 538 633 557 589 L 473 548 C 458 577 439 601 417 621 C 394 641 363 651 325 651 C 267 651 221 627 188 581 C 154 535 138 462 138 364 C 138 312 143 268 154 232 C 165 196 180 166 198 144 C 216 121 236 104 259 94 C 282 83 306 78 331 78 C 373 78 406 89 431 111 C 456 133 476 161 491 195 L 571 152 C 550 104 519 65 477 35 C 435 5 384 -9 324 -9 Z M 327 791 L 327 791 Z M 228 791 L 319 960 L 426 960 L 318 791 L 228 791 Z" unicode="Ć" />
<glyph horiz-adv-x="433" d="M 28 0 L 28 0 Z M 360 140 L 415 87 C 400 64 379 43 353 23 C 326 3 291 -7 247 -7 C 213 -7 182 0 155 13 C 128 27 105 46 86 70 C 67 94 53 124 43 158 C 33 192 28 229 28 269 C 28 307 33 343 43 377 C 53 411 67 440 86 465 C 104 490 127 510 154 525 C 181 539 212 547 246 547 C 292 547 329 535 357 513 C 385 490 405 466 416 440 L 346 396 C 337 414 325 430 309 444 C 293 458 271 465 245 465 C 207 465 178 447 156 411 C 134 375 124 328 124 272 C 124 206 136 157 161 124 C 185 90 217 74 255 74 C 284 74 307 81 323 96 C 339 110 351 125 360 140 Z M 244 601 L 244 601 Z M 145 601 L 236 770 L 343 770 L 235 601 L 145 601 Z" unicode="ć" />
<glyph horiz-adv-x="602" d="M 38 0 L 38 0 Z M 324 -9 C 284 -9 246 0 211 15 C 175 31 145 55 120 87 C 94 118 74 157 60 204 C 45 251 38 305 38 366 C 38 423 44 475 58 521 C 71 567 90 607 115 639 C 139 671 169 695 205 713 C 241 730 281 739 325 739 C 387 739 436 725 473 697 C 510 669 538 633 557 589 L 473 548 C 458 577 439 601 417 621 C 394 641 363 651 325 651 C 267 651 221 627 188 581 C 154 535 138 462 138 364 C 138 312 143 268 154 232 C 165 196 180 166 198 144 C 216 121 236 104 259 94 C 282 83 306 78 331 78 C 373 78 406 89 431 111 C 456 133 476 161 491 195 L 571 152 C 550 104 519 65 477 35 C 435 5 384 -9 324 -9 Z M 327 789 L 327 789 Z M 475 789 L 394 789 L 327 895 L 259 789 L 180 789 L 286 960 L 369 960 L 475 789 Z" unicode="Ĉ" />
<glyph horiz-adv-x="433" d="M 28 0 L 28 0 Z M 360 140 L 415 87 C 400 64 379 43 353 23 C 326 3 291 -7 247 -7 C 213 -7 182 0 155 13 C 128 27 105 46 86 70 C 67 94 53 124 43 158 C 33 192 28 229 28 269 C 28 307 33 343 43 377 C 53 411 67 440 86 465 C 104 490 127 510 154 525 C 181 539 212 547 246 547 C 292 547 329 535 357 513 C 385 490 405 466 416 440 L 346 396 C 337 414 325 430 309 444 C 293 458 271 465 245 465 C 207 465 178 447 156 411 C 134 375 124 328 124 272 C 124 206 136 157 161 124 C 185 90 217 74 255 74 C 284 74 307 81 323 96 C 339 110 351 125 360 140 Z M 244 599 L 244 599 Z M 392 599 L 311 599 L 244 705 L 176 599 L 97 599 L 203 770 L 286 770 L 392 599 Z" unicode="ĉ" />
<glyph horiz-adv-x="602" d="M 38 0 L 38 0 Z M 324 -9 C 284 -9 246 0 211 15 C 175 31 145 55 120 87 C 94 118 74 157 60 204 C 45 251 38 305 38 366 C 38 423 44 475 58 521 C 71 567 90 607 115 639 C 139 671 169 695 205 713 C 241 730 281 739 325 739 C 387 739 436 725 473 697 C 510 669 538 633 557 589 L 473 548 C 458 577 439 601 417 621 C 394 641 363 651 325 651 C 267 651 221 627 188 581 C 154 535 138 462 138 364 C 138 312 143 268 154 232 C 165 196 180 166 198 144 C 216 121 236 104 259 94 C 282 83 306 78 331 78 C 373 78 406 89 431 111 C 456 133 476 161 491 195 L 571 152 C 550 104 519 65 477 35 C 435 5 384 -9 324 -9 Z M 327 792 L 327 792 Z M 370 792 L 285 792 L 285 925 L 370 925 L 370 792 Z" unicode="Ċ" />
<glyph horiz-adv-x="433" d="M 28 0 L 28 0 Z M 360 140 L 415 87 C 400 64 379 43 353 23 C 326 3 291 -7 247 -7 C 213 -7 182 0 155 13 C 128 27 105 46 86 70 C 67 94 53 124 43 158 C 33 192 28 229 28 269 C 28 307 33 343 43 377 C 53 411 67 440 86 465 C 104 490 127 510 154 525 C 181 539 212 547 246 547 C 292 547 329 535 357 513 C 385 490 405 466 416 440 L 346 396 C 337 414 325 430 309 444 C 293 458 271 465 245 465 C 207 465 178 447 156 411 C 134 375 124 328 124 272 C 124 206 136 157 161 124 C 185 90 217 74 255 74 C 284 74 307 81 323 96 C 339 110 351 125 360 140 Z M 244 602 L 244 602 Z M 287 602 L 202 602 L 202 735 L 287 735 L 287 602 Z" unicode="ċ" />
<glyph horiz-adv-x="602" d="M 38 0 L 38 0 Z M 324 -9 C 284 -9 246 0 211 15 C 175 31 145 55 120 87 C 94 118 74 157 60 204 C 45 251 38 305 38 366 C 38 423 44 475 58 521 C 71 567 90 607 115 639 C 139 671 169 695 205 713 C 241 730 281 739 325 739 C 387 739 436 725 473 697 C 510 669 538 633 557 589 L 473 548 C 458 577 439 601 417 621 C 394 641 363 651 325 651 C 267 651 221 627 188 581 C 154 535 138 462 138 364 C 138 312 143 268 154 232 C 165 196 180 166 198 144 C 216 121 236 104 259 94 C 282 83 306 78 331 78 C 373 78 406 89 431 111 C 456 133 476 161 491 195 L 571 152 C 550 104 519 65 477 35 C 435 5 384 -9 324 -9 Z M 327 789 L 327 789 Z M 180 960 L 261 960 L 328 853 L 396 960 L 475 960 L 369 789 L 286 789 L 180 960 Z" unicode="Č" />
<glyph horiz-adv-x="433" d="M 28 0 L 28 0 Z M 360 140 L 415 87 C 400 64 379 43 353 23 C 326 3 291 -7 247 -7 C 213 -7 182 0 155 13 C 128 27 105 46 86 70 C 67 94 53 124 43 158 C 33 192 28 229 28 269 C 28 307 33 343 43 377 C 53 411 67 440 86 465 C 104 490 127 510 154 525 C 181 539 212 547 246 547 C 292 547 329 535 357 513 C 385 490 405 466 416 440 L 346 396 C 337 414 325 430 309 444 C 293 458 271 465 245 465 C 207 465 178 447 156 411 C 134 375 124 328 124 272 C 124 206 136 157 161 124 C 185 90 217 74 255 74 C 284 74 307 81 323 96 C 339 110 351 125 360 140 Z M 244 599 L 244 599 Z M 97 770 L 178 770 L 245 663 L 313 770 L 392 770 L 286 599 L 203 599 L 97 770 Z" unicode="č" />
<glyph horiz-adv-x="610" d="M 71 0 L 71 0 Z M 71 0 L 71 730 L 253 730 C 303 730 348 721 388 704 C 428 686 461 662 488 631 C 515 599 536 561 550 517 C 564 472 571 423 571 369 C 571 317 564 268 550 223 C 536 178 516 139 489 106 C 461 73 427 47 386 28 C 345 9 297 0 243 0 L 71 0 Z M 171 83 L 243 83 C 283 83 317 90 346 104 C 374 118 398 137 416 162 C 434 187 447 217 456 252 C 464 287 469 326 469 368 C 469 459 450 528 412 576 C 374 624 321 648 254 648 L 171 648 L 171 83 Z M 289 789 L 289 789 Z M 142 960 L 223 960 L 290 853 L 358 960 L 437 960 L 331 789 L 248 789 L 142 960 Z" unicode="Ď" />
<glyph horiz-adv-x="501" d="M 29 0 L 29 0 Z M 217 -7 C 189 -7 163 0 140 13 C 116 26 96 45 80 69 C 64 93 51 122 42 156 C 33 190 29 227 29 267 C 29 308 33 346 43 381 C 53 415 66 445 83 469 C 99 493 119 512 143 526 C 166 539 191 546 219 546 C 253 546 282 534 307 512 C 331 490 348 463 357 433 L 357 800 L 445 800 L 445 0 L 363 0 L 363 97 C 359 85 353 73 345 61 C 337 49 326 38 314 28 C 302 18 287 9 271 3 C 255 -3 237 -7 217 -7 Z M 241 71 C 277 71 305 88 327 123 C 348 157 359 208 359 274 C 359 342 347 390 324 420 C 300 449 273 464 242 464 C 206 464 177 447 156 415 C 134 383 124 334 124 270 C 124 206 134 156 155 122 C 176 88 205 71 241 71 Z M 574 615 L 570 473 L 492 473 L 487 615 L 487 730 L 574 730 L 574 615 Z" unicode="ď" />
<glyph horiz-adv-x="610" d="M 24 0 L 24 0 Z M 571 364 C 571 313 564 265 550 221 C 536 177 516 138 489 106 C 461 73 427 47 386 28 C 345 9 297 0 243 0 L 71 0 L 71 320 L 24 320 L 24 397 L 71 397 L 71 730 L 253 730 C 303 730 348 721 388 704 C 428 686 461 662 488 630 C 515 598 536 560 550 515 C 564 469 571 419 571 364 Z M 169 77 L 241 77 C 282 77 317 84 347 98 C 376 112 400 132 418 158 C 436 183 449 213 457 248 C 465 283 470 321 470 362 C 470 458 450 530 412 579 C 374 628 321 653 254 653 L 169 653 L 169 397 L 311 397 L 311 320 L 169 320 L 169 77 Z" unicode="Đ" />
<glyph horiz-adv-x="501" d="M 363 97 C 359 85 353 73 345 61 C 337 49 326 38 314 28 C 302 18 287 9 271 3 C 255 -3 237 -7 217 -7 C 189 -7 163 0 140 13 C 116 26 96 45 80 69 C 64 93 51 122 42 156 C 33 190 29 227 29 267 C 29 308 33 346 43 381 C 53 415 66 445 83 469 C 99 493 119 512 143 526 C 166 539 191 546 219 546 C 253 546 282 534 307 512 C 331 490 348 463 357 433 L 357 623 L 244 623 L 244 703 L 357 703 L 357 800 L 445 800 L 445 703 L 498 703 L 498 623 L 445 623 L 445 0 L 363 0 L 363 97 Z M 241 71 C 277 71 305 88 327 123 C 348 157 359 208 359 274 C 359 342 347 390 324 420 C 300 449 273 464 242 464 C 206 464 177 447 156 415 C 134 383 124 334 124 270 C 124 206 134 156 155 122 C 176 88 205 71 241 71 Z" unicode="đ" />
<glyph horiz-adv-x="459" d="M 71 0 L 71 0 Z M 432 0 L 71 0 L 71 730 L 414 730 L 414 643 L 169 643 L 169 407 L 403 407 L 403 323 L 169 323 L 169 87 L 432 87 L 432 0 Z M 246 803 L 246 803 Z M 371 803 L 121 803 L 121 881 L 371 881 L 371 803 Z" unicode="Ē" />
<glyph horiz-adv-x="468" d="M 28 0 L 28 0 Z M 241 -7 C 178 -7 127 17 87 67 C 47 117 28 184 28 268 C 28 309 33 347 44 381 C 54 415 69 445 88 469 C 106 493 128 512 154 526 C 180 540 208 547 238 547 C 303 547 353 520 389 466 C 425 412 443 338 443 245 L 120 245 C 120 197 132 157 154 124 C 176 91 209 75 251 75 C 282 75 308 82 328 96 C 348 110 364 126 377 142 L 424 86 C 407 63 384 42 354 22 C 324 2 287 -7 241 -7 Z M 118 311 L 351 311 C 350 359 339 398 319 426 C 298 454 271 469 239 469 C 205 469 177 454 155 426 C 133 397 120 359 118 311 Z M 238 613 L 238 613 Z M 363 613 L 113 613 L 113 691 L 363 691 L 363 613 Z" unicode="ē" />
<glyph horiz-adv-x="459" d="M 71 0 L 71 0 Z M 432 0 L 71 0 L 71 730 L 414 730 L 414 643 L 169 643 L 169 407 L 403 407 L 403 323 L 169 323 L 169 87 L 432 87 L 432 0 Z M 246 793 L 246 793 Z M 310 951 L 387 951 C 383 896 368 856 342 831 C 316 805 284 793 246 793 C 207 793 175 805 149 831 C 123 856 109 896 106 951 L 182 951 C 184 925 189 903 199 887 C 208 871 224 863 246 863 C 268 863 283 870 293 886 C 303 902 308 923 310 951 Z" unicode="Ĕ" />
<glyph horiz-adv-x="468" d="M 28 0 L 28 0 Z M 241 -7 C 178 -7 127 17 87 67 C 47 117 28 184 28 268 C 28 309 33 347 44 381 C 54 415 69 445 88 469 C 106 493 128 512 154 526 C 180 540 208 547 238 547 C 303 547 353 520 389 466 C 425 412 443 338 443 245 L 120 245 C 120 197 132 157 154 124 C 176 91 209 75 251 75 C 282 75 308 82 328 96 C 348 110 364 126 377 142 L 424 86 C 407 63 384 42 354 22 C 324 2 287 -7 241 -7 Z M 118 311 L 351 311 C 350 359 339 398 319 426 C 298 454 271 469 239 469 C 205 469 177 454 155 426 C 133 397 120 359 118 311 Z M 238 603 L 238 603 Z M 302 761 L 379 761 C 375 706 360 666 334 641 C 308 615 276 603 238 603 C 199 603 167 615 141 641 C 115 666 101 706 98 761 L 174 761 C 176 735 181 713 191 697 C 200 681 216 673 238 673 C 260 673 275 680 285 696 C 295 712 300 733 302 761 Z" unicode="ĕ" />
<glyph horiz-adv-x="459" d="M 71 0 L 71 0 Z M 432 0 L 71 0 L 71 730 L 414 730 L 414 643 L 169 643 L 169 407 L 403 407 L 403 323 L 169 323 L 169 87 L 432 87 L 432 0 Z M 246 792 L 246 792 Z M 289 792 L 204 792 L 204 925 L 289 925 L 289 792 Z" unicode="Ė" />
<glyph horiz-adv-x="468" d="M 28 0 L 28 0 Z M 241 -7 C 178 -7 127 17 87 67 C 47 117 28 184 28 268 C 28 309 33 347 44 381 C 54 415 69 445 88 469 C 106 493 128 512 154 526 C 180 540 208 547 238 547 C 303 547 353 520 389 466 C 425 412 443 338 443 245 L 120 245 C 120 197 132 157 154 124 C 176 91 209 75 251 75 C 282 75 308 82 328 96 C 348 110 364 126 377 142 L 424 86 C 407 63 384 42 354 22 C 324 2 287 -7 241 -7 Z M 118 311 L 351 311 C 350 359 339 398 319 426 C 298 454 271 469 239 469 C 205 469 177 454 155 426 C 133 397 120 359 118 311 Z M 238 602 L 238 602 Z M 281 602 L 196 602 L 196 735 L 281 735 L 281 602 Z" unicode="ė" />
<glyph horiz-adv-x="459" d="M 71 0 L 71 0 Z M 432 0 L 71 0 L 71 730 L 414 730 L 414 643 L 169 643 L 169 407 L 403 407 L 403 323 L 169 323 L 169 87 L 432 87 L 432 0 Z M 389 -8 L 389 -8 Z M 487 -96 L 514 -134 C 494 -154 472 -170 448 -181 C 424 -192 397 -198 369 -198 C 336 -198 311 -190 293 -176 C 275 -161 266 -142 266 -120 C 266 -96 276 -73 296 -52 C 316 -30 347 -12 387 3 L 431 3 C 402 -11 380 -25 366 -39 C 352 -53 345 -68 345 -83 C 345 -97 350 -108 360 -116 C 370 -124 383 -129 399 -129 C 417 -129 434 -125 449 -119 C 463 -113 476 -105 487 -96 Z" unicode="Ę" />
<glyph horiz-adv-x="468" d="M 28 0 L 28 0 Z M 241 -7 C 178 -7 127 17 87 67 C 47 117 28 184 28 268 C 28 309 33 347 44 381 C 54 415 69 445 88 469 C 106 493 128 512 154 526 C 180 540 208 547 238 547 C 303 547 353 520 389 466 C 425 412 443 338 443 245 L 120 245 C 120 197 132 157 154 124 C 176 91 209 75 251 75 C 282 75 308 82 328 96 C 348 110 364 126 377 142 L 424 86 C 407 63 384 42 354 22 C 324 2 287 -7 241 -7 Z M 118 311 L 351 311 C 350 359 339 398 319 426 C 298 454 271 469 239 469 C 205 469 177 454 155 426 C 133 397 120 359 118 311 Z M 267 -8 L 267 -8 Z M 365 -96 L 392 -134 C 372 -154 350 -170 326 -181 C 302 -192 275 -198 247 -198 C 214 -198 189 -190 171 -176 C 153 -161 144 -142 144 -120 C 144 -96 154 -73 174 -52 C 194 -30 225 -12 265 3 L 309 3 C 280 -11 258 -25 244 -39 C 230 -53 223 -68 223 -83 C 223 -97 228 -108 238 -116 C 248 -124 261 -129 277 -129 C 295 -129 312 -125 327 -119 C 341 -113 354 -105 365 -96 Z" unicode="ę" />
<glyph horiz-adv-x="459" d="M 71 0 L 71 0 Z M 432 0 L 71 0 L 71 730 L 414 730 L 414 643 L 169 643 L 169 407 L 403 407 L 403 323 L 169 323 L 169 87 L 432 87 L 432 0 Z M 246 789 L 246 789 Z M 99 960 L 180 960 L 247 853 L 315 960 L 394 960 L 288 789 L 205 789 L 99 960 Z" unicode="Ě" />
<glyph horiz-adv-x="468" d="M 28 0 L 28 0 Z M 241 -7 C 178 -7 127 17 87 67 C 47 117 28 184 28 268 C 28 309 33 347 44 381 C 54 415 69 445 88 469 C 106 493 128 512 154 526 C 180 540 208 547 238 547 C 303 547 353 520 389 466 C 425 412 443 338 443 245 L 120 245 C 120 197 132 157 154 124 C 176 91 209 75 251 75 C 282 75 308 82 328 96 C 348 110 364 126 377 142 L 424 86 C 407 63 384 42 354 22 C 324 2 287 -7 241 -7 Z M 118 311 L 351 311 C 350 359 339 398 319 426 C 298 454 271 469 239 469 C 205 469 177 454 155 426 C 133 397 120 359 118 311 Z M 238 599 L 238 599 Z M 91 770 L 172 770 L 239 663 L 307 770 L 386 770 L 280 599 L 197 599 L 91 770 Z" unicode="ě" />
<glyph horiz-adv-x="626" d="M 38 0 L 38 0 Z M 327 364 L 584 364 L 584 129 C 562 87 529 54 485 29 C 441 3 389 -9 329 -9 C 289 -9 251 0 215 16 C 179 33 149 58 123 90 C 97 122 76 161 61 208 C 45 254 38 307 38 365 C 38 421 45 473 60 519 C 74 565 94 605 120 637 C 146 669 177 693 213 711 C 249 729 288 738 330 738 C 392 738 440 725 476 701 C 512 676 539 647 557 615 L 482 556 C 467 581 448 603 425 621 C 401 639 371 649 333 649 C 276 649 229 625 193 578 C 156 531 138 459 138 363 C 138 315 143 272 153 236 C 163 199 176 169 194 145 C 211 121 231 102 255 90 C 279 78 304 72 331 72 C 369 72 402 78 430 92 C 458 106 480 127 494 156 L 494 280 L 327 280 L 327 364 Z M 331 789 L 331 789 Z M 479 789 L 398 789 L 331 895 L 263 789 L 184 789 L 290 960 L 373 960 L 479 789 Z" unicode="Ĝ" />
<glyph horiz-adv-x="498" d="M 30 0 L 30 0 Z M 215 10 C 161 10 116 34 82 82 C 47 130 30 195 30 275 C 30 359 47 425 83 474 C 118 522 163 547 217 547 C 253 547 283 536 309 515 C 334 494 351 469 361 441 L 361 540 L 444 540 L 444 32 C 444 -8 437 -42 424 -71 C 410 -100 393 -124 372 -143 C 350 -162 326 -176 299 -185 C 271 -194 244 -199 217 -199 C 175 -199 142 -195 117 -187 C 92 -179 73 -172 61 -164 L 95 -89 C 107 -95 123 -101 142 -107 C 160 -113 183 -116 211 -116 C 251 -116 286 -102 314 -76 C 342 -50 356 -12 356 38 L 356 125 C 352 111 345 97 337 83 C 329 69 319 57 307 46 C 295 35 282 26 266 20 C 250 13 233 10 215 10 Z M 243 87 C 274 87 301 102 324 132 C 346 162 358 212 358 281 C 358 344 346 390 323 419 C 299 448 272 463 242 463 C 206 463 178 446 157 414 C 135 382 125 335 125 275 C 125 214 135 167 155 135 C 175 103 205 87 243 87 Z M 239 599 L 239 599 Z M 387 599 L 306 599 L 239 705 L 171 599 L 92 599 L 198 770 L 281 770 L 387 599 Z" unicode="ĝ" />
<glyph horiz-adv-x="626" d="M 38 0 L 38 0 Z M 327 364 L 584 364 L 584 129 C 562 87 529 54 485 29 C 441 3 389 -9 329 -9 C 289 -9 251 0 215 16 C 179 33 149 58 123 90 C 97 122 76 161 61 208 C 45 254 38 307 38 365 C 38 421 45 473 60 519 C 74 565 94 605 120 637 C 146 669 177 693 213 711 C 249 729 288 738 330 738 C 392 738 440 725 476 701 C 512 676 539 647 557 615 L 482 556 C 467 581 448 603 425 621 C 401 639 371 649 333 649 C 276 649 229 625 193 578 C 156 531 138 459 138 363 C 138 315 143 272 153 236 C 163 199 176 169 194 145 C 211 121 231 102 255 90 C 279 78 304 72 331 72 C 369 72 402 78 430 92 C 458 106 480 127 494 156 L 494 280 L 327 280 L 327 364 Z M 331 793 L 331 793 Z M 395 951 L 472 951 C 468 896 453 856 427 831 C 401 805 369 793 331 793 C 292 793 260 805 234 831 C 208 856 194 896 191 951 L 267 951 C 269 925 274 903 284 887 C 293 871 309 863 331 863 C 353 863 368 870 378 886 C 388 902 393 923 395 951 Z" unicode="Ğ" />
<glyph horiz-adv-x="498" d="M 30 0 L 30 0 Z M 215 10 C 161 10 116 34 82 82 C 47 130 30 195 30 275 C 30 359 47 425 83 474 C 118 522 163 547 217 547 C 253 547 283 536 309 515 C 334 494 351 469 361 441 L 361 540 L 444 540 L 444 32 C 444 -8 437 -42 424 -71 C 410 -100 393 -124 372 -143 C 350 -162 326 -176 299 -185 C 271 -194 244 -199 217 -199 C 175 -199 142 -195 117 -187 C 92 -179 73 -172 61 -164 L 95 -89 C 107 -95 123 -101 142 -107 C 160 -113 183 -116 211 -116 C 251 -116 286 -102 314 -76 C 342 -50 356 -12 356 38 L 356 125 C 352 111 345 97 337 83 C 329 69 319 57 307 46 C 295 35 282 26 266 20 C 250 13 233 10 215 10 Z M 243 87 C 274 87 301 102 324 132 C 346 162 358 212 358 281 C 358 344 346 390 323 419 C 299 448 272 463 242 463 C 206 463 178 446 157 414 C 135 382 125 335 125 275 C 125 214 135 167 155 135 C 175 103 205 87 243 87 Z M 239 603 L 239 603 Z M 303 761 L 380 761 C 376 706 361 666 335 641 C 309 615 277 603 239 603 C 200 603 168 615 142 641 C 116 666 102 706 99 761 L 175 761 C 177 735 182 713 192 697 C 201 681 217 673 239 673 C 261 673 276 680 286 696 C 296 712 301 733 303 761 Z" unicode="ğ" />
<glyph horiz-adv-x="626" d="M 38 0 L 38 0 Z M 327 364 L 584 364 L 584 129 C 562 87 529 54 485 29 C 441 3 389 -9 329 -9 C 289 -9 251 0 215 16 C 179 33 149 58 123 90 C 97 122 76 161 61 208 C 45 254 38 307 38 365 C 38 421 45 473 60 519 C 74 565 94 605 120 637 C 146 669 177 693 213 711 C 249 729 288 738 330 738 C 392 738 440 725 476 701 C 512 676 539 647 557 615 L 482 556 C 467 581 448 603 425 621 C 401 639 371 649 333 649 C 276 649 229 625 193 578 C 156 531 138 459 138 363 C 138 315 143 272 153 236 C 163 199 176 169 194 145 C 211 121 231 102 255 90 C 279 78 304 72 331 72 C 369 72 402 78 430 92 C 458 106 480 127 494 156 L 494 280 L 327 280 L 327 364 Z M 331 792 L 331 792 Z M 374 792 L 289 792 L 289 925 L 374 925 L 374 792 Z" unicode="Ġ" />
<glyph horiz-adv-x="498" d="M 30 0 L 30 0 Z M 215 10 C 161 10 116 34 82 82 C 47 130 30 195 30 275 C 30 359 47 425 83 474 C 118 522 163 547 217 547 C 253 547 283 536 309 515 C 334 494 351 469 361 441 L 361 540 L 444 540 L 444 32 C 444 -8 437 -42 424 -71 C 410 -100 393 -124 372 -143 C 350 -162 326 -176 299 -185 C 271 -194 244 -199 217 -199 C 175 -199 142 -195 117 -187 C 92 -179 73 -172 61 -164 L 95 -89 C 107 -95 123 -101 142 -107 C 160 -113 183 -116 211 -116 C 251 -116 286 -102 314 -76 C 342 -50 356 -12 356 38 L 356 125 C 352 111 345 97 337 83 C 329 69 319 57 307 46 C 295 35 282 26 266 20 C 250 13 233 10 215 10 Z M 243 87 C 274 87 301 102 324 132 C 346 162 358 212 358 281 C 358 344 346 390 323 419 C 299 448 272 463 242 463 C 206 463 178 446 157 414 C 135 382 125 335 125 275 C 125 214 135 167 155 135 C 175 103 205 87 243 87 Z M 239 602 L 239 602 Z M 282 602 L 197 602 L 197 735 L 282 735 L 282 602 Z" unicode="ġ" />
<glyph horiz-adv-x="626" d="M 38 0 L 38 0 Z M 327 364 L 584 364 L 584 129 C 562 87 529 54 485 29 C 441 3 389 -9 329 -9 C 289 -9 251 0 215 16 C 179 33 149 58 123 90 C 97 122 76 161 61 208 C 45 254 38 307 38 365 C 38 421 45 473 60 519 C 74 565 94 605 120 637 C 146 669 177 693 213 711 C 249 729 288 738 330 738 C 392 738 440 725 476 701 C 512 676 539 647 557 615 L 482 556 C 467 581 448 603 425 621 C 401 639 371 649 333 649 C 276 649 229 625 193 578 C 156 531 138 459 138 363 C 138 315 143 272 153 236 C 163 199 176 169 194 145 C 211 121 231 102 255 90 C 279 78 304 72 331 72 C 369 72 402 78 430 92 C 458 106 480 127 494 156 L 494 280 L 327 280 L 327 364 Z" unicode="Ģ" />
<glyph horiz-adv-x="498" d="M 30 0 L 30 0 Z M 215 10 C 161 10 116 34 82 82 C 47 130 30 195 30 275 C 30 359 47 425 83 474 C 118 522 163 547 217 547 C 253 547 283 536 309 515 C 334 494 351 469 361 441 L 361 540 L 444 540 L 444 32 C 444 -8 437 -42 424 -71 C 410 -100 393 -124 372 -143 C 350 -162 326 -176 299 -185 C 271 -194 244 -199 217 -199 C 175 -199 142 -195 117 -187 C 92 -179 73 -172 61 -164 L 95 -89 C 107 -95 123 -101 142 -107 C 160 -113 183 -116 211 -116 C 251 -116 286 -102 314 -76 C 342 -50 356 -12 356 38 L 356 125 C 352 111 345 97 337 83 C 329 69 319 57 307 46 C 295 35 282 26 266 20 C 250 13 233 10 215 10 Z M 243 87 C 274 87 301 102 324 132 C 346 162 358 212 358 281 C 358 344 346 390 323 419 C 299 448 272 463 242 463 C 206 463 178 446 157 414 C 135 382 125 335 125 275 C 125 214 135 167 155 135 C 175 103 205 87 243 87 Z" unicode="ģ" />
<glyph horiz-adv-x="611" d="M 71 0 L 71 0 Z M 540 0 L 440 0 L 440 319 L 171 319 L 171 0 L 71 0 L 71 730 L 171 730 L 171 403 L 440 403 L 440 730 L 540 730 L 540 0 Z M 303 789 L 303 789 Z M 451 789 L 370 789 L 303 895 L 235 789 L 156 789 L 262 960 L 345 960 L 451 789 Z" unicode="Ĥ" />
<glyph horiz-adv-x="481" d="M 56 0 L 56 0 Z M 428 0 L 336 0 L 336 389 C 336 414 328 433 312 447 C 296 461 275 468 251 468 C 225 468 201 460 180 444 C 158 428 148 401 148 365 L 148 0 L 56 0 L 56 800 L 142 800 L 142 462 C 149 486 165 507 189 523 C 213 539 244 547 282 547 C 323 547 358 536 386 514 C 414 492 428 459 428 413 L 428 0 Z M 260 859 L 260 859 Z M 408 859 L 327 859 L 260 965 L 192 859 L 113 859 L 219 1030 L 302 1030 L 408 859 Z" unicode="ĥ" />
<glyph horiz-adv-x="611" d="M 171 319 L 171 0 L 71 0 L 71 542 L 4 542 L 4 622 L 71 622 L 71 730 L 171 730 L 171 622 L 440 622 L 440 730 L 540 730 L 540 622 L 608 622 L 608 542 L 540 542 L 540 0 L 440 0 L 440 319 L 171 319 Z M 171 403 L 440 403 L 440 542 L 171 542 L 171 403 Z" unicode="Ħ" />
<glyph horiz-adv-x="481" d="M 148 365 L 148 0 L 56 0 L 56 623 L 9 623 L 9 703 L 56 703 L 56 800 L 142 800 L 142 703 L 263 703 L 263 623 L 142 623 L 142 462 C 149 486 165 507 189 523 C 213 539 244 547 282 547 C 323 547 358 536 386 514 C 414 492 428 459 428 413 L 428 0 L 336 0 L 336 389 C 336 414 328 433 312 447 C 296 461 275 468 251 468 C 225 468 201 460 180 444 C 158 428 148 401 148 365 Z" unicode="ħ" />
<glyph horiz-adv-x="251" d="M 0 0 L 0 0 Z M 176 0 L 75 0 L 75 730 L 176 730 L 176 0 Z M 125 795 L 125 795 Z M 215 932 L 285 932 C 285 885 278 850 265 828 C 251 806 233 795 211 795 C 193 795 177 798 163 806 C 149 813 137 820 127 828 C 117 834 107 841 98 848 C 88 855 79 859 71 859 C 61 859 53 853 47 843 C 40 832 36 817 36 799 L -34 799 C -34 845 -24 879 -6 902 C 11 924 31 936 52 936 C 68 936 82 932 94 925 C 106 917 118 909 130 901 C 138 894 147 888 156 882 C 164 876 173 874 182 874 C 190 874 198 879 205 889 C 211 899 215 913 215 932 Z" unicode="Ĩ" />
<glyph horiz-adv-x="209" d="M 0 0 L 0 0 Z M 151 0 L 58 0 L 58 540 L 151 540 L 151 0 Z M 104 605 L 104 605 Z M 194 742 L 264 742 C 264 695 257 660 244 638 C 230 616 212 605 190 605 C 172 605 156 608 142 616 C 128 623 116 630 106 638 C 96 644 86 651 77 658 C 67 665 58 669 50 669 C 40 669 32 663 26 653 C 19 642 15 627 15 609 L -55 609 C -55 655 -45 689 -27 712 C -9 734 10 746 31 746 C 47 746 61 742 73 735 C 85 727 97 719 109 711 C 117 704 126 698 135 692 C 143 686 152 684 161 684 C 169 684 177 689 184 699 C 190 709 194 723 194 742 Z" unicode="ĩ" />
<glyph horiz-adv-x="251" d="M 0 0 L 0 0 Z M 176 0 L 75 0 L 75 730 L 176 730 L 176 0 Z M 125 803 L 125 803 Z M 250 803 L 0 803 L 0 881 L 250 881 L 250 803 Z" unicode="Ī" />
<glyph horiz-adv-x="209" d="M 0 0 L 0 0 Z M 151 0 L 58 0 L 58 540 L 151 540 L 151 0 Z M 104 613 L 104 613 Z M 229 613 L -21 613 L -21 691 L 229 691 L 229 613 Z" unicode="ī" />
<glyph horiz-adv-x="251" d="M 0 0 L 0 0 Z M 176 0 L 75 0 L 75 730 L 176 730 L 176 0 Z M 125 793 L 125 793 Z M 189 951 L 266 951 C 262 896 247 856 221 831 C 195 805 163 793 125 793 C 86 793 54 805 28 831 C 2 856 -11 896 -15 951 L 61 951 C 63 925 68 903 78 887 C 87 871 103 863 125 863 C 147 863 162 870 172 886 C 182 902 187 923 189 951 Z" unicode="Ĭ" />
<glyph horiz-adv-x="209" d="M 0 0 L 0 0 Z M 151 0 L 58 0 L 58 540 L 151 540 L 151 0 Z M 104 603 L 104 603 Z M 168 761 L 245 761 C 241 706 226 666 200 641 C 174 615 142 603 104 603 C 65 603 33 615 7 641 C -18 666 -32 706 -36 761 L 40 761 C 42 735 47 713 57 697 C 66 681 82 673 104 673 C 126 673 141 680 151 696 C 161 712 166 733 168 761 Z" unicode="ĭ" />
<glyph horiz-adv-x="251" d="M 0 0 L 0 0 Z M 176 0 L 75 0 L 75 730 L 176 730 L 176 0 Z M 86 -8 L 86 -8 Z M 184 -96 L 211 -134 C 191 -154 169 -170 145 -181 C 121 -192 94 -198 66 -198 C 33 -198 8 -190 -10 -176 C -28 -161 -37 -142 -37 -120 C -37 -96 -26 -73 -6 -52 C 13 -30 44 -12 84 3 L 128 3 C 99 -11 77 -25 63 -39 C 49 -53 42 -68 42 -83 C 42 -97 47 -108 57 -116 C 67 -124 80 -129 96 -129 C 114 -129 131 -125 146 -119 C 160 -113 173 -105 184 -96 Z" unicode="Į" />
<glyph horiz-adv-x="209" d="M 0 0 L 0 0 Z M 56 634 L 56 726 L 153 726 L 153 634 L 56 634 Z M 58 0 L 58 540 L 151 540 L 151 0 L 58 0 Z M 61 -8 L 61 -8 Z M 159 -96 L 186 -134 C 166 -154 144 -170 120 -181 C 96 -192 69 -198 41 -198 C 8 -198 -17 -190 -35 -176 C -53 -161 -62 -142 -62 -120 C -62 -96 -51 -73 -31 -52 C -11 -30 19 -12 59 3 L 103 3 C 74 -11 52 -25 38 -39 C 24 -53 17 -68 17 -83 C 17 -97 22 -108 32 -116 C 42 -124 55 -129 71 -129 C 89 -129 106 -125 121 -119 C 135 -113 148 -105 159 -96 Z" unicode="į" />
<glyph horiz-adv-x="251" d="M 75 0 L 75 0 Z M 176 0 L 75 0 L 75 730 L 176 730 L 176 0 Z M 125 792 L 125 792 Z M 168 792 L 83 792 L 83 925 L 168 925 L 168 792 Z" unicode="İ" />
<glyph horiz-adv-x="209" d="M 151 0 L 58 0 L 58 540 L 151 540 L 151 0 Z" unicode="ı" />
<glyph horiz-adv-x="542" d="M 75 0 L 75 0 Z M 176 0 L 75 0 L 75 730 L 176 730 L 176 0 Z M 482 730 L 482 186 C 482 158 477 133 469 109 C 461 85 449 64 433 47 C 417 29 398 16 375 6 C 352 -4 326 -9 297 -9 C 282 -9 266 -7 248 -5 C 230 -2 217 2 208 9 L 233 89 C 238 86 245 84 255 82 C 265 80 275 80 285 80 C 315 80 339 91 356 115 C 373 138 382 166 382 199 L 382 730 L 482 730 Z" unicode="Ĳ" />
<glyph horiz-adv-x="406" d="M 56 0 L 56 0 Z M 56 634 L 56 726 L 153 726 L 153 634 L 56 634 Z M 58 0 L 58 540 L 151 540 L 151 0 L 58 0 Z M 353 634 L 257 634 L 257 726 L 353 726 L 353 634 Z M 351 540 L 351 -44 C 351 -84 339 -116 315 -140 C 291 -164 261 -176 227 -176 C 206 -176 187 -173 170 -167 C 152 -161 140 -154 133 -148 L 163 -84 C 168 -86 175 -89 184 -92 C 193 -94 203 -96 214 -96 C 226 -96 237 -90 246 -79 C 254 -68 259 -54 259 -37 L 259 540 L 351 540 Z" unicode="ĳ" />
<glyph horiz-adv-x="337" d="M 0 0 L 0 0 Z M 268 730 L 268 186 C 268 158 263 133 255 109 C 247 85 235 64 219 47 C 203 29 184 16 161 6 C 138 -4 112 -9 83 -9 C 68 -9 52 -7 34 -5 C 16 -2 3 2 -6 9 L 19 89 C 24 86 31 84 41 82 C 51 80 61 80 71 80 C 101 80 125 91 142 115 C 159 138 168 166 168 199 L 168 730 L 268 730 Z M 217 789 L 217 789 Z M 365 789 L 284 789 L 217 895 L 149 789 L 70 789 L 176 960 L 259 960 L 365 789 Z" unicode="Ĵ" />
<glyph horiz-adv-x="225" d="M 0 0 L 0 0 Z M 170 540 L 170 -45 C 170 -87 157 -120 132 -145 C 106 -170 76 -183 40 -183 C 20 -183 1 -180 -16 -174 C -33 -168 -45 -161 -53 -155 L -23 -91 C -17 -93 -10 -96 -2 -99 C 6 -101 16 -103 28 -103 C 41 -103 53 -97 63 -85 C 73 -73 78 -57 78 -37 L 78 540 L 170 540 Z M 123 599 L 123 599 Z M 271 599 L 190 599 L 123 705 L 55 599 L -24 599 L 82 770 L 165 770 L 271 599 Z" unicode="ĵ" />
<glyph horiz-adv-x="554" d="M 71 0 L 71 0 Z M 555 0 L 441 0 L 229 321 L 172 250 L 172 0 L 71 0 L 71 730 L 172 730 L 172 379 L 423 730 L 528 730 L 291 404 L 555 0 Z M 279 -74 L 279 -74 Z M 367 -74 C 365 -98 361 -123 355 -149 C 349 -174 341 -198 331 -221 C 321 -243 311 -264 299 -284 C 287 -303 275 -319 263 -331 L 193 -299 C 200 -289 208 -276 216 -260 C 224 -243 232 -225 240 -205 C 248 -185 254 -163 260 -141 C 265 -118 268 -96 270 -74 L 367 -74 Z" unicode="Ķ" />
<glyph horiz-adv-x="440" d="M 56 0 L 56 0 Z M 453 1 L 353 0 L 213 233 L 148 148 L 148 0 L 56 0 L 56 800 L 145 800 L 145 256 L 333 540 L 430 540 L 273 306 L 453 1 Z M 224 -74 L 224 -74 Z M 312 -74 C 310 -98 306 -123 300 -149 C 294 -174 286 -198 276 -221 C 266 -243 256 -264 244 -284 C 232 -303 220 -319 208 -331 L 138 -299 C 145 -289 153 -276 161 -260 C 169 -243 177 -225 185 -205 C 193 -185 199 -163 205 -141 C 210 -118 213 -96 215 -74 L 312 -74 Z" unicode="ķ" />
<glyph horiz-adv-x="440" d="M 453 1 L 353 0 L 213 233 L 148 148 L 148 0 L 56 0 L 56 540 L 145 540 L 145 256 L 333 540 L 430 540 L 273 306 L 453 1 Z" unicode="ĸ" />
<glyph horiz-adv-x="417" d="M 71 0 L 71 0 Z M 409 0 L 71 0 L 71 730 L 171 730 L 171 87 L 409 87 L 409 0 Z M 283 791 L 283 791 Z M 184 791 L 275 960 L 382 960 L 274 791 L 184 791 Z" unicode="Ĺ" />
<glyph horiz-adv-x="236" d="M 53 0 L 53 0 Z M 53 110 L 53 800 L 146 800 L 146 131 C 146 113 150 100 158 91 C 166 82 178 78 194 78 C 199 78 205 78 211 79 C 217 80 221 81 225 82 L 235 5 C 228 2 219 0 208 -2 C 196 -4 184 -5 171 -5 C 139 -5 111 4 88 24 C 64 43 53 72 53 110 Z M 160 861 L 160 861 Z M 61 861 L 152 1030 L 259 1030 L 151 861 L 61 861 Z" unicode="ĺ" />
<glyph horiz-adv-x="417" d="M 71 0 L 71 0 Z M 409 0 L 71 0 L 71 730 L 171 730 L 171 87 L 409 87 L 409 0 Z M 228 -74 L 228 -74 Z M 316 -74 C 314 -98 310 -123 304 -149 C 298 -174 290 -198 280 -221 C 270 -243 260 -264 248 -284 C 236 -303 224 -319 212 -331 L 142 -299 C 149 -289 157 -276 165 -260 C 173 -243 181 -225 189 -205 C 197 -185 203 -163 209 -141 C 214 -118 217 -96 219 -74 L 316 -74 Z" unicode="Ļ" />
<glyph horiz-adv-x="236" d="M 29 0 L 29 0 Z M 53 110 L 53 800 L 146 800 L 146 131 C 146 113 150 100 158 91 C 166 82 178 78 194 78 C 199 78 205 78 211 79 C 217 80 221 81 225 82 L 235 5 C 228 2 219 0 208 -2 C 196 -4 184 -5 171 -5 C 139 -5 111 4 88 24 C 64 43 53 72 53 110 Z M 115 -74 L 115 -74 Z M 203 -74 C 201 -98 197 -123 191 -149 C 185 -174 177 -198 167 -221 C 157 -243 147 -264 135 -284 C 123 -303 111 -319 99 -331 L 29 -299 C 36 -289 44 -276 52 -260 C 60 -243 68 -225 76 -205 C 84 -185 90 -163 96 -141 C 101 -118 104 -96 106 -74 L 203 -74 Z" unicode="ļ" />
<glyph horiz-adv-x="417" d="M 71 0 L 71 0 Z M 409 0 L 71 0 L 71 730 L 171 730 L 171 87 L 409 87 L 409 0 Z M 439 615 L 435 473 L 357 473 L 352 615 L 352 730 L 439 730 L 439 615 Z" unicode="Ľ" />
<glyph horiz-adv-x="236" d="M 53 0 L 53 0 Z M 53 110 L 53 800 L 146 800 L 146 131 C 146 113 150 100 158 91 C 166 82 178 78 194 78 C 199 78 205 78 211 79 C 217 80 221 81 225 82 L 235 5 C 228 2 219 0 208 -2 C 196 -4 184 -5 171 -5 C 139 -5 111 4 88 24 C 64 43 53 72 53 110 Z M 274 615 L 270 473 L 192 473 L 187 615 L 187 730 L 274 730 L 274 615 Z" unicode="ľ" />
<glyph horiz-adv-x="417" d="M 71 0 L 71 0 Z M 409 0 L 71 0 L 71 730 L 171 730 L 171 87 L 409 87 L 409 0 Z M 298 293 L 298 293 Z M 341 293 L 256 293 L 256 426 L 341 426 L 341 293 Z" unicode="Ŀ" />
<glyph horiz-adv-x="236" d="M 53 0 L 53 0 Z M 53 110 L 53 800 L 146 800 L 146 131 C 146 113 150 100 158 91 C 166 82 178 78 194 78 C 199 78 205 78 211 79 C 217 80 221 81 225 82 L 235 5 C 228 2 219 0 208 -2 C 196 -4 184 -5 171 -5 C 139 -5 111 4 88 24 C 64 43 53 72 53 110 Z M 231 243 L 231 243 Z M 274 243 L 189 243 L 189 376 L 274 376 L 274 243 Z" unicode="ŀ" />
<glyph horiz-adv-x="417" d="M 399 82 L 399 0 L 71 0 L 71 261 L 26 242 L -9 316 L 71 350 L 71 730 L 171 730 L 171 392 L 321 456 L 354 382 L 171 304 L 171 82 L 399 82 Z" unicode="Ł" />
<glyph horiz-adv-x="236" d="M 241 5 C 235 2 226 0 215 -2 C 204 -4 192 -5 180 -5 C 148 -5 120 4 98 24 C 75 43 64 72 64 110 L 64 264 L 19 242 L -9 309 L 64 344 L 64 800 L 156 800 L 156 388 L 222 419 L 251 353 L 156 308 L 156 133 C 156 114 159 100 167 91 C 175 82 186 78 201 78 C 206 78 211 78 217 79 C 223 80 227 81 231 82 L 241 5 Z" unicode="ł" />
<glyph horiz-adv-x="619" d="M 71 0 L 71 0 Z M 548 0 L 477 0 L 165 515 L 165 0 L 71 0 L 71 730 L 144 730 L 457 213 L 457 730 L 548 730 L 548 0 Z M 310 791 L 310 791 Z M 211 791 L 302 960 L 409 960 L 301 791 L 211 791 Z" unicode="Ń" />
<glyph horiz-adv-x="481" d="M 56 0 L 56 0 Z M 428 0 L 336 0 L 336 390 C 336 415 328 434 312 448 C 296 461 276 468 252 468 C 226 468 203 460 181 444 C 159 428 148 402 148 364 L 148 0 L 56 0 L 56 540 L 135 540 L 135 452 C 144 480 162 502 188 520 C 214 538 247 547 285 547 C 325 547 358 536 386 515 C 414 493 428 462 428 420 L 428 0 Z M 248 601 L 248 601 Z M 149 601 L 240 770 L 347 770 L 239 601 L 149 601 Z" unicode="ń" />
<glyph horiz-adv-x="619" d="M 71 0 L 71 0 Z M 548 0 L 477 0 L 165 515 L 165 0 L 71 0 L 71 730 L 144 730 L 457 213 L 457 730 L 548 730 L 548 0 Z M 292 -74 L 292 -74 Z M 380 -74 C 378 -98 374 -123 368 -149 C 362 -174 354 -198 344 -221 C 334 -243 324 -264 312 -284 C 300 -303 288 -319 276 -331 L 206 -299 C 213 -289 221 -276 229 -260 C 237 -243 245 -225 253 -205 C 261 -185 267 -163 273 -141 C 278 -118 281 -96 283 -74 L 380 -74 Z" unicode="Ņ" />
<glyph horiz-adv-x="481" d="M 56 0 L 56 0 Z M 428 0 L 336 0 L 336 390 C 336 415 328 434 312 448 C 296 461 276 468 252 468 C 226 468 203 460 181 444 C 159 428 148 402 148 364 L 148 0 L 56 0 L 56 540 L 135 540 L 135 452 C 144 480 162 502 188 520 C 214 538 247 547 285 547 C 325 547 358 536 386 515 C 414 493 428 462 428 420 L 428 0 Z M 222 -74 L 222 -74 Z M 310 -74 C 308 -98 304 -123 298 -149 C 292 -174 284 -198 274 -221 C 264 -243 254 -264 242 -284 C 230 -303 218 -319 206 -331 L 136 -299 C 143 -289 151 -276 159 -260 C 167 -243 175 -225 183 -205 C 191 -185 197 -163 203 -141 C 208 -118 211 -96 213 -74 L 310 -74 Z" unicode="ņ" />
<glyph horiz-adv-x="619" d="M 71 0 L 71 0 Z M 548 0 L 477 0 L 165 515 L 165 0 L 71 0 L 71 730 L 144 730 L 457 213 L 457 730 L 548 730 L 548 0 Z M 310 789 L 310 789 Z M 163 960 L 244 960 L 311 853 L 379 960 L 458 960 L 352 789 L 269 789 L 163 960 Z" unicode="Ň" />
<glyph horiz-adv-x="481" d="M 56 0 L 56 0 Z M 428 0 L 336 0 L 336 390 C 336 415 328 434 312 448 C 296 461 276 468 252 468 C 226 468 203 460 181 444 C 159 428 148 402 148 364 L 148 0 L 56 0 L 56 540 L 135 540 L 135 452 C 144 480 162 502 188 520 C 214 538 247 547 285 547 C 325 547 358 536 386 515 C 414 493 428 462 428 420 L 428 0 Z M 248 599 L 248 599 Z M 101 770 L 182 770 L 249 663 L 317 770 L 396 770 L 290 599 L 207 599 L 101 770 Z" unicode="ň" />
<glyph horiz-adv-x="619" d="M 457 730 L 548 730 L 548 -3 C 548 -61 532 -108 501 -144 C 470 -180 429 -198 377 -198 C 360 -198 342 -196 323 -192 C 304 -188 289 -183 279 -176 L 302 -97 C 308 -101 317 -104 329 -106 C 341 -108 353 -110 367 -110 C 393 -110 414 -98 431 -75 C 448 -51 457 -23 457 11 L 457 33 L 165 515 L 165 0 L 71 0 L 71 730 L 144 730 L 457 213 L 457 730 Z" unicode="Ŋ" />
<glyph horiz-adv-x="481" d="M 285 547 C 325 547 358 536 386 515 C 414 493 428 462 428 420 L 428 -14 C 428 -70 413 -115 385 -149 C 356 -182 318 -199 270 -199 C 254 -199 237 -197 219 -193 C 201 -189 188 -183 178 -177 L 201 -99 C 207 -102 216 -105 226 -107 C 236 -109 247 -111 259 -111 C 281 -111 300 -100 314 -79 C 328 -58 336 -32 336 0 L 336 390 C 336 415 328 434 312 448 C 296 461 276 468 252 468 C 226 468 203 460 181 444 C 159 428 148 402 148 364 L 148 0 L 56 0 L 56 540 L 135 540 L 135 452 C 144 480 162 502 188 520 C 214 538 247 547 285 547 Z" unicode="ŋ" />
<glyph horiz-adv-x="662" d="M 38 0 L 38 0 Z M 333 -9 C 243 -9 171 24 118 92 C 64 160 38 253 38 371 C 38 427 45 477 59 523 C 73 569 92 607 118 639 C 143 671 173 695 209 713 C 245 730 284 739 327 739 C 418 739 490 705 543 639 C 596 573 623 482 623 366 C 623 308 615 256 601 210 C 586 163 566 123 540 91 C 514 59 484 34 448 17 C 412 0 374 -9 333 -9 Z M 335 73 C 390 73 435 97 470 147 C 504 196 522 270 522 369 C 522 461 503 531 467 581 C 431 630 384 655 326 655 C 269 655 224 631 190 583 C 156 535 140 463 140 367 C 140 269 158 195 195 146 C 232 97 279 73 335 73 Z M 329 803 L 329 803 Z M 454 803 L 204 803 L 204 881 L 454 881 L 454 803 Z" unicode="Ō" />
<glyph horiz-adv-x="484" d="M 28 0 L 28 0 Z M 241 -7 C 211 -7 184 -1 158 11 C 132 23 109 40 90 63 C 70 86 55 115 44 150 C 33 184 28 224 28 269 C 28 311 33 349 44 383 C 54 417 69 447 88 471 C 106 495 128 513 154 527 C 180 540 208 547 238 547 C 302 547 354 523 395 477 C 435 431 456 366 456 283 C 456 195 436 125 396 72 C 356 19 304 -7 241 -7 Z M 243 74 C 279 74 307 91 328 125 C 349 159 360 209 360 275 C 360 339 349 387 328 418 C 306 449 277 465 239 465 C 204 465 176 449 155 417 C 134 385 124 336 124 271 C 124 201 135 151 158 120 C 180 89 209 74 243 74 Z M 242 613 L 242 613 Z M 367 613 L 117 613 L 117 691 L 367 691 L 367 613 Z" unicode="ō" />
<glyph horiz-adv-x="662" d="M 38 0 L 38 0 Z M 333 -9 C 243 -9 171 24 118 92 C 64 160 38 253 38 371 C 38 427 45 477 59 523 C 73 569 92 607 118 639 C 143 671 173 695 209 713 C 245 730 284 739 327 739 C 418 739 490 705 543 639 C 596 573 623 482 623 366 C 623 308 615 256 601 210 C 586 163 566 123 540 91 C 514 59 484 34 448 17 C 412 0 374 -9 333 -9 Z M 335 73 C 390 73 435 97 470 147 C 504 196 522 270 522 369 C 522 461 503 531 467 581 C 431 630 384 655 326 655 C 269 655 224 631 190 583 C 156 535 140 463 140 367 C 140 269 158 195 195 146 C 232 97 279 73 335 73 Z M 329 793 L 329 793 Z M 393 951 L 470 951 C 466 896 451 856 425 831 C 399 805 367 793 329 793 C 290 793 258 805 232 831 C 206 856 192 896 189 951 L 265 951 C 267 925 272 903 282 887 C 291 871 307 863 329 863 C 351 863 366 870 376 886 C 386 902 391 923 393 951 Z" unicode="Ŏ" />
<glyph horiz-adv-x="484" d="M 28 0 L 28 0 Z M 241 -7 C 211 -7 184 -1 158 11 C 132 23 109 40 90 63 C 70 86 55 115 44 150 C 33 184 28 224 28 269 C 28 311 33 349 44 383 C 54 417 69 447 88 471 C 106 495 128 513 154 527 C 180 540 208 547 238 547 C 302 547 354 523 395 477 C 435 431 456 366 456 283 C 456 195 436 125 396 72 C 356 19 304 -7 241 -7 Z M 243 74 C 279 74 307 91 328 125 C 349 159 360 209 360 275 C 360 339 349 387 328 418 C 306 449 277 465 239 465 C 204 465 176 449 155 417 C 134 385 124 336 124 271 C 124 201 135 151 158 120 C 180 89 209 74 243 74 Z M 242 603 L 242 603 Z M 306 761 L 383 761 C 379 706 364 666 338 641 C 312 615 280 603 242 603 C 203 603 171 615 145 641 C 119 666 105 706 102 761 L 178 761 C 180 735 185 713 195 697 C 204 681 220 673 242 673 C 264 673 279 680 289 696 C 299 712 304 733 306 761 Z" unicode="ŏ" />
<glyph horiz-adv-x="662" d="M 38 0 L 38 0 Z M 333 -9 C 243 -9 171 24 118 92 C 64 160 38 253 38 371 C 38 427 45 477 59 523 C 73 569 92 607 118 639 C 143 671 173 695 209 713 C 245 730 284 739 327 739 C 418 739 490 705 543 639 C 596 573 623 482 623 366 C 623 308 615 256 601 210 C 586 163 566 123 540 91 C 514 59 484 34 448 17 C 412 0 374 -9 333 -9 Z M 335 73 C 390 73 435 97 470 147 C 504 196 522 270 522 369 C 522 461 503 531 467 581 C 431 630 384 655 326 655 C 269 655 224 631 190 583 C 156 535 140 463 140 367 C 140 269 158 195 195 146 C 232 97 279 73 335 73 Z M 329 788 L 329 788 Z M 155 788 L 229 944 L 327 944 L 237 788 L 155 788 Z M 330 788 L 405 944 L 503 944 L 412 788 L 330 788 Z" unicode="Ő" />
<glyph horiz-adv-x="484" d="M 28 0 L 28 0 Z M 241 -7 C 211 -7 184 -1 158 11 C 132 23 109 40 90 63 C 70 86 55 115 44 150 C 33 184 28 224 28 269 C 28 311 33 349 44 383 C 54 417 69 447 88 471 C 106 495 128 513 154 527 C 180 540 208 547 238 547 C 302 547 354 523 395 477 C 435 431 456 366 456 283 C 456 195 436 125 396 72 C 356 19 304 -7 241 -7 Z M 243 74 C 279 74 307 91 328 125 C 349 159 360 209 360 275 C 360 339 349 387 328 418 C 306 449 277 465 239 465 C 204 465 176 449 155 417 C 134 385 124 336 124 271 C 124 201 135 151 158 120 C 180 89 209 74 243 74 Z M 242 598 L 242 598 Z M 68 598 L 142 754 L 240 754 L 150 598 L 68 598 Z M 243 598 L 318 754 L 416 754 L 325 598 L 243 598 Z" unicode="ő" />
<glyph horiz-adv-x="896" d="M 312 -9 C 229 -9 163 24 113 92 C 63 159 38 252 38 370 C 38 426 44 476 58 522 C 72 568 91 606 115 638 C 139 670 168 694 202 712 C 236 730 272 739 312 739 C 361 739 403 725 439 697 C 474 669 497 636 508 598 L 508 730 L 850 730 L 850 643 L 604 643 L 604 407 L 839 407 L 839 323 L 604 323 L 604 87 L 868 87 L 868 0 L 508 0 L 508 142 C 502 122 494 103 483 85 C 471 67 457 51 441 37 C 425 23 406 11 384 3 C 362 -4 338 -9 312 -9 Z M 326 68 C 380 68 424 93 458 143 C 492 193 509 269 509 371 C 509 419 504 461 494 497 C 484 533 470 564 453 588 C 436 612 416 630 394 642 C 371 654 347 660 323 660 C 267 660 223 635 190 586 C 156 537 140 463 140 365 C 140 264 157 189 192 141 C 227 92 272 68 326 68 Z" unicode="Œ" />
<glyph horiz-adv-x="797" d="M 241 -7 C 211 -7 184 -1 158 11 C 132 23 109 40 90 63 C 70 86 55 115 44 150 C 33 184 28 224 28 269 C 28 310 33 348 44 382 C 54 416 69 446 88 470 C 106 494 128 513 154 527 C 180 540 208 547 238 547 C 262 547 284 543 304 535 C 324 527 340 516 354 503 C 368 490 379 475 388 459 C 396 442 402 425 405 408 C 407 424 412 441 421 457 C 430 473 442 488 456 502 C 470 515 487 526 507 534 C 526 542 547 547 569 547 C 631 547 680 520 716 468 C 752 415 770 341 770 246 L 449 246 C 449 197 460 156 484 124 C 507 91 538 75 578 75 C 609 75 635 81 656 95 C 677 108 694 123 707 140 L 754 84 C 737 61 714 40 685 21 C 655 2 619 -7 575 -7 C 551 -7 529 -3 509 4 C 489 12 471 22 457 34 C 442 46 430 60 421 76 C 411 92 405 109 403 126 C 399 109 393 93 385 77 C 376 61 365 46 352 34 C 338 22 322 12 304 4 C 285 -3 264 -7 241 -7 Z M 447 311 L 680 311 C 679 359 668 398 647 426 C 625 454 598 469 566 469 C 532 469 505 454 483 426 C 461 397 449 359 447 311 Z M 243 74 C 279 74 307 90 328 124 C 349 157 360 207 360 275 C 360 339 349 386 328 418 C 306 449 277 465 239 465 C 204 465 176 449 155 417 C 134 385 124 336 124 272 C 124 202 135 151 158 120 C 180 89 209 74 243 74 Z" unicode="œ" />
<glyph horiz-adv-x="514" d="M 71 0 L 71 0 Z M 71 0 L 71 730 L 252 730 C 308 730 354 713 392 679 C 430 645 449 596 449 531 C 449 473 435 427 408 392 C 380 357 348 337 310 333 L 308 328 L 504 0 L 397 0 L 219 307 L 166 307 L 166 0 L 71 0 Z M 165 389 L 234 389 C 268 389 297 400 319 423 C 341 446 353 478 353 520 C 353 563 342 595 320 617 C 298 638 270 649 238 649 L 165 649 L 165 389 Z M 247 791 L 247 791 Z M 148 791 L 239 960 L 346 960 L 238 791 L 148 791 Z" unicode="Ŕ" />
<glyph horiz-adv-x="355" d="M 56 0 L 56 0 Z M 359 517 L 322 438 C 312 447 302 454 291 458 C 279 462 266 464 252 464 C 240 464 227 461 215 457 C 203 453 192 446 182 436 C 172 426 163 413 157 397 C 151 381 148 363 148 341 L 148 0 L 56 0 L 56 540 L 143 540 L 143 448 C 150 474 165 497 188 517 C 211 537 239 547 272 547 C 292 547 309 544 324 538 C 338 532 350 525 359 517 Z M 215 601 L 215 601 Z M 116 601 L 207 770 L 314 770 L 206 601 L 116 601 Z" unicode="ŕ" />
<glyph horiz-adv-x="514" d="M 71 0 L 71 0 Z M 71 0 L 71 730 L 252 730 C 308 730 354 713 392 679 C 430 645 449 596 449 531 C 449 473 435 427 408 392 C 380 357 348 337 310 333 L 308 328 L 504 0 L 397 0 L 219 307 L 166 307 L 166 0 L 71 0 Z M 165 389 L 234 389 C 268 389 297 400 319 423 C 341 446 353 478 353 520 C 353 563 342 595 320 617 C 298 638 270 649 238 649 L 165 649 L 165 389 Z M 247 -74 L 247 -74 Z M 335 -74 C 333 -98 329 -123 323 -149 C 317 -174 309 -198 299 -221 C 289 -243 279 -264 267 -284 C 255 -303 243 -319 231 -331 L 161 -299 C 168 -289 176 -276 184 -260 C 192 -243 200 -225 208 -205 C 216 -185 222 -163 228 -141 C 233 -118 236 -96 238 -74 L 335 -74 Z" unicode="Ŗ" />
<glyph horiz-adv-x="355" d="M 56 0 L 56 0 Z M 359 517 L 322 438 C 312 447 302 454 291 458 C 279 462 266 464 252 464 C 240 464 227 461 215 457 C 203 453 192 446 182 436 C 172 426 163 413 157 397 C 151 381 148 363 148 341 L 148 0 L 56 0 L 56 540 L 143 540 L 143 448 C 150 474 165 497 188 517 C 211 537 239 547 272 547 C 292 547 309 544 324 538 C 338 532 350 525 359 517 Z M 192 -74 L 192 -74 Z M 280 -74 C 278 -98 274 -123 268 -149 C 262 -174 254 -198 244 -221 C 234 -243 224 -264 212 -284 C 200 -303 188 -319 176 -331 L 106 -299 C 113 -289 121 -276 129 -260 C 137 -243 145 -225 153 -205 C 161 -185 167 -163 173 -141 C 178 -118 181 -96 183 -74 L 280 -74 Z" unicode="ŗ" />
<glyph horiz-adv-x="514" d="M 71 0 L 71 0 Z M 71 0 L 71 730 L 252 730 C 308 730 354 713 392 679 C 430 645 449 596 449 531 C 449 473 435 427 408 392 C 380 357 348 337 310 333 L 308 328 L 504 0 L 397 0 L 219 307 L 166 307 L 166 0 L 71 0 Z M 165 389 L 234 389 C 268 389 297 400 319 423 C 341 446 353 478 353 520 C 353 563 342 595 320 617 C 298 638 270 649 238 649 L 165 649 L 165 389 Z M 247 789 L 247 789 Z M 100 960 L 181 960 L 248 853 L 316 960 L 395 960 L 289 789 L 206 789 L 100 960 Z" unicode="Ř" />
<glyph horiz-adv-x="355" d="M 56 0 L 56 0 Z M 359 517 L 322 438 C 312 447 302 454 291 458 C 279 462 266 464 252 464 C 240 464 227 461 215 457 C 203 453 192 446 182 436 C 172 426 163 413 157 397 C 151 381 148 363 148 341 L 148 0 L 56 0 L 56 540 L 143 540 L 143 448 C 150 474 165 497 188 517 C 211 537 239 547 272 547 C 292 547 309 544 324 538 C 338 532 350 525 359 517 Z M 215 599 L 215 599 Z M 68 770 L 149 770 L 216 663 L 284 770 L 363 770 L 257 599 L 174 599 L 68 770 Z" unicode="ř" />
<glyph horiz-adv-x="475" d="M 26 0 L 26 0 Z M 239 -9 C 193 -9 152 -1 117 12 C 82 26 52 49 26 80 L 92 146 C 108 121 129 102 156 89 C 183 76 210 70 237 70 C 266 70 292 79 314 98 C 336 117 347 143 347 176 C 347 208 337 236 318 258 C 299 280 265 304 215 332 C 157 362 114 393 87 426 C 60 459 47 504 47 561 C 47 615 65 658 102 690 C 139 722 185 739 239 739 C 283 739 319 731 349 717 C 378 702 401 685 419 667 L 361 599 C 345 614 326 627 305 637 C 283 647 261 652 237 652 C 210 652 187 643 168 627 C 148 611 139 588 139 558 C 139 527 148 502 168 482 C 187 462 223 439 275 411 C 335 379 378 346 402 312 C 426 278 438 235 438 183 C 438 152 432 125 421 101 C 410 77 396 57 378 41 C 360 25 338 12 314 4 C 290 -4 265 -9 239 -9 Z M 237 791 L 237 791 Z M 138 791 L 229 960 L 336 960 L 228 791 L 138 791 Z" unicode="Ś" />
<glyph horiz-adv-x="376" d="M 23 0 L 23 0 Z M 198 -7 C 160 -7 125 0 95 12 C 65 25 41 43 23 65 L 69 129 C 83 111 101 96 122 86 C 143 76 165 71 188 71 C 208 71 226 77 242 90 C 257 102 265 120 265 143 C 265 165 256 183 240 198 C 223 212 197 228 162 245 C 122 263 92 285 72 311 C 52 337 42 370 42 410 C 42 449 56 482 84 508 C 112 534 148 547 192 547 C 227 547 257 542 281 532 C 305 522 325 510 340 498 L 306 423 C 292 433 276 443 258 453 C 240 463 220 468 200 468 C 179 468 161 462 146 452 C 131 442 124 427 124 409 C 124 389 130 374 144 362 C 158 350 184 335 222 317 C 266 294 298 269 318 243 C 338 217 349 183 349 141 C 349 116 344 94 336 76 C 327 57 315 41 301 29 C 287 17 271 8 253 2 C 235 -4 216 -7 198 -7 Z M 193 601 L 193 601 Z M 94 601 L 185 770 L 292 770 L 184 601 L 94 601 Z" unicode="ś" />
<glyph horiz-adv-x="475" d="M 26 0 L 26 0 Z M 239 -9 C 193 -9 152 -1 117 12 C 82 26 52 49 26 80 L 92 146 C 108 121 129 102 156 89 C 183 76 210 70 237 70 C 266 70 292 79 314 98 C 336 117 347 143 347 176 C 347 208 337 236 318 258 C 299 280 265 304 215 332 C 157 362 114 393 87 426 C 60 459 47 504 47 561 C 47 615 65 658 102 690 C 139 722 185 739 239 739 C 283 739 319 731 349 717 C 378 702 401 685 419 667 L 361 599 C 345 614 326 627 305 637 C 283 647 261 652 237 652 C 210 652 187 643 168 627 C 148 611 139 588 139 558 C 139 527 148 502 168 482 C 187 462 223 439 275 411 C 335 379 378 346 402 312 C 426 278 438 235 438 183 C 438 152 432 125 421 101 C 410 77 396 57 378 41 C 360 25 338 12 314 4 C 290 -4 265 -9 239 -9 Z M 237 789 L 237 789 Z M 385 789 L 304 789 L 237 895 L 169 789 L 90 789 L 196 960 L 279 960 L 385 789 Z" unicode="Ŝ" />
<glyph horiz-adv-x="376" d="M 23 0 L 23 0 Z M 198 -7 C 160 -7 125 0 95 12 C 65 25 41 43 23 65 L 69 129 C 83 111 101 96 122 86 C 143 76 165 71 188 71 C 208 71 226 77 242 90 C 257 102 265 120 265 143 C 265 165 256 183 240 198 C 223 212 197 228 162 245 C 122 263 92 285 72 311 C 52 337 42 370 42 410 C 42 449 56 482 84 508 C 112 534 148 547 192 547 C 227 547 257 542 281 532 C 305 522 325 510 340 498 L 306 423 C 292 433 276 443 258 453 C 240 463 220 468 200 468 C 179 468 161 462 146 452 C 131 442 124 427 124 409 C 124 389 130 374 144 362 C 158 350 184 335 222 317 C 266 294 298 269 318 243 C 338 217 349 183 349 141 C 349 116 344 94 336 76 C 327 57 315 41 301 29 C 287 17 271 8 253 2 C 235 -4 216 -7 198 -7 Z M 193 599 L 193 599 Z M 341 599 L 260 599 L 193 705 L 125 599 L 46 599 L 152 770 L 235 770 L 341 599 Z" unicode="ŝ" />
<glyph horiz-adv-x="475" d="M 26 0 L 26 0 Z M 239 -9 C 193 -9 152 -1 117 12 C 82 26 52 49 26 80 L 92 146 C 108 121 129 102 156 89 C 183 76 210 70 237 70 C 266 70 292 79 314 98 C 336 117 347 143 347 176 C 347 208 337 236 318 258 C 299 280 265 304 215 332 C 157 362 114 393 87 426 C 60 459 47 504 47 561 C 47 615 65 658 102 690 C 139 722 185 739 239 739 C 283 739 319 731 349 717 C 378 702 401 685 419 667 L 361 599 C 345 614 326 627 305 637 C 283 647 261 652 237 652 C 210 652 187 643 168 627 C 148 611 139 588 139 558 C 139 527 148 502 168 482 C 187 462 223 439 275 411 C 335 379 378 346 402 312 C 426 278 438 235 438 183 C 438 152 432 125 421 101 C 410 77 396 57 378 41 C 360 25 338 12 314 4 C 290 -4 265 -9 239 -9 Z M 224 -3 L 224 -3 Z M 230 -186 C 208 -186 187 -183 166 -177 C 145 -171 128 -163 116 -153 L 136 -116 C 144 -121 154 -126 168 -132 C 181 -138 196 -141 212 -141 C 224 -141 235 -137 245 -131 C 255 -125 260 -116 260 -106 C 260 -94 255 -85 247 -80 C 238 -74 228 -72 218 -72 C 211 -72 205 -72 199 -73 C 193 -74 187 -76 182 -79 L 171 -62 L 226 10 L 274 10 L 230 -48 C 258 -45 282 -49 302 -59 C 322 -69 332 -87 332 -111 C 332 -135 322 -153 302 -166 C 282 -179 258 -186 230 -186 Z" unicode="Ş" />
<glyph horiz-adv-x="376" d="M 23 0 L 23 0 Z M 198 -7 C 160 -7 125 0 95 12 C 65 25 41 43 23 65 L 69 129 C 83 111 101 96 122 86 C 143 76 165 71 188 71 C 208 71 226 77 242 90 C 257 102 265 120 265 143 C 265 165 256 183 240 198 C 223 212 197 228 162 245 C 122 263 92 285 72 311 C 52 337 42 370 42 410 C 42 449 56 482 84 508 C 112 534 148 547 192 547 C 227 547 257 542 281 532 C 305 522 325 510 340 498 L 306 423 C 292 433 276 443 258 453 C 240 463 220 468 200 468 C 179 468 161 462 146 452 C 131 442 124 427 124 409 C 124 389 130 374 144 362 C 158 350 184 335 222 317 C 266 294 298 269 318 243 C 338 217 349 183 349 141 C 349 116 344 94 336 76 C 327 57 315 41 301 29 C 287 17 271 8 253 2 C 235 -4 216 -7 198 -7 Z M 181 -1 L 181 -1 Z M 187 -184 C 165 -184 144 -181 123 -175 C 102 -169 85 -161 73 -151 L 93 -114 C 101 -119 111 -124 125 -130 C 138 -136 153 -139 169 -139 C 181 -139 192 -135 202 -129 C 212 -123 217 -114 217 -104 C 217 -92 212 -83 204 -78 C 195 -72 185 -70 175 -70 C 168 -70 162 -70 156 -71 C 150 -72 144 -74 139 -77 L 128 -60 L 183 12 L 231 12 L 187 -46 C 215 -43 239 -47 259 -57 C 279 -67 289 -85 289 -109 C 289 -133 279 -151 259 -164 C 239 -177 215 -184 187 -184 Z" unicode="ş" />
<glyph horiz-adv-x="475" d="M 26 0 L 26 0 Z M 239 -9 C 193 -9 152 -1 117 12 C 82 26 52 49 26 80 L 92 146 C 108 121 129 102 156 89 C 183 76 210 70 237 70 C 266 70 292 79 314 98 C 336 117 347 143 347 176 C 347 208 337 236 318 258 C 299 280 265 304 215 332 C 157 362 114 393 87 426 C 60 459 47 504 47 561 C 47 615 65 658 102 690 C 139 722 185 739 239 739 C 283 739 319 731 349 717 C 378 702 401 685 419 667 L 361 599 C 345 614 326 627 305 637 C 283 647 261 652 237 652 C 210 652 187 643 168 627 C 148 611 139 588 139 558 C 139 527 148 502 168 482 C 187 462 223 439 275 411 C 335 379 378 346 402 312 C 426 278 438 235 438 183 C 438 152 432 125 421 101 C 410 77 396 57 378 41 C 360 25 338 12 314 4 C 290 -4 265 -9 239 -9 Z M 237 789 L 237 789 Z M 90 960 L 171 960 L 238 853 L 306 960 L 385 960 L 279 789 L 196 789 L 90 960 Z" unicode="Š" />
<glyph horiz-adv-x="376" d="M 23 0 L 23 0 Z M 198 -7 C 160 -7 125 0 95 12 C 65 25 41 43 23 65 L 69 129 C 83 111 101 96 122 86 C 143 76 165 71 188 71 C 208 71 226 77 242 90 C 257 102 265 120 265 143 C 265 165 256 183 240 198 C 223 212 197 228 162 245 C 122 263 92 285 72 311 C 52 337 42 370 42 410 C 42 449 56 482 84 508 C 112 534 148 547 192 547 C 227 547 257 542 281 532 C 305 522 325 510 340 498 L 306 423 C 292 433 276 443 258 453 C 240 463 220 468 200 468 C 179 468 161 462 146 452 C 131 442 124 427 124 409 C 124 389 130 374 144 362 C 158 350 184 335 222 317 C 266 294 298 269 318 243 C 338 217 349 183 349 141 C 349 116 344 94 336 76 C 327 57 315 41 301 29 C 287 17 271 8 253 2 C 235 -4 216 -7 198 -7 Z M 193 599 L 193 599 Z M 46 770 L 127 770 L 194 663 L 262 770 L 341 770 L 235 599 L 152 599 L 46 770 Z" unicode="š" />
<glyph horiz-adv-x="435" d="M 8 0 L 8 0 Z M 427 643 L 267 643 L 267 0 L 167 0 L 167 643 L 8 643 L 8 730 L 427 730 L 427 643 Z M 217 789 L 217 789 Z M 70 960 L 151 960 L 218 853 L 286 960 L 365 960 L 259 789 L 176 789 L 70 960 Z" unicode="Ť" />
<glyph horiz-adv-x="275" d="M 8 0 L 8 0 Z M 253 95 L 270 19 C 262 13 250 7 236 3 C 222 -1 204 -4 184 -4 C 153 -4 126 7 102 29 C 78 51 67 83 67 126 L 67 461 L 8 461 L 8 540 L 69 540 L 69 657 L 158 669 L 158 540 L 254 540 L 254 461 L 159 461 L 159 134 C 159 117 163 104 171 95 C 179 86 190 82 205 82 C 214 82 223 83 232 86 C 241 89 248 92 253 95 Z M 367 615 L 363 473 L 285 473 L 280 615 L 280 730 L 367 730 L 367 615 Z" unicode="ť" />
<glyph horiz-adv-x="435" d="M 386 439 L 267 439 L 267 0 L 167 0 L 167 439 L 48 439 L 48 519 L 167 519 L 167 643 L 8 643 L 8 730 L 427 730 L 427 643 L 267 643 L 267 519 L 386 519 L 386 439 Z" unicode="Ŧ" />
<glyph horiz-adv-x="275" d="M 270 19 C 262 13 250 7 236 3 C 222 -1 204 -4 184 -4 C 153 -4 126 7 102 29 C 78 51 67 83 67 126 L 67 297 L 15 297 L 15 377 L 67 377 L 67 461 L 8 461 L 8 540 L 69 540 L 69 657 L 158 669 L 158 540 L 254 540 L 254 461 L 159 461 L 159 377 L 233 377 L 233 297 L 159 297 L 159 134 C 159 117 163 104 171 95 C 179 86 190 82 205 82 C 214 82 223 83 232 86 C 241 89 248 92 253 95 L 270 19 Z" unicode="ŧ" />
<glyph horiz-adv-x="610" d="M 68 0 L 68 0 Z M 543 730 L 543 234 C 543 192 536 156 523 126 C 510 95 493 70 471 50 C 449 30 423 15 394 5 C 364 -4 333 -9 301 -9 C 269 -9 239 -4 211 5 C 183 14 158 28 137 48 C 116 67 99 92 87 123 C 74 154 68 191 68 234 L 68 730 L 166 730 L 166 233 C 166 180 179 141 206 116 C 232 91 265 79 303 79 C 341 79 373 90 400 114 C 427 138 441 177 441 233 L 441 730 L 543 730 Z M 303 795 L 303 795 Z M 393 932 L 463 932 C 463 885 456 850 443 828 C 429 806 411 795 389 795 C 371 795 355 798 341 806 C 327 813 315 820 305 828 C 295 834 285 841 276 848 C 266 855 257 859 249 859 C 239 859 231 853 225 843 C 218 832 214 817 214 799 L 144 799 C 144 845 153 879 171 902 C 189 924 209 936 230 936 C 246 936 260 932 272 925 C 284 917 296 909 308 901 C 316 894 325 888 334 882 C 342 876 351 874 360 874 C 368 874 376 879 383 889 C 389 899 393 913 393 932 Z" unicode="Ũ" />
<glyph horiz-adv-x="481" d="M 53 0 L 53 0 Z M 53 540 L 145 540 L 145 168 C 145 134 153 109 170 93 C 187 77 209 70 237 70 C 262 70 284 79 304 97 C 323 115 333 144 333 182 L 333 540 L 425 540 L 425 0 L 343 0 L 343 88 C 335 63 318 41 293 21 C 267 1 236 -8 198 -8 C 159 -8 125 4 96 29 C 67 53 53 90 53 138 L 53 540 Z M 239 605 L 239 605 Z M 329 742 L 399 742 C 399 695 392 660 379 638 C 365 616 347 605 325 605 C 307 605 291 608 277 616 C 263 623 251 630 241 638 C 231 644 221 651 212 658 C 202 665 193 669 185 669 C 175 669 167 663 161 653 C 154 642 150 627 150 609 L 80 609 C 80 655 89 689 107 712 C 125 734 145 746 166 746 C 182 746 196 742 208 735 C 220 727 232 719 244 711 C 252 704 261 698 270 692 C 278 686 287 684 296 684 C 304 684 312 689 319 699 C 325 709 329 723 329 742 Z" unicode="ũ" />
<glyph horiz-adv-x="610" d="M 68 0 L 68 0 Z M 543 730 L 543 234 C 543 192 536 156 523 126 C 510 95 493 70 471 50 C 449 30 423 15 394 5 C 364 -4 333 -9 301 -9 C 269 -9 239 -4 211 5 C 183 14 158 28 137 48 C 116 67 99 92 87 123 C 74 154 68 191 68 234 L 68 730 L 166 730 L 166 233 C 166 180 179 141 206 116 C 232 91 265 79 303 79 C 341 79 373 90 400 114 C 427 138 441 177 441 233 L 441 730 L 543 730 Z M 303 803 L 303 803 Z M 428 803 L 178 803 L 178 881 L 428 881 L 428 803 Z" unicode="Ū" />
<glyph horiz-adv-x="481" d="M 53 0 L 53 0 Z M 53 540 L 145 540 L 145 168 C 145 134 153 109 170 93 C 187 77 209 70 237 70 C 262 70 284 79 304 97 C 323 115 333 144 333 182 L 333 540 L 425 540 L 425 0 L 343 0 L 343 88 C 335 63 318 41 293 21 C 267 1 236 -8 198 -8 C 159 -8 125 4 96 29 C 67 53 53 90 53 138 L 53 540 Z M 239 613 L 239 613 Z M 364 613 L 114 613 L 114 691 L 364 691 L 364 613 Z" unicode="ū" />
<glyph horiz-adv-x="610" d="M 68 0 L 68 0 Z M 543 730 L 543 234 C 543 192 536 156 523 126 C 510 95 493 70 471 50 C 449 30 423 15 394 5 C 364 -4 333 -9 301 -9 C 269 -9 239 -4 211 5 C 183 14 158 28 137 48 C 116 67 99 92 87 123 C 74 154 68 191 68 234 L 68 730 L 166 730 L 166 233 C 166 180 179 141 206 116 C 232 91 265 79 303 79 C 341 79 373 90 400 114 C 427 138 441 177 441 233 L 441 730 L 543 730 Z M 303 793 L 303 793 Z M 367 951 L 444 951 C 440 896 425 856 399 831 C 373 805 341 793 303 793 C 264 793 232 805 206 831 C 180 856 166 896 163 951 L 239 951 C 241 925 246 903 256 887 C 265 871 281 863 303 863 C 325 863 340 870 350 886 C 360 902 365 923 367 951 Z" unicode="Ŭ" />
<glyph horiz-adv-x="481" d="M 53 0 L 53 0 Z M 53 540 L 145 540 L 145 168 C 145 134 153 109 170 93 C 187 77 209 70 237 70 C 262 70 284 79 304 97 C 323 115 333 144 333 182 L 333 540 L 425 540 L 425 0 L 343 0 L 343 88 C 335 63 318 41 293 21 C 267 1 236 -8 198 -8 C 159 -8 125 4 96 29 C 67 53 53 90 53 138 L 53 540 Z M 239 603 L 239 603 Z M 303 761 L 380 761 C 376 706 361 666 335 641 C 309 615 277 603 239 603 C 200 603 168 615 142 641 C 116 666 102 706 99 761 L 175 761 C 177 735 182 713 192 697 C 201 681 217 673 239 673 C 261 673 276 680 286 696 C 296 712 301 733 303 761 Z" unicode="ŭ" />
<glyph horiz-adv-x="610" d="M 68 0 L 68 0 Z M 543 730 L 543 234 C 543 192 536 156 523 126 C 510 95 493 70 471 50 C 449 30 423 15 394 5 C 364 -4 333 -9 301 -9 C 269 -9 239 -4 211 5 C 183 14 158 28 137 48 C 116 67 99 92 87 123 C 74 154 68 191 68 234 L 68 730 L 166 730 L 166 233 C 166 180 179 141 206 116 C 232 91 265 79 303 79 C 341 79 373 90 400 114 C 427 138 441 177 441 233 L 441 730 L 543 730 Z M 303 774 L 303 774 Z M 303 774 C 269 774 240 786 216 810 C 192 834 180 863 180 897 C 180 931 192 959 216 983 C 240 1007 269 1019 303 1019 C 337 1019 366 1007 390 983 C 414 959 427 931 427 897 C 427 863 414 834 390 810 C 366 786 337 774 303 774 Z M 304 830 C 322 830 337 836 349 849 C 361 862 368 878 368 897 C 368 915 361 930 349 943 C 337 956 322 963 304 963 C 286 963 270 956 257 943 C 244 930 238 915 238 897 C 238 878 244 862 257 849 C 270 836 286 830 304 830 Z" unicode="Ů" />
<glyph horiz-adv-x="481" d="M 53 0 L 53 0 Z M 53 540 L 145 540 L 145 168 C 145 134 153 109 170 93 C 187 77 209 70 237 70 C 262 70 284 79 304 97 C 323 115 333 144 333 182 L 333 540 L 425 540 L 425 0 L 343 0 L 343 88 C 335 63 318 41 293 21 C 267 1 236 -8 198 -8 C 159 -8 125 4 96 29 C 67 53 53 90 53 138 L 53 540 Z M 239 584 L 239 584 Z M 239 584 C 205 584 176 596 152 620 C 128 644 116 673 116 707 C 116 741 128 769 152 793 C 176 817 205 829 239 829 C 273 829 302 817 326 793 C 350 769 363 741 363 707 C 363 673 350 644 326 620 C 302 596 273 584 239 584 Z M 240 640 C 258 640 273 646 285 659 C 297 672 304 688 304 707 C 304 725 297 740 285 753 C 273 766 258 773 240 773 C 222 773 206 766 193 753 C 180 740 174 725 174 707 C 174 688 180 672 193 659 C 206 646 222 640 240 640 Z" unicode="ů" />
<glyph horiz-adv-x="610" d="M 68 0 L 68 0 Z M 543 730 L 543 234 C 543 192 536 156 523 126 C 510 95 493 70 471 50 C 449 30 423 15 394 5 C 364 -4 333 -9 301 -9 C 269 -9 239 -4 211 5 C 183 14 158 28 137 48 C 116 67 99 92 87 123 C 74 154 68 191 68 234 L 68 730 L 166 730 L 166 233 C 166 180 179 141 206 116 C 232 91 265 79 303 79 C 341 79 373 90 400 114 C 427 138 441 177 441 233 L 441 730 L 543 730 Z M 303 788 L 303 788 Z M 129 788 L 203 944 L 301 944 L 211 788 L 129 788 Z M 304 788 L 379 944 L 477 944 L 386 788 L 304 788 Z" unicode="Ű" />
<glyph horiz-adv-x="481" d="M 53 0 L 53 0 Z M 53 540 L 145 540 L 145 168 C 145 134 153 109 170 93 C 187 77 209 70 237 70 C 262 70 284 79 304 97 C 323 115 333 144 333 182 L 333 540 L 425 540 L 425 0 L 343 0 L 343 88 C 335 63 318 41 293 21 C 267 1 236 -8 198 -8 C 159 -8 125 4 96 29 C 67 53 53 90 53 138 L 53 540 Z M 239 598 L 239 598 Z M 65 598 L 139 754 L 237 754 L 147 598 L 65 598 Z M 240 598 L 315 754 L 413 754 L 322 598 L 240 598 Z" unicode="ű" />
<glyph horiz-adv-x="610" d="M 68 0 L 68 0 Z M 543 730 L 543 234 C 543 192 536 156 523 126 C 510 95 493 70 471 50 C 449 30 423 15 394 5 C 364 -4 333 -9 301 -9 C 269 -9 239 -4 211 5 C 183 14 158 28 137 48 C 116 67 99 92 87 123 C 74 154 68 191 68 234 L 68 730 L 166 730 L 166 233 C 166 180 179 141 206 116 C 232 91 265 79 303 79 C 341 79 373 90 400 114 C 427 138 441 177 441 233 L 441 730 L 543 730 Z M 339 -8 L 339 -8 Z M 437 -96 L 464 -134 C 444 -154 422 -170 398 -181 C 374 -192 347 -198 319 -198 C 286 -198 261 -190 243 -176 C 225 -161 216 -142 216 -120 C 216 -96 226 -73 246 -52 C 266 -30 297 -12 337 3 L 381 3 C 352 -11 330 -25 316 -39 C 302 -53 295 -68 295 -83 C 295 -97 300 -108 310 -116 C 320 -124 333 -129 349 -129 C 367 -129 384 -125 399 -119 C 413 -113 426 -105 437 -96 Z" unicode="Ų" />
<glyph horiz-adv-x="481" d="M 53 0 L 53 0 Z M 53 540 L 145 540 L 145 168 C 145 134 153 109 170 93 C 187 77 209 70 237 70 C 262 70 284 79 304 97 C 323 115 333 144 333 182 L 333 540 L 425 540 L 425 0 L 343 0 L 343 88 C 335 63 318 41 293 21 C 267 1 236 -8 198 -8 C 159 -8 125 4 96 29 C 67 53 53 90 53 138 L 53 540 Z M 345 -8 L 345 -8 Z M 443 -96 L 470 -134 C 450 -154 428 -170 404 -181 C 380 -192 353 -198 325 -198 C 292 -198 267 -190 249 -176 C 231 -161 222 -142 222 -120 C 222 -96 232 -73 252 -52 C 272 -30 303 -12 343 3 L 387 3 C 358 -11 336 -25 322 -39 C 308 -53 301 -68 301 -83 C 301 -97 306 -108 316 -116 C 326 -124 339 -129 355 -129 C 373 -129 390 -125 405 -119 C 419 -113 432 -105 443 -96 Z" unicode="ų" />
<glyph horiz-adv-x="772" d="M 7 0 L 7 0 Z M 754 730 L 580 -4 L 515 -4 L 381 549 L 244 -4 L 179 -4 L 7 730 L 104 730 L 224 185 L 351 730 L 420 730 L 547 185 L 667 730 L 754 730 Z M 385 789 L 385 789 Z M 533 789 L 452 789 L 385 895 L 317 789 L 238 789 L 344 960 L 427 960 L 533 789 Z" unicode="Ŵ" />
<glyph horiz-adv-x="619" d="M 1 0 L 1 0 Z M 409 -2 L 314 323 L 210 -2 L 145 -2 L 1 540 L 89 540 L 189 148 L 283 462 L 349 462 L 436 150 L 536 540 L 618 540 L 473 -2 L 409 -2 Z M 312 599 L 312 599 Z M 460 599 L 379 599 L 312 705 L 244 599 L 165 599 L 271 770 L 354 770 L 460 599 Z" unicode="ŵ" />
<glyph horiz-adv-x="529" d="M 0 0 L 0 0 Z M 530 730 L 312 314 L 312 0 L 212 0 L 212 316 L -2 730 L 113 730 L 268 413 L 432 730 L 530 730 Z M 268 789 L 268 789 Z M 416 789 L 335 789 L 268 895 L 200 789 L 121 789 L 227 960 L 310 960 L 416 789 Z" unicode="Ŷ" />
<glyph horiz-adv-x="409" d="M 0 0 L 0 0 Z M 413 540 L 206 -89 C 193 -127 174 -155 149 -173 C 123 -191 97 -200 69 -200 C 45 -200 25 -197 10 -192 C -4 -187 -14 -182 -20 -178 L 15 -106 C 18 -108 24 -111 34 -114 C 44 -117 53 -119 63 -119 C 77 -119 91 -113 103 -103 C 115 -92 125 -75 133 -53 L 161 40 L -4 540 L 91 540 L 208 162 L 324 540 L 413 540 Z M 208 599 L 208 599 Z M 356 599 L 275 599 L 208 705 L 140 599 L 61 599 L 167 770 L 250 770 L 356 599 Z" unicode="ŷ" />
<glyph horiz-adv-x="529" d="M 0 0 L 0 0 Z M 530 730 L 312 314 L 312 0 L 212 0 L 212 316 L -2 730 L 113 730 L 268 413 L 432 730 L 530 730 Z M 268 789 L 268 789 Z M 387 789 L 311 789 L 311 947 L 387 947 L 387 789 Z M 225 789 L 149 789 L 149 947 L 225 947 L 225 789 Z" unicode="Ÿ" />
<glyph horiz-adv-x="476" d="M 17 0 L 17 0 Z M 448 730 L 448 682 L 142 85 L 460 85 L 460 0 L 17 0 L 17 46 L 320 643 L 46 643 L 46 730 L 448 730 Z M 246 791 L 246 791 Z M 147 791 L 238 960 L 345 960 L 237 791 L 147 791 Z" unicode="Ź" />
<glyph horiz-adv-x="376" d="M 14 0 L 14 0 Z M 354 540 L 354 500 L 133 80 L 365 80 L 365 0 L 14 0 L 14 35 L 236 459 L 26 459 L 26 540 L 354 540 Z M 197 601 L 197 601 Z M 98 601 L 189 770 L 296 770 L 188 601 L 98 601 Z" unicode="ź" />
<glyph horiz-adv-x="476" d="M 17 0 L 17 0 Z M 448 730 L 448 682 L 142 85 L 460 85 L 460 0 L 17 0 L 17 46 L 320 643 L 46 643 L 46 730 L 448 730 Z M 246 792 L 246 792 Z M 289 792 L 204 792 L 204 925 L 289 925 L 289 792 Z" unicode="Ż" />
<glyph horiz-adv-x="376" d="M 14 0 L 14 0 Z M 354 540 L 354 500 L 133 80 L 365 80 L 365 0 L 14 0 L 14 35 L 236 459 L 26 459 L 26 540 L 354 540 Z M 197 602 L 197 602 Z M 240 602 L 155 602 L 155 735 L 240 735 L 240 602 Z" unicode="ż" />
<glyph horiz-adv-x="476" d="M 17 0 L 17 0 Z M 448 730 L 448 682 L 142 85 L 460 85 L 460 0 L 17 0 L 17 46 L 320 643 L 46 643 L 46 730 L 448 730 Z M 246 789 L 246 789 Z M 99 960 L 180 960 L 247 853 L 315 960 L 394 960 L 288 789 L 205 789 L 99 960 Z" unicode="Ž" />
<glyph horiz-adv-x="376" d="M 14 0 L 14 0 Z M 354 540 L 354 500 L 133 80 L 365 80 L 365 0 L 14 0 L 14 35 L 236 459 L 26 459 L 26 540 L 354 540 Z M 197 599 L 197 599 Z M 50 770 L 131 770 L 198 663 L 266 770 L 345 770 L 239 599 L 156 599 L 50 770 Z" unicode="ž" />
<glyph horiz-adv-x="364" d="M 184 -60 C 181 -92 168 -119 145 -143 C 121 -167 92 -179 58 -179 C 40 -179 22 -177 6 -175 C -9 -172 -22 -169 -30 -165 L -21 -98 C -16 -98 -9 -100 0 -102 C 9 -104 18 -105 27 -105 C 47 -105 64 -98 80 -84 C 95 -70 104 -51 107 -27 L 138 325 L 43 325 L 43 407 L 145 407 L 165 628 C 168 664 182 692 207 712 C 231 731 256 741 282 741 C 295 741 308 740 321 739 C 334 738 342 737 345 737 L 338 656 C 336 656 332 657 326 658 C 320 658 314 659 308 659 C 289 659 273 652 261 640 C 249 627 242 607 240 581 L 225 407 L 329 407 L 329 325 L 218 325 L 184 -60 Z" unicode="ƒ" />
<glyph horiz-adv-x="475" d="M 26 0 L 26 0 Z M 239 -9 C 193 -9 152 -1 117 12 C 82 26 52 49 26 80 L 92 146 C 108 121 129 102 156 89 C 183 76 210 70 237 70 C 266 70 292 79 314 98 C 336 117 347 143 347 176 C 347 208 337 236 318 258 C 299 280 265 304 215 332 C 157 362 114 393 87 426 C 60 459 47 504 47 561 C 47 615 65 658 102 690 C 139 722 185 739 239 739 C 283 739 319 731 349 717 C 378 702 401 685 419 667 L 361 599 C 345 614 326 627 305 637 C 283 647 261 652 237 652 C 210 652 187 643 168 627 C 148 611 139 588 139 558 C 139 527 148 502 168 482 C 187 462 223 439 275 411 C 335 379 378 346 402 312 C 426 278 438 235 438 183 C 438 152 432 125 421 101 C 410 77 396 57 378 41 C 360 25 338 12 314 4 C 290 -4 265 -9 239 -9 Z M 224 -77 L 224 -77 Z M 312 -77 C 310 -101 306 -126 300 -152 C 294 -177 286 -201 276 -224 C 266 -246 256 -267 244 -287 C 232 -306 220 -322 208 -334 L 138 -302 C 145 -292 153 -279 161 -263 C 169 -246 177 -228 185 -208 C 193 -188 199 -166 205 -144 C 210 -121 213 -99 215 -77 L 312 -77 Z" unicode="Ș" />
<glyph horiz-adv-x="376" d="M 23 0 L 23 0 Z M 198 -7 C 160 -7 125 0 95 12 C 65 25 41 43 23 65 L 69 129 C 83 111 101 96 122 86 C 143 76 165 71 188 71 C 208 71 226 77 242 90 C 257 102 265 120 265 143 C 265 165 256 183 240 198 C 223 212 197 228 162 245 C 122 263 92 285 72 311 C 52 337 42 370 42 410 C 42 449 56 482 84 508 C 112 534 148 547 192 547 C 227 547 257 542 281 532 C 305 522 325 510 340 498 L 306 423 C 292 433 276 443 258 453 C 240 463 220 468 200 468 C 179 468 161 462 146 452 C 131 442 124 427 124 409 C 124 389 130 374 144 362 C 158 350 184 335 222 317 C 266 294 298 269 318 243 C 338 217 349 183 349 141 C 349 116 344 94 336 76 C 327 57 315 41 301 29 C 287 17 271 8 253 2 C 235 -4 216 -7 198 -7 Z M 181 -75 L 181 -75 Z M 269 -75 C 267 -99 263 -124 257 -150 C 251 -175 243 -199 233 -222 C 223 -244 213 -265 201 -285 C 189 -304 177 -320 165 -332 L 95 -300 C 102 -290 110 -277 118 -261 C 126 -244 134 -226 142 -206 C 150 -186 156 -164 162 -142 C 167 -119 170 -97 172 -75 L 269 -75 Z" unicode="ș" />
<glyph horiz-adv-x="435" d="M 8 0 L 8 0 Z M 427 643 L 267 643 L 267 0 L 167 0 L 167 643 L 8 643 L 8 730 L 427 730 L 427 643 Z M 189 -74 L 189 -74 Z M 277 -74 C 275 -98 271 -123 265 -149 C 259 -174 251 -198 241 -221 C 231 -243 221 -264 209 -284 C 197 -303 185 -319 173 -331 L 103 -299 C 110 -289 118 -276 126 -260 C 134 -243 142 -225 150 -205 C 158 -185 164 -163 170 -141 C 175 -118 178 -96 180 -74 L 277 -74 Z" unicode="Ț" />
<glyph horiz-adv-x="275" d="M 8 0 L 8 0 Z M 253 95 L 270 19 C 262 13 250 7 236 3 C 222 -1 204 -4 184 -4 C 153 -4 126 7 102 29 C 78 51 67 83 67 126 L 67 461 L 8 461 L 8 540 L 69 540 L 69 657 L 158 669 L 158 540 L 254 540 L 254 461 L 159 461 L 159 134 C 159 117 163 104 171 95 C 179 86 190 82 205 82 C 214 82 223 83 232 86 C 241 89 248 92 253 95 Z M 131 -74 L 131 -74 Z M 219 -74 C 217 -98 213 -123 207 -149 C 201 -174 193 -198 183 -221 C 173 -243 163 -264 151 -284 C 139 -303 127 -319 115 -331 L 45 -299 C 52 -289 60 -276 68 -260 C 76 -243 84 -225 92 -205 C 100 -185 106 -163 112 -141 C 117 -118 120 -96 122 -74 L 219 -74 Z" unicode="ț" />
<glyph horiz-adv-x="225" d="M 170 540 L 170 -45 C 170 -87 157 -120 132 -145 C 106 -170 76 -183 40 -183 C 20 -183 1 -180 -16 -174 C -33 -168 -45 -161 -53 -155 L -23 -91 C -17 -93 -10 -96 -2 -99 C 6 -101 16 -103 28 -103 C 41 -103 53 -97 63 -85 C 73 -73 78 -57 78 -37 L 78 540 L 170 540 Z" unicode="ȷ" />
<glyph horiz-adv-x="500" d="M 398 599 L 317 599 L 250 705 L 182 599 L 103 599 L 209 770 L 292 770 L 398 599 Z" unicode="ˆ" />
<glyph horiz-adv-x="500" d="M 103 770 L 184 770 L 251 663 L 319 770 L 398 770 L 292 599 L 209 599 L 103 770 Z" unicode="ˇ" />
<glyph horiz-adv-x="500" d="M 314 761 L 391 761 C 387 706 372 666 346 641 C 320 615 288 603 250 603 C 211 603 179 615 153 641 C 127 666 113 706 110 761 L 186 761 C 188 735 193 713 203 697 C 212 681 228 673 250 673 C 272 673 287 680 297 696 C 307 712 312 733 314 761 Z" unicode="˘" />
<glyph horiz-adv-x="500" d="M 293 602 L 208 602 L 208 735 L 293 735 L 293 602 Z" unicode="˙" />
<glyph horiz-adv-x="506" d="M 253 584 C 219 584 190 596 166 620 C 142 644 130 673 130 707 C 130 741 142 769 166 793 C 190 817 219 829 253 829 C 287 829 316 817 340 793 C 364 769 377 741 377 707 C 377 673 364 644 340 620 C 316 596 287 584 253 584 Z M 254 640 C 272 640 287 646 299 659 C 311 672 318 688 318 707 C 318 725 311 740 299 753 C 287 766 272 773 254 773 C 236 773 220 766 207 753 C 194 740 188 725 188 707 C 188 688 194 672 207 659 C 220 646 236 640 254 640 Z" unicode="˚" />
<glyph horiz-adv-x="500" d="M 354 -88 L 381 -126 C 361 -146 339 -162 315 -173 C 291 -184 264 -190 236 -190 C 203 -190 178 -182 160 -168 C 142 -153 133 -134 133 -112 C 133 -88 143 -65 163 -44 C 183 -22 214 -4 254 11 L 298 11 C 269 -3 247 -17 233 -31 C 219 -45 212 -60 212 -75 C 212 -89 217 -100 227 -108 C 237 -116 250 -121 266 -121 C 284 -121 301 -117 316 -111 C 330 -105 343 -97 354 -88 Z" unicode="˛" />
<glyph horiz-adv-x="500" d="M 343 742 L 413 742 C 413 695 406 660 393 638 C 379 616 361 605 339 605 C 321 605 305 608 291 616 C 277 623 265 630 255 638 C 245 644 235 651 226 658 C 216 665 207 669 199 669 C 189 669 181 663 175 653 C 168 642 164 627 164 609 L 94 609 C 94 655 103 689 121 712 C 139 734 159 746 180 746 C 196 746 210 742 222 735 C 234 727 246 719 258 711 C 266 704 275 698 284 692 C 292 686 301 684 310 684 C 318 684 326 689 333 699 C 339 709 343 723 343 742 Z" unicode="˜" />
<glyph horiz-adv-x="500" d="M 93 598 L 167 754 L 265 754 L 175 598 L 93 598 Z M 268 598 L 343 754 L 441 754 L 350 598 L 268 598 Z" unicode="˝" />
<glyph horiz-adv-x="0" d="M 0 598 L 0 598 Z M 99 598 L 9 598 L -100 767 L 7 767 L 99 598 Z" unicode="̀" />
<glyph horiz-adv-x="0" d="M 0 601 L 0 601 Z M -99 601 L -8 770 L 99 770 L -9 601 L -99 601 Z" unicode="́" />
<glyph horiz-adv-x="0" d="M 0 599 L 0 599 Z M 148 599 L 67 599 L 0 705 L -68 599 L -147 599 L -41 770 L 42 770 L 148 599 Z" unicode="̂" />
<glyph horiz-adv-x="0" d="M 0 605 L 0 605 Z M 90 742 L 160 742 C 160 695 153 660 140 638 C 126 616 108 605 86 605 C 68 605 52 608 38 616 C 24 623 12 630 2 638 C -8 644 -17 651 -27 658 C -36 665 -45 669 -54 669 C -63 669 -71 663 -78 653 C -84 642 -88 627 -89 609 L -159 609 C -159 655 -149 689 -131 712 C -113 734 -93 746 -73 746 C -57 746 -43 742 -31 735 C -19 727 -7 719 5 711 C 13 704 22 698 31 692 C 39 686 48 684 57 684 C 65 684 73 689 80 699 C 86 709 90 723 90 742 Z" unicode="̃" />
<glyph horiz-adv-x="0" d="M 0 613 L 0 613 Z M 125 613 L -125 613 L -125 691 L 125 691 L 125 613 Z" unicode="̄" />
<glyph horiz-adv-x="0" d="M 0 603 L 0 603 Z M 64 761 L 141 761 C 137 706 122 666 96 641 C 70 615 38 603 0 603 C -38 603 -70 615 -96 641 C -122 666 -136 706 -140 761 L -64 761 C -62 735 -56 713 -47 697 C -37 681 -22 673 0 673 C 22 673 37 680 47 696 C 57 712 62 733 64 761 Z" unicode="̆" />
<glyph horiz-adv-x="0" d="M 0 602 L 0 602 Z M 43 602 L -42 602 L -42 735 L 43 735 L 43 602 Z" unicode="̇" />
<glyph horiz-adv-x="0" d="M 0 599 L 0 599 Z M 119 599 L 43 599 L 43 757 L 119 757 L 119 599 Z M -43 599 L -119 599 L -119 757 L -43 757 L -43 599 Z" unicode="̈" />
<glyph horiz-adv-x="0" d="M 0 584 L 0 584 Z M 0 584 C -34 584 -63 596 -87 620 C -111 644 -123 673 -123 707 C -123 741 -111 769 -87 793 C -63 817 -34 829 0 829 C 34 829 63 817 87 793 C 111 769 124 741 124 707 C 124 673 111 644 87 620 C 63 596 34 584 0 584 Z M 1 640 C 19 640 34 646 46 659 C 58 672 65 688 65 707 C 65 725 58 740 46 753 C 34 766 19 773 1 773 C -17 773 -32 766 -45 753 C -58 740 -65 725 -65 707 C -65 688 -58 672 -45 659 C -32 646 -17 640 1 640 Z" unicode="̊" />
<glyph horiz-adv-x="0" d="M 0 598 L 0 598 Z M -174 598 L -100 754 L -2 754 L -92 598 L -174 598 Z M 1 598 L 76 754 L 174 754 L 83 598 L 1 598 Z" unicode="̋" />
<glyph horiz-adv-x="0" d="M 0 599 L 0 599 Z M -147 770 L -66 770 L 1 663 L 69 770 L 148 770 L 42 599 L -41 599 L -147 770 Z" unicode="̌" />
<glyph horiz-adv-x="0" d="M 0 -74 L 0 -74 Z M 88 -74 C 86 -98 82 -123 76 -149 C 70 -174 62 -198 52 -221 C 42 -243 32 -264 20 -284 C 8 -303 -4 -319 -16 -331 L -86 -299 C -78 -289 -70 -276 -62 -260 C -54 -243 -46 -225 -38 -205 C -30 -185 -24 -163 -19 -141 C -13 -118 -10 -96 -9 -74 L 88 -74 Z" unicode="̦" />
<glyph horiz-adv-x="0" d="M 0 0 L 0 0 Z M 6 -183 C -15 -183 -36 -180 -57 -174 C -78 -168 -95 -160 -108 -150 L -88 -113 C -80 -118 -69 -123 -56 -129 C -42 -135 -28 -138 -12 -138 C 0 -138 11 -134 21 -128 C 31 -122 36 -113 36 -103 C 36 -91 31 -82 23 -77 C 14 -71 4 -69 -6 -69 C -12 -69 -19 -69 -25 -70 C -31 -71 -36 -73 -42 -76 L -53 -59 L 2 13 L 50 13 L 6 -45 C 34 -42 58 -46 78 -56 C 98 -66 108 -84 108 -108 C 108 -132 98 -150 78 -163 C 58 -176 34 -183 6 -183 Z" unicode="̧" />
<glyph horiz-adv-x="0" d="M 0 0 L 0 0 Z M 98 -88 L 125 -126 C 105 -146 83 -162 59 -173 C 35 -184 8 -190 -20 -190 C -52 -190 -78 -182 -96 -168 C -114 -153 -123 -134 -123 -112 C -123 -88 -112 -65 -92 -44 C -72 -22 -42 -4 -2 11 L 42 11 C 13 -3 -8 -17 -22 -31 C -36 -45 -44 -60 -44 -75 C -44 -89 -39 -100 -29 -108 C -19 -116 -6 -121 10 -121 C 28 -121 45 -117 60 -111 C 74 -105 87 -97 98 -88 Z" unicode="̨" />
<glyph horiz-adv-x="566" d="M 1 0 L 1 0 Z M 586 0 L 1 0 L 274 731 L 315 731 L 586 0 Z M 462 73 L 290 570 L 120 73 L 462 73 Z" unicode="Δ" />
<glyph horiz-adv-x="724" d="M 29 0 L 29 0 Z M 38 0 L 38 85 L 248 85 L 248 153 C 215 163 185 177 158 196 C 131 215 108 237 89 263 C 70 289 55 317 45 348 C 34 379 29 411 29 445 C 29 487 36 526 51 563 C 66 599 88 631 116 658 C 144 685 179 706 221 722 C 262 738 308 746 360 746 C 413 746 461 738 503 722 C 545 706 581 684 610 657 C 638 630 660 598 676 562 C 691 525 699 486 699 445 C 699 377 680 317 643 264 C 605 210 551 173 479 153 L 479 85 L 689 85 L 689 0 L 411 0 L 411 203 C 441 211 467 224 491 241 C 514 257 533 276 549 297 C 565 318 577 341 585 365 C 593 389 598 414 598 440 C 598 473 592 504 580 532 C 568 560 552 584 531 604 C 510 624 485 639 456 651 C 427 662 395 668 361 668 C 293 668 237 646 194 603 C 151 560 130 505 130 438 C 130 413 134 389 142 365 C 150 341 161 319 177 299 C 192 278 211 259 235 243 C 258 226 285 213 316 203 L 316 0 L 38 0 Z" unicode="Ω" />
<glyph horiz-adv-x="589" d="M 73 0 L 73 0 Z M 73 -135 L 73 540 L 164 540 L 164 169 C 164 139 176 115 202 95 C 228 75 257 66 290 66 C 306 66 323 68 340 74 C 357 79 372 87 386 98 C 399 108 410 122 419 138 C 427 154 432 172 432 193 L 432 540 L 523 540 L 523 0 L 439 0 L 439 99 C 434 85 426 72 415 60 C 403 47 390 36 375 26 C 359 16 343 9 325 3 C 307 -3 289 -6 271 -7 C 247 -7 224 -1 202 8 C 180 18 165 33 157 52 L 157 -135 L 73 -135 Z" unicode="μ" />
<glyph horiz-adv-x="562" d="M 178 469 L 178 0 L 86 0 L 86 469 L 15 469 L 15 540 L 547 540 L 547 469 L 472 469 L 472 0 L 380 0 L 380 469 L 178 469 Z" unicode="π" />
<glyph horiz-adv-x="772" d="M 7 0 L 7 0 Z M 754 730 L 580 -4 L 515 -4 L 381 549 L 244 -4 L 179 -4 L 7 730 L 104 730 L 224 185 L 351 730 L 420 730 L 547 185 L 667 730 L 754 730 Z M 385 788 L 385 788 Z M 484 788 L 394 788 L 285 957 L 392 957 L 484 788 Z" unicode="Ẁ" />
<glyph horiz-adv-x="619" d="M 1 0 L 1 0 Z M 409 -2 L 314 323 L 210 -2 L 145 -2 L 1 540 L 89 540 L 189 148 L 283 462 L 349 462 L 436 150 L 536 540 L 618 540 L 473 -2 L 409 -2 Z M 312 598 L 312 598 Z M 411 598 L 321 598 L 212 767 L 319 767 L 411 598 Z" unicode="ẁ" />
<glyph horiz-adv-x="772" d="M 7 0 L 7 0 Z M 754 730 L 580 -4 L 515 -4 L 381 549 L 244 -4 L 179 -4 L 7 730 L 104 730 L 224 185 L 351 730 L 420 730 L 547 185 L 667 730 L 754 730 Z M 385 791 L 385 791 Z M 286 791 L 377 960 L 484 960 L 376 791 L 286 791 Z" unicode="Ẃ" />
<glyph horiz-adv-x="619" d="M 1 0 L 1 0 Z M 409 -2 L 314 323 L 210 -2 L 145 -2 L 1 540 L 89 540 L 189 148 L 283 462 L 349 462 L 436 150 L 536 540 L 618 540 L 473 -2 L 409 -2 Z M 312 601 L 312 601 Z M 213 601 L 304 770 L 411 770 L 303 601 L 213 601 Z" unicode="ẃ" />
<glyph horiz-adv-x="772" d="M 7 0 L 7 0 Z M 754 730 L 580 -4 L 515 -4 L 381 549 L 244 -4 L 179 -4 L 7 730 L 104 730 L 224 185 L 351 730 L 420 730 L 547 185 L 667 730 L 754 730 Z M 385 789 L 385 789 Z M 504 789 L 428 789 L 428 947 L 504 947 L 504 789 Z M 342 789 L 266 789 L 266 947 L 342 947 L 342 789 Z" unicode="Ẅ" />
<glyph horiz-adv-x="619" d="M 1 0 L 1 0 Z M 409 -2 L 314 323 L 210 -2 L 145 -2 L 1 540 L 89 540 L 189 148 L 283 462 L 349 462 L 436 150 L 536 540 L 618 540 L 473 -2 L 409 -2 Z M 312 599 L 312 599 Z M 431 599 L 355 599 L 355 757 L 431 757 L 431 599 Z M 269 599 L 193 599 L 193 757 L 269 757 L 269 599 Z" unicode="ẅ" />
<glyph horiz-adv-x="529" d="M 0 0 L 0 0 Z M 530 730 L 312 314 L 312 0 L 212 0 L 212 316 L -2 730 L 113 730 L 268 413 L 432 730 L 530 730 Z M 268 788 L 268 788 Z M 367 788 L 277 788 L 168 957 L 275 957 L 367 788 Z" unicode="Ỳ" />
<glyph horiz-adv-x="409" d="M 0 0 L 0 0 Z M 413 540 L 206 -89 C 193 -127 174 -155 149 -173 C 123 -191 97 -200 69 -200 C 45 -200 25 -197 10 -192 C -4 -187 -14 -182 -20 -178 L 15 -106 C 18 -108 24 -111 34 -114 C 44 -117 53 -119 63 -119 C 77 -119 91 -113 103 -103 C 115 -92 125 -75 133 -53 L 161 40 L -4 540 L 91 540 L 208 162 L 324 540 L 413 540 Z M 208 598 L 208 598 Z M 307 598 L 217 598 L 108 767 L 215 767 L 307 598 Z" unicode="ỳ" />
<glyph horiz-adv-x="460" d="M 420 227 L 41 227 L 41 307 L 420 307 L 420 227 Z" unicode="–" />
<glyph horiz-adv-x="645" d="M 605 227 L 41 227 L 41 307 L 605 307 L 605 227 Z" unicode="—" />
<glyph horiz-adv-x="243" d="M 38 507 L 38 514 C 38 555 46 594 62 632 C 78 669 102 704 134 737 L 223 731 C 213 721 202 708 192 694 C 182 680 172 663 163 645 C 154 627 147 607 141 585 C 135 563 133 539 133 515 L 133 507 L 38 507 Z" unicode="‘" />
<glyph horiz-adv-x="243" d="M 205 737 L 205 730 C 205 689 197 650 181 613 C 165 576 141 541 109 507 L 20 513 C 30 523 40 536 50 551 C 60 565 70 582 79 600 C 88 618 95 637 101 659 C 107 681 110 704 110 729 L 110 737 L 205 737 Z" unicode="’" />
<glyph horiz-adv-x="244" d="M 204 112 L 204 105 C 204 64 196 25 180 -11 C 164 -48 140 -84 108 -118 L 19 -112 C 29 -101 39 -88 49 -74 C 59 -59 69 -43 78 -25 C 87 -7 94 12 100 34 C 106 56 109 79 109 104 L 109 112 L 204 112 Z" unicode="‚" />
<glyph horiz-adv-x="401" d="M 208 507 L 208 514 C 208 554 216 592 232 629 C 248 665 273 701 306 737 L 391 731 C 381 721 371 708 360 694 C 349 679 339 663 330 645 C 320 627 313 607 307 585 C 301 563 298 539 298 515 L 298 507 L 208 507 Z M 39 507 L 39 514 C 39 554 47 592 63 629 C 79 665 104 701 137 737 L 221 731 C 212 721 202 708 191 694 C 180 680 170 663 161 645 C 152 627 144 607 138 585 C 132 563 129 539 129 515 L 129 507 L 39 507 Z" unicode="“" />
<glyph horiz-adv-x="401" d="M 201 737 L 201 730 C 201 689 193 650 177 614 C 161 577 137 541 105 507 L 20 513 C 40 535 61 565 81 601 C 101 637 111 679 111 729 L 111 737 L 201 737 Z M 362 737 L 362 730 C 362 689 354 650 338 613 C 322 576 298 541 266 507 L 182 513 C 202 535 222 565 242 601 C 262 637 272 679 272 729 L 272 737 L 362 737 Z" unicode="”" />
<glyph horiz-adv-x="404" d="M 200 114 L 200 107 C 200 65 192 26 176 -10 C 160 -46 136 -82 104 -116 L 19 -110 C 39 -88 60 -59 80 -23 C 100 13 110 56 110 106 L 110 114 L 200 114 Z M 364 114 L 364 107 C 364 65 356 26 340 -10 C 324 -46 300 -82 268 -116 L 183 -110 C 203 -87 224 -58 244 -22 C 264 13 274 56 274 106 L 274 114 L 364 114 Z" unicode="„" />
<glyph horiz-adv-x="462" d="M 442 387 L 277 387 L 277 -179 L 180 -179 L 180 387 L 21 387 L 21 473 L 180 473 L 180 730 L 277 730 L 277 473 L 442 473 L 442 387 Z" unicode="†" />
<glyph horiz-adv-x="468" d="M 183 -179 L 183 114 L 28 114 L 28 200 L 183 200 L 183 385 L 28 385 L 28 471 L 183 471 L 183 730 L 280 730 L 280 471 L 441 471 L 441 385 L 280 385 L 280 200 L 441 200 L 441 114 L 280 114 L 280 -179 L 183 -179 Z" unicode="‡" />
<glyph horiz-adv-x="382" d="M 191 465 C 215 465 235 456 252 440 C 268 423 277 403 277 379 C 277 355 268 334 252 318 C 235 302 215 294 191 294 C 167 294 146 302 130 318 C 114 334 106 355 106 379 C 106 403 114 423 130 440 C 146 456 167 465 191 465 Z" unicode="•" />
<glyph horiz-adv-x="651" d="M 62 0 L 62 127 L 156 127 L 156 0 L 62 0 Z M 279 0 L 279 127 L 372 127 L 372 0 L 279 0 Z M 495 0 L 495 127 L 589 127 L 589 0 L 495 0 Z" unicode="…" />
<glyph horiz-adv-x="1072" d="M 184 358 C 165 358 147 362 129 370 C 111 378 96 391 82 407 C 68 423 57 442 49 466 C 41 490 37 517 37 548 C 37 574 40 599 48 623 C 55 646 65 666 78 684 C 91 701 107 715 125 725 C 143 735 162 740 183 740 C 205 740 226 735 244 725 C 262 715 278 701 291 684 C 304 666 314 646 321 623 C 328 600 332 576 332 551 C 332 524 328 499 321 475 C 313 451 303 431 290 414 C 276 396 261 383 243 373 C 225 363 205 358 184 358 Z M 100 0 L 547 730 L 626 730 L 180 0 L 100 0 Z M 112 548 C 112 515 117 487 129 463 C 140 439 158 428 183 428 C 209 428 228 440 240 464 C 251 488 257 516 257 548 C 257 579 251 607 241 631 C 230 655 211 668 185 668 C 159 668 140 656 129 632 C 117 608 112 580 112 548 Z M 554 -3 C 535 -3 517 1 499 9 C 481 17 465 30 451 46 C 437 62 426 82 418 106 C 410 130 406 157 406 188 C 406 214 409 239 417 263 C 424 286 434 306 448 324 C 461 341 477 355 495 365 C 513 375 533 380 555 380 C 577 380 598 374 616 364 C 634 354 650 340 663 323 C 675 306 685 286 692 263 C 699 240 703 216 703 191 C 703 164 699 139 692 115 C 684 91 674 71 661 53 C 648 35 632 22 614 12 C 596 2 576 -3 554 -3 Z M 885 -3 C 866 -3 848 1 830 9 C 812 17 796 30 782 46 C 768 62 756 82 748 106 C 740 130 736 157 736 188 C 736 214 739 239 747 263 C 754 286 764 306 778 324 C 791 341 807 355 825 365 C 843 375 864 380 886 380 C 908 380 929 374 947 364 C 965 354 981 340 994 323 C 1006 306 1016 286 1023 263 C 1030 240 1034 216 1034 191 C 1034 164 1030 139 1023 115 C 1015 91 1005 71 992 53 C 979 35 963 22 945 12 C 927 2 907 -3 885 -3 Z M 553 69 C 579 69 599 80 611 104 C 623 127 629 155 629 188 C 629 220 623 248 611 272 C 599 296 581 309 555 309 C 530 309 511 297 499 273 C 487 249 481 220 481 188 C 481 154 487 126 499 103 C 511 80 529 69 553 69 Z M 883 69 C 909 69 929 80 941 104 C 953 127 959 155 959 188 C 959 220 953 248 942 272 C 930 296 912 309 886 309 C 861 309 842 297 830 273 C 817 249 811 220 811 188 C 811 154 817 126 829 103 C 841 80 859 69 883 69 Z" unicode="‰" />
<glyph horiz-adv-x="238" d="M 209 112 L 28 280 L 28 333 L 209 499 L 209 408 L 108 304 L 209 205 L 209 112 Z" unicode="‹" />
<glyph horiz-adv-x="239" d="M 29 500 L 212 332 L 212 280 L 29 114 L 29 203 L 130 308 L 29 407 L 29 500 Z" unicode="›" />
<glyph horiz-adv-x="145" d="M 303 730 L -67 0 L -145 0 L 225 730 L 303 730 Z" unicode="⁄" />
<glyph horiz-adv-x="327" d="M 15 455 L 15 511 L 201 738 L 254 738 L 254 514 L 315 514 L 315 455 L 254 455 L 254 373 L 178 373 L 178 455 L 15 455 Z M 87 509 L 180 509 L 180 626 L 87 509 Z" unicode="⁴" />
<glyph horiz-adv-x="503" d="M 489 116 C 471 78 445 48 411 24 C 377 0 339 -12 298 -12 C 242 -12 195 11 155 58 C 115 105 90 172 78 259 L 30 259 L 30 325 L 72 325 C 71 331 71 337 71 343 C 71 349 71 355 71 362 C 71 368 71 375 71 381 C 71 387 71 394 72 400 L 30 400 L 30 466 L 77 466 C 87 550 111 617 149 667 C 187 717 236 742 297 742 C 348 742 388 730 417 707 C 446 683 468 656 482 626 L 415 587 C 403 611 388 629 371 642 C 353 654 330 661 300 661 C 266 661 237 644 214 611 C 190 577 174 529 166 466 L 445 466 L 445 400 L 160 400 C 159 393 159 386 159 379 C 159 372 159 365 159 359 C 159 353 159 347 159 341 C 159 335 159 330 160 325 L 445 325 L 445 259 L 166 259 C 174 193 192 145 218 114 C 244 82 272 67 303 67 C 331 67 356 75 376 93 C 396 111 412 133 424 159 L 489 116 Z" unicode="€" />
<glyph horiz-adv-x="839" d="M 788 322 L 709 322 L 709 594 L 579 398 L 564 398 L 437 594 L 437 322 L 360 322 L 360 730 L 430 730 L 574 510 L 723 730 L 788 730 L 788 322 Z M 331 640 L 225 640 L 225 322 L 129 322 L 129 640 L 21 640 L 21 730 L 331 730 L 331 640 Z" unicode="™" />
<glyph horiz-adv-x="728" d="M 38 0 L 38 85 L 248 85 L 248 153 C 215 163 185 177 158 196 C 131 215 108 237 89 263 C 70 289 55 317 45 348 C 34 379 29 411 29 445 C 29 487 36 526 51 563 C 66 599 88 631 116 658 C 144 685 179 706 221 722 C 262 738 308 746 360 746 C 413 746 461 738 503 722 C 545 706 581 684 610 657 C 638 630 660 598 676 562 C 691 525 699 486 699 445 C 699 377 680 317 643 264 C 605 210 551 173 479 153 L 479 85 L 689 85 L 689 0 L 411 0 L 411 203 C 441 211 467 224 491 241 C 514 257 533 276 549 297 C 565 318 577 341 585 365 C 593 389 598 414 598 440 C 598 473 592 504 580 532 C 568 560 552 584 531 604 C 510 624 485 639 456 651 C 427 662 395 668 361 668 C 293 668 237 646 194 603 C 151 560 130 505 130 438 C 130 413 134 389 142 365 C 150 341 161 319 177 299 C 192 278 211 259 235 243 C 258 226 285 213 316 203 L 316 0 L 38 0 Z" unicode="Ω" />
<glyph horiz-adv-x="502" d="M 462 283 C 462 231 456 187 445 150 C 433 113 418 83 399 59 C 379 35 356 18 330 7 C 304 -3 276 -9 247 -9 C 219 -9 193 -3 167 6 C 141 16 118 31 98 51 C 78 70 62 94 50 123 C 38 152 32 185 32 222 C 32 256 37 287 48 317 C 58 346 73 371 91 392 C 109 413 130 430 155 442 C 179 454 205 460 233 460 C 269 460 299 452 323 436 C 347 420 366 399 379 373 C 372 436 359 490 341 536 C 323 582 302 619 278 648 C 254 677 229 699 203 713 C 177 727 152 734 129 735 L 173 802 C 197 802 226 792 260 773 C 293 754 324 724 354 683 C 384 641 409 588 430 522 C 451 456 462 376 462 283 Z M 246 65 C 283 65 312 79 334 109 C 355 138 366 179 366 231 C 366 277 355 314 335 342 C 314 370 284 384 245 384 C 209 384 181 369 160 341 C 138 313 128 274 128 225 C 128 172 138 132 160 105 C 181 78 210 65 246 65 Z" unicode="∂" />
<glyph horiz-adv-x="587" d="M 586 0 L 1 0 L 274 731 L 315 731 L 586 0 Z M 462 73 L 290 570 L 120 73 L 462 73 Z" unicode="∆" />
<glyph horiz-adv-x="662" d="M 218 647 L 218 0 L 122 0 L 122 647 L 15 647 L 15 730 L 647 730 L 647 647 L 545 647 L 545 0 L 449 0 L 449 647 L 218 647 Z" unicode="∏" />
<glyph horiz-adv-x="561" d="M 174 645 L 395 307 L 141 -94 L 526 -94 L 526 -179 L -15 -179 L 299 306 L 15 730 L 505 730 L 505 645 L 174 645 Z" unicode="∑" />
<glyph horiz-adv-x="486" d="M 445 293 L 41 293 L 41 371 L 445 371 L 445 293 Z" unicode="−" />
<glyph horiz-adv-x="510" d="M 502 730 L 198 0 L 186 0 L 13 329 L 79 378 L 203 130 L 443 730 L 502 730 Z" unicode="√" />
<glyph horiz-adv-x="338" d="M 107 -27 L 165 628 C 168 664 182 692 207 712 C 231 731 256 741 282 741 C 295 741 308 740 321 739 C 334 738 342 737 345 737 L 338 656 C 336 656 332 657 326 658 C 320 658 314 659 308 659 C 289 659 273 652 261 640 C 249 627 242 607 240 581 L 184 -60 C 181 -92 168 -120 145 -144 C 121 -168 92 -179 58 -179 C 39 -179 22 -177 6 -173 C -10 -169 -22 -165 -30 -161 L -20 -96 C -16 -96 -9 -98 0 -101 C 9 -103 18 -105 27 -105 C 47 -105 64 -98 80 -84 C 95 -70 104 -51 107 -27 Z" unicode="∫" />
<glyph horiz-adv-x="481" d="M 381 499 L 449 499 C 447 451 438 412 422 382 C 406 352 381 337 347 337 C 324 337 303 341 285 351 C 266 361 250 372 238 384 C 225 396 212 406 200 415 C 187 424 173 429 159 429 C 145 429 131 420 118 404 C 105 388 99 366 99 340 L 32 340 C 32 390 42 429 62 458 C 82 486 108 501 141 501 C 163 501 184 495 204 484 C 223 473 239 461 253 449 C 265 438 277 428 289 420 C 301 411 314 407 328 407 C 346 407 360 414 368 430 C 376 445 381 468 381 499 Z M 381 322 L 449 322 C 447 274 438 235 422 205 C 406 175 381 161 347 161 C 324 161 303 165 285 174 C 267 183 251 194 238 207 C 225 219 212 230 200 238 C 188 246 174 250 160 250 C 146 250 132 242 119 227 C 105 212 99 191 99 164 L 32 164 C 32 213 42 252 62 281 C 82 309 108 324 141 324 C 163 324 184 318 203 306 C 221 294 237 281 251 269 C 263 258 276 249 288 241 C 300 233 314 229 328 229 C 346 229 360 236 368 251 C 376 265 381 289 381 322 Z" unicode="≈" />
<glyph horiz-adv-x="481" d="M 438 175 L 220 175 L 174 67 L 117 87 L 154 175 L 59 175 L 59 251 L 186 251 L 245 391 L 59 391 L 59 466 L 277 466 L 322 572 L 379 552 L 343 466 L 438 466 L 438 391 L 311 391 L 252 251 L 438 251 L 438 175 Z" unicode="≠" />
<glyph horiz-adv-x="481" d="M 55 295 L 55 355 L 424 554 L 424 475 L 145 327 L 423 181 L 423 102 L 55 295 Z M 54 90 L 423 90 L 423 23 L 54 23 L 54 90 Z" unicode="≤" />
<glyph horiz-adv-x="481" d="M 422 295 L 54 102 L 54 181 L 331 327 L 53 475 L 53 554 L 422 355 L 422 295 Z M 423 90 L 423 23 L 54 23 L 54 90 L 423 90 Z" unicode="≥" />
<glyph horiz-adv-x="533" d="M 504 326 L 272 -16 L 261 -16 L 30 326 L 30 337 L 261 678 L 272 678 L 504 337 L 504 326 Z M 417 327 L 417 336 L 271 556 L 263 556 L 117 336 L 117 327 L 263 106 L 271 106 L 417 327 Z" unicode="◊" />
<glyph horiz-adv-x="730" d="M 448 678 L 282 678 L 282 730 L 448 730 L 448 678 Z M 659 282 L 605 282 L 605 448 L 659 448 L 659 282 Z M 125 282 L 71 282 L 71 448 L 125 448 L 125 282 Z M 428 302 L 302 302 L 302 428 L 428 428 L 428 302 Z M 448 0 L 282 0 L 282 53 L 448 53 L 448 0 Z" unicode="" />
<glyph horiz-adv-x="497" d="M 277 448 L 176 448 L 176 0 L 84 0 L 84 448 L 17 448 L 17 520 L 84 520 L 84 629 C 84 656 88 680 97 702 C 106 724 118 742 133 757 C 147 771 164 782 182 790 C 200 798 218 802 236 802 C 254 802 272 799 290 795 C 307 791 319 786 327 782 L 303 712 C 298 714 290 717 279 720 C 268 722 258 724 249 724 C 231 724 214 716 198 700 C 182 684 174 658 174 624 L 174 520 L 277 520 L 277 448 Z M 441 625 L 344 625 L 344 711 L 441 711 L 441 625 Z M 438 0 L 346 0 L 346 520 L 438 520 L 438 0 Z" unicode="ﬁ" />
<glyph horiz-adv-x="521" d="M 279 460 L 175 460 L 175 0 L 83 0 L 83 460 L 11 460 L 11 540 L 83 540 L 83 629 C 83 656 87 680 96 702 C 105 724 117 742 132 757 C 146 771 163 782 181 790 C 199 798 217 802 235 802 C 253 802 271 799 289 795 C 306 791 318 786 326 782 L 302 712 C 297 714 289 717 278 720 C 267 722 257 724 248 724 C 230 724 213 716 197 700 C 181 684 173 658 173 624 L 173 540 L 279 540 L 279 460 Z M 339 110 L 339 800 L 431 800 L 431 131 C 431 113 435 100 443 91 C 451 82 463 78 479 78 C 485 78 491 78 497 79 C 503 80 507 81 510 82 L 520 5 C 514 2 505 0 494 -2 C 482 -4 470 -5 457 -5 C 424 -5 396 4 373 24 C 350 43 339 72 339 110 Z" unicode="ﬂ" />
</font>
</defs>
</svg>
