<?xml version="1.0" encoding="utf-8" ?><svg version="1.1" xmlns = 'http://www.w3.org/2000/svg'><defs><font id='web' horiz-adv-x="1000">
<font-face font-family="web" descent="-200" cap-height="730" units-per-em="1000" bbox="-174,-319,988,1016" x-height="436" ascent="800" />
<missing-glyph horiz-adv-x="500" d="" /><glyph horiz-adv-x="191" d="" unicode=" " />
<glyph horiz-adv-x="261" d="M 184 429 L 153 204 L 110 204 L 79 429 L 79 730 L 184 730 L 184 429 Z M 180 0 L 84 0 L 84 108 L 180 108 L 180 0 Z" unicode="!" />
<glyph horiz-adv-x="360" d="M 307 624 L 301 487 L 228 487 L 223 623 L 223 730 L 307 730 L 307 624 Z M 137 623 L 133 487 L 58 487 L 53 623 L 53 730 L 137 730 L 137 623 Z" unicode="&#x22;" />
<glyph horiz-adv-x="570" d="M 520 219 L 403 219 L 384 0 L 325 1 L 344 219 L 202 219 L 183 0 L 125 1 L 144 219 L 31 219 L 31 300 L 151 300 L 162 427 L 49 427 L 49 508 L 170 508 L 189 730 L 247 729 L 228 508 L 370 508 L 389 730 L 448 729 L 429 508 L 539 508 L 539 427 L 421 427 L 410 300 L 520 300 L 520 219 Z M 209 300 L 351 300 L 362 427 L 220 427 L 209 300 Z" unicode="#" />
<glyph horiz-adv-x="478" d="M 443 187 C 443 135 426 92 393 60 C 359 27 319 7 271 1 L 271 -126 L 208 -126 L 208 0 C 170 2 135 11 105 26 C 74 40 47 60 25 86 L 68 152 C 84 131 105 115 131 103 C 157 91 182 83 208 80 L 208 344 C 154 371 113 400 85 432 C 57 463 44 505 44 557 C 44 603 59 641 90 673 C 120 705 160 724 208 730 L 208 791 L 271 791 L 271 730 C 302 727 330 720 356 708 C 382 696 405 680 425 660 L 375 596 C 360 610 344 622 326 631 C 308 640 289 646 271 649 L 271 410 L 274 408 C 336 376 379 343 405 311 C 430 279 443 237 443 187 Z M 133 553 C 133 530 138 511 148 495 C 158 479 178 462 208 444 L 208 648 C 186 642 168 631 154 615 C 140 598 133 577 133 553 Z M 356 191 C 356 215 350 236 338 254 C 326 272 303 290 271 310 L 271 84 C 294 90 314 101 331 119 C 347 137 356 161 356 191 Z" unicode="$" />
<glyph horiz-adv-x="706" d="M 178 363 C 161 363 144 366 128 374 C 111 382 96 393 83 409 C 69 425 58 444 50 468 C 42 492 38 519 38 551 C 38 577 41 602 48 625 C 55 648 65 668 77 685 C 89 702 104 715 122 725 C 139 735 157 740 177 740 C 198 740 218 735 236 725 C 254 715 269 701 281 685 C 293 668 303 648 310 626 C 317 603 321 579 321 554 C 321 527 317 502 310 479 C 302 455 292 435 280 418 C 267 400 252 387 234 377 C 216 367 198 363 178 363 Z M 171 0 L 103 0 L 520 730 L 588 730 L 171 0 Z M 178 434 C 200 434 216 445 226 469 C 235 493 240 520 240 551 C 240 581 235 608 226 632 C 217 656 202 669 180 669 C 158 669 143 657 133 633 C 123 609 119 581 119 551 C 119 519 123 492 133 469 C 142 445 157 434 178 434 Z M 525 -3 C 507 -3 490 0 473 8 C 456 16 441 27 428 43 C 414 59 403 78 395 102 C 387 126 383 153 383 185 C 383 211 386 236 393 259 C 400 282 410 302 423 319 C 436 336 451 349 469 359 C 487 369 506 374 527 374 C 549 374 568 369 586 359 C 604 349 619 335 631 319 C 643 302 652 282 659 260 C 665 237 669 213 669 188 C 669 161 665 136 658 113 C 651 89 641 69 629 52 C 616 34 601 21 583 11 C 565 1 546 -3 525 -3 Z M 524 70 C 546 70 563 81 573 104 C 583 126 588 153 588 185 C 588 215 583 243 573 267 C 563 291 548 303 526 303 C 506 303 490 291 480 267 C 470 243 465 216 465 185 C 465 153 470 125 480 103 C 490 81 504 70 524 70 Z" unicode="%" />
<glyph horiz-adv-x="648" d="M 572 -6 L 495 77 C 462 49 427 27 389 13 C 351 0 309 -8 264 -8 C 192 -8 135 8 92 42 C 48 75 27 122 27 182 C 27 211 31 237 40 259 C 48 281 60 300 75 317 C 90 334 108 350 128 364 C 148 378 169 391 191 404 L 179 417 C 162 435 145 457 127 485 C 109 513 101 546 101 584 C 101 603 105 622 113 641 C 121 659 132 676 147 690 C 162 704 180 715 202 724 C 224 732 248 737 276 737 C 328 737 371 722 404 693 C 436 663 453 629 453 589 C 453 548 440 512 416 482 C 392 452 359 422 317 394 L 501 202 C 511 214 521 228 531 244 C 541 259 552 275 562 292 L 630 244 C 618 225 607 207 595 189 C 583 171 570 155 558 141 L 637 59 L 572 -6 Z M 248 466 L 266 448 C 299 469 324 489 340 509 C 356 529 364 550 364 573 C 364 596 356 617 342 635 C 327 653 306 662 278 662 C 251 662 230 653 216 635 C 202 617 195 598 195 578 C 195 559 199 540 209 520 C 218 500 231 482 248 466 Z M 129 186 C 129 150 143 122 172 102 C 201 82 235 72 274 72 C 305 72 334 77 362 89 C 389 100 415 116 440 137 L 244 348 C 210 325 182 301 161 277 C 139 253 129 222 129 186 Z" unicode="&#x26;" />
<glyph horiz-adv-x="192" d="M 140 621 L 135 483 L 57 483 L 52 621 L 52 730 L 140 730 L 140 621 Z" unicode="'" />
<glyph horiz-adv-x="299" d="M 281 -108 L 281 -179 C 247 -161 215 -138 184 -108 C 152 -78 125 -43 101 -3 C 77 36 58 82 44 132 C 30 182 23 235 23 293 C 23 348 29 400 43 448 C 56 496 74 540 98 579 C 121 618 148 652 180 681 C 211 709 245 732 281 749 L 281 679 C 232 648 193 600 164 534 C 134 468 119 387 119 293 C 119 206 132 127 159 57 C 186 -13 227 -68 281 -108 Z" unicode="(" />
<glyph horiz-adv-x="299" d="M 18 680 L 18 749 C 52 734 84 713 116 685 C 147 657 174 623 198 584 C 222 544 241 499 255 449 C 269 398 276 343 276 284 C 276 228 268 176 254 127 C 240 78 221 34 198 -4 C 174 -43 147 -78 116 -108 C 84 -138 52 -161 18 -179 L 18 -106 C 70 -69 110 -16 140 51 C 169 119 184 197 184 284 C 184 381 169 463 139 531 C 108 598 68 648 18 680 Z" unicode=")" />
<glyph horiz-adv-x="386" d="M 356 593 L 230 555 L 316 460 L 270 421 L 195 530 L 120 422 L 71 459 L 159 556 L 33 592 L 61 652 L 172 598 L 163 730 L 226 730 L 216 598 L 332 648 L 356 593 Z" unicode="*" />
<glyph horiz-adv-x="486" d="M 458 295 L 281 295 L 281 122 L 206 122 L 206 295 L 29 295 L 29 367 L 206 367 L 206 540 L 281 540 L 281 367 L 458 367 L 458 295 Z" unicode="+" />
<glyph horiz-adv-x="215" d="M 182 103 C 180 80 176 57 170 33 C 163 9 155 -14 145 -36 C 135 -58 125 -79 113 -98 C 101 -117 90 -133 78 -145 L 8 -113 C 15 -103 23 -91 31 -75 C 39 -59 47 -42 55 -23 C 62 -4 68 16 74 38 C 80 60 83 81 85 103 L 182 103 Z" unicode="," />
<glyph horiz-adv-x="323" d="M 286 224 L 38 224 L 38 308 L 286 308 L 286 224 Z" unicode="-" />
<glyph horiz-adv-x="217" d="M 157 0 L 60 0 L 60 125 L 157 125 L 157 0 Z" unicode="." />
<glyph horiz-adv-x="312" d="M 309 730 L 89 0 L 3 0 L 225 730 L 309 730 Z" unicode="/" />
<glyph horiz-adv-x="486" d="M 240 -9 C 178 -9 128 20 90 78 C 51 136 32 230 32 361 C 32 417 36 468 44 515 C 52 561 65 601 83 634 C 100 667 122 693 149 711 C 176 729 208 739 244 739 C 281 739 313 730 340 712 C 366 694 388 669 405 637 C 421 605 433 566 441 521 C 449 475 453 425 453 371 C 453 251 435 158 400 91 C 364 24 311 -9 240 -9 Z M 241 72 C 282 72 312 96 331 144 C 349 192 359 265 359 361 C 359 455 350 527 334 579 C 317 630 287 656 243 656 C 201 656 171 631 153 582 C 135 533 126 460 126 363 C 126 261 135 187 155 141 C 175 95 203 72 241 72 Z" unicode="0" />
<glyph horiz-adv-x="320" d="M 250 0 L 154 0 L 154 589 C 142 570 124 552 100 536 C 76 519 53 509 33 507 L 33 606 C 57 608 83 622 111 648 C 138 673 159 701 174 732 L 250 732 L 250 0 Z" unicode="1" />
<glyph horiz-adv-x="468" d="M 436 0 L 24 0 L 24 30 L 271 361 C 291 389 308 418 321 449 C 333 479 340 512 340 546 C 340 578 329 604 309 624 C 288 644 260 654 226 654 C 186 654 156 640 138 614 C 120 588 111 554 111 514 L 29 514 C 29 589 47 645 84 683 C 120 720 169 739 229 739 C 287 739 335 723 373 692 C 411 660 430 614 430 552 C 430 498 421 454 405 420 C 389 386 370 355 350 328 L 165 83 L 436 83 L 436 0 Z" unicode="2" />
<glyph horiz-adv-x="463" d="M 215 -9 C 162 -9 119 0 86 16 C 53 33 27 53 9 75 L 56 141 C 71 124 90 108 114 94 C 137 80 167 73 203 73 C 228 73 250 77 269 85 C 287 93 303 105 315 119 C 327 133 337 149 343 168 C 349 186 352 205 352 225 C 352 247 348 266 340 283 C 332 299 322 313 309 324 C 296 334 281 342 264 348 C 247 354 229 357 211 357 L 121 357 L 121 439 L 210 439 C 244 439 272 449 296 470 C 320 490 332 518 332 552 C 332 580 322 605 304 625 C 286 645 260 655 226 655 C 192 655 164 648 142 634 C 120 620 101 601 87 579 L 28 637 C 44 662 68 685 101 707 C 134 728 178 739 232 739 C 289 739 334 723 368 693 C 401 663 418 621 418 568 C 418 544 414 523 407 504 C 400 484 391 468 381 454 C 370 440 358 429 345 420 C 331 411 318 405 306 401 C 323 396 340 389 356 379 C 372 369 387 357 399 342 C 411 326 421 308 429 288 C 437 267 441 244 441 219 C 441 192 437 165 429 138 C 421 110 408 86 390 64 C 372 42 348 25 320 11 C 291 -2 256 -9 215 -9 Z" unicode="3" />
<glyph horiz-adv-x="471" d="M 466 194 L 377 194 L 377 0 L 294 0 L 294 194 L 7 194 L 7 256 L 318 739 L 377 739 L 377 274 L 466 274 L 466 194 Z M 294 274 L 294 564 L 107 274 L 294 274 Z" unicode="4" />
<glyph horiz-adv-x="460" d="M 224 -9 C 177 -9 135 0 97 17 C 59 34 30 55 12 79 L 67 143 C 81 122 101 105 127 92 C 153 78 182 72 216 72 C 257 72 289 87 313 119 C 337 151 349 193 349 245 C 349 293 337 331 315 358 C 293 385 264 399 229 399 C 195 399 169 392 149 378 C 129 364 114 345 104 322 L 41 337 L 69 730 L 401 730 L 400 646 L 140 646 L 124 417 C 133 433 148 448 170 461 C 192 474 221 481 257 481 C 311 481 356 461 390 423 C 424 385 442 328 442 253 C 442 211 436 173 425 141 C 414 108 399 81 380 59 C 360 37 337 20 311 8 C 284 -3 255 -9 224 -9 Z" unicode="5" />
<glyph horiz-adv-x="461" d="M 241 -9 C 179 -9 128 11 88 53 C 48 94 28 152 28 227 C 28 305 45 379 81 448 C 116 517 163 589 221 665 L 282 746 L 350 699 L 310 648 C 260 585 221 529 192 481 C 162 433 143 394 135 366 C 144 384 159 399 179 413 C 199 427 226 434 258 434 C 312 434 356 413 391 373 C 425 333 443 280 443 214 C 443 182 438 153 428 126 C 418 98 404 75 386 55 C 368 35 347 19 322 8 C 297 -3 270 -9 241 -9 Z M 240 71 C 274 71 301 83 322 109 C 342 135 353 169 353 211 C 353 257 343 292 323 317 C 303 342 276 355 241 355 C 209 355 181 343 158 319 C 134 295 123 261 123 217 C 123 169 134 132 156 108 C 178 83 206 71 240 71 Z" unicode="6" />
<glyph horiz-adv-x="400" d="M 404 730 L 406 692 L 116 -5 L 36 28 L 293 646 L 11 646 L 11 730 L 404 730 Z" unicode="7" />
<glyph horiz-adv-x="482" d="M 328 389 C 342 385 357 378 373 369 C 389 359 403 347 415 332 C 427 316 438 298 446 276 C 454 254 458 230 458 202 C 458 138 438 87 400 49 C 361 10 308 -9 240 -9 C 174 -9 121 9 83 47 C 44 84 25 134 25 197 C 25 226 29 252 38 275 C 46 298 57 317 71 333 C 84 349 98 361 114 370 C 129 379 143 385 156 388 C 144 391 131 397 118 405 C 104 413 92 424 81 438 C 70 451 61 467 54 487 C 47 506 44 529 44 555 C 44 583 49 609 59 632 C 69 655 84 674 102 690 C 120 706 141 718 165 726 C 189 734 214 739 241 739 C 301 739 349 722 385 689 C 421 656 439 614 439 562 C 439 536 435 514 429 494 C 422 474 413 458 403 444 C 392 430 380 418 367 409 C 353 399 340 393 328 389 Z M 242 425 C 274 425 301 435 322 455 C 342 475 353 504 353 542 C 353 579 342 608 321 628 C 300 648 274 658 242 658 C 209 658 182 648 160 628 C 138 608 128 579 128 543 C 128 501 139 471 163 453 C 187 434 213 425 242 425 Z M 242 71 C 280 71 310 82 333 106 C 356 130 368 165 368 212 C 368 256 355 289 331 312 C 306 335 276 347 242 347 C 206 347 175 335 151 313 C 126 290 114 255 114 209 C 114 165 126 131 151 107 C 175 83 206 71 242 71 Z" unicode="8" />
<glyph horiz-adv-x="461" d="M 188 -12 L 121 39 L 157 82 C 175 104 194 129 214 157 C 234 184 252 211 268 238 C 284 265 299 291 311 316 C 323 341 331 362 335 380 C 323 358 305 338 280 322 C 254 306 226 298 196 298 C 169 298 145 303 123 314 C 101 325 82 340 67 360 C 51 380 39 403 31 431 C 22 458 18 487 18 519 C 18 551 23 580 33 607 C 43 634 58 657 76 677 C 94 697 115 712 141 723 C 166 734 194 740 224 740 C 252 740 279 735 305 725 C 330 715 352 699 371 679 C 390 659 405 633 416 603 C 427 573 433 538 433 498 C 433 456 427 415 416 375 C 405 334 391 295 374 258 C 356 220 336 185 314 152 C 292 118 270 88 248 62 L 188 -12 Z M 219 378 C 249 378 277 389 302 412 C 326 435 339 469 339 515 C 339 563 327 599 304 623 C 281 646 254 658 223 658 C 187 658 159 645 139 621 C 119 596 109 563 109 521 C 109 475 118 440 137 415 C 156 390 183 378 219 378 Z" unicode="9" />
<glyph horiz-adv-x="219" d="M 157 314 L 62 314 L 62 436 L 157 436 L 157 314 Z M 157 0 L 62 0 L 62 123 L 157 123 L 157 0 Z" unicode=":" />
<glyph horiz-adv-x="219" d="M 164 314 L 69 314 L 69 436 L 164 436 L 164 314 Z M 167 100 C 165 76 161 52 155 28 C 149 4 141 -18 132 -40 C 122 -61 112 -81 101 -99 C 90 -117 79 -133 67 -145 L -4 -113 C 3 -103 11 -91 20 -76 C 29 -60 37 -43 45 -25 C 53 -6 59 13 65 35 C 70 57 73 78 74 100 L 167 100 Z" unicode=";" />
<glyph horiz-adv-x="364" d="M 320 97 L 37 295 L 37 354 L 320 551 L 320 461 L 130 325 L 320 188 L 320 97 Z" unicode="&#x3C;" />
<glyph horiz-adv-x="492" d="M 437 388 L 56 388 L 56 468 L 437 468 L 437 388 Z M 437 175 L 56 175 L 56 255 L 437 255 L 437 175 Z" unicode="=" />
<glyph horiz-adv-x="364" d="M 326 295 L 43 97 L 43 188 L 232 325 L 43 462 L 43 551 L 326 354 L 326 295 Z" unicode="&#x3E;" />
<glyph horiz-adv-x="437" d="M 159 204 C 159 245 164 280 176 309 C 187 337 204 365 228 393 C 246 414 265 437 284 463 C 303 488 313 519 313 555 C 313 587 302 613 281 632 C 259 650 233 660 203 660 C 175 660 151 653 130 639 C 108 625 90 607 76 585 L 19 640 C 43 674 74 699 110 716 C 146 733 183 742 222 742 C 281 742 327 726 361 694 C 394 662 411 619 411 566 C 411 540 407 517 400 497 C 393 477 384 458 374 441 C 363 423 351 407 338 392 C 324 377 311 362 299 348 C 279 328 266 305 260 278 C 253 251 249 226 249 204 L 159 204 Z M 154 0 L 154 111 L 257 111 L 257 0 L 154 0 Z" unicode="?" />
<glyph horiz-adv-x="834" d="M 411 -39 C 357 -39 307 -29 261 -9 C 215 11 175 38 142 72 C 109 106 83 146 65 192 C 46 238 37 288 37 340 C 37 392 46 442 65 488 C 83 534 109 575 143 609 C 176 643 216 669 263 689 C 309 709 360 719 415 719 C 471 719 523 710 570 693 C 617 676 657 652 690 622 C 722 592 748 555 766 512 C 784 469 794 422 794 372 C 794 327 788 289 778 258 C 767 226 753 201 737 182 C 721 162 703 148 684 140 C 665 131 647 127 631 127 C 600 127 575 134 556 148 C 536 162 524 180 519 202 C 510 185 492 168 464 152 C 436 135 404 127 367 127 C 316 127 278 139 254 164 C 229 188 217 219 217 257 C 217 301 235 335 273 361 C 310 386 357 399 413 399 L 510 399 L 510 410 C 510 444 501 467 484 479 C 466 491 442 498 412 498 C 386 498 363 494 341 488 C 319 482 301 475 287 469 L 260 533 C 279 542 302 550 329 556 C 356 562 383 566 411 566 C 467 566 510 552 541 525 C 571 498 587 455 587 397 L 587 247 C 587 232 590 219 597 207 C 603 195 617 189 637 189 C 645 189 655 191 665 196 C 675 201 685 210 694 223 C 703 236 711 254 717 278 C 723 301 726 331 726 367 C 726 408 718 446 704 482 C 689 517 668 547 642 573 C 615 598 582 618 544 633 C 505 647 462 655 415 655 C 369 655 328 646 290 630 C 252 614 220 591 193 563 C 166 535 145 501 130 463 C 114 425 107 384 107 341 C 107 297 114 256 130 218 C 145 180 166 146 193 118 C 220 89 252 66 290 50 C 328 33 369 25 414 25 C 434 25 455 27 477 31 C 498 35 520 42 543 53 L 568 -5 C 540 -17 514 -26 488 -31 C 462 -36 436 -39 411 -39 Z M 384 195 C 412 195 439 201 464 213 C 489 225 504 238 510 251 L 510 335 L 413 335 C 375 335 347 328 330 316 C 312 304 304 287 304 265 C 304 244 311 227 325 214 C 339 201 359 195 384 195 Z" unicode="@" />
<glyph horiz-adv-x="539" d="M 537 0 L 439 0 L 381 182 L 153 182 L 97 0 L 2 0 L 237 734 L 303 734 L 537 0 Z M 359 266 L 267 549 L 175 266 L 359 266 Z" unicode="A" />
<glyph horiz-adv-x="504" d="M 71 0 L 71 730 L 263 730 C 316 730 360 714 396 684 C 431 653 449 611 449 558 C 449 506 437 466 413 436 C 389 406 360 389 328 383 C 345 381 362 377 380 369 C 397 361 413 349 427 335 C 441 321 452 303 461 282 C 470 260 475 235 475 207 C 475 144 456 94 418 56 C 380 18 332 0 273 0 L 71 0 Z M 168 415 L 242 415 C 281 415 309 427 326 452 C 342 476 351 504 351 535 C 351 567 341 593 322 613 C 303 632 275 642 239 642 L 168 642 L 168 415 Z M 168 88 L 261 88 C 301 88 331 100 349 124 C 367 148 377 177 377 213 C 377 251 365 281 342 301 C 318 321 288 331 252 331 L 168 331 L 168 88 Z" unicode="B" />
<glyph horiz-adv-x="557" d="M 317 -9 C 277 -9 241 -1 207 15 C 173 31 143 54 119 86 C 94 117 74 156 60 203 C 46 250 39 304 39 366 C 39 422 45 474 58 520 C 71 566 90 606 114 638 C 138 670 167 695 202 713 C 236 730 275 739 319 739 C 383 739 431 726 465 702 C 498 677 524 647 543 611 L 464 562 C 450 584 432 604 410 621 C 388 637 358 646 321 646 C 264 646 220 622 188 575 C 156 528 140 457 140 361 C 140 311 145 268 156 232 C 166 196 180 168 197 146 C 214 124 234 108 257 98 C 279 88 302 83 326 83 C 364 83 396 91 420 107 C 444 123 463 146 479 174 L 552 131 C 530 89 500 55 462 29 C 423 3 375 -9 317 -9 Z" unicode="C" />
<glyph horiz-adv-x="608" d="M 71 0 L 71 730 L 252 730 C 302 730 347 721 387 704 C 426 686 459 662 486 631 C 513 599 534 561 548 517 C 562 472 569 422 569 368 C 569 316 562 268 548 223 C 534 178 514 139 487 106 C 460 73 426 47 385 28 C 343 9 295 0 241 0 L 71 0 Z M 171 87 L 242 87 C 281 87 315 93 344 107 C 372 121 396 140 414 164 C 432 188 445 218 454 252 C 462 286 467 324 467 365 C 467 455 448 524 410 571 C 372 617 319 641 252 641 L 171 641 L 171 87 Z" unicode="D" />
<glyph horiz-adv-x="456" d="M 432 0 L 71 0 L 71 730 L 414 730 L 414 640 L 169 640 L 169 408 L 403 408 L 403 318 L 169 318 L 169 90 L 432 90 L 432 0 Z" unicode="E" />
<glyph horiz-adv-x="405" d="M 389 640 L 172 640 L 172 409 L 376 409 L 376 318 L 172 318 L 172 0 L 72 0 L 72 730 L 389 730 L 389 640 Z" unicode="F" />
<glyph horiz-adv-x="606" d="M 327 365 L 574 365 L 574 128 C 553 87 521 54 479 29 C 437 3 384 -9 322 -9 C 282 -9 245 0 211 17 C 176 34 146 59 121 91 C 95 123 75 163 60 209 C 45 255 38 307 38 365 C 38 421 45 473 59 519 C 73 565 93 605 119 637 C 144 669 174 694 210 712 C 245 730 283 739 325 739 C 387 739 435 726 469 700 C 503 674 528 646 545 614 L 466 569 C 452 589 435 607 413 623 C 391 639 361 647 323 647 C 269 647 225 623 191 575 C 156 527 139 457 139 364 C 139 272 157 202 193 152 C 229 102 274 78 328 78 C 365 78 397 84 424 98 C 450 112 471 130 485 154 L 485 278 L 327 278 L 327 365 Z" unicode="G" />
<glyph horiz-adv-x="611" d="M 540 0 L 440 0 L 440 313 L 171 313 L 171 0 L 71 0 L 71 730 L 171 730 L 171 407 L 440 407 L 440 730 L 540 730 L 540 0 Z" unicode="H" />
<glyph horiz-adv-x="251" d="M 176 0 L 76 0 L 76 730 L 176 730 L 176 0 Z" unicode="I" />
<glyph horiz-adv-x="319" d="M 259 730 L 259 186 C 259 158 255 133 247 109 C 239 85 227 64 213 47 C 198 29 180 16 158 6 C 136 -4 111 -9 84 -9 C 70 -9 56 -8 42 -6 C 28 -4 17 -2 9 0 L 10 91 C 14 88 22 86 34 84 C 46 82 57 82 67 82 C 97 82 120 93 136 116 C 152 138 161 166 161 198 L 161 730 L 259 730 Z" unicode="J" />
<glyph horiz-adv-x="560" d="M 565 0 L 448 0 L 221 329 L 172 267 L 172 0 L 71 0 L 71 730 L 172 730 L 172 384 L 427 730 L 540 730 L 290 396 L 565 0 Z" unicode="K" />
<glyph horiz-adv-x="406" d="M 399 0 L 71 0 L 71 730 L 171 730 L 171 90 L 399 90 L 399 0 Z" unicode="L" />
<glyph horiz-adv-x="735" d="M 664 0 L 569 0 L 569 512 L 389 151 L 347 151 L 166 510 L 166 0 L 71 0 L 71 730 L 148 730 L 370 303 L 592 730 L 664 730 L 664 0 Z" unicode="M" />
<glyph horiz-adv-x="616" d="M 545 0 L 475 0 L 166 515 L 166 0 L 71 0 L 71 730 L 144 730 L 452 218 L 452 730 L 545 730 L 545 0 Z" unicode="N" />
<glyph horiz-adv-x="660" d="M 333 -9 C 241 -9 169 24 117 92 C 64 159 38 252 38 371 C 38 426 45 476 59 522 C 73 568 92 606 118 638 C 143 670 173 694 209 712 C 245 730 284 739 327 739 C 418 739 490 706 543 640 C 595 574 622 482 622 366 C 622 308 614 256 600 210 C 585 163 565 123 539 91 C 513 59 483 34 448 17 C 412 0 374 -9 333 -9 Z M 331 81 C 387 81 432 105 467 154 C 502 202 520 275 520 371 C 520 460 502 528 467 576 C 431 624 385 648 328 648 C 270 648 224 624 191 578 C 157 531 141 460 141 365 C 141 269 159 197 195 151 C 231 104 276 81 331 81 Z" unicode="O" />
<glyph horiz-adv-x="493" d="M 71 0 L 71 730 L 273 730 C 301 730 327 725 352 715 C 376 705 397 692 415 674 C 433 656 447 634 457 608 C 467 582 473 552 473 519 C 473 453 454 399 417 358 C 380 316 333 296 275 296 L 171 296 L 171 0 L 71 0 Z M 171 384 L 248 384 C 288 384 319 395 341 418 C 363 441 374 475 374 519 C 374 560 361 591 336 611 C 310 631 280 642 245 642 L 171 642 L 171 384 Z" unicode="P" />
<glyph horiz-adv-x="656" d="M 573 -69 L 573 -160 C 523 -154 475 -137 431 -107 C 387 -77 353 -44 329 -6 C 239 -5 168 28 116 95 C 64 161 38 253 38 371 C 38 426 45 476 59 522 C 73 568 93 606 119 638 C 144 670 174 694 210 712 C 246 730 285 739 327 739 C 417 739 488 706 542 640 C 595 574 622 482 622 365 C 622 275 604 200 568 138 C 532 76 486 33 428 11 C 446 -11 468 -29 495 -43 C 522 -57 548 -66 573 -69 Z M 331 77 C 387 77 432 102 467 152 C 502 202 520 275 520 371 C 520 465 501 535 465 581 C 428 627 382 651 328 651 C 270 651 225 627 191 581 C 157 534 141 462 141 364 C 141 268 158 197 194 149 C 229 101 275 77 331 77 Z" unicode="Q" />
<glyph horiz-adv-x="515" d="M 71 0 L 71 730 L 251 730 C 307 730 353 713 390 680 C 426 646 445 597 445 533 C 445 476 431 430 405 394 C 379 358 347 337 310 331 L 308 327 L 505 0 L 396 0 L 213 306 L 166 306 L 166 0 L 71 0 Z M 166 392 L 235 392 C 267 392 294 404 316 426 C 337 448 348 479 348 519 C 348 559 337 589 315 610 C 293 630 266 641 234 641 L 166 641 L 166 392 Z" unicode="R" />
<glyph horiz-adv-x="441" d="M 225 -9 C 182 -9 143 -1 109 12 C 75 26 45 49 20 81 L 73 150 C 90 126 112 107 138 94 C 164 80 191 74 218 74 C 246 74 271 84 292 104 C 313 124 324 150 324 183 C 324 215 315 242 297 264 C 279 286 248 310 202 337 C 153 364 114 394 84 426 C 54 458 39 504 39 562 C 39 588 43 612 53 634 C 63 656 76 674 93 690 C 109 705 129 717 152 726 C 175 734 200 739 226 739 C 266 739 300 732 329 720 C 357 707 381 692 400 674 L 349 602 C 334 616 316 627 296 636 C 276 645 254 650 232 650 C 204 650 181 641 163 625 C 144 608 135 585 135 557 C 135 528 144 504 160 485 C 176 466 210 443 261 415 C 317 384 357 351 382 315 C 406 279 419 236 419 184 C 419 153 413 125 402 101 C 391 77 377 57 359 41 C 341 25 321 12 297 4 C 273 -4 249 -9 225 -9 Z" unicode="S" />
<glyph horiz-adv-x="429" d="M 422 640 L 264 640 L 264 0 L 164 0 L 164 640 L 8 640 L 8 730 L 422 730 L 422 640 Z" unicode="T" />
<glyph horiz-adv-x="603" d="M 537 730 L 537 234 C 537 192 530 156 517 126 C 504 96 487 71 465 51 C 443 31 418 16 389 6 C 360 -4 329 -9 297 -9 C 265 -9 236 -4 208 5 C 180 15 155 29 134 49 C 113 69 96 94 84 125 C 72 155 66 192 66 234 L 66 730 L 164 730 L 164 230 C 164 179 177 141 203 117 C 229 92 261 80 299 80 C 337 80 369 91 397 115 C 424 139 438 177 438 230 L 438 730 L 537 730 Z" unicode="U" />
<glyph horiz-adv-x="527" d="M 526 730 L 295 -5 L 227 -5 L 2 730 L 100 730 L 265 192 L 428 730 L 526 730 Z" unicode="V" />
<glyph horiz-adv-x="766" d="M 752 730 L 576 -5 L 513 -5 L 379 525 L 241 -5 L 178 -5 L 4 730 L 100 730 L 216 207 L 349 730 L 416 730 L 546 206 L 664 730 L 752 730 Z" unicode="W" />
<glyph horiz-adv-x="499" d="M 388 0 L 248 280 L 106 0 L 7 0 L 198 378 L 22 730 L 125 730 L 250 480 L 376 730 L 475 730 L 299 382 L 490 0 L 388 0 Z" unicode="X" />
<glyph horiz-adv-x="523" d="M 525 730 L 309 310 L 309 0 L 209 0 L 209 312 L -1 730 L 105 730 L 265 412 L 425 730 L 525 730 Z" unicode="Y" />
<glyph horiz-adv-x="477" d="M 447 730 L 447 682 L 143 90 L 458 90 L 458 0 L 15 0 L 15 46 L 321 639 L 45 639 L 45 730 L 447 730 Z" unicode="Z" />
<glyph horiz-adv-x="247" d="M 221 -179 L 55 -179 L 55 730 L 221 730 L 221 656 L 143 656 L 143 -102 L 221 -102 L 221 -179 Z" unicode="[" />
<glyph horiz-adv-x="312" d="M 3 730 L 86 730 L 309 0 L 224 0 L 3 730 Z" unicode="\" />
<glyph horiz-adv-x="249" d="M 195 -179 L 29 -179 L 29 -105 L 106 -105 L 106 656 L 29 656 L 29 730 L 195 730 L 195 -179 Z" unicode="]" />
<glyph horiz-adv-x="458" d="M 420 369 L 339 369 L 227 634 L 119 369 L 39 369 L 188 730 L 267 730 L 420 369 Z" unicode="^" />
<glyph horiz-adv-x="450" d="M 450 -160 L 0 -160 L 0 -82 L 450 -82 L 450 -160 Z" unicode="_" />
<glyph horiz-adv-x="500" d="M 345 498 L 255 498 L 146 667 L 253 667 L 345 498 Z" unicode="`" />
<glyph horiz-adv-x="407" d="M 362 0 L 278 0 L 278 51 C 265 35 248 21 227 10 C 205 -1 180 -7 150 -7 C 110 -7 78 5 54 30 C 30 54 19 88 19 130 C 19 177 35 212 67 236 C 99 259 140 272 190 275 L 274 280 L 274 299 C 274 323 266 342 252 354 C 238 366 217 372 189 372 C 163 372 141 368 123 360 C 105 352 91 345 82 337 L 52 397 C 66 410 86 421 112 431 C 138 441 170 446 209 446 C 251 446 287 434 317 412 C 347 389 362 354 362 306 L 362 0 Z M 276 109 L 276 212 L 204 208 C 177 206 154 199 135 187 C 115 175 106 157 106 133 C 106 111 113 95 128 85 C 143 75 161 70 181 70 C 203 70 223 74 239 82 C 255 90 268 99 276 109 Z" unicode="a" />
<glyph horiz-adv-x="452" d="M 263 -5 C 229 -5 201 2 179 16 C 157 30 142 47 134 67 L 134 0 L 48 0 L 48 770 L 136 770 L 136 361 C 143 381 158 399 180 417 C 202 434 231 443 267 443 C 315 443 354 423 384 383 C 413 343 428 292 428 230 C 428 156 412 99 380 57 C 348 15 309 -5 263 -5 Z M 232 64 C 262 64 287 77 305 104 C 323 131 332 169 332 219 C 332 265 323 301 306 327 C 289 353 264 367 232 367 C 205 367 182 354 163 330 C 143 305 134 265 134 211 C 134 155 144 117 164 96 C 184 74 207 64 232 64 Z" unicode="b" />
<glyph horiz-adv-x="382" d="M 311 126 L 376 81 C 364 60 347 40 323 21 C 299 2 264 -7 218 -7 C 187 -7 159 -1 135 10 C 111 21 90 36 74 56 C 57 76 44 99 36 127 C 27 155 23 185 23 217 C 23 248 27 277 36 305 C 45 333 58 357 76 377 C 93 397 114 414 139 426 C 163 438 191 444 222 444 C 263 444 296 435 321 417 C 346 399 365 379 378 359 L 313 308 C 303 323 291 336 277 348 C 263 359 244 365 221 365 C 190 365 165 351 147 323 C 128 295 119 261 119 219 C 119 171 129 134 149 108 C 169 82 195 69 226 69 C 250 69 268 75 281 88 C 294 101 304 114 311 126 Z" unicode="c" />
<glyph horiz-adv-x="460" d="M 197 -6 C 170 -6 146 0 125 11 C 103 22 85 37 70 57 C 55 76 44 99 36 126 C 28 152 24 181 24 212 C 24 281 41 337 75 379 C 109 421 151 442 201 442 C 233 442 260 434 281 419 C 302 404 316 386 324 366 L 324 770 L 412 770 L 412 0 L 328 0 L 328 69 C 320 51 306 34 286 18 C 266 2 236 -6 197 -6 Z M 224 66 C 254 66 278 79 298 107 C 317 135 327 173 327 221 C 327 270 316 307 295 331 C 273 355 248 367 220 367 C 189 367 165 353 147 327 C 129 301 120 264 120 218 C 120 174 129 137 147 109 C 165 80 190 66 224 66 Z" unicode="d" />
<glyph horiz-adv-x="424" d="M 224 -7 C 165 -7 117 12 80 51 C 42 90 24 145 24 216 C 24 250 29 281 39 309 C 49 337 62 361 79 381 C 96 401 116 416 140 427 C 164 438 189 444 216 444 C 275 444 321 423 355 381 C 388 339 405 276 405 193 L 114 193 C 114 147 125 114 146 94 C 166 74 193 65 227 65 C 257 65 281 70 299 81 C 316 91 331 104 343 118 L 393 69 C 378 50 358 33 333 17 C 308 1 272 -7 224 -7 Z M 117 260 L 316 260 C 315 292 306 319 290 340 C 273 361 250 372 220 372 C 189 372 165 361 147 340 C 129 319 119 292 117 260 Z" unicode="e" />
<glyph horiz-adv-x="247" d="M 239 356 L 167 356 L 167 0 L 75 0 L 75 356 L 17 356 L 17 436 L 75 436 L 75 633 C 75 655 78 675 85 693 C 92 711 101 725 113 737 C 124 749 137 758 152 764 C 166 770 181 773 196 773 C 209 773 221 771 232 769 C 243 766 252 763 258 761 L 241 681 C 238 681 234 682 229 684 C 223 686 218 687 212 687 C 199 687 188 681 179 669 C 170 657 166 640 166 617 L 166 436 L 239 436 L 239 356 Z" unicode="f" />
<glyph horiz-adv-x="458" d="M 202 -3 C 148 -3 105 17 73 57 C 40 97 24 150 24 216 C 24 250 28 282 38 310 C 47 338 60 361 76 381 C 92 401 110 416 132 426 C 153 436 176 442 201 442 C 231 442 257 434 279 418 C 301 402 316 385 325 366 L 325 436 L 410 436 L 410 17 C 410 -19 404 -50 394 -77 C 383 -103 369 -125 351 -143 C 333 -160 312 -173 288 -181 C 264 -189 239 -194 214 -194 C 177 -194 147 -190 124 -183 C 101 -175 84 -167 72 -159 L 100 -92 C 111 -98 125 -105 143 -111 C 161 -117 183 -120 209 -120 C 241 -120 268 -109 290 -88 C 312 -66 323 -35 323 7 L 323 72 C 315 52 300 35 279 20 C 258 4 232 -3 202 -3 Z M 224 64 C 253 64 277 77 297 105 C 317 132 327 171 327 221 C 327 269 316 306 294 332 C 272 358 247 371 219 371 C 189 371 165 357 147 330 C 129 302 120 265 120 219 C 120 173 128 135 146 107 C 164 78 190 64 224 64 Z" unicode="g" />
<glyph horiz-adv-x="444" d="M 398 0 L 307 0 L 307 283 C 307 310 300 331 286 345 C 272 359 252 366 228 366 C 204 366 184 358 166 343 C 148 328 139 303 139 267 L 139 0 L 48 0 L 48 770 L 134 770 L 134 365 C 141 387 155 406 176 421 C 197 436 226 444 262 444 C 302 444 335 433 360 411 C 385 389 398 355 398 310 L 398 0 Z" unicode="h" />
<glyph horiz-adv-x="194" d="M 49 527 L 49 622 L 145 622 L 145 527 L 49 527 Z M 51 0 L 51 436 L 143 436 L 143 0 L 51 0 Z" unicode="i" />
<glyph horiz-adv-x="190" d="M 145 527 L 50 527 L 50 622 L 145 622 L 145 527 Z M 143 436 L 143 -90 C 143 -121 133 -147 114 -169 C 95 -191 69 -201 37 -201 C 26 -201 14 -200 2 -198 C -9 -196 -18 -194 -23 -192 L -10 -119 C -7 -119 -3 -120 0 -121 C 4 -121 9 -122 14 -122 C 24 -122 33 -118 41 -110 C 48 -102 52 -90 52 -76 L 52 436 L 143 436 Z" unicode="j" />
<glyph horiz-adv-x="410" d="M 421 1 L 319 -1 L 200 184 L 139 106 L 139 0 L 48 0 L 48 770 L 134 770 L 134 209 L 303 436 L 401 436 L 262 251 L 421 1 Z" unicode="k" />
<glyph horiz-adv-x="188" d="M 140 777 L 140 0 L 48 0 L 48 777 L 140 777 Z" unicode="l" />
<glyph horiz-adv-x="696" d="M 48 0 L 48 436 L 133 436 L 133 368 C 140 391 155 409 179 423 C 202 437 231 444 265 444 C 297 444 324 436 344 422 C 364 408 377 389 384 366 L 387 366 C 395 390 411 409 433 423 C 455 437 484 444 518 444 C 558 444 590 433 614 411 C 638 389 651 357 651 314 L 651 0 L 560 0 L 560 279 C 560 309 553 331 539 345 C 525 359 505 366 481 366 C 459 366 439 358 421 342 C 403 326 394 300 394 262 L 394 0 L 304 0 L 304 280 C 304 311 297 333 283 346 C 269 359 251 366 229 366 C 206 366 185 358 166 342 C 147 326 138 299 138 262 L 138 0 L 48 0 Z" unicode="m" />
<glyph horiz-adv-x="443" d="M 398 0 L 307 0 L 307 289 C 307 313 300 332 286 346 C 272 359 253 366 229 366 C 205 366 184 358 166 343 C 148 327 139 302 139 266 L 139 0 L 48 0 L 48 436 L 135 436 L 135 367 C 143 389 157 408 179 422 C 201 436 229 444 263 444 C 303 444 336 433 361 411 C 385 389 398 358 398 316 L 398 0 Z" unicode="n" />
<glyph horiz-adv-x="443" d="M 221 -7 C 193 -7 168 -2 144 8 C 120 18 99 32 81 51 C 63 70 48 93 38 121 C 28 149 23 180 23 216 C 23 249 28 280 38 308 C 48 336 61 360 78 380 C 95 400 116 415 140 427 C 164 438 189 444 217 444 C 275 444 323 424 362 385 C 400 345 420 293 420 228 C 420 194 415 162 405 133 C 395 104 382 79 365 59 C 347 38 326 22 302 10 C 277 -1 250 -7 221 -7 Z M 222 67 C 253 67 278 80 296 107 C 314 133 324 171 324 221 C 324 269 314 305 296 330 C 277 355 251 368 217 368 C 188 368 165 355 147 330 C 129 304 120 267 120 219 C 120 167 129 128 148 104 C 167 79 192 67 222 67 Z" unicode="o" />
<glyph horiz-adv-x="452" d="M 48 -200 L 48 436 L 133 436 L 133 356 C 140 377 155 397 179 415 C 203 433 232 443 266 443 C 315 443 354 423 384 384 C 413 345 428 294 428 230 C 428 193 423 160 414 131 C 405 101 393 77 378 57 C 362 37 344 21 323 11 C 302 0 280 -5 257 -5 C 227 -5 202 1 180 14 C 158 26 143 41 135 58 L 135 -200 L 48 -200 Z M 233 63 C 263 63 287 76 305 102 C 323 128 332 166 332 216 C 332 262 323 299 307 327 C 291 355 266 369 232 369 C 206 369 183 357 163 333 C 143 309 133 268 133 210 C 133 154 142 116 162 95 C 182 73 205 63 233 63 Z" unicode="p" />
<glyph horiz-adv-x="460" d="M 324 -200 L 324 70 C 315 49 300 31 278 17 C 256 2 229 -5 198 -5 C 171 -5 147 0 125 12 C 103 23 85 39 70 59 C 55 79 44 102 36 129 C 28 156 24 185 24 216 C 24 283 40 338 74 380 C 108 422 149 444 197 444 C 231 444 260 436 282 420 C 304 404 319 385 328 365 L 328 436 L 412 436 L 412 -200 L 324 -200 Z M 223 66 C 251 66 276 79 296 105 C 316 131 327 170 327 220 C 327 268 316 304 296 330 C 275 355 250 368 221 368 C 189 368 165 354 147 328 C 129 301 120 264 120 218 C 120 174 129 138 147 109 C 165 80 190 66 223 66 Z" unicode="q" />
<glyph horiz-adv-x="326" d="M 328 413 L 297 337 C 285 347 273 353 262 357 C 251 360 240 362 228 362 C 208 362 189 353 169 337 C 149 321 139 292 139 250 L 139 0 L 48 0 L 48 436 L 137 436 L 137 360 C 143 380 155 399 174 417 C 193 434 217 443 245 443 C 263 443 279 440 293 434 C 307 428 319 421 328 413 Z" unicode="r" />
<glyph horiz-adv-x="333" d="M 176 -8 C 141 -8 110 -2 84 9 C 58 20 36 35 20 53 L 64 115 C 76 100 93 88 113 80 C 133 71 152 67 171 67 C 187 67 201 71 213 80 C 225 89 232 102 232 119 C 232 133 224 146 210 157 C 195 168 172 180 142 194 C 107 208 80 225 60 245 C 40 265 31 292 31 327 C 31 359 44 387 71 409 C 97 431 129 443 166 443 C 196 443 222 438 244 429 C 266 420 285 410 300 399 L 253 340 C 244 346 232 353 217 359 C 201 365 186 368 170 368 C 154 368 140 364 128 358 C 116 351 111 341 111 328 C 111 315 116 304 128 296 C 139 287 161 275 195 261 C 234 243 263 225 282 205 C 301 185 311 157 311 121 C 311 100 307 82 299 66 C 291 50 281 36 269 25 C 256 14 241 6 225 0 C 209 -5 192 -8 176 -8 Z" unicode="s" />
<glyph horiz-adv-x="234" d="M 217 80 L 229 9 C 224 5 217 2 207 0 C 197 -3 184 -5 170 -5 C 159 -5 147 -3 134 0 C 120 3 108 9 97 18 C 85 26 76 38 68 54 C 60 69 57 89 57 113 L 57 356 L 11 356 L 11 436 L 59 436 L 59 568 L 147 578 L 147 436 L 215 436 L 215 356 L 149 356 L 149 117 C 149 101 152 90 160 84 C 168 77 178 74 191 74 C 195 74 200 74 206 76 C 211 77 215 78 217 80 Z" unicode="t" />
<glyph horiz-adv-x="444" d="M 46 436 L 137 436 L 137 146 C 137 118 144 98 158 85 C 172 71 191 65 216 65 C 240 65 260 72 278 88 C 295 103 304 130 304 168 L 304 436 L 396 436 L 396 0 L 307 0 L 307 61 C 297 40 282 23 260 11 C 238 0 211 -7 181 -7 C 143 -7 111 3 85 25 C 59 47 46 81 46 127 L 46 436 Z" unicode="u" />
<glyph horiz-adv-x="382" d="M 385 436 L 225 -2 L 155 -2 L -4 436 L 94 436 L 195 144 L 294 436 L 385 436 Z" unicode="v" />
<glyph horiz-adv-x="585" d="M 380 -2 L 292 261 L 204 -2 L 136 -2 L 2 436 L 93 436 L 180 133 L 264 397 L 327 397 L 411 133 L 500 436 L 582 436 L 446 -2 L 380 -2 Z" unicode="w" />
<glyph horiz-adv-x="371" d="M 268 0 L 183 143 L 98 0 L 4 0 L 136 223 L 9 436 L 109 436 L 186 307 L 262 436 L 357 436 L 233 227 L 367 0 L 268 0 Z" unicode="x" />
<glyph horiz-adv-x="385" d="M 387 436 L 188 -103 C 174 -139 154 -164 130 -178 C 106 -192 80 -200 54 -200 C 41 -200 29 -198 19 -195 C 8 -192 0 -189 -6 -187 L 21 -110 C 23 -111 28 -113 36 -115 C 44 -117 52 -119 60 -119 C 72 -119 82 -114 92 -106 C 102 -97 110 -83 118 -63 L 152 35 L -3 436 L 95 436 L 197 151 L 295 436 L 387 436 Z" unicode="y" />
<glyph horiz-adv-x="344" d="M 327 436 L 327 392 L 137 79 L 332 79 L 332 0 L 11 0 L 11 34 L 210 357 L 23 357 L 23 436 L 327 436 Z" unicode="z" />
<glyph horiz-adv-x="278" d="M 253 -179 C 224 -179 197 -175 172 -167 C 147 -159 125 -148 107 -134 C 88 -120 73 -104 63 -86 C 52 -67 47 -47 47 -27 C 47 -1 49 21 55 43 C 61 64 67 82 75 98 C 82 114 89 130 96 144 C 102 158 106 172 106 186 C 106 201 97 216 81 230 C 64 244 44 251 21 251 L 21 320 C 44 320 64 327 82 342 C 100 356 109 373 109 392 C 109 396 105 407 98 423 C 91 439 83 456 75 475 C 66 493 59 512 54 530 C 49 548 47 565 47 583 C 47 603 52 624 63 644 C 73 664 88 681 106 697 C 124 712 146 724 172 734 C 197 744 224 749 253 749 L 253 682 C 223 681 197 670 175 650 C 153 630 142 605 142 577 C 142 567 143 555 146 541 C 149 527 154 514 161 500 C 171 479 180 460 188 443 C 196 426 200 411 200 399 C 200 372 192 348 176 328 C 160 307 135 293 103 285 C 136 277 160 262 176 241 C 192 220 200 198 200 175 C 200 156 196 139 189 125 C 181 111 174 96 166 82 C 158 68 152 53 148 37 C 143 21 141 6 141 -7 C 141 -19 143 -31 149 -43 C 155 -55 163 -66 173 -76 C 183 -86 194 -94 208 -101 C 222 -107 237 -111 253 -111 L 253 -179 Z" unicode="{" />
<glyph horiz-adv-x="238" d="M 163 -179 L 75 -179 L 75 730 L 163 730 L 163 -179 Z" unicode="|" />
<glyph horiz-adv-x="278" d="M 25 -179 L 25 -111 C 41 -111 55 -107 69 -101 C 83 -94 95 -86 105 -76 C 115 -66 122 -55 128 -43 C 134 -31 137 -19 137 -7 C 137 6 134 21 130 37 C 125 53 119 68 112 82 C 104 96 96 111 89 125 C 81 139 78 156 78 175 C 78 198 85 220 101 241 C 116 262 140 277 173 285 C 141 293 118 307 102 328 C 86 348 78 372 78 399 C 78 411 82 426 90 443 C 98 460 107 479 117 500 C 123 514 128 527 131 541 C 134 555 136 567 136 577 C 136 605 124 630 102 650 C 80 670 54 681 25 682 L 25 749 C 53 749 80 744 106 734 C 131 724 153 712 171 697 C 189 681 204 664 215 644 C 225 624 231 603 231 583 C 231 565 228 548 223 530 C 218 512 211 493 203 475 C 194 456 186 439 179 423 C 172 407 169 396 169 392 C 169 373 177 356 195 342 C 213 327 233 320 257 320 L 257 251 C 233 251 213 244 197 230 C 180 216 172 201 172 186 C 172 172 175 158 182 144 C 188 130 195 114 203 98 C 210 82 216 64 222 43 C 228 21 231 -1 231 -27 C 231 -47 225 -67 215 -86 C 204 -104 189 -120 171 -134 C 152 -148 130 -159 105 -167 C 80 -175 53 -179 25 -179 Z" unicode="}" />
<glyph horiz-adv-x="467" d="M 366 441 L 438 441 C 437 389 429 348 413 319 C 397 290 371 276 336 276 C 312 276 293 281 277 291 C 261 301 247 311 234 323 C 220 335 207 346 195 355 C 183 363 169 368 155 368 C 140 368 127 360 116 344 C 105 328 100 306 100 279 L 29 279 C 29 332 38 373 57 402 C 75 430 101 445 134 445 C 158 445 179 439 196 428 C 213 417 229 405 244 393 C 256 382 268 372 280 363 C 292 354 305 350 320 350 C 338 350 351 357 357 372 C 363 387 366 410 366 441 Z" unicode="~" />
<glyph horiz-adv-x="273" d="M 89 588 L 184 588 L 184 480 L 89 480 L 89 588 Z M 84 164 L 116 389 L 159 389 L 189 164 L 189 -125 L 84 -125 L 84 164 Z" unicode="¡" />
<glyph horiz-adv-x="424" d="M 412 156 C 398 140 381 123 361 107 C 340 90 310 80 270 76 L 270 -32 L 209 -32 L 209 77 C 153 84 109 109 77 153 C 45 196 30 250 30 314 C 30 344 34 372 42 400 C 50 427 61 451 77 472 C 92 493 111 511 133 525 C 155 539 181 549 209 553 L 209 659 L 270 659 L 270 555 C 307 551 337 540 361 523 C 384 505 401 487 413 468 L 356 415 C 346 429 335 441 321 452 C 307 463 290 470 270 473 L 270 152 C 295 154 315 162 330 174 C 344 186 356 198 365 210 L 412 156 Z M 124 315 C 124 275 131 241 147 214 C 162 187 183 169 209 159 L 209 469 C 182 459 161 441 146 413 C 131 385 124 352 124 315 Z" unicode="¢" />
<glyph horiz-adv-x="505" d="M 492 85 L 492 0 L 16 0 L 16 72 C 20 74 28 77 40 79 C 52 81 68 85 88 89 C 112 93 135 104 155 121 C 175 138 185 162 185 193 C 185 195 185 198 185 200 C 185 202 184 205 184 208 L 30 208 L 30 280 L 154 280 C 149 288 144 298 138 308 C 132 318 127 328 122 339 L 30 339 L 30 411 L 88 411 C 80 431 74 452 69 474 C 64 496 62 519 62 544 C 62 581 68 612 80 638 C 92 663 109 683 130 699 C 150 714 174 725 201 732 C 228 738 256 742 285 742 C 329 742 371 733 411 717 C 451 700 479 684 496 669 L 446 590 C 431 602 410 616 382 632 C 354 648 323 656 290 656 C 274 656 258 653 243 649 C 227 645 213 638 201 628 C 189 618 179 605 172 589 C 164 572 161 551 161 527 C 161 507 163 487 169 468 C 175 448 182 429 191 411 L 431 411 L 431 339 L 227 339 C 231 329 236 319 241 309 C 246 299 251 289 255 280 L 431 280 L 431 208 L 269 208 C 267 170 256 141 237 122 C 218 103 201 91 186 85 L 492 85 Z" unicode="£" />
<glyph horiz-adv-x="502" d="M 441 191 L 399 149 L 342 209 C 328 201 314 194 298 190 C 282 186 266 184 250 184 C 233 184 217 186 201 190 C 185 194 171 201 158 209 L 101 149 L 57 193 L 111 249 C 99 263 89 279 83 297 C 76 315 73 334 73 354 C 73 374 76 393 83 411 C 90 429 100 445 112 460 L 57 516 L 99 558 L 157 498 C 170 506 185 513 201 517 C 217 521 233 524 250 524 C 267 524 284 521 300 517 C 316 512 330 506 344 498 L 404 559 L 446 516 L 390 458 C 401 443 410 427 417 409 C 423 391 427 373 427 354 C 427 333 423 314 416 296 C 409 278 400 261 388 247 L 441 191 Z M 250 252 C 279 252 304 262 326 283 C 347 303 358 327 358 354 C 358 381 347 405 326 425 C 304 445 279 456 250 456 C 220 456 194 445 173 425 C 152 405 142 381 142 354 C 142 327 152 303 173 283 C 194 262 220 252 250 252 Z" unicode="¤" />
<glyph horiz-adv-x="527" d="M 474 136 L 310 136 L 310 0 L 210 0 L 210 136 L 52 136 L 52 210 L 210 210 L 210 255 L 52 255 L 52 329 L 210 329 L 210 333 L 15 730 L 122 730 L 264 425 L 408 730 L 509 730 L 310 331 L 310 329 L 474 329 L 474 255 L 310 255 L 310 210 L 474 210 L 474 136 Z" unicode="¥" />
<glyph horiz-adv-x="265" d="M 93 351 L 93 730 L 172 730 L 172 351 L 93 351 Z M 172 200 L 172 -179 L 93 -179 L 93 200 L 172 200 Z" unicode="¦" />
<glyph horiz-adv-x="581" d="M 307 -181 C 256 -181 208 -174 163 -160 C 118 -146 80 -128 50 -106 L 84 -29 C 112 -50 146 -68 186 -82 C 225 -96 262 -104 297 -104 C 329 -104 355 -95 376 -79 C 396 -62 407 -38 407 -8 C 407 19 398 40 382 54 C 365 68 342 82 314 96 L 206 148 C 178 160 153 172 132 183 C 110 194 93 206 79 219 C 65 232 55 247 48 264 C 41 280 38 301 38 326 C 38 356 45 382 59 402 C 73 422 90 439 111 453 C 93 464 79 480 71 500 C 63 520 59 544 59 574 C 59 600 64 624 76 645 C 87 666 103 684 123 698 C 143 712 166 722 193 730 C 220 738 249 742 281 742 C 337 742 382 733 418 717 C 454 700 483 682 507 663 L 464 592 C 437 612 409 630 381 646 C 353 661 319 669 279 669 C 243 669 214 660 190 643 C 166 626 155 603 155 574 C 155 553 162 536 176 522 C 190 508 211 494 239 482 L 379 417 C 430 396 469 373 496 349 C 522 324 536 290 536 247 C 536 212 524 184 502 164 C 480 144 455 132 428 130 C 444 119 461 102 479 80 C 497 58 507 29 507 -7 C 507 -34 501 -58 491 -80 C 481 -102 467 -120 449 -135 C 431 -149 410 -161 386 -169 C 361 -177 335 -181 307 -181 Z M 362 170 C 380 172 398 179 415 190 C 432 201 441 218 441 242 C 441 264 431 283 411 299 C 391 314 362 331 322 350 L 187 413 C 171 404 158 394 146 382 C 134 370 128 354 128 334 C 128 308 138 288 158 274 C 178 260 208 243 250 224 L 362 170 Z" unicode="§" />
<glyph horiz-adv-x="500" d="M 369 499 L 293 499 L 293 657 L 369 657 L 369 499 Z M 207 499 L 131 499 L 131 657 L 207 657 L 207 499 Z" unicode="¨" />
<glyph horiz-adv-x="823" d="M 411 10 C 361 10 313 19 269 39 C 224 58 185 84 152 117 C 119 150 93 189 74 234 C 54 278 45 326 45 376 C 45 426 54 473 74 518 C 93 562 119 601 152 634 C 185 667 224 693 269 713 C 313 732 361 742 411 742 C 461 742 508 732 553 713 C 598 693 637 667 670 634 C 703 601 729 562 749 518 C 768 473 778 426 778 376 C 778 326 768 278 749 234 C 729 189 703 150 670 117 C 637 84 598 58 553 39 C 508 19 461 10 411 10 Z M 411 71 C 452 71 491 79 528 95 C 564 111 596 132 624 160 C 651 188 673 220 689 257 C 705 294 713 333 713 375 C 713 416 705 455 689 493 C 673 530 651 562 624 590 C 596 617 564 639 528 655 C 491 671 452 680 411 680 C 369 680 329 671 293 655 C 256 639 224 617 197 590 C 169 562 148 530 132 493 C 116 455 109 416 109 375 C 109 333 116 294 132 257 C 148 220 169 188 197 160 C 224 132 256 111 293 95 C 329 79 369 71 411 71 Z M 581 248 C 565 223 542 202 514 186 C 486 169 451 161 410 161 C 384 161 359 165 335 175 C 311 184 289 198 271 216 C 253 234 238 257 227 284 C 215 311 210 342 210 378 C 210 412 215 442 225 470 C 235 498 249 521 267 541 C 285 560 305 575 329 586 C 353 596 378 602 406 602 C 450 602 485 594 512 579 C 539 564 560 545 576 522 L 510 474 C 499 488 486 500 470 510 C 454 520 434 525 409 525 C 375 525 348 510 326 482 C 304 453 294 417 294 375 C 294 329 306 294 330 270 C 354 245 381 233 411 233 C 434 233 455 238 473 249 C 491 259 505 273 516 290 L 581 248 Z" unicode="©" />
<glyph horiz-adv-x="435" d="M 390 323 L 313 323 L 313 380 C 299 360 279 344 254 333 C 228 322 201 317 171 317 C 129 317 96 328 72 351 C 48 373 36 405 36 445 C 36 489 52 522 86 544 C 119 566 164 579 221 582 L 309 589 L 309 596 C 309 620 301 637 286 649 C 270 660 248 666 220 666 C 196 666 174 662 153 654 C 132 646 114 635 98 623 L 61 687 C 81 701 106 714 136 725 C 165 736 198 742 235 742 C 282 742 320 730 348 707 C 376 684 390 647 390 597 L 390 323 Z M 311 435 L 311 522 L 216 517 C 187 515 163 510 145 500 C 126 490 117 472 117 448 C 117 429 124 414 140 403 C 155 392 175 387 200 387 C 221 387 242 391 262 400 C 282 408 299 420 311 435 Z M 397 204 L 42 204 L 42 280 L 397 280 L 397 204 Z" unicode="ª" />
<glyph horiz-adv-x="438" d="M 209 79 L 28 247 L 28 306 L 209 472 L 209 379 L 108 274 L 209 175 L 209 79 Z M 409 79 L 227 247 L 227 306 L 409 472 L 409 379 L 308 274 L 409 176 L 409 79 Z" unicode="«" />
<glyph horiz-adv-x="500" d="M 451 386 L 451 131 L 373 131 L 373 305 L 31 305 L 31 386 L 451 386 Z" unicode="¬" />
<glyph horiz-adv-x="823" d="M 411 10 C 361 10 313 19 269 39 C 224 58 185 84 152 117 C 119 150 93 189 74 234 C 54 278 45 326 45 376 C 45 426 54 473 74 518 C 93 562 119 601 152 634 C 185 667 224 693 269 713 C 313 732 361 742 411 742 C 461 742 508 732 553 713 C 598 693 637 667 670 634 C 703 601 729 562 749 518 C 768 473 778 426 778 376 C 778 326 768 278 749 234 C 729 189 703 150 670 117 C 637 84 598 58 553 39 C 508 19 461 10 411 10 Z M 411 71 C 452 71 491 78 528 94 C 565 110 597 131 624 159 C 651 186 673 218 689 255 C 705 292 713 332 713 375 C 713 417 705 457 689 495 C 673 532 651 564 624 592 C 597 619 565 640 528 656 C 491 672 452 680 411 680 C 369 680 330 672 293 656 C 256 640 224 618 197 591 C 170 563 149 531 133 494 C 117 456 109 417 109 375 C 109 333 117 293 133 256 C 149 219 170 187 197 160 C 224 132 256 111 293 95 C 330 79 369 71 411 71 Z M 275 169 L 275 604 L 429 604 C 447 604 464 601 482 597 C 500 592 515 585 529 575 C 543 565 554 552 563 537 C 571 521 576 503 576 483 C 576 444 565 415 545 397 C 524 379 502 368 480 365 L 479 361 L 607 169 L 520 169 L 413 336 L 353 336 L 353 169 L 275 169 Z M 353 402 L 433 402 C 449 402 465 408 479 420 C 493 432 500 449 500 473 C 500 497 493 514 478 522 C 463 530 445 535 423 535 L 353 535 L 353 402 Z" unicode="®" />
<glyph horiz-adv-x="500" d="M 375 523 L 125 523 L 125 591 L 375 591 L 375 523 Z" unicode="¯" />
<glyph horiz-adv-x="424" d="M 211 378 C 186 378 162 382 140 392 C 118 402 99 415 83 431 C 67 447 54 467 44 489 C 34 511 30 535 30 561 C 30 585 34 609 44 631 C 54 653 67 673 83 689 C 99 705 118 717 140 727 C 162 737 186 742 211 742 C 236 742 260 737 282 727 C 304 717 324 705 340 689 C 356 673 369 653 379 631 C 389 609 394 585 394 561 C 394 535 389 511 379 489 C 369 467 356 447 340 431 C 324 415 304 402 282 392 C 260 382 236 378 211 378 Z M 211 452 C 241 452 266 462 288 484 C 310 505 321 531 321 561 C 321 591 310 616 288 638 C 266 659 241 670 211 670 C 181 670 156 659 134 638 C 112 616 102 591 102 561 C 102 531 112 505 134 484 C 156 462 181 452 211 452 Z" unicode="°" />
<glyph horiz-adv-x="500" d="M 475 295 L 290 295 L 290 112 L 211 112 L 211 295 L 25 295 L 25 367 L 211 367 L 211 550 L 290 550 L 290 367 L 475 367 L 475 295 Z M 470 25 L 32 25 L 32 94 L 470 94 L 470 25 Z" unicode="±" />
<glyph horiz-adv-x="344" d="M 309 372 L 27 372 L 27 402 L 186 559 C 192 565 199 573 205 583 C 211 593 215 605 215 619 C 215 633 210 645 200 656 C 190 667 176 673 156 673 C 133 673 117 666 108 652 C 99 638 94 623 94 605 L 22 605 C 22 641 34 673 59 700 C 83 727 119 741 165 741 C 209 741 242 730 264 710 C 286 689 297 664 297 636 C 297 609 292 587 282 569 C 272 551 262 537 252 527 L 159 439 L 309 439 L 309 372 Z" unicode="²" />
<glyph horiz-adv-x="346" d="M 226 569 C 253 564 275 553 291 537 C 307 521 315 501 315 477 C 315 465 312 452 307 439 C 302 425 294 413 282 402 C 270 391 255 382 235 375 C 215 367 190 364 161 364 C 120 364 88 369 65 379 C 41 389 23 399 11 409 L 55 454 C 65 447 79 441 96 435 C 113 429 133 426 157 426 C 188 426 210 432 223 444 C 235 456 242 471 242 489 C 242 507 234 520 219 526 C 203 532 184 535 162 535 L 89 535 L 89 593 L 156 593 C 176 593 193 596 206 603 C 218 610 225 621 225 636 C 225 648 219 658 208 666 C 197 673 180 677 158 677 C 138 677 120 673 103 666 C 86 658 73 650 65 640 L 21 684 C 34 698 52 711 74 723 C 96 735 128 742 169 742 C 209 742 241 733 265 717 C 288 700 300 678 300 652 C 300 630 292 611 278 597 C 263 583 246 573 226 569 Z" unicode="³" />
<glyph horiz-adv-x="500" d="M 156 498 L 247 667 L 354 667 L 246 498 L 156 498 Z" unicode="´" />
<glyph horiz-adv-x="578" d="M 69 -106 L 69 463 L 161 463 L 161 158 C 161 129 172 106 195 90 C 218 73 245 65 277 65 C 293 65 310 67 326 72 C 342 77 356 84 369 94 C 381 104 391 116 399 131 C 407 146 411 163 411 183 L 411 463 L 502 463 L 502 0 L 418 0 L 418 97 C 407 69 387 45 357 25 C 327 5 296 -5 262 -6 C 238 -6 216 -2 196 7 C 176 17 162 31 154 49 L 154 -106 L 69 -106 Z" unicode="µ" />
<glyph horiz-adv-x="595" d="M 543 -180 L 486 -179 L 486 657 L 387 657 L 387 -179 L 330 -179 L 330 281 L 244 281 C 215 281 187 287 161 299 C 134 311 110 327 90 347 C 69 367 52 390 40 417 C 28 444 22 472 22 502 C 22 534 27 565 39 593 C 51 621 67 645 88 665 C 109 685 134 701 164 713 C 194 724 227 730 263 730 L 543 730 L 543 -180 Z M 331 358 L 331 653 L 284 653 C 237 653 201 639 175 611 C 149 583 137 547 137 505 C 137 465 149 431 175 402 C 201 372 234 358 274 358 L 331 358 Z" unicode="¶" />
<glyph horiz-adv-x="250" d="M 172 273 L 78 273 L 78 403 L 172 403 L 172 273 Z" unicode="·" />
<glyph horiz-adv-x="500" d="M 254 -186 C 231 -186 208 -183 186 -177 C 163 -171 145 -163 132 -153 L 144 -114 C 152 -119 164 -125 180 -131 C 195 -137 211 -140 229 -140 C 243 -140 255 -136 266 -130 C 276 -123 282 -114 282 -103 C 282 -90 277 -81 268 -76 C 258 -71 248 -69 238 -69 C 230 -69 224 -69 218 -70 C 212 -71 206 -73 200 -76 L 185 -61 L 245 13 L 298 13 L 250 -49 C 282 -42 308 -45 330 -57 C 352 -69 363 -87 363 -111 C 363 -135 352 -154 330 -167 C 308 -179 283 -186 254 -186 Z" unicode="¸" />
<glyph horiz-adv-x="318" d="M 139 372 L 139 641 C 131 630 118 620 99 612 C 79 604 63 598 49 596 L 48 678 C 72 681 94 688 112 698 C 130 708 149 722 168 740 L 225 740 L 225 372 L 139 372 Z" unicode="¹" />
<glyph horiz-adv-x="429" d="M 211 316 C 186 316 162 320 140 330 C 117 340 97 353 79 371 C 61 389 47 411 37 437 C 26 463 21 493 21 526 C 21 554 26 582 36 608 C 46 634 60 656 78 676 C 95 696 115 711 139 723 C 162 734 187 740 213 740 C 240 740 265 735 289 725 C 313 715 333 701 351 683 C 369 665 383 644 393 619 C 403 593 408 565 408 535 C 408 503 402 474 392 447 C 382 420 368 397 350 378 C 332 358 311 343 287 332 C 263 321 237 316 211 316 Z M 213 390 C 246 390 273 403 294 430 C 315 456 326 490 326 532 C 326 570 316 602 296 628 C 276 654 248 667 214 667 C 181 667 154 653 134 626 C 113 599 103 565 103 524 C 103 484 113 451 134 427 C 155 402 181 390 213 390 Z M 38 204 L 38 280 L 389 280 L 389 204 L 38 204 Z" unicode="º" />
<glyph horiz-adv-x="438" d="M 29 472 L 212 303 L 212 245 L 29 79 L 29 171 L 130 276 L 29 375 L 29 472 Z M 229 472 L 410 303 L 410 245 L 229 79 L 229 171 L 330 276 L 229 375 L 229 472 Z" unicode="»" />
<glyph horiz-adv-x="701" d="M 12 0 L 12 0 Z M 103 372 L 103 641 C 95 630 82 620 63 612 C 43 604 27 598 13 596 L 12 678 C 36 681 58 688 76 698 C 94 708 113 722 132 740 L 189 740 L 189 372 L 103 372 Z M 577 730 L 210 0 L 129 0 L 496 730 L 577 730 Z M 389 83 L 389 139 L 575 366 L 628 366 L 628 142 L 689 142 L 689 83 L 628 83 L 628 1 L 552 1 L 552 83 L 389 83 Z M 461 137 L 554 137 L 554 254 L 461 137 Z" unicode="¼" />
<glyph horiz-adv-x="769" d="M 12 0 L 12 0 Z M 103 372 L 103 641 C 95 630 82 620 63 612 C 43 604 27 598 13 596 L 12 678 C 36 681 58 688 76 698 C 94 708 113 722 132 740 L 189 740 L 189 372 L 103 372 Z M 577 730 L 210 0 L 129 0 L 496 730 L 577 730 Z M 743 0 L 461 0 L 461 30 L 620 187 C 626 193 633 201 639 211 C 645 221 649 233 649 247 C 649 261 644 273 634 284 C 624 295 610 301 590 301 C 567 301 551 294 542 280 C 533 266 528 251 528 233 L 456 233 C 456 269 468 301 493 328 C 517 355 553 369 599 369 C 643 369 676 358 698 338 C 720 317 731 292 731 264 C 731 237 726 215 716 197 C 706 179 696 165 686 155 L 593 67 L 743 67 L 743 0 Z" unicode="½" />
<glyph horiz-adv-x="761" d="M 13 0 L 13 0 Z M 637 730 L 270 0 L 189 0 L 556 730 L 637 730 Z M 449 83 L 449 139 L 635 366 L 688 366 L 688 142 L 749 142 L 749 83 L 688 83 L 688 1 L 612 1 L 612 83 L 449 83 Z M 521 137 L 614 137 L 614 254 L 521 137 Z M 228 569 C 255 564 277 553 293 537 C 309 521 317 501 317 477 C 317 465 314 452 309 439 C 304 425 296 413 284 402 C 272 391 257 382 237 375 C 217 367 192 364 163 364 C 122 364 90 369 67 379 C 43 389 25 399 13 409 L 57 454 C 67 447 81 441 98 435 C 115 429 135 426 159 426 C 190 426 212 432 225 444 C 237 456 244 471 244 489 C 244 507 236 520 221 526 C 205 532 186 535 164 535 L 91 535 L 91 593 L 158 593 C 178 593 195 596 208 603 C 220 610 227 621 227 636 C 227 648 221 658 210 666 C 199 673 182 677 160 677 C 140 677 122 673 105 666 C 88 658 75 650 67 640 L 23 684 C 36 698 54 711 76 723 C 98 735 130 742 171 742 C 211 742 243 733 267 717 C 290 700 302 678 302 652 C 302 630 294 611 280 597 C 265 583 248 573 228 569 Z" unicode="¾" />
<glyph horiz-adv-x="442" d="M 185 480 L 185 588 L 287 588 L 287 480 L 185 480 Z M 219 -150 C 159 -150 112 -134 77 -103 C 41 -72 24 -30 24 24 C 24 49 27 72 35 93 C 42 113 51 132 62 149 C 73 165 85 181 99 195 C 112 209 125 222 138 235 C 160 255 174 278 181 306 C 188 334 192 360 193 386 L 283 386 C 283 342 277 305 267 277 C 256 248 238 220 212 194 C 191 173 171 150 151 126 C 131 102 122 72 122 36 C 122 3 132 -22 154 -41 C 175 -59 202 -69 235 -69 C 263 -69 288 -61 310 -47 C 332 -33 351 -15 366 6 L 423 -49 C 400 -80 371 -105 335 -123 C 299 -141 261 -150 219 -150 Z" unicode="¿" />
<glyph horiz-adv-x="539" d="M 2 0 L 2 0 Z M 537 0 L 439 0 L 381 182 L 153 182 L 97 0 L 2 0 L 237 734 L 303 734 L 537 0 Z M 359 266 L 267 549 L 175 266 L 359 266 Z M 266 792 L 266 792 Z M 366 792 L 276 792 L 167 961 L 274 961 L 366 792 Z" unicode="À" />
<glyph horiz-adv-x="539" d="M 2 0 L 2 0 Z M 537 0 L 439 0 L 381 182 L 153 182 L 97 0 L 2 0 L 237 734 L 303 734 L 537 0 Z M 359 266 L 267 549 L 175 266 L 359 266 Z M 266 792 L 266 792 Z M 167 792 L 258 961 L 365 961 L 257 792 L 167 792 Z" unicode="Á" />
<glyph horiz-adv-x="539" d="M 2 0 L 2 0 Z M 537 0 L 439 0 L 381 182 L 153 182 L 97 0 L 2 0 L 237 734 L 303 734 L 537 0 Z M 359 266 L 267 549 L 175 266 L 359 266 Z M 266 793 L 266 793 Z M 414 793 L 335 793 L 266 902 L 195 793 L 119 793 L 225 964 L 308 964 L 414 793 Z" unicode="Â" />
<glyph horiz-adv-x="539" d="M 2 0 L 2 0 Z M 537 0 L 439 0 L 381 182 L 153 182 L 97 0 L 2 0 L 237 734 L 303 734 L 537 0 Z M 359 266 L 267 549 L 175 266 L 359 266 Z M 266 799 L 266 799 Z M 353 936 L 421 936 C 421 890 414 855 401 833 C 387 810 370 799 350 799 C 332 799 316 802 303 810 C 290 817 279 824 270 831 C 261 837 252 844 243 851 C 233 857 224 861 215 861 C 206 861 198 855 192 845 C 186 835 182 820 182 802 L 114 802 C 114 848 122 882 139 905 C 155 928 173 940 193 940 C 209 940 224 936 236 928 C 248 920 259 913 270 905 C 278 898 287 891 295 885 C 303 879 312 876 321 876 C 329 876 336 881 343 892 C 349 902 353 917 353 936 Z" unicode="Ã" />
<glyph horiz-adv-x="539" d="M 2 0 L 2 0 Z M 537 0 L 439 0 L 381 182 L 153 182 L 97 0 L 2 0 L 237 734 L 303 734 L 537 0 Z M 359 266 L 267 549 L 175 266 L 359 266 Z M 266 793 L 266 793 Z M 385 793 L 309 793 L 309 951 L 385 951 L 385 793 Z M 223 793 L 147 793 L 147 951 L 223 951 L 223 793 Z" unicode="Ä" />
<glyph horiz-adv-x="539" d="M 2 0 L 2 0 Z M 537 0 L 439 0 L 381 182 L 153 182 L 97 0 L 2 0 L 237 734 L 303 734 L 537 0 Z M 359 266 L 267 549 L 175 266 L 359 266 Z M 266 789 L 266 789 Z M 266 789 C 234 789 208 800 186 822 C 164 844 153 870 153 902 C 153 934 164 961 186 983 C 208 1005 234 1016 266 1016 C 298 1016 325 1005 347 983 C 369 961 380 934 380 902 C 380 870 369 844 347 822 C 325 800 298 789 266 789 Z M 266 842 C 282 842 296 847 307 859 C 318 871 324 885 324 902 C 324 918 318 933 307 945 C 296 957 282 963 266 963 C 250 963 236 957 225 945 C 213 933 208 918 208 902 C 208 885 213 871 225 859 C 236 847 250 842 266 842 Z" unicode="Å" />
<glyph horiz-adv-x="812" d="M 787 0 L 432 0 L 432 220 L 209 220 L 92 0 L -6 0 L 377 730 L 770 730 L 770 645 L 525 645 L 525 403 L 759 403 L 759 319 L 525 319 L 525 85 L 787 85 L 787 0 Z M 432 296 L 432 653 L 246 296 L 432 296 Z" unicode="Æ" />
<glyph horiz-adv-x="557" d="M 39 0 L 39 0 Z M 317 -9 C 277 -9 241 -1 207 15 C 173 31 143 54 119 86 C 94 117 74 156 60 203 C 46 250 39 304 39 366 C 39 422 45 474 58 520 C 71 566 90 606 114 638 C 138 670 167 695 202 713 C 236 730 275 739 319 739 C 383 739 431 726 465 702 C 498 677 524 647 543 611 L 464 562 C 450 584 432 604 410 621 C 388 637 358 646 321 646 C 264 646 220 622 188 575 C 156 528 140 457 140 361 C 140 311 145 268 156 232 C 166 196 180 168 197 146 C 214 124 234 108 257 98 C 279 88 302 83 326 83 C 364 83 396 91 420 107 C 444 123 463 146 479 174 L 552 131 C 530 89 500 55 462 29 C 423 3 375 -9 317 -9 Z M 309 -1 L 309 -1 Z M 316 -187 C 293 -187 270 -184 248 -178 C 225 -172 207 -164 194 -154 L 206 -115 C 214 -120 226 -126 242 -132 C 257 -138 273 -141 291 -141 C 305 -141 317 -137 328 -131 C 338 -124 344 -115 344 -104 C 344 -91 339 -82 330 -77 C 320 -72 310 -70 300 -70 C 292 -70 286 -70 280 -71 C 274 -72 268 -74 262 -77 L 247 -62 L 307 12 L 360 12 L 312 -50 C 344 -43 370 -46 392 -58 C 414 -70 425 -88 425 -112 C 425 -136 414 -155 392 -168 C 370 -180 345 -187 316 -187 Z" unicode="Ç" />
<glyph horiz-adv-x="456" d="M 71 0 L 71 0 Z M 432 0 L 71 0 L 71 730 L 414 730 L 414 640 L 169 640 L 169 408 L 403 408 L 403 318 L 169 318 L 169 90 L 432 90 L 432 0 Z M 242 792 L 242 792 Z M 342 792 L 252 792 L 143 961 L 250 961 L 342 792 Z" unicode="È" />
<glyph horiz-adv-x="456" d="M 71 0 L 71 0 Z M 432 0 L 71 0 L 71 730 L 414 730 L 414 640 L 169 640 L 169 408 L 403 408 L 403 318 L 169 318 L 169 90 L 432 90 L 432 0 Z M 242 792 L 242 792 Z M 143 792 L 234 961 L 341 961 L 233 792 L 143 792 Z" unicode="É" />
<glyph horiz-adv-x="456" d="M 71 0 L 71 0 Z M 432 0 L 71 0 L 71 730 L 414 730 L 414 640 L 169 640 L 169 408 L 403 408 L 403 318 L 169 318 L 169 90 L 432 90 L 432 0 Z M 242 793 L 242 793 Z M 390 793 L 311 793 L 242 902 L 171 793 L 95 793 L 201 964 L 284 964 L 390 793 Z" unicode="Ê" />
<glyph horiz-adv-x="456" d="M 71 0 L 71 0 Z M 432 0 L 71 0 L 71 730 L 414 730 L 414 640 L 169 640 L 169 408 L 403 408 L 403 318 L 169 318 L 169 90 L 432 90 L 432 0 Z M 242 793 L 242 793 Z M 361 793 L 285 793 L 285 951 L 361 951 L 361 793 Z M 199 793 L 123 793 L 123 951 L 199 951 L 199 793 Z" unicode="Ë" />
<glyph horiz-adv-x="251" d="M 27 0 L 27 0 Z M 176 0 L 76 0 L 76 730 L 176 730 L 176 0 Z M 126 792 L 126 792 Z M 226 792 L 136 792 L 27 961 L 134 961 L 226 792 Z" unicode="Ì" />
<glyph horiz-adv-x="251" d="M 27 0 L 27 0 Z M 176 0 L 76 0 L 76 730 L 176 730 L 176 0 Z M 126 792 L 126 792 Z M 27 792 L 118 961 L 225 961 L 117 792 L 27 792 Z" unicode="Í" />
<glyph horiz-adv-x="251" d="M 0 0 L 0 0 Z M 176 0 L 76 0 L 76 730 L 176 730 L 176 0 Z M 126 793 L 126 793 Z M 274 793 L 195 793 L 126 902 L 55 793 L -21 793 L 85 964 L 168 964 L 274 793 Z" unicode="Î" />
<glyph horiz-adv-x="251" d="M 7 0 L 7 0 Z M 176 0 L 76 0 L 76 730 L 176 730 L 176 0 Z M 126 793 L 126 793 Z M 245 793 L 169 793 L 169 951 L 245 951 L 245 793 Z M 83 793 L 7 793 L 7 951 L 83 951 L 83 793 Z" unicode="Ï" />
<glyph horiz-adv-x="608" d="M 569 364 C 569 313 562 265 548 221 C 534 177 514 138 487 106 C 460 73 426 47 385 28 C 343 9 295 0 241 0 L 71 0 L 71 324 L 24 324 L 24 399 L 71 399 L 71 730 L 252 730 C 302 730 347 721 387 704 C 427 686 460 662 487 630 C 513 598 534 560 548 515 C 562 469 569 419 569 364 Z M 171 81 L 241 81 C 281 81 316 88 345 102 C 373 116 397 135 415 160 C 433 185 446 215 454 250 C 462 284 467 322 467 362 C 467 456 448 528 410 576 C 372 624 320 648 253 648 L 171 648 L 171 399 L 335 399 L 335 324 L 171 324 L 171 81 Z" unicode="Ð" />
<glyph horiz-adv-x="616" d="M 71 0 L 71 0 Z M 545 0 L 475 0 L 166 515 L 166 0 L 71 0 L 71 730 L 144 730 L 452 218 L 452 730 L 545 730 L 545 0 Z M 309 799 L 309 799 Z M 396 936 L 464 936 C 464 890 457 855 444 833 C 430 810 413 799 393 799 C 375 799 359 802 346 810 C 333 817 322 824 313 831 C 304 837 295 844 286 851 C 276 857 267 861 258 861 C 249 861 241 855 235 845 C 229 835 225 820 225 802 L 157 802 C 157 848 165 882 182 905 C 198 928 216 940 236 940 C 252 940 267 936 279 928 C 291 920 302 913 313 905 C 321 898 330 891 338 885 C 346 879 355 876 364 876 C 372 876 379 881 386 892 C 392 902 396 917 396 936 Z" unicode="Ñ" />
<glyph horiz-adv-x="660" d="M 38 0 L 38 0 Z M 333 -9 C 241 -9 169 24 117 92 C 64 159 38 252 38 371 C 38 426 45 476 59 522 C 73 568 92 606 118 638 C 143 670 173 694 209 712 C 245 730 284 739 327 739 C 418 739 490 706 543 640 C 595 574 622 482 622 366 C 622 308 614 256 600 210 C 585 163 565 123 539 91 C 513 59 483 34 448 17 C 412 0 374 -9 333 -9 Z M 331 81 C 387 81 432 105 467 154 C 502 202 520 275 520 371 C 520 460 502 528 467 576 C 431 624 385 648 328 648 C 270 648 224 624 191 578 C 157 531 141 460 141 365 C 141 269 159 197 195 151 C 231 104 276 81 331 81 Z M 328 792 L 328 792 Z M 428 792 L 338 792 L 229 961 L 336 961 L 428 792 Z" unicode="Ò" />
<glyph horiz-adv-x="660" d="M 38 0 L 38 0 Z M 333 -9 C 241 -9 169 24 117 92 C 64 159 38 252 38 371 C 38 426 45 476 59 522 C 73 568 92 606 118 638 C 143 670 173 694 209 712 C 245 730 284 739 327 739 C 418 739 490 706 543 640 C 595 574 622 482 622 366 C 622 308 614 256 600 210 C 585 163 565 123 539 91 C 513 59 483 34 448 17 C 412 0 374 -9 333 -9 Z M 331 81 C 387 81 432 105 467 154 C 502 202 520 275 520 371 C 520 460 502 528 467 576 C 431 624 385 648 328 648 C 270 648 224 624 191 578 C 157 531 141 460 141 365 C 141 269 159 197 195 151 C 231 104 276 81 331 81 Z M 328 792 L 328 792 Z M 229 792 L 320 961 L 427 961 L 319 792 L 229 792 Z" unicode="Ó" />
<glyph horiz-adv-x="660" d="M 38 0 L 38 0 Z M 333 -9 C 241 -9 169 24 117 92 C 64 159 38 252 38 371 C 38 426 45 476 59 522 C 73 568 92 606 118 638 C 143 670 173 694 209 712 C 245 730 284 739 327 739 C 418 739 490 706 543 640 C 595 574 622 482 622 366 C 622 308 614 256 600 210 C 585 163 565 123 539 91 C 513 59 483 34 448 17 C 412 0 374 -9 333 -9 Z M 331 81 C 387 81 432 105 467 154 C 502 202 520 275 520 371 C 520 460 502 528 467 576 C 431 624 385 648 328 648 C 270 648 224 624 191 578 C 157 531 141 460 141 365 C 141 269 159 197 195 151 C 231 104 276 81 331 81 Z M 328 793 L 328 793 Z M 476 793 L 397 793 L 328 902 L 257 793 L 181 793 L 287 964 L 370 964 L 476 793 Z" unicode="Ô" />
<glyph horiz-adv-x="660" d="M 38 0 L 38 0 Z M 333 -9 C 241 -9 169 24 117 92 C 64 159 38 252 38 371 C 38 426 45 476 59 522 C 73 568 92 606 118 638 C 143 670 173 694 209 712 C 245 730 284 739 327 739 C 418 739 490 706 543 640 C 595 574 622 482 622 366 C 622 308 614 256 600 210 C 585 163 565 123 539 91 C 513 59 483 34 448 17 C 412 0 374 -9 333 -9 Z M 331 81 C 387 81 432 105 467 154 C 502 202 520 275 520 371 C 520 460 502 528 467 576 C 431 624 385 648 328 648 C 270 648 224 624 191 578 C 157 531 141 460 141 365 C 141 269 159 197 195 151 C 231 104 276 81 331 81 Z M 328 799 L 328 799 Z M 415 936 L 483 936 C 483 890 476 855 463 833 C 449 810 432 799 412 799 C 394 799 378 802 365 810 C 352 817 341 824 332 831 C 323 837 314 844 305 851 C 295 857 286 861 277 861 C 268 861 260 855 254 845 C 248 835 244 820 244 802 L 176 802 C 176 848 184 882 201 905 C 217 928 235 940 255 940 C 271 940 286 936 298 928 C 310 920 321 913 332 905 C 340 898 349 891 357 885 C 365 879 374 876 383 876 C 391 876 398 881 405 892 C 411 902 415 917 415 936 Z" unicode="Õ" />
<glyph horiz-adv-x="660" d="M 38 0 L 38 0 Z M 333 -9 C 241 -9 169 24 117 92 C 64 159 38 252 38 371 C 38 426 45 476 59 522 C 73 568 92 606 118 638 C 143 670 173 694 209 712 C 245 730 284 739 327 739 C 418 739 490 706 543 640 C 595 574 622 482 622 366 C 622 308 614 256 600 210 C 585 163 565 123 539 91 C 513 59 483 34 448 17 C 412 0 374 -9 333 -9 Z M 331 81 C 387 81 432 105 467 154 C 502 202 520 275 520 371 C 520 460 502 528 467 576 C 431 624 385 648 328 648 C 270 648 224 624 191 578 C 157 531 141 460 141 365 C 141 269 159 197 195 151 C 231 104 276 81 331 81 Z M 328 793 L 328 793 Z M 447 793 L 371 793 L 371 951 L 447 951 L 447 793 Z M 285 793 L 209 793 L 209 951 L 285 951 L 285 793 Z" unicode="Ö" />
<glyph horiz-adv-x="501" d="M 114 142 L 62 195 L 198 331 L 63 466 L 115 519 L 251 383 L 387 519 L 439 466 L 302 331 L 439 195 L 387 141 L 251 279 L 114 142 Z" unicode="×" />
<glyph horiz-adv-x="660" d="M 622 366 C 622 308 614 256 600 210 C 585 163 565 123 539 91 C 513 59 483 34 448 17 C 412 0 374 -9 333 -9 C 291 -9 252 -1 218 13 C 184 27 154 48 130 75 L 71 -1 L 34 30 L 100 115 C 80 147 64 184 54 228 C 43 271 38 319 38 371 C 38 426 45 476 59 522 C 73 568 92 606 118 638 C 143 670 173 694 209 712 C 245 730 284 739 327 739 C 367 739 403 732 437 719 C 470 705 499 686 524 662 L 590 746 L 628 716 L 556 623 C 577 591 593 554 605 511 C 616 467 622 419 622 366 Z M 141 365 C 141 332 143 302 147 274 C 151 246 158 222 167 202 L 463 582 C 446 604 426 620 403 631 C 380 642 355 648 328 648 C 270 648 224 624 191 578 C 157 531 141 460 141 365 Z M 520 371 C 520 405 517 435 512 463 C 506 491 499 516 490 538 L 192 155 C 208 130 228 111 252 99 C 276 87 302 81 331 81 C 387 81 432 105 467 154 C 502 202 520 275 520 371 Z" unicode="Ø" />
<glyph horiz-adv-x="603" d="M 66 0 L 66 0 Z M 537 730 L 537 234 C 537 192 530 156 517 126 C 504 96 487 71 465 51 C 443 31 418 16 389 6 C 360 -4 329 -9 297 -9 C 265 -9 236 -4 208 5 C 180 15 155 29 134 49 C 113 69 96 94 84 125 C 72 155 66 192 66 234 L 66 730 L 164 730 L 164 230 C 164 179 177 141 203 117 C 229 92 261 80 299 80 C 337 80 369 91 397 115 C 424 139 438 177 438 230 L 438 730 L 537 730 Z M 300 792 L 300 792 Z M 400 792 L 310 792 L 201 961 L 308 961 L 400 792 Z" unicode="Ù" />
<glyph horiz-adv-x="603" d="M 66 0 L 66 0 Z M 537 730 L 537 234 C 537 192 530 156 517 126 C 504 96 487 71 465 51 C 443 31 418 16 389 6 C 360 -4 329 -9 297 -9 C 265 -9 236 -4 208 5 C 180 15 155 29 134 49 C 113 69 96 94 84 125 C 72 155 66 192 66 234 L 66 730 L 164 730 L 164 230 C 164 179 177 141 203 117 C 229 92 261 80 299 80 C 337 80 369 91 397 115 C 424 139 438 177 438 230 L 438 730 L 537 730 Z M 300 792 L 300 792 Z M 201 792 L 292 961 L 399 961 L 291 792 L 201 792 Z" unicode="Ú" />
<glyph horiz-adv-x="603" d="M 66 0 L 66 0 Z M 537 730 L 537 234 C 537 192 530 156 517 126 C 504 96 487 71 465 51 C 443 31 418 16 389 6 C 360 -4 329 -9 297 -9 C 265 -9 236 -4 208 5 C 180 15 155 29 134 49 C 113 69 96 94 84 125 C 72 155 66 192 66 234 L 66 730 L 164 730 L 164 230 C 164 179 177 141 203 117 C 229 92 261 80 299 80 C 337 80 369 91 397 115 C 424 139 438 177 438 230 L 438 730 L 537 730 Z M 300 793 L 300 793 Z M 448 793 L 369 793 L 300 902 L 229 793 L 153 793 L 259 964 L 342 964 L 448 793 Z" unicode="Û" />
<glyph horiz-adv-x="603" d="M 66 0 L 66 0 Z M 537 730 L 537 234 C 537 192 530 156 517 126 C 504 96 487 71 465 51 C 443 31 418 16 389 6 C 360 -4 329 -9 297 -9 C 265 -9 236 -4 208 5 C 180 15 155 29 134 49 C 113 69 96 94 84 125 C 72 155 66 192 66 234 L 66 730 L 164 730 L 164 230 C 164 179 177 141 203 117 C 229 92 261 80 299 80 C 337 80 369 91 397 115 C 424 139 438 177 438 230 L 438 730 L 537 730 Z M 300 793 L 300 793 Z M 419 793 L 343 793 L 343 951 L 419 951 L 419 793 Z M 257 793 L 181 793 L 181 951 L 257 951 L 257 793 Z" unicode="Ü" />
<glyph horiz-adv-x="523" d="M 0 0 L 0 0 Z M 525 730 L 309 310 L 309 0 L 209 0 L 209 312 L -1 730 L 105 730 L 265 412 L 425 730 L 525 730 Z M 263 792 L 263 792 Z M 164 792 L 255 961 L 362 961 L 254 792 L 164 792 Z" unicode="Ý" />
<glyph horiz-adv-x="494" d="M 71 0 L 71 730 L 171 730 L 171 599 L 267 599 C 327 599 376 579 415 541 C 454 503 474 450 474 384 C 474 314 454 259 414 219 C 374 179 325 159 265 159 L 171 159 L 171 0 L 71 0 Z M 170 240 L 258 240 C 294 240 323 252 345 277 C 367 302 379 338 379 384 C 379 428 366 461 341 483 C 316 505 287 517 255 517 L 170 517 L 170 240 Z" unicode="Þ" />
<glyph horiz-adv-x="528" d="M 369 -8 C 335 -8 304 -2 278 9 C 252 20 230 35 214 53 L 259 113 C 271 99 287 88 306 80 C 324 72 343 68 363 68 C 380 68 395 71 408 79 C 420 87 427 100 427 119 C 427 134 419 147 405 158 C 390 168 367 181 335 196 C 297 212 269 232 251 255 C 233 277 224 304 224 335 C 224 369 234 396 254 416 C 274 436 295 449 318 457 C 324 459 331 469 339 485 C 347 501 351 533 351 579 C 351 619 342 649 325 669 C 308 689 284 699 254 699 C 227 699 205 689 187 671 C 169 653 161 625 161 587 L 161 0 L 68 0 L 68 592 C 68 650 85 695 120 727 C 155 759 200 776 254 776 C 306 776 350 759 386 726 C 422 692 439 642 439 574 C 439 520 430 478 413 450 C 396 422 380 406 364 402 C 346 399 331 393 318 385 C 305 376 299 363 299 346 C 299 330 306 316 320 303 C 334 289 356 276 388 262 C 429 244 459 225 478 205 C 497 185 507 157 507 120 C 507 99 502 81 494 65 C 486 49 475 35 462 25 C 449 14 434 6 418 0 C 402 -5 385 -8 369 -8 Z" unicode="ß" />
<glyph horiz-adv-x="407" d="M 19 0 L 19 0 Z M 362 0 L 278 0 L 278 51 C 265 35 248 21 227 10 C 205 -1 180 -7 150 -7 C 110 -7 78 5 54 30 C 30 54 19 88 19 130 C 19 177 35 212 67 236 C 99 259 140 272 190 275 L 274 280 L 274 299 C 274 323 266 342 252 354 C 238 366 217 372 189 372 C 163 372 141 368 123 360 C 105 352 91 345 82 337 L 52 397 C 66 410 86 421 112 431 C 138 441 170 446 209 446 C 251 446 287 434 317 412 C 347 389 362 354 362 306 L 362 0 Z M 276 109 L 276 212 L 204 208 C 177 206 154 199 135 187 C 115 175 106 157 106 133 C 106 111 113 95 128 85 C 143 75 161 70 181 70 C 203 70 223 74 239 82 C 255 90 268 99 276 109 Z M 197 498 L 197 498 Z M 297 498 L 207 498 L 98 667 L 205 667 L 297 498 Z" unicode="à" />
<glyph horiz-adv-x="407" d="M 19 0 L 19 0 Z M 362 0 L 278 0 L 278 51 C 265 35 248 21 227 10 C 205 -1 180 -7 150 -7 C 110 -7 78 5 54 30 C 30 54 19 88 19 130 C 19 177 35 212 67 236 C 99 259 140 272 190 275 L 274 280 L 274 299 C 274 323 266 342 252 354 C 238 366 217 372 189 372 C 163 372 141 368 123 360 C 105 352 91 345 82 337 L 52 397 C 66 410 86 421 112 431 C 138 441 170 446 209 446 C 251 446 287 434 317 412 C 347 389 362 354 362 306 L 362 0 Z M 276 109 L 276 212 L 204 208 C 177 206 154 199 135 187 C 115 175 106 157 106 133 C 106 111 113 95 128 85 C 143 75 161 70 181 70 C 203 70 223 74 239 82 C 255 90 268 99 276 109 Z M 197 498 L 197 498 Z M 98 498 L 189 667 L 296 667 L 188 498 L 98 498 Z" unicode="á" />
<glyph horiz-adv-x="407" d="M 19 0 L 19 0 Z M 362 0 L 278 0 L 278 51 C 265 35 248 21 227 10 C 205 -1 180 -7 150 -7 C 110 -7 78 5 54 30 C 30 54 19 88 19 130 C 19 177 35 212 67 236 C 99 259 140 272 190 275 L 274 280 L 274 299 C 274 323 266 342 252 354 C 238 366 217 372 189 372 C 163 372 141 368 123 360 C 105 352 91 345 82 337 L 52 397 C 66 410 86 421 112 431 C 138 441 170 446 209 446 C 251 446 287 434 317 412 C 347 389 362 354 362 306 L 362 0 Z M 276 109 L 276 212 L 204 208 C 177 206 154 199 135 187 C 115 175 106 157 106 133 C 106 111 113 95 128 85 C 143 75 161 70 181 70 C 203 70 223 74 239 82 C 255 90 268 99 276 109 Z M 197 499 L 197 499 Z M 345 499 L 266 499 L 197 608 L 126 499 L 50 499 L 156 670 L 239 670 L 345 499 Z" unicode="â" />
<glyph horiz-adv-x="407" d="M 19 0 L 19 0 Z M 362 0 L 278 0 L 278 51 C 265 35 248 21 227 10 C 205 -1 180 -7 150 -7 C 110 -7 78 5 54 30 C 30 54 19 88 19 130 C 19 177 35 212 67 236 C 99 259 140 272 190 275 L 274 280 L 274 299 C 274 323 266 342 252 354 C 238 366 217 372 189 372 C 163 372 141 368 123 360 C 105 352 91 345 82 337 L 52 397 C 66 410 86 421 112 431 C 138 441 170 446 209 446 C 251 446 287 434 317 412 C 347 389 362 354 362 306 L 362 0 Z M 276 109 L 276 212 L 204 208 C 177 206 154 199 135 187 C 115 175 106 157 106 133 C 106 111 113 95 128 85 C 143 75 161 70 181 70 C 203 70 223 74 239 82 C 255 90 268 99 276 109 Z M 197 505 L 197 505 Z M 284 642 L 352 642 C 352 596 345 561 332 539 C 318 516 301 505 281 505 C 263 505 247 508 234 516 C 221 523 210 530 201 537 C 192 543 183 550 174 557 C 164 563 155 567 146 567 C 137 567 129 561 123 551 C 117 541 113 526 113 508 L 45 508 C 45 554 53 588 70 611 C 86 634 104 646 124 646 C 140 646 155 642 167 634 C 179 626 190 619 201 611 C 209 604 218 597 226 591 C 234 585 243 582 252 582 C 260 582 267 587 274 598 C 280 608 284 623 284 642 Z" unicode="ã" />
<glyph horiz-adv-x="407" d="M 19 0 L 19 0 Z M 362 0 L 278 0 L 278 51 C 265 35 248 21 227 10 C 205 -1 180 -7 150 -7 C 110 -7 78 5 54 30 C 30 54 19 88 19 130 C 19 177 35 212 67 236 C 99 259 140 272 190 275 L 274 280 L 274 299 C 274 323 266 342 252 354 C 238 366 217 372 189 372 C 163 372 141 368 123 360 C 105 352 91 345 82 337 L 52 397 C 66 410 86 421 112 431 C 138 441 170 446 209 446 C 251 446 287 434 317 412 C 347 389 362 354 362 306 L 362 0 Z M 276 109 L 276 212 L 204 208 C 177 206 154 199 135 187 C 115 175 106 157 106 133 C 106 111 113 95 128 85 C 143 75 161 70 181 70 C 203 70 223 74 239 82 C 255 90 268 99 276 109 Z M 197 499 L 197 499 Z M 316 499 L 240 499 L 240 657 L 316 657 L 316 499 Z M 154 499 L 78 499 L 78 657 L 154 657 L 154 499 Z" unicode="ä" />
<glyph horiz-adv-x="407" d="M 19 0 L 19 0 Z M 362 0 L 278 0 L 278 51 C 265 35 248 21 227 10 C 205 -1 180 -7 150 -7 C 110 -7 78 5 54 30 C 30 54 19 88 19 130 C 19 177 35 212 67 236 C 99 259 140 272 190 275 L 274 280 L 274 299 C 274 323 266 342 252 354 C 238 366 217 372 189 372 C 163 372 141 368 123 360 C 105 352 91 345 82 337 L 52 397 C 66 410 86 421 112 431 C 138 441 170 446 209 446 C 251 446 287 434 317 412 C 347 389 362 354 362 306 L 362 0 Z M 276 109 L 276 212 L 204 208 C 177 206 154 199 135 187 C 115 175 106 157 106 133 C 106 111 113 95 128 85 C 143 75 161 70 181 70 C 203 70 223 74 239 82 C 255 90 268 99 276 109 Z M 197 495 L 197 495 Z M 197 495 C 165 495 139 506 117 528 C 95 550 84 576 84 608 C 84 640 95 667 117 689 C 139 711 165 722 197 722 C 229 722 256 711 278 689 C 300 667 311 640 311 608 C 311 576 300 550 278 528 C 256 506 229 495 197 495 Z M 197 548 C 213 548 227 553 238 565 C 249 577 255 591 255 608 C 255 624 249 639 238 651 C 227 663 213 669 197 669 C 181 669 167 663 156 651 C 144 639 139 624 139 608 C 139 591 144 577 156 565 C 167 553 181 548 197 548 Z" unicode="å" />
<glyph horiz-adv-x="672" d="M 473 -7 C 429 -7 393 2 367 22 C 341 42 323 63 315 87 C 305 60 285 38 256 20 C 227 2 194 -7 157 -7 C 117 -7 84 5 58 29 C 32 53 19 86 19 128 C 19 174 35 209 67 233 C 99 257 141 271 191 274 L 281 279 L 281 296 C 281 324 272 343 255 355 C 238 367 216 373 190 373 C 163 373 140 368 122 360 C 103 352 89 343 81 335 L 52 397 C 67 411 87 422 113 430 C 139 438 167 443 198 443 C 230 443 259 436 284 423 C 308 410 324 391 331 367 C 340 386 356 403 380 419 C 403 435 434 443 473 443 C 529 443 573 421 605 377 C 637 333 653 272 653 193 L 366 193 C 366 147 376 114 396 94 C 415 74 441 65 475 65 C 505 65 529 70 545 80 C 561 90 577 103 591 118 L 641 69 C 625 49 604 32 579 16 C 553 0 518 -7 473 -7 Z M 366 258 L 565 258 C 564 291 555 318 537 339 C 519 360 495 371 465 371 C 434 371 410 360 394 340 C 378 319 368 292 366 258 Z M 185 70 C 211 70 233 77 252 93 C 270 108 280 126 282 148 L 282 212 L 204 208 C 177 207 154 201 135 189 C 115 177 106 159 106 135 C 106 111 114 95 130 85 C 146 75 164 70 185 70 Z" unicode="æ" />
<glyph horiz-adv-x="382" d="M 23 0 L 23 0 Z M 311 126 L 376 81 C 364 60 347 40 323 21 C 299 2 264 -7 218 -7 C 187 -7 159 -1 135 10 C 111 21 90 36 74 56 C 57 76 44 99 36 127 C 27 155 23 185 23 217 C 23 248 27 277 36 305 C 45 333 58 357 76 377 C 93 397 114 414 139 426 C 163 438 191 444 222 444 C 263 444 296 435 321 417 C 346 399 365 379 378 359 L 313 308 C 303 323 291 336 277 348 C 263 359 244 365 221 365 C 190 365 165 351 147 323 C 128 295 119 261 119 219 C 119 171 129 134 149 108 C 169 82 195 69 226 69 C 250 69 268 75 281 88 C 294 101 304 114 311 126 Z M 207 -1 L 207 -1 Z M 214 -187 C 191 -187 168 -184 146 -178 C 123 -172 105 -164 92 -154 L 104 -115 C 112 -120 124 -126 140 -132 C 155 -138 171 -141 189 -141 C 203 -141 215 -137 226 -131 C 236 -124 242 -115 242 -104 C 242 -91 237 -82 228 -77 C 218 -72 208 -70 198 -70 C 190 -70 184 -70 178 -71 C 172 -72 166 -74 160 -77 L 145 -62 L 205 12 L 258 12 L 210 -50 C 242 -43 268 -46 290 -58 C 312 -70 323 -88 323 -112 C 323 -136 312 -155 290 -168 C 268 -180 243 -187 214 -187 Z" unicode="ç" />
<glyph horiz-adv-x="424" d="M 24 0 L 24 0 Z M 224 -7 C 165 -7 117 12 80 51 C 42 90 24 145 24 216 C 24 250 29 281 39 309 C 49 337 62 361 79 381 C 96 401 116 416 140 427 C 164 438 189 444 216 444 C 275 444 321 423 355 381 C 388 339 405 276 405 193 L 114 193 C 114 147 125 114 146 94 C 166 74 193 65 227 65 C 257 65 281 70 299 81 C 316 91 331 104 343 118 L 393 69 C 378 50 358 33 333 17 C 308 1 272 -7 224 -7 Z M 117 260 L 316 260 C 315 292 306 319 290 340 C 273 361 250 372 220 372 C 189 372 165 361 147 340 C 129 319 119 292 117 260 Z M 216 498 L 216 498 Z M 316 498 L 226 498 L 117 667 L 224 667 L 316 498 Z" unicode="è" />
<glyph horiz-adv-x="424" d="M 24 0 L 24 0 Z M 224 -7 C 165 -7 117 12 80 51 C 42 90 24 145 24 216 C 24 250 29 281 39 309 C 49 337 62 361 79 381 C 96 401 116 416 140 427 C 164 438 189 444 216 444 C 275 444 321 423 355 381 C 388 339 405 276 405 193 L 114 193 C 114 147 125 114 146 94 C 166 74 193 65 227 65 C 257 65 281 70 299 81 C 316 91 331 104 343 118 L 393 69 C 378 50 358 33 333 17 C 308 1 272 -7 224 -7 Z M 117 260 L 316 260 C 315 292 306 319 290 340 C 273 361 250 372 220 372 C 189 372 165 361 147 340 C 129 319 119 292 117 260 Z M 216 498 L 216 498 Z M 117 498 L 208 667 L 315 667 L 207 498 L 117 498 Z" unicode="é" />
<glyph horiz-adv-x="424" d="M 24 0 L 24 0 Z M 224 -7 C 165 -7 117 12 80 51 C 42 90 24 145 24 216 C 24 250 29 281 39 309 C 49 337 62 361 79 381 C 96 401 116 416 140 427 C 164 438 189 444 216 444 C 275 444 321 423 355 381 C 388 339 405 276 405 193 L 114 193 C 114 147 125 114 146 94 C 166 74 193 65 227 65 C 257 65 281 70 299 81 C 316 91 331 104 343 118 L 393 69 C 378 50 358 33 333 17 C 308 1 272 -7 224 -7 Z M 117 260 L 316 260 C 315 292 306 319 290 340 C 273 361 250 372 220 372 C 189 372 165 361 147 340 C 129 319 119 292 117 260 Z M 216 499 L 216 499 Z M 364 499 L 285 499 L 216 608 L 145 499 L 69 499 L 175 670 L 258 670 L 364 499 Z" unicode="ê" />
<glyph horiz-adv-x="424" d="M 24 0 L 24 0 Z M 224 -7 C 165 -7 117 12 80 51 C 42 90 24 145 24 216 C 24 250 29 281 39 309 C 49 337 62 361 79 381 C 96 401 116 416 140 427 C 164 438 189 444 216 444 C 275 444 321 423 355 381 C 388 339 405 276 405 193 L 114 193 C 114 147 125 114 146 94 C 166 74 193 65 227 65 C 257 65 281 70 299 81 C 316 91 331 104 343 118 L 393 69 C 378 50 358 33 333 17 C 308 1 272 -7 224 -7 Z M 117 260 L 316 260 C 315 292 306 319 290 340 C 273 361 250 372 220 372 C 189 372 165 361 147 340 C 129 319 119 292 117 260 Z M 216 499 L 216 499 Z M 335 499 L 259 499 L 259 657 L 335 657 L 335 499 Z M 173 499 L 97 499 L 97 657 L 173 657 L 173 499 Z" unicode="ë" />
<glyph horiz-adv-x="194" d="M 0 0 L 0 0 Z M 143 0 L 51 0 L 51 436 L 143 436 L 143 0 Z M 97 498 L 97 498 Z M 197 498 L 107 498 L -2 667 L 105 667 L 197 498 Z" unicode="ì" />
<glyph horiz-adv-x="194" d="M 0 0 L 0 0 Z M 143 0 L 51 0 L 51 436 L 143 436 L 143 0 Z M 97 498 L 97 498 Z M -2 498 L 89 667 L 196 667 L 88 498 L -2 498 Z" unicode="í" />
<glyph horiz-adv-x="194" d="M 0 0 L 0 0 Z M 143 0 L 51 0 L 51 436 L 143 436 L 143 0 Z M 97 499 L 97 499 Z M 245 499 L 166 499 L 97 608 L 26 499 L -50 499 L 56 670 L 139 670 L 245 499 Z" unicode="î" />
<glyph horiz-adv-x="194" d="M 0 0 L 0 0 Z M 143 0 L 51 0 L 51 436 L 143 436 L 143 0 Z M 97 499 L 97 499 Z M 216 499 L 140 499 L 140 657 L 216 657 L 216 499 Z M 54 499 L -22 499 L -22 657 L 54 657 L 54 499 Z" unicode="ï" />
<glyph horiz-adv-x="456" d="M 425 268 C 425 228 420 192 412 158 C 403 124 390 95 373 71 C 356 46 335 26 310 12 C 285 -1 256 -9 224 -9 C 166 -9 118 11 80 51 C 42 91 24 147 24 218 C 24 253 29 285 40 313 C 50 341 64 365 82 384 C 100 403 120 418 143 428 C 165 438 189 444 214 444 C 244 444 270 437 292 425 C 314 413 330 398 341 382 C 337 421 328 459 314 496 C 300 533 285 567 268 598 L 175 565 L 150 630 L 230 658 C 215 680 200 698 186 713 C 172 728 160 739 152 746 L 227 779 C 237 770 250 758 265 742 C 279 726 294 708 309 686 L 382 712 L 406 648 L 345 626 C 367 584 385 533 401 473 C 417 413 425 345 425 268 Z M 222 68 C 256 68 282 81 301 108 C 319 134 329 171 329 218 C 329 267 319 304 301 329 C 283 354 257 367 223 367 C 191 367 165 353 146 327 C 126 300 117 264 117 219 C 117 169 126 132 146 106 C 165 80 190 68 222 68 Z" unicode="ð" />
<glyph horiz-adv-x="443" d="M 48 0 L 48 0 Z M 398 0 L 307 0 L 307 289 C 307 313 300 332 286 346 C 272 359 253 366 229 366 C 205 366 184 358 166 343 C 148 327 139 302 139 266 L 139 0 L 48 0 L 48 436 L 135 436 L 135 367 C 143 389 157 408 179 422 C 201 436 229 444 263 444 C 303 444 336 433 361 411 C 385 389 398 358 398 316 L 398 0 Z M 222 505 L 222 505 Z M 309 642 L 377 642 C 377 596 370 561 357 539 C 343 516 326 505 306 505 C 288 505 272 508 259 516 C 246 523 235 530 226 537 C 217 543 208 550 199 557 C 189 563 180 567 171 567 C 162 567 154 561 148 551 C 142 541 138 526 138 508 L 70 508 C 70 554 78 588 95 611 C 111 634 129 646 149 646 C 165 646 180 642 192 634 C 204 626 215 619 226 611 C 234 604 243 597 251 591 C 259 585 268 582 277 582 C 285 582 292 587 299 598 C 305 608 309 623 309 642 Z" unicode="ñ" />
<glyph horiz-adv-x="443" d="M 23 0 L 23 0 Z M 221 -7 C 193 -7 168 -2 144 8 C 120 18 99 32 81 51 C 63 70 48 93 38 121 C 28 149 23 180 23 216 C 23 249 28 280 38 308 C 48 336 61 360 78 380 C 95 400 116 415 140 427 C 164 438 189 444 217 444 C 275 444 323 424 362 385 C 400 345 420 293 420 228 C 420 194 415 162 405 133 C 395 104 382 79 365 59 C 347 38 326 22 302 10 C 277 -1 250 -7 221 -7 Z M 222 67 C 253 67 278 80 296 107 C 314 133 324 171 324 221 C 324 269 314 305 296 330 C 277 355 251 368 217 368 C 188 368 165 355 147 330 C 129 304 120 267 120 219 C 120 167 129 128 148 104 C 167 79 192 67 222 67 Z M 219 498 L 219 498 Z M 319 498 L 229 498 L 120 667 L 227 667 L 319 498 Z" unicode="ò" />
<glyph horiz-adv-x="443" d="M 23 0 L 23 0 Z M 221 -7 C 193 -7 168 -2 144 8 C 120 18 99 32 81 51 C 63 70 48 93 38 121 C 28 149 23 180 23 216 C 23 249 28 280 38 308 C 48 336 61 360 78 380 C 95 400 116 415 140 427 C 164 438 189 444 217 444 C 275 444 323 424 362 385 C 400 345 420 293 420 228 C 420 194 415 162 405 133 C 395 104 382 79 365 59 C 347 38 326 22 302 10 C 277 -1 250 -7 221 -7 Z M 222 67 C 253 67 278 80 296 107 C 314 133 324 171 324 221 C 324 269 314 305 296 330 C 277 355 251 368 217 368 C 188 368 165 355 147 330 C 129 304 120 267 120 219 C 120 167 129 128 148 104 C 167 79 192 67 222 67 Z M 219 498 L 219 498 Z M 120 498 L 211 667 L 318 667 L 210 498 L 120 498 Z" unicode="ó" />
<glyph horiz-adv-x="443" d="M 23 0 L 23 0 Z M 221 -7 C 193 -7 168 -2 144 8 C 120 18 99 32 81 51 C 63 70 48 93 38 121 C 28 149 23 180 23 216 C 23 249 28 280 38 308 C 48 336 61 360 78 380 C 95 400 116 415 140 427 C 164 438 189 444 217 444 C 275 444 323 424 362 385 C 400 345 420 293 420 228 C 420 194 415 162 405 133 C 395 104 382 79 365 59 C 347 38 326 22 302 10 C 277 -1 250 -7 221 -7 Z M 222 67 C 253 67 278 80 296 107 C 314 133 324 171 324 221 C 324 269 314 305 296 330 C 277 355 251 368 217 368 C 188 368 165 355 147 330 C 129 304 120 267 120 219 C 120 167 129 128 148 104 C 167 79 192 67 222 67 Z M 219 499 L 219 499 Z M 367 499 L 288 499 L 219 608 L 148 499 L 72 499 L 178 670 L 261 670 L 367 499 Z" unicode="ô" />
<glyph horiz-adv-x="443" d="M 23 0 L 23 0 Z M 221 -7 C 193 -7 168 -2 144 8 C 120 18 99 32 81 51 C 63 70 48 93 38 121 C 28 149 23 180 23 216 C 23 249 28 280 38 308 C 48 336 61 360 78 380 C 95 400 116 415 140 427 C 164 438 189 444 217 444 C 275 444 323 424 362 385 C 400 345 420 293 420 228 C 420 194 415 162 405 133 C 395 104 382 79 365 59 C 347 38 326 22 302 10 C 277 -1 250 -7 221 -7 Z M 222 67 C 253 67 278 80 296 107 C 314 133 324 171 324 221 C 324 269 314 305 296 330 C 277 355 251 368 217 368 C 188 368 165 355 147 330 C 129 304 120 267 120 219 C 120 167 129 128 148 104 C 167 79 192 67 222 67 Z M 219 505 L 219 505 Z M 306 642 L 374 642 C 374 596 367 561 354 539 C 340 516 323 505 303 505 C 285 505 269 508 256 516 C 243 523 232 530 223 537 C 214 543 205 550 196 557 C 186 563 177 567 168 567 C 159 567 151 561 145 551 C 139 541 135 526 135 508 L 67 508 C 67 554 75 588 92 611 C 108 634 126 646 146 646 C 162 646 177 642 189 634 C 201 626 212 619 223 611 C 231 604 240 597 248 591 C 256 585 265 582 274 582 C 282 582 289 587 296 598 C 302 608 306 623 306 642 Z" unicode="õ" />
<glyph horiz-adv-x="443" d="M 23 0 L 23 0 Z M 221 -7 C 193 -7 168 -2 144 8 C 120 18 99 32 81 51 C 63 70 48 93 38 121 C 28 149 23 180 23 216 C 23 249 28 280 38 308 C 48 336 61 360 78 380 C 95 400 116 415 140 427 C 164 438 189 444 217 444 C 275 444 323 424 362 385 C 400 345 420 293 420 228 C 420 194 415 162 405 133 C 395 104 382 79 365 59 C 347 38 326 22 302 10 C 277 -1 250 -7 221 -7 Z M 222 67 C 253 67 278 80 296 107 C 314 133 324 171 324 221 C 324 269 314 305 296 330 C 277 355 251 368 217 368 C 188 368 165 355 147 330 C 129 304 120 267 120 219 C 120 167 129 128 148 104 C 167 79 192 67 222 67 Z M 219 499 L 219 499 Z M 338 499 L 262 499 L 262 657 L 338 657 L 338 499 Z M 176 499 L 100 499 L 100 657 L 176 657 L 176 499 Z" unicode="ö" />
<glyph horiz-adv-x="500" d="M 206 448 L 206 564 L 294 564 L 294 448 L 206 448 Z M 25 291 L 25 370 L 475 370 L 475 291 L 25 291 Z M 206 97 L 206 213 L 294 213 L 294 97 L 206 97 Z" unicode="÷" />
<glyph horiz-adv-x="443" d="M 420 228 C 420 194 415 162 405 133 C 395 104 382 79 365 59 C 347 38 326 22 302 10 C 277 -1 250 -7 221 -7 C 197 -7 175 -3 154 4 C 132 11 113 22 97 37 L 64 -2 L 37 25 L 70 64 C 55 82 43 104 35 130 C 27 156 23 184 23 216 C 23 249 28 280 38 308 C 48 336 61 360 78 380 C 95 400 116 415 140 427 C 164 438 189 444 217 444 C 243 444 267 439 290 431 C 312 423 332 411 350 397 L 383 437 L 410 410 L 376 369 C 390 351 400 330 408 306 C 416 282 420 256 420 228 Z M 120 219 C 120 202 121 187 123 174 C 125 160 127 148 131 138 L 295 332 C 286 344 275 353 262 359 C 248 365 233 368 217 368 C 188 368 165 355 147 330 C 129 304 120 267 120 219 Z M 324 221 C 324 235 323 249 321 261 C 319 273 316 285 314 295 L 150 101 C 158 89 169 81 181 75 C 193 69 207 67 222 67 C 253 67 278 80 296 107 C 314 133 324 171 324 221 Z" unicode="ø" />
<glyph horiz-adv-x="444" d="M 46 0 L 46 0 Z M 46 436 L 137 436 L 137 146 C 137 118 144 98 158 85 C 172 71 191 65 216 65 C 240 65 260 72 278 88 C 295 103 304 130 304 168 L 304 436 L 396 436 L 396 0 L 307 0 L 307 61 C 297 40 282 23 260 11 C 238 0 211 -7 181 -7 C 143 -7 111 3 85 25 C 59 47 46 81 46 127 L 46 436 Z M 220 498 L 220 498 Z M 320 498 L 230 498 L 121 667 L 228 667 L 320 498 Z" unicode="ù" />
<glyph horiz-adv-x="444" d="M 46 0 L 46 0 Z M 46 436 L 137 436 L 137 146 C 137 118 144 98 158 85 C 172 71 191 65 216 65 C 240 65 260 72 278 88 C 295 103 304 130 304 168 L 304 436 L 396 436 L 396 0 L 307 0 L 307 61 C 297 40 282 23 260 11 C 238 0 211 -7 181 -7 C 143 -7 111 3 85 25 C 59 47 46 81 46 127 L 46 436 Z M 220 498 L 220 498 Z M 121 498 L 212 667 L 319 667 L 211 498 L 121 498 Z" unicode="ú" />
<glyph horiz-adv-x="444" d="M 46 0 L 46 0 Z M 46 436 L 137 436 L 137 146 C 137 118 144 98 158 85 C 172 71 191 65 216 65 C 240 65 260 72 278 88 C 295 103 304 130 304 168 L 304 436 L 396 436 L 396 0 L 307 0 L 307 61 C 297 40 282 23 260 11 C 238 0 211 -7 181 -7 C 143 -7 111 3 85 25 C 59 47 46 81 46 127 L 46 436 Z M 220 499 L 220 499 Z M 368 499 L 289 499 L 220 608 L 149 499 L 73 499 L 179 670 L 262 670 L 368 499 Z" unicode="û" />
<glyph horiz-adv-x="444" d="M 46 0 L 46 0 Z M 46 436 L 137 436 L 137 146 C 137 118 144 98 158 85 C 172 71 191 65 216 65 C 240 65 260 72 278 88 C 295 103 304 130 304 168 L 304 436 L 396 436 L 396 0 L 307 0 L 307 61 C 297 40 282 23 260 11 C 238 0 211 -7 181 -7 C 143 -7 111 3 85 25 C 59 47 46 81 46 127 L 46 436 Z M 220 499 L 220 499 Z M 339 499 L 263 499 L 263 657 L 339 657 L 339 499 Z M 177 499 L 101 499 L 101 657 L 177 657 L 177 499 Z" unicode="ü" />
<glyph horiz-adv-x="385" d="M 0 0 L 0 0 Z M 387 436 L 188 -103 C 174 -139 154 -164 130 -178 C 106 -192 80 -200 54 -200 C 41 -200 29 -198 19 -195 C 8 -192 0 -189 -6 -187 L 21 -110 C 23 -111 28 -113 36 -115 C 44 -117 52 -119 60 -119 C 72 -119 82 -114 92 -106 C 102 -97 110 -83 118 -63 L 152 35 L -3 436 L 95 436 L 197 151 L 295 436 L 387 436 Z M 193 498 L 193 498 Z M 94 498 L 185 667 L 292 667 L 184 498 L 94 498 Z" unicode="ý" />
<glyph horiz-adv-x="452" d="M 48 -200 L 48 770 L 133 770 L 133 354 C 139 376 155 397 179 415 C 203 433 232 443 266 443 C 292 443 316 437 336 426 C 356 415 372 400 386 382 C 400 363 410 341 417 315 C 424 289 428 261 428 231 C 428 157 412 100 380 58 C 348 16 309 -5 262 -5 C 230 -5 202 1 180 15 C 158 29 143 44 135 62 L 135 -200 L 48 -200 Z M 232 64 C 262 64 287 76 305 102 C 323 128 332 165 332 215 C 332 259 323 296 307 325 C 291 354 266 369 232 369 C 206 369 183 357 163 333 C 143 309 133 268 133 210 C 133 155 142 117 162 96 C 182 74 205 64 232 64 Z" unicode="þ" />
<glyph horiz-adv-x="385" d="M 0 0 L 0 0 Z M 387 436 L 188 -103 C 174 -139 154 -164 130 -178 C 106 -192 80 -200 54 -200 C 41 -200 29 -198 19 -195 C 8 -192 0 -189 -6 -187 L 21 -110 C 23 -111 28 -113 36 -115 C 44 -117 52 -119 60 -119 C 72 -119 82 -114 92 -106 C 102 -97 110 -83 118 -63 L 152 35 L -3 436 L 95 436 L 197 151 L 295 436 L 387 436 Z M 193 499 L 193 499 Z M 312 499 L 236 499 L 236 657 L 312 657 L 312 499 Z M 150 499 L 74 499 L 74 657 L 150 657 L 150 499 Z" unicode="ÿ" />
<glyph horiz-adv-x="539" d="M 2 0 L 2 0 Z M 537 0 L 439 0 L 381 182 L 153 182 L 97 0 L 2 0 L 237 734 L 303 734 L 537 0 Z M 359 266 L 267 549 L 175 266 L 359 266 Z M 266 817 L 266 817 Z M 391 817 L 141 817 L 141 885 L 391 885 L 391 817 Z" unicode="Ā" />
<glyph horiz-adv-x="407" d="M 19 0 L 19 0 Z M 362 0 L 278 0 L 278 51 C 265 35 248 21 227 10 C 205 -1 180 -7 150 -7 C 110 -7 78 5 54 30 C 30 54 19 88 19 130 C 19 177 35 212 67 236 C 99 259 140 272 190 275 L 274 280 L 274 299 C 274 323 266 342 252 354 C 238 366 217 372 189 372 C 163 372 141 368 123 360 C 105 352 91 345 82 337 L 52 397 C 66 410 86 421 112 431 C 138 441 170 446 209 446 C 251 446 287 434 317 412 C 347 389 362 354 362 306 L 362 0 Z M 276 109 L 276 212 L 204 208 C 177 206 154 199 135 187 C 115 175 106 157 106 133 C 106 111 113 95 128 85 C 143 75 161 70 181 70 C 203 70 223 74 239 82 C 255 90 268 99 276 109 Z M 197 523 L 197 523 Z M 322 523 L 72 523 L 72 591 L 322 591 L 322 523 Z" unicode="ā" />
<glyph horiz-adv-x="539" d="M 2 0 L 2 0 Z M 537 0 L 439 0 L 381 182 L 153 182 L 97 0 L 2 0 L 237 734 L 303 734 L 537 0 Z M 359 266 L 267 549 L 175 266 L 359 266 Z M 266 797 L 266 797 Z M 330 955 L 407 955 C 403 899 388 859 362 834 C 336 809 304 797 266 797 C 227 797 195 809 169 834 C 143 859 129 899 126 955 L 202 955 C 204 925 209 902 219 885 C 228 867 244 859 266 859 C 288 859 303 867 313 884 C 323 900 328 924 330 955 Z" unicode="Ă" />
<glyph horiz-adv-x="407" d="M 19 0 L 19 0 Z M 362 0 L 278 0 L 278 51 C 265 35 248 21 227 10 C 205 -1 180 -7 150 -7 C 110 -7 78 5 54 30 C 30 54 19 88 19 130 C 19 177 35 212 67 236 C 99 259 140 272 190 275 L 274 280 L 274 299 C 274 323 266 342 252 354 C 238 366 217 372 189 372 C 163 372 141 368 123 360 C 105 352 91 345 82 337 L 52 397 C 66 410 86 421 112 431 C 138 441 170 446 209 446 C 251 446 287 434 317 412 C 347 389 362 354 362 306 L 362 0 Z M 276 109 L 276 212 L 204 208 C 177 206 154 199 135 187 C 115 175 106 157 106 133 C 106 111 113 95 128 85 C 143 75 161 70 181 70 C 203 70 223 74 239 82 C 255 90 268 99 276 109 Z M 197 503 L 197 503 Z M 261 661 L 338 661 C 334 605 319 565 293 540 C 267 515 235 503 197 503 C 158 503 126 515 100 540 C 74 565 60 605 57 661 L 133 661 C 135 631 140 608 150 591 C 159 573 175 565 197 565 C 219 565 234 573 244 590 C 254 606 259 630 261 661 Z" unicode="ă" />
<glyph horiz-adv-x="539" d="M 2 0 L 2 0 Z M 537 0 L 439 0 L 381 182 L 153 182 L 97 0 L 2 0 L 237 734 L 303 734 L 537 0 Z M 359 266 L 267 549 L 175 266 L 359 266 Z M 450 -9 L 450 -9 Z M 550 -96 L 576 -135 C 556 -155 534 -171 510 -182 C 485 -193 458 -199 429 -199 C 396 -199 370 -191 351 -177 C 332 -162 323 -143 323 -121 C 323 -96 332 -73 351 -51 C 369 -29 398 -11 438 4 L 501 4 C 474 -8 451 -21 431 -37 C 411 -53 402 -68 402 -84 C 402 -98 407 -109 418 -117 C 428 -125 442 -130 459 -130 C 477 -130 494 -126 510 -120 C 526 -114 539 -106 550 -96 Z" unicode="Ą" />
<glyph horiz-adv-x="407" d="M 19 0 L 19 0 Z M 362 0 L 278 0 L 278 51 C 265 35 248 21 227 10 C 205 -1 180 -7 150 -7 C 110 -7 78 5 54 30 C 30 54 19 88 19 130 C 19 177 35 212 67 236 C 99 259 140 272 190 275 L 274 280 L 274 299 C 274 323 266 342 252 354 C 238 366 217 372 189 372 C 163 372 141 368 123 360 C 105 352 91 345 82 337 L 52 397 C 66 410 86 421 112 431 C 138 441 170 446 209 446 C 251 446 287 434 317 412 C 347 389 362 354 362 306 L 362 0 Z M 276 109 L 276 212 L 204 208 C 177 206 154 199 135 187 C 115 175 106 157 106 133 C 106 111 113 95 128 85 C 143 75 161 70 181 70 C 203 70 223 74 239 82 C 255 90 268 99 276 109 Z M 294 -9 L 294 -9 Z M 394 -96 L 420 -135 C 400 -155 378 -171 354 -182 C 329 -193 302 -199 273 -199 C 240 -199 214 -191 195 -177 C 176 -162 167 -143 167 -121 C 167 -96 176 -73 195 -51 C 213 -29 242 -11 282 4 L 345 4 C 318 -8 295 -21 275 -37 C 255 -53 246 -68 246 -84 C 246 -98 251 -109 262 -117 C 272 -125 286 -130 303 -130 C 321 -130 338 -126 354 -120 C 370 -114 383 -106 394 -96 Z" unicode="ą" />
<glyph horiz-adv-x="557" d="M 39 0 L 39 0 Z M 317 -9 C 277 -9 241 -1 207 15 C 173 31 143 54 119 86 C 94 117 74 156 60 203 C 46 250 39 304 39 366 C 39 422 45 474 58 520 C 71 566 90 606 114 638 C 138 670 167 695 202 713 C 236 730 275 739 319 739 C 383 739 431 726 465 702 C 498 677 524 647 543 611 L 464 562 C 450 584 432 604 410 621 C 388 637 358 646 321 646 C 264 646 220 622 188 575 C 156 528 140 457 140 361 C 140 311 145 268 156 232 C 166 196 180 168 197 146 C 214 124 234 108 257 98 C 279 88 302 83 326 83 C 364 83 396 91 420 107 C 444 123 463 146 479 174 L 552 131 C 530 89 500 55 462 29 C 423 3 375 -9 317 -9 Z M 321 792 L 321 792 Z M 222 792 L 313 961 L 420 961 L 312 792 L 222 792 Z" unicode="Ć" />
<glyph horiz-adv-x="382" d="M 23 0 L 23 0 Z M 311 126 L 376 81 C 364 60 347 40 323 21 C 299 2 264 -7 218 -7 C 187 -7 159 -1 135 10 C 111 21 90 36 74 56 C 57 76 44 99 36 127 C 27 155 23 185 23 217 C 23 248 27 277 36 305 C 45 333 58 357 76 377 C 93 397 114 414 139 426 C 163 438 191 444 222 444 C 263 444 296 435 321 417 C 346 399 365 379 378 359 L 313 308 C 303 323 291 336 277 348 C 263 359 244 365 221 365 C 190 365 165 351 147 323 C 128 295 119 261 119 219 C 119 171 129 134 149 108 C 169 82 195 69 226 69 C 250 69 268 75 281 88 C 294 101 304 114 311 126 Z M 208 498 L 208 498 Z M 109 498 L 200 667 L 307 667 L 199 498 L 109 498 Z" unicode="ć" />
<glyph horiz-adv-x="557" d="M 39 0 L 39 0 Z M 317 -9 C 277 -9 241 -1 207 15 C 173 31 143 54 119 86 C 94 117 74 156 60 203 C 46 250 39 304 39 366 C 39 422 45 474 58 520 C 71 566 90 606 114 638 C 138 670 167 695 202 713 C 236 730 275 739 319 739 C 383 739 431 726 465 702 C 498 677 524 647 543 611 L 464 562 C 450 584 432 604 410 621 C 388 637 358 646 321 646 C 264 646 220 622 188 575 C 156 528 140 457 140 361 C 140 311 145 268 156 232 C 166 196 180 168 197 146 C 214 124 234 108 257 98 C 279 88 302 83 326 83 C 364 83 396 91 420 107 C 444 123 463 146 479 174 L 552 131 C 530 89 500 55 462 29 C 423 3 375 -9 317 -9 Z M 321 793 L 321 793 Z M 469 793 L 390 793 L 321 902 L 250 793 L 174 793 L 280 964 L 363 964 L 469 793 Z" unicode="Ĉ" />
<glyph horiz-adv-x="382" d="M 23 0 L 23 0 Z M 311 126 L 376 81 C 364 60 347 40 323 21 C 299 2 264 -7 218 -7 C 187 -7 159 -1 135 10 C 111 21 90 36 74 56 C 57 76 44 99 36 127 C 27 155 23 185 23 217 C 23 248 27 277 36 305 C 45 333 58 357 76 377 C 93 397 114 414 139 426 C 163 438 191 444 222 444 C 263 444 296 435 321 417 C 346 399 365 379 378 359 L 313 308 C 303 323 291 336 277 348 C 263 359 244 365 221 365 C 190 365 165 351 147 323 C 128 295 119 261 119 219 C 119 171 129 134 149 108 C 169 82 195 69 226 69 C 250 69 268 75 281 88 C 294 101 304 114 311 126 Z M 208 499 L 208 499 Z M 356 499 L 277 499 L 208 608 L 137 499 L 61 499 L 167 670 L 250 670 L 356 499 Z" unicode="ĉ" />
<glyph horiz-adv-x="557" d="M 39 0 L 39 0 Z M 317 -9 C 277 -9 241 -1 207 15 C 173 31 143 54 119 86 C 94 117 74 156 60 203 C 46 250 39 304 39 366 C 39 422 45 474 58 520 C 71 566 90 606 114 638 C 138 670 167 695 202 713 C 236 730 275 739 319 739 C 383 739 431 726 465 702 C 498 677 524 647 543 611 L 464 562 C 450 584 432 604 410 621 C 388 637 358 646 321 646 C 264 646 220 622 188 575 C 156 528 140 457 140 361 C 140 311 145 268 156 232 C 166 196 180 168 197 146 C 214 124 234 108 257 98 C 279 88 302 83 326 83 C 364 83 396 91 420 107 C 444 123 463 146 479 174 L 552 131 C 530 89 500 55 462 29 C 423 3 375 -9 317 -9 Z M 321 805 L 321 805 Z M 364 805 L 279 805 L 279 938 L 364 938 L 364 805 Z" unicode="Ċ" />
<glyph horiz-adv-x="382" d="M 23 0 L 23 0 Z M 311 126 L 376 81 C 364 60 347 40 323 21 C 299 2 264 -7 218 -7 C 187 -7 159 -1 135 10 C 111 21 90 36 74 56 C 57 76 44 99 36 127 C 27 155 23 185 23 217 C 23 248 27 277 36 305 C 45 333 58 357 76 377 C 93 397 114 414 139 426 C 163 438 191 444 222 444 C 263 444 296 435 321 417 C 346 399 365 379 378 359 L 313 308 C 303 323 291 336 277 348 C 263 359 244 365 221 365 C 190 365 165 351 147 323 C 128 295 119 261 119 219 C 119 171 129 134 149 108 C 169 82 195 69 226 69 C 250 69 268 75 281 88 C 294 101 304 114 311 126 Z M 208 511 L 208 511 Z M 251 511 L 166 511 L 166 644 L 251 644 L 251 511 Z" unicode="ċ" />
<glyph horiz-adv-x="557" d="M 39 0 L 39 0 Z M 317 -9 C 277 -9 241 -1 207 15 C 173 31 143 54 119 86 C 94 117 74 156 60 203 C 46 250 39 304 39 366 C 39 422 45 474 58 520 C 71 566 90 606 114 638 C 138 670 167 695 202 713 C 236 730 275 739 319 739 C 383 739 431 726 465 702 C 498 677 524 647 543 611 L 464 562 C 450 584 432 604 410 621 C 388 637 358 646 321 646 C 264 646 220 622 188 575 C 156 528 140 457 140 361 C 140 311 145 268 156 232 C 166 196 180 168 197 146 C 214 124 234 108 257 98 C 279 88 302 83 326 83 C 364 83 396 91 420 107 C 444 123 463 146 479 174 L 552 131 C 530 89 500 55 462 29 C 423 3 375 -9 317 -9 Z M 321 793 L 321 793 Z M 174 964 L 252 964 L 322 854 L 392 964 L 469 964 L 363 793 L 280 793 L 174 964 Z" unicode="Č" />
<glyph horiz-adv-x="382" d="M 23 0 L 23 0 Z M 311 126 L 376 81 C 364 60 347 40 323 21 C 299 2 264 -7 218 -7 C 187 -7 159 -1 135 10 C 111 21 90 36 74 56 C 57 76 44 99 36 127 C 27 155 23 185 23 217 C 23 248 27 277 36 305 C 45 333 58 357 76 377 C 93 397 114 414 139 426 C 163 438 191 444 222 444 C 263 444 296 435 321 417 C 346 399 365 379 378 359 L 313 308 C 303 323 291 336 277 348 C 263 359 244 365 221 365 C 190 365 165 351 147 323 C 128 295 119 261 119 219 C 119 171 129 134 149 108 C 169 82 195 69 226 69 C 250 69 268 75 281 88 C 294 101 304 114 311 126 Z M 208 499 L 208 499 Z M 61 670 L 139 670 L 209 560 L 279 670 L 356 670 L 250 499 L 167 499 L 61 670 Z" unicode="č" />
<glyph horiz-adv-x="608" d="M 71 0 L 71 0 Z M 71 0 L 71 730 L 252 730 C 302 730 347 721 387 704 C 426 686 459 662 486 631 C 513 599 534 561 548 517 C 562 472 569 422 569 368 C 569 316 562 268 548 223 C 534 178 514 139 487 106 C 460 73 426 47 385 28 C 343 9 295 0 241 0 L 71 0 Z M 171 87 L 242 87 C 281 87 315 93 344 107 C 372 121 396 140 414 164 C 432 188 445 218 454 252 C 462 286 467 324 467 365 C 467 455 448 524 410 571 C 372 617 319 641 252 641 L 171 641 L 171 87 Z M 279 793 L 279 793 Z M 132 964 L 210 964 L 280 854 L 350 964 L 427 964 L 321 793 L 238 793 L 132 964 Z" unicode="Ď" />
<glyph horiz-adv-x="460" d="M 24 0 L 24 0 Z M 197 -6 C 170 -6 146 0 125 11 C 103 22 85 37 70 57 C 55 76 44 99 36 126 C 28 152 24 181 24 212 C 24 281 41 337 75 379 C 109 421 151 442 201 442 C 233 442 260 434 281 419 C 302 404 316 386 324 366 L 324 770 L 412 770 L 412 0 L 328 0 L 328 69 C 320 51 306 34 286 18 C 266 2 236 -6 197 -6 Z M 224 66 C 254 66 278 79 298 107 C 317 135 327 173 327 221 C 327 270 316 307 295 331 C 273 355 248 367 220 367 C 189 367 165 353 147 327 C 129 301 120 264 120 218 C 120 174 129 137 147 109 C 165 80 190 66 224 66 Z M 548 621 L 543 483 L 465 483 L 460 621 L 460 730 L 548 730 L 548 621 Z" unicode="ď" />
<glyph horiz-adv-x="608" d="M 24 0 L 24 0 Z M 569 364 C 569 313 562 265 548 221 C 534 177 514 138 487 106 C 460 73 426 47 385 28 C 343 9 295 0 241 0 L 71 0 L 71 324 L 24 324 L 24 399 L 71 399 L 71 730 L 252 730 C 302 730 347 721 387 704 C 427 686 460 662 487 630 C 513 598 534 560 548 515 C 562 469 569 419 569 364 Z M 171 81 L 241 81 C 281 81 316 88 345 102 C 373 116 397 135 415 160 C 433 185 446 215 454 250 C 462 284 467 322 467 362 C 467 456 448 528 410 576 C 372 624 320 648 253 648 L 171 648 L 171 399 L 335 399 L 335 324 L 171 324 L 171 81 Z" unicode="Đ" />
<glyph horiz-adv-x="460" d="M 328 69 C 320 51 306 34 286 18 C 266 2 236 -6 197 -6 C 170 -6 146 0 125 11 C 103 22 85 37 70 57 C 55 76 44 99 36 126 C 28 152 24 181 24 212 C 24 281 41 337 75 379 C 109 421 151 442 201 442 C 233 442 260 434 281 419 C 302 404 316 386 324 366 L 324 563 L 214 563 L 214 641 L 324 641 L 324 770 L 412 770 L 412 641 L 450 641 L 450 563 L 412 563 L 412 0 L 328 0 L 328 69 Z M 224 66 C 254 66 278 79 298 107 C 317 135 327 173 327 221 C 327 270 316 307 295 331 C 273 355 248 367 220 367 C 189 367 165 353 147 327 C 129 301 120 264 120 218 C 120 174 129 137 147 109 C 165 80 190 66 224 66 Z" unicode="đ" />
<glyph horiz-adv-x="456" d="M 71 0 L 71 0 Z M 432 0 L 71 0 L 71 730 L 414 730 L 414 640 L 169 640 L 169 408 L 403 408 L 403 318 L 169 318 L 169 90 L 432 90 L 432 0 Z M 242 817 L 242 817 Z M 367 817 L 117 817 L 117 885 L 367 885 L 367 817 Z" unicode="Ē" />
<glyph horiz-adv-x="424" d="M 24 0 L 24 0 Z M 224 -7 C 165 -7 117 12 80 51 C 42 90 24 145 24 216 C 24 250 29 281 39 309 C 49 337 62 361 79 381 C 96 401 116 416 140 427 C 164 438 189 444 216 444 C 275 444 321 423 355 381 C 388 339 405 276 405 193 L 114 193 C 114 147 125 114 146 94 C 166 74 193 65 227 65 C 257 65 281 70 299 81 C 316 91 331 104 343 118 L 393 69 C 378 50 358 33 333 17 C 308 1 272 -7 224 -7 Z M 117 260 L 316 260 C 315 292 306 319 290 340 C 273 361 250 372 220 372 C 189 372 165 361 147 340 C 129 319 119 292 117 260 Z M 216 523 L 216 523 Z M 341 523 L 91 523 L 91 591 L 341 591 L 341 523 Z" unicode="ē" />
<glyph horiz-adv-x="456" d="M 71 0 L 71 0 Z M 432 0 L 71 0 L 71 730 L 414 730 L 414 640 L 169 640 L 169 408 L 403 408 L 403 318 L 169 318 L 169 90 L 432 90 L 432 0 Z M 242 797 L 242 797 Z M 306 955 L 383 955 C 379 899 364 859 338 834 C 312 809 280 797 242 797 C 203 797 171 809 145 834 C 119 859 105 899 102 955 L 178 955 C 180 925 185 902 195 885 C 204 867 220 859 242 859 C 264 859 279 867 289 884 C 299 900 304 924 306 955 Z" unicode="Ĕ" />
<glyph horiz-adv-x="424" d="M 24 0 L 24 0 Z M 224 -7 C 165 -7 117 12 80 51 C 42 90 24 145 24 216 C 24 250 29 281 39 309 C 49 337 62 361 79 381 C 96 401 116 416 140 427 C 164 438 189 444 216 444 C 275 444 321 423 355 381 C 388 339 405 276 405 193 L 114 193 C 114 147 125 114 146 94 C 166 74 193 65 227 65 C 257 65 281 70 299 81 C 316 91 331 104 343 118 L 393 69 C 378 50 358 33 333 17 C 308 1 272 -7 224 -7 Z M 117 260 L 316 260 C 315 292 306 319 290 340 C 273 361 250 372 220 372 C 189 372 165 361 147 340 C 129 319 119 292 117 260 Z M 216 503 L 216 503 Z M 280 661 L 357 661 C 353 605 338 565 312 540 C 286 515 254 503 216 503 C 177 503 145 515 119 540 C 93 565 79 605 76 661 L 152 661 C 154 631 159 608 169 591 C 178 573 194 565 216 565 C 238 565 253 573 263 590 C 273 606 278 630 280 661 Z" unicode="ĕ" />
<glyph horiz-adv-x="456" d="M 71 0 L 71 0 Z M 432 0 L 71 0 L 71 730 L 414 730 L 414 640 L 169 640 L 169 408 L 403 408 L 403 318 L 169 318 L 169 90 L 432 90 L 432 0 Z M 242 805 L 242 805 Z M 285 805 L 200 805 L 200 938 L 285 938 L 285 805 Z" unicode="Ė" />
<glyph horiz-adv-x="424" d="M 24 0 L 24 0 Z M 224 -7 C 165 -7 117 12 80 51 C 42 90 24 145 24 216 C 24 250 29 281 39 309 C 49 337 62 361 79 381 C 96 401 116 416 140 427 C 164 438 189 444 216 444 C 275 444 321 423 355 381 C 388 339 405 276 405 193 L 114 193 C 114 147 125 114 146 94 C 166 74 193 65 227 65 C 257 65 281 70 299 81 C 316 91 331 104 343 118 L 393 69 C 378 50 358 33 333 17 C 308 1 272 -7 224 -7 Z M 117 260 L 316 260 C 315 292 306 319 290 340 C 273 361 250 372 220 372 C 189 372 165 361 147 340 C 129 319 119 292 117 260 Z M 216 511 L 216 511 Z M 259 511 L 174 511 L 174 644 L 259 644 L 259 511 Z" unicode="ė" />
<glyph horiz-adv-x="456" d="M 71 0 L 71 0 Z M 432 0 L 71 0 L 71 730 L 414 730 L 414 640 L 169 640 L 169 408 L 403 408 L 403 318 L 169 318 L 169 90 L 432 90 L 432 0 Z M 380 -9 L 380 -9 Z M 480 -96 L 506 -135 C 486 -155 464 -171 440 -182 C 415 -193 388 -199 359 -199 C 326 -199 300 -191 281 -177 C 262 -162 253 -143 253 -121 C 253 -96 262 -73 281 -51 C 299 -29 328 -11 368 4 L 431 4 C 404 -8 381 -21 361 -37 C 341 -53 332 -68 332 -84 C 332 -98 337 -109 348 -117 C 358 -125 372 -130 389 -130 C 407 -130 424 -126 440 -120 C 456 -114 469 -106 480 -96 Z" unicode="Ę" />
<glyph horiz-adv-x="424" d="M 24 0 L 24 0 Z M 224 -7 C 165 -7 117 12 80 51 C 42 90 24 145 24 216 C 24 250 29 281 39 309 C 49 337 62 361 79 381 C 96 401 116 416 140 427 C 164 438 189 444 216 444 C 275 444 321 423 355 381 C 388 339 405 276 405 193 L 114 193 C 114 147 125 114 146 94 C 166 74 193 65 227 65 C 257 65 281 70 299 81 C 316 91 331 104 343 118 L 393 69 C 378 50 358 33 333 17 C 308 1 272 -7 224 -7 Z M 117 260 L 316 260 C 315 292 306 319 290 340 C 273 361 250 372 220 372 C 189 372 165 361 147 340 C 129 319 119 292 117 260 Z M 251 -9 L 251 -9 Z M 351 -96 L 377 -135 C 357 -155 335 -171 311 -182 C 286 -193 259 -199 230 -199 C 197 -199 171 -191 152 -177 C 133 -162 124 -143 124 -121 C 124 -96 133 -73 152 -51 C 170 -29 199 -11 239 4 L 302 4 C 275 -8 252 -21 232 -37 C 212 -53 203 -68 203 -84 C 203 -98 208 -109 219 -117 C 229 -125 243 -130 260 -130 C 278 -130 295 -126 311 -120 C 327 -114 340 -106 351 -96 Z" unicode="ę" />
<glyph horiz-adv-x="456" d="M 71 0 L 71 0 Z M 432 0 L 71 0 L 71 730 L 414 730 L 414 640 L 169 640 L 169 408 L 403 408 L 403 318 L 169 318 L 169 90 L 432 90 L 432 0 Z M 242 793 L 242 793 Z M 95 964 L 173 964 L 243 854 L 313 964 L 390 964 L 284 793 L 201 793 L 95 964 Z" unicode="Ě" />
<glyph horiz-adv-x="424" d="M 24 0 L 24 0 Z M 224 -7 C 165 -7 117 12 80 51 C 42 90 24 145 24 216 C 24 250 29 281 39 309 C 49 337 62 361 79 381 C 96 401 116 416 140 427 C 164 438 189 444 216 444 C 275 444 321 423 355 381 C 388 339 405 276 405 193 L 114 193 C 114 147 125 114 146 94 C 166 74 193 65 227 65 C 257 65 281 70 299 81 C 316 91 331 104 343 118 L 393 69 C 378 50 358 33 333 17 C 308 1 272 -7 224 -7 Z M 117 260 L 316 260 C 315 292 306 319 290 340 C 273 361 250 372 220 372 C 189 372 165 361 147 340 C 129 319 119 292 117 260 Z M 216 499 L 216 499 Z M 69 670 L 147 670 L 217 560 L 287 670 L 364 670 L 258 499 L 175 499 L 69 670 Z" unicode="ě" />
<glyph horiz-adv-x="606" d="M 38 0 L 38 0 Z M 327 365 L 574 365 L 574 128 C 553 87 521 54 479 29 C 437 3 384 -9 322 -9 C 282 -9 245 0 211 17 C 176 34 146 59 121 91 C 95 123 75 163 60 209 C 45 255 38 307 38 365 C 38 421 45 473 59 519 C 73 565 93 605 119 637 C 144 669 174 694 210 712 C 245 730 283 739 325 739 C 387 739 435 726 469 700 C 503 674 528 646 545 614 L 466 569 C 452 589 435 607 413 623 C 391 639 361 647 323 647 C 269 647 225 623 191 575 C 156 527 139 457 139 364 C 139 272 157 202 193 152 C 229 102 274 78 328 78 C 365 78 397 84 424 98 C 450 112 471 130 485 154 L 485 278 L 327 278 L 327 365 Z M 322 793 L 322 793 Z M 470 793 L 391 793 L 322 902 L 251 793 L 175 793 L 281 964 L 364 964 L 470 793 Z" unicode="Ĝ" />
<glyph horiz-adv-x="458" d="M 24 0 L 24 0 Z M 202 -3 C 148 -3 105 17 73 57 C 40 97 24 150 24 216 C 24 250 28 282 38 310 C 47 338 60 361 76 381 C 92 401 110 416 132 426 C 153 436 176 442 201 442 C 231 442 257 434 279 418 C 301 402 316 385 325 366 L 325 436 L 410 436 L 410 17 C 410 -19 404 -50 394 -77 C 383 -103 369 -125 351 -143 C 333 -160 312 -173 288 -181 C 264 -189 239 -194 214 -194 C 177 -194 147 -190 124 -183 C 101 -175 84 -167 72 -159 L 100 -92 C 111 -98 125 -105 143 -111 C 161 -117 183 -120 209 -120 C 241 -120 268 -109 290 -88 C 312 -66 323 -35 323 7 L 323 72 C 315 52 300 35 279 20 C 258 4 232 -3 202 -3 Z M 224 64 C 253 64 277 77 297 105 C 317 132 327 171 327 221 C 327 269 316 306 294 332 C 272 358 247 371 219 371 C 189 371 165 357 147 330 C 129 302 120 265 120 219 C 120 173 128 135 146 107 C 164 78 190 64 224 64 Z M 211 499 L 211 499 Z M 359 499 L 280 499 L 211 608 L 140 499 L 64 499 L 170 670 L 253 670 L 359 499 Z" unicode="ĝ" />
<glyph horiz-adv-x="606" d="M 38 0 L 38 0 Z M 327 365 L 574 365 L 574 128 C 553 87 521 54 479 29 C 437 3 384 -9 322 -9 C 282 -9 245 0 211 17 C 176 34 146 59 121 91 C 95 123 75 163 60 209 C 45 255 38 307 38 365 C 38 421 45 473 59 519 C 73 565 93 605 119 637 C 144 669 174 694 210 712 C 245 730 283 739 325 739 C 387 739 435 726 469 700 C 503 674 528 646 545 614 L 466 569 C 452 589 435 607 413 623 C 391 639 361 647 323 647 C 269 647 225 623 191 575 C 156 527 139 457 139 364 C 139 272 157 202 193 152 C 229 102 274 78 328 78 C 365 78 397 84 424 98 C 450 112 471 130 485 154 L 485 278 L 327 278 L 327 365 Z M 322 797 L 322 797 Z M 386 955 L 463 955 C 459 899 444 859 418 834 C 392 809 360 797 322 797 C 283 797 251 809 225 834 C 199 859 185 899 182 955 L 258 955 C 260 925 265 902 275 885 C 284 867 300 859 322 859 C 344 859 359 867 369 884 C 379 900 384 924 386 955 Z" unicode="Ğ" />
<glyph horiz-adv-x="458" d="M 24 0 L 24 0 Z M 202 -3 C 148 -3 105 17 73 57 C 40 97 24 150 24 216 C 24 250 28 282 38 310 C 47 338 60 361 76 381 C 92 401 110 416 132 426 C 153 436 176 442 201 442 C 231 442 257 434 279 418 C 301 402 316 385 325 366 L 325 436 L 410 436 L 410 17 C 410 -19 404 -50 394 -77 C 383 -103 369 -125 351 -143 C 333 -160 312 -173 288 -181 C 264 -189 239 -194 214 -194 C 177 -194 147 -190 124 -183 C 101 -175 84 -167 72 -159 L 100 -92 C 111 -98 125 -105 143 -111 C 161 -117 183 -120 209 -120 C 241 -120 268 -109 290 -88 C 312 -66 323 -35 323 7 L 323 72 C 315 52 300 35 279 20 C 258 4 232 -3 202 -3 Z M 224 64 C 253 64 277 77 297 105 C 317 132 327 171 327 221 C 327 269 316 306 294 332 C 272 358 247 371 219 371 C 189 371 165 357 147 330 C 129 302 120 265 120 219 C 120 173 128 135 146 107 C 164 78 190 64 224 64 Z M 211 503 L 211 503 Z M 275 661 L 352 661 C 348 605 333 565 307 540 C 281 515 249 503 211 503 C 172 503 140 515 114 540 C 88 565 74 605 71 661 L 147 661 C 149 631 154 608 164 591 C 173 573 189 565 211 565 C 233 565 248 573 258 590 C 268 606 273 630 275 661 Z" unicode="ğ" />
<glyph horiz-adv-x="606" d="M 38 0 L 38 0 Z M 327 365 L 574 365 L 574 128 C 553 87 521 54 479 29 C 437 3 384 -9 322 -9 C 282 -9 245 0 211 17 C 176 34 146 59 121 91 C 95 123 75 163 60 209 C 45 255 38 307 38 365 C 38 421 45 473 59 519 C 73 565 93 605 119 637 C 144 669 174 694 210 712 C 245 730 283 739 325 739 C 387 739 435 726 469 700 C 503 674 528 646 545 614 L 466 569 C 452 589 435 607 413 623 C 391 639 361 647 323 647 C 269 647 225 623 191 575 C 156 527 139 457 139 364 C 139 272 157 202 193 152 C 229 102 274 78 328 78 C 365 78 397 84 424 98 C 450 112 471 130 485 154 L 485 278 L 327 278 L 327 365 Z M 322 805 L 322 805 Z M 365 805 L 280 805 L 280 938 L 365 938 L 365 805 Z" unicode="Ġ" />
<glyph horiz-adv-x="458" d="M 24 0 L 24 0 Z M 202 -3 C 148 -3 105 17 73 57 C 40 97 24 150 24 216 C 24 250 28 282 38 310 C 47 338 60 361 76 381 C 92 401 110 416 132 426 C 153 436 176 442 201 442 C 231 442 257 434 279 418 C 301 402 316 385 325 366 L 325 436 L 410 436 L 410 17 C 410 -19 404 -50 394 -77 C 383 -103 369 -125 351 -143 C 333 -160 312 -173 288 -181 C 264 -189 239 -194 214 -194 C 177 -194 147 -190 124 -183 C 101 -175 84 -167 72 -159 L 100 -92 C 111 -98 125 -105 143 -111 C 161 -117 183 -120 209 -120 C 241 -120 268 -109 290 -88 C 312 -66 323 -35 323 7 L 323 72 C 315 52 300 35 279 20 C 258 4 232 -3 202 -3 Z M 224 64 C 253 64 277 77 297 105 C 317 132 327 171 327 221 C 327 269 316 306 294 332 C 272 358 247 371 219 371 C 189 371 165 357 147 330 C 129 302 120 265 120 219 C 120 173 128 135 146 107 C 164 78 190 64 224 64 Z M 211 511 L 211 511 Z M 254 511 L 169 511 L 169 644 L 254 644 L 254 511 Z" unicode="ġ" />
<glyph horiz-adv-x="606" d="M 38 0 L 38 0 Z M 327 365 L 574 365 L 574 128 C 553 87 521 54 479 29 C 437 3 384 -9 322 -9 C 282 -9 245 0 211 17 C 176 34 146 59 121 91 C 95 123 75 163 60 209 C 45 255 38 307 38 365 C 38 421 45 473 59 519 C 73 565 93 605 119 637 C 144 669 174 694 210 712 C 245 730 283 739 325 739 C 387 739 435 726 469 700 C 503 674 528 646 545 614 L 466 569 C 452 589 435 607 413 623 C 391 639 361 647 323 647 C 269 647 225 623 191 575 C 156 527 139 457 139 364 C 139 272 157 202 193 152 C 229 102 274 78 328 78 C 365 78 397 84 424 98 C 450 112 471 130 485 154 L 485 278 L 327 278 L 327 365 Z" unicode="Ģ" />
<glyph horiz-adv-x="458" d="M 24 0 L 24 0 Z M 202 -3 C 148 -3 105 17 73 57 C 40 97 24 150 24 216 C 24 250 28 282 38 310 C 47 338 60 361 76 381 C 92 401 110 416 132 426 C 153 436 176 442 201 442 C 231 442 257 434 279 418 C 301 402 316 385 325 366 L 325 436 L 410 436 L 410 17 C 410 -19 404 -50 394 -77 C 383 -103 369 -125 351 -143 C 333 -160 312 -173 288 -181 C 264 -189 239 -194 214 -194 C 177 -194 147 -190 124 -183 C 101 -175 84 -167 72 -159 L 100 -92 C 111 -98 125 -105 143 -111 C 161 -117 183 -120 209 -120 C 241 -120 268 -109 290 -88 C 312 -66 323 -35 323 7 L 323 72 C 315 52 300 35 279 20 C 258 4 232 -3 202 -3 Z M 224 64 C 253 64 277 77 297 105 C 317 132 327 171 327 221 C 327 269 316 306 294 332 C 272 358 247 371 219 371 C 189 371 165 357 147 330 C 129 302 120 265 120 219 C 120 173 128 135 146 107 C 164 78 190 64 224 64 Z" unicode="ģ" />
<glyph horiz-adv-x="611" d="M 71 0 L 71 0 Z M 540 0 L 440 0 L 440 313 L 171 313 L 171 0 L 71 0 L 71 730 L 171 730 L 171 407 L 440 407 L 440 730 L 540 730 L 540 0 Z M 306 793 L 306 793 Z M 454 793 L 375 793 L 306 902 L 235 793 L 159 793 L 265 964 L 348 964 L 454 793 Z" unicode="Ĥ" />
<glyph horiz-adv-x="444" d="M 48 0 L 48 0 Z M 398 0 L 307 0 L 307 283 C 307 310 300 331 286 345 C 272 359 252 366 228 366 C 204 366 184 358 166 343 C 148 328 139 303 139 267 L 139 0 L 48 0 L 48 770 L 134 770 L 134 365 C 141 387 155 406 176 421 C 197 436 226 444 262 444 C 302 444 335 433 360 411 C 385 389 398 355 398 310 L 398 0 Z M 223 833 L 223 833 Z M 371 833 L 292 833 L 223 942 L 152 833 L 76 833 L 182 1004 L 265 1004 L 371 833 Z" unicode="ĥ" />
<glyph horiz-adv-x="611" d="M 171 313 L 171 0 L 71 0 L 71 546 L 11 546 L 11 624 L 71 624 L 71 730 L 171 730 L 171 624 L 440 624 L 440 730 L 540 730 L 540 624 L 600 624 L 600 546 L 540 546 L 540 0 L 440 0 L 440 313 L 171 313 Z M 171 407 L 440 407 L 440 546 L 171 546 L 171 407 Z" unicode="Ħ" />
<glyph horiz-adv-x="444" d="M 139 267 L 139 0 L 48 0 L 48 563 L 10 563 L 10 641 L 48 641 L 48 770 L 134 770 L 134 641 L 248 641 L 248 563 L 134 563 L 134 365 C 141 387 155 406 176 421 C 197 436 226 444 262 444 C 302 444 335 433 360 411 C 385 389 398 355 398 310 L 398 0 L 307 0 L 307 283 C 307 310 300 331 286 345 C 272 359 252 366 228 366 C 204 366 184 358 166 343 C 148 328 139 303 139 267 Z" unicode="ħ" />
<glyph horiz-adv-x="251" d="M 0 0 L 0 0 Z M 176 0 L 76 0 L 76 730 L 176 730 L 176 0 Z M 126 799 L 126 799 Z M 213 936 L 281 936 C 281 890 274 855 261 833 C 247 810 230 799 210 799 C 192 799 176 802 163 810 C 150 817 139 824 130 831 C 121 837 112 844 103 851 C 93 857 84 861 75 861 C 66 861 58 855 52 845 C 46 835 42 820 42 802 L -26 802 C -26 848 -17 882 -1 905 C 15 928 33 940 53 940 C 69 940 84 936 96 928 C 108 920 119 913 130 905 C 138 898 147 891 155 885 C 163 879 172 876 181 876 C 189 876 196 881 203 892 C 209 902 213 917 213 936 Z" unicode="Ĩ" />
<glyph horiz-adv-x="194" d="M 0 0 L 0 0 Z M 143 0 L 51 0 L 51 436 L 143 436 L 143 0 Z M 97 505 L 97 505 Z M 184 642 L 252 642 C 252 596 245 561 232 539 C 218 516 201 505 181 505 C 163 505 147 508 134 516 C 121 523 110 530 101 537 C 92 543 83 550 74 557 C 64 563 55 567 46 567 C 37 567 29 561 23 551 C 17 541 13 526 13 508 L -55 508 C -55 554 -46 588 -30 611 C -13 634 4 646 24 646 C 40 646 55 642 67 634 C 79 626 90 619 101 611 C 109 604 118 597 126 591 C 134 585 143 582 152 582 C 160 582 167 587 174 598 C 180 608 184 623 184 642 Z" unicode="ĩ" />
<glyph horiz-adv-x="251" d="M 1 0 L 1 0 Z M 176 0 L 76 0 L 76 730 L 176 730 L 176 0 Z M 126 817 L 126 817 Z M 251 817 L 1 817 L 1 885 L 251 885 L 251 817 Z" unicode="Ī" />
<glyph horiz-adv-x="194" d="M 0 0 L 0 0 Z M 143 0 L 51 0 L 51 436 L 143 436 L 143 0 Z M 97 523 L 97 523 Z M 222 523 L -28 523 L -28 591 L 222 591 L 222 523 Z" unicode="ī" />
<glyph horiz-adv-x="251" d="M 0 0 L 0 0 Z M 176 0 L 76 0 L 76 730 L 176 730 L 176 0 Z M 126 797 L 126 797 Z M 190 955 L 267 955 C 263 899 248 859 222 834 C 196 809 164 797 126 797 C 87 797 55 809 29 834 C 3 859 -10 899 -14 955 L 62 955 C 64 925 69 902 79 885 C 88 867 104 859 126 859 C 148 859 163 867 173 884 C 183 900 188 924 190 955 Z" unicode="Ĭ" />
<glyph horiz-adv-x="194" d="M 0 0 L 0 0 Z M 143 0 L 51 0 L 51 436 L 143 436 L 143 0 Z M 97 503 L 97 503 Z M 161 661 L 238 661 C 234 605 219 565 193 540 C 167 515 135 503 97 503 C 58 503 26 515 0 540 C -25 565 -39 605 -43 661 L 33 661 C 35 631 40 608 50 591 C 59 573 75 565 97 565 C 119 565 134 573 144 590 C 154 606 159 630 161 661 Z" unicode="ĭ" />
<glyph horiz-adv-x="251" d="M 0 0 L 0 0 Z M 176 0 L 76 0 L 76 730 L 176 730 L 176 0 Z M 88 -10 L 88 -10 Z M 188 -97 L 214 -136 C 194 -156 172 -172 148 -183 C 123 -194 96 -200 67 -200 C 34 -200 8 -192 -10 -178 C -29 -163 -39 -144 -39 -122 C -39 -97 -29 -74 -11 -52 C 7 -30 36 -12 76 3 L 139 3 C 112 -9 89 -22 69 -38 C 49 -54 40 -69 40 -85 C 40 -99 45 -110 56 -118 C 66 -126 80 -131 97 -131 C 115 -131 132 -127 148 -121 C 164 -115 177 -107 188 -97 Z" unicode="Į" />
<glyph horiz-adv-x="194" d="M 0 0 L 0 0 Z M 49 527 L 49 622 L 145 622 L 145 527 L 49 527 Z M 51 0 L 51 436 L 143 436 L 143 0 L 51 0 Z M 67 -9 L 67 -9 Z M 167 -96 L 193 -135 C 173 -155 151 -171 127 -182 C 102 -193 75 -199 46 -199 C 13 -199 -12 -191 -31 -177 C -50 -162 -60 -143 -60 -121 C -60 -96 -50 -73 -32 -51 C -13 -29 15 -11 55 4 L 118 4 C 91 -8 68 -21 48 -37 C 28 -53 19 -68 19 -84 C 19 -98 24 -109 35 -117 C 45 -125 59 -130 76 -130 C 94 -130 111 -126 127 -120 C 143 -114 156 -106 167 -96 Z" unicode="į" />
<glyph horiz-adv-x="251" d="M 76 0 L 76 0 Z M 176 0 L 76 0 L 76 730 L 176 730 L 176 0 Z M 126 805 L 126 805 Z M 169 805 L 84 805 L 84 938 L 169 938 L 169 805 Z" unicode="İ" />
<glyph horiz-adv-x="194" d="M 143 0 L 51 0 L 51 436 L 143 436 L 143 0 Z" unicode="ı" />
<glyph horiz-adv-x="543" d="M 76 0 L 76 0 Z M 176 0 L 76 0 L 76 730 L 176 730 L 176 0 Z M 479 730 L 479 186 C 479 158 475 133 467 109 C 459 85 447 64 433 47 C 418 29 400 16 378 6 C 356 -4 331 -9 304 -9 C 290 -9 276 -8 262 -6 C 248 -4 237 -2 229 0 L 230 91 C 234 88 242 86 254 84 C 266 82 277 82 287 82 C 317 82 340 93 356 116 C 372 138 381 166 381 198 L 381 730 L 479 730 Z" unicode="Ĳ" />
<glyph horiz-adv-x="373" d="M 49 0 L 49 0 Z M 49 527 L 49 622 L 145 622 L 145 527 L 49 527 Z M 51 0 L 51 436 L 143 436 L 143 0 L 51 0 Z M 331 527 L 236 527 L 236 622 L 331 622 L 331 527 Z M 329 436 L 329 -90 C 329 -121 319 -147 300 -169 C 281 -191 255 -201 223 -201 C 212 -201 200 -200 188 -198 C 176 -196 167 -194 163 -192 L 176 -119 C 178 -119 182 -120 186 -121 C 190 -121 195 -122 200 -122 C 210 -122 219 -118 227 -110 C 234 -102 238 -90 238 -76 L 238 436 L 329 436 Z" unicode="ĳ" />
<glyph horiz-adv-x="319" d="M 9 0 L 9 0 Z M 259 730 L 259 186 C 259 158 255 133 247 109 C 239 85 227 64 213 47 C 198 29 180 16 158 6 C 136 -4 111 -9 84 -9 C 70 -9 56 -8 42 -6 C 28 -4 17 -2 9 0 L 10 91 C 14 88 22 86 34 84 C 46 82 57 82 67 82 C 97 82 120 93 136 116 C 152 138 161 166 161 198 L 161 730 L 259 730 Z M 210 793 L 210 793 Z M 358 793 L 279 793 L 210 902 L 139 793 L 63 793 L 169 964 L 252 964 L 358 793 Z" unicode="Ĵ" />
<glyph horiz-adv-x="190" d="M 0 0 L 0 0 Z M 143 436 L 143 -90 C 143 -121 133 -147 114 -169 C 95 -191 69 -201 37 -201 C 26 -201 14 -200 2 -198 C -9 -196 -18 -194 -23 -192 L -10 -119 C -7 -119 -3 -120 0 -121 C 4 -121 9 -122 14 -122 C 24 -122 33 -118 41 -110 C 48 -102 52 -90 52 -76 L 52 436 L 143 436 Z M 95 499 L 95 499 Z M 243 499 L 164 499 L 95 608 L 24 499 L -52 499 L 54 670 L 137 670 L 243 499 Z" unicode="ĵ" />
<glyph horiz-adv-x="560" d="M 71 0 L 71 0 Z M 565 0 L 448 0 L 221 329 L 172 267 L 172 0 L 71 0 L 71 730 L 172 730 L 172 384 L 427 730 L 540 730 L 290 396 L 565 0 Z M 281 -70 L 281 -70 Z M 368 -70 C 366 -92 362 -116 356 -140 C 349 -164 341 -187 331 -209 C 321 -231 311 -252 299 -271 C 287 -290 276 -306 264 -318 L 194 -286 C 201 -276 209 -264 217 -248 C 225 -232 233 -215 241 -196 C 248 -177 254 -157 260 -135 C 266 -113 269 -91 271 -70 L 368 -70 Z" unicode="Ķ" />
<glyph horiz-adv-x="410" d="M 48 0 L 48 0 Z M 421 1 L 319 -1 L 200 184 L 139 106 L 139 0 L 48 0 L 48 770 L 134 770 L 134 209 L 303 436 L 401 436 L 262 251 L 421 1 Z M 204 -70 L 204 -70 Z M 291 -70 C 289 -92 285 -116 279 -140 C 272 -164 264 -187 254 -209 C 244 -231 234 -252 222 -271 C 210 -290 199 -306 187 -318 L 117 -286 C 124 -276 132 -264 140 -248 C 148 -232 156 -215 164 -196 C 171 -177 177 -157 183 -135 C 189 -113 192 -91 194 -70 L 291 -70 Z" unicode="ķ" />
<glyph horiz-adv-x="410" d="M 421 1 L 319 -1 L 200 184 L 139 106 L 139 0 L 48 0 L 48 436 L 134 436 L 134 209 L 303 436 L 401 436 L 262 251 L 421 1 Z" unicode="ĸ" />
<glyph horiz-adv-x="406" d="M 71 0 L 71 0 Z M 399 0 L 71 0 L 71 730 L 171 730 L 171 90 L 399 90 L 399 0 Z M 214 792 L 214 792 Z M 115 792 L 206 961 L 313 961 L 205 792 L 115 792 Z" unicode="Ĺ" />
<glyph horiz-adv-x="188" d="M 48 0 L 48 0 Z M 151 839 L 151 839 Z M 52 839 L 143 1008 L 250 1008 L 142 839 L 52 839 Z M 140 777 L 140 0 L 48 0 L 48 777 L 140 777 Z" unicode="ĺ" />
<glyph horiz-adv-x="406" d="M 71 0 L 71 0 Z M 399 0 L 71 0 L 71 730 L 171 730 L 171 90 L 399 90 L 399 0 Z M 218 -70 L 218 -70 Z M 305 -70 C 303 -92 299 -116 293 -140 C 286 -164 278 -187 268 -209 C 258 -231 248 -252 236 -271 C 224 -290 213 -306 201 -318 L 131 -286 C 138 -276 146 -264 154 -248 C 162 -232 170 -215 178 -196 C 185 -177 191 -157 197 -135 C 203 -113 206 -91 208 -70 L 305 -70 Z" unicode="Ļ" />
<glyph horiz-adv-x="188" d="M 0 0 L 0 0 Z M 140 777 L 140 0 L 48 0 L 48 777 L 140 777 Z M 73 -70 L 73 -70 Z M 160 -70 C 158 -92 154 -116 148 -140 C 141 -164 133 -187 123 -209 C 113 -231 103 -252 91 -271 C 79 -290 68 -306 56 -318 L -14 -286 C -6 -276 1 -264 9 -248 C 17 -232 25 -215 33 -196 C 40 -177 46 -157 52 -135 C 58 -113 61 -91 63 -70 L 160 -70 Z" unicode="ļ" />
<glyph horiz-adv-x="406" d="M 71 0 L 71 0 Z M 399 0 L 71 0 L 71 730 L 171 730 L 171 90 L 399 90 L 399 0 Z M 391 621 L 386 483 L 308 483 L 303 621 L 303 730 L 391 730 L 391 621 Z" unicode="Ľ" />
<glyph horiz-adv-x="188" d="M 48 0 L 48 0 Z M 140 777 L 140 0 L 48 0 L 48 777 L 140 777 Z M 293 621 L 288 483 L 210 483 L 205 621 L 205 730 L 293 730 L 293 621 Z" unicode="ľ" />
<glyph horiz-adv-x="406" d="M 71 0 L 71 0 Z M 399 0 L 71 0 L 71 730 L 171 730 L 171 90 L 399 90 L 399 0 Z M 311 295 L 311 295 Z M 354 295 L 269 295 L 269 428 L 354 428 L 354 295 Z" unicode="Ŀ" />
<glyph horiz-adv-x="188" d="M 48 0 L 48 0 Z M 140 777 L 140 0 L 48 0 L 48 777 L 140 777 Z M 240 191 L 240 191 Z M 283 191 L 198 191 L 198 324 L 283 324 L 283 191 Z" unicode="ŀ" />
<glyph horiz-adv-x="406" d="M 399 85 L 399 0 L 71 0 L 71 266 L 25 247 L -7 317 L 71 350 L 71 730 L 171 730 L 171 391 L 307 448 L 338 379 L 171 309 L 171 85 L 399 85 Z" unicode="Ł" />
<glyph horiz-adv-x="188" d="M 226 341 L 156 309 L 156 0 L 64 0 L 64 266 L 20 246 L -5 306 L 64 338 L 64 770 L 156 770 L 156 382 L 199 402 L 226 341 Z" unicode="ł" />
<glyph horiz-adv-x="616" d="M 71 0 L 71 0 Z M 545 0 L 475 0 L 166 515 L 166 0 L 71 0 L 71 730 L 144 730 L 452 218 L 452 730 L 545 730 L 545 0 Z M 309 792 L 309 792 Z M 210 792 L 301 961 L 408 961 L 300 792 L 210 792 Z" unicode="Ń" />
<glyph horiz-adv-x="443" d="M 48 0 L 48 0 Z M 398 0 L 307 0 L 307 289 C 307 313 300 332 286 346 C 272 359 253 366 229 366 C 205 366 184 358 166 343 C 148 327 139 302 139 266 L 139 0 L 48 0 L 48 436 L 135 436 L 135 367 C 143 389 157 408 179 422 C 201 436 229 444 263 444 C 303 444 336 433 361 411 C 385 389 398 358 398 316 L 398 0 Z M 222 498 L 222 498 Z M 123 498 L 214 667 L 321 667 L 213 498 L 123 498 Z" unicode="ń" />
<glyph horiz-adv-x="616" d="M 71 0 L 71 0 Z M 545 0 L 475 0 L 166 515 L 166 0 L 71 0 L 71 730 L 144 730 L 452 218 L 452 730 L 545 730 L 545 0 Z M 293 -70 L 293 -70 Z M 380 -70 C 378 -92 374 -116 368 -140 C 361 -164 353 -187 343 -209 C 333 -231 323 -252 311 -271 C 299 -290 288 -306 276 -318 L 206 -286 C 213 -276 221 -264 229 -248 C 237 -232 245 -215 253 -196 C 260 -177 266 -157 272 -135 C 278 -113 281 -91 283 -70 L 380 -70 Z" unicode="Ņ" />
<glyph horiz-adv-x="443" d="M 48 0 L 48 0 Z M 398 0 L 307 0 L 307 289 C 307 313 300 332 286 346 C 272 359 253 366 229 366 C 205 366 184 358 166 343 C 148 327 139 302 139 266 L 139 0 L 48 0 L 48 436 L 135 436 L 135 367 C 143 389 157 408 179 422 C 201 436 229 444 263 444 C 303 444 336 433 361 411 C 385 389 398 358 398 316 L 398 0 Z M 203 -70 L 203 -70 Z M 290 -70 C 288 -92 284 -116 278 -140 C 271 -164 263 -187 253 -209 C 243 -231 233 -252 221 -271 C 209 -290 198 -306 186 -318 L 116 -286 C 123 -276 131 -264 139 -248 C 147 -232 155 -215 163 -196 C 170 -177 176 -157 182 -135 C 188 -113 191 -91 193 -70 L 290 -70 Z" unicode="ņ" />
<glyph horiz-adv-x="616" d="M 71 0 L 71 0 Z M 545 0 L 475 0 L 166 515 L 166 0 L 71 0 L 71 730 L 144 730 L 452 218 L 452 730 L 545 730 L 545 0 Z M 309 793 L 309 793 Z M 162 964 L 240 964 L 310 854 L 380 964 L 457 964 L 351 793 L 268 793 L 162 964 Z" unicode="Ň" />
<glyph horiz-adv-x="443" d="M 48 0 L 48 0 Z M 398 0 L 307 0 L 307 289 C 307 313 300 332 286 346 C 272 359 253 366 229 366 C 205 366 184 358 166 343 C 148 327 139 302 139 266 L 139 0 L 48 0 L 48 436 L 135 436 L 135 367 C 143 389 157 408 179 422 C 201 436 229 444 263 444 C 303 444 336 433 361 411 C 385 389 398 358 398 316 L 398 0 Z M 222 499 L 222 499 Z M 75 670 L 153 670 L 223 560 L 293 670 L 370 670 L 264 499 L 181 499 L 75 670 Z" unicode="ň" />
<glyph horiz-adv-x="619" d="M 452 730 L 545 730 L 545 -2 C 545 -29 541 -55 534 -79 C 526 -103 516 -123 502 -141 C 488 -158 470 -172 449 -182 C 427 -192 403 -197 376 -197 C 362 -197 348 -196 334 -194 C 320 -192 309 -190 302 -188 L 302 -97 C 307 -99 315 -101 327 -103 C 339 -105 349 -106 359 -106 C 389 -106 413 -94 429 -72 C 445 -49 454 -22 454 10 L 454 35 L 166 515 L 166 0 L 71 0 L 71 730 L 144 730 L 452 218 L 452 730 Z" unicode="Ŋ" />
<glyph horiz-adv-x="443" d="M 263 444 C 303 444 336 433 361 411 C 385 389 398 358 398 316 L 398 -90 C 398 -121 388 -147 369 -169 C 350 -191 324 -201 292 -201 C 281 -201 269 -200 257 -198 C 244 -196 235 -194 231 -192 L 245 -119 C 247 -119 251 -120 255 -121 C 259 -121 264 -122 269 -122 C 279 -122 288 -118 296 -110 C 303 -102 307 -90 307 -76 L 307 289 C 307 313 300 332 286 346 C 272 359 253 366 229 366 C 205 366 184 358 166 343 C 148 327 139 302 139 266 L 139 0 L 48 0 L 48 436 L 135 436 L 135 367 C 143 389 157 408 179 422 C 201 436 229 444 263 444 Z" unicode="ŋ" />
<glyph horiz-adv-x="660" d="M 38 0 L 38 0 Z M 333 -9 C 241 -9 169 24 117 92 C 64 159 38 252 38 371 C 38 426 45 476 59 522 C 73 568 92 606 118 638 C 143 670 173 694 209 712 C 245 730 284 739 327 739 C 418 739 490 706 543 640 C 595 574 622 482 622 366 C 622 308 614 256 600 210 C 585 163 565 123 539 91 C 513 59 483 34 448 17 C 412 0 374 -9 333 -9 Z M 331 81 C 387 81 432 105 467 154 C 502 202 520 275 520 371 C 520 460 502 528 467 576 C 431 624 385 648 328 648 C 270 648 224 624 191 578 C 157 531 141 460 141 365 C 141 269 159 197 195 151 C 231 104 276 81 331 81 Z M 328 817 L 328 817 Z M 453 817 L 203 817 L 203 885 L 453 885 L 453 817 Z" unicode="Ō" />
<glyph horiz-adv-x="443" d="M 23 0 L 23 0 Z M 221 -7 C 193 -7 168 -2 144 8 C 120 18 99 32 81 51 C 63 70 48 93 38 121 C 28 149 23 180 23 216 C 23 249 28 280 38 308 C 48 336 61 360 78 380 C 95 400 116 415 140 427 C 164 438 189 444 217 444 C 275 444 323 424 362 385 C 400 345 420 293 420 228 C 420 194 415 162 405 133 C 395 104 382 79 365 59 C 347 38 326 22 302 10 C 277 -1 250 -7 221 -7 Z M 222 67 C 253 67 278 80 296 107 C 314 133 324 171 324 221 C 324 269 314 305 296 330 C 277 355 251 368 217 368 C 188 368 165 355 147 330 C 129 304 120 267 120 219 C 120 167 129 128 148 104 C 167 79 192 67 222 67 Z M 219 523 L 219 523 Z M 344 523 L 94 523 L 94 591 L 344 591 L 344 523 Z" unicode="ō" />
<glyph horiz-adv-x="660" d="M 38 0 L 38 0 Z M 333 -9 C 241 -9 169 24 117 92 C 64 159 38 252 38 371 C 38 426 45 476 59 522 C 73 568 92 606 118 638 C 143 670 173 694 209 712 C 245 730 284 739 327 739 C 418 739 490 706 543 640 C 595 574 622 482 622 366 C 622 308 614 256 600 210 C 585 163 565 123 539 91 C 513 59 483 34 448 17 C 412 0 374 -9 333 -9 Z M 331 81 C 387 81 432 105 467 154 C 502 202 520 275 520 371 C 520 460 502 528 467 576 C 431 624 385 648 328 648 C 270 648 224 624 191 578 C 157 531 141 460 141 365 C 141 269 159 197 195 151 C 231 104 276 81 331 81 Z M 328 797 L 328 797 Z M 392 955 L 469 955 C 465 899 450 859 424 834 C 398 809 366 797 328 797 C 289 797 257 809 231 834 C 205 859 191 899 188 955 L 264 955 C 266 925 271 902 281 885 C 290 867 306 859 328 859 C 350 859 365 867 375 884 C 385 900 390 924 392 955 Z" unicode="Ŏ" />
<glyph horiz-adv-x="443" d="M 23 0 L 23 0 Z M 221 -7 C 193 -7 168 -2 144 8 C 120 18 99 32 81 51 C 63 70 48 93 38 121 C 28 149 23 180 23 216 C 23 249 28 280 38 308 C 48 336 61 360 78 380 C 95 400 116 415 140 427 C 164 438 189 444 217 444 C 275 444 323 424 362 385 C 400 345 420 293 420 228 C 420 194 415 162 405 133 C 395 104 382 79 365 59 C 347 38 326 22 302 10 C 277 -1 250 -7 221 -7 Z M 222 67 C 253 67 278 80 296 107 C 314 133 324 171 324 221 C 324 269 314 305 296 330 C 277 355 251 368 217 368 C 188 368 165 355 147 330 C 129 304 120 267 120 219 C 120 167 129 128 148 104 C 167 79 192 67 222 67 Z M 219 503 L 219 503 Z M 283 661 L 360 661 C 356 605 341 565 315 540 C 289 515 257 503 219 503 C 180 503 148 515 122 540 C 96 565 82 605 79 661 L 155 661 C 157 631 162 608 172 591 C 181 573 197 565 219 565 C 241 565 256 573 266 590 C 276 606 281 630 283 661 Z" unicode="ŏ" />
<glyph horiz-adv-x="660" d="M 38 0 L 38 0 Z M 333 -9 C 241 -9 169 24 117 92 C 64 159 38 252 38 371 C 38 426 45 476 59 522 C 73 568 92 606 118 638 C 143 670 173 694 209 712 C 245 730 284 739 327 739 C 418 739 490 706 543 640 C 595 574 622 482 622 366 C 622 308 614 256 600 210 C 585 163 565 123 539 91 C 513 59 483 34 448 17 C 412 0 374 -9 333 -9 Z M 331 81 C 387 81 432 105 467 154 C 502 202 520 275 520 371 C 520 460 502 528 467 576 C 431 624 385 648 328 648 C 270 648 224 624 191 578 C 157 531 141 460 141 365 C 141 269 159 197 195 151 C 231 104 276 81 331 81 Z M 328 792 L 328 792 Z M 154 792 L 228 948 L 326 948 L 236 792 L 154 792 Z M 329 792 L 404 948 L 502 948 L 411 792 L 329 792 Z" unicode="Ő" />
<glyph horiz-adv-x="443" d="M 23 0 L 23 0 Z M 221 -7 C 193 -7 168 -2 144 8 C 120 18 99 32 81 51 C 63 70 48 93 38 121 C 28 149 23 180 23 216 C 23 249 28 280 38 308 C 48 336 61 360 78 380 C 95 400 116 415 140 427 C 164 438 189 444 217 444 C 275 444 323 424 362 385 C 400 345 420 293 420 228 C 420 194 415 162 405 133 C 395 104 382 79 365 59 C 347 38 326 22 302 10 C 277 -1 250 -7 221 -7 Z M 222 67 C 253 67 278 80 296 107 C 314 133 324 171 324 221 C 324 269 314 305 296 330 C 277 355 251 368 217 368 C 188 368 165 355 147 330 C 129 304 120 267 120 219 C 120 167 129 128 148 104 C 167 79 192 67 222 67 Z M 219 498 L 219 498 Z M 45 498 L 119 654 L 217 654 L 127 498 L 45 498 Z M 220 498 L 295 654 L 393 654 L 302 498 L 220 498 Z" unicode="ő" />
<glyph horiz-adv-x="892" d="M 314 -8 C 230 -8 163 24 113 89 C 63 154 38 248 38 370 C 38 428 44 480 58 526 C 72 572 91 610 115 642 C 139 673 168 697 202 713 C 236 729 272 738 312 738 C 360 738 402 725 438 701 C 474 676 497 647 508 615 L 508 730 L 850 730 L 850 645 L 605 645 L 605 403 L 839 403 L 839 319 L 605 319 L 605 85 L 868 85 L 868 0 L 508 0 L 508 120 C 502 104 494 88 483 72 C 471 56 457 43 441 31 C 425 19 406 10 385 3 C 363 -4 340 -8 314 -8 Z M 326 70 C 380 70 424 95 458 145 C 492 195 509 270 509 371 C 509 419 504 461 494 497 C 484 533 470 562 453 586 C 436 610 416 627 394 639 C 371 651 347 657 323 657 C 267 657 223 633 190 586 C 156 539 140 465 140 365 C 140 263 157 188 192 141 C 227 93 272 70 326 70 Z" unicode="Œ" />
<glyph horiz-adv-x="724" d="M 215 -7 C 188 -7 163 -1 139 8 C 115 18 95 33 78 52 C 61 71 48 95 38 123 C 28 151 23 182 23 216 C 23 249 27 280 37 308 C 47 336 60 360 77 380 C 94 400 115 415 139 427 C 163 438 189 444 218 444 C 262 444 297 433 323 413 C 349 392 364 370 370 348 C 372 358 378 369 386 381 C 394 392 404 402 416 412 C 428 421 442 429 459 435 C 476 441 495 444 516 444 C 577 444 624 422 656 378 C 688 334 704 273 704 194 L 414 194 C 414 150 425 118 446 96 C 467 74 494 64 526 64 C 556 64 580 69 597 81 C 614 92 629 104 643 118 L 694 69 C 678 50 658 33 633 17 C 608 1 572 -7 524 -7 C 478 -7 443 3 417 23 C 391 43 375 65 369 88 C 365 78 358 67 350 56 C 341 44 330 34 317 25 C 304 16 289 8 272 2 C 254 -3 235 -7 215 -7 Z M 417 259 L 617 259 C 615 292 606 319 589 340 C 571 361 547 372 516 372 C 486 372 462 361 446 340 C 429 319 419 292 417 259 Z M 222 68 C 254 68 279 81 297 107 C 315 133 324 171 324 221 C 324 269 314 305 296 330 C 277 355 251 368 219 368 C 188 368 164 355 146 329 C 128 303 119 267 119 220 C 119 168 128 129 147 105 C 166 80 191 68 222 68 Z" unicode="œ" />
<glyph horiz-adv-x="515" d="M 71 0 L 71 0 Z M 71 0 L 71 730 L 251 730 C 307 730 353 713 390 680 C 426 646 445 597 445 533 C 445 476 431 430 405 394 C 379 358 347 337 310 331 L 308 327 L 505 0 L 396 0 L 213 306 L 166 306 L 166 0 L 71 0 Z M 166 392 L 235 392 C 267 392 294 404 316 426 C 337 448 348 479 348 519 C 348 559 337 589 315 610 C 293 630 266 641 234 641 L 166 641 L 166 392 Z M 239 792 L 239 792 Z M 140 792 L 231 961 L 338 961 L 230 792 L 140 792 Z" unicode="Ŕ" />
<glyph horiz-adv-x="326" d="M 48 0 L 48 0 Z M 328 413 L 297 337 C 285 347 273 353 262 357 C 251 360 240 362 228 362 C 208 362 189 353 169 337 C 149 321 139 292 139 250 L 139 0 L 48 0 L 48 436 L 137 436 L 137 360 C 143 380 155 399 174 417 C 193 434 217 443 245 443 C 263 443 279 440 293 434 C 307 428 319 421 328 413 Z M 187 498 L 187 498 Z M 88 498 L 179 667 L 286 667 L 178 498 L 88 498 Z" unicode="ŕ" />
<glyph horiz-adv-x="515" d="M 71 0 L 71 0 Z M 71 0 L 71 730 L 251 730 C 307 730 353 713 390 680 C 426 646 445 597 445 533 C 445 476 431 430 405 394 C 379 358 347 337 310 331 L 308 327 L 505 0 L 396 0 L 213 306 L 166 306 L 166 0 L 71 0 Z M 166 392 L 235 392 C 267 392 294 404 316 426 C 337 448 348 479 348 519 C 348 559 337 589 315 610 C 293 630 266 641 234 641 L 166 641 L 166 392 Z M 252 -70 L 252 -70 Z M 339 -70 C 337 -92 333 -116 327 -140 C 320 -164 312 -187 302 -209 C 292 -231 282 -252 270 -271 C 258 -290 247 -306 235 -318 L 165 -286 C 172 -276 180 -264 188 -248 C 196 -232 204 -215 212 -196 C 219 -177 225 -157 231 -135 C 237 -113 240 -91 242 -70 L 339 -70 Z" unicode="Ŗ" />
<glyph horiz-adv-x="326" d="M 48 0 L 48 0 Z M 328 413 L 297 337 C 285 347 273 353 262 357 C 251 360 240 362 228 362 C 208 362 189 353 169 337 C 149 321 139 292 139 250 L 139 0 L 48 0 L 48 436 L 137 436 L 137 360 C 143 380 155 399 174 417 C 193 434 217 443 245 443 C 263 443 279 440 293 434 C 307 428 319 421 328 413 Z M 164 -70 L 164 -70 Z M 251 -70 C 249 -92 245 -116 239 -140 C 232 -164 224 -187 214 -209 C 204 -231 194 -252 182 -271 C 170 -290 159 -306 147 -318 L 77 -286 C 84 -276 92 -264 100 -248 C 108 -232 116 -215 124 -196 C 131 -177 137 -157 143 -135 C 149 -113 152 -91 154 -70 L 251 -70 Z" unicode="ŗ" />
<glyph horiz-adv-x="515" d="M 71 0 L 71 0 Z M 71 0 L 71 730 L 251 730 C 307 730 353 713 390 680 C 426 646 445 597 445 533 C 445 476 431 430 405 394 C 379 358 347 337 310 331 L 308 327 L 505 0 L 396 0 L 213 306 L 166 306 L 166 0 L 71 0 Z M 166 392 L 235 392 C 267 392 294 404 316 426 C 337 448 348 479 348 519 C 348 559 337 589 315 610 C 293 630 266 641 234 641 L 166 641 L 166 392 Z M 239 793 L 239 793 Z M 92 964 L 170 964 L 240 854 L 310 964 L 387 964 L 281 793 L 198 793 L 92 964 Z" unicode="Ř" />
<glyph horiz-adv-x="326" d="M 40 0 L 40 0 Z M 328 413 L 297 337 C 285 347 273 353 262 357 C 251 360 240 362 228 362 C 208 362 189 353 169 337 C 149 321 139 292 139 250 L 139 0 L 48 0 L 48 436 L 137 436 L 137 360 C 143 380 155 399 174 417 C 193 434 217 443 245 443 C 263 443 279 440 293 434 C 307 428 319 421 328 413 Z M 187 499 L 187 499 Z M 40 670 L 118 670 L 188 560 L 258 670 L 335 670 L 229 499 L 146 499 L 40 670 Z" unicode="ř" />
<glyph horiz-adv-x="441" d="M 20 0 L 20 0 Z M 225 -9 C 182 -9 143 -1 109 12 C 75 26 45 49 20 81 L 73 150 C 90 126 112 107 138 94 C 164 80 191 74 218 74 C 246 74 271 84 292 104 C 313 124 324 150 324 183 C 324 215 315 242 297 264 C 279 286 248 310 202 337 C 153 364 114 394 84 426 C 54 458 39 504 39 562 C 39 588 43 612 53 634 C 63 656 76 674 93 690 C 109 705 129 717 152 726 C 175 734 200 739 226 739 C 266 739 300 732 329 720 C 357 707 381 692 400 674 L 349 602 C 334 616 316 627 296 636 C 276 645 254 650 232 650 C 204 650 181 641 163 625 C 144 608 135 585 135 557 C 135 528 144 504 160 485 C 176 466 210 443 261 415 C 317 384 357 351 382 315 C 406 279 419 236 419 184 C 419 153 413 125 402 101 C 391 77 377 57 359 41 C 341 25 321 12 297 4 C 273 -4 249 -9 225 -9 Z M 222 792 L 222 792 Z M 123 792 L 214 961 L 321 961 L 213 792 L 123 792 Z" unicode="Ś" />
<glyph horiz-adv-x="333" d="M 20 0 L 20 0 Z M 176 -8 C 141 -8 110 -2 84 9 C 58 20 36 35 20 53 L 64 115 C 76 100 93 88 113 80 C 133 71 152 67 171 67 C 187 67 201 71 213 80 C 225 89 232 102 232 119 C 232 133 224 146 210 157 C 195 168 172 180 142 194 C 107 208 80 225 60 245 C 40 265 31 292 31 327 C 31 359 44 387 71 409 C 97 431 129 443 166 443 C 196 443 222 438 244 429 C 266 420 285 410 300 399 L 253 340 C 244 346 232 353 217 359 C 201 365 186 368 170 368 C 154 368 140 364 128 358 C 116 351 111 341 111 328 C 111 315 116 304 128 296 C 139 287 161 275 195 261 C 234 243 263 225 282 205 C 301 185 311 157 311 121 C 311 100 307 82 299 66 C 291 50 281 36 269 25 C 256 14 241 6 225 0 C 209 -5 192 -8 176 -8 Z M 169 498 L 169 498 Z M 70 498 L 161 667 L 268 667 L 160 498 L 70 498 Z" unicode="ś" />
<glyph horiz-adv-x="441" d="M 20 0 L 20 0 Z M 225 -9 C 182 -9 143 -1 109 12 C 75 26 45 49 20 81 L 73 150 C 90 126 112 107 138 94 C 164 80 191 74 218 74 C 246 74 271 84 292 104 C 313 124 324 150 324 183 C 324 215 315 242 297 264 C 279 286 248 310 202 337 C 153 364 114 394 84 426 C 54 458 39 504 39 562 C 39 588 43 612 53 634 C 63 656 76 674 93 690 C 109 705 129 717 152 726 C 175 734 200 739 226 739 C 266 739 300 732 329 720 C 357 707 381 692 400 674 L 349 602 C 334 616 316 627 296 636 C 276 645 254 650 232 650 C 204 650 181 641 163 625 C 144 608 135 585 135 557 C 135 528 144 504 160 485 C 176 466 210 443 261 415 C 317 384 357 351 382 315 C 406 279 419 236 419 184 C 419 153 413 125 402 101 C 391 77 377 57 359 41 C 341 25 321 12 297 4 C 273 -4 249 -9 225 -9 Z M 222 793 L 222 793 Z M 370 793 L 291 793 L 222 902 L 151 793 L 75 793 L 181 964 L 264 964 L 370 793 Z" unicode="Ŝ" />
<glyph horiz-adv-x="333" d="M 20 0 L 20 0 Z M 176 -8 C 141 -8 110 -2 84 9 C 58 20 36 35 20 53 L 64 115 C 76 100 93 88 113 80 C 133 71 152 67 171 67 C 187 67 201 71 213 80 C 225 89 232 102 232 119 C 232 133 224 146 210 157 C 195 168 172 180 142 194 C 107 208 80 225 60 245 C 40 265 31 292 31 327 C 31 359 44 387 71 409 C 97 431 129 443 166 443 C 196 443 222 438 244 429 C 266 420 285 410 300 399 L 253 340 C 244 346 232 353 217 359 C 201 365 186 368 170 368 C 154 368 140 364 128 358 C 116 351 111 341 111 328 C 111 315 116 304 128 296 C 139 287 161 275 195 261 C 234 243 263 225 282 205 C 301 185 311 157 311 121 C 311 100 307 82 299 66 C 291 50 281 36 269 25 C 256 14 241 6 225 0 C 209 -5 192 -8 176 -8 Z M 169 499 L 169 499 Z M 317 499 L 238 499 L 169 608 L 98 499 L 22 499 L 128 670 L 211 670 L 317 499 Z" unicode="ŝ" />
<glyph horiz-adv-x="441" d="M 20 0 L 20 0 Z M 225 -9 C 182 -9 143 -1 109 12 C 75 26 45 49 20 81 L 73 150 C 90 126 112 107 138 94 C 164 80 191 74 218 74 C 246 74 271 84 292 104 C 313 124 324 150 324 183 C 324 215 315 242 297 264 C 279 286 248 310 202 337 C 153 364 114 394 84 426 C 54 458 39 504 39 562 C 39 588 43 612 53 634 C 63 656 76 674 93 690 C 109 705 129 717 152 726 C 175 734 200 739 226 739 C 266 739 300 732 329 720 C 357 707 381 692 400 674 L 349 602 C 334 616 316 627 296 636 C 276 645 254 650 232 650 C 204 650 181 641 163 625 C 144 608 135 585 135 557 C 135 528 144 504 160 485 C 176 466 210 443 261 415 C 317 384 357 351 382 315 C 406 279 419 236 419 184 C 419 153 413 125 402 101 C 391 77 377 57 359 41 C 341 25 321 12 297 4 C 273 -4 249 -9 225 -9 Z M 201 -1 L 201 -1 Z M 208 -187 C 185 -187 162 -184 140 -178 C 117 -172 99 -164 86 -154 L 98 -115 C 106 -120 118 -126 134 -132 C 149 -138 165 -141 183 -141 C 197 -141 209 -137 220 -131 C 230 -124 236 -115 236 -104 C 236 -91 231 -82 222 -77 C 212 -72 202 -70 192 -70 C 184 -70 178 -70 172 -71 C 166 -72 160 -74 154 -77 L 139 -62 L 199 12 L 252 12 L 204 -50 C 236 -43 262 -46 284 -58 C 306 -70 317 -88 317 -112 C 317 -136 306 -155 284 -168 C 262 -180 237 -187 208 -187 Z" unicode="Ş" />
<glyph horiz-adv-x="333" d="M 20 0 L 20 0 Z M 176 -8 C 141 -8 110 -2 84 9 C 58 20 36 35 20 53 L 64 115 C 76 100 93 88 113 80 C 133 71 152 67 171 67 C 187 67 201 71 213 80 C 225 89 232 102 232 119 C 232 133 224 146 210 157 C 195 168 172 180 142 194 C 107 208 80 225 60 245 C 40 265 31 292 31 327 C 31 359 44 387 71 409 C 97 431 129 443 166 443 C 196 443 222 438 244 429 C 266 420 285 410 300 399 L 253 340 C 244 346 232 353 217 359 C 201 365 186 368 170 368 C 154 368 140 364 128 358 C 116 351 111 341 111 328 C 111 315 116 304 128 296 C 139 287 161 275 195 261 C 234 243 263 225 282 205 C 301 185 311 157 311 121 C 311 100 307 82 299 66 C 291 50 281 36 269 25 C 256 14 241 6 225 0 C 209 -5 192 -8 176 -8 Z M 156 -1 L 156 -1 Z M 163 -187 C 140 -187 117 -184 95 -178 C 72 -172 54 -164 41 -154 L 53 -115 C 61 -120 73 -126 89 -132 C 104 -138 120 -141 138 -141 C 152 -141 164 -137 175 -131 C 185 -124 191 -115 191 -104 C 191 -91 186 -82 177 -77 C 167 -72 157 -70 147 -70 C 139 -70 133 -70 127 -71 C 121 -72 115 -74 109 -77 L 94 -62 L 154 12 L 207 12 L 159 -50 C 191 -43 217 -46 239 -58 C 261 -70 272 -88 272 -112 C 272 -136 261 -155 239 -168 C 217 -180 192 -187 163 -187 Z" unicode="ş" />
<glyph horiz-adv-x="441" d="M 20 0 L 20 0 Z M 225 -9 C 182 -9 143 -1 109 12 C 75 26 45 49 20 81 L 73 150 C 90 126 112 107 138 94 C 164 80 191 74 218 74 C 246 74 271 84 292 104 C 313 124 324 150 324 183 C 324 215 315 242 297 264 C 279 286 248 310 202 337 C 153 364 114 394 84 426 C 54 458 39 504 39 562 C 39 588 43 612 53 634 C 63 656 76 674 93 690 C 109 705 129 717 152 726 C 175 734 200 739 226 739 C 266 739 300 732 329 720 C 357 707 381 692 400 674 L 349 602 C 334 616 316 627 296 636 C 276 645 254 650 232 650 C 204 650 181 641 163 625 C 144 608 135 585 135 557 C 135 528 144 504 160 485 C 176 466 210 443 261 415 C 317 384 357 351 382 315 C 406 279 419 236 419 184 C 419 153 413 125 402 101 C 391 77 377 57 359 41 C 341 25 321 12 297 4 C 273 -4 249 -9 225 -9 Z M 222 793 L 222 793 Z M 75 964 L 153 964 L 223 854 L 293 964 L 370 964 L 264 793 L 181 793 L 75 964 Z" unicode="Š" />
<glyph horiz-adv-x="333" d="M 20 0 L 20 0 Z M 176 -8 C 141 -8 110 -2 84 9 C 58 20 36 35 20 53 L 64 115 C 76 100 93 88 113 80 C 133 71 152 67 171 67 C 187 67 201 71 213 80 C 225 89 232 102 232 119 C 232 133 224 146 210 157 C 195 168 172 180 142 194 C 107 208 80 225 60 245 C 40 265 31 292 31 327 C 31 359 44 387 71 409 C 97 431 129 443 166 443 C 196 443 222 438 244 429 C 266 420 285 410 300 399 L 253 340 C 244 346 232 353 217 359 C 201 365 186 368 170 368 C 154 368 140 364 128 358 C 116 351 111 341 111 328 C 111 315 116 304 128 296 C 139 287 161 275 195 261 C 234 243 263 225 282 205 C 301 185 311 157 311 121 C 311 100 307 82 299 66 C 291 50 281 36 269 25 C 256 14 241 6 225 0 C 209 -5 192 -8 176 -8 Z M 169 499 L 169 499 Z M 22 670 L 100 670 L 170 560 L 240 670 L 317 670 L 211 499 L 128 499 L 22 670 Z" unicode="š" />
<glyph horiz-adv-x="429" d="M 8 0 L 8 0 Z M 422 640 L 264 640 L 264 0 L 164 0 L 164 640 L 8 640 L 8 730 L 422 730 L 422 640 Z M 214 793 L 214 793 Z M 67 964 L 145 964 L 215 854 L 285 964 L 362 964 L 256 793 L 173 793 L 67 964 Z" unicode="Ť" />
<glyph horiz-adv-x="234" d="M 11 0 L 11 0 Z M 217 80 L 229 9 C 224 5 217 2 207 0 C 197 -3 184 -5 170 -5 C 159 -5 147 -3 134 0 C 120 3 108 9 97 18 C 85 26 76 38 68 54 C 60 69 57 89 57 113 L 57 356 L 11 356 L 11 436 L 59 436 L 59 568 L 147 578 L 147 436 L 215 436 L 215 356 L 149 356 L 149 117 C 149 101 152 90 160 84 C 168 77 178 74 191 74 C 195 74 200 74 206 76 C 211 77 215 78 217 80 Z M 317 621 L 312 483 L 234 483 L 229 621 L 229 730 L 317 730 L 317 621 Z" unicode="ť" />
<glyph horiz-adv-x="429" d="M 382 455 L 264 455 L 264 0 L 164 0 L 164 455 L 43 455 L 43 533 L 164 533 L 164 640 L 8 640 L 8 730 L 422 730 L 422 640 L 264 640 L 264 533 L 382 533 L 382 455 Z" unicode="Ŧ" />
<glyph horiz-adv-x="234" d="M 229 9 C 224 5 217 2 207 0 C 197 -3 184 -5 170 -5 C 159 -5 147 -3 134 0 C 120 3 108 9 97 18 C 85 26 76 38 68 54 C 60 69 57 89 57 113 L 57 226 L 21 226 L 21 304 L 57 304 L 57 356 L 11 356 L 11 436 L 59 436 L 59 568 L 147 578 L 147 436 L 215 436 L 215 356 L 149 356 L 149 304 L 205 304 L 205 226 L 149 226 L 149 117 C 149 101 152 90 160 84 C 168 77 178 74 191 74 C 195 74 200 74 206 76 C 211 77 215 78 217 80 L 229 9 Z" unicode="ŧ" />
<glyph horiz-adv-x="603" d="M 66 0 L 66 0 Z M 537 730 L 537 234 C 537 192 530 156 517 126 C 504 96 487 71 465 51 C 443 31 418 16 389 6 C 360 -4 329 -9 297 -9 C 265 -9 236 -4 208 5 C 180 15 155 29 134 49 C 113 69 96 94 84 125 C 72 155 66 192 66 234 L 66 730 L 164 730 L 164 230 C 164 179 177 141 203 117 C 229 92 261 80 299 80 C 337 80 369 91 397 115 C 424 139 438 177 438 230 L 438 730 L 537 730 Z M 300 799 L 300 799 Z M 387 936 L 455 936 C 455 890 448 855 435 833 C 421 810 404 799 384 799 C 366 799 350 802 337 810 C 324 817 313 824 304 831 C 295 837 286 844 277 851 C 267 857 258 861 249 861 C 240 861 232 855 226 845 C 220 835 216 820 216 802 L 148 802 C 148 848 156 882 173 905 C 189 928 207 940 227 940 C 243 940 258 936 270 928 C 282 920 293 913 304 905 C 312 898 321 891 329 885 C 337 879 346 876 355 876 C 363 876 370 881 377 892 C 383 902 387 917 387 936 Z" unicode="Ũ" />
<glyph horiz-adv-x="444" d="M 46 0 L 46 0 Z M 46 436 L 137 436 L 137 146 C 137 118 144 98 158 85 C 172 71 191 65 216 65 C 240 65 260 72 278 88 C 295 103 304 130 304 168 L 304 436 L 396 436 L 396 0 L 307 0 L 307 61 C 297 40 282 23 260 11 C 238 0 211 -7 181 -7 C 143 -7 111 3 85 25 C 59 47 46 81 46 127 L 46 436 Z M 220 505 L 220 505 Z M 307 642 L 375 642 C 375 596 368 561 355 539 C 341 516 324 505 304 505 C 286 505 270 508 257 516 C 244 523 233 530 224 537 C 215 543 206 550 197 557 C 187 563 178 567 169 567 C 160 567 152 561 146 551 C 140 541 136 526 136 508 L 68 508 C 68 554 76 588 93 611 C 109 634 127 646 147 646 C 163 646 178 642 190 634 C 202 626 213 619 224 611 C 232 604 241 597 249 591 C 257 585 266 582 275 582 C 283 582 290 587 297 598 C 303 608 307 623 307 642 Z" unicode="ũ" />
<glyph horiz-adv-x="603" d="M 66 0 L 66 0 Z M 537 730 L 537 234 C 537 192 530 156 517 126 C 504 96 487 71 465 51 C 443 31 418 16 389 6 C 360 -4 329 -9 297 -9 C 265 -9 236 -4 208 5 C 180 15 155 29 134 49 C 113 69 96 94 84 125 C 72 155 66 192 66 234 L 66 730 L 164 730 L 164 230 C 164 179 177 141 203 117 C 229 92 261 80 299 80 C 337 80 369 91 397 115 C 424 139 438 177 438 230 L 438 730 L 537 730 Z M 300 817 L 300 817 Z M 425 817 L 175 817 L 175 885 L 425 885 L 425 817 Z" unicode="Ū" />
<glyph horiz-adv-x="444" d="M 46 0 L 46 0 Z M 46 436 L 137 436 L 137 146 C 137 118 144 98 158 85 C 172 71 191 65 216 65 C 240 65 260 72 278 88 C 295 103 304 130 304 168 L 304 436 L 396 436 L 396 0 L 307 0 L 307 61 C 297 40 282 23 260 11 C 238 0 211 -7 181 -7 C 143 -7 111 3 85 25 C 59 47 46 81 46 127 L 46 436 Z M 220 523 L 220 523 Z M 345 523 L 95 523 L 95 591 L 345 591 L 345 523 Z" unicode="ū" />
<glyph horiz-adv-x="603" d="M 66 0 L 66 0 Z M 537 730 L 537 234 C 537 192 530 156 517 126 C 504 96 487 71 465 51 C 443 31 418 16 389 6 C 360 -4 329 -9 297 -9 C 265 -9 236 -4 208 5 C 180 15 155 29 134 49 C 113 69 96 94 84 125 C 72 155 66 192 66 234 L 66 730 L 164 730 L 164 230 C 164 179 177 141 203 117 C 229 92 261 80 299 80 C 337 80 369 91 397 115 C 424 139 438 177 438 230 L 438 730 L 537 730 Z M 300 797 L 300 797 Z M 364 955 L 441 955 C 437 899 422 859 396 834 C 370 809 338 797 300 797 C 261 797 229 809 203 834 C 177 859 163 899 160 955 L 236 955 C 238 925 243 902 253 885 C 262 867 278 859 300 859 C 322 859 337 867 347 884 C 357 900 362 924 364 955 Z" unicode="Ŭ" />
<glyph horiz-adv-x="444" d="M 46 0 L 46 0 Z M 46 436 L 137 436 L 137 146 C 137 118 144 98 158 85 C 172 71 191 65 216 65 C 240 65 260 72 278 88 C 295 103 304 130 304 168 L 304 436 L 396 436 L 396 0 L 307 0 L 307 61 C 297 40 282 23 260 11 C 238 0 211 -7 181 -7 C 143 -7 111 3 85 25 C 59 47 46 81 46 127 L 46 436 Z M 220 503 L 220 503 Z M 284 661 L 361 661 C 357 605 342 565 316 540 C 290 515 258 503 220 503 C 181 503 149 515 123 540 C 97 565 83 605 80 661 L 156 661 C 158 631 163 608 173 591 C 182 573 198 565 220 565 C 242 565 257 573 267 590 C 277 606 282 630 284 661 Z" unicode="ŭ" />
<glyph horiz-adv-x="603" d="M 66 0 L 66 0 Z M 537 730 L 537 234 C 537 192 530 156 517 126 C 504 96 487 71 465 51 C 443 31 418 16 389 6 C 360 -4 329 -9 297 -9 C 265 -9 236 -4 208 5 C 180 15 155 29 134 49 C 113 69 96 94 84 125 C 72 155 66 192 66 234 L 66 730 L 164 730 L 164 230 C 164 179 177 141 203 117 C 229 92 261 80 299 80 C 337 80 369 91 397 115 C 424 139 438 177 438 230 L 438 730 L 537 730 Z M 300 789 L 300 789 Z M 300 789 C 268 789 242 800 220 822 C 198 844 187 870 187 902 C 187 934 198 961 220 983 C 242 1005 268 1016 300 1016 C 332 1016 359 1005 381 983 C 403 961 414 934 414 902 C 414 870 403 844 381 822 C 359 800 332 789 300 789 Z M 300 842 C 316 842 330 847 341 859 C 352 871 358 885 358 902 C 358 918 352 933 341 945 C 330 957 316 963 300 963 C 284 963 270 957 259 945 C 247 933 242 918 242 902 C 242 885 247 871 259 859 C 270 847 284 842 300 842 Z" unicode="Ů" />
<glyph horiz-adv-x="444" d="M 46 0 L 46 0 Z M 46 436 L 137 436 L 137 146 C 137 118 144 98 158 85 C 172 71 191 65 216 65 C 240 65 260 72 278 88 C 295 103 304 130 304 168 L 304 436 L 396 436 L 396 0 L 307 0 L 307 61 C 297 40 282 23 260 11 C 238 0 211 -7 181 -7 C 143 -7 111 3 85 25 C 59 47 46 81 46 127 L 46 436 Z M 220 495 L 220 495 Z M 220 495 C 188 495 162 506 140 528 C 118 550 107 576 107 608 C 107 640 118 667 140 689 C 162 711 188 722 220 722 C 252 722 279 711 301 689 C 323 667 334 640 334 608 C 334 576 323 550 301 528 C 279 506 252 495 220 495 Z M 220 548 C 236 548 250 553 261 565 C 272 577 278 591 278 608 C 278 624 272 639 261 651 C 250 663 236 669 220 669 C 204 669 190 663 179 651 C 167 639 162 624 162 608 C 162 591 167 577 179 565 C 190 553 204 548 220 548 Z" unicode="ů" />
<glyph horiz-adv-x="603" d="M 66 0 L 66 0 Z M 537 730 L 537 234 C 537 192 530 156 517 126 C 504 96 487 71 465 51 C 443 31 418 16 389 6 C 360 -4 329 -9 297 -9 C 265 -9 236 -4 208 5 C 180 15 155 29 134 49 C 113 69 96 94 84 125 C 72 155 66 192 66 234 L 66 730 L 164 730 L 164 230 C 164 179 177 141 203 117 C 229 92 261 80 299 80 C 337 80 369 91 397 115 C 424 139 438 177 438 230 L 438 730 L 537 730 Z M 300 792 L 300 792 Z M 126 792 L 200 948 L 298 948 L 208 792 L 126 792 Z M 301 792 L 376 948 L 474 948 L 383 792 L 301 792 Z" unicode="Ű" />
<glyph horiz-adv-x="444" d="M 46 0 L 46 0 Z M 46 436 L 137 436 L 137 146 C 137 118 144 98 158 85 C 172 71 191 65 216 65 C 240 65 260 72 278 88 C 295 103 304 130 304 168 L 304 436 L 396 436 L 396 0 L 307 0 L 307 61 C 297 40 282 23 260 11 C 238 0 211 -7 181 -7 C 143 -7 111 3 85 25 C 59 47 46 81 46 127 L 46 436 Z M 220 498 L 220 498 Z M 46 498 L 120 654 L 218 654 L 128 498 L 46 498 Z M 221 498 L 296 654 L 394 654 L 303 498 L 221 498 Z" unicode="ű" />
<glyph horiz-adv-x="603" d="M 66 0 L 66 0 Z M 537 730 L 537 234 C 537 192 530 156 517 126 C 504 96 487 71 465 51 C 443 31 418 16 389 6 C 360 -4 329 -9 297 -9 C 265 -9 236 -4 208 5 C 180 15 155 29 134 49 C 113 69 96 94 84 125 C 72 155 66 192 66 234 L 66 730 L 164 730 L 164 230 C 164 179 177 141 203 117 C 229 92 261 80 299 80 C 337 80 369 91 397 115 C 424 139 438 177 438 230 L 438 730 L 537 730 Z M 332 -9 L 332 -9 Z M 432 -96 L 458 -135 C 438 -155 416 -171 392 -182 C 367 -193 340 -199 311 -199 C 278 -199 252 -191 233 -177 C 214 -162 205 -143 205 -121 C 205 -96 214 -73 233 -51 C 251 -29 280 -11 320 4 L 383 4 C 356 -8 333 -21 313 -37 C 293 -53 284 -68 284 -84 C 284 -98 289 -109 300 -117 C 310 -125 324 -130 341 -130 C 359 -130 376 -126 392 -120 C 408 -114 421 -106 432 -96 Z" unicode="Ų" />
<glyph horiz-adv-x="444" d="M 46 0 L 46 0 Z M 46 436 L 137 436 L 137 146 C 137 118 144 98 158 85 C 172 71 191 65 216 65 C 240 65 260 72 278 88 C 295 103 304 130 304 168 L 304 436 L 396 436 L 396 0 L 307 0 L 307 61 C 297 40 282 23 260 11 C 238 0 211 -7 181 -7 C 143 -7 111 3 85 25 C 59 47 46 81 46 127 L 46 436 Z M 322 -9 L 322 -9 Z M 422 -96 L 448 -135 C 428 -155 406 -171 382 -182 C 357 -193 330 -199 301 -199 C 268 -199 242 -191 223 -177 C 204 -162 195 -143 195 -121 C 195 -96 204 -73 223 -51 C 241 -29 270 -11 310 4 L 373 4 C 346 -8 323 -21 303 -37 C 283 -53 274 -68 274 -84 C 274 -98 279 -109 290 -117 C 300 -125 314 -130 331 -130 C 349 -130 366 -126 382 -120 C 398 -114 411 -106 422 -96 Z" unicode="ų" />
<glyph horiz-adv-x="766" d="M 4 0 L 4 0 Z M 752 730 L 576 -5 L 513 -5 L 379 525 L 241 -5 L 178 -5 L 4 730 L 100 730 L 216 207 L 349 730 L 416 730 L 546 206 L 664 730 L 752 730 Z M 382 793 L 382 793 Z M 530 793 L 451 793 L 382 902 L 311 793 L 235 793 L 341 964 L 424 964 L 530 793 Z" unicode="Ŵ" />
<glyph horiz-adv-x="585" d="M 2 0 L 2 0 Z M 380 -2 L 292 261 L 204 -2 L 136 -2 L 2 436 L 93 436 L 180 133 L 264 397 L 327 397 L 411 133 L 500 436 L 582 436 L 446 -2 L 380 -2 Z M 293 499 L 293 499 Z M 441 499 L 362 499 L 293 608 L 222 499 L 146 499 L 252 670 L 335 670 L 441 499 Z" unicode="ŵ" />
<glyph horiz-adv-x="509" d="M 0 0 L 0 0 Z M 525 730 L 309 310 L 309 0 L 209 0 L 209 312 L -1 730 L 105 730 L 265 412 L 425 730 L 525 730 Z M 263 793 L 263 793 Z M 411 793 L 332 793 L 263 902 L 192 793 L 116 793 L 222 964 L 305 964 L 411 793 Z" unicode="Ŷ" />
<glyph horiz-adv-x="385" d="M 0 0 L 0 0 Z M 387 436 L 188 -103 C 174 -139 154 -164 130 -178 C 106 -192 80 -200 54 -200 C 41 -200 29 -198 19 -195 C 8 -192 0 -189 -6 -187 L 21 -110 C 23 -111 28 -113 36 -115 C 44 -117 52 -119 60 -119 C 72 -119 82 -114 92 -106 C 102 -97 110 -83 118 -63 L 152 35 L -3 436 L 95 436 L 197 151 L 295 436 L 387 436 Z M 193 499 L 193 499 Z M 341 499 L 262 499 L 193 608 L 122 499 L 46 499 L 152 670 L 235 670 L 341 499 Z" unicode="ŷ" />
<glyph horiz-adv-x="523" d="M 0 0 L 0 0 Z M 525 730 L 309 310 L 309 0 L 209 0 L 209 312 L -1 730 L 105 730 L 265 412 L 425 730 L 525 730 Z M 263 793 L 263 793 Z M 382 793 L 306 793 L 306 951 L 382 951 L 382 793 Z M 220 793 L 144 793 L 144 951 L 220 951 L 220 793 Z" unicode="Ÿ" />
<glyph horiz-adv-x="466" d="M 15 0 L 15 0 Z M 447 730 L 447 682 L 143 90 L 458 90 L 458 0 L 15 0 L 15 46 L 321 639 L 45 639 L 45 730 L 447 730 Z M 243 792 L 243 792 Z M 144 792 L 235 961 L 342 961 L 234 792 L 144 792 Z" unicode="Ź" />
<glyph horiz-adv-x="344" d="M 11 0 L 11 0 Z M 327 436 L 327 392 L 137 79 L 332 79 L 332 0 L 11 0 L 11 34 L 210 357 L 23 357 L 23 436 L 327 436 Z M 176 498 L 176 498 Z M 77 498 L 168 667 L 275 667 L 167 498 L 77 498 Z" unicode="ź" />
<glyph horiz-adv-x="466" d="M 15 0 L 15 0 Z M 447 730 L 447 682 L 143 90 L 458 90 L 458 0 L 15 0 L 15 46 L 321 639 L 45 639 L 45 730 L 447 730 Z M 243 805 L 243 805 Z M 286 805 L 201 805 L 201 938 L 286 938 L 286 805 Z" unicode="Ż" />
<glyph horiz-adv-x="344" d="M 11 0 L 11 0 Z M 327 436 L 327 392 L 137 79 L 332 79 L 332 0 L 11 0 L 11 34 L 210 357 L 23 357 L 23 436 L 327 436 Z M 176 511 L 176 511 Z M 219 511 L 134 511 L 134 644 L 219 644 L 219 511 Z" unicode="ż" />
<glyph horiz-adv-x="477" d="M 15 0 L 15 0 Z M 447 730 L 447 682 L 143 90 L 458 90 L 458 0 L 15 0 L 15 46 L 321 639 L 45 639 L 45 730 L 447 730 Z M 243 793 L 243 793 Z M 96 964 L 174 964 L 244 854 L 314 964 L 391 964 L 285 793 L 202 793 L 96 964 Z" unicode="Ž" />
<glyph horiz-adv-x="344" d="M 11 0 L 11 0 Z M 327 436 L 327 392 L 137 79 L 332 79 L 332 0 L 11 0 L 11 34 L 210 357 L 23 357 L 23 436 L 327 436 Z M 176 499 L 176 499 Z M 29 670 L 107 670 L 177 560 L 247 670 L 324 670 L 218 499 L 135 499 L 29 670 Z" unicode="ž" />
<glyph horiz-adv-x="358" d="M 184 -60 C 181 -92 168 -119 145 -143 C 121 -167 92 -179 58 -179 C 40 -179 22 -177 6 -175 C -9 -172 -22 -169 -30 -165 L -21 -95 C -16 -95 -9 -97 0 -99 C 9 -101 18 -102 27 -102 C 47 -102 64 -95 78 -81 C 92 -67 101 -48 104 -24 L 136 332 L 43 332 L 43 407 L 143 407 L 163 628 C 164 646 169 663 177 677 C 185 691 194 702 206 712 C 217 721 229 728 243 733 C 256 738 269 741 282 741 C 295 741 308 740 321 739 C 334 738 342 737 345 737 L 338 656 C 336 656 332 657 326 658 C 320 658 314 659 308 659 C 289 659 273 652 261 640 C 249 627 242 607 240 581 L 225 407 L 329 407 L 329 332 L 218 332 L 184 -60 Z" unicode="ƒ" />
<glyph horiz-adv-x="441" d="M 20 0 L 20 0 Z M 225 -9 C 182 -9 143 -1 109 12 C 75 26 45 49 20 81 L 73 150 C 90 126 112 107 138 94 C 164 80 191 74 218 74 C 246 74 271 84 292 104 C 313 124 324 150 324 183 C 324 215 315 242 297 264 C 279 286 248 310 202 337 C 153 364 114 394 84 426 C 54 458 39 504 39 562 C 39 588 43 612 53 634 C 63 656 76 674 93 690 C 109 705 129 717 152 726 C 175 734 200 739 226 739 C 266 739 300 732 329 720 C 357 707 381 692 400 674 L 349 602 C 334 616 316 627 296 636 C 276 645 254 650 232 650 C 204 650 181 641 163 625 C 144 608 135 585 135 557 C 135 528 144 504 160 485 C 176 466 210 443 261 415 C 317 384 357 351 382 315 C 406 279 419 236 419 184 C 419 153 413 125 402 101 C 391 77 377 57 359 41 C 341 25 321 12 297 4 C 273 -4 249 -9 225 -9 Z M 201 -71 L 201 -71 Z M 288 -71 C 286 -93 282 -117 276 -141 C 269 -165 261 -188 251 -210 C 241 -232 231 -253 219 -272 C 207 -291 196 -307 184 -319 L 114 -287 C 121 -277 129 -265 137 -249 C 145 -233 153 -216 161 -197 C 168 -178 174 -158 180 -136 C 186 -114 189 -92 191 -71 L 288 -71 Z" unicode="Ș" />
<glyph horiz-adv-x="333" d="M 20 0 L 20 0 Z M 176 -8 C 141 -8 110 -2 84 9 C 58 20 36 35 20 53 L 64 115 C 76 100 93 88 113 80 C 133 71 152 67 171 67 C 187 67 201 71 213 80 C 225 89 232 102 232 119 C 232 133 224 146 210 157 C 195 168 172 180 142 194 C 107 208 80 225 60 245 C 40 265 31 292 31 327 C 31 359 44 387 71 409 C 97 431 129 443 166 443 C 196 443 222 438 244 429 C 266 420 285 410 300 399 L 253 340 C 244 346 232 353 217 359 C 201 365 186 368 170 368 C 154 368 140 364 128 358 C 116 351 111 341 111 328 C 111 315 116 304 128 296 C 139 287 161 275 195 261 C 234 243 263 225 282 205 C 301 185 311 157 311 121 C 311 100 307 82 299 66 C 291 50 281 36 269 25 C 256 14 241 6 225 0 C 209 -5 192 -8 176 -8 Z M 156 -71 L 156 -71 Z M 243 -71 C 241 -93 237 -117 231 -141 C 224 -165 216 -188 206 -210 C 196 -232 186 -253 174 -272 C 162 -291 151 -307 139 -319 L 69 -287 C 76 -277 84 -265 92 -249 C 100 -233 108 -216 116 -197 C 123 -178 129 -158 135 -136 C 141 -114 144 -92 146 -71 L 243 -71 Z" unicode="ș" />
<glyph horiz-adv-x="429" d="M 8 0 L 8 0 Z M 422 640 L 264 640 L 264 0 L 164 0 L 164 640 L 8 640 L 8 730 L 422 730 L 422 640 Z M 192 -70 L 192 -70 Z M 279 -70 C 277 -92 273 -116 267 -140 C 260 -164 252 -187 242 -209 C 232 -231 222 -252 210 -271 C 198 -290 187 -306 175 -318 L 105 -286 C 112 -276 120 -264 128 -248 C 136 -232 144 -215 152 -196 C 159 -177 165 -157 171 -135 C 177 -113 180 -91 182 -70 L 279 -70 Z" unicode="Ț" />
<glyph horiz-adv-x="234" d="M 11 0 L 11 0 Z M 217 80 L 229 9 C 224 5 217 2 207 0 C 197 -3 184 -5 170 -5 C 159 -5 147 -3 134 0 C 120 3 108 9 97 18 C 85 26 76 38 68 54 C 60 69 57 89 57 113 L 57 356 L 11 356 L 11 436 L 59 436 L 59 568 L 147 578 L 147 436 L 215 436 L 215 356 L 149 356 L 149 117 C 149 101 152 90 160 84 C 168 77 178 74 191 74 C 195 74 200 74 206 76 C 211 77 215 78 217 80 Z M 118 -70 L 118 -70 Z M 205 -70 C 203 -92 199 -116 193 -140 C 186 -164 178 -187 168 -209 C 158 -231 148 -252 136 -271 C 124 -290 113 -306 101 -318 L 31 -286 C 38 -276 46 -264 54 -248 C 62 -232 70 -215 78 -196 C 85 -177 91 -157 97 -135 C 103 -113 106 -91 108 -70 L 205 -70 Z" unicode="ț" />
<glyph horiz-adv-x="190" d="M 143 436 L 143 -90 C 143 -121 133 -147 114 -169 C 95 -191 69 -201 37 -201 C 26 -201 14 -200 2 -198 C -9 -196 -18 -194 -23 -192 L -10 -119 C -7 -119 -3 -120 0 -121 C 4 -121 9 -122 14 -122 C 24 -122 33 -118 41 -110 C 48 -102 52 -90 52 -76 L 52 436 L 143 436 Z" unicode="ȷ" />
<glyph horiz-adv-x="500" d="M 398 499 L 319 499 L 250 608 L 179 499 L 103 499 L 209 670 L 292 670 L 398 499 Z" unicode="ˆ" />
<glyph horiz-adv-x="500" d="M 103 670 L 181 670 L 251 560 L 321 670 L 398 670 L 292 499 L 209 499 L 103 670 Z" unicode="ˇ" />
<glyph horiz-adv-x="500" d="M 314 661 L 391 661 C 387 605 372 565 346 540 C 320 515 288 503 250 503 C 211 503 179 515 153 540 C 127 565 113 605 110 661 L 186 661 C 188 631 193 608 203 591 C 212 573 228 565 250 565 C 272 565 287 573 297 590 C 307 606 312 630 314 661 Z" unicode="˘" />
<glyph horiz-adv-x="500" d="M 293 511 L 208 511 L 208 644 L 293 644 L 293 511 Z" unicode="˙" />
<glyph horiz-adv-x="500" d="M 250 495 C 218 495 192 506 170 528 C 148 550 137 576 137 608 C 137 640 148 667 170 689 C 192 711 218 722 250 722 C 282 722 309 711 331 689 C 353 667 364 640 364 608 C 364 576 353 550 331 528 C 309 506 282 495 250 495 Z M 250 548 C 266 548 280 553 291 565 C 302 577 308 591 308 608 C 308 624 302 639 291 651 C 280 663 266 669 250 669 C 234 669 220 663 209 651 C 197 639 192 624 192 608 C 192 591 197 577 209 565 C 220 553 234 548 250 548 Z" unicode="˚" />
<glyph horiz-adv-x="500" d="M 357 -87 L 383 -126 C 363 -146 341 -162 317 -173 C 292 -184 265 -190 236 -190 C 203 -190 177 -182 158 -168 C 139 -153 130 -134 130 -112 C 130 -87 139 -64 158 -42 C 176 -20 205 -2 245 13 L 308 13 C 281 1 258 -12 238 -28 C 218 -44 209 -59 209 -75 C 209 -89 214 -100 225 -108 C 235 -116 249 -121 266 -121 C 284 -121 301 -117 317 -111 C 333 -105 346 -97 357 -87 Z" unicode="˛" />
<glyph horiz-adv-x="500" d="M 339 642 L 407 642 C 407 596 400 561 387 539 C 373 516 356 505 336 505 C 318 505 302 508 289 516 C 276 523 265 530 256 537 C 247 543 238 550 229 557 C 219 563 210 567 201 567 C 192 567 184 561 178 551 C 172 541 168 526 168 508 L 100 508 C 100 554 108 588 125 611 C 141 634 159 646 179 646 C 195 646 210 642 222 634 C 234 626 245 619 256 611 C 264 604 273 597 281 591 C 289 585 298 582 307 582 C 315 582 322 587 329 598 C 335 608 339 623 339 642 Z" unicode="˜" />
<glyph horiz-adv-x="500" d="M 93 498 L 167 654 L 265 654 L 175 498 L 93 498 Z M 268 498 L 343 654 L 441 654 L 350 498 L 268 498 Z" unicode="˝" />
<glyph horiz-adv-x="0" d="M 0 498 L 0 498 Z M 100 498 L 10 498 L -99 667 L 8 667 L 100 498 Z" unicode="̀" />
<glyph horiz-adv-x="0" d="M 0 498 L 0 498 Z M -99 498 L -8 667 L 99 667 L -9 498 L -99 498 Z" unicode="́" />
<glyph horiz-adv-x="0" d="M 0 499 L 0 499 Z M 148 499 L 69 499 L 0 608 L -71 499 L -147 499 L -41 670 L 42 670 L 148 499 Z" unicode="̂" />
<glyph horiz-adv-x="0" d="M 0 505 L 0 505 Z M 87 642 L 155 642 C 155 596 148 561 135 539 C 121 516 104 505 84 505 C 66 505 50 508 37 516 C 24 523 13 530 4 537 C -4 543 -13 550 -23 557 C -32 563 -41 567 -51 567 C -59 567 -67 561 -73 551 C -79 541 -83 526 -84 508 L -152 508 C -152 554 -143 588 -127 611 C -110 634 -92 646 -73 646 C -56 646 -42 642 -30 634 C -18 626 -6 619 4 611 C 12 604 21 597 29 591 C 37 585 46 582 55 582 C 63 582 70 587 77 598 C 83 608 87 623 87 642 Z" unicode="̃" />
<glyph horiz-adv-x="0" d="M 0 523 L 0 523 Z M 125 523 L -125 523 L -125 591 L 125 591 L 125 523 Z" unicode="̄" />
<glyph horiz-adv-x="0" d="M 0 503 L 0 503 Z M 64 661 L 141 661 C 137 605 122 565 96 540 C 70 515 38 503 0 503 C -38 503 -70 515 -96 540 C -122 565 -136 605 -140 661 L -64 661 C -62 631 -56 608 -47 591 C -37 573 -22 565 0 565 C 22 565 37 573 47 590 C 57 606 62 630 64 661 Z" unicode="̆" />
<glyph horiz-adv-x="0" d="M 0 511 L 0 511 Z M 43 511 L -42 511 L -42 644 L 43 644 L 43 511 Z" unicode="̇" />
<glyph horiz-adv-x="0" d="M 0 499 L 0 499 Z M 119 499 L 43 499 L 43 657 L 119 657 L 119 499 Z M -43 499 L -119 499 L -119 657 L -43 657 L -43 499 Z" unicode="̈" />
<glyph horiz-adv-x="0" d="M 0 495 L 0 495 Z M 0 495 C -31 495 -58 506 -80 528 C -102 550 -113 576 -113 608 C -113 640 -102 667 -80 689 C -58 711 -31 722 0 722 C 32 722 59 711 81 689 C 103 667 114 640 114 608 C 114 576 103 550 81 528 C 59 506 32 495 0 495 Z M 0 548 C 16 548 30 553 41 565 C 52 577 58 591 58 608 C 58 624 52 639 41 651 C 30 663 16 669 0 669 C -16 669 -29 663 -41 651 C -52 639 -58 624 -58 608 C -58 591 -52 577 -41 565 C -29 553 -16 548 0 548 Z" unicode="̊" />
<glyph horiz-adv-x="0" d="M 0 498 L 0 498 Z M -174 498 L -100 654 L -2 654 L -92 498 L -174 498 Z M 1 498 L 76 654 L 174 654 L 83 498 L 1 498 Z" unicode="̋" />
<glyph horiz-adv-x="0" d="M 0 499 L 0 499 Z M -147 670 L -69 670 L 1 560 L 71 670 L 148 670 L 42 499 L -41 499 L -147 670 Z" unicode="̌" />
<glyph horiz-adv-x="0" d="M 0 -70 L 0 -70 Z M 87 -70 C 85 -92 81 -116 75 -140 C 68 -164 60 -187 50 -209 C 40 -231 30 -252 18 -271 C 6 -290 -5 -306 -17 -318 L -87 -286 C -79 -276 -71 -264 -63 -248 C -55 -232 -47 -215 -40 -196 C -32 -177 -26 -157 -20 -135 C -14 -113 -11 -91 -10 -70 L 87 -70 Z" unicode="̦" />
<glyph horiz-adv-x="0" d="M 0 0 L 0 0 Z M 7 -186 C -15 -186 -38 -183 -61 -177 C -83 -171 -101 -163 -115 -153 L -103 -114 C -94 -119 -82 -125 -67 -131 C -51 -137 -35 -140 -18 -140 C -4 -140 8 -136 19 -130 C 29 -123 35 -114 35 -103 C 35 -90 30 -81 21 -76 C 11 -71 1 -69 -9 -69 C -16 -69 -22 -69 -28 -70 C -34 -71 -40 -73 -47 -76 L -62 -61 L -2 13 L 51 13 L 3 -49 C 35 -42 61 -45 83 -57 C 105 -69 116 -87 116 -111 C 116 -135 105 -154 83 -167 C 61 -179 36 -186 7 -186 Z" unicode="̧" />
<glyph horiz-adv-x="0" d="M 0 0 L 0 0 Z M 100 -87 L 126 -126 C 106 -146 84 -162 60 -173 C 35 -184 8 -190 -21 -190 C -53 -190 -79 -182 -98 -168 C -117 -153 -127 -134 -127 -112 C -127 -87 -117 -64 -99 -42 C -80 -20 -51 -2 -12 13 L 51 13 C 24 1 1 -12 -18 -28 C -38 -44 -48 -59 -48 -75 C -48 -89 -42 -100 -32 -108 C -21 -116 -7 -121 9 -121 C 27 -121 44 -117 60 -111 C 76 -105 89 -97 100 -87 Z" unicode="̨" />
<glyph horiz-adv-x="563" d="M 1 0 L 1 0 Z M 580 0 L 1 0 L 277 730 L 305 730 L 580 0 Z M 458 73 L 288 556 L 119 73 L 458 73 Z" unicode="Δ" />
<glyph horiz-adv-x="724" d="M 32 0 L 32 0 Z M 41 0 L 41 85 L 246 85 L 246 155 C 213 165 183 180 157 200 C 131 219 108 241 90 267 C 71 292 57 320 47 350 C 37 380 32 412 32 445 C 32 487 39 526 55 563 C 70 599 92 631 120 658 C 148 685 183 706 225 722 C 266 738 312 746 364 746 C 417 746 465 738 507 722 C 549 706 585 684 614 657 C 642 630 664 598 680 562 C 695 525 703 486 703 445 C 703 412 698 380 689 350 C 680 320 667 292 649 267 C 631 241 609 219 582 200 C 555 180 524 165 488 155 L 488 85 L 693 85 L 693 0 L 415 0 L 415 203 C 445 211 471 224 495 241 C 518 257 537 276 553 297 C 569 318 581 341 589 365 C 597 389 601 414 601 440 C 601 473 595 504 583 532 C 571 560 555 584 535 604 C 514 624 489 639 460 651 C 430 662 398 668 364 668 C 296 668 241 646 198 603 C 155 560 134 505 134 438 C 134 413 138 389 146 365 C 154 341 165 319 181 299 C 196 278 215 259 239 243 C 262 226 289 213 320 203 L 320 0 L 41 0 Z" unicode="Ω" />
<glyph horiz-adv-x="589" d="M 69 0 L 69 0 Z M 69 -106 L 69 463 L 161 463 L 161 158 C 161 129 172 106 195 90 C 218 73 245 65 277 65 C 293 65 310 67 326 72 C 342 77 356 84 369 94 C 381 104 391 116 399 131 C 407 146 411 163 411 183 L 411 463 L 502 463 L 502 0 L 418 0 L 418 97 C 407 69 387 45 357 25 C 327 5 296 -5 262 -6 C 238 -6 216 -2 196 7 C 176 17 162 31 154 49 L 154 -106 L 69 -106 Z" unicode="μ" />
<glyph horiz-adv-x="562" d="M 178 422 L 178 0 L 86 0 L 86 422 L 15 422 L 15 494 L 547 494 L 547 422 L 472 422 L 472 0 L 380 0 L 380 422 L 178 422 Z" unicode="π" />
<glyph horiz-adv-x="766" d="M 4 0 L 4 0 Z M 752 730 L 576 -5 L 513 -5 L 379 525 L 241 -5 L 178 -5 L 4 730 L 100 730 L 216 207 L 349 730 L 416 730 L 546 206 L 664 730 L 752 730 Z M 382 792 L 382 792 Z M 482 792 L 392 792 L 283 961 L 390 961 L 482 792 Z" unicode="Ẁ" />
<glyph horiz-adv-x="585" d="M 2 0 L 2 0 Z M 380 -2 L 292 261 L 204 -2 L 136 -2 L 2 436 L 93 436 L 180 133 L 264 397 L 327 397 L 411 133 L 500 436 L 582 436 L 446 -2 L 380 -2 Z M 293 498 L 293 498 Z M 393 498 L 303 498 L 194 667 L 301 667 L 393 498 Z" unicode="ẁ" />
<glyph horiz-adv-x="766" d="M 4 0 L 4 0 Z M 752 730 L 576 -5 L 513 -5 L 379 525 L 241 -5 L 178 -5 L 4 730 L 100 730 L 216 207 L 349 730 L 416 730 L 546 206 L 664 730 L 752 730 Z M 382 792 L 382 792 Z M 283 792 L 374 961 L 481 961 L 373 792 L 283 792 Z" unicode="Ẃ" />
<glyph horiz-adv-x="585" d="M 2 0 L 2 0 Z M 380 -2 L 292 261 L 204 -2 L 136 -2 L 2 436 L 93 436 L 180 133 L 264 397 L 327 397 L 411 133 L 500 436 L 582 436 L 446 -2 L 380 -2 Z M 293 498 L 293 498 Z M 194 498 L 285 667 L 392 667 L 284 498 L 194 498 Z" unicode="ẃ" />
<glyph horiz-adv-x="766" d="M 4 0 L 4 0 Z M 752 730 L 576 -5 L 513 -5 L 379 525 L 241 -5 L 178 -5 L 4 730 L 100 730 L 216 207 L 349 730 L 416 730 L 546 206 L 664 730 L 752 730 Z M 382 793 L 382 793 Z M 501 793 L 425 793 L 425 951 L 501 951 L 501 793 Z M 339 793 L 263 793 L 263 951 L 339 951 L 339 793 Z" unicode="Ẅ" />
<glyph horiz-adv-x="585" d="M 2 0 L 2 0 Z M 380 -2 L 292 261 L 204 -2 L 136 -2 L 2 436 L 93 436 L 180 133 L 264 397 L 327 397 L 411 133 L 500 436 L 582 436 L 446 -2 L 380 -2 Z M 293 499 L 293 499 Z M 412 499 L 336 499 L 336 657 L 412 657 L 412 499 Z M 250 499 L 174 499 L 174 657 L 250 657 L 250 499 Z" unicode="ẅ" />
<glyph horiz-adv-x="509" d="M 0 0 L 0 0 Z M 525 730 L 309 310 L 309 0 L 209 0 L 209 312 L -1 730 L 105 730 L 265 412 L 425 730 L 525 730 Z M 263 792 L 263 792 Z M 363 792 L 273 792 L 164 961 L 271 961 L 363 792 Z" unicode="Ỳ" />
<glyph horiz-adv-x="385" d="M 0 0 L 0 0 Z M 387 436 L 188 -103 C 174 -139 154 -164 130 -178 C 106 -192 80 -200 54 -200 C 41 -200 29 -198 19 -195 C 8 -192 0 -189 -6 -187 L 21 -110 C 23 -111 28 -113 36 -115 C 44 -117 52 -119 60 -119 C 72 -119 82 -114 92 -106 C 102 -97 110 -83 118 -63 L 152 35 L -3 436 L 95 436 L 197 151 L 295 436 L 387 436 Z M 193 498 L 193 498 Z M 293 498 L 203 498 L 94 667 L 201 667 L 293 498 Z" unicode="ỳ" />
<glyph horiz-adv-x="460" d="M 420 215 L 41 215 L 41 295 L 420 295 L 420 215 Z" unicode="–" />
<glyph horiz-adv-x="645" d="M 605 215 L 41 215 L 41 295 L 605 295 L 605 215 Z" unicode="—" />
<glyph horiz-adv-x="243" d="M 38 507 L 38 514 C 38 555 46 594 62 632 C 78 669 102 704 134 737 L 223 731 C 213 721 202 708 192 694 C 182 680 172 663 163 645 C 154 627 147 607 141 585 C 135 563 133 539 133 515 L 133 507 L 38 507 Z" unicode="‘" />
<glyph horiz-adv-x="243" d="M 205 737 L 205 730 C 205 689 197 650 181 613 C 165 576 141 541 109 507 L 20 513 C 30 523 40 536 50 551 C 60 565 70 582 79 600 C 88 618 95 637 101 659 C 107 681 110 704 110 729 L 110 737 L 205 737 Z" unicode="’" />
<glyph horiz-adv-x="244" d="M 204 112 L 204 105 C 204 64 196 25 180 -11 C 164 -48 140 -84 108 -118 L 19 -112 C 29 -101 39 -88 49 -74 C 59 -59 69 -43 78 -25 C 87 -7 94 12 100 34 C 106 56 109 79 109 104 L 109 112 L 204 112 Z" unicode="‚" />
<glyph horiz-adv-x="401" d="M 206 507 L 206 514 C 206 550 214 587 231 624 C 247 661 273 699 308 737 L 391 731 C 381 722 371 710 360 696 C 348 682 338 665 328 647 C 318 628 310 607 304 585 C 297 563 294 539 294 515 L 294 507 L 206 507 Z M 40 507 L 40 514 C 40 550 48 587 66 624 C 83 661 108 699 142 737 L 225 731 C 216 722 206 710 195 696 C 183 682 173 665 163 647 C 153 628 144 607 137 585 C 130 563 127 539 127 515 L 127 507 L 40 507 Z" unicode="“" />
<glyph horiz-adv-x="401" d="M 196 737 L 196 730 C 196 689 188 650 173 614 C 158 577 134 541 102 507 L 19 513 C 41 535 61 565 80 601 C 98 637 108 679 108 729 L 108 737 L 196 737 Z M 362 737 L 362 730 C 362 689 354 650 338 613 C 322 576 298 541 268 507 L 186 513 C 206 535 226 565 245 601 C 264 637 274 679 274 729 L 274 737 L 362 737 Z" unicode="”" />
<glyph horiz-adv-x="404" d="M 195 114 L 195 107 C 195 65 187 26 173 -9 C 158 -45 134 -81 102 -116 L 19 -110 C 41 -87 61 -58 80 -22 C 98 13 108 56 108 106 L 108 114 L 195 114 Z M 364 114 L 364 107 C 364 65 356 26 340 -10 C 324 -46 301 -82 271 -116 L 188 -110 C 209 -87 229 -58 248 -22 C 266 13 276 56 276 106 L 276 114 L 364 114 Z" unicode="„" />
<glyph horiz-adv-x="462" d="M 442 379 L 277 379 L 277 -179 L 180 -179 L 180 379 L 21 379 L 21 470 L 180 470 L 180 730 L 277 730 L 277 470 L 442 470 L 442 379 Z" unicode="†" />
<glyph horiz-adv-x="468" d="M 183 -179 L 183 103 L 28 103 L 28 194 L 183 194 L 183 374 L 28 374 L 28 465 L 183 465 L 183 730 L 280 730 L 280 465 L 441 465 L 441 374 L 280 374 L 280 194 L 441 194 L 441 103 L 280 103 L 280 -179 L 183 -179 Z" unicode="‡" />
<glyph horiz-adv-x="382" d="M 191 465 C 215 465 235 456 252 440 C 268 423 277 403 277 379 C 277 355 268 334 252 318 C 235 302 215 294 191 294 C 167 294 146 302 130 318 C 114 334 106 355 106 379 C 106 403 114 423 130 440 C 146 456 167 465 191 465 Z" unicode="•" />
<glyph horiz-adv-x="651" d="M 62 0 L 62 125 L 156 125 L 156 0 L 62 0 Z M 279 0 L 279 125 L 372 125 L 372 0 L 279 0 Z M 495 0 L 495 125 L 589 125 L 589 0 L 495 0 Z" unicode="…" />
<glyph horiz-adv-x="1026" d="M 178 363 C 161 363 144 366 128 374 C 111 382 96 393 83 409 C 69 425 58 444 50 468 C 42 492 38 519 38 551 C 38 577 41 602 48 625 C 55 648 65 668 77 685 C 89 702 104 715 122 725 C 139 735 157 740 177 740 C 198 740 218 735 236 725 C 254 715 269 701 281 685 C 293 668 303 648 310 626 C 317 603 321 579 321 554 C 321 527 317 502 310 479 C 302 455 292 435 280 418 C 267 400 252 387 234 377 C 216 367 198 363 178 363 Z M 103 0 L 520 730 L 588 730 L 171 0 L 103 0 Z M 119 551 C 119 520 123 493 133 469 C 142 445 157 434 178 434 C 200 434 216 445 226 469 C 235 493 240 520 240 551 C 240 581 235 608 226 632 C 217 656 202 669 180 669 C 158 669 143 657 133 633 C 123 609 119 581 119 551 Z M 525 -3 C 507 -3 490 0 473 8 C 456 16 441 27 428 43 C 414 59 403 78 395 102 C 387 126 383 153 383 185 C 383 211 386 236 393 259 C 400 282 410 302 423 319 C 436 336 451 349 469 359 C 487 369 506 374 527 374 C 549 374 568 369 586 359 C 604 349 619 335 631 319 C 643 302 652 282 659 260 C 665 237 669 213 669 188 C 669 161 665 136 658 113 C 651 89 641 69 629 52 C 616 34 601 21 583 11 C 565 1 546 -3 525 -3 Z M 844 -3 C 826 -3 809 0 792 8 C 775 16 760 27 747 43 C 733 59 722 78 714 102 C 706 126 702 153 702 185 C 702 211 705 236 712 259 C 719 282 729 302 742 319 C 755 336 770 349 788 359 C 806 369 825 374 846 374 C 868 374 887 369 905 359 C 923 349 938 335 950 319 C 962 302 971 282 978 260 C 984 237 988 213 988 188 C 988 161 984 136 977 113 C 970 89 960 69 948 52 C 935 34 920 21 902 11 C 884 1 865 -3 844 -3 Z M 524 69 C 546 69 563 80 573 103 C 583 126 589 153 589 185 C 589 215 584 243 574 267 C 564 291 548 303 526 303 C 506 303 490 291 480 267 C 470 243 465 216 465 185 C 465 153 470 125 480 103 C 490 80 504 69 524 69 Z M 844 69 C 866 69 883 80 893 103 C 903 126 908 153 908 185 C 908 215 903 243 893 267 C 883 291 868 303 846 303 C 825 303 809 291 799 267 C 789 243 784 216 784 185 C 784 153 789 125 799 103 C 809 80 824 69 844 69 Z" unicode="‰" />
<glyph horiz-adv-x="238" d="M 209 79 L 28 247 L 28 306 L 209 472 L 209 378 L 108 274 L 209 175 L 209 79 Z" unicode="‹" />
<glyph horiz-adv-x="239" d="M 29 472 L 212 303 L 212 245 L 29 79 L 29 172 L 130 276 L 29 375 L 29 472 Z" unicode="›" />
<glyph horiz-adv-x="145" d="M 303 730 L -64 0 L -145 0 L 222 730 L 303 730 Z" unicode="⁄" />
<glyph horiz-adv-x="327" d="M 15 455 L 15 511 L 201 738 L 254 738 L 254 514 L 315 514 L 315 455 L 254 455 L 254 373 L 178 373 L 178 455 L 15 455 Z M 87 509 L 180 509 L 180 626 L 87 509 Z" unicode="⁴" />
<glyph horiz-adv-x="503" d="M 489 116 C 471 78 445 48 411 24 C 377 0 339 -12 298 -12 C 244 -12 197 11 157 59 C 117 107 91 172 79 255 L 30 255 L 30 329 L 72 329 C 71 334 71 339 71 345 C 71 351 71 356 71 362 C 71 366 71 371 71 375 C 71 379 71 384 71 388 L 30 388 L 30 462 L 77 462 C 82 502 91 540 103 575 C 115 609 131 639 150 663 C 168 687 190 707 215 721 C 239 735 267 742 297 742 C 348 742 388 730 417 707 C 446 683 468 656 482 626 L 415 581 C 403 601 388 620 371 636 C 353 652 330 661 300 661 C 266 661 237 643 213 609 C 189 575 173 526 165 462 L 445 462 L 445 388 L 159 388 C 159 384 159 379 159 375 C 159 371 159 366 159 362 C 159 356 159 351 159 345 C 159 339 159 333 160 329 L 445 329 L 445 255 L 167 255 C 177 192 194 145 219 114 C 244 83 272 68 303 68 C 331 68 356 77 376 96 C 396 115 412 138 424 164 L 489 116 Z" unicode="€" />
<glyph horiz-adv-x="870" d="M 819 317 L 736 317 L 736 594 L 608 398 L 583 398 L 457 593 L 457 317 L 376 317 L 376 730 L 461 730 L 596 522 L 730 730 L 819 730 L 819 317 Z M 347 641 L 229 641 L 229 317 L 142 317 L 142 641 L 20 641 L 20 730 L 347 730 L 347 641 Z" unicode="™" />
<glyph horiz-adv-x="735" d="M 41 0 L 41 85 L 246 85 L 246 155 C 213 165 183 180 157 200 C 131 219 108 241 90 267 C 71 292 57 320 47 350 C 37 380 32 412 32 445 C 32 487 39 526 55 563 C 70 599 92 631 120 658 C 148 685 183 706 225 722 C 266 738 312 746 364 746 C 417 746 465 738 507 722 C 549 706 585 684 614 657 C 642 630 664 598 680 562 C 695 525 703 486 703 445 C 703 412 698 380 689 350 C 680 320 667 292 649 267 C 631 241 609 219 582 200 C 555 180 524 165 488 155 L 488 85 L 693 85 L 693 0 L 415 0 L 415 203 C 445 211 471 224 495 241 C 518 257 537 276 553 297 C 569 318 581 341 589 365 C 597 389 601 414 601 440 C 601 473 595 504 583 532 C 571 560 555 584 535 604 C 514 624 489 639 460 651 C 430 662 398 668 364 668 C 296 668 241 646 198 603 C 155 560 134 505 134 438 C 134 413 138 389 146 365 C 154 341 165 319 181 299 C 196 278 215 259 239 243 C 262 226 289 213 320 203 L 320 0 L 41 0 Z" unicode="Ω" />
<glyph horiz-adv-x="487" d="M 446 276 C 446 226 440 182 429 146 C 418 110 403 80 384 57 C 365 34 343 17 318 7 C 292 -3 265 -9 237 -9 C 210 -9 184 -4 159 6 C 134 16 112 30 93 49 C 73 68 58 92 46 120 C 34 148 29 180 29 216 C 29 249 34 280 44 309 C 54 337 68 362 86 382 C 103 402 124 418 148 430 C 172 441 197 447 224 447 C 258 447 287 438 312 421 C 337 404 356 382 369 355 C 362 423 350 481 332 531 C 314 580 293 620 269 652 C 245 683 219 706 192 722 C 165 738 140 746 117 748 L 157 802 C 181 802 210 792 244 773 C 277 753 308 723 338 681 C 368 639 393 585 414 518 C 435 451 446 370 446 276 Z M 236 57 C 272 57 300 71 320 101 C 340 131 350 172 350 225 C 350 271 340 309 320 337 C 300 365 272 379 236 379 C 202 379 174 364 154 336 C 134 308 124 269 124 219 C 124 165 134 124 154 97 C 174 70 202 57 236 57 Z" unicode="∂" />
<glyph horiz-adv-x="581" d="M 580 0 L 1 0 L 277 730 L 305 730 L 580 0 Z M 458 73 L 288 556 L 119 73 L 458 73 Z" unicode="∆" />
<glyph horiz-adv-x="662" d="M 218 647 L 218 0 L 122 0 L 122 647 L 15 647 L 15 730 L 647 730 L 647 647 L 545 647 L 545 0 L 449 0 L 449 647 L 218 647 Z" unicode="∏" />
<glyph horiz-adv-x="561" d="M 171 647 L 395 307 L 138 -96 L 526 -96 L 526 -179 L -15 -179 L 302 306 L 15 730 L 505 730 L 505 647 L 171 647 Z" unicode="∑" />
<glyph horiz-adv-x="514" d="M 474 294 L 41 294 L 41 369 L 474 369 L 474 294 Z" unicode="−" />
<glyph horiz-adv-x="510" d="M 502 730 L 198 0 L 186 0 L 13 329 L 79 378 L 203 130 L 443 730 L 502 730 Z" unicode="√" />
<glyph horiz-adv-x="338" d="M 107 -27 L 165 628 C 168 664 182 692 207 712 C 231 731 256 741 282 741 C 295 741 308 740 321 739 C 334 738 342 737 345 737 L 338 656 C 336 656 332 657 326 658 C 320 658 314 659 308 659 C 289 659 273 652 261 640 C 249 627 242 607 240 581 L 184 -60 C 181 -92 168 -120 145 -144 C 121 -168 92 -179 58 -179 C 39 -179 22 -177 6 -173 C -10 -169 -22 -165 -30 -161 L -20 -96 C -16 -96 -9 -98 0 -101 C 9 -103 18 -105 27 -105 C 47 -105 64 -98 80 -84 C 95 -70 104 -51 107 -27 Z" unicode="∫" />
<glyph horiz-adv-x="481" d="M 361 499 L 448 499 C 447 451 439 412 424 382 C 408 352 384 337 352 337 C 331 337 312 341 296 349 C 279 357 265 367 253 378 C 240 388 227 398 213 406 C 199 414 186 418 172 418 C 159 418 146 410 133 396 C 120 382 114 363 114 340 L 37 340 C 37 390 46 429 66 457 C 85 485 110 500 141 500 C 161 500 179 495 195 487 C 211 478 225 469 238 460 C 249 452 261 444 274 437 C 286 430 299 427 312 427 C 329 427 341 432 349 444 C 357 456 361 474 361 499 Z M 363 322 L 448 322 C 447 274 438 235 422 205 C 405 175 380 161 346 161 C 323 161 303 165 287 173 C 271 181 257 191 246 201 C 234 211 221 219 209 227 C 196 234 183 238 171 238 C 158 238 146 231 134 218 C 122 204 116 186 116 164 L 37 164 C 37 213 46 252 66 281 C 86 309 113 324 147 324 C 169 324 189 319 206 310 C 223 301 237 292 249 282 C 259 273 270 265 282 259 C 294 252 306 249 318 249 C 334 249 345 255 352 267 C 359 279 363 297 363 322 Z" unicode="≈" />
<glyph horiz-adv-x="500" d="M 457 175 L 227 175 L 175 66 L 112 93 L 151 175 L 65 175 L 65 254 L 188 254 L 252 388 L 65 388 L 65 466 L 289 466 L 342 578 L 406 551 L 366 466 L 457 466 L 457 388 L 328 388 L 265 254 L 457 254 L 457 175 Z" unicode="≠" />
<glyph horiz-adv-x="500" d="M 62 295 L 62 355 L 433 558 L 433 471 L 152 327 L 433 181 L 433 93 L 62 295 Z M 61 84 L 433 84 L 433 14 L 61 14 L 61 84 Z" unicode="≤" />
<glyph horiz-adv-x="500" d="M 432 295 L 61 93 L 61 180 L 342 327 L 61 471 L 61 558 L 432 355 L 432 295 Z M 433 84 L 433 14 L 61 14 L 61 84 L 433 84 Z" unicode="≥" />
<glyph horiz-adv-x="533" d="M 504 326 L 272 -16 L 261 -16 L 30 326 L 30 337 L 261 678 L 272 678 L 504 337 L 504 326 Z M 417 327 L 417 336 L 271 556 L 263 556 L 117 336 L 117 327 L 263 106 L 271 106 L 417 327 Z" unicode="◊" />
<glyph horiz-adv-x="730" d="M 448 678 L 282 678 L 282 730 L 448 730 L 448 678 Z M 659 282 L 605 282 L 605 448 L 659 448 L 659 282 Z M 125 282 L 71 282 L 71 448 L 125 448 L 125 282 Z M 428 302 L 302 302 L 302 428 L 428 428 L 428 302 Z M 448 0 L 282 0 L 282 53 L 448 53 L 448 0 Z" unicode="" />
<glyph horiz-adv-x="456" d="M 251 360 L 170 360 L 170 0 L 78 0 L 78 360 L 17 360 L 17 436 L 78 436 L 78 599 C 78 627 82 652 92 674 C 101 696 113 715 128 730 C 142 745 159 757 178 765 C 196 773 215 777 233 777 C 251 777 268 775 284 772 C 299 768 310 764 318 760 L 302 685 C 297 687 290 689 280 692 C 270 694 260 696 250 696 C 230 696 211 686 194 668 C 176 649 168 623 168 589 L 168 436 L 251 436 L 251 360 Z M 407 533 L 311 533 L 311 622 L 407 622 L 407 533 Z M 405 0 L 313 0 L 313 436 L 405 436 L 405 0 Z" unicode="ﬁ" />
<glyph horiz-adv-x="451" d="M 170 360 L 170 0 L 78 0 L 78 360 L 17 360 L 17 436 L 78 436 L 78 593 C 78 621 82 647 92 670 C 101 692 113 711 128 727 C 142 742 159 754 178 762 C 196 770 215 774 233 774 C 249 774 263 772 277 770 C 291 767 302 764 311 761 L 311 770 L 403 770 L 403 0 L 311 0 L 311 724 L 302 682 C 297 684 290 686 280 689 C 270 691 260 693 250 693 C 229 693 210 683 193 664 C 176 644 168 618 168 584 L 168 436 L 251 436 L 251 360 L 170 360 Z" unicode="ﬂ" />
</font>
</defs>
</svg>
