<?xml version="1.0" encoding="utf-8" ?><svg version="1.1" xmlns = 'http://www.w3.org/2000/svg'><defs><font id='web' horiz-adv-x="1000">
<font-face font-family="web" descent="-200" cap-height="730" units-per-em="1000" bbox="-209,-332,992,1034" x-height="559" ascent="800" />
<missing-glyph horiz-adv-x="500" d="" /><glyph horiz-adv-x="187" d="" unicode=" " />
<glyph horiz-adv-x="261" d="M 207 422 L 159 226 L 100 226 L 54 422 L 54 730 L 207 730 L 207 422 Z M 199 0 L 62 0 L 62 141 L 199 141 L 199 0 Z" unicode="!" />
<glyph horiz-adv-x="383" d="M 343 624 L 335 473 L 226 473 L 220 623 L 220 730 L 343 730 L 343 624 Z M 163 623 L 157 473 L 46 473 L 40 623 L 40 730 L 163 730 L 163 623 Z" unicode="&#x22;" />
<glyph horiz-adv-x="559" d="M 510 192 L 410 192 L 393 0 L 307 1 L 324 192 L 205 192 L 188 0 L 102 1 L 119 192 L 32 192 L 32 313 L 129 313 L 138 414 L 49 414 L 49 535 L 149 535 L 166 730 L 252 729 L 235 535 L 354 535 L 371 730 L 457 729 L 440 535 L 527 535 L 527 414 L 429 414 L 420 313 L 510 313 L 510 192 Z M 215 313 L 334 313 L 343 414 L 224 414 L 215 313 Z" unicode="#" />
<glyph horiz-adv-x="474" d="M 443 193 C 443 164 438 138 429 116 C 420 94 408 75 393 59 C 377 43 359 30 339 20 C 319 10 298 4 276 0 L 276 -133 L 204 -133 L 204 -3 C 166 -1 131 6 100 20 C 68 33 39 55 13 86 L 83 175 C 97 153 117 136 141 124 C 165 112 189 107 212 107 C 236 107 259 114 281 128 C 302 142 313 165 313 197 C 313 224 304 246 286 263 C 268 280 237 302 193 328 C 149 352 112 381 82 415 C 52 448 37 494 37 552 C 37 600 53 641 85 673 C 117 705 156 724 204 731 L 204 794 L 276 794 L 276 732 C 310 729 340 721 365 709 C 389 696 410 681 427 663 L 355 578 C 341 592 325 603 307 611 C 289 619 271 623 253 623 C 232 623 213 615 195 601 C 177 587 169 567 170 543 C 170 520 177 500 191 484 C 205 467 236 446 284 420 C 340 389 380 357 405 325 C 430 293 443 249 443 193 Z" unicode="$" />
<glyph horiz-adv-x="719" d="M 175 362 C 157 362 140 365 122 373 C 104 381 89 392 75 408 C 61 424 49 443 40 467 C 31 491 27 518 27 550 C 27 603 41 648 69 684 C 97 720 131 739 171 739 C 193 739 213 734 232 724 C 251 714 267 700 281 684 C 294 667 304 647 312 625 C 320 602 324 578 324 553 C 324 526 320 501 312 478 C 304 454 293 434 279 417 C 265 399 250 386 232 376 C 214 366 195 362 175 362 Z M 180 0 L 96 0 L 518 730 L 601 730 L 180 0 Z M 175 459 C 194 459 207 468 213 486 C 219 504 223 526 223 550 C 223 574 219 595 213 613 C 207 631 194 641 176 641 C 157 641 144 631 137 613 C 130 595 127 574 127 550 C 127 526 130 505 136 487 C 142 468 155 459 175 459 Z M 539 -3 C 521 -3 503 0 485 8 C 467 16 452 27 438 43 C 424 59 412 78 404 102 C 395 126 391 153 391 185 C 391 238 405 283 433 319 C 461 355 497 374 541 374 C 563 374 584 369 602 359 C 620 349 636 335 650 319 C 663 302 673 282 681 260 C 688 237 692 213 692 188 C 692 161 688 136 680 113 C 672 89 662 69 648 52 C 634 34 618 21 600 11 C 581 1 561 -3 539 -3 Z M 540 94 C 558 94 571 102 579 120 C 587 138 591 159 591 185 C 591 210 587 232 579 250 C 571 268 558 277 540 277 C 524 277 512 268 504 250 C 496 232 492 210 492 185 C 492 159 495 138 502 120 C 509 102 522 94 540 94 Z" unicode="%" />
<glyph horiz-adv-x="635" d="M 547 -5 L 483 65 C 453 40 419 22 383 10 C 347 -2 306 -8 261 -8 C 182 -8 122 9 81 45 C 40 81 20 130 20 193 C 20 251 34 297 62 329 C 90 361 126 388 168 412 C 152 430 135 452 118 480 C 100 507 92 539 92 577 C 92 597 95 616 103 636 C 110 655 121 672 136 687 C 151 702 170 714 193 723 C 216 732 243 737 274 737 C 330 737 376 722 412 693 C 448 664 467 630 467 590 C 467 550 456 514 434 483 C 412 451 382 422 344 394 L 483 245 C 490 257 497 270 505 284 C 512 298 519 312 527 327 L 625 257 C 615 238 606 220 596 204 C 586 187 576 171 566 157 L 635 83 L 547 -5 Z M 223 560 C 223 545 226 531 234 518 C 242 504 254 489 271 471 C 297 489 314 505 323 520 C 332 535 337 550 337 566 C 337 581 332 595 323 609 C 314 622 299 629 279 629 C 260 629 246 621 237 606 C 227 590 223 575 223 560 Z M 171 209 C 171 180 182 156 206 136 C 229 116 255 107 284 107 C 306 107 328 110 348 118 C 368 125 387 136 405 151 L 244 329 C 221 312 203 294 190 276 C 177 257 171 235 171 209 Z" unicode="&#x26;" />
<glyph horiz-adv-x="207" d="M 168 620 L 163 466 L 45 466 L 39 620 L 39 730 L 168 730 L 168 620 Z" unicode="'" />
<glyph horiz-adv-x="303" d="M 286 -72 L 286 -179 C 253 -165 220 -144 188 -117 C 156 -89 127 -56 102 -17 C 77 22 57 68 41 120 C 25 172 18 229 18 293 C 18 353 25 409 39 459 C 53 509 72 554 96 592 C 120 630 148 663 181 689 C 213 715 248 735 286 749 L 286 645 C 245 621 213 582 191 526 C 168 470 156 392 156 293 C 156 203 166 129 187 69 C 207 9 240 -38 286 -72 Z" unicode="(" />
<glyph horiz-adv-x="303" d="M 17 644 L 17 749 C 53 737 87 718 120 692 C 152 666 181 633 205 595 C 229 556 249 511 263 459 C 277 407 285 350 285 288 C 285 226 277 170 262 120 C 246 69 226 24 202 -14 C 177 -53 148 -86 116 -114 C 84 -142 51 -163 17 -179 L 17 -70 C 61 -37 93 8 115 67 C 136 126 147 200 147 288 C 147 388 136 467 114 523 C 91 579 59 620 17 644 Z" unicode=")" />
<glyph horiz-adv-x="373" d="M 359 575 L 242 549 L 329 472 L 249 408 L 189 511 L 130 410 L 47 471 L 136 550 L 17 570 L 63 675 L 156 613 L 135 730 L 243 730 L 221 613 L 318 669 L 359 575 Z" unicode="*" />
<glyph horiz-adv-x="455" d="M 437 278 L 284 278 L 284 125 L 172 125 L 172 278 L 19 278 L 19 385 L 172 385 L 172 537 L 284 537 L 284 385 L 437 385 L 437 278 Z" unicode="+" />
<glyph horiz-adv-x="239" d="M 212 121 C 212 97 208 71 201 43 C 193 15 184 -11 174 -37 C 163 -62 151 -84 139 -104 C 127 -124 116 -137 106 -145 L 2 -99 C 9 -89 16 -77 24 -61 C 32 -45 39 -27 45 -7 C 51 13 57 34 62 56 C 66 78 69 99 70 121 L 212 121 Z" unicode="," />
<glyph horiz-adv-x="319" d="M 291 213 L 29 213 L 29 338 L 291 338 L 291 213 Z" unicode="-" />
<glyph horiz-adv-x="242" d="M 191 0 L 51 0 L 51 150 L 191 150 L 191 0 Z" unicode="." />
<glyph horiz-adv-x="323" d="M 326 730 L 123 0 L -4 0 L 202 730 L 326 730 Z" unicode="/" />
<glyph horiz-adv-x="459" d="M 226 -7 C 197 -7 170 -1 145 11 C 120 23 99 43 81 71 C 63 99 48 137 38 185 C 27 233 22 292 22 362 C 22 478 39 570 73 637 C 107 703 159 737 230 737 C 303 737 356 704 388 640 C 420 576 437 486 437 372 C 437 247 419 153 384 89 C 348 25 296 -7 226 -7 Z M 228 101 C 240 101 251 105 261 113 C 270 121 277 136 283 156 C 288 176 292 202 295 236 C 297 269 299 310 299 360 C 299 458 294 527 285 567 C 275 606 257 626 229 626 C 215 626 204 622 195 614 C 186 606 179 592 174 572 C 168 552 164 525 162 491 C 160 457 159 414 159 363 C 159 311 160 268 163 234 C 166 200 170 173 176 153 C 182 133 189 120 198 112 C 206 104 216 101 228 101 Z" unicode="0" />
<glyph horiz-adv-x="315" d="M 268 0 L 124 0 L 124 542 C 111 523 95 507 75 493 C 55 479 37 471 21 470 L 21 607 C 31 607 42 612 54 620 C 66 628 78 639 90 651 C 102 663 113 676 123 691 C 133 705 140 720 145 734 L 268 734 L 268 0 Z" unicode="1" />
<glyph horiz-adv-x="439" d="M 415 0 L 14 0 L 14 26 L 219 354 C 239 386 254 418 264 449 C 274 479 279 511 279 544 C 279 571 273 591 262 605 C 250 618 234 625 212 625 C 187 625 169 616 159 598 C 148 580 143 554 143 520 L 20 520 C 20 592 37 647 71 683 C 105 719 152 737 210 737 C 268 737 316 721 354 689 C 391 657 410 614 410 560 C 410 502 403 455 390 421 C 377 386 361 354 343 324 L 215 122 L 415 122 L 415 0 Z" unicode="2" />
<glyph horiz-adv-x="438" d="M 191 -7 C 141 -7 100 0 67 12 C 34 24 8 39 -10 55 L 39 150 C 53 137 71 126 94 116 C 116 106 143 101 174 101 C 211 101 240 113 260 137 C 280 161 290 192 290 228 C 290 267 278 295 254 311 C 230 327 205 336 179 336 L 111 336 L 111 451 L 182 451 C 208 451 230 458 247 474 C 263 489 272 512 272 542 C 272 566 264 587 250 604 C 236 620 213 629 183 629 C 157 629 134 623 114 612 C 94 601 77 588 63 573 L 3 650 C 11 658 21 668 33 678 C 45 688 60 698 77 707 C 94 715 114 722 137 728 C 159 734 184 737 212 737 C 268 737 313 721 347 691 C 381 661 398 621 398 571 C 398 525 385 487 361 457 C 337 427 308 408 276 400 C 294 396 312 389 330 379 C 347 369 362 357 376 342 C 389 327 400 309 408 289 C 416 269 420 246 420 221 C 420 195 416 168 408 141 C 400 114 388 90 370 68 C 352 46 328 28 299 14 C 269 0 233 -7 191 -7 Z" unicode="3" />
<glyph horiz-adv-x="441" d="M 438 174 L 375 174 L 375 0 L 256 0 L 256 174 L 2 174 L 2 261 L 288 736 L 376 736 L 375 290 L 438 290 L 438 174 Z M 259 280 L 259 512 L 125 280 L 259 280 Z" unicode="4" />
<glyph horiz-adv-x="432" d="M 213 -7 C 167 -7 125 1 86 18 C 47 35 18 55 -1 77 L 62 175 C 75 161 92 146 112 132 C 132 118 156 111 186 111 C 218 111 243 123 259 147 C 275 171 283 205 283 247 C 283 285 276 314 263 334 C 249 354 231 364 207 364 C 180 364 161 358 149 348 C 137 337 127 323 121 307 L 27 333 L 58 730 L 384 730 L 384 608 L 155 608 L 141 424 C 147 434 159 445 175 456 C 191 467 216 473 251 473 C 301 473 341 455 373 420 C 404 385 420 330 420 255 C 420 210 414 171 402 138 C 390 105 375 78 356 56 C 337 34 315 18 290 8 C 265 -1 239 -7 213 -7 Z" unicode="5" />
<glyph horiz-adv-x="448" d="M 236 -8 C 209 -8 183 -3 157 7 C 131 17 108 32 88 52 C 68 72 51 97 39 127 C 26 157 20 192 20 232 C 20 302 34 369 64 433 C 94 497 135 565 187 638 L 265 747 L 366 689 L 327 628 C 307 598 288 570 269 544 C 250 518 232 495 216 474 C 200 452 186 433 174 416 C 162 398 153 383 148 370 C 160 392 178 411 202 425 C 226 439 250 447 275 447 C 321 447 359 426 389 386 C 419 346 435 293 435 227 C 435 192 429 160 419 131 C 409 102 395 77 377 57 C 359 36 337 20 313 9 C 289 -2 263 -8 236 -8 Z M 231 99 C 253 99 270 108 283 128 C 295 147 302 178 302 221 C 302 266 295 298 282 316 C 269 334 252 343 232 343 C 211 343 193 333 179 315 C 165 296 158 266 158 226 C 158 177 165 144 179 126 C 193 108 211 99 231 99 Z" unicode="6" />
<glyph horiz-adv-x="376" d="M 380 730 L 380 650 L 137 -9 L 17 36 L 243 608 L 11 608 L 11 730 L 380 730 Z" unicode="7" />
<glyph horiz-adv-x="453" d="M 321 395 C 333 391 347 384 361 376 C 375 367 387 355 399 341 C 411 326 420 308 428 286 C 435 264 439 237 439 207 C 439 139 420 87 382 49 C 344 11 292 -7 228 -7 C 163 -7 111 11 73 48 C 34 85 15 136 15 202 C 15 233 19 260 27 283 C 35 306 45 325 57 341 C 69 356 82 368 96 377 C 110 386 122 393 134 397 C 111 405 89 422 68 446 C 46 470 36 508 36 559 C 36 587 41 613 51 635 C 61 657 75 676 92 691 C 109 706 129 717 153 725 C 176 733 201 737 227 737 C 283 737 328 721 364 689 C 399 657 417 616 417 566 C 417 540 414 518 408 499 C 402 480 394 464 385 450 C 375 436 365 425 354 416 C 342 407 331 400 321 395 Z M 227 427 C 247 427 263 434 276 448 C 289 462 296 489 296 527 C 296 563 289 589 276 605 C 263 621 247 630 227 630 C 206 630 189 622 176 607 C 162 591 156 565 156 528 C 156 486 163 458 179 446 C 194 433 210 427 227 427 Z M 228 100 C 250 100 268 108 282 124 C 296 140 303 170 303 212 C 303 250 295 278 281 294 C 266 310 248 319 228 319 C 205 319 186 311 172 295 C 157 279 150 251 150 210 C 150 171 157 143 173 126 C 189 108 207 100 228 100 Z" unicode="8" />
<glyph horiz-adv-x="442" d="M 188 -14 L 87 50 L 121 99 C 136 119 153 142 171 167 C 189 192 206 217 223 241 C 239 265 255 287 269 309 C 283 330 294 348 302 363 C 289 342 270 325 244 312 C 218 298 192 292 168 292 C 122 292 84 312 56 354 C 27 395 13 448 13 512 C 13 545 18 576 29 604 C 39 632 54 655 72 675 C 90 695 112 710 137 721 C 161 731 187 737 215 737 C 241 737 267 732 292 722 C 317 712 339 698 358 679 C 377 660 392 636 404 607 C 416 577 422 543 422 504 C 422 462 417 423 408 385 C 399 347 387 311 372 277 C 357 243 339 209 319 177 C 299 144 278 112 256 81 L 188 -14 Z M 211 402 C 229 402 245 409 261 423 C 276 437 284 466 284 508 C 284 554 277 585 263 601 C 249 617 233 625 213 625 C 190 625 173 616 161 598 C 149 580 143 552 143 514 C 143 470 149 440 161 425 C 173 409 189 402 211 402 Z" unicode="9" />
<glyph horiz-adv-x="233" d="M 186 416 L 47 416 L 47 559 L 186 559 L 186 416 Z M 186 0 L 47 0 L 47 144 L 186 144 L 186 0 Z" unicode=":" />
<glyph horiz-adv-x="236" d="M 194 416 L 56 416 L 56 559 L 194 559 L 194 416 Z M 196 114 C 195 88 191 61 185 33 C 178 5 170 -19 160 -43 C 150 -67 139 -88 128 -106 C 116 -124 106 -137 96 -145 L -9 -99 C -1 -89 6 -77 15 -61 C 23 -45 31 -28 38 -9 C 45 9 51 29 55 51 C 59 72 60 93 60 114 L 196 114 Z" unicode=";" />
<glyph horiz-adv-x="405" d="M 358 102 L 27 278 L 27 372 L 358 545 L 358 422 L 159 325 L 358 229 L 358 102 Z" unicode="&#x3C;" />
<glyph horiz-adv-x="462" d="M 414 378 L 49 378 L 49 497 L 414 497 L 414 378 Z M 414 155 L 49 155 L 49 274 L 414 274 L 414 155 Z" unicode="=" />
<glyph horiz-adv-x="405" d="M 371 278 L 40 102 L 40 227 L 233 325 L 40 422 L 40 545 L 371 372 L 371 278 Z" unicode="&#x3E;" />
<glyph horiz-adv-x="438" d="M 140 228 C 140 260 145 290 157 317 C 169 344 185 371 206 398 C 222 419 237 441 250 464 C 263 486 270 512 270 541 C 270 565 262 583 248 597 C 233 610 214 617 192 617 C 170 617 152 611 136 599 C 120 587 107 573 95 556 L 13 639 C 39 674 70 700 107 717 C 143 733 181 742 220 742 C 286 742 335 725 367 691 C 399 657 416 613 416 560 C 416 510 405 467 384 433 C 362 398 339 364 314 332 C 300 316 290 299 284 280 C 277 261 273 244 273 228 L 140 228 Z M 134 0 L 134 147 L 284 147 L 284 0 L 134 0 Z" unicode="?" />
<glyph horiz-adv-x="779" d="M 384 -60 C 328 -60 277 -50 233 -30 C 189 -10 151 16 120 50 C 89 84 65 124 49 170 C 33 216 25 265 25 317 C 25 369 33 418 51 464 C 68 510 92 549 124 583 C 156 617 194 644 240 664 C 285 684 335 694 391 694 C 447 694 498 685 543 669 C 588 653 626 630 658 600 C 689 570 713 533 730 490 C 746 447 755 399 755 347 C 755 303 749 266 739 236 C 729 205 716 180 700 160 C 684 140 666 126 646 117 C 626 107 607 103 589 103 C 561 103 538 109 521 121 C 503 133 491 150 485 171 C 472 155 454 140 432 125 C 410 110 380 103 342 103 C 294 103 258 115 234 140 C 210 165 198 199 198 243 C 198 267 203 288 215 306 C 227 324 242 338 260 350 C 278 361 298 369 321 375 C 344 381 367 384 390 384 L 461 384 L 461 396 C 461 416 454 432 442 443 C 430 454 410 460 384 460 C 361 460 340 457 321 451 C 302 445 287 439 277 435 L 242 511 C 261 520 283 528 308 534 C 332 540 361 543 394 543 C 446 543 486 530 515 505 C 543 480 558 437 558 375 L 558 230 C 558 219 562 210 570 202 C 578 194 589 191 602 191 C 620 191 636 201 652 222 C 667 243 675 284 675 344 C 675 427 650 493 600 543 C 550 593 480 618 391 618 C 347 618 307 610 271 594 C 235 578 205 557 181 530 C 156 502 137 470 124 434 C 110 397 104 358 104 316 C 104 274 110 235 123 198 C 136 160 155 128 179 100 C 203 72 232 50 268 34 C 303 18 343 10 387 10 C 406 10 424 11 441 15 C 458 19 478 26 501 37 L 528 -27 C 500 -39 476 -48 454 -53 C 432 -57 408 -60 384 -60 Z M 376 186 C 397 186 415 190 430 200 C 445 210 455 220 460 230 L 460 316 L 391 316 C 366 316 346 310 330 299 C 314 287 306 271 306 251 C 306 230 311 214 323 203 C 334 191 352 186 376 186 Z" unicode="@" />
<glyph horiz-adv-x="501" d="M 505 0 L 362 0 L 326 140 L 168 140 L 134 0 L -3 0 L 199 734 L 304 734 L 505 0 Z M 311 246 L 246 495 L 184 246 L 311 246 Z" unicode="A" />
<glyph horiz-adv-x="483" d="M 46 0 L 46 730 L 264 730 C 314 730 356 714 390 684 C 423 653 440 611 440 559 C 440 507 427 467 401 440 C 375 412 346 395 312 389 C 330 387 348 381 367 373 C 385 365 402 353 418 339 C 433 324 445 306 455 284 C 465 262 470 236 470 208 C 470 176 465 147 455 121 C 445 95 431 74 413 56 C 395 38 375 24 351 14 C 327 4 301 0 274 0 L 46 0 Z M 189 425 L 230 425 C 258 425 278 435 289 457 C 300 478 306 501 306 527 C 306 557 299 580 287 596 C 274 611 253 619 223 619 L 189 619 L 189 425 Z M 189 110 L 244 110 C 274 110 296 119 309 139 C 321 158 328 183 328 213 C 328 251 319 278 303 294 C 287 310 263 319 233 319 L 189 319 L 189 110 Z" unicode="B" />
<glyph horiz-adv-x="528" d="M 279 -7 C 202 -7 141 24 95 86 C 49 148 26 241 26 366 C 26 480 47 571 90 637 C 133 703 197 737 281 737 C 346 737 395 720 429 686 C 463 652 486 607 498 550 L 369 519 C 361 547 351 571 339 589 C 327 607 308 617 284 617 C 267 617 252 613 238 605 C 224 597 213 584 204 565 C 194 545 187 519 182 487 C 177 454 175 413 175 363 C 175 312 178 270 185 238 C 191 205 200 179 212 161 C 223 142 236 129 250 122 C 264 115 279 112 294 112 C 322 112 344 121 358 139 C 372 157 383 181 392 212 L 506 172 C 488 112 460 67 422 37 C 383 7 335 -7 279 -7 Z" unicode="C" />
<glyph horiz-adv-x="550" d="M 46 0 L 46 730 L 232 730 C 279 730 321 721 357 703 C 393 685 424 659 448 627 C 472 595 491 556 504 510 C 516 464 523 414 523 360 C 523 309 516 262 504 218 C 492 174 473 136 449 104 C 424 72 393 46 355 28 C 317 9 273 0 223 0 L 46 0 Z M 195 121 L 233 121 C 283 121 319 141 340 181 C 361 221 372 281 372 359 C 372 450 360 514 336 552 C 312 590 279 609 237 609 L 195 609 L 195 121 Z" unicode="D" />
<glyph horiz-adv-x="414" d="M 403 0 L 46 0 L 46 730 L 383 730 L 383 603 L 192 603 L 192 426 L 373 426 L 373 301 L 192 301 L 192 127 L 403 127 L 403 0 Z" unicode="E" />
<glyph horiz-adv-x="376" d="M 368 603 L 197 603 L 197 427 L 357 427 L 357 303 L 197 303 L 197 0 L 47 0 L 47 730 L 368 730 L 368 603 Z" unicode="F" />
<glyph horiz-adv-x="535" d="M 280 382 L 506 382 L 506 117 C 489 82 462 53 424 29 C 386 5 338 -7 279 -7 C 244 -7 211 1 181 17 C 150 33 123 56 100 88 C 77 119 59 158 46 204 C 32 250 26 304 26 365 C 26 421 31 473 43 519 C 55 565 71 604 93 636 C 115 668 141 692 172 710 C 203 727 238 736 277 736 C 337 736 385 722 419 696 C 453 669 476 631 490 581 L 372 531 C 364 555 354 576 341 592 C 327 608 309 616 287 616 C 253 616 225 597 205 559 C 185 521 175 455 175 362 C 175 266 185 199 207 162 C 229 124 255 106 286 106 C 308 106 328 109 344 117 C 360 125 371 137 379 153 L 379 272 L 280 272 L 280 382 Z" unicode="G" />
<glyph horiz-adv-x="544" d="M 498 0 L 348 0 L 348 299 L 196 299 L 196 0 L 46 0 L 46 730 L 196 730 L 196 422 L 348 422 L 348 730 L 498 730 L 498 0 Z" unicode="H" />
<glyph horiz-adv-x="251" d="M 201 0 L 50 0 L 50 730 L 201 730 L 201 0 Z" unicode="I" />
<glyph horiz-adv-x="317" d="M 273 730 L 273 182 C 273 126 256 80 224 45 C 191 9 147 -8 91 -8 C 77 -8 60 -6 41 -3 C 22 0 4 6 -12 15 L 19 134 C 23 131 29 129 37 127 C 45 125 53 124 62 124 C 80 124 95 132 107 149 C 118 166 124 188 124 215 L 124 730 L 273 730 Z" unicode="J" />
<glyph horiz-adv-x="533" d="M 543 0 L 378 0 L 218 274 L 197 248 L 197 0 L 46 0 L 46 730 L 197 730 L 197 453 L 372 730 L 525 730 L 307 407 L 543 0 Z" unicode="K" />
<glyph horiz-adv-x="370" d="M 363 0 L 46 0 L 46 730 L 196 730 L 196 127 L 363 127 L 363 0 Z" unicode="L" />
<glyph horiz-adv-x="659" d="M 613 0 L 471 0 L 471 421 L 363 143 L 298 143 L 187 421 L 187 0 L 46 0 L 46 730 L 183 730 L 331 356 L 485 730 L 613 730 L 613 0 Z" unicode="M" />
<glyph horiz-adv-x="536" d="M 490 0 L 386 0 L 186 401 L 186 0 L 46 0 L 46 730 L 152 730 L 356 329 L 355 730 L 490 730 L 490 0 Z" unicode="N" />
<glyph horiz-adv-x="567" d="M 286 -7 C 198 -7 133 25 90 91 C 47 156 26 249 26 371 C 26 484 48 573 92 639 C 136 704 199 737 281 737 C 367 737 431 705 475 641 C 519 577 541 485 541 365 C 541 249 518 158 472 92 C 426 26 364 -7 286 -7 Z M 283 109 C 319 109 345 129 362 169 C 379 209 388 276 388 372 C 388 460 379 524 361 563 C 343 601 316 621 282 621 C 245 621 219 601 203 563 C 187 525 179 459 179 365 C 179 270 187 204 205 166 C 223 128 249 109 283 109 Z" unicode="O" />
<glyph horiz-adv-x="479" d="M 46 0 L 46 730 L 267 730 C 294 730 320 724 344 714 C 368 704 389 689 407 670 C 425 651 439 628 449 601 C 459 574 465 544 465 512 C 465 445 446 391 409 349 C 371 307 324 286 266 286 L 196 286 L 196 0 L 46 0 Z M 196 397 L 237 397 C 265 397 287 406 301 425 C 315 443 322 472 322 512 C 322 548 313 574 297 592 C 281 609 260 618 235 618 L 196 618 L 196 397 Z" unicode="P" />
<glyph horiz-adv-x="566" d="M 514 -31 L 514 -162 C 465 -153 423 -133 387 -103 C 351 -73 324 -39 304 -3 C 301 -3 298 -4 295 -4 C 291 -4 288 -4 286 -4 C 200 -4 136 28 92 92 C 48 156 26 249 26 371 C 26 484 48 573 94 639 C 139 704 201 737 281 737 C 365 737 429 705 473 641 C 517 577 540 485 540 365 C 540 285 528 217 506 161 C 483 104 452 62 412 34 C 426 16 443 1 461 -9 C 479 -20 497 -27 514 -31 Z M 283 108 C 319 108 345 129 363 171 C 380 213 389 280 389 371 C 389 466 379 531 360 567 C 340 602 314 620 282 620 C 246 620 219 601 203 565 C 186 529 178 462 178 365 C 178 274 186 208 203 168 C 220 128 247 108 283 108 Z" unicode="Q" />
<glyph horiz-adv-x="485" d="M 46 0 L 46 730 L 244 730 C 301 730 348 713 385 679 C 421 645 440 594 440 525 C 440 475 429 432 409 398 C 389 364 364 343 335 335 L 331 329 L 489 0 L 340 0 L 212 281 L 184 281 L 184 0 L 46 0 Z M 184 398 L 225 398 C 248 398 267 407 283 427 C 299 447 307 474 307 509 C 307 547 299 575 284 592 C 268 609 250 618 230 618 L 184 618 L 184 398 Z" unicode="R" />
<glyph horiz-adv-x="440" d="M 219 -7 C 176 -7 138 0 104 11 C 70 23 38 47 9 83 L 92 165 C 104 145 121 129 143 118 C 164 107 185 102 205 102 C 227 102 247 109 265 124 C 282 139 291 160 291 188 C 291 216 282 239 265 257 C 248 274 219 296 177 323 C 137 348 102 378 74 413 C 46 448 32 495 32 555 C 32 583 37 608 48 630 C 58 652 73 672 91 688 C 109 704 131 716 155 724 C 179 732 205 737 232 737 C 276 737 312 729 340 715 C 368 701 390 685 406 667 L 326 582 C 315 592 302 602 286 610 C 270 618 254 622 238 622 C 220 622 204 615 188 602 C 172 589 165 571 165 548 C 165 526 172 507 185 491 C 198 475 227 453 272 426 C 324 395 362 362 386 327 C 409 292 421 247 421 191 C 421 157 415 128 403 103 C 391 78 376 57 358 41 C 339 25 317 13 293 5 C 269 -3 244 -7 219 -7 Z" unicode="S" />
<glyph horiz-adv-x="394" d="M 390 603 L 273 603 L 273 0 L 123 0 L 123 603 L 5 603 L 5 730 L 390 730 L 390 603 Z" unicode="T" />
<glyph horiz-adv-x="544" d="M 501 730 L 501 228 C 501 186 494 150 480 120 C 466 90 449 66 427 47 C 405 28 379 14 351 6 C 322 -2 293 -7 263 -7 C 233 -7 205 -2 179 5 C 152 13 129 27 109 45 C 89 63 73 88 61 118 C 49 148 43 184 43 228 L 43 730 L 192 730 L 192 221 C 192 185 198 159 212 144 C 226 129 244 122 267 122 C 289 122 308 129 322 143 C 336 157 344 183 344 221 L 344 730 L 501 730 Z" unicode="U" />
<glyph horiz-adv-x="469" d="M 473 730 L 289 -4 L 180 -4 L -3 730 L 140 730 L 238 258 L 336 730 L 473 730 Z" unicode="V" />
<glyph horiz-adv-x="703" d="M 692 730 L 544 -3 L 444 -3 L 346 451 L 247 -3 L 146 -3 L -1 730 L 139 730 L 217 267 L 299 730 L 407 730 L 487 269 L 567 730 L 692 730 Z" unicode="W" />
<glyph horiz-adv-x="471" d="M 322 0 L 228 219 L 132 0 L -1 0 L 163 372 L 10 730 L 156 730 L 237 541 L 320 730 L 453 730 L 302 387 L 467 0 L 322 0 Z" unicode="X" />
<glyph horiz-adv-x="479" d="M 489 730 L 312 303 L 312 0 L 162 0 L 162 306 L -9 730 L 150 730 L 244 451 L 351 730 L 489 730 Z" unicode="Y" />
<glyph horiz-adv-x="431" d="M 407 730 L 407 654 L 185 124 L 417 124 L 417 0 L 13 0 L 13 73 L 238 605 L 37 605 L 37 730 L 407 730 Z" unicode="Z" />
<glyph horiz-adv-x="259" d="M 245 -179 L 46 -179 L 46 730 L 245 730 L 245 612 L 177 612 L 177 -61 L 245 -61 L 245 -179 Z" unicode="[" />
<glyph horiz-adv-x="323" d="M -4 730 L 120 730 L 326 0 L 200 0 L -4 730 Z" unicode="\" />
<glyph horiz-adv-x="263" d="M 220 -179 L 19 -179 L 19 -61 L 87 -61 L 87 612 L 19 612 L 19 730 L 220 730 L 220 -179 Z" unicode="]" />
<glyph horiz-adv-x="436" d="M 420 369 L 301 369 L 217 586 L 134 369 L 17 369 L 159 730 L 277 730 L 420 369 Z" unicode="^" />
<glyph horiz-adv-x="423" d="M 423 -173 L 0 -173 L 0 -61 L 423 -61 L 423 -173 Z" unicode="_" />
<glyph horiz-adv-x="500" d="M 373 619 L 241 619 L 122 793 L 280 793 L 373 619 Z" unicode="`" />
<glyph horiz-adv-x="405" d="M 374 0 L 256 0 L 256 46 C 239 26 222 13 205 6 C 188 -1 167 -5 141 -5 C 102 -5 71 11 49 44 C 27 77 16 120 16 174 C 16 236 31 281 63 309 C 94 337 133 352 179 354 L 245 358 L 245 394 C 245 415 239 431 228 443 C 217 455 201 461 179 461 C 157 461 137 457 120 449 C 102 441 89 434 81 427 L 45 526 C 60 536 81 546 109 556 C 136 565 171 570 213 570 C 261 570 299 556 329 529 C 359 501 374 463 374 415 L 374 0 Z M 248 124 L 248 274 L 208 270 C 190 269 175 261 163 245 C 151 229 145 205 145 173 C 145 143 150 122 161 110 C 171 98 182 92 194 92 C 207 92 218 95 226 101 C 234 107 242 115 248 124 Z" unicode="a" />
<glyph horiz-adv-x="445" d="M 270 -4 C 243 -4 220 1 201 13 C 182 25 168 39 159 56 L 159 0 L 34 0 L 34 800 L 164 800 L 164 471 C 171 495 184 517 203 535 C 221 553 247 563 280 563 C 302 563 323 556 341 543 C 359 530 374 512 387 488 C 399 464 409 436 416 402 C 422 368 426 331 426 291 C 426 196 411 123 381 72 C 351 21 314 -4 270 -4 Z M 220 96 C 238 96 253 109 265 135 C 277 161 283 208 283 278 C 283 342 277 386 266 411 C 255 435 240 448 221 448 C 213 448 205 445 198 441 C 191 436 185 427 179 415 C 173 402 169 384 166 360 C 162 336 161 306 161 268 C 161 232 162 202 166 180 C 169 157 173 139 179 127 C 184 115 190 106 197 102 C 204 98 212 96 220 96 Z" unicode="b" />
<glyph horiz-adv-x="374" d="M 314 139 L 365 61 C 350 43 332 27 310 14 C 288 1 258 -5 220 -5 C 187 -5 158 2 133 17 C 107 31 86 51 69 77 C 52 102 39 132 30 167 C 21 201 17 239 17 279 C 17 317 21 353 30 388 C 38 422 51 453 68 479 C 85 505 106 525 132 541 C 158 557 188 565 222 565 C 259 565 289 557 313 541 C 337 525 355 508 368 490 L 301 413 C 293 425 283 434 273 441 C 262 447 249 451 235 451 C 212 451 194 437 181 410 C 167 382 161 342 161 288 C 161 218 170 170 189 144 C 207 118 228 105 250 105 C 264 105 277 108 288 116 C 298 123 307 131 314 139 Z" unicode="c" />
<glyph horiz-adv-x="454" d="M 185 -5 C 160 -5 137 1 117 15 C 96 29 78 48 64 72 C 50 96 39 126 31 160 C 23 194 19 232 19 272 C 19 361 34 431 65 483 C 96 535 136 561 184 561 C 209 561 231 553 251 538 C 271 523 284 505 291 484 L 291 800 L 420 800 L 420 0 L 298 0 L 298 58 C 292 42 278 28 258 15 C 238 1 213 -5 185 -5 Z M 231 96 C 251 96 266 109 277 137 C 288 164 294 213 294 283 C 294 318 292 347 289 369 C 285 391 281 408 275 420 C 269 432 263 440 255 444 C 247 448 238 451 229 451 C 209 451 193 439 182 415 C 170 391 165 345 165 278 C 165 207 170 159 182 134 C 194 108 210 96 231 96 Z" unicode="d" />
<glyph horiz-adv-x="422" d="M 215 -5 C 156 -5 108 20 72 70 C 35 120 17 188 17 275 C 17 366 35 437 72 487 C 108 537 155 563 211 563 C 276 563 325 536 358 483 C 391 429 408 351 408 247 L 154 247 C 154 207 162 174 179 146 C 195 118 220 104 253 104 C 275 104 294 110 310 122 C 326 134 340 145 351 157 L 398 89 C 390 79 381 68 369 57 C 357 46 344 36 329 27 C 313 17 296 10 277 4 C 258 -2 237 -5 215 -5 Z M 150 335 L 279 335 C 279 378 273 410 262 430 C 250 450 236 460 218 460 C 199 460 183 449 171 429 C 158 409 151 377 150 335 Z" unicode="e" />
<glyph horiz-adv-x="247" d="M 251 447 L 191 447 L 191 0 L 54 0 L 54 447 L 4 447 L 4 559 L 54 559 L 54 656 C 54 678 58 698 68 716 C 78 734 90 749 105 761 C 120 773 137 783 156 790 C 174 797 193 801 211 801 C 219 801 232 799 249 796 C 265 792 280 786 293 777 L 257 681 C 256 681 253 682 248 684 C 242 686 235 687 227 687 C 213 687 203 682 197 674 C 191 665 188 651 188 631 L 188 559 L 251 559 L 251 447 Z" unicode="f" />
<glyph horiz-adv-x="452" d="M 183 21 C 138 21 99 44 67 92 C 35 139 19 205 19 289 C 19 333 23 373 32 407 C 41 441 53 470 68 493 C 83 516 101 534 121 546 C 141 558 161 564 183 564 C 211 564 234 556 253 542 C 272 527 286 510 295 492 L 295 559 L 418 559 L 418 15 C 418 -22 411 -54 399 -80 C 386 -106 370 -128 350 -145 C 330 -161 307 -174 281 -182 C 255 -190 229 -194 203 -194 C 165 -194 132 -190 106 -182 C 79 -174 59 -165 47 -156 L 86 -62 C 100 -68 115 -73 131 -77 C 147 -81 166 -83 190 -83 C 218 -83 242 -73 261 -54 C 280 -34 290 -6 290 32 L 290 97 C 282 76 268 58 250 43 C 231 28 209 21 183 21 Z M 228 126 C 248 126 264 137 276 160 C 287 183 293 228 293 294 C 293 358 286 400 273 422 C 259 443 244 454 227 454 C 207 454 191 442 179 418 C 167 394 162 352 162 293 C 162 233 167 190 178 164 C 189 138 206 126 228 126 Z" unicode="g" />
<glyph horiz-adv-x="441" d="M 409 0 L 272 0 L 272 404 C 272 420 267 433 259 441 C 250 449 239 454 225 454 C 210 454 197 449 187 440 C 176 431 171 415 171 393 L 171 0 L 34 0 L 34 800 L 163 800 L 163 505 C 169 521 182 535 201 547 C 219 559 244 565 276 565 C 315 565 347 555 372 535 C 396 515 409 483 409 439 L 409 0 Z" unicode="h" />
<glyph horiz-adv-x="208" d="M 34 624 L 34 735 L 174 735 L 174 624 L 34 624 Z M 36 0 L 36 559 L 173 559 L 173 0 L 36 0 Z" unicode="i" />
<glyph horiz-adv-x="214" d="M 180 624 L 41 624 L 41 735 L 180 735 L 180 624 Z M 179 559 L 179 -52 C 179 -86 166 -115 142 -141 C 117 -166 84 -179 44 -179 C 24 -179 5 -176 -12 -170 C -29 -164 -40 -158 -44 -154 L -13 -64 C -10 -64 -6 -65 -1 -67 C 3 -68 9 -69 16 -69 C 23 -69 29 -66 35 -60 C 40 -54 43 -47 43 -38 L 43 559 L 179 559 Z" unicode="j" />
<glyph horiz-adv-x="421" d="M 431 0 L 287 0 L 199 199 L 170 151 L 170 0 L 34 0 L 34 800 L 163 800 L 163 322 L 283 559 L 423 559 L 292 315 L 431 0 Z" unicode="k" />
<glyph horiz-adv-x="236" d="M 33 140 L 33 800 L 169 800 L 169 158 C 169 140 171 127 177 119 C 182 111 191 107 203 107 C 207 107 210 107 214 108 C 217 108 220 109 222 110 L 238 11 C 230 6 221 2 209 0 C 197 -3 182 -5 166 -5 C 130 -5 98 7 72 33 C 46 58 33 94 33 140 Z" unicode="l" />
<glyph horiz-adv-x="671" d="M 34 0 L 34 559 L 154 559 L 154 484 C 161 513 177 534 203 547 C 228 559 255 566 285 566 C 315 566 340 559 359 546 C 377 532 389 512 393 484 L 396 484 C 404 508 419 528 441 543 C 463 558 491 566 527 566 C 558 566 584 556 606 538 C 628 519 639 489 639 447 L 639 0 L 504 0 L 504 395 C 504 418 499 434 490 443 C 480 451 468 456 454 456 C 440 456 428 451 418 441 C 408 431 403 413 403 387 L 403 0 L 269 0 L 269 399 C 269 423 264 438 255 445 C 245 452 234 456 221 456 C 207 456 195 451 184 442 C 173 433 168 415 168 389 L 168 0 L 34 0 Z" unicode="m" />
<glyph horiz-adv-x="440" d="M 408 0 L 271 0 L 271 406 C 271 421 266 433 258 441 C 250 449 239 454 225 454 C 210 454 197 449 187 440 C 176 431 171 415 171 393 L 171 0 L 34 0 L 34 559 L 156 559 L 156 493 C 164 513 179 530 201 544 C 222 558 249 565 283 565 C 320 565 350 555 373 536 C 396 517 408 487 408 445 L 408 0 Z" unicode="n" />
<glyph horiz-adv-x="441" d="M 219 -5 C 190 -5 163 0 139 12 C 114 23 93 40 75 64 C 57 87 42 117 32 153 C 22 189 17 231 17 279 C 17 368 35 438 72 489 C 109 539 157 565 215 565 C 277 565 328 542 366 497 C 404 451 424 384 424 295 C 424 200 405 126 369 74 C 332 21 282 -5 219 -5 Z M 221 100 C 241 100 257 112 267 137 C 277 162 282 211 282 285 C 282 319 280 348 278 371 C 275 393 271 411 266 424 C 260 436 254 445 246 450 C 238 455 229 458 219 458 C 199 458 184 446 174 423 C 164 400 160 354 160 285 C 160 247 161 215 164 191 C 166 167 170 148 176 135 C 181 121 187 112 195 107 C 202 102 211 100 221 100 Z" unicode="o" />
<glyph horiz-adv-x="444" d="M 34 -200 L 34 559 L 153 559 L 153 466 C 159 490 174 513 196 533 C 218 553 246 564 278 564 C 303 564 325 557 344 544 C 363 531 379 513 391 491 C 403 468 411 441 417 409 C 423 377 426 342 426 304 C 426 204 412 128 385 75 C 357 22 319 -4 271 -4 C 246 -4 224 0 205 10 C 185 20 171 33 163 50 L 163 -200 L 34 -200 Z M 217 97 C 235 97 251 109 263 133 C 275 157 281 203 281 271 C 281 334 276 379 266 407 C 256 434 240 448 219 448 C 211 448 203 445 195 441 C 187 437 181 428 176 415 C 170 402 166 383 163 359 C 159 335 158 303 158 264 C 158 228 159 199 162 177 C 165 155 169 138 175 126 C 180 114 186 107 193 103 C 200 99 208 97 217 97 Z" unicode="p" />
<glyph horiz-adv-x="453" d="M 291 -200 L 291 76 C 283 52 268 33 247 18 C 226 3 201 -4 172 -4 C 127 -4 90 19 62 67 C 33 115 19 182 19 270 C 19 374 35 449 67 495 C 99 541 137 564 182 564 C 211 564 236 555 257 538 C 277 520 292 500 301 477 L 301 559 L 420 559 L 420 -200 L 291 -200 Z M 228 96 C 238 96 247 98 255 103 C 263 108 269 117 275 131 C 280 145 284 164 287 188 C 290 212 292 243 292 281 C 292 348 286 394 274 419 C 262 443 245 456 225 456 C 206 456 191 443 179 419 C 167 394 161 346 161 275 C 161 217 167 172 179 142 C 191 111 207 96 228 96 Z" unicode="q" />
<glyph horiz-adv-x="327" d="M 335 537 L 293 418 C 283 426 274 431 266 434 C 258 437 248 439 238 439 C 223 439 208 432 193 420 C 178 407 171 382 171 346 L 171 0 L 34 0 L 34 559 L 160 559 L 160 484 C 166 505 178 524 196 540 C 214 556 234 565 256 565 C 274 565 290 562 304 556 C 317 550 327 543 335 537 Z" unicode="r" />
<glyph horiz-adv-x="344" d="M 175 -6 C 139 -6 106 1 76 16 C 46 30 23 49 9 72 L 68 156 C 80 139 95 126 111 117 C 127 107 142 103 157 103 C 171 103 183 107 193 116 C 203 124 209 137 209 154 C 209 171 201 186 186 198 C 171 210 152 223 130 238 C 103 255 79 276 58 302 C 37 328 27 365 27 414 C 27 434 30 453 38 471 C 45 489 55 506 68 520 C 81 534 97 545 115 553 C 133 561 153 566 175 566 C 205 566 233 561 258 551 C 282 541 302 529 318 516 L 273 417 C 263 425 249 434 233 442 C 217 450 202 455 188 455 C 175 455 163 451 153 445 C 143 439 138 429 138 415 C 138 400 145 387 159 377 C 173 367 194 352 222 334 C 258 310 284 284 301 257 C 317 229 326 193 326 149 C 326 121 321 97 311 77 C 301 57 288 41 273 29 C 258 17 242 8 224 2 C 206 -3 190 -6 175 -6 Z" unicode="s" />
<glyph horiz-adv-x="272" d="M 244 122 L 273 26 C 265 19 254 12 240 6 C 226 0 208 -4 184 -4 C 168 -4 152 0 136 5 C 120 11 105 21 93 33 C 80 45 70 61 62 79 C 54 97 50 118 50 142 L 50 447 L 5 447 L 5 559 L 53 559 L 53 678 L 182 687 L 182 559 L 251 559 L 251 447 L 186 447 L 186 147 C 186 136 188 128 194 122 C 199 116 206 114 215 114 C 220 114 225 114 231 116 C 236 118 240 120 244 122 Z" unicode="t" />
<glyph horiz-adv-x="441" d="M 32 559 L 169 559 L 169 157 C 169 136 173 121 182 111 C 191 101 203 97 218 97 C 232 97 244 102 254 114 C 264 125 270 145 270 174 L 270 559 L 407 559 L 407 0 L 281 0 L 281 66 C 272 46 256 29 234 15 C 211 1 185 -6 157 -6 C 124 -6 95 4 70 26 C 44 48 32 81 32 125 L 32 559 Z" unicode="u" />
<glyph horiz-adv-x="382" d="M 387 559 L 245 -2 L 138 -2 L -5 559 L 131 559 L 199 243 L 268 559 L 387 559 Z" unicode="v" />
<glyph horiz-adv-x="581" d="M 357 -2 L 292 259 L 224 -2 L 121 -2 L -1 559 L 126 559 L 193 207 L 249 459 L 340 459 L 396 208 L 464 559 L 581 559 L 458 -2 L 357 -2 Z" unicode="w" />
<glyph horiz-adv-x="384" d="M 243 0 L 183 142 L 117 0 L 4 0 L 128 273 L 7 559 L 142 559 L 198 427 L 258 559 L 377 559 L 255 296 L 381 0 L 243 0 Z" unicode="x" />
<glyph horiz-adv-x="385" d="M 390 559 L 218 -91 C 208 -125 190 -152 163 -171 C 135 -190 105 -200 71 -200 C 45 -200 23 -197 6 -191 C -10 -185 -22 -180 -28 -175 L 12 -83 C 14 -85 20 -88 30 -91 C 39 -94 48 -96 57 -96 C 69 -96 80 -91 90 -81 C 100 -71 107 -56 112 -36 L 131 47 L -5 559 L 133 559 L 201 237 L 267 559 L 390 559 Z" unicode="y" />
<glyph horiz-adv-x="354" d="M 339 559 L 339 503 L 173 111 L 343 111 L 343 0 L 11 0 L 11 43 L 182 447 L 22 447 L 22 559 L 339 559 Z" unicode="z" />
<glyph horiz-adv-x="277" d="M 259 -179 C 226 -179 196 -174 168 -165 C 140 -156 117 -144 97 -130 C 77 -116 62 -99 51 -80 C 40 -61 35 -42 35 -23 C 35 0 37 20 42 40 C 46 60 52 77 58 93 C 63 108 68 122 74 136 C 79 150 82 162 82 174 C 82 189 75 203 62 216 C 49 229 33 236 13 236 L 13 335 C 33 335 49 341 63 355 C 77 369 84 384 84 402 C 84 406 81 416 75 432 C 69 447 63 463 57 481 C 50 498 45 515 41 533 C 37 550 36 566 36 582 C 36 601 41 621 52 641 C 62 661 77 679 97 695 C 117 711 140 724 168 734 C 195 744 225 749 259 749 L 259 644 C 238 644 218 636 198 620 C 178 604 168 584 168 560 C 168 551 169 541 171 529 C 173 517 176 505 181 493 C 188 475 195 458 201 443 C 207 427 210 414 210 403 C 210 377 203 354 189 332 C 175 310 154 294 126 285 C 155 275 176 259 190 237 C 203 215 210 192 210 170 C 210 154 207 139 201 126 C 195 113 190 100 185 88 C 179 75 174 62 171 48 C 168 34 167 21 167 10 C 167 -10 176 -29 196 -47 C 215 -65 236 -74 259 -74 L 259 -179 Z" unicode="{" />
<glyph horiz-adv-x="238" d="M 184 -179 L 53 -179 L 53 730 L 184 730 L 184 -179 Z" unicode="|" />
<glyph horiz-adv-x="277" d="M 17 -179 L 17 -74 C 40 -74 61 -65 80 -47 C 99 -29 109 -10 109 10 C 109 21 107 34 104 48 C 101 62 97 75 92 88 C 86 100 80 113 75 126 C 69 139 67 154 67 170 C 67 192 73 215 86 237 C 99 259 120 275 148 285 C 120 294 100 310 87 332 C 73 354 67 377 67 403 C 67 414 70 427 76 443 C 82 458 88 475 96 493 C 100 505 104 517 106 529 C 108 541 109 551 109 560 C 109 584 99 604 79 620 C 59 636 38 644 17 644 L 17 749 C 50 749 80 744 108 734 C 135 724 158 711 178 695 C 198 679 213 661 224 641 C 235 621 241 601 241 582 C 241 566 239 550 235 533 C 231 515 226 498 220 481 C 213 463 207 447 201 432 C 195 416 193 406 193 402 C 193 384 199 369 213 355 C 226 341 243 335 263 335 L 263 236 C 243 236 226 229 214 216 C 201 203 195 189 195 174 C 195 162 197 150 203 136 C 208 122 213 108 219 93 C 225 77 230 60 235 40 C 239 20 242 0 242 -23 C 242 -42 236 -61 225 -80 C 214 -99 199 -116 179 -130 C 159 -144 136 -156 108 -165 C 80 -174 50 -179 17 -179 Z" unicode="}" />
<glyph horiz-adv-x="462" d="M 337 457 L 442 457 C 441 433 438 410 433 389 C 428 367 421 349 413 333 C 404 317 393 305 379 296 C 365 286 348 282 330 282 C 305 282 283 285 264 293 C 244 301 229 310 219 320 C 208 330 198 338 190 346 C 181 353 171 357 161 357 C 151 357 142 349 134 334 C 126 319 123 303 123 285 L 20 285 C 20 337 29 379 48 411 C 66 443 95 459 134 459 C 158 459 180 453 200 443 C 220 433 235 423 246 414 C 257 405 267 397 275 391 C 283 385 292 382 301 382 C 315 382 325 389 330 403 C 334 417 337 435 337 457 Z" unicode="~" />
<glyph horiz-adv-x="261" d="M 62 601 L 199 601 L 199 459 L 62 459 L 62 601 Z M 54 191 L 102 386 L 162 386 L 207 191 L 207 -103 L 54 -103 L 54 191 Z" unicode="¡" />
<glyph horiz-adv-x="372" d="M 365 100 C 354 89 340 78 322 68 C 304 57 279 50 249 47 L 249 -61 L 176 -61 L 176 48 C 124 56 84 81 56 122 C 28 162 15 211 15 267 C 15 293 18 319 25 344 C 32 368 42 390 56 410 C 69 430 86 446 106 460 C 126 473 149 482 176 487 L 176 591 L 249 591 L 249 489 C 276 486 298 480 316 471 C 334 462 349 453 361 443 L 316 347 C 305 355 293 361 281 365 C 268 369 254 372 238 372 C 213 372 194 363 180 345 C 166 327 159 302 159 268 C 159 226 168 196 187 179 C 205 162 226 154 250 154 C 267 154 282 156 294 161 C 306 165 316 172 325 180 L 365 100 Z" unicode="¢" />
<glyph horiz-adv-x="489" d="M 470 106 L 470 0 L 13 0 L 13 82 C 18 86 26 90 38 93 C 50 96 65 100 84 104 C 112 109 133 120 149 138 C 164 156 172 179 174 208 L 34 208 L 34 296 L 144 296 C 140 303 135 310 131 318 C 127 326 122 334 118 343 L 34 343 L 34 431 L 79 431 C 73 448 69 466 65 486 C 61 505 60 525 60 547 C 60 583 66 613 78 638 C 90 663 106 683 126 698 C 146 713 168 724 194 731 C 220 738 246 742 272 742 C 289 742 307 739 325 734 C 343 729 361 723 377 716 C 393 708 408 700 421 691 C 434 682 444 673 451 665 L 398 563 C 388 573 373 585 353 598 C 333 610 313 617 291 617 C 273 617 255 609 237 594 C 218 579 209 555 209 521 C 209 506 211 491 215 476 C 219 460 224 445 231 431 L 428 431 L 428 343 L 272 343 C 276 335 279 327 282 319 C 285 311 288 303 291 296 L 428 296 L 428 208 L 296 208 C 291 178 282 155 268 140 C 254 124 240 113 228 106 L 470 106 Z" unicode="£" />
<glyph horiz-adv-x="502" d="M 454 190 L 401 137 L 340 200 C 326 192 312 187 297 183 C 282 179 266 177 250 177 C 233 177 217 179 202 183 C 187 187 173 192 160 200 L 99 137 L 45 191 L 103 251 C 92 265 84 281 78 299 C 72 316 69 334 69 354 C 69 373 72 392 78 410 C 84 428 93 444 104 459 L 46 518 L 99 571 L 160 508 C 173 515 187 521 202 525 C 217 529 233 531 250 531 C 266 531 282 528 298 524 C 313 520 327 514 341 507 L 404 572 L 457 518 L 398 457 C 408 442 416 426 422 408 C 428 390 431 372 431 354 C 431 334 427 316 421 298 C 415 280 406 263 396 249 L 454 190 Z M 250 268 C 274 268 295 276 313 294 C 331 311 341 331 341 354 C 341 376 331 396 313 414 C 295 431 274 440 250 440 C 225 440 204 431 186 414 C 168 396 160 376 160 354 C 160 331 168 311 186 294 C 204 276 225 268 250 268 Z" unicode="¤" />
<glyph horiz-adv-x="479" d="M 447 110 L 313 110 L 313 0 L 163 0 L 163 110 L 32 110 L 32 198 L 163 198 L 163 248 L 32 248 L 32 336 L 153 336 L -5 730 L 139 730 L 241 453 L 350 730 L 485 730 L 324 336 L 447 336 L 447 248 L 313 248 L 313 198 L 447 198 L 447 110 Z" unicode="¥" />
<glyph horiz-adv-x="286" d="M 84 351 L 84 730 L 202 730 L 202 351 L 84 351 Z M 202 200 L 202 -179 L 84 -179 L 84 200 L 202 200 Z" unicode="¦" />
<glyph horiz-adv-x="570" d="M 306 -181 C 254 -181 205 -174 161 -161 C 117 -148 78 -130 46 -108 L 92 5 C 122 -15 154 -33 190 -47 C 225 -61 257 -69 285 -69 C 309 -69 327 -62 340 -50 C 352 -37 359 -19 359 3 C 359 23 353 39 341 50 C 329 61 308 73 280 86 L 209 121 C 177 135 150 147 128 159 C 105 171 86 183 72 197 C 58 211 47 227 40 245 C 33 263 30 286 30 313 C 30 343 36 369 49 390 C 62 411 79 429 100 444 C 83 457 71 474 63 494 C 55 514 52 539 52 568 C 52 595 58 619 70 641 C 82 663 98 681 119 696 C 139 710 164 722 193 730 C 221 738 252 742 286 742 C 342 742 388 733 424 717 C 460 700 488 683 509 666 L 443 562 C 418 580 393 597 369 612 C 344 626 315 634 283 634 C 255 634 234 628 218 616 C 202 604 195 587 195 567 C 195 550 202 535 218 523 C 234 511 258 498 291 486 L 379 442 C 430 420 469 397 495 373 C 521 348 535 313 535 267 C 535 235 525 207 506 185 C 486 162 463 148 437 142 C 452 132 468 115 485 91 C 501 67 510 39 510 5 C 510 -23 504 -49 494 -73 C 483 -96 469 -115 451 -131 C 433 -147 411 -159 386 -168 C 361 -176 334 -181 306 -181 Z M 330 204 C 343 206 354 212 364 220 C 373 228 378 241 378 259 C 378 276 372 291 360 305 C 348 319 324 332 288 345 L 212 384 C 200 377 190 369 183 361 C 176 352 173 340 173 324 C 173 304 179 288 192 276 C 204 264 230 250 268 236 L 330 204 Z" unicode="§" />
<glyph horiz-adv-x="500" d="M 388 620 L 278 620 L 278 781 L 388 781 L 388 620 Z M 222 620 L 112 620 L 112 781 L 222 781 L 222 620 Z" unicode="¨" />
<glyph horiz-adv-x="821" d="M 411 11 C 361 11 313 20 269 40 C 224 59 185 85 152 118 C 119 151 93 190 74 235 C 54 279 45 327 45 377 C 45 427 54 474 74 519 C 93 563 119 602 152 635 C 185 667 224 693 269 713 C 313 732 361 742 411 742 C 461 742 508 732 553 713 C 597 693 636 667 669 635 C 701 602 727 563 747 519 C 766 474 776 427 776 377 C 776 327 766 279 747 235 C 727 190 701 151 669 118 C 636 85 597 59 553 40 C 508 20 461 11 411 11 Z M 411 85 C 451 85 488 92 524 108 C 559 123 590 144 616 170 C 642 196 663 227 679 263 C 694 298 702 336 702 376 C 702 416 694 453 679 489 C 663 524 642 555 616 582 C 590 608 559 629 524 645 C 488 660 451 668 411 668 C 371 668 333 660 297 645 C 261 629 230 608 204 582 C 178 555 157 524 142 489 C 126 453 119 416 119 376 C 119 336 126 298 142 263 C 157 227 178 196 204 170 C 230 144 261 123 297 108 C 333 92 371 85 411 85 Z M 579 252 C 564 226 543 205 515 188 C 487 170 451 162 407 162 C 381 162 357 166 333 175 C 309 184 289 197 271 215 C 253 233 238 255 228 281 C 217 307 212 338 212 372 C 212 407 217 439 227 467 C 237 495 251 518 269 537 C 286 555 306 569 330 579 C 353 589 378 594 405 594 C 449 594 485 586 513 570 C 541 554 562 533 578 509 L 496 447 C 487 461 476 472 462 481 C 448 490 431 495 409 495 C 382 495 360 483 343 461 C 325 438 317 409 317 373 C 317 335 326 305 346 285 C 365 265 387 255 411 255 C 431 255 449 260 464 270 C 479 280 492 292 502 307 L 579 252 Z" unicode="©" />
<glyph horiz-adv-x="422" d="M 382 337 L 278 337 L 278 385 C 266 367 250 353 229 344 C 207 335 183 331 157 331 C 117 331 87 342 65 365 C 43 387 33 418 33 458 C 33 500 48 531 80 553 C 112 574 157 586 215 588 L 273 592 L 273 602 C 273 618 267 629 257 637 C 247 645 231 649 209 649 C 189 649 168 645 148 639 C 127 633 107 624 89 612 L 51 683 C 71 699 96 713 127 725 C 158 736 193 742 231 742 C 279 742 316 730 342 708 C 368 685 382 648 382 598 L 382 337 Z M 276 456 L 276 516 L 211 514 C 191 513 175 508 162 499 C 149 490 143 477 143 459 C 143 445 147 435 157 427 C 166 419 178 416 193 416 C 210 416 226 419 241 426 C 255 433 267 443 276 456 Z M 382 209 L 41 209 L 41 300 L 382 300 L 382 209 Z" unicode="ª" />
<glyph horiz-adv-x="480" d="M 229 101 L 25 274 L 25 353 L 229 523 L 229 389 L 144 310 L 229 238 L 229 101 Z M 452 101 L 247 274 L 247 353 L 452 523 L 452 389 L 368 310 L 452 239 L 452 101 Z" unicode="«" />
<glyph horiz-adv-x="457" d="M 427 415 L 427 162 L 317 162 L 317 307 L 28 307 L 28 415 L 427 415 Z" unicode="¬" />
<glyph horiz-adv-x="821" d="M 411 11 C 361 11 313 20 269 40 C 224 59 185 85 152 118 C 119 151 93 190 74 235 C 54 279 45 327 45 377 C 45 427 54 474 74 519 C 93 563 119 602 152 635 C 185 667 224 693 269 713 C 313 732 361 742 411 742 C 461 742 508 732 553 713 C 597 693 636 667 669 635 C 701 602 727 563 747 519 C 766 474 776 427 776 377 C 776 327 766 279 747 235 C 727 190 701 151 669 118 C 636 85 597 59 553 40 C 508 20 461 11 411 11 Z M 411 85 C 451 85 488 92 524 106 C 559 120 590 139 616 165 C 642 191 663 221 679 257 C 694 293 702 332 702 376 C 702 419 694 459 679 495 C 663 531 642 561 616 587 C 590 612 559 632 524 646 C 488 660 451 668 411 668 C 371 668 333 660 297 646 C 261 631 230 611 204 585 C 178 559 157 528 142 492 C 126 456 119 418 119 376 C 119 334 126 296 142 260 C 157 224 178 194 204 168 C 230 142 261 121 297 107 C 333 92 371 85 411 85 Z M 267 171 L 267 595 L 431 595 C 449 595 466 592 484 587 C 501 582 516 575 530 565 C 543 555 554 543 562 528 C 570 513 575 495 575 475 C 575 439 565 411 545 392 C 525 372 505 361 483 357 L 483 353 L 615 171 L 511 171 L 399 329 L 357 329 L 357 171 L 267 171 Z M 356 403 L 426 403 C 438 403 451 407 465 417 C 478 426 485 441 485 462 C 485 482 478 497 464 506 C 450 514 435 519 419 519 L 356 519 L 356 403 Z" unicode="®" />
<glyph horiz-adv-x="500" d="M 383 627 L 117 627 L 117 735 L 383 735 L 383 627 Z" unicode="¯" />
<glyph horiz-adv-x="419" d="M 209 384 C 184 384 161 388 139 398 C 117 407 98 420 82 436 C 66 452 53 471 44 493 C 34 515 30 538 30 563 C 30 587 34 610 44 632 C 53 654 66 673 82 689 C 98 705 117 718 139 728 C 161 737 184 742 209 742 C 233 742 257 737 279 728 C 301 718 320 705 336 689 C 352 673 365 654 375 632 C 384 610 389 587 389 563 C 389 538 384 515 375 493 C 365 471 352 452 336 436 C 320 420 301 407 279 398 C 257 388 233 384 209 384 Z M 209 476 C 233 476 254 484 272 501 C 290 518 299 539 299 563 C 299 587 290 607 272 625 C 254 642 233 651 209 651 C 185 651 164 642 146 625 C 128 607 120 587 120 563 C 120 539 128 518 146 501 C 164 484 185 476 209 476 Z" unicode="°" />
<glyph horiz-adv-x="455" d="M 435 115 L 435 16 L 23 16 L 23 115 L 177 115 L 177 279 L 19 279 L 19 379 L 177 379 L 177 557 L 281 557 L 281 379 L 438 379 L 438 279 L 281 279 L 281 115 L 435 115 Z" unicode="±" />
<glyph horiz-adv-x="351" d="M 325 372 L 21 372 L 21 406 L 179 568 C 185 574 191 581 195 589 C 199 596 201 605 201 616 C 201 625 197 633 191 641 C 185 649 175 653 161 653 C 145 653 134 648 128 638 C 122 628 118 616 118 604 L 17 604 C 17 644 31 676 59 702 C 87 728 126 741 175 741 C 221 741 257 731 281 711 C 305 691 317 667 317 639 C 317 612 312 590 302 573 C 292 556 282 542 271 530 L 201 459 L 325 459 L 325 372 Z" unicode="²" />
<glyph horiz-adv-x="346" d="M 233 569 C 257 564 277 553 292 537 C 307 520 315 500 315 477 C 315 465 312 453 308 440 C 303 426 295 414 283 403 C 271 391 256 382 236 374 C 216 366 191 363 161 363 C 116 363 82 368 58 379 C 34 389 16 400 4 410 L 55 467 C 65 460 77 454 92 449 C 106 443 124 441 145 441 C 171 441 190 445 200 454 C 210 463 216 475 216 490 C 216 504 208 514 194 519 C 180 523 163 526 144 526 L 75 526 L 75 600 L 140 600 C 156 600 170 602 181 608 C 192 613 198 621 198 633 C 198 643 193 651 185 656 C 176 660 164 663 148 663 C 130 663 114 660 99 654 C 84 648 72 641 64 634 L 16 689 C 26 700 43 712 67 724 C 90 736 123 742 165 742 C 204 742 236 734 262 718 C 287 702 300 679 300 649 C 300 628 293 611 279 597 C 265 583 249 573 233 569 Z" unicode="³" />
<glyph horiz-adv-x="500" d="M 127 619 L 220 793 L 377 793 L 259 619 L 127 619 Z" unicode="´" />
<glyph horiz-adv-x="581" d="M 55 -92 L 55 559 L 192 559 L 192 176 C 192 154 201 137 219 123 C 237 109 258 103 282 103 C 308 103 332 110 353 124 C 373 138 384 157 384 182 L 384 559 L 521 559 L 521 0 L 395 0 L 395 79 C 385 59 367 40 340 22 C 313 4 284 -5 254 -5 C 239 -5 224 -1 210 4 C 195 10 185 19 181 31 L 181 -92 L 55 -92 Z" unicode="µ" />
<glyph horiz-adv-x="599" d="M 558 -181 L 465 -179 L 465 621 L 407 621 L 407 -179 L 315 -179 L 315 277 L 244 277 C 214 277 186 283 159 295 C 132 307 108 323 88 343 C 67 363 50 387 38 414 C 26 441 20 470 20 500 C 20 532 25 563 37 591 C 49 619 65 643 86 664 C 107 684 133 700 163 712 C 193 724 227 730 263 730 L 558 730 L 558 -181 Z M 316 391 L 316 616 L 296 616 C 260 616 230 605 208 584 C 185 563 174 536 174 504 C 174 473 185 446 208 424 C 230 402 257 391 289 391 L 316 391 Z" unicode="¶" />
<glyph horiz-adv-x="287" d="M 213 264 L 74 264 L 74 421 L 213 421 L 213 264 Z" unicode="·" />
<glyph horiz-adv-x="500" d="M 251 -180 C 229 -180 209 -177 190 -171 C 171 -165 155 -157 142 -147 L 169 -99 C 175 -103 184 -108 196 -114 C 207 -120 219 -123 232 -123 C 240 -123 248 -120 254 -116 C 260 -112 263 -106 263 -100 C 263 -91 260 -85 254 -81 C 248 -77 241 -76 235 -76 C 230 -76 225 -76 221 -77 C 216 -78 212 -79 209 -81 L 193 -59 L 250 15 L 314 15 L 273 -38 C 297 -38 317 -43 333 -53 C 349 -63 357 -79 357 -101 C 357 -125 346 -145 326 -159 C 305 -173 280 -180 251 -180 Z" unicode="¸" />
<glyph horiz-adv-x="318" d="M 130 372 L 130 616 C 126 611 120 606 112 602 C 104 598 95 594 86 591 C 77 587 68 584 60 582 C 51 580 44 578 40 578 L 40 678 C 66 680 88 685 106 695 C 124 704 145 719 168 739 L 242 739 L 242 372 L 130 372 Z" unicode="¹" />
<glyph horiz-adv-x="395" d="M 194 330 C 172 330 150 334 130 343 C 109 351 91 364 75 382 C 59 399 47 420 37 446 C 27 471 23 500 23 533 C 23 562 27 589 37 614 C 47 639 59 661 75 679 C 91 697 109 712 130 723 C 151 733 173 739 195 739 C 244 739 286 721 320 687 C 354 652 372 604 372 543 C 372 511 367 482 357 456 C 347 430 334 407 318 389 C 302 370 283 355 261 345 C 239 335 217 330 194 330 Z M 197 420 C 219 420 237 431 249 453 C 261 475 267 504 267 540 C 267 572 261 598 250 617 C 239 635 222 645 200 645 C 176 645 158 634 146 613 C 134 592 128 563 128 525 C 128 492 134 466 146 448 C 158 429 175 420 197 420 Z M 34 209 L 34 299 L 362 299 L 362 209 L 34 209 Z" unicode="º" />
<glyph horiz-adv-x="480" d="M 28 525 L 233 352 L 233 274 L 28 104 L 28 236 L 112 316 L 28 388 L 28 525 Z M 251 525 L 455 352 L 455 274 L 251 104 L 251 236 L 335 316 L 251 388 L 251 525 Z" unicode="»" />
<glyph horiz-adv-x="712" d="M 12 0 L 12 0 Z M 102 372 L 102 616 C 98 611 92 606 84 602 C 76 598 67 594 58 591 C 49 587 40 584 32 582 C 23 580 16 578 12 578 L 12 678 C 38 680 60 685 78 695 C 96 704 117 719 140 739 L 214 739 L 214 372 L 102 372 Z M 592 730 L 242 0 L 137 0 L 487 730 L 592 730 Z M 395 81 L 395 150 L 574 363 L 646 363 L 646 154 L 700 154 L 700 81 L 646 81 L 646 1 L 547 1 L 547 81 L 395 81 Z M 487 150 L 549 150 L 549 228 L 487 150 Z" unicode="¼" />
<glyph horiz-adv-x="790" d="M 12 0 L 12 0 Z M 102 372 L 102 616 C 98 611 92 606 84 602 C 76 598 67 594 58 591 C 49 587 40 584 32 582 C 23 580 16 578 12 578 L 12 678 C 38 680 60 685 78 695 C 96 704 117 719 140 739 L 214 739 L 214 372 L 102 372 Z M 592 730 L 242 0 L 137 0 L 487 730 L 592 730 Z M 767 0 L 463 0 L 463 34 L 621 196 C 627 202 633 209 637 217 C 641 224 643 233 643 244 C 643 253 639 261 633 269 C 627 277 617 281 603 281 C 587 281 576 276 570 266 C 564 256 560 244 560 232 L 459 232 C 459 272 473 304 501 330 C 529 356 568 369 617 369 C 663 369 699 359 723 339 C 747 319 759 295 759 267 C 759 240 754 218 744 201 C 734 184 724 170 713 158 L 643 87 L 767 87 L 767 0 Z" unicode="½" />
<glyph horiz-adv-x="765" d="M 12 0 L 12 0 Z M 645 730 L 295 0 L 190 0 L 540 730 L 645 730 Z M 448 81 L 448 150 L 627 363 L 699 363 L 699 154 L 753 154 L 753 81 L 699 81 L 699 1 L 600 1 L 600 81 L 448 81 Z M 540 150 L 602 150 L 602 228 L 540 150 Z M 241 569 C 265 564 285 553 300 537 C 315 520 323 500 323 477 C 323 465 320 453 316 440 C 311 426 303 414 291 403 C 279 391 264 382 244 374 C 224 366 199 363 169 363 C 124 363 90 368 66 379 C 42 389 24 400 12 410 L 63 467 C 73 460 85 454 100 449 C 114 443 132 441 153 441 C 179 441 198 445 208 454 C 218 463 224 475 224 490 C 224 504 216 514 202 519 C 188 523 171 526 152 526 L 83 526 L 83 600 L 148 600 C 164 600 178 602 189 608 C 200 613 206 621 206 633 C 206 643 201 651 193 656 C 184 660 172 663 156 663 C 138 663 122 660 107 654 C 92 648 80 641 72 634 L 24 689 C 34 700 51 712 75 724 C 98 736 131 742 173 742 C 212 742 244 734 270 718 C 295 702 308 679 308 649 C 308 628 301 611 287 597 C 273 583 257 573 241 569 Z" unicode="¾" />
<glyph horiz-adv-x="438" d="M 153 454 L 153 601 L 303 601 L 303 454 L 153 454 Z M 218 -141 C 152 -141 102 -124 70 -90 C 37 -56 21 -12 21 41 C 21 91 31 134 53 168 C 74 202 97 236 123 270 C 136 284 146 301 153 320 C 159 339 163 357 164 373 L 298 373 C 298 340 292 310 280 284 C 268 257 251 230 231 204 C 214 183 199 161 187 139 C 174 117 168 92 168 65 C 168 40 175 20 190 5 C 205 -9 224 -17 247 -17 C 267 -17 285 -11 301 0 C 316 12 329 26 340 43 L 424 -38 C 398 -74 366 -100 330 -116 C 293 -132 256 -141 218 -141 Z" unicode="¿" />
<glyph horiz-adv-x="501" d="M 0 0 L 0 0 Z M 505 0 L 362 0 L 326 140 L 168 140 L 134 0 L -3 0 L 199 734 L 304 734 L 505 0 Z M 311 246 L 246 495 L 184 246 L 311 246 Z M 252 790 L 252 790 Z M 377 790 L 245 790 L 126 964 L 284 964 L 377 790 Z" unicode="À" />
<glyph horiz-adv-x="501" d="M 0 0 L 0 0 Z M 505 0 L 362 0 L 326 140 L 168 140 L 134 0 L -3 0 L 199 734 L 304 734 L 505 0 Z M 311 246 L 246 495 L 184 246 L 311 246 Z M 252 790 L 252 790 Z M 127 790 L 220 964 L 377 964 L 259 790 L 127 790 Z" unicode="Á" />
<glyph horiz-adv-x="501" d="M 0 0 L 0 0 Z M 505 0 L 362 0 L 326 140 L 168 140 L 134 0 L -3 0 L 199 734 L 304 734 L 505 0 Z M 311 246 L 246 495 L 184 246 L 311 246 Z M 252 791 L 252 791 Z M 410 791 L 297 791 L 252 869 L 206 791 L 95 791 L 195 964 L 310 964 L 410 791 Z" unicode="Â" />
<glyph horiz-adv-x="501" d="M 0 0 L 0 0 Z M 505 0 L 362 0 L 326 140 L 168 140 L 134 0 L -3 0 L 199 734 L 304 734 L 505 0 Z M 311 246 L 246 495 L 184 246 L 311 246 Z M 252 793 L 252 793 Z M 323 946 L 424 946 C 424 894 416 855 400 830 C 384 805 364 793 340 793 C 320 793 303 796 289 802 C 275 808 264 814 256 819 C 247 823 239 828 231 832 C 223 836 215 839 208 839 C 200 839 194 835 189 827 C 184 819 181 809 181 797 L 81 797 C 81 848 91 886 111 912 C 131 937 153 950 176 950 C 194 950 208 947 220 941 C 232 935 243 930 253 924 C 261 919 268 915 274 912 C 280 908 287 907 294 907 C 300 907 307 910 313 916 C 319 922 323 932 323 946 Z" unicode="Ã" />
<glyph horiz-adv-x="501" d="M 0 0 L 0 0 Z M 505 0 L 362 0 L 326 140 L 168 140 L 134 0 L -3 0 L 199 734 L 304 734 L 505 0 Z M 311 246 L 246 495 L 184 246 L 311 246 Z M 252 791 L 252 791 Z M 390 791 L 280 791 L 280 952 L 390 952 L 390 791 Z M 224 791 L 114 791 L 114 952 L 224 952 L 224 791 Z" unicode="Ä" />
<glyph horiz-adv-x="501" d="M 0 0 L 0 0 Z M 505 0 L 362 0 L 326 140 L 168 140 L 134 0 L -3 0 L 199 734 L 304 734 L 505 0 Z M 311 246 L 246 495 L 184 246 L 311 246 Z M 252 771 L 252 771 Z M 252 771 C 217 771 187 783 163 808 C 138 832 126 862 126 897 C 126 931 138 961 163 986 C 187 1010 217 1023 252 1023 C 287 1023 317 1010 342 986 C 366 961 379 931 379 897 C 379 862 366 832 342 808 C 317 783 287 771 252 771 Z M 253 843 C 267 843 280 848 290 859 C 300 869 305 882 305 897 C 305 911 300 924 290 935 C 280 945 267 951 253 951 C 238 951 225 945 215 935 C 205 924 200 911 200 897 C 200 882 205 869 215 859 C 225 848 238 843 253 843 Z" unicode="Å" />
<glyph horiz-adv-x="739" d="M 729 0 L 379 0 L 379 150 L 197 150 L 136 0 L -3 0 L 285 730 L 709 730 L 709 603 L 517 603 L 517 426 L 698 426 L 698 301 L 517 301 L 517 127 L 729 127 L 729 0 Z M 379 263 L 379 637 L 235 263 L 379 263 Z" unicode="Æ" />
<glyph horiz-adv-x="528" d="M 26 0 L 26 0 Z M 279 -7 C 202 -7 141 24 95 86 C 49 148 26 241 26 366 C 26 480 47 571 90 637 C 133 703 197 737 281 737 C 346 737 395 720 429 686 C 463 652 486 607 498 550 L 369 519 C 361 547 351 571 339 589 C 327 607 308 617 284 617 C 267 617 252 613 238 605 C 224 597 213 584 204 565 C 194 545 187 519 182 487 C 177 454 175 413 175 363 C 175 312 178 270 185 238 C 191 205 200 179 212 161 C 223 142 236 129 250 122 C 264 115 279 112 294 112 C 322 112 344 121 358 139 C 372 157 383 181 392 212 L 506 172 C 488 112 460 67 422 37 C 383 7 335 -7 279 -7 Z M 270 0 L 270 0 Z M 272 -180 C 250 -180 230 -177 211 -171 C 192 -165 176 -157 163 -147 L 190 -99 C 196 -103 205 -108 217 -114 C 228 -120 240 -123 253 -123 C 261 -123 269 -120 275 -116 C 281 -112 284 -106 284 -100 C 284 -91 281 -85 275 -81 C 269 -77 262 -76 256 -76 C 251 -76 246 -76 242 -77 C 237 -78 233 -79 230 -81 L 214 -59 L 271 15 L 335 15 L 294 -38 C 318 -38 338 -43 354 -53 C 370 -63 378 -79 378 -101 C 378 -125 367 -145 347 -159 C 326 -173 301 -180 272 -180 Z" unicode="Ç" />
<glyph horiz-adv-x="414" d="M 46 0 L 46 0 Z M 403 0 L 46 0 L 46 730 L 383 730 L 383 603 L 192 603 L 192 426 L 373 426 L 373 301 L 192 301 L 192 127 L 403 127 L 403 0 Z M 215 790 L 215 790 Z M 340 790 L 208 790 L 89 964 L 247 964 L 340 790 Z" unicode="È" />
<glyph horiz-adv-x="414" d="M 46 0 L 46 0 Z M 403 0 L 46 0 L 46 730 L 383 730 L 383 603 L 192 603 L 192 426 L 373 426 L 373 301 L 192 301 L 192 127 L 403 127 L 403 0 Z M 215 790 L 215 790 Z M 90 790 L 183 964 L 340 964 L 222 790 L 90 790 Z" unicode="É" />
<glyph horiz-adv-x="414" d="M 46 0 L 46 0 Z M 403 0 L 46 0 L 46 730 L 383 730 L 383 603 L 192 603 L 192 426 L 373 426 L 373 301 L 192 301 L 192 127 L 403 127 L 403 0 Z M 215 791 L 215 791 Z M 373 791 L 260 791 L 215 869 L 169 791 L 58 791 L 158 964 L 273 964 L 373 791 Z" unicode="Ê" />
<glyph horiz-adv-x="414" d="M 46 0 L 46 0 Z M 403 0 L 46 0 L 46 730 L 383 730 L 383 603 L 192 603 L 192 426 L 373 426 L 373 301 L 192 301 L 192 127 L 403 127 L 403 0 Z M 215 791 L 215 791 Z M 353 791 L 243 791 L 243 952 L 353 952 L 353 791 Z M 187 791 L 77 791 L 77 952 L 187 952 L 187 791 Z" unicode="Ë" />
<glyph horiz-adv-x="251" d="M 0 0 L 0 0 Z M 201 0 L 50 0 L 50 730 L 201 730 L 201 0 Z M 125 790 L 125 790 Z M 250 790 L 118 790 L -1 964 L 157 964 L 250 790 Z" unicode="Ì" />
<glyph horiz-adv-x="251" d="M 0 0 L 0 0 Z M 201 0 L 50 0 L 50 730 L 201 730 L 201 0 Z M 125 790 L 125 790 Z M 0 790 L 93 964 L 250 964 L 132 790 L 0 790 Z" unicode="Í" />
<glyph horiz-adv-x="251" d="M 0 0 L 0 0 Z M 201 0 L 50 0 L 50 730 L 201 730 L 201 0 Z M 125 791 L 125 791 Z M 283 791 L 170 791 L 125 869 L 79 791 L -32 791 L 68 964 L 183 964 L 283 791 Z" unicode="Î" />
<glyph horiz-adv-x="251" d="M 0 0 L 0 0 Z M 201 0 L 50 0 L 50 730 L 201 730 L 201 0 Z M 125 791 L 125 791 Z M 263 791 L 153 791 L 153 952 L 263 952 L 263 791 Z M 97 791 L -13 791 L -13 952 L 97 952 L 97 791 Z" unicode="Ï" />
<glyph horiz-adv-x="550" d="M 519 360 C 519 309 512 262 500 218 C 488 174 469 136 445 104 C 420 72 389 46 351 28 C 313 9 269 0 219 0 L 42 0 L 42 301 L 8 301 L 8 413 L 42 413 L 42 730 L 228 730 C 275 730 317 721 353 703 C 389 685 420 659 444 627 C 468 595 487 556 500 510 C 512 464 519 414 519 360 Z M 191 116 L 229 116 C 279 116 315 136 336 178 C 357 219 368 279 368 358 C 368 450 356 516 332 555 C 308 594 275 614 233 614 L 191 614 L 191 413 L 279 413 L 279 301 L 191 301 L 191 116 Z" unicode="Ð" />
<glyph horiz-adv-x="536" d="M 46 0 L 46 0 Z M 490 0 L 386 0 L 186 401 L 186 0 L 46 0 L 46 730 L 152 730 L 356 329 L 355 730 L 490 730 L 490 0 Z M 269 793 L 269 793 Z M 340 946 L 441 946 C 441 894 433 855 417 830 C 401 805 381 793 357 793 C 337 793 320 796 306 802 C 292 808 281 814 273 819 C 264 823 256 828 248 832 C 240 836 232 839 225 839 C 217 839 211 835 206 827 C 201 819 198 809 198 797 L 98 797 C 98 848 108 886 128 912 C 148 937 170 950 193 950 C 211 950 225 947 237 941 C 249 935 260 930 270 924 C 278 919 285 915 291 912 C 297 908 304 907 311 907 C 317 907 324 910 330 916 C 336 922 340 932 340 946 Z" unicode="Ñ" />
<glyph horiz-adv-x="567" d="M 26 0 L 26 0 Z M 286 -7 C 198 -7 133 25 90 91 C 47 156 26 249 26 371 C 26 484 48 573 92 639 C 136 704 199 737 281 737 C 367 737 431 705 475 641 C 519 577 541 485 541 365 C 541 249 518 158 472 92 C 426 26 364 -7 286 -7 Z M 283 109 C 319 109 345 129 362 169 C 379 209 388 276 388 372 C 388 460 379 524 361 563 C 343 601 316 621 282 621 C 245 621 219 601 203 563 C 187 525 179 459 179 365 C 179 270 187 204 205 166 C 223 128 249 109 283 109 Z M 283 790 L 283 790 Z M 408 790 L 276 790 L 157 964 L 315 964 L 408 790 Z" unicode="Ò" />
<glyph horiz-adv-x="567" d="M 26 0 L 26 0 Z M 286 -7 C 198 -7 133 25 90 91 C 47 156 26 249 26 371 C 26 484 48 573 92 639 C 136 704 199 737 281 737 C 367 737 431 705 475 641 C 519 577 541 485 541 365 C 541 249 518 158 472 92 C 426 26 364 -7 286 -7 Z M 283 109 C 319 109 345 129 362 169 C 379 209 388 276 388 372 C 388 460 379 524 361 563 C 343 601 316 621 282 621 C 245 621 219 601 203 563 C 187 525 179 459 179 365 C 179 270 187 204 205 166 C 223 128 249 109 283 109 Z M 283 790 L 283 790 Z M 158 790 L 251 964 L 408 964 L 290 790 L 158 790 Z" unicode="Ó" />
<glyph horiz-adv-x="567" d="M 26 0 L 26 0 Z M 286 -7 C 198 -7 133 25 90 91 C 47 156 26 249 26 371 C 26 484 48 573 92 639 C 136 704 199 737 281 737 C 367 737 431 705 475 641 C 519 577 541 485 541 365 C 541 249 518 158 472 92 C 426 26 364 -7 286 -7 Z M 283 109 C 319 109 345 129 362 169 C 379 209 388 276 388 372 C 388 460 379 524 361 563 C 343 601 316 621 282 621 C 245 621 219 601 203 563 C 187 525 179 459 179 365 C 179 270 187 204 205 166 C 223 128 249 109 283 109 Z M 283 791 L 283 791 Z M 441 791 L 328 791 L 283 869 L 237 791 L 126 791 L 226 964 L 341 964 L 441 791 Z" unicode="Ô" />
<glyph horiz-adv-x="567" d="M 26 0 L 26 0 Z M 286 -7 C 198 -7 133 25 90 91 C 47 156 26 249 26 371 C 26 484 48 573 92 639 C 136 704 199 737 281 737 C 367 737 431 705 475 641 C 519 577 541 485 541 365 C 541 249 518 158 472 92 C 426 26 364 -7 286 -7 Z M 283 109 C 319 109 345 129 362 169 C 379 209 388 276 388 372 C 388 460 379 524 361 563 C 343 601 316 621 282 621 C 245 621 219 601 203 563 C 187 525 179 459 179 365 C 179 270 187 204 205 166 C 223 128 249 109 283 109 Z M 283 793 L 283 793 Z M 354 946 L 455 946 C 455 894 447 855 431 830 C 415 805 395 793 371 793 C 351 793 334 796 320 802 C 306 808 295 814 287 819 C 278 823 270 828 262 832 C 254 836 246 839 239 839 C 231 839 225 835 220 827 C 215 819 212 809 212 797 L 112 797 C 112 848 122 886 142 912 C 162 937 184 950 207 950 C 225 950 239 947 251 941 C 263 935 274 930 284 924 C 292 919 299 915 305 912 C 311 908 318 907 325 907 C 331 907 338 910 344 916 C 350 922 354 932 354 946 Z" unicode="Õ" />
<glyph horiz-adv-x="567" d="M 26 0 L 26 0 Z M 286 -7 C 198 -7 133 25 90 91 C 47 156 26 249 26 371 C 26 484 48 573 92 639 C 136 704 199 737 281 737 C 367 737 431 705 475 641 C 519 577 541 485 541 365 C 541 249 518 158 472 92 C 426 26 364 -7 286 -7 Z M 283 109 C 319 109 345 129 362 169 C 379 209 388 276 388 372 C 388 460 379 524 361 563 C 343 601 316 621 282 621 C 245 621 219 601 203 563 C 187 525 179 459 179 365 C 179 270 187 204 205 166 C 223 128 249 109 283 109 Z M 283 791 L 283 791 Z M 421 791 L 311 791 L 311 952 L 421 952 L 421 791 Z M 255 791 L 145 791 L 145 952 L 255 952 L 255 791 Z" unicode="Ö" />
<glyph horiz-adv-x="455" d="M 105 133 L 35 203 L 157 325 L 36 446 L 106 518 L 227 396 L 349 518 L 420 446 L 298 325 L 420 204 L 350 131 L 227 256 L 105 133 Z" unicode="×" />
<glyph horiz-adv-x="567" d="M 286 -7 C 250 -7 219 -1 191 9 C 163 20 138 36 118 57 L 72 -13 L 10 27 L 72 122 C 56 152 45 188 37 230 C 29 272 26 319 26 371 C 26 484 48 573 92 639 C 136 704 199 737 281 737 C 313 737 343 732 369 723 C 395 714 419 701 440 683 L 491 760 L 553 721 L 488 622 C 505 591 518 554 527 511 C 536 467 541 419 541 365 C 541 249 518 158 472 92 C 426 26 364 -7 286 -7 Z M 179 365 C 179 351 179 337 179 324 C 179 311 180 299 181 288 L 361 563 C 352 583 341 597 328 607 C 314 616 299 621 282 621 C 245 621 219 601 203 563 C 187 525 179 459 179 365 Z M 388 372 C 388 388 387 404 387 420 C 386 436 385 450 384 463 L 199 181 C 207 155 219 137 233 126 C 247 114 263 109 283 109 C 319 109 345 129 362 169 C 379 209 388 276 388 372 Z" unicode="Ø" />
<glyph horiz-adv-x="544" d="M 43 0 L 43 0 Z M 501 730 L 501 228 C 501 186 494 150 480 120 C 466 90 449 66 427 47 C 405 28 379 14 351 6 C 322 -2 293 -7 263 -7 C 233 -7 205 -2 179 5 C 152 13 129 27 109 45 C 89 63 73 88 61 118 C 49 148 43 184 43 228 L 43 730 L 192 730 L 192 221 C 192 185 198 159 212 144 C 226 129 244 122 267 122 C 289 122 308 129 322 143 C 336 157 344 183 344 221 L 344 730 L 501 730 Z M 270 790 L 270 790 Z M 395 790 L 263 790 L 144 964 L 302 964 L 395 790 Z" unicode="Ù" />
<glyph horiz-adv-x="544" d="M 43 0 L 43 0 Z M 501 730 L 501 228 C 501 186 494 150 480 120 C 466 90 449 66 427 47 C 405 28 379 14 351 6 C 322 -2 293 -7 263 -7 C 233 -7 205 -2 179 5 C 152 13 129 27 109 45 C 89 63 73 88 61 118 C 49 148 43 184 43 228 L 43 730 L 192 730 L 192 221 C 192 185 198 159 212 144 C 226 129 244 122 267 122 C 289 122 308 129 322 143 C 336 157 344 183 344 221 L 344 730 L 501 730 Z M 270 790 L 270 790 Z M 145 790 L 238 964 L 395 964 L 277 790 L 145 790 Z" unicode="Ú" />
<glyph horiz-adv-x="544" d="M 43 0 L 43 0 Z M 501 730 L 501 228 C 501 186 494 150 480 120 C 466 90 449 66 427 47 C 405 28 379 14 351 6 C 322 -2 293 -7 263 -7 C 233 -7 205 -2 179 5 C 152 13 129 27 109 45 C 89 63 73 88 61 118 C 49 148 43 184 43 228 L 43 730 L 192 730 L 192 221 C 192 185 198 159 212 144 C 226 129 244 122 267 122 C 289 122 308 129 322 143 C 336 157 344 183 344 221 L 344 730 L 501 730 Z M 270 791 L 270 791 Z M 428 791 L 315 791 L 270 869 L 224 791 L 113 791 L 213 964 L 328 964 L 428 791 Z" unicode="Û" />
<glyph horiz-adv-x="544" d="M 43 0 L 43 0 Z M 501 730 L 501 228 C 501 186 494 150 480 120 C 466 90 449 66 427 47 C 405 28 379 14 351 6 C 322 -2 293 -7 263 -7 C 233 -7 205 -2 179 5 C 152 13 129 27 109 45 C 89 63 73 88 61 118 C 49 148 43 184 43 228 L 43 730 L 192 730 L 192 221 C 192 185 198 159 212 144 C 226 129 244 122 267 122 C 289 122 308 129 322 143 C 336 157 344 183 344 221 L 344 730 L 501 730 Z M 270 791 L 270 791 Z M 408 791 L 298 791 L 298 952 L 408 952 L 408 791 Z M 242 791 L 132 791 L 132 952 L 242 952 L 242 791 Z" unicode="Ü" />
<glyph horiz-adv-x="479" d="M 0 0 L 0 0 Z M 489 730 L 312 303 L 312 0 L 162 0 L 162 306 L -9 730 L 150 730 L 244 451 L 351 730 L 489 730 Z M 244 790 L 244 790 Z M 119 790 L 212 964 L 369 964 L 251 790 L 119 790 Z" unicode="Ý" />
<glyph horiz-adv-x="475" d="M 46 0 L 46 730 L 196 730 L 196 613 L 255 613 C 284 613 311 607 336 597 C 361 587 383 572 401 552 C 419 532 434 508 444 480 C 454 452 460 420 460 385 C 460 311 439 253 399 211 C 359 169 308 148 246 148 L 196 148 L 196 0 L 46 0 Z M 192 265 L 243 265 C 267 265 286 275 300 296 C 314 316 322 346 322 384 C 322 420 313 447 297 466 C 281 484 262 494 242 494 L 192 494 L 192 265 Z" unicode="Þ" />
<glyph horiz-adv-x="543" d="M 382 -6 C 346 -6 313 1 284 16 C 255 31 233 50 218 73 L 277 155 C 290 138 304 125 319 116 C 334 107 349 103 363 103 C 375 103 387 107 397 117 C 407 126 412 138 412 154 C 412 173 403 189 387 203 C 370 216 351 230 330 246 C 304 264 281 285 262 307 C 242 329 233 364 233 410 C 233 442 241 471 257 495 C 273 519 293 536 316 547 C 320 549 325 555 331 565 C 336 574 340 588 342 607 C 342 637 333 658 317 670 C 301 682 283 688 263 688 C 240 688 221 680 206 664 C 190 648 183 622 183 586 L 183 0 L 45 0 L 45 596 C 45 663 64 714 102 749 C 140 784 192 802 258 802 C 319 802 369 784 407 748 C 445 712 464 663 464 601 C 464 559 456 526 442 501 C 428 476 412 461 396 457 C 384 456 372 452 362 446 C 351 440 346 429 346 415 C 346 399 353 385 368 375 C 382 364 404 348 432 328 C 462 305 485 280 502 253 C 519 226 528 192 528 150 C 528 122 523 98 514 78 C 504 58 492 41 478 29 C 464 17 448 8 431 2 C 413 -3 397 -6 382 -6 Z" unicode="ß" />
<glyph horiz-adv-x="405" d="M 16 0 L 16 0 Z M 374 0 L 256 0 L 256 46 C 239 26 222 13 205 6 C 188 -1 167 -5 141 -5 C 102 -5 71 11 49 44 C 27 77 16 120 16 174 C 16 236 31 281 63 309 C 94 337 133 352 179 354 L 245 358 L 245 394 C 245 415 239 431 228 443 C 217 455 201 461 179 461 C 157 461 137 457 120 449 C 102 441 89 434 81 427 L 45 526 C 60 536 81 546 109 556 C 136 565 171 570 213 570 C 261 570 299 556 329 529 C 359 501 374 463 374 415 L 374 0 Z M 248 124 L 248 274 L 208 270 C 190 269 175 261 163 245 C 151 229 145 205 145 173 C 145 143 150 122 161 110 C 171 98 182 92 194 92 C 207 92 218 95 226 101 C 234 107 242 115 248 124 Z M 204 619 L 204 619 Z M 329 619 L 197 619 L 78 793 L 236 793 L 329 619 Z" unicode="à" />
<glyph horiz-adv-x="405" d="M 16 0 L 16 0 Z M 374 0 L 256 0 L 256 46 C 239 26 222 13 205 6 C 188 -1 167 -5 141 -5 C 102 -5 71 11 49 44 C 27 77 16 120 16 174 C 16 236 31 281 63 309 C 94 337 133 352 179 354 L 245 358 L 245 394 C 245 415 239 431 228 443 C 217 455 201 461 179 461 C 157 461 137 457 120 449 C 102 441 89 434 81 427 L 45 526 C 60 536 81 546 109 556 C 136 565 171 570 213 570 C 261 570 299 556 329 529 C 359 501 374 463 374 415 L 374 0 Z M 248 124 L 248 274 L 208 270 C 190 269 175 261 163 245 C 151 229 145 205 145 173 C 145 143 150 122 161 110 C 171 98 182 92 194 92 C 207 92 218 95 226 101 C 234 107 242 115 248 124 Z M 204 619 L 204 619 Z M 79 619 L 172 793 L 329 793 L 211 619 L 79 619 Z" unicode="á" />
<glyph horiz-adv-x="405" d="M 16 0 L 16 0 Z M 374 0 L 256 0 L 256 46 C 239 26 222 13 205 6 C 188 -1 167 -5 141 -5 C 102 -5 71 11 49 44 C 27 77 16 120 16 174 C 16 236 31 281 63 309 C 94 337 133 352 179 354 L 245 358 L 245 394 C 245 415 239 431 228 443 C 217 455 201 461 179 461 C 157 461 137 457 120 449 C 102 441 89 434 81 427 L 45 526 C 60 536 81 546 109 556 C 136 565 171 570 213 570 C 261 570 299 556 329 529 C 359 501 374 463 374 415 L 374 0 Z M 248 124 L 248 274 L 208 270 C 190 269 175 261 163 245 C 151 229 145 205 145 173 C 145 143 150 122 161 110 C 171 98 182 92 194 92 C 207 92 218 95 226 101 C 234 107 242 115 248 124 Z M 204 620 L 204 620 Z M 362 620 L 249 620 L 204 698 L 158 620 L 47 620 L 147 793 L 262 793 L 362 620 Z" unicode="â" />
<glyph horiz-adv-x="405" d="M 16 0 L 16 0 Z M 374 0 L 256 0 L 256 46 C 239 26 222 13 205 6 C 188 -1 167 -5 141 -5 C 102 -5 71 11 49 44 C 27 77 16 120 16 174 C 16 236 31 281 63 309 C 94 337 133 352 179 354 L 245 358 L 245 394 C 245 415 239 431 228 443 C 217 455 201 461 179 461 C 157 461 137 457 120 449 C 102 441 89 434 81 427 L 45 526 C 60 536 81 546 109 556 C 136 565 171 570 213 570 C 261 570 299 556 329 529 C 359 501 374 463 374 415 L 374 0 Z M 248 124 L 248 274 L 208 270 C 190 269 175 261 163 245 C 151 229 145 205 145 173 C 145 143 150 122 161 110 C 171 98 182 92 194 92 C 207 92 218 95 226 101 C 234 107 242 115 248 124 Z M 204 622 L 204 622 Z M 275 775 L 376 775 C 376 723 368 684 352 659 C 336 634 316 622 292 622 C 272 622 255 625 241 631 C 227 637 216 643 208 648 C 199 652 191 657 183 661 C 175 665 167 668 160 668 C 152 668 146 664 141 656 C 136 648 133 638 133 626 L 33 626 C 33 677 43 715 63 741 C 83 766 105 779 128 779 C 146 779 160 776 172 770 C 184 764 195 759 205 753 C 213 748 220 744 226 741 C 232 737 239 736 246 736 C 252 736 259 739 265 745 C 271 751 275 761 275 775 Z" unicode="ã" />
<glyph horiz-adv-x="405" d="M 16 0 L 16 0 Z M 374 0 L 256 0 L 256 46 C 239 26 222 13 205 6 C 188 -1 167 -5 141 -5 C 102 -5 71 11 49 44 C 27 77 16 120 16 174 C 16 236 31 281 63 309 C 94 337 133 352 179 354 L 245 358 L 245 394 C 245 415 239 431 228 443 C 217 455 201 461 179 461 C 157 461 137 457 120 449 C 102 441 89 434 81 427 L 45 526 C 60 536 81 546 109 556 C 136 565 171 570 213 570 C 261 570 299 556 329 529 C 359 501 374 463 374 415 L 374 0 Z M 248 124 L 248 274 L 208 270 C 190 269 175 261 163 245 C 151 229 145 205 145 173 C 145 143 150 122 161 110 C 171 98 182 92 194 92 C 207 92 218 95 226 101 C 234 107 242 115 248 124 Z M 204 620 L 204 620 Z M 342 620 L 232 620 L 232 781 L 342 781 L 342 620 Z M 176 620 L 66 620 L 66 781 L 176 781 L 176 620 Z" unicode="ä" />
<glyph horiz-adv-x="405" d="M 16 0 L 16 0 Z M 374 0 L 256 0 L 256 46 C 239 26 222 13 205 6 C 188 -1 167 -5 141 -5 C 102 -5 71 11 49 44 C 27 77 16 120 16 174 C 16 236 31 281 63 309 C 94 337 133 352 179 354 L 245 358 L 245 394 C 245 415 239 431 228 443 C 217 455 201 461 179 461 C 157 461 137 457 120 449 C 102 441 89 434 81 427 L 45 526 C 60 536 81 546 109 556 C 136 565 171 570 213 570 C 261 570 299 556 329 529 C 359 501 374 463 374 415 L 374 0 Z M 248 124 L 248 274 L 208 270 C 190 269 175 261 163 245 C 151 229 145 205 145 173 C 145 143 150 122 161 110 C 171 98 182 92 194 92 C 207 92 218 95 226 101 C 234 107 242 115 248 124 Z M 204 600 L 204 600 Z M 204 600 C 169 600 139 612 115 637 C 90 661 78 691 78 726 C 78 760 90 790 115 815 C 139 839 169 852 204 852 C 239 852 269 839 294 815 C 318 790 331 760 331 726 C 331 691 318 661 294 637 C 269 612 239 600 204 600 Z M 205 672 C 219 672 232 677 242 688 C 252 698 257 711 257 726 C 257 740 252 753 242 764 C 232 774 219 780 205 780 C 190 780 177 774 167 764 C 157 753 152 740 152 726 C 152 711 157 698 167 688 C 177 677 190 672 205 672 Z" unicode="å" />
<glyph horiz-adv-x="636" d="M 431 -5 C 395 -5 366 3 345 20 C 324 37 308 54 298 71 C 285 47 266 28 241 15 C 215 1 186 -5 154 -5 C 117 -5 85 11 58 45 C 30 78 17 121 17 173 C 17 235 32 280 63 308 C 94 336 133 352 179 354 L 245 357 L 245 384 C 245 412 239 432 227 444 C 215 455 198 461 176 461 C 154 461 134 456 116 446 C 98 436 86 428 78 423 L 42 519 C 58 530 77 540 101 550 C 125 560 157 565 199 565 C 225 565 250 560 272 550 C 294 540 308 527 314 511 C 322 523 337 535 357 546 C 377 557 401 563 430 563 C 492 563 539 536 572 484 C 605 431 622 353 622 249 L 373 249 C 373 209 380 174 395 146 C 409 117 433 103 466 103 C 488 103 507 109 523 121 C 539 133 553 144 565 156 L 614 89 C 606 79 596 68 585 57 C 573 45 560 35 545 26 C 530 17 513 10 494 4 C 475 -2 454 -5 431 -5 Z M 370 335 L 493 335 C 493 376 488 407 478 428 C 468 449 454 460 436 460 C 418 460 402 449 390 428 C 378 407 371 376 370 335 Z M 194 92 C 207 92 219 96 229 104 C 239 112 246 125 248 143 L 248 272 L 207 269 C 189 268 175 260 163 245 C 151 229 145 205 145 173 C 145 143 150 122 161 110 C 172 98 183 92 194 92 Z" unicode="æ" />
<glyph horiz-adv-x="374" d="M 17 0 L 17 0 Z M 314 139 L 365 61 C 350 43 332 27 310 14 C 288 1 258 -5 220 -5 C 187 -5 158 2 133 17 C 107 31 86 51 69 77 C 52 102 39 132 30 167 C 21 201 17 239 17 279 C 17 317 21 353 30 388 C 38 422 51 453 68 479 C 85 505 106 525 132 541 C 158 557 188 565 222 565 C 259 565 289 557 313 541 C 337 525 355 508 368 490 L 301 413 C 293 425 283 434 273 441 C 262 447 249 451 235 451 C 212 451 194 437 181 410 C 167 382 161 342 161 288 C 161 218 170 170 189 144 C 207 118 228 105 250 105 C 264 105 277 108 288 116 C 298 123 307 131 314 139 Z M 203 0 L 203 0 Z M 205 -180 C 183 -180 163 -177 144 -171 C 125 -165 109 -157 96 -147 L 123 -99 C 129 -103 138 -108 150 -114 C 161 -120 173 -123 186 -123 C 194 -123 202 -120 208 -116 C 214 -112 217 -106 217 -100 C 217 -91 214 -85 208 -81 C 202 -77 195 -76 189 -76 C 184 -76 179 -76 175 -77 C 170 -78 166 -79 163 -81 L 147 -59 L 204 15 L 268 15 L 227 -38 C 251 -38 271 -43 287 -53 C 303 -63 311 -79 311 -101 C 311 -125 300 -145 280 -159 C 259 -173 234 -180 205 -180 Z" unicode="ç" />
<glyph horiz-adv-x="422" d="M 17 0 L 17 0 Z M 215 -5 C 156 -5 108 20 72 70 C 35 120 17 188 17 275 C 17 366 35 437 72 487 C 108 537 155 563 211 563 C 276 563 325 536 358 483 C 391 429 408 351 408 247 L 154 247 C 154 207 162 174 179 146 C 195 118 220 104 253 104 C 275 104 294 110 310 122 C 326 134 340 145 351 157 L 398 89 C 390 79 381 68 369 57 C 357 46 344 36 329 27 C 313 17 296 10 277 4 C 258 -2 237 -5 215 -5 Z M 150 335 L 279 335 C 279 378 273 410 262 430 C 250 450 236 460 218 460 C 199 460 183 449 171 429 C 158 409 151 377 150 335 Z M 216 619 L 216 619 Z M 341 619 L 209 619 L 90 793 L 248 793 L 341 619 Z" unicode="è" />
<glyph horiz-adv-x="422" d="M 17 0 L 17 0 Z M 215 -5 C 156 -5 108 20 72 70 C 35 120 17 188 17 275 C 17 366 35 437 72 487 C 108 537 155 563 211 563 C 276 563 325 536 358 483 C 391 429 408 351 408 247 L 154 247 C 154 207 162 174 179 146 C 195 118 220 104 253 104 C 275 104 294 110 310 122 C 326 134 340 145 351 157 L 398 89 C 390 79 381 68 369 57 C 357 46 344 36 329 27 C 313 17 296 10 277 4 C 258 -2 237 -5 215 -5 Z M 150 335 L 279 335 C 279 378 273 410 262 430 C 250 450 236 460 218 460 C 199 460 183 449 171 429 C 158 409 151 377 150 335 Z M 216 619 L 216 619 Z M 91 619 L 184 793 L 341 793 L 223 619 L 91 619 Z" unicode="é" />
<glyph horiz-adv-x="422" d="M 17 0 L 17 0 Z M 215 -5 C 156 -5 108 20 72 70 C 35 120 17 188 17 275 C 17 366 35 437 72 487 C 108 537 155 563 211 563 C 276 563 325 536 358 483 C 391 429 408 351 408 247 L 154 247 C 154 207 162 174 179 146 C 195 118 220 104 253 104 C 275 104 294 110 310 122 C 326 134 340 145 351 157 L 398 89 C 390 79 381 68 369 57 C 357 46 344 36 329 27 C 313 17 296 10 277 4 C 258 -2 237 -5 215 -5 Z M 150 335 L 279 335 C 279 378 273 410 262 430 C 250 450 236 460 218 460 C 199 460 183 449 171 429 C 158 409 151 377 150 335 Z M 216 620 L 216 620 Z M 374 620 L 261 620 L 216 698 L 170 620 L 59 620 L 159 793 L 274 793 L 374 620 Z" unicode="ê" />
<glyph horiz-adv-x="422" d="M 17 0 L 17 0 Z M 215 -5 C 156 -5 108 20 72 70 C 35 120 17 188 17 275 C 17 366 35 437 72 487 C 108 537 155 563 211 563 C 276 563 325 536 358 483 C 391 429 408 351 408 247 L 154 247 C 154 207 162 174 179 146 C 195 118 220 104 253 104 C 275 104 294 110 310 122 C 326 134 340 145 351 157 L 398 89 C 390 79 381 68 369 57 C 357 46 344 36 329 27 C 313 17 296 10 277 4 C 258 -2 237 -5 215 -5 Z M 150 335 L 279 335 C 279 378 273 410 262 430 C 250 450 236 460 218 460 C 199 460 183 449 171 429 C 158 409 151 377 150 335 Z M 216 620 L 216 620 Z M 354 620 L 244 620 L 244 781 L 354 781 L 354 620 Z M 188 620 L 78 620 L 78 781 L 188 781 L 188 620 Z" unicode="ë" />
<glyph horiz-adv-x="208" d="M 0 0 L 0 0 Z M 173 0 L 36 0 L 36 559 L 173 559 L 173 0 Z M 103 619 L 103 619 Z M 228 619 L 96 619 L -23 793 L 135 793 L 228 619 Z" unicode="ì" />
<glyph horiz-adv-x="208" d="M 0 0 L 0 0 Z M 173 0 L 36 0 L 36 559 L 173 559 L 173 0 Z M 103 619 L 103 619 Z M -22 619 L 71 793 L 228 793 L 110 619 L -22 619 Z" unicode="í" />
<glyph horiz-adv-x="208" d="M 0 0 L 0 0 Z M 173 0 L 36 0 L 36 559 L 173 559 L 173 0 Z M 103 620 L 103 620 Z M 261 620 L 148 620 L 103 698 L 57 620 L -54 620 L 46 793 L 161 793 L 261 620 Z" unicode="î" />
<glyph horiz-adv-x="208" d="M 0 0 L 0 0 Z M 173 0 L 36 0 L 36 559 L 173 559 L 173 0 Z M 103 620 L 103 620 Z M 241 620 L 131 620 L 131 781 L 241 781 L 241 620 Z M 75 620 L -35 620 L -35 781 L 75 781 L 75 620 Z" unicode="ï" />
<glyph horiz-adv-x="447" d="M 421 314 C 421 269 416 227 408 188 C 400 148 387 114 371 85 C 355 56 334 33 309 16 C 283 0 254 -9 220 -9 C 160 -9 111 14 74 62 C 36 109 18 176 18 264 C 18 311 23 352 33 387 C 43 422 57 451 74 473 C 90 495 109 512 131 523 C 152 533 174 539 196 539 C 218 539 238 535 254 527 C 270 519 283 508 294 494 C 291 514 287 533 282 553 C 276 573 270 592 264 610 L 189 583 L 166 663 L 230 685 C 221 701 213 716 205 729 C 197 742 190 753 184 761 L 282 801 C 287 794 294 784 303 771 C 311 757 321 741 331 721 L 392 742 L 415 664 L 363 646 C 378 604 391 555 403 499 C 415 443 421 381 421 314 Z M 217 99 C 237 99 253 111 263 135 C 273 159 278 205 278 271 C 278 307 276 336 274 360 C 271 383 267 401 262 415 C 256 428 250 437 242 442 C 234 447 226 450 216 450 C 196 450 182 436 172 409 C 162 381 157 336 157 272 C 157 206 162 161 172 136 C 182 111 197 99 217 99 Z" unicode="ð" />
<glyph horiz-adv-x="440" d="M 34 0 L 34 0 Z M 408 0 L 271 0 L 271 406 C 271 421 266 433 258 441 C 250 449 239 454 225 454 C 210 454 197 449 187 440 C 176 431 171 415 171 393 L 171 0 L 34 0 L 34 559 L 156 559 L 156 493 C 164 513 179 530 201 544 C 222 558 249 565 283 565 C 320 565 350 555 373 536 C 396 517 408 487 408 445 L 408 0 Z M 222 622 L 222 622 Z M 293 775 L 394 775 C 394 723 386 684 370 659 C 354 634 334 622 310 622 C 290 622 273 625 259 631 C 245 637 234 643 226 648 C 217 652 209 657 201 661 C 193 665 185 668 178 668 C 170 668 164 664 159 656 C 154 648 151 638 151 626 L 51 626 C 51 677 61 715 81 741 C 101 766 123 779 146 779 C 164 779 178 776 190 770 C 202 764 213 759 223 753 C 231 748 238 744 244 741 C 250 737 257 736 264 736 C 270 736 277 739 283 745 C 289 751 293 761 293 775 Z" unicode="ñ" />
<glyph horiz-adv-x="441" d="M 17 0 L 17 0 Z M 219 -5 C 190 -5 163 0 139 12 C 114 23 93 40 75 64 C 57 87 42 117 32 153 C 22 189 17 231 17 279 C 17 368 35 438 72 489 C 109 539 157 565 215 565 C 277 565 328 542 366 497 C 404 451 424 384 424 295 C 424 200 405 126 369 74 C 332 21 282 -5 219 -5 Z M 221 100 C 241 100 257 112 267 137 C 277 162 282 211 282 285 C 282 319 280 348 278 371 C 275 393 271 411 266 424 C 260 436 254 445 246 450 C 238 455 229 458 219 458 C 199 458 184 446 174 423 C 164 400 160 354 160 285 C 160 247 161 215 164 191 C 166 167 170 148 176 135 C 181 121 187 112 195 107 C 202 102 211 100 221 100 Z M 221 619 L 221 619 Z M 346 619 L 214 619 L 95 793 L 253 793 L 346 619 Z" unicode="ò" />
<glyph horiz-adv-x="441" d="M 17 0 L 17 0 Z M 219 -5 C 190 -5 163 0 139 12 C 114 23 93 40 75 64 C 57 87 42 117 32 153 C 22 189 17 231 17 279 C 17 368 35 438 72 489 C 109 539 157 565 215 565 C 277 565 328 542 366 497 C 404 451 424 384 424 295 C 424 200 405 126 369 74 C 332 21 282 -5 219 -5 Z M 221 100 C 241 100 257 112 267 137 C 277 162 282 211 282 285 C 282 319 280 348 278 371 C 275 393 271 411 266 424 C 260 436 254 445 246 450 C 238 455 229 458 219 458 C 199 458 184 446 174 423 C 164 400 160 354 160 285 C 160 247 161 215 164 191 C 166 167 170 148 176 135 C 181 121 187 112 195 107 C 202 102 211 100 221 100 Z M 221 619 L 221 619 Z M 96 619 L 189 793 L 346 793 L 228 619 L 96 619 Z" unicode="ó" />
<glyph horiz-adv-x="441" d="M 17 0 L 17 0 Z M 219 -5 C 190 -5 163 0 139 12 C 114 23 93 40 75 64 C 57 87 42 117 32 153 C 22 189 17 231 17 279 C 17 368 35 438 72 489 C 109 539 157 565 215 565 C 277 565 328 542 366 497 C 404 451 424 384 424 295 C 424 200 405 126 369 74 C 332 21 282 -5 219 -5 Z M 221 100 C 241 100 257 112 267 137 C 277 162 282 211 282 285 C 282 319 280 348 278 371 C 275 393 271 411 266 424 C 260 436 254 445 246 450 C 238 455 229 458 219 458 C 199 458 184 446 174 423 C 164 400 160 354 160 285 C 160 247 161 215 164 191 C 166 167 170 148 176 135 C 181 121 187 112 195 107 C 202 102 211 100 221 100 Z M 221 620 L 221 620 Z M 379 620 L 266 620 L 221 698 L 175 620 L 64 620 L 164 793 L 279 793 L 379 620 Z" unicode="ô" />
<glyph horiz-adv-x="441" d="M 17 0 L 17 0 Z M 219 -5 C 190 -5 163 0 139 12 C 114 23 93 40 75 64 C 57 87 42 117 32 153 C 22 189 17 231 17 279 C 17 368 35 438 72 489 C 109 539 157 565 215 565 C 277 565 328 542 366 497 C 404 451 424 384 424 295 C 424 200 405 126 369 74 C 332 21 282 -5 219 -5 Z M 221 100 C 241 100 257 112 267 137 C 277 162 282 211 282 285 C 282 319 280 348 278 371 C 275 393 271 411 266 424 C 260 436 254 445 246 450 C 238 455 229 458 219 458 C 199 458 184 446 174 423 C 164 400 160 354 160 285 C 160 247 161 215 164 191 C 166 167 170 148 176 135 C 181 121 187 112 195 107 C 202 102 211 100 221 100 Z M 221 622 L 221 622 Z M 292 775 L 393 775 C 393 723 385 684 369 659 C 353 634 333 622 309 622 C 289 622 272 625 258 631 C 244 637 233 643 225 648 C 216 652 208 657 200 661 C 192 665 184 668 177 668 C 169 668 163 664 158 656 C 153 648 150 638 150 626 L 50 626 C 50 677 60 715 80 741 C 100 766 122 779 145 779 C 163 779 177 776 189 770 C 201 764 212 759 222 753 C 230 748 237 744 243 741 C 249 737 256 736 263 736 C 269 736 276 739 282 745 C 288 751 292 761 292 775 Z" unicode="õ" />
<glyph horiz-adv-x="441" d="M 17 0 L 17 0 Z M 219 -5 C 190 -5 163 0 139 12 C 114 23 93 40 75 64 C 57 87 42 117 32 153 C 22 189 17 231 17 279 C 17 368 35 438 72 489 C 109 539 157 565 215 565 C 277 565 328 542 366 497 C 404 451 424 384 424 295 C 424 200 405 126 369 74 C 332 21 282 -5 219 -5 Z M 221 100 C 241 100 257 112 267 137 C 277 162 282 211 282 285 C 282 319 280 348 278 371 C 275 393 271 411 266 424 C 260 436 254 445 246 450 C 238 455 229 458 219 458 C 199 458 184 446 174 423 C 164 400 160 354 160 285 C 160 247 161 215 164 191 C 166 167 170 148 176 135 C 181 121 187 112 195 107 C 202 102 211 100 221 100 Z M 221 620 L 221 620 Z M 359 620 L 249 620 L 249 781 L 359 781 L 359 620 Z M 193 620 L 83 620 L 83 781 L 193 781 L 193 620 Z" unicode="ö" />
<glyph horiz-adv-x="455" d="M 163 449 L 163 579 L 292 579 L 292 449 L 163 449 Z M 21 271 L 21 389 L 434 389 L 434 271 L 21 271 Z M 163 81 L 163 211 L 292 211 L 292 81 L 163 81 Z" unicode="÷" />
<glyph horiz-adv-x="441" d="M 219 -5 C 196 -5 175 -1 155 5 C 135 12 117 22 101 36 L 73 -10 L 24 20 L 62 83 C 48 105 37 133 29 166 C 21 199 17 237 17 279 C 17 368 35 438 72 489 C 109 539 157 565 215 565 C 237 565 258 562 278 556 C 298 550 316 541 333 530 L 362 578 L 412 548 L 375 487 C 390 464 402 437 411 405 C 419 373 424 336 424 295 C 424 200 405 126 369 74 C 332 21 282 -5 219 -5 Z M 160 285 C 160 278 160 271 160 264 C 160 257 160 251 161 245 L 267 422 C 262 435 255 444 247 450 C 239 455 229 458 219 458 C 199 458 184 446 174 423 C 164 400 160 354 160 285 Z M 282 285 C 282 293 282 302 282 310 C 282 318 281 325 281 332 L 171 151 C 175 131 182 117 191 110 C 199 103 209 100 221 100 C 241 100 257 112 267 137 C 277 162 282 211 282 285 Z" unicode="ø" />
<glyph horiz-adv-x="441" d="M 32 0 L 32 0 Z M 32 559 L 169 559 L 169 157 C 169 136 173 121 182 111 C 191 101 203 97 218 97 C 232 97 244 102 254 114 C 264 125 270 145 270 174 L 270 559 L 407 559 L 407 0 L 281 0 L 281 66 C 272 46 256 29 234 15 C 211 1 185 -6 157 -6 C 124 -6 95 4 70 26 C 44 48 32 81 32 125 L 32 559 Z M 219 619 L 219 619 Z M 344 619 L 212 619 L 93 793 L 251 793 L 344 619 Z" unicode="ù" />
<glyph horiz-adv-x="441" d="M 32 0 L 32 0 Z M 32 559 L 169 559 L 169 157 C 169 136 173 121 182 111 C 191 101 203 97 218 97 C 232 97 244 102 254 114 C 264 125 270 145 270 174 L 270 559 L 407 559 L 407 0 L 281 0 L 281 66 C 272 46 256 29 234 15 C 211 1 185 -6 157 -6 C 124 -6 95 4 70 26 C 44 48 32 81 32 125 L 32 559 Z M 219 619 L 219 619 Z M 94 619 L 187 793 L 344 793 L 226 619 L 94 619 Z" unicode="ú" />
<glyph horiz-adv-x="441" d="M 32 0 L 32 0 Z M 32 559 L 169 559 L 169 157 C 169 136 173 121 182 111 C 191 101 203 97 218 97 C 232 97 244 102 254 114 C 264 125 270 145 270 174 L 270 559 L 407 559 L 407 0 L 281 0 L 281 66 C 272 46 256 29 234 15 C 211 1 185 -6 157 -6 C 124 -6 95 4 70 26 C 44 48 32 81 32 125 L 32 559 Z M 219 620 L 219 620 Z M 377 620 L 264 620 L 219 698 L 173 620 L 62 620 L 162 793 L 277 793 L 377 620 Z" unicode="û" />
<glyph horiz-adv-x="441" d="M 32 0 L 32 0 Z M 32 559 L 169 559 L 169 157 C 169 136 173 121 182 111 C 191 101 203 97 218 97 C 232 97 244 102 254 114 C 264 125 270 145 270 174 L 270 559 L 407 559 L 407 0 L 281 0 L 281 66 C 272 46 256 29 234 15 C 211 1 185 -6 157 -6 C 124 -6 95 4 70 26 C 44 48 32 81 32 125 L 32 559 Z M 219 620 L 219 620 Z M 357 620 L 247 620 L 247 781 L 357 781 L 357 620 Z M 191 620 L 81 620 L 81 781 L 191 781 L 191 620 Z" unicode="ü" />
<glyph horiz-adv-x="385" d="M 0 0 L 0 0 Z M 390 559 L 218 -91 C 208 -125 190 -152 163 -171 C 135 -190 105 -200 71 -200 C 45 -200 23 -197 6 -191 C -10 -185 -22 -180 -28 -175 L 12 -83 C 14 -85 20 -88 30 -91 C 39 -94 48 -96 57 -96 C 69 -96 80 -91 90 -81 C 100 -71 107 -56 112 -36 L 131 47 L -5 559 L 133 559 L 201 237 L 267 559 L 390 559 Z M 198 619 L 198 619 Z M 73 619 L 166 793 L 323 793 L 205 619 L 73 619 Z" unicode="ý" />
<glyph horiz-adv-x="446" d="M 34 -200 L 34 800 L 160 800 L 160 478 C 166 502 180 523 202 539 C 223 555 248 564 276 564 C 301 564 323 557 343 544 C 362 531 378 513 390 490 C 402 467 412 440 418 408 C 424 376 428 341 428 303 C 428 204 413 128 385 75 C 356 22 317 -4 269 -4 C 245 -4 224 1 204 11 C 184 21 171 35 163 53 L 163 -200 L 34 -200 Z M 217 97 C 237 97 253 109 265 133 C 277 157 283 203 283 271 C 283 335 278 380 268 407 C 258 434 241 448 219 448 C 211 448 203 445 195 441 C 187 437 181 428 176 415 C 170 402 166 383 163 359 C 159 335 158 303 158 264 C 158 228 159 199 162 177 C 165 155 169 138 174 126 C 179 114 185 107 193 103 C 200 99 208 97 217 97 Z" unicode="þ" />
<glyph horiz-adv-x="385" d="M 0 0 L 0 0 Z M 390 559 L 218 -91 C 208 -125 190 -152 163 -171 C 135 -190 105 -200 71 -200 C 45 -200 23 -197 6 -191 C -10 -185 -22 -180 -28 -175 L 12 -83 C 14 -85 20 -88 30 -91 C 39 -94 48 -96 57 -96 C 69 -96 80 -91 90 -81 C 100 -71 107 -56 112 -36 L 131 47 L -5 559 L 133 559 L 201 237 L 267 559 L 390 559 Z M 198 620 L 198 620 Z M 336 620 L 226 620 L 226 781 L 336 781 L 336 620 Z M 170 620 L 60 620 L 60 781 L 170 781 L 170 620 Z" unicode="ÿ" />
<glyph horiz-adv-x="501" d="M 0 0 L 0 0 Z M 505 0 L 362 0 L 326 140 L 168 140 L 134 0 L -3 0 L 199 734 L 304 734 L 505 0 Z M 311 246 L 246 495 L 184 246 L 311 246 Z M 252 798 L 252 798 Z M 385 798 L 119 798 L 119 906 L 385 906 L 385 798 Z" unicode="Ā" />
<glyph horiz-adv-x="405" d="M 16 0 L 16 0 Z M 374 0 L 256 0 L 256 46 C 239 26 222 13 205 6 C 188 -1 167 -5 141 -5 C 102 -5 71 11 49 44 C 27 77 16 120 16 174 C 16 236 31 281 63 309 C 94 337 133 352 179 354 L 245 358 L 245 394 C 245 415 239 431 228 443 C 217 455 201 461 179 461 C 157 461 137 457 120 449 C 102 441 89 434 81 427 L 45 526 C 60 536 81 546 109 556 C 136 565 171 570 213 570 C 261 570 299 556 329 529 C 359 501 374 463 374 415 L 374 0 Z M 248 124 L 248 274 L 208 270 C 190 269 175 261 163 245 C 151 229 145 205 145 173 C 145 143 150 122 161 110 C 171 98 182 92 194 92 C 207 92 218 95 226 101 C 234 107 242 115 248 124 Z M 204 627 L 204 627 Z M 337 627 L 71 627 L 71 735 L 337 735 L 337 627 Z" unicode="ā" />
<glyph horiz-adv-x="501" d="M 0 0 L 0 0 Z M 505 0 L 362 0 L 326 140 L 168 140 L 134 0 L -3 0 L 199 734 L 304 734 L 505 0 Z M 311 246 L 246 495 L 184 246 L 311 246 Z M 252 791 L 252 791 Z M 294 953 L 407 953 C 402 897 386 856 359 830 C 331 804 296 791 252 791 C 208 791 172 804 145 830 C 117 856 102 897 98 953 L 210 953 C 211 930 214 912 220 900 C 226 888 236 882 252 882 C 267 882 278 888 284 900 C 290 912 293 929 294 953 Z" unicode="Ă" />
<glyph horiz-adv-x="405" d="M 16 0 L 16 0 Z M 374 0 L 256 0 L 256 46 C 239 26 222 13 205 6 C 188 -1 167 -5 141 -5 C 102 -5 71 11 49 44 C 27 77 16 120 16 174 C 16 236 31 281 63 309 C 94 337 133 352 179 354 L 245 358 L 245 394 C 245 415 239 431 228 443 C 217 455 201 461 179 461 C 157 461 137 457 120 449 C 102 441 89 434 81 427 L 45 526 C 60 536 81 546 109 556 C 136 565 171 570 213 570 C 261 570 299 556 329 529 C 359 501 374 463 374 415 L 374 0 Z M 248 124 L 248 274 L 208 270 C 190 269 175 261 163 245 C 151 229 145 205 145 173 C 145 143 150 122 161 110 C 171 98 182 92 194 92 C 207 92 218 95 226 101 C 234 107 242 115 248 124 Z M 204 620 L 204 620 Z M 246 782 L 359 782 C 354 726 338 685 311 659 C 283 633 248 620 204 620 C 160 620 124 633 97 659 C 69 685 54 726 50 782 L 162 782 C 163 759 166 741 172 729 C 178 717 188 711 204 711 C 219 711 230 717 236 729 C 242 741 245 758 246 782 Z" unicode="ă" />
<glyph horiz-adv-x="501" d="M 0 0 L 0 0 Z M 505 0 L 362 0 L 326 140 L 168 140 L 134 0 L -3 0 L 199 734 L 304 734 L 505 0 Z M 311 246 L 246 495 L 184 246 L 311 246 Z M 378 -5 L 378 -5 Z M 471 -72 L 508 -130 C 486 -152 463 -169 439 -181 C 415 -193 387 -199 357 -199 C 322 -199 295 -191 277 -176 C 258 -161 249 -142 249 -120 C 249 -94 260 -70 283 -48 C 306 -26 339 -7 383 8 L 432 8 C 409 -2 392 -14 382 -27 C 371 -39 366 -51 366 -63 C 366 -73 369 -82 376 -88 C 383 -94 392 -98 404 -98 C 418 -98 430 -95 441 -90 C 452 -85 462 -79 471 -72 Z" unicode="Ą" />
<glyph horiz-adv-x="405" d="M 16 0 L 16 0 Z M 374 0 L 256 0 L 256 46 C 239 26 222 13 205 6 C 188 -1 167 -5 141 -5 C 102 -5 71 11 49 44 C 27 77 16 120 16 174 C 16 236 31 281 63 309 C 94 337 133 352 179 354 L 245 358 L 245 394 C 245 415 239 431 228 443 C 217 455 201 461 179 461 C 157 461 137 457 120 449 C 102 441 89 434 81 427 L 45 526 C 60 536 81 546 109 556 C 136 565 171 570 213 570 C 261 570 299 556 329 529 C 359 501 374 463 374 415 L 374 0 Z M 248 124 L 248 274 L 208 270 C 190 269 175 261 163 245 C 151 229 145 205 145 173 C 145 143 150 122 161 110 C 171 98 182 92 194 92 C 207 92 218 95 226 101 C 234 107 242 115 248 124 Z M 271 -5 L 271 -5 Z M 364 -72 L 401 -130 C 379 -152 356 -169 332 -181 C 308 -193 280 -199 250 -199 C 215 -199 188 -191 170 -176 C 151 -161 142 -142 142 -120 C 142 -94 153 -70 176 -48 C 199 -26 232 -7 276 8 L 325 8 C 302 -2 285 -14 275 -27 C 264 -39 259 -51 259 -63 C 259 -73 262 -82 269 -88 C 276 -94 285 -98 297 -98 C 311 -98 323 -95 334 -90 C 345 -85 355 -79 364 -72 Z" unicode="ą" />
<glyph horiz-adv-x="528" d="M 26 0 L 26 0 Z M 279 -7 C 202 -7 141 24 95 86 C 49 148 26 241 26 366 C 26 480 47 571 90 637 C 133 703 197 737 281 737 C 346 737 395 720 429 686 C 463 652 486 607 498 550 L 369 519 C 361 547 351 571 339 589 C 327 607 308 617 284 617 C 267 617 252 613 238 605 C 224 597 213 584 204 565 C 194 545 187 519 182 487 C 177 454 175 413 175 363 C 175 312 178 270 185 238 C 191 205 200 179 212 161 C 223 142 236 129 250 122 C 264 115 279 112 294 112 C 322 112 344 121 358 139 C 372 157 383 181 392 212 L 506 172 C 488 112 460 67 422 37 C 383 7 335 -7 279 -7 Z M 288 790 L 288 790 Z M 163 790 L 256 964 L 413 964 L 295 790 L 163 790 Z" unicode="Ć" />
<glyph horiz-adv-x="374" d="M 17 0 L 17 0 Z M 314 139 L 365 61 C 350 43 332 27 310 14 C 288 1 258 -5 220 -5 C 187 -5 158 2 133 17 C 107 31 86 51 69 77 C 52 102 39 132 30 167 C 21 201 17 239 17 279 C 17 317 21 353 30 388 C 38 422 51 453 68 479 C 85 505 106 525 132 541 C 158 557 188 565 222 565 C 259 565 289 557 313 541 C 337 525 355 508 368 490 L 301 413 C 293 425 283 434 273 441 C 262 447 249 451 235 451 C 212 451 194 437 181 410 C 167 382 161 342 161 288 C 161 218 170 170 189 144 C 207 118 228 105 250 105 C 264 105 277 108 288 116 C 298 123 307 131 314 139 Z M 215 619 L 215 619 Z M 90 619 L 183 793 L 340 793 L 222 619 L 90 619 Z" unicode="ć" />
<glyph horiz-adv-x="528" d="M 26 0 L 26 0 Z M 279 -7 C 202 -7 141 24 95 86 C 49 148 26 241 26 366 C 26 480 47 571 90 637 C 133 703 197 737 281 737 C 346 737 395 720 429 686 C 463 652 486 607 498 550 L 369 519 C 361 547 351 571 339 589 C 327 607 308 617 284 617 C 267 617 252 613 238 605 C 224 597 213 584 204 565 C 194 545 187 519 182 487 C 177 454 175 413 175 363 C 175 312 178 270 185 238 C 191 205 200 179 212 161 C 223 142 236 129 250 122 C 264 115 279 112 294 112 C 322 112 344 121 358 139 C 372 157 383 181 392 212 L 506 172 C 488 112 460 67 422 37 C 383 7 335 -7 279 -7 Z M 288 791 L 288 791 Z M 446 791 L 333 791 L 288 869 L 242 791 L 131 791 L 231 964 L 346 964 L 446 791 Z" unicode="Ĉ" />
<glyph horiz-adv-x="374" d="M 17 0 L 17 0 Z M 314 139 L 365 61 C 350 43 332 27 310 14 C 288 1 258 -5 220 -5 C 187 -5 158 2 133 17 C 107 31 86 51 69 77 C 52 102 39 132 30 167 C 21 201 17 239 17 279 C 17 317 21 353 30 388 C 38 422 51 453 68 479 C 85 505 106 525 132 541 C 158 557 188 565 222 565 C 259 565 289 557 313 541 C 337 525 355 508 368 490 L 301 413 C 293 425 283 434 273 441 C 262 447 249 451 235 451 C 212 451 194 437 181 410 C 167 382 161 342 161 288 C 161 218 170 170 189 144 C 207 118 228 105 250 105 C 264 105 277 108 288 116 C 298 123 307 131 314 139 Z M 215 620 L 215 620 Z M 373 620 L 260 620 L 215 698 L 169 620 L 58 620 L 158 793 L 273 793 L 373 620 Z" unicode="ĉ" />
<glyph horiz-adv-x="528" d="M 26 0 L 26 0 Z M 279 -7 C 202 -7 141 24 95 86 C 49 148 26 241 26 366 C 26 480 47 571 90 637 C 133 703 197 737 281 737 C 346 737 395 720 429 686 C 463 652 486 607 498 550 L 369 519 C 361 547 351 571 339 589 C 327 607 308 617 284 617 C 267 617 252 613 238 605 C 224 597 213 584 204 565 C 194 545 187 519 182 487 C 177 454 175 413 175 363 C 175 312 178 270 185 238 C 191 205 200 179 212 161 C 223 142 236 129 250 122 C 264 115 279 112 294 112 C 322 112 344 121 358 139 C 372 157 383 181 392 212 L 506 172 C 488 112 460 67 422 37 C 383 7 335 -7 279 -7 Z M 288 793 L 288 793 Z M 351 793 L 226 793 L 226 931 L 351 931 L 351 793 Z" unicode="Ċ" />
<glyph horiz-adv-x="374" d="M 17 0 L 17 0 Z M 314 139 L 365 61 C 350 43 332 27 310 14 C 288 1 258 -5 220 -5 C 187 -5 158 2 133 17 C 107 31 86 51 69 77 C 52 102 39 132 30 167 C 21 201 17 239 17 279 C 17 317 21 353 30 388 C 38 422 51 453 68 479 C 85 505 106 525 132 541 C 158 557 188 565 222 565 C 259 565 289 557 313 541 C 337 525 355 508 368 490 L 301 413 C 293 425 283 434 273 441 C 262 447 249 451 235 451 C 212 451 194 437 181 410 C 167 382 161 342 161 288 C 161 218 170 170 189 144 C 207 118 228 105 250 105 C 264 105 277 108 288 116 C 298 123 307 131 314 139 Z M 215 622 L 215 622 Z M 278 622 L 153 622 L 153 760 L 278 760 L 278 622 Z" unicode="ċ" />
<glyph horiz-adv-x="528" d="M 26 0 L 26 0 Z M 279 -7 C 202 -7 141 24 95 86 C 49 148 26 241 26 366 C 26 480 47 571 90 637 C 133 703 197 737 281 737 C 346 737 395 720 429 686 C 463 652 486 607 498 550 L 369 519 C 361 547 351 571 339 589 C 327 607 308 617 284 617 C 267 617 252 613 238 605 C 224 597 213 584 204 565 C 194 545 187 519 182 487 C 177 454 175 413 175 363 C 175 312 178 270 185 238 C 191 205 200 179 212 161 C 223 142 236 129 250 122 C 264 115 279 112 294 112 C 322 112 344 121 358 139 C 372 157 383 181 392 212 L 506 172 C 488 112 460 67 422 37 C 383 7 335 -7 279 -7 Z M 288 791 L 288 791 Z M 131 964 L 244 964 L 289 886 L 335 964 L 446 964 L 346 791 L 231 791 L 131 964 Z" unicode="Č" />
<glyph horiz-adv-x="374" d="M 17 0 L 17 0 Z M 314 139 L 365 61 C 350 43 332 27 310 14 C 288 1 258 -5 220 -5 C 187 -5 158 2 133 17 C 107 31 86 51 69 77 C 52 102 39 132 30 167 C 21 201 17 239 17 279 C 17 317 21 353 30 388 C 38 422 51 453 68 479 C 85 505 106 525 132 541 C 158 557 188 565 222 565 C 259 565 289 557 313 541 C 337 525 355 508 368 490 L 301 413 C 293 425 283 434 273 441 C 262 447 249 451 235 451 C 212 451 194 437 181 410 C 167 382 161 342 161 288 C 161 218 170 170 189 144 C 207 118 228 105 250 105 C 264 105 277 108 288 116 C 298 123 307 131 314 139 Z M 215 620 L 215 620 Z M 58 793 L 171 793 L 216 715 L 262 793 L 373 793 L 273 620 L 158 620 L 58 793 Z" unicode="č" />
<glyph horiz-adv-x="550" d="M 46 0 L 46 0 Z M 46 0 L 46 730 L 232 730 C 279 730 321 721 357 703 C 393 685 424 659 448 627 C 472 595 491 556 504 510 C 516 464 523 414 523 360 C 523 309 516 262 504 218 C 492 174 473 136 449 104 C 424 72 393 46 355 28 C 317 9 273 0 223 0 L 46 0 Z M 195 121 L 233 121 C 283 121 319 141 340 181 C 361 221 372 281 372 359 C 372 450 360 514 336 552 C 312 590 279 609 237 609 L 195 609 L 195 121 Z M 256 791 L 256 791 Z M 99 964 L 212 964 L 257 886 L 303 964 L 414 964 L 314 791 L 199 791 L 99 964 Z" unicode="Ď" />
<glyph horiz-adv-x="454" d="M 19 0 L 19 0 Z M 185 -5 C 160 -5 137 1 117 15 C 96 29 78 48 64 72 C 50 96 39 126 31 160 C 23 194 19 232 19 272 C 19 361 34 431 65 483 C 96 535 136 561 184 561 C 209 561 231 553 251 538 C 271 523 284 505 291 484 L 291 800 L 420 800 L 420 0 L 298 0 L 298 58 C 292 42 278 28 258 15 C 238 1 213 -5 185 -5 Z M 231 96 C 251 96 266 109 277 137 C 288 164 294 213 294 283 C 294 318 292 347 289 369 C 285 391 281 408 275 420 C 269 432 263 440 255 444 C 247 448 238 451 229 451 C 209 451 193 439 182 415 C 170 391 165 345 165 278 C 165 207 170 159 182 134 C 194 108 210 96 231 96 Z M 583 620 L 578 466 L 460 466 L 454 620 L 454 730 L 583 730 L 583 620 Z" unicode="ď" />
<glyph horiz-adv-x="550" d="M 8 0 L 8 0 Z M 519 360 C 519 309 512 262 500 218 C 488 174 469 136 445 104 C 420 72 389 46 351 28 C 313 9 269 0 219 0 L 42 0 L 42 301 L 8 301 L 8 413 L 42 413 L 42 730 L 228 730 C 275 730 317 721 353 703 C 389 685 420 659 444 627 C 468 595 487 556 500 510 C 512 464 519 414 519 360 Z M 191 116 L 229 116 C 279 116 315 136 336 178 C 357 219 368 279 368 358 C 368 450 356 516 332 555 C 308 594 275 614 233 614 L 191 614 L 191 413 L 279 413 L 279 301 L 191 301 L 191 116 Z" unicode="Đ" />
<glyph horiz-adv-x="454" d="M 298 58 C 292 42 278 28 258 15 C 238 1 213 -5 185 -5 C 160 -5 137 1 117 15 C 96 29 78 48 64 72 C 50 96 39 126 31 160 C 23 194 19 232 19 272 C 19 361 34 431 65 483 C 96 535 136 561 184 561 C 209 561 231 553 251 538 C 271 523 284 505 291 484 L 291 616 L 220 616 L 220 715 L 291 715 L 291 800 L 420 800 L 420 715 L 454 715 L 454 616 L 420 616 L 420 0 L 298 0 L 298 58 Z M 231 96 C 251 96 266 109 277 137 C 288 164 294 213 294 283 C 294 318 292 347 289 369 C 285 391 281 408 275 420 C 269 432 263 440 255 444 C 247 448 238 451 229 451 C 209 451 193 439 182 415 C 170 391 165 345 165 278 C 165 207 170 159 182 134 C 194 108 210 96 231 96 Z" unicode="đ" />
<glyph horiz-adv-x="414" d="M 46 0 L 46 0 Z M 403 0 L 46 0 L 46 730 L 383 730 L 383 603 L 192 603 L 192 426 L 373 426 L 373 301 L 192 301 L 192 127 L 403 127 L 403 0 Z M 215 798 L 215 798 Z M 348 798 L 82 798 L 82 906 L 348 906 L 348 798 Z" unicode="Ē" />
<glyph horiz-adv-x="422" d="M 17 0 L 17 0 Z M 215 -5 C 156 -5 108 20 72 70 C 35 120 17 188 17 275 C 17 366 35 437 72 487 C 108 537 155 563 211 563 C 276 563 325 536 358 483 C 391 429 408 351 408 247 L 154 247 C 154 207 162 174 179 146 C 195 118 220 104 253 104 C 275 104 294 110 310 122 C 326 134 340 145 351 157 L 398 89 C 390 79 381 68 369 57 C 357 46 344 36 329 27 C 313 17 296 10 277 4 C 258 -2 237 -5 215 -5 Z M 150 335 L 279 335 C 279 378 273 410 262 430 C 250 450 236 460 218 460 C 199 460 183 449 171 429 C 158 409 151 377 150 335 Z M 216 627 L 216 627 Z M 349 627 L 83 627 L 83 735 L 349 735 L 349 627 Z" unicode="ē" />
<glyph horiz-adv-x="414" d="M 46 0 L 46 0 Z M 403 0 L 46 0 L 46 730 L 383 730 L 383 603 L 192 603 L 192 426 L 373 426 L 373 301 L 192 301 L 192 127 L 403 127 L 403 0 Z M 215 791 L 215 791 Z M 257 953 L 370 953 C 365 897 349 856 322 830 C 294 804 259 791 215 791 C 171 791 135 804 108 830 C 80 856 65 897 61 953 L 173 953 C 174 930 177 912 183 900 C 189 888 199 882 215 882 C 230 882 241 888 247 900 C 253 912 256 929 257 953 Z" unicode="Ĕ" />
<glyph horiz-adv-x="422" d="M 17 0 L 17 0 Z M 215 -5 C 156 -5 108 20 72 70 C 35 120 17 188 17 275 C 17 366 35 437 72 487 C 108 537 155 563 211 563 C 276 563 325 536 358 483 C 391 429 408 351 408 247 L 154 247 C 154 207 162 174 179 146 C 195 118 220 104 253 104 C 275 104 294 110 310 122 C 326 134 340 145 351 157 L 398 89 C 390 79 381 68 369 57 C 357 46 344 36 329 27 C 313 17 296 10 277 4 C 258 -2 237 -5 215 -5 Z M 150 335 L 279 335 C 279 378 273 410 262 430 C 250 450 236 460 218 460 C 199 460 183 449 171 429 C 158 409 151 377 150 335 Z M 216 620 L 216 620 Z M 258 782 L 371 782 C 366 726 350 685 323 659 C 295 633 260 620 216 620 C 172 620 136 633 109 659 C 81 685 66 726 62 782 L 174 782 C 175 759 178 741 184 729 C 190 717 200 711 216 711 C 231 711 242 717 248 729 C 254 741 257 758 258 782 Z" unicode="ĕ" />
<glyph horiz-adv-x="414" d="M 46 0 L 46 0 Z M 403 0 L 46 0 L 46 730 L 383 730 L 383 603 L 192 603 L 192 426 L 373 426 L 373 301 L 192 301 L 192 127 L 403 127 L 403 0 Z M 215 793 L 215 793 Z M 278 793 L 153 793 L 153 931 L 278 931 L 278 793 Z" unicode="Ė" />
<glyph horiz-adv-x="422" d="M 17 0 L 17 0 Z M 215 -5 C 156 -5 108 20 72 70 C 35 120 17 188 17 275 C 17 366 35 437 72 487 C 108 537 155 563 211 563 C 276 563 325 536 358 483 C 391 429 408 351 408 247 L 154 247 C 154 207 162 174 179 146 C 195 118 220 104 253 104 C 275 104 294 110 310 122 C 326 134 340 145 351 157 L 398 89 C 390 79 381 68 369 57 C 357 46 344 36 329 27 C 313 17 296 10 277 4 C 258 -2 237 -5 215 -5 Z M 150 335 L 279 335 C 279 378 273 410 262 430 C 250 450 236 460 218 460 C 199 460 183 449 171 429 C 158 409 151 377 150 335 Z M 216 622 L 216 622 Z M 279 622 L 154 622 L 154 760 L 279 760 L 279 622 Z" unicode="ė" />
<glyph horiz-adv-x="414" d="M 46 0 L 46 0 Z M 403 0 L 46 0 L 46 730 L 383 730 L 383 603 L 192 603 L 192 426 L 373 426 L 373 301 L 192 301 L 192 127 L 403 127 L 403 0 Z M 349 -5 L 349 -5 Z M 442 -72 L 479 -130 C 457 -152 434 -169 410 -181 C 386 -193 358 -199 328 -199 C 293 -199 266 -191 248 -176 C 229 -161 220 -142 220 -120 C 220 -94 231 -70 254 -48 C 277 -26 310 -7 354 8 L 403 8 C 380 -2 363 -14 353 -27 C 342 -39 337 -51 337 -63 C 337 -73 340 -82 347 -88 C 354 -94 363 -98 375 -98 C 389 -98 401 -95 412 -90 C 423 -85 433 -79 442 -72 Z" unicode="Ę" />
<glyph horiz-adv-x="422" d="M 17 0 L 17 0 Z M 215 -5 C 156 -5 108 20 72 70 C 35 120 17 188 17 275 C 17 366 35 437 72 487 C 108 537 155 563 211 563 C 276 563 325 536 358 483 C 391 429 408 351 408 247 L 154 247 C 154 207 162 174 179 146 C 195 118 220 104 253 104 C 275 104 294 110 310 122 C 326 134 340 145 351 157 L 398 89 C 390 79 381 68 369 57 C 357 46 344 36 329 27 C 313 17 296 10 277 4 C 258 -2 237 -5 215 -5 Z M 150 335 L 279 335 C 279 378 273 410 262 430 C 250 450 236 460 218 460 C 199 460 183 449 171 429 C 158 409 151 377 150 335 Z M 235 -5 L 235 -5 Z M 328 -72 L 365 -130 C 343 -152 320 -169 296 -181 C 272 -193 244 -199 214 -199 C 179 -199 152 -191 134 -176 C 115 -161 106 -142 106 -120 C 106 -94 117 -70 140 -48 C 163 -26 196 -7 240 8 L 289 8 C 266 -2 249 -14 239 -27 C 228 -39 223 -51 223 -63 C 223 -73 226 -82 233 -88 C 240 -94 249 -98 261 -98 C 275 -98 287 -95 298 -90 C 309 -85 319 -79 328 -72 Z" unicode="ę" />
<glyph horiz-adv-x="414" d="M 46 0 L 46 0 Z M 403 0 L 46 0 L 46 730 L 383 730 L 383 603 L 192 603 L 192 426 L 373 426 L 373 301 L 192 301 L 192 127 L 403 127 L 403 0 Z M 215 791 L 215 791 Z M 58 964 L 171 964 L 216 886 L 262 964 L 373 964 L 273 791 L 158 791 L 58 964 Z" unicode="Ě" />
<glyph horiz-adv-x="422" d="M 17 0 L 17 0 Z M 215 -5 C 156 -5 108 20 72 70 C 35 120 17 188 17 275 C 17 366 35 437 72 487 C 108 537 155 563 211 563 C 276 563 325 536 358 483 C 391 429 408 351 408 247 L 154 247 C 154 207 162 174 179 146 C 195 118 220 104 253 104 C 275 104 294 110 310 122 C 326 134 340 145 351 157 L 398 89 C 390 79 381 68 369 57 C 357 46 344 36 329 27 C 313 17 296 10 277 4 C 258 -2 237 -5 215 -5 Z M 150 335 L 279 335 C 279 378 273 410 262 430 C 250 450 236 460 218 460 C 199 460 183 449 171 429 C 158 409 151 377 150 335 Z M 216 620 L 216 620 Z M 59 793 L 172 793 L 217 715 L 263 793 L 374 793 L 274 620 L 159 620 L 59 793 Z" unicode="ě" />
<glyph horiz-adv-x="535" d="M 26 0 L 26 0 Z M 280 382 L 506 382 L 506 117 C 489 82 462 53 424 29 C 386 5 338 -7 279 -7 C 244 -7 211 1 181 17 C 150 33 123 56 100 88 C 77 119 59 158 46 204 C 32 250 26 304 26 365 C 26 421 31 473 43 519 C 55 565 71 604 93 636 C 115 668 141 692 172 710 C 203 727 238 736 277 736 C 337 736 385 722 419 696 C 453 669 476 631 490 581 L 372 531 C 364 555 354 576 341 592 C 327 608 309 616 287 616 C 253 616 225 597 205 559 C 185 521 175 455 175 362 C 175 266 185 199 207 162 C 229 124 255 106 286 106 C 308 106 328 109 344 117 C 360 125 371 137 379 153 L 379 272 L 280 272 L 280 382 Z M 283 791 L 283 791 Z M 441 791 L 328 791 L 283 869 L 237 791 L 126 791 L 226 964 L 341 964 L 441 791 Z" unicode="Ĝ" />
<glyph horiz-adv-x="452" d="M 19 0 L 19 0 Z M 183 21 C 138 21 99 44 67 92 C 35 139 19 205 19 289 C 19 333 23 373 32 407 C 41 441 53 470 68 493 C 83 516 101 534 121 546 C 141 558 161 564 183 564 C 211 564 234 556 253 542 C 272 527 286 510 295 492 L 295 559 L 418 559 L 418 15 C 418 -22 411 -54 399 -80 C 386 -106 370 -128 350 -145 C 330 -161 307 -174 281 -182 C 255 -190 229 -194 203 -194 C 165 -194 132 -190 106 -182 C 79 -174 59 -165 47 -156 L 86 -62 C 100 -68 115 -73 131 -77 C 147 -81 166 -83 190 -83 C 218 -83 242 -73 261 -54 C 280 -34 290 -6 290 32 L 290 97 C 282 76 268 58 250 43 C 231 28 209 21 183 21 Z M 228 126 C 248 126 264 137 276 160 C 287 183 293 228 293 294 C 293 358 286 400 273 422 C 259 443 244 454 227 454 C 207 454 191 442 179 418 C 167 394 162 352 162 293 C 162 233 167 190 178 164 C 189 138 206 126 228 126 Z M 221 620 L 221 620 Z M 379 620 L 266 620 L 221 698 L 175 620 L 64 620 L 164 793 L 279 793 L 379 620 Z" unicode="ĝ" />
<glyph horiz-adv-x="535" d="M 26 0 L 26 0 Z M 280 382 L 506 382 L 506 117 C 489 82 462 53 424 29 C 386 5 338 -7 279 -7 C 244 -7 211 1 181 17 C 150 33 123 56 100 88 C 77 119 59 158 46 204 C 32 250 26 304 26 365 C 26 421 31 473 43 519 C 55 565 71 604 93 636 C 115 668 141 692 172 710 C 203 727 238 736 277 736 C 337 736 385 722 419 696 C 453 669 476 631 490 581 L 372 531 C 364 555 354 576 341 592 C 327 608 309 616 287 616 C 253 616 225 597 205 559 C 185 521 175 455 175 362 C 175 266 185 199 207 162 C 229 124 255 106 286 106 C 308 106 328 109 344 117 C 360 125 371 137 379 153 L 379 272 L 280 272 L 280 382 Z M 283 791 L 283 791 Z M 325 953 L 438 953 C 433 897 417 856 390 830 C 362 804 327 791 283 791 C 239 791 203 804 176 830 C 148 856 133 897 129 953 L 241 953 C 242 930 245 912 251 900 C 257 888 267 882 283 882 C 298 882 309 888 315 900 C 321 912 324 929 325 953 Z" unicode="Ğ" />
<glyph horiz-adv-x="452" d="M 19 0 L 19 0 Z M 183 21 C 138 21 99 44 67 92 C 35 139 19 205 19 289 C 19 333 23 373 32 407 C 41 441 53 470 68 493 C 83 516 101 534 121 546 C 141 558 161 564 183 564 C 211 564 234 556 253 542 C 272 527 286 510 295 492 L 295 559 L 418 559 L 418 15 C 418 -22 411 -54 399 -80 C 386 -106 370 -128 350 -145 C 330 -161 307 -174 281 -182 C 255 -190 229 -194 203 -194 C 165 -194 132 -190 106 -182 C 79 -174 59 -165 47 -156 L 86 -62 C 100 -68 115 -73 131 -77 C 147 -81 166 -83 190 -83 C 218 -83 242 -73 261 -54 C 280 -34 290 -6 290 32 L 290 97 C 282 76 268 58 250 43 C 231 28 209 21 183 21 Z M 228 126 C 248 126 264 137 276 160 C 287 183 293 228 293 294 C 293 358 286 400 273 422 C 259 443 244 454 227 454 C 207 454 191 442 179 418 C 167 394 162 352 162 293 C 162 233 167 190 178 164 C 189 138 206 126 228 126 Z M 221 620 L 221 620 Z M 263 782 L 376 782 C 371 726 355 685 328 659 C 300 633 265 620 221 620 C 177 620 141 633 114 659 C 86 685 71 726 67 782 L 179 782 C 180 759 183 741 189 729 C 195 717 205 711 221 711 C 236 711 247 717 253 729 C 259 741 262 758 263 782 Z" unicode="ğ" />
<glyph horiz-adv-x="535" d="M 26 0 L 26 0 Z M 280 382 L 506 382 L 506 117 C 489 82 462 53 424 29 C 386 5 338 -7 279 -7 C 244 -7 211 1 181 17 C 150 33 123 56 100 88 C 77 119 59 158 46 204 C 32 250 26 304 26 365 C 26 421 31 473 43 519 C 55 565 71 604 93 636 C 115 668 141 692 172 710 C 203 727 238 736 277 736 C 337 736 385 722 419 696 C 453 669 476 631 490 581 L 372 531 C 364 555 354 576 341 592 C 327 608 309 616 287 616 C 253 616 225 597 205 559 C 185 521 175 455 175 362 C 175 266 185 199 207 162 C 229 124 255 106 286 106 C 308 106 328 109 344 117 C 360 125 371 137 379 153 L 379 272 L 280 272 L 280 382 Z M 283 793 L 283 793 Z M 346 793 L 221 793 L 221 931 L 346 931 L 346 793 Z" unicode="Ġ" />
<glyph horiz-adv-x="452" d="M 19 0 L 19 0 Z M 183 21 C 138 21 99 44 67 92 C 35 139 19 205 19 289 C 19 333 23 373 32 407 C 41 441 53 470 68 493 C 83 516 101 534 121 546 C 141 558 161 564 183 564 C 211 564 234 556 253 542 C 272 527 286 510 295 492 L 295 559 L 418 559 L 418 15 C 418 -22 411 -54 399 -80 C 386 -106 370 -128 350 -145 C 330 -161 307 -174 281 -182 C 255 -190 229 -194 203 -194 C 165 -194 132 -190 106 -182 C 79 -174 59 -165 47 -156 L 86 -62 C 100 -68 115 -73 131 -77 C 147 -81 166 -83 190 -83 C 218 -83 242 -73 261 -54 C 280 -34 290 -6 290 32 L 290 97 C 282 76 268 58 250 43 C 231 28 209 21 183 21 Z M 228 126 C 248 126 264 137 276 160 C 287 183 293 228 293 294 C 293 358 286 400 273 422 C 259 443 244 454 227 454 C 207 454 191 442 179 418 C 167 394 162 352 162 293 C 162 233 167 190 178 164 C 189 138 206 126 228 126 Z M 221 622 L 221 622 Z M 284 622 L 159 622 L 159 760 L 284 760 L 284 622 Z" unicode="ġ" />
<glyph horiz-adv-x="535" d="M 26 0 L 26 0 Z M 280 382 L 506 382 L 506 117 C 489 82 462 53 424 29 C 386 5 338 -7 279 -7 C 244 -7 211 1 181 17 C 150 33 123 56 100 88 C 77 119 59 158 46 204 C 32 250 26 304 26 365 C 26 421 31 473 43 519 C 55 565 71 604 93 636 C 115 668 141 692 172 710 C 203 727 238 736 277 736 C 337 736 385 722 419 696 C 453 669 476 631 490 581 L 372 531 C 364 555 354 576 341 592 C 327 608 309 616 287 616 C 253 616 225 597 205 559 C 185 521 175 455 175 362 C 175 266 185 199 207 162 C 229 124 255 106 286 106 C 308 106 328 109 344 117 C 360 125 371 137 379 153 L 379 272 L 280 272 L 280 382 Z M 275 -66 L 275 -66 Z M 381 -66 C 381 -90 377 -116 370 -144 C 362 -172 353 -198 343 -224 C 332 -249 320 -271 308 -291 C 296 -311 285 -324 275 -332 L 171 -286 C 178 -276 185 -264 193 -248 C 201 -232 208 -214 214 -194 C 220 -174 226 -153 231 -131 C 235 -109 238 -87 239 -66 L 381 -66 Z" unicode="Ģ" />
<glyph horiz-adv-x="452" d="M 19 0 L 19 0 Z M 183 21 C 138 21 99 44 67 92 C 35 139 19 205 19 289 C 19 333 23 373 32 407 C 41 441 53 470 68 493 C 83 516 101 534 121 546 C 141 558 161 564 183 564 C 211 564 234 556 253 542 C 272 527 286 510 295 492 L 295 559 L 418 559 L 418 15 C 418 -22 411 -54 399 -80 C 386 -106 370 -128 350 -145 C 330 -161 307 -174 281 -182 C 255 -190 229 -194 203 -194 C 165 -194 132 -190 106 -182 C 79 -174 59 -165 47 -156 L 86 -62 C 100 -68 115 -73 131 -77 C 147 -81 166 -83 190 -83 C 218 -83 242 -73 261 -54 C 280 -34 290 -6 290 32 L 290 97 C 282 76 268 58 250 43 C 231 28 209 21 183 21 Z M 228 126 C 248 126 264 137 276 160 C 287 183 293 228 293 294 C 293 358 286 400 273 422 C 259 443 244 454 227 454 C 207 454 191 442 179 418 C 167 394 162 352 162 293 C 162 233 167 190 178 164 C 189 138 206 126 228 126 Z" unicode="ģ" />
<glyph horiz-adv-x="544" d="M 46 0 L 46 0 Z M 498 0 L 348 0 L 348 299 L 196 299 L 196 0 L 46 0 L 46 730 L 196 730 L 196 422 L 348 422 L 348 730 L 498 730 L 498 0 Z M 269 791 L 269 791 Z M 427 791 L 314 791 L 269 869 L 223 791 L 112 791 L 212 964 L 327 964 L 427 791 Z" unicode="Ĥ" />
<glyph horiz-adv-x="441" d="M 34 0 L 34 0 Z M 409 0 L 272 0 L 272 404 C 272 420 267 433 259 441 C 250 449 239 454 225 454 C 210 454 197 449 187 440 C 176 431 171 415 171 393 L 171 0 L 34 0 L 34 800 L 163 800 L 163 505 C 169 521 182 535 201 547 C 219 559 244 565 276 565 C 315 565 347 555 372 535 C 396 515 409 483 409 439 L 409 0 Z M 225 861 L 225 861 Z M 383 861 L 270 861 L 225 939 L 179 861 L 68 861 L 168 1034 L 283 1034 L 383 861 Z" unicode="ĥ" />
<glyph horiz-adv-x="544" d="M 196 299 L 196 0 L 46 0 L 46 532 L 0 532 L 0 631 L 46 631 L 46 730 L 196 730 L 196 631 L 348 631 L 348 730 L 498 730 L 498 631 L 544 631 L 544 532 L 498 532 L 498 0 L 348 0 L 348 299 L 196 299 Z M 196 422 L 348 422 L 348 532 L 196 532 L 196 422 Z" unicode="Ħ" />
<glyph horiz-adv-x="441" d="M 171 393 L 171 0 L 34 0 L 34 616 L 6 616 L 6 715 L 34 715 L 34 800 L 163 800 L 163 715 L 240 715 L 240 616 L 163 616 L 163 505 C 169 521 182 535 201 547 C 219 559 244 565 276 565 C 315 565 347 555 372 535 C 396 515 409 483 409 439 L 409 0 L 272 0 L 272 404 C 272 420 267 433 259 441 C 250 449 239 454 225 454 C 210 454 197 449 187 440 C 176 431 171 415 171 393 Z" unicode="ħ" />
<glyph horiz-adv-x="251" d="M 0 0 L 0 0 Z M 201 0 L 50 0 L 50 730 L 201 730 L 201 0 Z M 125 793 L 125 793 Z M 196 946 L 297 946 C 297 894 289 855 273 830 C 257 805 237 793 213 793 C 193 793 176 796 162 802 C 148 808 137 814 129 819 C 120 823 112 828 104 832 C 96 836 88 839 81 839 C 73 839 67 835 62 827 C 57 819 54 809 54 797 L -46 797 C -46 848 -35 886 -15 912 C 4 937 26 950 49 950 C 67 950 81 947 93 941 C 105 935 116 930 126 924 C 134 919 141 915 147 912 C 153 908 160 907 167 907 C 173 907 180 910 186 916 C 192 922 196 932 196 946 Z" unicode="Ĩ" />
<glyph horiz-adv-x="208" d="M 0 0 L 0 0 Z M 173 0 L 36 0 L 36 559 L 173 559 L 173 0 Z M 103 622 L 103 622 Z M 174 775 L 275 775 C 275 723 267 684 251 659 C 235 634 215 622 191 622 C 171 622 154 625 140 631 C 126 637 115 643 107 648 C 98 652 90 657 82 661 C 74 665 66 668 59 668 C 51 668 45 664 40 656 C 35 648 32 638 32 626 L -68 626 C -68 677 -57 715 -37 741 C -17 766 4 779 27 779 C 45 779 59 776 71 770 C 83 764 94 759 104 753 C 112 748 119 744 125 741 C 131 737 138 736 145 736 C 151 736 158 739 164 745 C 170 751 174 761 174 775 Z" unicode="ĩ" />
<glyph horiz-adv-x="251" d="M 0 0 L 0 0 Z M 201 0 L 50 0 L 50 730 L 201 730 L 201 0 Z M 125 798 L 125 798 Z M 258 798 L -8 798 L -8 906 L 258 906 L 258 798 Z" unicode="Ī" />
<glyph horiz-adv-x="208" d="M 0 0 L 0 0 Z M 173 0 L 36 0 L 36 559 L 173 559 L 173 0 Z M 103 627 L 103 627 Z M 236 627 L -30 627 L -30 735 L 236 735 L 236 627 Z" unicode="ī" />
<glyph horiz-adv-x="251" d="M 0 0 L 0 0 Z M 201 0 L 50 0 L 50 730 L 201 730 L 201 0 Z M 125 791 L 125 791 Z M 167 953 L 280 953 C 275 897 259 856 232 830 C 204 804 169 791 125 791 C 81 791 45 804 18 830 C -9 856 -25 897 -29 953 L 83 953 C 84 930 87 912 93 900 C 99 888 109 882 125 882 C 140 882 151 888 157 900 C 163 912 166 929 167 953 Z" unicode="Ĭ" />
<glyph horiz-adv-x="208" d="M 0 0 L 0 0 Z M 173 0 L 36 0 L 36 559 L 173 559 L 173 0 Z M 103 620 L 103 620 Z M 145 782 L 258 782 C 253 726 237 685 210 659 C 182 633 147 620 103 620 C 59 620 23 633 -4 659 C -31 685 -47 726 -51 782 L 61 782 C 62 759 65 741 71 729 C 77 717 87 711 103 711 C 118 711 129 717 135 729 C 141 741 144 758 145 782 Z" unicode="ĭ" />
<glyph horiz-adv-x="251" d="M 0 0 L 0 0 Z M 201 0 L 50 0 L 50 730 L 201 730 L 201 0 Z M 66 -5 L 66 -5 Z M 159 -72 L 196 -130 C 174 -152 151 -169 127 -181 C 103 -193 75 -199 45 -199 C 10 -199 -16 -191 -35 -176 C -53 -161 -63 -142 -63 -120 C -63 -94 -51 -70 -28 -48 C -5 -26 27 -7 71 8 L 120 8 C 97 -2 80 -14 70 -27 C 59 -39 54 -51 54 -63 C 54 -73 57 -82 64 -88 C 71 -94 80 -98 92 -98 C 106 -98 118 -95 129 -90 C 140 -85 150 -79 159 -72 Z" unicode="Į" />
<glyph horiz-adv-x="208" d="M 0 0 L 0 0 Z M 34 624 L 34 735 L 174 735 L 174 624 L 34 624 Z M 36 0 L 36 559 L 173 559 L 173 0 L 36 0 Z M 42 -5 L 42 -5 Z M 135 -72 L 172 -130 C 150 -152 127 -169 103 -181 C 79 -193 51 -199 21 -199 C -13 -199 -40 -191 -59 -176 C -77 -161 -87 -142 -87 -120 C -87 -94 -75 -70 -52 -48 C -29 -26 3 -7 47 8 L 96 8 C 73 -2 56 -14 46 -27 C 35 -39 30 -51 30 -63 C 30 -73 33 -82 40 -88 C 47 -94 56 -98 68 -98 C 82 -98 94 -95 105 -90 C 116 -85 126 -79 135 -72 Z" unicode="į" />
<glyph horiz-adv-x="251" d="M 50 0 L 50 0 Z M 201 0 L 50 0 L 50 730 L 201 730 L 201 0 Z M 125 793 L 125 793 Z M 188 793 L 63 793 L 63 931 L 188 931 L 188 793 Z" unicode="İ" />
<glyph horiz-adv-x="208" d="M 173 0 L 36 0 L 36 559 L 173 559 L 173 0 Z" unicode="ı" />
<glyph horiz-adv-x="544" d="M 50 0 L 50 0 Z M 201 0 L 50 0 L 50 730 L 201 730 L 201 0 Z M 510 730 L 510 182 C 510 126 493 80 461 45 C 428 9 384 -8 328 -8 C 314 -8 297 -6 278 -3 C 259 0 241 6 225 15 L 256 134 C 260 131 266 129 274 127 C 282 125 290 124 299 124 C 317 124 332 132 344 149 C 355 166 361 188 361 215 L 361 730 L 510 730 Z" unicode="Ĳ" />
<glyph horiz-adv-x="414" d="M 34 0 L 34 0 Z M 34 624 L 34 735 L 174 735 L 174 624 L 34 624 Z M 36 0 L 36 559 L 173 559 L 173 0 L 36 0 Z M 380 624 L 241 624 L 241 735 L 380 735 L 380 624 Z M 379 559 L 379 -52 C 379 -86 366 -115 342 -141 C 317 -166 284 -179 244 -179 C 224 -179 205 -176 188 -170 C 170 -164 160 -158 156 -154 L 187 -64 C 189 -64 193 -65 198 -67 C 203 -68 209 -69 216 -69 C 223 -69 229 -66 235 -60 C 240 -54 243 -47 243 -38 L 243 559 L 379 559 Z" unicode="ĳ" />
<glyph horiz-adv-x="317" d="M 0 0 L 0 0 Z M 273 730 L 273 182 C 273 126 256 80 224 45 C 191 9 147 -8 91 -8 C 77 -8 60 -6 41 -3 C 22 0 4 6 -12 15 L 19 134 C 23 131 29 129 37 127 C 45 125 53 124 62 124 C 80 124 95 132 107 149 C 118 166 124 188 124 215 L 124 730 L 273 730 Z M 200 791 L 200 791 Z M 358 791 L 245 791 L 200 869 L 154 791 L 43 791 L 143 964 L 258 964 L 358 791 Z" unicode="Ĵ" />
<glyph horiz-adv-x="214" d="M 0 0 L 0 0 Z M 179 559 L 179 -52 C 179 -86 166 -115 142 -141 C 117 -166 84 -179 44 -179 C 24 -179 5 -176 -12 -170 C -29 -164 -40 -158 -44 -154 L -13 -64 C -10 -64 -6 -65 -1 -67 C 3 -68 9 -69 16 -69 C 23 -69 29 -66 35 -60 C 40 -54 43 -47 43 -38 L 43 559 L 179 559 Z M 111 620 L 111 620 Z M 269 620 L 156 620 L 111 698 L 65 620 L -46 620 L 54 793 L 169 793 L 269 620 Z" unicode="ĵ" />
<glyph horiz-adv-x="533" d="M 46 0 L 46 0 Z M 543 0 L 378 0 L 218 274 L 197 248 L 197 0 L 46 0 L 46 730 L 197 730 L 197 453 L 372 730 L 525 730 L 307 407 L 543 0 Z M 273 -66 L 273 -66 Z M 379 -66 C 379 -90 375 -116 368 -144 C 360 -172 351 -198 341 -224 C 330 -249 318 -271 306 -291 C 294 -311 283 -324 273 -332 L 169 -286 C 176 -276 183 -264 191 -248 C 199 -232 206 -214 212 -194 C 218 -174 224 -153 229 -131 C 233 -109 236 -87 237 -66 L 379 -66 Z" unicode="Ķ" />
<glyph horiz-adv-x="421" d="M 34 0 L 34 0 Z M 431 0 L 287 0 L 199 199 L 170 151 L 170 0 L 34 0 L 34 800 L 163 800 L 163 322 L 283 559 L 423 559 L 292 315 L 431 0 Z M 207 -66 L 207 -66 Z M 313 -66 C 313 -90 309 -116 302 -144 C 294 -172 285 -198 275 -224 C 264 -249 252 -271 240 -291 C 228 -311 217 -324 207 -332 L 103 -286 C 110 -276 117 -264 125 -248 C 133 -232 140 -214 146 -194 C 152 -174 158 -153 163 -131 C 167 -109 170 -87 171 -66 L 313 -66 Z" unicode="ķ" />
<glyph horiz-adv-x="421" d="M 431 0 L 287 0 L 199 199 L 170 151 L 170 0 L 34 0 L 34 559 L 163 559 L 163 322 L 283 559 L 423 559 L 292 315 L 431 0 Z" unicode="ĸ" />
<glyph horiz-adv-x="370" d="M 46 0 L 46 0 Z M 363 0 L 46 0 L 46 730 L 196 730 L 196 127 L 363 127 L 363 0 Z M 243 790 L 243 790 Z M 118 790 L 211 964 L 368 964 L 250 790 L 118 790 Z" unicode="Ĺ" />
<glyph horiz-adv-x="236" d="M 33 0 L 33 0 Z M 33 140 L 33 800 L 169 800 L 169 158 C 169 140 171 127 177 119 C 182 111 191 107 203 107 C 207 107 210 107 214 108 C 217 108 220 109 222 110 L 238 11 C 230 6 221 2 209 0 C 197 -3 182 -5 166 -5 C 130 -5 98 7 72 33 C 46 58 33 94 33 140 Z M 167 860 L 167 860 Z M 42 860 L 135 1034 L 292 1034 L 174 860 L 42 860 Z" unicode="ĺ" />
<glyph horiz-adv-x="370" d="M 46 0 L 46 0 Z M 363 0 L 46 0 L 46 730 L 196 730 L 196 127 L 363 127 L 363 0 Z M 202 -66 L 202 -66 Z M 308 -66 C 308 -90 304 -116 297 -144 C 289 -172 280 -198 270 -224 C 259 -249 247 -271 235 -291 C 223 -311 212 -324 202 -332 L 98 -286 C 105 -276 112 -264 120 -248 C 128 -232 135 -214 141 -194 C 147 -174 153 -153 158 -131 C 162 -109 165 -87 166 -66 L 308 -66 Z" unicode="Ļ" />
<glyph horiz-adv-x="236" d="M 17 0 L 17 0 Z M 33 140 L 33 800 L 169 800 L 169 158 C 169 140 171 127 177 119 C 182 111 191 107 203 107 C 207 107 210 107 214 108 C 217 108 220 109 222 110 L 238 11 C 230 6 221 2 209 0 C 197 -3 182 -5 166 -5 C 130 -5 98 7 72 33 C 46 58 33 94 33 140 Z M 121 -66 L 121 -66 Z M 227 -66 C 227 -90 223 -116 216 -144 C 208 -172 199 -198 189 -224 C 178 -249 166 -271 154 -291 C 142 -311 131 -324 121 -332 L 17 -286 C 24 -276 31 -264 39 -248 C 47 -232 54 -214 60 -194 C 66 -174 72 -153 77 -131 C 81 -109 84 -87 85 -66 L 227 -66 Z" unicode="ļ" />
<glyph horiz-adv-x="370" d="M 46 0 L 46 0 Z M 363 0 L 46 0 L 46 730 L 196 730 L 196 127 L 363 127 L 363 0 Z M 413 620 L 408 466 L 290 466 L 284 620 L 284 730 L 413 730 L 413 620 Z" unicode="Ľ" />
<glyph horiz-adv-x="236" d="M 33 0 L 33 0 Z M 33 140 L 33 800 L 169 800 L 169 158 C 169 140 171 127 177 119 C 182 111 191 107 203 107 C 207 107 210 107 214 108 C 217 108 220 109 222 110 L 238 11 C 230 6 221 2 209 0 C 197 -3 182 -5 166 -5 C 130 -5 98 7 72 33 C 46 58 33 94 33 140 Z M 326 620 L 321 466 L 203 466 L 197 620 L 197 730 L 326 730 L 326 620 Z" unicode="ľ" />
<glyph horiz-adv-x="370" d="M 46 0 L 46 0 Z M 363 0 L 46 0 L 46 730 L 196 730 L 196 127 L 363 127 L 363 0 Z M 303 296 L 303 296 Z M 366 296 L 241 296 L 241 434 L 366 434 L 366 296 Z" unicode="Ŀ" />
<glyph horiz-adv-x="236" d="M 33 0 L 33 0 Z M 33 140 L 33 800 L 169 800 L 169 158 C 169 140 171 127 177 119 C 182 111 191 107 203 107 C 207 107 210 107 214 108 C 217 108 220 109 222 110 L 238 11 C 230 6 221 2 209 0 C 197 -3 182 -5 166 -5 C 130 -5 98 7 72 33 C 46 58 33 94 33 140 Z M 255 245 L 255 245 Z M 318 245 L 193 245 L 193 383 L 318 383 L 318 245 Z" unicode="ŀ" />
<glyph horiz-adv-x="370" d="M 363 123 L 363 0 L 46 0 L 46 242 L 19 230 L -30 337 L 46 371 L 46 730 L 196 730 L 196 438 L 291 480 L 339 373 L 196 309 L 196 123 L 363 123 Z" unicode="Ł" />
<glyph horiz-adv-x="236" d="M 245 11 C 238 6 229 2 217 0 C 205 -3 191 -5 175 -5 C 139 -5 109 7 83 33 C 57 58 45 94 45 140 L 45 240 L 15 225 L -25 319 L 45 353 L 45 800 L 180 800 L 180 420 L 229 444 L 271 350 L 180 306 L 180 160 C 180 141 182 127 187 119 C 192 111 200 107 211 107 C 214 107 217 107 220 107 C 223 107 226 108 228 109 L 245 11 Z" unicode="ł" />
<glyph horiz-adv-x="536" d="M 46 0 L 46 0 Z M 490 0 L 386 0 L 186 401 L 186 0 L 46 0 L 46 730 L 152 730 L 356 329 L 355 730 L 490 730 L 490 0 Z M 269 790 L 269 790 Z M 144 790 L 237 964 L 394 964 L 276 790 L 144 790 Z" unicode="Ń" />
<glyph horiz-adv-x="440" d="M 34 0 L 34 0 Z M 408 0 L 271 0 L 271 406 C 271 421 266 433 258 441 C 250 449 239 454 225 454 C 210 454 197 449 187 440 C 176 431 171 415 171 393 L 171 0 L 34 0 L 34 559 L 156 559 L 156 493 C 164 513 179 530 201 544 C 222 558 249 565 283 565 C 320 565 350 555 373 536 C 396 517 408 487 408 445 L 408 0 Z M 222 619 L 222 619 Z M 97 619 L 190 793 L 347 793 L 229 619 L 97 619 Z" unicode="ń" />
<glyph horiz-adv-x="536" d="M 46 0 L 46 0 Z M 490 0 L 386 0 L 186 401 L 186 0 L 46 0 L 46 730 L 152 730 L 356 329 L 355 730 L 490 730 L 490 0 Z M 257 -66 L 257 -66 Z M 363 -66 C 363 -90 359 -116 352 -144 C 344 -172 335 -198 325 -224 C 314 -249 302 -271 290 -291 C 278 -311 267 -324 257 -332 L 153 -286 C 160 -276 167 -264 175 -248 C 183 -232 190 -214 196 -194 C 202 -174 208 -153 213 -131 C 217 -109 220 -87 221 -66 L 363 -66 Z" unicode="Ņ" />
<glyph horiz-adv-x="440" d="M 34 0 L 34 0 Z M 408 0 L 271 0 L 271 406 C 271 421 266 433 258 441 C 250 449 239 454 225 454 C 210 454 197 449 187 440 C 176 431 171 415 171 393 L 171 0 L 34 0 L 34 559 L 156 559 L 156 493 C 164 513 179 530 201 544 C 222 558 249 565 283 565 C 320 565 350 555 373 536 C 396 517 408 487 408 445 L 408 0 Z M 207 -66 L 207 -66 Z M 313 -66 C 313 -90 309 -116 302 -144 C 294 -172 285 -198 275 -224 C 264 -249 252 -271 240 -291 C 228 -311 217 -324 207 -332 L 103 -286 C 110 -276 117 -264 125 -248 C 133 -232 140 -214 146 -194 C 152 -174 158 -153 163 -131 C 167 -109 170 -87 171 -66 L 313 -66 Z" unicode="ņ" />
<glyph horiz-adv-x="536" d="M 46 0 L 46 0 Z M 490 0 L 386 0 L 186 401 L 186 0 L 46 0 L 46 730 L 152 730 L 356 329 L 355 730 L 490 730 L 490 0 Z M 269 791 L 269 791 Z M 112 964 L 225 964 L 270 886 L 316 964 L 427 964 L 327 791 L 212 791 L 112 964 Z" unicode="Ň" />
<glyph horiz-adv-x="440" d="M 34 0 L 34 0 Z M 408 0 L 271 0 L 271 406 C 271 421 266 433 258 441 C 250 449 239 454 225 454 C 210 454 197 449 187 440 C 176 431 171 415 171 393 L 171 0 L 34 0 L 34 559 L 156 559 L 156 493 C 164 513 179 530 201 544 C 222 558 249 565 283 565 C 320 565 350 555 373 536 C 396 517 408 487 408 445 L 408 0 Z M 222 620 L 222 620 Z M 65 793 L 178 793 L 223 715 L 269 793 L 380 793 L 280 620 L 165 620 L 65 793 Z" unicode="ň" />
<glyph horiz-adv-x="536" d="M 355 730 L 490 730 L 490 -6 C 490 -62 475 -107 445 -143 C 415 -178 372 -196 316 -196 C 302 -196 285 -194 266 -191 C 247 -187 229 -181 213 -173 L 244 -54 C 248 -56 254 -59 262 -61 C 270 -63 279 -64 288 -64 C 306 -64 322 -55 336 -38 C 350 -21 357 0 357 27 L 357 58 L 186 401 L 186 0 L 46 0 L 46 730 L 152 730 L 356 329 L 355 730 Z" unicode="Ŋ" />
<glyph horiz-adv-x="440" d="M 283 565 C 320 565 350 555 373 536 C 396 517 408 487 408 445 L 408 -17 C 408 -67 393 -110 365 -145 C 336 -180 294 -198 240 -198 C 224 -198 208 -196 190 -193 C 172 -189 160 -185 153 -180 L 177 -73 C 181 -74 186 -75 193 -77 C 199 -78 206 -79 214 -79 C 232 -79 246 -70 256 -54 C 266 -38 271 -18 271 5 L 271 406 C 271 421 266 433 258 441 C 250 449 239 454 225 454 C 210 454 197 449 187 440 C 176 431 171 415 171 393 L 171 0 L 34 0 L 34 559 L 156 559 L 156 493 C 164 513 179 530 201 544 C 222 558 249 565 283 565 Z" unicode="ŋ" />
<glyph horiz-adv-x="567" d="M 26 0 L 26 0 Z M 286 -7 C 198 -7 133 25 90 91 C 47 156 26 249 26 371 C 26 484 48 573 92 639 C 136 704 199 737 281 737 C 367 737 431 705 475 641 C 519 577 541 485 541 365 C 541 249 518 158 472 92 C 426 26 364 -7 286 -7 Z M 283 109 C 319 109 345 129 362 169 C 379 209 388 276 388 372 C 388 460 379 524 361 563 C 343 601 316 621 282 621 C 245 621 219 601 203 563 C 187 525 179 459 179 365 C 179 270 187 204 205 166 C 223 128 249 109 283 109 Z M 283 798 L 283 798 Z M 416 798 L 150 798 L 150 906 L 416 906 L 416 798 Z" unicode="Ō" />
<glyph horiz-adv-x="441" d="M 17 0 L 17 0 Z M 219 -5 C 190 -5 163 0 139 12 C 114 23 93 40 75 64 C 57 87 42 117 32 153 C 22 189 17 231 17 279 C 17 368 35 438 72 489 C 109 539 157 565 215 565 C 277 565 328 542 366 497 C 404 451 424 384 424 295 C 424 200 405 126 369 74 C 332 21 282 -5 219 -5 Z M 221 100 C 241 100 257 112 267 137 C 277 162 282 211 282 285 C 282 319 280 348 278 371 C 275 393 271 411 266 424 C 260 436 254 445 246 450 C 238 455 229 458 219 458 C 199 458 184 446 174 423 C 164 400 160 354 160 285 C 160 247 161 215 164 191 C 166 167 170 148 176 135 C 181 121 187 112 195 107 C 202 102 211 100 221 100 Z M 221 627 L 221 627 Z M 354 627 L 88 627 L 88 735 L 354 735 L 354 627 Z" unicode="ō" />
<glyph horiz-adv-x="567" d="M 26 0 L 26 0 Z M 286 -7 C 198 -7 133 25 90 91 C 47 156 26 249 26 371 C 26 484 48 573 92 639 C 136 704 199 737 281 737 C 367 737 431 705 475 641 C 519 577 541 485 541 365 C 541 249 518 158 472 92 C 426 26 364 -7 286 -7 Z M 283 109 C 319 109 345 129 362 169 C 379 209 388 276 388 372 C 388 460 379 524 361 563 C 343 601 316 621 282 621 C 245 621 219 601 203 563 C 187 525 179 459 179 365 C 179 270 187 204 205 166 C 223 128 249 109 283 109 Z M 283 791 L 283 791 Z M 325 953 L 438 953 C 433 897 417 856 390 830 C 362 804 327 791 283 791 C 239 791 203 804 176 830 C 148 856 133 897 129 953 L 241 953 C 242 930 245 912 251 900 C 257 888 267 882 283 882 C 298 882 309 888 315 900 C 321 912 324 929 325 953 Z" unicode="Ŏ" />
<glyph horiz-adv-x="441" d="M 17 0 L 17 0 Z M 219 -5 C 190 -5 163 0 139 12 C 114 23 93 40 75 64 C 57 87 42 117 32 153 C 22 189 17 231 17 279 C 17 368 35 438 72 489 C 109 539 157 565 215 565 C 277 565 328 542 366 497 C 404 451 424 384 424 295 C 424 200 405 126 369 74 C 332 21 282 -5 219 -5 Z M 221 100 C 241 100 257 112 267 137 C 277 162 282 211 282 285 C 282 319 280 348 278 371 C 275 393 271 411 266 424 C 260 436 254 445 246 450 C 238 455 229 458 219 458 C 199 458 184 446 174 423 C 164 400 160 354 160 285 C 160 247 161 215 164 191 C 166 167 170 148 176 135 C 181 121 187 112 195 107 C 202 102 211 100 221 100 Z M 221 620 L 221 620 Z M 263 782 L 376 782 C 371 726 355 685 328 659 C 300 633 265 620 221 620 C 177 620 141 633 114 659 C 86 685 71 726 67 782 L 179 782 C 180 759 183 741 189 729 C 195 717 205 711 221 711 C 236 711 247 717 253 729 C 259 741 262 758 263 782 Z" unicode="ŏ" />
<glyph horiz-adv-x="567" d="M 26 0 L 26 0 Z M 286 -7 C 198 -7 133 25 90 91 C 47 156 26 249 26 371 C 26 484 48 573 92 639 C 136 704 199 737 281 737 C 367 737 431 705 475 641 C 519 577 541 485 541 365 C 541 249 518 158 472 92 C 426 26 364 -7 286 -7 Z M 283 109 C 319 109 345 129 362 169 C 379 209 388 276 388 372 C 388 460 379 524 361 563 C 343 601 316 621 282 621 C 245 621 219 601 203 563 C 187 525 179 459 179 365 C 179 270 187 204 205 166 C 223 128 249 109 283 109 Z M 283 790 L 283 790 Z M 74 790 L 144 957 L 289 957 L 195 790 L 74 790 Z M 277 790 L 347 957 L 493 957 L 397 790 L 277 790 Z" unicode="Ő" />
<glyph horiz-adv-x="441" d="M 12 0 L 12 0 Z M 219 -5 C 190 -5 163 0 139 12 C 114 23 93 40 75 64 C 57 87 42 117 32 153 C 22 189 17 231 17 279 C 17 368 35 438 72 489 C 109 539 157 565 215 565 C 277 565 328 542 366 497 C 404 451 424 384 424 295 C 424 200 405 126 369 74 C 332 21 282 -5 219 -5 Z M 221 100 C 241 100 257 112 267 137 C 277 162 282 211 282 285 C 282 319 280 348 278 371 C 275 393 271 411 266 424 C 260 436 254 445 246 450 C 238 455 229 458 219 458 C 199 458 184 446 174 423 C 164 400 160 354 160 285 C 160 247 161 215 164 191 C 166 167 170 148 176 135 C 181 121 187 112 195 107 C 202 102 211 100 221 100 Z M 221 619 L 221 619 Z M 12 619 L 82 786 L 227 786 L 133 619 L 12 619 Z M 215 619 L 285 786 L 431 786 L 335 619 L 215 619 Z" unicode="ő" />
<glyph horiz-adv-x="744" d="M 255 -7 C 181 -7 125 25 85 91 C 45 156 26 249 26 371 C 26 484 46 573 88 639 C 130 704 185 737 253 737 C 289 737 317 728 337 712 C 357 695 371 677 378 657 L 378 730 L 714 730 L 714 603 L 523 603 L 523 426 L 704 426 L 704 301 L 523 301 L 523 127 L 734 127 L 734 0 L 378 0 L 378 83 C 370 59 356 38 335 20 C 313 2 287 -7 255 -7 Z M 278 104 C 312 104 337 124 354 165 C 370 206 379 275 379 372 C 379 462 370 526 353 566 C 335 606 310 626 277 626 C 241 626 216 606 201 567 C 185 527 178 460 178 365 C 178 268 186 200 202 162 C 218 123 244 104 278 104 Z" unicode="Œ" />
<glyph horiz-adv-x="677" d="M 220 -5 C 191 -5 164 0 140 12 C 115 23 93 40 75 64 C 57 87 42 117 32 153 C 22 189 17 231 17 279 C 17 368 35 438 73 489 C 110 539 158 565 216 565 C 252 565 282 555 307 535 C 332 515 347 492 353 466 C 357 490 371 513 395 533 C 418 553 446 563 479 563 C 537 563 582 537 614 485 C 646 433 662 354 662 247 L 415 247 C 415 207 422 174 437 146 C 452 118 475 104 507 104 C 529 104 548 109 566 120 C 583 130 597 142 609 155 L 656 86 C 648 76 639 65 628 55 C 616 44 604 34 590 25 C 576 16 560 9 543 3 C 526 -2 508 -5 490 -5 C 448 -5 416 4 394 22 C 372 40 358 61 352 86 C 341 61 325 40 305 22 C 284 4 256 -5 220 -5 Z M 411 335 L 535 335 C 535 377 529 408 518 429 C 507 449 493 460 476 460 C 458 460 443 449 431 429 C 419 408 412 377 411 335 Z M 222 99 C 232 99 240 101 248 107 C 256 112 262 121 268 135 C 273 149 277 168 280 192 C 282 216 284 247 284 285 C 284 320 282 349 279 372 C 276 394 272 412 266 424 C 260 436 254 445 246 450 C 238 454 230 457 220 457 C 211 457 203 454 195 450 C 187 445 181 436 176 424 C 171 411 167 393 164 371 C 161 349 160 320 160 285 C 160 245 161 213 165 189 C 168 165 172 146 178 133 C 183 119 189 110 197 106 C 205 101 213 99 222 99 Z" unicode="œ" />
<glyph horiz-adv-x="485" d="M 46 0 L 46 0 Z M 46 0 L 46 730 L 244 730 C 301 730 348 713 385 679 C 421 645 440 594 440 525 C 440 475 429 432 409 398 C 389 364 364 343 335 335 L 331 329 L 489 0 L 340 0 L 212 281 L 184 281 L 184 0 L 46 0 Z M 184 398 L 225 398 C 248 398 267 407 283 427 C 299 447 307 474 307 509 C 307 547 299 575 284 592 C 268 609 250 618 230 618 L 184 618 L 184 398 Z M 231 790 L 231 790 Z M 106 790 L 199 964 L 356 964 L 238 790 L 106 790 Z" unicode="Ŕ" />
<glyph horiz-adv-x="327" d="M 34 0 L 34 0 Z M 335 537 L 293 418 C 283 426 274 431 266 434 C 258 437 248 439 238 439 C 223 439 208 432 193 420 C 178 407 171 382 171 346 L 171 0 L 34 0 L 34 559 L 160 559 L 160 484 C 166 505 178 524 196 540 C 214 556 234 565 256 565 C 274 565 290 562 304 556 C 317 550 327 543 335 537 Z M 193 619 L 193 619 Z M 68 619 L 161 793 L 318 793 L 200 619 L 68 619 Z" unicode="ŕ" />
<glyph horiz-adv-x="485" d="M 46 0 L 46 0 Z M 46 0 L 46 730 L 244 730 C 301 730 348 713 385 679 C 421 645 440 594 440 525 C 440 475 429 432 409 398 C 389 364 364 343 335 335 L 331 329 L 489 0 L 340 0 L 212 281 L 184 281 L 184 0 L 46 0 Z M 184 398 L 225 398 C 248 398 267 407 283 427 C 299 447 307 474 307 509 C 307 547 299 575 284 592 C 268 609 250 618 230 618 L 184 618 L 184 398 Z M 239 -66 L 239 -66 Z M 345 -66 C 345 -90 341 -116 334 -144 C 326 -172 317 -198 307 -224 C 296 -249 284 -271 272 -291 C 260 -311 249 -324 239 -332 L 135 -286 C 142 -276 149 -264 157 -248 C 165 -232 172 -214 178 -194 C 184 -174 190 -153 195 -131 C 199 -109 202 -87 203 -66 L 345 -66 Z" unicode="Ŗ" />
<glyph horiz-adv-x="327" d="M 34 0 L 34 0 Z M 335 537 L 293 418 C 283 426 274 431 266 434 C 258 437 248 439 238 439 C 223 439 208 432 193 420 C 178 407 171 382 171 346 L 171 0 L 34 0 L 34 559 L 160 559 L 160 484 C 166 505 178 524 196 540 C 214 556 234 565 256 565 C 274 565 290 562 304 556 C 317 550 327 543 335 537 Z M 176 -66 L 176 -66 Z M 282 -66 C 282 -90 278 -116 271 -144 C 263 -172 254 -198 244 -224 C 233 -249 221 -271 209 -291 C 197 -311 186 -324 176 -332 L 72 -286 C 79 -276 86 -264 94 -248 C 102 -232 109 -214 115 -194 C 121 -174 127 -153 132 -131 C 136 -109 139 -87 140 -66 L 282 -66 Z" unicode="ŗ" />
<glyph horiz-adv-x="485" d="M 46 0 L 46 0 Z M 46 0 L 46 730 L 244 730 C 301 730 348 713 385 679 C 421 645 440 594 440 525 C 440 475 429 432 409 398 C 389 364 364 343 335 335 L 331 329 L 489 0 L 340 0 L 212 281 L 184 281 L 184 0 L 46 0 Z M 184 398 L 225 398 C 248 398 267 407 283 427 C 299 447 307 474 307 509 C 307 547 299 575 284 592 C 268 609 250 618 230 618 L 184 618 L 184 398 Z M 231 791 L 231 791 Z M 74 964 L 187 964 L 232 886 L 278 964 L 389 964 L 289 791 L 174 791 L 74 964 Z" unicode="Ř" />
<glyph horiz-adv-x="327" d="M 34 0 L 34 0 Z M 335 537 L 293 418 C 283 426 274 431 266 434 C 258 437 248 439 238 439 C 223 439 208 432 193 420 C 178 407 171 382 171 346 L 171 0 L 34 0 L 34 559 L 160 559 L 160 484 C 166 505 178 524 196 540 C 214 556 234 565 256 565 C 274 565 290 562 304 556 C 317 550 327 543 335 537 Z M 193 620 L 193 620 Z M 36 793 L 149 793 L 194 715 L 240 793 L 351 793 L 251 620 L 136 620 L 36 793 Z" unicode="ř" />
<glyph horiz-adv-x="440" d="M 9 0 L 9 0 Z M 219 -7 C 176 -7 138 0 104 11 C 70 23 38 47 9 83 L 92 165 C 104 145 121 129 143 118 C 164 107 185 102 205 102 C 227 102 247 109 265 124 C 282 139 291 160 291 188 C 291 216 282 239 265 257 C 248 274 219 296 177 323 C 137 348 102 378 74 413 C 46 448 32 495 32 555 C 32 583 37 608 48 630 C 58 652 73 672 91 688 C 109 704 131 716 155 724 C 179 732 205 737 232 737 C 276 737 312 729 340 715 C 368 701 390 685 406 667 L 326 582 C 315 592 302 602 286 610 C 270 618 254 622 238 622 C 220 622 204 615 188 602 C 172 589 165 571 165 548 C 165 526 172 507 185 491 C 198 475 227 453 272 426 C 324 395 362 362 386 327 C 409 292 421 247 421 191 C 421 157 415 128 403 103 C 391 78 376 57 358 41 C 339 25 317 13 293 5 C 269 -3 244 -7 219 -7 Z M 224 790 L 224 790 Z M 99 790 L 192 964 L 349 964 L 231 790 L 99 790 Z" unicode="Ś" />
<glyph horiz-adv-x="344" d="M 9 0 L 9 0 Z M 175 -6 C 139 -6 106 1 76 16 C 46 30 23 49 9 72 L 68 156 C 80 139 95 126 111 117 C 127 107 142 103 157 103 C 171 103 183 107 193 116 C 203 124 209 137 209 154 C 209 171 201 186 186 198 C 171 210 152 223 130 238 C 103 255 79 276 58 302 C 37 328 27 365 27 414 C 27 434 30 453 38 471 C 45 489 55 506 68 520 C 81 534 97 545 115 553 C 133 561 153 566 175 566 C 205 566 233 561 258 551 C 282 541 302 529 318 516 L 273 417 C 263 425 249 434 233 442 C 217 450 202 455 188 455 C 175 455 163 451 153 445 C 143 439 138 429 138 415 C 138 400 145 387 159 377 C 173 367 194 352 222 334 C 258 310 284 284 301 257 C 317 229 326 193 326 149 C 326 121 321 97 311 77 C 301 57 288 41 273 29 C 258 17 242 8 224 2 C 206 -3 190 -6 175 -6 Z M 177 619 L 177 619 Z M 52 619 L 145 793 L 302 793 L 184 619 L 52 619 Z" unicode="ś" />
<glyph horiz-adv-x="440" d="M 9 0 L 9 0 Z M 219 -7 C 176 -7 138 0 104 11 C 70 23 38 47 9 83 L 92 165 C 104 145 121 129 143 118 C 164 107 185 102 205 102 C 227 102 247 109 265 124 C 282 139 291 160 291 188 C 291 216 282 239 265 257 C 248 274 219 296 177 323 C 137 348 102 378 74 413 C 46 448 32 495 32 555 C 32 583 37 608 48 630 C 58 652 73 672 91 688 C 109 704 131 716 155 724 C 179 732 205 737 232 737 C 276 737 312 729 340 715 C 368 701 390 685 406 667 L 326 582 C 315 592 302 602 286 610 C 270 618 254 622 238 622 C 220 622 204 615 188 602 C 172 589 165 571 165 548 C 165 526 172 507 185 491 C 198 475 227 453 272 426 C 324 395 362 362 386 327 C 409 292 421 247 421 191 C 421 157 415 128 403 103 C 391 78 376 57 358 41 C 339 25 317 13 293 5 C 269 -3 244 -7 219 -7 Z M 224 791 L 224 791 Z M 382 791 L 269 791 L 224 869 L 178 791 L 67 791 L 167 964 L 282 964 L 382 791 Z" unicode="Ŝ" />
<glyph horiz-adv-x="344" d="M 9 0 L 9 0 Z M 175 -6 C 139 -6 106 1 76 16 C 46 30 23 49 9 72 L 68 156 C 80 139 95 126 111 117 C 127 107 142 103 157 103 C 171 103 183 107 193 116 C 203 124 209 137 209 154 C 209 171 201 186 186 198 C 171 210 152 223 130 238 C 103 255 79 276 58 302 C 37 328 27 365 27 414 C 27 434 30 453 38 471 C 45 489 55 506 68 520 C 81 534 97 545 115 553 C 133 561 153 566 175 566 C 205 566 233 561 258 551 C 282 541 302 529 318 516 L 273 417 C 263 425 249 434 233 442 C 217 450 202 455 188 455 C 175 455 163 451 153 445 C 143 439 138 429 138 415 C 138 400 145 387 159 377 C 173 367 194 352 222 334 C 258 310 284 284 301 257 C 317 229 326 193 326 149 C 326 121 321 97 311 77 C 301 57 288 41 273 29 C 258 17 242 8 224 2 C 206 -3 190 -6 175 -6 Z M 177 620 L 177 620 Z M 335 620 L 222 620 L 177 698 L 131 620 L 20 620 L 120 793 L 235 793 L 335 620 Z" unicode="ŝ" />
<glyph horiz-adv-x="440" d="M 9 0 L 9 0 Z M 219 -7 C 176 -7 138 0 104 11 C 70 23 38 47 9 83 L 92 165 C 104 145 121 129 143 118 C 164 107 185 102 205 102 C 227 102 247 109 265 124 C 282 139 291 160 291 188 C 291 216 282 239 265 257 C 248 274 219 296 177 323 C 137 348 102 378 74 413 C 46 448 32 495 32 555 C 32 583 37 608 48 630 C 58 652 73 672 91 688 C 109 704 131 716 155 724 C 179 732 205 737 232 737 C 276 737 312 729 340 715 C 368 701 390 685 406 667 L 326 582 C 315 592 302 602 286 610 C 270 618 254 622 238 622 C 220 622 204 615 188 602 C 172 589 165 571 165 548 C 165 526 172 507 185 491 C 198 475 227 453 272 426 C 324 395 362 362 386 327 C 409 292 421 247 421 191 C 421 157 415 128 403 103 C 391 78 376 57 358 41 C 339 25 317 13 293 5 C 269 -3 244 -7 219 -7 Z M 197 0 L 197 0 Z M 199 -180 C 177 -180 157 -177 138 -171 C 119 -165 103 -157 90 -147 L 117 -99 C 123 -103 132 -108 144 -114 C 155 -120 167 -123 180 -123 C 188 -123 196 -120 202 -116 C 208 -112 211 -106 211 -100 C 211 -91 208 -85 202 -81 C 196 -77 189 -76 183 -76 C 178 -76 173 -76 169 -77 C 164 -78 160 -79 157 -81 L 141 -59 L 198 15 L 262 15 L 221 -38 C 245 -38 265 -43 281 -53 C 297 -63 305 -79 305 -101 C 305 -125 294 -145 274 -159 C 253 -173 228 -180 199 -180 Z" unicode="Ş" />
<glyph horiz-adv-x="344" d="M 9 0 L 9 0 Z M 175 -6 C 139 -6 106 1 76 16 C 46 30 23 49 9 72 L 68 156 C 80 139 95 126 111 117 C 127 107 142 103 157 103 C 171 103 183 107 193 116 C 203 124 209 137 209 154 C 209 171 201 186 186 198 C 171 210 152 223 130 238 C 103 255 79 276 58 302 C 37 328 27 365 27 414 C 27 434 30 453 38 471 C 45 489 55 506 68 520 C 81 534 97 545 115 553 C 133 561 153 566 175 566 C 205 566 233 561 258 551 C 282 541 302 529 318 516 L 273 417 C 263 425 249 434 233 442 C 217 450 202 455 188 455 C 175 455 163 451 153 445 C 143 439 138 429 138 415 C 138 400 145 387 159 377 C 173 367 194 352 222 334 C 258 310 284 284 301 257 C 317 229 326 193 326 149 C 326 121 321 97 311 77 C 301 57 288 41 273 29 C 258 17 242 8 224 2 C 206 -3 190 -6 175 -6 Z M 158 0 L 158 0 Z M 160 -180 C 138 -180 118 -177 99 -171 C 80 -165 64 -157 51 -147 L 78 -99 C 84 -103 93 -108 105 -114 C 116 -120 128 -123 141 -123 C 149 -123 157 -120 163 -116 C 169 -112 172 -106 172 -100 C 172 -91 169 -85 163 -81 C 157 -77 150 -76 144 -76 C 139 -76 134 -76 130 -77 C 125 -78 121 -79 118 -81 L 102 -59 L 159 15 L 223 15 L 182 -38 C 206 -38 226 -43 242 -53 C 258 -63 266 -79 266 -101 C 266 -125 255 -145 235 -159 C 214 -173 189 -180 160 -180 Z" unicode="ş" />
<glyph horiz-adv-x="440" d="M 9 0 L 9 0 Z M 219 -7 C 176 -7 138 0 104 11 C 70 23 38 47 9 83 L 92 165 C 104 145 121 129 143 118 C 164 107 185 102 205 102 C 227 102 247 109 265 124 C 282 139 291 160 291 188 C 291 216 282 239 265 257 C 248 274 219 296 177 323 C 137 348 102 378 74 413 C 46 448 32 495 32 555 C 32 583 37 608 48 630 C 58 652 73 672 91 688 C 109 704 131 716 155 724 C 179 732 205 737 232 737 C 276 737 312 729 340 715 C 368 701 390 685 406 667 L 326 582 C 315 592 302 602 286 610 C 270 618 254 622 238 622 C 220 622 204 615 188 602 C 172 589 165 571 165 548 C 165 526 172 507 185 491 C 198 475 227 453 272 426 C 324 395 362 362 386 327 C 409 292 421 247 421 191 C 421 157 415 128 403 103 C 391 78 376 57 358 41 C 339 25 317 13 293 5 C 269 -3 244 -7 219 -7 Z M 224 791 L 224 791 Z M 67 964 L 180 964 L 225 886 L 271 964 L 382 964 L 282 791 L 167 791 L 67 964 Z" unicode="Š" />
<glyph horiz-adv-x="344" d="M 9 0 L 9 0 Z M 175 -6 C 139 -6 106 1 76 16 C 46 30 23 49 9 72 L 68 156 C 80 139 95 126 111 117 C 127 107 142 103 157 103 C 171 103 183 107 193 116 C 203 124 209 137 209 154 C 209 171 201 186 186 198 C 171 210 152 223 130 238 C 103 255 79 276 58 302 C 37 328 27 365 27 414 C 27 434 30 453 38 471 C 45 489 55 506 68 520 C 81 534 97 545 115 553 C 133 561 153 566 175 566 C 205 566 233 561 258 551 C 282 541 302 529 318 516 L 273 417 C 263 425 249 434 233 442 C 217 450 202 455 188 455 C 175 455 163 451 153 445 C 143 439 138 429 138 415 C 138 400 145 387 159 377 C 173 367 194 352 222 334 C 258 310 284 284 301 257 C 317 229 326 193 326 149 C 326 121 321 97 311 77 C 301 57 288 41 273 29 C 258 17 242 8 224 2 C 206 -3 190 -6 175 -6 Z M 177 620 L 177 620 Z M 20 793 L 133 793 L 178 715 L 224 793 L 335 793 L 235 620 L 120 620 L 20 793 Z" unicode="š" />
<glyph horiz-adv-x="394" d="M 5 0 L 5 0 Z M 390 603 L 273 603 L 273 0 L 123 0 L 123 603 L 5 603 L 5 730 L 390 730 L 390 603 Z M 197 791 L 197 791 Z M 40 964 L 153 964 L 198 886 L 244 964 L 355 964 L 255 791 L 140 791 L 40 964 Z" unicode="Ť" />
<glyph horiz-adv-x="272" d="M 5 0 L 5 0 Z M 244 122 L 273 26 C 265 19 254 12 240 6 C 226 0 208 -4 184 -4 C 168 -4 152 0 136 5 C 120 11 105 21 93 33 C 80 45 70 61 62 79 C 54 97 50 118 50 142 L 50 447 L 5 447 L 5 559 L 53 559 L 53 678 L 182 687 L 182 559 L 251 559 L 251 447 L 186 447 L 186 147 C 186 136 188 128 194 122 C 199 116 206 114 215 114 C 220 114 225 114 231 116 C 236 118 240 120 244 122 Z M 406 620 L 401 466 L 283 466 L 277 620 L 277 730 L 406 730 L 406 620 Z" unicode="ť" />
<glyph horiz-adv-x="394" d="M 370 387 L 273 387 L 273 0 L 123 0 L 123 387 L 24 387 L 24 506 L 123 506 L 123 603 L 5 603 L 5 730 L 390 730 L 390 603 L 273 603 L 273 506 L 370 506 L 370 387 Z" unicode="Ŧ" />
<glyph horiz-adv-x="272" d="M 273 26 C 265 19 254 12 240 6 C 226 0 208 -4 184 -4 C 168 -4 152 0 136 5 C 120 11 105 21 93 33 C 80 45 70 61 62 79 C 54 97 50 118 50 142 L 50 280 L 13 280 L 13 380 L 50 380 L 50 447 L 5 447 L 5 559 L 53 559 L 53 678 L 182 687 L 182 559 L 251 559 L 251 447 L 186 447 L 186 380 L 230 380 L 230 280 L 186 280 L 186 147 C 186 136 188 128 194 122 C 199 116 206 114 215 114 C 220 114 225 114 231 116 C 236 118 240 120 244 122 L 273 26 Z" unicode="ŧ" />
<glyph horiz-adv-x="544" d="M 43 0 L 43 0 Z M 501 730 L 501 228 C 501 186 494 150 480 120 C 466 90 449 66 427 47 C 405 28 379 14 351 6 C 322 -2 293 -7 263 -7 C 233 -7 205 -2 179 5 C 152 13 129 27 109 45 C 89 63 73 88 61 118 C 49 148 43 184 43 228 L 43 730 L 192 730 L 192 221 C 192 185 198 159 212 144 C 226 129 244 122 267 122 C 289 122 308 129 322 143 C 336 157 344 183 344 221 L 344 730 L 501 730 Z M 270 793 L 270 793 Z M 341 946 L 442 946 C 442 894 434 855 418 830 C 402 805 382 793 358 793 C 338 793 321 796 307 802 C 293 808 282 814 274 819 C 265 823 257 828 249 832 C 241 836 233 839 226 839 C 218 839 212 835 207 827 C 202 819 199 809 199 797 L 99 797 C 99 848 109 886 129 912 C 149 937 171 950 194 950 C 212 950 226 947 238 941 C 250 935 261 930 271 924 C 279 919 286 915 292 912 C 298 908 305 907 312 907 C 318 907 325 910 331 916 C 337 922 341 932 341 946 Z" unicode="Ũ" />
<glyph horiz-adv-x="441" d="M 32 0 L 32 0 Z M 32 559 L 169 559 L 169 157 C 169 136 173 121 182 111 C 191 101 203 97 218 97 C 232 97 244 102 254 114 C 264 125 270 145 270 174 L 270 559 L 407 559 L 407 0 L 281 0 L 281 66 C 272 46 256 29 234 15 C 211 1 185 -6 157 -6 C 124 -6 95 4 70 26 C 44 48 32 81 32 125 L 32 559 Z M 219 622 L 219 622 Z M 290 775 L 391 775 C 391 723 383 684 367 659 C 351 634 331 622 307 622 C 287 622 270 625 256 631 C 242 637 231 643 223 648 C 214 652 206 657 198 661 C 190 665 182 668 175 668 C 167 668 161 664 156 656 C 151 648 148 638 148 626 L 48 626 C 48 677 58 715 78 741 C 98 766 120 779 143 779 C 161 779 175 776 187 770 C 199 764 210 759 220 753 C 228 748 235 744 241 741 C 247 737 254 736 261 736 C 267 736 274 739 280 745 C 286 751 290 761 290 775 Z" unicode="ũ" />
<glyph horiz-adv-x="544" d="M 43 0 L 43 0 Z M 501 730 L 501 228 C 501 186 494 150 480 120 C 466 90 449 66 427 47 C 405 28 379 14 351 6 C 322 -2 293 -7 263 -7 C 233 -7 205 -2 179 5 C 152 13 129 27 109 45 C 89 63 73 88 61 118 C 49 148 43 184 43 228 L 43 730 L 192 730 L 192 221 C 192 185 198 159 212 144 C 226 129 244 122 267 122 C 289 122 308 129 322 143 C 336 157 344 183 344 221 L 344 730 L 501 730 Z M 270 798 L 270 798 Z M 403 798 L 137 798 L 137 906 L 403 906 L 403 798 Z" unicode="Ū" />
<glyph horiz-adv-x="441" d="M 32 0 L 32 0 Z M 32 559 L 169 559 L 169 157 C 169 136 173 121 182 111 C 191 101 203 97 218 97 C 232 97 244 102 254 114 C 264 125 270 145 270 174 L 270 559 L 407 559 L 407 0 L 281 0 L 281 66 C 272 46 256 29 234 15 C 211 1 185 -6 157 -6 C 124 -6 95 4 70 26 C 44 48 32 81 32 125 L 32 559 Z M 219 627 L 219 627 Z M 352 627 L 86 627 L 86 735 L 352 735 L 352 627 Z" unicode="ū" />
<glyph horiz-adv-x="544" d="M 43 0 L 43 0 Z M 501 730 L 501 228 C 501 186 494 150 480 120 C 466 90 449 66 427 47 C 405 28 379 14 351 6 C 322 -2 293 -7 263 -7 C 233 -7 205 -2 179 5 C 152 13 129 27 109 45 C 89 63 73 88 61 118 C 49 148 43 184 43 228 L 43 730 L 192 730 L 192 221 C 192 185 198 159 212 144 C 226 129 244 122 267 122 C 289 122 308 129 322 143 C 336 157 344 183 344 221 L 344 730 L 501 730 Z M 270 791 L 270 791 Z M 312 953 L 425 953 C 420 897 404 856 377 830 C 349 804 314 791 270 791 C 226 791 190 804 163 830 C 135 856 120 897 116 953 L 228 953 C 229 930 232 912 238 900 C 244 888 254 882 270 882 C 285 882 296 888 302 900 C 308 912 311 929 312 953 Z" unicode="Ŭ" />
<glyph horiz-adv-x="441" d="M 32 0 L 32 0 Z M 32 559 L 169 559 L 169 157 C 169 136 173 121 182 111 C 191 101 203 97 218 97 C 232 97 244 102 254 114 C 264 125 270 145 270 174 L 270 559 L 407 559 L 407 0 L 281 0 L 281 66 C 272 46 256 29 234 15 C 211 1 185 -6 157 -6 C 124 -6 95 4 70 26 C 44 48 32 81 32 125 L 32 559 Z M 219 620 L 219 620 Z M 261 782 L 374 782 C 369 726 353 685 326 659 C 298 633 263 620 219 620 C 175 620 139 633 112 659 C 84 685 69 726 65 782 L 177 782 C 178 759 181 741 187 729 C 193 717 203 711 219 711 C 234 711 245 717 251 729 C 257 741 260 758 261 782 Z" unicode="ŭ" />
<glyph horiz-adv-x="544" d="M 43 0 L 43 0 Z M 501 730 L 501 228 C 501 186 494 150 480 120 C 466 90 449 66 427 47 C 405 28 379 14 351 6 C 322 -2 293 -7 263 -7 C 233 -7 205 -2 179 5 C 152 13 129 27 109 45 C 89 63 73 88 61 118 C 49 148 43 184 43 228 L 43 730 L 192 730 L 192 221 C 192 185 198 159 212 144 C 226 129 244 122 267 122 C 289 122 308 129 322 143 C 336 157 344 183 344 221 L 344 730 L 501 730 Z M 270 771 L 270 771 Z M 270 771 C 235 771 205 783 181 808 C 156 832 144 862 144 897 C 144 931 156 961 181 986 C 205 1010 235 1023 270 1023 C 305 1023 335 1010 360 986 C 384 961 397 931 397 897 C 397 862 384 832 360 808 C 335 783 305 771 270 771 Z M 271 843 C 285 843 298 848 308 859 C 318 869 323 882 323 897 C 323 911 318 924 308 935 C 298 945 285 951 271 951 C 256 951 243 945 233 935 C 223 924 218 911 218 897 C 218 882 223 869 233 859 C 243 848 256 843 271 843 Z" unicode="Ů" />
<glyph horiz-adv-x="441" d="M 32 0 L 32 0 Z M 32 559 L 169 559 L 169 157 C 169 136 173 121 182 111 C 191 101 203 97 218 97 C 232 97 244 102 254 114 C 264 125 270 145 270 174 L 270 559 L 407 559 L 407 0 L 281 0 L 281 66 C 272 46 256 29 234 15 C 211 1 185 -6 157 -6 C 124 -6 95 4 70 26 C 44 48 32 81 32 125 L 32 559 Z M 219 600 L 219 600 Z M 219 600 C 184 600 154 612 130 637 C 105 661 93 691 93 726 C 93 760 105 790 130 815 C 154 839 184 852 219 852 C 254 852 284 839 309 815 C 333 790 346 760 346 726 C 346 691 333 661 309 637 C 284 612 254 600 219 600 Z M 220 672 C 234 672 247 677 257 688 C 267 698 272 711 272 726 C 272 740 267 753 257 764 C 247 774 234 780 220 780 C 205 780 192 774 182 764 C 172 753 167 740 167 726 C 167 711 172 698 182 688 C 192 677 205 672 220 672 Z" unicode="ů" />
<glyph horiz-adv-x="544" d="M 43 0 L 43 0 Z M 501 730 L 501 228 C 501 186 494 150 480 120 C 466 90 449 66 427 47 C 405 28 379 14 351 6 C 322 -2 293 -7 263 -7 C 233 -7 205 -2 179 5 C 152 13 129 27 109 45 C 89 63 73 88 61 118 C 49 148 43 184 43 228 L 43 730 L 192 730 L 192 221 C 192 185 198 159 212 144 C 226 129 244 122 267 122 C 289 122 308 129 322 143 C 336 157 344 183 344 221 L 344 730 L 501 730 Z M 270 790 L 270 790 Z M 61 790 L 131 957 L 276 957 L 182 790 L 61 790 Z M 264 790 L 334 957 L 480 957 L 384 790 L 264 790 Z" unicode="Ű" />
<glyph horiz-adv-x="441" d="M 10 0 L 10 0 Z M 32 559 L 169 559 L 169 157 C 169 136 173 121 182 111 C 191 101 203 97 218 97 C 232 97 244 102 254 114 C 264 125 270 145 270 174 L 270 559 L 407 559 L 407 0 L 281 0 L 281 66 C 272 46 256 29 234 15 C 211 1 185 -6 157 -6 C 124 -6 95 4 70 26 C 44 48 32 81 32 125 L 32 559 Z M 219 619 L 219 619 Z M 10 619 L 80 786 L 225 786 L 131 619 L 10 619 Z M 213 619 L 283 786 L 429 786 L 333 619 L 213 619 Z" unicode="ű" />
<glyph horiz-adv-x="544" d="M 43 0 L 43 0 Z M 501 730 L 501 228 C 501 186 494 150 480 120 C 466 90 449 66 427 47 C 405 28 379 14 351 6 C 322 -2 293 -7 263 -7 C 233 -7 205 -2 179 5 C 152 13 129 27 109 45 C 89 63 73 88 61 118 C 49 148 43 184 43 228 L 43 730 L 192 730 L 192 221 C 192 185 198 159 212 144 C 226 129 244 122 267 122 C 289 122 308 129 322 143 C 336 157 344 183 344 221 L 344 730 L 501 730 Z M 302 -5 L 302 -5 Z M 395 -72 L 432 -130 C 410 -152 387 -169 363 -181 C 339 -193 311 -199 281 -199 C 246 -199 219 -191 201 -176 C 182 -161 173 -142 173 -120 C 173 -94 184 -70 207 -48 C 230 -26 263 -7 307 8 L 356 8 C 333 -2 316 -14 306 -27 C 295 -39 290 -51 290 -63 C 290 -73 293 -82 300 -88 C 307 -94 316 -98 328 -98 C 342 -98 354 -95 365 -90 C 376 -85 386 -79 395 -72 Z" unicode="Ų" />
<glyph horiz-adv-x="441" d="M 32 0 L 32 0 Z M 32 559 L 169 559 L 169 157 C 169 136 173 121 182 111 C 191 101 203 97 218 97 C 232 97 244 102 254 114 C 264 125 270 145 270 174 L 270 559 L 407 559 L 407 0 L 281 0 L 281 66 C 272 46 256 29 234 15 C 211 1 185 -6 157 -6 C 124 -6 95 4 70 26 C 44 48 32 81 32 125 L 32 559 Z M 287 -5 L 287 -5 Z M 380 -72 L 417 -130 C 395 -152 372 -169 348 -181 C 324 -193 296 -199 266 -199 C 231 -199 204 -191 186 -176 C 167 -161 158 -142 158 -120 C 158 -94 169 -70 192 -48 C 215 -26 248 -7 292 8 L 341 8 C 318 -2 301 -14 291 -27 C 280 -39 275 -51 275 -63 C 275 -73 278 -82 285 -88 C 292 -94 301 -98 313 -98 C 327 -98 339 -95 350 -90 C 361 -85 371 -79 380 -72 Z" unicode="ų" />
<glyph horiz-adv-x="703" d="M 0 0 L 0 0 Z M 692 730 L 544 -3 L 444 -3 L 346 451 L 247 -3 L 146 -3 L -1 730 L 139 730 L 217 267 L 299 730 L 407 730 L 487 269 L 567 730 L 692 730 Z M 354 791 L 354 791 Z M 512 791 L 399 791 L 354 869 L 308 791 L 197 791 L 297 964 L 412 964 L 512 791 Z" unicode="Ŵ" />
<glyph horiz-adv-x="581" d="M 0 0 L 0 0 Z M 357 -2 L 292 259 L 224 -2 L 121 -2 L -1 559 L 126 559 L 193 207 L 249 459 L 340 459 L 396 208 L 464 559 L 581 559 L 458 -2 L 357 -2 Z M 290 620 L 290 620 Z M 448 620 L 335 620 L 290 698 L 244 620 L 133 620 L 233 793 L 348 793 L 448 620 Z" unicode="ŵ" />
<glyph horiz-adv-x="479" d="M 0 0 L 0 0 Z M 489 730 L 312 303 L 312 0 L 162 0 L 162 306 L -9 730 L 150 730 L 244 451 L 351 730 L 489 730 Z M 244 791 L 244 791 Z M 402 791 L 289 791 L 244 869 L 198 791 L 87 791 L 187 964 L 302 964 L 402 791 Z" unicode="Ŷ" />
<glyph horiz-adv-x="385" d="M 0 0 L 0 0 Z M 390 559 L 218 -91 C 208 -125 190 -152 163 -171 C 135 -190 105 -200 71 -200 C 45 -200 23 -197 6 -191 C -10 -185 -22 -180 -28 -175 L 12 -83 C 14 -85 20 -88 30 -91 C 39 -94 48 -96 57 -96 C 69 -96 80 -91 90 -81 C 100 -71 107 -56 112 -36 L 131 47 L -5 559 L 133 559 L 201 237 L 267 559 L 390 559 Z M 198 620 L 198 620 Z M 356 620 L 243 620 L 198 698 L 152 620 L 41 620 L 141 793 L 256 793 L 356 620 Z" unicode="ŷ" />
<glyph horiz-adv-x="479" d="M 0 0 L 0 0 Z M 489 730 L 312 303 L 312 0 L 162 0 L 162 306 L -9 730 L 150 730 L 244 451 L 351 730 L 489 730 Z M 244 791 L 244 791 Z M 382 791 L 272 791 L 272 952 L 382 952 L 382 791 Z M 216 791 L 106 791 L 106 952 L 216 952 L 216 791 Z" unicode="Ÿ" />
<glyph horiz-adv-x="431" d="M 13 0 L 13 0 Z M 407 730 L 407 654 L 185 124 L 417 124 L 417 0 L 13 0 L 13 73 L 238 605 L 37 605 L 37 730 L 407 730 Z M 227 790 L 227 790 Z M 102 790 L 195 964 L 352 964 L 234 790 L 102 790 Z" unicode="Ź" />
<glyph horiz-adv-x="354" d="M 11 0 L 11 0 Z M 339 559 L 339 503 L 173 111 L 343 111 L 343 0 L 11 0 L 11 43 L 182 447 L 22 447 L 22 559 L 339 559 Z M 186 619 L 186 619 Z M 61 619 L 154 793 L 311 793 L 193 619 L 61 619 Z" unicode="ź" />
<glyph horiz-adv-x="431" d="M 13 0 L 13 0 Z M 407 730 L 407 654 L 185 124 L 417 124 L 417 0 L 13 0 L 13 73 L 238 605 L 37 605 L 37 730 L 407 730 Z M 227 793 L 227 793 Z M 290 793 L 165 793 L 165 931 L 290 931 L 290 793 Z" unicode="Ż" />
<glyph horiz-adv-x="354" d="M 11 0 L 11 0 Z M 339 559 L 339 503 L 173 111 L 343 111 L 343 0 L 11 0 L 11 43 L 182 447 L 22 447 L 22 559 L 339 559 Z M 186 622 L 186 622 Z M 249 622 L 124 622 L 124 760 L 249 760 L 249 622 Z" unicode="ż" />
<glyph horiz-adv-x="431" d="M 13 0 L 13 0 Z M 407 730 L 407 654 L 185 124 L 417 124 L 417 0 L 13 0 L 13 73 L 238 605 L 37 605 L 37 730 L 407 730 Z M 227 791 L 227 791 Z M 70 964 L 183 964 L 228 886 L 274 964 L 385 964 L 285 791 L 170 791 L 70 964 Z" unicode="Ž" />
<glyph horiz-adv-x="354" d="M 11 0 L 11 0 Z M 339 559 L 339 503 L 173 111 L 343 111 L 343 0 L 11 0 L 11 43 L 182 447 L 22 447 L 22 559 L 339 559 Z" unicode="ž" />
<glyph horiz-adv-x="382" d="M 213 -47 C 211 -63 207 -78 200 -94 C 193 -110 184 -124 172 -137 C 160 -149 147 -159 131 -167 C 115 -175 97 -179 77 -179 C 54 -179 33 -177 13 -173 C -7 -169 -22 -164 -33 -159 L -20 -61 C -15 -61 -8 -63 1 -65 C 11 -67 20 -68 29 -68 C 47 -68 63 -62 75 -50 C 87 -38 95 -20 97 3 L 124 308 L 31 308 L 31 426 L 135 426 L 152 615 C 154 636 159 655 168 671 C 177 687 188 701 201 712 C 214 723 229 731 245 737 C 261 742 276 745 291 745 C 306 745 322 744 339 743 C 355 742 365 741 368 741 L 359 622 C 357 622 353 623 347 624 C 341 624 335 625 329 625 C 310 625 295 618 283 606 C 271 593 265 573 263 547 L 253 426 L 353 426 L 353 308 L 243 308 L 213 -47 Z" unicode="ƒ" />
<glyph horiz-adv-x="440" d="M 9 0 L 9 0 Z M 219 -7 C 176 -7 138 0 104 11 C 70 23 38 47 9 83 L 92 165 C 104 145 121 129 143 118 C 164 107 185 102 205 102 C 227 102 247 109 265 124 C 282 139 291 160 291 188 C 291 216 282 239 265 257 C 248 274 219 296 177 323 C 137 348 102 378 74 413 C 46 448 32 495 32 555 C 32 583 37 608 48 630 C 58 652 73 672 91 688 C 109 704 131 716 155 724 C 179 732 205 737 232 737 C 276 737 312 729 340 715 C 368 701 390 685 406 667 L 326 582 C 315 592 302 602 286 610 C 270 618 254 622 238 622 C 220 622 204 615 188 602 C 172 589 165 571 165 548 C 165 526 172 507 185 491 C 198 475 227 453 272 426 C 324 395 362 362 386 327 C 409 292 421 247 421 191 C 421 157 415 128 403 103 C 391 78 376 57 358 41 C 339 25 317 13 293 5 C 269 -3 244 -7 219 -7 Z M 197 -66 L 197 -66 Z M 303 -66 C 303 -90 299 -116 292 -144 C 284 -172 275 -198 265 -224 C 254 -249 242 -271 230 -291 C 218 -311 207 -324 197 -332 L 93 -286 C 100 -276 107 -264 115 -248 C 123 -232 130 -214 136 -194 C 142 -174 148 -153 153 -131 C 157 -109 160 -87 161 -66 L 303 -66 Z" unicode="Ș" />
<glyph horiz-adv-x="344" d="M 9 0 L 9 0 Z M 175 -6 C 139 -6 106 1 76 16 C 46 30 23 49 9 72 L 68 156 C 80 139 95 126 111 117 C 127 107 142 103 157 103 C 171 103 183 107 193 116 C 203 124 209 137 209 154 C 209 171 201 186 186 198 C 171 210 152 223 130 238 C 103 255 79 276 58 302 C 37 328 27 365 27 414 C 27 434 30 453 38 471 C 45 489 55 506 68 520 C 81 534 97 545 115 553 C 133 561 153 566 175 566 C 205 566 233 561 258 551 C 282 541 302 529 318 516 L 273 417 C 263 425 249 434 233 442 C 217 450 202 455 188 455 C 175 455 163 451 153 445 C 143 439 138 429 138 415 C 138 400 145 387 159 377 C 173 367 194 352 222 334 C 258 310 284 284 301 257 C 317 229 326 193 326 149 C 326 121 321 97 311 77 C 301 57 288 41 273 29 C 258 17 242 8 224 2 C 206 -3 190 -6 175 -6 Z M 158 -66 L 158 -66 Z M 264 -66 C 264 -90 260 -116 253 -144 C 245 -172 236 -198 226 -224 C 215 -249 203 -271 191 -291 C 179 -311 168 -324 158 -332 L 54 -286 C 61 -276 68 -264 76 -248 C 84 -232 91 -214 97 -194 C 103 -174 109 -153 114 -131 C 118 -109 121 -87 122 -66 L 264 -66 Z" unicode="ș" />
<glyph horiz-adv-x="394" d="M 5 0 L 5 0 Z M 390 603 L 273 603 L 273 0 L 123 0 L 123 603 L 5 603 L 5 730 L 390 730 L 390 603 Z M 177 -66 L 177 -66 Z M 283 -66 C 283 -90 279 -116 272 -144 C 264 -172 255 -198 245 -224 C 234 -249 222 -271 210 -291 C 198 -311 187 -324 177 -332 L 73 -286 C 80 -276 87 -264 95 -248 C 103 -232 110 -214 116 -194 C 122 -174 128 -153 133 -131 C 137 -109 140 -87 141 -66 L 283 -66 Z" unicode="Ț" />
<glyph horiz-adv-x="272" d="M 5 0 L 5 0 Z M 244 122 L 273 26 C 265 19 254 12 240 6 C 226 0 208 -4 184 -4 C 168 -4 152 0 136 5 C 120 11 105 21 93 33 C 80 45 70 61 62 79 C 54 97 50 118 50 142 L 50 447 L 5 447 L 5 559 L 53 559 L 53 678 L 182 687 L 182 559 L 251 559 L 251 447 L 186 447 L 186 147 C 186 136 188 128 194 122 C 199 116 206 114 215 114 C 220 114 225 114 231 116 C 236 118 240 120 244 122 Z M 133 -66 L 133 -66 Z M 239 -66 C 239 -90 235 -116 228 -144 C 220 -172 211 -198 201 -224 C 190 -249 178 -271 166 -291 C 154 -311 143 -324 133 -332 L 29 -286 C 36 -276 43 -264 51 -248 C 59 -232 66 -214 72 -194 C 78 -174 84 -153 89 -131 C 93 -109 96 -87 97 -66 L 239 -66 Z" unicode="ț" />
<glyph horiz-adv-x="214" d="M 179 559 L 179 -52 C 179 -86 166 -115 142 -141 C 117 -166 84 -179 44 -179 C 24 -179 5 -176 -12 -170 C -29 -164 -40 -158 -44 -154 L -13 -64 C -10 -64 -6 -65 -1 -67 C 3 -68 9 -69 16 -69 C 23 -69 29 -66 35 -60 C 40 -54 43 -47 43 -38 L 43 559 L 179 559 Z" unicode="ȷ" />
<glyph horiz-adv-x="500" d="M 408 620 L 295 620 L 250 698 L 204 620 L 93 620 L 193 793 L 308 793 L 408 620 Z" unicode="ˆ" />
<glyph horiz-adv-x="500" d="M 93 793 L 206 793 L 251 715 L 297 793 L 408 793 L 308 620 L 193 620 L 93 793 Z" unicode="ˇ" />
<glyph horiz-adv-x="500" d="M 292 782 L 405 782 C 400 726 384 685 357 659 C 329 633 294 620 250 620 C 206 620 170 633 143 659 C 115 685 100 726 96 782 L 208 782 C 209 759 212 741 218 729 C 224 717 234 711 250 711 C 265 711 276 717 282 729 C 288 741 291 758 292 782 Z" unicode="˘" />
<glyph horiz-adv-x="500" d="M 313 622 L 188 622 L 188 760 L 313 760 L 313 622 Z" unicode="˙" />
<glyph horiz-adv-x="500" d="M 250 600 C 215 600 185 612 161 637 C 136 661 124 691 124 726 C 124 760 136 790 161 815 C 185 839 215 852 250 852 C 285 852 315 839 340 815 C 364 790 377 760 377 726 C 377 691 364 661 340 637 C 315 612 285 600 250 600 Z M 251 672 C 265 672 278 677 288 688 C 298 698 303 711 303 726 C 303 740 298 753 288 764 C 278 774 265 780 251 780 C 236 780 223 774 213 764 C 203 753 198 740 198 726 C 198 711 203 698 213 688 C 223 677 236 672 251 672 Z" unicode="˚" />
<glyph horiz-adv-x="500" d="M 354 -67 L 391 -125 C 369 -147 346 -164 322 -176 C 298 -188 270 -194 240 -194 C 205 -194 178 -186 160 -171 C 141 -156 132 -137 132 -115 C 132 -89 143 -65 166 -43 C 189 -21 222 -2 266 13 L 315 13 C 292 2 275 -9 265 -22 C 254 -34 249 -46 249 -58 C 249 -68 252 -77 259 -83 C 266 -89 275 -93 287 -93 C 301 -93 313 -90 324 -85 C 335 -80 345 -74 354 -67 Z" unicode="˛" />
<glyph horiz-adv-x="500" d="M 327 775 L 428 775 C 428 723 420 684 404 659 C 388 634 368 622 344 622 C 324 622 307 625 293 631 C 279 637 268 643 260 648 C 251 652 243 657 235 661 C 227 665 219 668 212 668 C 204 668 198 664 193 656 C 188 648 185 638 185 626 L 85 626 C 85 677 95 715 115 741 C 135 766 157 779 180 779 C 198 779 212 776 224 770 C 236 764 247 759 257 753 C 265 748 272 744 278 741 C 284 737 291 736 298 736 C 304 736 311 739 317 745 C 323 751 327 761 327 775 Z" unicode="˜" />
<glyph horiz-adv-x="500" d="M 67 619 L 137 786 L 282 786 L 188 619 L 67 619 Z M 270 619 L 340 786 L 486 786 L 390 619 L 270 619 Z" unicode="˝" />
<glyph horiz-adv-x="0" d="M 0 619 L 0 619 Z M 125 619 L -7 619 L -126 793 L 32 793 L 125 619 Z" unicode="̀" />
<glyph horiz-adv-x="0" d="M 0 619 L 0 619 Z M -125 619 L -32 793 L 125 793 L 7 619 L -125 619 Z" unicode="́" />
<glyph horiz-adv-x="0" d="M 0 620 L 0 620 Z M 158 620 L 45 620 L 0 698 L -46 620 L -157 620 L -57 793 L 58 793 L 158 620 Z" unicode="̂" />
<glyph horiz-adv-x="0" d="M 0 622 L 0 622 Z M 71 775 L 172 775 C 172 723 164 684 148 659 C 132 634 112 622 88 622 C 68 622 51 625 37 631 C 23 637 12 643 4 648 C -4 652 -13 657 -21 661 C -29 665 -36 668 -44 668 C -51 668 -57 664 -62 656 C -67 648 -70 638 -71 626 L -171 626 C -171 677 -160 715 -140 741 C -120 766 -98 779 -76 779 C -58 779 -43 776 -31 770 C -19 764 -9 759 1 753 C 9 748 16 744 22 741 C 28 737 35 736 42 736 C 48 736 55 739 61 745 C 67 751 71 761 71 775 Z" unicode="̃" />
<glyph horiz-adv-x="0" d="M 0 627 L 0 627 Z M 133 627 L -133 627 L -133 735 L 133 735 L 133 627 Z" unicode="̄" />
<glyph horiz-adv-x="0" d="M 0 620 L 0 620 Z M 42 782 L 155 782 C 150 726 134 685 107 659 C 79 633 44 620 0 620 C -44 620 -79 633 -107 659 C -134 685 -150 726 -154 782 L -42 782 C -40 759 -37 741 -31 729 C -25 717 -15 711 0 711 C 15 711 26 717 32 729 C 38 741 41 758 42 782 Z" unicode="̆" />
<glyph horiz-adv-x="0" d="M 0 622 L 0 622 Z M 63 622 L -62 622 L -62 760 L 63 760 L 63 622 Z" unicode="̇" />
<glyph horiz-adv-x="0" d="M 0 620 L 0 620 Z M 138 620 L 28 620 L 28 781 L 138 781 L 138 620 Z M -28 620 L -138 620 L -138 781 L -28 781 L -28 620 Z" unicode="̈" />
<glyph horiz-adv-x="0" d="M 0 600 L 0 600 Z M 0 600 C -34 600 -64 612 -89 637 C -113 661 -126 691 -126 726 C -126 760 -113 790 -89 815 C -64 839 -34 852 0 852 C 35 852 65 839 90 815 C 114 790 127 760 127 726 C 127 691 114 661 90 637 C 65 612 35 600 0 600 Z M 1 672 C 15 672 28 677 38 688 C 48 698 53 711 53 726 C 53 740 48 753 38 764 C 28 774 15 780 1 780 C -13 780 -26 774 -36 764 C -46 753 -52 740 -52 726 C -52 711 -46 698 -36 688 C -26 677 -13 672 1 672 Z" unicode="̊" />
<glyph horiz-adv-x="0" d="M 0 619 L 0 619 Z M -209 619 L -139 786 L 6 786 L -88 619 L -209 619 Z M -6 619 L 64 786 L 210 786 L 114 619 L -6 619 Z" unicode="̋" />
<glyph horiz-adv-x="0" d="M 0 620 L 0 620 Z M -157 793 L -44 793 L 1 715 L 47 793 L 158 793 L 58 620 L -57 620 L -157 793 Z" unicode="̌" />
<glyph horiz-adv-x="0" d="M 0 -66 L 0 -66 Z M 106 -66 C 106 -90 102 -116 95 -144 C 87 -172 78 -198 68 -224 C 57 -249 45 -271 33 -291 C 21 -311 10 -324 0 -332 L -104 -286 C -96 -276 -89 -264 -81 -248 C -73 -232 -66 -214 -60 -194 C -54 -174 -48 -153 -44 -131 C -39 -109 -36 -87 -36 -66 L 106 -66 Z" unicode="̦" />
<glyph horiz-adv-x="0" d="M 0 0 L 0 0 Z M 2 -180 C -19 -180 -39 -177 -58 -171 C -77 -165 -93 -157 -107 -147 L -80 -99 C -73 -103 -64 -108 -53 -114 C -41 -120 -29 -123 -17 -123 C -8 -123 -1 -120 5 -116 C 11 -112 14 -106 14 -100 C 14 -91 11 -85 5 -81 C -1 -77 -7 -76 -14 -76 C -18 -76 -23 -76 -28 -77 C -32 -78 -36 -79 -40 -81 L -56 -59 L 1 15 L 65 15 L 24 -38 C 48 -38 68 -43 84 -53 C 100 -63 108 -79 108 -101 C 108 -125 97 -145 77 -159 C 56 -173 31 -180 2 -180 Z" unicode="̧" />
<glyph horiz-adv-x="0" d="M 0 0 L 0 0 Z M 93 -67 L 130 -125 C 108 -147 85 -164 61 -176 C 37 -188 9 -194 -21 -194 C -55 -194 -82 -186 -101 -171 C -119 -156 -129 -137 -129 -115 C -129 -89 -117 -65 -94 -43 C -71 -21 -38 -2 5 13 L 54 13 C 31 2 14 -9 4 -22 C -6 -34 -12 -46 -12 -58 C -12 -68 -8 -77 -1 -83 C 5 -89 14 -93 26 -93 C 40 -93 52 -90 63 -85 C 74 -80 84 -74 93 -67 Z" unicode="̨" />
<glyph horiz-adv-x="563" d="M 0 0 L 0 0 Z M 592 0 L -2 0 L 278 730 L 314 730 L 592 0 Z M 417 103 L 292 475 L 168 103 L 417 103 Z" unicode="Δ" />
<glyph horiz-adv-x="724" d="M 19 0 L 19 0 Z M 28 0 L 28 127 L 229 127 L 229 172 C 199 178 171 190 145 207 C 119 224 97 245 79 269 C 60 293 45 321 35 352 C 24 383 19 416 19 451 C 19 491 26 530 42 566 C 58 602 81 634 111 661 C 141 688 178 709 222 725 C 266 741 316 749 372 749 C 429 749 480 741 525 725 C 570 709 608 688 638 661 C 668 634 692 602 708 566 C 724 530 732 492 732 452 C 732 380 714 320 680 270 C 646 220 593 188 522 172 L 522 127 L 722 127 L 722 0 L 422 0 L 422 246 C 474 258 513 282 539 319 C 565 356 579 397 579 443 C 579 470 573 495 563 518 C 553 541 538 561 520 578 C 502 594 480 607 455 617 C 429 626 402 631 373 631 C 315 631 267 613 229 578 C 191 542 172 497 172 441 C 172 397 184 357 210 321 C 236 285 276 260 330 246 L 330 0 L 28 0 Z" unicode="Ω" />
<glyph horiz-adv-x="581" d="M 55 0 L 55 0 Z M 55 -92 L 55 559 L 192 559 L 192 176 C 192 154 201 137 219 123 C 237 109 258 103 282 103 C 308 103 332 110 353 124 C 373 138 384 157 384 182 L 384 559 L 521 559 L 521 0 L 395 0 L 395 79 C 385 59 367 40 340 22 C 313 4 284 -5 254 -5 C 239 -5 224 -1 210 4 C 195 10 185 19 181 31 L 181 -92 L 55 -92 Z" unicode="μ" />
<glyph horiz-adv-x="562" d="M 210 453 L 210 0 L 73 0 L 73 453 L 15 453 L 15 559 L 547 559 L 547 453 L 486 453 L 486 0 L 350 0 L 350 453 L 210 453 Z" unicode="π" />
<glyph horiz-adv-x="703" d="M 0 0 L 0 0 Z M 692 730 L 544 -3 L 444 -3 L 346 451 L 247 -3 L 146 -3 L -1 730 L 139 730 L 217 267 L 299 730 L 407 730 L 487 269 L 567 730 L 692 730 Z M 354 790 L 354 790 Z M 479 790 L 347 790 L 228 964 L 386 964 L 479 790 Z" unicode="Ẁ" />
<glyph horiz-adv-x="581" d="M 0 0 L 0 0 Z M 357 -2 L 292 259 L 224 -2 L 121 -2 L -1 559 L 126 559 L 193 207 L 249 459 L 340 459 L 396 208 L 464 559 L 581 559 L 458 -2 L 357 -2 Z M 290 619 L 290 619 Z M 415 619 L 283 619 L 164 793 L 322 793 L 415 619 Z" unicode="ẁ" />
<glyph horiz-adv-x="703" d="M 0 0 L 0 0 Z M 692 730 L 544 -3 L 444 -3 L 346 451 L 247 -3 L 146 -3 L -1 730 L 139 730 L 217 267 L 299 730 L 407 730 L 487 269 L 567 730 L 692 730 Z M 354 790 L 354 790 Z M 229 790 L 322 964 L 479 964 L 361 790 L 229 790 Z" unicode="Ẃ" />
<glyph horiz-adv-x="581" d="M 0 0 L 0 0 Z M 357 -2 L 292 259 L 224 -2 L 121 -2 L -1 559 L 126 559 L 193 207 L 249 459 L 340 459 L 396 208 L 464 559 L 581 559 L 458 -2 L 357 -2 Z M 290 619 L 290 619 Z M 165 619 L 258 793 L 415 793 L 297 619 L 165 619 Z" unicode="ẃ" />
<glyph horiz-adv-x="703" d="M 0 0 L 0 0 Z M 692 730 L 544 -3 L 444 -3 L 346 451 L 247 -3 L 146 -3 L -1 730 L 139 730 L 217 267 L 299 730 L 407 730 L 487 269 L 567 730 L 692 730 Z M 354 791 L 354 791 Z M 492 791 L 382 791 L 382 952 L 492 952 L 492 791 Z M 326 791 L 216 791 L 216 952 L 326 952 L 326 791 Z" unicode="Ẅ" />
<glyph horiz-adv-x="581" d="M 0 0 L 0 0 Z M 357 -2 L 292 259 L 224 -2 L 121 -2 L -1 559 L 126 559 L 193 207 L 249 459 L 340 459 L 396 208 L 464 559 L 581 559 L 458 -2 L 357 -2 Z M 290 620 L 290 620 Z M 428 620 L 318 620 L 318 781 L 428 781 L 428 620 Z M 262 620 L 152 620 L 152 781 L 262 781 L 262 620 Z" unicode="ẅ" />
<glyph horiz-adv-x="479" d="M 0 0 L 0 0 Z M 489 730 L 312 303 L 312 0 L 162 0 L 162 306 L -9 730 L 150 730 L 244 451 L 351 730 L 489 730 Z M 244 790 L 244 790 Z M 369 790 L 237 790 L 118 964 L 276 964 L 369 790 Z" unicode="Ỳ" />
<glyph horiz-adv-x="385" d="M 0 0 L 0 0 Z M 390 559 L 218 -91 C 208 -125 190 -152 163 -171 C 135 -190 105 -200 71 -200 C 45 -200 23 -197 6 -191 C -10 -185 -22 -180 -28 -175 L 12 -83 C 14 -85 20 -88 30 -91 C 39 -94 48 -96 57 -96 C 69 -96 80 -91 90 -81 C 100 -71 107 -56 112 -36 L 131 47 L -5 559 L 133 559 L 201 237 L 267 559 L 390 559 Z M 198 619 L 198 619 Z M 323 619 L 191 619 L 72 793 L 230 793 L 323 619 Z" unicode="ỳ" />
<glyph horiz-adv-x="460" d="M 423 217 L 38 217 L 38 337 L 423 337 L 423 217 Z" unicode="–" />
<glyph horiz-adv-x="645" d="M 608 217 L 38 217 L 38 337 L 608 337 L 608 217 Z" unicode="—" />
<glyph horiz-adv-x="271" d="M 35 507 L 35 514 C 35 554 42 593 56 630 C 70 667 93 703 123 737 L 254 731 C 236 710 217 681 199 645 C 181 608 172 565 172 515 L 172 507 L 35 507 Z" unicode="‘" />
<glyph horiz-adv-x="271" d="M 236 737 L 236 730 C 236 690 228 651 214 614 C 200 576 178 541 148 507 L 17 513 C 35 533 53 562 71 599 C 89 636 99 679 99 729 L 99 737 L 236 737 Z" unicode="’" />
<glyph horiz-adv-x="272" d="M 235 118 L 235 111 C 235 71 228 32 214 -4 C 200 -41 177 -77 147 -112 L 17 -106 C 34 -85 52 -56 70 -19 C 88 17 98 60 98 110 L 98 118 L 235 118 Z" unicode="‚" />
<glyph horiz-adv-x="446" d="M 224 507 L 224 514 C 224 554 231 593 246 630 C 260 666 282 702 312 737 L 437 731 C 418 710 400 681 382 645 C 364 608 355 565 355 515 L 355 507 L 224 507 Z M 35 507 L 35 514 C 35 554 42 593 57 630 C 72 666 94 702 123 737 L 249 731 C 230 710 212 681 194 645 C 176 608 167 565 167 515 L 167 507 L 35 507 Z" unicode="“" />
<glyph horiz-adv-x="446" d="M 231 737 L 231 730 C 231 690 223 651 209 614 C 194 577 172 541 143 507 L 17 513 C 36 534 54 563 72 600 C 90 636 99 679 99 729 L 99 737 L 231 737 Z M 410 737 L 410 730 C 410 690 402 651 387 614 C 372 577 350 541 322 507 L 197 513 C 215 533 234 562 252 599 C 270 636 279 679 279 729 L 279 737 L 410 737 Z" unicode="”" />
<glyph horiz-adv-x="448" d="M 230 118 L 230 111 C 230 71 222 32 208 -4 C 193 -41 171 -77 142 -112 L 17 -106 C 35 -85 54 -56 72 -19 C 90 17 99 60 99 110 L 99 118 L 230 118 Z M 411 118 L 411 111 C 411 71 403 32 389 -4 C 374 -41 352 -77 324 -112 L 198 -106 C 216 -85 235 -56 253 -19 C 271 17 280 60 280 110 L 280 118 L 411 118 Z" unicode="„" />
<glyph horiz-adv-x="442" d="M 425 350 L 290 350 L 290 -179 L 146 -179 L 146 350 L 17 350 L 17 473 L 146 473 L 146 730 L 290 730 L 290 473 L 425 473 L 425 350 Z" unicode="†" />
<glyph horiz-adv-x="455" d="M 153 -179 L 153 84 L 30 84 L 30 207 L 153 207 L 153 367 L 30 367 L 30 491 L 153 491 L 153 730 L 297 730 L 297 491 L 425 491 L 425 367 L 297 367 L 297 207 L 425 207 L 425 84 L 297 84 L 297 -179 L 153 -179 Z" unicode="‡" />
<glyph horiz-adv-x="383" d="M 192 504 C 226 504 256 491 280 467 C 304 443 317 413 317 379 C 317 345 304 315 280 291 C 256 267 226 255 192 255 C 156 255 127 267 103 291 C 79 315 67 345 67 379 C 67 413 79 443 103 467 C 127 491 156 504 192 504 Z" unicode="•" />
<glyph horiz-adv-x="724" d="M 51 0 L 51 150 L 191 150 L 191 0 L 51 0 Z M 293 0 L 293 150 L 432 150 L 432 0 L 293 0 Z M 534 0 L 534 150 L 673 150 L 673 0 L 534 0 Z" unicode="…" />
<glyph horiz-adv-x="1019" d="M 171 362 C 153 362 136 365 119 373 C 102 381 87 392 73 408 C 59 424 48 443 40 467 C 31 491 27 518 27 550 C 27 603 40 648 68 684 C 95 720 128 739 168 739 C 190 739 210 734 228 724 C 246 714 262 700 276 684 C 289 667 299 647 307 625 C 314 602 318 578 318 553 C 318 526 314 501 306 478 C 298 454 287 434 274 417 C 261 399 246 386 228 376 C 210 366 191 362 171 362 Z M 96 0 L 495 730 L 578 730 L 180 0 L 96 0 Z M 127 550 C 127 526 129 505 135 487 C 140 468 152 459 171 459 C 191 459 203 468 209 486 C 214 504 217 526 217 550 C 217 574 214 595 209 613 C 203 631 191 641 173 641 C 154 641 142 631 136 613 C 130 595 127 574 127 550 Z M 519 -3 C 501 -3 483 0 465 8 C 447 16 432 27 418 43 C 404 59 392 78 384 102 C 375 126 371 153 371 185 C 371 238 385 283 413 319 C 441 355 477 374 521 374 C 543 374 564 369 582 359 C 600 349 615 335 628 319 C 640 302 650 282 657 260 C 664 237 668 213 668 188 C 668 161 664 136 657 113 C 649 89 639 69 626 52 C 613 34 597 21 579 11 C 561 1 541 -3 519 -3 Z M 842 -3 C 824 -3 807 0 789 8 C 771 16 756 27 742 43 C 728 59 716 78 708 102 C 699 126 695 153 695 185 C 695 238 709 283 737 319 C 765 355 800 374 844 374 C 866 374 887 369 905 359 C 923 349 939 335 952 319 C 964 302 974 282 981 260 C 988 237 992 213 992 188 C 992 161 988 136 981 113 C 973 89 963 69 950 52 C 936 34 920 21 902 11 C 884 1 864 -3 842 -3 Z M 518 94 C 537 94 550 102 557 120 C 563 138 567 159 567 185 C 567 210 563 232 557 250 C 550 268 537 277 519 277 C 503 277 492 268 484 250 C 476 232 472 210 472 185 C 472 159 475 138 482 120 C 489 102 501 94 518 94 Z M 841 94 C 861 94 874 102 881 120 C 887 138 891 159 891 185 C 891 210 887 232 881 250 C 874 268 861 277 843 277 C 827 277 815 268 807 250 C 799 232 796 210 796 185 C 796 159 799 138 806 120 C 812 102 824 94 841 94 Z" unicode="‰" />
<glyph horiz-adv-x="257" d="M 229 101 L 25 274 L 25 353 L 229 523 L 229 389 L 144 310 L 229 238 L 229 101 Z" unicode="‹" />
<glyph horiz-adv-x="258" d="M 28 525 L 233 352 L 233 274 L 28 104 L 28 236 L 112 316 L 28 388 L 28 525 Z" unicode="›" />
<glyph horiz-adv-x="145" d="M 310 730 L -40 0 L -145 0 L 205 730 L 310 730 Z" unicode="⁄" />
<glyph horiz-adv-x="332" d="M 13 453 L 13 522 L 192 735 L 264 735 L 264 526 L 318 526 L 318 453 L 264 453 L 264 373 L 165 373 L 165 453 L 13 453 Z M 105 522 L 167 522 L 167 600 L 105 522 Z" unicode="⁴" />
<glyph horiz-adv-x="484" d="M 471 113 C 455 75 430 44 396 22 C 362 0 326 -12 286 -12 C 230 -12 183 11 146 57 C 109 103 85 170 75 256 L 22 256 L 22 339 L 69 339 C 69 342 69 345 69 349 C 69 353 69 356 69 360 C 69 364 69 369 69 375 C 69 380 69 385 69 390 L 22 390 L 22 473 L 75 473 C 85 556 107 622 142 670 C 176 718 224 742 285 742 C 338 742 379 729 408 705 C 436 681 456 653 468 623 L 372 566 C 363 585 353 599 342 609 C 330 618 313 623 291 623 C 270 623 252 611 237 587 C 221 563 211 525 205 473 L 435 473 L 435 390 L 199 390 C 199 385 199 380 199 375 C 199 369 199 364 199 359 C 199 355 199 352 199 348 C 199 344 199 341 199 339 L 435 339 L 435 256 L 204 256 C 210 198 222 159 239 137 C 256 115 275 105 296 105 C 318 105 335 112 348 126 C 360 140 371 157 380 178 L 471 113 Z" unicode="€" />
<glyph horiz-adv-x="865" d="M 817 319 L 700 319 L 700 529 L 592 357 L 576 357 L 471 529 L 471 319 L 359 319 L 359 730 L 463 730 L 586 522 L 720 730 L 817 730 L 817 319 Z M 330 600 L 249 600 L 249 319 L 105 319 L 105 600 L 19 600 L 19 730 L 330 730 L 330 600 Z" unicode="™" />
<glyph horiz-adv-x="751" d="M 28 0 L 28 127 L 229 127 L 229 172 C 199 178 171 190 145 207 C 119 224 97 245 79 269 C 60 293 45 321 35 352 C 24 383 19 416 19 451 C 19 491 26 530 42 566 C 58 602 81 634 111 661 C 141 688 178 709 222 725 C 266 741 316 749 372 749 C 429 749 480 741 525 725 C 570 709 608 688 638 661 C 668 634 692 602 708 566 C 724 530 732 492 732 452 C 732 380 714 320 680 270 C 646 220 593 188 522 172 L 522 127 L 722 127 L 722 0 L 422 0 L 422 246 C 474 258 513 282 539 319 C 565 356 579 397 579 443 C 579 470 573 495 563 518 C 553 541 538 561 520 578 C 502 594 480 607 455 617 C 429 626 402 631 373 631 C 315 631 267 613 229 578 C 191 542 172 497 172 441 C 172 397 184 357 210 321 C 236 285 276 260 330 246 L 330 0 L 28 0 Z" unicode="Ω" />
<glyph horiz-adv-x="510" d="M 469 293 C 469 236 463 188 451 150 C 439 111 422 80 402 57 C 382 33 358 16 332 6 C 305 -3 277 -9 248 -9 C 220 -9 193 -4 167 5 C 141 14 117 28 97 47 C 76 65 59 89 46 117 C 33 145 27 178 27 216 C 27 250 32 282 43 311 C 54 339 69 364 87 384 C 105 404 126 419 151 431 C 175 442 201 448 228 448 C 258 448 283 443 302 434 C 320 425 336 412 349 394 C 342 445 330 490 314 529 C 298 567 279 599 258 625 C 236 651 213 670 187 684 C 161 698 136 706 111 708 L 174 802 C 201 802 232 792 266 773 C 300 753 332 723 362 683 C 392 642 417 589 438 525 C 458 460 469 383 469 293 Z M 246 98 C 272 98 292 108 306 129 C 319 149 326 181 326 224 C 326 262 319 290 307 309 C 294 328 274 338 248 338 C 223 338 204 328 190 309 C 176 289 170 259 170 217 C 170 173 176 143 189 125 C 201 107 220 98 246 98 Z" unicode="∂" />
<glyph horiz-adv-x="587" d="M 592 0 L -2 0 L 278 730 L 314 730 L 592 0 Z M 417 103 L 292 475 L 168 103 L 417 103 Z" unicode="∆" />
<glyph horiz-adv-x="667" d="M 250 607 L 250 0 L 107 0 L 107 607 L 15 607 L 15 730 L 652 730 L 652 607 L 568 607 L 568 0 L 424 0 L 424 607 L 250 607 Z" unicode="∏" />
<glyph horiz-adv-x="558" d="M 231 607 L 428 307 L 197 -56 L 530 -56 L 530 -179 L -31 -179 L 289 306 L -1 730 L 509 730 L 509 607 L 231 607 Z" unicode="∑" />
<glyph horiz-adv-x="455" d="M 417 276 L 38 276 L 38 388 L 417 388 L 417 276 Z" unicode="−" />
<glyph horiz-adv-x="510" d="M 512 730 L 198 0 L 186 0 L 9 336 L 105 412 L 209 197 L 426 730 L 512 730 Z" unicode="√" />
<glyph horiz-adv-x="361" d="M 97 3 L 152 615 C 154 636 159 655 168 671 C 177 687 188 701 201 712 C 214 723 229 731 245 737 C 261 742 276 745 291 745 C 306 745 322 744 339 743 C 355 742 365 741 368 741 L 359 622 C 357 622 353 623 347 624 C 341 624 335 625 329 625 C 310 625 295 618 283 606 C 271 593 265 573 263 547 L 213 -47 C 211 -63 207 -79 200 -95 C 193 -111 184 -125 172 -137 C 160 -149 147 -159 131 -167 C 115 -175 97 -179 77 -179 C 54 -179 33 -176 13 -172 C -7 -168 -22 -163 -33 -157 L -19 -59 C -15 -59 -8 -61 1 -64 C 11 -66 20 -68 29 -68 C 47 -68 63 -62 75 -50 C 87 -38 95 -20 97 3 Z" unicode="∫" />
<glyph horiz-adv-x="455" d="M 342 515 L 438 515 C 437 491 434 468 429 447 C 424 425 417 407 409 391 C 400 375 389 362 376 353 C 362 343 347 339 329 339 C 306 339 285 342 267 350 C 248 358 233 366 221 376 C 210 385 199 393 189 400 C 179 407 168 411 156 411 C 145 411 135 403 125 389 C 115 375 111 359 111 342 L 17 342 C 17 394 26 436 45 468 C 63 500 91 517 128 517 C 150 517 171 511 191 501 C 210 491 225 481 237 472 C 248 463 259 455 269 449 C 279 443 289 440 299 440 C 315 440 327 446 333 460 C 339 474 342 492 342 515 Z M 342 324 L 438 324 C 437 300 434 277 429 256 C 424 234 417 216 409 200 C 400 184 389 172 376 163 C 362 153 347 149 329 149 C 306 149 285 152 267 159 C 248 166 233 175 221 186 C 210 196 200 204 190 210 C 180 216 169 219 157 219 C 146 219 136 212 126 199 C 116 186 111 170 111 152 L 17 152 C 17 204 26 246 45 278 C 63 310 91 326 128 326 C 150 326 171 320 190 309 C 208 298 223 288 235 278 C 246 269 257 262 268 256 C 278 250 289 248 299 248 C 315 248 327 254 333 268 C 339 281 342 300 342 324 Z" unicode="≈" />
<glyph horiz-adv-x="455" d="M 413 157 L 224 157 L 187 49 L 103 71 L 132 157 L 50 157 L 50 267 L 169 267 L 209 385 L 50 385 L 50 495 L 246 495 L 283 603 L 367 581 L 338 495 L 413 495 L 413 385 L 301 385 L 261 267 L 413 267 L 413 157 Z" unicode="≠" />
<glyph horiz-adv-x="456" d="M 180 327 L 409 218 L 409 13 L 44 13 L 44 110 L 393 110 L 45 281 L 45 366 L 411 561 L 411 444 L 180 327 Z" unicode="≤" />
<glyph horiz-adv-x="455" d="M 409 110 L 409 13 L 44 13 L 44 110 L 45 110 L 45 218 L 272 327 L 42 444 L 42 561 L 408 366 L 408 281 L 61 110 L 409 110 Z" unicode="≥" />
<glyph horiz-adv-x="552" d="M 525 326 L 282 -33 L 270 -33 L 27 326 L 27 337 L 270 695 L 282 695 L 525 337 L 525 326 Z M 397 327 L 397 336 L 280 513 L 272 513 L 155 336 L 155 327 L 272 149 L 280 149 L 397 327 Z" unicode="◊" />
<glyph horiz-adv-x="730" d="M 448 654 L 282 654 L 282 730 L 448 730 L 448 654 Z M 452 278 L 278 278 L 278 452 L 452 452 L 452 278 Z M 659 282 L 581 282 L 581 448 L 659 448 L 659 282 Z M 149 282 L 71 282 L 71 448 L 149 448 L 149 282 Z M 448 0 L 282 0 L 282 77 L 448 77 L 448 0 Z" unicode="" />
<glyph horiz-adv-x="450" d="M 188 433 L 188 0 L 51 0 L 51 433 L 10 433 L 10 536 L 51 536 L 51 639 C 51 662 55 684 64 704 C 73 724 85 741 99 755 C 113 769 130 781 148 789 C 166 797 184 801 202 801 C 224 801 245 798 264 794 C 282 789 295 784 302 778 L 282 725 L 420 725 L 420 607 L 280 607 L 280 719 L 268 687 C 265 688 259 690 251 692 C 243 694 235 696 229 696 C 216 696 205 689 197 677 C 189 664 185 645 185 621 L 185 536 L 244 536 L 244 433 L 188 433 Z M 419 0 L 282 0 L 282 536 L 419 536 L 419 0 Z" unicode="ﬁ" />
<glyph horiz-adv-x="500" d="M 509 11 C 500 6 489 2 476 0 C 463 -3 447 -5 429 -5 C 389 -5 355 7 328 33 C 301 58 288 94 288 140 L 288 720 L 279 682 C 274 684 267 687 259 691 C 250 694 241 696 232 696 C 219 696 208 689 199 677 C 189 664 185 645 185 621 L 185 559 L 246 559 L 246 447 L 188 447 L 188 0 L 51 0 L 51 447 L 4 447 L 4 559 L 51 559 L 51 639 C 51 662 55 684 64 704 C 73 724 85 741 99 755 C 113 769 130 781 148 789 C 166 797 184 801 202 801 C 218 801 234 799 250 797 C 266 794 278 790 288 786 L 288 800 L 424 800 L 424 158 C 424 140 427 127 433 119 C 439 111 449 107 463 107 C 467 107 470 107 474 108 C 477 108 480 109 483 110 L 509 11 Z" unicode="ﬂ" />
</font>
</defs>
</svg>
