<?xml version="1.0" encoding="utf-8" ?><svg version="1.1" xmlns = 'http://www.w3.org/2000/svg'><defs><font id='web' horiz-adv-x="1000">
<font-face font-family="web" descent="-200" cap-height="730" units-per-em="1000" bbox="-173,-331,1062,1017" x-height="486" ascent="800" />
<missing-glyph horiz-adv-x="500" d="" /><glyph horiz-adv-x="217" d="" unicode=" " />
<glyph horiz-adv-x="274" d="M 187 432 L 159 201 L 117 201 L 90 432 L 90 730 L 187 730 L 187 432 Z M 183 0 L 94 0 L 94 99 L 183 99 L 183 0 Z" unicode="!" />
<glyph horiz-adv-x="383" d="M 319 619 L 313 483 L 246 483 L 241 618 L 241 730 L 319 730 L 319 619 Z M 141 618 L 137 483 L 68 483 L 64 618 L 64 730 L 141 730 L 141 618 Z" unicode="&#x22;" />
<glyph horiz-adv-x="604" d="M 550 224 L 421 224 L 401 0 L 348 1 L 368 224 L 215 224 L 195 0 L 141 1 L 161 224 L 32 224 L 32 295 L 167 295 L 179 432 L 53 432 L 53 502 L 185 502 L 205 730 L 259 729 L 239 502 L 392 502 L 412 730 L 465 729 L 445 502 L 571 502 L 571 432 L 439 432 L 427 295 L 550 295 L 550 224 Z M 221 295 L 374 295 L 386 432 L 233 432 L 221 295 Z" unicode="#" />
<glyph horiz-adv-x="505" d="M 466 186 C 466 159 461 135 451 113 C 441 91 428 73 411 57 C 394 41 374 29 351 19 C 328 9 304 3 278 1 L 278 -123 L 223 -123 L 223 1 C 181 3 144 12 111 28 C 77 43 50 62 29 86 L 67 151 C 85 130 108 113 137 99 C 165 85 194 77 223 73 L 223 345 C 160 374 115 404 87 436 C 59 467 45 507 45 557 C 45 604 61 644 95 676 C 128 708 171 726 223 730 L 223 790 L 278 790 L 278 730 C 312 727 343 719 372 707 C 401 694 426 677 447 657 L 402 598 C 385 614 366 628 344 638 C 322 648 300 655 278 658 L 278 406 L 282 404 C 348 372 395 341 423 310 C 451 278 466 237 466 186 Z M 126 555 C 126 529 132 507 146 490 C 160 472 185 453 223 433 L 223 658 C 195 654 171 643 153 625 C 135 607 126 583 126 555 Z M 386 186 C 386 212 378 235 364 255 C 350 275 321 296 278 319 L 278 73 C 308 77 334 88 355 108 C 375 127 386 153 386 186 Z" unicode="$" />
<glyph horiz-adv-x="767" d="M 193 358 C 174 358 155 362 137 370 C 119 378 102 391 88 407 C 74 423 62 443 54 467 C 45 491 41 518 41 549 C 41 575 44 599 52 623 C 60 646 70 666 84 684 C 97 701 113 715 132 725 C 150 735 170 740 192 740 C 215 740 236 735 255 725 C 274 715 290 701 304 684 C 317 667 327 647 335 624 C 342 601 346 577 346 552 C 346 524 342 499 334 475 C 326 451 316 431 302 414 C 288 396 272 383 254 373 C 235 363 215 358 193 358 Z M 185 0 L 115 0 L 569 730 L 639 730 L 185 0 Z M 192 423 C 219 423 239 435 253 459 C 266 483 273 513 273 549 C 273 583 266 612 254 637 C 242 662 222 675 194 675 C 167 675 147 662 134 638 C 120 613 114 583 114 549 C 114 511 121 481 135 458 C 149 434 168 423 192 423 Z M 573 -3 C 554 -3 535 1 517 9 C 499 17 482 30 468 46 C 454 62 442 82 434 106 C 425 130 421 157 421 188 C 421 214 424 238 432 262 C 440 285 450 305 464 323 C 478 340 494 354 513 364 C 531 374 552 379 575 379 C 598 379 619 374 638 364 C 656 354 672 340 686 323 C 699 306 709 286 716 263 C 723 240 727 216 727 191 C 727 164 723 139 715 115 C 707 91 697 71 684 53 C 670 35 654 22 635 12 C 616 2 595 -3 573 -3 Z M 572 63 C 599 63 620 75 634 99 C 648 123 655 152 655 188 C 655 222 648 252 635 277 C 621 302 601 315 574 315 C 549 315 530 302 516 278 C 502 253 495 223 495 188 C 495 150 502 119 516 97 C 530 74 549 63 572 63 Z" unicode="%" />
<glyph horiz-adv-x="683" d="M 611 -4 L 524 80 C 490 51 452 29 412 14 C 371 0 326 -8 276 -8 C 204 -8 145 8 100 40 C 54 72 32 118 32 176 C 32 204 36 228 46 250 C 55 271 67 290 83 307 C 98 323 116 339 137 353 C 157 367 179 381 202 395 L 185 411 C 167 429 148 452 130 480 C 112 508 103 541 103 581 C 103 601 107 621 117 640 C 126 659 139 676 155 690 C 171 704 191 715 214 724 C 236 732 260 737 286 737 C 340 737 384 721 416 691 C 448 661 465 625 465 584 C 465 542 451 506 425 477 C 399 447 363 418 319 390 L 525 193 C 537 207 548 221 560 237 C 571 253 582 269 593 286 L 660 243 C 647 223 634 205 622 187 C 609 169 596 153 583 138 L 665 60 L 611 -4 Z M 248 458 L 270 437 C 306 460 334 482 354 504 C 374 525 384 548 384 573 C 384 598 375 620 359 640 C 342 659 318 669 286 669 C 257 669 233 659 215 639 C 197 619 188 598 188 576 C 188 554 193 533 205 513 C 216 493 230 474 248 458 Z M 124 182 C 124 145 139 116 170 95 C 201 74 238 64 282 64 C 316 64 349 70 380 83 C 411 95 440 113 468 136 L 251 347 C 213 322 182 298 159 274 C 135 250 124 219 124 182 Z" unicode="&#x26;" />
<glyph horiz-adv-x="206" d="M 142 616 L 138 477 L 68 477 L 64 616 L 64 730 L 142 730 L 142 616 Z" unicode="'" />
<glyph horiz-adv-x="314" d="M 297 -108 L 297 -182 C 259 -163 224 -138 192 -106 C 159 -74 130 -38 106 2 C 82 43 62 88 48 138 C 34 187 27 239 27 293 C 27 347 34 398 48 446 C 62 494 82 538 107 577 C 131 616 160 650 193 680 C 226 709 261 732 297 749 L 297 680 C 247 648 206 600 172 534 C 138 468 121 388 121 293 C 121 250 124 209 132 169 C 140 129 151 91 166 57 C 181 23 200 -8 222 -36 C 244 -64 269 -88 297 -108 Z" unicode="(" />
<glyph horiz-adv-x="314" d="M 17 680 L 17 749 C 51 734 84 712 117 684 C 149 655 178 621 203 582 C 228 542 248 497 263 447 C 278 396 286 341 286 283 C 286 228 278 176 264 128 C 249 79 229 35 205 -4 C 180 -44 151 -79 119 -109 C 86 -139 52 -164 17 -182 L 17 -106 C 69 -70 111 -18 145 50 C 179 118 196 195 197 283 C 197 333 192 379 182 421 C 172 463 159 501 143 534 C 127 567 108 596 86 621 C 64 645 41 665 17 680 Z" unicode=")" />
<glyph horiz-adv-x="402" d="M 368 585 L 238 550 L 331 457 L 276 410 L 202 525 L 129 411 L 73 456 L 167 551 L 36 584 L 67 653 L 180 591 L 164 730 L 240 730 L 224 591 L 341 650 L 368 585 Z" unicode="*" />
<glyph horiz-adv-x="496" d="M 467 297 L 283 297 L 283 119 L 214 119 L 214 297 L 30 297 L 30 365 L 214 365 L 214 543 L 283 543 L 283 365 L 467 365 L 467 297 Z" unicode="+" />
<glyph horiz-adv-x="226" d="M 187 104 C 185 80 180 55 173 31 C 166 7 157 -16 147 -38 C 137 -60 125 -80 113 -99 C 101 -118 88 -134 75 -148 L 13 -119 C 20 -109 28 -97 37 -81 C 46 -65 55 -47 63 -27 C 71 -7 78 14 85 37 C 91 59 96 82 99 104 L 187 104 Z" unicode="," />
<glyph horiz-adv-x="334" d="M 292 226 L 42 226 L 42 302 L 292 302 L 292 226 Z" unicode="-" />
<glyph horiz-adv-x="227" d="M 157 0 L 70 0 L 70 124 L 157 124 L 157 0 Z" unicode="." />
<glyph horiz-adv-x="313" d="M 308 730 L 82 0 L 4 0 L 233 730 L 308 730 Z" unicode="/" />
<glyph horiz-adv-x="539" d="M 267 -10 C 197 -10 142 21 100 84 C 58 147 37 239 37 361 C 37 414 41 464 51 510 C 61 556 75 597 94 631 C 113 665 137 691 167 711 C 197 731 231 741 271 741 C 311 741 346 731 376 712 C 405 693 429 667 448 634 C 466 601 480 562 489 516 C 497 470 502 422 502 370 C 502 313 497 261 487 214 C 477 167 463 127 444 94 C 424 61 400 35 370 17 C 340 0 306 -10 267 -10 Z M 267 64 C 318 64 356 90 380 144 C 404 197 416 269 416 361 C 416 406 413 447 408 485 C 402 523 394 555 383 582 C 371 608 356 629 337 644 C 318 658 295 666 269 666 C 219 666 182 638 158 584 C 134 530 123 456 123 362 C 123 267 135 194 160 142 C 184 90 220 64 267 64 Z" unicode="0" />
<glyph horiz-adv-x="347" d="M 264 0 L 178 0 L 178 608 C 165 588 145 570 118 552 C 90 534 65 524 41 522 L 41 607 C 69 609 98 623 127 648 C 156 672 181 700 201 731 L 264 731 L 264 0 Z" unicode="1" />
<glyph horiz-adv-x="515" d="M 484 0 L 29 0 L 29 26 L 315 359 C 335 383 353 411 368 441 C 383 471 391 503 391 539 C 391 577 378 608 352 630 C 326 652 294 664 254 664 C 208 664 173 649 149 621 C 125 593 113 555 113 508 L 35 508 C 35 583 56 640 97 680 C 137 720 192 740 260 740 C 291 740 320 735 346 727 C 372 719 395 706 415 690 C 434 674 449 654 460 630 C 470 606 476 579 476 549 C 476 495 466 450 447 415 C 428 380 407 350 385 324 L 168 77 L 484 77 L 484 0 Z" unicode="2" />
<glyph horiz-adv-x="512" d="M 242 -10 C 184 -10 135 -2 97 14 C 58 30 28 48 7 69 L 50 135 C 68 118 92 102 122 87 C 152 71 190 64 234 64 C 288 64 330 79 360 110 C 390 140 405 177 405 221 C 405 264 389 297 359 321 C 328 345 291 357 247 357 L 136 357 L 136 431 L 245 431 C 285 431 317 442 343 466 C 368 489 381 518 381 552 C 381 582 369 608 347 631 C 324 654 292 666 250 666 C 208 666 173 657 147 640 C 120 622 98 601 81 577 L 30 632 C 48 659 76 684 113 707 C 150 729 198 741 258 741 C 321 741 371 725 408 693 C 445 661 464 618 464 566 C 464 521 450 484 424 454 C 398 424 368 405 335 397 C 375 389 411 369 441 338 C 471 307 487 267 487 217 C 487 188 482 160 472 133 C 462 105 447 81 427 60 C 407 39 381 22 350 9 C 319 -3 283 -10 242 -10 Z" unicode="3" />
<glyph horiz-adv-x="526" d="M 519 191 L 411 191 L 411 0 L 333 0 L 333 191 L 12 191 L 12 249 L 353 741 L 411 741 L 411 263 L 519 263 L 519 191 Z M 334 262 L 334 598 L 103 262 L 334 262 Z" unicode="4" />
<glyph horiz-adv-x="520" d="M 250 -10 C 199 -10 154 -1 114 16 C 74 34 43 54 22 78 L 68 141 C 85 120 109 102 139 87 C 169 71 205 64 245 64 C 295 64 334 81 363 115 C 391 149 406 195 406 251 C 406 303 392 343 365 373 C 338 402 304 417 262 417 C 226 417 196 409 171 394 C 145 379 126 358 114 332 L 57 347 L 85 730 L 444 730 L 444 652 L 148 652 L 131 414 C 142 434 161 451 188 466 C 215 481 247 489 285 489 C 346 489 396 468 434 427 C 472 386 492 329 492 257 C 492 176 469 111 425 63 C 380 14 322 -10 250 -10 Z" unicode="5" />
<glyph horiz-adv-x="515" d="M 268 -11 C 234 -11 202 -5 174 6 C 145 18 120 34 100 56 C 79 77 63 103 51 134 C 39 165 34 200 34 238 C 34 316 54 392 95 464 C 136 536 190 608 256 680 L 318 750 L 376 699 L 330 649 C 278 591 233 536 197 486 C 160 436 138 394 130 361 C 140 383 159 404 186 422 C 213 440 246 450 285 450 C 316 450 344 444 370 433 C 396 421 417 405 435 385 C 453 365 466 341 476 313 C 486 285 491 254 491 222 C 491 189 485 158 474 130 C 463 102 448 77 428 56 C 408 35 385 19 358 7 C 330 -5 300 -11 268 -11 Z M 267 63 C 309 63 343 78 369 108 C 395 138 408 175 408 219 C 408 265 395 303 371 333 C 347 363 312 378 267 378 C 247 378 229 374 211 367 C 193 360 177 350 163 337 C 149 324 139 308 131 289 C 123 270 119 249 119 225 C 119 176 132 137 159 107 C 186 77 222 63 267 63 Z" unicode="6" />
<glyph horiz-adv-x="450" d="M 446 730 L 453 695 L 131 -6 L 56 27 L 348 651 L 14 651 L 14 730 L 446 730 Z" unicode="7" />
<glyph horiz-adv-x="544" d="M 363 387 C 381 383 399 376 417 366 C 435 356 450 344 464 328 C 478 312 489 294 498 272 C 506 250 511 226 511 199 C 511 137 489 87 447 48 C 404 9 346 -10 272 -10 C 198 -10 140 8 98 46 C 56 84 35 134 35 196 C 35 224 39 250 49 273 C 58 295 70 315 85 331 C 99 347 115 359 133 369 C 151 378 168 384 184 386 C 170 390 155 396 140 405 C 124 414 110 425 98 439 C 86 453 76 469 68 488 C 60 507 56 529 56 553 C 56 581 61 607 73 630 C 84 653 99 673 119 689 C 138 705 161 718 187 727 C 213 735 242 740 272 740 C 338 740 390 723 430 689 C 469 655 489 612 490 559 C 490 535 486 514 479 495 C 471 475 462 458 450 444 C 438 429 424 417 409 407 C 393 397 378 391 363 387 Z M 273 415 C 313 415 346 426 372 449 C 397 472 410 502 410 540 C 410 580 397 611 371 634 C 345 656 313 668 273 668 C 233 668 200 656 174 634 C 147 611 134 580 134 541 C 134 500 148 469 176 447 C 204 425 236 415 273 415 Z M 273 61 C 320 61 358 74 386 100 C 414 126 429 162 429 208 C 429 252 414 285 384 309 C 354 333 317 345 273 345 C 228 345 191 333 161 310 C 131 286 116 251 116 205 C 116 161 130 126 160 100 C 189 74 227 61 273 61 Z" unicode="8" />
<glyph horiz-adv-x="515" d="M 206 -14 L 151 39 L 205 90 C 225 110 246 133 266 159 C 286 185 305 211 322 237 C 338 263 353 288 365 313 C 377 338 386 360 391 380 C 378 356 356 334 326 314 C 296 294 263 285 227 285 C 195 285 167 290 142 302 C 117 313 96 329 78 349 C 60 369 47 394 38 422 C 28 450 24 480 24 514 C 24 546 29 575 41 603 C 52 631 68 655 88 676 C 108 696 131 712 159 724 C 187 736 217 742 251 742 C 283 742 313 736 341 725 C 369 714 393 698 414 677 C 435 656 452 630 464 599 C 476 568 482 533 482 494 C 482 450 476 407 464 365 C 452 323 436 283 417 246 C 397 208 375 173 350 141 C 324 108 298 78 272 52 L 206 -14 Z M 247 356 C 287 356 322 370 352 398 C 382 426 397 463 397 509 C 397 559 382 598 354 626 C 325 654 291 669 251 669 C 207 669 172 654 146 624 C 120 594 108 558 108 514 C 108 468 119 430 143 400 C 167 370 201 356 247 356 Z" unicode="9" />
<glyph horiz-adv-x="227" d="M 157 366 L 70 366 L 70 486 L 157 486 L 157 366 Z M 157 0 L 70 0 L 70 121 L 157 121 L 157 0 Z" unicode=":" />
<glyph horiz-adv-x="226" d="M 162 366 L 76 366 L 76 486 L 162 486 L 162 366 Z M 167 98 C 161 52 148 6 128 -38 C 108 -83 85 -119 59 -145 L -4 -116 C 4 -106 12 -94 22 -78 C 31 -62 40 -45 48 -26 C 56 -7 64 12 70 34 C 76 55 81 76 83 98 L 167 98 Z" unicode=";" />
<glyph horiz-adv-x="392" d="M 345 96 L 41 296 L 41 355 L 345 554 L 345 473 L 127 327 L 345 178 L 345 96 Z" unicode="&#x3C;" />
<glyph horiz-adv-x="499" d="M 444 390 L 55 390 L 55 462 L 444 462 L 444 390 Z M 444 179 L 55 179 L 55 251 L 444 251 L 444 179 Z" unicode="=" />
<glyph horiz-adv-x="392" d="M 350 296 L 46 96 L 46 178 L 264 327 L 46 474 L 46 554 L 350 355 L 350 296 Z" unicode="&#x3E;" />
<glyph horiz-adv-x="452" d="M 166 198 C 166 244 171 281 182 311 C 193 340 212 368 239 395 C 249 405 260 416 272 427 C 284 438 294 450 304 463 C 314 475 322 489 328 505 C 334 521 338 538 338 557 C 338 591 326 617 302 637 C 278 656 248 666 213 666 C 182 666 154 658 130 644 C 106 629 85 611 69 589 L 16 641 C 40 672 70 697 107 715 C 143 733 183 742 227 742 C 286 742 334 726 371 695 C 407 663 426 621 426 567 C 426 541 422 518 414 498 C 406 478 397 459 385 443 C 373 426 360 411 346 397 C 332 383 318 369 306 357 C 282 336 267 311 260 282 C 252 252 248 224 248 198 L 166 198 Z M 162 0 L 162 108 L 255 108 L 255 0 L 162 0 Z" unicode="?" />
<glyph horiz-adv-x="850" d="M 419 -32 C 365 -32 314 -22 268 -2 C 222 18 182 45 149 79 C 115 113 89 153 70 199 C 51 245 42 295 42 348 C 42 400 51 450 70 497 C 89 543 115 583 149 617 C 183 651 223 677 270 697 C 316 717 367 727 423 727 C 480 727 532 718 579 701 C 626 684 666 660 699 630 C 732 599 758 562 776 520 C 794 477 804 430 804 380 C 804 336 799 298 789 267 C 779 235 766 210 750 190 C 734 170 717 156 698 147 C 678 138 659 134 641 134 C 609 134 583 141 565 156 C 547 170 535 188 531 209 C 522 192 503 175 474 159 C 444 143 411 135 373 135 C 323 135 286 147 261 171 C 235 195 223 225 223 263 C 223 306 240 340 276 365 C 312 390 359 403 419 403 L 521 403 L 521 415 C 521 451 511 475 491 489 C 471 502 446 509 416 509 C 391 509 368 506 346 500 C 324 494 306 488 291 482 L 267 540 C 285 548 308 556 336 563 C 363 569 390 573 417 573 C 473 573 515 559 545 531 C 575 503 590 461 590 403 L 590 253 C 590 238 594 224 603 211 C 611 198 626 192 647 192 C 657 192 667 194 679 199 C 690 204 700 213 710 227 C 720 240 728 258 735 282 C 741 306 745 336 745 374 C 745 416 737 455 722 492 C 707 528 686 560 658 586 C 630 612 597 633 557 649 C 517 664 473 672 424 672 C 376 672 333 663 294 647 C 254 630 220 607 192 578 C 164 549 142 515 126 475 C 110 435 102 393 102 348 C 102 303 110 261 126 221 C 142 181 164 147 192 118 C 220 88 254 65 294 48 C 333 30 375 22 421 22 C 442 22 464 24 487 29 C 510 33 534 41 558 53 L 580 2 C 553 -10 526 -19 499 -24 C 472 -29 445 -32 419 -32 Z M 395 196 C 423 196 449 202 475 215 C 500 228 515 241 521 254 L 521 348 L 423 348 C 382 348 352 341 332 327 C 312 313 302 294 302 270 C 302 247 309 229 325 216 C 341 202 364 196 395 196 Z" unicode="@" />
<glyph horiz-adv-x="594" d="M 591 0 L 499 0 L 427 198 L 160 198 L 90 0 L 3 0 L 269 734 L 327 734 L 591 0 Z M 406 270 L 293 586 L 181 270 L 406 270 Z" unicode="A" />
<glyph horiz-adv-x="552" d="M 86 0 L 86 730 L 285 730 C 343 730 391 714 427 683 C 463 652 481 610 481 556 C 481 506 468 465 443 435 C 417 404 386 385 348 379 C 367 377 387 373 407 365 C 427 357 444 345 460 331 C 476 317 489 299 499 278 C 509 256 514 231 514 203 C 514 142 493 93 453 56 C 413 18 360 0 295 0 L 86 0 Z M 171 407 L 266 407 C 289 407 309 410 325 418 C 341 425 354 435 364 447 C 374 459 381 473 386 489 C 390 505 393 521 393 538 C 393 573 381 601 359 622 C 336 643 305 654 265 654 L 171 654 L 171 407 Z M 172 76 L 290 76 C 336 76 369 89 391 115 C 413 141 424 172 424 210 C 424 248 410 278 384 300 C 357 322 324 333 284 333 L 172 333 L 172 76 Z" unicode="B" />
<glyph horiz-adv-x="653" d="M 365 -10 C 321 -10 279 -1 240 15 C 201 31 167 55 138 87 C 109 119 86 158 69 205 C 52 251 44 305 44 365 C 44 421 51 472 67 518 C 83 564 105 604 133 637 C 161 669 194 695 234 713 C 274 731 318 740 366 740 C 430 740 482 728 522 706 C 562 684 595 654 620 616 L 553 563 C 534 589 510 612 481 630 C 451 648 414 658 368 658 C 296 658 239 632 197 580 C 155 528 135 456 135 364 C 135 314 141 270 155 233 C 168 196 186 166 208 142 C 230 118 255 100 284 88 C 312 76 342 70 372 70 C 419 70 459 80 491 101 C 523 121 549 147 570 179 L 634 134 C 608 92 573 57 528 30 C 482 3 428 -10 365 -10 Z" unicode="C" />
<glyph horiz-adv-x="677" d="M 86 0 L 86 730 L 280 730 C 335 730 385 721 429 704 C 473 687 510 663 540 633 C 570 602 593 565 609 521 C 625 477 633 428 633 375 C 633 322 625 273 609 227 C 593 181 570 141 540 108 C 510 74 472 48 426 29 C 380 9 328 0 268 0 L 86 0 Z M 175 76 L 266 76 C 313 76 354 83 388 98 C 422 113 451 134 473 160 C 495 186 512 218 523 254 C 534 290 540 330 540 372 C 540 459 516 528 470 578 C 423 628 359 653 278 653 L 175 653 L 175 76 Z" unicode="D" />
<glyph horiz-adv-x="518" d="M 477 0 L 86 0 L 86 730 L 459 730 L 459 650 L 174 650 L 174 402 L 446 402 L 446 324 L 174 324 L 174 80 L 477 80 L 477 0 Z" unicode="E" />
<glyph horiz-adv-x="462" d="M 431 650 L 176 650 L 176 405 L 417 405 L 417 327 L 176 327 L 176 0 L 86 0 L 86 730 L 431 730 L 431 650 Z" unicode="F" />
<glyph horiz-adv-x="701" d="M 377 362 L 656 362 L 656 140 C 630 94 593 57 544 30 C 495 3 438 -10 372 -10 C 326 -10 283 -1 243 17 C 203 35 168 60 139 92 C 109 124 86 164 69 210 C 52 256 44 308 44 365 C 44 422 52 474 69 520 C 86 566 109 606 139 638 C 169 670 204 695 244 713 C 284 731 328 740 374 740 C 440 740 492 728 530 705 C 568 681 598 655 619 627 L 555 572 C 537 594 513 614 485 631 C 457 648 419 657 372 657 C 338 657 306 650 277 637 C 248 624 223 605 202 581 C 180 556 164 525 152 489 C 140 452 134 411 134 365 C 134 319 140 278 153 242 C 165 205 182 174 204 148 C 225 122 250 101 280 87 C 310 73 341 66 375 66 C 420 66 460 74 496 92 C 532 110 558 135 575 167 L 575 283 L 377 283 L 377 362 Z" unicode="G" />
<glyph horiz-adv-x="687" d="M 601 0 L 511 0 L 511 320 L 176 320 L 176 0 L 86 0 L 86 730 L 176 730 L 176 401 L 511 401 L 511 730 L 601 730 L 601 0 Z" unicode="H" />
<glyph horiz-adv-x="270" d="M 180 0 L 90 0 L 90 730 L 180 730 L 180 0 Z" unicode="I" />
<glyph horiz-adv-x="366" d="M 291 730 L 291 189 C 291 161 286 135 278 111 C 270 87 258 66 242 48 C 226 30 206 15 182 5 C 158 -5 130 -11 99 -11 C 83 -11 67 -9 50 -7 C 33 -5 20 -1 10 3 L 25 80 C 31 77 40 75 53 73 C 65 71 77 70 89 70 C 125 70 154 81 174 105 C 194 129 204 158 204 192 L 204 730 L 291 730 Z" unicode="J" />
<glyph horiz-adv-x="614" d="M 609 0 L 500 0 L 257 335 L 176 236 L 176 0 L 86 0 L 86 730 L 176 730 L 176 347 L 472 730 L 574 730 L 317 402 L 609 0 Z" unicode="K" />
<glyph horiz-adv-x="461" d="M 452 0 L 86 0 L 86 730 L 176 730 L 176 80 L 452 80 L 452 0 Z" unicode="L" />
<glyph horiz-adv-x="823" d="M 737 0 L 652 0 L 652 546 L 430 174 L 393 174 L 170 545 L 170 0 L 86 0 L 86 730 L 152 730 L 414 293 L 672 730 L 737 730 L 737 0 Z" unicode="M" />
<glyph horiz-adv-x="702" d="M 617 0 L 553 0 L 170 553 L 170 0 L 86 0 L 86 730 L 153 730 L 533 178 L 533 730 L 617 730 L 617 0 Z" unicode="N" />
<glyph horiz-adv-x="753" d="M 379 -10 C 329 -10 283 0 242 17 C 200 35 165 61 136 94 C 106 127 84 167 68 214 C 52 261 44 313 44 370 C 44 424 52 474 69 520 C 85 566 108 605 137 637 C 166 669 201 695 241 713 C 281 731 325 740 372 740 C 422 740 468 731 510 713 C 552 695 587 670 617 638 C 646 606 669 566 685 520 C 701 474 709 423 709 367 C 709 310 700 258 683 212 C 665 166 642 126 613 93 C 583 60 548 35 508 17 C 468 -1 425 -10 379 -10 Z M 381 68 C 414 68 445 74 475 88 C 504 101 529 120 550 146 C 571 172 588 203 600 241 C 612 278 618 321 618 369 C 618 413 611 453 599 489 C 587 525 570 556 548 581 C 526 606 500 625 470 639 C 440 653 407 660 372 660 C 302 660 246 634 202 583 C 158 532 136 460 136 367 C 136 319 142 276 155 239 C 167 201 185 170 207 145 C 229 120 255 101 285 88 C 315 74 347 68 381 68 Z" unicode="O" />
<glyph horiz-adv-x="545" d="M 86 0 L 86 730 L 304 730 C 334 730 363 725 389 716 C 415 706 438 693 457 675 C 476 657 491 636 502 610 C 513 584 519 554 519 521 C 519 455 499 402 460 361 C 420 320 370 300 308 300 L 176 300 L 176 0 L 86 0 Z M 175 377 L 290 377 C 334 377 368 390 392 416 C 416 442 428 477 428 521 C 428 565 414 598 386 620 C 358 642 324 653 284 653 L 175 653 L 175 377 Z" unicode="P" />
<glyph horiz-adv-x="749" d="M 640 -85 L 640 -168 C 581 -165 527 -148 479 -118 C 431 -88 395 -51 372 -8 C 322 -7 277 2 237 20 C 196 38 161 64 133 97 C 105 129 83 169 67 215 C 51 261 44 313 44 370 C 44 424 52 473 69 519 C 85 565 108 604 137 636 C 166 668 201 694 241 712 C 281 730 325 740 373 740 C 423 740 468 731 510 713 C 551 695 586 670 616 638 C 645 606 668 566 684 520 C 700 474 709 422 709 365 C 709 319 703 277 691 237 C 679 197 662 161 641 130 C 620 99 595 73 565 51 C 535 29 502 14 467 4 C 485 -22 511 -42 543 -58 C 575 -74 607 -83 640 -85 Z M 379 68 C 413 68 444 74 474 88 C 503 102 528 121 550 147 C 571 172 588 203 600 241 C 612 279 618 321 618 369 C 618 415 611 456 599 492 C 586 528 569 559 547 584 C 525 608 498 627 468 640 C 438 653 406 660 372 660 C 302 660 245 634 201 584 C 157 534 135 462 135 368 C 135 320 141 277 154 240 C 167 202 185 171 207 146 C 229 120 254 101 284 88 C 314 74 345 68 379 68 Z" unicode="Q" />
<glyph horiz-adv-x="560" d="M 86 0 L 86 730 L 278 730 C 336 730 385 712 423 678 C 461 644 480 596 480 534 C 480 503 475 476 467 452 C 459 428 447 407 433 390 C 419 373 402 360 384 350 C 365 340 346 334 326 332 L 323 329 L 537 0 L 435 0 L 238 310 L 173 310 L 173 0 L 86 0 Z M 172 385 L 259 385 C 297 385 328 397 353 421 C 378 445 391 479 391 523 C 391 563 379 595 355 618 C 331 641 301 653 263 653 L 172 653 L 172 385 Z" unicode="R" />
<glyph horiz-adv-x="500" d="M 256 -10 C 207 -10 164 -2 126 13 C 88 28 56 50 30 80 L 85 145 C 103 120 128 100 159 86 C 189 72 221 65 253 65 C 287 65 316 75 340 96 C 364 116 377 144 377 178 C 377 210 366 238 346 261 C 326 283 289 308 237 334 C 174 363 127 394 97 426 C 67 458 52 504 52 562 C 52 615 70 658 107 691 C 143 723 191 740 249 740 C 291 740 328 733 360 719 C 391 705 418 689 440 669 L 391 601 C 372 618 350 632 326 643 C 302 654 276 660 250 660 C 216 660 189 650 168 632 C 147 614 137 589 137 559 C 137 526 148 499 169 479 C 190 459 229 435 287 408 C 352 377 398 345 424 311 C 450 277 463 234 463 183 C 463 152 457 125 446 101 C 434 77 419 56 400 40 C 381 24 359 11 334 3 C 309 -5 283 -10 256 -10 Z" unicode="S" />
<glyph horiz-adv-x="482" d="M 473 650 L 284 650 L 284 0 L 194 0 L 194 650 L 9 650 L 9 730 L 473 730 L 473 650 Z" unicode="T" />
<glyph horiz-adv-x="677" d="M 597 730 L 597 249 C 597 207 590 169 576 137 C 562 105 544 78 520 56 C 496 34 469 18 437 7 C 405 -4 372 -10 336 -10 C 301 -10 268 -4 237 6 C 206 16 179 32 156 54 C 132 75 114 102 100 135 C 86 167 80 205 80 249 L 80 730 L 168 730 L 168 246 C 168 190 184 146 217 116 C 250 85 290 70 337 70 C 360 70 382 73 403 81 C 423 88 441 99 457 114 C 473 128 485 147 494 169 C 503 191 508 216 508 246 L 508 730 L 597 730 Z" unicode="U" />
<glyph horiz-adv-x="593" d="M 591 730 L 323 -5 L 263 -5 L 3 730 L 95 730 L 296 152 L 501 730 L 591 730 Z" unicode="V" />
<glyph horiz-adv-x="847" d="M 834 730 L 634 -6 L 580 -6 L 422 562 L 259 -6 L 205 -6 L 8 730 L 98 730 L 240 174 L 397 730 L 454 730 L 609 173 L 752 730 L 834 730 Z" unicode="W" />
<glyph horiz-adv-x="554" d="M 446 0 L 276 298 L 104 0 L 11 0 L 229 378 L 28 730 L 126 730 L 278 463 L 432 730 L 525 730 L 325 382 L 543 0 L 446 0 Z" unicode="X" />
<glyph horiz-adv-x="586" d="M 585 730 L 336 315 L 336 0 L 246 0 L 246 319 L 1 730 L 101 730 L 296 402 L 493 730 L 585 730 Z" unicode="Y" />
<glyph horiz-adv-x="531" d="M 498 730 L 498 689 L 136 79 L 511 79 L 511 0 L 17 0 L 17 39 L 378 650 L 50 650 L 50 730 L 498 730 Z" unicode="Z" />
<glyph horiz-adv-x="283" d="M 248 -179 L 73 -179 L 73 730 L 248 730 L 248 661 L 153 661 L 153 -109 L 248 -109 L 248 -179 Z" unicode="[" />
<glyph horiz-adv-x="313" d="M 4 730 L 79 730 L 308 0 L 232 0 L 4 730 Z" unicode="\" />
<glyph horiz-adv-x="277" d="M 208 -179 L 36 -179 L 36 -110 L 129 -110 L 129 661 L 36 661 L 36 730 L 208 730 L 208 -179 Z" unicode="]" />
<glyph horiz-adv-x="484" d="M 427 369 L 353 369 L 240 641 L 131 369 L 59 369 L 204 730 L 276 730 L 427 369 Z" unicode="^" />
<glyph horiz-adv-x="475" d="M 475 -157 L 0 -157 L 0 -86 L 475 -86 L 475 -157 Z" unicode="_" />
<glyph horiz-adv-x="500" d="M 342 544 L 259 544 L 146 711 L 243 711 L 342 544 Z" unicode="`" />
<glyph horiz-adv-x="477" d="M 420 0 L 342 0 L 342 62 C 326 42 305 25 279 12 C 253 -1 221 -8 185 -8 C 137 -8 98 5 70 32 C 42 58 28 95 28 141 C 28 193 46 233 84 261 C 121 288 170 303 231 307 L 339 314 L 339 333 C 339 365 329 389 311 405 C 292 420 266 428 234 428 C 204 428 178 423 154 413 C 130 403 110 392 95 381 L 63 441 C 81 455 106 468 137 480 C 167 491 204 497 246 497 C 297 497 339 484 371 458 C 403 432 420 392 420 338 L 420 0 Z M 341 119 L 341 252 L 236 246 C 200 243 170 234 146 218 C 122 202 111 177 111 145 C 111 117 120 95 139 81 C 158 66 182 59 210 59 C 238 59 264 65 288 77 C 311 89 329 103 341 119 Z" unicode="a" />
<glyph horiz-adv-x="534" d="M 305 -6 C 261 -6 226 4 199 25 C 171 45 153 70 144 99 L 144 0 L 66 0 L 66 774 L 145 774 L 145 380 C 153 410 171 436 199 460 C 227 483 263 495 308 495 C 337 495 364 489 388 477 C 412 465 432 448 449 427 C 465 406 478 381 488 351 C 497 321 502 289 502 254 C 502 214 496 177 486 145 C 476 113 462 85 444 63 C 426 41 406 24 382 12 C 358 0 332 -6 305 -6 Z M 281 60 C 321 60 353 77 378 111 C 403 145 416 190 416 246 C 416 300 404 343 381 376 C 357 409 324 426 280 426 C 243 426 211 410 184 380 C 157 349 144 302 144 238 C 144 176 157 130 185 102 C 213 74 245 60 281 60 Z" unicode="b" />
<glyph horiz-adv-x="464" d="M 388 140 L 448 96 C 440 84 431 71 420 59 C 409 46 396 35 381 25 C 366 15 348 6 328 0 C 308 -5 285 -9 259 -9 C 224 -9 192 -2 164 10 C 136 22 112 40 92 62 C 72 84 57 110 47 141 C 36 172 31 206 31 242 C 31 277 36 310 47 341 C 58 372 74 399 94 422 C 114 444 139 462 167 476 C 195 489 227 496 261 496 C 312 496 353 484 384 461 C 414 437 436 412 449 386 L 381 347 C 370 367 355 384 336 399 C 316 414 291 422 260 422 C 218 422 183 404 157 370 C 131 336 118 294 118 244 C 118 190 131 146 158 113 C 184 80 220 64 264 64 C 299 64 326 72 345 89 C 363 106 378 123 388 140 Z" unicode="c" />
<glyph horiz-adv-x="538" d="M 235 -8 C 204 -8 176 -1 151 10 C 126 22 105 40 87 62 C 69 84 56 110 46 140 C 36 170 32 203 32 239 C 32 277 37 311 48 343 C 58 375 73 402 92 424 C 110 446 132 464 158 477 C 183 489 210 496 239 496 C 277 496 309 485 337 464 C 364 442 382 418 392 391 L 392 774 L 472 774 L 472 0 L 396 0 L 396 103 C 392 90 385 77 376 64 C 367 51 356 39 343 29 C 329 18 313 9 295 2 C 277 -4 257 -8 235 -8 Z M 257 60 C 296 60 329 77 355 111 C 381 145 394 190 394 247 C 394 307 379 351 351 381 C 323 411 291 426 255 426 C 214 426 181 409 156 376 C 130 343 118 299 118 243 C 118 189 130 145 154 111 C 178 77 213 60 257 60 Z" unicode="d" />
<glyph horiz-adv-x="502" d="M 263 -9 C 229 -9 198 -3 170 8 C 141 19 116 35 96 57 C 76 78 60 104 49 135 C 37 166 32 201 32 241 C 32 277 37 311 49 343 C 60 374 76 401 96 423 C 116 445 139 463 167 476 C 194 489 224 496 257 496 C 323 496 376 471 416 423 C 456 375 476 307 476 220 L 113 220 C 114 172 128 133 155 105 C 182 76 219 62 265 62 C 303 62 333 68 355 82 C 377 95 395 110 409 127 L 457 77 C 438 54 414 34 385 17 C 355 0 315 -9 263 -9 Z M 114 282 L 394 282 C 393 324 380 358 355 386 C 330 413 297 427 257 427 C 216 427 183 413 157 385 C 131 357 117 322 114 282 Z" unicode="e" />
<glyph horiz-adv-x="290" d="M 281 414 L 180 414 L 180 0 L 96 0 L 96 414 L 16 414 L 16 486 L 96 486 L 96 628 C 96 652 99 673 107 692 C 115 710 125 726 138 739 C 150 751 165 761 181 767 C 197 773 214 777 231 777 C 245 777 259 775 272 772 C 285 769 296 765 305 761 L 289 689 C 284 691 278 693 270 695 C 262 697 253 698 244 698 C 226 698 210 690 198 676 C 185 661 179 641 179 615 L 179 486 L 281 486 L 281 414 Z" unicode="f" />
<glyph horiz-adv-x="535" d="M 236 1 C 175 1 126 23 88 69 C 50 114 32 173 32 245 C 32 320 51 380 90 426 C 129 472 178 495 237 495 C 275 495 309 484 337 464 C 365 443 384 419 395 391 L 395 486 L 471 486 L 471 39 C 471 -1 464 -37 451 -67 C 437 -97 420 -121 399 -140 C 377 -159 353 -173 325 -183 C 297 -192 268 -197 239 -197 C 195 -197 160 -193 134 -185 C 108 -177 89 -168 77 -160 L 108 -94 C 119 -101 135 -108 155 -116 C 175 -123 201 -127 232 -127 C 275 -127 312 -113 344 -87 C 375 -60 391 -20 391 33 L 391 113 C 382 85 364 60 337 36 C 309 12 276 1 236 1 Z M 258 66 C 293 66 324 81 352 113 C 380 144 394 190 394 250 C 394 306 380 349 352 379 C 324 409 292 425 255 425 C 215 425 182 408 156 376 C 130 344 118 300 118 244 C 118 190 130 146 155 114 C 179 82 214 66 258 66 Z" unicode="g" />
<glyph horiz-adv-x="519" d="M 458 0 L 375 0 L 375 330 C 375 360 365 384 346 401 C 326 417 302 426 272 426 C 241 426 213 416 187 397 C 161 377 149 347 149 306 L 149 0 L 66 0 L 66 774 L 143 774 L 143 398 C 151 426 168 449 196 468 C 224 486 259 496 301 496 C 345 496 382 483 412 459 C 442 435 458 399 458 351 L 458 0 Z" unicode="h" />
<glyph horiz-adv-x="221" d="M 67 592 L 67 681 L 155 681 L 155 592 L 67 592 Z M 69 0 L 69 486 L 152 486 L 152 0 L 69 0 Z" unicode="i" />
<glyph horiz-adv-x="231" d="M 169 592 L 82 592 L 82 681 L 169 681 L 169 592 Z M 167 486 L 167 -57 C 167 -99 155 -132 131 -157 C 107 -182 78 -195 43 -195 C 28 -195 13 -193 -1 -189 C -16 -185 -28 -181 -36 -177 L -19 -113 C -14 -115 -7 -117 1 -119 C 9 -121 18 -122 28 -122 C 42 -122 55 -115 67 -102 C 78 -89 84 -71 84 -49 L 84 486 L 167 486 Z" unicode="j" />
<glyph horiz-adv-x="472" d="M 486 1 L 391 0 L 232 222 L 148 127 L 148 0 L 66 0 L 66 774 L 146 774 L 146 219 L 360 486 L 451 486 L 286 283 L 486 1 Z" unicode="k" />
<glyph horiz-adv-x="216" d="M 150 777 L 150 0 L 66 0 L 66 777 L 150 777 Z" unicode="l" />
<glyph horiz-adv-x="821" d="M 66 0 L 66 486 L 142 486 L 142 396 C 150 426 169 451 199 469 C 229 487 263 496 302 496 C 339 496 371 487 397 469 C 423 451 438 426 443 395 L 447 395 C 455 425 473 450 502 468 C 531 486 565 496 604 496 C 649 496 686 483 716 459 C 745 434 760 399 760 353 L 760 0 L 677 0 L 677 327 C 677 360 667 385 648 401 C 629 417 604 426 574 426 C 559 426 544 423 530 419 C 516 414 503 407 492 397 C 480 387 471 374 464 359 C 457 343 454 325 454 304 L 454 0 L 372 0 L 372 330 C 372 361 362 385 343 401 C 323 417 299 426 269 426 C 238 426 210 415 185 395 C 160 375 148 344 148 302 L 148 0 L 66 0 Z" unicode="m" />
<glyph horiz-adv-x="519" d="M 458 0 L 375 0 L 375 333 C 375 362 365 385 346 401 C 326 417 302 426 272 426 C 257 426 242 423 227 419 C 212 414 199 407 188 397 C 176 387 167 375 160 359 C 152 343 149 325 149 304 L 149 0 L 66 0 L 66 486 L 141 486 L 141 396 C 151 425 170 449 199 468 C 227 486 262 496 302 496 C 346 496 383 483 413 459 C 443 434 458 400 458 356 L 458 0 Z" unicode="n" />
<glyph horiz-adv-x="523" d="M 259 -9 C 229 -9 200 -3 172 8 C 144 19 120 35 99 57 C 78 78 61 104 49 135 C 37 166 31 201 31 241 C 31 277 37 310 49 342 C 61 373 77 400 97 423 C 117 445 141 463 169 476 C 196 489 225 496 257 496 C 290 496 321 490 350 479 C 378 467 403 451 424 430 C 444 409 461 384 473 354 C 485 324 491 291 491 255 C 491 216 485 180 473 148 C 461 116 445 88 425 65 C 404 41 379 23 351 10 C 323 -2 292 -9 259 -9 Z M 262 63 C 304 63 339 79 365 113 C 391 147 405 192 405 248 C 405 301 391 344 365 376 C 338 408 302 424 256 424 C 216 424 183 407 157 375 C 131 342 118 298 118 243 C 118 184 131 139 159 109 C 187 78 221 63 262 63 Z" unicode="o" />
<glyph horiz-adv-x="534" d="M 66 -198 L 66 486 L 142 486 L 142 376 C 150 407 169 435 198 459 C 226 483 263 495 307 495 C 367 495 414 472 449 427 C 484 382 502 324 502 253 C 502 213 496 176 486 144 C 476 112 462 85 444 63 C 426 41 405 24 381 12 C 357 0 331 -6 304 -6 C 264 -6 230 3 202 23 C 174 43 155 66 147 93 L 147 -198 L 66 -198 Z M 283 60 C 321 60 352 76 378 109 C 403 142 416 187 416 244 C 416 296 404 340 382 374 C 359 408 325 426 281 426 C 243 426 211 411 184 381 C 157 351 144 304 144 238 C 144 174 157 128 185 101 C 212 73 245 60 283 60 Z" unicode="p" />
<glyph horiz-adv-x="538" d="M 391 -198 L 391 103 C 386 89 379 76 369 63 C 359 50 348 38 335 28 C 322 18 307 9 289 3 C 271 -3 252 -7 232 -7 C 202 -7 174 -1 150 11 C 125 23 104 39 87 61 C 69 83 56 109 46 139 C 36 169 32 201 32 237 C 32 276 37 312 48 344 C 58 376 73 403 92 425 C 110 447 132 465 157 477 C 182 489 209 496 238 496 C 279 496 313 484 341 461 C 369 438 387 413 396 385 L 396 486 L 472 486 L 472 -198 L 391 -198 Z M 256 60 C 294 60 326 76 353 108 C 380 140 394 187 394 247 C 394 305 380 350 353 380 C 325 410 293 426 255 426 C 213 426 179 409 155 377 C 130 344 118 300 118 244 C 118 190 130 146 154 112 C 178 77 212 60 256 60 Z" unicode="q" />
<glyph horiz-adv-x="380" d="M 381 466 L 346 394 C 335 404 323 411 309 415 C 295 419 281 422 265 422 C 251 422 237 419 223 413 C 209 407 197 399 186 388 C 175 377 166 363 159 347 C 152 330 149 311 149 290 L 149 0 L 66 0 L 66 486 L 144 486 L 144 389 C 150 415 166 440 192 462 C 218 484 250 496 288 496 C 308 496 327 493 343 487 C 359 481 371 474 381 466 Z" unicode="r" />
<glyph horiz-adv-x="394" d="M 209 -9 C 169 -9 133 -3 103 8 C 73 20 48 36 29 56 L 70 112 C 86 96 106 84 130 74 C 154 64 179 59 205 59 C 227 59 247 65 263 78 C 279 91 287 108 287 130 C 287 148 278 164 262 178 C 245 192 217 206 177 221 C 131 237 97 257 76 280 C 54 302 44 332 44 368 C 44 405 59 436 89 460 C 119 484 155 496 199 496 C 235 496 265 490 291 480 C 317 469 337 458 352 446 L 316 387 C 302 396 286 405 266 414 C 246 422 225 427 203 427 C 181 427 162 422 146 412 C 130 402 122 388 122 370 C 122 353 128 339 141 328 C 153 317 181 303 223 287 C 272 268 308 247 330 224 C 352 201 364 170 364 132 C 364 88 348 53 318 28 C 287 3 251 -9 209 -9 Z" unicode="s" />
<glyph horiz-adv-x="279" d="M 259 79 L 269 11 C 263 6 253 2 240 0 C 227 -3 212 -5 196 -5 C 181 -5 166 -2 152 1 C 137 5 124 12 113 22 C 101 32 92 45 85 61 C 78 77 75 96 75 119 L 75 414 L 12 414 L 12 486 L 76 486 L 76 607 L 157 618 L 157 486 L 256 486 L 256 414 L 158 414 L 158 127 C 158 107 163 92 173 82 C 183 72 196 68 213 68 C 221 68 230 69 239 72 C 248 74 255 77 259 79 Z" unicode="t" />
<glyph horiz-adv-x="519" d="M 61 486 L 144 486 L 144 166 C 144 129 154 102 174 85 C 194 67 220 59 253 59 C 284 59 311 69 335 89 C 358 109 370 141 370 183 L 370 486 L 453 486 L 453 0 L 375 0 L 375 88 C 365 61 347 38 320 19 C 292 0 259 -9 219 -9 C 175 -9 137 3 107 29 C 76 54 61 92 61 144 L 61 486 Z" unicode="u" />
<glyph horiz-adv-x="443" d="M 446 486 L 248 -3 L 192 -3 L -3 486 L 86 486 L 224 129 L 362 486 L 446 486 Z" unicode="v" />
<glyph horiz-adv-x="656" d="M 441 -3 L 331 309 L 214 -3 L 160 -3 L 4 486 L 89 486 L 197 125 L 307 430 L 361 430 L 465 126 L 574 486 L 651 486 L 495 -3 L 441 -3 Z" unicode="w" />
<glyph horiz-adv-x="412" d="M 318 0 L 204 184 L 87 0 L 4 0 L 163 251 L 17 486 L 107 486 L 208 323 L 311 486 L 395 486 L 249 256 L 408 0 L 318 0 Z" unicode="x" />
<glyph horiz-adv-x="447" d="M 449 486 L 213 -91 C 195 -133 172 -161 146 -177 C 119 -192 93 -200 68 -200 C 52 -200 38 -198 27 -195 C 15 -191 7 -188 3 -186 L 29 -114 C 31 -116 37 -118 45 -120 C 53 -122 61 -124 70 -124 C 84 -124 98 -118 111 -108 C 124 -98 136 -80 147 -55 L 183 34 L -3 486 L 86 486 L 225 131 L 365 486 L 449 486 Z" unicode="y" />
<glyph horiz-adv-x="393" d="M 369 486 L 369 448 L 131 73 L 382 73 L 382 0 L 14 0 L 14 32 L 257 413 L 27 413 L 27 486 L 369 486 Z" unicode="z" />
<glyph horiz-adv-x="285" d="M 264 -179 C 234 -178 207 -173 182 -165 C 156 -156 134 -145 116 -131 C 98 -117 83 -101 73 -83 C 62 -65 57 -45 57 -24 C 57 0 59 23 65 43 C 70 63 76 80 83 96 C 89 112 96 127 102 141 C 108 155 111 169 111 182 C 111 200 102 216 85 231 C 68 246 46 254 18 254 L 18 316 C 46 316 68 324 86 340 C 104 356 113 374 114 395 C 114 400 110 410 104 426 C 98 442 91 458 83 476 C 75 494 68 511 64 529 C 59 547 57 564 58 582 C 58 602 63 623 73 643 C 83 663 98 680 116 695 C 134 710 156 723 181 733 C 206 743 234 748 264 749 L 264 688 C 230 686 201 674 178 653 C 155 631 143 606 143 576 C 143 566 144 554 147 541 C 149 527 154 514 161 500 C 169 480 177 462 185 445 C 192 428 196 413 196 401 C 195 373 186 349 170 328 C 154 306 129 292 95 285 C 129 277 155 263 171 242 C 187 220 195 198 196 174 C 196 155 192 138 186 124 C 179 109 172 95 165 81 C 158 67 152 52 148 37 C 144 21 142 7 143 -6 C 143 -31 155 -55 177 -79 C 199 -103 228 -116 264 -118 L 264 -179 Z" unicode="{" />
<glyph horiz-adv-x="247" d="M 163 -179 L 84 -179 L 84 730 L 163 730 L 163 -179 Z" unicode="|" />
<glyph horiz-adv-x="285" d="M 21 -179 L 21 -118 C 56 -116 85 -103 107 -79 C 129 -55 141 -31 142 -6 C 142 7 140 21 136 37 C 132 52 126 67 120 81 C 112 95 105 109 99 124 C 92 138 89 155 89 174 C 89 198 98 220 114 242 C 130 263 155 277 189 285 C 155 292 129 306 113 328 C 97 349 89 373 89 401 C 88 413 91 428 99 445 C 107 462 115 480 124 500 C 130 514 135 527 138 541 C 140 554 142 566 142 576 C 141 606 129 631 106 653 C 83 674 55 686 21 688 L 21 749 C 51 748 78 743 103 733 C 128 723 150 710 168 695 C 186 680 201 663 211 643 C 221 623 227 602 227 582 C 227 564 224 547 220 529 C 216 511 210 494 202 476 C 194 458 186 442 180 426 C 174 410 171 400 171 395 C 171 374 180 356 198 340 C 216 324 239 316 267 316 L 267 254 C 239 254 216 246 199 231 C 182 216 173 200 173 182 C 173 169 176 155 182 141 C 188 127 195 112 202 96 C 208 80 214 63 220 43 C 225 23 228 0 228 -24 C 227 -45 221 -65 211 -83 C 200 -101 185 -117 167 -131 C 149 -145 127 -156 102 -165 C 77 -173 50 -178 21 -179 Z" unicode="}" />
<glyph horiz-adv-x="483" d="M 380 438 L 450 438 C 449 382 440 341 424 313 C 407 285 381 272 347 272 C 323 272 303 277 286 287 C 269 297 254 307 242 319 C 228 331 214 341 201 350 C 187 359 173 364 159 364 C 144 364 131 356 119 341 C 107 325 102 303 102 275 L 33 275 C 33 330 42 372 62 400 C 82 428 106 442 135 442 C 160 442 182 436 201 426 C 219 416 237 404 253 391 C 265 380 278 370 291 361 C 303 352 318 348 334 348 C 352 348 365 355 371 370 C 377 384 380 407 380 438 Z" unicode="~" />
<glyph horiz-adv-x="285" d="M 98 601 L 187 601 L 187 502 L 98 502 L 98 601 Z M 94 171 L 123 402 L 164 402 L 191 171 L 191 -119 L 94 -119 L 94 171 Z" unicode="¡" />
<glyph horiz-adv-x="497" d="M 480 191 C 464 169 442 147 416 125 C 390 103 353 91 305 87 L 305 -19 L 244 -19 L 244 88 C 182 96 132 123 95 169 C 57 215 39 271 39 339 C 39 371 43 402 53 432 C 63 461 77 487 95 510 C 113 532 134 551 160 566 C 185 581 213 591 244 596 L 244 698 L 305 698 L 305 598 C 350 594 387 581 416 559 C 445 537 466 513 480 487 L 422 448 C 410 466 395 483 376 498 C 357 513 333 522 305 526 L 305 157 C 339 159 365 169 384 187 C 402 204 417 221 428 237 L 480 191 Z M 123 343 C 123 296 133 256 155 224 C 177 191 206 170 244 161 L 244 522 C 206 513 177 492 155 459 C 133 425 123 387 123 343 Z" unicode="¢" />
<glyph horiz-adv-x="552" d="M 539 70 L 539 0 L 23 0 L 23 54 C 28 56 36 59 48 62 C 60 64 76 68 97 72 C 109 74 122 77 135 83 C 148 89 160 96 170 105 C 180 114 189 125 196 138 C 202 151 206 166 206 184 C 206 189 205 194 204 200 C 203 206 202 211 200 217 L 35 217 L 35 279 L 170 279 C 163 290 156 302 148 315 C 140 328 133 341 126 355 L 35 355 L 35 417 L 97 417 C 89 435 82 455 78 477 C 73 498 71 520 71 543 C 71 580 77 611 91 637 C 104 663 121 683 143 699 C 165 714 190 725 219 732 C 247 738 277 742 308 742 C 357 742 403 733 445 715 C 487 697 517 679 536 663 L 492 597 C 475 610 450 625 418 641 C 386 657 350 665 311 665 C 292 665 273 662 255 658 C 237 654 221 646 207 636 C 193 625 182 611 174 593 C 165 575 161 554 161 528 C 161 509 163 490 169 472 C 174 453 181 435 189 417 L 465 417 L 465 355 L 222 355 C 228 342 235 329 243 316 C 250 303 256 291 262 279 L 465 279 L 465 217 L 281 217 C 281 215 281 214 281 212 C 281 210 281 208 281 207 C 281 185 277 167 270 151 C 263 135 254 121 244 110 C 234 99 223 90 211 84 C 199 77 189 72 180 70 L 539 70 Z" unicode="£" />
<glyph horiz-adv-x="502" d="M 441 187 L 403 149 L 342 211 C 329 203 315 196 299 192 C 283 188 266 186 250 186 C 233 186 217 188 201 192 C 185 196 170 203 157 211 L 96 149 L 56 189 L 113 248 C 101 262 91 279 84 297 C 77 315 74 334 74 354 C 74 374 77 393 84 411 C 91 429 101 445 114 460 L 56 520 L 95 559 L 156 496 C 169 504 184 510 200 515 C 216 519 232 522 250 522 C 267 522 284 519 300 515 C 316 510 331 503 345 495 L 408 560 L 446 520 L 387 458 C 399 444 408 428 415 410 C 421 392 425 373 425 354 C 425 333 421 313 414 295 C 407 277 397 260 385 246 L 441 187 Z M 250 247 C 280 247 307 257 330 279 C 352 300 364 325 364 354 C 364 382 352 407 330 429 C 307 450 280 461 250 461 C 218 461 191 450 169 429 C 147 407 136 382 136 354 C 136 325 147 300 169 279 C 191 257 218 247 250 247 Z" unicode="¤" />
<glyph horiz-adv-x="584" d="M 514 145 L 334 145 L 334 0 L 244 0 L 244 145 L 68 145 L 68 208 L 244 208 L 244 268 L 68 268 L 68 331 L 244 331 L 244 335 L 26 730 L 123 730 L 293 414 L 464 730 L 556 730 L 334 332 L 334 331 L 514 331 L 514 268 L 334 268 L 334 208 L 514 208 L 514 145 Z" unicode="¥" />
<glyph horiz-adv-x="267" d="M 98 351 L 98 730 L 170 730 L 170 351 L 98 351 Z M 170 200 L 170 -179 L 98 -179 L 98 200 L 170 200 Z" unicode="¦" />
<glyph horiz-adv-x="626" d="M 331 -181 C 277 -181 226 -174 178 -160 C 130 -146 90 -128 58 -106 L 93 -36 C 123 -57 159 -75 202 -89 C 244 -103 285 -111 324 -111 C 360 -111 390 -102 414 -85 C 438 -67 451 -42 451 -10 C 451 18 441 40 422 55 C 403 70 378 84 348 98 L 222 153 C 193 165 168 177 146 188 C 124 198 105 210 91 223 C 76 235 65 250 58 267 C 50 283 47 304 47 328 C 47 359 54 385 70 405 C 85 425 103 441 125 454 C 106 465 92 481 83 501 C 74 521 70 545 70 575 C 70 601 75 625 87 646 C 99 666 115 684 136 698 C 156 712 181 723 209 731 C 237 738 268 742 301 742 C 360 742 408 733 446 717 C 483 700 515 682 542 662 L 504 598 C 474 618 444 636 412 652 C 380 668 343 676 299 676 C 259 676 226 667 198 649 C 170 631 157 606 157 575 C 157 553 163 535 177 521 C 191 506 212 493 240 483 L 406 413 C 461 392 503 369 532 345 C 560 321 575 287 575 244 C 575 208 563 180 540 160 C 516 139 491 126 463 121 C 470 117 478 111 487 103 C 496 95 505 86 513 76 C 521 65 527 52 533 38 C 539 24 542 8 542 -10 C 542 -36 536 -60 525 -82 C 514 -103 499 -121 480 -136 C 461 -150 439 -161 413 -169 C 387 -177 360 -181 331 -181 Z M 401 162 C 421 164 441 170 459 182 C 477 194 487 212 487 238 C 487 260 476 280 456 298 C 436 315 402 333 356 351 L 196 419 C 178 410 162 399 150 387 C 138 375 132 358 132 336 C 132 309 142 288 164 272 C 185 256 219 238 266 220 L 401 162 Z" unicode="§" />
<glyph horiz-adv-x="500" d="M 370 545 L 301 545 L 301 702 L 370 702 L 370 545 Z M 199 545 L 130 545 L 130 702 L 199 702 L 199 545 Z" unicode="¨" />
<glyph horiz-adv-x="832" d="M 416 5 C 365 5 317 14 272 34 C 227 53 188 79 155 113 C 121 146 95 185 76 230 C 56 274 47 322 47 373 C 47 423 56 471 76 516 C 95 561 121 600 155 634 C 188 667 227 693 272 713 C 317 732 365 742 416 742 C 466 742 514 732 559 713 C 604 693 643 667 677 634 C 710 600 736 561 756 516 C 775 471 785 423 785 373 C 785 322 775 274 756 230 C 736 185 710 146 677 113 C 643 79 604 53 559 34 C 514 14 466 5 416 5 Z M 416 60 C 458 60 499 68 537 84 C 575 100 608 123 636 151 C 664 179 686 213 702 251 C 718 289 727 329 727 373 C 727 415 718 456 702 494 C 686 532 664 566 636 594 C 608 622 575 645 537 662 C 499 678 458 687 416 687 C 372 687 332 678 294 662 C 256 645 223 622 195 594 C 167 566 144 532 128 494 C 112 456 104 415 104 373 C 104 329 112 289 128 251 C 144 213 167 179 195 151 C 223 123 256 100 294 84 C 332 68 372 60 416 60 Z M 585 242 C 569 217 547 196 519 180 C 490 164 456 156 416 156 C 390 156 365 160 341 170 C 317 180 295 194 277 212 C 258 230 243 252 232 280 C 220 307 215 338 215 373 C 215 407 220 437 230 465 C 240 493 253 516 271 536 C 289 556 310 571 334 582 C 358 592 383 598 411 598 C 454 598 489 590 516 576 C 543 561 564 542 580 519 L 522 476 C 511 490 497 503 480 513 C 463 523 441 529 413 529 C 377 529 348 514 324 484 C 300 454 289 416 289 371 C 289 347 292 325 300 307 C 307 288 316 272 328 260 C 340 247 353 237 369 231 C 385 224 401 221 417 221 C 441 221 463 226 482 237 C 501 248 516 263 528 281 L 585 242 Z" unicode="©" />
<glyph horiz-adv-x="455" d="M 406 310 L 337 310 L 337 371 C 322 349 301 333 273 321 C 245 309 215 304 183 304 C 139 304 103 315 77 339 C 51 362 38 394 38 435 C 38 480 55 515 90 539 C 125 563 172 576 231 579 L 335 586 L 335 594 C 335 620 326 640 308 654 C 290 667 265 674 233 674 C 206 674 181 669 158 661 C 134 652 113 641 95 629 L 67 687 C 87 702 113 715 143 726 C 173 736 207 742 245 742 C 293 742 332 730 362 707 C 391 683 406 646 406 594 L 406 310 Z M 336 424 L 336 528 L 226 521 C 193 519 166 513 144 501 C 122 489 112 468 112 440 C 112 417 120 399 138 387 C 156 374 179 368 208 368 C 232 368 256 373 280 383 C 304 393 322 406 336 424 Z M 416 189 L 45 189 L 45 258 L 416 258 L 416 189 Z" unicode="ª" />
<glyph horiz-adv-x="439" d="M 205 94 L 28 265 L 28 319 L 205 488 L 205 402 L 101 291 L 205 184 L 205 94 Z M 409 94 L 232 265 L 232 319 L 409 488 L 409 402 L 305 291 L 409 184 L 409 94 Z" unicode="«" />
<glyph horiz-adv-x="496" d="M 448 381 L 448 134 L 378 134 L 378 309 L 31 309 L 31 381 L 448 381 Z" unicode="¬" />
<glyph horiz-adv-x="832" d="M 416 5 C 365 5 317 14 272 34 C 227 53 188 79 155 113 C 121 146 95 185 76 230 C 56 274 47 322 47 373 C 47 423 56 471 76 516 C 95 561 121 600 155 634 C 188 667 227 693 272 713 C 317 732 365 742 416 742 C 466 742 514 732 559 713 C 604 693 643 667 677 634 C 710 600 736 561 756 516 C 775 471 785 423 785 373 C 785 322 775 274 756 230 C 736 185 710 146 677 113 C 643 79 604 53 559 34 C 514 14 466 5 416 5 Z M 416 60 C 458 60 499 68 537 84 C 575 100 608 122 636 150 C 664 178 686 211 702 249 C 718 287 727 329 727 373 C 727 417 718 458 702 496 C 686 534 664 568 636 596 C 608 624 575 646 537 662 C 499 678 458 687 416 687 C 373 687 333 678 295 662 C 257 646 223 623 195 595 C 167 567 144 533 128 495 C 112 457 104 416 104 373 C 104 329 112 288 128 250 C 144 212 167 179 195 151 C 223 123 257 100 295 84 C 333 68 373 60 416 60 Z M 279 166 L 279 599 L 434 599 C 452 599 469 596 487 592 C 504 587 519 580 532 571 C 545 561 556 549 564 534 C 572 518 577 500 577 480 C 577 442 566 413 546 393 C 525 373 503 362 479 359 L 478 355 L 612 166 L 535 166 L 417 340 L 346 340 L 346 166 L 279 166 Z M 346 397 L 439 397 C 457 397 474 403 489 416 C 504 428 512 447 512 472 C 512 496 504 514 488 524 C 472 534 452 540 428 540 L 346 540 L 346 397 Z" unicode="®" />
<glyph horiz-adv-x="500" d="M 376 566 L 124 566 L 124 633 L 376 633 L 376 566 Z" unicode="¯" />
<glyph horiz-adv-x="427" d="M 213 375 C 187 375 163 379 141 389 C 119 399 99 412 83 429 C 67 445 54 465 44 487 C 34 509 30 533 30 559 C 30 584 34 608 44 630 C 54 652 67 672 83 688 C 99 704 119 717 141 727 C 163 737 187 742 213 742 C 238 742 262 737 284 727 C 306 717 326 704 343 688 C 359 672 372 652 382 630 C 392 608 397 584 397 559 C 397 533 392 509 382 487 C 372 465 359 445 343 429 C 326 412 306 399 284 389 C 262 379 238 375 213 375 Z M 213 442 C 245 442 273 453 296 476 C 319 499 331 527 331 559 C 331 591 319 618 296 641 C 273 664 245 676 213 676 C 181 676 153 664 130 641 C 106 618 95 591 95 559 C 95 527 106 499 130 476 C 153 453 181 442 213 442 Z" unicode="°" />
<glyph horiz-adv-x="496" d="M 470 298 L 283 298 L 283 114 L 213 114 L 213 298 L 26 298 L 26 363 L 213 363 L 213 548 L 283 548 L 283 363 L 470 363 L 470 298 Z M 464 26 L 33 26 L 33 89 L 464 89 L 464 26 Z" unicode="±" />
<glyph horiz-adv-x="336" d="M 305 372 L 25 372 L 25 399 L 188 555 C 194 561 201 570 209 581 C 216 592 220 605 220 620 C 220 635 214 649 203 661 C 192 673 176 679 154 679 C 129 679 111 671 101 656 C 90 641 84 624 84 605 L 19 605 C 19 641 31 672 56 700 C 80 727 116 741 162 741 C 206 741 239 730 261 710 C 283 689 294 664 294 635 C 294 608 289 586 279 568 C 269 550 258 536 247 526 L 145 432 L 305 432 L 305 372 Z" unicode="²" />
<glyph horiz-adv-x="346" d="M 225 569 C 253 565 275 554 291 538 C 307 521 315 501 315 477 C 315 464 312 451 307 438 C 302 424 294 412 282 401 C 270 390 255 381 235 374 C 215 367 190 364 161 364 C 121 364 89 368 66 378 C 42 388 24 398 11 408 L 52 449 C 62 442 76 435 94 429 C 112 423 133 420 158 420 C 190 420 214 426 228 439 C 242 452 249 468 249 487 C 249 507 240 521 223 528 C 206 534 186 538 164 538 L 92 538 L 92 591 L 159 591 C 181 591 198 595 212 603 C 225 611 232 623 232 639 C 232 652 226 663 214 671 C 202 679 184 683 160 683 C 139 683 120 679 102 671 C 84 663 71 653 63 643 L 23 682 C 36 696 54 710 76 723 C 98 735 129 742 170 742 C 211 742 243 733 266 716 C 288 699 300 678 300 652 C 300 630 292 611 278 597 C 263 583 245 573 225 569 Z" unicode="³" />
<glyph horiz-adv-x="500" d="M 159 547 L 257 713 L 355 713 L 241 547 L 159 547 Z" unicode="´" />
<glyph horiz-adv-x="591" d="M 75 -134 L 75 493 L 158 493 L 158 161 C 158 130 170 105 194 86 C 218 67 248 58 282 58 C 299 58 316 60 333 66 C 350 72 365 80 379 91 C 393 102 404 116 412 133 C 420 150 425 170 425 192 L 425 493 L 507 493 L 507 0 L 431 0 L 431 101 C 420 72 399 47 368 26 C 336 4 302 -6 266 -7 C 241 -7 218 -2 196 8 C 174 18 159 33 151 53 L 151 -134 L 75 -134 Z" unicode="µ" />
<glyph horiz-adv-x="639" d="M 573 -180 L 516 -179 L 516 664 L 407 664 L 407 -179 L 350 -179 L 350 266 L 255 266 C 225 266 197 272 169 284 C 141 296 116 313 95 334 C 74 354 57 378 45 406 C 32 434 26 463 26 494 C 26 527 32 558 44 587 C 56 616 72 641 94 662 C 116 683 142 700 173 712 C 203 724 237 730 275 730 L 573 730 L 573 -180 Z M 351 335 L 351 661 L 297 661 C 247 661 209 645 181 614 C 153 582 139 543 139 497 C 139 475 142 455 150 435 C 157 415 167 397 180 383 C 193 368 209 356 227 348 C 245 339 265 335 287 335 L 351 335 Z" unicode="¶" />
<glyph horiz-adv-x="246" d="M 165 283 L 81 283 L 81 409 L 165 409 L 165 283 Z" unicode="·" />
<glyph horiz-adv-x="500" d="M 254 -186 C 231 -186 208 -183 185 -177 C 162 -171 144 -163 131 -153 L 144 -116 C 153 -122 165 -127 181 -133 C 196 -139 213 -142 232 -142 C 246 -142 259 -138 271 -131 C 282 -124 288 -115 288 -104 C 288 -90 282 -81 272 -76 C 262 -70 251 -68 240 -68 C 232 -68 225 -68 219 -69 C 213 -70 206 -72 200 -75 L 187 -60 L 245 12 L 294 12 L 246 -50 C 278 -43 306 -45 329 -57 C 351 -69 363 -87 363 -111 C 363 -135 352 -154 330 -167 C 308 -179 283 -186 254 -186 Z" unicode="¸" />
<glyph horiz-adv-x="321" d="M 143 372 L 143 652 C 136 640 123 630 103 622 C 83 613 65 607 51 605 L 50 678 C 74 681 96 688 114 699 C 132 709 150 723 168 740 L 220 740 L 220 372 L 143 372 Z" unicode="¹" />
<glyph horiz-adv-x="460" d="M 226 302 C 200 302 175 307 151 317 C 127 327 105 341 87 360 C 69 378 54 401 43 428 C 32 455 27 485 27 519 C 27 548 32 576 43 603 C 53 630 68 654 86 674 C 104 694 126 710 151 722 C 175 734 201 740 229 740 C 257 740 284 734 309 724 C 334 714 356 699 374 681 C 392 663 406 641 417 615 C 427 589 433 560 433 529 C 433 496 427 466 417 438 C 406 410 391 387 373 367 C 354 347 332 331 307 319 C 281 307 254 302 226 302 Z M 228 370 C 266 370 298 384 322 414 C 346 443 359 480 359 526 C 359 568 347 603 324 631 C 301 659 269 674 229 674 C 191 674 160 659 136 629 C 112 599 101 562 101 518 C 101 474 113 438 137 411 C 161 383 192 370 228 370 Z M 45 189 L 45 258 L 412 258 L 412 189 L 45 189 Z" unicode="º" />
<glyph horiz-adv-x="441" d="M 30 488 L 208 317 L 208 263 L 30 95 L 30 180 L 135 291 L 30 398 L 30 488 Z M 236 488 L 413 317 L 413 263 L 236 95 L 236 180 L 341 291 L 236 398 L 236 488 Z" unicode="»" />
<glyph horiz-adv-x="692" d="M 9 0 L 9 0 Z M 102 372 L 102 652 C 95 640 82 630 62 622 C 42 613 24 607 10 605 L 9 678 C 33 681 55 688 73 699 C 91 709 109 723 127 740 L 179 740 L 179 372 L 102 372 Z M 570 730 L 196 0 L 124 0 L 498 730 L 570 730 Z M 384 84 L 384 135 L 573 366 L 621 366 L 621 138 L 684 138 L 684 84 L 621 84 L 621 1 L 552 1 L 552 84 L 384 84 Z M 445 131 L 554 131 L 554 268 L 445 131 Z" unicode="¼" />
<glyph horiz-adv-x="754" d="M 9 0 L 9 0 Z M 102 372 L 102 652 C 95 640 82 630 62 622 C 42 613 24 607 10 605 L 9 678 C 33 681 55 688 73 699 C 91 709 109 723 127 740 L 179 740 L 179 372 L 102 372 Z M 570 730 L 196 0 L 124 0 L 498 730 L 570 730 Z M 734 0 L 454 0 L 454 27 L 617 183 C 623 189 630 198 638 209 C 645 220 649 233 649 248 C 649 263 643 277 632 289 C 621 301 605 307 583 307 C 558 307 540 299 530 284 C 519 269 513 252 513 233 L 448 233 C 448 269 460 300 485 328 C 509 355 545 369 591 369 C 635 369 668 358 690 338 C 712 317 723 292 723 263 C 723 236 718 214 708 196 C 698 178 687 164 676 154 L 574 60 L 734 60 L 734 0 Z" unicode="½" />
<glyph horiz-adv-x="754" d="M 9 0 L 9 0 Z M 631 730 L 257 0 L 185 0 L 559 730 L 631 730 Z M 445 84 L 445 135 L 634 366 L 682 366 L 682 138 L 745 138 L 745 84 L 682 84 L 682 1 L 613 1 L 613 84 L 445 84 Z M 506 131 L 615 131 L 615 268 L 506 131 Z M 223 569 C 251 565 273 554 289 538 C 305 521 313 501 313 477 C 313 464 310 451 305 438 C 300 424 292 412 280 401 C 268 390 253 381 233 374 C 213 367 188 364 159 364 C 119 364 87 368 64 378 C 40 388 22 398 9 408 L 50 449 C 60 442 74 435 92 429 C 110 423 131 420 156 420 C 188 420 212 426 226 439 C 240 452 247 468 247 487 C 247 507 238 521 221 528 C 204 534 184 538 162 538 L 90 538 L 90 591 L 157 591 C 179 591 196 595 210 603 C 223 611 230 623 230 639 C 230 652 224 663 212 671 C 200 679 182 683 158 683 C 137 683 118 679 100 671 C 82 663 69 653 61 643 L 21 682 C 34 696 52 710 74 723 C 96 735 127 742 168 742 C 209 742 241 733 264 716 C 286 699 298 678 298 652 C 298 630 290 611 276 597 C 261 583 243 573 223 569 Z" unicode="¾" />
<glyph horiz-adv-x="456" d="M 201 495 L 201 601 L 294 601 L 294 495 L 201 495 Z M 229 -137 C 169 -137 120 -121 82 -91 C 43 -61 24 -18 24 36 C 24 62 28 85 36 105 C 44 125 54 144 66 160 C 78 176 91 191 105 204 C 119 217 133 229 146 240 C 172 260 188 286 196 316 C 203 346 207 375 208 404 L 291 404 C 291 356 285 317 275 288 C 264 259 244 232 216 206 C 204 196 192 185 180 175 C 168 164 157 152 147 140 C 137 128 128 114 122 99 C 116 83 113 66 113 48 C 113 14 125 -13 149 -33 C 173 -53 203 -63 239 -63 C 270 -63 298 -55 323 -40 C 348 -25 369 -7 386 15 L 441 -37 C 418 -66 388 -90 352 -109 C 316 -127 275 -137 229 -137 Z" unicode="¿" />
<glyph horiz-adv-x="594" d="M 3 0 L 3 0 Z M 591 0 L 499 0 L 427 198 L 160 198 L 90 0 L 3 0 L 269 734 L 327 734 L 591 0 Z M 406 270 L 293 586 L 181 270 L 406 270 Z M 294 788 L 294 788 Z M 392 788 L 309 788 L 196 955 L 293 955 L 392 788 Z" unicode="À" />
<glyph horiz-adv-x="594" d="M 3 0 L 3 0 Z M 591 0 L 499 0 L 427 198 L 160 198 L 90 0 L 3 0 L 269 734 L 327 734 L 591 0 Z M 406 270 L 293 586 L 181 270 L 406 270 Z M 294 791 L 294 791 Z M 196 791 L 294 957 L 392 957 L 278 791 L 196 791 Z" unicode="Á" />
<glyph horiz-adv-x="594" d="M 3 0 L 3 0 Z M 591 0 L 499 0 L 427 198 L 160 198 L 90 0 L 3 0 L 269 734 L 327 734 L 591 0 Z M 406 270 L 293 586 L 181 270 L 406 270 Z M 294 789 L 294 789 Z M 449 789 L 373 789 L 294 904 L 213 789 L 140 789 L 254 960 L 335 960 L 449 789 Z" unicode="Â" />
<glyph horiz-adv-x="594" d="M 3 0 L 3 0 Z M 591 0 L 499 0 L 427 198 L 160 198 L 90 0 L 3 0 L 269 734 L 327 734 L 591 0 Z M 406 270 L 293 586 L 181 270 L 406 270 Z M 294 796 L 294 796 Z M 390 930 L 454 930 C 454 884 447 851 434 829 C 421 807 403 796 381 796 C 363 796 347 799 333 807 C 319 815 307 823 297 831 C 286 839 276 846 266 854 C 256 861 246 865 236 865 C 226 865 217 859 210 848 C 203 836 199 820 199 800 L 136 800 C 136 845 144 879 162 901 C 179 923 198 934 219 934 C 235 934 250 930 262 922 C 274 914 286 905 298 896 C 308 888 317 881 327 874 C 336 867 345 864 355 864 C 364 864 372 869 379 881 C 386 893 390 909 390 930 Z" unicode="Ã" />
<glyph horiz-adv-x="594" d="M 3 0 L 3 0 Z M 591 0 L 499 0 L 427 198 L 160 198 L 90 0 L 3 0 L 269 734 L 327 734 L 591 0 Z M 406 270 L 293 586 L 181 270 L 406 270 Z M 294 789 L 294 789 Z M 413 789 L 344 789 L 344 946 L 413 946 L 413 789 Z M 242 789 L 173 789 L 173 946 L 242 946 L 242 789 Z" unicode="Ä" />
<glyph horiz-adv-x="594" d="M 3 0 L 3 0 Z M 591 0 L 499 0 L 427 198 L 160 198 L 90 0 L 3 0 L 269 734 L 327 734 L 591 0 Z M 406 270 L 293 586 L 181 270 L 406 270 Z M 294 784 L 294 784 Z M 294 784 C 261 784 233 795 211 818 C 188 840 177 868 177 901 C 177 933 188 960 211 983 C 233 1005 261 1017 294 1017 C 326 1017 354 1005 377 983 C 399 960 411 933 411 901 C 411 868 399 840 377 818 C 354 795 326 784 294 784 Z M 294 835 C 312 835 328 841 340 854 C 352 866 358 882 358 901 C 358 919 352 935 340 948 C 328 960 312 967 294 967 C 276 967 260 960 248 948 C 235 935 229 919 229 901 C 229 882 235 866 248 854 C 260 841 276 835 294 835 Z" unicode="Å" />
<glyph horiz-adv-x="886" d="M 845 0 L 457 0 L 457 239 L 222 239 L 82 0 L -11 0 L 412 730 L 827 730 L 827 652 L 542 652 L 542 401 L 815 401 L 815 324 L 542 324 L 542 78 L 845 78 L 845 0 Z M 457 313 L 457 659 L 261 313 L 457 313 Z" unicode="Æ" />
<glyph horiz-adv-x="653" d="M 44 0 L 44 0 Z M 365 -10 C 321 -10 279 -1 240 15 C 201 31 167 55 138 87 C 109 119 86 158 69 205 C 52 251 44 305 44 365 C 44 421 51 472 67 518 C 83 564 105 604 133 637 C 161 669 194 695 234 713 C 274 731 318 740 366 740 C 430 740 482 728 522 706 C 562 684 595 654 620 616 L 553 563 C 534 589 510 612 481 630 C 451 648 414 658 368 658 C 296 658 239 632 197 580 C 155 528 135 456 135 364 C 135 314 141 270 155 233 C 168 196 186 166 208 142 C 230 118 255 100 284 88 C 312 76 342 70 372 70 C 419 70 459 80 491 101 C 523 121 549 147 570 179 L 634 134 C 608 92 573 57 528 30 C 482 3 428 -10 365 -10 Z M 356 -4 L 356 -4 Z M 363 -190 C 340 -190 317 -187 294 -181 C 271 -175 253 -167 240 -157 L 253 -120 C 262 -126 274 -131 290 -137 C 305 -143 322 -146 341 -146 C 355 -146 368 -142 380 -135 C 391 -128 397 -119 397 -108 C 397 -94 391 -85 381 -80 C 371 -74 360 -72 349 -72 C 341 -72 334 -72 328 -73 C 322 -74 315 -76 309 -79 L 296 -64 L 354 8 L 403 8 L 355 -54 C 387 -47 415 -49 438 -61 C 460 -73 472 -91 472 -115 C 472 -139 461 -158 439 -171 C 417 -183 392 -190 363 -190 Z" unicode="Ç" />
<glyph horiz-adv-x="518" d="M 86 0 L 86 0 Z M 477 0 L 86 0 L 86 730 L 459 730 L 459 650 L 174 650 L 174 402 L 446 402 L 446 324 L 174 324 L 174 80 L 477 80 L 477 0 Z M 275 788 L 275 788 Z M 373 788 L 290 788 L 177 955 L 274 955 L 373 788 Z" unicode="È" />
<glyph horiz-adv-x="518" d="M 86 0 L 86 0 Z M 477 0 L 86 0 L 86 730 L 459 730 L 459 650 L 174 650 L 174 402 L 446 402 L 446 324 L 174 324 L 174 80 L 477 80 L 477 0 Z M 275 791 L 275 791 Z M 177 791 L 275 957 L 373 957 L 259 791 L 177 791 Z" unicode="É" />
<glyph horiz-adv-x="518" d="M 86 0 L 86 0 Z M 477 0 L 86 0 L 86 730 L 459 730 L 459 650 L 174 650 L 174 402 L 446 402 L 446 324 L 174 324 L 174 80 L 477 80 L 477 0 Z M 275 789 L 275 789 Z M 430 789 L 354 789 L 275 904 L 194 789 L 121 789 L 235 960 L 316 960 L 430 789 Z" unicode="Ê" />
<glyph horiz-adv-x="518" d="M 86 0 L 86 0 Z M 477 0 L 86 0 L 86 730 L 459 730 L 459 650 L 174 650 L 174 402 L 446 402 L 446 324 L 174 324 L 174 80 L 477 80 L 477 0 Z M 275 789 L 275 789 Z M 394 789 L 325 789 L 325 946 L 394 946 L 394 789 Z M 223 789 L 154 789 L 154 946 L 223 946 L 223 789 Z" unicode="Ë" />
<glyph horiz-adv-x="270" d="M 37 0 L 37 0 Z M 180 0 L 90 0 L 90 730 L 180 730 L 180 0 Z M 135 788 L 135 788 Z M 233 788 L 150 788 L 37 955 L 134 955 L 233 788 Z" unicode="Ì" />
<glyph horiz-adv-x="270" d="M 37 0 L 37 0 Z M 180 0 L 90 0 L 90 730 L 180 730 L 180 0 Z M 135 791 L 135 791 Z M 37 791 L 135 957 L 233 957 L 119 791 L 37 791 Z" unicode="Í" />
<glyph horiz-adv-x="270" d="M 0 0 L 0 0 Z M 180 0 L 90 0 L 90 730 L 180 730 L 180 0 Z M 135 789 L 135 789 Z M 290 789 L 214 789 L 135 904 L 54 789 L -19 789 L 95 960 L 176 960 L 290 789 Z" unicode="Î" />
<glyph horiz-adv-x="270" d="M 14 0 L 14 0 Z M 180 0 L 90 0 L 90 730 L 180 730 L 180 0 Z M 135 789 L 135 789 Z M 254 789 L 185 789 L 185 946 L 254 946 L 254 789 Z M 83 789 L 14 789 L 14 946 L 83 946 L 83 789 Z" unicode="Ï" />
<glyph horiz-adv-x="677" d="M 633 366 C 633 315 625 267 609 223 C 593 178 570 139 540 107 C 510 74 472 48 426 29 C 380 9 328 0 268 0 L 86 0 L 86 324 L 30 324 L 30 394 L 86 394 L 86 730 L 280 730 C 336 730 386 721 430 704 C 474 686 510 662 540 631 C 570 599 593 561 609 516 C 625 471 633 421 633 366 Z M 174 73 L 262 73 C 312 73 354 80 390 96 C 425 112 454 133 476 159 C 498 185 514 216 524 251 C 534 286 540 323 540 363 C 540 457 517 529 471 580 C 425 631 361 657 280 657 L 174 657 L 174 394 L 349 394 L 349 324 L 174 324 L 174 73 Z" unicode="Ð" />
<glyph horiz-adv-x="702" d="M 86 0 L 86 0 Z M 617 0 L 553 0 L 170 553 L 170 0 L 86 0 L 86 730 L 153 730 L 533 178 L 533 730 L 617 730 L 617 0 Z M 352 796 L 352 796 Z M 448 930 L 512 930 C 512 884 505 851 492 829 C 479 807 461 796 439 796 C 421 796 405 799 391 807 C 377 815 365 823 355 831 C 344 839 334 846 324 854 C 314 861 304 865 294 865 C 284 865 275 859 268 848 C 261 836 257 820 257 800 L 194 800 C 194 845 202 879 220 901 C 237 923 256 934 277 934 C 293 934 308 930 320 922 C 332 914 344 905 356 896 C 366 888 375 881 385 874 C 394 867 403 864 413 864 C 422 864 430 869 437 881 C 444 893 448 909 448 930 Z" unicode="Ñ" />
<glyph horiz-adv-x="753" d="M 44 0 L 44 0 Z M 379 -10 C 329 -10 283 0 242 17 C 200 35 165 61 136 94 C 106 127 84 167 68 214 C 52 261 44 313 44 370 C 44 424 52 474 69 520 C 85 566 108 605 137 637 C 166 669 201 695 241 713 C 281 731 325 740 372 740 C 422 740 468 731 510 713 C 552 695 587 670 617 638 C 646 606 669 566 685 520 C 701 474 709 423 709 367 C 709 310 700 258 683 212 C 665 166 642 126 613 93 C 583 60 548 35 508 17 C 468 -1 425 -10 379 -10 Z M 381 68 C 414 68 445 74 475 88 C 504 101 529 120 550 146 C 571 172 588 203 600 241 C 612 278 618 321 618 369 C 618 413 611 453 599 489 C 587 525 570 556 548 581 C 526 606 500 625 470 639 C 440 653 407 660 372 660 C 302 660 246 634 202 583 C 158 532 136 460 136 367 C 136 319 142 276 155 239 C 167 201 185 170 207 145 C 229 120 255 101 285 88 C 315 74 347 68 381 68 Z M 373 788 L 373 788 Z M 471 788 L 388 788 L 275 955 L 372 955 L 471 788 Z" unicode="Ò" />
<glyph horiz-adv-x="753" d="M 44 0 L 44 0 Z M 379 -10 C 329 -10 283 0 242 17 C 200 35 165 61 136 94 C 106 127 84 167 68 214 C 52 261 44 313 44 370 C 44 424 52 474 69 520 C 85 566 108 605 137 637 C 166 669 201 695 241 713 C 281 731 325 740 372 740 C 422 740 468 731 510 713 C 552 695 587 670 617 638 C 646 606 669 566 685 520 C 701 474 709 423 709 367 C 709 310 700 258 683 212 C 665 166 642 126 613 93 C 583 60 548 35 508 17 C 468 -1 425 -10 379 -10 Z M 381 68 C 414 68 445 74 475 88 C 504 101 529 120 550 146 C 571 172 588 203 600 241 C 612 278 618 321 618 369 C 618 413 611 453 599 489 C 587 525 570 556 548 581 C 526 606 500 625 470 639 C 440 653 407 660 372 660 C 302 660 246 634 202 583 C 158 532 136 460 136 367 C 136 319 142 276 155 239 C 167 201 185 170 207 145 C 229 120 255 101 285 88 C 315 74 347 68 381 68 Z M 373 791 L 373 791 Z M 275 791 L 373 957 L 471 957 L 357 791 L 275 791 Z" unicode="Ó" />
<glyph horiz-adv-x="753" d="M 44 0 L 44 0 Z M 379 -10 C 329 -10 283 0 242 17 C 200 35 165 61 136 94 C 106 127 84 167 68 214 C 52 261 44 313 44 370 C 44 424 52 474 69 520 C 85 566 108 605 137 637 C 166 669 201 695 241 713 C 281 731 325 740 372 740 C 422 740 468 731 510 713 C 552 695 587 670 617 638 C 646 606 669 566 685 520 C 701 474 709 423 709 367 C 709 310 700 258 683 212 C 665 166 642 126 613 93 C 583 60 548 35 508 17 C 468 -1 425 -10 379 -10 Z M 381 68 C 414 68 445 74 475 88 C 504 101 529 120 550 146 C 571 172 588 203 600 241 C 612 278 618 321 618 369 C 618 413 611 453 599 489 C 587 525 570 556 548 581 C 526 606 500 625 470 639 C 440 653 407 660 372 660 C 302 660 246 634 202 583 C 158 532 136 460 136 367 C 136 319 142 276 155 239 C 167 201 185 170 207 145 C 229 120 255 101 285 88 C 315 74 347 68 381 68 Z M 373 789 L 373 789 Z M 528 789 L 452 789 L 373 904 L 292 789 L 219 789 L 333 960 L 414 960 L 528 789 Z" unicode="Ô" />
<glyph horiz-adv-x="753" d="M 44 0 L 44 0 Z M 379 -10 C 329 -10 283 0 242 17 C 200 35 165 61 136 94 C 106 127 84 167 68 214 C 52 261 44 313 44 370 C 44 424 52 474 69 520 C 85 566 108 605 137 637 C 166 669 201 695 241 713 C 281 731 325 740 372 740 C 422 740 468 731 510 713 C 552 695 587 670 617 638 C 646 606 669 566 685 520 C 701 474 709 423 709 367 C 709 310 700 258 683 212 C 665 166 642 126 613 93 C 583 60 548 35 508 17 C 468 -1 425 -10 379 -10 Z M 381 68 C 414 68 445 74 475 88 C 504 101 529 120 550 146 C 571 172 588 203 600 241 C 612 278 618 321 618 369 C 618 413 611 453 599 489 C 587 525 570 556 548 581 C 526 606 500 625 470 639 C 440 653 407 660 372 660 C 302 660 246 634 202 583 C 158 532 136 460 136 367 C 136 319 142 276 155 239 C 167 201 185 170 207 145 C 229 120 255 101 285 88 C 315 74 347 68 381 68 Z M 373 796 L 373 796 Z M 469 930 L 533 930 C 533 884 526 851 513 829 C 500 807 482 796 460 796 C 442 796 426 799 412 807 C 398 815 386 823 376 831 C 365 839 355 846 345 854 C 335 861 325 865 315 865 C 305 865 296 859 289 848 C 282 836 278 820 278 800 L 215 800 C 215 845 223 879 241 901 C 258 923 277 934 298 934 C 314 934 329 930 341 922 C 353 914 365 905 377 896 C 387 888 396 881 406 874 C 415 867 424 864 434 864 C 443 864 451 869 458 881 C 465 893 469 909 469 930 Z" unicode="Õ" />
<glyph horiz-adv-x="753" d="M 44 0 L 44 0 Z M 379 -10 C 329 -10 283 0 242 17 C 200 35 165 61 136 94 C 106 127 84 167 68 214 C 52 261 44 313 44 370 C 44 424 52 474 69 520 C 85 566 108 605 137 637 C 166 669 201 695 241 713 C 281 731 325 740 372 740 C 422 740 468 731 510 713 C 552 695 587 670 617 638 C 646 606 669 566 685 520 C 701 474 709 423 709 367 C 709 310 700 258 683 212 C 665 166 642 126 613 93 C 583 60 548 35 508 17 C 468 -1 425 -10 379 -10 Z M 381 68 C 414 68 445 74 475 88 C 504 101 529 120 550 146 C 571 172 588 203 600 241 C 612 278 618 321 618 369 C 618 413 611 453 599 489 C 587 525 570 556 548 581 C 526 606 500 625 470 639 C 440 653 407 660 372 660 C 302 660 246 634 202 583 C 158 532 136 460 136 367 C 136 319 142 276 155 239 C 167 201 185 170 207 145 C 229 120 255 101 285 88 C 315 74 347 68 381 68 Z M 373 789 L 373 789 Z M 492 789 L 423 789 L 423 946 L 492 946 L 492 789 Z M 321 789 L 252 789 L 252 946 L 321 946 L 321 789 Z" unicode="Ö" />
<glyph horiz-adv-x="496" d="M 111 147 L 65 194 L 202 330 L 65 467 L 111 513 L 248 377 L 385 513 L 431 467 L 294 330 L 432 194 L 385 145 L 248 285 L 111 147 Z" unicode="×" />
<glyph horiz-adv-x="753" d="M 709 367 C 709 310 700 258 683 212 C 665 166 642 126 613 93 C 583 60 548 35 508 17 C 468 -1 425 -10 379 -10 C 334 -10 293 -2 255 12 C 217 27 183 48 155 75 L 89 1 L 46 40 L 116 119 C 93 151 75 188 63 231 C 50 273 44 320 44 370 C 44 424 52 474 69 520 C 85 566 108 605 137 637 C 166 669 201 695 241 713 C 281 731 325 740 372 740 C 416 740 458 733 496 719 C 534 705 567 685 596 659 L 671 744 L 715 706 L 635 616 C 658 584 676 547 689 505 C 702 463 709 417 709 367 Z M 136 367 C 136 331 139 298 147 268 C 154 238 164 211 177 188 L 537 593 C 516 614 491 630 463 642 C 435 654 404 660 372 660 C 302 660 246 634 202 583 C 158 532 136 460 136 367 Z M 618 369 C 618 403 614 436 606 466 C 598 496 588 523 574 547 L 212 140 C 234 116 259 98 288 86 C 317 74 348 68 381 68 C 414 68 445 74 475 88 C 504 101 529 120 550 146 C 571 172 588 203 600 241 C 612 278 618 321 618 369 Z" unicode="Ø" />
<glyph horiz-adv-x="677" d="M 80 0 L 80 0 Z M 597 730 L 597 249 C 597 207 590 169 576 137 C 562 105 544 78 520 56 C 496 34 469 18 437 7 C 405 -4 372 -10 336 -10 C 301 -10 268 -4 237 6 C 206 16 179 32 156 54 C 132 75 114 102 100 135 C 86 167 80 205 80 249 L 80 730 L 168 730 L 168 246 C 168 190 184 146 217 116 C 250 85 290 70 337 70 C 360 70 382 73 403 81 C 423 88 441 99 457 114 C 473 128 485 147 494 169 C 503 191 508 216 508 246 L 508 730 L 597 730 Z M 338 788 L 338 788 Z M 436 788 L 353 788 L 240 955 L 337 955 L 436 788 Z" unicode="Ù" />
<glyph horiz-adv-x="677" d="M 80 0 L 80 0 Z M 597 730 L 597 249 C 597 207 590 169 576 137 C 562 105 544 78 520 56 C 496 34 469 18 437 7 C 405 -4 372 -10 336 -10 C 301 -10 268 -4 237 6 C 206 16 179 32 156 54 C 132 75 114 102 100 135 C 86 167 80 205 80 249 L 80 730 L 168 730 L 168 246 C 168 190 184 146 217 116 C 250 85 290 70 337 70 C 360 70 382 73 403 81 C 423 88 441 99 457 114 C 473 128 485 147 494 169 C 503 191 508 216 508 246 L 508 730 L 597 730 Z M 338 791 L 338 791 Z M 240 791 L 338 957 L 436 957 L 322 791 L 240 791 Z" unicode="Ú" />
<glyph horiz-adv-x="677" d="M 80 0 L 80 0 Z M 597 730 L 597 249 C 597 207 590 169 576 137 C 562 105 544 78 520 56 C 496 34 469 18 437 7 C 405 -4 372 -10 336 -10 C 301 -10 268 -4 237 6 C 206 16 179 32 156 54 C 132 75 114 102 100 135 C 86 167 80 205 80 249 L 80 730 L 168 730 L 168 246 C 168 190 184 146 217 116 C 250 85 290 70 337 70 C 360 70 382 73 403 81 C 423 88 441 99 457 114 C 473 128 485 147 494 169 C 503 191 508 216 508 246 L 508 730 L 597 730 Z M 338 789 L 338 789 Z M 493 789 L 417 789 L 338 904 L 257 789 L 184 789 L 298 960 L 379 960 L 493 789 Z" unicode="Û" />
<glyph horiz-adv-x="677" d="M 80 0 L 80 0 Z M 597 730 L 597 249 C 597 207 590 169 576 137 C 562 105 544 78 520 56 C 496 34 469 18 437 7 C 405 -4 372 -10 336 -10 C 301 -10 268 -4 237 6 C 206 16 179 32 156 54 C 132 75 114 102 100 135 C 86 167 80 205 80 249 L 80 730 L 168 730 L 168 246 C 168 190 184 146 217 116 C 250 85 290 70 337 70 C 360 70 382 73 403 81 C 423 88 441 99 457 114 C 473 128 485 147 494 169 C 503 191 508 216 508 246 L 508 730 L 597 730 Z M 338 789 L 338 789 Z M 457 789 L 388 789 L 388 946 L 457 946 L 457 789 Z M 286 789 L 217 789 L 217 946 L 286 946 L 286 789 Z" unicode="Ü" />
<glyph horiz-adv-x="586" d="M 1 0 L 1 0 Z M 585 730 L 336 315 L 336 0 L 246 0 L 246 319 L 1 730 L 101 730 L 296 402 L 493 730 L 585 730 Z M 295 791 L 295 791 Z M 197 791 L 295 957 L 393 957 L 279 791 L 197 791 Z" unicode="Ý" />
<glyph horiz-adv-x="544" d="M 86 0 L 86 730 L 176 730 L 176 597 L 301 597 C 367 597 420 577 460 538 C 499 499 519 447 519 383 C 519 317 498 263 458 223 C 418 182 366 162 304 162 L 176 162 L 176 0 L 86 0 Z M 174 235 L 293 235 C 335 235 368 248 393 274 C 418 300 431 337 431 385 C 431 430 416 464 388 487 C 360 510 326 522 287 522 L 174 522 L 174 235 Z" unicode="Þ" />
<glyph horiz-adv-x="591" d="M 407 -9 C 368 -9 334 -3 304 8 C 274 20 250 36 231 56 L 271 112 C 287 96 307 83 331 74 C 354 64 378 60 403 60 C 426 60 446 66 462 78 C 478 90 486 107 486 129 C 486 148 477 165 461 179 C 445 193 417 207 377 223 C 327 240 291 260 271 282 C 251 304 241 333 241 369 C 241 403 252 430 274 451 C 296 471 320 484 347 489 C 353 492 360 501 368 515 C 376 529 380 554 381 590 C 381 631 370 662 348 682 C 326 702 300 713 270 713 C 240 713 214 703 194 685 C 174 666 164 638 164 600 L 164 0 L 80 0 L 80 606 C 80 634 84 659 94 681 C 104 703 117 721 134 736 C 150 750 170 762 193 770 C 216 778 241 782 267 782 C 293 782 318 777 342 769 C 366 761 386 749 404 733 C 421 717 435 698 445 675 C 455 651 460 625 460 595 C 460 549 452 513 438 488 C 423 463 409 448 397 442 C 376 440 357 433 340 422 C 322 411 313 396 312 377 C 312 358 320 342 338 329 C 355 315 384 301 424 286 C 473 268 509 247 531 224 C 553 201 565 170 565 132 C 565 109 560 89 552 71 C 543 53 531 39 517 27 C 502 15 485 6 466 0 C 447 -6 427 -9 407 -9 Z" unicode="ß" />
<glyph horiz-adv-x="477" d="M 28 0 L 28 0 Z M 420 0 L 342 0 L 342 62 C 326 42 305 25 279 12 C 253 -1 221 -8 185 -8 C 137 -8 98 5 70 32 C 42 58 28 95 28 141 C 28 193 46 233 84 261 C 121 288 170 303 231 307 L 339 314 L 339 333 C 339 365 329 389 311 405 C 292 420 266 428 234 428 C 204 428 178 423 154 413 C 130 403 110 392 95 381 L 63 441 C 81 455 106 468 137 480 C 167 491 204 497 246 497 C 297 497 339 484 371 458 C 403 432 420 392 420 338 L 420 0 Z M 341 119 L 341 252 L 236 246 C 200 243 170 234 146 218 C 122 202 111 177 111 145 C 111 117 120 95 139 81 C 158 66 182 59 210 59 C 238 59 264 65 288 77 C 311 89 329 103 341 119 Z M 234 544 L 234 544 Z M 332 544 L 249 544 L 136 711 L 233 711 L 332 544 Z" unicode="à" />
<glyph horiz-adv-x="477" d="M 28 0 L 28 0 Z M 420 0 L 342 0 L 342 62 C 326 42 305 25 279 12 C 253 -1 221 -8 185 -8 C 137 -8 98 5 70 32 C 42 58 28 95 28 141 C 28 193 46 233 84 261 C 121 288 170 303 231 307 L 339 314 L 339 333 C 339 365 329 389 311 405 C 292 420 266 428 234 428 C 204 428 178 423 154 413 C 130 403 110 392 95 381 L 63 441 C 81 455 106 468 137 480 C 167 491 204 497 246 497 C 297 497 339 484 371 458 C 403 432 420 392 420 338 L 420 0 Z M 341 119 L 341 252 L 236 246 C 200 243 170 234 146 218 C 122 202 111 177 111 145 C 111 117 120 95 139 81 C 158 66 182 59 210 59 C 238 59 264 65 288 77 C 311 89 329 103 341 119 Z M 234 547 L 234 547 Z M 136 547 L 234 713 L 332 713 L 218 547 L 136 547 Z" unicode="á" />
<glyph horiz-adv-x="477" d="M 28 0 L 28 0 Z M 420 0 L 342 0 L 342 62 C 326 42 305 25 279 12 C 253 -1 221 -8 185 -8 C 137 -8 98 5 70 32 C 42 58 28 95 28 141 C 28 193 46 233 84 261 C 121 288 170 303 231 307 L 339 314 L 339 333 C 339 365 329 389 311 405 C 292 420 266 428 234 428 C 204 428 178 423 154 413 C 130 403 110 392 95 381 L 63 441 C 81 455 106 468 137 480 C 167 491 204 497 246 497 C 297 497 339 484 371 458 C 403 432 420 392 420 338 L 420 0 Z M 341 119 L 341 252 L 236 246 C 200 243 170 234 146 218 C 122 202 111 177 111 145 C 111 117 120 95 139 81 C 158 66 182 59 210 59 C 238 59 264 65 288 77 C 311 89 329 103 341 119 Z M 234 545 L 234 545 Z M 389 545 L 313 545 L 234 660 L 153 545 L 80 545 L 194 716 L 275 716 L 389 545 Z" unicode="â" />
<glyph horiz-adv-x="477" d="M 28 0 L 28 0 Z M 420 0 L 342 0 L 342 62 C 326 42 305 25 279 12 C 253 -1 221 -8 185 -8 C 137 -8 98 5 70 32 C 42 58 28 95 28 141 C 28 193 46 233 84 261 C 121 288 170 303 231 307 L 339 314 L 339 333 C 339 365 329 389 311 405 C 292 420 266 428 234 428 C 204 428 178 423 154 413 C 130 403 110 392 95 381 L 63 441 C 81 455 106 468 137 480 C 167 491 204 497 246 497 C 297 497 339 484 371 458 C 403 432 420 392 420 338 L 420 0 Z M 341 119 L 341 252 L 236 246 C 200 243 170 234 146 218 C 122 202 111 177 111 145 C 111 117 120 95 139 81 C 158 66 182 59 210 59 C 238 59 264 65 288 77 C 311 89 329 103 341 119 Z M 234 552 L 234 552 Z M 330 686 L 394 686 C 394 640 387 607 374 585 C 361 563 343 552 321 552 C 303 552 287 555 273 563 C 259 571 247 579 237 587 C 226 595 216 602 206 610 C 196 617 186 621 176 621 C 166 621 157 615 150 604 C 143 592 139 576 139 556 L 76 556 C 76 601 84 635 102 657 C 119 679 138 690 159 690 C 175 690 190 686 202 678 C 214 670 226 661 238 652 C 248 644 257 637 267 630 C 276 623 285 620 295 620 C 304 620 312 625 319 637 C 326 649 330 665 330 686 Z" unicode="ã" />
<glyph horiz-adv-x="477" d="M 28 0 L 28 0 Z M 420 0 L 342 0 L 342 62 C 326 42 305 25 279 12 C 253 -1 221 -8 185 -8 C 137 -8 98 5 70 32 C 42 58 28 95 28 141 C 28 193 46 233 84 261 C 121 288 170 303 231 307 L 339 314 L 339 333 C 339 365 329 389 311 405 C 292 420 266 428 234 428 C 204 428 178 423 154 413 C 130 403 110 392 95 381 L 63 441 C 81 455 106 468 137 480 C 167 491 204 497 246 497 C 297 497 339 484 371 458 C 403 432 420 392 420 338 L 420 0 Z M 341 119 L 341 252 L 236 246 C 200 243 170 234 146 218 C 122 202 111 177 111 145 C 111 117 120 95 139 81 C 158 66 182 59 210 59 C 238 59 264 65 288 77 C 311 89 329 103 341 119 Z M 234 545 L 234 545 Z M 353 545 L 284 545 L 284 702 L 353 702 L 353 545 Z M 182 545 L 113 545 L 113 702 L 182 702 L 182 545 Z" unicode="ä" />
<glyph horiz-adv-x="477" d="M 28 0 L 28 0 Z M 420 0 L 342 0 L 342 62 C 326 42 305 25 279 12 C 253 -1 221 -8 185 -8 C 137 -8 98 5 70 32 C 42 58 28 95 28 141 C 28 193 46 233 84 261 C 121 288 170 303 231 307 L 339 314 L 339 333 C 339 365 329 389 311 405 C 292 420 266 428 234 428 C 204 428 178 423 154 413 C 130 403 110 392 95 381 L 63 441 C 81 455 106 468 137 480 C 167 491 204 497 246 497 C 297 497 339 484 371 458 C 403 432 420 392 420 338 L 420 0 Z M 341 119 L 341 252 L 236 246 C 200 243 170 234 146 218 C 122 202 111 177 111 145 C 111 117 120 95 139 81 C 158 66 182 59 210 59 C 238 59 264 65 288 77 C 311 89 329 103 341 119 Z M 234 540 L 234 540 Z M 234 540 C 201 540 173 551 151 574 C 128 596 117 624 117 657 C 117 689 128 716 151 739 C 173 761 201 773 234 773 C 266 773 294 761 317 739 C 339 716 351 689 351 657 C 351 624 339 596 317 574 C 294 551 266 540 234 540 Z M 234 591 C 252 591 268 597 280 610 C 292 622 298 638 298 657 C 298 675 292 691 280 704 C 268 716 252 723 234 723 C 216 723 200 716 188 704 C 175 691 169 675 169 657 C 169 638 175 622 188 610 C 200 597 216 591 234 591 Z" unicode="å" />
<glyph horiz-adv-x="809" d="M 571 -9 C 545 -9 521 -5 500 1 C 478 7 460 16 444 27 C 428 38 414 50 403 64 C 392 77 384 91 380 105 C 368 74 345 47 311 25 C 277 3 236 -8 188 -8 C 142 -8 104 5 75 31 C 46 57 32 94 32 140 C 32 193 50 233 87 260 C 124 287 173 302 235 306 L 347 313 L 347 328 C 347 362 336 387 316 403 C 295 419 268 428 236 428 C 206 428 179 422 155 412 C 131 402 111 391 97 380 L 67 440 C 86 456 110 469 140 480 C 170 491 203 497 240 497 C 280 497 315 488 343 470 C 371 452 388 428 396 398 C 406 420 425 442 453 464 C 481 485 520 496 568 496 C 634 496 686 471 725 422 C 763 372 783 305 783 220 L 424 220 C 424 171 438 132 465 104 C 492 76 528 62 572 62 C 612 62 643 69 663 83 C 683 97 701 111 716 127 L 764 77 C 744 53 719 33 690 16 C 660 0 621 -9 571 -9 Z M 425 281 L 701 281 C 700 321 687 355 662 384 C 637 412 604 427 562 427 C 522 427 489 413 465 385 C 441 357 427 322 425 281 Z M 213 59 C 247 59 276 69 301 89 C 325 109 341 133 348 161 L 348 251 L 239 245 C 203 242 174 233 150 219 C 126 204 115 180 115 147 C 115 117 124 94 144 80 C 163 66 186 59 213 59 Z" unicode="æ" />
<glyph horiz-adv-x="464" d="M 31 0 L 31 0 Z M 388 140 L 448 96 C 440 84 431 71 420 59 C 409 46 396 35 381 25 C 366 15 348 6 328 0 C 308 -5 285 -9 259 -9 C 224 -9 192 -2 164 10 C 136 22 112 40 92 62 C 72 84 57 110 47 141 C 36 172 31 206 31 242 C 31 277 36 310 47 341 C 58 372 74 399 94 422 C 114 444 139 462 167 476 C 195 489 227 496 261 496 C 312 496 353 484 384 461 C 414 437 436 412 449 386 L 381 347 C 370 367 355 384 336 399 C 316 414 291 422 260 422 C 218 422 183 404 157 370 C 131 336 118 294 118 244 C 118 190 131 146 158 113 C 184 80 220 64 264 64 C 299 64 326 72 345 89 C 363 106 378 123 388 140 Z M 249 -5 L 249 -5 Z M 256 -191 C 233 -191 210 -188 187 -182 C 164 -176 146 -168 133 -158 L 146 -121 C 155 -127 167 -132 183 -138 C 198 -144 215 -147 234 -147 C 248 -147 261 -143 273 -136 C 284 -129 290 -120 290 -109 C 290 -95 284 -86 274 -81 C 264 -75 253 -73 242 -73 C 234 -73 227 -73 221 -74 C 215 -75 208 -77 202 -80 L 189 -65 L 247 7 L 296 7 L 248 -55 C 280 -48 308 -50 331 -62 C 353 -74 365 -92 365 -116 C 365 -140 354 -159 332 -172 C 310 -184 285 -191 256 -191 Z" unicode="ç" />
<glyph horiz-adv-x="502" d="M 32 0 L 32 0 Z M 263 -9 C 229 -9 198 -3 170 8 C 141 19 116 35 96 57 C 76 78 60 104 49 135 C 37 166 32 201 32 241 C 32 277 37 311 49 343 C 60 374 76 401 96 423 C 116 445 139 463 167 476 C 194 489 224 496 257 496 C 323 496 376 471 416 423 C 456 375 476 307 476 220 L 113 220 C 114 172 128 133 155 105 C 182 76 219 62 265 62 C 303 62 333 68 355 82 C 377 95 395 110 409 127 L 457 77 C 438 54 414 34 385 17 C 355 0 315 -9 263 -9 Z M 114 282 L 394 282 C 393 324 380 358 355 386 C 330 413 297 427 257 427 C 216 427 183 413 157 385 C 131 357 117 322 114 282 Z M 256 544 L 256 544 Z M 354 544 L 271 544 L 158 711 L 255 711 L 354 544 Z" unicode="è" />
<glyph horiz-adv-x="502" d="M 32 0 L 32 0 Z M 263 -9 C 229 -9 198 -3 170 8 C 141 19 116 35 96 57 C 76 78 60 104 49 135 C 37 166 32 201 32 241 C 32 277 37 311 49 343 C 60 374 76 401 96 423 C 116 445 139 463 167 476 C 194 489 224 496 257 496 C 323 496 376 471 416 423 C 456 375 476 307 476 220 L 113 220 C 114 172 128 133 155 105 C 182 76 219 62 265 62 C 303 62 333 68 355 82 C 377 95 395 110 409 127 L 457 77 C 438 54 414 34 385 17 C 355 0 315 -9 263 -9 Z M 114 282 L 394 282 C 393 324 380 358 355 386 C 330 413 297 427 257 427 C 216 427 183 413 157 385 C 131 357 117 322 114 282 Z M 256 547 L 256 547 Z M 158 547 L 256 713 L 354 713 L 240 547 L 158 547 Z" unicode="é" />
<glyph horiz-adv-x="502" d="M 32 0 L 32 0 Z M 263 -9 C 229 -9 198 -3 170 8 C 141 19 116 35 96 57 C 76 78 60 104 49 135 C 37 166 32 201 32 241 C 32 277 37 311 49 343 C 60 374 76 401 96 423 C 116 445 139 463 167 476 C 194 489 224 496 257 496 C 323 496 376 471 416 423 C 456 375 476 307 476 220 L 113 220 C 114 172 128 133 155 105 C 182 76 219 62 265 62 C 303 62 333 68 355 82 C 377 95 395 110 409 127 L 457 77 C 438 54 414 34 385 17 C 355 0 315 -9 263 -9 Z M 114 282 L 394 282 C 393 324 380 358 355 386 C 330 413 297 427 257 427 C 216 427 183 413 157 385 C 131 357 117 322 114 282 Z M 256 545 L 256 545 Z M 411 545 L 335 545 L 256 660 L 175 545 L 102 545 L 216 716 L 297 716 L 411 545 Z" unicode="ê" />
<glyph horiz-adv-x="502" d="M 32 0 L 32 0 Z M 263 -9 C 229 -9 198 -3 170 8 C 141 19 116 35 96 57 C 76 78 60 104 49 135 C 37 166 32 201 32 241 C 32 277 37 311 49 343 C 60 374 76 401 96 423 C 116 445 139 463 167 476 C 194 489 224 496 257 496 C 323 496 376 471 416 423 C 456 375 476 307 476 220 L 113 220 C 114 172 128 133 155 105 C 182 76 219 62 265 62 C 303 62 333 68 355 82 C 377 95 395 110 409 127 L 457 77 C 438 54 414 34 385 17 C 355 0 315 -9 263 -9 Z M 114 282 L 394 282 C 393 324 380 358 355 386 C 330 413 297 427 257 427 C 216 427 183 413 157 385 C 131 357 117 322 114 282 Z M 256 545 L 256 545 Z M 375 545 L 306 545 L 306 702 L 375 702 L 375 545 Z M 204 545 L 135 545 L 135 702 L 204 702 L 204 545 Z" unicode="ë" />
<glyph horiz-adv-x="221" d="M 12 0 L 12 0 Z M 153 0 L 69 0 L 69 486 L 153 486 L 153 0 Z M 110 544 L 110 544 Z M 208 544 L 125 544 L 12 711 L 109 711 L 208 544 Z" unicode="ì" />
<glyph horiz-adv-x="221" d="M 12 0 L 12 0 Z M 153 0 L 69 0 L 69 486 L 153 486 L 153 0 Z M 110 547 L 110 547 Z M 12 547 L 110 713 L 208 713 L 94 547 L 12 547 Z" unicode="í" />
<glyph horiz-adv-x="221" d="M 0 0 L 0 0 Z M 153 0 L 69 0 L 69 486 L 153 486 L 153 0 Z M 110 545 L 110 545 Z M 265 545 L 189 545 L 110 660 L 29 545 L -44 545 L 70 716 L 151 716 L 265 545 Z" unicode="î" />
<glyph horiz-adv-x="221" d="M 0 0 L 0 0 Z M 153 0 L 69 0 L 69 486 L 153 486 L 153 0 Z M 110 545 L 110 545 Z M 229 545 L 160 545 L 160 702 L 229 702 L 229 545 Z M 58 545 L -11 545 L -11 702 L 58 702 L 58 545 Z" unicode="ï" />
<glyph horiz-adv-x="531" d="M 493 275 C 493 235 487 197 477 162 C 467 127 452 97 432 72 C 412 46 388 26 359 12 C 330 -2 297 -10 261 -10 C 228 -10 198 -4 170 7 C 142 19 117 35 97 57 C 77 78 61 104 49 135 C 37 165 32 200 32 238 C 32 274 38 307 50 338 C 62 368 78 395 98 417 C 118 439 141 456 168 468 C 194 480 222 487 251 487 C 288 487 320 478 348 460 C 376 442 396 421 408 397 C 403 443 393 485 379 523 C 364 561 347 594 329 623 L 205 577 L 187 629 L 294 668 C 274 690 255 708 236 722 C 216 736 200 745 188 751 L 259 780 C 272 773 288 763 306 749 C 324 735 343 716 363 693 L 438 721 L 456 670 L 396 648 C 422 607 445 556 464 494 C 483 432 493 359 493 275 Z M 261 61 C 306 61 342 77 368 111 C 394 144 408 188 408 242 C 408 296 395 339 369 371 C 343 403 308 419 262 419 C 220 419 185 402 158 369 C 130 335 117 293 117 241 C 117 185 130 141 158 109 C 185 77 219 61 261 61 Z" unicode="ð" />
<glyph horiz-adv-x="519" d="M 66 0 L 66 0 Z M 458 0 L 375 0 L 375 333 C 375 362 365 385 346 401 C 326 417 302 426 272 426 C 257 426 242 423 227 419 C 212 414 199 407 188 397 C 176 387 167 375 160 359 C 152 343 149 325 149 304 L 149 0 L 66 0 L 66 486 L 141 486 L 141 396 C 151 425 170 449 199 468 C 227 486 262 496 302 496 C 346 496 383 483 413 459 C 443 434 458 400 458 356 L 458 0 Z M 265 552 L 265 552 Z M 361 686 L 425 686 C 425 640 418 607 405 585 C 392 563 374 552 352 552 C 334 552 318 555 304 563 C 290 571 278 579 268 587 C 257 595 247 602 237 610 C 227 617 217 621 207 621 C 197 621 188 615 181 604 C 174 592 170 576 170 556 L 107 556 C 107 601 115 635 133 657 C 150 679 169 690 190 690 C 206 690 221 686 233 678 C 245 670 257 661 269 652 C 279 644 288 637 298 630 C 307 623 316 620 326 620 C 335 620 343 625 350 637 C 357 649 361 665 361 686 Z" unicode="ñ" />
<glyph horiz-adv-x="523" d="M 31 0 L 31 0 Z M 259 -9 C 229 -9 200 -3 172 8 C 144 19 120 35 99 57 C 78 78 61 104 49 135 C 37 166 31 201 31 241 C 31 277 37 310 49 342 C 61 373 77 400 97 423 C 117 445 141 463 169 476 C 196 489 225 496 257 496 C 290 496 321 490 350 479 C 378 467 403 451 424 430 C 444 409 461 384 473 354 C 485 324 491 291 491 255 C 491 216 485 180 473 148 C 461 116 445 88 425 65 C 404 41 379 23 351 10 C 323 -2 292 -9 259 -9 Z M 262 63 C 304 63 339 79 365 113 C 391 147 405 192 405 248 C 405 301 391 344 365 376 C 338 408 302 424 256 424 C 216 424 183 407 157 375 C 131 342 118 298 118 243 C 118 184 131 139 159 109 C 187 78 221 63 262 63 Z M 258 544 L 258 544 Z M 356 544 L 273 544 L 160 711 L 257 711 L 356 544 Z" unicode="ò" />
<glyph horiz-adv-x="523" d="M 31 0 L 31 0 Z M 259 -9 C 229 -9 200 -3 172 8 C 144 19 120 35 99 57 C 78 78 61 104 49 135 C 37 166 31 201 31 241 C 31 277 37 310 49 342 C 61 373 77 400 97 423 C 117 445 141 463 169 476 C 196 489 225 496 257 496 C 290 496 321 490 350 479 C 378 467 403 451 424 430 C 444 409 461 384 473 354 C 485 324 491 291 491 255 C 491 216 485 180 473 148 C 461 116 445 88 425 65 C 404 41 379 23 351 10 C 323 -2 292 -9 259 -9 Z M 262 63 C 304 63 339 79 365 113 C 391 147 405 192 405 248 C 405 301 391 344 365 376 C 338 408 302 424 256 424 C 216 424 183 407 157 375 C 131 342 118 298 118 243 C 118 184 131 139 159 109 C 187 78 221 63 262 63 Z M 258 547 L 258 547 Z M 160 547 L 258 713 L 356 713 L 242 547 L 160 547 Z" unicode="ó" />
<glyph horiz-adv-x="523" d="M 31 0 L 31 0 Z M 259 -9 C 229 -9 200 -3 172 8 C 144 19 120 35 99 57 C 78 78 61 104 49 135 C 37 166 31 201 31 241 C 31 277 37 310 49 342 C 61 373 77 400 97 423 C 117 445 141 463 169 476 C 196 489 225 496 257 496 C 290 496 321 490 350 479 C 378 467 403 451 424 430 C 444 409 461 384 473 354 C 485 324 491 291 491 255 C 491 216 485 180 473 148 C 461 116 445 88 425 65 C 404 41 379 23 351 10 C 323 -2 292 -9 259 -9 Z M 262 63 C 304 63 339 79 365 113 C 391 147 405 192 405 248 C 405 301 391 344 365 376 C 338 408 302 424 256 424 C 216 424 183 407 157 375 C 131 342 118 298 118 243 C 118 184 131 139 159 109 C 187 78 221 63 262 63 Z M 258 545 L 258 545 Z M 413 545 L 337 545 L 258 660 L 177 545 L 104 545 L 218 716 L 299 716 L 413 545 Z" unicode="ô" />
<glyph horiz-adv-x="523" d="M 31 0 L 31 0 Z M 259 -9 C 229 -9 200 -3 172 8 C 144 19 120 35 99 57 C 78 78 61 104 49 135 C 37 166 31 201 31 241 C 31 277 37 310 49 342 C 61 373 77 400 97 423 C 117 445 141 463 169 476 C 196 489 225 496 257 496 C 290 496 321 490 350 479 C 378 467 403 451 424 430 C 444 409 461 384 473 354 C 485 324 491 291 491 255 C 491 216 485 180 473 148 C 461 116 445 88 425 65 C 404 41 379 23 351 10 C 323 -2 292 -9 259 -9 Z M 262 63 C 304 63 339 79 365 113 C 391 147 405 192 405 248 C 405 301 391 344 365 376 C 338 408 302 424 256 424 C 216 424 183 407 157 375 C 131 342 118 298 118 243 C 118 184 131 139 159 109 C 187 78 221 63 262 63 Z M 258 552 L 258 552 Z M 354 686 L 418 686 C 418 640 411 607 398 585 C 385 563 367 552 345 552 C 327 552 311 555 297 563 C 283 571 271 579 261 587 C 250 595 240 602 230 610 C 220 617 210 621 200 621 C 190 621 181 615 174 604 C 167 592 163 576 163 556 L 100 556 C 100 601 108 635 126 657 C 143 679 162 690 183 690 C 199 690 214 686 226 678 C 238 670 250 661 262 652 C 272 644 281 637 291 630 C 300 623 309 620 319 620 C 328 620 336 625 343 637 C 350 649 354 665 354 686 Z" unicode="õ" />
<glyph horiz-adv-x="523" d="M 31 0 L 31 0 Z M 259 -9 C 229 -9 200 -3 172 8 C 144 19 120 35 99 57 C 78 78 61 104 49 135 C 37 166 31 201 31 241 C 31 277 37 310 49 342 C 61 373 77 400 97 423 C 117 445 141 463 169 476 C 196 489 225 496 257 496 C 290 496 321 490 350 479 C 378 467 403 451 424 430 C 444 409 461 384 473 354 C 485 324 491 291 491 255 C 491 216 485 180 473 148 C 461 116 445 88 425 65 C 404 41 379 23 351 10 C 323 -2 292 -9 259 -9 Z M 262 63 C 304 63 339 79 365 113 C 391 147 405 192 405 248 C 405 301 391 344 365 376 C 338 408 302 424 256 424 C 216 424 183 407 157 375 C 131 342 118 298 118 243 C 118 184 131 139 159 109 C 187 78 221 63 262 63 Z M 258 545 L 258 545 Z M 377 545 L 308 545 L 308 702 L 377 702 L 377 545 Z M 206 545 L 137 545 L 137 702 L 206 702 L 206 545 Z" unicode="ö" />
<glyph horiz-adv-x="496" d="M 208 448 L 208 561 L 287 561 L 287 448 L 208 448 Z M 26 295 L 26 366 L 469 366 L 469 295 L 26 295 Z M 208 100 L 208 213 L 287 213 L 287 100 L 208 100 Z" unicode="÷" />
<glyph horiz-adv-x="523" d="M 491 255 C 491 216 485 180 473 148 C 461 116 445 88 425 65 C 404 41 379 23 351 10 C 323 -2 292 -9 259 -9 C 232 -9 206 -4 181 5 C 156 14 133 27 113 44 L 69 -6 L 32 28 L 79 81 C 64 101 52 125 44 152 C 35 178 31 208 31 241 C 31 277 37 310 49 342 C 61 373 77 400 97 423 C 117 445 141 463 169 476 C 196 489 225 496 257 496 C 285 496 312 491 337 483 C 362 475 385 463 405 447 L 449 497 L 486 464 L 440 412 C 456 392 468 368 477 342 C 486 315 491 286 491 255 Z M 118 243 C 118 223 119 205 123 189 C 126 173 130 158 136 145 L 353 389 C 340 399 325 408 309 414 C 293 420 275 424 256 424 C 216 424 183 407 157 375 C 131 342 118 298 118 243 Z M 405 248 C 405 267 403 285 399 302 C 395 319 389 334 383 348 L 165 102 C 177 89 192 79 209 73 C 225 66 243 63 262 63 C 304 63 339 79 365 113 C 391 147 405 192 405 248 Z" unicode="ø" />
<glyph horiz-adv-x="519" d="M 61 0 L 61 0 Z M 61 486 L 144 486 L 144 166 C 144 129 154 102 174 85 C 194 67 220 59 253 59 C 284 59 311 69 335 89 C 358 109 370 141 370 183 L 370 486 L 453 486 L 453 0 L 375 0 L 375 88 C 365 61 347 38 320 19 C 292 0 259 -9 219 -9 C 175 -9 137 3 107 29 C 76 54 61 92 61 144 L 61 486 Z M 257 544 L 257 544 Z M 355 544 L 272 544 L 159 711 L 256 711 L 355 544 Z" unicode="ù" />
<glyph horiz-adv-x="519" d="M 61 0 L 61 0 Z M 61 486 L 144 486 L 144 166 C 144 129 154 102 174 85 C 194 67 220 59 253 59 C 284 59 311 69 335 89 C 358 109 370 141 370 183 L 370 486 L 453 486 L 453 0 L 375 0 L 375 88 C 365 61 347 38 320 19 C 292 0 259 -9 219 -9 C 175 -9 137 3 107 29 C 76 54 61 92 61 144 L 61 486 Z M 257 547 L 257 547 Z M 159 547 L 257 713 L 355 713 L 241 547 L 159 547 Z" unicode="ú" />
<glyph horiz-adv-x="519" d="M 61 0 L 61 0 Z M 61 486 L 144 486 L 144 166 C 144 129 154 102 174 85 C 194 67 220 59 253 59 C 284 59 311 69 335 89 C 358 109 370 141 370 183 L 370 486 L 453 486 L 453 0 L 375 0 L 375 88 C 365 61 347 38 320 19 C 292 0 259 -9 219 -9 C 175 -9 137 3 107 29 C 76 54 61 92 61 144 L 61 486 Z M 257 545 L 257 545 Z M 412 545 L 336 545 L 257 660 L 176 545 L 103 545 L 217 716 L 298 716 L 412 545 Z" unicode="û" />
<glyph horiz-adv-x="519" d="M 61 0 L 61 0 Z M 61 486 L 144 486 L 144 166 C 144 129 154 102 174 85 C 194 67 220 59 253 59 C 284 59 311 69 335 89 C 358 109 370 141 370 183 L 370 486 L 453 486 L 453 0 L 375 0 L 375 88 C 365 61 347 38 320 19 C 292 0 259 -9 219 -9 C 175 -9 137 3 107 29 C 76 54 61 92 61 144 L 61 486 Z M 257 545 L 257 545 Z M 376 545 L 307 545 L 307 702 L 376 702 L 376 545 Z M 205 545 L 136 545 L 136 702 L 205 702 L 205 545 Z" unicode="ü" />
<glyph horiz-adv-x="447" d="M 0 0 L 0 0 Z M 449 486 L 213 -91 C 195 -133 172 -161 146 -177 C 119 -192 93 -200 68 -200 C 52 -200 38 -198 27 -195 C 15 -191 7 -188 3 -186 L 29 -114 C 31 -116 37 -118 45 -120 C 53 -122 61 -124 70 -124 C 84 -124 98 -118 111 -108 C 124 -98 136 -80 147 -55 L 183 34 L -3 486 L 86 486 L 225 131 L 365 486 L 449 486 Z M 225 547 L 225 547 Z M 127 547 L 225 713 L 323 713 L 209 547 L 127 547 Z" unicode="ý" />
<glyph horiz-adv-x="534" d="M 66 -198 L 66 774 L 145 774 L 145 381 C 153 410 171 436 199 460 C 227 483 264 495 309 495 C 339 495 366 489 390 477 C 414 465 434 448 450 427 C 466 406 479 381 488 351 C 497 321 502 289 502 254 C 502 214 497 177 487 145 C 477 113 463 85 445 63 C 427 41 406 24 382 12 C 358 0 332 -6 305 -6 C 264 -6 230 4 202 24 C 174 44 155 67 147 94 L 147 -198 L 66 -198 Z M 282 60 C 320 60 352 76 378 109 C 403 141 416 186 416 243 C 416 295 404 339 382 374 C 359 408 325 426 281 426 C 243 426 211 411 184 381 C 157 351 144 303 144 237 C 144 174 157 129 185 101 C 212 73 244 60 282 60 Z" unicode="þ" />
<glyph horiz-adv-x="447" d="M 0 0 L 0 0 Z M 449 486 L 213 -91 C 195 -133 172 -161 146 -177 C 119 -192 93 -200 68 -200 C 52 -200 38 -198 27 -195 C 15 -191 7 -188 3 -186 L 29 -114 C 31 -116 37 -118 45 -120 C 53 -122 61 -124 70 -124 C 84 -124 98 -118 111 -108 C 124 -98 136 -80 147 -55 L 183 34 L -3 486 L 86 486 L 225 131 L 365 486 L 449 486 Z M 225 545 L 225 545 Z M 344 545 L 275 545 L 275 702 L 344 702 L 344 545 Z M 173 545 L 104 545 L 104 702 L 173 702 L 173 545 Z" unicode="ÿ" />
<glyph horiz-adv-x="594" d="M 3 0 L 3 0 Z M 591 0 L 499 0 L 427 198 L 160 198 L 90 0 L 3 0 L 269 734 L 327 734 L 591 0 Z M 406 270 L 293 586 L 181 270 L 406 270 Z M 294 810 L 294 810 Z M 420 810 L 168 810 L 168 877 L 420 877 L 420 810 Z" unicode="Ā" />
<glyph horiz-adv-x="477" d="M 28 0 L 28 0 Z M 420 0 L 342 0 L 342 62 C 326 42 305 25 279 12 C 253 -1 221 -8 185 -8 C 137 -8 98 5 70 32 C 42 58 28 95 28 141 C 28 193 46 233 84 261 C 121 288 170 303 231 307 L 339 314 L 339 333 C 339 365 329 389 311 405 C 292 420 266 428 234 428 C 204 428 178 423 154 413 C 130 403 110 392 95 381 L 63 441 C 81 455 106 468 137 480 C 167 491 204 497 246 497 C 297 497 339 484 371 458 C 403 432 420 392 420 338 L 420 0 Z M 341 119 L 341 252 L 236 246 C 200 243 170 234 146 218 C 122 202 111 177 111 145 C 111 117 120 95 139 81 C 158 66 182 59 210 59 C 238 59 264 65 288 77 C 311 89 329 103 341 119 Z M 234 566 L 234 566 Z M 360 566 L 108 566 L 108 633 L 360 633 L 360 566 Z" unicode="ā" />
<glyph horiz-adv-x="594" d="M 3 0 L 3 0 Z M 591 0 L 499 0 L 427 198 L 160 198 L 90 0 L 3 0 L 269 734 L 327 734 L 591 0 Z M 406 270 L 293 586 L 181 270 L 406 270 Z M 294 794 L 294 794 Z M 370 951 L 440 951 C 436 897 420 857 394 832 C 367 806 334 794 294 794 C 254 794 220 806 194 832 C 167 857 152 897 148 951 L 218 951 C 220 921 226 896 238 878 C 250 859 268 850 294 850 C 319 850 338 859 350 877 C 362 895 368 919 370 951 Z" unicode="Ă" />
<glyph horiz-adv-x="477" d="M 28 0 L 28 0 Z M 420 0 L 342 0 L 342 62 C 326 42 305 25 279 12 C 253 -1 221 -8 185 -8 C 137 -8 98 5 70 32 C 42 58 28 95 28 141 C 28 193 46 233 84 261 C 121 288 170 303 231 307 L 339 314 L 339 333 C 339 365 329 389 311 405 C 292 420 266 428 234 428 C 204 428 178 423 154 413 C 130 403 110 392 95 381 L 63 441 C 81 455 106 468 137 480 C 167 491 204 497 246 497 C 297 497 339 484 371 458 C 403 432 420 392 420 338 L 420 0 Z M 341 119 L 341 252 L 236 246 C 200 243 170 234 146 218 C 122 202 111 177 111 145 C 111 117 120 95 139 81 C 158 66 182 59 210 59 C 238 59 264 65 288 77 C 311 89 329 103 341 119 Z M 234 550 L 234 550 Z M 310 707 L 380 707 C 376 653 360 613 334 588 C 307 562 274 550 234 550 C 194 550 160 562 134 588 C 107 613 92 653 88 707 L 158 707 C 160 677 166 652 178 634 C 190 615 208 606 234 606 C 259 606 278 615 290 633 C 302 651 308 675 310 707 Z" unicode="ă" />
<glyph horiz-adv-x="594" d="M 3 0 L 3 0 Z M 591 0 L 499 0 L 427 198 L 160 198 L 90 0 L 3 0 L 269 734 L 327 734 L 591 0 Z M 406 270 L 293 586 L 181 270 L 406 270 Z M 504 -8 L 504 -8 Z M 609 -100 L 633 -135 C 613 -155 591 -170 567 -181 C 542 -191 515 -197 485 -197 C 452 -197 426 -189 407 -175 C 387 -160 378 -142 378 -120 C 378 -96 388 -73 409 -52 C 430 -30 461 -12 501 4 L 547 3 C 517 -10 494 -24 476 -40 C 458 -55 450 -71 450 -87 C 450 -101 455 -113 467 -122 C 479 -130 494 -135 512 -135 C 532 -135 550 -131 567 -125 C 584 -119 598 -110 609 -100 Z" unicode="Ą" />
<glyph horiz-adv-x="477" d="M 28 0 L 28 0 Z M 420 0 L 342 0 L 342 62 C 326 42 305 25 279 12 C 253 -1 221 -8 185 -8 C 137 -8 98 5 70 32 C 42 58 28 95 28 141 C 28 193 46 233 84 261 C 121 288 170 303 231 307 L 339 314 L 339 333 C 339 365 329 389 311 405 C 292 420 266 428 234 428 C 204 428 178 423 154 413 C 130 403 110 392 95 381 L 63 441 C 81 455 106 468 137 480 C 167 491 204 497 246 497 C 297 497 339 484 371 458 C 403 432 420 392 420 338 L 420 0 Z M 341 119 L 341 252 L 236 246 C 200 243 170 234 146 218 C 122 202 111 177 111 145 C 111 117 120 95 139 81 C 158 66 182 59 210 59 C 238 59 264 65 288 77 C 311 89 329 103 341 119 Z M 351 -8 L 351 -8 Z M 456 -100 L 480 -135 C 460 -155 438 -170 414 -181 C 389 -191 362 -197 332 -197 C 299 -197 273 -189 254 -175 C 234 -160 225 -142 225 -120 C 225 -96 235 -73 256 -52 C 277 -30 308 -12 348 4 L 394 3 C 364 -10 341 -24 323 -40 C 305 -55 297 -71 297 -87 C 297 -101 302 -113 314 -122 C 326 -130 341 -135 359 -135 C 379 -135 397 -131 414 -125 C 431 -119 445 -110 456 -100 Z" unicode="ą" />
<glyph horiz-adv-x="653" d="M 44 0 L 44 0 Z M 365 -10 C 321 -10 279 -1 240 15 C 201 31 167 55 138 87 C 109 119 86 158 69 205 C 52 251 44 305 44 365 C 44 421 51 472 67 518 C 83 564 105 604 133 637 C 161 669 194 695 234 713 C 274 731 318 740 366 740 C 430 740 482 728 522 706 C 562 684 595 654 620 616 L 553 563 C 534 589 510 612 481 630 C 451 648 414 658 368 658 C 296 658 239 632 197 580 C 155 528 135 456 135 364 C 135 314 141 270 155 233 C 168 196 186 166 208 142 C 230 118 255 100 284 88 C 312 76 342 70 372 70 C 419 70 459 80 491 101 C 523 121 549 147 570 179 L 634 134 C 608 92 573 57 528 30 C 482 3 428 -10 365 -10 Z M 367 791 L 367 791 Z M 269 791 L 367 957 L 465 957 L 351 791 L 269 791 Z" unicode="Ć" />
<glyph horiz-adv-x="464" d="M 31 0 L 31 0 Z M 388 140 L 448 96 C 440 84 431 71 420 59 C 409 46 396 35 381 25 C 366 15 348 6 328 0 C 308 -5 285 -9 259 -9 C 224 -9 192 -2 164 10 C 136 22 112 40 92 62 C 72 84 57 110 47 141 C 36 172 31 206 31 242 C 31 277 36 310 47 341 C 58 372 74 399 94 422 C 114 444 139 462 167 476 C 195 489 227 496 261 496 C 312 496 353 484 384 461 C 414 437 436 412 449 386 L 381 347 C 370 367 355 384 336 399 C 316 414 291 422 260 422 C 218 422 183 404 157 370 C 131 336 118 294 118 244 C 118 190 131 146 158 113 C 184 80 220 64 264 64 C 299 64 326 72 345 89 C 363 106 378 123 388 140 Z M 254 547 L 254 547 Z M 156 547 L 254 713 L 352 713 L 238 547 L 156 547 Z" unicode="ć" />
<glyph horiz-adv-x="653" d="M 44 0 L 44 0 Z M 365 -10 C 321 -10 279 -1 240 15 C 201 31 167 55 138 87 C 109 119 86 158 69 205 C 52 251 44 305 44 365 C 44 421 51 472 67 518 C 83 564 105 604 133 637 C 161 669 194 695 234 713 C 274 731 318 740 366 740 C 430 740 482 728 522 706 C 562 684 595 654 620 616 L 553 563 C 534 589 510 612 481 630 C 451 648 414 658 368 658 C 296 658 239 632 197 580 C 155 528 135 456 135 364 C 135 314 141 270 155 233 C 168 196 186 166 208 142 C 230 118 255 100 284 88 C 312 76 342 70 372 70 C 419 70 459 80 491 101 C 523 121 549 147 570 179 L 634 134 C 608 92 573 57 528 30 C 482 3 428 -10 365 -10 Z M 367 789 L 367 789 Z M 522 789 L 446 789 L 367 904 L 286 789 L 213 789 L 327 960 L 408 960 L 522 789 Z" unicode="Ĉ" />
<glyph horiz-adv-x="464" d="M 31 0 L 31 0 Z M 388 140 L 448 96 C 440 84 431 71 420 59 C 409 46 396 35 381 25 C 366 15 348 6 328 0 C 308 -5 285 -9 259 -9 C 224 -9 192 -2 164 10 C 136 22 112 40 92 62 C 72 84 57 110 47 141 C 36 172 31 206 31 242 C 31 277 36 310 47 341 C 58 372 74 399 94 422 C 114 444 139 462 167 476 C 195 489 227 496 261 496 C 312 496 353 484 384 461 C 414 437 436 412 449 386 L 381 347 C 370 367 355 384 336 399 C 316 414 291 422 260 422 C 218 422 183 404 157 370 C 131 336 118 294 118 244 C 118 190 131 146 158 113 C 184 80 220 64 264 64 C 299 64 326 72 345 89 C 363 106 378 123 388 140 Z M 254 545 L 254 545 Z M 409 545 L 333 545 L 254 660 L 173 545 L 100 545 L 214 716 L 295 716 L 409 545 Z" unicode="ĉ" />
<glyph horiz-adv-x="653" d="M 44 0 L 44 0 Z M 365 -10 C 321 -10 279 -1 240 15 C 201 31 167 55 138 87 C 109 119 86 158 69 205 C 52 251 44 305 44 365 C 44 421 51 472 67 518 C 83 564 105 604 133 637 C 161 669 194 695 234 713 C 274 731 318 740 366 740 C 430 740 482 728 522 706 C 562 684 595 654 620 616 L 553 563 C 534 589 510 612 481 630 C 451 648 414 658 368 658 C 296 658 239 632 197 580 C 155 528 135 456 135 364 C 135 314 141 270 155 233 C 168 196 186 166 208 142 C 230 118 255 100 284 88 C 312 76 342 70 372 70 C 419 70 459 80 491 101 C 523 121 549 147 570 179 L 634 134 C 608 92 573 57 528 30 C 482 3 428 -10 365 -10 Z M 367 793 L 367 793 Z M 406 793 L 329 793 L 329 940 L 406 940 L 406 793 Z" unicode="Ċ" />
<glyph horiz-adv-x="464" d="M 31 0 L 31 0 Z M 388 140 L 448 96 C 440 84 431 71 420 59 C 409 46 396 35 381 25 C 366 15 348 6 328 0 C 308 -5 285 -9 259 -9 C 224 -9 192 -2 164 10 C 136 22 112 40 92 62 C 72 84 57 110 47 141 C 36 172 31 206 31 242 C 31 277 36 310 47 341 C 58 372 74 399 94 422 C 114 444 139 462 167 476 C 195 489 227 496 261 496 C 312 496 353 484 384 461 C 414 437 436 412 449 386 L 381 347 C 370 367 355 384 336 399 C 316 414 291 422 260 422 C 218 422 183 404 157 370 C 131 336 118 294 118 244 C 118 190 131 146 158 113 C 184 80 220 64 264 64 C 299 64 326 72 345 89 C 363 106 378 123 388 140 Z M 254 549 L 254 549 Z M 293 549 L 216 549 L 216 696 L 293 696 L 293 549 Z" unicode="ċ" />
<glyph horiz-adv-x="653" d="M 44 0 L 44 0 Z M 365 -10 C 321 -10 279 -1 240 15 C 201 31 167 55 138 87 C 109 119 86 158 69 205 C 52 251 44 305 44 365 C 44 421 51 472 67 518 C 83 564 105 604 133 637 C 161 669 194 695 234 713 C 274 731 318 740 366 740 C 430 740 482 728 522 706 C 562 684 595 654 620 616 L 553 563 C 534 589 510 612 481 630 C 451 648 414 658 368 658 C 296 658 239 632 197 580 C 155 528 135 456 135 364 C 135 314 141 270 155 233 C 168 196 186 166 208 142 C 230 118 255 100 284 88 C 312 76 342 70 372 70 C 419 70 459 80 491 101 C 523 121 549 147 570 179 L 634 134 C 608 92 573 57 528 30 C 482 3 428 -10 365 -10 Z M 367 789 L 367 789 Z M 213 960 L 288 960 L 368 845 L 448 960 L 522 960 L 408 789 L 327 789 L 213 960 Z" unicode="Č" />
<glyph horiz-adv-x="464" d="M 31 0 L 31 0 Z M 388 140 L 448 96 C 440 84 431 71 420 59 C 409 46 396 35 381 25 C 366 15 348 6 328 0 C 308 -5 285 -9 259 -9 C 224 -9 192 -2 164 10 C 136 22 112 40 92 62 C 72 84 57 110 47 141 C 36 172 31 206 31 242 C 31 277 36 310 47 341 C 58 372 74 399 94 422 C 114 444 139 462 167 476 C 195 489 227 496 261 496 C 312 496 353 484 384 461 C 414 437 436 412 449 386 L 381 347 C 370 367 355 384 336 399 C 316 414 291 422 260 422 C 218 422 183 404 157 370 C 131 336 118 294 118 244 C 118 190 131 146 158 113 C 184 80 220 64 264 64 C 299 64 326 72 345 89 C 363 106 378 123 388 140 Z M 254 545 L 254 545 Z M 100 716 L 175 716 L 255 601 L 335 716 L 409 716 L 295 545 L 214 545 L 100 716 Z" unicode="č" />
<glyph horiz-adv-x="677" d="M 86 0 L 86 0 Z M 86 0 L 86 730 L 280 730 C 335 730 385 721 429 704 C 473 687 510 663 540 633 C 570 602 593 565 609 521 C 625 477 633 428 633 375 C 633 322 625 273 609 227 C 593 181 570 141 540 108 C 510 74 472 48 426 29 C 380 9 328 0 268 0 L 86 0 Z M 175 76 L 266 76 C 313 76 354 83 388 98 C 422 113 451 134 473 160 C 495 186 512 218 523 254 C 534 290 540 330 540 372 C 540 459 516 528 470 578 C 423 628 359 653 278 653 L 175 653 L 175 76 Z M 317 789 L 317 789 Z M 163 960 L 238 960 L 318 845 L 398 960 L 472 960 L 358 789 L 277 789 L 163 960 Z" unicode="Ď" />
<glyph horiz-adv-x="538" d="M 32 0 L 32 0 Z M 235 -8 C 204 -8 176 -1 151 10 C 126 22 105 40 87 62 C 69 84 56 110 46 140 C 36 170 32 203 32 239 C 32 277 37 311 48 343 C 58 375 73 402 92 424 C 110 446 132 464 158 477 C 183 489 210 496 239 496 C 277 496 309 485 337 464 C 364 442 382 418 392 391 L 392 774 L 472 774 L 472 0 L 396 0 L 396 103 C 392 90 385 77 376 64 C 367 51 356 39 343 29 C 329 18 313 9 295 2 C 277 -4 257 -8 235 -8 Z M 257 60 C 296 60 329 77 355 111 C 381 145 394 190 394 247 C 394 307 379 351 351 381 C 323 411 291 426 255 426 C 214 426 181 409 156 376 C 130 343 118 299 118 243 C 118 189 130 145 154 111 C 178 77 213 60 257 60 Z M 604 616 L 600 477 L 530 477 L 526 616 L 526 730 L 604 730 L 604 616 Z" unicode="ď" />
<glyph horiz-adv-x="677" d="M 30 0 L 30 0 Z M 633 366 C 633 315 625 267 609 223 C 593 178 570 139 540 107 C 510 74 472 48 426 29 C 380 9 328 0 268 0 L 86 0 L 86 324 L 30 324 L 30 394 L 86 394 L 86 730 L 280 730 C 336 730 386 721 430 704 C 474 686 510 662 540 631 C 570 599 593 561 609 516 C 625 471 633 421 633 366 Z M 174 73 L 262 73 C 312 73 354 80 390 96 C 425 112 454 133 476 159 C 498 185 514 216 524 251 C 534 286 540 323 540 363 C 540 457 517 529 471 580 C 425 631 361 657 280 657 L 174 657 L 174 394 L 349 394 L 349 324 L 174 324 L 174 73 Z" unicode="Đ" />
<glyph horiz-adv-x="538" d="M 396 103 C 392 90 385 77 376 64 C 367 51 356 39 343 29 C 329 18 313 9 295 2 C 277 -4 257 -8 235 -8 C 204 -8 176 -1 151 10 C 126 22 105 40 87 62 C 69 84 56 110 46 140 C 36 170 32 203 32 239 C 32 277 37 311 48 343 C 58 375 73 402 92 424 C 110 446 132 464 158 477 C 183 489 210 496 239 496 C 277 496 309 485 337 464 C 364 442 382 418 392 391 L 392 593 L 257 593 L 257 665 L 392 665 L 392 774 L 472 774 L 472 665 L 531 665 L 531 593 L 472 593 L 472 0 L 396 0 L 396 103 Z M 257 60 C 296 60 329 77 355 111 C 381 145 394 190 394 247 C 394 307 379 351 351 381 C 323 411 291 426 255 426 C 214 426 181 409 156 376 C 130 343 118 299 118 243 C 118 189 130 145 154 111 C 178 77 213 60 257 60 Z" unicode="đ" />
<glyph horiz-adv-x="518" d="M 86 0 L 86 0 Z M 477 0 L 86 0 L 86 730 L 459 730 L 459 650 L 174 650 L 174 402 L 446 402 L 446 324 L 174 324 L 174 80 L 477 80 L 477 0 Z M 275 810 L 275 810 Z M 401 810 L 149 810 L 149 877 L 401 877 L 401 810 Z" unicode="Ē" />
<glyph horiz-adv-x="502" d="M 32 0 L 32 0 Z M 263 -9 C 229 -9 198 -3 170 8 C 141 19 116 35 96 57 C 76 78 60 104 49 135 C 37 166 32 201 32 241 C 32 277 37 311 49 343 C 60 374 76 401 96 423 C 116 445 139 463 167 476 C 194 489 224 496 257 496 C 323 496 376 471 416 423 C 456 375 476 307 476 220 L 113 220 C 114 172 128 133 155 105 C 182 76 219 62 265 62 C 303 62 333 68 355 82 C 377 95 395 110 409 127 L 457 77 C 438 54 414 34 385 17 C 355 0 315 -9 263 -9 Z M 114 282 L 394 282 C 393 324 380 358 355 386 C 330 413 297 427 257 427 C 216 427 183 413 157 385 C 131 357 117 322 114 282 Z M 256 566 L 256 566 Z M 382 566 L 130 566 L 130 633 L 382 633 L 382 566 Z" unicode="ē" />
<glyph horiz-adv-x="518" d="M 86 0 L 86 0 Z M 477 0 L 86 0 L 86 730 L 459 730 L 459 650 L 174 650 L 174 402 L 446 402 L 446 324 L 174 324 L 174 80 L 477 80 L 477 0 Z M 275 794 L 275 794 Z M 351 951 L 421 951 C 417 897 401 857 375 832 C 348 806 315 794 275 794 C 235 794 201 806 175 832 C 148 857 133 897 129 951 L 199 951 C 201 921 207 896 219 878 C 231 859 249 850 275 850 C 300 850 319 859 331 877 C 343 895 349 919 351 951 Z" unicode="Ĕ" />
<glyph horiz-adv-x="502" d="M 32 0 L 32 0 Z M 263 -9 C 229 -9 198 -3 170 8 C 141 19 116 35 96 57 C 76 78 60 104 49 135 C 37 166 32 201 32 241 C 32 277 37 311 49 343 C 60 374 76 401 96 423 C 116 445 139 463 167 476 C 194 489 224 496 257 496 C 323 496 376 471 416 423 C 456 375 476 307 476 220 L 113 220 C 114 172 128 133 155 105 C 182 76 219 62 265 62 C 303 62 333 68 355 82 C 377 95 395 110 409 127 L 457 77 C 438 54 414 34 385 17 C 355 0 315 -9 263 -9 Z M 114 282 L 394 282 C 393 324 380 358 355 386 C 330 413 297 427 257 427 C 216 427 183 413 157 385 C 131 357 117 322 114 282 Z M 256 550 L 256 550 Z M 332 707 L 402 707 C 398 653 382 613 356 588 C 329 562 296 550 256 550 C 216 550 182 562 156 588 C 129 613 114 653 110 707 L 180 707 C 182 677 188 652 200 634 C 212 615 230 606 256 606 C 281 606 300 615 312 633 C 324 651 330 675 332 707 Z" unicode="ĕ" />
<glyph horiz-adv-x="518" d="M 86 0 L 86 0 Z M 477 0 L 86 0 L 86 730 L 459 730 L 459 650 L 174 650 L 174 402 L 446 402 L 446 324 L 174 324 L 174 80 L 477 80 L 477 0 Z M 275 793 L 275 793 Z M 314 793 L 237 793 L 237 940 L 314 940 L 314 793 Z" unicode="Ė" />
<glyph horiz-adv-x="502" d="M 32 0 L 32 0 Z M 263 -9 C 229 -9 198 -3 170 8 C 141 19 116 35 96 57 C 76 78 60 104 49 135 C 37 166 32 201 32 241 C 32 277 37 311 49 343 C 60 374 76 401 96 423 C 116 445 139 463 167 476 C 194 489 224 496 257 496 C 323 496 376 471 416 423 C 456 375 476 307 476 220 L 113 220 C 114 172 128 133 155 105 C 182 76 219 62 265 62 C 303 62 333 68 355 82 C 377 95 395 110 409 127 L 457 77 C 438 54 414 34 385 17 C 355 0 315 -9 263 -9 Z M 114 282 L 394 282 C 393 324 380 358 355 386 C 330 413 297 427 257 427 C 216 427 183 413 157 385 C 131 357 117 322 114 282 Z M 256 549 L 256 549 Z M 295 549 L 218 549 L 218 696 L 295 696 L 295 549 Z" unicode="ė" />
<glyph horiz-adv-x="518" d="M 86 0 L 86 0 Z M 477 0 L 86 0 L 86 730 L 459 730 L 459 650 L 174 650 L 174 402 L 446 402 L 446 324 L 174 324 L 174 80 L 477 80 L 477 0 Z M 433 -8 L 433 -8 Z M 538 -100 L 562 -135 C 542 -155 520 -170 496 -181 C 471 -191 444 -197 414 -197 C 381 -197 355 -189 336 -175 C 316 -160 307 -142 307 -120 C 307 -96 317 -73 338 -52 C 359 -30 390 -12 430 4 L 476 3 C 446 -10 423 -24 405 -40 C 387 -55 379 -71 379 -87 C 379 -101 384 -113 396 -122 C 408 -130 423 -135 441 -135 C 461 -135 479 -131 496 -125 C 513 -119 527 -110 538 -100 Z" unicode="Ę" />
<glyph horiz-adv-x="502" d="M 32 0 L 32 0 Z M 263 -9 C 229 -9 198 -3 170 8 C 141 19 116 35 96 57 C 76 78 60 104 49 135 C 37 166 32 201 32 241 C 32 277 37 311 49 343 C 60 374 76 401 96 423 C 116 445 139 463 167 476 C 194 489 224 496 257 496 C 323 496 376 471 416 423 C 456 375 476 307 476 220 L 113 220 C 114 172 128 133 155 105 C 182 76 219 62 265 62 C 303 62 333 68 355 82 C 377 95 395 110 409 127 L 457 77 C 438 54 414 34 385 17 C 355 0 315 -9 263 -9 Z M 114 282 L 394 282 C 393 324 380 358 355 386 C 330 413 297 427 257 427 C 216 427 183 413 157 385 C 131 357 117 322 114 282 Z M 304 -8 L 304 -8 Z M 409 -100 L 433 -135 C 413 -155 391 -170 367 -181 C 342 -191 315 -197 285 -197 C 252 -197 226 -189 207 -175 C 187 -160 178 -142 178 -120 C 178 -96 188 -73 209 -52 C 230 -30 261 -12 301 4 L 347 3 C 317 -10 294 -24 276 -40 C 258 -55 250 -71 250 -87 C 250 -101 255 -113 267 -122 C 279 -130 294 -135 312 -135 C 332 -135 350 -131 367 -125 C 384 -119 398 -110 409 -100 Z" unicode="ę" />
<glyph horiz-adv-x="518" d="M 86 0 L 86 0 Z M 477 0 L 86 0 L 86 730 L 459 730 L 459 650 L 174 650 L 174 402 L 446 402 L 446 324 L 174 324 L 174 80 L 477 80 L 477 0 Z M 275 789 L 275 789 Z M 121 960 L 196 960 L 276 845 L 356 960 L 430 960 L 316 789 L 235 789 L 121 960 Z" unicode="Ě" />
<glyph horiz-adv-x="502" d="M 32 0 L 32 0 Z M 263 -9 C 229 -9 198 -3 170 8 C 141 19 116 35 96 57 C 76 78 60 104 49 135 C 37 166 32 201 32 241 C 32 277 37 311 49 343 C 60 374 76 401 96 423 C 116 445 139 463 167 476 C 194 489 224 496 257 496 C 323 496 376 471 416 423 C 456 375 476 307 476 220 L 113 220 C 114 172 128 133 155 105 C 182 76 219 62 265 62 C 303 62 333 68 355 82 C 377 95 395 110 409 127 L 457 77 C 438 54 414 34 385 17 C 355 0 315 -9 263 -9 Z M 114 282 L 394 282 C 393 324 380 358 355 386 C 330 413 297 427 257 427 C 216 427 183 413 157 385 C 131 357 117 322 114 282 Z M 256 545 L 256 545 Z M 102 716 L 177 716 L 257 601 L 337 716 L 411 716 L 297 545 L 216 545 L 102 716 Z" unicode="ě" />
<glyph horiz-adv-x="701" d="M 44 0 L 44 0 Z M 377 362 L 656 362 L 656 140 C 630 94 593 57 544 30 C 495 3 438 -10 372 -10 C 326 -10 283 -1 243 17 C 203 35 168 60 139 92 C 109 124 86 164 69 210 C 52 256 44 308 44 365 C 44 422 52 474 69 520 C 86 566 109 606 139 638 C 169 670 204 695 244 713 C 284 731 328 740 374 740 C 440 740 492 728 530 705 C 568 681 598 655 619 627 L 555 572 C 537 594 513 614 485 631 C 457 648 419 657 372 657 C 338 657 306 650 277 637 C 248 624 223 605 202 581 C 180 556 164 525 152 489 C 140 452 134 411 134 365 C 134 319 140 278 153 242 C 165 205 182 174 204 148 C 225 122 250 101 280 87 C 310 73 341 66 375 66 C 420 66 460 74 496 92 C 532 110 558 135 575 167 L 575 283 L 377 283 L 377 362 Z M 373 789 L 373 789 Z M 528 789 L 452 789 L 373 904 L 292 789 L 219 789 L 333 960 L 414 960 L 528 789 Z" unicode="Ĝ" />
<glyph horiz-adv-x="535" d="M 32 0 L 32 0 Z M 236 1 C 175 1 126 23 88 69 C 50 114 32 173 32 245 C 32 320 51 380 90 426 C 129 472 178 495 237 495 C 275 495 309 484 337 464 C 365 443 384 419 395 391 L 395 486 L 471 486 L 471 39 C 471 -1 464 -37 451 -67 C 437 -97 420 -121 399 -140 C 377 -159 353 -173 325 -183 C 297 -192 268 -197 239 -197 C 195 -197 160 -193 134 -185 C 108 -177 89 -168 77 -160 L 108 -94 C 119 -101 135 -108 155 -116 C 175 -123 201 -127 232 -127 C 275 -127 312 -113 344 -87 C 375 -60 391 -20 391 33 L 391 113 C 382 85 364 60 337 36 C 309 12 276 1 236 1 Z M 258 66 C 293 66 324 81 352 113 C 380 144 394 190 394 250 C 394 306 380 349 352 379 C 324 409 292 425 255 425 C 215 425 182 408 156 376 C 130 344 118 300 118 244 C 118 190 130 146 155 114 C 179 82 214 66 258 66 Z M 249 545 L 249 545 Z M 404 545 L 328 545 L 249 660 L 168 545 L 95 545 L 209 716 L 290 716 L 404 545 Z" unicode="ĝ" />
<glyph horiz-adv-x="701" d="M 44 0 L 44 0 Z M 377 362 L 656 362 L 656 140 C 630 94 593 57 544 30 C 495 3 438 -10 372 -10 C 326 -10 283 -1 243 17 C 203 35 168 60 139 92 C 109 124 86 164 69 210 C 52 256 44 308 44 365 C 44 422 52 474 69 520 C 86 566 109 606 139 638 C 169 670 204 695 244 713 C 284 731 328 740 374 740 C 440 740 492 728 530 705 C 568 681 598 655 619 627 L 555 572 C 537 594 513 614 485 631 C 457 648 419 657 372 657 C 338 657 306 650 277 637 C 248 624 223 605 202 581 C 180 556 164 525 152 489 C 140 452 134 411 134 365 C 134 319 140 278 153 242 C 165 205 182 174 204 148 C 225 122 250 101 280 87 C 310 73 341 66 375 66 C 420 66 460 74 496 92 C 532 110 558 135 575 167 L 575 283 L 377 283 L 377 362 Z M 373 794 L 373 794 Z M 449 951 L 519 951 C 515 897 499 857 473 832 C 446 806 413 794 373 794 C 333 794 299 806 273 832 C 246 857 231 897 227 951 L 297 951 C 299 921 305 896 317 878 C 329 859 347 850 373 850 C 398 850 417 859 429 877 C 441 895 447 919 449 951 Z" unicode="Ğ" />
<glyph horiz-adv-x="535" d="M 32 0 L 32 0 Z M 236 1 C 175 1 126 23 88 69 C 50 114 32 173 32 245 C 32 320 51 380 90 426 C 129 472 178 495 237 495 C 275 495 309 484 337 464 C 365 443 384 419 395 391 L 395 486 L 471 486 L 471 39 C 471 -1 464 -37 451 -67 C 437 -97 420 -121 399 -140 C 377 -159 353 -173 325 -183 C 297 -192 268 -197 239 -197 C 195 -197 160 -193 134 -185 C 108 -177 89 -168 77 -160 L 108 -94 C 119 -101 135 -108 155 -116 C 175 -123 201 -127 232 -127 C 275 -127 312 -113 344 -87 C 375 -60 391 -20 391 33 L 391 113 C 382 85 364 60 337 36 C 309 12 276 1 236 1 Z M 258 66 C 293 66 324 81 352 113 C 380 144 394 190 394 250 C 394 306 380 349 352 379 C 324 409 292 425 255 425 C 215 425 182 408 156 376 C 130 344 118 300 118 244 C 118 190 130 146 155 114 C 179 82 214 66 258 66 Z M 249 550 L 249 550 Z M 325 707 L 395 707 C 391 653 375 613 349 588 C 322 562 289 550 249 550 C 209 550 175 562 149 588 C 122 613 107 653 103 707 L 173 707 C 175 677 181 652 193 634 C 205 615 223 606 249 606 C 274 606 293 615 305 633 C 317 651 323 675 325 707 Z" unicode="ğ" />
<glyph horiz-adv-x="701" d="M 44 0 L 44 0 Z M 377 362 L 656 362 L 656 140 C 630 94 593 57 544 30 C 495 3 438 -10 372 -10 C 326 -10 283 -1 243 17 C 203 35 168 60 139 92 C 109 124 86 164 69 210 C 52 256 44 308 44 365 C 44 422 52 474 69 520 C 86 566 109 606 139 638 C 169 670 204 695 244 713 C 284 731 328 740 374 740 C 440 740 492 728 530 705 C 568 681 598 655 619 627 L 555 572 C 537 594 513 614 485 631 C 457 648 419 657 372 657 C 338 657 306 650 277 637 C 248 624 223 605 202 581 C 180 556 164 525 152 489 C 140 452 134 411 134 365 C 134 319 140 278 153 242 C 165 205 182 174 204 148 C 225 122 250 101 280 87 C 310 73 341 66 375 66 C 420 66 460 74 496 92 C 532 110 558 135 575 167 L 575 283 L 377 283 L 377 362 Z M 373 793 L 373 793 Z M 412 793 L 335 793 L 335 940 L 412 940 L 412 793 Z" unicode="Ġ" />
<glyph horiz-adv-x="535" d="M 32 0 L 32 0 Z M 236 1 C 175 1 126 23 88 69 C 50 114 32 173 32 245 C 32 320 51 380 90 426 C 129 472 178 495 237 495 C 275 495 309 484 337 464 C 365 443 384 419 395 391 L 395 486 L 471 486 L 471 39 C 471 -1 464 -37 451 -67 C 437 -97 420 -121 399 -140 C 377 -159 353 -173 325 -183 C 297 -192 268 -197 239 -197 C 195 -197 160 -193 134 -185 C 108 -177 89 -168 77 -160 L 108 -94 C 119 -101 135 -108 155 -116 C 175 -123 201 -127 232 -127 C 275 -127 312 -113 344 -87 C 375 -60 391 -20 391 33 L 391 113 C 382 85 364 60 337 36 C 309 12 276 1 236 1 Z M 258 66 C 293 66 324 81 352 113 C 380 144 394 190 394 250 C 394 306 380 349 352 379 C 324 409 292 425 255 425 C 215 425 182 408 156 376 C 130 344 118 300 118 244 C 118 190 130 146 155 114 C 179 82 214 66 258 66 Z M 249 549 L 249 549 Z M 288 549 L 211 549 L 211 696 L 288 696 L 288 549 Z" unicode="ġ" />
<glyph horiz-adv-x="701" d="M 44 0 L 44 0 Z M 377 362 L 656 362 L 656 140 C 630 94 593 57 544 30 C 495 3 438 -10 372 -10 C 326 -10 283 -1 243 17 C 203 35 168 60 139 92 C 109 124 86 164 69 210 C 52 256 44 308 44 365 C 44 422 52 474 69 520 C 86 566 109 606 139 638 C 169 670 204 695 244 713 C 284 731 328 740 374 740 C 440 740 492 728 530 705 C 568 681 598 655 619 627 L 555 572 C 537 594 513 614 485 631 C 457 648 419 657 372 657 C 338 657 306 650 277 637 C 248 624 223 605 202 581 C 180 556 164 525 152 489 C 140 452 134 411 134 365 C 134 319 140 278 153 242 C 165 205 182 174 204 148 C 225 122 250 101 280 87 C 310 73 341 66 375 66 C 420 66 460 74 496 92 C 532 110 558 135 575 167 L 575 283 L 377 283 L 377 362 Z" unicode="Ģ" />
<glyph horiz-adv-x="535" d="M 32 0 L 32 0 Z M 236 1 C 175 1 126 23 88 69 C 50 114 32 173 32 245 C 32 320 51 380 90 426 C 129 472 178 495 237 495 C 275 495 309 484 337 464 C 365 443 384 419 395 391 L 395 486 L 471 486 L 471 39 C 471 -1 464 -37 451 -67 C 437 -97 420 -121 399 -140 C 377 -159 353 -173 325 -183 C 297 -192 268 -197 239 -197 C 195 -197 160 -193 134 -185 C 108 -177 89 -168 77 -160 L 108 -94 C 119 -101 135 -108 155 -116 C 175 -123 201 -127 232 -127 C 275 -127 312 -113 344 -87 C 375 -60 391 -20 391 33 L 391 113 C 382 85 364 60 337 36 C 309 12 276 1 236 1 Z M 258 66 C 293 66 324 81 352 113 C 380 144 394 190 394 250 C 394 306 380 349 352 379 C 324 409 292 425 255 425 C 215 425 182 408 156 376 C 130 344 118 300 118 244 C 118 190 130 146 155 114 C 179 82 214 66 258 66 Z" unicode="ģ" />
<glyph horiz-adv-x="687" d="M 86 0 L 86 0 Z M 601 0 L 511 0 L 511 320 L 176 320 L 176 0 L 86 0 L 86 730 L 176 730 L 176 401 L 511 401 L 511 730 L 601 730 L 601 0 Z M 342 789 L 342 789 Z M 497 789 L 421 789 L 342 904 L 261 789 L 188 789 L 302 960 L 383 960 L 497 789 Z" unicode="Ĥ" />
<glyph horiz-adv-x="519" d="M 66 0 L 66 0 Z M 458 0 L 375 0 L 375 330 C 375 360 365 384 346 401 C 326 417 302 426 272 426 C 241 426 213 416 187 397 C 161 377 149 347 149 306 L 149 0 L 66 0 L 66 774 L 143 774 L 143 398 C 151 426 168 449 196 468 C 224 486 259 496 301 496 C 345 496 382 483 412 459 C 442 435 458 399 458 351 L 458 0 Z M 276 833 L 276 833 Z M 431 833 L 355 833 L 276 948 L 195 833 L 122 833 L 236 1004 L 317 1004 L 431 833 Z" unicode="ĥ" />
<glyph horiz-adv-x="687" d="M 176 320 L 176 0 L 86 0 L 86 549 L 10 549 L 10 620 L 86 620 L 86 730 L 176 730 L 176 620 L 511 620 L 511 730 L 601 730 L 601 620 L 677 620 L 677 549 L 601 549 L 601 0 L 511 0 L 511 320 L 176 320 Z M 176 401 L 511 401 L 511 549 L 176 549 L 176 401 Z" unicode="Ħ" />
<glyph horiz-adv-x="519" d="M 149 306 L 149 0 L 66 0 L 66 594 L 8 594 L 8 665 L 66 665 L 66 774 L 143 774 L 143 665 L 284 665 L 284 594 L 143 594 L 143 398 C 151 426 168 449 196 468 C 224 486 259 496 301 496 C 345 496 382 483 412 459 C 442 435 458 399 458 351 L 458 0 L 375 0 L 375 330 C 375 360 365 384 346 401 C 326 417 302 426 272 426 C 241 426 213 416 187 397 C 161 377 149 347 149 306 Z" unicode="ħ" />
<glyph horiz-adv-x="270" d="M 0 0 L 0 0 Z M 180 0 L 90 0 L 90 730 L 180 730 L 180 0 Z M 135 796 L 135 796 Z M 231 930 L 295 930 C 295 884 288 851 275 829 C 262 807 244 796 222 796 C 204 796 188 799 174 807 C 160 815 148 823 138 831 C 127 839 117 846 107 854 C 97 861 87 865 77 865 C 67 865 58 859 51 848 C 44 836 40 820 40 800 L -23 800 C -23 845 -14 879 3 901 C 20 923 39 934 60 934 C 76 934 91 930 103 922 C 115 914 127 905 139 896 C 149 888 158 881 168 874 C 177 867 186 864 196 864 C 205 864 213 869 220 881 C 227 893 231 909 231 930 Z" unicode="Ĩ" />
<glyph horiz-adv-x="221" d="M 0 0 L 0 0 Z M 153 0 L 69 0 L 69 486 L 153 486 L 153 0 Z M 110 552 L 110 552 Z M 206 686 L 270 686 C 270 640 263 607 250 585 C 237 563 219 552 197 552 C 179 552 163 555 149 563 C 135 571 123 579 113 587 C 102 595 92 602 82 610 C 72 617 62 621 52 621 C 42 621 33 615 26 604 C 19 592 15 576 15 556 L -48 556 C -48 601 -39 635 -22 657 C -4 679 14 690 35 690 C 51 690 66 686 78 678 C 90 670 102 661 114 652 C 124 644 133 637 143 630 C 152 623 161 620 171 620 C 180 620 188 625 195 637 C 202 649 206 665 206 686 Z" unicode="ĩ" />
<glyph horiz-adv-x="270" d="M 9 0 L 9 0 Z M 180 0 L 90 0 L 90 730 L 180 730 L 180 0 Z M 135 810 L 135 810 Z M 261 810 L 9 810 L 9 877 L 261 877 L 261 810 Z" unicode="Ī" />
<glyph horiz-adv-x="221" d="M 0 0 L 0 0 Z M 153 0 L 69 0 L 69 486 L 153 486 L 153 0 Z M 110 566 L 110 566 Z M 236 566 L -16 566 L -16 633 L 236 633 L 236 566 Z" unicode="ī" />
<glyph horiz-adv-x="270" d="M 0 0 L 0 0 Z M 180 0 L 90 0 L 90 730 L 180 730 L 180 0 Z M 135 794 L 135 794 Z M 211 951 L 281 951 C 277 897 261 857 235 832 C 208 806 175 794 135 794 C 95 794 61 806 35 832 C 8 857 -7 897 -11 951 L 59 951 C 61 921 67 896 79 878 C 91 859 109 850 135 850 C 160 850 179 859 191 877 C 203 895 209 919 211 951 Z" unicode="Ĭ" />
<glyph horiz-adv-x="221" d="M 0 0 L 0 0 Z M 153 0 L 69 0 L 69 486 L 153 486 L 153 0 Z M 110 550 L 110 550 Z M 186 707 L 256 707 C 252 653 236 613 210 588 C 183 562 150 550 110 550 C 70 550 36 562 10 588 C -16 613 -32 653 -36 707 L 34 707 C 36 677 42 652 54 634 C 66 615 84 606 110 606 C 135 606 154 615 166 633 C 178 651 184 675 186 707 Z" unicode="ĭ" />
<glyph horiz-adv-x="270" d="M 0 0 L 0 0 Z M 180 0 L 90 0 L 90 730 L 180 730 L 180 0 Z M 96 -9 L 96 -9 Z M 201 -101 L 225 -136 C 205 -156 183 -171 159 -182 C 134 -192 107 -198 77 -198 C 44 -198 18 -190 -1 -176 C -20 -161 -30 -143 -30 -121 C -30 -97 -19 -74 1 -53 C 22 -31 53 -13 93 3 L 139 2 C 109 -11 86 -25 68 -41 C 50 -56 42 -72 42 -88 C 42 -102 47 -114 59 -123 C 71 -131 86 -136 104 -136 C 124 -136 142 -132 159 -126 C 176 -120 190 -111 201 -101 Z" unicode="Į" />
<glyph horiz-adv-x="221" d="M 0 0 L 0 0 Z M 67 592 L 67 681 L 155 681 L 155 592 L 67 592 Z M 69 0 L 69 486 L 152 486 L 152 0 L 69 0 Z M 76 -8 L 76 -8 Z M 181 -100 L 205 -135 C 185 -155 163 -170 139 -181 C 114 -191 87 -197 57 -197 C 24 -197 -1 -189 -21 -175 C -40 -160 -50 -142 -50 -120 C -50 -96 -39 -73 -18 -52 C 2 -30 33 -12 73 4 L 119 3 C 89 -10 66 -24 48 -40 C 30 -55 22 -71 22 -87 C 22 -101 27 -113 39 -122 C 51 -130 66 -135 84 -135 C 104 -135 122 -131 139 -125 C 156 -119 170 -110 181 -100 Z" unicode="į" />
<glyph horiz-adv-x="270" d="M 90 0 L 90 0 Z M 180 0 L 90 0 L 90 730 L 180 730 L 180 0 Z M 135 793 L 135 793 Z M 174 793 L 97 793 L 97 940 L 174 940 L 174 793 Z" unicode="İ" />
<glyph horiz-adv-x="221" d="M 153 0 L 69 0 L 69 486 L 153 486 L 153 0 Z" unicode="ı" />
<glyph horiz-adv-x="583" d="M 90 0 L 90 0 Z M 180 0 L 90 0 L 90 730 L 180 730 L 180 0 Z M 506 730 L 506 189 C 506 161 501 135 493 111 C 485 87 473 66 457 48 C 441 30 421 15 397 5 C 373 -5 345 -11 314 -11 C 298 -11 282 -9 265 -7 C 248 -5 235 -1 225 3 L 240 80 C 246 77 255 75 268 73 C 280 71 292 70 304 70 C 340 70 369 81 389 105 C 409 129 419 158 419 192 L 419 730 L 506 730 Z" unicode="Ĳ" />
<glyph horiz-adv-x="421" d="M 67 0 L 67 0 Z M 67 592 L 67 681 L 155 681 L 155 592 L 67 592 Z M 69 0 L 69 486 L 152 486 L 152 0 L 69 0 Z M 362 592 L 275 592 L 275 681 L 362 681 L 362 592 Z M 360 486 L 360 -57 C 360 -99 348 -132 324 -157 C 300 -182 271 -195 236 -195 C 221 -195 206 -193 191 -189 C 176 -185 165 -181 157 -177 L 174 -113 C 178 -115 185 -117 194 -119 C 202 -121 211 -122 221 -122 C 235 -122 248 -115 260 -102 C 271 -89 277 -71 277 -49 L 277 486 L 360 486 Z" unicode="ĳ" />
<glyph horiz-adv-x="366" d="M 10 0 L 10 0 Z M 291 730 L 291 189 C 291 161 286 135 278 111 C 270 87 258 66 242 48 C 226 30 206 15 182 5 C 158 -5 130 -11 99 -11 C 83 -11 67 -9 50 -7 C 33 -5 20 -1 10 3 L 25 80 C 31 77 40 75 53 73 C 65 71 77 70 89 70 C 125 70 154 81 174 105 C 194 129 204 158 204 192 L 204 730 L 291 730 Z M 247 789 L 247 789 Z M 402 789 L 326 789 L 247 904 L 166 789 L 93 789 L 207 960 L 288 960 L 402 789 Z" unicode="Ĵ" />
<glyph horiz-adv-x="231" d="M 0 0 L 0 0 Z M 167 486 L 167 -58 C 167 -100 154 -133 130 -159 C 106 -185 76 -197 40 -197 C 26 -197 11 -195 -3 -192 C -18 -188 -30 -184 -38 -180 L -21 -115 C -16 -117 -9 -120 -1 -122 C 7 -124 16 -125 26 -125 C 41 -125 54 -118 66 -105 C 78 -91 84 -73 84 -49 L 84 486 L 167 486 Z M 124 545 L 124 545 Z M 279 545 L 203 545 L 124 660 L 43 545 L -30 545 L 84 716 L 165 716 L 279 545 Z" unicode="ĵ" />
<glyph horiz-adv-x="614" d="M 86 0 L 86 0 Z M 609 0 L 500 0 L 257 335 L 176 236 L 176 0 L 86 0 L 86 730 L 176 730 L 176 347 L 472 730 L 574 730 L 317 402 L 609 0 Z M 308 -75 L 308 -75 Z M 395 -75 C 393 -99 388 -123 381 -147 C 374 -171 365 -195 355 -217 C 345 -239 333 -259 321 -278 C 309 -297 296 -313 283 -327 L 221 -298 C 228 -288 236 -276 245 -260 C 254 -244 263 -226 271 -206 C 279 -186 286 -164 293 -142 C 299 -119 304 -97 307 -75 L 395 -75 Z" unicode="Ķ" />
<glyph horiz-adv-x="472" d="M 66 0 L 66 0 Z M 486 1 L 391 0 L 232 222 L 148 127 L 148 0 L 66 0 L 66 774 L 146 774 L 146 219 L 360 486 L 451 486 L 286 283 L 486 1 Z M 240 -75 L 240 -75 Z M 327 -75 C 325 -99 320 -123 313 -147 C 306 -171 297 -195 287 -217 C 277 -239 265 -259 253 -278 C 241 -297 228 -313 215 -327 L 153 -298 C 160 -288 168 -276 177 -260 C 186 -244 195 -226 203 -206 C 211 -186 218 -164 225 -142 C 231 -119 236 -97 239 -75 L 327 -75 Z" unicode="ķ" />
<glyph horiz-adv-x="472" d="M 486 1 L 391 0 L 232 222 L 148 127 L 148 0 L 66 0 L 66 486 L 146 486 L 146 219 L 360 486 L 451 486 L 286 283 L 486 1 Z" unicode="ĸ" />
<glyph horiz-adv-x="461" d="M 86 0 L 86 0 Z M 452 0 L 86 0 L 86 730 L 176 730 L 176 80 L 452 80 L 452 0 Z M 283 791 L 283 791 Z M 185 791 L 283 957 L 381 957 L 267 791 L 185 791 Z" unicode="Ĺ" />
<glyph horiz-adv-x="216" d="M 66 0 L 66 0 Z M 166 837 L 166 837 Z M 68 837 L 166 1003 L 264 1003 L 150 837 L 68 837 Z M 150 777 L 150 0 L 66 0 L 66 777 L 150 777 Z" unicode="ĺ" />
<glyph horiz-adv-x="461" d="M 86 0 L 86 0 Z M 452 0 L 86 0 L 86 730 L 176 730 L 176 80 L 452 80 L 452 0 Z M 249 -75 L 249 -75 Z M 336 -75 C 334 -99 329 -123 322 -147 C 315 -171 306 -195 296 -217 C 286 -239 274 -259 262 -278 C 250 -297 237 -313 224 -327 L 162 -298 C 169 -288 177 -276 186 -260 C 195 -244 204 -226 212 -206 C 220 -186 227 -164 234 -142 C 240 -119 245 -97 248 -75 L 336 -75 Z" unicode="Ļ" />
<glyph horiz-adv-x="216" d="M 0 0 L 0 0 Z M 150 777 L 150 0 L 66 0 L 66 777 L 150 777 Z M 76 -75 L 76 -75 Z M 163 -75 C 161 -99 156 -123 149 -147 C 142 -171 133 -195 123 -217 C 113 -239 101 -259 89 -278 C 77 -297 64 -313 51 -327 L -11 -298 C -3 -288 4 -276 13 -260 C 22 -244 31 -226 39 -206 C 47 -186 54 -164 61 -142 C 67 -119 72 -97 75 -75 L 163 -75 Z" unicode="ļ" />
<glyph horiz-adv-x="461" d="M 86 0 L 86 0 Z M 452 0 L 86 0 L 86 730 L 176 730 L 176 80 L 452 80 L 452 0 Z M 460 616 L 456 477 L 386 477 L 382 616 L 382 730 L 460 730 L 460 616 Z" unicode="Ľ" />
<glyph horiz-adv-x="216" d="M 66 0 L 66 0 Z M 150 777 L 150 0 L 66 0 L 66 777 L 150 777 Z M 285 616 L 281 477 L 211 477 L 207 616 L 207 730 L 285 730 L 285 616 Z" unicode="ľ" />
<glyph horiz-adv-x="461" d="M 86 0 L 86 0 Z M 452 0 L 86 0 L 86 730 L 176 730 L 176 80 L 452 80 L 452 0 Z M 330 287 L 330 287 Z M 369 287 L 292 287 L 292 434 L 369 434 L 369 287 Z" unicode="Ŀ" />
<glyph horiz-adv-x="216" d="M 66 0 L 66 0 Z M 150 777 L 150 0 L 66 0 L 66 777 L 150 777 Z M 246 213 L 246 213 Z M 285 213 L 208 213 L 208 360 L 285 360 L 285 213 Z" unicode="ŀ" />
<glyph horiz-adv-x="461" d="M 443 76 L 443 0 L 86 0 L 86 271 L 30 248 L 0 311 L 86 347 L 86 730 L 176 730 L 176 384 L 341 452 L 370 389 L 176 309 L 176 76 L 443 76 Z" unicode="Ł" />
<glyph horiz-adv-x="216" d="M 229 346 L 153 311 L 153 0 L 70 0 L 70 273 L 19 249 L -4 306 L 70 341 L 70 774 L 153 774 L 153 379 L 204 403 L 229 346 Z" unicode="ł" />
<glyph horiz-adv-x="702" d="M 86 0 L 86 0 Z M 617 0 L 553 0 L 170 553 L 170 0 L 86 0 L 86 730 L 153 730 L 533 178 L 533 730 L 617 730 L 617 0 Z M 352 791 L 352 791 Z M 254 791 L 352 957 L 450 957 L 336 791 L 254 791 Z" unicode="Ń" />
<glyph horiz-adv-x="519" d="M 66 0 L 66 0 Z M 458 0 L 375 0 L 375 333 C 375 362 365 385 346 401 C 326 417 302 426 272 426 C 257 426 242 423 227 419 C 212 414 199 407 188 397 C 176 387 167 375 160 359 C 152 343 149 325 149 304 L 149 0 L 66 0 L 66 486 L 141 486 L 141 396 C 151 425 170 449 199 468 C 227 486 262 496 302 496 C 346 496 383 483 413 459 C 443 434 458 400 458 356 L 458 0 Z M 265 547 L 265 547 Z M 167 547 L 265 713 L 363 713 L 249 547 L 167 547 Z" unicode="ń" />
<glyph horiz-adv-x="702" d="M 86 0 L 86 0 Z M 617 0 L 553 0 L 170 553 L 170 0 L 86 0 L 86 730 L 153 730 L 533 178 L 533 730 L 617 730 L 617 0 Z M 332 -75 L 332 -75 Z M 419 -75 C 417 -99 412 -123 405 -147 C 398 -171 389 -195 379 -217 C 369 -239 357 -259 345 -278 C 333 -297 320 -313 307 -327 L 245 -298 C 252 -288 260 -276 269 -260 C 278 -244 287 -226 295 -206 C 303 -186 310 -164 317 -142 C 323 -119 328 -97 331 -75 L 419 -75 Z" unicode="Ņ" />
<glyph horiz-adv-x="519" d="M 66 0 L 66 0 Z M 458 0 L 375 0 L 375 333 C 375 362 365 385 346 401 C 326 417 302 426 272 426 C 257 426 242 423 227 419 C 212 414 199 407 188 397 C 176 387 167 375 160 359 C 152 343 149 325 149 304 L 149 0 L 66 0 L 66 486 L 141 486 L 141 396 C 151 425 170 449 199 468 C 227 486 262 496 302 496 C 346 496 383 483 413 459 C 443 434 458 400 458 356 L 458 0 Z M 236 -75 L 236 -75 Z M 323 -75 C 321 -99 316 -123 309 -147 C 302 -171 293 -195 283 -217 C 273 -239 261 -259 249 -278 C 237 -297 224 -313 211 -327 L 149 -298 C 156 -288 164 -276 173 -260 C 182 -244 191 -226 199 -206 C 207 -186 214 -164 221 -142 C 227 -119 232 -97 235 -75 L 323 -75 Z" unicode="ņ" />
<glyph horiz-adv-x="702" d="M 86 0 L 86 0 Z M 617 0 L 553 0 L 170 553 L 170 0 L 86 0 L 86 730 L 153 730 L 533 178 L 533 730 L 617 730 L 617 0 Z M 352 789 L 352 789 Z M 198 960 L 273 960 L 353 845 L 433 960 L 507 960 L 393 789 L 312 789 L 198 960 Z" unicode="Ň" />
<glyph horiz-adv-x="519" d="M 66 0 L 66 0 Z M 458 0 L 375 0 L 375 333 C 375 362 365 385 346 401 C 326 417 302 426 272 426 C 257 426 242 423 227 419 C 212 414 199 407 188 397 C 176 387 167 375 160 359 C 152 343 149 325 149 304 L 149 0 L 66 0 L 66 486 L 141 486 L 141 396 C 151 425 170 449 199 468 C 227 486 262 496 302 496 C 346 496 383 483 413 459 C 443 434 458 400 458 356 L 458 0 Z M 265 545 L 265 545 Z M 111 716 L 186 716 L 266 601 L 346 716 L 420 716 L 306 545 L 225 545 L 111 716 Z" unicode="ň" />
<glyph horiz-adv-x="705" d="M 533 730 L 617 730 L 617 0 C 617 -57 601 -104 570 -142 C 538 -180 494 -199 438 -199 C 420 -199 403 -197 385 -194 C 367 -191 352 -187 342 -182 L 354 -106 C 362 -110 373 -113 387 -116 C 401 -118 415 -120 429 -120 C 461 -120 487 -107 506 -83 C 525 -59 535 -30 535 4 L 535 26 L 170 553 L 170 0 L 86 0 L 86 730 L 153 730 L 533 178 L 533 730 Z" unicode="Ŋ" />
<glyph horiz-adv-x="519" d="M 302 496 C 346 496 383 483 413 459 C 443 434 458 400 458 356 L 458 -51 C 458 -97 445 -133 420 -160 C 394 -187 363 -201 325 -201 C 311 -201 297 -199 282 -196 C 266 -193 254 -189 246 -185 L 261 -117 C 267 -119 274 -122 283 -124 C 291 -126 300 -127 310 -127 C 327 -127 342 -119 355 -104 C 368 -88 375 -67 375 -41 L 375 333 C 375 362 365 385 346 401 C 326 417 302 426 272 426 C 257 426 242 423 227 419 C 212 414 199 407 188 397 C 176 387 167 375 160 359 C 152 343 149 325 149 304 L 149 0 L 66 0 L 66 486 L 141 486 L 141 396 C 151 425 170 449 199 468 C 227 486 262 496 302 496 Z" unicode="ŋ" />
<glyph horiz-adv-x="753" d="M 44 0 L 44 0 Z M 379 -10 C 329 -10 283 0 242 17 C 200 35 165 61 136 94 C 106 127 84 167 68 214 C 52 261 44 313 44 370 C 44 424 52 474 69 520 C 85 566 108 605 137 637 C 166 669 201 695 241 713 C 281 731 325 740 372 740 C 422 740 468 731 510 713 C 552 695 587 670 617 638 C 646 606 669 566 685 520 C 701 474 709 423 709 367 C 709 310 700 258 683 212 C 665 166 642 126 613 93 C 583 60 548 35 508 17 C 468 -1 425 -10 379 -10 Z M 381 68 C 414 68 445 74 475 88 C 504 101 529 120 550 146 C 571 172 588 203 600 241 C 612 278 618 321 618 369 C 618 413 611 453 599 489 C 587 525 570 556 548 581 C 526 606 500 625 470 639 C 440 653 407 660 372 660 C 302 660 246 634 202 583 C 158 532 136 460 136 367 C 136 319 142 276 155 239 C 167 201 185 170 207 145 C 229 120 255 101 285 88 C 315 74 347 68 381 68 Z M 373 810 L 373 810 Z M 499 810 L 247 810 L 247 877 L 499 877 L 499 810 Z" unicode="Ō" />
<glyph horiz-adv-x="523" d="M 31 0 L 31 0 Z M 259 -9 C 229 -9 200 -3 172 8 C 144 19 120 35 99 57 C 78 78 61 104 49 135 C 37 166 31 201 31 241 C 31 277 37 310 49 342 C 61 373 77 400 97 423 C 117 445 141 463 169 476 C 196 489 225 496 257 496 C 290 496 321 490 350 479 C 378 467 403 451 424 430 C 444 409 461 384 473 354 C 485 324 491 291 491 255 C 491 216 485 180 473 148 C 461 116 445 88 425 65 C 404 41 379 23 351 10 C 323 -2 292 -9 259 -9 Z M 262 63 C 304 63 339 79 365 113 C 391 147 405 192 405 248 C 405 301 391 344 365 376 C 338 408 302 424 256 424 C 216 424 183 407 157 375 C 131 342 118 298 118 243 C 118 184 131 139 159 109 C 187 78 221 63 262 63 Z M 258 566 L 258 566 Z M 384 566 L 132 566 L 132 633 L 384 633 L 384 566 Z" unicode="ō" />
<glyph horiz-adv-x="753" d="M 44 0 L 44 0 Z M 379 -10 C 329 -10 283 0 242 17 C 200 35 165 61 136 94 C 106 127 84 167 68 214 C 52 261 44 313 44 370 C 44 424 52 474 69 520 C 85 566 108 605 137 637 C 166 669 201 695 241 713 C 281 731 325 740 372 740 C 422 740 468 731 510 713 C 552 695 587 670 617 638 C 646 606 669 566 685 520 C 701 474 709 423 709 367 C 709 310 700 258 683 212 C 665 166 642 126 613 93 C 583 60 548 35 508 17 C 468 -1 425 -10 379 -10 Z M 381 68 C 414 68 445 74 475 88 C 504 101 529 120 550 146 C 571 172 588 203 600 241 C 612 278 618 321 618 369 C 618 413 611 453 599 489 C 587 525 570 556 548 581 C 526 606 500 625 470 639 C 440 653 407 660 372 660 C 302 660 246 634 202 583 C 158 532 136 460 136 367 C 136 319 142 276 155 239 C 167 201 185 170 207 145 C 229 120 255 101 285 88 C 315 74 347 68 381 68 Z M 373 794 L 373 794 Z M 449 951 L 519 951 C 515 897 499 857 473 832 C 446 806 413 794 373 794 C 333 794 299 806 273 832 C 246 857 231 897 227 951 L 297 951 C 299 921 305 896 317 878 C 329 859 347 850 373 850 C 398 850 417 859 429 877 C 441 895 447 919 449 951 Z" unicode="Ŏ" />
<glyph horiz-adv-x="523" d="M 31 0 L 31 0 Z M 259 -9 C 229 -9 200 -3 172 8 C 144 19 120 35 99 57 C 78 78 61 104 49 135 C 37 166 31 201 31 241 C 31 277 37 310 49 342 C 61 373 77 400 97 423 C 117 445 141 463 169 476 C 196 489 225 496 257 496 C 290 496 321 490 350 479 C 378 467 403 451 424 430 C 444 409 461 384 473 354 C 485 324 491 291 491 255 C 491 216 485 180 473 148 C 461 116 445 88 425 65 C 404 41 379 23 351 10 C 323 -2 292 -9 259 -9 Z M 262 63 C 304 63 339 79 365 113 C 391 147 405 192 405 248 C 405 301 391 344 365 376 C 338 408 302 424 256 424 C 216 424 183 407 157 375 C 131 342 118 298 118 243 C 118 184 131 139 159 109 C 187 78 221 63 262 63 Z M 258 550 L 258 550 Z M 334 707 L 404 707 C 400 653 384 613 358 588 C 331 562 298 550 258 550 C 218 550 184 562 158 588 C 131 613 116 653 112 707 L 182 707 C 184 677 190 652 202 634 C 214 615 232 606 258 606 C 283 606 302 615 314 633 C 326 651 332 675 334 707 Z" unicode="ŏ" />
<glyph horiz-adv-x="753" d="M 44 0 L 44 0 Z M 379 -10 C 329 -10 283 0 242 17 C 200 35 165 61 136 94 C 106 127 84 167 68 214 C 52 261 44 313 44 370 C 44 424 52 474 69 520 C 85 566 108 605 137 637 C 166 669 201 695 241 713 C 281 731 325 740 372 740 C 422 740 468 731 510 713 C 552 695 587 670 617 638 C 646 606 669 566 685 520 C 701 474 709 423 709 367 C 709 310 700 258 683 212 C 665 166 642 126 613 93 C 583 60 548 35 508 17 C 468 -1 425 -10 379 -10 Z M 381 68 C 414 68 445 74 475 88 C 504 101 529 120 550 146 C 571 172 588 203 600 241 C 612 278 618 321 618 369 C 618 413 611 453 599 489 C 587 525 570 556 548 581 C 526 606 500 625 470 639 C 440 653 407 660 372 660 C 302 660 246 634 202 583 C 158 532 136 460 136 367 C 136 319 142 276 155 239 C 167 201 185 170 207 145 C 229 120 255 101 285 88 C 315 74 347 68 381 68 Z M 373 788 L 373 788 Z M 200 788 L 283 941 L 372 941 L 274 788 L 200 788 Z M 374 788 L 459 941 L 547 941 L 449 788 L 374 788 Z" unicode="Ő" />
<glyph horiz-adv-x="523" d="M 31 0 L 31 0 Z M 259 -9 C 229 -9 200 -3 172 8 C 144 19 120 35 99 57 C 78 78 61 104 49 135 C 37 166 31 201 31 241 C 31 277 37 310 49 342 C 61 373 77 400 97 423 C 117 445 141 463 169 476 C 196 489 225 496 257 496 C 290 496 321 490 350 479 C 378 467 403 451 424 430 C 444 409 461 384 473 354 C 485 324 491 291 491 255 C 491 216 485 180 473 148 C 461 116 445 88 425 65 C 404 41 379 23 351 10 C 323 -2 292 -9 259 -9 Z M 262 63 C 304 63 339 79 365 113 C 391 147 405 192 405 248 C 405 301 391 344 365 376 C 338 408 302 424 256 424 C 216 424 183 407 157 375 C 131 342 118 298 118 243 C 118 184 131 139 159 109 C 187 78 221 63 262 63 Z M 258 544 L 258 544 Z M 85 544 L 168 697 L 257 697 L 159 544 L 85 544 Z M 259 544 L 344 697 L 432 697 L 334 544 L 259 544 Z" unicode="ő" />
<glyph horiz-adv-x="1042" d="M 364 -10 C 316 -10 273 -1 234 17 C 194 35 161 60 133 93 C 105 125 83 165 67 212 C 51 259 44 311 44 369 C 44 423 52 473 68 519 C 84 565 107 604 136 637 C 164 669 198 695 238 713 C 277 731 319 740 365 740 C 391 740 418 736 444 728 C 470 720 494 709 516 695 C 538 681 557 664 573 645 C 589 625 602 605 610 583 L 610 730 L 981 730 L 981 651 L 695 651 L 695 401 L 969 401 L 969 324 L 695 324 L 695 78 L 1000 78 L 1000 0 L 610 0 L 610 158 C 602 135 591 113 577 93 C 562 72 544 54 524 39 C 503 24 479 12 452 3 C 425 -5 396 -10 364 -10 Z M 375 64 C 408 64 439 70 468 83 C 496 96 521 115 542 141 C 563 167 580 199 592 237 C 604 275 611 320 611 370 C 611 418 603 461 589 498 C 575 535 556 566 534 590 C 511 614 485 632 457 644 C 428 656 400 663 372 663 C 338 663 306 656 277 643 C 247 630 222 611 202 586 C 181 560 165 529 153 492 C 141 455 136 413 136 365 C 136 316 142 273 154 235 C 166 197 183 166 205 141 C 226 115 251 96 281 83 C 310 70 341 64 375 64 Z" unicode="Œ" />
<glyph horiz-adv-x="875" d="M 259 -9 C 227 -9 198 -3 170 8 C 142 20 118 36 98 58 C 77 79 61 105 49 136 C 37 167 31 202 31 241 C 31 277 36 310 48 342 C 60 373 76 400 96 423 C 116 445 141 463 169 476 C 197 489 227 496 259 496 C 286 496 310 492 332 484 C 353 476 371 465 387 453 C 403 441 415 427 425 411 C 435 395 442 380 446 364 C 449 378 456 393 466 409 C 476 425 489 439 505 452 C 521 464 539 475 561 483 C 582 491 605 496 631 496 C 698 496 751 471 790 422 C 829 373 849 306 849 221 L 487 221 C 487 173 502 134 530 105 C 558 76 594 62 638 62 C 676 62 705 68 727 82 C 749 95 767 110 782 127 L 830 77 C 811 54 787 34 758 17 C 729 0 689 -9 638 -9 C 611 -9 586 -5 564 2 C 542 10 522 20 506 32 C 490 44 476 58 466 74 C 455 89 448 105 445 121 C 441 106 434 91 424 76 C 414 60 401 46 385 34 C 369 21 351 11 330 3 C 308 -5 285 -9 259 -9 Z M 488 281 L 767 281 C 766 323 753 358 728 386 C 702 413 669 427 629 427 C 588 427 555 413 530 385 C 505 357 491 322 488 281 Z M 262 63 C 304 63 339 79 365 112 C 391 144 405 190 405 248 C 405 302 391 344 364 376 C 337 408 302 424 258 424 C 216 424 182 407 156 374 C 130 341 118 298 118 244 C 118 184 131 139 159 109 C 186 78 220 63 262 63 Z" unicode="œ" />
<glyph horiz-adv-x="560" d="M 86 0 L 86 0 Z M 86 0 L 86 730 L 278 730 C 336 730 385 712 423 678 C 461 644 480 596 480 534 C 480 503 475 476 467 452 C 459 428 447 407 433 390 C 419 373 402 360 384 350 C 365 340 346 334 326 332 L 323 329 L 537 0 L 435 0 L 238 310 L 173 310 L 173 0 L 86 0 Z M 172 385 L 259 385 C 297 385 328 397 353 421 C 378 445 391 479 391 523 C 391 563 379 595 355 618 C 331 641 301 653 263 653 L 172 653 L 172 385 Z M 269 791 L 269 791 Z M 171 791 L 269 957 L 367 957 L 253 791 L 171 791 Z" unicode="Ŕ" />
<glyph horiz-adv-x="380" d="M 66 0 L 66 0 Z M 381 466 L 346 394 C 335 404 323 411 309 415 C 295 419 281 422 265 422 C 251 422 237 419 223 413 C 209 407 197 399 186 388 C 175 377 166 363 159 347 C 152 330 149 311 149 290 L 149 0 L 66 0 L 66 486 L 144 486 L 144 389 C 150 415 166 440 192 462 C 218 484 250 496 288 496 C 308 496 327 493 343 487 C 359 481 371 474 381 466 Z M 226 547 L 226 547 Z M 128 547 L 226 713 L 324 713 L 210 547 L 128 547 Z" unicode="ŕ" />
<glyph horiz-adv-x="560" d="M 86 0 L 86 0 Z M 86 0 L 86 730 L 278 730 C 336 730 385 712 423 678 C 461 644 480 596 480 534 C 480 503 475 476 467 452 C 459 428 447 407 433 390 C 419 373 402 360 384 350 C 365 340 346 334 326 332 L 323 329 L 537 0 L 435 0 L 238 310 L 173 310 L 173 0 L 86 0 Z M 172 385 L 259 385 C 297 385 328 397 353 421 C 378 445 391 479 391 523 C 391 563 379 595 355 618 C 331 641 301 653 263 653 L 172 653 L 172 385 Z M 269 -75 L 269 -75 Z M 356 -75 C 354 -99 349 -123 342 -147 C 335 -171 326 -195 316 -217 C 306 -239 294 -259 282 -278 C 270 -297 257 -313 244 -327 L 182 -298 C 189 -288 197 -276 206 -260 C 215 -244 224 -226 232 -206 C 240 -186 247 -164 254 -142 C 260 -119 265 -97 268 -75 L 356 -75 Z" unicode="Ŗ" />
<glyph horiz-adv-x="380" d="M 66 0 L 66 0 Z M 381 466 L 346 394 C 335 404 323 411 309 415 C 295 419 281 422 265 422 C 251 422 237 419 223 413 C 209 407 197 399 186 388 C 175 377 166 363 159 347 C 152 330 149 311 149 290 L 149 0 L 66 0 L 66 486 L 144 486 L 144 389 C 150 415 166 440 192 462 C 218 484 250 496 288 496 C 308 496 327 493 343 487 C 359 481 371 474 381 466 Z M 198 -75 L 198 -75 Z M 285 -75 C 283 -99 278 -123 271 -147 C 264 -171 255 -195 245 -217 C 235 -239 223 -259 211 -278 C 199 -297 186 -313 173 -327 L 111 -298 C 118 -288 126 -276 135 -260 C 144 -244 153 -226 161 -206 C 169 -186 176 -164 183 -142 C 189 -119 194 -97 197 -75 L 285 -75 Z" unicode="ŗ" />
<glyph horiz-adv-x="560" d="M 86 0 L 86 0 Z M 86 0 L 86 730 L 278 730 C 336 730 385 712 423 678 C 461 644 480 596 480 534 C 480 503 475 476 467 452 C 459 428 447 407 433 390 C 419 373 402 360 384 350 C 365 340 346 334 326 332 L 323 329 L 537 0 L 435 0 L 238 310 L 173 310 L 173 0 L 86 0 Z M 172 385 L 259 385 C 297 385 328 397 353 421 C 378 445 391 479 391 523 C 391 563 379 595 355 618 C 331 641 301 653 263 653 L 172 653 L 172 385 Z M 269 789 L 269 789 Z M 115 960 L 190 960 L 270 845 L 350 960 L 424 960 L 310 789 L 229 789 L 115 960 Z" unicode="Ř" />
<glyph horiz-adv-x="380" d="M 66 0 L 66 0 Z M 381 466 L 346 394 C 335 404 323 411 309 415 C 295 419 281 422 265 422 C 251 422 237 419 223 413 C 209 407 197 399 186 388 C 175 377 166 363 159 347 C 152 330 149 311 149 290 L 149 0 L 66 0 L 66 486 L 144 486 L 144 389 C 150 415 166 440 192 462 C 218 484 250 496 288 496 C 308 496 327 493 343 487 C 359 481 371 474 381 466 Z M 226 545 L 226 545 Z M 72 716 L 147 716 L 227 601 L 307 716 L 381 716 L 267 545 L 186 545 L 72 716 Z" unicode="ř" />
<glyph horiz-adv-x="500" d="M 30 0 L 30 0 Z M 256 -10 C 207 -10 164 -2 126 13 C 88 28 56 50 30 80 L 85 145 C 103 120 128 100 159 86 C 189 72 221 65 253 65 C 287 65 316 75 340 96 C 364 116 377 144 377 178 C 377 210 366 238 346 261 C 326 283 289 308 237 334 C 174 363 127 394 97 426 C 67 458 52 504 52 562 C 52 615 70 658 107 691 C 143 723 191 740 249 740 C 291 740 328 733 360 719 C 391 705 418 689 440 669 L 391 601 C 372 618 350 632 326 643 C 302 654 276 660 250 660 C 216 660 189 650 168 632 C 147 614 137 589 137 559 C 137 526 148 499 169 479 C 190 459 229 435 287 408 C 352 377 398 345 424 311 C 450 277 463 234 463 183 C 463 152 457 125 446 101 C 434 77 419 56 400 40 C 381 24 359 11 334 3 C 309 -5 283 -10 256 -10 Z M 248 791 L 248 791 Z M 150 791 L 248 957 L 346 957 L 232 791 L 150 791 Z" unicode="Ś" />
<glyph horiz-adv-x="394" d="M 29 0 L 29 0 Z M 209 -9 C 169 -9 133 -3 103 8 C 73 20 48 36 29 56 L 70 112 C 86 96 106 84 130 74 C 154 64 179 59 205 59 C 227 59 247 65 263 78 C 279 91 287 108 287 130 C 287 148 278 164 262 178 C 245 192 217 206 177 221 C 131 237 97 257 76 280 C 54 302 44 332 44 368 C 44 405 59 436 89 460 C 119 484 155 496 199 496 C 235 496 265 490 291 480 C 317 469 337 458 352 446 L 316 387 C 302 396 286 405 266 414 C 246 422 225 427 203 427 C 181 427 162 422 146 412 C 130 402 122 388 122 370 C 122 353 128 339 141 328 C 153 317 181 303 223 287 C 272 268 308 247 330 224 C 352 201 364 170 364 132 C 364 88 348 53 318 28 C 287 3 251 -9 209 -9 Z M 201 547 L 201 547 Z M 103 547 L 201 713 L 299 713 L 185 547 L 103 547 Z" unicode="ś" />
<glyph horiz-adv-x="500" d="M 30 0 L 30 0 Z M 256 -10 C 207 -10 164 -2 126 13 C 88 28 56 50 30 80 L 85 145 C 103 120 128 100 159 86 C 189 72 221 65 253 65 C 287 65 316 75 340 96 C 364 116 377 144 377 178 C 377 210 366 238 346 261 C 326 283 289 308 237 334 C 174 363 127 394 97 426 C 67 458 52 504 52 562 C 52 615 70 658 107 691 C 143 723 191 740 249 740 C 291 740 328 733 360 719 C 391 705 418 689 440 669 L 391 601 C 372 618 350 632 326 643 C 302 654 276 660 250 660 C 216 660 189 650 168 632 C 147 614 137 589 137 559 C 137 526 148 499 169 479 C 190 459 229 435 287 408 C 352 377 398 345 424 311 C 450 277 463 234 463 183 C 463 152 457 125 446 101 C 434 77 419 56 400 40 C 381 24 359 11 334 3 C 309 -5 283 -10 256 -10 Z M 248 789 L 248 789 Z M 403 789 L 327 789 L 248 904 L 167 789 L 94 789 L 208 960 L 289 960 L 403 789 Z" unicode="Ŝ" />
<glyph horiz-adv-x="394" d="M 29 0 L 29 0 Z M 209 -9 C 169 -9 133 -3 103 8 C 73 20 48 36 29 56 L 70 112 C 86 96 106 84 130 74 C 154 64 179 59 205 59 C 227 59 247 65 263 78 C 279 91 287 108 287 130 C 287 148 278 164 262 178 C 245 192 217 206 177 221 C 131 237 97 257 76 280 C 54 302 44 332 44 368 C 44 405 59 436 89 460 C 119 484 155 496 199 496 C 235 496 265 490 291 480 C 317 469 337 458 352 446 L 316 387 C 302 396 286 405 266 414 C 246 422 225 427 203 427 C 181 427 162 422 146 412 C 130 402 122 388 122 370 C 122 353 128 339 141 328 C 153 317 181 303 223 287 C 272 268 308 247 330 224 C 352 201 364 170 364 132 C 364 88 348 53 318 28 C 287 3 251 -9 209 -9 Z M 201 545 L 201 545 Z M 356 545 L 280 545 L 201 660 L 120 545 L 47 545 L 161 716 L 242 716 L 356 545 Z" unicode="ŝ" />
<glyph horiz-adv-x="500" d="M 30 0 L 30 0 Z M 256 -10 C 207 -10 164 -2 126 13 C 88 28 56 50 30 80 L 85 145 C 103 120 128 100 159 86 C 189 72 221 65 253 65 C 287 65 316 75 340 96 C 364 116 377 144 377 178 C 377 210 366 238 346 261 C 326 283 289 308 237 334 C 174 363 127 394 97 426 C 67 458 52 504 52 562 C 52 615 70 658 107 691 C 143 723 191 740 249 740 C 291 740 328 733 360 719 C 391 705 418 689 440 669 L 391 601 C 372 618 350 632 326 643 C 302 654 276 660 250 660 C 216 660 189 650 168 632 C 147 614 137 589 137 559 C 137 526 148 499 169 479 C 190 459 229 435 287 408 C 352 377 398 345 424 311 C 450 277 463 234 463 183 C 463 152 457 125 446 101 C 434 77 419 56 400 40 C 381 24 359 11 334 3 C 309 -5 283 -10 256 -10 Z M 236 -4 L 236 -4 Z M 243 -190 C 220 -190 197 -187 174 -181 C 151 -175 133 -167 120 -157 L 133 -120 C 142 -126 154 -131 170 -137 C 185 -143 202 -146 221 -146 C 235 -146 248 -142 260 -135 C 271 -128 277 -119 277 -108 C 277 -94 271 -85 261 -80 C 251 -74 240 -72 229 -72 C 221 -72 214 -72 208 -73 C 202 -74 195 -76 189 -79 L 176 -64 L 234 8 L 283 8 L 235 -54 C 267 -47 295 -49 318 -61 C 340 -73 352 -91 352 -115 C 352 -139 341 -158 319 -171 C 297 -183 272 -190 243 -190 Z" unicode="Ş" />
<glyph horiz-adv-x="394" d="M 29 0 L 29 0 Z M 209 -9 C 169 -9 133 -3 103 8 C 73 20 48 36 29 56 L 70 112 C 86 96 106 84 130 74 C 154 64 179 59 205 59 C 227 59 247 65 263 78 C 279 91 287 108 287 130 C 287 148 278 164 262 178 C 245 192 217 206 177 221 C 131 237 97 257 76 280 C 54 302 44 332 44 368 C 44 405 59 436 89 460 C 119 484 155 496 199 496 C 235 496 265 490 291 480 C 317 469 337 458 352 446 L 316 387 C 302 396 286 405 266 414 C 246 422 225 427 203 427 C 181 427 162 422 146 412 C 130 402 122 388 122 370 C 122 353 128 339 141 328 C 153 317 181 303 223 287 C 272 268 308 247 330 224 C 352 201 364 170 364 132 C 364 88 348 53 318 28 C 287 3 251 -9 209 -9 Z M 190 -2 L 190 -2 Z M 197 -188 C 174 -188 151 -185 128 -179 C 105 -173 87 -165 74 -155 L 87 -118 C 96 -124 108 -129 124 -135 C 139 -141 156 -144 175 -144 C 189 -144 202 -140 214 -133 C 225 -126 231 -117 231 -106 C 231 -92 225 -83 215 -78 C 205 -72 194 -70 183 -70 C 175 -70 168 -70 162 -71 C 156 -72 149 -74 143 -77 L 130 -62 L 188 10 L 237 10 L 189 -52 C 221 -45 249 -47 272 -59 C 294 -71 306 -89 306 -113 C 306 -137 295 -156 273 -169 C 251 -181 226 -188 197 -188 Z" unicode="ş" />
<glyph horiz-adv-x="500" d="M 30 0 L 30 0 Z M 256 -10 C 207 -10 164 -2 126 13 C 88 28 56 50 30 80 L 85 145 C 103 120 128 100 159 86 C 189 72 221 65 253 65 C 287 65 316 75 340 96 C 364 116 377 144 377 178 C 377 210 366 238 346 261 C 326 283 289 308 237 334 C 174 363 127 394 97 426 C 67 458 52 504 52 562 C 52 615 70 658 107 691 C 143 723 191 740 249 740 C 291 740 328 733 360 719 C 391 705 418 689 440 669 L 391 601 C 372 618 350 632 326 643 C 302 654 276 660 250 660 C 216 660 189 650 168 632 C 147 614 137 589 137 559 C 137 526 148 499 169 479 C 190 459 229 435 287 408 C 352 377 398 345 424 311 C 450 277 463 234 463 183 C 463 152 457 125 446 101 C 434 77 419 56 400 40 C 381 24 359 11 334 3 C 309 -5 283 -10 256 -10 Z M 248 789 L 248 789 Z M 94 960 L 169 960 L 249 845 L 329 960 L 403 960 L 289 789 L 208 789 L 94 960 Z" unicode="Š" />
<glyph horiz-adv-x="394" d="M 29 0 L 29 0 Z M 209 -9 C 169 -9 133 -3 103 8 C 73 20 48 36 29 56 L 70 112 C 86 96 106 84 130 74 C 154 64 179 59 205 59 C 227 59 247 65 263 78 C 279 91 287 108 287 130 C 287 148 278 164 262 178 C 245 192 217 206 177 221 C 131 237 97 257 76 280 C 54 302 44 332 44 368 C 44 405 59 436 89 460 C 119 484 155 496 199 496 C 235 496 265 490 291 480 C 317 469 337 458 352 446 L 316 387 C 302 396 286 405 266 414 C 246 422 225 427 203 427 C 181 427 162 422 146 412 C 130 402 122 388 122 370 C 122 353 128 339 141 328 C 153 317 181 303 223 287 C 272 268 308 247 330 224 C 352 201 364 170 364 132 C 364 88 348 53 318 28 C 287 3 251 -9 209 -9 Z M 201 545 L 201 545 Z M 47 716 L 122 716 L 202 601 L 282 716 L 356 716 L 242 545 L 161 545 L 47 716 Z" unicode="š" />
<glyph horiz-adv-x="482" d="M 9 0 L 9 0 Z M 473 650 L 284 650 L 284 0 L 194 0 L 194 650 L 9 650 L 9 730 L 473 730 L 473 650 Z M 240 789 L 240 789 Z M 86 960 L 161 960 L 241 845 L 321 960 L 395 960 L 281 789 L 200 789 L 86 960 Z" unicode="Ť" />
<glyph horiz-adv-x="279" d="M 12 0 L 12 0 Z M 259 79 L 269 11 C 263 6 253 2 240 0 C 227 -3 212 -5 196 -5 C 181 -5 166 -2 152 1 C 137 5 124 12 113 22 C 101 32 92 45 85 61 C 78 77 75 96 75 119 L 75 414 L 12 414 L 12 486 L 76 486 L 76 607 L 157 618 L 157 486 L 256 486 L 256 414 L 158 414 L 158 127 C 158 107 163 92 173 82 C 183 72 196 68 213 68 C 221 68 230 69 239 72 C 248 74 255 77 259 79 Z M 351 616 L 347 477 L 277 477 L 273 616 L 273 730 L 351 730 L 351 616 Z" unicode="ť" />
<glyph horiz-adv-x="482" d="M 414 460 L 284 460 L 284 0 L 194 0 L 194 460 L 63 460 L 63 531 L 194 531 L 194 650 L 9 650 L 9 730 L 473 730 L 473 650 L 284 650 L 284 531 L 414 531 L 414 460 Z" unicode="Ŧ" />
<glyph horiz-adv-x="279" d="M 269 11 C 263 6 253 2 240 0 C 227 -3 212 -5 196 -5 C 181 -5 166 -2 152 1 C 137 5 124 12 113 22 C 101 32 92 45 85 61 C 78 77 75 96 75 119 L 75 268 L 20 268 L 20 340 L 75 340 L 75 414 L 12 414 L 12 486 L 76 486 L 76 607 L 157 618 L 157 486 L 256 486 L 256 414 L 158 414 L 158 340 L 240 340 L 240 268 L 158 268 L 158 127 C 158 107 163 92 173 82 C 183 72 196 68 213 68 C 221 68 230 69 239 72 C 248 74 255 77 259 79 L 269 11 Z" unicode="ŧ" />
<glyph horiz-adv-x="677" d="M 80 0 L 80 0 Z M 597 730 L 597 249 C 597 207 590 169 576 137 C 562 105 544 78 520 56 C 496 34 469 18 437 7 C 405 -4 372 -10 336 -10 C 301 -10 268 -4 237 6 C 206 16 179 32 156 54 C 132 75 114 102 100 135 C 86 167 80 205 80 249 L 80 730 L 168 730 L 168 246 C 168 190 184 146 217 116 C 250 85 290 70 337 70 C 360 70 382 73 403 81 C 423 88 441 99 457 114 C 473 128 485 147 494 169 C 503 191 508 216 508 246 L 508 730 L 597 730 Z M 338 796 L 338 796 Z M 434 930 L 498 930 C 498 884 491 851 478 829 C 465 807 447 796 425 796 C 407 796 391 799 377 807 C 363 815 351 823 341 831 C 330 839 320 846 310 854 C 300 861 290 865 280 865 C 270 865 261 859 254 848 C 247 836 243 820 243 800 L 180 800 C 180 845 188 879 206 901 C 223 923 242 934 263 934 C 279 934 294 930 306 922 C 318 914 330 905 342 896 C 352 888 361 881 371 874 C 380 867 389 864 399 864 C 408 864 416 869 423 881 C 430 893 434 909 434 930 Z" unicode="Ũ" />
<glyph horiz-adv-x="519" d="M 61 0 L 61 0 Z M 61 486 L 144 486 L 144 166 C 144 129 154 102 174 85 C 194 67 220 59 253 59 C 284 59 311 69 335 89 C 358 109 370 141 370 183 L 370 486 L 453 486 L 453 0 L 375 0 L 375 88 C 365 61 347 38 320 19 C 292 0 259 -9 219 -9 C 175 -9 137 3 107 29 C 76 54 61 92 61 144 L 61 486 Z M 257 552 L 257 552 Z M 353 686 L 417 686 C 417 640 410 607 397 585 C 384 563 366 552 344 552 C 326 552 310 555 296 563 C 282 571 270 579 260 587 C 249 595 239 602 229 610 C 219 617 209 621 199 621 C 189 621 180 615 173 604 C 166 592 162 576 162 556 L 99 556 C 99 601 107 635 125 657 C 142 679 161 690 182 690 C 198 690 213 686 225 678 C 237 670 249 661 261 652 C 271 644 280 637 290 630 C 299 623 308 620 318 620 C 327 620 335 625 342 637 C 349 649 353 665 353 686 Z" unicode="ũ" />
<glyph horiz-adv-x="677" d="M 80 0 L 80 0 Z M 597 730 L 597 249 C 597 207 590 169 576 137 C 562 105 544 78 520 56 C 496 34 469 18 437 7 C 405 -4 372 -10 336 -10 C 301 -10 268 -4 237 6 C 206 16 179 32 156 54 C 132 75 114 102 100 135 C 86 167 80 205 80 249 L 80 730 L 168 730 L 168 246 C 168 190 184 146 217 116 C 250 85 290 70 337 70 C 360 70 382 73 403 81 C 423 88 441 99 457 114 C 473 128 485 147 494 169 C 503 191 508 216 508 246 L 508 730 L 597 730 Z M 338 810 L 338 810 Z M 464 810 L 212 810 L 212 877 L 464 877 L 464 810 Z" unicode="Ū" />
<glyph horiz-adv-x="519" d="M 61 0 L 61 0 Z M 61 486 L 144 486 L 144 166 C 144 129 154 102 174 85 C 194 67 220 59 253 59 C 284 59 311 69 335 89 C 358 109 370 141 370 183 L 370 486 L 453 486 L 453 0 L 375 0 L 375 88 C 365 61 347 38 320 19 C 292 0 259 -9 219 -9 C 175 -9 137 3 107 29 C 76 54 61 92 61 144 L 61 486 Z M 257 566 L 257 566 Z M 383 566 L 131 566 L 131 633 L 383 633 L 383 566 Z" unicode="ū" />
<glyph horiz-adv-x="677" d="M 80 0 L 80 0 Z M 597 730 L 597 249 C 597 207 590 169 576 137 C 562 105 544 78 520 56 C 496 34 469 18 437 7 C 405 -4 372 -10 336 -10 C 301 -10 268 -4 237 6 C 206 16 179 32 156 54 C 132 75 114 102 100 135 C 86 167 80 205 80 249 L 80 730 L 168 730 L 168 246 C 168 190 184 146 217 116 C 250 85 290 70 337 70 C 360 70 382 73 403 81 C 423 88 441 99 457 114 C 473 128 485 147 494 169 C 503 191 508 216 508 246 L 508 730 L 597 730 Z M 338 794 L 338 794 Z M 414 951 L 484 951 C 480 897 464 857 438 832 C 411 806 378 794 338 794 C 298 794 264 806 238 832 C 211 857 196 897 192 951 L 262 951 C 264 921 270 896 282 878 C 294 859 312 850 338 850 C 363 850 382 859 394 877 C 406 895 412 919 414 951 Z" unicode="Ŭ" />
<glyph horiz-adv-x="519" d="M 61 0 L 61 0 Z M 61 486 L 144 486 L 144 166 C 144 129 154 102 174 85 C 194 67 220 59 253 59 C 284 59 311 69 335 89 C 358 109 370 141 370 183 L 370 486 L 453 486 L 453 0 L 375 0 L 375 88 C 365 61 347 38 320 19 C 292 0 259 -9 219 -9 C 175 -9 137 3 107 29 C 76 54 61 92 61 144 L 61 486 Z M 257 550 L 257 550 Z M 333 707 L 403 707 C 399 653 383 613 357 588 C 330 562 297 550 257 550 C 217 550 183 562 157 588 C 130 613 115 653 111 707 L 181 707 C 183 677 189 652 201 634 C 213 615 231 606 257 606 C 282 606 301 615 313 633 C 325 651 331 675 333 707 Z" unicode="ŭ" />
<glyph horiz-adv-x="677" d="M 80 0 L 80 0 Z M 597 730 L 597 249 C 597 207 590 169 576 137 C 562 105 544 78 520 56 C 496 34 469 18 437 7 C 405 -4 372 -10 336 -10 C 301 -10 268 -4 237 6 C 206 16 179 32 156 54 C 132 75 114 102 100 135 C 86 167 80 205 80 249 L 80 730 L 168 730 L 168 246 C 168 190 184 146 217 116 C 250 85 290 70 337 70 C 360 70 382 73 403 81 C 423 88 441 99 457 114 C 473 128 485 147 494 169 C 503 191 508 216 508 246 L 508 730 L 597 730 Z M 338 784 L 338 784 Z M 338 784 C 305 784 277 795 255 818 C 232 840 221 868 221 901 C 221 933 232 960 255 983 C 277 1005 305 1017 338 1017 C 370 1017 398 1005 421 983 C 443 960 455 933 455 901 C 455 868 443 840 421 818 C 398 795 370 784 338 784 Z M 338 835 C 356 835 372 841 384 854 C 396 866 402 882 402 901 C 402 919 396 935 384 948 C 372 960 356 967 338 967 C 320 967 304 960 292 948 C 279 935 273 919 273 901 C 273 882 279 866 292 854 C 304 841 320 835 338 835 Z" unicode="Ů" />
<glyph horiz-adv-x="519" d="M 61 0 L 61 0 Z M 61 486 L 144 486 L 144 166 C 144 129 154 102 174 85 C 194 67 220 59 253 59 C 284 59 311 69 335 89 C 358 109 370 141 370 183 L 370 486 L 453 486 L 453 0 L 375 0 L 375 88 C 365 61 347 38 320 19 C 292 0 259 -9 219 -9 C 175 -9 137 3 107 29 C 76 54 61 92 61 144 L 61 486 Z M 257 540 L 257 540 Z M 257 540 C 224 540 196 551 174 574 C 151 596 140 624 140 657 C 140 689 151 716 174 739 C 196 761 224 773 257 773 C 289 773 317 761 340 739 C 362 716 374 689 374 657 C 374 624 362 596 340 574 C 317 551 289 540 257 540 Z M 257 591 C 275 591 291 597 303 610 C 315 622 321 638 321 657 C 321 675 315 691 303 704 C 291 716 275 723 257 723 C 239 723 223 716 211 704 C 198 691 192 675 192 657 C 192 638 198 622 211 610 C 223 597 239 591 257 591 Z" unicode="ů" />
<glyph horiz-adv-x="677" d="M 80 0 L 80 0 Z M 597 730 L 597 249 C 597 207 590 169 576 137 C 562 105 544 78 520 56 C 496 34 469 18 437 7 C 405 -4 372 -10 336 -10 C 301 -10 268 -4 237 6 C 206 16 179 32 156 54 C 132 75 114 102 100 135 C 86 167 80 205 80 249 L 80 730 L 168 730 L 168 246 C 168 190 184 146 217 116 C 250 85 290 70 337 70 C 360 70 382 73 403 81 C 423 88 441 99 457 114 C 473 128 485 147 494 169 C 503 191 508 216 508 246 L 508 730 L 597 730 Z M 338 788 L 338 788 Z M 165 788 L 248 941 L 337 941 L 239 788 L 165 788 Z M 339 788 L 424 941 L 512 941 L 414 788 L 339 788 Z" unicode="Ű" />
<glyph horiz-adv-x="519" d="M 61 0 L 61 0 Z M 61 486 L 144 486 L 144 166 C 144 129 154 102 174 85 C 194 67 220 59 253 59 C 284 59 311 69 335 89 C 358 109 370 141 370 183 L 370 486 L 453 486 L 453 0 L 375 0 L 375 88 C 365 61 347 38 320 19 C 292 0 259 -9 219 -9 C 175 -9 137 3 107 29 C 76 54 61 92 61 144 L 61 486 Z M 257 544 L 257 544 Z M 84 544 L 167 697 L 256 697 L 158 544 L 84 544 Z M 258 544 L 343 697 L 431 697 L 333 544 L 258 544 Z" unicode="ű" />
<glyph horiz-adv-x="677" d="M 80 0 L 80 0 Z M 597 730 L 597 249 C 597 207 590 169 576 137 C 562 105 544 78 520 56 C 496 34 469 18 437 7 C 405 -4 372 -10 336 -10 C 301 -10 268 -4 237 6 C 206 16 179 32 156 54 C 132 75 114 102 100 135 C 86 167 80 205 80 249 L 80 730 L 168 730 L 168 246 C 168 190 184 146 217 116 C 250 85 290 70 337 70 C 360 70 382 73 403 81 C 423 88 441 99 457 114 C 473 128 485 147 494 169 C 503 191 508 216 508 246 L 508 730 L 597 730 Z M 380 -9 L 380 -9 Z M 485 -101 L 509 -136 C 489 -156 467 -171 443 -182 C 418 -192 391 -198 361 -198 C 328 -198 302 -190 283 -176 C 263 -161 254 -143 254 -121 C 254 -97 264 -74 285 -53 C 306 -31 337 -13 377 3 L 423 2 C 393 -11 370 -25 352 -41 C 334 -56 326 -72 326 -88 C 326 -102 331 -114 343 -123 C 355 -131 370 -136 388 -136 C 408 -136 426 -132 443 -126 C 460 -120 474 -111 485 -101 Z" unicode="Ų" />
<glyph horiz-adv-x="519" d="M 61 0 L 61 0 Z M 61 486 L 144 486 L 144 166 C 144 129 154 102 174 85 C 194 67 220 59 253 59 C 284 59 311 69 335 89 C 358 109 370 141 370 183 L 370 486 L 453 486 L 453 0 L 375 0 L 375 88 C 365 61 347 38 320 19 C 292 0 259 -9 219 -9 C 175 -9 137 3 107 29 C 76 54 61 92 61 144 L 61 486 Z M 382 -8 L 382 -8 Z M 487 -100 L 511 -135 C 491 -155 469 -170 445 -181 C 420 -191 393 -197 363 -197 C 330 -197 304 -189 285 -175 C 265 -160 256 -142 256 -120 C 256 -96 266 -73 287 -52 C 308 -30 339 -12 379 4 L 425 3 C 395 -10 372 -24 354 -40 C 336 -55 328 -71 328 -87 C 328 -101 333 -113 345 -122 C 357 -130 372 -135 390 -135 C 410 -135 428 -131 445 -125 C 462 -119 476 -110 487 -100 Z" unicode="ų" />
<glyph horiz-adv-x="847" d="M 8 0 L 8 0 Z M 834 730 L 634 -6 L 580 -6 L 422 562 L 259 -6 L 205 -6 L 8 730 L 98 730 L 240 174 L 397 730 L 454 730 L 609 173 L 752 730 L 834 730 Z M 424 789 L 424 789 Z M 579 789 L 503 789 L 424 904 L 343 789 L 270 789 L 384 960 L 465 960 L 579 789 Z" unicode="Ŵ" />
<glyph horiz-adv-x="656" d="M 4 0 L 4 0 Z M 441 -3 L 331 309 L 214 -3 L 160 -3 L 4 486 L 89 486 L 197 125 L 307 430 L 361 430 L 465 126 L 574 486 L 651 486 L 495 -3 L 441 -3 Z M 331 545 L 331 545 Z M 486 545 L 410 545 L 331 660 L 250 545 L 177 545 L 291 716 L 372 716 L 486 545 Z" unicode="ŵ" />
<glyph horiz-adv-x="573" d="M 1 0 L 1 0 Z M 585 730 L 336 315 L 336 0 L 246 0 L 246 319 L 1 730 L 101 730 L 296 402 L 493 730 L 585 730 Z M 295 789 L 295 789 Z M 450 789 L 374 789 L 295 904 L 214 789 L 141 789 L 255 960 L 336 960 L 450 789 Z" unicode="Ŷ" />
<glyph horiz-adv-x="447" d="M 0 0 L 0 0 Z M 449 486 L 213 -91 C 195 -133 172 -161 146 -177 C 119 -192 93 -200 68 -200 C 52 -200 38 -198 27 -195 C 15 -191 7 -188 3 -186 L 29 -114 C 31 -116 37 -118 45 -120 C 53 -122 61 -124 70 -124 C 84 -124 98 -118 111 -108 C 124 -98 136 -80 147 -55 L 183 34 L -3 486 L 86 486 L 225 131 L 365 486 L 449 486 Z M 225 545 L 225 545 Z M 380 545 L 304 545 L 225 660 L 144 545 L 71 545 L 185 716 L 266 716 L 380 545 Z" unicode="ŷ" />
<glyph horiz-adv-x="586" d="M 1 0 L 1 0 Z M 585 730 L 336 315 L 336 0 L 246 0 L 246 319 L 1 730 L 101 730 L 296 402 L 493 730 L 585 730 Z M 295 789 L 295 789 Z M 414 789 L 345 789 L 345 946 L 414 946 L 414 789 Z M 243 789 L 174 789 L 174 946 L 243 946 L 243 789 Z" unicode="Ÿ" />
<glyph horiz-adv-x="521" d="M 17 0 L 17 0 Z M 498 730 L 498 689 L 136 79 L 511 79 L 511 0 L 17 0 L 17 39 L 378 650 L 50 650 L 50 730 L 498 730 Z M 268 791 L 268 791 Z M 170 791 L 268 957 L 366 957 L 252 791 L 170 791 Z" unicode="Ź" />
<glyph horiz-adv-x="393" d="M 14 0 L 14 0 Z M 369 486 L 369 448 L 131 73 L 382 73 L 382 0 L 14 0 L 14 32 L 257 413 L 27 413 L 27 486 L 369 486 Z M 202 547 L 202 547 Z M 104 547 L 202 713 L 300 713 L 186 547 L 104 547 Z" unicode="ź" />
<glyph horiz-adv-x="521" d="M 17 0 L 17 0 Z M 498 730 L 498 689 L 136 79 L 511 79 L 511 0 L 17 0 L 17 39 L 378 650 L 50 650 L 50 730 L 498 730 Z M 268 793 L 268 793 Z M 307 793 L 230 793 L 230 940 L 307 940 L 307 793 Z" unicode="Ż" />
<glyph horiz-adv-x="393" d="M 14 0 L 14 0 Z M 369 486 L 369 448 L 131 73 L 382 73 L 382 0 L 14 0 L 14 32 L 257 413 L 27 413 L 27 486 L 369 486 Z M 202 549 L 202 549 Z M 241 549 L 164 549 L 164 696 L 241 696 L 241 549 Z" unicode="ż" />
<glyph horiz-adv-x="531" d="M 17 0 L 17 0 Z M 498 730 L 498 689 L 136 79 L 511 79 L 511 0 L 17 0 L 17 39 L 378 650 L 50 650 L 50 730 L 498 730 Z M 268 789 L 268 789 Z M 114 960 L 189 960 L 269 845 L 349 960 L 423 960 L 309 789 L 228 789 L 114 960 Z" unicode="Ž" />
<glyph horiz-adv-x="393" d="M 14 0 L 14 0 Z M 369 486 L 369 448 L 131 73 L 382 73 L 382 0 L 14 0 L 14 32 L 257 413 L 27 413 L 27 486 L 369 486 Z M 202 545 L 202 545 Z M 48 716 L 123 716 L 203 601 L 283 716 L 357 716 L 243 545 L 162 545 L 48 716 Z" unicode="ž" />
<glyph horiz-adv-x="360" d="M 179 -62 C 176 -94 163 -121 140 -144 C 116 -167 88 -179 54 -179 C 37 -179 21 -177 5 -175 C -10 -172 -22 -169 -30 -166 L -22 -105 C -17 -105 -10 -106 0 -108 C 9 -110 18 -111 27 -111 C 47 -111 65 -104 80 -90 C 94 -76 103 -57 106 -33 L 139 334 L 45 334 L 45 403 L 145 403 L 165 630 C 167 648 171 663 179 677 C 187 691 196 702 207 712 C 217 721 229 728 242 733 C 255 737 268 740 281 740 C 293 740 306 739 318 738 C 330 737 337 736 340 736 L 333 663 C 331 663 327 664 321 665 C 315 665 309 666 303 666 C 284 666 268 659 256 647 C 244 634 237 614 235 588 L 219 403 L 324 403 L 324 334 L 213 334 L 179 -62 Z" unicode="ƒ" />
<glyph horiz-adv-x="500" d="M 30 0 L 30 0 Z M 256 -10 C 207 -10 164 -2 126 13 C 88 28 56 50 30 80 L 85 145 C 103 120 128 100 159 86 C 189 72 221 65 253 65 C 287 65 316 75 340 96 C 364 116 377 144 377 178 C 377 210 366 238 346 261 C 326 283 289 308 237 334 C 174 363 127 394 97 426 C 67 458 52 504 52 562 C 52 615 70 658 107 691 C 143 723 191 740 249 740 C 291 740 328 733 360 719 C 391 705 418 689 440 669 L 391 601 C 372 618 350 632 326 643 C 302 654 276 660 250 660 C 216 660 189 650 168 632 C 147 614 137 589 137 559 C 137 526 148 499 169 479 C 190 459 229 435 287 408 C 352 377 398 345 424 311 C 450 277 463 234 463 183 C 463 152 457 125 446 101 C 434 77 419 56 400 40 C 381 24 359 11 334 3 C 309 -5 283 -10 256 -10 Z M 236 -79 L 236 -79 Z M 323 -79 C 321 -103 316 -127 309 -151 C 302 -175 293 -199 283 -221 C 273 -243 261 -263 249 -282 C 237 -301 224 -317 211 -331 L 149 -302 C 156 -292 164 -280 173 -264 C 182 -248 191 -230 199 -210 C 207 -190 214 -168 221 -146 C 227 -123 232 -101 235 -79 L 323 -79 Z" unicode="Ș" />
<glyph horiz-adv-x="394" d="M 29 0 L 29 0 Z M 209 -9 C 169 -9 133 -3 103 8 C 73 20 48 36 29 56 L 70 112 C 86 96 106 84 130 74 C 154 64 179 59 205 59 C 227 59 247 65 263 78 C 279 91 287 108 287 130 C 287 148 278 164 262 178 C 245 192 217 206 177 221 C 131 237 97 257 76 280 C 54 302 44 332 44 368 C 44 405 59 436 89 460 C 119 484 155 496 199 496 C 235 496 265 490 291 480 C 317 469 337 458 352 446 L 316 387 C 302 396 286 405 266 414 C 246 422 225 427 203 427 C 181 427 162 422 146 412 C 130 402 122 388 122 370 C 122 353 128 339 141 328 C 153 317 181 303 223 287 C 272 268 308 247 330 224 C 352 201 364 170 364 132 C 364 88 348 53 318 28 C 287 3 251 -9 209 -9 Z M 190 -77 L 190 -77 Z M 277 -77 C 275 -101 270 -125 263 -149 C 256 -173 247 -197 237 -219 C 227 -241 215 -261 203 -280 C 191 -299 178 -315 165 -329 L 103 -300 C 110 -290 118 -278 127 -262 C 136 -246 145 -228 153 -208 C 161 -188 168 -166 175 -144 C 181 -121 186 -99 189 -77 L 277 -77 Z" unicode="ș" />
<glyph horiz-adv-x="482" d="M 9 0 L 9 0 Z M 473 650 L 284 650 L 284 0 L 194 0 L 194 650 L 9 650 L 9 730 L 473 730 L 473 650 Z M 212 -75 L 212 -75 Z M 299 -75 C 297 -99 292 -123 285 -147 C 278 -171 269 -195 259 -217 C 249 -239 237 -259 225 -278 C 213 -297 200 -313 187 -327 L 125 -298 C 132 -288 140 -276 149 -260 C 158 -244 167 -226 175 -206 C 183 -186 190 -164 197 -142 C 203 -119 208 -97 211 -75 L 299 -75 Z" unicode="Ț" />
<glyph horiz-adv-x="279" d="M 12 0 L 12 0 Z M 259 79 L 269 11 C 263 6 253 2 240 0 C 227 -3 212 -5 196 -5 C 181 -5 166 -2 152 1 C 137 5 124 12 113 22 C 101 32 92 45 85 61 C 78 77 75 96 75 119 L 75 414 L 12 414 L 12 486 L 76 486 L 76 607 L 157 618 L 157 486 L 256 486 L 256 414 L 158 414 L 158 127 C 158 107 163 92 173 82 C 183 72 196 68 213 68 C 221 68 230 69 239 72 C 248 74 255 77 259 79 Z M 134 -75 L 134 -75 Z M 221 -75 C 219 -99 214 -123 207 -147 C 200 -171 191 -195 181 -217 C 171 -239 159 -259 147 -278 C 135 -297 122 -313 109 -327 L 47 -298 C 54 -288 62 -276 71 -260 C 80 -244 89 -226 97 -206 C 105 -186 112 -164 119 -142 C 125 -119 130 -97 133 -75 L 221 -75 Z" unicode="ț" />
<glyph horiz-adv-x="231" d="M 167 486 L 167 -58 C 167 -100 154 -133 130 -159 C 106 -185 76 -197 40 -197 C 26 -197 11 -195 -3 -192 C -18 -188 -30 -184 -38 -180 L -21 -115 C -16 -117 -9 -120 -1 -122 C 7 -124 16 -125 26 -125 C 41 -125 54 -118 66 -105 C 78 -91 84 -73 84 -49 L 84 486 L 167 486 Z" unicode="ȷ" />
<glyph horiz-adv-x="500" d="M 405 545 L 329 545 L 250 660 L 169 545 L 96 545 L 210 716 L 291 716 L 405 545 Z" unicode="ˆ" />
<glyph horiz-adv-x="500" d="M 96 716 L 171 716 L 251 601 L 331 716 L 405 716 L 291 545 L 210 545 L 96 716 Z" unicode="ˇ" />
<glyph horiz-adv-x="500" d="M 326 707 L 396 707 C 392 653 376 613 350 588 C 323 562 290 550 250 550 C 210 550 176 562 150 588 C 123 613 108 653 104 707 L 174 707 C 176 677 182 652 194 634 C 206 615 224 606 250 606 C 275 606 294 615 306 633 C 318 651 324 675 326 707 Z" unicode="˘" />
<glyph horiz-adv-x="500" d="M 289 549 L 212 549 L 212 696 L 289 696 L 289 549 Z" unicode="˙" />
<glyph horiz-adv-x="505" d="M 253 540 C 220 540 192 551 170 574 C 147 596 136 624 136 657 C 136 689 147 716 170 739 C 192 761 220 773 253 773 C 285 773 313 761 336 739 C 358 716 370 689 370 657 C 370 624 358 596 336 574 C 313 551 285 540 253 540 Z M 253 591 C 271 591 287 597 299 610 C 311 622 317 638 317 657 C 317 675 311 691 299 704 C 287 716 271 723 253 723 C 235 723 219 716 207 704 C 194 691 188 675 188 657 C 188 638 194 622 207 610 C 219 597 235 591 253 591 Z" unicode="˚" />
<glyph horiz-adv-x="500" d="M 359 -92 L 383 -127 C 363 -147 341 -162 317 -173 C 292 -183 265 -189 235 -189 C 202 -189 176 -181 157 -167 C 137 -152 128 -134 128 -112 C 128 -88 138 -65 159 -44 C 180 -22 211 -4 251 12 L 297 11 C 267 -2 244 -16 226 -32 C 208 -47 200 -63 200 -79 C 200 -93 205 -105 217 -114 C 229 -122 244 -127 262 -127 C 282 -127 300 -123 317 -117 C 334 -111 348 -102 359 -92 Z" unicode="˛" />
<glyph horiz-adv-x="500" d="M 348 686 L 412 686 C 412 640 405 607 392 585 C 379 563 361 552 339 552 C 321 552 305 555 291 563 C 277 571 265 579 255 587 C 244 595 234 602 224 610 C 214 617 204 621 194 621 C 184 621 175 615 168 604 C 161 592 157 576 157 556 L 94 556 C 94 601 102 635 120 657 C 137 679 156 690 177 690 C 193 690 208 686 220 678 C 232 670 244 661 256 652 C 266 644 275 637 285 630 C 294 623 303 620 313 620 C 322 620 330 625 337 637 C 344 649 348 665 348 686 Z" unicode="˜" />
<glyph horiz-adv-x="500" d="M 90 544 L 173 697 L 262 697 L 164 544 L 90 544 Z M 264 544 L 349 697 L 437 697 L 339 544 L 264 544 Z" unicode="˝" />
<glyph horiz-adv-x="0" d="M 0 544 L 0 544 Z M 98 544 L 15 544 L -98 711 L -1 711 L 98 544 Z" unicode="̀" />
<glyph horiz-adv-x="0" d="M 0 547 L 0 547 Z M -98 547 L 0 713 L 98 713 L -16 547 L -98 547 Z" unicode="́" />
<glyph horiz-adv-x="0" d="M 0 545 L 0 545 Z M 155 545 L 79 545 L 0 660 L -81 545 L -154 545 L -40 716 L 41 716 L 155 545 Z" unicode="̂" />
<glyph horiz-adv-x="0" d="M 0 552 L 0 552 Z M 96 686 L 160 686 C 160 640 153 607 140 585 C 127 563 109 552 87 552 C 69 552 53 555 39 563 C 25 571 13 579 3 587 C -7 595 -17 602 -27 610 C -37 617 -47 621 -58 621 C -68 621 -76 615 -83 604 C -90 592 -94 576 -95 556 L -158 556 C -158 601 -149 635 -132 657 C -114 679 -95 690 -75 690 C -58 690 -43 686 -31 678 C -19 670 -7 661 4 652 C 14 644 23 637 33 630 C 42 623 51 620 61 620 C 70 620 78 625 85 637 C 92 649 96 665 96 686 Z" unicode="̃" />
<glyph horiz-adv-x="0" d="M 0 566 L 0 566 Z M 126 566 L -126 566 L -126 633 L 126 633 L 126 566 Z" unicode="̄" />
<glyph horiz-adv-x="0" d="M 0 550 L 0 550 Z M 76 707 L 146 707 C 142 653 126 613 100 588 C 73 562 40 550 0 550 C -40 550 -73 562 -100 588 C -126 613 -142 653 -146 707 L -76 707 C -74 677 -67 652 -55 634 C -43 615 -25 606 0 606 C 25 606 44 615 56 633 C 68 651 74 675 76 707 Z" unicode="̆" />
<glyph horiz-adv-x="0" d="M 0 549 L 0 549 Z M 39 549 L -38 549 L -38 696 L 39 696 L 39 549 Z" unicode="̇" />
<glyph horiz-adv-x="0" d="M 0 545 L 0 545 Z M 119 545 L 50 545 L 50 702 L 119 702 L 119 545 Z M -52 545 L -121 545 L -121 702 L -52 702 L -52 545 Z" unicode="̈" />
<glyph horiz-adv-x="0" d="M 0 540 L 0 540 Z M 0 540 C -32 540 -60 551 -83 574 C -105 596 -117 624 -117 657 C -117 689 -105 716 -83 739 C -60 761 -32 773 0 773 C 32 773 60 761 83 739 C 105 716 117 689 117 657 C 117 624 105 596 83 574 C 60 551 32 540 0 540 Z M 0 591 C 18 591 34 597 46 610 C 58 622 64 638 64 657 C 64 675 58 691 46 704 C 34 716 18 723 0 723 C -18 723 -33 716 -46 704 C -58 691 -65 675 -65 657 C -65 638 -58 622 -46 610 C -33 597 -18 591 0 591 Z" unicode="̊" />
<glyph horiz-adv-x="0" d="M 0 544 L 0 544 Z M -173 544 L -90 697 L -1 697 L -99 544 L -173 544 Z M 1 544 L 86 697 L 174 697 L 76 544 L 1 544 Z" unicode="̋" />
<glyph horiz-adv-x="0" d="M 0 545 L 0 545 Z M -154 716 L -79 716 L 1 601 L 81 716 L 155 716 L 41 545 L -40 545 L -154 716 Z" unicode="̌" />
<glyph horiz-adv-x="0" d="M 0 -75 L 0 -75 Z M 87 -75 C 85 -99 80 -123 73 -147 C 66 -171 57 -195 47 -217 C 37 -239 25 -259 13 -278 C 1 -297 -11 -313 -25 -327 L -87 -298 C -79 -288 -71 -276 -62 -260 C -53 -244 -45 -226 -37 -206 C -29 -186 -21 -164 -15 -142 C -8 -119 -3 -97 -1 -75 L 87 -75 Z" unicode="̦" />
<glyph horiz-adv-x="0" d="M 0 0 L 0 0 Z M 7 -186 C -15 -186 -38 -183 -61 -177 C -84 -171 -102 -163 -116 -153 L -103 -116 C -93 -122 -81 -127 -66 -133 C -50 -139 -33 -142 -15 -142 C 0 -142 12 -138 24 -131 C 35 -124 41 -115 41 -104 C 41 -90 35 -81 25 -76 C 15 -70 4 -68 -7 -68 C -15 -68 -22 -68 -28 -69 C -34 -70 -40 -72 -47 -75 L -60 -60 L -2 12 L 47 12 L -1 -50 C 31 -43 59 -45 82 -57 C 104 -69 116 -87 116 -111 C 116 -135 105 -154 83 -167 C 61 -179 36 -186 7 -186 Z" unicode="̧" />
<glyph horiz-adv-x="0" d="M 0 0 L 0 0 Z M 105 -92 L 129 -127 C 109 -147 87 -162 63 -173 C 38 -183 11 -189 -19 -189 C -51 -189 -77 -181 -97 -167 C -116 -152 -126 -134 -126 -112 C -126 -88 -115 -65 -94 -44 C -73 -22 -43 -4 -3 12 L 43 11 C 13 -2 -9 -16 -27 -32 C -45 -47 -54 -63 -54 -79 C -54 -93 -48 -105 -36 -114 C -24 -122 -10 -127 8 -127 C 28 -127 46 -123 63 -117 C 80 -111 94 -102 105 -92 Z" unicode="̨" />
<glyph horiz-adv-x="569" d="M 1 0 L 1 0 Z M 612 0 L 1 0 L 288 731 L 327 731 L 612 0 Z M 496 68 L 304 582 L 112 68 L 496 68 Z" unicode="Δ" />
<glyph horiz-adv-x="724" d="M 37 0 L 37 0 Z M 46 0 L 46 77 L 258 77 L 258 151 C 224 163 194 179 167 199 C 139 219 116 241 97 267 C 78 292 63 320 53 350 C 42 380 37 412 37 444 C 37 486 44 525 60 562 C 76 599 98 631 127 658 C 155 685 190 706 231 722 C 272 738 318 746 369 746 C 421 746 469 738 511 722 C 553 706 588 684 617 657 C 646 630 668 598 684 561 C 699 524 707 485 707 444 C 707 379 688 320 650 267 C 612 214 558 175 486 151 L 486 77 L 697 77 L 697 0 L 420 0 L 420 195 C 482 215 530 248 564 294 C 598 340 616 388 616 440 C 616 474 609 505 597 534 C 585 563 568 588 546 609 C 524 630 498 646 468 658 C 438 670 405 676 369 676 C 334 676 302 670 272 658 C 242 646 217 630 196 609 C 175 588 159 563 147 534 C 135 504 129 472 129 438 C 129 388 145 340 179 296 C 213 251 261 217 325 195 L 325 0 L 46 0 Z" unicode="Ω" />
<glyph horiz-adv-x="591" d="M 75 0 L 75 0 Z M 75 -134 L 75 493 L 158 493 L 158 161 C 158 130 170 105 194 86 C 218 67 248 58 282 58 C 299 58 316 60 333 66 C 350 72 365 80 379 91 C 393 102 404 116 412 133 C 420 150 425 170 425 192 L 425 493 L 507 493 L 507 0 L 431 0 L 431 101 C 420 72 399 47 368 26 C 336 4 302 -6 266 -7 C 241 -7 218 -2 196 8 C 174 18 159 33 151 53 L 151 -134 L 75 -134 Z" unicode="μ" />
<glyph horiz-adv-x="589" d="M 174 457 L 174 0 L 91 0 L 91 457 L 15 457 L 15 521 L 574 521 L 574 457 L 493 457 L 493 0 L 410 0 L 410 457 L 174 457 Z" unicode="π" />
<glyph horiz-adv-x="847" d="M 8 0 L 8 0 Z M 834 730 L 634 -6 L 580 -6 L 422 562 L 259 -6 L 205 -6 L 8 730 L 98 730 L 240 174 L 397 730 L 454 730 L 609 173 L 752 730 L 834 730 Z M 424 788 L 424 788 Z M 522 788 L 439 788 L 326 955 L 423 955 L 522 788 Z" unicode="Ẁ" />
<glyph horiz-adv-x="656" d="M 4 0 L 4 0 Z M 441 -3 L 331 309 L 214 -3 L 160 -3 L 4 486 L 89 486 L 197 125 L 307 430 L 361 430 L 465 126 L 574 486 L 651 486 L 495 -3 L 441 -3 Z M 331 544 L 331 544 Z M 429 544 L 346 544 L 233 711 L 330 711 L 429 544 Z" unicode="ẁ" />
<glyph horiz-adv-x="847" d="M 8 0 L 8 0 Z M 834 730 L 634 -6 L 580 -6 L 422 562 L 259 -6 L 205 -6 L 8 730 L 98 730 L 240 174 L 397 730 L 454 730 L 609 173 L 752 730 L 834 730 Z M 424 791 L 424 791 Z M 326 791 L 424 957 L 522 957 L 408 791 L 326 791 Z" unicode="Ẃ" />
<glyph horiz-adv-x="656" d="M 4 0 L 4 0 Z M 441 -3 L 331 309 L 214 -3 L 160 -3 L 4 486 L 89 486 L 197 125 L 307 430 L 361 430 L 465 126 L 574 486 L 651 486 L 495 -3 L 441 -3 Z M 331 547 L 331 547 Z M 233 547 L 331 713 L 429 713 L 315 547 L 233 547 Z" unicode="ẃ" />
<glyph horiz-adv-x="847" d="M 8 0 L 8 0 Z M 834 730 L 634 -6 L 580 -6 L 422 562 L 259 -6 L 205 -6 L 8 730 L 98 730 L 240 174 L 397 730 L 454 730 L 609 173 L 752 730 L 834 730 Z M 424 789 L 424 789 Z M 543 789 L 474 789 L 474 946 L 543 946 L 543 789 Z M 372 789 L 303 789 L 303 946 L 372 946 L 372 789 Z" unicode="Ẅ" />
<glyph horiz-adv-x="656" d="M 4 0 L 4 0 Z M 441 -3 L 331 309 L 214 -3 L 160 -3 L 4 486 L 89 486 L 197 125 L 307 430 L 361 430 L 465 126 L 574 486 L 651 486 L 495 -3 L 441 -3 Z M 331 545 L 331 545 Z M 450 545 L 381 545 L 381 702 L 450 702 L 450 545 Z M 279 545 L 210 545 L 210 702 L 279 702 L 279 545 Z" unicode="ẅ" />
<glyph horiz-adv-x="573" d="M 1 0 L 1 0 Z M 585 730 L 336 315 L 336 0 L 246 0 L 246 319 L 1 730 L 101 730 L 296 402 L 493 730 L 585 730 Z M 295 788 L 295 788 Z M 393 788 L 310 788 L 197 955 L 294 955 L 393 788 Z" unicode="Ỳ" />
<glyph horiz-adv-x="447" d="M 0 0 L 0 0 Z M 449 486 L 213 -91 C 195 -133 172 -161 146 -177 C 119 -192 93 -200 68 -200 C 52 -200 38 -198 27 -195 C 15 -191 7 -188 3 -186 L 29 -114 C 31 -116 37 -118 45 -120 C 53 -122 61 -124 70 -124 C 84 -124 98 -118 111 -108 C 124 -98 136 -80 147 -55 L 183 34 L -3 486 L 86 486 L 225 131 L 365 486 L 449 486 Z M 225 544 L 225 544 Z M 323 544 L 240 544 L 127 711 L 224 711 L 323 544 Z" unicode="ỳ" />
<glyph horiz-adv-x="460" d="M 420 226 L 41 226 L 41 298 L 420 298 L 420 226 Z" unicode="–" />
<glyph horiz-adv-x="645" d="M 605 226 L 41 226 L 41 298 L 605 298 L 605 226 Z" unicode="—" />
<glyph horiz-adv-x="249" d="M 37 507 L 37 514 C 37 553 46 592 66 630 C 85 668 113 704 149 737 L 230 731 C 220 723 209 711 197 697 C 185 683 173 666 163 648 C 152 629 143 608 136 586 C 128 563 125 539 125 515 L 125 507 L 37 507 Z" unicode="‘" />
<glyph horiz-adv-x="249" d="M 212 737 L 212 730 C 212 690 202 652 182 614 C 162 576 134 541 100 507 L 19 513 C 29 523 40 535 52 549 C 64 563 75 580 86 598 C 96 616 105 637 113 659 C 120 681 124 704 124 729 L 124 737 L 212 737 Z" unicode="’" />
<glyph horiz-adv-x="249" d="M 212 111 L 212 104 C 212 64 202 26 182 -11 C 162 -49 134 -85 100 -119 L 18 -113 C 28 -103 39 -90 51 -76 C 63 -62 74 -45 85 -27 C 96 -9 105 11 113 33 C 120 55 124 78 124 103 L 124 111 L 212 111 Z" unicode="‚" />
<glyph horiz-adv-x="413" d="M 211 507 L 211 514 C 211 552 220 589 240 626 C 259 663 287 700 324 737 L 399 731 C 389 722 378 710 366 696 C 354 681 342 664 331 646 C 320 628 311 607 303 585 C 295 563 292 539 292 515 L 292 507 L 211 507 Z M 37 507 L 37 514 C 37 552 47 589 67 626 C 87 663 114 700 150 737 L 225 731 C 216 722 205 710 193 696 C 181 682 169 665 158 647 C 147 628 138 607 130 585 C 122 563 118 539 118 515 L 118 507 L 37 507 Z" unicode="“" />
<glyph horiz-adv-x="413" d="M 203 737 L 203 730 C 203 690 194 652 176 616 C 158 579 130 543 94 507 L 18 513 C 28 523 40 536 53 550 C 65 564 77 581 87 599 C 97 617 105 637 112 659 C 119 681 123 704 123 729 L 123 737 L 203 737 Z M 376 737 L 376 730 C 376 690 366 652 347 615 C 328 577 301 541 266 507 L 191 513 C 201 523 213 536 225 551 C 237 565 249 582 259 600 C 269 618 278 637 285 659 C 291 681 295 704 295 729 L 295 737 L 376 737 Z" unicode="”" />
<glyph horiz-adv-x="414" d="M 203 113 L 203 106 C 203 67 194 29 176 -7 C 158 -44 130 -81 94 -117 L 18 -111 C 28 -100 40 -87 52 -73 C 64 -58 76 -42 86 -24 C 96 -6 105 13 112 35 C 118 57 122 80 122 105 L 122 113 L 203 113 Z M 376 113 L 376 106 C 376 67 366 29 348 -8 C 330 -46 303 -82 267 -117 L 192 -111 C 203 -100 215 -87 227 -73 C 239 -58 251 -42 261 -24 C 271 -6 279 13 286 35 C 292 57 296 80 296 105 L 296 113 L 376 113 Z" unicode="„" />
<glyph horiz-adv-x="512" d="M 489 393 L 296 393 L 296 -179 L 209 -179 L 209 393 L 23 393 L 23 471 L 209 471 L 209 730 L 296 730 L 296 471 L 489 471 L 489 393 Z" unicode="†" />
<glyph horiz-adv-x="514" d="M 211 -179 L 211 117 L 28 117 L 28 194 L 211 194 L 211 386 L 28 386 L 28 463 L 211 463 L 211 730 L 298 730 L 298 463 L 486 463 L 486 386 L 298 386 L 298 194 L 486 194 L 486 117 L 298 117 L 298 -179 L 211 -179 Z" unicode="‡" />
<glyph horiz-adv-x="382" d="M 191 457 C 213 457 231 449 246 434 C 261 419 269 401 269 379 C 269 357 261 339 246 324 C 231 308 213 301 191 301 C 169 301 150 308 135 324 C 120 339 113 357 113 379 C 113 401 120 419 135 434 C 150 449 169 457 191 457 Z" unicode="•" />
<glyph horiz-adv-x="664" d="M 68 0 L 68 122 L 153 122 L 153 0 L 68 0 Z M 289 0 L 289 122 L 374 122 L 374 0 L 289 0 Z M 510 0 L 510 122 L 595 122 L 595 0 L 510 0 Z" unicode="…" />
<glyph horiz-adv-x="1103" d="M 193 358 C 174 358 155 362 137 370 C 119 378 102 391 88 407 C 74 423 62 443 54 467 C 45 491 41 518 41 549 C 41 575 44 599 52 623 C 60 646 70 666 84 684 C 97 701 113 715 132 725 C 150 735 170 740 192 740 C 215 740 236 735 255 725 C 274 715 290 701 304 684 C 317 667 327 647 335 624 C 342 601 346 577 346 552 C 346 524 342 499 334 475 C 326 451 316 431 302 414 C 288 396 272 383 254 373 C 235 363 215 358 193 358 Z M 117 0 L 562 730 L 632 730 L 187 0 L 117 0 Z M 114 549 C 114 512 121 482 135 458 C 149 434 168 423 192 423 C 219 423 239 435 253 459 C 266 483 273 513 273 549 C 273 583 266 612 254 637 C 242 662 222 675 194 675 C 167 675 147 662 134 638 C 120 613 114 583 114 549 Z M 567 -3 C 547 -3 528 1 510 9 C 492 17 476 30 462 46 C 448 62 436 82 428 106 C 419 130 415 157 415 188 C 415 214 418 238 426 262 C 434 285 444 305 458 323 C 472 340 488 354 507 364 C 525 374 546 379 569 379 C 592 379 613 374 632 364 C 650 354 666 340 680 323 C 693 306 703 286 710 263 C 717 240 721 216 721 191 C 721 164 717 139 709 115 C 701 91 691 71 678 53 C 664 35 648 22 629 12 C 610 2 589 -3 567 -3 Z M 908 -3 C 888 -3 869 1 851 9 C 833 17 817 30 803 46 C 789 62 777 82 769 106 C 760 130 756 157 756 188 C 756 214 759 238 767 262 C 775 285 785 305 799 323 C 813 340 829 354 848 364 C 866 374 887 379 910 379 C 933 379 954 374 973 364 C 991 354 1007 340 1021 323 C 1034 306 1044 286 1051 263 C 1058 240 1062 216 1062 191 C 1062 164 1058 139 1050 115 C 1042 91 1032 71 1019 53 C 1005 35 989 22 970 12 C 951 2 930 -3 908 -3 Z M 566 62 C 593 62 614 74 628 98 C 642 122 649 152 649 188 C 649 222 642 252 629 277 C 615 302 595 315 568 315 C 543 315 524 302 510 278 C 496 253 489 223 489 188 C 489 150 496 119 510 96 C 524 73 543 62 566 62 Z M 907 62 C 934 62 955 74 969 98 C 983 122 990 152 990 188 C 990 222 983 252 970 277 C 957 302 937 315 910 315 C 884 315 864 302 850 278 C 836 253 829 223 829 188 C 829 150 836 119 851 96 C 865 73 884 62 907 62 Z" unicode="‰" />
<glyph horiz-adv-x="235" d="M 205 99 L 28 265 L 28 318 L 205 483 L 205 399 L 101 290 L 205 185 L 205 99 Z" unicode="‹" />
<glyph horiz-adv-x="235" d="M 30 484 L 207 316 L 207 264 L 30 99 L 30 183 L 134 292 L 30 396 L 30 484 Z" unicode="›" />
<glyph horiz-adv-x="145" d="M 301 730 L -73 0 L -145 0 L 229 730 L 301 730 Z" unicode="⁄" />
<glyph horiz-adv-x="326" d="M 15 456 L 15 507 L 204 738 L 252 738 L 252 510 L 315 510 L 315 456 L 252 456 L 252 373 L 183 373 L 183 456 L 15 456 Z M 76 503 L 185 503 L 185 640 L 76 503 Z" unicode="⁴" />
<glyph horiz-adv-x="535" d="M 525 116 C 506 79 478 48 441 24 C 404 0 364 -12 320 -12 C 262 -12 211 12 168 60 C 124 108 96 174 84 259 L 35 259 L 35 323 L 77 323 C 76 329 76 336 76 342 C 76 348 76 355 76 362 C 76 368 76 374 76 380 C 76 386 76 391 77 397 L 35 397 L 35 460 L 82 460 C 88 501 97 539 110 574 C 123 608 140 638 160 663 C 180 687 203 707 230 721 C 256 735 286 742 319 742 C 372 742 414 730 446 707 C 477 684 501 657 517 626 L 453 590 C 439 614 422 633 401 649 C 380 664 353 672 320 672 C 278 672 243 653 215 617 C 187 580 168 528 160 460 L 467 460 L 467 397 L 155 397 C 154 391 154 386 154 380 C 154 374 154 368 154 362 C 154 355 154 348 154 342 C 154 335 154 329 155 323 L 467 323 L 467 259 L 162 259 C 172 193 193 142 223 108 C 253 74 286 57 322 57 C 355 57 383 67 407 87 C 431 107 450 130 464 157 L 525 116 Z" unicode="€" />
<glyph horiz-adv-x="868" d="M 812 311 L 738 311 L 738 607 L 601 407 L 584 407 L 448 606 L 448 311 L 375 311 L 375 730 L 443 730 L 593 511 L 744 730 L 812 730 L 812 311 Z M 346 648 L 225 648 L 225 311 L 142 311 L 142 648 L 21 648 L 21 730 L 346 730 L 346 648 Z" unicode="™" />
<glyph horiz-adv-x="745" d="M 46 0 L 46 77 L 258 77 L 258 151 C 224 163 194 179 167 199 C 139 219 116 241 97 267 C 78 292 63 320 53 350 C 42 380 37 412 37 444 C 37 486 44 525 60 562 C 76 599 98 631 127 658 C 155 685 190 706 231 722 C 272 738 318 746 369 746 C 421 746 469 738 511 722 C 553 706 588 684 617 657 C 646 630 668 598 684 561 C 699 524 707 485 707 444 C 707 379 688 320 650 267 C 612 214 558 175 486 151 L 486 77 L 697 77 L 697 0 L 420 0 L 420 195 C 482 215 530 248 564 294 C 598 340 616 388 616 440 C 616 474 609 505 597 534 C 585 563 568 588 546 609 C 524 630 498 646 468 658 C 438 670 405 676 369 676 C 334 676 302 670 272 658 C 242 646 217 630 196 609 C 175 588 159 563 147 534 C 135 504 129 472 129 438 C 129 388 145 340 179 296 C 213 251 261 217 325 195 L 325 0 L 46 0 Z" unicode="Ω" />
<glyph horiz-adv-x="532" d="M 490 279 C 490 229 484 185 472 149 C 460 113 443 83 423 59 C 402 35 377 18 349 7 C 321 -4 291 -10 260 -10 C 231 -10 203 -4 176 6 C 148 16 124 32 103 52 C 81 72 64 96 52 125 C 39 154 33 187 33 223 C 33 256 38 287 50 316 C 61 345 76 370 96 392 C 115 414 138 431 164 443 C 190 455 219 462 250 462 C 290 462 325 452 354 432 C 383 412 405 387 419 357 C 412 426 399 485 379 535 C 359 585 336 625 310 657 C 283 688 255 711 225 726 C 195 741 166 749 139 750 L 177 802 C 205 802 238 792 274 773 C 310 754 344 724 376 683 C 408 641 435 587 457 521 C 479 454 490 373 490 279 Z M 260 51 C 303 51 338 67 364 100 C 390 132 404 177 404 233 C 404 281 391 320 366 352 C 340 384 305 400 260 400 C 218 400 184 384 158 352 C 132 320 119 278 119 226 C 119 170 132 126 158 96 C 184 66 218 51 260 51 Z" unicode="∂" />
<glyph horiz-adv-x="613" d="M 612 0 L 1 0 L 288 731 L 327 731 L 612 0 Z M 496 68 L 304 582 L 112 68 L 496 68 Z" unicode="∆" />
<glyph horiz-adv-x="679" d="M 215 655 L 215 0 L 129 0 L 129 655 L 15 655 L 15 730 L 664 730 L 664 655 L 555 655 L 555 0 L 469 0 L 469 655 L 215 655 Z" unicode="∏" />
<glyph horiz-adv-x="587" d="M 162 654 L 402 307 L 129 -103 L 547 -103 L 547 -179 L -12 -179 L 315 306 L 18 730 L 526 730 L 526 654 L 162 654 Z" unicode="∑" />
<glyph horiz-adv-x="506" d="M 466 297 L 41 297 L 41 366 L 466 366 L 466 297 Z" unicode="−" />
<glyph horiz-adv-x="510" d="M 500 730 L 198 0 L 186 0 L 14 327 L 74 371 L 202 116 L 446 730 L 500 730 Z" unicode="√" />
<glyph horiz-adv-x="334" d="M 109 -33 L 167 630 C 170 666 184 693 208 712 C 232 730 256 740 281 740 C 293 740 306 739 318 738 C 330 737 337 736 340 736 L 333 663 C 331 663 327 664 321 665 C 315 665 309 666 303 666 C 284 666 268 659 256 647 C 244 634 237 614 235 588 L 179 -62 C 176 -94 163 -121 140 -145 C 116 -168 88 -179 54 -179 C 36 -179 20 -177 5 -174 C -10 -170 -22 -166 -30 -162 L -21 -103 C -17 -103 -10 -105 0 -108 C 9 -110 18 -112 27 -112 C 47 -112 65 -105 81 -91 C 97 -77 106 -58 109 -33 Z" unicode="∫" />
<glyph horiz-adv-x="491" d="M 382 496 L 451 496 C 449 448 441 409 426 380 C 410 351 386 337 354 337 C 332 337 312 341 294 351 C 276 361 261 371 249 383 C 235 395 222 406 208 415 C 194 424 179 429 165 429 C 150 429 136 421 122 405 C 108 389 102 367 102 340 L 39 340 C 39 388 48 427 68 455 C 88 483 113 498 145 498 C 167 498 186 492 204 482 C 221 471 236 460 249 449 C 261 439 274 429 287 421 C 300 412 314 408 328 408 C 346 408 360 415 369 429 C 377 443 382 465 382 496 Z M 383 322 L 451 322 C 449 274 441 235 425 206 C 409 177 384 163 350 163 C 327 163 307 167 290 177 C 273 186 258 197 246 209 C 233 221 220 231 206 240 C 192 248 179 253 165 253 C 151 253 137 245 123 229 C 109 213 103 192 103 166 L 39 166 C 39 214 49 253 69 281 C 89 309 115 324 148 324 C 170 324 190 318 208 307 C 226 296 241 285 254 273 C 266 262 278 253 291 245 C 304 237 317 233 331 233 C 349 233 363 240 371 254 C 379 268 383 291 383 322 Z" unicode="≈" />
<glyph horiz-adv-x="496" d="M 453 179 L 221 179 L 170 71 L 118 93 L 158 179 L 64 179 L 64 250 L 192 250 L 257 390 L 64 390 L 64 461 L 291 461 L 341 568 L 393 546 L 353 461 L 453 461 L 453 390 L 320 390 L 254 250 L 453 250 L 453 179 Z" unicode="≠" />
<glyph horiz-adv-x="496" d="M 60 298 L 60 352 L 431 555 L 431 480 L 142 327 L 431 172 L 431 97 L 60 298 Z M 59 82 L 431 82 L 431 21 L 59 21 L 59 82 Z" unicode="≤" />
<glyph horiz-adv-x="496" d="M 430 298 L 59 97 L 59 172 L 348 327 L 59 480 L 59 555 L 430 352 L 430 298 Z M 431 82 L 431 21 L 59 21 L 59 82 L 431 82 Z" unicode="≥" />
<glyph horiz-adv-x="530" d="M 500 326 L 270 -12 L 259 -12 L 30 326 L 30 337 L 259 674 L 270 674 L 500 337 L 500 326 Z M 421 327 L 421 336 L 269 565 L 261 565 L 109 336 L 109 327 L 261 97 L 269 97 L 421 327 Z" unicode="◊" />
<glyph horiz-adv-x="730" d="M 448 683 L 282 683 L 282 730 L 448 730 L 448 683 Z M 659 282 L 610 282 L 610 448 L 659 448 L 659 282 Z M 120 282 L 71 282 L 71 448 L 120 448 L 120 282 Z M 423 307 L 307 307 L 307 423 L 423 423 L 423 307 Z M 448 0 L 282 0 L 282 48 L 448 48 L 448 0 Z" unicode="" />
<glyph horiz-adv-x="537" d="M 308 414 L 186 414 L 186 0 L 104 0 L 104 414 L 18 414 L 18 482 L 104 482 L 104 588 C 104 620 109 649 119 673 C 129 697 143 718 159 734 C 175 750 193 763 214 771 C 234 779 255 783 275 783 C 291 783 306 781 322 778 C 338 774 349 771 357 767 L 341 698 C 335 700 327 702 317 705 C 307 707 296 709 286 709 C 274 709 263 706 251 701 C 239 696 228 689 218 679 C 208 669 201 656 195 641 C 189 626 186 609 186 590 L 186 482 L 308 482 L 308 414 Z M 472 590 L 384 590 L 384 673 L 472 673 L 472 590 Z M 469 0 L 386 0 L 386 482 L 469 482 L 469 0 Z" unicode="ﬁ" />
<glyph horiz-adv-x="526" d="M 309 417 L 186 417 L 186 0 L 104 0 L 104 417 L 17 417 L 17 486 L 104 486 L 104 581 C 104 613 109 642 119 667 C 129 691 143 712 159 728 C 175 744 193 757 214 765 C 234 773 255 778 275 778 C 291 778 306 776 322 773 C 337 769 349 766 357 762 L 341 693 C 335 695 327 697 317 700 C 307 702 296 704 286 704 C 274 704 263 701 251 696 C 239 690 228 683 218 673 C 208 663 201 650 195 635 C 189 619 186 602 186 583 L 186 486 L 309 486 L 309 417 Z M 460 774 L 460 0 L 377 0 L 377 774 L 460 774 Z" unicode="ﬂ" />
</font>
</defs>
</svg>
