<?xml version="1.0" encoding="utf-8" ?><svg version="1.1" xmlns = 'http://www.w3.org/2000/svg'><defs><font id='web' horiz-adv-x="1000">
<font-face font-family="web" descent="-200" cap-height="730" units-per-em="1000" bbox="-190,-349,1141,1025" x-height="544" ascent="800" />
<missing-glyph horiz-adv-x="500" d="" /><glyph horiz-adv-x="247" d="" unicode=" " />
<glyph horiz-adv-x="292" d="M 205 432 L 171 213 L 121 213 L 87 432 L 87 730 L 205 730 L 205 432 Z M 201 0 L 92 0 L 92 112 L 201 112 L 201 0 Z" unicode="!" />
<glyph horiz-adv-x="408" d="M 345 611 L 339 465 L 256 465 L 251 610 L 251 730 L 345 730 L 345 611 Z M 157 610 L 152 465 L 67 465 L 63 610 L 63 730 L 157 730 L 157 610 Z" unicode="&#x22;" />
<glyph horiz-adv-x="620" d="M 564 214 L 438 214 L 419 0 L 355 1 L 374 214 L 220 214 L 201 0 L 137 1 L 156 214 L 32 214 L 32 296 L 163 296 L 175 431 L 56 431 L 56 513 L 182 513 L 201 730 L 265 729 L 246 513 L 400 513 L 419 730 L 483 729 L 464 513 L 588 513 L 588 431 L 457 431 L 445 296 L 564 296 L 564 214 Z M 227 296 L 381 296 L 393 431 L 239 431 L 227 296 Z" unicode="#" />
<glyph horiz-adv-x="527" d="M 490 189 C 490 161 484 136 474 114 C 463 92 449 73 431 57 C 413 41 392 28 368 19 C 344 9 318 3 291 1 L 291 -123 L 230 -123 L 230 1 C 186 4 147 13 112 28 C 77 43 49 62 27 85 L 69 167 C 87 146 111 128 141 114 C 171 100 200 90 230 86 L 230 337 C 164 367 116 398 86 430 C 56 461 42 502 42 553 C 42 603 59 644 95 676 C 130 708 175 726 230 730 L 230 790 L 291 790 L 291 729 C 331 726 365 718 395 705 C 425 691 449 675 469 657 L 418 586 C 402 602 382 615 360 625 C 338 635 315 642 291 645 L 291 410 L 296 408 C 360 378 408 347 441 316 C 473 285 490 243 490 189 Z M 141 549 C 141 525 148 506 160 491 C 172 476 196 459 230 441 L 230 644 C 204 639 183 628 166 612 C 149 595 141 574 141 549 Z M 390 187 C 390 210 383 230 370 248 C 357 266 331 285 291 307 L 291 86 C 320 90 344 100 362 117 C 380 134 390 157 390 187 Z" unicode="$" />
<glyph horiz-adv-x="827" d="M 203 350 C 181 350 161 354 141 363 C 121 372 103 385 88 402 C 72 418 60 439 51 463 C 42 487 38 515 38 545 C 38 571 42 596 50 620 C 58 644 70 664 84 682 C 98 700 116 714 136 724 C 156 734 177 740 201 740 C 225 740 248 734 268 724 C 288 714 305 700 319 682 C 333 664 345 644 353 621 C 361 597 365 573 365 548 C 365 520 361 494 353 470 C 345 446 333 425 319 407 C 305 389 288 375 268 365 C 248 355 226 350 203 350 Z M 210 0 L 114 0 L 600 730 L 695 730 L 210 0 Z M 201 430 C 227 430 246 440 259 462 C 272 484 279 511 279 545 C 279 577 273 605 261 627 C 249 649 229 660 203 660 C 177 660 157 649 144 627 C 131 605 125 577 125 545 C 125 510 131 482 145 461 C 159 440 177 430 201 430 Z M 624 -3 C 602 -3 582 1 562 10 C 542 19 524 32 509 49 C 494 65 482 86 473 110 C 464 134 460 161 460 191 C 460 217 464 243 472 267 C 480 291 492 311 506 329 C 520 347 538 361 558 371 C 578 381 600 387 624 387 C 648 387 671 381 691 371 C 711 361 729 347 743 329 C 757 311 769 291 777 268 C 785 244 789 220 789 194 C 789 167 785 142 777 118 C 769 94 757 73 743 55 C 728 37 710 22 690 12 C 670 2 648 -3 624 -3 Z M 622 77 C 648 77 668 87 681 109 C 694 131 701 158 701 191 C 701 223 694 251 682 274 C 670 296 650 308 624 308 C 599 308 580 296 567 274 C 553 252 547 224 547 191 C 547 157 553 129 567 108 C 581 87 599 77 622 77 Z" unicode="%" />
<glyph horiz-adv-x="714" d="M 637 -4 L 547 75 C 513 48 475 27 433 13 C 391 0 342 -8 286 -8 C 208 -8 146 8 100 41 C 54 73 31 119 31 178 C 31 204 35 227 44 248 C 53 268 65 287 80 303 C 95 319 112 334 132 348 C 151 361 171 374 192 387 L 189 390 C 180 398 170 408 160 420 C 149 432 139 445 130 460 C 120 474 113 491 107 510 C 101 528 98 549 98 572 C 98 594 103 616 114 636 C 124 656 139 673 157 688 C 175 703 195 715 219 724 C 243 732 268 737 295 737 C 354 737 401 721 435 689 C 469 657 486 620 486 576 C 486 534 473 500 447 472 C 421 444 386 416 343 388 L 539 217 C 549 229 559 243 569 257 C 579 271 588 287 598 303 L 689 251 C 678 232 667 214 655 196 C 643 178 631 162 619 147 L 698 79 L 637 -4 Z M 266 455 L 282 441 C 316 463 341 483 359 501 C 377 519 386 539 386 562 C 386 585 378 605 362 623 C 346 640 323 649 294 649 C 267 649 245 639 228 621 C 210 603 202 583 202 563 C 202 542 208 523 220 506 C 232 488 248 471 266 455 Z M 144 190 C 144 156 158 129 188 110 C 217 90 253 81 295 81 C 327 81 358 86 387 97 C 415 107 442 123 468 144 L 254 333 C 220 311 193 289 173 268 C 153 247 144 221 144 190 Z" unicode="&#x26;" />
<glyph horiz-adv-x="220" d="M 158 606 L 153 457 L 67 457 L 62 606 L 62 730 L 158 730 L 158 606 Z" unicode="'" />
<glyph horiz-adv-x="334" d="M 316 -97 L 316 -185 C 276 -167 239 -143 204 -112 C 169 -81 139 -45 113 -4 C 87 36 67 82 52 133 C 37 183 30 237 30 293 C 30 349 37 402 53 451 C 68 500 89 544 115 583 C 141 621 171 655 206 683 C 241 711 278 733 316 749 L 316 668 C 270 640 230 595 197 534 C 164 472 147 392 147 293 C 147 205 161 128 191 61 C 221 -6 262 -59 316 -97 Z" unicode="(" />
<glyph horiz-adv-x="334" d="M 19 669 L 19 749 C 55 735 91 715 125 687 C 159 659 190 626 216 587 C 242 547 264 502 280 451 C 296 400 304 345 304 285 C 304 228 296 175 281 125 C 265 75 245 30 219 -10 C 193 -50 162 -85 128 -115 C 93 -145 57 -168 19 -185 L 19 -95 C 67 -60 107 -10 139 54 C 170 118 186 195 187 285 C 187 336 182 382 173 424 C 164 466 152 502 137 534 C 121 566 103 593 83 615 C 63 637 41 655 19 669 Z" unicode=")" />
<glyph horiz-adv-x="417" d="M 387 569 L 256 539 L 354 453 L 280 390 L 210 506 L 142 390 L 68 452 L 165 541 L 32 568 L 71 659 L 182 591 L 158 730 L 263 730 L 238 591 L 353 655 L 387 569 Z" unicode="*" />
<glyph horiz-adv-x="490" d="M 466 289 L 288 289 L 288 115 L 202 115 L 202 289 L 24 289 L 24 374 L 202 374 L 202 547 L 288 547 L 288 374 L 466 374 L 466 289 Z" unicode="+" />
<glyph horiz-adv-x="245" d="M 205 119 C 203 91 198 63 191 35 C 184 7 175 -17 165 -41 C 154 -65 142 -86 130 -106 C 117 -125 104 -140 92 -151 L 15 -117 C 22 -108 30 -95 39 -78 C 48 -61 57 -42 65 -21 C 73 0 80 22 86 47 C 92 71 97 95 99 119 L 205 119 Z" unicode="," />
<glyph horiz-adv-x="346" d="M 305 222 L 41 222 L 41 314 L 305 314 L 305 222 Z" unicode="-" />
<glyph horiz-adv-x="246" d="M 174 0 L 72 0 L 72 137 L 174 137 L 174 0 Z" unicode="." />
<glyph horiz-adv-x="322" d="M 320 730 L 96 0 L 2 0 L 228 730 L 320 730 Z" unicode="/" />
<glyph horiz-adv-x="553" d="M 273 -10 C 203 -10 146 21 102 83 C 58 145 36 237 36 361 C 36 415 41 465 51 511 C 61 557 76 598 96 632 C 116 666 141 692 172 712 C 202 731 238 741 279 741 C 321 741 357 731 387 713 C 417 694 441 668 461 635 C 480 602 494 563 503 518 C 512 472 517 423 517 370 C 517 312 512 260 502 213 C 492 166 477 126 457 93 C 437 60 411 35 381 17 C 350 -1 314 -10 273 -10 Z M 274 81 C 321 81 356 105 378 153 C 400 201 412 270 412 360 C 412 450 401 520 381 572 C 360 623 325 649 276 649 C 230 649 196 624 174 575 C 152 526 141 455 141 363 C 141 269 152 199 175 152 C 198 104 231 81 274 81 Z" unicode="0" />
<glyph horiz-adv-x="362" d="M 282 0 L 177 0 L 177 589 C 164 570 144 552 116 535 C 88 518 61 508 37 506 L 37 608 C 66 610 96 623 128 648 C 159 673 185 701 206 732 L 282 732 L 282 0 Z" unicode="1" />
<glyph horiz-adv-x="526" d="M 500 0 L 26 0 L 26 34 L 309 357 C 328 381 345 407 361 437 C 377 467 385 499 385 535 C 385 570 373 598 350 619 C 326 639 296 650 258 650 C 217 650 185 637 163 611 C 141 585 130 551 130 509 L 33 509 C 35 582 56 639 98 679 C 140 719 197 740 269 740 C 334 740 387 722 428 688 C 468 653 489 607 489 549 C 489 493 479 448 460 412 C 441 376 420 345 397 319 L 201 96 L 500 96 L 500 0 Z" unicode="2" />
<glyph horiz-adv-x="523" d="M 250 -10 C 189 -10 138 -2 97 13 C 55 28 24 45 3 64 L 54 149 C 71 133 95 118 126 102 C 157 86 195 79 239 79 C 287 79 326 92 354 119 C 382 146 397 181 397 223 C 397 263 383 293 355 315 C 327 336 292 347 252 347 L 134 347 L 134 435 L 248 435 C 284 435 314 445 338 466 C 361 487 373 513 373 544 C 373 572 362 596 340 618 C 318 640 288 651 250 651 C 210 651 176 642 150 626 C 123 609 101 590 85 569 L 25 638 C 45 664 74 688 113 709 C 152 730 201 741 259 741 C 323 741 376 725 416 693 C 456 661 476 619 476 565 C 476 521 463 484 437 454 C 411 424 379 404 341 396 C 362 392 382 385 401 375 C 420 365 437 353 451 338 C 465 323 477 305 486 285 C 494 264 499 241 499 217 C 499 187 493 159 482 132 C 471 104 455 80 434 59 C 413 38 387 21 356 9 C 325 -3 290 -10 250 -10 Z" unicode="3" />
<glyph horiz-adv-x="531" d="M 528 184 L 424 184 L 424 0 L 329 0 L 329 184 L 10 184 L 9 258 L 348 740 L 424 740 L 424 271 L 528 271 L 528 184 Z M 330 267 L 330 575 L 118 267 L 330 267 Z" unicode="4" />
<glyph horiz-adv-x="529" d="M 254 -10 C 201 -10 154 -1 112 16 C 70 34 39 54 18 77 L 72 158 C 88 141 110 124 140 106 C 170 88 205 80 245 80 C 291 80 327 95 354 126 C 381 157 395 199 395 251 C 395 298 382 335 357 362 C 332 388 301 402 263 402 C 229 402 200 395 177 382 C 154 368 137 350 125 326 L 56 345 L 86 730 L 450 730 L 450 634 L 162 634 L 147 425 C 157 439 174 454 199 468 C 224 482 254 489 290 489 C 352 489 402 468 442 427 C 481 385 501 329 501 257 C 501 217 494 180 482 147 C 470 113 453 85 431 62 C 409 39 383 21 353 9 C 323 -3 290 -10 254 -10 Z" unicode="5" />
<glyph horiz-adv-x="536" d="M 278 -11 C 244 -11 212 -5 182 7 C 152 19 126 36 104 58 C 82 80 64 107 51 139 C 38 171 32 208 32 249 C 32 291 37 331 49 370 C 61 408 77 445 98 481 C 118 517 143 552 172 586 C 201 620 233 653 267 686 L 337 756 L 403 688 L 350 638 C 298 588 253 539 215 493 C 176 447 153 408 146 378 C 156 399 176 418 204 436 C 232 453 264 462 300 462 C 362 462 413 440 452 398 C 491 355 511 299 511 231 C 511 196 505 164 493 134 C 481 104 464 79 444 58 C 423 36 398 19 370 7 C 341 -4 310 -11 278 -11 Z M 274 80 C 314 80 347 94 371 122 C 395 150 407 185 407 227 C 407 271 395 306 372 334 C 348 362 316 376 274 376 C 236 376 204 363 176 337 C 148 311 135 276 135 232 C 135 186 147 150 173 122 C 198 94 232 80 274 80 Z" unicode="6" />
<glyph horiz-adv-x="462" d="M 452 730 L 464 681 L 149 -7 L 57 34 L 340 633 L 13 633 L 13 730 L 452 730 Z" unicode="7" />
<glyph horiz-adv-x="554" d="M 374 389 C 414 380 448 359 477 327 C 506 295 521 252 521 199 C 521 137 499 87 455 48 C 411 9 352 -10 277 -10 C 202 -10 143 9 99 47 C 55 85 34 135 34 196 C 34 223 38 248 47 271 C 55 293 67 313 81 329 C 95 345 110 359 128 369 C 146 379 163 386 181 389 C 148 397 119 416 94 444 C 68 472 56 509 56 553 C 56 581 61 606 72 630 C 83 653 98 673 118 689 C 138 705 161 717 188 726 C 215 735 244 740 276 740 C 342 740 395 723 436 690 C 477 656 498 613 498 559 C 498 515 485 478 460 448 C 435 417 406 397 374 389 Z M 277 420 C 313 420 343 430 367 450 C 391 470 403 499 403 535 C 403 571 391 600 367 622 C 343 643 313 654 277 654 C 241 654 210 643 186 622 C 162 601 150 572 150 535 C 150 497 162 468 188 449 C 214 429 243 420 277 420 Z M 278 76 C 320 76 354 87 380 111 C 406 135 420 168 420 210 C 420 251 406 282 379 303 C 351 323 318 334 278 334 C 236 334 202 323 175 303 C 148 282 135 250 135 208 C 135 168 148 136 175 112 C 202 88 236 76 278 76 Z" unicode="8" />
<glyph horiz-adv-x="536" d="M 215 -18 L 154 50 L 217 105 C 236 123 255 144 274 167 C 293 189 311 212 327 235 C 343 258 357 281 370 303 C 382 325 392 346 398 364 C 386 341 364 320 332 302 C 300 284 267 275 235 275 C 173 275 122 296 83 338 C 44 380 25 436 25 507 C 25 540 31 571 43 600 C 55 628 72 653 93 674 C 114 694 139 711 169 723 C 198 735 229 741 263 741 C 296 741 327 735 357 724 C 386 712 411 696 433 674 C 455 652 472 626 485 594 C 497 562 504 525 504 484 C 504 436 497 391 485 349 C 472 306 455 266 435 229 C 414 192 390 158 363 127 C 336 95 308 67 280 43 L 215 -18 Z M 261 358 C 299 358 332 371 360 397 C 388 423 402 457 402 500 C 402 548 388 585 361 612 C 334 639 302 653 264 653 C 222 653 189 639 165 611 C 141 583 129 548 129 506 C 129 462 140 426 163 399 C 186 371 219 358 261 358 Z" unicode="9" />
<glyph horiz-adv-x="238" d="M 171 413 L 67 413 L 67 544 L 171 544 L 171 413 Z M 171 0 L 67 0 L 67 132 L 171 132 L 171 0 Z" unicode=":" />
<glyph horiz-adv-x="237" d="M 177 413 L 74 413 L 74 544 L 177 544 L 177 413 Z M 182 105 C 179 81 174 56 167 31 C 160 6 152 -17 142 -39 C 132 -61 121 -82 109 -100 C 97 -118 85 -133 73 -145 L -4 -110 C 4 -100 12 -88 22 -72 C 31 -56 40 -39 48 -20 C 56 -1 63 18 69 40 C 75 62 78 83 80 105 L 182 105 Z" unicode=";" />
<glyph horiz-adv-x="412" d="M 361 99 L 38 287 L 38 369 L 361 555 L 361 461 L 140 330 L 361 195 L 361 99 Z" unicode="&#x3C;" />
<glyph horiz-adv-x="493" d="M 443 386 L 51 386 L 51 474 L 443 474 L 443 386 Z M 443 171 L 51 171 L 51 259 L 443 259 L 443 171 Z" unicode="=" />
<glyph horiz-adv-x="412" d="M 372 287 L 48 99 L 48 195 L 269 330 L 48 462 L 48 555 L 372 369 L 372 287 Z" unicode="&#x3E;" />
<glyph horiz-adv-x="465" d="M 160 207 C 160 253 165 290 176 319 C 186 347 206 374 236 400 C 259 420 281 442 302 465 C 322 487 333 516 333 550 C 333 580 321 604 299 622 C 277 639 249 648 217 648 C 187 648 160 641 136 627 C 112 613 93 596 78 576 L 12 642 C 34 670 63 694 101 713 C 138 732 181 742 230 742 C 291 742 341 726 381 694 C 421 662 441 618 441 564 C 441 538 437 514 429 494 C 421 474 412 455 400 439 C 388 423 376 408 362 395 C 348 382 334 370 322 360 C 296 340 280 316 273 288 C 265 260 261 233 261 207 L 160 207 Z M 156 0 L 156 126 L 269 126 L 269 0 L 156 0 Z" unicode="?" />
<glyph horiz-adv-x="860" d="M 425 -34 C 370 -34 319 -24 273 -4 C 226 16 186 43 152 77 C 118 111 91 152 72 199 C 53 246 44 296 44 349 C 44 403 53 453 72 500 C 91 546 117 587 151 621 C 185 655 226 681 274 701 C 322 721 374 731 431 731 C 489 731 542 722 590 706 C 638 689 678 665 712 635 C 745 605 771 568 789 525 C 807 482 816 435 816 384 C 816 340 811 302 801 270 C 791 238 779 213 764 193 C 748 173 731 159 711 150 C 691 140 671 136 651 136 C 617 136 590 142 570 155 C 550 168 538 185 533 206 C 524 189 506 173 478 159 C 450 145 416 138 376 138 C 329 138 292 150 266 174 C 239 198 226 229 226 267 C 226 309 243 342 279 368 C 315 394 365 407 430 407 L 520 407 L 520 417 C 520 444 510 464 492 476 C 473 488 449 494 420 494 C 396 494 374 491 354 486 C 333 481 316 476 302 470 L 271 541 C 289 549 312 557 340 564 C 368 570 397 574 426 574 C 480 574 523 560 555 534 C 587 508 603 465 603 405 L 603 264 C 603 250 607 237 616 225 C 624 213 639 207 660 207 C 670 207 680 209 690 214 C 700 218 710 227 718 239 C 726 251 733 269 739 291 C 744 313 747 341 747 376 C 747 417 739 455 725 491 C 711 527 690 558 663 584 C 636 610 603 631 564 646 C 524 661 480 669 431 669 C 383 669 339 660 300 644 C 260 628 227 605 200 577 C 172 549 151 515 136 476 C 120 437 113 395 113 351 C 113 307 120 265 136 225 C 152 185 174 151 202 122 C 230 93 263 70 301 53 C 339 36 381 28 427 28 C 449 28 473 30 497 36 C 521 41 545 49 569 61 L 595 3 C 568 -9 540 -19 511 -25 C 482 -31 453 -34 425 -34 Z M 411 211 C 435 211 458 216 479 226 C 499 236 513 247 520 257 L 520 344 L 437 344 C 399 344 371 338 352 326 C 332 314 323 298 323 277 C 323 255 330 238 345 227 C 359 216 381 211 411 211 Z" unicode="@" />
<glyph horiz-adv-x="601" d="M 601 0 L 488 0 L 424 178 L 167 178 L 107 0 L 0 0 L 265 733 L 339 733 L 601 0 Z M 403 260 L 295 565 L 189 260 L 403 260 Z" unicode="A" />
<glyph horiz-adv-x="569" d="M 81 0 L 81 730 L 298 730 C 358 730 407 714 443 684 C 479 653 497 610 497 554 C 497 506 484 466 459 436 C 433 406 402 387 364 381 C 383 379 403 374 423 366 C 443 358 462 347 478 333 C 494 318 507 300 517 278 C 527 256 533 230 533 200 C 533 140 511 91 469 55 C 427 18 373 0 307 0 L 81 0 Z M 184 412 L 275 412 C 296 412 314 415 329 423 C 344 430 356 439 366 451 C 375 463 382 476 386 491 C 390 506 393 521 393 536 C 393 568 382 593 361 613 C 339 633 310 643 272 643 L 184 643 L 184 412 Z M 186 87 L 297 87 C 341 87 372 99 392 124 C 412 148 422 178 422 212 C 422 246 410 274 386 294 C 362 314 331 325 293 325 L 186 325 L 186 87 Z" unicode="B" />
<glyph horiz-adv-x="675" d="M 366 -10 C 321 -10 279 -1 239 15 C 199 31 165 56 136 88 C 107 120 84 159 67 206 C 50 252 42 305 42 365 C 42 421 49 473 65 519 C 81 565 103 605 131 638 C 159 670 194 695 234 713 C 274 731 319 740 367 740 C 431 740 484 728 527 704 C 570 680 605 646 631 602 L 542 545 C 523 573 500 596 474 614 C 447 632 412 641 368 641 C 300 641 247 617 209 571 C 171 524 152 456 152 367 C 152 318 158 276 171 241 C 183 205 200 176 221 154 C 241 131 265 114 292 103 C 319 92 347 87 376 87 C 421 87 458 97 488 118 C 518 138 542 165 561 199 L 645 146 C 621 100 585 63 538 34 C 490 4 433 -10 366 -10 Z" unicode="C" />
<glyph horiz-adv-x="681" d="M 81 0 L 81 730 L 288 730 C 344 730 393 721 437 704 C 481 687 518 663 548 632 C 578 601 600 563 616 519 C 632 475 640 426 640 373 C 640 320 632 271 616 225 C 600 179 577 140 547 107 C 517 73 479 47 433 28 C 387 9 335 0 275 0 L 81 0 Z M 191 90 L 275 90 C 318 90 355 97 387 111 C 419 125 445 145 465 170 C 485 195 501 225 511 260 C 521 294 526 332 526 372 C 526 456 504 521 462 569 C 420 617 361 641 286 641 L 191 641 L 191 90 Z" unicode="D" />
<glyph horiz-adv-x="527" d="M 487 0 L 81 0 L 81 730 L 468 730 L 468 634 L 189 634 L 189 412 L 454 412 L 454 318 L 189 318 L 189 96 L 487 96 L 487 0 Z" unicode="E" />
<glyph horiz-adv-x="477" d="M 446 634 L 191 634 L 191 414 L 432 414 L 432 321 L 191 321 L 191 0 L 81 0 L 81 730 L 446 730 L 446 634 Z" unicode="F" />
<glyph horiz-adv-x="710" d="M 375 369 L 664 369 L 664 142 C 638 96 599 59 549 31 C 498 3 440 -10 374 -10 C 328 -10 284 -1 244 16 C 203 33 168 58 138 90 C 108 122 85 162 68 208 C 50 254 42 307 42 365 C 42 422 50 474 67 520 C 84 566 107 606 137 638 C 167 670 202 695 243 713 C 283 731 327 740 374 740 C 441 740 495 728 535 704 C 575 680 606 654 627 624 L 550 551 C 532 574 510 595 483 613 C 456 631 420 640 374 640 C 342 640 313 634 286 623 C 258 611 235 594 215 572 C 195 549 179 520 168 486 C 156 451 151 411 151 366 C 151 320 156 279 168 243 C 180 207 196 178 216 154 C 236 130 260 111 288 99 C 315 86 344 80 376 80 C 418 80 456 88 490 104 C 524 120 548 143 564 174 L 564 276 L 375 276 L 375 369 Z" unicode="G" />
<glyph horiz-adv-x="690" d="M 608 0 L 498 0 L 498 314 L 191 314 L 191 0 L 81 0 L 81 730 L 191 730 L 191 407 L 498 407 L 498 730 L 608 730 L 608 0 Z" unicode="H" />
<glyph horiz-adv-x="280" d="M 195 0 L 85 0 L 85 730 L 195 730 L 195 0 Z" unicode="I" />
<glyph horiz-adv-x="388" d="M 310 730 L 310 191 C 310 163 305 137 296 113 C 287 88 274 66 257 48 C 240 30 219 15 194 5 C 168 -5 139 -11 107 -11 C 90 -11 71 -9 50 -6 C 28 -2 12 3 1 11 L 36 97 C 41 94 49 92 60 90 C 71 88 82 87 93 87 C 127 87 153 98 172 120 C 190 142 200 169 200 200 L 200 730 L 310 730 Z" unicode="J" />
<glyph horiz-adv-x="621" d="M 615 0 L 485 0 L 267 322 L 191 228 L 191 0 L 81 0 L 81 730 L 191 730 L 191 363 L 465 730 L 583 730 L 340 407 L 615 0 Z" unicode="K" />
<glyph horiz-adv-x="480" d="M 470 0 L 81 0 L 81 730 L 191 730 L 191 96 L 470 96 L 470 0 Z" unicode="L" />
<glyph horiz-adv-x="831" d="M 750 0 L 647 0 L 647 509 L 440 163 L 394 163 L 182 509 L 182 0 L 81 0 L 81 730 L 165 730 L 420 299 L 668 730 L 750 730 L 750 0 Z" unicode="M" />
<glyph horiz-adv-x="705" d="M 624 0 L 545 0 L 184 516 L 184 0 L 81 0 L 81 730 L 163 730 L 524 215 L 524 730 L 624 730 L 624 0 Z" unicode="N" />
<glyph horiz-adv-x="750" d="M 378 -10 C 327 -10 281 0 240 17 C 198 35 163 61 134 95 C 104 128 82 168 66 215 C 50 262 42 314 42 370 C 42 425 50 475 67 521 C 83 567 106 606 135 638 C 164 670 199 695 239 713 C 279 731 323 740 371 740 C 421 740 467 731 509 713 C 551 695 586 670 616 638 C 646 606 669 566 685 520 C 701 474 709 423 709 367 C 709 310 700 258 683 212 C 665 165 642 125 612 93 C 582 60 547 35 507 17 C 467 -1 424 -10 378 -10 Z M 383 82 C 414 82 443 88 469 100 C 495 112 518 130 538 154 C 557 178 572 207 583 243 C 593 279 599 320 599 366 C 599 409 593 448 581 482 C 569 516 553 546 533 570 C 513 594 488 612 460 625 C 431 638 400 645 367 645 C 303 645 252 621 212 574 C 172 527 152 459 152 370 C 152 324 158 283 170 247 C 182 211 198 180 219 156 C 239 132 264 113 292 101 C 320 88 351 82 383 82 Z" unicode="O" />
<glyph horiz-adv-x="562" d="M 81 0 L 81 730 L 318 730 C 349 730 378 725 405 715 C 431 705 454 692 474 674 C 494 656 509 633 520 607 C 531 580 537 550 537 517 C 537 450 516 396 476 354 C 435 312 383 292 319 292 L 191 292 L 191 0 L 81 0 Z M 190 382 L 302 382 C 342 382 372 394 394 418 C 415 442 426 475 426 517 C 426 558 413 589 388 610 C 363 630 332 641 296 641 L 190 641 L 190 382 Z" unicode="P" />
<glyph horiz-adv-x="750" d="M 640 -85 L 640 -185 C 582 -182 527 -166 475 -136 C 423 -106 383 -63 355 -6 C 307 -3 263 7 225 26 C 186 44 153 70 126 102 C 99 134 78 173 64 219 C 49 264 42 314 42 370 C 42 424 50 473 66 519 C 82 565 105 604 134 636 C 163 668 198 694 239 712 C 279 730 324 740 372 740 C 422 740 467 731 509 714 C 551 696 586 671 616 639 C 645 607 668 567 684 521 C 700 475 709 423 709 365 C 709 319 703 277 691 238 C 679 198 663 163 642 132 C 621 101 596 75 567 53 C 537 31 505 16 470 6 C 492 -26 518 -49 549 -62 C 580 -75 610 -83 640 -85 Z M 421 195 C 421 174 422 155 424 137 C 426 119 430 103 434 89 C 482 101 522 130 553 177 C 583 224 599 286 599 364 C 599 410 592 450 580 486 C 568 521 551 550 530 574 C 509 597 484 614 456 626 C 428 638 398 644 367 644 C 303 644 251 621 211 575 C 171 529 152 461 152 372 C 152 292 168 229 201 181 C 234 133 275 102 323 89 C 319 105 317 122 315 140 C 313 158 313 176 313 195 L 421 195 Z" unicode="Q" />
<glyph horiz-adv-x="572" d="M 81 0 L 81 730 L 292 730 C 321 730 348 725 374 717 C 399 708 421 695 440 679 C 458 662 473 641 484 616 C 494 591 500 563 500 531 C 500 501 496 475 488 451 C 480 427 469 407 455 390 C 441 373 426 359 408 349 C 390 339 371 332 352 330 L 350 325 L 557 0 L 433 0 L 249 302 L 188 302 L 188 0 L 81 0 Z M 186 392 L 268 392 C 303 392 332 402 356 424 C 380 446 392 477 392 519 C 392 559 380 589 358 610 C 336 630 308 641 274 641 L 186 641 L 186 392 Z" unicode="R" />
<glyph horiz-adv-x="544" d="M 275 -10 C 220 -10 173 -2 133 13 C 93 28 59 50 33 79 L 105 158 C 122 134 146 115 178 101 C 209 86 242 79 276 79 C 308 79 335 88 359 106 C 382 124 394 148 394 178 C 394 208 383 234 363 255 C 342 276 305 299 251 325 C 215 340 185 355 160 371 C 135 386 115 402 99 420 C 83 437 72 457 65 479 C 58 501 55 527 55 557 C 55 613 75 657 115 690 C 155 723 207 740 270 740 C 319 740 360 732 394 716 C 427 700 454 683 476 664 L 412 582 C 391 599 368 613 343 625 C 318 636 292 642 264 642 C 234 642 209 634 189 619 C 169 604 159 583 159 555 C 159 524 170 499 193 481 C 215 462 255 439 311 413 C 380 381 428 349 456 316 C 484 283 498 240 498 186 C 498 154 492 126 480 102 C 468 78 451 57 431 41 C 411 24 387 11 360 3 C 332 -5 304 -10 275 -10 Z" unicode="S" />
<glyph horiz-adv-x="500" d="M 491 634 L 303 634 L 303 0 L 193 0 L 193 634 L 9 634 L 9 730 L 491 730 L 491 634 Z" unicode="T" />
<glyph horiz-adv-x="688" d="M 611 730 L 611 251 C 611 208 603 170 589 138 C 575 105 555 78 531 56 C 506 34 477 18 445 7 C 412 -4 378 -10 342 -10 C 306 -10 272 -4 240 6 C 208 16 180 32 156 54 C 132 75 112 102 98 135 C 84 168 77 207 77 251 L 77 730 L 185 730 L 185 252 C 185 198 200 158 231 130 C 261 102 298 88 342 88 C 385 88 422 101 454 128 C 485 155 501 196 501 252 L 501 730 L 611 730 Z" unicode="U" />
<glyph horiz-adv-x="604" d="M 604 730 L 336 -5 L 261 -5 L 0 730 L 116 730 L 301 179 L 494 730 L 604 730 Z" unicode="V" />
<glyph horiz-adv-x="857" d="M 843 730 L 644 -4 L 576 -4 L 427 531 L 272 -4 L 203 -4 L 8 730 L 118 730 L 250 208 L 395 730 L 466 730 L 612 206 L 744 730 L 843 730 Z" unicode="W" />
<glyph horiz-adv-x="573" d="M 444 0 L 284 279 L 123 0 L 12 0 L 229 375 L 25 730 L 145 730 L 288 479 L 433 730 L 544 730 L 344 383 L 563 0 L 444 0 Z" unicode="X" />
<glyph horiz-adv-x="602" d="M 604 730 L 353 308 L 353 0 L 243 0 L 243 312 L -2 730 L 123 730 L 304 413 L 492 730 L 604 730 Z" unicode="Y" />
<glyph horiz-adv-x="536" d="M 506 730 L 506 680 L 161 95 L 518 95 L 518 0 L 18 0 L 18 48 L 359 634 L 47 634 L 47 730 L 506 730 Z" unicode="Z" />
<glyph horiz-adv-x="313" d="M 281 -179 L 83 -179 L 83 730 L 281 730 L 281 647 L 180 647 L 180 -93 L 281 -93 L 281 -179 Z" unicode="[" />
<glyph horiz-adv-x="322" d="M 2 730 L 93 730 L 320 0 L 228 0 L 2 730 Z" unicode="\" />
<glyph horiz-adv-x="305" d="M 225 -179 L 33 -179 L 33 -97 L 128 -97 L 128 648 L 33 648 L 33 730 L 225 730 L 225 -179 Z" unicode="]" />
<glyph horiz-adv-x="488" d="M 434 369 L 345 369 L 241 622 L 141 369 L 54 369 L 198 730 L 285 730 L 434 369 Z" unicode="^" />
<glyph horiz-adv-x="475" d="M 475 -160 L 0 -160 L 0 -78 L 475 -78 L 475 -160 Z" unicode="_" />
<glyph horiz-adv-x="500" d="M 353 597 L 252 597 L 135 763 L 254 763 L 353 597 Z" unicode="`" />
<glyph horiz-adv-x="527" d="M 466 0 L 372 0 L 372 65 C 353 41 330 23 302 11 C 274 0 239 -7 199 -7 C 148 -7 108 7 78 36 C 48 65 33 105 33 155 C 33 215 53 261 95 292 C 137 322 192 340 262 345 L 367 352 L 367 370 C 367 402 357 427 339 443 C 320 459 294 467 260 467 C 230 467 201 461 175 451 C 148 440 124 427 103 413 L 65 491 C 88 508 117 523 153 537 C 189 550 230 557 276 557 C 334 557 381 542 415 513 C 449 484 466 439 466 378 L 466 0 Z M 369 137 L 369 276 L 262 270 C 226 268 196 258 172 241 C 148 223 137 197 137 162 C 137 132 146 110 165 95 C 184 79 208 72 236 72 C 264 72 289 78 313 90 C 336 102 355 118 369 137 Z" unicode="a" />
<glyph horiz-adv-x="582" d="M 334 -6 C 288 -6 251 5 223 27 C 195 49 176 75 166 106 L 166 0 L 70 0 L 70 800 L 164 800 L 164 426 C 174 460 193 490 223 515 C 252 539 291 552 339 552 C 401 552 451 527 489 479 C 527 430 547 365 547 284 C 547 238 541 197 530 161 C 518 125 503 94 484 70 C 465 45 443 26 417 13 C 391 0 363 -6 334 -6 Z M 305 80 C 345 80 378 97 404 133 C 429 168 442 215 442 275 C 442 334 430 380 406 414 C 382 447 348 464 304 464 C 266 464 233 448 206 418 C 178 387 165 337 165 267 C 165 201 178 153 204 124 C 230 94 264 80 305 80 Z" unicode="b" />
<glyph horiz-adv-x="515" d="M 422 159 L 492 102 C 474 75 449 50 417 26 C 385 2 341 -9 286 -9 C 248 -9 214 -2 183 11 C 152 25 126 44 104 68 C 82 92 65 122 53 157 C 41 191 35 229 35 271 C 35 311 41 348 53 383 C 65 417 82 447 104 472 C 126 497 153 517 184 532 C 215 546 250 554 288 554 C 316 554 342 550 364 543 C 386 535 406 526 423 514 C 439 502 453 489 465 474 C 476 458 485 443 491 428 L 408 384 C 398 404 383 422 363 438 C 343 454 317 462 285 462 C 241 462 206 444 180 408 C 154 372 141 328 141 274 C 141 213 154 166 182 132 C 210 98 246 82 292 82 C 328 82 356 90 376 107 C 396 124 411 141 422 159 Z" unicode="c" />
<glyph horiz-adv-x="587" d="M 255 -9 C 191 -9 138 16 97 67 C 55 117 35 185 35 271 C 35 312 41 350 53 385 C 65 419 81 449 101 474 C 121 498 145 518 173 532 C 200 546 229 553 261 553 C 297 553 329 542 359 520 C 388 498 408 472 419 442 L 419 800 L 517 800 L 517 0 L 424 0 L 424 105 C 420 93 413 80 403 67 C 393 53 381 41 367 30 C 353 18 336 9 317 2 C 298 -5 277 -9 255 -9 Z M 279 77 C 322 77 356 94 381 130 C 406 165 419 214 419 276 C 419 342 405 390 378 420 C 350 450 318 465 282 465 C 238 465 204 448 179 414 C 153 380 141 333 141 272 C 141 212 153 164 177 129 C 201 94 235 77 279 77 Z" unicode="d" />
<glyph horiz-adv-x="553" d="M 285 -9 C 249 -9 215 -2 184 10 C 153 22 127 41 105 65 C 83 89 65 118 53 153 C 41 187 35 226 35 270 C 35 311 41 349 53 384 C 65 418 83 448 105 473 C 127 498 153 518 183 532 C 213 546 245 553 281 553 C 355 553 413 525 456 470 C 498 414 520 338 520 240 L 137 240 C 137 218 141 198 148 179 C 155 160 165 143 178 129 C 191 115 207 103 226 95 C 244 87 265 83 289 83 C 326 83 356 90 380 104 C 404 118 423 135 438 153 L 496 86 C 474 61 447 39 414 20 C 380 0 337 -9 285 -9 Z M 136 315 L 416 315 C 415 361 402 397 377 425 C 351 452 319 466 280 466 C 240 466 206 451 180 423 C 153 394 138 358 136 315 Z" unicode="e" />
<glyph horiz-adv-x="323" d="M 310 456 L 198 456 L 198 0 L 95 0 L 95 456 L 11 456 L 11 544 L 95 544 L 95 646 C 95 670 99 691 107 711 C 115 731 126 747 140 761 C 154 774 170 784 188 792 C 206 799 225 803 245 803 C 265 803 284 800 302 795 C 320 790 335 784 348 776 L 320 695 C 313 697 304 700 294 703 C 283 706 271 708 259 708 C 240 708 225 700 214 684 C 202 668 197 647 197 623 L 197 544 L 310 544 L 310 456 Z" unicode="f" />
<glyph horiz-adv-x="582" d="M 254 9 C 190 9 138 33 97 83 C 56 132 36 197 36 277 C 36 360 56 427 98 477 C 139 527 192 552 256 552 C 297 552 333 541 363 520 C 393 499 413 473 424 442 L 424 544 L 516 544 L 516 54 C 516 10 508 -28 492 -60 C 476 -92 456 -118 431 -139 C 406 -159 378 -175 346 -185 C 314 -195 283 -200 253 -200 C 202 -200 162 -195 133 -186 C 104 -176 82 -167 68 -159 L 110 -75 C 122 -82 140 -90 163 -98 C 186 -106 213 -111 245 -111 C 293 -111 334 -96 368 -68 C 401 -39 418 2 418 57 L 418 131 C 413 117 406 102 397 88 C 387 74 376 61 362 49 C 348 37 331 27 313 20 C 295 12 275 9 254 9 Z M 282 94 C 299 94 316 97 333 105 C 349 112 364 123 377 139 C 389 154 399 174 407 198 C 415 222 419 250 419 283 C 419 341 406 385 380 415 C 354 445 321 461 283 461 C 241 461 207 444 181 412 C 155 379 142 333 142 273 C 142 215 154 170 179 140 C 203 109 238 94 282 94 Z" unicode="g" />
<glyph horiz-adv-x="564" d="M 499 0 L 398 0 L 398 378 C 398 405 388 426 369 442 C 349 458 325 466 297 466 C 281 466 266 463 251 459 C 236 455 223 448 211 439 C 199 429 190 417 183 403 C 175 389 172 372 172 353 L 172 0 L 70 0 L 70 800 L 164 800 L 164 455 C 172 483 190 507 220 526 C 250 544 287 554 331 554 C 353 554 375 550 396 544 C 416 538 434 528 449 516 C 464 504 476 488 485 470 C 494 452 499 431 499 407 L 499 0 Z" unicode="h" />
<glyph horiz-adv-x="247" d="M 70 647 L 70 753 L 177 753 L 177 647 L 70 647 Z M 72 0 L 72 544 L 175 544 L 175 0 L 72 0 Z" unicode="i" />
<glyph horiz-adv-x="281" d="M 216 647 L 110 647 L 110 753 L 216 753 L 216 647 Z M 214 544 L 214 -20 C 214 -74 199 -115 170 -145 C 141 -175 106 -190 64 -190 C 40 -190 16 -186 -6 -180 C -28 -174 -46 -166 -60 -157 L -27 -82 C -17 -86 -6 -90 7 -94 C 20 -98 35 -100 52 -100 C 68 -100 82 -91 94 -75 C 106 -58 112 -37 112 -12 L 112 544 L 214 544 Z" unicode="j" />
<glyph horiz-adv-x="518" d="M 536 2 L 422 -1 L 254 237 L 172 145 L 172 0 L 70 0 L 70 800 L 170 800 L 170 259 L 392 544 L 501 544 L 322 314 L 536 2 Z" unicode="k" />
<glyph horiz-adv-x="281" d="M 65 124 L 65 800 L 167 800 L 167 152 C 167 131 172 115 182 103 C 192 91 208 86 229 86 C 235 86 243 86 251 87 C 259 88 265 89 270 91 L 276 4 C 269 1 259 -1 246 -3 C 232 -5 219 -6 205 -6 C 168 -6 135 4 107 26 C 79 48 65 80 65 124 Z" unicode="l" />
<glyph horiz-adv-x="883" d="M 70 0 L 70 544 L 160 544 L 160 444 C 170 478 191 505 225 525 C 258 544 294 554 333 554 C 371 554 405 544 434 526 C 462 507 479 480 484 444 L 488 444 C 496 476 515 503 546 523 C 577 543 613 554 653 554 C 699 554 738 541 770 517 C 802 492 818 456 818 408 L 818 0 L 716 0 L 716 373 C 716 405 706 429 686 444 C 666 458 642 466 614 466 C 600 466 585 463 571 459 C 557 454 544 447 533 438 C 522 428 513 416 506 402 C 498 387 495 370 495 350 L 495 0 L 393 0 L 393 378 C 393 406 383 428 363 443 C 343 458 319 466 291 466 C 276 466 261 463 247 459 C 233 454 220 447 209 437 C 198 427 189 414 182 400 C 175 385 172 368 172 348 L 172 0 L 70 0 Z" unicode="m" />
<glyph horiz-adv-x="564" d="M 499 0 L 397 0 L 397 380 C 397 407 387 428 367 443 C 347 458 324 466 298 466 C 283 466 268 463 253 459 C 238 455 225 448 213 439 C 201 429 191 417 183 403 C 175 388 172 371 172 352 L 172 0 L 70 0 L 70 544 L 158 544 L 158 443 C 168 475 189 502 220 523 C 251 543 289 554 333 554 C 355 554 377 550 397 544 C 417 538 435 529 450 517 C 465 505 477 490 486 472 C 494 454 499 435 499 413 L 499 0 Z" unicode="n" />
<glyph horiz-adv-x="572" d="M 283 -9 C 249 -9 218 -2 188 9 C 158 21 131 39 109 63 C 86 86 68 115 55 150 C 41 185 35 225 35 270 C 35 311 41 349 54 384 C 67 419 85 449 107 474 C 129 499 156 519 186 533 C 216 547 249 554 283 554 C 319 554 352 547 384 535 C 415 523 442 505 465 482 C 487 459 505 431 518 397 C 531 363 538 326 538 285 C 538 241 531 200 518 164 C 505 128 487 97 464 72 C 441 46 414 26 383 12 C 352 -1 319 -9 283 -9 Z M 287 82 C 331 82 366 99 392 134 C 418 168 432 216 432 278 C 432 336 418 381 391 413 C 363 445 327 462 282 462 C 240 462 206 445 180 411 C 154 377 141 331 141 271 C 141 207 155 159 183 128 C 211 97 245 82 287 82 Z" unicode="o" />
<glyph horiz-adv-x="583" d="M 70 -197 L 70 544 L 160 544 L 160 421 C 168 457 188 487 219 513 C 249 539 288 552 336 552 C 401 552 453 527 491 479 C 529 431 548 366 548 284 C 548 194 527 123 487 72 C 446 20 394 -5 332 -5 C 291 -5 256 4 228 24 C 200 44 180 68 170 98 L 170 -197 L 70 -197 Z M 304 80 C 344 80 377 97 403 131 C 429 165 442 213 442 274 C 442 330 430 375 408 411 C 385 446 351 464 306 464 C 266 464 232 448 205 418 C 178 388 165 338 165 268 C 165 198 178 150 205 122 C 231 94 264 80 304 80 Z" unicode="p" />
<glyph horiz-adv-x="586" d="M 416 -197 L 416 108 C 410 94 402 80 392 66 C 382 52 370 40 356 29 C 342 18 325 9 307 2 C 289 -4 269 -8 247 -8 C 185 -8 134 16 94 66 C 54 115 35 180 35 262 C 35 308 40 349 52 385 C 64 421 80 451 100 476 C 120 500 144 519 172 532 C 200 545 229 552 261 552 C 282 552 302 548 320 541 C 338 533 355 524 369 513 C 383 501 395 488 405 474 C 415 460 422 445 426 431 L 426 544 L 516 544 L 516 -197 L 416 -197 Z M 280 77 C 320 77 353 93 379 127 C 405 160 419 209 419 275 C 419 339 405 386 379 417 C 352 448 319 464 279 464 C 236 464 202 447 178 413 C 153 379 141 332 141 270 C 141 212 153 165 178 130 C 203 94 237 77 280 77 Z" unicode="q" />
<glyph horiz-adv-x="420" d="M 425 524 L 377 432 C 367 442 356 449 342 454 C 328 459 313 462 295 462 C 280 462 265 459 251 453 C 236 447 223 439 211 428 C 199 416 190 402 183 386 C 175 369 172 350 172 329 L 172 0 L 70 0 L 70 544 L 164 544 L 164 437 C 172 467 190 494 219 518 C 248 542 283 554 325 554 C 347 554 367 551 384 545 C 401 539 415 532 425 524 Z" unicode="r" />
<glyph horiz-adv-x="448" d="M 240 -9 C 194 -9 154 -2 118 10 C 82 23 53 40 31 62 L 79 132 C 99 115 122 101 150 91 C 178 80 205 75 232 75 C 255 75 275 81 292 95 C 309 108 318 125 318 147 C 318 166 309 183 291 197 C 273 211 242 227 198 243 C 146 261 108 283 86 310 C 64 337 53 371 53 411 C 53 453 69 487 103 514 C 136 540 178 554 228 554 C 273 554 310 548 339 536 C 367 524 390 512 406 500 L 369 420 C 350 432 330 444 308 454 C 286 464 262 469 237 469 C 214 469 194 463 177 453 C 159 442 151 427 151 409 C 151 390 158 375 172 363 C 186 351 217 337 263 319 C 317 298 356 275 380 249 C 404 223 417 190 417 148 C 417 122 412 100 402 80 C 392 60 379 44 363 31 C 347 18 328 8 307 1 C 285 -5 263 -9 240 -9 Z" unicode="s" />
<glyph horiz-adv-x="337" d="M 310 106 L 328 23 C 317 14 302 7 284 2 C 265 -2 244 -5 222 -5 C 183 -5 150 7 122 32 C 94 57 81 95 81 147 L 81 458 L 10 458 L 10 544 L 82 544 L 82 674 L 181 687 L 181 544 L 307 544 L 307 458 L 182 458 L 182 154 C 182 133 187 117 197 105 C 207 93 221 87 240 87 C 254 87 268 89 281 94 C 293 98 303 102 310 106 Z" unicode="t" />
<glyph horiz-adv-x="564" d="M 65 544 L 167 544 L 167 187 C 167 147 177 119 198 102 C 218 84 245 76 278 76 C 308 76 335 86 358 107 C 380 128 392 158 392 196 L 392 544 L 494 544 L 494 0 L 403 0 L 403 97 C 394 69 375 45 346 23 C 316 1 279 -10 235 -10 C 212 -10 190 -6 170 0 C 149 6 131 16 115 30 C 99 43 87 60 78 80 C 69 100 65 124 65 151 L 65 544 Z" unicode="u" />
<glyph horiz-adv-x="482" d="M 488 544 L 275 -3 L 205 -3 L -6 544 L 104 544 L 244 166 L 385 544 L 488 544 Z" unicode="v" />
<glyph horiz-adv-x="703" d="M 468 -3 L 358 320 L 235 -3 L 169 -3 L 2 544 L 104 544 L 216 159 L 327 473 L 395 473 L 497 162 L 607 544 L 702 544 L 534 -3 L 468 -3 Z" unicode="w" />
<glyph horiz-adv-x="448" d="M 342 0 L 221 199 L 97 0 L 0 0 L 173 279 L 12 544 L 119 544 L 227 366 L 337 544 L 436 544 L 275 286 L 448 0 L 342 0 Z" unicode="x" />
<glyph horiz-adv-x="488" d="M 492 544 L 244 -80 C 226 -123 202 -154 172 -172 C 142 -190 111 -200 81 -200 C 59 -200 42 -197 28 -192 C 14 -187 4 -183 -1 -181 L 35 -96 C 38 -98 44 -101 53 -104 C 62 -106 71 -108 81 -108 C 97 -108 111 -102 125 -91 C 138 -79 150 -61 161 -37 L 192 41 L -5 544 L 103 544 L 245 165 L 390 544 L 492 544 Z" unicode="y" />
<glyph horiz-adv-x="436" d="M 408 544 L 408 499 L 157 90 L 426 90 L 426 0 L 16 0 L 16 42 L 269 454 L 28 454 L 28 544 L 408 544 Z" unicode="z" />
<glyph horiz-adv-x="269" d="M 261 -179 C 229 -179 199 -174 172 -166 C 145 -158 122 -147 102 -133 C 82 -119 67 -103 56 -84 C 44 -65 39 -45 39 -24 C 39 2 41 25 47 47 C 53 68 59 86 66 102 C 73 118 80 133 87 147 C 93 161 97 174 97 187 C 97 201 88 215 71 228 C 54 241 33 248 7 248 L 7 323 C 33 323 55 330 73 344 C 91 358 100 373 100 391 C 100 393 96 403 89 419 C 82 435 74 452 66 471 C 57 489 50 508 46 526 C 42 544 40 562 40 579 C 40 600 45 621 56 641 C 67 661 82 679 102 695 C 122 711 145 724 172 734 C 199 744 229 749 261 749 L 261 675 C 227 674 200 663 178 643 C 156 623 145 599 145 572 C 145 563 146 552 148 539 C 150 525 154 512 161 498 C 171 477 180 458 188 441 C 196 424 201 410 201 399 C 200 373 191 349 175 329 C 159 308 134 293 100 285 C 135 276 160 261 176 240 C 192 219 200 198 200 176 C 200 157 197 141 189 127 C 181 113 174 99 167 85 C 159 71 153 57 149 41 C 145 25 144 10 144 -2 C 144 -13 146 -25 152 -37 C 157 -49 165 -60 175 -70 C 185 -80 198 -88 212 -95 C 226 -101 243 -105 261 -105 L 261 -179 Z" unicode="{" />
<glyph horiz-adv-x="251" d="M 173 -179 L 77 -179 L 77 730 L 173 730 L 173 -179 Z" unicode="|" />
<glyph horiz-adv-x="269" d="M 8 -179 L 8 -105 C 26 -105 42 -101 56 -95 C 70 -88 83 -80 93 -70 C 103 -60 111 -49 117 -37 C 122 -25 125 -13 125 -2 C 125 10 124 24 120 40 C 116 56 110 71 102 85 C 94 99 87 113 80 127 C 72 141 69 157 69 176 C 69 198 76 219 92 240 C 108 261 133 276 168 285 C 134 293 109 308 93 329 C 77 349 69 373 69 399 C 69 410 73 424 81 441 C 89 458 98 477 108 498 C 114 512 119 525 121 539 C 123 552 125 563 125 572 C 124 599 113 623 91 643 C 69 663 41 674 8 675 L 8 749 C 40 749 69 744 96 734 C 123 724 146 711 166 695 C 186 679 201 661 212 641 C 223 621 229 600 229 579 C 229 562 226 544 222 526 C 218 508 211 489 203 471 C 194 452 186 435 179 419 C 172 403 169 393 169 391 C 169 373 178 358 196 344 C 214 330 236 323 263 323 L 263 248 C 236 248 214 241 197 228 C 180 215 172 201 172 187 C 172 174 175 161 182 147 C 188 133 195 118 203 102 C 209 86 215 68 221 47 C 227 25 230 2 230 -24 C 230 -45 224 -65 213 -84 C 201 -103 186 -119 166 -133 C 146 -147 123 -158 96 -166 C 69 -174 40 -179 8 -179 Z" unicode="}" />
<glyph horiz-adv-x="484" d="M 369 443 L 456 443 C 455 386 446 343 428 313 C 410 283 383 269 347 269 C 323 269 302 273 284 282 C 266 291 251 301 239 312 C 226 322 213 332 201 340 C 189 348 176 352 163 352 C 150 352 139 344 129 330 C 119 316 114 296 114 272 L 29 272 C 29 330 38 373 57 403 C 76 432 101 447 132 447 C 158 447 181 442 201 433 C 221 424 239 413 255 401 C 267 391 279 383 291 375 C 303 367 316 363 331 363 C 347 363 358 369 362 383 C 366 396 369 416 369 443 Z" unicode="~" />
<glyph horiz-adv-x="292" d="M 92 609 L 201 609 L 201 497 L 92 497 L 92 609 Z M 87 180 L 122 400 L 173 400 L 205 180 L 205 -115 L 87 -115 L 87 180 Z" unicode="¡" />
<glyph horiz-adv-x="503" d="M 487 194 C 470 172 448 150 422 130 C 396 109 359 96 313 92 L 313 -19 L 241 -19 L 241 93 C 180 101 131 128 94 174 C 56 220 38 277 38 345 C 38 377 42 408 52 438 C 62 467 75 493 93 515 C 111 537 132 556 157 572 C 182 587 210 597 241 602 L 241 708 L 313 708 L 313 605 C 358 600 395 587 425 565 C 454 543 475 520 489 494 L 421 445 C 409 462 395 477 378 491 C 360 505 339 513 313 517 L 313 178 C 343 181 366 190 384 205 C 402 220 416 235 426 251 L 487 194 Z M 140 349 C 140 307 149 271 167 243 C 185 214 210 195 241 185 L 241 512 C 209 501 185 481 167 452 C 149 422 140 388 140 349 Z" unicode="¢" />
<glyph horiz-adv-x="564" d="M 549 79 L 549 0 L 27 0 L 27 61 C 33 64 41 67 53 70 C 64 72 79 76 98 80 C 125 84 150 96 174 116 C 198 135 210 162 210 196 C 210 198 210 201 210 203 C 210 205 209 207 209 210 L 43 210 L 43 283 L 176 283 C 169 295 162 307 154 320 C 146 333 138 347 130 361 L 43 361 L 43 434 L 97 434 C 91 450 86 468 82 487 C 78 505 77 525 77 545 C 77 581 83 612 97 638 C 110 663 127 683 149 699 C 171 714 196 725 225 732 C 253 738 283 742 314 742 C 363 742 409 733 451 715 C 493 697 524 679 543 663 L 493 588 C 477 600 453 613 422 628 C 390 642 356 650 320 650 C 303 650 287 648 271 644 C 255 640 240 633 228 623 C 215 613 205 601 197 585 C 189 569 186 549 186 526 C 186 510 188 495 192 479 C 196 463 201 448 208 434 L 478 434 L 478 361 L 246 361 C 253 347 260 334 268 321 C 275 308 281 295 286 283 L 478 283 L 478 210 L 302 210 C 301 189 297 171 290 156 C 282 140 274 127 264 117 C 254 107 244 98 233 92 C 221 86 211 81 202 79 L 549 79 Z" unicode="£" />
<glyph horiz-adv-x="501" d="M 445 192 L 398 145 L 339 206 C 326 198 312 193 297 189 C 281 185 265 183 249 183 C 233 183 217 185 202 189 C 187 193 173 198 160 206 L 101 145 L 52 194 L 107 252 C 96 266 87 281 81 299 C 75 316 72 334 72 354 C 72 373 75 391 82 409 C 88 427 97 443 109 458 L 52 516 L 100 563 L 159 501 C 172 508 186 514 201 518 C 216 522 232 525 249 525 C 265 525 281 522 297 518 C 313 514 327 508 341 501 L 402 564 L 449 515 L 392 456 C 402 442 411 426 417 408 C 423 390 427 372 427 354 C 427 334 423 315 417 297 C 410 279 401 263 390 249 L 445 192 Z M 249 257 C 277 257 301 266 321 286 C 341 305 352 328 352 354 C 352 380 341 402 321 422 C 301 441 277 451 249 451 C 221 451 197 441 177 422 C 157 402 148 380 148 354 C 148 328 157 305 177 286 C 197 266 221 257 249 257 Z" unicode="¤" />
<glyph horiz-adv-x="599" d="M 527 124 L 352 124 L 352 0 L 242 0 L 242 124 L 69 124 L 69 197 L 242 197 L 242 257 L 69 257 L 69 329 L 238 329 L 20 730 L 137 730 L 302 418 L 469 730 L 579 730 L 358 329 L 526 329 L 526 257 L 352 257 L 352 197 L 527 197 L 527 124 Z" unicode="¥" />
<glyph horiz-adv-x="276" d="M 94 351 L 94 730 L 182 730 L 182 351 L 94 351 Z M 182 200 L 182 -179 L 94 -179 L 94 200 L 182 200 Z" unicode="¦" />
<glyph horiz-adv-x="630" d="M 333 -181 C 278 -181 226 -174 178 -161 C 130 -147 89 -129 57 -107 L 98 -22 C 128 -43 165 -61 207 -75 C 249 -89 289 -97 325 -97 C 358 -97 385 -89 406 -73 C 427 -57 438 -34 438 -6 C 438 20 429 40 411 54 C 393 68 369 81 338 94 L 227 143 C 197 155 170 167 147 178 C 124 189 105 201 90 214 C 74 227 63 242 55 260 C 47 277 44 298 44 323 C 44 353 51 379 66 399 C 81 419 99 437 121 451 C 102 463 88 479 80 499 C 71 519 67 543 67 573 C 67 599 73 623 85 644 C 97 665 114 683 135 697 C 156 711 181 722 211 730 C 240 738 272 742 306 742 C 366 742 415 733 453 717 C 491 700 523 682 549 664 L 502 586 C 473 606 443 623 412 639 C 381 654 345 662 303 662 C 266 662 235 654 211 638 C 186 622 174 600 174 573 C 174 553 181 536 195 522 C 209 508 232 496 262 486 L 408 425 C 465 403 508 380 538 356 C 568 331 583 296 583 250 C 583 216 571 188 549 166 C 527 144 501 129 473 123 C 480 119 488 113 497 105 C 505 97 513 88 521 78 C 529 67 535 55 540 41 C 545 27 548 11 548 -6 C 548 -33 542 -57 531 -79 C 520 -101 505 -119 486 -134 C 467 -149 444 -161 418 -169 C 392 -177 363 -181 333 -181 Z M 397 174 C 416 176 434 182 450 193 C 466 203 474 220 474 243 C 474 264 464 283 446 299 C 427 315 394 332 346 349 L 208 407 C 191 399 177 390 166 379 C 154 368 149 352 149 332 C 149 307 158 287 178 272 C 198 256 232 240 280 224 L 397 174 Z" unicode="§" />
<glyph horiz-adv-x="500" d="M 381 598 L 296 598 L 296 756 L 381 756 L 381 598 Z M 204 598 L 119 598 L 119 756 L 204 756 L 204 598 Z" unicode="¨" />
<glyph horiz-adv-x="839" d="M 420 0 C 369 0 321 9 276 29 C 230 49 191 75 158 109 C 124 142 98 181 78 227 C 58 272 49 320 49 371 C 49 421 58 469 78 515 C 98 560 124 599 158 633 C 191 666 230 692 276 712 C 321 732 369 742 420 742 C 470 742 518 732 564 712 C 609 692 648 666 682 633 C 715 599 741 560 761 515 C 780 469 790 421 790 371 C 790 320 780 272 761 227 C 741 181 715 142 682 109 C 648 75 609 49 564 29 C 518 9 470 0 420 0 Z M 420 65 C 462 65 501 73 538 89 C 575 105 607 126 635 154 C 662 182 684 214 700 251 C 716 288 724 328 724 370 C 724 412 716 451 700 489 C 684 526 662 558 635 586 C 607 614 575 636 538 652 C 501 668 462 677 420 677 C 378 677 338 668 301 652 C 264 636 232 614 204 586 C 176 558 155 526 139 489 C 123 451 115 412 115 370 C 115 328 123 288 139 251 C 155 214 176 182 204 154 C 232 126 264 105 301 89 C 338 73 378 65 420 65 Z M 588 241 C 572 216 551 195 523 179 C 495 162 460 154 419 154 C 393 154 369 158 345 168 C 321 177 299 191 281 209 C 263 227 248 249 237 276 C 226 303 221 334 221 369 C 221 403 226 434 236 462 C 246 490 259 513 277 532 C 295 551 315 566 339 576 C 363 586 388 592 415 592 C 459 592 494 584 521 569 C 548 554 569 535 585 511 L 515 460 C 505 474 492 485 477 495 C 462 504 442 509 418 509 C 386 509 360 495 340 468 C 319 441 309 407 309 367 C 309 323 320 290 343 267 C 366 243 392 232 421 232 C 443 232 462 237 479 247 C 496 257 510 270 521 287 L 588 241 Z" unicode="©" />
<glyph horiz-adv-x="485" d="M 431 290 L 347 290 L 347 350 C 331 328 309 312 281 301 C 253 289 222 284 189 284 C 142 284 105 296 79 321 C 52 345 39 379 39 423 C 39 470 57 506 94 532 C 131 557 182 571 247 574 L 346 580 L 346 587 C 346 609 337 627 320 639 C 302 651 278 658 246 658 C 219 658 193 653 168 644 C 142 635 119 624 98 611 L 66 682 C 88 698 116 712 149 724 C 181 736 218 742 260 742 C 312 742 354 729 385 705 C 415 680 431 640 431 585 L 431 290 Z M 345 417 L 345 508 L 239 503 C 207 501 180 495 160 485 C 139 474 129 456 129 430 C 129 409 137 393 154 381 C 170 369 192 364 219 364 C 243 364 267 368 290 378 C 313 387 331 400 345 417 Z M 441 151 L 46 151 L 46 236 L 441 236 L 441 151 Z" unicode="ª" />
<glyph horiz-adv-x="458" d="M 213 99 L 27 278 L 27 339 L 213 515 L 213 411 L 115 308 L 213 208 L 213 99 Z M 427 99 L 240 278 L 240 339 L 427 515 L 427 411 L 330 308 L 427 208 L 427 99 Z" unicode="«" />
<glyph horiz-adv-x="489" d="M 445 392 L 445 138 L 361 138 L 361 306 L 30 306 L 30 392 L 445 392 Z" unicode="¬" />
<glyph horiz-adv-x="839" d="M 420 0 C 369 0 321 9 275 29 C 229 49 190 75 157 109 C 123 142 97 181 77 227 C 57 272 48 320 48 371 C 48 421 57 469 77 515 C 97 560 123 599 157 633 C 190 666 229 692 275 712 C 321 732 369 742 420 742 C 470 742 518 732 564 712 C 609 692 648 666 682 633 C 715 599 741 560 761 515 C 780 469 790 421 790 371 C 790 320 780 272 761 227 C 741 181 715 142 682 109 C 648 75 609 49 564 29 C 518 9 470 0 420 0 Z M 420 65 C 461 65 500 72 537 88 C 574 104 606 125 634 153 C 662 181 684 213 700 251 C 716 288 724 328 724 371 C 724 413 716 453 700 491 C 684 528 662 560 634 588 C 606 615 574 637 537 653 C 500 669 461 677 420 677 C 378 677 338 669 301 653 C 263 637 231 615 204 588 C 176 560 155 528 139 490 C 123 452 115 413 115 371 C 115 329 123 289 139 251 C 155 213 176 181 204 154 C 231 126 263 105 301 89 C 338 73 378 65 420 65 Z M 278 164 L 278 594 L 439 594 C 457 594 474 591 491 587 C 508 582 523 575 537 565 C 550 555 561 543 569 528 C 577 512 581 494 581 474 C 581 436 571 407 552 387 C 533 367 512 355 488 352 L 487 348 L 621 164 L 532 164 L 413 335 L 355 335 L 355 164 L 278 164 Z M 354 401 L 443 401 C 461 401 476 406 488 418 C 500 429 507 445 507 466 C 507 486 500 501 486 511 C 472 521 454 526 434 526 L 354 526 L 354 401 Z" unicode="®" />
<glyph horiz-adv-x="500" d="M 380 608 L 120 608 L 120 694 L 380 694 L 380 608 Z" unicode="¯" />
<glyph horiz-adv-x="427" d="M 213 375 C 187 375 163 379 141 389 C 119 399 99 412 83 429 C 67 445 54 465 44 487 C 34 509 30 533 30 559 C 30 584 34 608 44 630 C 54 652 67 672 83 688 C 99 704 119 717 141 727 C 163 737 187 742 213 742 C 238 742 262 737 284 727 C 306 717 326 704 343 688 C 359 672 372 652 382 630 C 392 608 397 584 397 559 C 397 533 392 509 382 487 C 372 465 359 445 343 429 C 326 412 306 399 284 389 C 262 379 238 375 213 375 Z M 213 457 C 241 457 266 467 286 487 C 306 507 317 531 317 559 C 317 587 306 611 286 631 C 266 651 241 662 213 662 C 185 662 160 651 140 631 C 120 611 110 587 110 559 C 110 531 120 507 140 487 C 160 467 185 457 213 457 Z" unicode="°" />
<glyph horiz-adv-x="489" d="M 465 291 L 287 291 L 287 111 L 203 111 L 203 291 L 24 291 L 24 369 L 203 369 L 203 551 L 287 551 L 287 369 L 465 369 L 465 291 Z M 461 23 L 30 23 L 30 101 L 461 101 L 461 23 Z" unicode="±" />
<glyph horiz-adv-x="329" d="M 304 372 L 21 372 L 21 405 L 176 563 C 182 569 187 576 193 585 C 199 594 202 605 202 618 C 202 630 197 641 189 651 C 181 661 168 666 150 666 C 129 666 115 659 107 647 C 99 635 95 620 95 604 L 16 604 C 16 642 28 674 54 701 C 79 727 114 741 160 741 C 204 741 237 730 259 710 C 281 690 292 665 292 637 C 292 610 287 588 278 570 C 268 552 258 538 248 528 L 165 445 L 304 445 L 304 372 Z" unicode="²" />
<glyph horiz-adv-x="346" d="M 227 569 C 254 564 275 553 291 537 C 307 520 315 500 315 477 C 315 465 312 452 308 439 C 303 425 295 413 283 402 C 271 391 255 382 235 375 C 215 367 191 364 161 364 C 119 364 86 369 63 379 C 39 389 21 399 9 409 L 57 459 C 67 452 81 446 97 440 C 113 434 133 432 156 432 C 185 432 205 437 217 448 C 229 459 235 473 235 490 C 235 507 227 518 212 524 C 197 529 179 532 159 532 L 86 532 L 86 595 L 153 595 C 172 595 188 598 200 605 C 212 611 218 621 218 634 C 218 646 212 655 202 661 C 192 667 176 671 156 671 C 138 671 121 667 105 660 C 89 653 76 645 68 637 L 20 685 C 33 699 51 712 73 724 C 95 736 127 742 168 742 C 208 742 240 733 264 717 C 288 700 300 678 300 651 C 300 629 292 611 278 597 C 263 583 246 573 227 569 Z" unicode="³" />
<glyph horiz-adv-x="500" d="M 148 603 L 246 769 L 366 769 L 248 603 L 148 603 Z" unicode="´" />
<glyph horiz-adv-x="613" d="M 75 -167 L 75 544 L 175 544 L 175 174 C 175 146 187 122 211 102 C 235 82 264 73 298 73 C 314 73 330 76 346 82 C 362 88 377 96 390 108 C 402 119 413 133 421 149 C 429 165 434 184 434 205 L 434 544 L 534 544 L 534 0 L 441 0 L 441 95 C 435 81 427 69 416 57 C 404 45 391 34 376 25 C 361 16 345 9 328 3 C 310 -2 293 -5 276 -6 C 253 -6 231 -1 211 8 C 190 17 175 30 167 47 L 167 -167 L 75 -167 Z" unicode="µ" />
<glyph horiz-adv-x="653" d="M 589 -180 L 517 -179 L 517 650 L 422 650 L 422 -179 L 350 -179 L 350 263 L 258 263 C 228 263 199 269 171 281 C 143 293 118 310 97 331 C 76 352 59 377 46 405 C 33 433 27 462 27 493 C 27 526 33 557 45 586 C 57 615 73 640 95 661 C 117 682 143 699 174 711 C 205 723 239 730 277 730 L 589 730 L 589 -180 Z M 351 347 L 351 646 L 309 646 C 267 646 232 631 206 603 C 179 575 166 539 166 496 C 166 456 179 421 206 391 C 232 361 264 347 301 347 L 351 347 Z" unicode="¶" />
<glyph horiz-adv-x="261" d="M 182 280 L 80 280 L 80 419 L 182 419 L 182 280 Z" unicode="·" />
<glyph horiz-adv-x="500" d="M 255 -186 C 231 -186 208 -183 185 -177 C 161 -171 143 -163 130 -154 L 148 -111 C 156 -116 168 -121 182 -126 C 196 -131 211 -134 228 -134 C 241 -134 252 -131 262 -125 C 272 -119 277 -111 277 -101 C 277 -89 272 -81 264 -76 C 255 -71 245 -69 235 -69 C 228 -69 222 -69 216 -70 C 210 -71 205 -73 199 -75 L 187 -60 L 245 14 L 302 14 L 255 -46 C 286 -41 312 -44 334 -56 C 355 -68 366 -86 366 -111 C 366 -135 354 -154 332 -167 C 310 -179 284 -186 255 -186 Z" unicode="¸" />
<glyph horiz-adv-x="324" d="M 137 372 L 137 633 C 129 621 116 611 96 603 C 76 595 59 590 47 588 L 47 678 C 71 680 93 687 111 697 C 129 707 148 722 168 740 L 230 740 L 230 372 L 137 372 Z" unicode="¹" />
<glyph horiz-adv-x="490" d="M 241 281 C 213 281 187 286 162 296 C 136 306 114 321 95 341 C 76 360 61 384 49 412 C 37 440 32 472 32 508 C 32 539 37 569 49 597 C 60 625 75 650 94 671 C 113 691 135 708 161 720 C 187 732 214 739 243 739 C 273 739 301 733 327 723 C 353 713 376 698 396 679 C 415 659 430 636 442 609 C 453 582 459 552 459 519 C 459 485 453 453 441 424 C 429 394 414 369 395 348 C 375 327 352 311 326 299 C 299 287 271 281 241 281 Z M 242 363 C 280 363 310 377 333 406 C 356 434 368 471 368 517 C 368 558 357 592 336 619 C 314 645 284 659 245 659 C 207 659 177 644 155 616 C 133 588 122 551 122 505 C 122 462 133 428 155 402 C 177 376 206 363 242 363 Z M 49 151 L 49 236 L 440 236 L 440 151 L 49 151 Z" unicode="º" />
<glyph horiz-adv-x="461" d="M 30 516 L 218 337 L 218 276 L 30 100 L 30 205 L 128 307 L 30 407 L 30 516 Z M 247 516 L 434 337 L 434 276 L 247 100 L 247 205 L 346 307 L 247 407 L 247 516 Z" unicode="»" />
<glyph horiz-adv-x="688" d="M 5 0 L 5 0 Z M 95 372 L 95 633 C 87 621 74 611 54 603 C 34 595 17 590 5 588 L 5 678 C 29 680 51 687 69 697 C 87 707 106 722 126 740 L 188 740 L 188 372 L 95 372 Z M 572 730 L 210 0 L 123 0 L 486 730 L 572 730 Z M 382 81 L 382 142 L 566 365 L 624 365 L 624 146 L 684 146 L 684 81 L 624 81 L 624 1 L 541 1 L 541 81 L 382 81 Z M 455 137 L 543 137 L 543 245 L 455 137 Z" unicode="¼" />
<glyph horiz-adv-x="747" d="M 5 0 L 5 0 Z M 95 372 L 95 633 C 87 621 74 611 54 603 C 34 595 17 590 5 588 L 5 678 C 29 680 51 687 69 697 C 87 707 106 722 126 740 L 188 740 L 188 372 L 95 372 Z M 572 730 L 210 0 L 123 0 L 486 730 L 572 730 Z M 732 0 L 449 0 L 449 33 L 604 191 C 610 197 615 204 621 213 C 627 222 630 233 630 246 C 630 258 625 269 617 279 C 609 289 596 294 578 294 C 557 294 543 287 535 275 C 527 263 523 248 523 232 L 444 232 C 444 270 456 302 482 329 C 507 355 542 369 588 369 C 632 369 665 358 687 338 C 709 318 720 293 720 265 C 720 238 715 216 706 198 C 696 180 686 166 676 156 L 593 73 L 732 73 L 732 0 Z" unicode="½" />
<glyph horiz-adv-x="746" d="M 5 0 L 5 0 Z M 630 730 L 268 0 L 181 0 L 544 730 L 630 730 Z M 440 81 L 440 142 L 624 365 L 682 365 L 682 146 L 742 146 L 742 81 L 682 81 L 682 1 L 599 1 L 599 81 L 440 81 Z M 513 137 L 601 137 L 601 245 L 513 137 Z M 223 569 C 250 564 271 553 287 537 C 303 520 311 500 311 477 C 311 465 308 452 304 439 C 299 425 291 413 279 402 C 267 391 251 382 231 375 C 211 367 187 364 157 364 C 115 364 82 369 59 379 C 35 389 17 399 5 409 L 53 459 C 63 452 77 446 93 440 C 109 434 129 432 152 432 C 181 432 201 437 213 448 C 225 459 231 473 231 490 C 231 507 223 518 208 524 C 193 529 175 532 155 532 L 82 532 L 82 595 L 149 595 C 168 595 184 598 196 605 C 208 611 214 621 214 634 C 214 646 208 655 198 661 C 188 667 172 671 152 671 C 134 671 117 667 101 660 C 85 653 72 645 64 637 L 16 685 C 29 699 47 712 69 724 C 91 736 123 742 164 742 C 204 742 236 733 260 717 C 284 700 296 678 296 651 C 296 629 288 611 274 597 C 259 583 242 573 223 569 Z" unicode="¾" />
<glyph horiz-adv-x="464" d="M 194 484 L 194 609 L 308 609 L 308 484 L 194 484 Z M 235 -133 C 173 -133 122 -117 82 -85 C 42 -53 23 -9 23 46 C 23 72 26 95 34 115 C 42 135 51 154 63 170 C 75 186 88 201 102 214 C 116 227 129 239 142 250 C 166 270 182 293 190 321 C 198 349 202 376 203 403 L 304 403 C 304 357 298 319 288 291 C 277 262 257 235 228 210 C 204 190 182 168 162 146 C 141 124 131 96 131 62 C 131 31 142 6 165 -11 C 187 -29 215 -39 248 -39 C 277 -39 303 -32 327 -18 C 351 -4 370 12 385 32 L 452 -33 C 430 -61 400 -85 363 -104 C 325 -123 283 -133 235 -133 Z" unicode="¿" />
<glyph horiz-adv-x="601" d="M 0 0 L 0 0 Z M 601 0 L 488 0 L 424 178 L 167 178 L 107 0 L 0 0 L 265 733 L 339 733 L 601 0 Z M 403 260 L 295 565 L 189 260 L 403 260 Z M 297 783 L 297 783 Z M 405 783 L 304 783 L 187 949 L 306 949 L 405 783 Z" unicode="À" />
<glyph horiz-adv-x="601" d="M 0 0 L 0 0 Z M 601 0 L 488 0 L 424 178 L 167 178 L 107 0 L 0 0 L 265 733 L 339 733 L 601 0 Z M 403 260 L 295 565 L 189 260 L 403 260 Z M 297 789 L 297 789 Z M 189 789 L 287 955 L 407 955 L 289 789 L 189 789 Z" unicode="Á" />
<glyph horiz-adv-x="601" d="M 0 0 L 0 0 Z M 601 0 L 488 0 L 424 178 L 167 178 L 107 0 L 0 0 L 265 733 L 339 733 L 601 0 Z M 403 260 L 295 565 L 189 260 L 403 260 Z M 297 784 L 297 784 Z M 461 784 L 369 784 L 297 889 L 224 784 L 134 784 L 249 955 L 346 955 L 461 784 Z" unicode="Â" />
<glyph horiz-adv-x="601" d="M 0 0 L 0 0 Z M 601 0 L 488 0 L 424 178 L 167 178 L 107 0 L 0 0 L 265 733 L 339 733 L 601 0 Z M 403 260 L 295 565 L 189 260 L 403 260 Z M 297 789 L 297 789 Z M 389 929 L 468 929 C 468 881 460 846 446 823 C 432 800 412 789 387 789 C 369 789 352 792 338 800 C 324 807 311 814 300 822 C 289 829 279 836 269 844 C 259 851 250 855 240 855 C 230 855 221 849 215 839 C 208 828 204 813 204 793 L 125 793 C 125 840 135 875 155 899 C 175 922 195 934 217 934 C 234 934 249 930 262 922 C 274 914 287 906 299 898 C 308 890 317 884 327 878 C 336 872 345 869 354 869 C 362 869 370 874 377 884 C 384 894 388 909 389 929 Z" unicode="Ã" />
<glyph horiz-adv-x="601" d="M 0 0 L 0 0 Z M 601 0 L 488 0 L 424 178 L 167 178 L 107 0 L 0 0 L 265 733 L 339 733 L 601 0 Z M 403 260 L 295 565 L 189 260 L 403 260 Z M 297 784 L 297 784 Z M 428 784 L 343 784 L 343 942 L 428 942 L 428 784 Z M 251 784 L 166 784 L 166 942 L 251 942 L 251 784 Z" unicode="Ä" />
<glyph horiz-adv-x="601" d="M 0 0 L 0 0 Z M 601 0 L 488 0 L 424 178 L 167 178 L 107 0 L 0 0 L 265 733 L 339 733 L 601 0 Z M 403 260 L 295 565 L 189 260 L 403 260 Z M 297 775 L 297 775 Z M 297 775 C 263 775 233 787 209 812 C 184 836 172 866 172 901 C 172 935 184 964 209 988 C 233 1012 263 1025 297 1025 C 331 1025 361 1012 385 988 C 409 964 422 935 422 901 C 422 866 409 836 385 812 C 361 787 331 775 297 775 Z M 297 840 C 313 840 327 845 339 857 C 351 869 357 883 357 901 C 357 917 351 932 339 944 C 327 956 313 962 297 962 C 280 962 266 956 254 944 C 242 932 237 917 237 901 C 237 883 242 869 254 857 C 266 845 280 840 297 840 Z" unicode="Å" />
<glyph horiz-adv-x="899" d="M 861 0 L 460 0 L 460 224 L 228 224 L 97 0 L -16 0 L 403 730 L 843 730 L 843 634 L 564 634 L 564 411 L 829 411 L 829 319 L 564 319 L 564 96 L 861 96 L 861 0 Z M 460 314 L 460 656 L 273 314 L 460 314 Z" unicode="Æ" />
<glyph horiz-adv-x="675" d="M 42 0 L 42 0 Z M 366 -10 C 321 -10 279 -1 239 15 C 199 31 165 56 136 88 C 107 120 84 159 67 206 C 50 252 42 305 42 365 C 42 421 49 473 65 519 C 81 565 103 605 131 638 C 159 670 194 695 234 713 C 274 731 319 740 367 740 C 431 740 484 728 527 704 C 570 680 605 646 631 602 L 542 545 C 523 573 500 596 474 614 C 447 632 412 641 368 641 C 300 641 247 617 209 571 C 171 524 152 456 152 367 C 152 318 158 276 171 241 C 183 205 200 176 221 154 C 241 131 265 114 292 103 C 319 92 347 87 376 87 C 421 87 458 97 488 118 C 518 138 542 165 561 199 L 645 146 C 621 100 585 63 538 34 C 490 4 433 -10 366 -10 Z M 363 -7 L 363 -7 Z M 371 -193 C 347 -193 324 -190 301 -184 C 277 -178 259 -170 246 -161 L 264 -118 C 272 -123 284 -128 298 -133 C 312 -138 327 -141 344 -141 C 357 -141 368 -138 378 -132 C 388 -126 393 -118 393 -108 C 393 -96 388 -88 380 -83 C 371 -78 361 -76 351 -76 C 344 -76 338 -76 332 -77 C 326 -78 321 -80 315 -82 L 303 -67 L 361 7 L 418 7 L 371 -53 C 402 -48 428 -51 450 -63 C 471 -75 482 -93 482 -118 C 482 -142 470 -161 448 -174 C 426 -186 400 -193 371 -193 Z" unicode="Ç" />
<glyph horiz-adv-x="527" d="M 81 0 L 81 0 Z M 487 0 L 81 0 L 81 730 L 468 730 L 468 634 L 189 634 L 189 412 L 454 412 L 454 318 L 189 318 L 189 96 L 487 96 L 487 0 Z M 280 783 L 280 783 Z M 388 783 L 287 783 L 170 949 L 289 949 L 388 783 Z" unicode="È" />
<glyph horiz-adv-x="527" d="M 81 0 L 81 0 Z M 487 0 L 81 0 L 81 730 L 468 730 L 468 634 L 189 634 L 189 412 L 454 412 L 454 318 L 189 318 L 189 96 L 487 96 L 487 0 Z M 280 789 L 280 789 Z M 172 789 L 270 955 L 390 955 L 272 789 L 172 789 Z" unicode="É" />
<glyph horiz-adv-x="527" d="M 81 0 L 81 0 Z M 487 0 L 81 0 L 81 730 L 468 730 L 468 634 L 189 634 L 189 412 L 454 412 L 454 318 L 189 318 L 189 96 L 487 96 L 487 0 Z M 280 784 L 280 784 Z M 444 784 L 352 784 L 280 889 L 207 784 L 117 784 L 232 955 L 329 955 L 444 784 Z" unicode="Ê" />
<glyph horiz-adv-x="527" d="M 81 0 L 81 0 Z M 487 0 L 81 0 L 81 730 L 468 730 L 468 634 L 189 634 L 189 412 L 454 412 L 454 318 L 189 318 L 189 96 L 487 96 L 487 0 Z M 280 784 L 280 784 Z M 411 784 L 326 784 L 326 942 L 411 942 L 411 784 Z M 234 784 L 149 784 L 149 942 L 234 942 L 234 784 Z" unicode="Ë" />
<glyph horiz-adv-x="280" d="M 30 0 L 30 0 Z M 195 0 L 85 0 L 85 730 L 195 730 L 195 0 Z M 140 783 L 140 783 Z M 248 783 L 147 783 L 30 949 L 149 949 L 248 783 Z" unicode="Ì" />
<glyph horiz-adv-x="280" d="M 32 0 L 32 0 Z M 195 0 L 85 0 L 85 730 L 195 730 L 195 0 Z M 140 789 L 140 789 Z M 32 789 L 130 955 L 250 955 L 132 789 L 32 789 Z" unicode="Í" />
<glyph horiz-adv-x="280" d="M 0 0 L 0 0 Z M 195 0 L 85 0 L 85 730 L 195 730 L 195 0 Z M 140 784 L 140 784 Z M 304 784 L 212 784 L 140 889 L 67 784 L -23 784 L 92 955 L 189 955 L 304 784 Z" unicode="Î" />
<glyph horiz-adv-x="280" d="M 9 0 L 9 0 Z M 195 0 L 85 0 L 85 730 L 195 730 L 195 0 Z M 140 784 L 140 784 Z M 271 784 L 186 784 L 186 942 L 271 942 L 271 784 Z M 94 784 L 9 784 L 9 942 L 94 942 L 94 784 Z" unicode="Ï" />
<glyph horiz-adv-x="681" d="M 640 365 C 640 314 632 266 616 222 C 600 178 577 139 547 106 C 517 73 479 47 433 28 C 387 9 335 0 275 0 L 81 0 L 81 317 L 29 317 L 29 398 L 81 398 L 81 730 L 288 730 C 344 730 393 721 437 704 C 481 686 518 662 548 630 C 578 598 600 560 616 515 C 632 470 640 420 640 365 Z M 188 84 L 271 84 C 317 84 356 91 389 106 C 421 121 448 141 468 166 C 488 191 503 221 513 255 C 522 289 527 325 527 363 C 527 453 506 523 464 572 C 422 621 363 646 288 646 L 188 646 L 188 398 L 342 398 L 342 317 L 188 317 L 188 84 Z" unicode="Ð" />
<glyph horiz-adv-x="705" d="M 81 0 L 81 0 Z M 624 0 L 545 0 L 184 516 L 184 0 L 81 0 L 81 730 L 163 730 L 524 215 L 524 730 L 624 730 L 624 0 Z M 352 789 L 352 789 Z M 444 929 L 523 929 C 523 881 515 846 501 823 C 487 800 467 789 442 789 C 424 789 407 792 393 800 C 379 807 366 814 355 822 C 344 829 334 836 324 844 C 314 851 305 855 295 855 C 285 855 276 849 270 839 C 263 828 259 813 259 793 L 180 793 C 180 840 190 875 210 899 C 230 922 250 934 272 934 C 289 934 304 930 317 922 C 329 914 342 906 354 898 C 363 890 372 884 382 878 C 391 872 400 869 409 869 C 417 869 425 874 432 884 C 439 894 443 909 444 929 Z" unicode="Ñ" />
<glyph horiz-adv-x="750" d="M 42 0 L 42 0 Z M 378 -10 C 327 -10 281 0 240 17 C 198 35 163 61 134 95 C 104 128 82 168 66 215 C 50 262 42 314 42 370 C 42 425 50 475 67 521 C 83 567 106 606 135 638 C 164 670 199 695 239 713 C 279 731 323 740 371 740 C 421 740 467 731 509 713 C 551 695 586 670 616 638 C 646 606 669 566 685 520 C 701 474 709 423 709 367 C 709 310 700 258 683 212 C 665 165 642 125 612 93 C 582 60 547 35 507 17 C 467 -1 424 -10 378 -10 Z M 383 82 C 414 82 443 88 469 100 C 495 112 518 130 538 154 C 557 178 572 207 583 243 C 593 279 599 320 599 366 C 599 409 593 448 581 482 C 569 516 553 546 533 570 C 513 594 488 612 460 625 C 431 638 400 645 367 645 C 303 645 252 621 212 574 C 172 527 152 459 152 370 C 152 324 158 283 170 247 C 182 211 198 180 219 156 C 239 132 264 113 292 101 C 320 88 351 82 383 82 Z M 371 783 L 371 783 Z M 479 783 L 378 783 L 261 949 L 380 949 L 479 783 Z" unicode="Ò" />
<glyph horiz-adv-x="750" d="M 42 0 L 42 0 Z M 378 -10 C 327 -10 281 0 240 17 C 198 35 163 61 134 95 C 104 128 82 168 66 215 C 50 262 42 314 42 370 C 42 425 50 475 67 521 C 83 567 106 606 135 638 C 164 670 199 695 239 713 C 279 731 323 740 371 740 C 421 740 467 731 509 713 C 551 695 586 670 616 638 C 646 606 669 566 685 520 C 701 474 709 423 709 367 C 709 310 700 258 683 212 C 665 165 642 125 612 93 C 582 60 547 35 507 17 C 467 -1 424 -10 378 -10 Z M 383 82 C 414 82 443 88 469 100 C 495 112 518 130 538 154 C 557 178 572 207 583 243 C 593 279 599 320 599 366 C 599 409 593 448 581 482 C 569 516 553 546 533 570 C 513 594 488 612 460 625 C 431 638 400 645 367 645 C 303 645 252 621 212 574 C 172 527 152 459 152 370 C 152 324 158 283 170 247 C 182 211 198 180 219 156 C 239 132 264 113 292 101 C 320 88 351 82 383 82 Z M 371 789 L 371 789 Z M 263 789 L 361 955 L 481 955 L 363 789 L 263 789 Z" unicode="Ó" />
<glyph horiz-adv-x="750" d="M 42 0 L 42 0 Z M 378 -10 C 327 -10 281 0 240 17 C 198 35 163 61 134 95 C 104 128 82 168 66 215 C 50 262 42 314 42 370 C 42 425 50 475 67 521 C 83 567 106 606 135 638 C 164 670 199 695 239 713 C 279 731 323 740 371 740 C 421 740 467 731 509 713 C 551 695 586 670 616 638 C 646 606 669 566 685 520 C 701 474 709 423 709 367 C 709 310 700 258 683 212 C 665 165 642 125 612 93 C 582 60 547 35 507 17 C 467 -1 424 -10 378 -10 Z M 383 82 C 414 82 443 88 469 100 C 495 112 518 130 538 154 C 557 178 572 207 583 243 C 593 279 599 320 599 366 C 599 409 593 448 581 482 C 569 516 553 546 533 570 C 513 594 488 612 460 625 C 431 638 400 645 367 645 C 303 645 252 621 212 574 C 172 527 152 459 152 370 C 152 324 158 283 170 247 C 182 211 198 180 219 156 C 239 132 264 113 292 101 C 320 88 351 82 383 82 Z M 371 784 L 371 784 Z M 535 784 L 443 784 L 371 889 L 298 784 L 208 784 L 323 955 L 420 955 L 535 784 Z" unicode="Ô" />
<glyph horiz-adv-x="750" d="M 42 0 L 42 0 Z M 378 -10 C 327 -10 281 0 240 17 C 198 35 163 61 134 95 C 104 128 82 168 66 215 C 50 262 42 314 42 370 C 42 425 50 475 67 521 C 83 567 106 606 135 638 C 164 670 199 695 239 713 C 279 731 323 740 371 740 C 421 740 467 731 509 713 C 551 695 586 670 616 638 C 646 606 669 566 685 520 C 701 474 709 423 709 367 C 709 310 700 258 683 212 C 665 165 642 125 612 93 C 582 60 547 35 507 17 C 467 -1 424 -10 378 -10 Z M 383 82 C 414 82 443 88 469 100 C 495 112 518 130 538 154 C 557 178 572 207 583 243 C 593 279 599 320 599 366 C 599 409 593 448 581 482 C 569 516 553 546 533 570 C 513 594 488 612 460 625 C 431 638 400 645 367 645 C 303 645 252 621 212 574 C 172 527 152 459 152 370 C 152 324 158 283 170 247 C 182 211 198 180 219 156 C 239 132 264 113 292 101 C 320 88 351 82 383 82 Z M 371 789 L 371 789 Z M 463 929 L 542 929 C 542 881 534 846 520 823 C 506 800 486 789 461 789 C 443 789 426 792 412 800 C 398 807 385 814 374 822 C 363 829 353 836 343 844 C 333 851 324 855 314 855 C 304 855 295 849 289 839 C 282 828 278 813 278 793 L 199 793 C 199 840 209 875 229 899 C 249 922 269 934 291 934 C 308 934 323 930 336 922 C 348 914 361 906 373 898 C 382 890 391 884 401 878 C 410 872 419 869 428 869 C 436 869 444 874 451 884 C 458 894 462 909 463 929 Z" unicode="Õ" />
<glyph horiz-adv-x="750" d="M 42 0 L 42 0 Z M 378 -10 C 327 -10 281 0 240 17 C 198 35 163 61 134 95 C 104 128 82 168 66 215 C 50 262 42 314 42 370 C 42 425 50 475 67 521 C 83 567 106 606 135 638 C 164 670 199 695 239 713 C 279 731 323 740 371 740 C 421 740 467 731 509 713 C 551 695 586 670 616 638 C 646 606 669 566 685 520 C 701 474 709 423 709 367 C 709 310 700 258 683 212 C 665 165 642 125 612 93 C 582 60 547 35 507 17 C 467 -1 424 -10 378 -10 Z M 383 82 C 414 82 443 88 469 100 C 495 112 518 130 538 154 C 557 178 572 207 583 243 C 593 279 599 320 599 366 C 599 409 593 448 581 482 C 569 516 553 546 533 570 C 513 594 488 612 460 625 C 431 638 400 645 367 645 C 303 645 252 621 212 574 C 172 527 152 459 152 370 C 152 324 158 283 170 247 C 182 211 198 180 219 156 C 239 132 264 113 292 101 C 320 88 351 82 383 82 Z M 371 784 L 371 784 Z M 502 784 L 417 784 L 417 942 L 502 942 L 502 784 Z M 325 784 L 240 784 L 240 942 L 325 942 L 325 784 Z" unicode="Ö" />
<glyph horiz-adv-x="489" d="M 111 141 L 56 197 L 189 330 L 57 462 L 112 518 L 245 386 L 378 518 L 433 462 L 300 330 L 434 197 L 378 139 L 245 275 L 111 141 Z" unicode="×" />
<glyph horiz-adv-x="750" d="M 709 367 C 709 310 700 258 683 212 C 665 165 642 125 612 93 C 582 60 547 35 507 17 C 467 -1 424 -10 378 -10 C 335 -10 295 -3 259 10 C 222 23 190 42 162 67 L 98 -6 L 39 44 L 111 125 C 89 157 72 193 60 235 C 48 277 42 322 42 370 C 42 425 50 475 67 521 C 83 567 106 606 135 638 C 164 670 199 695 239 713 C 279 731 323 740 371 740 C 414 740 454 733 491 720 C 527 707 560 689 589 665 L 663 749 L 722 700 L 641 608 C 663 577 679 541 691 500 C 703 459 709 415 709 367 Z M 152 370 C 152 338 154 308 160 281 C 166 254 174 230 185 209 L 519 586 C 499 604 476 619 450 629 C 424 639 397 645 367 645 C 303 645 252 621 212 574 C 172 527 152 459 152 370 Z M 599 366 C 599 396 596 425 590 451 C 584 477 575 501 565 523 L 231 144 C 251 123 274 107 300 97 C 326 87 353 82 383 82 C 414 82 443 88 469 100 C 495 112 518 130 538 154 C 557 178 572 207 583 243 C 593 279 599 320 599 366 Z" unicode="Ø" />
<glyph horiz-adv-x="688" d="M 77 0 L 77 0 Z M 611 730 L 611 251 C 611 208 603 170 589 138 C 575 105 555 78 531 56 C 506 34 477 18 445 7 C 412 -4 378 -10 342 -10 C 306 -10 272 -4 240 6 C 208 16 180 32 156 54 C 132 75 112 102 98 135 C 84 168 77 207 77 251 L 77 730 L 185 730 L 185 252 C 185 198 200 158 231 130 C 261 102 298 88 342 88 C 385 88 422 101 454 128 C 485 155 501 196 501 252 L 501 730 L 611 730 Z M 343 783 L 343 783 Z M 451 783 L 350 783 L 233 949 L 352 949 L 451 783 Z" unicode="Ù" />
<glyph horiz-adv-x="688" d="M 77 0 L 77 0 Z M 611 730 L 611 251 C 611 208 603 170 589 138 C 575 105 555 78 531 56 C 506 34 477 18 445 7 C 412 -4 378 -10 342 -10 C 306 -10 272 -4 240 6 C 208 16 180 32 156 54 C 132 75 112 102 98 135 C 84 168 77 207 77 251 L 77 730 L 185 730 L 185 252 C 185 198 200 158 231 130 C 261 102 298 88 342 88 C 385 88 422 101 454 128 C 485 155 501 196 501 252 L 501 730 L 611 730 Z M 343 789 L 343 789 Z M 235 789 L 333 955 L 453 955 L 335 789 L 235 789 Z" unicode="Ú" />
<glyph horiz-adv-x="688" d="M 77 0 L 77 0 Z M 611 730 L 611 251 C 611 208 603 170 589 138 C 575 105 555 78 531 56 C 506 34 477 18 445 7 C 412 -4 378 -10 342 -10 C 306 -10 272 -4 240 6 C 208 16 180 32 156 54 C 132 75 112 102 98 135 C 84 168 77 207 77 251 L 77 730 L 185 730 L 185 252 C 185 198 200 158 231 130 C 261 102 298 88 342 88 C 385 88 422 101 454 128 C 485 155 501 196 501 252 L 501 730 L 611 730 Z M 343 784 L 343 784 Z M 507 784 L 415 784 L 343 889 L 270 784 L 180 784 L 295 955 L 392 955 L 507 784 Z" unicode="Û" />
<glyph horiz-adv-x="688" d="M 77 0 L 77 0 Z M 611 730 L 611 251 C 611 208 603 170 589 138 C 575 105 555 78 531 56 C 506 34 477 18 445 7 C 412 -4 378 -10 342 -10 C 306 -10 272 -4 240 6 C 208 16 180 32 156 54 C 132 75 112 102 98 135 C 84 168 77 207 77 251 L 77 730 L 185 730 L 185 252 C 185 198 200 158 231 130 C 261 102 298 88 342 88 C 385 88 422 101 454 128 C 485 155 501 196 501 252 L 501 730 L 611 730 Z M 343 784 L 343 784 Z M 474 784 L 389 784 L 389 942 L 474 942 L 474 784 Z M 297 784 L 212 784 L 212 942 L 297 942 L 297 784 Z" unicode="Ü" />
<glyph horiz-adv-x="602" d="M 0 0 L 0 0 Z M 604 730 L 353 308 L 353 0 L 243 0 L 243 312 L -2 730 L 123 730 L 304 413 L 492 730 L 604 730 Z M 304 789 L 304 789 Z M 196 789 L 294 955 L 414 955 L 296 789 L 196 789 Z" unicode="Ý" />
<glyph horiz-adv-x="558" d="M 81 0 L 81 730 L 191 730 L 191 604 L 315 604 C 382 604 436 584 476 544 C 516 504 537 451 537 385 C 537 317 516 263 474 221 C 432 179 379 159 315 159 L 191 159 L 191 0 L 81 0 Z M 188 244 L 303 244 C 341 244 371 256 394 281 C 417 306 429 341 429 386 C 429 429 416 461 390 483 C 364 505 334 516 298 516 L 188 516 L 188 244 Z" unicode="Þ" />
<glyph horiz-adv-x="637" d="M 436 -9 C 392 -9 352 -2 318 10 C 283 23 254 41 232 63 L 279 132 C 299 114 323 100 350 90 C 377 80 403 75 429 75 C 453 75 474 81 490 95 C 506 108 514 125 514 147 C 514 166 505 183 487 198 C 469 213 440 229 399 245 C 345 263 306 283 282 305 C 258 327 246 359 246 402 C 246 439 257 468 280 490 C 302 512 327 526 355 532 C 359 534 365 541 371 552 C 377 563 381 580 383 604 C 383 644 372 673 351 693 C 329 712 305 722 278 722 C 249 722 225 713 206 696 C 187 678 178 651 178 614 L 178 0 L 76 0 L 76 626 C 76 684 94 729 131 759 C 168 789 215 805 271 805 C 299 805 325 800 350 792 C 375 784 397 772 416 756 C 434 740 449 721 460 699 C 471 677 477 651 477 623 C 477 583 471 551 459 527 C 447 503 436 487 425 480 C 403 477 383 470 364 458 C 345 446 334 431 332 413 C 332 392 342 375 363 363 C 383 350 416 335 461 318 C 513 298 551 275 576 249 C 601 223 614 190 614 149 C 614 123 609 101 599 81 C 589 61 576 44 560 31 C 544 18 525 8 503 1 C 481 -5 459 -9 436 -9 Z" unicode="ß" />
<glyph horiz-adv-x="527" d="M 33 0 L 33 0 Z M 466 0 L 372 0 L 372 65 C 353 41 330 23 302 11 C 274 0 239 -7 199 -7 C 148 -7 108 7 78 36 C 48 65 33 105 33 155 C 33 215 53 261 95 292 C 137 322 192 340 262 345 L 367 352 L 367 370 C 367 402 357 427 339 443 C 320 459 294 467 260 467 C 230 467 201 461 175 451 C 148 440 124 427 103 413 L 65 491 C 88 508 117 523 153 537 C 189 550 230 557 276 557 C 334 557 381 542 415 513 C 449 484 466 439 466 378 L 466 0 Z M 369 137 L 369 276 L 262 270 C 226 268 196 258 172 241 C 148 223 137 197 137 162 C 137 132 146 110 165 95 C 184 79 208 72 236 72 C 264 72 289 78 313 90 C 336 102 355 118 369 137 Z M 259 597 L 259 597 Z M 367 597 L 266 597 L 149 763 L 268 763 L 367 597 Z" unicode="à" />
<glyph horiz-adv-x="527" d="M 33 0 L 33 0 Z M 466 0 L 372 0 L 372 65 C 353 41 330 23 302 11 C 274 0 239 -7 199 -7 C 148 -7 108 7 78 36 C 48 65 33 105 33 155 C 33 215 53 261 95 292 C 137 322 192 340 262 345 L 367 352 L 367 370 C 367 402 357 427 339 443 C 320 459 294 467 260 467 C 230 467 201 461 175 451 C 148 440 124 427 103 413 L 65 491 C 88 508 117 523 153 537 C 189 550 230 557 276 557 C 334 557 381 542 415 513 C 449 484 466 439 466 378 L 466 0 Z M 369 137 L 369 276 L 262 270 C 226 268 196 258 172 241 C 148 223 137 197 137 162 C 137 132 146 110 165 95 C 184 79 208 72 236 72 C 264 72 289 78 313 90 C 336 102 355 118 369 137 Z M 259 603 L 259 603 Z M 151 603 L 249 769 L 369 769 L 251 603 L 151 603 Z" unicode="á" />
<glyph horiz-adv-x="527" d="M 33 0 L 33 0 Z M 466 0 L 372 0 L 372 65 C 353 41 330 23 302 11 C 274 0 239 -7 199 -7 C 148 -7 108 7 78 36 C 48 65 33 105 33 155 C 33 215 53 261 95 292 C 137 322 192 340 262 345 L 367 352 L 367 370 C 367 402 357 427 339 443 C 320 459 294 467 260 467 C 230 467 201 461 175 451 C 148 440 124 427 103 413 L 65 491 C 88 508 117 523 153 537 C 189 550 230 557 276 557 C 334 557 381 542 415 513 C 449 484 466 439 466 378 L 466 0 Z M 369 137 L 369 276 L 262 270 C 226 268 196 258 172 241 C 148 223 137 197 137 162 C 137 132 146 110 165 95 C 184 79 208 72 236 72 C 264 72 289 78 313 90 C 336 102 355 118 369 137 Z M 259 598 L 259 598 Z M 423 598 L 331 598 L 259 703 L 186 598 L 96 598 L 211 769 L 308 769 L 423 598 Z" unicode="â" />
<glyph horiz-adv-x="527" d="M 33 0 L 33 0 Z M 466 0 L 372 0 L 372 65 C 353 41 330 23 302 11 C 274 0 239 -7 199 -7 C 148 -7 108 7 78 36 C 48 65 33 105 33 155 C 33 215 53 261 95 292 C 137 322 192 340 262 345 L 367 352 L 367 370 C 367 402 357 427 339 443 C 320 459 294 467 260 467 C 230 467 201 461 175 451 C 148 440 124 427 103 413 L 65 491 C 88 508 117 523 153 537 C 189 550 230 557 276 557 C 334 557 381 542 415 513 C 449 484 466 439 466 378 L 466 0 Z M 369 137 L 369 276 L 262 270 C 226 268 196 258 172 241 C 148 223 137 197 137 162 C 137 132 146 110 165 95 C 184 79 208 72 236 72 C 264 72 289 78 313 90 C 336 102 355 118 369 137 Z M 259 603 L 259 603 Z M 351 743 L 430 743 C 430 695 422 660 408 637 C 394 614 374 603 349 603 C 331 603 314 606 300 614 C 286 621 273 628 262 636 C 251 643 241 650 231 658 C 221 665 212 669 202 669 C 192 669 183 663 177 653 C 170 642 166 627 166 607 L 87 607 C 87 654 97 689 117 713 C 137 736 157 748 179 748 C 196 748 211 744 224 736 C 236 728 249 720 261 712 C 270 704 279 698 289 692 C 298 686 307 683 316 683 C 324 683 332 688 339 698 C 346 708 350 723 351 743 Z" unicode="ã" />
<glyph horiz-adv-x="527" d="M 33 0 L 33 0 Z M 466 0 L 372 0 L 372 65 C 353 41 330 23 302 11 C 274 0 239 -7 199 -7 C 148 -7 108 7 78 36 C 48 65 33 105 33 155 C 33 215 53 261 95 292 C 137 322 192 340 262 345 L 367 352 L 367 370 C 367 402 357 427 339 443 C 320 459 294 467 260 467 C 230 467 201 461 175 451 C 148 440 124 427 103 413 L 65 491 C 88 508 117 523 153 537 C 189 550 230 557 276 557 C 334 557 381 542 415 513 C 449 484 466 439 466 378 L 466 0 Z M 369 137 L 369 276 L 262 270 C 226 268 196 258 172 241 C 148 223 137 197 137 162 C 137 132 146 110 165 95 C 184 79 208 72 236 72 C 264 72 289 78 313 90 C 336 102 355 118 369 137 Z M 259 598 L 259 598 Z M 390 598 L 305 598 L 305 756 L 390 756 L 390 598 Z M 213 598 L 128 598 L 128 756 L 213 756 L 213 598 Z" unicode="ä" />
<glyph horiz-adv-x="527" d="M 33 0 L 33 0 Z M 466 0 L 372 0 L 372 65 C 353 41 330 23 302 11 C 274 0 239 -7 199 -7 C 148 -7 108 7 78 36 C 48 65 33 105 33 155 C 33 215 53 261 95 292 C 137 322 192 340 262 345 L 367 352 L 367 370 C 367 402 357 427 339 443 C 320 459 294 467 260 467 C 230 467 201 461 175 451 C 148 440 124 427 103 413 L 65 491 C 88 508 117 523 153 537 C 189 550 230 557 276 557 C 334 557 381 542 415 513 C 449 484 466 439 466 378 L 466 0 Z M 369 137 L 369 276 L 262 270 C 226 268 196 258 172 241 C 148 223 137 197 137 162 C 137 132 146 110 165 95 C 184 79 208 72 236 72 C 264 72 289 78 313 90 C 336 102 355 118 369 137 Z M 259 589 L 259 589 Z M 259 589 C 225 589 195 601 171 626 C 146 650 134 680 134 715 C 134 749 146 778 171 802 C 195 826 225 839 259 839 C 293 839 323 826 347 802 C 371 778 384 749 384 715 C 384 680 371 650 347 626 C 323 601 293 589 259 589 Z M 259 654 C 275 654 289 659 301 671 C 313 683 319 697 319 715 C 319 731 313 746 301 758 C 289 770 275 776 259 776 C 242 776 228 770 216 758 C 204 746 199 731 199 715 C 199 697 204 683 216 671 C 228 659 242 654 259 654 Z" unicode="å" />
<glyph horiz-adv-x="885" d="M 616 -9 C 589 -9 564 -5 542 1 C 519 8 499 17 482 28 C 465 38 451 50 439 64 C 427 78 419 91 414 104 C 399 74 374 48 339 26 C 304 4 260 -7 207 -7 C 159 -7 119 7 88 36 C 57 65 42 104 42 154 C 42 216 62 262 104 292 C 146 322 201 339 271 344 L 377 351 L 377 364 C 377 398 367 423 348 441 C 328 458 302 467 268 467 C 237 467 208 461 182 450 C 155 439 131 427 111 414 L 74 491 C 98 508 126 523 158 536 C 190 549 227 556 269 556 C 313 556 349 547 377 530 C 405 513 425 490 435 462 C 439 471 447 481 457 492 C 467 502 480 512 495 521 C 510 530 528 538 548 544 C 568 550 590 553 614 553 C 686 553 744 525 787 470 C 829 415 851 339 852 242 L 469 242 C 469 196 483 158 511 128 C 539 97 575 82 621 82 C 662 82 693 90 715 106 C 737 122 755 137 770 153 L 828 86 C 806 60 779 38 746 19 C 713 0 670 -9 616 -9 Z M 469 315 L 748 315 C 747 358 734 394 710 423 C 685 451 652 466 611 466 C 571 466 538 451 512 423 C 486 395 471 359 469 315 Z M 242 72 C 274 72 302 82 326 102 C 350 122 367 145 379 170 L 379 275 L 271 268 C 235 265 206 256 182 242 C 158 228 146 202 146 165 C 146 133 155 110 174 95 C 192 79 215 72 242 72 Z" unicode="æ" />
<glyph horiz-adv-x="515" d="M 35 0 L 35 0 Z M 422 159 L 492 102 C 474 75 449 50 417 26 C 385 2 341 -9 286 -9 C 248 -9 214 -2 183 11 C 152 25 126 44 104 68 C 82 92 65 122 53 157 C 41 191 35 229 35 271 C 35 311 41 348 53 383 C 65 417 82 447 104 472 C 126 497 153 517 184 532 C 215 546 250 554 288 554 C 316 554 342 550 364 543 C 386 535 406 526 423 514 C 439 502 453 489 465 474 C 476 458 485 443 491 428 L 408 384 C 398 404 383 422 363 438 C 343 454 317 462 285 462 C 241 462 206 444 180 408 C 154 372 141 328 141 274 C 141 213 154 166 182 132 C 210 98 246 82 292 82 C 328 82 356 90 376 107 C 396 124 411 141 422 159 Z M 277 -7 L 277 -7 Z M 285 -193 C 261 -193 238 -190 215 -184 C 191 -178 173 -170 160 -161 L 178 -118 C 186 -123 198 -128 212 -133 C 226 -138 241 -141 258 -141 C 271 -141 282 -138 292 -132 C 302 -126 307 -118 307 -108 C 307 -96 302 -88 294 -83 C 285 -78 275 -76 265 -76 C 258 -76 252 -76 246 -77 C 240 -78 235 -80 229 -82 L 217 -67 L 275 7 L 332 7 L 285 -53 C 316 -48 342 -51 364 -63 C 385 -75 396 -93 396 -118 C 396 -142 384 -161 362 -174 C 340 -186 314 -193 285 -193 Z" unicode="ç" />
<glyph horiz-adv-x="553" d="M 35 0 L 35 0 Z M 285 -9 C 249 -9 215 -2 184 10 C 153 22 127 41 105 65 C 83 89 65 118 53 153 C 41 187 35 226 35 270 C 35 311 41 349 53 384 C 65 418 83 448 105 473 C 127 498 153 518 183 532 C 213 546 245 553 281 553 C 355 553 413 525 456 470 C 498 414 520 338 520 240 L 137 240 C 137 218 141 198 148 179 C 155 160 165 143 178 129 C 191 115 207 103 226 95 C 244 87 265 83 289 83 C 326 83 356 90 380 104 C 404 118 423 135 438 153 L 496 86 C 474 61 447 39 414 20 C 380 0 337 -9 285 -9 Z M 136 315 L 416 315 C 415 361 402 397 377 425 C 351 452 319 466 280 466 C 240 466 206 451 180 423 C 153 394 138 358 136 315 Z M 280 597 L 280 597 Z M 388 597 L 287 597 L 170 763 L 289 763 L 388 597 Z" unicode="è" />
<glyph horiz-adv-x="553" d="M 35 0 L 35 0 Z M 285 -9 C 249 -9 215 -2 184 10 C 153 22 127 41 105 65 C 83 89 65 118 53 153 C 41 187 35 226 35 270 C 35 311 41 349 53 384 C 65 418 83 448 105 473 C 127 498 153 518 183 532 C 213 546 245 553 281 553 C 355 553 413 525 456 470 C 498 414 520 338 520 240 L 137 240 C 137 218 141 198 148 179 C 155 160 165 143 178 129 C 191 115 207 103 226 95 C 244 87 265 83 289 83 C 326 83 356 90 380 104 C 404 118 423 135 438 153 L 496 86 C 474 61 447 39 414 20 C 380 0 337 -9 285 -9 Z M 136 315 L 416 315 C 415 361 402 397 377 425 C 351 452 319 466 280 466 C 240 466 206 451 180 423 C 153 394 138 358 136 315 Z M 280 603 L 280 603 Z M 172 603 L 270 769 L 390 769 L 272 603 L 172 603 Z" unicode="é" />
<glyph horiz-adv-x="553" d="M 35 0 L 35 0 Z M 285 -9 C 249 -9 215 -2 184 10 C 153 22 127 41 105 65 C 83 89 65 118 53 153 C 41 187 35 226 35 270 C 35 311 41 349 53 384 C 65 418 83 448 105 473 C 127 498 153 518 183 532 C 213 546 245 553 281 553 C 355 553 413 525 456 470 C 498 414 520 338 520 240 L 137 240 C 137 218 141 198 148 179 C 155 160 165 143 178 129 C 191 115 207 103 226 95 C 244 87 265 83 289 83 C 326 83 356 90 380 104 C 404 118 423 135 438 153 L 496 86 C 474 61 447 39 414 20 C 380 0 337 -9 285 -9 Z M 136 315 L 416 315 C 415 361 402 397 377 425 C 351 452 319 466 280 466 C 240 466 206 451 180 423 C 153 394 138 358 136 315 Z M 280 598 L 280 598 Z M 444 598 L 352 598 L 280 703 L 207 598 L 117 598 L 232 769 L 329 769 L 444 598 Z" unicode="ê" />
<glyph horiz-adv-x="553" d="M 35 0 L 35 0 Z M 285 -9 C 249 -9 215 -2 184 10 C 153 22 127 41 105 65 C 83 89 65 118 53 153 C 41 187 35 226 35 270 C 35 311 41 349 53 384 C 65 418 83 448 105 473 C 127 498 153 518 183 532 C 213 546 245 553 281 553 C 355 553 413 525 456 470 C 498 414 520 338 520 240 L 137 240 C 137 218 141 198 148 179 C 155 160 165 143 178 129 C 191 115 207 103 226 95 C 244 87 265 83 289 83 C 326 83 356 90 380 104 C 404 118 423 135 438 153 L 496 86 C 474 61 447 39 414 20 C 380 0 337 -9 285 -9 Z M 136 315 L 416 315 C 415 361 402 397 377 425 C 351 452 319 466 280 466 C 240 466 206 451 180 423 C 153 394 138 358 136 315 Z M 280 598 L 280 598 Z M 411 598 L 326 598 L 326 756 L 411 756 L 411 598 Z M 234 598 L 149 598 L 149 756 L 234 756 L 234 598 Z" unicode="ë" />
<glyph horiz-adv-x="247" d="M 13 0 L 13 0 Z M 175 0 L 72 0 L 72 544 L 175 544 L 175 0 Z M 123 597 L 123 597 Z M 231 597 L 130 597 L 13 763 L 132 763 L 231 597 Z" unicode="ì" />
<glyph horiz-adv-x="247" d="M 15 0 L 15 0 Z M 175 0 L 72 0 L 72 544 L 175 544 L 175 0 Z M 123 603 L 123 603 Z M 15 603 L 113 769 L 233 769 L 115 603 L 15 603 Z" unicode="í" />
<glyph horiz-adv-x="247" d="M 0 0 L 0 0 Z M 175 0 L 72 0 L 72 544 L 175 544 L 175 0 Z M 123 598 L 123 598 Z M 287 598 L 195 598 L 123 703 L 50 598 L -40 598 L 75 769 L 172 769 L 287 598 Z" unicode="î" />
<glyph horiz-adv-x="247" d="M 0 0 L 0 0 Z M 175 0 L 72 0 L 72 544 L 175 544 L 175 0 Z M 123 598 L 123 598 Z M 254 598 L 169 598 L 169 756 L 254 756 L 254 598 Z M 77 598 L -8 598 L -8 756 L 77 756 L 77 598 Z" unicode="ï" />
<glyph horiz-adv-x="574" d="M 532 303 C 532 259 526 217 516 179 C 505 141 489 108 468 80 C 447 52 421 30 390 14 C 358 -2 323 -10 283 -10 C 247 -10 214 -3 184 8 C 154 20 128 38 106 61 C 84 84 66 112 54 146 C 42 180 36 217 36 259 C 36 299 42 335 55 369 C 67 403 84 432 105 456 C 126 480 150 498 178 512 C 206 526 235 533 265 533 C 301 533 333 524 362 508 C 390 491 411 469 425 443 C 420 485 412 523 400 557 C 388 591 374 621 358 647 L 233 597 L 215 652 L 323 696 C 307 714 290 730 274 743 C 258 755 243 765 229 771 L 317 801 C 327 796 340 787 355 775 C 370 763 386 747 402 727 L 476 757 L 494 702 L 436 679 C 461 637 483 584 503 522 C 522 459 532 386 532 303 Z M 285 77 C 331 77 366 93 392 127 C 418 161 431 208 431 268 C 431 326 418 372 392 404 C 366 436 330 452 284 452 C 240 452 206 434 180 400 C 154 366 141 321 141 265 C 141 205 154 159 181 126 C 208 93 243 77 285 77 Z" unicode="ð" />
<glyph horiz-adv-x="564" d="M 70 0 L 70 0 Z M 499 0 L 397 0 L 397 380 C 397 407 387 428 367 443 C 347 458 324 466 298 466 C 283 466 268 463 253 459 C 238 455 225 448 213 439 C 201 429 191 417 183 403 C 175 388 172 371 172 352 L 172 0 L 70 0 L 70 544 L 158 544 L 158 443 C 168 475 189 502 220 523 C 251 543 289 554 333 554 C 355 554 377 550 397 544 C 417 538 435 529 450 517 C 465 505 477 490 486 472 C 494 454 499 435 499 413 L 499 0 Z M 296 603 L 296 603 Z M 388 743 L 467 743 C 467 695 459 660 445 637 C 431 614 411 603 386 603 C 368 603 351 606 337 614 C 323 621 310 628 299 636 C 288 643 278 650 268 658 C 258 665 249 669 239 669 C 229 669 220 663 214 653 C 207 642 203 627 203 607 L 124 607 C 124 654 134 689 154 713 C 174 736 194 748 216 748 C 233 748 248 744 261 736 C 273 728 286 720 298 712 C 307 704 316 698 326 692 C 335 686 344 683 353 683 C 361 683 369 688 376 698 C 383 708 387 723 388 743 Z" unicode="ñ" />
<glyph horiz-adv-x="572" d="M 35 0 L 35 0 Z M 283 -9 C 249 -9 218 -2 188 9 C 158 21 131 39 109 63 C 86 86 68 115 55 150 C 41 185 35 225 35 270 C 35 311 41 349 54 384 C 67 419 85 449 107 474 C 129 499 156 519 186 533 C 216 547 249 554 283 554 C 319 554 352 547 384 535 C 415 523 442 505 465 482 C 487 459 505 431 518 397 C 531 363 538 326 538 285 C 538 241 531 200 518 164 C 505 128 487 97 464 72 C 441 46 414 26 383 12 C 352 -1 319 -9 283 -9 Z M 287 82 C 331 82 366 99 392 134 C 418 168 432 216 432 278 C 432 336 418 381 391 413 C 363 445 327 462 282 462 C 240 462 206 445 180 411 C 154 377 141 331 141 271 C 141 207 155 159 183 128 C 211 97 245 82 287 82 Z M 285 597 L 285 597 Z M 393 597 L 292 597 L 175 763 L 294 763 L 393 597 Z" unicode="ò" />
<glyph horiz-adv-x="572" d="M 35 0 L 35 0 Z M 283 -9 C 249 -9 218 -2 188 9 C 158 21 131 39 109 63 C 86 86 68 115 55 150 C 41 185 35 225 35 270 C 35 311 41 349 54 384 C 67 419 85 449 107 474 C 129 499 156 519 186 533 C 216 547 249 554 283 554 C 319 554 352 547 384 535 C 415 523 442 505 465 482 C 487 459 505 431 518 397 C 531 363 538 326 538 285 C 538 241 531 200 518 164 C 505 128 487 97 464 72 C 441 46 414 26 383 12 C 352 -1 319 -9 283 -9 Z M 287 82 C 331 82 366 99 392 134 C 418 168 432 216 432 278 C 432 336 418 381 391 413 C 363 445 327 462 282 462 C 240 462 206 445 180 411 C 154 377 141 331 141 271 C 141 207 155 159 183 128 C 211 97 245 82 287 82 Z M 285 603 L 285 603 Z M 177 603 L 275 769 L 395 769 L 277 603 L 177 603 Z" unicode="ó" />
<glyph horiz-adv-x="572" d="M 35 0 L 35 0 Z M 283 -9 C 249 -9 218 -2 188 9 C 158 21 131 39 109 63 C 86 86 68 115 55 150 C 41 185 35 225 35 270 C 35 311 41 349 54 384 C 67 419 85 449 107 474 C 129 499 156 519 186 533 C 216 547 249 554 283 554 C 319 554 352 547 384 535 C 415 523 442 505 465 482 C 487 459 505 431 518 397 C 531 363 538 326 538 285 C 538 241 531 200 518 164 C 505 128 487 97 464 72 C 441 46 414 26 383 12 C 352 -1 319 -9 283 -9 Z M 287 82 C 331 82 366 99 392 134 C 418 168 432 216 432 278 C 432 336 418 381 391 413 C 363 445 327 462 282 462 C 240 462 206 445 180 411 C 154 377 141 331 141 271 C 141 207 155 159 183 128 C 211 97 245 82 287 82 Z M 285 598 L 285 598 Z M 449 598 L 357 598 L 285 703 L 212 598 L 122 598 L 237 769 L 334 769 L 449 598 Z" unicode="ô" />
<glyph horiz-adv-x="572" d="M 35 0 L 35 0 Z M 283 -9 C 249 -9 218 -2 188 9 C 158 21 131 39 109 63 C 86 86 68 115 55 150 C 41 185 35 225 35 270 C 35 311 41 349 54 384 C 67 419 85 449 107 474 C 129 499 156 519 186 533 C 216 547 249 554 283 554 C 319 554 352 547 384 535 C 415 523 442 505 465 482 C 487 459 505 431 518 397 C 531 363 538 326 538 285 C 538 241 531 200 518 164 C 505 128 487 97 464 72 C 441 46 414 26 383 12 C 352 -1 319 -9 283 -9 Z M 287 82 C 331 82 366 99 392 134 C 418 168 432 216 432 278 C 432 336 418 381 391 413 C 363 445 327 462 282 462 C 240 462 206 445 180 411 C 154 377 141 331 141 271 C 141 207 155 159 183 128 C 211 97 245 82 287 82 Z M 285 603 L 285 603 Z M 377 743 L 456 743 C 456 695 448 660 434 637 C 420 614 400 603 375 603 C 357 603 340 606 326 614 C 312 621 299 628 288 636 C 277 643 267 650 257 658 C 247 665 238 669 228 669 C 218 669 209 663 203 653 C 196 642 192 627 192 607 L 113 607 C 113 654 123 689 143 713 C 163 736 183 748 205 748 C 222 748 237 744 250 736 C 262 728 275 720 287 712 C 296 704 305 698 315 692 C 324 686 333 683 342 683 C 350 683 358 688 365 698 C 372 708 376 723 377 743 Z" unicode="õ" />
<glyph horiz-adv-x="572" d="M 35 0 L 35 0 Z M 283 -9 C 249 -9 218 -2 188 9 C 158 21 131 39 109 63 C 86 86 68 115 55 150 C 41 185 35 225 35 270 C 35 311 41 349 54 384 C 67 419 85 449 107 474 C 129 499 156 519 186 533 C 216 547 249 554 283 554 C 319 554 352 547 384 535 C 415 523 442 505 465 482 C 487 459 505 431 518 397 C 531 363 538 326 538 285 C 538 241 531 200 518 164 C 505 128 487 97 464 72 C 441 46 414 26 383 12 C 352 -1 319 -9 283 -9 Z M 287 82 C 331 82 366 99 392 134 C 418 168 432 216 432 278 C 432 336 418 381 391 413 C 363 445 327 462 282 462 C 240 462 206 445 180 411 C 154 377 141 331 141 271 C 141 207 155 159 183 128 C 211 97 245 82 287 82 Z M 285 598 L 285 598 Z M 416 598 L 331 598 L 331 756 L 416 756 L 416 598 Z M 239 598 L 154 598 L 154 756 L 239 756 L 239 598 Z" unicode="ö" />
<glyph horiz-adv-x="489" d="M 197 448 L 197 567 L 293 567 L 293 448 L 197 448 Z M 24 287 L 24 374 L 465 374 L 465 287 L 24 287 Z M 197 94 L 197 212 L 293 212 L 293 94 L 197 94 Z" unicode="÷" />
<glyph horiz-adv-x="572" d="M 283 -9 C 254 -9 226 -4 200 5 C 173 14 149 27 128 45 L 77 -14 L 23 32 L 81 99 C 66 121 55 146 47 175 C 39 203 35 235 35 270 C 35 311 41 349 54 384 C 67 419 85 449 107 474 C 129 499 156 519 186 533 C 216 547 249 554 283 554 C 311 554 339 550 365 542 C 391 534 415 522 436 508 L 488 568 L 541 523 L 485 459 C 501 436 514 410 524 381 C 533 351 538 319 538 285 C 538 241 531 200 518 164 C 505 128 487 97 464 72 C 441 46 414 26 383 12 C 352 -1 319 -9 283 -9 Z M 141 271 C 141 254 142 238 144 223 C 146 208 150 195 154 183 L 371 433 C 359 442 345 449 330 454 C 315 459 299 462 282 462 C 240 462 206 445 180 411 C 154 377 141 331 141 271 Z M 432 278 C 432 296 430 314 427 331 C 424 347 420 362 414 376 L 192 119 C 204 106 219 97 235 91 C 251 85 268 82 287 82 C 331 82 366 99 392 134 C 418 168 432 216 432 278 Z" unicode="ø" />
<glyph horiz-adv-x="564" d="M 65 0 L 65 0 Z M 65 544 L 167 544 L 167 187 C 167 147 177 119 198 102 C 218 84 245 76 278 76 C 308 76 335 86 358 107 C 380 128 392 158 392 196 L 392 544 L 494 544 L 494 0 L 403 0 L 403 97 C 394 69 375 45 346 23 C 316 1 279 -10 235 -10 C 212 -10 190 -6 170 0 C 149 6 131 16 115 30 C 99 43 87 60 78 80 C 69 100 65 124 65 151 L 65 544 Z M 279 597 L 279 597 Z M 387 597 L 286 597 L 169 763 L 288 763 L 387 597 Z" unicode="ù" />
<glyph horiz-adv-x="564" d="M 65 0 L 65 0 Z M 65 544 L 167 544 L 167 187 C 167 147 177 119 198 102 C 218 84 245 76 278 76 C 308 76 335 86 358 107 C 380 128 392 158 392 196 L 392 544 L 494 544 L 494 0 L 403 0 L 403 97 C 394 69 375 45 346 23 C 316 1 279 -10 235 -10 C 212 -10 190 -6 170 0 C 149 6 131 16 115 30 C 99 43 87 60 78 80 C 69 100 65 124 65 151 L 65 544 Z M 279 603 L 279 603 Z M 171 603 L 269 769 L 389 769 L 271 603 L 171 603 Z" unicode="ú" />
<glyph horiz-adv-x="564" d="M 65 0 L 65 0 Z M 65 544 L 167 544 L 167 187 C 167 147 177 119 198 102 C 218 84 245 76 278 76 C 308 76 335 86 358 107 C 380 128 392 158 392 196 L 392 544 L 494 544 L 494 0 L 403 0 L 403 97 C 394 69 375 45 346 23 C 316 1 279 -10 235 -10 C 212 -10 190 -6 170 0 C 149 6 131 16 115 30 C 99 43 87 60 78 80 C 69 100 65 124 65 151 L 65 544 Z M 279 598 L 279 598 Z M 443 598 L 351 598 L 279 703 L 206 598 L 116 598 L 231 769 L 328 769 L 443 598 Z" unicode="û" />
<glyph horiz-adv-x="564" d="M 65 0 L 65 0 Z M 65 544 L 167 544 L 167 187 C 167 147 177 119 198 102 C 218 84 245 76 278 76 C 308 76 335 86 358 107 C 380 128 392 158 392 196 L 392 544 L 494 544 L 494 0 L 403 0 L 403 97 C 394 69 375 45 346 23 C 316 1 279 -10 235 -10 C 212 -10 190 -6 170 0 C 149 6 131 16 115 30 C 99 43 87 60 78 80 C 69 100 65 124 65 151 L 65 544 Z M 279 598 L 279 598 Z M 410 598 L 325 598 L 325 756 L 410 756 L 410 598 Z M 233 598 L 148 598 L 148 756 L 233 756 L 233 598 Z" unicode="ü" />
<glyph horiz-adv-x="488" d="M 0 0 L 0 0 Z M 492 544 L 244 -80 C 226 -123 202 -154 172 -172 C 142 -190 111 -200 81 -200 C 59 -200 42 -197 28 -192 C 14 -187 4 -183 -1 -181 L 35 -96 C 38 -98 44 -101 53 -104 C 62 -106 71 -108 81 -108 C 97 -108 111 -102 125 -91 C 138 -79 150 -61 161 -37 L 192 41 L -5 544 L 103 544 L 245 165 L 390 544 L 492 544 Z M 246 603 L 246 603 Z M 138 603 L 236 769 L 356 769 L 238 603 L 138 603 Z" unicode="ý" />
<glyph horiz-adv-x="583" d="M 70 -197 L 70 800 L 169 800 L 169 436 C 177 466 196 493 225 517 C 254 541 292 553 340 553 C 403 553 453 528 491 480 C 529 431 548 366 548 284 C 548 194 527 123 487 72 C 446 20 394 -5 332 -5 C 291 -5 256 5 228 25 C 200 45 180 69 170 99 L 170 -197 L 70 -197 Z M 304 80 C 344 80 377 97 403 131 C 429 165 442 213 442 274 C 442 330 430 375 408 411 C 385 446 351 464 306 464 C 266 464 232 449 205 419 C 178 389 165 338 165 268 C 165 198 178 150 205 122 C 231 94 264 80 304 80 Z" unicode="þ" />
<glyph horiz-adv-x="488" d="M 0 0 L 0 0 Z M 492 544 L 244 -80 C 226 -123 202 -154 172 -172 C 142 -190 111 -200 81 -200 C 59 -200 42 -197 28 -192 C 14 -187 4 -183 -1 -181 L 35 -96 C 38 -98 44 -101 53 -104 C 62 -106 71 -108 81 -108 C 97 -108 111 -102 125 -91 C 138 -79 150 -61 161 -37 L 192 41 L -5 544 L 103 544 L 245 165 L 390 544 L 492 544 Z M 246 598 L 246 598 Z M 377 598 L 292 598 L 292 756 L 377 756 L 377 598 Z M 200 598 L 115 598 L 115 756 L 200 756 L 200 598 Z" unicode="ÿ" />
<glyph horiz-adv-x="601" d="M 0 0 L 0 0 Z M 601 0 L 488 0 L 424 178 L 167 178 L 107 0 L 0 0 L 265 733 L 339 733 L 601 0 Z M 403 260 L 295 565 L 189 260 L 403 260 Z M 297 794 L 297 794 Z M 427 794 L 167 794 L 167 880 L 427 880 L 427 794 Z" unicode="Ā" />
<glyph horiz-adv-x="527" d="M 33 0 L 33 0 Z M 466 0 L 372 0 L 372 65 C 353 41 330 23 302 11 C 274 0 239 -7 199 -7 C 148 -7 108 7 78 36 C 48 65 33 105 33 155 C 33 215 53 261 95 292 C 137 322 192 340 262 345 L 367 352 L 367 370 C 367 402 357 427 339 443 C 320 459 294 467 260 467 C 230 467 201 461 175 451 C 148 440 124 427 103 413 L 65 491 C 88 508 117 523 153 537 C 189 550 230 557 276 557 C 334 557 381 542 415 513 C 449 484 466 439 466 378 L 466 0 Z M 369 137 L 369 276 L 262 270 C 226 268 196 258 172 241 C 148 223 137 197 137 162 C 137 132 146 110 165 95 C 184 79 208 72 236 72 C 264 72 289 78 313 90 C 336 102 355 118 369 137 Z M 259 608 L 259 608 Z M 389 608 L 129 608 L 129 694 L 389 694 L 389 608 Z" unicode="ā" />
<glyph horiz-adv-x="601" d="M 0 0 L 0 0 Z M 601 0 L 488 0 L 424 178 L 167 178 L 107 0 L 0 0 L 265 733 L 339 733 L 601 0 Z M 403 260 L 295 565 L 189 260 L 403 260 Z M 297 787 L 297 787 Z M 366 946 L 450 946 C 446 890 430 850 402 825 C 374 799 339 787 297 787 C 255 787 220 799 192 825 C 164 850 148 890 144 946 L 229 946 C 231 920 237 899 247 883 C 257 867 274 860 297 860 C 319 860 336 867 347 883 C 357 898 364 919 366 946 Z" unicode="Ă" />
<glyph horiz-adv-x="527" d="M 33 0 L 33 0 Z M 466 0 L 372 0 L 372 65 C 353 41 330 23 302 11 C 274 0 239 -7 199 -7 C 148 -7 108 7 78 36 C 48 65 33 105 33 155 C 33 215 53 261 95 292 C 137 322 192 340 262 345 L 367 352 L 367 370 C 367 402 357 427 339 443 C 320 459 294 467 260 467 C 230 467 201 461 175 451 C 148 440 124 427 103 413 L 65 491 C 88 508 117 523 153 537 C 189 550 230 557 276 557 C 334 557 381 542 415 513 C 449 484 466 439 466 378 L 466 0 Z M 369 137 L 369 276 L 262 270 C 226 268 196 258 172 241 C 148 223 137 197 137 162 C 137 132 146 110 165 95 C 184 79 208 72 236 72 C 264 72 289 78 313 90 C 336 102 355 118 369 137 Z M 259 601 L 259 601 Z M 328 760 L 412 760 C 408 704 392 664 364 639 C 336 613 301 601 259 601 C 217 601 182 613 154 639 C 126 664 110 704 106 760 L 191 760 C 193 734 199 713 209 697 C 219 681 236 674 259 674 C 281 674 298 681 309 697 C 319 712 326 733 328 760 Z" unicode="ă" />
<glyph horiz-adv-x="601" d="M 0 0 L 0 0 Z M 601 0 L 488 0 L 424 178 L 167 178 L 107 0 L 0 0 L 265 733 L 339 733 L 601 0 Z M 403 260 L 295 565 L 189 260 L 403 260 Z M 514 -7 L 514 -7 Z M 615 -91 L 644 -133 C 623 -154 600 -170 576 -181 C 552 -192 524 -198 494 -198 C 460 -198 433 -190 414 -176 C 394 -161 385 -142 385 -120 C 385 -96 394 -74 413 -53 C 432 -31 459 -13 493 2 L 553 2 C 527 -11 507 -24 493 -38 C 479 -52 473 -65 473 -79 C 473 -92 478 -103 488 -111 C 498 -119 511 -123 527 -123 C 545 -123 562 -119 577 -113 C 591 -107 604 -99 615 -91 Z" unicode="Ą" />
<glyph horiz-adv-x="527" d="M 33 0 L 33 0 Z M 466 0 L 372 0 L 372 65 C 353 41 330 23 302 11 C 274 0 239 -7 199 -7 C 148 -7 108 7 78 36 C 48 65 33 105 33 155 C 33 215 53 261 95 292 C 137 322 192 340 262 345 L 367 352 L 367 370 C 367 402 357 427 339 443 C 320 459 294 467 260 467 C 230 467 201 461 175 451 C 148 440 124 427 103 413 L 65 491 C 88 508 117 523 153 537 C 189 550 230 557 276 557 C 334 557 381 542 415 513 C 449 484 466 439 466 378 L 466 0 Z M 369 137 L 369 276 L 262 270 C 226 268 196 258 172 241 C 148 223 137 197 137 162 C 137 132 146 110 165 95 C 184 79 208 72 236 72 C 264 72 289 78 313 90 C 336 102 355 118 369 137 Z M 397 -7 L 397 -7 Z M 498 -91 L 527 -133 C 506 -154 483 -170 459 -181 C 435 -192 407 -198 377 -198 C 343 -198 316 -190 297 -176 C 277 -161 268 -142 268 -120 C 268 -96 277 -74 296 -53 C 315 -31 342 -13 376 2 L 436 2 C 410 -11 390 -24 376 -38 C 362 -52 356 -65 356 -79 C 356 -92 361 -103 371 -111 C 381 -119 394 -123 410 -123 C 428 -123 445 -119 460 -113 C 474 -107 487 -99 498 -91 Z" unicode="ą" />
<glyph horiz-adv-x="675" d="M 42 0 L 42 0 Z M 366 -10 C 321 -10 279 -1 239 15 C 199 31 165 56 136 88 C 107 120 84 159 67 206 C 50 252 42 305 42 365 C 42 421 49 473 65 519 C 81 565 103 605 131 638 C 159 670 194 695 234 713 C 274 731 319 740 367 740 C 431 740 484 728 527 704 C 570 680 605 646 631 602 L 542 545 C 523 573 500 596 474 614 C 447 632 412 641 368 641 C 300 641 247 617 209 571 C 171 524 152 456 152 367 C 152 318 158 276 171 241 C 183 205 200 176 221 154 C 241 131 265 114 292 103 C 319 92 347 87 376 87 C 421 87 458 97 488 118 C 518 138 542 165 561 199 L 645 146 C 621 100 585 63 538 34 C 490 4 433 -10 366 -10 Z M 368 789 L 368 789 Z M 260 789 L 358 955 L 478 955 L 360 789 L 260 789 Z" unicode="Ć" />
<glyph horiz-adv-x="515" d="M 35 0 L 35 0 Z M 422 159 L 492 102 C 474 75 449 50 417 26 C 385 2 341 -9 286 -9 C 248 -9 214 -2 183 11 C 152 25 126 44 104 68 C 82 92 65 122 53 157 C 41 191 35 229 35 271 C 35 311 41 348 53 383 C 65 417 82 447 104 472 C 126 497 153 517 184 532 C 215 546 250 554 288 554 C 316 554 342 550 364 543 C 386 535 406 526 423 514 C 439 502 453 489 465 474 C 476 458 485 443 491 428 L 408 384 C 398 404 383 422 363 438 C 343 454 317 462 285 462 C 241 462 206 444 180 408 C 154 372 141 328 141 274 C 141 213 154 166 182 132 C 210 98 246 82 292 82 C 328 82 356 90 376 107 C 396 124 411 141 422 159 Z M 286 603 L 286 603 Z M 178 603 L 276 769 L 396 769 L 278 603 L 178 603 Z" unicode="ć" />
<glyph horiz-adv-x="675" d="M 42 0 L 42 0 Z M 366 -10 C 321 -10 279 -1 239 15 C 199 31 165 56 136 88 C 107 120 84 159 67 206 C 50 252 42 305 42 365 C 42 421 49 473 65 519 C 81 565 103 605 131 638 C 159 670 194 695 234 713 C 274 731 319 740 367 740 C 431 740 484 728 527 704 C 570 680 605 646 631 602 L 542 545 C 523 573 500 596 474 614 C 447 632 412 641 368 641 C 300 641 247 617 209 571 C 171 524 152 456 152 367 C 152 318 158 276 171 241 C 183 205 200 176 221 154 C 241 131 265 114 292 103 C 319 92 347 87 376 87 C 421 87 458 97 488 118 C 518 138 542 165 561 199 L 645 146 C 621 100 585 63 538 34 C 490 4 433 -10 366 -10 Z M 368 784 L 368 784 Z M 532 784 L 440 784 L 368 889 L 295 784 L 205 784 L 320 955 L 417 955 L 532 784 Z" unicode="Ĉ" />
<glyph horiz-adv-x="515" d="M 35 0 L 35 0 Z M 422 159 L 492 102 C 474 75 449 50 417 26 C 385 2 341 -9 286 -9 C 248 -9 214 -2 183 11 C 152 25 126 44 104 68 C 82 92 65 122 53 157 C 41 191 35 229 35 271 C 35 311 41 348 53 383 C 65 417 82 447 104 472 C 126 497 153 517 184 532 C 215 546 250 554 288 554 C 316 554 342 550 364 543 C 386 535 406 526 423 514 C 439 502 453 489 465 474 C 476 458 485 443 491 428 L 408 384 C 398 404 383 422 363 438 C 343 454 317 462 285 462 C 241 462 206 444 180 408 C 154 372 141 328 141 274 C 141 213 154 166 182 132 C 210 98 246 82 292 82 C 328 82 356 90 376 107 C 396 124 411 141 422 159 Z M 286 598 L 286 598 Z M 450 598 L 358 598 L 286 703 L 213 598 L 123 598 L 238 769 L 335 769 L 450 598 Z" unicode="ĉ" />
<glyph horiz-adv-x="675" d="M 42 0 L 42 0 Z M 366 -10 C 321 -10 279 -1 239 15 C 199 31 165 56 136 88 C 107 120 84 159 67 206 C 50 252 42 305 42 365 C 42 421 49 473 65 519 C 81 565 103 605 131 638 C 159 670 194 695 234 713 C 274 731 319 740 367 740 C 431 740 484 728 527 704 C 570 680 605 646 631 602 L 542 545 C 523 573 500 596 474 614 C 447 632 412 641 368 641 C 300 641 247 617 209 571 C 171 524 152 456 152 367 C 152 318 158 276 171 241 C 183 205 200 176 221 154 C 241 131 265 114 292 103 C 319 92 347 87 376 87 C 421 87 458 97 488 118 C 518 138 542 165 561 199 L 645 146 C 621 100 585 63 538 34 C 490 4 433 -10 366 -10 Z M 368 785 L 368 785 Z M 415 785 L 322 785 L 322 935 L 415 935 L 415 785 Z" unicode="Ċ" />
<glyph horiz-adv-x="515" d="M 35 0 L 35 0 Z M 422 159 L 492 102 C 474 75 449 50 417 26 C 385 2 341 -9 286 -9 C 248 -9 214 -2 183 11 C 152 25 126 44 104 68 C 82 92 65 122 53 157 C 41 191 35 229 35 271 C 35 311 41 348 53 383 C 65 417 82 447 104 472 C 126 497 153 517 184 532 C 215 546 250 554 288 554 C 316 554 342 550 364 543 C 386 535 406 526 423 514 C 439 502 453 489 465 474 C 476 458 485 443 491 428 L 408 384 C 398 404 383 422 363 438 C 343 454 317 462 285 462 C 241 462 206 444 180 408 C 154 372 141 328 141 274 C 141 213 154 166 182 132 C 210 98 246 82 292 82 C 328 82 356 90 376 107 C 396 124 411 141 422 159 Z M 286 599 L 286 599 Z M 333 599 L 240 599 L 240 749 L 333 749 L 333 599 Z" unicode="ċ" />
<glyph horiz-adv-x="675" d="M 42 0 L 42 0 Z M 366 -10 C 321 -10 279 -1 239 15 C 199 31 165 56 136 88 C 107 120 84 159 67 206 C 50 252 42 305 42 365 C 42 421 49 473 65 519 C 81 565 103 605 131 638 C 159 670 194 695 234 713 C 274 731 319 740 367 740 C 431 740 484 728 527 704 C 570 680 605 646 631 602 L 542 545 C 523 573 500 596 474 614 C 447 632 412 641 368 641 C 300 641 247 617 209 571 C 171 524 152 456 152 367 C 152 318 158 276 171 241 C 183 205 200 176 221 154 C 241 131 265 114 292 103 C 319 92 347 87 376 87 C 421 87 458 97 488 118 C 518 138 542 165 561 199 L 645 146 C 621 100 585 63 538 34 C 490 4 433 -10 366 -10 Z M 368 784 L 368 784 Z M 205 955 L 297 955 L 369 850 L 442 955 L 532 955 L 417 784 L 320 784 L 205 955 Z" unicode="Č" />
<glyph horiz-adv-x="515" d="M 35 0 L 35 0 Z M 422 159 L 492 102 C 474 75 449 50 417 26 C 385 2 341 -9 286 -9 C 248 -9 214 -2 183 11 C 152 25 126 44 104 68 C 82 92 65 122 53 157 C 41 191 35 229 35 271 C 35 311 41 348 53 383 C 65 417 82 447 104 472 C 126 497 153 517 184 532 C 215 546 250 554 288 554 C 316 554 342 550 364 543 C 386 535 406 526 423 514 C 439 502 453 489 465 474 C 476 458 485 443 491 428 L 408 384 C 398 404 383 422 363 438 C 343 454 317 462 285 462 C 241 462 206 444 180 408 C 154 372 141 328 141 274 C 141 213 154 166 182 132 C 210 98 246 82 292 82 C 328 82 356 90 376 107 C 396 124 411 141 422 159 Z M 286 598 L 286 598 Z M 123 769 L 215 769 L 287 664 L 360 769 L 450 769 L 335 598 L 238 598 L 123 769 Z" unicode="č" />
<glyph horiz-adv-x="681" d="M 81 0 L 81 0 Z M 81 0 L 81 730 L 288 730 C 344 730 393 721 437 704 C 481 687 518 663 548 632 C 578 601 600 563 616 519 C 632 475 640 426 640 373 C 640 320 632 271 616 225 C 600 179 577 140 547 107 C 517 73 479 47 433 28 C 387 9 335 0 275 0 L 81 0 Z M 191 90 L 275 90 C 318 90 355 97 387 111 C 419 125 445 145 465 170 C 485 195 501 225 511 260 C 521 294 526 332 526 372 C 526 456 504 521 462 569 C 420 617 361 641 286 641 L 191 641 L 191 90 Z M 329 784 L 329 784 Z M 166 955 L 258 955 L 330 850 L 403 955 L 493 955 L 378 784 L 281 784 L 166 955 Z" unicode="Ď" />
<glyph horiz-adv-x="587" d="M 35 0 L 35 0 Z M 255 -9 C 191 -9 138 16 97 67 C 55 117 35 185 35 271 C 35 312 41 350 53 385 C 65 419 81 449 101 474 C 121 498 145 518 173 532 C 200 546 229 553 261 553 C 297 553 329 542 359 520 C 388 498 408 472 419 442 L 419 800 L 517 800 L 517 0 L 424 0 L 424 105 C 420 93 413 80 403 67 C 393 53 381 41 367 30 C 353 18 336 9 317 2 C 298 -5 277 -9 255 -9 Z M 279 77 C 322 77 356 94 381 130 C 406 165 419 214 419 276 C 419 342 405 390 378 420 C 350 450 318 465 282 465 C 238 465 204 448 179 414 C 153 380 141 333 141 272 C 141 212 153 164 177 129 C 201 94 235 77 279 77 Z M 651 606 L 646 457 L 560 457 L 555 606 L 555 730 L 651 730 L 651 606 Z" unicode="ď" />
<glyph horiz-adv-x="681" d="M 29 0 L 29 0 Z M 640 365 C 640 314 632 266 616 222 C 600 178 577 139 547 106 C 517 73 479 47 433 28 C 387 9 335 0 275 0 L 81 0 L 81 317 L 29 317 L 29 398 L 81 398 L 81 730 L 288 730 C 344 730 393 721 437 704 C 481 686 518 662 548 630 C 578 598 600 560 616 515 C 632 470 640 420 640 365 Z M 188 84 L 271 84 C 317 84 356 91 389 106 C 421 121 448 141 468 166 C 488 191 503 221 513 255 C 522 289 527 325 527 363 C 527 453 506 523 464 572 C 422 621 363 646 288 646 L 188 646 L 188 398 L 342 398 L 342 317 L 188 317 L 188 84 Z" unicode="Đ" />
<glyph horiz-adv-x="587" d="M 424 105 C 420 93 413 80 403 67 C 393 53 381 41 367 30 C 353 18 336 9 317 2 C 298 -5 277 -9 255 -9 C 191 -9 138 16 97 67 C 55 117 35 185 35 271 C 35 312 41 350 53 385 C 65 419 81 449 101 474 C 121 498 145 518 173 532 C 200 546 229 553 261 553 C 297 553 329 542 359 520 C 388 498 408 472 419 442 L 419 618 L 276 618 L 276 706 L 419 706 L 419 800 L 517 800 L 517 706 L 580 706 L 580 618 L 517 618 L 517 0 L 424 0 L 424 105 Z M 279 77 C 322 77 356 94 381 130 C 406 165 419 214 419 276 C 419 342 405 390 378 420 C 350 450 318 465 282 465 C 238 465 204 448 179 414 C 153 380 141 333 141 272 C 141 212 153 164 177 129 C 201 94 235 77 279 77 Z" unicode="đ" />
<glyph horiz-adv-x="527" d="M 81 0 L 81 0 Z M 487 0 L 81 0 L 81 730 L 468 730 L 468 634 L 189 634 L 189 412 L 454 412 L 454 318 L 189 318 L 189 96 L 487 96 L 487 0 Z M 280 794 L 280 794 Z M 410 794 L 150 794 L 150 880 L 410 880 L 410 794 Z" unicode="Ē" />
<glyph horiz-adv-x="553" d="M 35 0 L 35 0 Z M 285 -9 C 249 -9 215 -2 184 10 C 153 22 127 41 105 65 C 83 89 65 118 53 153 C 41 187 35 226 35 270 C 35 311 41 349 53 384 C 65 418 83 448 105 473 C 127 498 153 518 183 532 C 213 546 245 553 281 553 C 355 553 413 525 456 470 C 498 414 520 338 520 240 L 137 240 C 137 218 141 198 148 179 C 155 160 165 143 178 129 C 191 115 207 103 226 95 C 244 87 265 83 289 83 C 326 83 356 90 380 104 C 404 118 423 135 438 153 L 496 86 C 474 61 447 39 414 20 C 380 0 337 -9 285 -9 Z M 136 315 L 416 315 C 415 361 402 397 377 425 C 351 452 319 466 280 466 C 240 466 206 451 180 423 C 153 394 138 358 136 315 Z M 280 608 L 280 608 Z M 410 608 L 150 608 L 150 694 L 410 694 L 410 608 Z" unicode="ē" />
<glyph horiz-adv-x="527" d="M 81 0 L 81 0 Z M 487 0 L 81 0 L 81 730 L 468 730 L 468 634 L 189 634 L 189 412 L 454 412 L 454 318 L 189 318 L 189 96 L 487 96 L 487 0 Z M 280 787 L 280 787 Z M 349 946 L 433 946 C 429 890 413 850 385 825 C 357 799 322 787 280 787 C 238 787 203 799 175 825 C 147 850 131 890 127 946 L 212 946 C 214 920 220 899 230 883 C 240 867 257 860 280 860 C 302 860 319 867 330 883 C 340 898 347 919 349 946 Z" unicode="Ĕ" />
<glyph horiz-adv-x="553" d="M 35 0 L 35 0 Z M 285 -9 C 249 -9 215 -2 184 10 C 153 22 127 41 105 65 C 83 89 65 118 53 153 C 41 187 35 226 35 270 C 35 311 41 349 53 384 C 65 418 83 448 105 473 C 127 498 153 518 183 532 C 213 546 245 553 281 553 C 355 553 413 525 456 470 C 498 414 520 338 520 240 L 137 240 C 137 218 141 198 148 179 C 155 160 165 143 178 129 C 191 115 207 103 226 95 C 244 87 265 83 289 83 C 326 83 356 90 380 104 C 404 118 423 135 438 153 L 496 86 C 474 61 447 39 414 20 C 380 0 337 -9 285 -9 Z M 136 315 L 416 315 C 415 361 402 397 377 425 C 351 452 319 466 280 466 C 240 466 206 451 180 423 C 153 394 138 358 136 315 Z M 280 601 L 280 601 Z M 349 760 L 433 760 C 429 704 413 664 385 639 C 357 613 322 601 280 601 C 238 601 203 613 175 639 C 147 664 131 704 127 760 L 212 760 C 214 734 220 713 230 697 C 240 681 257 674 280 674 C 302 674 319 681 330 697 C 340 712 347 733 349 760 Z" unicode="ĕ" />
<glyph horiz-adv-x="527" d="M 81 0 L 81 0 Z M 487 0 L 81 0 L 81 730 L 468 730 L 468 634 L 189 634 L 189 412 L 454 412 L 454 318 L 189 318 L 189 96 L 487 96 L 487 0 Z M 280 785 L 280 785 Z M 327 785 L 234 785 L 234 935 L 327 935 L 327 785 Z" unicode="Ė" />
<glyph horiz-adv-x="553" d="M 35 0 L 35 0 Z M 285 -9 C 249 -9 215 -2 184 10 C 153 22 127 41 105 65 C 83 89 65 118 53 153 C 41 187 35 226 35 270 C 35 311 41 349 53 384 C 65 418 83 448 105 473 C 127 498 153 518 183 532 C 213 546 245 553 281 553 C 355 553 413 525 456 470 C 498 414 520 338 520 240 L 137 240 C 137 218 141 198 148 179 C 155 160 165 143 178 129 C 191 115 207 103 226 95 C 244 87 265 83 289 83 C 326 83 356 90 380 104 C 404 118 423 135 438 153 L 496 86 C 474 61 447 39 414 20 C 380 0 337 -9 285 -9 Z M 136 315 L 416 315 C 415 361 402 397 377 425 C 351 452 319 466 280 466 C 240 466 206 451 180 423 C 153 394 138 358 136 315 Z M 280 599 L 280 599 Z M 327 599 L 234 599 L 234 749 L 327 749 L 327 599 Z" unicode="ė" />
<glyph horiz-adv-x="527" d="M 81 0 L 81 0 Z M 487 0 L 81 0 L 81 730 L 468 730 L 468 634 L 189 634 L 189 412 L 454 412 L 454 318 L 189 318 L 189 96 L 487 96 L 487 0 Z M 448 -7 L 448 -7 Z M 549 -91 L 578 -133 C 557 -154 534 -170 510 -181 C 486 -192 458 -198 428 -198 C 394 -198 367 -190 348 -176 C 328 -161 319 -142 319 -120 C 319 -96 328 -74 347 -53 C 366 -31 393 -13 427 2 L 487 2 C 461 -11 441 -24 427 -38 C 413 -52 407 -65 407 -79 C 407 -92 412 -103 422 -111 C 432 -119 445 -123 461 -123 C 479 -123 496 -119 511 -113 C 525 -107 538 -99 549 -91 Z" unicode="Ę" />
<glyph horiz-adv-x="553" d="M 35 0 L 35 0 Z M 285 -9 C 249 -9 215 -2 184 10 C 153 22 127 41 105 65 C 83 89 65 118 53 153 C 41 187 35 226 35 270 C 35 311 41 349 53 384 C 65 418 83 448 105 473 C 127 498 153 518 183 532 C 213 546 245 553 281 553 C 355 553 413 525 456 470 C 498 414 520 338 520 240 L 137 240 C 137 218 141 198 148 179 C 155 160 165 143 178 129 C 191 115 207 103 226 95 C 244 87 265 83 289 83 C 326 83 356 90 380 104 C 404 118 423 135 438 153 L 496 86 C 474 61 447 39 414 20 C 380 0 337 -9 285 -9 Z M 136 315 L 416 315 C 415 361 402 397 377 425 C 351 452 319 466 280 466 C 240 466 206 451 180 423 C 153 394 138 358 136 315 Z M 329 -7 L 329 -7 Z M 430 -91 L 459 -133 C 438 -154 415 -170 391 -181 C 367 -192 339 -198 309 -198 C 275 -198 248 -190 229 -176 C 209 -161 200 -142 200 -120 C 200 -96 209 -74 228 -53 C 247 -31 274 -13 308 2 L 368 2 C 342 -11 322 -24 308 -38 C 294 -52 288 -65 288 -79 C 288 -92 293 -103 303 -111 C 313 -119 326 -123 342 -123 C 360 -123 377 -119 392 -113 C 406 -107 419 -99 430 -91 Z" unicode="ę" />
<glyph horiz-adv-x="527" d="M 81 0 L 81 0 Z M 487 0 L 81 0 L 81 730 L 468 730 L 468 634 L 189 634 L 189 412 L 454 412 L 454 318 L 189 318 L 189 96 L 487 96 L 487 0 Z M 280 784 L 280 784 Z M 117 955 L 209 955 L 281 850 L 354 955 L 444 955 L 329 784 L 232 784 L 117 955 Z" unicode="Ě" />
<glyph horiz-adv-x="553" d="M 35 0 L 35 0 Z M 285 -9 C 249 -9 215 -2 184 10 C 153 22 127 41 105 65 C 83 89 65 118 53 153 C 41 187 35 226 35 270 C 35 311 41 349 53 384 C 65 418 83 448 105 473 C 127 498 153 518 183 532 C 213 546 245 553 281 553 C 355 553 413 525 456 470 C 498 414 520 338 520 240 L 137 240 C 137 218 141 198 148 179 C 155 160 165 143 178 129 C 191 115 207 103 226 95 C 244 87 265 83 289 83 C 326 83 356 90 380 104 C 404 118 423 135 438 153 L 496 86 C 474 61 447 39 414 20 C 380 0 337 -9 285 -9 Z M 136 315 L 416 315 C 415 361 402 397 377 425 C 351 452 319 466 280 466 C 240 466 206 451 180 423 C 153 394 138 358 136 315 Z M 280 598 L 280 598 Z M 117 769 L 209 769 L 281 664 L 354 769 L 444 769 L 329 598 L 232 598 L 117 769 Z" unicode="ě" />
<glyph horiz-adv-x="710" d="M 42 0 L 42 0 Z M 375 369 L 664 369 L 664 142 C 638 96 599 59 549 31 C 498 3 440 -10 374 -10 C 328 -10 284 -1 244 16 C 203 33 168 58 138 90 C 108 122 85 162 68 208 C 50 254 42 307 42 365 C 42 422 50 474 67 520 C 84 566 107 606 137 638 C 167 670 202 695 243 713 C 283 731 327 740 374 740 C 441 740 495 728 535 704 C 575 680 606 654 627 624 L 550 551 C 532 574 510 595 483 613 C 456 631 420 640 374 640 C 342 640 313 634 286 623 C 258 611 235 594 215 572 C 195 549 179 520 168 486 C 156 451 151 411 151 366 C 151 320 156 279 168 243 C 180 207 196 178 216 154 C 236 130 260 111 288 99 C 315 86 344 80 376 80 C 418 80 456 88 490 104 C 524 120 548 143 564 174 L 564 276 L 375 276 L 375 369 Z M 376 784 L 376 784 Z M 540 784 L 448 784 L 376 889 L 303 784 L 213 784 L 328 955 L 425 955 L 540 784 Z" unicode="Ĝ" />
<glyph horiz-adv-x="582" d="M 36 0 L 36 0 Z M 254 9 C 190 9 138 33 97 83 C 56 132 36 197 36 277 C 36 360 56 427 98 477 C 139 527 192 552 256 552 C 297 552 333 541 363 520 C 393 499 413 473 424 442 L 424 544 L 516 544 L 516 54 C 516 10 508 -28 492 -60 C 476 -92 456 -118 431 -139 C 406 -159 378 -175 346 -185 C 314 -195 283 -200 253 -200 C 202 -200 162 -195 133 -186 C 104 -176 82 -167 68 -159 L 110 -75 C 122 -82 140 -90 163 -98 C 186 -106 213 -111 245 -111 C 293 -111 334 -96 368 -68 C 401 -39 418 2 418 57 L 418 131 C 413 117 406 102 397 88 C 387 74 376 61 362 49 C 348 37 331 27 313 20 C 295 12 275 9 254 9 Z M 282 94 C 299 94 316 97 333 105 C 349 112 364 123 377 139 C 389 154 399 174 407 198 C 415 222 419 250 419 283 C 419 341 406 385 380 415 C 354 445 321 461 283 461 C 241 461 207 444 181 412 C 155 379 142 333 142 273 C 142 215 154 170 179 140 C 203 109 238 94 282 94 Z M 276 598 L 276 598 Z M 440 598 L 348 598 L 276 703 L 203 598 L 113 598 L 228 769 L 325 769 L 440 598 Z" unicode="ĝ" />
<glyph horiz-adv-x="710" d="M 42 0 L 42 0 Z M 375 369 L 664 369 L 664 142 C 638 96 599 59 549 31 C 498 3 440 -10 374 -10 C 328 -10 284 -1 244 16 C 203 33 168 58 138 90 C 108 122 85 162 68 208 C 50 254 42 307 42 365 C 42 422 50 474 67 520 C 84 566 107 606 137 638 C 167 670 202 695 243 713 C 283 731 327 740 374 740 C 441 740 495 728 535 704 C 575 680 606 654 627 624 L 550 551 C 532 574 510 595 483 613 C 456 631 420 640 374 640 C 342 640 313 634 286 623 C 258 611 235 594 215 572 C 195 549 179 520 168 486 C 156 451 151 411 151 366 C 151 320 156 279 168 243 C 180 207 196 178 216 154 C 236 130 260 111 288 99 C 315 86 344 80 376 80 C 418 80 456 88 490 104 C 524 120 548 143 564 174 L 564 276 L 375 276 L 375 369 Z M 376 787 L 376 787 Z M 445 946 L 529 946 C 525 890 509 850 481 825 C 453 799 418 787 376 787 C 334 787 299 799 271 825 C 243 850 227 890 223 946 L 308 946 C 310 920 316 899 326 883 C 336 867 353 860 376 860 C 398 860 415 867 426 883 C 436 898 443 919 445 946 Z" unicode="Ğ" />
<glyph horiz-adv-x="582" d="M 36 0 L 36 0 Z M 254 9 C 190 9 138 33 97 83 C 56 132 36 197 36 277 C 36 360 56 427 98 477 C 139 527 192 552 256 552 C 297 552 333 541 363 520 C 393 499 413 473 424 442 L 424 544 L 516 544 L 516 54 C 516 10 508 -28 492 -60 C 476 -92 456 -118 431 -139 C 406 -159 378 -175 346 -185 C 314 -195 283 -200 253 -200 C 202 -200 162 -195 133 -186 C 104 -176 82 -167 68 -159 L 110 -75 C 122 -82 140 -90 163 -98 C 186 -106 213 -111 245 -111 C 293 -111 334 -96 368 -68 C 401 -39 418 2 418 57 L 418 131 C 413 117 406 102 397 88 C 387 74 376 61 362 49 C 348 37 331 27 313 20 C 295 12 275 9 254 9 Z M 282 94 C 299 94 316 97 333 105 C 349 112 364 123 377 139 C 389 154 399 174 407 198 C 415 222 419 250 419 283 C 419 341 406 385 380 415 C 354 445 321 461 283 461 C 241 461 207 444 181 412 C 155 379 142 333 142 273 C 142 215 154 170 179 140 C 203 109 238 94 282 94 Z M 276 601 L 276 601 Z M 345 760 L 429 760 C 425 704 409 664 381 639 C 353 613 318 601 276 601 C 234 601 199 613 171 639 C 143 664 127 704 123 760 L 208 760 C 210 734 216 713 226 697 C 236 681 253 674 276 674 C 298 674 315 681 326 697 C 336 712 343 733 345 760 Z" unicode="ğ" />
<glyph horiz-adv-x="710" d="M 42 0 L 42 0 Z M 375 369 L 664 369 L 664 142 C 638 96 599 59 549 31 C 498 3 440 -10 374 -10 C 328 -10 284 -1 244 16 C 203 33 168 58 138 90 C 108 122 85 162 68 208 C 50 254 42 307 42 365 C 42 422 50 474 67 520 C 84 566 107 606 137 638 C 167 670 202 695 243 713 C 283 731 327 740 374 740 C 441 740 495 728 535 704 C 575 680 606 654 627 624 L 550 551 C 532 574 510 595 483 613 C 456 631 420 640 374 640 C 342 640 313 634 286 623 C 258 611 235 594 215 572 C 195 549 179 520 168 486 C 156 451 151 411 151 366 C 151 320 156 279 168 243 C 180 207 196 178 216 154 C 236 130 260 111 288 99 C 315 86 344 80 376 80 C 418 80 456 88 490 104 C 524 120 548 143 564 174 L 564 276 L 375 276 L 375 369 Z M 376 785 L 376 785 Z M 423 785 L 330 785 L 330 935 L 423 935 L 423 785 Z" unicode="Ġ" />
<glyph horiz-adv-x="582" d="M 36 0 L 36 0 Z M 254 9 C 190 9 138 33 97 83 C 56 132 36 197 36 277 C 36 360 56 427 98 477 C 139 527 192 552 256 552 C 297 552 333 541 363 520 C 393 499 413 473 424 442 L 424 544 L 516 544 L 516 54 C 516 10 508 -28 492 -60 C 476 -92 456 -118 431 -139 C 406 -159 378 -175 346 -185 C 314 -195 283 -200 253 -200 C 202 -200 162 -195 133 -186 C 104 -176 82 -167 68 -159 L 110 -75 C 122 -82 140 -90 163 -98 C 186 -106 213 -111 245 -111 C 293 -111 334 -96 368 -68 C 401 -39 418 2 418 57 L 418 131 C 413 117 406 102 397 88 C 387 74 376 61 362 49 C 348 37 331 27 313 20 C 295 12 275 9 254 9 Z M 282 94 C 299 94 316 97 333 105 C 349 112 364 123 377 139 C 389 154 399 174 407 198 C 415 222 419 250 419 283 C 419 341 406 385 380 415 C 354 445 321 461 283 461 C 241 461 207 444 181 412 C 155 379 142 333 142 273 C 142 215 154 170 179 140 C 203 109 238 94 282 94 Z M 276 599 L 276 599 Z M 323 599 L 230 599 L 230 749 L 323 749 L 323 599 Z" unicode="ġ" />
<glyph horiz-adv-x="710" d="M 42 0 L 42 0 Z M 375 369 L 664 369 L 664 142 C 638 96 599 59 549 31 C 498 3 440 -10 374 -10 C 328 -10 284 -1 244 16 C 203 33 168 58 138 90 C 108 122 85 162 68 208 C 50 254 42 307 42 365 C 42 422 50 474 67 520 C 84 566 107 606 137 638 C 167 670 202 695 243 713 C 283 731 327 740 374 740 C 441 740 495 728 535 704 C 575 680 606 654 627 624 L 550 551 C 532 574 510 595 483 613 C 456 631 420 640 374 640 C 342 640 313 634 286 623 C 258 611 235 594 215 572 C 195 549 179 520 168 486 C 156 451 151 411 151 366 C 151 320 156 279 168 243 C 180 207 196 178 216 154 C 236 130 260 111 288 99 C 315 86 344 80 376 80 C 418 80 456 88 490 104 C 524 120 548 143 564 174 L 564 276 L 375 276 L 375 369 Z" unicode="Ģ" />
<glyph horiz-adv-x="582" d="M 36 0 L 36 0 Z M 254 9 C 190 9 138 33 97 83 C 56 132 36 197 36 277 C 36 360 56 427 98 477 C 139 527 192 552 256 552 C 297 552 333 541 363 520 C 393 499 413 473 424 442 L 424 544 L 516 544 L 516 54 C 516 10 508 -28 492 -60 C 476 -92 456 -118 431 -139 C 406 -159 378 -175 346 -185 C 314 -195 283 -200 253 -200 C 202 -200 162 -195 133 -186 C 104 -176 82 -167 68 -159 L 110 -75 C 122 -82 140 -90 163 -98 C 186 -106 213 -111 245 -111 C 293 -111 334 -96 368 -68 C 401 -39 418 2 418 57 L 418 131 C 413 117 406 102 397 88 C 387 74 376 61 362 49 C 348 37 331 27 313 20 C 295 12 275 9 254 9 Z M 282 94 C 299 94 316 97 333 105 C 349 112 364 123 377 139 C 389 154 399 174 407 198 C 415 222 419 250 419 283 C 419 341 406 385 380 415 C 354 445 321 461 283 461 C 241 461 207 444 181 412 C 155 379 142 333 142 273 C 142 215 154 170 179 140 C 203 109 238 94 282 94 Z" unicode="ģ" />
<glyph horiz-adv-x="690" d="M 81 0 L 81 0 Z M 608 0 L 498 0 L 498 314 L 191 314 L 191 0 L 81 0 L 81 730 L 191 730 L 191 407 L 498 407 L 498 730 L 608 730 L 608 0 Z M 343 784 L 343 784 Z M 507 784 L 415 784 L 343 889 L 270 784 L 180 784 L 295 955 L 392 955 L 507 784 Z" unicode="Ĥ" />
<glyph horiz-adv-x="564" d="M 70 0 L 70 0 Z M 499 0 L 398 0 L 398 378 C 398 405 388 426 369 442 C 349 458 325 466 297 466 C 281 466 266 463 251 459 C 236 455 223 448 211 439 C 199 429 190 417 183 403 C 175 389 172 372 172 353 L 172 0 L 70 0 L 70 800 L 164 800 L 164 455 C 172 483 190 507 220 526 C 250 544 287 554 331 554 C 353 554 375 550 396 544 C 416 538 434 528 449 516 C 464 504 476 488 485 470 C 494 452 499 431 499 407 L 499 0 Z M 316 854 L 316 854 Z M 480 854 L 388 854 L 316 959 L 243 854 L 153 854 L 268 1025 L 365 1025 L 480 854 Z" unicode="ĥ" />
<glyph horiz-adv-x="690" d="M 191 314 L 191 0 L 81 0 L 81 538 L 7 538 L 7 626 L 81 626 L 81 730 L 191 730 L 191 626 L 498 626 L 498 730 L 608 730 L 608 626 L 684 626 L 684 538 L 608 538 L 608 0 L 498 0 L 498 314 L 191 314 Z M 191 407 L 498 407 L 498 538 L 191 538 L 191 407 Z" unicode="Ħ" />
<glyph horiz-adv-x="564" d="M 172 353 L 172 0 L 70 0 L 70 618 L 9 618 L 9 706 L 70 706 L 70 800 L 164 800 L 164 706 L 313 706 L 313 618 L 164 618 L 164 455 C 172 483 190 507 220 526 C 250 544 287 554 331 554 C 353 554 375 550 396 544 C 416 538 434 528 449 516 C 464 504 476 488 485 470 C 494 452 499 431 499 407 L 499 0 L 398 0 L 398 378 C 398 405 388 426 369 442 C 349 458 325 466 297 466 C 281 466 266 463 251 459 C 236 455 223 448 211 439 C 199 429 190 417 183 403 C 175 389 172 372 172 353 Z" unicode="ħ" />
<glyph horiz-adv-x="280" d="M 0 0 L 0 0 Z M 195 0 L 85 0 L 85 730 L 195 730 L 195 0 Z M 140 789 L 140 789 Z M 232 929 L 311 929 C 311 881 303 846 289 823 C 275 800 255 789 230 789 C 212 789 195 792 181 800 C 167 807 154 814 143 822 C 132 829 122 836 112 844 C 102 851 93 855 83 855 C 73 855 64 849 58 839 C 51 828 47 813 47 793 L -32 793 C -32 840 -22 875 -2 899 C 18 922 38 934 60 934 C 77 934 92 930 105 922 C 117 914 130 906 142 898 C 151 890 160 884 170 878 C 179 872 188 869 197 869 C 205 869 213 874 220 884 C 227 894 231 909 232 929 Z" unicode="Ĩ" />
<glyph horiz-adv-x="247" d="M 0 0 L 0 0 Z M 175 0 L 72 0 L 72 544 L 175 544 L 175 0 Z M 123 603 L 123 603 Z M 215 743 L 294 743 C 294 695 286 660 272 637 C 258 614 238 603 213 603 C 195 603 178 606 164 614 C 150 621 137 628 126 636 C 115 643 105 650 95 658 C 85 665 76 669 66 669 C 56 669 47 663 41 653 C 34 642 30 627 30 607 L -49 607 C -49 654 -39 689 -19 713 C 1 736 21 748 43 748 C 60 748 75 744 88 736 C 100 728 113 720 125 712 C 134 704 143 698 153 692 C 162 686 171 683 180 683 C 188 683 196 688 203 698 C 210 708 214 723 215 743 Z" unicode="ĩ" />
<glyph horiz-adv-x="280" d="M 10 0 L 10 0 Z M 195 0 L 85 0 L 85 730 L 195 730 L 195 0 Z M 140 794 L 140 794 Z M 270 794 L 10 794 L 10 880 L 270 880 L 270 794 Z" unicode="Ī" />
<glyph horiz-adv-x="247" d="M 0 0 L 0 0 Z M 175 0 L 72 0 L 72 544 L 175 544 L 175 0 Z M 123 608 L 123 608 Z M 253 608 L -7 608 L -7 694 L 253 694 L 253 608 Z" unicode="ī" />
<glyph horiz-adv-x="280" d="M 0 0 L 0 0 Z M 195 0 L 85 0 L 85 730 L 195 730 L 195 0 Z M 140 787 L 140 787 Z M 209 946 L 293 946 C 289 890 273 850 245 825 C 217 799 182 787 140 787 C 98 787 63 799 35 825 C 7 850 -9 890 -13 946 L 72 946 C 74 920 80 899 90 883 C 100 867 117 860 140 860 C 162 860 179 867 190 883 C 200 898 207 919 209 946 Z" unicode="Ĭ" />
<glyph horiz-adv-x="247" d="M 0 0 L 0 0 Z M 175 0 L 72 0 L 72 544 L 175 544 L 175 0 Z M 123 601 L 123 601 Z M 192 760 L 276 760 C 272 704 256 664 228 639 C 200 613 165 601 123 601 C 81 601 46 613 18 639 C -10 664 -26 704 -30 760 L 55 760 C 57 734 63 713 73 697 C 83 681 100 674 123 674 C 145 674 162 681 173 697 C 183 712 190 733 192 760 Z" unicode="ĭ" />
<glyph horiz-adv-x="280" d="M 0 0 L 0 0 Z M 195 0 L 85 0 L 85 730 L 195 730 L 195 0 Z M 111 -7 L 111 -7 Z M 212 -91 L 241 -133 C 220 -154 197 -170 173 -181 C 149 -192 121 -198 91 -198 C 57 -198 30 -190 11 -176 C -8 -161 -18 -142 -18 -120 C -18 -96 -8 -74 10 -53 C 29 -31 56 -13 90 2 L 150 2 C 124 -11 104 -24 90 -38 C 76 -52 70 -65 70 -79 C 70 -92 75 -103 85 -111 C 95 -119 108 -123 124 -123 C 142 -123 159 -119 174 -113 C 188 -107 201 -99 212 -91 Z" unicode="Į" />
<glyph horiz-adv-x="247" d="M 0 0 L 0 0 Z M 70 647 L 70 753 L 177 753 L 177 647 L 70 647 Z M 72 0 L 72 544 L 175 544 L 175 0 L 72 0 Z M 93 -7 L 93 -7 Z M 194 -91 L 223 -133 C 202 -154 179 -170 155 -181 C 131 -192 103 -198 73 -198 C 39 -198 12 -190 -7 -176 C -26 -161 -36 -142 -36 -120 C -36 -96 -26 -74 -7 -53 C 11 -31 38 -13 72 2 L 132 2 C 106 -11 86 -24 72 -38 C 58 -52 52 -65 52 -79 C 52 -92 57 -103 67 -111 C 77 -119 90 -123 106 -123 C 124 -123 141 -119 156 -113 C 170 -107 183 -99 194 -91 Z" unicode="į" />
<glyph horiz-adv-x="280" d="M 85 0 L 85 0 Z M 195 0 L 85 0 L 85 730 L 195 730 L 195 0 Z M 140 785 L 140 785 Z M 187 785 L 94 785 L 94 935 L 187 935 L 187 785 Z" unicode="İ" />
<glyph horiz-adv-x="247" d="M 175 0 L 72 0 L 72 544 L 175 544 L 175 0 Z" unicode="ı" />
<glyph horiz-adv-x="602" d="M 85 0 L 85 0 Z M 195 0 L 85 0 L 85 730 L 195 730 L 195 0 Z M 529 730 L 529 191 C 529 163 524 137 515 113 C 506 88 493 66 476 48 C 459 30 438 15 413 5 C 387 -5 358 -11 326 -11 C 309 -11 290 -9 269 -6 C 247 -2 231 3 220 11 L 255 97 C 260 94 268 92 279 90 C 290 88 301 87 312 87 C 346 87 372 98 391 120 C 409 142 419 169 419 200 L 419 730 L 529 730 Z" unicode="Ĳ" />
<glyph horiz-adv-x="472" d="M 70 0 L 70 0 Z M 70 647 L 70 753 L 177 753 L 177 647 L 70 647 Z M 72 0 L 72 544 L 175 544 L 175 0 L 72 0 Z M 407 647 L 301 647 L 301 753 L 407 753 L 407 647 Z M 405 544 L 405 -20 C 405 -74 390 -115 361 -145 C 332 -175 297 -190 255 -190 C 231 -190 207 -186 185 -180 C 162 -174 144 -166 131 -157 L 164 -82 C 173 -86 184 -90 198 -94 C 211 -98 226 -100 243 -100 C 259 -100 273 -91 285 -75 C 297 -58 303 -37 303 -12 L 303 544 L 405 544 Z" unicode="ĳ" />
<glyph horiz-adv-x="388" d="M 1 0 L 1 0 Z M 310 730 L 310 191 C 310 163 305 137 296 113 C 287 88 274 66 257 48 C 240 30 219 15 194 5 C 168 -5 139 -11 107 -11 C 90 -11 71 -9 50 -6 C 28 -2 12 3 1 11 L 36 97 C 41 94 49 92 60 90 C 71 88 82 87 93 87 C 127 87 153 98 172 120 C 190 142 200 169 200 200 L 200 730 L 310 730 Z M 253 784 L 253 784 Z M 417 784 L 325 784 L 253 889 L 180 784 L 90 784 L 205 955 L 302 955 L 417 784 Z" unicode="Ĵ" />
<glyph horiz-adv-x="281" d="M 0 0 L 0 0 Z M 214 544 L 214 -20 C 214 -74 199 -116 170 -146 C 140 -176 105 -191 63 -191 C 39 -191 15 -187 -7 -181 C -29 -175 -47 -167 -61 -159 L -28 -83 C -18 -87 -7 -92 6 -96 C 19 -100 34 -102 51 -102 C 68 -102 82 -93 94 -76 C 106 -59 112 -38 112 -12 L 112 544 L 214 544 Z M 159 598 L 159 598 Z M 323 598 L 231 598 L 159 703 L 86 598 L -4 598 L 111 769 L 208 769 L 323 598 Z" unicode="ĵ" />
<glyph horiz-adv-x="621" d="M 81 0 L 81 0 Z M 615 0 L 485 0 L 267 322 L 191 228 L 191 0 L 81 0 L 81 730 L 191 730 L 191 363 L 465 730 L 583 730 L 340 407 L 615 0 Z M 308 -73 L 308 -73 Z M 403 -73 C 401 -101 396 -128 389 -156 C 382 -184 373 -209 363 -233 C 352 -257 340 -278 328 -298 C 315 -317 302 -332 290 -343 L 213 -309 C 220 -300 228 -287 237 -270 C 246 -253 255 -234 263 -213 C 271 -192 278 -169 284 -145 C 290 -120 295 -96 297 -73 L 403 -73 Z" unicode="Ķ" />
<glyph horiz-adv-x="518" d="M 70 0 L 70 0 Z M 536 2 L 422 -1 L 254 237 L 172 145 L 172 0 L 70 0 L 70 800 L 170 800 L 170 259 L 392 544 L 501 544 L 322 314 L 536 2 Z M 263 -73 L 263 -73 Z M 358 -73 C 356 -101 351 -128 344 -156 C 337 -184 328 -209 318 -233 C 307 -257 295 -278 283 -298 C 270 -317 257 -332 245 -343 L 168 -309 C 175 -300 183 -287 192 -270 C 201 -253 210 -234 218 -213 C 226 -192 233 -169 239 -145 C 245 -120 250 -96 252 -73 L 358 -73 Z" unicode="ķ" />
<glyph horiz-adv-x="518" d="M 536 2 L 422 -1 L 254 237 L 172 145 L 172 0 L 70 0 L 70 544 L 170 544 L 170 259 L 392 544 L 501 544 L 322 314 L 536 2 Z" unicode="ĸ" />
<glyph horiz-adv-x="480" d="M 81 0 L 81 0 Z M 470 0 L 81 0 L 81 730 L 191 730 L 191 96 L 470 96 L 470 0 Z M 323 789 L 323 789 Z M 215 789 L 313 955 L 433 955 L 315 789 L 215 789 Z" unicode="Ĺ" />
<glyph horiz-adv-x="281" d="M 65 0 L 65 0 Z M 65 124 L 65 800 L 167 800 L 167 152 C 167 131 172 115 182 103 C 192 91 208 86 229 86 C 235 86 243 86 251 87 C 259 88 265 89 270 91 L 276 4 C 269 1 259 -1 246 -3 C 232 -5 219 -6 205 -6 C 168 -6 135 4 107 26 C 79 48 65 80 65 124 Z M 182 859 L 182 859 Z M 74 859 L 172 1025 L 292 1025 L 174 859 L 74 859 Z" unicode="ĺ" />
<glyph horiz-adv-x="480" d="M 81 0 L 81 0 Z M 470 0 L 81 0 L 81 730 L 191 730 L 191 96 L 470 96 L 470 0 Z M 259 -73 L 259 -73 Z M 354 -73 C 352 -101 347 -128 340 -156 C 333 -184 324 -209 314 -233 C 303 -257 291 -278 279 -298 C 266 -317 253 -332 241 -343 L 164 -309 C 171 -300 179 -287 188 -270 C 197 -253 206 -234 214 -213 C 222 -192 229 -169 235 -145 C 241 -120 246 -96 248 -73 L 354 -73 Z" unicode="Ļ" />
<glyph horiz-adv-x="281" d="M 37 0 L 37 0 Z M 65 124 L 65 800 L 167 800 L 167 152 C 167 131 172 115 182 103 C 192 91 208 86 229 86 C 235 86 243 86 251 87 C 259 88 265 89 270 91 L 276 4 C 269 1 259 -1 246 -3 C 232 -5 219 -6 205 -6 C 168 -6 135 4 107 26 C 79 48 65 80 65 124 Z M 132 -73 L 132 -73 Z M 227 -73 C 225 -101 220 -128 213 -156 C 206 -184 197 -209 187 -233 C 176 -257 164 -278 152 -298 C 139 -317 126 -332 114 -343 L 37 -309 C 44 -300 52 -287 61 -270 C 70 -253 79 -234 87 -213 C 95 -192 102 -169 108 -145 C 114 -120 119 -96 121 -73 L 227 -73 Z" unicode="ļ" />
<glyph horiz-adv-x="480" d="M 81 0 L 81 0 Z M 470 0 L 81 0 L 81 730 L 191 730 L 191 96 L 470 96 L 470 0 Z M 502 606 L 497 457 L 411 457 L 406 606 L 406 730 L 502 730 L 502 606 Z" unicode="Ľ" />
<glyph horiz-adv-x="281" d="M 65 0 L 65 0 Z M 65 124 L 65 800 L 167 800 L 167 152 C 167 131 172 115 182 103 C 192 91 208 86 229 86 C 235 86 243 86 251 87 C 259 88 265 89 270 91 L 276 4 C 269 1 259 -1 246 -3 C 232 -5 219 -6 205 -6 C 168 -6 135 4 107 26 C 79 48 65 80 65 124 Z M 313 606 L 308 457 L 222 457 L 217 606 L 217 730 L 313 730 L 313 606 Z" unicode="ľ" />
<glyph horiz-adv-x="480" d="M 81 0 L 81 0 Z M 470 0 L 81 0 L 81 730 L 191 730 L 191 96 L 470 96 L 470 0 Z M 330 289 L 330 289 Z M 377 289 L 284 289 L 284 439 L 377 439 L 377 289 Z" unicode="Ŀ" />
<glyph horiz-adv-x="281" d="M 65 0 L 65 0 Z M 65 124 L 65 800 L 167 800 L 167 152 C 167 131 172 115 182 103 C 192 91 208 86 229 86 C 235 86 243 86 251 87 C 259 88 265 89 270 91 L 276 4 C 269 1 259 -1 246 -3 C 232 -5 219 -6 205 -6 C 168 -6 135 4 107 26 C 79 48 65 80 65 124 Z M 266 238 L 266 238 Z M 313 238 L 220 238 L 220 388 L 313 388 L 313 238 Z" unicode="ŀ" />
<glyph horiz-adv-x="480" d="M 448 90 L 448 0 L 81 0 L 81 263 L 31 242 L -6 320 L 81 356 L 81 730 L 191 730 L 191 402 L 353 470 L 388 392 L 191 309 L 191 90 L 448 90 Z" unicode="Ł" />
<glyph horiz-adv-x="281" d="M 279 4 C 273 1 263 -1 249 -3 C 235 -5 222 -6 210 -6 C 173 -6 141 4 113 26 C 85 48 71 80 71 124 L 71 265 L 22 242 L -6 309 L 71 346 L 71 800 L 173 800 L 173 395 L 251 433 L 281 366 L 173 314 L 173 153 C 173 132 178 116 188 104 C 198 92 212 86 232 86 C 238 86 246 86 254 87 C 262 88 268 89 273 91 L 279 4 Z" unicode="ł" />
<glyph horiz-adv-x="705" d="M 81 0 L 81 0 Z M 624 0 L 545 0 L 184 516 L 184 0 L 81 0 L 81 730 L 163 730 L 524 215 L 524 730 L 624 730 L 624 0 Z M 352 789 L 352 789 Z M 244 789 L 342 955 L 462 955 L 344 789 L 244 789 Z" unicode="Ń" />
<glyph horiz-adv-x="564" d="M 70 0 L 70 0 Z M 499 0 L 397 0 L 397 380 C 397 407 387 428 367 443 C 347 458 324 466 298 466 C 283 466 268 463 253 459 C 238 455 225 448 213 439 C 201 429 191 417 183 403 C 175 388 172 371 172 352 L 172 0 L 70 0 L 70 544 L 158 544 L 158 443 C 168 475 189 502 220 523 C 251 543 289 554 333 554 C 355 554 377 550 397 544 C 417 538 435 529 450 517 C 465 505 477 490 486 472 C 494 454 499 435 499 413 L 499 0 Z M 296 603 L 296 603 Z M 188 603 L 286 769 L 406 769 L 288 603 L 188 603 Z" unicode="ń" />
<glyph horiz-adv-x="705" d="M 81 0 L 81 0 Z M 624 0 L 545 0 L 184 516 L 184 0 L 81 0 L 81 730 L 163 730 L 524 215 L 524 730 L 624 730 L 624 0 Z M 331 -73 L 331 -73 Z M 426 -73 C 424 -101 419 -128 412 -156 C 405 -184 396 -209 386 -233 C 375 -257 363 -278 351 -298 C 338 -317 325 -332 313 -343 L 236 -309 C 243 -300 251 -287 260 -270 C 269 -253 278 -234 286 -213 C 294 -192 301 -169 307 -145 C 313 -120 318 -96 320 -73 L 426 -73 Z" unicode="Ņ" />
<glyph horiz-adv-x="564" d="M 70 0 L 70 0 Z M 499 0 L 397 0 L 397 380 C 397 407 387 428 367 443 C 347 458 324 466 298 466 C 283 466 268 463 253 459 C 238 455 225 448 213 439 C 201 429 191 417 183 403 C 175 388 172 371 172 352 L 172 0 L 70 0 L 70 544 L 158 544 L 158 443 C 168 475 189 502 220 523 C 251 543 289 554 333 554 C 355 554 377 550 397 544 C 417 538 435 529 450 517 C 465 505 477 490 486 472 C 494 454 499 435 499 413 L 499 0 Z M 262 -73 L 262 -73 Z M 357 -73 C 355 -101 350 -128 343 -156 C 336 -184 327 -209 317 -233 C 306 -257 294 -278 282 -298 C 269 -317 256 -332 244 -343 L 167 -309 C 174 -300 182 -287 191 -270 C 200 -253 209 -234 217 -213 C 225 -192 232 -169 238 -145 C 244 -120 249 -96 251 -73 L 357 -73 Z" unicode="ņ" />
<glyph horiz-adv-x="705" d="M 81 0 L 81 0 Z M 624 0 L 545 0 L 184 516 L 184 0 L 81 0 L 81 730 L 163 730 L 524 215 L 524 730 L 624 730 L 624 0 Z M 352 784 L 352 784 Z M 189 955 L 281 955 L 353 850 L 426 955 L 516 955 L 401 784 L 304 784 L 189 955 Z" unicode="Ň" />
<glyph horiz-adv-x="564" d="M 70 0 L 70 0 Z M 499 0 L 397 0 L 397 380 C 397 407 387 428 367 443 C 347 458 324 466 298 466 C 283 466 268 463 253 459 C 238 455 225 448 213 439 C 201 429 191 417 183 403 C 175 388 172 371 172 352 L 172 0 L 70 0 L 70 544 L 158 544 L 158 443 C 168 475 189 502 220 523 C 251 543 289 554 333 554 C 355 554 377 550 397 544 C 417 538 435 529 450 517 C 465 505 477 490 486 472 C 494 454 499 435 499 413 L 499 0 Z M 296 598 L 296 598 Z M 133 769 L 225 769 L 297 664 L 370 769 L 460 769 L 345 598 L 248 598 L 133 769 Z" unicode="ň" />
<glyph horiz-adv-x="705" d="M 524 730 L 624 730 L 624 0 L 624 0 C 624 -62 607 -111 575 -147 C 543 -182 502 -200 452 -200 C 429 -200 406 -197 383 -192 C 359 -187 340 -180 326 -171 L 355 -86 C 365 -92 378 -96 392 -100 C 406 -104 423 -106 441 -106 C 464 -106 484 -94 500 -72 C 516 -49 524 -21 524 12 L 524 30 L 184 516 L 184 0 L 81 0 L 81 730 L 163 730 L 524 215 L 524 730 Z" unicode="Ŋ" />
<glyph horiz-adv-x="564" d="M 333 554 C 355 554 377 550 397 544 C 417 538 435 529 450 517 C 465 505 477 490 486 472 C 494 454 499 435 499 413 L 499 -3 C 499 -65 483 -114 452 -148 C 420 -182 381 -200 333 -200 C 310 -200 287 -197 265 -192 C 242 -187 223 -180 209 -171 L 238 -87 C 248 -92 260 -96 274 -100 C 288 -104 304 -106 322 -106 C 344 -106 362 -95 376 -73 C 390 -51 397 -24 397 8 L 397 380 C 397 407 387 428 367 443 C 347 458 324 466 298 466 C 283 466 268 463 253 459 C 238 455 225 448 213 439 C 201 429 191 417 183 403 C 175 388 172 371 172 352 L 172 0 L 70 0 L 70 544 L 158 544 L 158 443 C 168 475 189 502 220 523 C 251 543 289 554 333 554 Z" unicode="ŋ" />
<glyph horiz-adv-x="750" d="M 42 0 L 42 0 Z M 378 -10 C 327 -10 281 0 240 17 C 198 35 163 61 134 95 C 104 128 82 168 66 215 C 50 262 42 314 42 370 C 42 425 50 475 67 521 C 83 567 106 606 135 638 C 164 670 199 695 239 713 C 279 731 323 740 371 740 C 421 740 467 731 509 713 C 551 695 586 670 616 638 C 646 606 669 566 685 520 C 701 474 709 423 709 367 C 709 310 700 258 683 212 C 665 165 642 125 612 93 C 582 60 547 35 507 17 C 467 -1 424 -10 378 -10 Z M 383 82 C 414 82 443 88 469 100 C 495 112 518 130 538 154 C 557 178 572 207 583 243 C 593 279 599 320 599 366 C 599 409 593 448 581 482 C 569 516 553 546 533 570 C 513 594 488 612 460 625 C 431 638 400 645 367 645 C 303 645 252 621 212 574 C 172 527 152 459 152 370 C 152 324 158 283 170 247 C 182 211 198 180 219 156 C 239 132 264 113 292 101 C 320 88 351 82 383 82 Z M 371 794 L 371 794 Z M 501 794 L 241 794 L 241 880 L 501 880 L 501 794 Z" unicode="Ō" />
<glyph horiz-adv-x="572" d="M 35 0 L 35 0 Z M 283 -9 C 249 -9 218 -2 188 9 C 158 21 131 39 109 63 C 86 86 68 115 55 150 C 41 185 35 225 35 270 C 35 311 41 349 54 384 C 67 419 85 449 107 474 C 129 499 156 519 186 533 C 216 547 249 554 283 554 C 319 554 352 547 384 535 C 415 523 442 505 465 482 C 487 459 505 431 518 397 C 531 363 538 326 538 285 C 538 241 531 200 518 164 C 505 128 487 97 464 72 C 441 46 414 26 383 12 C 352 -1 319 -9 283 -9 Z M 287 82 C 331 82 366 99 392 134 C 418 168 432 216 432 278 C 432 336 418 381 391 413 C 363 445 327 462 282 462 C 240 462 206 445 180 411 C 154 377 141 331 141 271 C 141 207 155 159 183 128 C 211 97 245 82 287 82 Z M 285 608 L 285 608 Z M 415 608 L 155 608 L 155 694 L 415 694 L 415 608 Z" unicode="ō" />
<glyph horiz-adv-x="750" d="M 42 0 L 42 0 Z M 378 -10 C 327 -10 281 0 240 17 C 198 35 163 61 134 95 C 104 128 82 168 66 215 C 50 262 42 314 42 370 C 42 425 50 475 67 521 C 83 567 106 606 135 638 C 164 670 199 695 239 713 C 279 731 323 740 371 740 C 421 740 467 731 509 713 C 551 695 586 670 616 638 C 646 606 669 566 685 520 C 701 474 709 423 709 367 C 709 310 700 258 683 212 C 665 165 642 125 612 93 C 582 60 547 35 507 17 C 467 -1 424 -10 378 -10 Z M 383 82 C 414 82 443 88 469 100 C 495 112 518 130 538 154 C 557 178 572 207 583 243 C 593 279 599 320 599 366 C 599 409 593 448 581 482 C 569 516 553 546 533 570 C 513 594 488 612 460 625 C 431 638 400 645 367 645 C 303 645 252 621 212 574 C 172 527 152 459 152 370 C 152 324 158 283 170 247 C 182 211 198 180 219 156 C 239 132 264 113 292 101 C 320 88 351 82 383 82 Z M 371 787 L 371 787 Z M 440 946 L 524 946 C 520 890 504 850 476 825 C 448 799 413 787 371 787 C 329 787 294 799 266 825 C 238 850 222 890 218 946 L 303 946 C 305 920 311 899 321 883 C 331 867 348 860 371 860 C 393 860 410 867 421 883 C 431 898 438 919 440 946 Z" unicode="Ŏ" />
<glyph horiz-adv-x="572" d="M 35 0 L 35 0 Z M 283 -9 C 249 -9 218 -2 188 9 C 158 21 131 39 109 63 C 86 86 68 115 55 150 C 41 185 35 225 35 270 C 35 311 41 349 54 384 C 67 419 85 449 107 474 C 129 499 156 519 186 533 C 216 547 249 554 283 554 C 319 554 352 547 384 535 C 415 523 442 505 465 482 C 487 459 505 431 518 397 C 531 363 538 326 538 285 C 538 241 531 200 518 164 C 505 128 487 97 464 72 C 441 46 414 26 383 12 C 352 -1 319 -9 283 -9 Z M 287 82 C 331 82 366 99 392 134 C 418 168 432 216 432 278 C 432 336 418 381 391 413 C 363 445 327 462 282 462 C 240 462 206 445 180 411 C 154 377 141 331 141 271 C 141 207 155 159 183 128 C 211 97 245 82 287 82 Z M 285 601 L 285 601 Z M 354 760 L 438 760 C 434 704 418 664 390 639 C 362 613 327 601 285 601 C 243 601 208 613 180 639 C 152 664 136 704 132 760 L 217 760 C 219 734 225 713 235 697 C 245 681 262 674 285 674 C 307 674 324 681 335 697 C 345 712 352 733 354 760 Z" unicode="ŏ" />
<glyph horiz-adv-x="750" d="M 42 0 L 42 0 Z M 378 -10 C 327 -10 281 0 240 17 C 198 35 163 61 134 95 C 104 128 82 168 66 215 C 50 262 42 314 42 370 C 42 425 50 475 67 521 C 83 567 106 606 135 638 C 164 670 199 695 239 713 C 279 731 323 740 371 740 C 421 740 467 731 509 713 C 551 695 586 670 616 638 C 646 606 669 566 685 520 C 701 474 709 423 709 367 C 709 310 700 258 683 212 C 665 165 642 125 612 93 C 582 60 547 35 507 17 C 467 -1 424 -10 378 -10 Z M 383 82 C 414 82 443 88 469 100 C 495 112 518 130 538 154 C 557 178 572 207 583 243 C 593 279 599 320 599 366 C 599 409 593 448 581 482 C 569 516 553 546 533 570 C 513 594 488 612 460 625 C 431 638 400 645 367 645 C 303 645 252 621 212 574 C 172 527 152 459 152 370 C 152 324 158 283 170 247 C 182 211 198 180 219 156 C 239 132 264 113 292 101 C 320 88 351 82 383 82 Z M 371 783 L 371 783 Z M 181 783 L 266 937 L 374 937 L 271 783 L 181 783 Z M 367 783 L 453 937 L 561 937 L 457 783 L 367 783 Z" unicode="Ő" />
<glyph horiz-adv-x="572" d="M 35 0 L 35 0 Z M 283 -9 C 249 -9 218 -2 188 9 C 158 21 131 39 109 63 C 86 86 68 115 55 150 C 41 185 35 225 35 270 C 35 311 41 349 54 384 C 67 419 85 449 107 474 C 129 499 156 519 186 533 C 216 547 249 554 283 554 C 319 554 352 547 384 535 C 415 523 442 505 465 482 C 487 459 505 431 518 397 C 531 363 538 326 538 285 C 538 241 531 200 518 164 C 505 128 487 97 464 72 C 441 46 414 26 383 12 C 352 -1 319 -9 283 -9 Z M 287 82 C 331 82 366 99 392 134 C 418 168 432 216 432 278 C 432 336 418 381 391 413 C 363 445 327 462 282 462 C 240 462 206 445 180 411 C 154 377 141 331 141 271 C 141 207 155 159 183 128 C 211 97 245 82 287 82 Z M 285 597 L 285 597 Z M 95 597 L 180 751 L 288 751 L 185 597 L 95 597 Z M 281 597 L 367 751 L 475 751 L 371 597 L 281 597 Z" unicode="ő" />
<glyph horiz-adv-x="1034" d="M 360 -10 C 312 -10 268 -1 229 17 C 189 35 156 60 129 93 C 101 126 80 166 65 213 C 49 260 42 312 42 370 C 42 424 50 473 66 519 C 82 565 105 604 134 636 C 162 668 196 694 236 712 C 275 730 317 740 363 740 C 387 740 412 736 436 729 C 460 721 482 711 502 699 C 522 686 540 671 556 653 C 571 635 582 617 590 597 L 590 730 L 974 730 L 974 634 L 693 634 L 693 411 L 961 411 L 961 319 L 693 319 L 693 96 L 993 96 L 993 0 L 590 0 L 590 146 C 575 103 547 66 507 36 C 467 5 418 -10 360 -10 Z M 373 78 C 404 78 433 84 460 96 C 486 108 509 126 528 150 C 547 174 562 204 573 241 C 584 277 590 320 590 369 C 590 415 583 456 571 491 C 558 526 541 555 521 579 C 500 602 476 619 450 631 C 424 642 397 648 371 648 C 307 648 255 623 215 575 C 174 527 154 456 154 364 C 154 316 159 275 171 239 C 182 203 197 173 217 149 C 236 125 259 108 286 96 C 313 84 342 78 373 78 Z" unicode="Œ" />
<glyph horiz-adv-x="946" d="M 283 -9 C 249 -9 218 -2 188 9 C 158 21 131 39 109 63 C 86 86 68 115 55 150 C 41 185 35 225 35 270 C 35 310 41 348 54 383 C 67 418 85 448 107 473 C 129 498 156 518 186 532 C 216 546 249 554 283 554 C 312 554 338 549 361 541 C 383 532 403 521 419 508 C 435 494 448 479 458 463 C 468 447 475 431 479 417 C 481 431 488 446 499 462 C 510 478 524 492 541 506 C 558 519 578 530 601 539 C 624 548 649 553 676 553 C 748 553 805 525 848 471 C 890 417 912 340 913 242 L 531 242 C 531 196 545 157 573 127 C 601 97 638 82 683 82 C 719 82 750 89 774 103 C 798 117 817 134 832 152 L 890 85 C 868 60 841 38 809 19 C 776 0 734 -9 682 -9 C 655 -9 630 -5 607 3 C 583 11 563 21 545 34 C 527 46 512 60 500 76 C 488 92 481 107 477 123 C 473 108 465 93 455 77 C 445 61 431 47 415 35 C 398 22 378 11 356 3 C 334 -4 309 -9 283 -9 Z M 531 315 L 810 315 C 809 361 796 397 770 425 C 744 452 711 466 672 466 C 632 466 599 451 573 423 C 547 394 533 358 531 315 Z M 287 81 C 331 81 366 98 392 133 C 418 167 432 216 432 278 C 432 336 418 381 391 413 C 363 445 327 462 282 462 C 240 462 206 445 180 411 C 154 377 141 331 141 271 C 141 207 155 159 183 128 C 211 96 245 81 287 81 Z" unicode="œ" />
<glyph horiz-adv-x="572" d="M 81 0 L 81 0 Z M 81 0 L 81 730 L 292 730 C 321 730 348 725 374 717 C 399 708 421 695 440 679 C 458 662 473 641 484 616 C 494 591 500 563 500 531 C 500 501 496 475 488 451 C 480 427 469 407 455 390 C 441 373 426 359 408 349 C 390 339 371 332 352 330 L 350 325 L 557 0 L 433 0 L 249 302 L 188 302 L 188 0 L 81 0 Z M 186 392 L 268 392 C 303 392 332 402 356 424 C 380 446 392 477 392 519 C 392 559 380 589 358 610 C 336 630 308 641 274 641 L 186 641 L 186 392 Z M 280 789 L 280 789 Z M 172 789 L 270 955 L 390 955 L 272 789 L 172 789 Z" unicode="Ŕ" />
<glyph horiz-adv-x="420" d="M 70 0 L 70 0 Z M 425 524 L 377 432 C 367 442 356 449 342 454 C 328 459 313 462 295 462 C 280 462 265 459 251 453 C 236 447 223 439 211 428 C 199 416 190 402 183 386 C 175 369 172 350 172 329 L 172 0 L 70 0 L 70 544 L 164 544 L 164 437 C 172 467 190 494 219 518 C 248 542 283 554 325 554 C 347 554 367 551 384 545 C 401 539 415 532 425 524 Z M 255 603 L 255 603 Z M 147 603 L 245 769 L 365 769 L 247 603 L 147 603 Z" unicode="ŕ" />
<glyph horiz-adv-x="572" d="M 81 0 L 81 0 Z M 81 0 L 81 730 L 292 730 C 321 730 348 725 374 717 C 399 708 421 695 440 679 C 458 662 473 641 484 616 C 494 591 500 563 500 531 C 500 501 496 475 488 451 C 480 427 469 407 455 390 C 441 373 426 359 408 349 C 390 339 371 332 352 330 L 350 325 L 557 0 L 433 0 L 249 302 L 188 302 L 188 0 L 81 0 Z M 186 392 L 268 392 C 303 392 332 402 356 424 C 380 446 392 477 392 519 C 392 559 380 589 358 610 C 336 630 308 641 274 641 L 186 641 L 186 392 Z M 272 -73 L 272 -73 Z M 367 -73 C 365 -101 360 -128 353 -156 C 346 -184 337 -209 327 -233 C 316 -257 304 -278 292 -298 C 279 -317 266 -332 254 -343 L 177 -309 C 184 -300 192 -287 201 -270 C 210 -253 219 -234 227 -213 C 235 -192 242 -169 248 -145 C 254 -120 259 -96 261 -73 L 367 -73 Z" unicode="Ŗ" />
<glyph horiz-adv-x="420" d="M 70 0 L 70 0 Z M 425 524 L 377 432 C 367 442 356 449 342 454 C 328 459 313 462 295 462 C 280 462 265 459 251 453 C 236 447 223 439 211 428 C 199 416 190 402 183 386 C 175 369 172 350 172 329 L 172 0 L 70 0 L 70 544 L 164 544 L 164 437 C 172 467 190 494 219 518 C 248 542 283 554 325 554 C 347 554 367 551 384 545 C 401 539 415 532 425 524 Z M 231 -73 L 231 -73 Z M 326 -73 C 324 -101 319 -128 312 -156 C 305 -184 296 -209 286 -233 C 275 -257 263 -278 251 -298 C 238 -317 225 -332 213 -343 L 136 -309 C 143 -300 151 -287 160 -270 C 169 -253 178 -234 186 -213 C 194 -192 201 -169 207 -145 C 213 -120 218 -96 220 -73 L 326 -73 Z" unicode="ŗ" />
<glyph horiz-adv-x="572" d="M 81 0 L 81 0 Z M 81 0 L 81 730 L 292 730 C 321 730 348 725 374 717 C 399 708 421 695 440 679 C 458 662 473 641 484 616 C 494 591 500 563 500 531 C 500 501 496 475 488 451 C 480 427 469 407 455 390 C 441 373 426 359 408 349 C 390 339 371 332 352 330 L 350 325 L 557 0 L 433 0 L 249 302 L 188 302 L 188 0 L 81 0 Z M 186 392 L 268 392 C 303 392 332 402 356 424 C 380 446 392 477 392 519 C 392 559 380 589 358 610 C 336 630 308 641 274 641 L 186 641 L 186 392 Z M 280 784 L 280 784 Z M 117 955 L 209 955 L 281 850 L 354 955 L 444 955 L 329 784 L 232 784 L 117 955 Z" unicode="Ř" />
<glyph horiz-adv-x="420" d="M 70 0 L 70 0 Z M 425 524 L 377 432 C 367 442 356 449 342 454 C 328 459 313 462 295 462 C 280 462 265 459 251 453 C 236 447 223 439 211 428 C 199 416 190 402 183 386 C 175 369 172 350 172 329 L 172 0 L 70 0 L 70 544 L 164 544 L 164 437 C 172 467 190 494 219 518 C 248 542 283 554 325 554 C 347 554 367 551 384 545 C 401 539 415 532 425 524 Z M 255 598 L 255 598 Z M 92 769 L 184 769 L 256 664 L 329 769 L 419 769 L 304 598 L 207 598 L 92 769 Z" unicode="ř" />
<glyph horiz-adv-x="544" d="M 33 0 L 33 0 Z M 275 -10 C 220 -10 173 -2 133 13 C 93 28 59 50 33 79 L 105 158 C 122 134 146 115 178 101 C 209 86 242 79 276 79 C 308 79 335 88 359 106 C 382 124 394 148 394 178 C 394 208 383 234 363 255 C 342 276 305 299 251 325 C 215 340 185 355 160 371 C 135 386 115 402 99 420 C 83 437 72 457 65 479 C 58 501 55 527 55 557 C 55 613 75 657 115 690 C 155 723 207 740 270 740 C 319 740 360 732 394 716 C 427 700 454 683 476 664 L 412 582 C 391 599 368 613 343 625 C 318 636 292 642 264 642 C 234 642 209 634 189 619 C 169 604 159 583 159 555 C 159 524 170 499 193 481 C 215 462 255 439 311 413 C 380 381 428 349 456 316 C 484 283 498 240 498 186 C 498 154 492 126 480 102 C 468 78 451 57 431 41 C 411 24 387 11 360 3 C 332 -5 304 -10 275 -10 Z M 268 789 L 268 789 Z M 160 789 L 258 955 L 378 955 L 260 789 L 160 789 Z" unicode="Ś" />
<glyph horiz-adv-x="448" d="M 31 0 L 31 0 Z M 240 -9 C 194 -9 154 -2 118 10 C 82 23 53 40 31 62 L 79 132 C 99 115 122 101 150 91 C 178 80 205 75 232 75 C 255 75 275 81 292 95 C 309 108 318 125 318 147 C 318 166 309 183 291 197 C 273 211 242 227 198 243 C 146 261 108 283 86 310 C 64 337 53 371 53 411 C 53 453 69 487 103 514 C 136 540 178 554 228 554 C 273 554 310 548 339 536 C 367 524 390 512 406 500 L 369 420 C 350 432 330 444 308 454 C 286 464 262 469 237 469 C 214 469 194 463 177 453 C 159 442 151 427 151 409 C 151 390 158 375 172 363 C 186 351 217 337 263 319 C 317 298 356 275 380 249 C 404 223 417 190 417 148 C 417 122 412 100 402 80 C 392 60 379 44 363 31 C 347 18 328 8 307 1 C 285 -5 263 -9 240 -9 Z M 230 603 L 230 603 Z M 122 603 L 220 769 L 340 769 L 222 603 L 122 603 Z" unicode="ś" />
<glyph horiz-adv-x="544" d="M 33 0 L 33 0 Z M 275 -10 C 220 -10 173 -2 133 13 C 93 28 59 50 33 79 L 105 158 C 122 134 146 115 178 101 C 209 86 242 79 276 79 C 308 79 335 88 359 106 C 382 124 394 148 394 178 C 394 208 383 234 363 255 C 342 276 305 299 251 325 C 215 340 185 355 160 371 C 135 386 115 402 99 420 C 83 437 72 457 65 479 C 58 501 55 527 55 557 C 55 613 75 657 115 690 C 155 723 207 740 270 740 C 319 740 360 732 394 716 C 427 700 454 683 476 664 L 412 582 C 391 599 368 613 343 625 C 318 636 292 642 264 642 C 234 642 209 634 189 619 C 169 604 159 583 159 555 C 159 524 170 499 193 481 C 215 462 255 439 311 413 C 380 381 428 349 456 316 C 484 283 498 240 498 186 C 498 154 492 126 480 102 C 468 78 451 57 431 41 C 411 24 387 11 360 3 C 332 -5 304 -10 275 -10 Z M 268 784 L 268 784 Z M 432 784 L 340 784 L 268 889 L 195 784 L 105 784 L 220 955 L 317 955 L 432 784 Z" unicode="Ŝ" />
<glyph horiz-adv-x="448" d="M 31 0 L 31 0 Z M 240 -9 C 194 -9 154 -2 118 10 C 82 23 53 40 31 62 L 79 132 C 99 115 122 101 150 91 C 178 80 205 75 232 75 C 255 75 275 81 292 95 C 309 108 318 125 318 147 C 318 166 309 183 291 197 C 273 211 242 227 198 243 C 146 261 108 283 86 310 C 64 337 53 371 53 411 C 53 453 69 487 103 514 C 136 540 178 554 228 554 C 273 554 310 548 339 536 C 367 524 390 512 406 500 L 369 420 C 350 432 330 444 308 454 C 286 464 262 469 237 469 C 214 469 194 463 177 453 C 159 442 151 427 151 409 C 151 390 158 375 172 363 C 186 351 217 337 263 319 C 317 298 356 275 380 249 C 404 223 417 190 417 148 C 417 122 412 100 402 80 C 392 60 379 44 363 31 C 347 18 328 8 307 1 C 285 -5 263 -9 240 -9 Z M 230 598 L 230 598 Z M 394 598 L 302 598 L 230 703 L 157 598 L 67 598 L 182 769 L 279 769 L 394 598 Z" unicode="ŝ" />
<glyph horiz-adv-x="544" d="M 33 0 L 33 0 Z M 275 -10 C 220 -10 173 -2 133 13 C 93 28 59 50 33 79 L 105 158 C 122 134 146 115 178 101 C 209 86 242 79 276 79 C 308 79 335 88 359 106 C 382 124 394 148 394 178 C 394 208 383 234 363 255 C 342 276 305 299 251 325 C 215 340 185 355 160 371 C 135 386 115 402 99 420 C 83 437 72 457 65 479 C 58 501 55 527 55 557 C 55 613 75 657 115 690 C 155 723 207 740 270 740 C 319 740 360 732 394 716 C 427 700 454 683 476 664 L 412 582 C 391 599 368 613 343 625 C 318 636 292 642 264 642 C 234 642 209 634 189 619 C 169 604 159 583 159 555 C 159 524 170 499 193 481 C 215 462 255 439 311 413 C 380 381 428 349 456 316 C 484 283 498 240 498 186 C 498 154 492 126 480 102 C 468 78 451 57 431 41 C 411 24 387 11 360 3 C 332 -5 304 -10 275 -10 Z M 262 -6 L 262 -6 Z M 270 -192 C 246 -192 223 -189 200 -183 C 176 -177 158 -169 145 -160 L 163 -117 C 171 -122 183 -127 197 -132 C 211 -137 226 -140 243 -140 C 256 -140 267 -137 277 -131 C 287 -125 292 -117 292 -107 C 292 -95 287 -87 279 -82 C 270 -77 260 -75 250 -75 C 243 -75 237 -75 231 -76 C 225 -77 220 -79 214 -81 L 202 -66 L 260 8 L 317 8 L 270 -52 C 301 -47 327 -50 349 -62 C 370 -74 381 -92 381 -117 C 381 -141 369 -160 347 -173 C 325 -185 299 -192 270 -192 Z" unicode="Ş" />
<glyph horiz-adv-x="448" d="M 31 0 L 31 0 Z M 240 -9 C 194 -9 154 -2 118 10 C 82 23 53 40 31 62 L 79 132 C 99 115 122 101 150 91 C 178 80 205 75 232 75 C 255 75 275 81 292 95 C 309 108 318 125 318 147 C 318 166 309 183 291 197 C 273 211 242 227 198 243 C 146 261 108 283 86 310 C 64 337 53 371 53 411 C 53 453 69 487 103 514 C 136 540 178 554 228 554 C 273 554 310 548 339 536 C 367 524 390 512 406 500 L 369 420 C 350 432 330 444 308 454 C 286 464 262 469 237 469 C 214 469 194 463 177 453 C 159 442 151 427 151 409 C 151 390 158 375 172 363 C 186 351 217 337 263 319 C 317 298 356 275 380 249 C 404 223 417 190 417 148 C 417 122 412 100 402 80 C 392 60 379 44 363 31 C 347 18 328 8 307 1 C 285 -5 263 -9 240 -9 Z M 219 0 L 219 0 Z M 227 -186 C 203 -186 180 -183 157 -177 C 133 -171 115 -163 102 -154 L 120 -111 C 128 -116 140 -121 154 -126 C 168 -131 183 -134 200 -134 C 213 -134 224 -131 234 -125 C 244 -119 249 -111 249 -101 C 249 -89 244 -81 236 -76 C 227 -71 217 -69 207 -69 C 200 -69 194 -69 188 -70 C 182 -71 177 -73 171 -75 L 159 -60 L 217 14 L 274 14 L 227 -46 C 258 -41 284 -44 306 -56 C 327 -68 338 -86 338 -111 C 338 -135 326 -154 304 -167 C 282 -179 256 -186 227 -186 Z" unicode="ş" />
<glyph horiz-adv-x="544" d="M 33 0 L 33 0 Z M 275 -10 C 220 -10 173 -2 133 13 C 93 28 59 50 33 79 L 105 158 C 122 134 146 115 178 101 C 209 86 242 79 276 79 C 308 79 335 88 359 106 C 382 124 394 148 394 178 C 394 208 383 234 363 255 C 342 276 305 299 251 325 C 215 340 185 355 160 371 C 135 386 115 402 99 420 C 83 437 72 457 65 479 C 58 501 55 527 55 557 C 55 613 75 657 115 690 C 155 723 207 740 270 740 C 319 740 360 732 394 716 C 427 700 454 683 476 664 L 412 582 C 391 599 368 613 343 625 C 318 636 292 642 264 642 C 234 642 209 634 189 619 C 169 604 159 583 159 555 C 159 524 170 499 193 481 C 215 462 255 439 311 413 C 380 381 428 349 456 316 C 484 283 498 240 498 186 C 498 154 492 126 480 102 C 468 78 451 57 431 41 C 411 24 387 11 360 3 C 332 -5 304 -10 275 -10 Z M 268 784 L 268 784 Z M 105 955 L 197 955 L 269 850 L 342 955 L 432 955 L 317 784 L 220 784 L 105 955 Z" unicode="Š" />
<glyph horiz-adv-x="448" d="M 31 0 L 31 0 Z M 240 -9 C 194 -9 154 -2 118 10 C 82 23 53 40 31 62 L 79 132 C 99 115 122 101 150 91 C 178 80 205 75 232 75 C 255 75 275 81 292 95 C 309 108 318 125 318 147 C 318 166 309 183 291 197 C 273 211 242 227 198 243 C 146 261 108 283 86 310 C 64 337 53 371 53 411 C 53 453 69 487 103 514 C 136 540 178 554 228 554 C 273 554 310 548 339 536 C 367 524 390 512 406 500 L 369 420 C 350 432 330 444 308 454 C 286 464 262 469 237 469 C 214 469 194 463 177 453 C 159 442 151 427 151 409 C 151 390 158 375 172 363 C 186 351 217 337 263 319 C 317 298 356 275 380 249 C 404 223 417 190 417 148 C 417 122 412 100 402 80 C 392 60 379 44 363 31 C 347 18 328 8 307 1 C 285 -5 263 -9 240 -9 Z M 230 598 L 230 598 Z M 67 769 L 159 769 L 231 664 L 304 769 L 394 769 L 279 598 L 182 598 L 67 769 Z" unicode="š" />
<glyph horiz-adv-x="500" d="M 9 0 L 9 0 Z M 491 634 L 303 634 L 303 0 L 193 0 L 193 634 L 9 634 L 9 730 L 491 730 L 491 634 Z M 249 784 L 249 784 Z M 86 955 L 178 955 L 250 850 L 323 955 L 413 955 L 298 784 L 201 784 L 86 955 Z" unicode="Ť" />
<glyph horiz-adv-x="337" d="M 10 0 L 10 0 Z M 310 106 L 328 23 C 317 14 302 7 284 2 C 265 -2 244 -5 222 -5 C 183 -5 150 7 122 32 C 94 57 81 95 81 147 L 81 458 L 10 458 L 10 544 L 82 544 L 82 674 L 181 687 L 181 544 L 307 544 L 307 458 L 182 458 L 182 154 C 182 133 187 117 197 105 C 207 93 221 87 240 87 C 254 87 268 89 281 94 C 293 98 303 102 310 106 Z M 425 606 L 420 457 L 334 457 L 329 606 L 329 730 L 425 730 L 425 606 Z" unicode="ť" />
<glyph horiz-adv-x="500" d="M 430 425 L 303 425 L 303 0 L 193 0 L 193 425 L 69 425 L 69 513 L 193 513 L 193 634 L 9 634 L 9 730 L 491 730 L 491 634 L 303 634 L 303 513 L 430 513 L 430 425 Z" unicode="Ŧ" />
<glyph horiz-adv-x="337" d="M 328 23 C 317 14 302 7 284 2 C 265 -2 244 -5 222 -5 C 183 -5 150 7 122 32 C 94 57 81 95 81 147 L 81 290 L 16 290 L 16 378 L 81 378 L 81 458 L 10 458 L 10 544 L 82 544 L 82 674 L 181 687 L 181 544 L 307 544 L 307 458 L 182 458 L 182 378 L 282 378 L 282 290 L 182 290 L 182 154 C 182 133 187 117 197 105 C 207 93 221 87 240 87 C 254 87 268 89 281 94 C 293 98 303 102 310 106 L 328 23 Z" unicode="ŧ" />
<glyph horiz-adv-x="688" d="M 77 0 L 77 0 Z M 611 730 L 611 251 C 611 208 603 170 589 138 C 575 105 555 78 531 56 C 506 34 477 18 445 7 C 412 -4 378 -10 342 -10 C 306 -10 272 -4 240 6 C 208 16 180 32 156 54 C 132 75 112 102 98 135 C 84 168 77 207 77 251 L 77 730 L 185 730 L 185 252 C 185 198 200 158 231 130 C 261 102 298 88 342 88 C 385 88 422 101 454 128 C 485 155 501 196 501 252 L 501 730 L 611 730 Z M 343 789 L 343 789 Z M 435 929 L 514 929 C 514 881 506 846 492 823 C 478 800 458 789 433 789 C 415 789 398 792 384 800 C 370 807 357 814 346 822 C 335 829 325 836 315 844 C 305 851 296 855 286 855 C 276 855 267 849 261 839 C 254 828 250 813 250 793 L 171 793 C 171 840 181 875 201 899 C 221 922 241 934 263 934 C 280 934 295 930 308 922 C 320 914 333 906 345 898 C 354 890 363 884 373 878 C 382 872 391 869 400 869 C 408 869 416 874 423 884 C 430 894 434 909 435 929 Z" unicode="Ũ" />
<glyph horiz-adv-x="564" d="M 65 0 L 65 0 Z M 65 544 L 167 544 L 167 187 C 167 147 177 119 198 102 C 218 84 245 76 278 76 C 308 76 335 86 358 107 C 380 128 392 158 392 196 L 392 544 L 494 544 L 494 0 L 403 0 L 403 97 C 394 69 375 45 346 23 C 316 1 279 -10 235 -10 C 212 -10 190 -6 170 0 C 149 6 131 16 115 30 C 99 43 87 60 78 80 C 69 100 65 124 65 151 L 65 544 Z M 279 603 L 279 603 Z M 371 743 L 450 743 C 450 695 442 660 428 637 C 414 614 394 603 369 603 C 351 603 334 606 320 614 C 306 621 293 628 282 636 C 271 643 261 650 251 658 C 241 665 232 669 222 669 C 212 669 203 663 197 653 C 190 642 186 627 186 607 L 107 607 C 107 654 117 689 137 713 C 157 736 177 748 199 748 C 216 748 231 744 244 736 C 256 728 269 720 281 712 C 290 704 299 698 309 692 C 318 686 327 683 336 683 C 344 683 352 688 359 698 C 366 708 370 723 371 743 Z" unicode="ũ" />
<glyph horiz-adv-x="688" d="M 77 0 L 77 0 Z M 611 730 L 611 251 C 611 208 603 170 589 138 C 575 105 555 78 531 56 C 506 34 477 18 445 7 C 412 -4 378 -10 342 -10 C 306 -10 272 -4 240 6 C 208 16 180 32 156 54 C 132 75 112 102 98 135 C 84 168 77 207 77 251 L 77 730 L 185 730 L 185 252 C 185 198 200 158 231 130 C 261 102 298 88 342 88 C 385 88 422 101 454 128 C 485 155 501 196 501 252 L 501 730 L 611 730 Z M 343 794 L 343 794 Z M 473 794 L 213 794 L 213 880 L 473 880 L 473 794 Z" unicode="Ū" />
<glyph horiz-adv-x="564" d="M 65 0 L 65 0 Z M 65 544 L 167 544 L 167 187 C 167 147 177 119 198 102 C 218 84 245 76 278 76 C 308 76 335 86 358 107 C 380 128 392 158 392 196 L 392 544 L 494 544 L 494 0 L 403 0 L 403 97 C 394 69 375 45 346 23 C 316 1 279 -10 235 -10 C 212 -10 190 -6 170 0 C 149 6 131 16 115 30 C 99 43 87 60 78 80 C 69 100 65 124 65 151 L 65 544 Z M 279 608 L 279 608 Z M 409 608 L 149 608 L 149 694 L 409 694 L 409 608 Z" unicode="ū" />
<glyph horiz-adv-x="688" d="M 77 0 L 77 0 Z M 611 730 L 611 251 C 611 208 603 170 589 138 C 575 105 555 78 531 56 C 506 34 477 18 445 7 C 412 -4 378 -10 342 -10 C 306 -10 272 -4 240 6 C 208 16 180 32 156 54 C 132 75 112 102 98 135 C 84 168 77 207 77 251 L 77 730 L 185 730 L 185 252 C 185 198 200 158 231 130 C 261 102 298 88 342 88 C 385 88 422 101 454 128 C 485 155 501 196 501 252 L 501 730 L 611 730 Z M 343 787 L 343 787 Z M 412 946 L 496 946 C 492 890 476 850 448 825 C 420 799 385 787 343 787 C 301 787 266 799 238 825 C 210 850 194 890 190 946 L 275 946 C 277 920 283 899 293 883 C 303 867 320 860 343 860 C 365 860 382 867 393 883 C 403 898 410 919 412 946 Z" unicode="Ŭ" />
<glyph horiz-adv-x="564" d="M 65 0 L 65 0 Z M 65 544 L 167 544 L 167 187 C 167 147 177 119 198 102 C 218 84 245 76 278 76 C 308 76 335 86 358 107 C 380 128 392 158 392 196 L 392 544 L 494 544 L 494 0 L 403 0 L 403 97 C 394 69 375 45 346 23 C 316 1 279 -10 235 -10 C 212 -10 190 -6 170 0 C 149 6 131 16 115 30 C 99 43 87 60 78 80 C 69 100 65 124 65 151 L 65 544 Z M 279 601 L 279 601 Z M 348 760 L 432 760 C 428 704 412 664 384 639 C 356 613 321 601 279 601 C 237 601 202 613 174 639 C 146 664 130 704 126 760 L 211 760 C 213 734 219 713 229 697 C 239 681 256 674 279 674 C 301 674 318 681 329 697 C 339 712 346 733 348 760 Z" unicode="ŭ" />
<glyph horiz-adv-x="688" d="M 77 0 L 77 0 Z M 611 730 L 611 251 C 611 208 603 170 589 138 C 575 105 555 78 531 56 C 506 34 477 18 445 7 C 412 -4 378 -10 342 -10 C 306 -10 272 -4 240 6 C 208 16 180 32 156 54 C 132 75 112 102 98 135 C 84 168 77 207 77 251 L 77 730 L 185 730 L 185 252 C 185 198 200 158 231 130 C 261 102 298 88 342 88 C 385 88 422 101 454 128 C 485 155 501 196 501 252 L 501 730 L 611 730 Z M 343 775 L 343 775 Z M 343 775 C 309 775 279 787 255 812 C 230 836 218 866 218 901 C 218 935 230 964 255 988 C 279 1012 309 1025 343 1025 C 377 1025 407 1012 431 988 C 455 964 468 935 468 901 C 468 866 455 836 431 812 C 407 787 377 775 343 775 Z M 343 840 C 359 840 373 845 385 857 C 397 869 403 883 403 901 C 403 917 397 932 385 944 C 373 956 359 962 343 962 C 326 962 312 956 300 944 C 288 932 283 917 283 901 C 283 883 288 869 300 857 C 312 845 326 840 343 840 Z" unicode="Ů" />
<glyph horiz-adv-x="564" d="M 65 0 L 65 0 Z M 65 544 L 167 544 L 167 187 C 167 147 177 119 198 102 C 218 84 245 76 278 76 C 308 76 335 86 358 107 C 380 128 392 158 392 196 L 392 544 L 494 544 L 494 0 L 403 0 L 403 97 C 394 69 375 45 346 23 C 316 1 279 -10 235 -10 C 212 -10 190 -6 170 0 C 149 6 131 16 115 30 C 99 43 87 60 78 80 C 69 100 65 124 65 151 L 65 544 Z M 279 589 L 279 589 Z M 279 589 C 245 589 215 601 191 626 C 166 650 154 680 154 715 C 154 749 166 778 191 802 C 215 826 245 839 279 839 C 313 839 343 826 367 802 C 391 778 404 749 404 715 C 404 680 391 650 367 626 C 343 601 313 589 279 589 Z M 279 654 C 295 654 309 659 321 671 C 333 683 339 697 339 715 C 339 731 333 746 321 758 C 309 770 295 776 279 776 C 262 776 248 770 236 758 C 224 746 219 731 219 715 C 219 697 224 683 236 671 C 248 659 262 654 279 654 Z" unicode="ů" />
<glyph horiz-adv-x="688" d="M 77 0 L 77 0 Z M 611 730 L 611 251 C 611 208 603 170 589 138 C 575 105 555 78 531 56 C 506 34 477 18 445 7 C 412 -4 378 -10 342 -10 C 306 -10 272 -4 240 6 C 208 16 180 32 156 54 C 132 75 112 102 98 135 C 84 168 77 207 77 251 L 77 730 L 185 730 L 185 252 C 185 198 200 158 231 130 C 261 102 298 88 342 88 C 385 88 422 101 454 128 C 485 155 501 196 501 252 L 501 730 L 611 730 Z M 343 783 L 343 783 Z M 153 783 L 238 937 L 346 937 L 243 783 L 153 783 Z M 339 783 L 425 937 L 533 937 L 429 783 L 339 783 Z" unicode="Ű" />
<glyph horiz-adv-x="564" d="M 65 0 L 65 0 Z M 65 544 L 167 544 L 167 187 C 167 147 177 119 198 102 C 218 84 245 76 278 76 C 308 76 335 86 358 107 C 380 128 392 158 392 196 L 392 544 L 494 544 L 494 0 L 403 0 L 403 97 C 394 69 375 45 346 23 C 316 1 279 -10 235 -10 C 212 -10 190 -6 170 0 C 149 6 131 16 115 30 C 99 43 87 60 78 80 C 69 100 65 124 65 151 L 65 544 Z M 279 597 L 279 597 Z M 89 597 L 174 751 L 282 751 L 179 597 L 89 597 Z M 275 597 L 361 751 L 469 751 L 365 597 L 275 597 Z" unicode="ű" />
<glyph horiz-adv-x="688" d="M 77 0 L 77 0 Z M 611 730 L 611 251 C 611 208 603 170 589 138 C 575 105 555 78 531 56 C 506 34 477 18 445 7 C 412 -4 378 -10 342 -10 C 306 -10 272 -4 240 6 C 208 16 180 32 156 54 C 132 75 112 102 98 135 C 84 168 77 207 77 251 L 77 730 L 185 730 L 185 252 C 185 198 200 158 231 130 C 261 102 298 88 342 88 C 385 88 422 101 454 128 C 485 155 501 196 501 252 L 501 730 L 611 730 Z M 387 -8 L 387 -8 Z M 488 -92 L 517 -134 C 496 -155 473 -171 449 -182 C 425 -193 397 -199 367 -199 C 333 -199 306 -191 287 -177 C 267 -162 258 -143 258 -121 C 258 -97 267 -75 286 -54 C 305 -32 332 -14 366 1 L 426 1 C 400 -12 380 -25 366 -39 C 352 -53 346 -66 346 -80 C 346 -93 351 -104 361 -112 C 371 -120 384 -124 400 -124 C 418 -124 435 -120 450 -114 C 464 -108 477 -100 488 -92 Z" unicode="Ų" />
<glyph horiz-adv-x="564" d="M 65 0 L 65 0 Z M 65 544 L 167 544 L 167 187 C 167 147 177 119 198 102 C 218 84 245 76 278 76 C 308 76 335 86 358 107 C 380 128 392 158 392 196 L 392 544 L 494 544 L 494 0 L 403 0 L 403 97 C 394 69 375 45 346 23 C 316 1 279 -10 235 -10 C 212 -10 190 -6 170 0 C 149 6 131 16 115 30 C 99 43 87 60 78 80 C 69 100 65 124 65 151 L 65 544 Z M 424 -7 L 424 -7 Z M 525 -91 L 554 -133 C 533 -154 510 -170 486 -181 C 462 -192 434 -198 404 -198 C 370 -198 343 -190 324 -176 C 304 -161 295 -142 295 -120 C 295 -96 304 -74 323 -53 C 342 -31 369 -13 403 2 L 463 2 C 437 -11 417 -24 403 -38 C 389 -52 383 -65 383 -79 C 383 -92 388 -103 398 -111 C 408 -119 421 -123 437 -123 C 455 -123 472 -119 487 -113 C 501 -107 514 -99 525 -91 Z" unicode="ų" />
<glyph horiz-adv-x="857" d="M 8 0 L 8 0 Z M 843 730 L 644 -4 L 576 -4 L 427 531 L 272 -4 L 203 -4 L 8 730 L 118 730 L 250 208 L 395 730 L 466 730 L 612 206 L 744 730 L 843 730 Z M 428 784 L 428 784 Z M 592 784 L 500 784 L 428 889 L 355 784 L 265 784 L 380 955 L 477 955 L 592 784 Z" unicode="Ŵ" />
<glyph horiz-adv-x="703" d="M 2 0 L 2 0 Z M 468 -3 L 358 320 L 235 -3 L 169 -3 L 2 544 L 104 544 L 216 159 L 327 473 L 395 473 L 497 162 L 607 544 L 702 544 L 534 -3 L 468 -3 Z M 357 598 L 357 598 Z M 521 598 L 429 598 L 357 703 L 284 598 L 194 598 L 309 769 L 406 769 L 521 598 Z" unicode="ŵ" />
<glyph horiz-adv-x="602" d="M 0 0 L 0 0 Z M 604 730 L 353 308 L 353 0 L 243 0 L 243 312 L -2 730 L 123 730 L 304 413 L 492 730 L 604 730 Z M 304 784 L 304 784 Z M 468 784 L 376 784 L 304 889 L 231 784 L 141 784 L 256 955 L 353 955 L 468 784 Z" unicode="Ŷ" />
<glyph horiz-adv-x="488" d="M 0 0 L 0 0 Z M 492 544 L 244 -80 C 226 -123 202 -154 172 -172 C 142 -190 111 -200 81 -200 C 59 -200 42 -197 28 -192 C 14 -187 4 -183 -1 -181 L 35 -96 C 38 -98 44 -101 53 -104 C 62 -106 71 -108 81 -108 C 97 -108 111 -102 125 -91 C 138 -79 150 -61 161 -37 L 192 41 L -5 544 L 103 544 L 245 165 L 390 544 L 492 544 Z M 246 598 L 246 598 Z M 410 598 L 318 598 L 246 703 L 173 598 L 83 598 L 198 769 L 295 769 L 410 598 Z" unicode="ŷ" />
<glyph horiz-adv-x="602" d="M 0 0 L 0 0 Z M 604 730 L 353 308 L 353 0 L 243 0 L 243 312 L -2 730 L 123 730 L 304 413 L 492 730 L 604 730 Z M 304 784 L 304 784 Z M 435 784 L 350 784 L 350 942 L 435 942 L 435 784 Z M 258 784 L 173 784 L 173 942 L 258 942 L 258 784 Z" unicode="Ÿ" />
<glyph horiz-adv-x="536" d="M 18 0 L 18 0 Z M 506 730 L 506 680 L 161 95 L 518 95 L 518 0 L 18 0 L 18 48 L 359 634 L 47 634 L 47 730 L 506 730 Z M 271 789 L 271 789 Z M 163 789 L 261 955 L 381 955 L 263 789 L 163 789 Z" unicode="Ź" />
<glyph horiz-adv-x="436" d="M 16 0 L 16 0 Z M 408 544 L 408 499 L 157 90 L 426 90 L 426 0 L 16 0 L 16 42 L 269 454 L 28 454 L 28 544 L 408 544 Z M 225 603 L 225 603 Z M 117 603 L 215 769 L 335 769 L 217 603 L 117 603 Z" unicode="ź" />
<glyph horiz-adv-x="536" d="M 18 0 L 18 0 Z M 506 730 L 506 680 L 161 95 L 518 95 L 518 0 L 18 0 L 18 48 L 359 634 L 47 634 L 47 730 L 506 730 Z M 271 785 L 271 785 Z M 318 785 L 225 785 L 225 935 L 318 935 L 318 785 Z" unicode="Ż" />
<glyph horiz-adv-x="436" d="M 16 0 L 16 0 Z M 408 544 L 408 499 L 157 90 L 426 90 L 426 0 L 16 0 L 16 42 L 269 454 L 28 454 L 28 544 L 408 544 Z M 225 599 L 225 599 Z M 272 599 L 179 599 L 179 749 L 272 749 L 272 599 Z" unicode="ż" />
<glyph horiz-adv-x="536" d="M 18 0 L 18 0 Z M 506 730 L 506 680 L 161 95 L 518 95 L 518 0 L 18 0 L 18 48 L 359 634 L 47 634 L 47 730 L 506 730 Z M 271 784 L 271 784 Z M 108 955 L 200 955 L 272 850 L 345 955 L 435 955 L 320 784 L 223 784 L 108 955 Z" unicode="Ž" />
<glyph horiz-adv-x="436" d="M 16 0 L 16 0 Z M 408 544 L 408 499 L 157 90 L 426 90 L 426 0 L 16 0 L 16 42 L 269 454 L 28 454 L 28 544 L 408 544 Z M 225 598 L 225 598 Z M 62 769 L 154 769 L 226 664 L 299 769 L 389 769 L 274 598 L 177 598 L 62 769 Z" unicode="ž" />
<glyph horiz-adv-x="375" d="M 190 -57 C 187 -89 174 -117 151 -142 C 127 -166 98 -179 62 -179 C 43 -179 25 -177 8 -174 C -9 -171 -22 -168 -31 -164 L -21 -91 C -16 -91 -9 -93 0 -95 C 10 -97 19 -98 28 -98 C 47 -98 64 -91 79 -78 C 93 -64 102 -45 105 -21 L 136 327 L 40 327 L 40 411 L 143 411 L 162 625 C 164 644 169 661 177 676 C 185 690 194 702 206 712 C 217 722 229 729 243 734 C 257 739 270 742 284 742 C 298 742 311 741 325 740 C 339 739 347 738 350 738 L 342 649 C 340 649 336 650 330 651 C 324 651 318 652 312 652 C 293 652 278 645 266 633 C 254 620 247 600 245 574 L 231 411 L 334 411 L 334 327 L 223 327 L 190 -57 Z" unicode="ƒ" />
<glyph horiz-adv-x="544" d="M 33 0 L 33 0 Z M 275 -10 C 220 -10 173 -2 133 13 C 93 28 59 50 33 79 L 105 158 C 122 134 146 115 178 101 C 209 86 242 79 276 79 C 308 79 335 88 359 106 C 382 124 394 148 394 178 C 394 208 383 234 363 255 C 342 276 305 299 251 325 C 215 340 185 355 160 371 C 135 386 115 402 99 420 C 83 437 72 457 65 479 C 58 501 55 527 55 557 C 55 613 75 657 115 690 C 155 723 207 740 270 740 C 319 740 360 732 394 716 C 427 700 454 683 476 664 L 412 582 C 391 599 368 613 343 625 C 318 636 292 642 264 642 C 234 642 209 634 189 619 C 169 604 159 583 159 555 C 159 524 170 499 193 481 C 215 462 255 439 311 413 C 380 381 428 349 456 316 C 484 283 498 240 498 186 C 498 154 492 126 480 102 C 468 78 451 57 431 41 C 411 24 387 11 360 3 C 332 -5 304 -10 275 -10 Z M 262 -79 L 262 -79 Z M 357 -79 C 355 -107 350 -134 343 -162 C 336 -190 327 -215 317 -239 C 306 -263 294 -284 282 -304 C 269 -323 256 -338 244 -349 L 167 -315 C 174 -306 182 -293 191 -276 C 200 -259 209 -240 217 -219 C 225 -198 232 -175 238 -151 C 244 -126 249 -102 251 -79 L 357 -79 Z" unicode="Ș" />
<glyph horiz-adv-x="448" d="M 31 0 L 31 0 Z M 240 -9 C 194 -9 154 -2 118 10 C 82 23 53 40 31 62 L 79 132 C 99 115 122 101 150 91 C 178 80 205 75 232 75 C 255 75 275 81 292 95 C 309 108 318 125 318 147 C 318 166 309 183 291 197 C 273 211 242 227 198 243 C 146 261 108 283 86 310 C 64 337 53 371 53 411 C 53 453 69 487 103 514 C 136 540 178 554 228 554 C 273 554 310 548 339 536 C 367 524 390 512 406 500 L 369 420 C 350 432 330 444 308 454 C 286 464 262 469 237 469 C 214 469 194 463 177 453 C 159 442 151 427 151 409 C 151 390 158 375 172 363 C 186 351 217 337 263 319 C 317 298 356 275 380 249 C 404 223 417 190 417 148 C 417 122 412 100 402 80 C 392 60 379 44 363 31 C 347 18 328 8 307 1 C 285 -5 263 -9 240 -9 Z M 219 -73 L 219 -73 Z M 314 -73 C 312 -101 307 -128 300 -156 C 293 -184 284 -209 274 -233 C 263 -257 251 -278 239 -298 C 226 -317 213 -332 201 -343 L 124 -309 C 131 -300 139 -287 148 -270 C 157 -253 166 -234 174 -213 C 182 -192 189 -169 195 -145 C 201 -120 206 -96 208 -73 L 314 -73 Z" unicode="ș" />
<glyph horiz-adv-x="500" d="M 9 0 L 9 0 Z M 491 634 L 303 634 L 303 0 L 193 0 L 193 634 L 9 634 L 9 730 L 491 730 L 491 634 Z M 216 -73 L 216 -73 Z M 311 -73 C 309 -101 304 -128 297 -156 C 290 -184 281 -209 271 -233 C 260 -257 248 -278 236 -298 C 223 -317 210 -332 198 -343 L 121 -309 C 128 -300 136 -287 145 -270 C 154 -253 163 -234 171 -213 C 179 -192 186 -169 192 -145 C 198 -120 203 -96 205 -73 L 311 -73 Z" unicode="Ț" />
<glyph horiz-adv-x="337" d="M 10 0 L 10 0 Z M 310 106 L 328 23 C 317 14 302 7 284 2 C 265 -2 244 -5 222 -5 C 183 -5 150 7 122 32 C 94 57 81 95 81 147 L 81 458 L 10 458 L 10 544 L 82 544 L 82 674 L 181 687 L 181 544 L 307 544 L 307 458 L 182 458 L 182 154 C 182 133 187 117 197 105 C 207 93 221 87 240 87 C 254 87 268 89 281 94 C 293 98 303 102 310 106 Z M 157 -73 L 157 -73 Z M 252 -73 C 250 -101 245 -128 238 -156 C 231 -184 222 -209 212 -233 C 201 -257 189 -278 177 -298 C 164 -317 151 -332 139 -343 L 62 -309 C 69 -300 77 -287 86 -270 C 95 -253 104 -234 112 -213 C 120 -192 127 -169 133 -145 C 139 -120 144 -96 146 -73 L 252 -73 Z" unicode="ț" />
<glyph horiz-adv-x="281" d="M 214 544 L 214 -20 C 214 -74 199 -116 170 -146 C 140 -176 105 -191 63 -191 C 39 -191 15 -187 -7 -181 C -29 -175 -47 -167 -61 -159 L -28 -83 C -18 -87 -7 -92 6 -96 C 19 -100 34 -102 51 -102 C 68 -102 82 -93 94 -76 C 106 -59 112 -38 112 -12 L 112 544 L 214 544 Z" unicode="ȷ" />
<glyph horiz-adv-x="500" d="M 414 598 L 322 598 L 250 703 L 177 598 L 87 598 L 202 769 L 299 769 L 414 598 Z" unicode="ˆ" />
<glyph horiz-adv-x="500" d="M 87 769 L 179 769 L 251 664 L 324 769 L 414 769 L 299 598 L 202 598 L 87 769 Z" unicode="ˇ" />
<glyph horiz-adv-x="500" d="M 319 760 L 403 760 C 399 704 383 664 355 639 C 327 613 292 601 250 601 C 208 601 173 613 145 639 C 117 664 101 704 97 760 L 182 760 C 184 734 190 713 200 697 C 210 681 227 674 250 674 C 272 674 289 681 300 697 C 310 712 317 733 319 760 Z" unicode="˘" />
<glyph horiz-adv-x="500" d="M 297 599 L 204 599 L 204 749 L 297 749 L 297 599 Z" unicode="˙" />
<glyph horiz-adv-x="513" d="M 257 589 C 223 589 193 601 169 626 C 144 650 132 680 132 715 C 132 749 144 778 169 802 C 193 826 223 839 257 839 C 291 839 321 826 345 802 C 369 778 382 749 382 715 C 382 680 369 650 345 626 C 321 601 291 589 257 589 Z M 257 654 C 273 654 287 659 299 671 C 311 683 317 697 317 715 C 317 731 311 746 299 758 C 287 770 273 776 257 776 C 240 776 226 770 214 758 C 202 746 197 731 197 715 C 197 697 202 683 214 671 C 226 659 240 654 257 654 Z" unicode="˚" />
<glyph horiz-adv-x="500" d="M 358 -84 L 387 -126 C 366 -147 343 -163 319 -174 C 295 -185 267 -191 237 -191 C 203 -191 176 -183 157 -169 C 137 -154 128 -135 128 -113 C 128 -89 137 -67 156 -46 C 175 -24 202 -6 236 9 L 296 9 C 270 -4 250 -17 236 -31 C 222 -45 216 -58 216 -72 C 216 -85 221 -96 231 -104 C 241 -112 254 -116 270 -116 C 288 -116 305 -112 320 -106 C 334 -100 347 -92 358 -84 Z" unicode="˛" />
<glyph horiz-adv-x="500" d="M 346 743 L 425 743 C 425 695 417 660 403 637 C 389 614 369 603 344 603 C 326 603 309 606 295 614 C 281 621 268 628 257 636 C 246 643 236 650 226 658 C 216 665 207 669 197 669 C 187 669 178 663 172 653 C 165 642 161 627 161 607 L 82 607 C 82 654 92 689 112 713 C 132 736 152 748 174 748 C 191 748 206 744 219 736 C 231 728 244 720 256 712 C 265 704 274 698 284 692 C 293 686 302 683 311 683 C 319 683 327 688 334 698 C 341 708 345 723 346 743 Z" unicode="˜" />
<glyph horiz-adv-x="500" d="M 76 597 L 161 751 L 269 751 L 166 597 L 76 597 Z M 262 597 L 348 751 L 456 751 L 352 597 L 262 597 Z" unicode="˝" />
<glyph horiz-adv-x="0" d="M 0 597 L 0 597 Z M 108 597 L 7 597 L -110 763 L 9 763 L 108 597 Z" unicode="̀" />
<glyph horiz-adv-x="0" d="M 0 603 L 0 603 Z M -108 603 L -10 769 L 110 769 L -8 603 L -108 603 Z" unicode="́" />
<glyph horiz-adv-x="0" d="M 0 598 L 0 598 Z M 164 598 L 72 598 L 0 703 L -73 598 L -163 598 L -48 769 L 49 769 L 164 598 Z" unicode="̂" />
<glyph horiz-adv-x="0" d="M 0 603 L 0 603 Z M 92 743 L 171 743 C 171 695 163 660 149 637 C 135 614 115 603 90 603 C 72 603 55 606 41 614 C 27 621 14 628 3 636 C -7 643 -17 650 -27 658 C -37 665 -47 669 -57 669 C -67 669 -75 663 -82 653 C -88 642 -92 627 -93 607 L -172 607 C -172 654 -162 689 -142 713 C -122 736 -101 748 -80 748 C -62 748 -47 744 -35 736 C -22 728 -10 720 2 712 C 11 704 20 698 30 692 C 39 686 48 683 57 683 C 65 683 73 688 80 698 C 87 708 91 723 92 743 Z" unicode="̃" />
<glyph horiz-adv-x="0" d="M 0 608 L 0 608 Z M 130 608 L -130 608 L -130 694 L 130 694 L 130 608 Z" unicode="̄" />
<glyph horiz-adv-x="0" d="M 0 601 L 0 601 Z M 69 760 L 153 760 C 149 704 133 664 105 639 C 77 613 42 601 0 601 C -42 601 -77 613 -105 639 C -133 664 -149 704 -153 760 L -68 760 C -66 734 -59 713 -49 697 C -39 681 -22 674 0 674 C 22 674 39 681 50 697 C 60 712 67 733 69 760 Z" unicode="̆" />
<glyph horiz-adv-x="0" d="M 0 599 L 0 599 Z M 47 599 L -46 599 L -46 749 L 47 749 L 47 599 Z" unicode="̇" />
<glyph horiz-adv-x="0" d="M 0 598 L 0 598 Z M 131 598 L 46 598 L 46 756 L 131 756 L 131 598 Z M -46 598 L -131 598 L -131 756 L -46 756 L -46 598 Z" unicode="̈" />
<glyph horiz-adv-x="0" d="M 0 589 L 0 589 Z M 0 589 C -34 589 -63 601 -88 626 C -112 650 -125 680 -125 715 C -125 749 -112 778 -88 802 C -63 826 -34 839 0 839 C 34 839 64 826 88 802 C 112 778 125 749 125 715 C 125 680 112 650 88 626 C 64 601 34 589 0 589 Z M 0 654 C 16 654 30 659 42 671 C 54 683 60 697 60 715 C 60 731 54 746 42 758 C 30 770 16 776 0 776 C -16 776 -30 770 -42 758 C -54 746 -60 731 -60 715 C -60 697 -54 683 -42 671 C -30 659 -16 654 0 654 Z" unicode="̊" />
<glyph horiz-adv-x="0" d="M 0 597 L 0 597 Z M -190 597 L -105 751 L 3 751 L -100 597 L -190 597 Z M -4 597 L 82 751 L 190 751 L 86 597 L -4 597 Z" unicode="̋" />
<glyph horiz-adv-x="0" d="M 0 598 L 0 598 Z M -163 769 L -71 769 L 1 664 L 74 769 L 164 769 L 49 598 L -48 598 L -163 769 Z" unicode="̌" />
<glyph horiz-adv-x="0" d="M 0 -73 L 0 -73 Z M 95 -73 C 93 -101 88 -128 81 -156 C 74 -184 65 -209 55 -233 C 44 -257 32 -278 20 -298 C 7 -317 -5 -332 -18 -343 L -95 -309 C -87 -300 -79 -287 -70 -270 C -61 -253 -53 -234 -45 -213 C -37 -192 -29 -169 -23 -145 C -17 -120 -13 -96 -11 -73 L 95 -73 Z" unicode="̦" />
<glyph horiz-adv-x="0" d="M 0 0 L 0 0 Z M 8 -186 C -15 -186 -38 -183 -62 -177 C -85 -171 -103 -163 -117 -154 L -99 -111 C -90 -116 -79 -121 -65 -126 C -51 -131 -35 -134 -19 -134 C -5 -134 5 -131 15 -125 C 25 -119 30 -111 30 -101 C 30 -89 25 -81 17 -76 C 8 -71 -1 -69 -12 -69 C -18 -69 -24 -69 -30 -70 C -36 -71 -42 -73 -48 -75 L -60 -60 L -2 14 L 55 14 L 8 -46 C 39 -41 65 -44 87 -56 C 108 -68 119 -86 119 -111 C 119 -135 107 -154 85 -167 C 63 -179 37 -186 8 -186 Z" unicode="̧" />
<glyph horiz-adv-x="0" d="M 0 0 L 0 0 Z M 101 -84 L 130 -126 C 109 -147 86 -163 62 -174 C 38 -185 10 -191 -20 -191 C -54 -191 -80 -183 -100 -169 C -119 -154 -129 -135 -129 -113 C -129 -89 -119 -67 -100 -46 C -81 -24 -55 -6 -21 9 L 39 9 C 13 -4 -6 -17 -20 -31 C -34 -45 -41 -58 -41 -72 C -41 -85 -36 -96 -26 -104 C -16 -112 -3 -116 13 -116 C 31 -116 48 -112 63 -106 C 77 -100 90 -92 101 -84 Z" unicode="̨" />
<glyph horiz-adv-x="565" d="M 0 0 L 0 0 Z M 627 0 L 0 0 L 286 732 L 345 732 L 627 0 Z M 484 83 L 309 563 L 137 83 L 484 83 Z" unicode="Δ" />
<glyph horiz-adv-x="724" d="M 31 0 L 31 0 Z M 40 0 L 40 94 L 252 94 L 252 157 C 188 177 135 214 93 266 C 51 318 31 378 31 446 C 31 488 38 527 54 564 C 70 600 92 632 121 659 C 150 686 186 707 228 723 C 270 739 318 747 370 747 C 424 747 472 739 516 723 C 559 707 595 685 625 658 C 655 631 678 599 694 563 C 710 526 718 487 718 446 C 718 378 698 319 660 267 C 622 215 567 179 495 157 L 495 94 L 708 94 L 708 0 L 421 0 L 421 212 C 479 230 525 261 557 303 C 589 345 606 391 606 441 C 606 473 600 502 588 529 C 576 556 559 579 539 599 C 518 618 493 633 464 644 C 435 655 404 661 371 661 C 338 661 307 655 279 644 C 251 633 227 618 207 598 C 187 578 171 555 159 528 C 147 501 142 471 142 439 C 142 391 157 346 189 305 C 221 263 267 232 327 212 L 327 0 L 40 0 Z" unicode="Ω" />
<glyph horiz-adv-x="588" d="M 75 0 L 75 0 Z M 75 -167 L 75 544 L 175 544 L 175 174 C 175 146 187 122 211 102 C 235 82 264 73 298 73 C 314 73 330 76 346 82 C 362 88 377 96 390 108 C 402 119 413 133 421 149 C 429 165 434 184 434 205 L 434 544 L 534 544 L 534 0 L 441 0 L 441 95 C 435 81 427 69 416 57 C 404 45 391 34 376 25 C 361 16 345 9 328 3 C 310 -2 293 -5 276 -6 C 253 -6 231 -1 211 8 C 190 17 175 30 167 47 L 167 -167 L 75 -167 Z" unicode="μ" />
<glyph horiz-adv-x="602" d="M 188 466 L 188 0 L 88 0 L 88 466 L 15 466 L 15 544 L 587 544 L 587 466 L 511 466 L 511 0 L 410 0 L 410 466 L 188 466 Z" unicode="π" />
<glyph horiz-adv-x="857" d="M 8 0 L 8 0 Z M 843 730 L 644 -4 L 576 -4 L 427 531 L 272 -4 L 203 -4 L 8 730 L 118 730 L 250 208 L 395 730 L 466 730 L 612 206 L 744 730 L 843 730 Z M 428 783 L 428 783 Z M 536 783 L 435 783 L 318 949 L 437 949 L 536 783 Z" unicode="Ẁ" />
<glyph horiz-adv-x="703" d="M 2 0 L 2 0 Z M 468 -3 L 358 320 L 235 -3 L 169 -3 L 2 544 L 104 544 L 216 159 L 327 473 L 395 473 L 497 162 L 607 544 L 702 544 L 534 -3 L 468 -3 Z M 357 597 L 357 597 Z M 465 597 L 364 597 L 247 763 L 366 763 L 465 597 Z" unicode="ẁ" />
<glyph horiz-adv-x="857" d="M 8 0 L 8 0 Z M 843 730 L 644 -4 L 576 -4 L 427 531 L 272 -4 L 203 -4 L 8 730 L 118 730 L 250 208 L 395 730 L 466 730 L 612 206 L 744 730 L 843 730 Z M 428 789 L 428 789 Z M 320 789 L 418 955 L 538 955 L 420 789 L 320 789 Z" unicode="Ẃ" />
<glyph horiz-adv-x="703" d="M 2 0 L 2 0 Z M 468 -3 L 358 320 L 235 -3 L 169 -3 L 2 544 L 104 544 L 216 159 L 327 473 L 395 473 L 497 162 L 607 544 L 702 544 L 534 -3 L 468 -3 Z M 357 603 L 357 603 Z M 249 603 L 347 769 L 467 769 L 349 603 L 249 603 Z" unicode="ẃ" />
<glyph horiz-adv-x="857" d="M 8 0 L 8 0 Z M 843 730 L 644 -4 L 576 -4 L 427 531 L 272 -4 L 203 -4 L 8 730 L 118 730 L 250 208 L 395 730 L 466 730 L 612 206 L 744 730 L 843 730 Z M 428 784 L 428 784 Z M 559 784 L 474 784 L 474 942 L 559 942 L 559 784 Z M 382 784 L 297 784 L 297 942 L 382 942 L 382 784 Z" unicode="Ẅ" />
<glyph horiz-adv-x="703" d="M 2 0 L 2 0 Z M 468 -3 L 358 320 L 235 -3 L 169 -3 L 2 544 L 104 544 L 216 159 L 327 473 L 395 473 L 497 162 L 607 544 L 702 544 L 534 -3 L 468 -3 Z M 357 598 L 357 598 Z M 488 598 L 403 598 L 403 756 L 488 756 L 488 598 Z M 311 598 L 226 598 L 226 756 L 311 756 L 311 598 Z" unicode="ẅ" />
<glyph horiz-adv-x="602" d="M 0 0 L 0 0 Z M 604 730 L 353 308 L 353 0 L 243 0 L 243 312 L -2 730 L 123 730 L 304 413 L 492 730 L 604 730 Z M 304 783 L 304 783 Z M 412 783 L 311 783 L 194 949 L 313 949 L 412 783 Z" unicode="Ỳ" />
<glyph horiz-adv-x="488" d="M 0 0 L 0 0 Z M 492 544 L 244 -80 C 226 -123 202 -154 172 -172 C 142 -190 111 -200 81 -200 C 59 -200 42 -197 28 -192 C 14 -187 4 -183 -1 -181 L 35 -96 C 38 -98 44 -101 53 -104 C 62 -106 71 -108 81 -108 C 97 -108 111 -102 125 -91 C 138 -79 150 -61 161 -37 L 192 41 L -5 544 L 103 544 L 245 165 L 390 544 L 492 544 Z M 246 597 L 246 597 Z M 354 597 L 253 597 L 136 763 L 255 763 L 354 597 Z" unicode="ỳ" />
<glyph horiz-adv-x="461" d="M 421 225 L 40 225 L 40 313 L 421 313 L 421 225 Z" unicode="–" />
<glyph horiz-adv-x="646" d="M 606 225 L 40 225 L 40 313 L 606 313 L 606 225 Z" unicode="—" />
<glyph horiz-adv-x="266" d="M 35 507 L 35 514 C 35 552 45 591 65 630 C 85 668 112 704 148 737 L 248 731 C 238 723 227 711 215 697 C 203 683 191 666 181 648 C 170 629 161 608 153 586 C 145 563 142 539 142 515 L 142 507 L 35 507 Z" unicode="‘" />
<glyph horiz-adv-x="266" d="M 230 737 L 230 730 C 230 691 220 653 200 615 C 180 577 152 541 117 507 L 17 513 C 27 522 38 534 50 549 C 62 563 74 580 85 598 C 95 616 104 637 112 659 C 120 681 124 704 124 729 L 124 737 L 230 737 Z" unicode="’" />
<glyph horiz-adv-x="266" d="M 230 113 L 230 106 C 230 68 220 29 200 -8 C 180 -46 152 -83 117 -117 L 17 -111 C 27 -101 38 -89 50 -75 C 62 -60 73 -43 84 -25 C 95 -7 104 13 112 35 C 119 57 123 80 123 105 L 123 113 L 230 113 Z" unicode="‚" />
<glyph horiz-adv-x="438" d="M 221 507 L 221 514 C 221 552 230 590 250 627 C 270 664 298 701 334 737 L 425 731 C 415 721 403 709 391 695 C 379 680 367 663 356 645 C 345 627 336 607 328 585 C 320 563 317 539 317 515 L 317 507 L 221 507 Z M 35 507 L 35 514 C 35 552 45 590 66 627 C 86 664 114 701 149 737 L 239 731 C 230 721 219 709 207 695 C 194 681 182 664 171 646 C 160 628 151 607 143 585 C 135 563 131 539 131 515 L 131 507 L 35 507 Z" unicode="“" />
<glyph horiz-adv-x="438" d="M 221 737 L 221 730 C 221 691 211 653 192 616 C 173 579 145 543 108 507 L 17 513 C 27 523 39 535 52 550 C 64 564 76 581 87 599 C 97 617 106 637 114 659 C 121 681 125 704 125 729 L 125 737 L 221 737 Z M 402 737 L 402 730 C 402 691 392 653 372 615 C 352 577 325 541 289 507 L 198 513 C 209 523 221 536 234 550 C 246 564 258 581 269 599 C 279 617 288 637 295 659 C 302 681 306 704 306 729 L 306 737 L 402 737 Z" unicode="”" />
<glyph horiz-adv-x="439" d="M 221 117 L 221 110 C 221 71 211 33 192 -4 C 173 -41 145 -77 107 -113 L 17 -107 C 27 -97 39 -84 52 -70 C 64 -55 76 -39 87 -21 C 97 -3 106 17 114 39 C 121 61 125 84 125 109 L 125 117 L 221 117 Z M 403 117 L 403 110 C 403 71 393 33 373 -5 C 353 -43 326 -79 290 -113 L 199 -107 C 209 -97 221 -84 234 -70 C 246 -55 258 -39 269 -21 C 280 -3 289 17 296 39 C 303 61 307 84 307 109 L 307 117 L 403 117 Z" unicode="„" />
<glyph horiz-adv-x="516" d="M 493 384 L 308 384 L 308 -179 L 202 -179 L 202 384 L 23 384 L 23 472 L 202 472 L 202 730 L 308 730 L 308 472 L 493 472 L 493 384 Z" unicode="†" />
<glyph horiz-adv-x="519" d="M 204 -179 L 204 111 L 29 111 L 29 199 L 204 199 L 204 385 L 29 385 L 29 472 L 204 472 L 204 730 L 310 730 L 310 472 L 490 472 L 490 385 L 310 385 L 310 199 L 490 199 L 490 111 L 310 111 L 310 -179 L 204 -179 Z" unicode="‡" />
<glyph horiz-adv-x="383" d="M 191 473 C 217 473 240 464 258 446 C 276 428 285 405 285 379 C 285 353 276 331 258 313 C 240 295 217 286 191 286 C 164 286 142 295 124 313 C 106 331 98 353 98 379 C 98 405 106 428 124 446 C 142 464 164 473 191 473 Z" unicode="•" />
<glyph horiz-adv-x="695" d="M 65 0 L 65 134 L 167 134 L 167 0 L 65 0 Z M 296 0 L 296 134 L 399 134 L 399 0 L 296 0 Z M 528 0 L 528 134 L 631 134 L 631 0 L 528 0 Z" unicode="…" />
<glyph horiz-adv-x="1179" d="M 203 350 C 181 350 161 354 141 363 C 121 372 103 385 88 402 C 72 418 60 439 51 463 C 42 487 38 515 38 545 C 38 571 42 596 50 620 C 58 644 70 664 84 682 C 98 700 116 714 136 724 C 156 734 177 740 201 740 C 225 740 248 734 268 724 C 288 714 305 700 319 682 C 333 664 345 644 353 621 C 361 597 365 573 365 548 C 365 520 361 494 353 470 C 345 446 333 425 319 407 C 305 389 288 375 268 365 C 248 355 226 350 203 350 Z M 115 0 L 597 730 L 693 730 L 211 0 L 115 0 Z M 125 545 C 125 510 131 482 145 461 C 159 440 177 430 201 430 C 227 430 246 440 259 462 C 271 484 278 511 278 545 C 278 577 272 605 260 627 C 248 649 229 660 203 660 C 177 660 157 649 144 627 C 131 605 125 577 125 545 Z M 614 -3 C 592 -3 572 1 552 10 C 532 19 514 32 499 49 C 483 65 471 86 462 110 C 453 134 449 161 449 191 C 449 217 453 243 461 267 C 469 291 481 311 495 329 C 509 347 527 361 547 371 C 567 381 589 387 613 387 C 637 387 660 381 681 371 C 701 361 719 347 733 329 C 747 311 758 291 766 268 C 774 244 778 220 778 194 C 778 167 774 142 766 118 C 758 94 746 73 732 55 C 718 37 700 22 680 12 C 660 2 638 -3 614 -3 Z M 977 -3 C 955 -3 935 1 915 10 C 895 19 877 32 862 49 C 846 65 834 86 825 110 C 816 134 812 161 812 191 C 812 217 816 243 824 267 C 832 291 844 311 858 329 C 872 347 890 361 910 371 C 930 381 953 387 977 387 C 1001 387 1024 381 1044 371 C 1064 361 1082 347 1096 329 C 1110 311 1121 291 1129 268 C 1137 244 1141 220 1141 194 C 1141 167 1137 142 1129 118 C 1121 94 1109 73 1095 55 C 1080 37 1063 22 1043 12 C 1023 2 1001 -3 977 -3 Z M 612 77 C 638 77 658 87 671 109 C 684 131 691 158 691 191 C 691 223 684 251 672 274 C 660 296 640 308 614 308 C 589 308 570 296 557 274 C 543 252 537 224 537 191 C 537 157 543 129 557 108 C 571 87 589 77 612 77 Z M 975 77 C 1001 77 1021 87 1034 109 C 1047 131 1054 158 1054 191 C 1054 223 1047 251 1035 274 C 1023 296 1003 308 977 308 C 952 308 933 296 920 274 C 906 252 900 224 900 191 C 900 157 906 129 920 108 C 934 87 952 77 975 77 Z" unicode="‰" />
<glyph horiz-adv-x="242" d="M 213 110 L 27 279 L 27 337 L 213 504 L 213 404 L 115 305 L 213 212 L 213 110 Z" unicode="‹" />
<glyph horiz-adv-x="243" d="M 29 505 L 216 336 L 216 279 L 29 112 L 29 210 L 127 309 L 29 403 L 29 505 Z" unicode="›" />
<glyph horiz-adv-x="145" d="M 304 730 L -58 0 L -145 0 L 218 730 L 304 730 Z" unicode="⁄" />
<glyph horiz-adv-x="328" d="M 14 453 L 14 514 L 198 737 L 256 737 L 256 518 L 316 518 L 316 453 L 256 453 L 256 373 L 173 373 L 173 453 L 14 453 Z M 87 509 L 175 509 L 175 617 L 87 509 Z" unicode="⁴" />
<glyph horiz-adv-x="535" d="M 527 115 C 508 77 480 47 442 23 C 404 0 363 -12 319 -12 C 261 -12 210 10 168 56 C 126 102 98 166 84 248 L 32 248 L 32 320 L 76 320 C 75 326 75 333 75 340 C 75 347 75 354 75 361 C 75 367 75 374 75 382 C 75 389 75 396 76 403 L 32 403 L 32 475 L 83 475 C 95 555 121 619 161 668 C 201 717 253 742 318 742 C 374 742 418 730 450 706 C 482 682 505 655 520 625 L 442 583 C 430 605 414 623 395 637 C 376 650 351 657 320 657 C 284 657 253 641 229 611 C 205 580 188 535 179 475 L 470 475 L 470 403 L 172 403 C 171 396 171 389 171 382 C 171 375 171 368 171 361 C 171 354 171 347 171 340 C 171 333 171 326 172 320 L 470 320 L 470 248 L 180 248 C 190 188 209 144 235 115 C 261 86 291 72 323 72 C 353 72 379 81 401 99 C 423 117 440 138 452 163 L 527 115 Z" unicode="€" />
<glyph horiz-adv-x="895" d="M 841 306 L 751 306 L 751 581 L 616 390 L 604 390 L 470 580 L 470 306 L 383 306 L 383 730 L 454 730 L 611 510 L 771 730 L 841 730 L 841 306 Z M 354 628 L 239 628 L 239 306 L 134 306 L 134 628 L 19 628 L 19 730 L 354 730 L 354 628 Z" unicode="™" />
<glyph horiz-adv-x="748" d="M 40 0 L 40 94 L 252 94 L 252 157 C 188 177 135 214 93 266 C 51 318 31 378 31 446 C 31 488 38 527 54 564 C 70 600 92 632 121 659 C 150 686 186 707 228 723 C 270 739 318 747 370 747 C 424 747 472 739 516 723 C 559 707 595 685 625 658 C 655 631 678 599 694 563 C 710 526 718 487 718 446 C 718 378 698 319 660 267 C 622 215 567 179 495 157 L 495 94 L 708 94 L 708 0 L 421 0 L 421 212 C 479 230 525 261 557 303 C 589 345 606 391 606 441 C 606 473 600 502 588 529 C 576 556 559 579 539 599 C 518 618 493 633 464 644 C 435 655 404 661 371 661 C 338 661 307 655 279 644 C 251 633 227 618 207 598 C 187 578 171 555 159 528 C 147 501 142 471 142 439 C 142 391 157 346 189 305 C 221 263 267 232 327 212 L 327 0 L 40 0 Z" unicode="Ω" />
<glyph horiz-adv-x="553" d="M 513 291 C 513 238 506 192 494 154 C 481 116 464 84 442 60 C 420 36 394 18 365 7 C 335 -4 304 -10 272 -10 C 242 -10 212 -4 184 6 C 156 16 130 32 108 52 C 86 72 68 96 55 126 C 41 156 35 189 35 227 C 35 261 40 293 52 323 C 64 353 80 379 100 401 C 120 423 144 440 172 453 C 199 465 228 472 260 472 C 300 472 334 463 362 446 C 390 428 412 405 426 377 C 418 439 405 493 386 539 C 367 584 345 621 319 649 C 293 677 266 699 236 713 C 206 727 177 734 149 736 L 196 802 C 225 802 258 792 295 774 C 332 755 367 725 399 685 C 431 644 458 591 480 526 C 502 461 513 383 513 291 Z M 272 66 C 313 66 346 81 371 111 C 395 141 408 184 408 238 C 408 284 396 321 372 350 C 348 379 315 394 273 394 C 233 394 201 379 177 349 C 152 319 140 280 140 230 C 140 176 152 136 176 108 C 200 80 232 66 272 66 Z" unicode="∂" />
<glyph horiz-adv-x="627" d="M 627 0 L 0 0 L 286 732 L 345 732 L 627 0 Z M 484 83 L 309 563 L 137 83 L 484 83 Z" unicode="∆" />
<glyph horiz-adv-x="683" d="M 228 639 L 228 0 L 123 0 L 123 639 L 15 639 L 15 730 L 668 730 L 668 639 L 565 639 L 565 0 L 460 0 L 460 639 L 228 639 Z" unicode="∏" />
<glyph horiz-adv-x="592" d="M 189 635 L 416 307 L 156 -84 L 550 -84 L 550 -179 L -18 -179 L 307 306 L 12 730 L 529 730 L 529 635 L 189 635 Z" unicode="∑" />
<glyph horiz-adv-x="500" d="M 460 289 L 40 289 L 40 375 L 460 375 L 460 289 Z" unicode="−" />
<glyph horiz-adv-x="510" d="M 504 730 L 198 0 L 186 0 L 12 330 L 84 385 L 204 143 L 440 730 L 504 730 Z" unicode="√" />
<glyph horiz-adv-x="342" d="M 105 -21 L 162 625 C 164 644 169 661 177 676 C 185 690 194 702 206 712 C 217 722 229 729 243 734 C 257 739 270 742 284 742 C 298 742 311 741 325 740 C 339 739 347 738 350 738 L 342 649 C 340 649 336 650 330 651 C 324 651 318 652 312 652 C 293 652 278 645 266 633 C 254 620 247 600 245 574 L 190 -57 C 187 -89 174 -117 151 -142 C 127 -167 98 -179 62 -179 C 42 -179 24 -177 7 -173 C -9 -169 -22 -164 -31 -160 L -20 -89 C -16 -89 -9 -91 0 -94 C 10 -96 19 -98 28 -98 C 47 -98 64 -91 79 -78 C 93 -64 102 -45 105 -21 Z" unicode="∫" />
<glyph horiz-adv-x="489" d="M 382 502 L 455 502 C 453 454 444 414 428 384 C 411 353 385 338 350 338 C 327 338 307 342 289 352 C 271 361 255 371 243 383 C 230 395 217 405 205 414 C 192 422 179 427 165 427 C 151 427 138 418 126 402 C 113 386 107 365 107 341 L 34 341 C 34 391 44 430 64 460 C 84 489 111 504 146 504 C 168 504 189 498 208 487 C 227 475 243 464 256 452 C 268 442 281 432 293 424 C 305 415 317 411 330 411 C 348 411 362 418 370 434 C 378 449 382 472 382 502 Z M 382 323 L 455 323 C 453 275 444 235 428 204 C 411 173 385 158 350 158 C 327 158 307 162 289 171 C 271 180 255 191 243 204 C 230 216 217 226 205 234 C 193 242 179 247 165 247 C 151 247 138 239 126 223 C 113 207 107 187 107 161 L 34 161 C 34 211 44 250 64 280 C 84 310 111 325 146 325 C 168 325 189 319 208 307 C 226 295 242 283 255 271 C 267 260 280 251 292 243 C 304 235 317 231 330 231 C 348 231 362 238 370 254 C 378 269 382 292 382 323 Z" unicode="≈" />
<glyph horiz-adv-x="489" d="M 447 171 L 220 171 L 173 64 L 116 87 L 153 171 L 62 171 L 62 257 L 191 257 L 249 388 L 62 388 L 62 472 L 286 472 L 334 581 L 392 558 L 354 472 L 447 472 L 447 388 L 317 388 L 259 257 L 447 257 L 447 171 Z" unicode="≠" />
<glyph horiz-adv-x="489" d="M 58 292 L 58 357 L 428 559 L 428 472 L 157 327 L 427 182 L 427 95 L 58 292 Z M 57 91 L 427 91 L 427 21 L 57 21 L 57 91 Z" unicode="≤" />
<glyph horiz-adv-x="489" d="M 426 292 L 57 95 L 57 182 L 327 327 L 57 472 L 57 559 L 426 357 L 426 292 Z M 427 91 L 427 21 L 57 21 L 57 91 L 427 91 Z" unicode="≥" />
<glyph horiz-adv-x="537" d="M 508 326 L 274 -19 L 263 -19 L 29 326 L 29 337 L 263 681 L 274 681 L 508 337 L 508 326 Z M 413 327 L 413 336 L 273 547 L 265 547 L 124 336 L 124 327 L 265 115 L 273 115 L 413 327 Z" unicode="◊" />
<glyph horiz-adv-x="730" d="M 448 673 L 282 673 L 282 730 L 448 730 L 448 673 Z M 659 282 L 600 282 L 600 448 L 659 448 L 659 282 Z M 130 282 L 71 282 L 71 448 L 130 448 L 130 282 Z M 433 297 L 297 297 L 297 433 L 433 433 L 433 297 Z M 448 0 L 282 0 L 282 58 L 448 58 L 448 0 Z" unicode="" />
<glyph horiz-adv-x="588" d="M 340 449 L 205 449 L 205 0 L 104 0 L 104 449 L 15 449 L 15 533 L 104 533 L 104 612 C 104 643 109 671 119 695 C 129 719 143 738 159 754 C 175 770 194 782 215 790 C 236 798 257 802 279 802 C 295 802 313 800 331 796 C 349 792 362 787 370 783 L 342 698 C 336 700 328 702 318 705 C 307 708 297 710 288 710 C 269 710 250 702 232 687 C 213 672 204 647 204 611 L 204 533 L 340 533 L 340 449 Z M 519 635 L 412 635 L 412 729 L 519 729 L 519 635 Z M 517 0 L 414 0 L 414 533 L 517 533 L 517 0 Z" unicode="ﬁ" />
<glyph horiz-adv-x="611" d="M 340 456 L 203 456 L 203 0 L 102 0 L 102 456 L 11 456 L 11 544 L 102 544 L 102 612 C 102 643 107 671 117 695 C 127 719 141 738 157 754 C 173 770 192 782 213 790 C 234 798 255 802 277 802 C 293 802 311 800 329 796 C 347 792 361 787 369 783 L 340 698 C 334 700 326 702 316 705 C 305 708 295 710 286 710 C 267 710 248 702 230 687 C 211 672 202 647 202 611 L 202 544 L 340 544 L 340 456 Z M 396 124 L 396 800 L 498 800 L 498 152 C 498 131 503 115 513 103 C 523 91 539 86 559 86 C 565 86 573 86 581 87 C 589 88 596 89 600 91 L 607 4 C 600 1 590 -1 576 -3 C 562 -5 549 -6 536 -6 C 499 -6 466 4 438 26 C 410 48 396 80 396 124 Z" unicode="ﬂ" />
</font>
</defs>
</svg>
