<?xml version="1.0" encoding="utf-8" ?><svg version="1.1" xmlns = 'http://www.w3.org/2000/svg'><defs><font id='web' horiz-adv-x="1000">
<font-face font-family="web" descent="-200" cap-height="730" units-per-em="1000" bbox="-181,-320,1030,1016" x-height="436" ascent="800" />
<missing-glyph horiz-adv-x="500" d="" /><glyph horiz-adv-x="203" d="" unicode=" " />
<glyph horiz-adv-x="265" d="M 189 432 L 158 207 L 112 207 L 81 432 L 81 730 L 189 730 L 189 432 Z M 185 0 L 86 0 L 86 111 L 185 111 L 185 0 Z" unicode="!" />
<glyph horiz-adv-x="386" d="M 327 624 L 321 487 L 246 487 L 242 623 L 242 730 L 327 730 L 327 624 Z M 144 623 L 140 487 L 63 487 L 59 623 L 59 730 L 144 730 L 144 623 Z" unicode="&#x22;" />
<glyph horiz-adv-x="596" d="M 545 219 L 421 219 L 402 0 L 344 1 L 363 219 L 214 219 L 195 0 L 136 1 L 155 219 L 33 219 L 33 300 L 162 300 L 173 427 L 51 427 L 51 508 L 181 508 L 200 729 L 259 729 L 240 508 L 389 508 L 408 729 L 466 729 L 447 508 L 563 508 L 563 427 L 439 427 L 428 300 L 545 300 L 545 219 Z M 221 300 L 370 300 L 381 427 L 232 427 L 221 300 Z" unicode="#" />
<glyph horiz-adv-x="500" d="M 464 189 C 464 137 446 95 412 61 C 377 27 334 8 282 2 L 282 -123 L 216 -123 L 216 1 C 176 4 139 13 107 28 C 75 43 48 62 27 86 L 73 155 C 89 137 111 121 137 109 C 163 97 189 89 216 85 L 216 343 C 156 371 113 400 85 432 C 57 464 44 505 44 555 C 44 601 60 640 92 672 C 124 704 165 723 216 729 L 216 790 L 282 790 L 282 729 C 312 726 341 718 369 706 C 397 694 422 677 444 657 L 392 590 C 376 605 359 617 340 627 C 320 636 301 642 282 646 L 282 410 L 284 409 C 350 377 397 345 424 314 C 450 282 464 241 464 189 Z M 132 554 C 132 531 138 511 150 495 C 162 479 184 462 216 444 L 216 647 C 191 642 171 631 155 615 C 139 599 132 578 132 554 Z M 378 191 C 378 215 371 236 359 254 C 346 272 320 291 282 312 L 282 85 C 308 89 331 101 350 120 C 368 138 378 162 378 191 Z" unicode="$" />
<glyph horiz-adv-x="734" d="M 189 363 C 171 363 154 366 136 374 C 118 382 102 393 88 409 C 74 425 62 444 53 468 C 44 492 40 519 40 551 C 40 577 43 601 51 624 C 59 647 69 667 83 684 C 96 701 112 715 130 725 C 148 735 167 740 188 740 C 210 740 231 735 249 725 C 267 715 283 701 296 685 C 309 668 319 648 327 626 C 334 603 338 579 338 554 C 338 527 334 502 326 479 C 318 455 308 435 295 418 C 281 400 265 387 247 377 C 229 367 209 363 189 363 Z M 188 0 L 119 0 L 536 730 L 605 730 L 188 0 Z M 188 434 C 212 434 229 445 240 468 C 251 490 257 518 257 551 C 257 582 251 609 241 633 C 231 657 214 669 191 669 C 168 669 151 657 140 634 C 128 610 123 583 123 551 C 123 517 128 489 140 467 C 152 445 168 434 188 434 Z M 545 -3 C 527 -3 509 0 491 8 C 473 16 458 27 444 43 C 430 59 418 78 410 102 C 401 126 397 153 397 185 C 397 211 400 236 408 259 C 416 282 426 302 439 319 C 452 336 468 349 487 359 C 505 369 525 374 547 374 C 569 374 590 369 608 359 C 626 349 642 335 655 319 C 668 302 678 282 685 260 C 692 237 696 213 696 188 C 696 161 692 136 685 113 C 677 89 667 69 654 52 C 640 34 624 21 606 11 C 587 1 567 -3 545 -3 Z M 545 69 C 568 69 585 80 597 102 C 609 124 615 151 615 185 C 615 217 609 245 598 268 C 586 291 569 303 547 303 C 526 303 510 291 498 268 C 486 245 480 217 480 185 C 480 150 486 122 498 101 C 510 79 525 69 545 69 Z" unicode="%" />
<glyph horiz-adv-x="674" d="M 595 -5 L 512 81 C 477 52 440 30 400 15 C 360 0 318 -8 273 -8 C 201 -8 142 8 96 41 C 50 74 28 121 28 181 C 28 210 32 235 42 257 C 51 279 63 298 79 315 C 95 332 113 347 134 361 C 155 375 177 389 201 403 L 187 417 C 169 435 151 459 133 487 C 115 515 106 547 106 583 C 106 603 110 622 119 641 C 128 659 141 676 157 690 C 173 704 192 715 214 724 C 236 732 261 737 289 737 C 341 737 384 722 418 692 C 451 662 468 627 468 587 C 468 547 455 511 431 481 C 406 451 372 421 328 392 L 519 202 C 531 216 542 230 554 246 C 565 262 576 278 587 296 L 654 248 C 641 228 628 210 616 192 C 603 174 590 158 577 144 L 659 62 L 595 -5 Z M 257 463 L 274 446 C 308 468 335 490 353 511 C 371 531 380 553 380 577 C 380 599 372 620 357 638 C 341 656 319 666 289 666 C 261 666 239 657 223 639 C 207 621 199 601 199 581 C 199 560 204 539 214 519 C 224 499 239 480 257 463 Z M 132 183 C 132 147 146 120 175 100 C 204 80 239 70 279 70 C 311 70 342 76 372 88 C 401 100 429 117 456 139 L 255 347 C 217 323 187 298 165 274 C 143 250 132 219 132 183 Z" unicode="&#x26;" />
<glyph horiz-adv-x="204" d="M 146 621 L 141 483 L 63 483 L 58 621 L 58 730 L 146 730 L 146 621 Z" unicode="'" />
<glyph horiz-adv-x="306" d="M 291 -99 L 291 -179 C 255 -161 221 -136 189 -105 C 157 -74 128 -38 104 1 C 80 41 60 86 46 136 C 31 186 24 238 24 293 C 24 348 31 400 45 448 C 59 496 79 540 103 579 C 127 618 156 652 188 681 C 220 709 255 732 291 749 L 291 670 C 245 640 206 594 174 530 C 142 466 125 387 125 292 C 124 208 138 131 168 62 C 197 -7 238 -61 291 -99 Z" unicode="(" />
<glyph horiz-adv-x="306" d="M 15 669 L 15 749 C 49 734 82 713 114 685 C 146 657 174 623 199 584 C 223 544 243 499 258 449 C 273 398 281 343 281 284 C 281 228 273 176 258 127 C 243 78 223 34 199 -4 C 174 -43 146 -78 114 -108 C 82 -138 49 -161 15 -179 L 15 -96 C 65 -61 106 -10 139 55 C 172 121 189 198 189 284 C 189 333 184 378 175 420 C 165 461 153 498 137 530 C 121 562 103 589 82 613 C 60 636 38 655 15 669 Z" unicode=")" />
<glyph horiz-adv-x="392" d="M 358 589 L 233 555 L 322 464 L 269 418 L 197 529 L 126 419 L 70 462 L 162 556 L 34 587 L 66 657 L 175 597 L 161 730 L 234 730 L 219 597 L 331 654 L 358 589 Z" unicode="*" />
<glyph horiz-adv-x="500" d="M 467 295 L 288 295 L 288 119 L 212 119 L 212 295 L 33 295 L 33 367 L 212 367 L 212 543 L 288 543 L 288 367 L 467 367 L 467 295 Z" unicode="+" />
<glyph horiz-adv-x="225" d="M 190 103 C 188 80 183 57 176 33 C 169 9 160 -14 150 -36 C 140 -58 128 -79 116 -98 C 103 -117 90 -133 78 -145 L 9 -113 C 16 -103 24 -91 33 -75 C 42 -59 51 -42 59 -23 C 67 -4 74 16 80 38 C 86 60 91 81 94 103 L 190 103 Z" unicode="," />
<glyph horiz-adv-x="334" d="M 292 224 L 42 224 L 42 308 L 292 308 L 292 224 Z" unicode="-" />
<glyph horiz-adv-x="227" d="M 163 0 L 64 0 L 64 125 L 163 125 L 163 0 Z" unicode="." />
<glyph horiz-adv-x="317" d="M 314 730 L 89 0 L 3 0 L 231 730 L 314 730 Z" unicode="/" />
<glyph horiz-adv-x="531" d="M 263 -10 C 194 -10 139 21 98 83 C 56 145 36 237 36 361 C 36 414 40 464 50 511 C 59 557 73 597 92 631 C 111 665 135 691 164 711 C 193 731 227 741 267 741 C 307 741 342 731 371 712 C 400 693 424 667 442 635 C 460 602 474 563 483 517 C 491 471 496 422 496 370 C 496 312 491 260 481 213 C 471 166 457 126 438 93 C 419 60 395 35 366 17 C 336 -1 302 -10 263 -10 Z M 263 72 C 311 72 346 97 368 149 C 390 200 401 270 401 360 C 401 404 398 445 394 482 C 389 518 381 549 371 575 C 360 601 346 621 329 635 C 311 649 290 657 266 657 C 218 657 184 630 162 578 C 140 526 130 454 130 362 C 130 268 141 197 163 147 C 185 97 219 72 263 72 Z" unicode="0" />
<glyph horiz-adv-x="345" d="M 266 0 L 171 0 L 171 588 C 164 579 155 570 145 561 C 134 552 123 544 111 537 C 99 530 86 524 74 519 C 61 514 49 511 39 511 L 39 607 C 67 609 95 622 123 646 C 151 670 175 698 196 731 L 266 731 L 266 0 Z" unicode="1" />
<glyph horiz-adv-x="510" d="M 477 0 L 27 0 L 27 27 L 307 368 C 329 394 346 421 359 450 C 372 478 379 508 379 539 C 379 573 367 600 343 621 C 319 642 287 653 249 653 C 205 653 172 639 150 613 C 127 586 116 551 116 507 L 31 507 C 31 583 51 641 92 681 C 133 720 187 740 253 740 C 284 740 313 735 340 727 C 366 719 389 707 409 691 C 428 675 443 654 454 630 C 465 606 471 578 471 547 C 471 495 461 451 442 417 C 423 382 403 351 381 325 L 176 83 L 477 83 L 477 0 Z" unicode="2" />
<glyph horiz-adv-x="503" d="M 234 -10 C 178 -10 131 -1 94 15 C 56 32 27 51 7 73 L 54 141 C 72 125 94 109 122 95 C 149 80 184 73 226 73 C 280 73 320 88 348 118 C 376 148 390 183 390 224 C 390 265 374 297 344 319 C 314 341 277 353 235 353 L 131 353 L 132 437 L 235 437 C 273 437 305 447 330 469 C 355 490 368 517 368 550 C 368 578 357 603 336 625 C 315 646 285 657 247 657 C 207 657 174 649 150 633 C 125 617 104 597 88 574 L 31 634 C 39 646 49 658 62 671 C 75 683 91 695 109 705 C 127 715 148 724 172 731 C 196 737 224 741 255 741 C 317 741 366 725 402 693 C 438 661 457 619 457 565 C 457 542 453 521 446 503 C 439 484 430 468 419 454 C 407 440 394 428 380 418 C 366 408 352 402 338 398 C 376 388 409 368 437 338 C 465 307 480 267 480 217 C 480 190 475 163 466 136 C 457 109 443 85 424 63 C 404 41 379 24 348 10 C 316 -3 278 -10 234 -10 Z" unicode="3" />
<glyph horiz-adv-x="525" d="M 516 191 L 410 191 L 410 0 L 324 0 L 324 191 L 13 191 L 12 251 L 350 741 L 410 741 L 410 271 L 516 271 L 516 191 Z M 325 271 L 325 574 L 115 271 L 325 271 Z" unicode="4" />
<glyph horiz-adv-x="511" d="M 248 -10 C 196 -10 150 -1 110 17 C 70 35 40 55 20 79 L 71 145 C 89 123 112 106 141 92 C 170 78 204 71 242 71 C 288 71 325 87 353 121 C 380 154 394 197 394 250 C 394 299 381 338 355 366 C 329 394 295 408 255 408 C 221 408 193 401 169 387 C 145 373 127 353 115 328 L 51 343 L 81 730 L 440 730 L 440 644 L 151 644 L 135 418 C 147 438 165 455 191 469 C 217 482 247 489 283 489 C 345 489 394 468 432 427 C 470 386 489 329 489 256 C 489 175 466 110 422 62 C 377 14 319 -10 248 -10 Z" unicode="5" />
<glyph horiz-adv-x="504" d="M 264 -11 C 195 -11 139 11 96 56 C 53 100 32 160 32 235 C 32 312 51 386 89 456 C 127 526 178 598 240 674 L 298 746 L 367 696 L 328 648 C 279 588 238 534 204 486 C 170 438 149 398 141 368 C 151 386 167 404 191 420 C 215 436 245 445 281 445 C 312 445 340 439 365 428 C 390 416 411 401 429 381 C 447 361 460 337 470 309 C 480 281 485 251 485 219 C 485 187 479 157 469 129 C 458 101 443 76 424 56 C 404 35 381 19 354 7 C 326 -5 296 -11 264 -11 Z M 265 71 C 304 71 335 84 359 112 C 383 139 395 174 395 216 C 395 260 383 296 361 323 C 339 350 307 364 265 364 C 247 364 230 361 214 355 C 198 349 183 340 171 328 C 158 316 148 301 140 283 C 132 265 129 245 129 222 C 129 174 141 137 166 111 C 190 84 223 71 265 71 Z" unicode="6" />
<glyph horiz-adv-x="447" d="M 449 730 L 453 698 L 131 -7 L 50 30 L 331 644 L 14 644 L 14 730 L 449 730 Z" unicode="7" />
<glyph horiz-adv-x="534" d="M 367 387 C 383 383 399 376 415 366 C 431 356 445 344 459 329 C 472 314 483 296 491 274 C 499 252 504 228 504 200 C 504 139 483 89 441 49 C 399 9 341 -10 267 -10 C 194 -10 137 8 96 46 C 54 84 34 134 34 196 C 34 225 38 251 48 274 C 57 296 68 315 82 331 C 96 347 111 359 127 368 C 143 377 158 383 172 385 C 160 389 147 395 133 403 C 119 411 106 422 94 436 C 82 450 73 466 65 486 C 57 505 53 527 53 553 C 53 582 58 608 70 631 C 81 654 96 674 116 690 C 135 706 158 718 184 727 C 210 735 237 740 267 740 C 334 740 387 722 425 688 C 463 654 483 611 484 559 C 484 534 480 512 473 493 C 466 473 457 456 446 442 C 434 428 422 416 408 407 C 394 397 380 391 367 387 Z M 268 421 C 306 421 337 431 360 453 C 383 475 395 503 395 539 C 395 578 383 608 360 628 C 336 648 306 659 268 659 C 232 659 201 648 177 626 C 152 604 140 576 140 540 C 140 501 152 471 178 451 C 204 431 234 421 268 421 Z M 268 69 C 312 69 348 81 374 106 C 400 130 414 165 414 210 C 414 252 400 285 373 308 C 345 330 310 342 268 342 C 225 342 190 330 162 308 C 134 285 121 251 121 207 C 121 164 134 130 162 106 C 189 81 224 69 268 69 Z" unicode="8" />
<glyph horiz-adv-x="504" d="M 210 -12 L 144 44 L 185 88 C 205 110 225 133 245 159 C 265 185 284 210 301 236 C 318 262 333 286 345 310 C 357 334 365 355 369 374 C 357 352 337 332 310 314 C 283 296 253 288 219 288 C 188 288 160 293 136 305 C 111 317 90 333 73 353 C 56 373 43 398 34 426 C 24 454 20 484 20 516 C 20 547 25 577 36 605 C 46 633 61 657 81 677 C 101 697 124 713 152 725 C 180 737 210 743 244 743 C 275 743 305 737 333 726 C 361 715 385 699 406 678 C 426 657 443 631 455 601 C 467 570 473 535 473 496 C 473 454 467 413 456 373 C 445 333 430 294 412 258 C 394 221 373 186 349 153 C 325 119 300 88 275 60 L 210 -12 Z M 240 370 C 276 370 307 382 335 408 C 363 433 377 468 377 513 C 377 561 363 597 337 622 C 310 647 279 660 243 660 C 203 660 171 646 147 620 C 123 593 112 559 112 518 C 112 473 122 437 144 410 C 166 383 198 370 240 370 Z" unicode="9" />
<glyph horiz-adv-x="232" d="M 164 313 L 68 313 L 68 436 L 164 436 L 164 313 Z M 164 0 L 68 0 L 68 124 L 164 124 L 164 0 Z" unicode=":" />
<glyph horiz-adv-x="232" d="M 171 313 L 74 313 L 74 436 L 171 436 L 171 313 Z M 174 101 C 171 77 166 53 160 29 C 153 5 145 -17 135 -39 C 125 -61 115 -81 103 -99 C 91 -117 78 -133 66 -145 L -4 -113 C 4 -103 12 -91 22 -76 C 31 -60 40 -43 48 -24 C 56 -5 64 14 70 36 C 76 58 80 79 82 101 L 174 101 Z" unicode=";" />
<glyph horiz-adv-x="390" d="M 342 91 L 43 295 L 43 353 L 342 557 L 342 464 L 141 325 L 342 185 L 342 91 Z" unicode="&#x3C;" />
<glyph horiz-adv-x="501" d="M 444 388 L 58 388 L 58 468 L 444 468 L 444 388 Z M 444 175 L 58 175 L 58 255 L 444 255 L 444 175 Z" unicode="=" />
<glyph horiz-adv-x="390" d="M 344 295 L 46 91 L 46 185 L 247 325 L 46 464 L 46 557 L 344 353 L 344 295 Z" unicode="&#x3E;" />
<glyph horiz-adv-x="447" d="M 163 204 C 163 245 169 280 181 309 C 193 337 211 365 235 393 C 244 403 254 414 265 426 C 275 437 285 449 294 462 C 302 474 310 488 316 504 C 322 519 325 536 325 554 C 325 586 313 612 291 631 C 268 649 240 659 208 659 C 179 659 153 651 130 637 C 107 623 88 605 74 584 L 15 640 C 40 674 72 699 110 716 C 148 733 186 742 226 742 C 287 742 335 725 370 692 C 405 659 423 616 423 563 C 423 537 419 515 412 495 C 405 475 396 456 385 439 C 373 422 361 406 347 392 C 333 377 319 362 306 348 C 286 328 272 305 266 278 C 259 251 255 226 255 204 L 163 204 Z M 159 0 L 159 109 L 263 109 L 263 0 L 159 0 Z" unicode="?" />
<glyph horiz-adv-x="839" d="M 411 -39 C 357 -39 307 -29 261 -9 C 215 11 175 38 142 72 C 109 106 83 146 65 192 C 46 238 37 288 37 340 C 37 392 46 442 65 488 C 83 534 109 575 143 609 C 176 643 216 669 263 689 C 309 709 360 719 415 719 C 471 719 523 710 570 693 C 617 676 657 652 690 622 C 722 592 748 555 766 512 C 784 469 794 422 794 372 C 794 327 788 289 778 258 C 767 226 753 201 737 182 C 721 162 703 148 684 140 C 665 131 647 127 631 127 C 600 127 575 134 556 148 C 536 162 524 180 519 202 C 510 185 492 168 464 152 C 436 135 404 127 367 127 C 316 127 278 139 254 164 C 229 188 217 219 217 257 C 217 301 235 335 273 361 C 310 386 357 399 413 399 L 510 399 L 510 410 C 510 444 501 467 484 479 C 466 491 442 498 412 498 C 386 498 363 494 341 488 C 319 482 301 475 287 469 L 260 533 C 279 542 302 550 329 556 C 356 562 383 566 411 566 C 467 566 510 552 541 525 C 571 498 587 455 587 397 L 587 247 C 587 232 590 219 597 207 C 603 195 617 189 637 189 C 645 189 655 191 665 196 C 675 201 685 210 694 223 C 703 236 711 254 717 278 C 723 301 726 331 726 367 C 726 408 718 446 704 482 C 689 517 668 547 642 573 C 615 598 582 618 544 633 C 505 647 462 655 415 655 C 369 655 328 646 290 630 C 252 614 220 591 193 563 C 166 535 145 501 130 463 C 114 425 107 384 107 341 C 107 297 114 256 130 218 C 145 180 166 146 193 118 C 220 89 252 66 290 50 C 328 33 369 25 414 25 C 434 25 455 27 477 31 C 498 35 520 42 543 53 L 568 -5 C 540 -17 514 -26 488 -31 C 462 -36 436 -39 411 -39 Z M 384 195 C 412 195 439 201 464 213 C 489 225 504 238 510 251 L 510 335 L 413 335 C 375 335 347 328 330 316 C 312 304 304 287 304 265 C 304 244 311 227 325 214 C 339 201 359 195 384 195 Z" unicode="@" />
<glyph horiz-adv-x="598" d="M 596 0 L 495 0 L 427 187 L 166 187 L 100 0 L 2 0 L 270 734 L 331 734 L 596 0 Z M 400 272 L 297 557 L 193 272 L 400 272 Z" unicode="A" />
<glyph horiz-adv-x="553" d="M 83 0 L 83 730 L 291 730 C 349 730 396 714 433 683 C 469 652 488 610 488 558 C 488 506 475 465 450 435 C 425 405 395 386 360 380 C 378 378 397 374 416 366 C 435 358 452 347 467 333 C 482 319 494 301 504 280 C 514 259 519 235 519 207 C 519 143 498 92 457 55 C 415 18 362 0 297 0 L 83 0 Z M 180 413 L 270 413 C 313 413 344 425 362 450 C 380 474 389 502 389 533 C 389 565 378 591 358 611 C 337 631 308 641 271 641 L 180 641 L 180 413 Z M 180 88 L 293 88 C 337 88 369 100 389 124 C 409 148 420 177 420 212 C 420 249 407 278 382 298 C 357 318 325 329 286 329 L 180 329 L 180 88 Z" unicode="B" />
<glyph horiz-adv-x="633" d="M 363 -10 C 318 -10 276 -1 237 14 C 198 30 164 54 136 86 C 107 118 84 157 68 204 C 51 251 43 305 43 365 C 43 420 50 471 66 517 C 82 563 104 603 132 636 C 160 668 193 694 233 712 C 273 730 317 740 365 740 C 429 740 481 729 520 707 C 559 685 591 658 616 625 L 546 559 C 528 583 504 603 476 620 C 448 637 412 646 368 646 C 298 646 243 620 204 570 C 164 520 145 450 145 361 C 145 312 151 270 164 235 C 176 199 193 170 214 148 C 234 125 258 108 285 97 C 312 86 340 81 369 81 C 415 81 453 90 485 109 C 516 127 542 151 562 180 L 627 126 C 600 86 564 53 520 28 C 476 2 423 -10 363 -10 Z" unicode="C" />
<glyph horiz-adv-x="678" d="M 83 0 L 83 730 L 284 730 C 339 730 389 721 433 704 C 477 687 513 663 543 632 C 573 601 596 564 612 520 C 628 476 636 427 636 373 C 636 321 628 272 612 226 C 596 180 573 141 543 108 C 513 74 475 48 429 29 C 383 9 331 0 271 0 L 83 0 Z M 183 88 L 270 88 C 315 88 354 95 387 109 C 420 123 447 143 469 168 C 490 193 506 223 516 258 C 526 292 532 330 532 370 C 532 454 509 520 465 568 C 421 616 360 640 282 640 L 183 640 L 183 88 Z" unicode="D" />
<glyph horiz-adv-x="520" d="M 482 0 L 83 0 L 83 730 L 463 730 L 463 640 L 182 640 L 182 407 L 450 407 L 450 317 L 182 317 L 182 90 L 482 90 L 482 0 Z" unicode="E" />
<glyph horiz-adv-x="458" d="M 429 640 L 183 640 L 183 408 L 416 408 L 416 317 L 183 317 L 183 0 L 84 0 L 84 730 L 429 730 L 429 640 Z" unicode="F" />
<glyph horiz-adv-x="689" d="M 376 368 L 650 368 L 650 139 C 626 95 590 59 542 31 C 494 3 437 -10 369 -10 C 323 -10 280 -1 240 17 C 200 35 165 60 136 93 C 107 125 84 165 68 211 C 51 257 43 309 43 365 C 43 422 51 474 68 520 C 85 566 108 606 138 638 C 168 670 203 695 243 713 C 283 731 326 740 372 740 C 406 740 435 736 461 730 C 487 723 509 714 529 704 C 548 693 564 681 578 668 C 591 654 602 641 612 627 L 540 570 C 524 589 502 607 475 623 C 448 639 413 647 369 647 C 336 647 306 640 278 627 C 250 614 227 595 207 571 C 187 547 172 517 161 482 C 149 447 144 408 144 364 C 144 322 149 283 161 248 C 172 212 188 182 208 157 C 228 131 253 112 281 98 C 309 84 340 77 374 77 C 418 77 456 85 488 102 C 520 118 545 140 561 168 L 561 277 L 376 277 L 376 368 Z" unicode="G" />
<glyph horiz-adv-x="688" d="M 605 0 L 505 0 L 505 313 L 183 313 L 183 0 L 83 0 L 83 730 L 183 730 L 183 407 L 505 407 L 505 730 L 605 730 L 605 0 Z" unicode="H" />
<glyph horiz-adv-x="276" d="M 188 0 L 88 0 L 88 730 L 188 730 L 188 0 Z" unicode="I" />
<glyph horiz-adv-x="351" d="M 286 730 L 286 190 C 286 162 281 136 273 112 C 265 87 253 66 237 48 C 221 30 202 15 178 5 C 154 -5 126 -11 96 -11 C 80 -11 64 -10 50 -8 C 35 -6 23 -4 15 -2 L 15 89 C 21 86 32 84 46 82 C 60 80 73 80 84 80 C 118 80 144 90 163 112 C 181 134 191 160 191 192 L 191 730 L 286 730 Z" unicode="J" />
<glyph horiz-adv-x="626" d="M 626 0 L 503 0 L 252 323 L 184 242 L 184 0 L 83 0 L 83 730 L 184 730 L 184 364 L 474 730 L 592 730 L 319 394 L 626 0 Z" unicode="K" />
<glyph horiz-adv-x="453" d="M 445 0 L 83 0 L 83 730 L 183 730 L 183 90 L 445 90 L 445 0 Z" unicode="L" />
<glyph horiz-adv-x="827" d="M 744 0 L 648 0 L 648 521 L 432 158 L 393 158 L 179 517 L 179 0 L 83 0 L 83 730 L 152 730 L 415 300 L 677 730 L 744 730 L 744 0 Z" unicode="M" />
<glyph horiz-adv-x="698" d="M 615 0 L 546 0 L 178 531 L 178 0 L 83 0 L 83 730 L 157 730 L 521 202 L 521 730 L 615 730 L 615 0 Z" unicode="N" />
<glyph horiz-adv-x="751" d="M 378 -10 C 327 -10 281 -1 239 17 C 197 35 162 60 133 93 C 104 126 82 166 66 213 C 50 260 43 312 43 370 C 43 424 51 473 68 519 C 84 565 107 604 136 636 C 165 668 200 694 240 712 C 280 730 324 740 372 740 C 422 740 467 731 509 714 C 551 696 586 671 616 639 C 645 607 668 567 684 521 C 700 475 709 423 709 367 C 709 310 700 258 683 212 C 665 166 642 126 612 93 C 582 60 547 35 507 17 C 467 -1 424 -10 378 -10 Z M 377 81 C 409 81 440 87 468 100 C 496 112 521 131 541 156 C 561 180 576 211 588 247 C 600 283 606 325 606 371 C 606 413 600 452 589 486 C 577 520 561 549 541 573 C 520 597 495 615 467 628 C 439 640 408 647 374 647 C 306 647 251 623 209 575 C 167 527 146 457 146 366 C 146 319 152 278 164 242 C 176 206 192 177 213 153 C 233 129 258 111 286 99 C 314 87 344 81 377 81 Z" unicode="O" />
<glyph horiz-adv-x="543" d="M 83 0 L 83 730 L 305 730 C 335 730 364 725 390 715 C 416 705 439 692 458 674 C 477 656 492 633 503 607 C 513 581 519 551 519 518 C 519 485 513 455 503 427 C 493 399 478 376 460 356 C 442 336 419 321 393 310 C 367 298 338 293 307 293 L 183 293 L 183 0 L 83 0 Z M 183 383 L 285 383 C 327 383 360 395 383 419 C 406 443 418 475 418 517 C 418 558 404 589 377 609 C 350 629 318 640 280 640 L 183 640 L 183 383 Z" unicode="P" />
<glyph horiz-adv-x="743" d="M 640 -68 L 640 -162 C 581 -158 527 -142 479 -114 C 431 -85 395 -50 371 -8 C 321 -7 275 2 235 20 C 195 38 160 64 132 97 C 103 129 81 169 66 215 C 50 261 43 313 43 370 C 43 424 51 473 68 519 C 84 565 107 604 137 636 C 166 668 201 694 241 712 C 281 730 325 740 372 740 C 422 740 467 731 509 714 C 551 696 586 671 616 639 C 645 607 668 567 684 521 C 700 474 709 422 709 365 C 709 276 687 200 645 137 C 602 73 547 30 480 8 C 498 -14 522 -31 551 -45 C 580 -59 610 -66 640 -68 Z M 377 80 C 409 80 440 86 468 99 C 496 112 521 131 541 156 C 561 181 576 212 588 248 C 600 284 606 326 606 372 C 606 416 600 455 588 490 C 576 524 559 553 539 577 C 519 600 494 618 466 630 C 437 642 406 649 374 649 C 306 649 251 625 209 577 C 167 529 146 458 146 365 C 146 319 151 278 163 242 C 175 206 191 177 212 153 C 232 129 257 110 285 98 C 313 86 344 80 377 80 Z" unicode="Q" />
<glyph horiz-adv-x="568" d="M 83 0 L 83 730 L 281 730 C 339 730 388 712 427 678 C 465 644 485 595 485 531 C 485 500 481 472 473 448 C 465 424 454 403 440 386 C 426 369 410 355 392 345 C 374 335 355 328 336 326 L 333 323 L 548 0 L 435 0 L 237 302 L 180 302 L 180 0 L 83 0 Z M 180 388 L 262 388 C 298 388 327 400 351 422 C 374 444 386 476 386 518 C 386 555 374 585 351 607 C 328 629 299 640 264 640 L 180 640 L 180 388 Z" unicode="R" />
<glyph horiz-adv-x="470" d="M 244 -10 C 197 -10 155 -2 117 12 C 79 27 47 50 21 80 L 77 153 C 95 129 119 111 148 97 C 177 83 207 77 238 77 C 270 77 297 86 319 106 C 341 126 352 152 352 184 C 352 214 342 240 322 262 C 302 283 269 306 221 331 C 168 357 125 386 93 420 C 60 453 44 500 44 560 C 44 613 62 656 98 690 C 134 723 181 740 239 740 C 278 740 313 734 344 722 C 374 710 401 694 424 674 L 375 598 C 357 613 337 626 315 636 C 293 646 269 651 245 651 C 213 651 188 641 168 623 C 148 605 139 582 139 556 C 139 527 149 503 167 483 C 185 463 223 440 279 414 C 339 385 382 353 408 317 C 434 281 448 238 448 186 C 448 154 442 126 431 102 C 419 78 404 57 386 41 C 367 24 345 11 321 3 C 296 -5 270 -10 244 -10 Z" unicode="S" />
<glyph horiz-adv-x="482" d="M 473 640 L 289 640 L 289 0 L 189 0 L 189 640 L 9 640 L 9 730 L 473 730 L 473 640 Z" unicode="T" />
<glyph horiz-adv-x="672" d="M 595 730 L 595 250 C 595 208 588 170 574 138 C 560 105 542 78 518 56 C 494 34 467 18 435 7 C 403 -4 369 -10 333 -10 C 298 -10 265 -4 234 6 C 202 16 175 32 152 54 C 129 76 111 103 97 136 C 83 168 77 206 77 250 L 77 730 L 174 730 L 174 244 C 174 192 189 152 220 123 C 251 94 289 80 334 80 C 378 80 417 94 449 122 C 481 150 497 190 497 244 L 497 730 L 595 730 Z" unicode="U" />
<glyph horiz-adv-x="594" d="M 593 730 L 326 -5 L 263 -5 L 2 730 L 103 730 L 299 178 L 492 730 L 593 730 Z" unicode="V" />
<glyph horiz-adv-x="845" d="M 835 730 L 633 -7 L 575 -7 L 421 536 L 261 -7 L 203 -7 L 5 730 L 103 730 L 239 201 L 395 730 L 455 730 L 607 201 L 745 730 L 835 730 Z" unicode="W" />
<glyph horiz-adv-x="555" d="M 438 0 L 276 287 L 112 0 L 9 0 L 225 378 L 26 730 L 133 730 L 279 472 L 426 730 L 529 730 L 330 381 L 545 0 L 438 0 Z" unicode="X" />
<glyph horiz-adv-x="586" d="M 586 730 L 341 318 L 341 0 L 241 0 L 241 321 L 0 730 L 109 730 L 296 415 L 482 730 L 586 730 Z" unicode="Y" />
<glyph horiz-adv-x="535" d="M 500 730 L 500 685 L 149 90 L 512 90 L 512 0 L 15 0 L 15 43 L 366 639 L 46 639 L 46 730 L 500 730 Z" unicode="Z" />
<glyph horiz-adv-x="271" d="M 238 -179 L 63 -179 L 63 730 L 238 730 L 238 653 L 151 653 L 151 -101 L 238 -101 L 238 -179 Z" unicode="[" />
<glyph horiz-adv-x="317" d="M 3 730 L 86 730 L 314 0 L 230 0 L 3 730 Z" unicode="\" />
<glyph horiz-adv-x="272" d="M 210 -179 L 35 -179 L 35 -102 L 122 -102 L 122 653 L 35 653 L 35 730 L 210 730 L 210 -179 Z" unicode="]" />
<glyph horiz-adv-x="484" d="M 430 369 L 349 369 L 241 632 L 136 369 L 57 369 L 201 730 L 281 730 L 430 369 Z" unicode="^" />
<glyph horiz-adv-x="475" d="M 475 -163 L 0 -163 L 0 -82 L 475 -82 L 475 -163 Z" unicode="_" />
<glyph horiz-adv-x="500" d="M 348 498 L 256 498 L 140 664 L 248 664 L 348 498 Z" unicode="`" />
<glyph horiz-adv-x="441" d="M 391 0 L 305 0 L 305 54 C 293 38 275 23 252 10 C 228 -3 200 -10 167 -10 C 119 -10 83 3 58 29 C 32 55 20 89 20 131 C 20 177 36 212 70 237 C 104 262 150 276 208 279 L 302 285 L 302 299 C 302 323 294 342 278 354 C 262 366 239 373 211 373 C 183 373 159 368 138 360 C 116 351 100 342 90 334 L 55 396 C 70 408 92 420 120 431 C 148 441 183 447 225 447 C 271 447 311 435 343 411 C 375 387 391 351 391 301 L 391 0 Z M 304 113 L 304 216 L 218 211 C 185 209 159 202 139 189 C 119 176 109 158 109 134 C 109 112 116 95 132 84 C 147 73 166 68 189 68 C 215 68 239 73 260 83 C 280 93 295 103 304 113 Z" unicode="a" />
<glyph horiz-adv-x="497" d="M 288 -6 C 249 -6 217 2 192 18 C 167 34 150 53 142 75 L 142 0 L 55 0 L 55 750 L 145 750 L 145 360 C 152 380 168 399 193 418 C 218 436 250 446 289 446 C 344 446 388 425 421 384 C 454 343 471 291 471 228 C 471 192 466 160 456 131 C 446 102 433 77 417 57 C 400 37 380 21 358 10 C 336 0 312 -6 288 -6 Z M 260 64 C 294 64 322 77 343 105 C 364 133 375 171 375 220 C 375 264 365 301 345 329 C 325 357 297 371 259 371 C 228 371 201 357 178 331 C 155 305 144 266 144 214 C 144 162 156 124 180 100 C 204 76 230 64 260 64 Z" unicode="b" />
<glyph horiz-adv-x="422" d="M 345 133 L 416 89 C 402 65 382 42 354 22 C 326 1 286 -9 236 -9 C 203 -9 174 -3 148 8 C 122 19 100 35 82 55 C 64 75 50 99 40 127 C 30 155 26 185 26 217 C 26 249 31 279 41 307 C 51 335 66 359 85 380 C 103 400 126 416 153 428 C 179 440 208 446 240 446 C 287 446 325 436 355 416 C 384 396 405 374 419 350 L 343 303 C 332 321 318 335 302 347 C 286 359 265 365 240 365 C 205 365 177 351 155 323 C 133 295 122 260 122 218 C 122 173 133 137 155 110 C 177 83 206 70 242 70 C 271 70 293 77 309 91 C 325 105 337 119 345 133 Z" unicode="c" />
<glyph horiz-adv-x="500" d="M 216 -7 C 187 -7 161 -1 138 10 C 114 21 94 36 78 56 C 61 76 48 99 39 125 C 30 151 26 180 26 210 C 26 245 31 277 41 306 C 51 335 64 360 82 381 C 100 401 120 417 144 429 C 168 440 193 446 220 446 C 254 446 283 438 307 422 C 330 406 346 389 355 369 L 355 750 L 444 750 L 444 0 L 359 0 L 359 77 C 350 56 334 37 311 19 C 287 1 256 -7 216 -7 Z M 242 66 C 274 66 302 80 324 108 C 346 136 358 174 358 222 C 358 272 346 309 322 334 C 298 358 270 371 238 371 C 203 371 175 357 154 329 C 132 301 122 265 122 219 C 122 175 132 139 153 110 C 173 80 203 66 242 66 Z" unicode="d" />
<glyph horiz-adv-x="462" d="M 247 -9 C 183 -9 130 10 89 50 C 47 89 27 144 27 215 C 27 248 32 279 43 308 C 53 336 68 361 87 381 C 105 401 128 417 154 429 C 180 440 208 446 239 446 C 302 446 352 424 389 381 C 426 338 445 275 445 192 L 115 192 C 116 150 128 118 152 97 C 176 75 208 65 248 65 C 283 65 310 70 329 82 C 348 94 363 106 374 119 L 428 68 C 411 48 389 31 363 15 C 337 -1 298 -9 247 -9 Z M 118 261 L 357 261 C 355 291 344 317 324 339 C 304 361 276 372 240 372 C 204 372 175 361 154 340 C 132 318 120 292 118 261 Z" unicode="e" />
<glyph horiz-adv-x="276" d="M 269 355 L 181 355 L 181 0 L 89 0 L 89 355 L 17 355 L 17 436 L 89 436 L 89 597 C 89 623 93 646 101 666 C 109 686 119 702 132 715 C 144 728 159 738 175 744 C 191 750 208 754 226 754 C 238 754 250 753 261 751 C 271 749 280 747 286 745 L 277 659 C 273 660 269 661 263 663 C 257 664 250 665 243 665 C 226 665 211 658 199 645 C 186 631 180 612 180 587 L 180 436 L 269 436 L 269 355 Z" unicode="f" />
<glyph horiz-adv-x="499" d="M 218 -3 C 160 -3 113 17 78 58 C 43 99 26 152 26 218 C 26 286 44 341 81 383 C 118 425 164 446 219 446 C 253 446 282 437 306 421 C 330 405 347 387 357 368 L 357 436 L 444 436 L 444 25 C 444 -12 438 -44 427 -72 C 415 -100 400 -122 381 -140 C 361 -158 339 -171 313 -180 C 287 -188 259 -193 231 -193 C 189 -193 155 -188 129 -180 C 103 -171 84 -162 72 -154 L 103 -84 C 114 -92 129 -99 149 -107 C 169 -115 194 -119 224 -119 C 259 -119 290 -108 316 -87 C 342 -65 355 -33 355 9 L 355 77 C 346 56 329 37 305 21 C 281 5 252 -3 218 -3 Z M 241 65 C 273 65 301 79 324 107 C 346 135 358 174 358 222 C 358 268 346 305 322 332 C 298 359 269 373 235 373 C 203 373 176 359 154 331 C 132 303 122 265 122 219 C 122 173 132 136 153 108 C 173 79 203 65 241 65 Z" unicode="g" />
<glyph horiz-adv-x="485" d="M 434 0 L 342 0 L 342 281 C 342 309 333 331 317 347 C 301 363 279 371 252 371 C 224 371 200 362 179 344 C 157 326 147 299 147 261 L 147 0 L 55 0 L 55 750 L 142 750 L 142 359 C 150 383 166 403 190 421 C 214 438 246 447 286 447 C 330 447 366 434 393 409 C 420 384 434 348 434 302 L 434 0 Z" unicode="h" />
<glyph horiz-adv-x="212" d="M 58 530 L 58 626 L 154 626 L 154 530 L 58 530 Z M 60 0 L 60 436 L 152 436 L 152 0 L 60 0 Z" unicode="i" />
<glyph horiz-adv-x="204" d="M 151 530 L 56 530 L 56 626 L 151 626 L 151 530 Z M 149 436 L 149 -79 C 149 -113 138 -142 117 -166 C 96 -190 67 -202 31 -202 C 21 -202 10 -201 -2 -199 C -14 -197 -23 -196 -29 -194 L -21 -119 C -18 -119 -14 -120 -8 -121 C -2 -121 3 -122 9 -122 C 22 -122 33 -117 43 -107 C 53 -97 58 -83 58 -65 L 58 436 L 149 436 Z" unicode="j" />
<glyph horiz-adv-x="450" d="M 462 1 L 356 0 L 218 189 L 146 107 L 146 0 L 55 0 L 55 750 L 142 750 L 142 208 L 330 436 L 433 436 L 278 253 L 462 1 Z" unicode="k" />
<glyph horiz-adv-x="204" d="M 148 753 L 148 0 L 56 0 L 56 753 L 148 753 Z" unicode="l" />
<glyph horiz-adv-x="767" d="M 55 0 L 55 436 L 142 436 L 142 363 C 150 387 166 407 192 423 C 218 439 250 447 288 447 C 322 447 350 439 373 424 C 395 408 410 388 417 362 L 420 362 C 428 387 446 407 472 423 C 498 439 530 447 568 447 C 612 447 648 434 675 409 C 702 384 716 349 716 305 L 716 0 L 625 0 L 625 279 C 625 308 617 331 601 347 C 585 363 562 371 534 371 C 508 371 485 362 463 344 C 441 326 431 298 431 258 L 431 0 L 340 0 L 340 280 C 340 310 332 332 316 348 C 300 363 279 371 252 371 C 224 371 199 361 178 343 C 156 324 146 296 146 258 L 146 0 L 55 0 Z" unicode="m" />
<glyph horiz-adv-x="485" d="M 434 0 L 342 0 L 342 284 C 342 310 334 331 318 347 C 302 363 280 371 252 371 C 224 371 199 362 178 344 C 157 326 147 298 147 258 L 147 0 L 55 0 L 55 436 L 143 436 L 143 364 C 152 388 169 407 195 423 C 220 439 250 447 285 447 C 330 447 366 434 393 409 C 420 384 434 350 434 306 L 434 0 Z" unicode="n" />
<glyph horiz-adv-x="486" d="M 241 -9 C 213 -9 186 -3 160 6 C 134 16 111 31 91 51 C 71 70 56 94 44 122 C 32 150 26 181 26 217 C 26 249 31 279 42 307 C 53 335 68 359 88 380 C 107 400 129 416 155 428 C 181 440 208 446 238 446 C 268 446 297 440 324 430 C 351 420 375 405 395 386 C 415 367 430 344 442 318 C 454 291 460 261 460 229 C 460 194 454 162 443 133 C 432 103 417 78 397 57 C 377 36 354 20 328 8 C 301 -3 272 -9 241 -9 Z M 243 68 C 279 68 308 81 330 109 C 352 136 364 174 364 222 C 364 266 352 301 330 328 C 307 354 276 368 236 368 C 203 368 176 354 154 328 C 132 302 122 265 122 219 C 122 169 133 131 156 106 C 179 80 208 68 243 68 Z" unicode="o" />
<glyph horiz-adv-x="497" d="M 55 -200 L 55 436 L 142 436 L 142 355 C 150 377 167 397 193 416 C 219 435 252 445 291 445 C 345 445 388 424 421 384 C 454 343 471 291 471 228 C 471 191 465 158 455 129 C 445 99 431 75 414 55 C 396 35 377 20 355 10 C 333 0 310 -6 287 -6 C 251 -6 221 1 195 17 C 169 32 152 49 144 68 L 144 -200 L 55 -200 Z M 263 64 C 295 64 322 77 343 104 C 364 130 375 168 375 217 C 375 262 365 299 345 328 C 325 357 297 372 259 372 C 227 372 200 359 177 333 C 154 307 143 267 143 213 C 143 159 155 121 179 98 C 203 75 231 64 263 64 Z" unicode="p" />
<glyph horiz-adv-x="500" d="M 355 -200 L 355 75 C 346 54 329 35 305 19 C 281 2 251 -6 217 -6 C 188 -6 162 0 138 11 C 114 22 94 37 78 57 C 62 77 49 100 40 127 C 31 154 27 183 27 215 C 27 249 32 280 42 309 C 52 337 66 362 83 382 C 100 402 120 418 144 430 C 167 441 191 447 217 447 C 253 447 283 438 307 422 C 331 406 348 388 357 368 L 357 436 L 444 436 L 444 -200 L 355 -200 Z M 241 66 C 271 66 298 79 322 106 C 346 133 358 172 358 222 C 358 271 346 308 323 333 C 299 358 271 371 239 371 C 203 371 174 357 154 330 C 133 303 123 267 123 221 C 123 177 133 140 153 110 C 173 80 203 66 241 66 Z" unicode="q" />
<glyph horiz-adv-x="356" d="M 356 415 L 322 339 C 308 349 295 356 282 360 C 269 363 256 365 244 365 C 221 365 199 355 178 337 C 157 318 147 289 147 251 L 147 0 L 55 0 L 55 436 L 144 436 L 144 360 C 150 378 163 397 185 417 C 207 436 234 446 267 446 C 285 446 302 443 318 437 C 333 431 346 423 356 415 Z" unicode="r" />
<glyph horiz-adv-x="359" d="M 190 -10 C 152 -10 119 -4 91 6 C 63 16 41 31 23 49 L 69 112 C 83 98 100 86 121 78 C 142 70 164 66 187 66 C 205 66 221 70 233 80 C 245 89 251 102 251 119 C 251 134 243 147 228 157 C 213 167 189 178 157 190 C 118 203 88 220 66 240 C 44 260 34 288 34 323 C 34 359 48 388 76 411 C 104 434 138 446 180 446 C 210 446 238 441 262 431 C 286 421 306 411 321 399 L 275 340 C 265 346 251 353 234 360 C 217 367 199 371 181 371 C 164 371 149 367 136 361 C 123 354 117 344 117 330 C 117 318 122 307 132 299 C 142 291 165 280 201 267 C 244 251 277 232 299 212 C 321 192 333 163 333 125 C 333 83 319 50 291 26 C 263 2 230 -10 190 -10 Z" unicode="s" />
<glyph horiz-adv-x="246" d="M 232 77 L 238 3 C 235 1 229 -1 219 -3 C 209 -5 198 -6 186 -6 C 172 -6 158 -4 144 -1 C 130 2 117 8 105 17 C 93 26 83 38 75 53 C 67 68 63 87 63 111 L 63 355 L 10 355 L 10 436 L 64 436 L 64 552 L 153 563 L 153 436 L 229 436 L 229 355 L 154 355 L 154 123 C 154 104 158 91 168 84 C 178 76 191 73 207 73 C 210 73 215 73 221 74 C 227 75 231 76 232 77 Z" unicode="t" />
<glyph horiz-adv-x="486" d="M 52 436 L 143 436 L 143 152 C 143 123 151 101 168 87 C 184 72 206 65 234 65 C 262 65 287 73 307 91 C 327 108 338 136 338 175 L 338 436 L 430 436 L 430 0 L 340 0 L 340 71 C 329 47 311 27 286 13 C 260 0 231 -8 198 -8 C 156 -8 122 4 94 28 C 66 52 52 89 52 137 L 52 436 Z" unicode="u" />
<glyph horiz-adv-x="426" d="M 430 436 L 241 -3 L 181 -3 L -4 436 L 96 436 L 216 137 L 336 436 L 430 436 Z" unicode="v" />
<glyph horiz-adv-x="627" d="M 416 -3 L 314 271 L 210 -3 L 151 -3 L 5 436 L 98 436 L 191 135 L 289 401 L 346 401 L 442 135 L 537 436 L 622 436 L 475 -3 L 416 -3 Z" unicode="w" />
<glyph horiz-adv-x="399" d="M 291 0 L 197 150 L 100 0 L 4 0 L 149 225 L 16 436 L 119 436 L 201 305 L 286 436 L 382 436 L 249 230 L 393 0 L 291 0 Z" unicode="x" />
<glyph horiz-adv-x="430" d="M 431 436 L 203 -96 C 184 -138 162 -165 136 -179 C 110 -193 85 -200 61 -200 C 47 -200 35 -198 25 -196 C 14 -193 6 -190 1 -188 L 27 -107 C 29 -108 34 -110 42 -112 C 50 -114 57 -116 65 -116 C 78 -116 90 -111 101 -102 C 112 -93 123 -77 134 -54 L 171 37 L -3 436 L 96 436 L 218 139 L 338 436 L 431 436 Z" unicode="y" />
<glyph horiz-adv-x="366" d="M 349 436 L 349 392 L 144 81 L 354 81 L 354 0 L 11 0 L 11 30 L 225 355 L 24 355 L 24 436 L 349 436 Z" unicode="z" />
<glyph horiz-adv-x="302" d="M 273 -179 C 242 -179 213 -175 187 -167 C 161 -159 138 -148 119 -134 C 99 -120 84 -104 74 -86 C 63 -67 58 -47 58 -27 C 58 -1 61 21 67 43 C 73 64 79 82 87 98 C 93 114 100 130 107 144 C 114 158 118 172 118 186 C 118 201 109 216 92 230 C 74 244 52 251 25 251 L 25 320 C 52 320 75 327 93 342 C 111 356 120 373 120 392 C 120 396 116 407 110 423 C 103 439 95 456 87 475 C 78 493 71 512 66 530 C 61 548 59 565 59 583 C 59 603 64 624 75 644 C 85 664 100 681 119 697 C 138 712 161 724 187 734 C 213 744 242 749 273 749 L 273 682 C 239 681 211 670 188 650 C 165 630 154 605 154 577 C 154 567 155 555 158 541 C 161 527 166 514 173 500 C 183 479 192 460 200 443 C 208 426 212 411 212 399 C 212 372 203 348 187 328 C 170 307 144 293 110 285 C 145 277 171 262 187 241 C 203 220 212 198 212 175 C 212 156 208 139 201 125 C 193 111 186 96 178 82 C 170 68 163 53 159 37 C 155 21 153 6 153 -7 C 153 -19 155 -31 161 -43 C 167 -55 175 -66 186 -76 C 196 -86 209 -94 224 -101 C 238 -107 255 -111 273 -111 L 273 -179 Z" unicode="{" />
<glyph horiz-adv-x="249" d="M 168 -179 L 81 -179 L 81 730 L 168 730 L 168 -179 Z" unicode="|" />
<glyph horiz-adv-x="302" d="M 30 -179 L 30 -111 C 48 -111 64 -107 79 -101 C 93 -94 106 -86 116 -76 C 126 -66 134 -55 140 -43 C 146 -31 149 -19 149 -7 C 149 6 146 21 142 37 C 138 53 132 68 124 82 C 116 96 109 111 101 125 C 93 139 90 156 90 175 C 90 198 98 220 114 241 C 130 262 156 277 192 285 C 158 293 132 307 115 328 C 98 348 90 372 90 399 C 90 411 94 426 102 443 C 110 460 120 479 130 500 C 136 514 141 527 144 541 C 147 555 149 567 149 577 C 149 605 137 630 114 650 C 91 670 63 681 30 682 L 30 749 C 60 749 89 744 115 734 C 141 724 164 712 183 697 C 201 681 216 664 227 644 C 237 624 243 603 243 583 C 243 565 240 548 236 530 C 231 512 224 493 216 475 C 207 456 199 439 192 423 C 185 407 182 396 182 392 C 182 373 191 356 209 342 C 227 327 250 320 278 320 L 278 251 C 250 251 227 244 210 230 C 192 216 184 201 184 186 C 184 172 187 158 194 144 C 201 130 208 114 216 98 C 223 82 229 64 235 43 C 241 21 244 -1 244 -27 C 244 -47 238 -67 228 -86 C 217 -104 202 -120 183 -134 C 164 -148 141 -159 115 -167 C 89 -175 60 -179 30 -179 Z" unicode="}" />
<glyph horiz-adv-x="484" d="M 377 441 L 453 441 C 452 385 443 342 426 314 C 409 285 383 271 347 271 C 323 271 303 275 287 285 C 271 295 256 305 243 316 C 229 327 216 337 203 346 C 189 354 175 359 161 359 C 146 359 133 351 122 336 C 111 321 106 300 106 274 L 31 274 C 31 330 40 372 60 401 C 79 430 104 445 134 445 C 159 445 181 440 199 430 C 217 420 235 408 252 395 C 264 385 277 375 290 367 C 302 358 317 354 333 354 C 351 354 363 361 369 375 C 374 389 377 411 377 441 Z" unicode="~" />
<glyph horiz-adv-x="289" d="M 96 584 L 194 584 L 194 473 L 96 473 L 96 584 Z M 91 154 L 123 380 L 169 380 L 198 154 L 198 -129 L 91 -129 L 91 154 Z" unicode="¡" />
<glyph horiz-adv-x="499" d="M 484 173 C 468 151 447 130 421 109 C 395 88 358 75 312 71 L 312 -37 L 242 -37 L 242 73 C 180 81 131 108 94 154 C 56 200 38 256 38 324 C 38 356 42 387 52 417 C 62 446 75 472 93 495 C 111 517 132 536 158 552 C 183 567 211 577 242 582 L 242 685 L 312 685 L 312 584 C 356 579 393 566 422 544 C 450 522 471 498 485 473 L 418 429 C 407 445 393 461 376 475 C 358 489 337 498 312 503 L 312 148 C 342 152 366 162 384 178 C 401 194 415 209 426 224 L 484 173 Z M 131 327 C 131 283 141 245 161 214 C 181 183 208 163 242 153 L 242 499 C 208 489 181 468 161 437 C 141 405 131 369 131 327 Z" unicode="¢" />
<glyph horiz-adv-x="546" d="M 535 84 L 535 0 L 16 0 L 16 64 C 21 66 30 69 43 72 C 56 74 75 78 99 83 C 124 87 147 98 168 115 C 188 131 199 155 199 186 C 199 190 198 195 198 199 C 197 203 196 208 195 213 L 30 213 L 30 283 L 162 283 C 156 292 151 302 145 312 C 139 322 133 333 127 344 L 30 344 L 30 414 L 92 414 C 84 433 77 453 72 475 C 67 497 65 520 65 544 C 65 581 71 612 85 638 C 98 663 116 683 138 699 C 160 714 185 725 214 732 C 242 738 272 742 304 742 C 354 742 400 733 443 716 C 485 698 516 682 535 666 L 483 586 C 467 599 443 614 411 630 C 379 646 344 654 306 654 C 288 654 271 652 254 648 C 236 644 221 637 208 627 C 195 617 184 603 176 587 C 168 571 164 551 164 527 C 164 507 167 488 173 469 C 179 450 186 432 195 414 L 462 414 L 462 344 L 234 344 C 240 333 245 323 251 313 C 256 303 261 293 266 283 L 462 283 L 462 213 L 282 213 C 281 175 270 145 250 125 C 230 104 210 90 192 84 L 535 84 Z" unicode="£" />
<glyph horiz-adv-x="502" d="M 441 191 L 399 149 L 342 209 C 328 201 314 194 298 190 C 282 186 266 184 250 184 C 233 184 217 186 201 190 C 185 194 171 201 158 209 L 101 149 L 57 193 L 111 249 C 99 263 89 279 83 297 C 76 315 73 334 73 354 C 73 374 76 393 83 411 C 90 429 100 445 112 460 L 57 516 L 99 558 L 157 498 C 170 506 185 513 201 517 C 217 521 233 524 250 524 C 267 524 284 521 300 517 C 316 512 330 506 344 498 L 404 559 L 446 516 L 390 458 C 401 443 410 427 417 409 C 423 391 427 373 427 354 C 427 333 423 314 416 296 C 409 278 400 261 388 247 L 441 191 Z M 250 252 C 279 252 304 262 326 283 C 347 303 358 327 358 354 C 358 381 347 405 326 425 C 304 445 279 456 250 456 C 220 456 194 445 173 425 C 152 405 142 381 142 354 C 142 327 152 303 173 283 C 194 262 220 252 250 252 Z" unicode="¤" />
<glyph horiz-adv-x="591" d="M 520 137 L 341 137 L 341 0 L 241 0 L 241 137 L 69 137 L 69 210 L 241 210 L 241 262 L 69 262 L 69 335 L 241 335 L 241 338 L 25 730 L 134 730 L 295 428 L 457 730 L 561 730 L 342 335 L 520 335 L 520 262 L 341 262 L 341 210 L 520 210 L 520 137 Z" unicode="¥" />
<glyph horiz-adv-x="271" d="M 96 351 L 96 730 L 176 730 L 176 351 L 96 351 Z M 176 200 L 176 -179 L 96 -179 L 96 200 L 176 200 Z" unicode="¦" />
<glyph horiz-adv-x="628" d="M 332 -181 C 277 -181 226 -174 178 -160 C 130 -146 90 -128 58 -106 L 95 -29 C 125 -50 162 -68 204 -82 C 246 -96 287 -104 325 -104 C 359 -104 387 -95 410 -79 C 432 -62 444 -38 444 -8 C 444 19 434 40 416 54 C 398 68 373 82 343 96 L 224 148 C 194 160 168 172 146 183 C 124 194 105 206 90 219 C 75 232 64 247 56 264 C 48 280 45 301 45 326 C 45 356 52 382 68 402 C 83 422 101 439 123 453 C 104 464 90 480 81 500 C 72 520 68 544 68 574 C 68 600 74 624 86 645 C 98 666 114 684 135 698 C 156 712 181 722 210 730 C 238 738 269 742 303 742 C 363 742 411 733 449 716 C 487 699 519 681 545 663 L 503 592 C 473 612 443 630 412 646 C 380 661 343 669 301 669 C 263 669 231 660 205 643 C 179 626 166 603 166 574 C 166 553 173 536 187 522 C 201 508 222 496 251 484 L 407 419 C 463 397 505 374 535 350 C 564 325 579 291 579 247 C 579 211 567 182 543 162 C 519 141 493 128 465 124 C 473 119 481 113 491 105 C 500 97 509 88 517 77 C 525 66 531 53 537 39 C 542 25 545 9 545 -8 C 545 -35 539 -59 528 -81 C 517 -102 502 -120 483 -135 C 464 -149 442 -161 416 -169 C 390 -177 362 -181 332 -181 Z M 399 168 C 419 170 438 176 456 187 C 474 198 483 216 483 240 C 483 262 472 282 452 298 C 431 314 397 331 351 350 L 202 413 C 184 404 169 394 157 382 C 144 370 138 354 138 334 C 138 308 148 288 170 273 C 192 258 226 241 273 222 L 399 168 Z" unicode="§" />
<glyph horiz-adv-x="500" d="M 375 499 L 298 499 L 298 657 L 375 657 L 375 499 Z M 202 499 L 125 499 L 125 657 L 202 657 L 202 499 Z" unicode="¨" />
<glyph horiz-adv-x="826" d="M 413 7 C 362 7 314 16 270 36 C 225 55 186 81 153 114 C 119 147 93 186 74 231 C 54 276 45 324 45 374 C 45 424 54 472 74 517 C 93 561 119 600 153 634 C 186 667 225 693 270 713 C 314 732 362 742 413 742 C 463 742 510 732 555 713 C 600 693 639 667 673 634 C 706 600 732 561 752 517 C 771 472 781 424 781 374 C 781 324 771 276 752 231 C 732 186 706 147 673 114 C 639 81 600 55 555 36 C 510 16 463 7 413 7 Z M 413 68 C 454 68 493 76 530 92 C 567 108 599 130 627 158 C 654 185 676 217 692 255 C 708 292 716 331 716 373 C 716 415 708 454 692 492 C 676 529 654 561 627 589 C 599 617 567 639 530 655 C 493 671 454 680 413 680 C 371 680 331 671 294 655 C 257 639 225 617 198 589 C 170 561 149 529 133 492 C 117 454 109 415 109 373 C 109 331 117 292 133 255 C 149 217 170 185 198 158 C 225 130 257 108 294 92 C 331 76 371 68 413 68 Z M 584 246 C 568 221 545 200 517 184 C 488 167 453 159 412 159 C 386 159 360 163 336 173 C 312 182 290 196 272 214 C 253 232 238 255 227 282 C 215 309 210 340 210 376 C 210 410 215 441 225 469 C 235 497 249 520 267 540 C 285 559 306 574 330 585 C 354 595 380 601 408 601 C 452 601 487 593 515 578 C 542 563 563 544 579 521 L 513 473 C 502 487 489 498 473 508 C 457 518 436 523 410 523 C 376 523 349 508 327 480 C 305 452 294 416 294 373 C 294 328 306 293 330 268 C 354 243 382 231 413 231 C 436 231 457 236 475 247 C 493 258 508 272 519 289 L 584 246 Z" unicode="©" />
<glyph horiz-adv-x="433" d="M 390 332 L 316 332 L 316 388 C 301 368 281 353 256 343 C 230 332 203 327 173 327 C 131 327 97 338 73 360 C 48 382 36 412 36 452 C 36 494 52 527 86 550 C 120 572 165 585 223 588 L 311 595 L 311 601 C 311 623 303 639 287 651 C 271 662 248 668 220 668 C 196 668 174 663 152 655 C 130 647 110 637 94 625 L 62 689 C 82 703 107 716 136 726 C 165 736 198 742 235 742 C 282 742 320 731 348 709 C 376 687 390 651 390 601 L 390 332 Z M 313 444 L 313 532 L 218 526 C 188 524 163 519 145 509 C 126 499 117 481 117 457 C 117 437 124 422 140 411 C 156 400 176 395 201 395 C 222 395 243 399 264 408 C 285 417 301 429 313 444 Z M 400 214 L 42 214 L 42 289 L 400 289 L 400 214 Z" unicode="ª" />
<glyph horiz-adv-x="448" d="M 209 77 L 28 244 L 28 309 L 209 474 L 209 379 L 108 274 L 209 175 L 209 77 Z M 418 77 L 236 244 L 236 309 L 418 474 L 418 379 L 317 274 L 418 176 L 418 77 Z" unicode="«" />
<glyph horiz-adv-x="500" d="M 451 386 L 451 131 L 373 131 L 373 305 L 31 305 L 31 386 L 451 386 Z" unicode="¬" />
<glyph horiz-adv-x="826" d="M 413 7 C 362 7 314 16 270 36 C 225 55 186 81 153 114 C 119 147 93 186 74 231 C 54 276 45 324 45 374 C 45 424 54 472 74 517 C 93 561 119 600 153 634 C 186 667 225 693 270 713 C 314 732 362 742 413 742 C 463 742 510 732 555 713 C 600 693 639 667 673 634 C 706 600 732 561 752 517 C 771 472 781 424 781 374 C 781 324 771 276 752 231 C 732 186 706 147 673 114 C 639 81 600 55 555 36 C 510 16 463 7 413 7 Z M 413 68 C 454 68 493 75 530 91 C 567 107 599 128 627 156 C 654 183 676 215 692 253 C 708 290 716 330 716 374 C 716 416 708 456 692 494 C 676 531 654 563 627 591 C 599 619 567 640 530 656 C 493 672 454 680 413 680 C 371 680 331 672 294 656 C 257 640 225 618 198 591 C 170 563 149 531 133 493 C 117 455 109 416 109 374 C 109 331 117 291 133 254 C 149 216 170 184 198 157 C 225 129 257 108 294 92 C 331 76 371 68 413 68 Z M 275 167 L 275 602 L 432 602 C 449 602 466 599 484 595 C 502 590 518 583 532 573 C 546 563 557 550 566 535 C 574 519 579 501 579 481 C 579 442 568 413 547 395 C 526 377 504 366 482 363 L 481 359 L 610 167 L 523 167 L 415 334 L 353 334 L 353 167 L 275 167 Z M 353 400 L 435 400 C 451 400 467 406 481 418 C 495 430 502 447 503 471 C 503 495 495 512 481 520 C 466 528 447 533 425 533 L 353 533 L 353 400 Z" unicode="®" />
<glyph horiz-adv-x="500" d="M 378 523 L 122 523 L 122 591 L 378 591 L 378 523 Z" unicode="¯" />
<glyph horiz-adv-x="430" d="M 215 372 C 189 372 165 376 143 386 C 120 396 100 409 84 426 C 67 442 54 462 44 485 C 34 507 30 531 30 557 C 30 582 34 606 44 629 C 54 651 67 671 84 688 C 100 704 120 717 143 727 C 165 737 189 742 215 742 C 240 742 264 737 287 727 C 309 717 329 704 346 688 C 362 671 375 651 385 629 C 395 606 400 582 400 557 C 400 531 395 507 385 485 C 375 462 362 442 346 426 C 329 409 309 396 287 386 C 264 376 240 372 215 372 Z M 215 445 C 245 445 272 456 294 478 C 316 500 328 526 328 557 C 328 587 316 614 294 636 C 272 658 245 670 215 670 C 184 670 157 658 135 636 C 113 614 102 587 102 557 C 102 526 113 500 135 478 C 157 456 184 445 215 445 Z" unicode="°" />
<glyph horiz-adv-x="500" d="M 475 295 L 290 295 L 290 112 L 211 112 L 211 295 L 25 295 L 25 367 L 211 367 L 211 550 L 290 550 L 290 367 L 475 367 L 475 295 Z M 470 25 L 32 25 L 32 92 L 470 92 L 470 25 Z" unicode="±" />
<glyph horiz-adv-x="344" d="M 309 372 L 27 372 L 27 402 L 186 559 C 192 565 199 573 205 583 C 211 593 215 605 215 619 C 215 633 210 645 200 656 C 190 667 176 673 156 673 C 133 673 117 666 108 652 C 99 638 94 623 94 605 L 22 605 C 22 641 34 673 59 700 C 83 727 119 741 165 741 C 209 741 242 730 264 710 C 286 689 297 664 297 636 C 297 609 292 587 282 569 C 272 551 262 537 252 527 L 159 439 L 309 439 L 309 372 Z" unicode="²" />
<glyph horiz-adv-x="346" d="M 226 569 C 253 564 275 553 291 537 C 307 521 315 501 315 477 C 315 465 312 452 307 439 C 302 425 294 413 282 402 C 270 391 255 382 235 375 C 215 367 190 364 161 364 C 119 364 87 369 64 379 C 40 389 22 398 10 408 L 55 454 C 65 447 79 441 96 435 C 113 429 133 426 157 426 C 188 426 210 432 223 444 C 235 456 242 471 242 489 C 242 507 234 520 218 526 C 202 532 184 535 162 535 L 89 535 L 89 593 L 156 593 C 176 593 193 596 206 603 C 218 610 225 621 225 636 C 225 648 219 658 208 666 C 197 673 180 677 158 677 C 138 677 120 673 103 666 C 86 658 73 650 65 640 L 21 684 C 34 698 52 711 74 723 C 96 735 128 742 169 742 C 209 742 241 733 265 717 C 288 700 300 678 300 652 C 300 630 292 611 278 597 C 263 583 246 573 226 569 Z" unicode="³" />
<glyph horiz-adv-x="500" d="M 153 498 L 252 664 L 360 664 L 245 498 L 153 498 Z" unicode="´" />
<glyph horiz-adv-x="567" d="M 69 -106 L 69 449 L 161 449 L 161 158 C 161 128 171 105 192 89 C 213 73 239 65 270 65 C 302 65 332 74 358 94 C 384 114 397 143 397 183 L 397 449 L 489 449 L 489 0 L 405 0 L 405 95 C 393 67 374 43 346 24 C 318 4 288 -5 254 -7 C 231 -7 210 -3 192 6 C 174 16 161 29 154 46 L 154 -106 L 69 -106 Z" unicode="µ" />
<glyph horiz-adv-x="639" d="M 577 -180 L 517 -179 L 517 657 L 411 657 L 411 -179 L 350 -179 L 350 264 L 253 264 C 223 264 194 270 166 282 C 138 294 113 311 92 332 C 71 353 54 378 41 406 C 28 434 22 463 22 494 C 22 527 28 558 40 587 C 52 616 69 641 91 662 C 113 683 139 700 170 712 C 200 724 234 730 272 730 L 577 730 L 577 -180 Z M 351 341 L 351 653 L 293 653 C 243 653 207 638 184 608 C 160 578 149 541 149 496 C 149 454 160 417 184 387 C 207 356 240 341 283 341 L 351 341 Z" unicode="¶" />
<glyph horiz-adv-x="252" d="M 173 272 L 80 272 L 80 402 L 173 402 L 173 272 Z" unicode="·" />
<glyph horiz-adv-x="500" d="M 255 -187 C 231 -187 208 -184 184 -178 C 160 -172 141 -164 127 -155 L 139 -114 C 148 -119 160 -124 176 -130 C 192 -136 209 -139 228 -139 C 242 -139 255 -135 266 -129 C 276 -122 282 -113 282 -103 C 282 -90 277 -81 267 -76 C 257 -70 247 -68 237 -68 C 229 -68 222 -68 216 -70 C 210 -71 204 -73 198 -75 L 183 -60 L 243 12 L 299 12 L 249 -50 C 282 -42 310 -45 333 -57 C 355 -69 367 -88 367 -112 C 367 -136 355 -155 333 -168 C 311 -180 285 -187 255 -187 Z" unicode="¸" />
<glyph horiz-adv-x="318" d="M 139 372 L 139 641 C 131 630 118 620 99 612 C 79 604 63 598 49 596 L 48 678 C 72 681 94 688 112 698 C 130 708 149 722 168 740 L 225 740 L 225 372 L 139 372 Z" unicode="¹" />
<glyph horiz-adv-x="435" d="M 214 326 C 189 326 165 330 142 340 C 118 349 98 362 80 380 C 62 397 47 418 37 444 C 26 470 21 499 21 531 C 21 559 26 586 36 612 C 46 637 60 659 78 678 C 96 697 116 712 140 724 C 164 735 189 741 216 741 C 243 741 269 736 293 726 C 317 716 338 703 356 686 C 374 668 388 647 398 623 C 408 598 413 571 413 541 C 413 510 407 481 397 455 C 387 429 373 406 355 387 C 337 367 315 352 291 342 C 267 331 241 326 214 326 Z M 215 401 C 249 401 276 413 298 439 C 320 465 331 498 331 538 C 331 575 320 606 300 631 C 280 655 252 668 216 668 C 183 668 156 655 135 629 C 113 603 103 570 103 530 C 103 491 113 460 135 436 C 156 412 183 401 215 401 Z M 38 214 L 38 289 L 394 289 L 394 214 L 38 214 Z" unicode="º" />
<glyph horiz-adv-x="448" d="M 29 474 L 212 306 L 212 242 L 29 77 L 29 171 L 130 276 L 29 375 L 29 474 Z M 239 474 L 420 306 L 420 242 L 239 77 L 239 171 L 340 276 L 239 375 L 239 474 Z" unicode="»" />
<glyph horiz-adv-x="701" d="M 12 0 L 12 0 Z M 103 372 L 103 641 C 95 630 82 620 63 612 C 43 604 27 598 13 596 L 12 678 C 36 681 58 688 76 698 C 94 708 113 722 132 740 L 189 740 L 189 372 L 103 372 Z M 577 730 L 210 0 L 129 0 L 496 730 L 577 730 Z M 389 83 L 389 139 L 575 366 L 628 366 L 628 142 L 689 142 L 689 83 L 628 83 L 628 1 L 552 1 L 552 83 L 389 83 Z M 456 134 L 554 134 L 554 256 L 456 134 Z" unicode="¼" />
<glyph horiz-adv-x="769" d="M 12 0 L 12 0 Z M 103 372 L 103 641 C 95 630 82 620 63 612 C 43 604 27 598 13 596 L 12 678 C 36 681 58 688 76 698 C 94 708 113 722 132 740 L 189 740 L 189 372 L 103 372 Z M 577 730 L 210 0 L 129 0 L 496 730 L 577 730 Z M 743 0 L 461 0 L 461 30 L 620 187 C 626 193 633 201 639 211 C 645 221 649 233 649 247 C 649 261 644 273 634 284 C 624 295 610 301 590 301 C 567 301 551 294 542 280 C 533 266 528 251 528 233 L 456 233 C 456 269 468 301 493 328 C 517 355 553 369 599 369 C 643 369 676 358 698 338 C 720 317 731 292 731 264 C 731 237 726 215 716 197 C 706 179 696 165 686 155 L 593 67 L 743 67 L 743 0 Z" unicode="½" />
<glyph horiz-adv-x="761" d="M 12 0 L 12 0 Z M 637 730 L 270 0 L 189 0 L 556 730 L 637 730 Z M 449 83 L 449 139 L 635 366 L 688 366 L 688 142 L 749 142 L 749 83 L 688 83 L 688 1 L 612 1 L 612 83 L 449 83 Z M 516 134 L 614 134 L 614 256 L 516 134 Z M 228 569 C 255 564 277 553 293 537 C 309 521 317 501 317 477 C 317 465 314 452 309 439 C 304 425 296 413 284 402 C 272 391 257 382 237 375 C 217 367 192 364 163 364 C 121 364 89 369 66 379 C 42 389 24 398 12 408 L 57 454 C 67 447 81 441 98 435 C 115 429 135 426 159 426 C 190 426 212 432 225 444 C 237 456 244 471 244 489 C 244 507 236 520 220 526 C 204 532 186 535 164 535 L 91 535 L 91 593 L 158 593 C 178 593 195 596 208 603 C 220 610 227 621 227 636 C 227 648 221 658 210 666 C 199 673 182 677 160 677 C 140 677 122 673 105 666 C 88 658 75 650 67 640 L 23 684 C 36 698 54 711 76 723 C 98 735 130 742 171 742 C 211 742 243 733 267 717 C 290 700 302 678 302 652 C 302 630 294 611 280 597 C 265 583 248 573 228 569 Z" unicode="¾" />
<glyph horiz-adv-x="456" d="M 194 479 L 194 584 L 298 584 L 298 479 L 194 479 Z M 228 -150 C 168 -150 118 -134 79 -104 C 39 -74 20 -31 20 24 C 20 50 23 73 31 93 C 39 113 49 131 61 147 C 73 163 86 177 100 190 C 114 202 127 214 140 225 C 166 245 182 270 190 298 C 197 326 201 354 202 382 L 294 382 C 294 335 288 298 278 270 C 267 242 247 214 218 188 C 194 168 172 146 150 124 C 128 101 118 72 118 36 C 118 3 129 -22 153 -41 C 177 -59 206 -69 240 -69 C 270 -69 298 -61 322 -47 C 346 -32 367 -14 383 6 L 443 -50 C 420 -78 390 -102 354 -121 C 317 -140 275 -150 228 -150 Z" unicode="¿" />
<glyph horiz-adv-x="598" d="M 2 0 L 2 0 Z M 596 0 L 495 0 L 427 187 L 166 187 L 100 0 L 2 0 L 270 734 L 331 734 L 596 0 Z M 400 272 L 297 557 L 193 272 L 400 272 Z M 298 792 L 298 792 Z M 402 792 L 310 792 L 194 958 L 302 958 L 402 792 Z" unicode="À" />
<glyph horiz-adv-x="598" d="M 2 0 L 2 0 Z M 596 0 L 495 0 L 427 187 L 166 187 L 100 0 L 2 0 L 270 734 L 331 734 L 596 0 Z M 400 272 L 297 557 L 193 272 L 400 272 Z M 298 792 L 298 792 Z M 195 792 L 294 958 L 402 958 L 287 792 L 195 792 Z" unicode="Á" />
<glyph horiz-adv-x="598" d="M 2 0 L 2 0 Z M 596 0 L 495 0 L 427 187 L 166 187 L 100 0 L 2 0 L 270 734 L 331 734 L 596 0 Z M 400 272 L 297 557 L 193 272 L 400 272 Z M 298 793 L 298 793 Z M 457 793 L 375 793 L 298 901 L 220 793 L 139 793 L 254 964 L 343 964 L 457 793 Z" unicode="Â" />
<glyph horiz-adv-x="598" d="M 2 0 L 2 0 Z M 596 0 L 495 0 L 427 187 L 166 187 L 100 0 L 2 0 L 270 734 L 331 734 L 596 0 Z M 400 272 L 297 557 L 193 272 L 400 272 Z M 298 799 L 298 799 Z M 387 936 L 455 936 C 455 889 448 854 435 832 C 422 810 405 799 384 799 C 365 799 349 802 336 809 C 322 816 311 823 302 830 C 292 836 283 843 274 849 C 265 855 256 859 248 859 C 239 859 231 853 225 843 C 218 833 214 819 214 803 L 146 803 C 146 849 154 883 172 906 C 189 928 208 940 228 940 C 244 940 258 936 270 929 C 282 921 293 914 304 906 C 312 899 321 892 330 886 C 338 880 347 877 356 877 C 364 877 371 882 377 893 C 383 903 387 918 387 936 Z" unicode="Ã" />
<glyph horiz-adv-x="598" d="M 2 0 L 2 0 Z M 596 0 L 495 0 L 427 187 L 166 187 L 100 0 L 2 0 L 270 734 L 331 734 L 596 0 Z M 400 272 L 297 557 L 193 272 L 400 272 Z M 298 793 L 298 793 Z M 422 793 L 345 793 L 345 951 L 422 951 L 422 793 Z M 249 793 L 172 793 L 172 951 L 249 951 L 249 793 Z" unicode="Ä" />
<glyph horiz-adv-x="598" d="M 2 0 L 2 0 Z M 596 0 L 495 0 L 427 187 L 166 187 L 100 0 L 2 0 L 270 734 L 331 734 L 596 0 Z M 400 272 L 297 557 L 193 272 L 400 272 Z M 298 789 L 298 789 Z M 298 789 C 266 789 240 800 218 822 C 196 844 185 870 185 902 C 185 934 196 961 218 983 C 240 1005 266 1016 298 1016 C 330 1016 357 1005 379 983 C 401 961 412 934 412 902 C 412 870 401 844 379 822 C 357 800 330 789 298 789 Z M 298 843 C 314 843 328 848 339 860 C 350 871 356 885 356 902 C 356 918 350 932 339 944 C 328 956 314 962 298 962 C 282 962 268 956 257 944 C 245 932 240 918 240 902 C 240 885 245 871 257 860 C 268 848 282 843 298 843 Z" unicode="Å" />
<glyph horiz-adv-x="893" d="M 854 0 L 459 0 L 459 233 L 225 233 L 90 0 L -13 0 L 410 730 L 836 730 L 836 643 L 555 643 L 555 404 L 823 404 L 823 317 L 555 317 L 555 87 L 854 87 L 854 0 Z M 459 313 L 459 644 L 270 313 L 459 313 Z" unicode="Æ" />
<glyph horiz-adv-x="633" d="M 43 0 L 43 0 Z M 363 -10 C 318 -10 276 -1 237 14 C 198 30 164 54 136 86 C 107 118 84 157 68 204 C 51 251 43 305 43 365 C 43 420 50 471 66 517 C 82 563 104 603 132 636 C 160 668 193 694 233 712 C 273 730 317 740 365 740 C 429 740 481 729 520 707 C 559 685 591 658 616 625 L 546 559 C 528 583 504 603 476 620 C 448 637 412 646 368 646 C 298 646 243 620 204 570 C 164 520 145 450 145 361 C 145 312 151 270 164 235 C 176 199 193 170 214 148 C 234 125 258 108 285 97 C 312 86 340 81 369 81 C 415 81 453 90 485 109 C 516 127 542 151 562 180 L 627 126 C 600 86 564 53 520 28 C 476 2 423 -10 363 -10 Z M 348 -1 L 348 -1 Z M 356 -188 C 332 -188 309 -185 285 -179 C 261 -173 242 -165 228 -156 L 240 -115 C 249 -120 261 -125 277 -131 C 293 -137 310 -140 329 -140 C 343 -140 356 -136 367 -130 C 377 -123 383 -114 383 -104 C 383 -91 378 -82 368 -77 C 358 -71 348 -69 338 -69 C 330 -69 323 -69 317 -71 C 311 -72 305 -74 299 -76 L 284 -61 L 344 11 L 400 11 L 350 -51 C 383 -43 411 -46 434 -58 C 456 -70 468 -89 468 -113 C 468 -137 456 -156 434 -169 C 412 -181 386 -188 356 -188 Z" unicode="Ç" />
<glyph horiz-adv-x="520" d="M 83 0 L 83 0 Z M 482 0 L 83 0 L 83 730 L 463 730 L 463 640 L 182 640 L 182 407 L 450 407 L 450 317 L 182 317 L 182 90 L 482 90 L 482 0 Z M 274 792 L 274 792 Z M 378 792 L 286 792 L 170 958 L 278 958 L 378 792 Z" unicode="È" />
<glyph horiz-adv-x="520" d="M 83 0 L 83 0 Z M 482 0 L 83 0 L 83 730 L 463 730 L 463 640 L 182 640 L 182 407 L 450 407 L 450 317 L 182 317 L 182 90 L 482 90 L 482 0 Z M 274 792 L 274 792 Z M 171 792 L 270 958 L 378 958 L 263 792 L 171 792 Z" unicode="É" />
<glyph horiz-adv-x="520" d="M 83 0 L 83 0 Z M 482 0 L 83 0 L 83 730 L 463 730 L 463 640 L 182 640 L 182 407 L 450 407 L 450 317 L 182 317 L 182 90 L 482 90 L 482 0 Z M 274 793 L 274 793 Z M 433 793 L 351 793 L 274 901 L 196 793 L 115 793 L 230 964 L 319 964 L 433 793 Z" unicode="Ê" />
<glyph horiz-adv-x="520" d="M 83 0 L 83 0 Z M 482 0 L 83 0 L 83 730 L 463 730 L 463 640 L 182 640 L 182 407 L 450 407 L 450 317 L 182 317 L 182 90 L 482 90 L 482 0 Z M 274 793 L 274 793 Z M 398 793 L 321 793 L 321 951 L 398 951 L 398 793 Z M 225 793 L 148 793 L 148 951 L 225 951 L 225 793 Z" unicode="Ë" />
<glyph horiz-adv-x="276" d="M 34 0 L 34 0 Z M 188 0 L 88 0 L 88 730 L 188 730 L 188 0 Z M 138 792 L 138 792 Z M 242 792 L 150 792 L 34 958 L 142 958 L 242 792 Z" unicode="Ì" />
<glyph horiz-adv-x="276" d="M 35 0 L 35 0 Z M 188 0 L 88 0 L 88 730 L 188 730 L 188 0 Z M 138 792 L 138 792 Z M 35 792 L 134 958 L 242 958 L 127 792 L 35 792 Z" unicode="Í" />
<glyph horiz-adv-x="276" d="M 0 0 L 0 0 Z M 188 0 L 88 0 L 88 730 L 188 730 L 188 0 Z M 138 793 L 138 793 Z M 297 793 L 215 793 L 138 901 L 60 793 L -21 793 L 94 964 L 183 964 L 297 793 Z" unicode="Î" />
<glyph horiz-adv-x="276" d="M 12 0 L 12 0 Z M 188 0 L 88 0 L 88 730 L 188 730 L 188 0 Z M 138 793 L 138 793 Z M 262 793 L 185 793 L 185 951 L 262 951 L 262 793 Z M 89 793 L 12 793 L 12 951 L 89 951 L 89 793 Z" unicode="Ï" />
<glyph horiz-adv-x="678" d="M 636 366 C 636 315 628 267 612 223 C 596 178 573 139 543 107 C 513 74 475 48 429 29 C 383 9 331 0 271 0 L 83 0 L 83 320 L 29 320 L 29 399 L 83 399 L 83 730 L 284 730 C 340 730 390 721 434 704 C 478 686 514 662 544 631 C 574 599 596 561 612 516 C 628 471 636 421 636 366 Z M 183 85 L 268 85 C 315 85 355 92 389 107 C 422 122 449 142 470 167 C 491 192 507 222 517 256 C 527 290 532 325 532 363 C 532 453 510 522 466 570 C 422 618 362 643 285 643 L 183 643 L 183 399 L 355 399 L 355 320 L 183 320 L 183 85 Z" unicode="Ð" />
<glyph horiz-adv-x="698" d="M 83 0 L 83 0 Z M 615 0 L 546 0 L 178 531 L 178 0 L 83 0 L 83 730 L 157 730 L 521 202 L 521 730 L 615 730 L 615 0 Z M 351 799 L 351 799 Z M 440 936 L 508 936 C 508 889 501 854 488 832 C 475 810 458 799 437 799 C 418 799 402 802 389 809 C 375 816 364 823 355 830 C 345 836 336 843 327 849 C 318 855 309 859 301 859 C 292 859 284 853 278 843 C 271 833 267 819 267 803 L 199 803 C 199 849 207 883 225 906 C 242 928 261 940 281 940 C 297 940 311 936 323 929 C 335 921 346 914 357 906 C 365 899 374 892 383 886 C 391 880 400 877 409 877 C 417 877 424 882 430 893 C 436 903 440 918 440 936 Z" unicode="Ñ" />
<glyph horiz-adv-x="751" d="M 43 0 L 43 0 Z M 378 -10 C 327 -10 281 -1 239 17 C 197 35 162 60 133 93 C 104 126 82 166 66 213 C 50 260 43 312 43 370 C 43 424 51 473 68 519 C 84 565 107 604 136 636 C 165 668 200 694 240 712 C 280 730 324 740 372 740 C 422 740 467 731 509 714 C 551 696 586 671 616 639 C 645 607 668 567 684 521 C 700 475 709 423 709 367 C 709 310 700 258 683 212 C 665 166 642 126 612 93 C 582 60 547 35 507 17 C 467 -1 424 -10 378 -10 Z M 377 81 C 409 81 440 87 468 100 C 496 112 521 131 541 156 C 561 180 576 211 588 247 C 600 283 606 325 606 371 C 606 413 600 452 589 486 C 577 520 561 549 541 573 C 520 597 495 615 467 628 C 439 640 408 647 374 647 C 306 647 251 623 209 575 C 167 527 146 457 146 366 C 146 319 152 278 164 242 C 176 206 192 177 213 153 C 233 129 258 111 286 99 C 314 87 344 81 377 81 Z M 373 792 L 373 792 Z M 477 792 L 385 792 L 269 958 L 377 958 L 477 792 Z" unicode="Ò" />
<glyph horiz-adv-x="751" d="M 43 0 L 43 0 Z M 378 -10 C 327 -10 281 -1 239 17 C 197 35 162 60 133 93 C 104 126 82 166 66 213 C 50 260 43 312 43 370 C 43 424 51 473 68 519 C 84 565 107 604 136 636 C 165 668 200 694 240 712 C 280 730 324 740 372 740 C 422 740 467 731 509 714 C 551 696 586 671 616 639 C 645 607 668 567 684 521 C 700 475 709 423 709 367 C 709 310 700 258 683 212 C 665 166 642 126 612 93 C 582 60 547 35 507 17 C 467 -1 424 -10 378 -10 Z M 377 81 C 409 81 440 87 468 100 C 496 112 521 131 541 156 C 561 180 576 211 588 247 C 600 283 606 325 606 371 C 606 413 600 452 589 486 C 577 520 561 549 541 573 C 520 597 495 615 467 628 C 439 640 408 647 374 647 C 306 647 251 623 209 575 C 167 527 146 457 146 366 C 146 319 152 278 164 242 C 176 206 192 177 213 153 C 233 129 258 111 286 99 C 314 87 344 81 377 81 Z M 373 792 L 373 792 Z M 270 792 L 369 958 L 477 958 L 362 792 L 270 792 Z" unicode="Ó" />
<glyph horiz-adv-x="751" d="M 43 0 L 43 0 Z M 378 -10 C 327 -10 281 -1 239 17 C 197 35 162 60 133 93 C 104 126 82 166 66 213 C 50 260 43 312 43 370 C 43 424 51 473 68 519 C 84 565 107 604 136 636 C 165 668 200 694 240 712 C 280 730 324 740 372 740 C 422 740 467 731 509 714 C 551 696 586 671 616 639 C 645 607 668 567 684 521 C 700 475 709 423 709 367 C 709 310 700 258 683 212 C 665 166 642 126 612 93 C 582 60 547 35 507 17 C 467 -1 424 -10 378 -10 Z M 377 81 C 409 81 440 87 468 100 C 496 112 521 131 541 156 C 561 180 576 211 588 247 C 600 283 606 325 606 371 C 606 413 600 452 589 486 C 577 520 561 549 541 573 C 520 597 495 615 467 628 C 439 640 408 647 374 647 C 306 647 251 623 209 575 C 167 527 146 457 146 366 C 146 319 152 278 164 242 C 176 206 192 177 213 153 C 233 129 258 111 286 99 C 314 87 344 81 377 81 Z M 373 793 L 373 793 Z M 532 793 L 450 793 L 373 901 L 295 793 L 214 793 L 329 964 L 418 964 L 532 793 Z" unicode="Ô" />
<glyph horiz-adv-x="751" d="M 43 0 L 43 0 Z M 378 -10 C 327 -10 281 -1 239 17 C 197 35 162 60 133 93 C 104 126 82 166 66 213 C 50 260 43 312 43 370 C 43 424 51 473 68 519 C 84 565 107 604 136 636 C 165 668 200 694 240 712 C 280 730 324 740 372 740 C 422 740 467 731 509 714 C 551 696 586 671 616 639 C 645 607 668 567 684 521 C 700 475 709 423 709 367 C 709 310 700 258 683 212 C 665 166 642 126 612 93 C 582 60 547 35 507 17 C 467 -1 424 -10 378 -10 Z M 377 81 C 409 81 440 87 468 100 C 496 112 521 131 541 156 C 561 180 576 211 588 247 C 600 283 606 325 606 371 C 606 413 600 452 589 486 C 577 520 561 549 541 573 C 520 597 495 615 467 628 C 439 640 408 647 374 647 C 306 647 251 623 209 575 C 167 527 146 457 146 366 C 146 319 152 278 164 242 C 176 206 192 177 213 153 C 233 129 258 111 286 99 C 314 87 344 81 377 81 Z M 373 799 L 373 799 Z M 462 936 L 530 936 C 530 889 523 854 510 832 C 497 810 480 799 459 799 C 440 799 424 802 411 809 C 397 816 386 823 377 830 C 367 836 358 843 349 849 C 340 855 331 859 323 859 C 314 859 306 853 300 843 C 293 833 289 819 289 803 L 221 803 C 221 849 229 883 247 906 C 264 928 283 940 303 940 C 319 940 333 936 345 929 C 357 921 368 914 379 906 C 387 899 396 892 405 886 C 413 880 422 877 431 877 C 439 877 446 882 452 893 C 458 903 462 918 462 936 Z" unicode="Õ" />
<glyph horiz-adv-x="751" d="M 43 0 L 43 0 Z M 378 -10 C 327 -10 281 -1 239 17 C 197 35 162 60 133 93 C 104 126 82 166 66 213 C 50 260 43 312 43 370 C 43 424 51 473 68 519 C 84 565 107 604 136 636 C 165 668 200 694 240 712 C 280 730 324 740 372 740 C 422 740 467 731 509 714 C 551 696 586 671 616 639 C 645 607 668 567 684 521 C 700 475 709 423 709 367 C 709 310 700 258 683 212 C 665 166 642 126 612 93 C 582 60 547 35 507 17 C 467 -1 424 -10 378 -10 Z M 377 81 C 409 81 440 87 468 100 C 496 112 521 131 541 156 C 561 180 576 211 588 247 C 600 283 606 325 606 371 C 606 413 600 452 589 486 C 577 520 561 549 541 573 C 520 597 495 615 467 628 C 439 640 408 647 374 647 C 306 647 251 623 209 575 C 167 527 146 457 146 366 C 146 319 152 278 164 242 C 176 206 192 177 213 153 C 233 129 258 111 286 99 C 314 87 344 81 377 81 Z M 373 793 L 373 793 Z M 497 793 L 420 793 L 420 951 L 497 951 L 497 793 Z M 324 793 L 247 793 L 247 951 L 324 951 L 324 793 Z" unicode="Ö" />
<glyph horiz-adv-x="501" d="M 114 142 L 62 195 L 198 331 L 63 466 L 115 519 L 251 383 L 387 519 L 439 466 L 302 331 L 439 195 L 387 141 L 251 279 L 114 142 Z" unicode="×" />
<glyph horiz-adv-x="751" d="M 709 367 C 709 310 700 258 683 212 C 665 166 642 126 612 93 C 582 60 547 35 507 17 C 467 -1 424 -10 378 -10 C 332 -10 290 -2 252 12 C 214 26 180 47 152 74 L 87 1 L 44 41 L 113 119 C 90 151 73 189 61 231 C 49 273 43 320 43 370 C 43 424 51 473 68 519 C 84 565 107 604 136 636 C 165 668 200 694 240 712 C 280 730 324 740 372 740 C 416 740 456 733 494 719 C 532 705 565 686 594 661 L 669 746 L 712 706 L 634 618 C 658 586 676 549 689 507 C 702 464 709 417 709 367 Z M 146 366 C 146 332 149 301 155 273 C 161 245 171 220 183 198 L 528 587 C 508 606 485 621 459 631 C 433 641 404 647 374 647 C 306 647 251 623 209 575 C 167 527 146 457 146 366 Z M 606 371 C 606 405 602 436 595 464 C 587 492 577 518 565 540 L 217 148 C 237 126 261 109 289 98 C 316 86 345 81 377 81 C 409 81 440 87 468 100 C 496 112 521 131 541 156 C 561 180 576 211 588 247 C 600 283 606 325 606 371 Z" unicode="Ø" />
<glyph horiz-adv-x="672" d="M 77 0 L 77 0 Z M 595 730 L 595 250 C 595 208 588 170 574 138 C 560 105 542 78 518 56 C 494 34 467 18 435 7 C 403 -4 369 -10 333 -10 C 298 -10 265 -4 234 6 C 202 16 175 32 152 54 C 129 76 111 103 97 136 C 83 168 77 206 77 250 L 77 730 L 174 730 L 174 244 C 174 192 189 152 220 123 C 251 94 289 80 334 80 C 378 80 417 94 449 122 C 481 150 497 190 497 244 L 497 730 L 595 730 Z M 335 792 L 335 792 Z M 439 792 L 347 792 L 231 958 L 339 958 L 439 792 Z" unicode="Ù" />
<glyph horiz-adv-x="672" d="M 77 0 L 77 0 Z M 595 730 L 595 250 C 595 208 588 170 574 138 C 560 105 542 78 518 56 C 494 34 467 18 435 7 C 403 -4 369 -10 333 -10 C 298 -10 265 -4 234 6 C 202 16 175 32 152 54 C 129 76 111 103 97 136 C 83 168 77 206 77 250 L 77 730 L 174 730 L 174 244 C 174 192 189 152 220 123 C 251 94 289 80 334 80 C 378 80 417 94 449 122 C 481 150 497 190 497 244 L 497 730 L 595 730 Z M 335 792 L 335 792 Z M 232 792 L 331 958 L 439 958 L 324 792 L 232 792 Z" unicode="Ú" />
<glyph horiz-adv-x="672" d="M 77 0 L 77 0 Z M 595 730 L 595 250 C 595 208 588 170 574 138 C 560 105 542 78 518 56 C 494 34 467 18 435 7 C 403 -4 369 -10 333 -10 C 298 -10 265 -4 234 6 C 202 16 175 32 152 54 C 129 76 111 103 97 136 C 83 168 77 206 77 250 L 77 730 L 174 730 L 174 244 C 174 192 189 152 220 123 C 251 94 289 80 334 80 C 378 80 417 94 449 122 C 481 150 497 190 497 244 L 497 730 L 595 730 Z M 335 793 L 335 793 Z M 494 793 L 412 793 L 335 901 L 257 793 L 176 793 L 291 964 L 380 964 L 494 793 Z" unicode="Û" />
<glyph horiz-adv-x="672" d="M 77 0 L 77 0 Z M 595 730 L 595 250 C 595 208 588 170 574 138 C 560 105 542 78 518 56 C 494 34 467 18 435 7 C 403 -4 369 -10 333 -10 C 298 -10 265 -4 234 6 C 202 16 175 32 152 54 C 129 76 111 103 97 136 C 83 168 77 206 77 250 L 77 730 L 174 730 L 174 244 C 174 192 189 152 220 123 C 251 94 289 80 334 80 C 378 80 417 94 449 122 C 481 150 497 190 497 244 L 497 730 L 595 730 Z M 335 793 L 335 793 Z M 459 793 L 382 793 L 382 951 L 459 951 L 459 793 Z M 286 793 L 209 793 L 209 951 L 286 951 L 286 793 Z" unicode="Ü" />
<glyph horiz-adv-x="586" d="M 0 0 L 0 0 Z M 586 730 L 341 318 L 341 0 L 241 0 L 241 321 L 0 730 L 109 730 L 296 415 L 482 730 L 586 730 Z M 294 792 L 294 792 Z M 191 792 L 290 958 L 398 958 L 283 792 L 191 792 Z" unicode="Ý" />
<glyph horiz-adv-x="546" d="M 83 0 L 83 730 L 183 730 L 183 596 L 301 596 C 367 596 420 576 460 537 C 500 497 520 445 520 380 C 520 313 499 259 459 217 C 418 175 366 155 302 155 L 183 155 L 183 0 L 83 0 Z M 182 241 L 291 241 C 331 241 362 253 386 278 C 410 302 422 337 422 381 C 422 423 408 455 382 477 C 355 499 323 510 285 510 L 182 510 L 182 241 Z" unicode="Þ" />
<glyph horiz-adv-x="578" d="M 406 -10 C 370 -10 338 -4 311 6 C 283 16 260 31 242 49 L 288 111 C 300 98 317 87 339 79 C 360 71 381 67 402 67 C 421 67 437 71 451 79 C 464 87 471 100 471 117 C 471 133 463 147 448 157 C 433 167 408 179 374 192 C 328 208 296 228 278 252 C 260 276 251 303 251 335 C 251 367 260 393 280 413 C 299 433 321 445 345 451 C 351 453 359 462 368 476 C 376 490 381 519 381 564 C 381 602 371 632 352 652 C 332 672 307 683 275 683 C 245 683 221 673 201 655 C 181 637 171 609 171 572 L 171 0 L 78 0 L 78 577 C 78 605 83 631 93 654 C 103 676 117 695 135 711 C 153 727 173 739 197 747 C 221 755 246 760 274 760 C 301 760 327 755 351 747 C 375 739 395 726 413 710 C 431 693 445 672 455 647 C 465 621 470 592 470 560 C 470 509 461 470 443 442 C 425 414 408 398 392 394 C 375 392 360 387 348 379 C 336 371 330 359 330 343 C 330 328 337 314 351 302 C 365 290 389 278 423 266 C 467 250 499 232 521 211 C 542 190 553 160 553 122 C 553 100 549 81 541 65 C 533 48 522 34 508 23 C 494 12 479 4 461 -1 C 443 -7 425 -10 406 -10 Z" unicode="ß" />
<glyph horiz-adv-x="441" d="M 20 0 L 20 0 Z M 391 0 L 305 0 L 305 54 C 293 38 275 23 252 10 C 228 -3 200 -10 167 -10 C 119 -10 83 3 58 29 C 32 55 20 89 20 131 C 20 177 36 212 70 237 C 104 262 150 276 208 279 L 302 285 L 302 299 C 302 323 294 342 278 354 C 262 366 239 373 211 373 C 183 373 159 368 138 360 C 116 351 100 342 90 334 L 55 396 C 70 408 92 420 120 431 C 148 441 183 447 225 447 C 271 447 311 435 343 411 C 375 387 391 351 391 301 L 391 0 Z M 304 113 L 304 216 L 218 211 C 185 209 159 202 139 189 C 119 176 109 158 109 134 C 109 112 116 95 132 84 C 147 73 166 68 189 68 C 215 68 239 73 260 83 C 280 93 295 103 304 113 Z M 214 498 L 214 498 Z M 318 498 L 226 498 L 110 664 L 218 664 L 318 498 Z" unicode="à" />
<glyph horiz-adv-x="441" d="M 20 0 L 20 0 Z M 391 0 L 305 0 L 305 54 C 293 38 275 23 252 10 C 228 -3 200 -10 167 -10 C 119 -10 83 3 58 29 C 32 55 20 89 20 131 C 20 177 36 212 70 237 C 104 262 150 276 208 279 L 302 285 L 302 299 C 302 323 294 342 278 354 C 262 366 239 373 211 373 C 183 373 159 368 138 360 C 116 351 100 342 90 334 L 55 396 C 70 408 92 420 120 431 C 148 441 183 447 225 447 C 271 447 311 435 343 411 C 375 387 391 351 391 301 L 391 0 Z M 304 113 L 304 216 L 218 211 C 185 209 159 202 139 189 C 119 176 109 158 109 134 C 109 112 116 95 132 84 C 147 73 166 68 189 68 C 215 68 239 73 260 83 C 280 93 295 103 304 113 Z M 214 498 L 214 498 Z M 111 498 L 210 664 L 318 664 L 203 498 L 111 498 Z" unicode="á" />
<glyph horiz-adv-x="441" d="M 20 0 L 20 0 Z M 391 0 L 305 0 L 305 54 C 293 38 275 23 252 10 C 228 -3 200 -10 167 -10 C 119 -10 83 3 58 29 C 32 55 20 89 20 131 C 20 177 36 212 70 237 C 104 262 150 276 208 279 L 302 285 L 302 299 C 302 323 294 342 278 354 C 262 366 239 373 211 373 C 183 373 159 368 138 360 C 116 351 100 342 90 334 L 55 396 C 70 408 92 420 120 431 C 148 441 183 447 225 447 C 271 447 311 435 343 411 C 375 387 391 351 391 301 L 391 0 Z M 304 113 L 304 216 L 218 211 C 185 209 159 202 139 189 C 119 176 109 158 109 134 C 109 112 116 95 132 84 C 147 73 166 68 189 68 C 215 68 239 73 260 83 C 280 93 295 103 304 113 Z M 214 499 L 214 499 Z M 373 499 L 291 499 L 214 607 L 136 499 L 55 499 L 170 670 L 259 670 L 373 499 Z" unicode="â" />
<glyph horiz-adv-x="441" d="M 20 0 L 20 0 Z M 391 0 L 305 0 L 305 54 C 293 38 275 23 252 10 C 228 -3 200 -10 167 -10 C 119 -10 83 3 58 29 C 32 55 20 89 20 131 C 20 177 36 212 70 237 C 104 262 150 276 208 279 L 302 285 L 302 299 C 302 323 294 342 278 354 C 262 366 239 373 211 373 C 183 373 159 368 138 360 C 116 351 100 342 90 334 L 55 396 C 70 408 92 420 120 431 C 148 441 183 447 225 447 C 271 447 311 435 343 411 C 375 387 391 351 391 301 L 391 0 Z M 304 113 L 304 216 L 218 211 C 185 209 159 202 139 189 C 119 176 109 158 109 134 C 109 112 116 95 132 84 C 147 73 166 68 189 68 C 215 68 239 73 260 83 C 280 93 295 103 304 113 Z M 214 505 L 214 505 Z M 303 642 L 371 642 C 371 595 364 560 351 538 C 338 516 321 505 300 505 C 281 505 265 508 252 515 C 238 522 227 529 218 536 C 208 542 199 549 190 555 C 181 561 172 565 164 565 C 155 565 147 559 141 549 C 134 539 130 525 130 509 L 62 509 C 62 555 70 589 88 612 C 105 634 124 646 144 646 C 160 646 174 642 186 635 C 198 627 209 620 220 612 C 228 605 237 598 246 592 C 254 586 263 583 272 583 C 280 583 287 588 293 599 C 299 609 303 624 303 642 Z" unicode="ã" />
<glyph horiz-adv-x="441" d="M 20 0 L 20 0 Z M 391 0 L 305 0 L 305 54 C 293 38 275 23 252 10 C 228 -3 200 -10 167 -10 C 119 -10 83 3 58 29 C 32 55 20 89 20 131 C 20 177 36 212 70 237 C 104 262 150 276 208 279 L 302 285 L 302 299 C 302 323 294 342 278 354 C 262 366 239 373 211 373 C 183 373 159 368 138 360 C 116 351 100 342 90 334 L 55 396 C 70 408 92 420 120 431 C 148 441 183 447 225 447 C 271 447 311 435 343 411 C 375 387 391 351 391 301 L 391 0 Z M 304 113 L 304 216 L 218 211 C 185 209 159 202 139 189 C 119 176 109 158 109 134 C 109 112 116 95 132 84 C 147 73 166 68 189 68 C 215 68 239 73 260 83 C 280 93 295 103 304 113 Z M 214 499 L 214 499 Z M 338 499 L 261 499 L 261 657 L 338 657 L 338 499 Z M 165 499 L 88 499 L 88 657 L 165 657 L 165 499 Z" unicode="ä" />
<glyph horiz-adv-x="441" d="M 20 0 L 20 0 Z M 391 0 L 305 0 L 305 54 C 293 38 275 23 252 10 C 228 -3 200 -10 167 -10 C 119 -10 83 3 58 29 C 32 55 20 89 20 131 C 20 177 36 212 70 237 C 104 262 150 276 208 279 L 302 285 L 302 299 C 302 323 294 342 278 354 C 262 366 239 373 211 373 C 183 373 159 368 138 360 C 116 351 100 342 90 334 L 55 396 C 70 408 92 420 120 431 C 148 441 183 447 225 447 C 271 447 311 435 343 411 C 375 387 391 351 391 301 L 391 0 Z M 304 113 L 304 216 L 218 211 C 185 209 159 202 139 189 C 119 176 109 158 109 134 C 109 112 116 95 132 84 C 147 73 166 68 189 68 C 215 68 239 73 260 83 C 280 93 295 103 304 113 Z M 214 495 L 214 495 Z M 214 495 C 182 495 156 506 134 528 C 112 550 101 576 101 608 C 101 640 112 667 134 689 C 156 711 182 722 214 722 C 246 722 273 711 295 689 C 317 667 328 640 328 608 C 328 576 317 550 295 528 C 273 506 246 495 214 495 Z M 214 549 C 230 549 244 554 255 566 C 266 577 272 591 272 608 C 272 624 266 638 255 650 C 244 662 230 668 214 668 C 198 668 184 662 173 650 C 161 638 156 624 156 608 C 156 591 161 577 173 566 C 184 554 198 549 214 549 Z" unicode="å" />
<glyph horiz-adv-x="737" d="M 524 -9 C 475 -9 436 0 408 19 C 379 38 359 60 348 85 C 336 60 315 38 283 19 C 251 0 213 -10 169 -10 C 124 -10 88 2 61 27 C 33 52 20 86 20 130 C 20 176 36 211 70 237 C 104 262 150 276 209 279 L 309 284 L 309 298 C 309 324 299 343 280 355 C 260 367 237 373 210 373 C 182 373 158 368 136 359 C 114 350 99 341 89 333 L 55 395 C 71 409 94 421 123 431 C 151 441 183 446 217 446 C 253 446 285 438 312 424 C 339 410 356 391 364 369 C 374 389 392 406 418 422 C 444 438 478 446 522 446 C 584 446 632 423 667 377 C 702 331 720 269 720 192 L 397 192 C 399 150 410 118 432 97 C 453 75 483 65 523 65 C 558 65 585 70 603 81 C 621 91 636 104 650 119 L 704 68 C 685 46 662 27 635 13 C 607 -1 570 -9 524 -9 Z M 398 260 L 633 260 C 632 290 621 317 599 339 C 577 361 548 372 512 372 C 476 372 448 361 430 339 C 411 317 400 291 398 260 Z M 194 68 C 225 68 251 76 273 92 C 295 108 308 127 312 149 L 312 216 L 218 211 C 186 209 160 203 140 191 C 119 179 109 160 109 136 C 109 111 117 93 134 83 C 151 73 171 68 194 68 Z" unicode="æ" />
<glyph horiz-adv-x="422" d="M 26 0 L 26 0 Z M 345 133 L 416 89 C 402 65 382 42 354 22 C 326 1 286 -9 236 -9 C 203 -9 174 -3 148 8 C 122 19 100 35 82 55 C 64 75 50 99 40 127 C 30 155 26 185 26 217 C 26 249 31 279 41 307 C 51 335 66 359 85 380 C 103 400 126 416 153 428 C 179 440 208 446 240 446 C 287 446 325 436 355 416 C 384 396 405 374 419 350 L 343 303 C 332 321 318 335 302 347 C 286 359 265 365 240 365 C 205 365 177 351 155 323 C 133 295 122 260 122 218 C 122 173 133 137 155 110 C 177 83 206 70 242 70 C 271 70 293 77 309 91 C 325 105 337 119 345 133 Z M 227 -1 L 227 -1 Z M 235 -188 C 211 -188 188 -185 164 -179 C 140 -173 121 -165 107 -156 L 119 -115 C 128 -120 140 -125 156 -131 C 172 -137 189 -140 208 -140 C 222 -140 235 -136 246 -130 C 256 -123 262 -114 262 -104 C 262 -91 257 -82 247 -77 C 237 -71 227 -69 217 -69 C 209 -69 202 -69 196 -71 C 190 -72 184 -74 178 -76 L 163 -61 L 223 11 L 279 11 L 229 -51 C 262 -43 290 -46 313 -58 C 335 -70 347 -89 347 -113 C 347 -137 335 -156 313 -169 C 291 -181 265 -188 235 -188 Z" unicode="ç" />
<glyph horiz-adv-x="462" d="M 27 0 L 27 0 Z M 247 -9 C 183 -9 130 10 89 50 C 47 89 27 144 27 215 C 27 248 32 279 43 308 C 53 336 68 361 87 381 C 105 401 128 417 154 429 C 180 440 208 446 239 446 C 302 446 352 424 389 381 C 426 338 445 275 445 192 L 115 192 C 116 150 128 118 152 97 C 176 75 208 65 248 65 C 283 65 310 70 329 82 C 348 94 363 106 374 119 L 428 68 C 411 48 389 31 363 15 C 337 -1 298 -9 247 -9 Z M 118 261 L 357 261 C 355 291 344 317 324 339 C 304 361 276 372 240 372 C 204 372 175 361 154 340 C 132 318 120 292 118 261 Z M 237 498 L 237 498 Z M 341 498 L 249 498 L 133 664 L 241 664 L 341 498 Z" unicode="è" />
<glyph horiz-adv-x="462" d="M 27 0 L 27 0 Z M 247 -9 C 183 -9 130 10 89 50 C 47 89 27 144 27 215 C 27 248 32 279 43 308 C 53 336 68 361 87 381 C 105 401 128 417 154 429 C 180 440 208 446 239 446 C 302 446 352 424 389 381 C 426 338 445 275 445 192 L 115 192 C 116 150 128 118 152 97 C 176 75 208 65 248 65 C 283 65 310 70 329 82 C 348 94 363 106 374 119 L 428 68 C 411 48 389 31 363 15 C 337 -1 298 -9 247 -9 Z M 118 261 L 357 261 C 355 291 344 317 324 339 C 304 361 276 372 240 372 C 204 372 175 361 154 340 C 132 318 120 292 118 261 Z M 237 498 L 237 498 Z M 134 498 L 233 664 L 341 664 L 226 498 L 134 498 Z" unicode="é" />
<glyph horiz-adv-x="462" d="M 27 0 L 27 0 Z M 247 -9 C 183 -9 130 10 89 50 C 47 89 27 144 27 215 C 27 248 32 279 43 308 C 53 336 68 361 87 381 C 105 401 128 417 154 429 C 180 440 208 446 239 446 C 302 446 352 424 389 381 C 426 338 445 275 445 192 L 115 192 C 116 150 128 118 152 97 C 176 75 208 65 248 65 C 283 65 310 70 329 82 C 348 94 363 106 374 119 L 428 68 C 411 48 389 31 363 15 C 337 -1 298 -9 247 -9 Z M 118 261 L 357 261 C 355 291 344 317 324 339 C 304 361 276 372 240 372 C 204 372 175 361 154 340 C 132 318 120 292 118 261 Z M 237 499 L 237 499 Z M 396 499 L 314 499 L 237 607 L 159 499 L 78 499 L 193 670 L 282 670 L 396 499 Z" unicode="ê" />
<glyph horiz-adv-x="462" d="M 27 0 L 27 0 Z M 247 -9 C 183 -9 130 10 89 50 C 47 89 27 144 27 215 C 27 248 32 279 43 308 C 53 336 68 361 87 381 C 105 401 128 417 154 429 C 180 440 208 446 239 446 C 302 446 352 424 389 381 C 426 338 445 275 445 192 L 115 192 C 116 150 128 118 152 97 C 176 75 208 65 248 65 C 283 65 310 70 329 82 C 348 94 363 106 374 119 L 428 68 C 411 48 389 31 363 15 C 337 -1 298 -9 247 -9 Z M 118 261 L 357 261 C 355 291 344 317 324 339 C 304 361 276 372 240 372 C 204 372 175 361 154 340 C 132 318 120 292 118 261 Z M 237 499 L 237 499 Z M 361 499 L 284 499 L 284 657 L 361 657 L 361 499 Z M 188 499 L 111 499 L 111 657 L 188 657 L 188 499 Z" unicode="ë" />
<glyph horiz-adv-x="212" d="M 1 0 L 1 0 Z M 152 0 L 60 0 L 60 436 L 152 436 L 152 0 Z M 105 498 L 105 498 Z M 209 498 L 117 498 L 1 664 L 109 664 L 209 498 Z" unicode="ì" />
<glyph horiz-adv-x="212" d="M 2 0 L 2 0 Z M 152 0 L 60 0 L 60 436 L 152 436 L 152 0 Z M 105 498 L 105 498 Z M 2 498 L 101 664 L 209 664 L 94 498 L 2 498 Z" unicode="í" />
<glyph horiz-adv-x="212" d="M 0 0 L 0 0 Z M 152 0 L 60 0 L 60 436 L 152 436 L 152 0 Z M 105 499 L 105 499 Z M 264 499 L 182 499 L 105 607 L 27 499 L -54 499 L 61 670 L 150 670 L 264 499 Z" unicode="î" />
<glyph horiz-adv-x="212" d="M 0 0 L 0 0 Z M 152 0 L 60 0 L 60 436 L 152 436 L 152 0 Z M 105 499 L 105 499 Z M 229 499 L 152 499 L 152 657 L 229 657 L 229 499 Z M 56 499 L -21 499 L -21 657 L 56 657 L 56 499 Z" unicode="ï" />
<glyph horiz-adv-x="501" d="M 469 254 C 469 217 464 182 454 150 C 444 118 429 90 410 66 C 391 42 368 24 340 10 C 312 -3 280 -10 245 -10 C 214 -10 185 -4 159 6 C 132 16 109 31 89 51 C 69 71 54 95 43 123 C 32 151 27 183 27 219 C 27 252 32 283 44 311 C 56 339 71 362 91 382 C 110 402 132 417 158 428 C 184 439 210 445 238 445 C 271 445 300 438 325 424 C 349 410 367 395 378 381 C 373 420 363 457 349 491 C 334 525 317 557 299 585 L 179 549 L 157 613 L 254 642 C 235 662 217 680 200 694 C 182 708 168 719 158 725 L 235 761 C 248 751 264 739 282 723 C 300 707 319 688 338 666 L 416 689 L 438 626 L 379 609 C 403 569 424 519 442 461 C 460 402 469 333 469 254 Z M 243 68 C 283 68 314 82 338 110 C 361 138 373 174 373 219 C 373 265 361 301 339 328 C 317 354 286 368 248 368 C 210 368 180 353 156 325 C 132 297 120 262 120 220 C 120 172 131 135 155 108 C 179 81 208 68 243 68 Z" unicode="ð" />
<glyph horiz-adv-x="485" d="M 55 0 L 55 0 Z M 434 0 L 342 0 L 342 284 C 342 310 334 331 318 347 C 302 363 280 371 252 371 C 224 371 199 362 178 344 C 157 326 147 298 147 258 L 147 0 L 55 0 L 55 436 L 143 436 L 143 364 C 152 388 169 407 195 423 C 220 439 250 447 285 447 C 330 447 366 434 393 409 C 420 384 434 350 434 306 L 434 0 Z M 242 505 L 242 505 Z M 331 642 L 399 642 C 399 595 392 560 379 538 C 366 516 349 505 328 505 C 309 505 293 508 280 515 C 266 522 255 529 246 536 C 236 542 227 549 218 555 C 209 561 200 565 192 565 C 183 565 175 559 169 549 C 162 539 158 525 158 509 L 90 509 C 90 555 98 589 116 612 C 133 634 152 646 172 646 C 188 646 202 642 214 635 C 226 627 237 620 248 612 C 256 605 265 598 274 592 C 282 586 291 583 300 583 C 308 583 315 588 321 599 C 327 609 331 624 331 642 Z" unicode="ñ" />
<glyph horiz-adv-x="486" d="M 26 0 L 26 0 Z M 241 -9 C 213 -9 186 -3 160 6 C 134 16 111 31 91 51 C 71 70 56 94 44 122 C 32 150 26 181 26 217 C 26 249 31 279 42 307 C 53 335 68 359 88 380 C 107 400 129 416 155 428 C 181 440 208 446 238 446 C 268 446 297 440 324 430 C 351 420 375 405 395 386 C 415 367 430 344 442 318 C 454 291 460 261 460 229 C 460 194 454 162 443 133 C 432 103 417 78 397 57 C 377 36 354 20 328 8 C 301 -3 272 -9 241 -9 Z M 243 68 C 279 68 308 81 330 109 C 352 136 364 174 364 222 C 364 266 352 301 330 328 C 307 354 276 368 236 368 C 203 368 176 354 154 328 C 132 302 122 265 122 219 C 122 169 133 131 156 106 C 179 80 208 68 243 68 Z M 238 498 L 238 498 Z M 342 498 L 250 498 L 134 664 L 242 664 L 342 498 Z" unicode="ò" />
<glyph horiz-adv-x="486" d="M 26 0 L 26 0 Z M 241 -9 C 213 -9 186 -3 160 6 C 134 16 111 31 91 51 C 71 70 56 94 44 122 C 32 150 26 181 26 217 C 26 249 31 279 42 307 C 53 335 68 359 88 380 C 107 400 129 416 155 428 C 181 440 208 446 238 446 C 268 446 297 440 324 430 C 351 420 375 405 395 386 C 415 367 430 344 442 318 C 454 291 460 261 460 229 C 460 194 454 162 443 133 C 432 103 417 78 397 57 C 377 36 354 20 328 8 C 301 -3 272 -9 241 -9 Z M 243 68 C 279 68 308 81 330 109 C 352 136 364 174 364 222 C 364 266 352 301 330 328 C 307 354 276 368 236 368 C 203 368 176 354 154 328 C 132 302 122 265 122 219 C 122 169 133 131 156 106 C 179 80 208 68 243 68 Z M 238 498 L 238 498 Z M 135 498 L 234 664 L 342 664 L 227 498 L 135 498 Z" unicode="ó" />
<glyph horiz-adv-x="486" d="M 26 0 L 26 0 Z M 241 -9 C 213 -9 186 -3 160 6 C 134 16 111 31 91 51 C 71 70 56 94 44 122 C 32 150 26 181 26 217 C 26 249 31 279 42 307 C 53 335 68 359 88 380 C 107 400 129 416 155 428 C 181 440 208 446 238 446 C 268 446 297 440 324 430 C 351 420 375 405 395 386 C 415 367 430 344 442 318 C 454 291 460 261 460 229 C 460 194 454 162 443 133 C 432 103 417 78 397 57 C 377 36 354 20 328 8 C 301 -3 272 -9 241 -9 Z M 243 68 C 279 68 308 81 330 109 C 352 136 364 174 364 222 C 364 266 352 301 330 328 C 307 354 276 368 236 368 C 203 368 176 354 154 328 C 132 302 122 265 122 219 C 122 169 133 131 156 106 C 179 80 208 68 243 68 Z M 238 499 L 238 499 Z M 397 499 L 315 499 L 238 607 L 160 499 L 79 499 L 194 670 L 283 670 L 397 499 Z" unicode="ô" />
<glyph horiz-adv-x="486" d="M 26 0 L 26 0 Z M 241 -9 C 213 -9 186 -3 160 6 C 134 16 111 31 91 51 C 71 70 56 94 44 122 C 32 150 26 181 26 217 C 26 249 31 279 42 307 C 53 335 68 359 88 380 C 107 400 129 416 155 428 C 181 440 208 446 238 446 C 268 446 297 440 324 430 C 351 420 375 405 395 386 C 415 367 430 344 442 318 C 454 291 460 261 460 229 C 460 194 454 162 443 133 C 432 103 417 78 397 57 C 377 36 354 20 328 8 C 301 -3 272 -9 241 -9 Z M 243 68 C 279 68 308 81 330 109 C 352 136 364 174 364 222 C 364 266 352 301 330 328 C 307 354 276 368 236 368 C 203 368 176 354 154 328 C 132 302 122 265 122 219 C 122 169 133 131 156 106 C 179 80 208 68 243 68 Z M 238 505 L 238 505 Z M 327 642 L 395 642 C 395 595 388 560 375 538 C 362 516 345 505 324 505 C 305 505 289 508 276 515 C 262 522 251 529 242 536 C 232 542 223 549 214 555 C 205 561 196 565 188 565 C 179 565 171 559 165 549 C 158 539 154 525 154 509 L 86 509 C 86 555 94 589 112 612 C 129 634 148 646 168 646 C 184 646 198 642 210 635 C 222 627 233 620 244 612 C 252 605 261 598 270 592 C 278 586 287 583 296 583 C 304 583 311 588 317 599 C 323 609 327 624 327 642 Z" unicode="õ" />
<glyph horiz-adv-x="486" d="M 26 0 L 26 0 Z M 241 -9 C 213 -9 186 -3 160 6 C 134 16 111 31 91 51 C 71 70 56 94 44 122 C 32 150 26 181 26 217 C 26 249 31 279 42 307 C 53 335 68 359 88 380 C 107 400 129 416 155 428 C 181 440 208 446 238 446 C 268 446 297 440 324 430 C 351 420 375 405 395 386 C 415 367 430 344 442 318 C 454 291 460 261 460 229 C 460 194 454 162 443 133 C 432 103 417 78 397 57 C 377 36 354 20 328 8 C 301 -3 272 -9 241 -9 Z M 243 68 C 279 68 308 81 330 109 C 352 136 364 174 364 222 C 364 266 352 301 330 328 C 307 354 276 368 236 368 C 203 368 176 354 154 328 C 132 302 122 265 122 219 C 122 169 133 131 156 106 C 179 80 208 68 243 68 Z M 238 499 L 238 499 Z M 362 499 L 285 499 L 285 657 L 362 657 L 362 499 Z M 189 499 L 112 499 L 112 657 L 189 657 L 189 499 Z" unicode="ö" />
<glyph horiz-adv-x="500" d="M 206 448 L 206 564 L 294 564 L 294 448 L 206 448 Z M 25 291 L 25 370 L 475 370 L 475 291 L 25 291 Z M 206 97 L 206 213 L 294 213 L 294 97 L 206 97 Z" unicode="÷" />
<glyph horiz-adv-x="486" d="M 460 229 C 460 194 454 162 443 133 C 432 103 417 78 397 57 C 377 36 354 20 328 8 C 301 -3 272 -9 241 -9 C 216 -9 192 -5 169 3 C 146 11 125 22 107 37 L 68 -5 L 36 29 L 74 70 C 59 88 47 110 39 135 C 30 159 26 187 26 217 C 26 249 31 279 42 307 C 53 335 68 359 88 380 C 107 400 129 416 155 428 C 181 440 208 446 238 446 C 264 446 290 442 314 434 C 338 426 360 414 379 400 L 419 443 L 451 410 L 412 368 C 426 350 438 329 447 306 C 455 282 460 257 460 229 Z M 122 219 C 122 203 123 188 126 174 C 128 160 132 148 137 138 L 321 338 C 310 347 297 354 283 360 C 269 365 253 368 236 368 C 203 368 176 354 154 328 C 132 302 122 265 122 219 Z M 364 222 C 364 236 362 250 360 263 C 357 276 353 288 349 299 L 163 98 C 173 88 185 80 199 75 C 213 70 227 68 243 68 C 279 68 308 81 330 109 C 352 136 364 174 364 222 Z" unicode="ø" />
<glyph horiz-adv-x="486" d="M 52 0 L 52 0 Z M 52 436 L 143 436 L 143 152 C 143 123 151 101 168 87 C 184 72 206 65 234 65 C 262 65 287 73 307 91 C 327 108 338 136 338 175 L 338 436 L 430 436 L 430 0 L 340 0 L 340 71 C 329 47 311 27 286 13 C 260 0 231 -8 198 -8 C 156 -8 122 4 94 28 C 66 52 52 89 52 137 L 52 436 Z M 241 498 L 241 498 Z M 345 498 L 253 498 L 137 664 L 245 664 L 345 498 Z" unicode="ù" />
<glyph horiz-adv-x="486" d="M 52 0 L 52 0 Z M 52 436 L 143 436 L 143 152 C 143 123 151 101 168 87 C 184 72 206 65 234 65 C 262 65 287 73 307 91 C 327 108 338 136 338 175 L 338 436 L 430 436 L 430 0 L 340 0 L 340 71 C 329 47 311 27 286 13 C 260 0 231 -8 198 -8 C 156 -8 122 4 94 28 C 66 52 52 89 52 137 L 52 436 Z M 241 498 L 241 498 Z M 138 498 L 237 664 L 345 664 L 230 498 L 138 498 Z" unicode="ú" />
<glyph horiz-adv-x="486" d="M 52 0 L 52 0 Z M 52 436 L 143 436 L 143 152 C 143 123 151 101 168 87 C 184 72 206 65 234 65 C 262 65 287 73 307 91 C 327 108 338 136 338 175 L 338 436 L 430 436 L 430 0 L 340 0 L 340 71 C 329 47 311 27 286 13 C 260 0 231 -8 198 -8 C 156 -8 122 4 94 28 C 66 52 52 89 52 137 L 52 436 Z M 241 499 L 241 499 Z M 400 499 L 318 499 L 241 607 L 163 499 L 82 499 L 197 670 L 286 670 L 400 499 Z" unicode="û" />
<glyph horiz-adv-x="486" d="M 52 0 L 52 0 Z M 52 436 L 143 436 L 143 152 C 143 123 151 101 168 87 C 184 72 206 65 234 65 C 262 65 287 73 307 91 C 327 108 338 136 338 175 L 338 436 L 430 436 L 430 0 L 340 0 L 340 71 C 329 47 311 27 286 13 C 260 0 231 -8 198 -8 C 156 -8 122 4 94 28 C 66 52 52 89 52 137 L 52 436 Z M 241 499 L 241 499 Z M 365 499 L 288 499 L 288 657 L 365 657 L 365 499 Z M 192 499 L 115 499 L 115 657 L 192 657 L 192 499 Z" unicode="ü" />
<glyph horiz-adv-x="430" d="M 0 0 L 0 0 Z M 431 436 L 203 -96 C 184 -138 162 -165 136 -179 C 110 -193 85 -200 61 -200 C 47 -200 35 -198 25 -196 C 14 -193 6 -190 1 -188 L 27 -107 C 29 -108 34 -110 42 -112 C 50 -114 57 -116 65 -116 C 78 -116 90 -111 101 -102 C 112 -93 123 -77 134 -54 L 171 37 L -3 436 L 96 436 L 218 139 L 338 436 L 431 436 Z M 216 498 L 216 498 Z M 113 498 L 212 664 L 320 664 L 205 498 L 113 498 Z" unicode="ý" />
<glyph horiz-adv-x="497" d="M 55 -200 L 55 750 L 142 750 L 142 353 C 148 375 165 396 192 416 C 218 435 251 445 290 445 C 318 445 343 439 366 428 C 388 417 407 402 423 383 C 438 364 450 341 458 315 C 466 289 471 260 471 230 C 471 193 466 160 456 131 C 446 101 432 76 416 56 C 399 36 380 20 358 10 C 336 0 313 -6 289 -6 C 252 -6 221 1 195 17 C 169 33 152 50 144 70 L 144 -200 L 55 -200 Z M 261 64 C 294 64 321 77 343 104 C 364 130 375 168 375 216 C 375 261 365 298 345 328 C 325 357 297 372 259 372 C 227 372 200 359 177 333 C 154 307 143 267 143 212 C 143 160 155 122 179 99 C 203 75 230 64 261 64 Z" unicode="þ" />
<glyph horiz-adv-x="430" d="M 0 0 L 0 0 Z M 431 436 L 203 -96 C 184 -138 162 -165 136 -179 C 110 -193 85 -200 61 -200 C 47 -200 35 -198 25 -196 C 14 -193 6 -190 1 -188 L 27 -107 C 29 -108 34 -110 42 -112 C 50 -114 57 -116 65 -116 C 78 -116 90 -111 101 -102 C 112 -93 123 -77 134 -54 L 171 37 L -3 436 L 96 436 L 218 139 L 338 436 L 431 436 Z M 216 499 L 216 499 Z M 340 499 L 263 499 L 263 657 L 340 657 L 340 499 Z M 167 499 L 90 499 L 90 657 L 167 657 L 167 499 Z" unicode="ÿ" />
<glyph horiz-adv-x="598" d="M 2 0 L 2 0 Z M 596 0 L 495 0 L 427 187 L 166 187 L 100 0 L 2 0 L 270 734 L 331 734 L 596 0 Z M 400 272 L 297 557 L 193 272 L 400 272 Z M 298 817 L 298 817 Z M 426 817 L 170 817 L 170 885 L 426 885 L 426 817 Z" unicode="Ā" />
<glyph horiz-adv-x="441" d="M 20 0 L 20 0 Z M 391 0 L 305 0 L 305 54 C 293 38 275 23 252 10 C 228 -3 200 -10 167 -10 C 119 -10 83 3 58 29 C 32 55 20 89 20 131 C 20 177 36 212 70 237 C 104 262 150 276 208 279 L 302 285 L 302 299 C 302 323 294 342 278 354 C 262 366 239 373 211 373 C 183 373 159 368 138 360 C 116 351 100 342 90 334 L 55 396 C 70 408 92 420 120 431 C 148 441 183 447 225 447 C 271 447 311 435 343 411 C 375 387 391 351 391 301 L 391 0 Z M 304 113 L 304 216 L 218 211 C 185 209 159 202 139 189 C 119 176 109 158 109 134 C 109 112 116 95 132 84 C 147 73 166 68 189 68 C 215 68 239 73 260 83 C 280 93 295 103 304 113 Z M 214 523 L 214 523 Z M 342 523 L 86 523 L 86 591 L 342 591 L 342 523 Z" unicode="ā" />
<glyph horiz-adv-x="598" d="M 2 0 L 2 0 Z M 596 0 L 495 0 L 427 187 L 166 187 L 100 0 L 2 0 L 270 734 L 331 734 L 596 0 Z M 400 272 L 297 557 L 193 272 L 400 272 Z M 298 797 L 298 797 Z M 370 955 L 448 955 C 444 899 428 859 400 834 C 372 809 338 797 298 797 C 257 797 223 809 196 834 C 168 859 153 899 149 955 L 226 955 C 228 924 234 899 245 881 C 255 863 273 854 298 854 C 322 854 340 862 351 880 C 362 897 368 922 370 955 Z" unicode="Ă" />
<glyph horiz-adv-x="441" d="M 20 0 L 20 0 Z M 391 0 L 305 0 L 305 54 C 293 38 275 23 252 10 C 228 -3 200 -10 167 -10 C 119 -10 83 3 58 29 C 32 55 20 89 20 131 C 20 177 36 212 70 237 C 104 262 150 276 208 279 L 302 285 L 302 299 C 302 323 294 342 278 354 C 262 366 239 373 211 373 C 183 373 159 368 138 360 C 116 351 100 342 90 334 L 55 396 C 70 408 92 420 120 431 C 148 441 183 447 225 447 C 271 447 311 435 343 411 C 375 387 391 351 391 301 L 391 0 Z M 304 113 L 304 216 L 218 211 C 185 209 159 202 139 189 C 119 176 109 158 109 134 C 109 112 116 95 132 84 C 147 73 166 68 189 68 C 215 68 239 73 260 83 C 280 93 295 103 304 113 Z M 214 503 L 214 503 Z M 286 661 L 364 661 C 360 605 344 565 316 540 C 288 515 254 503 214 503 C 173 503 139 515 112 540 C 84 565 69 605 65 661 L 142 661 C 144 630 150 605 161 587 C 171 569 189 560 214 560 C 238 560 256 568 267 586 C 278 603 284 628 286 661 Z" unicode="ă" />
<glyph horiz-adv-x="598" d="M 2 0 L 2 0 Z M 596 0 L 495 0 L 427 187 L 166 187 L 100 0 L 2 0 L 270 734 L 331 734 L 596 0 Z M 400 272 L 297 557 L 193 272 L 400 272 Z M 494 -9 L 494 -9 Z M 596 -96 L 623 -135 C 603 -155 580 -171 556 -182 C 531 -193 503 -199 473 -199 C 439 -199 412 -191 393 -177 C 373 -162 364 -143 364 -121 C 364 -96 375 -73 397 -51 C 419 -29 451 -11 493 4 L 542 4 C 514 -8 490 -22 472 -38 C 453 -53 444 -68 444 -84 C 444 -98 449 -110 460 -118 C 471 -126 485 -130 503 -130 C 522 -130 540 -126 556 -120 C 572 -114 585 -106 596 -96 Z" unicode="Ą" />
<glyph horiz-adv-x="441" d="M 20 0 L 20 0 Z M 391 0 L 305 0 L 305 54 C 293 38 275 23 252 10 C 228 -3 200 -10 167 -10 C 119 -10 83 3 58 29 C 32 55 20 89 20 131 C 20 177 36 212 70 237 C 104 262 150 276 208 279 L 302 285 L 302 299 C 302 323 294 342 278 354 C 262 366 239 373 211 373 C 183 373 159 368 138 360 C 116 351 100 342 90 334 L 55 396 C 70 408 92 420 120 431 C 148 441 183 447 225 447 C 271 447 311 435 343 411 C 375 387 391 351 391 301 L 391 0 Z M 304 113 L 304 216 L 218 211 C 185 209 159 202 139 189 C 119 176 109 158 109 134 C 109 112 116 95 132 84 C 147 73 166 68 189 68 C 215 68 239 73 260 83 C 280 93 295 103 304 113 Z M 314 -9 L 314 -9 Z M 416 -96 L 443 -135 C 423 -155 400 -171 376 -182 C 351 -193 323 -199 293 -199 C 259 -199 232 -191 213 -177 C 193 -162 184 -143 184 -121 C 184 -96 195 -73 217 -51 C 239 -29 271 -11 313 4 L 362 4 C 334 -8 310 -22 292 -38 C 273 -53 264 -68 264 -84 C 264 -98 269 -110 280 -118 C 291 -126 305 -130 323 -130 C 342 -130 360 -126 376 -120 C 392 -114 405 -106 416 -96 Z" unicode="ą" />
<glyph horiz-adv-x="633" d="M 43 0 L 43 0 Z M 363 -10 C 318 -10 276 -1 237 14 C 198 30 164 54 136 86 C 107 118 84 157 68 204 C 51 251 43 305 43 365 C 43 420 50 471 66 517 C 82 563 104 603 132 636 C 160 668 193 694 233 712 C 273 730 317 740 365 740 C 429 740 481 729 520 707 C 559 685 591 658 616 625 L 546 559 C 528 583 504 603 476 620 C 448 637 412 646 368 646 C 298 646 243 620 204 570 C 164 520 145 450 145 361 C 145 312 151 270 164 235 C 176 199 193 170 214 148 C 234 125 258 108 285 97 C 312 86 340 81 369 81 C 415 81 453 90 485 109 C 516 127 542 151 562 180 L 627 126 C 600 86 564 53 520 28 C 476 2 423 -10 363 -10 Z M 366 792 L 366 792 Z M 263 792 L 362 958 L 470 958 L 355 792 L 263 792 Z" unicode="Ć" />
<glyph horiz-adv-x="422" d="M 26 0 L 26 0 Z M 345 133 L 416 89 C 402 65 382 42 354 22 C 326 1 286 -9 236 -9 C 203 -9 174 -3 148 8 C 122 19 100 35 82 55 C 64 75 50 99 40 127 C 30 155 26 185 26 217 C 26 249 31 279 41 307 C 51 335 66 359 85 380 C 103 400 126 416 153 428 C 179 440 208 446 240 446 C 287 446 325 436 355 416 C 384 396 405 374 419 350 L 343 303 C 332 321 318 335 302 347 C 286 359 265 365 240 365 C 205 365 177 351 155 323 C 133 295 122 260 122 218 C 122 173 133 137 155 110 C 177 83 206 70 242 70 C 271 70 293 77 309 91 C 325 105 337 119 345 133 Z M 227 498 L 227 498 Z M 124 498 L 223 664 L 331 664 L 216 498 L 124 498 Z" unicode="ć" />
<glyph horiz-adv-x="633" d="M 43 0 L 43 0 Z M 363 -10 C 318 -10 276 -1 237 14 C 198 30 164 54 136 86 C 107 118 84 157 68 204 C 51 251 43 305 43 365 C 43 420 50 471 66 517 C 82 563 104 603 132 636 C 160 668 193 694 233 712 C 273 730 317 740 365 740 C 429 740 481 729 520 707 C 559 685 591 658 616 625 L 546 559 C 528 583 504 603 476 620 C 448 637 412 646 368 646 C 298 646 243 620 204 570 C 164 520 145 450 145 361 C 145 312 151 270 164 235 C 176 199 193 170 214 148 C 234 125 258 108 285 97 C 312 86 340 81 369 81 C 415 81 453 90 485 109 C 516 127 542 151 562 180 L 627 126 C 600 86 564 53 520 28 C 476 2 423 -10 363 -10 Z M 366 793 L 366 793 Z M 525 793 L 443 793 L 366 901 L 288 793 L 207 793 L 322 964 L 411 964 L 525 793 Z" unicode="Ĉ" />
<glyph horiz-adv-x="422" d="M 26 0 L 26 0 Z M 345 133 L 416 89 C 402 65 382 42 354 22 C 326 1 286 -9 236 -9 C 203 -9 174 -3 148 8 C 122 19 100 35 82 55 C 64 75 50 99 40 127 C 30 155 26 185 26 217 C 26 249 31 279 41 307 C 51 335 66 359 85 380 C 103 400 126 416 153 428 C 179 440 208 446 240 446 C 287 446 325 436 355 416 C 384 396 405 374 419 350 L 343 303 C 332 321 318 335 302 347 C 286 359 265 365 240 365 C 205 365 177 351 155 323 C 133 295 122 260 122 218 C 122 173 133 137 155 110 C 177 83 206 70 242 70 C 271 70 293 77 309 91 C 325 105 337 119 345 133 Z M 227 499 L 227 499 Z M 386 499 L 304 499 L 227 607 L 149 499 L 68 499 L 183 670 L 272 670 L 386 499 Z" unicode="ĉ" />
<glyph horiz-adv-x="633" d="M 43 0 L 43 0 Z M 363 -10 C 318 -10 276 -1 237 14 C 198 30 164 54 136 86 C 107 118 84 157 68 204 C 51 251 43 305 43 365 C 43 420 50 471 66 517 C 82 563 104 603 132 636 C 160 668 193 694 233 712 C 273 730 317 740 365 740 C 429 740 481 729 520 707 C 559 685 591 658 616 625 L 546 559 C 528 583 504 603 476 620 C 448 637 412 646 368 646 C 298 646 243 620 204 570 C 164 520 145 450 145 361 C 145 312 151 270 164 235 C 176 199 193 170 214 148 C 234 125 258 108 285 97 C 312 86 340 81 369 81 C 415 81 453 90 485 109 C 516 127 542 151 562 180 L 627 126 C 600 86 564 53 520 28 C 476 2 423 -10 363 -10 Z M 366 799 L 366 799 Z M 409 799 L 324 799 L 324 947 L 409 947 L 409 799 Z" unicode="Ċ" />
<glyph horiz-adv-x="422" d="M 26 0 L 26 0 Z M 345 133 L 416 89 C 402 65 382 42 354 22 C 326 1 286 -9 236 -9 C 203 -9 174 -3 148 8 C 122 19 100 35 82 55 C 64 75 50 99 40 127 C 30 155 26 185 26 217 C 26 249 31 279 41 307 C 51 335 66 359 85 380 C 103 400 126 416 153 428 C 179 440 208 446 240 446 C 287 446 325 436 355 416 C 384 396 405 374 419 350 L 343 303 C 332 321 318 335 302 347 C 286 359 265 365 240 365 C 205 365 177 351 155 323 C 133 295 122 260 122 218 C 122 173 133 137 155 110 C 177 83 206 70 242 70 C 271 70 293 77 309 91 C 325 105 337 119 345 133 Z M 227 505 L 227 505 Z M 270 505 L 185 505 L 185 653 L 270 653 L 270 505 Z" unicode="ċ" />
<glyph horiz-adv-x="633" d="M 43 0 L 43 0 Z M 363 -10 C 318 -10 276 -1 237 14 C 198 30 164 54 136 86 C 107 118 84 157 68 204 C 51 251 43 305 43 365 C 43 420 50 471 66 517 C 82 563 104 603 132 636 C 160 668 193 694 233 712 C 273 730 317 740 365 740 C 429 740 481 729 520 707 C 559 685 591 658 616 625 L 546 559 C 528 583 504 603 476 620 C 448 637 412 646 368 646 C 298 646 243 620 204 570 C 164 520 145 450 145 361 C 145 312 151 270 164 235 C 176 199 193 170 214 148 C 234 125 258 108 285 97 C 312 86 340 81 369 81 C 415 81 453 90 485 109 C 516 127 542 151 562 180 L 627 126 C 600 86 564 53 520 28 C 476 2 423 -10 363 -10 Z M 366 793 L 366 793 Z M 207 964 L 290 964 L 367 856 L 445 964 L 525 964 L 411 793 L 322 793 L 207 964 Z" unicode="Č" />
<glyph horiz-adv-x="422" d="M 26 0 L 26 0 Z M 345 133 L 416 89 C 402 65 382 42 354 22 C 326 1 286 -9 236 -9 C 203 -9 174 -3 148 8 C 122 19 100 35 82 55 C 64 75 50 99 40 127 C 30 155 26 185 26 217 C 26 249 31 279 41 307 C 51 335 66 359 85 380 C 103 400 126 416 153 428 C 179 440 208 446 240 446 C 287 446 325 436 355 416 C 384 396 405 374 419 350 L 343 303 C 332 321 318 335 302 347 C 286 359 265 365 240 365 C 205 365 177 351 155 323 C 133 295 122 260 122 218 C 122 173 133 137 155 110 C 177 83 206 70 242 70 C 271 70 293 77 309 91 C 325 105 337 119 345 133 Z M 227 499 L 227 499 Z M 68 670 L 151 670 L 228 562 L 306 670 L 386 670 L 272 499 L 183 499 L 68 670 Z" unicode="č" />
<glyph horiz-adv-x="678" d="M 83 0 L 83 0 Z M 83 0 L 83 730 L 284 730 C 339 730 389 721 433 704 C 477 687 513 663 543 632 C 573 601 596 564 612 520 C 628 476 636 427 636 373 C 636 321 628 272 612 226 C 596 180 573 141 543 108 C 513 74 475 48 429 29 C 383 9 331 0 271 0 L 83 0 Z M 183 88 L 270 88 C 315 88 354 95 387 109 C 420 123 447 143 469 168 C 490 193 506 223 516 258 C 526 292 532 330 532 370 C 532 454 509 520 465 568 C 421 616 360 640 282 640 L 183 640 L 183 88 Z M 314 793 L 314 793 Z M 155 964 L 238 964 L 315 856 L 393 964 L 473 964 L 359 793 L 270 793 L 155 964 Z" unicode="Ď" />
<glyph horiz-adv-x="500" d="M 26 0 L 26 0 Z M 216 -7 C 187 -7 161 -1 138 10 C 114 21 94 36 78 56 C 61 76 48 99 39 125 C 30 151 26 180 26 210 C 26 245 31 277 41 306 C 51 335 64 360 82 381 C 100 401 120 417 144 429 C 168 440 193 446 220 446 C 254 446 283 438 307 422 C 330 406 346 389 355 369 L 355 750 L 444 750 L 444 0 L 359 0 L 359 77 C 350 56 334 37 311 19 C 287 1 256 -7 216 -7 Z M 242 66 C 274 66 302 80 324 108 C 346 136 358 174 358 222 C 358 272 346 309 322 334 C 298 358 270 371 238 371 C 203 371 175 357 154 329 C 132 301 122 265 122 219 C 122 175 132 139 153 110 C 173 80 203 66 242 66 Z M 588 621 L 583 483 L 505 483 L 500 621 L 500 730 L 588 730 L 588 621 Z" unicode="ď" />
<glyph horiz-adv-x="678" d="M 29 0 L 29 0 Z M 636 366 C 636 315 628 267 612 223 C 596 178 573 139 543 107 C 513 74 475 48 429 29 C 383 9 331 0 271 0 L 83 0 L 83 320 L 29 320 L 29 399 L 83 399 L 83 730 L 284 730 C 340 730 390 721 434 704 C 478 686 514 662 544 631 C 574 599 596 561 612 516 C 628 471 636 421 636 366 Z M 183 85 L 268 85 C 315 85 355 92 389 107 C 422 122 449 142 470 167 C 491 192 507 222 517 256 C 527 290 532 325 532 363 C 532 453 510 522 466 570 C 422 618 362 643 285 643 L 183 643 L 183 399 L 355 399 L 355 320 L 183 320 L 183 85 Z" unicode="Đ" />
<glyph horiz-adv-x="500" d="M 359 77 C 350 56 334 37 311 19 C 287 1 256 -7 216 -7 C 187 -7 161 -1 138 10 C 114 21 94 36 78 56 C 61 76 48 99 39 125 C 30 151 26 180 26 210 C 26 245 31 277 41 306 C 51 335 64 360 82 381 C 100 401 120 417 144 429 C 168 440 193 446 220 446 C 254 446 283 438 307 422 C 330 406 346 389 355 369 L 355 556 L 244 556 L 244 635 L 355 635 L 355 750 L 444 750 L 444 635 L 491 635 L 491 556 L 444 556 L 444 0 L 359 0 L 359 77 Z M 242 66 C 274 66 302 80 324 108 C 346 136 358 174 358 222 C 358 272 346 309 322 334 C 298 358 270 371 238 371 C 203 371 175 357 154 329 C 132 301 122 265 122 219 C 122 175 132 139 153 110 C 173 80 203 66 242 66 Z" unicode="đ" />
<glyph horiz-adv-x="520" d="M 83 0 L 83 0 Z M 482 0 L 83 0 L 83 730 L 463 730 L 463 640 L 182 640 L 182 407 L 450 407 L 450 317 L 182 317 L 182 90 L 482 90 L 482 0 Z M 274 817 L 274 817 Z M 402 817 L 146 817 L 146 885 L 402 885 L 402 817 Z" unicode="Ē" />
<glyph horiz-adv-x="462" d="M 27 0 L 27 0 Z M 247 -9 C 183 -9 130 10 89 50 C 47 89 27 144 27 215 C 27 248 32 279 43 308 C 53 336 68 361 87 381 C 105 401 128 417 154 429 C 180 440 208 446 239 446 C 302 446 352 424 389 381 C 426 338 445 275 445 192 L 115 192 C 116 150 128 118 152 97 C 176 75 208 65 248 65 C 283 65 310 70 329 82 C 348 94 363 106 374 119 L 428 68 C 411 48 389 31 363 15 C 337 -1 298 -9 247 -9 Z M 118 261 L 357 261 C 355 291 344 317 324 339 C 304 361 276 372 240 372 C 204 372 175 361 154 340 C 132 318 120 292 118 261 Z M 237 523 L 237 523 Z M 365 523 L 109 523 L 109 591 L 365 591 L 365 523 Z" unicode="ē" />
<glyph horiz-adv-x="520" d="M 83 0 L 83 0 Z M 482 0 L 83 0 L 83 730 L 463 730 L 463 640 L 182 640 L 182 407 L 450 407 L 450 317 L 182 317 L 182 90 L 482 90 L 482 0 Z M 274 797 L 274 797 Z M 346 955 L 424 955 C 420 899 404 859 376 834 C 348 809 314 797 274 797 C 233 797 199 809 172 834 C 144 859 129 899 125 955 L 202 955 C 204 924 210 899 221 881 C 231 863 249 854 274 854 C 298 854 316 862 327 880 C 338 897 344 922 346 955 Z" unicode="Ĕ" />
<glyph horiz-adv-x="462" d="M 27 0 L 27 0 Z M 247 -9 C 183 -9 130 10 89 50 C 47 89 27 144 27 215 C 27 248 32 279 43 308 C 53 336 68 361 87 381 C 105 401 128 417 154 429 C 180 440 208 446 239 446 C 302 446 352 424 389 381 C 426 338 445 275 445 192 L 115 192 C 116 150 128 118 152 97 C 176 75 208 65 248 65 C 283 65 310 70 329 82 C 348 94 363 106 374 119 L 428 68 C 411 48 389 31 363 15 C 337 -1 298 -9 247 -9 Z M 118 261 L 357 261 C 355 291 344 317 324 339 C 304 361 276 372 240 372 C 204 372 175 361 154 340 C 132 318 120 292 118 261 Z M 237 503 L 237 503 Z M 309 661 L 387 661 C 383 605 367 565 339 540 C 311 515 277 503 237 503 C 196 503 162 515 135 540 C 107 565 92 605 88 661 L 165 661 C 167 630 173 605 184 587 C 194 569 212 560 237 560 C 261 560 279 568 290 586 C 301 603 307 628 309 661 Z" unicode="ĕ" />
<glyph horiz-adv-x="520" d="M 83 0 L 83 0 Z M 482 0 L 83 0 L 83 730 L 463 730 L 463 640 L 182 640 L 182 407 L 450 407 L 450 317 L 182 317 L 182 90 L 482 90 L 482 0 Z M 274 799 L 274 799 Z M 317 799 L 232 799 L 232 947 L 317 947 L 317 799 Z" unicode="Ė" />
<glyph horiz-adv-x="462" d="M 27 0 L 27 0 Z M 247 -9 C 183 -9 130 10 89 50 C 47 89 27 144 27 215 C 27 248 32 279 43 308 C 53 336 68 361 87 381 C 105 401 128 417 154 429 C 180 440 208 446 239 446 C 302 446 352 424 389 381 C 426 338 445 275 445 192 L 115 192 C 116 150 128 118 152 97 C 176 75 208 65 248 65 C 283 65 310 70 329 82 C 348 94 363 106 374 119 L 428 68 C 411 48 389 31 363 15 C 337 -1 298 -9 247 -9 Z M 118 261 L 357 261 C 355 291 344 317 324 339 C 304 361 276 372 240 372 C 204 372 175 361 154 340 C 132 318 120 292 118 261 Z M 237 505 L 237 505 Z M 280 505 L 195 505 L 195 653 L 280 653 L 280 505 Z" unicode="ė" />
<glyph horiz-adv-x="520" d="M 83 0 L 83 0 Z M 482 0 L 83 0 L 83 730 L 463 730 L 463 640 L 182 640 L 182 407 L 450 407 L 450 317 L 182 317 L 182 90 L 482 90 L 482 0 Z M 433 -9 L 433 -9 Z M 535 -96 L 562 -135 C 542 -155 519 -171 495 -182 C 470 -193 442 -199 412 -199 C 378 -199 351 -191 332 -177 C 312 -162 303 -143 303 -121 C 303 -96 314 -73 336 -51 C 358 -29 390 -11 432 4 L 481 4 C 453 -8 429 -22 411 -38 C 392 -53 383 -68 383 -84 C 383 -98 388 -110 399 -118 C 410 -126 424 -130 442 -130 C 461 -130 479 -126 495 -120 C 511 -114 524 -106 535 -96 Z" unicode="Ę" />
<glyph horiz-adv-x="462" d="M 27 0 L 27 0 Z M 247 -9 C 183 -9 130 10 89 50 C 47 89 27 144 27 215 C 27 248 32 279 43 308 C 53 336 68 361 87 381 C 105 401 128 417 154 429 C 180 440 208 446 239 446 C 302 446 352 424 389 381 C 426 338 445 275 445 192 L 115 192 C 116 150 128 118 152 97 C 176 75 208 65 248 65 C 283 65 310 70 329 82 C 348 94 363 106 374 119 L 428 68 C 411 48 389 31 363 15 C 337 -1 298 -9 247 -9 Z M 118 261 L 357 261 C 355 291 344 317 324 339 C 304 361 276 372 240 372 C 204 372 175 361 154 340 C 132 318 120 292 118 261 Z M 289 -9 L 289 -9 Z M 391 -96 L 418 -135 C 398 -155 375 -171 351 -182 C 326 -193 298 -199 268 -199 C 234 -199 207 -191 188 -177 C 168 -162 159 -143 159 -121 C 159 -96 170 -73 192 -51 C 214 -29 246 -11 288 4 L 337 4 C 309 -8 285 -22 267 -38 C 248 -53 239 -68 239 -84 C 239 -98 244 -110 255 -118 C 266 -126 280 -130 298 -130 C 317 -130 335 -126 351 -120 C 367 -114 380 -106 391 -96 Z" unicode="ę" />
<glyph horiz-adv-x="520" d="M 83 0 L 83 0 Z M 482 0 L 83 0 L 83 730 L 463 730 L 463 640 L 182 640 L 182 407 L 450 407 L 450 317 L 182 317 L 182 90 L 482 90 L 482 0 Z M 274 793 L 274 793 Z M 115 964 L 198 964 L 275 856 L 353 964 L 433 964 L 319 793 L 230 793 L 115 964 Z" unicode="Ě" />
<glyph horiz-adv-x="462" d="M 27 0 L 27 0 Z M 247 -9 C 183 -9 130 10 89 50 C 47 89 27 144 27 215 C 27 248 32 279 43 308 C 53 336 68 361 87 381 C 105 401 128 417 154 429 C 180 440 208 446 239 446 C 302 446 352 424 389 381 C 426 338 445 275 445 192 L 115 192 C 116 150 128 118 152 97 C 176 75 208 65 248 65 C 283 65 310 70 329 82 C 348 94 363 106 374 119 L 428 68 C 411 48 389 31 363 15 C 337 -1 298 -9 247 -9 Z M 118 261 L 357 261 C 355 291 344 317 324 339 C 304 361 276 372 240 372 C 204 372 175 361 154 340 C 132 318 120 292 118 261 Z M 237 499 L 237 499 Z M 78 670 L 161 670 L 238 562 L 316 670 L 396 670 L 282 499 L 193 499 L 78 670 Z" unicode="ě" />
<glyph horiz-adv-x="689" d="M 43 0 L 43 0 Z M 376 368 L 650 368 L 650 139 C 626 95 590 59 542 31 C 494 3 437 -10 369 -10 C 323 -10 280 -1 240 17 C 200 35 165 60 136 93 C 107 125 84 165 68 211 C 51 257 43 309 43 365 C 43 422 51 474 68 520 C 85 566 108 606 138 638 C 168 670 203 695 243 713 C 283 731 326 740 372 740 C 406 740 435 736 461 730 C 487 723 509 714 529 704 C 548 693 564 681 578 668 C 591 654 602 641 612 627 L 540 570 C 524 589 502 607 475 623 C 448 639 413 647 369 647 C 336 647 306 640 278 627 C 250 614 227 595 207 571 C 187 547 172 517 161 482 C 149 447 144 408 144 364 C 144 322 149 283 161 248 C 172 212 188 182 208 157 C 228 131 253 112 281 98 C 309 84 340 77 374 77 C 418 77 456 85 488 102 C 520 118 545 140 561 168 L 561 277 L 376 277 L 376 368 Z M 369 793 L 369 793 Z M 528 793 L 446 793 L 369 901 L 291 793 L 210 793 L 325 964 L 414 964 L 528 793 Z" unicode="Ĝ" />
<glyph horiz-adv-x="499" d="M 26 0 L 26 0 Z M 218 -3 C 160 -3 113 17 78 58 C 43 99 26 152 26 218 C 26 286 44 341 81 383 C 118 425 164 446 219 446 C 253 446 282 437 306 421 C 330 405 347 387 357 368 L 357 436 L 444 436 L 444 25 C 444 -12 438 -44 427 -72 C 415 -100 400 -122 381 -140 C 361 -158 339 -171 313 -180 C 287 -188 259 -193 231 -193 C 189 -193 155 -188 129 -180 C 103 -171 84 -162 72 -154 L 103 -84 C 114 -92 129 -99 149 -107 C 169 -115 194 -119 224 -119 C 259 -119 290 -108 316 -87 C 342 -65 355 -33 355 9 L 355 77 C 346 56 329 37 305 21 C 281 5 252 -3 218 -3 Z M 241 65 C 273 65 301 79 324 107 C 346 135 358 174 358 222 C 358 268 346 305 322 332 C 298 359 269 373 235 373 C 203 373 176 359 154 331 C 132 303 122 265 122 219 C 122 173 132 136 153 108 C 173 79 203 65 241 65 Z M 227 499 L 227 499 Z M 386 499 L 304 499 L 227 607 L 149 499 L 68 499 L 183 670 L 272 670 L 386 499 Z" unicode="ĝ" />
<glyph horiz-adv-x="689" d="M 43 0 L 43 0 Z M 376 368 L 650 368 L 650 139 C 626 95 590 59 542 31 C 494 3 437 -10 369 -10 C 323 -10 280 -1 240 17 C 200 35 165 60 136 93 C 107 125 84 165 68 211 C 51 257 43 309 43 365 C 43 422 51 474 68 520 C 85 566 108 606 138 638 C 168 670 203 695 243 713 C 283 731 326 740 372 740 C 406 740 435 736 461 730 C 487 723 509 714 529 704 C 548 693 564 681 578 668 C 591 654 602 641 612 627 L 540 570 C 524 589 502 607 475 623 C 448 639 413 647 369 647 C 336 647 306 640 278 627 C 250 614 227 595 207 571 C 187 547 172 517 161 482 C 149 447 144 408 144 364 C 144 322 149 283 161 248 C 172 212 188 182 208 157 C 228 131 253 112 281 98 C 309 84 340 77 374 77 C 418 77 456 85 488 102 C 520 118 545 140 561 168 L 561 277 L 376 277 L 376 368 Z M 369 797 L 369 797 Z M 441 955 L 519 955 C 515 899 499 859 471 834 C 443 809 409 797 369 797 C 328 797 294 809 267 834 C 239 859 224 899 220 955 L 297 955 C 299 924 305 899 316 881 C 326 863 344 854 369 854 C 393 854 411 862 422 880 C 433 897 439 922 441 955 Z" unicode="Ğ" />
<glyph horiz-adv-x="499" d="M 26 0 L 26 0 Z M 218 -3 C 160 -3 113 17 78 58 C 43 99 26 152 26 218 C 26 286 44 341 81 383 C 118 425 164 446 219 446 C 253 446 282 437 306 421 C 330 405 347 387 357 368 L 357 436 L 444 436 L 444 25 C 444 -12 438 -44 427 -72 C 415 -100 400 -122 381 -140 C 361 -158 339 -171 313 -180 C 287 -188 259 -193 231 -193 C 189 -193 155 -188 129 -180 C 103 -171 84 -162 72 -154 L 103 -84 C 114 -92 129 -99 149 -107 C 169 -115 194 -119 224 -119 C 259 -119 290 -108 316 -87 C 342 -65 355 -33 355 9 L 355 77 C 346 56 329 37 305 21 C 281 5 252 -3 218 -3 Z M 241 65 C 273 65 301 79 324 107 C 346 135 358 174 358 222 C 358 268 346 305 322 332 C 298 359 269 373 235 373 C 203 373 176 359 154 331 C 132 303 122 265 122 219 C 122 173 132 136 153 108 C 173 79 203 65 241 65 Z M 227 503 L 227 503 Z M 299 661 L 377 661 C 373 605 357 565 329 540 C 301 515 267 503 227 503 C 186 503 152 515 125 540 C 97 565 82 605 78 661 L 155 661 C 157 630 163 605 174 587 C 184 569 202 560 227 560 C 251 560 269 568 280 586 C 291 603 297 628 299 661 Z" unicode="ğ" />
<glyph horiz-adv-x="689" d="M 43 0 L 43 0 Z M 376 368 L 650 368 L 650 139 C 626 95 590 59 542 31 C 494 3 437 -10 369 -10 C 323 -10 280 -1 240 17 C 200 35 165 60 136 93 C 107 125 84 165 68 211 C 51 257 43 309 43 365 C 43 422 51 474 68 520 C 85 566 108 606 138 638 C 168 670 203 695 243 713 C 283 731 326 740 372 740 C 406 740 435 736 461 730 C 487 723 509 714 529 704 C 548 693 564 681 578 668 C 591 654 602 641 612 627 L 540 570 C 524 589 502 607 475 623 C 448 639 413 647 369 647 C 336 647 306 640 278 627 C 250 614 227 595 207 571 C 187 547 172 517 161 482 C 149 447 144 408 144 364 C 144 322 149 283 161 248 C 172 212 188 182 208 157 C 228 131 253 112 281 98 C 309 84 340 77 374 77 C 418 77 456 85 488 102 C 520 118 545 140 561 168 L 561 277 L 376 277 L 376 368 Z M 369 799 L 369 799 Z M 412 799 L 327 799 L 327 947 L 412 947 L 412 799 Z" unicode="Ġ" />
<glyph horiz-adv-x="499" d="M 26 0 L 26 0 Z M 218 -3 C 160 -3 113 17 78 58 C 43 99 26 152 26 218 C 26 286 44 341 81 383 C 118 425 164 446 219 446 C 253 446 282 437 306 421 C 330 405 347 387 357 368 L 357 436 L 444 436 L 444 25 C 444 -12 438 -44 427 -72 C 415 -100 400 -122 381 -140 C 361 -158 339 -171 313 -180 C 287 -188 259 -193 231 -193 C 189 -193 155 -188 129 -180 C 103 -171 84 -162 72 -154 L 103 -84 C 114 -92 129 -99 149 -107 C 169 -115 194 -119 224 -119 C 259 -119 290 -108 316 -87 C 342 -65 355 -33 355 9 L 355 77 C 346 56 329 37 305 21 C 281 5 252 -3 218 -3 Z M 241 65 C 273 65 301 79 324 107 C 346 135 358 174 358 222 C 358 268 346 305 322 332 C 298 359 269 373 235 373 C 203 373 176 359 154 331 C 132 303 122 265 122 219 C 122 173 132 136 153 108 C 173 79 203 65 241 65 Z M 227 505 L 227 505 Z M 270 505 L 185 505 L 185 653 L 270 653 L 270 505 Z" unicode="ġ" />
<glyph horiz-adv-x="689" d="M 43 0 L 43 0 Z M 376 368 L 650 368 L 650 139 C 626 95 590 59 542 31 C 494 3 437 -10 369 -10 C 323 -10 280 -1 240 17 C 200 35 165 60 136 93 C 107 125 84 165 68 211 C 51 257 43 309 43 365 C 43 422 51 474 68 520 C 85 566 108 606 138 638 C 168 670 203 695 243 713 C 283 731 326 740 372 740 C 406 740 435 736 461 730 C 487 723 509 714 529 704 C 548 693 564 681 578 668 C 591 654 602 641 612 627 L 540 570 C 524 589 502 607 475 623 C 448 639 413 647 369 647 C 336 647 306 640 278 627 C 250 614 227 595 207 571 C 187 547 172 517 161 482 C 149 447 144 408 144 364 C 144 322 149 283 161 248 C 172 212 188 182 208 157 C 228 131 253 112 281 98 C 309 84 340 77 374 77 C 418 77 456 85 488 102 C 520 118 545 140 561 168 L 561 277 L 376 277 L 376 368 Z" unicode="Ģ" />
<glyph horiz-adv-x="499" d="M 26 0 L 26 0 Z M 218 -3 C 160 -3 113 17 78 58 C 43 99 26 152 26 218 C 26 286 44 341 81 383 C 118 425 164 446 219 446 C 253 446 282 437 306 421 C 330 405 347 387 357 368 L 357 436 L 444 436 L 444 25 C 444 -12 438 -44 427 -72 C 415 -100 400 -122 381 -140 C 361 -158 339 -171 313 -180 C 287 -188 259 -193 231 -193 C 189 -193 155 -188 129 -180 C 103 -171 84 -162 72 -154 L 103 -84 C 114 -92 129 -99 149 -107 C 169 -115 194 -119 224 -119 C 259 -119 290 -108 316 -87 C 342 -65 355 -33 355 9 L 355 77 C 346 56 329 37 305 21 C 281 5 252 -3 218 -3 Z M 241 65 C 273 65 301 79 324 107 C 346 135 358 174 358 222 C 358 268 346 305 322 332 C 298 359 269 373 235 373 C 203 373 176 359 154 331 C 132 303 122 265 122 219 C 122 173 132 136 153 108 C 173 79 203 65 241 65 Z" unicode="ģ" />
<glyph horiz-adv-x="688" d="M 83 0 L 83 0 Z M 605 0 L 505 0 L 505 313 L 183 313 L 183 0 L 83 0 L 83 730 L 183 730 L 183 407 L 505 407 L 505 730 L 605 730 L 605 0 Z M 344 793 L 344 793 Z M 503 793 L 421 793 L 344 901 L 266 793 L 185 793 L 300 964 L 389 964 L 503 793 Z" unicode="Ĥ" />
<glyph horiz-adv-x="485" d="M 55 0 L 55 0 Z M 434 0 L 342 0 L 342 281 C 342 309 333 331 317 347 C 301 363 279 371 252 371 C 224 371 200 362 179 344 C 157 326 147 299 147 261 L 147 0 L 55 0 L 55 750 L 142 750 L 142 359 C 150 383 166 403 190 421 C 214 438 246 447 286 447 C 330 447 366 434 393 409 C 420 384 434 348 434 302 L 434 0 Z M 245 813 L 245 813 Z M 404 813 L 322 813 L 245 921 L 167 813 L 86 813 L 201 984 L 290 984 L 404 813 Z" unicode="ĥ" />
<glyph horiz-adv-x="688" d="M 183 313 L 183 0 L 83 0 L 83 549 L 11 549 L 11 627 L 83 627 L 83 730 L 183 730 L 183 627 L 505 627 L 505 730 L 605 730 L 605 627 L 677 627 L 677 549 L 605 549 L 605 0 L 505 0 L 505 313 L 183 313 Z M 183 407 L 505 407 L 505 549 L 183 549 L 183 407 Z" unicode="Ħ" />
<glyph horiz-adv-x="485" d="M 147 261 L 147 0 L 55 0 L 55 557 L 9 557 L 9 635 L 55 635 L 55 750 L 142 750 L 142 635 L 261 635 L 261 557 L 142 557 L 142 359 C 150 383 166 403 190 421 C 214 438 246 447 286 447 C 330 447 366 434 393 409 C 420 384 434 348 434 302 L 434 0 L 342 0 L 342 281 C 342 309 333 331 317 347 C 301 363 279 371 252 371 C 224 371 200 362 179 344 C 157 326 147 299 147 261 Z" unicode="ħ" />
<glyph horiz-adv-x="276" d="M 0 0 L 0 0 Z M 188 0 L 88 0 L 88 730 L 188 730 L 188 0 Z M 138 799 L 138 799 Z M 227 936 L 295 936 C 295 889 288 854 275 832 C 262 810 245 799 224 799 C 205 799 189 802 176 809 C 162 816 151 823 142 830 C 132 836 123 843 114 849 C 105 855 96 859 88 859 C 79 859 71 853 65 843 C 58 833 54 819 54 803 L -14 803 C -14 849 -5 883 12 906 C 29 928 48 940 68 940 C 84 940 98 936 110 929 C 122 921 133 914 144 906 C 152 899 161 892 170 886 C 178 880 187 877 196 877 C 204 877 211 882 217 893 C 223 903 227 918 227 936 Z" unicode="Ĩ" />
<glyph horiz-adv-x="212" d="M 0 0 L 0 0 Z M 152 0 L 60 0 L 60 436 L 152 436 L 152 0 Z M 105 505 L 105 505 Z M 194 642 L 262 642 C 262 595 255 560 242 538 C 229 516 212 505 191 505 C 172 505 156 508 143 515 C 129 522 118 529 109 536 C 99 542 90 549 81 555 C 72 561 63 565 55 565 C 46 565 38 559 32 549 C 25 539 21 525 21 509 L -47 509 C -47 555 -38 589 -21 612 C -3 634 15 646 35 646 C 51 646 65 642 77 635 C 89 627 100 620 111 612 C 119 605 128 598 137 592 C 145 586 154 583 163 583 C 171 583 178 588 184 599 C 190 609 194 624 194 642 Z" unicode="ĩ" />
<glyph horiz-adv-x="276" d="M 10 0 L 10 0 Z M 188 0 L 88 0 L 88 730 L 188 730 L 188 0 Z M 138 817 L 138 817 Z M 266 817 L 10 817 L 10 885 L 266 885 L 266 817 Z" unicode="Ī" />
<glyph horiz-adv-x="212" d="M 0 0 L 0 0 Z M 152 0 L 60 0 L 60 436 L 152 436 L 152 0 Z M 105 523 L 105 523 Z M 233 523 L -23 523 L -23 591 L 233 591 L 233 523 Z" unicode="ī" />
<glyph horiz-adv-x="276" d="M 0 0 L 0 0 Z M 188 0 L 88 0 L 88 730 L 188 730 L 188 0 Z M 138 797 L 138 797 Z M 210 955 L 288 955 C 284 899 268 859 240 834 C 212 809 178 797 138 797 C 97 797 63 809 36 834 C 8 859 -7 899 -11 955 L 66 955 C 68 924 74 899 85 881 C 95 863 113 854 138 854 C 162 854 180 862 191 880 C 202 897 208 922 210 955 Z" unicode="Ĭ" />
<glyph horiz-adv-x="212" d="M 0 0 L 0 0 Z M 152 0 L 60 0 L 60 436 L 152 436 L 152 0 Z M 105 503 L 105 503 Z M 177 661 L 255 661 C 251 605 235 565 207 540 C 179 515 145 503 105 503 C 64 503 30 515 3 540 C -24 565 -40 605 -44 661 L 33 661 C 35 630 41 605 52 587 C 62 569 80 560 105 560 C 129 560 147 568 158 586 C 169 603 175 628 177 661 Z" unicode="ĭ" />
<glyph horiz-adv-x="276" d="M 0 0 L 0 0 Z M 188 0 L 88 0 L 88 730 L 188 730 L 188 0 Z M 89 -11 L 89 -11 Z M 191 -98 L 218 -137 C 198 -157 175 -173 151 -184 C 126 -195 98 -201 68 -201 C 34 -201 7 -193 -12 -179 C -31 -164 -41 -145 -41 -123 C -41 -98 -30 -75 -8 -53 C 14 -31 46 -13 88 2 L 137 2 C 109 -10 85 -24 67 -40 C 48 -55 39 -70 39 -86 C 39 -100 44 -112 55 -120 C 66 -128 80 -132 98 -132 C 117 -132 135 -128 151 -122 C 167 -116 180 -108 191 -98 Z" unicode="Į" />
<glyph horiz-adv-x="212" d="M 0 0 L 0 0 Z M 58 530 L 58 626 L 154 626 L 154 530 L 58 530 Z M 60 0 L 60 436 L 152 436 L 152 0 L 60 0 Z M 69 -9 L 69 -9 Z M 171 -96 L 198 -135 C 178 -155 155 -171 131 -182 C 106 -193 78 -199 48 -199 C 14 -199 -12 -191 -32 -177 C -51 -162 -61 -143 -61 -121 C -61 -96 -50 -73 -28 -51 C -6 -29 26 -11 68 4 L 117 4 C 89 -8 65 -22 47 -38 C 28 -53 19 -68 19 -84 C 19 -98 24 -110 35 -118 C 46 -126 60 -130 78 -130 C 97 -130 115 -126 131 -120 C 147 -114 160 -106 171 -96 Z" unicode="į" />
<glyph horiz-adv-x="276" d="M 88 0 L 88 0 Z M 188 0 L 88 0 L 88 730 L 188 730 L 188 0 Z M 138 799 L 138 799 Z M 181 799 L 96 799 L 96 947 L 181 947 L 181 799 Z" unicode="İ" />
<glyph horiz-adv-x="212" d="M 152 0 L 60 0 L 60 436 L 152 436 L 152 0 Z" unicode="ı" />
<glyph horiz-adv-x="577" d="M 88 0 L 88 0 Z M 188 0 L 88 0 L 88 730 L 188 730 L 188 0 Z M 505 730 L 505 190 C 505 162 500 136 492 112 C 484 87 472 66 456 48 C 440 30 421 15 397 5 C 373 -5 345 -11 315 -11 C 299 -11 283 -10 269 -8 C 254 -6 242 -4 234 -2 L 234 89 C 240 86 251 84 265 82 C 279 80 292 80 303 80 C 337 80 363 90 382 112 C 400 134 410 160 410 192 L 410 730 L 505 730 Z" unicode="Ĳ" />
<glyph horiz-adv-x="396" d="M 58 0 L 58 0 Z M 58 530 L 58 626 L 154 626 L 154 530 L 58 530 Z M 60 0 L 60 436 L 152 436 L 152 0 L 60 0 Z M 350 530 L 255 530 L 255 626 L 350 626 L 350 530 Z M 348 436 L 348 -79 C 348 -113 337 -142 316 -166 C 295 -190 266 -202 230 -202 C 220 -202 209 -201 197 -199 C 184 -197 175 -196 170 -194 L 178 -119 C 180 -119 185 -120 191 -121 C 197 -121 202 -122 208 -122 C 221 -122 232 -117 242 -107 C 252 -97 257 -83 257 -65 L 257 436 L 348 436 Z" unicode="ĳ" />
<glyph horiz-adv-x="351" d="M 15 0 L 15 0 Z M 286 730 L 286 190 C 286 162 281 136 273 112 C 265 87 253 66 237 48 C 221 30 202 15 178 5 C 154 -5 126 -11 96 -11 C 80 -11 64 -10 50 -8 C 35 -6 23 -4 15 -2 L 15 89 C 21 86 32 84 46 82 C 60 80 73 80 84 80 C 118 80 144 90 163 112 C 181 134 191 160 191 192 L 191 730 L 286 730 Z M 238 793 L 238 793 Z M 397 793 L 315 793 L 238 901 L 160 793 L 79 793 L 194 964 L 283 964 L 397 793 Z" unicode="Ĵ" />
<glyph horiz-adv-x="204" d="M 0 0 L 0 0 Z M 149 436 L 149 -79 C 149 -113 138 -142 117 -166 C 96 -190 67 -202 31 -202 C 21 -202 10 -201 -2 -199 C -14 -197 -23 -196 -29 -194 L -21 -119 C -18 -119 -14 -120 -8 -121 C -2 -121 3 -122 9 -122 C 22 -122 33 -117 43 -107 C 53 -97 58 -83 58 -65 L 58 436 L 149 436 Z M 102 499 L 102 499 Z M 261 499 L 179 499 L 102 607 L 24 499 L -57 499 L 58 670 L 147 670 L 261 499 Z" unicode="ĵ" />
<glyph horiz-adv-x="626" d="M 83 0 L 83 0 Z M 626 0 L 503 0 L 252 323 L 184 242 L 184 0 L 83 0 L 83 730 L 184 730 L 184 364 L 474 730 L 592 730 L 319 394 L 626 0 Z M 316 -71 L 316 -71 Z M 407 -71 C 405 -93 400 -117 393 -141 C 386 -165 377 -188 367 -210 C 357 -232 345 -253 333 -272 C 320 -291 307 -307 295 -319 L 226 -287 C 233 -277 241 -265 250 -249 C 259 -233 268 -216 276 -197 C 284 -178 291 -158 297 -136 C 303 -114 308 -92 311 -71 L 407 -71 Z" unicode="Ķ" />
<glyph horiz-adv-x="450" d="M 55 0 L 55 0 Z M 462 1 L 356 0 L 218 189 L 146 107 L 146 0 L 55 0 L 55 750 L 142 750 L 142 208 L 330 436 L 433 436 L 278 253 L 462 1 Z M 224 -71 L 224 -71 Z M 315 -71 C 313 -93 308 -117 301 -141 C 294 -165 285 -188 275 -210 C 265 -232 253 -253 241 -272 C 228 -291 215 -307 203 -319 L 134 -287 C 141 -277 149 -265 158 -249 C 167 -233 176 -216 184 -197 C 192 -178 199 -158 205 -136 C 211 -114 216 -92 219 -71 L 315 -71 Z" unicode="ķ" />
<glyph horiz-adv-x="450" d="M 462 1 L 356 0 L 218 189 L 146 107 L 146 0 L 55 0 L 55 436 L 142 436 L 142 208 L 330 436 L 433 436 L 278 253 L 462 1 Z" unicode="ĸ" />
<glyph horiz-adv-x="453" d="M 83 0 L 83 0 Z M 445 0 L 83 0 L 83 730 L 183 730 L 183 90 L 445 90 L 445 0 Z M 257 792 L 257 792 Z M 154 792 L 253 958 L 361 958 L 246 792 L 154 792 Z" unicode="Ĺ" />
<glyph horiz-adv-x="204" d="M 56 0 L 56 0 Z M 162 815 L 162 815 Z M 59 815 L 158 981 L 266 981 L 151 815 L 59 815 Z M 148 753 L 148 0 L 56 0 L 56 753 L 148 753 Z" unicode="ĺ" />
<glyph horiz-adv-x="453" d="M 83 0 L 83 0 Z M 445 0 L 83 0 L 83 730 L 183 730 L 183 90 L 445 90 L 445 0 Z M 245 -71 L 245 -71 Z M 336 -71 C 334 -93 329 -117 322 -141 C 315 -165 306 -188 296 -210 C 286 -232 274 -253 262 -272 C 249 -291 236 -307 224 -319 L 155 -287 C 162 -277 170 -265 179 -249 C 188 -233 197 -216 205 -197 C 213 -178 220 -158 226 -136 C 232 -114 237 -92 240 -71 L 336 -71 Z" unicode="Ļ" />
<glyph horiz-adv-x="204" d="M 0 0 L 0 0 Z M 148 753 L 148 0 L 56 0 L 56 753 L 148 753 Z M 77 -71 L 77 -71 Z M 168 -71 C 166 -93 161 -117 154 -141 C 147 -165 138 -188 128 -210 C 118 -232 106 -253 94 -272 C 81 -291 68 -307 56 -319 L -13 -287 C -5 -277 2 -265 11 -249 C 20 -233 29 -216 37 -197 C 45 -178 52 -158 58 -136 C 64 -114 69 -92 72 -71 L 168 -71 Z" unicode="ļ" />
<glyph horiz-adv-x="453" d="M 83 0 L 83 0 Z M 445 0 L 83 0 L 83 730 L 183 730 L 183 90 L 445 90 L 445 0 Z M 430 621 L 425 483 L 347 483 L 342 621 L 342 730 L 430 730 L 430 621 Z" unicode="Ľ" />
<glyph horiz-adv-x="204" d="M 56 0 L 56 0 Z M 148 753 L 148 0 L 56 0 L 56 753 L 148 753 Z M 300 621 L 295 483 L 217 483 L 212 621 L 212 730 L 300 730 L 300 621 Z" unicode="ľ" />
<glyph horiz-adv-x="453" d="M 83 0 L 83 0 Z M 445 0 L 83 0 L 83 730 L 183 730 L 183 90 L 445 90 L 445 0 Z M 339 288 L 339 288 Z M 382 288 L 297 288 L 297 436 L 382 436 L 382 288 Z" unicode="Ŀ" />
<glyph horiz-adv-x="204" d="M 56 0 L 56 0 Z M 148 753 L 148 0 L 56 0 L 56 753 L 148 753 Z M 257 186 L 257 186 Z M 300 186 L 215 186 L 215 334 L 300 334 L 300 186 Z" unicode="ŀ" />
<glyph horiz-adv-x="453" d="M 445 87 L 445 0 L 83 0 L 83 269 L 30 247 L -3 316 L 83 351 L 83 730 L 183 730 L 183 392 L 333 454 L 364 385 L 183 310 L 183 87 L 445 87 Z" unicode="Ł" />
<glyph horiz-adv-x="204" d="M 229 343 L 156 309 L 156 0 L 64 0 L 64 265 L 19 244 L -8 310 L 64 344 L 64 750 L 156 750 L 156 387 L 201 408 L 229 343 Z" unicode="ł" />
<glyph horiz-adv-x="698" d="M 83 0 L 83 0 Z M 615 0 L 546 0 L 178 531 L 178 0 L 83 0 L 83 730 L 157 730 L 521 202 L 521 730 L 615 730 L 615 0 Z M 351 792 L 351 792 Z M 248 792 L 347 958 L 455 958 L 340 792 L 248 792 Z" unicode="Ń" />
<glyph horiz-adv-x="485" d="M 55 0 L 55 0 Z M 434 0 L 342 0 L 342 284 C 342 310 334 331 318 347 C 302 363 280 371 252 371 C 224 371 199 362 178 344 C 157 326 147 298 147 258 L 147 0 L 55 0 L 55 436 L 143 436 L 143 364 C 152 388 169 407 195 423 C 220 439 250 447 285 447 C 330 447 366 434 393 409 C 420 384 434 350 434 306 L 434 0 Z M 242 498 L 242 498 Z M 139 498 L 238 664 L 346 664 L 231 498 L 139 498 Z" unicode="ń" />
<glyph horiz-adv-x="698" d="M 83 0 L 83 0 Z M 615 0 L 546 0 L 178 531 L 178 0 L 83 0 L 83 730 L 157 730 L 521 202 L 521 730 L 615 730 L 615 0 Z M 330 -71 L 330 -71 Z M 421 -71 C 419 -93 414 -117 407 -141 C 400 -165 391 -188 381 -210 C 371 -232 359 -253 347 -272 C 334 -291 321 -307 309 -319 L 240 -287 C 247 -277 255 -265 264 -249 C 273 -233 282 -216 290 -197 C 298 -178 305 -158 311 -136 C 317 -114 322 -92 325 -71 L 421 -71 Z" unicode="Ņ" />
<glyph horiz-adv-x="485" d="M 55 0 L 55 0 Z M 434 0 L 342 0 L 342 284 C 342 310 334 331 318 347 C 302 363 280 371 252 371 C 224 371 199 362 178 344 C 157 326 147 298 147 258 L 147 0 L 55 0 L 55 436 L 143 436 L 143 364 C 152 388 169 407 195 423 C 220 439 250 447 285 447 C 330 447 366 434 393 409 C 420 384 434 350 434 306 L 434 0 Z M 216 -71 L 216 -71 Z M 307 -71 C 305 -93 300 -117 293 -141 C 286 -165 277 -188 267 -210 C 257 -232 245 -253 233 -272 C 220 -291 207 -307 195 -319 L 126 -287 C 133 -277 141 -265 150 -249 C 159 -233 168 -216 176 -197 C 184 -178 191 -158 197 -136 C 203 -114 208 -92 211 -71 L 307 -71 Z" unicode="ņ" />
<glyph horiz-adv-x="698" d="M 83 0 L 83 0 Z M 615 0 L 546 0 L 178 531 L 178 0 L 83 0 L 83 730 L 157 730 L 521 202 L 521 730 L 615 730 L 615 0 Z M 351 793 L 351 793 Z M 192 964 L 275 964 L 352 856 L 430 964 L 510 964 L 396 793 L 307 793 L 192 964 Z" unicode="Ň" />
<glyph horiz-adv-x="485" d="M 55 0 L 55 0 Z M 434 0 L 342 0 L 342 284 C 342 310 334 331 318 347 C 302 363 280 371 252 371 C 224 371 199 362 178 344 C 157 326 147 298 147 258 L 147 0 L 55 0 L 55 436 L 143 436 L 143 364 C 152 388 169 407 195 423 C 220 439 250 447 285 447 C 330 447 366 434 393 409 C 420 384 434 350 434 306 L 434 0 Z M 242 499 L 242 499 Z M 83 670 L 166 670 L 243 562 L 321 670 L 401 670 L 287 499 L 198 499 L 83 670 Z" unicode="ň" />
<glyph horiz-adv-x="705" d="M 521 730 L 615 730 L 615 0 L 615 0 C 615 -27 611 -53 603 -77 C 595 -101 583 -122 567 -140 C 551 -158 532 -172 509 -183 C 485 -193 458 -199 428 -199 C 412 -199 397 -198 382 -196 C 367 -194 355 -192 347 -190 L 348 -99 C 354 -101 364 -103 378 -105 C 392 -107 405 -108 416 -108 C 450 -108 476 -97 495 -75 C 514 -53 524 -27 524 4 L 524 32 L 178 531 L 178 0 L 83 0 L 83 730 L 157 730 L 521 202 L 521 730 Z" unicode="Ŋ" />
<glyph horiz-adv-x="485" d="M 285 447 C 330 447 366 434 393 409 C 420 384 434 350 434 306 L 434 -79 C 434 -113 423 -142 402 -166 C 380 -190 351 -202 315 -202 C 305 -202 294 -201 282 -199 C 269 -197 260 -196 256 -194 L 263 -119 C 265 -119 270 -120 276 -121 C 282 -121 287 -122 293 -122 C 306 -122 317 -117 327 -107 C 337 -97 342 -83 342 -65 L 342 284 C 342 310 334 331 318 347 C 302 363 280 371 252 371 C 224 371 199 362 178 344 C 157 326 147 298 147 258 L 147 0 L 55 0 L 55 436 L 143 436 L 143 364 C 152 388 169 407 195 423 C 220 439 250 447 285 447 Z" unicode="ŋ" />
<glyph horiz-adv-x="751" d="M 43 0 L 43 0 Z M 378 -10 C 327 -10 281 -1 239 17 C 197 35 162 60 133 93 C 104 126 82 166 66 213 C 50 260 43 312 43 370 C 43 424 51 473 68 519 C 84 565 107 604 136 636 C 165 668 200 694 240 712 C 280 730 324 740 372 740 C 422 740 467 731 509 714 C 551 696 586 671 616 639 C 645 607 668 567 684 521 C 700 475 709 423 709 367 C 709 310 700 258 683 212 C 665 166 642 126 612 93 C 582 60 547 35 507 17 C 467 -1 424 -10 378 -10 Z M 377 81 C 409 81 440 87 468 100 C 496 112 521 131 541 156 C 561 180 576 211 588 247 C 600 283 606 325 606 371 C 606 413 600 452 589 486 C 577 520 561 549 541 573 C 520 597 495 615 467 628 C 439 640 408 647 374 647 C 306 647 251 623 209 575 C 167 527 146 457 146 366 C 146 319 152 278 164 242 C 176 206 192 177 213 153 C 233 129 258 111 286 99 C 314 87 344 81 377 81 Z M 373 817 L 373 817 Z M 501 817 L 245 817 L 245 885 L 501 885 L 501 817 Z" unicode="Ō" />
<glyph horiz-adv-x="486" d="M 26 0 L 26 0 Z M 241 -9 C 213 -9 186 -3 160 6 C 134 16 111 31 91 51 C 71 70 56 94 44 122 C 32 150 26 181 26 217 C 26 249 31 279 42 307 C 53 335 68 359 88 380 C 107 400 129 416 155 428 C 181 440 208 446 238 446 C 268 446 297 440 324 430 C 351 420 375 405 395 386 C 415 367 430 344 442 318 C 454 291 460 261 460 229 C 460 194 454 162 443 133 C 432 103 417 78 397 57 C 377 36 354 20 328 8 C 301 -3 272 -9 241 -9 Z M 243 68 C 279 68 308 81 330 109 C 352 136 364 174 364 222 C 364 266 352 301 330 328 C 307 354 276 368 236 368 C 203 368 176 354 154 328 C 132 302 122 265 122 219 C 122 169 133 131 156 106 C 179 80 208 68 243 68 Z M 238 523 L 238 523 Z M 366 523 L 110 523 L 110 591 L 366 591 L 366 523 Z" unicode="ō" />
<glyph horiz-adv-x="751" d="M 43 0 L 43 0 Z M 378 -10 C 327 -10 281 -1 239 17 C 197 35 162 60 133 93 C 104 126 82 166 66 213 C 50 260 43 312 43 370 C 43 424 51 473 68 519 C 84 565 107 604 136 636 C 165 668 200 694 240 712 C 280 730 324 740 372 740 C 422 740 467 731 509 714 C 551 696 586 671 616 639 C 645 607 668 567 684 521 C 700 475 709 423 709 367 C 709 310 700 258 683 212 C 665 166 642 126 612 93 C 582 60 547 35 507 17 C 467 -1 424 -10 378 -10 Z M 377 81 C 409 81 440 87 468 100 C 496 112 521 131 541 156 C 561 180 576 211 588 247 C 600 283 606 325 606 371 C 606 413 600 452 589 486 C 577 520 561 549 541 573 C 520 597 495 615 467 628 C 439 640 408 647 374 647 C 306 647 251 623 209 575 C 167 527 146 457 146 366 C 146 319 152 278 164 242 C 176 206 192 177 213 153 C 233 129 258 111 286 99 C 314 87 344 81 377 81 Z M 373 797 L 373 797 Z M 445 955 L 523 955 C 519 899 503 859 475 834 C 447 809 413 797 373 797 C 332 797 298 809 271 834 C 243 859 228 899 224 955 L 301 955 C 303 924 309 899 320 881 C 330 863 348 854 373 854 C 397 854 415 862 426 880 C 437 897 443 922 445 955 Z" unicode="Ŏ" />
<glyph horiz-adv-x="486" d="M 26 0 L 26 0 Z M 241 -9 C 213 -9 186 -3 160 6 C 134 16 111 31 91 51 C 71 70 56 94 44 122 C 32 150 26 181 26 217 C 26 249 31 279 42 307 C 53 335 68 359 88 380 C 107 400 129 416 155 428 C 181 440 208 446 238 446 C 268 446 297 440 324 430 C 351 420 375 405 395 386 C 415 367 430 344 442 318 C 454 291 460 261 460 229 C 460 194 454 162 443 133 C 432 103 417 78 397 57 C 377 36 354 20 328 8 C 301 -3 272 -9 241 -9 Z M 243 68 C 279 68 308 81 330 109 C 352 136 364 174 364 222 C 364 266 352 301 330 328 C 307 354 276 368 236 368 C 203 368 176 354 154 328 C 132 302 122 265 122 219 C 122 169 133 131 156 106 C 179 80 208 68 243 68 Z M 238 503 L 238 503 Z M 310 661 L 388 661 C 384 605 368 565 340 540 C 312 515 278 503 238 503 C 197 503 163 515 136 540 C 108 565 93 605 89 661 L 166 661 C 168 630 174 605 185 587 C 195 569 213 560 238 560 C 262 560 280 568 291 586 C 302 603 308 628 310 661 Z" unicode="ŏ" />
<glyph horiz-adv-x="751" d="M 43 0 L 43 0 Z M 378 -10 C 327 -10 281 -1 239 17 C 197 35 162 60 133 93 C 104 126 82 166 66 213 C 50 260 43 312 43 370 C 43 424 51 473 68 519 C 84 565 107 604 136 636 C 165 668 200 694 240 712 C 280 730 324 740 372 740 C 422 740 467 731 509 714 C 551 696 586 671 616 639 C 645 607 668 567 684 521 C 700 475 709 423 709 367 C 709 310 700 258 683 212 C 665 166 642 126 612 93 C 582 60 547 35 507 17 C 467 -1 424 -10 378 -10 Z M 377 81 C 409 81 440 87 468 100 C 496 112 521 131 541 156 C 561 180 576 211 588 247 C 600 283 606 325 606 371 C 606 413 600 452 589 486 C 577 520 561 549 541 573 C 520 597 495 615 467 628 C 439 640 408 647 374 647 C 306 647 251 623 209 575 C 167 527 146 457 146 366 C 146 319 152 278 164 242 C 176 206 192 177 213 153 C 233 129 258 111 286 99 C 314 87 344 81 377 81 Z M 373 792 L 373 792 Z M 192 792 L 276 945 L 374 945 L 274 792 L 192 792 Z M 372 792 L 457 945 L 556 945 L 454 792 L 372 792 Z" unicode="Ő" />
<glyph horiz-adv-x="486" d="M 26 0 L 26 0 Z M 241 -9 C 213 -9 186 -3 160 6 C 134 16 111 31 91 51 C 71 70 56 94 44 122 C 32 150 26 181 26 217 C 26 249 31 279 42 307 C 53 335 68 359 88 380 C 107 400 129 416 155 428 C 181 440 208 446 238 446 C 268 446 297 440 324 430 C 351 420 375 405 395 386 C 415 367 430 344 442 318 C 454 291 460 261 460 229 C 460 194 454 162 443 133 C 432 103 417 78 397 57 C 377 36 354 20 328 8 C 301 -3 272 -9 241 -9 Z M 243 68 C 279 68 308 81 330 109 C 352 136 364 174 364 222 C 364 266 352 301 330 328 C 307 354 276 368 236 368 C 203 368 176 354 154 328 C 132 302 122 265 122 219 C 122 169 133 131 156 106 C 179 80 208 68 243 68 Z M 238 498 L 238 498 Z M 57 498 L 141 651 L 239 651 L 139 498 L 57 498 Z M 237 498 L 322 651 L 421 651 L 319 498 L 237 498 Z" unicode="ő" />
<glyph horiz-adv-x="1035" d="M 363 -10 C 315 -10 271 -1 232 16 C 192 34 159 59 131 92 C 103 124 81 164 66 211 C 50 258 43 311 43 369 C 43 424 51 475 67 521 C 83 567 106 606 135 638 C 163 670 197 695 237 713 C 276 731 318 740 364 740 C 389 740 414 736 439 729 C 464 722 487 713 509 701 C 530 689 549 674 565 658 C 581 642 592 624 600 606 L 600 730 L 977 730 L 977 643 L 696 643 L 696 404 L 965 404 L 965 317 L 696 317 L 696 87 L 997 87 L 997 0 L 600 0 L 600 132 C 585 94 557 60 516 32 C 474 4 423 -10 363 -10 Z M 374 75 C 406 75 436 81 464 94 C 492 106 516 125 536 149 C 556 173 571 204 583 241 C 595 278 601 321 601 370 C 601 417 594 458 580 494 C 566 529 549 558 527 582 C 505 605 481 622 453 634 C 425 646 398 652 371 652 C 305 652 250 627 208 579 C 166 530 145 459 145 366 C 145 318 150 275 162 239 C 174 202 190 172 211 148 C 231 124 256 105 284 93 C 312 81 342 75 374 75 Z" unicode="Œ" />
<glyph horiz-adv-x="803" d="M 240 -9 C 210 -9 181 -3 155 7 C 129 18 106 33 87 53 C 68 72 53 96 42 124 C 31 152 26 183 26 217 C 26 249 31 280 42 308 C 52 336 67 360 87 380 C 106 400 129 416 155 428 C 181 440 210 446 241 446 C 289 446 327 435 356 415 C 385 395 404 372 413 346 C 417 357 424 368 434 380 C 443 392 455 402 469 412 C 483 422 499 430 518 436 C 536 442 557 446 580 446 C 647 446 698 423 733 377 C 768 331 786 269 786 192 L 456 192 C 458 153 471 122 495 99 C 519 76 551 65 589 65 C 624 65 651 70 669 82 C 687 94 702 106 715 119 L 770 68 C 752 48 731 31 705 15 C 679 -1 640 -9 588 -9 C 536 -9 496 1 467 23 C 438 44 420 67 412 91 C 408 80 401 69 391 57 C 381 45 368 35 354 25 C 340 15 323 6 304 0 C 284 -5 263 -9 240 -9 Z M 459 261 L 698 261 C 696 292 685 318 664 340 C 643 361 615 372 579 372 C 543 372 515 361 495 340 C 474 319 462 293 459 261 Z M 243 69 C 280 69 310 82 332 108 C 354 134 365 172 365 222 C 365 268 353 303 330 329 C 307 355 277 368 240 368 C 204 368 176 354 154 328 C 132 301 122 265 122 220 C 122 170 133 132 156 107 C 178 81 207 69 243 69 Z" unicode="œ" />
<glyph horiz-adv-x="568" d="M 83 0 L 83 0 Z M 83 0 L 83 730 L 281 730 C 339 730 388 712 427 678 C 465 644 485 595 485 531 C 485 500 481 472 473 448 C 465 424 454 403 440 386 C 426 369 410 355 392 345 C 374 335 355 328 336 326 L 333 323 L 548 0 L 435 0 L 237 302 L 180 302 L 180 0 L 83 0 Z M 180 388 L 262 388 C 298 388 327 400 351 422 C 374 444 386 476 386 518 C 386 555 374 585 351 607 C 328 629 299 640 264 640 L 180 640 L 180 388 Z M 269 792 L 269 792 Z M 166 792 L 265 958 L 373 958 L 258 792 L 166 792 Z" unicode="Ŕ" />
<glyph horiz-adv-x="356" d="M 55 0 L 55 0 Z M 356 415 L 322 339 C 308 349 295 356 282 360 C 269 363 256 365 244 365 C 221 365 199 355 178 337 C 157 318 147 289 147 251 L 147 0 L 55 0 L 55 436 L 144 436 L 144 360 C 150 378 163 397 185 417 C 207 436 234 446 267 446 C 285 446 302 443 318 437 C 333 431 346 423 356 415 Z M 205 498 L 205 498 Z M 102 498 L 201 664 L 309 664 L 194 498 L 102 498 Z" unicode="ŕ" />
<glyph horiz-adv-x="568" d="M 83 0 L 83 0 Z M 83 0 L 83 730 L 281 730 C 339 730 388 712 427 678 C 465 644 485 595 485 531 C 485 500 481 472 473 448 C 465 424 454 403 440 386 C 426 369 410 355 392 345 C 374 335 355 328 336 326 L 333 323 L 548 0 L 435 0 L 237 302 L 180 302 L 180 0 L 83 0 Z M 180 388 L 262 388 C 298 388 327 400 351 422 C 374 444 386 476 386 518 C 386 555 374 585 351 607 C 328 629 299 640 264 640 L 180 640 L 180 388 Z M 277 -71 L 277 -71 Z M 368 -71 C 366 -93 361 -117 354 -141 C 347 -165 338 -188 328 -210 C 318 -232 306 -253 294 -272 C 281 -291 268 -307 256 -319 L 187 -287 C 194 -277 202 -265 211 -249 C 220 -233 229 -216 237 -197 C 245 -178 252 -158 258 -136 C 264 -114 269 -92 272 -71 L 368 -71 Z" unicode="Ŗ" />
<glyph horiz-adv-x="356" d="M 55 0 L 55 0 Z M 356 415 L 322 339 C 308 349 295 356 282 360 C 269 363 256 365 244 365 C 221 365 199 355 178 337 C 157 318 147 289 147 251 L 147 0 L 55 0 L 55 436 L 144 436 L 144 360 C 150 378 163 397 185 417 C 207 436 234 446 267 446 C 285 446 302 443 318 437 C 333 431 346 423 356 415 Z M 176 -71 L 176 -71 Z M 267 -71 C 265 -93 260 -117 253 -141 C 246 -165 237 -188 227 -210 C 217 -232 205 -253 193 -272 C 180 -291 167 -307 155 -319 L 86 -287 C 93 -277 101 -265 110 -249 C 119 -233 128 -216 136 -197 C 144 -178 151 -158 157 -136 C 163 -114 168 -92 171 -71 L 267 -71 Z" unicode="ŗ" />
<glyph horiz-adv-x="568" d="M 83 0 L 83 0 Z M 83 0 L 83 730 L 281 730 C 339 730 388 712 427 678 C 465 644 485 595 485 531 C 485 500 481 472 473 448 C 465 424 454 403 440 386 C 426 369 410 355 392 345 C 374 335 355 328 336 326 L 333 323 L 548 0 L 435 0 L 237 302 L 180 302 L 180 0 L 83 0 Z M 180 388 L 262 388 C 298 388 327 400 351 422 C 374 444 386 476 386 518 C 386 555 374 585 351 607 C 328 629 299 640 264 640 L 180 640 L 180 388 Z M 269 793 L 269 793 Z M 110 964 L 193 964 L 270 856 L 348 964 L 428 964 L 314 793 L 225 793 L 110 964 Z" unicode="Ř" />
<glyph horiz-adv-x="356" d="M 46 0 L 46 0 Z M 356 415 L 322 339 C 308 349 295 356 282 360 C 269 363 256 365 244 365 C 221 365 199 355 178 337 C 157 318 147 289 147 251 L 147 0 L 55 0 L 55 436 L 144 436 L 144 360 C 150 378 163 397 185 417 C 207 436 234 446 267 446 C 285 446 302 443 318 437 C 333 431 346 423 356 415 Z M 205 499 L 205 499 Z M 46 670 L 129 670 L 206 562 L 284 670 L 364 670 L 250 499 L 161 499 L 46 670 Z" unicode="ř" />
<glyph horiz-adv-x="470" d="M 21 0 L 21 0 Z M 244 -10 C 197 -10 155 -2 117 12 C 79 27 47 50 21 80 L 77 153 C 95 129 119 111 148 97 C 177 83 207 77 238 77 C 270 77 297 86 319 106 C 341 126 352 152 352 184 C 352 214 342 240 322 262 C 302 283 269 306 221 331 C 168 357 125 386 93 420 C 60 453 44 500 44 560 C 44 613 62 656 98 690 C 134 723 181 740 239 740 C 278 740 313 734 344 722 C 374 710 401 694 424 674 L 375 598 C 357 613 337 626 315 636 C 293 646 269 651 245 651 C 213 651 188 641 168 623 C 148 605 139 582 139 556 C 139 527 149 503 167 483 C 185 463 223 440 279 414 C 339 385 382 353 408 317 C 434 281 448 238 448 186 C 448 154 442 126 431 102 C 419 78 404 57 386 41 C 367 24 345 11 321 3 C 296 -5 270 -10 244 -10 Z M 236 792 L 236 792 Z M 133 792 L 232 958 L 340 958 L 225 792 L 133 792 Z" unicode="Ś" />
<glyph horiz-adv-x="359" d="M 23 0 L 23 0 Z M 190 -10 C 152 -10 119 -4 91 6 C 63 16 41 31 23 49 L 69 112 C 83 98 100 86 121 78 C 142 70 164 66 187 66 C 205 66 221 70 233 80 C 245 89 251 102 251 119 C 251 134 243 147 228 157 C 213 167 189 178 157 190 C 118 203 88 220 66 240 C 44 260 34 288 34 323 C 34 359 48 388 76 411 C 104 434 138 446 180 446 C 210 446 238 441 262 431 C 286 421 306 411 321 399 L 275 340 C 265 346 251 353 234 360 C 217 367 199 371 181 371 C 164 371 149 367 136 361 C 123 354 117 344 117 330 C 117 318 122 307 132 299 C 142 291 165 280 201 267 C 244 251 277 232 299 212 C 321 192 333 163 333 125 C 333 83 319 50 291 26 C 263 2 230 -10 190 -10 Z M 183 498 L 183 498 Z M 80 498 L 179 664 L 287 664 L 172 498 L 80 498 Z" unicode="ś" />
<glyph horiz-adv-x="470" d="M 21 0 L 21 0 Z M 244 -10 C 197 -10 155 -2 117 12 C 79 27 47 50 21 80 L 77 153 C 95 129 119 111 148 97 C 177 83 207 77 238 77 C 270 77 297 86 319 106 C 341 126 352 152 352 184 C 352 214 342 240 322 262 C 302 283 269 306 221 331 C 168 357 125 386 93 420 C 60 453 44 500 44 560 C 44 613 62 656 98 690 C 134 723 181 740 239 740 C 278 740 313 734 344 722 C 374 710 401 694 424 674 L 375 598 C 357 613 337 626 315 636 C 293 646 269 651 245 651 C 213 651 188 641 168 623 C 148 605 139 582 139 556 C 139 527 149 503 167 483 C 185 463 223 440 279 414 C 339 385 382 353 408 317 C 434 281 448 238 448 186 C 448 154 442 126 431 102 C 419 78 404 57 386 41 C 367 24 345 11 321 3 C 296 -5 270 -10 244 -10 Z M 236 793 L 236 793 Z M 395 793 L 313 793 L 236 901 L 158 793 L 77 793 L 192 964 L 281 964 L 395 793 Z" unicode="Ŝ" />
<glyph horiz-adv-x="359" d="M 23 0 L 23 0 Z M 190 -10 C 152 -10 119 -4 91 6 C 63 16 41 31 23 49 L 69 112 C 83 98 100 86 121 78 C 142 70 164 66 187 66 C 205 66 221 70 233 80 C 245 89 251 102 251 119 C 251 134 243 147 228 157 C 213 167 189 178 157 190 C 118 203 88 220 66 240 C 44 260 34 288 34 323 C 34 359 48 388 76 411 C 104 434 138 446 180 446 C 210 446 238 441 262 431 C 286 421 306 411 321 399 L 275 340 C 265 346 251 353 234 360 C 217 367 199 371 181 371 C 164 371 149 367 136 361 C 123 354 117 344 117 330 C 117 318 122 307 132 299 C 142 291 165 280 201 267 C 244 251 277 232 299 212 C 321 192 333 163 333 125 C 333 83 319 50 291 26 C 263 2 230 -10 190 -10 Z M 183 499 L 183 499 Z M 342 499 L 260 499 L 183 607 L 105 499 L 24 499 L 139 670 L 228 670 L 342 499 Z" unicode="ŝ" />
<glyph horiz-adv-x="470" d="M 21 0 L 21 0 Z M 244 -10 C 197 -10 155 -2 117 12 C 79 27 47 50 21 80 L 77 153 C 95 129 119 111 148 97 C 177 83 207 77 238 77 C 270 77 297 86 319 106 C 341 126 352 152 352 184 C 352 214 342 240 322 262 C 302 283 269 306 221 331 C 168 357 125 386 93 420 C 60 453 44 500 44 560 C 44 613 62 656 98 690 C 134 723 181 740 239 740 C 278 740 313 734 344 722 C 374 710 401 694 424 674 L 375 598 C 357 613 337 626 315 636 C 293 646 269 651 245 651 C 213 651 188 641 168 623 C 148 605 139 582 139 556 C 139 527 149 503 167 483 C 185 463 223 440 279 414 C 339 385 382 353 408 317 C 434 281 448 238 448 186 C 448 154 442 126 431 102 C 419 78 404 57 386 41 C 367 24 345 11 321 3 C 296 -5 270 -10 244 -10 Z M 218 -1 L 218 -1 Z M 226 -188 C 202 -188 179 -185 155 -179 C 131 -173 112 -165 98 -156 L 110 -115 C 119 -120 131 -125 147 -131 C 163 -137 180 -140 199 -140 C 213 -140 226 -136 237 -130 C 247 -123 253 -114 253 -104 C 253 -91 248 -82 238 -77 C 228 -71 218 -69 208 -69 C 200 -69 193 -69 187 -71 C 181 -72 175 -74 169 -76 L 154 -61 L 214 11 L 270 11 L 220 -51 C 253 -43 281 -46 304 -58 C 326 -70 338 -89 338 -113 C 338 -137 326 -156 304 -169 C 282 -181 256 -188 226 -188 Z" unicode="Ş" />
<glyph horiz-adv-x="359" d="M 23 0 L 23 0 Z M 190 -10 C 152 -10 119 -4 91 6 C 63 16 41 31 23 49 L 69 112 C 83 98 100 86 121 78 C 142 70 164 66 187 66 C 205 66 221 70 233 80 C 245 89 251 102 251 119 C 251 134 243 147 228 157 C 213 167 189 178 157 190 C 118 203 88 220 66 240 C 44 260 34 288 34 323 C 34 359 48 388 76 411 C 104 434 138 446 180 446 C 210 446 238 441 262 431 C 286 421 306 411 321 399 L 275 340 C 265 346 251 353 234 360 C 217 367 199 371 181 371 C 164 371 149 367 136 361 C 123 354 117 344 117 330 C 117 318 122 307 132 299 C 142 291 165 280 201 267 C 244 251 277 232 299 212 C 321 192 333 163 333 125 C 333 83 319 50 291 26 C 263 2 230 -10 190 -10 Z M 170 -1 L 170 -1 Z M 178 -188 C 154 -188 131 -185 107 -179 C 83 -173 64 -165 50 -156 L 62 -115 C 71 -120 83 -125 99 -131 C 115 -137 132 -140 151 -140 C 165 -140 178 -136 189 -130 C 199 -123 205 -114 205 -104 C 205 -91 200 -82 190 -77 C 180 -71 170 -69 160 -69 C 152 -69 145 -69 139 -71 C 133 -72 127 -74 121 -76 L 106 -61 L 166 11 L 222 11 L 172 -51 C 205 -43 233 -46 256 -58 C 278 -70 290 -89 290 -113 C 290 -137 278 -156 256 -169 C 234 -181 208 -188 178 -188 Z" unicode="ş" />
<glyph horiz-adv-x="470" d="M 21 0 L 21 0 Z M 244 -10 C 197 -10 155 -2 117 12 C 79 27 47 50 21 80 L 77 153 C 95 129 119 111 148 97 C 177 83 207 77 238 77 C 270 77 297 86 319 106 C 341 126 352 152 352 184 C 352 214 342 240 322 262 C 302 283 269 306 221 331 C 168 357 125 386 93 420 C 60 453 44 500 44 560 C 44 613 62 656 98 690 C 134 723 181 740 239 740 C 278 740 313 734 344 722 C 374 710 401 694 424 674 L 375 598 C 357 613 337 626 315 636 C 293 646 269 651 245 651 C 213 651 188 641 168 623 C 148 605 139 582 139 556 C 139 527 149 503 167 483 C 185 463 223 440 279 414 C 339 385 382 353 408 317 C 434 281 448 238 448 186 C 448 154 442 126 431 102 C 419 78 404 57 386 41 C 367 24 345 11 321 3 C 296 -5 270 -10 244 -10 Z M 236 793 L 236 793 Z M 77 964 L 160 964 L 237 856 L 315 964 L 395 964 L 281 793 L 192 793 L 77 964 Z" unicode="Š" />
<glyph horiz-adv-x="359" d="M 23 0 L 23 0 Z M 190 -10 C 152 -10 119 -4 91 6 C 63 16 41 31 23 49 L 69 112 C 83 98 100 86 121 78 C 142 70 164 66 187 66 C 205 66 221 70 233 80 C 245 89 251 102 251 119 C 251 134 243 147 228 157 C 213 167 189 178 157 190 C 118 203 88 220 66 240 C 44 260 34 288 34 323 C 34 359 48 388 76 411 C 104 434 138 446 180 446 C 210 446 238 441 262 431 C 286 421 306 411 321 399 L 275 340 C 265 346 251 353 234 360 C 217 367 199 371 181 371 C 164 371 149 367 136 361 C 123 354 117 344 117 330 C 117 318 122 307 132 299 C 142 291 165 280 201 267 C 244 251 277 232 299 212 C 321 192 333 163 333 125 C 333 83 319 50 291 26 C 263 2 230 -10 190 -10 Z M 183 499 L 183 499 Z M 24 670 L 107 670 L 184 562 L 262 670 L 342 670 L 228 499 L 139 499 L 24 670 Z" unicode="š" />
<glyph horiz-adv-x="482" d="M 9 0 L 9 0 Z M 473 640 L 289 640 L 289 0 L 189 0 L 189 640 L 9 640 L 9 730 L 473 730 L 473 640 Z M 239 793 L 239 793 Z M 80 964 L 163 964 L 240 856 L 318 964 L 398 964 L 284 793 L 195 793 L 80 964 Z" unicode="Ť" />
<glyph horiz-adv-x="246" d="M 10 0 L 10 0 Z M 232 77 L 238 3 C 235 1 229 -1 219 -3 C 209 -5 198 -6 186 -6 C 172 -6 158 -4 144 -1 C 130 2 117 8 105 17 C 93 26 83 38 75 53 C 67 68 63 87 63 111 L 63 355 L 10 355 L 10 436 L 64 436 L 64 552 L 153 563 L 153 436 L 229 436 L 229 355 L 154 355 L 154 123 C 154 104 158 91 168 84 C 178 76 191 73 207 73 C 210 73 215 73 221 74 C 227 75 231 76 232 77 Z M 326 621 L 321 483 L 243 483 L 238 621 L 238 730 L 326 730 L 326 621 Z" unicode="ť" />
<glyph horiz-adv-x="482" d="M 413 455 L 289 455 L 289 0 L 189 0 L 189 455 L 61 455 L 61 533 L 189 533 L 189 640 L 9 640 L 9 730 L 473 730 L 473 640 L 289 640 L 289 533 L 413 533 L 413 455 Z" unicode="Ŧ" />
<glyph horiz-adv-x="246" d="M 238 3 C 235 1 229 -1 219 -3 C 209 -5 198 -6 186 -6 C 172 -6 158 -4 144 -1 C 130 2 117 8 105 17 C 93 26 83 38 75 53 C 67 68 63 87 63 111 L 63 222 L 20 222 L 20 300 L 63 300 L 63 355 L 10 355 L 10 436 L 64 436 L 64 552 L 153 563 L 153 436 L 229 436 L 229 355 L 154 355 L 154 300 L 219 300 L 219 222 L 154 222 L 154 123 C 154 104 158 91 168 84 C 178 76 191 73 207 73 C 210 73 215 73 221 74 C 227 75 231 76 232 77 L 238 3 Z" unicode="ŧ" />
<glyph horiz-adv-x="672" d="M 77 0 L 77 0 Z M 595 730 L 595 250 C 595 208 588 170 574 138 C 560 105 542 78 518 56 C 494 34 467 18 435 7 C 403 -4 369 -10 333 -10 C 298 -10 265 -4 234 6 C 202 16 175 32 152 54 C 129 76 111 103 97 136 C 83 168 77 206 77 250 L 77 730 L 174 730 L 174 244 C 174 192 189 152 220 123 C 251 94 289 80 334 80 C 378 80 417 94 449 122 C 481 150 497 190 497 244 L 497 730 L 595 730 Z M 335 799 L 335 799 Z M 424 936 L 492 936 C 492 889 485 854 472 832 C 459 810 442 799 421 799 C 402 799 386 802 373 809 C 359 816 348 823 339 830 C 329 836 320 843 311 849 C 302 855 293 859 285 859 C 276 859 268 853 262 843 C 255 833 251 819 251 803 L 183 803 C 183 849 191 883 209 906 C 226 928 245 940 265 940 C 281 940 295 936 307 929 C 319 921 330 914 341 906 C 349 899 358 892 367 886 C 375 880 384 877 393 877 C 401 877 408 882 414 893 C 420 903 424 918 424 936 Z" unicode="Ũ" />
<glyph horiz-adv-x="486" d="M 52 0 L 52 0 Z M 52 436 L 143 436 L 143 152 C 143 123 151 101 168 87 C 184 72 206 65 234 65 C 262 65 287 73 307 91 C 327 108 338 136 338 175 L 338 436 L 430 436 L 430 0 L 340 0 L 340 71 C 329 47 311 27 286 13 C 260 0 231 -8 198 -8 C 156 -8 122 4 94 28 C 66 52 52 89 52 137 L 52 436 Z M 241 505 L 241 505 Z M 330 642 L 398 642 C 398 595 391 560 378 538 C 365 516 348 505 327 505 C 308 505 292 508 279 515 C 265 522 254 529 245 536 C 235 542 226 549 217 555 C 208 561 199 565 191 565 C 182 565 174 559 168 549 C 161 539 157 525 157 509 L 89 509 C 89 555 97 589 115 612 C 132 634 151 646 171 646 C 187 646 201 642 213 635 C 225 627 236 620 247 612 C 255 605 264 598 273 592 C 281 586 290 583 299 583 C 307 583 314 588 320 599 C 326 609 330 624 330 642 Z" unicode="ũ" />
<glyph horiz-adv-x="672" d="M 77 0 L 77 0 Z M 595 730 L 595 250 C 595 208 588 170 574 138 C 560 105 542 78 518 56 C 494 34 467 18 435 7 C 403 -4 369 -10 333 -10 C 298 -10 265 -4 234 6 C 202 16 175 32 152 54 C 129 76 111 103 97 136 C 83 168 77 206 77 250 L 77 730 L 174 730 L 174 244 C 174 192 189 152 220 123 C 251 94 289 80 334 80 C 378 80 417 94 449 122 C 481 150 497 190 497 244 L 497 730 L 595 730 Z M 335 817 L 335 817 Z M 463 817 L 207 817 L 207 885 L 463 885 L 463 817 Z" unicode="Ū" />
<glyph horiz-adv-x="486" d="M 52 0 L 52 0 Z M 52 436 L 143 436 L 143 152 C 143 123 151 101 168 87 C 184 72 206 65 234 65 C 262 65 287 73 307 91 C 327 108 338 136 338 175 L 338 436 L 430 436 L 430 0 L 340 0 L 340 71 C 329 47 311 27 286 13 C 260 0 231 -8 198 -8 C 156 -8 122 4 94 28 C 66 52 52 89 52 137 L 52 436 Z M 241 523 L 241 523 Z M 369 523 L 113 523 L 113 591 L 369 591 L 369 523 Z" unicode="ū" />
<glyph horiz-adv-x="672" d="M 77 0 L 77 0 Z M 595 730 L 595 250 C 595 208 588 170 574 138 C 560 105 542 78 518 56 C 494 34 467 18 435 7 C 403 -4 369 -10 333 -10 C 298 -10 265 -4 234 6 C 202 16 175 32 152 54 C 129 76 111 103 97 136 C 83 168 77 206 77 250 L 77 730 L 174 730 L 174 244 C 174 192 189 152 220 123 C 251 94 289 80 334 80 C 378 80 417 94 449 122 C 481 150 497 190 497 244 L 497 730 L 595 730 Z M 335 797 L 335 797 Z M 407 955 L 485 955 C 481 899 465 859 437 834 C 409 809 375 797 335 797 C 294 797 260 809 233 834 C 205 859 190 899 186 955 L 263 955 C 265 924 271 899 282 881 C 292 863 310 854 335 854 C 359 854 377 862 388 880 C 399 897 405 922 407 955 Z" unicode="Ŭ" />
<glyph horiz-adv-x="486" d="M 52 0 L 52 0 Z M 52 436 L 143 436 L 143 152 C 143 123 151 101 168 87 C 184 72 206 65 234 65 C 262 65 287 73 307 91 C 327 108 338 136 338 175 L 338 436 L 430 436 L 430 0 L 340 0 L 340 71 C 329 47 311 27 286 13 C 260 0 231 -8 198 -8 C 156 -8 122 4 94 28 C 66 52 52 89 52 137 L 52 436 Z M 241 503 L 241 503 Z M 313 661 L 391 661 C 387 605 371 565 343 540 C 315 515 281 503 241 503 C 200 503 166 515 139 540 C 111 565 96 605 92 661 L 169 661 C 171 630 177 605 188 587 C 198 569 216 560 241 560 C 265 560 283 568 294 586 C 305 603 311 628 313 661 Z" unicode="ŭ" />
<glyph horiz-adv-x="672" d="M 77 0 L 77 0 Z M 595 730 L 595 250 C 595 208 588 170 574 138 C 560 105 542 78 518 56 C 494 34 467 18 435 7 C 403 -4 369 -10 333 -10 C 298 -10 265 -4 234 6 C 202 16 175 32 152 54 C 129 76 111 103 97 136 C 83 168 77 206 77 250 L 77 730 L 174 730 L 174 244 C 174 192 189 152 220 123 C 251 94 289 80 334 80 C 378 80 417 94 449 122 C 481 150 497 190 497 244 L 497 730 L 595 730 Z M 335 789 L 335 789 Z M 335 789 C 303 789 277 800 255 822 C 233 844 222 870 222 902 C 222 934 233 961 255 983 C 277 1005 303 1016 335 1016 C 367 1016 394 1005 416 983 C 438 961 449 934 449 902 C 449 870 438 844 416 822 C 394 800 367 789 335 789 Z M 335 843 C 351 843 365 848 376 860 C 387 871 393 885 393 902 C 393 918 387 932 376 944 C 365 956 351 962 335 962 C 319 962 305 956 294 944 C 282 932 277 918 277 902 C 277 885 282 871 294 860 C 305 848 319 843 335 843 Z" unicode="Ů" />
<glyph horiz-adv-x="486" d="M 52 0 L 52 0 Z M 52 436 L 143 436 L 143 152 C 143 123 151 101 168 87 C 184 72 206 65 234 65 C 262 65 287 73 307 91 C 327 108 338 136 338 175 L 338 436 L 430 436 L 430 0 L 340 0 L 340 71 C 329 47 311 27 286 13 C 260 0 231 -8 198 -8 C 156 -8 122 4 94 28 C 66 52 52 89 52 137 L 52 436 Z M 241 495 L 241 495 Z M 241 495 C 209 495 183 506 161 528 C 139 550 128 576 128 608 C 128 640 139 667 161 689 C 183 711 209 722 241 722 C 273 722 300 711 322 689 C 344 667 355 640 355 608 C 355 576 344 550 322 528 C 300 506 273 495 241 495 Z M 241 549 C 257 549 271 554 282 566 C 293 577 299 591 299 608 C 299 624 293 638 282 650 C 271 662 257 668 241 668 C 225 668 211 662 200 650 C 188 638 183 624 183 608 C 183 591 188 577 200 566 C 211 554 225 549 241 549 Z" unicode="ů" />
<glyph horiz-adv-x="672" d="M 77 0 L 77 0 Z M 595 730 L 595 250 C 595 208 588 170 574 138 C 560 105 542 78 518 56 C 494 34 467 18 435 7 C 403 -4 369 -10 333 -10 C 298 -10 265 -4 234 6 C 202 16 175 32 152 54 C 129 76 111 103 97 136 C 83 168 77 206 77 250 L 77 730 L 174 730 L 174 244 C 174 192 189 152 220 123 C 251 94 289 80 334 80 C 378 80 417 94 449 122 C 481 150 497 190 497 244 L 497 730 L 595 730 Z M 335 792 L 335 792 Z M 154 792 L 238 945 L 336 945 L 236 792 L 154 792 Z M 334 792 L 419 945 L 518 945 L 416 792 L 334 792 Z" unicode="Ű" />
<glyph horiz-adv-x="486" d="M 52 0 L 52 0 Z M 52 436 L 143 436 L 143 152 C 143 123 151 101 168 87 C 184 72 206 65 234 65 C 262 65 287 73 307 91 C 327 108 338 136 338 175 L 338 436 L 430 436 L 430 0 L 340 0 L 340 71 C 329 47 311 27 286 13 C 260 0 231 -8 198 -8 C 156 -8 122 4 94 28 C 66 52 52 89 52 137 L 52 436 Z M 241 498 L 241 498 Z M 60 498 L 144 651 L 242 651 L 142 498 L 60 498 Z M 240 498 L 325 651 L 424 651 L 322 498 L 240 498 Z" unicode="ű" />
<glyph horiz-adv-x="672" d="M 77 0 L 77 0 Z M 595 730 L 595 250 C 595 208 588 170 574 138 C 560 105 542 78 518 56 C 494 34 467 18 435 7 C 403 -4 369 -10 333 -10 C 298 -10 265 -4 234 6 C 202 16 175 32 152 54 C 129 76 111 103 97 136 C 83 168 77 206 77 250 L 77 730 L 174 730 L 174 244 C 174 192 189 152 220 123 C 251 94 289 80 334 80 C 378 80 417 94 449 122 C 481 150 497 190 497 244 L 497 730 L 595 730 Z M 379 -9 L 379 -9 Z M 481 -96 L 508 -135 C 488 -155 465 -171 441 -182 C 416 -193 388 -199 358 -199 C 324 -199 297 -191 278 -177 C 258 -162 249 -143 249 -121 C 249 -96 260 -73 282 -51 C 304 -29 336 -11 378 4 L 427 4 C 399 -8 375 -22 357 -38 C 338 -53 329 -68 329 -84 C 329 -98 334 -110 345 -118 C 356 -126 370 -130 388 -130 C 407 -130 425 -126 441 -120 C 457 -114 470 -106 481 -96 Z" unicode="Ų" />
<glyph horiz-adv-x="486" d="M 52 0 L 52 0 Z M 52 436 L 143 436 L 143 152 C 143 123 151 101 168 87 C 184 72 206 65 234 65 C 262 65 287 73 307 91 C 327 108 338 136 338 175 L 338 436 L 430 436 L 430 0 L 340 0 L 340 71 C 329 47 311 27 286 13 C 260 0 231 -8 198 -8 C 156 -8 122 4 94 28 C 66 52 52 89 52 137 L 52 436 Z M 348 -9 L 348 -9 Z M 450 -96 L 477 -135 C 457 -155 434 -171 410 -182 C 385 -193 357 -199 327 -199 C 293 -199 266 -191 247 -177 C 227 -162 218 -143 218 -121 C 218 -96 229 -73 251 -51 C 273 -29 305 -11 347 4 L 396 4 C 368 -8 344 -22 326 -38 C 307 -53 298 -68 298 -84 C 298 -98 303 -110 314 -118 C 325 -126 339 -130 357 -130 C 376 -130 394 -126 410 -120 C 426 -114 439 -106 450 -96 Z" unicode="ų" />
<glyph horiz-adv-x="845" d="M 5 0 L 5 0 Z M 835 730 L 633 -7 L 575 -7 L 421 536 L 261 -7 L 203 -7 L 5 730 L 103 730 L 239 201 L 395 730 L 455 730 L 607 201 L 745 730 L 835 730 Z M 425 793 L 425 793 Z M 584 793 L 502 793 L 425 901 L 347 793 L 266 793 L 381 964 L 470 964 L 584 793 Z" unicode="Ŵ" />
<glyph horiz-adv-x="627" d="M 5 0 L 5 0 Z M 416 -3 L 314 271 L 210 -3 L 151 -3 L 5 436 L 98 436 L 191 135 L 289 401 L 346 401 L 442 135 L 537 436 L 622 436 L 475 -3 L 416 -3 Z M 314 499 L 314 499 Z M 473 499 L 391 499 L 314 607 L 236 499 L 155 499 L 270 670 L 359 670 L 473 499 Z" unicode="ŵ" />
<glyph horiz-adv-x="557" d="M 0 0 L 0 0 Z M 586 730 L 341 318 L 341 0 L 241 0 L 241 321 L 0 730 L 109 730 L 296 415 L 482 730 L 586 730 Z M 294 793 L 294 793 Z M 453 793 L 371 793 L 294 901 L 216 793 L 135 793 L 250 964 L 339 964 L 453 793 Z" unicode="Ŷ" />
<glyph horiz-adv-x="430" d="M 0 0 L 0 0 Z M 431 436 L 203 -96 C 184 -138 162 -165 136 -179 C 110 -193 85 -200 61 -200 C 47 -200 35 -198 25 -196 C 14 -193 6 -190 1 -188 L 27 -107 C 29 -108 34 -110 42 -112 C 50 -114 57 -116 65 -116 C 78 -116 90 -111 101 -102 C 112 -93 123 -77 134 -54 L 171 37 L -3 436 L 96 436 L 218 139 L 338 436 L 431 436 Z M 216 499 L 216 499 Z M 375 499 L 293 499 L 216 607 L 138 499 L 57 499 L 172 670 L 261 670 L 375 499 Z" unicode="ŷ" />
<glyph horiz-adv-x="586" d="M 0 0 L 0 0 Z M 586 730 L 341 318 L 341 0 L 241 0 L 241 321 L 0 730 L 109 730 L 296 415 L 482 730 L 586 730 Z M 294 793 L 294 793 Z M 418 793 L 341 793 L 341 951 L 418 951 L 418 793 Z M 245 793 L 168 793 L 168 951 L 245 951 L 245 793 Z" unicode="Ÿ" />
<glyph horiz-adv-x="513" d="M 15 0 L 15 0 Z M 500 730 L 500 685 L 149 90 L 512 90 L 512 0 L 15 0 L 15 43 L 366 639 L 46 639 L 46 730 L 500 730 Z M 268 792 L 268 792 Z M 165 792 L 264 958 L 372 958 L 257 792 L 165 792 Z" unicode="Ź" />
<glyph horiz-adv-x="366" d="M 11 0 L 11 0 Z M 349 436 L 349 392 L 144 81 L 354 81 L 354 0 L 11 0 L 11 30 L 225 355 L 24 355 L 24 436 L 349 436 Z M 187 498 L 187 498 Z M 84 498 L 183 664 L 291 664 L 176 498 L 84 498 Z" unicode="ź" />
<glyph horiz-adv-x="513" d="M 15 0 L 15 0 Z M 500 730 L 500 685 L 149 90 L 512 90 L 512 0 L 15 0 L 15 43 L 366 639 L 46 639 L 46 730 L 500 730 Z M 268 799 L 268 799 Z M 311 799 L 226 799 L 226 947 L 311 947 L 311 799 Z" unicode="Ż" />
<glyph horiz-adv-x="366" d="M 11 0 L 11 0 Z M 349 436 L 349 392 L 144 81 L 354 81 L 354 0 L 11 0 L 11 30 L 225 355 L 24 355 L 24 436 L 349 436 Z M 187 505 L 187 505 Z M 230 505 L 145 505 L 145 653 L 230 653 L 230 505 Z" unicode="ż" />
<glyph horiz-adv-x="535" d="M 15 0 L 15 0 Z M 500 730 L 500 685 L 149 90 L 512 90 L 512 0 L 15 0 L 15 43 L 366 639 L 46 639 L 46 730 L 500 730 Z M 268 793 L 268 793 Z M 109 964 L 192 964 L 269 856 L 347 964 L 427 964 L 313 793 L 224 793 L 109 964 Z" unicode="Ž" />
<glyph horiz-adv-x="366" d="M 11 0 L 11 0 Z M 349 436 L 349 392 L 144 81 L 354 81 L 354 0 L 11 0 L 11 30 L 225 355 L 24 355 L 24 436 L 349 436 Z M 187 499 L 187 499 Z M 28 670 L 111 670 L 188 562 L 266 670 L 346 670 L 232 499 L 143 499 L 28 670 Z" unicode="ž" />
<glyph horiz-adv-x="358" d="M 184 -60 C 181 -92 168 -119 145 -143 C 121 -167 92 -179 58 -179 C 40 -179 22 -177 6 -175 C -9 -172 -22 -169 -30 -165 L -21 -97 C -16 -97 -9 -98 0 -100 C 9 -102 18 -103 27 -103 C 47 -103 63 -96 77 -83 C 91 -69 99 -50 102 -26 L 134 330 L 43 330 L 43 407 L 140 407 L 160 628 C 162 646 167 663 175 677 C 183 691 192 702 204 712 C 216 721 228 728 242 733 C 256 738 269 741 282 741 C 295 741 308 740 321 739 C 334 738 342 737 345 737 L 338 656 C 336 656 332 657 326 658 C 320 658 314 659 308 659 C 289 659 273 652 261 640 C 249 627 242 607 240 581 L 225 407 L 329 407 L 329 330 L 218 330 L 184 -60 Z" unicode="ƒ" />
<glyph horiz-adv-x="470" d="M 21 0 L 21 0 Z M 244 -10 C 197 -10 155 -2 117 12 C 79 27 47 50 21 80 L 77 153 C 95 129 119 111 148 97 C 177 83 207 77 238 77 C 270 77 297 86 319 106 C 341 126 352 152 352 184 C 352 214 342 240 322 262 C 302 283 269 306 221 331 C 168 357 125 386 93 420 C 60 453 44 500 44 560 C 44 613 62 656 98 690 C 134 723 181 740 239 740 C 278 740 313 734 344 722 C 374 710 401 694 424 674 L 375 598 C 357 613 337 626 315 636 C 293 646 269 651 245 651 C 213 651 188 641 168 623 C 148 605 139 582 139 556 C 139 527 149 503 167 483 C 185 463 223 440 279 414 C 339 385 382 353 408 317 C 434 281 448 238 448 186 C 448 154 442 126 431 102 C 419 78 404 57 386 41 C 367 24 345 11 321 3 C 296 -5 270 -10 244 -10 Z M 218 -72 L 218 -72 Z M 309 -72 C 307 -94 302 -118 295 -142 C 288 -166 279 -189 269 -211 C 259 -233 247 -254 235 -273 C 222 -292 209 -308 197 -320 L 128 -288 C 135 -278 143 -266 152 -250 C 161 -234 170 -217 178 -198 C 186 -179 193 -159 199 -137 C 205 -115 210 -93 213 -72 L 309 -72 Z" unicode="Ș" />
<glyph horiz-adv-x="359" d="M 23 0 L 23 0 Z M 190 -10 C 152 -10 119 -4 91 6 C 63 16 41 31 23 49 L 69 112 C 83 98 100 86 121 78 C 142 70 164 66 187 66 C 205 66 221 70 233 80 C 245 89 251 102 251 119 C 251 134 243 147 228 157 C 213 167 189 178 157 190 C 118 203 88 220 66 240 C 44 260 34 288 34 323 C 34 359 48 388 76 411 C 104 434 138 446 180 446 C 210 446 238 441 262 431 C 286 421 306 411 321 399 L 275 340 C 265 346 251 353 234 360 C 217 367 199 371 181 371 C 164 371 149 367 136 361 C 123 354 117 344 117 330 C 117 318 122 307 132 299 C 142 291 165 280 201 267 C 244 251 277 232 299 212 C 321 192 333 163 333 125 C 333 83 319 50 291 26 C 263 2 230 -10 190 -10 Z M 170 -72 L 170 -72 Z M 261 -72 C 259 -94 254 -118 247 -142 C 240 -166 231 -189 221 -211 C 211 -233 199 -254 187 -273 C 174 -292 161 -308 149 -320 L 80 -288 C 87 -278 95 -266 104 -250 C 113 -234 122 -217 130 -198 C 138 -179 145 -159 151 -137 C 157 -115 162 -93 165 -72 L 261 -72 Z" unicode="ș" />
<glyph horiz-adv-x="482" d="M 9 0 L 9 0 Z M 473 640 L 289 640 L 289 0 L 189 0 L 189 640 L 9 640 L 9 730 L 473 730 L 473 640 Z M 216 -71 L 216 -71 Z M 307 -71 C 305 -93 300 -117 293 -141 C 286 -165 277 -188 267 -210 C 257 -232 245 -253 233 -272 C 220 -291 207 -307 195 -319 L 126 -287 C 133 -277 141 -265 150 -249 C 159 -233 168 -216 176 -197 C 184 -178 191 -158 197 -136 C 203 -114 208 -92 211 -71 L 307 -71 Z" unicode="Ț" />
<glyph horiz-adv-x="246" d="M 10 0 L 10 0 Z M 232 77 L 238 3 C 235 1 229 -1 219 -3 C 209 -5 198 -6 186 -6 C 172 -6 158 -4 144 -1 C 130 2 117 8 105 17 C 93 26 83 38 75 53 C 67 68 63 87 63 111 L 63 355 L 10 355 L 10 436 L 64 436 L 64 552 L 153 563 L 153 436 L 229 436 L 229 355 L 154 355 L 154 123 C 154 104 158 91 168 84 C 178 76 191 73 207 73 C 210 73 215 73 221 74 C 227 75 231 76 232 77 Z M 123 -71 L 123 -71 Z M 214 -71 C 212 -93 207 -117 200 -141 C 193 -165 184 -188 174 -210 C 164 -232 152 -253 140 -272 C 127 -291 114 -307 102 -319 L 33 -287 C 40 -277 48 -265 57 -249 C 66 -233 75 -216 83 -197 C 91 -178 98 -158 104 -136 C 110 -114 115 -92 118 -71 L 214 -71 Z" unicode="ț" />
<glyph horiz-adv-x="204" d="M 149 436 L 149 -79 C 149 -113 138 -142 117 -166 C 96 -190 67 -202 31 -202 C 21 -202 10 -201 -2 -199 C -14 -197 -23 -196 -29 -194 L -21 -119 C -18 -119 -14 -120 -8 -121 C -2 -121 3 -122 9 -122 C 22 -122 33 -117 43 -107 C 53 -97 58 -83 58 -65 L 58 436 L 149 436 Z" unicode="ȷ" />
<glyph horiz-adv-x="500" d="M 409 499 L 327 499 L 250 607 L 172 499 L 91 499 L 206 670 L 295 670 L 409 499 Z" unicode="ˆ" />
<glyph horiz-adv-x="500" d="M 91 670 L 174 670 L 251 562 L 329 670 L 409 670 L 295 499 L 206 499 L 91 670 Z" unicode="ˇ" />
<glyph horiz-adv-x="500" d="M 322 661 L 400 661 C 396 605 380 565 352 540 C 324 515 290 503 250 503 C 209 503 175 515 148 540 C 120 565 105 605 101 661 L 178 661 C 180 630 186 605 197 587 C 207 569 225 560 250 560 C 274 560 292 568 303 586 C 314 603 320 628 322 661 Z" unicode="˘" />
<glyph horiz-adv-x="500" d="M 293 505 L 208 505 L 208 653 L 293 653 L 293 505 Z" unicode="˙" />
<glyph horiz-adv-x="500" d="M 250 495 C 218 495 192 506 170 528 C 148 550 137 576 137 608 C 137 640 148 667 170 689 C 192 711 218 722 250 722 C 282 722 309 711 331 689 C 353 667 364 640 364 608 C 364 576 353 550 331 528 C 309 506 282 495 250 495 Z M 250 549 C 266 549 280 554 291 566 C 302 577 308 591 308 608 C 308 624 302 638 291 650 C 280 662 266 668 250 668 C 234 668 220 662 209 650 C 197 638 192 624 192 608 C 192 591 197 577 209 566 C 220 554 234 549 250 549 Z" unicode="˚" />
<glyph horiz-adv-x="500" d="M 359 -87 L 386 -126 C 366 -146 343 -162 319 -173 C 294 -184 266 -190 236 -190 C 202 -190 175 -182 156 -168 C 136 -153 127 -134 127 -112 C 127 -87 138 -64 160 -42 C 182 -20 214 -2 256 13 L 305 13 C 277 0 253 -13 235 -29 C 216 -44 207 -59 207 -75 C 207 -89 212 -101 223 -109 C 234 -117 248 -121 266 -121 C 285 -121 303 -117 319 -111 C 335 -105 348 -97 359 -87 Z" unicode="˛" />
<glyph horiz-adv-x="500" d="M 340 642 L 408 642 C 408 595 401 560 388 538 C 375 516 358 505 337 505 C 318 505 302 508 289 515 C 275 522 264 529 255 536 C 245 542 236 549 227 555 C 218 561 209 565 201 565 C 192 565 184 559 178 549 C 171 539 167 525 167 509 L 99 509 C 99 555 107 589 125 612 C 142 634 161 646 181 646 C 197 646 211 642 223 635 C 235 627 246 620 257 612 C 265 605 274 598 283 592 C 291 586 300 583 309 583 C 317 583 324 588 330 599 C 336 609 340 624 340 642 Z" unicode="˜" />
<glyph horiz-adv-x="500" d="M 83 498 L 167 651 L 265 651 L 165 498 L 83 498 Z M 263 498 L 348 651 L 447 651 L 345 498 L 263 498 Z" unicode="˝" />
<glyph horiz-adv-x="0" d="M 0 498 L 0 498 Z M 104 498 L 12 498 L -104 664 L 4 664 L 104 498 Z" unicode="̀" />
<glyph horiz-adv-x="0" d="M 0 498 L 0 498 Z M -103 498 L -4 664 L 104 664 L -11 498 L -103 498 Z" unicode="́" />
<glyph horiz-adv-x="0" d="M 0 499 L 0 499 Z M 159 499 L 77 499 L 0 607 L -78 499 L -159 499 L -44 670 L 45 670 L 159 499 Z" unicode="̂" />
<glyph horiz-adv-x="0" d="M 0 505 L 0 505 Z M 89 642 L 157 642 C 157 595 150 560 137 538 C 124 516 107 505 86 505 C 67 505 51 508 38 515 C 24 522 13 529 4 536 C -5 542 -14 549 -23 555 C -32 561 -41 565 -50 565 C -58 565 -66 559 -73 549 C -79 539 -83 525 -84 509 L -152 509 C -152 555 -143 589 -126 612 C -108 634 -90 646 -70 646 C -54 646 -40 642 -28 635 C -16 627 -4 620 6 612 C 14 605 23 598 32 592 C 40 586 49 583 58 583 C 66 583 73 588 79 599 C 85 609 89 624 89 642 Z" unicode="̃" />
<glyph horiz-adv-x="0" d="M 0 523 L 0 523 Z M 128 523 L -128 523 L -128 591 L 128 591 L 128 523 Z" unicode="̄" />
<glyph horiz-adv-x="0" d="M 0 503 L 0 503 Z M 72 661 L 150 661 C 146 605 130 565 102 540 C 74 515 40 503 0 503 C -40 503 -74 515 -102 540 C -129 565 -145 605 -149 661 L -72 661 C -70 630 -63 605 -53 587 C -42 569 -24 560 0 560 C 24 560 42 568 53 586 C 64 603 70 628 72 661 Z" unicode="̆" />
<glyph horiz-adv-x="0" d="M 0 505 L 0 505 Z M 43 505 L -42 505 L -42 653 L 43 653 L 43 505 Z" unicode="̇" />
<glyph horiz-adv-x="0" d="M 0 499 L 0 499 Z M 124 499 L 47 499 L 47 657 L 124 657 L 124 499 Z M -49 499 L -126 499 L -126 657 L -49 657 L -49 499 Z" unicode="̈" />
<glyph horiz-adv-x="0" d="M 0 495 L 0 495 Z M 0 495 C -31 495 -58 506 -80 528 C -102 550 -113 576 -113 608 C -113 640 -102 667 -80 689 C -58 711 -31 722 0 722 C 32 722 59 711 81 689 C 103 667 114 640 114 608 C 114 576 103 550 81 528 C 59 506 32 495 0 495 Z M 0 549 C 16 549 30 554 41 566 C 52 577 58 591 58 608 C 58 624 52 638 41 650 C 30 662 16 668 0 668 C -16 668 -29 662 -41 650 C -52 638 -58 624 -58 608 C -58 591 -52 577 -41 566 C -29 554 -16 549 0 549 Z" unicode="̊" />
<glyph horiz-adv-x="0" d="M 0 498 L 0 498 Z M -181 498 L -97 651 L 1 651 L -99 498 L -181 498 Z M -1 498 L 84 651 L 183 651 L 81 498 L -1 498 Z" unicode="̋" />
<glyph horiz-adv-x="0" d="M 0 499 L 0 499 Z M -159 670 L -76 670 L 1 562 L 79 670 L 159 670 L 45 499 L -44 499 L -159 670 Z" unicode="̌" />
<glyph horiz-adv-x="0" d="M 0 -71 L 0 -71 Z M 91 -71 C 89 -93 84 -117 77 -141 C 70 -165 61 -188 51 -210 C 41 -232 29 -253 17 -272 C 4 -291 -8 -307 -21 -319 L -90 -287 C -82 -277 -74 -265 -65 -249 C -56 -233 -48 -216 -40 -197 C -32 -178 -24 -158 -18 -136 C -12 -114 -7 -92 -5 -71 L 91 -71 Z" unicode="̦" />
<glyph horiz-adv-x="0" d="M 0 0 L 0 0 Z M 8 -187 C -15 -187 -39 -184 -63 -178 C -87 -172 -106 -164 -120 -155 L -108 -114 C -98 -119 -86 -124 -70 -130 C -54 -136 -37 -139 -19 -139 C -4 -139 8 -135 19 -129 C 29 -122 35 -113 35 -103 C 35 -90 30 -81 20 -76 C 10 -70 0 -68 -10 -68 C -18 -68 -24 -68 -30 -70 C -36 -71 -42 -73 -49 -75 L -64 -60 L -4 12 L 52 12 L 2 -50 C 35 -42 63 -45 86 -57 C 108 -69 120 -88 120 -112 C 120 -136 108 -155 86 -168 C 64 -180 38 -187 8 -187 Z" unicode="̧" />
<glyph horiz-adv-x="0" d="M 0 0 L 0 0 Z M 102 -87 L 129 -126 C 109 -146 86 -162 62 -173 C 37 -184 9 -190 -21 -190 C -55 -190 -81 -182 -101 -168 C -120 -153 -130 -134 -130 -112 C -130 -87 -119 -64 -97 -42 C -75 -20 -43 -2 -1 13 L 48 13 C 20 0 -3 -13 -22 -29 C -40 -44 -50 -59 -50 -75 C -50 -89 -44 -101 -33 -109 C -22 -117 -8 -121 9 -121 C 28 -121 46 -117 62 -111 C 78 -105 91 -97 102 -87 Z" unicode="̨" />
<glyph horiz-adv-x="563" d="M 1 0 L 1 0 Z M 610 0 L 1 0 L 291 730 L 320 730 L 610 0 Z M 484 76 L 303 551 L 123 76 L 484 76 Z" unicode="Δ" />
<glyph horiz-adv-x="724" d="M 40 0 L 40 0 Z M 49 0 L 49 85 L 252 85 L 252 157 C 219 169 189 185 163 205 C 137 225 115 247 97 272 C 79 297 65 324 55 354 C 45 383 40 413 40 445 C 40 487 47 526 63 563 C 79 599 101 631 130 658 C 159 685 194 706 236 722 C 277 738 323 746 375 746 C 428 746 476 738 519 722 C 561 706 597 684 627 657 C 656 630 678 598 694 562 C 710 525 718 486 718 445 C 718 381 700 324 665 272 C 629 220 576 181 505 157 L 505 85 L 708 85 L 708 0 L 426 0 L 426 203 C 486 223 532 255 566 299 C 599 343 616 390 616 440 C 616 473 610 504 598 532 C 586 560 569 584 548 604 C 526 624 501 639 472 651 C 442 662 410 668 376 668 C 342 668 310 662 282 651 C 253 639 228 623 207 603 C 186 583 170 558 158 530 C 146 502 141 471 141 438 C 141 389 157 343 190 300 C 222 256 270 224 332 203 L 332 0 L 49 0 Z" unicode="Ω" />
<glyph horiz-adv-x="589" d="M 69 0 L 69 0 Z M 69 -106 L 69 449 L 161 449 L 161 158 C 161 128 171 105 192 89 C 213 73 239 65 270 65 C 302 65 332 74 358 94 C 384 114 397 143 397 183 L 397 449 L 489 449 L 489 0 L 405 0 L 405 95 C 393 67 374 43 346 24 C 318 4 288 -5 254 -7 C 231 -7 210 -3 192 6 C 174 16 161 29 154 46 L 154 -106 L 69 -106 Z" unicode="μ" />
<glyph horiz-adv-x="596" d="M 181 440 L 181 0 L 90 0 L 90 440 L 15 440 L 15 512 L 581 512 L 581 440 L 502 440 L 502 0 L 410 0 L 410 440 L 181 440 Z" unicode="π" />
<glyph horiz-adv-x="845" d="M 5 0 L 5 0 Z M 835 730 L 633 -7 L 575 -7 L 421 536 L 261 -7 L 203 -7 L 5 730 L 103 730 L 239 201 L 395 730 L 455 730 L 607 201 L 745 730 L 835 730 Z M 425 792 L 425 792 Z M 529 792 L 437 792 L 321 958 L 429 958 L 529 792 Z" unicode="Ẁ" />
<glyph horiz-adv-x="627" d="M 5 0 L 5 0 Z M 416 -3 L 314 271 L 210 -3 L 151 -3 L 5 436 L 98 436 L 191 135 L 289 401 L 346 401 L 442 135 L 537 436 L 622 436 L 475 -3 L 416 -3 Z M 314 498 L 314 498 Z M 418 498 L 326 498 L 210 664 L 318 664 L 418 498 Z" unicode="ẁ" />
<glyph horiz-adv-x="845" d="M 5 0 L 5 0 Z M 835 730 L 633 -7 L 575 -7 L 421 536 L 261 -7 L 203 -7 L 5 730 L 103 730 L 239 201 L 395 730 L 455 730 L 607 201 L 745 730 L 835 730 Z M 425 792 L 425 792 Z M 322 792 L 421 958 L 529 958 L 414 792 L 322 792 Z" unicode="Ẃ" />
<glyph horiz-adv-x="627" d="M 5 0 L 5 0 Z M 416 -3 L 314 271 L 210 -3 L 151 -3 L 5 436 L 98 436 L 191 135 L 289 401 L 346 401 L 442 135 L 537 436 L 622 436 L 475 -3 L 416 -3 Z M 314 498 L 314 498 Z M 211 498 L 310 664 L 418 664 L 303 498 L 211 498 Z" unicode="ẃ" />
<glyph horiz-adv-x="845" d="M 5 0 L 5 0 Z M 835 730 L 633 -7 L 575 -7 L 421 536 L 261 -7 L 203 -7 L 5 730 L 103 730 L 239 201 L 395 730 L 455 730 L 607 201 L 745 730 L 835 730 Z M 425 793 L 425 793 Z M 549 793 L 472 793 L 472 951 L 549 951 L 549 793 Z M 376 793 L 299 793 L 299 951 L 376 951 L 376 793 Z" unicode="Ẅ" />
<glyph horiz-adv-x="627" d="M 5 0 L 5 0 Z M 416 -3 L 314 271 L 210 -3 L 151 -3 L 5 436 L 98 436 L 191 135 L 289 401 L 346 401 L 442 135 L 537 436 L 622 436 L 475 -3 L 416 -3 Z M 314 499 L 314 499 Z M 438 499 L 361 499 L 361 657 L 438 657 L 438 499 Z M 265 499 L 188 499 L 188 657 L 265 657 L 265 499 Z" unicode="ẅ" />
<glyph horiz-adv-x="557" d="M 0 0 L 0 0 Z M 586 730 L 341 318 L 341 0 L 241 0 L 241 321 L 0 730 L 109 730 L 296 415 L 482 730 L 586 730 Z M 294 792 L 294 792 Z M 398 792 L 306 792 L 190 958 L 298 958 L 398 792 Z" unicode="Ỳ" />
<glyph horiz-adv-x="430" d="M 0 0 L 0 0 Z M 431 436 L 203 -96 C 184 -138 162 -165 136 -179 C 110 -193 85 -200 61 -200 C 47 -200 35 -198 25 -196 C 14 -193 6 -190 1 -188 L 27 -107 C 29 -108 34 -110 42 -112 C 50 -114 57 -116 65 -116 C 78 -116 90 -111 101 -102 C 112 -93 123 -77 134 -54 L 171 37 L -3 436 L 96 436 L 218 139 L 338 436 L 431 436 Z M 216 498 L 216 498 Z M 320 498 L 228 498 L 112 664 L 220 664 L 320 498 Z" unicode="ỳ" />
<glyph horiz-adv-x="460" d="M 420 221 L 41 221 L 41 301 L 420 301 L 420 221 Z" unicode="–" />
<glyph horiz-adv-x="645" d="M 605 221 L 41 221 L 41 301 L 605 301 L 605 221 Z" unicode="—" />
<glyph horiz-adv-x="257" d="M 36 507 L 36 514 C 36 553 45 592 65 630 C 85 668 113 704 149 737 L 239 731 C 229 723 218 711 206 697 C 194 683 182 666 171 648 C 160 629 151 608 144 586 C 136 563 133 539 133 515 L 133 507 L 36 507 Z" unicode="‘" />
<glyph horiz-adv-x="257" d="M 221 737 L 221 730 C 221 691 211 653 191 615 C 171 577 143 541 109 507 L 18 513 C 28 522 39 534 51 549 C 63 563 74 580 85 598 C 96 616 105 637 113 659 C 120 681 124 704 124 729 L 124 737 L 221 737 Z" unicode="’" />
<glyph horiz-adv-x="258" d="M 221 112 L 221 105 C 221 66 211 28 191 -10 C 171 -48 143 -84 108 -118 L 18 -112 C 28 -102 39 -90 51 -76 C 63 -61 74 -44 85 -26 C 95 -8 104 12 112 34 C 119 56 123 79 123 104 L 123 112 L 221 112 Z" unicode="‚" />
<glyph horiz-adv-x="425" d="M 215 507 L 215 514 C 215 550 224 587 242 625 C 260 662 289 699 327 737 L 412 731 C 402 722 391 710 379 696 C 367 682 355 665 345 647 C 334 628 325 607 317 585 C 309 563 306 539 306 515 L 306 507 L 215 507 Z M 37 507 L 37 514 C 37 550 46 587 66 625 C 85 662 112 699 148 737 L 234 731 C 225 723 214 711 202 697 C 190 683 178 666 167 648 C 156 629 147 608 139 586 C 131 563 127 539 127 515 L 127 507 L 37 507 Z" unicode="“" />
<glyph horiz-adv-x="425" d="M 210 737 L 210 730 C 210 691 201 653 184 616 C 167 579 140 543 103 507 L 18 513 C 28 523 40 536 52 550 C 64 564 75 581 85 599 C 95 617 103 637 110 659 C 116 681 120 704 120 729 L 120 737 L 210 737 Z M 389 737 L 389 730 C 389 691 380 653 362 615 C 344 577 317 541 282 507 L 196 513 C 207 523 219 536 231 550 C 243 564 254 581 264 599 C 274 617 282 637 288 659 C 294 681 298 704 298 729 L 298 737 L 389 737 Z" unicode="”" />
<glyph horiz-adv-x="426" d="M 210 115 L 210 108 C 210 69 201 31 184 -5 C 167 -42 140 -79 103 -115 L 18 -109 C 28 -98 40 -85 52 -71 C 64 -57 75 -40 85 -22 C 95 -4 103 15 109 37 C 115 59 119 82 119 107 L 119 115 L 210 115 Z M 390 115 L 390 108 C 390 69 381 31 363 -6 C 345 -44 318 -80 283 -115 L 197 -109 C 208 -98 220 -85 232 -71 C 244 -57 255 -40 265 -22 C 275 -4 283 15 289 37 C 295 59 299 82 299 107 L 299 115 L 390 115 Z" unicode="„" />
<glyph horiz-adv-x="514" d="M 491 379 L 302 379 L 302 -179 L 206 -179 L 206 379 L 23 379 L 23 470 L 206 470 L 206 730 L 302 730 L 302 470 L 491 470 L 491 379 Z" unicode="†" />
<glyph horiz-adv-x="516" d="M 208 -179 L 208 103 L 28 103 L 28 194 L 208 194 L 208 374 L 28 374 L 28 465 L 208 465 L 208 730 L 304 730 L 304 465 L 488 465 L 488 374 L 304 374 L 304 194 L 488 194 L 488 103 L 304 103 L 304 -179 L 208 -179 Z" unicode="‡" />
<glyph horiz-adv-x="382" d="M 191 465 C 215 465 235 456 252 440 C 268 423 277 403 277 379 C 277 355 268 334 252 318 C 235 302 215 294 191 294 C 167 294 146 302 130 318 C 114 334 106 355 106 379 C 106 403 114 423 130 440 C 146 456 167 465 191 465 Z" unicode="•" />
<glyph horiz-adv-x="679" d="M 67 0 L 67 125 L 161 125 L 161 0 L 67 0 Z M 293 0 L 293 125 L 387 125 L 387 0 L 293 0 Z M 519 0 L 519 125 L 613 125 L 613 0 L 519 0 Z" unicode="…" />
<glyph horiz-adv-x="1070" d="M 189 363 C 171 363 154 366 136 374 C 118 382 102 393 88 409 C 74 425 62 444 53 468 C 44 492 40 519 40 551 C 40 577 43 601 51 624 C 59 647 69 667 83 684 C 96 701 112 715 130 725 C 148 735 167 740 188 740 C 210 740 231 735 249 725 C 267 715 283 701 296 685 C 309 668 319 648 327 626 C 334 603 338 579 338 554 C 338 527 334 502 326 479 C 318 455 308 435 295 418 C 281 400 265 387 247 377 C 229 367 209 363 189 363 Z M 119 0 L 536 730 L 604 730 L 187 0 L 119 0 Z M 123 551 C 123 517 128 489 140 467 C 152 445 168 434 188 434 C 212 434 229 445 240 468 C 251 490 257 518 257 551 C 257 582 251 609 241 633 C 231 657 214 669 191 669 C 168 669 151 657 140 634 C 128 610 123 583 123 551 Z M 545 -3 C 527 -3 509 0 491 8 C 473 16 458 27 444 43 C 430 59 418 78 410 102 C 401 126 397 153 397 185 C 397 211 400 236 408 259 C 416 282 426 302 439 319 C 452 336 468 349 487 359 C 505 369 525 374 547 374 C 569 374 590 369 608 359 C 626 349 642 335 655 319 C 668 302 678 282 685 260 C 692 237 696 213 696 188 C 696 161 692 136 685 113 C 677 89 667 69 654 52 C 640 34 624 21 606 11 C 587 1 567 -3 545 -3 Z M 879 -3 C 861 -3 844 0 826 8 C 808 16 792 27 778 43 C 764 59 752 78 744 102 C 735 126 731 153 731 185 C 731 211 734 236 742 259 C 750 282 760 302 774 319 C 787 336 803 349 821 359 C 839 369 859 374 881 374 C 903 374 924 369 942 359 C 960 349 976 335 989 319 C 1002 302 1012 282 1019 260 C 1026 237 1030 213 1030 188 C 1030 161 1026 136 1019 113 C 1011 89 1001 69 988 52 C 974 34 958 21 940 11 C 921 1 901 -3 879 -3 Z M 545 69 C 568 69 585 80 597 102 C 609 124 615 151 615 185 C 615 217 609 245 598 268 C 586 291 569 303 547 303 C 526 303 510 291 498 268 C 486 245 480 217 480 185 C 480 150 486 122 498 101 C 510 79 525 69 545 69 Z M 880 69 C 902 69 920 80 932 102 C 944 124 950 151 950 185 C 950 217 944 245 933 268 C 921 291 904 303 881 303 C 860 303 844 291 832 268 C 820 245 814 217 814 185 C 814 150 820 122 832 101 C 844 79 860 69 880 69 Z" unicode="‰" />
<glyph horiz-adv-x="238" d="M 209 77 L 28 244 L 28 309 L 209 474 L 209 378 L 108 274 L 209 175 L 209 77 Z" unicode="‹" />
<glyph horiz-adv-x="239" d="M 29 474 L 212 306 L 212 242 L 29 77 L 29 172 L 130 276 L 29 375 L 29 474 Z" unicode="›" />
<glyph horiz-adv-x="145" d="M 303 730 L -64 0 L -145 0 L 222 730 L 303 730 Z" unicode="⁄" />
<glyph horiz-adv-x="327" d="M 15 455 L 15 511 L 201 738 L 254 738 L 254 514 L 315 514 L 315 455 L 254 455 L 254 373 L 178 373 L 178 455 L 15 455 Z M 82 506 L 180 506 L 180 628 L 82 506 Z" unicode="⁴" />
<glyph horiz-adv-x="535" d="M 526 116 C 507 78 479 48 442 24 C 404 0 364 -12 320 -12 C 262 -12 211 11 168 59 C 125 106 97 171 83 254 L 34 254 L 34 328 L 76 328 C 75 333 75 338 75 344 C 75 350 75 356 75 362 C 75 366 75 370 75 374 C 75 378 75 382 75 386 L 34 386 L 34 461 L 82 461 C 88 501 97 539 110 574 C 123 608 139 638 159 663 C 179 687 202 707 229 721 C 255 735 285 742 319 742 C 373 742 416 730 448 707 C 480 683 503 656 518 626 L 448 584 C 435 606 419 624 399 640 C 379 656 352 664 320 664 C 280 664 247 646 221 612 C 194 577 176 527 168 461 L 468 461 L 468 386 L 162 386 C 162 382 162 379 162 375 C 162 371 162 367 162 363 C 162 357 162 351 162 345 C 162 339 162 333 163 328 L 468 328 L 468 254 L 171 254 C 181 191 201 144 229 112 C 257 80 289 65 323 65 C 355 65 382 74 405 94 C 427 113 445 136 458 162 L 526 116 Z" unicode="€" />
<glyph horiz-adv-x="877" d="M 824 313 L 741 313 L 741 594 L 612 398 L 587 398 L 459 593 L 459 313 L 379 313 L 379 730 L 464 730 L 600 522 L 736 730 L 824 730 L 824 313 Z M 350 641 L 230 641 L 230 313 L 142 313 L 142 641 L 20 641 L 20 730 L 350 730 L 350 641 Z" unicode="™" />
<glyph horiz-adv-x="758" d="M 49 0 L 49 85 L 252 85 L 252 157 C 219 169 189 185 163 205 C 137 225 115 247 97 272 C 79 297 65 324 55 354 C 45 383 40 413 40 445 C 40 487 47 526 63 563 C 79 599 101 631 130 658 C 159 685 194 706 236 722 C 277 738 323 746 375 746 C 428 746 476 738 519 722 C 561 706 597 684 627 657 C 656 630 678 598 694 562 C 710 525 718 486 718 445 C 718 381 700 324 665 272 C 629 220 576 181 505 157 L 505 85 L 708 85 L 708 0 L 426 0 L 426 203 C 486 223 532 255 566 299 C 599 343 616 390 616 440 C 616 473 610 504 598 532 C 586 560 569 584 548 604 C 526 624 501 639 472 651 C 442 662 410 668 376 668 C 342 668 310 662 282 651 C 253 639 228 623 207 603 C 186 583 170 558 158 530 C 146 502 141 471 141 438 C 141 389 157 343 190 300 C 222 256 270 224 332 203 L 332 0 L 49 0 Z" unicode="Ω" />
<glyph horiz-adv-x="521" d="M 479 275 C 479 225 473 182 461 146 C 449 110 432 80 412 57 C 391 34 367 17 339 6 C 311 -4 282 -10 252 -10 C 224 -10 196 -4 169 5 C 142 15 118 30 98 49 C 77 68 60 92 48 120 C 35 148 29 180 29 216 C 29 248 34 279 45 307 C 56 335 71 360 90 381 C 109 402 132 419 158 431 C 184 443 211 449 241 449 C 279 449 311 439 339 421 C 367 403 387 379 401 351 C 395 419 382 479 363 529 C 343 579 320 619 294 651 C 268 683 239 706 209 722 C 179 738 150 746 122 748 L 164 802 C 192 802 225 792 262 773 C 298 754 333 724 365 682 C 397 640 424 586 446 519 C 468 451 479 370 479 275 Z M 252 56 C 292 56 323 71 347 101 C 371 131 383 173 383 226 C 383 272 371 309 348 338 C 325 367 293 382 252 382 C 214 382 184 367 160 338 C 136 308 125 269 125 219 C 125 166 136 126 160 98 C 183 70 214 56 252 56 Z" unicode="∂" />
<glyph horiz-adv-x="611" d="M 610 0 L 1 0 L 291 730 L 320 730 L 610 0 Z M 484 76 L 303 551 L 123 76 L 484 76 Z" unicode="∆" />
<glyph horiz-adv-x="681" d="M 222 647 L 222 0 L 126 0 L 126 647 L 15 647 L 15 730 L 666 730 L 666 647 L 560 647 L 560 0 L 464 0 L 464 647 L 222 647 Z" unicode="∏" />
<glyph horiz-adv-x="589" d="M 171 647 L 409 307 L 138 -96 L 549 -96 L 549 -179 L -15 -179 L 315 306 L 15 730 L 528 730 L 528 647 L 171 647 Z" unicode="∑" />
<glyph horiz-adv-x="514" d="M 474 294 L 41 294 L 41 369 L 474 369 L 474 294 Z" unicode="−" />
<glyph horiz-adv-x="510" d="M 502 730 L 198 0 L 186 0 L 13 329 L 79 378 L 203 130 L 443 730 L 502 730 Z" unicode="√" />
<glyph horiz-adv-x="338" d="M 107 -27 L 165 628 C 168 664 182 692 207 712 C 231 731 256 741 282 741 C 295 741 308 740 321 739 C 334 738 342 737 345 737 L 338 656 C 336 656 332 657 326 658 C 320 658 314 659 308 659 C 289 659 273 652 261 640 C 249 627 242 607 240 581 L 184 -60 C 181 -92 168 -120 145 -144 C 121 -168 92 -179 58 -179 C 39 -179 22 -177 6 -173 C -10 -169 -22 -165 -30 -161 L -20 -96 C -16 -96 -9 -98 0 -101 C 9 -103 18 -105 27 -105 C 47 -105 64 -98 80 -84 C 95 -70 104 -51 107 -27 Z" unicode="∫" />
<glyph horiz-adv-x="490" d="M 364 499 L 448 499 C 447 451 439 412 425 382 C 411 352 387 337 355 337 C 333 337 314 341 297 349 C 279 357 265 367 253 378 C 240 388 226 398 212 406 C 197 414 183 418 169 418 C 156 418 143 410 130 396 C 117 382 111 363 111 340 L 37 340 C 37 390 46 429 66 457 C 85 485 110 500 141 500 C 161 500 179 495 195 487 C 211 478 225 469 238 460 C 249 452 261 444 275 437 C 288 430 301 427 315 427 C 332 427 344 432 352 444 C 360 456 364 474 364 499 Z M 366 322 L 448 322 C 447 274 438 235 422 205 C 405 175 380 161 346 161 C 323 161 303 165 287 173 C 271 181 257 191 246 201 C 234 211 221 219 207 227 C 193 234 180 238 168 238 C 156 238 143 231 131 218 C 119 204 113 186 113 164 L 37 164 C 37 213 46 252 66 281 C 86 309 113 324 147 324 C 169 324 189 319 206 310 C 223 301 237 292 249 282 C 259 273 271 265 284 259 C 296 252 309 249 321 249 C 337 249 348 255 355 267 C 362 279 366 297 366 322 Z" unicode="≈" />
<glyph horiz-adv-x="500" d="M 457 175 L 227 175 L 175 66 L 112 93 L 151 175 L 65 175 L 65 254 L 189 254 L 253 388 L 65 388 L 65 466 L 290 466 L 343 578 L 405 551 L 365 466 L 457 466 L 457 388 L 328 388 L 264 254 L 457 254 L 457 175 Z" unicode="≠" />
<glyph horiz-adv-x="500" d="M 62 295 L 62 355 L 433 558 L 433 471 L 152 327 L 433 180 L 433 93 L 62 295 Z M 61 84 L 433 84 L 433 14 L 61 14 L 61 84 Z" unicode="≤" />
<glyph horiz-adv-x="500" d="M 432 295 L 61 93 L 61 180 L 342 327 L 61 471 L 61 558 L 432 355 L 432 295 Z M 433 84 L 433 14 L 61 14 L 61 84 L 433 84 Z" unicode="≥" />
<glyph horiz-adv-x="533" d="M 504 326 L 272 -16 L 261 -16 L 30 326 L 30 337 L 261 678 L 272 678 L 504 337 L 504 326 Z M 417 327 L 417 336 L 271 556 L 263 556 L 117 336 L 117 327 L 263 106 L 271 106 L 417 327 Z" unicode="◊" />
<glyph horiz-adv-x="730" d="M 448 678 L 282 678 L 282 730 L 448 730 L 448 678 Z M 659 282 L 605 282 L 605 448 L 659 448 L 659 282 Z M 125 282 L 71 282 L 71 448 L 125 448 L 125 282 Z M 428 302 L 302 302 L 302 428 L 428 428 L 428 302 Z M 448 0 L 282 0 L 282 53 L 448 53 L 448 0 Z" unicode="" />
<glyph horiz-adv-x="502" d="M 285 363 L 187 363 L 187 0 L 95 0 L 95 363 L 17 363 L 17 436 L 95 436 L 95 558 C 95 592 100 621 111 647 C 121 673 135 694 152 711 C 168 728 187 741 209 749 C 230 757 251 762 272 762 C 288 762 303 760 317 757 C 331 754 341 751 349 748 L 341 672 C 336 674 329 676 319 678 C 309 680 298 682 288 682 C 263 682 240 671 218 649 C 196 627 186 597 186 560 L 186 436 L 285 436 L 285 363 Z M 446 533 L 350 533 L 350 626 L 446 626 L 446 533 Z M 443 0 L 352 0 L 352 436 L 443 436 L 443 0 Z" unicode="ﬁ" />
<glyph horiz-adv-x="495" d="M 187 363 L 187 0 L 95 0 L 95 363 L 17 363 L 17 436 L 95 436 L 95 548 C 95 582 100 612 111 638 C 121 664 135 685 152 703 C 168 720 187 733 209 742 C 230 751 251 756 272 756 C 288 756 303 754 317 752 C 330 749 340 746 347 743 L 347 750 L 439 750 L 439 0 L 347 0 L 347 723 L 341 666 C 336 668 329 671 319 673 C 309 675 298 676 288 676 C 263 676 240 664 218 641 C 196 617 186 587 186 551 L 186 436 L 285 436 L 285 363 L 187 363 Z" unicode="ﬂ" />
</font>
</defs>
</svg>
