<?xml version="1.0" encoding="utf-8" ?><svg version="1.1" xmlns = 'http://www.w3.org/2000/svg'><defs><font id='web' horiz-adv-x="1000">
<font-face font-family="web" descent="-200" cap-height="730" units-per-em="1000" bbox="-199,-328,1016,1020" x-height="436" ascent="800" />
<missing-glyph horiz-adv-x="500" d="" /><glyph horiz-adv-x="193" d="" unicode=" " />
<glyph horiz-adv-x="263" d="M 201 427 L 160 220 L 105 220 L 65 427 L 65 730 L 201 730 L 201 427 Z M 195 0 L 72 0 L 72 131 L 195 131 L 195 0 Z" unicode="!" />
<glyph horiz-adv-x="388" d="M 341 624 L 333 478 L 237 478 L 232 623 L 232 730 L 341 730 L 341 624 Z M 156 623 L 151 478 L 52 478 L 47 623 L 47 730 L 156 730 L 156 623 Z" unicode="&#x22;" />
<glyph horiz-adv-x="577" d="M 527 203 L 419 203 L 401 0 L 326 1 L 344 203 L 209 203 L 191 0 L 116 1 L 134 203 L 32 203 L 32 308 L 143 308 L 153 419 L 50 419 L 50 524 L 162 524 L 180 730 L 255 729 L 237 524 L 372 524 L 390 730 L 465 729 L 447 524 L 545 524 L 545 419 L 438 419 L 428 308 L 527 308 L 527 203 Z M 218 308 L 353 308 L 363 419 L 228 419 L 218 308 Z" unicode="#" />
<glyph horiz-adv-x="490" d="M 458 192 C 458 138 441 94 407 61 C 373 28 331 8 283 1 L 283 -128 L 208 -128 L 208 -1 C 169 1 134 10 102 24 C 70 38 43 59 20 85 L 75 167 C 93 145 118 129 148 117 C 178 105 206 99 234 99 C 262 99 288 106 311 122 C 334 138 346 162 346 195 C 346 222 336 245 318 264 C 299 282 262 305 208 332 C 154 358 113 388 84 421 C 54 454 40 498 40 552 C 40 598 56 638 88 670 C 120 702 160 722 208 729 L 208 792 L 283 792 L 283 730 C 315 727 344 719 370 707 C 396 695 419 679 439 659 L 376 580 C 358 596 337 609 315 618 C 292 627 270 632 250 632 C 224 632 202 624 183 609 C 164 594 155 574 155 548 C 155 522 163 501 181 484 C 198 467 233 445 287 418 C 348 386 392 354 418 322 C 444 290 458 246 458 192 Z" unicode="$" />
<glyph horiz-adv-x="717" d="M 181 363 C 163 363 146 366 128 374 C 110 382 95 393 81 409 C 67 425 55 444 46 468 C 37 492 33 519 33 551 C 33 577 36 602 44 625 C 52 648 62 668 75 685 C 88 702 103 715 121 725 C 139 735 158 740 178 740 C 200 740 220 735 239 725 C 257 715 273 701 287 685 C 300 668 310 648 318 626 C 325 603 329 579 329 554 C 329 527 325 502 317 479 C 309 455 298 435 285 418 C 271 400 256 387 238 377 C 220 367 201 363 181 363 Z M 186 0 L 107 0 L 517 730 L 595 730 L 186 0 Z M 181 451 C 199 451 212 461 219 481 C 225 501 229 524 229 551 C 229 577 225 600 219 620 C 212 640 200 651 182 651 C 164 651 152 641 145 621 C 138 601 135 577 135 551 C 135 523 138 500 145 480 C 151 460 163 451 181 451 Z M 534 -3 C 516 -3 499 0 481 8 C 463 16 447 27 433 43 C 419 59 407 78 399 102 C 390 126 386 153 386 185 C 386 211 389 236 397 259 C 405 282 415 302 429 319 C 442 336 458 349 477 359 C 495 369 515 374 537 374 C 559 374 580 369 598 359 C 616 349 632 335 645 319 C 657 302 667 282 674 260 C 681 237 685 213 685 188 C 685 161 681 136 674 113 C 666 89 656 69 643 52 C 629 34 613 21 595 11 C 576 1 556 -3 534 -3 Z M 534 87 C 552 87 565 96 573 115 C 581 133 585 157 585 185 C 585 212 581 235 573 255 C 565 275 553 285 536 285 C 520 285 508 275 500 256 C 492 236 488 213 488 185 C 488 156 491 132 499 114 C 507 96 518 87 534 87 Z" unicode="%" />
<glyph horiz-adv-x="664" d="M 575 -6 L 501 72 C 468 45 432 25 394 12 C 356 -1 314 -8 269 -8 C 193 -8 133 9 89 44 C 45 78 23 126 23 188 C 23 217 27 243 36 265 C 44 287 56 306 71 323 C 85 339 102 354 122 367 C 142 380 163 393 185 406 L 185 406 C 177 414 168 425 158 437 C 148 449 138 462 130 476 C 121 490 114 506 108 524 C 102 541 100 559 100 579 C 100 599 104 618 112 637 C 120 656 132 673 148 688 C 164 702 183 714 207 723 C 230 732 256 737 286 737 C 340 737 385 722 421 692 C 456 662 474 627 474 587 C 474 547 462 511 439 481 C 416 451 385 422 345 394 L 507 229 C 516 241 525 255 535 270 C 545 284 554 300 564 317 L 649 256 C 638 237 627 219 615 202 C 603 184 592 168 581 154 L 657 76 L 575 -6 Z M 272 468 L 279 461 C 307 480 328 498 340 516 C 352 533 359 551 359 569 C 359 587 353 604 341 620 C 329 636 312 644 288 644 C 265 644 248 636 237 621 C 225 605 220 589 220 573 C 220 556 224 538 233 520 C 241 502 254 484 272 468 Z M 156 193 C 156 161 168 137 194 119 C 220 101 250 93 284 93 C 311 93 337 97 361 107 C 385 116 408 129 430 147 L 252 335 C 222 315 198 294 181 272 C 164 250 156 224 156 193 Z" unicode="&#x26;" />
<glyph horiz-adv-x="205" d="M 159 621 L 154 473 L 52 473 L 46 621 L 46 730 L 159 730 L 159 621 Z" unicode="'" />
<glyph horiz-adv-x="306" d="M 289 -91 L 289 -179 C 255 -163 222 -140 190 -112 C 157 -84 128 -50 103 -10 C 78 29 58 74 43 126 C 27 177 20 233 20 293 C 20 351 27 405 41 455 C 55 505 75 549 99 587 C 123 625 152 658 185 686 C 218 713 253 734 289 749 L 289 663 C 246 636 211 593 185 533 C 158 473 144 393 144 293 C 144 203 156 126 180 61 C 204 -4 241 -55 289 -91 Z" unicode="(" />
<glyph horiz-adv-x="306" d="M 16 663 L 16 749 C 51 735 85 715 118 689 C 150 662 179 629 204 590 C 228 551 248 506 263 455 C 277 404 285 348 285 286 C 285 227 277 173 262 123 C 246 73 226 28 201 -11 C 176 -50 147 -84 115 -112 C 83 -140 50 -163 16 -179 L 16 -89 C 63 -55 100 -6 126 57 C 152 120 166 196 166 286 C 166 388 152 469 124 531 C 96 592 60 636 16 663 Z" unicode=")" />
<glyph horiz-adv-x="383" d="M 358 587 L 239 551 L 322 463 L 266 416 L 194 518 L 123 417 L 64 461 L 149 552 L 28 584 L 62 659 L 166 605 L 155 730 L 233 730 L 221 605 L 329 655 L 358 587 Z" unicode="*" />
<glyph horiz-adv-x="481" d="M 455 285 L 289 285 L 289 121 L 192 121 L 192 285 L 27 285 L 27 377 L 192 377 L 192 541 L 289 541 L 289 377 L 455 377 L 455 285 Z" unicode="+" />
<glyph horiz-adv-x="233" d="M 203 113 C 202 90 198 65 191 39 C 183 13 174 -12 164 -36 C 154 -60 142 -81 130 -101 C 117 -121 105 -135 95 -145 L 4 -105 C 11 -95 19 -83 27 -67 C 35 -51 43 -33 50 -14 C 57 5 63 26 69 48 C 74 70 77 91 79 113 L 203 113 Z" unicode="," />
<glyph horiz-adv-x="331" d="M 295 212 L 36 212 L 36 321 L 295 321 L 295 212 Z" unicode="-" />
<glyph horiz-adv-x="235" d="M 180 0 L 56 0 L 56 140 L 180 140 L 180 0 Z" unicode="." />
<glyph horiz-adv-x="324" d="M 325 730 L 109 0 L -1 0 L 216 730 L 325 730 Z" unicode="/" />
<glyph horiz-adv-x="490" d="M 242 -9 C 179 -9 128 19 88 75 C 48 131 28 227 28 361 C 28 417 32 469 41 516 C 49 562 62 602 80 635 C 98 667 120 693 148 711 C 176 729 208 739 246 739 C 284 739 317 730 345 712 C 372 694 394 670 411 638 C 428 606 441 568 449 522 C 457 476 461 426 461 371 C 461 250 443 156 407 90 C 371 24 316 -9 242 -9 Z M 243 93 C 277 93 301 114 317 156 C 332 198 340 266 340 360 C 340 453 333 522 319 567 C 305 612 281 635 245 635 C 210 635 185 613 171 571 C 156 529 149 459 149 362 C 149 263 157 193 173 153 C 189 113 212 93 243 93 Z" unicode="0" />
<glyph horiz-adv-x="330" d="M 270 0 L 146 0 L 146 555 C 133 536 115 520 91 506 C 67 492 47 484 29 483 L 29 608 C 53 609 79 622 106 648 C 133 673 155 701 172 733 L 270 733 L 270 0 Z" unicode="1" />
<glyph horiz-adv-x="473" d="M 444 0 L 19 0 L 19 36 L 258 365 C 278 394 294 423 305 452 C 316 481 322 510 322 540 C 322 567 313 589 297 606 C 280 623 256 632 226 632 C 192 632 167 620 152 598 C 137 576 130 547 130 513 L 23 513 C 23 588 41 644 79 682 C 117 720 167 739 230 739 C 290 739 340 722 380 690 C 419 658 439 611 439 549 C 439 495 430 451 414 417 C 398 383 379 351 359 323 L 197 105 L 444 105 L 444 0 Z" unicode="2" />
<glyph horiz-adv-x="466" d="M 214 -9 C 162 -9 119 0 85 16 C 51 32 24 52 5 74 L 62 156 C 76 141 95 127 117 114 C 139 100 166 94 199 94 C 221 94 241 97 258 105 C 275 113 289 123 300 135 C 310 147 318 162 324 178 C 329 194 332 210 332 228 C 332 268 318 297 292 316 C 266 334 236 344 203 344 L 117 344 L 117 449 L 204 449 C 234 449 260 457 282 474 C 303 491 314 515 314 545 C 314 569 306 589 291 607 C 275 625 252 634 222 634 C 190 634 164 627 144 615 C 124 602 106 586 92 568 L 25 641 C 32 651 42 662 54 674 C 66 686 80 696 97 706 C 114 716 134 724 156 730 C 178 736 204 739 232 739 C 290 739 337 723 372 693 C 406 662 424 620 424 566 C 424 542 420 521 413 502 C 406 483 397 467 387 453 C 376 439 364 428 351 419 C 338 410 326 404 314 400 C 348 390 378 370 406 340 C 433 309 447 269 447 219 C 447 193 443 166 435 139 C 427 112 414 88 396 66 C 378 44 354 26 324 12 C 294 -2 258 -9 214 -9 Z" unicode="3" />
<glyph horiz-adv-x="477" d="M 472 182 L 391 182 L 391 0 L 283 0 L 283 182 L 7 182 L 7 260 L 315 737 L 391 737 L 391 284 L 472 284 L 472 182 Z M 284 283 L 284 522 L 131 283 L 284 283 Z" unicode="4" />
<glyph horiz-adv-x="466" d="M 228 -9 C 178 -9 133 0 95 18 C 56 36 27 56 8 79 L 75 162 C 89 143 108 127 132 114 C 156 101 183 95 215 95 C 251 95 280 108 300 136 C 320 164 331 200 331 246 C 331 288 321 322 302 346 C 282 370 257 382 227 382 C 197 382 174 376 157 364 C 140 352 127 335 118 315 L 37 333 L 67 730 L 407 730 L 407 623 L 157 623 L 143 432 C 151 445 165 457 185 468 C 205 479 231 485 264 485 C 320 485 365 465 399 427 C 433 388 451 331 451 256 C 451 213 445 175 433 142 C 421 109 406 81 386 59 C 366 37 342 20 315 8 C 288 -3 259 -9 228 -9 Z" unicode="5" />
<glyph horiz-adv-x="469" d="M 246 -9 C 214 -9 185 -3 158 7 C 130 17 107 33 87 54 C 67 74 52 100 41 130 C 30 160 25 194 25 233 C 25 311 42 383 77 451 C 112 518 156 586 209 656 L 276 747 L 365 691 L 324 636 C 281 579 245 529 216 486 C 187 442 168 408 158 384 C 167 398 181 411 199 423 C 217 434 241 440 269 440 C 321 440 365 420 400 380 C 435 340 453 286 453 219 C 453 186 447 156 437 128 C 427 100 413 76 395 56 C 377 36 355 20 330 8 C 304 -3 276 -9 246 -9 Z M 245 92 C 273 92 295 102 312 124 C 328 146 337 176 337 216 C 337 259 328 291 312 311 C 296 331 273 342 245 342 C 218 342 195 332 176 312 C 157 292 148 262 148 221 C 148 176 157 143 175 123 C 193 102 217 92 245 92 Z" unicode="6" />
<glyph horiz-adv-x="409" d="M 414 730 L 417 683 L 133 -7 L 31 36 L 275 623 L 12 623 L 12 730 L 414 730 Z" unicode="7" />
<glyph horiz-adv-x="485" d="M 340 390 C 354 386 368 379 383 370 C 397 360 411 348 423 333 C 435 318 444 300 452 279 C 460 257 464 232 464 204 C 464 140 444 88 405 49 C 365 10 311 -9 241 -9 C 173 -9 120 9 81 47 C 42 84 23 135 23 199 C 23 228 27 254 35 277 C 43 299 54 318 66 334 C 78 349 92 361 106 371 C 120 380 134 386 146 389 C 134 393 122 399 110 407 C 98 415 87 426 77 440 C 67 453 58 469 52 488 C 45 507 42 529 42 555 C 42 584 47 610 58 633 C 68 655 83 674 101 690 C 119 706 140 718 164 726 C 188 734 214 739 242 739 C 304 739 353 722 389 688 C 425 654 444 612 444 562 C 444 537 440 515 434 496 C 428 476 420 460 410 446 C 400 432 388 420 376 411 C 364 401 352 394 340 390 Z M 243 433 C 269 433 291 441 308 458 C 324 475 333 501 333 535 C 333 569 324 595 308 612 C 291 629 269 638 243 638 C 216 638 194 629 177 612 C 159 595 151 570 151 536 C 151 498 160 472 179 456 C 198 440 219 433 243 433 Z M 244 91 C 275 91 300 101 319 121 C 337 141 347 172 347 215 C 347 255 337 284 317 304 C 297 323 272 333 244 333 C 213 333 188 323 168 304 C 148 284 138 254 138 212 C 138 172 148 141 168 121 C 188 101 214 91 244 91 Z" unicode="8" />
<glyph horiz-adv-x="469" d="M 201 -12 L 113 48 L 147 93 C 164 115 182 138 200 163 C 218 188 236 213 252 237 C 268 261 283 283 295 305 C 307 327 316 345 321 360 C 309 341 292 325 268 312 C 244 298 218 292 192 292 C 140 292 97 313 64 355 C 31 397 15 450 15 515 C 15 547 20 577 31 605 C 41 633 56 656 75 676 C 94 696 117 711 143 723 C 169 734 197 740 228 740 C 257 740 285 734 311 724 C 337 714 359 698 379 678 C 399 658 414 632 426 601 C 438 570 444 534 444 494 C 444 453 438 413 428 374 C 418 335 404 298 387 262 C 370 226 351 192 329 160 C 307 127 285 96 263 68 L 201 -12 Z M 224 392 C 248 392 271 401 291 421 C 311 440 322 471 322 513 C 322 557 312 588 294 608 C 275 628 253 638 227 638 C 198 638 175 627 158 606 C 141 585 133 556 133 518 C 133 475 141 443 157 423 C 173 402 195 392 224 392 Z" unicode="9" />
<glyph horiz-adv-x="235" d="M 179 300 L 56 300 L 56 436 L 179 436 L 179 300 Z M 179 0 L 56 0 L 56 137 L 179 137 L 179 0 Z" unicode=":" />
<glyph horiz-adv-x="235" d="M 187 300 L 65 300 L 65 436 L 187 436 L 187 300 Z M 189 110 C 187 84 183 58 176 32 C 169 6 161 -18 151 -41 C 141 -64 131 -85 119 -103 C 107 -121 96 -135 85 -145 L -5 -105 C 2 -95 10 -83 19 -67 C 28 -51 36 -34 44 -15 C 51 3 57 23 62 45 C 67 67 70 88 70 110 L 189 110 Z" unicode=";" />
<glyph horiz-adv-x="368" d="M 323 95 L 37 285 L 37 363 L 323 553 L 323 438 L 156 325 L 323 211 L 323 95 Z" unicode="&#x3C;" />
<glyph horiz-adv-x="485" d="M 431 382 L 54 382 L 54 486 L 431 486 L 431 382 Z M 431 163 L 54 163 L 54 267 L 431 267 L 431 163 Z" unicode="=" />
<glyph horiz-adv-x="368" d="M 330 285 L 44 95 L 44 211 L 209 325 L 44 439 L 44 553 L 330 363 L 330 285 Z" unicode="&#x3E;" />
<glyph horiz-adv-x="443" d="M 150 218 C 150 254 156 286 168 314 C 180 342 197 369 220 396 C 237 417 253 439 269 463 C 285 486 293 513 293 545 C 293 573 283 596 265 612 C 247 628 224 636 198 636 C 173 636 151 629 133 616 C 115 603 100 587 88 568 L 14 640 C 39 674 70 700 108 717 C 146 733 184 742 223 742 C 287 742 335 725 369 691 C 403 657 420 613 420 560 C 420 510 408 468 386 435 C 363 401 339 369 313 338 C 296 321 284 301 278 279 C 271 257 267 236 267 218 L 150 218 Z M 144 0 L 144 132 L 277 132 L 277 0 L 144 0 Z" unicode="?" />
<glyph horiz-adv-x="824" d="M 405 -46 C 349 -46 299 -36 253 -16 C 207 4 168 31 136 65 C 104 99 79 139 61 185 C 43 231 34 281 34 333 C 34 385 43 435 61 481 C 79 527 105 568 138 602 C 171 636 211 662 257 682 C 303 702 354 712 410 712 C 467 712 519 703 566 687 C 612 670 652 647 685 617 C 717 587 743 550 761 507 C 779 464 788 417 788 365 C 788 320 782 282 771 251 C 760 219 746 194 730 175 C 714 155 696 141 677 133 C 657 124 639 120 623 120 C 593 120 568 126 548 139 C 528 152 515 169 509 191 C 498 174 480 158 455 143 C 429 127 398 120 362 120 C 310 120 272 132 248 158 C 224 184 212 216 212 254 C 212 276 217 296 228 314 C 238 332 253 347 271 359 C 289 371 311 381 335 387 C 359 393 385 397 413 397 L 496 397 L 496 405 C 496 431 489 450 475 461 C 461 472 439 478 409 478 C 384 478 361 474 341 468 C 320 461 303 455 289 449 L 256 526 C 274 535 297 543 325 549 C 352 555 380 559 409 559 C 464 559 508 546 541 520 C 573 494 590 451 590 391 L 590 245 C 590 233 592 222 598 212 C 604 202 615 198 632 198 C 647 198 663 208 681 230 C 699 251 708 294 708 360 C 708 400 701 438 687 472 C 673 506 654 535 628 559 C 602 583 571 601 534 615 C 497 629 456 636 410 636 C 366 636 325 628 289 612 C 253 596 222 575 196 548 C 170 520 151 488 137 452 C 123 415 116 376 116 334 C 116 292 123 253 137 216 C 151 179 170 147 196 119 C 222 91 253 69 289 53 C 325 37 364 29 408 29 C 428 29 448 30 468 34 C 488 38 509 45 531 56 L 561 -12 C 533 -24 507 -33 482 -38 C 456 -43 431 -46 405 -46 Z M 386 202 C 410 202 433 207 455 217 C 476 227 489 237 495 247 L 495 323 L 411 323 C 379 323 356 317 341 307 C 326 297 319 282 319 264 C 319 244 324 229 336 218 C 348 207 364 202 386 202 Z" unicode="@" />
<glyph horiz-adv-x="552" d="M 553 0 L 425 0 L 376 155 L 169 155 L 122 0 L -1 0 L 235 733 L 320 733 L 553 0 Z M 351 260 L 273 504 L 195 260 L 351 260 Z" unicode="A" />
<glyph horiz-adv-x="520" d="M 63 0 L 63 730 L 279 730 C 333 730 379 714 415 683 C 451 652 470 610 470 556 C 470 505 457 465 433 437 C 408 409 380 391 348 385 C 365 383 382 378 400 370 C 418 362 434 350 448 336 C 462 321 474 303 483 282 C 492 260 497 235 497 207 C 497 175 491 146 481 120 C 470 94 455 73 436 55 C 417 37 395 24 369 14 C 343 4 315 0 285 0 L 63 0 Z M 187 425 L 251 425 C 285 425 309 435 323 457 C 337 479 344 503 344 529 C 344 556 336 578 321 595 C 305 612 281 621 247 621 L 187 621 L 187 425 Z M 187 109 L 269 109 C 305 109 330 119 346 139 C 361 159 369 185 369 215 C 369 250 359 276 339 294 C 319 311 293 320 259 320 L 187 320 L 187 109 Z" unicode="B" />
<glyph horiz-adv-x="562" d="M 317 -9 C 276 -9 238 -1 204 15 C 169 31 139 54 114 86 C 89 117 69 156 55 203 C 41 250 34 304 34 366 C 34 422 40 474 54 520 C 67 566 86 605 110 637 C 134 669 164 694 200 712 C 236 730 276 739 320 739 C 386 739 436 726 471 700 C 505 674 532 642 551 605 L 451 546 C 439 566 423 584 403 600 C 383 615 356 623 324 623 C 274 623 235 602 207 560 C 179 518 165 452 165 361 C 165 313 169 272 179 240 C 188 207 200 181 216 161 C 231 141 249 127 269 119 C 289 110 309 106 330 106 C 364 106 392 113 413 127 C 434 141 451 161 465 185 L 557 134 C 535 90 505 56 466 30 C 426 4 377 -9 317 -9 Z" unicode="C" />
<glyph horiz-adv-x="614" d="M 63 0 L 63 730 L 261 730 C 312 730 357 721 397 703 C 437 685 470 661 497 629 C 524 597 545 559 559 514 C 573 469 580 420 580 366 C 580 314 573 266 559 222 C 545 177 525 138 497 106 C 469 73 435 47 393 28 C 351 9 303 0 249 0 L 63 0 Z M 192 110 L 253 110 C 322 110 372 133 402 180 C 432 226 447 287 447 363 C 447 448 430 512 398 554 C 365 596 320 618 262 618 L 192 618 L 192 110 Z" unicode="D" />
<glyph horiz-adv-x="466" d="M 444 0 L 63 0 L 63 730 L 425 730 L 425 615 L 190 615 L 190 420 L 413 420 L 413 306 L 190 306 L 190 115 L 444 115 L 444 0 Z" unicode="E" />
<glyph horiz-adv-x="415" d="M 399 615 L 193 615 L 193 419 L 387 419 L 387 304 L 193 304 L 193 0 L 63 0 L 63 730 L 399 730 L 399 615 Z" unicode="F" />
<glyph horiz-adv-x="605" d="M 322 377 L 578 377 L 578 127 C 557 87 525 55 483 29 C 440 3 386 -9 321 -9 C 281 -9 243 0 208 16 C 173 33 143 58 117 90 C 91 122 71 161 56 208 C 41 254 34 307 34 365 C 34 421 41 473 55 519 C 69 565 89 605 115 637 C 141 669 171 694 207 712 C 243 729 282 738 324 738 C 388 738 438 724 472 698 C 506 671 531 641 547 607 L 447 554 C 436 572 421 588 402 603 C 383 617 357 625 323 625 C 276 625 238 603 208 560 C 178 516 164 451 164 364 C 164 276 179 210 210 166 C 241 121 281 99 329 99 C 361 99 389 104 411 116 C 433 128 451 143 463 162 L 463 266 L 322 266 L 322 377 Z" unicode="G" />
<glyph horiz-adv-x="612" d="M 549 0 L 419 0 L 419 301 L 193 301 L 193 0 L 63 0 L 63 730 L 193 730 L 193 419 L 419 419 L 419 730 L 549 730 L 549 0 Z" unicode="H" />
<glyph horiz-adv-x="264" d="M 198 0 L 67 0 L 67 730 L 198 730 L 198 0 Z" unicode="I" />
<glyph horiz-adv-x="323" d="M 269 730 L 269 188 C 269 132 252 85 220 47 C 188 9 143 -9 87 -9 C 72 -9 57 -8 42 -6 C 26 -4 15 -2 7 0 L 7 116 C 12 113 21 111 33 110 C 45 108 55 108 64 108 C 89 108 108 117 122 136 C 136 155 143 178 143 206 L 143 730 L 269 730 Z" unicode="J" />
<glyph horiz-adv-x="579" d="M 588 0 L 436 0 L 228 301 L 193 259 L 193 0 L 63 0 L 63 730 L 193 730 L 193 414 L 421 730 L 565 730 L 315 393 L 588 0 Z" unicode="K" />
<glyph horiz-adv-x="411" d="M 404 0 L 63 0 L 63 730 L 193 730 L 193 115 L 404 115 L 404 0 Z" unicode="L" />
<glyph horiz-adv-x="744" d="M 681 0 L 558 0 L 558 451 L 398 134 L 345 134 L 186 449 L 186 0 L 63 0 L 63 730 L 162 730 L 374 328 L 588 730 L 681 730 L 681 0 Z" unicode="M" />
<glyph horiz-adv-x="612" d="M 550 0 L 460 0 L 185 457 L 185 0 L 63 0 L 63 730 L 156 730 L 431 278 L 431 730 L 550 730 L 550 0 Z" unicode="N" />
<glyph horiz-adv-x="657" d="M 331 -9 C 235 -9 162 24 111 92 C 59 159 34 252 34 371 C 34 426 41 476 55 522 C 69 568 88 606 114 638 C 139 670 170 694 206 712 C 242 730 281 739 325 739 C 418 739 491 706 544 641 C 596 575 623 484 623 366 C 623 308 615 256 601 210 C 586 163 566 123 540 91 C 514 59 484 34 448 17 C 412 0 373 -9 331 -9 Z M 329 104 C 379 104 418 125 447 169 C 476 212 491 279 491 371 C 491 455 476 519 446 561 C 416 603 377 625 327 625 C 277 625 237 604 209 563 C 181 521 167 455 167 365 C 167 273 182 207 212 166 C 242 124 281 104 329 104 Z" unicode="O" />
<glyph horiz-adv-x="507" d="M 63 0 L 63 730 L 286 730 C 344 730 392 710 431 671 C 470 632 490 579 490 513 C 490 479 485 448 475 420 C 465 392 451 368 433 348 C 415 328 393 312 368 301 C 342 289 315 284 285 284 L 193 284 L 193 0 L 63 0 Z M 192 393 L 255 393 C 289 393 315 402 334 422 C 352 442 362 472 362 512 C 362 548 351 576 330 594 C 308 612 282 622 251 622 L 192 622 L 192 393 Z" unicode="P" />
<glyph horiz-adv-x="654" d="M 575 -51 L 575 -165 C 521 -158 471 -139 426 -109 C 380 -79 345 -44 321 -5 C 229 -2 159 31 109 97 C 59 163 34 254 34 371 C 34 426 41 476 55 522 C 69 568 89 606 115 638 C 140 670 171 694 207 712 C 243 730 282 739 325 739 C 417 739 489 706 543 641 C 596 575 623 483 623 365 C 623 278 606 204 573 144 C 540 84 496 41 441 17 C 458 -1 479 -17 504 -29 C 528 -41 552 -48 575 -51 Z M 329 99 C 378 99 417 121 447 167 C 476 212 491 280 491 371 C 491 461 475 527 444 567 C 412 607 373 628 327 628 C 277 628 237 607 209 566 C 181 525 167 458 167 365 C 167 275 181 208 211 164 C 240 120 279 99 329 99 Z" unicode="Q" />
<glyph horiz-adv-x="531" d="M 63 0 L 63 730 L 264 730 C 322 730 370 713 408 679 C 446 645 466 596 466 530 C 466 474 453 428 428 392 C 403 356 373 334 337 328 L 333 324 L 529 0 L 389 0 L 216 291 L 185 291 L 185 0 L 63 0 Z M 185 402 L 242 402 C 270 402 294 411 312 431 C 330 451 340 478 340 512 C 340 546 330 573 312 591 C 293 609 270 618 244 618 L 185 618 L 185 402 Z" unicode="R" />
<glyph horiz-adv-x="455" d="M 232 -9 C 187 -9 147 -2 111 11 C 75 25 43 48 15 81 L 83 167 C 99 145 119 128 144 115 C 169 102 195 96 222 96 C 247 96 269 104 288 121 C 306 137 316 160 316 189 C 316 217 307 241 290 260 C 272 279 243 301 201 326 C 179 338 158 352 138 366 C 118 380 100 396 85 414 C 70 432 58 452 50 475 C 41 498 37 525 37 556 C 37 583 42 608 52 631 C 62 653 76 673 94 689 C 112 705 133 717 157 726 C 181 734 208 739 236 739 C 277 739 313 732 343 720 C 373 707 397 692 417 674 L 354 585 C 340 597 323 608 304 616 C 285 624 265 629 245 629 C 220 629 199 621 183 607 C 167 593 159 574 159 551 C 159 527 167 506 182 490 C 197 473 229 451 277 425 C 331 394 372 361 398 325 C 424 289 437 244 437 190 C 437 157 431 128 419 103 C 407 78 392 57 373 41 C 353 24 331 11 307 3 C 282 -4 257 -9 232 -9 Z" unicode="S" />
<glyph horiz-adv-x="442" d="M 435 615 L 286 615 L 286 0 L 156 0 L 156 615 L 7 615 L 7 730 L 435 730 L 435 615 Z" unicode="T" />
<glyph horiz-adv-x="605" d="M 546 730 L 546 238 C 546 196 539 160 525 129 C 511 97 493 71 471 51 C 448 31 422 16 392 6 C 362 -4 330 -9 297 -9 C 264 -9 233 -4 204 5 C 175 15 150 30 128 50 C 106 70 89 96 77 127 C 64 158 58 195 58 238 L 58 730 L 185 730 L 185 232 C 185 189 195 157 217 136 C 239 115 266 105 299 105 C 331 105 359 115 382 135 C 404 155 416 187 416 232 L 416 730 L 546 730 Z" unicode="U" />
<glyph horiz-adv-x="534" d="M 537 730 L 310 -4 L 222 -4 L -1 730 L 127 730 L 271 244 L 411 730 L 537 730 Z" unicode="V" />
<glyph horiz-adv-x="778" d="M 764 730 L 587 -5 L 508 -5 L 384 472 L 255 -5 L 175 -5 L 1 730 L 125 730 L 227 260 L 347 730 L 431 730 L 547 258 L 651 730 L 764 730 Z" unicode="W" />
<glyph horiz-adv-x="517" d="M 379 0 L 256 249 L 131 0 L 4 0 L 193 376 L 17 730 L 148 730 L 258 507 L 370 730 L 496 730 L 321 381 L 510 0 L 379 0 Z" unicode="X" />
<glyph horiz-adv-x="535" d="M 540 730 L 330 313 L 330 0 L 200 0 L 200 316 L -5 730 L 131 730 L 271 442 L 412 730 L 540 730 Z" unicode="Y" />
<glyph horiz-adv-x="485" d="M 455 730 L 455 670 L 176 114 L 466 114 L 466 0 L 14 0 L 14 58 L 296 615 L 39 615 L 39 730 L 455 730 Z" unicode="Z" />
<glyph horiz-adv-x="267" d="M 245 -179 L 55 -179 L 55 730 L 245 730 L 245 634 L 170 634 L 170 -80 L 245 -80 L 245 -179 Z" unicode="[" />
<glyph horiz-adv-x="324" d="M -1 730 L 106 730 L 325 0 L 215 0 L -1 730 Z" unicode="\" />
<glyph horiz-adv-x="269" d="M 215 -179 L 25 -179 L 25 -83 L 100 -83 L 100 634 L 25 634 L 25 730 L 215 730 L 215 -179 Z" unicode="]" />
<glyph horiz-adv-x="461" d="M 428 369 L 325 369 L 229 605 L 136 369 L 34 369 L 179 730 L 281 730 L 428 369 Z" unicode="^" />
<glyph horiz-adv-x="450" d="M 450 -169 L 0 -169 L 0 -70 L 450 -70 L 450 -169 Z" unicode="_" />
<glyph horiz-adv-x="500" d="M 363 496 L 246 496 L 129 666 L 268 666 L 363 496 Z" unicode="`" />
<glyph horiz-adv-x="419" d="M 380 0 L 272 0 L 272 47 C 259 31 242 18 221 8 C 200 -2 176 -7 148 -7 C 106 -7 73 5 50 31 C 27 57 16 90 16 132 C 16 180 32 215 65 239 C 98 263 141 276 193 278 L 267 282 L 267 295 C 267 315 260 330 248 340 C 236 350 216 355 190 355 C 165 355 144 351 126 344 C 108 336 94 329 84 322 L 48 398 C 64 410 85 421 113 431 C 140 441 175 446 217 446 C 261 446 300 434 332 411 C 364 388 380 352 380 303 L 380 0 Z M 269 116 L 269 201 L 211 198 C 187 197 168 191 152 181 C 136 171 128 156 128 136 C 128 119 134 106 146 98 C 158 90 173 86 189 86 C 207 86 224 89 238 95 C 252 101 262 108 269 116 Z" unicode="a" />
<glyph horiz-adv-x="464" d="M 275 -5 C 243 -5 217 1 197 13 C 177 25 162 39 153 56 L 153 0 L 42 0 L 42 770 L 155 770 L 155 374 C 162 390 176 406 197 421 C 218 435 246 443 281 443 C 329 443 368 423 398 384 C 428 344 443 293 443 230 C 443 156 426 99 393 57 C 360 15 321 -5 275 -5 Z M 235 80 C 260 80 280 91 295 115 C 310 138 318 172 318 217 C 318 259 310 291 296 314 C 282 336 261 348 235 348 C 212 348 193 337 177 316 C 161 295 154 260 154 211 C 154 161 162 127 178 108 C 194 89 213 80 235 80 Z" unicode="b" />
<glyph horiz-adv-x="392" d="M 313 137 L 388 79 C 375 58 356 38 332 20 C 307 2 271 -7 223 -7 C 191 -7 162 -1 137 10 C 112 21 91 37 74 57 C 56 77 43 100 34 128 C 25 155 21 185 21 218 C 21 249 25 278 35 306 C 45 333 58 357 76 377 C 94 397 115 414 141 426 C 167 438 196 444 228 444 C 270 444 305 435 331 418 C 357 401 376 382 390 362 L 313 297 C 304 310 293 321 281 330 C 268 339 252 344 232 344 C 206 344 185 332 169 310 C 153 287 145 257 145 219 C 145 175 154 142 172 120 C 190 98 212 88 238 88 C 258 88 273 93 285 104 C 297 115 306 126 313 137 Z" unicode="c" />
<glyph horiz-adv-x="469" d="M 197 -6 C 170 -6 146 0 124 10 C 102 21 84 36 69 56 C 53 75 41 98 33 125 C 25 151 21 180 21 211 C 21 281 38 337 73 379 C 108 421 151 442 202 442 C 230 442 254 436 274 424 C 294 412 307 398 315 382 L 315 770 L 428 770 L 428 0 L 319 0 L 319 52 C 312 39 299 26 280 13 C 261 0 233 -6 197 -6 Z M 233 83 C 258 83 278 95 294 119 C 309 143 317 176 317 220 C 317 264 308 297 291 317 C 274 337 253 348 229 348 C 203 348 182 336 168 314 C 153 291 146 259 146 217 C 146 177 153 144 168 120 C 183 95 205 83 233 83 Z" unicode="d" />
<glyph horiz-adv-x="436" d="M 229 -7 C 168 -7 118 12 80 51 C 41 90 22 145 22 215 C 22 250 27 282 37 310 C 47 338 62 362 80 382 C 98 402 119 417 144 428 C 168 438 195 444 223 444 C 285 444 333 422 367 379 C 401 336 419 272 419 186 L 138 186 C 138 148 147 122 165 106 C 183 90 207 82 237 82 C 265 82 287 86 304 96 C 321 105 336 116 349 129 L 407 67 C 391 48 369 31 343 16 C 316 0 278 -7 229 -7 Z M 140 266 L 306 266 C 304 292 297 314 284 330 C 270 346 251 355 227 355 C 201 355 181 347 166 331 C 151 315 142 293 140 266 Z" unicode="e" />
<glyph horiz-adv-x="261" d="M 255 336 L 186 336 L 186 0 L 68 0 L 68 336 L 13 336 L 13 436 L 68 436 L 68 618 C 68 643 72 665 80 685 C 88 704 98 720 111 733 C 123 746 138 756 155 763 C 171 769 188 773 205 773 C 221 773 235 771 248 769 C 261 766 271 763 277 759 L 257 660 C 254 660 250 661 245 663 C 239 664 234 665 228 665 C 215 665 205 659 197 648 C 189 637 185 620 185 598 L 185 436 L 255 436 L 255 336 Z" unicode="f" />
<glyph horiz-adv-x="468" d="M 201 -1 C 149 -1 106 18 72 57 C 38 95 21 148 21 215 C 21 250 25 282 35 310 C 45 338 58 362 74 382 C 90 401 109 416 131 426 C 153 436 176 442 201 442 C 228 442 252 435 272 423 C 292 411 307 397 316 381 L 316 436 L 427 436 L 427 20 C 427 -16 421 -48 410 -75 C 398 -101 383 -123 364 -141 C 345 -158 323 -171 298 -179 C 272 -187 246 -192 219 -192 C 178 -192 145 -187 119 -178 C 93 -169 73 -160 61 -151 L 97 -68 C 109 -76 125 -83 144 -89 C 163 -95 186 -99 212 -99 C 242 -99 266 -89 285 -71 C 303 -53 313 -26 313 8 L 313 57 C 305 41 291 28 271 16 C 251 4 228 -1 201 -1 Z M 232 83 C 258 83 278 94 294 118 C 309 141 317 175 317 221 C 317 263 308 295 291 318 C 273 341 252 353 228 353 C 203 353 183 341 168 317 C 153 293 146 260 146 218 C 146 176 153 143 167 119 C 181 95 203 83 232 83 Z" unicode="g" />
<glyph horiz-adv-x="457" d="M 418 0 L 299 0 L 299 275 C 299 297 293 315 281 327 C 269 339 254 345 234 345 C 214 345 196 338 182 326 C 167 314 160 293 160 265 L 160 0 L 42 0 L 42 770 L 153 770 L 153 373 C 161 392 175 409 195 423 C 215 437 243 444 279 444 C 321 444 354 432 380 410 C 405 388 418 354 418 309 L 418 0 Z" unicode="h" />
<glyph horiz-adv-x="208" d="M 43 512 L 43 627 L 165 627 L 165 512 L 43 512 Z M 45 0 L 45 436 L 164 436 L 164 0 L 45 0 Z" unicode="i" />
<glyph horiz-adv-x="202" d="M 164 512 L 42 512 L 42 627 L 164 627 L 164 512 Z M 162 436 L 162 -78 C 162 -110 151 -139 130 -164 C 108 -189 78 -201 40 -201 C 27 -201 13 -199 -1 -197 C -16 -195 -26 -192 -32 -190 L -17 -99 C -14 -99 -10 -100 -5 -101 C 0 -101 4 -102 9 -102 C 19 -102 27 -98 34 -91 C 40 -83 44 -73 44 -59 L 44 436 L 162 436 Z" unicode="j" />
<glyph horiz-adv-x="433" d="M 447 1 L 315 -1 L 207 166 L 159 106 L 159 0 L 42 0 L 42 770 L 154 770 L 154 235 L 303 436 L 428 436 L 288 250 L 447 1 Z" unicode="k" />
<glyph horiz-adv-x="202" d="M 160 770 L 160 0 L 42 0 L 42 770 L 160 770 Z" unicode="l" />
<glyph horiz-adv-x="707" d="M 42 0 L 42 436 L 152 436 L 152 373 C 159 395 174 413 198 425 C 221 437 249 444 283 444 C 313 444 339 437 359 424 C 379 411 393 394 400 372 L 404 372 C 412 394 428 411 450 424 C 472 437 500 444 534 444 C 574 444 606 433 631 411 C 655 389 668 357 668 313 L 668 0 L 550 0 L 550 270 C 550 296 544 315 532 327 C 520 339 505 345 485 345 C 466 345 449 338 435 326 C 420 313 413 290 413 258 L 413 0 L 296 0 L 296 272 C 296 298 290 317 279 328 C 267 339 252 345 234 345 C 215 345 198 338 182 324 C 166 310 159 288 159 258 L 159 0 L 42 0 Z" unicode="m" />
<glyph horiz-adv-x="457" d="M 418 0 L 299 0 L 299 281 C 299 301 293 316 282 328 C 271 339 255 345 235 345 C 214 345 196 338 182 326 C 167 313 160 292 160 263 L 160 0 L 42 0 L 42 436 L 154 436 L 154 374 C 162 394 177 411 199 424 C 220 437 247 444 280 444 C 322 444 355 433 380 411 C 405 389 418 356 418 314 L 418 0 Z" unicode="n" />
<glyph horiz-adv-x="459" d="M 228 -7 C 200 -7 173 -2 148 8 C 122 18 100 32 82 51 C 63 69 48 93 37 121 C 26 149 21 180 21 216 C 21 249 26 280 36 308 C 46 336 61 360 79 380 C 97 400 118 415 143 427 C 168 438 195 444 224 444 C 254 444 283 439 309 429 C 335 419 358 404 377 386 C 396 367 411 344 422 318 C 432 291 438 261 438 228 C 438 158 418 102 379 58 C 340 14 290 -7 228 -7 Z M 229 84 C 255 84 276 95 291 117 C 305 139 313 174 313 221 C 313 265 305 298 290 319 C 275 339 253 350 225 350 C 201 350 181 339 167 319 C 153 298 146 265 146 219 C 146 169 153 134 169 114 C 184 94 204 84 229 84 Z" unicode="o" />
<glyph horiz-adv-x="464" d="M 42 -200 L 42 436 L 152 436 L 152 368 C 158 386 173 403 197 419 C 220 435 248 443 280 443 C 328 443 368 423 398 385 C 428 346 443 295 443 232 C 443 194 438 161 429 132 C 419 102 407 78 391 58 C 375 38 357 22 336 12 C 315 1 293 -4 270 -4 C 243 -4 219 0 198 10 C 177 20 163 31 155 44 L 155 -200 L 42 -200 Z M 235 80 C 260 80 280 90 295 112 C 310 134 318 167 318 213 C 318 255 311 288 298 313 C 284 337 263 350 235 350 C 212 350 192 339 176 319 C 160 299 152 262 152 209 C 152 159 160 125 176 107 C 192 89 212 80 235 80 Z" unicode="p" />
<glyph horiz-adv-x="469" d="M 315 -200 L 315 54 C 306 37 291 23 271 12 C 250 0 225 -5 197 -5 C 170 -5 146 0 125 12 C 103 23 85 38 70 58 C 54 78 42 101 34 128 C 26 155 22 184 22 216 C 22 249 26 280 36 308 C 45 336 57 361 73 381 C 89 401 107 416 129 427 C 150 438 173 444 197 444 C 229 444 255 437 276 425 C 296 412 311 397 320 381 L 320 436 L 428 436 L 428 -200 L 315 -200 Z M 231 84 C 255 84 276 95 292 117 C 308 139 317 173 317 219 C 317 263 308 295 292 317 C 275 338 254 349 230 349 C 203 349 182 337 168 315 C 154 292 147 259 147 216 C 147 178 154 146 168 121 C 182 96 203 84 231 84 Z" unicode="q" />
<glyph horiz-adv-x="343" d="M 346 412 L 307 315 C 294 325 282 332 271 335 C 260 338 249 340 239 340 C 222 340 205 333 187 319 C 169 305 161 279 161 242 L 161 0 L 42 0 L 42 436 L 156 436 L 156 367 C 162 384 175 401 193 418 C 211 434 234 443 262 443 C 280 443 297 439 311 433 C 325 427 337 420 346 412 Z" unicode="r" />
<glyph horiz-adv-x="343" d="M 181 -8 C 144 -8 111 -2 82 9 C 53 20 30 35 14 53 L 67 129 C 81 115 98 103 118 95 C 138 87 156 83 174 83 C 186 83 198 86 208 93 C 218 100 223 110 223 123 C 223 135 215 146 201 155 C 186 164 165 174 139 186 C 107 198 81 215 59 235 C 37 255 27 284 27 322 C 27 356 41 384 69 408 C 97 432 131 444 171 444 C 203 444 231 439 255 430 C 279 421 299 411 315 399 L 261 325 C 252 331 240 338 224 344 C 208 350 193 353 179 353 C 166 353 155 350 145 346 C 135 341 130 333 130 323 C 130 313 135 304 147 296 C 158 288 179 278 210 266 C 246 250 275 232 295 213 C 315 193 326 164 326 125 C 326 103 321 84 313 68 C 305 51 294 37 281 26 C 267 14 252 6 234 0 C 216 -5 199 -8 181 -8 Z" unicode="s" />
<glyph horiz-adv-x="255" d="M 235 100 L 251 12 C 246 8 238 4 227 0 C 216 -3 202 -5 185 -5 C 173 -5 159 -3 143 0 C 127 4 113 11 99 21 C 85 31 74 44 65 62 C 55 79 51 101 51 128 L 51 336 L 9 336 L 9 436 L 54 436 L 54 575 L 168 586 L 168 436 L 234 436 L 234 336 L 170 336 L 170 137 C 170 121 173 109 181 103 C 188 97 198 94 211 94 C 215 94 219 94 224 96 C 229 97 233 98 235 100 Z" unicode="t" />
<glyph horiz-adv-x="457" d="M 39 436 L 158 436 L 158 152 C 158 128 163 111 175 100 C 187 89 203 84 224 84 C 244 84 261 90 275 103 C 289 116 296 138 296 170 L 296 436 L 415 436 L 415 0 L 300 0 L 300 54 C 290 35 274 20 252 9 C 230 -1 205 -7 177 -7 C 139 -7 106 4 79 26 C 52 48 39 82 39 129 L 39 436 Z" unicode="u" />
<glyph horiz-adv-x="403" d="M 409 436 L 245 -2 L 156 -2 L -6 436 L 120 436 L 208 183 L 294 436 L 409 436 Z" unicode="v" />
<glyph horiz-adv-x="600" d="M 380 -2 L 300 233 L 220 -2 L 136 -2 L 0 436 L 117 436 L 193 168 L 266 401 L 343 401 L 417 168 L 496 436 L 600 436 L 463 -2 L 380 -2 Z" unicode="w" />
<glyph horiz-adv-x="389" d="M 262 0 L 190 121 L 117 0 L 1 0 L 133 219 L 4 436 L 130 436 L 196 324 L 263 436 L 381 436 L 254 226 L 388 0 L 262 0 Z" unicode="x" />
<glyph horiz-adv-x="407" d="M 412 436 L 210 -99 C 194 -137 173 -163 146 -178 C 119 -192 90 -200 60 -200 C 46 -200 33 -198 21 -195 C 9 -191 0 -188 -7 -185 L 26 -91 C 28 -92 34 -94 42 -96 C 50 -98 57 -100 65 -100 C 77 -100 88 -95 97 -87 C 105 -79 113 -65 120 -47 L 150 40 L -6 436 L 121 436 L 210 185 L 297 436 L 412 436 Z" unicode="y" />
<glyph horiz-adv-x="358" d="M 343 436 L 343 381 L 170 100 L 348 100 L 348 0 L 9 0 L 9 42 L 195 336 L 21 336 L 21 436 L 343 436 Z" unicode="z" />
<glyph horiz-adv-x="289" d="M 265 -179 C 233 -179 203 -174 176 -166 C 148 -158 125 -146 105 -132 C 85 -118 70 -101 59 -83 C 47 -64 42 -44 42 -24 C 42 0 44 23 50 44 C 55 65 61 83 68 99 C 74 115 81 129 87 143 C 93 157 97 170 97 183 C 97 197 89 210 74 223 C 59 235 40 242 18 242 L 18 329 C 40 329 59 335 75 349 C 91 363 99 378 99 395 C 99 398 95 407 89 423 C 83 439 76 456 68 475 C 60 493 53 510 49 528 C 45 546 43 563 43 580 C 43 600 48 621 59 641 C 70 661 85 679 105 695 C 125 711 148 724 175 734 C 202 744 232 749 265 749 L 265 660 C 238 660 214 651 193 633 C 172 615 162 593 162 567 C 162 558 163 547 165 534 C 167 521 171 508 177 496 C 186 476 194 457 202 441 C 209 425 213 411 213 400 C 213 374 205 351 190 330 C 175 308 152 293 121 285 C 153 276 177 261 191 239 C 205 217 213 196 213 174 C 213 156 209 140 203 127 C 196 113 189 100 183 87 C 176 73 171 59 167 44 C 163 29 161 15 161 3 C 161 -17 171 -38 191 -59 C 211 -79 235 -90 265 -90 L 265 -179 Z" unicode="{" />
<glyph horiz-adv-x="244" d="M 179 -179 L 65 -179 L 65 730 L 179 730 L 179 -179 Z" unicode="|" />
<glyph horiz-adv-x="289" d="M 24 -179 L 24 -90 C 53 -90 77 -79 97 -59 C 117 -38 127 -17 127 3 C 127 15 125 29 121 44 C 117 59 112 73 106 87 C 99 100 92 113 85 127 C 78 140 75 156 75 174 C 75 196 82 217 97 239 C 111 261 134 276 165 285 C 134 293 111 308 97 330 C 82 351 75 374 75 400 C 75 411 78 425 86 441 C 94 457 102 476 111 496 C 117 508 121 521 123 534 C 125 547 126 558 126 567 C 126 593 115 615 95 633 C 74 651 50 660 24 660 L 24 749 C 56 749 85 744 113 734 C 140 724 163 711 183 695 C 202 679 217 661 228 641 C 239 621 245 600 245 580 C 245 563 243 546 239 528 C 235 510 229 493 221 475 C 212 456 204 439 198 423 C 192 407 189 398 189 395 C 189 378 197 363 213 349 C 229 335 248 329 270 329 L 270 242 C 248 242 229 235 214 223 C 199 210 192 197 192 183 C 192 170 195 157 201 143 C 207 129 213 115 220 99 C 226 83 232 65 238 44 C 243 23 246 0 246 -24 C 246 -44 240 -64 229 -83 C 217 -101 202 -118 183 -132 C 163 -146 140 -158 113 -166 C 85 -174 56 -179 24 -179 Z" unicode="}" />
<glyph horiz-adv-x="473" d="M 357 451 L 448 451 C 446 399 437 356 420 324 C 402 292 375 276 338 276 C 314 276 294 280 278 289 C 262 297 247 307 235 318 C 222 328 210 337 199 345 C 188 353 176 357 162 357 C 149 357 138 349 129 334 C 119 319 115 301 115 279 L 26 279 C 26 333 35 376 54 407 C 72 437 99 453 134 453 C 158 453 180 447 198 437 C 216 427 232 416 246 405 C 258 395 270 387 281 379 C 291 371 303 368 316 368 C 333 368 344 375 349 390 C 354 404 357 425 357 451 Z" unicode="~" />
<glyph horiz-adv-x="279" d="M 78 574 L 201 574 L 201 443 L 78 443 L 78 574 Z M 71 153 L 113 361 L 169 361 L 207 153 L 207 -133 L 71 -133 L 71 153 Z" unicode="¡" />
<glyph horiz-adv-x="447" d="M 439 147 C 425 128 405 109 381 91 C 357 73 324 62 284 58 L 284 -53 L 206 -53 L 206 60 C 150 69 106 95 74 138 C 42 180 27 233 27 296 C 27 356 42 408 74 452 C 105 496 149 523 206 534 L 206 642 L 284 642 L 284 538 C 322 534 354 523 378 507 C 402 490 421 472 434 453 L 359 382 C 347 396 334 407 319 417 C 303 427 283 432 258 432 C 224 432 198 419 179 395 C 159 371 150 339 150 299 C 150 252 161 217 184 194 C 206 170 235 159 269 159 C 295 159 317 165 333 177 C 349 189 362 202 372 215 L 439 147 Z" unicode="¢" />
<glyph horiz-adv-x="516" d="M 501 106 L 501 0 L 14 0 L 14 88 C 19 91 28 94 40 97 C 52 100 69 104 91 108 C 117 112 139 122 157 138 C 174 154 183 175 185 201 L 32 201 L 32 287 L 155 287 C 151 294 146 301 142 309 C 137 317 132 325 128 334 L 32 334 L 32 421 L 86 421 C 79 439 73 459 69 480 C 64 501 62 523 62 546 C 62 582 68 612 81 638 C 93 663 110 683 131 699 C 152 714 176 725 204 732 C 232 738 260 742 290 742 C 312 742 334 739 356 735 C 378 730 398 724 417 718 C 436 711 453 703 468 695 C 483 687 495 679 503 671 L 444 572 C 430 583 410 596 384 610 C 358 624 329 631 299 631 C 273 631 248 623 225 607 C 202 591 191 563 191 523 C 191 506 193 489 199 472 C 204 454 210 437 218 421 L 445 421 L 445 334 L 263 334 C 267 326 270 318 274 310 C 278 302 281 294 284 287 L 445 287 L 445 201 L 290 201 C 284 173 274 152 260 137 C 246 122 232 112 218 106 L 501 106 Z" unicode="£" />
<glyph horiz-adv-x="502" d="M 445 195 L 396 147 L 341 204 C 327 196 313 190 298 186 C 282 182 266 180 250 180 C 233 180 217 182 202 186 C 186 190 172 196 160 204 L 105 147 L 55 197 L 106 251 C 95 265 86 281 80 299 C 74 316 71 334 71 354 C 71 373 74 391 80 409 C 86 427 95 443 107 458 L 55 513 L 104 562 L 159 504 C 172 511 186 517 202 521 C 217 525 233 528 250 528 C 266 528 283 525 299 521 C 315 517 329 511 343 503 L 399 562 L 448 512 L 395 457 C 405 442 414 426 420 408 C 426 390 429 372 429 354 C 429 334 425 316 419 298 C 413 280 404 263 393 249 L 445 195 Z M 250 264 C 276 264 298 273 317 291 C 336 309 346 330 346 354 C 346 378 336 399 317 417 C 298 435 276 444 250 444 C 223 444 200 435 182 417 C 164 399 155 378 155 354 C 155 330 164 309 182 291 C 200 273 223 264 250 264 Z" unicode="¤" />
<glyph horiz-adv-x="543" d="M 489 115 L 333 115 L 333 0 L 203 0 L 203 115 L 52 115 L 52 202 L 203 202 L 203 241 L 52 241 L 52 328 L 202 328 L 9 730 L 146 730 L 272 444 L 401 730 L 531 730 L 336 328 L 489 328 L 489 241 L 333 241 L 333 202 L 489 202 L 489 115 Z" unicode="¥" />
<glyph horiz-adv-x="280" d="M 88 351 L 88 730 L 191 730 L 191 351 L 88 351 Z M 191 200 L 191 -179 L 88 -179 L 88 200 L 191 200 Z" unicode="¦" />
<glyph horiz-adv-x="595" d="M 316 -181 C 263 -181 214 -174 168 -161 C 122 -147 82 -130 50 -108 L 94 -9 C 124 -29 159 -47 197 -61 C 235 -75 270 -83 302 -83 C 330 -83 352 -75 369 -61 C 385 -47 394 -27 394 -2 C 394 21 386 39 371 51 C 356 63 334 76 305 90 L 216 132 C 185 145 158 157 136 169 C 113 180 94 192 80 206 C 65 219 54 234 47 252 C 39 270 36 292 36 318 C 36 348 43 374 57 395 C 71 415 88 433 109 447 C 91 459 78 476 70 496 C 62 516 58 541 58 570 C 58 597 64 621 76 643 C 88 664 104 682 125 697 C 146 711 171 722 200 730 C 228 738 259 742 293 742 C 351 742 398 733 435 717 C 471 700 501 683 524 665 L 468 574 C 441 593 414 610 387 625 C 359 640 327 648 290 648 C 258 648 232 641 212 627 C 192 613 183 594 183 570 C 183 551 190 536 205 524 C 220 512 243 499 274 486 L 389 434 C 443 412 484 389 512 364 C 540 338 554 303 554 257 C 554 223 543 195 521 174 C 499 152 474 139 446 135 C 464 124 481 107 499 84 C 516 61 525 33 525 -1 C 525 -29 519 -54 509 -76 C 498 -98 483 -117 465 -133 C 446 -148 424 -160 398 -168 C 372 -176 345 -181 316 -181 Z M 360 188 C 376 190 392 196 407 206 C 422 215 430 230 430 251 C 430 270 420 286 402 300 C 384 314 354 329 313 347 L 208 396 C 193 389 180 381 170 371 C 159 361 154 346 154 328 C 154 306 163 288 182 276 C 200 263 231 247 273 229 L 360 188 Z" unicode="§" />
<glyph horiz-adv-x="500" d="M 385 497 L 287 497 L 287 657 L 385 657 L 385 497 Z M 213 497 L 115 497 L 115 657 L 213 657 L 213 497 Z" unicode="¨" />
<glyph horiz-adv-x="829" d="M 414 3 C 363 3 315 12 270 32 C 225 52 186 78 153 112 C 119 145 93 184 74 229 C 54 274 45 322 45 373 C 45 423 54 471 74 516 C 93 561 119 600 153 634 C 186 667 225 693 270 713 C 315 732 363 742 414 742 C 464 742 512 732 558 713 C 603 693 642 667 676 634 C 709 600 735 561 755 516 C 774 471 784 423 784 373 C 784 322 774 274 755 229 C 735 184 709 145 676 112 C 642 78 603 52 558 32 C 512 12 464 3 414 3 Z M 414 76 C 454 76 492 83 528 99 C 564 115 595 136 622 163 C 648 189 669 221 685 257 C 701 293 709 331 709 372 C 709 412 701 450 685 486 C 669 522 648 554 622 581 C 595 608 564 629 528 645 C 492 661 454 669 414 669 C 373 669 335 661 299 645 C 263 629 232 608 206 581 C 179 554 158 522 143 486 C 127 450 120 412 120 372 C 120 331 127 293 143 257 C 158 221 179 189 206 163 C 232 136 263 115 299 99 C 335 83 373 76 414 76 Z M 588 249 C 572 224 549 203 521 186 C 492 168 456 160 413 160 C 386 160 360 164 336 174 C 312 183 290 197 272 215 C 253 233 238 255 227 282 C 215 308 210 339 210 375 C 210 410 215 441 225 469 C 235 497 250 520 268 539 C 286 558 307 573 331 583 C 355 593 381 598 409 598 C 455 598 491 590 519 574 C 547 558 568 539 584 515 L 503 456 C 494 468 482 479 468 489 C 454 498 435 503 413 503 C 384 503 360 490 341 466 C 322 441 313 410 313 372 C 313 332 323 302 344 281 C 364 259 388 249 414 249 C 435 249 454 253 470 263 C 486 273 499 285 509 301 L 588 249 Z" unicode="©" />
<glyph horiz-adv-x="441" d="M 399 328 L 303 328 L 303 380 C 290 361 271 347 247 337 C 223 327 196 322 168 322 C 126 322 93 333 69 356 C 45 379 34 411 34 451 C 34 494 51 527 85 549 C 119 571 167 583 227 586 L 298 591 L 298 598 C 298 615 291 628 278 637 C 265 646 246 651 221 651 C 199 651 177 647 156 639 C 135 631 116 622 100 610 L 56 685 C 77 701 103 714 135 725 C 166 736 201 742 241 742 C 290 742 329 730 357 708 C 385 685 399 648 399 597 L 399 328 Z M 300 448 L 300 514 L 222 510 C 196 509 176 504 160 496 C 144 488 137 474 137 455 C 137 440 143 428 155 420 C 167 411 183 407 204 407 C 223 407 241 410 259 418 C 276 425 290 435 300 448 Z M 406 201 L 41 201 L 41 291 L 406 291 L 406 201 Z" unicode="ª" />
<glyph horiz-adv-x="466" d="M 221 63 L 26 233 L 26 308 L 221 476 L 221 357 L 130 268 L 221 185 L 221 63 Z M 438 63 L 242 233 L 242 308 L 438 476 L 438 357 L 347 268 L 438 186 L 438 63 Z" unicode="«" />
<glyph horiz-adv-x="500" d="M 453 402 L 453 129 L 351 129 L 351 299 L 29 299 L 29 402 L 453 402 Z" unicode="¬" />
<glyph horiz-adv-x="829" d="M 414 3 C 363 3 315 12 270 32 C 225 52 186 78 153 112 C 119 145 93 184 74 229 C 54 274 45 322 45 373 C 45 423 54 471 74 516 C 93 561 119 600 153 634 C 186 667 225 693 270 713 C 315 732 363 742 414 742 C 464 742 512 732 558 713 C 603 693 642 667 676 634 C 709 600 735 561 755 516 C 774 471 784 423 784 373 C 784 322 774 274 755 229 C 735 184 709 145 676 112 C 642 78 603 52 558 32 C 512 12 464 3 414 3 Z M 414 76 C 454 76 493 83 529 98 C 565 113 596 134 622 160 C 648 186 669 218 685 254 C 701 290 709 330 709 372 C 709 414 701 453 685 489 C 669 525 648 557 622 584 C 596 610 565 631 529 646 C 493 661 454 669 414 669 C 374 669 336 661 300 646 C 264 630 232 609 206 583 C 180 556 159 524 143 488 C 127 452 120 413 120 372 C 120 330 127 291 143 255 C 159 219 180 187 206 161 C 232 135 264 114 300 99 C 336 83 374 76 414 76 Z M 271 166 L 271 599 L 435 599 C 453 599 471 596 489 592 C 507 587 523 580 537 570 C 551 560 562 547 571 532 C 579 516 584 498 584 477 C 584 439 574 410 554 392 C 534 374 513 363 493 360 L 492 356 L 619 166 L 512 166 L 412 325 L 365 325 L 365 166 L 271 166 Z M 365 404 L 434 404 C 448 404 461 409 473 419 C 485 429 491 444 491 465 C 491 486 484 500 472 508 C 459 515 444 519 426 519 L 365 519 L 365 404 Z" unicode="®" />
<glyph horiz-adv-x="500" d="M 382 515 L 118 515 L 118 603 L 382 603 L 382 515 Z" unicode="¯" />
<glyph horiz-adv-x="429" d="M 214 373 C 188 373 164 377 142 387 C 120 397 100 410 84 427 C 67 443 54 463 44 486 C 34 508 30 532 30 558 C 30 583 34 607 44 629 C 54 651 67 671 84 688 C 100 704 120 717 142 727 C 164 737 188 742 214 742 C 239 742 263 737 286 727 C 308 717 328 704 345 688 C 361 671 374 651 384 629 C 394 607 399 583 399 558 C 399 532 394 508 384 486 C 374 463 361 443 345 427 C 328 410 308 397 286 387 C 263 377 239 373 214 373 Z M 214 462 C 240 462 262 471 282 490 C 301 509 311 532 311 558 C 311 584 301 607 282 626 C 262 644 240 654 214 654 C 188 654 165 644 146 626 C 126 607 117 584 117 558 C 117 532 126 509 146 490 C 165 471 188 462 214 462 Z" unicode="°" />
<glyph horiz-adv-x="500" d="M 474 109 L 474 19 L 28 19 L 28 109 L 199 109 L 199 285 L 23 285 L 23 377 L 199 377 L 199 554 L 302 554 L 302 377 L 477 377 L 477 285 L 302 285 L 302 109 L 474 109 Z" unicode="±" />
<glyph horiz-adv-x="348" d="M 316 372 L 24 372 L 24 406 L 180 566 C 186 572 191 579 196 587 C 200 595 203 605 203 617 C 203 627 199 637 192 646 C 184 654 173 659 158 659 C 140 659 127 653 121 642 C 114 631 110 618 110 604 L 20 604 C 20 642 33 675 60 701 C 86 727 123 741 170 741 C 215 741 249 731 272 711 C 294 691 306 666 306 638 C 306 611 301 589 292 572 C 282 554 272 540 262 529 L 187 453 L 316 453 L 316 372 Z" unicode="²" />
<glyph horiz-adv-x="346" d="M 230 569 C 256 564 276 553 292 537 C 307 520 315 500 315 477 C 315 465 312 452 308 439 C 303 426 295 414 283 403 C 271 391 256 382 236 375 C 216 367 191 364 161 364 C 117 364 84 369 60 379 C 36 389 18 400 6 410 L 57 464 C 67 457 80 451 95 445 C 110 439 129 437 151 437 C 178 437 197 442 208 452 C 219 462 225 474 225 490 C 225 506 217 516 203 521 C 189 525 172 528 152 528 L 81 528 L 81 598 L 146 598 C 164 598 178 600 190 606 C 201 612 207 621 207 633 C 207 643 202 651 193 657 C 183 663 170 666 152 666 C 135 666 119 662 103 656 C 87 650 75 643 67 635 L 18 687 C 30 699 48 712 70 724 C 92 736 125 742 167 742 C 207 742 239 733 263 717 C 287 701 300 678 300 650 C 300 629 292 611 278 597 C 264 583 248 573 230 569 Z" unicode="³" />
<glyph horiz-adv-x="500" d="M 138 496 L 232 666 L 371 666 L 254 496 L 138 496 Z" unicode="´" />
<glyph horiz-adv-x="573" d="M 61 -98 L 61 456 L 179 456 L 179 165 C 179 140 188 121 208 108 C 228 94 251 88 278 88 C 307 88 333 96 356 112 C 378 128 390 151 390 182 L 390 456 L 509 456 L 509 0 L 400 0 L 400 85 C 388 60 368 39 342 23 C 316 6 288 -3 258 -5 C 239 -5 221 -2 205 5 C 189 12 177 22 170 35 L 170 -98 L 61 -98 Z" unicode="µ" />
<glyph horiz-adv-x="617" d="M 568 -180 L 495 -179 L 495 635 L 410 635 L 410 -179 L 337 -179 L 337 273 L 247 273 C 217 273 189 279 162 291 C 134 303 110 319 90 340 C 69 360 52 384 40 412 C 27 439 21 468 21 498 C 21 530 26 561 38 590 C 50 618 66 643 88 664 C 109 684 135 700 165 712 C 195 724 229 730 266 730 L 568 730 L 568 -180 Z M 338 372 L 338 631 L 294 631 C 252 631 221 618 199 594 C 177 569 166 538 166 501 C 166 466 177 436 199 410 C 221 384 250 372 286 372 L 338 372 Z" unicode="¶" />
<glyph horiz-adv-x="274" d="M 198 255 L 77 255 L 77 401 L 198 401 L 198 255 Z" unicode="·" />
<glyph horiz-adv-x="500" d="M 255 -187 C 231 -187 207 -184 184 -178 C 160 -172 142 -164 129 -154 L 144 -106 C 152 -110 164 -115 178 -121 C 192 -127 208 -130 224 -130 C 235 -130 245 -127 254 -122 C 262 -116 267 -109 267 -100 C 267 -89 263 -82 255 -78 C 247 -74 239 -72 231 -72 C 224 -72 218 -72 214 -73 C 209 -74 204 -76 198 -78 L 181 -60 L 242 14 L 309 14 L 261 -45 C 291 -40 317 -44 338 -56 C 358 -68 369 -86 369 -110 C 369 -134 357 -153 335 -167 C 312 -180 285 -187 255 -187 Z" unicode="¸" />
<glyph horiz-adv-x="318" d="M 131 372 L 131 620 C 127 614 121 609 114 605 C 106 601 98 597 90 594 C 81 590 72 588 64 586 C 56 584 49 582 44 582 L 44 678 C 68 680 90 686 109 696 C 127 706 147 720 168 740 L 236 740 L 236 372 L 131 372 Z" unicode="¹" />
<glyph horiz-adv-x="435" d="M 214 321 C 189 321 165 325 142 335 C 119 344 99 357 81 375 C 63 393 49 414 39 440 C 28 466 23 495 23 529 C 23 558 28 585 38 611 C 48 637 62 659 80 678 C 98 697 118 712 142 723 C 165 734 189 740 215 740 C 242 740 268 735 292 726 C 316 716 337 703 355 686 C 373 668 387 647 397 622 C 407 597 413 569 413 539 C 413 507 407 477 397 451 C 386 424 371 401 353 382 C 335 362 314 347 290 337 C 266 326 240 321 214 321 Z M 215 412 C 244 412 267 423 285 446 C 303 468 312 498 312 536 C 312 570 303 597 287 618 C 270 639 247 650 218 650 C 189 650 166 638 149 616 C 131 593 123 563 123 525 C 123 490 131 462 149 442 C 166 422 188 412 215 412 Z M 36 201 L 36 291 L 398 291 L 398 201 L 36 201 Z" unicode="º" />
<glyph horiz-adv-x="466" d="M 28 476 L 224 305 L 224 231 L 28 63 L 28 181 L 119 270 L 28 353 L 28 476 Z M 245 476 L 440 305 L 440 231 L 245 63 L 245 181 L 337 270 L 245 353 L 245 476 Z" unicode="»" />
<glyph horiz-adv-x="707" d="M 12 0 L 12 0 Z M 99 372 L 99 620 C 95 614 89 609 82 605 C 74 601 66 597 58 594 C 49 590 40 588 32 586 C 24 584 17 582 12 582 L 12 678 C 36 680 58 686 77 696 C 95 706 115 720 136 740 L 204 740 L 204 372 L 99 372 Z M 585 730 L 232 0 L 133 0 L 486 730 L 585 730 Z M 391 80 L 391 147 L 573 364 L 638 364 L 638 151 L 695 151 L 695 80 L 638 80 L 638 1 L 546 1 L 546 80 L 391 80 Z M 476 144 L 548 144 L 548 234 L 476 144 Z" unicode="¼" />
<glyph horiz-adv-x="781" d="M 12 0 L 12 0 Z M 99 372 L 99 620 C 95 614 89 609 82 605 C 74 601 66 597 58 594 C 49 590 40 588 32 586 C 24 584 17 582 12 582 L 12 678 C 36 680 58 686 77 696 C 95 706 115 720 136 740 L 204 740 L 204 372 L 99 372 Z M 585 730 L 232 0 L 133 0 L 486 730 L 585 730 Z M 754 0 L 462 0 L 462 34 L 618 194 C 624 200 629 207 634 215 C 638 223 641 233 641 245 C 641 255 637 265 630 274 C 622 282 611 287 596 287 C 578 287 565 281 559 270 C 552 259 548 246 548 232 L 458 232 C 458 270 471 303 498 329 C 524 355 561 369 608 369 C 653 369 687 359 710 339 C 732 319 744 294 744 266 C 744 239 739 217 730 200 C 720 182 710 168 700 157 L 625 81 L 754 81 L 754 0 Z" unicode="½" />
<glyph horiz-adv-x="763" d="M 12 0 L 12 0 Z M 641 730 L 288 0 L 189 0 L 542 730 L 641 730 Z M 447 80 L 447 147 L 629 364 L 694 364 L 694 151 L 751 151 L 751 80 L 694 80 L 694 1 L 602 1 L 602 80 L 447 80 Z M 532 144 L 604 144 L 604 234 L 532 144 Z M 236 569 C 262 564 282 553 298 537 C 313 520 321 500 321 477 C 321 465 318 452 314 439 C 309 426 301 414 289 403 C 277 391 262 382 242 375 C 222 367 197 364 167 364 C 123 364 90 369 66 379 C 42 389 24 400 12 410 L 63 464 C 73 457 86 451 101 445 C 116 439 135 437 157 437 C 184 437 203 442 214 452 C 225 462 231 474 231 490 C 231 506 223 516 209 521 C 195 525 178 528 158 528 L 87 528 L 87 598 L 152 598 C 170 598 184 600 196 606 C 207 612 213 621 213 633 C 213 643 208 651 199 657 C 189 663 176 666 158 666 C 141 666 125 662 109 656 C 93 650 81 643 73 635 L 24 687 C 36 699 54 712 76 724 C 98 736 131 742 173 742 C 213 742 245 733 269 717 C 293 701 306 678 306 650 C 306 629 298 611 284 597 C 270 583 254 573 236 569 Z" unicode="¾" />
<glyph horiz-adv-x="449" d="M 172 445 L 172 574 L 305 574 L 305 445 L 172 445 Z M 225 -162 C 161 -162 110 -145 74 -113 C 38 -81 20 -37 20 17 C 20 42 23 65 30 86 C 36 106 45 125 56 142 C 66 158 78 174 91 188 C 104 202 117 215 130 229 C 150 247 163 267 170 290 C 177 313 181 335 182 357 L 300 357 C 300 317 294 283 283 256 C 271 229 253 203 228 177 C 207 156 188 135 172 113 C 156 91 148 64 148 33 C 148 4 157 -18 176 -34 C 194 -50 218 -58 246 -58 C 271 -58 293 -51 313 -38 C 333 -25 349 -9 362 10 L 436 -61 C 413 -92 383 -117 346 -135 C 309 -153 269 -162 225 -162 Z" unicode="¿" />
<glyph horiz-adv-x="552" d="M 0 0 L 0 0 Z M 553 0 L 425 0 L 376 155 L 169 155 L 122 0 L -1 0 L 235 733 L 320 733 L 553 0 Z M 351 260 L 273 504 L 195 260 L 351 260 Z M 273 790 L 273 790 Z M 390 790 L 273 790 L 156 960 L 295 960 L 390 790 Z" unicode="À" />
<glyph horiz-adv-x="552" d="M 0 0 L 0 0 Z M 553 0 L 425 0 L 376 155 L 169 155 L 122 0 L -1 0 L 235 733 L 320 733 L 553 0 Z M 351 260 L 273 504 L 195 260 L 351 260 Z M 273 790 L 273 790 Z M 157 790 L 251 960 L 390 960 L 273 790 L 157 790 Z" unicode="Á" />
<glyph horiz-adv-x="552" d="M 0 0 L 0 0 Z M 553 0 L 425 0 L 376 155 L 169 155 L 122 0 L -1 0 L 235 733 L 320 733 L 553 0 Z M 351 260 L 273 504 L 195 260 L 351 260 Z M 273 791 L 273 791 Z M 434 791 L 333 791 L 273 885 L 211 791 L 113 791 L 219 964 L 327 964 L 434 791 Z" unicode="Â" />
<glyph horiz-adv-x="552" d="M 0 0 L 0 0 Z M 553 0 L 425 0 L 376 155 L 169 155 L 122 0 L -1 0 L 235 733 L 320 733 L 553 0 Z M 351 260 L 273 504 L 195 260 L 351 260 Z M 273 795 L 273 795 Z M 350 943 L 438 943 C 438 893 430 855 416 831 C 401 807 382 795 360 795 C 340 795 324 798 311 805 C 297 811 286 817 278 823 C 269 828 260 833 252 839 C 244 845 235 848 227 848 C 219 848 212 843 206 835 C 200 826 198 814 198 798 L 110 798 C 110 848 119 885 137 909 C 155 933 175 946 197 946 C 215 946 230 942 242 936 C 254 929 264 922 274 916 C 282 910 290 905 298 900 C 305 894 312 892 320 892 C 326 892 333 896 340 905 C 346 913 350 926 350 943 Z" unicode="Ã" />
<glyph horiz-adv-x="552" d="M 0 0 L 0 0 Z M 553 0 L 425 0 L 376 155 L 169 155 L 122 0 L -1 0 L 235 733 L 320 733 L 553 0 Z M 351 260 L 273 504 L 195 260 L 351 260 Z M 273 791 L 273 791 Z M 408 791 L 310 791 L 310 951 L 408 951 L 408 791 Z M 236 791 L 138 791 L 138 951 L 236 951 L 236 791 Z" unicode="Ä" />
<glyph horiz-adv-x="552" d="M 0 0 L 0 0 Z M 553 0 L 425 0 L 376 155 L 169 155 L 122 0 L -1 0 L 235 733 L 320 733 L 553 0 Z M 351 260 L 273 504 L 195 260 L 351 260 Z M 273 787 L 273 787 Z M 273 787 C 240 787 212 798 190 821 C 167 843 156 871 156 904 C 156 936 167 963 190 986 C 212 1008 240 1020 273 1020 C 305 1020 333 1008 356 986 C 379 963 391 936 391 904 C 391 871 379 843 356 821 C 333 798 305 787 273 787 Z M 273 852 C 287 852 299 856 309 866 C 318 876 323 888 323 903 C 323 917 318 930 309 940 C 299 950 287 955 273 955 C 259 955 247 950 237 940 C 227 930 223 917 223 903 C 223 888 227 876 237 866 C 247 856 259 852 273 852 Z" unicode="Å" />
<glyph horiz-adv-x="824" d="M 802 0 L 428 0 L 428 195 L 216 195 L 116 0 L -11 0 L 354 730 L 783 730 L 783 621 L 548 621 L 548 415 L 771 415 L 771 306 L 548 306 L 548 109 L 802 109 L 802 0 Z M 428 293 L 428 636 L 260 293 L 428 293 Z" unicode="Æ" />
<glyph horiz-adv-x="562" d="M 34 0 L 34 0 Z M 317 -9 C 276 -9 238 -1 204 15 C 169 31 139 54 114 86 C 89 117 69 156 55 203 C 41 250 34 304 34 366 C 34 422 40 474 54 520 C 67 566 86 605 110 637 C 134 669 164 694 200 712 C 236 730 276 739 320 739 C 386 739 436 726 471 700 C 505 674 532 642 551 605 L 451 546 C 439 566 423 584 403 600 C 383 615 356 623 324 623 C 274 623 235 602 207 560 C 179 518 165 452 165 361 C 165 313 169 272 179 240 C 188 207 200 181 216 161 C 231 141 249 127 269 119 C 289 110 309 106 330 106 C 364 106 392 113 413 127 C 434 141 451 161 465 185 L 557 134 C 535 90 505 56 466 30 C 426 4 377 -9 317 -9 Z M 308 0 L 308 0 Z M 314 -187 C 290 -187 266 -184 243 -178 C 219 -172 201 -164 188 -154 L 203 -106 C 211 -110 223 -115 237 -121 C 251 -127 267 -130 283 -130 C 294 -130 304 -127 313 -122 C 321 -116 326 -109 326 -100 C 326 -89 322 -82 314 -78 C 306 -74 298 -72 290 -72 C 283 -72 277 -72 273 -73 C 268 -74 263 -76 257 -78 L 240 -60 L 301 14 L 368 14 L 320 -45 C 350 -40 376 -44 397 -56 C 417 -68 428 -86 428 -110 C 428 -134 416 -153 394 -167 C 371 -180 344 -187 314 -187 Z" unicode="Ç" />
<glyph horiz-adv-x="466" d="M 63 0 L 63 0 Z M 444 0 L 63 0 L 63 730 L 425 730 L 425 615 L 190 615 L 190 420 L 413 420 L 413 306 L 190 306 L 190 115 L 444 115 L 444 0 Z M 243 790 L 243 790 Z M 360 790 L 243 790 L 126 960 L 265 960 L 360 790 Z" unicode="È" />
<glyph horiz-adv-x="466" d="M 63 0 L 63 0 Z M 444 0 L 63 0 L 63 730 L 425 730 L 425 615 L 190 615 L 190 420 L 413 420 L 413 306 L 190 306 L 190 115 L 444 115 L 444 0 Z M 243 790 L 243 790 Z M 127 790 L 221 960 L 360 960 L 243 790 L 127 790 Z" unicode="É" />
<glyph horiz-adv-x="466" d="M 63 0 L 63 0 Z M 444 0 L 63 0 L 63 730 L 425 730 L 425 615 L 190 615 L 190 420 L 413 420 L 413 306 L 190 306 L 190 115 L 444 115 L 444 0 Z M 243 791 L 243 791 Z M 404 791 L 303 791 L 243 885 L 181 791 L 83 791 L 189 964 L 297 964 L 404 791 Z" unicode="Ê" />
<glyph horiz-adv-x="466" d="M 63 0 L 63 0 Z M 444 0 L 63 0 L 63 730 L 425 730 L 425 615 L 190 615 L 190 420 L 413 420 L 413 306 L 190 306 L 190 115 L 444 115 L 444 0 Z M 243 791 L 243 791 Z M 378 791 L 280 791 L 280 951 L 378 951 L 378 791 Z M 206 791 L 108 791 L 108 951 L 206 951 L 206 791 Z" unicode="Ë" />
<glyph horiz-adv-x="264" d="M 16 0 L 16 0 Z M 198 0 L 67 0 L 67 730 L 198 730 L 198 0 Z M 133 790 L 133 790 Z M 250 790 L 133 790 L 16 960 L 155 960 L 250 790 Z" unicode="Ì" />
<glyph horiz-adv-x="264" d="M 17 0 L 17 0 Z M 198 0 L 67 0 L 67 730 L 198 730 L 198 0 Z M 133 790 L 133 790 Z M 17 790 L 111 960 L 250 960 L 133 790 L 17 790 Z" unicode="Í" />
<glyph horiz-adv-x="264" d="M 0 0 L 0 0 Z M 198 0 L 67 0 L 67 730 L 198 730 L 198 0 Z M 133 791 L 133 791 Z M 294 791 L 193 791 L 133 885 L 71 791 L -27 791 L 79 964 L 187 964 L 294 791 Z" unicode="Î" />
<glyph horiz-adv-x="264" d="M 0 0 L 0 0 Z M 198 0 L 67 0 L 67 730 L 198 730 L 198 0 Z M 133 791 L 133 791 Z M 268 791 L 170 791 L 170 951 L 268 951 L 268 791 Z M 96 791 L -2 791 L -2 951 L 96 951 L 96 791 Z" unicode="Ï" />
<glyph horiz-adv-x="614" d="M 580 363 C 580 312 573 264 559 220 C 545 176 525 137 497 105 C 469 73 435 47 393 28 C 351 9 303 0 249 0 L 63 0 L 63 312 L 20 312 L 20 408 L 63 408 L 63 730 L 261 730 C 313 730 358 721 398 703 C 438 685 471 661 498 629 C 525 597 545 559 559 513 C 573 467 580 417 580 363 Z M 191 104 L 253 104 C 288 104 318 110 343 123 C 367 135 387 153 403 175 C 419 197 430 224 437 256 C 444 288 448 323 448 361 C 448 450 431 516 399 560 C 366 603 321 625 263 625 L 191 625 L 191 408 L 331 408 L 331 312 L 191 312 L 191 104 Z" unicode="Ð" />
<glyph horiz-adv-x="612" d="M 63 0 L 63 0 Z M 550 0 L 460 0 L 185 457 L 185 0 L 63 0 L 63 730 L 156 730 L 431 278 L 431 730 L 550 730 L 550 0 Z M 306 795 L 306 795 Z M 383 943 L 471 943 C 471 893 463 855 449 831 C 434 807 415 795 393 795 C 373 795 357 798 344 805 C 330 811 319 817 311 823 C 302 828 293 833 285 839 C 277 845 268 848 260 848 C 252 848 245 843 239 835 C 233 826 231 814 231 798 L 143 798 C 143 848 152 885 170 909 C 188 933 208 946 230 946 C 248 946 263 942 275 936 C 287 929 297 922 307 916 C 315 910 323 905 331 900 C 338 894 345 892 353 892 C 359 892 366 896 373 905 C 379 913 383 926 383 943 Z" unicode="Ñ" />
<glyph horiz-adv-x="657" d="M 34 0 L 34 0 Z M 331 -9 C 235 -9 162 24 111 92 C 59 159 34 252 34 371 C 34 426 41 476 55 522 C 69 568 88 606 114 638 C 139 670 170 694 206 712 C 242 730 281 739 325 739 C 418 739 491 706 544 641 C 596 575 623 484 623 366 C 623 308 615 256 601 210 C 586 163 566 123 540 91 C 514 59 484 34 448 17 C 412 0 373 -9 331 -9 Z M 329 104 C 379 104 418 125 447 169 C 476 212 491 279 491 371 C 491 455 476 519 446 561 C 416 603 377 625 327 625 C 277 625 237 604 209 563 C 181 521 167 455 167 365 C 167 273 182 207 212 166 C 242 124 281 104 329 104 Z M 326 790 L 326 790 Z M 443 790 L 326 790 L 209 960 L 348 960 L 443 790 Z" unicode="Ò" />
<glyph horiz-adv-x="657" d="M 34 0 L 34 0 Z M 331 -9 C 235 -9 162 24 111 92 C 59 159 34 252 34 371 C 34 426 41 476 55 522 C 69 568 88 606 114 638 C 139 670 170 694 206 712 C 242 730 281 739 325 739 C 418 739 491 706 544 641 C 596 575 623 484 623 366 C 623 308 615 256 601 210 C 586 163 566 123 540 91 C 514 59 484 34 448 17 C 412 0 373 -9 331 -9 Z M 329 104 C 379 104 418 125 447 169 C 476 212 491 279 491 371 C 491 455 476 519 446 561 C 416 603 377 625 327 625 C 277 625 237 604 209 563 C 181 521 167 455 167 365 C 167 273 182 207 212 166 C 242 124 281 104 329 104 Z M 326 790 L 326 790 Z M 210 790 L 304 960 L 443 960 L 326 790 L 210 790 Z" unicode="Ó" />
<glyph horiz-adv-x="657" d="M 34 0 L 34 0 Z M 331 -9 C 235 -9 162 24 111 92 C 59 159 34 252 34 371 C 34 426 41 476 55 522 C 69 568 88 606 114 638 C 139 670 170 694 206 712 C 242 730 281 739 325 739 C 418 739 491 706 544 641 C 596 575 623 484 623 366 C 623 308 615 256 601 210 C 586 163 566 123 540 91 C 514 59 484 34 448 17 C 412 0 373 -9 331 -9 Z M 329 104 C 379 104 418 125 447 169 C 476 212 491 279 491 371 C 491 455 476 519 446 561 C 416 603 377 625 327 625 C 277 625 237 604 209 563 C 181 521 167 455 167 365 C 167 273 182 207 212 166 C 242 124 281 104 329 104 Z M 326 791 L 326 791 Z M 487 791 L 386 791 L 326 885 L 264 791 L 166 791 L 272 964 L 380 964 L 487 791 Z" unicode="Ô" />
<glyph horiz-adv-x="657" d="M 34 0 L 34 0 Z M 331 -9 C 235 -9 162 24 111 92 C 59 159 34 252 34 371 C 34 426 41 476 55 522 C 69 568 88 606 114 638 C 139 670 170 694 206 712 C 242 730 281 739 325 739 C 418 739 491 706 544 641 C 596 575 623 484 623 366 C 623 308 615 256 601 210 C 586 163 566 123 540 91 C 514 59 484 34 448 17 C 412 0 373 -9 331 -9 Z M 329 104 C 379 104 418 125 447 169 C 476 212 491 279 491 371 C 491 455 476 519 446 561 C 416 603 377 625 327 625 C 277 625 237 604 209 563 C 181 521 167 455 167 365 C 167 273 182 207 212 166 C 242 124 281 104 329 104 Z M 326 795 L 326 795 Z M 403 943 L 491 943 C 491 893 483 855 469 831 C 454 807 435 795 413 795 C 393 795 377 798 364 805 C 350 811 339 817 331 823 C 322 828 313 833 305 839 C 297 845 288 848 280 848 C 272 848 265 843 259 835 C 253 826 251 814 251 798 L 163 798 C 163 848 172 885 190 909 C 208 933 228 946 250 946 C 268 946 283 942 295 936 C 307 929 317 922 327 916 C 335 910 343 905 351 900 C 358 894 365 892 373 892 C 379 892 386 896 393 905 C 399 913 403 926 403 943 Z" unicode="Õ" />
<glyph horiz-adv-x="657" d="M 34 0 L 34 0 Z M 331 -9 C 235 -9 162 24 111 92 C 59 159 34 252 34 371 C 34 426 41 476 55 522 C 69 568 88 606 114 638 C 139 670 170 694 206 712 C 242 730 281 739 325 739 C 418 739 491 706 544 641 C 596 575 623 484 623 366 C 623 308 615 256 601 210 C 586 163 566 123 540 91 C 514 59 484 34 448 17 C 412 0 373 -9 331 -9 Z M 329 104 C 379 104 418 125 447 169 C 476 212 491 279 491 371 C 491 455 476 519 446 561 C 416 603 377 625 327 625 C 277 625 237 604 209 563 C 181 521 167 455 167 365 C 167 273 182 207 212 166 C 242 124 281 104 329 104 Z M 326 791 L 326 791 Z M 461 791 L 363 791 L 363 951 L 461 951 L 461 791 Z M 289 791 L 191 791 L 191 951 L 289 951 L 289 791 Z" unicode="Ö" />
<glyph horiz-adv-x="501" d="M 118 132 L 52 199 L 184 331 L 53 462 L 119 529 L 251 398 L 383 529 L 449 462 L 318 331 L 450 199 L 383 129 L 251 264 L 118 132 Z" unicode="×" />
<glyph horiz-adv-x="657" d="M 623 366 C 623 308 615 256 601 210 C 586 163 566 123 540 91 C 514 59 484 34 448 17 C 412 0 373 -9 331 -9 C 289 -9 251 -2 218 11 C 184 24 155 43 131 69 L 74 -5 L 29 32 L 94 116 C 74 148 59 185 49 228 C 39 271 34 319 34 371 C 34 426 41 476 55 522 C 69 568 88 606 114 638 C 139 670 170 694 206 712 C 242 730 281 739 325 739 C 365 739 401 732 434 720 C 466 708 495 690 520 668 L 583 750 L 628 715 L 557 623 C 578 592 594 555 606 512 C 617 468 623 420 623 366 Z M 167 365 C 167 338 168 313 171 291 C 174 269 178 249 183 231 L 442 568 C 428 586 411 600 392 610 C 372 620 351 625 327 625 C 277 625 237 604 209 563 C 181 521 167 455 167 365 Z M 491 371 C 491 399 489 424 486 448 C 482 471 477 492 471 511 L 209 170 C 223 147 240 130 261 120 C 281 109 304 104 329 104 C 379 104 418 125 447 169 C 476 212 491 279 491 371 Z" unicode="Ø" />
<glyph horiz-adv-x="605" d="M 58 0 L 58 0 Z M 546 730 L 546 238 C 546 196 539 160 525 129 C 511 97 493 71 471 51 C 448 31 422 16 392 6 C 362 -4 330 -9 297 -9 C 264 -9 233 -4 204 5 C 175 15 150 30 128 50 C 106 70 89 96 77 127 C 64 158 58 195 58 238 L 58 730 L 185 730 L 185 232 C 185 189 195 157 217 136 C 239 115 266 105 299 105 C 331 105 359 115 382 135 C 404 155 416 187 416 232 L 416 730 L 546 730 Z M 300 790 L 300 790 Z M 417 790 L 300 790 L 183 960 L 322 960 L 417 790 Z" unicode="Ù" />
<glyph horiz-adv-x="605" d="M 58 0 L 58 0 Z M 546 730 L 546 238 C 546 196 539 160 525 129 C 511 97 493 71 471 51 C 448 31 422 16 392 6 C 362 -4 330 -9 297 -9 C 264 -9 233 -4 204 5 C 175 15 150 30 128 50 C 106 70 89 96 77 127 C 64 158 58 195 58 238 L 58 730 L 185 730 L 185 232 C 185 189 195 157 217 136 C 239 115 266 105 299 105 C 331 105 359 115 382 135 C 404 155 416 187 416 232 L 416 730 L 546 730 Z M 300 790 L 300 790 Z M 184 790 L 278 960 L 417 960 L 300 790 L 184 790 Z" unicode="Ú" />
<glyph horiz-adv-x="605" d="M 58 0 L 58 0 Z M 546 730 L 546 238 C 546 196 539 160 525 129 C 511 97 493 71 471 51 C 448 31 422 16 392 6 C 362 -4 330 -9 297 -9 C 264 -9 233 -4 204 5 C 175 15 150 30 128 50 C 106 70 89 96 77 127 C 64 158 58 195 58 238 L 58 730 L 185 730 L 185 232 C 185 189 195 157 217 136 C 239 115 266 105 299 105 C 331 105 359 115 382 135 C 404 155 416 187 416 232 L 416 730 L 546 730 Z M 300 791 L 300 791 Z M 461 791 L 360 791 L 300 885 L 238 791 L 140 791 L 246 964 L 354 964 L 461 791 Z" unicode="Û" />
<glyph horiz-adv-x="605" d="M 58 0 L 58 0 Z M 546 730 L 546 238 C 546 196 539 160 525 129 C 511 97 493 71 471 51 C 448 31 422 16 392 6 C 362 -4 330 -9 297 -9 C 264 -9 233 -4 204 5 C 175 15 150 30 128 50 C 106 70 89 96 77 127 C 64 158 58 195 58 238 L 58 730 L 185 730 L 185 232 C 185 189 195 157 217 136 C 239 115 266 105 299 105 C 331 105 359 115 382 135 C 404 155 416 187 416 232 L 416 730 L 546 730 Z M 300 791 L 300 791 Z M 435 791 L 337 791 L 337 951 L 435 951 L 435 791 Z M 263 791 L 165 791 L 165 951 L 263 951 L 263 791 Z" unicode="Ü" />
<glyph horiz-adv-x="535" d="M 0 0 L 0 0 Z M 540 730 L 330 313 L 330 0 L 200 0 L 200 316 L -5 730 L 131 730 L 271 442 L 412 730 L 540 730 Z M 270 790 L 270 790 Z M 154 790 L 248 960 L 387 960 L 270 790 L 154 790 Z" unicode="Ý" />
<glyph horiz-adv-x="509" d="M 63 0 L 63 730 L 193 730 L 193 606 L 278 606 C 340 606 391 586 431 546 C 471 506 491 451 491 382 C 491 311 470 255 429 213 C 388 171 336 150 272 150 L 193 150 L 193 0 L 63 0 Z M 190 254 L 265 254 C 295 254 320 265 339 288 C 357 310 367 342 367 382 C 367 421 356 451 336 471 C 315 491 290 501 262 501 L 190 501 L 190 254 Z" unicode="Þ" />
<glyph horiz-adv-x="561" d="M 394 -8 C 357 -8 324 -2 296 9 C 267 21 244 36 226 54 L 280 130 C 294 117 310 107 329 99 C 347 91 366 87 384 87 C 399 87 412 90 422 96 C 432 102 438 112 438 126 C 438 139 430 150 416 159 C 402 168 380 179 352 192 C 314 208 286 227 266 251 C 246 274 237 303 237 337 C 237 371 246 399 266 421 C 286 442 307 457 329 465 C 334 467 340 474 347 488 C 353 502 357 528 358 566 C 358 602 350 630 334 649 C 318 668 295 678 267 678 C 241 678 221 669 205 652 C 189 635 181 609 181 573 L 181 0 L 61 0 L 61 581 C 61 644 80 692 118 726 C 156 760 206 777 266 777 C 295 777 322 772 347 763 C 372 754 394 741 412 724 C 430 706 445 685 455 659 C 465 633 471 603 471 569 C 471 515 461 474 443 446 C 425 418 407 401 390 397 C 374 394 360 389 349 382 C 338 375 332 364 332 350 C 332 336 339 322 355 310 C 370 298 392 285 422 273 C 462 256 492 237 512 217 C 532 196 542 166 542 127 C 542 105 537 85 529 68 C 520 51 509 37 495 26 C 481 14 465 6 447 0 C 429 -5 411 -8 394 -8 Z" unicode="ß" />
<glyph horiz-adv-x="419" d="M 16 0 L 16 0 Z M 380 0 L 272 0 L 272 47 C 259 31 242 18 221 8 C 200 -2 176 -7 148 -7 C 106 -7 73 5 50 31 C 27 57 16 90 16 132 C 16 180 32 215 65 239 C 98 263 141 276 193 278 L 267 282 L 267 295 C 267 315 260 330 248 340 C 236 350 216 355 190 355 C 165 355 144 351 126 344 C 108 336 94 329 84 322 L 48 398 C 64 410 85 421 113 431 C 140 441 175 446 217 446 C 261 446 300 434 332 411 C 364 388 380 352 380 303 L 380 0 Z M 269 116 L 269 201 L 211 198 C 187 197 168 191 152 181 C 136 171 128 156 128 136 C 128 119 134 106 146 98 C 158 90 173 86 189 86 C 207 86 224 89 238 95 C 252 101 262 108 269 116 Z M 204 496 L 204 496 Z M 321 496 L 204 496 L 87 666 L 226 666 L 321 496 Z" unicode="à" />
<glyph horiz-adv-x="419" d="M 16 0 L 16 0 Z M 380 0 L 272 0 L 272 47 C 259 31 242 18 221 8 C 200 -2 176 -7 148 -7 C 106 -7 73 5 50 31 C 27 57 16 90 16 132 C 16 180 32 215 65 239 C 98 263 141 276 193 278 L 267 282 L 267 295 C 267 315 260 330 248 340 C 236 350 216 355 190 355 C 165 355 144 351 126 344 C 108 336 94 329 84 322 L 48 398 C 64 410 85 421 113 431 C 140 441 175 446 217 446 C 261 446 300 434 332 411 C 364 388 380 352 380 303 L 380 0 Z M 269 116 L 269 201 L 211 198 C 187 197 168 191 152 181 C 136 171 128 156 128 136 C 128 119 134 106 146 98 C 158 90 173 86 189 86 C 207 86 224 89 238 95 C 252 101 262 108 269 116 Z M 204 496 L 204 496 Z M 88 496 L 182 666 L 321 666 L 204 496 L 88 496 Z" unicode="á" />
<glyph horiz-adv-x="419" d="M 16 0 L 16 0 Z M 380 0 L 272 0 L 272 47 C 259 31 242 18 221 8 C 200 -2 176 -7 148 -7 C 106 -7 73 5 50 31 C 27 57 16 90 16 132 C 16 180 32 215 65 239 C 98 263 141 276 193 278 L 267 282 L 267 295 C 267 315 260 330 248 340 C 236 350 216 355 190 355 C 165 355 144 351 126 344 C 108 336 94 329 84 322 L 48 398 C 64 410 85 421 113 431 C 140 441 175 446 217 446 C 261 446 300 434 332 411 C 364 388 380 352 380 303 L 380 0 Z M 269 116 L 269 201 L 211 198 C 187 197 168 191 152 181 C 136 171 128 156 128 136 C 128 119 134 106 146 98 C 158 90 173 86 189 86 C 207 86 224 89 238 95 C 252 101 262 108 269 116 Z M 204 497 L 204 497 Z M 365 497 L 264 497 L 204 591 L 142 497 L 44 497 L 150 670 L 258 670 L 365 497 Z" unicode="â" />
<glyph horiz-adv-x="419" d="M 16 0 L 16 0 Z M 380 0 L 272 0 L 272 47 C 259 31 242 18 221 8 C 200 -2 176 -7 148 -7 C 106 -7 73 5 50 31 C 27 57 16 90 16 132 C 16 180 32 215 65 239 C 98 263 141 276 193 278 L 267 282 L 267 295 C 267 315 260 330 248 340 C 236 350 216 355 190 355 C 165 355 144 351 126 344 C 108 336 94 329 84 322 L 48 398 C 64 410 85 421 113 431 C 140 441 175 446 217 446 C 261 446 300 434 332 411 C 364 388 380 352 380 303 L 380 0 Z M 269 116 L 269 201 L 211 198 C 187 197 168 191 152 181 C 136 171 128 156 128 136 C 128 119 134 106 146 98 C 158 90 173 86 189 86 C 207 86 224 89 238 95 C 252 101 262 108 269 116 Z M 204 501 L 204 501 Z M 281 649 L 369 649 C 369 599 361 561 347 537 C 332 513 313 501 291 501 C 271 501 255 504 242 511 C 228 517 217 523 209 529 C 200 534 191 539 183 545 C 175 551 166 554 158 554 C 150 554 143 549 137 541 C 131 532 129 520 129 504 L 41 504 C 41 554 50 591 68 615 C 86 639 106 652 128 652 C 146 652 161 648 173 642 C 185 635 195 628 205 622 C 213 616 221 611 229 606 C 236 600 243 598 251 598 C 257 598 264 602 271 611 C 277 619 281 632 281 649 Z" unicode="ã" />
<glyph horiz-adv-x="419" d="M 16 0 L 16 0 Z M 380 0 L 272 0 L 272 47 C 259 31 242 18 221 8 C 200 -2 176 -7 148 -7 C 106 -7 73 5 50 31 C 27 57 16 90 16 132 C 16 180 32 215 65 239 C 98 263 141 276 193 278 L 267 282 L 267 295 C 267 315 260 330 248 340 C 236 350 216 355 190 355 C 165 355 144 351 126 344 C 108 336 94 329 84 322 L 48 398 C 64 410 85 421 113 431 C 140 441 175 446 217 446 C 261 446 300 434 332 411 C 364 388 380 352 380 303 L 380 0 Z M 269 116 L 269 201 L 211 198 C 187 197 168 191 152 181 C 136 171 128 156 128 136 C 128 119 134 106 146 98 C 158 90 173 86 189 86 C 207 86 224 89 238 95 C 252 101 262 108 269 116 Z M 204 497 L 204 497 Z M 339 497 L 241 497 L 241 657 L 339 657 L 339 497 Z M 167 497 L 69 497 L 69 657 L 167 657 L 167 497 Z" unicode="ä" />
<glyph horiz-adv-x="419" d="M 16 0 L 16 0 Z M 380 0 L 272 0 L 272 47 C 259 31 242 18 221 8 C 200 -2 176 -7 148 -7 C 106 -7 73 5 50 31 C 27 57 16 90 16 132 C 16 180 32 215 65 239 C 98 263 141 276 193 278 L 267 282 L 267 295 C 267 315 260 330 248 340 C 236 350 216 355 190 355 C 165 355 144 351 126 344 C 108 336 94 329 84 322 L 48 398 C 64 410 85 421 113 431 C 140 441 175 446 217 446 C 261 446 300 434 332 411 C 364 388 380 352 380 303 L 380 0 Z M 269 116 L 269 201 L 211 198 C 187 197 168 191 152 181 C 136 171 128 156 128 136 C 128 119 134 106 146 98 C 158 90 173 86 189 86 C 207 86 224 89 238 95 C 252 101 262 108 269 116 Z M 204 493 L 204 493 Z M 204 493 C 171 493 143 504 121 527 C 98 549 87 577 87 610 C 87 642 98 669 121 692 C 143 714 171 726 204 726 C 236 726 264 714 287 692 C 310 669 322 642 322 610 C 322 577 310 549 287 527 C 264 504 236 493 204 493 Z M 204 558 C 218 558 230 562 240 572 C 249 582 254 594 254 609 C 254 623 249 636 240 646 C 230 656 218 661 204 661 C 190 661 178 656 168 646 C 158 636 154 623 154 609 C 154 594 158 582 168 572 C 178 562 190 558 204 558 Z" unicode="å" />
<glyph horiz-adv-x="678" d="M 472 -7 C 429 -7 395 1 369 18 C 343 35 325 55 315 77 C 302 52 281 32 251 16 C 221 0 189 -7 155 -7 C 113 -7 79 5 54 30 C 28 55 16 88 16 130 C 16 176 32 212 65 237 C 97 262 140 276 194 278 L 273 282 L 273 293 C 273 315 265 331 250 341 C 235 350 215 355 191 355 C 165 355 143 351 125 344 C 106 336 92 329 83 321 L 48 397 C 64 411 86 422 114 430 C 141 438 170 443 202 443 C 232 443 260 437 285 426 C 310 415 327 400 336 382 C 346 398 362 413 385 425 C 407 437 437 443 473 443 C 532 443 578 420 611 376 C 643 331 660 268 660 186 L 383 186 C 383 149 392 122 408 106 C 424 90 448 82 478 82 C 506 82 528 86 544 95 C 560 103 576 115 590 129 L 648 67 C 631 47 609 30 583 15 C 556 0 519 -7 472 -7 Z M 381 263 L 548 263 C 547 291 539 313 524 330 C 509 346 489 355 465 355 C 439 355 419 346 405 330 C 391 314 383 291 381 263 Z M 193 86 C 214 86 232 91 248 103 C 263 115 272 129 274 145 L 274 202 L 211 199 C 188 198 168 193 152 183 C 136 173 128 158 128 138 C 128 119 134 106 148 98 C 161 90 176 86 193 86 Z" unicode="æ" />
<glyph horiz-adv-x="392" d="M 21 0 L 21 0 Z M 313 137 L 388 79 C 375 58 356 38 332 20 C 307 2 271 -7 223 -7 C 191 -7 162 -1 137 10 C 112 21 91 37 74 57 C 56 77 43 100 34 128 C 25 155 21 185 21 218 C 21 249 25 278 35 306 C 45 333 58 357 76 377 C 94 397 115 414 141 426 C 167 438 196 444 228 444 C 270 444 305 435 331 418 C 357 401 376 382 390 362 L 313 297 C 304 310 293 321 281 330 C 268 339 252 344 232 344 C 206 344 185 332 169 310 C 153 287 145 257 145 219 C 145 175 154 142 172 120 C 190 98 212 88 238 88 C 258 88 273 93 285 104 C 297 115 306 126 313 137 Z M 212 0 L 212 0 Z M 218 -187 C 194 -187 170 -184 147 -178 C 123 -172 105 -164 92 -154 L 107 -106 C 115 -110 127 -115 141 -121 C 155 -127 171 -130 187 -130 C 198 -130 208 -127 217 -122 C 225 -116 230 -109 230 -100 C 230 -89 226 -82 218 -78 C 210 -74 202 -72 194 -72 C 187 -72 181 -72 177 -73 C 172 -74 167 -76 161 -78 L 144 -60 L 205 14 L 272 14 L 224 -45 C 254 -40 280 -44 301 -56 C 321 -68 332 -86 332 -110 C 332 -134 320 -153 298 -167 C 275 -180 248 -187 218 -187 Z" unicode="ç" />
<glyph horiz-adv-x="436" d="M 22 0 L 22 0 Z M 229 -7 C 168 -7 118 12 80 51 C 41 90 22 145 22 215 C 22 250 27 282 37 310 C 47 338 62 362 80 382 C 98 402 119 417 144 428 C 168 438 195 444 223 444 C 285 444 333 422 367 379 C 401 336 419 272 419 186 L 138 186 C 138 148 147 122 165 106 C 183 90 207 82 237 82 C 265 82 287 86 304 96 C 321 105 336 116 349 129 L 407 67 C 391 48 369 31 343 16 C 316 0 278 -7 229 -7 Z M 140 266 L 306 266 C 304 292 297 314 284 330 C 270 346 251 355 227 355 C 201 355 181 347 166 331 C 151 315 142 293 140 266 Z M 222 496 L 222 496 Z M 339 496 L 222 496 L 105 666 L 244 666 L 339 496 Z" unicode="è" />
<glyph horiz-adv-x="436" d="M 22 0 L 22 0 Z M 229 -7 C 168 -7 118 12 80 51 C 41 90 22 145 22 215 C 22 250 27 282 37 310 C 47 338 62 362 80 382 C 98 402 119 417 144 428 C 168 438 195 444 223 444 C 285 444 333 422 367 379 C 401 336 419 272 419 186 L 138 186 C 138 148 147 122 165 106 C 183 90 207 82 237 82 C 265 82 287 86 304 96 C 321 105 336 116 349 129 L 407 67 C 391 48 369 31 343 16 C 316 0 278 -7 229 -7 Z M 140 266 L 306 266 C 304 292 297 314 284 330 C 270 346 251 355 227 355 C 201 355 181 347 166 331 C 151 315 142 293 140 266 Z M 222 496 L 222 496 Z M 106 496 L 200 666 L 339 666 L 222 496 L 106 496 Z" unicode="é" />
<glyph horiz-adv-x="436" d="M 22 0 L 22 0 Z M 229 -7 C 168 -7 118 12 80 51 C 41 90 22 145 22 215 C 22 250 27 282 37 310 C 47 338 62 362 80 382 C 98 402 119 417 144 428 C 168 438 195 444 223 444 C 285 444 333 422 367 379 C 401 336 419 272 419 186 L 138 186 C 138 148 147 122 165 106 C 183 90 207 82 237 82 C 265 82 287 86 304 96 C 321 105 336 116 349 129 L 407 67 C 391 48 369 31 343 16 C 316 0 278 -7 229 -7 Z M 140 266 L 306 266 C 304 292 297 314 284 330 C 270 346 251 355 227 355 C 201 355 181 347 166 331 C 151 315 142 293 140 266 Z M 222 497 L 222 497 Z M 383 497 L 282 497 L 222 591 L 160 497 L 62 497 L 168 670 L 276 670 L 383 497 Z" unicode="ê" />
<glyph horiz-adv-x="436" d="M 22 0 L 22 0 Z M 229 -7 C 168 -7 118 12 80 51 C 41 90 22 145 22 215 C 22 250 27 282 37 310 C 47 338 62 362 80 382 C 98 402 119 417 144 428 C 168 438 195 444 223 444 C 285 444 333 422 367 379 C 401 336 419 272 419 186 L 138 186 C 138 148 147 122 165 106 C 183 90 207 82 237 82 C 265 82 287 86 304 96 C 321 105 336 116 349 129 L 407 67 C 391 48 369 31 343 16 C 316 0 278 -7 229 -7 Z M 140 266 L 306 266 C 304 292 297 314 284 330 C 270 346 251 355 227 355 C 201 355 181 347 166 331 C 151 315 142 293 140 266 Z M 222 497 L 222 497 Z M 357 497 L 259 497 L 259 657 L 357 657 L 357 497 Z M 185 497 L 87 497 L 87 657 L 185 657 L 185 497 Z" unicode="ë" />
<glyph horiz-adv-x="208" d="M 0 0 L 0 0 Z M 164 0 L 45 0 L 45 436 L 164 436 L 164 0 Z M 104 496 L 104 496 Z M 221 496 L 104 496 L -13 666 L 126 666 L 221 496 Z" unicode="ì" />
<glyph horiz-adv-x="208" d="M 0 0 L 0 0 Z M 164 0 L 45 0 L 45 436 L 164 436 L 164 0 Z M 104 496 L 104 496 Z M -12 496 L 82 666 L 221 666 L 104 496 L -12 496 Z" unicode="í" />
<glyph horiz-adv-x="208" d="M 0 0 L 0 0 Z M 164 0 L 45 0 L 45 436 L 164 436 L 164 0 Z M 104 497 L 104 497 Z M 265 497 L 164 497 L 104 591 L 42 497 L -56 497 L 50 670 L 158 670 L 265 497 Z" unicode="î" />
<glyph horiz-adv-x="208" d="M 0 0 L 0 0 Z M 164 0 L 45 0 L 45 436 L 164 436 L 164 0 Z M 104 497 L 104 497 Z M 239 497 L 141 497 L 141 657 L 239 657 L 239 497 Z M 67 497 L -31 497 L -31 657 L 67 657 L 67 497 Z" unicode="ï" />
<glyph horiz-adv-x="472" d="M 443 275 C 443 235 438 197 429 163 C 420 128 407 98 389 73 C 371 47 349 27 323 13 C 297 -1 266 -9 232 -9 C 170 -9 120 11 81 51 C 41 91 22 147 22 219 C 22 255 27 288 39 316 C 50 344 65 367 83 386 C 101 405 122 419 146 429 C 169 439 193 444 218 444 C 244 444 268 439 289 431 C 309 422 325 411 336 399 C 332 429 324 461 312 494 C 300 526 286 557 270 587 L 182 557 L 154 634 L 226 658 C 213 676 201 693 190 707 C 178 721 168 731 160 739 L 257 778 C 267 768 278 756 290 742 C 302 727 315 710 328 691 L 399 715 L 427 640 L 368 620 C 388 578 406 528 421 470 C 435 412 443 347 443 275 Z M 230 84 C 259 84 281 95 296 117 C 311 139 319 173 319 217 C 319 265 311 299 296 319 C 281 339 259 350 231 350 C 203 350 182 338 166 315 C 150 292 143 260 143 218 C 143 172 150 139 166 117 C 182 95 203 84 230 84 Z" unicode="ð" />
<glyph horiz-adv-x="457" d="M 42 0 L 42 0 Z M 418 0 L 299 0 L 299 281 C 299 301 293 316 282 328 C 271 339 255 345 235 345 C 214 345 196 338 182 326 C 167 313 160 292 160 263 L 160 0 L 42 0 L 42 436 L 154 436 L 154 374 C 162 394 177 411 199 424 C 220 437 247 444 280 444 C 322 444 355 433 380 411 C 405 389 418 356 418 314 L 418 0 Z M 228 501 L 228 501 Z M 305 649 L 393 649 C 393 599 385 561 371 537 C 356 513 337 501 315 501 C 295 501 279 504 266 511 C 252 517 241 523 233 529 C 224 534 215 539 207 545 C 199 551 190 554 182 554 C 174 554 167 549 161 541 C 155 532 153 520 153 504 L 65 504 C 65 554 74 591 92 615 C 110 639 130 652 152 652 C 170 652 185 648 197 642 C 209 635 219 628 229 622 C 237 616 245 611 253 606 C 260 600 267 598 275 598 C 281 598 288 602 295 611 C 301 619 305 632 305 649 Z" unicode="ñ" />
<glyph horiz-adv-x="459" d="M 21 0 L 21 0 Z M 228 -7 C 200 -7 173 -2 148 8 C 122 18 100 32 82 51 C 63 69 48 93 37 121 C 26 149 21 180 21 216 C 21 249 26 280 36 308 C 46 336 61 360 79 380 C 97 400 118 415 143 427 C 168 438 195 444 224 444 C 254 444 283 439 309 429 C 335 419 358 404 377 386 C 396 367 411 344 422 318 C 432 291 438 261 438 228 C 438 158 418 102 379 58 C 340 14 290 -7 228 -7 Z M 229 84 C 255 84 276 95 291 117 C 305 139 313 174 313 221 C 313 265 305 298 290 319 C 275 339 253 350 225 350 C 201 350 181 339 167 319 C 153 298 146 265 146 219 C 146 169 153 134 169 114 C 184 94 204 84 229 84 Z M 226 496 L 226 496 Z M 343 496 L 226 496 L 109 666 L 248 666 L 343 496 Z" unicode="ò" />
<glyph horiz-adv-x="459" d="M 21 0 L 21 0 Z M 228 -7 C 200 -7 173 -2 148 8 C 122 18 100 32 82 51 C 63 69 48 93 37 121 C 26 149 21 180 21 216 C 21 249 26 280 36 308 C 46 336 61 360 79 380 C 97 400 118 415 143 427 C 168 438 195 444 224 444 C 254 444 283 439 309 429 C 335 419 358 404 377 386 C 396 367 411 344 422 318 C 432 291 438 261 438 228 C 438 158 418 102 379 58 C 340 14 290 -7 228 -7 Z M 229 84 C 255 84 276 95 291 117 C 305 139 313 174 313 221 C 313 265 305 298 290 319 C 275 339 253 350 225 350 C 201 350 181 339 167 319 C 153 298 146 265 146 219 C 146 169 153 134 169 114 C 184 94 204 84 229 84 Z M 226 496 L 226 496 Z M 110 496 L 204 666 L 343 666 L 226 496 L 110 496 Z" unicode="ó" />
<glyph horiz-adv-x="459" d="M 21 0 L 21 0 Z M 228 -7 C 200 -7 173 -2 148 8 C 122 18 100 32 82 51 C 63 69 48 93 37 121 C 26 149 21 180 21 216 C 21 249 26 280 36 308 C 46 336 61 360 79 380 C 97 400 118 415 143 427 C 168 438 195 444 224 444 C 254 444 283 439 309 429 C 335 419 358 404 377 386 C 396 367 411 344 422 318 C 432 291 438 261 438 228 C 438 158 418 102 379 58 C 340 14 290 -7 228 -7 Z M 229 84 C 255 84 276 95 291 117 C 305 139 313 174 313 221 C 313 265 305 298 290 319 C 275 339 253 350 225 350 C 201 350 181 339 167 319 C 153 298 146 265 146 219 C 146 169 153 134 169 114 C 184 94 204 84 229 84 Z M 226 497 L 226 497 Z M 387 497 L 286 497 L 226 591 L 164 497 L 66 497 L 172 670 L 280 670 L 387 497 Z" unicode="ô" />
<glyph horiz-adv-x="459" d="M 21 0 L 21 0 Z M 228 -7 C 200 -7 173 -2 148 8 C 122 18 100 32 82 51 C 63 69 48 93 37 121 C 26 149 21 180 21 216 C 21 249 26 280 36 308 C 46 336 61 360 79 380 C 97 400 118 415 143 427 C 168 438 195 444 224 444 C 254 444 283 439 309 429 C 335 419 358 404 377 386 C 396 367 411 344 422 318 C 432 291 438 261 438 228 C 438 158 418 102 379 58 C 340 14 290 -7 228 -7 Z M 229 84 C 255 84 276 95 291 117 C 305 139 313 174 313 221 C 313 265 305 298 290 319 C 275 339 253 350 225 350 C 201 350 181 339 167 319 C 153 298 146 265 146 219 C 146 169 153 134 169 114 C 184 94 204 84 229 84 Z M 226 501 L 226 501 Z M 303 649 L 391 649 C 391 599 383 561 369 537 C 354 513 335 501 313 501 C 293 501 277 504 264 511 C 250 517 239 523 231 529 C 222 534 213 539 205 545 C 197 551 188 554 180 554 C 172 554 165 549 159 541 C 153 532 151 520 151 504 L 63 504 C 63 554 72 591 90 615 C 108 639 128 652 150 652 C 168 652 183 648 195 642 C 207 635 217 628 227 622 C 235 616 243 611 251 606 C 258 600 265 598 273 598 C 279 598 286 602 293 611 C 299 619 303 632 303 649 Z" unicode="õ" />
<glyph horiz-adv-x="459" d="M 21 0 L 21 0 Z M 228 -7 C 200 -7 173 -2 148 8 C 122 18 100 32 82 51 C 63 69 48 93 37 121 C 26 149 21 180 21 216 C 21 249 26 280 36 308 C 46 336 61 360 79 380 C 97 400 118 415 143 427 C 168 438 195 444 224 444 C 254 444 283 439 309 429 C 335 419 358 404 377 386 C 396 367 411 344 422 318 C 432 291 438 261 438 228 C 438 158 418 102 379 58 C 340 14 290 -7 228 -7 Z M 229 84 C 255 84 276 95 291 117 C 305 139 313 174 313 221 C 313 265 305 298 290 319 C 275 339 253 350 225 350 C 201 350 181 339 167 319 C 153 298 146 265 146 219 C 146 169 153 134 169 114 C 184 94 204 84 229 84 Z M 226 497 L 226 497 Z M 361 497 L 263 497 L 263 657 L 361 657 L 361 497 Z M 189 497 L 91 497 L 91 657 L 189 657 L 189 497 Z" unicode="ö" />
<glyph horiz-adv-x="500" d="M 194 448 L 194 573 L 306 573 L 306 448 L 194 448 Z M 23 279 L 23 382 L 477 382 L 477 279 L 23 279 Z M 194 87 L 194 211 L 306 211 L 306 87 L 194 87 Z" unicode="÷" />
<glyph horiz-adv-x="459" d="M 438 228 C 438 158 418 102 379 58 C 340 14 290 -7 228 -7 C 204 -7 182 -3 160 3 C 138 10 119 20 102 33 L 68 -6 L 35 27 L 69 66 C 54 84 42 106 34 131 C 25 156 21 184 21 216 C 21 249 26 280 36 308 C 46 336 61 360 79 380 C 97 400 118 415 143 427 C 168 438 195 444 224 444 C 250 444 275 440 298 433 C 321 425 342 415 360 401 L 396 442 L 427 410 L 392 369 C 406 351 418 330 426 306 C 434 282 438 256 438 228 Z M 146 219 C 146 207 146 197 147 187 C 148 177 149 168 151 160 L 290 320 C 282 330 273 337 262 342 C 251 347 239 350 225 350 C 201 350 181 339 167 319 C 153 298 146 265 146 219 Z M 313 221 C 313 231 312 240 312 249 C 311 257 310 265 309 273 L 170 112 C 177 102 186 94 196 90 C 206 86 217 84 229 84 C 255 84 276 95 291 117 C 305 139 313 174 313 221 Z" unicode="ø" />
<glyph horiz-adv-x="457" d="M 39 0 L 39 0 Z M 39 436 L 158 436 L 158 152 C 158 128 163 111 175 100 C 187 89 203 84 224 84 C 244 84 261 90 275 103 C 289 116 296 138 296 170 L 296 436 L 415 436 L 415 0 L 300 0 L 300 54 C 290 35 274 20 252 9 C 230 -1 205 -7 177 -7 C 139 -7 106 4 79 26 C 52 48 39 82 39 129 L 39 436 Z M 227 496 L 227 496 Z M 344 496 L 227 496 L 110 666 L 249 666 L 344 496 Z" unicode="ù" />
<glyph horiz-adv-x="457" d="M 39 0 L 39 0 Z M 39 436 L 158 436 L 158 152 C 158 128 163 111 175 100 C 187 89 203 84 224 84 C 244 84 261 90 275 103 C 289 116 296 138 296 170 L 296 436 L 415 436 L 415 0 L 300 0 L 300 54 C 290 35 274 20 252 9 C 230 -1 205 -7 177 -7 C 139 -7 106 4 79 26 C 52 48 39 82 39 129 L 39 436 Z M 227 496 L 227 496 Z M 111 496 L 205 666 L 344 666 L 227 496 L 111 496 Z" unicode="ú" />
<glyph horiz-adv-x="457" d="M 39 0 L 39 0 Z M 39 436 L 158 436 L 158 152 C 158 128 163 111 175 100 C 187 89 203 84 224 84 C 244 84 261 90 275 103 C 289 116 296 138 296 170 L 296 436 L 415 436 L 415 0 L 300 0 L 300 54 C 290 35 274 20 252 9 C 230 -1 205 -7 177 -7 C 139 -7 106 4 79 26 C 52 48 39 82 39 129 L 39 436 Z M 227 497 L 227 497 Z M 388 497 L 287 497 L 227 591 L 165 497 L 67 497 L 173 670 L 281 670 L 388 497 Z" unicode="û" />
<glyph horiz-adv-x="457" d="M 39 0 L 39 0 Z M 39 436 L 158 436 L 158 152 C 158 128 163 111 175 100 C 187 89 203 84 224 84 C 244 84 261 90 275 103 C 289 116 296 138 296 170 L 296 436 L 415 436 L 415 0 L 300 0 L 300 54 C 290 35 274 20 252 9 C 230 -1 205 -7 177 -7 C 139 -7 106 4 79 26 C 52 48 39 82 39 129 L 39 436 Z M 227 497 L 227 497 Z M 362 497 L 264 497 L 264 657 L 362 657 L 362 497 Z M 190 497 L 92 497 L 92 657 L 190 657 L 190 497 Z" unicode="ü" />
<glyph horiz-adv-x="407" d="M 0 0 L 0 0 Z M 412 436 L 210 -99 C 194 -137 173 -163 146 -178 C 119 -192 90 -200 60 -200 C 46 -200 33 -198 21 -195 C 9 -191 0 -188 -7 -185 L 26 -91 C 28 -92 34 -94 42 -96 C 50 -98 57 -100 65 -100 C 77 -100 88 -95 97 -87 C 105 -79 113 -65 120 -47 L 150 40 L -6 436 L 121 436 L 210 185 L 297 436 L 412 436 Z M 206 496 L 206 496 Z M 90 496 L 184 666 L 323 666 L 206 496 L 90 496 Z" unicode="ý" />
<glyph horiz-adv-x="464" d="M 42 -200 L 42 770 L 153 770 L 153 366 C 159 386 174 403 197 419 C 219 435 247 443 280 443 C 306 443 329 437 349 427 C 369 416 386 401 400 383 C 414 364 424 342 432 316 C 439 290 443 262 443 233 C 443 159 426 101 394 59 C 362 17 322 -4 275 -4 C 245 -4 220 1 199 11 C 177 21 163 34 155 48 L 155 -200 L 42 -200 Z M 235 80 C 260 80 280 91 295 113 C 310 135 318 168 318 213 C 318 254 311 287 298 312 C 284 337 263 350 235 350 C 212 350 192 339 176 319 C 160 298 152 261 152 208 C 152 158 160 125 176 107 C 192 89 212 80 235 80 Z" unicode="þ" />
<glyph horiz-adv-x="407" d="M 0 0 L 0 0 Z M 412 436 L 210 -99 C 194 -137 173 -163 146 -178 C 119 -192 90 -200 60 -200 C 46 -200 33 -198 21 -195 C 9 -191 0 -188 -7 -185 L 26 -91 C 28 -92 34 -94 42 -96 C 50 -98 57 -100 65 -100 C 77 -100 88 -95 97 -87 C 105 -79 113 -65 120 -47 L 150 40 L -6 436 L 121 436 L 210 185 L 297 436 L 412 436 Z M 206 497 L 206 497 Z M 341 497 L 243 497 L 243 657 L 341 657 L 341 497 Z M 169 497 L 71 497 L 71 657 L 169 657 L 169 497 Z" unicode="ÿ" />
<glyph horiz-adv-x="552" d="M 0 0 L 0 0 Z M 553 0 L 425 0 L 376 155 L 169 155 L 122 0 L -1 0 L 235 733 L 320 733 L 553 0 Z M 351 260 L 273 504 L 195 260 L 351 260 Z M 273 809 L 273 809 Z M 405 809 L 141 809 L 141 897 L 405 897 L 405 809 Z" unicode="Ā" />
<glyph horiz-adv-x="419" d="M 16 0 L 16 0 Z M 380 0 L 272 0 L 272 47 C 259 31 242 18 221 8 C 200 -2 176 -7 148 -7 C 106 -7 73 5 50 31 C 27 57 16 90 16 132 C 16 180 32 215 65 239 C 98 263 141 276 193 278 L 267 282 L 267 295 C 267 315 260 330 248 340 C 236 350 216 355 190 355 C 165 355 144 351 126 344 C 108 336 94 329 84 322 L 48 398 C 64 410 85 421 113 431 C 140 441 175 446 217 446 C 261 446 300 434 332 411 C 364 388 380 352 380 303 L 380 0 Z M 269 116 L 269 201 L 211 198 C 187 197 168 191 152 181 C 136 171 128 156 128 136 C 128 119 134 106 146 98 C 158 90 173 86 189 86 C 207 86 224 89 238 95 C 252 101 262 108 269 116 Z M 204 515 L 204 515 Z M 336 515 L 72 515 L 72 603 L 336 603 L 336 515 Z" unicode="ā" />
<glyph horiz-adv-x="552" d="M 0 0 L 0 0 Z M 553 0 L 425 0 L 376 155 L 169 155 L 122 0 L -1 0 L 235 733 L 320 733 L 553 0 Z M 351 260 L 273 504 L 195 260 L 351 260 Z M 273 793 L 273 793 Z M 327 953 L 426 953 C 422 897 406 857 378 831 C 350 805 315 793 273 793 C 231 793 196 805 168 831 C 140 857 125 897 121 953 L 219 953 C 220 926 225 905 233 891 C 241 876 254 869 273 869 C 291 869 305 875 313 889 C 321 903 326 924 327 953 Z" unicode="Ă" />
<glyph horiz-adv-x="419" d="M 16 0 L 16 0 Z M 380 0 L 272 0 L 272 47 C 259 31 242 18 221 8 C 200 -2 176 -7 148 -7 C 106 -7 73 5 50 31 C 27 57 16 90 16 132 C 16 180 32 215 65 239 C 98 263 141 276 193 278 L 267 282 L 267 295 C 267 315 260 330 248 340 C 236 350 216 355 190 355 C 165 355 144 351 126 344 C 108 336 94 329 84 322 L 48 398 C 64 410 85 421 113 431 C 140 441 175 446 217 446 C 261 446 300 434 332 411 C 364 388 380 352 380 303 L 380 0 Z M 269 116 L 269 201 L 211 198 C 187 197 168 191 152 181 C 136 171 128 156 128 136 C 128 119 134 106 146 98 C 158 90 173 86 189 86 C 207 86 224 89 238 95 C 252 101 262 108 269 116 Z M 204 499 L 204 499 Z M 258 659 L 357 659 C 353 603 337 563 309 537 C 281 511 246 499 204 499 C 162 499 127 511 99 537 C 71 563 56 603 52 659 L 150 659 C 151 632 156 611 164 597 C 172 582 185 575 204 575 C 222 575 236 581 244 595 C 252 609 257 630 258 659 Z" unicode="ă" />
<glyph horiz-adv-x="552" d="M 0 0 L 0 0 Z M 553 0 L 425 0 L 376 155 L 169 155 L 122 0 L -1 0 L 235 733 L 320 733 L 553 0 Z M 351 260 L 273 504 L 195 260 L 351 260 Z M 445 -7 L 445 -7 Z M 544 -82 L 577 -132 C 556 -154 533 -171 508 -182 C 482 -193 454 -199 424 -199 C 390 -199 363 -191 343 -177 C 323 -162 314 -143 314 -121 C 314 -95 323 -72 343 -50 C 362 -28 391 -10 429 6 L 502 6 C 479 -4 459 -17 442 -31 C 424 -45 416 -59 416 -72 C 416 -84 420 -93 429 -100 C 438 -107 450 -111 464 -111 C 480 -111 495 -108 509 -103 C 523 -97 534 -90 544 -82 Z" unicode="Ą" />
<glyph horiz-adv-x="419" d="M 16 0 L 16 0 Z M 380 0 L 272 0 L 272 47 C 259 31 242 18 221 8 C 200 -2 176 -7 148 -7 C 106 -7 73 5 50 31 C 27 57 16 90 16 132 C 16 180 32 215 65 239 C 98 263 141 276 193 278 L 267 282 L 267 295 C 267 315 260 330 248 340 C 236 350 216 355 190 355 C 165 355 144 351 126 344 C 108 336 94 329 84 322 L 48 398 C 64 410 85 421 113 431 C 140 441 175 446 217 446 C 261 446 300 434 332 411 C 364 388 380 352 380 303 L 380 0 Z M 269 116 L 269 201 L 211 198 C 187 197 168 191 152 181 C 136 171 128 156 128 136 C 128 119 134 106 146 98 C 158 90 173 86 189 86 C 207 86 224 89 238 95 C 252 101 262 108 269 116 Z M 296 -7 L 296 -7 Z M 395 -82 L 428 -132 C 407 -154 384 -171 359 -182 C 333 -193 305 -199 275 -199 C 241 -199 214 -191 194 -177 C 174 -162 165 -143 165 -121 C 165 -95 174 -72 194 -50 C 213 -28 242 -10 280 6 L 353 6 C 330 -4 310 -17 293 -31 C 275 -45 267 -59 267 -72 C 267 -84 271 -93 280 -100 C 289 -107 301 -111 315 -111 C 331 -111 346 -108 360 -103 C 374 -97 385 -90 395 -82 Z" unicode="ą" />
<glyph horiz-adv-x="562" d="M 34 0 L 34 0 Z M 317 -9 C 276 -9 238 -1 204 15 C 169 31 139 54 114 86 C 89 117 69 156 55 203 C 41 250 34 304 34 366 C 34 422 40 474 54 520 C 67 566 86 605 110 637 C 134 669 164 694 200 712 C 236 730 276 739 320 739 C 386 739 436 726 471 700 C 505 674 532 642 551 605 L 451 546 C 439 566 423 584 403 600 C 383 615 356 623 324 623 C 274 623 235 602 207 560 C 179 518 165 452 165 361 C 165 313 169 272 179 240 C 188 207 200 181 216 161 C 231 141 249 127 269 119 C 289 110 309 106 330 106 C 364 106 392 113 413 127 C 434 141 451 161 465 185 L 557 134 C 535 90 505 56 466 30 C 426 4 377 -9 317 -9 Z M 321 790 L 321 790 Z M 205 790 L 299 960 L 438 960 L 321 790 L 205 790 Z" unicode="Ć" />
<glyph horiz-adv-x="392" d="M 21 0 L 21 0 Z M 313 137 L 388 79 C 375 58 356 38 332 20 C 307 2 271 -7 223 -7 C 191 -7 162 -1 137 10 C 112 21 91 37 74 57 C 56 77 43 100 34 128 C 25 155 21 185 21 218 C 21 249 25 278 35 306 C 45 333 58 357 76 377 C 94 397 115 414 141 426 C 167 438 196 444 228 444 C 270 444 305 435 331 418 C 357 401 376 382 390 362 L 313 297 C 304 310 293 321 281 330 C 268 339 252 344 232 344 C 206 344 185 332 169 310 C 153 287 145 257 145 219 C 145 175 154 142 172 120 C 190 98 212 88 238 88 C 258 88 273 93 285 104 C 297 115 306 126 313 137 Z M 214 496 L 214 496 Z M 98 496 L 192 666 L 331 666 L 214 496 L 98 496 Z" unicode="ć" />
<glyph horiz-adv-x="562" d="M 34 0 L 34 0 Z M 317 -9 C 276 -9 238 -1 204 15 C 169 31 139 54 114 86 C 89 117 69 156 55 203 C 41 250 34 304 34 366 C 34 422 40 474 54 520 C 67 566 86 605 110 637 C 134 669 164 694 200 712 C 236 730 276 739 320 739 C 386 739 436 726 471 700 C 505 674 532 642 551 605 L 451 546 C 439 566 423 584 403 600 C 383 615 356 623 324 623 C 274 623 235 602 207 560 C 179 518 165 452 165 361 C 165 313 169 272 179 240 C 188 207 200 181 216 161 C 231 141 249 127 269 119 C 289 110 309 106 330 106 C 364 106 392 113 413 127 C 434 141 451 161 465 185 L 557 134 C 535 90 505 56 466 30 C 426 4 377 -9 317 -9 Z M 321 791 L 321 791 Z M 482 791 L 381 791 L 321 885 L 259 791 L 161 791 L 267 964 L 375 964 L 482 791 Z" unicode="Ĉ" />
<glyph horiz-adv-x="392" d="M 21 0 L 21 0 Z M 313 137 L 388 79 C 375 58 356 38 332 20 C 307 2 271 -7 223 -7 C 191 -7 162 -1 137 10 C 112 21 91 37 74 57 C 56 77 43 100 34 128 C 25 155 21 185 21 218 C 21 249 25 278 35 306 C 45 333 58 357 76 377 C 94 397 115 414 141 426 C 167 438 196 444 228 444 C 270 444 305 435 331 418 C 357 401 376 382 390 362 L 313 297 C 304 310 293 321 281 330 C 268 339 252 344 232 344 C 206 344 185 332 169 310 C 153 287 145 257 145 219 C 145 175 154 142 172 120 C 190 98 212 88 238 88 C 258 88 273 93 285 104 C 297 115 306 126 313 137 Z M 214 497 L 214 497 Z M 375 497 L 274 497 L 214 591 L 152 497 L 54 497 L 160 670 L 268 670 L 375 497 Z" unicode="ĉ" />
<glyph horiz-adv-x="562" d="M 34 0 L 34 0 Z M 317 -9 C 276 -9 238 -1 204 15 C 169 31 139 54 114 86 C 89 117 69 156 55 203 C 41 250 34 304 34 366 C 34 422 40 474 54 520 C 67 566 86 605 110 637 C 134 669 164 694 200 712 C 236 730 276 739 320 739 C 386 739 436 726 471 700 C 505 674 532 642 551 605 L 451 546 C 439 566 423 584 403 600 C 383 615 356 623 324 623 C 274 623 235 602 207 560 C 179 518 165 452 165 361 C 165 313 169 272 179 240 C 188 207 200 181 216 161 C 231 141 249 127 269 119 C 289 110 309 106 330 106 C 364 106 392 113 413 127 C 434 141 451 161 465 185 L 557 134 C 535 90 505 56 466 30 C 426 4 377 -9 317 -9 Z M 321 803 L 321 803 Z M 376 803 L 267 803 L 267 944 L 376 944 L 376 803 Z" unicode="Ċ" />
<glyph horiz-adv-x="392" d="M 21 0 L 21 0 Z M 313 137 L 388 79 C 375 58 356 38 332 20 C 307 2 271 -7 223 -7 C 191 -7 162 -1 137 10 C 112 21 91 37 74 57 C 56 77 43 100 34 128 C 25 155 21 185 21 218 C 21 249 25 278 35 306 C 45 333 58 357 76 377 C 94 397 115 414 141 426 C 167 438 196 444 228 444 C 270 444 305 435 331 418 C 357 401 376 382 390 362 L 313 297 C 304 310 293 321 281 330 C 268 339 252 344 232 344 C 206 344 185 332 169 310 C 153 287 145 257 145 219 C 145 175 154 142 172 120 C 190 98 212 88 238 88 C 258 88 273 93 285 104 C 297 115 306 126 313 137 Z M 214 509 L 214 509 Z M 269 509 L 160 509 L 160 650 L 269 650 L 269 509 Z" unicode="ċ" />
<glyph horiz-adv-x="562" d="M 34 0 L 34 0 Z M 317 -9 C 276 -9 238 -1 204 15 C 169 31 139 54 114 86 C 89 117 69 156 55 203 C 41 250 34 304 34 366 C 34 422 40 474 54 520 C 67 566 86 605 110 637 C 134 669 164 694 200 712 C 236 730 276 739 320 739 C 386 739 436 726 471 700 C 505 674 532 642 551 605 L 451 546 C 439 566 423 584 403 600 C 383 615 356 623 324 623 C 274 623 235 602 207 560 C 179 518 165 452 165 361 C 165 313 169 272 179 240 C 188 207 200 181 216 161 C 231 141 249 127 269 119 C 289 110 309 106 330 106 C 364 106 392 113 413 127 C 434 141 451 161 465 185 L 557 134 C 535 90 505 56 466 30 C 426 4 377 -9 317 -9 Z M 321 791 L 321 791 Z M 161 964 L 261 964 L 322 870 L 383 964 L 482 964 L 375 791 L 267 791 L 161 964 Z" unicode="Č" />
<glyph horiz-adv-x="392" d="M 21 0 L 21 0 Z M 313 137 L 388 79 C 375 58 356 38 332 20 C 307 2 271 -7 223 -7 C 191 -7 162 -1 137 10 C 112 21 91 37 74 57 C 56 77 43 100 34 128 C 25 155 21 185 21 218 C 21 249 25 278 35 306 C 45 333 58 357 76 377 C 94 397 115 414 141 426 C 167 438 196 444 228 444 C 270 444 305 435 331 418 C 357 401 376 382 390 362 L 313 297 C 304 310 293 321 281 330 C 268 339 252 344 232 344 C 206 344 185 332 169 310 C 153 287 145 257 145 219 C 145 175 154 142 172 120 C 190 98 212 88 238 88 C 258 88 273 93 285 104 C 297 115 306 126 313 137 Z M 214 497 L 214 497 Z M 54 670 L 154 670 L 215 576 L 276 670 L 375 670 L 268 497 L 160 497 L 54 670 Z" unicode="č" />
<glyph horiz-adv-x="614" d="M 63 0 L 63 0 Z M 63 0 L 63 730 L 261 730 C 312 730 357 721 397 703 C 437 685 470 661 497 629 C 524 597 545 559 559 514 C 573 469 580 420 580 366 C 580 314 573 266 559 222 C 545 177 525 138 497 106 C 469 73 435 47 393 28 C 351 9 303 0 249 0 L 63 0 Z M 192 110 L 253 110 C 322 110 372 133 402 180 C 432 226 447 287 447 363 C 447 448 430 512 398 554 C 365 596 320 618 262 618 L 192 618 L 192 110 Z M 281 791 L 281 791 Z M 121 964 L 221 964 L 282 870 L 343 964 L 442 964 L 335 791 L 227 791 L 121 964 Z" unicode="Ď" />
<glyph horiz-adv-x="473" d="M 21 0 L 21 0 Z M 197 -6 C 170 -6 146 0 124 10 C 102 21 84 36 69 56 C 53 75 41 98 33 125 C 25 151 21 180 21 211 C 21 281 38 337 73 379 C 108 421 151 442 202 442 C 230 442 254 436 274 424 C 294 412 307 398 315 382 L 315 770 L 428 770 L 428 0 L 319 0 L 319 52 C 312 39 299 26 280 13 C 261 0 233 -6 197 -6 Z M 233 83 C 258 83 278 95 294 119 C 309 143 317 176 317 220 C 317 264 308 297 291 317 C 274 337 253 348 229 348 C 203 348 182 336 168 314 C 153 291 146 259 146 217 C 146 177 153 144 168 120 C 183 95 205 83 233 83 Z M 584 621 L 579 473 L 477 473 L 471 621 L 471 730 L 584 730 L 584 621 Z" unicode="ď" />
<glyph horiz-adv-x="614" d="M 20 0 L 20 0 Z M 580 363 C 580 312 573 264 559 220 C 545 176 525 137 497 105 C 469 73 435 47 393 28 C 351 9 303 0 249 0 L 63 0 L 63 312 L 20 312 L 20 408 L 63 408 L 63 730 L 261 730 C 313 730 358 721 398 703 C 438 685 471 661 498 629 C 525 597 545 559 559 513 C 573 467 580 417 580 363 Z M 191 104 L 253 104 C 288 104 318 110 343 123 C 367 135 387 153 403 175 C 419 197 430 224 437 256 C 444 288 448 323 448 361 C 448 450 431 516 399 560 C 366 603 321 625 263 625 L 191 625 L 191 408 L 331 408 L 331 312 L 191 312 L 191 104 Z" unicode="Đ" />
<glyph horiz-adv-x="469" d="M 319 52 C 312 39 299 26 280 13 C 261 0 233 -6 197 -6 C 170 -6 146 0 124 10 C 102 21 84 36 69 56 C 53 75 41 98 33 125 C 25 151 21 180 21 211 C 21 281 38 337 73 379 C 108 421 151 442 202 442 C 230 442 254 436 274 424 C 294 412 307 398 315 382 L 315 555 L 210 555 L 210 649 L 315 649 L 315 770 L 428 770 L 428 649 L 460 649 L 460 555 L 428 555 L 428 0 L 319 0 L 319 52 Z M 233 83 C 258 83 278 95 294 119 C 309 143 317 176 317 220 C 317 264 308 297 291 317 C 274 337 253 348 229 348 C 203 348 182 336 168 314 C 153 291 146 259 146 217 C 146 177 153 144 168 120 C 183 95 205 83 233 83 Z" unicode="đ" />
<glyph horiz-adv-x="466" d="M 63 0 L 63 0 Z M 444 0 L 63 0 L 63 730 L 425 730 L 425 615 L 190 615 L 190 420 L 413 420 L 413 306 L 190 306 L 190 115 L 444 115 L 444 0 Z M 243 809 L 243 809 Z M 375 809 L 111 809 L 111 897 L 375 897 L 375 809 Z" unicode="Ē" />
<glyph horiz-adv-x="436" d="M 22 0 L 22 0 Z M 229 -7 C 168 -7 118 12 80 51 C 41 90 22 145 22 215 C 22 250 27 282 37 310 C 47 338 62 362 80 382 C 98 402 119 417 144 428 C 168 438 195 444 223 444 C 285 444 333 422 367 379 C 401 336 419 272 419 186 L 138 186 C 138 148 147 122 165 106 C 183 90 207 82 237 82 C 265 82 287 86 304 96 C 321 105 336 116 349 129 L 407 67 C 391 48 369 31 343 16 C 316 0 278 -7 229 -7 Z M 140 266 L 306 266 C 304 292 297 314 284 330 C 270 346 251 355 227 355 C 201 355 181 347 166 331 C 151 315 142 293 140 266 Z M 222 515 L 222 515 Z M 354 515 L 90 515 L 90 603 L 354 603 L 354 515 Z" unicode="ē" />
<glyph horiz-adv-x="466" d="M 63 0 L 63 0 Z M 444 0 L 63 0 L 63 730 L 425 730 L 425 615 L 190 615 L 190 420 L 413 420 L 413 306 L 190 306 L 190 115 L 444 115 L 444 0 Z M 243 793 L 243 793 Z M 297 953 L 396 953 C 392 897 376 857 348 831 C 320 805 285 793 243 793 C 201 793 166 805 138 831 C 110 857 95 897 91 953 L 189 953 C 190 926 195 905 203 891 C 211 876 224 869 243 869 C 261 869 275 875 283 889 C 291 903 296 924 297 953 Z" unicode="Ĕ" />
<glyph horiz-adv-x="436" d="M 22 0 L 22 0 Z M 229 -7 C 168 -7 118 12 80 51 C 41 90 22 145 22 215 C 22 250 27 282 37 310 C 47 338 62 362 80 382 C 98 402 119 417 144 428 C 168 438 195 444 223 444 C 285 444 333 422 367 379 C 401 336 419 272 419 186 L 138 186 C 138 148 147 122 165 106 C 183 90 207 82 237 82 C 265 82 287 86 304 96 C 321 105 336 116 349 129 L 407 67 C 391 48 369 31 343 16 C 316 0 278 -7 229 -7 Z M 140 266 L 306 266 C 304 292 297 314 284 330 C 270 346 251 355 227 355 C 201 355 181 347 166 331 C 151 315 142 293 140 266 Z M 222 499 L 222 499 Z M 276 659 L 375 659 C 371 603 355 563 327 537 C 299 511 264 499 222 499 C 180 499 145 511 117 537 C 89 563 74 603 70 659 L 168 659 C 169 632 174 611 182 597 C 190 582 203 575 222 575 C 240 575 254 581 262 595 C 270 609 275 630 276 659 Z" unicode="ĕ" />
<glyph horiz-adv-x="466" d="M 63 0 L 63 0 Z M 444 0 L 63 0 L 63 730 L 425 730 L 425 615 L 190 615 L 190 420 L 413 420 L 413 306 L 190 306 L 190 115 L 444 115 L 444 0 Z M 243 803 L 243 803 Z M 298 803 L 189 803 L 189 944 L 298 944 L 298 803 Z" unicode="Ė" />
<glyph horiz-adv-x="436" d="M 22 0 L 22 0 Z M 229 -7 C 168 -7 118 12 80 51 C 41 90 22 145 22 215 C 22 250 27 282 37 310 C 47 338 62 362 80 382 C 98 402 119 417 144 428 C 168 438 195 444 223 444 C 285 444 333 422 367 379 C 401 336 419 272 419 186 L 138 186 C 138 148 147 122 165 106 C 183 90 207 82 237 82 C 265 82 287 86 304 96 C 321 105 336 116 349 129 L 407 67 C 391 48 369 31 343 16 C 316 0 278 -7 229 -7 Z M 140 266 L 306 266 C 304 292 297 314 284 330 C 270 346 251 355 227 355 C 201 355 181 347 166 331 C 151 315 142 293 140 266 Z M 222 509 L 222 509 Z M 277 509 L 168 509 L 168 650 L 277 650 L 277 509 Z" unicode="ė" />
<glyph horiz-adv-x="466" d="M 63 0 L 63 0 Z M 444 0 L 63 0 L 63 730 L 425 730 L 425 615 L 190 615 L 190 420 L 413 420 L 413 306 L 190 306 L 190 115 L 444 115 L 444 0 Z M 387 -7 L 387 -7 Z M 486 -82 L 519 -132 C 498 -154 475 -171 450 -182 C 424 -193 396 -199 366 -199 C 332 -199 305 -191 285 -177 C 265 -162 256 -143 256 -121 C 256 -95 265 -72 285 -50 C 304 -28 333 -10 371 6 L 444 6 C 421 -4 401 -17 384 -31 C 366 -45 358 -59 358 -72 C 358 -84 362 -93 371 -100 C 380 -107 392 -111 406 -111 C 422 -111 437 -108 451 -103 C 465 -97 476 -90 486 -82 Z" unicode="Ę" />
<glyph horiz-adv-x="436" d="M 22 0 L 22 0 Z M 229 -7 C 168 -7 118 12 80 51 C 41 90 22 145 22 215 C 22 250 27 282 37 310 C 47 338 62 362 80 382 C 98 402 119 417 144 428 C 168 438 195 444 223 444 C 285 444 333 422 367 379 C 401 336 419 272 419 186 L 138 186 C 138 148 147 122 165 106 C 183 90 207 82 237 82 C 265 82 287 86 304 96 C 321 105 336 116 349 129 L 407 67 C 391 48 369 31 343 16 C 316 0 278 -7 229 -7 Z M 140 266 L 306 266 C 304 292 297 314 284 330 C 270 346 251 355 227 355 C 201 355 181 347 166 331 C 151 315 142 293 140 266 Z M 262 -7 L 262 -7 Z M 361 -82 L 394 -132 C 373 -154 350 -171 325 -182 C 299 -193 271 -199 241 -199 C 207 -199 180 -191 160 -177 C 140 -162 131 -143 131 -121 C 131 -95 140 -72 160 -50 C 179 -28 208 -10 246 6 L 319 6 C 296 -4 276 -17 259 -31 C 241 -45 233 -59 233 -72 C 233 -84 237 -93 246 -100 C 255 -107 267 -111 281 -111 C 297 -111 312 -108 326 -103 C 340 -97 351 -90 361 -82 Z" unicode="ę" />
<glyph horiz-adv-x="466" d="M 63 0 L 63 0 Z M 444 0 L 63 0 L 63 730 L 425 730 L 425 615 L 190 615 L 190 420 L 413 420 L 413 306 L 190 306 L 190 115 L 444 115 L 444 0 Z M 243 791 L 243 791 Z M 83 964 L 183 964 L 244 870 L 305 964 L 404 964 L 297 791 L 189 791 L 83 964 Z" unicode="Ě" />
<glyph horiz-adv-x="436" d="M 22 0 L 22 0 Z M 229 -7 C 168 -7 118 12 80 51 C 41 90 22 145 22 215 C 22 250 27 282 37 310 C 47 338 62 362 80 382 C 98 402 119 417 144 428 C 168 438 195 444 223 444 C 285 444 333 422 367 379 C 401 336 419 272 419 186 L 138 186 C 138 148 147 122 165 106 C 183 90 207 82 237 82 C 265 82 287 86 304 96 C 321 105 336 116 349 129 L 407 67 C 391 48 369 31 343 16 C 316 0 278 -7 229 -7 Z M 140 266 L 306 266 C 304 292 297 314 284 330 C 270 346 251 355 227 355 C 201 355 181 347 166 331 C 151 315 142 293 140 266 Z M 222 497 L 222 497 Z M 62 670 L 162 670 L 223 576 L 284 670 L 383 670 L 276 497 L 168 497 L 62 670 Z" unicode="ě" />
<glyph horiz-adv-x="605" d="M 34 0 L 34 0 Z M 322 377 L 578 377 L 578 127 C 557 87 525 55 483 29 C 440 3 386 -9 321 -9 C 281 -9 243 0 208 16 C 173 33 143 58 117 90 C 91 122 71 161 56 208 C 41 254 34 307 34 365 C 34 421 41 473 55 519 C 69 565 89 605 115 637 C 141 669 171 694 207 712 C 243 729 282 738 324 738 C 388 738 438 724 472 698 C 506 671 531 641 547 607 L 447 554 C 436 572 421 588 402 603 C 383 617 357 625 323 625 C 276 625 238 603 208 560 C 178 516 164 451 164 364 C 164 276 179 210 210 166 C 241 121 281 99 329 99 C 361 99 389 104 411 116 C 433 128 451 143 463 162 L 463 266 L 322 266 L 322 377 Z M 321 791 L 321 791 Z M 482 791 L 381 791 L 321 885 L 259 791 L 161 791 L 267 964 L 375 964 L 482 791 Z" unicode="Ĝ" />
<glyph horiz-adv-x="468" d="M 21 0 L 21 0 Z M 201 -1 C 149 -1 106 18 72 57 C 38 95 21 148 21 215 C 21 250 25 282 35 310 C 45 338 58 362 74 382 C 90 401 109 416 131 426 C 153 436 176 442 201 442 C 228 442 252 435 272 423 C 292 411 307 397 316 381 L 316 436 L 427 436 L 427 20 C 427 -16 421 -48 410 -75 C 398 -101 383 -123 364 -141 C 345 -158 323 -171 298 -179 C 272 -187 246 -192 219 -192 C 178 -192 145 -187 119 -178 C 93 -169 73 -160 61 -151 L 97 -68 C 109 -76 125 -83 144 -89 C 163 -95 186 -99 212 -99 C 242 -99 266 -89 285 -71 C 303 -53 313 -26 313 8 L 313 57 C 305 41 291 28 271 16 C 251 4 228 -1 201 -1 Z M 232 83 C 258 83 278 94 294 118 C 309 141 317 175 317 221 C 317 263 308 295 291 318 C 273 341 252 353 228 353 C 203 353 183 341 168 317 C 153 293 146 260 146 218 C 146 176 153 143 167 119 C 181 95 203 83 232 83 Z M 219 497 L 219 497 Z M 380 497 L 279 497 L 219 591 L 157 497 L 59 497 L 165 670 L 273 670 L 380 497 Z" unicode="ĝ" />
<glyph horiz-adv-x="605" d="M 34 0 L 34 0 Z M 322 377 L 578 377 L 578 127 C 557 87 525 55 483 29 C 440 3 386 -9 321 -9 C 281 -9 243 0 208 16 C 173 33 143 58 117 90 C 91 122 71 161 56 208 C 41 254 34 307 34 365 C 34 421 41 473 55 519 C 69 565 89 605 115 637 C 141 669 171 694 207 712 C 243 729 282 738 324 738 C 388 738 438 724 472 698 C 506 671 531 641 547 607 L 447 554 C 436 572 421 588 402 603 C 383 617 357 625 323 625 C 276 625 238 603 208 560 C 178 516 164 451 164 364 C 164 276 179 210 210 166 C 241 121 281 99 329 99 C 361 99 389 104 411 116 C 433 128 451 143 463 162 L 463 266 L 322 266 L 322 377 Z M 321 793 L 321 793 Z M 375 953 L 474 953 C 470 897 454 857 426 831 C 398 805 363 793 321 793 C 279 793 244 805 216 831 C 188 857 173 897 169 953 L 267 953 C 268 926 273 905 281 891 C 289 876 302 869 321 869 C 339 869 353 875 361 889 C 369 903 374 924 375 953 Z" unicode="Ğ" />
<glyph horiz-adv-x="468" d="M 21 0 L 21 0 Z M 201 -1 C 149 -1 106 18 72 57 C 38 95 21 148 21 215 C 21 250 25 282 35 310 C 45 338 58 362 74 382 C 90 401 109 416 131 426 C 153 436 176 442 201 442 C 228 442 252 435 272 423 C 292 411 307 397 316 381 L 316 436 L 427 436 L 427 20 C 427 -16 421 -48 410 -75 C 398 -101 383 -123 364 -141 C 345 -158 323 -171 298 -179 C 272 -187 246 -192 219 -192 C 178 -192 145 -187 119 -178 C 93 -169 73 -160 61 -151 L 97 -68 C 109 -76 125 -83 144 -89 C 163 -95 186 -99 212 -99 C 242 -99 266 -89 285 -71 C 303 -53 313 -26 313 8 L 313 57 C 305 41 291 28 271 16 C 251 4 228 -1 201 -1 Z M 232 83 C 258 83 278 94 294 118 C 309 141 317 175 317 221 C 317 263 308 295 291 318 C 273 341 252 353 228 353 C 203 353 183 341 168 317 C 153 293 146 260 146 218 C 146 176 153 143 167 119 C 181 95 203 83 232 83 Z M 219 499 L 219 499 Z M 273 659 L 372 659 C 368 603 352 563 324 537 C 296 511 261 499 219 499 C 177 499 142 511 114 537 C 86 563 71 603 67 659 L 165 659 C 166 632 171 611 179 597 C 187 582 200 575 219 575 C 237 575 251 581 259 595 C 267 609 272 630 273 659 Z" unicode="ğ" />
<glyph horiz-adv-x="605" d="M 34 0 L 34 0 Z M 322 377 L 578 377 L 578 127 C 557 87 525 55 483 29 C 440 3 386 -9 321 -9 C 281 -9 243 0 208 16 C 173 33 143 58 117 90 C 91 122 71 161 56 208 C 41 254 34 307 34 365 C 34 421 41 473 55 519 C 69 565 89 605 115 637 C 141 669 171 694 207 712 C 243 729 282 738 324 738 C 388 738 438 724 472 698 C 506 671 531 641 547 607 L 447 554 C 436 572 421 588 402 603 C 383 617 357 625 323 625 C 276 625 238 603 208 560 C 178 516 164 451 164 364 C 164 276 179 210 210 166 C 241 121 281 99 329 99 C 361 99 389 104 411 116 C 433 128 451 143 463 162 L 463 266 L 322 266 L 322 377 Z M 321 803 L 321 803 Z M 376 803 L 267 803 L 267 944 L 376 944 L 376 803 Z" unicode="Ġ" />
<glyph horiz-adv-x="468" d="M 21 0 L 21 0 Z M 201 -1 C 149 -1 106 18 72 57 C 38 95 21 148 21 215 C 21 250 25 282 35 310 C 45 338 58 362 74 382 C 90 401 109 416 131 426 C 153 436 176 442 201 442 C 228 442 252 435 272 423 C 292 411 307 397 316 381 L 316 436 L 427 436 L 427 20 C 427 -16 421 -48 410 -75 C 398 -101 383 -123 364 -141 C 345 -158 323 -171 298 -179 C 272 -187 246 -192 219 -192 C 178 -192 145 -187 119 -178 C 93 -169 73 -160 61 -151 L 97 -68 C 109 -76 125 -83 144 -89 C 163 -95 186 -99 212 -99 C 242 -99 266 -89 285 -71 C 303 -53 313 -26 313 8 L 313 57 C 305 41 291 28 271 16 C 251 4 228 -1 201 -1 Z M 232 83 C 258 83 278 94 294 118 C 309 141 317 175 317 221 C 317 263 308 295 291 318 C 273 341 252 353 228 353 C 203 353 183 341 168 317 C 153 293 146 260 146 218 C 146 176 153 143 167 119 C 181 95 203 83 232 83 Z M 219 509 L 219 509 Z M 274 509 L 165 509 L 165 650 L 274 650 L 274 509 Z" unicode="ġ" />
<glyph horiz-adv-x="605" d="M 34 0 L 34 0 Z M 322 377 L 578 377 L 578 127 C 557 87 525 55 483 29 C 440 3 386 -9 321 -9 C 281 -9 243 0 208 16 C 173 33 143 58 117 90 C 91 122 71 161 56 208 C 41 254 34 307 34 365 C 34 421 41 473 55 519 C 69 565 89 605 115 637 C 141 669 171 694 207 712 C 243 729 282 738 324 738 C 388 738 438 724 472 698 C 506 671 531 641 547 607 L 447 554 C 436 572 421 588 402 603 C 383 617 357 625 323 625 C 276 625 238 603 208 560 C 178 516 164 451 164 364 C 164 276 179 210 210 166 C 241 121 281 99 329 99 C 361 99 389 104 411 116 C 433 128 451 143 463 162 L 463 266 L 322 266 L 322 377 Z" unicode="Ģ" />
<glyph horiz-adv-x="468" d="M 21 0 L 21 0 Z M 201 -1 C 149 -1 106 18 72 57 C 38 95 21 148 21 215 C 21 250 25 282 35 310 C 45 338 58 362 74 382 C 90 401 109 416 131 426 C 153 436 176 442 201 442 C 228 442 252 435 272 423 C 292 411 307 397 316 381 L 316 436 L 427 436 L 427 20 C 427 -16 421 -48 410 -75 C 398 -101 383 -123 364 -141 C 345 -158 323 -171 298 -179 C 272 -187 246 -192 219 -192 C 178 -192 145 -187 119 -178 C 93 -169 73 -160 61 -151 L 97 -68 C 109 -76 125 -83 144 -89 C 163 -95 186 -99 212 -99 C 242 -99 266 -89 285 -71 C 303 -53 313 -26 313 8 L 313 57 C 305 41 291 28 271 16 C 251 4 228 -1 201 -1 Z M 232 83 C 258 83 278 94 294 118 C 309 141 317 175 317 221 C 317 263 308 295 291 318 C 273 341 252 353 228 353 C 203 353 183 341 168 317 C 153 293 146 260 146 218 C 146 176 153 143 167 119 C 181 95 203 83 232 83 Z" unicode="ģ" />
<glyph horiz-adv-x="612" d="M 63 0 L 63 0 Z M 549 0 L 419 0 L 419 301 L 193 301 L 193 0 L 63 0 L 63 730 L 193 730 L 193 419 L 419 419 L 419 730 L 549 730 L 549 0 Z M 306 791 L 306 791 Z M 467 791 L 366 791 L 306 885 L 244 791 L 146 791 L 252 964 L 360 964 L 467 791 Z" unicode="Ĥ" />
<glyph horiz-adv-x="457" d="M 42 0 L 42 0 Z M 418 0 L 299 0 L 299 275 C 299 297 293 315 281 327 C 269 339 254 345 234 345 C 214 345 196 338 182 326 C 167 314 160 293 160 265 L 160 0 L 42 0 L 42 770 L 153 770 L 153 373 C 161 392 175 409 195 423 C 215 437 243 444 279 444 C 321 444 354 432 380 410 C 405 388 418 354 418 309 L 418 0 Z M 230 831 L 230 831 Z M 391 831 L 290 831 L 230 925 L 168 831 L 70 831 L 176 1004 L 284 1004 L 391 831 Z" unicode="ĥ" />
<glyph horiz-adv-x="612" d="M 193 301 L 193 0 L 63 0 L 63 539 L 9 539 L 9 632 L 63 632 L 63 730 L 193 730 L 193 632 L 419 632 L 419 730 L 549 730 L 549 632 L 603 632 L 603 539 L 549 539 L 549 0 L 419 0 L 419 301 L 193 301 Z M 193 419 L 419 419 L 419 539 L 193 539 L 193 419 Z" unicode="Ħ" />
<glyph horiz-adv-x="457" d="M 160 265 L 160 0 L 42 0 L 42 556 L 9 556 L 9 649 L 42 649 L 42 770 L 153 770 L 153 649 L 263 649 L 263 556 L 153 556 L 153 373 C 161 392 175 409 195 423 C 215 437 243 444 279 444 C 321 444 354 432 380 410 C 405 388 418 354 418 309 L 418 0 L 299 0 L 299 275 C 299 297 293 315 281 327 C 269 339 254 345 234 345 C 214 345 196 338 182 326 C 167 314 160 293 160 265 Z" unicode="ħ" />
<glyph horiz-adv-x="264" d="M 0 0 L 0 0 Z M 198 0 L 67 0 L 67 730 L 198 730 L 198 0 Z M 133 795 L 133 795 Z M 210 943 L 298 943 C 298 893 290 855 276 831 C 261 807 242 795 220 795 C 200 795 184 798 171 805 C 157 811 146 817 138 823 C 129 828 120 833 112 839 C 104 845 95 848 87 848 C 79 848 72 843 66 835 C 60 826 58 814 58 798 L -30 798 C -30 848 -20 885 -2 909 C 15 933 35 946 57 946 C 75 946 90 942 102 936 C 114 929 124 922 134 916 C 142 910 150 905 158 900 C 165 894 172 892 180 892 C 186 892 193 896 200 905 C 206 913 210 926 210 943 Z" unicode="Ĩ" />
<glyph horiz-adv-x="208" d="M 0 0 L 0 0 Z M 164 0 L 45 0 L 45 436 L 164 436 L 164 0 Z M 104 501 L 104 501 Z M 181 649 L 269 649 C 269 599 261 561 247 537 C 232 513 213 501 191 501 C 171 501 155 504 142 511 C 128 517 117 523 109 529 C 100 534 91 539 83 545 C 75 551 66 554 58 554 C 50 554 43 549 37 541 C 31 532 29 520 29 504 L -59 504 C -59 554 -49 591 -31 615 C -13 639 6 652 28 652 C 46 652 61 648 73 642 C 85 635 95 628 105 622 C 113 616 121 611 129 606 C 136 600 143 598 151 598 C 157 598 164 602 171 611 C 177 619 181 632 181 649 Z" unicode="ĩ" />
<glyph horiz-adv-x="264" d="M 1 0 L 1 0 Z M 198 0 L 67 0 L 67 730 L 198 730 L 198 0 Z M 133 809 L 133 809 Z M 265 809 L 1 809 L 1 897 L 265 897 L 265 809 Z" unicode="Ī" />
<glyph horiz-adv-x="208" d="M 0 0 L 0 0 Z M 164 0 L 45 0 L 45 436 L 164 436 L 164 0 Z M 104 515 L 104 515 Z M 236 515 L -28 515 L -28 603 L 236 603 L 236 515 Z" unicode="ī" />
<glyph horiz-adv-x="264" d="M 0 0 L 0 0 Z M 198 0 L 67 0 L 67 730 L 198 730 L 198 0 Z M 133 793 L 133 793 Z M 187 953 L 286 953 C 282 897 266 857 238 831 C 210 805 175 793 133 793 C 91 793 56 805 28 831 C 0 857 -15 897 -19 953 L 79 953 C 80 926 85 905 93 891 C 101 876 114 869 133 869 C 151 869 165 875 173 889 C 181 903 186 924 187 953 Z" unicode="Ĭ" />
<glyph horiz-adv-x="208" d="M 0 0 L 0 0 Z M 164 0 L 45 0 L 45 436 L 164 436 L 164 0 Z M 104 499 L 104 499 Z M 158 659 L 257 659 C 253 603 237 563 209 537 C 181 511 146 499 104 499 C 62 499 27 511 0 537 C -28 563 -44 603 -48 659 L 50 659 C 51 632 56 611 64 597 C 72 582 85 575 104 575 C 122 575 136 581 144 595 C 152 609 157 630 158 659 Z" unicode="ĭ" />
<glyph horiz-adv-x="264" d="M 0 0 L 0 0 Z M 198 0 L 67 0 L 67 730 L 198 730 L 198 0 Z M 88 -8 L 88 -8 Z M 187 -83 L 220 -133 C 199 -155 176 -172 151 -183 C 125 -194 97 -200 67 -200 C 33 -200 6 -192 -13 -178 C -33 -163 -43 -144 -43 -122 C -43 -96 -33 -73 -14 -51 C 5 -29 34 -11 72 5 L 145 5 C 122 -5 102 -18 85 -32 C 67 -46 59 -60 59 -73 C 59 -85 63 -94 72 -101 C 81 -108 93 -112 107 -112 C 123 -112 138 -109 152 -104 C 166 -98 177 -91 187 -83 Z" unicode="Į" />
<glyph horiz-adv-x="208" d="M 0 0 L 0 0 Z M 43 512 L 43 627 L 165 627 L 165 512 L 43 512 Z M 45 0 L 45 436 L 164 436 L 164 0 L 45 0 Z M 69 -7 L 69 -7 Z M 168 -82 L 201 -132 C 180 -154 157 -171 132 -182 C 106 -193 78 -199 48 -199 C 14 -199 -12 -191 -32 -177 C -52 -162 -62 -143 -62 -121 C -62 -95 -52 -72 -33 -50 C -13 -28 15 -10 53 6 L 126 6 C 103 -4 83 -17 66 -31 C 48 -45 40 -59 40 -72 C 40 -84 44 -93 53 -100 C 62 -107 74 -111 88 -111 C 104 -111 119 -108 133 -103 C 147 -97 158 -90 168 -82 Z" unicode="į" />
<glyph horiz-adv-x="264" d="M 67 0 L 67 0 Z M 198 0 L 67 0 L 67 730 L 198 730 L 198 0 Z M 133 803 L 133 803 Z M 188 803 L 79 803 L 79 944 L 188 944 L 188 803 Z" unicode="İ" />
<glyph horiz-adv-x="208" d="M 164 0 L 45 0 L 45 436 L 164 436 L 164 0 Z" unicode="ı" />
<glyph horiz-adv-x="561" d="M 67 0 L 67 0 Z M 198 0 L 67 0 L 67 730 L 198 730 L 198 0 Z M 504 730 L 504 188 C 504 132 487 85 455 47 C 423 9 378 -9 322 -9 C 307 -9 292 -8 277 -6 C 261 -4 250 -2 242 0 L 242 116 C 247 113 256 111 268 110 C 280 108 290 108 299 108 C 324 108 343 117 357 136 C 371 155 378 178 378 206 L 378 730 L 504 730 Z" unicode="Ĳ" />
<glyph horiz-adv-x="400" d="M 43 0 L 43 0 Z M 43 512 L 43 627 L 165 627 L 165 512 L 43 512 Z M 45 0 L 45 436 L 164 436 L 164 0 L 45 0 Z M 365 512 L 243 512 L 243 627 L 365 627 L 365 512 Z M 363 436 L 363 -78 C 363 -110 352 -139 331 -164 C 309 -189 279 -201 241 -201 C 228 -201 214 -199 199 -197 C 184 -195 174 -192 169 -190 L 184 -99 C 186 -99 190 -100 195 -101 C 200 -101 205 -102 210 -102 C 220 -102 228 -98 235 -91 C 241 -83 245 -73 245 -59 L 245 436 L 363 436 Z" unicode="ĳ" />
<glyph horiz-adv-x="323" d="M 7 0 L 7 0 Z M 269 730 L 269 188 C 269 132 252 85 220 47 C 188 9 143 -9 87 -9 C 72 -9 57 -8 42 -6 C 26 -4 15 -2 7 0 L 7 116 C 12 113 21 111 33 110 C 45 108 55 108 64 108 C 89 108 108 117 122 136 C 136 155 143 178 143 206 L 143 730 L 269 730 Z M 205 791 L 205 791 Z M 366 791 L 265 791 L 205 885 L 143 791 L 45 791 L 151 964 L 259 964 L 366 791 Z" unicode="Ĵ" />
<glyph horiz-adv-x="202" d="M 0 0 L 0 0 Z M 162 436 L 162 -78 C 162 -110 151 -139 130 -164 C 108 -189 78 -201 40 -201 C 27 -201 13 -199 -1 -197 C -16 -195 -26 -192 -32 -190 L -17 -99 C -14 -99 -10 -100 -5 -101 C 0 -101 4 -102 9 -102 C 19 -102 27 -98 34 -91 C 40 -83 44 -73 44 -59 L 44 436 L 162 436 Z M 101 497 L 101 497 Z M 262 497 L 161 497 L 101 591 L 39 497 L -59 497 L 47 670 L 155 670 L 262 497 Z" unicode="ĵ" />
<glyph horiz-adv-x="579" d="M 63 0 L 63 0 Z M 588 0 L 436 0 L 228 301 L 193 259 L 193 0 L 63 0 L 63 730 L 193 730 L 193 414 L 421 730 L 565 730 L 315 393 L 588 0 Z M 289 -70 L 289 -70 Z M 388 -70 C 387 -92 383 -117 376 -143 C 368 -169 359 -195 349 -219 C 339 -243 327 -264 315 -284 C 302 -304 290 -318 280 -328 L 189 -288 C 196 -278 204 -266 212 -250 C 220 -234 228 -216 235 -197 C 242 -177 248 -157 254 -135 C 259 -113 262 -91 264 -70 L 388 -70 Z" unicode="Ķ" />
<glyph horiz-adv-x="433" d="M 42 0 L 42 0 Z M 447 1 L 315 -1 L 207 166 L 159 106 L 159 0 L 42 0 L 42 770 L 154 770 L 154 235 L 303 436 L 428 436 L 288 250 L 447 1 Z M 216 -70 L 216 -70 Z M 315 -70 C 314 -92 310 -117 303 -143 C 295 -169 286 -195 276 -219 C 266 -243 254 -264 242 -284 C 229 -304 217 -318 207 -328 L 116 -288 C 123 -278 131 -266 139 -250 C 147 -234 155 -216 162 -197 C 169 -177 175 -157 181 -135 C 186 -113 189 -91 191 -70 L 315 -70 Z" unicode="ķ" />
<glyph horiz-adv-x="433" d="M 447 1 L 315 -1 L 207 166 L 159 106 L 159 0 L 42 0 L 42 436 L 154 436 L 154 235 L 303 436 L 428 436 L 288 250 L 447 1 Z" unicode="ĸ" />
<glyph horiz-adv-x="411" d="M 63 0 L 63 0 Z M 404 0 L 63 0 L 63 730 L 193 730 L 193 115 L 404 115 L 404 0 Z M 214 790 L 214 790 Z M 98 790 L 192 960 L 331 960 L 214 790 L 98 790 Z" unicode="Ĺ" />
<glyph horiz-adv-x="202" d="M 42 0 L 42 0 Z M 162 830 L 162 830 Z M 46 830 L 140 1000 L 279 1000 L 162 830 L 46 830 Z M 160 770 L 160 0 L 42 0 L 42 770 L 160 770 Z" unicode="ĺ" />
<glyph horiz-adv-x="411" d="M 63 0 L 63 0 Z M 404 0 L 63 0 L 63 730 L 193 730 L 193 115 L 404 115 L 404 0 Z M 222 -70 L 222 -70 Z M 321 -70 C 320 -92 316 -117 309 -143 C 301 -169 292 -195 282 -219 C 272 -243 260 -264 248 -284 C 235 -304 223 -318 213 -328 L 122 -288 C 129 -278 137 -266 145 -250 C 153 -234 161 -216 168 -197 C 175 -177 181 -157 187 -135 C 192 -113 195 -91 197 -70 L 321 -70 Z" unicode="Ļ" />
<glyph horiz-adv-x="202" d="M 0 0 L 0 0 Z M 160 770 L 160 0 L 42 0 L 42 770 L 160 770 Z M 83 -70 L 83 -70 Z M 182 -70 C 181 -92 177 -117 170 -143 C 162 -169 153 -195 143 -219 C 133 -243 121 -264 109 -284 C 96 -304 84 -318 74 -328 L -17 -288 C -9 -278 -1 -266 6 -250 C 14 -234 22 -216 29 -197 C 36 -177 42 -157 48 -135 C 53 -113 56 -91 58 -70 L 182 -70 Z" unicode="ļ" />
<glyph horiz-adv-x="411" d="M 63 0 L 63 0 Z M 404 0 L 63 0 L 63 730 L 193 730 L 193 115 L 404 115 L 404 0 Z M 402 621 L 397 473 L 295 473 L 289 621 L 289 730 L 402 730 L 402 621 Z" unicode="Ľ" />
<glyph horiz-adv-x="202" d="M 42 0 L 42 0 Z M 160 770 L 160 0 L 42 0 L 42 770 L 160 770 Z M 333 620 L 328 472 L 226 472 L 220 620 L 220 729 L 333 729 L 333 620 Z" unicode="ľ" />
<glyph horiz-adv-x="411" d="M 63 0 L 63 0 Z M 404 0 L 63 0 L 63 730 L 193 730 L 193 115 L 404 115 L 404 0 Z M 325 291 L 325 291 Z M 380 291 L 271 291 L 271 432 L 380 432 L 380 291 Z" unicode="Ŀ" />
<glyph horiz-adv-x="202" d="M 42 0 L 42 0 Z M 160 770 L 160 0 L 42 0 L 42 770 L 160 770 Z M 266 184 L 266 184 Z M 321 184 L 212 184 L 212 325 L 321 325 L 321 184 Z" unicode="ŀ" />
<glyph horiz-adv-x="411" d="M 404 109 L 404 0 L 63 0 L 63 257 L 24 240 L -17 330 L 63 364 L 63 730 L 193 730 L 193 419 L 309 468 L 349 379 L 193 312 L 193 109 L 404 109 Z" unicode="Ł" />
<glyph horiz-adv-x="202" d="M 251 346 L 177 311 L 177 0 L 58 0 L 58 254 L 20 236 L -13 312 L 58 346 L 58 770 L 177 770 L 177 402 L 218 422 L 251 346 Z" unicode="ł" />
<glyph horiz-adv-x="612" d="M 63 0 L 63 0 Z M 550 0 L 460 0 L 185 457 L 185 0 L 63 0 L 63 730 L 156 730 L 431 278 L 431 730 L 550 730 L 550 0 Z M 306 790 L 306 790 Z M 190 790 L 284 960 L 423 960 L 306 790 L 190 790 Z" unicode="Ń" />
<glyph horiz-adv-x="457" d="M 42 0 L 42 0 Z M 418 0 L 299 0 L 299 281 C 299 301 293 316 282 328 C 271 339 255 345 235 345 C 214 345 196 338 182 326 C 167 313 160 292 160 263 L 160 0 L 42 0 L 42 436 L 154 436 L 154 374 C 162 394 177 411 199 424 C 220 437 247 444 280 444 C 322 444 355 433 380 411 C 405 389 418 356 418 314 L 418 0 Z M 228 496 L 228 496 Z M 112 496 L 206 666 L 345 666 L 228 496 L 112 496 Z" unicode="ń" />
<glyph horiz-adv-x="612" d="M 63 0 L 63 0 Z M 550 0 L 460 0 L 185 457 L 185 0 L 63 0 L 63 730 L 156 730 L 431 278 L 431 730 L 550 730 L 550 0 Z M 294 -70 L 294 -70 Z M 393 -70 C 392 -92 388 -117 381 -143 C 373 -169 364 -195 354 -219 C 344 -243 332 -264 320 -284 C 307 -304 295 -318 285 -328 L 194 -288 C 201 -278 209 -266 217 -250 C 225 -234 233 -216 240 -197 C 247 -177 253 -157 259 -135 C 264 -113 267 -91 269 -70 L 393 -70 Z" unicode="Ņ" />
<glyph horiz-adv-x="457" d="M 42 0 L 42 0 Z M 418 0 L 299 0 L 299 281 C 299 301 293 316 282 328 C 271 339 255 345 235 345 C 214 345 196 338 182 326 C 167 313 160 292 160 263 L 160 0 L 42 0 L 42 436 L 154 436 L 154 374 C 162 394 177 411 199 424 C 220 437 247 444 280 444 C 322 444 355 433 380 411 C 405 389 418 356 418 314 L 418 0 Z M 214 -70 L 214 -70 Z M 313 -70 C 312 -92 308 -117 301 -143 C 293 -169 284 -195 274 -219 C 264 -243 252 -264 240 -284 C 227 -304 215 -318 205 -328 L 114 -288 C 121 -278 129 -266 137 -250 C 145 -234 153 -216 160 -197 C 167 -177 173 -157 179 -135 C 184 -113 187 -91 189 -70 L 313 -70 Z" unicode="ņ" />
<glyph horiz-adv-x="612" d="M 63 0 L 63 0 Z M 550 0 L 460 0 L 185 457 L 185 0 L 63 0 L 63 730 L 156 730 L 431 278 L 431 730 L 550 730 L 550 0 Z M 306 791 L 306 791 Z M 146 964 L 246 964 L 307 870 L 368 964 L 467 964 L 360 791 L 252 791 L 146 964 Z" unicode="Ň" />
<glyph horiz-adv-x="457" d="M 42 0 L 42 0 Z M 418 0 L 299 0 L 299 281 C 299 301 293 316 282 328 C 271 339 255 345 235 345 C 214 345 196 338 182 326 C 167 313 160 292 160 263 L 160 0 L 42 0 L 42 436 L 154 436 L 154 374 C 162 394 177 411 199 424 C 220 437 247 444 280 444 C 322 444 355 433 380 411 C 405 389 418 356 418 314 L 418 0 Z M 228 497 L 228 497 Z M 68 670 L 168 670 L 229 576 L 290 670 L 389 670 L 282 497 L 174 497 L 68 670 Z" unicode="ň" />
<glyph horiz-adv-x="616" d="M 431 730 L 550 730 L 550 0 C 550 -56 535 -102 505 -140 C 475 -178 432 -197 376 -197 C 361 -197 346 -196 331 -194 C 315 -192 304 -190 296 -188 L 296 -72 C 301 -74 310 -76 322 -78 C 334 -79 344 -80 353 -80 C 377 -80 397 -70 411 -51 C 425 -32 432 -9 432 18 L 432 47 L 185 457 L 185 0 L 63 0 L 63 730 L 156 730 L 431 278 L 431 730 Z" unicode="Ŋ" />
<glyph horiz-adv-x="457" d="M 280 444 C 322 444 355 433 380 411 C 405 389 418 356 418 314 L 418 -78 C 418 -110 407 -139 385 -164 C 363 -189 333 -201 294 -201 C 282 -201 268 -199 253 -197 C 238 -195 228 -192 222 -190 L 238 -99 C 240 -99 244 -100 249 -101 C 254 -101 259 -102 264 -102 C 274 -102 282 -98 289 -91 C 295 -83 299 -73 299 -59 L 299 281 C 299 301 293 316 282 328 C 271 339 255 345 235 345 C 214 345 196 338 182 326 C 167 313 160 292 160 263 L 160 0 L 42 0 L 42 436 L 154 436 L 154 374 C 162 394 177 411 199 424 C 220 437 247 444 280 444 Z" unicode="ŋ" />
<glyph horiz-adv-x="657" d="M 34 0 L 34 0 Z M 331 -9 C 235 -9 162 24 111 92 C 59 159 34 252 34 371 C 34 426 41 476 55 522 C 69 568 88 606 114 638 C 139 670 170 694 206 712 C 242 730 281 739 325 739 C 418 739 491 706 544 641 C 596 575 623 484 623 366 C 623 308 615 256 601 210 C 586 163 566 123 540 91 C 514 59 484 34 448 17 C 412 0 373 -9 331 -9 Z M 329 104 C 379 104 418 125 447 169 C 476 212 491 279 491 371 C 491 455 476 519 446 561 C 416 603 377 625 327 625 C 277 625 237 604 209 563 C 181 521 167 455 167 365 C 167 273 182 207 212 166 C 242 124 281 104 329 104 Z M 326 809 L 326 809 Z M 458 809 L 194 809 L 194 897 L 458 897 L 458 809 Z" unicode="Ō" />
<glyph horiz-adv-x="459" d="M 21 0 L 21 0 Z M 228 -7 C 200 -7 173 -2 148 8 C 122 18 100 32 82 51 C 63 69 48 93 37 121 C 26 149 21 180 21 216 C 21 249 26 280 36 308 C 46 336 61 360 79 380 C 97 400 118 415 143 427 C 168 438 195 444 224 444 C 254 444 283 439 309 429 C 335 419 358 404 377 386 C 396 367 411 344 422 318 C 432 291 438 261 438 228 C 438 158 418 102 379 58 C 340 14 290 -7 228 -7 Z M 229 84 C 255 84 276 95 291 117 C 305 139 313 174 313 221 C 313 265 305 298 290 319 C 275 339 253 350 225 350 C 201 350 181 339 167 319 C 153 298 146 265 146 219 C 146 169 153 134 169 114 C 184 94 204 84 229 84 Z M 226 515 L 226 515 Z M 358 515 L 94 515 L 94 603 L 358 603 L 358 515 Z" unicode="ō" />
<glyph horiz-adv-x="657" d="M 34 0 L 34 0 Z M 331 -9 C 235 -9 162 24 111 92 C 59 159 34 252 34 371 C 34 426 41 476 55 522 C 69 568 88 606 114 638 C 139 670 170 694 206 712 C 242 730 281 739 325 739 C 418 739 491 706 544 641 C 596 575 623 484 623 366 C 623 308 615 256 601 210 C 586 163 566 123 540 91 C 514 59 484 34 448 17 C 412 0 373 -9 331 -9 Z M 329 104 C 379 104 418 125 447 169 C 476 212 491 279 491 371 C 491 455 476 519 446 561 C 416 603 377 625 327 625 C 277 625 237 604 209 563 C 181 521 167 455 167 365 C 167 273 182 207 212 166 C 242 124 281 104 329 104 Z M 326 793 L 326 793 Z M 380 953 L 479 953 C 475 897 459 857 431 831 C 403 805 368 793 326 793 C 284 793 249 805 221 831 C 193 857 178 897 174 953 L 272 953 C 273 926 278 905 286 891 C 294 876 307 869 326 869 C 344 869 358 875 366 889 C 374 903 379 924 380 953 Z" unicode="Ŏ" />
<glyph horiz-adv-x="459" d="M 21 0 L 21 0 Z M 228 -7 C 200 -7 173 -2 148 8 C 122 18 100 32 82 51 C 63 69 48 93 37 121 C 26 149 21 180 21 216 C 21 249 26 280 36 308 C 46 336 61 360 79 380 C 97 400 118 415 143 427 C 168 438 195 444 224 444 C 254 444 283 439 309 429 C 335 419 358 404 377 386 C 396 367 411 344 422 318 C 432 291 438 261 438 228 C 438 158 418 102 379 58 C 340 14 290 -7 228 -7 Z M 229 84 C 255 84 276 95 291 117 C 305 139 313 174 313 221 C 313 265 305 298 290 319 C 275 339 253 350 225 350 C 201 350 181 339 167 319 C 153 298 146 265 146 219 C 146 169 153 134 169 114 C 184 94 204 84 229 84 Z M 226 499 L 226 499 Z M 280 659 L 379 659 C 375 603 359 563 331 537 C 303 511 268 499 226 499 C 184 499 149 511 121 537 C 93 563 78 603 74 659 L 172 659 C 173 632 178 611 186 597 C 194 582 207 575 226 575 C 244 575 258 581 266 595 C 274 609 279 630 280 659 Z" unicode="ŏ" />
<glyph horiz-adv-x="657" d="M 34 0 L 34 0 Z M 331 -9 C 235 -9 162 24 111 92 C 59 159 34 252 34 371 C 34 426 41 476 55 522 C 69 568 88 606 114 638 C 139 670 170 694 206 712 C 242 730 281 739 325 739 C 418 739 491 706 544 641 C 596 575 623 484 623 366 C 623 308 615 256 601 210 C 586 163 566 123 540 91 C 514 59 484 34 448 17 C 412 0 373 -9 331 -9 Z M 329 104 C 379 104 418 125 447 169 C 476 212 491 279 491 371 C 491 455 476 519 446 561 C 416 603 377 625 327 625 C 277 625 237 604 209 563 C 181 521 167 455 167 365 C 167 273 182 207 212 166 C 242 124 281 104 329 104 Z M 326 790 L 326 790 Z M 127 790 L 204 950 L 331 950 L 232 790 L 127 790 Z M 321 790 L 398 950 L 525 950 L 426 790 L 321 790 Z" unicode="Ő" />
<glyph horiz-adv-x="459" d="M 21 0 L 21 0 Z M 228 -7 C 200 -7 173 -2 148 8 C 122 18 100 32 82 51 C 63 69 48 93 37 121 C 26 149 21 180 21 216 C 21 249 26 280 36 308 C 46 336 61 360 79 380 C 97 400 118 415 143 427 C 168 438 195 444 224 444 C 254 444 283 439 309 429 C 335 419 358 404 377 386 C 396 367 411 344 422 318 C 432 291 438 261 438 228 C 438 158 418 102 379 58 C 340 14 290 -7 228 -7 Z M 229 84 C 255 84 276 95 291 117 C 305 139 313 174 313 221 C 313 265 305 298 290 319 C 275 339 253 350 225 350 C 201 350 181 339 167 319 C 153 298 146 265 146 219 C 146 169 153 134 169 114 C 184 94 204 84 229 84 Z M 226 496 L 226 496 Z M 27 496 L 104 656 L 231 656 L 132 496 L 27 496 Z M 221 496 L 298 656 L 425 656 L 326 496 L 221 496 Z" unicode="ő" />
<glyph horiz-adv-x="883" d="M 306 -8 C 222 -8 156 24 107 90 C 58 155 34 248 34 370 C 34 428 40 479 54 525 C 68 571 87 609 111 641 C 135 672 163 696 197 712 C 231 728 267 737 307 737 C 348 737 385 728 417 710 C 449 692 471 671 482 647 L 482 730 L 842 730 L 842 621 L 607 621 L 607 415 L 830 415 L 830 306 L 607 306 L 607 109 L 861 109 L 861 0 L 482 0 L 482 89 C 471 64 450 42 420 22 C 389 2 351 -8 306 -8 Z M 324 93 C 372 93 410 115 439 160 C 467 205 482 275 482 371 C 482 461 466 528 435 570 C 403 612 366 634 323 634 C 274 634 236 613 208 572 C 180 530 166 462 166 366 C 166 268 180 198 209 156 C 238 114 276 93 324 93 Z" unicode="Œ" />
<glyph horiz-adv-x="726" d="M 221 -7 C 193 -7 167 -2 143 8 C 118 18 97 32 79 52 C 61 71 46 94 36 122 C 26 150 21 181 21 216 C 21 282 40 337 78 380 C 116 422 165 444 225 444 C 267 444 300 435 325 419 C 349 403 365 385 373 367 C 379 383 394 400 418 418 C 441 435 473 444 513 444 C 577 444 625 421 658 376 C 691 331 708 268 708 186 L 428 186 C 428 152 438 126 456 108 C 474 90 498 81 527 81 C 554 81 576 85 593 95 C 609 105 625 116 639 129 L 697 67 C 681 48 659 31 633 16 C 607 0 569 -7 520 -7 C 476 -7 443 1 419 17 C 395 33 378 51 370 69 C 361 52 343 35 317 18 C 291 1 259 -7 221 -7 Z M 430 265 L 596 265 C 594 291 586 313 572 330 C 558 347 538 356 513 356 C 488 356 469 347 455 331 C 441 314 432 292 430 265 Z M 229 85 C 256 85 277 95 291 117 C 305 138 313 173 313 221 C 313 265 305 298 290 319 C 274 339 253 350 227 350 C 201 350 181 339 167 318 C 152 296 145 264 145 220 C 145 171 152 136 168 116 C 183 95 203 85 229 85 Z" unicode="œ" />
<glyph horiz-adv-x="531" d="M 63 0 L 63 0 Z M 63 0 L 63 730 L 264 730 C 322 730 370 713 408 679 C 446 645 466 596 466 530 C 466 474 453 428 428 392 C 403 356 373 334 337 328 L 333 324 L 529 0 L 389 0 L 216 291 L 185 291 L 185 0 L 63 0 Z M 185 402 L 242 402 C 270 402 294 411 312 431 C 330 451 340 478 340 512 C 340 546 330 573 312 591 C 293 609 270 618 244 618 L 185 618 L 185 402 Z M 247 790 L 247 790 Z M 131 790 L 225 960 L 364 960 L 247 790 L 131 790 Z" unicode="Ŕ" />
<glyph horiz-adv-x="343" d="M 42 0 L 42 0 Z M 346 412 L 307 315 C 294 325 282 332 271 335 C 260 338 249 340 239 340 C 222 340 205 333 187 319 C 169 305 161 279 161 242 L 161 0 L 42 0 L 42 436 L 156 436 L 156 367 C 162 384 175 401 193 418 C 211 434 234 443 262 443 C 280 443 297 439 311 433 C 325 427 337 420 346 412 Z M 193 496 L 193 496 Z M 77 496 L 171 666 L 310 666 L 193 496 L 77 496 Z" unicode="ŕ" />
<glyph horiz-adv-x="531" d="M 63 0 L 63 0 Z M 63 0 L 63 730 L 264 730 C 322 730 370 713 408 679 C 446 645 466 596 466 530 C 466 474 453 428 428 392 C 403 356 373 334 337 328 L 333 324 L 529 0 L 389 0 L 216 291 L 185 291 L 185 0 L 63 0 Z M 185 402 L 242 402 C 270 402 294 411 312 431 C 330 451 340 478 340 512 C 340 546 330 573 312 591 C 293 609 270 618 244 618 L 185 618 L 185 402 Z M 262 -70 L 262 -70 Z M 361 -70 C 360 -92 356 -117 349 -143 C 341 -169 332 -195 322 -219 C 312 -243 300 -264 288 -284 C 275 -304 263 -318 253 -328 L 162 -288 C 169 -278 177 -266 185 -250 C 193 -234 201 -216 208 -197 C 215 -177 221 -157 227 -135 C 232 -113 235 -91 237 -70 L 361 -70 Z" unicode="Ŗ" />
<glyph horiz-adv-x="343" d="M 42 0 L 42 0 Z M 346 412 L 307 315 C 294 325 282 332 271 335 C 260 338 249 340 239 340 C 222 340 205 333 187 319 C 169 305 161 279 161 242 L 161 0 L 42 0 L 42 436 L 156 436 L 156 367 C 162 384 175 401 193 418 C 211 434 234 443 262 443 C 280 443 297 439 311 433 C 325 427 337 420 346 412 Z M 174 -70 L 174 -70 Z M 273 -70 C 272 -92 268 -117 261 -143 C 253 -169 244 -195 234 -219 C 224 -243 212 -264 200 -284 C 187 -304 175 -318 165 -328 L 74 -288 C 81 -278 89 -266 97 -250 C 105 -234 113 -216 120 -197 C 127 -177 133 -157 139 -135 C 144 -113 147 -91 149 -70 L 273 -70 Z" unicode="ŗ" />
<glyph horiz-adv-x="531" d="M 63 0 L 63 0 Z M 63 0 L 63 730 L 264 730 C 322 730 370 713 408 679 C 446 645 466 596 466 530 C 466 474 453 428 428 392 C 403 356 373 334 337 328 L 333 324 L 529 0 L 389 0 L 216 291 L 185 291 L 185 0 L 63 0 Z M 185 402 L 242 402 C 270 402 294 411 312 431 C 330 451 340 478 340 512 C 340 546 330 573 312 591 C 293 609 270 618 244 618 L 185 618 L 185 402 Z M 247 791 L 247 791 Z M 87 964 L 187 964 L 248 870 L 309 964 L 408 964 L 301 791 L 193 791 L 87 964 Z" unicode="Ř" />
<glyph horiz-adv-x="343" d="M 33 0 L 33 0 Z M 346 412 L 307 315 C 294 325 282 332 271 335 C 260 338 249 340 239 340 C 222 340 205 333 187 319 C 169 305 161 279 161 242 L 161 0 L 42 0 L 42 436 L 156 436 L 156 367 C 162 384 175 401 193 418 C 211 434 234 443 262 443 C 280 443 297 439 311 433 C 325 427 337 420 346 412 Z M 193 497 L 193 497 Z M 33 670 L 133 670 L 194 576 L 255 670 L 354 670 L 247 497 L 139 497 L 33 670 Z" unicode="ř" />
<glyph horiz-adv-x="455" d="M 15 0 L 15 0 Z M 232 -9 C 187 -9 147 -2 111 11 C 75 25 43 48 15 81 L 83 167 C 99 145 119 128 144 115 C 169 102 195 96 222 96 C 247 96 269 104 288 121 C 306 137 316 160 316 189 C 316 217 307 241 290 260 C 272 279 243 301 201 326 C 179 338 158 352 138 366 C 118 380 100 396 85 414 C 70 432 58 452 50 475 C 41 498 37 525 37 556 C 37 583 42 608 52 631 C 62 653 76 673 94 689 C 112 705 133 717 157 726 C 181 734 208 739 236 739 C 277 739 313 732 343 720 C 373 707 397 692 417 674 L 354 585 C 340 597 323 608 304 616 C 285 624 265 629 245 629 C 220 629 199 621 183 607 C 167 593 159 574 159 551 C 159 527 167 506 182 490 C 197 473 229 451 277 425 C 331 394 372 361 398 325 C 424 289 437 244 437 190 C 437 157 431 128 419 103 C 407 78 392 57 373 41 C 353 24 331 11 307 3 C 282 -4 257 -9 232 -9 Z M 230 790 L 230 790 Z M 114 790 L 208 960 L 347 960 L 230 790 L 114 790 Z" unicode="Ś" />
<glyph horiz-adv-x="343" d="M 14 0 L 14 0 Z M 181 -8 C 144 -8 111 -2 82 9 C 53 20 30 35 14 53 L 67 129 C 81 115 98 103 118 95 C 138 87 156 83 174 83 C 186 83 198 86 208 93 C 218 100 223 110 223 123 C 223 135 215 146 201 155 C 186 164 165 174 139 186 C 107 198 81 215 59 235 C 37 255 27 284 27 322 C 27 356 41 384 69 408 C 97 432 131 444 171 444 C 203 444 231 439 255 430 C 279 421 299 411 315 399 L 261 325 C 252 331 240 338 224 344 C 208 350 193 353 179 353 C 166 353 155 350 145 346 C 135 341 130 333 130 323 C 130 313 135 304 147 296 C 158 288 179 278 210 266 C 246 250 275 232 295 213 C 315 193 326 164 326 125 C 326 103 321 84 313 68 C 305 51 294 37 281 26 C 267 14 252 6 234 0 C 216 -5 199 -8 181 -8 Z M 175 496 L 175 496 Z M 59 496 L 153 666 L 292 666 L 175 496 L 59 496 Z" unicode="ś" />
<glyph horiz-adv-x="455" d="M 15 0 L 15 0 Z M 232 -9 C 187 -9 147 -2 111 11 C 75 25 43 48 15 81 L 83 167 C 99 145 119 128 144 115 C 169 102 195 96 222 96 C 247 96 269 104 288 121 C 306 137 316 160 316 189 C 316 217 307 241 290 260 C 272 279 243 301 201 326 C 179 338 158 352 138 366 C 118 380 100 396 85 414 C 70 432 58 452 50 475 C 41 498 37 525 37 556 C 37 583 42 608 52 631 C 62 653 76 673 94 689 C 112 705 133 717 157 726 C 181 734 208 739 236 739 C 277 739 313 732 343 720 C 373 707 397 692 417 674 L 354 585 C 340 597 323 608 304 616 C 285 624 265 629 245 629 C 220 629 199 621 183 607 C 167 593 159 574 159 551 C 159 527 167 506 182 490 C 197 473 229 451 277 425 C 331 394 372 361 398 325 C 424 289 437 244 437 190 C 437 157 431 128 419 103 C 407 78 392 57 373 41 C 353 24 331 11 307 3 C 282 -4 257 -9 232 -9 Z M 230 791 L 230 791 Z M 391 791 L 290 791 L 230 885 L 168 791 L 70 791 L 176 964 L 284 964 L 391 791 Z" unicode="Ŝ" />
<glyph horiz-adv-x="343" d="M 14 0 L 14 0 Z M 181 -8 C 144 -8 111 -2 82 9 C 53 20 30 35 14 53 L 67 129 C 81 115 98 103 118 95 C 138 87 156 83 174 83 C 186 83 198 86 208 93 C 218 100 223 110 223 123 C 223 135 215 146 201 155 C 186 164 165 174 139 186 C 107 198 81 215 59 235 C 37 255 27 284 27 322 C 27 356 41 384 69 408 C 97 432 131 444 171 444 C 203 444 231 439 255 430 C 279 421 299 411 315 399 L 261 325 C 252 331 240 338 224 344 C 208 350 193 353 179 353 C 166 353 155 350 145 346 C 135 341 130 333 130 323 C 130 313 135 304 147 296 C 158 288 179 278 210 266 C 246 250 275 232 295 213 C 315 193 326 164 326 125 C 326 103 321 84 313 68 C 305 51 294 37 281 26 C 267 14 252 6 234 0 C 216 -5 199 -8 181 -8 Z M 175 497 L 175 497 Z M 336 497 L 235 497 L 175 591 L 113 497 L 15 497 L 121 670 L 229 670 L 336 497 Z" unicode="ŝ" />
<glyph horiz-adv-x="455" d="M 15 0 L 15 0 Z M 232 -9 C 187 -9 147 -2 111 11 C 75 25 43 48 15 81 L 83 167 C 99 145 119 128 144 115 C 169 102 195 96 222 96 C 247 96 269 104 288 121 C 306 137 316 160 316 189 C 316 217 307 241 290 260 C 272 279 243 301 201 326 C 179 338 158 352 138 366 C 118 380 100 396 85 414 C 70 432 58 452 50 475 C 41 498 37 525 37 556 C 37 583 42 608 52 631 C 62 653 76 673 94 689 C 112 705 133 717 157 726 C 181 734 208 739 236 739 C 277 739 313 732 343 720 C 373 707 397 692 417 674 L 354 585 C 340 597 323 608 304 616 C 285 624 265 629 245 629 C 220 629 199 621 183 607 C 167 593 159 574 159 551 C 159 527 167 506 182 490 C 197 473 229 451 277 425 C 331 394 372 361 398 325 C 424 289 437 244 437 190 C 437 157 431 128 419 103 C 407 78 392 57 373 41 C 353 24 331 11 307 3 C 282 -4 257 -9 232 -9 Z M 207 0 L 207 0 Z M 213 -187 C 189 -187 165 -184 142 -178 C 118 -172 100 -164 87 -154 L 102 -106 C 110 -110 122 -115 136 -121 C 150 -127 166 -130 182 -130 C 193 -130 203 -127 212 -122 C 220 -116 225 -109 225 -100 C 225 -89 221 -82 213 -78 C 205 -74 197 -72 189 -72 C 182 -72 176 -72 172 -73 C 167 -74 162 -76 156 -78 L 139 -60 L 200 14 L 267 14 L 219 -45 C 249 -40 275 -44 296 -56 C 316 -68 327 -86 327 -110 C 327 -134 315 -153 293 -167 C 270 -180 243 -187 213 -187 Z" unicode="Ş" />
<glyph horiz-adv-x="343" d="M 14 0 L 14 0 Z M 181 -8 C 144 -8 111 -2 82 9 C 53 20 30 35 14 53 L 67 129 C 81 115 98 103 118 95 C 138 87 156 83 174 83 C 186 83 198 86 208 93 C 218 100 223 110 223 123 C 223 135 215 146 201 155 C 186 164 165 174 139 186 C 107 198 81 215 59 235 C 37 255 27 284 27 322 C 27 356 41 384 69 408 C 97 432 131 444 171 444 C 203 444 231 439 255 430 C 279 421 299 411 315 399 L 261 325 C 252 331 240 338 224 344 C 208 350 193 353 179 353 C 166 353 155 350 145 346 C 135 341 130 333 130 323 C 130 313 135 304 147 296 C 158 288 179 278 210 266 C 246 250 275 232 295 213 C 315 193 326 164 326 125 C 326 103 321 84 313 68 C 305 51 294 37 281 26 C 267 14 252 6 234 0 C 216 -5 199 -8 181 -8 Z M 160 0 L 160 0 Z M 166 -187 C 142 -187 118 -184 95 -178 C 71 -172 53 -164 40 -154 L 55 -106 C 63 -110 75 -115 89 -121 C 103 -127 119 -130 135 -130 C 146 -130 156 -127 165 -122 C 173 -116 178 -109 178 -100 C 178 -89 174 -82 166 -78 C 158 -74 150 -72 142 -72 C 135 -72 129 -72 125 -73 C 120 -74 115 -76 109 -78 L 92 -60 L 153 14 L 220 14 L 172 -45 C 202 -40 228 -44 249 -56 C 269 -68 280 -86 280 -110 C 280 -134 268 -153 246 -167 C 223 -180 196 -187 166 -187 Z" unicode="ş" />
<glyph horiz-adv-x="455" d="M 15 0 L 15 0 Z M 232 -9 C 187 -9 147 -2 111 11 C 75 25 43 48 15 81 L 83 167 C 99 145 119 128 144 115 C 169 102 195 96 222 96 C 247 96 269 104 288 121 C 306 137 316 160 316 189 C 316 217 307 241 290 260 C 272 279 243 301 201 326 C 179 338 158 352 138 366 C 118 380 100 396 85 414 C 70 432 58 452 50 475 C 41 498 37 525 37 556 C 37 583 42 608 52 631 C 62 653 76 673 94 689 C 112 705 133 717 157 726 C 181 734 208 739 236 739 C 277 739 313 732 343 720 C 373 707 397 692 417 674 L 354 585 C 340 597 323 608 304 616 C 285 624 265 629 245 629 C 220 629 199 621 183 607 C 167 593 159 574 159 551 C 159 527 167 506 182 490 C 197 473 229 451 277 425 C 331 394 372 361 398 325 C 424 289 437 244 437 190 C 437 157 431 128 419 103 C 407 78 392 57 373 41 C 353 24 331 11 307 3 C 282 -4 257 -9 232 -9 Z M 230 791 L 230 791 Z M 70 964 L 170 964 L 231 870 L 292 964 L 391 964 L 284 791 L 176 791 L 70 964 Z" unicode="Š" />
<glyph horiz-adv-x="343" d="M 14 0 L 14 0 Z M 181 -8 C 144 -8 111 -2 82 9 C 53 20 30 35 14 53 L 67 129 C 81 115 98 103 118 95 C 138 87 156 83 174 83 C 186 83 198 86 208 93 C 218 100 223 110 223 123 C 223 135 215 146 201 155 C 186 164 165 174 139 186 C 107 198 81 215 59 235 C 37 255 27 284 27 322 C 27 356 41 384 69 408 C 97 432 131 444 171 444 C 203 444 231 439 255 430 C 279 421 299 411 315 399 L 261 325 C 252 331 240 338 224 344 C 208 350 193 353 179 353 C 166 353 155 350 145 346 C 135 341 130 333 130 323 C 130 313 135 304 147 296 C 158 288 179 278 210 266 C 246 250 275 232 295 213 C 315 193 326 164 326 125 C 326 103 321 84 313 68 C 305 51 294 37 281 26 C 267 14 252 6 234 0 C 216 -5 199 -8 181 -8 Z M 175 497 L 175 497 Z M 15 670 L 115 670 L 176 576 L 237 670 L 336 670 L 229 497 L 121 497 L 15 670 Z" unicode="š" />
<glyph horiz-adv-x="442" d="M 7 0 L 7 0 Z M 435 615 L 286 615 L 286 0 L 156 0 L 156 615 L 7 615 L 7 730 L 435 730 L 435 615 Z M 220 791 L 220 791 Z M 60 964 L 160 964 L 221 870 L 282 964 L 381 964 L 274 791 L 166 791 L 60 964 Z" unicode="Ť" />
<glyph horiz-adv-x="255" d="M 9 0 L 9 0 Z M 235 100 L 251 12 C 246 8 238 4 227 0 C 216 -3 202 -5 185 -5 C 173 -5 159 -3 143 0 C 127 4 113 11 99 21 C 85 31 74 44 65 62 C 55 79 51 101 51 128 L 51 336 L 9 336 L 9 436 L 54 436 L 54 575 L 168 586 L 168 436 L 234 436 L 234 336 L 170 336 L 170 137 C 170 121 173 109 181 103 C 188 97 198 94 211 94 C 215 94 219 94 224 96 C 229 97 233 98 235 100 Z M 357 621 L 352 473 L 250 473 L 244 621 L 244 730 L 357 730 L 357 621 Z" unicode="ť" />
<glyph horiz-adv-x="442" d="M 394 420 L 286 420 L 286 0 L 156 0 L 156 420 L 45 420 L 45 513 L 156 513 L 156 615 L 7 615 L 7 730 L 435 730 L 435 615 L 286 615 L 286 513 L 394 513 L 394 420 Z" unicode="Ŧ" />
<glyph horiz-adv-x="255" d="M 251 12 C 246 8 238 4 227 0 C 216 -3 202 -5 185 -5 C 173 -5 159 -3 143 0 C 127 4 113 11 99 21 C 85 31 74 44 65 62 C 55 79 51 101 51 128 L 51 209 L 19 209 L 19 295 L 51 295 L 51 336 L 9 336 L 9 436 L 54 436 L 54 575 L 168 586 L 168 436 L 234 436 L 234 336 L 170 336 L 170 295 L 223 295 L 223 209 L 170 209 L 170 137 C 170 121 173 109 181 103 C 188 97 198 94 211 94 C 215 94 219 94 224 96 C 229 97 233 98 235 100 L 251 12 Z" unicode="ŧ" />
<glyph horiz-adv-x="605" d="M 58 0 L 58 0 Z M 546 730 L 546 238 C 546 196 539 160 525 129 C 511 97 493 71 471 51 C 448 31 422 16 392 6 C 362 -4 330 -9 297 -9 C 264 -9 233 -4 204 5 C 175 15 150 30 128 50 C 106 70 89 96 77 127 C 64 158 58 195 58 238 L 58 730 L 185 730 L 185 232 C 185 189 195 157 217 136 C 239 115 266 105 299 105 C 331 105 359 115 382 135 C 404 155 416 187 416 232 L 416 730 L 546 730 Z M 300 795 L 300 795 Z M 377 943 L 465 943 C 465 893 457 855 443 831 C 428 807 409 795 387 795 C 367 795 351 798 338 805 C 324 811 313 817 305 823 C 296 828 287 833 279 839 C 271 845 262 848 254 848 C 246 848 239 843 233 835 C 227 826 225 814 225 798 L 137 798 C 137 848 146 885 164 909 C 182 933 202 946 224 946 C 242 946 257 942 269 936 C 281 929 291 922 301 916 C 309 910 317 905 325 900 C 332 894 339 892 347 892 C 353 892 360 896 367 905 C 373 913 377 926 377 943 Z" unicode="Ũ" />
<glyph horiz-adv-x="457" d="M 39 0 L 39 0 Z M 39 436 L 158 436 L 158 152 C 158 128 163 111 175 100 C 187 89 203 84 224 84 C 244 84 261 90 275 103 C 289 116 296 138 296 170 L 296 436 L 415 436 L 415 0 L 300 0 L 300 54 C 290 35 274 20 252 9 C 230 -1 205 -7 177 -7 C 139 -7 106 4 79 26 C 52 48 39 82 39 129 L 39 436 Z M 227 501 L 227 501 Z M 304 649 L 392 649 C 392 599 384 561 370 537 C 355 513 336 501 314 501 C 294 501 278 504 265 511 C 251 517 240 523 232 529 C 223 534 214 539 206 545 C 198 551 189 554 181 554 C 173 554 166 549 160 541 C 154 532 152 520 152 504 L 64 504 C 64 554 73 591 91 615 C 109 639 129 652 151 652 C 169 652 184 648 196 642 C 208 635 218 628 228 622 C 236 616 244 611 252 606 C 259 600 266 598 274 598 C 280 598 287 602 294 611 C 300 619 304 632 304 649 Z" unicode="ũ" />
<glyph horiz-adv-x="605" d="M 58 0 L 58 0 Z M 546 730 L 546 238 C 546 196 539 160 525 129 C 511 97 493 71 471 51 C 448 31 422 16 392 6 C 362 -4 330 -9 297 -9 C 264 -9 233 -4 204 5 C 175 15 150 30 128 50 C 106 70 89 96 77 127 C 64 158 58 195 58 238 L 58 730 L 185 730 L 185 232 C 185 189 195 157 217 136 C 239 115 266 105 299 105 C 331 105 359 115 382 135 C 404 155 416 187 416 232 L 416 730 L 546 730 Z M 300 809 L 300 809 Z M 432 809 L 168 809 L 168 897 L 432 897 L 432 809 Z" unicode="Ū" />
<glyph horiz-adv-x="457" d="M 39 0 L 39 0 Z M 39 436 L 158 436 L 158 152 C 158 128 163 111 175 100 C 187 89 203 84 224 84 C 244 84 261 90 275 103 C 289 116 296 138 296 170 L 296 436 L 415 436 L 415 0 L 300 0 L 300 54 C 290 35 274 20 252 9 C 230 -1 205 -7 177 -7 C 139 -7 106 4 79 26 C 52 48 39 82 39 129 L 39 436 Z M 227 515 L 227 515 Z M 359 515 L 95 515 L 95 603 L 359 603 L 359 515 Z" unicode="ū" />
<glyph horiz-adv-x="605" d="M 58 0 L 58 0 Z M 546 730 L 546 238 C 546 196 539 160 525 129 C 511 97 493 71 471 51 C 448 31 422 16 392 6 C 362 -4 330 -9 297 -9 C 264 -9 233 -4 204 5 C 175 15 150 30 128 50 C 106 70 89 96 77 127 C 64 158 58 195 58 238 L 58 730 L 185 730 L 185 232 C 185 189 195 157 217 136 C 239 115 266 105 299 105 C 331 105 359 115 382 135 C 404 155 416 187 416 232 L 416 730 L 546 730 Z M 300 793 L 300 793 Z M 354 953 L 453 953 C 449 897 433 857 405 831 C 377 805 342 793 300 793 C 258 793 223 805 195 831 C 167 857 152 897 148 953 L 246 953 C 247 926 252 905 260 891 C 268 876 281 869 300 869 C 318 869 332 875 340 889 C 348 903 353 924 354 953 Z" unicode="Ŭ" />
<glyph horiz-adv-x="457" d="M 39 0 L 39 0 Z M 39 436 L 158 436 L 158 152 C 158 128 163 111 175 100 C 187 89 203 84 224 84 C 244 84 261 90 275 103 C 289 116 296 138 296 170 L 296 436 L 415 436 L 415 0 L 300 0 L 300 54 C 290 35 274 20 252 9 C 230 -1 205 -7 177 -7 C 139 -7 106 4 79 26 C 52 48 39 82 39 129 L 39 436 Z M 227 499 L 227 499 Z M 281 659 L 380 659 C 376 603 360 563 332 537 C 304 511 269 499 227 499 C 185 499 150 511 122 537 C 94 563 79 603 75 659 L 173 659 C 174 632 179 611 187 597 C 195 582 208 575 227 575 C 245 575 259 581 267 595 C 275 609 280 630 281 659 Z" unicode="ŭ" />
<glyph horiz-adv-x="605" d="M 58 0 L 58 0 Z M 546 730 L 546 238 C 546 196 539 160 525 129 C 511 97 493 71 471 51 C 448 31 422 16 392 6 C 362 -4 330 -9 297 -9 C 264 -9 233 -4 204 5 C 175 15 150 30 128 50 C 106 70 89 96 77 127 C 64 158 58 195 58 238 L 58 730 L 185 730 L 185 232 C 185 189 195 157 217 136 C 239 115 266 105 299 105 C 331 105 359 115 382 135 C 404 155 416 187 416 232 L 416 730 L 546 730 Z M 300 787 L 300 787 Z M 300 787 C 267 787 239 798 217 821 C 194 843 183 871 183 904 C 183 936 194 963 217 986 C 239 1008 267 1020 300 1020 C 332 1020 360 1008 383 986 C 406 963 418 936 418 904 C 418 871 406 843 383 821 C 360 798 332 787 300 787 Z M 300 852 C 314 852 326 856 336 866 C 345 876 350 888 350 903 C 350 917 345 930 336 940 C 326 950 314 955 300 955 C 286 955 274 950 264 940 C 254 930 250 917 250 903 C 250 888 254 876 264 866 C 274 856 286 852 300 852 Z" unicode="Ů" />
<glyph horiz-adv-x="457" d="M 39 0 L 39 0 Z M 39 436 L 158 436 L 158 152 C 158 128 163 111 175 100 C 187 89 203 84 224 84 C 244 84 261 90 275 103 C 289 116 296 138 296 170 L 296 436 L 415 436 L 415 0 L 300 0 L 300 54 C 290 35 274 20 252 9 C 230 -1 205 -7 177 -7 C 139 -7 106 4 79 26 C 52 48 39 82 39 129 L 39 436 Z M 227 493 L 227 493 Z M 227 493 C 194 493 166 504 144 527 C 121 549 110 577 110 610 C 110 642 121 669 144 692 C 166 714 194 726 227 726 C 259 726 287 714 310 692 C 333 669 345 642 345 610 C 345 577 333 549 310 527 C 287 504 259 493 227 493 Z M 227 558 C 241 558 253 562 263 572 C 272 582 277 594 277 609 C 277 623 272 636 263 646 C 253 656 241 661 227 661 C 213 661 201 656 191 646 C 181 636 177 623 177 609 C 177 594 181 582 191 572 C 201 562 213 558 227 558 Z" unicode="ů" />
<glyph horiz-adv-x="605" d="M 58 0 L 58 0 Z M 546 730 L 546 238 C 546 196 539 160 525 129 C 511 97 493 71 471 51 C 448 31 422 16 392 6 C 362 -4 330 -9 297 -9 C 264 -9 233 -4 204 5 C 175 15 150 30 128 50 C 106 70 89 96 77 127 C 64 158 58 195 58 238 L 58 730 L 185 730 L 185 232 C 185 189 195 157 217 136 C 239 115 266 105 299 105 C 331 105 359 115 382 135 C 404 155 416 187 416 232 L 416 730 L 546 730 Z M 300 790 L 300 790 Z M 101 790 L 178 950 L 305 950 L 206 790 L 101 790 Z M 295 790 L 372 950 L 499 950 L 400 790 L 295 790 Z" unicode="Ű" />
<glyph horiz-adv-x="457" d="M 28 0 L 28 0 Z M 39 436 L 158 436 L 158 152 C 158 128 163 111 175 100 C 187 89 203 84 224 84 C 244 84 261 90 275 103 C 289 116 296 138 296 170 L 296 436 L 415 436 L 415 0 L 300 0 L 300 54 C 290 35 274 20 252 9 C 230 -1 205 -7 177 -7 C 139 -7 106 4 79 26 C 52 48 39 82 39 129 L 39 436 Z M 227 496 L 227 496 Z M 28 496 L 105 656 L 232 656 L 133 496 L 28 496 Z M 222 496 L 299 656 L 426 656 L 327 496 L 222 496 Z" unicode="ű" />
<glyph horiz-adv-x="605" d="M 58 0 L 58 0 Z M 546 730 L 546 238 C 546 196 539 160 525 129 C 511 97 493 71 471 51 C 448 31 422 16 392 6 C 362 -4 330 -9 297 -9 C 264 -9 233 -4 204 5 C 175 15 150 30 128 50 C 106 70 89 96 77 127 C 64 158 58 195 58 238 L 58 730 L 185 730 L 185 232 C 185 189 195 157 217 136 C 239 115 266 105 299 105 C 331 105 359 115 382 135 C 404 155 416 187 416 232 L 416 730 L 546 730 Z M 334 -7 L 334 -7 Z M 433 -82 L 466 -132 C 445 -154 422 -171 397 -182 C 371 -193 343 -199 313 -199 C 279 -199 252 -191 232 -177 C 212 -162 203 -143 203 -121 C 203 -95 212 -72 232 -50 C 251 -28 280 -10 318 6 L 391 6 C 368 -4 348 -17 331 -31 C 313 -45 305 -59 305 -72 C 305 -84 309 -93 318 -100 C 327 -107 339 -111 353 -111 C 369 -111 384 -108 398 -103 C 412 -97 423 -90 433 -82 Z" unicode="Ų" />
<glyph horiz-adv-x="457" d="M 39 0 L 39 0 Z M 39 436 L 158 436 L 158 152 C 158 128 163 111 175 100 C 187 89 203 84 224 84 C 244 84 261 90 275 103 C 289 116 296 138 296 170 L 296 436 L 415 436 L 415 0 L 300 0 L 300 54 C 290 35 274 20 252 9 C 230 -1 205 -7 177 -7 C 139 -7 106 4 79 26 C 52 48 39 82 39 129 L 39 436 Z M 324 -7 L 324 -7 Z M 423 -82 L 456 -132 C 435 -154 412 -171 387 -182 C 361 -193 333 -199 303 -199 C 269 -199 242 -191 222 -177 C 202 -162 193 -143 193 -121 C 193 -95 202 -72 222 -50 C 241 -28 270 -10 308 6 L 381 6 C 358 -4 338 -17 321 -31 C 303 -45 295 -59 295 -72 C 295 -84 299 -93 308 -100 C 317 -107 329 -111 343 -111 C 359 -111 374 -108 388 -103 C 402 -97 413 -90 423 -82 Z" unicode="ų" />
<glyph horiz-adv-x="778" d="M 1 0 L 1 0 Z M 764 730 L 587 -5 L 508 -5 L 384 472 L 255 -5 L 175 -5 L 1 730 L 125 730 L 227 260 L 347 730 L 431 730 L 547 258 L 651 730 L 764 730 Z M 389 791 L 389 791 Z M 550 791 L 449 791 L 389 885 L 327 791 L 229 791 L 335 964 L 443 964 L 550 791 Z" unicode="Ŵ" />
<glyph horiz-adv-x="600" d="M 0 0 L 0 0 Z M 380 -2 L 300 233 L 220 -2 L 136 -2 L 0 436 L 117 436 L 193 168 L 266 401 L 343 401 L 417 168 L 496 436 L 600 436 L 463 -2 L 380 -2 Z M 302 497 L 302 497 Z M 463 497 L 362 497 L 302 591 L 240 497 L 142 497 L 248 670 L 356 670 L 463 497 Z" unicode="ŵ" />
<glyph horiz-adv-x="521" d="M 0 0 L 0 0 Z M 540 730 L 330 313 L 330 0 L 200 0 L 200 316 L -5 730 L 131 730 L 271 442 L 412 730 L 540 730 Z M 270 791 L 270 791 Z M 431 791 L 330 791 L 270 885 L 208 791 L 110 791 L 216 964 L 324 964 L 431 791 Z" unicode="Ŷ" />
<glyph horiz-adv-x="407" d="M 0 0 L 0 0 Z M 412 436 L 210 -99 C 194 -137 173 -163 146 -178 C 119 -192 90 -200 60 -200 C 46 -200 33 -198 21 -195 C 9 -191 0 -188 -7 -185 L 26 -91 C 28 -92 34 -94 42 -96 C 50 -98 57 -100 65 -100 C 77 -100 88 -95 97 -87 C 105 -79 113 -65 120 -47 L 150 40 L -6 436 L 121 436 L 210 185 L 297 436 L 412 436 Z M 206 497 L 206 497 Z M 367 497 L 266 497 L 206 591 L 144 497 L 46 497 L 152 670 L 260 670 L 367 497 Z" unicode="ŷ" />
<glyph horiz-adv-x="535" d="M 0 0 L 0 0 Z M 540 730 L 330 313 L 330 0 L 200 0 L 200 316 L -5 730 L 131 730 L 271 442 L 412 730 L 540 730 Z M 270 791 L 270 791 Z M 405 791 L 307 791 L 307 951 L 405 951 L 405 791 Z M 233 791 L 135 791 L 135 951 L 233 951 L 233 791 Z" unicode="Ÿ" />
<glyph horiz-adv-x="473" d="M 14 0 L 14 0 Z M 455 730 L 455 670 L 176 114 L 466 114 L 466 0 L 14 0 L 14 58 L 296 615 L 39 615 L 39 730 L 455 730 Z M 245 790 L 245 790 Z M 129 790 L 223 960 L 362 960 L 245 790 L 129 790 Z" unicode="Ź" />
<glyph horiz-adv-x="358" d="M 9 0 L 9 0 Z M 343 436 L 343 381 L 170 100 L 348 100 L 348 0 L 9 0 L 9 42 L 195 336 L 21 336 L 21 436 L 343 436 Z M 182 496 L 182 496 Z M 66 496 L 160 666 L 299 666 L 182 496 L 66 496 Z" unicode="ź" />
<glyph horiz-adv-x="473" d="M 14 0 L 14 0 Z M 455 730 L 455 670 L 176 114 L 466 114 L 466 0 L 14 0 L 14 58 L 296 615 L 39 615 L 39 730 L 455 730 Z M 245 803 L 245 803 Z M 300 803 L 191 803 L 191 944 L 300 944 L 300 803 Z" unicode="Ż" />
<glyph horiz-adv-x="358" d="M 9 0 L 9 0 Z M 343 436 L 343 381 L 170 100 L 348 100 L 348 0 L 9 0 L 9 42 L 195 336 L 21 336 L 21 436 L 343 436 Z M 182 509 L 182 509 Z M 237 509 L 128 509 L 128 650 L 237 650 L 237 509 Z" unicode="ż" />
<glyph horiz-adv-x="485" d="M 14 0 L 14 0 Z M 455 730 L 455 670 L 176 114 L 466 114 L 466 0 L 14 0 L 14 58 L 296 615 L 39 615 L 39 730 L 455 730 Z M 245 791 L 245 791 Z M 85 964 L 185 964 L 246 870 L 307 964 L 406 964 L 299 791 L 191 791 L 85 964 Z" unicode="Ž" />
<glyph horiz-adv-x="358" d="M 9 0 L 9 0 Z M 343 436 L 343 381 L 170 100 L 348 100 L 348 0 L 9 0 L 9 42 L 195 336 L 21 336 L 21 436 L 343 436 Z" unicode="ž" />
<glyph horiz-adv-x="372" d="M 201 -52 C 199 -68 195 -83 189 -99 C 182 -114 173 -127 162 -139 C 150 -151 137 -160 121 -168 C 105 -175 88 -179 70 -179 C 49 -179 29 -177 11 -173 C -7 -169 -22 -165 -32 -161 L -20 -73 C -15 -73 -8 -75 1 -77 C 10 -79 19 -80 28 -80 C 47 -80 63 -73 76 -61 C 88 -48 96 -30 99 -6 L 128 323 L 35 323 L 35 419 L 137 419 L 155 620 C 157 640 162 658 171 674 C 179 689 190 702 203 712 C 215 722 229 730 244 735 C 259 740 274 743 288 743 C 302 743 317 742 332 741 C 347 740 356 739 359 739 L 350 636 C 348 636 344 637 338 638 C 332 638 326 639 320 639 C 301 639 286 632 274 620 C 262 607 256 587 254 561 L 242 419 L 343 419 L 343 323 L 233 323 L 201 -52 Z" unicode="ƒ" />
<glyph horiz-adv-x="455" d="M 15 0 L 15 0 Z M 232 -9 C 187 -9 147 -2 111 11 C 75 25 43 48 15 81 L 83 167 C 99 145 119 128 144 115 C 169 102 195 96 222 96 C 247 96 269 104 288 121 C 306 137 316 160 316 189 C 316 217 307 241 290 260 C 272 279 243 301 201 326 C 179 338 158 352 138 366 C 118 380 100 396 85 414 C 70 432 58 452 50 475 C 41 498 37 525 37 556 C 37 583 42 608 52 631 C 62 653 76 673 94 689 C 112 705 133 717 157 726 C 181 734 208 739 236 739 C 277 739 313 732 343 720 C 373 707 397 692 417 674 L 354 585 C 340 597 323 608 304 616 C 285 624 265 629 245 629 C 220 629 199 621 183 607 C 167 593 159 574 159 551 C 159 527 167 506 182 490 C 197 473 229 451 277 425 C 331 394 372 361 398 325 C 424 289 437 244 437 190 C 437 157 431 128 419 103 C 407 78 392 57 373 41 C 353 24 331 11 307 3 C 282 -4 257 -9 232 -9 Z M 207 -70 L 207 -70 Z M 306 -70 C 305 -92 301 -117 294 -143 C 286 -169 277 -195 267 -219 C 257 -243 245 -264 233 -284 C 220 -304 208 -318 198 -328 L 107 -288 C 114 -278 122 -266 130 -250 C 138 -234 146 -216 153 -197 C 160 -177 166 -157 172 -135 C 177 -113 180 -91 182 -70 L 306 -70 Z" unicode="Ș" />
<glyph horiz-adv-x="343" d="M 14 0 L 14 0 Z M 181 -8 C 144 -8 111 -2 82 9 C 53 20 30 35 14 53 L 67 129 C 81 115 98 103 118 95 C 138 87 156 83 174 83 C 186 83 198 86 208 93 C 218 100 223 110 223 123 C 223 135 215 146 201 155 C 186 164 165 174 139 186 C 107 198 81 215 59 235 C 37 255 27 284 27 322 C 27 356 41 384 69 408 C 97 432 131 444 171 444 C 203 444 231 439 255 430 C 279 421 299 411 315 399 L 261 325 C 252 331 240 338 224 344 C 208 350 193 353 179 353 C 166 353 155 350 145 346 C 135 341 130 333 130 323 C 130 313 135 304 147 296 C 158 288 179 278 210 266 C 246 250 275 232 295 213 C 315 193 326 164 326 125 C 326 103 321 84 313 68 C 305 51 294 37 281 26 C 267 14 252 6 234 0 C 216 -5 199 -8 181 -8 Z M 160 -70 L 160 -70 Z M 259 -70 C 258 -92 254 -117 247 -143 C 239 -169 230 -195 220 -219 C 210 -243 198 -264 186 -284 C 173 -304 161 -318 151 -328 L 60 -288 C 67 -278 75 -266 83 -250 C 91 -234 99 -216 106 -197 C 113 -177 119 -157 125 -135 C 130 -113 133 -91 135 -70 L 259 -70 Z" unicode="ș" />
<glyph horiz-adv-x="442" d="M 7 0 L 7 0 Z M 435 615 L 286 615 L 286 0 L 156 0 L 156 615 L 7 615 L 7 730 L 435 730 L 435 615 Z M 199 -70 L 199 -70 Z M 298 -70 C 297 -92 293 -117 286 -143 C 278 -169 269 -195 259 -219 C 249 -243 237 -264 225 -284 C 212 -304 200 -318 190 -328 L 99 -288 C 106 -278 114 -266 122 -250 C 130 -234 138 -216 145 -197 C 152 -177 158 -157 164 -135 C 169 -113 172 -91 174 -70 L 298 -70 Z" unicode="Ț" />
<glyph horiz-adv-x="255" d="M 9 0 L 9 0 Z M 235 100 L 251 12 C 246 8 238 4 227 0 C 216 -3 202 -5 185 -5 C 173 -5 159 -3 143 0 C 127 4 113 11 99 21 C 85 31 74 44 65 62 C 55 79 51 101 51 128 L 51 336 L 9 336 L 9 436 L 54 436 L 54 575 L 168 586 L 168 436 L 234 436 L 234 336 L 170 336 L 170 137 C 170 121 173 109 181 103 C 188 97 198 94 211 94 C 215 94 219 94 224 96 C 229 97 233 98 235 100 Z M 127 -70 L 127 -70 Z M 226 -70 C 225 -92 221 -117 214 -143 C 206 -169 197 -195 187 -219 C 177 -243 165 -264 153 -284 C 140 -304 128 -318 118 -328 L 27 -288 C 34 -278 42 -266 50 -250 C 58 -234 66 -216 73 -197 C 80 -177 86 -157 92 -135 C 97 -113 100 -91 102 -70 L 226 -70 Z" unicode="ț" />
<glyph horiz-adv-x="202" d="M 162 436 L 162 -78 C 162 -110 151 -139 130 -164 C 108 -189 78 -201 40 -201 C 27 -201 13 -199 -1 -197 C -16 -195 -26 -192 -32 -190 L -17 -99 C -14 -99 -10 -100 -5 -101 C 0 -101 4 -102 9 -102 C 19 -102 27 -98 34 -91 C 40 -83 44 -73 44 -59 L 44 436 L 162 436 Z" unicode="ȷ" />
<glyph horiz-adv-x="500" d="M 411 497 L 310 497 L 250 591 L 188 497 L 90 497 L 196 670 L 304 670 L 411 497 Z" unicode="ˆ" />
<glyph horiz-adv-x="500" d="M 90 670 L 190 670 L 251 576 L 312 670 L 411 670 L 304 497 L 196 497 L 90 670 Z" unicode="ˇ" />
<glyph horiz-adv-x="500" d="M 304 659 L 403 659 C 399 603 383 563 355 537 C 327 511 292 499 250 499 C 208 499 173 511 145 537 C 117 563 102 603 98 659 L 196 659 C 197 632 202 611 210 597 C 218 582 231 575 250 575 C 268 575 282 581 290 595 C 298 609 303 630 304 659 Z" unicode="˘" />
<glyph horiz-adv-x="500" d="M 305 509 L 196 509 L 196 650 L 305 650 L 305 509 Z" unicode="˙" />
<glyph horiz-adv-x="500" d="M 250 493 C 217 493 189 504 167 527 C 144 549 133 577 133 610 C 133 642 144 669 167 692 C 189 714 217 726 250 726 C 282 726 310 714 333 692 C 356 669 368 642 368 610 C 368 577 356 549 333 527 C 310 504 282 493 250 493 Z M 250 558 C 264 558 276 562 286 572 C 295 582 300 594 300 609 C 300 623 295 636 286 646 C 276 656 264 661 250 661 C 236 661 224 656 214 646 C 204 636 200 623 200 609 C 200 594 204 582 214 572 C 224 562 236 558 250 558 Z" unicode="˚" />
<glyph horiz-adv-x="500" d="M 358 -75 L 391 -125 C 370 -147 347 -164 322 -175 C 296 -186 268 -192 238 -192 C 204 -192 177 -184 157 -170 C 137 -155 128 -136 128 -114 C 128 -88 137 -65 157 -43 C 176 -21 205 -3 243 13 L 316 13 C 293 2 273 -10 256 -24 C 238 -38 230 -52 230 -65 C 230 -77 234 -86 243 -93 C 252 -100 264 -104 278 -104 C 294 -104 309 -101 323 -96 C 337 -90 348 -83 358 -75 Z" unicode="˛" />
<glyph horiz-adv-x="500" d="M 331 649 L 419 649 C 419 599 411 561 397 537 C 382 513 363 501 341 501 C 321 501 305 504 292 511 C 278 517 267 523 259 529 C 250 534 241 539 233 545 C 225 551 216 554 208 554 C 200 554 193 549 187 541 C 181 532 179 520 179 504 L 91 504 C 91 554 100 591 118 615 C 136 639 156 652 178 652 C 196 652 211 648 223 642 C 235 635 245 628 255 622 C 263 616 271 611 279 606 C 286 600 293 598 301 598 C 307 598 314 602 321 611 C 327 619 331 632 331 649 Z" unicode="˜" />
<glyph horiz-adv-x="500" d="M 72 496 L 149 656 L 276 656 L 177 496 L 72 496 Z M 266 496 L 343 656 L 470 656 L 371 496 L 266 496 Z" unicode="˝" />
<glyph horiz-adv-x="0" d="M 0 496 L 0 496 Z M 117 496 L 0 496 L -117 666 L 22 666 L 117 496 Z" unicode="̀" />
<glyph horiz-adv-x="0" d="M 0 496 L 0 496 Z M -116 496 L -22 666 L 117 666 L 0 496 L -116 496 Z" unicode="́" />
<glyph horiz-adv-x="0" d="M 0 497 L 0 497 Z M 161 497 L 60 497 L 0 591 L -62 497 L -160 497 L -54 670 L 54 670 L 161 497 Z" unicode="̂" />
<glyph horiz-adv-x="0" d="M 0 501 L 0 501 Z M 77 649 L 165 649 C 165 599 157 561 143 537 C 128 513 109 501 87 501 C 67 501 51 504 38 511 C 24 517 13 523 5 529 C -3 534 -12 539 -20 545 C -28 551 -37 554 -46 554 C -54 554 -60 549 -66 541 C -72 532 -75 520 -75 504 L -163 504 C -163 554 -153 591 -135 615 C -117 639 -97 652 -76 652 C -58 652 -43 648 -31 642 C -19 635 -8 628 1 622 C 9 616 17 611 25 606 C 32 600 39 598 47 598 C 53 598 60 602 67 611 C 73 619 77 632 77 649 Z" unicode="̃" />
<glyph horiz-adv-x="0" d="M 0 515 L 0 515 Z M 132 515 L -132 515 L -132 603 L 132 603 L 132 515 Z" unicode="̄" />
<glyph horiz-adv-x="0" d="M 0 499 L 0 499 Z M 54 659 L 153 659 C 149 603 133 563 105 537 C 77 511 42 499 0 499 C -42 499 -76 511 -104 537 C -132 563 -148 603 -152 659 L -54 659 C -52 632 -48 611 -40 597 C -32 582 -18 575 0 575 C 18 575 32 581 40 595 C 48 609 53 630 54 659 Z" unicode="̆" />
<glyph horiz-adv-x="0" d="M 0 509 L 0 509 Z M 55 509 L -54 509 L -54 650 L 55 650 L 55 509 Z" unicode="̇" />
<glyph horiz-adv-x="0" d="M 0 497 L 0 497 Z M 135 497 L 37 497 L 37 657 L 135 657 L 135 497 Z M -37 497 L -135 497 L -135 657 L -37 657 L -37 497 Z" unicode="̈" />
<glyph horiz-adv-x="0" d="M 0 493 L 0 493 Z M 0 493 C -32 493 -60 504 -83 527 C -105 549 -117 577 -117 610 C -117 642 -105 669 -83 692 C -60 714 -32 726 0 726 C 32 726 60 714 83 692 C 106 669 118 642 118 610 C 118 577 106 549 83 527 C 60 504 32 493 0 493 Z M 0 558 C 14 558 26 562 36 572 C 45 582 50 594 50 609 C 50 623 45 636 36 646 C 26 656 14 661 0 661 C -14 661 -25 656 -35 646 C -45 636 -50 623 -50 609 C -50 594 -45 582 -35 572 C -25 562 -14 558 0 558 Z" unicode="̊" />
<glyph horiz-adv-x="0" d="M 0 496 L 0 496 Z M -199 496 L -122 656 L 5 656 L -94 496 L -199 496 Z M -5 496 L 72 656 L 199 656 L 100 496 L -5 496 Z" unicode="̋" />
<glyph horiz-adv-x="0" d="M 0 497 L 0 497 Z M -160 670 L -60 670 L 1 576 L 62 670 L 161 670 L 54 497 L -54 497 L -160 670 Z" unicode="̌" />
<glyph horiz-adv-x="0" d="M 0 -70 L 0 -70 Z M 99 -70 C 98 -92 94 -117 87 -143 C 79 -169 70 -195 60 -219 C 50 -243 38 -264 26 -284 C 13 -304 1 -318 -9 -328 L -100 -288 C -92 -278 -84 -266 -76 -250 C -68 -234 -60 -216 -53 -197 C -46 -177 -40 -157 -35 -135 C -29 -113 -26 -91 -25 -70 L 99 -70 Z" unicode="̦" />
<glyph horiz-adv-x="0" d="M 0 0 L 0 0 Z M 6 -187 C -18 -187 -41 -184 -65 -178 C -88 -172 -106 -164 -120 -154 L -105 -106 C -96 -110 -84 -115 -70 -121 C -56 -127 -41 -130 -25 -130 C -13 -130 -3 -127 5 -122 C 13 -116 18 -109 18 -100 C 18 -89 14 -82 6 -78 C -1 -74 -9 -72 -18 -72 C -24 -72 -30 -72 -35 -73 C -39 -74 -45 -76 -51 -78 L -68 -60 L -7 14 L 60 14 L 12 -45 C 42 -40 68 -44 89 -56 C 109 -68 120 -86 120 -110 C 120 -134 108 -153 86 -167 C 63 -180 36 -187 6 -187 Z" unicode="̧" />
<glyph horiz-adv-x="0" d="M 0 0 L 0 0 Z M 99 -75 L 132 -125 C 111 -147 88 -164 63 -175 C 37 -186 9 -192 -21 -192 C -55 -192 -81 -184 -101 -170 C -121 -155 -131 -136 -131 -114 C -131 -88 -121 -65 -102 -43 C -82 -21 -54 -3 -16 13 L 57 13 C 34 2 14 -10 -3 -24 C -20 -38 -29 -52 -29 -65 C -29 -77 -24 -86 -15 -93 C -6 -100 5 -104 19 -104 C 35 -104 50 -101 64 -96 C 78 -90 89 -83 99 -75 Z" unicode="̨" />
<glyph horiz-adv-x="563" d="M 0 0 L 0 0 Z M 598 0 L -1 0 L 283 730 L 316 730 L 598 0 Z M 441 93 L 296 504 L 151 93 L 441 93 Z" unicode="Δ" />
<glyph horiz-adv-x="713" d="" unicode="Ω" />
<glyph horiz-adv-x="585" d="M 61 0 L 61 0 Z M 61 -98 L 61 456 L 179 456 L 179 165 C 179 140 188 121 208 108 C 228 94 251 88 278 88 C 307 88 333 96 356 112 C 378 128 390 151 390 182 L 390 456 L 509 456 L 509 0 L 400 0 L 400 85 C 388 60 368 39 342 23 C 316 6 288 -3 258 -5 C 239 -5 221 -2 205 5 C 189 12 177 22 170 35 L 170 -98 L 61 -98 Z" unicode="μ" />
<glyph horiz-adv-x="577" d="M 199 395 L 199 0 L 80 0 L 80 395 L 15 395 L 15 487 L 562 487 L 562 395 L 494 395 L 494 0 L 376 0 L 376 395 L 199 395 Z" unicode="π" />
<glyph horiz-adv-x="778" d="M 1 0 L 1 0 Z M 764 730 L 587 -5 L 508 -5 L 384 472 L 255 -5 L 175 -5 L 1 730 L 125 730 L 227 260 L 347 730 L 431 730 L 547 258 L 651 730 L 764 730 Z M 389 790 L 389 790 Z M 506 790 L 389 790 L 272 960 L 411 960 L 506 790 Z" unicode="Ẁ" />
<glyph horiz-adv-x="600" d="M 0 0 L 0 0 Z M 380 -2 L 300 233 L 220 -2 L 136 -2 L 0 436 L 117 436 L 193 168 L 266 401 L 343 401 L 417 168 L 496 436 L 600 436 L 463 -2 L 380 -2 Z M 302 496 L 302 496 Z M 419 496 L 302 496 L 185 666 L 324 666 L 419 496 Z" unicode="ẁ" />
<glyph horiz-adv-x="778" d="M 1 0 L 1 0 Z M 764 730 L 587 -5 L 508 -5 L 384 472 L 255 -5 L 175 -5 L 1 730 L 125 730 L 227 260 L 347 730 L 431 730 L 547 258 L 651 730 L 764 730 Z M 389 790 L 389 790 Z M 273 790 L 367 960 L 506 960 L 389 790 L 273 790 Z" unicode="Ẃ" />
<glyph horiz-adv-x="600" d="M 0 0 L 0 0 Z M 380 -2 L 300 233 L 220 -2 L 136 -2 L 0 436 L 117 436 L 193 168 L 266 401 L 343 401 L 417 168 L 496 436 L 600 436 L 463 -2 L 380 -2 Z M 302 496 L 302 496 Z M 186 496 L 280 666 L 419 666 L 302 496 L 186 496 Z" unicode="ẃ" />
<glyph horiz-adv-x="778" d="M 1 0 L 1 0 Z M 764 730 L 587 -5 L 508 -5 L 384 472 L 255 -5 L 175 -5 L 1 730 L 125 730 L 227 260 L 347 730 L 431 730 L 547 258 L 651 730 L 764 730 Z M 389 791 L 389 791 Z M 524 791 L 426 791 L 426 951 L 524 951 L 524 791 Z M 352 791 L 254 791 L 254 951 L 352 951 L 352 791 Z" unicode="Ẅ" />
<glyph horiz-adv-x="600" d="M 0 0 L 0 0 Z M 380 -2 L 300 233 L 220 -2 L 136 -2 L 0 436 L 117 436 L 193 168 L 266 401 L 343 401 L 417 168 L 496 436 L 600 436 L 463 -2 L 380 -2 Z M 302 497 L 302 497 Z M 437 497 L 339 497 L 339 657 L 437 657 L 437 497 Z M 265 497 L 167 497 L 167 657 L 265 657 L 265 497 Z" unicode="ẅ" />
<glyph horiz-adv-x="521" d="M 0 0 L 0 0 Z M 540 730 L 330 313 L 330 0 L 200 0 L 200 316 L -5 730 L 131 730 L 271 442 L 412 730 L 540 730 Z M 270 790 L 270 790 Z M 387 790 L 270 790 L 153 960 L 292 960 L 387 790 Z" unicode="Ỳ" />
<glyph horiz-adv-x="407" d="M 0 0 L 0 0 Z M 412 436 L 210 -99 C 194 -137 173 -163 146 -178 C 119 -192 90 -200 60 -200 C 46 -200 33 -198 21 -195 C 9 -191 0 -188 -7 -185 L 26 -91 C 28 -92 34 -94 42 -96 C 50 -98 57 -100 65 -100 C 77 -100 88 -95 97 -87 C 105 -79 113 -65 120 -47 L 150 40 L -6 436 L 121 436 L 210 185 L 297 436 L 412 436 Z M 206 496 L 206 496 Z M 323 496 L 206 496 L 89 666 L 228 666 L 323 496 Z" unicode="ỳ" />
<glyph horiz-adv-x="460" d="M 422 204 L 39 204 L 39 307 L 422 307 L 422 204 Z" unicode="–" />
<glyph horiz-adv-x="645" d="M 607 204 L 39 204 L 39 307 L 607 307 L 607 204 Z" unicode="—" />
<glyph horiz-adv-x="269" d="M 36 507 L 36 514 C 36 554 44 592 61 630 C 77 668 102 703 135 737 L 251 731 C 241 721 231 709 220 695 C 209 681 199 664 190 646 C 180 628 173 607 167 585 C 161 563 158 539 158 515 L 158 507 L 36 507 Z" unicode="‘" />
<glyph horiz-adv-x="269" d="M 233 737 L 233 730 C 233 690 224 651 208 614 C 191 576 166 541 134 507 L 18 513 C 27 523 37 535 48 550 C 58 564 68 581 78 599 C 87 617 95 637 101 659 C 107 681 111 704 111 729 L 111 737 L 233 737 Z" unicode="’" />
<glyph horiz-adv-x="269" d="M 232 116 L 232 109 C 232 69 223 30 207 -7 C 190 -44 165 -80 133 -114 L 17 -108 C 26 -98 36 -85 47 -71 C 58 -56 68 -40 78 -22 C 87 -4 95 16 101 38 C 107 60 110 83 110 108 L 110 116 L 232 116 Z" unicode="‚" />
<glyph horiz-adv-x="441" d="M 220 507 L 220 514 C 220 550 228 587 246 624 C 263 661 289 699 323 737 L 430 731 C 420 722 410 710 399 696 C 387 682 377 665 367 647 C 357 628 348 607 342 585 C 335 563 332 539 332 515 L 332 507 L 220 507 Z M 37 507 L 37 514 C 37 550 46 587 64 624 C 82 661 107 699 140 737 L 247 731 C 238 723 228 711 217 697 C 205 683 195 666 185 648 C 175 629 166 608 159 586 C 152 563 149 539 149 515 L 149 507 L 37 507 Z" unicode="“" />
<glyph horiz-adv-x="441" d="M 221 737 L 221 730 C 221 690 213 651 197 615 C 181 578 156 542 124 507 L 17 513 C 38 534 59 563 79 600 C 99 636 109 679 109 729 L 109 737 L 221 737 Z M 404 737 L 404 730 C 404 690 395 651 379 614 C 362 577 338 541 307 507 L 200 513 C 220 534 241 563 261 600 C 281 636 292 679 292 729 L 292 737 L 404 737 Z" unicode="”" />
<glyph horiz-adv-x="442" d="M 221 118 L 221 111 C 221 71 213 32 197 -4 C 181 -40 156 -76 124 -112 L 17 -106 C 38 -84 59 -55 79 -19 C 99 17 109 60 109 110 L 109 118 L 221 118 Z M 406 118 L 406 111 C 406 71 397 32 381 -4 C 364 -41 340 -77 310 -112 L 202 -106 C 222 -84 243 -55 263 -19 C 283 17 294 60 294 110 L 294 118 L 406 118 Z" unicode="„" />
<glyph horiz-adv-x="475" d="M 455 357 L 297 357 L 297 -179 L 172 -179 L 172 357 L 20 357 L 20 470 L 172 470 L 172 730 L 297 730 L 297 470 L 455 470 L 455 357 Z" unicode="†" />
<glyph horiz-adv-x="482" d="M 176 -179 L 176 85 L 30 85 L 30 198 L 176 198 L 176 364 L 30 364 L 30 477 L 176 477 L 176 730 L 301 730 L 301 477 L 453 477 L 453 364 L 301 364 L 301 198 L 453 198 L 453 85 L 301 85 L 301 -179 L 176 -179 Z" unicode="‡" />
<glyph horiz-adv-x="382" d="M 191 489 C 221 489 247 478 269 457 C 290 435 301 409 301 379 C 301 348 290 322 269 301 C 247 280 221 270 191 270 C 160 270 134 280 113 301 C 92 322 82 348 82 379 C 82 409 92 435 113 457 C 134 478 160 489 191 489 Z" unicode="•" />
<glyph horiz-adv-x="705" d="M 57 0 L 57 140 L 179 140 L 179 0 L 57 0 Z M 292 0 L 292 140 L 413 140 L 413 0 L 292 0 Z M 526 0 L 526 140 L 648 140 L 648 0 L 526 0 Z" unicode="…" />
<glyph horiz-adv-x="1049" d="M 181 363 C 163 363 146 366 128 374 C 110 382 95 393 81 409 C 67 425 55 444 46 468 C 37 492 33 519 33 551 C 33 577 36 602 44 625 C 52 648 62 668 75 685 C 88 702 103 715 121 725 C 139 735 158 740 178 740 C 200 740 220 735 239 725 C 257 715 273 701 287 685 C 300 668 310 648 318 626 C 325 603 329 579 329 554 C 329 527 325 502 317 479 C 309 455 298 435 285 418 C 271 400 256 387 238 377 C 220 367 201 363 181 363 Z M 107 0 L 517 730 L 595 730 L 186 0 L 107 0 Z M 135 551 C 135 524 138 501 145 481 C 151 461 163 451 181 451 C 199 451 212 461 219 481 C 225 501 229 524 229 551 C 229 577 225 600 219 620 C 212 640 200 651 182 651 C 164 651 152 641 145 621 C 138 601 135 577 135 551 Z M 534 -3 C 516 -3 499 0 481 8 C 463 16 447 27 433 43 C 419 59 407 78 399 102 C 390 126 386 153 386 185 C 386 211 389 236 397 259 C 405 282 415 302 429 319 C 442 336 458 349 477 359 C 495 369 515 374 537 374 C 559 374 580 369 598 359 C 616 349 632 335 645 319 C 657 302 667 282 674 260 C 681 237 685 213 685 188 C 685 161 681 136 674 113 C 666 89 656 69 643 52 C 629 34 613 21 595 11 C 576 1 556 -3 534 -3 Z M 865 -3 C 847 -3 830 0 812 8 C 794 16 778 27 764 43 C 750 59 738 78 729 102 C 720 126 716 153 716 185 C 716 211 719 236 727 259 C 735 282 745 302 759 319 C 772 336 788 349 807 359 C 825 369 845 374 867 374 C 889 374 910 369 928 359 C 946 349 962 335 975 319 C 988 302 998 282 1005 260 C 1012 237 1016 213 1016 188 C 1016 161 1012 136 1004 113 C 996 89 986 69 973 52 C 960 34 944 21 926 11 C 907 1 887 -3 865 -3 Z M 534 86 C 552 86 566 95 574 114 C 582 133 586 157 586 185 C 586 212 582 235 574 255 C 566 275 553 285 536 285 C 520 285 508 275 500 256 C 491 236 487 213 487 185 C 487 156 491 132 499 114 C 507 95 518 86 534 86 Z M 865 86 C 883 86 896 95 904 114 C 912 133 916 157 916 185 C 916 212 912 235 904 255 C 896 275 884 285 866 285 C 850 285 838 275 830 256 C 822 236 818 213 818 185 C 818 156 821 132 829 114 C 837 95 849 86 865 86 Z" unicode="‰" />
<glyph horiz-adv-x="249" d="M 221 63 L 26 233 L 26 308 L 221 476 L 221 357 L 130 268 L 221 185 L 221 63 Z" unicode="‹" />
<glyph horiz-adv-x="251" d="M 28 476 L 224 305 L 224 231 L 28 63 L 28 181 L 119 270 L 28 353 L 28 476 Z" unicode="›" />
<glyph horiz-adv-x="145" d="M 307 730 L -46 0 L -145 0 L 208 730 L 307 730 Z" unicode="⁄" />
<glyph horiz-adv-x="330" d="M 13 452 L 13 519 L 195 736 L 260 736 L 260 523 L 317 523 L 317 452 L 260 452 L 260 373 L 168 373 L 168 452 L 13 452 Z M 98 516 L 170 516 L 170 606 L 98 516 Z" unicode="⁴" />
<glyph horiz-adv-x="507" d="M 497 114 C 479 76 453 46 417 23 C 381 0 343 -12 301 -12 C 245 -12 197 11 157 57 C 117 103 91 167 79 247 L 27 247 L 27 334 L 71 334 C 71 338 71 342 71 346 C 71 350 71 355 71 360 C 71 364 71 367 71 371 C 71 375 71 379 71 383 L 27 383 L 27 470 L 78 470 C 84 510 93 546 105 580 C 117 613 132 642 150 666 C 168 690 190 708 215 722 C 240 735 268 742 300 742 C 354 742 396 730 426 706 C 456 682 478 654 492 624 L 404 568 C 393 586 380 602 365 616 C 350 630 329 638 303 638 C 274 638 250 624 230 596 C 210 568 197 526 190 470 L 451 470 L 451 383 L 184 383 C 184 379 184 376 184 372 C 184 368 184 365 184 362 C 184 357 184 352 184 348 C 184 343 184 338 184 334 L 451 334 L 451 247 L 192 247 C 200 192 215 152 236 127 C 257 102 281 90 307 90 C 333 90 354 98 371 115 C 388 132 402 152 413 175 L 497 114 Z" unicode="€" />
<glyph horiz-adv-x="919" d="M 871 309 L 764 309 L 764 555 L 642 374 L 617 374 L 497 553 L 497 309 L 393 309 L 393 730 L 495 730 L 630 528 L 764 730 L 871 730 L 871 309 Z M 364 613 L 250 613 L 250 309 L 134 309 L 134 613 L 16 613 L 16 730 L 364 730 L 364 613 Z" unicode="™" />
<glyph horiz-adv-x="754" d="M 37 0 L 37 110 L 237 110 L 237 166 C 175 184 124 219 86 271 C 47 323 28 382 28 449 C 28 490 35 529 51 565 C 67 601 89 633 119 660 C 148 687 184 708 227 724 C 270 740 319 748 373 748 C 429 748 479 740 523 724 C 567 708 604 686 634 660 C 664 633 686 601 702 565 C 718 528 726 489 726 449 C 726 381 708 322 674 272 C 640 221 587 186 516 166 L 516 110 L 716 110 L 716 0 L 424 0 L 424 229 C 479 243 521 271 550 311 C 579 351 594 394 594 442 C 594 471 588 498 577 524 C 566 549 551 571 531 589 C 511 607 488 621 461 631 C 434 641 405 646 374 646 C 343 646 314 641 288 631 C 262 621 239 606 220 588 C 201 570 186 548 176 523 C 165 497 160 470 160 440 C 160 394 174 351 202 313 C 230 274 273 246 330 229 L 330 0 L 37 0 Z" unicode="Ω" />
<glyph horiz-adv-x="513" d="M 471 286 C 471 232 465 186 453 148 C 441 110 425 80 405 57 C 385 33 361 16 334 6 C 307 -3 279 -9 249 -9 C 221 -9 194 -4 168 5 C 141 15 117 29 97 48 C 76 66 59 90 47 118 C 34 146 28 179 28 216 C 28 250 33 281 44 309 C 55 337 70 362 88 383 C 106 403 128 419 153 431 C 178 442 204 448 232 448 C 265 448 293 440 317 426 C 341 412 359 393 373 371 C 366 431 354 484 336 530 C 318 575 298 612 275 642 C 251 671 226 693 198 708 C 170 723 143 731 117 733 L 169 802 C 197 802 228 792 263 773 C 298 754 331 724 362 683 C 392 641 418 588 439 522 C 460 456 471 378 471 286 Z M 248 76 C 280 76 304 88 321 114 C 338 139 347 176 347 226 C 347 268 338 301 322 325 C 306 349 281 361 249 361 C 219 361 195 348 178 324 C 160 300 152 264 152 218 C 152 168 160 132 177 110 C 193 87 217 76 248 76 Z" unicode="∂" />
<glyph horiz-adv-x="596" d="M 598 0 L -1 0 L 283 730 L 316 730 L 598 0 Z M 441 93 L 296 504 L 151 93 L 441 93 Z" unicode="∆" />
<glyph horiz-adv-x="671" d="M 239 623 L 239 0 L 114 0 L 114 623 L 15 623 L 15 730 L 656 730 L 656 623 L 564 623 L 564 0 L 440 0 L 440 623 L 239 623 Z" unicode="∏" />
<glyph horiz-adv-x="575" d="M 207 623 L 420 307 L 173 -72 L 536 -72 L 536 -179 L -25 -179 L 299 306 L 5 730 L 515 730 L 515 623 L 207 623 Z" unicode="∑" />
<glyph horiz-adv-x="518" d="M 480 284 L 39 284 L 39 379 L 480 379 L 480 284 Z" unicode="−" />
<glyph horiz-adv-x="510" d="M 508 730 L 198 0 L 186 0 L 11 333 L 95 398 L 207 170 L 433 730 L 508 730 Z" unicode="√" />
<glyph horiz-adv-x="350" d="M 101 -9 L 157 620 C 159 640 164 658 172 674 C 180 689 191 702 203 712 C 215 722 229 730 244 735 C 259 740 274 743 288 743 C 302 743 317 742 332 741 C 347 740 356 739 359 739 L 350 636 C 348 636 344 637 338 638 C 332 638 326 639 320 639 C 301 639 286 632 274 620 C 262 607 256 587 254 561 L 201 -52 C 199 -68 195 -83 189 -99 C 182 -114 173 -128 162 -140 C 150 -152 137 -161 121 -169 C 105 -176 88 -179 70 -179 C 48 -179 28 -176 10 -172 C -7 -168 -22 -163 -32 -159 L -20 -74 C -15 -74 -8 -76 1 -79 C 10 -81 19 -83 28 -83 C 47 -83 63 -76 77 -64 C 90 -51 98 -33 101 -9 Z" unicode="∫" />
<glyph horiz-adv-x="474" d="M 343 509 L 448 509 C 446 461 438 420 422 388 C 406 355 381 339 347 339 C 325 339 305 342 289 350 C 272 357 258 365 247 374 C 235 382 223 390 211 397 C 199 403 186 407 174 407 C 162 407 151 400 141 388 C 130 375 125 360 125 342 L 31 342 C 31 392 40 433 59 464 C 77 494 103 510 137 510 C 157 510 176 505 192 497 C 208 489 221 481 233 473 C 244 466 255 460 267 454 C 278 448 289 446 300 446 C 316 446 327 451 333 463 C 339 474 343 489 343 509 Z M 345 323 L 448 323 C 446 275 437 234 420 202 C 402 169 376 153 341 153 C 317 153 297 156 281 164 C 264 171 250 179 240 188 C 229 196 218 204 207 210 C 195 216 184 220 173 220 C 162 220 152 213 142 201 C 132 188 127 173 127 156 L 31 156 C 31 207 40 248 60 279 C 79 309 107 325 143 325 C 165 325 185 320 202 312 C 219 304 233 295 244 287 C 254 279 265 273 275 268 C 285 262 296 260 306 260 C 320 260 330 265 336 277 C 342 288 345 303 345 323 Z" unicode="≈" />
<glyph horiz-adv-x="500" d="M 457 163 L 231 163 L 182 55 L 105 88 L 139 163 L 65 163 L 65 266 L 187 266 L 240 382 L 65 382 L 65 484 L 286 484 L 340 601 L 417 568 L 379 484 L 457 484 L 457 382 L 332 382 L 279 266 L 457 266 L 457 163 Z" unicode="≠" />
<glyph horiz-adv-x="500" d="M 180 327 L 433 196 L 433 9 L 61 9 L 61 96 L 413 96 L 62 287 L 62 361 L 433 566 L 433 456 L 180 327 Z" unicode="≤" />
<glyph horiz-adv-x="500" d="M 433 9 L 61 9 L 61 195 L 314 327 L 61 456 L 61 566 L 432 361 L 432 287 L 81 96 L 433 96 L 433 9 Z" unicode="≥" />
<glyph horiz-adv-x="545" d="M 516 326 L 278 -26 L 267 -26 L 28 326 L 28 337 L 267 688 L 278 688 L 516 337 L 516 326 Z M 405 327 L 405 336 L 277 530 L 269 530 L 139 336 L 139 327 L 269 132 L 277 132 L 405 327 Z" unicode="◊" />
<glyph horiz-adv-x="730" d="M 448 664 L 282 664 L 282 730 L 448 730 L 448 664 Z M 659 282 L 591 282 L 591 448 L 659 448 L 659 282 Z M 139 282 L 71 282 L 71 448 L 139 448 L 139 282 Z M 442 288 L 288 288 L 288 442 L 442 442 L 442 288 Z M 448 0 L 282 0 L 282 67 L 448 67 L 448 0 Z" unicode="" />
<glyph horiz-adv-x="478" d="M 265 340 L 189 340 L 189 0 L 71 0 L 71 340 L 13 340 L 13 436 L 71 436 L 71 589 C 71 617 75 643 85 666 C 95 689 107 709 123 725 C 138 741 155 753 175 761 C 195 769 214 774 234 774 C 253 774 271 772 288 768 C 305 764 317 759 325 755 L 304 662 C 300 663 293 665 284 667 C 275 669 266 671 257 671 C 238 671 222 662 208 646 C 194 630 188 606 188 576 L 188 436 L 265 436 L 265 340 Z M 436 518 L 313 518 L 313 627 L 436 627 L 436 518 Z M 434 0 L 315 0 L 315 436 L 434 436 L 434 0 Z" unicode="ﬁ" />
<glyph horiz-adv-x="474" d="M 189 340 L 189 0 L 71 0 L 71 340 L 13 340 L 13 436 L 71 436 L 71 588 C 71 617 75 643 85 666 C 95 689 107 709 123 725 C 138 741 155 753 175 762 C 195 770 214 775 234 775 C 249 775 264 773 278 771 C 292 768 304 765 313 763 L 313 770 L 432 770 L 432 0 L 313 0 L 313 694 L 307 662 C 302 664 295 667 286 669 C 277 671 268 673 258 673 C 239 673 223 664 209 647 C 195 629 188 606 188 576 L 188 436 L 265 436 L 265 340 L 189 340 Z" unicode="ﬂ" />
</font>
</defs>
</svg>
