<?xml version="1.0" encoding="utf-8" ?><svg version="1.1" xmlns = 'http://www.w3.org/2000/svg'><defs><font id='web' horiz-adv-x="1000">
<font-face font-family="web" descent="-200" cap-height="730" units-per-em="1000" bbox="-182,-336,1048,1030" x-height="544" ascent="800" />
<missing-glyph horiz-adv-x="500" d="" /><glyph horiz-adv-x="214" d="" unicode=" " />
<glyph horiz-adv-x="275" d="M 195 429 L 160 210 L 113 210 L 80 429 L 80 730 L 195 730 L 195 429 Z M 190 0 L 85 0 L 85 112 L 190 112 L 190 0 Z" unicode="!" />
<glyph horiz-adv-x="376" d="M 322 618 L 315 475 L 234 475 L 229 617 L 229 730 L 322 730 L 322 618 Z M 147 617 L 142 475 L 59 475 L 54 617 L 54 730 L 147 730 L 147 617 Z" unicode="&#x22;" />
<glyph horiz-adv-x="583" d="M 531 214 L 414 214 L 395 0 L 331 1 L 350 214 L 207 214 L 188 0 L 124 1 L 143 214 L 31 214 L 31 299 L 150 299 L 161 427 L 52 427 L 52 513 L 169 513 L 188 730 L 252 729 L 233 513 L 376 513 L 395 730 L 459 729 L 440 513 L 552 513 L 552 427 L 432 427 L 421 299 L 531 299 L 531 214 Z M 214 299 L 357 299 L 368 427 L 225 427 L 214 299 Z" unicode="#" />
<glyph horiz-adv-x="493" d="M 458 188 C 458 160 453 136 443 114 C 433 92 420 73 404 57 C 387 41 368 28 346 18 C 324 8 300 2 276 0 L 276 -126 L 216 -126 L 216 -1 C 176 1 139 10 107 24 C 74 38 46 59 24 86 L 71 164 C 87 142 109 124 136 110 C 162 96 189 87 216 85 L 216 338 C 158 366 115 396 86 428 C 56 459 42 501 42 555 C 42 604 58 644 91 676 C 124 708 166 726 216 731 L 216 792 L 276 792 L 276 731 C 312 727 343 719 370 707 C 397 694 420 678 439 660 L 387 591 C 372 605 355 617 336 627 C 316 636 296 642 276 645 L 276 409 L 281 407 C 342 376 387 345 415 314 C 443 282 458 240 458 188 Z M 140 549 C 140 526 146 507 156 491 C 166 475 186 459 216 442 L 216 643 C 194 637 176 625 162 609 C 147 593 140 573 140 549 Z M 360 189 C 360 212 354 232 342 250 C 330 268 308 286 276 305 L 276 88 C 300 93 320 104 336 121 C 352 137 360 160 360 189 Z" unicode="$" />
<glyph horiz-adv-x="754" d="M 186 357 C 167 357 148 361 130 369 C 112 377 96 390 82 406 C 68 422 57 442 49 466 C 40 490 36 517 36 548 C 36 574 39 599 47 623 C 54 646 64 666 78 684 C 91 701 107 715 125 725 C 143 735 162 740 184 740 C 206 740 227 734 246 724 C 264 714 280 700 294 683 C 307 666 317 646 325 623 C 332 600 336 576 336 551 C 336 523 332 498 324 474 C 316 450 306 430 293 413 C 279 395 263 382 245 372 C 227 362 207 357 186 357 Z M 187 0 L 99 0 L 549 730 L 636 730 L 187 0 Z M 185 435 C 210 435 228 446 238 468 C 248 490 254 517 254 548 C 254 578 249 604 239 627 C 229 649 211 661 187 661 C 162 661 144 649 133 627 C 122 605 117 578 117 548 C 117 516 122 490 133 468 C 143 446 161 435 185 435 Z M 566 -3 C 546 -3 528 1 510 9 C 492 17 476 30 462 46 C 448 62 436 82 428 106 C 419 130 415 157 415 188 C 415 214 418 239 426 263 C 434 286 444 306 458 324 C 471 341 487 355 506 365 C 524 375 545 380 567 380 C 589 380 610 374 629 364 C 647 354 663 340 677 323 C 690 306 700 286 707 263 C 714 240 718 216 718 191 C 718 164 714 139 707 115 C 699 91 689 71 676 53 C 662 35 646 22 628 12 C 609 2 588 -3 566 -3 Z M 564 76 C 590 76 608 87 619 109 C 630 131 636 157 636 188 C 636 218 630 245 619 268 C 608 291 590 303 566 303 C 543 303 526 291 514 269 C 502 246 497 219 497 188 C 497 156 502 130 514 108 C 525 86 542 76 564 76 Z" unicode="%" />
<glyph horiz-adv-x="676" d="M 601 -5 L 519 74 C 486 47 449 27 409 13 C 369 -1 323 -8 272 -8 C 198 -8 139 8 95 41 C 51 74 29 120 29 180 C 29 208 33 232 42 254 C 50 276 62 295 76 312 C 90 328 106 343 126 357 C 145 371 165 384 186 396 L 181 401 C 172 409 163 419 153 431 C 143 443 134 456 126 470 C 118 484 111 501 106 519 C 100 537 98 556 98 577 C 98 598 102 618 111 638 C 120 657 133 674 149 689 C 165 703 184 715 207 724 C 229 732 254 737 281 737 C 337 737 382 721 416 691 C 450 661 467 625 467 584 C 467 543 455 508 431 478 C 407 448 374 419 332 391 L 515 217 C 524 229 533 242 543 256 C 552 270 561 285 570 301 L 656 247 C 645 228 634 210 623 194 C 611 177 600 161 589 147 L 667 72 L 601 -5 Z M 258 462 L 274 447 C 306 467 330 487 346 505 C 361 523 369 542 369 563 C 369 585 361 605 347 622 C 332 638 311 647 285 647 C 259 647 238 637 223 619 C 208 601 201 582 201 562 C 201 543 206 526 216 510 C 226 494 240 478 258 462 Z M 141 195 C 141 161 155 134 183 114 C 211 93 245 83 284 83 C 314 83 343 88 370 98 C 397 108 423 123 447 144 L 246 338 C 215 317 190 296 170 275 C 150 254 141 227 141 195 Z" unicode="&#x26;" />
<glyph horiz-adv-x="203" d="M 149 614 L 144 469 L 58 469 L 54 614 L 54 730 L 149 730 L 149 614 Z" unicode="'" />
<glyph horiz-adv-x="314" d="M 295 -92 L 295 -182 C 259 -165 224 -142 192 -112 C 159 -82 130 -47 106 -7 C 81 32 61 78 47 129 C 32 180 25 235 25 293 C 25 349 32 402 46 451 C 60 500 79 544 103 583 C 127 621 156 655 189 683 C 222 711 257 733 295 749 L 295 664 C 247 634 208 589 179 527 C 150 465 135 387 135 293 C 135 207 148 131 175 64 C 201 -2 241 -54 295 -92 Z" unicode="(" />
<glyph horiz-adv-x="314" d="M 20 663 L 20 749 C 55 735 89 714 122 686 C 154 658 183 625 208 586 C 232 547 252 502 267 451 C 281 400 289 345 289 285 C 289 228 281 175 267 125 C 252 75 232 31 208 -8 C 184 -48 155 -82 123 -112 C 90 -142 56 -165 20 -182 L 20 -90 C 70 -54 109 -4 137 59 C 165 123 179 199 180 285 C 180 382 165 462 136 525 C 106 588 68 634 20 663 Z" unicode=")" />
<glyph horiz-adv-x="398" d="M 374 572 L 244 546 L 341 462 L 266 400 L 201 515 L 137 401 L 59 461 L 157 548 L 27 570 L 69 666 L 174 598 L 149 730 L 253 730 L 227 598 L 337 660 L 374 572 Z" unicode="*" />
<glyph horiz-adv-x="479" d="M 456 290 L 282 290 L 282 120 L 198 120 L 198 290 L 24 290 L 24 373 L 198 373 L 198 542 L 282 542 L 282 373 L 456 373 L 456 290 Z" unicode="+" />
<glyph horiz-adv-x="229" d="M 193 113 C 192 87 188 62 181 36 C 174 10 166 -14 156 -38 C 146 -62 135 -83 123 -102 C 111 -121 99 -136 88 -148 L 11 -114 C 18 -104 26 -91 34 -75 C 42 -59 50 -40 58 -20 C 65 0 71 21 77 44 C 82 67 85 90 87 113 L 193 113 Z" unicode="," />
<glyph horiz-adv-x="330" d="M 294 222 L 37 222 L 37 314 L 294 314 L 294 222 Z" unicode="-" />
<glyph horiz-adv-x="230" d="M 167 0 L 64 0 L 64 134 L 167 134 L 167 0 Z" unicode="." />
<glyph horiz-adv-x="316" d="M 314 730 L 96 0 L 2 0 L 222 730 L 314 730 Z" unicode="/" />
<glyph horiz-adv-x="497" d="M 246 -9 C 183 -9 131 20 91 78 C 51 136 31 230 31 361 C 31 417 35 468 44 515 C 53 561 67 601 85 634 C 103 667 125 693 153 711 C 180 729 212 739 250 739 C 288 739 320 730 348 712 C 376 694 398 669 416 637 C 433 605 446 566 454 521 C 462 475 466 425 466 371 C 466 251 447 157 411 91 C 374 24 319 -9 246 -9 Z M 246 80 C 286 80 315 103 334 149 C 352 195 362 266 362 362 C 362 456 353 527 337 576 C 320 625 291 650 249 650 C 208 650 179 626 161 580 C 143 533 134 461 134 364 C 134 263 143 190 163 146 C 182 102 210 80 246 80 Z" unicode="0" />
<glyph horiz-adv-x="330" d="M 261 0 L 156 0 L 156 585 C 144 565 125 547 101 530 C 77 513 54 503 32 501 L 32 607 C 44 607 57 612 71 620 C 85 628 99 637 112 649 C 125 661 137 674 149 688 C 161 702 170 717 178 732 L 261 732 L 261 0 Z" unicode="1" />
<glyph horiz-adv-x="477" d="M 451 0 L 23 0 L 23 27 L 272 351 C 291 377 307 406 321 438 C 335 469 342 503 342 541 C 342 575 332 602 313 621 C 293 639 267 649 235 649 C 199 649 171 637 153 613 C 135 589 126 556 126 514 L 30 514 C 30 588 49 644 87 682 C 124 720 175 739 239 739 C 299 739 347 722 385 690 C 423 657 442 612 442 556 C 442 499 434 453 419 417 C 403 381 385 350 364 322 L 191 96 L 451 96 L 451 0 Z" unicode="2" />
<glyph horiz-adv-x="475" d="M 216 -9 C 162 -9 116 -2 80 11 C 43 25 15 40 -4 57 L 40 140 C 56 125 78 111 106 98 C 134 85 168 79 208 79 C 252 79 288 92 314 119 C 340 146 353 181 353 224 C 353 266 339 297 312 318 C 285 339 254 350 218 350 L 122 350 L 122 437 L 216 437 C 249 437 276 447 297 467 C 318 487 329 514 329 548 C 329 576 319 601 299 621 C 279 641 252 651 217 651 C 183 651 154 644 130 630 C 106 616 86 600 70 580 L 12 645 C 30 669 58 690 94 710 C 130 729 176 739 232 739 C 290 739 338 723 374 693 C 410 662 429 620 429 568 C 429 524 416 487 392 457 C 368 427 338 407 303 399 C 321 395 340 389 358 379 C 376 369 392 357 406 342 C 420 327 431 309 439 288 C 447 267 452 244 452 219 C 452 191 447 163 437 136 C 427 108 413 84 394 63 C 374 41 350 24 320 11 C 290 -2 256 -9 216 -9 Z" unicode="3" />
<glyph horiz-adv-x="475" d="M 473 181 L 387 181 L 387 0 L 295 0 L 295 181 L 6 181 L 5 252 L 317 739 L 387 739 L 387 270 L 473 270 L 473 181 Z M 296 263 L 296 563 L 108 263 L 296 263 Z" unicode="4" />
<glyph horiz-adv-x="472" d="M 229 -9 C 181 -9 137 0 98 16 C 59 33 29 53 9 76 L 61 155 C 76 138 97 121 123 105 C 149 89 179 81 215 81 C 256 81 288 96 312 126 C 336 156 348 197 348 249 C 348 295 337 331 315 357 C 293 383 266 396 234 396 C 201 396 175 389 156 376 C 137 362 122 345 112 323 L 43 344 L 72 730 L 408 730 L 408 634 L 147 634 L 130 418 C 138 432 153 447 175 461 C 196 475 225 482 263 482 C 318 482 363 462 398 424 C 433 385 451 329 451 256 C 451 214 445 176 434 143 C 422 109 407 81 387 59 C 367 37 343 20 316 8 C 289 -3 260 -9 229 -9 Z" unicode="5" />
<glyph horiz-adv-x="478" d="M 249 -10 C 219 -10 190 -4 164 6 C 137 16 113 32 93 53 C 73 73 57 99 45 130 C 33 160 28 195 28 235 C 28 310 46 382 82 452 C 118 522 167 593 230 666 L 301 751 L 371 692 L 325 638 C 301 610 279 582 257 555 C 235 528 216 503 199 479 C 181 455 167 433 155 413 C 143 393 136 375 132 361 C 143 385 162 405 188 422 C 214 439 243 448 275 448 C 330 448 374 427 408 385 C 441 343 458 290 458 224 C 458 190 452 158 442 130 C 431 101 416 76 398 56 C 380 35 358 19 332 7 C 306 -4 279 -10 249 -10 Z M 245 79 C 279 79 306 91 326 117 C 346 143 357 177 357 219 C 357 264 347 299 327 323 C 307 347 280 360 246 360 C 214 360 186 348 163 325 C 140 301 129 268 129 224 C 129 177 140 141 162 116 C 184 91 211 79 245 79 Z" unicode="6" />
<glyph horiz-adv-x="410" d="M 407 730 L 413 681 L 131 -6 L 38 31 L 298 634 L 12 634 L 12 730 L 407 730 Z" unicode="7" />
<glyph horiz-adv-x="494" d="M 336 390 C 352 386 369 379 385 370 C 401 360 415 348 427 333 C 439 317 449 299 457 277 C 465 255 469 230 469 202 C 469 138 449 86 409 48 C 369 10 316 -9 248 -9 C 179 -9 125 9 85 47 C 45 85 25 135 25 197 C 25 226 29 252 37 275 C 45 298 56 318 69 334 C 82 350 97 363 113 373 C 129 383 144 389 159 392 C 131 400 105 418 81 444 C 57 470 46 508 46 556 C 46 584 51 609 61 632 C 71 654 86 673 104 689 C 122 705 143 717 167 726 C 191 734 218 739 246 739 C 306 739 354 722 391 690 C 428 657 447 614 447 562 C 447 514 435 476 412 447 C 389 418 364 399 336 390 Z M 247 419 C 278 419 304 428 324 448 C 344 467 355 496 355 535 C 355 572 344 601 324 622 C 303 642 277 653 247 653 C 216 653 190 643 169 623 C 147 603 137 573 137 535 C 137 493 148 463 172 445 C 195 427 220 419 247 419 Z M 248 77 C 284 77 313 88 335 110 C 357 132 368 165 368 210 C 368 252 356 283 332 304 C 308 324 280 335 248 335 C 214 335 185 325 161 305 C 137 285 125 252 125 207 C 125 165 137 133 161 111 C 185 88 214 77 248 77 Z" unicode="8" />
<glyph horiz-adv-x="478" d="M 193 -15 L 125 46 L 171 93 C 189 113 207 136 226 162 C 245 188 263 214 280 240 C 296 266 311 291 324 315 C 337 339 347 360 353 378 C 341 355 320 335 292 317 C 263 299 233 290 203 290 C 148 290 104 310 70 352 C 36 393 20 447 20 514 C 20 546 25 576 36 604 C 47 632 62 655 81 675 C 100 695 123 710 149 722 C 175 733 204 739 234 739 C 263 739 291 733 317 723 C 343 713 366 698 386 678 C 406 658 421 632 433 602 C 445 572 451 537 451 498 C 451 452 445 409 434 367 C 422 325 407 286 389 249 C 371 212 350 177 326 145 C 302 112 277 82 253 55 L 193 -15 Z M 231 376 C 261 376 289 387 313 409 C 337 431 349 464 349 508 C 349 556 337 591 315 615 C 293 639 266 651 234 651 C 199 651 171 638 151 614 C 131 589 121 556 121 514 C 121 468 130 434 149 411 C 168 387 195 376 231 376 Z" unicode="9" />
<glyph horiz-adv-x="225" d="M 164 416 L 61 416 L 61 544 L 164 544 L 164 416 Z M 164 0 L 61 0 L 61 129 L 164 129 L 164 0 Z" unicode=":" />
<glyph horiz-adv-x="224" d="M 170 416 L 68 416 L 68 544 L 170 544 L 170 416 Z M 174 103 C 172 79 168 54 162 30 C 155 5 147 -18 138 -40 C 129 -62 119 -83 107 -101 C 95 -119 84 -133 73 -145 L -4 -110 C 3 -100 11 -88 20 -72 C 29 -56 37 -39 45 -20 C 52 -1 58 18 64 40 C 69 61 72 82 73 103 L 174 103 Z" unicode=";" />
<glyph horiz-adv-x="401" d="M 353 100 L 34 289 L 34 364 L 353 550 L 353 455 L 134 327 L 353 198 L 353 100 Z" unicode="&#x3C;" />
<glyph horiz-adv-x="486" d="M 435 386 L 52 386 L 52 474 L 435 474 L 435 386 Z M 435 171 L 52 171 L 52 259 L 435 259 L 435 171 Z" unicode="=" />
<glyph horiz-adv-x="401" d="M 363 289 L 44 100 L 44 196 L 261 328 L 44 456 L 44 550 L 363 364 L 363 289 Z" unicode="&#x3E;" />
<glyph horiz-adv-x="447" d="M 156 208 C 156 250 161 286 172 314 C 182 342 201 370 227 397 C 247 417 267 440 286 464 C 304 488 314 517 314 552 C 314 582 304 605 284 622 C 264 638 238 647 208 647 C 180 647 156 640 134 626 C 112 612 94 596 79 576 L 17 641 C 39 672 69 697 105 715 C 141 733 180 742 224 742 C 284 742 331 726 367 694 C 403 662 421 620 421 566 C 421 540 417 517 410 496 C 403 475 394 456 384 439 C 373 422 361 406 348 392 C 334 378 321 364 309 352 C 287 333 273 310 266 284 C 259 257 255 232 255 208 L 156 208 Z M 151 0 L 151 123 L 264 123 L 264 0 L 151 0 Z" unicode="?" />
<glyph horiz-adv-x="827" d="M 409 -40 C 354 -40 304 -30 258 -10 C 212 10 173 37 141 71 C 108 105 82 145 64 191 C 46 237 37 287 37 340 C 37 392 46 442 64 488 C 82 534 108 575 142 609 C 175 643 215 669 261 689 C 307 709 359 719 415 719 C 471 719 523 710 570 694 C 616 677 656 653 689 623 C 721 593 746 556 764 513 C 782 470 791 423 791 372 C 791 328 786 291 777 260 C 767 229 755 204 740 184 C 724 164 707 150 687 141 C 667 131 646 127 626 127 C 595 127 570 133 552 147 C 534 160 522 177 518 198 C 508 182 490 167 463 151 C 436 135 403 127 363 127 C 317 127 280 138 254 162 C 228 186 215 218 215 259 C 215 304 233 339 269 363 C 305 387 353 400 412 400 L 500 400 L 500 412 C 500 440 491 460 473 472 C 455 484 432 491 404 491 C 380 491 358 488 338 482 C 318 476 301 471 288 467 L 260 533 C 278 541 301 549 327 556 C 353 562 381 566 411 566 C 465 566 506 552 536 526 C 565 499 580 456 580 396 L 580 252 C 580 238 584 225 594 214 C 603 202 617 197 636 197 C 646 197 657 199 667 204 C 677 209 687 218 695 230 C 703 242 710 260 715 282 C 720 304 723 332 723 367 C 723 408 716 446 702 482 C 688 518 667 548 641 574 C 614 599 582 619 544 634 C 506 648 463 656 415 656 C 368 656 325 647 287 631 C 249 615 216 592 189 564 C 162 536 141 502 126 464 C 111 425 104 384 104 340 C 104 296 111 255 126 216 C 141 177 162 143 189 115 C 216 86 248 63 286 46 C 324 29 365 21 411 21 C 432 21 453 23 475 27 C 496 31 519 39 543 51 L 567 -5 C 540 -17 514 -26 488 -32 C 462 -37 435 -40 409 -40 Z M 393 199 C 417 199 440 204 461 215 C 481 226 494 237 500 249 L 500 339 L 418 339 C 382 339 354 332 334 320 C 314 307 305 289 305 267 C 305 244 312 227 327 216 C 342 204 364 199 393 199 Z" unicode="@" />
<glyph horiz-adv-x="543" d="M 542 0 L 434 0 L 378 174 L 156 174 L 104 0 L 0 0 L 235 734 L 310 734 L 542 0 Z M 361 255 L 267 559 L 174 255 L 361 255 Z" unicode="A" />
<glyph horiz-adv-x="512" d="M 68 0 L 68 730 L 269 730 C 324 730 368 714 402 683 C 436 652 453 609 453 555 C 453 505 440 465 415 436 C 390 406 360 388 325 382 C 343 380 362 376 382 368 C 401 360 418 348 434 334 C 449 319 461 301 471 279 C 481 257 486 232 486 203 C 486 141 466 92 428 55 C 389 18 340 0 280 0 L 68 0 Z M 173 413 L 246 413 C 265 413 281 416 295 423 C 308 430 319 439 327 451 C 335 463 342 476 346 491 C 350 505 352 520 352 536 C 352 568 342 594 324 614 C 305 633 277 643 241 643 L 173 643 L 173 413 Z M 173 87 L 264 87 C 304 87 333 99 351 123 C 369 147 378 177 378 211 C 378 249 366 277 344 297 C 321 317 292 327 256 327 L 173 327 L 173 87 Z" unicode="B" />
<glyph horiz-adv-x="604" d="M 324 -9 C 282 -9 244 0 209 15 C 174 31 144 55 118 87 C 92 118 72 157 58 204 C 44 251 37 305 37 366 C 37 423 43 475 57 521 C 70 567 89 607 113 639 C 137 671 168 695 204 713 C 240 730 280 739 325 739 C 387 739 437 724 475 696 C 513 668 541 631 561 585 L 467 540 C 453 568 435 592 414 612 C 392 632 363 642 325 642 C 269 642 225 620 193 576 C 161 532 146 461 146 365 C 146 314 151 271 162 236 C 172 200 186 172 204 150 C 221 128 241 112 263 102 C 285 92 308 87 332 87 C 372 87 405 97 429 119 C 453 140 472 168 486 202 L 574 155 C 553 105 522 66 480 36 C 438 6 386 -9 324 -9 Z" unicode="C" />
<glyph horiz-adv-x="611" d="M 68 0 L 68 730 L 256 730 C 306 730 352 721 392 704 C 432 686 465 662 492 631 C 518 599 539 561 553 516 C 567 471 574 422 574 368 C 574 316 567 268 553 223 C 539 178 519 139 492 106 C 464 73 430 47 389 28 C 347 9 299 0 245 0 L 68 0 Z M 178 91 L 247 91 C 285 91 317 97 345 111 C 372 124 394 143 411 167 C 428 191 441 220 449 254 C 457 288 462 325 462 367 C 462 456 443 524 407 570 C 371 616 320 639 256 639 L 178 639 L 178 91 Z" unicode="D" />
<glyph horiz-adv-x="462" d="M 436 0 L 68 0 L 68 730 L 418 730 L 418 634 L 176 634 L 176 412 L 406 412 L 406 319 L 176 319 L 176 96 L 436 96 L 436 0 Z" unicode="E" />
<glyph horiz-adv-x="417" d="M 399 634 L 179 634 L 179 414 L 386 414 L 386 321 L 179 321 L 179 0 L 69 0 L 69 730 L 399 730 L 399 634 Z" unicode="F" />
<glyph horiz-adv-x="624" d="M 325 368 L 584 368 L 584 129 C 562 88 529 55 485 29 C 441 3 388 -9 328 -9 C 288 -9 250 0 214 16 C 178 33 148 58 122 90 C 96 122 75 161 60 207 C 44 253 37 306 37 365 C 37 421 44 473 58 519 C 72 565 92 605 118 637 C 144 669 175 694 211 712 C 247 729 286 738 329 738 C 392 738 441 725 477 700 C 513 675 540 646 558 613 L 475 548 C 461 572 443 594 421 612 C 399 630 369 640 332 640 C 278 640 233 617 198 572 C 163 527 146 457 146 363 C 146 315 150 274 160 238 C 170 202 183 173 200 150 C 216 127 236 110 258 98 C 280 86 304 81 330 81 C 366 81 397 87 425 100 C 452 112 472 132 485 159 L 485 276 L 325 276 L 325 368 Z" unicode="G" />
<glyph horiz-adv-x="612" d="M 543 0 L 433 0 L 433 315 L 178 315 L 178 0 L 68 0 L 68 730 L 178 730 L 178 407 L 433 407 L 433 730 L 543 730 L 543 0 Z" unicode="H" />
<glyph horiz-adv-x="255" d="M 183 0 L 72 0 L 72 730 L 183 730 L 183 0 Z" unicode="I" />
<glyph horiz-adv-x="339" d="M 273 730 L 273 187 C 273 131 256 84 223 47 C 190 9 144 -9 84 -9 C 69 -9 52 -7 34 -4 C 15 -1 1 3 -8 10 L 20 98 C 24 95 31 93 41 91 C 51 89 61 89 71 89 C 100 89 123 100 139 122 C 155 144 163 170 163 202 L 163 730 L 273 730 Z" unicode="J" />
<glyph horiz-adv-x="561" d="M 563 0 L 437 0 L 232 313 L 179 247 L 179 0 L 68 0 L 68 730 L 179 730 L 179 389 L 421 730 L 536 730 L 301 404 L 563 0 Z" unicode="K" />
<glyph horiz-adv-x="420" d="M 412 0 L 68 0 L 68 730 L 178 730 L 178 96 L 412 96 L 412 0 Z" unicode="L" />
<glyph horiz-adv-x="738" d="M 670 0 L 566 0 L 566 505 L 394 170 L 347 170 L 170 505 L 170 0 L 68 0 L 68 730 L 161 730 L 372 314 L 581 730 L 670 730 L 670 0 Z" unicode="M" />
<glyph horiz-adv-x="619" d="M 550 0 L 472 0 L 171 493 L 171 0 L 68 0 L 68 730 L 148 730 L 450 235 L 450 730 L 550 730 L 550 0 Z" unicode="N" />
<glyph horiz-adv-x="660" d="M 333 -9 C 287 -9 245 0 209 17 C 172 35 141 60 116 92 C 90 124 71 164 57 212 C 43 259 37 312 37 371 C 37 427 44 477 58 523 C 72 569 91 607 117 639 C 143 671 173 695 209 713 C 245 730 284 739 327 739 C 418 739 490 706 543 640 C 596 574 623 482 623 366 C 623 308 615 256 601 210 C 586 163 566 123 541 91 C 515 59 485 34 449 17 C 413 0 375 -9 333 -9 Z M 334 81 C 387 81 430 104 463 152 C 495 200 512 272 512 369 C 512 459 494 527 460 575 C 426 623 381 647 325 647 C 271 647 228 624 196 578 C 164 532 149 461 149 367 C 149 271 166 199 201 152 C 235 104 280 81 334 81 Z" unicode="O" />
<glyph horiz-adv-x="505" d="M 68 0 L 68 730 L 282 730 C 310 730 337 725 362 715 C 386 705 408 692 426 674 C 444 656 459 634 469 608 C 479 582 485 552 485 520 C 485 454 466 400 428 360 C 390 319 341 299 283 299 L 178 299 L 178 0 L 68 0 Z M 178 389 L 262 389 C 299 389 327 400 346 422 C 365 444 375 477 375 520 C 375 560 363 589 341 609 C 319 629 291 639 258 639 L 178 639 L 178 389 Z" unicode="P" />
<glyph horiz-adv-x="660" d="M 574 -68 L 574 -172 C 526 -167 479 -151 433 -123 C 387 -95 350 -56 322 -6 C 233 -3 163 31 113 97 C 62 163 37 255 37 371 C 37 426 44 476 58 522 C 72 568 91 606 117 638 C 142 670 172 694 208 712 C 244 730 283 739 327 739 C 418 739 490 706 543 640 C 596 574 623 483 623 365 C 623 275 605 200 570 138 C 535 76 489 34 431 12 C 452 -14 476 -34 503 -46 C 529 -58 553 -65 574 -68 Z M 148 368 C 148 286 160 222 186 176 C 212 130 245 100 285 88 C 281 104 277 122 275 140 C 273 158 272 176 273 196 L 372 196 C 372 175 374 156 377 139 C 380 121 384 105 389 91 C 427 105 457 136 479 182 C 501 228 513 290 513 367 C 513 415 508 456 498 491 C 488 526 475 555 458 578 C 441 601 421 618 398 629 C 375 640 351 646 325 646 C 271 646 228 623 196 578 C 164 533 148 463 148 368 Z" unicode="Q" />
<glyph horiz-adv-x="519" d="M 68 0 L 68 730 L 257 730 C 313 730 361 713 399 679 C 437 645 456 595 456 529 C 456 473 442 427 416 392 C 390 356 358 336 322 330 L 321 325 L 511 0 L 394 0 L 223 302 L 172 302 L 172 0 L 68 0 Z M 172 392 L 238 392 C 270 392 297 403 319 425 C 340 447 351 478 351 518 C 351 559 340 590 319 610 C 298 630 272 641 242 641 L 172 641 L 172 392 Z" unicode="R" />
<glyph horiz-adv-x="480" d="M 241 -9 C 194 -9 153 -1 117 12 C 81 26 50 49 24 81 L 95 152 C 111 129 132 111 159 98 C 185 84 212 78 239 78 C 267 78 291 87 312 105 C 333 123 344 147 344 178 C 344 210 334 236 316 257 C 297 277 263 301 214 328 C 156 357 114 388 86 422 C 58 456 45 501 45 559 C 45 613 64 657 102 690 C 140 722 187 739 243 739 C 287 739 324 731 354 717 C 384 702 408 685 426 667 L 362 592 C 346 606 327 619 307 629 C 286 639 264 644 240 644 C 214 644 192 636 174 621 C 155 605 146 584 146 556 C 146 526 155 502 174 484 C 193 465 228 442 280 414 C 341 382 384 349 408 315 C 432 281 445 237 445 185 C 445 153 439 126 428 102 C 416 78 401 57 383 41 C 364 25 342 12 318 4 C 293 -4 267 -9 241 -9 Z" unicode="S" />
<glyph horiz-adv-x="440" d="M 432 634 L 274 634 L 274 0 L 164 0 L 164 634 L 7 634 L 7 730 L 432 730 L 432 634 Z" unicode="T" />
<glyph horiz-adv-x="611" d="M 546 730 L 546 235 C 546 193 539 157 526 126 C 512 95 494 70 472 50 C 450 30 424 15 394 5 C 364 -4 333 -9 301 -9 C 269 -9 239 -4 211 5 C 182 14 157 28 135 48 C 113 68 96 93 84 124 C 71 154 65 191 65 235 L 65 730 L 173 730 L 173 235 C 173 184 185 147 211 123 C 236 99 267 88 303 88 C 339 88 369 99 395 122 C 421 144 434 182 434 235 L 434 730 L 546 730 Z" unicode="U" />
<glyph horiz-adv-x="533" d="M 533 730 L 303 -4 L 225 -4 L 0 730 L 111 730 L 267 183 L 428 730 L 533 730 Z" unicode="V" />
<glyph horiz-adv-x="775" d="M 758 730 L 584 -4 L 513 -4 L 382 531 L 249 -4 L 177 -4 L 5 730 L 112 730 L 227 204 L 349 730 L 425 730 L 548 205 L 662 730 L 758 730 Z" unicode="W" />
<glyph horiz-adv-x="511" d="M 389 0 L 252 272 L 113 0 L 8 0 L 200 376 L 21 730 L 135 730 L 257 488 L 380 730 L 485 730 L 309 384 L 502 0 L 389 0 Z" unicode="X" />
<glyph horiz-adv-x="533" d="M 536 730 L 319 311 L 319 0 L 209 0 L 209 314 L -3 730 L 123 730 L 271 420 L 428 730 L 536 730 Z" unicode="Y" />
<glyph horiz-adv-x="479" d="M 451 730 L 451 677 L 154 94 L 462 94 L 462 0 L 16 0 L 16 51 L 311 635 L 44 635 L 44 730 L 451 730 Z" unicode="Z" />
<glyph horiz-adv-x="272" d="M 247 -179 L 65 -179 L 65 730 L 247 730 L 247 643 L 162 643 L 162 -90 L 247 -90 L 247 -179 Z" unicode="[" />
<glyph horiz-adv-x="316" d="M 2 730 L 93 730 L 314 0 L 221 0 L 2 730 Z" unicode="\" />
<glyph horiz-adv-x="269" d="M 206 -179 L 28 -179 L 28 -92 L 109 -92 L 109 643 L 28 643 L 28 730 L 206 730 L 206 -179 Z" unicode="]" />
<glyph horiz-adv-x="460" d="M 423 369 L 334 369 L 228 624 L 124 369 L 37 369 L 185 730 L 272 730 L 423 369 Z" unicode="^" />
<glyph horiz-adv-x="450" d="M 450 -160 L 0 -160 L 0 -78 L 450 -78 L 450 -160 Z" unicode="_" />
<glyph horiz-adv-x="500" d="M 351 601 L 252 601 L 140 770 L 258 770 L 351 601 Z" unicode="`" />
<glyph horiz-adv-x="452" d="M 403 0 L 314 0 L 314 57 C 296 35 276 19 255 9 C 233 0 205 -6 170 -6 C 126 -6 90 8 64 38 C 38 67 25 108 25 160 C 25 220 43 264 79 293 C 115 321 161 338 217 342 L 306 349 L 306 377 C 306 406 298 428 283 442 C 267 456 245 464 217 464 C 191 464 167 459 145 449 C 123 439 104 429 89 419 L 56 499 C 74 513 98 526 128 538 C 158 549 194 555 236 555 C 287 555 328 541 358 514 C 388 487 403 447 403 394 L 403 0 Z M 308 125 L 308 276 L 229 271 C 199 269 174 259 155 242 C 135 224 126 198 126 162 C 126 131 134 108 150 93 C 166 78 185 71 207 71 C 229 71 249 76 266 87 C 283 97 297 110 308 125 Z" unicode="a" />
<glyph horiz-adv-x="497" d="M 288 -5 C 251 -5 221 4 197 22 C 173 40 157 63 147 90 L 147 0 L 54 0 L 54 800 L 149 800 L 149 436 C 157 466 174 493 198 516 C 222 538 254 550 295 550 C 347 550 390 525 422 477 C 454 428 470 364 470 284 C 470 238 465 198 456 162 C 446 126 433 95 417 71 C 401 46 381 27 359 14 C 337 1 313 -5 288 -5 Z M 255 79 C 287 79 314 95 334 129 C 354 162 365 211 365 275 C 365 335 355 381 336 413 C 317 444 290 460 256 460 C 226 460 201 445 180 417 C 158 388 148 337 148 264 C 148 192 158 144 179 118 C 200 92 225 79 255 79 Z" unicode="b" />
<glyph horiz-adv-x="437" d="M 359 144 L 419 85 C 404 62 383 41 356 22 C 329 2 294 -7 250 -7 C 216 -7 185 0 157 13 C 129 27 105 46 86 70 C 67 94 52 124 42 158 C 32 192 27 230 27 271 C 27 309 32 345 42 379 C 52 413 66 443 85 469 C 104 494 127 514 155 529 C 183 543 214 551 249 551 C 295 551 333 539 362 517 C 390 495 410 471 421 445 L 344 396 C 335 413 323 428 308 441 C 292 454 272 461 248 461 C 212 461 183 444 163 410 C 143 376 133 331 133 275 C 133 210 144 161 168 129 C 192 97 222 81 259 81 C 286 81 307 88 323 102 C 338 116 350 130 359 144 Z" unicode="c" />
<glyph horiz-adv-x="505" d="M 217 -7 C 189 -7 163 0 140 13 C 116 26 96 45 80 69 C 63 93 50 123 41 157 C 32 191 28 228 28 269 C 28 311 32 349 42 384 C 52 418 65 448 82 472 C 99 496 119 515 143 529 C 166 543 191 550 219 550 C 251 550 280 539 305 518 C 329 496 346 471 355 443 L 355 800 L 451 800 L 451 0 L 361 0 L 361 88 C 357 77 351 66 343 55 C 335 44 325 34 313 25 C 301 15 286 8 270 2 C 254 -4 236 -7 217 -7 Z M 245 78 C 279 78 306 94 326 128 C 346 161 356 210 356 276 C 356 342 345 390 323 418 C 301 446 275 460 245 460 C 211 460 183 444 163 413 C 143 382 133 335 133 272 C 133 208 142 159 162 127 C 182 94 209 78 245 78 Z" unicode="d" />
<glyph horiz-adv-x="473" d="M 244 -7 C 180 -7 127 17 87 67 C 47 117 27 184 27 269 C 27 311 32 349 43 384 C 53 419 68 449 87 473 C 106 497 129 516 155 530 C 181 544 209 551 240 551 C 307 551 358 523 394 468 C 430 413 448 338 449 243 L 129 243 C 129 199 140 161 162 130 C 183 98 214 83 254 83 C 284 83 309 90 329 104 C 349 118 365 133 377 148 L 429 87 C 412 64 388 43 358 23 C 328 3 290 -7 244 -7 Z M 126 316 L 347 316 C 346 362 336 399 317 425 C 297 451 272 465 241 465 C 208 465 181 451 161 425 C 140 398 128 362 126 316 Z" unicode="e" />
<glyph horiz-adv-x="273" d="M 268 455 L 178 455 L 178 0 L 77 0 L 77 455 L 9 455 L 9 544 L 77 544 L 77 658 C 77 680 81 700 89 718 C 97 736 107 751 121 763 C 134 775 149 785 166 792 C 183 798 200 802 218 802 C 232 802 248 800 265 796 C 281 792 296 786 308 778 L 280 700 C 276 701 269 703 261 706 C 252 708 242 710 232 710 C 214 710 201 703 191 690 C 181 677 177 659 177 636 L 177 544 L 268 544 L 268 455 Z" unicode="f" />
<glyph horiz-adv-x="502" d="M 215 11 C 161 11 116 35 81 83 C 46 131 29 196 29 278 C 29 362 46 429 82 478 C 118 526 163 551 217 551 C 253 551 283 541 308 521 C 332 501 349 478 359 452 L 359 544 L 450 544 L 450 32 C 450 -8 443 -42 429 -71 C 415 -100 398 -124 376 -143 C 354 -162 330 -176 302 -185 C 274 -194 247 -199 219 -199 C 175 -199 140 -195 114 -187 C 88 -179 68 -170 56 -162 L 93 -80 C 105 -86 121 -93 141 -99 C 161 -105 184 -108 212 -108 C 252 -108 285 -95 313 -70 C 340 -44 354 -8 354 40 L 354 119 C 345 93 329 68 305 45 C 281 22 251 11 215 11 Z M 246 97 C 276 97 302 111 324 140 C 345 168 356 216 356 283 C 356 344 345 389 323 417 C 301 445 275 459 245 459 C 211 459 184 443 164 413 C 144 382 134 337 134 277 C 134 217 143 172 162 142 C 181 112 209 97 246 97 Z" unicode="g" />
<glyph horiz-adv-x="485" d="M 434 0 L 333 0 L 333 389 C 333 413 325 431 310 444 C 295 457 276 464 253 464 C 228 464 205 456 185 441 C 165 426 155 401 155 367 L 155 0 L 54 0 L 54 800 L 148 800 L 148 468 C 155 492 171 511 195 527 C 219 543 250 551 288 551 C 329 551 364 540 392 518 C 420 496 434 462 434 416 L 434 0 Z" unicode="h" />
<glyph horiz-adv-x="214" d="M 54 633 L 54 733 L 160 733 L 160 633 L 54 633 Z M 56 0 L 56 544 L 158 544 L 158 0 L 56 0 Z" unicode="i" />
<glyph horiz-adv-x="232" d="M 181 633 L 76 633 L 76 733 L 181 733 L 181 633 Z M 179 544 L 179 -40 C 179 -82 166 -115 141 -140 C 116 -165 85 -178 47 -178 C 25 -178 4 -174 -14 -168 C -32 -161 -46 -154 -55 -147 L -22 -78 C -16 -81 -8 -84 1 -87 C 10 -89 21 -91 33 -91 C 45 -91 56 -85 65 -74 C 73 -62 78 -48 78 -31 L 78 544 L 179 544 Z" unicode="j" />
<glyph horiz-adv-x="448" d="M 462 1 L 352 0 L 216 227 L 155 148 L 155 0 L 54 0 L 54 800 L 152 800 L 152 267 L 333 544 L 440 544 L 282 308 L 462 1 Z" unicode="k" />
<glyph horiz-adv-x="244" d="M 51 117 L 51 800 L 153 800 L 153 140 C 153 122 157 109 165 100 C 173 91 185 87 202 87 C 208 87 214 87 220 88 C 226 88 230 89 234 91 L 244 6 C 237 3 228 0 216 -1 C 204 -3 191 -5 177 -5 C 143 -5 113 5 88 26 C 63 46 51 77 51 117 Z" unicode="l" />
<glyph horiz-adv-x="757" d="M 54 0 L 54 544 L 141 544 L 141 455 C 149 487 168 511 196 527 C 224 543 256 552 290 552 C 325 552 354 543 378 527 C 402 511 416 486 420 454 L 423 454 C 431 484 447 507 473 525 C 498 543 529 552 566 552 C 606 552 639 541 666 519 C 692 497 706 464 706 420 L 706 0 L 605 0 L 605 380 C 605 410 597 432 581 446 C 565 459 546 466 523 466 C 500 466 479 458 459 442 C 439 426 430 400 430 363 L 430 0 L 330 0 L 330 383 C 330 413 322 435 306 447 C 290 459 270 466 248 466 C 225 466 204 457 184 441 C 164 425 154 398 154 362 L 154 0 L 54 0 Z" unicode="m" />
<glyph horiz-adv-x="485" d="M 434 0 L 333 0 L 333 390 C 333 414 325 432 310 445 C 295 457 276 464 254 464 C 229 464 206 456 186 441 C 165 426 155 401 155 366 L 155 0 L 54 0 L 54 544 L 141 544 L 141 458 C 150 485 168 507 194 525 C 220 542 252 551 290 551 C 330 551 364 540 392 518 C 420 496 434 465 434 423 L 434 0 Z" unicode="n" />
<glyph horiz-adv-x="490" d="M 243 -7 C 213 -7 184 -1 158 11 C 132 23 109 40 90 63 C 70 86 55 115 44 150 C 32 185 27 225 27 271 C 27 313 32 351 43 386 C 54 420 69 450 88 474 C 107 498 130 517 156 531 C 182 544 210 551 241 551 C 305 551 358 527 400 481 C 441 434 462 369 462 286 C 462 196 441 125 401 72 C 360 19 307 -7 243 -7 Z M 246 82 C 280 82 307 98 327 130 C 347 162 357 211 357 277 C 357 341 346 387 326 417 C 306 446 278 461 242 461 C 208 461 182 445 162 415 C 142 385 132 337 132 273 C 132 204 142 155 164 126 C 186 96 213 82 246 82 Z" unicode="o" />
<glyph horiz-adv-x="497" d="M 54 -198 L 54 544 L 141 544 L 141 431 C 148 462 165 490 191 514 C 217 538 251 551 292 551 C 320 551 346 544 368 532 C 390 519 409 501 424 478 C 439 455 450 427 458 395 C 466 363 470 327 470 288 C 470 196 453 124 419 72 C 385 20 341 -5 287 -5 C 253 -5 224 3 200 19 C 176 35 160 54 152 78 L 152 -198 L 54 -198 Z M 254 80 C 286 80 313 95 334 127 C 354 158 365 206 365 270 C 365 329 356 375 338 409 C 320 443 292 460 256 460 C 226 460 200 446 179 418 C 157 390 147 338 147 263 C 147 191 157 143 177 118 C 197 92 223 80 254 80 Z" unicode="p" />
<glyph horiz-adv-x="505" d="M 353 -198 L 353 97 C 344 71 327 48 303 26 C 279 4 247 -6 208 -6 C 155 -6 112 18 78 67 C 44 116 28 181 28 263 C 28 310 33 351 43 387 C 53 423 66 453 84 477 C 101 501 121 519 145 531 C 168 543 193 550 220 550 C 257 550 288 538 312 515 C 336 492 353 466 362 438 L 362 544 L 451 544 L 451 -198 L 353 -198 Z M 244 78 C 276 78 303 93 324 124 C 345 155 356 205 356 274 C 356 339 345 386 324 416 C 302 445 275 460 243 460 C 209 460 182 444 162 413 C 142 382 133 334 133 269 C 133 211 143 164 163 130 C 183 95 210 78 244 78 Z" unicode="q" />
<glyph horiz-adv-x="361" d="M 366 521 L 325 433 C 315 442 305 449 294 453 C 283 457 270 460 256 460 C 244 460 233 457 221 453 C 209 449 198 442 188 432 C 178 422 170 410 164 395 C 158 379 155 361 155 340 L 155 0 L 54 0 L 54 544 L 150 544 L 150 454 C 156 478 171 501 194 521 C 216 541 244 551 277 551 C 297 551 315 548 330 542 C 345 536 357 529 366 521 Z" unicode="r" />
<glyph horiz-adv-x="382" d="M 202 -7 C 162 -7 127 0 96 13 C 64 26 40 44 22 66 L 72 135 C 87 117 105 104 126 94 C 147 84 169 79 191 79 C 210 79 227 85 242 97 C 256 109 264 125 264 146 C 264 166 255 183 239 197 C 222 211 196 226 162 243 C 122 261 91 283 71 309 C 51 335 41 369 41 411 C 41 451 55 484 85 511 C 114 537 151 551 196 551 C 232 551 262 546 288 536 C 313 526 333 514 348 502 L 310 419 C 296 429 280 439 262 449 C 244 459 225 464 205 464 C 185 464 168 459 154 449 C 139 439 132 426 132 409 C 132 390 138 375 152 365 C 166 354 191 339 229 321 C 273 298 305 273 325 247 C 345 221 356 186 356 144 C 356 118 351 96 342 77 C 333 58 321 42 307 30 C 292 18 275 8 257 2 C 239 -3 220 -7 202 -7 Z" unicode="s" />
<glyph horiz-adv-x="283" d="M 260 104 L 280 21 C 271 14 259 8 244 3 C 228 -1 210 -4 188 -4 C 155 -4 126 7 102 31 C 77 54 65 88 65 133 L 65 456 L 7 456 L 7 544 L 67 544 L 67 662 L 165 674 L 165 544 L 262 544 L 262 456 L 166 456 L 166 142 C 166 126 170 113 178 104 C 186 94 197 90 211 90 C 221 90 230 91 239 95 C 248 98 255 101 260 104 Z" unicode="t" />
<glyph horiz-adv-x="485" d="M 51 544 L 152 544 L 152 171 C 152 138 160 114 176 100 C 192 85 213 78 239 78 C 263 78 285 86 303 104 C 321 121 330 148 330 185 L 330 544 L 431 544 L 431 0 L 341 0 L 341 86 C 333 62 316 40 291 21 C 265 1 234 -8 196 -8 C 157 -8 123 4 94 29 C 65 54 51 91 51 139 L 51 544 Z" unicode="u" />
<glyph horiz-adv-x="414" d="M 419 544 L 244 -2 L 169 -2 L -5 544 L 100 544 L 210 175 L 322 544 L 419 544 Z" unicode="v" />
<glyph horiz-adv-x="626" d="M 410 -2 L 317 313 L 216 -2 L 145 -2 L 0 544 L 97 544 L 193 163 L 284 465 L 356 465 L 440 165 L 535 544 L 626 544 L 480 -2 L 410 -2 Z" unicode="w" />
<glyph horiz-adv-x="398" d="M 294 0 L 196 188 L 94 0 L 1 0 L 149 277 L 10 544 L 115 544 L 202 376 L 292 544 L 388 544 L 249 287 L 398 0 L 294 0 Z" unicode="x" />
<glyph horiz-adv-x="417" d="M 422 544 L 215 -86 C 201 -124 181 -152 155 -171 C 129 -190 101 -200 72 -200 C 46 -200 25 -197 9 -192 C -6 -186 -17 -181 -23 -177 L 16 -98 C 19 -100 26 -103 36 -106 C 46 -109 55 -111 65 -111 C 79 -111 92 -105 104 -95 C 116 -85 126 -68 134 -46 L 161 42 L -5 544 L 100 544 L 212 176 L 324 544 L 422 544 Z" unicode="y" />
<glyph horiz-adv-x="381" d="M 360 544 L 360 500 L 145 88 L 371 88 L 371 0 L 13 0 L 13 38 L 231 455 L 25 455 L 25 544 L 360 544 Z" unicode="z" />
<glyph horiz-adv-x="262" d="M 248 -179 C 218 -179 191 -174 165 -166 C 139 -158 116 -147 97 -133 C 78 -119 63 -103 52 -85 C 40 -66 35 -46 35 -25 C 35 1 37 24 43 46 C 49 68 55 86 63 102 C 70 118 77 133 84 147 C 90 161 94 175 94 188 C 94 202 85 215 69 228 C 53 241 33 248 11 248 L 11 323 C 33 323 53 330 71 344 C 88 358 97 373 97 391 C 97 393 93 403 86 419 C 79 435 71 452 63 471 C 54 489 47 508 43 526 C 38 544 36 562 36 580 C 36 600 41 621 52 641 C 63 661 78 679 97 695 C 115 711 138 724 164 734 C 190 744 218 749 248 749 L 248 675 C 219 674 194 664 173 644 C 151 624 140 600 140 573 C 140 564 141 553 144 539 C 146 525 151 512 158 498 C 168 477 177 458 185 441 C 193 424 197 410 197 399 C 197 373 189 349 173 329 C 157 308 134 293 102 285 C 134 276 158 261 174 240 C 189 219 197 198 197 176 C 197 157 193 141 186 127 C 178 113 171 99 163 85 C 155 71 149 56 145 40 C 141 24 139 9 140 -3 C 140 -13 142 -25 148 -37 C 153 -49 160 -60 170 -70 C 180 -80 191 -88 204 -95 C 217 -101 232 -105 248 -105 L 248 -179 Z" unicode="{" />
<glyph horiz-adv-x="240" d="M 168 -179 L 72 -179 L 72 730 L 168 730 L 168 -179 Z" unicode="|" />
<glyph horiz-adv-x="262" d="M 14 -179 L 14 -105 C 30 -105 44 -101 57 -95 C 70 -88 81 -80 91 -70 C 101 -60 108 -49 114 -37 C 120 -25 123 -13 123 -3 C 123 9 121 24 117 40 C 113 56 107 71 99 85 C 91 99 83 113 76 127 C 68 141 65 157 65 176 C 65 198 72 219 87 240 C 102 261 126 276 158 285 C 127 293 104 308 88 329 C 72 349 65 373 65 399 C 65 410 69 424 77 441 C 85 458 94 477 105 498 C 111 512 116 525 118 539 C 120 553 122 564 122 573 C 122 600 111 624 89 644 C 67 664 42 674 14 675 L 14 749 C 44 749 72 744 98 734 C 124 724 146 711 165 695 C 183 679 198 661 209 641 C 220 621 226 600 226 580 C 226 562 223 544 219 526 C 214 508 207 489 199 471 C 190 452 182 435 175 419 C 168 403 165 393 165 391 C 165 373 173 358 191 344 C 208 330 228 323 251 323 L 251 248 C 228 248 208 241 192 228 C 176 215 168 202 168 188 C 168 175 171 161 178 147 C 185 133 192 118 199 102 C 206 86 212 68 218 46 C 224 24 227 1 227 -25 C 227 -46 221 -66 210 -85 C 199 -103 184 -119 165 -133 C 145 -147 123 -158 97 -166 C 71 -174 43 -179 14 -179 Z" unicode="}" />
<glyph horiz-adv-x="469" d="M 357 445 L 441 445 C 440 392 431 351 415 321 C 398 291 372 276 336 276 C 312 276 291 280 272 289 C 252 298 237 308 226 319 C 214 330 202 340 192 348 C 181 356 169 361 157 361 C 145 361 134 353 124 338 C 114 323 110 303 110 279 L 28 279 C 28 333 37 374 56 404 C 74 433 100 448 133 448 C 157 448 180 443 200 433 C 220 423 237 412 251 400 C 262 390 273 382 283 374 C 293 366 305 362 318 362 C 334 362 345 369 350 383 C 354 397 357 417 357 445 Z" unicode="~" />
<glyph horiz-adv-x="275" d="M 85 609 L 190 609 L 190 497 L 85 497 L 85 609 Z M 80 186 L 115 405 L 162 405 L 195 186 L 195 -108 L 80 -108 L 80 186 Z" unicode="¡" />
<glyph horiz-adv-x="428" d="M 414 164 C 400 147 383 130 363 114 C 342 98 313 88 275 84 L 275 -27 L 209 -27 L 209 84 C 153 91 109 116 77 159 C 45 202 29 256 29 320 C 29 350 33 379 41 406 C 49 433 60 457 76 479 C 91 500 110 518 132 532 C 154 546 180 555 209 560 L 209 667 L 275 667 L 275 562 C 311 558 341 547 365 531 C 388 514 406 496 418 478 L 367 418 C 356 430 344 442 330 453 C 316 464 297 471 275 474 L 275 170 C 299 172 319 178 333 190 C 347 202 359 213 367 224 L 414 164 Z M 132 325 C 132 287 139 256 153 231 C 167 206 185 189 209 179 L 209 466 C 184 456 165 439 152 414 C 138 388 132 359 132 325 Z" unicode="¢" />
<glyph horiz-adv-x="517" d="M 501 79 L 501 0 L 21 0 L 21 61 C 26 64 34 67 45 70 C 56 72 71 76 89 80 C 115 84 138 96 159 116 C 180 135 191 162 191 196 C 191 198 190 201 190 204 C 190 206 189 209 189 212 L 37 212 L 37 286 L 158 286 C 152 296 146 307 140 318 C 133 329 127 341 121 354 L 37 354 L 37 427 L 89 427 C 82 445 77 463 73 483 C 69 503 68 523 68 545 C 68 581 74 612 86 638 C 98 663 115 683 136 699 C 156 714 180 725 206 732 C 232 738 260 742 288 742 C 330 742 370 733 408 715 C 446 697 474 679 491 663 L 441 588 C 427 600 407 613 381 628 C 355 642 326 650 296 650 C 282 650 267 648 253 644 C 239 640 226 633 215 623 C 203 613 194 601 187 585 C 180 569 177 549 177 526 C 177 509 179 492 183 476 C 187 459 193 443 200 427 L 442 427 L 442 354 L 235 354 C 241 342 246 331 252 319 C 258 307 263 296 267 286 L 442 286 L 442 212 L 283 212 C 282 190 278 172 272 157 C 266 141 258 128 250 118 C 241 108 232 99 222 93 C 212 87 204 82 196 79 L 501 79 Z" unicode="£" />
<glyph horiz-adv-x="502" d="M 449 190 L 401 141 L 338 206 C 325 198 311 193 296 189 C 281 185 266 183 250 183 C 234 183 218 185 203 189 C 188 193 174 198 162 205 L 99 141 L 48 191 L 107 252 C 96 266 87 281 81 299 C 75 317 72 335 72 354 C 72 373 75 391 81 409 C 87 427 96 443 108 457 L 49 518 L 98 566 L 160 502 C 172 508 186 514 202 518 C 217 522 233 525 250 525 C 266 525 282 522 298 518 C 313 514 327 508 341 501 L 405 567 L 453 517 L 393 455 C 403 441 412 425 418 408 C 424 390 427 372 427 354 C 427 334 423 316 417 298 C 410 280 401 264 391 250 L 449 190 Z M 250 257 C 277 257 301 266 321 286 C 341 305 352 328 352 354 C 352 380 341 402 321 422 C 301 441 277 451 250 451 C 221 451 197 441 177 422 C 157 402 148 380 148 354 C 148 328 157 305 177 286 C 197 266 221 257 250 257 Z" unicode="¤" />
<glyph horiz-adv-x="532" d="M 479 128 L 320 128 L 320 0 L 210 0 L 210 128 L 52 128 L 52 202 L 210 202 L 210 262 L 52 262 L 52 336 L 204 336 L 11 730 L 123 730 L 268 423 L 416 730 L 521 730 L 327 336 L 478 336 L 478 262 L 320 262 L 320 202 L 479 202 L 479 128 Z" unicode="¥" />
<glyph horiz-adv-x="270" d="M 91 351 L 91 730 L 179 730 L 179 351 L 91 351 Z M 179 200 L 179 -179 L 91 -179 L 91 200 L 179 200 Z" unicode="¦" />
<glyph horiz-adv-x="586" d="M 311 -181 C 259 -181 210 -174 165 -161 C 119 -147 81 -129 50 -107 L 88 -22 C 117 -43 151 -61 190 -75 C 228 -89 265 -97 299 -97 C 329 -97 354 -89 374 -73 C 393 -57 403 -34 403 -6 C 403 20 395 40 379 54 C 363 68 341 81 311 94 L 210 143 C 180 155 155 167 133 178 C 111 189 93 201 79 214 C 65 227 54 242 47 260 C 40 277 37 298 37 323 C 37 353 44 379 58 399 C 72 419 89 437 110 451 C 92 463 79 479 71 499 C 63 519 59 543 59 573 C 59 599 64 623 76 644 C 88 665 104 683 124 697 C 144 711 167 722 195 730 C 223 738 253 742 285 742 C 341 742 388 733 424 717 C 460 700 489 682 513 664 L 466 586 C 439 606 411 624 383 639 C 355 654 321 662 283 662 C 249 662 220 654 198 638 C 176 622 165 600 165 573 C 165 552 172 535 186 521 C 200 507 221 495 251 484 L 383 423 C 435 401 474 378 502 354 C 529 330 543 295 543 250 C 543 219 532 192 511 170 C 489 148 466 134 440 128 C 454 119 469 103 487 81 C 504 59 513 30 513 -5 C 513 -32 507 -57 497 -79 C 487 -101 473 -119 455 -134 C 437 -149 415 -161 391 -169 C 366 -177 339 -181 311 -181 Z M 362 176 C 380 178 396 185 410 195 C 424 205 431 222 431 245 C 431 266 422 285 406 301 C 390 317 361 333 319 349 L 194 407 C 179 399 167 389 157 378 C 147 367 143 352 143 332 C 143 307 151 287 168 272 C 185 257 215 242 258 226 L 362 176 Z" unicode="§" />
<glyph horiz-adv-x="500" d="M 374 602 L 291 602 L 291 761 L 374 761 L 374 602 Z M 209 602 L 126 602 L 126 761 L 209 761 L 209 602 Z" unicode="¨" />
<glyph horiz-adv-x="823" d="M 412 12 C 362 12 314 21 270 41 C 225 60 186 86 153 119 C 120 152 94 191 75 236 C 56 280 47 328 47 378 C 47 428 56 475 75 519 C 94 563 120 602 153 635 C 186 668 225 694 270 713 C 314 732 362 742 412 742 C 462 742 509 732 553 713 C 597 694 636 668 669 635 C 702 602 728 563 747 519 C 766 475 776 428 776 378 C 776 328 766 280 747 236 C 728 191 702 152 669 119 C 636 86 597 60 553 41 C 509 21 462 12 412 12 Z M 412 77 C 453 77 492 85 528 101 C 564 117 596 138 623 165 C 649 192 670 224 686 260 C 702 296 710 335 710 377 C 710 417 702 456 686 493 C 670 529 649 561 623 588 C 596 615 564 637 528 653 C 492 669 453 677 412 677 C 370 677 331 669 295 653 C 259 637 227 615 200 588 C 173 561 152 529 136 493 C 120 456 113 417 113 377 C 113 335 120 296 136 260 C 152 224 173 192 200 165 C 227 138 259 117 295 101 C 331 85 370 77 412 77 Z M 576 246 C 561 221 540 200 512 184 C 484 167 451 159 411 159 C 385 159 361 163 338 173 C 314 182 294 195 276 213 C 258 231 244 253 234 280 C 223 306 218 337 218 372 C 218 406 222 437 232 465 C 242 493 255 516 272 535 C 289 554 309 569 332 579 C 355 589 380 595 407 595 C 449 595 484 587 511 572 C 537 557 558 538 574 515 L 507 464 C 497 478 484 490 469 500 C 454 510 434 515 410 515 C 378 515 352 501 332 474 C 311 446 301 412 301 372 C 301 328 312 294 335 270 C 358 246 384 235 413 235 C 435 235 454 240 471 250 C 488 260 502 274 513 291 L 576 246 Z" unicode="©" />
<glyph horiz-adv-x="446" d="M 397 311 L 314 311 L 314 368 C 300 347 281 331 256 321 C 230 310 203 305 173 305 C 131 305 97 316 73 340 C 49 363 37 395 37 437 C 37 482 54 516 88 540 C 122 563 168 576 226 579 L 312 585 L 312 594 C 312 616 304 632 289 644 C 274 655 252 661 224 661 C 200 661 177 657 155 649 C 132 641 111 631 93 619 L 61 683 C 81 699 107 713 137 725 C 167 736 202 742 240 742 C 288 742 327 730 355 706 C 383 682 397 644 397 592 L 397 311 Z M 313 429 L 313 514 L 219 510 C 192 509 169 503 151 493 C 132 482 123 464 123 440 C 123 421 130 406 145 396 C 159 385 178 380 201 380 C 223 380 245 384 265 393 C 285 402 301 414 313 429 Z M 402 180 L 44 180 L 44 262 L 402 262 L 402 180 Z" unicode="ª" />
<glyph horiz-adv-x="448" d="M 213 105 L 27 278 L 27 338 L 213 509 L 213 408 L 115 307 L 213 210 L 213 105 Z M 418 105 L 232 278 L 232 338 L 418 509 L 418 408 L 321 307 L 418 210 L 418 105 Z" unicode="«" />
<glyph horiz-adv-x="478" d="M 439 392 L 439 146 L 356 146 L 356 309 L 30 309 L 30 392 L 439 392 Z" unicode="¬" />
<glyph horiz-adv-x="823" d="M 412 12 C 362 12 314 21 270 41 C 225 60 186 86 153 119 C 120 152 94 191 75 236 C 56 280 47 328 47 378 C 47 428 56 475 75 519 C 94 563 120 602 153 635 C 186 668 225 694 270 713 C 314 732 362 742 412 742 C 462 742 509 732 553 713 C 597 694 636 668 669 635 C 702 602 728 563 747 519 C 766 475 776 428 776 378 C 776 328 766 280 747 236 C 728 191 702 152 669 119 C 636 86 597 60 553 41 C 509 21 462 12 412 12 Z M 412 77 C 453 77 492 84 528 100 C 564 115 596 136 623 163 C 649 189 670 221 686 258 C 702 294 710 334 710 377 C 710 419 702 459 686 496 C 670 532 649 564 623 591 C 596 617 564 638 528 654 C 492 669 453 677 412 677 C 370 677 331 669 295 653 C 259 637 227 616 200 590 C 173 563 152 531 136 495 C 120 458 113 419 113 377 C 113 335 120 295 136 259 C 152 222 173 190 200 164 C 227 137 259 116 295 100 C 331 84 370 77 412 77 Z M 275 171 L 275 597 L 430 597 C 448 597 465 594 482 590 C 499 585 514 578 527 568 C 540 558 551 546 559 531 C 567 516 571 499 571 479 C 571 442 561 413 541 393 C 521 373 500 361 476 358 L 476 354 L 608 171 L 524 171 L 404 340 L 347 340 L 347 171 L 275 171 Z M 346 403 L 433 403 C 450 403 465 408 479 419 C 493 430 500 447 501 469 C 501 490 493 506 478 516 C 462 526 444 531 423 531 L 346 531 L 346 403 Z" unicode="®" />
<glyph horiz-adv-x="500" d="M 377 613 L 123 613 L 123 699 L 377 699 L 377 613 Z" unicode="¯" />
<glyph horiz-adv-x="418" d="M 209 385 C 184 385 161 389 139 399 C 117 408 98 421 82 437 C 66 453 53 472 44 494 C 34 516 30 539 30 564 C 30 588 34 611 44 633 C 53 655 66 674 82 690 C 98 706 117 718 139 728 C 161 737 184 742 209 742 C 233 742 256 737 278 728 C 300 718 319 706 335 690 C 351 674 364 655 374 633 C 383 611 388 588 388 564 C 388 539 383 516 374 494 C 364 472 351 453 335 437 C 319 421 300 408 278 399 C 256 389 233 385 209 385 Z M 209 463 C 236 463 260 472 280 492 C 300 512 311 536 311 564 C 311 591 300 615 280 635 C 260 655 236 665 209 665 C 181 665 157 655 137 635 C 117 615 107 591 107 564 C 107 536 117 512 137 492 C 157 472 181 463 209 463 Z" unicode="°" />
<glyph horiz-adv-x="478" d="M 455 290 L 280 290 L 280 111 L 199 111 L 199 290 L 23 290 L 23 368 L 199 368 L 199 551 L 280 551 L 280 368 L 455 368 L 455 290 Z M 451 23 L 29 23 L 29 101 L 451 101 L 451 23 Z" unicode="±" />
<glyph horiz-adv-x="337" d="M 307 372 L 24 372 L 24 405 L 179 563 C 185 569 190 576 196 585 C 202 594 205 605 205 618 C 205 630 200 641 192 651 C 183 661 170 666 153 666 C 132 666 118 659 110 647 C 102 635 98 620 98 604 L 19 604 C 19 642 31 674 57 701 C 82 727 117 741 163 741 C 207 741 240 730 262 710 C 284 690 295 665 295 637 C 295 610 290 588 281 570 C 271 552 261 538 251 528 L 168 445 L 307 445 L 307 372 Z" unicode="²" />
<glyph horiz-adv-x="346" d="M 227 569 C 254 564 275 553 291 537 C 307 520 315 500 315 477 C 315 465 312 452 308 439 C 303 425 295 413 283 402 C 271 391 255 382 235 375 C 215 367 191 364 161 364 C 119 364 86 369 63 379 C 39 389 21 399 9 409 L 57 459 C 67 452 81 446 97 440 C 113 434 133 432 156 432 C 185 432 205 437 217 448 C 229 459 235 473 235 490 C 235 507 227 518 212 524 C 197 529 179 532 159 532 L 86 532 L 86 595 L 153 595 C 172 595 188 598 200 605 C 212 611 218 621 218 634 C 218 646 212 655 202 661 C 192 667 176 671 156 671 C 138 671 121 667 105 660 C 89 653 76 645 68 637 L 20 685 C 33 699 51 712 73 724 C 95 736 127 742 168 742 C 208 742 240 733 264 717 C 288 700 300 678 300 651 C 300 629 292 611 278 597 C 263 583 246 573 227 569 Z" unicode="³" />
<glyph horiz-adv-x="500" d="M 150 604 L 242 773 L 360 773 L 249 604 L 150 604 Z" unicode="´" />
<glyph horiz-adv-x="601" d="M 71 -135 L 71 544 L 171 544 L 171 172 C 171 144 183 120 207 101 C 231 82 258 73 290 73 C 306 73 322 75 338 81 C 354 86 369 94 382 104 C 394 114 405 127 413 142 C 421 157 425 174 425 194 L 425 544 L 525 544 L 525 0 L 432 0 L 432 95 C 422 69 402 45 370 25 C 338 5 304 -5 270 -6 C 247 -6 225 -1 205 8 C 184 17 170 30 163 48 L 163 -135 L 71 -135 Z" unicode="µ" />
<glyph horiz-adv-x="607" d="M 554 -180 L 479 -179 L 479 650 L 397 650 L 397 -179 L 322 -179 L 322 278 L 248 278 C 218 278 190 284 163 296 C 136 308 112 324 92 344 C 71 364 54 388 42 415 C 30 442 24 471 24 501 C 24 533 29 564 41 592 C 53 620 69 644 90 664 C 111 684 137 700 167 712 C 197 724 230 730 266 730 L 554 730 L 554 -180 Z M 323 363 L 323 646 L 295 646 C 253 646 218 632 191 605 C 163 578 150 544 150 504 C 150 466 163 433 190 405 C 217 377 249 363 286 363 L 323 363 Z" unicode="¶" />
<glyph horiz-adv-x="261" d="M 182 280 L 80 280 L 80 417 L 182 417 L 182 280 Z" unicode="·" />
<glyph horiz-adv-x="500" d="M 253 -183 C 231 -183 209 -180 188 -174 C 167 -168 150 -160 138 -150 L 159 -110 C 167 -115 177 -120 190 -126 C 203 -131 217 -134 233 -134 C 245 -134 256 -131 265 -125 C 273 -119 278 -111 278 -102 C 278 -90 273 -82 265 -77 C 257 -72 248 -70 239 -70 C 232 -70 226 -70 220 -71 C 214 -72 209 -74 205 -76 L 193 -59 L 248 14 L 301 14 L 258 -44 C 286 -41 309 -45 328 -56 C 347 -66 357 -84 357 -108 C 357 -132 346 -150 326 -163 C 306 -176 281 -183 253 -183 Z" unicode="¸" />
<glyph horiz-adv-x="321" d="M 139 372 L 139 634 C 131 623 117 613 97 604 C 76 595 59 590 47 588 L 47 678 C 71 680 93 687 111 697 C 129 707 148 722 168 740 L 230 740 L 230 372 L 139 372 Z" unicode="¹" />
<glyph horiz-adv-x="436" d="M 214 303 C 190 303 166 307 144 317 C 121 327 101 341 84 360 C 66 378 52 401 42 428 C 32 454 27 485 27 519 C 27 549 32 577 42 604 C 52 631 66 654 83 674 C 100 694 120 709 143 721 C 166 733 190 739 216 739 C 243 739 268 734 292 724 C 316 714 336 699 353 681 C 370 663 384 641 394 615 C 404 589 409 560 409 529 C 409 496 403 466 393 438 C 383 410 369 387 351 367 C 333 347 313 331 289 320 C 265 308 240 303 214 303 Z M 216 379 C 248 379 274 392 293 420 C 312 448 322 483 322 526 C 322 565 313 597 295 623 C 277 649 252 662 218 662 C 185 662 159 648 141 621 C 123 594 114 559 114 515 C 114 474 123 441 142 416 C 160 391 185 379 216 379 Z M 43 180 L 43 262 L 392 262 L 392 180 L 43 180 Z" unicode="º" />
<glyph horiz-adv-x="450" d="M 30 511 L 217 337 L 217 277 L 30 106 L 30 207 L 127 308 L 30 405 L 30 511 Z M 237 511 L 423 337 L 423 277 L 237 106 L 237 207 L 335 308 L 237 405 L 237 511 Z" unicode="»" />
<glyph horiz-adv-x="695" d="M 8 0 L 8 0 Z M 100 372 L 100 634 C 92 623 78 613 58 604 C 37 595 20 590 8 588 L 8 678 C 32 680 54 687 72 697 C 90 707 109 722 129 740 L 191 740 L 191 372 L 100 372 Z M 575 730 L 211 0 L 126 0 L 490 730 L 575 730 Z M 385 81 L 385 142 L 569 365 L 627 365 L 627 146 L 687 146 L 687 81 L 627 81 L 627 1 L 544 1 L 544 81 L 385 81 Z M 464 140 L 546 140 L 546 242 L 464 140 Z" unicode="¼" />
<glyph horiz-adv-x="760" d="M 8 0 L 8 0 Z M 100 372 L 100 634 C 92 623 78 613 58 604 C 37 595 20 590 8 588 L 8 678 C 32 680 54 687 72 697 C 90 707 109 722 129 740 L 191 740 L 191 372 L 100 372 Z M 575 730 L 211 0 L 126 0 L 490 730 L 575 730 Z M 738 0 L 455 0 L 455 33 L 610 191 C 616 197 621 204 627 213 C 633 222 636 233 636 246 C 636 258 631 269 623 279 C 614 289 601 294 584 294 C 563 294 549 287 541 275 C 533 263 529 248 529 232 L 450 232 C 450 270 462 302 488 329 C 513 355 548 369 594 369 C 638 369 671 358 693 338 C 715 318 726 293 726 265 C 726 238 721 216 712 198 C 702 180 692 166 682 156 L 599 73 L 738 73 L 738 0 Z" unicode="½" />
<glyph horiz-adv-x="754" d="M 9 0 L 9 0 Z M 634 730 L 270 0 L 185 0 L 549 730 L 634 730 Z M 444 81 L 444 142 L 628 365 L 686 365 L 686 146 L 746 146 L 746 81 L 686 81 L 686 1 L 603 1 L 603 81 L 444 81 Z M 523 140 L 605 140 L 605 242 L 523 140 Z M 227 569 C 254 564 275 553 291 537 C 307 520 315 500 315 477 C 315 465 312 452 308 439 C 303 425 295 413 283 402 C 271 391 255 382 235 375 C 215 367 191 364 161 364 C 119 364 86 369 63 379 C 39 389 21 399 9 409 L 57 459 C 67 452 81 446 97 440 C 113 434 133 432 156 432 C 185 432 205 437 217 448 C 229 459 235 473 235 490 C 235 507 227 518 212 524 C 197 529 179 532 159 532 L 86 532 L 86 595 L 153 595 C 172 595 188 598 200 605 C 212 611 218 621 218 634 C 218 646 212 655 202 661 C 192 667 176 671 156 671 C 138 671 121 667 105 660 C 89 653 76 645 68 637 L 20 685 C 33 699 51 712 73 724 C 95 736 127 742 168 742 C 208 742 240 733 264 717 C 288 700 300 678 300 651 C 300 629 292 611 278 597 C 263 583 246 573 227 569 Z" unicode="¾" />
<glyph horiz-adv-x="447" d="M 182 487 L 182 609 L 295 609 L 295 487 L 182 487 Z M 223 -133 C 162 -133 114 -117 78 -85 C 42 -53 24 -10 24 44 C 24 69 27 92 34 113 C 41 134 50 153 61 170 C 72 186 84 202 98 216 C 111 230 124 244 137 257 C 158 276 172 299 179 326 C 186 352 190 378 191 402 L 291 402 C 291 359 285 323 274 295 C 263 267 245 240 219 214 C 199 193 179 171 161 148 C 142 124 133 96 133 62 C 133 31 143 6 163 -11 C 183 -29 209 -39 240 -39 C 266 -39 290 -32 311 -18 C 332 -4 350 12 364 31 L 429 -32 C 406 -63 377 -88 341 -106 C 305 -124 265 -133 223 -133 Z" unicode="¿" />
<glyph horiz-adv-x="543" d="M 0 0 L 0 0 Z M 542 0 L 434 0 L 378 174 L 156 174 L 104 0 L 0 0 L 235 734 L 310 734 L 542 0 Z M 361 255 L 267 559 L 174 255 L 361 255 Z M 269 787 L 269 787 Z M 374 787 L 275 787 L 163 956 L 281 956 L 374 787 Z" unicode="À" />
<glyph horiz-adv-x="543" d="M 0 0 L 0 0 Z M 542 0 L 434 0 L 378 174 L 156 174 L 104 0 L 0 0 L 235 734 L 310 734 L 542 0 Z M 361 255 L 267 559 L 174 255 L 361 255 Z M 269 790 L 269 790 Z M 164 790 L 256 959 L 374 959 L 263 790 L 164 790 Z" unicode="Á" />
<glyph horiz-adv-x="543" d="M 0 0 L 0 0 Z M 542 0 L 434 0 L 378 174 L 156 174 L 104 0 L 0 0 L 235 734 L 310 734 L 542 0 Z M 361 255 L 267 559 L 174 255 L 361 255 Z M 269 788 L 269 788 Z M 421 788 L 332 788 L 269 889 L 205 788 L 118 788 L 224 960 L 315 960 L 421 788 Z" unicode="Â" />
<glyph horiz-adv-x="543" d="M 0 0 L 0 0 Z M 542 0 L 434 0 L 378 174 L 156 174 L 104 0 L 0 0 L 235 734 L 310 734 L 542 0 Z M 361 255 L 267 559 L 174 255 L 361 255 Z M 269 793 L 269 793 Z M 355 934 L 433 934 C 433 886 426 850 412 827 C 398 804 379 793 356 793 C 337 793 321 796 307 803 C 293 810 281 817 271 824 C 261 830 251 837 242 843 C 233 849 224 853 216 853 C 207 853 199 847 193 837 C 187 827 183 813 183 797 L 106 797 C 106 844 115 879 135 903 C 154 926 174 938 195 938 C 211 938 226 934 238 928 C 250 921 261 913 273 905 C 281 898 290 892 298 887 C 306 882 314 880 323 880 C 331 880 339 884 345 894 C 351 903 355 916 355 934 Z" unicode="Ã" />
<glyph horiz-adv-x="543" d="M 0 0 L 0 0 Z M 542 0 L 434 0 L 378 174 L 156 174 L 104 0 L 0 0 L 235 734 L 310 734 L 542 0 Z M 361 255 L 267 559 L 174 255 L 361 255 Z M 269 788 L 269 788 Z M 393 788 L 310 788 L 310 947 L 393 947 L 393 788 Z M 228 788 L 145 788 L 145 947 L 228 947 L 228 788 Z" unicode="Ä" />
<glyph horiz-adv-x="543" d="M 0 0 L 0 0 Z M 542 0 L 434 0 L 378 174 L 156 174 L 104 0 L 0 0 L 235 734 L 310 734 L 542 0 Z M 361 255 L 267 559 L 174 255 L 361 255 Z M 269 771 L 269 771 Z M 269 771 C 235 771 205 783 181 808 C 157 832 145 862 145 897 C 145 931 157 960 181 984 C 205 1008 235 1021 269 1021 C 304 1021 334 1008 358 984 C 382 960 395 931 395 897 C 395 862 382 832 358 808 C 334 783 304 771 269 771 Z M 270 834 C 287 834 301 840 313 852 C 325 864 331 879 331 897 C 331 913 325 928 313 940 C 301 952 287 959 270 959 C 253 959 238 952 226 940 C 214 928 208 913 208 897 C 208 879 214 864 226 852 C 238 840 253 834 270 834 Z" unicode="Å" />
<glyph horiz-adv-x="818" d="M 793 0 L 430 0 L 430 206 L 209 206 L 100 0 L -8 0 L 368 730 L 775 730 L 775 634 L 533 634 L 533 411 L 764 411 L 764 319 L 533 319 L 533 96 L 793 96 L 793 0 Z M 430 295 L 430 659 L 250 295 L 430 295 Z" unicode="Æ" />
<glyph horiz-adv-x="604" d="M 37 0 L 37 0 Z M 324 -9 C 282 -9 244 0 209 15 C 174 31 144 55 118 87 C 92 118 72 157 58 204 C 44 251 37 305 37 366 C 37 423 43 475 57 521 C 70 567 89 607 113 639 C 137 671 168 695 204 713 C 240 730 280 739 325 739 C 387 739 437 724 475 696 C 513 668 541 631 561 585 L 467 540 C 453 568 435 592 414 612 C 392 632 363 642 325 642 C 269 642 225 620 193 576 C 161 532 146 461 146 365 C 146 314 151 271 162 236 C 172 200 186 172 204 150 C 221 128 241 112 263 102 C 285 92 308 87 332 87 C 372 87 405 97 429 119 C 453 140 472 168 486 202 L 574 155 C 553 105 522 66 480 36 C 438 6 386 -9 324 -9 Z M 319 -3 L 319 -3 Z M 325 -186 C 303 -186 281 -183 260 -177 C 239 -171 222 -163 210 -153 L 231 -113 C 239 -118 249 -123 262 -129 C 275 -134 289 -137 305 -137 C 317 -137 328 -134 337 -128 C 345 -122 350 -114 350 -105 C 350 -93 345 -85 337 -80 C 329 -75 320 -73 311 -73 C 304 -73 298 -73 292 -74 C 286 -75 281 -77 277 -79 L 265 -62 L 320 11 L 373 11 L 330 -47 C 358 -44 381 -48 400 -59 C 419 -69 429 -87 429 -111 C 429 -135 418 -153 398 -166 C 378 -179 353 -186 325 -186 Z" unicode="Ç" />
<glyph horiz-adv-x="462" d="M 68 0 L 68 0 Z M 436 0 L 68 0 L 68 730 L 418 730 L 418 634 L 176 634 L 176 412 L 406 412 L 406 319 L 176 319 L 176 96 L 436 96 L 436 0 Z M 246 787 L 246 787 Z M 351 787 L 252 787 L 140 956 L 258 956 L 351 787 Z" unicode="È" />
<glyph horiz-adv-x="462" d="M 68 0 L 68 0 Z M 436 0 L 68 0 L 68 730 L 418 730 L 418 634 L 176 634 L 176 412 L 406 412 L 406 319 L 176 319 L 176 96 L 436 96 L 436 0 Z M 246 790 L 246 790 Z M 141 790 L 233 959 L 351 959 L 240 790 L 141 790 Z" unicode="É" />
<glyph horiz-adv-x="462" d="M 68 0 L 68 0 Z M 436 0 L 68 0 L 68 730 L 418 730 L 418 634 L 176 634 L 176 412 L 406 412 L 406 319 L 176 319 L 176 96 L 436 96 L 436 0 Z M 246 788 L 246 788 Z M 398 788 L 309 788 L 246 889 L 182 788 L 95 788 L 201 960 L 292 960 L 398 788 Z" unicode="Ê" />
<glyph horiz-adv-x="462" d="M 68 0 L 68 0 Z M 436 0 L 68 0 L 68 730 L 418 730 L 418 634 L 176 634 L 176 412 L 406 412 L 406 319 L 176 319 L 176 96 L 436 96 L 436 0 Z M 246 788 L 246 788 Z M 370 788 L 287 788 L 287 947 L 370 947 L 370 788 Z M 205 788 L 122 788 L 122 947 L 205 947 L 205 788 Z" unicode="Ë" />
<glyph horiz-adv-x="255" d="M 21 0 L 21 0 Z M 183 0 L 72 0 L 72 730 L 183 730 L 183 0 Z M 127 787 L 127 787 Z M 232 787 L 133 787 L 21 956 L 139 956 L 232 787 Z" unicode="Ì" />
<glyph horiz-adv-x="255" d="M 22 0 L 22 0 Z M 183 0 L 72 0 L 72 730 L 183 730 L 183 0 Z M 127 790 L 127 790 Z M 22 790 L 114 959 L 232 959 L 121 790 L 22 790 Z" unicode="Í" />
<glyph horiz-adv-x="255" d="M 0 0 L 0 0 Z M 183 0 L 72 0 L 72 730 L 183 730 L 183 0 Z M 127 788 L 127 788 Z M 279 788 L 190 788 L 127 889 L 63 788 L -24 788 L 82 960 L 173 960 L 279 788 Z" unicode="Î" />
<glyph horiz-adv-x="255" d="M 3 0 L 3 0 Z M 183 0 L 72 0 L 72 730 L 183 730 L 183 0 Z M 127 788 L 127 788 Z M 251 788 L 168 788 L 168 947 L 251 947 L 251 788 Z M 86 788 L 3 788 L 3 947 L 86 947 L 86 788 Z" unicode="Ï" />
<glyph horiz-adv-x="611" d="M 574 364 C 574 313 567 265 553 221 C 539 177 519 138 492 106 C 464 73 430 47 389 28 C 347 9 299 0 245 0 L 68 0 L 68 316 L 22 316 L 22 400 L 68 400 L 68 730 L 256 730 C 306 730 352 721 392 704 C 432 686 465 662 492 630 C 518 598 539 560 553 515 C 567 469 574 419 574 364 Z M 176 85 L 245 85 C 284 85 317 91 345 105 C 373 119 395 138 413 163 C 430 187 443 217 451 251 C 459 285 463 322 463 362 C 463 456 444 526 408 574 C 371 621 321 645 257 645 L 176 645 L 176 400 L 311 400 L 311 316 L 176 316 L 176 85 Z" unicode="Ð" />
<glyph horiz-adv-x="619" d="M 68 0 L 68 0 Z M 550 0 L 472 0 L 171 493 L 171 0 L 68 0 L 68 730 L 148 730 L 450 235 L 450 730 L 550 730 L 550 0 Z M 310 793 L 310 793 Z M 396 934 L 474 934 C 474 886 467 850 453 827 C 439 804 420 793 397 793 C 378 793 362 796 348 803 C 334 810 322 817 312 824 C 302 830 292 837 283 843 C 274 849 265 853 257 853 C 248 853 240 847 234 837 C 228 827 224 813 224 797 L 147 797 C 147 844 156 879 176 903 C 195 926 215 938 236 938 C 252 938 267 934 279 928 C 291 921 302 913 314 905 C 322 898 331 892 339 887 C 347 882 355 880 364 880 C 372 880 380 884 386 894 C 392 903 396 916 396 934 Z" unicode="Ñ" />
<glyph horiz-adv-x="660" d="M 37 0 L 37 0 Z M 333 -9 C 287 -9 245 0 209 17 C 172 35 141 60 116 92 C 90 124 71 164 57 212 C 43 259 37 312 37 371 C 37 427 44 477 58 523 C 72 569 91 607 117 639 C 143 671 173 695 209 713 C 245 730 284 739 327 739 C 418 739 490 706 543 640 C 596 574 623 482 623 366 C 623 308 615 256 601 210 C 586 163 566 123 541 91 C 515 59 485 34 449 17 C 413 0 375 -9 333 -9 Z M 334 81 C 387 81 430 104 463 152 C 495 200 512 272 512 369 C 512 459 494 527 460 575 C 426 623 381 647 325 647 C 271 647 228 624 196 578 C 164 532 149 461 149 367 C 149 271 166 199 201 152 C 235 104 280 81 334 81 Z M 328 787 L 328 787 Z M 433 787 L 334 787 L 222 956 L 340 956 L 433 787 Z" unicode="Ò" />
<glyph horiz-adv-x="660" d="M 37 0 L 37 0 Z M 333 -9 C 287 -9 245 0 209 17 C 172 35 141 60 116 92 C 90 124 71 164 57 212 C 43 259 37 312 37 371 C 37 427 44 477 58 523 C 72 569 91 607 117 639 C 143 671 173 695 209 713 C 245 730 284 739 327 739 C 418 739 490 706 543 640 C 596 574 623 482 623 366 C 623 308 615 256 601 210 C 586 163 566 123 541 91 C 515 59 485 34 449 17 C 413 0 375 -9 333 -9 Z M 334 81 C 387 81 430 104 463 152 C 495 200 512 272 512 369 C 512 459 494 527 460 575 C 426 623 381 647 325 647 C 271 647 228 624 196 578 C 164 532 149 461 149 367 C 149 271 166 199 201 152 C 235 104 280 81 334 81 Z M 328 790 L 328 790 Z M 223 790 L 315 959 L 433 959 L 322 790 L 223 790 Z" unicode="Ó" />
<glyph horiz-adv-x="660" d="M 37 0 L 37 0 Z M 333 -9 C 287 -9 245 0 209 17 C 172 35 141 60 116 92 C 90 124 71 164 57 212 C 43 259 37 312 37 371 C 37 427 44 477 58 523 C 72 569 91 607 117 639 C 143 671 173 695 209 713 C 245 730 284 739 327 739 C 418 739 490 706 543 640 C 596 574 623 482 623 366 C 623 308 615 256 601 210 C 586 163 566 123 541 91 C 515 59 485 34 449 17 C 413 0 375 -9 333 -9 Z M 334 81 C 387 81 430 104 463 152 C 495 200 512 272 512 369 C 512 459 494 527 460 575 C 426 623 381 647 325 647 C 271 647 228 624 196 578 C 164 532 149 461 149 367 C 149 271 166 199 201 152 C 235 104 280 81 334 81 Z M 328 788 L 328 788 Z M 480 788 L 391 788 L 328 889 L 264 788 L 177 788 L 283 960 L 374 960 L 480 788 Z" unicode="Ô" />
<glyph horiz-adv-x="660" d="M 37 0 L 37 0 Z M 333 -9 C 287 -9 245 0 209 17 C 172 35 141 60 116 92 C 90 124 71 164 57 212 C 43 259 37 312 37 371 C 37 427 44 477 58 523 C 72 569 91 607 117 639 C 143 671 173 695 209 713 C 245 730 284 739 327 739 C 418 739 490 706 543 640 C 596 574 623 482 623 366 C 623 308 615 256 601 210 C 586 163 566 123 541 91 C 515 59 485 34 449 17 C 413 0 375 -9 333 -9 Z M 334 81 C 387 81 430 104 463 152 C 495 200 512 272 512 369 C 512 459 494 527 460 575 C 426 623 381 647 325 647 C 271 647 228 624 196 578 C 164 532 149 461 149 367 C 149 271 166 199 201 152 C 235 104 280 81 334 81 Z M 328 793 L 328 793 Z M 414 934 L 492 934 C 492 886 485 850 471 827 C 457 804 438 793 415 793 C 396 793 380 796 366 803 C 352 810 340 817 330 824 C 320 830 310 837 301 843 C 292 849 283 853 275 853 C 266 853 258 847 252 837 C 246 827 242 813 242 797 L 165 797 C 165 844 174 879 194 903 C 213 926 233 938 254 938 C 270 938 285 934 297 928 C 309 921 320 913 332 905 C 340 898 349 892 357 887 C 365 882 373 880 382 880 C 390 880 398 884 404 894 C 410 903 414 916 414 934 Z" unicode="Õ" />
<glyph horiz-adv-x="660" d="M 37 0 L 37 0 Z M 333 -9 C 287 -9 245 0 209 17 C 172 35 141 60 116 92 C 90 124 71 164 57 212 C 43 259 37 312 37 371 C 37 427 44 477 58 523 C 72 569 91 607 117 639 C 143 671 173 695 209 713 C 245 730 284 739 327 739 C 418 739 490 706 543 640 C 596 574 623 482 623 366 C 623 308 615 256 601 210 C 586 163 566 123 541 91 C 515 59 485 34 449 17 C 413 0 375 -9 333 -9 Z M 334 81 C 387 81 430 104 463 152 C 495 200 512 272 512 369 C 512 459 494 527 460 575 C 426 623 381 647 325 647 C 271 647 228 624 196 578 C 164 532 149 461 149 367 C 149 271 166 199 201 152 C 235 104 280 81 334 81 Z M 328 788 L 328 788 Z M 452 788 L 369 788 L 369 947 L 452 947 L 452 788 Z M 287 788 L 204 788 L 204 947 L 287 947 L 287 788 Z" unicode="Ö" />
<glyph horiz-adv-x="478" d="M 107 143 L 54 197 L 186 328 L 55 459 L 108 513 L 239 383 L 371 513 L 425 459 L 293 328 L 425 198 L 371 141 L 239 275 L 107 143 Z" unicode="×" />
<glyph horiz-adv-x="660" d="M 623 366 C 623 308 615 256 601 210 C 586 163 566 123 541 91 C 515 59 485 34 449 17 C 413 0 375 -9 333 -9 C 294 -9 258 -2 226 10 C 194 22 165 40 141 64 L 85 -8 L 26 36 L 94 124 C 75 155 61 191 51 233 C 41 275 37 321 37 371 C 37 427 44 477 58 523 C 72 569 91 607 117 639 C 143 671 173 695 209 713 C 245 730 284 739 327 739 C 365 739 400 733 432 721 C 464 709 492 692 517 670 L 581 753 L 640 710 L 564 612 C 582 581 597 545 607 503 C 617 461 623 416 623 366 Z M 149 367 C 149 338 150 311 154 287 C 157 262 162 240 169 220 L 452 587 C 436 607 417 622 395 632 C 373 642 350 647 325 647 C 271 647 228 624 196 578 C 164 532 149 461 149 367 Z M 512 369 C 512 397 510 424 506 449 C 502 473 496 496 490 516 L 205 147 C 221 125 240 108 262 97 C 284 86 308 81 334 81 C 387 81 430 104 463 152 C 495 200 512 272 512 369 Z" unicode="Ø" />
<glyph horiz-adv-x="611" d="M 65 0 L 65 0 Z M 546 730 L 546 235 C 546 193 539 157 526 126 C 512 95 494 70 472 50 C 450 30 424 15 394 5 C 364 -4 333 -9 301 -9 C 269 -9 239 -4 211 5 C 182 14 157 28 135 48 C 113 68 96 93 84 124 C 71 154 65 191 65 235 L 65 730 L 173 730 L 173 235 C 173 184 185 147 211 123 C 236 99 267 88 303 88 C 339 88 369 99 395 122 C 421 144 434 182 434 235 L 434 730 L 546 730 Z M 304 787 L 304 787 Z M 409 787 L 310 787 L 198 956 L 316 956 L 409 787 Z" unicode="Ù" />
<glyph horiz-adv-x="611" d="M 65 0 L 65 0 Z M 546 730 L 546 235 C 546 193 539 157 526 126 C 512 95 494 70 472 50 C 450 30 424 15 394 5 C 364 -4 333 -9 301 -9 C 269 -9 239 -4 211 5 C 182 14 157 28 135 48 C 113 68 96 93 84 124 C 71 154 65 191 65 235 L 65 730 L 173 730 L 173 235 C 173 184 185 147 211 123 C 236 99 267 88 303 88 C 339 88 369 99 395 122 C 421 144 434 182 434 235 L 434 730 L 546 730 Z M 304 790 L 304 790 Z M 199 790 L 291 959 L 409 959 L 298 790 L 199 790 Z" unicode="Ú" />
<glyph horiz-adv-x="611" d="M 65 0 L 65 0 Z M 546 730 L 546 235 C 546 193 539 157 526 126 C 512 95 494 70 472 50 C 450 30 424 15 394 5 C 364 -4 333 -9 301 -9 C 269 -9 239 -4 211 5 C 182 14 157 28 135 48 C 113 68 96 93 84 124 C 71 154 65 191 65 235 L 65 730 L 173 730 L 173 235 C 173 184 185 147 211 123 C 236 99 267 88 303 88 C 339 88 369 99 395 122 C 421 144 434 182 434 235 L 434 730 L 546 730 Z M 304 788 L 304 788 Z M 456 788 L 367 788 L 304 889 L 240 788 L 153 788 L 259 960 L 350 960 L 456 788 Z" unicode="Û" />
<glyph horiz-adv-x="611" d="M 65 0 L 65 0 Z M 546 730 L 546 235 C 546 193 539 157 526 126 C 512 95 494 70 472 50 C 450 30 424 15 394 5 C 364 -4 333 -9 301 -9 C 269 -9 239 -4 211 5 C 182 14 157 28 135 48 C 113 68 96 93 84 124 C 71 154 65 191 65 235 L 65 730 L 173 730 L 173 235 C 173 184 185 147 211 123 C 236 99 267 88 303 88 C 339 88 369 99 395 122 C 421 144 434 182 434 235 L 434 730 L 546 730 Z M 304 788 L 304 788 Z M 428 788 L 345 788 L 345 947 L 428 947 L 428 788 Z M 263 788 L 180 788 L 180 947 L 263 947 L 263 788 Z" unicode="Ü" />
<glyph horiz-adv-x="533" d="M 0 0 L 0 0 Z M 536 730 L 319 311 L 319 0 L 209 0 L 209 314 L -3 730 L 123 730 L 271 420 L 428 730 L 536 730 Z M 271 790 L 271 790 Z M 166 790 L 258 959 L 376 959 L 265 790 L 166 790 Z" unicode="Ý" />
<glyph horiz-adv-x="503" d="M 68 0 L 68 730 L 178 730 L 178 604 L 276 604 C 336 604 386 584 426 545 C 465 506 485 453 485 386 C 485 316 465 261 425 220 C 385 179 334 159 273 159 L 178 159 L 178 0 L 68 0 Z M 176 246 L 265 246 C 299 246 327 258 348 283 C 369 307 380 342 380 386 C 380 428 368 460 345 482 C 321 504 294 515 263 515 L 176 515 L 176 246 Z" unicode="Þ" />
<glyph horiz-adv-x="566" d="M 391 -7 C 353 -7 318 0 288 13 C 258 26 233 44 215 66 L 265 135 C 281 117 300 104 321 94 C 341 84 362 79 383 79 C 401 79 418 85 433 97 C 447 109 455 126 455 147 C 455 167 446 185 428 200 C 410 214 385 230 351 248 C 309 267 278 287 257 309 C 236 331 226 362 226 404 C 226 440 236 469 257 491 C 277 513 300 527 326 534 C 331 536 337 544 343 557 C 349 569 353 588 355 614 C 355 652 345 679 326 695 C 306 711 284 720 260 720 C 233 720 211 711 194 693 C 176 675 168 648 168 611 L 168 0 L 65 0 L 65 620 C 65 680 82 725 118 757 C 153 788 199 804 255 804 C 309 804 354 787 391 755 C 428 723 447 678 447 620 C 447 578 440 544 428 518 C 416 492 403 476 390 471 C 372 469 355 463 339 453 C 323 443 314 429 313 411 C 313 392 322 377 340 365 C 358 353 386 337 424 317 C 465 296 496 273 517 247 C 537 221 548 187 548 145 C 548 119 543 97 534 78 C 524 58 512 42 498 30 C 483 18 466 8 447 2 C 428 -3 409 -7 391 -7 Z" unicode="ß" />
<glyph horiz-adv-x="452" d="M 25 0 L 25 0 Z M 403 0 L 314 0 L 314 57 C 296 35 276 19 255 9 C 233 0 205 -6 170 -6 C 126 -6 90 8 64 38 C 38 67 25 108 25 160 C 25 220 43 264 79 293 C 115 321 161 338 217 342 L 306 349 L 306 377 C 306 406 298 428 283 442 C 267 456 245 464 217 464 C 191 464 167 459 145 449 C 123 439 104 429 89 419 L 56 499 C 74 513 98 526 128 538 C 158 549 194 555 236 555 C 287 555 328 541 358 514 C 388 487 403 447 403 394 L 403 0 Z M 308 125 L 308 276 L 229 271 C 199 269 174 259 155 242 C 135 224 126 198 126 162 C 126 131 134 108 150 93 C 166 78 185 71 207 71 C 229 71 249 76 266 87 C 283 97 297 110 308 125 Z M 223 601 L 223 601 Z M 328 601 L 229 601 L 117 770 L 235 770 L 328 601 Z" unicode="à" />
<glyph horiz-adv-x="452" d="M 25 0 L 25 0 Z M 403 0 L 314 0 L 314 57 C 296 35 276 19 255 9 C 233 0 205 -6 170 -6 C 126 -6 90 8 64 38 C 38 67 25 108 25 160 C 25 220 43 264 79 293 C 115 321 161 338 217 342 L 306 349 L 306 377 C 306 406 298 428 283 442 C 267 456 245 464 217 464 C 191 464 167 459 145 449 C 123 439 104 429 89 419 L 56 499 C 74 513 98 526 128 538 C 158 549 194 555 236 555 C 287 555 328 541 358 514 C 388 487 403 447 403 394 L 403 0 Z M 308 125 L 308 276 L 229 271 C 199 269 174 259 155 242 C 135 224 126 198 126 162 C 126 131 134 108 150 93 C 166 78 185 71 207 71 C 229 71 249 76 266 87 C 283 97 297 110 308 125 Z M 223 604 L 223 604 Z M 118 604 L 210 773 L 328 773 L 217 604 L 118 604 Z" unicode="á" />
<glyph horiz-adv-x="452" d="M 25 0 L 25 0 Z M 403 0 L 314 0 L 314 57 C 296 35 276 19 255 9 C 233 0 205 -6 170 -6 C 126 -6 90 8 64 38 C 38 67 25 108 25 160 C 25 220 43 264 79 293 C 115 321 161 338 217 342 L 306 349 L 306 377 C 306 406 298 428 283 442 C 267 456 245 464 217 464 C 191 464 167 459 145 449 C 123 439 104 429 89 419 L 56 499 C 74 513 98 526 128 538 C 158 549 194 555 236 555 C 287 555 328 541 358 514 C 388 487 403 447 403 394 L 403 0 Z M 308 125 L 308 276 L 229 271 C 199 269 174 259 155 242 C 135 224 126 198 126 162 C 126 131 134 108 150 93 C 166 78 185 71 207 71 C 229 71 249 76 266 87 C 283 97 297 110 308 125 Z M 223 602 L 223 602 Z M 375 602 L 286 602 L 223 703 L 159 602 L 72 602 L 178 774 L 269 774 L 375 602 Z" unicode="â" />
<glyph horiz-adv-x="452" d="M 25 0 L 25 0 Z M 403 0 L 314 0 L 314 57 C 296 35 276 19 255 9 C 233 0 205 -6 170 -6 C 126 -6 90 8 64 38 C 38 67 25 108 25 160 C 25 220 43 264 79 293 C 115 321 161 338 217 342 L 306 349 L 306 377 C 306 406 298 428 283 442 C 267 456 245 464 217 464 C 191 464 167 459 145 449 C 123 439 104 429 89 419 L 56 499 C 74 513 98 526 128 538 C 158 549 194 555 236 555 C 287 555 328 541 358 514 C 388 487 403 447 403 394 L 403 0 Z M 308 125 L 308 276 L 229 271 C 199 269 174 259 155 242 C 135 224 126 198 126 162 C 126 131 134 108 150 93 C 166 78 185 71 207 71 C 229 71 249 76 266 87 C 283 97 297 110 308 125 Z M 223 607 L 223 607 Z M 309 748 L 387 748 C 387 700 380 664 366 641 C 352 618 333 607 310 607 C 291 607 275 610 261 617 C 247 624 235 631 225 638 C 215 644 205 651 196 657 C 187 663 178 667 170 667 C 161 667 153 661 147 651 C 141 641 137 627 137 611 L 60 611 C 60 658 69 693 89 717 C 108 740 128 752 149 752 C 165 752 180 748 192 742 C 204 735 215 727 227 719 C 235 712 244 706 252 701 C 260 696 268 694 277 694 C 285 694 293 698 299 708 C 305 717 309 730 309 748 Z" unicode="ã" />
<glyph horiz-adv-x="452" d="M 25 0 L 25 0 Z M 403 0 L 314 0 L 314 57 C 296 35 276 19 255 9 C 233 0 205 -6 170 -6 C 126 -6 90 8 64 38 C 38 67 25 108 25 160 C 25 220 43 264 79 293 C 115 321 161 338 217 342 L 306 349 L 306 377 C 306 406 298 428 283 442 C 267 456 245 464 217 464 C 191 464 167 459 145 449 C 123 439 104 429 89 419 L 56 499 C 74 513 98 526 128 538 C 158 549 194 555 236 555 C 287 555 328 541 358 514 C 388 487 403 447 403 394 L 403 0 Z M 308 125 L 308 276 L 229 271 C 199 269 174 259 155 242 C 135 224 126 198 126 162 C 126 131 134 108 150 93 C 166 78 185 71 207 71 C 229 71 249 76 266 87 C 283 97 297 110 308 125 Z M 223 602 L 223 602 Z M 347 602 L 264 602 L 264 761 L 347 761 L 347 602 Z M 182 602 L 99 602 L 99 761 L 182 761 L 182 602 Z" unicode="ä" />
<glyph horiz-adv-x="452" d="M 25 0 L 25 0 Z M 403 0 L 314 0 L 314 57 C 296 35 276 19 255 9 C 233 0 205 -6 170 -6 C 126 -6 90 8 64 38 C 38 67 25 108 25 160 C 25 220 43 264 79 293 C 115 321 161 338 217 342 L 306 349 L 306 377 C 306 406 298 428 283 442 C 267 456 245 464 217 464 C 191 464 167 459 145 449 C 123 439 104 429 89 419 L 56 499 C 74 513 98 526 128 538 C 158 549 194 555 236 555 C 287 555 328 541 358 514 C 388 487 403 447 403 394 L 403 0 Z M 308 125 L 308 276 L 229 271 C 199 269 174 259 155 242 C 135 224 126 198 126 162 C 126 131 134 108 150 93 C 166 78 185 71 207 71 C 229 71 249 76 266 87 C 283 97 297 110 308 125 Z M 223 585 L 223 585 Z M 223 585 C 189 585 159 597 135 622 C 111 646 99 676 99 711 C 99 745 111 774 135 798 C 159 822 189 835 223 835 C 258 835 288 822 312 798 C 336 774 349 745 349 711 C 349 676 336 646 312 622 C 288 597 258 585 223 585 Z M 224 648 C 241 648 255 654 267 666 C 279 678 285 693 285 711 C 285 727 279 742 267 754 C 255 766 241 773 224 773 C 207 773 192 766 180 754 C 168 742 162 727 162 711 C 162 693 168 678 180 666 C 192 654 207 648 224 648 Z" unicode="å" />
<glyph horiz-adv-x="748" d="M 518 -7 C 494 -7 473 -3 455 2 C 436 8 420 16 406 26 C 392 35 381 45 371 57 C 361 69 354 80 350 91 C 336 62 315 39 285 21 C 255 3 219 -6 177 -6 C 136 -6 101 8 73 38 C 44 68 30 108 30 159 C 30 219 48 264 84 292 C 120 320 166 337 222 341 L 311 347 L 311 366 C 311 401 303 426 287 442 C 271 457 248 465 219 465 C 193 465 169 460 147 450 C 125 440 108 430 94 420 L 61 499 C 79 513 102 526 130 537 C 157 548 190 554 228 554 C 263 554 293 546 319 532 C 344 518 361 498 369 474 C 377 490 394 507 419 524 C 444 541 477 550 518 550 C 582 550 632 523 669 469 C 705 415 724 340 724 245 L 404 245 C 404 199 415 160 437 129 C 459 98 490 83 529 83 C 561 83 587 90 606 104 C 624 118 640 133 653 148 L 706 87 C 688 64 664 43 634 23 C 604 3 566 -7 518 -7 Z M 403 316 L 623 316 C 622 360 612 395 594 423 C 575 451 549 465 517 465 C 485 465 458 451 438 424 C 417 397 405 361 403 316 Z M 210 71 C 234 71 256 79 275 95 C 293 111 306 132 313 158 L 313 274 L 233 269 C 204 267 180 258 160 243 C 140 227 130 201 130 164 C 130 131 138 107 154 93 C 170 78 189 71 210 71 Z" unicode="æ" />
<glyph horiz-adv-x="437" d="M 27 0 L 27 0 Z M 359 144 L 419 85 C 404 62 383 41 356 22 C 329 2 294 -7 250 -7 C 216 -7 185 0 157 13 C 129 27 105 46 86 70 C 67 94 52 124 42 158 C 32 192 27 230 27 271 C 27 309 32 345 42 379 C 52 413 66 443 85 469 C 104 494 127 514 155 529 C 183 543 214 551 249 551 C 295 551 333 539 362 517 C 390 495 410 471 421 445 L 344 396 C 335 413 323 428 308 441 C 292 454 272 461 248 461 C 212 461 183 444 163 410 C 143 376 133 331 133 275 C 133 210 144 161 168 129 C 192 97 222 81 259 81 C 286 81 307 88 323 102 C 338 116 350 130 359 144 Z M 237 -3 L 237 -3 Z M 243 -186 C 221 -186 199 -183 178 -177 C 157 -171 140 -163 128 -153 L 149 -113 C 157 -118 167 -123 180 -129 C 193 -134 207 -137 223 -137 C 235 -137 246 -134 255 -128 C 263 -122 268 -114 268 -105 C 268 -93 263 -85 255 -80 C 247 -75 238 -73 229 -73 C 222 -73 216 -73 210 -74 C 204 -75 199 -77 195 -79 L 183 -62 L 238 11 L 291 11 L 248 -47 C 276 -44 299 -48 318 -59 C 337 -69 347 -87 347 -111 C 347 -135 336 -153 316 -166 C 296 -179 271 -186 243 -186 Z" unicode="ç" />
<glyph horiz-adv-x="473" d="M 27 0 L 27 0 Z M 244 -7 C 180 -7 127 17 87 67 C 47 117 27 184 27 269 C 27 311 32 349 43 384 C 53 419 68 449 87 473 C 106 497 129 516 155 530 C 181 544 209 551 240 551 C 307 551 358 523 394 468 C 430 413 448 338 449 243 L 129 243 C 129 199 140 161 162 130 C 183 98 214 83 254 83 C 284 83 309 90 329 104 C 349 118 365 133 377 148 L 429 87 C 412 64 388 43 358 23 C 328 3 290 -7 244 -7 Z M 126 316 L 347 316 C 346 362 336 399 317 425 C 297 451 272 465 241 465 C 208 465 181 451 161 425 C 140 398 128 362 126 316 Z M 240 601 L 240 601 Z M 345 601 L 246 601 L 134 770 L 252 770 L 345 601 Z" unicode="è" />
<glyph horiz-adv-x="473" d="M 27 0 L 27 0 Z M 244 -7 C 180 -7 127 17 87 67 C 47 117 27 184 27 269 C 27 311 32 349 43 384 C 53 419 68 449 87 473 C 106 497 129 516 155 530 C 181 544 209 551 240 551 C 307 551 358 523 394 468 C 430 413 448 338 449 243 L 129 243 C 129 199 140 161 162 130 C 183 98 214 83 254 83 C 284 83 309 90 329 104 C 349 118 365 133 377 148 L 429 87 C 412 64 388 43 358 23 C 328 3 290 -7 244 -7 Z M 126 316 L 347 316 C 346 362 336 399 317 425 C 297 451 272 465 241 465 C 208 465 181 451 161 425 C 140 398 128 362 126 316 Z M 240 604 L 240 604 Z M 135 604 L 227 773 L 345 773 L 234 604 L 135 604 Z" unicode="é" />
<glyph horiz-adv-x="473" d="M 27 0 L 27 0 Z M 244 -7 C 180 -7 127 17 87 67 C 47 117 27 184 27 269 C 27 311 32 349 43 384 C 53 419 68 449 87 473 C 106 497 129 516 155 530 C 181 544 209 551 240 551 C 307 551 358 523 394 468 C 430 413 448 338 449 243 L 129 243 C 129 199 140 161 162 130 C 183 98 214 83 254 83 C 284 83 309 90 329 104 C 349 118 365 133 377 148 L 429 87 C 412 64 388 43 358 23 C 328 3 290 -7 244 -7 Z M 126 316 L 347 316 C 346 362 336 399 317 425 C 297 451 272 465 241 465 C 208 465 181 451 161 425 C 140 398 128 362 126 316 Z M 240 602 L 240 602 Z M 392 602 L 303 602 L 240 703 L 176 602 L 89 602 L 195 774 L 286 774 L 392 602 Z" unicode="ê" />
<glyph horiz-adv-x="473" d="M 27 0 L 27 0 Z M 244 -7 C 180 -7 127 17 87 67 C 47 117 27 184 27 269 C 27 311 32 349 43 384 C 53 419 68 449 87 473 C 106 497 129 516 155 530 C 181 544 209 551 240 551 C 307 551 358 523 394 468 C 430 413 448 338 449 243 L 129 243 C 129 199 140 161 162 130 C 183 98 214 83 254 83 C 284 83 309 90 329 104 C 349 118 365 133 377 148 L 429 87 C 412 64 388 43 358 23 C 328 3 290 -7 244 -7 Z M 126 316 L 347 316 C 346 362 336 399 317 425 C 297 451 272 465 241 465 C 208 465 181 451 161 425 C 140 398 128 362 126 316 Z M 240 602 L 240 602 Z M 364 602 L 281 602 L 281 761 L 364 761 L 364 602 Z M 199 602 L 116 602 L 116 761 L 199 761 L 199 602 Z" unicode="ë" />
<glyph horiz-adv-x="214" d="M 0 0 L 0 0 Z M 158 0 L 56 0 L 56 544 L 158 544 L 158 0 Z M 106 601 L 106 601 Z M 211 601 L 112 601 L 0 770 L 118 770 L 211 601 Z" unicode="ì" />
<glyph horiz-adv-x="214" d="M 1 0 L 1 0 Z M 158 0 L 56 0 L 56 544 L 158 544 L 158 0 Z M 106 604 L 106 604 Z M 1 604 L 93 773 L 211 773 L 100 604 L 1 604 Z" unicode="í" />
<glyph horiz-adv-x="214" d="M 0 0 L 0 0 Z M 158 0 L 56 0 L 56 544 L 158 544 L 158 0 Z M 106 602 L 106 602 Z M 258 602 L 169 602 L 106 703 L 42 602 L -45 602 L 61 774 L 152 774 L 258 602 Z" unicode="î" />
<glyph horiz-adv-x="214" d="M 0 0 L 0 0 Z M 158 0 L 56 0 L 56 544 L 158 544 L 158 0 Z M 106 602 L 106 602 Z M 230 602 L 147 602 L 147 761 L 230 761 L 230 602 Z M 65 602 L -18 602 L -18 761 L 65 761 L 65 602 Z" unicode="ï" />
<glyph horiz-adv-x="496" d="M 461 305 C 461 260 456 218 447 180 C 437 142 424 109 406 81 C 388 53 365 31 338 15 C 311 -1 280 -9 245 -9 C 182 -9 130 14 89 62 C 48 110 28 175 28 259 C 28 301 33 340 44 374 C 55 408 70 436 88 460 C 106 483 128 501 152 513 C 176 525 200 532 226 532 C 256 532 283 525 305 512 C 327 499 344 481 356 459 C 352 492 345 523 336 553 C 326 582 316 609 305 633 L 201 590 L 181 653 L 272 690 C 258 710 244 727 230 741 C 216 754 204 764 194 770 L 274 802 C 282 797 293 788 307 774 C 321 760 335 743 350 721 L 416 748 L 435 686 L 383 665 C 403 623 421 572 437 512 C 453 452 461 383 461 305 Z M 244 78 C 280 78 307 93 327 125 C 347 156 357 203 357 265 C 357 329 347 375 327 405 C 307 435 279 450 243 450 C 209 450 182 433 162 401 C 142 369 132 323 132 264 C 132 202 142 155 162 124 C 182 93 210 78 244 78 Z" unicode="ð" />
<glyph horiz-adv-x="485" d="M 54 0 L 54 0 Z M 434 0 L 333 0 L 333 390 C 333 414 325 432 310 445 C 295 457 276 464 254 464 C 229 464 206 456 186 441 C 165 426 155 401 155 366 L 155 0 L 54 0 L 54 544 L 141 544 L 141 458 C 150 485 168 507 194 525 C 220 542 252 551 290 551 C 330 551 364 540 392 518 C 420 496 434 465 434 423 L 434 0 Z M 251 607 L 251 607 Z M 337 748 L 415 748 C 415 700 408 664 394 641 C 380 618 361 607 338 607 C 319 607 303 610 289 617 C 275 624 263 631 253 638 C 243 644 233 651 224 657 C 215 663 206 667 198 667 C 189 667 181 661 175 651 C 169 641 165 627 165 611 L 88 611 C 88 658 97 693 117 717 C 136 740 156 752 177 752 C 193 752 208 748 220 742 C 232 735 243 727 255 719 C 263 712 272 706 280 701 C 288 696 296 694 305 694 C 313 694 321 698 327 708 C 333 717 337 730 337 748 Z" unicode="ñ" />
<glyph horiz-adv-x="490" d="M 27 0 L 27 0 Z M 243 -7 C 213 -7 184 -1 158 11 C 132 23 109 40 90 63 C 70 86 55 115 44 150 C 32 185 27 225 27 271 C 27 313 32 351 43 386 C 54 420 69 450 88 474 C 107 498 130 517 156 531 C 182 544 210 551 241 551 C 305 551 358 527 400 481 C 441 434 462 369 462 286 C 462 196 441 125 401 72 C 360 19 307 -7 243 -7 Z M 246 82 C 280 82 307 98 327 130 C 347 162 357 211 357 277 C 357 341 346 387 326 417 C 306 446 278 461 242 461 C 208 461 182 445 162 415 C 142 385 132 337 132 273 C 132 204 142 155 164 126 C 186 96 213 82 246 82 Z M 245 601 L 245 601 Z M 350 601 L 251 601 L 139 770 L 257 770 L 350 601 Z" unicode="ò" />
<glyph horiz-adv-x="490" d="M 27 0 L 27 0 Z M 243 -7 C 213 -7 184 -1 158 11 C 132 23 109 40 90 63 C 70 86 55 115 44 150 C 32 185 27 225 27 271 C 27 313 32 351 43 386 C 54 420 69 450 88 474 C 107 498 130 517 156 531 C 182 544 210 551 241 551 C 305 551 358 527 400 481 C 441 434 462 369 462 286 C 462 196 441 125 401 72 C 360 19 307 -7 243 -7 Z M 246 82 C 280 82 307 98 327 130 C 347 162 357 211 357 277 C 357 341 346 387 326 417 C 306 446 278 461 242 461 C 208 461 182 445 162 415 C 142 385 132 337 132 273 C 132 204 142 155 164 126 C 186 96 213 82 246 82 Z M 245 604 L 245 604 Z M 140 604 L 232 773 L 350 773 L 239 604 L 140 604 Z" unicode="ó" />
<glyph horiz-adv-x="490" d="M 27 0 L 27 0 Z M 243 -7 C 213 -7 184 -1 158 11 C 132 23 109 40 90 63 C 70 86 55 115 44 150 C 32 185 27 225 27 271 C 27 313 32 351 43 386 C 54 420 69 450 88 474 C 107 498 130 517 156 531 C 182 544 210 551 241 551 C 305 551 358 527 400 481 C 441 434 462 369 462 286 C 462 196 441 125 401 72 C 360 19 307 -7 243 -7 Z M 246 82 C 280 82 307 98 327 130 C 347 162 357 211 357 277 C 357 341 346 387 326 417 C 306 446 278 461 242 461 C 208 461 182 445 162 415 C 142 385 132 337 132 273 C 132 204 142 155 164 126 C 186 96 213 82 246 82 Z M 245 602 L 245 602 Z M 397 602 L 308 602 L 245 703 L 181 602 L 94 602 L 200 774 L 291 774 L 397 602 Z" unicode="ô" />
<glyph horiz-adv-x="490" d="M 27 0 L 27 0 Z M 243 -7 C 213 -7 184 -1 158 11 C 132 23 109 40 90 63 C 70 86 55 115 44 150 C 32 185 27 225 27 271 C 27 313 32 351 43 386 C 54 420 69 450 88 474 C 107 498 130 517 156 531 C 182 544 210 551 241 551 C 305 551 358 527 400 481 C 441 434 462 369 462 286 C 462 196 441 125 401 72 C 360 19 307 -7 243 -7 Z M 246 82 C 280 82 307 98 327 130 C 347 162 357 211 357 277 C 357 341 346 387 326 417 C 306 446 278 461 242 461 C 208 461 182 445 162 415 C 142 385 132 337 132 273 C 132 204 142 155 164 126 C 186 96 213 82 246 82 Z M 245 607 L 245 607 Z M 331 748 L 409 748 C 409 700 402 664 388 641 C 374 618 355 607 332 607 C 313 607 297 610 283 617 C 269 624 257 631 247 638 C 237 644 227 651 218 657 C 209 663 200 667 192 667 C 183 667 175 661 169 651 C 163 641 159 627 159 611 L 82 611 C 82 658 91 693 111 717 C 130 740 150 752 171 752 C 187 752 202 748 214 742 C 226 735 237 727 249 719 C 257 712 266 706 274 701 C 282 696 290 694 299 694 C 307 694 315 698 321 708 C 327 717 331 730 331 748 Z" unicode="õ" />
<glyph horiz-adv-x="490" d="M 27 0 L 27 0 Z M 243 -7 C 213 -7 184 -1 158 11 C 132 23 109 40 90 63 C 70 86 55 115 44 150 C 32 185 27 225 27 271 C 27 313 32 351 43 386 C 54 420 69 450 88 474 C 107 498 130 517 156 531 C 182 544 210 551 241 551 C 305 551 358 527 400 481 C 441 434 462 369 462 286 C 462 196 441 125 401 72 C 360 19 307 -7 243 -7 Z M 246 82 C 280 82 307 98 327 130 C 347 162 357 211 357 277 C 357 341 346 387 326 417 C 306 446 278 461 242 461 C 208 461 182 445 162 415 C 142 385 132 337 132 273 C 132 204 142 155 164 126 C 186 96 213 82 246 82 Z M 245 602 L 245 602 Z M 369 602 L 286 602 L 286 761 L 369 761 L 369 602 Z M 204 602 L 121 602 L 121 761 L 204 761 L 204 602 Z" unicode="ö" />
<glyph horiz-adv-x="478" d="M 191 448 L 191 567 L 287 567 L 287 448 L 191 448 Z M 24 287 L 24 374 L 454 374 L 454 287 L 24 287 Z M 191 94 L 191 212 L 287 212 L 287 94 L 191 94 Z" unicode="÷" />
<glyph horiz-adv-x="490" d="M 243 -7 C 218 -7 194 -3 172 5 C 150 13 129 25 111 41 L 74 -10 L 25 28 L 71 91 C 57 113 46 140 38 170 C 30 200 27 233 27 271 C 27 313 32 351 43 386 C 54 420 69 450 88 474 C 107 498 130 517 156 531 C 182 544 210 551 241 551 C 266 551 290 547 313 540 C 335 532 356 521 374 507 L 414 562 L 463 526 L 416 461 C 430 439 442 413 450 384 C 458 354 462 322 462 286 C 462 196 441 125 401 72 C 360 19 307 -7 243 -7 Z M 132 273 C 132 256 132 240 134 226 C 135 211 137 198 140 186 L 317 429 C 307 439 296 447 284 453 C 271 458 257 461 242 461 C 208 461 182 445 162 415 C 142 385 132 337 132 273 Z M 357 277 C 357 294 356 310 354 325 C 352 340 350 354 347 367 L 168 120 C 178 107 189 97 203 91 C 216 85 230 82 246 82 C 280 82 307 98 327 130 C 347 162 357 211 357 277 Z" unicode="ø" />
<glyph horiz-adv-x="485" d="M 51 0 L 51 0 Z M 51 544 L 152 544 L 152 171 C 152 138 160 114 176 100 C 192 85 213 78 239 78 C 263 78 285 86 303 104 C 321 121 330 148 330 185 L 330 544 L 431 544 L 431 0 L 341 0 L 341 86 C 333 62 316 40 291 21 C 265 1 234 -8 196 -8 C 157 -8 123 4 94 29 C 65 54 51 91 51 139 L 51 544 Z M 241 601 L 241 601 Z M 346 601 L 247 601 L 135 770 L 253 770 L 346 601 Z" unicode="ù" />
<glyph horiz-adv-x="485" d="M 51 0 L 51 0 Z M 51 544 L 152 544 L 152 171 C 152 138 160 114 176 100 C 192 85 213 78 239 78 C 263 78 285 86 303 104 C 321 121 330 148 330 185 L 330 544 L 431 544 L 431 0 L 341 0 L 341 86 C 333 62 316 40 291 21 C 265 1 234 -8 196 -8 C 157 -8 123 4 94 29 C 65 54 51 91 51 139 L 51 544 Z M 241 604 L 241 604 Z M 136 604 L 228 773 L 346 773 L 235 604 L 136 604 Z" unicode="ú" />
<glyph horiz-adv-x="485" d="M 51 0 L 51 0 Z M 51 544 L 152 544 L 152 171 C 152 138 160 114 176 100 C 192 85 213 78 239 78 C 263 78 285 86 303 104 C 321 121 330 148 330 185 L 330 544 L 431 544 L 431 0 L 341 0 L 341 86 C 333 62 316 40 291 21 C 265 1 234 -8 196 -8 C 157 -8 123 4 94 29 C 65 54 51 91 51 139 L 51 544 Z M 241 602 L 241 602 Z M 393 602 L 304 602 L 241 703 L 177 602 L 90 602 L 196 774 L 287 774 L 393 602 Z" unicode="û" />
<glyph horiz-adv-x="485" d="M 51 0 L 51 0 Z M 51 544 L 152 544 L 152 171 C 152 138 160 114 176 100 C 192 85 213 78 239 78 C 263 78 285 86 303 104 C 321 121 330 148 330 185 L 330 544 L 431 544 L 431 0 L 341 0 L 341 86 C 333 62 316 40 291 21 C 265 1 234 -8 196 -8 C 157 -8 123 4 94 29 C 65 54 51 91 51 139 L 51 544 Z M 241 602 L 241 602 Z M 365 602 L 282 602 L 282 761 L 365 761 L 365 602 Z M 200 602 L 117 602 L 117 761 L 200 761 L 200 602 Z" unicode="ü" />
<glyph horiz-adv-x="417" d="M 0 0 L 0 0 Z M 422 544 L 215 -86 C 201 -124 181 -152 155 -171 C 129 -190 101 -200 72 -200 C 46 -200 25 -197 9 -192 C -6 -186 -17 -181 -23 -177 L 16 -98 C 19 -100 26 -103 36 -106 C 46 -109 55 -111 65 -111 C 79 -111 92 -105 104 -95 C 116 -85 126 -68 134 -46 L 161 42 L -5 544 L 100 544 L 212 176 L 324 544 L 422 544 Z M 212 604 L 212 604 Z M 107 604 L 199 773 L 317 773 L 206 604 L 107 604 Z" unicode="ý" />
<glyph horiz-adv-x="497" d="M 54 -198 L 54 800 L 150 800 L 150 447 C 157 475 173 499 198 520 C 223 540 255 551 294 551 C 322 551 347 544 369 532 C 391 519 409 501 424 478 C 439 455 450 427 458 395 C 466 363 470 327 470 288 C 470 196 453 124 419 72 C 385 20 340 -5 286 -5 C 252 -5 223 3 200 19 C 176 35 160 56 152 81 L 152 -198 L 54 -198 Z M 254 79 C 286 79 313 94 333 126 C 353 158 364 206 364 270 C 364 329 355 375 337 409 C 319 443 292 460 256 460 C 226 460 200 446 179 418 C 157 390 147 338 147 263 C 147 191 157 143 177 117 C 197 91 223 79 254 79 Z" unicode="þ" />
<glyph horiz-adv-x="417" d="M 0 0 L 0 0 Z M 422 544 L 215 -86 C 201 -124 181 -152 155 -171 C 129 -190 101 -200 72 -200 C 46 -200 25 -197 9 -192 C -6 -186 -17 -181 -23 -177 L 16 -98 C 19 -100 26 -103 36 -106 C 46 -109 55 -111 65 -111 C 79 -111 92 -105 104 -95 C 116 -85 126 -68 134 -46 L 161 42 L -5 544 L 100 544 L 212 176 L 324 544 L 422 544 Z M 212 602 L 212 602 Z M 336 602 L 253 602 L 253 761 L 336 761 L 336 602 Z M 171 602 L 88 602 L 88 761 L 171 761 L 171 602 Z" unicode="ÿ" />
<glyph horiz-adv-x="543" d="M 0 0 L 0 0 Z M 542 0 L 434 0 L 378 174 L 156 174 L 104 0 L 0 0 L 235 734 L 310 734 L 542 0 Z M 361 255 L 267 559 L 174 255 L 361 255 Z M 269 799 L 269 799 Z M 396 799 L 142 799 L 142 885 L 396 885 L 396 799 Z" unicode="Ā" />
<glyph horiz-adv-x="452" d="M 25 0 L 25 0 Z M 403 0 L 314 0 L 314 57 C 296 35 276 19 255 9 C 233 0 205 -6 170 -6 C 126 -6 90 8 64 38 C 38 67 25 108 25 160 C 25 220 43 264 79 293 C 115 321 161 338 217 342 L 306 349 L 306 377 C 306 406 298 428 283 442 C 267 456 245 464 217 464 C 191 464 167 459 145 449 C 123 439 104 429 89 419 L 56 499 C 74 513 98 526 128 538 C 158 549 194 555 236 555 C 287 555 328 541 358 514 C 388 487 403 447 403 394 L 403 0 Z M 308 125 L 308 276 L 229 271 C 199 269 174 259 155 242 C 135 224 126 198 126 162 C 126 131 134 108 150 93 C 166 78 185 71 207 71 C 229 71 249 76 266 87 C 283 97 297 110 308 125 Z M 223 613 L 223 613 Z M 350 613 L 96 613 L 96 699 L 350 699 L 350 613 Z" unicode="ā" />
<glyph horiz-adv-x="543" d="M 0 0 L 0 0 Z M 542 0 L 434 0 L 378 174 L 156 174 L 104 0 L 0 0 L 235 734 L 310 734 L 542 0 Z M 361 255 L 267 559 L 174 255 L 361 255 Z M 269 791 L 269 791 Z M 330 950 L 414 950 C 410 894 394 854 368 829 C 342 803 309 791 269 791 C 229 791 195 803 169 829 C 143 854 128 894 125 950 L 209 950 C 210 925 215 905 224 890 C 233 875 248 868 269 868 C 289 868 304 875 314 890 C 323 904 328 924 330 950 Z" unicode="Ă" />
<glyph horiz-adv-x="452" d="M 25 0 L 25 0 Z M 403 0 L 314 0 L 314 57 C 296 35 276 19 255 9 C 233 0 205 -6 170 -6 C 126 -6 90 8 64 38 C 38 67 25 108 25 160 C 25 220 43 264 79 293 C 115 321 161 338 217 342 L 306 349 L 306 377 C 306 406 298 428 283 442 C 267 456 245 464 217 464 C 191 464 167 459 145 449 C 123 439 104 429 89 419 L 56 499 C 74 513 98 526 128 538 C 158 549 194 555 236 555 C 287 555 328 541 358 514 C 388 487 403 447 403 394 L 403 0 Z M 308 125 L 308 276 L 229 271 C 199 269 174 259 155 242 C 135 224 126 198 126 162 C 126 131 134 108 150 93 C 166 78 185 71 207 71 C 229 71 249 76 266 87 C 283 97 297 110 308 125 Z M 223 605 L 223 605 Z M 284 764 L 368 764 C 364 708 348 668 322 643 C 296 617 263 605 223 605 C 183 605 149 617 123 643 C 97 668 82 708 79 764 L 163 764 C 164 739 169 719 178 704 C 187 689 202 682 223 682 C 243 682 258 689 268 704 C 277 718 282 738 284 764 Z" unicode="ă" />
<glyph horiz-adv-x="543" d="M 0 0 L 0 0 Z M 542 0 L 434 0 L 378 174 L 156 174 L 104 0 L 0 0 L 235 734 L 310 734 L 542 0 Z M 361 255 L 267 559 L 174 255 L 361 255 Z M 449 -8 L 449 -8 Z M 546 -91 L 575 -134 C 554 -155 532 -171 508 -182 C 484 -193 458 -199 429 -199 C 395 -199 369 -191 351 -177 C 333 -162 324 -143 324 -121 C 324 -96 334 -73 354 -52 C 374 -30 404 -12 443 3 L 492 3 C 465 -10 445 -24 431 -38 C 417 -52 411 -66 411 -80 C 411 -92 415 -103 425 -111 C 434 -119 446 -123 462 -123 C 479 -123 495 -120 509 -114 C 523 -108 536 -100 546 -91 Z" unicode="Ą" />
<glyph horiz-adv-x="452" d="M 25 0 L 25 0 Z M 403 0 L 314 0 L 314 57 C 296 35 276 19 255 9 C 233 0 205 -6 170 -6 C 126 -6 90 8 64 38 C 38 67 25 108 25 160 C 25 220 43 264 79 293 C 115 321 161 338 217 342 L 306 349 L 306 377 C 306 406 298 428 283 442 C 267 456 245 464 217 464 C 191 464 167 459 145 449 C 123 439 104 429 89 419 L 56 499 C 74 513 98 526 128 538 C 158 549 194 555 236 555 C 287 555 328 541 358 514 C 388 487 403 447 403 394 L 403 0 Z M 308 125 L 308 276 L 229 271 C 199 269 174 259 155 242 C 135 224 126 198 126 162 C 126 131 134 108 150 93 C 166 78 185 71 207 71 C 229 71 249 76 266 87 C 283 97 297 110 308 125 Z M 329 -8 L 329 -8 Z M 426 -91 L 455 -134 C 434 -155 412 -171 388 -182 C 364 -193 338 -199 309 -199 C 275 -199 249 -191 231 -177 C 213 -162 204 -143 204 -121 C 204 -96 214 -73 234 -52 C 254 -30 284 -12 323 3 L 372 3 C 345 -10 325 -24 311 -38 C 297 -52 291 -66 291 -80 C 291 -92 295 -103 305 -111 C 314 -119 326 -123 342 -123 C 359 -123 375 -120 389 -114 C 403 -108 416 -100 426 -91 Z" unicode="ą" />
<glyph horiz-adv-x="604" d="M 37 0 L 37 0 Z M 324 -9 C 282 -9 244 0 209 15 C 174 31 144 55 118 87 C 92 118 72 157 58 204 C 44 251 37 305 37 366 C 37 423 43 475 57 521 C 70 567 89 607 113 639 C 137 671 168 695 204 713 C 240 730 280 739 325 739 C 387 739 437 724 475 696 C 513 668 541 631 561 585 L 467 540 C 453 568 435 592 414 612 C 392 632 363 642 325 642 C 269 642 225 620 193 576 C 161 532 146 461 146 365 C 146 314 151 271 162 236 C 172 200 186 172 204 150 C 221 128 241 112 263 102 C 285 92 308 87 332 87 C 372 87 405 97 429 119 C 453 140 472 168 486 202 L 574 155 C 553 105 522 66 480 36 C 438 6 386 -9 324 -9 Z M 328 790 L 328 790 Z M 223 790 L 315 959 L 433 959 L 322 790 L 223 790 Z" unicode="Ć" />
<glyph horiz-adv-x="437" d="M 27 0 L 27 0 Z M 359 144 L 419 85 C 404 62 383 41 356 22 C 329 2 294 -7 250 -7 C 216 -7 185 0 157 13 C 129 27 105 46 86 70 C 67 94 52 124 42 158 C 32 192 27 230 27 271 C 27 309 32 345 42 379 C 52 413 66 443 85 469 C 104 494 127 514 155 529 C 183 543 214 551 249 551 C 295 551 333 539 362 517 C 390 495 410 471 421 445 L 344 396 C 335 413 323 428 308 441 C 292 454 272 461 248 461 C 212 461 183 444 163 410 C 143 376 133 331 133 275 C 133 210 144 161 168 129 C 192 97 222 81 259 81 C 286 81 307 88 323 102 C 338 116 350 130 359 144 Z M 247 604 L 247 604 Z M 142 604 L 234 773 L 352 773 L 241 604 L 142 604 Z" unicode="ć" />
<glyph horiz-adv-x="604" d="M 37 0 L 37 0 Z M 324 -9 C 282 -9 244 0 209 15 C 174 31 144 55 118 87 C 92 118 72 157 58 204 C 44 251 37 305 37 366 C 37 423 43 475 57 521 C 70 567 89 607 113 639 C 137 671 168 695 204 713 C 240 730 280 739 325 739 C 387 739 437 724 475 696 C 513 668 541 631 561 585 L 467 540 C 453 568 435 592 414 612 C 392 632 363 642 325 642 C 269 642 225 620 193 576 C 161 532 146 461 146 365 C 146 314 151 271 162 236 C 172 200 186 172 204 150 C 221 128 241 112 263 102 C 285 92 308 87 332 87 C 372 87 405 97 429 119 C 453 140 472 168 486 202 L 574 155 C 553 105 522 66 480 36 C 438 6 386 -9 324 -9 Z M 328 788 L 328 788 Z M 480 788 L 391 788 L 328 889 L 264 788 L 177 788 L 283 960 L 374 960 L 480 788 Z" unicode="Ĉ" />
<glyph horiz-adv-x="437" d="M 27 0 L 27 0 Z M 359 144 L 419 85 C 404 62 383 41 356 22 C 329 2 294 -7 250 -7 C 216 -7 185 0 157 13 C 129 27 105 46 86 70 C 67 94 52 124 42 158 C 32 192 27 230 27 271 C 27 309 32 345 42 379 C 52 413 66 443 85 469 C 104 494 127 514 155 529 C 183 543 214 551 249 551 C 295 551 333 539 362 517 C 390 495 410 471 421 445 L 344 396 C 335 413 323 428 308 441 C 292 454 272 461 248 461 C 212 461 183 444 163 410 C 143 376 133 331 133 275 C 133 210 144 161 168 129 C 192 97 222 81 259 81 C 286 81 307 88 323 102 C 338 116 350 130 359 144 Z M 247 602 L 247 602 Z M 399 602 L 310 602 L 247 703 L 183 602 L 96 602 L 202 774 L 293 774 L 399 602 Z" unicode="ĉ" />
<glyph horiz-adv-x="604" d="M 37 0 L 37 0 Z M 324 -9 C 282 -9 244 0 209 15 C 174 31 144 55 118 87 C 92 118 72 157 58 204 C 44 251 37 305 37 366 C 37 423 43 475 57 521 C 70 567 89 607 113 639 C 137 671 168 695 204 713 C 240 730 280 739 325 739 C 387 739 437 724 475 696 C 513 668 541 631 561 585 L 467 540 C 453 568 435 592 414 612 C 392 632 363 642 325 642 C 269 642 225 620 193 576 C 161 532 146 461 146 365 C 146 314 151 271 162 236 C 172 200 186 172 204 150 C 221 128 241 112 263 102 C 285 92 308 87 332 87 C 372 87 405 97 429 119 C 453 140 472 168 486 202 L 574 155 C 553 105 522 66 480 36 C 438 6 386 -9 324 -9 Z M 328 790 L 328 790 Z M 375 790 L 282 790 L 282 926 L 375 926 L 375 790 Z" unicode="Ċ" />
<glyph horiz-adv-x="437" d="M 27 0 L 27 0 Z M 359 144 L 419 85 C 404 62 383 41 356 22 C 329 2 294 -7 250 -7 C 216 -7 185 0 157 13 C 129 27 105 46 86 70 C 67 94 52 124 42 158 C 32 192 27 230 27 271 C 27 309 32 345 42 379 C 52 413 66 443 85 469 C 104 494 127 514 155 529 C 183 543 214 551 249 551 C 295 551 333 539 362 517 C 390 495 410 471 421 445 L 344 396 C 335 413 323 428 308 441 C 292 454 272 461 248 461 C 212 461 183 444 163 410 C 143 376 133 331 133 275 C 133 210 144 161 168 129 C 192 97 222 81 259 81 C 286 81 307 88 323 102 C 338 116 350 130 359 144 Z M 247 604 L 247 604 Z M 294 604 L 201 604 L 201 740 L 294 740 L 294 604 Z" unicode="ċ" />
<glyph horiz-adv-x="604" d="M 37 0 L 37 0 Z M 324 -9 C 282 -9 244 0 209 15 C 174 31 144 55 118 87 C 92 118 72 157 58 204 C 44 251 37 305 37 366 C 37 423 43 475 57 521 C 70 567 89 607 113 639 C 137 671 168 695 204 713 C 240 730 280 739 325 739 C 387 739 437 724 475 696 C 513 668 541 631 561 585 L 467 540 C 453 568 435 592 414 612 C 392 632 363 642 325 642 C 269 642 225 620 193 576 C 161 532 146 461 146 365 C 146 314 151 271 162 236 C 172 200 186 172 204 150 C 221 128 241 112 263 102 C 285 92 308 87 332 87 C 372 87 405 97 429 119 C 453 140 472 168 486 202 L 574 155 C 553 105 522 66 480 36 C 438 6 386 -9 324 -9 Z M 328 788 L 328 788 Z M 177 960 L 266 960 L 329 859 L 393 960 L 480 960 L 374 788 L 283 788 L 177 960 Z" unicode="Č" />
<glyph horiz-adv-x="437" d="M 27 0 L 27 0 Z M 359 144 L 419 85 C 404 62 383 41 356 22 C 329 2 294 -7 250 -7 C 216 -7 185 0 157 13 C 129 27 105 46 86 70 C 67 94 52 124 42 158 C 32 192 27 230 27 271 C 27 309 32 345 42 379 C 52 413 66 443 85 469 C 104 494 127 514 155 529 C 183 543 214 551 249 551 C 295 551 333 539 362 517 C 390 495 410 471 421 445 L 344 396 C 335 413 323 428 308 441 C 292 454 272 461 248 461 C 212 461 183 444 163 410 C 143 376 133 331 133 275 C 133 210 144 161 168 129 C 192 97 222 81 259 81 C 286 81 307 88 323 102 C 338 116 350 130 359 144 Z M 247 602 L 247 602 Z M 96 774 L 185 774 L 248 673 L 312 774 L 399 774 L 293 602 L 202 602 L 96 774 Z" unicode="č" />
<glyph horiz-adv-x="611" d="M 68 0 L 68 0 Z M 68 0 L 68 730 L 256 730 C 306 730 352 721 392 704 C 432 686 465 662 492 631 C 518 599 539 561 553 516 C 567 471 574 422 574 368 C 574 316 567 268 553 223 C 539 178 519 139 492 106 C 464 73 430 47 389 28 C 347 9 299 0 245 0 L 68 0 Z M 178 91 L 247 91 C 285 91 317 97 345 111 C 372 124 394 143 411 167 C 428 191 441 220 449 254 C 457 288 462 325 462 367 C 462 456 443 524 407 570 C 371 616 320 639 256 639 L 178 639 L 178 91 Z M 291 788 L 291 788 Z M 140 960 L 229 960 L 292 859 L 356 960 L 443 960 L 337 788 L 246 788 L 140 960 Z" unicode="Ď" />
<glyph horiz-adv-x="505" d="M 28 0 L 28 0 Z M 217 -7 C 189 -7 163 0 140 13 C 116 26 96 45 80 69 C 63 93 50 123 41 157 C 32 191 28 228 28 269 C 28 311 32 349 42 384 C 52 418 65 448 82 472 C 99 496 119 515 143 529 C 166 543 191 550 219 550 C 251 550 280 539 305 518 C 329 496 346 471 355 443 L 355 800 L 451 800 L 451 0 L 361 0 L 361 88 C 357 77 351 66 343 55 C 335 44 325 34 313 25 C 301 15 286 8 270 2 C 254 -4 236 -7 217 -7 Z M 245 78 C 279 78 306 94 326 128 C 346 161 356 210 356 276 C 356 342 345 390 323 418 C 301 446 275 460 245 460 C 211 460 183 444 163 413 C 143 382 133 335 133 272 C 133 208 142 159 162 127 C 182 94 209 78 245 78 Z M 585 614 L 580 469 L 494 469 L 490 614 L 490 730 L 585 730 L 585 614 Z" unicode="ď" />
<glyph horiz-adv-x="611" d="M 22 0 L 22 0 Z M 574 364 C 574 313 567 265 553 221 C 539 177 519 138 492 106 C 464 73 430 47 389 28 C 347 9 299 0 245 0 L 68 0 L 68 316 L 22 316 L 22 400 L 68 400 L 68 730 L 256 730 C 306 730 352 721 392 704 C 432 686 465 662 492 630 C 518 598 539 560 553 515 C 567 469 574 419 574 364 Z M 176 85 L 245 85 C 284 85 317 91 345 105 C 373 119 395 138 413 163 C 430 187 443 217 451 251 C 459 285 463 322 463 362 C 463 456 444 526 408 574 C 371 621 321 645 257 645 L 176 645 L 176 400 L 311 400 L 311 316 L 176 316 L 176 85 Z" unicode="Đ" />
<glyph horiz-adv-x="505" d="M 361 88 C 357 77 351 66 343 55 C 335 44 325 34 313 25 C 301 15 286 8 270 2 C 254 -4 236 -7 217 -7 C 189 -7 163 0 140 13 C 116 26 96 45 80 69 C 63 93 50 123 41 157 C 32 191 28 228 28 269 C 28 311 32 349 42 384 C 52 418 65 448 82 472 C 99 496 119 515 143 529 C 166 543 191 550 219 550 C 251 550 280 539 305 518 C 329 496 346 471 355 443 L 355 618 L 245 618 L 245 706 L 355 706 L 355 800 L 451 800 L 451 706 L 502 706 L 502 618 L 451 618 L 451 0 L 361 0 L 361 88 Z M 245 78 C 279 78 306 94 326 128 C 346 161 356 210 356 276 C 356 342 345 390 323 418 C 301 446 275 460 245 460 C 211 460 183 444 163 413 C 143 382 133 335 133 272 C 133 208 142 159 162 127 C 182 94 209 78 245 78 Z" unicode="đ" />
<glyph horiz-adv-x="462" d="M 68 0 L 68 0 Z M 436 0 L 68 0 L 68 730 L 418 730 L 418 634 L 176 634 L 176 412 L 406 412 L 406 319 L 176 319 L 176 96 L 436 96 L 436 0 Z M 246 799 L 246 799 Z M 373 799 L 119 799 L 119 885 L 373 885 L 373 799 Z" unicode="Ē" />
<glyph horiz-adv-x="473" d="M 27 0 L 27 0 Z M 244 -7 C 180 -7 127 17 87 67 C 47 117 27 184 27 269 C 27 311 32 349 43 384 C 53 419 68 449 87 473 C 106 497 129 516 155 530 C 181 544 209 551 240 551 C 307 551 358 523 394 468 C 430 413 448 338 449 243 L 129 243 C 129 199 140 161 162 130 C 183 98 214 83 254 83 C 284 83 309 90 329 104 C 349 118 365 133 377 148 L 429 87 C 412 64 388 43 358 23 C 328 3 290 -7 244 -7 Z M 126 316 L 347 316 C 346 362 336 399 317 425 C 297 451 272 465 241 465 C 208 465 181 451 161 425 C 140 398 128 362 126 316 Z M 240 613 L 240 613 Z M 367 613 L 113 613 L 113 699 L 367 699 L 367 613 Z" unicode="ē" />
<glyph horiz-adv-x="462" d="M 68 0 L 68 0 Z M 436 0 L 68 0 L 68 730 L 418 730 L 418 634 L 176 634 L 176 412 L 406 412 L 406 319 L 176 319 L 176 96 L 436 96 L 436 0 Z M 246 791 L 246 791 Z M 307 950 L 391 950 C 387 894 371 854 345 829 C 319 803 286 791 246 791 C 206 791 172 803 146 829 C 120 854 105 894 102 950 L 186 950 C 187 925 192 905 201 890 C 210 875 225 868 246 868 C 266 868 281 875 291 890 C 300 904 305 924 307 950 Z" unicode="Ĕ" />
<glyph horiz-adv-x="473" d="M 27 0 L 27 0 Z M 244 -7 C 180 -7 127 17 87 67 C 47 117 27 184 27 269 C 27 311 32 349 43 384 C 53 419 68 449 87 473 C 106 497 129 516 155 530 C 181 544 209 551 240 551 C 307 551 358 523 394 468 C 430 413 448 338 449 243 L 129 243 C 129 199 140 161 162 130 C 183 98 214 83 254 83 C 284 83 309 90 329 104 C 349 118 365 133 377 148 L 429 87 C 412 64 388 43 358 23 C 328 3 290 -7 244 -7 Z M 126 316 L 347 316 C 346 362 336 399 317 425 C 297 451 272 465 241 465 C 208 465 181 451 161 425 C 140 398 128 362 126 316 Z M 240 605 L 240 605 Z M 301 764 L 385 764 C 381 708 365 668 339 643 C 313 617 280 605 240 605 C 200 605 166 617 140 643 C 114 668 99 708 96 764 L 180 764 C 181 739 186 719 195 704 C 204 689 219 682 240 682 C 260 682 275 689 285 704 C 294 718 299 738 301 764 Z" unicode="ĕ" />
<glyph horiz-adv-x="462" d="M 68 0 L 68 0 Z M 436 0 L 68 0 L 68 730 L 418 730 L 418 634 L 176 634 L 176 412 L 406 412 L 406 319 L 176 319 L 176 96 L 436 96 L 436 0 Z M 246 790 L 246 790 Z M 293 790 L 200 790 L 200 926 L 293 926 L 293 790 Z" unicode="Ė" />
<glyph horiz-adv-x="473" d="M 27 0 L 27 0 Z M 244 -7 C 180 -7 127 17 87 67 C 47 117 27 184 27 269 C 27 311 32 349 43 384 C 53 419 68 449 87 473 C 106 497 129 516 155 530 C 181 544 209 551 240 551 C 307 551 358 523 394 468 C 430 413 448 338 449 243 L 129 243 C 129 199 140 161 162 130 C 183 98 214 83 254 83 C 284 83 309 90 329 104 C 349 118 365 133 377 148 L 429 87 C 412 64 388 43 358 23 C 328 3 290 -7 244 -7 Z M 126 316 L 347 316 C 346 362 336 399 317 425 C 297 451 272 465 241 465 C 208 465 181 451 161 425 C 140 398 128 362 126 316 Z M 240 604 L 240 604 Z M 287 604 L 194 604 L 194 740 L 287 740 L 287 604 Z" unicode="ė" />
<glyph horiz-adv-x="462" d="M 68 0 L 68 0 Z M 436 0 L 68 0 L 68 730 L 418 730 L 418 634 L 176 634 L 176 412 L 406 412 L 406 319 L 176 319 L 176 96 L 436 96 L 436 0 Z M 393 -8 L 393 -8 Z M 490 -91 L 519 -134 C 498 -155 476 -171 452 -182 C 428 -193 402 -199 373 -199 C 339 -199 313 -191 295 -177 C 277 -162 268 -143 268 -121 C 268 -96 278 -73 298 -52 C 318 -30 348 -12 387 3 L 436 3 C 409 -10 389 -24 375 -38 C 361 -52 355 -66 355 -80 C 355 -92 359 -103 369 -111 C 378 -119 390 -123 406 -123 C 423 -123 439 -120 453 -114 C 467 -108 480 -100 490 -91 Z" unicode="Ę" />
<glyph horiz-adv-x="473" d="M 27 0 L 27 0 Z M 244 -7 C 180 -7 127 17 87 67 C 47 117 27 184 27 269 C 27 311 32 349 43 384 C 53 419 68 449 87 473 C 106 497 129 516 155 530 C 181 544 209 551 240 551 C 307 551 358 523 394 468 C 430 413 448 338 449 243 L 129 243 C 129 199 140 161 162 130 C 183 98 214 83 254 83 C 284 83 309 90 329 104 C 349 118 365 133 377 148 L 429 87 C 412 64 388 43 358 23 C 328 3 290 -7 244 -7 Z M 126 316 L 347 316 C 346 362 336 399 317 425 C 297 451 272 465 241 465 C 208 465 181 451 161 425 C 140 398 128 362 126 316 Z M 270 -8 L 270 -8 Z M 367 -91 L 396 -134 C 375 -155 353 -171 329 -182 C 305 -193 279 -199 250 -199 C 216 -199 190 -191 172 -177 C 154 -162 145 -143 145 -121 C 145 -96 155 -73 175 -52 C 195 -30 225 -12 264 3 L 313 3 C 286 -10 266 -24 252 -38 C 238 -52 232 -66 232 -80 C 232 -92 236 -103 246 -111 C 255 -119 267 -123 283 -123 C 300 -123 316 -120 330 -114 C 344 -108 357 -100 367 -91 Z" unicode="ę" />
<glyph horiz-adv-x="462" d="M 68 0 L 68 0 Z M 436 0 L 68 0 L 68 730 L 418 730 L 418 634 L 176 634 L 176 412 L 406 412 L 406 319 L 176 319 L 176 96 L 436 96 L 436 0 Z M 246 788 L 246 788 Z M 95 960 L 184 960 L 247 859 L 311 960 L 398 960 L 292 788 L 201 788 L 95 960 Z" unicode="Ě" />
<glyph horiz-adv-x="473" d="M 27 0 L 27 0 Z M 244 -7 C 180 -7 127 17 87 67 C 47 117 27 184 27 269 C 27 311 32 349 43 384 C 53 419 68 449 87 473 C 106 497 129 516 155 530 C 181 544 209 551 240 551 C 307 551 358 523 394 468 C 430 413 448 338 449 243 L 129 243 C 129 199 140 161 162 130 C 183 98 214 83 254 83 C 284 83 309 90 329 104 C 349 118 365 133 377 148 L 429 87 C 412 64 388 43 358 23 C 328 3 290 -7 244 -7 Z M 126 316 L 347 316 C 346 362 336 399 317 425 C 297 451 272 465 241 465 C 208 465 181 451 161 425 C 140 398 128 362 126 316 Z M 240 602 L 240 602 Z M 89 774 L 178 774 L 241 673 L 305 774 L 392 774 L 286 602 L 195 602 L 89 774 Z" unicode="ě" />
<glyph horiz-adv-x="624" d="M 37 0 L 37 0 Z M 325 368 L 584 368 L 584 129 C 562 88 529 55 485 29 C 441 3 388 -9 328 -9 C 288 -9 250 0 214 16 C 178 33 148 58 122 90 C 96 122 75 161 60 207 C 44 253 37 306 37 365 C 37 421 44 473 58 519 C 72 565 92 605 118 637 C 144 669 175 694 211 712 C 247 729 286 738 329 738 C 392 738 441 725 477 700 C 513 675 540 646 558 613 L 475 548 C 461 572 443 594 421 612 C 399 630 369 640 332 640 C 278 640 233 617 198 572 C 163 527 146 457 146 363 C 146 315 150 274 160 238 C 170 202 183 173 200 150 C 216 127 236 110 258 98 C 280 86 304 81 330 81 C 366 81 397 87 425 100 C 452 112 472 132 485 159 L 485 276 L 325 276 L 325 368 Z M 332 788 L 332 788 Z M 484 788 L 395 788 L 332 889 L 268 788 L 181 788 L 287 960 L 378 960 L 484 788 Z" unicode="Ĝ" />
<glyph horiz-adv-x="502" d="M 29 0 L 29 0 Z M 215 11 C 161 11 116 35 81 83 C 46 131 29 196 29 278 C 29 362 46 429 82 478 C 118 526 163 551 217 551 C 253 551 283 541 308 521 C 332 501 349 478 359 452 L 359 544 L 450 544 L 450 32 C 450 -8 443 -42 429 -71 C 415 -100 398 -124 376 -143 C 354 -162 330 -176 302 -185 C 274 -194 247 -199 219 -199 C 175 -199 140 -195 114 -187 C 88 -179 68 -170 56 -162 L 93 -80 C 105 -86 121 -93 141 -99 C 161 -105 184 -108 212 -108 C 252 -108 285 -95 313 -70 C 340 -44 354 -8 354 40 L 354 119 C 345 93 329 68 305 45 C 281 22 251 11 215 11 Z M 246 97 C 276 97 302 111 324 140 C 345 168 356 216 356 283 C 356 344 345 389 323 417 C 301 445 275 459 245 459 C 211 459 184 443 164 413 C 144 382 134 337 134 277 C 134 217 143 172 162 142 C 181 112 209 97 246 97 Z M 242 602 L 242 602 Z M 394 602 L 305 602 L 242 703 L 178 602 L 91 602 L 197 774 L 288 774 L 394 602 Z" unicode="ĝ" />
<glyph horiz-adv-x="624" d="M 37 0 L 37 0 Z M 325 368 L 584 368 L 584 129 C 562 88 529 55 485 29 C 441 3 388 -9 328 -9 C 288 -9 250 0 214 16 C 178 33 148 58 122 90 C 96 122 75 161 60 207 C 44 253 37 306 37 365 C 37 421 44 473 58 519 C 72 565 92 605 118 637 C 144 669 175 694 211 712 C 247 729 286 738 329 738 C 392 738 441 725 477 700 C 513 675 540 646 558 613 L 475 548 C 461 572 443 594 421 612 C 399 630 369 640 332 640 C 278 640 233 617 198 572 C 163 527 146 457 146 363 C 146 315 150 274 160 238 C 170 202 183 173 200 150 C 216 127 236 110 258 98 C 280 86 304 81 330 81 C 366 81 397 87 425 100 C 452 112 472 132 485 159 L 485 276 L 325 276 L 325 368 Z M 332 791 L 332 791 Z M 393 950 L 477 950 C 473 894 457 854 431 829 C 405 803 372 791 332 791 C 292 791 258 803 232 829 C 206 854 191 894 188 950 L 272 950 C 273 925 278 905 287 890 C 296 875 311 868 332 868 C 352 868 367 875 377 890 C 386 904 391 924 393 950 Z" unicode="Ğ" />
<glyph horiz-adv-x="502" d="M 29 0 L 29 0 Z M 215 11 C 161 11 116 35 81 83 C 46 131 29 196 29 278 C 29 362 46 429 82 478 C 118 526 163 551 217 551 C 253 551 283 541 308 521 C 332 501 349 478 359 452 L 359 544 L 450 544 L 450 32 C 450 -8 443 -42 429 -71 C 415 -100 398 -124 376 -143 C 354 -162 330 -176 302 -185 C 274 -194 247 -199 219 -199 C 175 -199 140 -195 114 -187 C 88 -179 68 -170 56 -162 L 93 -80 C 105 -86 121 -93 141 -99 C 161 -105 184 -108 212 -108 C 252 -108 285 -95 313 -70 C 340 -44 354 -8 354 40 L 354 119 C 345 93 329 68 305 45 C 281 22 251 11 215 11 Z M 246 97 C 276 97 302 111 324 140 C 345 168 356 216 356 283 C 356 344 345 389 323 417 C 301 445 275 459 245 459 C 211 459 184 443 164 413 C 144 382 134 337 134 277 C 134 217 143 172 162 142 C 181 112 209 97 246 97 Z M 242 605 L 242 605 Z M 303 764 L 387 764 C 383 708 367 668 341 643 C 315 617 282 605 242 605 C 202 605 168 617 142 643 C 116 668 101 708 98 764 L 182 764 C 183 739 188 719 197 704 C 206 689 221 682 242 682 C 262 682 277 689 287 704 C 296 718 301 738 303 764 Z" unicode="ğ" />
<glyph horiz-adv-x="624" d="M 37 0 L 37 0 Z M 325 368 L 584 368 L 584 129 C 562 88 529 55 485 29 C 441 3 388 -9 328 -9 C 288 -9 250 0 214 16 C 178 33 148 58 122 90 C 96 122 75 161 60 207 C 44 253 37 306 37 365 C 37 421 44 473 58 519 C 72 565 92 605 118 637 C 144 669 175 694 211 712 C 247 729 286 738 329 738 C 392 738 441 725 477 700 C 513 675 540 646 558 613 L 475 548 C 461 572 443 594 421 612 C 399 630 369 640 332 640 C 278 640 233 617 198 572 C 163 527 146 457 146 363 C 146 315 150 274 160 238 C 170 202 183 173 200 150 C 216 127 236 110 258 98 C 280 86 304 81 330 81 C 366 81 397 87 425 100 C 452 112 472 132 485 159 L 485 276 L 325 276 L 325 368 Z M 332 790 L 332 790 Z M 379 790 L 286 790 L 286 926 L 379 926 L 379 790 Z" unicode="Ġ" />
<glyph horiz-adv-x="502" d="M 29 0 L 29 0 Z M 215 11 C 161 11 116 35 81 83 C 46 131 29 196 29 278 C 29 362 46 429 82 478 C 118 526 163 551 217 551 C 253 551 283 541 308 521 C 332 501 349 478 359 452 L 359 544 L 450 544 L 450 32 C 450 -8 443 -42 429 -71 C 415 -100 398 -124 376 -143 C 354 -162 330 -176 302 -185 C 274 -194 247 -199 219 -199 C 175 -199 140 -195 114 -187 C 88 -179 68 -170 56 -162 L 93 -80 C 105 -86 121 -93 141 -99 C 161 -105 184 -108 212 -108 C 252 -108 285 -95 313 -70 C 340 -44 354 -8 354 40 L 354 119 C 345 93 329 68 305 45 C 281 22 251 11 215 11 Z M 246 97 C 276 97 302 111 324 140 C 345 168 356 216 356 283 C 356 344 345 389 323 417 C 301 445 275 459 245 459 C 211 459 184 443 164 413 C 144 382 134 337 134 277 C 134 217 143 172 162 142 C 181 112 209 97 246 97 Z M 242 604 L 242 604 Z M 289 604 L 196 604 L 196 740 L 289 740 L 289 604 Z" unicode="ġ" />
<glyph horiz-adv-x="624" d="M 37 0 L 37 0 Z M 325 368 L 584 368 L 584 129 C 562 88 529 55 485 29 C 441 3 388 -9 328 -9 C 288 -9 250 0 214 16 C 178 33 148 58 122 90 C 96 122 75 161 60 207 C 44 253 37 306 37 365 C 37 421 44 473 58 519 C 72 565 92 605 118 637 C 144 669 175 694 211 712 C 247 729 286 738 329 738 C 392 738 441 725 477 700 C 513 675 540 646 558 613 L 475 548 C 461 572 443 594 421 612 C 399 630 369 640 332 640 C 278 640 233 617 198 572 C 163 527 146 457 146 363 C 146 315 150 274 160 238 C 170 202 183 173 200 150 C 216 127 236 110 258 98 C 280 86 304 81 330 81 C 366 81 397 87 425 100 C 452 112 472 132 485 159 L 485 276 L 325 276 L 325 368 Z" unicode="Ģ" />
<glyph horiz-adv-x="502" d="M 29 0 L 29 0 Z M 215 11 C 161 11 116 35 81 83 C 46 131 29 196 29 278 C 29 362 46 429 82 478 C 118 526 163 551 217 551 C 253 551 283 541 308 521 C 332 501 349 478 359 452 L 359 544 L 450 544 L 450 32 C 450 -8 443 -42 429 -71 C 415 -100 398 -124 376 -143 C 354 -162 330 -176 302 -185 C 274 -194 247 -199 219 -199 C 175 -199 140 -195 114 -187 C 88 -179 68 -170 56 -162 L 93 -80 C 105 -86 121 -93 141 -99 C 161 -105 184 -108 212 -108 C 252 -108 285 -95 313 -70 C 340 -44 354 -8 354 40 L 354 119 C 345 93 329 68 305 45 C 281 22 251 11 215 11 Z M 246 97 C 276 97 302 111 324 140 C 345 168 356 216 356 283 C 356 344 345 389 323 417 C 301 445 275 459 245 459 C 211 459 184 443 164 413 C 144 382 134 337 134 277 C 134 217 143 172 162 142 C 181 112 209 97 246 97 Z" unicode="ģ" />
<glyph horiz-adv-x="612" d="M 68 0 L 68 0 Z M 543 0 L 433 0 L 433 315 L 178 315 L 178 0 L 68 0 L 68 730 L 178 730 L 178 407 L 433 407 L 433 730 L 543 730 L 543 0 Z M 303 788 L 303 788 Z M 455 788 L 366 788 L 303 889 L 239 788 L 152 788 L 258 960 L 349 960 L 455 788 Z" unicode="Ĥ" />
<glyph horiz-adv-x="485" d="M 54 0 L 54 0 Z M 434 0 L 333 0 L 333 389 C 333 413 325 431 310 444 C 295 457 276 464 253 464 C 228 464 205 456 185 441 C 165 426 155 401 155 367 L 155 0 L 54 0 L 54 800 L 148 800 L 148 468 C 155 492 171 511 195 527 C 219 543 250 551 288 551 C 329 551 364 540 392 518 C 420 496 434 462 434 416 L 434 0 Z M 263 858 L 263 858 Z M 415 858 L 326 858 L 263 959 L 199 858 L 112 858 L 218 1030 L 309 1030 L 415 858 Z" unicode="ĥ" />
<glyph horiz-adv-x="612" d="M 178 315 L 178 0 L 68 0 L 68 538 L 4 538 L 4 626 L 68 626 L 68 730 L 178 730 L 178 626 L 433 626 L 433 730 L 543 730 L 543 626 L 609 626 L 609 538 L 543 538 L 543 0 L 433 0 L 433 315 L 178 315 Z M 178 407 L 433 407 L 433 538 L 178 538 L 178 407 Z" unicode="Ħ" />
<glyph horiz-adv-x="485" d="M 155 367 L 155 0 L 54 0 L 54 618 L 9 618 L 9 706 L 54 706 L 54 800 L 148 800 L 148 706 L 266 706 L 266 618 L 148 618 L 148 468 C 155 492 171 511 195 527 C 219 543 250 551 288 551 C 329 551 364 540 392 518 C 420 496 434 462 434 416 L 434 0 L 333 0 L 333 389 C 333 413 325 431 310 444 C 295 457 276 464 253 464 C 228 464 205 456 185 441 C 165 426 155 401 155 367 Z" unicode="ħ" />
<glyph horiz-adv-x="255" d="M 0 0 L 0 0 Z M 183 0 L 72 0 L 72 730 L 183 730 L 183 0 Z M 127 793 L 127 793 Z M 213 934 L 291 934 C 291 886 284 850 270 827 C 256 804 237 793 214 793 C 195 793 179 796 165 803 C 151 810 139 817 129 824 C 119 830 109 837 100 843 C 91 849 82 853 74 853 C 65 853 57 847 51 837 C 45 827 41 813 41 797 L -36 797 C -36 844 -26 879 -7 903 C 12 926 32 938 53 938 C 69 938 84 934 96 928 C 108 921 119 913 131 905 C 139 898 148 892 156 887 C 164 882 172 880 181 880 C 189 880 197 884 203 894 C 209 903 213 916 213 934 Z" unicode="Ĩ" />
<glyph horiz-adv-x="214" d="M 0 0 L 0 0 Z M 158 0 L 56 0 L 56 544 L 158 544 L 158 0 Z M 106 607 L 106 607 Z M 192 748 L 270 748 C 270 700 263 664 249 641 C 235 618 216 607 193 607 C 174 607 158 610 144 617 C 130 624 118 631 108 638 C 98 644 88 651 79 657 C 70 663 61 667 53 667 C 44 667 36 661 30 651 C 24 641 20 627 20 611 L -57 611 C -57 658 -47 693 -28 717 C -8 740 11 752 32 752 C 48 752 63 748 75 742 C 87 735 98 727 110 719 C 118 712 127 706 135 701 C 143 696 151 694 160 694 C 168 694 176 698 182 708 C 188 717 192 730 192 748 Z" unicode="ĩ" />
<glyph horiz-adv-x="255" d="M 0 0 L 0 0 Z M 183 0 L 72 0 L 72 730 L 183 730 L 183 0 Z M 127 799 L 127 799 Z M 254 799 L 0 799 L 0 885 L 254 885 L 254 799 Z" unicode="Ī" />
<glyph horiz-adv-x="214" d="M 0 0 L 0 0 Z M 158 0 L 56 0 L 56 544 L 158 544 L 158 0 Z M 106 613 L 106 613 Z M 233 613 L -21 613 L -21 699 L 233 699 L 233 613 Z" unicode="ī" />
<glyph horiz-adv-x="255" d="M 0 0 L 0 0 Z M 183 0 L 72 0 L 72 730 L 183 730 L 183 0 Z M 127 791 L 127 791 Z M 188 950 L 272 950 C 268 894 252 854 226 829 C 200 803 167 791 127 791 C 87 791 53 803 27 829 C 1 854 -13 894 -17 950 L 67 950 C 68 925 73 905 82 890 C 91 875 106 868 127 868 C 147 868 162 875 172 890 C 181 904 186 924 188 950 Z" unicode="Ĭ" />
<glyph horiz-adv-x="214" d="M 0 0 L 0 0 Z M 158 0 L 56 0 L 56 544 L 158 544 L 158 0 Z M 106 605 L 106 605 Z M 167 764 L 251 764 C 247 708 231 668 205 643 C 179 617 146 605 106 605 C 66 605 32 617 6 643 C -19 668 -34 708 -38 764 L 46 764 C 47 739 52 719 61 704 C 70 689 85 682 106 682 C 126 682 141 689 151 704 C 160 718 165 738 167 764 Z" unicode="ĭ" />
<glyph horiz-adv-x="255" d="M 0 0 L 0 0 Z M 183 0 L 72 0 L 72 730 L 183 730 L 183 0 Z M 88 -8 L 88 -8 Z M 185 -91 L 214 -134 C 193 -155 171 -171 147 -182 C 123 -193 97 -199 68 -199 C 34 -199 8 -191 -9 -177 C -27 -162 -37 -143 -37 -121 C -37 -96 -26 -73 -6 -52 C 13 -30 43 -12 82 3 L 131 3 C 104 -10 84 -24 70 -38 C 56 -52 50 -66 50 -80 C 50 -92 54 -103 64 -111 C 73 -119 85 -123 101 -123 C 118 -123 134 -120 148 -114 C 162 -108 175 -100 185 -91 Z" unicode="Į" />
<glyph horiz-adv-x="214" d="M 0 0 L 0 0 Z M 54 633 L 54 733 L 160 733 L 160 633 L 54 633 Z M 56 0 L 56 544 L 158 544 L 158 0 L 56 0 Z M 62 -8 L 62 -8 Z M 159 -91 L 188 -134 C 167 -155 145 -171 121 -182 C 97 -193 71 -199 42 -199 C 8 -199 -17 -191 -35 -177 C -53 -162 -63 -143 -63 -121 C -63 -96 -52 -73 -32 -52 C -12 -30 17 -12 56 3 L 105 3 C 78 -10 58 -24 44 -38 C 30 -52 24 -66 24 -80 C 24 -92 28 -103 38 -111 C 47 -119 59 -123 75 -123 C 92 -123 108 -120 122 -114 C 136 -108 149 -100 159 -91 Z" unicode="į" />
<glyph horiz-adv-x="255" d="M 72 0 L 72 0 Z M 183 0 L 72 0 L 72 730 L 183 730 L 183 0 Z M 127 790 L 127 790 Z M 174 790 L 81 790 L 81 926 L 174 926 L 174 790 Z" unicode="İ" />
<glyph horiz-adv-x="214" d="M 158 0 L 56 0 L 56 544 L 158 544 L 158 0 Z" unicode="ı" />
<glyph horiz-adv-x="547" d="M 72 0 L 72 0 Z M 183 0 L 72 0 L 72 730 L 183 730 L 183 0 Z M 491 730 L 491 187 C 491 131 474 84 441 47 C 408 9 362 -9 302 -9 C 287 -9 270 -7 252 -4 C 233 -1 219 3 210 10 L 238 98 C 242 95 249 93 259 91 C 269 89 279 89 289 89 C 318 89 341 100 357 122 C 373 144 381 170 381 202 L 381 730 L 491 730 Z" unicode="Ĳ" />
<glyph horiz-adv-x="415" d="M 54 0 L 54 0 Z M 54 633 L 54 733 L 160 733 L 160 633 L 54 633 Z M 56 0 L 56 544 L 158 544 L 158 0 L 56 0 Z M 364 633 L 259 633 L 259 733 L 364 733 L 364 633 Z M 362 544 L 362 -40 C 362 -82 349 -115 324 -140 C 299 -165 268 -178 230 -178 C 208 -178 187 -174 169 -168 C 150 -161 136 -154 128 -147 L 161 -78 C 167 -81 174 -84 184 -87 C 193 -89 204 -91 216 -91 C 228 -91 239 -85 248 -74 C 256 -62 261 -48 261 -31 L 261 544 L 362 544 Z" unicode="ĳ" />
<glyph horiz-adv-x="339" d="M 0 0 L 0 0 Z M 273 730 L 273 187 C 273 131 256 84 223 47 C 190 9 144 -9 84 -9 C 69 -9 52 -7 34 -4 C 15 -1 1 3 -8 10 L 20 98 C 24 95 31 93 41 91 C 51 89 61 89 71 89 C 100 89 123 100 139 122 C 155 144 163 170 163 202 L 163 730 L 273 730 Z M 217 788 L 217 788 Z M 369 788 L 280 788 L 217 889 L 153 788 L 66 788 L 172 960 L 263 960 L 369 788 Z" unicode="Ĵ" />
<glyph horiz-adv-x="232" d="M 0 0 L 0 0 Z M 179 544 L 179 -40 C 179 -82 166 -116 140 -142 C 114 -167 83 -180 45 -180 C 23 -180 2 -176 -16 -170 C -34 -163 -48 -156 -56 -150 L -24 -80 C -18 -83 -10 -86 -1 -89 C 8 -91 19 -93 31 -93 C 44 -93 55 -87 64 -75 C 73 -63 78 -49 78 -31 L 78 544 L 179 544 Z M 127 602 L 127 602 Z M 279 602 L 190 602 L 127 703 L 63 602 L -24 602 L 82 774 L 173 774 L 279 602 Z" unicode="ĵ" />
<glyph horiz-adv-x="561" d="M 68 0 L 68 0 Z M 563 0 L 437 0 L 232 313 L 179 247 L 179 0 L 68 0 L 68 730 L 179 730 L 179 389 L 421 730 L 536 730 L 301 404 L 563 0 Z M 282 -72 L 282 -72 Z M 374 -72 C 373 -97 369 -123 362 -149 C 355 -175 347 -199 337 -223 C 327 -247 316 -268 304 -287 C 292 -306 280 -321 269 -333 L 192 -299 C 199 -289 207 -276 215 -260 C 223 -244 231 -225 239 -205 C 246 -185 252 -163 258 -140 C 263 -117 266 -94 268 -72 L 374 -72 Z" unicode="Ķ" />
<glyph horiz-adv-x="448" d="M 54 0 L 54 0 Z M 462 1 L 352 0 L 216 227 L 155 148 L 155 0 L 54 0 L 54 800 L 152 800 L 152 267 L 333 544 L 440 544 L 282 308 L 462 1 Z M 226 -72 L 226 -72 Z M 318 -72 C 317 -97 313 -123 306 -149 C 299 -175 291 -199 281 -223 C 271 -247 260 -268 248 -287 C 236 -306 224 -321 213 -333 L 136 -299 C 143 -289 151 -276 159 -260 C 167 -244 175 -225 183 -205 C 190 -185 196 -163 202 -140 C 207 -117 210 -94 212 -72 L 318 -72 Z" unicode="ķ" />
<glyph horiz-adv-x="448" d="M 462 1 L 352 0 L 216 227 L 155 148 L 155 0 L 54 0 L 54 544 L 152 544 L 152 267 L 333 544 L 440 544 L 282 308 L 462 1 Z" unicode="ĸ" />
<glyph horiz-adv-x="420" d="M 68 0 L 68 0 Z M 412 0 L 68 0 L 68 730 L 178 730 L 178 96 L 412 96 L 412 0 Z M 288 790 L 288 790 Z M 183 790 L 275 959 L 393 959 L 282 790 L 183 790 Z" unicode="Ĺ" />
<glyph horiz-adv-x="244" d="M 51 0 L 51 0 Z M 51 117 L 51 800 L 153 800 L 153 140 C 153 122 157 109 165 100 C 173 91 185 87 202 87 C 208 87 214 87 220 88 C 226 88 230 89 234 91 L 244 6 C 237 3 228 0 216 -1 C 204 -3 191 -5 177 -5 C 143 -5 113 5 88 26 C 63 46 51 77 51 117 Z M 164 860 L 164 860 Z M 59 860 L 151 1029 L 269 1029 L 158 860 L 59 860 Z" unicode="ĺ" />
<glyph horiz-adv-x="420" d="M 68 0 L 68 0 Z M 412 0 L 68 0 L 68 730 L 178 730 L 178 96 L 412 96 L 412 0 Z M 229 -72 L 229 -72 Z M 321 -72 C 320 -97 316 -123 309 -149 C 302 -175 294 -199 284 -223 C 274 -247 263 -268 251 -287 C 239 -306 227 -321 216 -333 L 139 -299 C 146 -289 154 -276 162 -260 C 170 -244 178 -225 186 -205 C 193 -185 199 -163 205 -140 C 210 -117 213 -94 215 -72 L 321 -72 Z" unicode="Ļ" />
<glyph horiz-adv-x="244" d="M 29 0 L 29 0 Z M 51 117 L 51 800 L 153 800 L 153 140 C 153 122 157 109 165 100 C 173 91 185 87 202 87 C 208 87 214 87 220 88 C 226 88 230 89 234 91 L 244 6 C 237 3 228 0 216 -1 C 204 -3 191 -5 177 -5 C 143 -5 113 5 88 26 C 63 46 51 77 51 117 Z M 119 -72 L 119 -72 Z M 211 -72 C 210 -97 206 -123 199 -149 C 192 -175 184 -199 174 -223 C 164 -247 153 -268 141 -287 C 129 -306 117 -321 106 -333 L 29 -299 C 36 -289 44 -276 52 -260 C 60 -244 68 -225 76 -205 C 83 -185 89 -163 95 -140 C 100 -117 103 -94 105 -72 L 211 -72 Z" unicode="ļ" />
<glyph horiz-adv-x="420" d="M 68 0 L 68 0 Z M 412 0 L 68 0 L 68 730 L 178 730 L 178 96 L 412 96 L 412 0 Z M 442 614 L 437 469 L 351 469 L 347 614 L 347 730 L 442 730 L 442 614 Z" unicode="Ľ" />
<glyph horiz-adv-x="244" d="M 51 0 L 51 0 Z M 51 117 L 51 800 L 153 800 L 153 140 C 153 122 157 109 165 100 C 173 91 185 87 202 87 C 208 87 214 87 220 88 C 226 88 230 89 234 91 L 244 6 C 237 3 228 0 216 -1 C 204 -3 191 -5 177 -5 C 143 -5 113 5 88 26 C 63 46 51 77 51 117 Z M 285 614 L 280 469 L 194 469 L 190 614 L 190 730 L 285 730 L 285 614 Z" unicode="ľ" />
<glyph horiz-adv-x="420" d="M 68 0 L 68 0 Z M 412 0 L 68 0 L 68 730 L 178 730 L 178 96 L 412 96 L 412 0 Z M 300 295 L 300 295 Z M 347 295 L 254 295 L 254 431 L 347 431 L 347 295 Z" unicode="Ŀ" />
<glyph horiz-adv-x="244" d="M 51 0 L 51 0 Z M 51 117 L 51 800 L 153 800 L 153 140 C 153 122 157 109 165 100 C 173 91 185 87 202 87 C 208 87 214 87 220 88 C 226 88 230 89 234 91 L 244 6 C 237 3 228 0 216 -1 C 204 -3 191 -5 177 -5 C 143 -5 113 5 88 26 C 63 46 51 77 51 117 Z M 238 243 L 238 243 Z M 285 243 L 192 243 L 192 379 L 285 379 L 285 243 Z" unicode="ŀ" />
<glyph horiz-adv-x="420" d="M 400 90 L 400 0 L 68 0 L 68 258 L 26 240 L -12 320 L 68 354 L 68 730 L 178 730 L 178 401 L 322 463 L 359 382 L 178 305 L 178 90 L 400 90 Z" unicode="Ł" />
<glyph horiz-adv-x="244" d="M 251 6 C 245 3 236 0 224 -1 C 212 -3 199 -5 186 -5 C 152 -5 123 5 99 26 C 75 46 63 77 63 117 L 63 259 L 20 238 L -11 312 L 63 348 L 63 800 L 163 800 L 163 396 L 228 427 L 260 354 L 163 307 L 163 142 C 163 123 167 109 175 100 C 183 91 194 87 210 87 C 214 87 220 87 226 88 C 232 88 236 89 240 90 L 251 6 Z" unicode="ł" />
<glyph horiz-adv-x="619" d="M 68 0 L 68 0 Z M 550 0 L 472 0 L 171 493 L 171 0 L 68 0 L 68 730 L 148 730 L 450 235 L 450 730 L 550 730 L 550 0 Z M 310 790 L 310 790 Z M 205 790 L 297 959 L 415 959 L 304 790 L 205 790 Z" unicode="Ń" />
<glyph horiz-adv-x="485" d="M 54 0 L 54 0 Z M 434 0 L 333 0 L 333 390 C 333 414 325 432 310 445 C 295 457 276 464 254 464 C 229 464 206 456 186 441 C 165 426 155 401 155 366 L 155 0 L 54 0 L 54 544 L 141 544 L 141 458 C 150 485 168 507 194 525 C 220 542 252 551 290 551 C 330 551 364 540 392 518 C 420 496 434 465 434 423 L 434 0 Z M 251 604 L 251 604 Z M 146 604 L 238 773 L 356 773 L 245 604 L 146 604 Z" unicode="ń" />
<glyph horiz-adv-x="619" d="M 68 0 L 68 0 Z M 550 0 L 472 0 L 171 493 L 171 0 L 68 0 L 68 730 L 148 730 L 450 235 L 450 730 L 550 730 L 550 0 Z M 290 -72 L 290 -72 Z M 382 -72 C 381 -97 377 -123 370 -149 C 363 -175 355 -199 345 -223 C 335 -247 324 -268 312 -287 C 300 -306 288 -321 277 -333 L 200 -299 C 207 -289 215 -276 223 -260 C 231 -244 239 -225 247 -205 C 254 -185 260 -163 266 -140 C 271 -117 274 -94 276 -72 L 382 -72 Z" unicode="Ņ" />
<glyph horiz-adv-x="485" d="M 54 0 L 54 0 Z M 434 0 L 333 0 L 333 390 C 333 414 325 432 310 445 C 295 457 276 464 254 464 C 229 464 206 456 186 441 C 165 426 155 401 155 366 L 155 0 L 54 0 L 54 544 L 141 544 L 141 458 C 150 485 168 507 194 525 C 220 542 252 551 290 551 C 330 551 364 540 392 518 C 420 496 434 465 434 423 L 434 0 Z M 224 -72 L 224 -72 Z M 316 -72 C 315 -97 311 -123 304 -149 C 297 -175 289 -199 279 -223 C 269 -247 258 -268 246 -287 C 234 -306 222 -321 211 -333 L 134 -299 C 141 -289 149 -276 157 -260 C 165 -244 173 -225 181 -205 C 188 -185 194 -163 200 -140 C 205 -117 208 -94 210 -72 L 316 -72 Z" unicode="ņ" />
<glyph horiz-adv-x="619" d="M 68 0 L 68 0 Z M 550 0 L 472 0 L 171 493 L 171 0 L 68 0 L 68 730 L 148 730 L 450 235 L 450 730 L 550 730 L 550 0 Z M 310 788 L 310 788 Z M 159 960 L 248 960 L 311 859 L 375 960 L 462 960 L 356 788 L 265 788 L 159 960 Z" unicode="Ň" />
<glyph horiz-adv-x="485" d="M 54 0 L 54 0 Z M 434 0 L 333 0 L 333 390 C 333 414 325 432 310 445 C 295 457 276 464 254 464 C 229 464 206 456 186 441 C 165 426 155 401 155 366 L 155 0 L 54 0 L 54 544 L 141 544 L 141 458 C 150 485 168 507 194 525 C 220 542 252 551 290 551 C 330 551 364 540 392 518 C 420 496 434 465 434 423 L 434 0 Z M 251 602 L 251 602 Z M 100 774 L 189 774 L 252 673 L 316 774 L 403 774 L 297 602 L 206 602 L 100 774 Z" unicode="ň" />
<glyph horiz-adv-x="619" d="M 450 730 L 550 730 L 550 -3 C 550 -61 534 -108 503 -144 C 471 -180 429 -198 377 -198 C 359 -198 340 -196 321 -192 C 301 -188 286 -182 275 -175 L 300 -88 C 306 -92 316 -95 328 -98 C 340 -100 352 -102 365 -102 C 389 -102 410 -90 426 -68 C 442 -46 450 -18 450 14 L 450 36 L 171 493 L 171 0 L 68 0 L 68 730 L 148 730 L 450 235 L 450 730 Z" unicode="Ŋ" />
<glyph horiz-adv-x="485" d="M 290 551 C 330 551 364 540 392 518 C 420 496 434 465 434 423 L 434 -6 C 434 -64 419 -111 390 -146 C 360 -180 320 -198 269 -198 C 251 -198 233 -196 214 -192 C 194 -188 179 -182 169 -175 L 194 -88 C 200 -92 209 -95 221 -98 C 233 -100 245 -102 258 -102 C 280 -102 298 -91 312 -69 C 326 -47 333 -21 333 10 L 333 390 C 333 414 325 432 310 445 C 295 457 276 464 254 464 C 229 464 206 456 186 441 C 165 426 155 401 155 366 L 155 0 L 54 0 L 54 544 L 141 544 L 141 458 C 150 485 168 507 194 525 C 220 542 252 551 290 551 Z" unicode="ŋ" />
<glyph horiz-adv-x="660" d="M 37 0 L 37 0 Z M 333 -9 C 287 -9 245 0 209 17 C 172 35 141 60 116 92 C 90 124 71 164 57 212 C 43 259 37 312 37 371 C 37 427 44 477 58 523 C 72 569 91 607 117 639 C 143 671 173 695 209 713 C 245 730 284 739 327 739 C 418 739 490 706 543 640 C 596 574 623 482 623 366 C 623 308 615 256 601 210 C 586 163 566 123 541 91 C 515 59 485 34 449 17 C 413 0 375 -9 333 -9 Z M 334 81 C 387 81 430 104 463 152 C 495 200 512 272 512 369 C 512 459 494 527 460 575 C 426 623 381 647 325 647 C 271 647 228 624 196 578 C 164 532 149 461 149 367 C 149 271 166 199 201 152 C 235 104 280 81 334 81 Z M 328 799 L 328 799 Z M 455 799 L 201 799 L 201 885 L 455 885 L 455 799 Z" unicode="Ō" />
<glyph horiz-adv-x="490" d="M 27 0 L 27 0 Z M 243 -7 C 213 -7 184 -1 158 11 C 132 23 109 40 90 63 C 70 86 55 115 44 150 C 32 185 27 225 27 271 C 27 313 32 351 43 386 C 54 420 69 450 88 474 C 107 498 130 517 156 531 C 182 544 210 551 241 551 C 305 551 358 527 400 481 C 441 434 462 369 462 286 C 462 196 441 125 401 72 C 360 19 307 -7 243 -7 Z M 246 82 C 280 82 307 98 327 130 C 347 162 357 211 357 277 C 357 341 346 387 326 417 C 306 446 278 461 242 461 C 208 461 182 445 162 415 C 142 385 132 337 132 273 C 132 204 142 155 164 126 C 186 96 213 82 246 82 Z M 245 613 L 245 613 Z M 372 613 L 118 613 L 118 699 L 372 699 L 372 613 Z" unicode="ō" />
<glyph horiz-adv-x="660" d="M 37 0 L 37 0 Z M 333 -9 C 287 -9 245 0 209 17 C 172 35 141 60 116 92 C 90 124 71 164 57 212 C 43 259 37 312 37 371 C 37 427 44 477 58 523 C 72 569 91 607 117 639 C 143 671 173 695 209 713 C 245 730 284 739 327 739 C 418 739 490 706 543 640 C 596 574 623 482 623 366 C 623 308 615 256 601 210 C 586 163 566 123 541 91 C 515 59 485 34 449 17 C 413 0 375 -9 333 -9 Z M 334 81 C 387 81 430 104 463 152 C 495 200 512 272 512 369 C 512 459 494 527 460 575 C 426 623 381 647 325 647 C 271 647 228 624 196 578 C 164 532 149 461 149 367 C 149 271 166 199 201 152 C 235 104 280 81 334 81 Z M 328 791 L 328 791 Z M 389 950 L 473 950 C 469 894 453 854 427 829 C 401 803 368 791 328 791 C 288 791 254 803 228 829 C 202 854 187 894 184 950 L 268 950 C 269 925 274 905 283 890 C 292 875 307 868 328 868 C 348 868 363 875 373 890 C 382 904 387 924 389 950 Z" unicode="Ŏ" />
<glyph horiz-adv-x="490" d="M 27 0 L 27 0 Z M 243 -7 C 213 -7 184 -1 158 11 C 132 23 109 40 90 63 C 70 86 55 115 44 150 C 32 185 27 225 27 271 C 27 313 32 351 43 386 C 54 420 69 450 88 474 C 107 498 130 517 156 531 C 182 544 210 551 241 551 C 305 551 358 527 400 481 C 441 434 462 369 462 286 C 462 196 441 125 401 72 C 360 19 307 -7 243 -7 Z M 246 82 C 280 82 307 98 327 130 C 347 162 357 211 357 277 C 357 341 346 387 326 417 C 306 446 278 461 242 461 C 208 461 182 445 162 415 C 142 385 132 337 132 273 C 132 204 142 155 164 126 C 186 96 213 82 246 82 Z M 245 605 L 245 605 Z M 306 764 L 390 764 C 386 708 370 668 344 643 C 318 617 285 605 245 605 C 205 605 171 617 145 643 C 119 668 104 708 101 764 L 185 764 C 186 739 191 719 200 704 C 209 689 224 682 245 682 C 265 682 280 689 290 704 C 299 718 304 738 306 764 Z" unicode="ŏ" />
<glyph horiz-adv-x="660" d="M 37 0 L 37 0 Z M 333 -9 C 287 -9 245 0 209 17 C 172 35 141 60 116 92 C 90 124 71 164 57 212 C 43 259 37 312 37 371 C 37 427 44 477 58 523 C 72 569 91 607 117 639 C 143 671 173 695 209 713 C 245 730 284 739 327 739 C 418 739 490 706 543 640 C 596 574 623 482 623 366 C 623 308 615 256 601 210 C 586 163 566 123 541 91 C 515 59 485 34 449 17 C 413 0 375 -9 333 -9 Z M 334 81 C 387 81 430 104 463 152 C 495 200 512 272 512 369 C 512 459 494 527 460 575 C 426 623 381 647 325 647 C 271 647 228 624 196 578 C 164 532 149 461 149 367 C 149 271 166 199 201 152 C 235 104 280 81 334 81 Z M 328 787 L 328 787 Z M 146 787 L 221 945 L 329 945 L 236 787 L 146 787 Z M 327 787 L 403 945 L 510 945 L 417 787 L 327 787 Z" unicode="Ő" />
<glyph horiz-adv-x="490" d="M 27 0 L 27 0 Z M 243 -7 C 213 -7 184 -1 158 11 C 132 23 109 40 90 63 C 70 86 55 115 44 150 C 32 185 27 225 27 271 C 27 313 32 351 43 386 C 54 420 69 450 88 474 C 107 498 130 517 156 531 C 182 544 210 551 241 551 C 305 551 358 527 400 481 C 441 434 462 369 462 286 C 462 196 441 125 401 72 C 360 19 307 -7 243 -7 Z M 246 82 C 280 82 307 98 327 130 C 347 162 357 211 357 277 C 357 341 346 387 326 417 C 306 446 278 461 242 461 C 208 461 182 445 162 415 C 142 385 132 337 132 273 C 132 204 142 155 164 126 C 186 96 213 82 246 82 Z M 245 601 L 245 601 Z M 63 601 L 138 759 L 246 759 L 153 601 L 63 601 Z M 244 601 L 320 759 L 427 759 L 334 601 L 244 601 Z" unicode="ő" />
<glyph horiz-adv-x="891" d="M 310 -9 C 226 -9 160 24 111 92 C 61 159 37 252 37 370 C 37 426 43 476 57 522 C 71 568 90 606 114 638 C 138 670 166 694 200 712 C 234 730 270 739 310 739 C 357 739 398 726 432 700 C 466 674 488 645 499 611 L 499 730 L 847 730 L 847 634 L 604 634 L 604 411 L 836 411 L 836 319 L 604 319 L 604 96 L 865 96 L 865 0 L 499 0 L 499 129 C 493 111 485 93 474 77 C 463 60 450 45 434 33 C 418 20 399 10 378 2 C 357 -5 334 -9 310 -9 Z M 325 76 C 377 76 419 100 451 148 C 483 196 500 270 500 370 C 500 417 495 458 485 494 C 475 530 463 559 447 582 C 431 605 412 622 390 634 C 368 646 346 652 323 652 C 269 652 227 628 196 581 C 164 534 149 462 149 365 C 149 265 165 192 198 146 C 231 99 273 76 325 76 Z" unicode="Œ" />
<glyph horiz-adv-x="799" d="M 243 -7 C 213 -7 184 -1 158 11 C 132 23 109 40 90 63 C 70 86 55 115 44 150 C 32 185 27 225 27 271 C 27 313 32 351 43 385 C 54 419 69 449 88 474 C 107 498 130 517 156 531 C 182 544 210 551 241 551 C 265 551 286 547 306 540 C 325 532 341 522 355 510 C 369 498 380 484 389 469 C 397 453 403 438 406 422 C 408 436 413 451 423 467 C 432 483 444 497 458 509 C 472 521 488 531 508 539 C 527 547 548 551 570 551 C 634 551 683 524 719 471 C 755 417 773 342 773 244 L 455 244 C 455 198 466 160 488 129 C 510 98 541 83 579 83 C 609 83 635 89 655 102 C 675 115 692 130 705 146 L 757 84 C 739 61 716 40 686 21 C 656 2 620 -7 576 -7 C 528 -7 489 5 459 31 C 429 57 411 85 405 116 C 401 101 394 86 386 71 C 377 56 366 43 353 32 C 339 20 323 11 305 4 C 286 -3 265 -7 243 -7 Z M 453 316 L 674 316 C 673 362 662 399 642 425 C 622 451 596 465 566 465 C 534 465 507 451 487 424 C 467 397 455 361 453 316 Z M 246 82 C 280 82 307 98 327 130 C 347 162 357 211 357 277 C 357 341 346 387 326 417 C 306 446 278 461 242 461 C 208 461 182 445 162 415 C 142 384 132 337 132 273 C 132 204 142 155 164 126 C 186 96 213 82 246 82 Z" unicode="œ" />
<glyph horiz-adv-x="519" d="M 68 0 L 68 0 Z M 68 0 L 68 730 L 257 730 C 313 730 361 713 399 679 C 437 645 456 595 456 529 C 456 473 442 427 416 392 C 390 356 358 336 322 330 L 321 325 L 511 0 L 394 0 L 223 302 L 172 302 L 172 0 L 68 0 Z M 172 392 L 238 392 C 270 392 297 403 319 425 C 340 447 351 478 351 518 C 351 559 340 590 319 610 C 298 630 272 641 242 641 L 172 641 L 172 392 Z M 250 790 L 250 790 Z M 145 790 L 237 959 L 355 959 L 244 790 L 145 790 Z" unicode="Ŕ" />
<glyph horiz-adv-x="361" d="M 54 0 L 54 0 Z M 366 521 L 325 433 C 315 442 305 449 294 453 C 283 457 270 460 256 460 C 244 460 233 457 221 453 C 209 449 198 442 188 432 C 178 422 170 410 164 395 C 158 379 155 361 155 340 L 155 0 L 54 0 L 54 544 L 150 544 L 150 454 C 156 478 171 501 194 521 C 216 541 244 551 277 551 C 297 551 315 548 330 542 C 345 536 357 529 366 521 Z M 218 604 L 218 604 Z M 113 604 L 205 773 L 323 773 L 212 604 L 113 604 Z" unicode="ŕ" />
<glyph horiz-adv-x="519" d="M 68 0 L 68 0 Z M 68 0 L 68 730 L 257 730 C 313 730 361 713 399 679 C 437 645 456 595 456 529 C 456 473 442 427 416 392 C 390 356 358 336 322 330 L 321 325 L 511 0 L 394 0 L 223 302 L 172 302 L 172 0 L 68 0 Z M 172 392 L 238 392 C 270 392 297 403 319 425 C 340 447 351 478 351 518 C 351 559 340 590 319 610 C 298 630 272 641 242 641 L 172 641 L 172 392 Z M 248 -72 L 248 -72 Z M 340 -72 C 339 -97 335 -123 328 -149 C 321 -175 313 -199 303 -223 C 293 -247 282 -268 270 -287 C 258 -306 246 -321 235 -333 L 158 -299 C 165 -289 173 -276 181 -260 C 189 -244 197 -225 205 -205 C 212 -185 218 -163 224 -140 C 229 -117 232 -94 234 -72 L 340 -72 Z" unicode="Ŗ" />
<glyph horiz-adv-x="361" d="M 54 0 L 54 0 Z M 366 521 L 325 433 C 315 442 305 449 294 453 C 283 457 270 460 256 460 C 244 460 233 457 221 453 C 209 449 198 442 188 432 C 178 422 170 410 164 395 C 158 379 155 361 155 340 L 155 0 L 54 0 L 54 544 L 150 544 L 150 454 C 156 478 171 501 194 521 C 216 541 244 551 277 551 C 297 551 315 548 330 542 C 345 536 357 529 366 521 Z M 196 -72 L 196 -72 Z M 288 -72 C 287 -97 283 -123 276 -149 C 269 -175 261 -199 251 -223 C 241 -247 230 -268 218 -287 C 206 -306 194 -321 183 -333 L 106 -299 C 113 -289 121 -276 129 -260 C 137 -244 145 -225 153 -205 C 160 -185 166 -163 172 -140 C 177 -117 180 -94 182 -72 L 288 -72 Z" unicode="ŗ" />
<glyph horiz-adv-x="519" d="M 68 0 L 68 0 Z M 68 0 L 68 730 L 257 730 C 313 730 361 713 399 679 C 437 645 456 595 456 529 C 456 473 442 427 416 392 C 390 356 358 336 322 330 L 321 325 L 511 0 L 394 0 L 223 302 L 172 302 L 172 0 L 68 0 Z M 172 392 L 238 392 C 270 392 297 403 319 425 C 340 447 351 478 351 518 C 351 559 340 590 319 610 C 298 630 272 641 242 641 L 172 641 L 172 392 Z M 250 788 L 250 788 Z M 99 960 L 188 960 L 251 859 L 315 960 L 402 960 L 296 788 L 205 788 L 99 960 Z" unicode="Ř" />
<glyph horiz-adv-x="361" d="M 54 0 L 54 0 Z M 366 521 L 325 433 C 315 442 305 449 294 453 C 283 457 270 460 256 460 C 244 460 233 457 221 453 C 209 449 198 442 188 432 C 178 422 170 410 164 395 C 158 379 155 361 155 340 L 155 0 L 54 0 L 54 544 L 150 544 L 150 454 C 156 478 171 501 194 521 C 216 541 244 551 277 551 C 297 551 315 548 330 542 C 345 536 357 529 366 521 Z M 218 602 L 218 602 Z M 67 774 L 156 774 L 219 673 L 283 774 L 370 774 L 264 602 L 173 602 L 67 774 Z" unicode="ř" />
<glyph horiz-adv-x="480" d="M 24 0 L 24 0 Z M 241 -9 C 194 -9 153 -1 117 12 C 81 26 50 49 24 81 L 95 152 C 111 129 132 111 159 98 C 185 84 212 78 239 78 C 267 78 291 87 312 105 C 333 123 344 147 344 178 C 344 210 334 236 316 257 C 297 277 263 301 214 328 C 156 357 114 388 86 422 C 58 456 45 501 45 559 C 45 613 64 657 102 690 C 140 722 187 739 243 739 C 287 739 324 731 354 717 C 384 702 408 685 426 667 L 362 592 C 346 606 327 619 307 629 C 286 639 264 644 240 644 C 214 644 192 636 174 621 C 155 605 146 584 146 556 C 146 526 155 502 174 484 C 193 465 228 442 280 414 C 341 382 384 349 408 315 C 432 281 445 237 445 185 C 445 153 439 126 428 102 C 416 78 401 57 383 41 C 364 25 342 12 318 4 C 293 -4 267 -9 241 -9 Z M 239 790 L 239 790 Z M 134 790 L 226 959 L 344 959 L 233 790 L 134 790 Z" unicode="Ś" />
<glyph horiz-adv-x="382" d="M 22 0 L 22 0 Z M 202 -7 C 162 -7 127 0 96 13 C 64 26 40 44 22 66 L 72 135 C 87 117 105 104 126 94 C 147 84 169 79 191 79 C 210 79 227 85 242 97 C 256 109 264 125 264 146 C 264 166 255 183 239 197 C 222 211 196 226 162 243 C 122 261 91 283 71 309 C 51 335 41 369 41 411 C 41 451 55 484 85 511 C 114 537 151 551 196 551 C 232 551 262 546 288 536 C 313 526 333 514 348 502 L 310 419 C 296 429 280 439 262 449 C 244 459 225 464 205 464 C 185 464 168 459 154 449 C 139 439 132 426 132 409 C 132 390 138 375 152 365 C 166 354 191 339 229 321 C 273 298 305 273 325 247 C 345 221 356 186 356 144 C 356 118 351 96 342 77 C 333 58 321 42 307 30 C 292 18 275 8 257 2 C 239 -3 220 -7 202 -7 Z M 196 604 L 196 604 Z M 91 604 L 183 773 L 301 773 L 190 604 L 91 604 Z" unicode="ś" />
<glyph horiz-adv-x="480" d="M 24 0 L 24 0 Z M 241 -9 C 194 -9 153 -1 117 12 C 81 26 50 49 24 81 L 95 152 C 111 129 132 111 159 98 C 185 84 212 78 239 78 C 267 78 291 87 312 105 C 333 123 344 147 344 178 C 344 210 334 236 316 257 C 297 277 263 301 214 328 C 156 357 114 388 86 422 C 58 456 45 501 45 559 C 45 613 64 657 102 690 C 140 722 187 739 243 739 C 287 739 324 731 354 717 C 384 702 408 685 426 667 L 362 592 C 346 606 327 619 307 629 C 286 639 264 644 240 644 C 214 644 192 636 174 621 C 155 605 146 584 146 556 C 146 526 155 502 174 484 C 193 465 228 442 280 414 C 341 382 384 349 408 315 C 432 281 445 237 445 185 C 445 153 439 126 428 102 C 416 78 401 57 383 41 C 364 25 342 12 318 4 C 293 -4 267 -9 241 -9 Z M 239 788 L 239 788 Z M 391 788 L 302 788 L 239 889 L 175 788 L 88 788 L 194 960 L 285 960 L 391 788 Z" unicode="Ŝ" />
<glyph horiz-adv-x="382" d="M 22 0 L 22 0 Z M 202 -7 C 162 -7 127 0 96 13 C 64 26 40 44 22 66 L 72 135 C 87 117 105 104 126 94 C 147 84 169 79 191 79 C 210 79 227 85 242 97 C 256 109 264 125 264 146 C 264 166 255 183 239 197 C 222 211 196 226 162 243 C 122 261 91 283 71 309 C 51 335 41 369 41 411 C 41 451 55 484 85 511 C 114 537 151 551 196 551 C 232 551 262 546 288 536 C 313 526 333 514 348 502 L 310 419 C 296 429 280 439 262 449 C 244 459 225 464 205 464 C 185 464 168 459 154 449 C 139 439 132 426 132 409 C 132 390 138 375 152 365 C 166 354 191 339 229 321 C 273 298 305 273 325 247 C 345 221 356 186 356 144 C 356 118 351 96 342 77 C 333 58 321 42 307 30 C 292 18 275 8 257 2 C 239 -3 220 -7 202 -7 Z M 196 602 L 196 602 Z M 348 602 L 259 602 L 196 703 L 132 602 L 45 602 L 151 774 L 242 774 L 348 602 Z" unicode="ŝ" />
<glyph horiz-adv-x="480" d="M 24 0 L 24 0 Z M 241 -9 C 194 -9 153 -1 117 12 C 81 26 50 49 24 81 L 95 152 C 111 129 132 111 159 98 C 185 84 212 78 239 78 C 267 78 291 87 312 105 C 333 123 344 147 344 178 C 344 210 334 236 316 257 C 297 277 263 301 214 328 C 156 357 114 388 86 422 C 58 456 45 501 45 559 C 45 613 64 657 102 690 C 140 722 187 739 243 739 C 287 739 324 731 354 717 C 384 702 408 685 426 667 L 362 592 C 346 606 327 619 307 629 C 286 639 264 644 240 644 C 214 644 192 636 174 621 C 155 605 146 584 146 556 C 146 526 155 502 174 484 C 193 465 228 442 280 414 C 341 382 384 349 408 315 C 432 281 445 237 445 185 C 445 153 439 126 428 102 C 416 78 401 57 383 41 C 364 25 342 12 318 4 C 293 -4 267 -9 241 -9 Z M 225 -3 L 225 -3 Z M 231 -186 C 209 -186 187 -183 166 -177 C 145 -171 128 -163 116 -153 L 137 -113 C 145 -118 155 -123 168 -129 C 181 -134 195 -137 211 -137 C 223 -137 234 -134 243 -128 C 251 -122 256 -114 256 -105 C 256 -93 251 -85 243 -80 C 235 -75 226 -73 217 -73 C 210 -73 204 -73 198 -74 C 192 -75 187 -77 183 -79 L 171 -62 L 226 11 L 279 11 L 236 -47 C 264 -44 287 -48 306 -59 C 325 -69 335 -87 335 -111 C 335 -135 324 -153 304 -166 C 284 -179 259 -186 231 -186 Z" unicode="Ş" />
<glyph horiz-adv-x="382" d="M 22 0 L 22 0 Z M 202 -7 C 162 -7 127 0 96 13 C 64 26 40 44 22 66 L 72 135 C 87 117 105 104 126 94 C 147 84 169 79 191 79 C 210 79 227 85 242 97 C 256 109 264 125 264 146 C 264 166 255 183 239 197 C 222 211 196 226 162 243 C 122 261 91 283 71 309 C 51 335 41 369 41 411 C 41 451 55 484 85 511 C 114 537 151 551 196 551 C 232 551 262 546 288 536 C 313 526 333 514 348 502 L 310 419 C 296 429 280 439 262 449 C 244 459 225 464 205 464 C 185 464 168 459 154 449 C 139 439 132 426 132 409 C 132 390 138 375 152 365 C 166 354 191 339 229 321 C 273 298 305 273 325 247 C 345 221 356 186 356 144 C 356 118 351 96 342 77 C 333 58 321 42 307 30 C 292 18 275 8 257 2 C 239 -3 220 -7 202 -7 Z M 184 0 L 184 0 Z M 190 -183 C 168 -183 146 -180 125 -174 C 104 -168 87 -160 75 -150 L 96 -110 C 104 -115 114 -120 127 -126 C 140 -131 154 -134 170 -134 C 182 -134 193 -131 202 -125 C 210 -119 215 -111 215 -102 C 215 -90 210 -82 202 -77 C 194 -72 185 -70 176 -70 C 169 -70 163 -70 157 -71 C 151 -72 146 -74 142 -76 L 130 -59 L 185 14 L 238 14 L 195 -44 C 223 -41 246 -45 265 -56 C 284 -66 294 -84 294 -108 C 294 -132 283 -150 263 -163 C 243 -176 218 -183 190 -183 Z" unicode="ş" />
<glyph horiz-adv-x="480" d="M 24 0 L 24 0 Z M 241 -9 C 194 -9 153 -1 117 12 C 81 26 50 49 24 81 L 95 152 C 111 129 132 111 159 98 C 185 84 212 78 239 78 C 267 78 291 87 312 105 C 333 123 344 147 344 178 C 344 210 334 236 316 257 C 297 277 263 301 214 328 C 156 357 114 388 86 422 C 58 456 45 501 45 559 C 45 613 64 657 102 690 C 140 722 187 739 243 739 C 287 739 324 731 354 717 C 384 702 408 685 426 667 L 362 592 C 346 606 327 619 307 629 C 286 639 264 644 240 644 C 214 644 192 636 174 621 C 155 605 146 584 146 556 C 146 526 155 502 174 484 C 193 465 228 442 280 414 C 341 382 384 349 408 315 C 432 281 445 237 445 185 C 445 153 439 126 428 102 C 416 78 401 57 383 41 C 364 25 342 12 318 4 C 293 -4 267 -9 241 -9 Z M 239 788 L 239 788 Z M 88 960 L 177 960 L 240 859 L 304 960 L 391 960 L 285 788 L 194 788 L 88 960 Z" unicode="Š" />
<glyph horiz-adv-x="382" d="M 22 0 L 22 0 Z M 202 -7 C 162 -7 127 0 96 13 C 64 26 40 44 22 66 L 72 135 C 87 117 105 104 126 94 C 147 84 169 79 191 79 C 210 79 227 85 242 97 C 256 109 264 125 264 146 C 264 166 255 183 239 197 C 222 211 196 226 162 243 C 122 261 91 283 71 309 C 51 335 41 369 41 411 C 41 451 55 484 85 511 C 114 537 151 551 196 551 C 232 551 262 546 288 536 C 313 526 333 514 348 502 L 310 419 C 296 429 280 439 262 449 C 244 459 225 464 205 464 C 185 464 168 459 154 449 C 139 439 132 426 132 409 C 132 390 138 375 152 365 C 166 354 191 339 229 321 C 273 298 305 273 325 247 C 345 221 356 186 356 144 C 356 118 351 96 342 77 C 333 58 321 42 307 30 C 292 18 275 8 257 2 C 239 -3 220 -7 202 -7 Z M 196 602 L 196 602 Z M 45 774 L 134 774 L 197 673 L 261 774 L 348 774 L 242 602 L 151 602 L 45 774 Z" unicode="š" />
<glyph horiz-adv-x="440" d="M 7 0 L 7 0 Z M 432 634 L 274 634 L 274 0 L 164 0 L 164 634 L 7 634 L 7 730 L 432 730 L 432 634 Z M 220 788 L 220 788 Z M 69 960 L 158 960 L 221 859 L 285 960 L 372 960 L 266 788 L 175 788 L 69 960 Z" unicode="Ť" />
<glyph horiz-adv-x="283" d="M 7 0 L 7 0 Z M 260 104 L 280 21 C 271 14 259 8 244 3 C 228 -1 210 -4 188 -4 C 155 -4 126 7 102 31 C 77 54 65 88 65 133 L 65 456 L 7 456 L 7 544 L 67 544 L 67 662 L 165 674 L 165 544 L 262 544 L 262 456 L 166 456 L 166 142 C 166 126 170 113 178 104 C 186 94 197 90 211 90 C 221 90 230 91 239 95 C 248 98 255 101 260 104 Z M 383 614 L 378 469 L 292 469 L 288 614 L 288 730 L 383 730 L 383 614 Z" unicode="ť" />
<glyph horiz-adv-x="440" d="M 390 425 L 274 425 L 274 0 L 164 0 L 164 425 L 50 425 L 50 513 L 164 513 L 164 634 L 7 634 L 7 730 L 432 730 L 432 634 L 274 634 L 274 513 L 390 513 L 390 425 Z" unicode="Ŧ" />
<glyph horiz-adv-x="283" d="M 280 21 C 271 14 259 8 244 3 C 228 -1 210 -4 188 -4 C 155 -4 126 7 102 31 C 77 54 65 88 65 133 L 65 290 L 13 290 L 13 378 L 65 378 L 65 456 L 7 456 L 7 544 L 67 544 L 67 662 L 165 674 L 165 544 L 262 544 L 262 456 L 166 456 L 166 378 L 240 378 L 240 290 L 166 290 L 166 142 C 166 126 170 113 178 104 C 186 94 197 90 211 90 C 221 90 230 91 239 95 C 248 98 255 101 260 104 L 280 21 Z" unicode="ŧ" />
<glyph horiz-adv-x="611" d="M 65 0 L 65 0 Z M 546 730 L 546 235 C 546 193 539 157 526 126 C 512 95 494 70 472 50 C 450 30 424 15 394 5 C 364 -4 333 -9 301 -9 C 269 -9 239 -4 211 5 C 182 14 157 28 135 48 C 113 68 96 93 84 124 C 71 154 65 191 65 235 L 65 730 L 173 730 L 173 235 C 173 184 185 147 211 123 C 236 99 267 88 303 88 C 339 88 369 99 395 122 C 421 144 434 182 434 235 L 434 730 L 546 730 Z M 304 793 L 304 793 Z M 390 934 L 468 934 C 468 886 461 850 447 827 C 433 804 414 793 391 793 C 372 793 356 796 342 803 C 328 810 316 817 306 824 C 296 830 286 837 277 843 C 268 849 259 853 251 853 C 242 853 234 847 228 837 C 222 827 218 813 218 797 L 141 797 C 141 844 150 879 170 903 C 189 926 209 938 230 938 C 246 938 261 934 273 928 C 285 921 296 913 308 905 C 316 898 325 892 333 887 C 341 882 349 880 358 880 C 366 880 374 884 380 894 C 386 903 390 916 390 934 Z" unicode="Ũ" />
<glyph horiz-adv-x="485" d="M 51 0 L 51 0 Z M 51 544 L 152 544 L 152 171 C 152 138 160 114 176 100 C 192 85 213 78 239 78 C 263 78 285 86 303 104 C 321 121 330 148 330 185 L 330 544 L 431 544 L 431 0 L 341 0 L 341 86 C 333 62 316 40 291 21 C 265 1 234 -8 196 -8 C 157 -8 123 4 94 29 C 65 54 51 91 51 139 L 51 544 Z M 241 607 L 241 607 Z M 327 748 L 405 748 C 405 700 398 664 384 641 C 370 618 351 607 328 607 C 309 607 293 610 279 617 C 265 624 253 631 243 638 C 233 644 223 651 214 657 C 205 663 196 667 188 667 C 179 667 171 661 165 651 C 159 641 155 627 155 611 L 78 611 C 78 658 87 693 107 717 C 126 740 146 752 167 752 C 183 752 198 748 210 742 C 222 735 233 727 245 719 C 253 712 262 706 270 701 C 278 696 286 694 295 694 C 303 694 311 698 317 708 C 323 717 327 730 327 748 Z" unicode="ũ" />
<glyph horiz-adv-x="611" d="M 65 0 L 65 0 Z M 546 730 L 546 235 C 546 193 539 157 526 126 C 512 95 494 70 472 50 C 450 30 424 15 394 5 C 364 -4 333 -9 301 -9 C 269 -9 239 -4 211 5 C 182 14 157 28 135 48 C 113 68 96 93 84 124 C 71 154 65 191 65 235 L 65 730 L 173 730 L 173 235 C 173 184 185 147 211 123 C 236 99 267 88 303 88 C 339 88 369 99 395 122 C 421 144 434 182 434 235 L 434 730 L 546 730 Z M 304 799 L 304 799 Z M 431 799 L 177 799 L 177 885 L 431 885 L 431 799 Z" unicode="Ū" />
<glyph horiz-adv-x="485" d="M 51 0 L 51 0 Z M 51 544 L 152 544 L 152 171 C 152 138 160 114 176 100 C 192 85 213 78 239 78 C 263 78 285 86 303 104 C 321 121 330 148 330 185 L 330 544 L 431 544 L 431 0 L 341 0 L 341 86 C 333 62 316 40 291 21 C 265 1 234 -8 196 -8 C 157 -8 123 4 94 29 C 65 54 51 91 51 139 L 51 544 Z M 241 613 L 241 613 Z M 368 613 L 114 613 L 114 699 L 368 699 L 368 613 Z" unicode="ū" />
<glyph horiz-adv-x="611" d="M 65 0 L 65 0 Z M 546 730 L 546 235 C 546 193 539 157 526 126 C 512 95 494 70 472 50 C 450 30 424 15 394 5 C 364 -4 333 -9 301 -9 C 269 -9 239 -4 211 5 C 182 14 157 28 135 48 C 113 68 96 93 84 124 C 71 154 65 191 65 235 L 65 730 L 173 730 L 173 235 C 173 184 185 147 211 123 C 236 99 267 88 303 88 C 339 88 369 99 395 122 C 421 144 434 182 434 235 L 434 730 L 546 730 Z M 304 791 L 304 791 Z M 365 950 L 449 950 C 445 894 429 854 403 829 C 377 803 344 791 304 791 C 264 791 230 803 204 829 C 178 854 163 894 160 950 L 244 950 C 245 925 250 905 259 890 C 268 875 283 868 304 868 C 324 868 339 875 349 890 C 358 904 363 924 365 950 Z" unicode="Ŭ" />
<glyph horiz-adv-x="485" d="M 51 0 L 51 0 Z M 51 544 L 152 544 L 152 171 C 152 138 160 114 176 100 C 192 85 213 78 239 78 C 263 78 285 86 303 104 C 321 121 330 148 330 185 L 330 544 L 431 544 L 431 0 L 341 0 L 341 86 C 333 62 316 40 291 21 C 265 1 234 -8 196 -8 C 157 -8 123 4 94 29 C 65 54 51 91 51 139 L 51 544 Z M 241 605 L 241 605 Z M 302 764 L 386 764 C 382 708 366 668 340 643 C 314 617 281 605 241 605 C 201 605 167 617 141 643 C 115 668 100 708 97 764 L 181 764 C 182 739 187 719 196 704 C 205 689 220 682 241 682 C 261 682 276 689 286 704 C 295 718 300 738 302 764 Z" unicode="ŭ" />
<glyph horiz-adv-x="611" d="M 65 0 L 65 0 Z M 546 730 L 546 235 C 546 193 539 157 526 126 C 512 95 494 70 472 50 C 450 30 424 15 394 5 C 364 -4 333 -9 301 -9 C 269 -9 239 -4 211 5 C 182 14 157 28 135 48 C 113 68 96 93 84 124 C 71 154 65 191 65 235 L 65 730 L 173 730 L 173 235 C 173 184 185 147 211 123 C 236 99 267 88 303 88 C 339 88 369 99 395 122 C 421 144 434 182 434 235 L 434 730 L 546 730 Z M 304 771 L 304 771 Z M 304 771 C 270 771 240 783 216 808 C 192 832 180 862 180 897 C 180 931 192 960 216 984 C 240 1008 270 1021 304 1021 C 339 1021 369 1008 393 984 C 417 960 430 931 430 897 C 430 862 417 832 393 808 C 369 783 339 771 304 771 Z M 305 834 C 322 834 336 840 348 852 C 360 864 366 879 366 897 C 366 913 360 928 348 940 C 336 952 322 959 305 959 C 288 959 273 952 261 940 C 249 928 243 913 243 897 C 243 879 249 864 261 852 C 273 840 288 834 305 834 Z" unicode="Ů" />
<glyph horiz-adv-x="485" d="M 51 0 L 51 0 Z M 51 544 L 152 544 L 152 171 C 152 138 160 114 176 100 C 192 85 213 78 239 78 C 263 78 285 86 303 104 C 321 121 330 148 330 185 L 330 544 L 431 544 L 431 0 L 341 0 L 341 86 C 333 62 316 40 291 21 C 265 1 234 -8 196 -8 C 157 -8 123 4 94 29 C 65 54 51 91 51 139 L 51 544 Z M 241 585 L 241 585 Z M 241 585 C 207 585 177 597 153 622 C 129 646 117 676 117 711 C 117 745 129 774 153 798 C 177 822 207 835 241 835 C 276 835 306 822 330 798 C 354 774 367 745 367 711 C 367 676 354 646 330 622 C 306 597 276 585 241 585 Z M 242 648 C 259 648 273 654 285 666 C 297 678 303 693 303 711 C 303 727 297 742 285 754 C 273 766 259 773 242 773 C 225 773 210 766 198 754 C 186 742 180 727 180 711 C 180 693 186 678 198 666 C 210 654 225 648 242 648 Z" unicode="ů" />
<glyph horiz-adv-x="611" d="M 65 0 L 65 0 Z M 546 730 L 546 235 C 546 193 539 157 526 126 C 512 95 494 70 472 50 C 450 30 424 15 394 5 C 364 -4 333 -9 301 -9 C 269 -9 239 -4 211 5 C 182 14 157 28 135 48 C 113 68 96 93 84 124 C 71 154 65 191 65 235 L 65 730 L 173 730 L 173 235 C 173 184 185 147 211 123 C 236 99 267 88 303 88 C 339 88 369 99 395 122 C 421 144 434 182 434 235 L 434 730 L 546 730 Z M 304 787 L 304 787 Z M 122 787 L 197 945 L 305 945 L 212 787 L 122 787 Z M 303 787 L 379 945 L 486 945 L 393 787 L 303 787 Z" unicode="Ű" />
<glyph horiz-adv-x="485" d="M 51 0 L 51 0 Z M 51 544 L 152 544 L 152 171 C 152 138 160 114 176 100 C 192 85 213 78 239 78 C 263 78 285 86 303 104 C 321 121 330 148 330 185 L 330 544 L 431 544 L 431 0 L 341 0 L 341 86 C 333 62 316 40 291 21 C 265 1 234 -8 196 -8 C 157 -8 123 4 94 29 C 65 54 51 91 51 139 L 51 544 Z M 241 601 L 241 601 Z M 59 601 L 134 759 L 242 759 L 149 601 L 59 601 Z M 240 601 L 316 759 L 423 759 L 330 601 L 240 601 Z" unicode="ű" />
<glyph horiz-adv-x="611" d="M 65 0 L 65 0 Z M 546 730 L 546 235 C 546 193 539 157 526 126 C 512 95 494 70 472 50 C 450 30 424 15 394 5 C 364 -4 333 -9 301 -9 C 269 -9 239 -4 211 5 C 182 14 157 28 135 48 C 113 68 96 93 84 124 C 71 154 65 191 65 235 L 65 730 L 173 730 L 173 235 C 173 184 185 147 211 123 C 236 99 267 88 303 88 C 339 88 369 99 395 122 C 421 144 434 182 434 235 L 434 730 L 546 730 Z M 340 -8 L 340 -8 Z M 437 -91 L 466 -134 C 445 -155 423 -171 399 -182 C 375 -193 349 -199 320 -199 C 286 -199 260 -191 242 -177 C 224 -162 215 -143 215 -121 C 215 -96 225 -73 245 -52 C 265 -30 295 -12 334 3 L 383 3 C 356 -10 336 -24 322 -38 C 308 -52 302 -66 302 -80 C 302 -92 306 -103 316 -111 C 325 -119 337 -123 353 -123 C 370 -123 386 -120 400 -114 C 414 -108 427 -100 437 -91 Z" unicode="Ų" />
<glyph horiz-adv-x="485" d="M 51 0 L 51 0 Z M 51 544 L 152 544 L 152 171 C 152 138 160 114 176 100 C 192 85 213 78 239 78 C 263 78 285 86 303 104 C 321 121 330 148 330 185 L 330 544 L 431 544 L 431 0 L 341 0 L 341 86 C 333 62 316 40 291 21 C 265 1 234 -8 196 -8 C 157 -8 123 4 94 29 C 65 54 51 91 51 139 L 51 544 Z M 348 -8 L 348 -8 Z M 445 -91 L 474 -134 C 453 -155 431 -171 407 -182 C 383 -193 357 -199 328 -199 C 294 -199 268 -191 250 -177 C 232 -162 223 -143 223 -121 C 223 -96 233 -73 253 -52 C 273 -30 303 -12 342 3 L 391 3 C 364 -10 344 -24 330 -38 C 316 -52 310 -66 310 -80 C 310 -92 314 -103 324 -111 C 333 -119 345 -123 361 -123 C 378 -123 394 -120 408 -114 C 422 -108 435 -100 445 -91 Z" unicode="ų" />
<glyph horiz-adv-x="775" d="M 5 0 L 5 0 Z M 758 730 L 584 -4 L 513 -4 L 382 531 L 249 -4 L 177 -4 L 5 730 L 112 730 L 227 204 L 349 730 L 425 730 L 548 205 L 662 730 L 758 730 Z M 387 788 L 387 788 Z M 539 788 L 450 788 L 387 889 L 323 788 L 236 788 L 342 960 L 433 960 L 539 788 Z" unicode="Ŵ" />
<glyph horiz-adv-x="626" d="M 0 0 L 0 0 Z M 410 -2 L 317 313 L 216 -2 L 145 -2 L 0 544 L 97 544 L 193 163 L 284 465 L 356 465 L 440 165 L 535 544 L 626 544 L 480 -2 L 410 -2 Z M 316 602 L 316 602 Z M 468 602 L 379 602 L 316 703 L 252 602 L 165 602 L 271 774 L 362 774 L 468 602 Z" unicode="ŵ" />
<glyph horiz-adv-x="533" d="M 0 0 L 0 0 Z M 536 730 L 319 311 L 319 0 L 209 0 L 209 314 L -3 730 L 123 730 L 271 420 L 428 730 L 536 730 Z M 271 788 L 271 788 Z M 423 788 L 334 788 L 271 889 L 207 788 L 120 788 L 226 960 L 317 960 L 423 788 Z" unicode="Ŷ" />
<glyph horiz-adv-x="417" d="M 0 0 L 0 0 Z M 422 544 L 215 -86 C 201 -124 181 -152 155 -171 C 129 -190 101 -200 72 -200 C 46 -200 25 -197 9 -192 C -6 -186 -17 -181 -23 -177 L 16 -98 C 19 -100 26 -103 36 -106 C 46 -109 55 -111 65 -111 C 79 -111 92 -105 104 -95 C 116 -85 126 -68 134 -46 L 161 42 L -5 544 L 100 544 L 212 176 L 324 544 L 422 544 Z M 212 602 L 212 602 Z M 364 602 L 275 602 L 212 703 L 148 602 L 61 602 L 167 774 L 258 774 L 364 602 Z" unicode="ŷ" />
<glyph horiz-adv-x="533" d="M 0 0 L 0 0 Z M 536 730 L 319 311 L 319 0 L 209 0 L 209 314 L -3 730 L 123 730 L 271 420 L 428 730 L 536 730 Z M 271 788 L 271 788 Z M 395 788 L 312 788 L 312 947 L 395 947 L 395 788 Z M 230 788 L 147 788 L 147 947 L 230 947 L 230 788 Z" unicode="Ÿ" />
<glyph horiz-adv-x="479" d="M 16 0 L 16 0 Z M 451 730 L 451 677 L 154 94 L 462 94 L 462 0 L 16 0 L 16 51 L 311 635 L 44 635 L 44 730 L 451 730 Z M 247 790 L 247 790 Z M 142 790 L 234 959 L 352 959 L 241 790 L 142 790 Z" unicode="Ź" />
<glyph horiz-adv-x="381" d="M 13 0 L 13 0 Z M 360 544 L 360 500 L 145 88 L 371 88 L 371 0 L 13 0 L 13 38 L 231 455 L 25 455 L 25 544 L 360 544 Z M 201 604 L 201 604 Z M 96 604 L 188 773 L 306 773 L 195 604 L 96 604 Z" unicode="ź" />
<glyph horiz-adv-x="479" d="M 16 0 L 16 0 Z M 451 730 L 451 677 L 154 94 L 462 94 L 462 0 L 16 0 L 16 51 L 311 635 L 44 635 L 44 730 L 451 730 Z M 247 790 L 247 790 Z M 294 790 L 201 790 L 201 926 L 294 926 L 294 790 Z" unicode="Ż" />
<glyph horiz-adv-x="381" d="M 13 0 L 13 0 Z M 360 544 L 360 500 L 145 88 L 371 88 L 371 0 L 13 0 L 13 38 L 231 455 L 25 455 L 25 544 L 360 544 Z M 201 604 L 201 604 Z M 248 604 L 155 604 L 155 740 L 248 740 L 248 604 Z" unicode="ż" />
<glyph horiz-adv-x="479" d="M 16 0 L 16 0 Z M 451 730 L 451 677 L 154 94 L 462 94 L 462 0 L 16 0 L 16 51 L 311 635 L 44 635 L 44 730 L 451 730 Z M 247 788 L 247 788 Z M 96 960 L 185 960 L 248 859 L 312 960 L 399 960 L 293 788 L 202 788 L 96 960 Z" unicode="Ž" />
<glyph horiz-adv-x="381" d="M 13 0 L 13 0 Z M 360 544 L 360 500 L 145 88 L 371 88 L 371 0 L 13 0 L 13 38 L 231 455 L 25 455 L 25 544 L 360 544 Z M 201 602 L 201 602 Z M 50 774 L 139 774 L 202 673 L 266 774 L 353 774 L 247 602 L 156 602 L 50 774 Z" unicode="ž" />
<glyph horiz-adv-x="369" d="M 190 -57 C 187 -89 174 -117 151 -142 C 127 -166 98 -179 62 -179 C 43 -179 25 -177 8 -174 C -9 -171 -22 -168 -31 -164 L -21 -91 C -16 -91 -9 -93 0 -95 C 10 -97 19 -98 28 -98 C 47 -98 64 -91 79 -78 C 93 -64 102 -45 105 -21 L 135 321 L 40 321 L 40 411 L 143 411 L 162 625 C 164 644 169 661 177 676 C 185 690 194 702 206 712 C 217 722 229 729 243 734 C 257 739 270 742 284 742 C 298 742 311 741 325 740 C 339 739 347 738 350 738 L 342 649 C 340 649 336 650 330 651 C 324 651 318 652 312 652 C 293 652 278 645 266 633 C 254 620 247 600 245 574 L 231 411 L 334 411 L 334 321 L 223 321 L 190 -57 Z" unicode="ƒ" />
<glyph horiz-adv-x="480" d="M 24 0 L 24 0 Z M 241 -9 C 194 -9 153 -1 117 12 C 81 26 50 49 24 81 L 95 152 C 111 129 132 111 159 98 C 185 84 212 78 239 78 C 267 78 291 87 312 105 C 333 123 344 147 344 178 C 344 210 334 236 316 257 C 297 277 263 301 214 328 C 156 357 114 388 86 422 C 58 456 45 501 45 559 C 45 613 64 657 102 690 C 140 722 187 739 243 739 C 287 739 324 731 354 717 C 384 702 408 685 426 667 L 362 592 C 346 606 327 619 307 629 C 286 639 264 644 240 644 C 214 644 192 636 174 621 C 155 605 146 584 146 556 C 146 526 155 502 174 484 C 193 465 228 442 280 414 C 341 382 384 349 408 315 C 432 281 445 237 445 185 C 445 153 439 126 428 102 C 416 78 401 57 383 41 C 364 25 342 12 318 4 C 293 -4 267 -9 241 -9 Z M 225 -75 L 225 -75 Z M 317 -75 C 316 -100 312 -126 305 -152 C 298 -178 290 -202 280 -226 C 270 -250 259 -271 247 -290 C 235 -309 223 -324 212 -336 L 135 -302 C 142 -292 150 -279 158 -263 C 166 -247 174 -228 182 -208 C 189 -188 195 -166 201 -143 C 206 -120 209 -97 211 -75 L 317 -75 Z" unicode="Ș" />
<glyph horiz-adv-x="382" d="M 22 0 L 22 0 Z M 202 -7 C 162 -7 127 0 96 13 C 64 26 40 44 22 66 L 72 135 C 87 117 105 104 126 94 C 147 84 169 79 191 79 C 210 79 227 85 242 97 C 256 109 264 125 264 146 C 264 166 255 183 239 197 C 222 211 196 226 162 243 C 122 261 91 283 71 309 C 51 335 41 369 41 411 C 41 451 55 484 85 511 C 114 537 151 551 196 551 C 232 551 262 546 288 536 C 313 526 333 514 348 502 L 310 419 C 296 429 280 439 262 449 C 244 459 225 464 205 464 C 185 464 168 459 154 449 C 139 439 132 426 132 409 C 132 390 138 375 152 365 C 166 354 191 339 229 321 C 273 298 305 273 325 247 C 345 221 356 186 356 144 C 356 118 351 96 342 77 C 333 58 321 42 307 30 C 292 18 275 8 257 2 C 239 -3 220 -7 202 -7 Z M 184 -72 L 184 -72 Z M 276 -72 C 275 -97 271 -123 264 -149 C 257 -175 249 -199 239 -223 C 229 -247 218 -268 206 -287 C 194 -306 182 -321 171 -333 L 94 -299 C 101 -289 109 -276 117 -260 C 125 -244 133 -225 141 -205 C 148 -185 154 -163 160 -140 C 165 -117 168 -94 170 -72 L 276 -72 Z" unicode="ș" />
<glyph horiz-adv-x="440" d="M 7 0 L 7 0 Z M 432 634 L 274 634 L 274 0 L 164 0 L 164 634 L 7 634 L 7 730 L 432 730 L 432 634 Z M 191 -72 L 191 -72 Z M 283 -72 C 282 -97 278 -123 271 -149 C 264 -175 256 -199 246 -223 C 236 -247 225 -268 213 -287 C 201 -306 189 -321 178 -333 L 101 -299 C 108 -289 116 -276 124 -260 C 132 -244 140 -225 148 -205 C 155 -185 161 -163 167 -140 C 172 -117 175 -94 177 -72 L 283 -72 Z" unicode="Ț" />
<glyph horiz-adv-x="283" d="M 7 0 L 7 0 Z M 260 104 L 280 21 C 271 14 259 8 244 3 C 228 -1 210 -4 188 -4 C 155 -4 126 7 102 31 C 77 54 65 88 65 133 L 65 456 L 7 456 L 7 544 L 67 544 L 67 662 L 165 674 L 165 544 L 262 544 L 262 456 L 166 456 L 166 142 C 166 126 170 113 178 104 C 186 94 197 90 211 90 C 221 90 230 91 239 95 C 248 98 255 101 260 104 Z M 135 -72 L 135 -72 Z M 227 -72 C 226 -97 222 -123 215 -149 C 208 -175 200 -199 190 -223 C 180 -247 169 -268 157 -287 C 145 -306 133 -321 122 -333 L 45 -299 C 52 -289 60 -276 68 -260 C 76 -244 84 -225 92 -205 C 99 -185 105 -163 111 -140 C 116 -117 119 -94 121 -72 L 227 -72 Z" unicode="ț" />
<glyph horiz-adv-x="232" d="M 179 544 L 179 -40 C 179 -82 166 -116 140 -142 C 114 -167 83 -180 45 -180 C 23 -180 2 -176 -16 -170 C -34 -163 -48 -156 -56 -150 L -24 -80 C -18 -83 -10 -86 -1 -89 C 8 -91 19 -93 31 -93 C 44 -93 55 -87 64 -75 C 73 -63 78 -49 78 -31 L 78 544 L 179 544 Z" unicode="ȷ" />
<glyph horiz-adv-x="500" d="M 402 602 L 313 602 L 250 703 L 186 602 L 99 602 L 205 774 L 296 774 L 402 602 Z" unicode="ˆ" />
<glyph horiz-adv-x="500" d="M 99 774 L 188 774 L 251 673 L 315 774 L 402 774 L 296 602 L 205 602 L 99 774 Z" unicode="ˇ" />
<glyph horiz-adv-x="500" d="M 311 764 L 395 764 C 391 708 375 668 349 643 C 323 617 290 605 250 605 C 210 605 176 617 150 643 C 124 668 109 708 106 764 L 190 764 C 191 739 196 719 205 704 C 214 689 229 682 250 682 C 270 682 285 689 295 704 C 304 718 309 738 311 764 Z" unicode="˘" />
<glyph horiz-adv-x="500" d="M 297 604 L 204 604 L 204 740 L 297 740 L 297 604 Z" unicode="˙" />
<glyph horiz-adv-x="507" d="M 253 585 C 219 585 189 597 165 622 C 141 646 129 676 129 711 C 129 745 141 774 165 798 C 189 822 219 835 253 835 C 288 835 318 822 342 798 C 366 774 379 745 379 711 C 379 676 366 646 342 622 C 318 597 288 585 253 585 Z M 254 648 C 271 648 285 654 297 666 C 309 678 315 693 315 711 C 315 727 309 742 297 754 C 285 766 271 773 254 773 C 237 773 222 766 210 754 C 198 742 192 727 192 711 C 192 693 198 678 210 666 C 222 654 237 648 254 648 Z" unicode="˚" />
<glyph horiz-adv-x="500" d="M 354 -83 L 383 -126 C 362 -147 340 -163 316 -174 C 292 -185 266 -191 237 -191 C 203 -191 177 -183 159 -169 C 141 -154 132 -135 132 -113 C 132 -88 142 -65 162 -44 C 182 -22 212 -4 251 11 L 300 11 C 273 -2 253 -16 239 -30 C 225 -44 219 -58 219 -72 C 219 -84 223 -95 233 -103 C 242 -111 254 -115 270 -115 C 287 -115 303 -112 317 -106 C 331 -100 344 -92 354 -83 Z" unicode="˛" />
<glyph horiz-adv-x="500" d="M 340 748 L 418 748 C 418 700 411 664 397 641 C 383 618 364 607 341 607 C 322 607 306 610 292 617 C 278 624 266 631 256 638 C 246 644 236 651 227 657 C 218 663 209 667 201 667 C 192 667 184 661 178 651 C 172 641 168 627 168 611 L 91 611 C 91 658 100 693 120 717 C 139 740 159 752 180 752 C 196 752 211 748 223 742 C 235 735 246 727 258 719 C 266 712 275 706 283 701 C 291 696 299 694 308 694 C 316 694 324 698 330 708 C 336 717 340 730 340 748 Z" unicode="˜" />
<glyph horiz-adv-x="500" d="M 86 601 L 161 759 L 269 759 L 176 601 L 86 601 Z M 267 601 L 343 759 L 450 759 L 357 601 L 267 601 Z" unicode="˝" />
<glyph horiz-adv-x="0" d="M 0 601 L 0 601 Z M 105 601 L 6 601 L -106 770 L 12 770 L 105 601 Z" unicode="̀" />
<glyph horiz-adv-x="0" d="M 0 604 L 0 604 Z M -105 604 L -13 773 L 105 773 L -6 604 L -105 604 Z" unicode="́" />
<glyph horiz-adv-x="0" d="M 0 602 L 0 602 Z M 152 602 L 63 602 L 0 703 L -64 602 L -151 602 L -45 774 L 46 774 L 152 602 Z" unicode="̂" />
<glyph horiz-adv-x="0" d="M 0 607 L 0 607 Z M 86 748 L 164 748 C 164 700 157 664 143 641 C 129 618 110 607 87 607 C 68 607 52 610 38 617 C 24 624 12 631 2 638 C -8 644 -17 651 -26 657 C -35 663 -44 667 -53 667 C -61 667 -69 661 -75 651 C -81 641 -85 627 -86 611 L -163 611 C -163 658 -153 693 -134 717 C -114 740 -94 752 -74 752 C -57 752 -43 748 -31 742 C -19 735 -7 727 4 719 C 12 712 21 706 29 701 C 37 696 45 694 54 694 C 62 694 70 698 76 708 C 82 717 86 730 86 748 Z" unicode="̃" />
<glyph horiz-adv-x="0" d="M 0 613 L 0 613 Z M 127 613 L -127 613 L -127 699 L 127 699 L 127 613 Z" unicode="̄" />
<glyph horiz-adv-x="0" d="M 0 605 L 0 605 Z M 61 764 L 145 764 C 141 708 125 668 99 643 C 73 617 40 605 0 605 C -40 605 -73 617 -99 643 C -125 668 -140 708 -144 764 L -60 764 C -58 739 -53 719 -44 704 C -35 689 -20 682 0 682 C 20 682 35 689 45 704 C 54 718 59 738 61 764 Z" unicode="̆" />
<glyph horiz-adv-x="0" d="M 0 604 L 0 604 Z M 47 604 L -46 604 L -46 740 L 47 740 L 47 604 Z" unicode="̇" />
<glyph horiz-adv-x="0" d="M 0 602 L 0 602 Z M 124 602 L 41 602 L 41 761 L 124 761 L 124 602 Z M -41 602 L -124 602 L -124 761 L -41 761 L -41 602 Z" unicode="̈" />
<glyph horiz-adv-x="0" d="M 0 585 L 0 585 Z M 0 585 C -34 585 -63 597 -87 622 C -111 646 -124 676 -124 711 C -124 745 -111 774 -87 798 C -63 822 -34 835 0 835 C 35 835 65 822 89 798 C 113 774 126 745 126 711 C 126 676 113 646 89 622 C 65 597 35 585 0 585 Z M 1 648 C 18 648 32 654 44 666 C 56 678 62 693 62 711 C 62 727 56 742 44 754 C 32 766 18 773 1 773 C -15 773 -30 766 -42 754 C -54 742 -61 727 -61 711 C -61 693 -54 678 -42 666 C -30 654 -15 648 1 648 Z" unicode="̊" />
<glyph horiz-adv-x="0" d="M 0 601 L 0 601 Z M -182 601 L -107 759 L 1 759 L -92 601 L -182 601 Z M -1 601 L 75 759 L 182 759 L 89 601 L -1 601 Z" unicode="̋" />
<glyph horiz-adv-x="0" d="M 0 602 L 0 602 Z M -151 774 L -62 774 L 1 673 L 65 774 L 152 774 L 46 602 L -45 602 L -151 774 Z" unicode="̌" />
<glyph horiz-adv-x="0" d="M 0 -72 L 0 -72 Z M 92 -72 C 91 -97 87 -123 80 -149 C 73 -175 65 -199 55 -223 C 45 -247 34 -268 22 -287 C 10 -306 -1 -321 -13 -333 L -90 -299 C -82 -289 -74 -276 -66 -260 C -58 -244 -50 -225 -43 -205 C -35 -185 -29 -163 -24 -140 C -18 -117 -15 -94 -14 -72 L 92 -72 Z" unicode="̦" />
<glyph horiz-adv-x="0" d="M 0 0 L 0 0 Z M 6 -183 C -16 -183 -37 -180 -58 -174 C -79 -168 -96 -160 -109 -150 L -88 -110 C -80 -115 -69 -120 -56 -126 C -43 -131 -29 -134 -14 -134 C -1 -134 9 -131 18 -125 C 26 -119 31 -111 31 -102 C 31 -90 26 -82 18 -77 C 10 -72 1 -70 -8 -70 C -14 -70 -20 -70 -26 -71 C -32 -72 -37 -74 -42 -76 L -54 -59 L 1 14 L 54 14 L 11 -44 C 39 -41 62 -45 81 -56 C 100 -66 110 -84 110 -108 C 110 -132 99 -150 79 -163 C 59 -176 34 -183 6 -183 Z" unicode="̧" />
<glyph horiz-adv-x="0" d="M 0 0 L 0 0 Z M 97 -83 L 126 -126 C 105 -147 83 -163 59 -174 C 35 -185 9 -191 -20 -191 C -53 -191 -79 -183 -97 -169 C -115 -154 -125 -135 -125 -113 C -125 -88 -114 -65 -94 -44 C -74 -22 -44 -4 -6 11 L 43 11 C 16 -2 -3 -16 -17 -30 C -31 -44 -38 -58 -38 -72 C -38 -84 -33 -95 -24 -103 C -14 -111 -2 -115 13 -115 C 30 -115 46 -112 60 -106 C 74 -100 87 -92 97 -83 Z" unicode="̨" />
<glyph horiz-adv-x="564" d="M 0 0 L 0 0 Z M 593 0 L 0 0 L 276 731 L 320 731 L 593 0 Z M 457 80 L 293 554 L 131 80 L 457 80 Z" unicode="Δ" />
<glyph horiz-adv-x="724" d="M 27 0 L 27 0 Z M 36 0 L 36 94 L 245 94 L 245 157 C 213 166 183 180 156 199 C 129 217 106 239 87 265 C 68 290 53 318 43 349 C 32 380 27 412 27 446 C 27 488 34 527 50 564 C 65 600 87 632 116 659 C 144 686 180 707 222 723 C 264 739 311 747 363 747 C 417 747 465 739 508 723 C 551 707 587 685 617 658 C 646 631 668 599 684 563 C 699 526 707 487 707 446 C 707 378 688 318 651 266 C 614 213 560 177 488 157 L 488 94 L 697 94 L 697 0 L 414 0 L 414 212 C 443 220 469 232 492 248 C 514 264 533 282 549 302 C 564 322 575 344 583 368 C 591 392 595 416 595 441 C 595 473 589 502 578 529 C 566 556 550 579 530 599 C 510 618 485 633 457 644 C 428 655 397 661 364 661 C 298 661 244 640 202 598 C 160 556 139 503 139 439 C 139 391 154 345 184 303 C 214 261 260 230 320 212 L 320 0 L 36 0 Z" unicode="Ω" />
<glyph horiz-adv-x="588" d="M 71 0 L 71 0 Z M 71 -135 L 71 544 L 171 544 L 171 172 C 171 144 183 120 207 101 C 231 82 258 73 290 73 C 306 73 322 75 338 81 C 354 86 369 94 382 104 C 394 114 405 127 413 142 C 421 157 425 174 425 194 L 425 544 L 525 544 L 525 0 L 432 0 L 432 95 C 422 69 402 45 370 25 C 338 5 304 -5 270 -6 C 247 -6 225 -1 205 8 C 184 17 170 30 163 48 L 163 -135 L 71 -135 Z" unicode="μ" />
<glyph horiz-adv-x="569" d="M 185 466 L 185 0 L 84 0 L 84 466 L 15 466 L 15 544 L 554 544 L 554 466 L 481 466 L 481 0 L 380 0 L 380 466 L 185 466 Z" unicode="π" />
<glyph horiz-adv-x="775" d="M 5 0 L 5 0 Z M 758 730 L 584 -4 L 513 -4 L 382 531 L 249 -4 L 177 -4 L 5 730 L 112 730 L 227 204 L 349 730 L 425 730 L 548 205 L 662 730 L 758 730 Z M 387 787 L 387 787 Z M 492 787 L 393 787 L 281 956 L 399 956 L 492 787 Z" unicode="Ẁ" />
<glyph horiz-adv-x="626" d="M 0 0 L 0 0 Z M 410 -2 L 317 313 L 216 -2 L 145 -2 L 0 544 L 97 544 L 193 163 L 284 465 L 356 465 L 440 165 L 535 544 L 626 544 L 480 -2 L 410 -2 Z M 316 601 L 316 601 Z M 421 601 L 322 601 L 210 770 L 328 770 L 421 601 Z" unicode="ẁ" />
<glyph horiz-adv-x="775" d="M 5 0 L 5 0 Z M 758 730 L 584 -4 L 513 -4 L 382 531 L 249 -4 L 177 -4 L 5 730 L 112 730 L 227 204 L 349 730 L 425 730 L 548 205 L 662 730 L 758 730 Z M 387 790 L 387 790 Z M 282 790 L 374 959 L 492 959 L 381 790 L 282 790 Z" unicode="Ẃ" />
<glyph horiz-adv-x="626" d="M 0 0 L 0 0 Z M 410 -2 L 317 313 L 216 -2 L 145 -2 L 0 544 L 97 544 L 193 163 L 284 465 L 356 465 L 440 165 L 535 544 L 626 544 L 480 -2 L 410 -2 Z M 316 604 L 316 604 Z M 211 604 L 303 773 L 421 773 L 310 604 L 211 604 Z" unicode="ẃ" />
<glyph horiz-adv-x="775" d="M 5 0 L 5 0 Z M 758 730 L 584 -4 L 513 -4 L 382 531 L 249 -4 L 177 -4 L 5 730 L 112 730 L 227 204 L 349 730 L 425 730 L 548 205 L 662 730 L 758 730 Z M 387 788 L 387 788 Z M 511 788 L 428 788 L 428 947 L 511 947 L 511 788 Z M 346 788 L 263 788 L 263 947 L 346 947 L 346 788 Z" unicode="Ẅ" />
<glyph horiz-adv-x="626" d="M 0 0 L 0 0 Z M 410 -2 L 317 313 L 216 -2 L 145 -2 L 0 544 L 97 544 L 193 163 L 284 465 L 356 465 L 440 165 L 535 544 L 626 544 L 480 -2 L 410 -2 Z M 316 602 L 316 602 Z M 440 602 L 357 602 L 357 761 L 440 761 L 440 602 Z M 275 602 L 192 602 L 192 761 L 275 761 L 275 602 Z" unicode="ẅ" />
<glyph horiz-adv-x="533" d="M 0 0 L 0 0 Z M 536 730 L 319 311 L 319 0 L 209 0 L 209 314 L -3 730 L 123 730 L 271 420 L 428 730 L 536 730 Z M 271 787 L 271 787 Z M 376 787 L 277 787 L 165 956 L 283 956 L 376 787 Z" unicode="Ỳ" />
<glyph horiz-adv-x="417" d="M 0 0 L 0 0 Z M 422 544 L 215 -86 C 201 -124 181 -152 155 -171 C 129 -190 101 -200 72 -200 C 46 -200 25 -197 9 -192 C -6 -186 -17 -181 -23 -177 L 16 -98 C 19 -100 26 -103 36 -106 C 46 -109 55 -111 65 -111 C 79 -111 92 -105 104 -95 C 116 -85 126 -68 134 -46 L 161 42 L -5 544 L 100 544 L 212 176 L 324 544 L 422 544 Z M 212 601 L 212 601 Z M 317 601 L 218 601 L 106 770 L 224 770 L 317 601 Z" unicode="ỳ" />
<glyph horiz-adv-x="460" d="M 421 225 L 40 225 L 40 313 L 421 313 L 421 225 Z" unicode="–" />
<glyph horiz-adv-x="645" d="M 606 225 L 40 225 L 40 313 L 606 313 L 606 225 Z" unicode="—" />
<glyph horiz-adv-x="252" d="M 37 507 L 37 514 C 37 554 45 593 61 631 C 77 668 102 703 135 737 L 232 731 C 222 721 212 708 202 694 C 191 680 181 664 173 646 C 164 628 157 607 151 585 C 145 563 142 539 142 515 L 142 507 L 37 507 Z" unicode="‘" />
<glyph horiz-adv-x="252" d="M 214 737 L 214 730 C 214 689 205 650 189 613 C 173 576 149 541 117 507 L 19 513 C 29 523 39 536 50 551 C 60 565 70 582 79 600 C 87 618 95 637 101 659 C 107 681 110 704 110 729 L 110 737 L 214 737 Z" unicode="’" />
<glyph horiz-adv-x="252" d="M 214 113 L 214 106 C 214 66 205 27 189 -10 C 173 -47 149 -83 117 -117 L 19 -111 C 28 -100 38 -87 49 -73 C 59 -58 69 -42 78 -24 C 87 -6 95 13 101 35 C 107 57 110 80 110 105 L 110 113 L 214 113 Z" unicode="‚" />
<glyph horiz-adv-x="414" d="M 213 507 L 213 514 C 213 554 221 593 237 630 C 253 666 278 702 311 737 L 404 731 C 394 720 384 707 373 693 C 362 679 352 663 343 645 C 334 627 327 607 321 585 C 315 563 312 539 312 515 L 312 507 L 213 507 Z M 38 507 L 38 514 C 38 554 46 593 62 630 C 78 666 103 702 135 737 L 228 731 C 219 721 209 708 198 694 C 187 679 177 663 168 645 C 159 627 151 607 145 585 C 139 563 136 539 136 515 L 136 507 L 38 507 Z" unicode="“" />
<glyph horiz-adv-x="414" d="M 210 737 L 210 730 C 210 689 202 650 186 614 C 170 577 145 541 112 507 L 19 513 C 39 535 60 564 80 600 C 100 636 111 679 111 729 L 111 737 L 210 737 Z M 376 737 L 376 730 C 376 689 368 650 352 613 C 336 576 311 541 279 507 L 186 513 C 206 535 227 565 247 601 C 267 637 278 679 278 729 L 278 737 L 376 737 Z" unicode="”" />
<glyph horiz-adv-x="417" d="M 209 115 L 209 108 C 209 67 201 28 185 -8 C 169 -44 144 -80 112 -115 L 19 -109 C 29 -98 39 -85 50 -71 C 60 -56 70 -40 79 -22 C 88 -4 95 15 101 37 C 107 59 110 82 110 107 L 110 115 L 209 115 Z M 378 115 L 378 108 C 378 67 370 28 354 -8 C 338 -45 313 -81 281 -115 L 188 -109 C 208 -87 229 -57 249 -21 C 269 14 279 57 279 107 L 279 115 L 378 115 Z" unicode="„" />
<glyph horiz-adv-x="466" d="M 447 379 L 284 379 L 284 -179 L 177 -179 L 177 379 L 20 379 L 20 473 L 177 473 L 177 730 L 284 730 L 284 473 L 447 473 L 447 379 Z" unicode="†" />
<glyph horiz-adv-x="473" d="M 181 -179 L 181 108 L 28 108 L 28 202 L 181 202 L 181 381 L 28 381 L 28 475 L 181 475 L 181 730 L 287 730 L 287 475 L 445 475 L 445 381 L 287 381 L 287 202 L 445 202 L 445 108 L 287 108 L 287 -179 L 181 -179 Z" unicode="‡" />
<glyph horiz-adv-x="382" d="M 191 473 C 217 473 240 464 258 446 C 276 428 285 405 285 379 C 285 353 276 331 258 313 C 240 295 217 286 191 286 C 164 286 142 295 124 313 C 106 331 98 353 98 379 C 98 405 106 428 124 446 C 142 464 164 473 191 473 Z" unicode="•" />
<glyph horiz-adv-x="669" d="M 60 0 L 60 132 L 163 132 L 163 0 L 60 0 Z M 283 0 L 283 132 L 386 132 L 386 0 L 283 0 Z M 506 0 L 506 132 L 609 132 L 609 0 L 506 0 Z" unicode="…" />
<glyph horiz-adv-x="1084" d="M 186 357 C 167 357 148 361 130 369 C 112 377 96 390 82 406 C 68 422 57 442 49 466 C 40 490 36 517 36 548 C 36 574 39 599 47 623 C 54 646 64 666 78 684 C 91 701 107 715 125 725 C 143 735 162 740 184 740 C 206 740 227 734 246 724 C 264 714 280 700 294 683 C 307 666 317 646 325 623 C 332 600 336 576 336 551 C 336 523 332 498 324 474 C 316 450 306 430 293 413 C 279 395 263 382 245 372 C 227 362 207 357 186 357 Z M 100 0 L 547 730 L 635 730 L 188 0 L 100 0 Z M 117 548 C 117 516 122 490 133 468 C 144 446 161 435 185 435 C 210 435 228 446 238 468 C 248 490 254 517 254 548 C 254 578 249 604 239 627 C 229 649 211 661 187 661 C 162 661 144 649 133 627 C 122 605 117 578 117 548 Z M 561 -3 C 541 -3 523 1 505 9 C 487 17 471 30 457 46 C 443 62 431 82 423 106 C 414 130 410 157 410 188 C 410 214 413 239 421 263 C 429 286 439 306 452 324 C 465 341 481 355 500 365 C 518 375 539 380 561 380 C 584 380 605 374 624 364 C 642 354 658 340 672 323 C 685 306 695 286 702 263 C 709 240 713 216 713 191 C 713 164 709 139 702 115 C 694 91 684 71 671 53 C 657 35 641 22 623 12 C 604 2 583 -3 561 -3 Z M 897 -3 C 877 -3 858 1 840 9 C 822 17 806 30 792 46 C 778 62 766 82 758 106 C 749 130 745 157 745 188 C 745 214 748 239 756 263 C 764 286 774 306 788 324 C 801 341 817 355 836 365 C 854 375 875 380 897 380 C 919 380 940 374 959 364 C 977 354 993 340 1007 323 C 1020 306 1030 286 1037 263 C 1044 240 1048 216 1048 191 C 1048 164 1044 139 1037 115 C 1029 91 1019 71 1006 53 C 992 35 976 22 958 12 C 939 2 919 -3 897 -3 Z M 559 76 C 584 76 602 87 614 109 C 625 131 631 157 631 188 C 631 218 625 245 614 268 C 603 291 585 303 561 303 C 538 303 521 291 509 269 C 497 246 492 219 492 188 C 492 156 497 130 508 108 C 519 86 536 76 559 76 Z M 895 76 C 920 76 938 87 949 109 C 960 131 966 157 966 188 C 966 218 960 245 950 268 C 939 291 921 303 897 303 C 874 303 857 291 845 269 C 833 246 827 219 827 188 C 827 156 832 130 844 108 C 855 86 872 76 895 76 Z" unicode="‰" />
<glyph horiz-adv-x="242" d="M 213 110 L 27 279 L 27 337 L 213 504 L 213 405 L 115 305 L 213 212 L 213 110 Z" unicode="‹" />
<glyph horiz-adv-x="243" d="M 29 505 L 216 336 L 216 279 L 29 112 L 29 210 L 127 309 L 29 403 L 29 505 Z" unicode="›" />
<glyph horiz-adv-x="145" d="M 304 730 L -60 0 L -145 0 L 219 730 L 304 730 Z" unicode="⁄" />
<glyph horiz-adv-x="328" d="M 14 453 L 14 514 L 198 737 L 256 737 L 256 518 L 316 518 L 316 453 L 256 453 L 256 373 L 173 373 L 173 453 L 14 453 Z M 93 512 L 175 512 L 175 614 L 93 512 Z" unicode="⁴" />
<glyph horiz-adv-x="505" d="M 492 115 C 474 77 448 47 414 23 C 379 0 341 -12 299 -12 C 243 -12 195 11 156 57 C 116 103 90 168 78 254 L 29 254 L 29 326 L 72 326 C 71 331 71 337 71 343 C 71 349 71 355 71 361 C 71 367 71 374 71 380 C 71 386 71 393 72 399 L 29 399 L 29 471 L 78 471 C 88 554 112 620 150 669 C 187 717 236 742 298 742 C 350 742 390 730 420 706 C 450 682 471 655 485 625 L 411 583 C 400 605 386 623 369 635 C 352 647 329 653 301 653 C 269 653 242 637 220 607 C 198 576 182 531 174 471 L 447 471 L 447 399 L 168 399 C 167 392 167 385 167 379 C 167 372 167 365 167 359 C 167 353 167 348 167 342 C 167 336 167 330 168 326 L 447 326 L 447 254 L 174 254 C 183 192 200 146 224 118 C 248 89 274 75 304 75 C 332 75 356 83 375 100 C 394 117 409 138 420 163 L 492 115 Z" unicode="€" />
<glyph horiz-adv-x="852" d="M 801 320 L 714 320 L 714 581 L 588 390 L 572 390 L 448 581 L 448 320 L 363 320 L 363 730 L 441 730 L 582 513 L 730 730 L 801 730 L 801 320 Z M 334 631 L 231 631 L 231 320 L 126 320 L 126 631 L 20 631 L 20 730 L 334 730 L 334 631 Z" unicode="™" />
<glyph horiz-adv-x="734" d="M 36 0 L 36 94 L 245 94 L 245 157 C 213 166 183 180 156 199 C 129 217 106 239 87 265 C 68 290 53 318 43 349 C 32 380 27 412 27 446 C 27 488 34 527 50 564 C 65 600 87 632 116 659 C 144 686 180 707 222 723 C 264 739 311 747 363 747 C 417 747 465 739 508 723 C 551 707 587 685 617 658 C 646 631 668 599 684 563 C 699 526 707 487 707 446 C 707 378 688 318 651 266 C 614 213 560 177 488 157 L 488 94 L 697 94 L 697 0 L 414 0 L 414 212 C 443 220 469 232 492 248 C 514 264 533 282 549 302 C 564 322 575 344 583 368 C 591 392 595 416 595 441 C 595 473 589 502 578 529 C 566 556 550 579 530 599 C 510 618 485 633 457 644 C 428 655 397 661 364 661 C 298 661 244 640 202 598 C 160 556 139 503 139 439 C 139 391 154 345 184 303 C 214 261 260 230 320 212 L 320 0 L 36 0 Z" unicode="Ω" />
<glyph horiz-adv-x="509" d="M 469 286 C 469 233 463 188 451 151 C 439 113 424 83 404 59 C 384 35 361 18 335 7 C 308 -3 280 -9 250 -9 C 222 -9 195 -4 169 6 C 143 16 119 30 99 50 C 79 70 62 94 50 123 C 38 151 32 184 32 222 C 32 256 37 287 48 317 C 58 346 73 371 91 392 C 109 413 131 429 156 441 C 180 453 207 459 235 459 C 271 459 300 451 324 437 C 347 423 365 403 378 379 C 371 439 359 491 341 535 C 323 579 302 615 279 643 C 255 671 230 692 204 706 C 178 720 152 727 128 729 L 176 802 C 201 802 231 792 265 773 C 299 754 331 724 361 683 C 391 641 416 588 437 522 C 458 456 469 378 469 286 Z M 249 72 C 285 72 313 86 333 114 C 353 142 363 181 363 231 C 363 275 353 310 334 336 C 314 362 286 376 249 376 C 215 376 187 362 167 336 C 147 309 137 272 137 224 C 137 173 147 135 167 110 C 187 84 214 72 249 72 Z" unicode="∂" />
<glyph horiz-adv-x="593" d="M 593 0 L 0 0 L 276 731 L 320 731 L 593 0 Z M 457 80 L 293 554 L 131 80 L 457 80 Z" unicode="∆" />
<glyph horiz-adv-x="665" d="M 225 639 L 225 0 L 120 0 L 120 639 L 15 639 L 15 730 L 650 730 L 650 639 L 551 639 L 551 0 L 446 0 L 446 639 L 225 639 Z" unicode="∏" />
<glyph horiz-adv-x="566" d="M 186 637 L 404 307 L 153 -86 L 529 -86 L 529 -179 L -18 -179 L 298 306 L 12 730 L 508 730 L 508 637 L 186 637 Z" unicode="∑" />
<glyph horiz-adv-x="484" d="M 444 289 L 40 289 L 40 375 L 444 375 L 444 289 Z" unicode="−" />
<glyph horiz-adv-x="510" d="M 504 730 L 198 0 L 186 0 L 12 330 L 84 385 L 204 143 L 440 730 L 504 730 Z" unicode="√" />
<glyph horiz-adv-x="342" d="M 105 -21 L 162 625 C 164 644 169 661 177 676 C 185 690 194 702 206 712 C 217 722 229 729 243 734 C 257 739 270 742 284 742 C 298 742 311 741 325 740 C 339 739 347 738 350 738 L 342 649 C 340 649 336 650 330 651 C 324 651 318 652 312 652 C 293 652 278 645 266 633 C 254 620 247 600 245 574 L 190 -57 C 187 -89 174 -117 151 -142 C 127 -167 98 -179 62 -179 C 42 -179 24 -177 7 -173 C -9 -169 -22 -164 -31 -160 L -20 -89 C -16 -89 -9 -91 0 -94 C 10 -96 19 -98 28 -98 C 47 -98 64 -91 79 -78 C 93 -64 102 -45 105 -21 Z" unicode="∫" />
<glyph horiz-adv-x="478" d="M 375 502 L 449 502 C 447 454 438 414 422 384 C 405 353 379 338 345 338 C 323 338 302 342 283 351 C 264 360 248 370 236 382 C 223 393 210 403 198 412 C 186 420 173 425 159 425 C 146 425 133 417 121 401 C 108 385 102 365 102 341 L 29 341 C 29 391 39 430 59 460 C 79 489 106 504 140 504 C 162 504 183 498 203 487 C 222 476 238 465 251 454 C 263 444 275 434 287 426 C 299 418 311 414 324 414 C 342 414 355 421 363 436 C 371 451 375 473 375 502 Z M 375 323 L 449 323 C 447 275 438 235 422 204 C 405 173 379 158 345 158 C 323 158 302 162 283 171 C 264 179 248 190 236 203 C 223 215 211 224 199 232 C 187 240 175 244 161 244 C 147 244 134 236 121 222 C 108 207 102 187 102 161 L 29 161 C 29 211 39 250 59 280 C 79 310 106 325 140 325 C 162 325 183 319 202 307 C 220 295 236 283 249 271 C 261 260 274 251 286 244 C 298 236 311 233 324 233 C 342 233 355 240 363 255 C 371 269 375 292 375 323 Z" unicode="≈" />
<glyph horiz-adv-x="478" d="M 436 172 L 222 172 L 177 64 L 115 84 L 151 172 L 58 172 L 58 255 L 185 255 L 241 389 L 58 389 L 58 472 L 275 472 L 319 579 L 381 558 L 345 472 L 436 472 L 436 389 L 311 389 L 256 255 L 436 255 L 436 172 Z" unicode="≠" />
<glyph horiz-adv-x="478" d="M 54 292 L 54 357 L 423 556 L 423 469 L 153 327 L 422 187 L 422 100 L 54 292 Z M 53 94 L 422 94 L 422 21 L 53 21 L 53 94 Z" unicode="≤" />
<glyph horiz-adv-x="478" d="M 421 292 L 53 100 L 53 187 L 321 327 L 52 469 L 52 556 L 421 357 L 421 292 Z M 422 94 L 422 21 L 53 21 L 53 94 L 422 94 Z" unicode="≥" />
<glyph horiz-adv-x="537" d="M 508 326 L 274 -19 L 263 -19 L 29 326 L 29 337 L 263 681 L 274 681 L 508 337 L 508 326 Z M 413 327 L 413 336 L 273 547 L 265 547 L 124 336 L 124 327 L 265 115 L 273 115 L 413 327 Z" unicode="◊" />
<glyph horiz-adv-x="730" d="M 448 673 L 282 673 L 282 730 L 448 730 L 448 673 Z M 659 282 L 600 282 L 600 448 L 659 448 L 659 282 Z M 130 282 L 71 282 L 71 448 L 130 448 L 130 282 Z M 433 297 L 297 297 L 297 433 L 433 433 L 433 297 Z M 448 0 L 282 0 L 282 58 L 448 58 L 448 0 Z" unicode="" />
<glyph horiz-adv-x="503" d="M 281 442 L 182 442 L 182 0 L 82 0 L 82 442 L 16 442 L 16 522 L 82 522 L 82 628 C 82 655 86 679 96 701 C 105 723 117 741 132 756 C 146 770 163 782 181 790 C 199 798 218 802 237 802 C 255 802 274 799 292 795 C 310 791 322 786 330 782 L 303 705 C 298 707 290 709 280 712 C 269 715 259 717 251 717 C 234 717 218 709 203 694 C 188 679 181 655 181 622 L 181 522 L 281 522 L 281 442 Z M 449 619 L 343 619 L 343 712 L 449 712 L 449 619 Z M 447 0 L 345 0 L 345 522 L 447 522 L 447 0 Z" unicode="ﬁ" />
<glyph horiz-adv-x="531" d="M 283 455 L 181 455 L 181 0 L 81 0 L 81 455 L 9 455 L 9 544 L 81 544 L 81 628 C 81 655 85 679 95 701 C 104 723 116 741 131 756 C 145 770 162 782 180 790 C 198 798 217 802 236 802 C 254 802 273 799 291 795 C 309 791 321 786 329 782 L 302 705 C 297 707 289 709 279 712 C 269 715 259 717 250 717 C 233 717 217 709 202 694 C 187 679 180 655 180 622 L 180 544 L 283 544 L 283 455 Z M 338 117 L 338 800 L 439 800 L 439 140 C 439 122 443 109 451 100 C 459 91 472 87 489 87 C 495 87 501 87 507 88 C 513 88 517 89 520 91 L 531 6 C 524 3 515 0 503 -1 C 491 -3 478 -5 464 -5 C 430 -5 400 5 375 26 C 350 46 338 77 338 117 Z" unicode="ﬂ" />
</font>
</defs>
</svg>
