<?xml version="1.0" encoding="utf-8" ?><svg version="1.1" xmlns = 'http://www.w3.org/2000/svg'><defs><font id='web' horiz-adv-x="1000">
<font-face font-family="web" descent="-200" cap-height="730" units-per-em="1000" bbox="-226,-335,1010,1026" x-height="436" ascent="800" />
<missing-glyph horiz-adv-x="500" d="" /><glyph horiz-adv-x="170" d="" unicode=" " />
<glyph horiz-adv-x="259" d="M 216 420 L 161 236 L 95 236 L 43 420 L 43 730 L 216 730 L 216 420 Z M 207 0 L 52 0 L 52 156 L 207 156 L 207 0 Z" unicode="!" />
<glyph horiz-adv-x="402" d="M 365 624 L 356 467 L 232 467 L 226 623 L 226 730 L 365 730 L 365 624 Z M 176 623 L 170 467 L 44 467 L 37 623 L 37 730 L 176 730 L 176 623 Z" unicode="&#x22;" />
<glyph horiz-adv-x="565" d="M 307 0 L 323 181 L 211 181 L 195 0 L 98 0 L 114 181 L 33 181 L 33 319 L 126 319 L 134 408 L 50 408 L 50 546 L 146 546 L 162 730 L 259 730 L 243 546 L 355 546 L 371 730 L 467 730 L 451 546 L 533 546 L 533 408 L 439 408 L 431 319 L 516 319 L 516 181 L 419 181 L 403 0 L 307 0 Z M 223 319 L 335 319 L 343 408 L 231 408 L 223 319 Z" unicode="#" />
<glyph horiz-adv-x="482" d="M 452 196 C 452 167 447 141 438 119 C 429 96 417 76 402 60 C 386 44 369 31 349 21 C 329 11 307 4 285 0 L 285 -135 L 204 -135 L 204 -4 C 166 -2 131 5 99 18 C 67 30 38 53 10 85 L 84 176 C 98 157 117 142 141 132 C 164 122 187 117 210 117 C 233 117 255 123 275 136 C 295 149 305 170 305 199 C 305 225 296 245 279 261 C 262 277 232 297 189 323 C 169 335 149 348 131 362 C 112 376 95 391 81 409 C 67 426 55 446 47 469 C 39 492 35 519 35 549 C 35 598 51 639 83 671 C 115 703 156 723 204 731 L 204 795 L 285 795 L 285 733 C 320 729 350 721 375 708 C 399 695 420 680 436 664 L 355 569 C 342 581 327 592 311 600 C 294 608 277 612 261 612 C 242 612 225 605 209 593 C 193 580 185 563 185 542 C 185 522 192 505 205 490 C 217 475 247 454 294 428 C 348 397 387 365 413 332 C 439 299 452 254 452 196 Z" unicode="$" />
<glyph horiz-adv-x="702" d="M 173 361 C 155 361 137 364 119 372 C 101 380 85 391 71 407 C 57 423 45 442 37 466 C 28 490 24 517 24 549 C 24 602 38 647 66 683 C 94 719 128 738 168 738 C 190 738 211 733 230 723 C 249 713 265 699 279 683 C 293 666 303 646 311 624 C 319 601 323 577 323 552 C 323 525 319 500 311 477 C 303 453 292 433 278 416 C 264 398 248 385 230 375 C 212 365 193 361 173 361 Z M 185 0 L 104 0 L 496 730 L 577 730 L 185 0 Z M 173 469 C 187 469 196 476 199 492 C 202 508 204 527 204 550 C 204 572 202 591 199 607 C 196 623 188 631 174 631 C 159 631 150 622 147 606 C 143 590 142 571 142 550 C 142 528 143 509 146 493 C 149 477 158 469 173 469 Z M 524 -4 C 506 -4 487 0 469 7 C 451 15 434 26 420 42 C 406 58 394 77 385 101 C 376 125 372 152 372 184 C 372 237 386 282 416 318 C 445 354 482 373 527 373 C 550 373 571 368 590 358 C 608 348 624 334 638 318 C 651 301 661 281 668 259 C 675 236 679 212 679 187 C 679 160 675 135 667 112 C 659 88 649 68 635 51 C 621 33 605 20 586 10 C 567 0 546 -4 524 -4 Z M 524 105 C 538 105 548 112 553 127 C 557 141 560 160 560 184 C 560 208 557 227 553 243 C 548 258 539 266 525 266 C 514 266 506 258 500 243 C 494 227 491 208 491 184 C 491 160 493 141 498 127 C 502 112 511 105 524 105 Z" unicode="%" />
<glyph horiz-adv-x="634" d="M 537 -6 L 478 60 C 449 37 417 20 381 9 C 345 -2 306 -8 262 -8 C 180 -8 119 10 78 47 C 36 83 16 134 16 198 C 16 256 30 300 58 331 C 86 362 122 389 164 413 C 147 431 130 454 114 481 C 97 507 89 539 89 575 C 89 595 92 614 100 634 C 108 654 119 671 135 686 C 150 701 169 713 193 723 C 217 732 245 737 277 737 C 335 737 382 722 420 692 C 457 662 476 628 476 588 C 476 548 465 512 444 481 C 422 450 392 421 354 393 L 480 256 C 486 268 493 281 501 295 C 508 309 515 323 523 339 L 627 264 C 617 244 608 226 598 208 C 588 190 577 174 567 160 L 632 89 L 537 -6 Z M 236 567 C 236 555 238 541 244 526 C 250 510 260 495 275 480 C 297 496 311 512 317 526 C 323 540 327 554 327 568 C 327 581 323 594 316 606 C 309 618 297 625 280 625 C 264 625 252 618 246 606 C 239 593 236 580 236 567 Z M 187 208 C 187 180 197 158 219 142 C 241 125 265 117 291 117 C 311 117 329 120 347 126 C 364 132 380 141 396 153 L 247 320 C 227 304 212 287 202 269 C 192 251 187 230 187 208 Z" unicode="&#x26;" />
<glyph horiz-adv-x="218" d="M 182 619 L 176 460 L 42 460 L 36 619 L 36 730 L 182 730 L 182 619 Z" unicode="'" />
<glyph horiz-adv-x="305" d="M 291 -78 L 291 -179 C 257 -165 224 -144 191 -118 C 158 -92 129 -59 103 -20 C 77 18 55 64 39 117 C 23 169 15 228 15 293 C 15 355 22 412 37 464 C 51 515 71 560 96 598 C 120 636 149 667 183 693 C 217 718 253 737 291 749 L 291 651 C 254 630 225 592 204 537 C 182 482 171 401 171 293 C 171 197 180 120 199 60 C 218 0 249 -45 291 -78 Z" unicode="(" />
<glyph horiz-adv-x="305" d="M 15 652 L 15 749 C 51 737 86 719 120 694 C 154 668 183 637 208 599 C 233 561 253 516 268 464 C 283 412 291 353 291 289 C 291 225 283 168 267 117 C 251 65 230 20 204 -18 C 178 -57 149 -90 116 -117 C 82 -143 49 -164 15 -179 L 15 -77 C 55 -45 85 0 105 59 C 124 118 134 195 134 289 C 134 397 124 479 103 535 C 82 591 53 630 15 652 Z" unicode=")" />
<glyph horiz-adv-x="370" d="M 352 586 L 245 547 L 319 465 L 258 415 L 188 506 L 119 416 L 55 464 L 131 549 L 20 580 L 55 664 L 153 616 L 145 730 L 231 730 L 222 616 L 322 661 L 352 586 Z" unicode="*" />
<glyph horiz-adv-x="449" d="M 433 271 L 287 271 L 287 125 L 162 125 L 162 271 L 16 271 L 16 391 L 162 391 L 162 537 L 287 537 L 287 391 L 433 391 L 433 271 Z" unicode="+" />
<glyph horiz-adv-x="253" d="M 227 128 C 227 103 224 76 216 47 C 208 17 198 -10 187 -36 C 175 -62 163 -86 150 -106 C 137 -126 126 -139 117 -145 L -1 -93 C 6 -83 14 -70 22 -54 C 30 -38 37 -20 43 0 C 49 20 55 41 59 63 C 63 85 66 107 67 128 L 227 128 Z" unicode="," />
<glyph horiz-adv-x="322" d="M 296 189 L 26 189 L 26 330 L 296 330 L 296 189 Z" unicode="-" />
<glyph horiz-adv-x="255" d="M 206 0 L 49 0 L 49 160 L 206 160 L 206 0 Z" unicode="." />
<glyph horiz-adv-x="329" d="M 336 730 L 137 0 L -6 0 L 195 730 L 336 730 Z" unicode="/" />
<glyph horiz-adv-x="453" d="M 223 -6 C 193 -6 166 0 141 11 C 115 23 94 43 76 71 C 58 99 43 137 33 185 C 23 232 18 291 18 362 C 18 481 34 573 68 639 C 101 704 154 737 227 737 C 302 737 355 704 387 640 C 419 576 435 486 435 372 C 435 247 417 153 383 89 C 349 25 295 -6 223 -6 Z M 225 112 C 235 112 243 115 250 121 C 256 127 262 139 266 157 C 270 175 274 200 276 232 C 278 264 279 306 279 358 C 279 410 278 453 277 487 C 275 520 273 546 269 565 C 265 583 259 596 252 603 C 245 610 236 614 226 614 C 216 614 207 610 200 604 C 193 598 188 585 184 567 C 180 549 177 523 175 490 C 173 456 173 413 173 361 C 173 307 174 264 176 232 C 178 199 181 174 185 156 C 189 138 195 127 202 121 C 208 115 216 112 225 112 Z" unicode="0" />
<glyph horiz-adv-x="321" d="M 283 0 L 121 0 L 121 522 C 107 503 91 487 72 475 C 52 463 35 456 21 456 L 21 608 C 30 608 41 612 53 620 C 65 628 77 639 89 651 C 101 663 112 677 122 692 C 132 706 139 721 145 735 L 283 735 L 283 0 Z" unicode="1" />
<glyph horiz-adv-x="444" d="M 420 0 L 9 0 L 9 37 L 208 361 C 228 395 243 426 253 456 C 263 486 268 515 268 543 C 268 565 263 581 253 593 C 243 605 227 611 207 611 C 185 611 169 602 161 586 C 152 569 148 547 148 519 L 15 519 C 15 591 32 646 67 682 C 102 718 150 736 210 736 C 270 736 320 719 358 687 C 396 655 416 610 416 552 C 416 496 408 452 394 419 C 380 385 363 353 345 323 L 223 133 L 420 133 L 420 0 Z" unicode="2" />
<glyph horiz-adv-x="443" d="M 203 -6 C 153 -6 111 1 79 17 C 47 32 21 51 3 73 L 63 167 C 75 152 90 139 108 129 C 125 118 147 113 174 113 C 193 113 209 116 223 123 C 237 130 248 139 256 150 C 264 161 270 174 274 188 C 278 202 280 216 280 230 C 280 266 269 292 247 307 C 225 321 201 329 176 329 L 112 329 L 112 460 L 181 460 C 205 460 226 466 244 479 C 261 491 270 511 270 538 C 270 557 264 574 252 590 C 240 606 221 614 194 614 C 168 614 147 608 129 597 C 111 586 96 573 84 558 L 21 642 C 27 650 36 660 48 672 C 59 683 73 693 89 703 C 105 712 124 720 146 727 C 167 733 191 737 217 737 C 276 737 322 721 355 691 C 388 660 405 620 405 571 C 405 545 401 523 394 503 C 386 483 377 467 366 453 C 355 439 343 427 329 418 C 315 409 302 403 290 399 C 328 390 360 370 387 340 C 413 309 427 269 427 221 C 427 195 423 169 416 143 C 409 116 397 92 380 70 C 363 48 340 29 311 15 C 282 1 246 -6 203 -6 Z" unicode="3" />
<glyph horiz-adv-x="439" d="M 438 175 L 387 175 L 387 0 L 252 0 L 252 175 L 1 175 L 1 273 L 289 735 L 388 735 L 387 304 L 438 304 L 438 175 Z M 252 299 L 252 472 L 148 299 L 252 299 Z" unicode="4" />
<glyph horiz-adv-x="437" d="M 217 -6 C 170 -6 126 3 86 21 C 46 39 17 59 -1 81 L 76 184 C 86 169 101 156 120 144 C 139 132 162 126 190 126 C 219 126 240 136 254 158 C 267 180 274 209 274 246 C 274 280 268 306 257 324 C 245 342 229 352 208 352 C 184 352 167 347 157 338 C 146 328 137 316 131 300 L 25 323 L 58 730 L 392 730 L 392 597 L 169 597 L 158 438 C 164 446 175 454 190 463 C 204 471 227 476 258 476 C 308 476 349 458 381 424 C 413 389 429 333 429 256 C 429 210 423 171 411 138 C 399 105 383 78 363 57 C 343 35 321 19 295 9 C 269 0 243 -6 217 -6 Z" unicode="5" />
<glyph horiz-adv-x="440" d="M 233 -6 C 204 -6 176 -1 150 8 C 124 18 101 32 81 52 C 61 71 45 95 33 125 C 21 155 15 189 15 229 C 15 267 19 303 28 339 C 36 374 48 408 63 442 C 78 475 96 507 116 539 C 136 571 157 602 179 634 L 261 748 L 375 688 L 332 623 C 294 565 260 516 232 477 C 204 438 182 407 168 384 C 178 398 193 409 211 419 C 229 429 248 434 270 434 C 314 434 351 415 383 377 C 415 339 431 287 431 221 C 431 187 425 157 415 129 C 405 101 391 77 374 57 C 356 37 335 21 311 10 C 287 0 261 -6 233 -6 Z M 227 114 C 243 114 256 122 266 138 C 276 154 281 180 281 216 C 281 257 275 284 265 298 C 254 311 241 318 227 318 C 211 318 198 311 187 297 C 176 283 171 257 171 220 C 171 178 176 149 188 135 C 199 121 212 114 227 114 Z" unicode="6" />
<glyph horiz-adv-x="381" d="M 389 730 L 389 656 L 139 -7 L 17 41 L 232 597 L 12 597 L 12 730 L 389 730 Z" unicode="7" />
<glyph horiz-adv-x="453" d="M 320 396 C 333 392 347 385 361 377 C 375 368 387 356 399 341 C 411 326 420 307 428 285 C 436 263 440 237 440 207 C 440 139 421 87 383 50 C 345 12 292 -6 225 -6 C 160 -6 108 12 70 49 C 32 86 13 138 13 204 C 13 234 17 261 25 283 C 33 305 43 324 55 340 C 67 355 80 367 94 376 C 108 385 120 392 132 396 C 109 404 87 421 66 446 C 45 470 35 508 35 558 C 35 587 40 613 50 635 C 60 657 73 676 90 691 C 107 705 127 716 151 724 C 174 732 199 736 226 736 C 284 736 330 720 365 689 C 399 657 417 616 417 565 C 417 540 414 518 408 500 C 402 481 394 465 385 452 C 375 438 365 427 353 418 C 341 408 330 401 320 396 Z M 226 438 C 241 438 254 444 264 457 C 274 469 280 493 280 528 C 280 560 274 583 264 597 C 254 610 241 617 226 617 C 210 617 197 610 187 598 C 176 586 171 563 171 529 C 171 491 177 466 189 455 C 201 443 213 438 226 438 Z M 228 113 C 244 113 258 120 269 134 C 280 148 286 175 286 215 C 286 252 280 278 268 294 C 256 310 243 318 228 318 C 210 318 196 310 184 295 C 172 280 167 253 167 214 C 167 177 173 151 185 136 C 197 120 212 113 228 113 Z" unicode="8" />
<glyph horiz-adv-x="440" d="M 192 -11 L 77 50 L 113 107 C 127 127 142 149 159 172 C 176 195 193 217 209 239 C 225 261 240 281 254 300 C 268 319 278 335 286 347 C 272 330 254 316 231 306 C 208 296 186 291 165 291 C 121 291 84 311 54 352 C 24 393 9 446 9 510 C 9 544 14 575 25 603 C 36 631 51 654 70 674 C 89 693 111 708 136 719 C 161 730 188 736 216 736 C 242 736 268 731 294 721 C 319 711 341 697 361 677 C 381 657 396 633 408 603 C 420 573 426 537 426 496 C 426 457 421 420 412 384 C 403 348 391 313 376 279 C 360 245 343 213 323 181 C 303 149 283 118 262 88 L 192 -11 Z M 212 413 C 226 413 239 419 251 433 C 263 446 269 472 269 510 C 269 552 263 579 252 593 C 241 607 228 614 214 614 C 197 614 184 606 174 591 C 164 575 159 550 159 515 C 159 474 164 447 174 433 C 184 419 196 413 212 413 Z" unicode="9" />
<glyph horiz-adv-x="244" d="M 201 284 L 43 284 L 43 436 L 201 436 L 201 284 Z M 201 0 L 43 0 L 43 153 L 201 153 L 201 0 Z" unicode=":" />
<glyph horiz-adv-x="244" d="M 209 284 L 54 284 L 54 436 L 209 436 L 209 284 Z M 210 120 C 209 93 205 65 198 36 C 191 7 182 -19 172 -44 C 162 -69 151 -91 139 -109 C 127 -127 117 -139 107 -145 L -11 -93 C -3 -83 4 -71 13 -55 C 21 -39 29 -22 36 -3 C 43 15 49 35 53 57 C 57 78 58 99 58 120 L 210 120 Z" unicode=";" />
<glyph horiz-adv-x="328" d="M 288 102 L 25 271 L 25 378 L 288 545 L 288 398 L 174 326 L 288 253 L 288 102 Z" unicode="&#x3C;" />
<glyph horiz-adv-x="453" d="M 408 374 L 46 374 L 46 509 L 408 509 L 408 374 Z M 408 148 L 46 148 L 46 282 L 408 282 L 408 148 Z" unicode="=" />
<glyph horiz-adv-x="328" d="M 303 271 L 40 102 L 40 253 L 147 326 L 40 398 L 40 545 L 303 378 L 303 271 Z" unicode="&#x3E;" />
<glyph horiz-adv-x="441" d="M 134 238 C 134 267 140 295 152 321 C 164 347 180 373 201 400 C 217 421 230 442 241 464 C 251 486 257 509 257 534 C 257 556 250 574 236 587 C 222 600 206 607 187 607 C 167 607 151 601 137 590 C 123 579 111 565 102 549 L 10 638 C 36 674 68 700 106 717 C 144 733 182 742 221 742 C 290 742 341 724 374 689 C 406 653 423 609 423 557 C 423 506 412 463 392 429 C 372 394 349 359 323 325 C 311 311 302 297 296 281 C 289 265 285 250 284 238 L 134 238 Z M 127 0 L 127 161 L 298 161 L 298 0 L 127 0 Z" unicode="?" />
<glyph horiz-adv-x="780" d="M 384 -64 C 328 -64 277 -54 232 -34 C 187 -14 149 12 118 46 C 87 80 63 120 47 166 C 30 212 22 261 22 313 C 22 365 30 414 48 460 C 65 506 90 547 122 581 C 154 615 192 641 238 661 C 284 681 335 691 391 691 C 505 691 595 659 661 597 C 726 535 759 450 759 344 C 759 299 753 261 741 230 C 729 199 715 174 698 155 C 681 135 663 121 644 113 C 624 104 607 100 592 100 C 563 100 539 105 521 117 C 502 128 488 144 479 166 C 465 149 447 134 426 120 C 405 106 377 100 342 100 C 290 100 252 113 230 140 C 207 166 196 200 196 240 C 196 263 202 283 215 301 C 227 319 243 333 262 345 C 281 357 302 366 326 372 C 349 378 371 381 393 381 L 461 381 L 461 389 C 461 407 456 422 447 432 C 437 442 418 448 390 448 C 365 448 343 444 325 437 C 306 430 291 424 281 420 L 241 507 C 259 516 281 524 307 530 C 333 536 362 539 395 539 C 447 539 489 527 522 503 C 554 479 571 435 571 373 L 571 229 C 571 219 573 211 579 205 C 585 198 594 195 606 195 C 618 195 631 206 646 226 C 661 246 669 284 669 341 C 669 422 644 487 596 535 C 548 583 479 607 391 607 C 347 607 308 599 274 584 C 239 568 210 547 186 521 C 162 495 144 464 132 428 C 119 392 113 353 113 313 C 113 273 119 234 131 198 C 143 162 161 130 185 103 C 208 76 237 55 271 39 C 305 23 343 15 387 15 C 407 15 426 16 443 20 C 459 23 479 30 501 41 L 532 -31 C 504 -43 479 -52 457 -57 C 434 -61 410 -64 384 -64 Z M 378 192 C 398 192 415 196 429 204 C 443 212 453 220 459 229 L 459 305 L 389 305 C 370 305 354 300 341 290 C 328 280 322 267 322 251 C 322 232 326 217 335 207 C 344 197 358 192 378 192 Z" unicode="@" />
<glyph horiz-adv-x="510" d="M 515 0 L 354 0 L 323 123 L 179 123 L 151 0 L -5 0 L 197 733 L 315 733 L 515 0 Z M 305 250 L 251 450 L 199 250 L 305 250 Z" unicode="A" />
<glyph horiz-adv-x="494" d="M 35 0 L 35 730 L 270 730 C 322 730 365 714 400 683 C 435 652 453 609 453 554 C 453 505 440 467 415 441 C 389 414 360 397 328 391 C 345 389 363 383 381 375 C 399 367 415 355 429 341 C 443 326 455 308 465 286 C 474 264 479 238 479 209 C 479 176 473 147 463 121 C 453 95 439 73 421 55 C 403 37 381 24 357 14 C 332 4 306 0 279 0 L 35 0 Z M 197 438 L 232 438 C 257 438 274 447 283 467 C 292 487 297 507 297 527 C 297 549 292 567 284 581 C 275 595 255 602 224 602 L 197 602 L 197 438 Z M 197 127 L 245 127 C 271 127 290 135 301 152 C 311 168 317 190 317 217 C 317 251 310 276 297 292 C 283 307 262 315 234 315 L 197 315 L 197 127 Z" unicode="B" />
<glyph horiz-adv-x="500" d="M 271 -6 C 195 -6 135 25 90 87 C 44 149 22 242 22 366 C 22 422 27 474 38 520 C 48 566 64 605 85 637 C 106 669 133 693 165 710 C 197 727 233 736 275 736 C 343 736 393 720 424 689 C 455 657 477 619 490 573 L 348 537 C 342 553 334 568 325 582 C 316 595 301 602 281 602 C 267 602 254 598 243 591 C 232 584 223 572 215 554 C 207 536 201 512 197 481 C 193 450 191 411 191 363 C 191 314 194 274 200 244 C 206 213 213 189 223 172 C 233 154 244 143 256 137 C 268 131 281 128 294 128 C 316 128 333 133 343 143 C 353 153 361 167 367 183 L 492 147 C 476 99 449 61 413 34 C 376 7 329 -6 271 -6 Z" unicode="C" />
<glyph horiz-adv-x="545" d="M 35 0 L 35 730 L 230 730 C 278 730 320 720 357 702 C 394 684 425 658 449 626 C 473 594 492 555 505 509 C 517 463 524 413 524 359 C 524 308 517 261 505 217 C 493 173 474 135 449 103 C 424 71 392 45 354 27 C 316 9 271 0 221 0 L 35 0 Z M 204 137 L 234 137 C 278 137 308 155 326 191 C 344 227 353 282 353 357 C 353 445 342 506 321 541 C 300 575 272 593 236 593 L 204 593 L 204 137 Z" unicode="D" />
<glyph horiz-adv-x="416" d="M 406 0 L 35 0 L 35 730 L 385 730 L 385 586 L 201 586 L 201 434 L 374 434 L 374 290 L 201 290 L 201 144 L 406 144 L 406 0 Z" unicode="E" />
<glyph horiz-adv-x="376" d="M 371 586 L 207 586 L 207 433 L 360 433 L 360 290 L 207 290 L 207 0 L 36 0 L 36 730 L 371 730 L 371 586 Z" unicode="F" />
<glyph horiz-adv-x="522" d="M 265 390 L 505 390 L 505 117 C 489 83 461 53 423 29 C 384 5 334 -7 272 -7 C 238 -7 205 0 175 16 C 145 32 118 55 95 86 C 72 117 54 156 41 203 C 27 249 21 303 21 364 C 21 420 26 472 38 518 C 50 564 66 603 88 635 C 109 667 135 692 166 710 C 197 727 232 736 271 736 C 331 736 377 722 410 695 C 443 667 467 629 482 580 L 348 542 C 342 556 335 570 325 584 C 315 597 299 604 278 604 C 252 604 230 586 214 552 C 198 517 190 455 190 366 C 190 318 192 279 197 248 C 202 216 209 191 217 173 C 225 154 235 141 246 133 C 257 125 269 122 281 122 C 299 122 314 125 326 132 C 337 139 346 148 353 159 L 353 254 L 265 254 L 265 390 Z" unicode="G" />
<glyph horiz-adv-x="527" d="M 492 0 L 322 0 L 322 287 L 205 287 L 205 0 L 35 0 L 35 730 L 205 730 L 205 433 L 322 433 L 322 730 L 492 730 L 492 0 Z" unicode="H" />
<glyph horiz-adv-x="247" d="M 210 0 L 38 0 L 38 730 L 210 730 L 210 0 Z" unicode="I" />
<glyph horiz-adv-x="294" d="M 262 730 L 262 181 C 262 125 245 79 211 44 C 177 8 134 -9 82 -9 C 68 -9 53 -8 37 -6 C 20 -4 8 -2 1 0 L 1 151 C 5 149 12 147 20 146 C 28 145 35 145 42 145 C 57 145 69 152 79 167 C 88 182 93 201 93 223 L 93 730 L 262 730 Z" unicode="J" />
<glyph horiz-adv-x="543" d="M 553 0 L 367 0 L 218 267 L 206 251 L 206 0 L 35 0 L 35 730 L 206 730 L 206 470 L 363 730 L 540 730 L 326 404 L 553 0 Z" unicode="K" />
<glyph horiz-adv-x="369" d="M 361 0 L 35 0 L 35 730 L 205 730 L 205 144 L 361 144 L 361 0 Z" unicode="L" />
<glyph horiz-adv-x="653" d="M 618 0 L 457 0 L 457 371 L 364 112 L 291 112 L 196 371 L 196 0 L 35 0 L 35 730 L 185 730 L 329 370 L 479 730 L 618 730 L 618 0 Z" unicode="M" />
<glyph horiz-adv-x="525" d="M 490 0 L 373 0 L 194 371 L 194 0 L 35 0 L 35 730 L 153 730 L 337 366 L 337 730 L 490 730 L 490 0 Z" unicode="N" />
<glyph horiz-adv-x="561" d="M 283 -6 C 192 -6 126 26 84 91 C 42 156 21 249 21 370 C 21 483 43 572 87 638 C 131 703 195 736 278 736 C 366 736 431 704 475 641 C 518 578 540 486 540 365 C 540 250 517 159 472 93 C 426 27 363 -6 283 -6 Z M 280 127 C 312 127 335 145 349 181 C 362 217 369 281 369 372 C 369 456 361 515 347 550 C 332 585 309 603 279 603 C 246 603 223 585 211 551 C 199 516 193 454 193 365 C 193 274 199 212 213 178 C 227 144 249 127 280 127 Z" unicode="O" />
<glyph horiz-adv-x="480" d="M 35 0 L 35 730 L 272 730 C 328 730 374 709 411 669 C 448 629 467 576 467 510 C 467 477 462 446 452 418 C 442 390 429 366 411 346 C 393 326 372 310 348 298 C 324 286 297 281 269 281 L 205 281 L 205 0 L 35 0 Z M 205 404 L 233 404 C 260 404 279 412 291 428 C 302 444 308 471 308 509 C 308 543 301 568 288 584 C 274 599 255 607 231 607 L 205 607 L 205 404 Z" unicode="P" />
<glyph horiz-adv-x="561" d="M 515 -28 L 515 -164 C 463 -155 419 -135 381 -105 C 343 -74 313 -40 291 -3 C 289 -3 288 -3 287 -3 C 285 -3 284 -3 283 -3 C 195 -3 130 29 86 93 C 42 157 21 249 21 370 C 21 483 43 572 89 638 C 134 703 197 736 278 736 C 364 736 429 704 473 641 C 517 578 540 486 540 365 C 540 284 528 215 504 158 C 480 101 448 59 406 32 C 422 15 439 1 459 -8 C 478 -18 497 -25 515 -28 Z M 280 123 C 312 123 334 142 348 181 C 362 220 369 283 369 371 C 369 417 366 456 362 486 C 358 516 352 540 344 558 C 336 575 326 587 315 594 C 304 601 292 605 280 605 C 264 605 250 601 239 594 C 228 587 219 575 212 557 C 205 539 200 514 197 483 C 194 451 193 412 193 365 C 193 277 199 215 212 178 C 225 141 248 123 280 123 Z" unicode="Q" />
<glyph horiz-adv-x="489" d="M 35 0 L 35 730 L 249 730 C 307 730 355 713 392 680 C 429 646 448 596 448 529 C 448 482 438 441 419 406 C 399 371 375 349 347 339 L 340 333 L 497 0 L 326 0 L 205 273 L 191 273 L 191 0 L 35 0 Z M 191 423 L 223 423 C 241 423 257 430 270 445 C 283 460 290 481 290 508 C 290 536 283 557 271 570 C 259 583 244 590 228 590 L 191 590 L 191 423 Z" unicode="R" />
<glyph horiz-adv-x="453" d="M 226 -6 C 182 -6 142 0 107 11 C 71 23 38 47 8 83 L 88 177 C 102 158 119 143 141 132 C 162 120 184 115 206 115 C 227 115 246 122 263 136 C 280 150 289 169 289 195 C 289 223 281 244 265 260 C 249 276 221 297 180 323 C 161 335 143 348 125 362 C 107 376 91 392 77 410 C 63 428 51 448 43 471 C 35 494 31 521 31 551 C 31 579 36 605 48 628 C 59 650 74 670 94 686 C 113 702 135 714 161 723 C 187 731 214 736 242 736 C 288 736 325 729 355 715 C 385 701 408 685 424 669 L 342 570 C 331 580 318 589 302 597 C 286 605 270 609 254 609 C 237 609 221 603 207 592 C 192 580 185 564 185 544 C 185 525 191 508 203 494 C 214 480 241 459 285 433 C 337 401 375 368 401 334 C 427 299 440 253 440 195 C 440 160 433 130 421 105 C 409 79 392 58 372 42 C 352 26 329 14 303 6 C 277 -2 252 -6 226 -6 Z" unicode="S" />
<glyph horiz-adv-x="401" d="M 397 586 L 287 586 L 287 0 L 117 0 L 117 586 L 4 586 L 4 730 L 397 730 L 397 586 Z" unicode="T" />
<glyph horiz-adv-x="532" d="M 500 730 L 500 231 C 500 189 493 153 479 123 C 465 93 446 68 424 49 C 401 30 375 16 346 7 C 316 -2 286 -7 256 -7 C 226 -7 197 -2 170 6 C 142 14 119 28 99 47 C 79 66 63 91 51 121 C 39 151 33 188 33 231 L 33 730 L 201 730 L 201 223 C 201 192 206 170 216 158 C 226 145 241 139 260 139 C 278 139 294 145 306 157 C 318 169 324 191 324 223 L 324 730 L 500 730 Z" unicode="U" />
<glyph horiz-adv-x="473" d="M 478 730 L 298 -3 L 176 -3 L -5 730 L 157 730 L 242 314 L 321 730 L 478 730 Z" unicode="V" />
<glyph horiz-adv-x="723" d="M 700 730 L 552 -3 L 439 -3 L 349 392 L 256 -3 L 142 -3 L -5 730 L 154 730 L 220 316 L 296 729 L 416 729 L 489 315 L 558 730 L 700 730 Z" unicode="W" />
<glyph horiz-adv-x="482" d="M 315 0 L 233 194 L 149 0 L -4 0 L 158 371 L 6 730 L 171 730 L 241 564 L 314 730 L 466 730 L 317 386 L 480 0 L 315 0 Z" unicode="X" />
<glyph horiz-adv-x="485" d="M 498 730 L 325 297 L 325 0 L 155 0 L 155 301 L -13 730 L 154 730 L 246 465 L 343 730 L 498 730 Z" unicode="Y" />
<glyph horiz-adv-x="431" d="M 410 730 L 410 644 L 202 142 L 421 142 L 421 0 L 11 0 L 11 82 L 227 587 L 33 587 L 33 730 L 410 730 Z" unicode="Z" />
<glyph horiz-adv-x="274" d="M 262 -179 L 45 -179 L 45 730 L 262 730 L 262 606 L 194 606 L 194 -53 L 262 -53 L 262 -179 Z" unicode="[" />
<glyph horiz-adv-x="329" d="M -6 730 L 133 730 L 336 0 L 193 0 L -6 730 Z" unicode="\" />
<glyph horiz-adv-x="278" d="M 235 -179 L 18 -179 L 18 -56 L 86 -56 L 86 607 L 18 607 L 18 730 L 235 730 L 235 -179 Z" unicode="]" />
<glyph horiz-adv-x="438" d="M 423 369 L 289 369 L 219 567 L 148 369 L 15 369 L 153 730 L 286 730 L 423 369 Z" unicode="^" />
<glyph horiz-adv-x="422" d="M 422 -179 L 0 -179 L 0 -53 L 422 -53 L 422 -179 Z" unicode="_" />
<glyph horiz-adv-x="500" d="M 385 495 L 236 495 L 111 670 L 289 670 L 385 495 Z" unicode="`" />
<glyph horiz-adv-x="407" d="M 384 0 L 244 0 L 244 38 C 230 23 213 12 193 5 C 173 -2 151 -6 129 -6 C 91 -6 61 7 40 34 C 19 61 9 95 9 135 C 9 183 24 219 56 241 C 87 263 127 275 175 277 L 238 279 L 238 288 C 238 304 232 316 221 324 C 210 331 193 335 170 335 C 147 335 128 331 112 325 C 96 319 85 313 77 308 L 37 403 C 54 415 77 426 105 434 C 133 442 169 447 215 447 C 236 447 257 444 278 438 C 298 432 316 424 332 412 C 348 400 360 384 370 366 C 379 348 384 326 384 301 L 384 0 Z M 241 112 L 241 194 L 205 193 C 190 192 177 187 167 179 C 157 170 152 157 152 139 C 152 123 156 112 166 106 C 175 100 184 97 194 97 C 206 97 215 98 223 101 C 230 103 236 107 241 112 Z" unicode="a" />
<glyph horiz-adv-x="443" d="M 272 -4 C 245 -4 224 0 208 10 C 192 20 180 32 171 47 L 171 0 L 25 0 L 25 763 L 172 763 L 172 379 C 179 395 191 410 208 423 C 225 435 250 442 283 442 C 329 442 364 422 390 383 C 416 343 429 292 429 230 C 429 154 413 96 383 56 C 353 16 316 -4 272 -4 Z M 214 93 C 230 93 242 102 251 120 C 260 138 265 169 265 211 C 265 249 261 278 253 296 C 245 314 232 323 216 323 C 202 323 190 314 182 298 C 173 281 169 250 169 204 C 169 160 173 130 181 115 C 189 100 200 93 214 93 Z" unicode="b" />
<glyph horiz-adv-x="367" d="M 311 141 L 367 61 C 353 45 335 30 314 16 C 293 1 260 -6 214 -6 C 181 -6 152 0 127 11 C 102 23 81 39 64 59 C 47 79 34 102 26 130 C 17 157 13 186 13 218 C 13 248 17 276 26 303 C 35 330 48 354 66 375 C 83 395 105 412 131 424 C 157 436 188 442 222 442 C 258 442 288 436 311 424 C 334 412 353 398 368 384 L 310 287 C 300 296 289 303 279 309 C 268 315 255 318 241 318 C 222 318 206 310 194 294 C 182 278 176 253 176 220 C 176 176 184 147 201 132 C 218 117 235 110 252 110 C 264 110 275 113 285 119 C 295 125 303 133 311 141 Z" unicode="c" />
<glyph horiz-adv-x="449" d="M 179 -6 C 129 -6 89 14 59 55 C 29 96 14 148 14 211 C 14 281 29 336 61 377 C 92 417 132 438 181 438 C 205 438 225 433 242 423 C 259 413 271 401 278 388 L 278 763 L 424 763 L 424 0 L 285 0 L 285 41 C 277 31 266 20 252 10 C 237 0 213 -6 179 -6 Z M 230 100 C 247 100 260 110 268 130 C 276 150 281 179 281 218 C 281 257 276 285 266 302 C 256 319 244 328 228 328 C 211 328 198 318 190 300 C 182 281 178 253 178 215 C 178 176 182 147 191 128 C 200 109 213 100 230 100 Z" unicode="d" />
<glyph horiz-adv-x="425" d="M 218 -6 C 157 -6 108 13 70 52 C 32 90 14 145 14 215 C 14 251 19 284 30 312 C 40 340 54 364 72 384 C 90 403 111 417 135 427 C 159 437 184 442 211 442 C 275 442 324 421 356 379 C 388 337 404 270 404 178 L 169 178 C 169 149 175 129 189 118 C 202 106 219 101 240 101 C 262 101 282 104 300 111 C 318 118 336 128 353 141 L 402 64 C 385 48 362 32 334 17 C 306 1 267 -6 218 -6 Z M 160 266 L 265 266 C 263 292 258 311 250 323 C 242 335 230 341 216 341 C 200 341 188 335 178 324 C 168 312 162 293 160 266 Z" unicode="e" />
<glyph horiz-adv-x="255" d="M 254 315 L 202 315 L 202 0 L 47 0 L 47 315 L 7 315 L 7 436 L 47 436 L 47 612 C 47 634 51 655 60 674 C 68 692 80 708 94 722 C 108 735 123 745 141 753 C 158 760 175 764 193 764 C 213 764 232 761 249 757 C 266 753 278 748 285 742 L 246 633 C 244 633 240 634 236 636 C 231 637 227 638 224 638 C 214 638 207 633 204 625 C 200 616 199 602 199 583 L 199 436 L 254 436 L 254 315 Z" unicode="f" />
<glyph horiz-adv-x="447" d="M 182 -1 C 136 -1 96 17 63 53 C 30 89 14 143 14 213 C 14 249 18 282 28 310 C 37 338 49 362 64 381 C 79 399 97 413 117 423 C 137 433 159 438 181 438 C 205 438 226 432 242 422 C 258 412 270 400 279 388 L 279 436 L 422 436 L 422 18 C 422 -19 415 -51 403 -78 C 391 -105 375 -127 355 -144 C 335 -160 313 -172 288 -180 C 262 -188 237 -192 212 -192 C 174 -192 141 -187 113 -179 C 85 -170 65 -160 53 -150 L 93 -54 C 108 -61 125 -67 144 -71 C 163 -75 184 -78 206 -78 C 231 -78 249 -69 260 -53 C 270 -36 276 -15 276 9 L 276 46 C 268 33 256 22 240 13 C 224 3 204 -1 182 -1 Z M 229 100 C 246 100 259 109 268 128 C 276 146 281 177 281 219 C 281 259 275 287 265 305 C 255 323 242 332 228 332 C 212 332 199 322 190 303 C 181 283 177 255 177 218 C 177 180 181 151 189 131 C 197 110 211 100 229 100 Z" unicode="g" />
<glyph horiz-adv-x="435" d="M 412 0 L 257 0 L 257 270 C 257 286 254 299 248 307 C 242 315 233 319 221 319 C 209 319 199 315 191 307 C 183 299 180 286 180 268 L 180 0 L 25 0 L 25 763 L 171 763 L 171 387 C 177 401 189 414 207 426 C 224 437 249 443 281 443 C 321 443 352 433 376 413 C 400 393 412 361 412 315 L 412 0 Z" unicode="h" />
<glyph horiz-adv-x="206" d="M 24 492 L 24 627 L 182 627 L 182 492 L 24 492 Z M 26 0 L 26 436 L 181 436 L 181 0 L 26 0 Z" unicode="i" />
<glyph horiz-adv-x="203" d="M 183 492 L 25 492 L 25 627 L 183 627 L 183 492 Z M 182 436 L 182 -65 C 182 -101 169 -132 144 -160 C 119 -188 85 -202 43 -202 C 27 -202 10 -200 -7 -196 C -25 -192 -36 -189 -41 -187 L -17 -77 C -14 -77 -11 -78 -8 -78 C -5 -78 -1 -79 3 -79 C 9 -79 15 -76 20 -70 C 24 -64 27 -56 27 -46 L 27 436 L 182 436 Z" unicode="j" />
<glyph horiz-adv-x="429" d="M 440 1 L 274 0 L 204 138 L 178 101 L 178 0 L 25 0 L 25 763 L 171 763 L 171 269 L 278 436 L 433 436 L 315 250 L 440 1 Z" unicode="k" />
<glyph horiz-adv-x="205" d="M 180 763 L 180 0 L 25 0 L 25 763 L 180 763 Z" unicode="l" />
<glyph horiz-adv-x="659" d="M 25 0 L 25 436 L 167 436 L 167 370 C 174 396 189 415 211 426 C 233 437 258 443 287 443 C 317 443 341 436 359 424 C 377 412 389 394 395 372 L 399 372 C 407 393 421 410 440 423 C 458 436 483 443 515 443 C 550 443 579 433 601 415 C 623 397 635 366 635 324 L 635 0 L 482 0 L 482 262 C 482 285 478 300 471 308 C 463 315 454 319 444 319 C 433 319 424 314 416 306 C 408 298 405 281 405 256 L 405 0 L 253 0 L 253 266 C 253 288 249 303 243 309 C 237 315 229 319 219 319 C 209 319 200 314 191 306 C 181 297 177 281 177 259 L 177 0 L 25 0 Z" unicode="m" />
<glyph horiz-adv-x="435" d="M 412 0 L 257 0 L 257 278 C 257 290 254 300 248 308 C 242 315 233 319 222 319 C 209 319 199 315 191 307 C 183 299 180 286 180 268 L 180 0 L 25 0 L 25 436 L 171 436 L 171 376 C 178 394 190 410 208 423 C 225 436 250 443 282 443 C 322 443 353 433 377 414 C 400 394 412 363 412 319 L 412 0 Z" unicode="n" />
<glyph horiz-adv-x="445" d="M 220 -6 C 190 -6 163 -1 137 8 C 111 18 89 32 71 51 C 53 69 38 93 28 121 C 18 149 13 180 13 216 C 13 248 17 278 27 306 C 37 334 50 358 68 378 C 86 398 107 413 132 425 C 157 436 185 442 216 442 C 281 442 333 422 373 384 C 412 346 432 294 432 228 C 432 158 413 102 375 59 C 337 15 286 -6 220 -6 Z M 222 97 C 238 97 249 105 257 122 C 264 139 268 172 268 220 C 268 266 264 297 256 311 C 248 325 236 333 221 333 C 206 333 195 325 187 311 C 179 296 176 266 176 220 C 176 170 180 137 188 121 C 196 105 208 97 222 97 Z" unicode="o" />
<glyph horiz-adv-x="442" d="M 25 -200 L 25 436 L 168 436 L 168 368 C 174 386 188 403 208 418 C 228 432 251 440 278 440 C 327 440 364 421 390 383 C 416 345 429 296 429 236 C 429 160 414 101 385 59 C 356 17 317 -4 267 -4 C 247 -4 228 0 210 7 C 192 14 179 23 171 35 L 171 -200 L 25 -200 Z M 213 92 C 229 92 242 100 251 117 C 260 133 265 163 265 205 C 265 245 261 274 254 294 C 246 314 233 324 215 324 C 201 324 189 316 180 300 C 170 284 166 251 166 201 C 166 156 170 127 178 113 C 186 99 198 92 213 92 Z" unicode="p" />
<glyph horiz-adv-x="449" d="M 278 -200 L 278 47 C 269 30 256 17 238 9 C 220 1 199 -3 175 -3 C 151 -3 129 2 109 14 C 89 25 72 40 58 60 C 44 80 33 103 25 130 C 17 157 14 186 14 217 C 14 283 29 338 61 380 C 92 422 131 443 179 443 C 207 443 230 437 248 426 C 265 414 278 401 288 387 L 288 436 L 424 436 L 424 -200 L 278 -200 Z M 229 101 C 245 101 258 109 267 125 C 276 141 281 171 281 215 C 281 253 276 282 266 300 C 256 318 244 328 228 328 C 211 328 198 319 190 301 C 182 283 178 253 178 211 C 178 177 182 150 191 130 C 199 110 212 101 229 101 Z" unicode="q" />
<glyph horiz-adv-x="339" d="M 346 408 L 300 289 C 288 297 279 303 271 306 C 263 308 253 310 243 310 C 230 310 216 304 202 294 C 187 283 180 259 180 223 L 180 0 L 25 0 L 25 436 L 175 436 L 175 369 C 181 385 192 402 207 418 C 222 434 241 442 264 442 C 284 442 300 438 314 430 C 328 422 338 414 346 408 Z" unicode="r" />
<glyph horiz-adv-x="332" d="M 175 -7 C 137 -7 103 0 73 12 C 43 24 19 40 3 58 L 61 142 C 75 128 90 118 108 110 C 125 102 140 98 153 98 C 163 98 172 100 179 105 C 186 110 190 118 190 128 C 190 138 183 147 169 156 C 155 164 137 174 117 185 C 93 197 71 214 51 234 C 31 254 22 284 22 324 C 22 356 35 385 63 410 C 91 434 125 447 165 447 C 199 447 227 442 251 434 C 274 426 295 415 314 403 L 257 315 C 249 321 237 326 223 332 C 208 337 196 340 186 340 C 178 340 170 338 162 335 C 154 332 151 326 151 318 C 151 308 157 300 169 293 C 181 285 200 275 225 262 C 257 245 282 227 299 209 C 315 190 324 161 324 123 C 324 100 319 80 309 64 C 299 48 287 34 273 24 C 259 13 243 5 225 0 C 207 -4 191 -7 175 -7 Z" unicode="s" />
<glyph horiz-adv-x="274" d="M 244 123 L 276 24 C 267 17 256 10 243 4 C 230 -2 213 -6 193 -6 C 181 -6 166 -4 149 0 C 131 4 114 11 98 22 C 82 32 68 47 57 66 C 45 85 40 109 40 139 L 40 315 L 5 315 L 5 436 L 44 436 L 44 588 L 189 592 L 189 436 L 247 436 L 247 315 L 193 315 L 193 147 C 193 135 195 127 200 122 C 204 117 210 115 218 115 C 222 115 227 115 232 117 C 236 119 240 121 244 123 Z" unicode="t" />
<glyph horiz-adv-x="435" d="M 23 436 L 178 436 L 178 150 C 178 132 181 119 188 112 C 194 105 204 102 216 102 C 227 102 236 106 244 115 C 251 124 255 141 255 166 L 255 436 L 410 436 L 410 0 L 260 0 L 260 47 C 252 30 238 17 220 7 C 201 -2 179 -7 155 -7 C 119 -7 88 2 62 22 C 36 42 23 75 23 121 L 23 436 Z" unicode="u" />
<glyph horiz-adv-x="391" d="M 401 436 L 258 -3 L 133 -3 L -10 436 L 153 436 L 209 234 L 266 436 L 401 436 Z" unicode="v" />
<glyph horiz-adv-x="587" d="M 351 -3 L 293 194 L 236 -3 L 117 -3 L -6 436 L 142 436 L 201 205 L 248 398 L 347 398 L 398 205 L 460 436 L 592 436 L 468 -3 L 351 -3 Z" unicode="w" />
<glyph horiz-adv-x="387" d="M 231 0 L 182 90 L 129 0 L -2 0 L 118 207 L -6 436 L 147 436 L 198 345 L 251 436 L 388 436 L 264 227 L 390 0 L 231 0 Z" unicode="x" />
<glyph horiz-adv-x="394" d="M 405 436 L 227 -98 C 215 -133 194 -159 164 -175 C 134 -191 100 -200 62 -200 C 48 -200 34 -198 21 -195 C 8 -191 -1 -187 -8 -183 L 26 -79 C 28 -80 33 -82 40 -84 C 46 -86 53 -88 60 -88 C 72 -88 81 -83 89 -74 C 97 -64 103 -50 108 -32 L 127 43 L -10 436 L 153 436 L 212 230 L 269 436 L 405 436 Z" unicode="y" />
<glyph horiz-adv-x="360" d="M 348 436 L 348 369 L 202 121 L 353 121 L 353 0 L 7 0 L 7 52 L 169 315 L 18 315 L 18 436 L 348 436 Z" unicode="z" />
<glyph horiz-adv-x="286" d="M 271 -179 C 235 -179 202 -174 173 -165 C 144 -155 119 -143 99 -128 C 79 -113 63 -96 52 -78 C 41 -59 36 -40 36 -22 C 36 -1 38 18 42 37 C 46 55 51 72 56 88 C 60 102 65 116 69 129 C 73 142 76 154 76 165 C 76 181 70 196 59 210 C 47 223 31 230 10 230 L 10 340 C 31 340 47 346 59 360 C 71 374 77 390 77 409 C 77 415 74 426 70 441 C 66 455 61 471 55 488 C 49 504 45 521 42 537 C 38 553 37 569 37 584 C 37 602 42 621 53 641 C 63 661 79 678 99 694 C 119 710 144 723 173 733 C 202 743 235 749 271 749 L 271 627 C 251 627 231 620 211 607 C 191 594 182 576 182 554 C 182 545 182 535 184 524 C 186 512 189 501 193 490 C 198 474 203 458 208 444 C 212 430 215 417 215 406 C 215 380 208 356 196 333 C 183 310 163 294 135 285 C 163 275 184 259 196 236 C 208 212 215 189 215 166 C 215 151 213 137 209 125 C 205 113 200 101 196 89 C 191 77 187 64 185 51 C 183 38 182 26 182 16 C 182 -4 191 -21 210 -35 C 229 -49 249 -57 271 -57 L 271 -179 Z" unicode="{" />
<glyph horiz-adv-x="241" d="M 195 -179 L 47 -179 L 47 730 L 195 730 L 195 -179 Z" unicode="|" />
<glyph horiz-adv-x="286" d="M 16 -179 L 16 -57 C 36 -57 56 -49 75 -35 C 94 -21 104 -4 104 16 C 104 26 102 38 100 51 C 98 64 94 77 90 89 C 86 101 81 113 77 125 C 73 137 71 151 71 166 C 71 189 77 212 89 236 C 101 259 122 275 150 285 C 122 294 102 310 90 333 C 77 356 71 380 71 406 C 71 417 73 430 78 444 C 82 458 88 474 94 490 C 97 501 99 512 101 524 C 103 535 104 545 104 554 C 104 576 94 594 74 607 C 54 620 35 627 16 627 L 16 749 C 52 749 84 743 113 733 C 142 723 167 710 187 694 C 207 678 222 661 233 641 C 244 621 250 602 250 584 C 250 569 248 553 245 537 C 241 521 237 504 231 488 C 225 471 220 455 216 441 C 211 426 209 415 209 409 C 209 390 215 374 227 360 C 239 346 255 340 277 340 L 277 230 C 255 230 239 223 227 210 C 215 196 210 181 210 165 C 210 154 212 142 216 129 C 220 116 225 102 230 88 C 235 72 240 55 244 37 C 248 18 250 -1 250 -22 C 250 -40 244 -59 233 -78 C 222 -96 207 -113 187 -128 C 167 -143 142 -155 113 -165 C 84 -174 52 -179 16 -179 Z" unicode="}" />
<glyph horiz-adv-x="466" d="M 337 463 L 449 463 C 447 439 444 416 439 394 C 434 372 427 352 418 336 C 408 320 396 307 382 297 C 368 287 351 282 332 282 C 307 282 286 285 270 293 C 254 300 240 308 228 318 C 217 326 207 334 197 341 C 187 347 177 351 166 351 C 155 351 146 343 138 329 C 130 315 126 300 126 285 L 17 285 C 17 337 26 380 45 414 C 63 448 93 465 135 465 C 159 465 179 459 197 449 C 214 438 229 428 241 420 C 253 411 263 404 272 398 C 281 392 290 389 300 389 C 316 389 326 396 330 410 C 334 424 337 442 337 463 Z" unicode="~" />
<glyph horiz-adv-x="259" d="M 52 563 L 207 563 L 207 407 L 52 407 L 52 563 Z M 43 156 L 98 340 L 165 340 L 216 156 L 216 -137 L 43 -137 L 43 156 Z" unicode="¡" />
<glyph horiz-adv-x="384" d="M 381 96 C 368 82 352 69 334 56 C 315 43 289 35 255 32 L 255 -74 L 181 -74 L 181 33 C 125 41 83 66 55 107 C 27 148 13 197 13 253 C 13 279 16 305 23 329 C 30 353 41 375 55 395 C 69 415 86 431 107 445 C 128 459 153 468 181 473 L 181 574 L 255 574 L 255 476 C 285 473 309 467 329 457 C 348 447 364 436 377 424 L 318 321 C 307 329 296 335 286 340 C 275 344 262 347 246 347 C 224 347 207 339 195 325 C 182 310 176 287 176 256 C 176 214 185 187 203 173 C 221 159 240 152 260 152 C 274 152 287 155 299 161 C 311 167 321 174 329 182 L 381 96 Z" unicode="¢" />
<glyph horiz-adv-x="499" d="M 478 127 L 478 0 L 12 0 L 12 106 C 17 110 26 114 38 118 C 50 121 66 124 86 128 C 110 132 130 141 144 153 C 158 165 167 180 172 198 L 36 198 L 36 294 L 151 294 C 147 300 144 306 140 313 C 136 320 132 327 128 334 L 36 334 L 36 430 L 82 430 C 75 447 70 465 66 485 C 62 505 61 526 61 549 C 61 583 67 613 80 638 C 92 662 109 682 129 698 C 149 713 173 724 200 731 C 226 738 254 742 282 742 C 299 742 317 739 337 735 C 356 731 374 725 391 718 C 408 711 424 703 438 695 C 452 687 462 679 469 671 L 413 550 C 402 560 387 570 367 582 C 347 594 326 600 304 600 C 288 600 271 593 254 580 C 237 567 229 546 229 518 C 229 503 231 488 236 474 C 240 459 246 444 253 430 L 439 430 L 439 334 L 300 334 C 302 327 305 320 308 314 C 310 307 312 300 314 294 L 439 294 L 439 198 L 307 198 C 300 179 291 164 280 153 C 268 142 257 133 247 127 L 478 127 Z" unicode="£" />
<glyph horiz-adv-x="502" d="M 449 194 L 398 143 L 344 199 C 330 191 315 184 299 180 C 283 176 266 174 250 174 C 233 174 217 176 201 180 C 185 184 171 190 158 198 L 104 143 L 52 195 L 103 247 C 91 261 82 278 76 296 C 70 314 67 334 67 354 C 67 374 70 394 76 412 C 82 430 91 447 103 462 L 52 515 L 103 566 L 157 509 C 171 517 185 523 201 527 C 217 531 233 534 250 534 C 266 534 283 531 299 527 C 315 523 330 517 344 509 L 400 566 L 451 514 L 398 460 C 408 445 417 429 423 411 C 429 393 433 374 433 354 C 433 334 429 314 423 296 C 417 278 408 261 398 247 L 449 194 Z M 250 273 C 272 273 292 281 309 297 C 326 313 335 332 335 354 C 335 376 326 395 309 411 C 292 427 272 435 250 435 C 227 435 207 427 190 411 C 173 395 165 376 165 354 C 165 332 173 313 190 297 C 207 281 227 273 250 273 Z" unicode="¤" />
<glyph horiz-adv-x="485" d="M 456 96 L 326 96 L 326 0 L 156 0 L 156 96 L 31 96 L 31 193 L 156 193 L 156 225 L 31 225 L 31 322 L 150 322 L -10 730 L 159 730 L 245 464 L 339 730 L 495 730 L 334 322 L 456 322 L 456 225 L 326 225 L 326 193 L 456 193 L 456 96 Z" unicode="¥" />
<glyph horiz-adv-x="296" d="M 81 351 L 81 730 L 215 730 L 215 351 L 81 351 Z M 215 200 L 215 -179 L 81 -179 L 81 200 L 215 200 Z" unicode="¦" />
<glyph horiz-adv-x="585" d="M 315 -182 C 261 -182 212 -175 166 -162 C 120 -148 80 -131 48 -109 L 99 19 C 130 -1 163 -19 198 -33 C 233 -47 264 -54 291 -54 C 311 -54 327 -48 338 -38 C 349 -27 355 -12 355 6 C 355 23 349 37 338 47 C 326 57 306 68 278 81 L 218 111 C 185 125 157 137 133 149 C 109 161 89 174 74 188 C 59 202 48 219 41 238 C 33 256 30 280 30 308 C 30 338 36 363 50 385 C 63 406 80 424 101 440 C 84 454 72 472 64 492 C 56 512 53 537 53 565 C 53 593 59 618 71 640 C 83 662 100 680 122 695 C 144 710 170 722 200 730 C 230 738 262 742 296 742 C 354 742 401 733 438 717 C 474 701 503 684 524 668 L 450 549 C 425 567 401 584 377 598 C 353 612 325 620 293 620 C 267 620 248 615 234 605 C 220 595 214 582 214 565 C 214 549 222 536 240 526 C 257 515 283 502 317 488 L 389 453 C 443 431 483 407 510 382 C 537 356 551 321 551 277 C 551 239 541 209 521 188 C 501 167 476 154 448 149 C 466 137 484 119 501 95 C 517 71 526 42 526 10 C 526 -19 520 -46 509 -70 C 498 -94 483 -114 465 -130 C 446 -146 424 -159 398 -168 C 372 -177 344 -182 315 -182 Z M 331 216 C 343 218 354 223 364 231 C 374 239 379 250 379 265 C 379 281 372 294 359 305 C 345 316 321 329 286 343 L 227 372 C 216 367 207 361 199 353 C 191 345 188 335 188 321 C 188 303 194 289 208 279 C 221 269 247 256 285 240 L 331 216 Z" unicode="§" />
<glyph horiz-adv-x="500" d="M 399 495 L 274 495 L 274 659 L 399 659 L 399 495 Z M 226 495 L 101 495 L 101 659 L 226 659 L 226 495 Z" unicode="¨" />
<glyph horiz-adv-x="836" d="M 418 -3 C 366 -3 318 6 273 26 C 227 46 188 72 154 106 C 120 139 94 178 74 224 C 54 270 45 318 45 369 C 45 420 54 468 74 514 C 94 559 120 598 154 632 C 188 666 227 692 273 712 C 318 732 366 742 418 742 C 468 742 516 732 562 712 C 608 692 647 666 681 632 C 715 598 741 559 761 514 C 781 468 791 420 791 369 C 791 318 781 270 761 224 C 741 178 715 139 681 106 C 647 72 608 46 562 26 C 516 6 468 -3 418 -3 Z M 418 75 C 458 75 495 82 531 98 C 567 113 598 134 625 161 C 651 187 672 218 688 254 C 703 290 711 328 711 368 C 711 408 703 446 688 482 C 672 518 651 549 625 576 C 598 602 567 623 531 639 C 495 655 458 663 418 663 C 378 663 340 655 304 639 C 268 623 236 602 210 576 C 184 549 163 518 148 482 C 132 446 125 408 125 368 C 125 328 132 290 148 254 C 163 218 184 187 210 161 C 236 134 268 113 304 98 C 340 82 378 75 418 75 Z M 595 252 C 579 226 556 204 527 187 C 497 169 460 161 414 161 C 386 161 360 165 336 174 C 311 182 289 195 271 213 C 252 231 237 253 226 279 C 214 305 209 336 209 371 C 209 407 214 440 225 468 C 235 496 250 519 268 538 C 286 556 308 570 333 580 C 358 589 384 594 412 594 C 459 594 497 585 527 568 C 556 551 578 530 594 505 L 499 436 C 490 448 479 459 467 468 C 454 477 437 482 417 482 C 392 482 372 471 356 451 C 340 431 332 404 332 370 C 332 336 340 309 358 291 C 375 273 395 264 418 264 C 438 264 455 268 469 278 C 483 288 495 299 505 313 L 595 252 Z" unicode="©" />
<glyph horiz-adv-x="448" d="M 408 330 L 291 330 L 291 376 C 278 359 261 346 239 337 C 217 328 191 324 163 324 C 121 324 88 335 66 359 C 43 382 32 414 32 455 C 32 497 49 529 83 551 C 117 573 166 585 230 587 L 285 590 L 285 599 C 285 612 280 622 270 629 C 260 635 244 639 222 639 C 201 639 180 635 159 629 C 137 622 117 612 99 600 L 49 681 C 71 698 98 713 132 725 C 166 737 204 743 246 743 C 298 743 338 731 366 708 C 394 684 408 647 408 595 L 408 330 Z M 288 457 L 288 508 L 228 506 C 207 505 190 501 178 493 C 165 485 159 473 159 457 C 159 445 163 435 172 429 C 180 422 192 419 208 419 C 224 419 240 422 254 429 C 268 435 279 445 288 457 Z M 410 200 L 40 200 L 40 297 L 410 297 L 410 200 Z" unicode="ª" />
<glyph horiz-adv-x="500" d="M 237 43 L 24 218 L 24 307 L 237 479 L 237 328 L 159 259 L 237 197 L 237 43 Z M 473 43 L 258 218 L 258 307 L 473 479 L 473 328 L 395 259 L 473 198 L 473 43 Z" unicode="«" />
<glyph horiz-adv-x="500" d="M 455 426 L 455 127 L 323 127 L 323 289 L 27 289 L 27 426 L 455 426 Z" unicode="¬" />
<glyph horiz-adv-x="836" d="M 418 -3 C 366 -3 318 6 273 26 C 227 46 188 72 154 106 C 120 139 94 178 74 224 C 54 270 45 318 45 369 C 45 420 54 468 74 514 C 94 559 120 598 154 632 C 188 666 227 692 273 712 C 318 732 366 742 418 742 C 468 742 516 732 562 712 C 608 692 647 666 681 632 C 715 598 741 559 761 514 C 781 468 791 420 791 369 C 791 318 781 270 761 224 C 741 178 715 139 681 106 C 647 72 608 46 562 26 C 516 6 468 -3 418 -3 Z M 125 368 C 125 326 132 287 148 251 C 163 215 184 184 210 158 C 236 132 268 112 304 97 C 340 82 378 75 418 75 C 460 75 499 82 536 98 C 573 113 605 135 632 163 L 508 163 L 409 315 L 375 315 L 375 163 L 265 163 L 265 595 L 442 595 C 460 595 477 592 495 587 C 513 582 529 575 543 565 C 557 555 568 542 577 526 C 585 510 590 492 590 471 C 590 433 580 405 560 387 C 540 369 521 358 502 355 L 502 351 L 632 164 C 656 189 676 219 690 254 C 704 288 711 326 711 368 C 711 411 703 451 688 487 C 672 523 651 555 625 581 C 598 607 567 627 531 641 C 495 655 458 663 418 663 C 378 663 340 655 304 640 C 268 625 236 605 210 579 C 184 553 163 521 148 485 C 132 449 125 410 125 368 Z M 374 402 L 433 402 C 443 402 454 406 465 415 C 475 424 481 438 481 458 C 481 478 475 491 463 498 C 451 504 439 508 427 508 L 374 508 L 374 402 Z" unicode="®" />
<glyph horiz-adv-x="500" d="M 388 505 L 112 505 L 112 620 L 388 620 L 388 505 Z" unicode="¯" />
<glyph horiz-adv-x="430" d="M 215 372 C 189 372 165 376 143 386 C 120 396 100 409 84 426 C 67 442 54 462 44 485 C 34 507 30 531 30 557 C 30 582 34 606 44 629 C 54 651 67 671 84 688 C 100 704 120 717 143 727 C 165 737 189 742 215 742 C 240 742 264 737 287 727 C 309 717 329 704 346 688 C 362 671 375 651 385 629 C 395 606 400 582 400 557 C 400 531 395 507 385 485 C 375 462 362 442 346 426 C 329 409 309 396 287 386 C 264 376 240 372 215 372 Z M 215 475 C 237 475 256 483 274 499 C 291 515 300 534 300 557 C 300 579 291 599 274 615 C 256 631 237 640 215 640 C 192 640 172 631 155 615 C 138 599 130 579 130 557 C 130 534 138 515 155 499 C 172 483 192 475 215 475 Z" unicode="°" />
<glyph horiz-adv-x="500" d="M 479 132 L 479 13 L 22 13 L 22 132 L 184 132 L 184 271 L 19 271 L 19 391 L 184 391 L 184 560 L 317 560 L 317 391 L 481 391 L 481 271 L 317 271 L 317 132 L 479 132 Z" unicode="±" />
<glyph horiz-adv-x="354" d="M 333 372 L 18 372 L 18 406 L 179 570 C 185 577 190 584 194 591 C 197 597 199 605 199 615 C 199 623 196 631 190 637 C 184 643 176 647 164 647 C 149 647 139 642 134 634 C 128 625 126 615 126 605 L 14 605 C 14 646 29 679 59 704 C 89 728 130 741 180 741 C 228 741 265 731 290 712 C 314 692 327 669 327 641 C 327 614 322 592 312 575 C 302 558 291 544 280 532 L 214 465 L 333 465 L 333 372 Z" unicode="²" />
<glyph horiz-adv-x="346" d="M 235 568 C 259 563 278 552 293 536 C 308 519 316 499 316 476 C 316 465 313 453 309 440 C 304 426 296 414 285 403 C 273 391 257 382 237 374 C 217 366 191 363 161 363 C 115 363 79 368 55 379 C 31 390 13 401 2 411 L 53 470 C 62 463 73 457 87 452 C 101 446 118 444 139 444 C 163 444 181 448 191 456 C 201 464 206 475 206 489 C 206 503 199 513 185 517 C 171 521 154 524 136 524 L 69 524 L 69 603 L 134 603 C 148 603 161 605 172 610 C 182 615 188 623 188 634 C 188 643 184 650 176 654 C 168 658 158 660 145 660 C 126 660 110 657 96 651 C 82 645 70 639 61 632 L 14 690 C 24 700 40 712 64 724 C 88 736 121 742 163 742 C 201 742 234 734 261 718 C 287 702 301 678 301 648 C 301 627 294 610 280 596 C 266 582 251 572 235 568 Z" unicode="³" />
<glyph horiz-adv-x="500" d="M 114 495 L 210 670 L 389 670 L 264 495 L 114 495 Z" unicode="´" />
<glyph horiz-adv-x="578" d="M 49 -86 L 49 453 L 205 453 L 205 173 C 205 155 212 141 228 132 C 243 122 261 118 281 118 C 305 118 326 123 343 135 C 359 147 368 162 368 181 L 368 453 L 523 453 L 523 0 L 381 0 L 381 70 C 368 50 350 34 327 21 C 304 8 281 0 257 -2 C 243 -2 231 -1 219 2 C 207 6 198 11 192 19 L 192 -86 L 49 -86 Z" unicode="µ" />
<glyph horiz-adv-x="619" d="M 577 -182 L 488 -179 L 488 607 L 425 607 L 425 -179 L 336 -179 L 336 268 L 247 268 C 217 268 189 274 161 286 C 133 298 109 315 88 336 C 67 356 50 380 38 408 C 25 436 19 465 19 496 C 19 529 25 560 37 589 C 49 617 65 642 87 663 C 108 683 134 700 165 712 C 195 724 229 730 266 730 L 577 730 L 577 -182 Z M 336 397 L 336 601 L 304 601 C 271 601 244 591 224 572 C 204 553 194 529 194 499 C 194 471 204 447 224 427 C 244 407 269 397 298 397 L 336 397 Z" unicode="¶" />
<glyph horiz-adv-x="300" d="M 229 233 L 72 233 L 72 401 L 229 401 L 229 233 Z" unicode="·" />
<glyph horiz-adv-x="500" d="M 253 -182 C 229 -182 207 -179 186 -173 C 165 -167 148 -159 135 -149 L 157 -95 C 163 -99 173 -104 185 -110 C 197 -116 210 -119 224 -119 C 232 -119 239 -117 245 -113 C 251 -109 254 -104 254 -98 C 254 -91 251 -86 246 -83 C 240 -80 235 -79 229 -79 C 224 -79 220 -79 216 -80 C 212 -80 208 -81 204 -83 L 183 -62 L 245 14 L 321 14 L 277 -40 C 303 -37 325 -41 342 -53 C 358 -64 367 -80 367 -102 C 367 -126 355 -146 333 -160 C 311 -174 284 -182 253 -182 Z" unicode="¸" />
<glyph horiz-adv-x="318" d="M 122 372 L 122 606 C 118 601 112 597 104 593 C 96 589 88 585 80 583 C 71 581 63 579 55 578 C 47 576 41 575 37 575 L 37 679 C 63 679 85 684 104 693 C 122 702 144 717 169 738 L 247 738 L 247 372 L 122 372 Z" unicode="¹" />
<glyph horiz-adv-x="427" d="M 210 323 C 186 323 163 327 141 336 C 118 344 98 357 81 375 C 64 392 50 414 40 440 C 29 466 24 496 24 530 C 24 560 29 587 40 613 C 50 639 64 661 81 680 C 98 698 118 713 141 724 C 163 734 186 740 210 740 C 236 740 261 735 285 726 C 309 717 329 704 347 687 C 364 670 378 649 388 624 C 398 599 403 571 403 540 C 403 507 397 477 387 450 C 376 423 362 400 344 382 C 326 363 306 348 283 338 C 259 328 235 323 210 323 Z M 212 427 C 234 427 252 436 265 456 C 278 476 285 503 285 537 C 285 567 279 591 267 608 C 255 624 238 633 216 633 C 193 633 175 623 162 604 C 148 584 142 557 142 521 C 142 491 148 467 161 451 C 174 435 191 427 212 427 Z M 32 200 L 32 297 L 395 297 L 395 200 L 32 200 Z" unicode="º" />
<glyph horiz-adv-x="500" d="M 27 479 L 242 304 L 242 215 L 27 43 L 27 193 L 105 263 L 27 324 L 27 479 Z M 263 479 L 476 304 L 476 215 L 263 43 L 263 193 L 341 263 L 263 324 L 263 479 Z" unicode="»" />
<glyph horiz-adv-x="716" d="M 12 0 L 12 0 Z M 97 372 L 97 606 C 93 601 87 597 79 593 C 71 589 63 585 55 583 C 46 581 38 579 30 578 C 22 576 16 575 12 575 L 12 679 C 38 679 60 684 79 693 C 97 702 119 717 144 738 L 222 738 L 222 372 L 97 372 Z M 598 730 L 258 0 L 140 0 L 480 730 L 598 730 Z M 397 81 L 397 153 L 575 362 L 653 362 L 653 158 L 704 158 L 704 81 L 653 81 L 653 1 L 547 1 L 547 81 L 397 81 Z M 491 153 L 550 153 L 550 225 L 491 153 Z" unicode="¼" />
<glyph horiz-adv-x="798" d="M 12 0 L 12 0 Z M 97 372 L 97 606 C 93 601 87 597 79 593 C 71 589 63 585 55 583 C 46 581 38 579 30 578 C 22 576 16 575 12 575 L 12 679 C 38 679 60 684 79 693 C 97 702 119 717 144 738 L 222 738 L 222 372 L 97 372 Z M 598 730 L 258 0 L 140 0 L 480 730 L 598 730 Z M 778 0 L 463 0 L 463 34 L 624 198 C 630 205 635 212 639 219 C 642 225 644 233 644 243 C 644 251 641 259 635 265 C 629 271 621 275 609 275 C 594 275 584 270 579 262 C 573 253 571 243 571 233 L 459 233 C 459 274 474 307 504 332 C 534 356 575 369 625 369 C 673 369 710 359 735 340 C 759 320 772 297 772 269 C 772 242 767 220 757 203 C 747 186 736 172 725 160 L 659 93 L 778 93 L 778 0 Z" unicode="½" />
<glyph horiz-adv-x="766" d="M 12 0 L 12 0 Z M 648 730 L 308 0 L 190 0 L 530 730 L 648 730 Z M 447 81 L 447 153 L 625 362 L 703 362 L 703 158 L 754 158 L 754 81 L 703 81 L 703 1 L 597 1 L 597 81 L 447 81 Z M 541 153 L 600 153 L 600 225 L 541 153 Z M 245 568 C 269 563 288 552 303 536 C 318 519 326 499 326 476 C 326 465 323 453 319 440 C 314 426 306 414 295 403 C 283 391 267 382 247 374 C 227 366 201 363 171 363 C 125 363 89 368 65 379 C 41 390 23 401 12 411 L 63 470 C 72 463 83 457 97 452 C 111 446 128 444 149 444 C 173 444 191 448 201 456 C 211 464 216 475 216 489 C 216 503 209 513 195 517 C 181 521 164 524 146 524 L 79 524 L 79 603 L 144 603 C 158 603 171 605 182 610 C 192 615 198 623 198 634 C 198 643 194 650 186 654 C 178 658 168 660 155 660 C 136 660 120 657 106 651 C 92 645 80 639 71 632 L 24 690 C 34 700 50 712 74 724 C 98 736 131 742 173 742 C 211 742 244 734 271 718 C 297 702 311 678 311 648 C 311 627 304 610 290 596 C 276 582 261 572 245 568 Z" unicode="¾" />
<glyph horiz-adv-x="441" d="M 144 403 L 144 563 L 315 563 L 315 403 L 144 403 Z M 221 -179 C 152 -179 101 -161 68 -126 C 35 -90 19 -46 19 7 C 19 57 29 99 49 134 C 69 169 93 204 119 238 C 130 251 139 266 146 282 C 152 298 156 312 158 326 L 309 326 C 309 296 302 269 290 243 C 278 217 261 190 241 163 C 225 141 211 120 201 98 C 190 76 185 53 185 29 C 185 6 191 -11 205 -24 C 219 -37 235 -44 255 -44 C 274 -44 291 -38 305 -27 C 319 -15 331 -1 341 15 L 433 -75 C 406 -111 374 -137 336 -154 C 298 -170 260 -179 221 -179 Z" unicode="¿" />
<glyph horiz-adv-x="510" d="M 0 0 L 0 0 Z M 515 0 L 354 0 L 323 123 L 179 123 L 151 0 L -5 0 L 197 733 L 315 733 L 515 0 Z M 305 250 L 251 450 L 199 250 L 305 250 Z M 253 789 L 253 789 Z M 390 789 L 241 789 L 116 964 L 294 964 L 390 789 Z" unicode="À" />
<glyph horiz-adv-x="510" d="M 0 0 L 0 0 Z M 515 0 L 354 0 L 323 123 L 179 123 L 151 0 L -5 0 L 197 733 L 315 733 L 515 0 Z M 305 250 L 251 450 L 199 250 L 305 250 Z M 253 789 L 253 789 Z M 116 789 L 212 964 L 391 964 L 266 789 L 116 789 Z" unicode="Á" />
<glyph horiz-adv-x="510" d="M 0 0 L 0 0 Z M 515 0 L 354 0 L 323 123 L 179 123 L 151 0 L -5 0 L 197 733 L 315 733 L 515 0 Z M 305 250 L 251 450 L 199 250 L 305 250 Z M 253 789 L 253 789 Z M 419 789 L 296 789 L 252 864 L 209 789 L 87 789 L 188 964 L 318 964 L 419 789 Z" unicode="Â" />
<glyph horiz-adv-x="510" d="M 0 0 L 0 0 Z M 515 0 L 354 0 L 323 123 L 179 123 L 151 0 L -5 0 L 197 733 L 315 733 L 515 0 Z M 305 250 L 251 450 L 199 250 L 305 250 Z M 253 791 L 253 791 Z M 319 950 L 433 950 C 433 896 424 856 408 830 C 391 804 370 791 344 791 C 323 791 306 794 293 800 C 279 806 268 811 260 817 C 252 821 244 826 236 831 C 228 835 219 838 211 838 C 204 838 198 834 193 826 C 187 818 184 807 184 793 L 74 793 C 74 847 83 887 102 913 C 121 939 143 953 167 953 C 187 953 204 950 217 944 C 229 938 240 932 249 927 C 257 922 264 918 270 914 C 276 910 283 908 289 908 C 295 908 302 911 308 918 C 314 924 318 935 319 950 Z" unicode="Ã" />
<glyph horiz-adv-x="510" d="M 0 0 L 0 0 Z M 515 0 L 354 0 L 323 123 L 179 123 L 151 0 L -5 0 L 197 733 L 315 733 L 515 0 Z M 305 250 L 251 450 L 199 250 L 305 250 Z M 253 789 L 253 789 Z M 402 789 L 277 789 L 277 953 L 402 953 L 402 789 Z M 229 789 L 104 789 L 104 953 L 229 953 L 229 789 Z" unicode="Ä" />
<glyph horiz-adv-x="510" d="M 0 0 L 0 0 Z M 515 0 L 354 0 L 323 123 L 179 123 L 151 0 L -5 0 L 197 733 L 315 733 L 515 0 Z M 305 250 L 251 450 L 199 250 L 305 250 Z M 253 784 L 253 784 Z M 253 784 C 219 784 190 795 167 819 C 143 842 132 871 132 905 C 132 938 143 966 167 990 C 190 1014 219 1026 253 1026 C 287 1026 315 1014 339 990 C 363 966 375 938 375 905 C 375 871 363 842 339 819 C 315 795 287 784 253 784 Z M 253 860 C 265 860 276 864 284 873 C 292 881 296 892 296 905 C 296 917 292 928 284 936 C 276 944 265 949 253 949 C 241 949 230 944 222 936 C 214 928 210 917 210 905 C 210 892 214 881 222 873 C 230 864 241 860 253 860 Z" unicode="Å" />
<glyph horiz-adv-x="737" d="M 727 0 L 368 0 L 368 136 L 202 136 L 151 0 L -5 0 L 261 730 L 706 730 L 706 591 L 522 591 L 522 430 L 695 430 L 695 291 L 522 291 L 522 139 L 727 139 L 727 0 Z M 368 257 L 368 620 L 238 257 L 368 257 Z" unicode="Æ" />
<glyph horiz-adv-x="500" d="M 22 0 L 22 0 Z M 271 -6 C 195 -6 135 25 90 87 C 44 149 22 242 22 366 C 22 422 27 474 38 520 C 48 566 64 605 85 637 C 106 669 133 693 165 710 C 197 727 233 736 275 736 C 343 736 393 720 424 689 C 455 657 477 619 490 573 L 348 537 C 342 553 334 568 325 582 C 316 595 301 602 281 602 C 267 602 254 598 243 591 C 232 584 223 572 215 554 C 207 536 201 512 197 481 C 193 450 191 411 191 363 C 191 314 194 274 200 244 C 206 213 213 189 223 172 C 233 154 244 143 256 137 C 268 131 281 128 294 128 C 316 128 333 133 343 143 C 353 153 361 167 367 183 L 492 147 C 476 99 449 61 413 34 C 376 7 329 -6 271 -6 Z M 263 0 L 263 0 Z M 265 -182 C 241 -182 219 -179 198 -173 C 177 -167 160 -159 147 -149 L 169 -95 C 175 -99 185 -104 197 -110 C 209 -116 222 -119 236 -119 C 244 -119 251 -117 257 -113 C 263 -109 266 -104 266 -98 C 266 -91 263 -86 258 -83 C 252 -80 247 -79 241 -79 C 236 -79 232 -79 228 -80 C 224 -80 220 -81 216 -83 L 195 -62 L 257 14 L 333 14 L 289 -40 C 315 -37 337 -41 354 -53 C 370 -64 379 -80 379 -102 C 379 -126 367 -146 345 -160 C 323 -174 296 -182 265 -182 Z" unicode="Ç" />
<glyph horiz-adv-x="416" d="M 35 0 L 35 0 Z M 406 0 L 35 0 L 35 730 L 385 730 L 385 586 L 201 586 L 201 434 L 374 434 L 374 290 L 201 290 L 201 144 L 406 144 L 406 0 Z M 209 789 L 209 789 Z M 346 789 L 197 789 L 72 964 L 250 964 L 346 789 Z" unicode="È" />
<glyph horiz-adv-x="416" d="M 35 0 L 35 0 Z M 406 0 L 35 0 L 35 730 L 385 730 L 385 586 L 201 586 L 201 434 L 374 434 L 374 290 L 201 290 L 201 144 L 406 144 L 406 0 Z M 209 789 L 209 789 Z M 72 789 L 168 964 L 347 964 L 222 789 L 72 789 Z" unicode="É" />
<glyph horiz-adv-x="416" d="M 35 0 L 35 0 Z M 406 0 L 35 0 L 35 730 L 385 730 L 385 586 L 201 586 L 201 434 L 374 434 L 374 290 L 201 290 L 201 144 L 406 144 L 406 0 Z M 209 789 L 209 789 Z M 375 789 L 252 789 L 208 864 L 165 789 L 43 789 L 144 964 L 274 964 L 375 789 Z" unicode="Ê" />
<glyph horiz-adv-x="416" d="M 35 0 L 35 0 Z M 406 0 L 35 0 L 35 730 L 385 730 L 385 586 L 201 586 L 201 434 L 374 434 L 374 290 L 201 290 L 201 144 L 406 144 L 406 0 Z M 209 789 L 209 789 Z M 358 789 L 233 789 L 233 953 L 358 953 L 358 789 Z M 185 789 L 60 789 L 60 953 L 185 953 L 185 789 Z" unicode="Ë" />
<glyph horiz-adv-x="247" d="M 0 0 L 0 0 Z M 210 0 L 38 0 L 38 730 L 210 730 L 210 0 Z M 124 789 L 124 789 Z M 261 789 L 112 789 L -13 964 L 165 964 L 261 789 Z" unicode="Ì" />
<glyph horiz-adv-x="247" d="M 0 0 L 0 0 Z M 210 0 L 38 0 L 38 730 L 210 730 L 210 0 Z M 124 789 L 124 789 Z M -13 789 L 83 964 L 262 964 L 137 789 L -13 789 Z" unicode="Í" />
<glyph horiz-adv-x="247" d="M 0 0 L 0 0 Z M 210 0 L 38 0 L 38 730 L 210 730 L 210 0 Z M 124 789 L 124 789 Z M 290 789 L 167 789 L 123 864 L 80 789 L -42 789 L 59 964 L 189 964 L 290 789 Z" unicode="Î" />
<glyph horiz-adv-x="247" d="M 0 0 L 0 0 Z M 210 0 L 38 0 L 38 730 L 210 730 L 210 0 Z M 124 789 L 124 789 Z M 273 789 L 148 789 L 148 953 L 273 953 L 273 789 Z M 100 789 L -25 789 L -25 953 L 100 953 L 100 789 Z" unicode="Ï" />
<glyph horiz-adv-x="545" d="M 524 359 C 524 308 517 261 505 217 C 493 173 474 135 449 103 C 424 71 392 45 354 27 C 316 9 271 0 221 0 L 35 0 L 35 299 L 5 299 L 5 419 L 35 419 L 35 730 L 230 730 C 278 730 320 720 357 702 C 394 684 425 658 449 626 C 473 594 492 555 505 509 C 517 463 524 413 524 359 Z M 204 131 L 234 131 C 278 131 308 149 326 187 C 344 224 353 281 353 357 C 353 447 342 509 321 545 C 300 581 272 599 236 599 L 204 599 L 204 419 L 296 419 L 296 299 L 204 299 L 204 131 Z" unicode="Ð" />
<glyph horiz-adv-x="525" d="M 35 0 L 35 0 Z M 490 0 L 373 0 L 194 371 L 194 0 L 35 0 L 35 730 L 153 730 L 337 366 L 337 730 L 490 730 L 490 0 Z M 260 791 L 260 791 Z M 326 950 L 440 950 C 440 896 431 856 415 830 C 398 804 377 791 351 791 C 330 791 313 794 300 800 C 286 806 275 811 267 817 C 259 821 251 826 243 831 C 235 835 226 838 218 838 C 211 838 205 834 200 826 C 194 818 191 807 191 793 L 81 793 C 81 847 90 887 109 913 C 128 939 150 953 174 953 C 194 953 211 950 224 944 C 236 938 247 932 256 927 C 264 922 271 918 277 914 C 283 910 290 908 296 908 C 302 908 309 911 315 918 C 321 924 325 935 326 950 Z" unicode="Ñ" />
<glyph horiz-adv-x="561" d="M 21 0 L 21 0 Z M 283 -6 C 192 -6 126 26 84 91 C 42 156 21 249 21 370 C 21 483 43 572 87 638 C 131 703 195 736 278 736 C 366 736 431 704 475 641 C 518 578 540 486 540 365 C 540 250 517 159 472 93 C 426 27 363 -6 283 -6 Z M 280 127 C 312 127 335 145 349 181 C 362 217 369 281 369 372 C 369 456 361 515 347 550 C 332 585 309 603 279 603 C 246 603 223 585 211 551 C 199 516 193 454 193 365 C 193 274 199 212 213 178 C 227 144 249 127 280 127 Z M 279 789 L 279 789 Z M 416 789 L 267 789 L 142 964 L 320 964 L 416 789 Z" unicode="Ò" />
<glyph horiz-adv-x="561" d="M 21 0 L 21 0 Z M 283 -6 C 192 -6 126 26 84 91 C 42 156 21 249 21 370 C 21 483 43 572 87 638 C 131 703 195 736 278 736 C 366 736 431 704 475 641 C 518 578 540 486 540 365 C 540 250 517 159 472 93 C 426 27 363 -6 283 -6 Z M 280 127 C 312 127 335 145 349 181 C 362 217 369 281 369 372 C 369 456 361 515 347 550 C 332 585 309 603 279 603 C 246 603 223 585 211 551 C 199 516 193 454 193 365 C 193 274 199 212 213 178 C 227 144 249 127 280 127 Z M 279 789 L 279 789 Z M 142 789 L 238 964 L 417 964 L 292 789 L 142 789 Z" unicode="Ó" />
<glyph horiz-adv-x="561" d="M 21 0 L 21 0 Z M 283 -6 C 192 -6 126 26 84 91 C 42 156 21 249 21 370 C 21 483 43 572 87 638 C 131 703 195 736 278 736 C 366 736 431 704 475 641 C 518 578 540 486 540 365 C 540 250 517 159 472 93 C 426 27 363 -6 283 -6 Z M 280 127 C 312 127 335 145 349 181 C 362 217 369 281 369 372 C 369 456 361 515 347 550 C 332 585 309 603 279 603 C 246 603 223 585 211 551 C 199 516 193 454 193 365 C 193 274 199 212 213 178 C 227 144 249 127 280 127 Z M 279 789 L 279 789 Z M 445 789 L 322 789 L 278 864 L 235 789 L 113 789 L 214 964 L 344 964 L 445 789 Z" unicode="Ô" />
<glyph horiz-adv-x="561" d="M 21 0 L 21 0 Z M 283 -6 C 192 -6 126 26 84 91 C 42 156 21 249 21 370 C 21 483 43 572 87 638 C 131 703 195 736 278 736 C 366 736 431 704 475 641 C 518 578 540 486 540 365 C 540 250 517 159 472 93 C 426 27 363 -6 283 -6 Z M 280 127 C 312 127 335 145 349 181 C 362 217 369 281 369 372 C 369 456 361 515 347 550 C 332 585 309 603 279 603 C 246 603 223 585 211 551 C 199 516 193 454 193 365 C 193 274 199 212 213 178 C 227 144 249 127 280 127 Z M 279 791 L 279 791 Z M 345 950 L 459 950 C 459 896 450 856 434 830 C 417 804 396 791 370 791 C 349 791 332 794 319 800 C 305 806 294 811 286 817 C 278 821 270 826 262 831 C 254 835 245 838 237 838 C 230 838 224 834 219 826 C 213 818 210 807 210 793 L 100 793 C 100 847 109 887 128 913 C 147 939 169 953 193 953 C 213 953 230 950 243 944 C 255 938 266 932 275 927 C 283 922 290 918 296 914 C 302 910 309 908 315 908 C 321 908 328 911 334 918 C 340 924 344 935 345 950 Z" unicode="Õ" />
<glyph horiz-adv-x="561" d="M 21 0 L 21 0 Z M 283 -6 C 192 -6 126 26 84 91 C 42 156 21 249 21 370 C 21 483 43 572 87 638 C 131 703 195 736 278 736 C 366 736 431 704 475 641 C 518 578 540 486 540 365 C 540 250 517 159 472 93 C 426 27 363 -6 283 -6 Z M 280 127 C 312 127 335 145 349 181 C 362 217 369 281 369 372 C 369 456 361 515 347 550 C 332 585 309 603 279 603 C 246 603 223 585 211 551 C 199 516 193 454 193 365 C 193 274 199 212 213 178 C 227 144 249 127 280 127 Z M 279 789 L 279 789 Z M 428 789 L 303 789 L 303 953 L 428 953 L 428 789 Z M 255 789 L 130 789 L 130 953 L 255 953 L 255 789 Z" unicode="Ö" />
<glyph horiz-adv-x="502" d="M 124 117 L 37 204 L 164 330 L 39 455 L 125 543 L 251 418 L 377 543 L 464 455 L 338 330 L 465 205 L 378 114 L 251 244 L 124 117 Z" unicode="×" />
<glyph horiz-adv-x="561" d="M 283 -6 C 246 -6 213 0 184 10 C 155 21 130 37 110 59 L 64 -12 L 15 21 L 73 110 C 55 140 41 178 33 222 C 25 266 21 315 21 370 C 21 483 43 572 87 638 C 131 703 195 736 278 736 C 312 736 342 731 370 721 C 398 711 422 697 443 679 L 493 757 L 542 725 L 482 632 C 501 601 515 563 525 519 C 535 474 540 423 540 365 C 540 250 517 159 472 93 C 426 27 363 -6 283 -6 Z M 193 365 C 193 352 193 340 193 329 C 193 317 193 307 194 297 L 351 539 C 344 561 334 578 322 588 C 310 598 295 603 279 603 C 246 603 223 585 211 551 C 199 516 193 454 193 365 Z M 369 372 C 369 387 368 401 368 415 C 367 429 366 442 366 454 L 205 206 C 211 177 221 157 233 145 C 245 133 261 127 280 127 C 312 127 335 145 349 181 C 362 217 369 281 369 372 Z" unicode="Ø" />
<glyph horiz-adv-x="532" d="M 33 0 L 33 0 Z M 500 730 L 500 231 C 500 189 493 153 479 123 C 465 93 446 68 424 49 C 401 30 375 16 346 7 C 316 -2 286 -7 256 -7 C 226 -7 197 -2 170 6 C 142 14 119 28 99 47 C 79 66 63 91 51 121 C 39 151 33 188 33 231 L 33 730 L 201 730 L 201 223 C 201 192 206 170 216 158 C 226 145 241 139 260 139 C 278 139 294 145 306 157 C 318 169 324 191 324 223 L 324 730 L 500 730 Z M 262 789 L 262 789 Z M 399 789 L 250 789 L 125 964 L 303 964 L 399 789 Z" unicode="Ù" />
<glyph horiz-adv-x="532" d="M 33 0 L 33 0 Z M 500 730 L 500 231 C 500 189 493 153 479 123 C 465 93 446 68 424 49 C 401 30 375 16 346 7 C 316 -2 286 -7 256 -7 C 226 -7 197 -2 170 6 C 142 14 119 28 99 47 C 79 66 63 91 51 121 C 39 151 33 188 33 231 L 33 730 L 201 730 L 201 223 C 201 192 206 170 216 158 C 226 145 241 139 260 139 C 278 139 294 145 306 157 C 318 169 324 191 324 223 L 324 730 L 500 730 Z M 262 789 L 262 789 Z M 125 789 L 221 964 L 400 964 L 275 789 L 125 789 Z" unicode="Ú" />
<glyph horiz-adv-x="532" d="M 33 0 L 33 0 Z M 500 730 L 500 231 C 500 189 493 153 479 123 C 465 93 446 68 424 49 C 401 30 375 16 346 7 C 316 -2 286 -7 256 -7 C 226 -7 197 -2 170 6 C 142 14 119 28 99 47 C 79 66 63 91 51 121 C 39 151 33 188 33 231 L 33 730 L 201 730 L 201 223 C 201 192 206 170 216 158 C 226 145 241 139 260 139 C 278 139 294 145 306 157 C 318 169 324 191 324 223 L 324 730 L 500 730 Z M 262 789 L 262 789 Z M 428 789 L 305 789 L 261 864 L 218 789 L 96 789 L 197 964 L 327 964 L 428 789 Z" unicode="Û" />
<glyph horiz-adv-x="532" d="M 33 0 L 33 0 Z M 500 730 L 500 231 C 500 189 493 153 479 123 C 465 93 446 68 424 49 C 401 30 375 16 346 7 C 316 -2 286 -7 256 -7 C 226 -7 197 -2 170 6 C 142 14 119 28 99 47 C 79 66 63 91 51 121 C 39 151 33 188 33 231 L 33 730 L 201 730 L 201 223 C 201 192 206 170 216 158 C 226 145 241 139 260 139 C 278 139 294 145 306 157 C 318 169 324 191 324 223 L 324 730 L 500 730 Z M 262 789 L 262 789 Z M 411 789 L 286 789 L 286 953 L 411 953 L 411 789 Z M 238 789 L 113 789 L 113 953 L 238 953 L 238 789 Z" unicode="Ü" />
<glyph horiz-adv-x="485" d="M 0 0 L 0 0 Z M 498 730 L 325 297 L 325 0 L 155 0 L 155 301 L -13 730 L 154 730 L 246 465 L 343 730 L 498 730 Z M 247 789 L 247 789 Z M 110 789 L 206 964 L 385 964 L 260 789 L 110 789 Z" unicode="Ý" />
<glyph horiz-adv-x="480" d="M 35 0 L 35 730 L 205 730 L 205 618 L 258 618 C 288 618 315 612 341 602 C 367 591 389 575 407 555 C 425 535 440 510 451 481 C 461 452 467 420 467 384 C 467 310 446 251 405 208 C 363 164 311 143 247 143 L 205 143 L 205 0 L 35 0 Z M 201 271 L 244 271 C 264 271 281 280 293 300 C 305 320 311 347 311 383 C 311 417 304 442 290 460 C 276 477 261 486 243 486 L 201 486 L 201 271 Z" unicode="Þ" />
<glyph horiz-adv-x="556" d="M 392 -7 C 354 -7 319 0 289 12 C 259 24 236 40 220 58 L 279 145 C 293 132 307 122 323 115 C 339 107 354 104 369 104 C 380 104 389 106 397 111 C 404 115 408 124 408 136 C 408 146 400 155 386 165 C 372 175 354 185 334 197 C 308 210 285 227 264 248 C 242 269 232 301 232 343 C 232 361 235 377 241 392 C 247 407 254 420 264 432 C 273 444 283 454 295 463 C 306 471 317 478 328 484 C 332 485 335 490 339 499 C 343 508 345 524 346 547 C 349 577 344 601 330 617 C 316 633 296 641 270 641 C 246 641 228 633 216 617 C 203 601 197 577 197 544 L 197 0 L 40 0 L 40 555 C 40 626 60 680 101 716 C 141 752 197 771 267 771 C 333 771 386 752 428 714 C 469 676 489 626 489 564 C 489 535 486 511 480 491 C 474 471 467 454 459 441 C 450 428 441 418 431 412 C 421 406 411 402 403 400 C 387 396 374 391 364 385 C 354 378 350 368 350 356 C 350 342 358 329 376 317 C 394 305 415 292 440 280 C 473 262 498 242 515 220 C 532 198 541 167 541 128 C 541 105 536 85 526 68 C 516 51 504 37 490 26 C 476 15 460 7 442 1 C 424 -4 408 -7 392 -7 Z" unicode="ß" />
<glyph horiz-adv-x="407" d="M 9 0 L 9 0 Z M 384 0 L 244 0 L 244 38 C 230 23 213 12 193 5 C 173 -2 151 -6 129 -6 C 91 -6 61 7 40 34 C 19 61 9 95 9 135 C 9 183 24 219 56 241 C 87 263 127 275 175 277 L 238 279 L 238 288 C 238 304 232 316 221 324 C 210 331 193 335 170 335 C 147 335 128 331 112 325 C 96 319 85 313 77 308 L 37 403 C 54 415 77 426 105 434 C 133 442 169 447 215 447 C 236 447 257 444 278 438 C 298 432 316 424 332 412 C 348 400 360 384 370 366 C 379 348 384 326 384 301 L 384 0 Z M 241 112 L 241 194 L 205 193 C 190 192 177 187 167 179 C 157 170 152 157 152 139 C 152 123 156 112 166 106 C 175 100 184 97 194 97 C 206 97 215 98 223 101 C 230 103 236 107 241 112 Z M 202 495 L 202 495 Z M 339 495 L 190 495 L 65 670 L 243 670 L 339 495 Z" unicode="à" />
<glyph horiz-adv-x="407" d="M 9 0 L 9 0 Z M 384 0 L 244 0 L 244 38 C 230 23 213 12 193 5 C 173 -2 151 -6 129 -6 C 91 -6 61 7 40 34 C 19 61 9 95 9 135 C 9 183 24 219 56 241 C 87 263 127 275 175 277 L 238 279 L 238 288 C 238 304 232 316 221 324 C 210 331 193 335 170 335 C 147 335 128 331 112 325 C 96 319 85 313 77 308 L 37 403 C 54 415 77 426 105 434 C 133 442 169 447 215 447 C 236 447 257 444 278 438 C 298 432 316 424 332 412 C 348 400 360 384 370 366 C 379 348 384 326 384 301 L 384 0 Z M 241 112 L 241 194 L 205 193 C 190 192 177 187 167 179 C 157 170 152 157 152 139 C 152 123 156 112 166 106 C 175 100 184 97 194 97 C 206 97 215 98 223 101 C 230 103 236 107 241 112 Z M 202 495 L 202 495 Z M 65 495 L 161 670 L 340 670 L 215 495 L 65 495 Z" unicode="á" />
<glyph horiz-adv-x="407" d="M 9 0 L 9 0 Z M 384 0 L 244 0 L 244 38 C 230 23 213 12 193 5 C 173 -2 151 -6 129 -6 C 91 -6 61 7 40 34 C 19 61 9 95 9 135 C 9 183 24 219 56 241 C 87 263 127 275 175 277 L 238 279 L 238 288 C 238 304 232 316 221 324 C 210 331 193 335 170 335 C 147 335 128 331 112 325 C 96 319 85 313 77 308 L 37 403 C 54 415 77 426 105 434 C 133 442 169 447 215 447 C 236 447 257 444 278 438 C 298 432 316 424 332 412 C 348 400 360 384 370 366 C 379 348 384 326 384 301 L 384 0 Z M 241 112 L 241 194 L 205 193 C 190 192 177 187 167 179 C 157 170 152 157 152 139 C 152 123 156 112 166 106 C 175 100 184 97 194 97 C 206 97 215 98 223 101 C 230 103 236 107 241 112 Z M 202 495 L 202 495 Z M 368 495 L 245 495 L 201 570 L 158 495 L 36 495 L 137 670 L 267 670 L 368 495 Z" unicode="â" />
<glyph horiz-adv-x="407" d="M 9 0 L 9 0 Z M 384 0 L 244 0 L 244 38 C 230 23 213 12 193 5 C 173 -2 151 -6 129 -6 C 91 -6 61 7 40 34 C 19 61 9 95 9 135 C 9 183 24 219 56 241 C 87 263 127 275 175 277 L 238 279 L 238 288 C 238 304 232 316 221 324 C 210 331 193 335 170 335 C 147 335 128 331 112 325 C 96 319 85 313 77 308 L 37 403 C 54 415 77 426 105 434 C 133 442 169 447 215 447 C 236 447 257 444 278 438 C 298 432 316 424 332 412 C 348 400 360 384 370 366 C 379 348 384 326 384 301 L 384 0 Z M 241 112 L 241 194 L 205 193 C 190 192 177 187 167 179 C 157 170 152 157 152 139 C 152 123 156 112 166 106 C 175 100 184 97 194 97 C 206 97 215 98 223 101 C 230 103 236 107 241 112 Z M 202 497 L 202 497 Z M 268 656 L 382 656 C 382 602 373 562 357 536 C 340 510 319 497 293 497 C 272 497 255 500 242 506 C 228 512 217 517 209 523 C 201 527 193 532 185 537 C 177 541 168 544 160 544 C 153 544 147 540 142 532 C 136 524 133 513 133 499 L 23 499 C 23 553 32 593 51 619 C 70 645 92 659 116 659 C 136 659 153 656 166 650 C 178 644 189 638 198 633 C 206 628 213 624 219 620 C 225 616 232 614 238 614 C 244 614 251 617 257 624 C 263 630 267 641 268 656 Z" unicode="ã" />
<glyph horiz-adv-x="407" d="M 9 0 L 9 0 Z M 384 0 L 244 0 L 244 38 C 230 23 213 12 193 5 C 173 -2 151 -6 129 -6 C 91 -6 61 7 40 34 C 19 61 9 95 9 135 C 9 183 24 219 56 241 C 87 263 127 275 175 277 L 238 279 L 238 288 C 238 304 232 316 221 324 C 210 331 193 335 170 335 C 147 335 128 331 112 325 C 96 319 85 313 77 308 L 37 403 C 54 415 77 426 105 434 C 133 442 169 447 215 447 C 236 447 257 444 278 438 C 298 432 316 424 332 412 C 348 400 360 384 370 366 C 379 348 384 326 384 301 L 384 0 Z M 241 112 L 241 194 L 205 193 C 190 192 177 187 167 179 C 157 170 152 157 152 139 C 152 123 156 112 166 106 C 175 100 184 97 194 97 C 206 97 215 98 223 101 C 230 103 236 107 241 112 Z M 202 495 L 202 495 Z M 351 495 L 226 495 L 226 659 L 351 659 L 351 495 Z M 178 495 L 53 495 L 53 659 L 178 659 L 178 495 Z" unicode="ä" />
<glyph horiz-adv-x="407" d="M 9 0 L 9 0 Z M 384 0 L 244 0 L 244 38 C 230 23 213 12 193 5 C 173 -2 151 -6 129 -6 C 91 -6 61 7 40 34 C 19 61 9 95 9 135 C 9 183 24 219 56 241 C 87 263 127 275 175 277 L 238 279 L 238 288 C 238 304 232 316 221 324 C 210 331 193 335 170 335 C 147 335 128 331 112 325 C 96 319 85 313 77 308 L 37 403 C 54 415 77 426 105 434 C 133 442 169 447 215 447 C 236 447 257 444 278 438 C 298 432 316 424 332 412 C 348 400 360 384 370 366 C 379 348 384 326 384 301 L 384 0 Z M 241 112 L 241 194 L 205 193 C 190 192 177 187 167 179 C 157 170 152 157 152 139 C 152 123 156 112 166 106 C 175 100 184 97 194 97 C 206 97 215 98 223 101 C 230 103 236 107 241 112 Z M 202 490 L 202 490 Z M 202 490 C 168 490 139 501 116 525 C 92 548 81 577 81 611 C 81 644 92 672 116 696 C 139 720 168 732 202 732 C 236 732 264 720 288 696 C 312 672 324 644 324 611 C 324 577 312 548 288 525 C 264 501 236 490 202 490 Z M 202 566 C 214 566 225 570 233 579 C 241 587 245 598 245 611 C 245 623 241 634 233 642 C 225 650 214 655 202 655 C 190 655 179 650 171 642 C 163 634 159 623 159 611 C 159 598 163 587 171 579 C 179 570 190 566 202 566 Z" unicode="å" />
<glyph horiz-adv-x="640" d="M 432 -6 C 395 -6 365 2 341 18 C 317 34 301 51 293 71 C 285 57 275 45 263 35 C 251 25 237 18 223 12 C 209 6 194 1 180 -1 C 165 -4 152 -6 140 -6 C 101 -6 69 7 45 34 C 21 60 9 93 9 133 C 9 181 24 216 56 240 C 87 263 127 275 175 276 L 241 278 L 241 286 C 241 304 235 317 223 324 C 211 331 193 335 171 335 C 148 335 128 331 112 325 C 95 319 83 313 75 307 L 37 403 C 54 415 76 425 104 432 C 131 438 158 442 186 442 C 210 442 236 437 262 429 C 288 421 306 408 316 392 C 324 404 339 416 359 426 C 379 436 403 441 431 441 C 493 441 539 420 571 378 C 603 336 619 269 619 178 L 384 178 C 384 149 390 129 403 118 C 415 106 432 101 454 101 C 476 101 496 104 514 111 C 532 118 549 128 567 141 L 616 64 C 599 48 576 32 548 17 C 520 1 481 -6 432 -6 Z M 372 264 L 480 264 C 478 290 472 310 463 322 C 454 334 442 341 428 341 C 412 341 399 335 390 324 C 380 312 374 292 372 264 Z M 196 96 C 208 96 219 99 227 106 C 235 112 240 120 242 130 L 242 195 L 205 193 C 190 192 177 187 167 179 C 157 171 152 158 152 140 C 152 123 156 111 166 105 C 175 99 185 96 196 96 Z" unicode="æ" />
<glyph horiz-adv-x="367" d="M 13 0 L 13 0 Z M 311 141 L 367 61 C 353 45 335 30 314 16 C 293 1 260 -6 214 -6 C 181 -6 152 0 127 11 C 102 23 81 39 64 59 C 47 79 34 102 26 130 C 17 157 13 186 13 218 C 13 248 17 276 26 303 C 35 330 48 354 66 375 C 83 395 105 412 131 424 C 157 436 188 442 222 442 C 258 442 288 436 311 424 C 334 412 353 398 368 384 L 310 287 C 300 296 289 303 279 309 C 268 315 255 318 241 318 C 222 318 206 310 194 294 C 182 278 176 253 176 220 C 176 176 184 147 201 132 C 218 117 235 110 252 110 C 264 110 275 113 285 119 C 295 125 303 133 311 141 Z M 198 0 L 198 0 Z M 200 -182 C 176 -182 154 -179 133 -173 C 112 -167 95 -159 82 -149 L 104 -95 C 110 -99 120 -104 132 -110 C 144 -116 157 -119 171 -119 C 179 -119 186 -117 192 -113 C 198 -109 201 -104 201 -98 C 201 -91 198 -86 193 -83 C 187 -80 182 -79 176 -79 C 171 -79 167 -79 163 -80 C 159 -80 155 -81 151 -83 L 130 -62 L 192 14 L 268 14 L 224 -40 C 250 -37 272 -41 289 -53 C 305 -64 314 -80 314 -102 C 314 -126 302 -146 280 -160 C 258 -174 231 -182 200 -182 Z" unicode="ç" />
<glyph horiz-adv-x="425" d="M 14 0 L 14 0 Z M 218 -6 C 157 -6 108 13 70 52 C 32 90 14 145 14 215 C 14 251 19 284 30 312 C 40 340 54 364 72 384 C 90 403 111 417 135 427 C 159 437 184 442 211 442 C 275 442 324 421 356 379 C 388 337 404 270 404 178 L 169 178 C 169 149 175 129 189 118 C 202 106 219 101 240 101 C 262 101 282 104 300 111 C 318 118 336 128 353 141 L 402 64 C 385 48 362 32 334 17 C 306 1 267 -6 218 -6 Z M 160 266 L 265 266 C 263 292 258 311 250 323 C 242 335 230 341 216 341 C 200 341 188 335 178 324 C 168 312 162 293 160 266 Z M 212 495 L 212 495 Z M 349 495 L 200 495 L 75 670 L 253 670 L 349 495 Z" unicode="è" />
<glyph horiz-adv-x="425" d="M 14 0 L 14 0 Z M 218 -6 C 157 -6 108 13 70 52 C 32 90 14 145 14 215 C 14 251 19 284 30 312 C 40 340 54 364 72 384 C 90 403 111 417 135 427 C 159 437 184 442 211 442 C 275 442 324 421 356 379 C 388 337 404 270 404 178 L 169 178 C 169 149 175 129 189 118 C 202 106 219 101 240 101 C 262 101 282 104 300 111 C 318 118 336 128 353 141 L 402 64 C 385 48 362 32 334 17 C 306 1 267 -6 218 -6 Z M 160 266 L 265 266 C 263 292 258 311 250 323 C 242 335 230 341 216 341 C 200 341 188 335 178 324 C 168 312 162 293 160 266 Z M 212 495 L 212 495 Z M 75 495 L 171 670 L 350 670 L 225 495 L 75 495 Z" unicode="é" />
<glyph horiz-adv-x="425" d="M 14 0 L 14 0 Z M 218 -6 C 157 -6 108 13 70 52 C 32 90 14 145 14 215 C 14 251 19 284 30 312 C 40 340 54 364 72 384 C 90 403 111 417 135 427 C 159 437 184 442 211 442 C 275 442 324 421 356 379 C 388 337 404 270 404 178 L 169 178 C 169 149 175 129 189 118 C 202 106 219 101 240 101 C 262 101 282 104 300 111 C 318 118 336 128 353 141 L 402 64 C 385 48 362 32 334 17 C 306 1 267 -6 218 -6 Z M 160 266 L 265 266 C 263 292 258 311 250 323 C 242 335 230 341 216 341 C 200 341 188 335 178 324 C 168 312 162 293 160 266 Z M 212 495 L 212 495 Z M 378 495 L 255 495 L 211 570 L 168 495 L 46 495 L 147 670 L 277 670 L 378 495 Z" unicode="ê" />
<glyph horiz-adv-x="425" d="M 14 0 L 14 0 Z M 218 -6 C 157 -6 108 13 70 52 C 32 90 14 145 14 215 C 14 251 19 284 30 312 C 40 340 54 364 72 384 C 90 403 111 417 135 427 C 159 437 184 442 211 442 C 275 442 324 421 356 379 C 388 337 404 270 404 178 L 169 178 C 169 149 175 129 189 118 C 202 106 219 101 240 101 C 262 101 282 104 300 111 C 318 118 336 128 353 141 L 402 64 C 385 48 362 32 334 17 C 306 1 267 -6 218 -6 Z M 160 266 L 265 266 C 263 292 258 311 250 323 C 242 335 230 341 216 341 C 200 341 188 335 178 324 C 168 312 162 293 160 266 Z M 212 495 L 212 495 Z M 361 495 L 236 495 L 236 659 L 361 659 L 361 495 Z M 188 495 L 63 495 L 63 659 L 188 659 L 188 495 Z" unicode="ë" />
<glyph horiz-adv-x="206" d="M 0 0 L 0 0 Z M 183 0 L 26 0 L 26 436 L 183 436 L 183 0 Z M 103 495 L 103 495 Z M 240 495 L 91 495 L -34 670 L 144 670 L 240 495 Z" unicode="ì" />
<glyph horiz-adv-x="206" d="M 0 0 L 0 0 Z M 183 0 L 26 0 L 26 436 L 183 436 L 183 0 Z M 103 495 L 103 495 Z M -34 495 L 62 670 L 241 670 L 116 495 L -34 495 Z" unicode="í" />
<glyph horiz-adv-x="206" d="M 0 0 L 0 0 Z M 183 0 L 26 0 L 26 436 L 183 436 L 183 0 Z M 103 495 L 103 495 Z M 269 495 L 146 495 L 102 570 L 59 495 L -63 495 L 38 670 L 168 670 L 269 495 Z" unicode="î" />
<glyph horiz-adv-x="206" d="M 0 0 L 0 0 Z M 183 0 L 26 0 L 26 436 L 183 436 L 183 0 Z M 103 495 L 103 495 Z M 252 495 L 127 495 L 127 659 L 252 659 L 252 495 Z M 79 495 L -46 495 L -46 659 L 79 659 L 79 495 Z" unicode="ï" />
<glyph horiz-adv-x="459" d="M 434 298 C 434 254 429 213 421 175 C 412 137 399 105 382 78 C 364 50 342 29 316 13 C 290 -2 259 -10 225 -10 C 163 -10 112 9 73 49 C 33 88 14 144 14 218 C 14 258 19 292 30 321 C 41 350 55 374 73 392 C 91 410 111 424 133 433 C 155 442 178 447 201 447 C 222 447 242 443 261 436 C 280 429 295 420 307 410 C 305 432 299 458 291 486 C 283 514 273 542 263 570 L 198 546 L 169 630 L 227 651 C 219 667 211 681 204 694 C 196 706 189 717 183 726 L 300 770 C 306 761 312 750 320 737 C 328 724 336 709 345 693 L 402 713 L 431 631 L 380 612 C 394 572 407 525 418 473 C 428 420 434 362 434 298 Z M 222 92 C 239 92 251 100 259 117 C 267 133 271 166 271 214 C 271 267 266 301 258 317 C 250 332 237 340 221 340 C 204 340 192 330 184 311 C 176 292 173 260 173 215 C 173 168 177 136 185 118 C 193 100 205 92 222 92 Z" unicode="ð" />
<glyph horiz-adv-x="435" d="M 25 0 L 25 0 Z M 412 0 L 257 0 L 257 278 C 257 290 254 300 248 308 C 242 315 233 319 222 319 C 209 319 199 315 191 307 C 183 299 180 286 180 268 L 180 0 L 25 0 L 25 436 L 171 436 L 171 376 C 178 394 190 410 208 423 C 225 436 250 443 282 443 C 322 443 353 433 377 414 C 400 394 412 363 412 319 L 412 0 Z M 219 497 L 219 497 Z M 285 656 L 399 656 C 399 602 390 562 374 536 C 357 510 336 497 310 497 C 289 497 272 500 259 506 C 245 512 234 517 226 523 C 218 527 210 532 202 537 C 194 541 185 544 177 544 C 170 544 164 540 159 532 C 153 524 150 513 150 499 L 40 499 C 40 553 49 593 68 619 C 87 645 109 659 133 659 C 153 659 170 656 183 650 C 195 644 206 638 215 633 C 223 628 230 624 236 620 C 242 616 249 614 255 614 C 261 614 268 617 274 624 C 280 630 284 641 285 656 Z" unicode="ñ" />
<glyph horiz-adv-x="445" d="M 13 0 L 13 0 Z M 220 -6 C 190 -6 163 -1 137 8 C 111 18 89 32 71 51 C 53 69 38 93 28 121 C 18 149 13 180 13 216 C 13 248 17 278 27 306 C 37 334 50 358 68 378 C 86 398 107 413 132 425 C 157 436 185 442 216 442 C 281 442 333 422 373 384 C 412 346 432 294 432 228 C 432 158 413 102 375 59 C 337 15 286 -6 220 -6 Z M 222 97 C 238 97 249 105 257 122 C 264 139 268 172 268 220 C 268 266 264 297 256 311 C 248 325 236 333 221 333 C 206 333 195 325 187 311 C 179 296 176 266 176 220 C 176 170 180 137 188 121 C 196 105 208 97 222 97 Z M 221 495 L 221 495 Z M 358 495 L 209 495 L 84 670 L 262 670 L 358 495 Z" unicode="ò" />
<glyph horiz-adv-x="445" d="M 13 0 L 13 0 Z M 220 -6 C 190 -6 163 -1 137 8 C 111 18 89 32 71 51 C 53 69 38 93 28 121 C 18 149 13 180 13 216 C 13 248 17 278 27 306 C 37 334 50 358 68 378 C 86 398 107 413 132 425 C 157 436 185 442 216 442 C 281 442 333 422 373 384 C 412 346 432 294 432 228 C 432 158 413 102 375 59 C 337 15 286 -6 220 -6 Z M 222 97 C 238 97 249 105 257 122 C 264 139 268 172 268 220 C 268 266 264 297 256 311 C 248 325 236 333 221 333 C 206 333 195 325 187 311 C 179 296 176 266 176 220 C 176 170 180 137 188 121 C 196 105 208 97 222 97 Z M 221 495 L 221 495 Z M 84 495 L 180 670 L 359 670 L 234 495 L 84 495 Z" unicode="ó" />
<glyph horiz-adv-x="445" d="M 13 0 L 13 0 Z M 220 -6 C 190 -6 163 -1 137 8 C 111 18 89 32 71 51 C 53 69 38 93 28 121 C 18 149 13 180 13 216 C 13 248 17 278 27 306 C 37 334 50 358 68 378 C 86 398 107 413 132 425 C 157 436 185 442 216 442 C 281 442 333 422 373 384 C 412 346 432 294 432 228 C 432 158 413 102 375 59 C 337 15 286 -6 220 -6 Z M 222 97 C 238 97 249 105 257 122 C 264 139 268 172 268 220 C 268 266 264 297 256 311 C 248 325 236 333 221 333 C 206 333 195 325 187 311 C 179 296 176 266 176 220 C 176 170 180 137 188 121 C 196 105 208 97 222 97 Z M 221 495 L 221 495 Z M 387 495 L 264 495 L 220 570 L 177 495 L 55 495 L 156 670 L 286 670 L 387 495 Z" unicode="ô" />
<glyph horiz-adv-x="445" d="M 13 0 L 13 0 Z M 220 -6 C 190 -6 163 -1 137 8 C 111 18 89 32 71 51 C 53 69 38 93 28 121 C 18 149 13 180 13 216 C 13 248 17 278 27 306 C 37 334 50 358 68 378 C 86 398 107 413 132 425 C 157 436 185 442 216 442 C 281 442 333 422 373 384 C 412 346 432 294 432 228 C 432 158 413 102 375 59 C 337 15 286 -6 220 -6 Z M 222 97 C 238 97 249 105 257 122 C 264 139 268 172 268 220 C 268 266 264 297 256 311 C 248 325 236 333 221 333 C 206 333 195 325 187 311 C 179 296 176 266 176 220 C 176 170 180 137 188 121 C 196 105 208 97 222 97 Z M 221 497 L 221 497 Z M 287 656 L 401 656 C 401 602 392 562 376 536 C 359 510 338 497 312 497 C 291 497 274 500 261 506 C 247 512 236 517 228 523 C 220 527 212 532 204 537 C 196 541 187 544 179 544 C 172 544 166 540 161 532 C 155 524 152 513 152 499 L 42 499 C 42 553 51 593 70 619 C 89 645 111 659 135 659 C 155 659 172 656 185 650 C 197 644 208 638 217 633 C 225 628 232 624 238 620 C 244 616 251 614 257 614 C 263 614 270 617 276 624 C 282 630 286 641 287 656 Z" unicode="õ" />
<glyph horiz-adv-x="445" d="M 13 0 L 13 0 Z M 220 -6 C 190 -6 163 -1 137 8 C 111 18 89 32 71 51 C 53 69 38 93 28 121 C 18 149 13 180 13 216 C 13 248 17 278 27 306 C 37 334 50 358 68 378 C 86 398 107 413 132 425 C 157 436 185 442 216 442 C 281 442 333 422 373 384 C 412 346 432 294 432 228 C 432 158 413 102 375 59 C 337 15 286 -6 220 -6 Z M 222 97 C 238 97 249 105 257 122 C 264 139 268 172 268 220 C 268 266 264 297 256 311 C 248 325 236 333 221 333 C 206 333 195 325 187 311 C 179 296 176 266 176 220 C 176 170 180 137 188 121 C 196 105 208 97 222 97 Z M 221 495 L 221 495 Z M 370 495 L 245 495 L 245 659 L 370 659 L 370 495 Z M 197 495 L 72 495 L 72 659 L 197 659 L 197 495 Z" unicode="ö" />
<glyph horiz-adv-x="500" d="M 177 449 L 177 585 L 323 585 L 323 449 L 177 449 Z M 19 264 L 19 397 L 481 397 L 481 264 L 19 264 Z M 177 74 L 177 210 L 323 210 L 323 74 L 177 74 Z" unicode="÷" />
<glyph horiz-adv-x="445" d="M 220 -6 C 196 -6 174 -3 153 3 C 132 9 113 18 97 30 L 66 -7 L 33 26 L 63 61 C 47 79 34 102 26 128 C 17 154 13 183 13 216 C 13 248 17 278 27 306 C 37 334 50 358 68 378 C 86 398 107 413 132 425 C 157 436 185 442 216 442 C 242 442 267 438 291 431 C 314 424 334 414 352 402 L 385 441 L 418 408 L 386 371 C 400 353 412 331 420 307 C 428 283 432 256 432 228 C 432 158 413 102 375 59 C 337 15 286 -6 220 -6 Z M 176 220 C 176 215 176 211 176 207 C 176 203 176 199 176 195 L 262 296 C 258 310 252 320 246 325 C 239 330 231 333 221 333 C 206 333 195 325 187 311 C 179 296 176 266 176 220 Z M 268 220 C 268 220 268 220 268 221 C 268 222 268 225 268 231 L 184 132 C 188 118 193 109 199 104 C 205 99 213 97 222 97 C 238 97 249 105 257 122 C 264 139 268 172 268 220 Z" unicode="ø" />
<glyph horiz-adv-x="435" d="M 23 0 L 23 0 Z M 23 436 L 178 436 L 178 150 C 178 132 181 119 188 112 C 194 105 204 102 216 102 C 227 102 236 106 244 115 C 251 124 255 141 255 166 L 255 436 L 410 436 L 410 0 L 260 0 L 260 47 C 252 30 238 17 220 7 C 201 -2 179 -7 155 -7 C 119 -7 88 2 62 22 C 36 42 23 75 23 121 L 23 436 Z M 218 495 L 218 495 Z M 355 495 L 206 495 L 81 670 L 259 670 L 355 495 Z" unicode="ù" />
<glyph horiz-adv-x="435" d="M 23 0 L 23 0 Z M 23 436 L 178 436 L 178 150 C 178 132 181 119 188 112 C 194 105 204 102 216 102 C 227 102 236 106 244 115 C 251 124 255 141 255 166 L 255 436 L 410 436 L 410 0 L 260 0 L 260 47 C 252 30 238 17 220 7 C 201 -2 179 -7 155 -7 C 119 -7 88 2 62 22 C 36 42 23 75 23 121 L 23 436 Z M 218 495 L 218 495 Z M 81 495 L 177 670 L 356 670 L 231 495 L 81 495 Z" unicode="ú" />
<glyph horiz-adv-x="435" d="M 23 0 L 23 0 Z M 23 436 L 178 436 L 178 150 C 178 132 181 119 188 112 C 194 105 204 102 216 102 C 227 102 236 106 244 115 C 251 124 255 141 255 166 L 255 436 L 410 436 L 410 0 L 260 0 L 260 47 C 252 30 238 17 220 7 C 201 -2 179 -7 155 -7 C 119 -7 88 2 62 22 C 36 42 23 75 23 121 L 23 436 Z M 218 495 L 218 495 Z M 384 495 L 261 495 L 217 570 L 174 495 L 52 495 L 153 670 L 283 670 L 384 495 Z" unicode="û" />
<glyph horiz-adv-x="435" d="M 23 0 L 23 0 Z M 23 436 L 178 436 L 178 150 C 178 132 181 119 188 112 C 194 105 204 102 216 102 C 227 102 236 106 244 115 C 251 124 255 141 255 166 L 255 436 L 410 436 L 410 0 L 260 0 L 260 47 C 252 30 238 17 220 7 C 201 -2 179 -7 155 -7 C 119 -7 88 2 62 22 C 36 42 23 75 23 121 L 23 436 Z M 218 495 L 218 495 Z M 367 495 L 242 495 L 242 659 L 367 659 L 367 495 Z M 194 495 L 69 495 L 69 659 L 194 659 L 194 495 Z" unicode="ü" />
<glyph horiz-adv-x="394" d="M 0 0 L 0 0 Z M 405 436 L 227 -98 C 215 -133 194 -159 164 -175 C 134 -191 100 -200 62 -200 C 48 -200 34 -198 21 -195 C 8 -191 -1 -187 -8 -183 L 26 -79 C 28 -80 33 -82 40 -84 C 46 -86 53 -88 60 -88 C 72 -88 81 -83 89 -74 C 97 -64 103 -50 108 -32 L 127 43 L -10 436 L 153 436 L 212 230 L 269 436 L 405 436 Z M 205 495 L 205 495 Z M 68 495 L 164 670 L 343 670 L 218 495 L 68 495 Z" unicode="ý" />
<glyph horiz-adv-x="442" d="M 25 -200 L 25 763 L 168 763 L 168 367 C 174 386 188 403 208 418 C 228 432 251 440 278 440 C 304 440 326 434 345 424 C 364 413 380 399 392 381 C 404 363 414 341 420 316 C 426 291 429 264 429 236 C 429 160 415 101 387 59 C 359 17 321 -4 271 -4 C 249 -4 228 0 210 8 C 192 16 179 26 171 39 L 171 -200 L 25 -200 Z M 213 93 C 229 93 242 101 251 117 C 260 133 265 163 265 205 C 265 244 261 274 254 294 C 246 314 233 324 215 324 C 201 324 189 315 180 299 C 170 282 166 249 166 201 C 166 156 170 127 178 113 C 186 99 198 93 213 93 Z" unicode="þ" />
<glyph horiz-adv-x="394" d="M 0 0 L 0 0 Z M 405 436 L 227 -98 C 215 -133 194 -159 164 -175 C 134 -191 100 -200 62 -200 C 48 -200 34 -198 21 -195 C 8 -191 -1 -187 -8 -183 L 26 -79 C 28 -80 33 -82 40 -84 C 46 -86 53 -88 60 -88 C 72 -88 81 -83 89 -74 C 97 -64 103 -50 108 -32 L 127 43 L -10 436 L 153 436 L 212 230 L 269 436 L 405 436 Z M 205 495 L 205 495 Z M 354 495 L 229 495 L 229 659 L 354 659 L 354 495 Z M 181 495 L 56 495 L 56 659 L 181 659 L 181 495 Z" unicode="ÿ" />
<glyph horiz-adv-x="510" d="M 0 0 L 0 0 Z M 515 0 L 354 0 L 323 123 L 179 123 L 151 0 L -5 0 L 197 733 L 315 733 L 515 0 Z M 305 250 L 251 450 L 199 250 L 305 250 Z M 253 799 L 253 799 Z M 391 799 L 115 799 L 115 914 L 391 914 L 391 799 Z" unicode="Ā" />
<glyph horiz-adv-x="407" d="M 9 0 L 9 0 Z M 384 0 L 244 0 L 244 38 C 230 23 213 12 193 5 C 173 -2 151 -6 129 -6 C 91 -6 61 7 40 34 C 19 61 9 95 9 135 C 9 183 24 219 56 241 C 87 263 127 275 175 277 L 238 279 L 238 288 C 238 304 232 316 221 324 C 210 331 193 335 170 335 C 147 335 128 331 112 325 C 96 319 85 313 77 308 L 37 403 C 54 415 77 426 105 434 C 133 442 169 447 215 447 C 236 447 257 444 278 438 C 298 432 316 424 332 412 C 348 400 360 384 370 366 C 379 348 384 326 384 301 L 384 0 Z M 241 112 L 241 194 L 205 193 C 190 192 177 187 167 179 C 157 170 152 157 152 139 C 152 123 156 112 166 106 C 175 100 184 97 194 97 C 206 97 215 98 223 101 C 230 103 236 107 241 112 Z M 202 505 L 202 505 Z M 340 505 L 64 505 L 64 620 L 340 620 L 340 505 Z" unicode="ā" />
<glyph horiz-adv-x="510" d="M 0 0 L 0 0 Z M 515 0 L 354 0 L 323 123 L 179 123 L 151 0 L -5 0 L 197 733 L 315 733 L 515 0 Z M 305 250 L 251 450 L 199 250 L 305 250 Z M 253 788 L 253 788 Z M 290 951 L 417 951 C 412 895 395 853 366 827 C 336 801 299 788 253 788 C 207 788 169 801 140 827 C 110 853 94 895 90 951 L 217 951 C 217 927 220 909 225 898 C 229 886 239 881 253 881 C 267 881 276 886 281 897 C 286 908 289 926 290 951 Z" unicode="Ă" />
<glyph horiz-adv-x="407" d="M 9 0 L 9 0 Z M 384 0 L 244 0 L 244 38 C 230 23 213 12 193 5 C 173 -2 151 -6 129 -6 C 91 -6 61 7 40 34 C 19 61 9 95 9 135 C 9 183 24 219 56 241 C 87 263 127 275 175 277 L 238 279 L 238 288 C 238 304 232 316 221 324 C 210 331 193 335 170 335 C 147 335 128 331 112 325 C 96 319 85 313 77 308 L 37 403 C 54 415 77 426 105 434 C 133 442 169 447 215 447 C 236 447 257 444 278 438 C 298 432 316 424 332 412 C 348 400 360 384 370 366 C 379 348 384 326 384 301 L 384 0 Z M 241 112 L 241 194 L 205 193 C 190 192 177 187 167 179 C 157 170 152 157 152 139 C 152 123 156 112 166 106 C 175 100 184 97 194 97 C 206 97 215 98 223 101 C 230 103 236 107 241 112 Z M 202 494 L 202 494 Z M 239 657 L 366 657 C 361 601 344 559 315 533 C 285 507 248 494 202 494 C 156 494 118 507 89 533 C 59 559 43 601 39 657 L 166 657 C 166 633 169 615 174 604 C 178 592 188 587 202 587 C 216 587 225 592 230 603 C 235 614 238 632 239 657 Z" unicode="ă" />
<glyph horiz-adv-x="510" d="M 0 0 L 0 0 Z M 515 0 L 354 0 L 323 123 L 179 123 L 151 0 L -5 0 L 197 733 L 315 733 L 515 0 Z M 305 250 L 251 450 L 199 250 L 305 250 Z M 387 -4 L 387 -4 Z M 483 -63 L 523 -128 C 500 -152 476 -170 451 -182 C 425 -194 397 -200 365 -200 C 329 -200 301 -192 281 -177 C 261 -161 251 -142 251 -120 C 251 -94 261 -70 282 -48 C 302 -25 332 -6 371 10 L 449 10 C 431 2 415 -7 402 -20 C 389 -33 383 -45 383 -56 C 383 -65 386 -72 393 -78 C 399 -83 408 -86 419 -86 C 432 -86 444 -83 455 -79 C 465 -75 475 -69 483 -63 Z" unicode="Ą" />
<glyph horiz-adv-x="407" d="M 9 0 L 9 0 Z M 384 0 L 244 0 L 244 38 C 230 23 213 12 193 5 C 173 -2 151 -6 129 -6 C 91 -6 61 7 40 34 C 19 61 9 95 9 135 C 9 183 24 219 56 241 C 87 263 127 275 175 277 L 238 279 L 238 288 C 238 304 232 316 221 324 C 210 331 193 335 170 335 C 147 335 128 331 112 325 C 96 319 85 313 77 308 L 37 403 C 54 415 77 426 105 434 C 133 442 169 447 215 447 C 236 447 257 444 278 438 C 298 432 316 424 332 412 C 348 400 360 384 370 366 C 379 348 384 326 384 301 L 384 0 Z M 241 112 L 241 194 L 205 193 C 190 192 177 187 167 179 C 157 170 152 157 152 139 C 152 123 156 112 166 106 C 175 100 184 97 194 97 C 206 97 215 98 223 101 C 230 103 236 107 241 112 Z M 277 -4 L 277 -4 Z M 373 -63 L 413 -128 C 390 -152 366 -170 341 -182 C 315 -194 287 -200 255 -200 C 219 -200 191 -192 171 -177 C 151 -161 141 -142 141 -120 C 141 -94 151 -70 172 -48 C 192 -25 222 -6 261 10 L 339 10 C 321 2 305 -7 292 -20 C 279 -33 273 -45 273 -56 C 273 -65 276 -72 283 -78 C 289 -83 298 -86 309 -86 C 322 -86 334 -83 345 -79 C 355 -75 365 -69 373 -63 Z" unicode="ą" />
<glyph horiz-adv-x="500" d="M 22 0 L 22 0 Z M 271 -6 C 195 -6 135 25 90 87 C 44 149 22 242 22 366 C 22 422 27 474 38 520 C 48 566 64 605 85 637 C 106 669 133 693 165 710 C 197 727 233 736 275 736 C 343 736 393 720 424 689 C 455 657 477 619 490 573 L 348 537 C 342 553 334 568 325 582 C 316 595 301 602 281 602 C 267 602 254 598 243 591 C 232 584 223 572 215 554 C 207 536 201 512 197 481 C 193 450 191 411 191 363 C 191 314 194 274 200 244 C 206 213 213 189 223 172 C 233 154 244 143 256 137 C 268 131 281 128 294 128 C 316 128 333 133 343 143 C 353 153 361 167 367 183 L 492 147 C 476 99 449 61 413 34 C 376 7 329 -6 271 -6 Z M 271 789 L 271 789 Z M 134 789 L 230 964 L 409 964 L 284 789 L 134 789 Z" unicode="Ć" />
<glyph horiz-adv-x="367" d="M 13 0 L 13 0 Z M 311 141 L 367 61 C 353 45 335 30 314 16 C 293 1 260 -6 214 -6 C 181 -6 152 0 127 11 C 102 23 81 39 64 59 C 47 79 34 102 26 130 C 17 157 13 186 13 218 C 13 248 17 276 26 303 C 35 330 48 354 66 375 C 83 395 105 412 131 424 C 157 436 188 442 222 442 C 258 442 288 436 311 424 C 334 412 353 398 368 384 L 310 287 C 300 296 289 303 279 309 C 268 315 255 318 241 318 C 222 318 206 310 194 294 C 182 278 176 253 176 220 C 176 176 184 147 201 132 C 218 117 235 110 252 110 C 264 110 275 113 285 119 C 295 125 303 133 311 141 Z M 214 495 L 214 495 Z M 77 495 L 173 670 L 352 670 L 227 495 L 77 495 Z" unicode="ć" />
<glyph horiz-adv-x="500" d="M 22 0 L 22 0 Z M 271 -6 C 195 -6 135 25 90 87 C 44 149 22 242 22 366 C 22 422 27 474 38 520 C 48 566 64 605 85 637 C 106 669 133 693 165 710 C 197 727 233 736 275 736 C 343 736 393 720 424 689 C 455 657 477 619 490 573 L 348 537 C 342 553 334 568 325 582 C 316 595 301 602 281 602 C 267 602 254 598 243 591 C 232 584 223 572 215 554 C 207 536 201 512 197 481 C 193 450 191 411 191 363 C 191 314 194 274 200 244 C 206 213 213 189 223 172 C 233 154 244 143 256 137 C 268 131 281 128 294 128 C 316 128 333 133 343 143 C 353 153 361 167 367 183 L 492 147 C 476 99 449 61 413 34 C 376 7 329 -6 271 -6 Z M 271 789 L 271 789 Z M 437 789 L 314 789 L 270 864 L 227 789 L 105 789 L 206 964 L 336 964 L 437 789 Z" unicode="Ĉ" />
<glyph horiz-adv-x="367" d="M 13 0 L 13 0 Z M 311 141 L 367 61 C 353 45 335 30 314 16 C 293 1 260 -6 214 -6 C 181 -6 152 0 127 11 C 102 23 81 39 64 59 C 47 79 34 102 26 130 C 17 157 13 186 13 218 C 13 248 17 276 26 303 C 35 330 48 354 66 375 C 83 395 105 412 131 424 C 157 436 188 442 222 442 C 258 442 288 436 311 424 C 334 412 353 398 368 384 L 310 287 C 300 296 289 303 279 309 C 268 315 255 318 241 318 C 222 318 206 310 194 294 C 182 278 176 253 176 220 C 176 176 184 147 201 132 C 218 117 235 110 252 110 C 264 110 275 113 285 119 C 295 125 303 133 311 141 Z M 214 495 L 214 495 Z M 380 495 L 257 495 L 213 570 L 170 495 L 48 495 L 149 670 L 279 670 L 380 495 Z" unicode="ĉ" />
<glyph horiz-adv-x="500" d="M 22 0 L 22 0 Z M 271 -6 C 195 -6 135 25 90 87 C 44 149 22 242 22 366 C 22 422 27 474 38 520 C 48 566 64 605 85 637 C 106 669 133 693 165 710 C 197 727 233 736 275 736 C 343 736 393 720 424 689 C 455 657 477 619 490 573 L 348 537 C 342 553 334 568 325 582 C 316 595 301 602 281 602 C 267 602 254 598 243 591 C 232 584 223 572 215 554 C 207 536 201 512 197 481 C 193 450 191 411 191 363 C 191 314 194 274 200 244 C 206 213 213 189 223 172 C 233 154 244 143 256 137 C 268 131 281 128 294 128 C 316 128 333 133 343 143 C 353 153 361 167 367 183 L 492 147 C 476 99 449 61 413 34 C 376 7 329 -6 271 -6 Z M 271 799 L 271 799 Z M 342 799 L 201 799 L 201 945 L 342 945 L 342 799 Z" unicode="Ċ" />
<glyph horiz-adv-x="367" d="M 13 0 L 13 0 Z M 311 141 L 367 61 C 353 45 335 30 314 16 C 293 1 260 -6 214 -6 C 181 -6 152 0 127 11 C 102 23 81 39 64 59 C 47 79 34 102 26 130 C 17 157 13 186 13 218 C 13 248 17 276 26 303 C 35 330 48 354 66 375 C 83 395 105 412 131 424 C 157 436 188 442 222 442 C 258 442 288 436 311 424 C 334 412 353 398 368 384 L 310 287 C 300 296 289 303 279 309 C 268 315 255 318 241 318 C 222 318 206 310 194 294 C 182 278 176 253 176 220 C 176 176 184 147 201 132 C 218 117 235 110 252 110 C 264 110 275 113 285 119 C 295 125 303 133 311 141 Z M 214 505 L 214 505 Z M 285 505 L 144 505 L 144 651 L 285 651 L 285 505 Z" unicode="ċ" />
<glyph horiz-adv-x="500" d="M 22 0 L 22 0 Z M 271 -6 C 195 -6 135 25 90 87 C 44 149 22 242 22 366 C 22 422 27 474 38 520 C 48 566 64 605 85 637 C 106 669 133 693 165 710 C 197 727 233 736 275 736 C 343 736 393 720 424 689 C 455 657 477 619 490 573 L 348 537 C 342 553 334 568 325 582 C 316 595 301 602 281 602 C 267 602 254 598 243 591 C 232 584 223 572 215 554 C 207 536 201 512 197 481 C 193 450 191 411 191 363 C 191 314 194 274 200 244 C 206 213 213 189 223 172 C 233 154 244 143 256 137 C 268 131 281 128 294 128 C 316 128 333 133 343 143 C 353 153 361 167 367 183 L 492 147 C 476 99 449 61 413 34 C 376 7 329 -6 271 -6 Z M 271 789 L 271 789 Z M 105 964 L 229 964 L 272 890 L 316 964 L 437 964 L 336 789 L 206 789 L 105 964 Z" unicode="Č" />
<glyph horiz-adv-x="367" d="M 13 0 L 13 0 Z M 311 141 L 367 61 C 353 45 335 30 314 16 C 293 1 260 -6 214 -6 C 181 -6 152 0 127 11 C 102 23 81 39 64 59 C 47 79 34 102 26 130 C 17 157 13 186 13 218 C 13 248 17 276 26 303 C 35 330 48 354 66 375 C 83 395 105 412 131 424 C 157 436 188 442 222 442 C 258 442 288 436 311 424 C 334 412 353 398 368 384 L 310 287 C 300 296 289 303 279 309 C 268 315 255 318 241 318 C 222 318 206 310 194 294 C 182 278 176 253 176 220 C 176 176 184 147 201 132 C 218 117 235 110 252 110 C 264 110 275 113 285 119 C 295 125 303 133 311 141 Z M 214 495 L 214 495 Z M 48 670 L 172 670 L 215 596 L 259 670 L 380 670 L 279 495 L 149 495 L 48 670 Z" unicode="č" />
<glyph horiz-adv-x="545" d="M 35 0 L 35 0 Z M 35 0 L 35 730 L 230 730 C 278 730 320 720 357 702 C 394 684 425 658 449 626 C 473 594 492 555 505 509 C 517 463 524 413 524 359 C 524 308 517 261 505 217 C 493 173 474 135 449 103 C 424 71 392 45 354 27 C 316 9 271 0 221 0 L 35 0 Z M 204 137 L 234 137 C 278 137 308 155 326 191 C 344 227 353 282 353 357 C 353 445 342 506 321 541 C 300 575 272 593 236 593 L 204 593 L 204 137 Z M 243 789 L 243 789 Z M 77 964 L 201 964 L 244 890 L 288 964 L 409 964 L 308 789 L 178 789 L 77 964 Z" unicode="Ď" />
<glyph horiz-adv-x="449" d="M 14 0 L 14 0 Z M 179 -6 C 129 -6 89 14 59 55 C 29 96 14 148 14 211 C 14 281 29 336 61 377 C 92 417 132 438 181 438 C 205 438 225 433 242 423 C 259 413 271 401 278 388 L 278 763 L 424 763 L 424 0 L 285 0 L 285 41 C 277 31 266 20 252 10 C 237 0 213 -6 179 -6 Z M 230 100 C 247 100 260 110 268 130 C 276 150 281 179 281 218 C 281 257 276 285 266 302 C 256 319 244 328 228 328 C 211 328 198 318 190 300 C 182 281 178 253 178 215 C 178 176 182 147 191 128 C 200 109 213 100 230 100 Z M 603 619 L 597 460 L 463 460 L 457 619 L 457 730 L 603 730 L 603 619 Z" unicode="ď" />
<glyph horiz-adv-x="545" d="M 5 0 L 5 0 Z M 524 359 C 524 308 517 261 505 217 C 493 173 474 135 449 103 C 424 71 392 45 354 27 C 316 9 271 0 221 0 L 35 0 L 35 299 L 5 299 L 5 419 L 35 419 L 35 730 L 230 730 C 278 730 320 720 357 702 C 394 684 425 658 449 626 C 473 594 492 555 505 509 C 517 463 524 413 524 359 Z M 204 131 L 234 131 C 278 131 308 149 326 187 C 344 224 353 281 353 357 C 353 447 342 509 321 545 C 300 581 272 599 236 599 L 204 599 L 204 419 L 296 419 L 296 299 L 204 299 L 204 131 Z" unicode="Đ" />
<glyph horiz-adv-x="449" d="M 285 41 C 277 31 266 20 252 10 C 237 0 213 -6 179 -6 C 129 -6 89 14 59 55 C 29 96 14 148 14 211 C 14 281 29 336 61 377 C 92 417 132 438 181 438 C 205 438 225 433 242 423 C 259 413 271 401 278 388 L 278 545 L 186 545 L 186 648 L 278 648 L 278 763 L 424 763 L 424 648 L 444 648 L 444 545 L 424 545 L 424 0 L 285 0 L 285 41 Z M 230 100 C 247 100 260 110 268 130 C 276 150 281 179 281 218 C 281 257 276 285 266 302 C 256 319 244 328 228 328 C 211 328 198 318 190 300 C 182 281 178 253 178 215 C 178 176 182 147 191 128 C 200 109 213 100 230 100 Z" unicode="đ" />
<glyph horiz-adv-x="416" d="M 35 0 L 35 0 Z M 406 0 L 35 0 L 35 730 L 385 730 L 385 586 L 201 586 L 201 434 L 374 434 L 374 290 L 201 290 L 201 144 L 406 144 L 406 0 Z M 209 799 L 209 799 Z M 347 799 L 71 799 L 71 914 L 347 914 L 347 799 Z" unicode="Ē" />
<glyph horiz-adv-x="425" d="M 14 0 L 14 0 Z M 218 -6 C 157 -6 108 13 70 52 C 32 90 14 145 14 215 C 14 251 19 284 30 312 C 40 340 54 364 72 384 C 90 403 111 417 135 427 C 159 437 184 442 211 442 C 275 442 324 421 356 379 C 388 337 404 270 404 178 L 169 178 C 169 149 175 129 189 118 C 202 106 219 101 240 101 C 262 101 282 104 300 111 C 318 118 336 128 353 141 L 402 64 C 385 48 362 32 334 17 C 306 1 267 -6 218 -6 Z M 160 266 L 265 266 C 263 292 258 311 250 323 C 242 335 230 341 216 341 C 200 341 188 335 178 324 C 168 312 162 293 160 266 Z M 212 505 L 212 505 Z M 350 505 L 74 505 L 74 620 L 350 620 L 350 505 Z" unicode="ē" />
<glyph horiz-adv-x="416" d="M 35 0 L 35 0 Z M 406 0 L 35 0 L 35 730 L 385 730 L 385 586 L 201 586 L 201 434 L 374 434 L 374 290 L 201 290 L 201 144 L 406 144 L 406 0 Z M 209 788 L 209 788 Z M 246 951 L 373 951 C 368 895 351 853 322 827 C 292 801 255 788 209 788 C 163 788 125 801 96 827 C 66 853 50 895 46 951 L 173 951 C 173 927 176 909 181 898 C 185 886 195 881 209 881 C 223 881 232 886 237 897 C 242 908 245 926 246 951 Z" unicode="Ĕ" />
<glyph horiz-adv-x="425" d="M 14 0 L 14 0 Z M 218 -6 C 157 -6 108 13 70 52 C 32 90 14 145 14 215 C 14 251 19 284 30 312 C 40 340 54 364 72 384 C 90 403 111 417 135 427 C 159 437 184 442 211 442 C 275 442 324 421 356 379 C 388 337 404 270 404 178 L 169 178 C 169 149 175 129 189 118 C 202 106 219 101 240 101 C 262 101 282 104 300 111 C 318 118 336 128 353 141 L 402 64 C 385 48 362 32 334 17 C 306 1 267 -6 218 -6 Z M 160 266 L 265 266 C 263 292 258 311 250 323 C 242 335 230 341 216 341 C 200 341 188 335 178 324 C 168 312 162 293 160 266 Z M 212 494 L 212 494 Z M 249 657 L 376 657 C 371 601 354 559 325 533 C 295 507 258 494 212 494 C 166 494 128 507 99 533 C 69 559 53 601 49 657 L 176 657 C 176 633 179 615 184 604 C 188 592 198 587 212 587 C 226 587 235 592 240 603 C 245 614 248 632 249 657 Z" unicode="ĕ" />
<glyph horiz-adv-x="416" d="M 35 0 L 35 0 Z M 406 0 L 35 0 L 35 730 L 385 730 L 385 586 L 201 586 L 201 434 L 374 434 L 374 290 L 201 290 L 201 144 L 406 144 L 406 0 Z M 209 799 L 209 799 Z M 280 799 L 139 799 L 139 945 L 280 945 L 280 799 Z" unicode="Ė" />
<glyph horiz-adv-x="425" d="M 14 0 L 14 0 Z M 218 -6 C 157 -6 108 13 70 52 C 32 90 14 145 14 215 C 14 251 19 284 30 312 C 40 340 54 364 72 384 C 90 403 111 417 135 427 C 159 437 184 442 211 442 C 275 442 324 421 356 379 C 388 337 404 270 404 178 L 169 178 C 169 149 175 129 189 118 C 202 106 219 101 240 101 C 262 101 282 104 300 111 C 318 118 336 128 353 141 L 402 64 C 385 48 362 32 334 17 C 306 1 267 -6 218 -6 Z M 160 266 L 265 266 C 263 292 258 311 250 323 C 242 335 230 341 216 341 C 200 341 188 335 178 324 C 168 312 162 293 160 266 Z M 212 505 L 212 505 Z M 283 505 L 142 505 L 142 651 L 283 651 L 283 505 Z" unicode="ė" />
<glyph horiz-adv-x="416" d="M 35 0 L 35 0 Z M 406 0 L 35 0 L 35 730 L 385 730 L 385 586 L 201 586 L 201 434 L 374 434 L 374 290 L 201 290 L 201 144 L 406 144 L 406 0 Z M 344 -4 L 344 -4 Z M 440 -63 L 480 -128 C 457 -152 433 -170 408 -182 C 382 -194 354 -200 322 -200 C 286 -200 258 -192 238 -177 C 218 -161 208 -142 208 -120 C 208 -94 218 -70 239 -48 C 259 -25 289 -6 328 10 L 406 10 C 388 2 372 -7 359 -20 C 346 -33 340 -45 340 -56 C 340 -65 343 -72 350 -78 C 356 -83 365 -86 376 -86 C 389 -86 401 -83 412 -79 C 422 -75 432 -69 440 -63 Z" unicode="Ę" />
<glyph horiz-adv-x="425" d="M 14 0 L 14 0 Z M 218 -6 C 157 -6 108 13 70 52 C 32 90 14 145 14 215 C 14 251 19 284 30 312 C 40 340 54 364 72 384 C 90 403 111 417 135 427 C 159 437 184 442 211 442 C 275 442 324 421 356 379 C 388 337 404 270 404 178 L 169 178 C 169 149 175 129 189 118 C 202 106 219 101 240 101 C 262 101 282 104 300 111 C 318 118 336 128 353 141 L 402 64 C 385 48 362 32 334 17 C 306 1 267 -6 218 -6 Z M 160 266 L 265 266 C 263 292 258 311 250 323 C 242 335 230 341 216 341 C 200 341 188 335 178 324 C 168 312 162 293 160 266 Z M 254 -4 L 254 -4 Z M 350 -63 L 390 -128 C 367 -152 343 -170 318 -182 C 292 -194 264 -200 232 -200 C 196 -200 168 -192 148 -177 C 128 -161 118 -142 118 -120 C 118 -94 128 -70 149 -48 C 169 -25 199 -6 238 10 L 316 10 C 298 2 282 -7 269 -20 C 256 -33 250 -45 250 -56 C 250 -65 253 -72 260 -78 C 266 -83 275 -86 286 -86 C 299 -86 311 -83 322 -79 C 332 -75 342 -69 350 -63 Z" unicode="ę" />
<glyph horiz-adv-x="416" d="M 35 0 L 35 0 Z M 406 0 L 35 0 L 35 730 L 385 730 L 385 586 L 201 586 L 201 434 L 374 434 L 374 290 L 201 290 L 201 144 L 406 144 L 406 0 Z M 209 789 L 209 789 Z M 43 964 L 167 964 L 210 890 L 254 964 L 375 964 L 274 789 L 144 789 L 43 964 Z" unicode="Ě" />
<glyph horiz-adv-x="425" d="M 14 0 L 14 0 Z M 218 -6 C 157 -6 108 13 70 52 C 32 90 14 145 14 215 C 14 251 19 284 30 312 C 40 340 54 364 72 384 C 90 403 111 417 135 427 C 159 437 184 442 211 442 C 275 442 324 421 356 379 C 388 337 404 270 404 178 L 169 178 C 169 149 175 129 189 118 C 202 106 219 101 240 101 C 262 101 282 104 300 111 C 318 118 336 128 353 141 L 402 64 C 385 48 362 32 334 17 C 306 1 267 -6 218 -6 Z M 160 266 L 265 266 C 263 292 258 311 250 323 C 242 335 230 341 216 341 C 200 341 188 335 178 324 C 168 312 162 293 160 266 Z M 212 495 L 212 495 Z M 46 670 L 170 670 L 213 596 L 257 670 L 378 670 L 277 495 L 147 495 L 46 670 Z" unicode="ě" />
<glyph horiz-adv-x="522" d="M 21 0 L 21 0 Z M 265 390 L 505 390 L 505 117 C 489 83 461 53 423 29 C 384 5 334 -7 272 -7 C 238 -7 205 0 175 16 C 145 32 118 55 95 86 C 72 117 54 156 41 203 C 27 249 21 303 21 364 C 21 420 26 472 38 518 C 50 564 66 603 88 635 C 109 667 135 692 166 710 C 197 727 232 736 271 736 C 331 736 377 722 410 695 C 443 667 467 629 482 580 L 348 542 C 342 556 335 570 325 584 C 315 597 299 604 278 604 C 252 604 230 586 214 552 C 198 517 190 455 190 366 C 190 318 192 279 197 248 C 202 216 209 191 217 173 C 225 154 235 141 246 133 C 257 125 269 122 281 122 C 299 122 314 125 326 132 C 337 139 346 148 353 159 L 353 254 L 265 254 L 265 390 Z M 275 789 L 275 789 Z M 441 789 L 318 789 L 274 864 L 231 789 L 109 789 L 210 964 L 340 964 L 441 789 Z" unicode="Ĝ" />
<glyph horiz-adv-x="447" d="M 14 0 L 14 0 Z M 182 -1 C 136 -1 96 17 63 53 C 30 89 14 143 14 213 C 14 249 18 282 28 310 C 37 338 49 362 64 381 C 79 399 97 413 117 423 C 137 433 159 438 181 438 C 205 438 226 432 242 422 C 258 412 270 400 279 388 L 279 436 L 422 436 L 422 18 C 422 -19 415 -51 403 -78 C 391 -105 375 -127 355 -144 C 335 -160 313 -172 288 -180 C 262 -188 237 -192 212 -192 C 174 -192 141 -187 113 -179 C 85 -170 65 -160 53 -150 L 93 -54 C 108 -61 125 -67 144 -71 C 163 -75 184 -78 206 -78 C 231 -78 249 -69 260 -53 C 270 -36 276 -15 276 9 L 276 46 C 268 33 256 22 240 13 C 224 3 204 -1 182 -1 Z M 229 100 C 246 100 259 109 268 128 C 276 146 281 177 281 219 C 281 259 275 287 265 305 C 255 323 242 332 228 332 C 212 332 199 322 190 303 C 181 283 177 255 177 218 C 177 180 181 151 189 131 C 197 110 211 100 229 100 Z M 221 495 L 221 495 Z M 387 495 L 264 495 L 220 570 L 177 495 L 55 495 L 156 670 L 286 670 L 387 495 Z" unicode="ĝ" />
<glyph horiz-adv-x="522" d="M 21 0 L 21 0 Z M 265 390 L 505 390 L 505 117 C 489 83 461 53 423 29 C 384 5 334 -7 272 -7 C 238 -7 205 0 175 16 C 145 32 118 55 95 86 C 72 117 54 156 41 203 C 27 249 21 303 21 364 C 21 420 26 472 38 518 C 50 564 66 603 88 635 C 109 667 135 692 166 710 C 197 727 232 736 271 736 C 331 736 377 722 410 695 C 443 667 467 629 482 580 L 348 542 C 342 556 335 570 325 584 C 315 597 299 604 278 604 C 252 604 230 586 214 552 C 198 517 190 455 190 366 C 190 318 192 279 197 248 C 202 216 209 191 217 173 C 225 154 235 141 246 133 C 257 125 269 122 281 122 C 299 122 314 125 326 132 C 337 139 346 148 353 159 L 353 254 L 265 254 L 265 390 Z M 275 788 L 275 788 Z M 312 951 L 439 951 C 434 895 417 853 388 827 C 358 801 321 788 275 788 C 229 788 191 801 162 827 C 132 853 116 895 112 951 L 239 951 C 239 927 242 909 247 898 C 251 886 261 881 275 881 C 289 881 298 886 303 897 C 308 908 311 926 312 951 Z" unicode="Ğ" />
<glyph horiz-adv-x="447" d="M 14 0 L 14 0 Z M 182 -1 C 136 -1 96 17 63 53 C 30 89 14 143 14 213 C 14 249 18 282 28 310 C 37 338 49 362 64 381 C 79 399 97 413 117 423 C 137 433 159 438 181 438 C 205 438 226 432 242 422 C 258 412 270 400 279 388 L 279 436 L 422 436 L 422 18 C 422 -19 415 -51 403 -78 C 391 -105 375 -127 355 -144 C 335 -160 313 -172 288 -180 C 262 -188 237 -192 212 -192 C 174 -192 141 -187 113 -179 C 85 -170 65 -160 53 -150 L 93 -54 C 108 -61 125 -67 144 -71 C 163 -75 184 -78 206 -78 C 231 -78 249 -69 260 -53 C 270 -36 276 -15 276 9 L 276 46 C 268 33 256 22 240 13 C 224 3 204 -1 182 -1 Z M 229 100 C 246 100 259 109 268 128 C 276 146 281 177 281 219 C 281 259 275 287 265 305 C 255 323 242 332 228 332 C 212 332 199 322 190 303 C 181 283 177 255 177 218 C 177 180 181 151 189 131 C 197 110 211 100 229 100 Z M 221 494 L 221 494 Z M 258 657 L 385 657 C 380 601 363 559 334 533 C 304 507 267 494 221 494 C 175 494 137 507 108 533 C 78 559 62 601 58 657 L 185 657 C 185 633 188 615 193 604 C 197 592 207 587 221 587 C 235 587 244 592 249 603 C 254 614 257 632 258 657 Z" unicode="ğ" />
<glyph horiz-adv-x="522" d="M 21 0 L 21 0 Z M 265 390 L 505 390 L 505 117 C 489 83 461 53 423 29 C 384 5 334 -7 272 -7 C 238 -7 205 0 175 16 C 145 32 118 55 95 86 C 72 117 54 156 41 203 C 27 249 21 303 21 364 C 21 420 26 472 38 518 C 50 564 66 603 88 635 C 109 667 135 692 166 710 C 197 727 232 736 271 736 C 331 736 377 722 410 695 C 443 667 467 629 482 580 L 348 542 C 342 556 335 570 325 584 C 315 597 299 604 278 604 C 252 604 230 586 214 552 C 198 517 190 455 190 366 C 190 318 192 279 197 248 C 202 216 209 191 217 173 C 225 154 235 141 246 133 C 257 125 269 122 281 122 C 299 122 314 125 326 132 C 337 139 346 148 353 159 L 353 254 L 265 254 L 265 390 Z M 275 799 L 275 799 Z M 346 799 L 205 799 L 205 945 L 346 945 L 346 799 Z" unicode="Ġ" />
<glyph horiz-adv-x="447" d="M 14 0 L 14 0 Z M 182 -1 C 136 -1 96 17 63 53 C 30 89 14 143 14 213 C 14 249 18 282 28 310 C 37 338 49 362 64 381 C 79 399 97 413 117 423 C 137 433 159 438 181 438 C 205 438 226 432 242 422 C 258 412 270 400 279 388 L 279 436 L 422 436 L 422 18 C 422 -19 415 -51 403 -78 C 391 -105 375 -127 355 -144 C 335 -160 313 -172 288 -180 C 262 -188 237 -192 212 -192 C 174 -192 141 -187 113 -179 C 85 -170 65 -160 53 -150 L 93 -54 C 108 -61 125 -67 144 -71 C 163 -75 184 -78 206 -78 C 231 -78 249 -69 260 -53 C 270 -36 276 -15 276 9 L 276 46 C 268 33 256 22 240 13 C 224 3 204 -1 182 -1 Z M 229 100 C 246 100 259 109 268 128 C 276 146 281 177 281 219 C 281 259 275 287 265 305 C 255 323 242 332 228 332 C 212 332 199 322 190 303 C 181 283 177 255 177 218 C 177 180 181 151 189 131 C 197 110 211 100 229 100 Z M 221 505 L 221 505 Z M 292 505 L 151 505 L 151 651 L 292 651 L 292 505 Z" unicode="ġ" />
<glyph horiz-adv-x="522" d="M 21 0 L 21 0 Z M 265 390 L 505 390 L 505 117 C 489 83 461 53 423 29 C 384 5 334 -7 272 -7 C 238 -7 205 0 175 16 C 145 32 118 55 95 86 C 72 117 54 156 41 203 C 27 249 21 303 21 364 C 21 420 26 472 38 518 C 50 564 66 603 88 635 C 109 667 135 692 166 710 C 197 727 232 736 271 736 C 331 736 377 722 410 695 C 443 667 467 629 482 580 L 348 542 C 342 556 335 570 325 584 C 315 597 299 604 278 604 C 252 604 230 586 214 552 C 198 517 190 455 190 366 C 190 318 192 279 197 248 C 202 216 209 191 217 173 C 225 154 235 141 246 133 C 257 125 269 122 281 122 C 299 122 314 125 326 132 C 337 139 346 148 353 159 L 353 254 L 265 254 L 265 390 Z M 281 -62 L 281 -62 Z M 395 -62 C 395 -86 392 -113 384 -143 C 376 -172 366 -200 355 -226 C 343 -252 331 -276 318 -296 C 305 -316 294 -329 285 -335 L 167 -283 C 174 -273 182 -260 190 -244 C 198 -228 205 -210 211 -190 C 217 -170 223 -148 227 -126 C 231 -104 234 -82 235 -62 L 395 -62 Z" unicode="Ģ" />
<glyph horiz-adv-x="447" d="M 14 0 L 14 0 Z M 182 -1 C 136 -1 96 17 63 53 C 30 89 14 143 14 213 C 14 249 18 282 28 310 C 37 338 49 362 64 381 C 79 399 97 413 117 423 C 137 433 159 438 181 438 C 205 438 226 432 242 422 C 258 412 270 400 279 388 L 279 436 L 422 436 L 422 18 C 422 -19 415 -51 403 -78 C 391 -105 375 -127 355 -144 C 335 -160 313 -172 288 -180 C 262 -188 237 -192 212 -192 C 174 -192 141 -187 113 -179 C 85 -170 65 -160 53 -150 L 93 -54 C 108 -61 125 -67 144 -71 C 163 -75 184 -78 206 -78 C 231 -78 249 -69 260 -53 C 270 -36 276 -15 276 9 L 276 46 C 268 33 256 22 240 13 C 224 3 204 -1 182 -1 Z M 229 100 C 246 100 259 109 268 128 C 276 146 281 177 281 219 C 281 259 275 287 265 305 C 255 323 242 332 228 332 C 212 332 199 322 190 303 C 181 283 177 255 177 218 C 177 180 181 151 189 131 C 197 110 211 100 229 100 Z" unicode="ģ" />
<glyph horiz-adv-x="527" d="M 35 0 L 35 0 Z M 492 0 L 322 0 L 322 287 L 205 287 L 205 0 L 35 0 L 35 730 L 205 730 L 205 433 L 322 433 L 322 730 L 492 730 L 492 0 Z M 264 789 L 264 789 Z M 430 789 L 307 789 L 263 864 L 220 789 L 98 789 L 199 964 L 329 964 L 430 789 Z" unicode="Ĥ" />
<glyph horiz-adv-x="435" d="M 25 0 L 25 0 Z M 412 0 L 257 0 L 257 270 C 257 286 254 299 248 307 C 242 315 233 319 221 319 C 209 319 199 315 191 307 C 183 299 180 286 180 268 L 180 0 L 25 0 L 25 763 L 171 763 L 171 387 C 177 401 189 414 207 426 C 224 437 249 443 281 443 C 321 443 352 433 376 413 C 400 393 412 361 412 315 L 412 0 Z M 217 822 L 217 822 Z M 383 822 L 260 822 L 216 897 L 173 822 L 51 822 L 152 997 L 282 997 L 383 822 Z" unicode="ĥ" />
<glyph horiz-adv-x="527" d="M 205 287 L 205 0 L 35 0 L 35 531 L 5 531 L 5 633 L 35 633 L 35 730 L 205 730 L 205 633 L 322 633 L 322 730 L 492 730 L 492 633 L 522 633 L 522 531 L 492 531 L 492 0 L 322 0 L 322 287 L 205 287 Z M 205 433 L 322 433 L 322 531 L 205 531 L 205 433 Z" unicode="Ħ" />
<glyph horiz-adv-x="435" d="M 180 268 L 180 0 L 25 0 L 25 545 L 5 545 L 5 648 L 25 648 L 25 763 L 171 763 L 171 648 L 263 648 L 263 545 L 171 545 L 171 387 C 177 401 189 414 207 426 C 224 437 249 443 281 443 C 321 443 352 433 376 413 C 400 393 412 361 412 315 L 412 0 L 257 0 L 257 270 C 257 286 254 299 248 307 C 242 315 233 319 221 319 C 209 319 199 315 191 307 C 183 299 180 286 180 268 Z" unicode="ħ" />
<glyph horiz-adv-x="247" d="M 0 0 L 0 0 Z M 210 0 L 38 0 L 38 730 L 210 730 L 210 0 Z M 124 791 L 124 791 Z M 190 950 L 304 950 C 304 896 295 856 279 830 C 262 804 241 791 215 791 C 194 791 177 794 164 800 C 150 806 139 811 131 817 C 123 821 115 826 107 831 C 99 835 90 838 82 838 C 75 838 69 834 64 826 C 58 818 55 807 55 793 L -55 793 C -55 847 -45 887 -26 913 C -7 939 14 953 38 953 C 58 953 75 950 88 944 C 100 938 111 932 120 927 C 128 922 135 918 141 914 C 147 910 154 908 160 908 C 166 908 173 911 179 918 C 185 924 189 935 190 950 Z" unicode="Ĩ" />
<glyph horiz-adv-x="206" d="M 0 0 L 0 0 Z M 183 0 L 26 0 L 26 436 L 183 436 L 183 0 Z M 103 497 L 103 497 Z M 169 656 L 283 656 C 283 602 274 562 258 536 C 241 510 220 497 194 497 C 173 497 156 500 143 506 C 129 512 118 517 110 523 C 102 527 94 532 86 537 C 78 541 69 544 61 544 C 54 544 48 540 43 532 C 37 524 34 513 34 499 L -76 499 C -76 553 -66 593 -47 619 C -28 645 -7 659 17 659 C 37 659 54 656 67 650 C 79 644 90 638 99 633 C 107 628 114 624 120 620 C 126 616 133 614 139 614 C 145 614 152 617 158 624 C 164 630 168 641 169 656 Z" unicode="ĩ" />
<glyph horiz-adv-x="247" d="M 0 0 L 0 0 Z M 210 0 L 38 0 L 38 730 L 210 730 L 210 0 Z M 124 799 L 124 799 Z M 262 799 L -14 799 L -14 914 L 262 914 L 262 799 Z" unicode="Ī" />
<glyph horiz-adv-x="206" d="M 0 0 L 0 0 Z M 183 0 L 26 0 L 26 436 L 183 436 L 183 0 Z M 103 505 L 103 505 Z M 241 505 L -35 505 L -35 620 L 241 620 L 241 505 Z" unicode="ī" />
<glyph horiz-adv-x="247" d="M 0 0 L 0 0 Z M 210 0 L 38 0 L 38 730 L 210 730 L 210 0 Z M 124 788 L 124 788 Z M 161 951 L 288 951 C 283 895 266 853 237 827 C 207 801 170 788 124 788 C 78 788 40 801 11 827 C -18 853 -35 895 -39 951 L 88 951 C 88 927 91 909 96 898 C 100 886 110 881 124 881 C 138 881 147 886 152 897 C 157 908 160 926 161 951 Z" unicode="Ĭ" />
<glyph horiz-adv-x="206" d="M 0 0 L 0 0 Z M 183 0 L 26 0 L 26 436 L 183 436 L 183 0 Z M 103 494 L 103 494 Z M 140 657 L 267 657 C 262 601 245 559 216 533 C 186 507 149 494 103 494 C 57 494 19 507 -10 533 C -39 559 -56 601 -60 657 L 67 657 C 67 633 70 615 75 604 C 79 592 89 587 103 587 C 117 587 126 592 131 603 C 136 614 139 632 140 657 Z" unicode="ĭ" />
<glyph horiz-adv-x="247" d="M 0 0 L 0 0 Z M 210 0 L 38 0 L 38 730 L 210 730 L 210 0 Z M 72 -4 L 72 -4 Z M 168 -63 L 208 -128 C 185 -152 161 -170 136 -182 C 110 -194 82 -200 50 -200 C 14 -200 -14 -192 -34 -177 C -54 -161 -64 -142 -64 -120 C -64 -94 -53 -70 -33 -48 C -12 -25 17 -6 56 10 L 134 10 C 116 2 100 -7 87 -20 C 74 -33 68 -45 68 -56 C 68 -65 71 -72 78 -78 C 84 -83 93 -86 104 -86 C 117 -86 129 -83 140 -79 C 150 -75 160 -69 168 -63 Z" unicode="Į" />
<glyph horiz-adv-x="206" d="M 0 0 L 0 0 Z M 24 492 L 24 627 L 182 627 L 182 492 L 24 492 Z M 26 0 L 26 436 L 181 436 L 181 0 L 26 0 Z M 59 -4 L 59 -4 Z M 155 -63 L 195 -128 C 172 -152 148 -170 123 -182 C 97 -194 69 -200 37 -200 C 1 -200 -27 -192 -47 -177 C -67 -161 -77 -142 -77 -120 C -77 -94 -66 -70 -46 -48 C -25 -25 4 -6 43 10 L 121 10 C 103 2 87 -7 74 -20 C 61 -33 55 -45 55 -56 C 55 -65 58 -72 65 -78 C 71 -83 80 -86 91 -86 C 104 -86 116 -83 127 -79 C 137 -75 147 -69 155 -63 Z" unicode="į" />
<glyph horiz-adv-x="247" d="M 38 0 L 38 0 Z M 210 0 L 38 0 L 38 730 L 210 730 L 210 0 Z M 124 799 L 124 799 Z M 195 799 L 54 799 L 54 945 L 195 945 L 195 799 Z" unicode="İ" />
<glyph horiz-adv-x="206" d="M 183 0 L 26 0 L 26 436 L 183 436 L 183 0 Z" unicode="ı" />
<glyph horiz-adv-x="542" d="M 38 0 L 38 0 Z M 210 0 L 38 0 L 38 730 L 210 730 L 210 0 Z M 510 730 L 510 181 C 510 125 493 79 459 44 C 425 8 382 -9 330 -9 C 316 -9 301 -8 285 -6 C 268 -4 256 -2 249 0 L 249 151 C 253 149 260 147 268 146 C 276 145 283 145 290 145 C 305 145 317 152 327 167 C 336 182 341 201 341 223 L 341 730 L 510 730 Z" unicode="Ĳ" />
<glyph horiz-adv-x="408" d="M 24 0 L 24 0 Z M 24 492 L 24 627 L 182 627 L 182 492 L 24 492 Z M 26 0 L 26 436 L 181 436 L 181 0 L 26 0 Z M 388 492 L 230 492 L 230 627 L 388 627 L 388 492 Z M 387 436 L 387 -65 C 387 -101 374 -132 349 -160 C 324 -188 290 -202 248 -202 C 232 -202 215 -200 197 -196 C 179 -192 168 -189 164 -187 L 188 -77 C 190 -77 193 -78 196 -78 C 199 -78 203 -79 208 -79 C 214 -79 220 -76 225 -70 C 229 -64 232 -56 232 -46 L 232 436 L 387 436 Z" unicode="ĳ" />
<glyph horiz-adv-x="294" d="M 1 0 L 1 0 Z M 262 730 L 262 181 C 262 125 245 79 211 44 C 177 8 134 -9 82 -9 C 68 -9 53 -8 37 -6 C 20 -4 8 -2 1 0 L 1 151 C 5 149 12 147 20 146 C 28 145 35 145 42 145 C 57 145 69 152 79 167 C 88 182 93 201 93 223 L 93 730 L 262 730 Z M 175 789 L 175 789 Z M 341 789 L 218 789 L 174 864 L 131 789 L 9 789 L 110 964 L 240 964 L 341 789 Z" unicode="Ĵ" />
<glyph horiz-adv-x="203" d="M 0 0 L 0 0 Z M 182 436 L 182 -65 C 182 -101 169 -132 144 -160 C 119 -188 85 -202 43 -202 C 27 -202 10 -200 -7 -196 C -25 -192 -36 -189 -41 -187 L -17 -77 C -14 -77 -11 -78 -8 -78 C -5 -78 -1 -79 3 -79 C 9 -79 15 -76 20 -70 C 24 -64 27 -56 27 -46 L 27 436 L 182 436 Z M 101 495 L 101 495 Z M 267 495 L 144 495 L 100 570 L 57 495 L -65 495 L 36 670 L 166 670 L 267 495 Z" unicode="ĵ" />
<glyph horiz-adv-x="543" d="M 35 0 L 35 0 Z M 553 0 L 367 0 L 218 267 L 206 251 L 206 0 L 35 0 L 35 730 L 206 730 L 206 470 L 363 730 L 540 730 L 326 404 L 553 0 Z M 265 -62 L 265 -62 Z M 379 -62 C 379 -86 376 -113 368 -143 C 360 -172 350 -200 339 -226 C 327 -252 315 -276 302 -296 C 289 -316 278 -329 269 -335 L 151 -283 C 158 -273 166 -260 174 -244 C 182 -228 189 -210 195 -190 C 201 -170 207 -148 211 -126 C 215 -104 218 -82 219 -62 L 379 -62 Z" unicode="Ķ" />
<glyph horiz-adv-x="429" d="M 25 0 L 25 0 Z M 440 1 L 274 0 L 204 138 L 178 101 L 178 0 L 25 0 L 25 763 L 171 763 L 171 269 L 278 436 L 433 436 L 315 250 L 440 1 Z M 216 -62 L 216 -62 Z M 330 -62 C 330 -86 327 -113 319 -143 C 311 -172 301 -200 290 -226 C 278 -252 266 -276 253 -296 C 240 -316 229 -329 220 -335 L 102 -283 C 109 -273 117 -260 125 -244 C 133 -228 140 -210 146 -190 C 152 -170 158 -148 162 -126 C 166 -104 169 -82 170 -62 L 330 -62 Z" unicode="ķ" />
<glyph horiz-adv-x="429" d="M 440 1 L 274 0 L 204 138 L 178 101 L 178 0 L 25 0 L 25 436 L 171 436 L 171 269 L 278 436 L 433 436 L 315 250 L 440 1 Z" unicode="ĸ" />
<glyph horiz-adv-x="369" d="M 35 0 L 35 0 Z M 361 0 L 35 0 L 35 730 L 205 730 L 205 144 L 361 144 L 361 0 Z M 181 789 L 181 789 Z M 44 789 L 140 964 L 319 964 L 194 789 L 44 789 Z" unicode="Ĺ" />
<glyph horiz-adv-x="205" d="M 25 0 L 25 0 Z M 166 822 L 166 822 Z M 29 822 L 125 997 L 304 997 L 179 822 L 29 822 Z M 180 763 L 180 0 L 25 0 L 25 763 L 180 763 Z" unicode="ĺ" />
<glyph horiz-adv-x="369" d="M 35 0 L 35 0 Z M 361 0 L 35 0 L 35 730 L 205 730 L 205 144 L 361 144 L 361 0 Z M 197 -62 L 197 -62 Z M 311 -62 C 311 -86 308 -113 300 -143 C 292 -172 282 -200 271 -226 C 259 -252 247 -276 234 -296 C 221 -316 210 -329 201 -335 L 83 -283 C 90 -273 98 -260 106 -244 C 114 -228 121 -210 127 -190 C 133 -170 139 -148 143 -126 C 147 -104 150 -82 151 -62 L 311 -62 Z" unicode="Ļ" />
<glyph horiz-adv-x="205" d="M 0 0 L 0 0 Z M 180 763 L 180 0 L 25 0 L 25 763 L 180 763 Z M 89 -62 L 89 -62 Z M 203 -62 C 203 -86 200 -113 192 -143 C 184 -172 174 -200 163 -226 C 151 -252 139 -276 126 -296 C 113 -316 102 -329 93 -335 L -25 -283 C -17 -273 -10 -260 -2 -244 C 6 -228 13 -210 19 -190 C 25 -170 31 -148 35 -126 C 39 -104 42 -82 43 -62 L 203 -62 Z" unicode="ļ" />
<glyph horiz-adv-x="369" d="M 35 0 L 35 0 Z M 361 0 L 35 0 L 35 730 L 205 730 L 205 144 L 361 144 L 361 0 Z M 405 619 L 399 460 L 265 460 L 259 619 L 259 730 L 405 730 L 405 619 Z" unicode="Ľ" />
<glyph horiz-adv-x="205" d="M 25 0 L 25 0 Z M 180 763 L 180 0 L 25 0 L 25 763 L 180 763 Z M 373 614 L 367 455 L 233 455 L 227 614 L 227 725 L 373 725 L 373 614 Z" unicode="ľ" />
<glyph horiz-adv-x="369" d="M 35 0 L 35 0 Z M 361 0 L 35 0 L 35 730 L 205 730 L 205 144 L 361 144 L 361 0 Z M 322 288 L 322 288 Z M 393 288 L 252 288 L 252 434 L 393 434 L 393 288 Z" unicode="Ŀ" />
<glyph horiz-adv-x="205" d="M 25 0 L 25 0 Z M 180 763 L 180 0 L 25 0 L 25 763 L 180 763 Z M 286 181 L 286 181 Z M 357 181 L 216 181 L 216 327 L 357 327 L 357 181 Z" unicode="ŀ" />
<glyph horiz-adv-x="369" d="M 361 139 L 361 0 L 35 0 L 35 241 L 14 232 L -38 348 L 35 380 L 35 730 L 205 730 L 205 455 L 279 488 L 331 372 L 205 316 L 205 139 L 361 139 Z" unicode="Ł" />
<glyph horiz-adv-x="205" d="M 277 355 L 193 314 L 193 0 L 38 0 L 38 239 L 10 225 L -30 317 L 38 350 L 38 763 L 193 763 L 193 425 L 236 446 L 277 355 Z" unicode="ł" />
<glyph horiz-adv-x="525" d="M 35 0 L 35 0 Z M 490 0 L 373 0 L 194 371 L 194 0 L 35 0 L 35 730 L 153 730 L 337 366 L 337 730 L 490 730 L 490 0 Z M 260 789 L 260 789 Z M 123 789 L 219 964 L 398 964 L 273 789 L 123 789 Z" unicode="Ń" />
<glyph horiz-adv-x="435" d="M 25 0 L 25 0 Z M 412 0 L 257 0 L 257 278 C 257 290 254 300 248 308 C 242 315 233 319 222 319 C 209 319 199 315 191 307 C 183 299 180 286 180 268 L 180 0 L 25 0 L 25 436 L 171 436 L 171 376 C 178 394 190 410 208 423 C 225 436 250 443 282 443 C 322 443 353 433 377 414 C 400 394 412 363 412 319 L 412 0 Z M 219 495 L 219 495 Z M 82 495 L 178 670 L 357 670 L 232 495 L 82 495 Z" unicode="ń" />
<glyph horiz-adv-x="525" d="M 35 0 L 35 0 Z M 490 0 L 373 0 L 194 371 L 194 0 L 35 0 L 35 730 L 153 730 L 337 366 L 337 730 L 490 730 L 490 0 Z M 253 -62 L 253 -62 Z M 367 -62 C 367 -86 364 -113 356 -143 C 348 -172 338 -200 327 -226 C 315 -252 303 -276 290 -296 C 277 -316 266 -329 257 -335 L 139 -283 C 146 -273 154 -260 162 -244 C 170 -228 177 -210 183 -190 C 189 -170 195 -148 199 -126 C 203 -104 206 -82 207 -62 L 367 -62 Z" unicode="Ņ" />
<glyph horiz-adv-x="435" d="M 25 0 L 25 0 Z M 412 0 L 257 0 L 257 278 C 257 290 254 300 248 308 C 242 315 233 319 222 319 C 209 319 199 315 191 307 C 183 299 180 286 180 268 L 180 0 L 25 0 L 25 436 L 171 436 L 171 376 C 178 394 190 410 208 423 C 225 436 250 443 282 443 C 322 443 353 433 377 414 C 400 394 412 363 412 319 L 412 0 Z M 213 -62 L 213 -62 Z M 327 -62 C 327 -86 324 -113 316 -143 C 308 -172 298 -200 287 -226 C 275 -252 263 -276 250 -296 C 237 -316 226 -329 217 -335 L 99 -283 C 106 -273 114 -260 122 -244 C 130 -228 137 -210 143 -190 C 149 -170 155 -148 159 -126 C 163 -104 166 -82 167 -62 L 327 -62 Z" unicode="ņ" />
<glyph horiz-adv-x="525" d="M 35 0 L 35 0 Z M 490 0 L 373 0 L 194 371 L 194 0 L 35 0 L 35 730 L 153 730 L 337 366 L 337 730 L 490 730 L 490 0 Z M 260 789 L 260 789 Z M 94 964 L 218 964 L 261 890 L 305 964 L 426 964 L 325 789 L 195 789 L 94 964 Z" unicode="Ň" />
<glyph horiz-adv-x="435" d="M 25 0 L 25 0 Z M 412 0 L 257 0 L 257 278 C 257 290 254 300 248 308 C 242 315 233 319 222 319 C 209 319 199 315 191 307 C 183 299 180 286 180 268 L 180 0 L 25 0 L 25 436 L 171 436 L 171 376 C 178 394 190 410 208 423 C 225 436 250 443 282 443 C 322 443 353 433 377 414 C 400 394 412 363 412 319 L 412 0 Z M 219 495 L 219 495 Z M 53 670 L 177 670 L 220 596 L 264 670 L 385 670 L 284 495 L 154 495 L 53 670 Z" unicode="ň" />
<glyph horiz-adv-x="525" d="M 337 730 L 490 730 L 490 -7 C 490 -63 476 -108 448 -144 C 420 -179 379 -197 327 -197 C 313 -197 298 -196 282 -194 C 265 -192 253 -190 246 -188 L 246 -37 C 250 -39 257 -40 265 -41 C 273 -42 280 -43 287 -43 C 302 -43 314 -35 323 -20 C 332 -5 337 13 337 35 L 337 75 L 194 371 L 194 0 L 35 0 L 35 730 L 153 730 L 337 366 L 337 730 Z" unicode="Ŋ" />
<glyph horiz-adv-x="435" d="M 282 443 C 322 443 353 433 377 414 C 400 394 412 363 412 319 L 412 -65 C 412 -101 399 -132 374 -160 C 349 -188 315 -202 273 -202 C 257 -202 240 -200 222 -196 C 204 -192 193 -189 188 -187 L 213 -77 C 215 -77 218 -78 221 -78 C 224 -78 228 -79 233 -79 C 239 -79 245 -76 250 -70 C 254 -64 257 -56 257 -46 L 257 278 C 257 290 254 300 248 308 C 242 315 233 319 222 319 C 209 319 199 315 191 307 C 183 299 180 286 180 268 L 180 0 L 25 0 L 25 436 L 171 436 L 171 376 C 178 394 190 410 208 423 C 225 436 250 443 282 443 Z" unicode="ŋ" />
<glyph horiz-adv-x="561" d="M 21 0 L 21 0 Z M 283 -6 C 192 -6 126 26 84 91 C 42 156 21 249 21 370 C 21 483 43 572 87 638 C 131 703 195 736 278 736 C 366 736 431 704 475 641 C 518 578 540 486 540 365 C 540 250 517 159 472 93 C 426 27 363 -6 283 -6 Z M 280 127 C 312 127 335 145 349 181 C 362 217 369 281 369 372 C 369 456 361 515 347 550 C 332 585 309 603 279 603 C 246 603 223 585 211 551 C 199 516 193 454 193 365 C 193 274 199 212 213 178 C 227 144 249 127 280 127 Z M 279 799 L 279 799 Z M 417 799 L 141 799 L 141 914 L 417 914 L 417 799 Z" unicode="Ō" />
<glyph horiz-adv-x="445" d="M 13 0 L 13 0 Z M 220 -6 C 190 -6 163 -1 137 8 C 111 18 89 32 71 51 C 53 69 38 93 28 121 C 18 149 13 180 13 216 C 13 248 17 278 27 306 C 37 334 50 358 68 378 C 86 398 107 413 132 425 C 157 436 185 442 216 442 C 281 442 333 422 373 384 C 412 346 432 294 432 228 C 432 158 413 102 375 59 C 337 15 286 -6 220 -6 Z M 222 97 C 238 97 249 105 257 122 C 264 139 268 172 268 220 C 268 266 264 297 256 311 C 248 325 236 333 221 333 C 206 333 195 325 187 311 C 179 296 176 266 176 220 C 176 170 180 137 188 121 C 196 105 208 97 222 97 Z M 221 505 L 221 505 Z M 359 505 L 83 505 L 83 620 L 359 620 L 359 505 Z" unicode="ō" />
<glyph horiz-adv-x="561" d="M 21 0 L 21 0 Z M 283 -6 C 192 -6 126 26 84 91 C 42 156 21 249 21 370 C 21 483 43 572 87 638 C 131 703 195 736 278 736 C 366 736 431 704 475 641 C 518 578 540 486 540 365 C 540 250 517 159 472 93 C 426 27 363 -6 283 -6 Z M 280 127 C 312 127 335 145 349 181 C 362 217 369 281 369 372 C 369 456 361 515 347 550 C 332 585 309 603 279 603 C 246 603 223 585 211 551 C 199 516 193 454 193 365 C 193 274 199 212 213 178 C 227 144 249 127 280 127 Z M 279 788 L 279 788 Z M 316 951 L 443 951 C 438 895 421 853 392 827 C 362 801 325 788 279 788 C 233 788 195 801 166 827 C 136 853 120 895 116 951 L 243 951 C 243 927 246 909 251 898 C 255 886 265 881 279 881 C 293 881 302 886 307 897 C 312 908 315 926 316 951 Z" unicode="Ŏ" />
<glyph horiz-adv-x="445" d="M 13 0 L 13 0 Z M 220 -6 C 190 -6 163 -1 137 8 C 111 18 89 32 71 51 C 53 69 38 93 28 121 C 18 149 13 180 13 216 C 13 248 17 278 27 306 C 37 334 50 358 68 378 C 86 398 107 413 132 425 C 157 436 185 442 216 442 C 281 442 333 422 373 384 C 412 346 432 294 432 228 C 432 158 413 102 375 59 C 337 15 286 -6 220 -6 Z M 222 97 C 238 97 249 105 257 122 C 264 139 268 172 268 220 C 268 266 264 297 256 311 C 248 325 236 333 221 333 C 206 333 195 325 187 311 C 179 296 176 266 176 220 C 176 170 180 137 188 121 C 196 105 208 97 222 97 Z M 221 494 L 221 494 Z M 258 657 L 385 657 C 380 601 363 559 334 533 C 304 507 267 494 221 494 C 175 494 137 507 108 533 C 78 559 62 601 58 657 L 185 657 C 185 633 188 615 193 604 C 197 592 207 587 221 587 C 235 587 244 592 249 603 C 254 614 257 632 258 657 Z" unicode="ŏ" />
<glyph horiz-adv-x="561" d="M 21 0 L 21 0 Z M 283 -6 C 192 -6 126 26 84 91 C 42 156 21 249 21 370 C 21 483 43 572 87 638 C 131 703 195 736 278 736 C 366 736 431 704 475 641 C 518 578 540 486 540 365 C 540 250 517 159 472 93 C 426 27 363 -6 283 -6 Z M 280 127 C 312 127 335 145 349 181 C 362 217 369 281 369 372 C 369 456 361 515 347 550 C 332 585 309 603 279 603 C 246 603 223 585 211 551 C 199 516 193 454 193 365 C 193 274 199 212 213 178 C 227 144 249 127 280 127 Z M 279 789 L 279 789 Z M 53 789 L 124 959 L 289 959 L 189 789 L 53 789 Z M 269 789 L 341 959 L 506 959 L 405 789 L 269 789 Z" unicode="Ő" />
<glyph horiz-adv-x="445" d="M 0 0 L 0 0 Z M 220 -6 C 190 -6 163 -1 137 8 C 111 18 89 32 71 51 C 53 69 38 93 28 121 C 18 149 13 180 13 216 C 13 248 17 278 27 306 C 37 334 50 358 68 378 C 86 398 107 413 132 425 C 157 436 185 442 216 442 C 281 442 333 422 373 384 C 412 346 432 294 432 228 C 432 158 413 102 375 59 C 337 15 286 -6 220 -6 Z M 222 97 C 238 97 249 105 257 122 C 264 139 268 172 268 220 C 268 266 264 297 256 311 C 248 325 236 333 221 333 C 206 333 195 325 187 311 C 179 296 176 266 176 220 C 176 170 180 137 188 121 C 196 105 208 97 222 97 Z M 221 495 L 221 495 Z M -5 495 L 66 665 L 231 665 L 131 495 L -5 495 Z M 211 495 L 283 665 L 448 665 L 347 495 L 211 495 Z" unicode="ő" />
<glyph horiz-adv-x="740" d="M 237 -6 C 169 -6 116 25 78 89 C 40 153 21 246 21 370 C 21 487 41 577 82 641 C 122 704 176 736 242 736 C 275 736 301 729 321 717 C 341 705 354 692 360 678 L 360 730 L 709 730 L 709 591 L 524 591 L 524 430 L 698 430 L 698 291 L 524 291 L 524 139 L 730 139 L 730 0 L 360 0 L 360 60 C 352 44 337 29 317 15 C 297 1 270 -6 237 -6 Z M 276 118 C 307 118 329 137 342 175 C 354 213 361 278 361 372 C 361 459 354 520 340 556 C 326 592 304 610 276 610 C 260 610 246 606 236 598 C 225 590 216 577 210 559 C 204 540 199 515 197 484 C 194 452 193 413 193 366 C 193 318 194 278 197 246 C 200 214 205 188 212 170 C 218 151 227 138 238 130 C 248 122 261 118 276 118 Z" unicode="Œ" />
<glyph horiz-adv-x="673" d="M 214 -6 C 186 -6 159 -1 135 8 C 110 18 89 32 71 51 C 53 69 38 93 28 121 C 18 149 13 180 13 216 C 13 248 17 278 27 306 C 37 334 50 358 68 378 C 86 398 107 413 132 425 C 157 436 185 442 216 442 C 253 442 282 435 303 421 C 324 407 337 395 343 383 C 347 393 358 406 377 420 C 396 434 423 442 459 442 C 523 442 572 420 604 378 C 636 336 652 269 652 178 L 417 178 C 417 151 423 131 436 119 C 449 107 466 101 487 101 C 509 101 529 104 547 112 C 565 119 583 129 600 141 L 650 64 C 633 48 610 32 582 17 C 554 1 515 -6 466 -6 C 430 -6 401 0 381 13 C 361 25 347 38 341 52 C 333 39 317 26 294 13 C 271 0 244 -6 214 -6 Z M 408 265 L 513 265 C 511 289 506 308 498 321 C 489 334 477 341 461 341 C 445 341 433 334 424 321 C 415 308 410 289 408 265 Z M 222 98 C 238 98 250 106 258 123 C 265 139 269 172 269 220 C 269 266 265 296 257 311 C 249 325 237 333 221 333 C 206 333 195 325 187 311 C 179 296 176 266 176 220 C 176 170 180 137 188 121 C 196 105 208 98 222 98 Z" unicode="œ" />
<glyph horiz-adv-x="489" d="M 35 0 L 35 0 Z M 35 0 L 35 730 L 249 730 C 307 730 355 713 392 680 C 429 646 448 596 448 529 C 448 482 438 441 419 406 C 399 371 375 349 347 339 L 340 333 L 497 0 L 326 0 L 205 273 L 191 273 L 191 0 L 35 0 Z M 191 423 L 223 423 C 241 423 257 430 270 445 C 283 460 290 481 290 508 C 290 536 283 557 271 570 C 259 583 244 590 228 590 L 191 590 L 191 423 Z M 224 789 L 224 789 Z M 87 789 L 183 964 L 362 964 L 237 789 L 87 789 Z" unicode="Ŕ" />
<glyph horiz-adv-x="339" d="M 25 0 L 25 0 Z M 346 408 L 300 289 C 288 297 279 303 271 306 C 263 308 253 310 243 310 C 230 310 216 304 202 294 C 187 283 180 259 180 223 L 180 0 L 25 0 L 25 436 L 175 436 L 175 369 C 181 385 192 402 207 418 C 222 434 241 442 264 442 C 284 442 300 438 314 430 C 328 422 338 414 346 408 Z M 184 495 L 184 495 Z M 47 495 L 143 670 L 322 670 L 197 495 L 47 495 Z" unicode="ŕ" />
<glyph horiz-adv-x="489" d="M 35 0 L 35 0 Z M 35 0 L 35 730 L 249 730 C 307 730 355 713 392 680 C 429 646 448 596 448 529 C 448 482 438 441 419 406 C 399 371 375 349 347 339 L 340 333 L 497 0 L 326 0 L 205 273 L 191 273 L 191 0 L 35 0 Z M 191 423 L 223 423 C 241 423 257 430 270 445 C 283 460 290 481 290 508 C 290 536 283 557 271 570 C 259 583 244 590 228 590 L 191 590 L 191 423 Z M 242 -62 L 242 -62 Z M 356 -62 C 356 -86 353 -113 345 -143 C 337 -172 327 -200 316 -226 C 304 -252 292 -276 279 -296 C 266 -316 255 -329 246 -335 L 128 -283 C 135 -273 143 -260 151 -244 C 159 -228 166 -210 172 -190 C 178 -170 184 -148 188 -126 C 192 -104 195 -82 196 -62 L 356 -62 Z" unicode="Ŗ" />
<glyph horiz-adv-x="339" d="M 25 0 L 25 0 Z M 346 408 L 300 289 C 288 297 279 303 271 306 C 263 308 253 310 243 310 C 230 310 216 304 202 294 C 187 283 180 259 180 223 L 180 0 L 25 0 L 25 436 L 175 436 L 175 369 C 181 385 192 402 207 418 C 222 434 241 442 264 442 C 284 442 300 438 314 430 C 328 422 338 414 346 408 Z M 173 -62 L 173 -62 Z M 287 -62 C 287 -86 284 -113 276 -143 C 268 -172 258 -200 247 -226 C 235 -252 223 -276 210 -296 C 197 -316 186 -329 177 -335 L 59 -283 C 66 -273 74 -260 82 -244 C 90 -228 97 -210 103 -190 C 109 -170 115 -148 119 -126 C 123 -104 126 -82 127 -62 L 287 -62 Z" unicode="ŗ" />
<glyph horiz-adv-x="489" d="M 35 0 L 35 0 Z M 35 0 L 35 730 L 249 730 C 307 730 355 713 392 680 C 429 646 448 596 448 529 C 448 482 438 441 419 406 C 399 371 375 349 347 339 L 340 333 L 497 0 L 326 0 L 205 273 L 191 273 L 191 0 L 35 0 Z M 191 423 L 223 423 C 241 423 257 430 270 445 C 283 460 290 481 290 508 C 290 536 283 557 271 570 C 259 583 244 590 228 590 L 191 590 L 191 423 Z M 224 789 L 224 789 Z M 58 964 L 182 964 L 225 890 L 269 964 L 390 964 L 289 789 L 159 789 L 58 964 Z" unicode="Ř" />
<glyph horiz-adv-x="339" d="M 18 0 L 18 0 Z M 346 408 L 300 289 C 288 297 279 303 271 306 C 263 308 253 310 243 310 C 230 310 216 304 202 294 C 187 283 180 259 180 223 L 180 0 L 25 0 L 25 436 L 175 436 L 175 369 C 181 385 192 402 207 418 C 222 434 241 442 264 442 C 284 442 300 438 314 430 C 328 422 338 414 346 408 Z M 184 495 L 184 495 Z M 18 670 L 142 670 L 185 596 L 229 670 L 350 670 L 249 495 L 119 495 L 18 670 Z" unicode="ř" />
<glyph horiz-adv-x="453" d="M 8 0 L 8 0 Z M 226 -6 C 182 -6 142 0 107 11 C 71 23 38 47 8 83 L 88 177 C 102 158 119 143 141 132 C 162 120 184 115 206 115 C 227 115 246 122 263 136 C 280 150 289 169 289 195 C 289 223 281 244 265 260 C 249 276 221 297 180 323 C 161 335 143 348 125 362 C 107 376 91 392 77 410 C 63 428 51 448 43 471 C 35 494 31 521 31 551 C 31 579 36 605 48 628 C 59 650 74 670 94 686 C 113 702 135 714 161 723 C 187 731 214 736 242 736 C 288 736 325 729 355 715 C 385 701 408 685 424 669 L 342 570 C 331 580 318 589 302 597 C 286 605 270 609 254 609 C 237 609 221 603 207 592 C 192 580 185 564 185 544 C 185 525 191 508 203 494 C 214 480 241 459 285 433 C 337 401 375 368 401 334 C 427 299 440 253 440 195 C 440 160 433 130 421 105 C 409 79 392 58 372 42 C 352 26 329 14 303 6 C 277 -2 252 -6 226 -6 Z M 227 789 L 227 789 Z M 90 789 L 186 964 L 365 964 L 240 789 L 90 789 Z" unicode="Ś" />
<glyph horiz-adv-x="332" d="M 3 0 L 3 0 Z M 175 -7 C 137 -7 103 0 73 12 C 43 24 19 40 3 58 L 61 142 C 75 128 90 118 108 110 C 125 102 140 98 153 98 C 163 98 172 100 179 105 C 186 110 190 118 190 128 C 190 138 183 147 169 156 C 155 164 137 174 117 185 C 93 197 71 214 51 234 C 31 254 22 284 22 324 C 22 356 35 385 63 410 C 91 434 125 447 165 447 C 199 447 227 442 251 434 C 274 426 295 415 314 403 L 257 315 C 249 321 237 326 223 332 C 208 337 196 340 186 340 C 178 340 170 338 162 335 C 154 332 151 326 151 318 C 151 308 157 300 169 293 C 181 285 200 275 225 262 C 257 245 282 227 299 209 C 315 190 324 161 324 123 C 324 100 319 80 309 64 C 299 48 287 34 273 24 C 259 13 243 5 225 0 C 207 -4 191 -7 175 -7 Z M 167 495 L 167 495 Z M 30 495 L 126 670 L 305 670 L 180 495 L 30 495 Z" unicode="ś" />
<glyph horiz-adv-x="453" d="M 8 0 L 8 0 Z M 226 -6 C 182 -6 142 0 107 11 C 71 23 38 47 8 83 L 88 177 C 102 158 119 143 141 132 C 162 120 184 115 206 115 C 227 115 246 122 263 136 C 280 150 289 169 289 195 C 289 223 281 244 265 260 C 249 276 221 297 180 323 C 161 335 143 348 125 362 C 107 376 91 392 77 410 C 63 428 51 448 43 471 C 35 494 31 521 31 551 C 31 579 36 605 48 628 C 59 650 74 670 94 686 C 113 702 135 714 161 723 C 187 731 214 736 242 736 C 288 736 325 729 355 715 C 385 701 408 685 424 669 L 342 570 C 331 580 318 589 302 597 C 286 605 270 609 254 609 C 237 609 221 603 207 592 C 192 580 185 564 185 544 C 185 525 191 508 203 494 C 214 480 241 459 285 433 C 337 401 375 368 401 334 C 427 299 440 253 440 195 C 440 160 433 130 421 105 C 409 79 392 58 372 42 C 352 26 329 14 303 6 C 277 -2 252 -6 226 -6 Z M 227 789 L 227 789 Z M 393 789 L 270 789 L 226 864 L 183 789 L 61 789 L 162 964 L 292 964 L 393 789 Z" unicode="Ŝ" />
<glyph horiz-adv-x="332" d="M 1 0 L 1 0 Z M 175 -7 C 137 -7 103 0 73 12 C 43 24 19 40 3 58 L 61 142 C 75 128 90 118 108 110 C 125 102 140 98 153 98 C 163 98 172 100 179 105 C 186 110 190 118 190 128 C 190 138 183 147 169 156 C 155 164 137 174 117 185 C 93 197 71 214 51 234 C 31 254 22 284 22 324 C 22 356 35 385 63 410 C 91 434 125 447 165 447 C 199 447 227 442 251 434 C 274 426 295 415 314 403 L 257 315 C 249 321 237 326 223 332 C 208 337 196 340 186 340 C 178 340 170 338 162 335 C 154 332 151 326 151 318 C 151 308 157 300 169 293 C 181 285 200 275 225 262 C 257 245 282 227 299 209 C 315 190 324 161 324 123 C 324 100 319 80 309 64 C 299 48 287 34 273 24 C 259 13 243 5 225 0 C 207 -4 191 -7 175 -7 Z M 167 495 L 167 495 Z M 333 495 L 210 495 L 166 570 L 123 495 L 1 495 L 102 670 L 232 670 L 333 495 Z" unicode="ŝ" />
<glyph horiz-adv-x="453" d="M 8 0 L 8 0 Z M 226 -6 C 182 -6 142 0 107 11 C 71 23 38 47 8 83 L 88 177 C 102 158 119 143 141 132 C 162 120 184 115 206 115 C 227 115 246 122 263 136 C 280 150 289 169 289 195 C 289 223 281 244 265 260 C 249 276 221 297 180 323 C 161 335 143 348 125 362 C 107 376 91 392 77 410 C 63 428 51 448 43 471 C 35 494 31 521 31 551 C 31 579 36 605 48 628 C 59 650 74 670 94 686 C 113 702 135 714 161 723 C 187 731 214 736 242 736 C 288 736 325 729 355 715 C 385 701 408 685 424 669 L 342 570 C 331 580 318 589 302 597 C 286 605 270 609 254 609 C 237 609 221 603 207 592 C 192 580 185 564 185 544 C 185 525 191 508 203 494 C 214 480 241 459 285 433 C 337 401 375 368 401 334 C 427 299 440 253 440 195 C 440 160 433 130 421 105 C 409 79 392 58 372 42 C 352 26 329 14 303 6 C 277 -2 252 -6 226 -6 Z M 200 0 L 200 0 Z M 202 -182 C 178 -182 156 -179 135 -173 C 114 -167 97 -159 84 -149 L 106 -95 C 112 -99 122 -104 134 -110 C 146 -116 159 -119 173 -119 C 181 -119 188 -117 194 -113 C 200 -109 203 -104 203 -98 C 203 -91 200 -86 195 -83 C 189 -80 184 -79 178 -79 C 173 -79 169 -79 165 -80 C 161 -80 157 -81 153 -83 L 132 -62 L 194 14 L 270 14 L 226 -40 C 252 -37 274 -41 291 -53 C 307 -64 316 -80 316 -102 C 316 -126 304 -146 282 -160 C 260 -174 233 -182 202 -182 Z" unicode="Ş" />
<glyph horiz-adv-x="332" d="M 3 0 L 3 0 Z M 175 -7 C 137 -7 103 0 73 12 C 43 24 19 40 3 58 L 61 142 C 75 128 90 118 108 110 C 125 102 140 98 153 98 C 163 98 172 100 179 105 C 186 110 190 118 190 128 C 190 138 183 147 169 156 C 155 164 137 174 117 185 C 93 197 71 214 51 234 C 31 254 22 284 22 324 C 22 356 35 385 63 410 C 91 434 125 447 165 447 C 199 447 227 442 251 434 C 274 426 295 415 314 403 L 257 315 C 249 321 237 326 223 332 C 208 337 196 340 186 340 C 178 340 170 338 162 335 C 154 332 151 326 151 318 C 151 308 157 300 169 293 C 181 285 200 275 225 262 C 257 245 282 227 299 209 C 315 190 324 161 324 123 C 324 100 319 80 309 64 C 299 48 287 34 273 24 C 259 13 243 5 225 0 C 207 -4 191 -7 175 -7 Z M 151 0 L 151 0 Z M 153 -182 C 129 -182 107 -179 86 -173 C 65 -167 48 -159 35 -149 L 57 -95 C 63 -99 73 -104 85 -110 C 97 -116 110 -119 124 -119 C 132 -119 139 -117 145 -113 C 151 -109 154 -104 154 -98 C 154 -91 151 -86 146 -83 C 140 -80 135 -79 129 -79 C 124 -79 120 -79 116 -80 C 112 -80 108 -81 104 -83 L 83 -62 L 145 14 L 221 14 L 177 -40 C 203 -37 225 -41 242 -53 C 258 -64 267 -80 267 -102 C 267 -126 255 -146 233 -160 C 211 -174 184 -182 153 -182 Z" unicode="ş" />
<glyph horiz-adv-x="453" d="M 8 0 L 8 0 Z M 226 -6 C 182 -6 142 0 107 11 C 71 23 38 47 8 83 L 88 177 C 102 158 119 143 141 132 C 162 120 184 115 206 115 C 227 115 246 122 263 136 C 280 150 289 169 289 195 C 289 223 281 244 265 260 C 249 276 221 297 180 323 C 161 335 143 348 125 362 C 107 376 91 392 77 410 C 63 428 51 448 43 471 C 35 494 31 521 31 551 C 31 579 36 605 48 628 C 59 650 74 670 94 686 C 113 702 135 714 161 723 C 187 731 214 736 242 736 C 288 736 325 729 355 715 C 385 701 408 685 424 669 L 342 570 C 331 580 318 589 302 597 C 286 605 270 609 254 609 C 237 609 221 603 207 592 C 192 580 185 564 185 544 C 185 525 191 508 203 494 C 214 480 241 459 285 433 C 337 401 375 368 401 334 C 427 299 440 253 440 195 C 440 160 433 130 421 105 C 409 79 392 58 372 42 C 352 26 329 14 303 6 C 277 -2 252 -6 226 -6 Z M 227 789 L 227 789 Z M 61 964 L 185 964 L 228 890 L 272 964 L 393 964 L 292 789 L 162 789 L 61 964 Z" unicode="Š" />
<glyph horiz-adv-x="332" d="M 1 0 L 1 0 Z M 175 -7 C 137 -7 103 0 73 12 C 43 24 19 40 3 58 L 61 142 C 75 128 90 118 108 110 C 125 102 140 98 153 98 C 163 98 172 100 179 105 C 186 110 190 118 190 128 C 190 138 183 147 169 156 C 155 164 137 174 117 185 C 93 197 71 214 51 234 C 31 254 22 284 22 324 C 22 356 35 385 63 410 C 91 434 125 447 165 447 C 199 447 227 442 251 434 C 274 426 295 415 314 403 L 257 315 C 249 321 237 326 223 332 C 208 337 196 340 186 340 C 178 340 170 338 162 335 C 154 332 151 326 151 318 C 151 308 157 300 169 293 C 181 285 200 275 225 262 C 257 245 282 227 299 209 C 315 190 324 161 324 123 C 324 100 319 80 309 64 C 299 48 287 34 273 24 C 259 13 243 5 225 0 C 207 -4 191 -7 175 -7 Z M 167 495 L 167 495 Z M 1 670 L 125 670 L 168 596 L 212 670 L 333 670 L 232 495 L 102 495 L 1 670 Z" unicode="š" />
<glyph horiz-adv-x="401" d="M 4 0 L 4 0 Z M 397 586 L 287 586 L 287 0 L 117 0 L 117 586 L 4 586 L 4 730 L 397 730 L 397 586 Z M 200 789 L 200 789 Z M 34 964 L 158 964 L 201 890 L 245 964 L 366 964 L 265 789 L 135 789 L 34 964 Z" unicode="Ť" />
<glyph horiz-adv-x="274" d="M 5 0 L 5 0 Z M 244 123 L 276 24 C 267 17 256 10 243 4 C 230 -2 213 -6 193 -6 C 181 -6 166 -4 149 0 C 131 4 114 11 98 22 C 82 32 68 47 57 66 C 45 85 40 109 40 139 L 40 315 L 5 315 L 5 436 L 44 436 L 44 588 L 189 592 L 189 436 L 247 436 L 247 315 L 193 315 L 193 147 C 193 135 195 127 200 122 C 204 117 210 115 218 115 C 222 115 227 115 232 117 C 236 119 240 121 244 123 Z M 405 619 L 399 460 L 265 460 L 259 619 L 259 730 L 405 730 L 405 619 Z" unicode="ť" />
<glyph horiz-adv-x="401" d="M 364 376 L 287 376 L 287 0 L 117 0 L 117 376 L 41 376 L 41 479 L 117 479 L 117 586 L 4 586 L 4 730 L 397 730 L 397 586 L 287 586 L 287 479 L 364 479 L 364 376 Z" unicode="Ŧ" />
<glyph horiz-adv-x="274" d="M 276 24 C 267 17 256 10 243 4 C 230 -2 213 -6 193 -6 C 181 -6 166 -4 149 0 C 131 4 114 11 98 22 C 82 32 68 47 57 66 C 45 85 40 109 40 139 L 40 207 L 17 207 L 17 282 L 40 282 L 40 315 L 5 315 L 5 436 L 44 436 L 44 588 L 189 592 L 189 436 L 247 436 L 247 315 L 193 315 L 193 282 L 232 282 L 232 207 L 193 207 L 193 147 C 193 135 195 127 200 122 C 204 117 210 115 218 115 C 222 115 227 115 232 117 C 236 119 240 121 244 123 L 276 24 Z" unicode="ŧ" />
<glyph horiz-adv-x="532" d="M 33 0 L 33 0 Z M 500 730 L 500 231 C 500 189 493 153 479 123 C 465 93 446 68 424 49 C 401 30 375 16 346 7 C 316 -2 286 -7 256 -7 C 226 -7 197 -2 170 6 C 142 14 119 28 99 47 C 79 66 63 91 51 121 C 39 151 33 188 33 231 L 33 730 L 201 730 L 201 223 C 201 192 206 170 216 158 C 226 145 241 139 260 139 C 278 139 294 145 306 157 C 318 169 324 191 324 223 L 324 730 L 500 730 Z M 262 791 L 262 791 Z M 328 950 L 442 950 C 442 896 433 856 417 830 C 400 804 379 791 353 791 C 332 791 315 794 302 800 C 288 806 277 811 269 817 C 261 821 253 826 245 831 C 237 835 228 838 220 838 C 213 838 207 834 202 826 C 196 818 193 807 193 793 L 83 793 C 83 847 92 887 111 913 C 130 939 152 953 176 953 C 196 953 213 950 226 944 C 238 938 249 932 258 927 C 266 922 273 918 279 914 C 285 910 292 908 298 908 C 304 908 311 911 317 918 C 323 924 327 935 328 950 Z" unicode="Ũ" />
<glyph horiz-adv-x="435" d="M 23 0 L 23 0 Z M 23 436 L 178 436 L 178 150 C 178 132 181 119 188 112 C 194 105 204 102 216 102 C 227 102 236 106 244 115 C 251 124 255 141 255 166 L 255 436 L 410 436 L 410 0 L 260 0 L 260 47 C 252 30 238 17 220 7 C 201 -2 179 -7 155 -7 C 119 -7 88 2 62 22 C 36 42 23 75 23 121 L 23 436 Z M 218 497 L 218 497 Z M 284 656 L 398 656 C 398 602 389 562 373 536 C 356 510 335 497 309 497 C 288 497 271 500 258 506 C 244 512 233 517 225 523 C 217 527 209 532 201 537 C 193 541 184 544 176 544 C 169 544 163 540 158 532 C 152 524 149 513 149 499 L 39 499 C 39 553 48 593 67 619 C 86 645 108 659 132 659 C 152 659 169 656 182 650 C 194 644 205 638 214 633 C 222 628 229 624 235 620 C 241 616 248 614 254 614 C 260 614 267 617 273 624 C 279 630 283 641 284 656 Z" unicode="ũ" />
<glyph horiz-adv-x="532" d="M 33 0 L 33 0 Z M 500 730 L 500 231 C 500 189 493 153 479 123 C 465 93 446 68 424 49 C 401 30 375 16 346 7 C 316 -2 286 -7 256 -7 C 226 -7 197 -2 170 6 C 142 14 119 28 99 47 C 79 66 63 91 51 121 C 39 151 33 188 33 231 L 33 730 L 201 730 L 201 223 C 201 192 206 170 216 158 C 226 145 241 139 260 139 C 278 139 294 145 306 157 C 318 169 324 191 324 223 L 324 730 L 500 730 Z M 262 799 L 262 799 Z M 400 799 L 124 799 L 124 914 L 400 914 L 400 799 Z" unicode="Ū" />
<glyph horiz-adv-x="435" d="M 23 0 L 23 0 Z M 23 436 L 178 436 L 178 150 C 178 132 181 119 188 112 C 194 105 204 102 216 102 C 227 102 236 106 244 115 C 251 124 255 141 255 166 L 255 436 L 410 436 L 410 0 L 260 0 L 260 47 C 252 30 238 17 220 7 C 201 -2 179 -7 155 -7 C 119 -7 88 2 62 22 C 36 42 23 75 23 121 L 23 436 Z M 218 505 L 218 505 Z M 356 505 L 80 505 L 80 620 L 356 620 L 356 505 Z" unicode="ū" />
<glyph horiz-adv-x="532" d="M 33 0 L 33 0 Z M 500 730 L 500 231 C 500 189 493 153 479 123 C 465 93 446 68 424 49 C 401 30 375 16 346 7 C 316 -2 286 -7 256 -7 C 226 -7 197 -2 170 6 C 142 14 119 28 99 47 C 79 66 63 91 51 121 C 39 151 33 188 33 231 L 33 730 L 201 730 L 201 223 C 201 192 206 170 216 158 C 226 145 241 139 260 139 C 278 139 294 145 306 157 C 318 169 324 191 324 223 L 324 730 L 500 730 Z M 262 788 L 262 788 Z M 299 951 L 426 951 C 421 895 404 853 375 827 C 345 801 308 788 262 788 C 216 788 178 801 149 827 C 119 853 103 895 99 951 L 226 951 C 226 927 229 909 234 898 C 238 886 248 881 262 881 C 276 881 285 886 290 897 C 295 908 298 926 299 951 Z" unicode="Ŭ" />
<glyph horiz-adv-x="435" d="M 23 0 L 23 0 Z M 23 436 L 178 436 L 178 150 C 178 132 181 119 188 112 C 194 105 204 102 216 102 C 227 102 236 106 244 115 C 251 124 255 141 255 166 L 255 436 L 410 436 L 410 0 L 260 0 L 260 47 C 252 30 238 17 220 7 C 201 -2 179 -7 155 -7 C 119 -7 88 2 62 22 C 36 42 23 75 23 121 L 23 436 Z M 218 494 L 218 494 Z M 255 657 L 382 657 C 377 601 360 559 331 533 C 301 507 264 494 218 494 C 172 494 134 507 105 533 C 75 559 59 601 55 657 L 182 657 C 182 633 185 615 190 604 C 194 592 204 587 218 587 C 232 587 241 592 246 603 C 251 614 254 632 255 657 Z" unicode="ŭ" />
<glyph horiz-adv-x="532" d="M 33 0 L 33 0 Z M 500 730 L 500 231 C 500 189 493 153 479 123 C 465 93 446 68 424 49 C 401 30 375 16 346 7 C 316 -2 286 -7 256 -7 C 226 -7 197 -2 170 6 C 142 14 119 28 99 47 C 79 66 63 91 51 121 C 39 151 33 188 33 231 L 33 730 L 201 730 L 201 223 C 201 192 206 170 216 158 C 226 145 241 139 260 139 C 278 139 294 145 306 157 C 318 169 324 191 324 223 L 324 730 L 500 730 Z M 262 784 L 262 784 Z M 262 784 C 228 784 199 795 176 819 C 152 842 141 871 141 905 C 141 938 152 966 176 990 C 199 1014 228 1026 262 1026 C 296 1026 324 1014 348 990 C 372 966 384 938 384 905 C 384 871 372 842 348 819 C 324 795 296 784 262 784 Z M 262 860 C 274 860 285 864 293 873 C 301 881 305 892 305 905 C 305 917 301 928 293 936 C 285 944 274 949 262 949 C 250 949 239 944 231 936 C 223 928 219 917 219 905 C 219 892 223 881 231 873 C 239 864 250 860 262 860 Z" unicode="Ů" />
<glyph horiz-adv-x="435" d="M 23 0 L 23 0 Z M 23 436 L 178 436 L 178 150 C 178 132 181 119 188 112 C 194 105 204 102 216 102 C 227 102 236 106 244 115 C 251 124 255 141 255 166 L 255 436 L 410 436 L 410 0 L 260 0 L 260 47 C 252 30 238 17 220 7 C 201 -2 179 -7 155 -7 C 119 -7 88 2 62 22 C 36 42 23 75 23 121 L 23 436 Z M 218 490 L 218 490 Z M 218 490 C 184 490 155 501 132 525 C 108 548 97 577 97 611 C 97 644 108 672 132 696 C 155 720 184 732 218 732 C 252 732 280 720 304 696 C 328 672 340 644 340 611 C 340 577 328 548 304 525 C 280 501 252 490 218 490 Z M 218 566 C 230 566 241 570 249 579 C 257 587 261 598 261 611 C 261 623 257 634 249 642 C 241 650 230 655 218 655 C 206 655 195 650 187 642 C 179 634 175 623 175 611 C 175 598 179 587 187 579 C 195 570 206 566 218 566 Z" unicode="ů" />
<glyph horiz-adv-x="532" d="M 33 0 L 33 0 Z M 500 730 L 500 231 C 500 189 493 153 479 123 C 465 93 446 68 424 49 C 401 30 375 16 346 7 C 316 -2 286 -7 256 -7 C 226 -7 197 -2 170 6 C 142 14 119 28 99 47 C 79 66 63 91 51 121 C 39 151 33 188 33 231 L 33 730 L 201 730 L 201 223 C 201 192 206 170 216 158 C 226 145 241 139 260 139 C 278 139 294 145 306 157 C 318 169 324 191 324 223 L 324 730 L 500 730 Z M 262 789 L 262 789 Z M 36 789 L 107 959 L 272 959 L 172 789 L 36 789 Z M 252 789 L 324 959 L 489 959 L 388 789 L 252 789 Z" unicode="Ű" />
<glyph horiz-adv-x="435" d="M 0 0 L 0 0 Z M 23 436 L 178 436 L 178 150 C 178 132 181 119 188 112 C 194 105 204 102 216 102 C 227 102 236 106 244 115 C 251 124 255 141 255 166 L 255 436 L 410 436 L 410 0 L 260 0 L 260 47 C 252 30 238 17 220 7 C 201 -2 179 -7 155 -7 C 119 -7 88 2 62 22 C 36 42 23 75 23 121 L 23 436 Z M 218 495 L 218 495 Z M -8 495 L 63 665 L 228 665 L 128 495 L -8 495 Z M 208 495 L 280 665 L 445 665 L 344 495 L 208 495 Z" unicode="ű" />
<glyph horiz-adv-x="532" d="M 33 0 L 33 0 Z M 500 730 L 500 231 C 500 189 493 153 479 123 C 465 93 446 68 424 49 C 401 30 375 16 346 7 C 316 -2 286 -7 256 -7 C 226 -7 197 -2 170 6 C 142 14 119 28 99 47 C 79 66 63 91 51 121 C 39 151 33 188 33 231 L 33 730 L 201 730 L 201 223 C 201 192 206 170 216 158 C 226 145 241 139 260 139 C 278 139 294 145 306 157 C 318 169 324 191 324 223 L 324 730 L 500 730 Z M 291 -4 L 291 -4 Z M 387 -63 L 427 -128 C 404 -152 380 -170 355 -182 C 329 -194 301 -200 269 -200 C 233 -200 205 -192 185 -177 C 165 -161 155 -142 155 -120 C 155 -94 165 -70 186 -48 C 206 -25 236 -6 275 10 L 353 10 C 335 2 319 -7 306 -20 C 293 -33 287 -45 287 -56 C 287 -65 290 -72 297 -78 C 303 -83 312 -86 323 -86 C 336 -86 348 -83 359 -79 C 369 -75 379 -69 387 -63 Z" unicode="Ų" />
<glyph horiz-adv-x="435" d="M 23 0 L 23 0 Z M 23 436 L 178 436 L 178 150 C 178 132 181 119 188 112 C 194 105 204 102 216 102 C 227 102 236 106 244 115 C 251 124 255 141 255 166 L 255 436 L 410 436 L 410 0 L 260 0 L 260 47 C 252 30 238 17 220 7 C 201 -2 179 -7 155 -7 C 119 -7 88 2 62 22 C 36 42 23 75 23 121 L 23 436 Z M 293 -4 L 293 -4 Z M 389 -63 L 429 -128 C 406 -152 382 -170 357 -182 C 331 -194 303 -200 271 -200 C 235 -200 207 -192 187 -177 C 167 -161 157 -142 157 -120 C 157 -94 167 -70 188 -48 C 208 -25 238 -6 277 10 L 355 10 C 337 2 321 -7 308 -20 C 295 -33 289 -45 289 -56 C 289 -65 292 -72 299 -78 C 305 -83 314 -86 325 -86 C 338 -86 350 -83 361 -79 C 371 -75 381 -69 389 -63 Z" unicode="ų" />
<glyph horiz-adv-x="723" d="M 0 0 L 0 0 Z M 700 730 L 552 -3 L 439 -3 L 349 392 L 256 -3 L 142 -3 L -5 730 L 154 730 L 220 316 L 296 729 L 416 729 L 489 315 L 558 730 L 700 730 Z M 357 789 L 357 789 Z M 523 789 L 400 789 L 356 864 L 313 789 L 191 789 L 292 964 L 422 964 L 523 789 Z" unicode="Ŵ" />
<glyph horiz-adv-x="587" d="M 0 0 L 0 0 Z M 351 -3 L 293 194 L 236 -3 L 117 -3 L -6 436 L 142 436 L 201 205 L 248 398 L 347 398 L 398 205 L 460 436 L 592 436 L 468 -3 L 351 -3 Z M 297 495 L 297 495 Z M 463 495 L 340 495 L 296 570 L 253 495 L 131 495 L 232 670 L 362 670 L 463 495 Z" unicode="ŵ" />
<glyph horiz-adv-x="485" d="M 0 0 L 0 0 Z M 498 730 L 325 297 L 325 0 L 155 0 L 155 301 L -13 730 L 154 730 L 246 465 L 343 730 L 498 730 Z M 247 789 L 247 789 Z M 413 789 L 290 789 L 246 864 L 203 789 L 81 789 L 182 964 L 312 964 L 413 789 Z" unicode="Ŷ" />
<glyph horiz-adv-x="394" d="M 0 0 L 0 0 Z M 405 436 L 227 -98 C 215 -133 194 -159 164 -175 C 134 -191 100 -200 62 -200 C 48 -200 34 -198 21 -195 C 8 -191 -1 -187 -8 -183 L 26 -79 C 28 -80 33 -82 40 -84 C 46 -86 53 -88 60 -88 C 72 -88 81 -83 89 -74 C 97 -64 103 -50 108 -32 L 127 43 L -10 436 L 153 436 L 212 230 L 269 436 L 405 436 Z M 205 495 L 205 495 Z M 371 495 L 248 495 L 204 570 L 161 495 L 39 495 L 140 670 L 270 670 L 371 495 Z" unicode="ŷ" />
<glyph horiz-adv-x="485" d="M 0 0 L 0 0 Z M 498 730 L 325 297 L 325 0 L 155 0 L 155 301 L -13 730 L 154 730 L 246 465 L 343 730 L 498 730 Z M 247 789 L 247 789 Z M 396 789 L 271 789 L 271 953 L 396 953 L 396 789 Z M 223 789 L 98 789 L 98 953 L 223 953 L 223 789 Z" unicode="Ÿ" />
<glyph horiz-adv-x="431" d="M 11 0 L 11 0 Z M 410 730 L 410 644 L 202 142 L 421 142 L 421 0 L 11 0 L 11 82 L 227 587 L 33 587 L 33 730 L 410 730 Z M 222 789 L 222 789 Z M 85 789 L 181 964 L 360 964 L 235 789 L 85 789 Z" unicode="Ź" />
<glyph horiz-adv-x="360" d="M 7 0 L 7 0 Z M 348 436 L 348 369 L 202 121 L 353 121 L 353 0 L 7 0 L 7 52 L 169 315 L 18 315 L 18 436 L 348 436 Z M 181 495 L 181 495 Z M 44 495 L 140 670 L 319 670 L 194 495 L 44 495 Z" unicode="ź" />
<glyph horiz-adv-x="431" d="M 11 0 L 11 0 Z M 410 730 L 410 644 L 202 142 L 421 142 L 421 0 L 11 0 L 11 82 L 227 587 L 33 587 L 33 730 L 410 730 Z M 222 799 L 222 799 Z M 293 799 L 152 799 L 152 945 L 293 945 L 293 799 Z" unicode="Ż" />
<glyph horiz-adv-x="360" d="M 7 0 L 7 0 Z M 348 436 L 348 369 L 202 121 L 353 121 L 353 0 L 7 0 L 7 52 L 169 315 L 18 315 L 18 436 L 348 436 Z M 181 505 L 181 505 Z M 252 505 L 111 505 L 111 651 L 252 651 L 252 505 Z" unicode="ż" />
<glyph horiz-adv-x="431" d="M 11 0 L 11 0 Z M 410 730 L 410 644 L 202 142 L 421 142 L 421 0 L 11 0 L 11 82 L 227 587 L 33 587 L 33 730 L 410 730 Z M 222 789 L 222 789 Z M 56 964 L 180 964 L 223 890 L 267 964 L 388 964 L 287 789 L 157 789 L 56 964 Z" unicode="Ž" />
<glyph horiz-adv-x="360" d="M 7 0 L 7 0 Z M 348 436 L 348 369 L 202 121 L 353 121 L 353 0 L 7 0 L 7 52 L 169 315 L 18 315 L 18 436 L 348 436 Z" unicode="ž" />
<glyph horiz-adv-x="392" d="M 224 -42 C 222 -58 218 -74 211 -90 C 204 -106 195 -121 183 -134 C 171 -147 157 -158 141 -166 C 124 -174 105 -179 84 -179 C 59 -179 36 -176 15 -172 C -6 -168 -22 -162 -34 -156 L -19 -43 C -14 -43 -7 -45 2 -47 C 12 -49 21 -51 30 -51 C 47 -51 61 -45 73 -33 C 84 -21 91 -4 94 18 L 120 314 L 26 314 L 26 433 L 130 433 L 146 610 C 148 632 153 652 163 670 C 173 687 185 701 199 712 C 213 723 228 731 245 737 C 261 743 278 746 294 746 C 310 746 328 745 346 744 C 364 743 374 742 378 742 L 367 609 C 365 609 361 610 355 611 C 349 611 343 612 337 612 C 318 612 303 605 292 593 C 281 580 275 560 273 534 L 264 433 L 363 433 L 363 314 L 254 314 L 224 -42 Z" unicode="ƒ" />
<glyph horiz-adv-x="453" d="M 8 0 L 8 0 Z M 226 -6 C 182 -6 142 0 107 11 C 71 23 38 47 8 83 L 88 177 C 102 158 119 143 141 132 C 162 120 184 115 206 115 C 227 115 246 122 263 136 C 280 150 289 169 289 195 C 289 223 281 244 265 260 C 249 276 221 297 180 323 C 161 335 143 348 125 362 C 107 376 91 392 77 410 C 63 428 51 448 43 471 C 35 494 31 521 31 551 C 31 579 36 605 48 628 C 59 650 74 670 94 686 C 113 702 135 714 161 723 C 187 731 214 736 242 736 C 288 736 325 729 355 715 C 385 701 408 685 424 669 L 342 570 C 331 580 318 589 302 597 C 286 605 270 609 254 609 C 237 609 221 603 207 592 C 192 580 185 564 185 544 C 185 525 191 508 203 494 C 214 480 241 459 285 433 C 337 401 375 368 401 334 C 427 299 440 253 440 195 C 440 160 433 130 421 105 C 409 79 392 58 372 42 C 352 26 329 14 303 6 C 277 -2 252 -6 226 -6 Z M 200 -62 L 200 -62 Z M 314 -62 C 314 -86 311 -113 303 -143 C 295 -172 285 -200 274 -226 C 262 -252 250 -276 237 -296 C 224 -316 213 -329 204 -335 L 86 -283 C 93 -273 101 -260 109 -244 C 117 -228 124 -210 130 -190 C 136 -170 142 -148 146 -126 C 150 -104 153 -82 154 -62 L 314 -62 Z" unicode="Ș" />
<glyph horiz-adv-x="332" d="M 3 0 L 3 0 Z M 175 -7 C 137 -7 103 0 73 12 C 43 24 19 40 3 58 L 61 142 C 75 128 90 118 108 110 C 125 102 140 98 153 98 C 163 98 172 100 179 105 C 186 110 190 118 190 128 C 190 138 183 147 169 156 C 155 164 137 174 117 185 C 93 197 71 214 51 234 C 31 254 22 284 22 324 C 22 356 35 385 63 410 C 91 434 125 447 165 447 C 199 447 227 442 251 434 C 274 426 295 415 314 403 L 257 315 C 249 321 237 326 223 332 C 208 337 196 340 186 340 C 178 340 170 338 162 335 C 154 332 151 326 151 318 C 151 308 157 300 169 293 C 181 285 200 275 225 262 C 257 245 282 227 299 209 C 315 190 324 161 324 123 C 324 100 319 80 309 64 C 299 48 287 34 273 24 C 259 13 243 5 225 0 C 207 -4 191 -7 175 -7 Z M 151 -62 L 151 -62 Z M 265 -62 C 265 -86 262 -113 254 -143 C 246 -172 236 -200 225 -226 C 213 -252 201 -276 188 -296 C 175 -316 164 -329 155 -335 L 37 -283 C 44 -273 52 -260 60 -244 C 68 -228 75 -210 81 -190 C 87 -170 93 -148 97 -126 C 101 -104 104 -82 105 -62 L 265 -62 Z" unicode="ș" />
<glyph horiz-adv-x="401" d="M 4 0 L 4 0 Z M 397 586 L 287 586 L 287 0 L 117 0 L 117 586 L 4 586 L 4 730 L 397 730 L 397 586 Z M 183 -62 L 183 -62 Z M 297 -62 C 297 -86 294 -113 286 -143 C 278 -172 268 -200 257 -226 C 245 -252 233 -276 220 -296 C 207 -316 196 -329 187 -335 L 69 -283 C 76 -273 84 -260 92 -244 C 100 -228 107 -210 113 -190 C 119 -170 125 -148 129 -126 C 133 -104 136 -82 137 -62 L 297 -62 Z" unicode="Ț" />
<glyph horiz-adv-x="274" d="M 5 0 L 5 0 Z M 244 123 L 276 24 C 267 17 256 10 243 4 C 230 -2 213 -6 193 -6 C 181 -6 166 -4 149 0 C 131 4 114 11 98 22 C 82 32 68 47 57 66 C 45 85 40 109 40 139 L 40 315 L 5 315 L 5 436 L 44 436 L 44 588 L 189 592 L 189 436 L 247 436 L 247 315 L 193 315 L 193 147 C 193 135 195 127 200 122 C 204 117 210 115 218 115 C 222 115 227 115 232 117 C 236 119 240 121 244 123 Z M 131 -62 L 131 -62 Z M 245 -62 C 245 -86 242 -113 234 -143 C 226 -172 216 -200 205 -226 C 193 -252 181 -276 168 -296 C 155 -316 144 -329 135 -335 L 17 -283 C 24 -273 32 -260 40 -244 C 48 -228 55 -210 61 -190 C 67 -170 73 -148 77 -126 C 81 -104 84 -82 85 -62 L 245 -62 Z" unicode="ț" />
<glyph horiz-adv-x="203" d="M 182 436 L 182 -65 C 182 -101 169 -132 144 -160 C 119 -188 85 -202 43 -202 C 27 -202 10 -200 -7 -196 C -25 -192 -36 -189 -41 -187 L -17 -77 C -14 -77 -11 -78 -8 -78 C -5 -78 -1 -79 3 -79 C 9 -79 15 -76 20 -70 C 24 -64 27 -56 27 -46 L 27 436 L 182 436 Z" unicode="ȷ" />
<glyph horiz-adv-x="500" d="M 416 495 L 293 495 L 249 570 L 206 495 L 84 495 L 185 670 L 315 670 L 416 495 Z" unicode="ˆ" />
<glyph horiz-adv-x="500" d="M 84 670 L 208 670 L 251 596 L 295 670 L 416 670 L 315 495 L 185 495 L 84 670 Z" unicode="ˇ" />
<glyph horiz-adv-x="500" d="M 287 657 L 414 657 C 409 601 392 559 363 533 C 333 507 296 494 250 494 C 204 494 166 507 137 533 C 107 559 91 601 87 657 L 214 657 C 214 633 217 615 222 604 C 226 592 236 587 250 587 C 264 587 273 592 278 603 C 283 614 286 632 287 657 Z" unicode="˘" />
<glyph horiz-adv-x="500" d="M 321 505 L 180 505 L 180 651 L 321 651 L 321 505 Z" unicode="˙" />
<glyph horiz-adv-x="500" d="M 250 490 C 216 490 187 501 164 525 C 140 548 129 577 129 611 C 129 644 140 672 164 696 C 187 720 216 732 250 732 C 284 732 312 720 336 696 C 360 672 372 644 372 611 C 372 577 360 548 336 525 C 312 501 284 490 250 490 Z M 250 566 C 262 566 273 570 281 579 C 289 587 293 598 293 611 C 293 623 289 634 281 642 C 273 650 262 655 250 655 C 238 655 227 650 219 642 C 211 634 207 623 207 611 C 207 598 211 587 219 579 C 227 570 238 566 250 566 Z" unicode="˚" />
<glyph horiz-adv-x="500" d="M 359 -59 L 399 -124 C 376 -148 352 -166 327 -178 C 301 -190 273 -196 241 -196 C 205 -196 177 -188 157 -173 C 137 -157 127 -138 127 -116 C 127 -90 137 -66 158 -44 C 178 -21 208 -2 247 14 L 325 14 C 307 6 291 -3 278 -16 C 265 -29 259 -41 259 -52 C 259 -61 262 -68 269 -74 C 275 -79 284 -82 295 -82 C 308 -82 320 -79 331 -75 C 341 -71 351 -65 359 -59 Z" unicode="˛" />
<glyph horiz-adv-x="500" d="M 323 656 L 437 656 C 437 602 428 562 412 536 C 395 510 374 497 348 497 C 327 497 310 500 297 506 C 283 512 272 517 264 523 C 256 527 248 532 240 537 C 232 541 223 544 215 544 C 208 544 202 540 197 532 C 191 524 188 513 188 499 L 78 499 C 78 553 87 593 106 619 C 125 645 147 659 171 659 C 191 659 208 656 221 650 C 233 644 244 638 253 633 C 261 628 268 624 274 620 C 280 616 287 614 293 614 C 299 614 306 617 312 624 C 318 630 322 641 323 656 Z" unicode="˜" />
<glyph horiz-adv-x="500" d="M 53 495 L 124 665 L 289 665 L 189 495 L 53 495 Z M 269 495 L 341 665 L 506 665 L 405 495 L 269 495 Z" unicode="˝" />
<glyph horiz-adv-x="0" d="M 0 495 L 0 495 Z M 137 495 L -12 495 L -137 670 L 41 670 L 137 495 Z" unicode="̀" />
<glyph horiz-adv-x="0" d="M 0 495 L 0 495 Z M -137 495 L -41 670 L 138 670 L 13 495 L -137 495 Z" unicode="́" />
<glyph horiz-adv-x="0" d="M 0 495 L 0 495 Z M 166 495 L 43 495 L -1 570 L -44 495 L -166 495 L -65 670 L 65 670 L 166 495 Z" unicode="̂" />
<glyph horiz-adv-x="0" d="M 0 497 L 0 497 Z M 66 656 L 180 656 C 180 602 171 562 155 536 C 138 510 117 497 91 497 C 70 497 53 500 40 506 C 26 512 15 517 7 523 C -1 527 -9 532 -17 537 C -25 541 -33 544 -42 544 C -48 544 -54 540 -60 532 C -65 524 -68 513 -69 499 L -179 499 C -179 553 -169 593 -150 619 C -131 645 -110 659 -86 659 C -65 659 -48 656 -36 650 C -23 644 -12 638 -4 633 C 4 628 11 624 17 620 C 23 616 30 614 36 614 C 42 614 49 617 55 624 C 61 630 65 641 66 656 Z" unicode="̃" />
<glyph horiz-adv-x="0" d="M 0 505 L 0 505 Z M 138 505 L -138 505 L -138 620 L 138 620 L 138 505 Z" unicode="̄" />
<glyph horiz-adv-x="0" d="M 0 494 L 0 494 Z M 37 657 L 164 657 C 159 601 142 559 113 533 C 83 507 46 494 0 494 C -46 494 -83 507 -113 533 C -142 559 -159 601 -163 657 L -36 657 C -35 633 -32 615 -28 604 C -23 592 -14 587 0 587 C 14 587 23 592 28 603 C 33 614 36 632 37 657 Z" unicode="̆" />
<glyph horiz-adv-x="0" d="M 0 505 L 0 505 Z M 71 505 L -70 505 L -70 651 L 71 651 L 71 505 Z" unicode="̇" />
<glyph horiz-adv-x="0" d="M 0 495 L 0 495 Z M 149 495 L 24 495 L 24 659 L 149 659 L 149 495 Z M -24 495 L -149 495 L -149 659 L -24 659 L -24 495 Z" unicode="̈" />
<glyph horiz-adv-x="0" d="M 0 490 L 0 490 Z M 0 490 C -34 490 -62 501 -86 525 C -109 548 -121 577 -121 611 C -121 644 -109 672 -86 696 C -62 720 -34 732 0 732 C 34 732 62 720 86 696 C 110 672 122 644 122 611 C 122 577 110 548 86 525 C 62 501 34 490 0 490 Z M 0 566 C 12 566 23 570 31 579 C 39 587 43 598 43 611 C 43 623 39 634 31 642 C 23 650 12 655 0 655 C -12 655 -22 650 -30 642 C -38 634 -43 623 -43 611 C -43 598 -38 587 -30 579 C -22 570 -12 566 0 566 Z" unicode="̊" />
<glyph horiz-adv-x="0" d="M 0 495 L 0 495 Z M -226 495 L -155 665 L 10 665 L -90 495 L -226 495 Z M -10 495 L 62 665 L 227 665 L 126 495 L -10 495 Z" unicode="̋" />
<glyph horiz-adv-x="0" d="M 0 495 L 0 495 Z M -166 670 L -42 670 L 1 596 L 45 670 L 166 670 L 65 495 L -65 495 L -166 670 Z" unicode="̌" />
<glyph horiz-adv-x="0" d="M 0 -62 L 0 -62 Z M 114 -62 C 114 -86 111 -113 103 -143 C 95 -172 85 -200 74 -226 C 62 -252 50 -276 37 -296 C 24 -316 13 -329 4 -335 L -114 -283 C -106 -273 -99 -260 -91 -244 C -83 -228 -75 -210 -69 -190 C -63 -170 -57 -148 -53 -126 C -49 -104 -46 -82 -46 -62 L 114 -62 Z" unicode="̦" />
<glyph horiz-adv-x="0" d="M 0 0 L 0 0 Z M 2 -182 C -21 -182 -43 -179 -64 -173 C -85 -167 -102 -159 -116 -149 L -94 -95 C -87 -99 -77 -104 -65 -110 C -53 -116 -40 -119 -27 -119 C -19 -119 -12 -117 -6 -113 C 0 -109 3 -104 3 -98 C 3 -91 0 -86 -5 -83 C -10 -80 -16 -79 -22 -79 C -26 -79 -31 -79 -35 -80 C -39 -80 -43 -81 -47 -83 L -68 -62 L -6 14 L 70 14 L 26 -40 C 52 -37 74 -41 91 -53 C 107 -64 116 -80 116 -102 C 116 -126 104 -146 82 -160 C 60 -174 33 -182 2 -182 Z" unicode="̧" />
<glyph horiz-adv-x="0" d="M 0 0 L 0 0 Z M 96 -59 L 136 -124 C 113 -148 89 -166 64 -178 C 38 -190 10 -196 -22 -196 C -58 -196 -86 -188 -106 -173 C -126 -157 -136 -138 -136 -116 C -136 -90 -125 -66 -105 -44 C -84 -21 -54 -2 -16 14 L 62 14 C 44 6 28 -3 15 -16 C 2 -29 -4 -41 -4 -52 C -4 -61 0 -68 6 -74 C 12 -79 21 -82 32 -82 C 45 -82 57 -79 68 -75 C 78 -71 88 -65 96 -59 Z" unicode="̨" />
<glyph horiz-adv-x="563" d="M 0 0 L 0 0 Z M 609 0 L -3 0 L 284 730 L 323 730 L 609 0 Z M 410 117 L 299 440 L 189 117 L 410 117 Z" unicode="Δ" />
<glyph horiz-adv-x="724" d="M 16 0 L 16 0 Z M 25 0 L 25 144 L 223 144 L 223 179 C 194 185 167 197 142 213 C 116 229 94 248 76 272 C 57 296 42 323 32 354 C 21 384 16 418 16 454 C 16 494 24 532 40 568 C 56 604 79 636 110 663 C 140 689 178 710 223 726 C 268 742 320 750 378 750 C 437 750 490 742 536 726 C 582 710 621 689 653 662 C 684 635 708 604 724 568 C 740 532 749 494 749 454 C 749 382 732 322 698 274 C 664 226 611 194 541 179 L 541 144 L 739 144 L 739 0 L 428 0 L 428 263 C 477 273 514 295 539 329 C 563 362 576 400 576 444 C 576 469 570 492 560 514 C 550 535 536 553 518 568 C 500 583 480 595 456 603 C 432 611 407 616 380 616 C 353 616 328 611 305 603 C 282 595 262 583 245 568 C 228 552 215 534 205 513 C 195 491 190 468 190 442 C 190 400 201 363 225 331 C 248 299 285 276 337 263 L 337 0 L 25 0 Z" unicode="Ω" />
<glyph horiz-adv-x="578" d="M 49 0 L 49 0 Z M 49 -86 L 49 453 L 205 453 L 205 173 C 205 155 212 141 228 132 C 243 122 261 118 281 118 C 305 118 326 123 343 135 C 359 147 368 162 368 181 L 368 453 L 523 453 L 523 0 L 381 0 L 381 70 C 368 50 350 34 327 21 C 304 8 281 0 257 -2 C 243 -2 231 -1 219 2 C 207 6 198 11 192 19 L 192 -86 L 49 -86 Z" unicode="μ" />
<glyph horiz-adv-x="575" d="M 224 333 L 224 0 L 70 0 L 70 333 L 15 333 L 15 453 L 560 453 L 560 333 L 504 333 L 504 0 L 349 0 L 349 333 L 224 333 Z" unicode="π" />
<glyph horiz-adv-x="723" d="M 0 0 L 0 0 Z M 700 730 L 552 -3 L 439 -3 L 349 392 L 256 -3 L 142 -3 L -5 730 L 154 730 L 220 316 L 296 729 L 416 729 L 489 315 L 558 730 L 700 730 Z M 357 789 L 357 789 Z M 494 789 L 345 789 L 220 964 L 398 964 L 494 789 Z" unicode="Ẁ" />
<glyph horiz-adv-x="587" d="M 0 0 L 0 0 Z M 351 -3 L 293 194 L 236 -3 L 117 -3 L -6 436 L 142 436 L 201 205 L 248 398 L 347 398 L 398 205 L 460 436 L 592 436 L 468 -3 L 351 -3 Z M 297 495 L 297 495 Z M 434 495 L 285 495 L 160 670 L 338 670 L 434 495 Z" unicode="ẁ" />
<glyph horiz-adv-x="723" d="M 0 0 L 0 0 Z M 700 730 L 552 -3 L 439 -3 L 349 392 L 256 -3 L 142 -3 L -5 730 L 154 730 L 220 316 L 296 729 L 416 729 L 489 315 L 558 730 L 700 730 Z M 357 789 L 357 789 Z M 220 789 L 316 964 L 495 964 L 370 789 L 220 789 Z" unicode="Ẃ" />
<glyph horiz-adv-x="587" d="M 0 0 L 0 0 Z M 351 -3 L 293 194 L 236 -3 L 117 -3 L -6 436 L 142 436 L 201 205 L 248 398 L 347 398 L 398 205 L 460 436 L 592 436 L 468 -3 L 351 -3 Z M 297 495 L 297 495 Z M 160 495 L 256 670 L 435 670 L 310 495 L 160 495 Z" unicode="ẃ" />
<glyph horiz-adv-x="723" d="M 0 0 L 0 0 Z M 700 730 L 552 -3 L 439 -3 L 349 392 L 256 -3 L 142 -3 L -5 730 L 154 730 L 220 316 L 296 729 L 416 729 L 489 315 L 558 730 L 700 730 Z M 357 789 L 357 789 Z M 506 789 L 381 789 L 381 953 L 506 953 L 506 789 Z M 333 789 L 208 789 L 208 953 L 333 953 L 333 789 Z" unicode="Ẅ" />
<glyph horiz-adv-x="587" d="M 0 0 L 0 0 Z M 351 -3 L 293 194 L 236 -3 L 117 -3 L -6 436 L 142 436 L 201 205 L 248 398 L 347 398 L 398 205 L 460 436 L 592 436 L 468 -3 L 351 -3 Z M 297 495 L 297 495 Z M 446 495 L 321 495 L 321 659 L 446 659 L 446 495 Z M 273 495 L 148 495 L 148 659 L 273 659 L 273 495 Z" unicode="ẅ" />
<glyph horiz-adv-x="485" d="M 0 0 L 0 0 Z M 498 730 L 325 297 L 325 0 L 155 0 L 155 301 L -13 730 L 154 730 L 246 465 L 343 730 L 498 730 Z M 247 789 L 247 789 Z M 384 789 L 235 789 L 110 964 L 288 964 L 384 789 Z" unicode="Ỳ" />
<glyph horiz-adv-x="394" d="M 0 0 L 0 0 Z M 405 436 L 227 -98 C 215 -133 194 -159 164 -175 C 134 -191 100 -200 62 -200 C 48 -200 34 -198 21 -195 C 8 -191 -1 -187 -8 -183 L 26 -79 C 28 -80 33 -82 40 -84 C 46 -86 53 -88 60 -88 C 72 -88 81 -83 89 -74 C 97 -64 103 -50 108 -32 L 127 43 L -10 436 L 153 436 L 212 230 L 269 436 L 405 436 Z M 205 495 L 205 495 Z M 342 495 L 193 495 L 68 670 L 246 670 L 342 495 Z" unicode="ỳ" />
<glyph horiz-adv-x="460" d="M 424 183 L 37 183 L 37 318 L 424 318 L 424 183 Z" unicode="–" />
<glyph horiz-adv-x="645" d="M 609 183 L 37 183 L 37 318 L 609 318 L 609 183 Z" unicode="—" />
<glyph horiz-adv-x="288" d="M 33 507 L 33 514 C 33 554 40 592 55 629 C 70 666 93 702 124 737 L 272 731 C 263 721 254 709 244 695 C 234 680 225 663 217 645 C 209 627 202 607 196 585 C 190 563 188 539 188 515 L 188 507 L 33 507 Z" unicode="‘" />
<glyph horiz-adv-x="288" d="M 254 737 L 254 730 C 254 690 246 652 231 615 C 216 577 193 541 163 507 L 15 513 C 23 523 33 535 43 549 C 53 563 62 580 70 598 C 78 616 85 637 91 659 C 97 681 100 704 100 729 L 100 737 L 254 737 Z" unicode="’" />
<glyph horiz-adv-x="288" d="M 254 121 L 254 114 C 254 74 246 36 231 -1 C 216 -38 193 -74 163 -109 L 15 -103 C 23 -93 32 -81 42 -67 C 52 -52 61 -35 69 -17 C 77 0 84 21 90 43 C 96 65 99 88 99 113 L 99 121 L 254 121 Z" unicode="‚" />
<glyph horiz-adv-x="473" d="M 231 507 L 231 514 C 231 550 239 587 256 625 C 272 662 296 699 328 737 L 464 731 C 454 722 444 710 434 696 C 423 682 413 665 404 647 C 395 628 388 607 382 585 C 376 563 373 539 373 515 L 373 507 L 231 507 Z M 34 507 L 34 514 C 34 550 42 587 60 625 C 78 662 101 699 131 737 L 267 731 C 258 723 248 711 238 697 C 228 683 218 666 209 648 C 199 629 191 608 185 586 C 179 563 176 539 176 515 L 176 507 L 34 507 Z" unicode="“" />
<glyph horiz-adv-x="473" d="M 243 737 L 243 730 C 243 690 234 652 218 616 C 202 579 179 543 151 507 L 15 513 C 35 533 54 562 73 599 C 91 636 101 679 101 729 L 101 737 L 243 737 Z M 440 737 L 440 730 C 440 690 431 652 414 616 C 396 579 374 543 348 507 L 212 513 C 230 532 249 560 269 598 C 288 636 298 679 298 729 L 298 737 L 440 737 Z" unicode="”" />
<glyph horiz-adv-x="475" d="M 242 121 L 242 114 C 242 74 234 36 218 0 C 202 -37 179 -73 151 -109 L 15 -103 C 35 -83 54 -54 73 -17 C 91 20 101 63 101 113 L 101 121 L 242 121 Z M 441 121 L 441 114 C 441 74 432 36 415 0 C 398 -37 376 -73 350 -109 L 213 -103 C 231 -83 250 -55 270 -17 C 289 20 299 63 299 113 L 299 121 L 441 121 Z" unicode="„" />
<glyph horiz-adv-x="454" d="M 438 336 L 306 336 L 306 -179 L 143 -179 L 143 336 L 16 336 L 16 470 L 143 470 L 143 730 L 306 730 L 306 470 L 438 470 L 438 336 Z" unicode="†" />
<glyph horiz-adv-x="469" d="M 150 -179 L 150 70 L 32 70 L 32 203 L 150 203 L 150 358 L 32 358 L 32 491 L 150 491 L 150 730 L 314 730 L 314 491 L 438 491 L 438 358 L 314 358 L 314 203 L 438 203 L 438 70 L 314 70 L 314 -179 L 150 -179 Z" unicode="‡" />
<glyph horiz-adv-x="382" d="M 191 519 C 230 519 263 505 290 478 C 317 451 331 418 331 379 C 331 340 317 307 290 280 C 263 253 230 240 191 240 C 151 240 118 253 91 280 C 64 307 51 340 51 379 C 51 418 64 451 91 478 C 118 505 151 519 191 519 Z" unicode="•" />
<glyph horiz-adv-x="765" d="M 49 0 L 49 160 L 206 160 L 206 0 L 49 0 Z M 304 0 L 304 160 L 461 160 L 461 0 L 304 0 Z M 559 0 L 559 160 L 716 160 L 716 0 L 559 0 Z" unicode="…" />
<glyph horiz-adv-x="1033" d="M 173 361 C 155 361 137 364 119 372 C 101 380 85 391 71 407 C 57 423 45 442 37 466 C 28 490 24 517 24 549 C 24 602 38 647 66 683 C 94 719 128 738 168 738 C 190 738 211 733 230 723 C 249 713 265 699 279 683 C 293 666 303 646 311 624 C 319 601 323 577 323 552 C 323 525 319 500 311 477 C 303 453 292 433 278 416 C 264 398 248 385 230 375 C 212 365 193 361 173 361 Z M 104 0 L 496 730 L 577 730 L 185 0 L 104 0 Z M 142 550 C 142 529 143 510 146 494 C 149 477 158 469 173 469 C 187 469 196 477 199 493 C 202 509 204 528 204 550 C 204 572 202 591 199 607 C 196 623 188 631 174 631 C 159 631 150 622 147 606 C 143 590 142 571 142 550 Z M 524 -4 C 506 -4 487 0 469 7 C 451 15 434 26 420 42 C 406 58 394 77 385 101 C 376 125 372 152 372 184 C 372 237 386 282 416 318 C 445 354 482 373 527 373 C 550 373 571 368 590 358 C 608 348 624 334 638 318 C 651 301 661 281 668 259 C 675 236 679 212 679 187 C 679 160 675 135 667 112 C 659 88 649 68 635 51 C 621 33 605 20 586 10 C 567 0 546 -4 524 -4 Z M 855 -4 C 837 -4 818 0 800 7 C 782 15 765 26 751 42 C 737 58 725 77 716 101 C 707 125 703 152 703 184 C 703 237 717 282 747 318 C 776 354 813 373 858 373 C 880 373 901 368 920 358 C 939 348 955 334 968 318 C 981 301 991 281 999 259 C 1006 236 1010 212 1010 187 C 1010 160 1006 135 998 112 C 990 88 980 68 966 51 C 952 33 936 20 917 10 C 898 0 877 -4 855 -4 Z M 524 104 C 538 104 548 111 553 126 C 557 141 560 160 560 184 C 560 208 557 227 553 243 C 548 258 539 266 525 266 C 514 266 506 258 500 243 C 494 227 491 208 491 184 C 491 160 493 141 498 126 C 502 111 511 104 524 104 Z M 855 104 C 869 104 879 111 884 126 C 888 141 891 160 891 184 C 891 208 888 227 884 243 C 879 258 870 266 856 266 C 844 266 836 258 830 243 C 824 227 822 208 822 184 C 822 160 824 141 829 126 C 833 111 842 104 855 104 Z" unicode="‰" />
<glyph horiz-adv-x="264" d="M 237 43 L 24 218 L 24 307 L 237 479 L 237 328 L 159 259 L 237 197 L 237 43 Z" unicode="‹" />
<glyph horiz-adv-x="265" d="M 27 479 L 242 304 L 242 215 L 27 43 L 27 193 L 105 263 L 27 324 L 27 479 Z" unicode="›" />
<glyph horiz-adv-x="145" d="M 313 730 L -27 0 L -145 0 L 195 730 L 313 730 Z" unicode="⁄" />
<glyph horiz-adv-x="334" d="M 12 453 L 12 525 L 190 734 L 268 734 L 268 530 L 319 530 L 319 453 L 268 453 L 268 373 L 162 373 L 162 453 L 12 453 Z M 106 525 L 165 525 L 165 597 L 106 525 Z" unicode="⁴" />
<glyph horiz-adv-x="489" d="M 479 111 C 463 73 437 43 403 21 C 368 0 330 -12 290 -12 C 233 -12 186 11 149 58 C 111 104 87 168 76 250 L 21 250 L 21 343 L 69 343 C 69 345 69 348 69 351 C 69 353 69 356 69 359 C 69 363 69 367 69 371 C 69 375 69 378 69 382 L 21 382 L 21 475 L 76 475 C 81 514 89 550 101 583 C 112 615 126 643 144 667 C 162 691 183 709 207 722 C 231 735 258 742 289 742 C 345 742 387 729 417 704 C 446 679 466 652 477 622 L 369 553 C 361 567 352 580 342 592 C 332 604 316 610 295 610 C 277 610 261 599 248 579 C 235 558 226 523 221 475 L 440 475 L 440 382 L 216 382 C 216 379 216 376 216 373 C 216 369 216 366 216 363 C 216 359 216 356 216 352 C 216 348 216 345 216 343 L 440 343 L 440 250 L 222 250 C 228 200 238 165 252 146 C 266 127 282 118 301 118 C 321 118 336 125 348 139 C 359 153 368 170 375 189 L 479 111 Z" unicode="€" />
<glyph horiz-adv-x="985" d="M 944 302 L 802 302 L 802 503 L 686 341 L 668 340 L 553 501 L 553 302 L 417 302 L 417 730 L 530 730 L 677 529 L 824 730 L 944 730 L 944 302 Z M 388 571 L 278 571 L 278 302 L 120 302 L 120 571 L 10 571 L 10 730 L 388 730 L 388 571 Z" unicode="™" />
<glyph horiz-adv-x="765" d="M 25 0 L 25 144 L 223 144 L 223 179 C 194 185 167 197 142 213 C 116 229 94 248 76 272 C 57 296 42 323 32 354 C 21 384 16 418 16 454 C 16 494 24 532 40 568 C 56 604 79 636 110 663 C 140 689 178 710 223 726 C 268 742 320 750 378 750 C 437 750 490 742 536 726 C 582 710 621 689 653 662 C 684 635 708 604 724 568 C 740 532 749 494 749 454 C 749 382 732 322 698 274 C 664 226 611 194 541 179 L 541 144 L 739 144 L 739 0 L 428 0 L 428 263 C 477 273 514 295 539 329 C 563 362 576 400 576 444 C 576 469 570 492 560 514 C 550 535 536 553 518 568 C 500 583 480 595 456 603 C 432 611 407 616 380 616 C 353 616 328 611 305 603 C 282 595 262 583 245 568 C 228 552 215 534 205 513 C 195 491 190 468 190 442 C 190 400 201 363 225 331 C 248 299 285 276 337 263 L 337 0 L 25 0 Z" unicode="Ω" />
<glyph horiz-adv-x="533" d="M 491 300 C 491 241 484 192 471 152 C 458 112 441 80 420 56 C 398 32 374 15 346 5 C 318 -5 288 -10 258 -10 C 230 -10 202 -5 174 4 C 146 13 122 27 100 46 C 78 64 60 88 46 116 C 32 144 26 178 26 216 C 26 250 31 282 43 311 C 55 340 70 365 89 385 C 108 405 130 420 156 432 C 182 443 208 449 236 449 C 266 449 291 443 312 433 C 333 423 350 409 364 393 C 356 443 345 488 329 528 C 313 567 294 600 272 626 C 250 652 225 673 199 687 C 172 701 144 710 116 712 L 183 801 C 213 801 246 791 282 772 C 318 753 351 723 382 683 C 412 643 438 591 459 527 C 480 463 491 388 491 300 Z M 256 101 C 280 101 299 110 311 130 C 323 150 329 182 329 226 C 329 263 323 290 312 308 C 301 326 283 335 259 335 C 236 335 219 325 207 307 C 195 289 189 259 189 217 C 189 173 194 143 205 126 C 215 109 232 101 256 101 Z" unicode="∂" />
<glyph horiz-adv-x="601" d="M 609 0 L -3 0 L 284 730 L 323 730 L 609 0 Z M 410 117 L 299 440 L 189 117 L 410 117 Z" unicode="∆" />
<glyph horiz-adv-x="676" d="M 264 590 L 264 0 L 102 0 L 102 590 L 15 590 L 15 730 L 661 730 L 661 590 L 583 590 L 583 0 L 421 0 L 421 590 L 264 590 Z" unicode="∏" />
<glyph horiz-adv-x="582" d="M 254 590 L 446 307 L 220 -39 L 540 -39 L 540 -179 L -37 -179 L 290 306 L -8 730 L 519 730 L 519 590 L 254 590 Z" unicode="∑" />
<glyph horiz-adv-x="524" d="M 487 269 L 37 269 L 37 393 L 487 393 L 487 269 Z" unicode="−" />
<glyph horiz-adv-x="510" d="M 515 730 L 198 0 L 186 0 L 8 338 L 115 426 L 211 223 L 419 730 L 515 730 Z" unicode="√" />
<glyph horiz-adv-x="365" d="M 94 16 L 146 610 C 148 632 153 652 163 670 C 173 687 185 701 199 712 C 213 723 228 731 245 737 C 261 743 278 746 294 746 C 310 746 328 745 346 744 C 364 743 374 742 378 742 L 367 609 C 365 609 361 610 355 611 C 349 611 343 612 337 612 C 318 612 303 605 292 593 C 281 580 275 560 273 534 L 224 -42 C 222 -58 218 -74 211 -90 C 204 -106 195 -121 183 -135 C 171 -148 157 -159 141 -167 C 124 -175 105 -179 84 -179 C 59 -179 36 -176 15 -172 C -6 -167 -22 -161 -34 -155 L -18 -45 C -14 -45 -7 -47 2 -50 C 12 -52 21 -54 30 -54 C 47 -54 61 -48 73 -36 C 84 -24 91 -6 94 16 Z" unicode="∫" />
<glyph horiz-adv-x="448" d="M 319 521 L 437 521 C 436 497 433 474 428 452 C 423 430 416 410 407 394 C 398 378 387 365 374 355 C 360 345 345 340 327 340 C 304 340 284 343 268 349 C 252 355 238 363 228 372 C 218 380 208 386 199 392 C 189 398 179 401 168 401 C 158 401 150 394 142 381 C 134 368 130 355 130 343 L 19 343 C 19 395 28 438 46 472 C 64 505 91 522 129 522 C 150 522 169 517 185 508 C 201 499 215 491 226 485 C 236 478 246 472 256 468 C 265 463 274 461 283 461 C 297 461 307 467 312 479 C 316 491 319 505 319 521 Z M 320 325 L 437 325 C 436 301 433 278 428 256 C 423 234 416 214 407 198 C 398 182 387 169 373 159 C 359 149 343 144 325 144 C 301 144 281 147 265 153 C 249 159 235 167 225 175 C 215 183 205 189 197 195 C 188 200 178 203 168 203 C 158 203 150 196 142 184 C 134 172 131 159 131 147 L 19 147 C 19 199 28 242 46 276 C 64 310 93 327 132 327 C 154 327 174 322 191 313 C 208 303 222 295 232 289 C 242 282 252 276 261 271 C 269 266 278 264 286 264 C 299 264 308 270 313 282 C 317 294 320 308 320 325 Z" unicode="≈" />
<glyph horiz-adv-x="500" d="M 457 148 L 235 148 L 188 42 L 99 79 L 129 148 L 65 148 L 65 280 L 187 280 L 229 375 L 65 375 L 65 506 L 287 506 L 341 630 L 430 592 L 392 506 L 457 506 L 457 375 L 335 375 L 293 280 L 457 280 L 457 148 Z" unicode="≠" />
<glyph horiz-adv-x="500" d="M 216 326 L 433 212 L 433 5 L 61 5 L 61 111 L 368 111 L 62 276 L 62 371 L 433 575 L 433 439 L 216 326 Z" unicode="≤" />
<glyph horiz-adv-x="500" d="M 433 5 L 61 5 L 61 212 L 278 326 L 61 439 L 61 575 L 432 371 L 432 276 L 126 111 L 433 111 L 433 5 Z" unicode="≥" />
<glyph horiz-adv-x="559" d="M 533 325 L 285 -40 L 274 -40 L 26 325 L 26 337 L 274 702 L 285 702 L 533 337 L 533 325 Z M 390 327 L 390 335 L 284 495 L 276 495 L 170 335 L 170 327 L 276 167 L 284 167 L 390 327 Z" unicode="◊" />
<glyph horiz-adv-x="730" d="M 448 645 L 282 645 L 282 730 L 448 730 L 448 645 Z M 461 269 L 269 269 L 269 461 L 461 461 L 461 269 Z M 659 282 L 572 282 L 572 448 L 659 448 L 659 282 Z M 158 282 L 71 282 L 71 448 L 158 448 L 158 282 Z M 448 0 L 282 0 L 282 86 L 448 86 L 448 0 Z" unicode="" />
<glyph horiz-adv-x="467" d="M 254 315 L 202 315 L 202 0 L 47 0 L 47 315 L 7 315 L 7 436 L 47 436 L 47 600 C 47 623 51 645 61 665 C 71 685 83 703 98 717 C 113 731 130 743 149 751 C 167 759 186 764 205 764 C 228 764 249 761 269 756 C 288 751 301 746 309 740 L 270 631 C 267 632 262 634 255 636 C 248 638 242 639 236 639 C 224 639 214 633 208 622 C 202 611 199 594 199 572 L 199 436 L 254 436 L 254 315 Z M 440 0 L 284 0 L 284 436 L 440 436 L 440 0 Z" unicode="ﬁ" />
<glyph horiz-adv-x="466" d="M 202 315 L 202 0 L 47 0 L 47 315 L 7 315 L 7 436 L 47 436 L 47 606 C 47 629 51 651 61 671 C 71 691 83 709 98 724 C 113 738 130 750 149 758 C 167 766 186 771 205 771 C 220 771 235 769 249 767 C 263 765 276 762 286 758 L 286 763 L 441 763 L 441 0 L 286 0 L 286 629 C 281 633 275 637 267 641 C 259 644 251 646 241 646 C 229 646 219 640 211 629 C 203 618 199 601 199 579 L 199 436 L 254 436 L 254 315 L 202 315 Z" unicode="ﬂ" />
</font>
</defs>
</svg>
