<?xml version="1.0" encoding="utf-8" ?><svg version="1.1" xmlns = 'http://www.w3.org/2000/svg'><defs><font id='web' horiz-adv-x="1000">
<font-face font-family="web" descent="-200" cap-height="730" units-per-em="1000" bbox="-157,-312,970,1013" x-height="436" ascent="800" />
<missing-glyph horiz-adv-x="500" d="" /><glyph horiz-adv-x="186" d="" unicode=" " />
<glyph horiz-adv-x="259" d="M 172 431 L 148 194 L 113 194 L 89 431 L 89 730 L 172 730 L 172 431 Z M 169 0 L 93 0 L 93 93 L 169 93 L 169 0 Z" unicode="!" />
<glyph horiz-adv-x="342" d="M 285 624 L 280 493 L 221 493 L 217 623 L 217 730 L 285 730 L 285 624 Z M 125 623 L 121 493 L 61 493 L 57 623 L 57 730 L 125 730 L 125 623 Z" unicode="&#x22;" />
<glyph horiz-adv-x="565" d="M 516 230 L 393 230 L 373 0 L 325 1 L 345 230 L 198 230 L 178 0 L 130 1 L 150 230 L 30 230 L 30 294 L 156 294 L 168 432 L 49 432 L 49 497 L 174 497 L 194 730 L 242 729 L 222 497 L 369 497 L 389 730 L 437 729 L 417 497 L 535 497 L 535 432 L 411 432 L 399 294 L 516 294 L 516 230 Z M 204 294 L 351 294 L 363 432 L 216 432 L 204 294 Z" unicode="#" />
<glyph horiz-adv-x="470" d="M 433 184 C 433 132 416 89 383 57 C 350 24 310 5 262 0 L 262 -124 L 211 -124 L 211 0 C 173 2 138 11 107 26 C 76 40 50 61 28 87 L 64 140 C 81 118 103 100 130 88 C 157 75 184 67 211 65 L 211 350 C 155 378 113 408 87 439 C 60 469 47 510 47 560 C 47 606 62 645 93 677 C 123 708 163 726 211 730 L 211 791 L 262 791 L 262 730 C 292 727 320 720 346 708 C 371 696 394 680 415 660 L 374 609 C 358 625 341 638 321 647 C 301 656 282 662 262 665 L 262 403 L 265 401 C 328 368 372 336 396 304 C 420 272 433 232 433 184 Z M 118 558 C 118 530 124 507 137 489 C 150 470 175 450 211 430 L 211 665 C 184 661 162 649 144 631 C 126 612 118 588 118 558 Z M 363 186 C 363 214 356 238 342 258 C 328 278 301 300 262 323 L 262 67 C 288 72 312 84 332 104 C 352 124 363 151 363 186 Z" unicode="$" />
<glyph horiz-adv-x="698" d="M 177 364 C 160 364 143 367 127 375 C 111 383 96 394 83 410 C 70 426 60 445 52 469 C 44 493 40 520 40 552 C 40 578 43 602 50 625 C 57 648 67 668 79 685 C 91 702 105 716 122 726 C 139 736 157 741 177 741 C 198 741 217 736 234 726 C 251 716 266 702 278 686 C 290 669 299 649 306 627 C 312 604 316 580 316 555 C 316 528 312 503 305 480 C 298 456 288 436 276 419 C 264 401 249 388 232 378 C 215 368 197 364 177 364 Z M 158 0 L 102 0 L 525 730 L 580 730 L 158 0 Z M 176 421 C 202 421 221 434 233 460 C 245 486 251 517 251 551 C 251 567 249 583 247 599 C 244 615 240 629 234 641 C 228 653 220 663 211 671 C 202 679 191 683 179 683 C 166 683 155 679 146 672 C 136 664 129 654 123 642 C 117 630 113 616 110 600 C 107 584 106 567 106 551 C 106 517 111 486 123 460 C 135 434 152 421 176 421 Z M 518 -3 C 501 -3 484 0 468 8 C 452 16 437 27 424 43 C 411 59 401 78 393 102 C 385 126 381 153 381 185 C 381 211 384 236 391 259 C 397 282 407 302 419 319 C 431 336 446 349 463 359 C 480 369 499 374 520 374 C 541 374 560 369 578 359 C 595 349 609 335 621 319 C 633 302 642 282 648 260 C 654 237 658 213 658 188 C 658 161 654 136 648 113 C 641 89 631 69 619 52 C 607 34 592 21 575 11 C 557 1 538 -3 518 -3 Z M 518 56 C 544 56 563 69 575 95 C 587 121 593 151 593 185 C 593 201 591 218 588 234 C 585 250 581 264 575 276 C 569 288 562 298 553 306 C 543 313 532 317 520 317 C 496 317 477 303 465 277 C 453 250 447 219 447 185 C 447 149 453 119 465 94 C 477 68 494 56 518 56 Z" unicode="%" />
<glyph horiz-adv-x="629" d="M 563 -6 L 486 80 C 453 51 418 29 380 14 C 342 0 302 -8 258 -8 C 190 -8 135 8 93 40 C 50 72 29 119 29 179 C 29 208 33 234 42 256 C 51 278 63 298 78 315 C 93 332 111 348 131 362 C 151 376 172 389 195 403 L 174 426 C 158 444 141 466 125 493 C 109 520 101 552 101 588 C 101 607 104 626 112 644 C 120 662 131 677 145 691 C 159 705 177 716 198 724 C 218 732 241 737 267 737 C 318 737 359 722 390 694 C 420 665 436 631 436 592 C 436 550 423 513 398 483 C 372 453 338 423 295 395 L 491 182 C 501 195 512 209 523 225 C 534 241 545 257 556 275 L 611 236 C 599 216 586 198 574 180 C 562 162 549 146 537 132 L 616 46 L 563 -6 Z M 230 465 L 255 438 C 291 461 318 484 337 506 C 355 528 365 553 365 579 C 365 605 356 627 340 647 C 323 666 299 676 269 676 C 239 676 216 666 200 646 C 184 626 176 605 176 583 C 176 563 180 542 190 522 C 200 501 213 482 230 465 Z M 111 182 C 111 142 126 111 157 89 C 187 67 224 56 266 56 C 299 56 330 62 359 75 C 388 87 416 105 442 129 L 236 357 C 200 334 170 309 146 282 C 122 255 111 222 111 182 Z" unicode="&#x26;" />
<glyph horiz-adv-x="183" d="M 126 622 L 122 490 L 60 490 L 56 622 L 56 730 L 126 730 L 126 622 Z" unicode="'" />
<glyph horiz-adv-x="294" d="M 275 -121 L 275 -179 C 241 -161 209 -136 179 -106 C 149 -75 122 -39 99 0 C 76 40 58 85 44 135 C 30 185 24 237 24 293 C 24 346 30 396 43 444 C 56 492 74 535 96 574 C 118 613 145 648 176 678 C 206 708 239 731 275 749 L 275 692 C 222 658 180 606 149 536 C 118 466 102 385 102 293 C 102 250 105 208 112 167 C 119 126 130 88 144 53 C 158 17 176 -15 198 -45 C 220 -75 245 -100 275 -121 Z" unicode="(" />
<glyph horiz-adv-x="294" d="M 19 693 L 19 749 C 52 733 84 710 114 682 C 144 653 171 619 194 579 C 217 539 235 494 249 444 C 263 394 270 340 270 282 C 270 228 263 178 250 130 C 236 82 218 38 195 -1 C 172 -40 145 -75 115 -105 C 85 -135 53 -160 19 -179 L 19 -119 C 46 -99 71 -75 93 -47 C 115 -19 133 12 149 46 C 164 80 176 118 184 158 C 192 198 196 239 196 282 C 196 377 180 461 148 533 C 116 605 73 658 19 693 Z" unicode=")" />
<glyph horiz-adv-x="387" d="M 354 597 L 224 558 L 312 457 L 274 425 L 195 537 L 117 426 L 76 455 L 166 558 L 37 597 L 60 647 L 177 593 L 169 730 L 221 730 L 213 593 L 334 642 L 354 597 Z" unicode="*" />
<glyph horiz-adv-x="489" d="M 460 302 L 275 302 L 275 123 L 215 123 L 215 302 L 30 302 L 30 360 L 215 360 L 215 539 L 275 539 L 275 360 L 460 360 L 460 302 Z" unicode="+" />
<glyph horiz-adv-x="204" d="M 168 95 C 165 52 154 8 134 -36 C 114 -80 91 -117 67 -145 L 11 -119 C 25 -100 40 -70 58 -30 C 75 9 86 51 90 95 L 168 95 Z" unicode="," />
<glyph horiz-adv-x="319" d="M 279 229 L 40 229 L 40 296 L 279 296 L 279 229 Z" unicode="-" />
<glyph horiz-adv-x="205" d="M 142 0 L 64 0 L 64 115 L 142 115 L 142 0 Z" unicode="." />
<glyph horiz-adv-x="303" d="M 298 730 L 75 0 L 5 0 L 230 730 L 298 730 Z" unicode="/" />
<glyph horiz-adv-x="483" d="M 239 -9 C 179 -9 130 20 92 79 C 54 138 35 232 35 361 C 35 417 39 468 47 515 C 55 561 68 601 85 634 C 102 667 124 693 150 712 C 176 730 207 740 243 740 C 279 740 311 730 337 712 C 363 694 384 668 400 636 C 416 604 428 565 436 520 C 444 474 448 425 448 371 C 448 252 430 159 395 92 C 360 24 308 -9 239 -9 Z M 239 56 C 285 56 318 82 340 134 C 362 186 373 262 373 362 C 373 458 363 533 344 589 C 324 645 290 673 242 673 C 195 673 161 646 141 592 C 120 538 110 462 110 363 C 110 258 121 181 144 131 C 166 81 198 56 239 56 Z" unicode="0" />
<glyph horiz-adv-x="312" d="M 236 0 L 160 0 L 160 617 C 149 596 131 576 106 558 C 81 539 58 528 36 526 L 36 605 C 60 607 85 622 113 648 C 140 674 161 702 175 732 L 236 732 L 236 0 Z" unicode="1" />
<glyph horiz-adv-x="465" d="M 431 0 L 27 0 L 27 24 L 280 361 C 300 387 317 417 331 449 C 345 481 352 515 352 553 C 352 589 340 618 317 639 C 293 660 263 671 227 671 C 183 671 150 656 130 627 C 109 597 99 560 99 514 L 32 514 C 32 590 50 646 86 683 C 122 720 169 739 229 739 C 256 739 282 735 306 727 C 330 719 350 708 368 693 C 385 678 399 659 409 637 C 419 614 424 587 424 557 C 424 503 415 459 399 425 C 382 391 363 360 343 334 L 141 66 L 431 66 L 431 0 Z" unicode="2" />
<glyph horiz-adv-x="461" d="M 215 -9 C 163 -9 120 0 88 17 C 55 34 29 53 11 75 L 50 128 C 65 110 85 94 109 79 C 133 64 165 57 205 57 C 231 57 255 61 275 70 C 295 79 312 91 326 107 C 339 122 349 140 356 160 C 362 180 366 200 366 222 C 366 245 361 266 353 284 C 345 302 334 317 320 329 C 306 341 290 350 272 356 C 254 362 235 365 216 365 L 124 365 L 124 431 L 213 431 C 249 431 280 442 306 466 C 331 489 344 520 344 558 C 344 589 333 616 313 638 C 293 660 264 672 227 672 C 191 672 161 664 137 649 C 113 633 94 613 78 588 L 30 634 C 46 662 71 687 104 708 C 136 729 179 740 231 740 C 287 740 332 724 364 694 C 396 664 413 623 413 571 C 413 546 409 524 402 505 C 395 485 386 469 375 455 C 363 441 351 429 337 420 C 323 411 310 405 297 401 C 314 397 331 390 348 380 C 365 370 380 358 393 343 C 406 327 417 309 425 289 C 433 268 437 245 437 219 C 437 191 432 163 424 136 C 416 108 403 84 385 63 C 367 41 344 24 316 11 C 288 -2 254 -9 215 -9 Z" unicode="3" />
<glyph horiz-adv-x="469" d="M 462 207 L 368 207 L 368 0 L 301 0 L 301 207 L 8 207 L 7 257 L 321 740 L 368 740 L 368 271 L 462 271 L 462 207 Z M 302 271 L 302 599 L 88 271 L 302 271 Z" unicode="4" />
<glyph horiz-adv-x="456" d="M 221 -9 C 176 -9 135 0 98 16 C 61 32 33 53 15 78 L 59 129 C 74 107 95 90 122 76 C 149 62 180 56 216 56 C 260 56 296 73 322 107 C 348 141 362 186 362 243 C 362 295 349 335 324 365 C 299 394 268 409 230 409 C 194 409 165 401 144 386 C 122 370 106 350 94 325 L 43 337 L 70 730 L 396 730 L 396 662 L 127 662 L 110 402 C 120 420 136 437 160 452 C 183 467 214 475 253 475 C 306 475 350 455 384 417 C 418 379 436 323 436 250 C 436 208 430 172 420 140 C 409 108 394 81 375 59 C 355 37 332 20 306 8 C 280 -3 251 -9 221 -9 Z" unicode="5" />
<glyph horiz-adv-x="455" d="M 237 -10 C 176 -10 126 10 88 51 C 49 92 30 149 30 223 C 30 299 47 373 82 445 C 117 517 167 593 231 675 L 285 745 L 341 708 L 303 660 C 247 590 204 529 174 477 C 144 424 125 381 117 348 C 127 369 143 388 166 404 C 188 420 217 428 252 428 C 306 428 350 407 384 367 C 418 326 435 274 435 210 C 435 179 430 150 420 123 C 410 96 397 73 380 53 C 362 33 341 18 317 7 C 293 -4 266 -10 237 -10 Z M 238 54 C 276 54 306 68 329 97 C 352 125 364 162 364 208 C 364 256 353 294 331 322 C 309 350 278 365 238 365 C 202 365 171 351 145 325 C 119 299 106 262 106 214 C 106 162 118 123 143 95 C 167 67 199 54 238 54 Z" unicode="6" />
<glyph horiz-adv-x="395" d="M 397 730 L 398 699 L 104 -4 L 39 23 L 308 662 L 11 662 L 11 730 L 397 730 Z" unicode="7" />
<glyph horiz-adv-x="479" d="M 317 388 C 333 384 349 378 365 369 C 381 359 396 347 409 332 C 422 316 433 298 442 276 C 450 254 455 229 455 201 C 455 138 435 87 397 49 C 358 10 306 -9 240 -9 C 174 -9 122 9 84 47 C 46 84 27 134 27 196 C 27 226 31 252 41 275 C 50 298 61 317 75 333 C 89 349 104 361 120 370 C 136 379 152 385 166 387 C 152 390 138 396 124 404 C 110 412 97 422 85 436 C 73 450 64 466 56 486 C 48 506 45 529 45 556 C 45 584 50 610 60 633 C 70 655 84 674 102 690 C 120 706 140 718 164 726 C 188 734 213 739 240 739 C 298 739 345 722 381 689 C 417 656 435 614 435 562 C 435 536 431 514 424 494 C 417 474 408 456 397 442 C 385 428 373 416 359 407 C 345 398 331 392 317 388 Z M 241 417 C 277 417 307 428 331 451 C 354 474 366 506 366 546 C 366 586 354 618 330 640 C 306 662 277 674 241 674 C 205 674 174 662 150 640 C 125 618 113 587 113 547 C 113 525 116 505 124 489 C 131 473 140 459 152 449 C 164 438 177 430 193 425 C 209 419 225 417 241 417 Z M 241 55 C 283 55 317 68 343 94 C 369 120 382 159 382 209 C 382 256 368 292 340 317 C 312 341 279 354 241 354 C 201 354 167 341 139 317 C 111 292 98 255 98 205 C 98 157 111 120 139 94 C 166 68 200 55 241 55 Z" unicode="8" />
<glyph horiz-adv-x="455" d="M 180 -12 L 125 29 L 165 73 C 185 96 205 122 225 151 C 245 180 263 209 280 239 C 296 268 310 296 322 324 C 334 352 342 375 346 395 C 334 370 315 348 288 330 C 260 311 230 302 198 302 C 170 302 146 307 124 319 C 102 330 83 345 68 365 C 52 385 40 408 32 435 C 24 461 20 490 20 522 C 20 553 25 582 35 609 C 45 635 58 658 76 678 C 94 697 115 712 140 723 C 165 734 192 740 222 740 C 250 740 276 735 301 725 C 325 715 347 700 365 680 C 383 660 398 636 409 606 C 419 576 425 542 425 504 C 425 462 419 421 408 379 C 397 337 383 296 365 258 C 347 220 327 183 305 149 C 283 115 260 84 238 58 L 180 -12 Z M 216 366 C 232 366 249 369 265 376 C 281 382 296 392 308 405 C 320 417 330 433 338 452 C 346 471 350 493 350 517 C 350 569 337 608 312 634 C 286 660 256 674 221 674 C 181 674 149 660 127 632 C 104 604 93 568 93 524 C 93 476 103 437 124 409 C 145 380 176 366 216 366 Z" unicode="9" />
<glyph horiz-adv-x="208" d="M 142 324 L 66 324 L 66 436 L 142 436 L 142 324 Z M 142 0 L 66 0 L 66 113 L 142 113 L 142 0 Z" unicode=":" />
<glyph horiz-adv-x="208" d="M 149 324 L 71 324 L 71 436 L 149 436 L 149 324 Z M 152 93 C 148 47 136 3 118 -39 C 100 -81 78 -117 54 -145 L -2 -119 C 12 -100 29 -71 47 -31 C 65 8 75 49 77 93 L 152 93 Z" unicode=";" />
<glyph horiz-adv-x="361" d="M 318 98 L 38 301 L 38 348 L 318 550 L 318 478 L 112 325 L 318 171 L 318 98 Z" unicode="&#x3C;" />
<glyph horiz-adv-x="497" d="M 440 392 L 57 392 L 57 456 L 440 456 L 440 392 Z M 440 182 L 57 182 L 57 247 L 440 247 L 440 182 Z" unicode="=" />
<glyph horiz-adv-x="361" d="M 322 301 L 42 98 L 42 171 L 247 325 L 42 478 L 42 550 L 322 348 L 322 301 Z" unicode="&#x3E;" />
<glyph horiz-adv-x="433" d="M 164 194 C 164 238 169 275 180 305 C 191 335 209 363 233 391 C 242 401 252 412 263 424 C 274 436 284 448 294 462 C 303 476 311 491 317 507 C 323 523 326 542 326 562 C 326 597 314 625 291 645 C 268 665 240 676 206 676 C 176 676 150 668 127 653 C 104 638 85 619 69 597 L 22 641 C 46 674 76 699 111 716 C 145 733 182 742 220 742 C 276 742 321 726 355 696 C 388 665 405 623 405 570 C 405 544 401 521 394 501 C 386 481 377 462 366 445 C 354 427 342 411 329 397 C 315 382 302 368 290 354 C 268 333 254 308 248 278 C 241 248 237 220 237 194 L 164 194 Z M 161 0 L 161 96 L 243 96 L 243 0 L 161 0 Z" unicode="?" />
<glyph horiz-adv-x="836" d="M 413 -33 C 359 -33 309 -23 263 -3 C 217 17 178 44 145 78 C 111 112 85 152 67 198 C 48 244 39 294 39 346 C 39 398 48 447 67 493 C 86 539 112 580 146 614 C 179 648 219 674 266 694 C 312 714 363 724 417 724 C 473 724 524 715 571 698 C 617 680 657 656 690 626 C 723 595 749 558 767 516 C 785 473 795 427 795 377 C 795 332 789 294 779 263 C 768 231 755 206 739 187 C 723 167 706 153 687 145 C 667 136 649 132 633 132 C 602 132 578 139 560 154 C 542 169 531 188 527 210 C 518 193 499 176 469 158 C 439 140 406 132 369 132 C 319 132 281 144 256 169 C 231 193 219 224 219 260 C 219 304 237 338 273 363 C 309 387 355 400 411 400 L 519 400 L 519 413 C 519 453 509 480 489 494 C 469 508 443 516 413 516 C 387 516 362 512 340 506 C 318 500 299 493 284 487 L 262 539 C 281 548 304 556 331 562 C 357 568 384 572 411 572 C 467 572 509 558 538 530 C 566 502 581 459 581 401 L 581 246 C 581 230 585 215 593 202 C 601 189 615 183 637 183 C 646 183 657 185 669 191 C 681 196 692 205 702 219 C 712 233 721 252 729 277 C 736 301 740 333 740 372 C 740 414 732 454 717 491 C 701 528 680 560 652 586 C 624 612 590 633 550 649 C 510 664 465 672 417 672 C 371 672 328 663 288 646 C 248 629 214 606 186 577 C 158 547 135 513 119 473 C 103 433 95 391 95 346 C 95 301 103 259 119 219 C 135 179 158 145 186 115 C 214 85 248 62 288 45 C 327 27 370 19 416 19 C 436 19 458 21 480 25 C 502 29 525 36 549 48 L 569 1 C 541 -11 515 -20 489 -25 C 463 -30 437 -33 413 -33 Z M 382 187 C 397 187 412 189 428 193 C 443 197 457 202 470 208 C 482 214 493 221 502 229 C 510 237 516 244 519 252 L 519 348 L 412 348 C 370 348 339 340 319 326 C 299 312 289 291 289 265 C 289 242 297 223 313 209 C 329 194 352 187 382 187 Z" unicode="@" />
<glyph horiz-adv-x="530" d="M 527 0 L 448 0 L 384 200 L 142 200 L 80 0 L 4 0 L 239 734 L 291 734 L 527 0 Z M 366 267 L 263 586 L 160 267 L 366 267 Z" unicode="A" />
<glyph horiz-adv-x="493" d="M 77 0 L 77 730 L 251 730 C 304 730 348 714 382 684 C 416 654 434 612 434 559 C 434 507 421 467 397 437 C 373 407 344 389 310 383 C 327 381 345 377 363 369 C 381 361 397 350 411 336 C 425 321 437 303 447 282 C 456 260 461 235 461 207 C 461 145 443 95 407 57 C 371 19 323 0 265 0 L 77 0 Z M 154 409 L 237 409 C 279 409 309 422 327 449 C 345 476 355 507 355 542 C 355 578 344 606 323 628 C 302 649 272 660 233 660 L 154 660 L 154 409 Z M 154 71 L 255 71 C 299 71 331 84 351 111 C 371 138 382 171 382 211 C 382 253 369 285 343 308 C 317 330 285 342 247 342 L 154 342 L 154 71 Z" unicode="B" />
<glyph horiz-adv-x="552" d="M 316 -9 C 278 -9 242 -1 208 15 C 174 31 145 54 121 85 C 97 116 77 155 63 202 C 49 249 42 303 42 365 C 42 422 48 474 61 520 C 74 566 92 606 116 638 C 140 670 169 695 203 713 C 237 730 275 739 317 739 C 377 739 424 727 457 703 C 490 679 516 649 535 615 L 472 575 C 457 599 438 620 414 638 C 390 656 358 665 319 665 C 258 665 210 639 175 588 C 140 537 123 461 123 361 C 123 309 128 264 140 226 C 151 188 166 158 184 134 C 202 110 224 92 248 81 C 272 69 296 64 322 64 C 363 64 396 73 422 91 C 448 109 469 134 486 164 L 545 129 C 524 87 495 54 457 29 C 419 3 372 -9 316 -9 Z" unicode="C" />
<glyph horiz-adv-x="602" d="M 77 0 L 77 730 L 244 730 C 294 730 338 721 378 704 C 418 687 451 663 478 632 C 505 600 526 562 540 518 C 554 473 561 423 561 369 C 561 317 554 269 540 224 C 526 178 506 139 479 106 C 452 73 418 47 377 28 C 336 9 289 0 235 0 L 77 0 Z M 156 70 L 232 70 C 275 70 312 77 344 92 C 375 106 401 127 421 153 C 441 179 455 211 465 247 C 474 283 479 323 479 367 C 479 461 458 533 416 583 C 374 633 317 659 244 659 L 156 659 L 156 70 Z" unicode="D" />
<glyph horiz-adv-x="449" d="M 423 0 L 77 0 L 77 730 L 406 730 L 406 658 L 155 658 L 155 399 L 396 399 L 396 327 L 155 327 L 155 72 L 423 72 L 423 0 Z" unicode="E" />
<glyph horiz-adv-x="399" d="M 382 658 L 157 658 L 157 401 L 369 401 L 369 329 L 157 329 L 157 0 L 77 0 L 77 730 L 382 730 L 382 658 Z" unicode="F" />
<glyph horiz-adv-x="607" d="M 330 357 L 570 357 L 570 128 C 548 86 517 52 475 28 C 433 3 382 -9 322 -9 C 282 -9 245 0 211 17 C 177 35 147 60 122 92 C 97 124 77 164 63 210 C 48 256 41 308 41 365 C 41 422 48 474 62 520 C 76 566 96 606 121 638 C 146 670 176 695 211 713 C 245 730 283 739 324 739 C 384 739 430 726 464 702 C 497 678 522 650 540 618 L 477 582 C 462 604 443 624 419 640 C 395 656 362 665 322 665 C 264 665 216 639 178 587 C 140 535 122 461 122 364 C 122 270 141 195 180 141 C 219 87 268 60 326 60 C 366 60 400 67 430 83 C 460 99 482 121 498 149 L 498 287 L 330 287 L 330 357 Z" unicode="G" />
<glyph horiz-adv-x="611" d="M 534 0 L 454 0 L 454 323 L 157 323 L 157 0 L 77 0 L 77 730 L 157 730 L 157 398 L 454 398 L 454 730 L 534 730 L 534 0 Z" unicode="H" />
<glyph horiz-adv-x="243" d="M 162 0 L 81 0 L 81 730 L 162 730 L 162 0 Z" unicode="I" />
<glyph horiz-adv-x="316" d="M 251 730 L 251 185 C 251 157 247 132 239 108 C 231 84 220 64 206 47 C 192 29 174 16 153 6 C 132 -4 108 -9 81 -9 C 68 -9 55 -8 41 -6 C 27 -4 17 -2 10 0 L 11 74 C 16 71 24 69 36 67 C 47 65 58 64 69 64 C 102 64 128 76 146 101 C 164 126 173 157 173 193 L 173 730 L 251 730 Z" unicode="J" />
<glyph horiz-adv-x="547" d="M 549 0 L 455 0 L 221 349 L 157 270 L 157 0 L 77 0 L 77 730 L 157 730 L 157 364 L 431 730 L 522 730 L 275 403 L 549 0 Z" unicode="K" />
<glyph horiz-adv-x="402" d="M 395 0 L 77 0 L 77 730 L 157 730 L 157 72 L 395 72 L 395 0 Z" unicode="L" />
<glyph horiz-adv-x="730" d="M 653 0 L 577 0 L 577 557 L 383 158 L 348 158 L 153 555 L 153 0 L 77 0 L 77 730 L 139 730 L 367 279 L 593 730 L 653 730 L 653 0 Z" unicode="M" />
<glyph horiz-adv-x="618" d="M 541 0 L 484 0 L 153 558 L 153 0 L 77 0 L 77 730 L 135 730 L 467 173 L 467 730 L 541 730 L 541 0 Z" unicode="N" />
<glyph horiz-adv-x="661" d="M 333 -9 C 245 -9 174 24 121 92 C 67 159 41 252 41 371 C 41 427 48 477 62 523 C 76 568 95 607 121 639 C 146 671 176 695 211 713 C 246 730 285 739 327 739 C 416 739 487 706 540 640 C 593 574 620 482 620 366 C 620 308 612 256 598 210 C 583 164 563 124 538 92 C 512 60 482 35 447 17 C 411 0 373 -9 333 -9 Z M 332 62 C 392 62 441 88 480 141 C 518 193 538 270 538 371 C 538 464 518 537 480 589 C 441 641 391 667 329 667 C 266 667 216 641 179 590 C 141 539 123 464 123 365 C 123 315 128 270 139 232 C 149 194 164 162 183 137 C 201 112 223 93 249 81 C 275 68 302 62 332 62 Z" unicode="O" />
<glyph horiz-adv-x="484" d="M 77 0 L 77 730 L 265 730 C 292 730 318 725 342 716 C 366 707 386 694 404 676 C 422 658 436 637 446 611 C 456 585 462 556 462 524 C 462 458 443 405 407 365 C 370 325 324 305 268 305 L 157 305 L 157 0 L 77 0 Z M 157 375 L 245 375 C 288 375 322 387 346 413 C 370 439 383 476 383 524 C 383 569 369 603 341 626 C 313 648 280 660 242 660 L 157 660 L 157 375 Z" unicode="P" />
<glyph horiz-adv-x="656" d="M 571 -85 L 571 -157 C 525 -151 481 -134 439 -105 C 397 -76 364 -43 341 -7 C 340 -7 339 -7 337 -7 C 335 -7 334 -7 333 -7 C 289 -7 249 1 213 18 C 177 35 146 60 121 92 C 95 124 76 164 62 211 C 48 258 41 311 41 371 C 41 427 48 477 62 523 C 76 568 96 607 122 639 C 147 671 177 695 212 713 C 247 730 285 739 327 739 C 416 739 487 705 540 639 C 593 573 620 481 620 365 C 620 273 601 195 564 132 C 527 69 479 27 419 7 C 437 -17 461 -38 489 -55 C 517 -72 545 -82 571 -85 Z M 332 59 C 392 59 441 86 480 140 C 518 194 538 271 538 371 C 538 419 532 462 522 500 C 511 537 496 568 478 593 C 460 618 438 637 412 650 C 386 662 359 669 329 669 C 267 669 217 643 179 592 C 141 541 123 465 123 364 C 123 314 128 270 139 232 C 149 194 164 162 182 136 C 200 110 222 91 248 78 C 274 65 302 59 332 59 Z" unicode="Q" />
<glyph horiz-adv-x="505" d="M 77 0 L 77 730 L 242 730 C 298 730 343 713 378 680 C 413 647 431 599 431 536 C 431 478 417 431 390 396 C 363 361 332 341 296 336 L 293 334 L 487 0 L 399 0 L 217 317 L 153 317 L 153 0 L 77 0 Z M 153 385 L 234 385 C 268 385 297 398 319 422 C 341 446 353 480 353 524 C 353 568 341 601 318 624 C 294 647 265 659 229 659 L 153 659 L 153 385 Z" unicode="R" />
<glyph horiz-adv-x="430" d="M 220 -9 C 179 -9 142 -1 109 12 C 75 26 47 49 23 80 L 66 136 C 84 110 106 90 133 77 C 160 64 187 58 215 58 C 246 58 273 68 296 90 C 318 112 330 141 330 177 C 330 211 321 241 303 265 C 285 289 251 315 203 344 C 151 372 111 402 83 434 C 55 466 41 510 41 566 C 41 618 58 659 92 691 C 126 723 169 739 219 739 C 257 739 289 732 317 720 C 345 707 368 691 387 673 L 346 616 C 331 630 313 643 292 653 C 270 663 247 668 223 668 C 193 668 168 658 148 639 C 128 620 118 594 118 562 C 118 529 127 502 145 481 C 163 460 198 435 250 406 C 307 374 347 341 371 306 C 394 271 406 229 406 180 C 406 150 400 123 390 100 C 380 76 366 56 349 40 C 332 24 312 11 290 3 C 267 -4 244 -9 220 -9 Z" unicode="S" />
<glyph horiz-adv-x="421" d="M 413 658 L 249 658 L 249 0 L 169 0 L 169 658 L 8 658 L 8 730 L 413 730 L 413 658 Z" unicode="T" />
<glyph horiz-adv-x="602" d="M 531 730 L 531 232 C 531 190 524 154 512 124 C 500 94 483 69 462 49 C 441 29 416 15 388 5 C 359 -4 329 -9 298 -9 C 267 -9 238 -4 211 5 C 183 14 159 28 139 48 C 118 67 102 92 90 123 C 78 153 72 190 72 232 L 72 730 L 150 730 L 150 228 C 150 172 164 130 193 103 C 222 75 258 62 300 62 C 341 62 376 75 406 101 C 436 127 451 169 451 228 L 451 730 L 531 730 Z" unicode="U" />
<glyph horiz-adv-x="522" d="M 519 730 L 285 -5 L 230 -5 L 4 730 L 82 730 L 261 151 L 440 730 L 519 730 Z" unicode="V" />
<glyph horiz-adv-x="758" d="M 743 730 L 568 -5 L 517 -5 L 376 568 L 231 -5 L 180 -5 L 7 730 L 84 730 L 211 163 L 351 730 L 406 730 L 544 162 L 673 730 L 743 730 Z" unicode="W" />
<glyph horiz-adv-x="487" d="M 394 0 L 242 302 L 88 0 L 9 0 L 203 380 L 26 730 L 108 730 L 244 461 L 381 730 L 460 730 L 283 383 L 477 0 L 394 0 Z" unicode="X" />
<glyph horiz-adv-x="516" d="M 514 730 L 296 301 L 296 0 L 216 0 L 216 303 L 1 730 L 86 730 L 260 384 L 434 730 L 514 730 Z" unicode="Y" />
<glyph horiz-adv-x="473" d="M 441 730 L 441 692 L 118 72 L 453 72 L 453 0 L 16 0 L 16 37 L 341 657 L 49 657 L 49 730 L 441 730 Z" unicode="Z" />
<glyph horiz-adv-x="234" d="M 204 -179 L 55 -179 L 55 730 L 204 730 L 204 670 L 125 670 L 125 -117 L 204 -117 L 204 -179 Z" unicode="[" />
<glyph horiz-adv-x="303" d="M 5 730 L 72 730 L 298 0 L 230 0 L 5 730 Z" unicode="\" />
<glyph horiz-adv-x="235" d="M 182 -179 L 31 -179 L 31 -120 L 110 -120 L 110 671 L 31 671 L 31 730 L 182 730 L 182 -179 Z" unicode="]" />
<glyph horiz-adv-x="456" d="M 415 369 L 349 369 L 226 653 L 107 369 L 43 369 L 194 730 L 258 730 L 415 369 Z" unicode="^" />
<glyph horiz-adv-x="451" d="M 451 -153 L 0 -153 L 0 -90 L 451 -90 L 451 -153 Z" unicode="_" />
<glyph horiz-adv-x="500" d="M 333 498 L 261 498 L 157 668 L 242 668 L 333 498 Z" unicode="`" />
<glyph horiz-adv-x="400" d="M 351 0 L 284 0 L 284 54 C 272 38 254 23 232 11 C 210 0 183 -7 153 -7 C 115 -7 83 4 59 28 C 34 52 22 85 22 128 C 22 174 37 208 69 232 C 101 255 141 268 189 271 L 281 277 L 281 301 C 281 329 272 351 256 365 C 240 379 217 386 188 386 C 162 386 139 381 121 373 C 102 365 88 356 80 348 L 54 397 C 68 410 88 421 113 431 C 137 440 168 445 204 445 C 245 445 280 433 308 411 C 336 389 351 354 351 308 L 351 0 Z M 282 102 L 282 222 L 200 217 C 170 215 144 207 123 193 C 102 179 92 158 92 130 C 92 104 100 85 118 73 C 135 61 155 55 178 55 C 202 55 224 60 242 70 C 260 80 273 90 282 102 Z" unicode="a" />
<glyph horiz-adv-x="444" d="M 254 -5 C 220 -5 191 3 169 19 C 146 35 130 55 122 78 L 122 0 L 52 0 L 52 761 L 123 761 L 123 347 C 130 371 145 393 168 413 C 191 433 221 443 258 443 C 306 443 345 422 375 382 C 404 342 419 291 419 229 C 419 156 403 99 371 57 C 339 15 300 -5 254 -5 Z M 231 50 C 264 50 291 65 311 95 C 331 125 341 166 341 220 C 341 269 331 308 312 338 C 293 367 266 382 231 382 C 201 382 175 368 153 340 C 131 312 121 269 121 210 C 121 150 132 108 156 85 C 179 61 204 50 231 50 Z" unicode="b" />
<glyph horiz-adv-x="376" d="M 317 119 L 368 83 C 357 63 340 43 318 23 C 295 3 261 -7 215 -7 C 185 -7 158 -1 134 10 C 110 21 91 36 75 56 C 59 76 46 99 38 127 C 29 154 25 184 25 217 C 25 247 29 276 38 304 C 46 332 59 356 76 377 C 92 397 113 414 137 426 C 161 438 188 444 218 444 C 258 444 290 434 315 415 C 340 396 359 376 371 356 L 318 315 C 308 332 295 347 280 360 C 264 373 243 380 217 380 C 182 380 154 364 133 334 C 112 303 102 265 102 219 C 102 169 112 129 134 99 C 156 69 185 54 221 54 C 249 54 270 61 284 76 C 298 91 309 105 317 119 Z" unicode="c" />
<glyph horiz-adv-x="453" d="M 197 -6 C 171 -6 147 0 126 11 C 104 22 86 37 71 57 C 56 77 45 100 37 126 C 29 152 25 181 25 212 C 25 281 41 337 75 379 C 108 421 149 443 199 443 C 234 443 263 433 285 415 C 307 396 323 375 331 351 L 331 761 L 401 761 L 401 0 L 333 0 L 333 87 C 325 64 311 43 290 23 C 268 3 237 -6 197 -6 Z M 219 52 C 251 52 278 67 300 97 C 322 127 333 169 333 222 C 333 274 321 314 297 341 C 273 368 246 382 214 382 C 180 382 152 367 132 337 C 112 307 102 268 102 218 C 102 170 112 131 132 99 C 152 67 181 52 219 52 Z" unicode="d" />
<glyph horiz-adv-x="416" d="M 220 -7 C 163 -7 116 12 80 52 C 44 91 26 146 26 216 C 26 284 43 339 79 381 C 115 423 159 444 212 444 C 269 444 314 423 346 381 C 378 339 395 279 395 200 L 97 200 C 97 148 109 110 133 86 C 156 62 186 51 222 51 C 256 51 281 57 299 69 C 316 81 331 95 344 110 L 384 71 C 369 52 350 34 326 18 C 302 1 266 -7 220 -7 Z M 100 253 L 325 253 C 324 291 314 323 295 348 C 275 373 249 386 215 386 C 181 386 154 373 134 348 C 114 323 102 291 100 253 Z" unicode="e" />
<glyph horiz-adv-x="239" d="M 230 372 L 154 372 L 154 0 L 81 0 L 81 372 L 20 372 L 20 436 L 81 436 L 81 636 C 81 678 92 709 115 731 C 138 753 163 764 190 764 C 202 764 213 762 223 760 C 233 758 240 755 245 753 L 232 688 C 229 689 225 690 219 692 C 213 694 208 695 203 695 C 189 695 178 689 168 677 C 158 665 153 648 153 624 L 153 436 L 230 436 L 230 372 Z" unicode="f" />
<glyph horiz-adv-x="452" d="M 201 -4 C 147 -4 105 16 73 56 C 41 96 25 150 25 216 C 25 285 41 340 75 381 C 109 422 150 443 200 443 C 232 443 260 433 283 414 C 306 395 322 374 331 352 L 331 436 L 400 436 L 400 14 C 400 -21 394 -52 384 -79 C 373 -105 359 -127 342 -144 C 324 -161 304 -174 281 -183 C 258 -191 234 -196 210 -196 C 176 -196 148 -192 127 -185 C 106 -178 90 -171 80 -165 L 102 -110 C 112 -116 126 -122 143 -128 C 159 -133 180 -136 206 -136 C 240 -136 269 -123 293 -99 C 317 -75 329 -40 329 6 L 329 88 C 321 64 306 43 284 24 C 262 5 234 -4 201 -4 Z M 218 50 C 250 50 277 65 299 95 C 321 125 333 167 333 222 C 333 274 320 314 296 342 C 272 370 244 385 214 385 C 181 385 154 370 133 340 C 112 310 102 269 102 219 C 102 169 111 129 131 97 C 151 65 180 50 218 50 Z" unicode="g" />
<glyph horiz-adv-x="435" d="M 385 0 L 312 0 L 312 290 C 312 320 304 343 288 358 C 272 373 250 381 224 381 C 198 381 175 372 155 356 C 135 339 125 310 125 270 L 125 0 L 52 0 L 52 761 L 121 761 L 121 359 C 127 383 141 403 163 419 C 185 435 214 444 250 444 C 290 444 323 433 348 411 C 372 389 385 355 385 311 L 385 0 Z" unicode="h" />
<glyph horiz-adv-x="185" d="M 54 539 L 54 618 L 131 618 L 131 539 L 54 539 Z M 56 0 L 56 436 L 129 436 L 129 0 L 56 0 Z" unicode="i" />
<glyph horiz-adv-x="182" d="M 132 539 L 55 539 L 55 618 L 132 618 L 132 539 Z M 130 436 L 130 -99 C 130 -128 121 -152 104 -172 C 86 -191 63 -201 35 -201 C 26 -201 16 -200 5 -198 C -5 -196 -12 -195 -16 -193 L -5 -134 C -2 -134 0 -135 4 -136 C 8 -137 12 -138 17 -138 C 27 -138 37 -133 45 -125 C 53 -117 57 -105 57 -89 L 57 436 L 130 436 Z" unicode="j" />
<glyph horiz-adv-x="395" d="M 404 1 L 322 0 L 195 199 L 125 109 L 125 0 L 52 0 L 52 761 L 121 761 L 121 192 L 304 436 L 382 436 L 244 253 L 404 1 Z" unicode="k" />
<glyph horiz-adv-x="179" d="M 126 777 L 126 0 L 53 0 L 53 777 L 126 777 Z" unicode="l" />
<glyph horiz-adv-x="689" d="M 52 0 L 52 436 L 120 436 L 120 361 C 127 386 142 406 166 421 C 189 436 218 444 252 444 C 286 444 313 436 333 420 C 353 404 367 384 373 360 L 375 360 C 383 385 399 405 422 421 C 444 436 473 444 507 444 C 547 444 579 433 603 411 C 627 389 639 357 639 314 L 639 0 L 567 0 L 567 286 C 567 318 559 342 543 358 C 527 373 505 381 479 381 C 454 381 432 372 412 355 C 392 338 382 309 382 267 L 382 0 L 309 0 L 309 288 C 309 322 301 346 285 360 C 269 374 248 381 224 381 C 199 381 176 372 155 355 C 134 337 124 308 124 266 L 124 0 L 52 0 Z" unicode="m" />
<glyph horiz-adv-x="435" d="M 385 0 L 312 0 L 312 296 C 312 323 304 344 288 359 C 272 373 251 381 225 381 C 198 381 175 372 155 356 C 135 339 125 310 125 269 L 125 0 L 52 0 L 52 436 L 122 436 L 122 361 C 129 385 144 404 166 420 C 188 436 217 444 252 444 C 292 444 324 433 348 412 C 372 390 385 359 385 318 L 385 0 Z" unicode="n" />
<glyph horiz-adv-x="434" d="M 217 -7 C 190 -7 165 -2 142 8 C 118 18 98 32 81 52 C 63 71 50 94 40 122 C 30 150 25 181 25 216 C 25 248 29 279 39 307 C 48 335 61 359 78 379 C 94 399 114 415 137 427 C 160 438 185 444 212 444 C 268 444 315 424 353 384 C 390 344 409 292 409 228 C 409 194 404 162 395 133 C 385 104 372 79 356 59 C 339 38 319 22 295 10 C 271 -1 245 -7 217 -7 Z M 217 53 C 252 53 280 68 301 98 C 321 128 332 169 332 221 C 332 271 321 311 300 340 C 279 368 250 383 213 383 C 180 383 153 368 133 339 C 112 310 102 270 102 220 C 102 164 112 122 134 94 C 156 66 183 53 217 53 Z" unicode="o" />
<glyph horiz-adv-x="444" d="M 52 -200 L 52 436 L 121 436 L 121 343 C 127 368 143 391 167 412 C 191 432 222 443 258 443 C 308 443 347 423 376 383 C 404 343 419 291 419 229 C 419 155 402 98 369 57 C 336 15 296 -5 250 -5 C 217 -5 189 2 167 18 C 144 34 129 52 122 72 L 122 -200 L 52 -200 Z M 231 49 C 263 49 290 63 311 93 C 331 122 342 163 342 217 C 342 265 333 305 315 337 C 297 368 269 384 231 384 C 202 384 176 370 154 344 C 131 317 120 273 120 211 C 120 151 131 109 153 85 C 175 61 201 49 231 49 Z" unicode="p" />
<glyph horiz-adv-x="453" d="M 331 -200 L 331 88 C 322 63 306 41 283 23 C 260 4 232 -5 198 -5 C 171 -5 147 0 126 12 C 104 23 86 39 72 59 C 57 79 46 102 38 129 C 30 156 26 185 26 216 C 26 283 42 338 75 380 C 108 422 149 444 197 444 C 233 444 263 434 286 415 C 309 396 325 374 333 350 L 333 436 L 401 436 L 401 -200 L 331 -200 Z M 217 52 C 249 52 276 66 299 96 C 321 125 333 167 333 221 C 333 273 321 312 298 340 C 275 368 248 382 216 382 C 182 382 154 367 134 338 C 113 308 103 269 103 219 C 103 171 112 132 132 100 C 152 68 180 52 217 52 Z" unicode="q" />
<glyph horiz-adv-x="314" d="M 316 413 L 290 352 C 278 362 267 369 256 373 C 244 376 232 378 220 378 C 209 378 198 375 187 371 C 176 367 166 360 157 351 C 147 341 140 329 134 314 C 128 298 125 279 125 257 L 125 0 L 52 0 L 52 436 L 123 436 L 123 355 C 129 377 141 397 161 415 C 181 433 205 443 234 443 C 251 443 267 440 281 434 C 295 428 307 421 316 413 Z" unicode="r" />
<glyph horiz-adv-x="326" d="M 172 -7 C 138 -7 109 -1 84 9 C 59 20 39 35 24 53 L 59 103 C 72 87 88 75 108 66 C 128 56 148 52 169 52 C 186 52 202 57 216 68 C 230 79 238 95 238 116 C 238 133 230 148 215 161 C 200 173 176 187 143 202 C 107 218 79 236 61 255 C 43 273 34 299 34 332 C 34 364 46 390 72 411 C 97 432 127 443 162 443 C 190 443 215 438 237 429 C 259 420 276 410 290 399 L 252 352 C 243 359 231 366 215 373 C 199 379 182 383 165 383 C 147 383 131 378 118 370 C 104 361 98 348 98 332 C 98 317 104 305 116 295 C 128 285 151 272 185 256 C 225 237 255 218 273 199 C 291 179 301 152 301 117 C 301 97 297 80 290 65 C 282 49 273 36 261 26 C 249 15 235 7 219 1 C 203 -4 188 -7 172 -7 Z" unicode="s" />
<glyph horiz-adv-x="219" d="M 204 65 L 213 8 C 209 5 203 2 194 0 C 184 -3 173 -5 161 -5 C 151 -5 140 -3 128 0 C 116 2 106 8 96 16 C 86 24 77 34 71 48 C 64 62 61 79 61 100 L 61 372 L 13 372 L 13 436 L 62 436 L 62 558 L 133 567 L 133 436 L 202 436 L 202 372 L 134 372 L 134 103 C 134 87 138 76 146 69 C 154 62 165 59 178 59 C 182 59 186 59 192 61 C 198 62 202 63 204 65 Z" unicode="t" />
<glyph horiz-adv-x="435" d="M 50 436 L 123 436 L 123 141 C 123 110 131 87 147 72 C 163 57 184 50 211 50 C 237 50 260 58 280 75 C 300 92 310 122 310 165 L 310 436 L 383 436 L 383 0 L 311 0 L 311 69 C 302 46 287 28 265 14 C 243 0 216 -7 184 -7 C 146 -7 114 3 88 25 C 62 47 50 80 50 126 L 50 436 Z" unicode="u" />
<glyph horiz-adv-x="368" d="M 370 436 L 211 -2 L 155 -2 L -2 436 L 77 436 L 187 114 L 296 436 L 370 436 Z" unicode="v" />
<glyph horiz-adv-x="574" d="M 382 -2 L 287 286 L 191 -2 L 137 -2 L 4 436 L 77 436 L 171 106 L 265 394 L 316 394 L 407 106 L 505 436 L 570 436 L 436 -2 L 382 -2 Z" unicode="w" />
<glyph horiz-adv-x="358" d="M 273 0 L 177 161 L 81 0 L 6 0 L 140 225 L 14 436 L 93 436 L 179 291 L 265 436 L 341 436 L 217 228 L 352 0 L 273 0 Z" unicode="x" />
<glyph horiz-adv-x="370" d="M 370 436 L 174 -105 C 160 -141 142 -165 119 -179 C 96 -193 73 -200 50 -200 C 38 -200 27 -198 17 -196 C 7 -194 0 -191 -5 -189 L 17 -126 C 19 -127 24 -129 32 -131 C 39 -133 47 -135 55 -135 C 66 -135 77 -130 89 -120 C 100 -110 110 -95 118 -74 L 154 33 L -1 436 L 77 436 L 190 125 L 297 436 L 370 436 Z" unicode="y" />
<glyph horiz-adv-x="334" d="M 316 436 L 316 400 L 112 64 L 322 64 L 322 0 L 12 0 L 12 29 L 223 372 L 25 372 L 25 436 L 316 436 Z" unicode="z" />
<glyph horiz-adv-x="270" d="M 246 -179 C 219 -178 194 -174 170 -166 C 146 -158 126 -147 109 -134 C 91 -120 77 -105 67 -87 C 57 -69 52 -50 52 -30 C 52 -5 55 17 61 37 C 67 57 74 75 82 91 C 88 107 95 122 102 137 C 108 151 112 166 112 181 C 112 199 103 217 86 233 C 68 249 46 257 20 258 L 20 313 C 46 313 69 322 87 339 C 105 355 114 374 114 395 C 114 403 110 414 104 430 C 97 446 90 463 82 481 C 73 499 66 516 61 534 C 55 552 53 570 53 589 C 53 609 58 629 68 648 C 78 667 91 684 109 699 C 126 713 146 725 170 734 C 194 743 219 748 246 749 L 246 694 C 215 693 188 682 164 661 C 140 639 129 614 129 584 C 129 572 130 559 134 545 C 138 531 143 516 151 502 C 159 483 167 465 175 448 C 183 430 187 414 187 400 C 187 372 178 347 162 326 C 145 305 120 291 87 285 C 121 278 146 264 162 243 C 178 221 187 198 187 173 C 187 153 183 136 176 121 C 169 106 162 91 155 77 C 147 62 140 47 135 31 C 130 15 128 0 128 -14 C 128 -40 139 -65 162 -88 C 185 -110 213 -122 246 -124 L 246 -179 Z" unicode="{" />
<glyph horiz-adv-x="234" d="M 152 -179 L 82 -179 L 82 730 L 152 730 L 152 -179 Z" unicode="|" />
<glyph horiz-adv-x="270" d="M 24 -179 L 24 -124 C 56 -122 84 -110 107 -88 C 129 -65 141 -40 141 -14 C 141 0 138 15 134 31 C 129 47 123 62 115 77 C 107 91 100 106 93 121 C 85 136 82 153 82 173 C 82 198 90 221 106 243 C 122 264 147 278 180 285 C 148 291 123 305 107 326 C 90 347 82 372 82 400 C 82 414 85 430 93 448 C 101 465 109 483 119 502 C 125 516 131 531 135 545 C 139 559 141 572 141 584 C 141 614 129 639 105 661 C 81 682 54 693 24 694 L 24 749 C 50 748 75 743 99 734 C 123 725 143 713 161 699 C 178 684 192 667 202 648 C 212 629 217 609 217 589 C 217 570 214 552 209 534 C 203 516 196 499 188 481 C 179 463 171 446 165 430 C 159 414 156 403 156 395 C 156 374 164 355 182 339 C 200 322 222 313 249 313 L 249 258 C 222 257 200 249 183 233 C 166 217 158 199 158 181 C 158 166 161 151 167 137 C 173 122 180 107 188 91 C 195 75 202 57 208 37 C 214 17 217 -5 217 -30 C 217 -50 212 -69 202 -87 C 192 -105 178 -120 161 -134 C 143 -147 123 -158 99 -166 C 75 -174 50 -178 24 -179 Z" unicode="}" />
<glyph horiz-adv-x="464" d="M 373 435 L 431 435 C 430 385 422 346 407 319 C 392 291 368 278 335 278 C 311 278 292 283 277 294 C 261 304 247 316 234 329 C 220 341 206 353 194 363 C 181 373 167 378 151 378 C 135 378 121 369 109 352 C 96 335 90 311 90 281 L 33 281 C 33 331 42 370 61 398 C 79 426 104 440 135 440 C 159 440 179 434 196 422 C 212 410 228 398 243 384 C 255 372 268 362 280 352 C 292 342 307 337 323 337 C 343 337 356 345 363 361 C 369 377 373 401 373 435 Z" unicode="~" />
<glyph horiz-adv-x="268" d="M 96 597 L 173 597 L 173 504 L 96 504 L 96 597 Z M 92 171 L 118 408 L 153 408 L 176 171 L 176 -119 L 92 -119 L 92 171 Z" unicode="¡" />
<glyph horiz-adv-x="418" d="M 403 174 C 390 156 373 138 352 120 C 330 102 299 91 259 89 L 259 -18 L 209 -18 L 209 90 C 153 96 110 121 78 164 C 46 207 31 261 31 325 C 31 355 35 384 43 412 C 51 439 62 463 78 485 C 93 506 112 524 134 538 C 156 552 181 561 209 565 L 209 671 L 259 671 L 259 566 C 297 563 327 552 351 534 C 375 516 392 496 404 476 L 358 433 C 348 449 335 463 319 477 C 303 490 283 498 259 501 L 259 149 C 288 151 311 159 327 174 C 343 188 355 203 365 217 L 403 174 Z M 107 327 C 107 281 116 243 134 213 C 152 183 177 163 209 154 L 209 498 C 176 489 151 469 133 437 C 115 405 107 369 107 327 Z" unicode="¢" />
<glyph horiz-adv-x="498" d="M 485 68 L 485 0 L 17 0 L 17 58 C 21 60 29 63 40 65 C 51 67 66 69 85 73 C 108 77 130 88 152 105 C 174 122 185 148 185 182 C 185 187 184 192 183 198 C 182 204 181 210 179 216 L 28 216 L 28 275 L 153 275 C 147 285 141 297 135 309 C 129 321 122 333 116 346 L 28 346 L 28 404 L 90 404 C 82 424 75 446 70 469 C 64 492 62 516 62 542 C 62 580 68 611 80 637 C 92 663 108 683 128 699 C 148 714 172 725 198 732 C 224 738 252 742 280 742 C 324 742 365 733 404 716 C 443 698 471 682 488 666 L 448 604 C 433 617 411 632 381 648 C 351 664 319 673 284 673 C 266 673 248 670 231 666 C 213 661 198 653 185 643 C 172 632 161 617 153 599 C 145 580 141 557 141 529 C 141 507 144 485 150 465 C 156 444 163 424 172 404 L 421 404 L 421 346 L 200 346 C 206 333 212 321 218 309 C 224 297 229 286 234 275 L 421 275 L 421 216 L 251 216 C 251 213 252 211 252 209 C 252 207 252 204 252 202 C 252 180 248 162 242 146 C 235 130 227 117 218 107 C 208 96 198 87 188 81 C 177 75 168 70 160 68 L 485 68 Z" unicode="£" />
<glyph horiz-adv-x="502" d="M 439 185 L 405 151 L 345 214 C 331 205 316 198 300 194 C 284 189 267 187 250 187 C 232 187 216 189 200 194 C 184 198 169 205 155 214 L 94 151 L 59 187 L 116 247 C 103 261 93 278 86 296 C 78 314 75 333 75 354 C 75 374 78 394 86 412 C 94 430 104 447 117 462 L 58 522 L 93 556 L 153 493 C 167 501 182 508 198 513 C 214 518 232 521 250 521 C 268 521 285 518 302 513 C 318 507 334 500 348 492 L 410 557 L 444 522 L 385 460 C 397 446 407 429 414 411 C 421 393 425 374 425 354 C 425 333 421 313 413 294 C 405 275 395 258 382 244 L 439 185 Z M 250 242 C 282 242 310 253 334 275 C 358 297 370 324 370 354 C 370 384 358 411 334 433 C 310 455 282 466 250 466 C 216 466 188 455 165 433 C 142 411 131 384 131 354 C 131 324 142 297 165 275 C 188 253 216 242 250 242 Z" unicode="¤" />
<glyph horiz-adv-x="516" d="M 463 155 L 296 155 L 296 0 L 216 0 L 216 155 L 52 155 L 52 214 L 216 214 L 216 269 L 52 269 L 52 328 L 216 328 L 216 339 L 19 730 L 105 730 L 258 413 L 414 730 L 495 730 L 296 337 L 296 328 L 463 328 L 463 269 L 296 269 L 296 214 L 463 214 L 463 155 Z" unicode="¥" />
<glyph horiz-adv-x="255" d="M 96 351 L 96 730 L 160 730 L 160 351 L 96 351 Z M 160 200 L 160 -179 L 96 -179 L 96 200 L 160 200 Z" unicode="¦" />
<glyph horiz-adv-x="571" d="M 301 -180 C 251 -180 205 -173 161 -160 C 117 -146 79 -128 49 -106 L 78 -43 C 106 -64 139 -82 179 -97 C 218 -111 256 -119 293 -119 C 327 -119 356 -109 380 -91 C 403 -72 415 -46 415 -13 C 415 17 406 40 389 56 C 371 71 348 86 320 100 L 199 159 C 172 171 149 182 129 193 C 109 203 92 215 79 228 C 65 240 55 255 49 271 C 42 287 39 307 39 331 C 39 362 46 387 60 407 C 74 427 92 443 112 456 C 94 466 81 482 72 502 C 63 522 59 546 59 576 C 59 602 64 626 75 647 C 86 667 101 685 121 699 C 140 713 163 723 189 731 C 215 738 243 742 273 742 C 327 742 372 733 407 717 C 442 700 471 681 495 661 L 460 604 C 433 625 405 643 377 659 C 348 675 313 683 272 683 C 234 683 202 673 176 654 C 150 635 137 609 137 576 C 137 553 143 534 156 520 C 168 505 188 492 215 480 L 373 406 C 421 385 459 363 485 339 C 511 315 524 282 524 241 C 524 205 512 178 490 158 C 467 138 443 127 417 125 C 424 120 432 114 441 106 C 450 98 459 89 467 78 C 475 66 481 53 487 38 C 493 23 496 6 496 -12 C 496 -38 491 -62 481 -83 C 471 -103 457 -121 439 -135 C 421 -149 401 -160 377 -168 C 353 -176 328 -180 301 -180 Z M 363 158 C 382 160 401 167 420 179 C 438 191 448 210 448 237 C 448 261 437 281 417 298 C 397 315 367 333 327 351 L 173 424 C 156 414 141 403 129 391 C 117 378 111 360 111 337 C 111 309 121 288 142 272 C 163 256 194 238 234 220 L 363 158 Z" unicode="§" />
<glyph horiz-adv-x="500" d="M 358 500 L 298 500 L 298 656 L 358 656 L 358 500 Z M 202 500 L 142 500 L 142 656 L 202 656 L 202 500 Z" unicode="¨" />
<glyph horiz-adv-x="817" d="M 408 16 C 358 16 311 25 267 44 C 223 63 184 89 151 122 C 118 155 92 194 73 238 C 54 282 45 329 45 379 C 45 429 54 476 73 520 C 92 564 118 602 151 635 C 184 668 223 694 267 713 C 311 732 358 742 408 742 C 458 742 505 732 549 713 C 593 694 632 668 665 635 C 697 602 723 564 743 520 C 762 476 772 429 772 379 C 772 329 762 282 743 238 C 723 194 697 155 665 122 C 632 89 593 63 549 44 C 505 25 458 16 408 16 Z M 408 65 C 450 65 491 73 529 90 C 567 106 600 129 628 157 C 656 185 678 218 694 256 C 710 294 719 335 719 378 C 719 420 710 461 694 499 C 678 537 656 571 628 599 C 600 627 567 649 529 666 C 491 682 450 691 408 691 C 365 691 325 682 287 666 C 249 649 216 627 188 599 C 160 571 137 537 121 499 C 105 461 97 420 97 378 C 97 335 105 294 121 256 C 137 218 160 185 188 157 C 216 129 249 106 287 90 C 325 73 365 65 408 65 Z M 575 247 C 559 223 537 202 509 186 C 481 169 448 161 408 161 C 382 161 358 165 334 175 C 310 185 289 199 271 217 C 253 235 238 258 227 286 C 216 313 211 344 211 380 C 211 413 216 444 226 472 C 236 500 249 523 266 543 C 283 563 303 578 327 589 C 351 600 376 606 404 606 C 446 606 480 598 507 584 C 533 569 554 550 570 528 L 516 489 C 505 504 491 517 474 527 C 456 537 433 543 405 543 C 369 543 338 527 314 495 C 290 463 278 424 278 378 C 278 352 281 330 289 310 C 296 290 306 274 318 261 C 330 247 344 237 360 230 C 376 223 392 220 409 220 C 433 220 455 225 475 237 C 495 248 511 263 523 282 L 575 247 Z" unicode="©" />
<glyph horiz-adv-x="427" d="M 381 319 L 319 319 L 319 380 C 304 359 284 343 258 331 C 232 319 203 313 173 313 C 131 313 98 324 74 347 C 49 369 37 401 37 441 C 37 485 53 518 86 541 C 118 563 161 576 215 579 L 316 587 L 316 595 C 316 625 307 646 290 660 C 272 674 248 681 218 681 C 193 681 170 676 149 668 C 127 659 109 649 94 637 L 64 688 C 83 702 107 715 135 725 C 163 735 194 741 230 741 C 275 741 311 729 339 707 C 367 684 381 647 381 597 L 381 319 Z M 317 426 L 317 533 L 211 526 C 179 524 152 517 132 505 C 112 493 102 472 102 444 C 102 420 110 402 128 389 C 145 376 168 370 196 370 C 218 370 241 374 264 384 C 286 394 304 408 317 426 Z M 388 210 L 43 210 L 43 272 L 388 272 L 388 210 Z" unicode="ª" />
<glyph horiz-adv-x="419" d="M 201 91 L 29 257 L 29 304 L 201 468 L 201 393 L 93 279 L 201 169 L 201 91 Z M 389 91 L 216 257 L 216 304 L 389 468 L 389 393 L 281 279 L 389 170 L 389 91 Z" unicode="«" />
<glyph horiz-adv-x="500" d="M 450 375 L 450 132 L 387 132 L 387 310 L 32 310 L 32 375 L 450 375 Z" unicode="¬" />
<glyph horiz-adv-x="817" d="M 408 16 C 358 16 311 25 267 44 C 223 63 184 89 151 122 C 118 155 92 194 73 238 C 54 282 45 329 45 379 C 45 429 54 476 73 520 C 92 564 118 602 151 635 C 184 668 223 694 267 713 C 311 732 358 742 408 742 C 458 742 505 732 549 713 C 593 694 632 668 665 635 C 697 602 723 564 743 520 C 762 476 772 429 772 379 C 772 329 762 282 743 238 C 723 194 697 155 665 122 C 632 89 593 63 549 44 C 505 25 458 16 408 16 Z M 408 65 C 450 65 491 73 529 89 C 567 105 600 128 628 156 C 656 184 678 217 694 255 C 710 293 719 334 719 378 C 719 422 710 463 694 501 C 678 539 656 572 628 600 C 600 628 567 650 529 666 C 491 682 450 691 408 691 C 365 691 325 682 287 666 C 249 650 216 628 188 600 C 160 572 137 538 121 500 C 105 462 97 421 97 378 C 97 334 105 293 121 255 C 137 217 160 184 188 156 C 216 128 249 105 287 89 C 325 73 365 65 408 65 Z M 278 172 L 278 607 L 425 607 C 442 607 459 604 477 600 C 494 595 509 588 523 578 C 537 568 548 556 556 541 C 564 526 569 508 569 487 C 569 449 558 420 536 402 C 514 383 492 372 469 369 L 468 365 L 598 172 L 527 172 L 413 346 L 341 346 L 341 172 L 278 172 Z M 341 399 L 430 399 C 448 399 466 405 482 419 C 498 433 507 453 508 480 C 508 506 499 525 482 536 C 464 546 443 552 419 552 L 341 552 L 341 399 Z" unicode="®" />
<glyph horiz-adv-x="500" d="M 370 527 L 130 527 L 130 582 L 370 582 L 370 527 Z" unicode="¯" />
<glyph horiz-adv-x="418" d="M 209 384 C 184 384 161 388 139 398 C 117 407 98 420 82 436 C 66 452 53 471 44 493 C 34 515 30 538 30 563 C 30 587 34 610 44 632 C 53 654 66 673 82 689 C 98 705 117 718 139 728 C 161 737 184 742 209 742 C 233 742 256 737 278 728 C 300 718 319 705 335 689 C 351 673 364 654 374 632 C 383 610 388 587 388 563 C 388 538 383 515 374 493 C 364 471 351 452 335 436 C 319 420 300 407 278 398 C 256 388 233 384 209 384 Z M 209 443 C 241 443 270 454 294 478 C 318 502 330 530 330 563 C 330 595 318 624 294 648 C 270 672 241 684 209 684 C 176 684 148 672 124 648 C 100 624 88 595 88 563 C 88 530 100 502 124 478 C 148 454 176 443 209 443 Z" unicode="°" />
<glyph horiz-adv-x="500" d="M 473 302 L 282 302 L 282 115 L 218 115 L 218 302 L 27 302 L 27 360 L 218 360 L 218 547 L 282 547 L 282 360 L 473 360 L 473 302 Z M 467 28 L 35 28 L 35 84 L 467 84 L 467 28 Z" unicode="±" />
<glyph horiz-adv-x="341" d="M 307 372 L 28 372 L 28 396 L 194 551 C 202 558 210 567 218 579 C 226 591 230 605 230 621 C 230 637 223 652 211 666 C 199 679 181 686 157 686 C 129 686 110 677 98 661 C 86 645 80 626 80 606 L 21 606 C 21 641 33 672 57 700 C 81 727 117 741 163 741 C 207 741 240 730 262 709 C 284 688 296 663 296 635 C 296 608 290 586 280 568 C 270 550 259 535 248 525 L 136 426 L 307 426 L 307 372 Z" unicode="²" />
<glyph horiz-adv-x="346" d="M 223 569 C 251 565 273 554 290 538 C 306 522 315 501 315 477 C 315 464 312 451 307 438 C 302 424 294 412 282 401 C 270 390 255 381 235 374 C 215 367 191 364 162 364 C 122 364 90 368 67 378 C 44 388 26 398 14 408 L 50 445 C 60 438 75 431 93 425 C 111 418 133 415 159 415 C 193 415 217 421 233 435 C 248 449 256 466 256 486 C 256 506 247 521 230 529 C 213 537 192 541 167 541 L 95 541 L 95 588 L 162 588 C 185 588 204 592 218 602 C 232 611 239 624 239 641 C 239 655 232 667 220 676 C 207 685 188 690 162 690 C 139 690 119 685 101 677 C 83 668 70 658 61 646 L 25 681 C 37 695 55 709 77 722 C 99 735 131 742 171 742 C 212 742 244 733 266 716 C 288 698 300 677 300 652 C 300 630 292 612 277 598 C 262 583 244 573 223 569 Z" unicode="³" />
<glyph horiz-adv-x="500" d="M 168 498 L 258 668 L 343 668 L 240 498 L 168 498 Z" unicode="´" />
<glyph horiz-adv-x="584" d="M 75 -112 L 75 467 L 148 467 L 148 154 C 148 121 160 95 186 77 C 212 59 242 50 276 50 C 293 50 311 52 329 58 C 347 63 363 71 377 82 C 391 93 402 107 411 124 C 419 141 424 161 424 184 L 424 467 L 497 467 L 497 0 L 430 0 L 430 105 C 419 74 398 48 367 26 C 335 4 301 -6 265 -7 C 238 -7 213 -2 190 9 C 167 20 151 36 143 57 L 143 -112 L 75 -112 Z" unicode="µ" />
<glyph horiz-adv-x="580" d="M 527 -180 L 480 -179 L 480 671 L 372 671 L 372 -179 L 325 -179 L 325 287 L 242 287 C 213 287 185 292 159 304 C 133 316 110 332 90 352 C 70 372 53 395 41 421 C 29 447 23 475 23 505 C 23 537 28 566 40 594 C 51 621 67 645 88 665 C 108 685 133 701 163 713 C 192 724 224 730 260 730 L 527 730 L 527 -180 Z M 326 349 L 326 668 L 278 668 C 227 668 187 652 158 622 C 128 592 114 554 114 508 C 114 486 117 466 125 447 C 133 427 143 410 157 396 C 171 382 187 370 206 362 C 224 353 245 349 267 349 L 326 349 Z" unicode="¶" />
<glyph horiz-adv-x="230" d="M 153 287 L 78 287 L 78 406 L 153 406 L 153 287 Z" unicode="·" />
<glyph horiz-adv-x="500" d="M 253 -184 C 231 -184 210 -181 188 -175 C 166 -169 148 -161 135 -152 L 146 -119 C 154 -125 166 -132 182 -138 C 198 -144 215 -147 234 -147 C 249 -147 262 -143 274 -136 C 285 -128 291 -118 291 -106 C 291 -91 286 -81 276 -75 C 266 -69 255 -67 243 -67 C 235 -67 228 -67 222 -69 C 216 -70 210 -72 202 -75 L 189 -61 L 247 11 L 290 11 L 242 -52 C 274 -43 301 -45 323 -57 C 345 -69 357 -87 357 -111 C 357 -135 346 -153 326 -165 C 305 -177 281 -184 253 -184 Z" unicode="¸" />
<glyph horiz-adv-x="318" d="M 146 372 L 146 662 C 139 650 126 639 106 630 C 86 621 68 615 53 613 L 52 678 C 76 681 97 688 115 699 C 133 710 150 724 168 741 L 215 741 L 215 372 L 146 372 Z" unicode="¹" />
<glyph horiz-adv-x="420" d="M 206 313 C 182 313 158 317 136 327 C 114 337 94 351 77 369 C 60 387 46 410 36 436 C 26 462 21 491 21 524 C 21 552 26 580 36 606 C 46 632 59 654 76 674 C 92 694 112 709 135 721 C 158 733 183 739 209 739 C 235 739 260 734 284 724 C 307 714 327 699 344 681 C 361 663 374 641 384 616 C 394 590 399 563 399 533 C 399 501 394 472 384 446 C 374 419 360 396 343 376 C 325 356 305 341 281 330 C 257 318 232 313 206 313 Z M 208 372 C 244 372 274 387 298 417 C 321 447 333 484 333 529 C 333 571 321 606 299 636 C 277 666 247 681 209 681 C 173 681 143 665 121 635 C 98 605 87 567 87 523 C 87 478 98 442 122 414 C 145 386 174 372 208 372 Z M 39 210 L 39 272 L 379 272 L 379 210 L 39 210 Z" unicode="º" />
<glyph horiz-adv-x="419" d="M 30 468 L 203 302 L 203 255 L 30 91 L 30 165 L 138 280 L 30 389 L 30 468 Z M 218 468 L 390 302 L 390 255 L 218 91 L 218 165 L 326 280 L 218 389 L 218 468 Z" unicode="»" />
<glyph horiz-adv-x="696" d="M 12 0 L 12 0 Z M 106 372 L 106 662 C 99 650 86 639 66 630 C 46 621 28 615 13 613 L 12 678 C 36 681 57 688 75 699 C 93 710 110 724 128 741 L 175 741 L 175 372 L 106 372 Z M 570 730 L 190 0 L 125 0 L 505 730 L 570 730 Z M 385 86 L 385 131 L 577 367 L 620 367 L 620 135 L 684 135 L 684 86 L 620 86 L 620 1 L 558 1 L 558 86 L 385 86 Z M 445 130 L 560 130 L 560 277 L 445 130 Z" unicode="¼" />
<glyph horiz-adv-x="760" d="M 12 0 L 12 0 Z M 106 372 L 106 662 C 99 650 86 639 66 630 C 46 621 28 615 13 613 L 12 678 C 36 681 57 688 75 699 C 93 710 110 724 128 741 L 175 741 L 175 372 L 106 372 Z M 570 730 L 190 0 L 125 0 L 505 730 L 570 730 Z M 737 0 L 458 0 L 458 24 L 624 179 C 632 186 640 195 648 207 C 656 219 660 233 660 249 C 660 265 653 280 641 294 C 629 307 611 314 587 314 C 559 314 540 305 528 289 C 516 273 510 254 510 234 L 451 234 C 451 269 463 300 487 328 C 511 355 547 369 593 369 C 637 369 670 358 692 337 C 714 316 726 291 726 263 C 726 236 720 214 710 196 C 700 178 689 163 678 153 L 566 54 L 737 54 L 737 0 Z" unicode="½" />
<glyph horiz-adv-x="759" d="M 14 0 L 14 0 Z M 633 730 L 253 0 L 188 0 L 568 730 L 633 730 Z M 448 86 L 448 131 L 640 367 L 683 367 L 683 135 L 747 135 L 747 86 L 683 86 L 683 1 L 621 1 L 621 86 L 448 86 Z M 508 130 L 623 130 L 623 277 L 508 130 Z M 223 569 C 251 565 273 554 290 538 C 306 522 315 501 315 477 C 315 464 312 451 307 438 C 302 424 294 412 282 401 C 270 390 255 381 235 374 C 215 367 191 364 162 364 C 122 364 90 368 67 378 C 44 388 26 398 14 408 L 50 445 C 60 438 75 431 93 425 C 111 418 133 415 159 415 C 193 415 217 421 233 435 C 248 449 256 466 256 486 C 256 506 247 521 230 529 C 213 537 192 541 167 541 L 95 541 L 95 588 L 162 588 C 185 588 204 592 218 602 C 232 611 239 624 239 641 C 239 655 232 667 220 676 C 207 685 188 690 162 690 C 139 690 119 685 101 677 C 83 668 70 658 61 646 L 25 681 C 37 695 55 709 77 722 C 99 735 131 742 171 742 C 212 742 244 733 266 716 C 288 698 300 677 300 652 C 300 630 292 612 277 598 C 262 583 244 573 223 569 Z" unicode="¾" />
<glyph horiz-adv-x="437" d="M 193 503 L 193 597 L 276 597 L 276 503 L 193 503 Z M 215 -141 C 159 -141 113 -126 79 -96 C 44 -66 27 -25 27 29 C 27 54 30 77 38 98 C 45 118 54 137 66 154 C 77 170 89 186 103 200 C 117 214 130 227 143 240 C 166 260 181 286 188 317 C 195 347 199 377 200 405 L 272 405 C 272 357 266 319 256 290 C 246 260 228 232 202 206 C 192 195 181 184 169 173 C 157 161 147 149 138 136 C 128 122 120 108 114 92 C 108 76 105 58 105 38 C 105 2 116 -25 140 -46 C 163 -66 192 -77 227 -77 C 257 -77 284 -69 308 -54 C 332 -38 352 -19 368 3 L 415 -41 C 392 -72 363 -96 329 -114 C 294 -132 256 -141 215 -141 Z" unicode="¿" />
<glyph horiz-adv-x="530" d="M 4 0 L 4 0 Z M 527 0 L 448 0 L 384 200 L 142 200 L 80 0 L 4 0 L 239 734 L 291 734 L 527 0 Z M 366 267 L 263 586 L 160 267 L 366 267 Z M 262 792 L 262 792 Z M 350 792 L 278 792 L 174 962 L 259 962 L 350 792 Z" unicode="À" />
<glyph horiz-adv-x="530" d="M 4 0 L 4 0 Z M 527 0 L 448 0 L 384 200 L 142 200 L 80 0 L 4 0 L 239 734 L 291 734 L 527 0 Z M 366 267 L 263 586 L 160 267 L 366 267 Z M 262 792 L 262 792 Z M 175 792 L 265 962 L 350 962 L 247 792 L 175 792 Z" unicode="Á" />
<glyph horiz-adv-x="530" d="M 4 0 L 4 0 Z M 527 0 L 448 0 L 384 200 L 142 200 L 80 0 L 4 0 L 239 734 L 291 734 L 527 0 Z M 366 267 L 263 586 L 160 267 L 366 267 Z M 262 793 L 262 793 Z M 401 793 L 337 793 L 262 914 L 185 793 L 124 793 L 229 964 L 296 964 L 401 793 Z" unicode="Â" />
<glyph horiz-adv-x="530" d="M 4 0 L 4 0 Z M 527 0 L 448 0 L 384 200 L 142 200 L 80 0 L 4 0 L 239 734 L 291 734 L 527 0 Z M 366 267 L 263 586 L 160 267 L 366 267 Z M 262 801 L 262 801 Z M 355 932 L 410 932 C 410 888 403 855 391 833 C 379 811 363 801 344 801 C 326 801 311 805 298 813 C 285 821 274 830 265 838 C 255 846 245 853 235 861 C 225 869 216 873 206 873 C 196 873 188 867 181 855 C 173 843 170 827 170 805 L 115 805 C 115 849 122 881 138 903 C 153 925 170 936 189 936 C 205 936 219 931 231 923 C 243 914 255 905 266 897 C 274 889 283 881 293 874 C 302 866 311 863 321 863 C 329 863 337 868 344 880 C 351 892 355 909 355 932 Z" unicode="Ã" />
<glyph horiz-adv-x="530" d="M 4 0 L 4 0 Z M 527 0 L 448 0 L 384 200 L 142 200 L 80 0 L 4 0 L 239 734 L 291 734 L 527 0 Z M 366 267 L 263 586 L 160 267 L 366 267 Z M 262 794 L 262 794 Z M 369 794 L 309 794 L 309 950 L 369 950 L 369 794 Z M 213 794 L 153 794 L 153 950 L 213 950 L 213 794 Z" unicode="Ä" />
<glyph horiz-adv-x="530" d="M 4 0 L 4 0 Z M 527 0 L 448 0 L 384 200 L 142 200 L 80 0 L 4 0 L 239 734 L 291 734 L 527 0 Z M 366 267 L 263 586 L 160 267 L 366 267 Z M 262 790 L 262 790 Z M 262 790 C 231 790 205 801 183 823 C 161 845 151 871 151 902 C 151 932 161 958 183 980 C 205 1002 231 1013 262 1013 C 293 1013 319 1002 341 980 C 363 958 374 932 374 902 C 374 871 363 845 341 823 C 319 801 293 790 262 790 Z M 262 833 C 280 833 296 839 309 853 C 321 866 328 882 328 902 C 328 920 321 936 309 950 C 296 963 280 970 262 970 C 243 970 227 963 215 950 C 202 936 196 920 196 902 C 196 882 202 866 215 853 C 227 839 243 833 262 833 Z" unicode="Å" />
<glyph horiz-adv-x="798" d="M 773 0 L 430 0 L 430 237 L 205 237 L 77 0 L -2 0 L 388 730 L 756 730 L 756 662 L 505 662 L 505 395 L 746 395 L 746 327 L 505 327 L 505 68 L 773 68 L 773 0 Z M 430 298 L 430 666 L 235 298 L 430 298 Z" unicode="Æ" />
<glyph horiz-adv-x="552" d="M 42 0 L 42 0 Z M 316 -9 C 278 -9 242 -1 208 15 C 174 31 145 54 121 85 C 97 116 77 155 63 202 C 49 249 42 303 42 365 C 42 422 48 474 61 520 C 74 566 92 606 116 638 C 140 670 169 695 203 713 C 237 730 275 739 317 739 C 377 739 424 727 457 703 C 490 679 516 649 535 615 L 472 575 C 457 599 438 620 414 638 C 390 656 358 665 319 665 C 258 665 210 639 175 588 C 140 537 123 461 123 361 C 123 309 128 264 140 226 C 151 188 166 158 184 134 C 202 110 224 92 248 81 C 272 69 296 64 322 64 C 363 64 396 73 422 91 C 448 109 469 134 486 164 L 545 129 C 524 87 495 54 457 29 C 419 3 372 -9 316 -9 Z M 307 -2 L 307 -2 Z M 314 -186 C 292 -186 271 -183 249 -177 C 227 -171 209 -163 196 -154 L 207 -121 C 215 -127 227 -134 243 -140 C 259 -146 276 -149 295 -149 C 310 -149 323 -145 335 -138 C 346 -130 352 -120 352 -108 C 352 -93 347 -83 337 -77 C 327 -71 316 -69 304 -69 C 296 -69 289 -69 283 -71 C 277 -72 271 -74 263 -77 L 250 -63 L 308 9 L 351 9 L 303 -54 C 335 -45 362 -47 384 -59 C 406 -71 418 -89 418 -113 C 418 -137 407 -155 387 -167 C 366 -179 342 -186 314 -186 Z" unicode="Ç" />
<glyph horiz-adv-x="449" d="M 77 0 L 77 0 Z M 423 0 L 77 0 L 77 730 L 406 730 L 406 658 L 155 658 L 155 399 L 396 399 L 396 327 L 155 327 L 155 72 L 423 72 L 423 0 Z M 242 792 L 242 792 Z M 330 792 L 258 792 L 154 962 L 239 962 L 330 792 Z" unicode="È" />
<glyph horiz-adv-x="449" d="M 77 0 L 77 0 Z M 423 0 L 77 0 L 77 730 L 406 730 L 406 658 L 155 658 L 155 399 L 396 399 L 396 327 L 155 327 L 155 72 L 423 72 L 423 0 Z M 242 792 L 242 792 Z M 155 792 L 245 962 L 330 962 L 227 792 L 155 792 Z" unicode="É" />
<glyph horiz-adv-x="449" d="M 77 0 L 77 0 Z M 423 0 L 77 0 L 77 730 L 406 730 L 406 658 L 155 658 L 155 399 L 396 399 L 396 327 L 155 327 L 155 72 L 423 72 L 423 0 Z M 242 793 L 242 793 Z M 381 793 L 317 793 L 242 914 L 165 793 L 104 793 L 209 964 L 276 964 L 381 793 Z" unicode="Ê" />
<glyph horiz-adv-x="449" d="M 77 0 L 77 0 Z M 423 0 L 77 0 L 77 730 L 406 730 L 406 658 L 155 658 L 155 399 L 396 399 L 396 327 L 155 327 L 155 72 L 423 72 L 423 0 Z M 242 794 L 242 794 Z M 349 794 L 289 794 L 289 950 L 349 950 L 349 794 Z M 193 794 L 133 794 L 133 950 L 193 950 L 193 794 Z" unicode="Ë" />
<glyph horiz-adv-x="243" d="M 34 0 L 34 0 Z M 162 0 L 81 0 L 81 730 L 162 730 L 162 0 Z M 122 792 L 122 792 Z M 210 792 L 138 792 L 34 962 L 119 962 L 210 792 Z" unicode="Ì" />
<glyph horiz-adv-x="243" d="M 35 0 L 35 0 Z M 162 0 L 81 0 L 81 730 L 162 730 L 162 0 Z M 122 792 L 122 792 Z M 35 792 L 125 962 L 210 962 L 107 792 L 35 792 Z" unicode="Í" />
<glyph horiz-adv-x="243" d="M 0 0 L 0 0 Z M 162 0 L 81 0 L 81 730 L 162 730 L 162 0 Z M 122 793 L 122 793 Z M 261 793 L 197 793 L 122 914 L 45 793 L -16 793 L 89 964 L 156 964 L 261 793 Z" unicode="Î" />
<glyph horiz-adv-x="243" d="M 13 0 L 13 0 Z M 162 0 L 81 0 L 81 730 L 162 730 L 162 0 Z M 122 794 L 122 794 Z M 229 794 L 169 794 L 169 950 L 229 950 L 229 794 Z M 73 794 L 13 794 L 13 950 L 73 950 L 73 794 Z" unicode="Ï" />
<glyph horiz-adv-x="602" d="M 561 365 C 561 314 554 266 540 222 C 526 178 506 139 479 106 C 452 73 418 47 377 28 C 336 9 289 0 235 0 L 77 0 L 77 332 L 26 332 L 26 392 L 77 392 L 77 730 L 244 730 C 294 730 339 721 379 704 C 418 686 451 662 478 631 C 505 599 526 561 540 516 C 554 470 561 420 561 365 Z M 156 65 L 231 65 C 275 65 313 72 345 88 C 377 103 402 124 422 150 C 442 176 456 208 466 245 C 475 281 480 321 480 363 C 480 461 459 535 417 587 C 375 638 318 664 245 664 L 156 664 L 156 392 L 337 392 L 337 332 L 156 332 L 156 65 Z" unicode="Ð" />
<glyph horiz-adv-x="618" d="M 77 0 L 77 0 Z M 541 0 L 484 0 L 153 558 L 153 0 L 77 0 L 77 730 L 135 730 L 467 173 L 467 730 L 541 730 L 541 0 Z M 310 801 L 310 801 Z M 403 932 L 458 932 C 458 888 451 855 439 833 C 427 811 411 801 392 801 C 374 801 359 805 346 813 C 333 821 322 830 313 838 C 303 846 293 853 283 861 C 273 869 264 873 254 873 C 244 873 236 867 229 855 C 221 843 218 827 218 805 L 163 805 C 163 849 170 881 186 903 C 201 925 218 936 237 936 C 253 936 267 931 279 923 C 291 914 303 905 314 897 C 322 889 331 881 341 874 C 350 866 359 863 369 863 C 377 863 385 868 392 880 C 399 892 403 909 403 932 Z" unicode="Ñ" />
<glyph horiz-adv-x="661" d="M 41 0 L 41 0 Z M 333 -9 C 245 -9 174 24 121 92 C 67 159 41 252 41 371 C 41 427 48 477 62 523 C 76 568 95 607 121 639 C 146 671 176 695 211 713 C 246 730 285 739 327 739 C 416 739 487 706 540 640 C 593 574 620 482 620 366 C 620 308 612 256 598 210 C 583 164 563 124 538 92 C 512 60 482 35 447 17 C 411 0 373 -9 333 -9 Z M 332 62 C 392 62 441 88 480 141 C 518 193 538 270 538 371 C 538 464 518 537 480 589 C 441 641 391 667 329 667 C 266 667 216 641 179 590 C 141 539 123 464 123 365 C 123 315 128 270 139 232 C 149 194 164 162 183 137 C 201 112 223 93 249 81 C 275 68 302 62 332 62 Z M 328 792 L 328 792 Z M 416 792 L 344 792 L 240 962 L 325 962 L 416 792 Z" unicode="Ò" />
<glyph horiz-adv-x="661" d="M 41 0 L 41 0 Z M 333 -9 C 245 -9 174 24 121 92 C 67 159 41 252 41 371 C 41 427 48 477 62 523 C 76 568 95 607 121 639 C 146 671 176 695 211 713 C 246 730 285 739 327 739 C 416 739 487 706 540 640 C 593 574 620 482 620 366 C 620 308 612 256 598 210 C 583 164 563 124 538 92 C 512 60 482 35 447 17 C 411 0 373 -9 333 -9 Z M 332 62 C 392 62 441 88 480 141 C 518 193 538 270 538 371 C 538 464 518 537 480 589 C 441 641 391 667 329 667 C 266 667 216 641 179 590 C 141 539 123 464 123 365 C 123 315 128 270 139 232 C 149 194 164 162 183 137 C 201 112 223 93 249 81 C 275 68 302 62 332 62 Z M 328 792 L 328 792 Z M 241 792 L 331 962 L 416 962 L 313 792 L 241 792 Z" unicode="Ó" />
<glyph horiz-adv-x="661" d="M 41 0 L 41 0 Z M 333 -9 C 245 -9 174 24 121 92 C 67 159 41 252 41 371 C 41 427 48 477 62 523 C 76 568 95 607 121 639 C 146 671 176 695 211 713 C 246 730 285 739 327 739 C 416 739 487 706 540 640 C 593 574 620 482 620 366 C 620 308 612 256 598 210 C 583 164 563 124 538 92 C 512 60 482 35 447 17 C 411 0 373 -9 333 -9 Z M 332 62 C 392 62 441 88 480 141 C 518 193 538 270 538 371 C 538 464 518 537 480 589 C 441 641 391 667 329 667 C 266 667 216 641 179 590 C 141 539 123 464 123 365 C 123 315 128 270 139 232 C 149 194 164 162 183 137 C 201 112 223 93 249 81 C 275 68 302 62 332 62 Z M 328 793 L 328 793 Z M 467 793 L 403 793 L 328 914 L 251 793 L 190 793 L 295 964 L 362 964 L 467 793 Z" unicode="Ô" />
<glyph horiz-adv-x="661" d="M 41 0 L 41 0 Z M 333 -9 C 245 -9 174 24 121 92 C 67 159 41 252 41 371 C 41 427 48 477 62 523 C 76 568 95 607 121 639 C 146 671 176 695 211 713 C 246 730 285 739 327 739 C 416 739 487 706 540 640 C 593 574 620 482 620 366 C 620 308 612 256 598 210 C 583 164 563 124 538 92 C 512 60 482 35 447 17 C 411 0 373 -9 333 -9 Z M 332 62 C 392 62 441 88 480 141 C 518 193 538 270 538 371 C 538 464 518 537 480 589 C 441 641 391 667 329 667 C 266 667 216 641 179 590 C 141 539 123 464 123 365 C 123 315 128 270 139 232 C 149 194 164 162 183 137 C 201 112 223 93 249 81 C 275 68 302 62 332 62 Z M 328 801 L 328 801 Z M 421 932 L 476 932 C 476 888 469 855 457 833 C 445 811 429 801 410 801 C 392 801 377 805 364 813 C 351 821 340 830 331 838 C 321 846 311 853 301 861 C 291 869 282 873 272 873 C 262 873 254 867 247 855 C 239 843 236 827 236 805 L 181 805 C 181 849 188 881 204 903 C 219 925 236 936 255 936 C 271 936 285 931 297 923 C 309 914 321 905 332 897 C 340 889 349 881 359 874 C 368 866 377 863 387 863 C 395 863 403 868 410 880 C 417 892 421 909 421 932 Z" unicode="Õ" />
<glyph horiz-adv-x="661" d="M 41 0 L 41 0 Z M 333 -9 C 245 -9 174 24 121 92 C 67 159 41 252 41 371 C 41 427 48 477 62 523 C 76 568 95 607 121 639 C 146 671 176 695 211 713 C 246 730 285 739 327 739 C 416 739 487 706 540 640 C 593 574 620 482 620 366 C 620 308 612 256 598 210 C 583 164 563 124 538 92 C 512 60 482 35 447 17 C 411 0 373 -9 333 -9 Z M 332 62 C 392 62 441 88 480 141 C 518 193 538 270 538 371 C 538 464 518 537 480 589 C 441 641 391 667 329 667 C 266 667 216 641 179 590 C 141 539 123 464 123 365 C 123 315 128 270 139 232 C 149 194 164 162 183 137 C 201 112 223 93 249 81 C 275 68 302 62 332 62 Z M 328 794 L 328 794 Z M 435 794 L 375 794 L 375 950 L 435 950 L 435 794 Z M 279 794 L 219 794 L 219 950 L 279 950 L 279 794 Z" unicode="Ö" />
<glyph horiz-adv-x="501" d="M 111 150 L 69 192 L 208 331 L 70 469 L 112 512 L 251 373 L 390 512 L 431 469 L 292 331 L 432 192 L 390 148 L 251 289 L 111 150 Z" unicode="×" />
<glyph horiz-adv-x="661" d="M 620 366 C 620 308 612 256 598 210 C 583 164 563 124 538 92 C 512 60 482 35 447 17 C 411 0 373 -9 333 -9 C 291 -9 253 -1 219 14 C 184 29 154 51 129 81 L 68 2 L 38 28 L 105 114 C 84 145 68 182 57 226 C 46 269 41 317 41 371 C 41 427 48 477 62 523 C 76 568 95 607 121 639 C 146 671 176 695 211 713 C 246 730 285 739 327 739 C 368 739 406 731 440 717 C 474 703 503 682 528 655 L 596 742 L 627 717 L 554 623 C 574 591 590 554 602 511 C 614 467 620 419 620 366 Z M 123 365 C 123 327 126 293 132 262 C 138 231 147 204 158 181 L 478 592 C 460 616 438 635 413 648 C 387 660 359 667 329 667 C 266 667 216 641 179 590 C 141 539 123 464 123 365 Z M 538 371 C 538 408 534 442 528 473 C 522 504 513 531 501 555 L 179 144 C 197 116 220 96 246 82 C 272 68 301 62 332 62 C 392 62 441 88 480 141 C 518 193 538 270 538 371 Z" unicode="Ø" />
<glyph horiz-adv-x="602" d="M 72 0 L 72 0 Z M 531 730 L 531 232 C 531 190 524 154 512 124 C 500 94 483 69 462 49 C 441 29 416 15 388 5 C 359 -4 329 -9 298 -9 C 267 -9 238 -4 211 5 C 183 14 159 28 139 48 C 118 67 102 92 90 123 C 78 153 72 190 72 232 L 72 730 L 150 730 L 150 228 C 150 172 164 130 193 103 C 222 75 258 62 300 62 C 341 62 376 75 406 101 C 436 127 451 169 451 228 L 451 730 L 531 730 Z M 300 792 L 300 792 Z M 388 792 L 316 792 L 212 962 L 297 962 L 388 792 Z" unicode="Ù" />
<glyph horiz-adv-x="602" d="M 72 0 L 72 0 Z M 531 730 L 531 232 C 531 190 524 154 512 124 C 500 94 483 69 462 49 C 441 29 416 15 388 5 C 359 -4 329 -9 298 -9 C 267 -9 238 -4 211 5 C 183 14 159 28 139 48 C 118 67 102 92 90 123 C 78 153 72 190 72 232 L 72 730 L 150 730 L 150 228 C 150 172 164 130 193 103 C 222 75 258 62 300 62 C 341 62 376 75 406 101 C 436 127 451 169 451 228 L 451 730 L 531 730 Z M 300 792 L 300 792 Z M 213 792 L 303 962 L 388 962 L 285 792 L 213 792 Z" unicode="Ú" />
<glyph horiz-adv-x="602" d="M 72 0 L 72 0 Z M 531 730 L 531 232 C 531 190 524 154 512 124 C 500 94 483 69 462 49 C 441 29 416 15 388 5 C 359 -4 329 -9 298 -9 C 267 -9 238 -4 211 5 C 183 14 159 28 139 48 C 118 67 102 92 90 123 C 78 153 72 190 72 232 L 72 730 L 150 730 L 150 228 C 150 172 164 130 193 103 C 222 75 258 62 300 62 C 341 62 376 75 406 101 C 436 127 451 169 451 228 L 451 730 L 531 730 Z M 300 793 L 300 793 Z M 439 793 L 375 793 L 300 914 L 223 793 L 162 793 L 267 964 L 334 964 L 439 793 Z" unicode="Û" />
<glyph horiz-adv-x="602" d="M 72 0 L 72 0 Z M 531 730 L 531 232 C 531 190 524 154 512 124 C 500 94 483 69 462 49 C 441 29 416 15 388 5 C 359 -4 329 -9 298 -9 C 267 -9 238 -4 211 5 C 183 14 159 28 139 48 C 118 67 102 92 90 123 C 78 153 72 190 72 232 L 72 730 L 150 730 L 150 228 C 150 172 164 130 193 103 C 222 75 258 62 300 62 C 341 62 376 75 406 101 C 436 127 451 169 451 228 L 451 730 L 531 730 Z M 300 794 L 300 794 Z M 407 794 L 347 794 L 347 950 L 407 950 L 407 794 Z M 251 794 L 191 794 L 191 950 L 251 950 L 251 794 Z" unicode="Ü" />
<glyph horiz-adv-x="516" d="M 1 0 L 1 0 Z M 514 730 L 296 301 L 296 0 L 216 0 L 216 303 L 1 730 L 86 730 L 260 384 L 434 730 L 514 730 Z M 259 792 L 259 792 Z M 172 792 L 262 962 L 347 962 L 244 792 L 172 792 Z" unicode="Ý" />
<glyph horiz-adv-x="485" d="M 77 0 L 77 730 L 157 730 L 157 595 L 260 595 C 318 595 367 576 405 539 C 443 502 463 451 463 385 C 463 317 443 264 405 224 C 367 184 319 165 261 165 L 157 165 L 157 0 L 77 0 Z M 156 230 L 253 230 C 293 230 325 243 349 270 C 373 297 386 336 386 386 C 386 433 372 469 345 493 C 317 517 286 529 250 529 L 156 529 L 156 230 Z" unicode="Þ" />
<glyph horiz-adv-x="507" d="M 354 -7 C 321 -7 292 -1 267 9 C 242 20 222 35 206 53 L 243 101 C 255 86 271 74 289 66 C 307 57 327 53 349 53 C 367 53 384 58 399 68 C 413 78 421 93 421 115 C 421 133 413 148 398 161 C 383 173 359 188 325 204 C 285 221 257 240 240 261 C 223 282 215 307 215 337 C 215 369 225 395 245 414 C 265 433 288 446 312 454 C 318 456 326 466 334 484 C 342 502 347 534 347 580 C 347 624 337 656 319 676 C 301 696 276 707 246 707 C 217 707 193 697 175 677 C 156 657 147 628 147 590 L 147 0 L 72 0 L 72 592 C 72 647 88 690 121 721 C 154 752 196 768 246 768 C 294 768 335 752 368 721 C 401 690 418 642 418 577 C 418 523 410 482 394 456 C 378 429 362 413 348 409 C 329 406 312 400 298 390 C 283 380 276 365 276 346 C 276 329 282 314 296 300 C 310 286 333 271 367 257 C 409 237 439 218 457 198 C 475 178 484 151 484 117 C 484 97 480 79 472 63 C 464 47 454 34 442 24 C 430 14 416 6 401 1 C 385 -4 370 -7 354 -7 Z" unicode="ß" />
<glyph horiz-adv-x="400" d="M 22 0 L 22 0 Z M 351 0 L 284 0 L 284 54 C 272 38 254 23 232 11 C 210 0 183 -7 153 -7 C 115 -7 83 4 59 28 C 34 52 22 85 22 128 C 22 174 37 208 69 232 C 101 255 141 268 189 271 L 281 277 L 281 301 C 281 329 272 351 256 365 C 240 379 217 386 188 386 C 162 386 139 381 121 373 C 102 365 88 356 80 348 L 54 397 C 68 410 88 421 113 431 C 137 440 168 445 204 445 C 245 445 280 433 308 411 C 336 389 351 354 351 308 L 351 0 Z M 282 102 L 282 222 L 200 217 C 170 215 144 207 123 193 C 102 179 92 158 92 130 C 92 104 100 85 118 73 C 135 61 155 55 178 55 C 202 55 224 60 242 70 C 260 80 273 90 282 102 Z M 194 498 L 194 498 Z M 282 498 L 210 498 L 106 668 L 191 668 L 282 498 Z" unicode="à" />
<glyph horiz-adv-x="400" d="M 22 0 L 22 0 Z M 351 0 L 284 0 L 284 54 C 272 38 254 23 232 11 C 210 0 183 -7 153 -7 C 115 -7 83 4 59 28 C 34 52 22 85 22 128 C 22 174 37 208 69 232 C 101 255 141 268 189 271 L 281 277 L 281 301 C 281 329 272 351 256 365 C 240 379 217 386 188 386 C 162 386 139 381 121 373 C 102 365 88 356 80 348 L 54 397 C 68 410 88 421 113 431 C 137 440 168 445 204 445 C 245 445 280 433 308 411 C 336 389 351 354 351 308 L 351 0 Z M 282 102 L 282 222 L 200 217 C 170 215 144 207 123 193 C 102 179 92 158 92 130 C 92 104 100 85 118 73 C 135 61 155 55 178 55 C 202 55 224 60 242 70 C 260 80 273 90 282 102 Z M 194 498 L 194 498 Z M 107 498 L 197 668 L 282 668 L 179 498 L 107 498 Z" unicode="á" />
<glyph horiz-adv-x="400" d="M 22 0 L 22 0 Z M 351 0 L 284 0 L 284 54 C 272 38 254 23 232 11 C 210 0 183 -7 153 -7 C 115 -7 83 4 59 28 C 34 52 22 85 22 128 C 22 174 37 208 69 232 C 101 255 141 268 189 271 L 281 277 L 281 301 C 281 329 272 351 256 365 C 240 379 217 386 188 386 C 162 386 139 381 121 373 C 102 365 88 356 80 348 L 54 397 C 68 410 88 421 113 431 C 137 440 168 445 204 445 C 245 445 280 433 308 411 C 336 389 351 354 351 308 L 351 0 Z M 282 102 L 282 222 L 200 217 C 170 215 144 207 123 193 C 102 179 92 158 92 130 C 92 104 100 85 118 73 C 135 61 155 55 178 55 C 202 55 224 60 242 70 C 260 80 273 90 282 102 Z M 194 499 L 194 499 Z M 333 499 L 269 499 L 194 620 L 117 499 L 56 499 L 161 670 L 228 670 L 333 499 Z" unicode="â" />
<glyph horiz-adv-x="400" d="M 22 0 L 22 0 Z M 351 0 L 284 0 L 284 54 C 272 38 254 23 232 11 C 210 0 183 -7 153 -7 C 115 -7 83 4 59 28 C 34 52 22 85 22 128 C 22 174 37 208 69 232 C 101 255 141 268 189 271 L 281 277 L 281 301 C 281 329 272 351 256 365 C 240 379 217 386 188 386 C 162 386 139 381 121 373 C 102 365 88 356 80 348 L 54 397 C 68 410 88 421 113 431 C 137 440 168 445 204 445 C 245 445 280 433 308 411 C 336 389 351 354 351 308 L 351 0 Z M 282 102 L 282 222 L 200 217 C 170 215 144 207 123 193 C 102 179 92 158 92 130 C 92 104 100 85 118 73 C 135 61 155 55 178 55 C 202 55 224 60 242 70 C 260 80 273 90 282 102 Z M 194 507 L 194 507 Z M 287 638 L 342 638 C 342 594 335 561 323 539 C 311 517 295 507 276 507 C 258 507 243 511 230 519 C 217 527 206 536 197 544 C 187 552 177 559 167 567 C 157 575 148 579 138 579 C 128 579 120 573 113 561 C 105 549 102 533 102 511 L 47 511 C 47 555 54 587 70 609 C 85 631 102 642 121 642 C 137 642 151 637 163 629 C 175 620 187 611 198 603 C 206 595 215 587 225 580 C 234 572 243 569 253 569 C 261 569 269 574 276 586 C 283 598 287 615 287 638 Z" unicode="ã" />
<glyph horiz-adv-x="400" d="M 22 0 L 22 0 Z M 351 0 L 284 0 L 284 54 C 272 38 254 23 232 11 C 210 0 183 -7 153 -7 C 115 -7 83 4 59 28 C 34 52 22 85 22 128 C 22 174 37 208 69 232 C 101 255 141 268 189 271 L 281 277 L 281 301 C 281 329 272 351 256 365 C 240 379 217 386 188 386 C 162 386 139 381 121 373 C 102 365 88 356 80 348 L 54 397 C 68 410 88 421 113 431 C 137 440 168 445 204 445 C 245 445 280 433 308 411 C 336 389 351 354 351 308 L 351 0 Z M 282 102 L 282 222 L 200 217 C 170 215 144 207 123 193 C 102 179 92 158 92 130 C 92 104 100 85 118 73 C 135 61 155 55 178 55 C 202 55 224 60 242 70 C 260 80 273 90 282 102 Z M 194 500 L 194 500 Z M 301 500 L 241 500 L 241 656 L 301 656 L 301 500 Z M 145 500 L 85 500 L 85 656 L 145 656 L 145 500 Z" unicode="ä" />
<glyph horiz-adv-x="400" d="M 22 0 L 22 0 Z M 351 0 L 284 0 L 284 54 C 272 38 254 23 232 11 C 210 0 183 -7 153 -7 C 115 -7 83 4 59 28 C 34 52 22 85 22 128 C 22 174 37 208 69 232 C 101 255 141 268 189 271 L 281 277 L 281 301 C 281 329 272 351 256 365 C 240 379 217 386 188 386 C 162 386 139 381 121 373 C 102 365 88 356 80 348 L 54 397 C 68 410 88 421 113 431 C 137 440 168 445 204 445 C 245 445 280 433 308 411 C 336 389 351 354 351 308 L 351 0 Z M 282 102 L 282 222 L 200 217 C 170 215 144 207 123 193 C 102 179 92 158 92 130 C 92 104 100 85 118 73 C 135 61 155 55 178 55 C 202 55 224 60 242 70 C 260 80 273 90 282 102 Z M 194 496 L 194 496 Z M 194 496 C 163 496 137 507 115 529 C 93 551 83 577 83 608 C 83 638 93 664 115 686 C 137 708 163 719 194 719 C 225 719 251 708 273 686 C 295 664 306 638 306 608 C 306 577 295 551 273 529 C 251 507 225 496 194 496 Z M 194 539 C 212 539 228 545 241 559 C 253 572 260 588 260 608 C 260 626 253 642 241 656 C 228 669 212 676 194 676 C 175 676 159 669 147 656 C 134 642 128 626 128 608 C 128 588 134 572 147 559 C 159 545 175 539 194 539 Z" unicode="å" />
<glyph horiz-adv-x="669" d="M 474 -7 C 428 -7 393 4 367 26 C 341 48 324 72 316 98 C 307 69 288 44 260 24 C 231 3 197 -7 159 -7 C 119 -7 87 4 61 28 C 35 51 22 84 22 127 C 22 172 38 207 70 231 C 102 255 142 268 190 271 L 288 276 L 288 298 C 288 330 278 353 260 366 C 241 379 218 386 190 386 C 163 386 140 381 121 373 C 101 364 87 355 78 347 L 54 396 C 68 410 88 421 113 430 C 138 438 166 443 196 443 C 229 443 258 435 283 421 C 308 406 323 384 329 354 C 337 375 353 395 377 414 C 400 433 432 443 472 443 C 526 443 569 421 601 379 C 633 336 649 276 649 200 L 356 200 C 356 148 367 110 389 86 C 411 62 439 51 475 51 C 509 51 534 56 551 68 C 568 80 583 94 597 110 L 638 71 C 622 51 602 33 578 17 C 554 1 519 -7 474 -7 Z M 356 252 L 579 252 C 578 290 567 322 547 347 C 527 372 499 385 465 385 C 431 385 405 372 387 348 C 369 323 358 291 356 252 Z M 181 54 C 209 54 234 62 255 80 C 275 98 287 120 289 146 L 289 222 L 200 217 C 170 215 144 208 123 194 C 102 180 92 160 92 132 C 92 104 100 84 118 72 C 136 60 157 54 181 54 Z" unicode="æ" />
<glyph horiz-adv-x="376" d="M 25 0 L 25 0 Z M 317 119 L 368 83 C 357 63 340 43 318 23 C 295 3 261 -7 215 -7 C 185 -7 158 -1 134 10 C 110 21 91 36 75 56 C 59 76 46 99 38 127 C 29 154 25 184 25 217 C 25 247 29 276 38 304 C 46 332 59 356 76 377 C 92 397 113 414 137 426 C 161 438 188 444 218 444 C 258 444 290 434 315 415 C 340 396 359 376 371 356 L 318 315 C 308 332 295 347 280 360 C 264 373 243 380 217 380 C 182 380 154 364 133 334 C 112 303 102 265 102 219 C 102 169 112 129 134 99 C 156 69 185 54 221 54 C 249 54 270 61 284 76 C 298 91 309 105 317 119 Z M 204 -2 L 204 -2 Z M 211 -186 C 189 -186 168 -183 146 -177 C 124 -171 106 -163 93 -154 L 104 -121 C 112 -127 124 -134 140 -140 C 156 -146 173 -149 192 -149 C 207 -149 220 -145 232 -138 C 243 -130 249 -120 249 -108 C 249 -93 244 -83 234 -77 C 224 -71 213 -69 201 -69 C 193 -69 186 -69 180 -71 C 174 -72 168 -74 160 -77 L 147 -63 L 205 9 L 248 9 L 200 -54 C 232 -45 259 -47 281 -59 C 303 -71 315 -89 315 -113 C 315 -137 304 -155 284 -167 C 263 -179 239 -186 211 -186 Z" unicode="ç" />
<glyph horiz-adv-x="416" d="M 26 0 L 26 0 Z M 220 -7 C 163 -7 116 12 80 52 C 44 91 26 146 26 216 C 26 284 43 339 79 381 C 115 423 159 444 212 444 C 269 444 314 423 346 381 C 378 339 395 279 395 200 L 97 200 C 97 148 109 110 133 86 C 156 62 186 51 222 51 C 256 51 281 57 299 69 C 316 81 331 95 344 110 L 384 71 C 369 52 350 34 326 18 C 302 1 266 -7 220 -7 Z M 100 253 L 325 253 C 324 291 314 323 295 348 C 275 373 249 386 215 386 C 181 386 154 373 134 348 C 114 323 102 291 100 253 Z M 212 498 L 212 498 Z M 300 498 L 228 498 L 124 668 L 209 668 L 300 498 Z" unicode="è" />
<glyph horiz-adv-x="416" d="M 26 0 L 26 0 Z M 220 -7 C 163 -7 116 12 80 52 C 44 91 26 146 26 216 C 26 284 43 339 79 381 C 115 423 159 444 212 444 C 269 444 314 423 346 381 C 378 339 395 279 395 200 L 97 200 C 97 148 109 110 133 86 C 156 62 186 51 222 51 C 256 51 281 57 299 69 C 316 81 331 95 344 110 L 384 71 C 369 52 350 34 326 18 C 302 1 266 -7 220 -7 Z M 100 253 L 325 253 C 324 291 314 323 295 348 C 275 373 249 386 215 386 C 181 386 154 373 134 348 C 114 323 102 291 100 253 Z M 212 498 L 212 498 Z M 125 498 L 215 668 L 300 668 L 197 498 L 125 498 Z" unicode="é" />
<glyph horiz-adv-x="416" d="M 26 0 L 26 0 Z M 220 -7 C 163 -7 116 12 80 52 C 44 91 26 146 26 216 C 26 284 43 339 79 381 C 115 423 159 444 212 444 C 269 444 314 423 346 381 C 378 339 395 279 395 200 L 97 200 C 97 148 109 110 133 86 C 156 62 186 51 222 51 C 256 51 281 57 299 69 C 316 81 331 95 344 110 L 384 71 C 369 52 350 34 326 18 C 302 1 266 -7 220 -7 Z M 100 253 L 325 253 C 324 291 314 323 295 348 C 275 373 249 386 215 386 C 181 386 154 373 134 348 C 114 323 102 291 100 253 Z M 212 499 L 212 499 Z M 351 499 L 287 499 L 212 620 L 135 499 L 74 499 L 179 670 L 246 670 L 351 499 Z" unicode="ê" />
<glyph horiz-adv-x="416" d="M 26 0 L 26 0 Z M 220 -7 C 163 -7 116 12 80 52 C 44 91 26 146 26 216 C 26 284 43 339 79 381 C 115 423 159 444 212 444 C 269 444 314 423 346 381 C 378 339 395 279 395 200 L 97 200 C 97 148 109 110 133 86 C 156 62 186 51 222 51 C 256 51 281 57 299 69 C 316 81 331 95 344 110 L 384 71 C 369 52 350 34 326 18 C 302 1 266 -7 220 -7 Z M 100 253 L 325 253 C 324 291 314 323 295 348 C 275 373 249 386 215 386 C 181 386 154 373 134 348 C 114 323 102 291 100 253 Z M 212 500 L 212 500 Z M 319 500 L 259 500 L 259 656 L 319 656 L 319 500 Z M 163 500 L 103 500 L 103 656 L 163 656 L 163 500 Z" unicode="ë" />
<glyph horiz-adv-x="185" d="M 4 0 L 4 0 Z M 129 0 L 56 0 L 56 436 L 129 436 L 129 0 Z M 92 498 L 92 498 Z M 180 498 L 108 498 L 4 668 L 89 668 L 180 498 Z" unicode="ì" />
<glyph horiz-adv-x="185" d="M 5 0 L 5 0 Z M 129 0 L 56 0 L 56 436 L 129 436 L 129 0 Z M 92 498 L 92 498 Z M 5 498 L 95 668 L 180 668 L 77 498 L 5 498 Z" unicode="í" />
<glyph horiz-adv-x="185" d="M 0 0 L 0 0 Z M 129 0 L 56 0 L 56 436 L 129 436 L 129 0 Z M 92 499 L 92 499 Z M 231 499 L 167 499 L 92 620 L 15 499 L -46 499 L 59 670 L 126 670 L 231 499 Z" unicode="î" />
<glyph horiz-adv-x="185" d="M 0 0 L 0 0 Z M 129 0 L 56 0 L 56 436 L 129 436 L 129 0 Z M 92 500 L 92 500 Z M 199 500 L 139 500 L 139 656 L 199 656 L 199 500 Z M 43 500 L -17 500 L -17 656 L 43 656 L 43 500 Z" unicode="ï" />
<glyph horiz-adv-x="445" d="M 413 262 C 413 223 408 187 400 154 C 391 121 378 93 362 69 C 346 45 325 26 301 12 C 277 -1 249 -8 219 -8 C 163 -8 116 12 80 52 C 44 92 26 148 26 218 C 26 252 31 284 41 312 C 51 340 64 363 81 383 C 98 403 118 418 140 428 C 162 438 186 444 210 444 C 243 444 271 436 295 420 C 318 404 335 386 345 366 C 340 414 331 458 317 499 C 303 539 286 575 268 607 L 168 569 L 148 622 L 237 655 C 219 679 201 699 185 715 C 169 731 156 741 147 747 L 206 775 C 216 767 230 755 247 739 C 263 723 280 702 298 678 L 370 705 L 390 653 L 328 630 C 350 588 370 537 387 477 C 404 416 413 344 413 262 Z M 217 53 C 254 53 283 68 304 98 C 325 128 336 169 336 219 C 336 271 325 311 305 339 C 284 367 255 382 218 382 C 182 382 154 367 132 337 C 110 307 100 267 100 219 C 100 166 111 125 133 96 C 155 67 183 53 217 53 Z" unicode="ð" />
<glyph horiz-adv-x="435" d="M 52 0 L 52 0 Z M 385 0 L 312 0 L 312 296 C 312 323 304 344 288 359 C 272 373 251 381 225 381 C 198 381 175 372 155 356 C 135 339 125 310 125 269 L 125 0 L 52 0 L 52 436 L 122 436 L 122 361 C 129 385 144 404 166 420 C 188 436 217 444 252 444 C 292 444 324 433 348 412 C 372 390 385 359 385 318 L 385 0 Z M 218 507 L 218 507 Z M 311 638 L 366 638 C 366 594 359 561 347 539 C 335 517 319 507 300 507 C 282 507 267 511 254 519 C 241 527 230 536 221 544 C 211 552 201 559 191 567 C 181 575 172 579 162 579 C 152 579 144 573 137 561 C 129 549 126 533 126 511 L 71 511 C 71 555 78 587 94 609 C 109 631 126 642 145 642 C 161 642 175 637 187 629 C 199 620 211 611 222 603 C 230 595 239 587 249 580 C 258 572 267 569 277 569 C 285 569 293 574 300 586 C 307 598 311 615 311 638 Z" unicode="ñ" />
<glyph horiz-adv-x="434" d="M 25 0 L 25 0 Z M 217 -7 C 190 -7 165 -2 142 8 C 118 18 98 32 81 52 C 63 71 50 94 40 122 C 30 150 25 181 25 216 C 25 248 29 279 39 307 C 48 335 61 359 78 379 C 94 399 114 415 137 427 C 160 438 185 444 212 444 C 268 444 315 424 353 384 C 390 344 409 292 409 228 C 409 194 404 162 395 133 C 385 104 372 79 356 59 C 339 38 319 22 295 10 C 271 -1 245 -7 217 -7 Z M 217 53 C 252 53 280 68 301 98 C 321 128 332 169 332 221 C 332 271 321 311 300 340 C 279 368 250 383 213 383 C 180 383 153 368 133 339 C 112 310 102 270 102 220 C 102 164 112 122 134 94 C 156 66 183 53 217 53 Z M 215 498 L 215 498 Z M 303 498 L 231 498 L 127 668 L 212 668 L 303 498 Z" unicode="ò" />
<glyph horiz-adv-x="434" d="M 25 0 L 25 0 Z M 217 -7 C 190 -7 165 -2 142 8 C 118 18 98 32 81 52 C 63 71 50 94 40 122 C 30 150 25 181 25 216 C 25 248 29 279 39 307 C 48 335 61 359 78 379 C 94 399 114 415 137 427 C 160 438 185 444 212 444 C 268 444 315 424 353 384 C 390 344 409 292 409 228 C 409 194 404 162 395 133 C 385 104 372 79 356 59 C 339 38 319 22 295 10 C 271 -1 245 -7 217 -7 Z M 217 53 C 252 53 280 68 301 98 C 321 128 332 169 332 221 C 332 271 321 311 300 340 C 279 368 250 383 213 383 C 180 383 153 368 133 339 C 112 310 102 270 102 220 C 102 164 112 122 134 94 C 156 66 183 53 217 53 Z M 215 498 L 215 498 Z M 128 498 L 218 668 L 303 668 L 200 498 L 128 498 Z" unicode="ó" />
<glyph horiz-adv-x="434" d="M 25 0 L 25 0 Z M 217 -7 C 190 -7 165 -2 142 8 C 118 18 98 32 81 52 C 63 71 50 94 40 122 C 30 150 25 181 25 216 C 25 248 29 279 39 307 C 48 335 61 359 78 379 C 94 399 114 415 137 427 C 160 438 185 444 212 444 C 268 444 315 424 353 384 C 390 344 409 292 409 228 C 409 194 404 162 395 133 C 385 104 372 79 356 59 C 339 38 319 22 295 10 C 271 -1 245 -7 217 -7 Z M 217 53 C 252 53 280 68 301 98 C 321 128 332 169 332 221 C 332 271 321 311 300 340 C 279 368 250 383 213 383 C 180 383 153 368 133 339 C 112 310 102 270 102 220 C 102 164 112 122 134 94 C 156 66 183 53 217 53 Z M 215 499 L 215 499 Z M 354 499 L 290 499 L 215 620 L 138 499 L 77 499 L 182 670 L 249 670 L 354 499 Z" unicode="ô" />
<glyph horiz-adv-x="434" d="M 25 0 L 25 0 Z M 217 -7 C 190 -7 165 -2 142 8 C 118 18 98 32 81 52 C 63 71 50 94 40 122 C 30 150 25 181 25 216 C 25 248 29 279 39 307 C 48 335 61 359 78 379 C 94 399 114 415 137 427 C 160 438 185 444 212 444 C 268 444 315 424 353 384 C 390 344 409 292 409 228 C 409 194 404 162 395 133 C 385 104 372 79 356 59 C 339 38 319 22 295 10 C 271 -1 245 -7 217 -7 Z M 217 53 C 252 53 280 68 301 98 C 321 128 332 169 332 221 C 332 271 321 311 300 340 C 279 368 250 383 213 383 C 180 383 153 368 133 339 C 112 310 102 270 102 220 C 102 164 112 122 134 94 C 156 66 183 53 217 53 Z M 215 507 L 215 507 Z M 308 638 L 363 638 C 363 594 356 561 344 539 C 332 517 316 507 297 507 C 279 507 264 511 251 519 C 238 527 227 536 218 544 C 208 552 198 559 188 567 C 178 575 169 579 159 579 C 149 579 141 573 134 561 C 126 549 123 533 123 511 L 68 511 C 68 555 75 587 91 609 C 106 631 123 642 142 642 C 158 642 172 637 184 629 C 196 620 208 611 219 603 C 227 595 236 587 246 580 C 255 572 264 569 274 569 C 282 569 290 574 297 586 C 304 598 308 615 308 638 Z" unicode="õ" />
<glyph horiz-adv-x="434" d="M 25 0 L 25 0 Z M 217 -7 C 190 -7 165 -2 142 8 C 118 18 98 32 81 52 C 63 71 50 94 40 122 C 30 150 25 181 25 216 C 25 248 29 279 39 307 C 48 335 61 359 78 379 C 94 399 114 415 137 427 C 160 438 185 444 212 444 C 268 444 315 424 353 384 C 390 344 409 292 409 228 C 409 194 404 162 395 133 C 385 104 372 79 356 59 C 339 38 319 22 295 10 C 271 -1 245 -7 217 -7 Z M 217 53 C 252 53 280 68 301 98 C 321 128 332 169 332 221 C 332 271 321 311 300 340 C 279 368 250 383 213 383 C 180 383 153 368 133 339 C 112 310 102 270 102 220 C 102 164 112 122 134 94 C 156 66 183 53 217 53 Z M 215 500 L 215 500 Z M 322 500 L 262 500 L 262 656 L 322 656 L 322 500 Z M 166 500 L 106 500 L 106 656 L 166 656 L 166 500 Z" unicode="ö" />
<glyph horiz-adv-x="500" d="M 215 447 L 215 558 L 285 558 L 285 447 L 215 447 Z M 27 299 L 27 363 L 473 363 L 473 299 L 27 299 Z M 215 103 L 215 213 L 285 213 L 285 103 L 215 103 Z" unicode="÷" />
<glyph horiz-adv-x="434" d="M 409 228 C 409 194 404 162 395 133 C 385 104 372 79 356 59 C 339 38 319 22 295 10 C 271 -1 245 -7 217 -7 C 193 -7 171 -3 150 5 C 129 13 110 24 94 39 L 62 1 L 39 23 L 72 63 C 57 81 45 103 37 129 C 29 155 25 184 25 216 C 25 248 29 279 39 307 C 48 335 61 359 78 379 C 94 399 114 415 137 427 C 160 438 185 444 212 444 C 238 444 262 439 284 431 C 306 422 326 410 343 395 L 375 433 L 398 410 L 365 370 C 379 352 389 331 397 307 C 405 283 409 256 409 228 Z M 102 220 C 102 200 103 181 106 165 C 109 148 113 133 119 121 L 300 341 C 289 354 276 364 262 372 C 248 379 231 383 213 383 C 180 383 153 368 133 339 C 112 310 102 270 102 220 Z M 332 221 C 332 238 330 254 328 270 C 325 285 321 299 317 311 L 137 92 C 147 79 158 69 172 63 C 186 56 201 53 217 53 C 252 53 280 68 301 98 C 321 128 332 169 332 221 Z" unicode="ø" />
<glyph horiz-adv-x="435" d="M 50 0 L 50 0 Z M 50 436 L 123 436 L 123 141 C 123 110 131 87 147 72 C 163 57 184 50 211 50 C 237 50 260 58 280 75 C 300 92 310 122 310 165 L 310 436 L 383 436 L 383 0 L 311 0 L 311 69 C 302 46 287 28 265 14 C 243 0 216 -7 184 -7 C 146 -7 114 3 88 25 C 62 47 50 80 50 126 L 50 436 Z M 216 498 L 216 498 Z M 304 498 L 232 498 L 128 668 L 213 668 L 304 498 Z" unicode="ù" />
<glyph horiz-adv-x="435" d="M 50 0 L 50 0 Z M 50 436 L 123 436 L 123 141 C 123 110 131 87 147 72 C 163 57 184 50 211 50 C 237 50 260 58 280 75 C 300 92 310 122 310 165 L 310 436 L 383 436 L 383 0 L 311 0 L 311 69 C 302 46 287 28 265 14 C 243 0 216 -7 184 -7 C 146 -7 114 3 88 25 C 62 47 50 80 50 126 L 50 436 Z M 216 498 L 216 498 Z M 129 498 L 219 668 L 304 668 L 201 498 L 129 498 Z" unicode="ú" />
<glyph horiz-adv-x="435" d="M 50 0 L 50 0 Z M 50 436 L 123 436 L 123 141 C 123 110 131 87 147 72 C 163 57 184 50 211 50 C 237 50 260 58 280 75 C 300 92 310 122 310 165 L 310 436 L 383 436 L 383 0 L 311 0 L 311 69 C 302 46 287 28 265 14 C 243 0 216 -7 184 -7 C 146 -7 114 3 88 25 C 62 47 50 80 50 126 L 50 436 Z M 216 499 L 216 499 Z M 355 499 L 291 499 L 216 620 L 139 499 L 78 499 L 183 670 L 250 670 L 355 499 Z" unicode="û" />
<glyph horiz-adv-x="435" d="M 50 0 L 50 0 Z M 50 436 L 123 436 L 123 141 C 123 110 131 87 147 72 C 163 57 184 50 211 50 C 237 50 260 58 280 75 C 300 92 310 122 310 165 L 310 436 L 383 436 L 383 0 L 311 0 L 311 69 C 302 46 287 28 265 14 C 243 0 216 -7 184 -7 C 146 -7 114 3 88 25 C 62 47 50 80 50 126 L 50 436 Z M 216 500 L 216 500 Z M 323 500 L 263 500 L 263 656 L 323 656 L 323 500 Z M 167 500 L 107 500 L 107 656 L 167 656 L 167 500 Z" unicode="ü" />
<glyph horiz-adv-x="370" d="M 0 0 L 0 0 Z M 370 436 L 174 -105 C 160 -141 142 -165 119 -179 C 96 -193 73 -200 50 -200 C 38 -200 27 -198 17 -196 C 7 -194 0 -191 -5 -189 L 17 -126 C 19 -127 24 -129 32 -131 C 39 -133 47 -135 55 -135 C 66 -135 77 -130 89 -120 C 100 -110 110 -95 118 -74 L 154 33 L -1 436 L 77 436 L 190 125 L 297 436 L 370 436 Z M 186 498 L 186 498 Z M 99 498 L 189 668 L 274 668 L 171 498 L 99 498 Z" unicode="ý" />
<glyph horiz-adv-x="444" d="M 52 -200 L 52 761 L 121 761 L 121 341 C 127 367 143 391 167 412 C 191 432 221 443 257 443 C 283 443 307 437 327 426 C 347 415 364 400 378 381 C 391 362 401 340 408 314 C 415 288 419 260 419 230 C 419 156 403 99 372 57 C 340 15 301 -5 254 -5 C 220 -5 191 3 168 19 C 144 35 129 54 122 75 L 122 -200 L 52 -200 Z M 230 50 C 263 50 290 64 311 93 C 331 122 342 163 342 216 C 342 264 333 304 315 336 C 297 368 269 384 231 384 C 202 384 176 370 154 343 C 131 316 120 272 120 210 C 120 151 131 110 153 86 C 175 62 200 50 230 50 Z" unicode="þ" />
<glyph horiz-adv-x="370" d="M 0 0 L 0 0 Z M 370 436 L 174 -105 C 160 -141 142 -165 119 -179 C 96 -193 73 -200 50 -200 C 38 -200 27 -198 17 -196 C 7 -194 0 -191 -5 -189 L 17 -126 C 19 -127 24 -129 32 -131 C 39 -133 47 -135 55 -135 C 66 -135 77 -130 89 -120 C 100 -110 110 -95 118 -74 L 154 33 L -1 436 L 77 436 L 190 125 L 297 436 L 370 436 Z M 186 500 L 186 500 Z M 293 500 L 233 500 L 233 656 L 293 656 L 293 500 Z M 137 500 L 77 500 L 77 656 L 137 656 L 137 500 Z" unicode="ÿ" />
<glyph horiz-adv-x="530" d="M 4 0 L 4 0 Z M 527 0 L 448 0 L 384 200 L 142 200 L 80 0 L 4 0 L 239 734 L 291 734 L 527 0 Z M 366 267 L 263 586 L 160 267 L 366 267 Z M 262 821 L 262 821 Z M 382 821 L 142 821 L 142 876 L 382 876 L 382 821 Z" unicode="Ā" />
<glyph horiz-adv-x="400" d="M 22 0 L 22 0 Z M 351 0 L 284 0 L 284 54 C 272 38 254 23 232 11 C 210 0 183 -7 153 -7 C 115 -7 83 4 59 28 C 34 52 22 85 22 128 C 22 174 37 208 69 232 C 101 255 141 268 189 271 L 281 277 L 281 301 C 281 329 272 351 256 365 C 240 379 217 386 188 386 C 162 386 139 381 121 373 C 102 365 88 356 80 348 L 54 397 C 68 410 88 421 113 431 C 137 440 168 445 204 445 C 245 445 280 433 308 411 C 336 389 351 354 351 308 L 351 0 Z M 282 102 L 282 222 L 200 217 C 170 215 144 207 123 193 C 102 179 92 158 92 130 C 92 104 100 85 118 73 C 135 61 155 55 178 55 C 202 55 224 60 242 70 C 260 80 273 90 282 102 Z M 194 527 L 194 527 Z M 314 527 L 74 527 L 74 582 L 314 582 L 314 527 Z" unicode="ā" />
<glyph horiz-adv-x="530" d="M 4 0 L 4 0 Z M 527 0 L 448 0 L 384 200 L 142 200 L 80 0 L 4 0 L 239 734 L 291 734 L 527 0 Z M 366 267 L 263 586 L 160 267 L 366 267 Z M 262 799 L 262 799 Z M 333 956 L 395 956 C 391 901 376 861 352 836 C 328 811 298 799 262 799 C 226 799 195 811 171 836 C 147 861 133 901 130 956 L 192 956 C 194 924 200 898 210 879 C 220 859 238 850 262 850 C 286 850 303 859 314 878 C 324 896 331 922 333 956 Z" unicode="Ă" />
<glyph horiz-adv-x="400" d="M 22 0 L 22 0 Z M 351 0 L 284 0 L 284 54 C 272 38 254 23 232 11 C 210 0 183 -7 153 -7 C 115 -7 83 4 59 28 C 34 52 22 85 22 128 C 22 174 37 208 69 232 C 101 255 141 268 189 271 L 281 277 L 281 301 C 281 329 272 351 256 365 C 240 379 217 386 188 386 C 162 386 139 381 121 373 C 102 365 88 356 80 348 L 54 397 C 68 410 88 421 113 431 C 137 440 168 445 204 445 C 245 445 280 433 308 411 C 336 389 351 354 351 308 L 351 0 Z M 282 102 L 282 222 L 200 217 C 170 215 144 207 123 193 C 102 179 92 158 92 130 C 92 104 100 85 118 73 C 135 61 155 55 178 55 C 202 55 224 60 242 70 C 260 80 273 90 282 102 Z M 194 505 L 194 505 Z M 265 662 L 327 662 C 323 607 308 567 284 542 C 260 517 230 505 194 505 C 158 505 127 517 103 542 C 79 567 65 607 62 662 L 124 662 C 126 630 132 604 142 585 C 152 565 170 556 194 556 C 218 556 235 565 246 584 C 256 602 263 628 265 662 Z" unicode="ă" />
<glyph horiz-adv-x="530" d="M 4 0 L 4 0 Z M 527 0 L 448 0 L 384 200 L 142 200 L 80 0 L 4 0 L 239 734 L 291 734 L 527 0 Z M 366 267 L 263 586 L 160 267 L 366 267 Z M 450 -9 L 450 -9 Z M 551 -105 L 573 -136 C 554 -155 532 -170 508 -181 C 484 -191 457 -197 429 -197 C 397 -197 372 -189 354 -175 C 336 -160 327 -142 327 -120 C 327 -95 336 -72 356 -51 C 375 -29 405 -11 447 5 L 497 4 C 466 -9 440 -24 420 -40 C 400 -56 390 -73 390 -91 C 390 -106 395 -118 407 -127 C 419 -136 434 -141 452 -141 C 472 -141 491 -137 508 -131 C 525 -124 539 -115 551 -105 Z" unicode="Ą" />
<glyph horiz-adv-x="400" d="M 22 0 L 22 0 Z M 351 0 L 284 0 L 284 54 C 272 38 254 23 232 11 C 210 0 183 -7 153 -7 C 115 -7 83 4 59 28 C 34 52 22 85 22 128 C 22 174 37 208 69 232 C 101 255 141 268 189 271 L 281 277 L 281 301 C 281 329 272 351 256 365 C 240 379 217 386 188 386 C 162 386 139 381 121 373 C 102 365 88 356 80 348 L 54 397 C 68 410 88 421 113 431 C 137 440 168 445 204 445 C 245 445 280 433 308 411 C 336 389 351 354 351 308 L 351 0 Z M 282 102 L 282 222 L 200 217 C 170 215 144 207 123 193 C 102 179 92 158 92 130 C 92 104 100 85 118 73 C 135 61 155 55 178 55 C 202 55 224 60 242 70 C 260 80 273 90 282 102 Z M 290 -9 L 290 -9 Z M 391 -105 L 413 -136 C 394 -155 372 -170 348 -181 C 324 -191 297 -197 269 -197 C 237 -197 212 -189 194 -175 C 176 -160 167 -142 167 -120 C 167 -95 176 -72 196 -51 C 215 -29 245 -11 287 5 L 337 4 C 306 -9 280 -24 260 -40 C 240 -56 230 -73 230 -91 C 230 -106 235 -118 247 -127 C 259 -136 274 -141 292 -141 C 312 -141 331 -137 348 -131 C 365 -124 379 -115 391 -105 Z" unicode="ą" />
<glyph horiz-adv-x="552" d="M 42 0 L 42 0 Z M 316 -9 C 278 -9 242 -1 208 15 C 174 31 145 54 121 85 C 97 116 77 155 63 202 C 49 249 42 303 42 365 C 42 422 48 474 61 520 C 74 566 92 606 116 638 C 140 670 169 695 203 713 C 237 730 275 739 317 739 C 377 739 424 727 457 703 C 490 679 516 649 535 615 L 472 575 C 457 599 438 620 414 638 C 390 656 358 665 319 665 C 258 665 210 639 175 588 C 140 537 123 461 123 361 C 123 309 128 264 140 226 C 151 188 166 158 184 134 C 202 110 224 92 248 81 C 272 69 296 64 322 64 C 363 64 396 73 422 91 C 448 109 469 134 486 164 L 545 129 C 524 87 495 54 457 29 C 419 3 372 -9 316 -9 Z M 318 792 L 318 792 Z M 231 792 L 321 962 L 406 962 L 303 792 L 231 792 Z" unicode="Ć" />
<glyph horiz-adv-x="376" d="M 25 0 L 25 0 Z M 317 119 L 368 83 C 357 63 340 43 318 23 C 295 3 261 -7 215 -7 C 185 -7 158 -1 134 10 C 110 21 91 36 75 56 C 59 76 46 99 38 127 C 29 154 25 184 25 217 C 25 247 29 276 38 304 C 46 332 59 356 76 377 C 92 397 113 414 137 426 C 161 438 188 444 218 444 C 258 444 290 434 315 415 C 340 396 359 376 371 356 L 318 315 C 308 332 295 347 280 360 C 264 373 243 380 217 380 C 182 380 154 364 133 334 C 112 303 102 265 102 219 C 102 169 112 129 134 99 C 156 69 185 54 221 54 C 249 54 270 61 284 76 C 298 91 309 105 317 119 Z M 207 498 L 207 498 Z M 120 498 L 210 668 L 295 668 L 192 498 L 120 498 Z" unicode="ć" />
<glyph horiz-adv-x="552" d="M 42 0 L 42 0 Z M 316 -9 C 278 -9 242 -1 208 15 C 174 31 145 54 121 85 C 97 116 77 155 63 202 C 49 249 42 303 42 365 C 42 422 48 474 61 520 C 74 566 92 606 116 638 C 140 670 169 695 203 713 C 237 730 275 739 317 739 C 377 739 424 727 457 703 C 490 679 516 649 535 615 L 472 575 C 457 599 438 620 414 638 C 390 656 358 665 319 665 C 258 665 210 639 175 588 C 140 537 123 461 123 361 C 123 309 128 264 140 226 C 151 188 166 158 184 134 C 202 110 224 92 248 81 C 272 69 296 64 322 64 C 363 64 396 73 422 91 C 448 109 469 134 486 164 L 545 129 C 524 87 495 54 457 29 C 419 3 372 -9 316 -9 Z M 318 793 L 318 793 Z M 457 793 L 393 793 L 318 914 L 241 793 L 180 793 L 285 964 L 352 964 L 457 793 Z" unicode="Ĉ" />
<glyph horiz-adv-x="376" d="M 25 0 L 25 0 Z M 317 119 L 368 83 C 357 63 340 43 318 23 C 295 3 261 -7 215 -7 C 185 -7 158 -1 134 10 C 110 21 91 36 75 56 C 59 76 46 99 38 127 C 29 154 25 184 25 217 C 25 247 29 276 38 304 C 46 332 59 356 76 377 C 92 397 113 414 137 426 C 161 438 188 444 218 444 C 258 444 290 434 315 415 C 340 396 359 376 371 356 L 318 315 C 308 332 295 347 280 360 C 264 373 243 380 217 380 C 182 380 154 364 133 334 C 112 303 102 265 102 219 C 102 169 112 129 134 99 C 156 69 185 54 221 54 C 249 54 270 61 284 76 C 298 91 309 105 317 119 Z M 207 499 L 207 499 Z M 346 499 L 282 499 L 207 620 L 130 499 L 69 499 L 174 670 L 241 670 L 346 499 Z" unicode="ĉ" />
<glyph horiz-adv-x="552" d="M 42 0 L 42 0 Z M 316 -9 C 278 -9 242 -1 208 15 C 174 31 145 54 121 85 C 97 116 77 155 63 202 C 49 249 42 303 42 365 C 42 422 48 474 61 520 C 74 566 92 606 116 638 C 140 670 169 695 203 713 C 237 730 275 739 317 739 C 377 739 424 727 457 703 C 490 679 516 649 535 615 L 472 575 C 457 599 438 620 414 638 C 390 656 358 665 319 665 C 258 665 210 639 175 588 C 140 537 123 461 123 361 C 123 309 128 264 140 226 C 151 188 166 158 184 134 C 202 110 224 92 248 81 C 272 69 296 64 322 64 C 363 64 396 73 422 91 C 448 109 469 134 486 164 L 545 129 C 524 87 495 54 457 29 C 419 3 372 -9 316 -9 Z M 318 805 L 318 805 Z M 352 805 L 284 805 L 284 932 L 352 932 L 352 805 Z" unicode="Ċ" />
<glyph horiz-adv-x="376" d="M 25 0 L 25 0 Z M 317 119 L 368 83 C 357 63 340 43 318 23 C 295 3 261 -7 215 -7 C 185 -7 158 -1 134 10 C 110 21 91 36 75 56 C 59 76 46 99 38 127 C 29 154 25 184 25 217 C 25 247 29 276 38 304 C 46 332 59 356 76 377 C 92 397 113 414 137 426 C 161 438 188 444 218 444 C 258 444 290 434 315 415 C 340 396 359 376 371 356 L 318 315 C 308 332 295 347 280 360 C 264 373 243 380 217 380 C 182 380 154 364 133 334 C 112 303 102 265 102 219 C 102 169 112 129 134 99 C 156 69 185 54 221 54 C 249 54 270 61 284 76 C 298 91 309 105 317 119 Z M 207 511 L 207 511 Z M 241 511 L 173 511 L 173 638 L 241 638 L 241 511 Z" unicode="ċ" />
<glyph horiz-adv-x="552" d="M 42 0 L 42 0 Z M 316 -9 C 278 -9 242 -1 208 15 C 174 31 145 54 121 85 C 97 116 77 155 63 202 C 49 249 42 303 42 365 C 42 422 48 474 61 520 C 74 566 92 606 116 638 C 140 670 169 695 203 713 C 237 730 275 739 317 739 C 377 739 424 727 457 703 C 490 679 516 649 535 615 L 472 575 C 457 599 438 620 414 638 C 390 656 358 665 319 665 C 258 665 210 639 175 588 C 140 537 123 461 123 361 C 123 309 128 264 140 226 C 151 188 166 158 184 134 C 202 110 224 92 248 81 C 272 69 296 64 322 64 C 363 64 396 73 422 91 C 448 109 469 134 486 164 L 545 129 C 524 87 495 54 457 29 C 419 3 372 -9 316 -9 Z M 318 793 L 318 793 Z M 180 964 L 243 964 L 319 843 L 395 964 L 457 964 L 352 793 L 285 793 L 180 964 Z" unicode="Č" />
<glyph horiz-adv-x="376" d="M 25 0 L 25 0 Z M 317 119 L 368 83 C 357 63 340 43 318 23 C 295 3 261 -7 215 -7 C 185 -7 158 -1 134 10 C 110 21 91 36 75 56 C 59 76 46 99 38 127 C 29 154 25 184 25 217 C 25 247 29 276 38 304 C 46 332 59 356 76 377 C 92 397 113 414 137 426 C 161 438 188 444 218 444 C 258 444 290 434 315 415 C 340 396 359 376 371 356 L 318 315 C 308 332 295 347 280 360 C 264 373 243 380 217 380 C 182 380 154 364 133 334 C 112 303 102 265 102 219 C 102 169 112 129 134 99 C 156 69 185 54 221 54 C 249 54 270 61 284 76 C 298 91 309 105 317 119 Z M 207 499 L 207 499 Z M 69 670 L 132 670 L 208 549 L 284 670 L 346 670 L 241 499 L 174 499 L 69 670 Z" unicode="č" />
<glyph horiz-adv-x="602" d="M 77 0 L 77 0 Z M 77 0 L 77 730 L 244 730 C 294 730 338 721 378 704 C 418 687 451 663 478 632 C 505 600 526 562 540 518 C 554 473 561 423 561 369 C 561 317 554 269 540 224 C 526 178 506 139 479 106 C 452 73 418 47 377 28 C 336 9 289 0 235 0 L 77 0 Z M 156 70 L 232 70 C 275 70 312 77 344 92 C 375 106 401 127 421 153 C 441 179 455 211 465 247 C 474 283 479 323 479 367 C 479 461 458 533 416 583 C 374 633 317 659 244 659 L 156 659 L 156 70 Z M 276 793 L 276 793 Z M 138 964 L 201 964 L 277 843 L 353 964 L 415 964 L 310 793 L 243 793 L 138 964 Z" unicode="Ď" />
<glyph horiz-adv-x="453" d="M 25 0 L 25 0 Z M 197 -6 C 171 -6 147 0 126 11 C 104 22 86 37 71 57 C 56 77 45 100 37 126 C 29 152 25 181 25 212 C 25 281 41 337 75 379 C 108 421 149 443 199 443 C 234 443 263 433 285 415 C 307 396 323 375 331 351 L 331 761 L 401 761 L 401 0 L 333 0 L 333 87 C 325 64 311 43 290 23 C 268 3 237 -6 197 -6 Z M 219 52 C 251 52 278 67 300 97 C 322 127 333 169 333 222 C 333 274 321 314 297 341 C 273 368 246 382 214 382 C 180 382 152 367 132 337 C 112 307 102 268 102 218 C 102 170 112 131 132 99 C 152 67 181 52 219 52 Z M 525 622 L 521 490 L 459 490 L 455 622 L 455 730 L 525 730 L 525 622 Z" unicode="ď" />
<glyph horiz-adv-x="602" d="M 26 0 L 26 0 Z M 561 365 C 561 314 554 266 540 222 C 526 178 506 139 479 106 C 452 73 418 47 377 28 C 336 9 289 0 235 0 L 77 0 L 77 332 L 26 332 L 26 392 L 77 392 L 77 730 L 244 730 C 294 730 339 721 379 704 C 418 686 451 662 478 631 C 505 599 526 561 540 516 C 554 470 561 420 561 365 Z M 156 65 L 231 65 C 275 65 313 72 345 88 C 377 103 402 124 422 150 C 442 176 456 208 466 245 C 475 281 480 321 480 363 C 480 461 459 535 417 587 C 375 638 318 664 245 664 L 156 664 L 156 392 L 337 392 L 337 332 L 156 332 L 156 65 Z" unicode="Đ" />
<glyph horiz-adv-x="453" d="M 333 87 C 325 64 311 43 290 23 C 268 3 237 -6 197 -6 C 171 -6 147 0 126 11 C 104 22 86 37 71 57 C 56 77 45 100 37 126 C 29 152 25 181 25 212 C 25 281 41 337 75 379 C 108 421 149 443 199 443 C 234 443 263 433 285 415 C 307 396 323 375 331 351 L 331 566 L 216 566 L 216 629 L 331 629 L 331 761 L 401 761 L 401 629 L 444 629 L 444 566 L 401 566 L 401 0 L 333 0 L 333 87 Z M 219 52 C 251 52 278 67 300 97 C 322 127 333 169 333 222 C 333 274 321 314 297 341 C 273 368 246 382 214 382 C 180 382 152 367 132 337 C 112 307 102 268 102 218 C 102 170 112 131 132 99 C 152 67 181 52 219 52 Z" unicode="đ" />
<glyph horiz-adv-x="449" d="M 77 0 L 77 0 Z M 423 0 L 77 0 L 77 730 L 406 730 L 406 658 L 155 658 L 155 399 L 396 399 L 396 327 L 155 327 L 155 72 L 423 72 L 423 0 Z M 242 821 L 242 821 Z M 362 821 L 122 821 L 122 876 L 362 876 L 362 821 Z" unicode="Ē" />
<glyph horiz-adv-x="416" d="M 26 0 L 26 0 Z M 220 -7 C 163 -7 116 12 80 52 C 44 91 26 146 26 216 C 26 284 43 339 79 381 C 115 423 159 444 212 444 C 269 444 314 423 346 381 C 378 339 395 279 395 200 L 97 200 C 97 148 109 110 133 86 C 156 62 186 51 222 51 C 256 51 281 57 299 69 C 316 81 331 95 344 110 L 384 71 C 369 52 350 34 326 18 C 302 1 266 -7 220 -7 Z M 100 253 L 325 253 C 324 291 314 323 295 348 C 275 373 249 386 215 386 C 181 386 154 373 134 348 C 114 323 102 291 100 253 Z M 212 527 L 212 527 Z M 332 527 L 92 527 L 92 582 L 332 582 L 332 527 Z" unicode="ē" />
<glyph horiz-adv-x="449" d="M 77 0 L 77 0 Z M 423 0 L 77 0 L 77 730 L 406 730 L 406 658 L 155 658 L 155 399 L 396 399 L 396 327 L 155 327 L 155 72 L 423 72 L 423 0 Z M 242 799 L 242 799 Z M 313 956 L 375 956 C 371 901 356 861 332 836 C 308 811 278 799 242 799 C 206 799 175 811 151 836 C 127 861 113 901 110 956 L 172 956 C 174 924 180 898 190 879 C 200 859 218 850 242 850 C 266 850 283 859 294 878 C 304 896 311 922 313 956 Z" unicode="Ĕ" />
<glyph horiz-adv-x="416" d="M 26 0 L 26 0 Z M 220 -7 C 163 -7 116 12 80 52 C 44 91 26 146 26 216 C 26 284 43 339 79 381 C 115 423 159 444 212 444 C 269 444 314 423 346 381 C 378 339 395 279 395 200 L 97 200 C 97 148 109 110 133 86 C 156 62 186 51 222 51 C 256 51 281 57 299 69 C 316 81 331 95 344 110 L 384 71 C 369 52 350 34 326 18 C 302 1 266 -7 220 -7 Z M 100 253 L 325 253 C 324 291 314 323 295 348 C 275 373 249 386 215 386 C 181 386 154 373 134 348 C 114 323 102 291 100 253 Z M 212 505 L 212 505 Z M 283 662 L 345 662 C 341 607 326 567 302 542 C 278 517 248 505 212 505 C 176 505 145 517 121 542 C 97 567 83 607 80 662 L 142 662 C 144 630 150 604 160 585 C 170 565 188 556 212 556 C 236 556 253 565 264 584 C 274 602 281 628 283 662 Z" unicode="ĕ" />
<glyph horiz-adv-x="449" d="M 77 0 L 77 0 Z M 423 0 L 77 0 L 77 730 L 406 730 L 406 658 L 155 658 L 155 399 L 396 399 L 396 327 L 155 327 L 155 72 L 423 72 L 423 0 Z M 242 805 L 242 805 Z M 276 805 L 208 805 L 208 932 L 276 932 L 276 805 Z" unicode="Ė" />
<glyph horiz-adv-x="416" d="M 26 0 L 26 0 Z M 220 -7 C 163 -7 116 12 80 52 C 44 91 26 146 26 216 C 26 284 43 339 79 381 C 115 423 159 444 212 444 C 269 444 314 423 346 381 C 378 339 395 279 395 200 L 97 200 C 97 148 109 110 133 86 C 156 62 186 51 222 51 C 256 51 281 57 299 69 C 316 81 331 95 344 110 L 384 71 C 369 52 350 34 326 18 C 302 1 266 -7 220 -7 Z M 100 253 L 325 253 C 324 291 314 323 295 348 C 275 373 249 386 215 386 C 181 386 154 373 134 348 C 114 323 102 291 100 253 Z M 212 511 L 212 511 Z M 246 511 L 178 511 L 178 638 L 246 638 L 246 511 Z" unicode="ė" />
<glyph horiz-adv-x="449" d="M 77 0 L 77 0 Z M 423 0 L 77 0 L 77 730 L 406 730 L 406 658 L 155 658 L 155 399 L 396 399 L 396 327 L 155 327 L 155 72 L 423 72 L 423 0 Z M 376 -9 L 376 -9 Z M 477 -105 L 499 -136 C 480 -155 458 -170 434 -181 C 410 -191 383 -197 355 -197 C 323 -197 298 -189 280 -175 C 262 -160 253 -142 253 -120 C 253 -95 262 -72 282 -51 C 301 -29 331 -11 373 5 L 423 4 C 392 -9 366 -24 346 -40 C 326 -56 316 -73 316 -91 C 316 -106 321 -118 333 -127 C 345 -136 360 -141 378 -141 C 398 -141 417 -137 434 -131 C 451 -124 465 -115 477 -105 Z" unicode="Ę" />
<glyph horiz-adv-x="416" d="M 26 0 L 26 0 Z M 220 -7 C 163 -7 116 12 80 52 C 44 91 26 146 26 216 C 26 284 43 339 79 381 C 115 423 159 444 212 444 C 269 444 314 423 346 381 C 378 339 395 279 395 200 L 97 200 C 97 148 109 110 133 86 C 156 62 186 51 222 51 C 256 51 281 57 299 69 C 316 81 331 95 344 110 L 384 71 C 369 52 350 34 326 18 C 302 1 266 -7 220 -7 Z M 100 253 L 325 253 C 324 291 314 323 295 348 C 275 373 249 386 215 386 C 181 386 154 373 134 348 C 114 323 102 291 100 253 Z M 245 -9 L 245 -9 Z M 346 -105 L 368 -136 C 349 -155 327 -170 303 -181 C 279 -191 252 -197 224 -197 C 192 -197 167 -189 149 -175 C 131 -160 122 -142 122 -120 C 122 -95 131 -72 151 -51 C 170 -29 200 -11 242 5 L 292 4 C 261 -9 235 -24 215 -40 C 195 -56 185 -73 185 -91 C 185 -106 190 -118 202 -127 C 214 -136 229 -141 247 -141 C 267 -141 286 -137 303 -131 C 320 -124 334 -115 346 -105 Z" unicode="ę" />
<glyph horiz-adv-x="449" d="M 77 0 L 77 0 Z M 423 0 L 77 0 L 77 730 L 406 730 L 406 658 L 155 658 L 155 399 L 396 399 L 396 327 L 155 327 L 155 72 L 423 72 L 423 0 Z M 242 793 L 242 793 Z M 104 964 L 167 964 L 243 843 L 319 964 L 381 964 L 276 793 L 209 793 L 104 964 Z" unicode="Ě" />
<glyph horiz-adv-x="416" d="M 26 0 L 26 0 Z M 220 -7 C 163 -7 116 12 80 52 C 44 91 26 146 26 216 C 26 284 43 339 79 381 C 115 423 159 444 212 444 C 269 444 314 423 346 381 C 378 339 395 279 395 200 L 97 200 C 97 148 109 110 133 86 C 156 62 186 51 222 51 C 256 51 281 57 299 69 C 316 81 331 95 344 110 L 384 71 C 369 52 350 34 326 18 C 302 1 266 -7 220 -7 Z M 100 253 L 325 253 C 324 291 314 323 295 348 C 275 373 249 386 215 386 C 181 386 154 373 134 348 C 114 323 102 291 100 253 Z M 212 499 L 212 499 Z M 74 670 L 137 670 L 213 549 L 289 670 L 351 670 L 246 499 L 179 499 L 74 670 Z" unicode="ě" />
<glyph horiz-adv-x="607" d="M 41 0 L 41 0 Z M 330 357 L 570 357 L 570 128 C 548 86 517 52 475 28 C 433 3 382 -9 322 -9 C 282 -9 245 0 211 17 C 177 35 147 60 122 92 C 97 124 77 164 63 210 C 48 256 41 308 41 365 C 41 422 48 474 62 520 C 76 566 96 606 121 638 C 146 670 176 695 211 713 C 245 730 283 739 324 739 C 384 739 430 726 464 702 C 497 678 522 650 540 618 L 477 582 C 462 604 443 624 419 640 C 395 656 362 665 322 665 C 264 665 216 639 178 587 C 140 535 122 461 122 364 C 122 270 141 195 180 141 C 219 87 268 60 326 60 C 366 60 400 67 430 83 C 460 99 482 121 498 149 L 498 287 L 330 287 L 330 357 Z M 321 793 L 321 793 Z M 460 793 L 396 793 L 321 914 L 244 793 L 183 793 L 288 964 L 355 964 L 460 793 Z" unicode="Ĝ" />
<glyph horiz-adv-x="452" d="M 25 0 L 25 0 Z M 201 -4 C 147 -4 105 16 73 56 C 41 96 25 150 25 216 C 25 285 41 340 75 381 C 109 422 150 443 200 443 C 232 443 260 433 283 414 C 306 395 322 374 331 352 L 331 436 L 400 436 L 400 14 C 400 -21 394 -52 384 -79 C 373 -105 359 -127 342 -144 C 324 -161 304 -174 281 -183 C 258 -191 234 -196 210 -196 C 176 -196 148 -192 127 -185 C 106 -178 90 -171 80 -165 L 102 -110 C 112 -116 126 -122 143 -128 C 159 -133 180 -136 206 -136 C 240 -136 269 -123 293 -99 C 317 -75 329 -40 329 6 L 329 88 C 321 64 306 43 284 24 C 262 5 234 -4 201 -4 Z M 218 50 C 250 50 277 65 299 95 C 321 125 333 167 333 222 C 333 274 320 314 296 342 C 272 370 244 385 214 385 C 181 385 154 370 133 340 C 112 310 102 269 102 219 C 102 169 111 129 131 97 C 151 65 180 50 218 50 Z M 209 499 L 209 499 Z M 348 499 L 284 499 L 209 620 L 132 499 L 71 499 L 176 670 L 243 670 L 348 499 Z" unicode="ĝ" />
<glyph horiz-adv-x="607" d="M 41 0 L 41 0 Z M 330 357 L 570 357 L 570 128 C 548 86 517 52 475 28 C 433 3 382 -9 322 -9 C 282 -9 245 0 211 17 C 177 35 147 60 122 92 C 97 124 77 164 63 210 C 48 256 41 308 41 365 C 41 422 48 474 62 520 C 76 566 96 606 121 638 C 146 670 176 695 211 713 C 245 730 283 739 324 739 C 384 739 430 726 464 702 C 497 678 522 650 540 618 L 477 582 C 462 604 443 624 419 640 C 395 656 362 665 322 665 C 264 665 216 639 178 587 C 140 535 122 461 122 364 C 122 270 141 195 180 141 C 219 87 268 60 326 60 C 366 60 400 67 430 83 C 460 99 482 121 498 149 L 498 287 L 330 287 L 330 357 Z M 321 799 L 321 799 Z M 392 956 L 454 956 C 450 901 435 861 411 836 C 387 811 357 799 321 799 C 285 799 254 811 230 836 C 206 861 192 901 189 956 L 251 956 C 253 924 259 898 269 879 C 279 859 297 850 321 850 C 345 850 362 859 373 878 C 383 896 390 922 392 956 Z" unicode="Ğ" />
<glyph horiz-adv-x="452" d="M 25 0 L 25 0 Z M 201 -4 C 147 -4 105 16 73 56 C 41 96 25 150 25 216 C 25 285 41 340 75 381 C 109 422 150 443 200 443 C 232 443 260 433 283 414 C 306 395 322 374 331 352 L 331 436 L 400 436 L 400 14 C 400 -21 394 -52 384 -79 C 373 -105 359 -127 342 -144 C 324 -161 304 -174 281 -183 C 258 -191 234 -196 210 -196 C 176 -196 148 -192 127 -185 C 106 -178 90 -171 80 -165 L 102 -110 C 112 -116 126 -122 143 -128 C 159 -133 180 -136 206 -136 C 240 -136 269 -123 293 -99 C 317 -75 329 -40 329 6 L 329 88 C 321 64 306 43 284 24 C 262 5 234 -4 201 -4 Z M 218 50 C 250 50 277 65 299 95 C 321 125 333 167 333 222 C 333 274 320 314 296 342 C 272 370 244 385 214 385 C 181 385 154 370 133 340 C 112 310 102 269 102 219 C 102 169 111 129 131 97 C 151 65 180 50 218 50 Z M 209 505 L 209 505 Z M 280 662 L 342 662 C 338 607 323 567 299 542 C 275 517 245 505 209 505 C 173 505 142 517 118 542 C 94 567 80 607 77 662 L 139 662 C 141 630 147 604 157 585 C 167 565 185 556 209 556 C 233 556 250 565 261 584 C 271 602 278 628 280 662 Z" unicode="ğ" />
<glyph horiz-adv-x="607" d="M 41 0 L 41 0 Z M 330 357 L 570 357 L 570 128 C 548 86 517 52 475 28 C 433 3 382 -9 322 -9 C 282 -9 245 0 211 17 C 177 35 147 60 122 92 C 97 124 77 164 63 210 C 48 256 41 308 41 365 C 41 422 48 474 62 520 C 76 566 96 606 121 638 C 146 670 176 695 211 713 C 245 730 283 739 324 739 C 384 739 430 726 464 702 C 497 678 522 650 540 618 L 477 582 C 462 604 443 624 419 640 C 395 656 362 665 322 665 C 264 665 216 639 178 587 C 140 535 122 461 122 364 C 122 270 141 195 180 141 C 219 87 268 60 326 60 C 366 60 400 67 430 83 C 460 99 482 121 498 149 L 498 287 L 330 287 L 330 357 Z M 321 805 L 321 805 Z M 355 805 L 287 805 L 287 932 L 355 932 L 355 805 Z" unicode="Ġ" />
<glyph horiz-adv-x="452" d="M 25 0 L 25 0 Z M 201 -4 C 147 -4 105 16 73 56 C 41 96 25 150 25 216 C 25 285 41 340 75 381 C 109 422 150 443 200 443 C 232 443 260 433 283 414 C 306 395 322 374 331 352 L 331 436 L 400 436 L 400 14 C 400 -21 394 -52 384 -79 C 373 -105 359 -127 342 -144 C 324 -161 304 -174 281 -183 C 258 -191 234 -196 210 -196 C 176 -196 148 -192 127 -185 C 106 -178 90 -171 80 -165 L 102 -110 C 112 -116 126 -122 143 -128 C 159 -133 180 -136 206 -136 C 240 -136 269 -123 293 -99 C 317 -75 329 -40 329 6 L 329 88 C 321 64 306 43 284 24 C 262 5 234 -4 201 -4 Z M 218 50 C 250 50 277 65 299 95 C 321 125 333 167 333 222 C 333 274 320 314 296 342 C 272 370 244 385 214 385 C 181 385 154 370 133 340 C 112 310 102 269 102 219 C 102 169 111 129 131 97 C 151 65 180 50 218 50 Z M 209 511 L 209 511 Z M 243 511 L 175 511 L 175 638 L 243 638 L 243 511 Z" unicode="ġ" />
<glyph horiz-adv-x="607" d="M 41 0 L 41 0 Z M 330 357 L 570 357 L 570 128 C 548 86 517 52 475 28 C 433 3 382 -9 322 -9 C 282 -9 245 0 211 17 C 177 35 147 60 122 92 C 97 124 77 164 63 210 C 48 256 41 308 41 365 C 41 422 48 474 62 520 C 76 566 96 606 121 638 C 146 670 176 695 211 713 C 245 730 283 739 324 739 C 384 739 430 726 464 702 C 497 678 522 650 540 618 L 477 582 C 462 604 443 624 419 640 C 395 656 362 665 322 665 C 264 665 216 639 178 587 C 140 535 122 461 122 364 C 122 270 141 195 180 141 C 219 87 268 60 326 60 C 366 60 400 67 430 83 C 460 99 482 121 498 149 L 498 287 L 330 287 L 330 357 Z" unicode="Ģ" />
<glyph horiz-adv-x="452" d="M 25 0 L 25 0 Z M 201 -4 C 147 -4 105 16 73 56 C 41 96 25 150 25 216 C 25 285 41 340 75 381 C 109 422 150 443 200 443 C 232 443 260 433 283 414 C 306 395 322 374 331 352 L 331 436 L 400 436 L 400 14 C 400 -21 394 -52 384 -79 C 373 -105 359 -127 342 -144 C 324 -161 304 -174 281 -183 C 258 -191 234 -196 210 -196 C 176 -196 148 -192 127 -185 C 106 -178 90 -171 80 -165 L 102 -110 C 112 -116 126 -122 143 -128 C 159 -133 180 -136 206 -136 C 240 -136 269 -123 293 -99 C 317 -75 329 -40 329 6 L 329 88 C 321 64 306 43 284 24 C 262 5 234 -4 201 -4 Z M 218 50 C 250 50 277 65 299 95 C 321 125 333 167 333 222 C 333 274 320 314 296 342 C 272 370 244 385 214 385 C 181 385 154 370 133 340 C 112 310 102 269 102 219 C 102 169 111 129 131 97 C 151 65 180 50 218 50 Z" unicode="ģ" />
<glyph horiz-adv-x="611" d="M 77 0 L 77 0 Z M 534 0 L 454 0 L 454 323 L 157 323 L 157 0 L 77 0 L 77 730 L 157 730 L 157 398 L 454 398 L 454 730 L 534 730 L 534 0 Z M 306 793 L 306 793 Z M 445 793 L 381 793 L 306 914 L 229 793 L 168 793 L 273 964 L 340 964 L 445 793 Z" unicode="Ĥ" />
<glyph horiz-adv-x="435" d="M 52 0 L 52 0 Z M 385 0 L 312 0 L 312 290 C 312 320 304 343 288 358 C 272 373 250 381 224 381 C 198 381 175 372 155 356 C 135 339 125 310 125 270 L 125 0 L 52 0 L 52 761 L 121 761 L 121 359 C 127 383 141 403 163 419 C 185 435 214 444 250 444 C 290 444 323 433 348 411 C 372 389 385 355 385 311 L 385 0 Z M 219 824 L 219 824 Z M 358 824 L 294 824 L 219 945 L 142 824 L 81 824 L 186 995 L 253 995 L 358 824 Z" unicode="ĥ" />
<glyph horiz-adv-x="611" d="M 157 323 L 157 0 L 77 0 L 77 553 L 13 553 L 13 615 L 77 615 L 77 730 L 157 730 L 157 615 L 454 615 L 454 730 L 534 730 L 534 615 L 598 615 L 598 553 L 534 553 L 534 0 L 454 0 L 454 323 L 157 323 Z M 157 398 L 454 398 L 454 553 L 157 553 L 157 398 Z" unicode="Ħ" />
<glyph horiz-adv-x="435" d="M 125 270 L 125 0 L 52 0 L 52 566 L 9 566 L 9 629 L 52 629 L 52 761 L 121 761 L 121 629 L 240 629 L 240 566 L 121 566 L 121 359 C 127 383 141 403 163 419 C 185 435 214 444 250 444 C 290 444 323 433 348 411 C 372 389 385 355 385 311 L 385 0 L 312 0 L 312 290 C 312 320 304 343 288 358 C 272 373 250 381 224 381 C 198 381 175 372 155 356 C 135 339 125 310 125 270 Z" unicode="ħ" />
<glyph horiz-adv-x="243" d="M 0 0 L 0 0 Z M 162 0 L 81 0 L 81 730 L 162 730 L 162 0 Z M 122 801 L 122 801 Z M 215 932 L 270 932 C 270 888 263 855 251 833 C 239 811 223 801 204 801 C 186 801 171 805 158 813 C 145 821 134 830 125 838 C 115 846 105 853 95 861 C 85 869 76 873 66 873 C 56 873 48 867 41 855 C 33 843 30 827 30 805 L -25 805 C -25 849 -17 881 -2 903 C 13 925 30 936 49 936 C 65 936 79 931 91 923 C 103 914 115 905 126 897 C 134 889 143 881 153 874 C 162 866 171 863 181 863 C 189 863 197 868 204 880 C 211 892 215 909 215 932 Z" unicode="Ĩ" />
<glyph horiz-adv-x="185" d="M 0 0 L 0 0 Z M 129 0 L 56 0 L 56 436 L 129 436 L 129 0 Z M 92 507 L 92 507 Z M 185 638 L 240 638 C 240 594 233 561 221 539 C 209 517 193 507 174 507 C 156 507 141 511 128 519 C 115 527 104 536 95 544 C 85 552 75 559 65 567 C 55 575 46 579 36 579 C 26 579 18 573 11 561 C 3 549 0 533 0 511 L -55 511 C -55 555 -47 587 -32 609 C -16 631 0 642 19 642 C 35 642 49 637 61 629 C 73 620 85 611 96 603 C 104 595 113 587 123 580 C 132 572 141 569 151 569 C 159 569 167 574 174 586 C 181 598 185 615 185 638 Z" unicode="ĩ" />
<glyph horiz-adv-x="243" d="M 2 0 L 2 0 Z M 162 0 L 81 0 L 81 730 L 162 730 L 162 0 Z M 122 821 L 122 821 Z M 242 821 L 2 821 L 2 876 L 242 876 L 242 821 Z" unicode="Ī" />
<glyph horiz-adv-x="185" d="M 0 0 L 0 0 Z M 129 0 L 56 0 L 56 436 L 129 436 L 129 0 Z M 92 527 L 92 527 Z M 212 527 L -28 527 L -28 582 L 212 582 L 212 527 Z" unicode="ī" />
<glyph horiz-adv-x="243" d="M 0 0 L 0 0 Z M 162 0 L 81 0 L 81 730 L 162 730 L 162 0 Z M 122 799 L 122 799 Z M 193 956 L 255 956 C 251 901 236 861 212 836 C 188 811 158 799 122 799 C 86 799 55 811 31 836 C 7 861 -6 901 -10 956 L 52 956 C 54 924 60 898 70 879 C 80 859 98 850 122 850 C 146 850 163 859 174 878 C 184 896 191 922 193 956 Z" unicode="Ĭ" />
<glyph horiz-adv-x="185" d="M 0 0 L 0 0 Z M 129 0 L 56 0 L 56 436 L 129 436 L 129 0 Z M 92 505 L 92 505 Z M 163 662 L 225 662 C 221 607 206 567 182 542 C 158 517 128 505 92 505 C 56 505 25 517 1 542 C -22 567 -36 607 -40 662 L 22 662 C 24 630 30 604 40 585 C 50 565 68 556 92 556 C 116 556 133 565 144 584 C 154 602 161 628 163 662 Z" unicode="ĭ" />
<glyph horiz-adv-x="243" d="M 0 0 L 0 0 Z M 162 0 L 81 0 L 81 730 L 162 730 L 162 0 Z M 85 -10 L 85 -10 Z M 186 -106 L 208 -137 C 189 -156 167 -171 143 -182 C 119 -192 92 -198 64 -198 C 32 -198 7 -190 -10 -176 C -28 -161 -38 -143 -38 -121 C -38 -96 -28 -73 -9 -52 C 10 -30 40 -12 82 4 L 132 3 C 101 -10 75 -25 55 -41 C 35 -57 25 -74 25 -92 C 25 -107 30 -119 42 -128 C 54 -137 69 -142 87 -142 C 107 -142 126 -138 143 -132 C 160 -125 174 -116 186 -106 Z" unicode="Į" />
<glyph horiz-adv-x="185" d="M 0 0 L 0 0 Z M 54 539 L 54 618 L 131 618 L 131 539 L 54 539 Z M 56 0 L 56 436 L 129 436 L 129 0 L 56 0 Z M 62 -9 L 62 -9 Z M 163 -105 L 185 -136 C 166 -155 144 -170 120 -181 C 96 -191 69 -197 41 -197 C 9 -197 -15 -189 -33 -175 C -51 -160 -61 -142 -61 -120 C -61 -95 -51 -72 -32 -51 C -12 -29 17 -11 59 5 L 109 4 C 78 -9 52 -24 32 -40 C 12 -56 2 -73 2 -91 C 2 -106 7 -118 19 -127 C 31 -136 46 -141 64 -141 C 84 -141 103 -137 120 -131 C 137 -124 151 -115 163 -105 Z" unicode="į" />
<glyph horiz-adv-x="243" d="M 81 0 L 81 0 Z M 162 0 L 81 0 L 81 730 L 162 730 L 162 0 Z M 122 805 L 122 805 Z M 156 805 L 88 805 L 88 932 L 156 932 L 156 805 Z" unicode="İ" />
<glyph horiz-adv-x="185" d="M 129 0 L 56 0 L 56 436 L 129 436 L 129 0 Z" unicode="ı" />
<glyph horiz-adv-x="530" d="M 81 0 L 81 0 Z M 162 0 L 81 0 L 81 730 L 162 730 L 162 0 Z M 462 730 L 462 185 C 462 157 458 132 450 108 C 442 84 431 64 417 47 C 403 29 385 16 364 6 C 343 -4 319 -9 292 -9 C 279 -9 266 -8 252 -6 C 238 -4 228 -2 221 0 L 222 74 C 227 71 235 69 247 67 C 258 65 269 64 280 64 C 313 64 339 76 357 101 C 375 126 384 157 384 193 L 384 730 L 462 730 Z" unicode="Ĳ" />
<glyph horiz-adv-x="356" d="M 54 0 L 54 0 Z M 54 539 L 54 618 L 131 618 L 131 539 L 54 539 Z M 56 0 L 56 436 L 129 436 L 129 0 L 56 0 Z M 309 539 L 232 539 L 232 618 L 309 618 L 309 539 Z M 307 436 L 307 -99 C 307 -128 298 -152 281 -172 C 263 -191 240 -201 212 -201 C 203 -201 193 -200 182 -198 C 171 -196 164 -195 161 -193 L 172 -134 C 174 -134 177 -135 181 -136 C 185 -137 189 -138 194 -138 C 204 -138 214 -133 222 -125 C 230 -117 234 -105 234 -89 L 234 436 L 307 436 Z" unicode="ĳ" />
<glyph horiz-adv-x="316" d="M 10 0 L 10 0 Z M 251 730 L 251 185 C 251 157 247 132 239 108 C 231 84 220 64 206 47 C 192 29 174 16 153 6 C 132 -4 108 -9 81 -9 C 68 -9 55 -8 41 -6 C 27 -4 17 -2 10 0 L 11 74 C 16 71 24 69 36 67 C 47 65 58 64 69 64 C 102 64 128 76 146 101 C 164 126 173 157 173 193 L 173 730 L 251 730 Z M 212 793 L 212 793 Z M 351 793 L 287 793 L 212 914 L 135 793 L 74 793 L 179 964 L 246 964 L 351 793 Z" unicode="Ĵ" />
<glyph horiz-adv-x="182" d="M 0 0 L 0 0 Z M 130 436 L 130 -99 C 130 -128 121 -152 104 -172 C 86 -191 63 -201 35 -201 C 26 -201 16 -200 5 -198 C -5 -196 -12 -195 -16 -193 L -5 -134 C -2 -134 0 -135 4 -136 C 8 -137 12 -138 17 -138 C 27 -138 37 -133 45 -125 C 53 -117 57 -105 57 -89 L 57 436 L 130 436 Z M 92 499 L 92 499 Z M 231 499 L 167 499 L 92 620 L 15 499 L -46 499 L 59 670 L 126 670 L 231 499 Z" unicode="ĵ" />
<glyph horiz-adv-x="547" d="M 77 0 L 77 0 Z M 549 0 L 455 0 L 221 349 L 157 270 L 157 0 L 77 0 L 77 730 L 157 730 L 157 364 L 431 730 L 522 730 L 275 403 L 549 0 Z M 278 -70 L 278 -70 Z M 357 -70 C 354 -112 343 -156 323 -201 C 303 -245 280 -282 256 -310 L 200 -284 C 214 -265 229 -235 247 -195 C 264 -155 275 -113 279 -70 L 357 -70 Z" unicode="Ķ" />
<glyph horiz-adv-x="395" d="M 52 0 L 52 0 Z M 404 1 L 322 0 L 195 199 L 125 109 L 125 0 L 52 0 L 52 761 L 121 761 L 121 192 L 304 436 L 382 436 L 244 253 L 404 1 Z M 198 -70 L 198 -70 Z M 277 -70 C 274 -112 263 -156 243 -201 C 223 -245 200 -282 176 -310 L 120 -284 C 134 -265 149 -235 167 -195 C 184 -155 195 -113 199 -70 L 277 -70 Z" unicode="ķ" />
<glyph horiz-adv-x="395" d="M 404 1 L 322 0 L 195 199 L 125 109 L 125 0 L 52 0 L 52 436 L 121 436 L 121 192 L 304 436 L 382 436 L 244 253 L 404 1 Z" unicode="ĸ" />
<glyph horiz-adv-x="402" d="M 77 0 L 77 0 Z M 395 0 L 77 0 L 77 730 L 157 730 L 157 72 L 395 72 L 395 0 Z M 218 792 L 218 792 Z M 131 792 L 221 962 L 306 962 L 203 792 L 131 792 Z" unicode="Ĺ" />
<glyph horiz-adv-x="179" d="M 53 0 L 53 0 Z M 143 839 L 143 839 Z M 56 839 L 146 1009 L 231 1009 L 128 839 L 56 839 Z M 126 777 L 126 0 L 53 0 L 53 777 L 126 777 Z" unicode="ĺ" />
<glyph horiz-adv-x="402" d="M 77 0 L 77 0 Z M 395 0 L 77 0 L 77 730 L 157 730 L 157 72 L 395 72 L 395 0 Z M 217 -70 L 217 -70 Z M 296 -70 C 293 -112 282 -156 262 -201 C 242 -245 219 -282 195 -310 L 139 -284 C 153 -265 168 -235 186 -195 C 203 -155 214 -113 218 -70 L 296 -70 Z" unicode="Ļ" />
<glyph horiz-adv-x="179" d="M 0 0 L 0 0 Z M 126 777 L 126 0 L 53 0 L 53 777 L 126 777 Z M 66 -70 L 66 -70 Z M 145 -70 C 142 -112 131 -156 111 -201 C 91 -245 68 -282 44 -310 L -12 -284 C 2 -265 17 -235 35 -195 C 52 -155 63 -113 67 -70 L 145 -70 Z" unicode="ļ" />
<glyph horiz-adv-x="402" d="M 77 0 L 77 0 Z M 395 0 L 77 0 L 77 730 L 157 730 L 157 72 L 395 72 L 395 0 Z M 391 622 L 387 490 L 325 490 L 321 622 L 321 730 L 391 730 L 391 622 Z" unicode="Ľ" />
<glyph horiz-adv-x="179" d="M 53 0 L 53 0 Z M 126 777 L 126 0 L 53 0 L 53 777 L 126 777 Z M 264 622 L 260 490 L 198 490 L 194 622 L 194 730 L 264 730 L 264 622 Z" unicode="ľ" />
<glyph horiz-adv-x="402" d="M 77 0 L 77 0 Z M 395 0 L 77 0 L 77 730 L 157 730 L 157 72 L 395 72 L 395 0 Z M 305 299 L 305 299 Z M 339 299 L 271 299 L 271 426 L 339 426 L 339 299 Z" unicode="Ŀ" />
<glyph horiz-adv-x="179" d="M 53 0 L 53 0 Z M 126 777 L 126 0 L 53 0 L 53 777 L 126 777 Z M 223 199 L 223 199 Z M 257 199 L 189 199 L 189 326 L 257 326 L 257 199 Z" unicode="ŀ" />
<glyph horiz-adv-x="402" d="M 395 68 L 395 0 L 77 0 L 77 273 L 25 251 L -1 308 L 77 340 L 77 730 L 157 730 L 157 373 L 308 436 L 332 380 L 157 306 L 157 68 L 395 68 Z" unicode="Ł" />
<glyph horiz-adv-x="179" d="M 207 340 L 139 309 L 139 0 L 66 0 L 66 275 L 17 252 L -3 301 L 66 333 L 66 761 L 139 761 L 139 367 L 186 389 L 207 340 Z" unicode="ł" />
<glyph horiz-adv-x="618" d="M 77 0 L 77 0 Z M 541 0 L 484 0 L 153 558 L 153 0 L 77 0 L 77 730 L 135 730 L 467 173 L 467 730 L 541 730 L 541 0 Z M 310 792 L 310 792 Z M 223 792 L 313 962 L 398 962 L 295 792 L 223 792 Z" unicode="Ń" />
<glyph horiz-adv-x="435" d="M 52 0 L 52 0 Z M 385 0 L 312 0 L 312 296 C 312 323 304 344 288 359 C 272 373 251 381 225 381 C 198 381 175 372 155 356 C 135 339 125 310 125 269 L 125 0 L 52 0 L 52 436 L 122 436 L 122 361 C 129 385 144 404 166 420 C 188 436 217 444 252 444 C 292 444 324 433 348 412 C 372 390 385 359 385 318 L 385 0 Z M 218 498 L 218 498 Z M 131 498 L 221 668 L 306 668 L 203 498 L 131 498 Z" unicode="ń" />
<glyph horiz-adv-x="618" d="M 77 0 L 77 0 Z M 541 0 L 484 0 L 153 558 L 153 0 L 77 0 L 77 730 L 135 730 L 467 173 L 467 730 L 541 730 L 541 0 Z M 293 -70 L 293 -70 Z M 372 -70 C 369 -112 358 -156 338 -201 C 318 -245 295 -282 271 -310 L 215 -284 C 229 -265 244 -235 262 -195 C 279 -155 290 -113 294 -70 L 372 -70 Z" unicode="Ņ" />
<glyph horiz-adv-x="435" d="M 52 0 L 52 0 Z M 385 0 L 312 0 L 312 296 C 312 323 304 344 288 359 C 272 373 251 381 225 381 C 198 381 175 372 155 356 C 135 339 125 310 125 269 L 125 0 L 52 0 L 52 436 L 122 436 L 122 361 C 129 385 144 404 166 420 C 188 436 217 444 252 444 C 292 444 324 433 348 412 C 372 390 385 359 385 318 L 385 0 Z M 197 -70 L 197 -70 Z M 276 -70 C 273 -112 262 -156 242 -201 C 222 -245 199 -282 175 -310 L 119 -284 C 133 -265 148 -235 166 -195 C 183 -155 194 -113 198 -70 L 276 -70 Z" unicode="ņ" />
<glyph horiz-adv-x="618" d="M 77 0 L 77 0 Z M 541 0 L 484 0 L 153 558 L 153 0 L 77 0 L 77 730 L 135 730 L 467 173 L 467 730 L 541 730 L 541 0 Z M 310 793 L 310 793 Z M 172 964 L 235 964 L 311 843 L 387 964 L 449 964 L 344 793 L 277 793 L 172 964 Z" unicode="Ň" />
<glyph horiz-adv-x="435" d="M 52 0 L 52 0 Z M 385 0 L 312 0 L 312 296 C 312 323 304 344 288 359 C 272 373 251 381 225 381 C 198 381 175 372 155 356 C 135 339 125 310 125 269 L 125 0 L 52 0 L 52 436 L 122 436 L 122 361 C 129 385 144 404 166 420 C 188 436 217 444 252 444 C 292 444 324 433 348 412 C 372 390 385 359 385 318 L 385 0 Z M 218 499 L 218 499 Z M 80 670 L 143 670 L 219 549 L 295 670 L 357 670 L 252 499 L 185 499 L 80 670 Z" unicode="ň" />
<glyph horiz-adv-x="621" d="M 467 730 L 541 730 L 541 -3 C 541 -30 537 -55 530 -79 C 523 -103 513 -123 499 -141 C 485 -158 468 -172 448 -182 C 427 -192 403 -197 376 -197 C 363 -197 350 -196 336 -194 C 322 -192 312 -190 305 -188 L 306 -114 C 311 -116 319 -119 331 -121 C 342 -123 353 -124 364 -124 C 397 -124 423 -111 441 -86 C 459 -61 468 -31 468 5 L 468 27 L 153 558 L 153 0 L 77 0 L 77 730 L 135 730 L 467 173 L 467 730 Z" unicode="Ŋ" />
<glyph horiz-adv-x="435" d="M 252 444 C 292 444 324 433 348 412 C 372 390 385 359 385 318 L 385 -99 C 385 -128 376 -152 358 -172 C 340 -191 318 -201 290 -201 C 280 -201 270 -200 260 -198 C 249 -196 242 -195 238 -193 L 249 -134 C 251 -134 255 -135 259 -136 C 263 -137 267 -138 272 -138 C 282 -138 292 -133 300 -125 C 308 -117 312 -105 312 -89 L 312 296 C 312 323 304 344 288 359 C 272 373 251 381 225 381 C 198 381 175 372 155 356 C 135 339 125 310 125 269 L 125 0 L 52 0 L 52 436 L 122 436 L 122 361 C 129 385 144 404 166 420 C 188 436 217 444 252 444 Z" unicode="ŋ" />
<glyph horiz-adv-x="661" d="M 41 0 L 41 0 Z M 333 -9 C 245 -9 174 24 121 92 C 67 159 41 252 41 371 C 41 427 48 477 62 523 C 76 568 95 607 121 639 C 146 671 176 695 211 713 C 246 730 285 739 327 739 C 416 739 487 706 540 640 C 593 574 620 482 620 366 C 620 308 612 256 598 210 C 583 164 563 124 538 92 C 512 60 482 35 447 17 C 411 0 373 -9 333 -9 Z M 332 62 C 392 62 441 88 480 141 C 518 193 538 270 538 371 C 538 464 518 537 480 589 C 441 641 391 667 329 667 C 266 667 216 641 179 590 C 141 539 123 464 123 365 C 123 315 128 270 139 232 C 149 194 164 162 183 137 C 201 112 223 93 249 81 C 275 68 302 62 332 62 Z M 328 821 L 328 821 Z M 448 821 L 208 821 L 208 876 L 448 876 L 448 821 Z" unicode="Ō" />
<glyph horiz-adv-x="434" d="M 25 0 L 25 0 Z M 217 -7 C 190 -7 165 -2 142 8 C 118 18 98 32 81 52 C 63 71 50 94 40 122 C 30 150 25 181 25 216 C 25 248 29 279 39 307 C 48 335 61 359 78 379 C 94 399 114 415 137 427 C 160 438 185 444 212 444 C 268 444 315 424 353 384 C 390 344 409 292 409 228 C 409 194 404 162 395 133 C 385 104 372 79 356 59 C 339 38 319 22 295 10 C 271 -1 245 -7 217 -7 Z M 217 53 C 252 53 280 68 301 98 C 321 128 332 169 332 221 C 332 271 321 311 300 340 C 279 368 250 383 213 383 C 180 383 153 368 133 339 C 112 310 102 270 102 220 C 102 164 112 122 134 94 C 156 66 183 53 217 53 Z M 215 527 L 215 527 Z M 335 527 L 95 527 L 95 582 L 335 582 L 335 527 Z" unicode="ō" />
<glyph horiz-adv-x="661" d="M 41 0 L 41 0 Z M 333 -9 C 245 -9 174 24 121 92 C 67 159 41 252 41 371 C 41 427 48 477 62 523 C 76 568 95 607 121 639 C 146 671 176 695 211 713 C 246 730 285 739 327 739 C 416 739 487 706 540 640 C 593 574 620 482 620 366 C 620 308 612 256 598 210 C 583 164 563 124 538 92 C 512 60 482 35 447 17 C 411 0 373 -9 333 -9 Z M 332 62 C 392 62 441 88 480 141 C 518 193 538 270 538 371 C 538 464 518 537 480 589 C 441 641 391 667 329 667 C 266 667 216 641 179 590 C 141 539 123 464 123 365 C 123 315 128 270 139 232 C 149 194 164 162 183 137 C 201 112 223 93 249 81 C 275 68 302 62 332 62 Z M 328 799 L 328 799 Z M 399 956 L 461 956 C 457 901 442 861 418 836 C 394 811 364 799 328 799 C 292 799 261 811 237 836 C 213 861 199 901 196 956 L 258 956 C 260 924 266 898 276 879 C 286 859 304 850 328 850 C 352 850 369 859 380 878 C 390 896 397 922 399 956 Z" unicode="Ŏ" />
<glyph horiz-adv-x="434" d="M 25 0 L 25 0 Z M 217 -7 C 190 -7 165 -2 142 8 C 118 18 98 32 81 52 C 63 71 50 94 40 122 C 30 150 25 181 25 216 C 25 248 29 279 39 307 C 48 335 61 359 78 379 C 94 399 114 415 137 427 C 160 438 185 444 212 444 C 268 444 315 424 353 384 C 390 344 409 292 409 228 C 409 194 404 162 395 133 C 385 104 372 79 356 59 C 339 38 319 22 295 10 C 271 -1 245 -7 217 -7 Z M 217 53 C 252 53 280 68 301 98 C 321 128 332 169 332 221 C 332 271 321 311 300 340 C 279 368 250 383 213 383 C 180 383 153 368 133 339 C 112 310 102 270 102 220 C 102 164 112 122 134 94 C 156 66 183 53 217 53 Z M 215 505 L 215 505 Z M 286 662 L 348 662 C 344 607 329 567 305 542 C 281 517 251 505 215 505 C 179 505 148 517 124 542 C 100 567 86 607 83 662 L 145 662 C 147 630 153 604 163 585 C 173 565 191 556 215 556 C 239 556 256 565 267 584 C 277 602 284 628 286 662 Z" unicode="ŏ" />
<glyph horiz-adv-x="661" d="M 41 0 L 41 0 Z M 333 -9 C 245 -9 174 24 121 92 C 67 159 41 252 41 371 C 41 427 48 477 62 523 C 76 568 95 607 121 639 C 146 671 176 695 211 713 C 246 730 285 739 327 739 C 416 739 487 706 540 640 C 593 574 620 482 620 366 C 620 308 612 256 598 210 C 583 164 563 124 538 92 C 512 60 482 35 447 17 C 411 0 373 -9 333 -9 Z M 332 62 C 392 62 441 88 480 141 C 518 193 538 270 538 371 C 538 464 518 537 480 589 C 441 641 391 667 329 667 C 266 667 216 641 179 590 C 141 539 123 464 123 365 C 123 315 128 270 139 232 C 149 194 164 162 183 137 C 201 112 223 93 249 81 C 275 68 302 62 332 62 Z M 328 792 L 328 792 Z M 171 792 L 243 947 L 322 947 L 237 792 L 171 792 Z M 334 792 L 406 947 L 485 947 L 400 792 L 334 792 Z" unicode="Ő" />
<glyph horiz-adv-x="434" d="M 25 0 L 25 0 Z M 217 -7 C 190 -7 165 -2 142 8 C 118 18 98 32 81 52 C 63 71 50 94 40 122 C 30 150 25 181 25 216 C 25 248 29 279 39 307 C 48 335 61 359 78 379 C 94 399 114 415 137 427 C 160 438 185 444 212 444 C 268 444 315 424 353 384 C 390 344 409 292 409 228 C 409 194 404 162 395 133 C 385 104 372 79 356 59 C 339 38 319 22 295 10 C 271 -1 245 -7 217 -7 Z M 217 53 C 252 53 280 68 301 98 C 321 128 332 169 332 221 C 332 271 321 311 300 340 C 279 368 250 383 213 383 C 180 383 153 368 133 339 C 112 310 102 270 102 220 C 102 164 112 122 134 94 C 156 66 183 53 217 53 Z M 215 498 L 215 498 Z M 58 498 L 130 653 L 209 653 L 124 498 L 58 498 Z M 221 498 L 293 653 L 372 653 L 287 498 L 221 498 Z" unicode="ő" />
<glyph horiz-adv-x="898" d="M 317 -8 C 276 -8 239 0 205 17 C 171 33 141 57 117 89 C 93 121 74 160 61 208 C 47 255 41 309 41 370 C 41 428 47 479 61 525 C 75 571 94 609 118 641 C 142 672 171 696 205 713 C 239 729 275 738 315 738 C 341 738 366 733 390 725 C 413 717 434 706 452 692 C 470 678 485 661 498 643 C 511 625 520 605 526 585 L 526 730 L 855 730 L 855 662 L 604 662 L 604 395 L 845 395 L 845 327 L 604 327 L 604 68 L 872 68 L 872 0 L 526 0 L 526 151 C 520 131 512 111 500 92 C 488 72 474 55 456 41 C 438 26 418 14 395 5 C 371 -3 345 -8 317 -8 Z M 326 54 C 384 54 432 80 470 134 C 508 187 528 266 528 371 C 528 421 522 466 511 504 C 499 542 484 573 466 598 C 447 623 425 642 400 655 C 375 667 349 674 323 674 C 263 674 214 648 178 597 C 141 545 123 468 123 365 C 123 312 128 266 138 227 C 148 188 163 156 181 130 C 199 104 220 85 245 73 C 270 60 297 54 326 54 Z" unicode="Œ" />
<glyph horiz-adv-x="722" d="M 212 -7 C 186 -7 161 -1 138 8 C 115 18 95 33 79 52 C 62 71 49 95 39 123 C 29 151 25 182 25 216 C 25 249 29 280 39 308 C 48 336 61 360 78 380 C 94 400 114 415 137 427 C 160 438 185 444 213 444 C 235 444 256 440 274 434 C 292 427 308 418 321 407 C 334 396 345 384 353 371 C 361 357 366 344 369 331 C 371 343 376 356 384 370 C 392 383 402 395 415 406 C 427 417 442 426 460 433 C 477 440 496 444 518 444 C 576 444 622 422 654 379 C 686 336 702 277 702 201 L 404 201 C 404 151 416 113 440 88 C 463 62 492 50 528 50 C 562 50 587 56 605 69 C 622 81 637 95 650 110 L 691 71 C 676 52 657 34 633 18 C 609 1 573 -7 526 -7 C 480 -7 443 4 416 28 C 389 52 373 78 368 106 C 364 94 358 81 350 68 C 342 55 331 43 318 32 C 304 20 289 11 271 4 C 253 -3 233 -7 212 -7 Z M 406 253 L 632 253 C 631 291 621 323 601 348 C 581 373 553 386 518 386 C 484 386 457 373 438 348 C 419 323 408 291 406 253 Z M 217 53 C 253 53 281 67 301 97 C 321 127 332 168 332 221 C 332 272 321 312 300 340 C 278 368 250 383 214 383 C 180 383 152 368 132 339 C 112 309 102 270 102 220 C 102 164 112 123 134 95 C 155 67 183 53 217 53 Z" unicode="œ" />
<glyph horiz-adv-x="505" d="M 77 0 L 77 0 Z M 77 0 L 77 730 L 242 730 C 298 730 343 713 378 680 C 413 647 431 599 431 536 C 431 478 417 431 390 396 C 363 361 332 341 296 336 L 293 334 L 487 0 L 399 0 L 217 317 L 153 317 L 153 0 L 77 0 Z M 153 385 L 234 385 C 268 385 297 398 319 422 C 341 446 353 480 353 524 C 353 568 341 601 318 624 C 294 647 265 659 229 659 L 153 659 L 153 385 Z M 234 792 L 234 792 Z M 147 792 L 237 962 L 322 962 L 219 792 L 147 792 Z" unicode="Ŕ" />
<glyph horiz-adv-x="314" d="M 52 0 L 52 0 Z M 316 413 L 290 352 C 278 362 267 369 256 373 C 244 376 232 378 220 378 C 209 378 198 375 187 371 C 176 367 166 360 157 351 C 147 341 140 329 134 314 C 128 298 125 279 125 257 L 125 0 L 52 0 L 52 436 L 123 436 L 123 355 C 129 377 141 397 161 415 C 181 433 205 443 234 443 C 251 443 267 440 281 434 C 295 428 307 421 316 413 Z M 183 498 L 183 498 Z M 96 498 L 186 668 L 271 668 L 168 498 L 96 498 Z" unicode="ŕ" />
<glyph horiz-adv-x="505" d="M 77 0 L 77 0 Z M 77 0 L 77 730 L 242 730 C 298 730 343 713 378 680 C 413 647 431 599 431 536 C 431 478 417 431 390 396 C 363 361 332 341 296 336 L 293 334 L 487 0 L 399 0 L 217 317 L 153 317 L 153 0 L 77 0 Z M 153 385 L 234 385 C 268 385 297 398 319 422 C 341 446 353 480 353 524 C 353 568 341 601 318 624 C 294 647 265 659 229 659 L 153 659 L 153 385 Z M 245 -70 L 245 -70 Z M 324 -70 C 321 -112 310 -156 290 -201 C 270 -245 247 -282 223 -310 L 167 -284 C 181 -265 196 -235 214 -195 C 231 -155 242 -113 246 -70 L 324 -70 Z" unicode="Ŗ" />
<glyph horiz-adv-x="314" d="M 52 0 L 52 0 Z M 316 413 L 290 352 C 278 362 267 369 256 373 C 244 376 232 378 220 378 C 209 378 198 375 187 371 C 176 367 166 360 157 351 C 147 341 140 329 134 314 C 128 298 125 279 125 257 L 125 0 L 52 0 L 52 436 L 123 436 L 123 355 C 129 377 141 397 161 415 C 181 433 205 443 234 443 C 251 443 267 440 281 434 C 295 428 307 421 316 413 Z M 158 -70 L 158 -70 Z M 237 -70 C 234 -112 223 -156 203 -201 C 183 -245 160 -282 136 -310 L 80 -284 C 94 -265 109 -235 127 -195 C 144 -155 155 -113 159 -70 L 237 -70 Z" unicode="ŗ" />
<glyph horiz-adv-x="505" d="M 77 0 L 77 0 Z M 77 0 L 77 730 L 242 730 C 298 730 343 713 378 680 C 413 647 431 599 431 536 C 431 478 417 431 390 396 C 363 361 332 341 296 336 L 293 334 L 487 0 L 399 0 L 217 317 L 153 317 L 153 0 L 77 0 Z M 153 385 L 234 385 C 268 385 297 398 319 422 C 341 446 353 480 353 524 C 353 568 341 601 318 624 C 294 647 265 659 229 659 L 153 659 L 153 385 Z M 234 793 L 234 793 Z M 96 964 L 159 964 L 235 843 L 311 964 L 373 964 L 268 793 L 201 793 L 96 964 Z" unicode="Ř" />
<glyph horiz-adv-x="314" d="M 45 0 L 45 0 Z M 316 413 L 290 352 C 278 362 267 369 256 373 C 244 376 232 378 220 378 C 209 378 198 375 187 371 C 176 367 166 360 157 351 C 147 341 140 329 134 314 C 128 298 125 279 125 257 L 125 0 L 52 0 L 52 436 L 123 436 L 123 355 C 129 377 141 397 161 415 C 181 433 205 443 234 443 C 251 443 267 440 281 434 C 295 428 307 421 316 413 Z M 183 499 L 183 499 Z M 45 670 L 108 670 L 184 549 L 260 670 L 322 670 L 217 499 L 150 499 L 45 670 Z" unicode="ř" />
<glyph horiz-adv-x="430" d="M 23 0 L 23 0 Z M 220 -9 C 179 -9 142 -1 109 12 C 75 26 47 49 23 80 L 66 136 C 84 110 106 90 133 77 C 160 64 187 58 215 58 C 246 58 273 68 296 90 C 318 112 330 141 330 177 C 330 211 321 241 303 265 C 285 289 251 315 203 344 C 151 372 111 402 83 434 C 55 466 41 510 41 566 C 41 618 58 659 92 691 C 126 723 169 739 219 739 C 257 739 289 732 317 720 C 345 707 368 691 387 673 L 346 616 C 331 630 313 643 292 653 C 270 663 247 668 223 668 C 193 668 168 658 148 639 C 128 620 118 594 118 562 C 118 529 127 502 145 481 C 163 460 198 435 250 406 C 307 374 347 341 371 306 C 394 271 406 229 406 180 C 406 150 400 123 390 100 C 380 76 366 56 349 40 C 332 24 312 11 290 3 C 267 -4 244 -9 220 -9 Z M 216 792 L 216 792 Z M 129 792 L 219 962 L 304 962 L 201 792 L 129 792 Z" unicode="Ś" />
<glyph horiz-adv-x="326" d="M 24 0 L 24 0 Z M 172 -7 C 138 -7 109 -1 84 9 C 59 20 39 35 24 53 L 59 103 C 72 87 88 75 108 66 C 128 56 148 52 169 52 C 186 52 202 57 216 68 C 230 79 238 95 238 116 C 238 133 230 148 215 161 C 200 173 176 187 143 202 C 107 218 79 236 61 255 C 43 273 34 299 34 332 C 34 364 46 390 72 411 C 97 432 127 443 162 443 C 190 443 215 438 237 429 C 259 420 276 410 290 399 L 252 352 C 243 359 231 366 215 373 C 199 379 182 383 165 383 C 147 383 131 378 118 370 C 104 361 98 348 98 332 C 98 317 104 305 116 295 C 128 285 151 272 185 256 C 225 237 255 218 273 199 C 291 179 301 152 301 117 C 301 97 297 80 290 65 C 282 49 273 36 261 26 C 249 15 235 7 219 1 C 203 -4 188 -7 172 -7 Z M 165 498 L 165 498 Z M 78 498 L 168 668 L 253 668 L 150 498 L 78 498 Z" unicode="ś" />
<glyph horiz-adv-x="430" d="M 23 0 L 23 0 Z M 220 -9 C 179 -9 142 -1 109 12 C 75 26 47 49 23 80 L 66 136 C 84 110 106 90 133 77 C 160 64 187 58 215 58 C 246 58 273 68 296 90 C 318 112 330 141 330 177 C 330 211 321 241 303 265 C 285 289 251 315 203 344 C 151 372 111 402 83 434 C 55 466 41 510 41 566 C 41 618 58 659 92 691 C 126 723 169 739 219 739 C 257 739 289 732 317 720 C 345 707 368 691 387 673 L 346 616 C 331 630 313 643 292 653 C 270 663 247 668 223 668 C 193 668 168 658 148 639 C 128 620 118 594 118 562 C 118 529 127 502 145 481 C 163 460 198 435 250 406 C 307 374 347 341 371 306 C 394 271 406 229 406 180 C 406 150 400 123 390 100 C 380 76 366 56 349 40 C 332 24 312 11 290 3 C 267 -4 244 -9 220 -9 Z M 216 793 L 216 793 Z M 355 793 L 291 793 L 216 914 L 139 793 L 78 793 L 183 964 L 250 964 L 355 793 Z" unicode="Ŝ" />
<glyph horiz-adv-x="326" d="M 24 0 L 24 0 Z M 172 -7 C 138 -7 109 -1 84 9 C 59 20 39 35 24 53 L 59 103 C 72 87 88 75 108 66 C 128 56 148 52 169 52 C 186 52 202 57 216 68 C 230 79 238 95 238 116 C 238 133 230 148 215 161 C 200 173 176 187 143 202 C 107 218 79 236 61 255 C 43 273 34 299 34 332 C 34 364 46 390 72 411 C 97 432 127 443 162 443 C 190 443 215 438 237 429 C 259 420 276 410 290 399 L 252 352 C 243 359 231 366 215 373 C 199 379 182 383 165 383 C 147 383 131 378 118 370 C 104 361 98 348 98 332 C 98 317 104 305 116 295 C 128 285 151 272 185 256 C 225 237 255 218 273 199 C 291 179 301 152 301 117 C 301 97 297 80 290 65 C 282 49 273 36 261 26 C 249 15 235 7 219 1 C 203 -4 188 -7 172 -7 Z M 165 499 L 165 499 Z M 304 499 L 240 499 L 165 620 L 88 499 L 27 499 L 132 670 L 199 670 L 304 499 Z" unicode="ŝ" />
<glyph horiz-adv-x="430" d="M 23 0 L 23 0 Z M 220 -9 C 179 -9 142 -1 109 12 C 75 26 47 49 23 80 L 66 136 C 84 110 106 90 133 77 C 160 64 187 58 215 58 C 246 58 273 68 296 90 C 318 112 330 141 330 177 C 330 211 321 241 303 265 C 285 289 251 315 203 344 C 151 372 111 402 83 434 C 55 466 41 510 41 566 C 41 618 58 659 92 691 C 126 723 169 739 219 739 C 257 739 289 732 317 720 C 345 707 368 691 387 673 L 346 616 C 331 630 313 643 292 653 C 270 663 247 668 223 668 C 193 668 168 658 148 639 C 128 620 118 594 118 562 C 118 529 127 502 145 481 C 163 460 198 435 250 406 C 307 374 347 341 371 306 C 394 271 406 229 406 180 C 406 150 400 123 390 100 C 380 76 366 56 349 40 C 332 24 312 11 290 3 C 267 -4 244 -9 220 -9 Z M 197 -2 L 197 -2 Z M 204 -186 C 182 -186 161 -183 139 -177 C 117 -171 99 -163 86 -154 L 97 -121 C 105 -127 117 -134 133 -140 C 149 -146 166 -149 185 -149 C 200 -149 213 -145 225 -138 C 236 -130 242 -120 242 -108 C 242 -93 237 -83 227 -77 C 217 -71 206 -69 194 -69 C 186 -69 179 -69 173 -71 C 167 -72 161 -74 153 -77 L 140 -63 L 198 9 L 241 9 L 193 -54 C 225 -45 252 -47 274 -59 C 296 -71 308 -89 308 -113 C 308 -137 297 -155 277 -167 C 256 -179 232 -186 204 -186 Z" unicode="Ş" />
<glyph horiz-adv-x="326" d="M 24 0 L 24 0 Z M 172 -7 C 138 -7 109 -1 84 9 C 59 20 39 35 24 53 L 59 103 C 72 87 88 75 108 66 C 128 56 148 52 169 52 C 186 52 202 57 216 68 C 230 79 238 95 238 116 C 238 133 230 148 215 161 C 200 173 176 187 143 202 C 107 218 79 236 61 255 C 43 273 34 299 34 332 C 34 364 46 390 72 411 C 97 432 127 443 162 443 C 190 443 215 438 237 429 C 259 420 276 410 290 399 L 252 352 C 243 359 231 366 215 373 C 199 379 182 383 165 383 C 147 383 131 378 118 370 C 104 361 98 348 98 332 C 98 317 104 305 116 295 C 128 285 151 272 185 256 C 225 237 255 218 273 199 C 291 179 301 152 301 117 C 301 97 297 80 290 65 C 282 49 273 36 261 26 C 249 15 235 7 219 1 C 203 -4 188 -7 172 -7 Z M 154 -2 L 154 -2 Z M 161 -186 C 139 -186 118 -183 96 -177 C 74 -171 56 -163 43 -154 L 54 -121 C 62 -127 74 -134 90 -140 C 106 -146 123 -149 142 -149 C 157 -149 170 -145 182 -138 C 193 -130 199 -120 199 -108 C 199 -93 194 -83 184 -77 C 174 -71 163 -69 151 -69 C 143 -69 136 -69 130 -71 C 124 -72 118 -74 110 -77 L 97 -63 L 155 9 L 198 9 L 150 -54 C 182 -45 209 -47 231 -59 C 253 -71 265 -89 265 -113 C 265 -137 254 -155 234 -167 C 213 -179 189 -186 161 -186 Z" unicode="ş" />
<glyph horiz-adv-x="430" d="M 23 0 L 23 0 Z M 220 -9 C 179 -9 142 -1 109 12 C 75 26 47 49 23 80 L 66 136 C 84 110 106 90 133 77 C 160 64 187 58 215 58 C 246 58 273 68 296 90 C 318 112 330 141 330 177 C 330 211 321 241 303 265 C 285 289 251 315 203 344 C 151 372 111 402 83 434 C 55 466 41 510 41 566 C 41 618 58 659 92 691 C 126 723 169 739 219 739 C 257 739 289 732 317 720 C 345 707 368 691 387 673 L 346 616 C 331 630 313 643 292 653 C 270 663 247 668 223 668 C 193 668 168 658 148 639 C 128 620 118 594 118 562 C 118 529 127 502 145 481 C 163 460 198 435 250 406 C 307 374 347 341 371 306 C 394 271 406 229 406 180 C 406 150 400 123 390 100 C 380 76 366 56 349 40 C 332 24 312 11 290 3 C 267 -4 244 -9 220 -9 Z M 216 793 L 216 793 Z M 78 964 L 141 964 L 217 843 L 293 964 L 355 964 L 250 793 L 183 793 L 78 964 Z" unicode="Š" />
<glyph horiz-adv-x="326" d="M 24 0 L 24 0 Z M 172 -7 C 138 -7 109 -1 84 9 C 59 20 39 35 24 53 L 59 103 C 72 87 88 75 108 66 C 128 56 148 52 169 52 C 186 52 202 57 216 68 C 230 79 238 95 238 116 C 238 133 230 148 215 161 C 200 173 176 187 143 202 C 107 218 79 236 61 255 C 43 273 34 299 34 332 C 34 364 46 390 72 411 C 97 432 127 443 162 443 C 190 443 215 438 237 429 C 259 420 276 410 290 399 L 252 352 C 243 359 231 366 215 373 C 199 379 182 383 165 383 C 147 383 131 378 118 370 C 104 361 98 348 98 332 C 98 317 104 305 116 295 C 128 285 151 272 185 256 C 225 237 255 218 273 199 C 291 179 301 152 301 117 C 301 97 297 80 290 65 C 282 49 273 36 261 26 C 249 15 235 7 219 1 C 203 -4 188 -7 172 -7 Z M 165 499 L 165 499 Z M 27 670 L 90 670 L 166 549 L 242 670 L 304 670 L 199 499 L 132 499 L 27 670 Z" unicode="š" />
<glyph horiz-adv-x="421" d="M 8 0 L 8 0 Z M 413 658 L 249 658 L 249 0 L 169 0 L 169 658 L 8 658 L 8 730 L 413 730 L 413 658 Z M 209 793 L 209 793 Z M 71 964 L 134 964 L 210 843 L 286 964 L 348 964 L 243 793 L 176 793 L 71 964 Z" unicode="Ť" />
<glyph horiz-adv-x="219" d="M 13 0 L 13 0 Z M 204 65 L 213 8 C 209 5 203 2 194 0 C 184 -3 173 -5 161 -5 C 151 -5 140 -3 128 0 C 116 2 106 8 96 16 C 86 24 77 34 71 48 C 64 62 61 79 61 100 L 61 372 L 13 372 L 13 436 L 62 436 L 62 558 L 133 567 L 133 436 L 202 436 L 202 372 L 134 372 L 134 103 C 134 87 138 76 146 69 C 154 62 165 59 178 59 C 182 59 186 59 192 61 C 198 62 202 63 204 65 Z M 285 622 L 281 490 L 219 490 L 215 622 L 215 730 L 285 730 L 285 622 Z" unicode="ť" />
<glyph horiz-adv-x="421" d="M 373 479 L 249 479 L 249 0 L 169 0 L 169 479 L 44 479 L 44 542 L 169 542 L 169 658 L 8 658 L 8 730 L 413 730 L 413 658 L 249 658 L 249 542 L 373 542 L 373 479 Z" unicode="Ŧ" />
<glyph horiz-adv-x="219" d="M 213 8 C 209 5 203 2 194 0 C 184 -3 173 -5 161 -5 C 151 -5 140 -3 128 0 C 116 2 106 8 96 16 C 86 24 77 34 71 48 C 64 62 61 79 61 100 L 61 246 L 23 246 L 23 309 L 61 309 L 61 372 L 13 372 L 13 436 L 62 436 L 62 558 L 133 567 L 133 436 L 202 436 L 202 372 L 134 372 L 134 309 L 193 309 L 193 246 L 134 246 L 134 103 C 134 87 138 76 146 69 C 154 62 165 59 178 59 C 182 59 186 59 192 61 C 198 62 202 63 204 65 L 213 8 Z" unicode="ŧ" />
<glyph horiz-adv-x="602" d="M 72 0 L 72 0 Z M 531 730 L 531 232 C 531 190 524 154 512 124 C 500 94 483 69 462 49 C 441 29 416 15 388 5 C 359 -4 329 -9 298 -9 C 267 -9 238 -4 211 5 C 183 14 159 28 139 48 C 118 67 102 92 90 123 C 78 153 72 190 72 232 L 72 730 L 150 730 L 150 228 C 150 172 164 130 193 103 C 222 75 258 62 300 62 C 341 62 376 75 406 101 C 436 127 451 169 451 228 L 451 730 L 531 730 Z M 300 801 L 300 801 Z M 393 932 L 448 932 C 448 888 441 855 429 833 C 417 811 401 801 382 801 C 364 801 349 805 336 813 C 323 821 312 830 303 838 C 293 846 283 853 273 861 C 263 869 254 873 244 873 C 234 873 226 867 219 855 C 211 843 208 827 208 805 L 153 805 C 153 849 160 881 176 903 C 191 925 208 936 227 936 C 243 936 257 931 269 923 C 281 914 293 905 304 897 C 312 889 321 881 331 874 C 340 866 349 863 359 863 C 367 863 375 868 382 880 C 389 892 393 909 393 932 Z" unicode="Ũ" />
<glyph horiz-adv-x="435" d="M 50 0 L 50 0 Z M 50 436 L 123 436 L 123 141 C 123 110 131 87 147 72 C 163 57 184 50 211 50 C 237 50 260 58 280 75 C 300 92 310 122 310 165 L 310 436 L 383 436 L 383 0 L 311 0 L 311 69 C 302 46 287 28 265 14 C 243 0 216 -7 184 -7 C 146 -7 114 3 88 25 C 62 47 50 80 50 126 L 50 436 Z M 216 507 L 216 507 Z M 309 638 L 364 638 C 364 594 357 561 345 539 C 333 517 317 507 298 507 C 280 507 265 511 252 519 C 239 527 228 536 219 544 C 209 552 199 559 189 567 C 179 575 170 579 160 579 C 150 579 142 573 135 561 C 127 549 124 533 124 511 L 69 511 C 69 555 76 587 92 609 C 107 631 124 642 143 642 C 159 642 173 637 185 629 C 197 620 209 611 220 603 C 228 595 237 587 247 580 C 256 572 265 569 275 569 C 283 569 291 574 298 586 C 305 598 309 615 309 638 Z" unicode="ũ" />
<glyph horiz-adv-x="602" d="M 72 0 L 72 0 Z M 531 730 L 531 232 C 531 190 524 154 512 124 C 500 94 483 69 462 49 C 441 29 416 15 388 5 C 359 -4 329 -9 298 -9 C 267 -9 238 -4 211 5 C 183 14 159 28 139 48 C 118 67 102 92 90 123 C 78 153 72 190 72 232 L 72 730 L 150 730 L 150 228 C 150 172 164 130 193 103 C 222 75 258 62 300 62 C 341 62 376 75 406 101 C 436 127 451 169 451 228 L 451 730 L 531 730 Z M 300 821 L 300 821 Z M 420 821 L 180 821 L 180 876 L 420 876 L 420 821 Z" unicode="Ū" />
<glyph horiz-adv-x="435" d="M 50 0 L 50 0 Z M 50 436 L 123 436 L 123 141 C 123 110 131 87 147 72 C 163 57 184 50 211 50 C 237 50 260 58 280 75 C 300 92 310 122 310 165 L 310 436 L 383 436 L 383 0 L 311 0 L 311 69 C 302 46 287 28 265 14 C 243 0 216 -7 184 -7 C 146 -7 114 3 88 25 C 62 47 50 80 50 126 L 50 436 Z M 216 527 L 216 527 Z M 336 527 L 96 527 L 96 582 L 336 582 L 336 527 Z" unicode="ū" />
<glyph horiz-adv-x="602" d="M 72 0 L 72 0 Z M 531 730 L 531 232 C 531 190 524 154 512 124 C 500 94 483 69 462 49 C 441 29 416 15 388 5 C 359 -4 329 -9 298 -9 C 267 -9 238 -4 211 5 C 183 14 159 28 139 48 C 118 67 102 92 90 123 C 78 153 72 190 72 232 L 72 730 L 150 730 L 150 228 C 150 172 164 130 193 103 C 222 75 258 62 300 62 C 341 62 376 75 406 101 C 436 127 451 169 451 228 L 451 730 L 531 730 Z M 300 799 L 300 799 Z M 371 956 L 433 956 C 429 901 414 861 390 836 C 366 811 336 799 300 799 C 264 799 233 811 209 836 C 185 861 171 901 168 956 L 230 956 C 232 924 238 898 248 879 C 258 859 276 850 300 850 C 324 850 341 859 352 878 C 362 896 369 922 371 956 Z" unicode="Ŭ" />
<glyph horiz-adv-x="435" d="M 50 0 L 50 0 Z M 50 436 L 123 436 L 123 141 C 123 110 131 87 147 72 C 163 57 184 50 211 50 C 237 50 260 58 280 75 C 300 92 310 122 310 165 L 310 436 L 383 436 L 383 0 L 311 0 L 311 69 C 302 46 287 28 265 14 C 243 0 216 -7 184 -7 C 146 -7 114 3 88 25 C 62 47 50 80 50 126 L 50 436 Z M 216 505 L 216 505 Z M 287 662 L 349 662 C 345 607 330 567 306 542 C 282 517 252 505 216 505 C 180 505 149 517 125 542 C 101 567 87 607 84 662 L 146 662 C 148 630 154 604 164 585 C 174 565 192 556 216 556 C 240 556 257 565 268 584 C 278 602 285 628 287 662 Z" unicode="ŭ" />
<glyph horiz-adv-x="602" d="M 72 0 L 72 0 Z M 531 730 L 531 232 C 531 190 524 154 512 124 C 500 94 483 69 462 49 C 441 29 416 15 388 5 C 359 -4 329 -9 298 -9 C 267 -9 238 -4 211 5 C 183 14 159 28 139 48 C 118 67 102 92 90 123 C 78 153 72 190 72 232 L 72 730 L 150 730 L 150 228 C 150 172 164 130 193 103 C 222 75 258 62 300 62 C 341 62 376 75 406 101 C 436 127 451 169 451 228 L 451 730 L 531 730 Z M 300 790 L 300 790 Z M 300 790 C 269 790 243 801 221 823 C 199 845 189 871 189 902 C 189 932 199 958 221 980 C 243 1002 269 1013 300 1013 C 331 1013 357 1002 379 980 C 401 958 412 932 412 902 C 412 871 401 845 379 823 C 357 801 331 790 300 790 Z M 300 833 C 318 833 334 839 347 853 C 359 866 366 882 366 902 C 366 920 359 936 347 950 C 334 963 318 970 300 970 C 281 970 265 963 253 950 C 240 936 234 920 234 902 C 234 882 240 866 253 853 C 265 839 281 833 300 833 Z" unicode="Ů" />
<glyph horiz-adv-x="435" d="M 50 0 L 50 0 Z M 50 436 L 123 436 L 123 141 C 123 110 131 87 147 72 C 163 57 184 50 211 50 C 237 50 260 58 280 75 C 300 92 310 122 310 165 L 310 436 L 383 436 L 383 0 L 311 0 L 311 69 C 302 46 287 28 265 14 C 243 0 216 -7 184 -7 C 146 -7 114 3 88 25 C 62 47 50 80 50 126 L 50 436 Z M 216 496 L 216 496 Z M 216 496 C 185 496 159 507 137 529 C 115 551 105 577 105 608 C 105 638 115 664 137 686 C 159 708 185 719 216 719 C 247 719 273 708 295 686 C 317 664 328 638 328 608 C 328 577 317 551 295 529 C 273 507 247 496 216 496 Z M 216 539 C 234 539 250 545 263 559 C 275 572 282 588 282 608 C 282 626 275 642 263 656 C 250 669 234 676 216 676 C 197 676 181 669 169 656 C 156 642 150 626 150 608 C 150 588 156 572 169 559 C 181 545 197 539 216 539 Z" unicode="ů" />
<glyph horiz-adv-x="602" d="M 72 0 L 72 0 Z M 531 730 L 531 232 C 531 190 524 154 512 124 C 500 94 483 69 462 49 C 441 29 416 15 388 5 C 359 -4 329 -9 298 -9 C 267 -9 238 -4 211 5 C 183 14 159 28 139 48 C 118 67 102 92 90 123 C 78 153 72 190 72 232 L 72 730 L 150 730 L 150 228 C 150 172 164 130 193 103 C 222 75 258 62 300 62 C 341 62 376 75 406 101 C 436 127 451 169 451 228 L 451 730 L 531 730 Z M 300 792 L 300 792 Z M 143 792 L 215 947 L 294 947 L 209 792 L 143 792 Z M 306 792 L 378 947 L 457 947 L 372 792 L 306 792 Z" unicode="Ű" />
<glyph horiz-adv-x="435" d="M 50 0 L 50 0 Z M 50 436 L 123 436 L 123 141 C 123 110 131 87 147 72 C 163 57 184 50 211 50 C 237 50 260 58 280 75 C 300 92 310 122 310 165 L 310 436 L 383 436 L 383 0 L 311 0 L 311 69 C 302 46 287 28 265 14 C 243 0 216 -7 184 -7 C 146 -7 114 3 88 25 C 62 47 50 80 50 126 L 50 436 Z M 216 498 L 216 498 Z M 59 498 L 131 653 L 210 653 L 125 498 L 59 498 Z M 222 498 L 294 653 L 373 653 L 288 498 L 222 498 Z" unicode="ű" />
<glyph horiz-adv-x="602" d="M 72 0 L 72 0 Z M 531 730 L 531 232 C 531 190 524 154 512 124 C 500 94 483 69 462 49 C 441 29 416 15 388 5 C 359 -4 329 -9 298 -9 C 267 -9 238 -4 211 5 C 183 14 159 28 139 48 C 118 67 102 92 90 123 C 78 153 72 190 72 232 L 72 730 L 150 730 L 150 228 C 150 172 164 130 193 103 C 222 75 258 62 300 62 C 341 62 376 75 406 101 C 436 127 451 169 451 228 L 451 730 L 531 730 Z M 333 -9 L 333 -9 Z M 434 -105 L 456 -136 C 437 -155 415 -170 391 -181 C 367 -191 340 -197 312 -197 C 280 -197 255 -189 237 -175 C 219 -160 210 -142 210 -120 C 210 -95 219 -72 239 -51 C 258 -29 288 -11 330 5 L 380 4 C 349 -9 323 -24 303 -40 C 283 -56 273 -73 273 -91 C 273 -106 278 -118 290 -127 C 302 -136 317 -141 335 -141 C 355 -141 374 -137 391 -131 C 408 -124 422 -115 434 -105 Z" unicode="Ų" />
<glyph horiz-adv-x="435" d="M 50 0 L 50 0 Z M 50 436 L 123 436 L 123 141 C 123 110 131 87 147 72 C 163 57 184 50 211 50 C 237 50 260 58 280 75 C 300 92 310 122 310 165 L 310 436 L 383 436 L 383 0 L 311 0 L 311 69 C 302 46 287 28 265 14 C 243 0 216 -7 184 -7 C 146 -7 114 3 88 25 C 62 47 50 80 50 126 L 50 436 Z M 317 -9 L 317 -9 Z M 418 -105 L 440 -136 C 421 -155 399 -170 375 -181 C 351 -191 324 -197 296 -197 C 264 -197 239 -189 221 -175 C 203 -160 194 -142 194 -120 C 194 -95 203 -72 223 -51 C 242 -29 272 -11 314 5 L 364 4 C 333 -9 307 -24 287 -40 C 267 -56 257 -73 257 -91 C 257 -106 262 -118 274 -127 C 286 -136 301 -141 319 -141 C 339 -141 358 -137 375 -131 C 392 -124 406 -115 418 -105 Z" unicode="ų" />
<glyph horiz-adv-x="758" d="M 7 0 L 7 0 Z M 743 730 L 568 -5 L 517 -5 L 376 568 L 231 -5 L 180 -5 L 7 730 L 84 730 L 211 163 L 351 730 L 406 730 L 544 162 L 673 730 L 743 730 Z M 378 793 L 378 793 Z M 517 793 L 453 793 L 378 914 L 301 793 L 240 793 L 345 964 L 412 964 L 517 793 Z" unicode="Ŵ" />
<glyph horiz-adv-x="574" d="M 4 0 L 4 0 Z M 382 -2 L 287 286 L 191 -2 L 137 -2 L 4 436 L 77 436 L 171 106 L 265 394 L 316 394 L 407 106 L 505 436 L 570 436 L 436 -2 L 382 -2 Z M 288 499 L 288 499 Z M 427 499 L 363 499 L 288 620 L 211 499 L 150 499 L 255 670 L 322 670 L 427 499 Z" unicode="ŵ" />
<glyph horiz-adv-x="504" d="M 1 0 L 1 0 Z M 514 730 L 296 301 L 296 0 L 216 0 L 216 303 L 1 730 L 86 730 L 260 384 L 434 730 L 514 730 Z M 259 793 L 259 793 Z M 398 793 L 334 793 L 259 914 L 182 793 L 121 793 L 226 964 L 293 964 L 398 793 Z" unicode="Ŷ" />
<glyph horiz-adv-x="370" d="M 0 0 L 0 0 Z M 370 436 L 174 -105 C 160 -141 142 -165 119 -179 C 96 -193 73 -200 50 -200 C 38 -200 27 -198 17 -196 C 7 -194 0 -191 -5 -189 L 17 -126 C 19 -127 24 -129 32 -131 C 39 -133 47 -135 55 -135 C 66 -135 77 -130 89 -120 C 100 -110 110 -95 118 -74 L 154 33 L -1 436 L 77 436 L 190 125 L 297 436 L 370 436 Z M 186 499 L 186 499 Z M 325 499 L 261 499 L 186 620 L 109 499 L 48 499 L 153 670 L 220 670 L 325 499 Z" unicode="ŷ" />
<glyph horiz-adv-x="516" d="M 1 0 L 1 0 Z M 514 730 L 296 301 L 296 0 L 216 0 L 216 303 L 1 730 L 86 730 L 260 384 L 434 730 L 514 730 Z M 259 794 L 259 794 Z M 366 794 L 306 794 L 306 950 L 366 950 L 366 794 Z M 210 794 L 150 794 L 150 950 L 210 950 L 210 794 Z" unicode="Ÿ" />
<glyph horiz-adv-x="464" d="M 16 0 L 16 0 Z M 441 730 L 441 692 L 118 72 L 453 72 L 453 0 L 16 0 L 16 37 L 341 657 L 49 657 L 49 730 L 441 730 Z M 242 792 L 242 792 Z M 155 792 L 245 962 L 330 962 L 227 792 L 155 792 Z" unicode="Ź" />
<glyph horiz-adv-x="334" d="M 12 0 L 12 0 Z M 316 436 L 316 400 L 112 64 L 322 64 L 322 0 L 12 0 L 12 29 L 223 372 L 25 372 L 25 436 L 316 436 Z M 171 498 L 171 498 Z M 84 498 L 174 668 L 259 668 L 156 498 L 84 498 Z" unicode="ź" />
<glyph horiz-adv-x="464" d="M 16 0 L 16 0 Z M 441 730 L 441 692 L 118 72 L 453 72 L 453 0 L 16 0 L 16 37 L 341 657 L 49 657 L 49 730 L 441 730 Z M 242 805 L 242 805 Z M 276 805 L 208 805 L 208 932 L 276 932 L 276 805 Z" unicode="Ż" />
<glyph horiz-adv-x="334" d="M 12 0 L 12 0 Z M 316 436 L 316 400 L 112 64 L 322 64 L 322 0 L 12 0 L 12 29 L 223 372 L 25 372 L 25 436 L 316 436 Z M 171 511 L 171 511 Z M 205 511 L 137 511 L 137 638 L 205 638 L 205 511 Z" unicode="ż" />
<glyph horiz-adv-x="473" d="M 16 0 L 16 0 Z M 441 730 L 441 692 L 118 72 L 453 72 L 453 0 L 16 0 L 16 37 L 341 657 L 49 657 L 49 730 L 441 730 Z M 242 793 L 242 793 Z M 104 964 L 167 964 L 243 843 L 319 964 L 381 964 L 276 793 L 209 793 L 104 964 Z" unicode="Ž" />
<glyph horiz-adv-x="334" d="M 12 0 L 12 0 Z M 316 436 L 316 400 L 112 64 L 322 64 L 322 0 L 12 0 L 12 29 L 223 372 L 25 372 L 25 436 L 316 436 Z M 171 499 L 171 499 Z M 33 670 L 96 670 L 172 549 L 248 670 L 310 670 L 205 499 L 138 499 L 33 670 Z" unicode="ž" />
<glyph horiz-adv-x="348" d="M 173 -65 C 170 -97 157 -124 134 -146 C 111 -168 83 -179 51 -179 C 34 -179 18 -177 4 -175 C -10 -173 -21 -170 -29 -167 L -22 -111 C -17 -111 -10 -112 0 -114 C 9 -116 18 -117 27 -117 C 47 -117 65 -110 81 -96 C 97 -82 106 -62 109 -37 L 142 339 L 47 339 L 47 400 L 147 400 L 168 633 C 171 667 184 693 208 711 C 231 729 255 739 279 739 C 291 739 303 738 314 737 C 325 736 332 735 335 735 L 329 670 C 327 670 323 671 317 672 C 311 672 305 673 299 673 C 280 673 264 666 252 654 C 240 641 232 621 230 595 L 213 400 L 319 400 L 319 339 L 208 339 L 173 -65 Z" unicode="ƒ" />
<glyph horiz-adv-x="430" d="M 23 0 L 23 0 Z M 220 -9 C 179 -9 142 -1 109 12 C 75 26 47 49 23 80 L 66 136 C 84 110 106 90 133 77 C 160 64 187 58 215 58 C 246 58 273 68 296 90 C 318 112 330 141 330 177 C 330 211 321 241 303 265 C 285 289 251 315 203 344 C 151 372 111 402 83 434 C 55 466 41 510 41 566 C 41 618 58 659 92 691 C 126 723 169 739 219 739 C 257 739 289 732 317 720 C 345 707 368 691 387 673 L 346 616 C 331 630 313 643 292 653 C 270 663 247 668 223 668 C 193 668 168 658 148 639 C 128 620 118 594 118 562 C 118 529 127 502 145 481 C 163 460 198 435 250 406 C 307 374 347 341 371 306 C 394 271 406 229 406 180 C 406 150 400 123 390 100 C 380 76 366 56 349 40 C 332 24 312 11 290 3 C 267 -4 244 -9 220 -9 Z M 197 -72 L 197 -72 Z M 276 -72 C 273 -114 262 -158 242 -203 C 222 -247 199 -284 175 -312 L 119 -286 C 133 -267 148 -237 166 -197 C 183 -157 194 -115 198 -72 L 276 -72 Z" unicode="Ș" />
<glyph horiz-adv-x="326" d="M 24 0 L 24 0 Z M 172 -7 C 138 -7 109 -1 84 9 C 59 20 39 35 24 53 L 59 103 C 72 87 88 75 108 66 C 128 56 148 52 169 52 C 186 52 202 57 216 68 C 230 79 238 95 238 116 C 238 133 230 148 215 161 C 200 173 176 187 143 202 C 107 218 79 236 61 255 C 43 273 34 299 34 332 C 34 364 46 390 72 411 C 97 432 127 443 162 443 C 190 443 215 438 237 429 C 259 420 276 410 290 399 L 252 352 C 243 359 231 366 215 373 C 199 379 182 383 165 383 C 147 383 131 378 118 370 C 104 361 98 348 98 332 C 98 317 104 305 116 295 C 128 285 151 272 185 256 C 225 237 255 218 273 199 C 291 179 301 152 301 117 C 301 97 297 80 290 65 C 282 49 273 36 261 26 C 249 15 235 7 219 1 C 203 -4 188 -7 172 -7 Z M 154 -72 L 154 -72 Z M 233 -72 C 230 -114 219 -158 199 -203 C 179 -247 156 -284 132 -312 L 76 -286 C 90 -267 105 -237 123 -197 C 140 -157 151 -115 155 -72 L 233 -72 Z" unicode="ș" />
<glyph horiz-adv-x="421" d="M 8 0 L 8 0 Z M 413 658 L 249 658 L 249 0 L 169 0 L 169 658 L 8 658 L 8 730 L 413 730 L 413 658 Z M 187 -70 L 187 -70 Z M 266 -70 C 263 -112 252 -156 232 -201 C 212 -245 189 -282 165 -310 L 109 -284 C 123 -265 138 -235 156 -195 C 173 -155 184 -113 188 -70 L 266 -70 Z" unicode="Ț" />
<glyph horiz-adv-x="219" d="M 13 0 L 13 0 Z M 204 65 L 213 8 C 209 5 203 2 194 0 C 184 -3 173 -5 161 -5 C 151 -5 140 -3 128 0 C 116 2 106 8 96 16 C 86 24 77 34 71 48 C 64 62 61 79 61 100 L 61 372 L 13 372 L 13 436 L 62 436 L 62 558 L 133 567 L 133 436 L 202 436 L 202 372 L 134 372 L 134 103 C 134 87 138 76 146 69 C 154 62 165 59 178 59 C 182 59 186 59 192 61 C 198 62 202 63 204 65 Z M 110 -70 L 110 -70 Z M 189 -70 C 186 -112 175 -156 155 -201 C 135 -245 112 -282 88 -310 L 32 -284 C 46 -265 61 -235 79 -195 C 96 -155 107 -113 111 -70 L 189 -70 Z" unicode="ț" />
<glyph horiz-adv-x="182" d="M 130 436 L 130 -99 C 130 -128 121 -152 104 -172 C 86 -191 63 -201 35 -201 C 26 -201 16 -200 5 -198 C -5 -196 -12 -195 -16 -193 L -5 -134 C -2 -134 0 -135 4 -136 C 8 -137 12 -138 17 -138 C 27 -138 37 -133 45 -125 C 53 -117 57 -105 57 -89 L 57 436 L 130 436 Z" unicode="ȷ" />
<glyph horiz-adv-x="500" d="M 389 499 L 325 499 L 250 620 L 173 499 L 112 499 L 217 670 L 284 670 L 389 499 Z" unicode="ˆ" />
<glyph horiz-adv-x="500" d="M 112 670 L 175 670 L 251 549 L 327 670 L 389 670 L 284 499 L 217 499 L 112 670 Z" unicode="ˇ" />
<glyph horiz-adv-x="500" d="M 321 662 L 383 662 C 379 607 364 567 340 542 C 316 517 286 505 250 505 C 214 505 183 517 159 542 C 135 567 121 607 118 662 L 180 662 C 182 630 188 604 198 585 C 208 565 226 556 250 556 C 274 556 291 565 302 584 C 312 602 319 628 321 662 Z" unicode="˘" />
<glyph horiz-adv-x="500" d="M 284 511 L 216 511 L 216 638 L 284 638 L 284 511 Z" unicode="˙" />
<glyph horiz-adv-x="500" d="M 250 496 C 219 496 193 507 171 529 C 149 551 139 577 139 608 C 139 638 149 664 171 686 C 193 708 219 719 250 719 C 281 719 307 708 329 686 C 351 664 362 638 362 608 C 362 577 351 551 329 529 C 307 507 281 496 250 496 Z M 250 539 C 268 539 284 545 297 559 C 309 572 316 588 316 608 C 316 626 309 642 297 656 C 284 669 268 676 250 676 C 231 676 215 669 203 656 C 190 642 184 626 184 608 C 184 588 190 572 203 559 C 215 545 231 539 250 539 Z" unicode="˚" />
<glyph horiz-adv-x="500" d="M 356 -96 L 378 -127 C 359 -146 337 -161 313 -172 C 289 -182 262 -188 234 -188 C 202 -188 177 -180 159 -166 C 141 -151 132 -133 132 -111 C 132 -86 141 -63 161 -42 C 180 -20 210 -2 252 14 L 302 13 C 271 0 245 -15 225 -31 C 205 -47 195 -64 195 -82 C 195 -97 200 -109 212 -118 C 224 -127 239 -132 257 -132 C 277 -132 296 -128 313 -122 C 330 -115 344 -106 356 -96 Z" unicode="˛" />
<glyph horiz-adv-x="500" d="M 345 638 L 400 638 C 400 594 393 561 381 539 C 369 517 353 507 334 507 C 316 507 301 511 288 519 C 275 527 264 536 255 544 C 245 552 235 559 225 567 C 215 575 206 579 196 579 C 186 579 178 573 171 561 C 163 549 160 533 160 511 L 105 511 C 105 555 112 587 128 609 C 143 631 160 642 179 642 C 195 642 209 637 221 629 C 233 620 245 611 256 603 C 264 595 273 587 283 580 C 292 572 301 569 311 569 C 319 569 327 574 334 586 C 341 598 345 615 345 638 Z" unicode="˜" />
<glyph horiz-adv-x="500" d="M 107 498 L 179 653 L 258 653 L 173 498 L 107 498 Z M 270 498 L 342 653 L 421 653 L 336 498 L 270 498 Z" unicode="˝" />
<glyph horiz-adv-x="0" d="M 0 498 L 0 498 Z M 88 498 L 16 498 L -88 668 L -3 668 L 88 498 Z" unicode="̀" />
<glyph horiz-adv-x="0" d="M 0 498 L 0 498 Z M -87 498 L 3 668 L 88 668 L -15 498 L -87 498 Z" unicode="́" />
<glyph horiz-adv-x="0" d="M 0 499 L 0 499 Z M 139 499 L 75 499 L 0 620 L -77 499 L -138 499 L -33 670 L 34 670 L 139 499 Z" unicode="̂" />
<glyph horiz-adv-x="0" d="M 0 507 L 0 507 Z M 93 638 L 148 638 C 148 594 141 561 129 539 C 117 517 101 507 82 507 C 64 507 49 511 36 519 C 23 527 12 536 3 544 C -7 552 -16 559 -26 567 C -36 575 -46 579 -56 579 C -65 579 -73 573 -81 561 C -88 549 -92 533 -92 511 L -147 511 C -147 555 -139 587 -124 609 C -108 631 -91 642 -73 642 C -57 642 -42 637 -30 629 C -18 620 -6 611 4 603 C 12 595 21 587 31 580 C 40 572 49 569 59 569 C 67 569 75 574 82 586 C 89 598 93 615 93 638 Z" unicode="̃" />
<glyph horiz-adv-x="0" d="M 0 527 L 0 527 Z M 120 527 L -120 527 L -120 582 L 120 582 L 120 527 Z" unicode="̄" />
<glyph horiz-adv-x="0" d="M 0 505 L 0 505 Z M 71 662 L 133 662 C 129 607 114 567 90 542 C 66 517 36 505 0 505 C -36 505 -66 517 -90 542 C -114 567 -128 607 -132 662 L -70 662 C -68 630 -61 604 -51 585 C -41 565 -24 556 0 556 C 24 556 41 565 52 584 C 62 602 69 628 71 662 Z" unicode="̆" />
<glyph horiz-adv-x="0" d="M 0 511 L 0 511 Z M 34 511 L -34 511 L -34 638 L 34 638 L 34 511 Z" unicode="̇" />
<glyph horiz-adv-x="0" d="M 0 500 L 0 500 Z M 107 500 L 47 500 L 47 656 L 107 656 L 107 500 Z M -49 500 L -109 500 L -109 656 L -49 656 L -49 500 Z" unicode="̈" />
<glyph horiz-adv-x="0" d="M 0 496 L 0 496 Z M 0 496 C -30 496 -56 507 -78 529 C -100 551 -111 577 -111 608 C -111 638 -100 664 -78 686 C -56 708 -30 719 0 719 C 31 719 57 708 79 686 C 101 664 112 638 112 608 C 112 577 101 551 79 529 C 57 507 31 496 0 496 Z M 0 539 C 18 539 34 545 47 559 C 59 572 66 588 66 608 C 66 626 59 642 47 656 C 34 669 18 676 0 676 C -18 676 -34 669 -47 656 C -59 642 -66 626 -66 608 C -66 588 -59 572 -47 559 C -34 545 -18 539 0 539 Z" unicode="̊" />
<glyph horiz-adv-x="0" d="M 0 498 L 0 498 Z M -157 498 L -85 653 L -6 653 L -91 498 L -157 498 Z M 6 498 L 78 653 L 157 653 L 72 498 L 6 498 Z" unicode="̋" />
<glyph horiz-adv-x="0" d="M 0 499 L 0 499 Z M -138 670 L -75 670 L 1 549 L 77 670 L 139 670 L 34 499 L -33 499 L -138 670 Z" unicode="̌" />
<glyph horiz-adv-x="0" d="M 0 -70 L 0 -70 Z M 79 -70 C 76 -112 65 -156 45 -201 C 25 -245 2 -282 -22 -310 L -78 -284 C -64 -265 -48 -235 -31 -195 C -13 -155 -3 -113 1 -70 L 79 -70 Z" unicode="̦" />
<glyph horiz-adv-x="0" d="M 0 0 L 0 0 Z M 7 -184 C -14 -184 -36 -181 -58 -175 C -80 -169 -97 -161 -111 -152 L -100 -119 C -91 -125 -79 -132 -63 -138 C -47 -144 -30 -147 -12 -147 C 3 -147 16 -143 28 -136 C 39 -128 45 -118 45 -106 C 45 -91 40 -81 30 -75 C 20 -69 9 -67 -3 -67 C -11 -67 -17 -67 -23 -69 C -29 -70 -36 -72 -44 -75 L -57 -61 L 1 11 L 44 11 L -4 -52 C 28 -43 55 -45 77 -57 C 99 -69 111 -87 111 -111 C 111 -135 100 -153 80 -165 C 59 -177 35 -184 7 -184 Z" unicode="̧" />
<glyph horiz-adv-x="0" d="M 0 0 L 0 0 Z M 101 -96 L 123 -127 C 104 -146 82 -161 58 -172 C 34 -182 7 -188 -21 -188 C -52 -188 -77 -180 -95 -166 C -113 -151 -123 -133 -123 -111 C -123 -86 -113 -63 -94 -42 C -74 -20 -44 -2 -3 14 L 47 13 C 16 0 -9 -15 -29 -31 C -49 -47 -60 -64 -60 -82 C -60 -97 -54 -109 -42 -118 C -30 -127 -16 -132 2 -132 C 22 -132 41 -128 58 -122 C 75 -115 89 -106 101 -96 Z" unicode="̨" />
<glyph horiz-adv-x="563" d="M 2 0 L 2 0 Z M 568 0 L 2 0 L 273 730 L 298 730 L 568 0 Z M 470 59 L 283 593 L 97 59 L 470 59 Z" unicode="Δ" />
<glyph horiz-adv-x="724" d="M 34 0 L 34 0 Z M 43 0 L 43 69 L 253 69 L 253 147 C 219 158 188 174 161 194 C 134 214 111 238 92 264 C 73 290 59 318 49 349 C 39 379 34 411 34 443 C 34 485 41 524 56 561 C 71 598 92 630 120 657 C 148 684 182 705 222 721 C 262 737 307 745 357 745 C 409 745 455 737 496 721 C 537 705 572 683 600 656 C 628 629 649 597 664 560 C 679 523 687 484 687 442 C 687 410 682 378 673 348 C 663 317 649 289 631 263 C 613 237 590 214 562 194 C 534 174 503 158 467 147 L 467 69 L 677 69 L 677 0 L 408 0 L 408 186 C 439 196 467 209 492 227 C 516 245 537 265 554 288 C 570 310 583 335 592 361 C 600 387 605 413 605 439 C 605 474 599 507 587 537 C 575 567 558 592 536 614 C 514 636 488 653 458 665 C 427 677 393 683 357 683 C 321 683 288 676 258 664 C 228 652 203 635 182 614 C 161 592 145 566 133 536 C 121 506 116 473 116 437 C 116 411 120 386 128 360 C 136 334 149 311 165 289 C 181 267 202 247 227 229 C 251 211 280 196 312 186 L 312 0 L 43 0 Z" unicode="Ω" />
<glyph horiz-adv-x="593" d="M 75 0 L 75 0 Z M 75 -112 L 75 467 L 148 467 L 148 154 C 148 121 160 95 186 77 C 212 59 242 50 276 50 C 293 50 311 52 329 58 C 347 63 363 71 377 82 C 391 93 402 107 411 124 C 419 141 424 161 424 184 L 424 467 L 497 467 L 497 0 L 430 0 L 430 105 C 419 74 398 48 367 26 C 335 4 301 -6 265 -7 C 238 -7 213 -2 190 9 C 167 20 151 36 143 57 L 143 -112 L 75 -112 Z" unicode="μ" />
<glyph horiz-adv-x="549" d="M 163 434 L 163 0 L 90 0 L 90 434 L 15 434 L 15 492 L 534 492 L 534 434 L 454 434 L 454 0 L 380 0 L 380 434 L 163 434 Z" unicode="π" />
<glyph horiz-adv-x="758" d="M 7 0 L 7 0 Z M 743 730 L 568 -5 L 517 -5 L 376 568 L 231 -5 L 180 -5 L 7 730 L 84 730 L 211 163 L 351 730 L 406 730 L 544 162 L 673 730 L 743 730 Z M 378 792 L 378 792 Z M 466 792 L 394 792 L 290 962 L 375 962 L 466 792 Z" unicode="Ẁ" />
<glyph horiz-adv-x="574" d="M 4 0 L 4 0 Z M 382 -2 L 287 286 L 191 -2 L 137 -2 L 4 436 L 77 436 L 171 106 L 265 394 L 316 394 L 407 106 L 505 436 L 570 436 L 436 -2 L 382 -2 Z M 288 498 L 288 498 Z M 376 498 L 304 498 L 200 668 L 285 668 L 376 498 Z" unicode="ẁ" />
<glyph horiz-adv-x="758" d="M 7 0 L 7 0 Z M 743 730 L 568 -5 L 517 -5 L 376 568 L 231 -5 L 180 -5 L 7 730 L 84 730 L 211 163 L 351 730 L 406 730 L 544 162 L 673 730 L 743 730 Z M 378 792 L 378 792 Z M 291 792 L 381 962 L 466 962 L 363 792 L 291 792 Z" unicode="Ẃ" />
<glyph horiz-adv-x="574" d="M 4 0 L 4 0 Z M 382 -2 L 287 286 L 191 -2 L 137 -2 L 4 436 L 77 436 L 171 106 L 265 394 L 316 394 L 407 106 L 505 436 L 570 436 L 436 -2 L 382 -2 Z M 288 498 L 288 498 Z M 201 498 L 291 668 L 376 668 L 273 498 L 201 498 Z" unicode="ẃ" />
<glyph horiz-adv-x="758" d="M 7 0 L 7 0 Z M 743 730 L 568 -5 L 517 -5 L 376 568 L 231 -5 L 180 -5 L 7 730 L 84 730 L 211 163 L 351 730 L 406 730 L 544 162 L 673 730 L 743 730 Z M 378 794 L 378 794 Z M 485 794 L 425 794 L 425 950 L 485 950 L 485 794 Z M 329 794 L 269 794 L 269 950 L 329 950 L 329 794 Z" unicode="Ẅ" />
<glyph horiz-adv-x="574" d="M 4 0 L 4 0 Z M 382 -2 L 287 286 L 191 -2 L 137 -2 L 4 436 L 77 436 L 171 106 L 265 394 L 316 394 L 407 106 L 505 436 L 570 436 L 436 -2 L 382 -2 Z M 288 500 L 288 500 Z M 395 500 L 335 500 L 335 656 L 395 656 L 395 500 Z M 239 500 L 179 500 L 179 656 L 239 656 L 239 500 Z" unicode="ẅ" />
<glyph horiz-adv-x="504" d="M 1 0 L 1 0 Z M 514 730 L 296 301 L 296 0 L 216 0 L 216 303 L 1 730 L 86 730 L 260 384 L 434 730 L 514 730 Z M 259 792 L 259 792 Z M 347 792 L 275 792 L 171 962 L 256 962 L 347 792 Z" unicode="Ỳ" />
<glyph horiz-adv-x="370" d="M 0 0 L 0 0 Z M 370 436 L 174 -105 C 160 -141 142 -165 119 -179 C 96 -193 73 -200 50 -200 C 38 -200 27 -198 17 -196 C 7 -194 0 -191 -5 -189 L 17 -126 C 19 -127 24 -129 32 -131 C 39 -133 47 -135 55 -135 C 66 -135 77 -130 89 -120 C 100 -110 110 -95 118 -74 L 154 33 L -1 436 L 77 436 L 190 125 L 297 436 L 370 436 Z M 186 498 L 186 498 Z M 274 498 L 202 498 L 98 668 L 183 668 L 274 498 Z" unicode="ỳ" />
<glyph horiz-adv-x="460" d="M 419 222 L 42 222 L 42 286 L 419 286 L 419 222 Z" unicode="–" />
<glyph horiz-adv-x="645" d="M 604 222 L 42 222 L 42 286 L 604 286 L 604 222 Z" unicode="—" />
<glyph horiz-adv-x="226" d="M 40 507 L 40 514 C 40 556 47 595 63 632 C 78 669 102 704 134 737 L 205 731 C 185 710 165 681 146 645 C 126 608 117 565 117 515 L 117 507 L 40 507 Z" unicode="‘" />
<glyph horiz-adv-x="226" d="M 187 737 L 187 730 C 187 688 179 648 163 612 C 147 575 123 540 93 507 L 22 513 C 42 535 61 565 81 601 C 100 637 110 679 110 729 L 110 737 L 187 737 Z" unicode="’" />
<glyph horiz-adv-x="227" d="M 186 110 L 186 103 C 186 61 178 21 162 -15 C 146 -51 122 -86 92 -120 L 21 -114 C 41 -91 60 -62 80 -26 C 99 9 109 52 109 102 L 109 110 L 186 110 Z" unicode="‚" />
<glyph horiz-adv-x="375" d="M 196 507 L 196 514 C 196 550 204 587 221 624 C 237 661 263 699 299 737 L 364 731 C 355 722 345 710 334 696 C 322 682 312 665 302 647 C 292 628 283 607 277 585 C 270 563 267 539 267 515 L 267 507 L 196 507 Z M 42 507 L 42 514 C 42 550 50 587 67 624 C 84 661 110 699 144 737 L 210 731 C 201 722 191 710 180 696 C 168 682 158 665 148 647 C 138 628 129 607 122 585 C 115 563 112 539 112 515 L 112 507 L 42 507 Z" unicode="“" />
<glyph horiz-adv-x="375" d="M 179 737 L 179 730 C 179 688 171 649 157 613 C 142 577 119 541 87 507 L 21 513 C 43 537 63 566 81 602 C 99 637 108 679 108 729 L 108 737 L 179 737 Z M 334 737 L 334 730 C 334 688 326 648 311 612 C 295 576 272 541 242 507 L 176 513 C 197 537 217 566 235 602 C 253 637 263 679 263 729 L 263 737 L 334 737 Z" unicode="”" />
<glyph horiz-adv-x="378" d="M 178 111 L 178 104 C 178 62 170 22 156 -13 C 142 -49 119 -85 87 -119 L 21 -113 C 43 -89 63 -59 81 -24 C 99 11 108 53 108 103 L 108 111 L 178 111 Z M 336 111 L 336 104 C 336 62 328 22 313 -13 C 298 -49 275 -85 245 -119 L 178 -113 C 200 -89 220 -60 238 -24 C 256 11 265 53 265 103 L 265 111 L 336 111 Z" unicode="„" />
<glyph horiz-adv-x="454" d="M 434 397 L 263 397 L 263 -179 L 185 -179 L 185 397 L 21 397 L 21 470 L 185 470 L 185 730 L 263 730 L 263 470 L 434 470 L 434 397 Z" unicode="†" />
<glyph horiz-adv-x="458" d="M 188 -179 L 188 118 L 26 118 L 26 191 L 188 191 L 188 385 L 26 385 L 26 458 L 188 458 L 188 730 L 265 730 L 265 458 L 432 458 L 432 385 L 265 385 L 265 191 L 432 191 L 432 118 L 265 118 L 265 -179 L 188 -179 Z" unicode="‡" />
<glyph horiz-adv-x="382" d="M 191 450 C 211 450 227 443 241 429 C 255 415 262 399 262 379 C 262 359 255 343 241 329 C 227 315 211 309 191 309 C 171 309 154 315 141 329 C 127 343 121 359 121 379 C 121 399 127 415 141 429 C 154 443 171 450 191 450 Z" unicode="•" />
<glyph horiz-adv-x="615" d="M 65 0 L 65 115 L 141 115 L 141 0 L 65 0 Z M 270 0 L 270 115 L 345 115 L 345 0 L 270 0 Z M 474 0 L 474 115 L 550 115 L 550 0 L 474 0 Z" unicode="…" />
<glyph horiz-adv-x="1011" d="M 177 364 C 160 364 143 367 127 375 C 111 383 96 394 83 410 C 70 426 60 445 52 469 C 44 493 40 520 40 552 C 40 578 43 602 50 625 C 57 648 67 668 79 685 C 91 702 105 716 122 726 C 139 736 157 741 177 741 C 198 741 217 736 234 726 C 251 716 266 702 278 686 C 290 669 299 649 306 627 C 312 604 316 580 316 555 C 316 528 312 503 305 480 C 298 456 288 436 276 419 C 264 401 249 388 232 378 C 215 368 197 364 177 364 Z M 102 0 L 525 730 L 580 730 L 158 0 L 102 0 Z M 106 551 C 106 517 111 486 123 460 C 135 434 152 421 176 421 C 202 421 221 434 233 461 C 245 487 251 517 251 551 C 251 567 249 583 247 599 C 244 615 240 629 234 641 C 228 653 220 663 211 671 C 202 679 191 683 179 683 C 166 683 155 679 146 672 C 136 664 129 654 123 642 C 117 630 113 616 110 600 C 107 584 106 567 106 551 Z M 518 -3 C 501 -3 484 0 468 8 C 452 16 437 27 424 43 C 411 59 401 78 393 102 C 385 126 381 153 381 185 C 381 211 384 236 391 259 C 397 282 407 302 419 319 C 431 336 446 349 463 359 C 480 369 499 374 520 374 C 541 374 560 369 578 359 C 595 349 609 335 621 319 C 633 302 642 282 648 260 C 654 237 658 213 658 188 C 658 161 654 136 648 113 C 641 89 631 69 619 52 C 607 34 592 21 575 11 C 557 1 538 -3 518 -3 Z M 830 -3 C 813 -3 796 0 780 8 C 764 16 749 27 736 43 C 723 59 713 78 705 102 C 697 126 693 153 693 185 C 693 211 696 236 703 259 C 709 282 719 302 731 319 C 743 336 758 349 775 359 C 792 369 811 374 832 374 C 853 374 872 369 890 359 C 907 349 921 335 933 319 C 945 302 954 282 960 260 C 966 237 970 213 970 188 C 970 161 966 136 960 113 C 953 89 943 69 931 52 C 919 34 904 21 887 11 C 869 1 850 -3 830 -3 Z M 518 55 C 544 55 563 68 575 94 C 587 120 593 151 593 185 C 593 201 591 218 588 234 C 585 250 581 264 575 276 C 569 288 562 298 553 306 C 543 313 532 317 520 317 C 496 317 477 303 465 277 C 453 250 447 219 447 185 C 447 149 453 119 465 93 C 477 67 494 55 518 55 Z M 830 55 C 856 55 875 68 887 94 C 899 120 905 151 905 185 C 905 201 903 218 900 234 C 897 250 893 264 887 276 C 881 288 874 298 865 306 C 855 313 844 317 832 317 C 807 317 788 303 776 277 C 764 250 758 219 758 185 C 758 149 764 119 776 93 C 788 67 806 55 830 55 Z" unicode="‰" />
<glyph horiz-adv-x="231" d="M 201 91 L 29 257 L 29 304 L 201 468 L 201 393 L 93 279 L 201 169 L 201 91 Z" unicode="‹" />
<glyph horiz-adv-x="232" d="M 30 468 L 203 302 L 203 255 L 30 91 L 30 165 L 138 280 L 30 389 L 30 468 Z" unicode="›" />
<glyph horiz-adv-x="145" d="M 300 730 L -80 0 L -145 0 L 235 730 L 300 730 Z" unicode="⁄" />
<glyph horiz-adv-x="325" d="M 15 458 L 15 503 L 207 739 L 250 739 L 250 507 L 314 507 L 314 458 L 250 458 L 250 373 L 188 373 L 188 458 L 15 458 Z M 75 502 L 190 502 L 190 649 L 75 502 Z" unicode="⁴" />
<glyph horiz-adv-x="500" d="M 484 117 C 466 79 441 48 407 24 C 373 0 337 -12 297 -12 C 243 -12 195 12 155 62 C 115 112 89 180 77 266 L 32 266 L 32 326 L 72 326 C 71 332 71 338 71 344 C 71 350 71 356 71 362 C 71 367 71 372 71 378 C 71 383 71 388 72 393 L 32 393 L 32 453 L 76 453 C 81 495 90 533 102 569 C 114 604 130 634 149 660 C 167 686 189 706 214 720 C 238 734 266 742 296 742 C 344 742 382 730 411 708 C 439 685 461 658 476 627 L 422 590 C 409 613 393 633 374 651 C 354 668 329 677 298 677 C 259 677 226 657 199 618 C 172 578 155 523 147 453 L 441 453 L 441 393 L 143 393 C 142 388 142 383 142 378 C 142 372 142 367 142 362 C 142 356 142 349 142 343 C 142 337 142 331 143 326 L 441 326 L 441 266 L 148 266 C 158 196 177 142 206 106 C 234 70 266 52 300 52 C 331 52 358 62 380 83 C 402 103 419 128 432 156 L 484 117 Z" unicode="€" />
<glyph horiz-adv-x="838" d="M 785 323 L 719 323 L 719 620 L 585 415 L 564 415 L 431 619 L 431 323 L 366 323 L 366 730 L 434 730 L 575 514 L 715 730 L 785 730 L 785 323 Z M 337 659 L 216 659 L 216 323 L 146 323 L 146 659 L 23 659 L 23 730 L 337 730 L 337 659 Z" unicode="™" />
<glyph horiz-adv-x="721" d="M 43 0 L 43 69 L 253 69 L 253 147 C 219 158 188 174 161 194 C 134 214 111 238 92 264 C 73 290 59 318 49 349 C 39 379 34 411 34 443 C 34 485 41 524 56 561 C 71 598 92 630 120 657 C 148 684 182 705 222 721 C 262 737 307 745 357 745 C 409 745 455 737 496 721 C 537 705 572 683 600 656 C 628 629 649 597 664 560 C 679 523 687 484 687 442 C 687 410 682 378 673 348 C 663 317 649 289 631 263 C 613 237 590 214 562 194 C 534 174 503 158 467 147 L 467 69 L 677 69 L 677 0 L 408 0 L 408 186 C 439 196 467 209 492 227 C 516 245 537 265 554 288 C 570 310 583 335 592 361 C 600 387 605 413 605 439 C 605 474 599 507 587 537 C 575 567 558 592 536 614 C 514 636 488 653 458 665 C 427 677 393 683 357 683 C 321 683 288 676 258 664 C 228 652 203 635 182 614 C 161 592 145 566 133 536 C 121 506 116 473 116 437 C 116 411 120 386 128 360 C 136 334 149 311 165 289 C 181 267 202 247 227 229 C 251 211 280 196 312 186 L 312 0 L 43 0 Z" unicode="Ω" />
<glyph horiz-adv-x="470" d="M 429 269 C 429 221 423 180 413 145 C 403 110 389 81 371 59 C 353 36 331 19 307 8 C 283 -2 257 -8 229 -8 C 203 -8 178 -3 154 7 C 130 17 108 31 90 50 C 71 69 56 93 45 121 C 34 149 29 180 29 216 C 29 249 33 280 43 308 C 53 336 66 361 83 381 C 100 401 120 417 143 429 C 166 440 191 446 218 446 C 254 446 284 436 310 418 C 335 399 354 375 367 345 C 361 417 348 480 329 532 C 310 584 289 626 265 659 C 241 692 215 717 189 733 C 162 749 138 757 116 758 L 148 802 C 170 802 198 792 230 773 C 262 753 293 722 323 680 C 352 638 377 583 398 515 C 418 447 429 365 429 269 Z M 228 45 C 266 45 297 61 319 93 C 341 125 352 169 352 224 C 352 274 341 314 319 345 C 297 376 267 392 227 392 C 191 392 161 376 139 345 C 117 313 106 271 106 219 C 106 162 117 119 139 89 C 161 59 191 45 228 45 Z" unicode="∂" />
<glyph horiz-adv-x="570" d="M 568 0 L 2 0 L 273 730 L 298 730 L 568 0 Z M 470 59 L 283 593 L 97 59 L 470 59 Z" unicode="∆" />
<glyph horiz-adv-x="656" d="M 204 663 L 204 0 L 128 0 L 128 663 L 15 663 L 15 730 L 641 730 L 641 663 L 532 663 L 532 0 L 455 0 L 455 663 L 204 663 Z" unicode="∏" />
<glyph horiz-adv-x="551" d="M 147 663 L 379 307 L 115 -112 L 519 -112 L 519 -179 L -9 -179 L 304 306 L 21 730 L 498 730 L 498 663 L 147 663 Z" unicode="∑" />
<glyph horiz-adv-x="511" d="M 470 301 L 42 301 L 42 361 L 470 361 L 470 301 Z" unicode="−" />
<glyph horiz-adv-x="510" d="M 498 730 L 198 0 L 186 0 L 15 326 L 69 364 L 201 103 L 450 730 L 498 730 Z" unicode="√" />
<glyph horiz-adv-x="331" d="M 110 -39 L 170 633 C 172 667 185 693 208 711 C 231 729 255 739 279 739 C 291 739 303 738 314 737 C 325 736 332 735 335 735 L 329 670 C 327 670 323 671 317 672 C 311 672 305 673 299 673 C 280 673 264 666 252 654 C 240 641 232 621 230 595 L 173 -65 C 170 -97 157 -124 134 -146 C 111 -168 83 -179 51 -179 C 34 -179 18 -177 4 -174 C -10 -170 -21 -167 -29 -163 L -21 -110 C -17 -111 -10 -113 0 -115 C 9 -117 18 -119 27 -119 C 47 -119 66 -112 82 -98 C 98 -84 107 -64 110 -39 Z" unicode="∫" />
<glyph horiz-adv-x="485" d="M 377 493 L 448 493 C 447 444 439 406 424 378 C 409 350 386 337 354 337 C 332 337 313 341 297 351 C 281 360 266 371 254 383 C 240 395 225 405 211 414 C 196 423 181 428 167 428 C 153 428 138 420 124 404 C 110 388 103 367 103 340 L 41 340 C 41 388 50 425 70 453 C 90 480 114 494 144 494 C 165 494 184 489 200 479 C 216 469 231 458 244 448 C 256 438 268 429 281 421 C 294 413 308 409 323 409 C 341 409 355 415 364 429 C 372 442 377 463 377 493 Z M 379 322 L 448 322 C 447 273 438 235 422 207 C 406 179 381 165 349 165 C 326 165 307 169 291 179 C 275 189 260 199 248 211 C 235 222 222 232 208 241 C 194 249 181 254 167 254 C 153 254 139 246 125 231 C 111 216 105 195 105 168 L 41 168 C 41 216 51 254 71 282 C 91 310 117 324 149 324 C 171 324 191 318 208 308 C 225 298 240 287 252 276 C 263 266 275 256 288 248 C 301 240 314 236 328 236 C 346 236 359 242 367 256 C 375 270 379 292 379 322 Z" unicode="≈" />
<glyph horiz-adv-x="500" d="M 457 182 L 222 182 L 169 74 L 118 96 L 160 182 L 65 182 L 65 247 L 192 247 L 262 392 L 65 392 L 65 455 L 293 455 L 345 562 L 397 540 L 355 455 L 457 455 L 457 392 L 325 392 L 254 247 L 457 247 L 457 182 Z" unicode="≠" />
<glyph horiz-adv-x="500" d="M 62 300 L 62 350 L 433 554 L 433 483 L 134 327 L 433 168 L 433 97 L 62 300 Z M 61 77 L 433 77 L 433 20 L 61 20 L 61 77 Z" unicode="≤" />
<glyph horiz-adv-x="500" d="M 432 300 L 61 97 L 61 168 L 360 327 L 61 483 L 61 554 L 432 350 L 432 300 Z M 433 77 L 433 20 L 61 20 L 61 77 L 433 77 Z" unicode="≥" />
<glyph horiz-adv-x="526" d="M 495 326 L 268 -9 L 258 -9 L 31 326 L 31 337 L 258 671 L 268 671 L 495 337 L 495 326 Z M 425 327 L 425 336 L 268 573 L 259 573 L 101 336 L 101 327 L 259 89 L 268 89 L 425 327 Z" unicode="◊" />
<glyph horiz-adv-x="730" d="M 448 688 L 282 688 L 282 730 L 448 730 L 448 688 Z M 659 282 L 615 282 L 615 448 L 659 448 L 659 282 Z M 115 282 L 71 282 L 71 448 L 115 448 L 115 282 Z M 418 312 L 312 312 L 312 418 L 418 418 L 418 312 Z M 448 0 L 282 0 L 282 43 L 448 43 L 448 0 Z" unicode="" />
<glyph horiz-adv-x="441" d="M 242 375 L 156 375 L 156 0 L 83 0 L 83 375 L 20 375 L 20 436 L 83 436 L 83 600 C 83 628 87 652 96 674 C 105 696 117 714 131 728 C 145 742 162 753 180 761 C 198 769 215 773 233 773 C 250 773 266 771 281 768 C 295 764 306 760 313 756 L 300 695 C 295 697 287 700 277 703 C 266 706 255 708 245 708 C 223 708 203 698 184 678 C 165 658 156 630 156 594 L 156 436 L 242 436 L 242 375 Z M 388 543 L 310 543 L 310 618 L 388 618 L 388 543 Z M 385 0 L 312 0 L 312 436 L 385 436 L 385 0 Z" unicode="ﬁ" />
<glyph horiz-adv-x="436" d="M 156 375 L 156 0 L 83 0 L 83 375 L 20 375 L 20 436 L 83 436 L 83 591 C 83 619 87 643 96 665 C 105 687 117 705 131 720 C 145 734 162 745 180 753 C 198 761 215 765 233 765 C 250 765 266 763 280 760 C 294 756 304 753 310 750 L 310 761 L 383 761 L 383 0 L 310 0 L 310 734 L 300 687 C 295 689 287 692 277 695 C 266 698 255 700 245 700 C 223 700 202 689 184 669 C 165 649 156 621 156 585 L 156 436 L 242 436 L 242 375 L 156 375 Z" unicode="ﬂ" />
</font>
</defs>
</svg>
