<?xml version="1.0" encoding="utf-8" ?><svg version="1.1" xmlns = 'http://www.w3.org/2000/svg'><defs><font id='web' horiz-adv-x="1000">
<font-face font-family="web" descent="-200" cap-height="730" units-per-em="1000" bbox="-190,-360,1209,1026" x-height="540" ascent="800" />
<missing-glyph horiz-adv-x="500" d="" /><glyph horiz-adv-x="271" d="" unicode=" " />
<glyph horiz-adv-x="305" d="M 207 435 L 176 210 L 127 210 L 97 435 L 97 730 L 207 730 L 207 435 Z M 203 0 L 101 0 L 101 103 L 203 103 L 203 0 Z" unicode="!" />
<glyph horiz-adv-x="430" d="M 357 607 L 351 462 L 273 462 L 269 606 L 269 730 L 357 730 L 357 607 Z M 160 606 L 156 462 L 78 462 L 73 606 L 73 730 L 160 730 L 160 606 Z" unicode="&#x22;" />
<glyph horiz-adv-x="653" d="M 593 219 L 455 219 L 436 0 L 377 1 L 396 219 L 231 219 L 212 0 L 153 1 L 172 219 L 33 219 L 33 291 L 178 291 L 191 435 L 60 435 L 60 508 L 198 508 L 217 730 L 276 729 L 257 508 L 422 508 L 441 730 L 500 729 L 481 508 L 620 508 L 620 435 L 474 435 L 462 291 L 593 291 L 593 219 Z M 238 291 L 402 291 L 415 435 L 250 435 L 238 291 Z" unicode="#" />
<glyph horiz-adv-x="553" d="M 513 187 C 513 160 507 135 496 113 C 484 91 469 72 450 56 C 431 40 409 28 383 19 C 357 9 329 4 300 2 L 300 -120 L 243 -120 L 243 2 C 197 5 155 14 118 30 C 80 46 51 64 31 85 L 65 162 C 83 142 109 124 143 109 C 177 93 210 83 243 79 L 243 340 C 170 372 118 403 88 434 C 58 465 43 505 43 553 C 43 603 61 645 99 677 C 137 709 185 727 243 730 L 243 789 L 300 789 L 300 728 C 342 725 379 717 411 704 C 443 690 469 674 490 654 L 445 588 C 427 605 405 619 380 631 C 354 642 328 649 300 652 L 300 408 L 305 406 C 372 376 423 345 459 315 C 495 284 513 241 513 187 Z M 135 552 C 135 526 142 506 157 490 C 172 474 201 455 243 435 L 243 653 C 211 649 185 638 165 621 C 145 603 135 580 135 552 Z M 420 183 C 420 207 412 229 397 249 C 382 268 350 290 300 314 L 300 77 C 337 79 366 90 388 109 C 409 127 420 152 420 183 Z" unicode="$" />
<glyph horiz-adv-x="885" d="M 217 346 C 193 346 171 350 149 360 C 127 369 109 382 93 400 C 77 417 64 438 55 462 C 45 486 41 513 41 543 C 41 569 45 594 54 618 C 62 642 74 663 90 681 C 106 699 124 713 146 724 C 167 734 190 740 215 740 C 241 740 264 734 286 724 C 307 713 325 699 341 682 C 356 664 368 644 376 620 C 384 596 389 572 389 546 C 389 518 384 492 376 468 C 368 444 356 423 341 405 C 325 387 307 372 286 362 C 265 351 242 346 217 346 Z M 221 0 L 126 0 L 649 730 L 744 730 L 221 0 Z M 214 419 C 242 419 265 430 281 453 C 297 475 305 505 305 543 C 305 579 297 608 283 631 C 268 654 246 666 216 666 C 188 666 165 654 149 631 C 133 608 125 579 125 543 C 125 503 133 472 151 451 C 168 429 189 419 214 419 Z M 670 -3 C 646 -3 624 1 603 11 C 582 20 564 33 548 51 C 532 68 519 89 510 113 C 500 137 496 164 496 194 C 496 220 500 245 509 269 C 517 293 529 314 545 332 C 560 350 578 364 600 375 C 621 385 644 391 669 391 C 695 391 718 385 740 375 C 762 364 780 350 795 333 C 810 315 822 295 830 271 C 838 247 843 223 843 197 C 843 169 838 143 830 119 C 822 95 810 74 795 56 C 779 38 761 23 740 13 C 718 2 695 -3 670 -3 Z M 667 71 C 696 71 719 82 735 105 C 751 127 759 157 759 194 C 759 230 751 259 736 283 C 721 306 699 318 670 318 C 641 318 619 306 603 283 C 587 260 580 230 580 194 C 580 154 588 123 606 102 C 623 81 643 71 667 71 Z" unicode="%" />
<glyph horiz-adv-x="741" d="M 666 -4 L 568 77 C 534 50 494 29 450 14 C 406 0 354 -8 296 -8 C 218 -8 155 7 107 39 C 59 71 35 115 35 173 C 35 198 39 220 49 240 C 59 260 71 278 87 294 C 103 310 121 325 141 339 C 161 353 181 366 203 379 L 195 386 C 185 394 174 404 163 416 C 152 428 142 441 133 456 C 123 471 115 488 109 507 C 103 526 100 547 100 570 C 100 593 105 615 117 636 C 129 656 144 674 164 689 C 183 703 205 715 229 724 C 253 732 278 737 303 737 C 333 737 360 732 384 723 C 408 714 428 702 444 687 C 460 672 473 655 482 635 C 490 615 495 593 495 571 C 495 529 481 494 453 468 C 425 441 388 413 343 385 L 559 208 C 570 220 581 234 592 249 C 602 264 613 280 624 296 L 712 250 C 700 230 688 212 676 194 C 663 176 650 159 637 144 L 717 78 L 666 -4 Z M 265 449 L 287 431 C 323 454 351 476 371 496 C 391 516 402 539 402 564 C 402 590 393 612 375 630 C 357 648 332 658 300 658 C 270 658 245 648 225 630 C 205 611 195 590 195 568 C 195 545 202 523 216 503 C 230 483 246 465 265 449 Z M 138 182 C 138 146 153 119 185 100 C 217 81 255 72 301 72 C 337 72 370 78 402 90 C 433 102 463 119 491 141 L 259 333 C 221 308 191 285 170 263 C 148 241 138 214 138 182 Z" unicode="&#x26;" />
<glyph horiz-adv-x="234" d="M 160 602 L 156 453 L 78 453 L 73 602 L 73 730 L 160 730 L 160 602 Z" unicode="'" />
<glyph horiz-adv-x="348" d="M 331 -108 L 331 -188 C 288 -168 248 -142 212 -110 C 175 -77 144 -40 118 2 C 92 44 71 89 56 139 C 41 189 34 240 34 293 C 34 348 42 400 58 449 C 74 497 96 541 123 581 C 150 620 182 654 218 683 C 254 711 291 733 331 749 L 331 679 C 307 664 285 645 263 623 C 241 600 221 573 204 541 C 187 509 173 473 163 431 C 153 389 148 343 148 293 C 148 204 164 124 198 54 C 231 -15 275 -70 331 -108 Z" unicode="(" />
<glyph horiz-adv-x="348" d="M 17 680 L 17 749 C 53 735 89 714 125 686 C 161 658 192 625 220 585 C 248 545 270 500 287 449 C 304 398 313 343 313 284 C 313 228 305 176 289 126 C 273 76 251 30 225 -9 C 198 -49 167 -85 131 -116 C 95 -146 57 -170 17 -188 L 17 -107 C 41 -89 65 -68 87 -42 C 109 -16 128 12 145 45 C 161 77 175 114 185 154 C 195 194 200 237 200 284 C 200 338 194 386 183 430 C 172 474 158 512 141 544 C 123 576 104 604 82 627 C 60 649 38 667 17 680 Z" unicode=")" />
<glyph horiz-adv-x="432" d="M 394 570 L 261 535 L 360 444 L 293 386 L 217 503 L 142 386 L 78 444 L 173 537 L 38 571 L 71 649 L 190 584 L 170 730 L 265 730 L 244 584 L 365 648 L 394 570 Z" unicode="*" />
<glyph horiz-adv-x="500" d="M 475 291 L 290 291 L 290 112 L 211 112 L 211 291 L 25 291 L 25 371 L 211 371 L 211 550 L 290 550 L 290 371 L 475 371 L 475 291 Z" unicode="+" />
<glyph horiz-adv-x="254" d="M 211 120 C 205 60 190 6 167 -43 C 143 -92 118 -129 90 -154 L 20 -122 C 27 -114 35 -101 45 -84 C 55 -67 64 -48 73 -26 C 81 -4 89 19 97 45 C 104 70 109 95 113 120 L 211 120 Z" unicode="," />
<glyph horiz-adv-x="356" d="M 311 224 L 45 224 L 45 308 L 311 308 L 311 224 Z" unicode="-" />
<glyph horiz-adv-x="255" d="M 174 0 L 81 0 L 81 135 L 174 135 L 174 0 Z" unicode="." />
<glyph horiz-adv-x="323" d="M 320 730 L 89 0 L 3 0 L 236 730 L 320 730 Z" unicode="/" />
<glyph horiz-adv-x="605" d="M 299 -12 C 260 -12 225 -3 193 14 C 161 31 133 56 111 88 C 89 120 71 160 59 206 C 47 252 41 304 41 361 C 41 411 46 460 57 506 C 68 552 84 593 106 628 C 128 662 155 690 189 711 C 222 731 261 742 305 742 C 350 742 389 732 422 712 C 455 692 482 666 503 632 C 524 598 540 559 550 513 C 560 467 565 419 565 369 C 565 314 559 263 548 217 C 537 170 521 130 499 96 C 477 62 450 36 416 17 C 382 -2 343 -12 299 -12 Z M 300 73 C 328 73 353 80 374 94 C 394 108 411 127 425 152 C 439 177 449 207 456 243 C 462 278 466 317 466 359 C 466 402 463 442 457 479 C 451 515 441 547 428 573 C 414 599 397 620 377 635 C 356 650 331 658 302 658 C 274 658 250 650 230 636 C 210 622 193 602 179 576 C 165 550 155 519 149 483 C 142 446 139 406 139 362 C 139 274 152 204 180 152 C 208 99 248 73 300 73 Z" unicode="0" />
<glyph horiz-adv-x="389" d="M 296 0 L 200 0 L 200 605 C 185 586 163 568 133 550 C 103 532 73 521 45 519 L 45 608 C 79 610 112 624 145 648 C 178 672 207 699 232 731 L 296 731 L 296 0 Z" unicode="1" />
<glyph horiz-adv-x="572" d="M 547 0 L 31 0 L 31 38 L 350 360 C 370 380 390 405 408 435 C 426 464 435 496 435 531 C 435 569 420 599 391 623 C 362 646 325 658 281 658 C 233 658 196 643 168 615 C 140 586 127 549 127 503 L 38 503 C 40 577 64 635 110 678 C 156 720 218 742 298 742 C 367 742 423 723 467 687 C 511 650 533 602 533 543 C 533 489 521 444 499 408 C 477 372 453 342 428 317 L 197 87 L 547 87 L 547 0 Z" unicode="2" />
<glyph horiz-adv-x="571" d="M 284 -12 C 217 -12 161 -3 115 13 C 69 30 35 49 11 71 L 63 150 C 83 133 110 116 145 98 C 179 80 221 72 271 72 C 326 72 369 86 401 114 C 432 142 448 178 448 221 C 448 259 433 290 403 313 C 373 336 335 348 287 348 L 149 348 L 149 429 L 282 429 C 325 429 359 440 385 463 C 411 486 424 513 424 544 C 424 572 411 598 386 622 C 361 646 327 658 283 658 C 235 658 196 648 167 628 C 137 608 113 585 95 561 L 40 628 C 60 657 92 683 134 707 C 176 730 227 742 287 742 C 357 742 414 725 457 692 C 499 659 521 616 521 562 C 521 519 507 482 479 452 C 451 421 417 401 377 393 C 424 385 464 365 496 334 C 528 303 545 263 545 215 C 545 184 538 155 526 128 C 514 100 496 76 474 56 C 452 35 424 18 392 6 C 360 -5 324 -12 284 -12 Z" unicode="3" />
<glyph horiz-adv-x="586" d="M 581 188 L 457 188 L 457 0 L 368 0 L 368 188 L 14 188 L 14 259 L 383 742 L 457 742 L 457 266 L 581 266 L 581 188 Z M 369 266 L 369 602 L 118 266 L 369 266 Z" unicode="4" />
<glyph horiz-adv-x="586" d="M 280 -12 C 222 -12 172 -2 128 16 C 84 35 51 56 29 79 L 80 154 C 97 135 123 117 157 99 C 191 81 230 72 276 72 C 329 72 371 88 403 122 C 434 156 450 200 450 254 C 450 304 435 343 405 373 C 375 402 339 417 295 417 C 259 417 226 409 198 395 C 170 381 148 360 134 333 L 71 349 L 101 730 L 492 730 L 492 643 L 172 643 L 157 426 C 169 443 189 459 219 474 C 249 489 281 497 317 497 C 385 497 441 475 484 431 C 527 387 549 330 549 259 C 549 220 542 184 530 151 C 517 117 499 89 476 65 C 452 41 424 22 391 8 C 357 -5 320 -12 280 -12 Z" unicode="5" />
<glyph horiz-adv-x="590" d="M 304 -12 C 266 -12 230 -5 198 7 C 165 19 137 37 113 61 C 89 85 71 113 58 147 C 44 180 38 217 38 258 C 38 303 45 346 59 387 C 73 428 91 467 115 504 C 139 540 167 575 199 609 C 231 642 266 674 303 704 L 371 759 L 427 690 L 368 642 C 310 596 262 550 222 504 C 182 458 158 418 150 386 C 160 406 181 426 213 445 C 244 464 280 474 321 474 C 391 474 449 451 493 407 C 537 363 559 305 559 235 C 559 200 552 167 539 137 C 526 107 508 81 485 59 C 462 37 435 19 404 7 C 373 -5 340 -12 304 -12 Z M 300 72 C 324 72 347 76 367 85 C 387 93 404 105 418 120 C 432 134 442 151 450 171 C 458 190 462 210 462 232 C 462 254 458 274 451 294 C 444 314 434 331 420 346 C 406 361 389 373 369 382 C 349 390 325 395 299 395 C 277 395 255 391 235 383 C 215 375 197 365 182 351 C 166 337 154 321 145 301 C 135 281 131 260 131 237 C 131 191 146 152 176 120 C 206 88 247 72 300 72 Z" unicode="6" />
<glyph horiz-adv-x="511" d="M 494 730 L 510 685 L 159 -8 L 76 33 L 390 641 L 16 641 L 16 730 L 494 730 Z" unicode="7" />
<glyph horiz-adv-x="615" d="M 407 387 C 455 378 494 357 525 323 C 556 289 572 246 572 195 C 572 165 565 138 553 112 C 541 86 523 64 501 46 C 478 28 450 13 417 3 C 384 -6 347 -12 307 -12 C 226 -12 162 7 115 46 C 67 85 44 135 44 195 C 44 220 48 244 58 266 C 67 288 79 308 95 325 C 110 341 127 355 147 366 C 167 376 187 383 208 386 C 190 390 172 397 155 407 C 138 417 123 429 110 443 C 97 457 87 474 79 492 C 71 510 67 529 67 550 C 67 578 73 604 85 628 C 97 652 113 672 135 689 C 156 705 181 718 211 728 C 241 737 273 742 307 742 C 378 742 436 724 481 690 C 525 656 548 611 548 555 C 548 515 534 479 506 447 C 478 415 445 395 407 387 Z M 307 417 C 352 417 389 428 417 451 C 445 474 459 503 459 537 C 459 575 444 605 416 628 C 387 650 351 662 307 662 C 265 662 229 650 200 628 C 170 605 156 575 156 537 C 156 501 170 472 200 450 C 229 428 265 417 307 417 Z M 308 68 C 359 68 400 81 432 107 C 464 133 480 167 480 209 C 480 250 463 282 431 304 C 399 326 358 338 308 338 C 258 338 216 327 184 305 C 152 283 136 250 136 206 C 136 166 151 133 183 107 C 215 81 256 68 308 68 Z" unicode="8" />
<glyph horiz-adv-x="590" d="M 233 -20 L 183 48 L 264 113 C 306 146 344 185 378 231 C 412 277 435 319 447 358 C 441 346 431 335 419 324 C 406 312 391 302 375 293 C 359 284 341 277 323 271 C 304 265 285 263 267 263 C 197 263 140 284 96 327 C 52 370 31 428 31 502 C 31 535 37 566 50 596 C 63 625 81 650 104 672 C 127 694 154 711 186 724 C 218 736 252 743 289 743 C 325 743 360 736 392 724 C 424 712 452 694 476 671 C 499 648 517 620 531 587 C 545 553 552 516 552 474 C 552 424 545 378 531 335 C 517 291 498 251 475 215 C 452 178 425 144 395 114 C 365 84 334 57 303 35 L 233 -20 Z M 288 336 C 312 336 335 340 356 349 C 377 357 395 369 410 383 C 425 397 437 414 445 434 C 453 453 458 473 458 495 C 458 544 441 584 409 616 C 377 647 338 663 292 663 C 266 663 243 658 223 649 C 203 640 186 628 172 614 C 158 599 147 582 139 562 C 131 542 128 521 128 500 C 128 478 131 457 138 437 C 145 417 155 399 169 385 C 182 370 199 358 219 349 C 239 340 262 336 288 336 Z" unicode="9" />
<glyph horiz-adv-x="246" d="M 170 410 L 76 410 L 76 540 L 170 540 L 170 410 Z M 170 0 L 76 0 L 76 131 L 170 131 L 170 0 Z" unicode=":" />
<glyph horiz-adv-x="245" d="M 176 410 L 82 410 L 82 540 L 176 540 L 176 410 Z M 182 103 C 178 79 173 54 165 30 C 157 6 148 -17 138 -39 C 128 -61 116 -81 104 -99 C 91 -117 78 -133 65 -145 L -5 -113 C 3 -103 12 -91 22 -75 C 32 -59 41 -42 50 -23 C 59 -4 67 16 74 38 C 81 60 86 81 89 103 L 182 103 Z" unicode=";" />
<glyph horiz-adv-x="415" d="M 364 98 L 42 289 L 42 369 L 364 558 L 364 473 L 137 332 L 364 185 L 364 98 Z" unicode="&#x3C;" />
<glyph horiz-adv-x="500" d="M 450 388 L 50 388 L 50 468 L 450 468 L 450 388 Z M 450 175 L 50 175 L 50 255 L 450 255 L 450 175 Z" unicode="=" />
<glyph horiz-adv-x="415" d="M 374 289 L 51 98 L 51 185 L 279 332 L 51 474 L 51 558 L 374 369 L 374 289 Z" unicode="&#x3E;" />
<glyph horiz-adv-x="480" d="M 167 201 C 167 251 172 290 182 320 C 192 349 214 376 247 401 C 260 411 273 421 286 431 C 299 441 311 452 321 464 C 331 476 340 489 347 503 C 353 517 357 534 357 552 C 357 584 344 610 319 629 C 293 647 262 657 225 657 C 192 657 162 649 136 635 C 109 620 87 602 71 582 L 9 643 C 29 669 59 692 97 712 C 135 732 181 742 235 742 C 265 742 294 738 321 730 C 348 722 371 710 391 695 C 411 679 426 661 438 639 C 449 617 455 592 455 565 C 455 539 450 515 442 495 C 434 475 423 457 411 441 C 398 425 384 412 370 400 C 355 388 341 377 329 368 C 299 347 281 321 273 291 C 265 261 260 231 260 201 L 167 201 Z M 164 0 L 164 124 L 268 124 L 268 0 L 164 0 Z" unicode="?" />
<glyph horiz-adv-x="891" d="M 440 -26 C 386 -26 335 -16 288 4 C 240 24 199 51 165 86 C 130 120 103 161 83 208 C 63 255 53 305 53 359 C 53 413 62 464 82 511 C 101 558 128 599 162 633 C 196 667 238 693 286 713 C 334 732 388 742 446 742 C 505 742 559 733 607 717 C 655 700 697 676 731 646 C 765 616 791 579 810 536 C 828 493 838 446 838 395 C 838 350 833 312 823 280 C 813 248 801 223 786 203 C 770 183 753 169 733 160 C 713 151 693 147 673 147 C 637 147 608 153 588 166 C 568 179 555 196 549 216 C 541 199 523 183 494 169 C 464 155 429 148 389 148 C 341 148 303 160 277 184 C 250 208 237 237 237 273 C 237 313 254 347 288 373 C 322 399 374 413 444 413 L 542 413 L 542 422 C 542 452 531 474 511 487 C 491 499 465 506 435 506 C 411 506 388 503 366 498 C 344 493 326 487 312 481 L 283 550 C 299 558 322 565 352 573 C 382 580 410 584 438 584 C 494 584 538 570 571 543 C 604 516 621 473 621 415 L 621 273 C 621 258 625 244 634 231 C 642 217 658 211 681 211 C 690 211 700 213 711 218 C 722 223 732 232 742 245 C 751 257 759 275 765 298 C 771 321 774 351 774 387 C 774 427 766 466 752 503 C 737 539 716 571 688 598 C 660 624 625 646 584 662 C 543 678 497 686 446 686 C 396 686 351 677 311 661 C 270 645 235 622 207 593 C 178 564 156 530 140 490 C 124 450 117 407 117 361 C 117 315 125 273 142 233 C 159 193 182 158 211 128 C 240 98 274 75 314 58 C 354 40 396 32 442 32 C 466 32 492 34 519 40 C 545 46 570 55 594 67 L 619 12 C 592 0 563 -10 532 -16 C 501 -22 470 -26 440 -26 Z M 426 217 C 452 217 476 222 498 233 C 520 243 534 254 542 265 L 542 353 L 453 353 C 412 353 382 347 362 335 C 342 323 332 306 332 284 C 332 262 339 245 355 234 C 370 222 394 217 426 217 Z" unicode="@" />
<glyph horiz-adv-x="656" d="M 655 0 L 549 0 L 471 193 L 174 193 L 101 0 L 1 0 L 297 733 L 363 733 L 655 0 Z M 448 269 L 323 586 L 198 269 L 448 269 Z" unicode="A" />
<glyph horiz-adv-x="619" d="M 95 0 L 95 730 L 320 730 C 386 730 437 714 475 683 C 513 652 532 609 532 553 C 532 507 519 468 494 437 C 469 405 436 386 394 378 C 414 376 435 371 456 363 C 477 355 496 344 513 330 C 530 316 544 298 555 276 C 565 254 571 227 571 197 C 571 137 548 90 503 54 C 458 18 400 0 329 0 L 95 0 Z M 188 408 L 300 408 C 324 408 345 411 362 419 C 379 427 393 437 404 449 C 414 461 422 475 427 491 C 431 506 434 522 434 538 C 434 571 421 598 397 619 C 373 639 340 650 298 650 L 188 650 L 188 408 Z M 190 80 L 326 80 C 375 80 411 93 433 119 C 455 145 467 176 467 211 C 467 244 453 272 427 294 C 401 316 367 328 326 328 L 190 328 L 190 80 Z" unicode="B" />
<glyph horiz-adv-x="748" d="M 408 -12 C 360 -12 314 -3 270 14 C 226 32 187 57 154 89 C 121 121 95 161 76 208 C 56 254 47 307 47 365 C 47 420 56 471 74 517 C 92 563 118 603 150 636 C 182 669 220 695 264 714 C 308 732 357 742 409 742 C 475 742 532 731 580 711 C 628 691 668 660 700 620 L 624 557 C 600 584 572 606 538 624 C 504 641 462 650 411 650 C 330 650 266 624 219 573 C 171 521 148 453 148 369 C 148 321 155 279 171 243 C 186 206 206 175 232 151 C 257 127 286 108 319 96 C 351 84 385 78 419 78 C 471 78 515 88 552 109 C 588 129 618 156 642 189 L 716 136 C 688 95 648 60 596 31 C 543 2 480 -12 408 -12 Z" unicode="C" />
<glyph horiz-adv-x="749" d="M 95 0 L 95 730 L 316 730 C 376 730 431 721 479 705 C 527 688 567 664 600 634 C 632 603 657 566 675 522 C 693 478 702 430 702 378 C 702 324 693 274 676 228 C 658 182 633 142 599 108 C 565 74 524 48 474 29 C 424 9 366 0 301 0 L 95 0 Z M 195 81 L 298 81 C 348 81 392 88 430 104 C 468 119 499 140 524 167 C 548 193 567 225 579 261 C 591 297 597 335 597 377 C 597 458 571 524 521 574 C 470 624 400 650 312 650 L 195 650 L 195 81 Z" unicode="D" />
<glyph horiz-adv-x="588" d="M 532 0 L 95 0 L 95 730 L 513 730 L 513 643 L 194 643 L 194 407 L 497 407 L 497 322 L 194 322 L 194 87 L 532 87 L 532 0 Z" unicode="E" />
<glyph horiz-adv-x="532" d="M 487 643 L 195 643 L 195 410 L 472 410 L 472 325 L 195 325 L 195 0 L 95 0 L 95 730 L 487 730 L 487 643 Z" unicode="F" />
<glyph horiz-adv-x="795" d="M 425 366 L 742 366 L 742 154 C 712 103 669 63 611 33 C 553 3 489 -12 419 -12 C 367 -12 318 -3 273 15 C 227 33 188 58 155 91 C 121 123 95 163 76 210 C 56 256 47 308 47 365 C 47 422 56 474 76 521 C 96 567 123 607 157 640 C 191 672 230 697 276 715 C 321 733 369 742 420 742 C 490 742 547 730 592 708 C 637 686 672 662 696 636 L 632 562 C 610 584 582 605 550 623 C 517 641 473 650 417 650 C 379 650 344 643 311 631 C 278 619 249 601 225 577 C 201 553 182 523 168 488 C 154 453 147 413 147 369 C 147 324 154 283 168 246 C 182 209 202 178 227 152 C 252 126 281 106 315 92 C 348 78 384 71 422 71 C 472 71 518 81 560 101 C 602 121 632 149 651 187 L 651 280 L 425 280 L 425 366 Z" unicode="G" />
<glyph horiz-adv-x="765" d="M 669 0 L 569 0 L 569 317 L 195 317 L 195 0 L 95 0 L 95 730 L 195 730 L 195 404 L 569 404 L 569 730 L 669 730 L 669 0 Z" unicode="H" />
<glyph horiz-adv-x="299" d="M 200 0 L 100 0 L 100 730 L 200 730 L 200 0 Z" unicode="I" />
<glyph horiz-adv-x="433" d="M 341 730 L 341 194 C 341 166 336 140 327 115 C 317 90 304 68 286 50 C 268 31 245 16 219 5 C 192 -6 162 -12 128 -12 C 110 -12 89 -10 66 -7 C 43 -3 25 2 13 10 L 50 88 C 56 84 66 81 78 79 C 90 77 102 76 115 76 C 155 76 186 87 208 111 C 230 134 241 162 241 195 L 241 730 L 341 730 Z" unicode="J" />
<glyph horiz-adv-x="675" d="M 659 0 L 537 0 L 301 339 L 195 208 L 195 0 L 95 0 L 95 730 L 195 730 L 195 324 L 510 730 L 621 730 L 371 412 L 659 0 Z" unicode="K" />
<glyph horiz-adv-x="534" d="M 522 0 L 95 0 L 95 730 L 195 730 L 195 87 L 522 87 L 522 0 Z" unicode="L" />
<glyph horiz-adv-x="918" d="M 823 0 L 730 0 L 730 533 L 481 166 L 439 166 L 187 533 L 187 0 L 95 0 L 95 730 L 164 730 L 464 283 L 753 730 L 823 730 L 823 0 Z" unicode="M" />
<glyph horiz-adv-x="791" d="M 695 0 L 624 0 L 189 557 L 189 0 L 95 0 L 95 730 L 172 730 L 604 178 L 604 730 L 695 730 L 695 0 Z" unicode="N" />
<glyph horiz-adv-x="843" d="M 424 -12 C 369 -12 318 -2 272 17 C 225 36 185 63 152 97 C 119 131 93 171 75 218 C 56 265 47 316 47 370 C 47 424 56 473 76 519 C 95 565 121 604 154 637 C 187 669 226 695 271 714 C 316 732 364 742 416 742 C 471 742 522 732 569 714 C 615 695 655 669 689 636 C 722 603 748 564 767 518 C 785 472 795 422 795 368 C 795 312 785 260 765 214 C 745 167 719 127 685 94 C 651 60 612 34 567 16 C 521 -2 474 -12 424 -12 Z M 431 74 C 468 74 503 80 535 94 C 567 107 595 126 619 151 C 643 175 661 206 675 242 C 689 278 696 318 696 364 C 696 406 688 444 674 480 C 659 515 639 545 614 571 C 588 596 558 616 523 630 C 488 644 450 652 410 652 C 372 652 337 645 305 632 C 273 619 245 600 222 576 C 198 552 180 522 167 488 C 153 453 147 414 147 372 C 147 326 154 285 169 248 C 184 211 204 180 230 154 C 256 128 286 109 321 95 C 355 81 392 74 431 74 Z" unicode="O" />
<glyph horiz-adv-x="613" d="M 95 0 L 95 730 L 349 730 C 382 730 413 725 442 715 C 470 705 495 691 516 673 C 536 655 552 632 564 606 C 576 579 582 549 582 516 C 582 450 560 396 518 354 C 476 312 420 291 352 291 L 195 291 L 195 0 L 95 0 Z M 194 372 L 338 372 C 384 372 419 385 444 412 C 468 439 481 474 481 517 C 481 561 466 594 437 616 C 407 638 372 650 330 650 L 194 650 L 194 372 Z" unicode="P" />
<glyph horiz-adv-x="843" d="M 707 -104 L 707 -193 C 639 -191 578 -176 523 -146 C 467 -116 425 -70 397 -8 C 344 -5 296 6 253 26 C 209 46 172 72 142 105 C 112 138 88 177 72 222 C 55 267 47 316 47 370 C 47 422 56 470 75 516 C 93 562 119 601 152 635 C 184 668 223 694 269 713 C 314 732 363 742 417 742 C 472 742 523 733 569 715 C 615 697 655 671 689 638 C 722 605 748 565 767 519 C 785 472 795 421 795 365 C 795 319 787 275 773 235 C 759 194 739 158 714 126 C 688 94 658 67 622 45 C 586 23 547 7 505 -1 C 527 -39 557 -65 593 -80 C 629 -94 667 -102 707 -104 Z M 464 187 C 464 166 465 146 467 128 C 469 110 471 93 475 78 C 539 88 591 117 633 167 C 674 216 695 281 695 362 C 695 407 687 448 672 484 C 656 520 636 550 610 575 C 584 599 553 618 519 632 C 484 645 448 652 410 652 C 372 652 336 645 304 632 C 272 619 244 601 221 577 C 198 553 180 524 167 490 C 153 455 147 416 147 374 C 147 333 152 296 164 262 C 176 228 192 199 212 175 C 232 150 255 129 282 113 C 309 97 338 86 369 80 C 365 96 363 113 361 131 C 359 149 359 167 359 187 L 464 187 Z" unicode="Q" />
<glyph horiz-adv-x="617" d="M 95 0 L 95 730 L 319 730 C 349 730 378 725 404 716 C 430 707 453 694 473 678 C 492 661 507 640 518 616 C 528 592 534 565 534 535 C 534 504 529 477 520 453 C 510 429 498 408 483 391 C 467 374 450 361 430 351 C 410 341 389 334 368 332 L 366 328 L 590 0 L 472 0 L 270 307 L 195 307 L 195 0 L 95 0 Z M 193 388 L 293 388 C 332 388 365 399 392 422 C 419 445 433 479 433 523 C 433 562 420 593 396 616 C 372 638 340 650 301 650 L 193 650 L 193 388 Z" unicode="R" />
<glyph horiz-adv-x="602" d="M 306 -12 C 245 -12 193 -3 150 13 C 106 29 71 51 44 78 L 109 156 C 129 131 158 111 194 95 C 230 79 268 71 308 71 C 345 71 377 80 404 100 C 431 120 445 145 445 176 C 445 206 433 233 410 255 C 387 277 346 301 287 326 C 245 342 209 358 181 373 C 153 388 130 404 113 422 C 96 439 84 458 77 480 C 69 502 66 527 66 557 C 66 613 87 657 129 691 C 171 725 225 742 293 742 C 345 742 389 733 425 717 C 461 700 491 681 516 661 L 460 580 C 434 600 407 617 377 630 C 347 643 317 650 285 650 C 249 650 219 641 197 625 C 175 608 164 585 164 557 C 164 524 177 497 204 477 C 230 457 275 434 337 408 C 414 376 468 345 498 313 C 528 281 544 238 544 185 C 544 154 537 126 525 102 C 512 78 495 57 473 40 C 451 23 426 10 397 1 C 368 -7 338 -12 306 -12 Z" unicode="S" />
<glyph horiz-adv-x="552" d="M 542 643 L 323 643 L 323 0 L 223 0 L 223 643 L 10 643 L 10 730 L 542 730 L 542 643 Z" unicode="T" />
<glyph horiz-adv-x="762" d="M 671 730 L 671 266 C 671 222 663 183 648 149 C 632 114 611 85 585 61 C 559 37 528 19 493 7 C 457 -5 420 -12 381 -12 C 341 -12 304 -6 269 6 C 233 18 202 35 176 59 C 150 83 129 112 114 147 C 98 181 91 221 91 266 L 91 730 L 189 730 L 189 267 C 189 238 194 212 204 188 C 214 164 228 145 245 129 C 262 113 282 100 305 91 C 328 82 352 78 378 78 C 404 78 428 82 452 90 C 476 98 496 111 514 127 C 532 143 546 162 557 186 C 567 210 573 237 573 267 L 573 730 L 671 730 Z" unicode="U" />
<glyph horiz-adv-x="670" d="M 669 730 L 364 -6 L 298 -6 L 1 730 L 111 730 L 332 158 L 565 730 L 669 730 Z" unicode="V" />
<glyph horiz-adv-x="937" d="M 925 730 L 702 -6 L 642 -6 L 471 550 L 290 -6 L 230 -6 L 12 730 L 115 730 L 271 191 L 443 730 L 503 730 L 676 187 L 832 730 L 925 730 Z" unicode="W" />
<glyph horiz-adv-x="628" d="M 501 0 L 312 293 L 123 0 L 17 0 L 259 376 L 31 730 L 145 730 L 316 464 L 487 730 L 594 730 L 369 381 L 614 0 L 501 0 Z" unicode="X" />
<glyph horiz-adv-x="664" d="M 664 730 L 380 309 L 380 0 L 280 0 L 280 313 L 1 730 L 113 730 L 335 401 L 558 730 L 664 730 Z" unicode="Y" />
<glyph horiz-adv-x="590" d="M 557 730 L 557 687 L 155 87 L 570 87 L 570 0 L 20 0 L 20 41 L 418 642 L 52 642 L 52 730 L 557 730 Z" unicode="Z" />
<glyph horiz-adv-x="349" d="M 308 -179 L 101 -179 L 101 730 L 308 730 L 308 658 L 190 658 L 190 -104 L 308 -104 L 308 -179 Z" unicode="[" />
<glyph horiz-adv-x="323" d="M 3 730 L 86 730 L 320 0 L 236 0 L 3 730 Z" unicode="\" />
<glyph horiz-adv-x="332" d="M 238 -179 L 40 -179 L 40 -108 L 150 -108 L 150 659 L 40 659 L 40 730 L 238 730 L 238 -179 Z" unicode="]" />
<glyph horiz-adv-x="514" d="M 440 369 L 359 369 L 254 630 L 154 369 L 74 369 L 215 730 L 294 730 L 440 369 Z" unicode="^" />
<glyph horiz-adv-x="500" d="M 500 -157 L 0 -157 L 0 -82 L 500 -82 L 500 -157 Z" unicode="_" />
<glyph horiz-adv-x="500" d="M 351 589 L 257 589 L 135 752 L 244 752 L 351 589 Z" unicode="`" />
<glyph horiz-adv-x="595" d="M 523 0 L 431 0 L 431 74 C 411 48 384 28 350 14 C 316 0 276 -8 230 -8 C 172 -8 126 6 92 34 C 58 62 42 101 42 149 C 42 209 65 256 112 288 C 159 320 222 339 302 344 L 430 352 L 430 360 C 430 398 418 427 395 445 C 372 463 340 473 300 473 C 266 473 233 467 202 455 C 171 443 142 429 116 413 L 77 481 C 105 501 138 518 178 532 C 218 546 262 554 312 554 C 377 554 428 538 466 508 C 504 477 523 428 523 360 L 523 0 Z M 432 143 L 432 280 L 291 273 C 247 270 211 259 183 241 C 155 223 141 196 141 160 C 141 130 152 107 175 90 C 197 73 227 65 263 65 C 296 65 328 72 359 87 C 390 101 414 120 432 143 Z" unicode="a" />
<glyph horiz-adv-x="663" d="M 377 -7 C 321 -7 276 6 243 33 C 210 59 188 91 178 127 L 178 0 L 88 0 L 88 800 L 173 800 L 173 407 C 183 447 206 480 241 508 C 276 536 322 550 379 550 C 450 550 508 525 553 476 C 597 427 620 362 620 281 C 620 236 613 196 600 160 C 587 124 570 93 548 69 C 526 45 500 26 470 13 C 440 0 409 -7 377 -7 Z M 353 72 C 378 72 401 77 422 87 C 443 97 461 112 476 130 C 491 148 503 170 511 195 C 519 219 524 246 524 274 C 524 332 509 379 480 416 C 450 453 408 472 352 472 C 302 472 261 455 227 421 C 193 387 176 336 176 267 C 176 204 192 156 225 122 C 258 88 301 72 353 72 Z" unicode="b" />
<glyph horiz-adv-x="590" d="M 488 169 L 561 119 C 551 103 539 88 525 73 C 511 57 494 43 475 31 C 455 19 433 9 408 1 C 382 -7 353 -11 321 -11 C 281 -11 243 -4 209 9 C 175 22 145 41 121 66 C 96 90 77 120 63 154 C 49 188 43 227 43 269 C 43 309 50 346 64 381 C 78 416 97 446 122 471 C 147 496 177 516 212 530 C 246 544 284 552 324 552 C 357 552 387 547 413 539 C 439 531 461 520 480 507 C 499 493 515 478 527 461 C 539 444 549 427 556 410 L 476 374 C 464 398 445 419 421 439 C 396 459 363 469 321 469 C 294 469 269 463 247 453 C 225 443 206 429 190 411 C 174 393 161 372 153 348 C 144 324 140 298 140 271 C 140 213 156 166 189 129 C 222 91 267 73 323 73 C 346 73 366 76 384 82 C 402 88 417 95 430 105 C 443 114 454 124 464 136 C 473 147 481 158 488 169 Z" unicode="c" />
<glyph horiz-adv-x="664" d="M 293 -11 C 257 -11 223 -4 193 8 C 162 21 136 40 114 64 C 92 88 74 118 62 153 C 49 188 43 228 43 272 C 43 312 49 349 63 383 C 77 417 95 447 119 472 C 142 496 169 516 201 530 C 232 544 265 552 301 552 C 343 552 381 539 416 515 C 451 491 474 462 486 430 L 486 800 L 576 800 L 576 0 L 491 0 L 491 129 C 487 115 479 99 468 83 C 456 66 442 51 425 37 C 407 23 387 12 365 3 C 343 -6 319 -11 293 -11 Z M 311 68 C 337 68 361 73 383 83 C 405 93 423 108 439 126 C 454 144 466 166 474 192 C 482 217 486 244 486 274 C 486 306 481 335 472 360 C 462 385 450 406 434 423 C 418 439 400 452 380 460 C 359 468 337 473 315 473 C 261 473 219 454 187 417 C 155 379 140 331 140 271 C 140 242 143 215 151 190 C 159 165 170 144 185 126 C 199 108 217 93 239 83 C 260 73 284 68 311 68 Z" unicode="d" />
<glyph horiz-adv-x="631" d="M 326 -11 C 285 -11 247 -4 213 8 C 178 20 148 39 123 63 C 98 87 78 116 64 151 C 50 186 43 226 43 270 C 43 309 50 346 64 380 C 78 414 97 444 122 470 C 146 495 176 515 210 530 C 244 544 280 552 320 552 C 400 552 464 524 514 469 C 563 413 588 337 588 239 L 137 239 C 138 216 143 195 152 175 C 161 155 173 137 189 122 C 205 107 224 95 246 86 C 268 77 294 73 322 73 C 368 73 404 80 432 96 C 460 111 483 129 502 151 L 560 86 C 534 58 504 34 468 16 C 432 -1 384 -11 326 -11 Z M 136 310 L 491 310 C 490 356 473 395 441 426 C 408 456 367 472 317 472 C 291 472 268 467 247 458 C 225 449 207 437 191 423 C 175 408 163 391 153 371 C 143 351 138 331 136 310 Z" unicode="e" />
<glyph horiz-adv-x="364" d="M 346 460 L 210 460 L 210 0 L 116 0 L 116 460 L 13 460 L 13 540 L 116 540 L 116 638 C 116 663 120 686 128 706 C 136 726 148 744 162 758 C 176 772 192 783 210 791 C 228 799 248 803 268 803 C 292 803 313 800 331 795 C 349 789 365 783 377 776 L 352 699 C 343 703 332 706 320 710 C 307 713 294 715 282 715 C 261 715 244 705 230 686 C 216 667 210 644 210 618 L 210 540 L 346 540 L 346 460 Z" unicode="f" />
<glyph horiz-adv-x="658" d="M 292 5 C 256 5 222 11 192 25 C 161 38 135 56 113 80 C 91 103 74 131 62 165 C 50 198 44 234 44 274 C 44 314 50 352 62 386 C 74 420 92 449 114 473 C 136 497 162 516 193 530 C 224 543 258 550 295 550 C 342 550 383 538 419 514 C 454 490 478 460 491 423 L 491 540 L 576 540 L 576 77 C 576 29 567 -12 549 -48 C 531 -83 508 -112 480 -135 C 452 -157 421 -174 386 -185 C 351 -196 317 -202 283 -202 C 227 -202 183 -197 152 -187 C 121 -177 98 -167 84 -158 L 126 -80 C 138 -88 158 -97 184 -107 C 210 -117 240 -122 276 -122 C 304 -122 331 -117 357 -109 C 383 -101 405 -88 424 -72 C 443 -56 458 -35 469 -11 C 480 12 486 41 486 74 L 486 147 C 480 131 472 114 461 98 C 449 81 435 66 419 52 C 403 38 384 26 362 18 C 340 9 317 5 292 5 Z M 316 82 C 336 82 357 86 377 94 C 397 102 416 114 432 130 C 448 146 461 167 471 193 C 481 218 486 247 486 281 C 486 339 470 384 438 417 C 406 450 366 467 318 467 C 265 467 222 448 190 412 C 157 376 141 328 141 268 C 141 208 156 162 188 130 C 219 98 262 82 316 82 Z" unicode="g" />
<glyph horiz-adv-x="640" d="M 559 0 L 466 0 L 466 365 C 466 398 453 424 429 443 C 404 461 374 471 339 471 C 320 471 301 468 283 462 C 264 456 247 448 232 437 C 217 426 205 412 196 396 C 186 379 182 359 182 337 L 182 0 L 88 0 L 88 800 L 173 800 L 173 435 C 181 469 204 497 240 519 C 276 541 320 552 370 552 C 394 552 418 548 441 541 C 464 534 484 524 502 511 C 519 497 533 481 543 461 C 553 441 559 418 559 393 L 559 0 Z" unicode="h" />
<glyph horiz-adv-x="274" d="M 87 661 L 87 766 L 187 766 L 187 661 L 87 661 Z M 90 0 L 90 540 L 184 540 L 184 0 L 90 0 Z" unicode="i" />
<glyph horiz-adv-x="318" d="M 239 661 L 141 661 L 141 766 L 239 766 L 239 661 Z M 237 540 L 237 -8 C 237 -40 232 -68 224 -92 C 215 -116 203 -137 189 -153 C 174 -169 157 -182 137 -190 C 117 -198 97 -202 76 -202 C 51 -202 27 -199 3 -194 C -21 -188 -41 -181 -58 -171 L -28 -96 C -16 -102 -3 -108 12 -112 C 28 -116 46 -118 66 -118 C 86 -118 104 -107 120 -86 C 135 -64 143 -37 143 -3 L 143 540 L 237 540 Z" unicode="j" />
<glyph horiz-adv-x="580" d="M 601 3 L 493 -1 L 288 254 L 182 142 L 182 0 L 88 0 L 88 800 L 182 800 L 182 242 L 450 540 L 551 540 L 352 320 L 601 3 Z" unicode="k" />
<glyph horiz-adv-x="310" d="M 81 125 L 81 800 L 175 800 L 175 154 C 175 130 181 112 194 98 C 206 84 224 78 247 78 C 255 78 265 78 275 79 C 285 80 292 82 297 84 L 299 2 C 292 0 281 -1 267 -3 C 253 -5 239 -6 227 -6 C 208 -6 190 -3 172 2 C 154 7 139 15 125 26 C 111 36 101 50 93 66 C 85 82 81 102 81 125 Z" unicode="l" />
<glyph horiz-adv-x="1007" d="M 88 0 L 88 540 L 171 540 L 171 427 C 177 446 186 463 200 479 C 213 494 228 507 246 518 C 264 529 283 537 305 543 C 326 549 347 552 369 552 C 413 552 451 541 485 519 C 519 497 538 467 543 429 L 548 429 C 552 447 560 463 572 479 C 584 494 599 507 616 518 C 633 528 652 537 673 543 C 693 549 714 552 736 552 C 762 552 787 548 811 541 C 834 534 854 524 872 511 C 889 497 902 481 912 461 C 922 441 927 418 927 393 L 927 0 L 833 0 L 833 366 C 833 402 820 428 795 445 C 770 462 741 471 707 471 C 689 471 672 468 654 462 C 636 456 619 448 605 437 C 590 425 578 411 569 395 C 559 378 555 359 555 337 L 555 0 L 461 0 L 461 371 C 461 400 448 424 424 443 C 399 461 369 471 333 471 C 315 471 296 468 278 462 C 260 456 244 447 230 435 C 216 423 204 409 195 392 C 186 374 182 354 182 332 L 182 0 L 88 0 Z" unicode="m" />
<glyph horiz-adv-x="640" d="M 559 0 L 466 0 L 466 370 C 466 402 453 427 428 445 C 402 462 373 471 341 471 C 323 471 305 468 286 463 C 267 457 250 449 235 438 C 219 426 207 412 197 395 C 187 378 182 358 182 336 L 182 0 L 88 0 L 88 540 L 169 540 L 169 423 C 181 461 206 492 243 516 C 279 540 322 552 371 552 C 395 552 419 548 442 541 C 464 533 484 523 502 510 C 519 497 533 481 543 462 C 553 443 559 422 559 399 L 559 0 Z" unicode="n" />
<glyph horiz-adv-x="651" d="M 321 -11 C 285 -11 250 -4 216 8 C 182 20 153 39 127 63 C 101 87 81 116 66 151 C 50 185 43 224 43 268 C 43 308 50 345 65 380 C 80 414 100 444 126 470 C 152 495 182 515 216 530 C 250 544 286 552 324 552 C 363 552 400 545 435 532 C 469 519 499 501 525 478 C 551 454 571 426 586 393 C 600 359 608 322 608 282 C 608 240 600 201 585 165 C 570 129 550 98 524 72 C 498 46 467 25 432 11 C 397 -3 360 -11 321 -11 Z M 327 72 C 354 72 379 77 402 88 C 424 98 444 113 460 131 C 476 149 488 170 497 196 C 506 221 511 248 511 277 C 511 303 506 328 497 352 C 488 375 475 395 459 413 C 442 430 422 443 398 453 C 374 463 348 468 320 468 C 267 468 224 448 191 410 C 157 372 141 324 141 267 C 141 237 145 209 155 185 C 165 161 178 140 195 124 C 211 107 231 94 254 85 C 276 76 301 72 327 72 Z" unicode="o" />
<glyph horiz-adv-x="664" d="M 88 -194 L 88 540 L 173 540 L 173 402 C 183 444 206 479 242 507 C 277 535 322 550 377 550 C 449 550 508 525 553 477 C 598 429 621 362 621 278 C 621 234 614 195 602 160 C 589 124 572 94 550 70 C 528 45 502 26 472 13 C 442 0 409 -7 375 -7 C 325 -7 283 5 249 31 C 215 56 192 87 182 123 L 182 -194 L 88 -194 Z M 354 72 C 402 72 442 91 475 129 C 507 167 524 216 524 276 C 524 303 520 329 513 353 C 505 377 495 397 481 415 C 467 433 449 447 428 457 C 406 467 382 472 355 472 C 303 472 261 455 227 421 C 193 387 176 337 176 269 C 176 201 193 152 227 120 C 261 88 304 72 354 72 Z" unicode="p" />
<glyph horiz-adv-x="663" d="M 482 -194 L 482 125 C 475 110 466 95 454 79 C 442 63 428 48 412 35 C 396 21 377 10 356 2 C 334 -5 311 -10 286 -10 C 250 -10 217 -3 187 10 C 157 23 131 41 110 65 C 89 88 73 116 61 150 C 49 183 43 219 43 259 C 43 303 49 343 63 379 C 76 415 94 446 117 471 C 140 496 167 515 199 529 C 231 543 264 550 300 550 C 324 550 347 545 369 537 C 391 529 410 518 427 506 C 443 493 457 478 469 462 C 480 446 488 430 492 414 L 492 540 L 575 540 L 575 -194 L 482 -194 Z M 314 68 C 362 68 402 86 436 123 C 469 160 486 210 486 274 C 486 339 469 388 435 422 C 401 455 360 472 312 472 C 258 472 216 453 186 416 C 155 379 140 330 140 269 C 140 209 155 161 186 124 C 217 86 260 68 314 68 Z" unicode="q" />
<glyph horiz-adv-x="473" d="M 477 523 L 428 437 C 419 445 406 453 390 459 C 374 465 355 469 333 469 C 314 469 295 465 277 457 C 259 449 243 439 229 425 C 215 411 203 395 195 377 C 186 358 182 338 182 316 L 182 0 L 88 0 L 88 540 L 172 540 L 172 412 C 176 430 183 447 195 464 C 207 481 221 496 238 509 C 255 521 275 532 297 540 C 319 548 343 552 369 552 C 393 552 415 549 434 544 C 452 538 467 531 477 523 Z" unicode="r" />
<glyph horiz-adv-x="505" d="M 273 -11 C 222 -11 177 -4 139 8 C 100 21 67 38 41 59 L 83 122 C 106 106 134 92 168 81 C 202 69 235 64 268 64 C 296 64 321 71 341 87 C 361 103 372 122 372 145 C 372 164 362 182 343 198 C 323 214 286 229 232 245 C 168 263 124 286 100 314 C 76 342 64 374 64 410 C 64 431 69 450 79 468 C 89 486 102 501 119 513 C 136 525 156 535 180 542 C 204 548 229 552 256 552 C 308 552 350 545 382 532 C 414 519 438 507 455 495 L 420 424 C 397 438 373 450 348 461 C 322 471 294 477 263 477 C 235 477 211 470 190 458 C 169 446 159 429 159 409 C 159 399 160 390 163 382 C 166 374 172 366 182 359 C 191 351 204 344 221 337 C 238 330 261 322 290 314 C 353 295 398 273 426 247 C 454 221 468 188 468 148 C 468 124 462 102 452 82 C 442 62 428 46 411 32 C 393 18 373 8 349 0 C 325 -7 299 -11 273 -11 Z" unicode="s" />
<glyph horiz-adv-x="381" d="M 349 99 L 365 24 C 353 14 336 7 314 2 C 292 -3 271 -6 249 -6 C 207 -6 171 6 142 32 C 112 57 98 98 98 154 L 98 463 L 14 463 L 14 540 L 98 540 L 98 683 L 191 695 L 191 540 L 343 540 L 343 463 L 191 463 L 191 159 C 191 133 197 112 209 98 C 221 83 238 76 261 76 C 279 76 296 78 312 84 C 328 90 340 95 349 99 Z" unicode="t" />
<glyph horiz-adv-x="640" d="M 80 540 L 174 540 L 174 201 C 174 151 187 117 214 97 C 240 77 274 67 314 67 C 352 67 386 79 415 105 C 443 130 458 163 458 204 L 458 540 L 552 540 L 552 0 L 467 0 L 467 111 C 458 80 437 52 404 26 C 371 0 329 -12 277 -12 C 250 -12 225 -8 201 -1 C 177 5 156 16 138 31 C 120 45 106 64 96 86 C 85 108 80 134 80 164 L 80 540 Z" unicode="u" />
<glyph horiz-adv-x="542" d="M 548 540 L 299 -3 L 239 -3 L -6 540 L 98 540 L 273 141 L 450 540 L 548 540 Z" unicode="v" />
<glyph horiz-adv-x="773" d="M 524 -3 L 394 333 L 249 -3 L 193 -3 L 4 540 L 102 540 L 234 141 L 368 471 L 428 471 L 550 144 L 679 540 L 769 540 L 580 -3 L 524 -3 Z" unicode="w" />
<glyph horiz-adv-x="488" d="M 388 0 L 242 212 L 93 0 L 0 0 L 196 278 L 15 540 L 115 540 L 247 349 L 381 540 L 473 540 L 292 283 L 488 0 L 388 0 Z" unicode="x" />
<glyph horiz-adv-x="550" d="M 554 540 L 266 -76 C 243 -124 215 -156 183 -174 C 150 -191 119 -200 89 -200 C 72 -200 58 -198 47 -194 C 35 -190 27 -188 22 -186 L 53 -103 C 56 -105 62 -107 70 -109 C 78 -111 86 -113 96 -113 C 113 -113 129 -107 144 -95 C 159 -83 174 -63 189 -35 L 224 35 L -4 540 L 97 540 L 274 139 L 456 540 L 554 540 Z" unicode="y" />
<glyph horiz-adv-x="483" d="M 450 540 L 450 497 L 155 83 L 474 83 L 474 0 L 20 0 L 20 42 L 314 458 L 33 458 L 33 540 L 450 540 Z" unicode="z" />
<glyph horiz-adv-x="281" d="M 275 -179 C 210 -176 157 -159 116 -129 C 74 -99 53 -62 53 -19 C 52 5 54 28 59 48 C 63 68 69 86 76 101 C 82 116 88 130 94 144 C 100 158 103 171 103 184 C 102 200 93 216 76 230 C 59 244 36 251 6 251 L 6 320 C 36 320 60 327 78 342 C 96 357 105 375 106 395 C 106 398 102 407 96 422 C 90 437 83 454 76 472 C 68 490 63 507 59 525 C 55 542 53 559 53 575 C 53 596 59 617 70 638 C 80 658 95 677 114 693 C 133 709 156 722 184 732 C 211 742 241 747 275 749 L 275 681 C 237 679 206 667 183 645 C 160 623 148 598 148 569 C 148 560 148 549 150 536 C 152 523 156 510 162 498 C 170 478 178 459 186 443 C 193 427 197 413 197 402 C 196 374 187 350 171 329 C 155 307 129 293 93 285 C 129 277 156 262 172 240 C 188 218 196 196 197 174 C 197 156 193 140 187 126 C 180 112 173 98 167 85 C 160 71 155 57 152 42 C 148 27 147 13 148 1 C 148 -11 151 -23 157 -36 C 163 -49 171 -61 182 -72 C 192 -83 205 -92 221 -100 C 237 -107 255 -111 275 -112 L 275 -179 Z" unicode="{" />
<glyph horiz-adv-x="259" d="M 173 -179 L 86 -179 L 86 730 L 173 730 L 173 -179 Z" unicode="|" />
<glyph horiz-adv-x="281" d="M 6 -179 L 6 -112 C 25 -111 42 -107 58 -100 C 74 -92 87 -83 98 -72 C 108 -61 117 -49 123 -36 C 129 -23 132 -11 133 1 C 133 13 131 27 128 42 C 124 57 119 71 113 85 C 106 98 99 112 93 126 C 86 140 83 156 84 174 C 84 196 93 218 109 240 C 125 262 151 277 187 285 C 151 293 124 307 108 329 C 92 350 83 374 83 402 C 83 413 86 427 94 443 C 101 459 109 478 118 498 C 124 510 128 523 130 536 C 132 549 132 560 132 569 C 131 597 119 623 97 645 C 74 667 44 679 6 681 L 6 749 C 39 747 69 742 96 732 C 123 722 146 709 165 693 C 184 677 199 658 210 638 C 220 617 226 596 227 575 C 227 559 226 542 222 525 C 218 507 212 490 205 472 C 197 454 190 437 184 422 C 178 407 175 398 175 395 C 175 375 184 357 202 342 C 220 327 244 320 275 320 L 275 251 C 245 251 221 243 204 229 C 187 215 178 200 178 184 C 177 171 180 158 186 144 C 192 130 198 116 205 101 C 211 86 216 68 221 48 C 225 28 228 5 228 -19 C 226 -62 205 -99 164 -129 C 123 -159 70 -176 6 -179 Z" unicode="}" />
<glyph horiz-adv-x="500" d="M 387 440 L 467 440 C 467 380 458 335 440 307 C 422 279 394 265 358 265 C 334 265 314 269 297 278 C 279 287 264 297 252 308 C 238 318 224 328 210 336 C 196 344 181 349 167 349 C 152 349 139 342 129 328 C 118 314 113 294 113 268 L 34 268 C 34 328 43 372 63 401 C 83 429 106 444 134 444 C 160 444 183 439 203 430 C 223 421 242 410 260 398 C 272 388 285 378 299 370 C 313 361 328 357 345 357 C 363 357 374 363 379 377 C 384 391 387 412 387 440 Z" unicode="~" />
<glyph horiz-adv-x="305" d="M 101 611 L 203 611 L 203 509 L 101 509 L 101 611 Z M 97 176 L 129 402 L 178 402 L 207 176 L 207 -119 L 97 -119 L 97 176 Z" unicode="¡" />
<glyph horiz-adv-x="574" d="M 556 225 C 537 197 511 171 479 145 C 447 119 403 104 347 100 L 347 -7 L 275 -7 L 275 102 C 208 111 153 140 111 189 C 68 237 47 298 47 370 C 47 405 52 438 64 469 C 75 500 91 528 111 552 C 131 576 155 596 183 612 C 211 628 241 638 275 644 L 275 745 L 347 745 L 347 647 C 401 643 445 627 481 600 C 516 573 541 543 556 511 L 479 477 C 466 498 449 517 427 535 C 405 552 378 563 347 568 L 347 179 C 385 183 414 194 436 214 C 458 234 475 253 488 273 L 556 225 Z M 139 374 C 139 326 151 284 175 250 C 199 216 233 193 275 183 L 275 565 C 233 554 200 531 176 496 C 151 460 139 420 139 374 Z" unicode="¢" />
<glyph horiz-adv-x="611" d="M 597 72 L 597 0 L 35 0 L 35 56 C 41 58 49 61 61 64 C 73 66 88 70 108 74 C 122 76 136 80 151 86 C 165 92 179 99 191 109 C 203 119 212 130 220 144 C 228 158 232 173 232 191 C 232 194 231 197 231 201 C 230 205 229 208 229 212 L 49 212 L 49 277 L 197 277 C 188 290 179 304 169 320 C 159 335 149 351 140 368 L 49 368 L 49 434 L 108 434 C 101 450 96 468 92 486 C 88 504 87 524 87 544 C 87 581 94 612 108 638 C 122 663 140 683 164 699 C 187 714 214 725 245 732 C 275 738 307 742 341 742 C 397 742 448 732 494 714 C 540 696 573 678 594 662 L 548 594 C 529 606 501 620 465 635 C 428 650 388 658 344 658 C 323 658 303 655 284 651 C 265 647 248 640 234 630 C 219 620 207 606 199 589 C 190 572 186 551 186 527 C 186 511 188 495 192 479 C 196 463 202 448 209 434 L 513 434 L 513 368 L 245 368 C 254 352 263 337 273 322 C 283 306 291 291 298 277 L 513 277 L 513 212 L 315 212 L 315 211 C 315 188 311 168 303 152 C 295 136 285 122 273 111 C 261 100 248 91 234 85 C 220 79 208 74 198 72 L 597 72 Z" unicode="£" />
<glyph horiz-adv-x="501" d="M 440 191 L 398 149 L 341 209 C 327 201 313 194 297 190 C 281 186 265 184 249 184 C 232 184 216 186 200 190 C 184 194 170 201 157 209 L 100 149 L 56 193 L 110 249 C 98 263 89 280 83 298 C 76 316 73 334 73 354 C 73 374 76 393 83 411 C 89 429 99 445 111 459 L 56 516 L 98 558 L 156 498 C 169 506 184 513 200 517 C 216 521 232 524 249 524 C 266 524 283 521 299 517 C 315 512 329 506 343 498 L 403 559 L 445 516 L 389 458 C 400 443 409 427 416 409 C 422 391 426 373 426 354 C 426 333 422 314 415 296 C 408 278 399 261 387 247 L 440 191 Z M 249 252 C 278 252 303 262 325 283 C 347 303 358 327 358 354 C 358 381 347 405 325 425 C 303 445 278 456 249 456 C 219 456 193 445 173 425 C 152 405 142 381 142 354 C 142 327 152 303 173 283 C 193 262 219 252 249 252 Z" unicode="¤" />
<glyph horiz-adv-x="656" d="M 567 130 L 376 130 L 376 0 L 276 0 L 276 130 L 85 130 L 85 196 L 276 196 L 276 258 L 84 258 L 84 323 L 276 323 L 276 325 L 31 730 L 142 730 L 331 407 L 520 730 L 625 730 L 378 323 L 566 323 L 566 258 L 376 258 L 376 196 L 567 196 L 567 130 Z" unicode="¥" />
<glyph horiz-adv-x="278" d="M 99 351 L 99 730 L 179 730 L 179 351 L 99 351 Z M 179 200 L 179 -179 L 99 -179 L 99 200 L 179 200 Z" unicode="¦" />
<glyph horiz-adv-x="675" d="M 356 -181 C 298 -181 243 -174 193 -160 C 142 -146 100 -128 66 -106 L 106 -29 C 138 -50 177 -68 223 -82 C 269 -96 312 -104 352 -104 C 389 -104 420 -95 445 -79 C 469 -62 482 -38 482 -8 C 482 19 471 40 451 55 C 430 69 403 83 371 96 L 243 148 C 212 160 185 172 161 183 C 137 194 117 206 101 219 C 85 232 73 247 65 264 C 57 280 53 301 53 326 C 53 356 61 382 77 402 C 93 422 112 439 135 453 C 115 464 100 480 91 500 C 82 520 78 544 78 574 C 78 600 84 624 97 645 C 109 666 127 684 149 698 C 171 712 197 722 227 730 C 257 738 290 742 326 742 C 389 742 440 733 480 716 C 520 699 554 681 583 663 L 542 592 C 510 612 477 629 443 645 C 409 660 369 668 323 668 C 281 668 246 659 218 643 C 190 626 176 603 176 574 C 176 553 183 536 197 522 C 211 508 233 496 263 486 L 434 421 C 495 399 542 376 574 352 C 606 328 622 293 622 247 C 622 210 609 181 585 160 C 560 138 533 124 503 118 C 510 114 518 108 528 101 C 537 93 546 84 554 74 C 562 63 568 51 574 37 C 579 23 582 8 582 -9 C 582 -36 576 -60 564 -82 C 552 -103 537 -121 517 -136 C 497 -150 473 -161 445 -169 C 417 -177 388 -181 356 -181 Z M 435 166 C 457 168 478 174 497 185 C 515 196 525 214 525 238 C 525 260 514 280 492 297 C 470 313 433 331 380 350 L 217 413 C 197 405 181 395 168 383 C 155 371 149 355 149 334 C 149 308 160 287 182 271 C 204 254 242 237 296 220 L 435 166 Z" unicode="§" />
<glyph horiz-adv-x="500" d="M 382 590 L 304 590 L 304 748 L 382 748 L 382 590 Z M 196 590 L 118 590 L 118 748 L 196 748 L 196 590 Z" unicode="¨" />
<glyph horiz-adv-x="856" d="M 428 -12 C 376 -12 327 -2 281 18 C 235 38 195 64 161 98 C 127 132 101 172 81 218 C 61 264 51 313 51 365 C 51 417 61 466 81 512 C 101 558 127 597 161 631 C 195 665 235 692 281 712 C 327 732 376 742 428 742 C 480 742 529 732 575 712 C 621 692 660 665 694 631 C 728 597 755 558 775 512 C 795 466 805 417 805 365 C 805 313 795 264 775 218 C 755 172 728 132 694 98 C 660 64 621 38 575 18 C 529 -2 480 -12 428 -12 Z M 429 48 C 472 48 513 56 551 73 C 589 89 623 112 651 140 C 679 168 702 202 718 241 C 734 279 743 320 743 364 C 743 407 734 448 718 487 C 702 526 679 560 651 589 C 623 617 589 640 551 657 C 513 673 472 682 429 682 C 385 682 344 673 306 657 C 267 640 233 617 205 589 C 177 560 154 526 138 487 C 121 448 113 407 113 364 C 113 320 121 279 138 241 C 154 202 177 168 205 140 C 233 112 267 89 306 73 C 344 56 385 48 429 48 Z M 601 235 C 585 210 562 189 534 173 C 505 156 470 148 428 148 C 402 148 376 152 352 162 C 327 171 305 185 286 203 C 267 221 252 244 241 271 C 229 298 224 329 224 365 C 224 399 229 430 239 458 C 249 486 264 509 282 529 C 300 548 321 563 345 574 C 369 584 396 590 424 590 C 468 590 503 582 531 567 C 559 552 581 533 597 510 L 530 462 C 519 476 506 487 490 497 C 474 507 452 512 426 512 C 392 512 363 497 341 469 C 319 441 308 405 308 362 C 308 317 320 282 345 257 C 370 232 398 220 429 220 C 453 220 474 225 492 236 C 510 247 525 261 537 278 L 601 235 Z" unicode="©" />
<glyph horiz-adv-x="520" d="M 460 272 L 382 272 L 382 335 C 364 312 340 295 308 283 C 276 271 242 265 206 265 C 155 265 115 277 85 303 C 55 329 41 364 41 409 C 41 458 61 496 101 523 C 141 549 195 565 264 569 L 383 575 L 383 582 C 383 607 372 627 352 642 C 331 656 303 664 267 664 C 236 664 207 659 179 649 C 151 639 125 626 103 612 L 73 681 C 97 698 126 713 160 725 C 194 737 233 743 277 743 C 333 743 377 730 410 704 C 443 678 460 637 460 580 L 460 272 Z M 380 403 L 380 508 L 257 501 C 219 499 188 493 164 481 C 140 469 128 448 128 418 C 128 393 137 374 157 361 C 177 347 203 341 235 341 C 263 341 291 346 318 357 C 344 368 365 383 380 403 Z M 475 130 L 48 130 L 48 210 L 475 210 L 475 130 Z" unicode="ª" />
<glyph horiz-adv-x="459" d="M 209 98 L 28 279 L 28 336 L 209 514 L 209 417 L 108 308 L 209 200 L 209 98 Z M 428 98 L 246 279 L 246 336 L 428 514 L 428 417 L 327 308 L 428 200 L 428 98 Z" unicode="«" />
<glyph horiz-adv-x="500" d="M 451 387 L 451 131 L 373 131 L 373 305 L 31 305 L 31 387 L 451 387 Z" unicode="¬" />
<glyph horiz-adv-x="855" d="M 428 -12 C 376 -12 327 -2 281 18 C 235 38 195 64 161 98 C 127 132 101 172 81 218 C 61 264 51 313 51 365 C 51 417 61 466 81 512 C 101 558 127 597 161 631 C 195 665 235 692 281 712 C 327 732 376 742 428 742 C 480 742 529 732 575 712 C 621 692 660 665 694 631 C 728 597 755 558 775 512 C 795 466 805 417 805 365 C 805 313 795 264 775 218 C 755 172 728 132 694 98 C 660 64 621 38 575 18 C 529 -2 480 -12 428 -12 Z M 428 48 C 471 48 512 56 550 73 C 588 89 622 112 650 140 C 678 168 701 202 718 241 C 734 279 743 321 743 365 C 743 408 734 449 718 488 C 701 526 678 560 650 589 C 622 617 588 640 550 657 C 512 673 471 682 428 682 C 384 682 343 673 305 657 C 266 640 232 617 204 589 C 176 560 153 526 137 488 C 120 449 112 408 112 365 C 112 321 120 279 137 241 C 153 202 176 168 204 140 C 232 112 266 89 305 73 C 343 56 384 48 428 48 Z M 282 157 L 282 591 L 449 591 C 467 591 484 588 501 584 C 518 579 533 572 546 562 C 558 552 569 540 577 525 C 585 510 589 492 589 471 C 589 433 579 403 561 383 C 542 362 520 350 496 347 L 495 343 L 633 157 L 546 157 L 424 333 L 357 333 L 357 157 L 282 157 Z M 356 396 L 454 396 C 473 396 489 402 501 415 C 513 427 519 444 519 465 C 519 485 511 501 497 512 C 483 522 465 528 444 528 L 356 528 L 356 396 Z" unicode="®" />
<glyph horiz-adv-x="500" d="M 381 602 L 119 602 L 119 682 L 381 682 L 381 602 Z" unicode="¯" />
<glyph horiz-adv-x="436" d="M 218 366 C 192 366 167 371 144 381 C 121 391 101 404 85 421 C 68 437 55 457 45 480 C 35 503 30 528 30 554 C 30 580 35 604 45 627 C 55 650 68 670 85 687 C 101 703 121 717 144 727 C 167 737 192 742 218 742 C 244 742 268 737 291 727 C 314 717 334 703 351 687 C 367 670 381 650 391 627 C 401 604 406 580 406 554 C 406 528 401 503 391 480 C 381 457 367 437 351 421 C 334 404 314 391 291 381 C 268 371 244 366 218 366 Z M 218 443 C 248 443 275 454 297 476 C 319 498 331 524 331 554 C 331 584 319 611 297 633 C 275 655 248 666 218 666 C 187 666 160 655 138 633 C 116 611 105 584 105 554 C 105 524 116 498 138 476 C 160 454 187 443 218 443 Z" unicode="°" />
<glyph horiz-adv-x="500" d="M 475 295 L 290 295 L 290 112 L 211 112 L 211 295 L 25 295 L 25 367 L 211 367 L 211 550 L 290 550 L 290 367 L 475 367 L 475 295 Z M 470 25 L 32 25 L 32 96 L 470 96 L 470 25 Z" unicode="±" />
<glyph horiz-adv-x="321" d="M 301 372 L 20 372 L 20 402 L 178 559 C 184 565 191 573 197 583 C 203 593 207 605 207 619 C 207 633 202 645 192 656 C 182 667 168 673 149 673 C 126 673 110 666 101 652 C 91 638 86 623 86 605 L 14 605 C 14 641 26 673 51 700 C 76 727 111 741 157 741 C 201 741 234 730 256 710 C 278 689 289 664 289 636 C 289 609 284 587 275 569 C 265 551 255 537 244 527 L 152 439 L 301 439 L 301 372 Z" unicode="²" />
<glyph horiz-adv-x="346" d="M 226 569 C 254 564 275 553 291 537 C 307 520 315 500 315 477 C 315 465 312 452 307 439 C 302 425 294 413 282 402 C 270 391 255 382 235 375 C 215 367 190 364 161 364 C 119 364 87 368 64 378 C 40 388 22 398 10 408 L 54 454 C 65 447 79 441 96 435 C 113 429 133 426 157 426 C 188 426 210 432 223 444 C 235 456 242 471 242 489 C 242 507 234 520 218 526 C 202 532 183 535 162 535 L 89 535 L 89 593 L 156 593 C 176 593 193 596 206 603 C 218 610 225 621 225 636 C 225 648 219 658 208 666 C 197 673 180 677 158 677 C 138 677 120 673 103 666 C 86 658 73 650 65 640 L 21 684 C 34 698 52 711 74 723 C 96 735 128 742 169 742 C 209 742 241 733 265 717 C 288 700 300 678 300 652 C 300 630 292 611 278 597 C 263 583 246 573 226 569 Z" unicode="³" />
<glyph horiz-adv-x="500" d="M 151 598 L 256 761 L 366 761 L 244 598 L 151 598 Z" unicode="´" />
<glyph horiz-adv-x="624" d="M 80 -192 L 80 540 L 172 540 L 172 172 C 172 142 184 117 210 97 C 236 76 267 66 303 66 C 319 66 336 69 354 76 C 371 82 386 92 400 105 C 414 117 425 133 434 151 C 443 169 448 190 448 213 L 448 540 L 539 540 L 539 0 L 455 0 L 455 99 C 449 85 440 71 428 59 C 416 46 402 35 386 26 C 370 16 353 9 335 3 C 317 -3 299 -6 282 -7 C 257 -7 233 -2 211 8 C 189 18 173 32 165 51 L 165 -192 L 80 -192 Z" unicode="µ" />
<glyph horiz-adv-x="698" d="M 619 -179 L 556 -179 L 556 657 L 442 657 L 442 -179 L 379 -179 L 379 247 L 270 247 C 239 247 209 253 180 266 C 151 279 126 296 104 318 C 82 339 64 364 51 393 C 37 422 31 453 31 485 C 31 519 37 552 50 582 C 62 612 80 637 102 659 C 124 681 152 698 184 711 C 216 723 251 730 290 730 L 619 730 L 619 -179 Z M 380 324 L 380 653 L 322 653 C 277 653 240 637 212 606 C 183 574 169 535 169 488 C 169 466 172 445 180 425 C 188 405 198 387 211 372 C 224 357 239 345 257 337 C 275 328 293 324 313 324 L 380 324 Z" unicode="¶" />
<glyph horiz-adv-x="255" d="M 174 284 L 81 284 L 81 419 L 174 419 L 174 284 Z" unicode="·" />
<glyph horiz-adv-x="500" d="M 256 -188 C 231 -188 206 -185 181 -179 C 156 -173 137 -165 123 -156 L 137 -115 C 147 -120 159 -125 175 -130 C 190 -135 207 -138 226 -138 C 240 -138 253 -134 265 -128 C 276 -121 282 -112 282 -102 C 282 -89 277 -80 267 -75 C 257 -70 246 -68 235 -68 C 227 -68 220 -68 214 -69 C 208 -70 201 -72 195 -75 L 183 -61 L 243 13 L 299 13 L 249 -50 C 283 -42 312 -45 336 -58 C 359 -70 371 -89 371 -114 C 371 -138 359 -157 336 -169 C 313 -181 286 -188 256 -188 Z" unicode="¸" />
<glyph horiz-adv-x="327" d="M 139 372 L 139 641 C 131 630 118 620 99 612 C 79 604 63 598 49 596 L 48 678 C 72 681 94 688 112 698 C 130 708 149 722 168 740 L 225 740 L 225 372 L 139 372 Z" unicode="¹" />
<glyph horiz-adv-x="543" d="M 267 261 C 237 261 208 266 180 277 C 152 287 128 303 107 323 C 85 343 68 368 56 398 C 43 427 37 460 37 498 C 37 530 43 561 56 591 C 68 620 85 646 106 668 C 127 690 152 707 180 720 C 208 732 238 739 270 739 C 302 739 333 733 362 722 C 390 711 415 696 437 676 C 458 656 475 631 487 603 C 499 574 505 543 505 509 C 505 473 498 440 486 410 C 474 379 457 353 435 331 C 413 309 388 291 359 279 C 330 267 299 261 267 261 Z M 268 341 C 312 341 349 356 377 388 C 405 419 420 459 420 507 C 420 552 406 589 380 619 C 353 649 316 664 270 664 C 226 664 191 648 164 617 C 136 585 123 545 123 497 C 123 449 136 411 164 383 C 191 355 226 341 268 341 Z M 56 130 L 56 210 L 483 210 L 483 130 L 56 130 Z" unicode="º" />
<glyph horiz-adv-x="464" d="M 31 514 L 214 334 L 214 276 L 31 98 L 31 196 L 132 305 L 31 412 L 31 514 Z M 254 514 L 437 334 L 437 276 L 254 98 L 254 196 L 356 305 L 254 413 L 254 514 Z" unicode="»" />
<glyph horiz-adv-x="680" d="M 1 0 L 1 0 Z M 92 372 L 92 641 C 84 630 71 620 52 612 C 32 604 16 598 2 596 L 1 678 C 25 681 47 688 65 698 C 83 708 102 722 121 740 L 178 740 L 178 372 L 92 372 Z M 566 730 L 199 0 L 118 0 L 485 730 L 566 730 Z M 378 83 L 378 139 L 564 366 L 617 366 L 617 142 L 678 142 L 678 83 L 617 83 L 617 1 L 541 1 L 541 83 L 378 83 Z M 440 131 L 543 131 L 543 259 L 440 131 Z" unicode="¼" />
<glyph horiz-adv-x="734" d="M 1 0 L 1 0 Z M 92 372 L 92 641 C 84 630 71 620 52 612 C 32 604 16 598 2 596 L 1 678 C 25 681 47 688 65 698 C 83 708 102 722 121 740 L 178 740 L 178 372 L 92 372 Z M 566 730 L 199 0 L 118 0 L 485 730 L 566 730 Z M 724 0 L 443 0 L 443 30 L 601 187 C 607 193 614 201 620 211 C 626 221 630 233 630 247 C 630 261 625 273 615 284 C 605 295 591 301 572 301 C 549 301 533 294 524 280 C 514 266 509 251 509 233 L 437 233 C 437 269 449 301 474 328 C 499 355 534 369 580 369 C 624 369 657 358 679 338 C 701 317 712 292 712 264 C 712 237 707 215 698 197 C 688 179 678 165 667 155 L 575 67 L 724 67 L 724 0 Z" unicode="½" />
<glyph horiz-adv-x="740" d="M 2 0 L 2 0 Z M 626 730 L 259 0 L 178 0 L 545 730 L 626 730 Z M 438 83 L 438 139 L 624 366 L 677 366 L 677 142 L 738 142 L 738 83 L 677 83 L 677 1 L 601 1 L 601 83 L 438 83 Z M 500 131 L 603 131 L 603 259 L 500 131 Z M 218 569 C 246 564 267 553 283 537 C 299 520 307 500 307 477 C 307 465 304 452 299 439 C 294 425 286 413 274 402 C 262 391 247 382 227 375 C 207 367 182 364 153 364 C 111 364 79 368 56 378 C 32 388 14 398 2 408 L 46 454 C 57 447 71 441 88 435 C 105 429 125 426 149 426 C 180 426 202 432 215 444 C 227 456 234 471 234 489 C 234 507 226 520 210 526 C 194 532 175 535 154 535 L 81 535 L 81 593 L 148 593 C 168 593 185 596 198 603 C 210 610 217 621 217 636 C 217 648 211 658 200 666 C 189 673 172 677 150 677 C 130 677 112 673 95 666 C 78 658 65 650 57 640 L 13 684 C 26 698 44 711 66 723 C 88 735 120 742 161 742 C 201 742 233 733 257 717 C 280 700 292 678 292 652 C 292 630 284 611 270 597 C 255 583 238 573 218 569 Z" unicode="¾" />
<glyph horiz-adv-x="479" d="M 211 487 L 211 611 L 315 611 L 315 487 L 211 487 Z M 245 -131 C 214 -131 185 -127 158 -119 C 131 -111 108 -99 88 -84 C 68 -68 52 -50 41 -28 C 29 -6 24 19 24 47 C 24 73 28 96 36 116 C 44 136 55 154 68 170 C 80 186 94 199 109 211 C 123 223 137 233 150 243 C 179 264 198 290 206 320 C 214 350 218 380 219 410 L 312 410 C 312 360 306 320 296 291 C 286 262 264 235 232 210 C 218 200 205 190 192 180 C 179 170 167 159 157 147 C 147 135 138 122 132 108 C 125 94 122 78 122 60 C 122 27 134 1 160 -17 C 185 -36 216 -46 254 -46 C 286 -46 316 -38 343 -24 C 369 -9 391 8 408 29 L 470 -32 C 449 -58 419 -81 381 -101 C 343 -121 297 -131 245 -131 Z" unicode="¿" />
<glyph horiz-adv-x="656" d="M 1 0 L 1 0 Z M 655 0 L 549 0 L 471 193 L 174 193 L 101 0 L 1 0 L 297 733 L 363 733 L 655 0 Z M 448 269 L 323 586 L 198 269 L 448 269 Z M 323 779 L 323 779 Z M 431 779 L 337 779 L 215 942 L 324 942 L 431 779 Z" unicode="À" />
<glyph horiz-adv-x="656" d="M 1 0 L 1 0 Z M 655 0 L 549 0 L 471 193 L 174 193 L 101 0 L 1 0 L 297 733 L 363 733 L 655 0 Z M 448 269 L 323 586 L 198 269 L 448 269 Z M 323 788 L 323 788 Z M 216 788 L 321 951 L 431 951 L 309 788 L 216 788 Z" unicode="Á" />
<glyph horiz-adv-x="656" d="M 1 0 L 1 0 Z M 655 0 L 549 0 L 471 193 L 174 193 L 101 0 L 1 0 L 297 733 L 363 733 L 655 0 Z M 448 269 L 323 586 L 198 269 L 448 269 Z M 323 780 L 323 780 Z M 494 780 L 407 780 L 323 895 L 238 780 L 153 780 L 276 952 L 371 952 L 494 780 Z" unicode="Â" />
<glyph horiz-adv-x="656" d="M 1 0 L 1 0 Z M 655 0 L 549 0 L 471 193 L 174 193 L 101 0 L 1 0 L 297 733 L 363 733 L 655 0 Z M 448 269 L 323 586 L 198 269 L 448 269 Z M 323 786 L 323 786 Z M 425 924 L 500 924 C 500 877 492 842 478 820 C 463 797 443 786 417 786 C 398 786 381 790 367 798 C 353 806 339 814 327 824 C 315 832 304 841 293 849 C 282 857 271 862 260 862 C 248 862 239 856 232 845 C 224 833 220 815 220 791 L 146 791 C 146 837 155 871 175 894 C 194 916 215 928 238 928 C 256 928 271 923 285 915 C 298 907 311 898 324 888 C 334 879 345 871 355 864 C 365 857 375 854 386 854 C 396 854 405 860 413 872 C 420 884 424 901 425 924 Z" unicode="Ã" />
<glyph horiz-adv-x="656" d="M 1 0 L 1 0 Z M 655 0 L 549 0 L 471 193 L 174 193 L 101 0 L 1 0 L 297 733 L 363 733 L 655 0 Z M 448 269 L 323 586 L 198 269 L 448 269 Z M 323 780 L 323 780 Z M 455 780 L 377 780 L 377 938 L 455 938 L 455 780 Z M 269 780 L 191 780 L 191 938 L 269 938 L 269 780 Z" unicode="Ä" />
<glyph horiz-adv-x="656" d="M 1 0 L 1 0 Z M 655 0 L 549 0 L 471 193 L 174 193 L 101 0 L 1 0 L 297 733 L 363 733 L 655 0 Z M 448 269 L 323 586 L 198 269 L 448 269 Z M 323 780 L 323 780 Z M 323 780 C 289 780 260 792 236 816 C 212 840 201 870 201 904 C 201 937 212 966 236 990 C 260 1014 289 1026 323 1026 C 357 1026 386 1014 410 990 C 434 966 446 937 446 904 C 446 870 434 840 410 816 C 386 792 357 780 323 780 Z M 323 840 C 340 840 355 846 367 858 C 379 870 385 886 385 904 C 385 920 379 935 367 948 C 355 960 340 967 323 967 C 306 967 291 960 279 948 C 267 935 261 920 261 904 C 261 886 267 870 279 858 C 291 846 306 840 323 840 Z" unicode="Å" />
<glyph horiz-adv-x="974" d="M 921 0 L 489 0 L 489 247 L 243 247 L 87 0 L -20 0 L 442 730 L 902 730 L 902 643 L 583 643 L 583 406 L 887 406 L 887 323 L 583 323 L 583 87 L 921 87 L 921 0 Z M 489 331 L 489 659 L 289 331 L 489 331 Z" unicode="Æ" />
<glyph horiz-adv-x="748" d="M 47 0 L 47 0 Z M 408 -12 C 360 -12 314 -3 270 14 C 226 32 187 57 154 89 C 121 121 95 161 76 208 C 56 254 47 307 47 365 C 47 420 56 471 74 517 C 92 563 118 603 150 636 C 182 669 220 695 264 714 C 308 732 357 742 409 742 C 475 742 532 731 580 711 C 628 691 668 660 700 620 L 624 557 C 600 584 572 606 538 624 C 504 641 462 650 411 650 C 330 650 266 624 219 573 C 171 521 148 453 148 369 C 148 321 155 279 171 243 C 186 206 206 175 232 151 C 257 127 286 108 319 96 C 351 84 385 78 419 78 C 471 78 515 88 552 109 C 588 129 618 156 642 189 L 716 136 C 688 95 648 60 596 31 C 543 2 480 -12 408 -12 Z M 407 -10 L 407 -10 Z M 416 -198 C 391 -198 366 -195 341 -189 C 316 -183 297 -175 283 -166 L 297 -125 C 307 -130 319 -135 335 -140 C 350 -145 367 -148 386 -148 C 400 -148 413 -144 425 -138 C 436 -131 442 -122 442 -112 C 442 -99 437 -90 427 -85 C 417 -80 406 -78 395 -78 C 387 -78 380 -78 374 -79 C 368 -80 361 -82 355 -85 L 343 -71 L 403 3 L 459 3 L 409 -60 C 443 -52 472 -55 496 -68 C 519 -80 531 -99 531 -124 C 531 -148 519 -167 496 -179 C 473 -191 446 -198 416 -198 Z" unicode="Ç" />
<glyph horiz-adv-x="588" d="M 95 0 L 95 0 Z M 532 0 L 95 0 L 95 730 L 513 730 L 513 643 L 194 643 L 194 407 L 497 407 L 497 322 L 194 322 L 194 87 L 532 87 L 532 0 Z M 312 779 L 312 779 Z M 420 779 L 326 779 L 204 942 L 313 942 L 420 779 Z" unicode="È" />
<glyph horiz-adv-x="588" d="M 95 0 L 95 0 Z M 532 0 L 95 0 L 95 730 L 513 730 L 513 643 L 194 643 L 194 407 L 497 407 L 497 322 L 194 322 L 194 87 L 532 87 L 532 0 Z M 312 788 L 312 788 Z M 205 788 L 310 951 L 420 951 L 298 788 L 205 788 Z" unicode="É" />
<glyph horiz-adv-x="588" d="M 95 0 L 95 0 Z M 532 0 L 95 0 L 95 730 L 513 730 L 513 643 L 194 643 L 194 407 L 497 407 L 497 322 L 194 322 L 194 87 L 532 87 L 532 0 Z M 312 780 L 312 780 Z M 483 780 L 396 780 L 312 895 L 227 780 L 142 780 L 265 952 L 360 952 L 483 780 Z" unicode="Ê" />
<glyph horiz-adv-x="588" d="M 95 0 L 95 0 Z M 532 0 L 95 0 L 95 730 L 513 730 L 513 643 L 194 643 L 194 407 L 497 407 L 497 322 L 194 322 L 194 87 L 532 87 L 532 0 Z M 312 780 L 312 780 Z M 444 780 L 366 780 L 366 938 L 444 938 L 444 780 Z M 258 780 L 180 780 L 180 938 L 258 938 L 258 780 Z" unicode="Ë" />
<glyph horiz-adv-x="299" d="M 41 0 L 41 0 Z M 200 0 L 100 0 L 100 730 L 200 730 L 200 0 Z M 149 779 L 149 779 Z M 257 779 L 163 779 L 41 942 L 150 942 L 257 779 Z" unicode="Ì" />
<glyph horiz-adv-x="299" d="M 42 0 L 42 0 Z M 200 0 L 100 0 L 100 730 L 200 730 L 200 0 Z M 149 788 L 149 788 Z M 42 788 L 147 951 L 257 951 L 135 788 L 42 788 Z" unicode="Í" />
<glyph horiz-adv-x="299" d="M 0 0 L 0 0 Z M 200 0 L 100 0 L 100 730 L 200 730 L 200 0 Z M 149 780 L 149 780 Z M 320 780 L 233 780 L 149 895 L 64 780 L -21 780 L 102 952 L 197 952 L 320 780 Z" unicode="Î" />
<glyph horiz-adv-x="299" d="M 17 0 L 17 0 Z M 200 0 L 100 0 L 100 730 L 200 730 L 200 0 Z M 149 780 L 149 780 Z M 281 780 L 203 780 L 203 938 L 281 938 L 281 780 Z M 95 780 L 17 780 L 17 938 L 95 938 L 95 780 Z" unicode="Ï" />
<glyph horiz-adv-x="749" d="M 702 367 C 702 316 693 268 676 224 C 658 179 633 140 599 107 C 565 74 524 48 474 29 C 424 9 366 0 301 0 L 95 0 L 95 321 L 35 321 L 35 393 L 95 393 L 95 730 L 316 730 C 376 730 431 721 479 704 C 527 687 567 663 600 632 C 632 600 657 562 675 517 C 693 472 702 422 702 367 Z M 191 76 L 292 76 C 347 76 394 84 434 100 C 473 116 505 138 529 165 C 553 191 571 222 582 257 C 593 291 599 327 599 365 C 599 454 573 524 523 576 C 472 628 402 654 314 654 L 191 654 L 191 393 L 374 393 L 374 321 L 191 321 L 191 76 Z" unicode="Ð" />
<glyph horiz-adv-x="791" d="M 95 0 L 95 0 Z M 695 0 L 624 0 L 189 557 L 189 0 L 95 0 L 95 730 L 172 730 L 604 178 L 604 730 L 695 730 L 695 0 Z M 395 786 L 395 786 Z M 497 924 L 572 924 C 572 877 564 842 550 820 C 535 797 515 786 489 786 C 470 786 453 790 439 798 C 425 806 411 814 399 824 C 387 832 376 841 365 849 C 354 857 343 862 332 862 C 320 862 311 856 304 845 C 296 833 292 815 292 791 L 218 791 C 218 837 227 871 247 894 C 266 916 287 928 310 928 C 328 928 343 923 357 915 C 370 907 383 898 396 888 C 406 879 417 871 427 864 C 437 857 447 854 458 854 C 468 854 477 860 485 872 C 492 884 496 901 497 924 Z" unicode="Ñ" />
<glyph horiz-adv-x="843" d="M 47 0 L 47 0 Z M 424 -12 C 369 -12 318 -2 272 17 C 225 36 185 63 152 97 C 119 131 93 171 75 218 C 56 265 47 316 47 370 C 47 424 56 473 76 519 C 95 565 121 604 154 637 C 187 669 226 695 271 714 C 316 732 364 742 416 742 C 471 742 522 732 569 714 C 615 695 655 669 689 636 C 722 603 748 564 767 518 C 785 472 795 422 795 368 C 795 312 785 260 765 214 C 745 167 719 127 685 94 C 651 60 612 34 567 16 C 521 -2 474 -12 424 -12 Z M 431 74 C 468 74 503 80 535 94 C 567 107 595 126 619 151 C 643 175 661 206 675 242 C 689 278 696 318 696 364 C 696 406 688 444 674 480 C 659 515 639 545 614 571 C 588 596 558 616 523 630 C 488 644 450 652 410 652 C 372 652 337 645 305 632 C 273 619 245 600 222 576 C 198 552 180 522 167 488 C 153 453 147 414 147 372 C 147 326 154 285 169 248 C 184 211 204 180 230 154 C 256 128 286 109 321 95 C 355 81 392 74 431 74 Z M 415 779 L 415 779 Z M 523 779 L 429 779 L 307 942 L 416 942 L 523 779 Z" unicode="Ò" />
<glyph horiz-adv-x="843" d="M 47 0 L 47 0 Z M 424 -12 C 369 -12 318 -2 272 17 C 225 36 185 63 152 97 C 119 131 93 171 75 218 C 56 265 47 316 47 370 C 47 424 56 473 76 519 C 95 565 121 604 154 637 C 187 669 226 695 271 714 C 316 732 364 742 416 742 C 471 742 522 732 569 714 C 615 695 655 669 689 636 C 722 603 748 564 767 518 C 785 472 795 422 795 368 C 795 312 785 260 765 214 C 745 167 719 127 685 94 C 651 60 612 34 567 16 C 521 -2 474 -12 424 -12 Z M 431 74 C 468 74 503 80 535 94 C 567 107 595 126 619 151 C 643 175 661 206 675 242 C 689 278 696 318 696 364 C 696 406 688 444 674 480 C 659 515 639 545 614 571 C 588 596 558 616 523 630 C 488 644 450 652 410 652 C 372 652 337 645 305 632 C 273 619 245 600 222 576 C 198 552 180 522 167 488 C 153 453 147 414 147 372 C 147 326 154 285 169 248 C 184 211 204 180 230 154 C 256 128 286 109 321 95 C 355 81 392 74 431 74 Z M 415 788 L 415 788 Z M 308 788 L 413 951 L 523 951 L 401 788 L 308 788 Z" unicode="Ó" />
<glyph horiz-adv-x="843" d="M 47 0 L 47 0 Z M 424 -12 C 369 -12 318 -2 272 17 C 225 36 185 63 152 97 C 119 131 93 171 75 218 C 56 265 47 316 47 370 C 47 424 56 473 76 519 C 95 565 121 604 154 637 C 187 669 226 695 271 714 C 316 732 364 742 416 742 C 471 742 522 732 569 714 C 615 695 655 669 689 636 C 722 603 748 564 767 518 C 785 472 795 422 795 368 C 795 312 785 260 765 214 C 745 167 719 127 685 94 C 651 60 612 34 567 16 C 521 -2 474 -12 424 -12 Z M 431 74 C 468 74 503 80 535 94 C 567 107 595 126 619 151 C 643 175 661 206 675 242 C 689 278 696 318 696 364 C 696 406 688 444 674 480 C 659 515 639 545 614 571 C 588 596 558 616 523 630 C 488 644 450 652 410 652 C 372 652 337 645 305 632 C 273 619 245 600 222 576 C 198 552 180 522 167 488 C 153 453 147 414 147 372 C 147 326 154 285 169 248 C 184 211 204 180 230 154 C 256 128 286 109 321 95 C 355 81 392 74 431 74 Z M 415 780 L 415 780 Z M 586 780 L 499 780 L 415 895 L 330 780 L 245 780 L 368 952 L 463 952 L 586 780 Z" unicode="Ô" />
<glyph horiz-adv-x="843" d="M 47 0 L 47 0 Z M 424 -12 C 369 -12 318 -2 272 17 C 225 36 185 63 152 97 C 119 131 93 171 75 218 C 56 265 47 316 47 370 C 47 424 56 473 76 519 C 95 565 121 604 154 637 C 187 669 226 695 271 714 C 316 732 364 742 416 742 C 471 742 522 732 569 714 C 615 695 655 669 689 636 C 722 603 748 564 767 518 C 785 472 795 422 795 368 C 795 312 785 260 765 214 C 745 167 719 127 685 94 C 651 60 612 34 567 16 C 521 -2 474 -12 424 -12 Z M 431 74 C 468 74 503 80 535 94 C 567 107 595 126 619 151 C 643 175 661 206 675 242 C 689 278 696 318 696 364 C 696 406 688 444 674 480 C 659 515 639 545 614 571 C 588 596 558 616 523 630 C 488 644 450 652 410 652 C 372 652 337 645 305 632 C 273 619 245 600 222 576 C 198 552 180 522 167 488 C 153 453 147 414 147 372 C 147 326 154 285 169 248 C 184 211 204 180 230 154 C 256 128 286 109 321 95 C 355 81 392 74 431 74 Z M 415 786 L 415 786 Z M 517 924 L 592 924 C 592 877 584 842 570 820 C 555 797 535 786 509 786 C 490 786 473 790 459 798 C 445 806 431 814 419 824 C 407 832 396 841 385 849 C 374 857 363 862 352 862 C 340 862 331 856 324 845 C 316 833 312 815 312 791 L 238 791 C 238 837 247 871 267 894 C 286 916 307 928 330 928 C 348 928 363 923 377 915 C 390 907 403 898 416 888 C 426 879 437 871 447 864 C 457 857 467 854 478 854 C 488 854 497 860 505 872 C 512 884 516 901 517 924 Z" unicode="Õ" />
<glyph horiz-adv-x="843" d="M 47 0 L 47 0 Z M 424 -12 C 369 -12 318 -2 272 17 C 225 36 185 63 152 97 C 119 131 93 171 75 218 C 56 265 47 316 47 370 C 47 424 56 473 76 519 C 95 565 121 604 154 637 C 187 669 226 695 271 714 C 316 732 364 742 416 742 C 471 742 522 732 569 714 C 615 695 655 669 689 636 C 722 603 748 564 767 518 C 785 472 795 422 795 368 C 795 312 785 260 765 214 C 745 167 719 127 685 94 C 651 60 612 34 567 16 C 521 -2 474 -12 424 -12 Z M 431 74 C 468 74 503 80 535 94 C 567 107 595 126 619 151 C 643 175 661 206 675 242 C 689 278 696 318 696 364 C 696 406 688 444 674 480 C 659 515 639 545 614 571 C 588 596 558 616 523 630 C 488 644 450 652 410 652 C 372 652 337 645 305 632 C 273 619 245 600 222 576 C 198 552 180 522 167 488 C 153 453 147 414 147 372 C 147 326 154 285 169 248 C 184 211 204 180 230 154 C 256 128 286 109 321 95 C 355 81 392 74 431 74 Z M 415 780 L 415 780 Z M 547 780 L 469 780 L 469 938 L 547 938 L 547 780 Z M 361 780 L 283 780 L 283 938 L 361 938 L 361 780 Z" unicode="Ö" />
<glyph horiz-adv-x="500" d="M 113 142 L 61 195 L 198 331 L 62 466 L 114 519 L 250 383 L 386 519 L 438 466 L 302 331 L 439 195 L 386 141 L 250 279 L 113 142 Z" unicode="×" />
<glyph horiz-adv-x="843" d="M 795 368 C 795 312 785 260 765 214 C 745 167 719 127 685 94 C 651 60 612 34 567 16 C 521 -2 474 -12 424 -12 C 376 -12 331 -4 290 10 C 249 24 213 45 181 71 L 109 -1 L 56 49 L 130 123 C 103 155 82 193 68 235 C 54 277 47 322 47 370 C 47 424 56 473 76 519 C 95 565 121 604 154 637 C 187 669 226 695 271 714 C 316 732 364 742 416 742 C 464 742 510 734 552 720 C 594 705 632 684 665 658 L 749 743 L 802 693 L 716 607 C 740 575 760 538 774 498 C 788 457 795 414 795 368 Z M 147 372 C 147 336 151 303 160 273 C 169 243 182 216 199 193 L 595 589 C 570 609 542 624 511 635 C 479 646 446 652 410 652 C 372 652 337 645 305 632 C 273 619 245 600 222 576 C 198 552 180 522 167 488 C 153 453 147 414 147 372 Z M 696 364 C 696 396 691 427 682 457 C 673 486 660 512 644 535 L 248 139 C 272 118 300 102 332 91 C 364 79 397 74 431 74 C 468 74 503 80 535 94 C 567 107 595 126 619 151 C 643 175 661 206 675 242 C 689 278 696 318 696 364 Z" unicode="Ø" />
<glyph horiz-adv-x="762" d="M 91 0 L 91 0 Z M 671 730 L 671 266 C 671 222 663 183 648 149 C 632 114 611 85 585 61 C 559 37 528 19 493 7 C 457 -5 420 -12 381 -12 C 341 -12 304 -6 269 6 C 233 18 202 35 176 59 C 150 83 129 112 114 147 C 98 181 91 221 91 266 L 91 730 L 189 730 L 189 267 C 189 238 194 212 204 188 C 214 164 228 145 245 129 C 262 113 282 100 305 91 C 328 82 352 78 378 78 C 404 78 428 82 452 90 C 476 98 496 111 514 127 C 532 143 546 162 557 186 C 567 210 573 237 573 267 L 573 730 L 671 730 Z M 381 779 L 381 779 Z M 489 779 L 395 779 L 273 942 L 382 942 L 489 779 Z" unicode="Ù" />
<glyph horiz-adv-x="762" d="M 91 0 L 91 0 Z M 671 730 L 671 266 C 671 222 663 183 648 149 C 632 114 611 85 585 61 C 559 37 528 19 493 7 C 457 -5 420 -12 381 -12 C 341 -12 304 -6 269 6 C 233 18 202 35 176 59 C 150 83 129 112 114 147 C 98 181 91 221 91 266 L 91 730 L 189 730 L 189 267 C 189 238 194 212 204 188 C 214 164 228 145 245 129 C 262 113 282 100 305 91 C 328 82 352 78 378 78 C 404 78 428 82 452 90 C 476 98 496 111 514 127 C 532 143 546 162 557 186 C 567 210 573 237 573 267 L 573 730 L 671 730 Z M 381 788 L 381 788 Z M 274 788 L 379 951 L 489 951 L 367 788 L 274 788 Z" unicode="Ú" />
<glyph horiz-adv-x="762" d="M 91 0 L 91 0 Z M 671 730 L 671 266 C 671 222 663 183 648 149 C 632 114 611 85 585 61 C 559 37 528 19 493 7 C 457 -5 420 -12 381 -12 C 341 -12 304 -6 269 6 C 233 18 202 35 176 59 C 150 83 129 112 114 147 C 98 181 91 221 91 266 L 91 730 L 189 730 L 189 267 C 189 238 194 212 204 188 C 214 164 228 145 245 129 C 262 113 282 100 305 91 C 328 82 352 78 378 78 C 404 78 428 82 452 90 C 476 98 496 111 514 127 C 532 143 546 162 557 186 C 567 210 573 237 573 267 L 573 730 L 671 730 Z M 381 780 L 381 780 Z M 552 780 L 465 780 L 381 895 L 296 780 L 211 780 L 334 952 L 429 952 L 552 780 Z" unicode="Û" />
<glyph horiz-adv-x="762" d="M 91 0 L 91 0 Z M 671 730 L 671 266 C 671 222 663 183 648 149 C 632 114 611 85 585 61 C 559 37 528 19 493 7 C 457 -5 420 -12 381 -12 C 341 -12 304 -6 269 6 C 233 18 202 35 176 59 C 150 83 129 112 114 147 C 98 181 91 221 91 266 L 91 730 L 189 730 L 189 267 C 189 238 194 212 204 188 C 214 164 228 145 245 129 C 262 113 282 100 305 91 C 328 82 352 78 378 78 C 404 78 428 82 452 90 C 476 98 496 111 514 127 C 532 143 546 162 557 186 C 567 210 573 237 573 267 L 573 730 L 671 730 Z M 381 780 L 381 780 Z M 513 780 L 435 780 L 435 938 L 513 938 L 513 780 Z M 327 780 L 249 780 L 249 938 L 327 938 L 327 780 Z" unicode="Ü" />
<glyph horiz-adv-x="664" d="M 1 0 L 1 0 Z M 664 730 L 380 309 L 380 0 L 280 0 L 280 313 L 1 730 L 113 730 L 335 401 L 558 730 L 664 730 Z M 335 788 L 335 788 Z M 228 788 L 333 951 L 443 951 L 321 788 L 228 788 Z" unicode="Ý" />
<glyph horiz-adv-x="608" d="M 95 0 L 95 730 L 195 730 L 195 601 L 349 601 C 422 601 479 580 520 540 C 561 500 582 448 582 384 C 582 352 576 322 565 295 C 553 267 538 244 518 224 C 498 204 473 189 445 178 C 417 167 386 162 352 162 L 195 162 L 195 0 L 95 0 Z M 193 238 L 338 238 C 382 238 416 251 442 277 C 468 303 481 340 481 387 C 481 432 466 466 437 489 C 407 511 372 523 330 523 L 193 523 L 193 238 Z" unicode="Þ" />
<glyph horiz-adv-x="696" d="M 470 -11 C 420 -11 377 -4 339 8 C 301 20 270 37 244 59 L 285 122 C 309 104 338 90 371 80 C 403 69 435 64 466 64 C 496 64 521 71 540 87 C 558 102 568 121 568 145 C 568 164 559 182 541 198 C 523 214 489 229 438 244 C 372 262 325 281 299 303 C 273 324 260 357 260 401 C 260 419 263 436 270 451 C 277 466 286 479 298 489 C 310 499 323 508 338 515 C 352 521 367 526 383 528 C 387 532 392 539 399 549 C 406 559 410 576 411 599 C 411 641 399 674 375 697 C 351 719 323 731 291 731 C 260 731 234 722 213 704 C 192 686 182 659 182 622 L 182 0 L 88 0 L 88 636 C 88 664 93 688 103 710 C 113 731 127 749 145 763 C 162 777 183 788 207 795 C 231 802 256 806 283 806 C 311 806 339 801 365 793 C 391 785 414 773 434 758 C 454 742 469 723 481 701 C 493 679 499 654 499 627 C 499 589 493 559 482 537 C 471 515 461 500 452 492 C 426 487 401 478 378 464 C 354 450 341 433 337 413 C 337 390 348 371 372 357 C 396 343 434 328 486 314 C 549 295 595 273 623 247 C 651 221 666 189 666 149 C 666 124 661 102 651 82 C 641 62 627 45 609 31 C 591 17 571 7 547 0 C 523 -7 497 -11 470 -11 Z" unicode="ß" />
<glyph horiz-adv-x="595" d="M 42 0 L 42 0 Z M 523 0 L 431 0 L 431 74 C 411 48 384 28 350 14 C 316 0 276 -8 230 -8 C 172 -8 126 6 92 34 C 58 62 42 101 42 149 C 42 209 65 256 112 288 C 159 320 222 339 302 344 L 430 352 L 430 360 C 430 398 418 427 395 445 C 372 463 340 473 300 473 C 266 473 233 467 202 455 C 171 443 142 429 116 413 L 77 481 C 105 501 138 518 178 532 C 218 546 262 554 312 554 C 377 554 428 538 466 508 C 504 477 523 428 523 360 L 523 0 Z M 432 143 L 432 280 L 291 273 C 247 270 211 259 183 241 C 155 223 141 196 141 160 C 141 130 152 107 175 90 C 197 73 227 65 263 65 C 296 65 328 72 359 87 C 390 101 414 120 432 143 Z M 294 589 L 294 589 Z M 402 589 L 308 589 L 186 752 L 295 752 L 402 589 Z" unicode="à" />
<glyph horiz-adv-x="595" d="M 42 0 L 42 0 Z M 523 0 L 431 0 L 431 74 C 411 48 384 28 350 14 C 316 0 276 -8 230 -8 C 172 -8 126 6 92 34 C 58 62 42 101 42 149 C 42 209 65 256 112 288 C 159 320 222 339 302 344 L 430 352 L 430 360 C 430 398 418 427 395 445 C 372 463 340 473 300 473 C 266 473 233 467 202 455 C 171 443 142 429 116 413 L 77 481 C 105 501 138 518 178 532 C 218 546 262 554 312 554 C 377 554 428 538 466 508 C 504 477 523 428 523 360 L 523 0 Z M 432 143 L 432 280 L 291 273 C 247 270 211 259 183 241 C 155 223 141 196 141 160 C 141 130 152 107 175 90 C 197 73 227 65 263 65 C 296 65 328 72 359 87 C 390 101 414 120 432 143 Z M 294 598 L 294 598 Z M 187 598 L 292 761 L 402 761 L 280 598 L 187 598 Z" unicode="á" />
<glyph horiz-adv-x="595" d="M 42 0 L 42 0 Z M 523 0 L 431 0 L 431 74 C 411 48 384 28 350 14 C 316 0 276 -8 230 -8 C 172 -8 126 6 92 34 C 58 62 42 101 42 149 C 42 209 65 256 112 288 C 159 320 222 339 302 344 L 430 352 L 430 360 C 430 398 418 427 395 445 C 372 463 340 473 300 473 C 266 473 233 467 202 455 C 171 443 142 429 116 413 L 77 481 C 105 501 138 518 178 532 C 218 546 262 554 312 554 C 377 554 428 538 466 508 C 504 477 523 428 523 360 L 523 0 Z M 432 143 L 432 280 L 291 273 C 247 270 211 259 183 241 C 155 223 141 196 141 160 C 141 130 152 107 175 90 C 197 73 227 65 263 65 C 296 65 328 72 359 87 C 390 101 414 120 432 143 Z M 294 590 L 294 590 Z M 465 590 L 378 590 L 294 705 L 209 590 L 124 590 L 247 762 L 342 762 L 465 590 Z" unicode="â" />
<glyph horiz-adv-x="595" d="M 42 0 L 42 0 Z M 523 0 L 431 0 L 431 74 C 411 48 384 28 350 14 C 316 0 276 -8 230 -8 C 172 -8 126 6 92 34 C 58 62 42 101 42 149 C 42 209 65 256 112 288 C 159 320 222 339 302 344 L 430 352 L 430 360 C 430 398 418 427 395 445 C 372 463 340 473 300 473 C 266 473 233 467 202 455 C 171 443 142 429 116 413 L 77 481 C 105 501 138 518 178 532 C 218 546 262 554 312 554 C 377 554 428 538 466 508 C 504 477 523 428 523 360 L 523 0 Z M 432 143 L 432 280 L 291 273 C 247 270 211 259 183 241 C 155 223 141 196 141 160 C 141 130 152 107 175 90 C 197 73 227 65 263 65 C 296 65 328 72 359 87 C 390 101 414 120 432 143 Z M 294 596 L 294 596 Z M 396 734 L 471 734 C 471 687 463 652 449 630 C 434 607 414 596 388 596 C 369 596 352 600 338 608 C 324 616 310 624 298 634 C 286 642 275 651 264 659 C 253 667 242 672 231 672 C 219 672 210 666 203 655 C 195 643 191 625 191 601 L 117 601 C 117 647 126 681 146 704 C 165 726 186 738 209 738 C 227 738 242 733 256 725 C 269 717 282 708 295 698 C 305 689 316 681 326 674 C 336 667 346 664 357 664 C 367 664 376 670 384 682 C 391 694 395 711 396 734 Z" unicode="ã" />
<glyph horiz-adv-x="595" d="M 42 0 L 42 0 Z M 523 0 L 431 0 L 431 74 C 411 48 384 28 350 14 C 316 0 276 -8 230 -8 C 172 -8 126 6 92 34 C 58 62 42 101 42 149 C 42 209 65 256 112 288 C 159 320 222 339 302 344 L 430 352 L 430 360 C 430 398 418 427 395 445 C 372 463 340 473 300 473 C 266 473 233 467 202 455 C 171 443 142 429 116 413 L 77 481 C 105 501 138 518 178 532 C 218 546 262 554 312 554 C 377 554 428 538 466 508 C 504 477 523 428 523 360 L 523 0 Z M 432 143 L 432 280 L 291 273 C 247 270 211 259 183 241 C 155 223 141 196 141 160 C 141 130 152 107 175 90 C 197 73 227 65 263 65 C 296 65 328 72 359 87 C 390 101 414 120 432 143 Z M 294 590 L 294 590 Z M 426 590 L 348 590 L 348 748 L 426 748 L 426 590 Z M 240 590 L 162 590 L 162 748 L 240 748 L 240 590 Z" unicode="ä" />
<glyph horiz-adv-x="595" d="M 42 0 L 42 0 Z M 523 0 L 431 0 L 431 74 C 411 48 384 28 350 14 C 316 0 276 -8 230 -8 C 172 -8 126 6 92 34 C 58 62 42 101 42 149 C 42 209 65 256 112 288 C 159 320 222 339 302 344 L 430 352 L 430 360 C 430 398 418 427 395 445 C 372 463 340 473 300 473 C 266 473 233 467 202 455 C 171 443 142 429 116 413 L 77 481 C 105 501 138 518 178 532 C 218 546 262 554 312 554 C 377 554 428 538 466 508 C 504 477 523 428 523 360 L 523 0 Z M 432 143 L 432 280 L 291 273 C 247 270 211 259 183 241 C 155 223 141 196 141 160 C 141 130 152 107 175 90 C 197 73 227 65 263 65 C 296 65 328 72 359 87 C 390 101 414 120 432 143 Z M 294 590 L 294 590 Z M 294 590 C 260 590 231 602 207 626 C 183 650 172 680 172 714 C 172 747 183 776 207 800 C 231 824 260 836 294 836 C 328 836 357 824 381 800 C 405 776 417 747 417 714 C 417 680 405 650 381 626 C 357 602 328 590 294 590 Z M 294 650 C 311 650 326 656 338 668 C 350 680 356 696 356 714 C 356 730 350 745 338 758 C 326 770 311 777 294 777 C 277 777 262 770 250 758 C 238 745 232 730 232 714 C 232 696 238 680 250 668 C 262 656 277 650 294 650 Z" unicode="å" />
<glyph horiz-adv-x="1020" d="M 715 -11 C 684 -11 655 -7 628 1 C 601 9 577 19 556 32 C 535 45 518 60 504 76 C 490 92 480 108 476 124 C 468 107 456 91 442 75 C 428 59 411 44 391 32 C 371 20 348 10 322 3 C 296 -4 268 -8 237 -8 C 181 -8 137 6 104 34 C 70 62 54 101 54 149 C 54 211 77 257 124 288 C 171 319 234 337 314 342 L 443 351 L 443 360 C 443 394 431 422 408 442 C 384 462 352 473 312 473 C 278 473 245 467 213 455 C 181 443 152 428 126 412 L 89 481 C 117 501 150 518 187 532 C 223 546 263 554 306 554 C 360 554 402 543 434 522 C 465 501 486 473 497 437 C 503 449 512 461 524 475 C 536 489 551 501 569 512 C 587 523 607 532 631 540 C 654 548 680 552 709 552 C 789 552 853 524 903 469 C 952 414 977 338 977 241 L 527 241 C 527 192 544 152 580 120 C 616 88 660 73 713 73 C 765 73 803 81 829 99 C 854 117 875 134 891 152 L 949 86 C 923 58 892 34 856 16 C 820 -1 773 -11 715 -11 Z M 528 309 L 880 309 C 879 331 874 352 866 372 C 858 392 846 409 831 424 C 816 438 798 450 777 459 C 755 467 732 472 706 472 C 656 472 614 456 582 424 C 549 392 531 353 528 309 Z M 270 65 C 290 65 309 68 327 76 C 345 83 361 92 376 104 C 390 116 403 129 415 143 C 427 157 437 171 445 185 L 445 279 L 303 270 C 260 267 224 258 196 244 C 167 230 153 203 153 163 C 153 131 164 106 186 90 C 208 73 236 65 270 65 Z" unicode="æ" />
<glyph horiz-adv-x="590" d="M 43 0 L 43 0 Z M 488 169 L 561 119 C 551 103 539 88 525 73 C 511 57 494 43 475 31 C 455 19 433 9 408 1 C 382 -7 353 -11 321 -11 C 281 -11 243 -4 209 9 C 175 22 145 41 121 66 C 96 90 77 120 63 154 C 49 188 43 227 43 269 C 43 309 50 346 64 381 C 78 416 97 446 122 471 C 147 496 177 516 212 530 C 246 544 284 552 324 552 C 357 552 387 547 413 539 C 439 531 461 520 480 507 C 499 493 515 478 527 461 C 539 444 549 427 556 410 L 476 374 C 464 398 445 419 421 439 C 396 459 363 469 321 469 C 294 469 269 463 247 453 C 225 443 206 429 190 411 C 174 393 161 372 153 348 C 144 324 140 298 140 271 C 140 213 156 166 189 129 C 222 91 267 73 323 73 C 346 73 366 76 384 82 C 402 88 417 95 430 105 C 443 114 454 124 464 136 C 473 147 481 158 488 169 Z M 315 -10 L 315 -10 Z M 324 -198 C 299 -198 274 -195 249 -189 C 224 -183 205 -175 191 -166 L 205 -125 C 215 -130 227 -135 243 -140 C 258 -145 275 -148 294 -148 C 308 -148 321 -144 333 -138 C 344 -131 350 -122 350 -112 C 350 -99 345 -90 335 -85 C 325 -80 314 -78 303 -78 C 295 -78 288 -78 282 -79 C 276 -80 269 -82 263 -85 L 251 -71 L 311 3 L 367 3 L 317 -60 C 351 -52 380 -55 404 -68 C 427 -80 439 -99 439 -124 C 439 -148 427 -167 404 -179 C 381 -191 354 -198 324 -198 Z" unicode="ç" />
<glyph horiz-adv-x="631" d="M 43 0 L 43 0 Z M 326 -11 C 285 -11 247 -4 213 8 C 178 20 148 39 123 63 C 98 87 78 116 64 151 C 50 186 43 226 43 270 C 43 309 50 346 64 380 C 78 414 97 444 122 470 C 146 495 176 515 210 530 C 244 544 280 552 320 552 C 400 552 464 524 514 469 C 563 413 588 337 588 239 L 137 239 C 138 216 143 195 152 175 C 161 155 173 137 189 122 C 205 107 224 95 246 86 C 268 77 294 73 322 73 C 368 73 404 80 432 96 C 460 111 483 129 502 151 L 560 86 C 534 58 504 34 468 16 C 432 -1 384 -11 326 -11 Z M 136 310 L 491 310 C 490 356 473 395 441 426 C 408 456 367 472 317 472 C 291 472 268 467 247 458 C 225 449 207 437 191 423 C 175 408 163 391 153 371 C 143 351 138 331 136 310 Z M 318 589 L 318 589 Z M 426 589 L 332 589 L 210 752 L 319 752 L 426 589 Z" unicode="è" />
<glyph horiz-adv-x="631" d="M 43 0 L 43 0 Z M 326 -11 C 285 -11 247 -4 213 8 C 178 20 148 39 123 63 C 98 87 78 116 64 151 C 50 186 43 226 43 270 C 43 309 50 346 64 380 C 78 414 97 444 122 470 C 146 495 176 515 210 530 C 244 544 280 552 320 552 C 400 552 464 524 514 469 C 563 413 588 337 588 239 L 137 239 C 138 216 143 195 152 175 C 161 155 173 137 189 122 C 205 107 224 95 246 86 C 268 77 294 73 322 73 C 368 73 404 80 432 96 C 460 111 483 129 502 151 L 560 86 C 534 58 504 34 468 16 C 432 -1 384 -11 326 -11 Z M 136 310 L 491 310 C 490 356 473 395 441 426 C 408 456 367 472 317 472 C 291 472 268 467 247 458 C 225 449 207 437 191 423 C 175 408 163 391 153 371 C 143 351 138 331 136 310 Z M 318 598 L 318 598 Z M 211 598 L 316 761 L 426 761 L 304 598 L 211 598 Z" unicode="é" />
<glyph horiz-adv-x="631" d="M 43 0 L 43 0 Z M 326 -11 C 285 -11 247 -4 213 8 C 178 20 148 39 123 63 C 98 87 78 116 64 151 C 50 186 43 226 43 270 C 43 309 50 346 64 380 C 78 414 97 444 122 470 C 146 495 176 515 210 530 C 244 544 280 552 320 552 C 400 552 464 524 514 469 C 563 413 588 337 588 239 L 137 239 C 138 216 143 195 152 175 C 161 155 173 137 189 122 C 205 107 224 95 246 86 C 268 77 294 73 322 73 C 368 73 404 80 432 96 C 460 111 483 129 502 151 L 560 86 C 534 58 504 34 468 16 C 432 -1 384 -11 326 -11 Z M 136 310 L 491 310 C 490 356 473 395 441 426 C 408 456 367 472 317 472 C 291 472 268 467 247 458 C 225 449 207 437 191 423 C 175 408 163 391 153 371 C 143 351 138 331 136 310 Z M 318 590 L 318 590 Z M 489 590 L 402 590 L 318 705 L 233 590 L 148 590 L 271 762 L 366 762 L 489 590 Z" unicode="ê" />
<glyph horiz-adv-x="631" d="M 43 0 L 43 0 Z M 326 -11 C 285 -11 247 -4 213 8 C 178 20 148 39 123 63 C 98 87 78 116 64 151 C 50 186 43 226 43 270 C 43 309 50 346 64 380 C 78 414 97 444 122 470 C 146 495 176 515 210 530 C 244 544 280 552 320 552 C 400 552 464 524 514 469 C 563 413 588 337 588 239 L 137 239 C 138 216 143 195 152 175 C 161 155 173 137 189 122 C 205 107 224 95 246 86 C 268 77 294 73 322 73 C 368 73 404 80 432 96 C 460 111 483 129 502 151 L 560 86 C 534 58 504 34 468 16 C 432 -1 384 -11 326 -11 Z M 136 310 L 491 310 C 490 356 473 395 441 426 C 408 456 367 472 317 472 C 291 472 268 467 247 458 C 225 449 207 437 191 423 C 175 408 163 391 153 371 C 143 351 138 331 136 310 Z M 318 590 L 318 590 Z M 450 590 L 372 590 L 372 748 L 450 748 L 450 590 Z M 264 590 L 186 590 L 186 748 L 264 748 L 264 590 Z" unicode="ë" />
<glyph horiz-adv-x="274" d="M 29 0 L 29 0 Z M 184 0 L 90 0 L 90 540 L 184 540 L 184 0 Z M 137 589 L 137 589 Z M 245 589 L 151 589 L 29 752 L 138 752 L 245 589 Z" unicode="ì" />
<glyph horiz-adv-x="274" d="M 30 0 L 30 0 Z M 184 0 L 90 0 L 90 540 L 184 540 L 184 0 Z M 137 598 L 137 598 Z M 30 598 L 135 761 L 245 761 L 123 598 L 30 598 Z" unicode="í" />
<glyph horiz-adv-x="274" d="M 0 0 L 0 0 Z M 184 0 L 90 0 L 90 540 L 184 540 L 184 0 Z M 137 590 L 137 590 Z M 308 590 L 221 590 L 137 705 L 52 590 L -33 590 L 90 762 L 185 762 L 308 590 Z" unicode="î" />
<glyph horiz-adv-x="274" d="M 5 0 L 5 0 Z M 184 0 L 90 0 L 90 540 L 184 540 L 184 0 Z M 137 590 L 137 590 Z M 269 590 L 191 590 L 191 748 L 269 748 L 269 590 Z M 83 590 L 5 590 L 5 748 L 83 748 L 83 590 Z" unicode="ï" />
<glyph horiz-adv-x="649" d="M 600 299 C 600 255 593 215 581 177 C 569 139 551 106 527 78 C 503 50 473 29 438 13 C 403 -3 363 -11 319 -11 C 281 -11 245 -4 211 8 C 177 20 148 38 124 62 C 99 85 79 113 65 147 C 51 180 44 217 44 258 C 44 294 51 329 65 363 C 79 397 97 426 121 451 C 145 476 172 496 204 511 C 236 525 269 533 304 533 C 348 533 388 522 424 500 C 460 478 485 450 501 418 C 495 473 484 521 468 562 C 451 602 431 637 409 665 L 267 606 L 251 649 L 377 701 C 357 719 336 735 316 747 C 295 759 276 767 258 773 L 347 801 C 361 797 377 789 395 777 C 413 765 431 750 450 731 L 531 765 L 546 722 L 481 695 C 512 653 540 600 564 534 C 588 468 600 390 600 299 Z M 323 68 C 381 68 426 86 460 124 C 493 162 510 210 510 270 C 510 324 493 369 460 405 C 427 441 382 459 324 459 C 296 459 271 454 249 444 C 227 434 208 420 192 403 C 176 385 163 365 154 341 C 145 317 141 292 141 265 C 141 207 158 159 193 123 C 227 86 271 68 323 68 Z" unicode="ð" />
<glyph horiz-adv-x="640" d="M 88 0 L 88 0 Z M 559 0 L 466 0 L 466 370 C 466 402 453 427 428 445 C 402 462 373 471 341 471 C 323 471 305 468 286 463 C 267 457 250 449 235 438 C 219 426 207 412 197 395 C 187 378 182 358 182 336 L 182 0 L 88 0 L 88 540 L 169 540 L 169 423 C 181 461 206 492 243 516 C 279 540 322 552 371 552 C 395 552 419 548 442 541 C 464 533 484 523 502 510 C 519 497 533 481 543 462 C 553 443 559 422 559 399 L 559 0 Z M 339 596 L 339 596 Z M 441 734 L 516 734 C 516 687 508 652 494 630 C 479 607 459 596 433 596 C 414 596 397 600 383 608 C 369 616 355 624 343 634 C 331 642 320 651 309 659 C 298 667 287 672 276 672 C 264 672 255 666 248 655 C 240 643 236 625 236 601 L 162 601 C 162 647 171 681 191 704 C 210 726 231 738 254 738 C 272 738 287 733 301 725 C 314 717 327 708 340 698 C 350 689 361 681 371 674 C 381 667 391 664 402 664 C 412 664 421 670 429 682 C 436 694 440 711 441 734 Z" unicode="ñ" />
<glyph horiz-adv-x="651" d="M 43 0 L 43 0 Z M 321 -11 C 285 -11 250 -4 216 8 C 182 20 153 39 127 63 C 101 87 81 116 66 151 C 50 185 43 224 43 268 C 43 308 50 345 65 380 C 80 414 100 444 126 470 C 152 495 182 515 216 530 C 250 544 286 552 324 552 C 363 552 400 545 435 532 C 469 519 499 501 525 478 C 551 454 571 426 586 393 C 600 359 608 322 608 282 C 608 240 600 201 585 165 C 570 129 550 98 524 72 C 498 46 467 25 432 11 C 397 -3 360 -11 321 -11 Z M 327 72 C 354 72 379 77 402 88 C 424 98 444 113 460 131 C 476 149 488 170 497 196 C 506 221 511 248 511 277 C 511 303 506 328 497 352 C 488 375 475 395 459 413 C 442 430 422 443 398 453 C 374 463 348 468 320 468 C 267 468 224 448 191 410 C 157 372 141 324 141 267 C 141 237 145 209 155 185 C 165 161 178 140 195 124 C 211 107 231 94 254 85 C 276 76 301 72 327 72 Z M 323 589 L 323 589 Z M 431 589 L 337 589 L 215 752 L 324 752 L 431 589 Z" unicode="ò" />
<glyph horiz-adv-x="651" d="M 43 0 L 43 0 Z M 321 -11 C 285 -11 250 -4 216 8 C 182 20 153 39 127 63 C 101 87 81 116 66 151 C 50 185 43 224 43 268 C 43 308 50 345 65 380 C 80 414 100 444 126 470 C 152 495 182 515 216 530 C 250 544 286 552 324 552 C 363 552 400 545 435 532 C 469 519 499 501 525 478 C 551 454 571 426 586 393 C 600 359 608 322 608 282 C 608 240 600 201 585 165 C 570 129 550 98 524 72 C 498 46 467 25 432 11 C 397 -3 360 -11 321 -11 Z M 327 72 C 354 72 379 77 402 88 C 424 98 444 113 460 131 C 476 149 488 170 497 196 C 506 221 511 248 511 277 C 511 303 506 328 497 352 C 488 375 475 395 459 413 C 442 430 422 443 398 453 C 374 463 348 468 320 468 C 267 468 224 448 191 410 C 157 372 141 324 141 267 C 141 237 145 209 155 185 C 165 161 178 140 195 124 C 211 107 231 94 254 85 C 276 76 301 72 327 72 Z M 323 598 L 323 598 Z M 216 598 L 321 761 L 431 761 L 309 598 L 216 598 Z" unicode="ó" />
<glyph horiz-adv-x="651" d="M 43 0 L 43 0 Z M 321 -11 C 285 -11 250 -4 216 8 C 182 20 153 39 127 63 C 101 87 81 116 66 151 C 50 185 43 224 43 268 C 43 308 50 345 65 380 C 80 414 100 444 126 470 C 152 495 182 515 216 530 C 250 544 286 552 324 552 C 363 552 400 545 435 532 C 469 519 499 501 525 478 C 551 454 571 426 586 393 C 600 359 608 322 608 282 C 608 240 600 201 585 165 C 570 129 550 98 524 72 C 498 46 467 25 432 11 C 397 -3 360 -11 321 -11 Z M 327 72 C 354 72 379 77 402 88 C 424 98 444 113 460 131 C 476 149 488 170 497 196 C 506 221 511 248 511 277 C 511 303 506 328 497 352 C 488 375 475 395 459 413 C 442 430 422 443 398 453 C 374 463 348 468 320 468 C 267 468 224 448 191 410 C 157 372 141 324 141 267 C 141 237 145 209 155 185 C 165 161 178 140 195 124 C 211 107 231 94 254 85 C 276 76 301 72 327 72 Z M 323 590 L 323 590 Z M 494 590 L 407 590 L 323 705 L 238 590 L 153 590 L 276 762 L 371 762 L 494 590 Z" unicode="ô" />
<glyph horiz-adv-x="651" d="M 43 0 L 43 0 Z M 321 -11 C 285 -11 250 -4 216 8 C 182 20 153 39 127 63 C 101 87 81 116 66 151 C 50 185 43 224 43 268 C 43 308 50 345 65 380 C 80 414 100 444 126 470 C 152 495 182 515 216 530 C 250 544 286 552 324 552 C 363 552 400 545 435 532 C 469 519 499 501 525 478 C 551 454 571 426 586 393 C 600 359 608 322 608 282 C 608 240 600 201 585 165 C 570 129 550 98 524 72 C 498 46 467 25 432 11 C 397 -3 360 -11 321 -11 Z M 327 72 C 354 72 379 77 402 88 C 424 98 444 113 460 131 C 476 149 488 170 497 196 C 506 221 511 248 511 277 C 511 303 506 328 497 352 C 488 375 475 395 459 413 C 442 430 422 443 398 453 C 374 463 348 468 320 468 C 267 468 224 448 191 410 C 157 372 141 324 141 267 C 141 237 145 209 155 185 C 165 161 178 140 195 124 C 211 107 231 94 254 85 C 276 76 301 72 327 72 Z M 323 596 L 323 596 Z M 425 734 L 500 734 C 500 687 492 652 478 630 C 463 607 443 596 417 596 C 398 596 381 600 367 608 C 353 616 339 624 327 634 C 315 642 304 651 293 659 C 282 667 271 672 260 672 C 248 672 239 666 232 655 C 224 643 220 625 220 601 L 146 601 C 146 647 155 681 175 704 C 194 726 215 738 238 738 C 256 738 271 733 285 725 C 298 717 311 708 324 698 C 334 689 345 681 355 674 C 365 667 375 664 386 664 C 396 664 405 670 413 682 C 420 694 424 711 425 734 Z" unicode="õ" />
<glyph horiz-adv-x="651" d="M 43 0 L 43 0 Z M 321 -11 C 285 -11 250 -4 216 8 C 182 20 153 39 127 63 C 101 87 81 116 66 151 C 50 185 43 224 43 268 C 43 308 50 345 65 380 C 80 414 100 444 126 470 C 152 495 182 515 216 530 C 250 544 286 552 324 552 C 363 552 400 545 435 532 C 469 519 499 501 525 478 C 551 454 571 426 586 393 C 600 359 608 322 608 282 C 608 240 600 201 585 165 C 570 129 550 98 524 72 C 498 46 467 25 432 11 C 397 -3 360 -11 321 -11 Z M 327 72 C 354 72 379 77 402 88 C 424 98 444 113 460 131 C 476 149 488 170 497 196 C 506 221 511 248 511 277 C 511 303 506 328 497 352 C 488 375 475 395 459 413 C 442 430 422 443 398 453 C 374 463 348 468 320 468 C 267 468 224 448 191 410 C 157 372 141 324 141 267 C 141 237 145 209 155 185 C 165 161 178 140 195 124 C 211 107 231 94 254 85 C 276 76 301 72 327 72 Z M 323 590 L 323 590 Z M 455 590 L 377 590 L 377 748 L 455 748 L 455 590 Z M 269 590 L 191 590 L 191 748 L 269 748 L 269 590 Z" unicode="ö" />
<glyph horiz-adv-x="500" d="M 206 448 L 206 564 L 294 564 L 294 448 L 206 448 Z M 25 291 L 25 370 L 475 370 L 475 291 L 25 291 Z M 206 97 L 206 213 L 294 213 L 294 97 L 206 97 Z" unicode="÷" />
<glyph horiz-adv-x="651" d="M 321 -11 C 288 -11 256 -5 226 4 C 195 14 167 30 143 50 L 77 -16 L 24 34 L 93 103 C 77 125 65 149 56 177 C 47 205 43 235 43 268 C 43 308 50 345 65 380 C 80 414 100 444 126 470 C 152 495 182 515 216 530 C 250 544 286 552 324 552 C 356 552 386 547 415 539 C 444 530 470 518 494 503 L 559 567 L 611 518 L 548 455 C 566 432 581 406 592 377 C 602 347 608 316 608 282 C 608 240 600 201 585 165 C 570 129 550 98 524 72 C 498 46 467 25 432 11 C 397 -3 360 -11 321 -11 Z M 141 267 C 141 249 142 231 146 215 C 150 199 155 184 162 171 L 429 437 C 414 447 397 454 379 460 C 360 465 340 468 320 468 C 267 468 224 448 191 410 C 157 372 141 324 141 267 Z M 511 277 C 511 297 508 317 503 336 C 497 354 490 371 480 387 L 207 114 C 223 100 241 90 262 83 C 282 75 304 72 327 72 C 354 72 379 77 402 88 C 424 98 444 113 460 131 C 476 149 488 170 497 196 C 506 221 511 248 511 277 Z" unicode="ø" />
<glyph horiz-adv-x="640" d="M 80 0 L 80 0 Z M 80 540 L 174 540 L 174 201 C 174 151 187 117 214 97 C 240 77 274 67 314 67 C 352 67 386 79 415 105 C 443 130 458 163 458 204 L 458 540 L 552 540 L 552 0 L 467 0 L 467 111 C 458 80 437 52 404 26 C 371 0 329 -12 277 -12 C 250 -12 225 -8 201 -1 C 177 5 156 16 138 31 C 120 45 106 64 96 86 C 85 108 80 134 80 164 L 80 540 Z M 316 589 L 316 589 Z M 424 589 L 330 589 L 208 752 L 317 752 L 424 589 Z" unicode="ù" />
<glyph horiz-adv-x="640" d="M 80 0 L 80 0 Z M 80 540 L 174 540 L 174 201 C 174 151 187 117 214 97 C 240 77 274 67 314 67 C 352 67 386 79 415 105 C 443 130 458 163 458 204 L 458 540 L 552 540 L 552 0 L 467 0 L 467 111 C 458 80 437 52 404 26 C 371 0 329 -12 277 -12 C 250 -12 225 -8 201 -1 C 177 5 156 16 138 31 C 120 45 106 64 96 86 C 85 108 80 134 80 164 L 80 540 Z M 316 598 L 316 598 Z M 209 598 L 314 761 L 424 761 L 302 598 L 209 598 Z" unicode="ú" />
<glyph horiz-adv-x="640" d="M 80 0 L 80 0 Z M 80 540 L 174 540 L 174 201 C 174 151 187 117 214 97 C 240 77 274 67 314 67 C 352 67 386 79 415 105 C 443 130 458 163 458 204 L 458 540 L 552 540 L 552 0 L 467 0 L 467 111 C 458 80 437 52 404 26 C 371 0 329 -12 277 -12 C 250 -12 225 -8 201 -1 C 177 5 156 16 138 31 C 120 45 106 64 96 86 C 85 108 80 134 80 164 L 80 540 Z M 316 590 L 316 590 Z M 487 590 L 400 590 L 316 705 L 231 590 L 146 590 L 269 762 L 364 762 L 487 590 Z" unicode="û" />
<glyph horiz-adv-x="640" d="M 80 0 L 80 0 Z M 80 540 L 174 540 L 174 201 C 174 151 187 117 214 97 C 240 77 274 67 314 67 C 352 67 386 79 415 105 C 443 130 458 163 458 204 L 458 540 L 552 540 L 552 0 L 467 0 L 467 111 C 458 80 437 52 404 26 C 371 0 329 -12 277 -12 C 250 -12 225 -8 201 -1 C 177 5 156 16 138 31 C 120 45 106 64 96 86 C 85 108 80 134 80 164 L 80 540 Z M 316 590 L 316 590 Z M 448 590 L 370 590 L 370 748 L 448 748 L 448 590 Z M 262 590 L 184 590 L 184 748 L 262 748 L 262 590 Z" unicode="ü" />
<glyph horiz-adv-x="550" d="M 0 0 L 0 0 Z M 554 540 L 266 -76 C 243 -124 215 -156 183 -174 C 150 -191 119 -200 89 -200 C 72 -200 58 -198 47 -194 C 35 -190 27 -188 22 -186 L 53 -103 C 56 -105 62 -107 70 -109 C 78 -111 86 -113 96 -113 C 113 -113 129 -107 144 -95 C 159 -83 174 -63 189 -35 L 224 35 L -4 540 L 97 540 L 274 139 L 456 540 L 554 540 Z M 275 598 L 275 598 Z M 168 598 L 273 761 L 383 761 L 261 598 L 168 598 Z" unicode="ý" />
<glyph horiz-adv-x="664" d="M 88 -194 L 88 800 L 181 800 L 181 415 C 185 432 193 449 204 465 C 215 481 229 496 246 509 C 262 521 282 531 305 539 C 327 547 353 551 382 551 C 452 551 509 526 554 478 C 598 429 621 362 621 278 C 621 234 614 195 602 160 C 589 124 572 94 550 70 C 528 45 502 26 472 13 C 442 0 409 -7 375 -7 C 325 -7 283 5 249 31 C 215 56 192 87 182 123 L 182 -194 L 88 -194 Z M 354 72 C 402 72 442 91 475 129 C 507 167 524 216 524 276 C 524 303 520 329 513 353 C 505 377 495 397 481 415 C 467 433 449 447 428 457 C 406 467 382 472 355 472 C 303 472 261 455 227 421 C 193 387 176 337 176 269 C 176 201 193 152 227 120 C 261 88 304 72 354 72 Z" unicode="þ" />
<glyph horiz-adv-x="550" d="M 0 0 L 0 0 Z M 554 540 L 266 -76 C 243 -124 215 -156 183 -174 C 150 -191 119 -200 89 -200 C 72 -200 58 -198 47 -194 C 35 -190 27 -188 22 -186 L 53 -103 C 56 -105 62 -107 70 -109 C 78 -111 86 -113 96 -113 C 113 -113 129 -107 144 -95 C 159 -83 174 -63 189 -35 L 224 35 L -4 540 L 97 540 L 274 139 L 456 540 L 554 540 Z M 275 590 L 275 590 Z M 407 590 L 329 590 L 329 748 L 407 748 L 407 590 Z M 221 590 L 143 590 L 143 748 L 221 748 L 221 590 Z" unicode="ÿ" />
<glyph horiz-adv-x="656" d="M 1 0 L 1 0 Z M 655 0 L 549 0 L 471 193 L 174 193 L 101 0 L 1 0 L 297 733 L 363 733 L 655 0 Z M 448 269 L 323 586 L 198 269 L 448 269 Z M 323 792 L 323 792 Z M 454 792 L 192 792 L 192 872 L 454 872 L 454 792 Z" unicode="Ā" />
<glyph horiz-adv-x="595" d="M 42 0 L 42 0 Z M 523 0 L 431 0 L 431 74 C 411 48 384 28 350 14 C 316 0 276 -8 230 -8 C 172 -8 126 6 92 34 C 58 62 42 101 42 149 C 42 209 65 256 112 288 C 159 320 222 339 302 344 L 430 352 L 430 360 C 430 398 418 427 395 445 C 372 463 340 473 300 473 C 266 473 233 467 202 455 C 171 443 142 429 116 413 L 77 481 C 105 501 138 518 178 532 C 218 546 262 554 312 554 C 377 554 428 538 466 508 C 504 477 523 428 523 360 L 523 0 Z M 432 143 L 432 280 L 291 273 C 247 270 211 259 183 241 C 155 223 141 196 141 160 C 141 130 152 107 175 90 C 197 73 227 65 263 65 C 296 65 328 72 359 87 C 390 101 414 120 432 143 Z M 294 602 L 294 602 Z M 425 602 L 163 602 L 163 682 L 425 682 L 425 602 Z" unicode="ā" />
<glyph horiz-adv-x="656" d="M 1 0 L 1 0 Z M 655 0 L 549 0 L 471 193 L 174 193 L 101 0 L 1 0 L 297 733 L 363 733 L 655 0 Z M 448 269 L 323 586 L 198 269 L 448 269 Z M 323 785 L 323 785 Z M 404 942 L 481 942 C 477 887 460 847 431 822 C 401 797 365 785 323 785 C 280 785 244 797 215 822 C 185 847 169 887 165 942 L 242 942 C 244 914 252 891 264 874 C 276 856 296 848 323 848 C 349 848 369 856 382 873 C 394 889 402 912 404 942 Z" unicode="Ă" />
<glyph horiz-adv-x="595" d="M 42 0 L 42 0 Z M 523 0 L 431 0 L 431 74 C 411 48 384 28 350 14 C 316 0 276 -8 230 -8 C 172 -8 126 6 92 34 C 58 62 42 101 42 149 C 42 209 65 256 112 288 C 159 320 222 339 302 344 L 430 352 L 430 360 C 430 398 418 427 395 445 C 372 463 340 473 300 473 C 266 473 233 467 202 455 C 171 443 142 429 116 413 L 77 481 C 105 501 138 518 178 532 C 218 546 262 554 312 554 C 377 554 428 538 466 508 C 504 477 523 428 523 360 L 523 0 Z M 432 143 L 432 280 L 291 273 C 247 270 211 259 183 241 C 155 223 141 196 141 160 C 141 130 152 107 175 90 C 197 73 227 65 263 65 C 296 65 328 72 359 87 C 390 101 414 120 432 143 Z M 294 595 L 294 595 Z M 375 752 L 452 752 C 448 697 431 657 402 632 C 372 607 336 595 294 595 C 251 595 215 607 186 632 C 156 657 140 697 136 752 L 213 752 C 215 724 223 701 235 684 C 247 666 267 658 294 658 C 320 658 340 666 353 683 C 365 699 373 722 375 752 Z" unicode="ă" />
<glyph horiz-adv-x="656" d="M 1 0 L 1 0 Z M 655 0 L 549 0 L 471 193 L 174 193 L 101 0 L 1 0 L 297 733 L 363 733 L 655 0 Z M 448 269 L 323 586 L 198 269 L 448 269 Z M 577 -7 L 577 -7 Z M 686 -95 L 712 -133 C 692 -153 669 -169 644 -180 C 618 -191 590 -197 560 -197 C 526 -197 499 -189 479 -175 C 459 -160 449 -141 449 -119 C 449 -96 458 -74 476 -54 C 494 -33 518 -15 550 0 L 614 0 C 587 -12 566 -26 551 -40 C 535 -54 528 -69 528 -83 C 528 -97 533 -108 545 -116 C 557 -124 572 -129 590 -129 C 610 -129 629 -125 645 -119 C 661 -113 675 -105 686 -95 Z" unicode="Ą" />
<glyph horiz-adv-x="595" d="M 42 0 L 42 0 Z M 523 0 L 431 0 L 431 74 C 411 48 384 28 350 14 C 316 0 276 -8 230 -8 C 172 -8 126 6 92 34 C 58 62 42 101 42 149 C 42 209 65 256 112 288 C 159 320 222 339 302 344 L 430 352 L 430 360 C 430 398 418 427 395 445 C 372 463 340 473 300 473 C 266 473 233 467 202 455 C 171 443 142 429 116 413 L 77 481 C 105 501 138 518 178 532 C 218 546 262 554 312 554 C 377 554 428 538 466 508 C 504 477 523 428 523 360 L 523 0 Z M 432 143 L 432 280 L 291 273 C 247 270 211 259 183 241 C 155 223 141 196 141 160 C 141 130 152 107 175 90 C 197 73 227 65 263 65 C 296 65 328 72 359 87 C 390 101 414 120 432 143 Z M 459 -7 L 459 -7 Z M 568 -95 L 594 -133 C 574 -153 551 -169 526 -180 C 500 -191 472 -197 442 -197 C 408 -197 381 -189 361 -175 C 341 -160 331 -141 331 -119 C 331 -96 340 -74 358 -54 C 376 -33 400 -15 432 0 L 496 0 C 469 -12 448 -26 433 -40 C 417 -54 410 -69 410 -83 C 410 -97 415 -108 427 -116 C 439 -124 454 -129 472 -129 C 492 -129 511 -125 527 -119 C 543 -113 557 -105 568 -95 Z" unicode="ą" />
<glyph horiz-adv-x="748" d="M 47 0 L 47 0 Z M 408 -12 C 360 -12 314 -3 270 14 C 226 32 187 57 154 89 C 121 121 95 161 76 208 C 56 254 47 307 47 365 C 47 420 56 471 74 517 C 92 563 118 603 150 636 C 182 669 220 695 264 714 C 308 732 357 742 409 742 C 475 742 532 731 580 711 C 628 691 668 660 700 620 L 624 557 C 600 584 572 606 538 624 C 504 641 462 650 411 650 C 330 650 266 624 219 573 C 171 521 148 453 148 369 C 148 321 155 279 171 243 C 186 206 206 175 232 151 C 257 127 286 108 319 96 C 351 84 385 78 419 78 C 471 78 515 88 552 109 C 588 129 618 156 642 189 L 716 136 C 688 95 648 60 596 31 C 543 2 480 -12 408 -12 Z M 409 788 L 409 788 Z M 302 788 L 407 951 L 517 951 L 395 788 L 302 788 Z" unicode="Ć" />
<glyph horiz-adv-x="590" d="M 43 0 L 43 0 Z M 488 169 L 561 119 C 551 103 539 88 525 73 C 511 57 494 43 475 31 C 455 19 433 9 408 1 C 382 -7 353 -11 321 -11 C 281 -11 243 -4 209 9 C 175 22 145 41 121 66 C 96 90 77 120 63 154 C 49 188 43 227 43 269 C 43 309 50 346 64 381 C 78 416 97 446 122 471 C 147 496 177 516 212 530 C 246 544 284 552 324 552 C 357 552 387 547 413 539 C 439 531 461 520 480 507 C 499 493 515 478 527 461 C 539 444 549 427 556 410 L 476 374 C 464 398 445 419 421 439 C 396 459 363 469 321 469 C 294 469 269 463 247 453 C 225 443 206 429 190 411 C 174 393 161 372 153 348 C 144 324 140 298 140 271 C 140 213 156 166 189 129 C 222 91 267 73 323 73 C 346 73 366 76 384 82 C 402 88 417 95 430 105 C 443 114 454 124 464 136 C 473 147 481 158 488 169 Z M 323 598 L 323 598 Z M 216 598 L 321 761 L 431 761 L 309 598 L 216 598 Z" unicode="ć" />
<glyph horiz-adv-x="748" d="M 47 0 L 47 0 Z M 408 -12 C 360 -12 314 -3 270 14 C 226 32 187 57 154 89 C 121 121 95 161 76 208 C 56 254 47 307 47 365 C 47 420 56 471 74 517 C 92 563 118 603 150 636 C 182 669 220 695 264 714 C 308 732 357 742 409 742 C 475 742 532 731 580 711 C 628 691 668 660 700 620 L 624 557 C 600 584 572 606 538 624 C 504 641 462 650 411 650 C 330 650 266 624 219 573 C 171 521 148 453 148 369 C 148 321 155 279 171 243 C 186 206 206 175 232 151 C 257 127 286 108 319 96 C 351 84 385 78 419 78 C 471 78 515 88 552 109 C 588 129 618 156 642 189 L 716 136 C 688 95 648 60 596 31 C 543 2 480 -12 408 -12 Z M 409 780 L 409 780 Z M 580 780 L 493 780 L 409 895 L 324 780 L 239 780 L 362 952 L 457 952 L 580 780 Z" unicode="Ĉ" />
<glyph horiz-adv-x="590" d="M 43 0 L 43 0 Z M 488 169 L 561 119 C 551 103 539 88 525 73 C 511 57 494 43 475 31 C 455 19 433 9 408 1 C 382 -7 353 -11 321 -11 C 281 -11 243 -4 209 9 C 175 22 145 41 121 66 C 96 90 77 120 63 154 C 49 188 43 227 43 269 C 43 309 50 346 64 381 C 78 416 97 446 122 471 C 147 496 177 516 212 530 C 246 544 284 552 324 552 C 357 552 387 547 413 539 C 439 531 461 520 480 507 C 499 493 515 478 527 461 C 539 444 549 427 556 410 L 476 374 C 464 398 445 419 421 439 C 396 459 363 469 321 469 C 294 469 269 463 247 453 C 225 443 206 429 190 411 C 174 393 161 372 153 348 C 144 324 140 298 140 271 C 140 213 156 166 189 129 C 222 91 267 73 323 73 C 346 73 366 76 384 82 C 402 88 417 95 430 105 C 443 114 454 124 464 136 C 473 147 481 158 488 169 Z M 323 590 L 323 590 Z M 494 590 L 407 590 L 323 705 L 238 590 L 153 590 L 276 762 L 371 762 L 494 590 Z" unicode="ĉ" />
<glyph horiz-adv-x="748" d="M 47 0 L 47 0 Z M 408 -12 C 360 -12 314 -3 270 14 C 226 32 187 57 154 89 C 121 121 95 161 76 208 C 56 254 47 307 47 365 C 47 420 56 471 74 517 C 92 563 118 603 150 636 C 182 669 220 695 264 714 C 308 732 357 742 409 742 C 475 742 532 731 580 711 C 628 691 668 660 700 620 L 624 557 C 600 584 572 606 538 624 C 504 641 462 650 411 650 C 330 650 266 624 219 573 C 171 521 148 453 148 369 C 148 321 155 279 171 243 C 186 206 206 175 232 151 C 257 127 286 108 319 96 C 351 84 385 78 419 78 C 471 78 515 88 552 109 C 588 129 618 156 642 189 L 716 136 C 688 95 648 60 596 31 C 543 2 480 -12 408 -12 Z M 409 780 L 409 780 Z M 452 780 L 367 780 L 367 944 L 452 944 L 452 780 Z" unicode="Ċ" />
<glyph horiz-adv-x="590" d="M 43 0 L 43 0 Z M 488 169 L 561 119 C 551 103 539 88 525 73 C 511 57 494 43 475 31 C 455 19 433 9 408 1 C 382 -7 353 -11 321 -11 C 281 -11 243 -4 209 9 C 175 22 145 41 121 66 C 96 90 77 120 63 154 C 49 188 43 227 43 269 C 43 309 50 346 64 381 C 78 416 97 446 122 471 C 147 496 177 516 212 530 C 246 544 284 552 324 552 C 357 552 387 547 413 539 C 439 531 461 520 480 507 C 499 493 515 478 527 461 C 539 444 549 427 556 410 L 476 374 C 464 398 445 419 421 439 C 396 459 363 469 321 469 C 294 469 269 463 247 453 C 225 443 206 429 190 411 C 174 393 161 372 153 348 C 144 324 140 298 140 271 C 140 213 156 166 189 129 C 222 91 267 73 323 73 C 346 73 366 76 384 82 C 402 88 417 95 430 105 C 443 114 454 124 464 136 C 473 147 481 158 488 169 Z M 323 590 L 323 590 Z M 366 590 L 281 590 L 281 754 L 366 754 L 366 590 Z" unicode="ċ" />
<glyph horiz-adv-x="748" d="M 47 0 L 47 0 Z M 408 -12 C 360 -12 314 -3 270 14 C 226 32 187 57 154 89 C 121 121 95 161 76 208 C 56 254 47 307 47 365 C 47 420 56 471 74 517 C 92 563 118 603 150 636 C 182 669 220 695 264 714 C 308 732 357 742 409 742 C 475 742 532 731 580 711 C 628 691 668 660 700 620 L 624 557 C 600 584 572 606 538 624 C 504 641 462 650 411 650 C 330 650 266 624 219 573 C 171 521 148 453 148 369 C 148 321 155 279 171 243 C 186 206 206 175 232 151 C 257 127 286 108 319 96 C 351 84 385 78 419 78 C 471 78 515 88 552 109 C 588 129 618 156 642 189 L 716 136 C 688 95 648 60 596 31 C 543 2 480 -12 408 -12 Z M 409 780 L 409 780 Z M 239 952 L 326 952 L 410 836 L 495 952 L 580 952 L 457 780 L 362 780 L 239 952 Z" unicode="Č" />
<glyph horiz-adv-x="590" d="M 43 0 L 43 0 Z M 488 169 L 561 119 C 551 103 539 88 525 73 C 511 57 494 43 475 31 C 455 19 433 9 408 1 C 382 -7 353 -11 321 -11 C 281 -11 243 -4 209 9 C 175 22 145 41 121 66 C 96 90 77 120 63 154 C 49 188 43 227 43 269 C 43 309 50 346 64 381 C 78 416 97 446 122 471 C 147 496 177 516 212 530 C 246 544 284 552 324 552 C 357 552 387 547 413 539 C 439 531 461 520 480 507 C 499 493 515 478 527 461 C 539 444 549 427 556 410 L 476 374 C 464 398 445 419 421 439 C 396 459 363 469 321 469 C 294 469 269 463 247 453 C 225 443 206 429 190 411 C 174 393 161 372 153 348 C 144 324 140 298 140 271 C 140 213 156 166 189 129 C 222 91 267 73 323 73 C 346 73 366 76 384 82 C 402 88 417 95 430 105 C 443 114 454 124 464 136 C 473 147 481 158 488 169 Z M 323 590 L 323 590 Z M 153 762 L 240 762 L 324 646 L 409 762 L 494 762 L 371 590 L 276 590 L 153 762 Z" unicode="č" />
<glyph horiz-adv-x="749" d="M 95 0 L 95 0 Z M 95 0 L 95 730 L 316 730 C 376 730 431 721 479 705 C 527 688 567 664 600 634 C 632 603 657 566 675 522 C 693 478 702 430 702 378 C 702 324 693 274 676 228 C 658 182 633 142 599 108 C 565 74 524 48 474 29 C 424 9 366 0 301 0 L 95 0 Z M 195 81 L 298 81 C 348 81 392 88 430 104 C 468 119 499 140 524 167 C 548 193 567 225 579 261 C 591 297 597 335 597 377 C 597 458 571 524 521 574 C 470 624 400 650 312 650 L 195 650 L 195 81 Z M 362 780 L 362 780 Z M 192 952 L 279 952 L 363 836 L 448 952 L 533 952 L 410 780 L 315 780 L 192 952 Z" unicode="Ď" />
<glyph horiz-adv-x="664" d="M 43 0 L 43 0 Z M 293 -11 C 257 -11 223 -4 193 8 C 162 21 136 40 114 64 C 92 88 74 118 62 153 C 49 188 43 228 43 272 C 43 312 49 349 63 383 C 77 417 95 447 119 472 C 142 496 169 516 201 530 C 232 544 265 552 301 552 C 343 552 381 539 416 515 C 451 491 474 462 486 430 L 486 800 L 576 800 L 576 0 L 491 0 L 491 129 C 487 115 479 99 468 83 C 456 66 442 51 425 37 C 407 23 387 12 365 3 C 343 -6 319 -11 293 -11 Z M 311 68 C 337 68 361 73 383 83 C 405 93 423 108 439 126 C 454 144 466 166 474 192 C 482 217 486 244 486 274 C 486 306 481 335 472 360 C 462 385 450 406 434 423 C 418 439 400 452 380 460 C 359 468 337 473 315 473 C 261 473 219 454 187 417 C 155 379 140 331 140 271 C 140 242 143 215 151 190 C 159 165 170 144 185 126 C 199 108 217 93 239 83 C 260 73 284 68 311 68 Z M 708 602 L 704 453 L 626 453 L 621 602 L 621 730 L 708 730 L 708 602 Z" unicode="ď" />
<glyph horiz-adv-x="749" d="M 35 0 L 35 0 Z M 702 367 C 702 316 693 268 676 224 C 658 179 633 140 599 107 C 565 74 524 48 474 29 C 424 9 366 0 301 0 L 95 0 L 95 321 L 35 321 L 35 393 L 95 393 L 95 730 L 316 730 C 376 730 431 721 479 704 C 527 687 567 663 600 632 C 632 600 657 562 675 517 C 693 472 702 422 702 367 Z M 191 76 L 292 76 C 347 76 394 84 434 100 C 473 116 505 138 529 165 C 553 191 571 222 582 257 C 593 291 599 327 599 365 C 599 454 573 524 523 576 C 472 628 402 654 314 654 L 191 654 L 191 393 L 374 393 L 374 321 L 191 321 L 191 76 Z" unicode="Đ" />
<glyph horiz-adv-x="664" d="M 491 129 C 487 115 479 99 468 83 C 456 66 442 51 425 37 C 407 23 387 12 365 3 C 343 -6 319 -11 293 -11 C 257 -11 223 -4 193 8 C 162 21 136 40 114 64 C 92 88 74 118 62 153 C 49 188 43 228 43 272 C 43 312 49 349 63 383 C 77 417 95 447 119 472 C 142 496 169 516 201 530 C 232 544 265 552 301 552 C 343 552 381 539 416 515 C 451 491 474 462 486 430 L 486 623 L 302 623 L 302 703 L 486 703 L 486 800 L 576 800 L 576 703 L 656 703 L 656 623 L 576 623 L 576 0 L 491 0 L 491 129 Z M 311 68 C 337 68 361 73 383 83 C 405 93 423 108 439 126 C 454 144 466 166 474 192 C 482 217 486 244 486 274 C 486 306 481 335 472 360 C 462 385 450 406 434 423 C 418 439 400 452 380 460 C 359 468 337 473 315 473 C 261 473 219 454 187 417 C 155 379 140 331 140 271 C 140 242 143 215 151 190 C 159 165 170 144 185 126 C 199 108 217 93 239 83 C 260 73 284 68 311 68 Z" unicode="đ" />
<glyph horiz-adv-x="588" d="M 95 0 L 95 0 Z M 532 0 L 95 0 L 95 730 L 513 730 L 513 643 L 194 643 L 194 407 L 497 407 L 497 322 L 194 322 L 194 87 L 532 87 L 532 0 Z M 312 792 L 312 792 Z M 443 792 L 181 792 L 181 872 L 443 872 L 443 792 Z" unicode="Ē" />
<glyph horiz-adv-x="631" d="M 43 0 L 43 0 Z M 326 -11 C 285 -11 247 -4 213 8 C 178 20 148 39 123 63 C 98 87 78 116 64 151 C 50 186 43 226 43 270 C 43 309 50 346 64 380 C 78 414 97 444 122 470 C 146 495 176 515 210 530 C 244 544 280 552 320 552 C 400 552 464 524 514 469 C 563 413 588 337 588 239 L 137 239 C 138 216 143 195 152 175 C 161 155 173 137 189 122 C 205 107 224 95 246 86 C 268 77 294 73 322 73 C 368 73 404 80 432 96 C 460 111 483 129 502 151 L 560 86 C 534 58 504 34 468 16 C 432 -1 384 -11 326 -11 Z M 136 310 L 491 310 C 490 356 473 395 441 426 C 408 456 367 472 317 472 C 291 472 268 467 247 458 C 225 449 207 437 191 423 C 175 408 163 391 153 371 C 143 351 138 331 136 310 Z M 318 602 L 318 602 Z M 449 602 L 187 602 L 187 682 L 449 682 L 449 602 Z" unicode="ē" />
<glyph horiz-adv-x="588" d="M 95 0 L 95 0 Z M 532 0 L 95 0 L 95 730 L 513 730 L 513 643 L 194 643 L 194 407 L 497 407 L 497 322 L 194 322 L 194 87 L 532 87 L 532 0 Z M 312 785 L 312 785 Z M 393 942 L 470 942 C 466 887 449 847 420 822 C 390 797 354 785 312 785 C 269 785 233 797 204 822 C 174 847 158 887 154 942 L 231 942 C 233 914 241 891 253 874 C 265 856 285 848 312 848 C 338 848 358 856 371 873 C 383 889 391 912 393 942 Z" unicode="Ĕ" />
<glyph horiz-adv-x="631" d="M 43 0 L 43 0 Z M 326 -11 C 285 -11 247 -4 213 8 C 178 20 148 39 123 63 C 98 87 78 116 64 151 C 50 186 43 226 43 270 C 43 309 50 346 64 380 C 78 414 97 444 122 470 C 146 495 176 515 210 530 C 244 544 280 552 320 552 C 400 552 464 524 514 469 C 563 413 588 337 588 239 L 137 239 C 138 216 143 195 152 175 C 161 155 173 137 189 122 C 205 107 224 95 246 86 C 268 77 294 73 322 73 C 368 73 404 80 432 96 C 460 111 483 129 502 151 L 560 86 C 534 58 504 34 468 16 C 432 -1 384 -11 326 -11 Z M 136 310 L 491 310 C 490 356 473 395 441 426 C 408 456 367 472 317 472 C 291 472 268 467 247 458 C 225 449 207 437 191 423 C 175 408 163 391 153 371 C 143 351 138 331 136 310 Z M 318 595 L 318 595 Z M 399 752 L 476 752 C 472 697 455 657 426 632 C 396 607 360 595 318 595 C 275 595 239 607 210 632 C 180 657 164 697 160 752 L 237 752 C 239 724 247 701 259 684 C 271 666 291 658 318 658 C 344 658 364 666 377 683 C 389 699 397 722 399 752 Z" unicode="ĕ" />
<glyph horiz-adv-x="588" d="M 95 0 L 95 0 Z M 532 0 L 95 0 L 95 730 L 513 730 L 513 643 L 194 643 L 194 407 L 497 407 L 497 322 L 194 322 L 194 87 L 532 87 L 532 0 Z M 312 780 L 312 780 Z M 355 780 L 270 780 L 270 944 L 355 944 L 355 780 Z" unicode="Ė" />
<glyph horiz-adv-x="631" d="M 43 0 L 43 0 Z M 326 -11 C 285 -11 247 -4 213 8 C 178 20 148 39 123 63 C 98 87 78 116 64 151 C 50 186 43 226 43 270 C 43 309 50 346 64 380 C 78 414 97 444 122 470 C 146 495 176 515 210 530 C 244 544 280 552 320 552 C 400 552 464 524 514 469 C 563 413 588 337 588 239 L 137 239 C 138 216 143 195 152 175 C 161 155 173 137 189 122 C 205 107 224 95 246 86 C 268 77 294 73 322 73 C 368 73 404 80 432 96 C 460 111 483 129 502 151 L 560 86 C 534 58 504 34 468 16 C 432 -1 384 -11 326 -11 Z M 136 310 L 491 310 C 490 356 473 395 441 426 C 408 456 367 472 317 472 C 291 472 268 467 247 458 C 225 449 207 437 191 423 C 175 408 163 391 153 371 C 143 351 138 331 136 310 Z M 318 590 L 318 590 Z M 361 590 L 276 590 L 276 754 L 361 754 L 361 590 Z" unicode="ė" />
<glyph horiz-adv-x="588" d="M 95 0 L 95 0 Z M 532 0 L 95 0 L 95 730 L 513 730 L 513 643 L 194 643 L 194 407 L 497 407 L 497 322 L 194 322 L 194 87 L 532 87 L 532 0 Z M 495 -7 L 495 -7 Z M 604 -95 L 630 -133 C 610 -153 587 -169 562 -180 C 536 -191 508 -197 478 -197 C 444 -197 417 -189 397 -175 C 377 -160 367 -141 367 -119 C 367 -96 376 -74 394 -54 C 412 -33 436 -15 468 0 L 532 0 C 505 -12 484 -26 469 -40 C 453 -54 446 -69 446 -83 C 446 -97 451 -108 463 -116 C 475 -124 490 -129 508 -129 C 528 -129 547 -125 563 -119 C 579 -113 593 -105 604 -95 Z" unicode="Ę" />
<glyph horiz-adv-x="631" d="M 43 0 L 43 0 Z M 326 -11 C 285 -11 247 -4 213 8 C 178 20 148 39 123 63 C 98 87 78 116 64 151 C 50 186 43 226 43 270 C 43 309 50 346 64 380 C 78 414 97 444 122 470 C 146 495 176 515 210 530 C 244 544 280 552 320 552 C 400 552 464 524 514 469 C 563 413 588 337 588 239 L 137 239 C 138 216 143 195 152 175 C 161 155 173 137 189 122 C 205 107 224 95 246 86 C 268 77 294 73 322 73 C 368 73 404 80 432 96 C 460 111 483 129 502 151 L 560 86 C 534 58 504 34 468 16 C 432 -1 384 -11 326 -11 Z M 136 310 L 491 310 C 490 356 473 395 441 426 C 408 456 367 472 317 472 C 291 472 268 467 247 458 C 225 449 207 437 191 423 C 175 408 163 391 153 371 C 143 351 138 331 136 310 Z M 384 -7 L 384 -7 Z M 493 -95 L 519 -133 C 499 -153 476 -169 451 -180 C 425 -191 397 -197 367 -197 C 333 -197 306 -189 286 -175 C 266 -160 256 -141 256 -119 C 256 -96 265 -74 283 -54 C 301 -33 325 -15 357 0 L 421 0 C 394 -12 373 -26 358 -40 C 342 -54 335 -69 335 -83 C 335 -97 340 -108 352 -116 C 364 -124 379 -129 397 -129 C 417 -129 436 -125 452 -119 C 468 -113 482 -105 493 -95 Z" unicode="ę" />
<glyph horiz-adv-x="588" d="M 95 0 L 95 0 Z M 532 0 L 95 0 L 95 730 L 513 730 L 513 643 L 194 643 L 194 407 L 497 407 L 497 322 L 194 322 L 194 87 L 532 87 L 532 0 Z M 312 780 L 312 780 Z M 142 952 L 229 952 L 313 836 L 398 952 L 483 952 L 360 780 L 265 780 L 142 952 Z" unicode="Ě" />
<glyph horiz-adv-x="631" d="M 43 0 L 43 0 Z M 326 -11 C 285 -11 247 -4 213 8 C 178 20 148 39 123 63 C 98 87 78 116 64 151 C 50 186 43 226 43 270 C 43 309 50 346 64 380 C 78 414 97 444 122 470 C 146 495 176 515 210 530 C 244 544 280 552 320 552 C 400 552 464 524 514 469 C 563 413 588 337 588 239 L 137 239 C 138 216 143 195 152 175 C 161 155 173 137 189 122 C 205 107 224 95 246 86 C 268 77 294 73 322 73 C 368 73 404 80 432 96 C 460 111 483 129 502 151 L 560 86 C 534 58 504 34 468 16 C 432 -1 384 -11 326 -11 Z M 136 310 L 491 310 C 490 356 473 395 441 426 C 408 456 367 472 317 472 C 291 472 268 467 247 458 C 225 449 207 437 191 423 C 175 408 163 391 153 371 C 143 351 138 331 136 310 Z M 318 590 L 318 590 Z M 148 762 L 235 762 L 319 646 L 404 762 L 489 762 L 366 590 L 271 590 L 148 762 Z" unicode="ě" />
<glyph horiz-adv-x="795" d="M 47 0 L 47 0 Z M 425 366 L 742 366 L 742 154 C 712 103 669 63 611 33 C 553 3 489 -12 419 -12 C 367 -12 318 -3 273 15 C 227 33 188 58 155 91 C 121 123 95 163 76 210 C 56 256 47 308 47 365 C 47 422 56 474 76 521 C 96 567 123 607 157 640 C 191 672 230 697 276 715 C 321 733 369 742 420 742 C 490 742 547 730 592 708 C 637 686 672 662 696 636 L 632 562 C 610 584 582 605 550 623 C 517 641 473 650 417 650 C 379 650 344 643 311 631 C 278 619 249 601 225 577 C 201 553 182 523 168 488 C 154 453 147 413 147 369 C 147 324 154 283 168 246 C 182 209 202 178 227 152 C 252 126 281 106 315 92 C 348 78 384 71 422 71 C 472 71 518 81 560 101 C 602 121 632 149 651 187 L 651 280 L 425 280 L 425 366 Z M 421 780 L 421 780 Z M 592 780 L 505 780 L 421 895 L 336 780 L 251 780 L 374 952 L 469 952 L 592 780 Z" unicode="Ĝ" />
<glyph horiz-adv-x="658" d="M 44 0 L 44 0 Z M 292 5 C 256 5 222 11 192 25 C 161 38 135 56 113 80 C 91 103 74 131 62 165 C 50 198 44 234 44 274 C 44 314 50 352 62 386 C 74 420 92 449 114 473 C 136 497 162 516 193 530 C 224 543 258 550 295 550 C 342 550 383 538 419 514 C 454 490 478 460 491 423 L 491 540 L 576 540 L 576 77 C 576 29 567 -12 549 -48 C 531 -83 508 -112 480 -135 C 452 -157 421 -174 386 -185 C 351 -196 317 -202 283 -202 C 227 -202 183 -197 152 -187 C 121 -177 98 -167 84 -158 L 126 -80 C 138 -88 158 -97 184 -107 C 210 -117 240 -122 276 -122 C 304 -122 331 -117 357 -109 C 383 -101 405 -88 424 -72 C 443 -56 458 -35 469 -11 C 480 12 486 41 486 74 L 486 147 C 480 131 472 114 461 98 C 449 81 435 66 419 52 C 403 38 384 26 362 18 C 340 9 317 5 292 5 Z M 316 82 C 336 82 357 86 377 94 C 397 102 416 114 432 130 C 448 146 461 167 471 193 C 481 218 486 247 486 281 C 486 339 470 384 438 417 C 406 450 366 467 318 467 C 265 467 222 448 190 412 C 157 376 141 328 141 268 C 141 208 156 162 188 130 C 219 98 262 82 316 82 Z M 309 590 L 309 590 Z M 480 590 L 393 590 L 309 705 L 224 590 L 139 590 L 262 762 L 357 762 L 480 590 Z" unicode="ĝ" />
<glyph horiz-adv-x="795" d="M 47 0 L 47 0 Z M 425 366 L 742 366 L 742 154 C 712 103 669 63 611 33 C 553 3 489 -12 419 -12 C 367 -12 318 -3 273 15 C 227 33 188 58 155 91 C 121 123 95 163 76 210 C 56 256 47 308 47 365 C 47 422 56 474 76 521 C 96 567 123 607 157 640 C 191 672 230 697 276 715 C 321 733 369 742 420 742 C 490 742 547 730 592 708 C 637 686 672 662 696 636 L 632 562 C 610 584 582 605 550 623 C 517 641 473 650 417 650 C 379 650 344 643 311 631 C 278 619 249 601 225 577 C 201 553 182 523 168 488 C 154 453 147 413 147 369 C 147 324 154 283 168 246 C 182 209 202 178 227 152 C 252 126 281 106 315 92 C 348 78 384 71 422 71 C 472 71 518 81 560 101 C 602 121 632 149 651 187 L 651 280 L 425 280 L 425 366 Z M 421 785 L 421 785 Z M 502 942 L 579 942 C 575 887 558 847 529 822 C 499 797 463 785 421 785 C 378 785 342 797 313 822 C 283 847 267 887 263 942 L 340 942 C 342 914 350 891 362 874 C 374 856 394 848 421 848 C 447 848 467 856 480 873 C 492 889 500 912 502 942 Z" unicode="Ğ" />
<glyph horiz-adv-x="658" d="M 44 0 L 44 0 Z M 292 5 C 256 5 222 11 192 25 C 161 38 135 56 113 80 C 91 103 74 131 62 165 C 50 198 44 234 44 274 C 44 314 50 352 62 386 C 74 420 92 449 114 473 C 136 497 162 516 193 530 C 224 543 258 550 295 550 C 342 550 383 538 419 514 C 454 490 478 460 491 423 L 491 540 L 576 540 L 576 77 C 576 29 567 -12 549 -48 C 531 -83 508 -112 480 -135 C 452 -157 421 -174 386 -185 C 351 -196 317 -202 283 -202 C 227 -202 183 -197 152 -187 C 121 -177 98 -167 84 -158 L 126 -80 C 138 -88 158 -97 184 -107 C 210 -117 240 -122 276 -122 C 304 -122 331 -117 357 -109 C 383 -101 405 -88 424 -72 C 443 -56 458 -35 469 -11 C 480 12 486 41 486 74 L 486 147 C 480 131 472 114 461 98 C 449 81 435 66 419 52 C 403 38 384 26 362 18 C 340 9 317 5 292 5 Z M 316 82 C 336 82 357 86 377 94 C 397 102 416 114 432 130 C 448 146 461 167 471 193 C 481 218 486 247 486 281 C 486 339 470 384 438 417 C 406 450 366 467 318 467 C 265 467 222 448 190 412 C 157 376 141 328 141 268 C 141 208 156 162 188 130 C 219 98 262 82 316 82 Z M 309 595 L 309 595 Z M 390 752 L 467 752 C 463 697 446 657 417 632 C 387 607 351 595 309 595 C 266 595 230 607 201 632 C 171 657 155 697 151 752 L 228 752 C 230 724 238 701 250 684 C 262 666 282 658 309 658 C 335 658 355 666 368 683 C 380 699 388 722 390 752 Z" unicode="ğ" />
<glyph horiz-adv-x="795" d="M 47 0 L 47 0 Z M 425 366 L 742 366 L 742 154 C 712 103 669 63 611 33 C 553 3 489 -12 419 -12 C 367 -12 318 -3 273 15 C 227 33 188 58 155 91 C 121 123 95 163 76 210 C 56 256 47 308 47 365 C 47 422 56 474 76 521 C 96 567 123 607 157 640 C 191 672 230 697 276 715 C 321 733 369 742 420 742 C 490 742 547 730 592 708 C 637 686 672 662 696 636 L 632 562 C 610 584 582 605 550 623 C 517 641 473 650 417 650 C 379 650 344 643 311 631 C 278 619 249 601 225 577 C 201 553 182 523 168 488 C 154 453 147 413 147 369 C 147 324 154 283 168 246 C 182 209 202 178 227 152 C 252 126 281 106 315 92 C 348 78 384 71 422 71 C 472 71 518 81 560 101 C 602 121 632 149 651 187 L 651 280 L 425 280 L 425 366 Z M 421 780 L 421 780 Z M 464 780 L 379 780 L 379 944 L 464 944 L 464 780 Z" unicode="Ġ" />
<glyph horiz-adv-x="658" d="M 44 0 L 44 0 Z M 292 5 C 256 5 222 11 192 25 C 161 38 135 56 113 80 C 91 103 74 131 62 165 C 50 198 44 234 44 274 C 44 314 50 352 62 386 C 74 420 92 449 114 473 C 136 497 162 516 193 530 C 224 543 258 550 295 550 C 342 550 383 538 419 514 C 454 490 478 460 491 423 L 491 540 L 576 540 L 576 77 C 576 29 567 -12 549 -48 C 531 -83 508 -112 480 -135 C 452 -157 421 -174 386 -185 C 351 -196 317 -202 283 -202 C 227 -202 183 -197 152 -187 C 121 -177 98 -167 84 -158 L 126 -80 C 138 -88 158 -97 184 -107 C 210 -117 240 -122 276 -122 C 304 -122 331 -117 357 -109 C 383 -101 405 -88 424 -72 C 443 -56 458 -35 469 -11 C 480 12 486 41 486 74 L 486 147 C 480 131 472 114 461 98 C 449 81 435 66 419 52 C 403 38 384 26 362 18 C 340 9 317 5 292 5 Z M 316 82 C 336 82 357 86 377 94 C 397 102 416 114 432 130 C 448 146 461 167 471 193 C 481 218 486 247 486 281 C 486 339 470 384 438 417 C 406 450 366 467 318 467 C 265 467 222 448 190 412 C 157 376 141 328 141 268 C 141 208 156 162 188 130 C 219 98 262 82 316 82 Z M 309 590 L 309 590 Z M 352 590 L 267 590 L 267 754 L 352 754 L 352 590 Z" unicode="ġ" />
<glyph horiz-adv-x="795" d="M 47 0 L 47 0 Z M 425 366 L 742 366 L 742 154 C 712 103 669 63 611 33 C 553 3 489 -12 419 -12 C 367 -12 318 -3 273 15 C 227 33 188 58 155 91 C 121 123 95 163 76 210 C 56 256 47 308 47 365 C 47 422 56 474 76 521 C 96 567 123 607 157 640 C 191 672 230 697 276 715 C 321 733 369 742 420 742 C 490 742 547 730 592 708 C 637 686 672 662 696 636 L 632 562 C 610 584 582 605 550 623 C 517 641 473 650 417 650 C 379 650 344 643 311 631 C 278 619 249 601 225 577 C 201 553 182 523 168 488 C 154 453 147 413 147 369 C 147 324 154 283 168 246 C 182 209 202 178 227 152 C 252 126 281 106 315 92 C 348 78 384 71 422 71 C 472 71 518 81 560 101 C 602 121 632 149 651 187 L 651 280 L 425 280 L 425 366 Z" unicode="Ģ" />
<glyph horiz-adv-x="658" d="M 44 0 L 44 0 Z M 292 5 C 256 5 222 11 192 25 C 161 38 135 56 113 80 C 91 103 74 131 62 165 C 50 198 44 234 44 274 C 44 314 50 352 62 386 C 74 420 92 449 114 473 C 136 497 162 516 193 530 C 224 543 258 550 295 550 C 342 550 383 538 419 514 C 454 490 478 460 491 423 L 491 540 L 576 540 L 576 77 C 576 29 567 -12 549 -48 C 531 -83 508 -112 480 -135 C 452 -157 421 -174 386 -185 C 351 -196 317 -202 283 -202 C 227 -202 183 -197 152 -187 C 121 -177 98 -167 84 -158 L 126 -80 C 138 -88 158 -97 184 -107 C 210 -117 240 -122 276 -122 C 304 -122 331 -117 357 -109 C 383 -101 405 -88 424 -72 C 443 -56 458 -35 469 -11 C 480 12 486 41 486 74 L 486 147 C 480 131 472 114 461 98 C 449 81 435 66 419 52 C 403 38 384 26 362 18 C 340 9 317 5 292 5 Z M 316 82 C 336 82 357 86 377 94 C 397 102 416 114 432 130 C 448 146 461 167 471 193 C 481 218 486 247 486 281 C 486 339 470 384 438 417 C 406 450 366 467 318 467 C 265 467 222 448 190 412 C 157 376 141 328 141 268 C 141 208 156 162 188 130 C 219 98 262 82 316 82 Z" unicode="ģ" />
<glyph horiz-adv-x="765" d="M 95 0 L 95 0 Z M 669 0 L 569 0 L 569 317 L 195 317 L 195 0 L 95 0 L 95 730 L 195 730 L 195 404 L 569 404 L 569 730 L 669 730 L 669 0 Z M 382 780 L 382 780 Z M 553 780 L 466 780 L 382 895 L 297 780 L 212 780 L 335 952 L 430 952 L 553 780 Z" unicode="Ĥ" />
<glyph horiz-adv-x="640" d="M 88 0 L 88 0 Z M 559 0 L 466 0 L 466 365 C 466 398 453 424 429 443 C 404 461 374 471 339 471 C 320 471 301 468 283 462 C 264 456 247 448 232 437 C 217 426 205 412 196 396 C 186 379 182 359 182 337 L 182 0 L 88 0 L 88 800 L 173 800 L 173 435 C 181 469 204 497 240 519 C 276 541 320 552 370 552 C 394 552 418 548 441 541 C 464 534 484 524 502 511 C 519 497 533 481 543 461 C 553 441 559 418 559 393 L 559 0 Z M 365 850 L 365 850 Z M 536 850 L 449 850 L 365 965 L 280 850 L 195 850 L 318 1022 L 413 1022 L 536 850 Z" unicode="ĥ" />
<glyph horiz-adv-x="765" d="M 195 317 L 195 0 L 95 0 L 95 542 L 10 542 L 10 622 L 95 622 L 95 730 L 195 730 L 195 622 L 569 622 L 569 730 L 669 730 L 669 622 L 757 622 L 757 542 L 669 542 L 669 0 L 569 0 L 569 317 L 195 317 Z M 195 404 L 569 404 L 569 542 L 195 542 L 195 404 Z" unicode="Ħ" />
<glyph horiz-adv-x="640" d="M 182 337 L 182 0 L 88 0 L 88 623 L 9 623 L 9 703 L 88 703 L 88 800 L 173 800 L 173 703 L 362 703 L 362 623 L 173 623 L 173 435 C 181 469 204 497 240 519 C 276 541 320 552 370 552 C 394 552 418 548 441 541 C 464 534 484 524 502 511 C 519 497 533 481 543 461 C 553 441 559 418 559 393 L 559 0 L 466 0 L 466 365 C 466 398 453 424 429 443 C 404 461 374 471 339 471 C 320 471 301 468 283 462 C 264 456 247 448 232 437 C 217 426 205 412 196 396 C 186 379 182 359 182 337 Z" unicode="ħ" />
<glyph horiz-adv-x="299" d="M 0 0 L 0 0 Z M 200 0 L 100 0 L 100 730 L 200 730 L 200 0 Z M 149 786 L 149 786 Z M 251 924 L 326 924 C 326 877 318 842 304 820 C 289 797 269 786 243 786 C 224 786 207 790 193 798 C 179 806 165 814 153 824 C 141 832 130 841 119 849 C 108 857 97 862 86 862 C 74 862 65 856 58 845 C 50 833 46 815 46 791 L -28 791 C -28 837 -18 871 1 894 C 20 916 41 928 64 928 C 82 928 97 923 111 915 C 124 907 137 898 150 888 C 160 879 171 871 181 864 C 191 857 201 854 212 854 C 222 854 231 860 239 872 C 246 884 250 901 251 924 Z" unicode="Ĩ" />
<glyph horiz-adv-x="274" d="M 0 0 L 0 0 Z M 184 0 L 90 0 L 90 540 L 184 540 L 184 0 Z M 137 596 L 137 596 Z M 239 734 L 314 734 C 314 687 306 652 292 630 C 277 607 257 596 231 596 C 212 596 195 600 181 608 C 167 616 153 624 141 634 C 129 642 118 651 107 659 C 96 667 85 672 74 672 C 62 672 53 666 46 655 C 38 643 34 625 34 601 L -40 601 C -40 647 -30 681 -11 704 C 8 726 29 738 52 738 C 70 738 85 733 99 725 C 112 717 125 708 138 698 C 148 689 159 681 169 674 C 179 667 189 664 200 664 C 210 664 219 670 227 682 C 234 694 238 711 239 734 Z" unicode="ĩ" />
<glyph horiz-adv-x="299" d="M 18 0 L 18 0 Z M 200 0 L 100 0 L 100 730 L 200 730 L 200 0 Z M 149 792 L 149 792 Z M 280 792 L 18 792 L 18 872 L 280 872 L 280 792 Z" unicode="Ī" />
<glyph horiz-adv-x="274" d="M 6 0 L 6 0 Z M 184 0 L 90 0 L 90 540 L 184 540 L 184 0 Z M 137 602 L 137 602 Z M 268 602 L 6 602 L 6 682 L 268 682 L 268 602 Z" unicode="ī" />
<glyph horiz-adv-x="299" d="M 0 0 L 0 0 Z M 200 0 L 100 0 L 100 730 L 200 730 L 200 0 Z M 149 785 L 149 785 Z M 230 942 L 307 942 C 303 887 286 847 257 822 C 227 797 191 785 149 785 C 106 785 70 797 41 822 C 11 847 -5 887 -9 942 L 68 942 C 70 914 78 891 90 874 C 102 856 122 848 149 848 C 175 848 195 856 208 873 C 220 889 228 912 230 942 Z" unicode="Ĭ" />
<glyph horiz-adv-x="274" d="M 0 0 L 0 0 Z M 184 0 L 90 0 L 90 540 L 184 540 L 184 0 Z M 137 595 L 137 595 Z M 218 752 L 295 752 C 291 697 274 657 245 632 C 215 607 179 595 137 595 C 94 595 58 607 29 632 C 0 657 -17 697 -21 752 L 56 752 C 58 724 66 701 78 684 C 90 666 110 658 137 658 C 163 658 183 666 196 683 C 208 699 216 722 218 752 Z" unicode="ĭ" />
<glyph horiz-adv-x="299" d="M 0 0 L 0 0 Z M 200 0 L 100 0 L 100 730 L 200 730 L 200 0 Z M 128 -7 L 128 -7 Z M 237 -95 L 263 -133 C 243 -153 220 -169 195 -180 C 169 -191 141 -197 111 -197 C 77 -197 50 -189 30 -175 C 10 -160 0 -141 0 -119 C 0 -96 9 -74 27 -54 C 45 -33 69 -15 101 0 L 165 0 C 138 -12 117 -26 102 -40 C 86 -54 79 -69 79 -83 C 79 -97 84 -108 96 -116 C 108 -124 123 -129 141 -129 C 161 -129 180 -125 196 -119 C 212 -113 226 -105 237 -95 Z" unicode="Į" />
<glyph horiz-adv-x="274" d="M 0 0 L 0 0 Z M 87 661 L 87 766 L 187 766 L 187 661 L 87 661 Z M 90 0 L 90 540 L 184 540 L 184 0 L 90 0 Z M 118 -7 L 118 -7 Z M 227 -95 L 253 -133 C 233 -153 210 -169 185 -180 C 159 -191 131 -197 101 -197 C 67 -197 40 -189 20 -175 C 0 -160 -10 -141 -10 -119 C -10 -96 -1 -74 17 -54 C 35 -33 59 -15 91 0 L 155 0 C 128 -12 107 -26 92 -40 C 76 -54 69 -69 69 -83 C 69 -97 74 -108 86 -116 C 98 -124 113 -129 131 -129 C 151 -129 170 -125 186 -119 C 202 -113 216 -105 227 -95 Z" unicode="į" />
<glyph horiz-adv-x="299" d="M 100 0 L 100 0 Z M 200 0 L 100 0 L 100 730 L 200 730 L 200 0 Z M 149 780 L 149 780 Z M 192 780 L 107 780 L 107 944 L 192 944 L 192 780 Z" unicode="İ" />
<glyph horiz-adv-x="274" d="M 184 0 L 90 0 L 90 540 L 184 540 L 184 0 Z" unicode="ı" />
<glyph horiz-adv-x="653" d="M 100 0 L 100 0 Z M 200 0 L 100 0 L 100 730 L 200 730 L 200 0 Z M 561 730 L 561 194 C 561 166 556 140 547 115 C 537 90 524 68 506 50 C 488 31 465 16 439 5 C 412 -6 382 -12 348 -12 C 330 -12 309 -10 286 -7 C 263 -3 245 2 233 10 L 270 88 C 276 84 286 81 298 79 C 310 77 322 76 335 76 C 375 76 406 87 428 111 C 450 134 461 162 461 195 L 461 730 L 561 730 Z" unicode="Ĳ" />
<glyph horiz-adv-x="519" d="M 87 0 L 87 0 Z M 87 661 L 87 766 L 187 766 L 187 661 L 87 661 Z M 90 0 L 90 540 L 184 540 L 184 0 L 90 0 Z M 440 661 L 342 661 L 342 766 L 440 766 L 440 661 Z M 438 540 L 438 -8 C 438 -40 433 -68 425 -92 C 416 -116 404 -137 390 -153 C 375 -169 358 -182 338 -190 C 318 -198 298 -202 277 -202 C 252 -202 228 -199 204 -194 C 180 -188 159 -181 143 -171 L 173 -96 C 184 -102 197 -108 213 -112 C 229 -116 247 -118 267 -118 C 287 -118 305 -107 321 -86 C 336 -64 344 -37 344 -3 L 344 540 L 438 540 Z" unicode="ĳ" />
<glyph horiz-adv-x="433" d="M 13 0 L 13 0 Z M 341 730 L 341 194 C 341 166 336 140 327 115 C 317 90 304 68 286 50 C 268 31 245 16 219 5 C 192 -6 162 -12 128 -12 C 110 -12 89 -10 66 -7 C 43 -3 25 2 13 10 L 50 88 C 56 84 66 81 78 79 C 90 77 102 76 115 76 C 155 76 186 87 208 111 C 230 134 241 162 241 195 L 241 730 L 341 730 Z M 289 780 L 289 780 Z M 460 780 L 373 780 L 289 895 L 204 780 L 119 780 L 242 952 L 337 952 L 460 780 Z" unicode="Ĵ" />
<glyph horiz-adv-x="318" d="M 0 0 L 0 0 Z M 237 540 L 237 -8 C 237 -40 232 -68 224 -92 C 215 -116 203 -137 189 -153 C 174 -169 157 -182 137 -190 C 117 -198 97 -202 76 -202 C 51 -202 27 -199 3 -194 C -21 -188 -41 -181 -58 -171 L -28 -96 C -16 -102 -3 -108 12 -112 C 28 -116 46 -118 66 -118 C 86 -118 104 -107 120 -86 C 135 -64 143 -37 143 -3 L 143 540 L 237 540 Z M 184 590 L 184 590 Z M 355 590 L 268 590 L 184 705 L 99 590 L 14 590 L 137 762 L 232 762 L 355 590 Z" unicode="ĵ" />
<glyph horiz-adv-x="675" d="M 95 0 L 95 0 Z M 659 0 L 537 0 L 301 339 L 195 208 L 195 0 L 95 0 L 95 730 L 195 730 L 195 324 L 510 730 L 621 730 L 371 412 L 659 0 Z M 330 -77 L 330 -77 Z M 426 -77 C 420 -136 405 -190 382 -240 C 358 -289 333 -326 305 -351 L 235 -319 C 242 -311 250 -298 260 -281 C 270 -264 279 -245 288 -223 C 296 -201 304 -177 312 -152 C 319 -126 324 -101 328 -77 L 426 -77 Z" unicode="Ķ" />
<glyph horiz-adv-x="580" d="M 88 0 L 88 0 Z M 601 3 L 493 -1 L 288 254 L 182 142 L 182 0 L 88 0 L 88 800 L 182 800 L 182 242 L 450 540 L 551 540 L 352 320 L 601 3 Z M 297 -77 L 297 -77 Z M 393 -77 C 387 -136 372 -190 349 -240 C 325 -289 300 -326 272 -351 L 202 -319 C 209 -311 217 -298 227 -281 C 237 -264 246 -245 255 -223 C 263 -201 271 -177 279 -152 C 286 -126 291 -101 295 -77 L 393 -77 Z" unicode="ķ" />
<glyph horiz-adv-x="580" d="M 601 3 L 493 -1 L 288 254 L 182 142 L 182 0 L 88 0 L 88 540 L 182 540 L 182 242 L 450 540 L 551 540 L 352 320 L 601 3 Z" unicode="ĸ" />
<glyph horiz-adv-x="534" d="M 95 0 L 95 0 Z M 522 0 L 95 0 L 95 730 L 195 730 L 195 87 L 522 87 L 522 0 Z M 350 788 L 350 788 Z M 243 788 L 348 951 L 458 951 L 336 788 L 243 788 Z" unicode="Ĺ" />
<glyph horiz-adv-x="310" d="M 81 0 L 81 0 Z M 81 125 L 81 800 L 175 800 L 175 154 C 175 130 181 112 194 98 C 206 84 224 78 247 78 C 255 78 265 78 275 79 C 285 80 292 82 297 84 L 299 2 C 292 0 281 -1 267 -3 C 253 -5 239 -6 227 -6 C 208 -6 190 -3 172 2 C 154 7 139 15 125 26 C 111 36 101 50 93 66 C 85 82 81 102 81 125 Z M 196 858 L 196 858 Z M 89 858 L 194 1021 L 304 1021 L 182 858 L 89 858 Z" unicode="ĺ" />
<glyph horiz-adv-x="534" d="M 95 0 L 95 0 Z M 522 0 L 95 0 L 95 730 L 195 730 L 195 87 L 522 87 L 522 0 Z M 286 -77 L 286 -77 Z M 382 -77 C 376 -136 361 -190 338 -240 C 314 -289 289 -326 261 -351 L 191 -319 C 198 -311 206 -298 216 -281 C 226 -264 235 -245 244 -223 C 252 -201 260 -177 268 -152 C 275 -126 280 -101 284 -77 L 382 -77 Z" unicode="Ļ" />
<glyph horiz-adv-x="310" d="M 47 0 L 47 0 Z M 81 125 L 81 800 L 175 800 L 175 154 C 175 130 181 112 194 98 C 206 84 224 78 247 78 C 255 78 265 78 275 79 C 285 80 292 82 297 84 L 299 2 C 292 0 281 -1 267 -3 C 253 -5 239 -6 227 -6 C 208 -6 190 -3 172 2 C 154 7 139 15 125 26 C 111 36 101 50 93 66 C 85 82 81 102 81 125 Z M 142 -77 L 142 -77 Z M 238 -77 C 232 -136 217 -190 194 -240 C 170 -289 145 -326 117 -351 L 47 -319 C 54 -311 62 -298 72 -281 C 82 -264 91 -245 100 -223 C 108 -201 116 -177 124 -152 C 131 -126 136 -101 140 -77 L 238 -77 Z" unicode="ļ" />
<glyph horiz-adv-x="534" d="M 95 0 L 95 0 Z M 522 0 L 95 0 L 95 730 L 195 730 L 195 87 L 522 87 L 522 0 Z M 554 602 L 550 453 L 472 453 L 467 602 L 467 730 L 554 730 L 554 602 Z" unicode="Ľ" />
<glyph horiz-adv-x="310" d="M 81 0 L 81 0 Z M 81 125 L 81 800 L 175 800 L 175 154 C 175 130 181 112 194 98 C 206 84 224 78 247 78 C 255 78 265 78 275 79 C 285 80 292 82 297 84 L 299 2 C 292 0 281 -1 267 -3 C 253 -5 239 -6 227 -6 C 208 -6 190 -3 172 2 C 154 7 139 15 125 26 C 111 36 101 50 93 66 C 85 82 81 102 81 125 Z M 329 602 L 325 453 L 247 453 L 242 602 L 242 730 L 329 730 L 329 602 Z" unicode="ľ" />
<glyph horiz-adv-x="534" d="M 95 0 L 95 0 Z M 522 0 L 95 0 L 95 730 L 195 730 L 195 87 L 522 87 L 522 0 Z M 357 282 L 357 282 Z M 400 282 L 315 282 L 315 446 L 400 446 L 400 282 Z" unicode="Ŀ" />
<glyph horiz-adv-x="310" d="M 81 0 L 81 0 Z M 81 125 L 81 800 L 175 800 L 175 154 C 175 130 181 112 194 98 C 206 84 224 78 247 78 C 255 78 265 78 275 79 C 285 80 292 82 297 84 L 299 2 C 292 0 281 -1 267 -3 C 253 -5 239 -6 227 -6 C 208 -6 190 -3 172 2 C 154 7 139 15 125 26 C 111 36 101 50 93 66 C 85 82 81 102 81 125 Z M 288 231 L 288 231 Z M 331 231 L 246 231 L 246 395 L 331 395 L 331 231 Z" unicode="ŀ" />
<glyph horiz-adv-x="534" d="M 492 82 L 492 0 L 95 0 L 95 270 L 36 246 L 2 315 L 95 353 L 95 730 L 195 730 L 195 394 L 381 470 L 413 401 L 195 311 L 195 82 L 492 82 Z" unicode="Ł" />
<glyph horiz-adv-x="310" d="M 299 2 C 292 0 281 -1 267 -3 C 253 -5 239 -6 227 -6 C 208 -6 190 -3 172 2 C 154 7 139 15 125 26 C 111 36 101 50 93 66 C 85 82 81 102 81 125 L 81 277 L 23 250 L 0 305 L 81 344 L 81 800 L 175 800 L 175 389 L 268 433 L 292 377 L 175 322 L 175 154 C 175 130 181 112 194 98 C 206 84 224 78 247 78 C 255 78 265 78 275 79 C 285 80 292 82 297 84 L 299 2 Z" unicode="ł" />
<glyph horiz-adv-x="791" d="M 95 0 L 95 0 Z M 695 0 L 624 0 L 189 557 L 189 0 L 95 0 L 95 730 L 172 730 L 604 178 L 604 730 L 695 730 L 695 0 Z M 395 788 L 395 788 Z M 288 788 L 393 951 L 503 951 L 381 788 L 288 788 Z" unicode="Ń" />
<glyph horiz-adv-x="640" d="M 88 0 L 88 0 Z M 559 0 L 466 0 L 466 370 C 466 402 453 427 428 445 C 402 462 373 471 341 471 C 323 471 305 468 286 463 C 267 457 250 449 235 438 C 219 426 207 412 197 395 C 187 378 182 358 182 336 L 182 0 L 88 0 L 88 540 L 169 540 L 169 423 C 181 461 206 492 243 516 C 279 540 322 552 371 552 C 395 552 419 548 442 541 C 464 533 484 523 502 510 C 519 497 533 481 543 462 C 553 443 559 422 559 399 L 559 0 Z M 339 598 L 339 598 Z M 232 598 L 337 761 L 447 761 L 325 598 L 232 598 Z" unicode="ń" />
<glyph horiz-adv-x="791" d="M 95 0 L 95 0 Z M 695 0 L 624 0 L 189 557 L 189 0 L 95 0 L 95 730 L 172 730 L 604 178 L 604 730 L 695 730 L 695 0 Z M 374 -77 L 374 -77 Z M 470 -77 C 464 -136 449 -190 426 -240 C 402 -289 377 -326 349 -351 L 279 -319 C 286 -311 294 -298 304 -281 C 314 -264 323 -245 332 -223 C 340 -201 348 -177 356 -152 C 363 -126 368 -101 372 -77 L 470 -77 Z" unicode="Ņ" />
<glyph horiz-adv-x="640" d="M 88 0 L 88 0 Z M 559 0 L 466 0 L 466 370 C 466 402 453 427 428 445 C 402 462 373 471 341 471 C 323 471 305 468 286 463 C 267 457 250 449 235 438 C 219 426 207 412 197 395 C 187 378 182 358 182 336 L 182 0 L 88 0 L 88 540 L 169 540 L 169 423 C 181 461 206 492 243 516 C 279 540 322 552 371 552 C 395 552 419 548 442 541 C 464 533 484 523 502 510 C 519 497 533 481 543 462 C 553 443 559 422 559 399 L 559 0 Z M 299 -77 L 299 -77 Z M 395 -77 C 389 -136 374 -190 351 -240 C 327 -289 302 -326 274 -351 L 204 -319 C 211 -311 219 -298 229 -281 C 239 -264 248 -245 257 -223 C 265 -201 273 -177 281 -152 C 288 -126 293 -101 297 -77 L 395 -77 Z" unicode="ņ" />
<glyph horiz-adv-x="791" d="M 95 0 L 95 0 Z M 695 0 L 624 0 L 189 557 L 189 0 L 95 0 L 95 730 L 172 730 L 604 178 L 604 730 L 695 730 L 695 0 Z M 395 780 L 395 780 Z M 225 952 L 312 952 L 396 836 L 481 952 L 566 952 L 443 780 L 348 780 L 225 952 Z" unicode="Ň" />
<glyph horiz-adv-x="640" d="M 88 0 L 88 0 Z M 559 0 L 466 0 L 466 370 C 466 402 453 427 428 445 C 402 462 373 471 341 471 C 323 471 305 468 286 463 C 267 457 250 449 235 438 C 219 426 207 412 197 395 C 187 378 182 358 182 336 L 182 0 L 88 0 L 88 540 L 169 540 L 169 423 C 181 461 206 492 243 516 C 279 540 322 552 371 552 C 395 552 419 548 442 541 C 464 533 484 523 502 510 C 519 497 533 481 543 462 C 553 443 559 422 559 399 L 559 0 Z M 339 590 L 339 590 Z M 169 762 L 256 762 L 340 646 L 425 762 L 510 762 L 387 590 L 292 590 L 169 762 Z" unicode="ň" />
<glyph horiz-adv-x="791" d="M 604 730 L 695 730 L 695 0 L 695 0 C 694 -64 677 -114 645 -149 C 613 -184 572 -202 523 -202 C 497 -202 472 -199 446 -194 C 420 -188 399 -180 382 -170 L 411 -94 C 423 -100 438 -106 455 -111 C 472 -115 492 -118 514 -118 C 540 -118 562 -106 579 -82 C 595 -58 604 -28 604 7 L 604 26 L 189 557 L 189 0 L 95 0 L 95 730 L 172 730 L 604 178 L 604 730 Z" unicode="Ŋ" />
<glyph horiz-adv-x="640" d="M 371 552 C 395 552 419 548 442 541 C 464 533 484 523 502 510 C 519 497 533 481 543 462 C 553 443 559 422 559 399 L 559 -8 C 559 -40 554 -68 546 -92 C 537 -116 525 -137 511 -153 C 496 -169 479 -182 459 -190 C 439 -198 419 -202 398 -202 C 374 -202 350 -199 326 -194 C 302 -188 281 -181 265 -171 L 294 -96 C 306 -102 319 -108 335 -112 C 351 -116 369 -118 389 -118 C 409 -118 427 -107 443 -86 C 458 -64 466 -37 466 -3 L 466 370 C 466 402 453 427 428 445 C 402 462 373 471 341 471 C 323 471 305 468 286 463 C 267 457 250 449 235 438 C 219 426 207 412 197 395 C 187 378 182 358 182 336 L 182 0 L 88 0 L 88 540 L 169 540 L 169 423 C 181 461 206 492 243 516 C 279 540 322 552 371 552 Z" unicode="ŋ" />
<glyph horiz-adv-x="843" d="M 47 0 L 47 0 Z M 424 -12 C 369 -12 318 -2 272 17 C 225 36 185 63 152 97 C 119 131 93 171 75 218 C 56 265 47 316 47 370 C 47 424 56 473 76 519 C 95 565 121 604 154 637 C 187 669 226 695 271 714 C 316 732 364 742 416 742 C 471 742 522 732 569 714 C 615 695 655 669 689 636 C 722 603 748 564 767 518 C 785 472 795 422 795 368 C 795 312 785 260 765 214 C 745 167 719 127 685 94 C 651 60 612 34 567 16 C 521 -2 474 -12 424 -12 Z M 431 74 C 468 74 503 80 535 94 C 567 107 595 126 619 151 C 643 175 661 206 675 242 C 689 278 696 318 696 364 C 696 406 688 444 674 480 C 659 515 639 545 614 571 C 588 596 558 616 523 630 C 488 644 450 652 410 652 C 372 652 337 645 305 632 C 273 619 245 600 222 576 C 198 552 180 522 167 488 C 153 453 147 414 147 372 C 147 326 154 285 169 248 C 184 211 204 180 230 154 C 256 128 286 109 321 95 C 355 81 392 74 431 74 Z M 415 792 L 415 792 Z M 546 792 L 284 792 L 284 872 L 546 872 L 546 792 Z" unicode="Ō" />
<glyph horiz-adv-x="651" d="M 43 0 L 43 0 Z M 321 -11 C 285 -11 250 -4 216 8 C 182 20 153 39 127 63 C 101 87 81 116 66 151 C 50 185 43 224 43 268 C 43 308 50 345 65 380 C 80 414 100 444 126 470 C 152 495 182 515 216 530 C 250 544 286 552 324 552 C 363 552 400 545 435 532 C 469 519 499 501 525 478 C 551 454 571 426 586 393 C 600 359 608 322 608 282 C 608 240 600 201 585 165 C 570 129 550 98 524 72 C 498 46 467 25 432 11 C 397 -3 360 -11 321 -11 Z M 327 72 C 354 72 379 77 402 88 C 424 98 444 113 460 131 C 476 149 488 170 497 196 C 506 221 511 248 511 277 C 511 303 506 328 497 352 C 488 375 475 395 459 413 C 442 430 422 443 398 453 C 374 463 348 468 320 468 C 267 468 224 448 191 410 C 157 372 141 324 141 267 C 141 237 145 209 155 185 C 165 161 178 140 195 124 C 211 107 231 94 254 85 C 276 76 301 72 327 72 Z M 323 602 L 323 602 Z M 454 602 L 192 602 L 192 682 L 454 682 L 454 602 Z" unicode="ō" />
<glyph horiz-adv-x="843" d="M 47 0 L 47 0 Z M 424 -12 C 369 -12 318 -2 272 17 C 225 36 185 63 152 97 C 119 131 93 171 75 218 C 56 265 47 316 47 370 C 47 424 56 473 76 519 C 95 565 121 604 154 637 C 187 669 226 695 271 714 C 316 732 364 742 416 742 C 471 742 522 732 569 714 C 615 695 655 669 689 636 C 722 603 748 564 767 518 C 785 472 795 422 795 368 C 795 312 785 260 765 214 C 745 167 719 127 685 94 C 651 60 612 34 567 16 C 521 -2 474 -12 424 -12 Z M 431 74 C 468 74 503 80 535 94 C 567 107 595 126 619 151 C 643 175 661 206 675 242 C 689 278 696 318 696 364 C 696 406 688 444 674 480 C 659 515 639 545 614 571 C 588 596 558 616 523 630 C 488 644 450 652 410 652 C 372 652 337 645 305 632 C 273 619 245 600 222 576 C 198 552 180 522 167 488 C 153 453 147 414 147 372 C 147 326 154 285 169 248 C 184 211 204 180 230 154 C 256 128 286 109 321 95 C 355 81 392 74 431 74 Z M 415 785 L 415 785 Z M 496 942 L 573 942 C 569 887 552 847 523 822 C 493 797 457 785 415 785 C 372 785 336 797 307 822 C 277 847 261 887 257 942 L 334 942 C 336 914 344 891 356 874 C 368 856 388 848 415 848 C 441 848 461 856 474 873 C 486 889 494 912 496 942 Z" unicode="Ŏ" />
<glyph horiz-adv-x="651" d="M 43 0 L 43 0 Z M 321 -11 C 285 -11 250 -4 216 8 C 182 20 153 39 127 63 C 101 87 81 116 66 151 C 50 185 43 224 43 268 C 43 308 50 345 65 380 C 80 414 100 444 126 470 C 152 495 182 515 216 530 C 250 544 286 552 324 552 C 363 552 400 545 435 532 C 469 519 499 501 525 478 C 551 454 571 426 586 393 C 600 359 608 322 608 282 C 608 240 600 201 585 165 C 570 129 550 98 524 72 C 498 46 467 25 432 11 C 397 -3 360 -11 321 -11 Z M 327 72 C 354 72 379 77 402 88 C 424 98 444 113 460 131 C 476 149 488 170 497 196 C 506 221 511 248 511 277 C 511 303 506 328 497 352 C 488 375 475 395 459 413 C 442 430 422 443 398 453 C 374 463 348 468 320 468 C 267 468 224 448 191 410 C 157 372 141 324 141 267 C 141 237 145 209 155 185 C 165 161 178 140 195 124 C 211 107 231 94 254 85 C 276 76 301 72 327 72 Z M 323 595 L 323 595 Z M 404 752 L 481 752 C 477 697 460 657 431 632 C 401 607 365 595 323 595 C 280 595 244 607 215 632 C 185 657 169 697 165 752 L 242 752 C 244 724 252 701 264 684 C 276 666 296 658 323 658 C 349 658 369 666 382 683 C 394 699 402 722 404 752 Z" unicode="ŏ" />
<glyph horiz-adv-x="843" d="M 47 0 L 47 0 Z M 424 -12 C 369 -12 318 -2 272 17 C 225 36 185 63 152 97 C 119 131 93 171 75 218 C 56 265 47 316 47 370 C 47 424 56 473 76 519 C 95 565 121 604 154 637 C 187 669 226 695 271 714 C 316 732 364 742 416 742 C 471 742 522 732 569 714 C 615 695 655 669 689 636 C 722 603 748 564 767 518 C 785 472 795 422 795 368 C 795 312 785 260 765 214 C 745 167 719 127 685 94 C 651 60 612 34 567 16 C 521 -2 474 -12 424 -12 Z M 431 74 C 468 74 503 80 535 94 C 567 107 595 126 619 151 C 643 175 661 206 675 242 C 689 278 696 318 696 364 C 696 406 688 444 674 480 C 659 515 639 545 614 571 C 588 596 558 616 523 630 C 488 644 450 652 410 652 C 372 652 337 645 305 632 C 273 619 245 600 222 576 C 198 552 180 522 167 488 C 153 453 147 414 147 372 C 147 326 154 285 169 248 C 184 211 204 180 230 154 C 256 128 286 109 321 95 C 355 81 392 74 431 74 Z M 415 779 L 415 779 Z M 225 779 L 320 930 L 419 930 L 308 779 L 225 779 Z M 412 779 L 507 930 L 606 930 L 494 779 L 412 779 Z" unicode="Ő" />
<glyph horiz-adv-x="651" d="M 43 0 L 43 0 Z M 321 -11 C 285 -11 250 -4 216 8 C 182 20 153 39 127 63 C 101 87 81 116 66 151 C 50 185 43 224 43 268 C 43 308 50 345 65 380 C 80 414 100 444 126 470 C 152 495 182 515 216 530 C 250 544 286 552 324 552 C 363 552 400 545 435 532 C 469 519 499 501 525 478 C 551 454 571 426 586 393 C 600 359 608 322 608 282 C 608 240 600 201 585 165 C 570 129 550 98 524 72 C 498 46 467 25 432 11 C 397 -3 360 -11 321 -11 Z M 327 72 C 354 72 379 77 402 88 C 424 98 444 113 460 131 C 476 149 488 170 497 196 C 506 221 511 248 511 277 C 511 303 506 328 497 352 C 488 375 475 395 459 413 C 442 430 422 443 398 453 C 374 463 348 468 320 468 C 267 468 224 448 191 410 C 157 372 141 324 141 267 C 141 237 145 209 155 185 C 165 161 178 140 195 124 C 211 107 231 94 254 85 C 276 76 301 72 327 72 Z M 323 589 L 323 589 Z M 133 589 L 228 740 L 327 740 L 216 589 L 133 589 Z M 320 589 L 415 740 L 514 740 L 402 589 L 320 589 Z" unicode="ő" />
<glyph horiz-adv-x="1183" d="M 411 -12 C 357 -12 307 -2 263 16 C 218 35 180 61 148 95 C 116 129 91 169 73 216 C 55 262 47 313 47 369 C 47 421 56 470 76 516 C 95 562 121 601 154 635 C 187 668 226 694 271 713 C 316 732 364 742 416 742 C 443 742 471 737 500 729 C 528 721 555 709 580 694 C 605 679 627 661 647 641 C 667 620 681 597 691 573 L 691 730 L 1105 730 L 1105 642 L 783 642 L 783 406 L 1091 406 L 1091 323 L 783 323 L 783 87 L 1125 87 L 1125 0 L 691 0 L 691 174 C 672 121 638 77 589 41 C 540 5 481 -12 411 -12 Z M 422 71 C 459 71 494 77 527 90 C 560 103 589 122 613 147 C 637 172 657 203 671 240 C 685 277 692 320 692 368 C 692 415 683 456 666 492 C 649 528 627 557 601 581 C 574 605 545 623 513 635 C 481 647 450 653 420 653 C 382 653 346 646 313 633 C 280 619 252 600 228 576 C 204 551 185 521 171 485 C 157 449 150 409 150 365 C 150 319 157 277 171 241 C 185 204 205 173 230 148 C 254 123 283 104 316 91 C 349 77 384 71 422 71 Z" unicode="Œ" />
<glyph horiz-adv-x="1096" d="M 321 -11 C 285 -11 250 -4 216 8 C 182 20 153 39 127 63 C 101 87 81 116 66 151 C 50 185 43 224 43 268 C 43 306 50 343 65 378 C 80 412 100 442 126 468 C 152 494 182 514 216 529 C 250 544 286 552 324 552 C 358 552 389 546 415 536 C 441 526 464 513 483 498 C 501 483 516 467 528 449 C 539 431 547 414 552 399 C 554 413 562 428 575 446 C 588 464 605 480 625 496 C 645 512 669 525 697 536 C 724 546 753 552 785 552 C 865 552 929 524 978 469 C 1027 414 1052 338 1053 242 L 603 242 C 603 192 620 152 656 120 C 692 88 736 73 789 73 C 833 73 869 80 897 96 C 925 112 948 130 967 151 L 1025 86 C 999 58 969 34 933 16 C 897 -1 849 -11 791 -11 C 761 -11 732 -6 705 3 C 677 12 653 24 631 39 C 609 53 591 69 577 87 C 563 105 554 122 550 139 C 546 123 538 107 526 89 C 513 71 497 55 477 41 C 457 26 434 14 408 4 C 381 -6 352 -11 321 -11 Z M 604 310 L 956 310 C 954 358 937 397 905 427 C 873 457 832 472 782 472 C 756 472 733 467 712 459 C 691 450 673 438 658 424 C 642 409 630 392 621 372 C 611 352 606 331 604 310 Z M 327 72 C 381 72 425 91 459 129 C 493 167 511 217 511 277 C 511 303 506 328 497 352 C 488 375 475 395 459 413 C 442 430 422 443 398 453 C 374 463 348 468 320 468 C 267 468 224 449 191 411 C 157 373 141 325 141 267 C 141 237 145 209 155 185 C 165 161 178 140 195 124 C 211 107 231 94 254 85 C 276 76 301 72 327 72 Z" unicode="œ" />
<glyph horiz-adv-x="617" d="M 95 0 L 95 0 Z M 95 0 L 95 730 L 319 730 C 349 730 378 725 404 716 C 430 707 453 694 473 678 C 492 661 507 640 518 616 C 528 592 534 565 534 535 C 534 504 529 477 520 453 C 510 429 498 408 483 391 C 467 374 450 361 430 351 C 410 341 389 334 368 332 L 366 328 L 590 0 L 472 0 L 270 307 L 195 307 L 195 0 L 95 0 Z M 193 388 L 293 388 C 332 388 365 399 392 422 C 419 445 433 479 433 523 C 433 562 420 593 396 616 C 372 638 340 650 301 650 L 193 650 L 193 388 Z M 306 788 L 306 788 Z M 199 788 L 304 951 L 414 951 L 292 788 L 199 788 Z" unicode="Ŕ" />
<glyph horiz-adv-x="473" d="M 88 0 L 88 0 Z M 477 523 L 428 437 C 419 445 406 453 390 459 C 374 465 355 469 333 469 C 314 469 295 465 277 457 C 259 449 243 439 229 425 C 215 411 203 395 195 377 C 186 358 182 338 182 316 L 182 0 L 88 0 L 88 540 L 172 540 L 172 412 C 176 430 183 447 195 464 C 207 481 221 496 238 509 C 255 521 275 532 297 540 C 319 548 343 552 369 552 C 393 552 415 549 434 544 C 452 538 467 531 477 523 Z M 289 598 L 289 598 Z M 182 598 L 287 761 L 397 761 L 275 598 L 182 598 Z" unicode="ŕ" />
<glyph horiz-adv-x="617" d="M 95 0 L 95 0 Z M 95 0 L 95 730 L 319 730 C 349 730 378 725 404 716 C 430 707 453 694 473 678 C 492 661 507 640 518 616 C 528 592 534 565 534 535 C 534 504 529 477 520 453 C 510 429 498 408 483 391 C 467 374 450 361 430 351 C 410 341 389 334 368 332 L 366 328 L 590 0 L 472 0 L 270 307 L 195 307 L 195 0 L 95 0 Z M 193 388 L 293 388 C 332 388 365 399 392 422 C 419 445 433 479 433 523 C 433 562 420 593 396 616 C 372 638 340 650 301 650 L 193 650 L 193 388 Z M 291 -77 L 291 -77 Z M 387 -77 C 381 -136 366 -190 343 -240 C 319 -289 294 -326 266 -351 L 196 -319 C 203 -311 211 -298 221 -281 C 231 -264 240 -245 249 -223 C 257 -201 265 -177 273 -152 C 280 -126 285 -101 289 -77 L 387 -77 Z" unicode="Ŗ" />
<glyph horiz-adv-x="473" d="M 88 0 L 88 0 Z M 477 523 L 428 437 C 419 445 406 453 390 459 C 374 465 355 469 333 469 C 314 469 295 465 277 457 C 259 449 243 439 229 425 C 215 411 203 395 195 377 C 186 358 182 338 182 316 L 182 0 L 88 0 L 88 540 L 172 540 L 172 412 C 176 430 183 447 195 464 C 207 481 221 496 238 509 C 255 521 275 532 297 540 C 319 548 343 552 369 552 C 393 552 415 549 434 544 C 452 538 467 531 477 523 Z M 262 -77 L 262 -77 Z M 358 -77 C 352 -136 337 -190 314 -240 C 290 -289 265 -326 237 -351 L 167 -319 C 174 -311 182 -298 192 -281 C 202 -264 211 -245 220 -223 C 228 -201 236 -177 244 -152 C 251 -126 256 -101 260 -77 L 358 -77 Z" unicode="ŗ" />
<glyph horiz-adv-x="617" d="M 95 0 L 95 0 Z M 95 0 L 95 730 L 319 730 C 349 730 378 725 404 716 C 430 707 453 694 473 678 C 492 661 507 640 518 616 C 528 592 534 565 534 535 C 534 504 529 477 520 453 C 510 429 498 408 483 391 C 467 374 450 361 430 351 C 410 341 389 334 368 332 L 366 328 L 590 0 L 472 0 L 270 307 L 195 307 L 195 0 L 95 0 Z M 193 388 L 293 388 C 332 388 365 399 392 422 C 419 445 433 479 433 523 C 433 562 420 593 396 616 C 372 638 340 650 301 650 L 193 650 L 193 388 Z M 306 780 L 306 780 Z M 136 952 L 223 952 L 307 836 L 392 952 L 477 952 L 354 780 L 259 780 L 136 952 Z" unicode="Ř" />
<glyph horiz-adv-x="473" d="M 88 0 L 88 0 Z M 477 523 L 428 437 C 419 445 406 453 390 459 C 374 465 355 469 333 469 C 314 469 295 465 277 457 C 259 449 243 439 229 425 C 215 411 203 395 195 377 C 186 358 182 338 182 316 L 182 0 L 88 0 L 88 540 L 172 540 L 172 412 C 176 430 183 447 195 464 C 207 481 221 496 238 509 C 255 521 275 532 297 540 C 319 548 343 552 369 552 C 393 552 415 549 434 544 C 452 538 467 531 477 523 Z M 289 590 L 289 590 Z M 119 762 L 206 762 L 290 646 L 375 762 L 460 762 L 337 590 L 242 590 L 119 762 Z" unicode="ř" />
<glyph horiz-adv-x="602" d="M 44 0 L 44 0 Z M 306 -12 C 245 -12 193 -3 150 13 C 106 29 71 51 44 78 L 109 156 C 129 131 158 111 194 95 C 230 79 268 71 308 71 C 345 71 377 80 404 100 C 431 120 445 145 445 176 C 445 206 433 233 410 255 C 387 277 346 301 287 326 C 245 342 209 358 181 373 C 153 388 130 404 113 422 C 96 439 84 458 77 480 C 69 502 66 527 66 557 C 66 613 87 657 129 691 C 171 725 225 742 293 742 C 345 742 389 733 425 717 C 461 700 491 681 516 661 L 460 580 C 434 600 407 617 377 630 C 347 643 317 650 285 650 C 249 650 219 641 197 625 C 175 608 164 585 164 557 C 164 524 177 497 204 477 C 230 457 275 434 337 408 C 414 376 468 345 498 313 C 528 281 544 238 544 185 C 544 154 537 126 525 102 C 512 78 495 57 473 40 C 451 23 426 10 397 1 C 368 -7 338 -12 306 -12 Z M 293 788 L 293 788 Z M 186 788 L 291 951 L 401 951 L 279 788 L 186 788 Z" unicode="Ś" />
<glyph horiz-adv-x="505" d="M 41 0 L 41 0 Z M 273 -11 C 222 -11 177 -4 139 8 C 100 21 67 38 41 59 L 83 122 C 106 106 134 92 168 81 C 202 69 235 64 268 64 C 296 64 321 71 341 87 C 361 103 372 122 372 145 C 372 164 362 182 343 198 C 323 214 286 229 232 245 C 168 263 124 286 100 314 C 76 342 64 374 64 410 C 64 431 69 450 79 468 C 89 486 102 501 119 513 C 136 525 156 535 180 542 C 204 548 229 552 256 552 C 308 552 350 545 382 532 C 414 519 438 507 455 495 L 420 424 C 397 438 373 450 348 461 C 322 471 294 477 263 477 C 235 477 211 470 190 458 C 169 446 159 429 159 409 C 159 399 160 390 163 382 C 166 374 172 366 182 359 C 191 351 204 344 221 337 C 238 330 261 322 290 314 C 353 295 398 273 426 247 C 454 221 468 188 468 148 C 468 124 462 102 452 82 C 442 62 428 46 411 32 C 393 18 373 8 349 0 C 325 -7 299 -11 273 -11 Z M 259 598 L 259 598 Z M 152 598 L 257 761 L 367 761 L 245 598 L 152 598 Z" unicode="ś" />
<glyph horiz-adv-x="602" d="M 44 0 L 44 0 Z M 306 -12 C 245 -12 193 -3 150 13 C 106 29 71 51 44 78 L 109 156 C 129 131 158 111 194 95 C 230 79 268 71 308 71 C 345 71 377 80 404 100 C 431 120 445 145 445 176 C 445 206 433 233 410 255 C 387 277 346 301 287 326 C 245 342 209 358 181 373 C 153 388 130 404 113 422 C 96 439 84 458 77 480 C 69 502 66 527 66 557 C 66 613 87 657 129 691 C 171 725 225 742 293 742 C 345 742 389 733 425 717 C 461 700 491 681 516 661 L 460 580 C 434 600 407 617 377 630 C 347 643 317 650 285 650 C 249 650 219 641 197 625 C 175 608 164 585 164 557 C 164 524 177 497 204 477 C 230 457 275 434 337 408 C 414 376 468 345 498 313 C 528 281 544 238 544 185 C 544 154 537 126 525 102 C 512 78 495 57 473 40 C 451 23 426 10 397 1 C 368 -7 338 -12 306 -12 Z M 293 780 L 293 780 Z M 464 780 L 377 780 L 293 895 L 208 780 L 123 780 L 246 952 L 341 952 L 464 780 Z" unicode="Ŝ" />
<glyph horiz-adv-x="505" d="M 41 0 L 41 0 Z M 273 -11 C 222 -11 177 -4 139 8 C 100 21 67 38 41 59 L 83 122 C 106 106 134 92 168 81 C 202 69 235 64 268 64 C 296 64 321 71 341 87 C 361 103 372 122 372 145 C 372 164 362 182 343 198 C 323 214 286 229 232 245 C 168 263 124 286 100 314 C 76 342 64 374 64 410 C 64 431 69 450 79 468 C 89 486 102 501 119 513 C 136 525 156 535 180 542 C 204 548 229 552 256 552 C 308 552 350 545 382 532 C 414 519 438 507 455 495 L 420 424 C 397 438 373 450 348 461 C 322 471 294 477 263 477 C 235 477 211 470 190 458 C 169 446 159 429 159 409 C 159 399 160 390 163 382 C 166 374 172 366 182 359 C 191 351 204 344 221 337 C 238 330 261 322 290 314 C 353 295 398 273 426 247 C 454 221 468 188 468 148 C 468 124 462 102 452 82 C 442 62 428 46 411 32 C 393 18 373 8 349 0 C 325 -7 299 -11 273 -11 Z M 259 590 L 259 590 Z M 430 590 L 343 590 L 259 705 L 174 590 L 89 590 L 212 762 L 307 762 L 430 590 Z" unicode="ŝ" />
<glyph horiz-adv-x="602" d="M 44 0 L 44 0 Z M 306 -12 C 245 -12 193 -3 150 13 C 106 29 71 51 44 78 L 109 156 C 129 131 158 111 194 95 C 230 79 268 71 308 71 C 345 71 377 80 404 100 C 431 120 445 145 445 176 C 445 206 433 233 410 255 C 387 277 346 301 287 326 C 245 342 209 358 181 373 C 153 388 130 404 113 422 C 96 439 84 458 77 480 C 69 502 66 527 66 557 C 66 613 87 657 129 691 C 171 725 225 742 293 742 C 345 742 389 733 425 717 C 461 700 491 681 516 661 L 460 580 C 434 600 407 617 377 630 C 347 643 317 650 285 650 C 249 650 219 641 197 625 C 175 608 164 585 164 557 C 164 524 177 497 204 477 C 230 457 275 434 337 408 C 414 376 468 345 498 313 C 528 281 544 238 544 185 C 544 154 537 126 525 102 C 512 78 495 57 473 40 C 451 23 426 10 397 1 C 368 -7 338 -12 306 -12 Z M 295 -9 L 295 -9 Z M 304 -197 C 279 -197 254 -194 229 -188 C 204 -182 185 -174 171 -165 L 185 -124 C 195 -129 207 -134 223 -139 C 238 -144 255 -147 274 -147 C 288 -147 301 -143 313 -137 C 324 -130 330 -121 330 -111 C 330 -98 325 -89 315 -84 C 305 -79 294 -77 283 -77 C 275 -77 268 -77 262 -78 C 256 -79 249 -81 243 -84 L 231 -70 L 291 4 L 347 4 L 297 -59 C 331 -51 360 -54 384 -67 C 407 -79 419 -98 419 -123 C 419 -147 407 -166 384 -178 C 361 -190 334 -197 304 -197 Z" unicode="Ş" />
<glyph horiz-adv-x="505" d="M 41 0 L 41 0 Z M 273 -11 C 222 -11 177 -4 139 8 C 100 21 67 38 41 59 L 83 122 C 106 106 134 92 168 81 C 202 69 235 64 268 64 C 296 64 321 71 341 87 C 361 103 372 122 372 145 C 372 164 362 182 343 198 C 323 214 286 229 232 245 C 168 263 124 286 100 314 C 76 342 64 374 64 410 C 64 431 69 450 79 468 C 89 486 102 501 119 513 C 136 525 156 535 180 542 C 204 548 229 552 256 552 C 308 552 350 545 382 532 C 414 519 438 507 455 495 L 420 424 C 397 438 373 450 348 461 C 322 471 294 477 263 477 C 235 477 211 470 190 458 C 169 446 159 429 159 409 C 159 399 160 390 163 382 C 166 374 172 366 182 359 C 191 351 204 344 221 337 C 238 330 261 322 290 314 C 353 295 398 273 426 247 C 454 221 468 188 468 148 C 468 124 462 102 452 82 C 442 62 428 46 411 32 C 393 18 373 8 349 0 C 325 -7 299 -11 273 -11 Z M 249 -2 L 249 -2 Z M 258 -190 C 233 -190 208 -187 183 -181 C 158 -175 139 -167 125 -158 L 139 -117 C 149 -122 161 -127 177 -132 C 192 -137 209 -140 228 -140 C 242 -140 255 -136 267 -130 C 278 -123 284 -114 284 -104 C 284 -91 279 -82 269 -77 C 259 -72 248 -70 237 -70 C 229 -70 222 -70 216 -71 C 210 -72 203 -74 197 -77 L 185 -63 L 245 11 L 301 11 L 251 -52 C 285 -44 314 -47 338 -60 C 361 -72 373 -91 373 -116 C 373 -140 361 -159 338 -171 C 315 -183 288 -190 258 -190 Z" unicode="ş" />
<glyph horiz-adv-x="602" d="M 44 0 L 44 0 Z M 306 -12 C 245 -12 193 -3 150 13 C 106 29 71 51 44 78 L 109 156 C 129 131 158 111 194 95 C 230 79 268 71 308 71 C 345 71 377 80 404 100 C 431 120 445 145 445 176 C 445 206 433 233 410 255 C 387 277 346 301 287 326 C 245 342 209 358 181 373 C 153 388 130 404 113 422 C 96 439 84 458 77 480 C 69 502 66 527 66 557 C 66 613 87 657 129 691 C 171 725 225 742 293 742 C 345 742 389 733 425 717 C 461 700 491 681 516 661 L 460 580 C 434 600 407 617 377 630 C 347 643 317 650 285 650 C 249 650 219 641 197 625 C 175 608 164 585 164 557 C 164 524 177 497 204 477 C 230 457 275 434 337 408 C 414 376 468 345 498 313 C 528 281 544 238 544 185 C 544 154 537 126 525 102 C 512 78 495 57 473 40 C 451 23 426 10 397 1 C 368 -7 338 -12 306 -12 Z M 293 780 L 293 780 Z M 123 952 L 210 952 L 294 836 L 379 952 L 464 952 L 341 780 L 246 780 L 123 952 Z" unicode="Š" />
<glyph horiz-adv-x="505" d="M 41 0 L 41 0 Z M 273 -11 C 222 -11 177 -4 139 8 C 100 21 67 38 41 59 L 83 122 C 106 106 134 92 168 81 C 202 69 235 64 268 64 C 296 64 321 71 341 87 C 361 103 372 122 372 145 C 372 164 362 182 343 198 C 323 214 286 229 232 245 C 168 263 124 286 100 314 C 76 342 64 374 64 410 C 64 431 69 450 79 468 C 89 486 102 501 119 513 C 136 525 156 535 180 542 C 204 548 229 552 256 552 C 308 552 350 545 382 532 C 414 519 438 507 455 495 L 420 424 C 397 438 373 450 348 461 C 322 471 294 477 263 477 C 235 477 211 470 190 458 C 169 446 159 429 159 409 C 159 399 160 390 163 382 C 166 374 172 366 182 359 C 191 351 204 344 221 337 C 238 330 261 322 290 314 C 353 295 398 273 426 247 C 454 221 468 188 468 148 C 468 124 462 102 452 82 C 442 62 428 46 411 32 C 393 18 373 8 349 0 C 325 -7 299 -11 273 -11 Z M 259 590 L 259 590 Z M 89 762 L 176 762 L 260 646 L 345 762 L 430 762 L 307 590 L 212 590 L 89 762 Z" unicode="š" />
<glyph horiz-adv-x="552" d="M 10 0 L 10 0 Z M 542 643 L 323 643 L 323 0 L 223 0 L 223 643 L 10 643 L 10 730 L 542 730 L 542 643 Z M 275 780 L 275 780 Z M 105 952 L 192 952 L 276 836 L 361 952 L 446 952 L 323 780 L 228 780 L 105 952 Z" unicode="Ť" />
<glyph horiz-adv-x="381" d="M 14 0 L 14 0 Z M 349 99 L 365 24 C 353 14 336 7 314 2 C 292 -3 271 -6 249 -6 C 207 -6 171 6 142 32 C 112 57 98 98 98 154 L 98 463 L 14 463 L 14 540 L 98 540 L 98 683 L 191 695 L 191 540 L 343 540 L 343 463 L 191 463 L 191 159 C 191 133 197 112 209 98 C 221 83 238 76 261 76 C 279 76 296 78 312 84 C 328 90 340 95 349 99 Z M 449 602 L 445 453 L 367 453 L 362 602 L 362 730 L 449 730 L 449 602 Z" unicode="ť" />
<glyph horiz-adv-x="552" d="M 465 439 L 323 439 L 323 0 L 223 0 L 223 439 L 85 439 L 85 519 L 223 519 L 223 643 L 10 643 L 10 730 L 542 730 L 542 643 L 323 643 L 323 519 L 465 519 L 465 439 Z" unicode="Ŧ" />
<glyph horiz-adv-x="381" d="M 365 24 C 353 14 336 7 314 2 C 292 -3 271 -6 249 -6 C 207 -6 171 6 142 32 C 112 57 98 98 98 154 L 98 297 L 20 297 L 20 377 L 98 377 L 98 463 L 14 463 L 14 540 L 98 540 L 98 683 L 191 695 L 191 540 L 343 540 L 343 463 L 191 463 L 191 377 L 317 377 L 317 297 L 191 297 L 191 159 C 191 133 197 112 209 98 C 221 83 238 76 261 76 C 279 76 296 78 312 84 C 328 90 340 95 349 99 L 365 24 Z" unicode="ŧ" />
<glyph horiz-adv-x="762" d="M 91 0 L 91 0 Z M 671 730 L 671 266 C 671 222 663 183 648 149 C 632 114 611 85 585 61 C 559 37 528 19 493 7 C 457 -5 420 -12 381 -12 C 341 -12 304 -6 269 6 C 233 18 202 35 176 59 C 150 83 129 112 114 147 C 98 181 91 221 91 266 L 91 730 L 189 730 L 189 267 C 189 238 194 212 204 188 C 214 164 228 145 245 129 C 262 113 282 100 305 91 C 328 82 352 78 378 78 C 404 78 428 82 452 90 C 476 98 496 111 514 127 C 532 143 546 162 557 186 C 567 210 573 237 573 267 L 573 730 L 671 730 Z M 381 786 L 381 786 Z M 483 924 L 558 924 C 558 877 550 842 536 820 C 521 797 501 786 475 786 C 456 786 439 790 425 798 C 411 806 397 814 385 824 C 373 832 362 841 351 849 C 340 857 329 862 318 862 C 306 862 297 856 290 845 C 282 833 278 815 278 791 L 204 791 C 204 837 213 871 233 894 C 252 916 273 928 296 928 C 314 928 329 923 343 915 C 356 907 369 898 382 888 C 392 879 403 871 413 864 C 423 857 433 854 444 854 C 454 854 463 860 471 872 C 478 884 482 901 483 924 Z" unicode="Ũ" />
<glyph horiz-adv-x="640" d="M 80 0 L 80 0 Z M 80 540 L 174 540 L 174 201 C 174 151 187 117 214 97 C 240 77 274 67 314 67 C 352 67 386 79 415 105 C 443 130 458 163 458 204 L 458 540 L 552 540 L 552 0 L 467 0 L 467 111 C 458 80 437 52 404 26 C 371 0 329 -12 277 -12 C 250 -12 225 -8 201 -1 C 177 5 156 16 138 31 C 120 45 106 64 96 86 C 85 108 80 134 80 164 L 80 540 Z M 316 596 L 316 596 Z M 418 734 L 493 734 C 493 687 485 652 471 630 C 456 607 436 596 410 596 C 391 596 374 600 360 608 C 346 616 332 624 320 634 C 308 642 297 651 286 659 C 275 667 264 672 253 672 C 241 672 232 666 225 655 C 217 643 213 625 213 601 L 139 601 C 139 647 148 681 168 704 C 187 726 208 738 231 738 C 249 738 264 733 278 725 C 291 717 304 708 317 698 C 327 689 338 681 348 674 C 358 667 368 664 379 664 C 389 664 398 670 406 682 C 413 694 417 711 418 734 Z" unicode="ũ" />
<glyph horiz-adv-x="762" d="M 91 0 L 91 0 Z M 671 730 L 671 266 C 671 222 663 183 648 149 C 632 114 611 85 585 61 C 559 37 528 19 493 7 C 457 -5 420 -12 381 -12 C 341 -12 304 -6 269 6 C 233 18 202 35 176 59 C 150 83 129 112 114 147 C 98 181 91 221 91 266 L 91 730 L 189 730 L 189 267 C 189 238 194 212 204 188 C 214 164 228 145 245 129 C 262 113 282 100 305 91 C 328 82 352 78 378 78 C 404 78 428 82 452 90 C 476 98 496 111 514 127 C 532 143 546 162 557 186 C 567 210 573 237 573 267 L 573 730 L 671 730 Z M 381 792 L 381 792 Z M 512 792 L 250 792 L 250 872 L 512 872 L 512 792 Z" unicode="Ū" />
<glyph horiz-adv-x="640" d="M 80 0 L 80 0 Z M 80 540 L 174 540 L 174 201 C 174 151 187 117 214 97 C 240 77 274 67 314 67 C 352 67 386 79 415 105 C 443 130 458 163 458 204 L 458 540 L 552 540 L 552 0 L 467 0 L 467 111 C 458 80 437 52 404 26 C 371 0 329 -12 277 -12 C 250 -12 225 -8 201 -1 C 177 5 156 16 138 31 C 120 45 106 64 96 86 C 85 108 80 134 80 164 L 80 540 Z M 316 602 L 316 602 Z M 447 602 L 185 602 L 185 682 L 447 682 L 447 602 Z" unicode="ū" />
<glyph horiz-adv-x="762" d="M 91 0 L 91 0 Z M 671 730 L 671 266 C 671 222 663 183 648 149 C 632 114 611 85 585 61 C 559 37 528 19 493 7 C 457 -5 420 -12 381 -12 C 341 -12 304 -6 269 6 C 233 18 202 35 176 59 C 150 83 129 112 114 147 C 98 181 91 221 91 266 L 91 730 L 189 730 L 189 267 C 189 238 194 212 204 188 C 214 164 228 145 245 129 C 262 113 282 100 305 91 C 328 82 352 78 378 78 C 404 78 428 82 452 90 C 476 98 496 111 514 127 C 532 143 546 162 557 186 C 567 210 573 237 573 267 L 573 730 L 671 730 Z M 381 785 L 381 785 Z M 462 942 L 539 942 C 535 887 518 847 489 822 C 459 797 423 785 381 785 C 338 785 302 797 273 822 C 243 847 227 887 223 942 L 300 942 C 302 914 310 891 322 874 C 334 856 354 848 381 848 C 407 848 427 856 440 873 C 452 889 460 912 462 942 Z" unicode="Ŭ" />
<glyph horiz-adv-x="640" d="M 80 0 L 80 0 Z M 80 540 L 174 540 L 174 201 C 174 151 187 117 214 97 C 240 77 274 67 314 67 C 352 67 386 79 415 105 C 443 130 458 163 458 204 L 458 540 L 552 540 L 552 0 L 467 0 L 467 111 C 458 80 437 52 404 26 C 371 0 329 -12 277 -12 C 250 -12 225 -8 201 -1 C 177 5 156 16 138 31 C 120 45 106 64 96 86 C 85 108 80 134 80 164 L 80 540 Z M 316 595 L 316 595 Z M 397 752 L 474 752 C 470 697 453 657 424 632 C 394 607 358 595 316 595 C 273 595 237 607 208 632 C 178 657 162 697 158 752 L 235 752 C 237 724 245 701 257 684 C 269 666 289 658 316 658 C 342 658 362 666 375 683 C 387 699 395 722 397 752 Z" unicode="ŭ" />
<glyph horiz-adv-x="762" d="M 91 0 L 91 0 Z M 671 730 L 671 266 C 671 222 663 183 648 149 C 632 114 611 85 585 61 C 559 37 528 19 493 7 C 457 -5 420 -12 381 -12 C 341 -12 304 -6 269 6 C 233 18 202 35 176 59 C 150 83 129 112 114 147 C 98 181 91 221 91 266 L 91 730 L 189 730 L 189 267 C 189 238 194 212 204 188 C 214 164 228 145 245 129 C 262 113 282 100 305 91 C 328 82 352 78 378 78 C 404 78 428 82 452 90 C 476 98 496 111 514 127 C 532 143 546 162 557 186 C 567 210 573 237 573 267 L 573 730 L 671 730 Z M 381 780 L 381 780 Z M 381 780 C 347 780 318 792 294 816 C 270 840 259 870 259 904 C 259 937 270 966 294 990 C 318 1014 347 1026 381 1026 C 415 1026 444 1014 468 990 C 492 966 504 937 504 904 C 504 870 492 840 468 816 C 444 792 415 780 381 780 Z M 381 840 C 398 840 413 846 425 858 C 437 870 443 886 443 904 C 443 920 437 935 425 948 C 413 960 398 967 381 967 C 364 967 349 960 337 948 C 325 935 319 920 319 904 C 319 886 325 870 337 858 C 349 846 364 840 381 840 Z" unicode="Ů" />
<glyph horiz-adv-x="640" d="M 80 0 L 80 0 Z M 80 540 L 174 540 L 174 201 C 174 151 187 117 214 97 C 240 77 274 67 314 67 C 352 67 386 79 415 105 C 443 130 458 163 458 204 L 458 540 L 552 540 L 552 0 L 467 0 L 467 111 C 458 80 437 52 404 26 C 371 0 329 -12 277 -12 C 250 -12 225 -8 201 -1 C 177 5 156 16 138 31 C 120 45 106 64 96 86 C 85 108 80 134 80 164 L 80 540 Z M 316 590 L 316 590 Z M 316 590 C 282 590 253 602 229 626 C 205 650 194 680 194 714 C 194 747 205 776 229 800 C 253 824 282 836 316 836 C 350 836 379 824 403 800 C 427 776 439 747 439 714 C 439 680 427 650 403 626 C 379 602 350 590 316 590 Z M 316 650 C 333 650 348 656 360 668 C 372 680 378 696 378 714 C 378 730 372 745 360 758 C 348 770 333 777 316 777 C 299 777 284 770 272 758 C 260 745 254 730 254 714 C 254 696 260 680 272 668 C 284 656 299 650 316 650 Z" unicode="ů" />
<glyph horiz-adv-x="762" d="M 91 0 L 91 0 Z M 671 730 L 671 266 C 671 222 663 183 648 149 C 632 114 611 85 585 61 C 559 37 528 19 493 7 C 457 -5 420 -12 381 -12 C 341 -12 304 -6 269 6 C 233 18 202 35 176 59 C 150 83 129 112 114 147 C 98 181 91 221 91 266 L 91 730 L 189 730 L 189 267 C 189 238 194 212 204 188 C 214 164 228 145 245 129 C 262 113 282 100 305 91 C 328 82 352 78 378 78 C 404 78 428 82 452 90 C 476 98 496 111 514 127 C 532 143 546 162 557 186 C 567 210 573 237 573 267 L 573 730 L 671 730 Z M 381 779 L 381 779 Z M 191 779 L 286 930 L 385 930 L 274 779 L 191 779 Z M 378 779 L 473 930 L 572 930 L 460 779 L 378 779 Z" unicode="Ű" />
<glyph horiz-adv-x="640" d="M 80 0 L 80 0 Z M 80 540 L 174 540 L 174 201 C 174 151 187 117 214 97 C 240 77 274 67 314 67 C 352 67 386 79 415 105 C 443 130 458 163 458 204 L 458 540 L 552 540 L 552 0 L 467 0 L 467 111 C 458 80 437 52 404 26 C 371 0 329 -12 277 -12 C 250 -12 225 -8 201 -1 C 177 5 156 16 138 31 C 120 45 106 64 96 86 C 85 108 80 134 80 164 L 80 540 Z M 316 589 L 316 589 Z M 126 589 L 221 740 L 320 740 L 209 589 L 126 589 Z M 313 589 L 408 740 L 507 740 L 395 589 L 313 589 Z" unicode="ű" />
<glyph horiz-adv-x="762" d="M 91 0 L 91 0 Z M 671 730 L 671 266 C 671 222 663 183 648 149 C 632 114 611 85 585 61 C 559 37 528 19 493 7 C 457 -5 420 -12 381 -12 C 341 -12 304 -6 269 6 C 233 18 202 35 176 59 C 150 83 129 112 114 147 C 98 181 91 221 91 266 L 91 730 L 189 730 L 189 267 C 189 238 194 212 204 188 C 214 164 228 145 245 129 C 262 113 282 100 305 91 C 328 82 352 78 378 78 C 404 78 428 82 452 90 C 476 98 496 111 514 127 C 532 143 546 162 557 186 C 567 210 573 237 573 267 L 573 730 L 671 730 Z M 429 -8 L 429 -8 Z M 538 -96 L 564 -134 C 544 -154 521 -170 496 -181 C 470 -192 442 -198 412 -198 C 378 -198 351 -190 331 -176 C 311 -161 301 -142 301 -120 C 301 -97 310 -75 328 -55 C 346 -34 370 -16 402 -1 L 466 -1 C 439 -13 418 -27 403 -41 C 387 -55 380 -70 380 -84 C 380 -98 385 -109 397 -117 C 409 -125 424 -130 442 -130 C 462 -130 481 -126 497 -120 C 513 -114 527 -106 538 -96 Z" unicode="Ų" />
<glyph horiz-adv-x="640" d="M 80 0 L 80 0 Z M 80 540 L 174 540 L 174 201 C 174 151 187 117 214 97 C 240 77 274 67 314 67 C 352 67 386 79 415 105 C 443 130 458 163 458 204 L 458 540 L 552 540 L 552 0 L 467 0 L 467 111 C 458 80 437 52 404 26 C 371 0 329 -12 277 -12 C 250 -12 225 -8 201 -1 C 177 5 156 16 138 31 C 120 45 106 64 96 86 C 85 108 80 134 80 164 L 80 540 Z M 495 -7 L 495 -7 Z M 604 -95 L 630 -133 C 610 -153 587 -169 562 -180 C 536 -191 508 -197 478 -197 C 444 -197 417 -189 397 -175 C 377 -160 367 -141 367 -119 C 367 -96 376 -74 394 -54 C 412 -33 436 -15 468 0 L 532 0 C 505 -12 484 -26 469 -40 C 453 -54 446 -69 446 -83 C 446 -97 451 -108 463 -116 C 475 -124 490 -129 508 -129 C 528 -129 547 -125 563 -119 C 579 -113 593 -105 604 -95 Z" unicode="ų" />
<glyph horiz-adv-x="937" d="M 12 0 L 12 0 Z M 925 730 L 702 -6 L 642 -6 L 471 550 L 290 -6 L 230 -6 L 12 730 L 115 730 L 271 191 L 443 730 L 503 730 L 676 187 L 832 730 L 925 730 Z M 468 780 L 468 780 Z M 639 780 L 552 780 L 468 895 L 383 780 L 298 780 L 421 952 L 516 952 L 639 780 Z" unicode="Ŵ" />
<glyph horiz-adv-x="773" d="M 4 0 L 4 0 Z M 524 -3 L 394 333 L 249 -3 L 193 -3 L 4 540 L 102 540 L 234 141 L 368 471 L 428 471 L 550 144 L 679 540 L 769 540 L 580 -3 L 524 -3 Z M 395 590 L 395 590 Z M 566 590 L 479 590 L 395 705 L 310 590 L 225 590 L 348 762 L 443 762 L 566 590 Z" unicode="ŵ" />
<glyph horiz-adv-x="664" d="M 1 0 L 1 0 Z M 664 730 L 380 309 L 380 0 L 280 0 L 280 313 L 1 730 L 113 730 L 335 401 L 558 730 L 664 730 Z M 335 780 L 335 780 Z M 506 780 L 419 780 L 335 895 L 250 780 L 165 780 L 288 952 L 383 952 L 506 780 Z" unicode="Ŷ" />
<glyph horiz-adv-x="550" d="M 0 0 L 0 0 Z M 554 540 L 266 -76 C 243 -124 215 -156 183 -174 C 150 -191 119 -200 89 -200 C 72 -200 58 -198 47 -194 C 35 -190 27 -188 22 -186 L 53 -103 C 56 -105 62 -107 70 -109 C 78 -111 86 -113 96 -113 C 113 -113 129 -107 144 -95 C 159 -83 174 -63 189 -35 L 224 35 L -4 540 L 97 540 L 274 139 L 456 540 L 554 540 Z M 275 590 L 275 590 Z M 446 590 L 359 590 L 275 705 L 190 590 L 105 590 L 228 762 L 323 762 L 446 590 Z" unicode="ŷ" />
<glyph horiz-adv-x="664" d="M 1 0 L 1 0 Z M 664 730 L 380 309 L 380 0 L 280 0 L 280 313 L 1 730 L 113 730 L 335 401 L 558 730 L 664 730 Z M 335 780 L 335 780 Z M 467 780 L 389 780 L 389 938 L 467 938 L 467 780 Z M 281 780 L 203 780 L 203 938 L 281 938 L 281 780 Z" unicode="Ÿ" />
<glyph horiz-adv-x="590" d="M 20 0 L 20 0 Z M 557 730 L 557 687 L 155 87 L 570 87 L 570 0 L 20 0 L 20 41 L 418 642 L 52 642 L 52 730 L 557 730 Z M 294 788 L 294 788 Z M 187 788 L 292 951 L 402 951 L 280 788 L 187 788 Z" unicode="Ź" />
<glyph horiz-adv-x="483" d="M 20 0 L 20 0 Z M 450 540 L 450 497 L 155 83 L 474 83 L 474 0 L 20 0 L 20 42 L 314 458 L 33 458 L 33 540 L 450 540 Z M 247 598 L 247 598 Z M 140 598 L 245 761 L 355 761 L 233 598 L 140 598 Z" unicode="ź" />
<glyph horiz-adv-x="590" d="M 20 0 L 20 0 Z M 557 730 L 557 687 L 155 87 L 570 87 L 570 0 L 20 0 L 20 41 L 418 642 L 52 642 L 52 730 L 557 730 Z M 294 780 L 294 780 Z M 337 780 L 252 780 L 252 944 L 337 944 L 337 780 Z" unicode="Ż" />
<glyph horiz-adv-x="483" d="M 20 0 L 20 0 Z M 450 540 L 450 497 L 155 83 L 474 83 L 474 0 L 20 0 L 20 42 L 314 458 L 33 458 L 33 540 L 450 540 Z M 247 590 L 247 590 Z M 290 590 L 205 590 L 205 754 L 290 754 L 290 590 Z" unicode="ż" />
<glyph horiz-adv-x="590" d="M 20 0 L 20 0 Z M 557 730 L 557 687 L 155 87 L 570 87 L 570 0 L 20 0 L 20 41 L 418 642 L 52 642 L 52 730 L 557 730 Z M 294 780 L 294 780 Z M 124 952 L 211 952 L 295 836 L 380 952 L 465 952 L 342 780 L 247 780 L 124 952 Z" unicode="Ž" />
<glyph horiz-adv-x="483" d="M 20 0 L 20 0 Z M 450 540 L 450 497 L 155 83 L 474 83 L 474 0 L 20 0 L 20 42 L 314 458 L 33 458 L 33 540 L 450 540 Z M 247 590 L 247 590 Z M 77 762 L 164 762 L 248 646 L 333 762 L 418 762 L 295 590 L 200 590 L 77 762 Z" unicode="ž" />
<glyph horiz-adv-x="378" d="M 184 -60 C 181 -92 168 -119 145 -143 C 121 -167 92 -179 58 -179 C 40 -179 22 -177 6 -175 C -9 -172 -22 -169 -30 -165 L -21 -98 C -16 -98 -9 -100 0 -102 C 9 -104 18 -105 27 -105 C 47 -105 64 -98 80 -84 C 95 -70 104 -51 107 -27 L 139 336 L 43 336 L 43 407 L 145 407 L 165 628 C 168 664 182 692 207 712 C 231 731 256 741 282 741 C 295 741 308 740 321 739 C 334 738 342 737 345 737 L 338 656 C 336 656 332 657 326 658 C 320 658 314 659 308 659 C 289 659 273 652 261 640 C 249 627 242 607 240 581 L 225 407 L 329 407 L 329 336 L 219 336 L 184 -60 Z" unicode="ƒ" />
<glyph horiz-adv-x="602" d="M 44 0 L 44 0 Z M 306 -12 C 245 -12 193 -3 150 13 C 106 29 71 51 44 78 L 109 156 C 129 131 158 111 194 95 C 230 79 268 71 308 71 C 345 71 377 80 404 100 C 431 120 445 145 445 176 C 445 206 433 233 410 255 C 387 277 346 301 287 326 C 245 342 209 358 181 373 C 153 388 130 404 113 422 C 96 439 84 458 77 480 C 69 502 66 527 66 557 C 66 613 87 657 129 691 C 171 725 225 742 293 742 C 345 742 389 733 425 717 C 461 700 491 681 516 661 L 460 580 C 434 600 407 617 377 630 C 347 643 317 650 285 650 C 249 650 219 641 197 625 C 175 608 164 585 164 557 C 164 524 177 497 204 477 C 230 457 275 434 337 408 C 414 376 468 345 498 313 C 528 281 544 238 544 185 C 544 154 537 126 525 102 C 512 78 495 57 473 40 C 451 23 426 10 397 1 C 368 -7 338 -12 306 -12 Z M 295 -86 L 295 -86 Z M 391 -86 C 385 -145 370 -199 347 -249 C 323 -298 298 -335 270 -360 L 200 -328 C 207 -320 215 -307 225 -290 C 235 -273 244 -254 253 -232 C 261 -210 269 -186 277 -161 C 284 -135 289 -110 293 -86 L 391 -86 Z" unicode="Ș" />
<glyph horiz-adv-x="505" d="M 41 0 L 41 0 Z M 273 -11 C 222 -11 177 -4 139 8 C 100 21 67 38 41 59 L 83 122 C 106 106 134 92 168 81 C 202 69 235 64 268 64 C 296 64 321 71 341 87 C 361 103 372 122 372 145 C 372 164 362 182 343 198 C 323 214 286 229 232 245 C 168 263 124 286 100 314 C 76 342 64 374 64 410 C 64 431 69 450 79 468 C 89 486 102 501 119 513 C 136 525 156 535 180 542 C 204 548 229 552 256 552 C 308 552 350 545 382 532 C 414 519 438 507 455 495 L 420 424 C 397 438 373 450 348 461 C 322 471 294 477 263 477 C 235 477 211 470 190 458 C 169 446 159 429 159 409 C 159 399 160 390 163 382 C 166 374 172 366 182 359 C 191 351 204 344 221 337 C 238 330 261 322 290 314 C 353 295 398 273 426 247 C 454 221 468 188 468 148 C 468 124 462 102 452 82 C 442 62 428 46 411 32 C 393 18 373 8 349 0 C 325 -7 299 -11 273 -11 Z M 249 -79 L 249 -79 Z M 345 -79 C 339 -138 324 -192 301 -242 C 277 -291 252 -328 224 -353 L 154 -321 C 161 -313 169 -300 179 -283 C 189 -266 198 -247 207 -225 C 215 -203 223 -179 231 -154 C 238 -128 243 -103 247 -79 L 345 -79 Z" unicode="ș" />
<glyph horiz-adv-x="552" d="M 10 0 L 10 0 Z M 542 643 L 323 643 L 323 0 L 223 0 L 223 643 L 10 643 L 10 730 L 542 730 L 542 643 Z M 237 -77 L 237 -77 Z M 333 -77 C 327 -136 312 -190 289 -240 C 265 -289 240 -326 212 -351 L 142 -319 C 149 -311 157 -298 167 -281 C 177 -264 186 -245 195 -223 C 203 -201 211 -177 219 -152 C 226 -126 231 -101 235 -77 L 333 -77 Z" unicode="Ț" />
<glyph horiz-adv-x="381" d="M 14 0 L 14 0 Z M 349 99 L 365 24 C 353 14 336 7 314 2 C 292 -3 271 -6 249 -6 C 207 -6 171 6 142 32 C 112 57 98 98 98 154 L 98 463 L 14 463 L 14 540 L 98 540 L 98 683 L 191 695 L 191 540 L 343 540 L 343 463 L 191 463 L 191 159 C 191 133 197 112 209 98 C 221 83 238 76 261 76 C 279 76 296 78 312 84 C 328 90 340 95 349 99 Z M 175 -77 L 175 -77 Z M 271 -77 C 265 -136 250 -190 227 -240 C 203 -289 178 -326 150 -351 L 80 -319 C 87 -311 95 -298 105 -281 C 115 -264 124 -245 133 -223 C 141 -201 149 -177 157 -152 C 164 -126 169 -101 173 -77 L 271 -77 Z" unicode="ț" />
<glyph horiz-adv-x="318" d="M 237 540 L 237 -8 C 237 -40 232 -68 224 -92 C 215 -116 203 -137 189 -153 C 174 -169 157 -182 137 -190 C 117 -198 97 -202 76 -202 C 51 -202 27 -199 3 -194 C -21 -188 -41 -181 -58 -171 L -28 -96 C -16 -102 -3 -108 12 -112 C 28 -116 46 -118 66 -118 C 86 -118 104 -107 120 -86 C 135 -64 143 -37 143 -3 L 143 540 L 237 540 Z" unicode="ȷ" />
<glyph horiz-adv-x="500" d="M 421 590 L 334 590 L 250 705 L 165 590 L 80 590 L 203 762 L 298 762 L 421 590 Z" unicode="ˆ" />
<glyph horiz-adv-x="500" d="M 80 762 L 167 762 L 251 646 L 336 762 L 421 762 L 298 590 L 203 590 L 80 762 Z" unicode="ˇ" />
<glyph horiz-adv-x="500" d="M 331 752 L 408 752 C 404 697 387 657 358 632 C 328 607 292 595 250 595 C 207 595 171 607 142 632 C 112 657 96 697 92 752 L 169 752 C 171 724 179 701 191 684 C 203 666 223 658 250 658 C 276 658 296 666 309 683 C 321 699 329 722 331 752 Z" unicode="˘" />
<glyph horiz-adv-x="500" d="M 293 590 L 208 590 L 208 754 L 293 754 L 293 590 Z" unicode="˙" />
<glyph horiz-adv-x="518" d="M 259 590 C 225 590 196 602 172 626 C 148 650 137 680 137 714 C 137 747 148 776 172 800 C 196 824 225 836 259 836 C 293 836 322 824 346 800 C 370 776 382 747 382 714 C 382 680 370 650 346 626 C 322 602 293 590 259 590 Z M 259 650 C 276 650 291 656 303 668 C 315 680 321 696 321 714 C 321 730 315 745 303 758 C 291 770 276 777 259 777 C 242 777 227 770 215 758 C 203 745 197 730 197 714 C 197 696 203 680 215 668 C 227 656 242 650 259 650 Z" unicode="˚" />
<glyph horiz-adv-x="500" d="M 362 -88 L 388 -126 C 368 -146 345 -162 320 -173 C 294 -184 266 -190 236 -190 C 202 -190 175 -182 155 -168 C 135 -153 125 -134 125 -112 C 125 -89 134 -67 152 -47 C 170 -26 194 -8 226 7 L 290 7 C 263 -5 242 -19 227 -33 C 211 -47 204 -62 204 -76 C 204 -90 209 -101 221 -109 C 233 -117 248 -122 266 -122 C 286 -122 305 -118 321 -112 C 337 -106 351 -98 362 -88 Z" unicode="˛" />
<glyph horiz-adv-x="500" d="M 355 734 L 430 734 C 430 687 422 652 408 630 C 393 607 373 596 347 596 C 328 596 311 600 297 608 C 283 616 269 624 257 634 C 245 642 234 651 223 659 C 212 667 201 672 190 672 C 178 672 169 666 162 655 C 154 643 150 625 150 601 L 76 601 C 76 647 85 681 105 704 C 124 726 145 738 168 738 C 186 738 201 733 215 725 C 228 717 241 708 254 698 C 264 689 275 681 285 674 C 295 667 305 664 316 664 C 326 664 335 670 343 682 C 350 694 354 711 355 734 Z" unicode="˜" />
<glyph horiz-adv-x="500" d="M 72 589 L 167 740 L 266 740 L 155 589 L 72 589 Z M 259 589 L 354 740 L 453 740 L 341 589 L 259 589 Z" unicode="˝" />
<glyph horiz-adv-x="0" d="M 0 589 L 0 589 Z M 108 589 L 14 589 L -108 752 L 1 752 L 108 589 Z" unicode="̀" />
<glyph horiz-adv-x="0" d="M 0 598 L 0 598 Z M -107 598 L -2 761 L 108 761 L -14 598 L -107 598 Z" unicode="́" />
<glyph horiz-adv-x="0" d="M 0 590 L 0 590 Z M 171 590 L 84 590 L 0 705 L -85 590 L -170 590 L -47 762 L 48 762 L 171 590 Z" unicode="̂" />
<glyph horiz-adv-x="0" d="M 0 596 L 0 596 Z M 102 734 L 177 734 C 177 687 169 652 155 630 C 140 607 120 596 94 596 C 75 596 58 600 44 608 C 30 616 16 624 4 634 C -7 642 -18 651 -29 659 C -40 667 -51 672 -63 672 C -74 672 -83 666 -91 655 C -98 643 -102 625 -103 601 L -177 601 C -177 647 -167 681 -148 704 C -128 726 -107 738 -85 738 C -67 738 -51 733 -38 725 C -24 717 -11 708 1 698 C 11 689 22 681 32 674 C 42 667 52 664 63 664 C 73 664 82 670 90 682 C 97 694 101 711 102 734 Z" unicode="̃" />
<glyph horiz-adv-x="0" d="M 0 602 L 0 602 Z M 131 602 L -131 602 L -131 682 L 131 682 L 131 602 Z" unicode="̄" />
<glyph horiz-adv-x="0" d="M 0 595 L 0 595 Z M 81 752 L 158 752 C 154 697 137 657 108 632 C 78 607 42 595 0 595 C -42 595 -78 607 -108 632 C -137 657 -154 697 -158 752 L -81 752 C -78 724 -70 701 -58 684 C -46 666 -26 658 0 658 C 26 658 46 666 59 683 C 71 699 79 722 81 752 Z" unicode="̆" />
<glyph horiz-adv-x="0" d="M 0 590 L 0 590 Z M 43 590 L -42 590 L -42 754 L 43 754 L 43 590 Z" unicode="̇" />
<glyph horiz-adv-x="0" d="M 0 590 L 0 590 Z M 132 590 L 54 590 L 54 748 L 132 748 L 132 590 Z M -54 590 L -132 590 L -132 748 L -54 748 L -54 590 Z" unicode="̈" />
<glyph horiz-adv-x="0" d="M 0 590 L 0 590 Z M 0 590 C -34 590 -62 602 -86 626 C -110 650 -122 680 -122 714 C -122 747 -110 776 -86 800 C -62 824 -34 836 0 836 C 34 836 63 824 87 800 C 111 776 123 747 123 714 C 123 680 111 650 87 626 C 63 602 34 590 0 590 Z M 0 650 C 17 650 32 656 44 668 C 56 680 62 696 62 714 C 62 730 56 745 44 758 C 32 770 17 777 0 777 C -16 777 -31 770 -43 758 C -55 745 -62 730 -62 714 C -62 696 -55 680 -43 668 C -31 656 -16 650 0 650 Z" unicode="̊" />
<glyph horiz-adv-x="0" d="M 0 589 L 0 589 Z M -190 589 L -95 740 L 4 740 L -107 589 L -190 589 Z M -3 589 L 92 740 L 191 740 L 79 589 L -3 589 Z" unicode="̋" />
<glyph horiz-adv-x="0" d="M 0 590 L 0 590 Z M -170 762 L -83 762 L 1 646 L 86 762 L 171 762 L 48 590 L -47 590 L -170 762 Z" unicode="̌" />
<glyph horiz-adv-x="0" d="M 0 -77 L 0 -77 Z M 96 -77 C 90 -136 75 -190 52 -240 C 28 -289 3 -326 -25 -351 L -95 -319 C -87 -311 -79 -298 -69 -281 C -59 -264 -50 -245 -42 -223 C -33 -201 -25 -177 -18 -152 C -10 -126 -5 -101 -2 -77 L 96 -77 Z" unicode="̦" />
<glyph horiz-adv-x="0" d="M 0 0 L 0 0 Z M 9 -188 C -15 -188 -40 -185 -65 -179 C -90 -173 -110 -165 -124 -156 L -110 -115 C -100 -120 -87 -125 -72 -130 C -56 -135 -39 -138 -21 -138 C -6 -138 6 -134 18 -128 C 29 -121 35 -112 35 -102 C 35 -89 30 -80 20 -75 C 10 -70 0 -68 -12 -68 C -20 -68 -27 -68 -33 -69 C -39 -70 -45 -72 -52 -75 L -64 -61 L -4 13 L 52 13 L 2 -50 C 36 -42 65 -45 89 -58 C 112 -70 124 -89 124 -114 C 124 -138 112 -157 89 -169 C 66 -181 39 -188 9 -188 Z" unicode="̧" />
<glyph horiz-adv-x="0" d="M 0 0 L 0 0 Z M 109 -88 L 135 -126 C 115 -146 92 -162 67 -173 C 41 -184 13 -190 -17 -190 C -51 -190 -78 -182 -98 -168 C -118 -153 -128 -134 -128 -112 C -128 -89 -119 -67 -101 -47 C -83 -26 -58 -8 -27 7 L 37 7 C 10 -5 -10 -19 -26 -33 C -41 -47 -49 -62 -49 -76 C -49 -90 -43 -101 -31 -109 C -19 -117 -5 -122 13 -122 C 33 -122 52 -118 68 -112 C 84 -106 98 -98 109 -88 Z" unicode="̨" />
<glyph horiz-adv-x="573" d="M 1 0 L 1 0 Z M 658 0 L 1 0 L 298 733 L 366 733 L 658 0 Z M 522 79 L 324 587 L 130 79 L 522 79 Z" unicode="Δ" />
<glyph horiz-adv-x="724" d="M 36 0 L 36 0 Z M 45 0 L 45 85 L 264 85 L 264 153 C 231 165 201 180 173 200 C 145 219 120 241 100 266 C 80 291 64 319 53 349 C 41 379 36 411 36 445 C 36 487 44 526 60 563 C 76 599 98 631 128 658 C 157 685 193 706 235 722 C 277 738 323 746 375 746 C 428 746 476 738 519 722 C 562 706 599 684 629 657 C 659 630 682 598 698 562 C 714 525 722 486 722 445 C 722 377 702 318 662 267 C 622 215 566 177 494 153 L 494 85 L 712 85 L 712 0 L 427 0 L 427 203 C 487 225 534 257 568 300 C 602 343 620 390 620 440 C 620 473 613 504 601 532 C 589 560 572 584 550 604 C 528 624 503 639 473 651 C 443 662 410 668 376 668 C 342 668 310 662 281 651 C 252 639 227 623 206 603 C 184 583 168 558 156 530 C 144 502 138 471 138 438 C 138 389 154 343 188 301 C 222 259 270 226 332 203 L 332 0 L 45 0 Z" unicode="Ω" />
<glyph horiz-adv-x="589" d="M 80 0 L 80 0 Z M 80 -192 L 80 540 L 172 540 L 172 172 C 172 142 184 117 210 97 C 236 76 267 66 303 66 C 319 66 336 69 354 76 C 371 82 386 92 400 105 C 414 117 425 133 434 151 C 443 169 448 190 448 213 L 448 540 L 539 540 L 539 0 L 455 0 L 455 99 C 449 85 440 71 428 59 C 416 46 402 35 386 26 C 370 16 353 9 335 3 C 317 -3 299 -6 282 -7 C 257 -7 233 -2 211 8 C 189 18 173 32 165 51 L 165 -192 L 80 -192 Z" unicode="μ" />
<glyph horiz-adv-x="629" d="M 184 469 L 184 0 L 93 0 L 93 469 L 15 469 L 15 540 L 614 540 L 614 469 L 532 469 L 532 0 L 440 0 L 440 469 L 184 469 Z" unicode="π" />
<glyph horiz-adv-x="937" d="M 12 0 L 12 0 Z M 925 730 L 702 -6 L 642 -6 L 471 550 L 290 -6 L 230 -6 L 12 730 L 115 730 L 271 191 L 443 730 L 503 730 L 676 187 L 832 730 L 925 730 Z M 468 779 L 468 779 Z M 576 779 L 482 779 L 360 942 L 469 942 L 576 779 Z" unicode="Ẁ" />
<glyph horiz-adv-x="773" d="M 4 0 L 4 0 Z M 524 -3 L 394 333 L 249 -3 L 193 -3 L 4 540 L 102 540 L 234 141 L 368 471 L 428 471 L 550 144 L 679 540 L 769 540 L 580 -3 L 524 -3 Z M 395 589 L 395 589 Z M 503 589 L 409 589 L 287 752 L 396 752 L 503 589 Z" unicode="ẁ" />
<glyph horiz-adv-x="937" d="M 12 0 L 12 0 Z M 925 730 L 702 -6 L 642 -6 L 471 550 L 290 -6 L 230 -6 L 12 730 L 115 730 L 271 191 L 443 730 L 503 730 L 676 187 L 832 730 L 925 730 Z M 468 788 L 468 788 Z M 361 788 L 466 951 L 576 951 L 454 788 L 361 788 Z" unicode="Ẃ" />
<glyph horiz-adv-x="773" d="M 4 0 L 4 0 Z M 524 -3 L 394 333 L 249 -3 L 193 -3 L 4 540 L 102 540 L 234 141 L 368 471 L 428 471 L 550 144 L 679 540 L 769 540 L 580 -3 L 524 -3 Z M 395 598 L 395 598 Z M 288 598 L 393 761 L 503 761 L 381 598 L 288 598 Z" unicode="ẃ" />
<glyph horiz-adv-x="937" d="M 12 0 L 12 0 Z M 925 730 L 702 -6 L 642 -6 L 471 550 L 290 -6 L 230 -6 L 12 730 L 115 730 L 271 191 L 443 730 L 503 730 L 676 187 L 832 730 L 925 730 Z M 468 780 L 468 780 Z M 600 780 L 522 780 L 522 938 L 600 938 L 600 780 Z M 414 780 L 336 780 L 336 938 L 414 938 L 414 780 Z" unicode="Ẅ" />
<glyph horiz-adv-x="773" d="M 4 0 L 4 0 Z M 524 -3 L 394 333 L 249 -3 L 193 -3 L 4 540 L 102 540 L 234 141 L 368 471 L 428 471 L 550 144 L 679 540 L 769 540 L 580 -3 L 524 -3 Z M 395 590 L 395 590 Z M 527 590 L 449 590 L 449 748 L 527 748 L 527 590 Z M 341 590 L 263 590 L 263 748 L 341 748 L 341 590 Z" unicode="ẅ" />
<glyph horiz-adv-x="664" d="M 1 0 L 1 0 Z M 664 730 L 380 309 L 380 0 L 280 0 L 280 313 L 1 730 L 113 730 L 335 401 L 558 730 L 664 730 Z M 335 779 L 335 779 Z M 443 779 L 349 779 L 227 942 L 336 942 L 443 779 Z" unicode="Ỳ" />
<glyph horiz-adv-x="550" d="M 0 0 L 0 0 Z M 554 540 L 266 -76 C 243 -124 215 -156 183 -174 C 150 -191 119 -200 89 -200 C 72 -200 58 -198 47 -194 C 35 -190 27 -188 22 -186 L 53 -103 C 56 -105 62 -107 70 -109 C 78 -111 86 -113 96 -113 C 113 -113 129 -107 144 -95 C 159 -83 174 -63 189 -35 L 224 35 L -4 540 L 97 540 L 274 139 L 456 540 L 554 540 Z M 275 589 L 275 589 Z M 383 589 L 289 589 L 167 752 L 276 752 L 383 589 Z" unicode="ỳ" />
<glyph horiz-adv-x="461" d="M 420 227 L 41 227 L 41 307 L 420 307 L 420 227 Z" unicode="–" />
<glyph horiz-adv-x="646" d="M 605 227 L 41 227 L 41 307 L 605 307 L 605 227 Z" unicode="—" />
<glyph horiz-adv-x="271" d="M 34 507 L 34 514 C 34 550 45 589 69 629 C 92 669 123 705 163 737 L 255 731 C 245 725 233 715 219 701 C 205 687 191 670 179 651 C 166 631 155 610 146 587 C 137 563 133 539 133 515 L 133 507 L 34 507 Z" unicode="‘" />
<glyph horiz-adv-x="271" d="M 237 737 L 237 730 C 237 693 225 655 201 616 C 177 577 146 541 108 507 L 16 513 C 26 521 38 532 52 546 C 66 560 79 577 92 596 C 104 614 115 635 124 658 C 133 680 138 704 138 729 L 138 737 L 237 737 Z" unicode="’" />
<glyph horiz-adv-x="271" d="M 237 112 L 237 105 C 237 68 225 30 201 -8 C 177 -47 146 -84 108 -118 L 16 -112 C 26 -104 38 -92 52 -78 C 66 -64 79 -47 92 -29 C 104 -10 115 10 124 33 C 133 55 138 79 138 104 L 138 112 L 237 112 Z" unicode="‚" />
<glyph horiz-adv-x="449" d="M 225 507 L 225 514 C 225 550 236 587 259 625 C 282 663 314 700 354 737 L 433 731 C 423 722 411 710 397 696 C 383 682 369 665 356 647 C 343 628 332 607 323 585 C 313 563 309 539 309 515 L 309 507 L 225 507 Z M 34 507 L 34 514 C 34 550 46 587 70 625 C 94 663 125 700 163 737 L 243 731 C 234 723 223 711 209 697 C 195 683 181 666 168 648 C 154 629 143 608 133 586 C 123 563 119 539 119 515 L 119 507 L 34 507 Z" unicode="“" />
<glyph horiz-adv-x="449" d="M 225 737 L 225 730 C 225 693 214 656 192 618 C 170 580 138 543 96 507 L 16 513 C 27 522 40 534 54 549 C 68 563 82 580 95 598 C 107 616 118 637 127 659 C 135 681 140 704 140 729 L 140 737 L 225 737 Z M 415 737 L 415 730 C 415 693 403 655 380 617 C 357 579 326 542 286 507 L 207 513 C 219 523 232 535 246 549 C 260 563 274 580 286 598 C 298 616 309 637 318 659 C 326 681 331 704 331 729 L 331 737 L 415 737 Z" unicode="”" />
<glyph horiz-adv-x="449" d="M 225 116 L 225 109 C 225 72 214 35 192 -2 C 170 -40 138 -77 96 -114 L 16 -108 C 27 -98 40 -86 54 -72 C 68 -57 82 -40 95 -22 C 107 -4 118 16 127 38 C 135 60 140 83 140 108 L 140 116 L 225 116 Z M 415 116 L 415 109 C 415 72 403 34 380 -3 C 357 -41 326 -78 286 -114 L 207 -108 C 219 -98 232 -85 246 -71 C 260 -57 274 -40 286 -22 C 298 -4 309 16 318 38 C 326 60 331 83 331 108 L 331 116 L 415 116 Z" unicode="„" />
<glyph horiz-adv-x="565" d="M 540 396 L 328 396 L 328 -179 L 231 -179 L 231 396 L 25 396 L 25 470 L 231 470 L 231 730 L 328 730 L 328 470 L 540 470 L 540 396 Z" unicode="†" />
<glyph horiz-adv-x="565" d="M 232 -179 L 232 120 L 29 120 L 29 194 L 232 194 L 232 391 L 29 391 L 29 465 L 232 465 L 232 730 L 328 730 L 328 465 L 536 465 L 536 391 L 328 391 L 328 194 L 536 194 L 536 120 L 328 120 L 328 -179 L 232 -179 Z" unicode="‡" />
<glyph horiz-adv-x="383" d="M 191 465 C 215 465 235 456 252 440 C 268 423 277 403 277 379 C 277 355 268 334 252 318 C 235 302 215 294 191 294 C 167 294 146 302 130 318 C 114 334 106 355 106 379 C 106 403 114 423 130 440 C 146 456 167 465 191 465 Z" unicode="•" />
<glyph horiz-adv-x="708" d="M 71 0 L 71 131 L 165 131 L 165 0 L 71 0 Z M 307 0 L 307 131 L 401 131 L 401 0 L 307 0 Z M 543 0 L 543 131 L 637 131 L 637 0 L 543 0 Z" unicode="…" />
<glyph horiz-adv-x="1251" d="M 217 346 C 193 346 171 350 149 360 C 127 369 109 382 93 400 C 77 417 64 438 55 462 C 45 486 41 513 41 543 C 41 569 45 594 54 618 C 62 642 74 663 90 681 C 106 699 124 713 146 724 C 167 734 190 740 215 740 C 241 740 264 734 286 724 C 307 713 325 699 341 682 C 356 664 368 644 376 620 C 384 596 389 572 389 546 C 389 518 384 492 376 468 C 368 444 356 423 341 405 C 325 387 307 372 286 362 C 265 351 242 346 217 346 Z M 131 0 L 637 730 L 732 730 L 225 0 L 131 0 Z M 126 543 C 126 503 134 472 152 451 C 169 429 190 419 214 419 C 242 419 264 430 280 453 C 296 475 304 505 304 543 C 304 579 296 608 282 631 C 268 654 246 666 216 666 C 188 666 166 654 150 631 C 134 608 126 579 126 543 Z M 653 -3 C 629 -3 607 1 586 11 C 565 20 547 33 531 51 C 515 68 502 89 493 113 C 483 137 479 164 479 194 C 479 220 483 245 492 269 C 500 293 512 314 528 332 C 543 350 561 364 583 375 C 604 385 627 391 652 391 C 678 391 701 385 723 375 C 744 364 762 350 778 333 C 793 315 805 295 813 271 C 821 247 826 223 826 197 C 826 169 821 143 813 119 C 805 95 793 74 778 56 C 762 38 744 23 723 13 C 701 2 678 -3 653 -3 Z M 1037 -3 C 1013 -3 991 1 970 11 C 948 20 930 33 914 51 C 898 68 885 89 876 113 C 866 137 862 164 862 194 C 862 220 866 245 875 269 C 883 293 895 314 911 332 C 926 350 944 364 966 375 C 987 385 1010 391 1036 391 C 1062 391 1085 385 1107 375 C 1128 364 1146 350 1161 333 C 1176 315 1188 295 1196 271 C 1204 247 1209 223 1209 197 C 1209 169 1204 143 1196 119 C 1188 95 1176 74 1161 56 C 1145 38 1127 23 1106 13 C 1085 2 1062 -3 1037 -3 Z M 650 71 C 679 71 702 82 718 105 C 734 127 742 157 742 194 C 742 230 734 259 719 283 C 704 306 682 318 653 318 C 624 318 602 306 586 283 C 570 260 563 230 563 194 C 563 154 571 123 589 102 C 606 81 626 71 650 71 Z M 1034 71 C 1062 71 1085 82 1101 105 C 1117 127 1125 157 1125 194 C 1125 230 1117 259 1103 283 C 1088 306 1066 318 1037 318 C 1008 318 986 306 970 283 C 954 260 947 230 947 194 C 947 154 955 123 972 102 C 989 81 1010 71 1034 71 Z" unicode="‰" />
<glyph horiz-adv-x="238" d="M 209 112 L 28 280 L 28 333 L 209 499 L 209 408 L 108 304 L 209 205 L 209 112 Z" unicode="‹" />
<glyph horiz-adv-x="239" d="M 29 500 L 212 332 L 212 280 L 29 114 L 29 204 L 130 308 L 29 407 L 29 500 Z" unicode="›" />
<glyph horiz-adv-x="145" d="M 303 730 L -64 0 L -145 0 L 222 730 L 303 730 Z" unicode="⁄" />
<glyph horiz-adv-x="327" d="M 15 455 L 15 511 L 201 738 L 254 738 L 254 514 L 315 514 L 315 455 L 254 455 L 254 373 L 178 373 L 178 455 L 15 455 Z M 77 503 L 180 503 L 180 631 L 77 503 Z" unicode="⁴" />
<glyph horiz-adv-x="567" d="M 563 116 C 542 78 512 48 472 24 C 432 0 389 -12 341 -12 C 279 -12 226 11 180 57 C 134 103 104 167 89 248 L 37 248 L 37 314 L 81 314 C 80 322 79 330 79 338 C 79 346 79 354 79 362 C 79 369 79 376 79 384 C 79 392 79 399 80 407 L 37 407 L 37 472 L 88 472 C 94 511 105 547 119 581 C 133 614 150 642 172 666 C 193 690 218 708 246 722 C 274 735 305 742 340 742 C 398 742 444 730 478 707 C 512 683 537 656 554 626 L 480 587 C 466 611 448 630 426 645 C 404 660 375 668 340 668 C 297 668 261 651 232 618 C 203 584 184 536 174 472 L 491 472 L 491 407 L 167 407 C 166 400 166 393 166 385 C 166 377 166 370 166 363 C 166 354 166 346 166 338 C 166 330 167 322 168 314 L 491 314 L 491 248 L 177 248 C 189 187 211 141 241 109 C 271 77 305 62 342 62 C 376 62 406 71 432 91 C 458 110 478 133 492 159 L 563 116 Z" unicode="€" />
<glyph horiz-adv-x="925" d="M 867 292 L 782 292 L 782 594 L 635 398 L 627 398 L 481 593 L 481 292 L 399 292 L 399 730 L 457 730 L 632 505 L 804 730 L 867 730 L 867 292 Z M 370 634 L 240 634 L 240 292 L 145 292 L 145 634 L 19 634 L 19 730 L 370 730 L 370 634 Z" unicode="™" />
<glyph horiz-adv-x="758" d="M 45 0 L 45 85 L 264 85 L 264 153 C 231 165 201 180 173 200 C 145 219 120 241 100 266 C 80 291 64 319 53 349 C 41 379 36 411 36 445 C 36 487 44 526 60 563 C 76 599 98 631 128 658 C 157 685 193 706 235 722 C 277 738 323 746 375 746 C 428 746 476 738 519 722 C 562 706 599 684 629 657 C 659 630 682 598 698 562 C 714 525 722 486 722 445 C 722 377 702 318 662 267 C 622 215 566 177 494 153 L 494 85 L 712 85 L 712 0 L 427 0 L 427 203 C 487 225 534 257 568 300 C 602 343 620 390 620 440 C 620 473 613 504 601 532 C 589 560 572 584 550 604 C 528 624 503 639 473 651 C 443 662 410 668 376 668 C 342 668 310 662 281 651 C 252 639 227 623 206 603 C 184 583 168 558 156 530 C 144 502 138 471 138 438 C 138 389 154 343 188 301 C 222 259 270 226 332 203 L 332 0 L 45 0 Z" unicode="Ω" />
<glyph horiz-adv-x="600" d="M 558 294 C 558 241 551 195 537 157 C 523 119 505 87 481 62 C 457 37 429 19 397 7 C 365 -5 331 -11 295 -11 C 263 -11 231 -5 201 6 C 170 17 143 33 119 54 C 95 75 76 101 62 132 C 47 162 40 196 40 234 C 40 268 46 300 59 331 C 71 362 89 389 111 413 C 133 436 159 454 189 468 C 219 482 252 489 287 489 C 333 489 373 477 407 455 C 441 433 466 405 481 372 C 473 439 459 496 439 544 C 418 591 393 629 365 659 C 337 689 306 711 273 725 C 239 739 207 747 175 749 L 218 802 C 251 802 287 792 327 774 C 367 756 404 726 438 686 C 472 646 500 593 523 529 C 546 464 558 386 558 294 Z M 297 54 C 345 54 385 71 416 106 C 447 141 463 188 463 247 C 463 271 459 293 451 315 C 443 336 433 354 419 370 C 405 386 387 398 367 408 C 346 417 323 422 297 422 C 251 422 212 404 181 370 C 150 336 135 292 135 238 C 135 180 150 134 181 102 C 212 70 251 54 297 54 Z" unicode="∂" />
<glyph horiz-adv-x="658" d="M 658 0 L 1 0 L 298 733 L 366 733 L 658 0 Z M 522 79 L 324 587 L 130 79 L 522 79 Z" unicode="∆" />
<glyph horiz-adv-x="700" d="M 226 647 L 226 0 L 130 0 L 130 647 L 15 647 L 15 730 L 685 730 L 685 647 L 575 647 L 575 0 L 480 0 L 480 647 L 226 647 Z" unicode="∏" />
<glyph horiz-adv-x="618" d="M 180 642 L 422 307 L 146 -91 L 571 -91 L 571 -179 L -15 -179 L 320 306 L 15 730 L 550 730 L 550 642 L 180 642 Z" unicode="∑" />
<glyph horiz-adv-x="515" d="M 474 293 L 41 293 L 41 372 L 474 372 L 474 293 Z" unicode="−" />
<glyph horiz-adv-x="510" d="M 502 730 L 198 0 L 186 0 L 13 329 L 79 378 L 203 130 L 443 730 L 502 730 Z" unicode="√" />
<glyph horiz-adv-x="338" d="M 107 -27 L 165 628 C 168 664 182 692 207 712 C 231 731 256 741 282 741 C 295 741 308 740 321 739 C 334 738 342 737 345 737 L 338 656 C 336 656 332 657 326 658 C 320 658 314 659 308 659 C 289 659 273 652 261 640 C 249 627 242 607 240 581 L 184 -60 C 181 -92 168 -120 145 -144 C 121 -168 92 -179 58 -179 C 39 -179 22 -177 6 -173 C -10 -169 -22 -165 -30 -161 L -20 -96 C -16 -96 -9 -98 0 -101 C 9 -103 18 -105 27 -105 C 47 -105 64 -98 80 -84 C 95 -70 104 -51 107 -27 Z" unicode="∫" />
<glyph horiz-adv-x="500" d="M 393 499 L 460 499 C 458 451 449 412 433 382 C 416 352 390 337 355 337 C 332 337 312 342 295 352 C 278 362 263 373 250 386 C 236 398 223 409 210 419 C 196 428 182 433 168 433 C 154 433 140 424 126 407 C 112 390 106 368 106 340 L 40 340 C 40 390 50 429 71 458 C 91 486 119 501 153 501 C 175 501 196 495 214 483 C 232 471 247 458 261 446 C 273 435 286 425 299 416 C 311 406 325 402 339 402 C 358 402 372 410 380 426 C 388 442 393 466 393 499 Z M 393 322 L 460 322 C 458 274 449 235 433 205 C 416 175 390 161 355 161 C 332 161 312 165 295 175 C 278 185 263 196 250 209 C 236 221 223 232 210 242 C 196 251 182 256 168 256 C 154 256 140 247 126 230 C 112 213 106 191 106 164 L 40 164 C 40 213 50 252 71 281 C 91 309 119 324 153 324 C 175 324 196 318 214 306 C 232 294 247 281 261 269 C 273 258 286 248 299 239 C 311 229 325 225 339 225 C 358 225 372 233 380 249 C 388 265 393 289 393 322 Z" unicode="≈" />
<glyph horiz-adv-x="500" d="M 457 175 L 219 175 L 168 68 L 119 91 L 159 175 L 65 175 L 65 254 L 197 254 L 260 388 L 65 388 L 65 466 L 298 466 L 350 576 L 398 553 L 357 466 L 457 466 L 457 388 L 320 388 L 256 254 L 457 254 L 457 175 Z" unicode="≠" />
<glyph horiz-adv-x="500" d="M 62 295 L 62 355 L 433 558 L 433 480 L 152 327 L 433 171 L 433 93 L 62 295 Z M 61 84 L 433 84 L 433 23 L 61 23 L 61 84 Z" unicode="≤" />
<glyph horiz-adv-x="500" d="M 432 295 L 61 93 L 61 171 L 342 327 L 61 480 L 61 558 L 432 355 L 432 295 Z M 433 84 L 433 23 L 61 23 L 61 84 L 433 84 Z" unicode="≥" />
<glyph horiz-adv-x="533" d="M 504 326 L 272 -16 L 261 -16 L 30 326 L 30 337 L 261 678 L 272 678 L 504 337 L 504 326 Z M 417 327 L 417 336 L 271 556 L 263 556 L 117 336 L 117 327 L 263 106 L 271 106 L 417 327 Z" unicode="◊" />
<glyph horiz-adv-x="730" d="M 448 678 L 282 678 L 282 730 L 448 730 L 448 678 Z M 659 282 L 605 282 L 605 448 L 659 448 L 659 282 Z M 125 282 L 71 282 L 71 448 L 125 448 L 125 282 Z M 428 302 L 302 302 L 302 428 L 428 428 L 428 302 Z M 448 0 L 282 0 L 282 53 L 448 53 L 448 0 Z" unicode="" />
<glyph horiz-adv-x="671" d="M 398 460 L 222 460 L 222 0 L 130 0 L 130 460 L 16 460 L 16 540 L 130 540 L 130 596 C 130 631 135 662 146 688 C 157 714 172 736 190 753 C 208 769 228 782 251 790 C 274 798 297 802 321 802 C 335 802 352 800 370 797 C 388 793 401 789 409 785 L 381 700 C 375 702 366 705 356 708 C 345 710 335 712 325 712 C 314 712 302 710 290 706 C 278 702 266 695 256 687 C 246 678 237 667 231 653 C 224 639 221 621 221 601 L 221 540 L 398 540 L 398 460 Z M 585 653 L 486 653 L 486 741 L 585 741 L 585 653 Z M 583 0 L 488 0 L 488 540 L 583 540 L 583 0 Z" unicode="ﬁ" />
<glyph horiz-adv-x="689" d="M 395 460 L 219 460 L 219 0 L 127 0 L 127 460 L 13 460 L 13 540 L 127 540 L 127 596 C 127 631 132 662 143 688 C 154 714 169 736 187 753 C 205 769 225 782 248 790 C 271 798 294 802 318 802 C 332 802 349 800 367 797 C 385 793 398 789 406 785 L 378 700 C 372 702 363 705 353 708 C 343 710 332 712 322 712 C 311 712 299 710 287 706 C 275 702 263 695 253 687 C 243 678 234 667 228 653 C 221 639 218 621 218 601 L 218 540 L 395 540 L 395 460 Z M 460 125 L 460 800 L 554 800 L 554 154 C 554 130 560 112 573 98 C 585 84 603 78 626 78 C 634 78 644 78 654 79 C 664 80 671 82 676 84 L 678 2 C 671 0 660 -1 646 -3 C 632 -5 618 -6 606 -6 C 587 -6 569 -3 551 2 C 533 7 518 15 505 26 C 491 36 480 50 472 66 C 464 82 460 102 460 125 Z" unicode="ﬂ" />
</font>
</defs>
</svg>
