<?xml version="1.0" encoding="utf-8" ?><svg version="1.1" xmlns = 'http://www.w3.org/2000/svg'><defs><font id='web' horiz-adv-x="1000">
<font-face font-family="web" descent="-200" cap-height="730" units-per-em="1000" bbox="-156,-314,937,1034" x-height="436" ascent="800" />
<missing-glyph horiz-adv-x="500" d="" /><glyph horiz-adv-x="176" d="" unicode=" " />
<glyph horiz-adv-x="256" d="M 174 427 L 146 196 L 110 196 L 82 427 L 82 730 L 174 730 L 174 427 Z M 170 0 L 87 0 L 87 98 L 170 98 L 170 0 Z" unicode="!" />
<glyph horiz-adv-x="325" d="M 276 624 L 270 490 L 205 490 L 201 623 L 201 730 L 276 730 L 276 624 Z M 123 623 L 119 490 L 53 490 L 49 623 L 49 730 L 123 730 L 123 623 Z" unicode="&#x22;" />
<glyph horiz-adv-x="540" d="M 493 224 L 380 224 L 360 0 L 307 1 L 327 224 L 189 224 L 169 0 L 115 1 L 135 224 L 29 224 L 29 297 L 141 297 L 153 429 L 47 429 L 47 502 L 159 502 L 179 730 L 233 729 L 213 502 L 351 502 L 371 730 L 424 729 L 404 502 L 511 502 L 511 429 L 398 429 L 386 297 L 493 297 L 493 224 Z M 195 297 L 333 297 L 345 429 L 207 429 L 195 297 Z" unicode="#" />
<glyph horiz-adv-x="451" d="M 417 184 C 417 131 401 89 369 57 C 337 25 300 6 256 0 L 256 -128 L 201 -128 L 201 -1 C 165 1 133 9 104 23 C 74 37 48 58 25 87 L 62 142 C 78 118 99 101 125 89 C 151 77 176 70 201 69 L 201 347 C 151 375 112 404 85 434 C 58 464 45 506 45 560 C 45 607 59 646 89 677 C 119 708 156 726 201 731 L 201 792 L 256 792 L 256 731 C 287 728 314 721 338 709 C 362 697 383 681 401 663 L 357 608 C 343 622 327 634 310 643 C 292 651 274 657 256 660 L 256 406 L 259 404 C 318 371 359 338 382 306 C 405 273 417 232 417 184 Z M 125 555 C 125 530 131 509 141 491 C 151 473 171 455 201 437 L 201 658 C 180 652 162 640 147 622 C 132 604 125 581 125 555 Z M 338 188 C 338 214 332 236 320 255 C 308 274 286 294 256 315 L 256 75 C 278 81 297 94 313 112 C 329 130 338 156 338 188 Z" unicode="$" />
<glyph horiz-adv-x="674" d="M 167 363 C 151 363 135 366 119 374 C 103 382 90 393 78 409 C 66 425 56 444 48 468 C 40 492 37 519 37 551 C 37 604 49 649 73 685 C 97 721 129 740 167 740 C 187 740 206 735 222 725 C 238 715 252 701 264 685 C 276 668 285 648 291 626 C 297 603 301 579 301 554 C 301 527 297 502 291 479 C 284 455 275 435 263 418 C 251 400 236 387 220 377 C 204 367 186 363 167 363 Z M 149 0 L 87 0 L 507 730 L 569 730 L 149 0 Z M 167 428 C 179 428 189 431 197 438 C 205 445 211 454 215 466 C 219 478 223 491 225 506 C 227 520 228 535 228 551 C 228 565 227 580 225 595 C 223 610 219 623 215 635 C 210 647 204 656 197 664 C 189 672 180 676 170 676 C 158 676 149 672 141 665 C 133 657 127 648 123 636 C 118 624 115 611 113 596 C 111 581 110 566 110 551 C 110 536 110 521 112 506 C 114 491 117 478 121 467 C 125 455 131 446 139 439 C 146 431 155 428 167 428 Z M 502 -3 C 485 -3 469 0 453 8 C 437 16 422 27 410 43 C 398 59 388 78 380 102 C 372 126 369 153 369 185 C 369 238 381 283 406 319 C 431 355 464 374 504 374 C 524 374 543 369 560 359 C 576 349 590 335 602 319 C 613 302 622 282 628 260 C 634 237 637 213 637 188 C 637 161 633 136 627 113 C 621 89 612 69 600 52 C 588 34 573 21 557 11 C 540 1 522 -3 502 -3 Z M 501 63 C 513 63 522 66 530 73 C 538 80 544 89 549 101 C 554 112 558 125 560 140 C 562 154 563 169 563 185 C 563 199 562 214 560 229 C 558 244 554 258 549 270 C 544 282 538 291 530 299 C 522 306 513 310 503 310 C 492 310 483 306 475 299 C 467 292 461 283 456 271 C 451 259 447 246 445 231 C 443 216 442 201 442 185 C 442 154 446 126 455 101 C 464 75 479 63 501 63 Z" unicode="%" />
<glyph horiz-adv-x="611" d="M 543 -7 L 472 75 C 441 47 407 27 371 13 C 335 -1 294 -8 250 -8 C 182 -8 128 8 88 41 C 47 74 27 121 27 182 C 27 241 42 287 73 319 C 104 351 141 380 184 405 L 169 422 C 153 439 137 461 121 489 C 105 516 97 548 97 586 C 97 605 100 624 107 642 C 114 660 124 677 138 691 C 151 705 168 716 188 724 C 208 732 232 737 259 737 C 310 737 351 723 383 695 C 414 667 430 633 430 593 C 430 551 418 515 394 485 C 370 454 337 424 295 396 L 476 192 C 485 204 494 218 504 233 C 514 247 524 263 534 280 L 596 236 C 585 217 574 199 562 182 C 550 164 539 148 528 134 L 603 49 L 543 -7 Z M 230 470 L 252 445 C 285 467 309 488 325 508 C 340 528 348 550 348 573 C 348 597 340 619 326 637 C 311 655 290 665 263 665 C 235 665 215 655 202 637 C 188 619 182 599 182 579 C 182 561 186 542 194 523 C 202 503 214 486 230 470 Z M 117 187 C 117 148 131 118 161 97 C 191 76 225 66 265 66 C 295 66 323 71 349 82 C 375 93 399 109 422 131 L 229 354 C 197 332 171 309 149 283 C 127 257 117 225 117 187 Z" unicode="&#x26;" />
<glyph horiz-adv-x="174" d="M 126 621 L 122 486 L 52 486 L 48 621 L 48 730 L 126 730 L 126 621 Z" unicode="'" />
<glyph horiz-adv-x="290" d="M 268 -123 L 268 -179 C 236 -163 206 -140 176 -111 C 146 -81 119 -47 97 -7 C 74 33 56 78 42 129 C 28 179 22 234 22 293 C 22 347 28 398 40 446 C 52 494 69 538 91 577 C 113 616 139 650 169 680 C 199 709 232 732 268 749 L 268 694 C 215 659 175 607 148 537 C 120 467 106 385 106 293 C 106 249 109 206 115 165 C 121 124 130 86 143 51 C 156 15 173 -16 194 -46 C 214 -76 239 -101 268 -123 Z" unicode="(" />
<glyph horiz-adv-x="290" d="M 22 696 L 22 749 C 55 733 87 711 117 683 C 147 655 173 621 195 581 C 217 541 235 496 248 446 C 261 396 268 341 268 283 C 268 228 261 176 248 128 C 235 80 218 36 196 -3 C 174 -42 148 -77 118 -107 C 88 -137 56 -161 22 -179 L 22 -122 C 77 -82 118 -26 144 46 C 170 118 184 197 185 283 C 185 377 172 460 145 532 C 118 604 77 658 22 696 Z" unicode=")" />
<glyph horiz-adv-x="382" d="M 353 597 L 225 557 L 309 455 L 273 425 L 192 534 L 113 426 L 74 454 L 160 558 L 35 599 L 56 645 L 172 596 L 168 730 L 216 730 L 212 596 L 334 639 L 353 597 Z" unicode="*" />
<glyph horiz-adv-x="475" d="M 450 299 L 272 299 L 272 125 L 204 125 L 204 299 L 26 299 L 26 363 L 204 363 L 204 537 L 272 537 L 272 363 L 450 363 L 450 299 Z" unicode="+" />
<glyph horiz-adv-x="199" d="M 165 99 C 165 77 162 54 156 31 C 150 7 143 -14 135 -36 C 126 -58 116 -78 105 -97 C 94 -116 83 -132 73 -145 L 9 -116 C 15 -106 22 -94 30 -79 C 38 -63 45 -46 52 -27 C 59 -8 65 12 70 34 C 75 56 78 77 79 99 L 165 99 Z" unicode="," />
<glyph horiz-adv-x="312" d="M 277 226 L 36 226 L 36 302 L 277 302 L 277 226 Z" unicode="-" />
<glyph horiz-adv-x="201" d="M 143 0 L 58 0 L 58 120 L 143 120 L 143 0 Z" unicode="." />
<glyph horiz-adv-x="302" d="M 298 730 L 82 0 L 4 0 L 223 730 L 298 730 Z" unicode="/" />
<glyph horiz-adv-x="438" d="M 217 -7 C 190 -7 165 0 143 12 C 120 24 100 45 84 73 C 67 101 54 139 45 187 C 35 234 31 292 31 361 C 31 477 46 569 76 637 C 106 704 154 738 220 738 C 253 738 282 729 306 712 C 330 695 349 671 364 639 C 379 607 390 569 397 524 C 404 478 408 428 408 372 C 408 247 391 153 359 89 C 326 25 279 -7 217 -7 Z M 217 65 C 253 65 280 88 298 135 C 315 181 324 257 324 362 C 324 462 316 538 301 588 C 286 638 259 664 219 664 C 181 664 154 640 138 592 C 122 544 114 468 114 364 C 114 252 123 175 141 131 C 159 87 185 65 217 65 Z" unicode="0" />
<glyph horiz-adv-x="290" d="M 226 0 L 140 0 L 140 604 C 130 583 113 563 91 545 C 69 526 48 515 28 513 L 28 605 C 38 606 49 611 62 619 C 74 627 86 638 98 650 C 110 662 120 675 130 689 C 140 703 147 718 152 732 L 226 732 L 226 0 Z" unicode="1" />
<glyph horiz-adv-x="424" d="M 392 0 L 22 0 L 22 29 L 238 357 C 256 385 272 416 286 450 C 299 484 306 520 306 558 C 306 590 296 616 278 634 C 260 652 235 662 203 662 C 165 662 138 648 123 621 C 107 594 100 560 100 520 L 28 520 C 28 595 44 650 76 685 C 108 719 152 737 206 737 C 256 737 298 722 333 693 C 367 664 385 620 385 561 C 385 506 377 462 363 428 C 349 394 332 363 314 335 L 142 74 L 392 74 L 392 0 Z" unicode="2" />
<glyph horiz-adv-x="421" d="M 194 -7 C 146 -7 107 1 79 18 C 50 35 28 55 12 77 L 55 134 C 67 117 83 101 103 87 C 122 73 148 66 181 66 C 205 66 225 70 243 79 C 261 88 275 100 286 115 C 297 130 305 147 311 166 C 316 185 319 205 319 225 C 319 248 315 268 307 286 C 299 304 289 318 277 330 C 265 341 251 349 235 355 C 219 361 204 364 188 364 L 111 364 L 111 437 L 185 437 C 215 437 242 447 266 468 C 289 489 301 519 301 557 C 301 587 292 612 276 632 C 259 652 235 662 204 662 C 175 662 151 655 131 643 C 111 631 94 613 80 589 L 27 639 C 43 667 65 690 95 709 C 125 728 162 738 207 738 C 259 738 299 723 329 694 C 359 665 374 625 374 573 C 374 547 370 525 363 505 C 356 485 347 469 337 455 C 327 441 315 429 303 421 C 290 412 278 406 268 403 C 284 399 299 392 315 383 C 330 373 344 361 356 346 C 368 331 378 313 386 292 C 394 271 398 247 398 221 C 398 193 394 166 387 139 C 379 111 367 87 351 65 C 335 43 314 26 288 13 C 262 0 230 -7 194 -7 Z" unicode="3" />
<glyph horiz-adv-x="416" d="M 413 206 L 338 206 L 338 0 L 266 0 L 266 206 L 2 206 L 2 263 L 287 738 L 338 738 L 338 278 L 413 278 L 413 206 Z M 266 278 L 266 571 L 90 278 L 266 278 Z" unicode="4" />
<glyph horiz-adv-x="405" d="M 198 -7 C 157 -7 119 1 83 17 C 47 33 21 53 5 78 L 57 134 C 69 113 87 96 111 83 C 134 70 160 64 190 64 C 226 64 255 79 277 111 C 298 142 309 184 309 238 C 309 288 298 326 278 353 C 258 380 232 394 202 394 C 167 394 141 386 125 372 C 109 358 96 339 87 317 L 30 330 L 56 730 L 357 730 L 357 656 L 121 656 L 105 408 C 113 421 126 434 144 448 C 162 461 190 468 228 468 C 274 468 313 450 344 414 C 375 378 391 323 391 248 C 391 205 385 168 375 136 C 365 104 351 77 333 56 C 315 34 295 18 272 8 C 248 -1 224 -7 198 -7 Z" unicode="5" />
<glyph horiz-adv-x="413" d="M 216 -8 C 161 -8 115 11 79 49 C 43 87 25 142 25 216 C 25 295 40 370 72 440 C 104 510 149 584 208 664 L 267 745 L 328 707 L 289 655 C 235 585 195 524 170 474 C 144 424 128 384 120 355 C 128 373 142 389 161 401 C 179 413 203 419 232 419 C 278 419 316 400 348 362 C 380 324 396 272 396 207 C 396 145 379 93 345 53 C 311 12 268 -8 216 -8 Z M 214 63 C 245 63 270 75 288 101 C 306 126 316 161 316 205 C 316 253 307 289 289 313 C 271 337 246 350 215 350 C 184 350 158 337 138 313 C 118 289 108 254 108 210 C 108 160 118 123 139 99 C 159 75 184 63 214 63 Z" unicode="6" />
<glyph horiz-adv-x="350" d="M 354 730 L 354 690 L 95 -4 L 23 25 L 260 656 L 9 656 L 9 730 L 354 730 Z" unicode="7" />
<glyph horiz-adv-x="425" d="M 283 390 C 297 386 311 380 326 371 C 341 361 355 349 367 334 C 379 319 389 301 397 279 C 405 257 409 232 409 204 C 409 138 391 87 356 49 C 320 11 272 -7 212 -7 C 152 -7 104 11 69 48 C 34 85 17 135 17 197 C 17 227 21 254 29 277 C 37 300 48 319 61 335 C 73 351 87 363 102 372 C 116 381 130 387 143 390 C 130 392 117 398 104 406 C 91 414 79 424 69 438 C 59 452 50 468 44 488 C 37 508 34 531 34 558 C 34 586 38 611 48 633 C 58 655 71 674 87 690 C 103 705 122 717 144 725 C 166 733 189 737 213 737 C 265 737 308 721 341 689 C 374 657 391 616 391 566 C 391 540 387 516 381 496 C 374 476 365 458 355 444 C 345 430 333 418 321 409 C 308 400 295 394 283 390 Z M 214 425 C 242 425 266 435 286 456 C 306 476 316 507 316 547 C 316 584 306 613 286 634 C 266 654 241 665 213 665 C 183 665 158 655 138 635 C 118 615 108 586 108 548 C 108 525 111 506 117 490 C 123 474 132 462 142 452 C 152 442 163 435 176 431 C 188 427 201 425 214 425 Z M 215 65 C 248 65 275 77 296 101 C 316 125 327 163 327 213 C 327 260 315 295 292 319 C 269 342 243 354 215 354 C 183 354 155 342 133 319 C 110 295 99 259 99 209 C 99 161 110 125 133 101 C 156 77 183 65 215 65 Z" unicode="8" />
<glyph horiz-adv-x="413" d="M 163 -12 L 100 29 L 132 70 C 150 93 168 120 187 150 C 206 180 224 210 240 240 C 256 270 270 298 282 326 C 294 353 302 376 306 394 C 294 371 276 351 252 335 C 228 318 201 310 173 310 C 127 310 90 330 61 371 C 31 411 17 463 17 525 C 17 587 34 638 70 678 C 105 717 149 737 202 737 C 226 737 250 732 273 723 C 295 713 315 699 332 680 C 349 661 363 637 373 608 C 383 578 388 544 388 504 C 388 463 382 422 371 380 C 360 338 346 297 330 259 C 313 220 294 183 274 149 C 253 115 233 85 215 60 L 163 -12 Z M 197 381 C 209 381 222 383 235 389 C 247 394 259 402 269 414 C 279 425 288 439 295 457 C 301 475 305 495 305 519 C 305 569 294 606 274 629 C 254 651 229 663 201 663 C 168 663 142 651 124 627 C 106 603 97 569 97 526 C 97 478 105 442 123 418 C 140 393 165 381 197 381 Z" unicode="9" />
<glyph horiz-adv-x="200" d="M 143 320 L 58 320 L 58 436 L 143 436 L 143 320 Z M 143 0 L 58 0 L 58 117 L 143 117 L 143 0 Z" unicode=":" />
<glyph horiz-adv-x="200" d="M 149 320 L 64 320 L 64 436 L 149 436 L 149 320 Z M 151 95 C 149 49 140 4 122 -40 C 104 -84 84 -119 62 -145 L -2 -116 C 12 -97 27 -68 44 -28 C 60 11 68 52 68 95 L 151 95 Z" unicode=";" />
<glyph horiz-adv-x="340" d="M 300 102 L 32 297 L 32 353 L 300 545 L 300 468 L 111 325 L 300 181 L 300 102 Z" unicode="&#x3C;" />
<glyph horiz-adv-x="488" d="M 433 390 L 56 390 L 56 462 L 433 462 L 433 390 Z M 433 179 L 56 179 L 56 251 L 433 251 L 433 179 Z" unicode="=" />
<glyph horiz-adv-x="340" d="M 307 297 L 40 102 L 40 181 L 226 325 L 40 468 L 40 545 L 307 353 L 307 297 Z" unicode="&#x3E;" />
<glyph horiz-adv-x="425" d="M 157 199 C 157 241 162 277 173 307 C 183 336 200 364 223 392 C 241 413 259 437 278 463 C 297 489 307 522 307 560 C 307 594 296 620 276 640 C 256 660 230 670 200 670 C 172 670 148 662 128 648 C 108 633 90 615 76 593 L 25 641 C 48 674 76 699 110 716 C 144 733 179 742 216 742 C 272 742 315 726 347 696 C 379 665 395 623 395 570 C 395 544 391 521 385 501 C 378 480 369 461 359 444 C 349 426 337 410 324 395 C 311 379 299 365 287 351 C 267 331 254 306 248 278 C 241 250 237 223 237 199 L 157 199 Z M 153 0 L 153 106 L 244 106 L 244 0 L 153 0 Z" unicode="?" />
<glyph horiz-adv-x="831" d="M 412 -36 C 358 -36 308 -26 262 -6 C 216 14 176 41 143 75 C 110 109 84 149 66 195 C 47 241 38 291 38 343 C 38 395 47 445 66 491 C 85 537 111 577 145 611 C 178 645 218 671 264 691 C 310 711 361 721 416 721 C 472 721 524 712 571 695 C 617 678 657 654 690 624 C 722 593 748 556 766 514 C 784 471 794 424 794 374 C 794 329 788 291 778 260 C 767 229 754 204 738 185 C 722 165 704 151 685 143 C 666 134 648 130 632 130 C 601 130 576 137 558 152 C 539 166 527 184 523 206 C 514 189 495 172 467 155 C 438 138 405 130 368 130 C 317 130 279 142 255 166 C 230 190 218 221 218 259 C 218 303 236 337 273 362 C 309 387 356 400 412 400 L 514 400 L 514 412 C 514 448 504 473 486 487 C 467 500 442 507 412 507 C 386 507 363 503 341 497 C 319 491 300 484 285 478 L 261 536 C 280 545 303 553 330 559 C 357 565 384 569 411 569 C 467 569 509 555 539 527 C 569 499 584 457 584 399 L 584 247 C 584 231 587 217 595 205 C 602 192 616 186 637 186 C 645 186 655 188 667 194 C 678 199 688 208 698 222 C 708 235 716 254 723 278 C 729 302 733 332 733 370 C 733 412 725 451 710 487 C 695 523 674 553 647 579 C 619 605 586 625 547 640 C 507 655 464 663 416 663 C 370 663 327 654 289 638 C 250 621 217 598 189 570 C 161 541 140 507 124 468 C 108 428 101 387 101 343 C 101 299 108 258 124 219 C 140 179 161 145 189 116 C 217 87 250 64 289 47 C 327 30 369 22 415 22 C 435 22 456 24 478 28 C 500 32 522 39 546 51 L 569 -2 C 541 -14 515 -23 489 -28 C 463 -33 437 -36 412 -36 Z M 383 191 C 412 191 440 197 467 211 C 493 224 509 237 514 251 L 514 342 L 412 342 C 372 342 343 335 324 321 C 305 307 296 289 296 265 C 296 243 303 225 319 211 C 334 197 355 191 383 191 Z" unicode="@" />
<glyph horiz-adv-x="475" d="M 473 0 L 387 0 L 336 184 L 134 184 L 86 0 L 2 0 L 206 734 L 268 734 L 473 0 Z M 320 259 L 235 560 L 150 259 L 320 259 Z" unicode="A" />
<glyph horiz-adv-x="449" d="M 63 0 L 63 730 L 229 730 C 278 730 319 714 353 684 C 386 654 403 612 403 558 C 403 506 391 466 368 437 C 344 407 318 390 288 385 C 304 384 320 380 336 372 C 352 364 366 352 380 338 C 393 323 404 305 412 283 C 420 261 425 235 425 207 C 425 145 408 95 375 57 C 341 19 298 0 246 0 L 63 0 Z M 149 414 L 213 414 C 249 414 275 426 291 452 C 307 478 315 507 315 540 C 315 574 306 602 288 622 C 270 642 243 652 205 652 L 149 652 L 149 414 Z M 149 80 L 226 80 C 264 80 292 92 310 118 C 328 144 337 175 337 213 C 337 255 325 286 303 307 C 281 328 252 339 216 339 L 149 339 L 149 80 Z" unicode="B" />
<glyph horiz-adv-x="476" d="M 271 -7 C 237 -7 206 0 177 16 C 148 31 123 54 103 85 C 82 115 66 154 54 201 C 42 248 36 303 36 366 C 36 484 56 575 97 640 C 138 704 196 737 271 737 C 331 737 375 723 403 696 C 431 669 451 637 464 601 L 385 571 C 375 593 361 613 345 630 C 329 646 305 655 273 655 C 227 655 192 632 166 586 C 140 540 127 465 127 361 C 127 308 131 263 140 227 C 148 190 160 160 174 138 C 188 116 205 100 223 90 C 241 80 260 75 279 75 C 312 75 337 82 355 98 C 372 113 386 135 398 163 L 471 135 C 455 91 431 57 399 31 C 367 5 325 -7 271 -7 Z" unicode="C" />
<glyph horiz-adv-x="534" d="M 63 0 L 63 730 L 217 730 C 262 730 302 721 338 704 C 373 686 402 662 426 630 C 450 598 468 560 480 515 C 492 469 499 419 499 363 C 499 312 493 264 481 220 C 469 176 451 137 427 105 C 403 73 373 47 337 28 C 300 9 257 0 209 0 L 63 0 Z M 152 78 L 209 78 C 245 78 275 84 301 98 C 326 112 346 131 362 156 C 378 180 389 210 397 245 C 404 280 408 319 408 361 C 408 458 391 531 358 579 C 324 627 278 651 218 651 L 152 651 L 152 78 Z" unicode="D" />
<glyph horiz-adv-x="388" d="M 378 0 L 63 0 L 63 730 L 361 730 L 361 649 L 150 649 L 150 405 L 353 405 L 353 324 L 150 324 L 150 81 L 378 81 L 378 0 Z" unicode="E" />
<glyph horiz-adv-x="350" d="M 345 649 L 153 649 L 153 406 L 334 406 L 334 324 L 153 324 L 153 0 L 63 0 L 63 730 L 345 730 L 345 649 Z" unicode="F" />
<glyph horiz-adv-x="523" d="M 280 359 L 495 359 L 495 117 C 477 79 449 49 413 27 C 376 4 330 -7 276 -7 C 242 -7 211 1 182 18 C 152 34 127 58 106 90 C 84 122 67 161 55 207 C 42 253 36 306 36 365 C 36 421 41 473 53 519 C 64 565 80 605 101 637 C 122 669 148 693 178 711 C 208 728 241 737 277 737 C 332 737 375 723 405 697 C 435 671 458 640 473 604 L 396 574 C 385 596 371 616 353 632 C 335 648 309 656 276 656 C 232 656 196 632 168 584 C 140 536 126 463 126 364 C 126 265 140 191 170 143 C 200 94 236 70 280 70 C 312 70 340 76 362 88 C 384 100 401 116 414 138 L 414 282 L 280 282 L 280 359 Z" unicode="G" />
<glyph horiz-adv-x="536" d="M 473 0 L 383 0 L 383 318 L 153 318 L 153 0 L 63 0 L 63 730 L 153 730 L 153 403 L 383 403 L 383 730 L 473 730 L 473 0 Z" unicode="H" />
<glyph horiz-adv-x="224" d="M 158 0 L 67 0 L 67 730 L 158 730 L 158 0 Z" unicode="I" />
<glyph horiz-adv-x="285" d="M 227 730 L 227 182 C 227 127 212 82 184 46 C 156 10 118 -8 70 -8 C 59 -8 47 -7 33 -5 C 19 -3 9 -1 3 1 L 4 85 C 8 82 15 80 24 78 C 32 76 41 76 51 76 C 78 76 99 88 114 113 C 129 137 137 167 137 201 L 137 730 L 227 730 Z" unicode="J" />
<glyph horiz-adv-x="486" d="M 496 0 L 396 0 L 191 345 L 153 295 L 153 0 L 63 0 L 63 730 L 153 730 L 153 395 L 381 730 L 479 730 L 255 403 L 496 0 Z" unicode="K" />
<glyph horiz-adv-x="357" d="M 351 0 L 63 0 L 63 730 L 153 730 L 153 81 L 351 81 L 351 0 Z" unicode="L" />
<glyph horiz-adv-x="643" d="M 580 0 L 495 0 L 495 527 L 344 143 L 302 143 L 148 527 L 148 0 L 63 0 L 63 730 L 139 730 L 323 289 L 509 730 L 580 730 L 580 0 Z" unicode="M" />
<glyph horiz-adv-x="535" d="M 472 0 L 408 0 L 147 522 L 147 0 L 63 0 L 63 730 L 127 730 L 391 210 L 391 730 L 472 730 L 472 0 Z" unicode="N" />
<glyph horiz-adv-x="569" d="M 287 -7 C 208 -7 146 25 102 90 C 58 154 36 248 36 371 C 36 485 58 575 102 640 C 146 704 206 737 282 737 C 362 737 423 705 467 641 C 511 577 533 485 533 365 C 533 248 510 157 464 91 C 418 25 359 -7 287 -7 Z M 285 71 C 333 71 371 95 399 144 C 427 193 442 269 442 371 C 442 466 427 538 398 586 C 369 634 331 658 283 658 C 233 658 194 634 167 586 C 140 538 127 464 127 364 C 127 262 141 188 170 141 C 199 94 237 71 285 71 Z" unicode="O" />
<glyph horiz-adv-x="438" d="M 63 0 L 63 730 L 237 730 C 262 730 286 725 309 716 C 331 706 351 693 368 676 C 384 658 397 637 407 611 C 417 585 422 555 422 523 C 422 455 404 402 369 362 C 333 322 290 303 238 303 L 153 303 L 153 0 L 63 0 Z M 153 381 L 210 381 C 248 381 278 392 300 415 C 322 437 334 473 334 522 C 334 566 321 598 296 620 C 271 642 242 653 209 653 L 153 653 L 153 381 Z" unicode="P" />
<glyph horiz-adv-x="569" d="M 505 -78 L 505 -157 C 465 -149 425 -131 386 -101 C 347 -71 316 -40 294 -6 C 293 -6 292 -6 290 -6 C 288 -6 287 -6 287 -6 C 209 -6 148 26 103 90 C 58 154 36 248 36 371 C 36 485 58 575 104 640 C 149 704 208 737 282 737 C 361 737 423 705 467 641 C 511 577 533 485 533 365 C 533 273 518 197 488 137 C 458 76 420 34 372 12 C 390 -10 412 -30 437 -47 C 462 -64 485 -74 505 -78 Z M 285 65 C 332 65 370 90 399 141 C 427 192 442 268 442 370 C 442 470 427 544 397 591 C 367 638 329 662 283 662 C 233 662 194 638 167 591 C 140 543 127 467 127 363 C 127 262 141 187 170 138 C 198 89 237 65 285 65 Z" unicode="Q" />
<glyph horiz-adv-x="458" d="M 63 0 L 63 730 L 217 730 C 269 730 313 713 348 681 C 382 649 400 600 400 536 C 400 482 388 437 365 401 C 342 365 314 343 280 337 L 278 334 L 456 0 L 360 0 L 193 316 L 146 316 L 146 0 L 63 0 Z M 146 392 L 210 392 C 240 393 264 405 284 427 C 304 449 314 481 314 522 C 314 566 303 598 282 619 C 260 640 234 651 204 651 L 146 651 L 146 392 Z" unicode="R" />
<glyph horiz-adv-x="404" d="M 203 -7 C 165 -7 131 0 101 13 C 71 26 43 49 19 81 L 66 140 C 82 114 102 95 125 83 C 148 70 172 64 197 64 C 223 64 247 74 267 95 C 287 115 297 143 297 178 C 297 214 289 243 273 266 C 257 289 227 316 182 346 C 136 375 101 405 75 436 C 49 466 36 509 36 565 C 36 591 40 615 50 637 C 59 658 71 676 87 691 C 103 705 121 717 142 725 C 163 733 185 737 209 737 C 247 737 280 730 306 718 C 332 705 352 690 367 674 L 321 613 C 309 625 293 636 274 645 C 255 654 235 659 213 659 C 189 659 167 650 149 633 C 131 616 122 592 122 560 C 122 529 130 504 145 484 C 160 464 191 440 237 411 C 289 378 327 344 349 308 C 371 272 383 230 383 180 C 383 150 377 123 367 100 C 357 76 343 57 327 41 C 310 25 291 13 269 5 C 247 -2 225 -7 203 -7 Z" unicode="S" />
<glyph horiz-adv-x="373" d="M 366 649 L 231 649 L 231 0 L 141 0 L 141 649 L 7 649 L 7 730 L 366 730 L 366 649 Z" unicode="T" />
<glyph horiz-adv-x="534" d="M 475 730 L 475 216 C 475 176 469 141 457 113 C 445 85 430 62 411 44 C 391 26 369 13 343 5 C 317 -2 290 -7 262 -7 C 235 -7 209 -3 185 5 C 160 13 138 25 120 43 C 101 61 86 84 75 112 C 64 140 59 175 59 216 L 59 730 L 147 730 L 147 215 C 147 161 158 124 181 102 C 203 80 232 70 266 70 C 298 70 326 80 350 101 C 373 121 385 159 385 215 L 385 730 L 475 730 Z" unicode="U" />
<glyph horiz-adv-x="458" d="M 456 730 L 260 -4 L 193 -4 L 2 730 L 89 730 L 231 184 L 370 730 L 456 730 Z" unicode="V" />
<glyph horiz-adv-x="682" d="M 664 730 L 514 -3 L 452 -3 L 335 537 L 215 -3 L 154 -3 L 5 730 L 90 730 L 191 190 L 305 730 L 372 730 L 484 189 L 587 730 L 664 730 Z" unicode="W" />
<glyph horiz-adv-x="438" d="M 341 0 L 217 283 L 92 0 L 6 0 L 174 380 L 21 730 L 109 730 L 218 480 L 329 730 L 414 730 L 261 383 L 429 0 L 341 0 Z" unicode="X" />
<glyph horiz-adv-x="457" d="M 459 730 L 271 295 L 271 0 L 181 0 L 181 296 L -1 730 L 92 730 L 231 391 L 372 730 L 459 730 Z" unicode="Y" />
<glyph horiz-adv-x="418" d="M 391 730 L 391 684 L 125 81 L 402 81 L 402 0 L 15 0 L 15 44 L 286 647 L 45 647 L 45 730 L 391 730 Z" unicode="Z" />
<glyph horiz-adv-x="216" d="M 195 -179 L 48 -179 L 48 730 L 195 730 L 195 665 L 127 665 L 127 -111 L 195 -111 L 195 -179 Z" unicode="[" />
<glyph horiz-adv-x="302" d="M 4 730 L 79 730 L 298 0 L 222 0 L 4 730 Z" unicode="\" />
<glyph horiz-adv-x="218" d="M 172 -179 L 24 -179 L 24 -115 L 92 -115 L 92 666 L 24 666 L 24 730 L 172 730 L 172 -179 Z" unicode="]" />
<glyph horiz-adv-x="431" d="M 408 369 L 335 369 L 213 646 L 94 369 L 22 369 L 178 730 L 250 730 L 408 369 Z" unicode="^" />
<glyph horiz-adv-x="426" d="M 426 -154 L 0 -154 L 0 -86 L 426 -86 L 426 -154 Z" unicode="_" />
<glyph horiz-adv-x="500" d="M 336 498 L 256 498 L 158 670 L 252 670 L 336 498 Z" unicode="`" />
<glyph horiz-adv-x="368" d="M 326 0 L 251 0 L 251 50 C 239 34 223 20 204 10 C 184 0 161 -5 135 -5 C 103 -5 76 6 54 29 C 32 52 21 85 21 128 C 21 176 36 210 66 232 C 96 254 132 266 172 269 L 248 273 L 248 300 C 248 326 241 346 227 359 C 213 371 193 378 166 378 C 142 378 123 374 108 367 C 93 360 82 353 74 345 L 50 398 C 64 412 83 423 105 431 C 127 439 155 444 189 444 C 227 444 259 433 286 411 C 312 389 326 357 326 313 L 326 0 Z M 250 101 L 250 213 L 187 209 C 165 207 144 200 125 188 C 106 175 97 155 97 129 C 97 106 104 90 120 80 C 135 70 151 65 169 65 C 188 65 204 68 218 76 C 231 83 242 91 250 101 Z" unicode="a" />
<glyph horiz-adv-x="402" d="M 232 -4 C 203 -4 179 2 161 15 C 142 28 128 44 120 64 L 120 0 L 42 0 L 42 783 L 121 783 L 121 357 C 128 377 141 396 161 414 C 180 432 206 441 239 441 C 281 441 315 421 341 382 C 367 343 380 292 380 230 C 380 156 366 99 338 58 C 310 16 274 -4 232 -4 Z M 203 57 C 231 57 252 71 268 99 C 284 127 292 167 292 219 C 292 267 284 304 269 331 C 253 357 232 371 205 371 C 180 371 159 358 143 334 C 126 309 118 267 118 208 C 118 146 127 105 145 86 C 163 66 182 57 203 57 Z" unicode="b" />
<glyph horiz-adv-x="337" d="M 279 116 L 331 76 C 321 58 307 40 288 22 C 269 4 239 -5 197 -5 C 141 -5 97 15 67 57 C 37 99 22 152 22 217 C 22 247 25 275 33 303 C 41 330 52 354 67 374 C 81 394 100 411 122 423 C 144 435 170 441 200 441 C 235 441 263 433 284 417 C 305 401 322 383 334 365 L 283 315 C 274 329 263 342 251 354 C 239 366 222 372 200 372 C 171 372 148 357 132 329 C 116 300 108 264 108 220 C 108 168 117 128 135 101 C 153 74 177 61 205 61 C 225 61 241 67 252 80 C 263 92 272 104 279 116 Z" unicode="c" />
<glyph horiz-adv-x="416" d="M 178 -5 C 154 -5 132 0 113 11 C 93 22 77 37 64 57 C 50 77 40 100 33 127 C 25 153 22 182 22 214 C 22 282 37 337 67 378 C 97 418 135 439 181 439 C 212 439 237 430 256 414 C 275 398 288 378 295 356 L 295 783 L 373 783 L 373 0 L 298 0 L 298 70 C 291 53 279 36 261 20 C 243 3 216 -5 178 -5 Z M 203 59 C 231 59 254 73 271 102 C 288 130 297 170 297 221 C 297 271 287 308 269 333 C 250 358 227 371 199 371 C 170 371 148 357 132 330 C 116 303 109 265 109 217 C 109 170 117 132 133 103 C 149 73 173 59 203 59 Z" unicode="d" />
<glyph horiz-adv-x="381" d="M 199 -5 C 146 -5 103 14 71 53 C 38 91 22 146 22 216 C 22 251 26 283 35 311 C 44 339 56 362 72 381 C 87 400 105 415 126 425 C 146 435 168 441 191 441 C 245 441 286 420 315 380 C 343 340 358 279 358 198 L 105 198 C 105 144 114 108 132 88 C 150 68 174 58 203 58 C 231 58 252 63 268 74 C 283 85 297 98 310 113 L 353 71 C 339 53 321 36 298 20 C 275 3 242 -5 199 -5 Z M 108 255 L 279 255 C 278 293 271 323 257 345 C 243 367 223 378 197 378 C 170 378 149 367 134 345 C 119 323 110 293 108 255 Z" unicode="e" />
<glyph horiz-adv-x="213" d="M 202 366 L 145 366 L 145 0 L 63 0 L 63 366 L 18 366 L 18 436 L 63 436 L 63 669 C 63 705 73 734 95 755 C 116 775 138 786 161 786 C 174 786 186 784 197 781 C 208 778 216 775 221 771 L 200 704 C 197 704 193 705 189 707 C 184 709 180 710 176 710 C 166 710 158 705 152 696 C 146 686 144 671 144 649 L 144 436 L 202 436 L 202 366 Z" unicode="f" />
<glyph horiz-adv-x="413" d="M 184 -2 C 136 -2 97 17 67 55 C 37 93 22 146 22 214 C 22 249 26 281 35 309 C 43 337 55 360 69 379 C 83 398 100 413 120 423 C 140 433 160 439 182 439 C 210 439 234 430 253 414 C 272 397 286 378 295 358 L 295 436 L 371 436 L 371 8 C 371 -26 366 -57 356 -83 C 346 -109 332 -130 316 -147 C 300 -163 281 -176 260 -184 C 238 -192 217 -196 195 -196 C 164 -196 139 -192 119 -186 C 99 -180 85 -173 75 -167 L 97 -108 C 108 -114 121 -119 137 -123 C 152 -127 170 -129 191 -129 C 221 -129 246 -117 265 -94 C 283 -71 293 -38 293 5 L 293 75 C 286 55 273 38 255 22 C 236 6 212 -2 184 -2 Z M 202 57 C 230 57 252 70 270 98 C 288 126 297 167 297 221 C 297 273 286 311 266 337 C 246 363 224 376 200 376 C 172 376 149 362 133 334 C 117 306 109 267 109 218 C 109 170 116 131 131 101 C 146 71 170 57 202 57 Z" unicode="g" />
<glyph horiz-adv-x="397" d="M 355 0 L 273 0 L 273 289 C 273 316 266 336 254 349 C 241 362 224 369 202 369 C 181 369 163 362 148 349 C 132 335 125 311 125 275 L 125 0 L 42 0 L 42 783 L 120 783 L 120 369 C 126 389 139 407 157 421 C 175 435 200 442 232 442 C 268 442 298 432 321 413 C 343 393 355 362 355 318 L 355 0 Z" unicode="h" />
<glyph horiz-adv-x="172" d="M 43 530 L 43 617 L 129 617 L 129 530 L 43 530 Z M 45 0 L 45 436 L 127 436 L 127 0 L 45 0 Z" unicode="i" />
<glyph horiz-adv-x="172" d="M 132 530 L 46 530 L 46 617 L 132 617 L 132 530 Z M 130 436 L 130 -107 C 130 -133 122 -156 106 -174 C 90 -192 69 -201 43 -201 C 32 -201 21 -199 9 -197 C -2 -195 -10 -192 -14 -190 L 3 -127 C 5 -127 8 -128 11 -129 C 14 -129 18 -130 22 -130 C 29 -130 35 -126 40 -120 C 45 -114 48 -105 48 -95 L 48 436 L 130 436 Z" unicode="j" />
<glyph horiz-adv-x="363" d="M 371 2 L 284 -1 L 180 187 L 124 107 L 124 0 L 42 0 L 42 783 L 120 783 L 120 202 L 277 436 L 360 436 L 236 250 L 371 2 Z" unicode="k" />
<glyph horiz-adv-x="167" d="M 125 800 L 125 0 L 42 0 L 42 800 L 125 800 Z" unicode="l" />
<glyph horiz-adv-x="621" d="M 42 0 L 42 436 L 118 436 L 118 370 C 124 394 138 412 158 424 C 178 436 204 442 235 442 C 265 442 290 435 308 421 C 326 407 338 390 344 368 L 347 368 C 354 390 367 408 386 422 C 405 435 430 442 461 442 C 495 442 524 432 546 414 C 568 395 579 365 579 323 L 579 0 L 498 0 L 498 283 C 498 314 491 336 478 349 C 464 362 447 369 426 369 C 406 369 388 362 373 348 C 358 334 351 308 351 270 L 351 0 L 270 0 L 270 286 C 270 319 263 341 250 352 C 237 363 221 369 203 369 C 184 369 166 362 149 348 C 131 334 123 308 123 270 L 123 0 L 42 0 Z" unicode="m" />
<glyph horiz-adv-x="397" d="M 355 0 L 273 0 L 273 298 C 273 321 266 339 254 351 C 241 363 224 369 204 369 C 182 369 164 362 148 349 C 132 335 125 311 125 275 L 125 0 L 42 0 L 42 436 L 120 436 L 120 369 C 126 390 139 407 157 421 C 175 435 201 442 235 442 C 271 442 300 432 322 414 C 344 396 355 367 355 328 L 355 0 Z" unicode="n" />
<glyph horiz-adv-x="394" d="M 198 -5 C 146 -5 104 14 71 52 C 38 90 22 145 22 216 C 22 283 37 337 69 379 C 101 420 142 441 192 441 C 246 441 290 421 323 383 C 355 344 372 292 372 228 C 372 158 356 102 325 59 C 294 16 252 -5 198 -5 Z M 197 60 C 225 60 247 73 262 100 C 277 127 285 167 285 219 C 285 271 277 310 261 336 C 245 361 223 374 195 374 C 168 374 147 361 132 335 C 116 309 109 271 109 219 C 109 163 117 122 133 97 C 149 72 170 60 197 60 Z" unicode="o" />
<glyph horiz-adv-x="401" d="M 42 -200 L 42 436 L 119 436 L 119 351 C 125 374 139 395 160 413 C 180 431 206 440 237 440 C 281 440 315 421 341 383 C 367 345 380 295 380 232 C 380 158 365 101 336 59 C 307 17 269 -4 223 -4 C 198 -4 176 1 158 13 C 139 25 126 38 120 54 L 120 -200 L 42 -200 Z M 201 56 C 229 56 252 69 268 96 C 284 123 293 163 293 215 C 293 263 286 301 272 330 C 258 359 236 374 205 374 C 182 374 162 362 144 339 C 126 316 117 273 117 209 C 117 149 125 108 141 87 C 157 66 177 56 201 56 Z" unicode="p" />
<glyph horiz-adv-x="416" d="M 295 -200 L 295 74 C 287 53 273 35 253 19 C 232 3 207 -4 179 -4 C 154 -4 132 1 113 13 C 93 25 77 40 64 60 C 50 80 40 103 33 130 C 25 157 22 186 22 217 C 22 283 36 337 66 379 C 95 421 132 442 176 442 C 210 442 237 433 257 416 C 277 398 292 378 300 355 L 300 436 L 373 436 L 373 -200 L 295 -200 Z M 201 60 C 229 60 252 73 270 100 C 288 127 297 167 297 219 C 297 268 287 306 269 332 C 251 358 228 372 201 372 C 172 372 149 358 133 331 C 117 303 109 265 109 215 C 109 171 117 134 133 104 C 149 74 172 60 201 60 Z" unicode="q" />
<glyph horiz-adv-x="290" d="M 294 411 L 268 343 C 258 352 248 358 239 362 C 229 365 219 367 207 367 C 198 367 189 365 179 362 C 169 359 161 353 153 345 C 145 337 138 325 133 311 C 127 296 125 277 125 255 L 125 0 L 42 0 L 42 436 L 122 436 L 122 360 C 128 381 140 400 157 416 C 174 432 194 441 217 441 C 234 441 249 438 263 432 C 276 426 286 419 294 411 Z" unicode="r" />
<glyph horiz-adv-x="303" d="M 160 -6 C 129 -6 101 0 77 11 C 53 23 33 38 19 57 L 57 112 C 69 96 85 83 103 74 C 121 64 138 60 155 60 C 169 60 182 64 195 74 C 207 84 214 98 214 117 C 214 133 207 148 193 160 C 179 172 157 186 127 202 C 96 218 72 236 55 255 C 38 273 30 299 30 333 C 30 363 42 388 66 409 C 90 430 118 441 150 441 C 178 441 203 436 223 427 C 243 418 259 408 273 398 L 230 346 C 222 352 212 358 198 364 C 184 370 170 373 157 373 C 140 373 126 369 115 361 C 104 353 99 342 99 328 C 99 314 105 302 117 292 C 129 282 151 268 182 252 C 218 232 243 213 259 195 C 275 176 283 150 283 116 C 283 96 279 79 271 64 C 263 48 254 35 242 25 C 230 15 216 7 202 2 C 188 -3 174 -6 160 -6 Z" unicode="s" />
<glyph horiz-adv-x="213" d="M 195 75 L 211 14 C 205 10 198 5 188 1 C 178 -2 165 -5 149 -5 C 141 -5 131 -3 120 0 C 109 3 99 9 89 17 C 79 25 70 37 63 52 C 56 66 53 85 53 108 L 53 366 L 14 366 L 14 436 L 56 436 L 56 578 L 134 587 L 134 436 L 195 436 L 195 366 L 136 366 L 136 105 C 136 93 139 83 145 77 C 151 70 159 67 169 67 C 173 67 178 67 183 69 C 188 71 192 73 195 75 Z" unicode="t" />
<glyph horiz-adv-x="397" d="M 42 436 L 124 436 L 124 138 C 124 109 130 88 143 76 C 155 64 173 58 196 58 C 216 58 233 64 249 78 C 264 92 272 118 272 158 L 272 436 L 354 436 L 354 0 L 275 0 L 275 55 C 268 36 255 21 236 10 C 217 0 193 -6 165 -6 C 131 -6 102 3 78 23 C 54 42 42 74 42 118 L 42 436 Z" unicode="u" />
<glyph horiz-adv-x="330" d="M 332 436 L 201 -2 L 129 -2 L -3 436 L 84 436 L 169 136 L 252 436 L 332 436 Z" unicode="v" />
<glyph horiz-adv-x="536" d="M 345 -2 L 267 265 L 190 -2 L 122 -2 L 1 436 L 80 436 L 164 118 L 239 391 L 301 391 L 376 118 L 464 436 L 535 436 L 411 -2 L 345 -2 Z" unicode="w" />
<glyph horiz-adv-x="336" d="M 247 0 L 166 146 L 87 0 L 4 0 L 124 222 L 5 436 L 92 436 L 167 301 L 240 436 L 324 436 L 209 224 L 333 0 L 247 0 Z" unicode="x" />
<glyph horiz-adv-x="331" d="M 334 436 L 165 -111 C 155 -141 140 -164 118 -178 C 96 -192 71 -200 45 -200 C 33 -200 21 -198 11 -196 C 1 -193 -7 -190 -13 -187 L 14 -121 C 16 -122 21 -124 28 -126 C 35 -128 43 -130 52 -130 C 62 -130 71 -125 81 -116 C 90 -107 97 -94 102 -77 L 133 34 L -3 436 L 84 436 L 173 151 L 253 436 L 334 436 Z" unicode="y" />
<glyph horiz-adv-x="316" d="M 299 436 L 299 395 L 118 70 L 305 70 L 305 0 L 11 0 L 11 35 L 201 366 L 24 366 L 24 436 L 299 436 Z" unicode="z" />
<glyph horiz-adv-x="252" d="M 232 -179 C 206 -178 181 -174 158 -166 C 134 -158 114 -147 96 -134 C 78 -120 64 -104 54 -86 C 44 -68 39 -48 39 -28 C 39 -3 42 19 48 40 C 54 60 60 79 68 95 C 75 111 82 126 89 140 C 95 154 99 169 99 184 C 99 200 90 216 74 231 C 58 246 39 254 17 254 L 17 316 C 39 316 58 324 75 340 C 92 356 101 373 101 393 C 101 399 97 411 91 427 C 84 443 76 460 68 478 C 59 496 52 514 47 532 C 42 550 40 568 40 586 C 40 606 45 626 55 646 C 65 665 79 682 97 697 C 114 712 134 724 158 734 C 181 743 206 748 232 749 L 232 688 C 205 687 180 676 158 655 C 136 634 125 609 125 580 C 125 569 126 557 130 543 C 134 529 139 515 146 501 C 155 481 164 462 172 445 C 180 428 184 413 184 400 C 184 372 175 348 159 327 C 143 306 119 292 89 285 C 120 277 144 263 160 242 C 176 221 184 198 184 174 C 184 154 180 137 173 123 C 165 109 158 94 150 80 C 142 65 136 50 132 34 C 127 18 125 4 125 -10 C 125 -35 135 -59 157 -82 C 178 -105 203 -117 232 -118 L 232 -179 Z" unicode="{" />
<glyph horiz-adv-x="226" d="M 153 -179 L 73 -179 L 73 730 L 153 730 L 153 -179 Z" unicode="|" />
<glyph horiz-adv-x="252" d="M 20 -179 L 20 -118 C 48 -117 73 -105 95 -82 C 117 -59 128 -35 128 -10 C 128 4 125 18 121 34 C 116 50 110 65 102 80 C 94 94 86 109 79 123 C 72 137 69 154 69 174 C 69 198 76 221 92 242 C 107 263 130 277 160 285 C 130 292 108 306 92 327 C 76 348 69 372 69 400 C 69 413 72 428 80 445 C 88 462 96 481 106 501 C 113 515 118 529 122 543 C 125 557 127 569 127 580 C 127 609 115 634 93 655 C 71 676 46 687 20 688 L 20 749 C 46 748 70 743 94 734 C 117 724 137 712 155 697 C 172 682 186 665 196 646 C 206 626 212 606 212 586 C 212 568 209 550 204 532 C 199 514 192 496 184 478 C 175 460 167 443 161 427 C 154 411 151 399 151 393 C 151 373 159 356 176 340 C 193 324 213 316 235 316 L 235 254 C 213 254 193 246 177 231 C 161 216 153 200 153 184 C 153 169 156 154 163 140 C 169 126 176 111 184 95 C 191 79 198 60 204 40 C 210 19 213 -3 213 -28 C 213 -48 207 -68 197 -86 C 187 -104 173 -120 155 -134 C 137 -147 117 -158 94 -166 C 70 -174 46 -178 20 -179 Z" unicode="}" />
<glyph horiz-adv-x="448" d="M 359 439 L 420 439 C 418 391 410 353 396 325 C 382 296 358 282 325 282 C 301 282 281 287 267 298 C 252 308 238 320 225 333 C 211 346 199 357 188 367 C 176 377 163 382 147 382 C 132 382 118 373 106 355 C 94 337 88 313 88 285 L 29 285 C 29 333 38 372 56 400 C 74 428 100 443 133 443 C 156 443 175 436 191 424 C 207 412 221 399 235 387 C 247 375 259 365 270 355 C 281 345 294 341 309 341 C 329 341 342 349 349 365 C 355 381 359 406 359 439 Z" unicode="~" />
<glyph horiz-adv-x="256" d="M 87 596 L 170 596 L 170 499 L 87 499 L 87 596 Z M 82 176 L 111 407 L 148 407 L 174 176 L 174 -118 L 82 -118 L 82 176 Z" unicode="¡" />
<glyph horiz-adv-x="345" d="M 335 150 C 324 138 311 125 295 112 C 279 99 255 91 222 89 L 222 -22 L 174 -22 L 174 90 C 124 96 87 119 61 159 C 35 199 22 250 22 310 C 22 337 25 363 31 389 C 37 414 47 437 60 457 C 72 477 88 493 107 506 C 126 519 148 528 174 532 L 174 642 L 222 642 L 222 533 C 252 530 276 522 294 508 C 312 494 326 481 337 467 L 294 411 C 286 421 276 431 266 441 C 255 451 240 457 222 459 L 222 154 C 244 154 262 160 274 171 C 286 181 295 191 302 201 L 335 150 Z M 108 311 C 108 273 114 241 126 216 C 138 190 154 173 174 163 L 174 454 C 152 445 136 428 125 402 C 113 376 108 346 108 311 Z" unicode="¢" />
<glyph horiz-adv-x="459" d="M 444 78 L 444 0 L 16 0 L 16 72 C 20 74 28 77 38 79 C 48 81 61 83 77 87 C 99 91 120 102 140 119 C 160 135 170 160 170 193 C 170 195 170 198 170 200 C 170 202 169 205 169 208 L 29 208 L 29 275 L 144 275 C 139 284 134 294 128 305 C 122 315 117 326 112 338 L 29 338 L 29 405 L 83 405 C 76 425 70 447 65 470 C 60 493 58 517 58 543 C 58 580 63 611 75 637 C 86 663 101 683 120 699 C 139 714 161 725 186 732 C 210 738 236 742 263 742 C 301 742 338 733 374 717 C 410 701 435 685 450 671 L 408 600 C 395 612 376 627 351 643 C 326 659 299 667 269 667 C 254 667 239 664 225 660 C 210 656 197 648 186 638 C 174 627 165 613 158 595 C 151 577 148 554 148 528 C 148 506 150 485 156 465 C 161 444 167 424 175 405 L 394 405 L 394 338 L 205 338 C 209 327 214 316 219 306 C 224 295 228 285 232 275 L 394 275 L 394 208 L 246 208 C 246 186 243 168 237 153 C 231 137 223 125 215 115 C 207 105 198 97 189 91 C 180 85 173 80 167 78 L 444 78 Z" unicode="£" />
<glyph horiz-adv-x="502" d="M 440 188 L 402 150 L 343 211 C 329 203 315 196 299 192 C 283 188 266 186 250 186 C 233 186 217 188 201 192 C 185 196 170 203 157 211 L 98 150 L 58 190 L 114 248 C 101 262 91 279 84 297 C 77 315 74 334 74 354 C 74 374 77 394 84 412 C 91 430 101 446 114 461 L 58 519 L 96 557 L 156 496 C 169 504 184 510 200 515 C 216 519 232 522 250 522 C 267 522 284 519 300 515 C 316 510 332 503 346 495 L 407 558 L 445 519 L 388 459 C 400 444 409 428 416 410 C 422 392 426 374 426 354 C 426 333 422 313 415 295 C 407 277 397 260 385 246 L 440 188 Z M 250 247 C 280 247 307 257 330 279 C 352 300 364 325 364 354 C 364 382 352 407 330 429 C 307 450 280 461 250 461 C 218 461 192 450 170 429 C 148 407 137 382 137 354 C 137 325 148 300 170 279 C 192 257 218 247 250 247 Z" unicode="¤" />
<glyph horiz-adv-x="459" d="M 423 145 L 273 145 L 273 0 L 183 0 L 183 145 L 37 145 L 37 212 L 183 212 L 183 256 L 37 256 L 37 323 L 183 323 L 183 332 L 7 730 L 102 730 L 230 417 L 363 730 L 452 730 L 273 331 L 273 323 L 423 323 L 423 256 L 273 256 L 273 212 L 423 212 L 423 145 Z" unicode="¥" />
<glyph horiz-adv-x="253" d="M 91 351 L 91 730 L 163 730 L 163 351 L 91 351 Z M 163 200 L 163 -179 L 91 -179 L 91 200 L 163 200 Z" unicode="¦" />
<glyph horiz-adv-x="525" d="M 278 -181 C 232 -181 188 -174 146 -160 C 104 -146 69 -128 41 -106 L 70 -36 C 96 -57 127 -75 163 -90 C 199 -104 233 -112 266 -112 C 296 -112 321 -103 341 -85 C 361 -67 371 -42 371 -10 C 371 18 363 40 349 54 C 334 68 313 83 287 98 L 183 153 C 157 165 134 177 115 188 C 95 198 79 210 67 223 C 55 235 45 250 39 267 C 33 283 30 304 30 328 C 30 359 36 385 50 405 C 63 425 79 441 98 454 C 81 465 69 481 61 501 C 53 521 49 545 49 575 C 49 601 54 625 65 646 C 75 666 90 684 108 698 C 126 712 148 723 173 731 C 198 738 225 742 254 742 C 304 742 346 733 380 717 C 413 700 440 682 461 662 L 421 598 C 396 619 371 637 345 653 C 319 668 288 676 252 676 C 218 676 190 667 168 649 C 146 631 135 606 135 575 C 135 553 141 534 154 520 C 167 506 187 492 213 479 L 347 409 C 391 388 425 365 449 341 C 473 317 485 284 485 244 C 485 210 474 183 453 164 C 431 144 408 134 384 133 C 392 127 400 120 409 112 C 418 104 426 94 434 82 C 442 70 448 57 454 42 C 459 26 462 9 462 -9 C 462 -35 457 -59 447 -81 C 437 -102 424 -120 408 -135 C 392 -149 372 -161 350 -169 C 327 -177 303 -181 278 -181 Z M 325 166 C 341 168 358 175 375 187 C 392 198 401 216 401 241 C 401 263 391 283 372 299 C 353 315 327 332 293 350 L 164 418 C 150 409 138 399 126 387 C 114 375 109 358 109 336 C 109 309 118 288 137 274 C 156 259 183 242 218 224 L 325 166 Z" unicode="§" />
<glyph horiz-adv-x="500" d="M 357 499 L 290 499 L 290 656 L 357 656 L 357 499 Z M 210 499 L 143 499 L 143 656 L 210 656 L 210 499 Z" unicode="¨" />
<glyph horiz-adv-x="814" d="M 407 18 C 357 18 310 27 266 46 C 222 65 183 91 151 124 C 118 156 92 195 73 239 C 54 283 45 330 45 380 C 45 430 54 477 73 521 C 92 565 118 603 151 636 C 183 668 222 694 266 713 C 310 732 357 742 407 742 C 456 742 503 732 547 713 C 591 694 630 668 663 636 C 695 603 721 565 740 521 C 759 477 769 430 769 380 C 769 330 759 283 740 239 C 721 195 695 156 663 124 C 630 91 591 65 547 46 C 503 27 456 18 407 18 Z M 407 74 C 448 74 487 82 524 98 C 561 114 593 136 621 164 C 648 191 670 223 686 261 C 702 298 710 337 710 379 C 710 421 702 460 686 498 C 670 535 648 567 621 595 C 593 623 561 645 524 661 C 487 677 448 686 407 686 C 365 686 325 677 288 661 C 251 645 219 623 192 595 C 164 567 143 535 127 498 C 111 460 103 421 103 379 C 103 337 111 298 127 261 C 143 223 164 191 192 164 C 219 136 251 114 288 98 C 325 82 365 74 407 74 Z M 573 250 C 557 225 536 204 508 188 C 480 172 447 164 407 164 C 381 164 357 168 333 178 C 309 188 289 202 271 220 C 253 238 238 261 227 288 C 216 315 211 346 211 382 C 211 416 216 446 226 474 C 236 502 249 525 266 545 C 283 565 303 580 327 591 C 350 601 375 607 402 607 C 444 607 479 599 505 585 C 531 570 552 551 568 528 L 508 485 C 497 499 484 512 468 522 C 452 532 430 537 404 537 C 370 537 341 522 319 492 C 297 462 286 424 286 379 C 286 331 298 294 323 268 C 348 242 376 229 407 229 C 431 229 452 234 470 246 C 488 257 503 271 514 289 L 573 250 Z" unicode="©" />
<glyph horiz-adv-x="429" d="M 382 313 L 311 313 L 311 374 C 296 353 276 337 251 325 C 226 313 199 307 170 307 C 129 307 96 318 72 341 C 48 364 36 396 36 438 C 36 482 52 516 85 538 C 117 560 161 573 215 576 L 307 583 L 307 591 C 307 619 299 640 283 653 C 267 665 245 672 217 672 C 193 672 171 667 151 659 C 131 651 113 640 99 628 L 62 686 C 81 700 105 713 134 724 C 162 735 194 741 230 741 C 276 741 312 729 340 706 C 368 682 382 645 382 593 L 382 313 Z M 308 423 L 308 520 L 211 514 C 181 512 156 506 138 495 C 119 483 110 465 110 439 C 110 418 117 402 133 390 C 148 378 169 372 195 372 C 217 372 238 376 259 385 C 279 394 296 407 308 423 Z M 386 200 L 43 200 L 43 270 L 386 270 L 386 200 Z" unicode="ª" />
<glyph horiz-adv-x="418" d="M 205 88 L 28 254 L 28 302 L 205 467 L 205 386 L 101 276 L 205 172 L 205 88 Z M 389 88 L 211 254 L 211 302 L 389 467 L 389 386 L 284 276 L 389 173 L 389 88 Z" unicode="«" />
<glyph horiz-adv-x="500" d="M 451 381 L 451 131 L 380 131 L 380 308 L 31 308 L 31 381 L 451 381 Z" unicode="¬" />
<glyph horiz-adv-x="814" d="M 407 18 C 357 18 310 27 266 46 C 222 65 183 91 151 124 C 118 156 92 195 73 239 C 54 283 45 330 45 380 C 45 430 54 477 73 521 C 92 565 118 603 151 636 C 183 668 222 694 266 713 C 310 732 357 742 407 742 C 456 742 503 732 547 713 C 591 694 630 668 663 636 C 695 603 721 565 740 521 C 759 477 769 430 769 380 C 769 330 759 283 740 239 C 721 195 695 156 663 124 C 630 91 591 65 547 46 C 503 27 456 18 407 18 Z M 407 74 C 448 74 487 81 524 97 C 561 113 593 134 621 162 C 648 189 670 221 686 259 C 702 296 710 336 710 379 C 710 422 702 462 686 500 C 670 537 648 569 621 597 C 593 625 561 646 524 662 C 487 678 448 686 407 686 C 365 686 325 678 288 662 C 251 646 219 624 192 596 C 164 568 143 536 127 498 C 111 460 103 421 103 379 C 103 337 111 297 127 260 C 143 222 164 190 192 163 C 219 135 251 114 288 98 C 325 82 365 74 407 74 Z M 276 174 L 276 609 L 424 609 C 441 609 458 606 476 602 C 494 597 509 590 523 580 C 537 570 548 558 556 543 C 564 527 569 509 569 488 C 569 450 558 421 537 403 C 515 384 493 373 471 370 L 470 366 L 598 174 L 519 174 L 409 344 L 347 344 L 347 174 L 276 174 Z M 347 404 L 428 404 C 446 404 462 410 477 423 C 492 436 500 455 501 480 C 501 505 493 522 477 532 C 461 542 441 547 417 547 L 347 547 L 347 404 Z" unicode="®" />
<glyph horiz-adv-x="500" d="M 369 525 L 131 525 L 131 587 L 369 587 L 369 525 Z" unicode="¯" />
<glyph horiz-adv-x="413" d="M 206 389 C 182 389 159 393 137 403 C 115 412 97 424 81 440 C 65 456 53 474 44 496 C 34 518 30 541 30 566 C 30 590 34 612 44 634 C 53 656 65 674 81 690 C 97 706 115 718 137 728 C 159 737 182 742 206 742 C 230 742 253 737 275 728 C 297 718 315 706 331 690 C 347 674 359 656 369 634 C 378 612 383 590 383 566 C 383 516 365 474 331 440 C 297 406 255 389 206 389 Z M 206 455 C 236 455 263 465 285 487 C 307 509 318 535 318 566 C 318 596 307 622 285 644 C 263 665 236 676 206 676 C 176 676 150 665 128 644 C 106 622 96 596 96 566 C 96 535 106 509 128 487 C 150 465 176 455 206 455 Z" unicode="°" />
<glyph horiz-adv-x="500" d="M 474 299 L 286 299 L 286 114 L 215 114 L 215 299 L 26 299 L 26 363 L 215 363 L 215 548 L 286 548 L 286 363 L 474 363 L 474 299 Z M 468 26 L 34 26 L 34 91 L 468 91 L 468 26 Z" unicode="±" />
<glyph horiz-adv-x="342" d="M 308 372 L 28 372 L 28 399 L 190 555 C 197 561 204 570 212 581 C 219 592 223 605 223 620 C 223 635 217 649 206 661 C 194 673 178 679 156 679 C 131 679 113 671 103 656 C 93 641 87 624 87 605 L 22 605 C 22 641 34 672 58 700 C 82 727 118 741 164 741 C 208 741 241 730 263 710 C 285 689 297 664 297 635 C 297 608 292 586 282 568 C 272 550 261 536 250 526 L 147 432 L 308 432 L 308 372 Z" unicode="²" />
<glyph horiz-adv-x="346" d="M 225 569 C 251 565 273 554 290 538 C 306 522 315 501 315 477 C 315 464 312 451 307 438 C 302 424 294 412 282 401 C 270 390 255 381 235 374 C 215 367 191 364 162 364 C 122 364 90 369 67 379 C 43 389 25 399 13 409 L 54 450 C 64 443 77 436 95 430 C 112 423 133 420 158 420 C 190 420 214 426 228 439 C 242 452 249 468 249 487 C 249 506 241 519 225 527 C 209 534 188 538 164 538 L 92 538 L 92 591 L 159 591 C 181 591 198 595 212 603 C 225 611 232 622 232 638 C 232 652 226 663 214 671 C 202 679 184 683 160 683 C 139 683 120 679 102 671 C 84 663 71 653 63 643 L 23 682 C 36 696 54 710 76 723 C 98 735 129 742 170 742 C 211 742 243 733 266 716 C 288 699 300 678 300 652 C 300 630 292 611 278 597 C 263 583 245 573 225 569 Z" unicode="³" />
<glyph horiz-adv-x="500" d="M 164 498 L 248 670 L 342 670 L 244 498 L 164 498 Z" unicode="´" />
<glyph horiz-adv-x="591" d="M 72 -109 L 72 479 L 154 479 L 154 157 C 154 141 157 127 165 115 C 172 103 182 92 194 84 C 206 76 219 69 235 65 C 251 60 267 58 284 58 C 301 58 318 60 336 66 C 354 71 370 79 384 89 C 398 99 409 112 418 128 C 427 144 432 162 432 184 L 432 479 L 514 479 L 514 0 L 438 0 L 438 103 C 427 73 405 48 373 27 C 341 5 307 -5 272 -6 C 245 -6 220 -1 197 9 C 173 20 157 35 148 55 L 148 -109 L 72 -109 Z" unicode="µ" />
<glyph horiz-adv-x="540" d="M 500 -181 L 450 -179 L 450 664 L 355 664 L 355 -179 L 305 -179 L 305 303 L 233 303 C 205 303 179 308 153 320 C 127 331 105 346 86 365 C 66 384 51 406 39 432 C 27 458 22 485 22 513 C 22 543 27 572 38 599 C 49 625 65 648 85 668 C 105 687 129 702 157 713 C 185 724 217 730 251 730 L 500 730 L 500 -181 Z M 306 372 L 306 661 L 272 661 C 226 661 188 647 158 620 C 128 592 114 558 114 516 C 114 478 128 444 158 415 C 187 386 222 372 262 372 L 306 372 Z" unicode="¶" />
<glyph horiz-adv-x="236" d="M 161 282 L 76 282 L 76 406 L 161 406 L 161 282 Z" unicode="·" />
<glyph horiz-adv-x="500" d="M 253 -184 C 231 -184 210 -181 189 -175 C 167 -169 150 -161 138 -151 L 150 -117 C 158 -123 170 -129 185 -135 C 200 -141 216 -144 233 -144 C 247 -144 259 -140 269 -133 C 279 -126 285 -117 285 -105 C 285 -91 280 -82 271 -77 C 262 -71 252 -69 242 -69 C 234 -69 228 -69 222 -71 C 216 -72 210 -74 204 -77 L 190 -62 L 248 12 L 294 12 L 247 -50 C 277 -42 303 -44 324 -56 C 344 -68 355 -85 355 -109 C 355 -133 344 -151 324 -164 C 304 -177 280 -184 253 -184 Z" unicode="¸" />
<glyph horiz-adv-x="318" d="M 143 372 L 143 652 C 135 640 122 630 102 622 C 82 613 65 607 51 605 L 50 678 C 74 681 96 688 114 699 C 132 709 150 723 168 740 L 220 740 L 220 372 L 143 372 Z" unicode="¹" />
<glyph horiz-adv-x="415" d="M 204 306 C 180 306 157 311 135 321 C 113 331 93 345 77 363 C 60 381 46 404 36 431 C 26 457 21 487 21 520 C 21 549 26 577 36 604 C 46 630 59 654 76 674 C 92 694 112 709 134 721 C 156 733 180 739 206 739 C 232 739 257 733 280 723 C 303 713 323 699 340 681 C 356 663 369 641 379 615 C 389 589 394 560 394 530 C 394 498 389 468 379 441 C 369 413 355 390 338 370 C 321 350 301 334 278 323 C 254 311 230 306 204 306 Z M 206 372 C 240 372 267 386 288 416 C 309 445 320 482 320 526 C 320 566 309 601 289 629 C 269 657 241 672 207 672 C 174 672 147 657 126 628 C 105 598 95 562 95 518 C 95 474 105 439 127 412 C 148 385 174 372 206 372 Z M 39 200 L 39 270 L 375 270 L 375 200 L 39 200 Z" unicode="º" />
<glyph horiz-adv-x="418" d="M 30 467 L 207 300 L 207 253 L 30 88 L 30 168 L 134 278 L 30 382 L 30 467 Z M 213 467 L 390 300 L 390 253 L 213 88 L 213 168 L 318 278 L 213 382 L 213 467 Z" unicode="»" />
<glyph horiz-adv-x="699" d="M 12 0 L 12 0 Z M 105 372 L 105 652 C 97 640 84 630 64 622 C 44 613 27 607 13 605 L 12 678 C 36 681 58 688 76 699 C 94 709 112 723 130 740 L 182 740 L 182 372 L 105 372 Z M 573 730 L 200 0 L 127 0 L 500 730 L 573 730 Z M 387 84 L 387 135 L 576 366 L 624 366 L 624 138 L 687 138 L 687 84 L 624 84 L 624 1 L 555 1 L 555 84 L 387 84 Z M 458 136 L 557 136 L 557 263 L 458 136 Z" unicode="¼" />
<glyph horiz-adv-x="765" d="M 12 0 L 12 0 Z M 105 372 L 105 652 C 97 640 84 630 64 622 C 44 613 27 607 13 605 L 12 678 C 36 681 58 688 76 699 C 94 709 112 723 130 740 L 182 740 L 182 372 L 105 372 Z M 573 730 L 200 0 L 127 0 L 500 730 L 573 730 Z M 740 0 L 460 0 L 460 27 L 622 183 C 629 189 636 198 644 209 C 651 220 655 233 655 248 C 655 263 649 277 638 289 C 626 301 610 307 588 307 C 563 307 545 299 535 284 C 525 269 519 252 519 233 L 454 233 C 454 269 466 300 490 328 C 514 355 550 369 596 369 C 640 369 673 358 695 338 C 717 317 729 292 729 263 C 729 236 724 214 714 196 C 704 178 693 164 682 154 L 579 60 L 740 60 L 740 0 Z" unicode="½" />
<glyph horiz-adv-x="760" d="M 14 0 L 14 0 Z M 635 730 L 262 0 L 189 0 L 562 730 L 635 730 Z M 449 84 L 449 135 L 638 366 L 686 366 L 686 138 L 749 138 L 749 84 L 686 84 L 686 1 L 617 1 L 617 84 L 449 84 Z M 520 136 L 619 136 L 619 263 L 520 136 Z M 226 569 C 252 565 274 554 291 538 C 307 522 316 501 316 477 C 316 464 313 451 308 438 C 303 424 295 412 283 401 C 271 390 256 381 236 374 C 216 367 192 364 163 364 C 123 364 91 369 68 379 C 44 389 26 399 14 409 L 55 450 C 65 443 78 436 96 430 C 113 423 134 420 159 420 C 191 420 215 426 229 439 C 243 452 250 468 250 487 C 250 506 242 519 226 527 C 210 534 189 538 165 538 L 93 538 L 93 591 L 160 591 C 182 591 199 595 213 603 C 226 611 233 622 233 638 C 233 652 227 663 215 671 C 203 679 185 683 161 683 C 140 683 121 679 103 671 C 85 663 72 653 64 643 L 24 682 C 37 696 55 710 77 723 C 99 735 130 742 171 742 C 212 742 244 733 267 716 C 289 699 301 678 301 652 C 301 630 293 611 279 597 C 264 583 246 573 226 569 Z" unicode="¾" />
<glyph horiz-adv-x="425" d="M 180 492 L 180 596 L 271 596 L 271 492 L 180 492 Z M 209 -146 C 153 -146 109 -130 77 -100 C 45 -69 29 -27 29 27 C 29 52 32 75 39 96 C 45 116 54 135 65 153 C 75 170 87 186 100 202 C 113 217 126 232 138 246 C 157 266 170 290 176 319 C 182 347 186 374 187 399 L 268 399 C 268 355 262 319 252 290 C 241 260 224 232 202 205 C 184 183 165 159 146 133 C 127 107 118 75 118 37 C 118 3 128 -23 148 -43 C 168 -63 194 -73 225 -73 C 251 -73 275 -65 296 -51 C 317 -36 335 -17 350 5 L 400 -44 C 376 -78 347 -103 314 -120 C 280 -137 245 -146 209 -146 Z" unicode="¿" />
<glyph horiz-adv-x="475" d="M 2 0 L 2 0 Z M 473 0 L 387 0 L 336 184 L 134 184 L 86 0 L 2 0 L 206 734 L 268 734 L 473 0 Z M 320 259 L 235 560 L 150 259 L 320 259 Z M 233 792 L 233 792 Z M 322 792 L 242 792 L 144 964 L 238 964 L 322 792 Z" unicode="À" />
<glyph horiz-adv-x="475" d="M 2 0 L 2 0 Z M 473 0 L 387 0 L 336 184 L 134 184 L 86 0 L 2 0 L 206 734 L 268 734 L 473 0 Z M 320 259 L 235 560 L 150 259 L 320 259 Z M 233 792 L 233 792 Z M 144 792 L 228 964 L 322 964 L 224 792 L 144 792 Z" unicode="Á" />
<glyph horiz-adv-x="475" d="M 2 0 L 2 0 Z M 473 0 L 387 0 L 336 184 L 134 184 L 86 0 L 2 0 L 206 734 L 268 734 L 473 0 Z M 320 259 L 235 560 L 150 259 L 320 259 Z M 233 793 L 233 793 Z M 365 793 L 298 793 L 233 909 L 167 793 L 101 793 L 198 964 L 268 964 L 365 793 Z" unicode="Â" />
<glyph horiz-adv-x="475" d="M 2 0 L 2 0 Z M 473 0 L 387 0 L 336 184 L 134 184 L 86 0 L 2 0 L 206 734 L 268 734 L 473 0 Z M 320 259 L 235 560 L 150 259 L 320 259 Z M 233 800 L 233 800 Z M 319 935 L 381 935 C 381 889 374 855 362 833 C 349 811 333 800 313 800 C 295 800 281 803 269 811 C 257 819 246 827 237 835 C 228 842 219 849 209 857 C 199 865 190 869 180 869 C 171 869 163 863 157 853 C 150 842 146 825 146 803 L 86 803 C 86 848 93 882 108 904 C 122 926 139 938 158 938 C 174 938 189 933 201 925 C 213 917 224 908 234 900 C 242 892 251 885 260 878 C 268 871 277 868 286 868 C 294 868 302 873 309 884 C 315 895 319 912 319 935 Z" unicode="Ã" />
<glyph horiz-adv-x="475" d="M 2 0 L 2 0 Z M 473 0 L 387 0 L 336 184 L 134 184 L 86 0 L 2 0 L 206 734 L 268 734 L 473 0 Z M 320 259 L 235 560 L 150 259 L 320 259 Z M 233 793 L 233 793 Z M 340 793 L 273 793 L 273 950 L 340 950 L 340 793 Z M 193 793 L 126 793 L 126 950 L 193 950 L 193 793 Z" unicode="Ä" />
<glyph horiz-adv-x="475" d="M 2 0 L 2 0 Z M 473 0 L 387 0 L 336 184 L 134 184 L 86 0 L 2 0 L 206 734 L 268 734 L 473 0 Z M 320 259 L 235 560 L 150 259 L 320 259 Z M 233 790 L 233 790 Z M 233 790 C 201 790 175 800 153 822 C 131 844 121 870 121 902 C 121 933 131 959 153 981 C 175 1003 201 1014 233 1014 C 264 1014 291 1003 313 981 C 335 959 346 933 346 902 C 346 870 335 844 313 822 C 291 800 264 790 233 790 Z M 233 837 C 250 837 265 843 277 856 C 289 868 295 884 295 902 C 295 920 289 936 277 948 C 265 960 250 967 233 967 C 215 967 201 960 189 948 C 177 936 171 920 171 902 C 171 884 177 868 189 856 C 201 843 215 837 233 837 Z" unicode="Å" />
<glyph horiz-adv-x="724" d="M 714 0 L 404 0 L 404 217 L 192 217 L 87 0 L 2 0 L 351 730 L 697 730 L 697 656 L 486 656 L 486 398 L 689 398 L 689 324 L 486 324 L 486 74 L 714 74 L 714 0 Z M 404 282 L 404 667 L 217 282 L 404 282 Z" unicode="Æ" />
<glyph horiz-adv-x="476" d="M 36 0 L 36 0 Z M 271 -7 C 237 -7 206 0 177 16 C 148 31 123 54 103 85 C 82 115 66 154 54 201 C 42 248 36 303 36 366 C 36 484 56 575 97 640 C 138 704 196 737 271 737 C 331 737 375 723 403 696 C 431 669 451 637 464 601 L 385 571 C 375 593 361 613 345 630 C 329 646 305 655 273 655 C 227 655 192 632 166 586 C 140 540 127 465 127 361 C 127 308 131 263 140 227 C 148 190 160 160 174 138 C 188 116 205 100 223 90 C 241 80 260 75 279 75 C 312 75 337 82 355 98 C 372 113 386 135 398 163 L 471 135 C 455 91 431 57 399 31 C 367 5 325 -7 271 -7 Z M 267 -1 L 267 -1 Z M 273 -185 C 251 -185 230 -182 209 -176 C 187 -170 170 -162 158 -152 L 170 -118 C 178 -124 190 -130 205 -136 C 220 -142 236 -145 253 -145 C 267 -145 279 -141 289 -134 C 299 -127 305 -118 305 -106 C 305 -92 300 -83 291 -78 C 282 -72 272 -70 262 -70 C 254 -70 248 -70 242 -72 C 236 -73 230 -75 224 -78 L 210 -63 L 268 11 L 314 11 L 267 -51 C 297 -43 323 -45 344 -57 C 364 -69 375 -86 375 -110 C 375 -134 364 -152 344 -165 C 324 -178 300 -185 273 -185 Z" unicode="Ç" />
<glyph horiz-adv-x="388" d="M 63 0 L 63 0 Z M 378 0 L 63 0 L 63 730 L 361 730 L 361 649 L 150 649 L 150 405 L 353 405 L 353 324 L 150 324 L 150 81 L 378 81 L 378 0 Z M 210 792 L 210 792 Z M 299 792 L 219 792 L 121 964 L 215 964 L 299 792 Z" unicode="È" />
<glyph horiz-adv-x="388" d="M 63 0 L 63 0 Z M 378 0 L 63 0 L 63 730 L 361 730 L 361 649 L 150 649 L 150 405 L 353 405 L 353 324 L 150 324 L 150 81 L 378 81 L 378 0 Z M 210 792 L 210 792 Z M 121 792 L 205 964 L 299 964 L 201 792 L 121 792 Z" unicode="É" />
<glyph horiz-adv-x="388" d="M 63 0 L 63 0 Z M 378 0 L 63 0 L 63 730 L 361 730 L 361 649 L 150 649 L 150 405 L 353 405 L 353 324 L 150 324 L 150 81 L 378 81 L 378 0 Z M 210 793 L 210 793 Z M 342 793 L 275 793 L 210 909 L 144 793 L 78 793 L 175 964 L 245 964 L 342 793 Z" unicode="Ê" />
<glyph horiz-adv-x="388" d="M 63 0 L 63 0 Z M 378 0 L 63 0 L 63 730 L 361 730 L 361 649 L 150 649 L 150 405 L 353 405 L 353 324 L 150 324 L 150 81 L 378 81 L 378 0 Z M 210 793 L 210 793 Z M 317 793 L 250 793 L 250 950 L 317 950 L 317 793 Z M 170 793 L 103 793 L 103 950 L 170 950 L 170 793 Z" unicode="Ë" />
<glyph horiz-adv-x="224" d="M 24 0 L 24 0 Z M 158 0 L 67 0 L 67 730 L 158 730 L 158 0 Z M 113 792 L 113 792 Z M 202 792 L 122 792 L 24 964 L 118 964 L 202 792 Z" unicode="Ì" />
<glyph horiz-adv-x="224" d="M 24 0 L 24 0 Z M 158 0 L 67 0 L 67 730 L 158 730 L 158 0 Z M 113 792 L 113 792 Z M 24 792 L 108 964 L 202 964 L 104 792 L 24 792 Z" unicode="Í" />
<glyph horiz-adv-x="224" d="M 0 0 L 0 0 Z M 158 0 L 67 0 L 67 730 L 158 730 L 158 0 Z M 113 793 L 113 793 Z M 245 793 L 178 793 L 113 909 L 47 793 L -19 793 L 78 964 L 148 964 L 245 793 Z" unicode="Î" />
<glyph horiz-adv-x="224" d="M 6 0 L 6 0 Z M 158 0 L 67 0 L 67 730 L 158 730 L 158 0 Z M 113 793 L 113 793 Z M 220 793 L 153 793 L 153 950 L 220 950 L 220 793 Z M 73 793 L 6 793 L 6 950 L 73 950 L 73 793 Z" unicode="Ï" />
<glyph horiz-adv-x="534" d="M 499 363 C 499 312 493 264 481 220 C 469 176 451 137 427 105 C 403 73 373 47 337 28 C 300 9 257 0 209 0 L 63 0 L 63 332 L 20 332 L 20 396 L 63 396 L 63 730 L 217 730 C 262 730 302 721 338 704 C 373 686 402 662 426 630 C 450 598 468 560 480 515 C 492 469 499 419 499 363 Z M 152 70 L 209 70 C 245 70 275 77 301 91 C 326 105 346 124 362 150 C 378 175 389 206 397 242 C 404 278 408 317 408 361 C 408 461 391 536 358 586 C 324 635 278 660 218 660 L 152 660 L 152 396 L 317 396 L 317 332 L 152 332 L 152 70 Z" unicode="Ð" />
<glyph horiz-adv-x="535" d="M 63 0 L 63 0 Z M 472 0 L 408 0 L 147 522 L 147 0 L 63 0 L 63 730 L 127 730 L 391 210 L 391 730 L 472 730 L 472 0 Z M 268 800 L 268 800 Z M 354 935 L 416 935 C 416 889 409 855 397 833 C 384 811 368 800 348 800 C 330 800 316 803 304 811 C 292 819 281 827 272 835 C 263 842 254 849 244 857 C 234 865 225 869 215 869 C 206 869 198 863 192 853 C 185 842 181 825 181 803 L 121 803 C 121 848 128 882 143 904 C 157 926 174 938 193 938 C 209 938 224 933 236 925 C 248 917 259 908 269 900 C 277 892 286 885 295 878 C 303 871 312 868 321 868 C 329 868 337 873 344 884 C 350 895 354 912 354 935 Z" unicode="Ñ" />
<glyph horiz-adv-x="569" d="M 36 0 L 36 0 Z M 287 -7 C 208 -7 146 25 102 90 C 58 154 36 248 36 371 C 36 485 58 575 102 640 C 146 704 206 737 282 737 C 362 737 423 705 467 641 C 511 577 533 485 533 365 C 533 248 510 157 464 91 C 418 25 359 -7 287 -7 Z M 285 71 C 333 71 371 95 399 144 C 427 193 442 269 442 371 C 442 466 427 538 398 586 C 369 634 331 658 283 658 C 233 658 194 634 167 586 C 140 538 127 464 127 364 C 127 262 141 188 170 141 C 199 94 237 71 285 71 Z M 282 792 L 282 792 Z M 371 792 L 291 792 L 193 964 L 287 964 L 371 792 Z" unicode="Ò" />
<glyph horiz-adv-x="569" d="M 36 0 L 36 0 Z M 287 -7 C 208 -7 146 25 102 90 C 58 154 36 248 36 371 C 36 485 58 575 102 640 C 146 704 206 737 282 737 C 362 737 423 705 467 641 C 511 577 533 485 533 365 C 533 248 510 157 464 91 C 418 25 359 -7 287 -7 Z M 285 71 C 333 71 371 95 399 144 C 427 193 442 269 442 371 C 442 466 427 538 398 586 C 369 634 331 658 283 658 C 233 658 194 634 167 586 C 140 538 127 464 127 364 C 127 262 141 188 170 141 C 199 94 237 71 285 71 Z M 282 792 L 282 792 Z M 193 792 L 277 964 L 371 964 L 273 792 L 193 792 Z" unicode="Ó" />
<glyph horiz-adv-x="569" d="M 36 0 L 36 0 Z M 287 -7 C 208 -7 146 25 102 90 C 58 154 36 248 36 371 C 36 485 58 575 102 640 C 146 704 206 737 282 737 C 362 737 423 705 467 641 C 511 577 533 485 533 365 C 533 248 510 157 464 91 C 418 25 359 -7 287 -7 Z M 285 71 C 333 71 371 95 399 144 C 427 193 442 269 442 371 C 442 466 427 538 398 586 C 369 634 331 658 283 658 C 233 658 194 634 167 586 C 140 538 127 464 127 364 C 127 262 141 188 170 141 C 199 94 237 71 285 71 Z M 282 793 L 282 793 Z M 414 793 L 347 793 L 282 909 L 216 793 L 150 793 L 247 964 L 317 964 L 414 793 Z" unicode="Ô" />
<glyph horiz-adv-x="569" d="M 36 0 L 36 0 Z M 287 -7 C 208 -7 146 25 102 90 C 58 154 36 248 36 371 C 36 485 58 575 102 640 C 146 704 206 737 282 737 C 362 737 423 705 467 641 C 511 577 533 485 533 365 C 533 248 510 157 464 91 C 418 25 359 -7 287 -7 Z M 285 71 C 333 71 371 95 399 144 C 427 193 442 269 442 371 C 442 466 427 538 398 586 C 369 634 331 658 283 658 C 233 658 194 634 167 586 C 140 538 127 464 127 364 C 127 262 141 188 170 141 C 199 94 237 71 285 71 Z M 282 800 L 282 800 Z M 368 935 L 430 935 C 430 889 423 855 411 833 C 398 811 382 800 362 800 C 344 800 330 803 318 811 C 306 819 295 827 286 835 C 277 842 268 849 258 857 C 248 865 239 869 229 869 C 220 869 212 863 206 853 C 199 842 195 825 195 803 L 135 803 C 135 848 142 882 157 904 C 171 926 188 938 207 938 C 223 938 238 933 250 925 C 262 917 273 908 283 900 C 291 892 300 885 309 878 C 317 871 326 868 335 868 C 343 868 351 873 358 884 C 364 895 368 912 368 935 Z" unicode="Õ" />
<glyph horiz-adv-x="569" d="M 36 0 L 36 0 Z M 287 -7 C 208 -7 146 25 102 90 C 58 154 36 248 36 371 C 36 485 58 575 102 640 C 146 704 206 737 282 737 C 362 737 423 705 467 641 C 511 577 533 485 533 365 C 533 248 510 157 464 91 C 418 25 359 -7 287 -7 Z M 285 71 C 333 71 371 95 399 144 C 427 193 442 269 442 371 C 442 466 427 538 398 586 C 369 634 331 658 283 658 C 233 658 194 634 167 586 C 140 538 127 464 127 364 C 127 262 141 188 170 141 C 199 94 237 71 285 71 Z M 282 793 L 282 793 Z M 389 793 L 322 793 L 322 950 L 389 950 L 389 793 Z M 242 793 L 175 793 L 175 950 L 242 950 L 242 793 Z" unicode="Ö" />
<glyph horiz-adv-x="501" d="M 112 146 L 66 193 L 203 331 L 67 468 L 113 515 L 251 378 L 388 515 L 435 468 L 297 331 L 436 193 L 388 145 L 251 284 L 112 146 Z" unicode="×" />
<glyph horiz-adv-x="569" d="M 533 365 C 533 248 510 157 464 91 C 418 25 359 -7 287 -7 C 249 -7 215 0 185 15 C 155 30 129 52 109 81 L 53 -2 L 25 18 L 89 112 C 71 143 58 180 49 224 C 40 268 36 317 36 371 C 36 485 58 575 102 640 C 146 704 206 737 282 737 C 318 737 351 730 381 717 C 410 703 435 683 456 657 L 515 744 L 543 725 L 477 627 C 495 596 509 559 519 515 C 528 471 533 421 533 365 Z M 127 364 C 127 330 128 299 132 271 C 135 243 140 219 147 198 L 403 578 C 389 604 372 624 352 638 C 331 651 308 658 283 658 C 233 658 194 634 167 586 C 140 538 127 464 127 364 Z M 442 371 C 442 405 440 436 436 465 C 432 493 426 519 419 541 L 161 159 C 175 129 192 106 213 92 C 234 78 258 71 285 71 C 333 71 371 95 399 144 C 427 193 442 269 442 371 Z" unicode="Ø" />
<glyph horiz-adv-x="534" d="M 59 0 L 59 0 Z M 475 730 L 475 216 C 475 176 469 141 457 113 C 445 85 430 62 411 44 C 391 26 369 13 343 5 C 317 -2 290 -7 262 -7 C 235 -7 209 -3 185 5 C 160 13 138 25 120 43 C 101 61 86 84 75 112 C 64 140 59 175 59 216 L 59 730 L 147 730 L 147 215 C 147 161 158 124 181 102 C 203 80 232 70 266 70 C 298 70 326 80 350 101 C 373 121 385 159 385 215 L 385 730 L 475 730 Z M 265 792 L 265 792 Z M 354 792 L 274 792 L 176 964 L 270 964 L 354 792 Z" unicode="Ù" />
<glyph horiz-adv-x="534" d="M 59 0 L 59 0 Z M 475 730 L 475 216 C 475 176 469 141 457 113 C 445 85 430 62 411 44 C 391 26 369 13 343 5 C 317 -2 290 -7 262 -7 C 235 -7 209 -3 185 5 C 160 13 138 25 120 43 C 101 61 86 84 75 112 C 64 140 59 175 59 216 L 59 730 L 147 730 L 147 215 C 147 161 158 124 181 102 C 203 80 232 70 266 70 C 298 70 326 80 350 101 C 373 121 385 159 385 215 L 385 730 L 475 730 Z M 265 792 L 265 792 Z M 176 792 L 260 964 L 354 964 L 256 792 L 176 792 Z" unicode="Ú" />
<glyph horiz-adv-x="534" d="M 59 0 L 59 0 Z M 475 730 L 475 216 C 475 176 469 141 457 113 C 445 85 430 62 411 44 C 391 26 369 13 343 5 C 317 -2 290 -7 262 -7 C 235 -7 209 -3 185 5 C 160 13 138 25 120 43 C 101 61 86 84 75 112 C 64 140 59 175 59 216 L 59 730 L 147 730 L 147 215 C 147 161 158 124 181 102 C 203 80 232 70 266 70 C 298 70 326 80 350 101 C 373 121 385 159 385 215 L 385 730 L 475 730 Z M 265 793 L 265 793 Z M 397 793 L 330 793 L 265 909 L 199 793 L 133 793 L 230 964 L 300 964 L 397 793 Z" unicode="Û" />
<glyph horiz-adv-x="534" d="M 59 0 L 59 0 Z M 475 730 L 475 216 C 475 176 469 141 457 113 C 445 85 430 62 411 44 C 391 26 369 13 343 5 C 317 -2 290 -7 262 -7 C 235 -7 209 -3 185 5 C 160 13 138 25 120 43 C 101 61 86 84 75 112 C 64 140 59 175 59 216 L 59 730 L 147 730 L 147 215 C 147 161 158 124 181 102 C 203 80 232 70 266 70 C 298 70 326 80 350 101 C 373 121 385 159 385 215 L 385 730 L 475 730 Z M 265 793 L 265 793 Z M 372 793 L 305 793 L 305 950 L 372 950 L 372 793 Z M 225 793 L 158 793 L 158 950 L 225 950 L 225 793 Z" unicode="Ü" />
<glyph horiz-adv-x="457" d="M 0 0 L 0 0 Z M 459 730 L 271 295 L 271 0 L 181 0 L 181 296 L -1 730 L 92 730 L 231 391 L 372 730 L 459 730 Z M 231 792 L 231 792 Z M 142 792 L 226 964 L 320 964 L 222 792 L 142 792 Z" unicode="Ý" />
<glyph horiz-adv-x="438" d="M 63 0 L 63 730 L 153 730 L 153 599 L 230 599 C 256 599 281 594 305 585 C 328 575 348 562 366 544 C 383 526 397 504 407 478 C 417 452 422 422 422 388 C 422 316 403 261 366 223 C 328 184 282 165 227 165 L 153 165 L 153 0 L 63 0 Z M 150 233 L 222 233 C 256 233 284 246 306 272 C 328 298 339 337 339 387 C 339 433 327 469 303 493 C 279 517 252 529 222 529 L 150 529 L 150 233 Z" unicode="Þ" />
<glyph horiz-adv-x="466" d="M 324 -6 C 292 -6 264 0 240 11 C 216 23 196 38 182 57 L 222 109 C 234 94 248 82 264 74 C 280 65 297 61 316 61 C 332 61 346 65 359 74 C 372 82 379 97 379 118 C 379 134 371 148 357 160 C 342 172 320 187 290 204 C 258 222 234 241 217 261 C 199 281 191 306 191 336 C 191 370 201 397 222 417 C 242 436 264 451 287 461 C 293 463 300 474 307 493 C 314 512 318 545 318 593 C 318 635 310 666 294 686 C 278 706 256 716 228 716 C 203 716 183 706 167 687 C 151 668 143 640 143 602 L 143 0 L 60 0 L 60 605 C 60 663 75 707 106 738 C 137 769 178 785 230 785 C 277 785 317 769 349 738 C 381 706 397 656 397 587 C 397 531 389 488 373 460 C 357 431 342 415 326 412 C 307 408 291 401 277 392 C 263 382 257 368 257 349 C 257 331 263 316 277 302 C 290 288 312 272 342 256 C 380 234 407 214 423 196 C 439 177 448 150 448 116 C 448 96 444 79 436 64 C 428 48 419 35 407 25 C 395 15 381 7 367 2 C 352 -3 338 -6 324 -6 Z" unicode="ß" />
<glyph horiz-adv-x="368" d="M 21 0 L 21 0 Z M 326 0 L 251 0 L 251 50 C 239 34 223 20 204 10 C 184 0 161 -5 135 -5 C 103 -5 76 6 54 29 C 32 52 21 85 21 128 C 21 176 36 210 66 232 C 96 254 132 266 172 269 L 248 273 L 248 300 C 248 326 241 346 227 359 C 213 371 193 378 166 378 C 142 378 123 374 108 367 C 93 360 82 353 74 345 L 50 398 C 64 412 83 423 105 431 C 127 439 155 444 189 444 C 227 444 259 433 286 411 C 312 389 326 357 326 313 L 326 0 Z M 250 101 L 250 213 L 187 209 C 165 207 144 200 125 188 C 106 175 97 155 97 129 C 97 106 104 90 120 80 C 135 70 151 65 169 65 C 188 65 204 68 218 76 C 231 83 242 91 250 101 Z M 177 498 L 177 498 Z M 266 498 L 186 498 L 88 670 L 182 670 L 266 498 Z" unicode="à" />
<glyph horiz-adv-x="368" d="M 21 0 L 21 0 Z M 326 0 L 251 0 L 251 50 C 239 34 223 20 204 10 C 184 0 161 -5 135 -5 C 103 -5 76 6 54 29 C 32 52 21 85 21 128 C 21 176 36 210 66 232 C 96 254 132 266 172 269 L 248 273 L 248 300 C 248 326 241 346 227 359 C 213 371 193 378 166 378 C 142 378 123 374 108 367 C 93 360 82 353 74 345 L 50 398 C 64 412 83 423 105 431 C 127 439 155 444 189 444 C 227 444 259 433 286 411 C 312 389 326 357 326 313 L 326 0 Z M 250 101 L 250 213 L 187 209 C 165 207 144 200 125 188 C 106 175 97 155 97 129 C 97 106 104 90 120 80 C 135 70 151 65 169 65 C 188 65 204 68 218 76 C 231 83 242 91 250 101 Z M 177 498 L 177 498 Z M 88 498 L 172 670 L 266 670 L 168 498 L 88 498 Z" unicode="á" />
<glyph horiz-adv-x="368" d="M 21 0 L 21 0 Z M 326 0 L 251 0 L 251 50 C 239 34 223 20 204 10 C 184 0 161 -5 135 -5 C 103 -5 76 6 54 29 C 32 52 21 85 21 128 C 21 176 36 210 66 232 C 96 254 132 266 172 269 L 248 273 L 248 300 C 248 326 241 346 227 359 C 213 371 193 378 166 378 C 142 378 123 374 108 367 C 93 360 82 353 74 345 L 50 398 C 64 412 83 423 105 431 C 127 439 155 444 189 444 C 227 444 259 433 286 411 C 312 389 326 357 326 313 L 326 0 Z M 250 101 L 250 213 L 187 209 C 165 207 144 200 125 188 C 106 175 97 155 97 129 C 97 106 104 90 120 80 C 135 70 151 65 169 65 C 188 65 204 68 218 76 C 231 83 242 91 250 101 Z M 177 499 L 177 499 Z M 309 499 L 242 499 L 177 615 L 111 499 L 45 499 L 142 670 L 212 670 L 309 499 Z" unicode="â" />
<glyph horiz-adv-x="368" d="M 21 0 L 21 0 Z M 326 0 L 251 0 L 251 50 C 239 34 223 20 204 10 C 184 0 161 -5 135 -5 C 103 -5 76 6 54 29 C 32 52 21 85 21 128 C 21 176 36 210 66 232 C 96 254 132 266 172 269 L 248 273 L 248 300 C 248 326 241 346 227 359 C 213 371 193 378 166 378 C 142 378 123 374 108 367 C 93 360 82 353 74 345 L 50 398 C 64 412 83 423 105 431 C 127 439 155 444 189 444 C 227 444 259 433 286 411 C 312 389 326 357 326 313 L 326 0 Z M 250 101 L 250 213 L 187 209 C 165 207 144 200 125 188 C 106 175 97 155 97 129 C 97 106 104 90 120 80 C 135 70 151 65 169 65 C 188 65 204 68 218 76 C 231 83 242 91 250 101 Z M 177 506 L 177 506 Z M 263 641 L 325 641 C 325 595 318 561 306 539 C 293 517 277 506 257 506 C 239 506 225 509 213 517 C 201 525 190 533 181 541 C 172 548 163 555 153 563 C 143 571 134 575 124 575 C 115 575 107 569 101 559 C 94 548 90 531 90 509 L 30 509 C 30 554 37 588 52 610 C 66 632 83 644 102 644 C 118 644 133 639 145 631 C 157 623 168 614 178 606 C 186 598 195 591 204 584 C 212 577 221 574 230 574 C 238 574 246 579 253 590 C 259 601 263 618 263 641 Z" unicode="ã" />
<glyph horiz-adv-x="368" d="M 21 0 L 21 0 Z M 326 0 L 251 0 L 251 50 C 239 34 223 20 204 10 C 184 0 161 -5 135 -5 C 103 -5 76 6 54 29 C 32 52 21 85 21 128 C 21 176 36 210 66 232 C 96 254 132 266 172 269 L 248 273 L 248 300 C 248 326 241 346 227 359 C 213 371 193 378 166 378 C 142 378 123 374 108 367 C 93 360 82 353 74 345 L 50 398 C 64 412 83 423 105 431 C 127 439 155 444 189 444 C 227 444 259 433 286 411 C 312 389 326 357 326 313 L 326 0 Z M 250 101 L 250 213 L 187 209 C 165 207 144 200 125 188 C 106 175 97 155 97 129 C 97 106 104 90 120 80 C 135 70 151 65 169 65 C 188 65 204 68 218 76 C 231 83 242 91 250 101 Z M 177 499 L 177 499 Z M 284 499 L 217 499 L 217 656 L 284 656 L 284 499 Z M 137 499 L 70 499 L 70 656 L 137 656 L 137 499 Z" unicode="ä" />
<glyph horiz-adv-x="368" d="M 21 0 L 21 0 Z M 326 0 L 251 0 L 251 50 C 239 34 223 20 204 10 C 184 0 161 -5 135 -5 C 103 -5 76 6 54 29 C 32 52 21 85 21 128 C 21 176 36 210 66 232 C 96 254 132 266 172 269 L 248 273 L 248 300 C 248 326 241 346 227 359 C 213 371 193 378 166 378 C 142 378 123 374 108 367 C 93 360 82 353 74 345 L 50 398 C 64 412 83 423 105 431 C 127 439 155 444 189 444 C 227 444 259 433 286 411 C 312 389 326 357 326 313 L 326 0 Z M 250 101 L 250 213 L 187 209 C 165 207 144 200 125 188 C 106 175 97 155 97 129 C 97 106 104 90 120 80 C 135 70 151 65 169 65 C 188 65 204 68 218 76 C 231 83 242 91 250 101 Z M 177 496 L 177 496 Z M 177 496 C 145 496 119 506 97 528 C 75 550 65 576 65 608 C 65 639 75 665 97 687 C 119 709 145 720 177 720 C 208 720 235 709 257 687 C 279 665 290 639 290 608 C 290 576 279 550 257 528 C 235 506 208 496 177 496 Z M 177 543 C 194 543 209 549 221 562 C 233 574 239 590 239 608 C 239 626 233 642 221 654 C 209 666 194 673 177 673 C 159 673 145 666 133 654 C 121 642 115 626 115 608 C 115 590 121 574 133 562 C 145 549 159 543 177 543 Z" unicode="å" />
<glyph horiz-adv-x="602" d="M 420 -5 C 380 -5 349 5 325 27 C 301 48 287 70 282 94 C 274 65 257 41 231 23 C 205 4 177 -5 145 -5 C 110 -5 81 6 57 29 C 33 51 21 84 21 126 C 21 172 36 206 66 230 C 96 253 132 266 172 268 L 254 272 L 254 296 C 254 327 246 349 231 361 C 215 373 195 379 169 379 C 144 379 124 375 108 367 C 92 359 80 351 72 343 L 50 397 C 64 411 83 421 105 429 C 127 437 151 441 177 441 C 205 441 231 434 254 422 C 276 409 290 388 296 358 C 304 378 318 397 338 414 C 358 431 386 440 421 440 C 471 440 510 419 538 378 C 566 337 580 277 580 198 L 329 198 C 329 146 337 109 355 89 C 373 68 396 58 424 58 C 451 58 472 63 488 73 C 503 83 517 97 531 113 L 574 71 C 560 53 542 36 520 20 C 497 3 464 -5 420 -5 Z M 327 252 L 502 252 C 501 290 493 321 478 343 C 462 365 441 377 415 377 C 388 377 367 366 353 344 C 338 322 329 292 327 252 Z M 174 64 C 196 64 214 71 230 87 C 246 102 254 121 254 145 L 254 214 L 187 209 C 164 208 143 202 125 190 C 106 178 97 158 97 132 C 97 108 104 90 120 80 C 136 69 154 64 174 64 Z" unicode="æ" />
<glyph horiz-adv-x="337" d="M 22 0 L 22 0 Z M 279 116 L 331 76 C 321 58 307 40 288 22 C 269 4 239 -5 197 -5 C 141 -5 97 15 67 57 C 37 99 22 152 22 217 C 22 247 25 275 33 303 C 41 330 52 354 67 374 C 81 394 100 411 122 423 C 144 435 170 441 200 441 C 235 441 263 433 284 417 C 305 401 322 383 334 365 L 283 315 C 274 329 263 342 251 354 C 239 366 222 372 200 372 C 171 372 148 357 132 329 C 116 300 108 264 108 220 C 108 168 117 128 135 101 C 153 74 177 61 205 61 C 225 61 241 67 252 80 C 263 92 272 104 279 116 Z M 185 -1 L 185 -1 Z M 191 -185 C 169 -185 148 -182 127 -176 C 105 -170 88 -162 76 -152 L 88 -118 C 96 -124 108 -130 123 -136 C 138 -142 154 -145 171 -145 C 185 -145 197 -141 207 -134 C 217 -127 223 -118 223 -106 C 223 -92 218 -83 209 -78 C 200 -72 190 -70 180 -70 C 172 -70 166 -70 160 -72 C 154 -73 148 -75 142 -78 L 128 -63 L 186 11 L 232 11 L 185 -51 C 215 -43 241 -45 262 -57 C 282 -69 293 -86 293 -110 C 293 -134 282 -152 262 -165 C 242 -178 218 -185 191 -185 Z" unicode="ç" />
<glyph horiz-adv-x="381" d="M 22 0 L 22 0 Z M 199 -5 C 146 -5 103 14 71 53 C 38 91 22 146 22 216 C 22 251 26 283 35 311 C 44 339 56 362 72 381 C 87 400 105 415 126 425 C 146 435 168 441 191 441 C 245 441 286 420 315 380 C 343 340 358 279 358 198 L 105 198 C 105 144 114 108 132 88 C 150 68 174 58 203 58 C 231 58 252 63 268 74 C 283 85 297 98 310 113 L 353 71 C 339 53 321 36 298 20 C 275 3 242 -5 199 -5 Z M 108 255 L 279 255 C 278 293 271 323 257 345 C 243 367 223 378 197 378 C 170 378 149 367 134 345 C 119 323 110 293 108 255 Z M 193 498 L 193 498 Z M 282 498 L 202 498 L 104 670 L 198 670 L 282 498 Z" unicode="è" />
<glyph horiz-adv-x="381" d="M 22 0 L 22 0 Z M 199 -5 C 146 -5 103 14 71 53 C 38 91 22 146 22 216 C 22 251 26 283 35 311 C 44 339 56 362 72 381 C 87 400 105 415 126 425 C 146 435 168 441 191 441 C 245 441 286 420 315 380 C 343 340 358 279 358 198 L 105 198 C 105 144 114 108 132 88 C 150 68 174 58 203 58 C 231 58 252 63 268 74 C 283 85 297 98 310 113 L 353 71 C 339 53 321 36 298 20 C 275 3 242 -5 199 -5 Z M 108 255 L 279 255 C 278 293 271 323 257 345 C 243 367 223 378 197 378 C 170 378 149 367 134 345 C 119 323 110 293 108 255 Z M 193 498 L 193 498 Z M 104 498 L 188 670 L 282 670 L 184 498 L 104 498 Z" unicode="é" />
<glyph horiz-adv-x="381" d="M 22 0 L 22 0 Z M 199 -5 C 146 -5 103 14 71 53 C 38 91 22 146 22 216 C 22 251 26 283 35 311 C 44 339 56 362 72 381 C 87 400 105 415 126 425 C 146 435 168 441 191 441 C 245 441 286 420 315 380 C 343 340 358 279 358 198 L 105 198 C 105 144 114 108 132 88 C 150 68 174 58 203 58 C 231 58 252 63 268 74 C 283 85 297 98 310 113 L 353 71 C 339 53 321 36 298 20 C 275 3 242 -5 199 -5 Z M 108 255 L 279 255 C 278 293 271 323 257 345 C 243 367 223 378 197 378 C 170 378 149 367 134 345 C 119 323 110 293 108 255 Z M 193 499 L 193 499 Z M 325 499 L 258 499 L 193 615 L 127 499 L 61 499 L 158 670 L 228 670 L 325 499 Z" unicode="ê" />
<glyph horiz-adv-x="381" d="M 22 0 L 22 0 Z M 199 -5 C 146 -5 103 14 71 53 C 38 91 22 146 22 216 C 22 251 26 283 35 311 C 44 339 56 362 72 381 C 87 400 105 415 126 425 C 146 435 168 441 191 441 C 245 441 286 420 315 380 C 343 340 358 279 358 198 L 105 198 C 105 144 114 108 132 88 C 150 68 174 58 203 58 C 231 58 252 63 268 74 C 283 85 297 98 310 113 L 353 71 C 339 53 321 36 298 20 C 275 3 242 -5 199 -5 Z M 108 255 L 279 255 C 278 293 271 323 257 345 C 243 367 223 378 197 378 C 170 378 149 367 134 345 C 119 323 110 293 108 255 Z M 193 499 L 193 499 Z M 300 499 L 233 499 L 233 656 L 300 656 L 300 499 Z M 153 499 L 86 499 L 86 656 L 153 656 L 153 499 Z" unicode="ë" />
<glyph horiz-adv-x="172" d="M 0 0 L 0 0 Z M 128 0 L 45 0 L 45 436 L 128 436 L 128 0 Z M 86 498 L 86 498 Z M 175 498 L 95 498 L -3 670 L 91 670 L 175 498 Z" unicode="ì" />
<glyph horiz-adv-x="172" d="M 0 0 L 0 0 Z M 128 0 L 45 0 L 45 436 L 128 436 L 128 0 Z M 86 498 L 86 498 Z M -3 498 L 81 670 L 175 670 L 77 498 L -3 498 Z" unicode="í" />
<glyph horiz-adv-x="172" d="M 0 0 L 0 0 Z M 128 0 L 45 0 L 45 436 L 128 436 L 128 0 Z M 86 499 L 86 499 Z M 218 499 L 151 499 L 86 615 L 20 499 L -46 499 L 51 670 L 121 670 L 218 499 Z" unicode="î" />
<glyph horiz-adv-x="172" d="M 0 0 L 0 0 Z M 128 0 L 45 0 L 45 436 L 128 436 L 128 0 Z M 86 499 L 86 499 Z M 193 499 L 126 499 L 126 656 L 193 656 L 193 499 Z M 46 499 L -21 499 L -21 656 L 46 656 L 46 499 Z" unicode="ï" />
<glyph horiz-adv-x="404" d="M 374 278 C 374 236 370 198 363 163 C 355 128 344 98 330 73 C 315 48 297 28 275 14 C 253 0 228 -7 200 -7 C 147 -7 104 12 71 51 C 38 90 22 145 22 217 C 22 254 26 287 36 315 C 45 343 57 366 72 385 C 87 403 105 417 125 427 C 145 437 165 442 187 442 C 213 442 237 436 257 424 C 277 412 293 396 304 376 C 300 418 292 460 280 502 C 268 543 254 581 238 615 L 165 581 L 140 642 L 209 673 C 196 696 183 716 171 732 C 159 748 149 760 141 767 L 206 794 C 214 785 224 773 236 758 C 248 743 260 724 273 702 L 338 731 L 363 672 L 302 644 C 321 600 338 548 352 487 C 366 426 374 356 374 278 Z M 197 61 C 227 61 249 74 264 101 C 279 128 287 167 287 218 C 287 272 279 311 263 336 C 247 361 225 374 195 374 C 167 374 145 360 129 333 C 113 305 106 267 106 218 C 106 164 114 125 130 99 C 146 73 168 61 197 61 Z" unicode="ð" />
<glyph horiz-adv-x="397" d="M 42 0 L 42 0 Z M 355 0 L 273 0 L 273 298 C 273 321 266 339 254 351 C 241 363 224 369 204 369 C 182 369 164 362 148 349 C 132 335 125 311 125 275 L 125 0 L 42 0 L 42 436 L 120 436 L 120 369 C 126 390 139 407 157 421 C 175 435 201 442 235 442 C 271 442 300 432 322 414 C 344 396 355 367 355 328 L 355 0 Z M 199 506 L 199 506 Z M 285 641 L 347 641 C 347 595 340 561 328 539 C 315 517 299 506 279 506 C 261 506 247 509 235 517 C 223 525 212 533 203 541 C 194 548 185 555 175 563 C 165 571 156 575 146 575 C 137 575 129 569 123 559 C 116 548 112 531 112 509 L 52 509 C 52 554 59 588 74 610 C 88 632 105 644 124 644 C 140 644 155 639 167 631 C 179 623 190 614 200 606 C 208 598 217 591 226 584 C 234 577 243 574 252 574 C 260 574 268 579 275 590 C 281 601 285 618 285 641 Z" unicode="ñ" />
<glyph horiz-adv-x="394" d="M 22 0 L 22 0 Z M 198 -5 C 146 -5 104 14 71 52 C 38 90 22 145 22 216 C 22 283 37 337 69 379 C 101 420 142 441 192 441 C 246 441 290 421 323 383 C 355 344 372 292 372 228 C 372 158 356 102 325 59 C 294 16 252 -5 198 -5 Z M 197 60 C 225 60 247 73 262 100 C 277 127 285 167 285 219 C 285 271 277 310 261 336 C 245 361 223 374 195 374 C 168 374 147 361 132 335 C 116 309 109 271 109 219 C 109 163 117 122 133 97 C 149 72 170 60 197 60 Z M 197 498 L 197 498 Z M 286 498 L 206 498 L 108 670 L 202 670 L 286 498 Z" unicode="ò" />
<glyph horiz-adv-x="394" d="M 22 0 L 22 0 Z M 198 -5 C 146 -5 104 14 71 52 C 38 90 22 145 22 216 C 22 283 37 337 69 379 C 101 420 142 441 192 441 C 246 441 290 421 323 383 C 355 344 372 292 372 228 C 372 158 356 102 325 59 C 294 16 252 -5 198 -5 Z M 197 60 C 225 60 247 73 262 100 C 277 127 285 167 285 219 C 285 271 277 310 261 336 C 245 361 223 374 195 374 C 168 374 147 361 132 335 C 116 309 109 271 109 219 C 109 163 117 122 133 97 C 149 72 170 60 197 60 Z M 197 498 L 197 498 Z M 108 498 L 192 670 L 286 670 L 188 498 L 108 498 Z" unicode="ó" />
<glyph horiz-adv-x="394" d="M 22 0 L 22 0 Z M 198 -5 C 146 -5 104 14 71 52 C 38 90 22 145 22 216 C 22 283 37 337 69 379 C 101 420 142 441 192 441 C 246 441 290 421 323 383 C 355 344 372 292 372 228 C 372 158 356 102 325 59 C 294 16 252 -5 198 -5 Z M 197 60 C 225 60 247 73 262 100 C 277 127 285 167 285 219 C 285 271 277 310 261 336 C 245 361 223 374 195 374 C 168 374 147 361 132 335 C 116 309 109 271 109 219 C 109 163 117 122 133 97 C 149 72 170 60 197 60 Z M 197 499 L 197 499 Z M 329 499 L 262 499 L 197 615 L 131 499 L 65 499 L 162 670 L 232 670 L 329 499 Z" unicode="ô" />
<glyph horiz-adv-x="394" d="M 22 0 L 22 0 Z M 198 -5 C 146 -5 104 14 71 52 C 38 90 22 145 22 216 C 22 283 37 337 69 379 C 101 420 142 441 192 441 C 246 441 290 421 323 383 C 355 344 372 292 372 228 C 372 158 356 102 325 59 C 294 16 252 -5 198 -5 Z M 197 60 C 225 60 247 73 262 100 C 277 127 285 167 285 219 C 285 271 277 310 261 336 C 245 361 223 374 195 374 C 168 374 147 361 132 335 C 116 309 109 271 109 219 C 109 163 117 122 133 97 C 149 72 170 60 197 60 Z M 197 506 L 197 506 Z M 283 641 L 345 641 C 345 595 338 561 326 539 C 313 517 297 506 277 506 C 259 506 245 509 233 517 C 221 525 210 533 201 541 C 192 548 183 555 173 563 C 163 571 154 575 144 575 C 135 575 127 569 121 559 C 114 548 110 531 110 509 L 50 509 C 50 554 57 588 72 610 C 86 632 103 644 122 644 C 138 644 153 639 165 631 C 177 623 188 614 198 606 C 206 598 215 591 224 584 C 232 577 241 574 250 574 C 258 574 266 579 273 590 C 279 601 283 618 283 641 Z" unicode="õ" />
<glyph horiz-adv-x="394" d="M 22 0 L 22 0 Z M 198 -5 C 146 -5 104 14 71 52 C 38 90 22 145 22 216 C 22 283 37 337 69 379 C 101 420 142 441 192 441 C 246 441 290 421 323 383 C 355 344 372 292 372 228 C 372 158 356 102 325 59 C 294 16 252 -5 198 -5 Z M 197 60 C 225 60 247 73 262 100 C 277 127 285 167 285 219 C 285 271 277 310 261 336 C 245 361 223 374 195 374 C 168 374 147 361 132 335 C 116 309 109 271 109 219 C 109 163 117 122 133 97 C 149 72 170 60 197 60 Z M 197 499 L 197 499 Z M 304 499 L 237 499 L 237 656 L 304 656 L 304 499 Z M 157 499 L 90 499 L 90 656 L 157 656 L 157 499 Z" unicode="ö" />
<glyph horiz-adv-x="500" d="M 210 448 L 210 561 L 290 561 L 290 448 L 210 448 Z M 26 295 L 26 366 L 474 366 L 474 295 L 26 295 Z M 210 100 L 210 213 L 290 213 L 290 100 L 210 100 Z" unicode="÷" />
<glyph horiz-adv-x="394" d="M 372 228 C 372 158 356 102 325 59 C 294 16 252 -5 198 -5 C 176 -5 155 -1 136 5 C 117 12 100 23 86 37 L 60 2 L 39 21 L 67 58 C 52 76 41 99 33 126 C 25 152 22 182 22 216 C 22 283 37 337 69 379 C 101 420 142 441 192 441 C 216 441 239 436 260 428 C 281 420 299 408 314 393 L 341 429 L 361 410 L 332 371 C 344 353 354 331 361 307 C 368 283 372 256 372 228 Z M 109 219 C 109 201 110 184 112 169 C 114 154 116 141 120 130 L 266 328 C 258 343 249 354 237 362 C 225 370 211 374 195 374 C 168 374 147 361 132 335 C 116 309 109 271 109 219 Z M 285 219 C 285 233 284 247 283 260 C 281 273 279 285 277 296 L 132 100 C 139 86 148 75 160 69 C 171 63 183 60 197 60 C 225 60 247 73 262 100 C 277 127 285 167 285 219 Z" unicode="ø" />
<glyph horiz-adv-x="397" d="M 42 0 L 42 0 Z M 42 436 L 124 436 L 124 138 C 124 109 130 88 143 76 C 155 64 173 58 196 58 C 216 58 233 64 249 78 C 264 92 272 118 272 158 L 272 436 L 354 436 L 354 0 L 275 0 L 275 55 C 268 36 255 21 236 10 C 217 0 193 -6 165 -6 C 131 -6 102 3 78 23 C 54 42 42 74 42 118 L 42 436 Z M 198 498 L 198 498 Z M 287 498 L 207 498 L 109 670 L 203 670 L 287 498 Z" unicode="ù" />
<glyph horiz-adv-x="397" d="M 42 0 L 42 0 Z M 42 436 L 124 436 L 124 138 C 124 109 130 88 143 76 C 155 64 173 58 196 58 C 216 58 233 64 249 78 C 264 92 272 118 272 158 L 272 436 L 354 436 L 354 0 L 275 0 L 275 55 C 268 36 255 21 236 10 C 217 0 193 -6 165 -6 C 131 -6 102 3 78 23 C 54 42 42 74 42 118 L 42 436 Z M 198 498 L 198 498 Z M 109 498 L 193 670 L 287 670 L 189 498 L 109 498 Z" unicode="ú" />
<glyph horiz-adv-x="397" d="M 42 0 L 42 0 Z M 42 436 L 124 436 L 124 138 C 124 109 130 88 143 76 C 155 64 173 58 196 58 C 216 58 233 64 249 78 C 264 92 272 118 272 158 L 272 436 L 354 436 L 354 0 L 275 0 L 275 55 C 268 36 255 21 236 10 C 217 0 193 -6 165 -6 C 131 -6 102 3 78 23 C 54 42 42 74 42 118 L 42 436 Z M 198 499 L 198 499 Z M 330 499 L 263 499 L 198 615 L 132 499 L 66 499 L 163 670 L 233 670 L 330 499 Z" unicode="û" />
<glyph horiz-adv-x="397" d="M 42 0 L 42 0 Z M 42 436 L 124 436 L 124 138 C 124 109 130 88 143 76 C 155 64 173 58 196 58 C 216 58 233 64 249 78 C 264 92 272 118 272 158 L 272 436 L 354 436 L 354 0 L 275 0 L 275 55 C 268 36 255 21 236 10 C 217 0 193 -6 165 -6 C 131 -6 102 3 78 23 C 54 42 42 74 42 118 L 42 436 Z M 198 499 L 198 499 Z M 305 499 L 238 499 L 238 656 L 305 656 L 305 499 Z M 158 499 L 91 499 L 91 656 L 158 656 L 158 499 Z" unicode="ü" />
<glyph horiz-adv-x="331" d="M 0 0 L 0 0 Z M 334 436 L 165 -111 C 155 -141 140 -164 118 -178 C 96 -192 71 -200 45 -200 C 33 -200 21 -198 11 -196 C 1 -193 -7 -190 -13 -187 L 14 -121 C 16 -122 21 -124 28 -126 C 35 -128 43 -130 52 -130 C 62 -130 71 -125 81 -116 C 90 -107 97 -94 102 -77 L 133 34 L -3 436 L 84 436 L 173 151 L 253 436 L 334 436 Z M 166 498 L 166 498 Z M 77 498 L 161 670 L 255 670 L 157 498 L 77 498 Z" unicode="ý" />
<glyph horiz-adv-x="401" d="M 42 -200 L 42 783 L 119 783 L 119 349 C 125 373 139 395 160 413 C 180 431 206 440 237 440 C 261 440 283 434 301 424 C 319 413 333 398 345 380 C 357 361 365 339 371 314 C 377 288 380 261 380 232 C 380 158 366 101 339 59 C 312 17 276 -4 230 -4 C 201 -4 177 2 158 15 C 139 27 126 42 120 60 L 120 -200 L 42 -200 Z M 201 57 C 229 57 252 70 268 97 C 284 123 293 162 293 214 C 293 260 286 299 272 329 C 258 359 236 374 205 374 C 182 374 162 362 144 338 C 126 314 117 271 117 208 C 117 148 125 108 141 88 C 157 67 177 57 201 57 Z" unicode="þ" />
<glyph horiz-adv-x="331" d="M 0 0 L 0 0 Z M 334 436 L 165 -111 C 155 -141 140 -164 118 -178 C 96 -192 71 -200 45 -200 C 33 -200 21 -198 11 -196 C 1 -193 -7 -190 -13 -187 L 14 -121 C 16 -122 21 -124 28 -126 C 35 -128 43 -130 52 -130 C 62 -130 71 -125 81 -116 C 90 -107 97 -94 102 -77 L 133 34 L -3 436 L 84 436 L 173 151 L 253 436 L 334 436 Z M 166 499 L 166 499 Z M 273 499 L 206 499 L 206 656 L 273 656 L 273 499 Z M 126 499 L 59 499 L 59 656 L 126 656 L 126 499 Z" unicode="ÿ" />
<glyph horiz-adv-x="475" d="M 2 0 L 2 0 Z M 473 0 L 387 0 L 336 184 L 134 184 L 86 0 L 2 0 L 206 734 L 268 734 L 473 0 Z M 320 259 L 235 560 L 150 259 L 320 259 Z M 233 819 L 233 819 Z M 352 819 L 114 819 L 114 881 L 352 881 L 352 819 Z" unicode="Ā" />
<glyph horiz-adv-x="368" d="M 21 0 L 21 0 Z M 326 0 L 251 0 L 251 50 C 239 34 223 20 204 10 C 184 0 161 -5 135 -5 C 103 -5 76 6 54 29 C 32 52 21 85 21 128 C 21 176 36 210 66 232 C 96 254 132 266 172 269 L 248 273 L 248 300 C 248 326 241 346 227 359 C 213 371 193 378 166 378 C 142 378 123 374 108 367 C 93 360 82 353 74 345 L 50 398 C 64 412 83 423 105 431 C 127 439 155 444 189 444 C 227 444 259 433 286 411 C 312 389 326 357 326 313 L 326 0 Z M 250 101 L 250 213 L 187 209 C 165 207 144 200 125 188 C 106 175 97 155 97 129 C 97 106 104 90 120 80 C 135 70 151 65 169 65 C 188 65 204 68 218 76 C 231 83 242 91 250 101 Z M 177 525 L 177 525 Z M 296 525 L 58 525 L 58 587 L 296 587 L 296 525 Z" unicode="ā" />
<glyph horiz-adv-x="475" d="M 2 0 L 2 0 Z M 473 0 L 387 0 L 336 184 L 134 184 L 86 0 L 2 0 L 206 734 L 268 734 L 473 0 Z M 320 259 L 235 560 L 150 259 L 320 259 Z M 233 798 L 233 798 Z M 292 955 L 361 955 C 357 900 343 860 320 835 C 297 810 268 798 233 798 C 197 798 168 810 145 835 C 122 860 109 900 106 955 L 175 955 C 177 925 182 902 190 885 C 198 868 212 860 233 860 C 253 860 268 868 276 884 C 284 900 290 924 292 955 Z" unicode="Ă" />
<glyph horiz-adv-x="368" d="M 21 0 L 21 0 Z M 326 0 L 251 0 L 251 50 C 239 34 223 20 204 10 C 184 0 161 -5 135 -5 C 103 -5 76 6 54 29 C 32 52 21 85 21 128 C 21 176 36 210 66 232 C 96 254 132 266 172 269 L 248 273 L 248 300 C 248 326 241 346 227 359 C 213 371 193 378 166 378 C 142 378 123 374 108 367 C 93 360 82 353 74 345 L 50 398 C 64 412 83 423 105 431 C 127 439 155 444 189 444 C 227 444 259 433 286 411 C 312 389 326 357 326 313 L 326 0 Z M 250 101 L 250 213 L 187 209 C 165 207 144 200 125 188 C 106 175 97 155 97 129 C 97 106 104 90 120 80 C 135 70 151 65 169 65 C 188 65 204 68 218 76 C 231 83 242 91 250 101 Z M 177 504 L 177 504 Z M 236 661 L 305 661 C 301 606 287 566 264 541 C 241 516 212 504 177 504 C 141 504 112 516 89 541 C 66 566 53 606 50 661 L 119 661 C 121 631 126 608 134 591 C 142 574 156 566 177 566 C 197 566 212 574 220 590 C 228 606 234 630 236 661 Z" unicode="ă" />
<glyph horiz-adv-x="475" d="M 2 0 L 2 0 Z M 473 0 L 387 0 L 336 184 L 134 184 L 86 0 L 2 0 L 206 734 L 268 734 L 473 0 Z M 320 259 L 235 560 L 150 259 L 320 259 Z M 404 -9 L 404 -9 Z M 502 -101 L 526 -136 C 506 -156 485 -171 461 -182 C 437 -192 411 -198 383 -198 C 351 -198 327 -190 309 -176 C 291 -161 282 -143 282 -121 C 282 -96 289 -73 305 -51 C 321 -29 348 -11 386 4 L 456 4 C 428 -8 404 -22 384 -38 C 363 -54 353 -71 353 -87 C 353 -101 358 -113 369 -122 C 379 -131 393 -136 410 -136 C 428 -136 446 -132 462 -126 C 478 -119 491 -111 502 -101 Z" unicode="Ą" />
<glyph horiz-adv-x="368" d="M 21 0 L 21 0 Z M 326 0 L 251 0 L 251 50 C 239 34 223 20 204 10 C 184 0 161 -5 135 -5 C 103 -5 76 6 54 29 C 32 52 21 85 21 128 C 21 176 36 210 66 232 C 96 254 132 266 172 269 L 248 273 L 248 300 C 248 326 241 346 227 359 C 213 371 193 378 166 378 C 142 378 123 374 108 367 C 93 360 82 353 74 345 L 50 398 C 64 412 83 423 105 431 C 127 439 155 444 189 444 C 227 444 259 433 286 411 C 312 389 326 357 326 313 L 326 0 Z M 250 101 L 250 213 L 187 209 C 165 207 144 200 125 188 C 106 175 97 155 97 129 C 97 106 104 90 120 80 C 135 70 151 65 169 65 C 188 65 204 68 218 76 C 231 83 242 91 250 101 Z M 269 -9 L 269 -9 Z M 367 -101 L 391 -136 C 371 -156 350 -171 326 -182 C 302 -192 276 -198 248 -198 C 216 -198 192 -190 174 -176 C 156 -161 147 -143 147 -121 C 147 -96 154 -73 170 -51 C 186 -29 213 -11 251 4 L 321 4 C 293 -8 269 -22 249 -38 C 228 -54 218 -71 218 -87 C 218 -101 223 -113 234 -122 C 244 -131 258 -136 275 -136 C 293 -136 311 -132 327 -126 C 343 -119 356 -111 367 -101 Z" unicode="ą" />
<glyph horiz-adv-x="476" d="M 36 0 L 36 0 Z M 271 -7 C 237 -7 206 0 177 16 C 148 31 123 54 103 85 C 82 115 66 154 54 201 C 42 248 36 303 36 366 C 36 484 56 575 97 640 C 138 704 196 737 271 737 C 331 737 375 723 403 696 C 431 669 451 637 464 601 L 385 571 C 375 593 361 613 345 630 C 329 646 305 655 273 655 C 227 655 192 632 166 586 C 140 540 127 465 127 361 C 127 308 131 263 140 227 C 148 190 160 160 174 138 C 188 116 205 100 223 90 C 241 80 260 75 279 75 C 312 75 337 82 355 98 C 372 113 386 135 398 163 L 471 135 C 455 91 431 57 399 31 C 367 5 325 -7 271 -7 Z M 273 792 L 273 792 Z M 184 792 L 268 964 L 362 964 L 264 792 L 184 792 Z" unicode="Ć" />
<glyph horiz-adv-x="337" d="M 22 0 L 22 0 Z M 279 116 L 331 76 C 321 58 307 40 288 22 C 269 4 239 -5 197 -5 C 141 -5 97 15 67 57 C 37 99 22 152 22 217 C 22 247 25 275 33 303 C 41 330 52 354 67 374 C 81 394 100 411 122 423 C 144 435 170 441 200 441 C 235 441 263 433 284 417 C 305 401 322 383 334 365 L 283 315 C 274 329 263 342 251 354 C 239 366 222 372 200 372 C 171 372 148 357 132 329 C 116 300 108 264 108 220 C 108 168 117 128 135 101 C 153 74 177 61 205 61 C 225 61 241 67 252 80 C 263 92 272 104 279 116 Z M 188 498 L 188 498 Z M 99 498 L 183 670 L 277 670 L 179 498 L 99 498 Z" unicode="ć" />
<glyph horiz-adv-x="476" d="M 36 0 L 36 0 Z M 271 -7 C 237 -7 206 0 177 16 C 148 31 123 54 103 85 C 82 115 66 154 54 201 C 42 248 36 303 36 366 C 36 484 56 575 97 640 C 138 704 196 737 271 737 C 331 737 375 723 403 696 C 431 669 451 637 464 601 L 385 571 C 375 593 361 613 345 630 C 329 646 305 655 273 655 C 227 655 192 632 166 586 C 140 540 127 465 127 361 C 127 308 131 263 140 227 C 148 190 160 160 174 138 C 188 116 205 100 223 90 C 241 80 260 75 279 75 C 312 75 337 82 355 98 C 372 113 386 135 398 163 L 471 135 C 455 91 431 57 399 31 C 367 5 325 -7 271 -7 Z M 273 793 L 273 793 Z M 405 793 L 338 793 L 273 909 L 207 793 L 141 793 L 238 964 L 308 964 L 405 793 Z" unicode="Ĉ" />
<glyph horiz-adv-x="337" d="M 22 0 L 22 0 Z M 279 116 L 331 76 C 321 58 307 40 288 22 C 269 4 239 -5 197 -5 C 141 -5 97 15 67 57 C 37 99 22 152 22 217 C 22 247 25 275 33 303 C 41 330 52 354 67 374 C 81 394 100 411 122 423 C 144 435 170 441 200 441 C 235 441 263 433 284 417 C 305 401 322 383 334 365 L 283 315 C 274 329 263 342 251 354 C 239 366 222 372 200 372 C 171 372 148 357 132 329 C 116 300 108 264 108 220 C 108 168 117 128 135 101 C 153 74 177 61 205 61 C 225 61 241 67 252 80 C 263 92 272 104 279 116 Z M 188 499 L 188 499 Z M 320 499 L 253 499 L 188 615 L 122 499 L 56 499 L 153 670 L 223 670 L 320 499 Z" unicode="ĉ" />
<glyph horiz-adv-x="476" d="M 36 0 L 36 0 Z M 271 -7 C 237 -7 206 0 177 16 C 148 31 123 54 103 85 C 82 115 66 154 54 201 C 42 248 36 303 36 366 C 36 484 56 575 97 640 C 138 704 196 737 271 737 C 331 737 375 723 403 696 C 431 669 451 637 464 601 L 385 571 C 375 593 361 613 345 630 C 329 646 305 655 273 655 C 227 655 192 632 166 586 C 140 540 127 465 127 361 C 127 308 131 263 140 227 C 148 190 160 160 174 138 C 188 116 205 100 223 90 C 241 80 260 75 279 75 C 312 75 337 82 355 98 C 372 113 386 135 398 163 L 471 135 C 455 91 431 57 399 31 C 367 5 325 -7 271 -7 Z M 273 811 L 273 811 Z M 312 811 L 235 811 L 235 925 L 312 925 L 312 811 Z" unicode="Ċ" />
<glyph horiz-adv-x="337" d="M 22 0 L 22 0 Z M 279 116 L 331 76 C 321 58 307 40 288 22 C 269 4 239 -5 197 -5 C 141 -5 97 15 67 57 C 37 99 22 152 22 217 C 22 247 25 275 33 303 C 41 330 52 354 67 374 C 81 394 100 411 122 423 C 144 435 170 441 200 441 C 235 441 263 433 284 417 C 305 401 322 383 334 365 L 283 315 C 274 329 263 342 251 354 C 239 366 222 372 200 372 C 171 372 148 357 132 329 C 116 300 108 264 108 220 C 108 168 117 128 135 101 C 153 74 177 61 205 61 C 225 61 241 67 252 80 C 263 92 272 104 279 116 Z M 188 517 L 188 517 Z M 227 517 L 150 517 L 150 631 L 227 631 L 227 517 Z" unicode="ċ" />
<glyph horiz-adv-x="476" d="M 36 0 L 36 0 Z M 271 -7 C 237 -7 206 0 177 16 C 148 31 123 54 103 85 C 82 115 66 154 54 201 C 42 248 36 303 36 366 C 36 484 56 575 97 640 C 138 704 196 737 271 737 C 331 737 375 723 403 696 C 431 669 451 637 464 601 L 385 571 C 375 593 361 613 345 630 C 329 646 305 655 273 655 C 227 655 192 632 166 586 C 140 540 127 465 127 361 C 127 308 131 263 140 227 C 148 190 160 160 174 138 C 188 116 205 100 223 90 C 241 80 260 75 279 75 C 312 75 337 82 355 98 C 372 113 386 135 398 163 L 471 135 C 455 91 431 57 399 31 C 367 5 325 -7 271 -7 Z M 273 793 L 273 793 Z M 141 964 L 209 964 L 274 848 L 340 964 L 405 964 L 308 793 L 238 793 L 141 964 Z" unicode="Č" />
<glyph horiz-adv-x="337" d="M 22 0 L 22 0 Z M 279 116 L 331 76 C 321 58 307 40 288 22 C 269 4 239 -5 197 -5 C 141 -5 97 15 67 57 C 37 99 22 152 22 217 C 22 247 25 275 33 303 C 41 330 52 354 67 374 C 81 394 100 411 122 423 C 144 435 170 441 200 441 C 235 441 263 433 284 417 C 305 401 322 383 334 365 L 283 315 C 274 329 263 342 251 354 C 239 366 222 372 200 372 C 171 372 148 357 132 329 C 116 300 108 264 108 220 C 108 168 117 128 135 101 C 153 74 177 61 205 61 C 225 61 241 67 252 80 C 263 92 272 104 279 116 Z M 188 499 L 188 499 Z M 56 670 L 124 670 L 189 554 L 255 670 L 320 670 L 223 499 L 153 499 L 56 670 Z" unicode="č" />
<glyph horiz-adv-x="534" d="M 63 0 L 63 0 Z M 63 0 L 63 730 L 217 730 C 262 730 302 721 338 704 C 373 686 402 662 426 630 C 450 598 468 560 480 515 C 492 469 499 419 499 363 C 499 312 493 264 481 220 C 469 176 451 137 427 105 C 403 73 373 47 337 28 C 300 9 257 0 209 0 L 63 0 Z M 152 78 L 209 78 C 245 78 275 84 301 98 C 326 112 346 131 362 156 C 378 180 389 210 397 245 C 404 280 408 319 408 361 C 408 458 391 531 358 579 C 324 627 278 651 218 651 L 152 651 L 152 78 Z M 243 793 L 243 793 Z M 111 964 L 179 964 L 244 848 L 310 964 L 375 964 L 278 793 L 208 793 L 111 964 Z" unicode="Ď" />
<glyph horiz-adv-x="416" d="M 22 0 L 22 0 Z M 178 -5 C 154 -5 132 0 113 11 C 93 22 77 37 64 57 C 50 77 40 100 33 127 C 25 153 22 182 22 214 C 22 282 37 337 67 378 C 97 418 135 439 181 439 C 212 439 237 430 256 414 C 275 398 288 378 295 356 L 295 783 L 373 783 L 373 0 L 298 0 L 298 70 C 291 53 279 36 261 20 C 243 3 216 -5 178 -5 Z M 203 59 C 231 59 254 73 271 102 C 288 130 297 170 297 221 C 297 271 287 308 269 333 C 250 358 227 371 199 371 C 170 371 148 357 132 330 C 116 303 109 265 109 217 C 109 170 117 132 133 103 C 149 73 173 59 203 59 Z M 496 621 L 492 486 L 422 486 L 418 621 L 418 730 L 496 730 L 496 621 Z" unicode="ď" />
<glyph horiz-adv-x="534" d="M 20 0 L 20 0 Z M 499 363 C 499 312 493 264 481 220 C 469 176 451 137 427 105 C 403 73 373 47 337 28 C 300 9 257 0 209 0 L 63 0 L 63 332 L 20 332 L 20 396 L 63 396 L 63 730 L 217 730 C 262 730 302 721 338 704 C 373 686 402 662 426 630 C 450 598 468 560 480 515 C 492 469 499 419 499 363 Z M 152 70 L 209 70 C 245 70 275 77 301 91 C 326 105 346 124 362 150 C 378 175 389 206 397 242 C 404 278 408 317 408 361 C 408 461 391 536 358 586 C 324 635 278 660 218 660 L 152 660 L 152 396 L 317 396 L 317 332 L 152 332 L 152 70 Z" unicode="Đ" />
<glyph horiz-adv-x="416" d="M 298 70 C 291 53 279 36 261 20 C 243 3 216 -5 178 -5 C 154 -5 132 0 113 11 C 93 22 77 37 64 57 C 50 77 40 100 33 127 C 25 153 22 182 22 214 C 22 282 37 337 67 378 C 97 418 135 439 181 439 C 212 439 237 430 256 414 C 275 398 288 378 295 356 L 295 570 L 184 570 L 184 640 L 295 640 L 295 783 L 373 783 L 373 640 L 406 640 L 406 570 L 373 570 L 373 0 L 298 0 L 298 70 Z M 203 59 C 231 59 254 73 271 102 C 288 130 297 170 297 221 C 297 271 287 308 269 333 C 250 358 227 371 199 371 C 170 371 148 357 132 330 C 116 303 109 265 109 217 C 109 170 117 132 133 103 C 149 73 173 59 203 59 Z" unicode="đ" />
<glyph horiz-adv-x="388" d="M 63 0 L 63 0 Z M 378 0 L 63 0 L 63 730 L 361 730 L 361 649 L 150 649 L 150 405 L 353 405 L 353 324 L 150 324 L 150 81 L 378 81 L 378 0 Z M 210 819 L 210 819 Z M 329 819 L 91 819 L 91 881 L 329 881 L 329 819 Z" unicode="Ē" />
<glyph horiz-adv-x="381" d="M 22 0 L 22 0 Z M 199 -5 C 146 -5 103 14 71 53 C 38 91 22 146 22 216 C 22 251 26 283 35 311 C 44 339 56 362 72 381 C 87 400 105 415 126 425 C 146 435 168 441 191 441 C 245 441 286 420 315 380 C 343 340 358 279 358 198 L 105 198 C 105 144 114 108 132 88 C 150 68 174 58 203 58 C 231 58 252 63 268 74 C 283 85 297 98 310 113 L 353 71 C 339 53 321 36 298 20 C 275 3 242 -5 199 -5 Z M 108 255 L 279 255 C 278 293 271 323 257 345 C 243 367 223 378 197 378 C 170 378 149 367 134 345 C 119 323 110 293 108 255 Z M 193 525 L 193 525 Z M 312 525 L 74 525 L 74 587 L 312 587 L 312 525 Z" unicode="ē" />
<glyph horiz-adv-x="388" d="M 63 0 L 63 0 Z M 378 0 L 63 0 L 63 730 L 361 730 L 361 649 L 150 649 L 150 405 L 353 405 L 353 324 L 150 324 L 150 81 L 378 81 L 378 0 Z M 210 798 L 210 798 Z M 269 955 L 338 955 C 334 900 320 860 297 835 C 274 810 245 798 210 798 C 174 798 145 810 122 835 C 99 860 86 900 83 955 L 152 955 C 154 925 159 902 167 885 C 175 868 189 860 210 860 C 230 860 245 868 253 884 C 261 900 267 924 269 955 Z" unicode="Ĕ" />
<glyph horiz-adv-x="381" d="M 22 0 L 22 0 Z M 199 -5 C 146 -5 103 14 71 53 C 38 91 22 146 22 216 C 22 251 26 283 35 311 C 44 339 56 362 72 381 C 87 400 105 415 126 425 C 146 435 168 441 191 441 C 245 441 286 420 315 380 C 343 340 358 279 358 198 L 105 198 C 105 144 114 108 132 88 C 150 68 174 58 203 58 C 231 58 252 63 268 74 C 283 85 297 98 310 113 L 353 71 C 339 53 321 36 298 20 C 275 3 242 -5 199 -5 Z M 108 255 L 279 255 C 278 293 271 323 257 345 C 243 367 223 378 197 378 C 170 378 149 367 134 345 C 119 323 110 293 108 255 Z M 193 504 L 193 504 Z M 252 661 L 321 661 C 317 606 303 566 280 541 C 257 516 228 504 193 504 C 157 504 128 516 105 541 C 82 566 69 606 66 661 L 135 661 C 137 631 142 608 150 591 C 158 574 172 566 193 566 C 213 566 228 574 236 590 C 244 606 250 630 252 661 Z" unicode="ĕ" />
<glyph horiz-adv-x="388" d="M 63 0 L 63 0 Z M 378 0 L 63 0 L 63 730 L 361 730 L 361 649 L 150 649 L 150 405 L 353 405 L 353 324 L 150 324 L 150 81 L 378 81 L 378 0 Z M 210 811 L 210 811 Z M 249 811 L 172 811 L 172 925 L 249 925 L 249 811 Z" unicode="Ė" />
<glyph horiz-adv-x="381" d="M 22 0 L 22 0 Z M 199 -5 C 146 -5 103 14 71 53 C 38 91 22 146 22 216 C 22 251 26 283 35 311 C 44 339 56 362 72 381 C 87 400 105 415 126 425 C 146 435 168 441 191 441 C 245 441 286 420 315 380 C 343 340 358 279 358 198 L 105 198 C 105 144 114 108 132 88 C 150 68 174 58 203 58 C 231 58 252 63 268 74 C 283 85 297 98 310 113 L 353 71 C 339 53 321 36 298 20 C 275 3 242 -5 199 -5 Z M 108 255 L 279 255 C 278 293 271 323 257 345 C 243 367 223 378 197 378 C 170 378 149 367 134 345 C 119 323 110 293 108 255 Z M 193 517 L 193 517 Z M 232 517 L 155 517 L 155 631 L 232 631 L 232 517 Z" unicode="ė" />
<glyph horiz-adv-x="388" d="M 63 0 L 63 0 Z M 378 0 L 63 0 L 63 730 L 361 730 L 361 649 L 150 649 L 150 405 L 353 405 L 353 324 L 150 324 L 150 81 L 378 81 L 378 0 Z M 326 -9 L 326 -9 Z M 424 -101 L 448 -136 C 428 -156 407 -171 383 -182 C 359 -192 333 -198 305 -198 C 273 -198 249 -190 231 -176 C 213 -161 204 -143 204 -121 C 204 -96 211 -73 227 -51 C 243 -29 270 -11 308 4 L 378 4 C 350 -8 326 -22 306 -38 C 285 -54 275 -71 275 -87 C 275 -101 280 -113 291 -122 C 301 -131 315 -136 332 -136 C 350 -136 368 -132 384 -126 C 400 -119 413 -111 424 -101 Z" unicode="Ę" />
<glyph horiz-adv-x="381" d="M 22 0 L 22 0 Z M 199 -5 C 146 -5 103 14 71 53 C 38 91 22 146 22 216 C 22 251 26 283 35 311 C 44 339 56 362 72 381 C 87 400 105 415 126 425 C 146 435 168 441 191 441 C 245 441 286 420 315 380 C 343 340 358 279 358 198 L 105 198 C 105 144 114 108 132 88 C 150 68 174 58 203 58 C 231 58 252 63 268 74 C 283 85 297 98 310 113 L 353 71 C 339 53 321 36 298 20 C 275 3 242 -5 199 -5 Z M 108 255 L 279 255 C 278 293 271 323 257 345 C 243 367 223 378 197 378 C 170 378 149 367 134 345 C 119 323 110 293 108 255 Z M 209 -9 L 209 -9 Z M 307 -101 L 331 -136 C 311 -156 290 -171 266 -182 C 242 -192 216 -198 188 -198 C 156 -198 132 -190 114 -176 C 96 -161 87 -143 87 -121 C 87 -96 94 -73 110 -51 C 126 -29 153 -11 191 4 L 261 4 C 233 -8 209 -22 189 -38 C 168 -54 158 -71 158 -87 C 158 -101 163 -113 174 -122 C 184 -131 198 -136 215 -136 C 233 -136 251 -132 267 -126 C 283 -119 296 -111 307 -101 Z" unicode="ę" />
<glyph horiz-adv-x="388" d="M 63 0 L 63 0 Z M 378 0 L 63 0 L 63 730 L 361 730 L 361 649 L 150 649 L 150 405 L 353 405 L 353 324 L 150 324 L 150 81 L 378 81 L 378 0 Z M 210 793 L 210 793 Z M 78 964 L 146 964 L 211 848 L 277 964 L 342 964 L 245 793 L 175 793 L 78 964 Z" unicode="Ě" />
<glyph horiz-adv-x="381" d="M 22 0 L 22 0 Z M 199 -5 C 146 -5 103 14 71 53 C 38 91 22 146 22 216 C 22 251 26 283 35 311 C 44 339 56 362 72 381 C 87 400 105 415 126 425 C 146 435 168 441 191 441 C 245 441 286 420 315 380 C 343 340 358 279 358 198 L 105 198 C 105 144 114 108 132 88 C 150 68 174 58 203 58 C 231 58 252 63 268 74 C 283 85 297 98 310 113 L 353 71 C 339 53 321 36 298 20 C 275 3 242 -5 199 -5 Z M 108 255 L 279 255 C 278 293 271 323 257 345 C 243 367 223 378 197 378 C 170 378 149 367 134 345 C 119 323 110 293 108 255 Z M 193 499 L 193 499 Z M 61 670 L 129 670 L 194 554 L 260 670 L 325 670 L 228 499 L 158 499 L 61 670 Z" unicode="ě" />
<glyph horiz-adv-x="523" d="M 36 0 L 36 0 Z M 280 359 L 495 359 L 495 117 C 477 79 449 49 413 27 C 376 4 330 -7 276 -7 C 242 -7 211 1 182 18 C 152 34 127 58 106 90 C 84 122 67 161 55 207 C 42 253 36 306 36 365 C 36 421 41 473 53 519 C 64 565 80 605 101 637 C 122 669 148 693 178 711 C 208 728 241 737 277 737 C 332 737 375 723 405 697 C 435 671 458 640 473 604 L 396 574 C 385 596 371 616 353 632 C 335 648 309 656 276 656 C 232 656 196 632 168 584 C 140 536 126 463 126 364 C 126 265 140 191 170 143 C 200 94 236 70 280 70 C 312 70 340 76 362 88 C 384 100 401 116 414 138 L 414 282 L 280 282 L 280 359 Z M 273 793 L 273 793 Z M 405 793 L 338 793 L 273 909 L 207 793 L 141 793 L 238 964 L 308 964 L 405 793 Z" unicode="Ĝ" />
<glyph horiz-adv-x="413" d="M 22 0 L 22 0 Z M 184 -2 C 136 -2 97 17 67 55 C 37 93 22 146 22 214 C 22 249 26 281 35 309 C 43 337 55 360 69 379 C 83 398 100 413 120 423 C 140 433 160 439 182 439 C 210 439 234 430 253 414 C 272 397 286 378 295 358 L 295 436 L 371 436 L 371 8 C 371 -26 366 -57 356 -83 C 346 -109 332 -130 316 -147 C 300 -163 281 -176 260 -184 C 238 -192 217 -196 195 -196 C 164 -196 139 -192 119 -186 C 99 -180 85 -173 75 -167 L 97 -108 C 108 -114 121 -119 137 -123 C 152 -127 170 -129 191 -129 C 221 -129 246 -117 265 -94 C 283 -71 293 -38 293 5 L 293 75 C 286 55 273 38 255 22 C 236 6 212 -2 184 -2 Z M 202 57 C 230 57 252 70 270 98 C 288 126 297 167 297 221 C 297 273 286 311 266 337 C 246 363 224 376 200 376 C 172 376 149 362 133 334 C 117 306 109 267 109 218 C 109 170 116 131 131 101 C 146 71 170 57 202 57 Z M 194 499 L 194 499 Z M 326 499 L 259 499 L 194 615 L 128 499 L 62 499 L 159 670 L 229 670 L 326 499 Z" unicode="ĝ" />
<glyph horiz-adv-x="523" d="M 36 0 L 36 0 Z M 280 359 L 495 359 L 495 117 C 477 79 449 49 413 27 C 376 4 330 -7 276 -7 C 242 -7 211 1 182 18 C 152 34 127 58 106 90 C 84 122 67 161 55 207 C 42 253 36 306 36 365 C 36 421 41 473 53 519 C 64 565 80 605 101 637 C 122 669 148 693 178 711 C 208 728 241 737 277 737 C 332 737 375 723 405 697 C 435 671 458 640 473 604 L 396 574 C 385 596 371 616 353 632 C 335 648 309 656 276 656 C 232 656 196 632 168 584 C 140 536 126 463 126 364 C 126 265 140 191 170 143 C 200 94 236 70 280 70 C 312 70 340 76 362 88 C 384 100 401 116 414 138 L 414 282 L 280 282 L 280 359 Z M 273 798 L 273 798 Z M 332 955 L 401 955 C 397 900 383 860 360 835 C 337 810 308 798 273 798 C 237 798 208 810 185 835 C 162 860 149 900 146 955 L 215 955 C 217 925 222 902 230 885 C 238 868 252 860 273 860 C 293 860 308 868 316 884 C 324 900 330 924 332 955 Z" unicode="Ğ" />
<glyph horiz-adv-x="413" d="M 22 0 L 22 0 Z M 184 -2 C 136 -2 97 17 67 55 C 37 93 22 146 22 214 C 22 249 26 281 35 309 C 43 337 55 360 69 379 C 83 398 100 413 120 423 C 140 433 160 439 182 439 C 210 439 234 430 253 414 C 272 397 286 378 295 358 L 295 436 L 371 436 L 371 8 C 371 -26 366 -57 356 -83 C 346 -109 332 -130 316 -147 C 300 -163 281 -176 260 -184 C 238 -192 217 -196 195 -196 C 164 -196 139 -192 119 -186 C 99 -180 85 -173 75 -167 L 97 -108 C 108 -114 121 -119 137 -123 C 152 -127 170 -129 191 -129 C 221 -129 246 -117 265 -94 C 283 -71 293 -38 293 5 L 293 75 C 286 55 273 38 255 22 C 236 6 212 -2 184 -2 Z M 202 57 C 230 57 252 70 270 98 C 288 126 297 167 297 221 C 297 273 286 311 266 337 C 246 363 224 376 200 376 C 172 376 149 362 133 334 C 117 306 109 267 109 218 C 109 170 116 131 131 101 C 146 71 170 57 202 57 Z M 194 504 L 194 504 Z M 253 661 L 322 661 C 318 606 304 566 281 541 C 258 516 229 504 194 504 C 158 504 129 516 106 541 C 83 566 70 606 67 661 L 136 661 C 138 631 143 608 151 591 C 159 574 173 566 194 566 C 214 566 229 574 237 590 C 245 606 251 630 253 661 Z" unicode="ğ" />
<glyph horiz-adv-x="523" d="M 36 0 L 36 0 Z M 280 359 L 495 359 L 495 117 C 477 79 449 49 413 27 C 376 4 330 -7 276 -7 C 242 -7 211 1 182 18 C 152 34 127 58 106 90 C 84 122 67 161 55 207 C 42 253 36 306 36 365 C 36 421 41 473 53 519 C 64 565 80 605 101 637 C 122 669 148 693 178 711 C 208 728 241 737 277 737 C 332 737 375 723 405 697 C 435 671 458 640 473 604 L 396 574 C 385 596 371 616 353 632 C 335 648 309 656 276 656 C 232 656 196 632 168 584 C 140 536 126 463 126 364 C 126 265 140 191 170 143 C 200 94 236 70 280 70 C 312 70 340 76 362 88 C 384 100 401 116 414 138 L 414 282 L 280 282 L 280 359 Z M 273 811 L 273 811 Z M 312 811 L 235 811 L 235 925 L 312 925 L 312 811 Z" unicode="Ġ" />
<glyph horiz-adv-x="413" d="M 22 0 L 22 0 Z M 184 -2 C 136 -2 97 17 67 55 C 37 93 22 146 22 214 C 22 249 26 281 35 309 C 43 337 55 360 69 379 C 83 398 100 413 120 423 C 140 433 160 439 182 439 C 210 439 234 430 253 414 C 272 397 286 378 295 358 L 295 436 L 371 436 L 371 8 C 371 -26 366 -57 356 -83 C 346 -109 332 -130 316 -147 C 300 -163 281 -176 260 -184 C 238 -192 217 -196 195 -196 C 164 -196 139 -192 119 -186 C 99 -180 85 -173 75 -167 L 97 -108 C 108 -114 121 -119 137 -123 C 152 -127 170 -129 191 -129 C 221 -129 246 -117 265 -94 C 283 -71 293 -38 293 5 L 293 75 C 286 55 273 38 255 22 C 236 6 212 -2 184 -2 Z M 202 57 C 230 57 252 70 270 98 C 288 126 297 167 297 221 C 297 273 286 311 266 337 C 246 363 224 376 200 376 C 172 376 149 362 133 334 C 117 306 109 267 109 218 C 109 170 116 131 131 101 C 146 71 170 57 202 57 Z M 194 517 L 194 517 Z M 233 517 L 156 517 L 156 631 L 233 631 L 233 517 Z" unicode="ġ" />
<glyph horiz-adv-x="523" d="M 36 0 L 36 0 Z M 280 359 L 495 359 L 495 117 C 477 79 449 49 413 27 C 376 4 330 -7 276 -7 C 242 -7 211 1 182 18 C 152 34 127 58 106 90 C 84 122 67 161 55 207 C 42 253 36 306 36 365 C 36 421 41 473 53 519 C 64 565 80 605 101 637 C 122 669 148 693 178 711 C 208 728 241 737 277 737 C 332 737 375 723 405 697 C 435 671 458 640 473 604 L 396 574 C 385 596 371 616 353 632 C 335 648 309 656 276 656 C 232 656 196 632 168 584 C 140 536 126 463 126 364 C 126 265 140 191 170 143 C 200 94 236 70 280 70 C 312 70 340 76 362 88 C 384 100 401 116 414 138 L 414 282 L 280 282 L 280 359 Z M 262 -69 L 262 -69 Z M 339 -69 C 339 -91 336 -113 330 -137 C 324 -160 317 -182 309 -204 C 300 -226 290 -246 279 -265 C 268 -284 257 -300 247 -313 L 183 -284 C 189 -274 196 -262 204 -247 C 212 -231 219 -214 226 -195 C 233 -176 239 -156 244 -134 C 249 -112 252 -90 253 -69 L 339 -69 Z" unicode="Ģ" />
<glyph horiz-adv-x="413" d="M 22 0 L 22 0 Z M 184 -2 C 136 -2 97 17 67 55 C 37 93 22 146 22 214 C 22 249 26 281 35 309 C 43 337 55 360 69 379 C 83 398 100 413 120 423 C 140 433 160 439 182 439 C 210 439 234 430 253 414 C 272 397 286 378 295 358 L 295 436 L 371 436 L 371 8 C 371 -26 366 -57 356 -83 C 346 -109 332 -130 316 -147 C 300 -163 281 -176 260 -184 C 238 -192 217 -196 195 -196 C 164 -196 139 -192 119 -186 C 99 -180 85 -173 75 -167 L 97 -108 C 108 -114 121 -119 137 -123 C 152 -127 170 -129 191 -129 C 221 -129 246 -117 265 -94 C 283 -71 293 -38 293 5 L 293 75 C 286 55 273 38 255 22 C 236 6 212 -2 184 -2 Z M 202 57 C 230 57 252 70 270 98 C 288 126 297 167 297 221 C 297 273 286 311 266 337 C 246 363 224 376 200 376 C 172 376 149 362 133 334 C 117 306 109 267 109 218 C 109 170 116 131 131 101 C 146 71 170 57 202 57 Z" unicode="ģ" />
<glyph horiz-adv-x="536" d="M 63 0 L 63 0 Z M 473 0 L 383 0 L 383 318 L 153 318 L 153 0 L 63 0 L 63 730 L 153 730 L 153 403 L 383 403 L 383 730 L 473 730 L 473 0 Z M 269 793 L 269 793 Z M 401 793 L 334 793 L 269 909 L 203 793 L 137 793 L 234 964 L 304 964 L 401 793 Z" unicode="Ĥ" />
<glyph horiz-adv-x="397" d="M 42 0 L 42 0 Z M 355 0 L 273 0 L 273 289 C 273 316 266 336 254 349 C 241 362 224 369 202 369 C 181 369 163 362 148 349 C 132 335 125 311 125 275 L 125 0 L 42 0 L 42 783 L 120 783 L 120 369 C 126 389 139 407 157 421 C 175 435 200 442 232 442 C 268 442 298 432 321 413 C 343 393 355 362 355 318 L 355 0 Z M 199 846 L 199 846 Z M 331 846 L 264 846 L 199 962 L 133 846 L 67 846 L 164 1017 L 234 1017 L 331 846 Z" unicode="ĥ" />
<glyph horiz-adv-x="536" d="M 153 318 L 153 0 L 63 0 L 63 547 L 12 547 L 12 618 L 63 618 L 63 730 L 153 730 L 153 618 L 383 618 L 383 730 L 473 730 L 473 618 L 523 618 L 523 547 L 473 547 L 473 0 L 383 0 L 383 318 L 153 318 Z M 153 403 L 383 403 L 383 547 L 153 547 L 153 403 Z" unicode="Ħ" />
<glyph horiz-adv-x="397" d="M 125 275 L 125 0 L 42 0 L 42 570 L 10 570 L 10 640 L 42 640 L 42 783 L 120 783 L 120 640 L 231 640 L 231 570 L 120 570 L 120 369 C 126 389 139 407 157 421 C 175 435 200 442 232 442 C 268 442 298 432 321 413 C 343 393 355 362 355 318 L 355 0 L 273 0 L 273 289 C 273 316 266 336 254 349 C 241 362 224 369 202 369 C 181 369 163 362 148 349 C 132 335 125 311 125 275 Z" unicode="ħ" />
<glyph horiz-adv-x="224" d="M 0 0 L 0 0 Z M 158 0 L 67 0 L 67 730 L 158 730 L 158 0 Z M 113 800 L 113 800 Z M 199 935 L 261 935 C 261 889 254 855 242 833 C 229 811 213 800 193 800 C 175 800 161 803 149 811 C 137 819 126 827 117 835 C 108 842 99 849 89 857 C 79 865 70 869 60 869 C 51 869 43 863 37 853 C 30 842 26 825 26 803 L -34 803 C -34 848 -26 882 -12 904 C 2 926 19 938 38 938 C 54 938 69 933 81 925 C 93 917 104 908 114 900 C 122 892 131 885 140 878 C 148 871 157 868 166 868 C 174 868 182 873 189 884 C 195 895 199 912 199 935 Z" unicode="Ĩ" />
<glyph horiz-adv-x="172" d="M 0 0 L 0 0 Z M 128 0 L 45 0 L 45 436 L 128 436 L 128 0 Z M 86 506 L 86 506 Z M 172 641 L 234 641 C 234 595 227 561 215 539 C 202 517 186 506 166 506 C 148 506 134 509 122 517 C 110 525 99 533 90 541 C 81 548 72 555 62 563 C 52 571 43 575 33 575 C 24 575 16 569 10 559 C 3 548 0 531 -1 509 L -61 509 C -61 554 -53 588 -39 610 C -24 632 -7 644 11 644 C 27 644 42 639 54 631 C 66 623 77 614 87 606 C 95 598 104 591 113 584 C 121 577 130 574 139 574 C 147 574 155 579 162 590 C 168 601 172 618 172 641 Z" unicode="ĩ" />
<glyph horiz-adv-x="224" d="M 0 0 L 0 0 Z M 158 0 L 67 0 L 67 730 L 158 730 L 158 0 Z M 113 819 L 113 819 Z M 232 819 L -6 819 L -6 881 L 232 881 L 232 819 Z" unicode="Ī" />
<glyph horiz-adv-x="172" d="M 0 0 L 0 0 Z M 128 0 L 45 0 L 45 436 L 128 436 L 128 0 Z M 86 525 L 86 525 Z M 205 525 L -33 525 L -33 587 L 205 587 L 205 525 Z" unicode="ī" />
<glyph horiz-adv-x="224" d="M 0 0 L 0 0 Z M 158 0 L 67 0 L 67 730 L 158 730 L 158 0 Z M 113 798 L 113 798 Z M 172 955 L 241 955 C 237 900 223 860 200 835 C 177 810 148 798 113 798 C 77 798 48 810 25 835 C 2 860 -10 900 -14 955 L 55 955 C 57 925 62 902 70 885 C 78 868 92 860 113 860 C 133 860 148 868 156 884 C 164 900 170 924 172 955 Z" unicode="Ĭ" />
<glyph horiz-adv-x="172" d="M 0 0 L 0 0 Z M 128 0 L 45 0 L 45 436 L 128 436 L 128 0 Z M 86 504 L 86 504 Z M 145 661 L 214 661 C 210 606 196 566 173 541 C 150 516 121 504 86 504 C 50 504 21 516 -1 541 C -24 566 -37 606 -41 661 L 28 661 C 30 631 35 608 43 591 C 51 574 65 566 86 566 C 106 566 121 574 129 590 C 137 606 143 630 145 661 Z" unicode="ĭ" />
<glyph horiz-adv-x="224" d="M 0 0 L 0 0 Z M 158 0 L 67 0 L 67 730 L 158 730 L 158 0 Z M 85 -9 L 85 -9 Z M 183 -101 L 207 -136 C 187 -156 166 -171 142 -182 C 118 -192 92 -198 64 -198 C 32 -198 8 -190 -10 -176 C -28 -161 -37 -143 -37 -121 C -37 -96 -29 -73 -13 -51 C 2 -29 29 -11 67 4 L 137 4 C 109 -8 85 -22 65 -38 C 44 -54 34 -71 34 -87 C 34 -101 39 -113 50 -122 C 60 -131 74 -136 91 -136 C 109 -136 127 -132 143 -126 C 159 -119 172 -111 183 -101 Z" unicode="Į" />
<glyph horiz-adv-x="172" d="M 0 0 L 0 0 Z M 43 530 L 43 617 L 129 617 L 129 530 L 43 530 Z M 45 0 L 45 436 L 127 436 L 127 0 L 45 0 Z M 63 -9 L 63 -9 Z M 161 -101 L 185 -136 C 165 -156 144 -171 120 -182 C 96 -192 70 -198 42 -198 C 10 -198 -14 -190 -32 -176 C -50 -161 -59 -143 -59 -121 C -59 -96 -51 -73 -35 -51 C -19 -29 7 -11 45 4 L 115 4 C 87 -8 63 -22 43 -38 C 22 -54 12 -71 12 -87 C 12 -101 17 -113 28 -122 C 38 -131 52 -136 69 -136 C 87 -136 105 -132 121 -126 C 137 -119 150 -111 161 -101 Z" unicode="į" />
<glyph horiz-adv-x="224" d="M 67 0 L 67 0 Z M 158 0 L 67 0 L 67 730 L 158 730 L 158 0 Z M 113 811 L 113 811 Z M 152 811 L 75 811 L 75 925 L 152 925 L 152 811 Z" unicode="İ" />
<glyph horiz-adv-x="172" d="M 128 0 L 45 0 L 45 436 L 128 436 L 128 0 Z" unicode="ı" />
<glyph horiz-adv-x="501" d="M 67 0 L 67 0 Z M 158 0 L 67 0 L 67 730 L 158 730 L 158 0 Z M 443 730 L 443 182 C 443 127 428 82 400 46 C 372 10 334 -8 286 -8 C 275 -8 263 -7 249 -5 C 235 -3 225 -1 219 1 L 220 85 C 224 82 231 80 240 78 C 248 76 257 76 267 76 C 294 76 315 88 330 113 C 345 137 353 167 353 201 L 353 730 L 443 730 Z" unicode="Ĳ" />
<glyph horiz-adv-x="341" d="M 43 0 L 43 0 Z M 43 530 L 43 617 L 129 617 L 129 530 L 43 530 Z M 45 0 L 45 436 L 127 436 L 127 0 L 45 0 Z M 300 530 L 214 530 L 214 617 L 300 617 L 300 530 Z M 298 436 L 298 -107 C 298 -133 290 -156 274 -174 C 258 -192 237 -201 211 -201 C 200 -201 189 -199 177 -197 C 165 -195 158 -192 154 -190 L 171 -127 C 173 -127 176 -128 179 -129 C 182 -129 186 -130 190 -130 C 197 -130 203 -126 208 -120 C 213 -114 216 -105 216 -95 L 216 436 L 298 436 Z" unicode="ĳ" />
<glyph horiz-adv-x="285" d="M 3 0 L 3 0 Z M 227 730 L 227 182 C 227 127 212 82 184 46 C 156 10 118 -8 70 -8 C 59 -8 47 -7 33 -5 C 19 -3 9 -1 3 1 L 4 85 C 8 82 15 80 24 78 C 32 76 41 76 51 76 C 78 76 99 88 114 113 C 129 137 137 167 137 201 L 137 730 L 227 730 Z M 181 793 L 181 793 Z M 313 793 L 246 793 L 181 909 L 115 793 L 49 793 L 146 964 L 216 964 L 313 793 Z" unicode="Ĵ" />
<glyph horiz-adv-x="172" d="M 0 0 L 0 0 Z M 130 436 L 130 -107 C 130 -133 122 -156 106 -174 C 90 -192 69 -201 43 -201 C 32 -201 21 -199 9 -197 C -2 -195 -10 -192 -14 -190 L 3 -127 C 5 -127 8 -128 11 -129 C 14 -129 18 -130 22 -130 C 29 -130 35 -126 40 -120 C 45 -114 48 -105 48 -95 L 48 436 L 130 436 Z M 87 499 L 87 499 Z M 219 499 L 152 499 L 87 615 L 21 499 L -45 499 L 52 670 L 122 670 L 219 499 Z" unicode="ĵ" />
<glyph horiz-adv-x="486" d="M 63 0 L 63 0 Z M 496 0 L 396 0 L 191 345 L 153 295 L 153 0 L 63 0 L 63 730 L 153 730 L 153 395 L 381 730 L 479 730 L 255 403 L 496 0 Z M 245 -69 L 245 -69 Z M 322 -69 C 322 -91 319 -113 313 -137 C 307 -160 300 -182 292 -204 C 283 -226 273 -246 262 -265 C 251 -284 240 -300 230 -313 L 166 -284 C 172 -274 179 -262 187 -247 C 195 -231 202 -214 209 -195 C 216 -176 222 -156 227 -134 C 232 -112 235 -90 236 -69 L 322 -69 Z" unicode="Ķ" />
<glyph horiz-adv-x="363" d="M 42 0 L 42 0 Z M 371 2 L 284 -1 L 180 187 L 124 107 L 124 0 L 42 0 L 42 783 L 120 783 L 120 202 L 277 436 L 360 436 L 236 250 L 371 2 Z M 182 -69 L 182 -69 Z M 259 -69 C 259 -91 256 -113 250 -137 C 244 -160 237 -182 229 -204 C 220 -226 210 -246 199 -265 C 188 -284 177 -300 167 -313 L 103 -284 C 109 -274 116 -262 124 -247 C 132 -231 139 -214 146 -195 C 153 -176 159 -156 164 -134 C 169 -112 172 -90 173 -69 L 259 -69 Z" unicode="ķ" />
<glyph horiz-adv-x="363" d="M 371 2 L 284 -1 L 180 187 L 124 107 L 124 0 L 42 0 L 42 436 L 120 436 L 120 202 L 277 436 L 360 436 L 236 250 L 371 2 Z" unicode="ĸ" />
<glyph horiz-adv-x="357" d="M 63 0 L 63 0 Z M 351 0 L 63 0 L 63 730 L 153 730 L 153 81 L 351 81 L 351 0 Z M 175 792 L 175 792 Z M 86 792 L 170 964 L 264 964 L 166 792 L 86 792 Z" unicode="Ĺ" />
<glyph horiz-adv-x="167" d="M 42 0 L 42 0 Z M 135 862 L 135 862 Z M 46 862 L 130 1034 L 224 1034 L 126 862 L 46 862 Z M 125 800 L 125 0 L 42 0 L 42 800 L 125 800 Z" unicode="ĺ" />
<glyph horiz-adv-x="357" d="M 63 0 L 63 0 Z M 351 0 L 63 0 L 63 730 L 153 730 L 153 81 L 351 81 L 351 0 Z M 192 -69 L 192 -69 Z M 269 -69 C 269 -91 266 -113 260 -137 C 254 -160 247 -182 239 -204 C 230 -226 220 -246 209 -265 C 198 -284 187 -300 177 -313 L 113 -284 C 119 -274 126 -262 134 -247 C 142 -231 149 -214 156 -195 C 163 -176 169 -156 174 -134 C 179 -112 182 -90 183 -69 L 269 -69 Z" unicode="Ļ" />
<glyph horiz-adv-x="167" d="M 0 0 L 0 0 Z M 125 800 L 125 0 L 42 0 L 42 800 L 125 800 Z M 66 -69 L 66 -69 Z M 143 -69 C 143 -91 140 -113 134 -137 C 128 -160 121 -182 113 -204 C 104 -226 94 -246 83 -265 C 72 -284 61 -300 51 -313 L -13 -284 C -6 -274 0 -262 8 -247 C 16 -231 23 -214 30 -195 C 37 -176 43 -156 48 -134 C 53 -112 56 -90 57 -69 L 143 -69 Z" unicode="ļ" />
<glyph horiz-adv-x="357" d="M 63 0 L 63 0 Z M 351 0 L 63 0 L 63 730 L 153 730 L 153 81 L 351 81 L 351 0 Z M 352 621 L 348 486 L 278 486 L 274 621 L 274 730 L 352 730 L 352 621 Z" unicode="Ľ" />
<glyph horiz-adv-x="167" d="M 42 0 L 42 0 Z M 125 800 L 125 0 L 42 0 L 42 800 L 125 800 Z M 270 621 L 266 486 L 196 486 L 192 621 L 192 730 L 270 730 L 270 621 Z" unicode="ľ" />
<glyph horiz-adv-x="357" d="M 63 0 L 63 0 Z M 351 0 L 63 0 L 63 730 L 153 730 L 153 81 L 351 81 L 351 0 Z M 280 305 L 280 305 Z M 319 305 L 242 305 L 242 419 L 319 419 L 319 305 Z" unicode="Ŀ" />
<glyph horiz-adv-x="167" d="M 42 0 L 42 0 Z M 125 800 L 125 0 L 42 0 L 42 800 L 125 800 Z M 214 199 L 214 199 Z M 253 199 L 176 199 L 176 313 L 253 313 L 253 199 Z" unicode="ŀ" />
<glyph horiz-adv-x="357" d="M 351 74 L 351 0 L 63 0 L 63 267 L 20 249 L -8 313 L 63 343 L 63 730 L 153 730 L 153 381 L 282 436 L 309 373 L 153 306 L 153 74 L 351 74 Z" unicode="Ł" />
<glyph horiz-adv-x="167" d="M 212 339 L 146 309 L 146 0 L 64 0 L 64 271 L 19 250 L -2 300 L 64 331 L 64 783 L 146 783 L 146 369 L 190 389 L 212 339 Z" unicode="ł" />
<glyph horiz-adv-x="535" d="M 63 0 L 63 0 Z M 472 0 L 408 0 L 147 522 L 147 0 L 63 0 L 63 730 L 127 730 L 391 210 L 391 730 L 472 730 L 472 0 Z M 268 792 L 268 792 Z M 179 792 L 263 964 L 357 964 L 259 792 L 179 792 Z" unicode="Ń" />
<glyph horiz-adv-x="397" d="M 42 0 L 42 0 Z M 355 0 L 273 0 L 273 298 C 273 321 266 339 254 351 C 241 363 224 369 204 369 C 182 369 164 362 148 349 C 132 335 125 311 125 275 L 125 0 L 42 0 L 42 436 L 120 436 L 120 369 C 126 390 139 407 157 421 C 175 435 201 442 235 442 C 271 442 300 432 322 414 C 344 396 355 367 355 328 L 355 0 Z M 199 498 L 199 498 Z M 110 498 L 194 670 L 288 670 L 190 498 L 110 498 Z" unicode="ń" />
<glyph horiz-adv-x="535" d="M 63 0 L 63 0 Z M 472 0 L 408 0 L 147 522 L 147 0 L 63 0 L 63 730 L 127 730 L 391 210 L 391 730 L 472 730 L 472 0 Z M 257 -69 L 257 -69 Z M 334 -69 C 334 -91 331 -113 325 -137 C 319 -160 312 -182 304 -204 C 295 -226 285 -246 274 -265 C 263 -284 252 -300 242 -313 L 178 -284 C 184 -274 191 -262 199 -247 C 207 -231 214 -214 221 -195 C 228 -176 234 -156 239 -134 C 244 -112 247 -90 248 -69 L 334 -69 Z" unicode="Ņ" />
<glyph horiz-adv-x="397" d="M 42 0 L 42 0 Z M 355 0 L 273 0 L 273 298 C 273 321 266 339 254 351 C 241 363 224 369 204 369 C 182 369 164 362 148 349 C 132 335 125 311 125 275 L 125 0 L 42 0 L 42 436 L 120 436 L 120 369 C 126 390 139 407 157 421 C 175 435 201 442 235 442 C 271 442 300 432 322 414 C 344 396 355 367 355 328 L 355 0 Z M 187 -69 L 187 -69 Z M 264 -69 C 264 -91 261 -113 255 -137 C 249 -160 242 -182 234 -204 C 225 -226 215 -246 204 -265 C 193 -284 182 -300 172 -313 L 108 -284 C 114 -274 121 -262 129 -247 C 137 -231 144 -214 151 -195 C 158 -176 164 -156 169 -134 C 174 -112 177 -90 178 -69 L 264 -69 Z" unicode="ņ" />
<glyph horiz-adv-x="535" d="M 63 0 L 63 0 Z M 472 0 L 408 0 L 147 522 L 147 0 L 63 0 L 63 730 L 127 730 L 391 210 L 391 730 L 472 730 L 472 0 Z M 268 793 L 268 793 Z M 136 964 L 204 964 L 269 848 L 335 964 L 400 964 L 303 793 L 233 793 L 136 964 Z" unicode="Ň" />
<glyph horiz-adv-x="397" d="M 42 0 L 42 0 Z M 355 0 L 273 0 L 273 298 C 273 321 266 339 254 351 C 241 363 224 369 204 369 C 182 369 164 362 148 349 C 132 335 125 311 125 275 L 125 0 L 42 0 L 42 436 L 120 436 L 120 369 C 126 390 139 407 157 421 C 175 435 201 442 235 442 C 271 442 300 432 322 414 C 344 396 355 367 355 328 L 355 0 Z M 199 499 L 199 499 Z M 67 670 L 135 670 L 200 554 L 266 670 L 331 670 L 234 499 L 164 499 L 67 670 Z" unicode="ň" />
<glyph horiz-adv-x="535" d="M 391 730 L 472 730 L 472 -6 C 472 -60 459 -106 434 -142 C 408 -178 372 -196 324 -196 C 312 -196 300 -195 287 -193 C 273 -191 263 -189 257 -187 L 258 -103 C 262 -105 269 -107 278 -109 C 286 -111 295 -112 304 -112 C 332 -112 353 -99 368 -75 C 383 -50 391 -21 391 13 L 391 34 L 147 522 L 147 0 L 63 0 L 63 730 L 127 730 L 391 210 L 391 730 Z" unicode="Ŋ" />
<glyph horiz-adv-x="397" d="M 235 442 C 271 442 300 432 322 414 C 344 396 355 367 355 328 L 355 -107 C 355 -133 347 -156 331 -174 C 315 -192 293 -201 267 -201 C 256 -201 245 -199 233 -197 C 221 -195 214 -192 211 -190 L 228 -127 C 230 -127 233 -128 236 -129 C 239 -129 242 -130 246 -130 C 254 -130 260 -126 265 -120 C 270 -114 273 -105 273 -95 L 273 298 C 273 321 266 339 254 351 C 241 363 224 369 204 369 C 182 369 164 362 148 349 C 132 335 125 311 125 275 L 125 0 L 42 0 L 42 436 L 120 436 L 120 369 C 126 390 139 407 157 421 C 175 435 201 442 235 442 Z" unicode="ŋ" />
<glyph horiz-adv-x="569" d="M 36 0 L 36 0 Z M 287 -7 C 208 -7 146 25 102 90 C 58 154 36 248 36 371 C 36 485 58 575 102 640 C 146 704 206 737 282 737 C 362 737 423 705 467 641 C 511 577 533 485 533 365 C 533 248 510 157 464 91 C 418 25 359 -7 287 -7 Z M 285 71 C 333 71 371 95 399 144 C 427 193 442 269 442 371 C 442 466 427 538 398 586 C 369 634 331 658 283 658 C 233 658 194 634 167 586 C 140 538 127 464 127 364 C 127 262 141 188 170 141 C 199 94 237 71 285 71 Z M 282 819 L 282 819 Z M 401 819 L 163 819 L 163 881 L 401 881 L 401 819 Z" unicode="Ō" />
<glyph horiz-adv-x="394" d="M 22 0 L 22 0 Z M 198 -5 C 146 -5 104 14 71 52 C 38 90 22 145 22 216 C 22 283 37 337 69 379 C 101 420 142 441 192 441 C 246 441 290 421 323 383 C 355 344 372 292 372 228 C 372 158 356 102 325 59 C 294 16 252 -5 198 -5 Z M 197 60 C 225 60 247 73 262 100 C 277 127 285 167 285 219 C 285 271 277 310 261 336 C 245 361 223 374 195 374 C 168 374 147 361 132 335 C 116 309 109 271 109 219 C 109 163 117 122 133 97 C 149 72 170 60 197 60 Z M 197 525 L 197 525 Z M 316 525 L 78 525 L 78 587 L 316 587 L 316 525 Z" unicode="ō" />
<glyph horiz-adv-x="569" d="M 36 0 L 36 0 Z M 287 -7 C 208 -7 146 25 102 90 C 58 154 36 248 36 371 C 36 485 58 575 102 640 C 146 704 206 737 282 737 C 362 737 423 705 467 641 C 511 577 533 485 533 365 C 533 248 510 157 464 91 C 418 25 359 -7 287 -7 Z M 285 71 C 333 71 371 95 399 144 C 427 193 442 269 442 371 C 442 466 427 538 398 586 C 369 634 331 658 283 658 C 233 658 194 634 167 586 C 140 538 127 464 127 364 C 127 262 141 188 170 141 C 199 94 237 71 285 71 Z M 282 798 L 282 798 Z M 341 955 L 410 955 C 406 900 392 860 369 835 C 346 810 317 798 282 798 C 246 798 217 810 194 835 C 171 860 158 900 155 955 L 224 955 C 226 925 231 902 239 885 C 247 868 261 860 282 860 C 302 860 317 868 325 884 C 333 900 339 924 341 955 Z" unicode="Ŏ" />
<glyph horiz-adv-x="394" d="M 22 0 L 22 0 Z M 198 -5 C 146 -5 104 14 71 52 C 38 90 22 145 22 216 C 22 283 37 337 69 379 C 101 420 142 441 192 441 C 246 441 290 421 323 383 C 355 344 372 292 372 228 C 372 158 356 102 325 59 C 294 16 252 -5 198 -5 Z M 197 60 C 225 60 247 73 262 100 C 277 127 285 167 285 219 C 285 271 277 310 261 336 C 245 361 223 374 195 374 C 168 374 147 361 132 335 C 116 309 109 271 109 219 C 109 163 117 122 133 97 C 149 72 170 60 197 60 Z M 197 504 L 197 504 Z M 256 661 L 325 661 C 321 606 307 566 284 541 C 261 516 232 504 197 504 C 161 504 132 516 109 541 C 86 566 73 606 70 661 L 139 661 C 141 631 146 608 154 591 C 162 574 176 566 197 566 C 217 566 232 574 240 590 C 248 606 254 630 256 661 Z" unicode="ŏ" />
<glyph horiz-adv-x="569" d="M 36 0 L 36 0 Z M 287 -7 C 208 -7 146 25 102 90 C 58 154 36 248 36 371 C 36 485 58 575 102 640 C 146 704 206 737 282 737 C 362 737 423 705 467 641 C 511 577 533 485 533 365 C 533 248 510 157 464 91 C 418 25 359 -7 287 -7 Z M 285 71 C 333 71 371 95 399 144 C 427 193 442 269 442 371 C 442 466 427 538 398 586 C 369 634 331 658 283 658 C 233 658 194 634 167 586 C 140 538 127 464 127 364 C 127 262 141 188 170 141 C 199 94 237 71 285 71 Z M 282 792 L 282 792 Z M 126 792 L 188 950 L 276 950 L 200 792 L 126 792 Z M 288 792 L 351 950 L 439 950 L 362 792 L 288 792 Z" unicode="Ő" />
<glyph horiz-adv-x="394" d="M 22 0 L 22 0 Z M 198 -5 C 146 -5 104 14 71 52 C 38 90 22 145 22 216 C 22 283 37 337 69 379 C 101 420 142 441 192 441 C 246 441 290 421 323 383 C 355 344 372 292 372 228 C 372 158 356 102 325 59 C 294 16 252 -5 198 -5 Z M 197 60 C 225 60 247 73 262 100 C 277 127 285 167 285 219 C 285 271 277 310 261 336 C 245 361 223 374 195 374 C 168 374 147 361 132 335 C 116 309 109 271 109 219 C 109 163 117 122 133 97 C 149 72 170 60 197 60 Z M 197 498 L 197 498 Z M 41 498 L 103 656 L 191 656 L 115 498 L 41 498 Z M 203 498 L 266 656 L 354 656 L 277 498 L 203 498 Z" unicode="ő" />
<glyph horiz-adv-x="750" d="M 267 -6 C 197 -6 141 25 99 87 C 57 149 36 243 36 371 C 36 491 56 582 98 644 C 140 705 194 736 261 736 C 284 736 305 732 324 725 C 343 717 359 708 373 696 C 387 684 398 671 407 655 C 415 639 421 624 425 608 L 425 730 L 723 730 L 723 656 L 512 656 L 512 398 L 715 398 L 715 324 L 512 324 L 512 74 L 740 74 L 740 0 L 425 0 L 425 124 C 421 108 415 93 407 78 C 398 62 387 48 374 36 C 361 24 346 14 328 6 C 310 -2 289 -6 267 -6 Z M 277 58 C 322 58 358 83 385 135 C 412 187 426 266 426 372 C 426 472 412 546 385 595 C 357 644 321 669 275 669 C 227 669 191 645 165 598 C 139 551 127 473 127 365 C 127 255 140 177 168 129 C 196 81 232 58 277 58 Z" unicode="Œ" />
<glyph horiz-adv-x="641" d="M 189 -5 C 142 -5 102 14 70 52 C 38 90 22 145 22 216 C 22 283 37 337 69 379 C 101 420 142 441 192 441 C 212 441 231 437 247 431 C 263 425 276 417 287 407 C 298 397 307 387 314 375 C 320 363 324 352 326 342 C 327 352 331 363 337 375 C 343 387 351 397 361 407 C 371 417 384 425 399 431 C 414 437 431 441 451 441 C 505 441 546 420 575 379 C 604 337 619 277 619 199 L 365 199 C 365 149 374 112 393 90 C 411 68 434 57 462 57 C 489 57 511 62 527 74 C 543 85 557 98 570 113 L 613 71 C 599 53 581 36 558 20 C 535 3 502 -5 459 -5 C 419 -5 387 5 364 26 C 341 47 327 70 323 94 C 320 84 315 73 307 61 C 299 49 290 39 279 29 C 267 19 254 10 239 4 C 223 -1 207 -5 189 -5 Z M 368 254 L 540 254 C 539 292 531 322 516 344 C 501 366 480 378 452 378 C 425 378 405 366 391 344 C 377 322 370 292 368 254 Z M 197 61 C 226 61 248 74 263 101 C 278 128 286 168 286 220 C 286 272 278 310 262 336 C 246 361 224 374 195 374 C 167 374 146 361 131 335 C 115 309 108 270 108 220 C 108 164 116 123 132 98 C 148 73 170 61 197 61 Z" unicode="œ" />
<glyph horiz-adv-x="458" d="M 63 0 L 63 0 Z M 63 0 L 63 730 L 217 730 C 269 730 313 713 348 681 C 382 649 400 600 400 536 C 400 482 388 437 365 401 C 342 365 314 343 280 337 L 278 334 L 456 0 L 360 0 L 193 316 L 146 316 L 146 0 L 63 0 Z M 146 392 L 210 392 C 240 393 264 405 284 427 C 304 449 314 481 314 522 C 314 566 303 598 282 619 C 260 640 234 651 204 651 L 146 651 L 146 392 Z M 208 792 L 208 792 Z M 119 792 L 203 964 L 297 964 L 199 792 L 119 792 Z" unicode="Ŕ" />
<glyph horiz-adv-x="290" d="M 42 0 L 42 0 Z M 294 411 L 268 343 C 258 352 248 358 239 362 C 229 365 219 367 207 367 C 198 367 189 365 179 362 C 169 359 161 353 153 345 C 145 337 138 325 133 311 C 127 296 125 277 125 255 L 125 0 L 42 0 L 42 436 L 122 436 L 122 360 C 128 381 140 400 157 416 C 174 432 194 441 217 441 C 234 441 249 438 263 432 C 276 426 286 419 294 411 Z M 167 498 L 167 498 Z M 78 498 L 162 670 L 256 670 L 158 498 L 78 498 Z" unicode="ŕ" />
<glyph horiz-adv-x="458" d="M 63 0 L 63 0 Z M 63 0 L 63 730 L 217 730 C 269 730 313 713 348 681 C 382 649 400 600 400 536 C 400 482 388 437 365 401 C 342 365 314 343 280 337 L 278 334 L 456 0 L 360 0 L 193 316 L 146 316 L 146 0 L 63 0 Z M 146 392 L 210 392 C 240 393 264 405 284 427 C 304 449 314 481 314 522 C 314 566 303 598 282 619 C 260 640 234 651 204 651 L 146 651 L 146 392 Z M 225 -69 L 225 -69 Z M 302 -69 C 302 -91 299 -113 293 -137 C 287 -160 280 -182 272 -204 C 263 -226 253 -246 242 -265 C 231 -284 220 -300 210 -313 L 146 -284 C 152 -274 159 -262 167 -247 C 175 -231 182 -214 189 -195 C 196 -176 202 -156 207 -134 C 212 -112 215 -90 216 -69 L 302 -69 Z" unicode="Ŗ" />
<glyph horiz-adv-x="290" d="M 42 0 L 42 0 Z M 294 411 L 268 343 C 258 352 248 358 239 362 C 229 365 219 367 207 367 C 198 367 189 365 179 362 C 169 359 161 353 153 345 C 145 337 138 325 133 311 C 127 296 125 277 125 255 L 125 0 L 42 0 L 42 436 L 122 436 L 122 360 C 128 381 140 400 157 416 C 174 432 194 441 217 441 C 234 441 249 438 263 432 C 276 426 286 419 294 411 Z M 149 -69 L 149 -69 Z M 226 -69 C 226 -91 223 -113 217 -137 C 211 -160 204 -182 196 -204 C 187 -226 177 -246 166 -265 C 155 -284 144 -300 134 -313 L 70 -284 C 76 -274 83 -262 91 -247 C 99 -231 106 -214 113 -195 C 120 -176 126 -156 131 -134 C 136 -112 139 -90 140 -69 L 226 -69 Z" unicode="ŗ" />
<glyph horiz-adv-x="458" d="M 63 0 L 63 0 Z M 63 0 L 63 730 L 217 730 C 269 730 313 713 348 681 C 382 649 400 600 400 536 C 400 482 388 437 365 401 C 342 365 314 343 280 337 L 278 334 L 456 0 L 360 0 L 193 316 L 146 316 L 146 0 L 63 0 Z M 146 392 L 210 392 C 240 393 264 405 284 427 C 304 449 314 481 314 522 C 314 566 303 598 282 619 C 260 640 234 651 204 651 L 146 651 L 146 392 Z M 208 793 L 208 793 Z M 76 964 L 144 964 L 209 848 L 275 964 L 340 964 L 243 793 L 173 793 L 76 964 Z" unicode="Ř" />
<glyph horiz-adv-x="290" d="M 35 0 L 35 0 Z M 294 411 L 268 343 C 258 352 248 358 239 362 C 229 365 219 367 207 367 C 198 367 189 365 179 362 C 169 359 161 353 153 345 C 145 337 138 325 133 311 C 127 296 125 277 125 255 L 125 0 L 42 0 L 42 436 L 122 436 L 122 360 C 128 381 140 400 157 416 C 174 432 194 441 217 441 C 234 441 249 438 263 432 C 276 426 286 419 294 411 Z M 167 499 L 167 499 Z M 35 670 L 103 670 L 168 554 L 234 670 L 299 670 L 202 499 L 132 499 L 35 670 Z" unicode="ř" />
<glyph horiz-adv-x="404" d="M 19 0 L 19 0 Z M 203 -7 C 165 -7 131 0 101 13 C 71 26 43 49 19 81 L 66 140 C 82 114 102 95 125 83 C 148 70 172 64 197 64 C 223 64 247 74 267 95 C 287 115 297 143 297 178 C 297 214 289 243 273 266 C 257 289 227 316 182 346 C 136 375 101 405 75 436 C 49 466 36 509 36 565 C 36 591 40 615 50 637 C 59 658 71 676 87 691 C 103 705 121 717 142 725 C 163 733 185 737 209 737 C 247 737 280 730 306 718 C 332 705 352 690 367 674 L 321 613 C 309 625 293 636 274 645 C 255 654 235 659 213 659 C 189 659 167 650 149 633 C 131 616 122 592 122 560 C 122 529 130 504 145 484 C 160 464 191 440 237 411 C 289 378 327 344 349 308 C 371 272 383 230 383 180 C 383 150 377 123 367 100 C 357 76 343 57 327 41 C 310 25 291 13 269 5 C 247 -2 225 -7 203 -7 Z M 204 792 L 204 792 Z M 115 792 L 199 964 L 293 964 L 195 792 L 115 792 Z" unicode="Ś" />
<glyph horiz-adv-x="303" d="M 19 0 L 19 0 Z M 160 -6 C 129 -6 101 0 77 11 C 53 23 33 38 19 57 L 57 112 C 69 96 85 83 103 74 C 121 64 138 60 155 60 C 169 60 182 64 195 74 C 207 84 214 98 214 117 C 214 133 207 148 193 160 C 179 172 157 186 127 202 C 96 218 72 236 55 255 C 38 273 30 299 30 333 C 30 363 42 388 66 409 C 90 430 118 441 150 441 C 178 441 203 436 223 427 C 243 418 259 408 273 398 L 230 346 C 222 352 212 358 198 364 C 184 370 170 373 157 373 C 140 373 126 369 115 361 C 104 353 99 342 99 328 C 99 314 105 302 117 292 C 129 282 151 268 182 252 C 218 232 243 213 259 195 C 275 176 283 150 283 116 C 283 96 279 79 271 64 C 263 48 254 35 242 25 C 230 15 216 7 202 2 C 188 -3 174 -6 160 -6 Z M 154 498 L 154 498 Z M 65 498 L 149 670 L 243 670 L 145 498 L 65 498 Z" unicode="ś" />
<glyph horiz-adv-x="404" d="M 19 0 L 19 0 Z M 203 -7 C 165 -7 131 0 101 13 C 71 26 43 49 19 81 L 66 140 C 82 114 102 95 125 83 C 148 70 172 64 197 64 C 223 64 247 74 267 95 C 287 115 297 143 297 178 C 297 214 289 243 273 266 C 257 289 227 316 182 346 C 136 375 101 405 75 436 C 49 466 36 509 36 565 C 36 591 40 615 50 637 C 59 658 71 676 87 691 C 103 705 121 717 142 725 C 163 733 185 737 209 737 C 247 737 280 730 306 718 C 332 705 352 690 367 674 L 321 613 C 309 625 293 636 274 645 C 255 654 235 659 213 659 C 189 659 167 650 149 633 C 131 616 122 592 122 560 C 122 529 130 504 145 484 C 160 464 191 440 237 411 C 289 378 327 344 349 308 C 371 272 383 230 383 180 C 383 150 377 123 367 100 C 357 76 343 57 327 41 C 310 25 291 13 269 5 C 247 -2 225 -7 203 -7 Z M 204 793 L 204 793 Z M 336 793 L 269 793 L 204 909 L 138 793 L 72 793 L 169 964 L 239 964 L 336 793 Z" unicode="Ŝ" />
<glyph horiz-adv-x="303" d="M 19 0 L 19 0 Z M 160 -6 C 129 -6 101 0 77 11 C 53 23 33 38 19 57 L 57 112 C 69 96 85 83 103 74 C 121 64 138 60 155 60 C 169 60 182 64 195 74 C 207 84 214 98 214 117 C 214 133 207 148 193 160 C 179 172 157 186 127 202 C 96 218 72 236 55 255 C 38 273 30 299 30 333 C 30 363 42 388 66 409 C 90 430 118 441 150 441 C 178 441 203 436 223 427 C 243 418 259 408 273 398 L 230 346 C 222 352 212 358 198 364 C 184 370 170 373 157 373 C 140 373 126 369 115 361 C 104 353 99 342 99 328 C 99 314 105 302 117 292 C 129 282 151 268 182 252 C 218 232 243 213 259 195 C 275 176 283 150 283 116 C 283 96 279 79 271 64 C 263 48 254 35 242 25 C 230 15 216 7 202 2 C 188 -3 174 -6 160 -6 Z M 154 499 L 154 499 Z M 286 499 L 219 499 L 154 615 L 88 499 L 22 499 L 119 670 L 189 670 L 286 499 Z" unicode="ŝ" />
<glyph horiz-adv-x="404" d="M 19 0 L 19 0 Z M 203 -7 C 165 -7 131 0 101 13 C 71 26 43 49 19 81 L 66 140 C 82 114 102 95 125 83 C 148 70 172 64 197 64 C 223 64 247 74 267 95 C 287 115 297 143 297 178 C 297 214 289 243 273 266 C 257 289 227 316 182 346 C 136 375 101 405 75 436 C 49 466 36 509 36 565 C 36 591 40 615 50 637 C 59 658 71 676 87 691 C 103 705 121 717 142 725 C 163 733 185 737 209 737 C 247 737 280 730 306 718 C 332 705 352 690 367 674 L 321 613 C 309 625 293 636 274 645 C 255 654 235 659 213 659 C 189 659 167 650 149 633 C 131 616 122 592 122 560 C 122 529 130 504 145 484 C 160 464 191 440 237 411 C 289 378 327 344 349 308 C 371 272 383 230 383 180 C 383 150 377 123 367 100 C 357 76 343 57 327 41 C 310 25 291 13 269 5 C 247 -2 225 -7 203 -7 Z M 181 -1 L 181 -1 Z M 187 -185 C 165 -185 144 -182 123 -176 C 101 -170 84 -162 72 -152 L 84 -118 C 92 -124 104 -130 119 -136 C 134 -142 150 -145 167 -145 C 181 -145 193 -141 203 -134 C 213 -127 219 -118 219 -106 C 219 -92 214 -83 205 -78 C 196 -72 186 -70 176 -70 C 168 -70 162 -70 156 -72 C 150 -73 144 -75 138 -78 L 124 -63 L 182 11 L 228 11 L 181 -51 C 211 -43 237 -45 258 -57 C 278 -69 289 -86 289 -110 C 289 -134 278 -152 258 -165 C 238 -178 214 -185 187 -185 Z" unicode="Ş" />
<glyph horiz-adv-x="303" d="M 19 0 L 19 0 Z M 160 -6 C 129 -6 101 0 77 11 C 53 23 33 38 19 57 L 57 112 C 69 96 85 83 103 74 C 121 64 138 60 155 60 C 169 60 182 64 195 74 C 207 84 214 98 214 117 C 214 133 207 148 193 160 C 179 172 157 186 127 202 C 96 218 72 236 55 255 C 38 273 30 299 30 333 C 30 363 42 388 66 409 C 90 430 118 441 150 441 C 178 441 203 436 223 427 C 243 418 259 408 273 398 L 230 346 C 222 352 212 358 198 364 C 184 370 170 373 157 373 C 140 373 126 369 115 361 C 104 353 99 342 99 328 C 99 314 105 302 117 292 C 129 282 151 268 182 252 C 218 232 243 213 259 195 C 275 176 283 150 283 116 C 283 96 279 79 271 64 C 263 48 254 35 242 25 C 230 15 216 7 202 2 C 188 -3 174 -6 160 -6 Z M 142 -1 L 142 -1 Z M 148 -185 C 126 -185 105 -182 84 -176 C 62 -170 45 -162 33 -152 L 45 -118 C 53 -124 65 -130 80 -136 C 95 -142 111 -145 128 -145 C 142 -145 154 -141 164 -134 C 174 -127 180 -118 180 -106 C 180 -92 175 -83 166 -78 C 157 -72 147 -70 137 -70 C 129 -70 123 -70 117 -72 C 111 -73 105 -75 99 -78 L 85 -63 L 143 11 L 189 11 L 142 -51 C 172 -43 198 -45 219 -57 C 239 -69 250 -86 250 -110 C 250 -134 239 -152 219 -165 C 199 -178 175 -185 148 -185 Z" unicode="ş" />
<glyph horiz-adv-x="404" d="M 19 0 L 19 0 Z M 203 -7 C 165 -7 131 0 101 13 C 71 26 43 49 19 81 L 66 140 C 82 114 102 95 125 83 C 148 70 172 64 197 64 C 223 64 247 74 267 95 C 287 115 297 143 297 178 C 297 214 289 243 273 266 C 257 289 227 316 182 346 C 136 375 101 405 75 436 C 49 466 36 509 36 565 C 36 591 40 615 50 637 C 59 658 71 676 87 691 C 103 705 121 717 142 725 C 163 733 185 737 209 737 C 247 737 280 730 306 718 C 332 705 352 690 367 674 L 321 613 C 309 625 293 636 274 645 C 255 654 235 659 213 659 C 189 659 167 650 149 633 C 131 616 122 592 122 560 C 122 529 130 504 145 484 C 160 464 191 440 237 411 C 289 378 327 344 349 308 C 371 272 383 230 383 180 C 383 150 377 123 367 100 C 357 76 343 57 327 41 C 310 25 291 13 269 5 C 247 -2 225 -7 203 -7 Z M 204 793 L 204 793 Z M 72 964 L 140 964 L 205 848 L 271 964 L 336 964 L 239 793 L 169 793 L 72 964 Z" unicode="Š" />
<glyph horiz-adv-x="303" d="M 19 0 L 19 0 Z M 160 -6 C 129 -6 101 0 77 11 C 53 23 33 38 19 57 L 57 112 C 69 96 85 83 103 74 C 121 64 138 60 155 60 C 169 60 182 64 195 74 C 207 84 214 98 214 117 C 214 133 207 148 193 160 C 179 172 157 186 127 202 C 96 218 72 236 55 255 C 38 273 30 299 30 333 C 30 363 42 388 66 409 C 90 430 118 441 150 441 C 178 441 203 436 223 427 C 243 418 259 408 273 398 L 230 346 C 222 352 212 358 198 364 C 184 370 170 373 157 373 C 140 373 126 369 115 361 C 104 353 99 342 99 328 C 99 314 105 302 117 292 C 129 282 151 268 182 252 C 218 232 243 213 259 195 C 275 176 283 150 283 116 C 283 96 279 79 271 64 C 263 48 254 35 242 25 C 230 15 216 7 202 2 C 188 -3 174 -6 160 -6 Z M 154 499 L 154 499 Z M 22 670 L 90 670 L 155 554 L 221 670 L 286 670 L 189 499 L 119 499 L 22 670 Z" unicode="š" />
<glyph horiz-adv-x="373" d="M 7 0 L 7 0 Z M 366 649 L 231 649 L 231 0 L 141 0 L 141 649 L 7 649 L 7 730 L 366 730 L 366 649 Z M 186 793 L 186 793 Z M 54 964 L 122 964 L 187 848 L 253 964 L 318 964 L 221 793 L 151 793 L 54 964 Z" unicode="Ť" />
<glyph horiz-adv-x="213" d="M 14 0 L 14 0 Z M 195 75 L 211 14 C 205 10 198 5 188 1 C 178 -2 165 -5 149 -5 C 141 -5 131 -3 120 0 C 109 3 99 9 89 17 C 79 25 70 37 63 52 C 56 66 53 85 53 108 L 53 366 L 14 366 L 14 436 L 56 436 L 56 578 L 134 587 L 134 436 L 195 436 L 195 366 L 136 366 L 136 105 C 136 93 139 83 145 77 C 151 70 159 67 169 67 C 173 67 178 67 183 69 C 188 71 192 73 195 75 Z M 291 621 L 287 486 L 217 486 L 213 621 L 213 730 L 291 730 L 291 621 Z" unicode="ť" />
<glyph horiz-adv-x="373" d="M 349 467 L 231 467 L 231 0 L 141 0 L 141 467 L 25 467 L 25 537 L 141 537 L 141 649 L 7 649 L 7 730 L 366 730 L 366 649 L 231 649 L 231 537 L 349 537 L 349 467 Z" unicode="Ŧ" />
<glyph horiz-adv-x="213" d="M 211 14 C 205 10 198 5 188 1 C 178 -2 165 -5 149 -5 C 141 -5 131 -3 120 0 C 109 3 99 9 89 17 C 79 25 70 37 63 52 C 56 66 53 85 53 108 L 53 240 L 24 240 L 24 310 L 53 310 L 53 366 L 14 366 L 14 436 L 56 436 L 56 578 L 134 587 L 134 436 L 195 436 L 195 366 L 136 366 L 136 310 L 185 310 L 185 240 L 136 240 L 136 105 C 136 93 139 83 145 77 C 151 70 159 67 169 67 C 173 67 178 67 183 69 C 188 71 192 73 195 75 L 211 14 Z" unicode="ŧ" />
<glyph horiz-adv-x="534" d="M 59 0 L 59 0 Z M 475 730 L 475 216 C 475 176 469 141 457 113 C 445 85 430 62 411 44 C 391 26 369 13 343 5 C 317 -2 290 -7 262 -7 C 235 -7 209 -3 185 5 C 160 13 138 25 120 43 C 101 61 86 84 75 112 C 64 140 59 175 59 216 L 59 730 L 147 730 L 147 215 C 147 161 158 124 181 102 C 203 80 232 70 266 70 C 298 70 326 80 350 101 C 373 121 385 159 385 215 L 385 730 L 475 730 Z M 265 800 L 265 800 Z M 351 935 L 413 935 C 413 889 406 855 394 833 C 381 811 365 800 345 800 C 327 800 313 803 301 811 C 289 819 278 827 269 835 C 260 842 251 849 241 857 C 231 865 222 869 212 869 C 203 869 195 863 189 853 C 182 842 178 825 178 803 L 118 803 C 118 848 125 882 140 904 C 154 926 171 938 190 938 C 206 938 221 933 233 925 C 245 917 256 908 266 900 C 274 892 283 885 292 878 C 300 871 309 868 318 868 C 326 868 334 873 341 884 C 347 895 351 912 351 935 Z" unicode="Ũ" />
<glyph horiz-adv-x="397" d="M 42 0 L 42 0 Z M 42 436 L 124 436 L 124 138 C 124 109 130 88 143 76 C 155 64 173 58 196 58 C 216 58 233 64 249 78 C 264 92 272 118 272 158 L 272 436 L 354 436 L 354 0 L 275 0 L 275 55 C 268 36 255 21 236 10 C 217 0 193 -6 165 -6 C 131 -6 102 3 78 23 C 54 42 42 74 42 118 L 42 436 Z M 198 506 L 198 506 Z M 284 641 L 346 641 C 346 595 339 561 327 539 C 314 517 298 506 278 506 C 260 506 246 509 234 517 C 222 525 211 533 202 541 C 193 548 184 555 174 563 C 164 571 155 575 145 575 C 136 575 128 569 122 559 C 115 548 111 531 111 509 L 51 509 C 51 554 58 588 73 610 C 87 632 104 644 123 644 C 139 644 154 639 166 631 C 178 623 189 614 199 606 C 207 598 216 591 225 584 C 233 577 242 574 251 574 C 259 574 267 579 274 590 C 280 601 284 618 284 641 Z" unicode="ũ" />
<glyph horiz-adv-x="534" d="M 59 0 L 59 0 Z M 475 730 L 475 216 C 475 176 469 141 457 113 C 445 85 430 62 411 44 C 391 26 369 13 343 5 C 317 -2 290 -7 262 -7 C 235 -7 209 -3 185 5 C 160 13 138 25 120 43 C 101 61 86 84 75 112 C 64 140 59 175 59 216 L 59 730 L 147 730 L 147 215 C 147 161 158 124 181 102 C 203 80 232 70 266 70 C 298 70 326 80 350 101 C 373 121 385 159 385 215 L 385 730 L 475 730 Z M 265 819 L 265 819 Z M 384 819 L 146 819 L 146 881 L 384 881 L 384 819 Z" unicode="Ū" />
<glyph horiz-adv-x="397" d="M 42 0 L 42 0 Z M 42 436 L 124 436 L 124 138 C 124 109 130 88 143 76 C 155 64 173 58 196 58 C 216 58 233 64 249 78 C 264 92 272 118 272 158 L 272 436 L 354 436 L 354 0 L 275 0 L 275 55 C 268 36 255 21 236 10 C 217 0 193 -6 165 -6 C 131 -6 102 3 78 23 C 54 42 42 74 42 118 L 42 436 Z M 198 525 L 198 525 Z M 317 525 L 79 525 L 79 587 L 317 587 L 317 525 Z" unicode="ū" />
<glyph horiz-adv-x="534" d="M 59 0 L 59 0 Z M 475 730 L 475 216 C 475 176 469 141 457 113 C 445 85 430 62 411 44 C 391 26 369 13 343 5 C 317 -2 290 -7 262 -7 C 235 -7 209 -3 185 5 C 160 13 138 25 120 43 C 101 61 86 84 75 112 C 64 140 59 175 59 216 L 59 730 L 147 730 L 147 215 C 147 161 158 124 181 102 C 203 80 232 70 266 70 C 298 70 326 80 350 101 C 373 121 385 159 385 215 L 385 730 L 475 730 Z M 265 798 L 265 798 Z M 324 955 L 393 955 C 389 900 375 860 352 835 C 329 810 300 798 265 798 C 229 798 200 810 177 835 C 154 860 141 900 138 955 L 207 955 C 209 925 214 902 222 885 C 230 868 244 860 265 860 C 285 860 300 868 308 884 C 316 900 322 924 324 955 Z" unicode="Ŭ" />
<glyph horiz-adv-x="397" d="M 42 0 L 42 0 Z M 42 436 L 124 436 L 124 138 C 124 109 130 88 143 76 C 155 64 173 58 196 58 C 216 58 233 64 249 78 C 264 92 272 118 272 158 L 272 436 L 354 436 L 354 0 L 275 0 L 275 55 C 268 36 255 21 236 10 C 217 0 193 -6 165 -6 C 131 -6 102 3 78 23 C 54 42 42 74 42 118 L 42 436 Z M 198 504 L 198 504 Z M 257 661 L 326 661 C 322 606 308 566 285 541 C 262 516 233 504 198 504 C 162 504 133 516 110 541 C 87 566 74 606 71 661 L 140 661 C 142 631 147 608 155 591 C 163 574 177 566 198 566 C 218 566 233 574 241 590 C 249 606 255 630 257 661 Z" unicode="ŭ" />
<glyph horiz-adv-x="534" d="M 59 0 L 59 0 Z M 475 730 L 475 216 C 475 176 469 141 457 113 C 445 85 430 62 411 44 C 391 26 369 13 343 5 C 317 -2 290 -7 262 -7 C 235 -7 209 -3 185 5 C 160 13 138 25 120 43 C 101 61 86 84 75 112 C 64 140 59 175 59 216 L 59 730 L 147 730 L 147 215 C 147 161 158 124 181 102 C 203 80 232 70 266 70 C 298 70 326 80 350 101 C 373 121 385 159 385 215 L 385 730 L 475 730 Z M 265 790 L 265 790 Z M 265 790 C 233 790 207 800 185 822 C 163 844 153 870 153 902 C 153 933 163 959 185 981 C 207 1003 233 1014 265 1014 C 296 1014 323 1003 345 981 C 367 959 378 933 378 902 C 378 870 367 844 345 822 C 323 800 296 790 265 790 Z M 265 837 C 282 837 297 843 309 856 C 321 868 327 884 327 902 C 327 920 321 936 309 948 C 297 960 282 967 265 967 C 247 967 233 960 221 948 C 209 936 203 920 203 902 C 203 884 209 868 221 856 C 233 843 247 837 265 837 Z" unicode="Ů" />
<glyph horiz-adv-x="397" d="M 42 0 L 42 0 Z M 42 436 L 124 436 L 124 138 C 124 109 130 88 143 76 C 155 64 173 58 196 58 C 216 58 233 64 249 78 C 264 92 272 118 272 158 L 272 436 L 354 436 L 354 0 L 275 0 L 275 55 C 268 36 255 21 236 10 C 217 0 193 -6 165 -6 C 131 -6 102 3 78 23 C 54 42 42 74 42 118 L 42 436 Z M 198 496 L 198 496 Z M 198 496 C 166 496 140 506 118 528 C 96 550 86 576 86 608 C 86 639 96 665 118 687 C 140 709 166 720 198 720 C 229 720 256 709 278 687 C 300 665 311 639 311 608 C 311 576 300 550 278 528 C 256 506 229 496 198 496 Z M 198 543 C 215 543 230 549 242 562 C 254 574 260 590 260 608 C 260 626 254 642 242 654 C 230 666 215 673 198 673 C 180 673 166 666 154 654 C 142 642 136 626 136 608 C 136 590 142 574 154 562 C 166 549 180 543 198 543 Z" unicode="ů" />
<glyph horiz-adv-x="534" d="M 59 0 L 59 0 Z M 475 730 L 475 216 C 475 176 469 141 457 113 C 445 85 430 62 411 44 C 391 26 369 13 343 5 C 317 -2 290 -7 262 -7 C 235 -7 209 -3 185 5 C 160 13 138 25 120 43 C 101 61 86 84 75 112 C 64 140 59 175 59 216 L 59 730 L 147 730 L 147 215 C 147 161 158 124 181 102 C 203 80 232 70 266 70 C 298 70 326 80 350 101 C 373 121 385 159 385 215 L 385 730 L 475 730 Z M 265 792 L 265 792 Z M 109 792 L 171 950 L 259 950 L 183 792 L 109 792 Z M 271 792 L 334 950 L 422 950 L 345 792 L 271 792 Z" unicode="Ű" />
<glyph horiz-adv-x="397" d="M 42 0 L 42 0 Z M 42 436 L 124 436 L 124 138 C 124 109 130 88 143 76 C 155 64 173 58 196 58 C 216 58 233 64 249 78 C 264 92 272 118 272 158 L 272 436 L 354 436 L 354 0 L 275 0 L 275 55 C 268 36 255 21 236 10 C 217 0 193 -6 165 -6 C 131 -6 102 3 78 23 C 54 42 42 74 42 118 L 42 436 Z M 198 498 L 198 498 Z M 42 498 L 104 656 L 192 656 L 116 498 L 42 498 Z M 204 498 L 267 656 L 355 656 L 278 498 L 204 498 Z" unicode="ű" />
<glyph horiz-adv-x="534" d="M 59 0 L 59 0 Z M 475 730 L 475 216 C 475 176 469 141 457 113 C 445 85 430 62 411 44 C 391 26 369 13 343 5 C 317 -2 290 -7 262 -7 C 235 -7 209 -3 185 5 C 160 13 138 25 120 43 C 101 61 86 84 75 112 C 64 140 59 175 59 216 L 59 730 L 147 730 L 147 215 C 147 161 158 124 181 102 C 203 80 232 70 266 70 C 298 70 326 80 350 101 C 373 121 385 159 385 215 L 385 730 L 475 730 Z M 286 -9 L 286 -9 Z M 384 -101 L 408 -136 C 388 -156 367 -171 343 -182 C 319 -192 293 -198 265 -198 C 233 -198 209 -190 191 -176 C 173 -161 164 -143 164 -121 C 164 -96 171 -73 187 -51 C 203 -29 230 -11 268 4 L 338 4 C 310 -8 286 -22 266 -38 C 245 -54 235 -71 235 -87 C 235 -101 240 -113 251 -122 C 261 -131 275 -136 292 -136 C 310 -136 328 -132 344 -126 C 360 -119 373 -111 384 -101 Z" unicode="Ų" />
<glyph horiz-adv-x="397" d="M 42 0 L 42 0 Z M 42 436 L 124 436 L 124 138 C 124 109 130 88 143 76 C 155 64 173 58 196 58 C 216 58 233 64 249 78 C 264 92 272 118 272 158 L 272 436 L 354 436 L 354 0 L 275 0 L 275 55 C 268 36 255 21 236 10 C 217 0 193 -6 165 -6 C 131 -6 102 3 78 23 C 54 42 42 74 42 118 L 42 436 Z M 292 -9 L 292 -9 Z M 390 -101 L 414 -136 C 394 -156 373 -171 349 -182 C 325 -192 299 -198 271 -198 C 239 -198 215 -190 197 -176 C 179 -161 170 -143 170 -121 C 170 -96 177 -73 193 -51 C 209 -29 236 -11 274 4 L 344 4 C 316 -8 292 -22 272 -38 C 251 -54 241 -71 241 -87 C 241 -101 246 -113 257 -122 C 267 -131 281 -136 298 -136 C 316 -136 334 -132 350 -126 C 366 -119 379 -111 390 -101 Z" unicode="ų" />
<glyph horiz-adv-x="682" d="M 5 0 L 5 0 Z M 664 730 L 514 -3 L 452 -3 L 335 537 L 215 -3 L 154 -3 L 5 730 L 90 730 L 191 190 L 305 730 L 372 730 L 484 189 L 587 730 L 664 730 Z M 338 793 L 338 793 Z M 470 793 L 403 793 L 338 909 L 272 793 L 206 793 L 303 964 L 373 964 L 470 793 Z" unicode="Ŵ" />
<glyph horiz-adv-x="536" d="M 1 0 L 1 0 Z M 345 -2 L 267 265 L 190 -2 L 122 -2 L 1 436 L 80 436 L 164 118 L 239 391 L 301 391 L 376 118 L 464 436 L 535 436 L 411 -2 L 345 -2 Z M 268 499 L 268 499 Z M 400 499 L 333 499 L 268 615 L 202 499 L 136 499 L 233 670 L 303 670 L 400 499 Z" unicode="ŵ" />
<glyph horiz-adv-x="457" d="M 0 0 L 0 0 Z M 459 730 L 271 295 L 271 0 L 181 0 L 181 296 L -1 730 L 92 730 L 231 391 L 372 730 L 459 730 Z M 231 793 L 231 793 Z M 363 793 L 296 793 L 231 909 L 165 793 L 99 793 L 196 964 L 266 964 L 363 793 Z" unicode="Ŷ" />
<glyph horiz-adv-x="331" d="M 0 0 L 0 0 Z M 334 436 L 165 -111 C 155 -141 140 -164 118 -178 C 96 -192 71 -200 45 -200 C 33 -200 21 -198 11 -196 C 1 -193 -7 -190 -13 -187 L 14 -121 C 16 -122 21 -124 28 -126 C 35 -128 43 -130 52 -130 C 62 -130 71 -125 81 -116 C 90 -107 97 -94 102 -77 L 133 34 L -3 436 L 84 436 L 173 151 L 253 436 L 334 436 Z M 166 499 L 166 499 Z M 298 499 L 231 499 L 166 615 L 100 499 L 34 499 L 131 670 L 201 670 L 298 499 Z" unicode="ŷ" />
<glyph horiz-adv-x="457" d="M 0 0 L 0 0 Z M 459 730 L 271 295 L 271 0 L 181 0 L 181 296 L -1 730 L 92 730 L 231 391 L 372 730 L 459 730 Z M 231 793 L 231 793 Z M 338 793 L 271 793 L 271 950 L 338 950 L 338 793 Z M 191 793 L 124 793 L 124 950 L 191 950 L 191 793 Z" unicode="Ÿ" />
<glyph horiz-adv-x="418" d="M 15 0 L 15 0 Z M 391 730 L 391 684 L 125 81 L 402 81 L 402 0 L 15 0 L 15 44 L 286 647 L 45 647 L 45 730 L 391 730 Z M 217 792 L 217 792 Z M 128 792 L 212 964 L 306 964 L 208 792 L 128 792 Z" unicode="Ź" />
<glyph horiz-adv-x="316" d="M 11 0 L 11 0 Z M 299 436 L 299 395 L 118 70 L 305 70 L 305 0 L 11 0 L 11 35 L 201 366 L 24 366 L 24 436 L 299 436 Z M 161 498 L 161 498 Z M 72 498 L 156 670 L 250 670 L 152 498 L 72 498 Z" unicode="ź" />
<glyph horiz-adv-x="418" d="M 15 0 L 15 0 Z M 391 730 L 391 684 L 125 81 L 402 81 L 402 0 L 15 0 L 15 44 L 286 647 L 45 647 L 45 730 L 391 730 Z M 217 811 L 217 811 Z M 256 811 L 179 811 L 179 925 L 256 925 L 256 811 Z" unicode="Ż" />
<glyph horiz-adv-x="316" d="M 11 0 L 11 0 Z M 299 436 L 299 395 L 118 70 L 305 70 L 305 0 L 11 0 L 11 35 L 201 366 L 24 366 L 24 436 L 299 436 Z M 161 517 L 161 517 Z M 200 517 L 123 517 L 123 631 L 200 631 L 200 517 Z" unicode="ż" />
<glyph horiz-adv-x="418" d="M 15 0 L 15 0 Z M 391 730 L 391 684 L 125 81 L 402 81 L 402 0 L 15 0 L 15 44 L 286 647 L 45 647 L 45 730 L 391 730 Z M 217 793 L 217 793 Z M 85 964 L 153 964 L 218 848 L 284 964 L 349 964 L 252 793 L 182 793 L 85 964 Z" unicode="Ž" />
<glyph horiz-adv-x="316" d="M 11 0 L 11 0 Z M 299 436 L 299 395 L 118 70 L 305 70 L 305 0 L 11 0 L 11 35 L 201 366 L 24 366 L 24 436 L 299 436 Z M 161 499 L 161 499 Z M 29 670 L 97 670 L 162 554 L 228 670 L 293 670 L 196 499 L 126 499 L 29 670 Z" unicode="ž" />
<glyph horiz-adv-x="353" d="M 179 -62 C 176 -94 163 -121 140 -144 C 116 -167 88 -179 54 -179 C 37 -179 21 -177 5 -175 C -10 -172 -22 -169 -30 -166 L -22 -102 C -17 -102 -10 -103 0 -105 C 9 -107 18 -108 27 -108 C 47 -108 65 -101 81 -87 C 97 -73 106 -54 109 -29 L 141 337 L 45 337 L 45 403 L 147 403 L 167 630 C 170 666 184 693 208 712 C 232 730 256 740 281 740 C 293 740 306 739 318 738 C 330 737 337 736 340 736 L 333 663 C 331 663 327 664 321 665 C 315 665 309 666 303 666 C 284 666 268 659 256 647 C 244 634 237 614 235 588 L 219 403 L 324 403 L 324 337 L 213 337 L 179 -62 Z" unicode="ƒ" />
<glyph horiz-adv-x="404" d="M 19 0 L 19 0 Z M 203 -7 C 165 -7 131 0 101 13 C 71 26 43 49 19 81 L 66 140 C 82 114 102 95 125 83 C 148 70 172 64 197 64 C 223 64 247 74 267 95 C 287 115 297 143 297 178 C 297 214 289 243 273 266 C 257 289 227 316 182 346 C 136 375 101 405 75 436 C 49 466 36 509 36 565 C 36 591 40 615 50 637 C 59 658 71 676 87 691 C 103 705 121 717 142 725 C 163 733 185 737 209 737 C 247 737 280 730 306 718 C 332 705 352 690 367 674 L 321 613 C 309 625 293 636 274 645 C 255 654 235 659 213 659 C 189 659 167 650 149 633 C 131 616 122 592 122 560 C 122 529 130 504 145 484 C 160 464 191 440 237 411 C 289 378 327 344 349 308 C 371 272 383 230 383 180 C 383 150 377 123 367 100 C 357 76 343 57 327 41 C 310 25 291 13 269 5 C 247 -2 225 -7 203 -7 Z M 181 -70 L 181 -70 Z M 258 -70 C 258 -92 255 -114 249 -138 C 243 -161 236 -183 228 -205 C 219 -227 209 -247 198 -266 C 187 -285 176 -301 166 -314 L 102 -285 C 108 -275 115 -263 123 -248 C 131 -232 138 -215 145 -196 C 152 -177 158 -157 163 -135 C 168 -113 171 -91 172 -70 L 258 -70 Z" unicode="Ș" />
<glyph horiz-adv-x="303" d="M 19 0 L 19 0 Z M 160 -6 C 129 -6 101 0 77 11 C 53 23 33 38 19 57 L 57 112 C 69 96 85 83 103 74 C 121 64 138 60 155 60 C 169 60 182 64 195 74 C 207 84 214 98 214 117 C 214 133 207 148 193 160 C 179 172 157 186 127 202 C 96 218 72 236 55 255 C 38 273 30 299 30 333 C 30 363 42 388 66 409 C 90 430 118 441 150 441 C 178 441 203 436 223 427 C 243 418 259 408 273 398 L 230 346 C 222 352 212 358 198 364 C 184 370 170 373 157 373 C 140 373 126 369 115 361 C 104 353 99 342 99 328 C 99 314 105 302 117 292 C 129 282 151 268 182 252 C 218 232 243 213 259 195 C 275 176 283 150 283 116 C 283 96 279 79 271 64 C 263 48 254 35 242 25 C 230 15 216 7 202 2 C 188 -3 174 -6 160 -6 Z M 142 -70 L 142 -70 Z M 219 -70 C 219 -92 216 -114 210 -138 C 204 -161 197 -183 189 -205 C 180 -227 170 -247 159 -266 C 148 -285 137 -301 127 -314 L 63 -285 C 69 -275 76 -263 84 -248 C 92 -232 99 -215 106 -196 C 113 -177 119 -157 124 -135 C 129 -113 132 -91 133 -70 L 219 -70 Z" unicode="ș" />
<glyph horiz-adv-x="373" d="M 7 0 L 7 0 Z M 366 649 L 231 649 L 231 0 L 141 0 L 141 649 L 7 649 L 7 730 L 366 730 L 366 649 Z M 165 -69 L 165 -69 Z M 242 -69 C 242 -91 239 -113 233 -137 C 227 -160 220 -182 212 -204 C 203 -226 193 -246 182 -265 C 171 -284 160 -300 150 -313 L 86 -284 C 92 -274 99 -262 107 -247 C 115 -231 122 -214 129 -195 C 136 -176 142 -156 147 -134 C 152 -112 155 -90 156 -69 L 242 -69 Z" unicode="Ț" />
<glyph horiz-adv-x="213" d="M 14 0 L 14 0 Z M 195 75 L 211 14 C 205 10 198 5 188 1 C 178 -2 165 -5 149 -5 C 141 -5 131 -3 120 0 C 109 3 99 9 89 17 C 79 25 70 37 63 52 C 56 66 53 85 53 108 L 53 366 L 14 366 L 14 436 L 56 436 L 56 578 L 134 587 L 134 436 L 195 436 L 195 366 L 136 366 L 136 105 C 136 93 139 83 145 77 C 151 70 159 67 169 67 C 173 67 178 67 183 69 C 188 71 192 73 195 75 Z M 109 -69 L 109 -69 Z M 186 -69 C 186 -91 183 -113 177 -137 C 171 -160 164 -182 156 -204 C 147 -226 137 -246 126 -265 C 115 -284 104 -300 94 -313 L 30 -284 C 36 -274 43 -262 51 -247 C 59 -231 66 -214 73 -195 C 80 -176 86 -156 91 -134 C 96 -112 99 -90 100 -69 L 186 -69 Z" unicode="ț" />
<glyph horiz-adv-x="172" d="M 130 436 L 130 -107 C 130 -133 122 -156 106 -174 C 90 -192 69 -201 43 -201 C 32 -201 21 -199 9 -197 C -2 -195 -10 -192 -14 -190 L 3 -127 C 5 -127 8 -128 11 -129 C 14 -129 18 -130 22 -130 C 29 -130 35 -126 40 -120 C 45 -114 48 -105 48 -95 L 48 436 L 130 436 Z" unicode="ȷ" />
<glyph horiz-adv-x="500" d="M 382 499 L 315 499 L 250 615 L 184 499 L 118 499 L 215 670 L 285 670 L 382 499 Z" unicode="ˆ" />
<glyph horiz-adv-x="500" d="M 118 670 L 186 670 L 251 554 L 317 670 L 382 670 L 285 499 L 215 499 L 118 670 Z" unicode="ˇ" />
<glyph horiz-adv-x="500" d="M 309 661 L 378 661 C 374 606 360 566 337 541 C 314 516 285 504 250 504 C 214 504 185 516 162 541 C 139 566 126 606 123 661 L 192 661 C 194 631 199 608 207 591 C 215 574 229 566 250 566 C 270 566 285 574 293 590 C 301 606 307 630 309 661 Z" unicode="˘" />
<glyph horiz-adv-x="500" d="M 289 517 L 212 517 L 212 631 L 289 631 L 289 517 Z" unicode="˙" />
<glyph horiz-adv-x="500" d="M 250 496 C 218 496 192 506 170 528 C 148 550 138 576 138 608 C 138 639 148 665 170 687 C 192 709 218 720 250 720 C 281 720 308 709 330 687 C 352 665 363 639 363 608 C 363 576 352 550 330 528 C 308 506 281 496 250 496 Z M 250 543 C 267 543 282 549 294 562 C 306 574 312 590 312 608 C 312 626 306 642 294 654 C 282 666 267 673 250 673 C 232 673 218 666 206 654 C 194 642 188 626 188 608 C 188 590 194 574 206 562 C 218 549 232 543 250 543 Z" unicode="˚" />
<glyph horiz-adv-x="500" d="M 354 -92 L 378 -127 C 358 -147 337 -162 313 -173 C 289 -183 263 -189 235 -189 C 203 -189 179 -181 161 -167 C 143 -152 134 -134 134 -112 C 134 -87 141 -64 157 -42 C 173 -20 200 -2 238 13 L 308 13 C 280 1 256 -13 236 -29 C 215 -45 205 -62 205 -78 C 205 -92 210 -104 221 -113 C 231 -122 245 -127 262 -127 C 280 -127 298 -123 314 -117 C 330 -110 343 -102 354 -92 Z" unicode="˛" />
<glyph horiz-adv-x="500" d="M 339 641 L 401 641 C 401 595 394 561 382 539 C 369 517 353 506 333 506 C 315 506 301 509 289 517 C 277 525 266 533 257 541 C 248 548 239 555 229 563 C 219 571 210 575 200 575 C 191 575 183 569 177 559 C 170 548 166 531 166 509 L 106 509 C 106 554 113 588 128 610 C 142 632 159 644 178 644 C 194 644 209 639 221 631 C 233 623 244 614 254 606 C 262 598 271 591 280 584 C 288 577 297 574 306 574 C 314 574 322 579 329 590 C 335 601 339 618 339 641 Z" unicode="˜" />
<glyph horiz-adv-x="500" d="M 111 498 L 173 656 L 261 656 L 185 498 L 111 498 Z M 273 498 L 336 656 L 424 656 L 347 498 L 273 498 Z" unicode="˝" />
<glyph horiz-adv-x="0" d="M 0 498 L 0 498 Z M 89 498 L 9 498 L -89 670 L 5 670 L 89 498 Z" unicode="̀" />
<glyph horiz-adv-x="0" d="M 0 498 L 0 498 Z M -89 498 L -5 670 L 89 670 L -9 498 L -89 498 Z" unicode="́" />
<glyph horiz-adv-x="0" d="M 0 499 L 0 499 Z M 132 499 L 65 499 L 0 615 L -66 499 L -132 499 L -35 670 L 35 670 L 132 499 Z" unicode="̂" />
<glyph horiz-adv-x="0" d="M 0 506 L 0 506 Z M 86 641 L 148 641 C 148 595 141 561 129 539 C 116 517 100 506 80 506 C 62 506 48 509 36 517 C 24 525 13 533 4 541 C -4 548 -13 555 -23 563 C -33 571 -43 575 -53 575 C -61 575 -69 569 -76 559 C -82 548 -86 531 -87 509 L -147 509 C -147 554 -139 588 -125 610 C -110 632 -93 644 -75 644 C -58 644 -43 639 -31 631 C -19 623 -8 614 1 606 C 9 598 18 591 27 584 C 35 577 44 574 53 574 C 61 574 69 579 76 590 C 82 601 86 618 86 641 Z" unicode="̃" />
<glyph horiz-adv-x="0" d="M 0 525 L 0 525 Z M 119 525 L -119 525 L -119 587 L 119 587 L 119 525 Z" unicode="̄" />
<glyph horiz-adv-x="0" d="M 0 504 L 0 504 Z M 59 661 L 128 661 C 124 606 110 566 87 541 C 64 516 35 504 0 504 C -35 504 -64 516 -87 541 C -110 566 -123 606 -127 661 L -58 661 C -56 631 -51 608 -43 591 C -35 574 -20 566 0 566 C 20 566 35 574 43 590 C 51 606 57 630 59 661 Z" unicode="̆" />
<glyph horiz-adv-x="0" d="M 0 517 L 0 517 Z M 39 517 L -38 517 L -38 631 L 39 631 L 39 517 Z" unicode="̇" />
<glyph horiz-adv-x="0" d="M 0 499 L 0 499 Z M 107 499 L 40 499 L 40 656 L 107 656 L 107 499 Z M -40 499 L -107 499 L -107 656 L -40 656 L -40 499 Z" unicode="̈" />
<glyph horiz-adv-x="0" d="M 0 496 L 0 496 Z M 0 496 C -31 496 -57 506 -79 528 C -101 550 -112 576 -112 608 C -112 639 -101 665 -79 687 C -57 709 -31 720 0 720 C 31 720 58 709 80 687 C 102 665 113 639 113 608 C 113 576 102 550 80 528 C 58 506 31 496 0 496 Z M 0 543 C 17 543 32 549 44 562 C 56 574 62 590 62 608 C 62 626 56 642 44 654 C 32 666 17 673 0 673 C -17 673 -32 666 -44 654 C -56 642 -62 626 -62 608 C -62 590 -56 574 -44 562 C -32 549 -17 543 0 543 Z" unicode="̊" />
<glyph horiz-adv-x="0" d="M 0 498 L 0 498 Z M -156 498 L -94 656 L -6 656 L -82 498 L -156 498 Z M 6 498 L 69 656 L 157 656 L 80 498 L 6 498 Z" unicode="̋" />
<glyph horiz-adv-x="0" d="M 0 499 L 0 499 Z M -132 670 L -64 670 L 1 554 L 67 670 L 132 670 L 35 499 L -35 499 L -132 670 Z" unicode="̌" />
<glyph horiz-adv-x="0" d="M 0 -69 L 0 -69 Z M 77 -69 C 77 -91 74 -113 68 -137 C 62 -160 55 -182 47 -204 C 38 -226 28 -246 17 -265 C 6 -284 -4 -300 -15 -313 L -79 -284 C -72 -274 -65 -262 -57 -247 C -49 -231 -42 -214 -35 -195 C -28 -176 -22 -156 -17 -134 C -12 -112 -9 -90 -9 -69 L 77 -69 Z" unicode="̦" />
<glyph horiz-adv-x="0" d="M 0 0 L 0 0 Z M 6 -184 C -15 -184 -36 -181 -58 -175 C -79 -169 -96 -161 -109 -151 L -97 -117 C -88 -123 -76 -129 -61 -135 C -46 -141 -30 -144 -14 -144 C 0 -144 12 -140 22 -133 C 32 -126 38 -117 38 -105 C 38 -91 33 -82 24 -77 C 15 -71 5 -69 -5 -69 C -12 -69 -18 -69 -24 -71 C -30 -72 -36 -74 -43 -77 L -57 -62 L 1 12 L 47 12 L 0 -50 C 30 -42 56 -44 77 -56 C 97 -68 108 -85 108 -109 C 108 -133 97 -151 77 -164 C 57 -177 33 -184 6 -184 Z" unicode="̧" />
<glyph horiz-adv-x="0" d="M 0 0 L 0 0 Z M 98 -92 L 122 -127 C 102 -147 81 -162 57 -173 C 33 -183 7 -189 -21 -189 C -52 -189 -77 -181 -95 -167 C -113 -152 -122 -134 -122 -112 C -122 -87 -114 -64 -98 -42 C -82 -20 -56 -2 -18 13 L 52 13 C 24 1 0 -13 -20 -29 C -40 -45 -51 -62 -51 -78 C -51 -92 -45 -104 -35 -113 C -24 -122 -10 -127 6 -127 C 24 -127 42 -123 58 -117 C 74 -110 87 -102 98 -92 Z" unicode="̨" />
<glyph horiz-adv-x="563" d="M 1 0 L 1 0 Z M 542 0 L 1 0 L 259 730 L 285 730 L 542 0 Z M 436 63 L 270 580 L 105 63 L 436 63 Z" unicode="Δ" />
<glyph horiz-adv-x="724" d="M 26 0 L 26 0 Z M 35 0 L 35 77 L 243 77 L 243 150 C 209 158 179 172 152 192 C 125 212 102 235 84 261 C 65 287 51 315 41 347 C 31 378 26 410 26 444 C 26 486 33 525 48 562 C 62 599 83 631 111 658 C 139 685 173 706 213 722 C 253 738 298 746 349 746 C 401 746 448 738 489 722 C 530 706 565 684 593 657 C 621 630 642 598 657 561 C 671 524 679 485 679 444 C 679 410 674 378 665 347 C 656 315 643 287 625 261 C 607 235 584 212 556 193 C 528 173 497 159 461 150 L 461 77 L 669 77 L 669 0 L 400 0 L 400 195 C 430 203 457 215 481 232 C 505 249 524 269 540 291 C 556 313 568 337 576 363 C 584 389 588 414 588 440 C 588 474 582 505 571 534 C 559 563 543 588 522 609 C 501 630 476 646 447 658 C 417 670 385 676 349 676 C 314 676 282 670 254 658 C 225 646 200 630 180 609 C 160 588 144 563 133 534 C 122 504 117 472 117 438 C 117 413 120 388 128 363 C 136 337 147 314 163 292 C 179 270 198 251 222 234 C 246 216 273 203 305 195 L 305 0 L 35 0 Z" unicode="Ω" />
<glyph horiz-adv-x="591" d="M 72 0 L 72 0 Z M 72 -109 L 72 479 L 154 479 L 154 157 C 154 141 157 127 165 115 C 172 103 182 92 194 84 C 206 76 219 69 235 65 C 251 60 267 58 284 58 C 301 58 318 60 336 66 C 354 71 370 79 384 89 C 398 99 409 112 418 128 C 427 144 432 162 432 184 L 432 479 L 514 479 L 514 0 L 438 0 L 438 103 C 427 73 405 48 373 27 C 341 5 307 -5 272 -6 C 245 -6 220 -1 197 9 C 173 20 157 35 148 55 L 148 -109 L 72 -109 Z" unicode="μ" />
<glyph horiz-adv-x="523" d="M 167 414 L 167 0 L 85 0 L 85 414 L 15 414 L 15 479 L 508 479 L 508 414 L 433 414 L 433 0 L 350 0 L 350 414 L 167 414 Z" unicode="π" />
<glyph horiz-adv-x="682" d="M 5 0 L 5 0 Z M 664 730 L 514 -3 L 452 -3 L 335 537 L 215 -3 L 154 -3 L 5 730 L 90 730 L 191 190 L 305 730 L 372 730 L 484 189 L 587 730 L 664 730 Z M 338 792 L 338 792 Z M 427 792 L 347 792 L 249 964 L 343 964 L 427 792 Z" unicode="Ẁ" />
<glyph horiz-adv-x="536" d="M 1 0 L 1 0 Z M 345 -2 L 267 265 L 190 -2 L 122 -2 L 1 436 L 80 436 L 164 118 L 239 391 L 301 391 L 376 118 L 464 436 L 535 436 L 411 -2 L 345 -2 Z M 268 498 L 268 498 Z M 357 498 L 277 498 L 179 670 L 273 670 L 357 498 Z" unicode="ẁ" />
<glyph horiz-adv-x="682" d="M 5 0 L 5 0 Z M 664 730 L 514 -3 L 452 -3 L 335 537 L 215 -3 L 154 -3 L 5 730 L 90 730 L 191 190 L 305 730 L 372 730 L 484 189 L 587 730 L 664 730 Z M 338 792 L 338 792 Z M 249 792 L 333 964 L 427 964 L 329 792 L 249 792 Z" unicode="Ẃ" />
<glyph horiz-adv-x="536" d="M 1 0 L 1 0 Z M 345 -2 L 267 265 L 190 -2 L 122 -2 L 1 436 L 80 436 L 164 118 L 239 391 L 301 391 L 376 118 L 464 436 L 535 436 L 411 -2 L 345 -2 Z M 268 498 L 268 498 Z M 179 498 L 263 670 L 357 670 L 259 498 L 179 498 Z" unicode="ẃ" />
<glyph horiz-adv-x="682" d="M 5 0 L 5 0 Z M 664 730 L 514 -3 L 452 -3 L 335 537 L 215 -3 L 154 -3 L 5 730 L 90 730 L 191 190 L 305 730 L 372 730 L 484 189 L 587 730 L 664 730 Z M 338 793 L 338 793 Z M 445 793 L 378 793 L 378 950 L 445 950 L 445 793 Z M 298 793 L 231 793 L 231 950 L 298 950 L 298 793 Z" unicode="Ẅ" />
<glyph horiz-adv-x="536" d="M 1 0 L 1 0 Z M 345 -2 L 267 265 L 190 -2 L 122 -2 L 1 436 L 80 436 L 164 118 L 239 391 L 301 391 L 376 118 L 464 436 L 535 436 L 411 -2 L 345 -2 Z M 268 499 L 268 499 Z M 375 499 L 308 499 L 308 656 L 375 656 L 375 499 Z M 228 499 L 161 499 L 161 656 L 228 656 L 228 499 Z" unicode="ẅ" />
<glyph horiz-adv-x="457" d="M 0 0 L 0 0 Z M 459 730 L 271 295 L 271 0 L 181 0 L 181 296 L -1 730 L 92 730 L 231 391 L 372 730 L 459 730 Z M 231 792 L 231 792 Z M 320 792 L 240 792 L 142 964 L 236 964 L 320 792 Z" unicode="Ỳ" />
<glyph horiz-adv-x="331" d="M 0 0 L 0 0 Z M 334 436 L 165 -111 C 155 -141 140 -164 118 -178 C 96 -192 71 -200 45 -200 C 33 -200 21 -198 11 -196 C 1 -193 -7 -190 -13 -187 L 14 -121 C 16 -122 21 -124 28 -126 C 35 -128 43 -130 52 -130 C 62 -130 71 -125 81 -116 C 90 -107 97 -94 102 -77 L 133 34 L -3 436 L 84 436 L 173 151 L 253 436 L 334 436 Z M 166 498 L 166 498 Z M 255 498 L 175 498 L 77 670 L 171 670 L 255 498 Z" unicode="ỳ" />
<glyph horiz-adv-x="460" d="M 420 214 L 41 214 L 41 286 L 420 286 L 420 214 Z" unicode="–" />
<glyph horiz-adv-x="645" d="M 605 214 L 41 214 L 41 286 L 605 286 L 605 214 Z" unicode="—" />
<glyph horiz-adv-x="221" d="M 41 507 L 41 514 C 41 558 47 597 59 633 C 71 669 91 703 120 737 L 198 731 C 178 706 160 676 146 642 C 132 607 125 565 125 515 L 125 507 L 41 507 Z" unicode="‘" />
<glyph horiz-adv-x="221" d="M 180 737 L 180 730 C 180 686 174 646 162 610 C 150 574 129 540 101 507 L 23 513 C 43 538 60 568 74 603 C 88 637 96 679 96 729 L 96 737 L 180 737 Z" unicode="’" />
<glyph horiz-adv-x="222" d="M 178 111 L 178 104 C 178 60 172 20 160 -15 C 148 -51 128 -85 100 -119 L 22 -113 C 42 -88 59 -58 73 -23 C 87 11 94 53 94 103 L 94 111 L 178 111 Z" unicode="‚" />
<glyph horiz-adv-x="364" d="M 191 507 L 191 514 C 191 550 198 587 213 624 C 227 660 251 698 284 737 L 356 731 C 347 722 337 710 327 696 C 317 682 307 665 299 647 C 290 628 283 607 277 585 C 271 563 268 539 268 515 L 268 507 L 191 507 Z M 44 507 L 44 514 C 44 550 51 587 66 624 C 81 660 105 698 137 737 L 208 731 C 200 722 190 710 180 696 C 170 682 160 665 152 647 C 143 628 136 607 130 585 C 124 563 121 539 121 515 L 121 507 L 44 507 Z" unicode="“" />
<glyph horiz-adv-x="364" d="M 173 737 L 173 730 C 173 686 166 646 154 611 C 141 575 121 541 94 507 L 22 513 C 43 538 61 568 75 603 C 89 637 96 679 96 729 L 96 737 L 173 737 Z M 321 737 L 321 730 C 321 686 314 646 301 611 C 287 575 268 541 242 507 L 170 513 C 190 538 208 568 222 603 C 236 637 244 679 244 729 L 244 737 L 321 737 Z" unicode="”" />
<glyph horiz-adv-x="367" d="M 172 111 L 172 104 C 172 60 165 20 153 -15 C 141 -50 121 -85 94 -119 L 22 -113 C 43 -87 60 -57 74 -23 C 88 11 95 53 95 103 L 95 111 L 172 111 Z M 323 111 L 323 104 C 323 60 316 20 304 -15 C 292 -50 272 -85 246 -119 L 174 -113 C 194 -88 212 -58 226 -23 C 240 11 247 53 247 103 L 247 111 L 323 111 Z" unicode="„" />
<glyph horiz-adv-x="405" d="M 387 388 L 243 388 L 243 -179 L 156 -179 L 156 388 L 18 388 L 18 470 L 156 470 L 156 730 L 243 730 L 243 470 L 387 470 L 387 388 Z" unicode="†" />
<glyph horiz-adv-x="412" d="M 160 -179 L 160 110 L 26 110 L 26 193 L 160 193 L 160 379 L 26 379 L 26 462 L 160 462 L 160 730 L 247 730 L 247 462 L 387 462 L 387 379 L 247 379 L 247 193 L 387 193 L 387 110 L 247 110 L 247 -179 L 160 -179 Z" unicode="‡" />
<glyph horiz-adv-x="382" d="M 191 457 C 213 457 231 449 246 434 C 261 419 269 401 269 379 C 269 357 261 339 246 324 C 231 308 213 301 191 301 C 169 301 150 308 135 324 C 120 339 113 357 113 379 C 113 401 120 419 135 434 C 150 449 169 457 191 457 Z" unicode="•" />
<glyph horiz-adv-x="602" d="M 58 0 L 58 120 L 143 120 L 143 0 L 58 0 Z M 259 0 L 259 120 L 343 120 L 343 0 L 259 0 Z M 459 0 L 459 120 L 544 120 L 544 0 L 459 0 Z" unicode="…" />
<glyph horiz-adv-x="974" d="M 167 363 C 151 363 135 366 119 374 C 103 382 90 393 78 409 C 66 425 56 444 48 468 C 40 492 37 519 37 551 C 37 604 49 649 73 685 C 97 721 129 740 167 740 C 187 740 206 735 222 725 C 238 715 252 701 264 685 C 276 668 285 648 291 626 C 297 603 301 579 301 554 C 301 527 297 502 291 479 C 284 455 275 435 263 418 C 251 400 236 387 220 377 C 204 367 186 363 167 363 Z M 87 0 L 507 730 L 569 730 L 149 0 L 87 0 Z M 110 551 C 110 536 110 521 112 507 C 114 492 117 479 121 467 C 125 455 131 446 139 439 C 146 431 155 428 167 428 C 179 428 189 431 197 439 C 205 446 211 455 215 467 C 219 478 223 491 225 506 C 227 521 228 536 228 551 C 228 565 227 580 225 595 C 223 610 219 623 215 635 C 210 647 204 656 197 664 C 189 672 180 676 170 676 C 158 676 149 672 141 665 C 133 657 127 648 123 636 C 118 624 115 611 113 596 C 111 581 110 566 110 551 Z M 502 -3 C 485 -3 469 0 453 8 C 437 16 422 27 410 43 C 398 59 388 78 380 102 C 372 126 369 153 369 185 C 369 238 381 283 406 319 C 431 355 464 374 504 374 C 524 374 543 369 560 359 C 576 349 590 335 602 319 C 613 302 622 282 628 260 C 634 237 637 213 637 188 C 637 161 633 136 627 113 C 621 89 612 69 600 52 C 588 34 573 21 557 11 C 540 1 522 -3 502 -3 Z M 802 -3 C 786 -3 770 0 754 8 C 738 16 723 27 711 43 C 699 59 689 78 681 102 C 673 126 670 153 670 185 C 670 238 682 283 707 319 C 731 355 764 374 804 374 C 824 374 843 369 860 359 C 876 349 890 335 902 319 C 913 302 922 282 928 260 C 934 237 937 213 937 188 C 937 161 933 136 927 113 C 921 89 912 69 900 52 C 888 34 873 21 857 11 C 840 1 822 -3 802 -3 Z M 501 62 C 513 62 523 65 531 72 C 539 79 545 88 550 100 C 554 112 558 125 560 140 C 562 154 564 169 564 185 C 564 199 562 214 560 229 C 558 244 554 258 550 270 C 545 282 539 291 531 299 C 523 306 513 310 503 310 C 492 310 483 306 475 299 C 467 292 461 283 456 271 C 451 259 447 246 445 231 C 443 216 442 201 442 185 C 442 154 446 126 455 100 C 464 74 479 62 501 62 Z M 801 62 C 813 62 823 65 831 72 C 839 79 846 88 851 100 C 855 112 859 125 861 140 C 863 154 865 169 865 185 C 865 199 863 214 861 229 C 859 244 855 258 851 270 C 846 282 840 291 832 299 C 824 306 814 310 804 310 C 793 310 784 306 776 299 C 768 292 761 283 756 271 C 751 259 747 246 745 231 C 743 216 742 201 742 185 C 742 154 746 126 755 100 C 764 74 779 62 801 62 Z" unicode="‰" />
<glyph horiz-adv-x="235" d="M 205 88 L 28 254 L 28 302 L 205 467 L 205 386 L 101 276 L 205 172 L 205 88 Z" unicode="‹" />
<glyph horiz-adv-x="235" d="M 30 467 L 207 300 L 207 253 L 30 88 L 30 168 L 134 278 L 30 382 L 30 467 Z" unicode="›" />
<glyph horiz-adv-x="145" d="M 301 730 L -72 0 L -145 0 L 228 730 L 301 730 Z" unicode="⁄" />
<glyph horiz-adv-x="326" d="M 15 456 L 15 507 L 204 738 L 252 738 L 252 510 L 315 510 L 315 456 L 252 456 L 252 373 L 183 373 L 183 456 L 15 456 Z M 86 508 L 185 508 L 185 635 L 86 508 Z" unicode="⁴" />
<glyph horiz-adv-x="469" d="M 448 116 C 432 79 408 48 377 24 C 346 0 312 -12 275 -12 C 225 -12 181 12 145 61 C 108 109 84 176 73 261 L 27 261 L 27 328 L 68 328 C 67 333 67 338 67 344 C 67 350 67 356 67 362 C 67 366 67 371 67 376 C 67 381 67 386 67 391 L 27 391 L 27 458 L 72 458 C 76 499 84 537 96 572 C 107 607 121 637 138 662 C 155 687 175 707 198 721 C 221 735 246 742 274 742 C 320 742 356 730 383 707 C 409 684 429 657 442 626 L 384 583 C 373 603 360 621 344 639 C 328 656 306 665 278 665 C 246 665 218 647 196 611 C 173 575 158 524 151 458 L 420 458 L 420 391 L 146 391 C 146 386 146 381 146 376 C 146 371 146 366 146 362 C 146 356 146 350 146 344 C 146 338 146 333 147 328 L 420 328 L 420 261 L 152 261 C 160 194 177 144 201 111 C 225 78 252 62 281 62 C 307 62 330 72 348 92 C 366 112 381 135 392 162 L 448 116 Z" unicode="€" />
<glyph horiz-adv-x="843" d="M 793 326 L 719 326 L 719 607 L 590 407 L 567 407 L 440 606 L 440 326 L 367 326 L 367 730 L 443 730 L 579 518 L 714 730 L 793 730 L 793 326 Z M 338 650 L 222 650 L 222 326 L 143 326 L 143 650 L 21 650 L 21 730 L 338 730 L 338 650 Z" unicode="™" />
<glyph horiz-adv-x="705" d="M 35 0 L 35 77 L 243 77 L 243 150 C 209 158 179 172 152 192 C 125 212 102 235 84 261 C 65 287 51 315 41 347 C 31 378 26 410 26 444 C 26 486 33 525 48 562 C 62 599 83 631 111 658 C 139 685 173 706 213 722 C 253 738 298 746 349 746 C 401 746 448 738 489 722 C 530 706 565 684 593 657 C 621 630 642 598 657 561 C 671 524 679 485 679 444 C 679 410 674 378 665 347 C 656 315 643 287 625 261 C 607 235 584 212 556 193 C 528 173 497 159 461 150 L 461 77 L 669 77 L 669 0 L 400 0 L 400 195 C 430 203 457 215 481 232 C 505 249 524 269 540 291 C 556 313 568 337 576 363 C 584 389 588 414 588 440 C 588 474 582 505 571 534 C 559 563 543 588 522 609 C 501 630 476 646 447 658 C 417 670 385 676 349 676 C 314 676 282 670 254 658 C 225 646 200 630 180 609 C 160 588 144 563 133 534 C 122 504 117 472 117 438 C 117 413 120 388 128 363 C 136 337 147 314 163 292 C 179 270 198 251 222 234 C 246 216 273 203 305 195 L 305 0 L 35 0 Z" unicode="Ω" />
<glyph horiz-adv-x="441" d="M 402 274 C 402 224 397 182 387 146 C 377 110 364 81 348 59 C 331 36 311 19 289 9 C 266 -1 242 -7 217 -7 C 192 -7 168 -2 145 7 C 122 17 102 31 85 50 C 67 68 53 92 43 120 C 33 148 28 180 28 216 C 28 250 32 282 41 310 C 50 338 63 362 79 382 C 95 402 113 417 134 428 C 155 439 178 445 202 445 C 233 445 260 436 282 420 C 304 404 321 382 333 355 C 326 424 314 484 297 534 C 279 584 260 625 238 657 C 216 689 194 712 171 728 C 148 744 128 752 110 753 L 145 802 C 163 802 187 792 217 772 C 246 752 274 722 302 680 C 329 638 352 583 372 516 C 392 448 402 368 402 274 Z M 215 53 C 247 53 272 68 290 98 C 307 128 316 169 316 223 C 316 273 307 312 290 340 C 273 368 248 383 214 383 C 182 383 158 368 141 339 C 123 310 115 270 115 218 C 115 162 123 121 141 94 C 158 66 183 53 215 53 Z" unicode="∂" />
<glyph horiz-adv-x="543" d="M 542 0 L 1 0 L 259 730 L 285 730 L 542 0 Z M 436 63 L 270 580 L 105 63 L 436 63 Z" unicode="∆" />
<glyph horiz-adv-x="638" d="M 207 655 L 207 0 L 121 0 L 121 655 L 15 655 L 15 730 L 623 730 L 623 655 L 522 655 L 522 0 L 436 0 L 436 655 L 207 655 Z" unicode="∏" />
<glyph horiz-adv-x="525" d="M 159 655 L 373 307 L 127 -104 L 497 -104 L 497 -179 L -12 -179 L 289 306 L 18 730 L 476 730 L 476 655 L 159 655 Z" unicode="∑" />
<glyph horiz-adv-x="512" d="M 472 298 L 41 298 L 41 365 L 472 365 L 472 298 Z" unicode="−" />
<glyph horiz-adv-x="510" d="M 500 730 L 198 0 L 186 0 L 14 327 L 74 371 L 202 116 L 446 730 L 500 730 Z" unicode="√" />
<glyph horiz-adv-x="334" d="M 109 -33 L 167 630 C 170 666 184 693 208 712 C 232 730 256 740 281 740 C 293 740 306 739 318 738 C 330 737 337 736 340 736 L 333 663 C 331 663 327 664 321 665 C 315 665 309 666 303 666 C 284 666 268 659 256 647 C 244 634 237 614 235 588 L 179 -62 C 176 -94 163 -121 140 -145 C 116 -168 88 -179 54 -179 C 36 -179 20 -177 5 -174 C -10 -170 -22 -166 -30 -162 L -21 -103 C -17 -103 -10 -105 0 -108 C 9 -110 18 -112 27 -112 C 47 -112 65 -105 81 -91 C 97 -77 106 -58 109 -33 Z" unicode="∫" />
<glyph horiz-adv-x="474" d="M 366 496 L 448 496 C 447 448 439 409 423 380 C 407 351 383 337 351 337 C 329 337 311 341 295 350 C 279 359 265 369 253 380 C 239 391 226 401 213 410 C 200 418 186 423 172 423 C 158 423 145 415 131 400 C 117 385 111 365 111 340 L 39 340 C 39 388 48 427 68 455 C 87 483 112 497 143 497 C 163 497 182 492 198 483 C 214 474 228 464 241 454 C 253 445 264 437 276 429 C 288 421 301 418 315 418 C 333 418 346 424 354 437 C 362 449 366 469 366 496 Z M 369 322 L 448 322 C 447 274 438 235 422 206 C 406 177 381 163 348 163 C 325 163 305 167 289 176 C 273 185 259 195 247 206 C 234 216 221 226 209 234 C 197 242 184 246 171 246 C 158 246 145 238 132 224 C 119 210 113 190 113 166 L 39 166 C 39 214 49 253 69 281 C 89 309 115 324 148 324 C 170 324 190 319 207 309 C 224 299 239 289 251 279 C 261 270 272 262 284 254 C 295 246 307 242 320 242 C 337 242 349 248 357 261 C 365 274 369 294 369 322 Z" unicode="≈" />
<glyph horiz-adv-x="500" d="M 457 179 L 226 179 L 173 70 L 114 95 L 154 179 L 65 179 L 65 250 L 189 250 L 256 390 L 65 390 L 65 461 L 290 461 L 343 570 L 402 545 L 362 461 L 457 461 L 457 390 L 327 390 L 260 250 L 457 250 L 457 179 Z" unicode="≠" />
<glyph horiz-adv-x="500" d="M 62 298 L 62 352 L 433 556 L 433 477 L 143 327 L 433 175 L 433 95 L 62 298 Z M 61 80 L 433 80 L 433 17 L 61 17 L 61 80 Z" unicode="≤" />
<glyph horiz-adv-x="500" d="M 432 298 L 61 95 L 61 174 L 351 327 L 61 477 L 61 556 L 432 352 L 432 298 Z M 433 80 L 433 17 L 61 17 L 61 80 L 433 80 Z" unicode="≥" />
<glyph horiz-adv-x="530" d="M 500 326 L 270 -12 L 259 -12 L 30 326 L 30 337 L 259 674 L 270 674 L 500 337 L 500 326 Z M 421 327 L 421 336 L 269 565 L 261 565 L 109 336 L 109 327 L 261 97 L 269 97 L 421 327 Z" unicode="◊" />
<glyph horiz-adv-x="730" d="M 448 683 L 282 683 L 282 730 L 448 730 L 448 683 Z M 659 282 L 610 282 L 610 448 L 659 448 L 659 282 Z M 120 282 L 71 282 L 71 448 L 120 448 L 120 282 Z M 423 307 L 307 307 L 307 423 L 423 423 L 423 307 Z M 448 0 L 282 0 L 282 48 L 448 48 L 448 0 Z" unicode="" />
<glyph horiz-adv-x="402" d="M 212 366 L 145 366 L 145 0 L 63 0 L 63 366 L 18 366 L 18 436 L 63 436 L 63 636 C 63 658 67 679 75 697 C 83 715 93 731 105 744 C 117 757 131 767 147 775 C 163 782 178 786 194 786 C 214 786 232 783 248 779 C 264 775 276 770 283 765 L 262 699 C 257 701 249 704 239 707 C 229 710 219 712 209 712 C 192 712 177 704 164 689 C 150 673 144 650 144 618 L 144 436 L 212 436 L 212 366 Z M 358 538 L 271 538 L 271 617 L 358 617 L 358 538 Z M 356 0 L 273 0 L 273 436 L 356 436 L 356 0 Z" unicode="ﬁ" />
<glyph horiz-adv-x="398" d="M 145 366 L 145 0 L 63 0 L 63 366 L 18 366 L 18 436 L 63 436 L 63 635 C 63 657 67 678 75 697 C 83 715 93 731 105 744 C 117 757 131 767 147 775 C 163 782 178 786 194 786 C 210 786 225 784 239 781 C 253 778 264 774 273 770 L 273 783 L 355 783 L 355 0 L 273 0 L 273 733 L 262 698 C 257 700 249 703 239 707 C 229 710 219 712 209 712 C 192 712 177 704 164 688 C 150 672 144 649 144 617 L 144 436 L 212 436 L 212 366 L 145 366 Z" unicode="ﬂ" />
</font>
</defs>
</svg>
