<?xml version="1.0" encoding="utf-8" ?><svg version="1.1" xmlns = 'http://www.w3.org/2000/svg'><defs><font id='web' horiz-adv-x="1000">
<font-face font-family="web" descent="-200" cap-height="730" units-per-em="1000" bbox="-199,-334,1046,1021" x-height="494" ascent="800" />
<missing-glyph horiz-adv-x="500" d="" /><glyph horiz-adv-x="205" d="" unicode=" " />
<glyph horiz-adv-x="271" d="M 205 427 L 164 220 L 108 220 L 68 427 L 68 730 L 205 730 L 205 427 Z M 199 0 L 75 0 L 75 129 L 199 129 L 199 0 Z" unicode="!" />
<glyph horiz-adv-x="392" d="M 343 620 L 335 473 L 239 473 L 233 619 L 233 730 L 343 730 L 343 620 Z M 158 619 L 153 473 L 54 473 L 49 619 L 49 730 L 158 730 L 158 619 Z" unicode="&#x22;" />
<glyph horiz-adv-x="583" d="M 532 203 L 422 203 L 404 0 L 329 1 L 347 203 L 211 203 L 193 0 L 117 1 L 135 203 L 32 203 L 32 306 L 144 306 L 154 421 L 51 421 L 51 524 L 163 524 L 181 730 L 257 729 L 239 524 L 375 524 L 393 730 L 468 729 L 450 524 L 552 524 L 552 421 L 441 421 L 431 306 L 532 306 L 532 203 Z M 220 306 L 356 306 L 366 421 L 230 421 L 220 306 Z" unicode="#" />
<glyph horiz-adv-x="497" d="M 464 192 C 464 164 459 139 449 117 C 439 95 427 76 411 60 C 395 44 376 31 354 21 C 332 11 308 4 284 1 L 284 -128 L 213 -128 L 213 -1 C 173 1 136 10 104 24 C 72 38 44 59 20 85 L 75 170 C 93 147 118 129 149 117 C 179 104 209 98 237 98 C 266 98 292 105 315 121 C 338 136 350 160 350 193 C 350 221 340 244 322 263 C 303 281 266 304 211 332 C 156 358 114 388 84 421 C 54 454 40 498 40 552 C 40 600 56 640 89 672 C 121 704 163 723 213 730 L 213 792 L 284 792 L 284 730 C 318 727 349 719 376 707 C 403 694 426 678 445 659 L 383 580 C 365 596 345 609 322 619 C 299 628 276 633 254 633 C 227 633 204 625 184 610 C 164 594 155 573 155 547 C 155 521 164 499 182 482 C 199 465 235 443 289 416 C 349 385 394 354 422 322 C 450 290 464 246 464 192 Z" unicode="$" />
<glyph horiz-adv-x="746" d="M 185 359 C 166 359 148 363 130 371 C 112 379 95 391 81 407 C 67 423 55 442 46 466 C 37 490 33 517 33 549 C 33 575 36 600 44 624 C 52 647 62 667 76 684 C 89 701 105 715 123 725 C 141 735 161 740 182 740 C 204 740 225 735 245 725 C 264 715 280 701 294 684 C 307 666 317 646 325 624 C 333 601 337 577 337 552 C 337 524 333 499 325 475 C 317 451 306 431 292 414 C 278 397 262 384 244 374 C 226 364 206 359 185 359 Z M 192 0 L 107 0 L 537 730 L 622 730 L 192 0 Z M 184 447 C 204 447 219 457 227 477 C 235 497 240 521 240 549 C 240 575 236 599 228 619 C 220 639 206 650 186 650 C 166 650 151 640 143 620 C 135 600 131 576 131 549 C 131 521 135 497 143 477 C 151 457 165 447 184 447 Z M 559 -3 C 540 -3 521 1 503 9 C 485 17 468 29 454 45 C 440 61 428 80 420 104 C 411 128 407 155 407 187 C 407 213 410 238 418 262 C 426 285 436 305 450 322 C 464 339 480 353 499 363 C 517 373 538 378 561 378 C 583 378 604 373 623 363 C 642 353 658 339 672 322 C 685 305 695 285 703 262 C 710 239 714 215 714 190 C 714 163 710 138 702 114 C 694 90 684 70 670 53 C 656 35 640 22 621 12 C 602 2 581 -3 559 -3 Z M 558 87 C 578 87 593 96 602 115 C 611 134 616 158 616 187 C 616 215 611 239 603 259 C 594 279 580 289 560 289 C 542 289 528 279 519 259 C 509 239 505 215 505 187 C 505 158 509 134 518 115 C 527 96 540 87 558 87 Z" unicode="%" />
<glyph horiz-adv-x="673" d="M 588 -6 L 511 71 C 478 45 442 25 403 12 C 364 -1 320 -8 272 -8 C 195 -8 135 9 91 43 C 47 77 25 125 25 186 C 25 214 29 239 37 261 C 45 283 57 302 71 319 C 85 335 102 350 121 364 C 140 377 160 390 182 402 C 174 410 165 420 155 432 C 145 444 135 457 127 471 C 119 485 112 501 106 519 C 100 536 98 555 98 576 C 98 596 102 616 111 636 C 119 656 132 673 148 688 C 164 702 184 714 208 723 C 231 732 257 737 286 737 C 342 737 388 721 424 691 C 459 661 477 625 477 584 C 477 544 465 509 442 479 C 418 449 386 420 346 393 L 511 231 C 519 243 528 257 538 271 C 547 285 556 301 565 317 L 656 255 C 645 236 634 218 623 201 C 612 184 601 168 590 154 L 666 80 L 588 -6 Z M 272 465 L 279 458 C 308 477 329 495 342 512 C 355 528 362 546 362 565 C 362 583 355 600 343 616 C 331 632 313 640 289 640 C 266 640 248 632 236 616 C 223 600 217 583 217 566 C 217 549 221 532 231 515 C 241 498 254 481 272 465 Z M 157 197 C 157 165 170 140 196 122 C 222 103 252 94 287 94 C 315 94 341 98 365 108 C 389 117 413 130 435 148 L 251 332 C 222 312 199 292 182 272 C 165 251 157 226 157 197 Z" unicode="&#x26;" />
<glyph horiz-adv-x="209" d="M 161 616 L 156 466 L 54 466 L 48 616 L 48 730 L 161 730 L 161 616 Z" unicode="'" />
<glyph horiz-adv-x="314" d="M 296 -86 L 296 -181 C 260 -165 226 -142 193 -114 C 160 -85 131 -51 106 -11 C 81 29 61 74 46 126 C 30 177 23 233 23 293 C 23 351 30 405 45 455 C 59 505 79 549 104 587 C 128 625 157 658 190 686 C 223 713 258 734 296 749 L 296 659 C 252 632 217 589 190 530 C 163 471 149 392 149 293 C 149 204 161 127 186 63 C 210 0 247 -50 296 -86 Z" unicode="(" />
<glyph horiz-adv-x="314" d="M 18 659 L 18 749 C 54 736 88 716 121 689 C 154 662 183 629 208 591 C 233 552 253 507 268 456 C 283 404 291 348 291 286 C 291 227 283 172 268 122 C 252 72 232 27 207 -12 C 182 -51 153 -85 120 -114 C 87 -142 53 -165 18 -181 L 18 -84 C 64 -50 101 -2 127 60 C 153 122 167 197 167 286 C 167 387 154 468 126 528 C 98 588 62 632 18 659 Z" unicode=")" />
<glyph horiz-adv-x="391" d="M 367 578 L 245 547 L 334 462 L 266 405 L 198 512 L 131 406 L 60 461 L 150 548 L 26 575 L 65 663 L 168 603 L 151 730 L 245 730 L 226 603 L 334 659 L 367 578 Z" unicode="*" />
<glyph horiz-adv-x="478" d="M 454 284 L 288 284 L 288 120 L 190 120 L 190 284 L 24 284 L 24 379 L 190 379 L 190 542 L 288 542 L 288 379 L 454 379 L 454 284 Z" unicode="+" />
<glyph horiz-adv-x="238" d="M 205 117 C 204 92 200 66 193 39 C 186 12 177 -13 167 -37 C 157 -61 145 -83 133 -103 C 120 -123 108 -137 98 -147 L 7 -106 C 14 -97 22 -84 30 -68 C 38 -52 45 -34 53 -14 C 60 6 66 27 72 50 C 77 72 80 95 82 117 L 205 117 Z" unicode="," />
<glyph horiz-adv-x="333" d="M 298 215 L 36 215 L 36 323 L 298 323 L 298 215 Z" unicode="-" />
<glyph horiz-adv-x="239" d="M 181 0 L 58 0 L 58 142 L 181 142 L 181 0 Z" unicode="." />
<glyph horiz-adv-x="324" d="M 325 730 L 109 0 L -1 0 L 216 730 L 325 730 Z" unicode="/" />
<glyph horiz-adv-x="497" d="M 245 -9 C 182 -9 130 19 90 76 C 49 132 29 227 29 361 C 29 417 33 469 42 516 C 50 562 64 602 82 635 C 100 667 123 693 151 711 C 179 729 212 739 250 739 C 288 739 322 730 350 712 C 378 694 400 670 418 638 C 435 606 448 568 456 522 C 464 476 469 426 469 371 C 469 250 450 156 413 90 C 376 24 320 -9 245 -9 Z M 247 93 C 281 93 307 114 323 156 C 339 198 347 266 347 360 C 347 453 339 522 325 568 C 311 613 285 636 248 636 C 213 636 188 614 173 572 C 157 529 150 459 150 363 C 150 263 158 193 174 153 C 190 113 215 93 247 93 Z" unicode="0" />
<glyph horiz-adv-x="335" d="M 273 0 L 149 0 L 149 559 C 136 540 117 523 93 509 C 69 494 47 486 28 484 L 28 608 C 52 609 79 622 107 648 C 135 674 158 702 175 733 L 273 733 L 273 0 Z" unicode="1" />
<glyph horiz-adv-x="477" d="M 451 0 L 19 0 L 19 34 L 261 361 C 281 389 296 418 308 447 C 320 476 326 507 326 539 C 326 567 317 590 301 607 C 284 624 261 633 231 633 C 197 633 173 622 157 600 C 141 578 134 549 134 513 L 25 514 C 25 588 44 644 82 682 C 120 720 171 739 235 739 C 296 739 346 722 385 690 C 424 657 444 611 444 552 C 444 496 436 451 420 417 C 404 382 385 350 365 322 L 204 107 L 451 107 L 451 0 Z" unicode="2" />
<glyph horiz-adv-x="472" d="M 217 -9 C 163 -9 118 -1 82 14 C 46 29 19 46 0 66 L 54 153 C 69 138 89 124 113 112 C 137 99 167 93 203 93 C 247 93 280 106 303 132 C 325 158 337 190 337 227 C 337 267 324 296 298 314 C 272 332 242 342 209 342 L 119 342 L 119 446 L 209 446 C 239 446 265 454 285 472 C 305 489 316 513 316 544 C 316 569 307 591 291 609 C 274 627 250 636 219 636 C 187 636 160 629 138 616 C 116 603 98 588 83 570 L 19 644 C 35 666 60 687 96 708 C 131 728 177 739 233 739 C 292 739 340 723 376 693 C 412 662 430 620 430 567 C 430 521 417 484 393 455 C 368 426 341 407 311 399 C 329 395 347 388 364 378 C 381 368 396 356 409 341 C 422 325 433 307 441 287 C 449 267 453 244 453 219 C 453 192 448 165 440 138 C 431 111 417 87 399 65 C 380 43 356 26 326 12 C 296 -2 259 -9 217 -9 Z" unicode="3" />
<glyph horiz-adv-x="480" d="M 476 180 L 394 180 L 394 0 L 286 0 L 286 180 L 6 180 L 6 260 L 315 737 L 394 737 L 394 283 L 476 283 L 476 180 Z M 288 278 L 288 531 L 126 278 L 288 278 Z" unicode="4" />
<glyph horiz-adv-x="472" d="M 230 -9 C 180 -9 135 0 96 17 C 57 35 27 55 7 78 L 70 165 C 84 147 104 131 129 117 C 153 103 182 96 215 96 C 252 96 281 109 302 137 C 322 164 333 201 333 247 C 333 289 323 322 304 346 C 285 370 260 382 230 382 C 200 382 176 376 159 364 C 142 352 129 335 120 315 L 39 336 L 69 730 L 410 730 L 410 621 L 157 621 L 143 429 C 151 441 165 453 185 465 C 205 477 232 483 266 483 C 322 483 367 463 402 425 C 437 386 455 330 455 256 C 455 213 449 175 437 142 C 425 109 409 81 389 59 C 369 37 345 20 318 8 C 290 -3 261 -9 230 -9 Z" unicode="5" />
<glyph horiz-adv-x="479" d="M 251 -9 C 220 -9 191 -3 163 7 C 135 17 111 33 91 54 C 71 74 55 100 43 131 C 31 162 25 197 25 237 C 25 314 43 387 79 455 C 115 523 161 591 218 661 L 289 750 L 374 689 L 330 633 C 286 577 248 528 216 484 C 183 440 162 406 153 380 C 163 398 179 414 201 427 C 223 440 248 447 277 447 C 331 447 375 426 410 385 C 444 344 462 290 462 223 C 462 189 456 158 446 130 C 435 102 420 77 402 57 C 383 36 361 20 335 8 C 309 -3 281 -9 251 -9 Z M 248 92 C 277 92 300 103 318 126 C 336 148 345 180 345 220 C 345 263 336 295 318 317 C 300 338 277 349 248 349 C 220 349 197 338 177 318 C 157 297 147 266 147 224 C 147 179 156 146 175 124 C 194 102 218 92 248 92 Z" unicode="6" />
<glyph horiz-adv-x="413" d="M 414 730 L 419 676 L 138 -8 L 33 36 L 281 621 L 12 621 L 12 730 L 414 730 Z" unicode="7" />
<glyph horiz-adv-x="492" d="M 343 391 C 358 387 373 380 388 370 C 403 360 417 348 429 333 C 441 317 450 299 458 277 C 466 255 470 231 470 203 C 470 139 450 87 410 49 C 370 10 315 -9 246 -9 C 177 -9 123 9 83 47 C 43 85 23 135 23 199 C 23 228 27 254 35 277 C 43 299 54 318 67 334 C 79 350 93 362 108 372 C 123 381 137 387 150 391 C 137 395 124 401 112 410 C 99 418 88 429 78 442 C 68 455 59 471 53 490 C 47 508 44 530 44 555 C 44 583 49 609 59 632 C 69 655 84 674 102 690 C 120 706 142 718 167 726 C 191 734 218 739 246 739 C 308 739 357 722 394 689 C 430 656 449 614 449 562 C 449 514 437 476 415 448 C 392 420 368 401 343 391 Z M 246 428 C 273 428 295 436 313 453 C 331 470 340 497 340 533 C 340 567 331 594 313 612 C 295 630 272 639 246 639 C 219 639 197 630 179 612 C 161 594 152 568 152 533 C 152 495 161 468 181 452 C 200 436 222 428 246 428 Z M 247 90 C 279 90 304 100 323 120 C 342 140 352 171 352 213 C 352 253 341 282 321 301 C 301 320 276 330 247 330 C 216 330 190 320 170 302 C 150 283 140 253 140 211 C 140 171 150 140 171 120 C 191 100 217 90 247 90 Z" unicode="8" />
<glyph horiz-adv-x="478" d="M 201 -14 L 117 51 L 158 98 C 174 118 192 141 211 165 C 229 189 247 213 263 237 C 279 261 293 283 306 305 C 318 327 328 345 334 361 C 322 341 304 324 278 310 C 252 295 225 288 197 288 C 144 288 101 308 67 350 C 33 392 17 446 17 512 C 17 545 22 576 33 604 C 44 632 59 656 79 676 C 98 696 121 711 147 723 C 173 734 202 740 233 740 C 262 740 290 734 317 724 C 344 714 368 698 388 678 C 408 657 423 631 435 600 C 447 569 453 533 453 493 C 453 449 447 408 436 368 C 425 328 411 291 394 255 C 376 219 356 185 333 153 C 310 121 287 91 263 63 L 201 -14 Z M 230 387 C 256 387 280 396 301 416 C 321 435 332 466 332 508 C 332 554 322 587 303 607 C 283 627 260 638 233 638 C 202 638 178 627 161 605 C 143 583 135 552 135 514 C 135 470 143 438 159 418 C 175 397 199 387 230 387 Z" unicode="9" />
<glyph horiz-adv-x="235" d="M 179 357 L 57 357 L 57 494 L 179 494 L 179 357 Z M 179 0 L 57 0 L 57 137 L 179 137 L 179 0 Z" unicode=":" />
<glyph horiz-adv-x="236" d="M 186 357 L 65 357 L 65 494 L 186 494 L 186 357 Z M 189 110 C 187 84 183 58 176 32 C 169 6 161 -18 151 -41 C 141 -64 131 -85 119 -103 C 107 -121 96 -135 85 -145 L -5 -105 C 2 -95 10 -83 19 -67 C 28 -51 36 -34 44 -15 C 51 3 57 23 62 45 C 67 67 70 88 70 110 L 189 110 Z" unicode=";" />
<glyph horiz-adv-x="389" d="M 342 97 L 35 284 L 35 367 L 342 552 L 342 440 L 153 327 L 342 212 L 342 97 Z" unicode="&#x3C;" />
<glyph horiz-adv-x="482" d="M 431 382 L 52 382 L 52 486 L 431 486 L 431 382 Z M 431 163 L 52 163 L 52 267 L 431 267 L 431 163 Z" unicode="=" />
<glyph horiz-adv-x="389" d="M 352 284 L 45 97 L 45 211 L 231 327 L 45 440 L 45 552 L 352 367 L 352 284 Z" unicode="&#x3E;" />
<glyph horiz-adv-x="447" d="M 150 218 C 150 256 155 288 167 316 C 178 344 196 371 220 398 C 239 419 257 441 273 464 C 289 486 298 513 298 545 C 298 573 288 594 270 610 C 251 626 228 634 202 634 C 177 634 155 627 135 614 C 115 601 99 585 87 567 L 14 640 C 38 673 68 698 106 716 C 143 733 182 742 224 742 C 288 742 337 725 372 692 C 407 658 425 615 425 561 C 425 535 421 512 415 492 C 408 471 399 452 389 435 C 379 418 367 402 354 387 C 341 372 328 357 316 343 C 298 325 285 305 278 282 C 271 259 267 238 267 218 L 150 218 Z M 145 0 L 145 133 L 277 133 L 277 0 L 145 0 Z" unicode="?" />
<glyph horiz-adv-x="824" d="M 406 -46 C 350 -46 300 -36 254 -16 C 208 4 168 31 136 65 C 104 99 79 140 61 186 C 43 232 34 282 34 334 C 34 386 43 436 61 482 C 79 528 105 569 138 603 C 171 637 211 663 258 683 C 304 703 356 713 412 713 C 469 713 521 704 568 688 C 614 671 654 648 687 618 C 719 588 744 551 762 508 C 780 465 789 418 789 366 C 789 322 783 284 773 253 C 763 222 749 197 733 177 C 717 157 699 143 679 134 C 659 125 641 121 623 121 C 592 121 567 127 548 140 C 529 153 516 170 510 191 C 499 175 481 159 456 144 C 430 128 399 121 361 121 C 312 121 275 133 250 158 C 224 182 212 215 212 255 C 212 277 217 297 227 315 C 237 333 252 348 270 360 C 288 372 310 381 334 387 C 358 393 385 397 413 397 L 494 397 L 494 407 C 494 432 486 450 472 461 C 458 472 436 478 406 478 C 382 478 359 475 339 469 C 319 463 302 457 289 452 L 257 527 C 275 535 298 543 325 550 C 352 556 380 560 410 560 C 464 560 506 547 538 521 C 570 495 586 451 586 391 L 586 247 C 586 234 589 223 597 213 C 604 203 616 199 633 199 C 650 199 667 209 685 231 C 702 252 711 295 711 361 C 711 401 704 439 690 474 C 676 508 657 538 631 562 C 605 586 574 606 537 620 C 499 634 457 641 411 641 C 365 641 324 633 288 617 C 251 601 220 579 194 552 C 168 524 148 492 134 455 C 120 417 113 377 113 335 C 113 293 120 253 134 215 C 148 177 168 144 194 116 C 220 88 251 65 287 49 C 323 33 364 25 408 25 C 428 25 449 27 470 31 C 490 35 512 43 535 54 L 563 -11 C 536 -23 510 -32 484 -38 C 458 -43 432 -46 406 -46 Z M 390 201 C 414 201 436 206 456 216 C 475 226 488 236 494 246 L 494 327 L 414 327 C 382 327 357 321 341 310 C 325 299 317 284 317 265 C 317 244 323 228 335 217 C 347 206 366 201 390 201 Z" unicode="@" />
<glyph horiz-adv-x="551" d="M 553 0 L 425 0 L 376 156 L 168 156 L 122 0 L -1 0 L 234 733 L 321 733 L 553 0 Z M 353 256 L 272 517 L 191 256 L 353 256 Z" unicode="A" />
<glyph horiz-adv-x="523" d="M 63 0 L 63 730 L 281 730 C 335 730 380 714 416 683 C 451 652 469 610 469 556 C 469 506 456 466 432 438 C 407 409 378 391 344 385 C 362 383 380 378 398 370 C 416 362 433 350 448 336 C 463 321 475 303 485 281 C 494 259 499 234 499 206 C 499 174 493 145 483 119 C 472 93 457 72 439 55 C 420 37 398 24 372 14 C 346 4 318 0 288 0 L 63 0 Z M 187 422 L 253 422 C 287 422 311 433 325 456 C 339 478 347 503 347 530 C 347 558 339 581 323 599 C 307 616 282 625 248 625 L 187 625 L 187 422 Z M 188 104 L 270 104 C 306 104 332 114 348 136 C 364 157 372 183 372 214 C 372 249 362 276 342 294 C 322 312 295 321 261 321 L 188 321 L 188 104 Z" unicode="B" />
<glyph horiz-adv-x="582" d="M 320 -9 C 278 -9 240 -1 205 15 C 170 31 140 54 115 86 C 89 117 69 156 55 203 C 41 250 34 304 34 366 C 34 422 40 474 54 520 C 67 566 86 606 111 638 C 135 670 165 695 201 713 C 237 730 277 739 322 739 C 387 739 438 725 474 698 C 510 670 538 635 557 591 L 453 538 C 440 562 424 583 404 600 C 384 616 358 625 324 625 C 274 625 235 604 207 563 C 179 521 165 455 165 363 C 165 314 169 273 179 240 C 188 207 200 180 216 160 C 232 140 250 125 270 117 C 290 108 310 104 332 104 C 368 104 396 112 418 129 C 439 146 457 169 471 197 L 567 147 C 546 99 515 61 474 33 C 432 5 381 -9 320 -9 Z" unicode="C" />
<glyph horiz-adv-x="615" d="M 63 0 L 63 730 L 261 730 C 312 730 358 721 398 703 C 438 685 471 661 498 629 C 525 597 546 559 560 514 C 574 469 581 420 581 366 C 581 314 574 266 560 222 C 546 177 526 138 498 106 C 470 73 436 47 394 28 C 352 9 304 0 250 0 L 63 0 Z M 193 108 L 254 108 C 322 108 372 131 402 178 C 432 224 448 286 448 364 C 448 450 431 514 398 557 C 365 599 320 621 262 621 L 193 621 L 193 108 Z" unicode="D" />
<glyph horiz-adv-x="468" d="M 445 0 L 63 0 L 63 730 L 426 730 L 426 617 L 190 617 L 190 419 L 413 419 L 413 308 L 190 308 L 190 113 L 445 113 L 445 0 Z" unicode="E" />
<glyph horiz-adv-x="420" d="M 404 617 L 194 617 L 194 419 L 391 419 L 391 308 L 194 308 L 194 0 L 64 0 L 64 730 L 404 730 L 404 617 Z" unicode="F" />
<glyph horiz-adv-x="614" d="M 324 376 L 582 376 L 582 128 C 561 88 529 56 485 30 C 441 4 388 -9 324 -9 C 284 -9 246 0 210 16 C 174 33 144 57 118 89 C 92 121 71 160 56 207 C 41 253 34 306 34 365 C 34 421 41 473 55 519 C 69 565 89 605 115 637 C 141 669 172 694 208 712 C 244 729 283 738 325 738 C 389 738 439 725 475 699 C 510 673 536 642 553 607 L 454 546 C 442 566 427 585 407 601 C 387 617 361 625 327 625 C 279 625 239 603 209 561 C 179 519 164 453 164 364 C 164 274 179 207 211 163 C 243 119 282 97 329 97 C 362 97 390 102 414 114 C 437 126 455 142 467 163 L 467 269 L 324 269 L 324 376 Z" unicode="G" />
<glyph horiz-adv-x="614" d="M 551 0 L 421 0 L 421 304 L 193 304 L 193 0 L 63 0 L 63 730 L 193 730 L 193 417 L 421 417 L 421 730 L 551 730 L 551 0 Z" unicode="H" />
<glyph horiz-adv-x="265" d="M 198 0 L 67 0 L 67 730 L 198 730 L 198 0 Z" unicode="I" />
<glyph horiz-adv-x="336" d="M 279 730 L 279 188 C 279 132 262 85 229 47 C 195 9 149 -9 91 -9 C 75 -9 59 -7 41 -5 C 23 -3 10 0 0 6 L 16 116 C 21 113 29 111 40 109 C 50 107 60 107 70 107 C 95 107 115 116 129 136 C 143 155 150 178 150 206 L 150 730 L 279 730 Z" unicode="J" />
<glyph horiz-adv-x="577" d="M 583 0 L 433 0 L 234 299 L 194 251 L 194 0 L 63 0 L 63 730 L 194 730 L 194 412 L 419 730 L 560 730 L 319 399 L 583 0 Z" unicode="K" />
<glyph horiz-adv-x="419" d="M 411 0 L 63 0 L 63 730 L 193 730 L 193 113 L 411 113 L 411 0 Z" unicode="L" />
<glyph horiz-adv-x="745" d="M 682 0 L 559 0 L 559 458 L 400 143 L 346 143 L 185 457 L 185 0 L 63 0 L 63 730 L 167 730 L 375 325 L 583 730 L 682 730 L 682 0 Z" unicode="M" />
<glyph horiz-adv-x="616" d="M 553 0 L 462 0 L 185 458 L 185 0 L 63 0 L 63 730 L 157 730 L 434 275 L 434 730 L 553 730 L 553 0 Z" unicode="N" />
<glyph horiz-adv-x="657" d="M 331 -9 C 236 -9 163 24 111 92 C 59 160 34 253 34 371 C 34 427 41 477 55 523 C 69 568 88 607 114 639 C 139 671 170 695 206 713 C 242 730 281 739 325 739 C 418 739 491 706 544 640 C 596 574 623 483 623 366 C 623 308 615 256 601 210 C 586 163 566 123 540 91 C 514 59 484 34 448 17 C 412 0 373 -9 331 -9 Z M 331 100 C 379 100 418 122 448 166 C 477 210 492 278 492 370 C 492 455 476 519 446 563 C 416 606 376 628 326 628 C 276 628 236 607 208 565 C 180 523 166 457 166 366 C 166 274 181 206 212 164 C 242 121 282 100 331 100 Z" unicode="O" />
<glyph horiz-adv-x="513" d="M 63 0 L 63 730 L 289 730 C 318 730 345 725 370 715 C 395 705 417 690 435 672 C 453 653 468 630 479 604 C 489 577 495 547 495 514 C 495 446 475 392 437 350 C 398 308 348 287 288 287 L 193 287 L 193 0 L 63 0 Z M 193 392 L 262 392 C 296 392 322 402 340 422 C 358 442 367 473 367 513 C 367 551 356 579 335 597 C 314 615 288 624 258 624 L 193 624 L 193 392 Z" unicode="P" />
<glyph horiz-adv-x="656" d="M 575 -54 L 575 -169 C 519 -163 469 -144 425 -113 C 380 -81 346 -45 323 -5 C 231 -3 160 31 110 97 C 59 163 34 254 34 371 C 34 426 41 476 55 522 C 69 568 89 606 115 638 C 140 670 171 694 207 712 C 243 730 282 739 326 739 C 417 739 489 706 543 641 C 596 575 623 483 623 365 C 623 278 606 204 573 144 C 540 84 496 41 441 17 C 457 -3 478 -19 503 -31 C 527 -43 551 -51 575 -54 Z M 330 98 C 379 98 418 120 448 165 C 477 210 492 278 492 369 C 492 460 476 526 444 568 C 412 609 372 630 326 630 C 276 630 236 609 208 568 C 180 526 166 459 166 366 C 166 274 181 207 211 163 C 241 119 281 98 330 98 Z" unicode="Q" />
<glyph horiz-adv-x="531" d="M 63 0 L 63 730 L 267 730 C 295 730 322 725 347 717 C 371 708 393 695 411 679 C 429 662 443 641 453 616 C 463 591 469 562 469 529 C 469 473 456 428 431 392 C 405 356 375 335 340 329 L 338 324 L 528 0 L 389 0 L 223 291 L 186 291 L 186 0 L 63 0 Z M 186 399 L 245 399 C 273 399 297 409 316 429 C 335 449 345 477 345 513 C 345 549 335 577 316 595 C 297 613 274 623 248 623 L 186 623 L 186 399 Z" unicode="R" />
<glyph horiz-adv-x="474" d="M 239 -9 C 192 -9 150 -2 114 11 C 78 25 45 48 17 81 L 91 165 C 106 143 127 126 153 113 C 179 100 205 94 232 94 C 258 94 280 102 299 118 C 318 134 328 157 328 186 C 328 214 319 238 301 257 C 283 276 252 298 208 324 C 157 350 116 381 86 415 C 55 449 40 496 40 556 C 40 583 45 608 56 631 C 66 653 81 673 99 689 C 117 705 138 717 163 726 C 187 734 214 739 243 739 C 287 739 324 732 355 718 C 385 704 410 688 429 670 L 362 582 C 347 595 330 606 310 616 C 290 625 269 630 247 630 C 223 630 202 623 186 609 C 169 595 161 575 161 551 C 161 526 169 505 185 488 C 201 471 235 449 285 423 C 343 392 384 359 410 324 C 435 289 448 244 448 190 C 448 157 442 128 430 103 C 418 78 403 57 384 41 C 364 24 342 11 317 3 C 291 -4 265 -9 239 -9 Z" unicode="S" />
<glyph horiz-adv-x="446" d="M 439 617 L 287 617 L 287 0 L 157 0 L 157 617 L 7 617 L 7 730 L 439 730 L 439 617 Z" unicode="T" />
<glyph horiz-adv-x="610" d="M 551 730 L 551 238 C 551 196 544 159 530 128 C 516 97 498 71 475 51 C 452 31 425 16 395 6 C 365 -4 333 -9 300 -9 C 267 -9 236 -4 207 5 C 178 15 153 30 131 50 C 109 70 91 95 78 126 C 65 157 59 194 59 238 L 59 730 L 187 730 L 187 234 C 187 190 198 157 220 136 C 242 115 269 105 302 105 C 334 105 362 115 385 135 C 408 155 420 188 420 234 L 420 730 L 551 730 Z" unicode="U" />
<glyph horiz-adv-x="537" d="M 538 730 L 312 -4 L 222 -4 L -1 730 L 128 730 L 271 231 L 413 730 L 538 730 Z" unicode="V" />
<glyph horiz-adv-x="779" d="M 765 730 L 590 -4 L 508 -4 L 385 483 L 257 -4 L 175 -4 L 2 730 L 127 730 L 231 249 L 347 730 L 433 730 L 548 248 L 652 730 L 765 730 Z" unicode="W" />
<glyph horiz-adv-x="520" d="M 381 0 L 256 250 L 130 0 L 5 0 L 194 375 L 17 730 L 150 730 L 261 507 L 373 730 L 498 730 L 323 382 L 513 0 L 381 0 Z" unicode="X" />
<glyph horiz-adv-x="539" d="M 544 730 L 332 309 L 332 0 L 202 0 L 202 312 L -5 730 L 135 730 L 273 437 L 417 730 L 544 730 Z" unicode="Y" />
<glyph horiz-adv-x="484" d="M 456 730 L 456 669 L 176 112 L 467 112 L 467 0 L 15 0 L 15 59 L 296 617 L 40 617 L 40 730 L 456 730 Z" unicode="Z" />
<glyph horiz-adv-x="276" d="M 254 -179 L 60 -179 L 60 730 L 254 730 L 254 631 L 174 631 L 174 -78 L 254 -78 L 254 -179 Z" unicode="[" />
<glyph horiz-adv-x="324" d="M -1 730 L 106 730 L 325 0 L 215 0 L -1 730 Z" unicode="\" />
<glyph horiz-adv-x="276" d="M 218 -179 L 25 -179 L 25 -81 L 103 -81 L 103 632 L 25 632 L 25 730 L 218 730 L 218 -179 Z" unicode="]" />
<glyph horiz-adv-x="461" d="M 428 369 L 325 369 L 229 605 L 136 369 L 34 369 L 179 730 L 281 730 L 428 369 Z" unicode="^" />
<glyph horiz-adv-x="450" d="M 450 -168 L 0 -168 L 0 -70 L 450 -70 L 450 -168 Z" unicode="_" />
<glyph horiz-adv-x="500" d="M 363 552 L 246 552 L 129 721 L 268 721 L 363 552 Z" unicode="`" />
<glyph horiz-adv-x="442" d="M 400 0 L 292 0 L 292 51 C 276 32 258 18 237 8 C 215 -2 189 -7 158 -7 C 115 -7 81 7 56 35 C 31 63 19 101 19 148 C 19 202 36 243 71 270 C 106 296 152 311 208 314 L 286 318 L 286 338 C 286 361 279 378 265 390 C 251 402 231 408 205 408 C 180 408 157 403 137 395 C 117 387 100 378 88 369 L 50 452 C 68 466 91 478 121 489 C 151 499 187 505 230 505 C 279 505 320 492 352 466 C 384 440 400 402 400 350 L 400 0 Z M 288 124 L 288 237 L 223 234 C 197 232 176 225 160 212 C 143 198 135 178 135 152 C 135 129 141 112 155 101 C 168 90 183 85 201 85 C 221 85 238 88 253 96 C 267 104 279 113 288 124 Z" unicode="a" />
<glyph horiz-adv-x="487" d="M 287 -5 C 253 -5 225 2 204 16 C 182 30 167 48 157 68 L 157 0 L 46 0 L 46 785 L 159 785 L 159 412 C 167 434 182 455 204 473 C 226 491 256 500 294 500 C 344 500 385 477 416 433 C 447 389 463 331 463 259 C 463 175 445 110 411 64 C 377 18 335 -5 287 -5 Z M 247 86 C 275 86 297 99 314 126 C 330 153 339 194 339 248 C 339 298 331 336 315 362 C 299 388 277 401 248 401 C 223 401 202 389 184 365 C 166 341 158 299 158 239 C 158 180 166 140 184 118 C 201 96 222 86 247 86 Z" unicode="b" />
<glyph horiz-adv-x="418" d="M 338 144 L 408 81 C 393 59 373 38 347 20 C 321 2 285 -7 238 -7 C 204 -7 174 0 148 12 C 121 24 98 42 80 64 C 62 86 48 112 38 144 C 28 175 23 209 23 246 C 23 281 28 314 38 345 C 48 376 62 403 81 426 C 99 449 122 467 149 481 C 176 494 207 501 241 501 C 286 501 322 491 350 472 C 377 452 397 431 410 408 L 330 346 C 321 361 310 374 296 384 C 282 394 265 400 244 400 C 215 400 192 386 174 359 C 156 332 148 296 148 250 C 148 196 158 156 178 130 C 198 104 223 91 253 91 C 275 91 293 96 306 108 C 319 120 330 132 338 144 Z" unicode="c" />
<glyph horiz-adv-x="493" d="M 208 -6 C 180 -6 155 0 133 12 C 110 24 91 41 75 63 C 59 85 46 111 37 142 C 28 172 24 206 24 242 C 24 280 28 315 38 347 C 48 379 61 406 78 428 C 94 450 114 468 137 480 C 160 492 185 499 212 499 C 241 499 266 491 288 476 C 310 461 325 443 334 423 L 334 785 L 447 785 L 447 0 L 339 0 L 339 65 C 332 49 318 33 296 17 C 274 1 244 -6 208 -6 Z M 243 86 C 271 86 294 99 311 127 C 327 155 336 196 336 250 C 336 305 326 344 308 367 C 290 390 267 402 241 402 C 212 402 189 389 173 363 C 157 337 149 298 149 246 C 149 194 157 154 173 127 C 189 99 213 86 243 86 Z" unicode="d" />
<glyph horiz-adv-x="460" d="M 239 -7 C 175 -7 124 15 84 59 C 44 103 24 165 24 244 C 24 283 29 318 40 350 C 50 382 65 409 84 431 C 102 453 125 471 151 483 C 177 495 204 501 234 501 C 300 501 350 476 386 427 C 422 378 440 307 440 214 L 142 214 C 142 176 152 145 171 123 C 190 100 217 89 251 89 C 279 89 303 94 321 105 C 339 116 355 129 367 143 L 425 77 C 408 56 385 37 356 19 C 326 1 287 -7 239 -7 Z M 142 296 L 324 296 C 323 330 315 358 300 378 C 284 398 263 408 237 408 C 210 408 188 398 171 378 C 154 358 144 330 142 296 Z" unicode="e" />
<glyph horiz-adv-x="272" d="M 267 393 L 190 393 L 190 0 L 71 0 L 71 393 L 10 393 L 10 494 L 71 494 L 71 634 C 71 658 75 680 83 699 C 91 718 102 734 116 747 C 130 760 145 770 163 777 C 180 784 198 788 216 788 C 230 788 245 786 261 782 C 277 778 289 774 299 768 L 272 674 C 269 675 264 676 258 678 C 251 680 243 681 235 681 C 220 681 208 675 200 664 C 192 653 188 636 188 614 L 188 494 L 267 494 L 267 393 Z" unicode="f" />
<glyph horiz-adv-x="491" d="M 209 7 C 155 7 111 28 76 72 C 41 115 24 174 24 249 C 24 288 28 323 38 355 C 48 386 61 412 78 434 C 94 455 114 471 137 483 C 159 494 184 500 210 500 C 240 500 267 492 289 477 C 311 462 327 445 337 425 L 337 494 L 446 494 L 446 27 C 446 -11 439 -45 427 -73 C 414 -101 397 -124 376 -142 C 355 -160 331 -173 305 -182 C 278 -190 251 -195 223 -195 C 179 -195 144 -190 117 -181 C 89 -172 69 -163 57 -154 L 95 -67 C 108 -74 124 -81 144 -87 C 164 -93 187 -97 214 -97 C 248 -97 277 -86 299 -66 C 321 -45 332 -15 332 25 L 332 85 C 324 65 309 47 288 31 C 266 15 240 7 209 7 Z M 243 97 C 269 97 291 109 309 134 C 326 159 335 199 335 254 C 335 305 326 343 308 367 C 290 391 267 404 241 404 C 213 404 190 390 174 364 C 157 338 149 300 149 250 C 149 200 157 162 173 136 C 189 110 212 97 243 97 Z" unicode="g" />
<glyph horiz-adv-x="477" d="M 434 0 L 315 0 L 315 333 C 315 355 308 371 296 383 C 283 395 266 401 246 401 C 225 401 206 394 190 381 C 174 368 166 347 166 318 L 166 0 L 46 0 L 46 785 L 158 785 L 158 427 C 165 447 180 465 202 480 C 224 494 254 502 290 502 C 332 502 366 490 393 468 C 420 446 434 412 434 366 L 434 0 Z" unicode="h" />
<glyph horiz-adv-x="217" d="M 47 572 L 47 685 L 170 685 L 170 572 L 47 572 Z M 49 0 L 49 494 L 169 494 L 169 0 L 49 0 Z" unicode="i" />
<glyph horiz-adv-x="223" d="M 180 572 L 57 572 L 57 685 L 180 685 L 180 572 Z M 178 494 L 178 -57 C 178 -95 165 -127 141 -153 C 117 -179 85 -192 45 -192 C 27 -192 10 -189 -8 -185 C -26 -180 -38 -175 -46 -171 L -22 -85 C -17 -87 -11 -88 -4 -90 C 2 -91 10 -92 19 -92 C 31 -92 40 -87 48 -78 C 55 -68 59 -56 59 -41 L 59 494 L 178 494 Z" unicode="j" />
<glyph horiz-adv-x="450" d="M 465 1 L 334 0 L 216 192 L 165 127 L 165 0 L 46 0 L 46 785 L 160 785 L 160 261 L 320 494 L 445 494 L 296 281 L 465 1 Z" unicode="k" />
<glyph horiz-adv-x="212" d="M 166 785 L 166 0 L 46 0 L 46 785 L 166 785 Z" unicode="l" />
<glyph horiz-adv-x="739" d="M 46 0 L 46 494 L 154 494 L 154 419 C 162 446 179 467 205 481 C 231 495 260 502 294 502 C 326 502 354 494 376 480 C 398 465 411 444 417 418 L 421 418 C 429 444 446 464 470 479 C 494 494 523 502 558 502 C 598 502 630 491 656 469 C 682 447 695 414 695 370 L 695 0 L 577 0 L 577 326 C 577 353 570 372 557 384 C 544 396 527 402 507 402 C 487 402 469 395 453 382 C 437 368 429 345 429 313 L 429 0 L 312 0 L 312 329 C 312 355 305 374 293 385 C 280 396 264 402 244 402 C 224 402 205 395 189 381 C 172 367 164 344 164 313 L 164 0 L 46 0 Z" unicode="m" />
<glyph horiz-adv-x="477" d="M 434 0 L 315 0 L 315 336 C 315 356 308 372 296 384 C 284 396 267 402 247 402 C 225 402 206 395 190 382 C 174 369 166 347 166 317 L 166 0 L 46 0 L 46 494 L 155 494 L 155 421 C 163 444 179 463 203 479 C 227 494 256 502 292 502 C 334 502 368 491 394 469 C 420 447 434 414 434 371 L 434 0 Z" unicode="n" />
<glyph horiz-adv-x="481" d="M 239 -7 C 209 -7 181 -1 155 9 C 129 20 106 36 86 57 C 66 78 51 104 40 136 C 28 168 23 204 23 246 C 23 284 28 318 39 350 C 50 381 65 408 84 430 C 102 452 125 470 151 482 C 177 494 205 501 235 501 C 267 501 296 495 324 484 C 351 473 374 457 394 437 C 414 416 429 391 441 361 C 452 331 458 297 458 259 C 458 178 437 113 396 65 C 355 17 303 -7 239 -7 Z M 241 89 C 269 89 292 102 308 128 C 324 154 333 195 333 251 C 333 305 324 343 308 367 C 291 391 267 403 237 403 C 209 403 188 390 172 366 C 156 342 148 302 148 248 C 148 189 156 148 174 124 C 191 100 213 89 241 89 Z" unicode="o" />
<glyph horiz-adv-x="487" d="M 46 -199 L 46 494 L 154 494 L 154 407 C 160 431 176 452 201 472 C 225 491 256 501 292 501 C 345 501 387 479 417 435 C 447 391 463 334 463 263 C 463 178 446 112 412 66 C 378 19 335 -4 284 -4 C 254 -4 229 2 207 14 C 185 26 169 40 161 57 L 161 -199 L 46 -199 Z M 247 86 C 274 86 296 98 313 124 C 330 149 339 189 339 243 C 339 293 331 332 316 360 C 301 388 278 402 248 402 C 222 402 201 390 183 367 C 165 344 157 301 157 238 C 157 178 165 137 182 117 C 199 96 221 86 247 86 Z" unicode="p" />
<glyph horiz-adv-x="493" d="M 333 -199 L 333 71 C 323 50 307 32 285 17 C 263 2 235 -5 203 -5 C 149 -5 106 17 73 63 C 40 108 24 167 24 241 C 24 282 28 319 38 351 C 48 383 61 411 78 433 C 94 455 114 471 137 483 C 160 495 184 501 210 501 C 243 501 271 492 293 475 C 315 458 331 439 340 418 L 340 494 L 447 494 L 447 -199 L 333 -199 Z M 242 87 C 269 87 291 99 309 125 C 326 150 335 191 335 248 C 335 302 326 341 308 366 C 290 390 268 403 240 403 C 211 403 189 390 173 364 C 157 338 149 298 149 244 C 149 196 157 158 173 130 C 189 101 212 87 242 87 Z" unicode="q" />
<glyph horiz-adv-x="358" d="M 363 471 L 320 370 C 308 380 297 386 286 390 C 275 393 263 395 251 395 C 232 395 213 387 194 371 C 175 355 166 329 166 291 L 166 0 L 46 0 L 46 494 L 159 494 L 159 415 C 165 435 179 455 200 473 C 220 491 246 501 276 501 C 295 501 312 498 327 492 C 342 486 354 479 363 471 Z" unicode="r" />
<glyph horiz-adv-x="370" d="M 195 -8 C 156 -8 121 -1 91 11 C 60 23 35 40 17 60 L 72 137 C 86 121 104 109 125 100 C 146 91 166 87 185 87 C 201 87 214 91 226 100 C 237 108 243 121 243 137 C 243 152 235 165 220 176 C 204 187 182 199 152 213 C 116 227 87 246 66 270 C 44 294 34 326 34 367 C 34 405 48 437 77 463 C 106 489 143 502 187 502 C 221 502 252 497 278 487 C 304 477 324 466 339 454 L 291 370 C 279 378 264 386 247 394 C 230 402 213 406 196 406 C 180 406 167 402 155 396 C 143 389 138 379 138 367 C 138 353 144 342 157 333 C 169 324 192 312 226 297 C 266 277 297 256 318 233 C 338 210 349 178 349 137 C 349 113 344 92 335 74 C 326 56 314 40 300 28 C 286 16 269 7 251 1 C 232 -5 213 -8 195 -8 Z" unicode="s" />
<glyph horiz-adv-x="278" d="M 255 108 L 275 17 C 267 11 257 6 243 2 C 229 -2 213 -5 193 -5 C 177 -5 162 -2 146 2 C 130 7 115 15 102 27 C 88 38 77 53 69 71 C 61 89 57 110 57 136 L 57 393 L 7 393 L 7 494 L 60 494 L 60 624 L 174 636 L 174 494 L 256 494 L 256 393 L 176 393 L 176 145 C 176 129 179 118 187 110 C 195 102 205 99 218 99 C 225 99 232 100 239 102 C 246 104 251 106 255 108 Z" unicode="t" />
<glyph horiz-adv-x="478" d="M 44 494 L 163 494 L 163 163 C 163 136 169 117 182 105 C 195 93 213 87 235 87 C 256 87 274 94 289 108 C 304 122 312 146 312 179 L 312 494 L 431 494 L 431 0 L 320 0 L 320 68 C 310 46 294 28 270 14 C 246 0 217 -8 185 -8 C 147 -8 114 3 86 27 C 58 50 44 85 44 133 L 44 494 Z" unicode="u" />
<glyph horiz-adv-x="417" d="M 423 494 L 252 -2 L 164 -2 L -6 494 L 119 494 L 214 194 L 309 494 L 423 494 Z" unicode="v" />
<glyph horiz-adv-x="621" d="M 396 -2 L 312 264 L 225 -2 L 140 -2 L 0 494 L 116 494 L 198 177 L 277 436 L 356 436 L 432 178 L 516 494 L 621 494 L 479 -2 L 396 -2 Z" unicode="w" />
<glyph horiz-adv-x="403" d="M 277 0 L 196 147 L 113 0 L 1 0 L 141 248 L 6 494 L 130 494 L 204 360 L 280 494 L 394 494 L 260 258 L 402 0 L 277 0 Z" unicode="x" />
<glyph horiz-adv-x="421" d="M 426 494 L 220 -91 C 205 -129 184 -157 156 -174 C 128 -191 99 -200 68 -200 C 48 -200 31 -197 17 -193 C 3 -189 -7 -185 -14 -181 L 23 -89 C 25 -91 31 -93 40 -96 C 49 -98 58 -100 67 -100 C 80 -100 92 -95 102 -86 C 112 -76 120 -62 127 -42 L 155 43 L -5 494 L 120 494 L 216 194 L 311 494 L 426 494 Z" unicode="y" />
<glyph horiz-adv-x="376" d="M 358 494 L 358 441 L 169 101 L 366 101 L 366 0 L 11 0 L 11 43 L 209 393 L 23 393 L 23 494 L 358 494 Z" unicode="z" />
<glyph horiz-adv-x="280" d="M 261 -179 C 229 -179 199 -174 172 -166 C 144 -158 121 -146 102 -132 C 82 -118 67 -101 56 -83 C 44 -64 39 -44 39 -24 C 39 0 41 23 47 44 C 52 65 58 83 65 99 C 71 115 78 129 84 143 C 90 157 93 170 93 183 C 93 197 85 210 70 223 C 55 235 37 242 15 242 L 15 329 C 37 329 56 335 72 349 C 88 363 96 378 96 395 C 96 398 92 407 86 423 C 80 439 72 456 64 475 C 56 493 50 510 46 528 C 42 546 40 563 40 580 C 40 600 45 621 56 641 C 67 661 82 679 102 695 C 121 711 144 724 172 734 C 199 744 229 749 261 749 L 261 660 C 234 660 210 651 190 633 C 169 615 159 593 159 567 C 159 558 160 547 162 534 C 164 521 168 508 174 496 C 182 476 190 457 198 441 C 206 425 210 411 210 400 C 210 374 202 351 187 330 C 172 308 149 293 118 285 C 150 276 173 261 188 239 C 202 217 210 196 210 174 C 210 156 206 140 199 127 C 192 113 185 100 179 87 C 172 73 167 59 163 44 C 159 29 158 15 158 3 C 158 -17 167 -38 187 -59 C 207 -79 231 -90 261 -90 L 261 -179 Z" unicode="{" />
<glyph horiz-adv-x="244" d="M 179 -179 L 65 -179 L 65 730 L 179 730 L 179 -179 Z" unicode="|" />
<glyph horiz-adv-x="280" d="M 18 -179 L 18 -90 C 47 -90 72 -79 92 -59 C 112 -38 122 -17 122 3 C 122 15 120 29 116 44 C 112 59 107 73 101 87 C 94 100 87 113 80 127 C 73 140 70 156 70 174 C 70 196 77 217 91 239 C 105 261 128 276 160 285 C 129 293 106 308 92 330 C 77 351 70 374 70 400 C 70 411 73 425 81 441 C 88 457 96 476 106 496 C 112 508 116 521 118 534 C 120 547 121 558 121 567 C 121 593 110 615 89 633 C 68 651 44 660 18 660 L 18 749 C 50 749 80 744 107 734 C 134 724 157 711 177 695 C 197 679 212 661 223 641 C 234 621 240 600 240 580 C 240 563 238 546 234 528 C 230 510 223 493 215 475 C 207 456 199 439 193 423 C 187 407 184 398 184 395 C 184 378 191 363 207 349 C 223 335 242 329 265 329 L 265 242 C 242 242 223 235 208 223 C 193 210 186 197 186 183 C 186 170 189 157 195 143 C 201 129 208 115 215 99 C 221 83 227 65 233 44 C 238 23 241 0 241 -24 C 241 -44 235 -64 224 -83 C 212 -101 197 -118 177 -132 C 157 -146 134 -158 107 -166 C 79 -174 50 -179 18 -179 Z" unicode="}" />
<glyph horiz-adv-x="472" d="M 354 450 L 448 450 C 446 398 437 355 420 323 C 402 291 375 275 338 275 C 314 275 293 279 275 287 C 257 295 243 305 231 316 C 219 326 207 335 197 343 C 186 351 174 355 162 355 C 150 355 139 347 130 333 C 121 318 117 300 117 278 L 25 278 C 25 333 34 376 53 407 C 71 437 98 453 133 453 C 157 453 179 448 199 438 C 218 428 234 417 248 407 C 260 397 271 389 281 382 C 291 374 302 371 315 371 C 331 371 342 378 347 392 C 351 406 354 425 354 450 Z" unicode="~" />
<glyph horiz-adv-x="279" d="M 78 589 L 202 589 L 202 460 L 78 460 L 78 589 Z M 72 169 L 113 376 L 169 376 L 208 169 L 208 -122 L 72 -122 L 72 169 Z" unicode="¡" />
<glyph horiz-adv-x="443" d="M 434 149 C 420 131 401 113 377 97 C 353 80 322 70 282 66 L 282 -46 L 206 -46 L 206 68 C 150 76 106 102 74 145 C 42 188 27 241 27 303 C 27 363 42 415 74 460 C 105 504 149 532 206 543 L 206 650 L 282 650 L 282 546 C 320 542 350 531 374 515 C 398 499 416 481 429 463 L 361 391 C 349 405 336 416 320 426 C 304 435 283 440 259 440 C 225 440 198 427 179 403 C 159 378 150 346 150 306 C 150 259 161 224 184 201 C 206 177 235 166 269 166 C 295 166 317 171 333 182 C 349 192 363 204 373 217 L 434 149 Z" unicode="¢" />
<glyph horiz-adv-x="520" d="M 504 99 L 504 0 L 17 0 L 17 80 C 22 83 30 86 42 89 C 54 92 70 96 91 100 C 118 104 141 116 160 134 C 178 152 188 175 188 205 L 35 205 L 35 289 L 157 289 C 152 297 147 306 141 315 C 135 324 130 333 126 343 L 35 343 L 35 426 L 87 426 C 80 444 75 463 71 483 C 67 503 65 524 65 546 C 65 582 71 612 84 638 C 96 663 113 683 134 699 C 154 714 178 725 206 732 C 233 738 261 742 291 742 C 312 742 333 739 355 735 C 376 730 396 724 415 717 C 433 709 450 701 465 692 C 479 683 491 675 499 667 L 442 574 C 429 585 410 597 384 611 C 358 625 330 632 301 632 C 275 632 250 623 227 607 C 204 591 193 563 193 523 C 193 506 195 490 200 474 C 205 458 211 442 218 426 L 448 426 L 448 343 L 261 343 C 265 334 270 325 274 316 C 278 306 282 297 285 289 L 448 289 L 448 205 L 294 205 C 289 173 279 149 263 133 C 247 117 231 105 217 99 L 504 99 Z" unicode="£" />
<glyph horiz-adv-x="502" d="M 448 193 L 398 143 L 340 203 C 327 195 313 190 298 186 C 282 182 266 180 250 180 C 234 180 218 182 203 186 C 187 190 173 195 161 203 L 103 143 L 51 195 L 105 251 C 94 265 85 281 79 299 C 73 316 70 334 70 354 C 70 373 73 391 79 409 C 85 427 94 443 106 458 L 52 515 L 102 565 L 160 504 C 172 511 186 517 202 521 C 217 525 233 528 250 528 C 266 528 282 525 298 521 C 314 517 328 511 341 504 L 401 566 L 451 514 L 395 456 C 405 442 414 426 420 408 C 426 390 429 372 429 354 C 429 334 425 316 419 298 C 413 280 404 264 394 250 L 448 193 Z M 250 264 C 275 264 297 273 317 291 C 336 309 346 330 346 354 C 346 378 336 399 317 417 C 297 435 275 444 250 444 C 223 444 200 435 182 417 C 164 399 155 378 155 354 C 155 330 164 309 182 291 C 200 273 223 264 250 264 Z" unicode="¤" />
<glyph horiz-adv-x="543" d="M 489 116 L 334 116 L 334 0 L 204 0 L 204 116 L 52 116 L 52 200 L 204 200 L 204 247 L 52 247 L 52 331 L 199 331 L 8 730 L 143 730 L 273 439 L 407 730 L 533 730 L 341 331 L 489 331 L 489 247 L 334 247 L 334 200 L 489 200 L 489 116 Z" unicode="¥" />
<glyph horiz-adv-x="280" d="M 88 351 L 88 730 L 191 730 L 191 351 L 88 351 Z M 191 200 L 191 -179 L 88 -179 L 88 200 L 191 200 Z" unicode="¦" />
<glyph horiz-adv-x="595" d="M 316 -181 C 263 -181 214 -174 168 -161 C 122 -147 82 -130 50 -108 L 94 -9 C 124 -29 159 -47 197 -61 C 235 -75 270 -83 302 -83 C 330 -83 352 -75 369 -61 C 385 -47 394 -27 394 -2 C 394 21 386 39 372 51 C 357 63 335 76 305 90 L 216 132 C 185 145 158 157 136 169 C 113 180 94 192 80 206 C 65 219 54 234 47 252 C 39 270 36 292 36 318 C 36 348 43 374 57 395 C 71 415 88 433 109 447 C 91 459 78 476 70 496 C 62 516 58 541 58 570 C 58 597 64 621 76 643 C 88 664 104 682 125 697 C 146 711 171 722 200 730 C 228 738 259 742 293 742 C 351 742 398 733 435 717 C 471 700 501 683 524 665 L 468 574 C 441 593 414 610 387 625 C 359 640 327 648 290 648 C 258 648 232 641 212 627 C 192 613 183 594 183 570 C 183 551 190 535 205 523 C 220 511 243 498 274 486 L 389 434 C 443 412 484 389 512 364 C 540 338 555 303 555 257 C 555 224 544 197 523 175 C 501 153 477 139 449 133 C 465 123 482 106 499 84 C 516 61 525 33 525 -1 C 525 -29 519 -54 509 -76 C 498 -98 483 -117 465 -133 C 446 -148 424 -160 398 -168 C 372 -176 345 -181 316 -181 Z M 360 188 C 376 190 391 196 405 206 C 419 215 426 230 426 251 C 426 270 417 287 401 301 C 384 315 355 330 313 347 L 208 396 C 193 389 181 381 171 371 C 161 361 157 346 157 328 C 157 306 165 288 183 275 C 200 261 230 246 273 229 L 360 188 Z" unicode="§" />
<glyph horiz-adv-x="500" d="M 385 553 L 287 553 L 287 713 L 385 713 L 385 553 Z M 213 553 L 115 553 L 115 713 L 213 713 L 213 553 Z" unicode="¨" />
<glyph horiz-adv-x="828" d="M 414 6 C 363 6 315 15 271 35 C 226 54 187 80 154 114 C 120 147 94 186 75 231 C 55 275 46 323 46 374 C 46 424 55 472 75 517 C 94 561 120 600 154 634 C 187 667 226 693 271 713 C 315 732 363 742 414 742 C 464 742 512 732 557 713 C 601 693 640 667 674 634 C 707 600 733 561 753 517 C 772 472 782 424 782 374 C 782 323 772 275 753 231 C 733 186 707 147 674 114 C 640 80 601 54 557 35 C 512 15 464 6 414 6 Z M 414 77 C 454 77 492 84 528 100 C 564 116 595 137 622 164 C 648 190 669 222 685 258 C 701 294 709 332 709 373 C 709 413 701 452 685 488 C 669 524 648 555 622 582 C 595 609 564 630 528 646 C 492 662 454 670 414 670 C 373 670 335 662 299 646 C 263 630 231 609 205 582 C 179 555 158 524 142 488 C 126 452 119 413 119 373 C 119 332 126 294 142 258 C 158 222 179 190 205 164 C 231 137 263 116 299 100 C 335 84 373 77 414 77 Z M 585 248 C 569 223 546 202 518 185 C 490 167 454 159 412 159 C 386 159 361 163 337 173 C 313 182 291 195 273 213 C 255 231 240 253 229 280 C 218 307 213 338 213 373 C 213 408 218 439 228 467 C 238 495 252 518 270 537 C 288 556 308 571 332 581 C 356 591 381 596 409 596 C 453 596 489 588 517 572 C 545 556 566 536 582 512 L 503 455 C 494 468 482 479 468 489 C 454 498 435 503 413 503 C 384 503 360 490 341 465 C 322 440 313 409 313 371 C 313 331 323 300 344 279 C 364 257 388 247 414 247 C 435 247 454 251 470 261 C 486 271 499 284 509 300 L 585 248 Z" unicode="©" />
<glyph horiz-adv-x="447" d="M 403 320 L 307 320 L 307 373 C 293 353 274 339 250 329 C 226 319 199 314 170 314 C 128 314 95 325 71 349 C 47 372 35 404 35 445 C 35 489 52 522 86 545 C 120 567 168 580 229 583 L 303 588 L 303 596 C 303 614 296 628 283 637 C 270 646 250 651 224 651 C 201 651 179 647 157 640 C 135 632 115 622 97 610 L 57 683 C 77 699 104 713 136 725 C 168 736 203 742 243 742 C 293 742 332 730 360 707 C 388 683 403 646 403 594 L 403 320 Z M 304 442 L 304 511 L 223 508 C 197 507 177 502 161 493 C 145 483 137 468 137 448 C 137 432 143 420 155 411 C 167 402 184 398 205 398 C 225 398 243 401 261 409 C 279 417 293 428 304 442 Z M 408 189 L 42 189 L 42 279 L 408 279 L 408 189 Z" unicode="ª" />
<glyph horiz-adv-x="467" d="M 221 81 L 26 255 L 26 327 L 221 498 L 221 379 L 130 288 L 221 204 L 221 81 Z M 438 81 L 242 255 L 242 327 L 438 498 L 438 379 L 347 288 L 438 204 L 438 81 Z" unicode="«" />
<glyph horiz-adv-x="487" d="M 445 403 L 445 139 L 346 139 L 346 302 L 29 302 L 29 403 L 445 403 Z" unicode="¬" />
<glyph horiz-adv-x="828" d="M 414 6 C 363 6 315 15 271 35 C 226 54 187 80 154 114 C 120 147 94 186 75 231 C 55 275 46 323 46 374 C 46 424 55 472 75 517 C 94 561 120 600 154 634 C 187 667 226 693 271 713 C 315 732 363 742 414 742 C 464 742 512 732 557 713 C 601 693 640 667 674 634 C 707 600 733 561 753 517 C 772 472 782 424 782 374 C 782 323 772 275 753 231 C 733 186 707 147 674 114 C 640 80 601 54 557 35 C 512 15 464 6 414 6 Z M 414 77 C 454 77 493 84 529 99 C 565 114 596 135 622 161 C 648 187 669 219 685 255 C 701 291 709 331 709 373 C 709 415 701 454 685 491 C 669 527 648 559 622 585 C 596 611 565 632 529 647 C 493 662 454 670 414 670 C 373 670 335 662 299 647 C 263 631 231 610 205 584 C 179 557 158 525 142 489 C 126 453 119 414 119 373 C 119 331 126 292 142 256 C 158 220 179 188 205 162 C 231 136 263 115 299 100 C 335 84 373 77 414 77 Z M 271 167 L 271 597 L 435 597 C 453 597 470 594 488 590 C 505 585 520 578 534 568 C 548 558 559 545 567 530 C 575 514 580 496 580 476 C 580 438 570 410 550 391 C 530 372 510 361 488 358 L 487 354 L 618 167 L 516 167 L 408 329 L 360 329 L 360 167 L 271 167 Z M 360 403 L 434 403 C 448 403 462 408 474 418 C 486 428 493 444 493 465 C 493 485 486 500 473 508 C 459 516 443 521 425 521 L 360 521 L 360 403 Z" unicode="®" />
<glyph horiz-adv-x="500" d="M 382 566 L 118 566 L 118 659 L 382 659 L 382 566 Z" unicode="¯" />
<glyph horiz-adv-x="425" d="M 212 377 C 186 377 163 381 141 391 C 119 401 99 414 83 430 C 67 446 54 466 44 488 C 34 510 30 534 30 560 C 30 585 34 609 44 631 C 54 653 67 672 83 688 C 99 704 119 717 141 727 C 163 737 186 742 212 742 C 237 742 261 737 283 727 C 305 717 325 704 341 688 C 357 672 370 653 380 631 C 390 609 395 585 395 560 C 395 534 390 510 380 488 C 370 466 357 446 341 430 C 325 414 305 401 283 391 C 261 381 237 377 212 377 Z M 212 465 C 238 465 260 474 280 493 C 299 511 309 534 309 560 C 309 586 299 608 280 627 C 260 645 238 655 212 655 C 186 655 163 645 144 627 C 125 608 116 586 116 560 C 116 534 125 511 144 493 C 163 474 186 465 212 465 Z" unicode="°" />
<glyph horiz-adv-x="487" d="M 462 109 L 462 19 L 27 19 L 27 109 L 195 109 L 195 284 L 22 284 L 22 376 L 195 376 L 195 554 L 294 554 L 294 376 L 465 376 L 465 284 L 294 284 L 294 109 L 462 109 Z" unicode="±" />
<glyph horiz-adv-x="345" d="M 315 372 L 23 372 L 23 406 L 178 566 C 184 572 189 579 194 587 C 198 595 201 605 201 617 C 201 627 197 637 190 646 C 183 654 172 659 157 659 C 139 659 126 653 120 642 C 113 631 109 618 109 604 L 18 604 C 18 642 31 675 58 701 C 85 727 122 741 168 741 C 213 741 247 731 270 711 C 293 691 305 666 305 638 C 305 611 300 589 291 572 C 281 554 271 540 260 529 L 186 453 L 315 453 L 315 372 Z" unicode="²" />
<glyph horiz-adv-x="346" d="M 230 569 C 256 564 276 553 292 537 C 307 520 315 500 315 477 C 315 465 312 452 308 439 C 303 426 295 414 283 403 C 271 391 256 382 236 375 C 216 367 191 364 161 364 C 117 364 84 369 60 379 C 36 389 18 400 6 410 L 57 464 C 67 457 80 451 95 445 C 110 439 129 437 151 437 C 178 437 197 442 208 452 C 219 462 225 474 225 490 C 225 506 217 516 203 521 C 189 525 172 528 152 528 L 81 528 L 81 598 L 146 598 C 164 598 178 600 190 606 C 201 612 207 621 207 633 C 207 643 202 651 193 657 C 183 663 170 666 152 666 C 135 666 119 662 103 656 C 87 650 75 643 67 635 L 18 687 C 30 699 48 712 70 724 C 92 736 125 742 167 742 C 207 742 239 733 263 717 C 287 701 300 678 300 650 C 300 629 292 611 278 597 C 264 583 248 573 230 569 Z" unicode="³" />
<glyph horiz-adv-x="500" d="M 138 553 L 232 723 L 371 723 L 254 553 L 138 553 Z" unicode="´" />
<glyph horiz-adv-x="586" d="M 63 -112 L 63 504 L 182 504 L 182 171 C 182 146 192 126 212 111 C 232 95 257 88 285 88 C 314 88 340 96 364 114 C 388 132 400 157 400 189 L 400 504 L 519 504 L 519 0 L 410 0 L 410 86 C 399 62 379 41 351 23 C 323 5 293 -4 262 -5 C 243 -5 225 -2 208 5 C 191 13 179 23 173 37 L 173 -112 L 63 -112 Z" unicode="µ" />
<glyph horiz-adv-x="619" d="M 569 -180 L 490 -179 L 490 635 L 411 635 L 411 -179 L 332 -179 L 332 273 L 248 273 C 218 273 190 279 163 291 C 135 303 111 319 91 340 C 70 360 53 384 41 412 C 28 439 22 468 22 498 C 22 530 27 561 39 590 C 51 618 67 643 89 663 C 110 683 136 700 166 712 C 196 724 230 730 267 730 L 569 730 L 569 -180 Z M 333 372 L 333 631 L 297 631 C 257 631 225 618 202 594 C 178 569 167 538 167 501 C 167 466 178 436 202 410 C 225 384 254 372 289 372 L 333 372 Z" unicode="¶" />
<glyph horiz-adv-x="274" d="M 198 263 L 77 263 L 77 410 L 198 410 L 198 263 Z" unicode="·" />
<glyph horiz-adv-x="500" d="M 254 -185 C 231 -185 208 -182 186 -176 C 163 -170 145 -162 132 -153 L 152 -105 C 159 -109 169 -114 183 -120 C 197 -126 211 -129 227 -129 C 237 -129 247 -126 255 -121 C 263 -115 268 -108 268 -100 C 268 -90 264 -82 257 -78 C 249 -74 241 -72 233 -72 C 226 -72 220 -72 215 -73 C 210 -74 205 -76 201 -78 L 185 -59 L 244 14 L 308 14 L 263 -43 C 292 -39 316 -43 336 -55 C 355 -67 365 -84 365 -108 C 365 -132 354 -151 332 -165 C 310 -178 284 -185 254 -185 Z" unicode="¸" />
<glyph horiz-adv-x="319" d="M 132 372 L 132 622 C 128 616 122 611 115 607 C 107 602 99 598 91 595 C 82 591 73 588 65 586 C 56 584 49 582 44 582 L 44 678 C 68 680 90 686 109 696 C 127 706 147 720 168 740 L 236 740 L 236 372 L 132 372 Z" unicode="¹" />
<glyph horiz-adv-x="438" d="M 216 312 C 191 312 167 316 144 326 C 121 335 101 349 83 367 C 65 385 51 407 41 433 C 30 459 25 490 25 524 C 25 554 30 582 40 608 C 50 634 64 657 82 677 C 100 696 120 711 144 723 C 167 734 191 740 217 740 C 244 740 270 735 294 725 C 318 715 338 702 356 684 C 374 666 388 645 398 619 C 408 593 414 565 414 534 C 414 501 408 471 398 444 C 387 416 373 393 355 374 C 337 354 316 339 292 328 C 268 317 242 312 216 312 Z M 217 401 C 247 401 270 413 288 437 C 305 461 314 492 314 531 C 314 567 306 595 290 617 C 274 639 250 650 220 650 C 190 650 167 638 150 614 C 133 590 125 559 125 519 C 125 483 133 454 150 433 C 166 411 189 401 217 401 Z M 39 189 L 39 278 L 399 278 L 399 189 L 39 189 Z" unicode="º" />
<glyph horiz-adv-x="468" d="M 29 499 L 225 325 L 225 253 L 29 82 L 29 200 L 120 291 L 29 375 L 29 499 Z M 246 499 L 441 325 L 441 253 L 246 82 L 246 200 L 338 291 L 246 376 L 246 499 Z" unicode="»" />
<glyph horiz-adv-x="704" d="M 11 0 L 11 0 Z M 99 372 L 99 622 C 95 616 89 611 82 607 C 74 602 66 598 58 595 C 49 591 40 588 32 586 C 23 584 16 582 11 582 L 11 678 C 35 680 57 686 76 696 C 94 706 114 720 135 740 L 203 740 L 203 372 L 99 372 Z M 584 730 L 230 0 L 132 0 L 486 730 L 584 730 Z M 390 80 L 390 147 L 572 364 L 637 364 L 637 151 L 694 151 L 694 80 L 637 80 L 637 1 L 545 1 L 545 80 L 390 80 Z M 475 144 L 547 144 L 547 234 L 475 144 Z" unicode="¼" />
<glyph horiz-adv-x="775" d="M 11 0 L 11 0 Z M 99 372 L 99 622 C 95 616 89 611 82 607 C 74 602 66 598 58 595 C 49 591 40 588 32 586 C 23 584 16 582 11 582 L 11 678 C 35 680 57 686 76 696 C 94 706 114 720 135 740 L 203 740 L 203 372 L 99 372 Z M 584 730 L 230 0 L 132 0 L 486 730 L 584 730 Z M 752 0 L 460 0 L 460 34 L 615 194 C 621 200 626 207 631 215 C 635 223 638 233 638 245 C 638 255 634 265 627 274 C 620 282 609 287 594 287 C 576 287 563 281 557 270 C 550 259 546 246 546 232 L 455 232 C 455 270 468 303 495 329 C 522 355 559 369 605 369 C 650 369 684 359 707 339 C 730 319 742 294 742 266 C 742 239 737 217 728 200 C 718 182 708 168 697 157 L 623 81 L 752 81 L 752 0 Z" unicode="½" />
<glyph horiz-adv-x="760" d="M 10 0 L 10 0 Z M 640 730 L 286 0 L 188 0 L 542 730 L 640 730 Z M 446 80 L 446 147 L 628 364 L 693 364 L 693 151 L 750 151 L 750 80 L 693 80 L 693 1 L 601 1 L 601 80 L 446 80 Z M 531 144 L 603 144 L 603 234 L 531 144 Z M 234 569 C 260 564 280 553 296 537 C 311 520 319 500 319 477 C 319 465 316 452 312 439 C 307 426 299 414 287 403 C 275 391 260 382 240 375 C 220 367 195 364 165 364 C 121 364 88 369 64 379 C 40 389 22 400 10 410 L 61 464 C 71 457 84 451 99 445 C 114 439 133 437 155 437 C 182 437 201 442 212 452 C 223 462 229 474 229 490 C 229 506 221 516 207 521 C 193 525 176 528 156 528 L 85 528 L 85 598 L 150 598 C 168 598 182 600 194 606 C 205 612 211 621 211 633 C 211 643 206 651 197 657 C 187 663 174 666 156 666 C 139 666 123 662 107 656 C 91 650 79 643 71 635 L 22 687 C 34 699 52 712 74 724 C 96 736 129 742 171 742 C 211 742 243 733 267 717 C 291 701 304 678 304 650 C 304 629 296 611 282 597 C 268 583 252 573 234 569 Z" unicode="¾" />
<glyph horiz-adv-x="450" d="M 173 458 L 173 589 L 305 589 L 305 458 L 173 458 Z M 225 -150 C 161 -150 111 -133 75 -100 C 39 -67 21 -24 21 30 C 21 55 24 78 31 99 C 37 119 46 138 57 155 C 67 172 79 188 92 202 C 105 216 118 230 131 244 C 151 261 164 281 171 305 C 178 328 182 351 183 373 L 301 373 C 301 333 295 299 284 272 C 272 244 254 218 228 192 C 208 171 189 150 173 128 C 156 106 148 79 148 49 C 148 20 157 -2 176 -18 C 195 -34 218 -43 246 -43 C 271 -43 293 -36 313 -23 C 333 -10 349 5 362 24 L 437 -48 C 413 -80 383 -105 346 -123 C 309 -141 269 -150 225 -150 Z" unicode="¿" />
<glyph horiz-adv-x="551" d="M 0 0 L 0 0 Z M 553 0 L 425 0 L 376 156 L 168 156 L 122 0 L -1 0 L 234 733 L 321 733 L 553 0 Z M 353 256 L 272 517 L 191 256 L 353 256 Z M 274 788 L 274 788 Z M 391 788 L 274 788 L 157 957 L 296 957 L 391 788 Z" unicode="À" />
<glyph horiz-adv-x="551" d="M 0 0 L 0 0 Z M 553 0 L 425 0 L 376 156 L 168 156 L 122 0 L -1 0 L 234 733 L 321 733 L 553 0 Z M 353 256 L 272 517 L 191 256 L 353 256 Z M 274 789 L 274 789 Z M 158 789 L 252 959 L 391 959 L 274 789 L 158 789 Z" unicode="Á" />
<glyph horiz-adv-x="551" d="M 0 0 L 0 0 Z M 553 0 L 425 0 L 376 156 L 168 156 L 122 0 L -1 0 L 234 733 L 321 733 L 553 0 Z M 353 256 L 272 517 L 191 256 L 353 256 Z M 274 789 L 274 789 Z M 435 789 L 333 789 L 274 882 L 214 789 L 114 789 L 220 962 L 328 962 L 435 789 Z" unicode="Â" />
<glyph horiz-adv-x="551" d="M 0 0 L 0 0 Z M 553 0 L 425 0 L 376 156 L 168 156 L 122 0 L -1 0 L 234 733 L 321 733 L 553 0 Z M 353 256 L 272 517 L 191 256 L 353 256 Z M 274 793 L 274 793 Z M 353 940 L 443 940 C 443 890 435 853 420 829 C 405 805 386 793 362 793 C 343 793 327 796 313 802 C 299 808 287 815 279 821 C 270 826 261 831 253 837 C 244 843 235 846 227 846 C 218 846 211 841 205 832 C 199 823 197 811 197 796 L 108 796 C 108 845 117 882 136 906 C 155 930 176 943 198 943 C 215 943 230 939 242 933 C 254 927 265 920 276 913 C 284 907 292 902 300 898 C 307 893 314 891 322 891 C 329 891 336 895 343 903 C 349 911 353 923 353 940 Z" unicode="Ã" />
<glyph horiz-adv-x="551" d="M 0 0 L 0 0 Z M 553 0 L 425 0 L 376 156 L 168 156 L 122 0 L -1 0 L 234 733 L 321 733 L 553 0 Z M 353 256 L 272 517 L 191 256 L 353 256 Z M 274 789 L 274 789 Z M 409 789 L 311 789 L 311 949 L 409 949 L 409 789 Z M 237 789 L 139 789 L 139 949 L 237 949 L 237 789 Z" unicode="Ä" />
<glyph horiz-adv-x="551" d="M 0 0 L 0 0 Z M 553 0 L 425 0 L 376 156 L 168 156 L 122 0 L -1 0 L 234 733 L 321 733 L 553 0 Z M 353 256 L 272 517 L 191 256 L 353 256 Z M 274 779 L 274 779 Z M 274 779 C 240 779 211 790 187 814 C 163 838 152 866 152 900 C 152 934 163 962 187 986 C 211 1009 240 1021 274 1021 C 308 1021 336 1009 360 986 C 384 962 396 934 396 900 C 396 866 384 838 360 814 C 336 790 308 779 274 779 Z M 274 846 C 288 846 301 851 311 861 C 321 871 327 884 327 900 C 327 915 321 928 311 939 C 301 949 288 955 274 955 C 259 955 246 949 236 939 C 226 928 221 915 221 900 C 221 884 226 871 236 861 C 246 851 259 846 274 846 Z" unicode="Å" />
<glyph horiz-adv-x="824" d="M 802 0 L 427 0 L 427 192 L 215 192 L 116 0 L -11 0 L 352 730 L 783 730 L 783 620 L 547 620 L 547 417 L 771 417 L 771 308 L 547 308 L 547 110 L 802 110 L 802 0 Z M 427 293 L 427 642 L 259 293 L 427 293 Z" unicode="Æ" />
<glyph horiz-adv-x="582" d="M 34 0 L 34 0 Z M 320 -9 C 278 -9 240 -1 205 15 C 170 31 140 54 115 86 C 89 117 69 156 55 203 C 41 250 34 304 34 366 C 34 422 40 474 54 520 C 67 566 86 606 111 638 C 135 670 165 695 201 713 C 237 730 277 739 322 739 C 387 739 438 725 474 698 C 510 670 538 635 557 591 L 453 538 C 440 562 424 583 404 600 C 384 616 358 625 324 625 C 274 625 235 604 207 563 C 179 521 165 455 165 363 C 165 314 169 273 179 240 C 188 207 200 180 216 160 C 232 140 250 125 270 117 C 290 108 310 104 332 104 C 368 104 396 112 418 129 C 439 146 457 169 471 197 L 567 147 C 546 99 515 61 474 33 C 432 5 381 -9 320 -9 Z M 312 -1 L 312 -1 Z M 318 -186 C 295 -186 272 -183 250 -177 C 227 -171 209 -163 196 -154 L 216 -106 C 223 -110 233 -115 247 -121 C 261 -127 275 -130 291 -130 C 301 -130 311 -127 319 -122 C 327 -116 332 -109 332 -101 C 332 -91 328 -83 321 -79 C 313 -75 305 -73 297 -73 C 290 -73 284 -73 279 -74 C 274 -75 269 -77 265 -79 L 249 -60 L 308 13 L 372 13 L 327 -44 C 356 -40 380 -44 400 -56 C 419 -68 429 -85 429 -109 C 429 -133 418 -152 396 -166 C 374 -179 348 -186 318 -186 Z" unicode="Ç" />
<glyph horiz-adv-x="468" d="M 63 0 L 63 0 Z M 445 0 L 63 0 L 63 730 L 426 730 L 426 617 L 190 617 L 190 419 L 413 419 L 413 308 L 190 308 L 190 113 L 445 113 L 445 0 Z M 246 788 L 246 788 Z M 363 788 L 246 788 L 129 957 L 268 957 L 363 788 Z" unicode="È" />
<glyph horiz-adv-x="468" d="M 63 0 L 63 0 Z M 445 0 L 63 0 L 63 730 L 426 730 L 426 617 L 190 617 L 190 419 L 413 419 L 413 308 L 190 308 L 190 113 L 445 113 L 445 0 Z M 246 789 L 246 789 Z M 130 789 L 224 959 L 363 959 L 246 789 L 130 789 Z" unicode="É" />
<glyph horiz-adv-x="468" d="M 63 0 L 63 0 Z M 445 0 L 63 0 L 63 730 L 426 730 L 426 617 L 190 617 L 190 419 L 413 419 L 413 308 L 190 308 L 190 113 L 445 113 L 445 0 Z M 246 789 L 246 789 Z M 407 789 L 305 789 L 246 882 L 186 789 L 86 789 L 192 962 L 300 962 L 407 789 Z" unicode="Ê" />
<glyph horiz-adv-x="468" d="M 63 0 L 63 0 Z M 445 0 L 63 0 L 63 730 L 426 730 L 426 617 L 190 617 L 190 419 L 413 419 L 413 308 L 190 308 L 190 113 L 445 113 L 445 0 Z M 246 789 L 246 789 Z M 381 789 L 283 789 L 283 949 L 381 949 L 381 789 Z M 209 789 L 111 789 L 111 949 L 209 949 L 209 789 Z" unicode="Ë" />
<glyph horiz-adv-x="265" d="M 16 0 L 16 0 Z M 198 0 L 67 0 L 67 730 L 198 730 L 198 0 Z M 133 788 L 133 788 Z M 250 788 L 133 788 L 16 957 L 155 957 L 250 788 Z" unicode="Ì" />
<glyph horiz-adv-x="265" d="M 17 0 L 17 0 Z M 198 0 L 67 0 L 67 730 L 198 730 L 198 0 Z M 133 789 L 133 789 Z M 17 789 L 111 959 L 250 959 L 133 789 L 17 789 Z" unicode="Í" />
<glyph horiz-adv-x="265" d="M 0 0 L 0 0 Z M 198 0 L 67 0 L 67 730 L 198 730 L 198 0 Z M 133 789 L 133 789 Z M 294 789 L 192 789 L 133 882 L 73 789 L -27 789 L 79 962 L 187 962 L 294 789 Z" unicode="Î" />
<glyph horiz-adv-x="265" d="M 0 0 L 0 0 Z M 198 0 L 67 0 L 67 730 L 198 730 L 198 0 Z M 133 789 L 133 789 Z M 268 789 L 170 789 L 170 949 L 268 949 L 268 789 Z M 96 789 L -2 789 L -2 949 L 96 949 L 96 789 Z" unicode="Ï" />
<glyph horiz-adv-x="615" d="M 580 363 C 580 312 573 264 559 220 C 545 176 525 137 497 105 C 469 73 435 47 393 28 C 351 9 303 0 249 0 L 63 0 L 63 310 L 20 310 L 20 407 L 63 407 L 63 730 L 261 730 C 312 730 358 721 398 703 C 438 685 471 661 498 629 C 524 597 545 559 559 513 C 573 467 580 417 580 363 Z M 191 102 L 252 102 C 287 102 317 108 342 121 C 367 133 387 151 403 174 C 419 196 430 224 437 256 C 444 288 448 323 448 361 C 448 451 431 518 399 562 C 366 606 321 628 263 628 L 191 628 L 191 407 L 321 407 L 321 310 L 191 310 L 191 102 Z" unicode="Ð" />
<glyph horiz-adv-x="616" d="M 63 0 L 63 0 Z M 553 0 L 462 0 L 185 458 L 185 0 L 63 0 L 63 730 L 157 730 L 434 275 L 434 730 L 553 730 L 553 0 Z M 308 793 L 308 793 Z M 387 940 L 477 940 C 477 890 469 853 454 829 C 439 805 420 793 396 793 C 377 793 361 796 347 802 C 333 808 321 815 313 821 C 304 826 295 831 287 837 C 278 843 269 846 261 846 C 252 846 245 841 239 832 C 233 823 231 811 231 796 L 142 796 C 142 845 151 882 170 906 C 189 930 210 943 232 943 C 249 943 264 939 276 933 C 288 927 299 920 310 913 C 318 907 326 902 334 898 C 341 893 348 891 356 891 C 363 891 370 895 377 903 C 383 911 387 923 387 940 Z" unicode="Ñ" />
<glyph horiz-adv-x="657" d="M 34 0 L 34 0 Z M 331 -9 C 236 -9 163 24 111 92 C 59 160 34 253 34 371 C 34 427 41 477 55 523 C 69 568 88 607 114 639 C 139 671 170 695 206 713 C 242 730 281 739 325 739 C 418 739 491 706 544 640 C 596 574 623 483 623 366 C 623 308 615 256 601 210 C 586 163 566 123 540 91 C 514 59 484 34 448 17 C 412 0 373 -9 331 -9 Z M 331 100 C 379 100 418 122 448 166 C 477 210 492 278 492 370 C 492 455 476 519 446 563 C 416 606 376 628 326 628 C 276 628 236 607 208 565 C 180 523 166 457 166 366 C 166 274 181 206 212 164 C 242 121 282 100 331 100 Z M 327 788 L 327 788 Z M 444 788 L 327 788 L 210 957 L 349 957 L 444 788 Z" unicode="Ò" />
<glyph horiz-adv-x="657" d="M 34 0 L 34 0 Z M 331 -9 C 236 -9 163 24 111 92 C 59 160 34 253 34 371 C 34 427 41 477 55 523 C 69 568 88 607 114 639 C 139 671 170 695 206 713 C 242 730 281 739 325 739 C 418 739 491 706 544 640 C 596 574 623 483 623 366 C 623 308 615 256 601 210 C 586 163 566 123 540 91 C 514 59 484 34 448 17 C 412 0 373 -9 331 -9 Z M 331 100 C 379 100 418 122 448 166 C 477 210 492 278 492 370 C 492 455 476 519 446 563 C 416 606 376 628 326 628 C 276 628 236 607 208 565 C 180 523 166 457 166 366 C 166 274 181 206 212 164 C 242 121 282 100 331 100 Z M 327 789 L 327 789 Z M 211 789 L 305 959 L 444 959 L 327 789 L 211 789 Z" unicode="Ó" />
<glyph horiz-adv-x="657" d="M 34 0 L 34 0 Z M 331 -9 C 236 -9 163 24 111 92 C 59 160 34 253 34 371 C 34 427 41 477 55 523 C 69 568 88 607 114 639 C 139 671 170 695 206 713 C 242 730 281 739 325 739 C 418 739 491 706 544 640 C 596 574 623 483 623 366 C 623 308 615 256 601 210 C 586 163 566 123 540 91 C 514 59 484 34 448 17 C 412 0 373 -9 331 -9 Z M 331 100 C 379 100 418 122 448 166 C 477 210 492 278 492 370 C 492 455 476 519 446 563 C 416 606 376 628 326 628 C 276 628 236 607 208 565 C 180 523 166 457 166 366 C 166 274 181 206 212 164 C 242 121 282 100 331 100 Z M 327 789 L 327 789 Z M 488 789 L 386 789 L 327 882 L 267 789 L 167 789 L 273 962 L 381 962 L 488 789 Z" unicode="Ô" />
<glyph horiz-adv-x="657" d="M 34 0 L 34 0 Z M 331 -9 C 236 -9 163 24 111 92 C 59 160 34 253 34 371 C 34 427 41 477 55 523 C 69 568 88 607 114 639 C 139 671 170 695 206 713 C 242 730 281 739 325 739 C 418 739 491 706 544 640 C 596 574 623 483 623 366 C 623 308 615 256 601 210 C 586 163 566 123 540 91 C 514 59 484 34 448 17 C 412 0 373 -9 331 -9 Z M 331 100 C 379 100 418 122 448 166 C 477 210 492 278 492 370 C 492 455 476 519 446 563 C 416 606 376 628 326 628 C 276 628 236 607 208 565 C 180 523 166 457 166 366 C 166 274 181 206 212 164 C 242 121 282 100 331 100 Z M 327 793 L 327 793 Z M 406 940 L 496 940 C 496 890 488 853 473 829 C 458 805 439 793 415 793 C 396 793 380 796 366 802 C 352 808 340 815 332 821 C 323 826 314 831 306 837 C 297 843 288 846 280 846 C 271 846 264 841 258 832 C 252 823 250 811 250 796 L 161 796 C 161 845 170 882 189 906 C 208 930 229 943 251 943 C 268 943 283 939 295 933 C 307 927 318 920 329 913 C 337 907 345 902 353 898 C 360 893 367 891 375 891 C 382 891 389 895 396 903 C 402 911 406 923 406 940 Z" unicode="Õ" />
<glyph horiz-adv-x="657" d="M 34 0 L 34 0 Z M 331 -9 C 236 -9 163 24 111 92 C 59 160 34 253 34 371 C 34 427 41 477 55 523 C 69 568 88 607 114 639 C 139 671 170 695 206 713 C 242 730 281 739 325 739 C 418 739 491 706 544 640 C 596 574 623 483 623 366 C 623 308 615 256 601 210 C 586 163 566 123 540 91 C 514 59 484 34 448 17 C 412 0 373 -9 331 -9 Z M 331 100 C 379 100 418 122 448 166 C 477 210 492 278 492 370 C 492 455 476 519 446 563 C 416 606 376 628 326 628 C 276 628 236 607 208 565 C 180 523 166 457 166 366 C 166 274 181 206 212 164 C 242 121 282 100 331 100 Z M 327 789 L 327 789 Z M 462 789 L 364 789 L 364 949 L 462 949 L 462 789 Z M 290 789 L 192 789 L 192 949 L 290 949 L 290 789 Z" unicode="Ö" />
<glyph horiz-adv-x="488" d="M 113 134 L 49 199 L 179 329 L 50 458 L 115 524 L 244 395 L 374 524 L 439 458 L 309 329 L 440 200 L 374 132 L 244 265 L 113 134 Z" unicode="×" />
<glyph horiz-adv-x="657" d="M 623 366 C 623 308 615 256 601 210 C 586 163 566 123 540 91 C 514 59 484 34 448 17 C 412 0 373 -9 331 -9 C 291 -9 254 -2 221 10 C 188 22 159 41 135 65 L 80 -7 L 26 34 L 92 120 C 73 151 59 188 49 230 C 39 272 34 319 34 371 C 34 427 41 477 55 523 C 69 568 88 607 114 639 C 139 671 170 695 206 713 C 242 730 281 739 325 739 C 363 739 399 733 431 721 C 463 709 491 693 516 671 L 580 753 L 633 712 L 561 618 C 581 587 596 550 607 508 C 617 465 623 418 623 366 Z M 166 366 C 166 340 167 316 170 294 C 172 272 176 253 181 235 L 440 572 C 426 590 409 604 390 614 C 370 623 349 628 326 628 C 276 628 236 607 208 565 C 180 523 166 457 166 366 Z M 492 370 C 492 396 490 421 487 443 C 484 465 480 486 474 505 L 212 164 C 226 142 244 125 264 115 C 284 105 306 100 331 100 C 379 100 418 122 448 166 C 477 210 492 278 492 370 Z" unicode="Ø" />
<glyph horiz-adv-x="610" d="M 59 0 L 59 0 Z M 551 730 L 551 238 C 551 196 544 159 530 128 C 516 97 498 71 475 51 C 452 31 425 16 395 6 C 365 -4 333 -9 300 -9 C 267 -9 236 -4 207 5 C 178 15 153 30 131 50 C 109 70 91 95 78 126 C 65 157 59 194 59 238 L 59 730 L 187 730 L 187 234 C 187 190 198 157 220 136 C 242 115 269 105 302 105 C 334 105 362 115 385 135 C 408 155 420 188 420 234 L 420 730 L 551 730 Z M 303 788 L 303 788 Z M 420 788 L 303 788 L 186 957 L 325 957 L 420 788 Z" unicode="Ù" />
<glyph horiz-adv-x="610" d="M 59 0 L 59 0 Z M 551 730 L 551 238 C 551 196 544 159 530 128 C 516 97 498 71 475 51 C 452 31 425 16 395 6 C 365 -4 333 -9 300 -9 C 267 -9 236 -4 207 5 C 178 15 153 30 131 50 C 109 70 91 95 78 126 C 65 157 59 194 59 238 L 59 730 L 187 730 L 187 234 C 187 190 198 157 220 136 C 242 115 269 105 302 105 C 334 105 362 115 385 135 C 408 155 420 188 420 234 L 420 730 L 551 730 Z M 303 789 L 303 789 Z M 187 789 L 281 959 L 420 959 L 303 789 L 187 789 Z" unicode="Ú" />
<glyph horiz-adv-x="610" d="M 59 0 L 59 0 Z M 551 730 L 551 238 C 551 196 544 159 530 128 C 516 97 498 71 475 51 C 452 31 425 16 395 6 C 365 -4 333 -9 300 -9 C 267 -9 236 -4 207 5 C 178 15 153 30 131 50 C 109 70 91 95 78 126 C 65 157 59 194 59 238 L 59 730 L 187 730 L 187 234 C 187 190 198 157 220 136 C 242 115 269 105 302 105 C 334 105 362 115 385 135 C 408 155 420 188 420 234 L 420 730 L 551 730 Z M 303 789 L 303 789 Z M 464 789 L 362 789 L 303 882 L 243 789 L 143 789 L 249 962 L 357 962 L 464 789 Z" unicode="Û" />
<glyph horiz-adv-x="610" d="M 59 0 L 59 0 Z M 551 730 L 551 238 C 551 196 544 159 530 128 C 516 97 498 71 475 51 C 452 31 425 16 395 6 C 365 -4 333 -9 300 -9 C 267 -9 236 -4 207 5 C 178 15 153 30 131 50 C 109 70 91 95 78 126 C 65 157 59 194 59 238 L 59 730 L 187 730 L 187 234 C 187 190 198 157 220 136 C 242 115 269 105 302 105 C 334 105 362 115 385 135 C 408 155 420 188 420 234 L 420 730 L 551 730 Z M 303 789 L 303 789 Z M 438 789 L 340 789 L 340 949 L 438 949 L 438 789 Z M 266 789 L 168 789 L 168 949 L 266 949 L 266 789 Z" unicode="Ü" />
<glyph horiz-adv-x="539" d="M 0 0 L 0 0 Z M 544 730 L 332 309 L 332 0 L 202 0 L 202 312 L -5 730 L 135 730 L 273 437 L 417 730 L 544 730 Z M 273 789 L 273 789 Z M 157 789 L 251 959 L 390 959 L 273 789 L 157 789 Z" unicode="Ý" />
<glyph horiz-adv-x="512" d="M 63 0 L 63 730 L 193 730 L 193 607 L 282 607 C 344 607 395 587 435 547 C 475 507 495 452 495 384 C 495 312 474 256 433 214 C 392 172 340 152 276 152 L 193 152 L 193 0 L 63 0 Z M 190 254 L 269 254 C 299 254 324 265 343 288 C 361 311 371 343 371 384 C 371 423 360 453 340 473 C 319 493 294 503 266 503 L 190 503 L 190 254 Z" unicode="Þ" />
<glyph horiz-adv-x="576" d="M 402 -8 C 363 -8 328 -1 298 11 C 268 23 243 40 225 60 L 280 138 C 295 123 313 111 333 102 C 353 93 372 89 391 89 C 407 89 421 93 433 101 C 445 109 451 122 451 139 C 451 155 443 168 427 180 C 411 191 389 204 359 218 C 319 235 288 255 268 278 C 247 300 237 331 237 371 C 237 406 246 434 266 456 C 286 478 307 493 331 502 C 336 504 342 511 348 523 C 354 535 358 556 359 586 C 359 622 351 648 334 665 C 316 682 294 691 268 691 C 243 691 222 682 206 666 C 189 649 181 622 181 586 L 181 0 L 61 0 L 61 597 C 61 659 79 707 117 740 C 155 773 204 790 264 790 C 293 790 320 785 346 777 C 371 768 393 755 411 739 C 429 722 443 701 453 676 C 463 651 469 623 469 591 C 469 543 461 506 446 480 C 430 453 415 437 400 432 C 383 429 368 424 356 416 C 343 408 336 396 336 382 C 336 366 344 353 361 341 C 377 329 402 314 435 298 C 475 279 505 258 526 235 C 547 211 558 179 558 138 C 558 113 553 91 544 73 C 534 55 522 40 508 28 C 493 16 476 7 458 1 C 439 -5 420 -8 402 -8 Z" unicode="ß" />
<glyph horiz-adv-x="442" d="M 19 0 L 19 0 Z M 400 0 L 292 0 L 292 51 C 276 32 258 18 237 8 C 215 -2 189 -7 158 -7 C 115 -7 81 7 56 35 C 31 63 19 101 19 148 C 19 202 36 243 71 270 C 106 296 152 311 208 314 L 286 318 L 286 338 C 286 361 279 378 265 390 C 251 402 231 408 205 408 C 180 408 157 403 137 395 C 117 387 100 378 88 369 L 50 452 C 68 466 91 478 121 489 C 151 499 187 505 230 505 C 279 505 320 492 352 466 C 384 440 400 402 400 350 L 400 0 Z M 288 124 L 288 237 L 223 234 C 197 232 176 225 160 212 C 143 198 135 178 135 152 C 135 129 141 112 155 101 C 168 90 183 85 201 85 C 221 85 238 88 253 96 C 267 104 279 113 288 124 Z M 217 552 L 217 552 Z M 334 552 L 217 552 L 100 721 L 239 721 L 334 552 Z" unicode="à" />
<glyph horiz-adv-x="442" d="M 19 0 L 19 0 Z M 400 0 L 292 0 L 292 51 C 276 32 258 18 237 8 C 215 -2 189 -7 158 -7 C 115 -7 81 7 56 35 C 31 63 19 101 19 148 C 19 202 36 243 71 270 C 106 296 152 311 208 314 L 286 318 L 286 338 C 286 361 279 378 265 390 C 251 402 231 408 205 408 C 180 408 157 403 137 395 C 117 387 100 378 88 369 L 50 452 C 68 466 91 478 121 489 C 151 499 187 505 230 505 C 279 505 320 492 352 466 C 384 440 400 402 400 350 L 400 0 Z M 288 124 L 288 237 L 223 234 C 197 232 176 225 160 212 C 143 198 135 178 135 152 C 135 129 141 112 155 101 C 168 90 183 85 201 85 C 221 85 238 88 253 96 C 267 104 279 113 288 124 Z M 217 553 L 217 553 Z M 101 553 L 195 723 L 334 723 L 217 553 L 101 553 Z" unicode="á" />
<glyph horiz-adv-x="442" d="M 19 0 L 19 0 Z M 400 0 L 292 0 L 292 51 C 276 32 258 18 237 8 C 215 -2 189 -7 158 -7 C 115 -7 81 7 56 35 C 31 63 19 101 19 148 C 19 202 36 243 71 270 C 106 296 152 311 208 314 L 286 318 L 286 338 C 286 361 279 378 265 390 C 251 402 231 408 205 408 C 180 408 157 403 137 395 C 117 387 100 378 88 369 L 50 452 C 68 466 91 478 121 489 C 151 499 187 505 230 505 C 279 505 320 492 352 466 C 384 440 400 402 400 350 L 400 0 Z M 288 124 L 288 237 L 223 234 C 197 232 176 225 160 212 C 143 198 135 178 135 152 C 135 129 141 112 155 101 C 168 90 183 85 201 85 C 221 85 238 88 253 96 C 267 104 279 113 288 124 Z M 217 553 L 217 553 Z M 378 553 L 276 553 L 217 646 L 157 553 L 57 553 L 163 726 L 271 726 L 378 553 Z" unicode="â" />
<glyph horiz-adv-x="442" d="M 19 0 L 19 0 Z M 400 0 L 292 0 L 292 51 C 276 32 258 18 237 8 C 215 -2 189 -7 158 -7 C 115 -7 81 7 56 35 C 31 63 19 101 19 148 C 19 202 36 243 71 270 C 106 296 152 311 208 314 L 286 318 L 286 338 C 286 361 279 378 265 390 C 251 402 231 408 205 408 C 180 408 157 403 137 395 C 117 387 100 378 88 369 L 50 452 C 68 466 91 478 121 489 C 151 499 187 505 230 505 C 279 505 320 492 352 466 C 384 440 400 402 400 350 L 400 0 Z M 288 124 L 288 237 L 223 234 C 197 232 176 225 160 212 C 143 198 135 178 135 152 C 135 129 141 112 155 101 C 168 90 183 85 201 85 C 221 85 238 88 253 96 C 267 104 279 113 288 124 Z M 217 557 L 217 557 Z M 296 704 L 386 704 C 386 654 378 617 363 593 C 348 569 329 557 305 557 C 286 557 270 560 256 566 C 242 572 230 579 222 585 C 213 590 204 595 196 601 C 187 607 178 610 170 610 C 161 610 154 605 148 596 C 142 587 140 575 140 560 L 51 560 C 51 609 60 646 79 670 C 98 694 119 707 141 707 C 158 707 173 703 185 697 C 197 691 208 684 219 677 C 227 671 235 666 243 662 C 250 657 257 655 265 655 C 272 655 279 659 286 667 C 292 675 296 687 296 704 Z" unicode="ã" />
<glyph horiz-adv-x="442" d="M 19 0 L 19 0 Z M 400 0 L 292 0 L 292 51 C 276 32 258 18 237 8 C 215 -2 189 -7 158 -7 C 115 -7 81 7 56 35 C 31 63 19 101 19 148 C 19 202 36 243 71 270 C 106 296 152 311 208 314 L 286 318 L 286 338 C 286 361 279 378 265 390 C 251 402 231 408 205 408 C 180 408 157 403 137 395 C 117 387 100 378 88 369 L 50 452 C 68 466 91 478 121 489 C 151 499 187 505 230 505 C 279 505 320 492 352 466 C 384 440 400 402 400 350 L 400 0 Z M 288 124 L 288 237 L 223 234 C 197 232 176 225 160 212 C 143 198 135 178 135 152 C 135 129 141 112 155 101 C 168 90 183 85 201 85 C 221 85 238 88 253 96 C 267 104 279 113 288 124 Z M 217 553 L 217 553 Z M 352 553 L 254 553 L 254 713 L 352 713 L 352 553 Z M 180 553 L 82 553 L 82 713 L 180 713 L 180 553 Z" unicode="ä" />
<glyph horiz-adv-x="442" d="M 19 0 L 19 0 Z M 400 0 L 292 0 L 292 51 C 276 32 258 18 237 8 C 215 -2 189 -7 158 -7 C 115 -7 81 7 56 35 C 31 63 19 101 19 148 C 19 202 36 243 71 270 C 106 296 152 311 208 314 L 286 318 L 286 338 C 286 361 279 378 265 390 C 251 402 231 408 205 408 C 180 408 157 403 137 395 C 117 387 100 378 88 369 L 50 452 C 68 466 91 478 121 489 C 151 499 187 505 230 505 C 279 505 320 492 352 466 C 384 440 400 402 400 350 L 400 0 Z M 288 124 L 288 237 L 223 234 C 197 232 176 225 160 212 C 143 198 135 178 135 152 C 135 129 141 112 155 101 C 168 90 183 85 201 85 C 221 85 238 88 253 96 C 267 104 279 113 288 124 Z M 217 543 L 217 543 Z M 217 543 C 183 543 154 554 130 578 C 106 602 95 630 95 664 C 95 698 106 726 130 750 C 154 773 183 785 217 785 C 251 785 279 773 303 750 C 327 726 339 698 339 664 C 339 630 327 602 303 578 C 279 554 251 543 217 543 Z M 217 610 C 231 610 244 615 254 625 C 264 635 270 648 270 664 C 270 679 264 692 254 703 C 244 713 231 719 217 719 C 202 719 189 713 179 703 C 169 692 164 679 164 664 C 164 648 169 635 179 625 C 189 615 202 610 217 610 Z" unicode="å" />
<glyph horiz-adv-x="717" d="M 496 -7 C 452 -7 416 2 390 21 C 363 39 344 59 334 81 C 320 55 299 34 269 18 C 239 1 205 -7 167 -7 C 125 -7 90 7 63 35 C 35 63 22 101 22 147 C 22 201 39 241 74 268 C 108 295 154 310 210 313 L 291 317 L 291 333 C 291 359 283 379 268 391 C 253 403 232 409 206 409 C 180 409 157 404 137 395 C 117 386 100 377 88 369 L 52 451 C 70 465 93 477 121 487 C 149 497 181 502 217 502 C 249 502 278 496 304 484 C 329 472 346 456 354 436 C 364 452 381 466 405 480 C 429 494 459 501 496 501 C 559 501 608 476 643 426 C 678 376 696 306 696 215 L 401 215 C 401 175 411 144 429 122 C 447 99 474 88 508 88 C 536 88 559 93 577 105 C 595 116 610 129 624 143 L 682 77 C 664 56 640 37 611 19 C 582 1 544 -7 496 -7 Z M 399 294 L 581 294 C 580 328 572 356 556 377 C 540 397 518 408 492 408 C 465 408 443 397 427 377 C 411 357 401 329 399 294 Z M 205 85 C 227 85 246 91 262 104 C 278 116 288 132 293 151 L 293 237 L 225 233 C 200 231 179 225 162 213 C 145 201 137 181 137 154 C 137 129 143 111 157 101 C 171 90 187 85 205 85 Z" unicode="æ" />
<glyph horiz-adv-x="418" d="M 23 0 L 23 0 Z M 338 144 L 408 81 C 393 59 373 38 347 20 C 321 2 285 -7 238 -7 C 204 -7 174 0 148 12 C 121 24 98 42 80 64 C 62 86 48 112 38 144 C 28 175 23 209 23 246 C 23 281 28 314 38 345 C 48 376 62 403 81 426 C 99 449 122 467 149 481 C 176 494 207 501 241 501 C 286 501 322 491 350 472 C 377 452 397 431 410 408 L 330 346 C 321 361 310 374 296 384 C 282 394 265 400 244 400 C 215 400 192 386 174 359 C 156 332 148 296 148 250 C 148 196 158 156 178 130 C 198 104 223 91 253 91 C 275 91 293 96 306 108 C 319 120 330 132 338 144 Z M 226 -1 L 226 -1 Z M 232 -186 C 209 -186 186 -183 164 -177 C 141 -171 123 -163 110 -154 L 130 -106 C 137 -110 147 -115 161 -121 C 175 -127 189 -130 205 -130 C 215 -130 225 -127 233 -122 C 241 -116 246 -109 246 -101 C 246 -91 242 -83 235 -79 C 227 -75 219 -73 211 -73 C 204 -73 198 -73 193 -74 C 188 -75 183 -77 179 -79 L 163 -60 L 222 13 L 286 13 L 241 -44 C 270 -40 294 -44 314 -56 C 333 -68 343 -85 343 -109 C 343 -133 332 -152 310 -166 C 288 -179 262 -186 232 -186 Z" unicode="ç" />
<glyph horiz-adv-x="460" d="M 24 0 L 24 0 Z M 239 -7 C 175 -7 124 15 84 59 C 44 103 24 165 24 244 C 24 283 29 318 40 350 C 50 382 65 409 84 431 C 102 453 125 471 151 483 C 177 495 204 501 234 501 C 300 501 350 476 386 427 C 422 378 440 307 440 214 L 142 214 C 142 176 152 145 171 123 C 190 100 217 89 251 89 C 279 89 303 94 321 105 C 339 116 355 129 367 143 L 425 77 C 408 56 385 37 356 19 C 326 1 287 -7 239 -7 Z M 142 296 L 324 296 C 323 330 315 358 300 378 C 284 398 263 408 237 408 C 210 408 188 398 171 378 C 154 358 144 330 142 296 Z M 234 552 L 234 552 Z M 351 552 L 234 552 L 117 721 L 256 721 L 351 552 Z" unicode="è" />
<glyph horiz-adv-x="460" d="M 24 0 L 24 0 Z M 239 -7 C 175 -7 124 15 84 59 C 44 103 24 165 24 244 C 24 283 29 318 40 350 C 50 382 65 409 84 431 C 102 453 125 471 151 483 C 177 495 204 501 234 501 C 300 501 350 476 386 427 C 422 378 440 307 440 214 L 142 214 C 142 176 152 145 171 123 C 190 100 217 89 251 89 C 279 89 303 94 321 105 C 339 116 355 129 367 143 L 425 77 C 408 56 385 37 356 19 C 326 1 287 -7 239 -7 Z M 142 296 L 324 296 C 323 330 315 358 300 378 C 284 398 263 408 237 408 C 210 408 188 398 171 378 C 154 358 144 330 142 296 Z M 234 553 L 234 553 Z M 118 553 L 212 723 L 351 723 L 234 553 L 118 553 Z" unicode="é" />
<glyph horiz-adv-x="460" d="M 24 0 L 24 0 Z M 239 -7 C 175 -7 124 15 84 59 C 44 103 24 165 24 244 C 24 283 29 318 40 350 C 50 382 65 409 84 431 C 102 453 125 471 151 483 C 177 495 204 501 234 501 C 300 501 350 476 386 427 C 422 378 440 307 440 214 L 142 214 C 142 176 152 145 171 123 C 190 100 217 89 251 89 C 279 89 303 94 321 105 C 339 116 355 129 367 143 L 425 77 C 408 56 385 37 356 19 C 326 1 287 -7 239 -7 Z M 142 296 L 324 296 C 323 330 315 358 300 378 C 284 398 263 408 237 408 C 210 408 188 398 171 378 C 154 358 144 330 142 296 Z M 234 553 L 234 553 Z M 395 553 L 293 553 L 234 646 L 174 553 L 74 553 L 180 726 L 288 726 L 395 553 Z" unicode="ê" />
<glyph horiz-adv-x="460" d="M 24 0 L 24 0 Z M 239 -7 C 175 -7 124 15 84 59 C 44 103 24 165 24 244 C 24 283 29 318 40 350 C 50 382 65 409 84 431 C 102 453 125 471 151 483 C 177 495 204 501 234 501 C 300 501 350 476 386 427 C 422 378 440 307 440 214 L 142 214 C 142 176 152 145 171 123 C 190 100 217 89 251 89 C 279 89 303 94 321 105 C 339 116 355 129 367 143 L 425 77 C 408 56 385 37 356 19 C 326 1 287 -7 239 -7 Z M 142 296 L 324 296 C 323 330 315 358 300 378 C 284 398 263 408 237 408 C 210 408 188 398 171 378 C 154 358 144 330 142 296 Z M 234 553 L 234 553 Z M 369 553 L 271 553 L 271 713 L 369 713 L 369 553 Z M 197 553 L 99 553 L 99 713 L 197 713 L 197 553 Z" unicode="ë" />
<glyph horiz-adv-x="217" d="M 0 0 L 0 0 Z M 169 0 L 49 0 L 49 494 L 169 494 L 169 0 Z M 108 552 L 108 552 Z M 225 552 L 108 552 L -9 721 L 130 721 L 225 552 Z" unicode="ì" />
<glyph horiz-adv-x="217" d="M 0 0 L 0 0 Z M 169 0 L 49 0 L 49 494 L 169 494 L 169 0 Z M 108 553 L 108 553 Z M -8 553 L 86 723 L 225 723 L 108 553 L -8 553 Z" unicode="í" />
<glyph horiz-adv-x="217" d="M 0 0 L 0 0 Z M 169 0 L 49 0 L 49 494 L 169 494 L 169 0 Z M 108 553 L 108 553 Z M 269 553 L 167 553 L 108 646 L 48 553 L -52 553 L 54 726 L 162 726 L 269 553 Z" unicode="î" />
<glyph horiz-adv-x="217" d="M 0 0 L 0 0 Z M 169 0 L 49 0 L 49 494 L 169 494 L 169 0 Z M 108 553 L 108 553 Z M 243 553 L 145 553 L 145 713 L 243 713 L 243 553 Z M 71 553 L -27 553 L -27 713 L 71 713 L 71 553 Z" unicode="ï" />
<glyph horiz-adv-x="490" d="M 459 292 C 459 250 454 210 445 173 C 435 136 422 104 404 77 C 386 50 363 29 336 14 C 308 -1 277 -9 241 -9 C 177 -9 125 13 85 57 C 44 101 24 162 24 240 C 24 280 29 315 41 347 C 52 378 67 404 86 425 C 104 446 126 462 150 473 C 174 484 198 490 223 490 C 251 490 275 485 296 475 C 317 465 333 451 345 435 C 341 465 334 495 324 524 C 314 553 302 581 289 607 L 195 573 L 170 646 L 249 674 C 237 692 225 707 213 721 C 201 735 191 745 183 752 L 278 790 C 286 782 297 771 309 757 C 321 743 333 727 346 708 L 415 732 L 440 660 L 384 640 C 404 598 422 547 437 489 C 451 431 459 365 459 292 Z M 240 87 C 271 87 295 99 311 125 C 327 151 335 190 335 243 C 335 299 326 338 310 362 C 294 386 270 398 240 398 C 210 398 187 384 171 358 C 154 331 146 293 146 243 C 146 189 154 150 171 125 C 188 99 211 87 240 87 Z" unicode="ð" />
<glyph horiz-adv-x="477" d="M 46 0 L 46 0 Z M 434 0 L 315 0 L 315 336 C 315 356 308 372 296 384 C 284 396 267 402 247 402 C 225 402 206 395 190 382 C 174 369 166 347 166 317 L 166 0 L 46 0 L 46 494 L 155 494 L 155 421 C 163 444 179 463 203 479 C 227 494 256 502 292 502 C 334 502 368 491 394 469 C 420 447 434 414 434 371 L 434 0 Z M 243 557 L 243 557 Z M 322 704 L 412 704 C 412 654 404 617 389 593 C 374 569 355 557 331 557 C 312 557 296 560 282 566 C 268 572 256 579 248 585 C 239 590 230 595 222 601 C 213 607 204 610 196 610 C 187 610 180 605 174 596 C 168 587 166 575 166 560 L 77 560 C 77 609 86 646 105 670 C 124 694 145 707 167 707 C 184 707 199 703 211 697 C 223 691 234 684 245 677 C 253 671 261 666 269 662 C 276 657 283 655 291 655 C 298 655 305 659 312 667 C 318 675 322 687 322 704 Z" unicode="ñ" />
<glyph horiz-adv-x="481" d="M 23 0 L 23 0 Z M 239 -7 C 209 -7 181 -1 155 9 C 129 20 106 36 86 57 C 66 78 51 104 40 136 C 28 168 23 204 23 246 C 23 284 28 318 39 350 C 50 381 65 408 84 430 C 102 452 125 470 151 482 C 177 494 205 501 235 501 C 267 501 296 495 324 484 C 351 473 374 457 394 437 C 414 416 429 391 441 361 C 452 331 458 297 458 259 C 458 178 437 113 396 65 C 355 17 303 -7 239 -7 Z M 241 89 C 269 89 292 102 308 128 C 324 154 333 195 333 251 C 333 305 324 343 308 367 C 291 391 267 403 237 403 C 209 403 188 390 172 366 C 156 342 148 302 148 248 C 148 189 156 148 174 124 C 191 100 213 89 241 89 Z M 239 552 L 239 552 Z M 356 552 L 239 552 L 122 721 L 261 721 L 356 552 Z" unicode="ò" />
<glyph horiz-adv-x="481" d="M 23 0 L 23 0 Z M 239 -7 C 209 -7 181 -1 155 9 C 129 20 106 36 86 57 C 66 78 51 104 40 136 C 28 168 23 204 23 246 C 23 284 28 318 39 350 C 50 381 65 408 84 430 C 102 452 125 470 151 482 C 177 494 205 501 235 501 C 267 501 296 495 324 484 C 351 473 374 457 394 437 C 414 416 429 391 441 361 C 452 331 458 297 458 259 C 458 178 437 113 396 65 C 355 17 303 -7 239 -7 Z M 241 89 C 269 89 292 102 308 128 C 324 154 333 195 333 251 C 333 305 324 343 308 367 C 291 391 267 403 237 403 C 209 403 188 390 172 366 C 156 342 148 302 148 248 C 148 189 156 148 174 124 C 191 100 213 89 241 89 Z M 239 553 L 239 553 Z M 123 553 L 217 723 L 356 723 L 239 553 L 123 553 Z" unicode="ó" />
<glyph horiz-adv-x="481" d="M 23 0 L 23 0 Z M 239 -7 C 209 -7 181 -1 155 9 C 129 20 106 36 86 57 C 66 78 51 104 40 136 C 28 168 23 204 23 246 C 23 284 28 318 39 350 C 50 381 65 408 84 430 C 102 452 125 470 151 482 C 177 494 205 501 235 501 C 267 501 296 495 324 484 C 351 473 374 457 394 437 C 414 416 429 391 441 361 C 452 331 458 297 458 259 C 458 178 437 113 396 65 C 355 17 303 -7 239 -7 Z M 241 89 C 269 89 292 102 308 128 C 324 154 333 195 333 251 C 333 305 324 343 308 367 C 291 391 267 403 237 403 C 209 403 188 390 172 366 C 156 342 148 302 148 248 C 148 189 156 148 174 124 C 191 100 213 89 241 89 Z M 239 553 L 239 553 Z M 400 553 L 298 553 L 239 646 L 179 553 L 79 553 L 185 726 L 293 726 L 400 553 Z" unicode="ô" />
<glyph horiz-adv-x="481" d="M 23 0 L 23 0 Z M 239 -7 C 209 -7 181 -1 155 9 C 129 20 106 36 86 57 C 66 78 51 104 40 136 C 28 168 23 204 23 246 C 23 284 28 318 39 350 C 50 381 65 408 84 430 C 102 452 125 470 151 482 C 177 494 205 501 235 501 C 267 501 296 495 324 484 C 351 473 374 457 394 437 C 414 416 429 391 441 361 C 452 331 458 297 458 259 C 458 178 437 113 396 65 C 355 17 303 -7 239 -7 Z M 241 89 C 269 89 292 102 308 128 C 324 154 333 195 333 251 C 333 305 324 343 308 367 C 291 391 267 403 237 403 C 209 403 188 390 172 366 C 156 342 148 302 148 248 C 148 189 156 148 174 124 C 191 100 213 89 241 89 Z M 239 557 L 239 557 Z M 318 704 L 408 704 C 408 654 400 617 385 593 C 370 569 351 557 327 557 C 308 557 292 560 278 566 C 264 572 252 579 244 585 C 235 590 226 595 218 601 C 209 607 200 610 192 610 C 183 610 176 605 170 596 C 164 587 162 575 162 560 L 73 560 C 73 609 82 646 101 670 C 120 694 141 707 163 707 C 180 707 195 703 207 697 C 219 691 230 684 241 677 C 249 671 257 666 265 662 C 272 657 279 655 287 655 C 294 655 301 659 308 667 C 314 675 318 687 318 704 Z" unicode="õ" />
<glyph horiz-adv-x="481" d="M 23 0 L 23 0 Z M 239 -7 C 209 -7 181 -1 155 9 C 129 20 106 36 86 57 C 66 78 51 104 40 136 C 28 168 23 204 23 246 C 23 284 28 318 39 350 C 50 381 65 408 84 430 C 102 452 125 470 151 482 C 177 494 205 501 235 501 C 267 501 296 495 324 484 C 351 473 374 457 394 437 C 414 416 429 391 441 361 C 452 331 458 297 458 259 C 458 178 437 113 396 65 C 355 17 303 -7 239 -7 Z M 241 89 C 269 89 292 102 308 128 C 324 154 333 195 333 251 C 333 305 324 343 308 367 C 291 391 267 403 237 403 C 209 403 188 390 172 366 C 156 342 148 302 148 248 C 148 189 156 148 174 124 C 191 100 213 89 241 89 Z M 239 553 L 239 553 Z M 374 553 L 276 553 L 276 713 L 374 713 L 374 553 Z M 202 553 L 104 553 L 104 713 L 202 713 L 202 553 Z" unicode="ö" />
<glyph horiz-adv-x="487" d="M 187 448 L 187 573 L 300 573 L 300 448 L 187 448 Z M 23 279 L 23 382 L 464 382 L 464 279 L 23 279 Z M 187 87 L 187 211 L 300 211 L 300 87 L 187 87 Z" unicode="÷" />
<glyph horiz-adv-x="481" d="M 239 -7 C 214 -7 190 -3 168 4 C 146 11 126 22 108 37 L 71 -9 L 30 27 L 70 78 C 55 98 43 123 35 151 C 27 179 23 210 23 246 C 23 284 28 318 39 350 C 50 381 65 408 84 430 C 102 452 125 470 151 482 C 177 494 205 501 235 501 C 261 501 286 497 309 490 C 331 482 352 472 371 458 L 410 507 L 451 473 L 409 420 C 424 400 436 376 445 349 C 453 322 458 292 458 259 C 458 178 437 113 396 65 C 355 17 303 -7 239 -7 Z M 148 248 C 148 235 148 223 149 212 C 150 201 151 191 153 182 L 304 373 C 296 383 286 391 275 396 C 263 400 251 403 237 403 C 209 403 188 390 172 366 C 156 342 148 302 148 248 Z M 333 251 C 333 263 332 275 331 286 C 330 297 329 307 327 316 L 175 123 C 183 111 192 102 204 97 C 215 91 227 89 241 89 C 269 89 292 102 308 128 C 324 154 333 195 333 251 Z" unicode="ø" />
<glyph horiz-adv-x="478" d="M 44 0 L 44 0 Z M 44 494 L 163 494 L 163 163 C 163 136 169 117 182 105 C 195 93 213 87 235 87 C 256 87 274 94 289 108 C 304 122 312 146 312 179 L 312 494 L 431 494 L 431 0 L 320 0 L 320 68 C 310 46 294 28 270 14 C 246 0 217 -8 185 -8 C 147 -8 114 3 86 27 C 58 50 44 85 44 133 L 44 494 Z M 237 552 L 237 552 Z M 354 552 L 237 552 L 120 721 L 259 721 L 354 552 Z" unicode="ù" />
<glyph horiz-adv-x="478" d="M 44 0 L 44 0 Z M 44 494 L 163 494 L 163 163 C 163 136 169 117 182 105 C 195 93 213 87 235 87 C 256 87 274 94 289 108 C 304 122 312 146 312 179 L 312 494 L 431 494 L 431 0 L 320 0 L 320 68 C 310 46 294 28 270 14 C 246 0 217 -8 185 -8 C 147 -8 114 3 86 27 C 58 50 44 85 44 133 L 44 494 Z M 237 553 L 237 553 Z M 121 553 L 215 723 L 354 723 L 237 553 L 121 553 Z" unicode="ú" />
<glyph horiz-adv-x="478" d="M 44 0 L 44 0 Z M 44 494 L 163 494 L 163 163 C 163 136 169 117 182 105 C 195 93 213 87 235 87 C 256 87 274 94 289 108 C 304 122 312 146 312 179 L 312 494 L 431 494 L 431 0 L 320 0 L 320 68 C 310 46 294 28 270 14 C 246 0 217 -8 185 -8 C 147 -8 114 3 86 27 C 58 50 44 85 44 133 L 44 494 Z M 237 553 L 237 553 Z M 398 553 L 296 553 L 237 646 L 177 553 L 77 553 L 183 726 L 291 726 L 398 553 Z" unicode="û" />
<glyph horiz-adv-x="478" d="M 44 0 L 44 0 Z M 44 494 L 163 494 L 163 163 C 163 136 169 117 182 105 C 195 93 213 87 235 87 C 256 87 274 94 289 108 C 304 122 312 146 312 179 L 312 494 L 431 494 L 431 0 L 320 0 L 320 68 C 310 46 294 28 270 14 C 246 0 217 -8 185 -8 C 147 -8 114 3 86 27 C 58 50 44 85 44 133 L 44 494 Z M 237 553 L 237 553 Z M 372 553 L 274 553 L 274 713 L 372 713 L 372 553 Z M 200 553 L 102 553 L 102 713 L 200 713 L 200 553 Z" unicode="ü" />
<glyph horiz-adv-x="421" d="M 0 0 L 0 0 Z M 426 494 L 220 -91 C 205 -129 184 -157 156 -174 C 128 -191 99 -200 68 -200 C 48 -200 31 -197 17 -193 C 3 -189 -7 -185 -14 -181 L 23 -89 C 25 -91 31 -93 40 -96 C 49 -98 58 -100 67 -100 C 80 -100 92 -95 102 -86 C 112 -76 120 -62 127 -42 L 155 43 L -5 494 L 120 494 L 216 194 L 311 494 L 426 494 Z M 213 553 L 213 553 Z M 97 553 L 191 723 L 330 723 L 213 553 L 97 553 Z" unicode="ý" />
<glyph horiz-adv-x="487" d="M 46 -199 L 46 785 L 158 785 L 158 414 C 165 436 181 456 205 474 C 229 492 258 501 293 501 C 320 501 344 495 366 483 C 387 471 405 455 419 434 C 433 413 444 388 452 359 C 460 329 464 297 464 263 C 464 178 447 112 414 66 C 380 19 338 -4 286 -4 C 255 -4 229 2 207 14 C 185 26 169 42 161 61 L 161 -199 L 46 -199 Z M 247 86 C 274 86 296 98 313 124 C 330 149 339 189 339 243 C 339 293 331 332 316 360 C 301 388 278 402 248 402 C 222 402 201 390 183 367 C 165 343 157 300 157 238 C 157 178 165 137 182 117 C 199 96 221 86 247 86 Z" unicode="þ" />
<glyph horiz-adv-x="421" d="M 0 0 L 0 0 Z M 426 494 L 220 -91 C 205 -129 184 -157 156 -174 C 128 -191 99 -200 68 -200 C 48 -200 31 -197 17 -193 C 3 -189 -7 -185 -14 -181 L 23 -89 C 25 -91 31 -93 40 -96 C 49 -98 58 -100 67 -100 C 80 -100 92 -95 102 -86 C 112 -76 120 -62 127 -42 L 155 43 L -5 494 L 120 494 L 216 194 L 311 494 L 426 494 Z M 213 553 L 213 553 Z M 348 553 L 250 553 L 250 713 L 348 713 L 348 553 Z M 176 553 L 78 553 L 78 713 L 176 713 L 176 553 Z" unicode="ÿ" />
<glyph horiz-adv-x="551" d="M 0 0 L 0 0 Z M 553 0 L 425 0 L 376 156 L 168 156 L 122 0 L -1 0 L 234 733 L 321 733 L 553 0 Z M 353 256 L 272 517 L 191 256 L 353 256 Z M 274 802 L 274 802 Z M 406 802 L 142 802 L 142 895 L 406 895 L 406 802 Z" unicode="Ā" />
<glyph horiz-adv-x="442" d="M 19 0 L 19 0 Z M 400 0 L 292 0 L 292 51 C 276 32 258 18 237 8 C 215 -2 189 -7 158 -7 C 115 -7 81 7 56 35 C 31 63 19 101 19 148 C 19 202 36 243 71 270 C 106 296 152 311 208 314 L 286 318 L 286 338 C 286 361 279 378 265 390 C 251 402 231 408 205 408 C 180 408 157 403 137 395 C 117 387 100 378 88 369 L 50 452 C 68 466 91 478 121 489 C 151 499 187 505 230 505 C 279 505 320 492 352 466 C 384 440 400 402 400 350 L 400 0 Z M 288 124 L 288 237 L 223 234 C 197 232 176 225 160 212 C 143 198 135 178 135 152 C 135 129 141 112 155 101 C 168 90 183 85 201 85 C 221 85 238 88 253 96 C 267 104 279 113 288 124 Z M 217 566 L 217 566 Z M 349 566 L 85 566 L 85 659 L 349 659 L 349 566 Z" unicode="ā" />
<glyph horiz-adv-x="551" d="M 0 0 L 0 0 Z M 553 0 L 425 0 L 376 156 L 168 156 L 122 0 L -1 0 L 234 733 L 321 733 L 553 0 Z M 353 256 L 272 517 L 191 256 L 353 256 Z M 274 791 L 274 791 Z M 328 951 L 427 951 C 423 895 407 854 379 829 C 351 803 316 791 274 791 C 232 791 197 803 169 829 C 141 854 126 895 122 951 L 220 951 C 221 925 226 906 234 892 C 242 878 255 871 274 871 C 292 871 306 877 314 891 C 322 904 327 924 328 951 Z" unicode="Ă" />
<glyph horiz-adv-x="442" d="M 19 0 L 19 0 Z M 400 0 L 292 0 L 292 51 C 276 32 258 18 237 8 C 215 -2 189 -7 158 -7 C 115 -7 81 7 56 35 C 31 63 19 101 19 148 C 19 202 36 243 71 270 C 106 296 152 311 208 314 L 286 318 L 286 338 C 286 361 279 378 265 390 C 251 402 231 408 205 408 C 180 408 157 403 137 395 C 117 387 100 378 88 369 L 50 452 C 68 466 91 478 121 489 C 151 499 187 505 230 505 C 279 505 320 492 352 466 C 384 440 400 402 400 350 L 400 0 Z M 288 124 L 288 237 L 223 234 C 197 232 176 225 160 212 C 143 198 135 178 135 152 C 135 129 141 112 155 101 C 168 90 183 85 201 85 C 221 85 238 88 253 96 C 267 104 279 113 288 124 Z M 217 555 L 217 555 Z M 271 715 L 370 715 C 366 659 350 618 322 593 C 294 567 259 555 217 555 C 175 555 140 567 112 593 C 84 618 69 659 65 715 L 163 715 C 164 689 169 670 177 656 C 185 642 198 635 217 635 C 235 635 249 641 257 655 C 265 668 270 688 271 715 Z" unicode="ă" />
<glyph horiz-adv-x="551" d="M 0 0 L 0 0 Z M 553 0 L 425 0 L 376 156 L 168 156 L 122 0 L -1 0 L 234 733 L 321 733 L 553 0 Z M 353 256 L 272 517 L 191 256 L 353 256 Z M 444 -7 L 444 -7 Z M 542 -82 L 574 -132 C 553 -154 530 -171 506 -182 C 481 -193 453 -199 423 -199 C 389 -199 362 -191 343 -177 C 323 -162 314 -143 314 -121 C 314 -96 324 -73 344 -51 C 364 -29 394 -10 433 5 L 496 5 C 472 -5 453 -18 438 -32 C 423 -46 416 -59 416 -72 C 416 -84 420 -93 429 -100 C 438 -107 449 -111 463 -111 C 479 -111 494 -108 508 -103 C 521 -97 532 -90 542 -82 Z" unicode="Ą" />
<glyph horiz-adv-x="442" d="M 19 0 L 19 0 Z M 400 0 L 292 0 L 292 51 C 276 32 258 18 237 8 C 215 -2 189 -7 158 -7 C 115 -7 81 7 56 35 C 31 63 19 101 19 148 C 19 202 36 243 71 270 C 106 296 152 311 208 314 L 286 318 L 286 338 C 286 361 279 378 265 390 C 251 402 231 408 205 408 C 180 408 157 403 137 395 C 117 387 100 378 88 369 L 50 452 C 68 466 91 478 121 489 C 151 499 187 505 230 505 C 279 505 320 492 352 466 C 384 440 400 402 400 350 L 400 0 Z M 288 124 L 288 237 L 223 234 C 197 232 176 225 160 212 C 143 198 135 178 135 152 C 135 129 141 112 155 101 C 168 90 183 85 201 85 C 221 85 238 88 253 96 C 267 104 279 113 288 124 Z M 313 -7 L 313 -7 Z M 411 -82 L 443 -132 C 422 -154 399 -171 375 -182 C 350 -193 322 -199 292 -199 C 258 -199 231 -191 212 -177 C 192 -162 183 -143 183 -121 C 183 -96 193 -73 213 -51 C 233 -29 263 -10 302 5 L 365 5 C 341 -5 322 -18 307 -32 C 292 -46 285 -59 285 -72 C 285 -84 289 -93 298 -100 C 307 -107 318 -111 332 -111 C 348 -111 363 -108 377 -103 C 390 -97 401 -90 411 -82 Z" unicode="ą" />
<glyph horiz-adv-x="582" d="M 34 0 L 34 0 Z M 320 -9 C 278 -9 240 -1 205 15 C 170 31 140 54 115 86 C 89 117 69 156 55 203 C 41 250 34 304 34 366 C 34 422 40 474 54 520 C 67 566 86 606 111 638 C 135 670 165 695 201 713 C 237 730 277 739 322 739 C 387 739 438 725 474 698 C 510 670 538 635 557 591 L 453 538 C 440 562 424 583 404 600 C 384 616 358 625 324 625 C 274 625 235 604 207 563 C 179 521 165 455 165 363 C 165 314 169 273 179 240 C 188 207 200 180 216 160 C 232 140 250 125 270 117 C 290 108 310 104 332 104 C 368 104 396 112 418 129 C 439 146 457 169 471 197 L 567 147 C 546 99 515 61 474 33 C 432 5 381 -9 320 -9 Z M 324 789 L 324 789 Z M 208 789 L 302 959 L 441 959 L 324 789 L 208 789 Z" unicode="Ć" />
<glyph horiz-adv-x="418" d="M 23 0 L 23 0 Z M 338 144 L 408 81 C 393 59 373 38 347 20 C 321 2 285 -7 238 -7 C 204 -7 174 0 148 12 C 121 24 98 42 80 64 C 62 86 48 112 38 144 C 28 175 23 209 23 246 C 23 281 28 314 38 345 C 48 376 62 403 81 426 C 99 449 122 467 149 481 C 176 494 207 501 241 501 C 286 501 322 491 350 472 C 377 452 397 431 410 408 L 330 346 C 321 361 310 374 296 384 C 282 394 265 400 244 400 C 215 400 192 386 174 359 C 156 332 148 296 148 250 C 148 196 158 156 178 130 C 198 104 223 91 253 91 C 275 91 293 96 306 108 C 319 120 330 132 338 144 Z M 232 553 L 232 553 Z M 116 553 L 210 723 L 349 723 L 232 553 L 116 553 Z" unicode="ć" />
<glyph horiz-adv-x="582" d="M 34 0 L 34 0 Z M 320 -9 C 278 -9 240 -1 205 15 C 170 31 140 54 115 86 C 89 117 69 156 55 203 C 41 250 34 304 34 366 C 34 422 40 474 54 520 C 67 566 86 606 111 638 C 135 670 165 695 201 713 C 237 730 277 739 322 739 C 387 739 438 725 474 698 C 510 670 538 635 557 591 L 453 538 C 440 562 424 583 404 600 C 384 616 358 625 324 625 C 274 625 235 604 207 563 C 179 521 165 455 165 363 C 165 314 169 273 179 240 C 188 207 200 180 216 160 C 232 140 250 125 270 117 C 290 108 310 104 332 104 C 368 104 396 112 418 129 C 439 146 457 169 471 197 L 567 147 C 546 99 515 61 474 33 C 432 5 381 -9 320 -9 Z M 324 789 L 324 789 Z M 485 789 L 383 789 L 324 882 L 264 789 L 164 789 L 270 962 L 378 962 L 485 789 Z" unicode="Ĉ" />
<glyph horiz-adv-x="418" d="M 23 0 L 23 0 Z M 338 144 L 408 81 C 393 59 373 38 347 20 C 321 2 285 -7 238 -7 C 204 -7 174 0 148 12 C 121 24 98 42 80 64 C 62 86 48 112 38 144 C 28 175 23 209 23 246 C 23 281 28 314 38 345 C 48 376 62 403 81 426 C 99 449 122 467 149 481 C 176 494 207 501 241 501 C 286 501 322 491 350 472 C 377 452 397 431 410 408 L 330 346 C 321 361 310 374 296 384 C 282 394 265 400 244 400 C 215 400 192 386 174 359 C 156 332 148 296 148 250 C 148 196 158 156 178 130 C 198 104 223 91 253 91 C 275 91 293 96 306 108 C 319 120 330 132 338 144 Z M 232 553 L 232 553 Z M 393 553 L 291 553 L 232 646 L 172 553 L 72 553 L 178 726 L 286 726 L 393 553 Z" unicode="ĉ" />
<glyph horiz-adv-x="582" d="M 34 0 L 34 0 Z M 320 -9 C 278 -9 240 -1 205 15 C 170 31 140 54 115 86 C 89 117 69 156 55 203 C 41 250 34 304 34 366 C 34 422 40 474 54 520 C 67 566 86 606 111 638 C 135 670 165 695 201 713 C 237 730 277 739 322 739 C 387 739 438 725 474 698 C 510 670 538 635 557 591 L 453 538 C 440 562 424 583 404 600 C 384 616 358 625 324 625 C 274 625 235 604 207 563 C 179 521 165 455 165 363 C 165 314 169 273 179 240 C 188 207 200 180 216 160 C 232 140 250 125 270 117 C 290 108 310 104 332 104 C 368 104 396 112 418 129 C 439 146 457 169 471 197 L 567 147 C 546 99 515 61 474 33 C 432 5 381 -9 320 -9 Z M 324 795 L 324 795 Z M 379 795 L 270 795 L 270 937 L 379 937 L 379 795 Z" unicode="Ċ" />
<glyph horiz-adv-x="418" d="M 23 0 L 23 0 Z M 338 144 L 408 81 C 393 59 373 38 347 20 C 321 2 285 -7 238 -7 C 204 -7 174 0 148 12 C 121 24 98 42 80 64 C 62 86 48 112 38 144 C 28 175 23 209 23 246 C 23 281 28 314 38 345 C 48 376 62 403 81 426 C 99 449 122 467 149 481 C 176 494 207 501 241 501 C 286 501 322 491 350 472 C 377 452 397 431 410 408 L 330 346 C 321 361 310 374 296 384 C 282 394 265 400 244 400 C 215 400 192 386 174 359 C 156 332 148 296 148 250 C 148 196 158 156 178 130 C 198 104 223 91 253 91 C 275 91 293 96 306 108 C 319 120 330 132 338 144 Z M 232 559 L 232 559 Z M 287 559 L 178 559 L 178 701 L 287 701 L 287 559 Z" unicode="ċ" />
<glyph horiz-adv-x="582" d="M 34 0 L 34 0 Z M 320 -9 C 278 -9 240 -1 205 15 C 170 31 140 54 115 86 C 89 117 69 156 55 203 C 41 250 34 304 34 366 C 34 422 40 474 54 520 C 67 566 86 606 111 638 C 135 670 165 695 201 713 C 237 730 277 739 322 739 C 387 739 438 725 474 698 C 510 670 538 635 557 591 L 453 538 C 440 562 424 583 404 600 C 384 616 358 625 324 625 C 274 625 235 604 207 563 C 179 521 165 455 165 363 C 165 314 169 273 179 240 C 188 207 200 180 216 160 C 232 140 250 125 270 117 C 290 108 310 104 332 104 C 368 104 396 112 418 129 C 439 146 457 169 471 197 L 567 147 C 546 99 515 61 474 33 C 432 5 381 -9 320 -9 Z M 324 789 L 324 789 Z M 164 962 L 266 962 L 325 869 L 385 962 L 485 962 L 378 789 L 270 789 L 164 962 Z" unicode="Č" />
<glyph horiz-adv-x="418" d="M 23 0 L 23 0 Z M 338 144 L 408 81 C 393 59 373 38 347 20 C 321 2 285 -7 238 -7 C 204 -7 174 0 148 12 C 121 24 98 42 80 64 C 62 86 48 112 38 144 C 28 175 23 209 23 246 C 23 281 28 314 38 345 C 48 376 62 403 81 426 C 99 449 122 467 149 481 C 176 494 207 501 241 501 C 286 501 322 491 350 472 C 377 452 397 431 410 408 L 330 346 C 321 361 310 374 296 384 C 282 394 265 400 244 400 C 215 400 192 386 174 359 C 156 332 148 296 148 250 C 148 196 158 156 178 130 C 198 104 223 91 253 91 C 275 91 293 96 306 108 C 319 120 330 132 338 144 Z M 232 553 L 232 553 Z M 72 726 L 174 726 L 233 633 L 293 726 L 393 726 L 286 553 L 178 553 L 72 726 Z" unicode="č" />
<glyph horiz-adv-x="615" d="M 63 0 L 63 0 Z M 63 0 L 63 730 L 261 730 C 312 730 358 721 398 703 C 438 685 471 661 498 629 C 525 597 546 559 560 514 C 574 469 581 420 581 366 C 581 314 574 266 560 222 C 546 177 526 138 498 106 C 470 73 436 47 394 28 C 352 9 304 0 250 0 L 63 0 Z M 193 108 L 254 108 C 322 108 372 131 402 178 C 432 224 448 286 448 364 C 448 450 431 514 398 557 C 365 599 320 621 262 621 L 193 621 L 193 108 Z M 287 789 L 287 789 Z M 127 962 L 229 962 L 288 869 L 348 962 L 448 962 L 341 789 L 233 789 L 127 962 Z" unicode="Ď" />
<glyph horiz-adv-x="495" d="M 24 0 L 24 0 Z M 208 -6 C 180 -6 155 0 133 12 C 110 24 91 41 75 63 C 59 85 46 111 37 142 C 28 172 24 206 24 242 C 24 280 28 315 38 347 C 48 379 61 406 78 428 C 94 450 114 468 137 480 C 160 492 185 499 212 499 C 241 499 266 491 288 476 C 310 461 325 443 334 423 L 334 785 L 447 785 L 447 0 L 339 0 L 339 65 C 332 49 318 33 296 17 C 274 1 244 -6 208 -6 Z M 243 86 C 271 86 294 99 311 127 C 327 155 336 196 336 250 C 336 305 326 344 308 367 C 290 390 267 402 241 402 C 212 402 189 389 173 363 C 157 337 149 298 149 246 C 149 194 157 154 173 127 C 189 99 213 86 243 86 Z M 599 616 L 594 466 L 492 466 L 486 616 L 486 730 L 599 730 L 599 616 Z" unicode="ď" />
<glyph horiz-adv-x="613" d="M 20 0 L 20 0 Z M 580 363 C 580 312 573 264 559 220 C 545 176 525 137 497 105 C 469 73 435 47 393 28 C 351 9 303 0 249 0 L 63 0 L 63 310 L 20 310 L 20 407 L 63 407 L 63 730 L 261 730 C 312 730 358 721 398 703 C 438 685 471 661 498 629 C 524 597 545 559 559 513 C 573 467 580 417 580 363 Z M 191 102 L 252 102 C 287 102 317 108 342 121 C 367 133 387 151 403 174 C 419 196 430 224 437 256 C 444 288 448 323 448 361 C 448 451 431 518 399 562 C 366 606 321 628 263 628 L 191 628 L 191 407 L 321 407 L 321 310 L 191 310 L 191 102 Z" unicode="Đ" />
<glyph horiz-adv-x="493" d="M 339 65 C 332 49 318 33 296 17 C 274 1 244 -6 208 -6 C 180 -6 155 0 133 12 C 110 24 91 41 75 63 C 59 85 46 111 37 142 C 28 172 24 206 24 242 C 24 280 28 315 38 347 C 48 379 61 406 78 428 C 94 450 114 468 137 480 C 160 492 185 499 212 499 C 241 499 266 491 288 476 C 310 461 325 443 334 423 L 334 586 L 229 586 L 229 680 L 334 680 L 334 785 L 447 785 L 447 680 L 487 680 L 487 586 L 447 586 L 447 0 L 339 0 L 339 65 Z M 243 86 C 271 86 294 99 311 127 C 327 155 336 196 336 250 C 336 305 326 344 308 367 C 290 390 267 402 241 402 C 212 402 189 389 173 363 C 157 337 149 298 149 246 C 149 194 157 154 173 127 C 189 99 213 86 243 86 Z" unicode="đ" />
<glyph horiz-adv-x="468" d="M 63 0 L 63 0 Z M 445 0 L 63 0 L 63 730 L 426 730 L 426 617 L 190 617 L 190 419 L 413 419 L 413 308 L 190 308 L 190 113 L 445 113 L 445 0 Z M 246 802 L 246 802 Z M 378 802 L 114 802 L 114 895 L 378 895 L 378 802 Z" unicode="Ē" />
<glyph horiz-adv-x="460" d="M 24 0 L 24 0 Z M 239 -7 C 175 -7 124 15 84 59 C 44 103 24 165 24 244 C 24 283 29 318 40 350 C 50 382 65 409 84 431 C 102 453 125 471 151 483 C 177 495 204 501 234 501 C 300 501 350 476 386 427 C 422 378 440 307 440 214 L 142 214 C 142 176 152 145 171 123 C 190 100 217 89 251 89 C 279 89 303 94 321 105 C 339 116 355 129 367 143 L 425 77 C 408 56 385 37 356 19 C 326 1 287 -7 239 -7 Z M 142 296 L 324 296 C 323 330 315 358 300 378 C 284 398 263 408 237 408 C 210 408 188 398 171 378 C 154 358 144 330 142 296 Z M 234 566 L 234 566 Z M 366 566 L 102 566 L 102 659 L 366 659 L 366 566 Z" unicode="ē" />
<glyph horiz-adv-x="468" d="M 63 0 L 63 0 Z M 445 0 L 63 0 L 63 730 L 426 730 L 426 617 L 190 617 L 190 419 L 413 419 L 413 308 L 190 308 L 190 113 L 445 113 L 445 0 Z M 246 791 L 246 791 Z M 300 951 L 399 951 C 395 895 379 854 351 829 C 323 803 288 791 246 791 C 204 791 169 803 141 829 C 113 854 98 895 94 951 L 192 951 C 193 925 198 906 206 892 C 214 878 227 871 246 871 C 264 871 278 877 286 891 C 294 904 299 924 300 951 Z" unicode="Ĕ" />
<glyph horiz-adv-x="460" d="M 24 0 L 24 0 Z M 239 -7 C 175 -7 124 15 84 59 C 44 103 24 165 24 244 C 24 283 29 318 40 350 C 50 382 65 409 84 431 C 102 453 125 471 151 483 C 177 495 204 501 234 501 C 300 501 350 476 386 427 C 422 378 440 307 440 214 L 142 214 C 142 176 152 145 171 123 C 190 100 217 89 251 89 C 279 89 303 94 321 105 C 339 116 355 129 367 143 L 425 77 C 408 56 385 37 356 19 C 326 1 287 -7 239 -7 Z M 142 296 L 324 296 C 323 330 315 358 300 378 C 284 398 263 408 237 408 C 210 408 188 398 171 378 C 154 358 144 330 142 296 Z M 234 555 L 234 555 Z M 288 715 L 387 715 C 383 659 367 618 339 593 C 311 567 276 555 234 555 C 192 555 157 567 129 593 C 101 618 86 659 82 715 L 180 715 C 181 689 186 670 194 656 C 202 642 215 635 234 635 C 252 635 266 641 274 655 C 282 668 287 688 288 715 Z" unicode="ĕ" />
<glyph horiz-adv-x="468" d="M 63 0 L 63 0 Z M 445 0 L 63 0 L 63 730 L 426 730 L 426 617 L 190 617 L 190 419 L 413 419 L 413 308 L 190 308 L 190 113 L 445 113 L 445 0 Z M 246 795 L 246 795 Z M 301 795 L 192 795 L 192 937 L 301 937 L 301 795 Z" unicode="Ė" />
<glyph horiz-adv-x="460" d="M 24 0 L 24 0 Z M 239 -7 C 175 -7 124 15 84 59 C 44 103 24 165 24 244 C 24 283 29 318 40 350 C 50 382 65 409 84 431 C 102 453 125 471 151 483 C 177 495 204 501 234 501 C 300 501 350 476 386 427 C 422 378 440 307 440 214 L 142 214 C 142 176 152 145 171 123 C 190 100 217 89 251 89 C 279 89 303 94 321 105 C 339 116 355 129 367 143 L 425 77 C 408 56 385 37 356 19 C 326 1 287 -7 239 -7 Z M 142 296 L 324 296 C 323 330 315 358 300 378 C 284 398 263 408 237 408 C 210 408 188 398 171 378 C 154 358 144 330 142 296 Z M 234 559 L 234 559 Z M 289 559 L 180 559 L 180 701 L 289 701 L 289 559 Z" unicode="ė" />
<glyph horiz-adv-x="468" d="M 63 0 L 63 0 Z M 445 0 L 63 0 L 63 730 L 426 730 L 426 617 L 190 617 L 190 419 L 413 419 L 413 308 L 190 308 L 190 113 L 445 113 L 445 0 Z M 393 -7 L 393 -7 Z M 491 -82 L 523 -132 C 502 -154 479 -171 455 -182 C 430 -193 402 -199 372 -199 C 338 -199 311 -191 292 -177 C 272 -162 263 -143 263 -121 C 263 -96 273 -73 293 -51 C 313 -29 343 -10 382 5 L 445 5 C 421 -5 402 -18 387 -32 C 372 -46 365 -59 365 -72 C 365 -84 369 -93 378 -100 C 387 -107 398 -111 412 -111 C 428 -111 443 -108 457 -103 C 470 -97 481 -90 491 -82 Z" unicode="Ę" />
<glyph horiz-adv-x="460" d="M 24 0 L 24 0 Z M 239 -7 C 175 -7 124 15 84 59 C 44 103 24 165 24 244 C 24 283 29 318 40 350 C 50 382 65 409 84 431 C 102 453 125 471 151 483 C 177 495 204 501 234 501 C 300 501 350 476 386 427 C 422 378 440 307 440 214 L 142 214 C 142 176 152 145 171 123 C 190 100 217 89 251 89 C 279 89 303 94 321 105 C 339 116 355 129 367 143 L 425 77 C 408 56 385 37 356 19 C 326 1 287 -7 239 -7 Z M 142 296 L 324 296 C 323 330 315 358 300 378 C 284 398 263 408 237 408 C 210 408 188 398 171 378 C 154 358 144 330 142 296 Z M 271 -7 L 271 -7 Z M 369 -82 L 401 -132 C 380 -154 357 -171 333 -182 C 308 -193 280 -199 250 -199 C 216 -199 189 -191 170 -177 C 150 -162 141 -143 141 -121 C 141 -96 151 -73 171 -51 C 191 -29 221 -10 260 5 L 323 5 C 299 -5 280 -18 265 -32 C 250 -46 243 -59 243 -72 C 243 -84 247 -93 256 -100 C 265 -107 276 -111 290 -111 C 306 -111 321 -108 335 -103 C 348 -97 359 -90 369 -82 Z" unicode="ę" />
<glyph horiz-adv-x="468" d="M 63 0 L 63 0 Z M 445 0 L 63 0 L 63 730 L 426 730 L 426 617 L 190 617 L 190 419 L 413 419 L 413 308 L 190 308 L 190 113 L 445 113 L 445 0 Z M 246 789 L 246 789 Z M 86 962 L 188 962 L 247 869 L 307 962 L 407 962 L 300 789 L 192 789 L 86 962 Z" unicode="Ě" />
<glyph horiz-adv-x="460" d="M 24 0 L 24 0 Z M 239 -7 C 175 -7 124 15 84 59 C 44 103 24 165 24 244 C 24 283 29 318 40 350 C 50 382 65 409 84 431 C 102 453 125 471 151 483 C 177 495 204 501 234 501 C 300 501 350 476 386 427 C 422 378 440 307 440 214 L 142 214 C 142 176 152 145 171 123 C 190 100 217 89 251 89 C 279 89 303 94 321 105 C 339 116 355 129 367 143 L 425 77 C 408 56 385 37 356 19 C 326 1 287 -7 239 -7 Z M 142 296 L 324 296 C 323 330 315 358 300 378 C 284 398 263 408 237 408 C 210 408 188 398 171 378 C 154 358 144 330 142 296 Z M 234 553 L 234 553 Z M 74 726 L 176 726 L 235 633 L 295 726 L 395 726 L 288 553 L 180 553 L 74 726 Z" unicode="ě" />
<glyph horiz-adv-x="614" d="M 34 0 L 34 0 Z M 324 376 L 582 376 L 582 128 C 561 88 529 56 485 30 C 441 4 388 -9 324 -9 C 284 -9 246 0 210 16 C 174 33 144 57 118 89 C 92 121 71 160 56 207 C 41 253 34 306 34 365 C 34 421 41 473 55 519 C 69 565 89 605 115 637 C 141 669 172 694 208 712 C 244 729 283 738 325 738 C 389 738 439 725 475 699 C 510 673 536 642 553 607 L 454 546 C 442 566 427 585 407 601 C 387 617 361 625 327 625 C 279 625 239 603 209 561 C 179 519 164 453 164 364 C 164 274 179 207 211 163 C 243 119 282 97 329 97 C 362 97 390 102 414 114 C 437 126 455 142 467 163 L 467 269 L 324 269 L 324 376 Z M 326 789 L 326 789 Z M 487 789 L 385 789 L 326 882 L 266 789 L 166 789 L 272 962 L 380 962 L 487 789 Z" unicode="Ĝ" />
<glyph horiz-adv-x="491" d="M 24 0 L 24 0 Z M 209 7 C 155 7 111 28 76 72 C 41 115 24 174 24 249 C 24 288 28 323 38 355 C 48 386 61 412 78 434 C 94 455 114 471 137 483 C 159 494 184 500 210 500 C 240 500 267 492 289 477 C 311 462 327 445 337 425 L 337 494 L 446 494 L 446 27 C 446 -11 439 -45 427 -73 C 414 -101 397 -124 376 -142 C 355 -160 331 -173 305 -182 C 278 -190 251 -195 223 -195 C 179 -195 144 -190 117 -181 C 89 -172 69 -163 57 -154 L 95 -67 C 108 -74 124 -81 144 -87 C 164 -93 187 -97 214 -97 C 248 -97 277 -86 299 -66 C 321 -45 332 -15 332 25 L 332 85 C 324 65 309 47 288 31 C 266 15 240 7 209 7 Z M 243 97 C 269 97 291 109 309 134 C 326 159 335 199 335 254 C 335 305 326 343 308 367 C 290 391 267 404 241 404 C 213 404 190 390 174 364 C 157 338 149 300 149 250 C 149 200 157 162 173 136 C 189 110 212 97 243 97 Z M 233 553 L 233 553 Z M 394 553 L 292 553 L 233 646 L 173 553 L 73 553 L 179 726 L 287 726 L 394 553 Z" unicode="ĝ" />
<glyph horiz-adv-x="614" d="M 34 0 L 34 0 Z M 324 376 L 582 376 L 582 128 C 561 88 529 56 485 30 C 441 4 388 -9 324 -9 C 284 -9 246 0 210 16 C 174 33 144 57 118 89 C 92 121 71 160 56 207 C 41 253 34 306 34 365 C 34 421 41 473 55 519 C 69 565 89 605 115 637 C 141 669 172 694 208 712 C 244 729 283 738 325 738 C 389 738 439 725 475 699 C 510 673 536 642 553 607 L 454 546 C 442 566 427 585 407 601 C 387 617 361 625 327 625 C 279 625 239 603 209 561 C 179 519 164 453 164 364 C 164 274 179 207 211 163 C 243 119 282 97 329 97 C 362 97 390 102 414 114 C 437 126 455 142 467 163 L 467 269 L 324 269 L 324 376 Z M 326 791 L 326 791 Z M 380 951 L 479 951 C 475 895 459 854 431 829 C 403 803 368 791 326 791 C 284 791 249 803 221 829 C 193 854 178 895 174 951 L 272 951 C 273 925 278 906 286 892 C 294 878 307 871 326 871 C 344 871 358 877 366 891 C 374 904 379 924 380 951 Z" unicode="Ğ" />
<glyph horiz-adv-x="491" d="M 24 0 L 24 0 Z M 209 7 C 155 7 111 28 76 72 C 41 115 24 174 24 249 C 24 288 28 323 38 355 C 48 386 61 412 78 434 C 94 455 114 471 137 483 C 159 494 184 500 210 500 C 240 500 267 492 289 477 C 311 462 327 445 337 425 L 337 494 L 446 494 L 446 27 C 446 -11 439 -45 427 -73 C 414 -101 397 -124 376 -142 C 355 -160 331 -173 305 -182 C 278 -190 251 -195 223 -195 C 179 -195 144 -190 117 -181 C 89 -172 69 -163 57 -154 L 95 -67 C 108 -74 124 -81 144 -87 C 164 -93 187 -97 214 -97 C 248 -97 277 -86 299 -66 C 321 -45 332 -15 332 25 L 332 85 C 324 65 309 47 288 31 C 266 15 240 7 209 7 Z M 243 97 C 269 97 291 109 309 134 C 326 159 335 199 335 254 C 335 305 326 343 308 367 C 290 391 267 404 241 404 C 213 404 190 390 174 364 C 157 338 149 300 149 250 C 149 200 157 162 173 136 C 189 110 212 97 243 97 Z M 233 555 L 233 555 Z M 287 715 L 386 715 C 382 659 366 618 338 593 C 310 567 275 555 233 555 C 191 555 156 567 128 593 C 100 618 85 659 81 715 L 179 715 C 180 689 185 670 193 656 C 201 642 214 635 233 635 C 251 635 265 641 273 655 C 281 668 286 688 287 715 Z" unicode="ğ" />
<glyph horiz-adv-x="614" d="M 34 0 L 34 0 Z M 324 376 L 582 376 L 582 128 C 561 88 529 56 485 30 C 441 4 388 -9 324 -9 C 284 -9 246 0 210 16 C 174 33 144 57 118 89 C 92 121 71 160 56 207 C 41 253 34 306 34 365 C 34 421 41 473 55 519 C 69 565 89 605 115 637 C 141 669 172 694 208 712 C 244 729 283 738 325 738 C 389 738 439 725 475 699 C 510 673 536 642 553 607 L 454 546 C 442 566 427 585 407 601 C 387 617 361 625 327 625 C 279 625 239 603 209 561 C 179 519 164 453 164 364 C 164 274 179 207 211 163 C 243 119 282 97 329 97 C 362 97 390 102 414 114 C 437 126 455 142 467 163 L 467 269 L 324 269 L 324 376 Z M 326 795 L 326 795 Z M 381 795 L 272 795 L 272 937 L 381 937 L 381 795 Z" unicode="Ġ" />
<glyph horiz-adv-x="491" d="M 24 0 L 24 0 Z M 209 7 C 155 7 111 28 76 72 C 41 115 24 174 24 249 C 24 288 28 323 38 355 C 48 386 61 412 78 434 C 94 455 114 471 137 483 C 159 494 184 500 210 500 C 240 500 267 492 289 477 C 311 462 327 445 337 425 L 337 494 L 446 494 L 446 27 C 446 -11 439 -45 427 -73 C 414 -101 397 -124 376 -142 C 355 -160 331 -173 305 -182 C 278 -190 251 -195 223 -195 C 179 -195 144 -190 117 -181 C 89 -172 69 -163 57 -154 L 95 -67 C 108 -74 124 -81 144 -87 C 164 -93 187 -97 214 -97 C 248 -97 277 -86 299 -66 C 321 -45 332 -15 332 25 L 332 85 C 324 65 309 47 288 31 C 266 15 240 7 209 7 Z M 243 97 C 269 97 291 109 309 134 C 326 159 335 199 335 254 C 335 305 326 343 308 367 C 290 391 267 404 241 404 C 213 404 190 390 174 364 C 157 338 149 300 149 250 C 149 200 157 162 173 136 C 189 110 212 97 243 97 Z M 233 559 L 233 559 Z M 288 559 L 179 559 L 179 701 L 288 701 L 288 559 Z" unicode="ġ" />
<glyph horiz-adv-x="614" d="M 34 0 L 34 0 Z M 324 376 L 582 376 L 582 128 C 561 88 529 56 485 30 C 441 4 388 -9 324 -9 C 284 -9 246 0 210 16 C 174 33 144 57 118 89 C 92 121 71 160 56 207 C 41 253 34 306 34 365 C 34 421 41 473 55 519 C 69 565 89 605 115 637 C 141 669 172 694 208 712 C 244 729 283 738 325 738 C 389 738 439 725 475 699 C 510 673 536 642 553 607 L 454 546 C 442 566 427 585 407 601 C 387 617 361 625 327 625 C 279 625 239 603 209 561 C 179 519 164 453 164 364 C 164 274 179 207 211 163 C 243 119 282 97 329 97 C 362 97 390 102 414 114 C 437 126 455 142 467 163 L 467 269 L 324 269 L 324 376 Z" unicode="Ģ" />
<glyph horiz-adv-x="491" d="M 24 0 L 24 0 Z M 209 7 C 155 7 111 28 76 72 C 41 115 24 174 24 249 C 24 288 28 323 38 355 C 48 386 61 412 78 434 C 94 455 114 471 137 483 C 159 494 184 500 210 500 C 240 500 267 492 289 477 C 311 462 327 445 337 425 L 337 494 L 446 494 L 446 27 C 446 -11 439 -45 427 -73 C 414 -101 397 -124 376 -142 C 355 -160 331 -173 305 -182 C 278 -190 251 -195 223 -195 C 179 -195 144 -190 117 -181 C 89 -172 69 -163 57 -154 L 95 -67 C 108 -74 124 -81 144 -87 C 164 -93 187 -97 214 -97 C 248 -97 277 -86 299 -66 C 321 -45 332 -15 332 25 L 332 85 C 324 65 309 47 288 31 C 266 15 240 7 209 7 Z M 243 97 C 269 97 291 109 309 134 C 326 159 335 199 335 254 C 335 305 326 343 308 367 C 290 391 267 404 241 404 C 213 404 190 390 174 364 C 157 338 149 300 149 250 C 149 200 157 162 173 136 C 189 110 212 97 243 97 Z" unicode="ģ" />
<glyph horiz-adv-x="614" d="M 63 0 L 63 0 Z M 551 0 L 421 0 L 421 304 L 193 304 L 193 0 L 63 0 L 63 730 L 193 730 L 193 417 L 421 417 L 421 730 L 551 730 L 551 0 Z M 306 789 L 306 789 Z M 467 789 L 365 789 L 306 882 L 246 789 L 146 789 L 252 962 L 360 962 L 467 789 Z" unicode="Ĥ" />
<glyph horiz-adv-x="477" d="M 46 0 L 46 0 Z M 434 0 L 315 0 L 315 333 C 315 355 308 371 296 383 C 283 395 266 401 246 401 C 225 401 206 394 190 381 C 174 368 166 347 166 318 L 166 0 L 46 0 L 46 785 L 158 785 L 158 427 C 165 447 180 465 202 480 C 224 494 254 502 290 502 C 332 502 366 490 393 468 C 420 446 434 412 434 366 L 434 0 Z M 249 844 L 249 844 Z M 410 844 L 308 844 L 249 937 L 189 844 L 89 844 L 195 1017 L 303 1017 L 410 844 Z" unicode="ĥ" />
<glyph horiz-adv-x="614" d="M 193 304 L 193 0 L 63 0 L 63 536 L 6 536 L 6 631 L 63 631 L 63 730 L 193 730 L 193 631 L 421 631 L 421 730 L 551 730 L 551 631 L 608 631 L 608 536 L 551 536 L 551 0 L 421 0 L 421 304 L 193 304 Z M 193 417 L 421 417 L 421 536 L 193 536 L 193 417 Z" unicode="Ħ" />
<glyph horiz-adv-x="477" d="M 166 318 L 166 0 L 46 0 L 46 586 L 9 586 L 9 680 L 46 680 L 46 785 L 158 785 L 158 680 L 269 680 L 269 586 L 158 586 L 158 427 C 165 447 180 465 202 480 C 224 494 254 502 290 502 C 332 502 366 490 393 468 C 420 446 434 412 434 366 L 434 0 L 315 0 L 315 333 C 315 355 308 371 296 383 C 283 395 266 401 246 401 C 225 401 206 394 190 381 C 174 368 166 347 166 318 Z" unicode="ħ" />
<glyph horiz-adv-x="265" d="M 0 0 L 0 0 Z M 198 0 L 67 0 L 67 730 L 198 730 L 198 0 Z M 133 793 L 133 793 Z M 212 940 L 302 940 C 302 890 294 853 279 829 C 264 805 245 793 221 793 C 202 793 186 796 172 802 C 158 808 146 815 138 821 C 129 826 120 831 112 837 C 103 843 94 846 86 846 C 77 846 70 841 64 832 C 58 823 56 811 56 796 L -33 796 C -33 845 -23 882 -4 906 C 14 930 35 943 57 943 C 74 943 89 939 101 933 C 113 927 124 920 135 913 C 143 907 151 902 159 898 C 166 893 173 891 181 891 C 188 891 195 895 202 903 C 208 911 212 923 212 940 Z" unicode="Ĩ" />
<glyph horiz-adv-x="217" d="M 0 0 L 0 0 Z M 169 0 L 49 0 L 49 494 L 169 494 L 169 0 Z M 108 557 L 108 557 Z M 187 704 L 277 704 C 277 654 269 617 254 593 C 239 569 220 557 196 557 C 177 557 161 560 147 566 C 133 572 121 579 113 585 C 104 590 95 595 87 601 C 78 607 69 610 61 610 C 52 610 45 605 39 596 C 33 587 31 575 31 560 L -58 560 C -58 609 -48 646 -29 670 C -10 694 10 707 32 707 C 49 707 64 703 76 697 C 88 691 99 684 110 677 C 118 671 126 666 134 662 C 141 657 148 655 156 655 C 163 655 170 659 177 667 C 183 675 187 687 187 704 Z" unicode="ĩ" />
<glyph horiz-adv-x="265" d="M 1 0 L 1 0 Z M 198 0 L 67 0 L 67 730 L 198 730 L 198 0 Z M 133 802 L 133 802 Z M 265 802 L 1 802 L 1 895 L 265 895 L 265 802 Z" unicode="Ī" />
<glyph horiz-adv-x="217" d="M 0 0 L 0 0 Z M 169 0 L 49 0 L 49 494 L 169 494 L 169 0 Z M 108 566 L 108 566 Z M 240 566 L -24 566 L -24 659 L 240 659 L 240 566 Z" unicode="ī" />
<glyph horiz-adv-x="265" d="M 0 0 L 0 0 Z M 198 0 L 67 0 L 67 730 L 198 730 L 198 0 Z M 133 791 L 133 791 Z M 187 951 L 286 951 C 282 895 266 854 238 829 C 210 803 175 791 133 791 C 91 791 56 803 28 829 C 0 854 -15 895 -19 951 L 79 951 C 80 925 85 906 93 892 C 101 878 114 871 133 871 C 151 871 165 877 173 891 C 181 904 186 924 187 951 Z" unicode="Ĭ" />
<glyph horiz-adv-x="217" d="M 0 0 L 0 0 Z M 169 0 L 49 0 L 49 494 L 169 494 L 169 0 Z M 108 555 L 108 555 Z M 162 715 L 261 715 C 257 659 241 618 213 593 C 185 567 150 555 108 555 C 66 555 31 567 3 593 C -24 618 -40 659 -44 715 L 54 715 C 55 689 60 670 68 656 C 76 642 89 635 108 635 C 126 635 140 641 148 655 C 156 668 161 688 162 715 Z" unicode="ĭ" />
<glyph horiz-adv-x="265" d="M 0 0 L 0 0 Z M 198 0 L 67 0 L 67 730 L 198 730 L 198 0 Z M 88 -7 L 88 -7 Z M 186 -82 L 218 -132 C 197 -154 174 -171 150 -182 C 125 -193 97 -199 67 -199 C 33 -199 6 -191 -13 -177 C -32 -162 -42 -143 -42 -121 C -42 -96 -31 -73 -11 -51 C 8 -29 38 -10 77 5 L 140 5 C 116 -5 97 -18 82 -32 C 67 -46 60 -59 60 -72 C 60 -84 64 -93 73 -100 C 82 -107 93 -111 107 -111 C 123 -111 138 -108 152 -103 C 165 -97 176 -90 186 -82 Z" unicode="Į" />
<glyph horiz-adv-x="217" d="M 0 0 L 0 0 Z M 47 572 L 47 685 L 170 685 L 170 572 L 47 572 Z M 49 0 L 49 494 L 169 494 L 169 0 L 49 0 Z M 67 -7 L 67 -7 Z M 165 -82 L 197 -132 C 176 -154 153 -171 129 -182 C 104 -193 76 -199 46 -199 C 12 -199 -14 -191 -34 -177 C -53 -162 -63 -143 -63 -121 C -63 -96 -52 -73 -32 -51 C -12 -29 17 -10 56 5 L 119 5 C 95 -5 76 -18 61 -32 C 46 -46 39 -59 39 -72 C 39 -84 43 -93 52 -100 C 61 -107 72 -111 86 -111 C 102 -111 117 -108 131 -103 C 144 -97 155 -90 165 -82 Z" unicode="į" />
<glyph horiz-adv-x="265" d="M 67 0 L 67 0 Z M 198 0 L 67 0 L 67 730 L 198 730 L 198 0 Z M 133 795 L 133 795 Z M 188 795 L 79 795 L 79 937 L 188 937 L 188 795 Z" unicode="İ" />
<glyph horiz-adv-x="217" d="M 169 0 L 49 0 L 49 494 L 169 494 L 169 0 Z" unicode="ı" />
<glyph horiz-adv-x="567" d="M 67 0 L 67 0 Z M 198 0 L 67 0 L 67 730 L 198 730 L 198 0 Z M 512 730 L 512 188 C 512 132 495 85 462 47 C 428 9 382 -9 324 -9 C 308 -9 292 -7 274 -5 C 256 -3 243 0 233 6 L 249 116 C 254 113 262 111 273 109 C 283 107 293 107 303 107 C 328 107 348 116 362 136 C 376 155 383 178 383 206 L 383 730 L 512 730 Z" unicode="Ĳ" />
<glyph horiz-adv-x="421" d="M 47 0 L 47 0 Z M 47 572 L 47 685 L 170 685 L 170 572 L 47 572 Z M 49 0 L 49 494 L 169 494 L 169 0 L 49 0 Z M 379 572 L 256 572 L 256 685 L 379 685 L 379 572 Z M 377 494 L 377 -57 C 377 -95 364 -127 340 -153 C 316 -179 284 -192 244 -192 C 226 -192 209 -189 191 -185 C 173 -180 160 -175 153 -171 L 177 -85 C 181 -87 187 -88 194 -90 C 201 -91 209 -92 218 -92 C 230 -92 239 -87 247 -78 C 254 -68 258 -56 258 -41 L 258 494 L 377 494 Z" unicode="ĳ" />
<glyph horiz-adv-x="336" d="M 0 0 L 0 0 Z M 279 730 L 279 188 C 279 132 262 85 229 47 C 195 9 149 -9 91 -9 C 75 -9 59 -7 41 -5 C 23 -3 10 0 0 6 L 16 116 C 21 113 29 111 40 109 C 50 107 60 107 70 107 C 95 107 115 116 129 136 C 143 155 150 178 150 206 L 150 730 L 279 730 Z M 213 789 L 213 789 Z M 374 789 L 272 789 L 213 882 L 153 789 L 53 789 L 159 962 L 267 962 L 374 789 Z" unicode="Ĵ" />
<glyph horiz-adv-x="223" d="M 0 0 L 0 0 Z M 178 494 L 178 -57 C 178 -95 165 -127 141 -153 C 117 -179 85 -192 45 -192 C 27 -192 10 -189 -8 -185 C -26 -180 -38 -175 -46 -171 L -22 -85 C -17 -87 -11 -88 -4 -90 C 2 -91 10 -92 19 -92 C 31 -92 40 -87 48 -78 C 55 -68 59 -56 59 -41 L 59 494 L 178 494 Z M 117 553 L 117 553 Z M 278 553 L 176 553 L 117 646 L 57 553 L -43 553 L 63 726 L 171 726 L 278 553 Z" unicode="ĵ" />
<glyph horiz-adv-x="577" d="M 63 0 L 63 0 Z M 583 0 L 433 0 L 234 299 L 194 251 L 194 0 L 63 0 L 63 730 L 194 730 L 194 412 L 419 730 L 560 730 L 319 399 L 583 0 Z M 290 -69 L 290 -69 Z M 389 -69 C 388 -93 384 -119 377 -146 C 370 -173 361 -199 351 -223 C 341 -247 329 -269 317 -289 C 304 -309 292 -323 282 -333 L 191 -292 C 198 -283 206 -270 214 -254 C 222 -238 229 -220 237 -200 C 244 -180 250 -158 256 -136 C 261 -113 264 -91 266 -69 L 389 -69 Z" unicode="Ķ" />
<glyph horiz-adv-x="450" d="M 46 0 L 46 0 Z M 465 1 L 334 0 L 216 192 L 165 127 L 165 0 L 46 0 L 46 785 L 160 785 L 160 261 L 320 494 L 445 494 L 296 281 L 465 1 Z M 225 -69 L 225 -69 Z M 324 -69 C 323 -93 319 -119 312 -146 C 305 -173 296 -199 286 -223 C 276 -247 264 -269 252 -289 C 239 -309 227 -323 217 -333 L 126 -292 C 133 -283 141 -270 149 -254 C 157 -238 164 -220 172 -200 C 179 -180 185 -158 191 -136 C 196 -113 199 -91 201 -69 L 324 -69 Z" unicode="ķ" />
<glyph horiz-adv-x="450" d="M 465 1 L 334 0 L 216 192 L 165 127 L 165 0 L 46 0 L 46 494 L 160 494 L 160 261 L 320 494 L 445 494 L 296 281 L 465 1 Z" unicode="ĸ" />
<glyph horiz-adv-x="419" d="M 63 0 L 63 0 Z M 411 0 L 63 0 L 63 730 L 193 730 L 193 113 L 411 113 L 411 0 Z M 251 789 L 251 789 Z M 135 789 L 229 959 L 368 959 L 251 789 L 135 789 Z" unicode="Ĺ" />
<glyph horiz-adv-x="212" d="M 46 0 L 46 0 Z M 167 844 L 167 844 Z M 51 844 L 145 1014 L 284 1014 L 167 844 L 51 844 Z M 166 785 L 166 0 L 46 0 L 46 785 L 166 785 Z" unicode="ĺ" />
<glyph horiz-adv-x="419" d="M 63 0 L 63 0 Z M 411 0 L 63 0 L 63 730 L 193 730 L 193 113 L 411 113 L 411 0 Z M 227 -69 L 227 -69 Z M 326 -69 C 325 -93 321 -119 314 -146 C 307 -173 298 -199 288 -223 C 278 -247 266 -269 254 -289 C 241 -309 229 -323 219 -333 L 128 -292 C 135 -283 143 -270 151 -254 C 159 -238 166 -220 174 -200 C 181 -180 187 -158 193 -136 C 198 -113 201 -91 203 -69 L 326 -69 Z" unicode="Ļ" />
<glyph horiz-adv-x="212" d="M 0 0 L 0 0 Z M 166 785 L 166 0 L 46 0 L 46 785 L 166 785 Z M 83 -69 L 83 -69 Z M 182 -69 C 181 -93 177 -119 170 -146 C 163 -173 154 -199 144 -223 C 134 -247 122 -269 110 -289 C 97 -309 85 -323 75 -333 L -16 -292 C -8 -283 -1 -270 7 -254 C 15 -238 22 -220 30 -200 C 37 -180 43 -158 49 -136 C 54 -113 57 -91 59 -69 L 182 -69 Z" unicode="ļ" />
<glyph horiz-adv-x="419" d="M 63 0 L 63 0 Z M 411 0 L 63 0 L 63 730 L 193 730 L 193 113 L 411 113 L 411 0 Z M 430 616 L 425 466 L 323 466 L 317 616 L 317 730 L 430 730 L 430 616 Z" unicode="Ľ" />
<glyph horiz-adv-x="212" d="M 46 0 L 46 0 Z M 166 785 L 166 0 L 46 0 L 46 785 L 166 785 Z M 322 616 L 317 466 L 215 466 L 209 616 L 209 730 L 322 730 L 322 616 Z" unicode="ľ" />
<glyph horiz-adv-x="419" d="M 63 0 L 63 0 Z M 411 0 L 63 0 L 63 730 L 193 730 L 193 113 L 411 113 L 411 0 Z M 320 292 L 320 292 Z M 375 292 L 266 292 L 266 434 L 375 434 L 375 292 Z" unicode="Ŀ" />
<glyph horiz-adv-x="212" d="M 46 0 L 46 0 Z M 166 785 L 166 0 L 46 0 L 46 785 L 166 785 Z M 259 212 L 259 212 Z M 314 212 L 205 212 L 205 354 L 314 354 L 314 212 Z" unicode="ŀ" />
<glyph horiz-adv-x="419" d="M 406 108 L 406 0 L 63 0 L 63 254 L 25 238 L -17 329 L 63 363 L 63 730 L 193 730 L 193 419 L 317 472 L 358 381 L 193 310 L 193 108 L 406 108 Z" unicode="Ł" />
<glyph horiz-adv-x="212" d="M 245 341 L 175 308 L 175 0 L 55 0 L 55 251 L 20 234 L -14 314 L 55 347 L 55 785 L 175 785 L 175 403 L 211 420 L 245 341 Z" unicode="ł" />
<glyph horiz-adv-x="616" d="M 63 0 L 63 0 Z M 553 0 L 462 0 L 185 458 L 185 0 L 63 0 L 63 730 L 157 730 L 434 275 L 434 730 L 553 730 L 553 0 Z M 308 789 L 308 789 Z M 192 789 L 286 959 L 425 959 L 308 789 L 192 789 Z" unicode="Ń" />
<glyph horiz-adv-x="477" d="M 46 0 L 46 0 Z M 434 0 L 315 0 L 315 336 C 315 356 308 372 296 384 C 284 396 267 402 247 402 C 225 402 206 395 190 382 C 174 369 166 347 166 317 L 166 0 L 46 0 L 46 494 L 155 494 L 155 421 C 163 444 179 463 203 479 C 227 494 256 502 292 502 C 334 502 368 491 394 469 C 420 447 434 414 434 371 L 434 0 Z M 243 553 L 243 553 Z M 127 553 L 221 723 L 360 723 L 243 553 L 127 553 Z" unicode="ń" />
<glyph horiz-adv-x="616" d="M 63 0 L 63 0 Z M 553 0 L 462 0 L 185 458 L 185 0 L 63 0 L 63 730 L 157 730 L 434 275 L 434 730 L 553 730 L 553 0 Z M 293 -69 L 293 -69 Z M 392 -69 C 391 -93 387 -119 380 -146 C 373 -173 364 -199 354 -223 C 344 -247 332 -269 320 -289 C 307 -309 295 -323 285 -333 L 194 -292 C 201 -283 209 -270 217 -254 C 225 -238 232 -220 240 -200 C 247 -180 253 -158 259 -136 C 264 -113 267 -91 269 -69 L 392 -69 Z" unicode="Ņ" />
<glyph horiz-adv-x="477" d="M 46 0 L 46 0 Z M 434 0 L 315 0 L 315 336 C 315 356 308 372 296 384 C 284 396 267 402 247 402 C 225 402 206 395 190 382 C 174 369 166 347 166 317 L 166 0 L 46 0 L 46 494 L 155 494 L 155 421 C 163 444 179 463 203 479 C 227 494 256 502 292 502 C 334 502 368 491 394 469 C 420 447 434 414 434 371 L 434 0 Z M 223 -69 L 223 -69 Z M 322 -69 C 321 -93 317 -119 310 -146 C 303 -173 294 -199 284 -223 C 274 -247 262 -269 250 -289 C 237 -309 225 -323 215 -333 L 124 -292 C 131 -283 139 -270 147 -254 C 155 -238 162 -220 170 -200 C 177 -180 183 -158 189 -136 C 194 -113 197 -91 199 -69 L 322 -69 Z" unicode="ņ" />
<glyph horiz-adv-x="616" d="M 63 0 L 63 0 Z M 553 0 L 462 0 L 185 458 L 185 0 L 63 0 L 63 730 L 157 730 L 434 275 L 434 730 L 553 730 L 553 0 Z M 308 789 L 308 789 Z M 148 962 L 250 962 L 309 869 L 369 962 L 469 962 L 362 789 L 254 789 L 148 962 Z" unicode="Ň" />
<glyph horiz-adv-x="477" d="M 46 0 L 46 0 Z M 434 0 L 315 0 L 315 336 C 315 356 308 372 296 384 C 284 396 267 402 247 402 C 225 402 206 395 190 382 C 174 369 166 347 166 317 L 166 0 L 46 0 L 46 494 L 155 494 L 155 421 C 163 444 179 463 203 479 C 227 494 256 502 292 502 C 334 502 368 491 394 469 C 420 447 434 414 434 371 L 434 0 Z M 243 553 L 243 553 Z M 83 726 L 185 726 L 244 633 L 304 726 L 404 726 L 297 553 L 189 553 L 83 726 Z" unicode="ň" />
<glyph horiz-adv-x="617" d="M 434 730 L 553 730 L 553 -1 C 553 -59 537 -106 507 -143 C 476 -179 433 -198 377 -198 C 360 -198 343 -196 325 -193 C 307 -190 292 -186 282 -180 L 297 -71 C 303 -74 311 -77 323 -79 C 335 -81 346 -82 357 -82 C 380 -82 399 -72 413 -53 C 427 -33 435 -10 435 18 L 435 45 L 185 458 L 185 0 L 63 0 L 63 730 L 157 730 L 434 275 L 434 730 Z" unicode="Ŋ" />
<glyph horiz-adv-x="477" d="M 292 502 C 334 502 368 491 394 469 C 420 447 434 414 434 371 L 434 -41 C 434 -87 420 -125 394 -155 C 368 -185 332 -200 286 -200 C 270 -200 254 -198 236 -195 C 218 -191 204 -187 196 -183 L 217 -88 C 221 -90 228 -92 236 -94 C 244 -95 253 -96 262 -96 C 278 -96 290 -89 300 -75 C 310 -61 315 -44 315 -23 L 315 336 C 315 356 308 372 296 384 C 284 396 267 402 247 402 C 225 402 206 395 190 382 C 174 369 166 347 166 317 L 166 0 L 46 0 L 46 494 L 155 494 L 155 421 C 163 444 179 463 203 479 C 227 494 256 502 292 502 Z" unicode="ŋ" />
<glyph horiz-adv-x="657" d="M 34 0 L 34 0 Z M 331 -9 C 236 -9 163 24 111 92 C 59 160 34 253 34 371 C 34 427 41 477 55 523 C 69 568 88 607 114 639 C 139 671 170 695 206 713 C 242 730 281 739 325 739 C 418 739 491 706 544 640 C 596 574 623 483 623 366 C 623 308 615 256 601 210 C 586 163 566 123 540 91 C 514 59 484 34 448 17 C 412 0 373 -9 331 -9 Z M 331 100 C 379 100 418 122 448 166 C 477 210 492 278 492 370 C 492 455 476 519 446 563 C 416 606 376 628 326 628 C 276 628 236 607 208 565 C 180 523 166 457 166 366 C 166 274 181 206 212 164 C 242 121 282 100 331 100 Z M 327 802 L 327 802 Z M 459 802 L 195 802 L 195 895 L 459 895 L 459 802 Z" unicode="Ō" />
<glyph horiz-adv-x="481" d="M 23 0 L 23 0 Z M 239 -7 C 209 -7 181 -1 155 9 C 129 20 106 36 86 57 C 66 78 51 104 40 136 C 28 168 23 204 23 246 C 23 284 28 318 39 350 C 50 381 65 408 84 430 C 102 452 125 470 151 482 C 177 494 205 501 235 501 C 267 501 296 495 324 484 C 351 473 374 457 394 437 C 414 416 429 391 441 361 C 452 331 458 297 458 259 C 458 178 437 113 396 65 C 355 17 303 -7 239 -7 Z M 241 89 C 269 89 292 102 308 128 C 324 154 333 195 333 251 C 333 305 324 343 308 367 C 291 391 267 403 237 403 C 209 403 188 390 172 366 C 156 342 148 302 148 248 C 148 189 156 148 174 124 C 191 100 213 89 241 89 Z M 239 566 L 239 566 Z M 371 566 L 107 566 L 107 659 L 371 659 L 371 566 Z" unicode="ō" />
<glyph horiz-adv-x="657" d="M 34 0 L 34 0 Z M 331 -9 C 236 -9 163 24 111 92 C 59 160 34 253 34 371 C 34 427 41 477 55 523 C 69 568 88 607 114 639 C 139 671 170 695 206 713 C 242 730 281 739 325 739 C 418 739 491 706 544 640 C 596 574 623 483 623 366 C 623 308 615 256 601 210 C 586 163 566 123 540 91 C 514 59 484 34 448 17 C 412 0 373 -9 331 -9 Z M 331 100 C 379 100 418 122 448 166 C 477 210 492 278 492 370 C 492 455 476 519 446 563 C 416 606 376 628 326 628 C 276 628 236 607 208 565 C 180 523 166 457 166 366 C 166 274 181 206 212 164 C 242 121 282 100 331 100 Z M 327 791 L 327 791 Z M 381 951 L 480 951 C 476 895 460 854 432 829 C 404 803 369 791 327 791 C 285 791 250 803 222 829 C 194 854 179 895 175 951 L 273 951 C 274 925 279 906 287 892 C 295 878 308 871 327 871 C 345 871 359 877 367 891 C 375 904 380 924 381 951 Z" unicode="Ŏ" />
<glyph horiz-adv-x="481" d="M 23 0 L 23 0 Z M 239 -7 C 209 -7 181 -1 155 9 C 129 20 106 36 86 57 C 66 78 51 104 40 136 C 28 168 23 204 23 246 C 23 284 28 318 39 350 C 50 381 65 408 84 430 C 102 452 125 470 151 482 C 177 494 205 501 235 501 C 267 501 296 495 324 484 C 351 473 374 457 394 437 C 414 416 429 391 441 361 C 452 331 458 297 458 259 C 458 178 437 113 396 65 C 355 17 303 -7 239 -7 Z M 241 89 C 269 89 292 102 308 128 C 324 154 333 195 333 251 C 333 305 324 343 308 367 C 291 391 267 403 237 403 C 209 403 188 390 172 366 C 156 342 148 302 148 248 C 148 189 156 148 174 124 C 191 100 213 89 241 89 Z M 239 555 L 239 555 Z M 293 715 L 392 715 C 388 659 372 618 344 593 C 316 567 281 555 239 555 C 197 555 162 567 134 593 C 106 618 91 659 87 715 L 185 715 C 186 689 191 670 199 656 C 207 642 220 635 239 635 C 257 635 271 641 279 655 C 287 668 292 688 293 715 Z" unicode="ŏ" />
<glyph horiz-adv-x="657" d="M 34 0 L 34 0 Z M 331 -9 C 236 -9 163 24 111 92 C 59 160 34 253 34 371 C 34 427 41 477 55 523 C 69 568 88 607 114 639 C 139 671 170 695 206 713 C 242 730 281 739 325 739 C 418 739 491 706 544 640 C 596 574 623 483 623 366 C 623 308 615 256 601 210 C 586 163 566 123 540 91 C 514 59 484 34 448 17 C 412 0 373 -9 331 -9 Z M 331 100 C 379 100 418 122 448 166 C 477 210 492 278 492 370 C 492 455 476 519 446 563 C 416 606 376 628 326 628 C 276 628 236 607 208 565 C 180 523 166 457 166 366 C 166 274 181 206 212 164 C 242 121 282 100 331 100 Z M 327 788 L 327 788 Z M 128 788 L 205 948 L 332 948 L 233 788 L 128 788 Z M 322 788 L 399 948 L 526 948 L 427 788 L 322 788 Z" unicode="Ő" />
<glyph horiz-adv-x="481" d="M 23 0 L 23 0 Z M 239 -7 C 209 -7 181 -1 155 9 C 129 20 106 36 86 57 C 66 78 51 104 40 136 C 28 168 23 204 23 246 C 23 284 28 318 39 350 C 50 381 65 408 84 430 C 102 452 125 470 151 482 C 177 494 205 501 235 501 C 267 501 296 495 324 484 C 351 473 374 457 394 437 C 414 416 429 391 441 361 C 452 331 458 297 458 259 C 458 178 437 113 396 65 C 355 17 303 -7 239 -7 Z M 241 89 C 269 89 292 102 308 128 C 324 154 333 195 333 251 C 333 305 324 343 308 367 C 291 391 267 403 237 403 C 209 403 188 390 172 366 C 156 342 148 302 148 248 C 148 189 156 148 174 124 C 191 100 213 89 241 89 Z M 239 552 L 239 552 Z M 40 552 L 117 712 L 244 712 L 145 552 L 40 552 Z M 234 552 L 311 712 L 438 712 L 339 552 L 234 552 Z" unicode="ő" />
<glyph horiz-adv-x="884" d="M 306 -8 C 222 -8 155 25 107 91 C 58 157 34 250 34 370 C 34 426 40 477 54 523 C 68 569 87 607 111 639 C 135 671 164 695 198 712 C 232 729 268 738 308 738 C 350 738 386 728 418 708 C 450 688 471 664 482 638 L 482 730 L 842 730 L 842 620 L 606 620 L 606 417 L 830 417 L 830 308 L 606 308 L 606 110 L 861 110 L 861 0 L 482 0 L 482 100 C 471 72 450 47 420 25 C 389 3 351 -8 306 -8 Z M 325 92 C 373 92 411 114 439 159 C 467 204 482 275 482 371 C 482 461 466 528 435 571 C 404 613 367 635 323 635 C 274 635 236 613 208 571 C 180 529 166 460 166 365 C 166 268 180 198 210 156 C 239 113 277 92 325 92 Z" unicode="Œ" />
<glyph horiz-adv-x="766" d="M 235 -7 C 205 -7 178 -1 152 9 C 126 20 104 36 85 58 C 65 79 50 105 39 137 C 28 169 23 205 23 246 C 23 284 28 318 39 350 C 49 381 64 408 83 430 C 102 452 125 470 151 482 C 177 494 205 501 236 501 C 280 501 316 490 343 470 C 369 449 386 427 393 405 C 395 415 401 426 409 438 C 417 449 428 459 441 469 C 453 478 468 486 486 492 C 503 498 522 501 543 501 C 607 501 657 476 692 427 C 727 377 745 307 745 215 L 449 215 C 449 177 458 146 478 123 C 498 99 524 88 557 88 C 585 88 608 93 627 104 C 645 115 661 128 674 142 L 732 76 C 714 55 691 36 663 19 C 635 1 597 -7 550 -7 C 505 -7 469 2 442 22 C 414 42 397 63 390 86 C 381 64 363 43 337 23 C 310 3 276 -7 235 -7 Z M 449 295 L 630 295 C 629 330 621 358 605 378 C 589 398 567 408 541 408 C 514 408 493 397 477 377 C 461 357 451 329 449 295 Z M 241 89 C 270 89 293 101 309 127 C 325 152 334 194 334 252 C 334 306 325 344 308 368 C 291 391 268 403 238 403 C 210 403 188 390 172 366 C 156 342 148 303 148 249 C 148 189 156 148 174 124 C 191 100 213 89 241 89 Z" unicode="œ" />
<glyph horiz-adv-x="531" d="M 63 0 L 63 0 Z M 63 0 L 63 730 L 267 730 C 295 730 322 725 347 717 C 371 708 393 695 411 679 C 429 662 443 641 453 616 C 463 591 469 562 469 529 C 469 473 456 428 431 392 C 405 356 375 335 340 329 L 338 324 L 528 0 L 389 0 L 223 291 L 186 291 L 186 0 L 63 0 Z M 186 399 L 245 399 C 273 399 297 409 316 429 C 335 449 345 477 345 513 C 345 549 335 577 316 595 C 297 613 274 623 248 623 L 186 623 L 186 399 Z M 252 789 L 252 789 Z M 136 789 L 230 959 L 369 959 L 252 789 L 136 789 Z" unicode="Ŕ" />
<glyph horiz-adv-x="358" d="M 46 0 L 46 0 Z M 363 471 L 320 370 C 308 380 297 386 286 390 C 275 393 263 395 251 395 C 232 395 213 387 194 371 C 175 355 166 329 166 291 L 166 0 L 46 0 L 46 494 L 159 494 L 159 415 C 165 435 179 455 200 473 C 220 491 246 501 276 501 C 295 501 312 498 327 492 C 342 486 354 479 363 471 Z M 208 553 L 208 553 Z M 92 553 L 186 723 L 325 723 L 208 553 L 92 553 Z" unicode="ŕ" />
<glyph horiz-adv-x="531" d="M 63 0 L 63 0 Z M 63 0 L 63 730 L 267 730 C 295 730 322 725 347 717 C 371 708 393 695 411 679 C 429 662 443 641 453 616 C 463 591 469 562 469 529 C 469 473 456 428 431 392 C 405 356 375 335 340 329 L 338 324 L 528 0 L 389 0 L 223 291 L 186 291 L 186 0 L 63 0 Z M 186 399 L 245 399 C 273 399 297 409 316 429 C 335 449 345 477 345 513 C 345 549 335 577 316 595 C 297 613 274 623 248 623 L 186 623 L 186 399 Z M 259 -69 L 259 -69 Z M 358 -69 C 357 -93 353 -119 346 -146 C 339 -173 330 -199 320 -223 C 310 -247 298 -269 286 -289 C 273 -309 261 -323 251 -333 L 160 -292 C 167 -283 175 -270 183 -254 C 191 -238 198 -220 206 -200 C 213 -180 219 -158 225 -136 C 230 -113 233 -91 235 -69 L 358 -69 Z" unicode="Ŗ" />
<glyph horiz-adv-x="358" d="M 46 0 L 46 0 Z M 363 471 L 320 370 C 308 380 297 386 286 390 C 275 393 263 395 251 395 C 232 395 213 387 194 371 C 175 355 166 329 166 291 L 166 0 L 46 0 L 46 494 L 159 494 L 159 415 C 165 435 179 455 200 473 C 220 491 246 501 276 501 C 295 501 312 498 327 492 C 342 486 354 479 363 471 Z M 188 -69 L 188 -69 Z M 287 -69 C 286 -93 282 -119 275 -146 C 268 -173 259 -199 249 -223 C 239 -247 227 -269 215 -289 C 202 -309 190 -323 180 -333 L 89 -292 C 96 -283 104 -270 112 -254 C 120 -238 127 -220 135 -200 C 142 -180 148 -158 154 -136 C 159 -113 162 -91 164 -69 L 287 -69 Z" unicode="ŗ" />
<glyph horiz-adv-x="531" d="M 63 0 L 63 0 Z M 63 0 L 63 730 L 267 730 C 295 730 322 725 347 717 C 371 708 393 695 411 679 C 429 662 443 641 453 616 C 463 591 469 562 469 529 C 469 473 456 428 431 392 C 405 356 375 335 340 329 L 338 324 L 528 0 L 389 0 L 223 291 L 186 291 L 186 0 L 63 0 Z M 186 399 L 245 399 C 273 399 297 409 316 429 C 335 449 345 477 345 513 C 345 549 335 577 316 595 C 297 613 274 623 248 623 L 186 623 L 186 399 Z M 252 789 L 252 789 Z M 92 962 L 194 962 L 253 869 L 313 962 L 413 962 L 306 789 L 198 789 L 92 962 Z" unicode="Ř" />
<glyph horiz-adv-x="358" d="M 46 0 L 46 0 Z M 363 471 L 320 370 C 308 380 297 386 286 390 C 275 393 263 395 251 395 C 232 395 213 387 194 371 C 175 355 166 329 166 291 L 166 0 L 46 0 L 46 494 L 159 494 L 159 415 C 165 435 179 455 200 473 C 220 491 246 501 276 501 C 295 501 312 498 327 492 C 342 486 354 479 363 471 Z M 208 553 L 208 553 Z M 48 726 L 150 726 L 209 633 L 269 726 L 369 726 L 262 553 L 154 553 L 48 726 Z" unicode="ř" />
<glyph horiz-adv-x="474" d="M 17 0 L 17 0 Z M 239 -9 C 192 -9 150 -2 114 11 C 78 25 45 48 17 81 L 91 165 C 106 143 127 126 153 113 C 179 100 205 94 232 94 C 258 94 280 102 299 118 C 318 134 328 157 328 186 C 328 214 319 238 301 257 C 283 276 252 298 208 324 C 157 350 116 381 86 415 C 55 449 40 496 40 556 C 40 583 45 608 56 631 C 66 653 81 673 99 689 C 117 705 138 717 163 726 C 187 734 214 739 243 739 C 287 739 324 732 355 718 C 385 704 410 688 429 670 L 362 582 C 347 595 330 606 310 616 C 290 625 269 630 247 630 C 223 630 202 623 186 609 C 169 595 161 575 161 551 C 161 526 169 505 185 488 C 201 471 235 449 285 423 C 343 392 384 359 410 324 C 435 289 448 244 448 190 C 448 157 442 128 430 103 C 418 78 403 57 384 41 C 364 24 342 11 317 3 C 291 -4 265 -9 239 -9 Z M 238 789 L 238 789 Z M 122 789 L 216 959 L 355 959 L 238 789 L 122 789 Z" unicode="Ś" />
<glyph horiz-adv-x="370" d="M 17 0 L 17 0 Z M 195 -8 C 156 -8 121 -1 91 11 C 60 23 35 40 17 60 L 72 137 C 86 121 104 109 125 100 C 146 91 166 87 185 87 C 201 87 214 91 226 100 C 237 108 243 121 243 137 C 243 152 235 165 220 176 C 204 187 182 199 152 213 C 116 227 87 246 66 270 C 44 294 34 326 34 367 C 34 405 48 437 77 463 C 106 489 143 502 187 502 C 221 502 252 497 278 487 C 304 477 324 466 339 454 L 291 370 C 279 378 264 386 247 394 C 230 402 213 406 196 406 C 180 406 167 402 155 396 C 143 389 138 379 138 367 C 138 353 144 342 157 333 C 169 324 192 312 226 297 C 266 277 297 256 318 233 C 338 210 349 178 349 137 C 349 113 344 92 335 74 C 326 56 314 40 300 28 C 286 16 269 7 251 1 C 232 -5 213 -8 195 -8 Z M 190 553 L 190 553 Z M 74 553 L 168 723 L 307 723 L 190 553 L 74 553 Z" unicode="ś" />
<glyph horiz-adv-x="474" d="M 17 0 L 17 0 Z M 239 -9 C 192 -9 150 -2 114 11 C 78 25 45 48 17 81 L 91 165 C 106 143 127 126 153 113 C 179 100 205 94 232 94 C 258 94 280 102 299 118 C 318 134 328 157 328 186 C 328 214 319 238 301 257 C 283 276 252 298 208 324 C 157 350 116 381 86 415 C 55 449 40 496 40 556 C 40 583 45 608 56 631 C 66 653 81 673 99 689 C 117 705 138 717 163 726 C 187 734 214 739 243 739 C 287 739 324 732 355 718 C 385 704 410 688 429 670 L 362 582 C 347 595 330 606 310 616 C 290 625 269 630 247 630 C 223 630 202 623 186 609 C 169 595 161 575 161 551 C 161 526 169 505 185 488 C 201 471 235 449 285 423 C 343 392 384 359 410 324 C 435 289 448 244 448 190 C 448 157 442 128 430 103 C 418 78 403 57 384 41 C 364 24 342 11 317 3 C 291 -4 265 -9 239 -9 Z M 238 789 L 238 789 Z M 399 789 L 297 789 L 238 882 L 178 789 L 78 789 L 184 962 L 292 962 L 399 789 Z" unicode="Ŝ" />
<glyph horiz-adv-x="370" d="M 17 0 L 17 0 Z M 195 -8 C 156 -8 121 -1 91 11 C 60 23 35 40 17 60 L 72 137 C 86 121 104 109 125 100 C 146 91 166 87 185 87 C 201 87 214 91 226 100 C 237 108 243 121 243 137 C 243 152 235 165 220 176 C 204 187 182 199 152 213 C 116 227 87 246 66 270 C 44 294 34 326 34 367 C 34 405 48 437 77 463 C 106 489 143 502 187 502 C 221 502 252 497 278 487 C 304 477 324 466 339 454 L 291 370 C 279 378 264 386 247 394 C 230 402 213 406 196 406 C 180 406 167 402 155 396 C 143 389 138 379 138 367 C 138 353 144 342 157 333 C 169 324 192 312 226 297 C 266 277 297 256 318 233 C 338 210 349 178 349 137 C 349 113 344 92 335 74 C 326 56 314 40 300 28 C 286 16 269 7 251 1 C 232 -5 213 -8 195 -8 Z M 190 553 L 190 553 Z M 351 553 L 249 553 L 190 646 L 130 553 L 30 553 L 136 726 L 244 726 L 351 553 Z" unicode="ŝ" />
<glyph horiz-adv-x="474" d="M 17 0 L 17 0 Z M 239 -9 C 192 -9 150 -2 114 11 C 78 25 45 48 17 81 L 91 165 C 106 143 127 126 153 113 C 179 100 205 94 232 94 C 258 94 280 102 299 118 C 318 134 328 157 328 186 C 328 214 319 238 301 257 C 283 276 252 298 208 324 C 157 350 116 381 86 415 C 55 449 40 496 40 556 C 40 583 45 608 56 631 C 66 653 81 673 99 689 C 117 705 138 717 163 726 C 187 734 214 739 243 739 C 287 739 324 732 355 718 C 385 704 410 688 429 670 L 362 582 C 347 595 330 606 310 616 C 290 625 269 630 247 630 C 223 630 202 623 186 609 C 169 595 161 575 161 551 C 161 526 169 505 185 488 C 201 471 235 449 285 423 C 343 392 384 359 410 324 C 435 289 448 244 448 190 C 448 157 442 128 430 103 C 418 78 403 57 384 41 C 364 24 342 11 317 3 C 291 -4 265 -9 239 -9 Z M 218 -1 L 218 -1 Z M 224 -186 C 201 -186 178 -183 156 -177 C 133 -171 115 -163 102 -154 L 122 -106 C 129 -110 139 -115 153 -121 C 167 -127 181 -130 197 -130 C 207 -130 217 -127 225 -122 C 233 -116 238 -109 238 -101 C 238 -91 234 -83 227 -79 C 219 -75 211 -73 203 -73 C 196 -73 190 -73 185 -74 C 180 -75 175 -77 171 -79 L 155 -60 L 214 13 L 278 13 L 233 -44 C 262 -40 286 -44 306 -56 C 325 -68 335 -85 335 -109 C 335 -133 324 -152 302 -166 C 280 -179 254 -186 224 -186 Z" unicode="Ş" />
<glyph horiz-adv-x="370" d="M 17 0 L 17 0 Z M 195 -8 C 156 -8 121 -1 91 11 C 60 23 35 40 17 60 L 72 137 C 86 121 104 109 125 100 C 146 91 166 87 185 87 C 201 87 214 91 226 100 C 237 108 243 121 243 137 C 243 152 235 165 220 176 C 204 187 182 199 152 213 C 116 227 87 246 66 270 C 44 294 34 326 34 367 C 34 405 48 437 77 463 C 106 489 143 502 187 502 C 221 502 252 497 278 487 C 304 477 324 466 339 454 L 291 370 C 279 378 264 386 247 394 C 230 402 213 406 196 406 C 180 406 167 402 155 396 C 143 389 138 379 138 367 C 138 353 144 342 157 333 C 169 324 192 312 226 297 C 266 277 297 256 318 233 C 338 210 349 178 349 137 C 349 113 344 92 335 74 C 326 56 314 40 300 28 C 286 16 269 7 251 1 C 232 -5 213 -8 195 -8 Z M 175 0 L 175 0 Z M 181 -185 C 158 -185 135 -182 113 -176 C 90 -170 72 -162 59 -153 L 79 -105 C 86 -109 96 -114 110 -120 C 124 -126 138 -129 154 -129 C 164 -129 174 -126 182 -121 C 190 -115 195 -108 195 -100 C 195 -90 191 -82 184 -78 C 176 -74 168 -72 160 -72 C 153 -72 147 -72 142 -73 C 137 -74 132 -76 128 -78 L 112 -59 L 171 14 L 235 14 L 190 -43 C 219 -39 243 -43 263 -55 C 282 -67 292 -84 292 -108 C 292 -132 281 -151 259 -165 C 237 -178 211 -185 181 -185 Z" unicode="ş" />
<glyph horiz-adv-x="474" d="M 17 0 L 17 0 Z M 239 -9 C 192 -9 150 -2 114 11 C 78 25 45 48 17 81 L 91 165 C 106 143 127 126 153 113 C 179 100 205 94 232 94 C 258 94 280 102 299 118 C 318 134 328 157 328 186 C 328 214 319 238 301 257 C 283 276 252 298 208 324 C 157 350 116 381 86 415 C 55 449 40 496 40 556 C 40 583 45 608 56 631 C 66 653 81 673 99 689 C 117 705 138 717 163 726 C 187 734 214 739 243 739 C 287 739 324 732 355 718 C 385 704 410 688 429 670 L 362 582 C 347 595 330 606 310 616 C 290 625 269 630 247 630 C 223 630 202 623 186 609 C 169 595 161 575 161 551 C 161 526 169 505 185 488 C 201 471 235 449 285 423 C 343 392 384 359 410 324 C 435 289 448 244 448 190 C 448 157 442 128 430 103 C 418 78 403 57 384 41 C 364 24 342 11 317 3 C 291 -4 265 -9 239 -9 Z M 238 789 L 238 789 Z M 78 962 L 180 962 L 239 869 L 299 962 L 399 962 L 292 789 L 184 789 L 78 962 Z" unicode="Š" />
<glyph horiz-adv-x="370" d="M 17 0 L 17 0 Z M 195 -8 C 156 -8 121 -1 91 11 C 60 23 35 40 17 60 L 72 137 C 86 121 104 109 125 100 C 146 91 166 87 185 87 C 201 87 214 91 226 100 C 237 108 243 121 243 137 C 243 152 235 165 220 176 C 204 187 182 199 152 213 C 116 227 87 246 66 270 C 44 294 34 326 34 367 C 34 405 48 437 77 463 C 106 489 143 502 187 502 C 221 502 252 497 278 487 C 304 477 324 466 339 454 L 291 370 C 279 378 264 386 247 394 C 230 402 213 406 196 406 C 180 406 167 402 155 396 C 143 389 138 379 138 367 C 138 353 144 342 157 333 C 169 324 192 312 226 297 C 266 277 297 256 318 233 C 338 210 349 178 349 137 C 349 113 344 92 335 74 C 326 56 314 40 300 28 C 286 16 269 7 251 1 C 232 -5 213 -8 195 -8 Z M 190 553 L 190 553 Z M 30 726 L 132 726 L 191 633 L 251 726 L 351 726 L 244 553 L 136 553 L 30 726 Z" unicode="š" />
<glyph horiz-adv-x="446" d="M 7 0 L 7 0 Z M 439 617 L 287 617 L 287 0 L 157 0 L 157 617 L 7 617 L 7 730 L 439 730 L 439 617 Z M 222 789 L 222 789 Z M 62 962 L 164 962 L 223 869 L 283 962 L 383 962 L 276 789 L 168 789 L 62 962 Z" unicode="Ť" />
<glyph horiz-adv-x="278" d="M 7 0 L 7 0 Z M 255 108 L 275 17 C 267 11 257 6 243 2 C 229 -2 213 -5 193 -5 C 177 -5 162 -2 146 2 C 130 7 115 15 102 27 C 88 38 77 53 69 71 C 61 89 57 110 57 136 L 57 393 L 7 393 L 7 494 L 60 494 L 60 624 L 174 636 L 174 494 L 256 494 L 256 393 L 176 393 L 176 145 C 176 129 179 118 187 110 C 195 102 205 99 218 99 C 225 99 232 100 239 102 C 246 104 251 106 255 108 Z M 386 616 L 381 466 L 279 466 L 273 616 L 273 730 L 386 730 L 386 616 Z" unicode="ť" />
<glyph horiz-adv-x="446" d="M 398 413 L 287 413 L 287 0 L 157 0 L 157 413 L 46 413 L 46 510 L 157 510 L 157 617 L 7 617 L 7 730 L 439 730 L 439 617 L 287 617 L 287 510 L 398 510 L 398 413 Z" unicode="Ŧ" />
<glyph horiz-adv-x="278" d="M 275 17 C 267 11 257 6 243 2 C 229 -2 213 -5 193 -5 C 177 -5 162 -2 146 2 C 130 7 115 15 102 27 C 88 38 77 53 69 71 C 61 89 57 110 57 136 L 57 246 L 16 246 L 16 337 L 57 337 L 57 393 L 7 393 L 7 494 L 60 494 L 60 624 L 174 636 L 174 494 L 256 494 L 256 393 L 176 393 L 176 337 L 239 337 L 239 246 L 176 246 L 176 145 C 176 129 179 118 187 110 C 195 102 205 99 218 99 C 225 99 232 100 239 102 C 246 104 251 106 255 108 L 275 17 Z" unicode="ŧ" />
<glyph horiz-adv-x="610" d="M 59 0 L 59 0 Z M 551 730 L 551 238 C 551 196 544 159 530 128 C 516 97 498 71 475 51 C 452 31 425 16 395 6 C 365 -4 333 -9 300 -9 C 267 -9 236 -4 207 5 C 178 15 153 30 131 50 C 109 70 91 95 78 126 C 65 157 59 194 59 238 L 59 730 L 187 730 L 187 234 C 187 190 198 157 220 136 C 242 115 269 105 302 105 C 334 105 362 115 385 135 C 408 155 420 188 420 234 L 420 730 L 551 730 Z M 303 793 L 303 793 Z M 382 940 L 472 940 C 472 890 464 853 449 829 C 434 805 415 793 391 793 C 372 793 356 796 342 802 C 328 808 316 815 308 821 C 299 826 290 831 282 837 C 273 843 264 846 256 846 C 247 846 240 841 234 832 C 228 823 226 811 226 796 L 137 796 C 137 845 146 882 165 906 C 184 930 205 943 227 943 C 244 943 259 939 271 933 C 283 927 294 920 305 913 C 313 907 321 902 329 898 C 336 893 343 891 351 891 C 358 891 365 895 372 903 C 378 911 382 923 382 940 Z" unicode="Ũ" />
<glyph horiz-adv-x="478" d="M 44 0 L 44 0 Z M 44 494 L 163 494 L 163 163 C 163 136 169 117 182 105 C 195 93 213 87 235 87 C 256 87 274 94 289 108 C 304 122 312 146 312 179 L 312 494 L 431 494 L 431 0 L 320 0 L 320 68 C 310 46 294 28 270 14 C 246 0 217 -8 185 -8 C 147 -8 114 3 86 27 C 58 50 44 85 44 133 L 44 494 Z M 237 557 L 237 557 Z M 316 704 L 406 704 C 406 654 398 617 383 593 C 368 569 349 557 325 557 C 306 557 290 560 276 566 C 262 572 250 579 242 585 C 233 590 224 595 216 601 C 207 607 198 610 190 610 C 181 610 174 605 168 596 C 162 587 160 575 160 560 L 71 560 C 71 609 80 646 99 670 C 118 694 139 707 161 707 C 178 707 193 703 205 697 C 217 691 228 684 239 677 C 247 671 255 666 263 662 C 270 657 277 655 285 655 C 292 655 299 659 306 667 C 312 675 316 687 316 704 Z" unicode="ũ" />
<glyph horiz-adv-x="610" d="M 59 0 L 59 0 Z M 551 730 L 551 238 C 551 196 544 159 530 128 C 516 97 498 71 475 51 C 452 31 425 16 395 6 C 365 -4 333 -9 300 -9 C 267 -9 236 -4 207 5 C 178 15 153 30 131 50 C 109 70 91 95 78 126 C 65 157 59 194 59 238 L 59 730 L 187 730 L 187 234 C 187 190 198 157 220 136 C 242 115 269 105 302 105 C 334 105 362 115 385 135 C 408 155 420 188 420 234 L 420 730 L 551 730 Z M 303 802 L 303 802 Z M 435 802 L 171 802 L 171 895 L 435 895 L 435 802 Z" unicode="Ū" />
<glyph horiz-adv-x="478" d="M 44 0 L 44 0 Z M 44 494 L 163 494 L 163 163 C 163 136 169 117 182 105 C 195 93 213 87 235 87 C 256 87 274 94 289 108 C 304 122 312 146 312 179 L 312 494 L 431 494 L 431 0 L 320 0 L 320 68 C 310 46 294 28 270 14 C 246 0 217 -8 185 -8 C 147 -8 114 3 86 27 C 58 50 44 85 44 133 L 44 494 Z M 237 566 L 237 566 Z M 369 566 L 105 566 L 105 659 L 369 659 L 369 566 Z" unicode="ū" />
<glyph horiz-adv-x="610" d="M 59 0 L 59 0 Z M 551 730 L 551 238 C 551 196 544 159 530 128 C 516 97 498 71 475 51 C 452 31 425 16 395 6 C 365 -4 333 -9 300 -9 C 267 -9 236 -4 207 5 C 178 15 153 30 131 50 C 109 70 91 95 78 126 C 65 157 59 194 59 238 L 59 730 L 187 730 L 187 234 C 187 190 198 157 220 136 C 242 115 269 105 302 105 C 334 105 362 115 385 135 C 408 155 420 188 420 234 L 420 730 L 551 730 Z M 303 791 L 303 791 Z M 357 951 L 456 951 C 452 895 436 854 408 829 C 380 803 345 791 303 791 C 261 791 226 803 198 829 C 170 854 155 895 151 951 L 249 951 C 250 925 255 906 263 892 C 271 878 284 871 303 871 C 321 871 335 877 343 891 C 351 904 356 924 357 951 Z" unicode="Ŭ" />
<glyph horiz-adv-x="478" d="M 44 0 L 44 0 Z M 44 494 L 163 494 L 163 163 C 163 136 169 117 182 105 C 195 93 213 87 235 87 C 256 87 274 94 289 108 C 304 122 312 146 312 179 L 312 494 L 431 494 L 431 0 L 320 0 L 320 68 C 310 46 294 28 270 14 C 246 0 217 -8 185 -8 C 147 -8 114 3 86 27 C 58 50 44 85 44 133 L 44 494 Z M 237 555 L 237 555 Z M 291 715 L 390 715 C 386 659 370 618 342 593 C 314 567 279 555 237 555 C 195 555 160 567 132 593 C 104 618 89 659 85 715 L 183 715 C 184 689 189 670 197 656 C 205 642 218 635 237 635 C 255 635 269 641 277 655 C 285 668 290 688 291 715 Z" unicode="ŭ" />
<glyph horiz-adv-x="610" d="M 59 0 L 59 0 Z M 551 730 L 551 238 C 551 196 544 159 530 128 C 516 97 498 71 475 51 C 452 31 425 16 395 6 C 365 -4 333 -9 300 -9 C 267 -9 236 -4 207 5 C 178 15 153 30 131 50 C 109 70 91 95 78 126 C 65 157 59 194 59 238 L 59 730 L 187 730 L 187 234 C 187 190 198 157 220 136 C 242 115 269 105 302 105 C 334 105 362 115 385 135 C 408 155 420 188 420 234 L 420 730 L 551 730 Z M 303 779 L 303 779 Z M 303 779 C 269 779 240 790 216 814 C 192 838 181 866 181 900 C 181 934 192 962 216 986 C 240 1009 269 1021 303 1021 C 337 1021 365 1009 389 986 C 413 962 425 934 425 900 C 425 866 413 838 389 814 C 365 790 337 779 303 779 Z M 303 846 C 317 846 330 851 340 861 C 350 871 356 884 356 900 C 356 915 350 928 340 939 C 330 949 317 955 303 955 C 288 955 275 949 265 939 C 255 928 250 915 250 900 C 250 884 255 871 265 861 C 275 851 288 846 303 846 Z" unicode="Ů" />
<glyph horiz-adv-x="478" d="M 44 0 L 44 0 Z M 44 494 L 163 494 L 163 163 C 163 136 169 117 182 105 C 195 93 213 87 235 87 C 256 87 274 94 289 108 C 304 122 312 146 312 179 L 312 494 L 431 494 L 431 0 L 320 0 L 320 68 C 310 46 294 28 270 14 C 246 0 217 -8 185 -8 C 147 -8 114 3 86 27 C 58 50 44 85 44 133 L 44 494 Z M 237 543 L 237 543 Z M 237 543 C 203 543 174 554 150 578 C 126 602 115 630 115 664 C 115 698 126 726 150 750 C 174 773 203 785 237 785 C 271 785 299 773 323 750 C 347 726 359 698 359 664 C 359 630 347 602 323 578 C 299 554 271 543 237 543 Z M 237 610 C 251 610 264 615 274 625 C 284 635 290 648 290 664 C 290 679 284 692 274 703 C 264 713 251 719 237 719 C 222 719 209 713 199 703 C 189 692 184 679 184 664 C 184 648 189 635 199 625 C 209 615 222 610 237 610 Z" unicode="ů" />
<glyph horiz-adv-x="610" d="M 59 0 L 59 0 Z M 551 730 L 551 238 C 551 196 544 159 530 128 C 516 97 498 71 475 51 C 452 31 425 16 395 6 C 365 -4 333 -9 300 -9 C 267 -9 236 -4 207 5 C 178 15 153 30 131 50 C 109 70 91 95 78 126 C 65 157 59 194 59 238 L 59 730 L 187 730 L 187 234 C 187 190 198 157 220 136 C 242 115 269 105 302 105 C 334 105 362 115 385 135 C 408 155 420 188 420 234 L 420 730 L 551 730 Z M 303 788 L 303 788 Z M 104 788 L 181 948 L 308 948 L 209 788 L 104 788 Z M 298 788 L 375 948 L 502 948 L 403 788 L 298 788 Z" unicode="Ű" />
<glyph horiz-adv-x="478" d="M 38 0 L 38 0 Z M 44 494 L 163 494 L 163 163 C 163 136 169 117 182 105 C 195 93 213 87 235 87 C 256 87 274 94 289 108 C 304 122 312 146 312 179 L 312 494 L 431 494 L 431 0 L 320 0 L 320 68 C 310 46 294 28 270 14 C 246 0 217 -8 185 -8 C 147 -8 114 3 86 27 C 58 50 44 85 44 133 L 44 494 Z M 237 552 L 237 552 Z M 38 552 L 115 712 L 242 712 L 143 552 L 38 552 Z M 232 552 L 309 712 L 436 712 L 337 552 L 232 552 Z" unicode="ű" />
<glyph horiz-adv-x="610" d="M 59 0 L 59 0 Z M 551 730 L 551 238 C 551 196 544 159 530 128 C 516 97 498 71 475 51 C 452 31 425 16 395 6 C 365 -4 333 -9 300 -9 C 267 -9 236 -4 207 5 C 178 15 153 30 131 50 C 109 70 91 95 78 126 C 65 157 59 194 59 238 L 59 730 L 187 730 L 187 234 C 187 190 198 157 220 136 C 242 115 269 105 302 105 C 334 105 362 115 385 135 C 408 155 420 188 420 234 L 420 730 L 551 730 Z M 339 -7 L 339 -7 Z M 437 -82 L 469 -132 C 448 -154 425 -171 401 -182 C 376 -193 348 -199 318 -199 C 284 -199 257 -191 238 -177 C 218 -162 209 -143 209 -121 C 209 -96 219 -73 239 -51 C 259 -29 289 -10 328 5 L 391 5 C 367 -5 348 -18 333 -32 C 318 -46 311 -59 311 -72 C 311 -84 315 -93 324 -100 C 333 -107 344 -111 358 -111 C 374 -111 389 -108 403 -103 C 416 -97 427 -90 437 -82 Z" unicode="Ų" />
<glyph horiz-adv-x="478" d="M 44 0 L 44 0 Z M 44 494 L 163 494 L 163 163 C 163 136 169 117 182 105 C 195 93 213 87 235 87 C 256 87 274 94 289 108 C 304 122 312 146 312 179 L 312 494 L 431 494 L 431 0 L 320 0 L 320 68 C 310 46 294 28 270 14 C 246 0 217 -8 185 -8 C 147 -8 114 3 86 27 C 58 50 44 85 44 133 L 44 494 Z M 338 -7 L 338 -7 Z M 436 -82 L 468 -132 C 447 -154 424 -171 400 -182 C 375 -193 347 -199 317 -199 C 283 -199 256 -191 237 -177 C 217 -162 208 -143 208 -121 C 208 -96 218 -73 238 -51 C 258 -29 288 -10 327 5 L 390 5 C 366 -5 347 -18 332 -32 C 317 -46 310 -59 310 -72 C 310 -84 314 -93 323 -100 C 332 -107 343 -111 357 -111 C 373 -111 388 -108 402 -103 C 415 -97 426 -90 436 -82 Z" unicode="ų" />
<glyph horiz-adv-x="779" d="M 2 0 L 2 0 Z M 765 730 L 590 -4 L 508 -4 L 385 483 L 257 -4 L 175 -4 L 2 730 L 127 730 L 231 249 L 347 730 L 433 730 L 548 248 L 652 730 L 765 730 Z M 389 789 L 389 789 Z M 550 789 L 448 789 L 389 882 L 329 789 L 229 789 L 335 962 L 443 962 L 550 789 Z" unicode="Ŵ" />
<glyph horiz-adv-x="621" d="M 0 0 L 0 0 Z M 396 -2 L 312 264 L 225 -2 L 140 -2 L 0 494 L 116 494 L 198 177 L 277 436 L 356 436 L 432 178 L 516 494 L 621 494 L 479 -2 L 396 -2 Z M 313 553 L 313 553 Z M 474 553 L 372 553 L 313 646 L 253 553 L 153 553 L 259 726 L 367 726 L 474 553 Z" unicode="ŵ" />
<glyph horiz-adv-x="532" d="M 0 0 L 0 0 Z M 544 730 L 332 309 L 332 0 L 202 0 L 202 312 L -5 730 L 135 730 L 273 437 L 417 730 L 544 730 Z M 273 789 L 273 789 Z M 434 789 L 332 789 L 273 882 L 213 789 L 113 789 L 219 962 L 327 962 L 434 789 Z" unicode="Ŷ" />
<glyph horiz-adv-x="421" d="M 0 0 L 0 0 Z M 426 494 L 220 -91 C 205 -129 184 -157 156 -174 C 128 -191 99 -200 68 -200 C 48 -200 31 -197 17 -193 C 3 -189 -7 -185 -14 -181 L 23 -89 C 25 -91 31 -93 40 -96 C 49 -98 58 -100 67 -100 C 80 -100 92 -95 102 -86 C 112 -76 120 -62 127 -42 L 155 43 L -5 494 L 120 494 L 216 194 L 311 494 L 426 494 Z M 213 553 L 213 553 Z M 374 553 L 272 553 L 213 646 L 153 553 L 53 553 L 159 726 L 267 726 L 374 553 Z" unicode="ŷ" />
<glyph horiz-adv-x="539" d="M 0 0 L 0 0 Z M 544 730 L 332 309 L 332 0 L 202 0 L 202 312 L -5 730 L 135 730 L 273 437 L 417 730 L 544 730 Z M 273 789 L 273 789 Z M 408 789 L 310 789 L 310 949 L 408 949 L 408 789 Z M 236 789 L 138 789 L 138 949 L 236 949 L 236 789 Z" unicode="Ÿ" />
<glyph horiz-adv-x="479" d="M 15 0 L 15 0 Z M 456 730 L 456 669 L 176 112 L 467 112 L 467 0 L 15 0 L 15 59 L 296 617 L 40 617 L 40 730 L 456 730 Z M 247 789 L 247 789 Z M 131 789 L 225 959 L 364 959 L 247 789 L 131 789 Z" unicode="Ź" />
<glyph horiz-adv-x="376" d="M 11 0 L 11 0 Z M 358 494 L 358 441 L 169 101 L 366 101 L 366 0 L 11 0 L 11 43 L 209 393 L 23 393 L 23 494 L 358 494 Z M 194 553 L 194 553 Z M 78 553 L 172 723 L 311 723 L 194 553 L 78 553 Z" unicode="ź" />
<glyph horiz-adv-x="479" d="M 15 0 L 15 0 Z M 456 730 L 456 669 L 176 112 L 467 112 L 467 0 L 15 0 L 15 59 L 296 617 L 40 617 L 40 730 L 456 730 Z M 247 795 L 247 795 Z M 302 795 L 193 795 L 193 937 L 302 937 L 302 795 Z" unicode="Ż" />
<glyph horiz-adv-x="376" d="M 11 0 L 11 0 Z M 358 494 L 358 441 L 169 101 L 366 101 L 366 0 L 11 0 L 11 43 L 209 393 L 23 393 L 23 494 L 358 494 Z M 194 559 L 194 559 Z M 249 559 L 140 559 L 140 701 L 249 701 L 249 559 Z" unicode="ż" />
<glyph horiz-adv-x="484" d="M 15 0 L 15 0 Z M 456 730 L 456 669 L 176 112 L 467 112 L 467 0 L 15 0 L 15 59 L 296 617 L 40 617 L 40 730 L 456 730 Z M 247 789 L 247 789 Z M 87 962 L 189 962 L 248 869 L 308 962 L 408 962 L 301 789 L 193 789 L 87 962 Z" unicode="Ž" />
<glyph horiz-adv-x="376" d="M 11 0 L 11 0 Z M 358 494 L 358 441 L 169 101 L 366 101 L 366 0 L 11 0 L 11 43 L 209 393 L 23 393 L 23 494 L 358 494 Z" unicode="ž" />
<glyph horiz-adv-x="375" d="M 201 -52 C 199 -68 195 -83 189 -99 C 182 -114 173 -127 162 -139 C 150 -151 137 -160 121 -168 C 105 -175 88 -179 70 -179 C 49 -179 29 -177 11 -173 C -7 -169 -22 -165 -32 -161 L -20 -74 C -15 -74 -8 -76 1 -78 C 10 -80 19 -82 28 -82 C 47 -82 63 -75 76 -63 C 89 -50 97 -31 100 -7 L 129 319 L 35 319 L 35 419 L 138 419 L 156 620 C 158 640 163 658 172 674 C 180 689 191 702 203 712 C 215 722 229 730 244 735 C 259 740 274 743 288 743 C 302 743 317 742 332 741 C 347 740 356 739 359 739 L 350 636 C 348 636 344 637 338 638 C 332 638 326 639 320 639 C 301 639 286 632 274 620 C 262 607 256 587 254 561 L 242 419 L 343 419 L 343 319 L 233 319 L 201 -52 Z" unicode="ƒ" />
<glyph horiz-adv-x="474" d="M 17 0 L 17 0 Z M 239 -9 C 192 -9 150 -2 114 11 C 78 25 45 48 17 81 L 91 165 C 106 143 127 126 153 113 C 179 100 205 94 232 94 C 258 94 280 102 299 118 C 318 134 328 157 328 186 C 328 214 319 238 301 257 C 283 276 252 298 208 324 C 157 350 116 381 86 415 C 55 449 40 496 40 556 C 40 583 45 608 56 631 C 66 653 81 673 99 689 C 117 705 138 717 163 726 C 187 734 214 739 243 739 C 287 739 324 732 355 718 C 385 704 410 688 429 670 L 362 582 C 347 595 330 606 310 616 C 290 625 269 630 247 630 C 223 630 202 623 186 609 C 169 595 161 575 161 551 C 161 526 169 505 185 488 C 201 471 235 449 285 423 C 343 392 384 359 410 324 C 435 289 448 244 448 190 C 448 157 442 128 430 103 C 418 78 403 57 384 41 C 364 24 342 11 317 3 C 291 -4 265 -9 239 -9 Z M 218 -70 L 218 -70 Z M 317 -70 C 316 -94 312 -120 305 -147 C 298 -174 289 -200 279 -224 C 269 -248 257 -270 245 -290 C 232 -310 220 -324 210 -334 L 119 -293 C 126 -284 134 -271 142 -255 C 150 -239 157 -221 165 -201 C 172 -181 178 -159 184 -137 C 189 -114 192 -92 194 -70 L 317 -70 Z" unicode="Ș" />
<glyph horiz-adv-x="370" d="M 17 0 L 17 0 Z M 195 -8 C 156 -8 121 -1 91 11 C 60 23 35 40 17 60 L 72 137 C 86 121 104 109 125 100 C 146 91 166 87 185 87 C 201 87 214 91 226 100 C 237 108 243 121 243 137 C 243 152 235 165 220 176 C 204 187 182 199 152 213 C 116 227 87 246 66 270 C 44 294 34 326 34 367 C 34 405 48 437 77 463 C 106 489 143 502 187 502 C 221 502 252 497 278 487 C 304 477 324 466 339 454 L 291 370 C 279 378 264 386 247 394 C 230 402 213 406 196 406 C 180 406 167 402 155 396 C 143 389 138 379 138 367 C 138 353 144 342 157 333 C 169 324 192 312 226 297 C 266 277 297 256 318 233 C 338 210 349 178 349 137 C 349 113 344 92 335 74 C 326 56 314 40 300 28 C 286 16 269 7 251 1 C 232 -5 213 -8 195 -8 Z M 175 -69 L 175 -69 Z M 274 -69 C 273 -93 269 -119 262 -146 C 255 -173 246 -199 236 -223 C 226 -247 214 -269 202 -289 C 189 -309 177 -323 167 -333 L 76 -292 C 83 -283 91 -270 99 -254 C 107 -238 114 -220 122 -200 C 129 -180 135 -158 141 -136 C 146 -113 149 -91 151 -69 L 274 -69 Z" unicode="ș" />
<glyph horiz-adv-x="446" d="M 7 0 L 7 0 Z M 439 617 L 287 617 L 287 0 L 157 0 L 157 617 L 7 617 L 7 730 L 439 730 L 439 617 Z M 198 -69 L 198 -69 Z M 297 -69 C 296 -93 292 -119 285 -146 C 278 -173 269 -199 259 -223 C 249 -247 237 -269 225 -289 C 212 -309 200 -323 190 -333 L 99 -292 C 106 -283 114 -270 122 -254 C 130 -238 137 -220 145 -200 C 152 -180 158 -158 164 -136 C 169 -113 172 -91 174 -69 L 297 -69 Z" unicode="Ț" />
<glyph horiz-adv-x="278" d="M 7 0 L 7 0 Z M 255 108 L 275 17 C 267 11 257 6 243 2 C 229 -2 213 -5 193 -5 C 177 -5 162 -2 146 2 C 130 7 115 15 102 27 C 88 38 77 53 69 71 C 61 89 57 110 57 136 L 57 393 L 7 393 L 7 494 L 60 494 L 60 624 L 174 636 L 174 494 L 256 494 L 256 393 L 176 393 L 176 145 C 176 129 179 118 187 110 C 195 102 205 99 218 99 C 225 99 232 100 239 102 C 246 104 251 106 255 108 Z M 136 -69 L 136 -69 Z M 235 -69 C 234 -93 230 -119 223 -146 C 216 -173 207 -199 197 -223 C 187 -247 175 -269 163 -289 C 150 -309 138 -323 128 -333 L 37 -292 C 44 -283 52 -270 60 -254 C 68 -238 75 -220 83 -200 C 90 -180 96 -158 102 -136 C 107 -113 110 -91 112 -69 L 235 -69 Z" unicode="ț" />
<glyph horiz-adv-x="223" d="M 178 494 L 178 -57 C 178 -95 165 -127 141 -153 C 117 -179 85 -192 45 -192 C 27 -192 10 -189 -8 -185 C -26 -180 -38 -175 -46 -171 L -22 -85 C -17 -87 -11 -88 -4 -90 C 2 -91 10 -92 19 -92 C 31 -92 40 -87 48 -78 C 55 -68 59 -56 59 -41 L 59 494 L 178 494 Z" unicode="ȷ" />
<glyph horiz-adv-x="500" d="M 411 553 L 309 553 L 250 646 L 190 553 L 90 553 L 196 726 L 304 726 L 411 553 Z" unicode="ˆ" />
<glyph horiz-adv-x="500" d="M 90 726 L 192 726 L 251 633 L 311 726 L 411 726 L 304 553 L 196 553 L 90 726 Z" unicode="ˇ" />
<glyph horiz-adv-x="500" d="M 304 715 L 403 715 C 399 659 383 618 355 593 C 327 567 292 555 250 555 C 208 555 173 567 145 593 C 117 618 102 659 98 715 L 196 715 C 197 689 202 670 210 656 C 218 642 231 635 250 635 C 268 635 282 641 290 655 C 298 668 303 688 304 715 Z" unicode="˘" />
<glyph horiz-adv-x="500" d="M 305 559 L 196 559 L 196 701 L 305 701 L 305 559 Z" unicode="˙" />
<glyph horiz-adv-x="503" d="M 252 543 C 218 543 189 554 165 578 C 141 602 130 630 130 664 C 130 698 141 726 165 750 C 189 773 218 785 252 785 C 286 785 314 773 338 750 C 362 726 374 698 374 664 C 374 630 362 602 338 578 C 314 554 286 543 252 543 Z M 252 610 C 266 610 279 615 289 625 C 299 635 305 648 305 664 C 305 679 299 692 289 703 C 279 713 266 719 252 719 C 237 719 224 713 214 703 C 204 692 199 679 199 664 C 199 648 204 635 214 625 C 224 615 237 610 252 610 Z" unicode="˚" />
<glyph horiz-adv-x="500" d="M 357 -75 L 389 -125 C 368 -147 345 -164 321 -175 C 296 -186 268 -192 238 -192 C 204 -192 177 -184 158 -170 C 138 -155 129 -136 129 -114 C 129 -89 139 -66 159 -44 C 179 -22 209 -3 248 12 L 311 12 C 287 1 268 -11 253 -25 C 238 -39 231 -52 231 -65 C 231 -77 235 -86 244 -93 C 253 -100 264 -104 278 -104 C 294 -104 309 -101 323 -96 C 336 -90 347 -83 357 -75 Z" unicode="˛" />
<glyph horiz-adv-x="500" d="M 333 704 L 423 704 C 423 654 415 617 400 593 C 385 569 366 557 342 557 C 323 557 307 560 293 566 C 279 572 267 579 259 585 C 250 590 241 595 233 601 C 224 607 215 610 207 610 C 198 610 191 605 185 596 C 179 587 177 575 177 560 L 88 560 C 88 609 97 646 116 670 C 135 694 156 707 178 707 C 195 707 210 703 222 697 C 234 691 245 684 256 677 C 264 671 272 666 280 662 C 287 657 294 655 302 655 C 309 655 316 659 323 667 C 329 675 333 687 333 704 Z" unicode="˜" />
<glyph horiz-adv-x="500" d="M 72 552 L 149 712 L 276 712 L 177 552 L 72 552 Z M 266 552 L 343 712 L 470 712 L 371 552 L 266 552 Z" unicode="˝" />
<glyph horiz-adv-x="0" d="M 0 552 L 0 552 Z M 117 552 L 0 552 L -117 721 L 22 721 L 117 552 Z" unicode="̀" />
<glyph horiz-adv-x="0" d="M 0 553 L 0 553 Z M -116 553 L -22 723 L 117 723 L 0 553 L -116 553 Z" unicode="́" />
<glyph horiz-adv-x="0" d="M 0 553 L 0 553 Z M 161 553 L 59 553 L 0 646 L -60 553 L -160 553 L -54 726 L 54 726 L 161 553 Z" unicode="̂" />
<glyph horiz-adv-x="0" d="M 0 557 L 0 557 Z M 79 704 L 169 704 C 169 654 161 617 146 593 C 131 569 112 557 88 557 C 69 557 53 560 39 566 C 25 572 13 579 5 585 C -3 590 -12 595 -21 601 C -29 607 -38 610 -47 610 C -55 610 -62 605 -68 596 C -74 587 -77 575 -77 560 L -166 560 C -166 609 -156 646 -137 670 C -118 694 -98 707 -76 707 C -58 707 -44 703 -32 697 C -20 691 -8 684 2 677 C 10 671 18 666 26 662 C 33 657 40 655 48 655 C 55 655 62 659 69 667 C 75 675 79 687 79 704 Z" unicode="̃" />
<glyph horiz-adv-x="0" d="M 0 566 L 0 566 Z M 132 566 L -132 566 L -132 659 L 132 659 L 132 566 Z" unicode="̄" />
<glyph horiz-adv-x="0" d="M 0 555 L 0 555 Z M 54 715 L 153 715 C 149 659 133 618 105 593 C 77 567 42 555 0 555 C -42 555 -76 567 -104 593 C -132 618 -148 659 -152 715 L -54 715 C -52 689 -48 670 -40 656 C -32 642 -18 635 0 635 C 18 635 32 641 40 655 C 48 668 53 688 54 715 Z" unicode="̆" />
<glyph horiz-adv-x="0" d="M 0 559 L 0 559 Z M 55 559 L -54 559 L -54 701 L 55 701 L 55 559 Z" unicode="̇" />
<glyph horiz-adv-x="0" d="M 0 553 L 0 553 Z M 135 553 L 37 553 L 37 713 L 135 713 L 135 553 Z M -37 553 L -135 553 L -135 713 L -37 713 L -37 553 Z" unicode="̈" />
<glyph horiz-adv-x="0" d="M 0 543 L 0 543 Z M 0 543 C -34 543 -62 554 -86 578 C -110 602 -122 630 -122 664 C -122 698 -110 726 -86 750 C -62 773 -34 785 0 785 C 34 785 62 773 86 750 C 110 726 122 698 122 664 C 122 630 110 602 86 578 C 62 554 34 543 0 543 Z M 0 610 C 14 610 27 615 37 625 C 47 635 53 648 53 664 C 53 679 47 692 37 703 C 27 713 14 719 0 719 C -14 719 -27 713 -37 703 C -47 692 -53 679 -53 664 C -53 648 -47 635 -37 625 C -27 615 -14 610 0 610 Z" unicode="̊" />
<glyph horiz-adv-x="0" d="M 0 552 L 0 552 Z M -199 552 L -122 712 L 5 712 L -94 552 L -199 552 Z M -5 552 L 72 712 L 199 712 L 100 552 L -5 552 Z" unicode="̋" />
<glyph horiz-adv-x="0" d="M 0 553 L 0 553 Z M -160 726 L -58 726 L 1 633 L 61 726 L 161 726 L 54 553 L -54 553 L -160 726 Z" unicode="̌" />
<glyph horiz-adv-x="0" d="M 0 -69 L 0 -69 Z M 99 -69 C 98 -93 94 -119 87 -146 C 80 -173 71 -199 61 -223 C 51 -247 39 -269 27 -289 C 14 -309 2 -323 -8 -333 L -99 -292 C -91 -283 -84 -270 -76 -254 C -68 -238 -60 -220 -53 -200 C -45 -180 -39 -158 -34 -136 C -28 -113 -25 -91 -24 -69 L 99 -69 Z" unicode="̦" />
<glyph horiz-adv-x="0" d="M 0 0 L 0 0 Z M 6 -185 C -16 -185 -39 -182 -62 -176 C -84 -170 -102 -162 -116 -153 L -96 -105 C -88 -109 -78 -114 -64 -120 C -50 -126 -36 -129 -21 -129 C -10 -129 0 -126 7 -121 C 15 -115 20 -108 20 -100 C 20 -90 16 -82 9 -78 C 1 -74 -6 -72 -15 -72 C -21 -72 -27 -72 -32 -73 C -37 -74 -42 -76 -47 -78 L -63 -59 L -4 14 L 60 14 L 15 -43 C 44 -39 68 -43 88 -55 C 107 -67 117 -84 117 -108 C 117 -132 106 -151 84 -165 C 62 -178 36 -185 6 -185 Z" unicode="̧" />
<glyph horiz-adv-x="0" d="M 0 0 L 0 0 Z M 98 -75 L 130 -125 C 109 -147 86 -164 62 -175 C 37 -186 9 -192 -21 -192 C -55 -192 -81 -184 -101 -170 C -120 -155 -130 -136 -130 -114 C -130 -89 -119 -66 -99 -44 C -79 -22 -49 -3 -11 12 L 52 12 C 28 1 9 -11 -5 -25 C -20 -39 -28 -52 -28 -65 C -28 -77 -23 -86 -14 -93 C -5 -100 5 -104 19 -104 C 35 -104 50 -101 64 -96 C 77 -90 88 -83 98 -75 Z" unicode="̨" />
<glyph horiz-adv-x="561" d="M 0 0 L 0 0 Z M 601 0 L -1 0 L 281 730 L 321 730 L 601 0 Z M 443 93 L 297 511 L 151 93 L 443 93 Z" unicode="Δ" />
<glyph horiz-adv-x="719" d="" unicode="Ω" />
<glyph horiz-adv-x="585" d="M 63 0 L 63 0 Z M 63 -112 L 63 504 L 182 504 L 182 171 C 182 146 192 126 212 111 C 232 95 257 88 285 88 C 314 88 340 96 364 114 C 388 132 400 157 400 189 L 400 504 L 519 504 L 519 0 L 410 0 L 410 86 C 399 62 379 41 351 23 C 323 5 293 -4 262 -5 C 243 -5 225 -2 208 5 C 191 13 179 23 173 37 L 173 -112 L 63 -112 Z" unicode="μ" />
<glyph horiz-adv-x="579" d="M 199 427 L 199 0 L 80 0 L 80 427 L 15 427 L 15 520 L 564 520 L 564 427 L 495 427 L 495 0 L 377 0 L 377 427 L 199 427 Z" unicode="π" />
<glyph horiz-adv-x="779" d="M 2 0 L 2 0 Z M 765 730 L 590 -4 L 508 -4 L 385 483 L 257 -4 L 175 -4 L 2 730 L 127 730 L 231 249 L 347 730 L 433 730 L 548 248 L 652 730 L 765 730 Z M 389 788 L 389 788 Z M 506 788 L 389 788 L 272 957 L 411 957 L 506 788 Z" unicode="Ẁ" />
<glyph horiz-adv-x="621" d="M 0 0 L 0 0 Z M 396 -2 L 312 264 L 225 -2 L 140 -2 L 0 494 L 116 494 L 198 177 L 277 436 L 356 436 L 432 178 L 516 494 L 621 494 L 479 -2 L 396 -2 Z M 313 552 L 313 552 Z M 430 552 L 313 552 L 196 721 L 335 721 L 430 552 Z" unicode="ẁ" />
<glyph horiz-adv-x="779" d="M 2 0 L 2 0 Z M 765 730 L 590 -4 L 508 -4 L 385 483 L 257 -4 L 175 -4 L 2 730 L 127 730 L 231 249 L 347 730 L 433 730 L 548 248 L 652 730 L 765 730 Z M 389 789 L 389 789 Z M 273 789 L 367 959 L 506 959 L 389 789 L 273 789 Z" unicode="Ẃ" />
<glyph horiz-adv-x="621" d="M 0 0 L 0 0 Z M 396 -2 L 312 264 L 225 -2 L 140 -2 L 0 494 L 116 494 L 198 177 L 277 436 L 356 436 L 432 178 L 516 494 L 621 494 L 479 -2 L 396 -2 Z M 313 553 L 313 553 Z M 197 553 L 291 723 L 430 723 L 313 553 L 197 553 Z" unicode="ẃ" />
<glyph horiz-adv-x="779" d="M 2 0 L 2 0 Z M 765 730 L 590 -4 L 508 -4 L 385 483 L 257 -4 L 175 -4 L 2 730 L 127 730 L 231 249 L 347 730 L 433 730 L 548 248 L 652 730 L 765 730 Z M 389 789 L 389 789 Z M 524 789 L 426 789 L 426 949 L 524 949 L 524 789 Z M 352 789 L 254 789 L 254 949 L 352 949 L 352 789 Z" unicode="Ẅ" />
<glyph horiz-adv-x="621" d="M 0 0 L 0 0 Z M 396 -2 L 312 264 L 225 -2 L 140 -2 L 0 494 L 116 494 L 198 177 L 277 436 L 356 436 L 432 178 L 516 494 L 621 494 L 479 -2 L 396 -2 Z M 313 553 L 313 553 Z M 448 553 L 350 553 L 350 713 L 448 713 L 448 553 Z M 276 553 L 178 553 L 178 713 L 276 713 L 276 553 Z" unicode="ẅ" />
<glyph horiz-adv-x="532" d="M 0 0 L 0 0 Z M 544 730 L 332 309 L 332 0 L 202 0 L 202 312 L -5 730 L 135 730 L 273 437 L 417 730 L 544 730 Z M 273 788 L 273 788 Z M 390 788 L 273 788 L 156 957 L 295 957 L 390 788 Z" unicode="Ỳ" />
<glyph horiz-adv-x="421" d="M 0 0 L 0 0 Z M 426 494 L 220 -91 C 205 -129 184 -157 156 -174 C 128 -191 99 -200 68 -200 C 48 -200 31 -197 17 -193 C 3 -189 -7 -185 -14 -181 L 23 -89 C 25 -91 31 -93 40 -96 C 49 -98 58 -100 67 -100 C 80 -100 92 -95 102 -86 C 112 -76 120 -62 127 -42 L 155 43 L -5 494 L 120 494 L 216 194 L 311 494 L 426 494 Z M 213 552 L 213 552 Z M 330 552 L 213 552 L 96 721 L 235 721 L 330 552 Z" unicode="ỳ" />
<glyph horiz-adv-x="460" d="M 422 212 L 39 212 L 39 316 L 422 316 L 422 212 Z" unicode="–" />
<glyph horiz-adv-x="645" d="M 607 212 L 39 212 L 39 316 L 607 316 L 607 212 Z" unicode="—" />
<glyph horiz-adv-x="269" d="M 36 507 L 36 514 C 36 554 44 592 61 630 C 77 668 102 703 135 737 L 251 731 C 241 721 231 709 220 695 C 209 681 199 664 190 646 C 180 628 173 607 167 585 C 161 563 158 539 158 515 L 158 507 L 36 507 Z" unicode="‘" />
<glyph horiz-adv-x="269" d="M 233 737 L 233 730 C 233 690 224 651 208 614 C 191 576 166 541 134 507 L 18 513 C 27 523 37 535 48 550 C 58 564 68 581 78 599 C 87 617 95 637 101 659 C 107 681 111 704 111 729 L 111 737 L 233 737 Z" unicode="’" />
<glyph horiz-adv-x="269" d="M 232 116 L 232 109 C 232 69 223 30 207 -7 C 190 -44 165 -80 133 -114 L 17 -108 C 26 -98 36 -85 47 -71 C 58 -56 68 -40 78 -22 C 87 -4 95 16 101 38 C 107 60 110 83 110 108 L 110 116 L 232 116 Z" unicode="‚" />
<glyph horiz-adv-x="441" d="M 221 507 L 221 514 C 221 552 229 589 246 627 C 263 664 289 701 323 737 L 430 731 C 420 721 410 709 399 695 C 388 680 378 663 368 645 C 358 627 350 607 344 585 C 337 563 334 539 334 515 L 334 507 L 221 507 Z M 36 507 L 36 514 C 36 552 44 589 62 627 C 80 664 105 701 138 737 L 245 731 C 236 721 226 709 215 695 C 204 681 194 664 184 646 C 174 628 165 607 159 585 C 152 563 149 539 149 515 L 149 507 L 36 507 Z" unicode="“" />
<glyph horiz-adv-x="441" d="M 223 737 L 223 730 C 223 690 215 651 199 615 C 183 578 158 542 125 507 L 17 513 C 37 534 58 563 79 600 C 99 636 110 679 110 729 L 110 737 L 223 737 Z M 404 737 L 404 730 C 404 690 395 651 379 614 C 362 577 338 541 306 507 L 198 513 C 218 534 239 563 260 600 C 280 636 291 679 291 729 L 291 737 L 404 737 Z" unicode="”" />
<glyph horiz-adv-x="442" d="M 223 118 L 223 111 C 223 71 214 32 198 -4 C 182 -40 157 -76 125 -112 L 17 -106 C 37 -84 58 -55 79 -19 C 99 17 110 60 110 110 L 110 118 L 223 118 Z M 406 118 L 406 111 C 406 71 397 32 381 -4 C 364 -41 340 -77 308 -112 L 200 -106 C 220 -85 241 -56 261 -19 C 281 17 292 60 292 110 L 292 118 L 406 118 Z" unicode="„" />
<glyph horiz-adv-x="475" d="M 455 361 L 297 361 L 297 -179 L 172 -179 L 172 361 L 20 361 L 20 471 L 172 471 L 172 730 L 297 730 L 297 471 L 455 471 L 455 361 Z" unicode="†" />
<glyph horiz-adv-x="482" d="M 176 -179 L 176 91 L 30 91 L 30 201 L 176 201 L 176 369 L 30 369 L 30 479 L 176 479 L 176 730 L 301 730 L 301 479 L 453 479 L 453 369 L 301 369 L 301 201 L 453 201 L 453 91 L 301 91 L 301 -179 L 176 -179 Z" unicode="‡" />
<glyph horiz-adv-x="382" d="M 191 489 C 221 489 247 478 269 457 C 290 435 301 409 301 379 C 301 348 290 322 269 301 C 247 280 221 270 191 270 C 160 270 134 280 113 301 C 92 322 82 348 82 379 C 82 409 92 435 113 457 C 134 478 160 489 191 489 Z" unicode="•" />
<glyph horiz-adv-x="705" d="M 57 0 L 57 141 L 178 141 L 178 0 L 57 0 Z M 292 0 L 292 141 L 413 141 L 413 0 L 292 0 Z M 527 0 L 527 141 L 648 141 L 648 0 L 527 0 Z" unicode="…" />
<glyph horiz-adv-x="1079" d="M 185 359 C 166 359 147 363 129 371 C 111 379 95 391 81 407 C 67 423 55 442 46 466 C 37 490 33 517 33 549 C 33 575 36 600 44 624 C 52 647 62 667 76 684 C 89 701 105 715 123 725 C 141 735 161 740 182 740 C 204 740 225 735 244 725 C 263 715 279 701 293 684 C 306 666 316 646 324 624 C 332 601 336 577 336 552 C 336 524 332 499 324 475 C 316 451 305 431 292 414 C 278 397 262 384 244 374 C 225 364 205 359 185 359 Z M 107 0 L 534 730 L 619 730 L 192 0 L 107 0 Z M 131 549 C 131 521 135 497 143 477 C 151 457 164 447 184 447 C 204 447 219 457 227 477 C 235 497 239 521 239 549 C 239 575 235 599 227 619 C 219 639 206 650 186 650 C 165 650 151 640 143 620 C 135 600 131 576 131 549 Z M 554 -3 C 535 -3 516 1 498 9 C 480 17 463 29 449 45 C 435 61 423 80 415 104 C 406 128 402 155 402 187 C 402 213 405 238 413 262 C 421 285 431 305 445 322 C 459 339 475 353 494 363 C 512 373 533 378 556 378 C 578 378 599 373 618 363 C 637 353 653 339 666 322 C 679 305 689 285 697 262 C 704 239 708 215 708 190 C 708 163 704 138 696 114 C 688 90 678 70 665 53 C 651 35 635 22 616 12 C 597 2 576 -3 554 -3 Z M 892 -3 C 873 -3 854 1 836 9 C 817 17 801 29 787 45 C 773 61 761 80 752 104 C 743 128 739 155 739 187 C 739 213 742 238 750 262 C 758 285 768 305 782 322 C 796 339 812 353 831 363 C 850 373 871 378 894 378 C 916 378 937 373 956 363 C 975 353 991 339 1004 322 C 1017 305 1027 285 1035 262 C 1042 239 1046 215 1046 190 C 1046 163 1042 138 1034 114 C 1026 90 1016 70 1002 53 C 988 35 972 22 954 12 C 935 2 914 -3 892 -3 Z M 553 86 C 573 86 588 95 597 115 C 606 134 611 158 611 187 C 611 215 606 239 598 259 C 589 279 575 289 555 289 C 537 289 523 279 514 259 C 504 239 500 215 500 187 C 500 158 504 134 513 115 C 522 95 535 86 553 86 Z M 891 86 C 911 86 926 95 935 115 C 944 134 949 158 949 187 C 949 215 944 239 936 259 C 928 279 913 289 893 289 C 875 289 861 279 851 259 C 841 239 837 215 837 187 C 837 158 841 134 850 115 C 859 95 873 86 891 86 Z" unicode="‰" />
<glyph horiz-adv-x="249" d="M 221 84 L 26 255 L 26 326 L 221 495 L 221 377 L 130 288 L 221 205 L 221 84 Z" unicode="‹" />
<glyph horiz-adv-x="251" d="M 28 496 L 224 324 L 224 254 L 28 85 L 28 202 L 119 291 L 28 374 L 28 496 Z" unicode="›" />
<glyph horiz-adv-x="145" d="M 307 730 L -47 0 L -145 0 L 209 730 L 307 730 Z" unicode="⁄" />
<glyph horiz-adv-x="330" d="M 13 452 L 13 519 L 195 736 L 260 736 L 260 523 L 317 523 L 317 452 L 260 452 L 260 373 L 168 373 L 168 452 L 13 452 Z M 98 516 L 170 516 L 170 606 L 98 516 Z" unicode="⁴" />
<glyph horiz-adv-x="507" d="M 497 114 C 479 76 453 46 417 23 C 381 0 343 -12 301 -12 C 244 -12 196 11 157 57 C 117 103 91 167 79 249 L 27 249 L 27 332 L 71 332 C 71 336 71 341 71 346 C 71 350 71 355 71 360 C 71 364 71 369 71 374 C 71 379 71 384 71 389 L 27 389 L 27 472 L 78 472 C 88 553 112 618 150 668 C 187 717 237 742 300 742 C 354 742 396 730 426 706 C 456 682 478 654 492 624 L 404 572 C 393 590 380 606 365 619 C 350 632 329 639 303 639 C 274 639 250 625 231 598 C 211 570 198 528 191 472 L 451 472 L 451 389 L 184 389 C 184 384 184 379 184 375 C 184 370 184 365 184 361 C 184 356 184 351 184 346 C 184 341 184 336 184 332 L 451 332 L 451 249 L 192 249 C 200 193 215 152 236 127 C 257 101 281 89 307 89 C 333 89 354 97 371 114 C 388 130 402 150 413 173 L 497 114 Z" unicode="€" />
<glyph horiz-adv-x="898" d="M 850 312 L 745 312 L 745 555 L 623 374 L 603 374 L 484 554 L 484 312 L 382 312 L 382 730 L 477 730 L 614 523 L 755 730 L 850 730 L 850 312 Z M 353 613 L 247 613 L 247 312 L 127 312 L 127 613 L 17 613 L 17 730 L 353 730 L 353 613 Z" unicode="™" />
<glyph horiz-adv-x="750" d="M 35 0 L 35 110 L 238 110 L 238 165 C 176 183 125 218 85 270 C 45 322 26 381 26 449 C 26 490 33 529 49 565 C 65 601 87 633 117 660 C 146 687 182 708 225 724 C 268 740 317 748 371 748 C 427 748 477 740 521 724 C 565 708 602 686 632 660 C 662 633 685 601 701 565 C 717 528 725 489 725 449 C 725 381 707 321 672 270 C 636 219 583 184 512 165 L 512 110 L 715 110 L 715 0 L 422 0 L 422 229 C 477 243 519 271 548 311 C 577 351 592 394 592 442 C 592 471 586 498 575 524 C 564 549 549 571 529 589 C 509 607 486 621 459 631 C 432 641 403 646 372 646 C 341 646 312 641 286 631 C 260 621 237 606 218 588 C 199 570 184 548 174 523 C 163 497 158 470 158 440 C 158 394 172 351 200 313 C 228 274 271 246 329 229 L 329 0 L 35 0 Z" unicode="Ω" />
<glyph horiz-adv-x="520" d="M 480 289 C 480 234 473 188 461 150 C 449 112 432 81 412 58 C 391 34 367 17 340 7 C 312 -3 284 -9 254 -9 C 226 -9 198 -4 171 5 C 144 15 120 29 99 49 C 78 68 61 92 48 120 C 35 148 29 181 29 219 C 29 253 34 285 45 314 C 56 343 71 368 90 389 C 109 409 131 425 157 437 C 182 449 209 455 237 455 C 270 455 298 448 322 435 C 345 421 363 403 376 381 C 369 439 357 489 339 532 C 321 575 301 610 278 638 C 254 666 229 687 202 701 C 174 715 148 723 122 725 L 176 802 C 204 802 235 792 271 773 C 306 754 339 724 370 683 C 400 642 426 589 448 524 C 469 458 480 380 480 289 Z M 253 81 C 285 81 311 93 329 119 C 347 144 356 181 356 230 C 356 272 347 304 330 328 C 312 352 287 364 254 364 C 223 364 199 352 181 328 C 163 304 154 268 154 222 C 154 173 162 137 180 115 C 197 92 221 81 253 81 Z" unicode="∂" />
<glyph horiz-adv-x="599" d="M 601 0 L -1 0 L 281 730 L 321 730 L 601 0 Z M 443 93 L 297 511 L 151 93 L 443 93 Z" unicode="∆" />
<glyph horiz-adv-x="671" d="M 239 623 L 239 0 L 114 0 L 114 623 L 15 623 L 15 730 L 656 730 L 656 623 L 564 623 L 564 0 L 440 0 L 440 623 L 239 623 Z" unicode="∏" />
<glyph horiz-adv-x="574" d="M 208 622 L 420 307 L 175 -71 L 536 -71 L 536 -179 L -25 -179 L 298 306 L 5 730 L 515 730 L 515 622 L 208 622 Z" unicode="∑" />
<glyph horiz-adv-x="499" d="M 461 283 L 39 283 L 39 380 L 461 380 L 461 283 Z" unicode="−" />
<glyph horiz-adv-x="510" d="M 508 730 L 198 0 L 186 0 L 11 333 L 95 398 L 207 170 L 433 730 L 508 730 Z" unicode="√" />
<glyph horiz-adv-x="350" d="M 101 -9 L 157 620 C 159 640 164 658 172 674 C 180 689 191 702 203 712 C 215 722 229 730 244 735 C 259 740 274 743 288 743 C 302 743 317 742 332 741 C 347 740 356 739 359 739 L 350 636 C 348 636 344 637 338 638 C 332 638 326 639 320 639 C 301 639 286 632 274 620 C 262 607 256 587 254 561 L 201 -52 C 199 -68 195 -83 189 -99 C 182 -114 173 -128 162 -140 C 150 -152 137 -161 121 -169 C 105 -176 88 -179 70 -179 C 48 -179 28 -176 10 -172 C -7 -168 -22 -163 -32 -159 L -20 -74 C -15 -74 -8 -76 1 -79 C 10 -81 19 -83 28 -83 C 47 -83 63 -76 77 -64 C 90 -51 98 -33 101 -9 Z" unicode="∫" />
<glyph horiz-adv-x="474" d="M 353 509 L 448 509 C 446 461 437 420 421 388 C 404 355 378 339 344 339 C 322 339 302 342 284 350 C 266 358 252 367 240 377 C 228 387 216 395 204 402 C 192 409 179 413 167 413 C 155 413 144 406 133 392 C 122 378 117 361 117 342 L 28 342 C 28 392 37 433 57 464 C 76 494 103 510 137 510 C 159 510 178 505 196 495 C 214 485 228 476 240 468 C 252 460 263 452 274 446 C 285 439 296 436 308 436 C 324 436 336 442 343 455 C 349 468 353 486 353 509 Z M 354 323 L 448 323 C 446 275 437 234 420 202 C 403 169 377 153 341 153 C 318 153 298 156 280 164 C 262 172 248 181 236 191 C 225 201 214 209 203 216 C 192 222 180 226 168 226 C 156 226 145 219 135 206 C 124 192 119 176 119 156 L 28 156 C 28 207 37 248 57 279 C 76 309 104 325 140 325 C 162 325 183 320 201 310 C 219 300 233 290 245 281 C 256 272 267 265 278 259 C 289 253 300 250 311 250 C 327 250 338 256 344 269 C 350 281 354 299 354 323 Z" unicode="≈" />
<glyph horiz-adv-x="487" d="M 444 164 L 227 164 L 181 56 L 107 84 L 141 164 L 61 164 L 61 264 L 184 264 L 235 384 L 61 384 L 61 484 L 278 484 L 326 597 L 400 569 L 364 484 L 444 484 L 444 384 L 321 384 L 270 264 L 444 264 L 444 164 Z" unicode="≠" />
<glyph horiz-adv-x="487" d="M 175 327 L 426 197 L 426 13 L 56 13 L 56 99 L 411 99 L 57 287 L 57 361 L 427 563 L 427 457 L 175 327 Z" unicode="≤" />
<glyph horiz-adv-x="487" d="M 426 13 L 56 13 L 56 197 L 308 327 L 56 457 L 56 563 L 425 361 L 425 287 L 71 99 L 426 99 L 426 13 Z" unicode="≥" />
<glyph horiz-adv-x="545" d="M 516 326 L 278 -26 L 267 -26 L 28 326 L 28 337 L 267 688 L 278 688 L 516 337 L 516 326 Z M 405 327 L 405 336 L 277 530 L 269 530 L 139 336 L 139 327 L 269 132 L 277 132 L 405 327 Z" unicode="◊" />
<glyph horiz-adv-x="730" d="M 448 664 L 282 664 L 282 730 L 448 730 L 448 664 Z M 659 282 L 591 282 L 591 448 L 659 448 L 659 282 Z M 139 282 L 71 282 L 71 448 L 139 448 L 139 282 Z M 442 288 L 288 288 L 288 442 L 442 442 L 442 288 Z M 448 0 L 282 0 L 282 67 L 448 67 L 448 0 Z" unicode="" />
<glyph horiz-adv-x="497" d="M 277 389 L 192 389 L 192 0 L 73 0 L 73 389 L 13 389 L 13 484 L 73 484 L 73 608 C 73 636 77 661 87 683 C 97 705 109 724 125 740 C 140 755 157 767 177 775 C 197 783 216 788 236 788 C 255 788 274 785 292 781 C 310 777 322 772 330 768 L 304 677 C 300 679 293 681 284 683 C 274 685 265 687 257 687 C 240 687 225 679 211 665 C 197 650 191 627 191 597 L 191 484 L 277 484 L 277 389 Z M 451 568 L 327 568 L 327 675 L 451 675 L 451 568 Z M 449 0 L 329 0 L 329 484 L 449 484 L 449 0 Z" unicode="ﬁ" />
<glyph horiz-adv-x="492" d="M 192 395 L 192 0 L 73 0 L 73 395 L 10 395 L 10 494 L 73 494 L 73 608 C 73 636 77 661 87 684 C 97 706 109 725 125 741 C 140 756 157 768 177 776 C 197 784 216 789 236 789 C 254 789 271 787 288 783 C 304 779 317 775 326 771 L 326 785 L 446 785 L 446 0 L 326 0 L 326 753 L 307 676 C 302 678 295 681 286 684 C 276 686 267 688 258 688 C 241 688 226 680 212 665 C 198 650 191 627 191 597 L 191 494 L 278 494 L 278 395 L 192 395 Z" unicode="ﬂ" />
</font>
</defs>
</svg>
