<?xml version="1.0" encoding="utf-8" ?><svg version="1.1" xmlns = 'http://www.w3.org/2000/svg'><defs><font id='web' horiz-adv-x="1000">
<font-face font-family="web" descent="-200" cap-height="730" units-per-em="1000" bbox="-181,-347,1122,1026" x-height="540" ascent="800" />
<missing-glyph horiz-adv-x="500" d="" /><glyph horiz-adv-x="240" d="" unicode=" " />
<glyph horiz-adv-x="289" d="M 198 432 L 167 207 L 121 207 L 91 432 L 91 730 L 198 730 L 198 432 Z M 194 0 L 95 0 L 95 104 L 194 104 L 194 0 Z" unicode="!" />
<glyph horiz-adv-x="398" d="M 334 612 L 327 470 L 252 470 L 247 612 L 247 730 L 334 730 L 334 612 Z M 150 612 L 146 470 L 69 470 L 64 612 L 64 730 L 150 730 L 150 612 Z" unicode="&#x22;" />
<glyph horiz-adv-x="616" d="M 560 219 L 431 219 L 412 0 L 354 1 L 373 219 L 218 219 L 199 0 L 140 1 L 159 219 L 32 219 L 32 294 L 166 294 L 178 433 L 56 433 L 56 508 L 185 508 L 204 730 L 263 729 L 244 508 L 399 508 L 418 730 L 476 729 L 457 508 L 584 508 L 584 433 L 450 433 L 438 294 L 560 294 L 560 219 Z M 225 294 L 380 294 L 392 433 L 237 433 L 225 294 Z" unicode="#" />
<glyph horiz-adv-x="521" d="M 482 187 C 482 159 476 135 466 113 C 456 91 442 72 424 56 C 406 40 386 28 362 18 C 338 8 312 3 286 1 L 286 -123 L 230 -123 L 230 1 C 187 3 148 12 113 28 C 78 43 50 62 28 86 L 66 160 C 84 138 109 120 139 106 C 169 91 200 82 230 78 L 230 340 C 164 370 116 401 87 433 C 57 464 43 505 43 555 C 43 605 60 645 96 677 C 131 709 176 726 230 730 L 230 790 L 286 790 L 286 729 C 324 726 357 718 387 705 C 417 692 442 676 462 657 L 415 593 C 398 609 378 623 356 633 C 334 643 310 649 286 652 L 286 407 L 291 405 C 355 374 402 343 434 313 C 466 282 482 240 482 187 Z M 134 552 C 134 526 140 505 154 489 C 167 472 192 454 230 435 L 230 652 C 202 647 179 636 161 618 C 143 600 134 578 134 552 Z M 391 185 C 391 210 384 232 370 251 C 356 269 328 290 286 313 L 286 78 C 316 82 341 93 361 111 C 381 129 391 154 391 185 Z" unicode="$" />
<glyph horiz-adv-x="816" d="M 200 352 C 179 352 159 356 139 365 C 119 373 102 386 88 403 C 73 419 61 440 52 464 C 43 488 39 515 39 546 C 39 572 43 597 51 621 C 59 644 70 664 84 682 C 98 700 115 714 135 724 C 155 734 176 740 199 740 C 223 740 245 734 265 724 C 285 714 302 700 316 683 C 330 665 340 645 348 622 C 356 598 360 574 360 549 C 360 521 356 496 348 472 C 340 448 329 427 315 409 C 301 391 284 377 264 367 C 244 357 223 352 200 352 Z M 200 0 L 112 0 L 600 730 L 687 730 L 200 0 Z M 199 424 C 226 424 246 435 260 459 C 274 482 281 511 281 545 C 281 579 274 607 262 631 C 249 655 229 667 201 667 C 174 667 153 655 139 631 C 125 607 118 579 118 545 C 118 509 125 479 140 457 C 154 435 174 424 199 424 Z M 615 -3 C 594 -3 574 1 554 10 C 534 18 517 31 503 48 C 488 64 476 85 467 109 C 458 133 454 160 454 191 C 454 217 458 242 466 266 C 474 290 485 310 499 328 C 513 346 530 360 550 370 C 570 380 591 386 615 386 C 639 386 661 380 681 370 C 701 360 718 346 732 328 C 746 310 756 290 764 267 C 772 243 776 219 776 194 C 776 166 772 141 764 117 C 756 93 745 72 731 54 C 717 36 700 22 680 12 C 660 2 638 -3 615 -3 Z M 613 70 C 641 70 661 81 675 105 C 689 128 696 157 696 191 C 696 225 689 253 676 277 C 663 301 643 313 615 313 C 588 313 568 301 554 278 C 540 254 533 225 533 191 C 533 155 540 125 555 103 C 570 81 589 70 613 70 Z" unicode="%" />
<glyph horiz-adv-x="707" d="M 634 -4 L 544 77 C 510 50 471 29 429 14 C 387 0 338 -8 283 -8 C 207 -8 147 8 101 40 C 55 72 33 118 33 176 C 33 202 37 226 46 247 C 55 267 67 286 82 302 C 97 318 115 334 135 348 C 155 362 175 375 197 388 L 188 396 C 178 404 168 414 158 426 C 148 437 138 450 129 465 C 120 479 113 496 107 514 C 101 532 99 552 99 574 C 99 596 104 617 114 637 C 124 657 138 674 156 689 C 174 703 194 715 218 724 C 241 732 265 737 291 737 C 349 737 394 721 428 690 C 461 658 478 621 478 578 C 478 536 464 501 438 473 C 412 445 377 416 333 388 L 537 207 C 547 219 558 233 568 248 C 578 262 589 278 599 294 L 682 247 C 670 227 658 209 646 192 C 634 174 621 158 609 143 L 689 72 L 634 -4 Z M 258 455 L 278 437 C 313 459 340 480 359 500 C 377 520 387 541 387 565 C 387 589 378 611 362 629 C 345 647 321 657 291 657 C 262 657 239 647 221 628 C 203 609 194 588 194 566 C 194 545 200 525 212 507 C 224 489 239 471 258 455 Z M 135 186 C 135 151 150 123 181 103 C 211 83 248 73 291 73 C 325 73 357 78 387 90 C 417 102 445 119 472 141 L 253 338 C 217 315 188 292 167 270 C 145 248 135 220 135 186 Z" unicode="&#x26;" />
<glyph horiz-adv-x="216" d="M 151 608 L 147 463 L 69 463 L 64 608 L 64 730 L 151 730 L 151 608 Z" unicode="'" />
<glyph horiz-adv-x="329" d="M 311 -104 L 311 -185 C 271 -167 234 -142 200 -110 C 166 -78 136 -42 111 -1 C 86 39 66 85 52 135 C 37 185 30 238 30 293 C 30 348 37 400 52 449 C 67 497 87 541 113 580 C 139 619 169 653 203 682 C 237 710 273 733 311 749 L 311 675 C 263 645 222 598 188 534 C 154 470 137 390 137 293 C 136 205 151 127 182 58 C 212 -11 255 -65 311 -104 Z" unicode="(" />
<glyph horiz-adv-x="329" d="M 18 676 L 18 749 C 54 735 89 714 123 686 C 157 658 187 624 213 584 C 239 544 259 499 275 449 C 291 398 299 343 299 284 C 299 228 291 176 276 127 C 261 77 241 32 215 -7 C 189 -47 160 -83 126 -113 C 92 -143 56 -167 18 -185 L 18 -102 C 68 -66 110 -15 143 50 C 175 116 192 194 193 284 C 193 335 188 382 179 424 C 169 466 157 503 141 535 C 125 567 106 595 85 619 C 63 643 41 662 18 676 Z" unicode=")" />
<glyph horiz-adv-x="414" d="M 383 573 L 251 542 L 349 452 L 280 394 L 209 511 L 138 395 L 70 451 L 167 543 L 33 573 L 69 656 L 183 590 L 161 730 L 256 730 L 234 590 L 351 652 L 383 573 Z" unicode="*" />
<glyph horiz-adv-x="491" d="M 466 292 L 285 292 L 285 116 L 207 116 L 207 292 L 25 292 L 25 370 L 207 370 L 207 546 L 285 546 L 285 370 L 466 370 L 466 292 Z" unicode="+" />
<glyph horiz-adv-x="238" d="M 198 114 C 196 87 191 60 184 34 C 176 7 167 -17 157 -40 C 147 -63 135 -84 123 -104 C 110 -123 97 -139 85 -151 L 15 -119 C 23 -110 31 -97 40 -80 C 49 -63 58 -44 66 -23 C 74 -2 81 19 87 43 C 93 67 98 90 101 114 L 198 114 Z" unicode="," />
<glyph horiz-adv-x="342" d="M 300 224 L 42 224 L 42 308 L 300 308 L 300 224 Z" unicode="-" />
<glyph horiz-adv-x="239" d="M 167 0 L 73 0 L 73 132 L 167 132 L 167 0 Z" unicode="." />
<glyph horiz-adv-x="317" d="M 314 730 L 89 0 L 3 0 L 231 730 L 314 730 Z" unicode="/" />
<glyph horiz-adv-x="550" d="M 272 -10 C 202 -10 146 21 102 84 C 58 146 37 239 37 361 C 37 414 42 464 52 511 C 62 557 76 597 96 631 C 116 665 141 691 171 711 C 201 731 237 741 277 741 C 318 741 354 731 384 712 C 414 693 438 667 458 635 C 477 602 491 563 500 517 C 509 471 514 422 514 370 C 514 312 509 260 499 213 C 489 166 474 126 454 93 C 434 60 408 35 378 17 C 348 -1 312 -10 272 -10 Z M 273 73 C 322 73 358 98 382 148 C 405 198 417 269 417 361 C 417 451 406 523 384 577 C 362 631 326 658 275 658 C 226 658 190 632 167 580 C 144 528 133 456 133 363 C 133 268 145 196 169 147 C 193 97 227 73 273 73 Z" unicode="0" />
<glyph horiz-adv-x="358" d="M 275 0 L 179 0 L 179 601 C 166 582 146 564 118 546 C 90 528 64 517 39 515 L 39 607 C 67 609 97 623 129 648 C 160 673 185 701 205 731 L 275 731 L 275 0 Z" unicode="1" />
<glyph horiz-adv-x="524" d="M 497 0 L 28 0 L 28 31 L 313 355 C 333 378 351 405 367 436 C 383 466 391 500 391 536 C 391 574 378 603 353 625 C 328 647 296 658 258 658 C 215 658 182 644 158 617 C 134 589 123 553 123 509 L 35 509 C 36 583 57 640 99 680 C 140 720 196 740 268 740 C 332 740 384 722 425 688 C 465 654 486 607 486 549 C 486 493 476 448 457 413 C 438 377 417 346 394 320 L 187 87 L 497 87 L 497 0 Z" unicode="2" />
<glyph horiz-adv-x="522" d="M 250 -10 C 190 -10 139 -2 98 13 C 57 28 26 45 5 65 L 51 142 C 69 126 93 110 125 94 C 157 78 195 71 240 71 C 290 71 330 85 360 114 C 389 142 404 178 404 222 C 404 263 389 295 360 317 C 331 339 295 351 253 351 L 136 351 L 136 432 L 250 432 C 288 432 319 443 343 465 C 367 487 380 514 380 547 C 380 576 368 602 345 625 C 322 647 291 659 251 659 C 209 659 175 650 148 633 C 120 615 98 595 82 572 L 27 636 C 47 662 76 686 115 708 C 153 730 201 741 259 741 C 323 741 375 725 414 693 C 453 661 473 619 473 566 C 473 522 459 484 433 454 C 407 424 375 404 338 396 C 359 392 379 386 399 376 C 418 366 435 354 449 339 C 463 323 475 305 484 285 C 492 265 497 242 497 217 C 497 187 491 159 480 132 C 469 104 453 80 433 59 C 412 38 386 21 355 9 C 324 -3 289 -10 250 -10 Z" unicode="3" />
<glyph horiz-adv-x="529" d="M 526 186 L 420 186 L 420 0 L 333 0 L 333 186 L 11 186 L 10 254 L 351 741 L 420 741 L 420 265 L 526 265 L 526 186 Z M 334 262 L 334 590 L 109 262 L 334 262 Z" unicode="4" />
<glyph horiz-adv-x="529" d="M 254 -10 C 202 -10 155 -1 114 16 C 72 34 41 54 20 77 L 70 151 C 86 133 110 115 140 98 C 170 80 206 72 246 72 C 294 72 332 88 360 121 C 388 154 402 198 402 252 C 402 302 389 341 363 369 C 337 397 304 411 265 411 C 230 411 200 403 176 389 C 152 375 133 355 121 330 L 58 348 L 87 730 L 449 730 L 449 643 L 156 643 L 141 420 C 151 436 170 452 196 467 C 222 481 253 489 289 489 C 351 489 401 468 440 427 C 479 386 499 329 499 257 C 499 176 476 111 430 63 C 384 14 326 -10 254 -10 Z" unicode="5" />
<glyph horiz-adv-x="532" d="M 276 -11 C 242 -11 210 -5 180 6 C 150 18 125 35 103 57 C 81 79 64 106 52 138 C 39 170 33 206 33 246 C 33 287 38 327 50 365 C 62 403 78 441 99 477 C 119 513 144 549 173 583 C 201 617 233 651 267 685 L 336 755 L 396 693 L 343 642 C 291 590 245 539 207 491 C 168 443 145 402 137 370 C 147 392 167 413 196 431 C 225 449 258 459 296 459 C 359 459 410 437 448 394 C 486 351 506 296 506 229 C 506 195 500 163 488 134 C 476 104 460 79 440 58 C 419 36 395 19 367 7 C 339 -4 308 -11 276 -11 Z M 272 71 C 314 71 348 85 374 115 C 399 145 412 181 412 225 C 412 269 399 306 375 336 C 351 365 316 380 272 380 C 233 380 199 366 170 339 C 140 312 126 276 126 230 C 126 183 139 145 166 115 C 192 85 228 71 272 71 Z" unicode="6" />
<glyph horiz-adv-x="459" d="M 449 730 L 460 685 L 142 -7 L 58 30 L 348 642 L 14 642 L 14 730 L 449 730 Z" unicode="7" />
<glyph horiz-adv-x="554" d="M 369 388 C 409 380 444 360 474 328 C 504 296 519 253 519 199 C 519 137 497 86 454 48 C 410 9 351 -10 277 -10 C 202 -10 143 9 100 47 C 56 85 35 134 35 196 C 35 223 39 248 48 271 C 57 293 69 313 83 329 C 97 345 114 359 132 369 C 150 379 168 385 186 388 C 170 392 154 399 138 409 C 122 418 109 429 97 443 C 85 457 75 473 68 491 C 60 509 57 530 57 553 C 57 581 62 606 73 630 C 84 653 99 673 119 689 C 139 705 162 717 189 726 C 215 735 244 740 276 740 C 342 740 395 723 436 690 C 476 656 497 613 497 559 C 497 515 484 477 458 447 C 432 416 402 396 369 388 Z M 277 417 C 316 417 348 427 373 449 C 397 471 410 500 410 537 C 410 575 397 605 372 627 C 346 649 315 661 277 661 C 239 661 207 650 181 628 C 155 606 143 576 143 538 C 143 498 156 467 183 447 C 210 427 241 417 277 417 Z M 278 69 C 322 69 358 81 386 106 C 413 130 427 165 427 209 C 427 251 412 284 384 306 C 355 328 320 339 278 339 C 234 339 198 328 170 306 C 141 284 127 250 127 206 C 127 164 141 130 169 106 C 197 81 234 69 278 69 Z" unicode="8" />
<glyph horiz-adv-x="532" d="M 211 -17 L 155 45 L 219 100 C 238 118 257 139 277 163 C 297 187 315 211 331 235 C 347 259 362 283 374 307 C 386 331 396 352 402 371 C 390 347 367 326 335 307 C 302 287 269 278 235 278 C 172 278 121 299 83 341 C 45 383 26 439 26 509 C 26 541 32 572 44 600 C 56 628 72 653 93 674 C 113 694 138 711 167 723 C 195 735 226 741 260 741 C 293 741 324 735 353 724 C 382 712 407 696 429 675 C 451 653 468 627 480 595 C 492 563 499 527 499 487 C 499 439 492 394 480 352 C 467 309 450 269 430 232 C 409 194 385 160 358 128 C 331 96 304 68 276 44 L 211 -17 Z M 258 353 C 298 353 333 366 362 394 C 391 422 406 458 406 502 C 406 552 392 591 364 619 C 336 647 302 661 262 661 C 218 661 183 646 158 617 C 133 587 121 551 121 508 C 121 462 132 425 156 396 C 180 367 214 353 258 353 Z" unicode="9" />
<glyph horiz-adv-x="232" d="M 163 413 L 69 413 L 69 540 L 163 540 L 163 413 Z M 163 0 L 69 0 L 69 128 L 163 128 L 163 0 Z" unicode=":" />
<glyph horiz-adv-x="232" d="M 169 413 L 75 413 L 75 540 L 169 540 L 169 413 Z M 174 102 C 171 78 166 53 160 29 C 153 5 145 -17 135 -39 C 125 -61 115 -81 103 -99 C 91 -117 78 -133 66 -145 L -4 -113 C 4 -103 12 -91 22 -75 C 31 -59 40 -42 48 -23 C 56 -3 64 16 70 38 C 76 59 80 80 82 102 L 174 102 Z" unicode=";" />
<glyph horiz-adv-x="406" d="M 356 99 L 38 291 L 38 365 L 356 554 L 356 468 L 131 329 L 356 187 L 356 99 Z" unicode="&#x3C;" />
<glyph horiz-adv-x="494" d="M 443 388 L 51 388 L 51 468 L 443 468 L 443 388 Z M 443 175 L 51 175 L 51 255 L 443 255 L 443 175 Z" unicode="=" />
<glyph horiz-adv-x="406" d="M 366 291 L 47 99 L 47 187 L 272 329 L 47 469 L 47 554 L 366 365 L 366 291 Z" unicode="&#x3E;" />
<glyph horiz-adv-x="462" d="M 163 202 C 163 248 168 286 178 316 C 188 345 208 373 238 399 C 261 419 283 441 305 465 C 327 488 338 518 338 554 C 338 586 326 611 303 629 C 279 647 251 657 217 657 C 186 657 158 649 134 635 C 110 620 89 602 73 582 L 14 642 C 36 670 65 694 102 713 C 138 732 181 742 229 742 C 289 742 338 726 377 695 C 416 663 436 620 436 566 C 436 540 432 516 424 496 C 416 476 407 457 395 441 C 383 425 370 410 356 397 C 342 384 328 372 316 361 C 290 340 274 315 267 286 C 259 257 255 229 255 202 L 163 202 Z M 159 0 L 159 120 L 262 120 L 262 0 L 159 0 Z" unicode="?" />
<glyph horiz-adv-x="860" d="M 425 -31 C 371 -31 320 -21 274 -1 C 227 19 187 46 153 80 C 119 114 93 155 74 202 C 54 248 45 298 45 351 C 45 405 54 455 73 502 C 92 548 119 588 153 622 C 187 656 227 682 275 702 C 322 722 374 732 431 732 C 489 732 541 723 589 706 C 636 689 676 665 710 635 C 743 605 769 568 787 526 C 805 483 815 436 815 385 C 815 341 810 303 800 272 C 790 240 778 215 763 195 C 747 175 730 161 710 152 C 690 142 670 138 650 138 C 616 138 590 144 571 158 C 552 171 540 188 535 209 C 527 192 508 176 480 161 C 451 146 417 139 377 139 C 329 139 292 150 266 174 C 240 198 227 229 227 267 C 227 309 244 343 279 369 C 314 394 364 407 428 407 L 524 407 L 524 418 C 524 448 514 470 494 483 C 474 496 450 503 420 503 C 396 503 374 500 353 495 C 331 489 314 484 300 478 L 272 542 C 290 550 312 558 340 565 C 368 572 396 576 425 576 C 479 576 522 562 553 535 C 584 508 600 465 600 407 L 600 262 C 600 247 604 233 613 221 C 622 208 637 202 659 202 C 669 202 679 204 690 209 C 701 214 711 223 720 236 C 729 248 737 266 743 289 C 749 312 752 342 752 378 C 752 419 744 458 730 494 C 715 530 694 562 666 589 C 638 615 605 636 565 652 C 525 667 481 675 431 675 C 383 675 339 666 299 650 C 259 633 225 610 197 582 C 169 553 147 519 131 479 C 115 439 108 397 108 352 C 108 307 116 265 132 225 C 148 185 171 150 199 121 C 227 91 261 68 300 51 C 339 33 381 25 427 25 C 449 25 473 27 497 33 C 521 38 546 46 570 58 L 593 5 C 566 -7 538 -16 510 -22 C 482 -28 453 -31 425 -31 Z M 409 206 C 435 206 459 211 481 223 C 503 234 517 245 524 257 L 524 349 L 435 349 C 395 349 365 342 345 330 C 325 317 315 299 315 276 C 315 253 322 236 338 224 C 354 212 377 206 409 206 Z" unicode="@" />
<glyph horiz-adv-x="597" d="M 596 0 L 493 0 L 425 188 L 163 188 L 98 0 L 1 0 L 266 734 L 334 734 L 596 0 Z M 406 263 L 294 581 L 183 263 L 406 263 Z" unicode="A" />
<glyph horiz-adv-x="563" d="M 83 0 L 83 730 L 291 730 C 351 730 399 714 435 684 C 471 653 489 610 489 554 C 489 506 476 466 451 436 C 425 405 393 386 355 380 C 375 378 395 373 415 365 C 435 357 454 346 470 332 C 486 317 499 299 509 277 C 519 255 525 229 525 199 C 525 139 504 91 463 55 C 421 18 368 0 302 0 L 83 0 Z M 177 408 L 271 408 C 293 408 312 411 328 419 C 344 427 356 437 366 449 C 376 461 383 474 387 490 C 391 506 394 522 394 538 C 394 572 383 599 361 619 C 339 639 308 650 268 650 L 177 650 L 177 408 Z M 178 80 L 294 80 C 339 80 372 92 393 118 C 413 144 424 174 424 210 C 424 246 411 274 386 296 C 361 318 329 329 290 329 L 178 329 L 178 80 Z" unicode="B" />
<glyph horiz-adv-x="675" d="M 366 -10 C 322 -10 280 -1 240 15 C 200 31 166 56 137 88 C 108 120 85 159 68 206 C 51 252 43 305 43 365 C 43 421 50 473 66 519 C 82 565 104 605 132 637 C 160 669 195 695 235 713 C 275 731 319 740 367 740 C 431 740 484 728 526 704 C 568 680 603 647 629 604 L 548 553 C 529 581 506 604 478 622 C 450 640 413 650 368 650 C 298 650 243 625 203 577 C 163 528 143 458 143 367 C 143 317 149 274 163 238 C 176 201 193 171 215 148 C 236 124 261 107 289 95 C 317 83 345 78 375 78 C 421 78 460 88 491 109 C 522 130 547 158 567 192 L 643 144 C 619 99 583 62 536 33 C 489 4 432 -10 366 -10 Z" unicode="C" />
<glyph horiz-adv-x="679" d="M 83 0 L 83 730 L 285 730 C 340 730 390 721 434 704 C 478 687 514 663 544 632 C 574 601 597 564 613 520 C 629 476 637 427 637 374 C 637 321 629 272 613 226 C 597 180 574 141 544 108 C 514 74 476 48 430 29 C 384 9 332 0 272 0 L 83 0 Z M 183 82 L 271 82 C 316 82 355 89 388 104 C 421 118 448 138 470 164 C 491 190 507 220 517 256 C 527 292 533 331 533 373 C 533 459 510 526 466 575 C 422 624 361 649 283 649 L 183 649 L 183 82 Z" unicode="D" />
<glyph horiz-adv-x="524" d="M 482 0 L 83 0 L 83 730 L 463 730 L 463 643 L 181 643 L 181 407 L 450 407 L 450 322 L 181 322 L 181 87 L 482 87 L 482 0 Z" unicode="E" />
<glyph horiz-adv-x="474" d="M 441 643 L 184 643 L 184 410 L 427 410 L 427 325 L 184 325 L 184 0 L 84 0 L 84 730 L 441 730 L 441 643 Z" unicode="F" />
<glyph horiz-adv-x="710" d="M 376 365 L 663 365 L 663 142 C 637 96 598 59 548 31 C 497 3 439 -10 374 -10 C 328 -10 284 -1 244 16 C 204 33 169 58 139 90 C 109 122 86 162 69 209 C 51 255 43 307 43 365 C 43 422 51 474 68 520 C 85 566 108 606 138 638 C 168 670 203 695 244 713 C 284 731 328 740 375 740 C 441 740 494 728 534 705 C 574 681 605 655 627 626 L 557 559 C 538 583 515 604 487 622 C 459 640 421 649 375 649 C 342 649 311 643 283 631 C 254 619 229 601 209 577 C 188 553 172 524 160 489 C 148 453 142 412 142 366 C 142 319 148 277 160 241 C 172 204 189 173 210 148 C 231 123 256 104 285 91 C 313 78 344 72 376 72 C 420 72 459 80 495 97 C 530 113 556 138 572 171 L 572 280 L 376 280 L 376 365 Z" unicode="G" />
<glyph horiz-adv-x="688" d="M 605 0 L 505 0 L 505 318 L 183 318 L 183 0 L 83 0 L 83 730 L 183 730 L 183 403 L 505 403 L 505 730 L 605 730 L 605 0 Z" unicode="H" />
<glyph horiz-adv-x="275" d="M 188 0 L 87 0 L 87 730 L 188 730 L 188 0 Z" unicode="I" />
<glyph horiz-adv-x="385" d="M 305 730 L 305 190 C 305 162 300 136 292 112 C 283 87 270 66 253 48 C 236 30 215 15 191 5 C 166 -5 138 -11 106 -11 C 89 -11 70 -9 50 -6 C 30 -2 14 2 3 10 L 35 89 C 40 85 48 83 59 81 C 70 79 81 78 93 78 C 129 78 156 89 176 113 C 195 136 205 164 205 197 L 205 730 L 305 730 Z" unicode="J" />
<glyph horiz-adv-x="615" d="M 607 0 L 489 0 L 265 330 L 183 229 L 183 0 L 83 0 L 83 730 L 183 730 L 183 352 L 467 730 L 574 730 L 331 408 L 607 0 Z" unicode="K" />
<glyph horiz-adv-x="475" d="M 465 0 L 83 0 L 83 730 L 183 730 L 183 87 L 465 87 L 465 0 Z" unicode="L" />
<glyph horiz-adv-x="827" d="M 744 0 L 650 0 L 650 530 L 436 173 L 393 173 L 175 529 L 175 0 L 83 0 L 83 730 L 160 730 L 417 296 L 668 730 L 744 730 L 744 0 Z" unicode="M" />
<glyph horiz-adv-x="705" d="M 622 0 L 550 0 L 177 536 L 177 0 L 83 0 L 83 730 L 158 730 L 531 195 L 531 730 L 622 730 L 622 0 Z" unicode="N" />
<glyph horiz-adv-x="752" d="M 379 -10 C 329 -10 283 0 242 17 C 200 35 165 61 136 95 C 106 128 83 168 67 215 C 51 261 43 313 43 370 C 43 424 51 474 68 520 C 84 566 107 605 136 637 C 165 669 200 695 240 713 C 280 731 324 740 372 740 C 422 740 468 731 510 713 C 552 695 587 669 617 637 C 646 605 669 566 685 520 C 701 474 709 423 709 367 C 709 310 700 258 683 212 C 665 166 642 126 613 93 C 583 60 548 35 508 17 C 468 -1 425 -10 379 -10 Z M 383 73 C 415 73 445 79 473 92 C 501 105 525 124 545 149 C 565 173 580 204 592 241 C 603 277 609 319 609 367 C 609 411 603 450 591 486 C 579 521 562 551 541 576 C 519 601 494 620 464 634 C 434 647 402 654 368 654 C 302 654 248 629 206 580 C 164 530 143 460 143 369 C 143 321 149 279 162 243 C 174 206 191 175 213 150 C 234 125 259 106 289 93 C 318 79 349 73 383 73 Z" unicode="O" />
<glyph horiz-adv-x="556" d="M 83 0 L 83 730 L 313 730 C 343 730 372 725 399 715 C 425 705 448 692 468 674 C 487 656 502 634 513 608 C 524 582 530 552 530 519 C 530 453 510 399 470 358 C 430 317 378 297 316 297 L 183 297 L 183 0 L 83 0 Z M 182 378 L 299 378 C 341 378 373 390 396 416 C 418 441 430 476 430 520 C 430 562 416 594 390 616 C 363 638 331 649 293 649 L 182 649 L 182 378 Z" unicode="P" />
<glyph horiz-adv-x="752" d="M 640 -90 L 640 -181 C 583 -178 530 -162 480 -133 C 430 -104 390 -62 362 -8 C 313 -6 269 4 230 23 C 190 41 157 67 129 100 C 101 132 80 171 65 217 C 50 263 43 314 43 370 C 43 424 51 473 67 519 C 83 565 106 604 135 636 C 164 668 199 694 240 712 C 280 730 325 740 373 740 C 423 740 468 731 510 714 C 551 696 586 671 616 639 C 645 607 668 567 684 521 C 700 474 709 422 709 365 C 709 319 703 276 691 236 C 679 196 662 161 641 130 C 620 98 595 72 565 50 C 535 28 502 13 466 3 C 488 -29 515 -52 547 -66 C 578 -80 609 -88 640 -90 Z M 143 371 C 143 329 147 291 157 257 C 167 223 180 194 197 170 C 213 146 233 126 256 110 C 279 94 304 84 331 78 C 327 94 324 112 322 130 C 320 148 319 167 319 187 L 416 187 C 416 166 418 146 420 128 C 422 110 426 93 431 79 C 483 90 525 120 559 169 C 592 218 609 283 609 365 C 609 411 602 453 590 489 C 577 525 560 555 538 579 C 516 603 490 622 461 634 C 431 646 400 653 368 653 C 302 653 248 628 206 580 C 164 532 143 462 143 371 Z" unicode="Q" />
<glyph horiz-adv-x="565" d="M 83 0 L 83 730 L 286 730 C 344 730 393 712 432 678 C 471 644 491 595 491 533 C 491 503 486 477 478 453 C 470 429 459 408 445 392 C 431 375 415 361 397 351 C 378 341 359 334 339 332 L 337 328 L 547 0 L 434 0 L 244 307 L 180 307 L 180 0 L 83 0 Z M 179 389 L 263 389 C 300 389 331 400 356 423 C 380 445 393 478 393 522 C 393 563 381 594 358 616 C 335 638 306 649 270 649 L 179 649 L 179 389 Z" unicode="R" />
<glyph horiz-adv-x="538" d="M 272 -10 C 218 -10 172 -2 133 13 C 94 28 61 50 35 79 L 100 151 C 118 126 143 106 175 92 C 206 78 239 71 273 71 C 305 71 334 80 359 100 C 383 119 396 144 396 176 C 396 208 385 235 364 257 C 343 279 305 303 251 329 C 215 345 185 360 161 375 C 136 390 116 406 101 424 C 85 441 74 461 67 483 C 60 505 57 530 57 559 C 57 614 76 658 115 691 C 154 723 204 740 266 740 C 314 740 354 732 387 717 C 419 701 446 684 468 664 L 410 589 C 389 607 366 622 341 634 C 315 645 289 651 261 651 C 229 651 203 642 182 626 C 161 609 151 586 151 557 C 151 525 162 499 185 479 C 208 459 248 435 306 409 C 375 377 423 345 450 312 C 477 278 491 236 491 184 C 491 153 485 126 473 102 C 461 78 445 57 425 41 C 405 24 381 11 355 3 C 329 -5 301 -10 272 -10 Z" unicode="S" />
<glyph horiz-adv-x="493" d="M 485 643 L 295 643 L 295 0 L 195 0 L 195 643 L 9 643 L 9 730 L 485 730 L 485 643 Z" unicode="T" />
<glyph horiz-adv-x="686" d="M 607 730 L 607 250 C 607 207 599 169 585 137 C 571 104 552 77 528 55 C 504 33 475 17 443 6 C 411 -4 377 -10 341 -10 C 305 -10 272 -4 240 6 C 208 16 180 32 156 54 C 132 75 114 102 100 135 C 86 167 79 206 79 250 L 79 730 L 177 730 L 177 250 C 177 194 193 152 225 123 C 257 93 296 79 341 79 C 363 79 385 82 405 89 C 425 96 442 107 457 121 C 472 135 484 152 493 174 C 502 196 507 221 507 250 L 507 730 L 607 730 Z" unicode="U" />
<glyph horiz-adv-x="600" d="M 599 730 L 331 -5 L 262 -5 L 1 730 L 106 730 L 299 162 L 499 730 L 599 730 Z" unicode="V" />
<glyph horiz-adv-x="854" d="M 840 730 L 641 -5 L 579 -5 L 426 550 L 267 -5 L 204 -5 L 9 730 L 110 730 L 247 188 L 397 730 L 461 730 L 612 186 L 749 730 L 840 730 Z" unicode="W" />
<glyph horiz-adv-x="566" d="M 447 0 L 281 289 L 114 0 L 13 0 L 231 376 L 27 730 L 136 730 L 285 470 L 435 730 L 536 730 L 335 383 L 555 0 L 447 0 Z" unicode="X" />
<glyph horiz-adv-x="596" d="M 597 730 L 346 311 L 346 0 L 246 0 L 246 315 L -1 730 L 113 730 L 301 407 L 495 730 L 597 730 Z" unicode="Y" />
<glyph horiz-adv-x="533" d="M 503 730 L 503 685 L 148 86 L 515 86 L 515 0 L 18 0 L 18 44 L 369 643 L 49 643 L 49 730 L 503 730 Z" unicode="Z" />
<glyph horiz-adv-x="307" d="M 273 -179 L 83 -179 L 83 730 L 273 730 L 273 654 L 172 654 L 172 -101 L 273 -101 L 273 -179 Z" unicode="[" />
<glyph horiz-adv-x="317" d="M 3 730 L 86 730 L 314 0 L 230 0 L 3 730 Z" unicode="\" />
<glyph horiz-adv-x="297" d="M 218 -179 L 35 -179 L 35 -104 L 130 -104 L 130 655 L 35 655 L 35 730 L 218 730 L 218 -179 Z" unicode="]" />
<glyph horiz-adv-x="486" d="M 430 369 L 349 369 L 241 632 L 136 369 L 57 369 L 201 730 L 281 730 L 430 369 Z" unicode="^" />
<glyph horiz-adv-x="475" d="M 475 -157 L 0 -157 L 0 -82 L 475 -82 L 475 -157 Z" unicode="_" />
<glyph horiz-adv-x="500" d="M 348 593 L 256 593 L 140 760 L 248 760 L 348 593 Z" unicode="`" />
<glyph horiz-adv-x="521" d="M 459 0 L 373 0 L 373 67 C 354 43 331 25 303 12 C 275 0 240 -7 200 -7 C 150 -7 109 7 79 35 C 49 63 34 103 34 153 C 34 213 54 258 96 288 C 137 318 191 336 259 341 L 369 348 L 369 368 C 369 403 359 429 339 446 C 319 462 292 471 258 471 C 228 471 199 465 173 454 C 146 443 122 431 102 417 L 67 488 C 89 505 118 520 153 533 C 187 545 227 552 272 552 C 330 552 375 537 409 509 C 442 480 459 436 459 376 L 459 0 Z M 371 132 L 371 279 L 259 273 C 221 270 190 260 166 242 C 142 224 130 196 130 160 C 130 129 139 105 159 89 C 179 73 204 65 234 65 C 262 65 288 71 312 84 C 336 96 356 112 371 132 Z" unicode="a" />
<glyph horiz-adv-x="578" d="M 330 -6 C 284 -6 246 5 218 28 C 189 50 169 78 159 111 L 159 0 L 72 0 L 72 800 L 158 800 L 158 417 C 167 453 186 483 216 509 C 246 535 285 548 334 548 C 396 548 446 523 484 475 C 522 426 542 362 542 282 C 542 236 536 196 525 160 C 514 124 499 94 480 70 C 460 45 438 26 412 13 C 386 0 359 -6 330 -6 Z M 304 72 C 346 72 380 90 406 127 C 432 164 446 213 446 274 C 446 334 433 381 409 416 C 384 450 349 468 303 468 C 263 468 229 452 201 420 C 173 388 159 336 159 264 C 159 196 172 147 200 117 C 227 87 262 72 304 72 Z" unicode="b" />
<glyph horiz-adv-x="511" d="M 424 155 L 488 103 C 479 89 469 76 457 63 C 445 49 430 37 414 27 C 398 16 379 7 357 1 C 335 -5 311 -9 284 -9 C 246 -9 212 -2 182 11 C 151 25 125 44 104 68 C 82 92 66 122 54 156 C 42 190 36 227 36 269 C 36 308 42 345 54 379 C 66 413 82 443 104 468 C 126 493 152 513 183 528 C 213 542 247 550 285 550 C 313 550 338 546 360 539 C 382 531 402 522 419 510 C 435 498 449 485 460 470 C 471 455 480 440 486 425 L 411 385 C 400 405 384 424 364 441 C 344 458 317 467 283 467 C 237 467 200 448 173 411 C 145 373 132 327 132 271 C 132 209 146 161 175 126 C 203 90 241 73 289 73 C 327 73 356 82 376 100 C 396 118 412 136 424 155 Z" unicode="c" />
<glyph horiz-adv-x="583" d="M 255 -9 C 191 -9 138 16 97 67 C 56 117 36 185 36 269 C 36 309 41 347 53 382 C 65 416 81 446 101 470 C 121 494 144 514 172 528 C 199 542 228 549 260 549 C 298 549 331 537 361 514 C 391 490 411 463 422 431 L 422 800 L 511 800 L 511 0 L 427 0 L 427 113 C 423 100 416 86 406 72 C 396 58 384 45 369 33 C 354 21 337 11 318 3 C 298 -5 277 -9 255 -9 Z M 276 69 C 320 69 356 87 382 124 C 408 161 422 211 422 274 C 422 341 407 390 379 422 C 350 453 317 469 279 469 C 234 469 198 451 172 416 C 145 381 132 332 132 270 C 132 209 144 160 170 124 C 196 87 231 69 276 69 Z" unicode="d" />
<glyph horiz-adv-x="549" d="M 284 -9 C 248 -9 214 -2 184 10 C 153 22 127 40 105 64 C 83 88 66 117 54 152 C 42 186 36 225 36 269 C 36 309 42 346 54 381 C 66 415 83 445 105 470 C 127 494 152 514 182 528 C 212 542 244 549 279 549 C 351 549 409 521 451 467 C 493 412 515 337 516 242 L 129 242 C 130 196 144 156 172 123 C 200 90 238 74 287 74 C 325 74 356 81 380 96 C 404 111 423 128 439 147 L 492 86 C 471 60 444 38 411 19 C 378 0 336 -9 284 -9 Z M 127 310 L 421 310 C 420 358 406 396 380 426 C 353 455 319 470 278 470 C 236 470 201 454 173 424 C 145 394 130 356 127 310 Z" unicode="e" />
<glyph horiz-adv-x="315" d="M 303 460 L 191 460 L 191 0 L 97 0 L 97 460 L 12 460 L 12 540 L 97 540 L 97 650 C 97 673 101 694 109 713 C 117 732 127 748 141 762 C 154 775 169 785 187 792 C 204 799 222 803 241 803 C 259 803 277 800 295 796 C 312 791 326 785 338 778 L 312 704 C 306 706 297 709 287 712 C 276 714 265 716 254 716 C 235 716 220 708 208 692 C 196 676 190 655 190 630 L 190 540 L 303 540 L 303 460 Z" unicode="f" />
<glyph horiz-adv-x="578" d="M 254 7 C 190 7 137 31 97 81 C 57 130 37 194 37 274 C 37 357 57 424 98 474 C 139 524 192 549 256 549 C 298 549 334 537 364 515 C 394 492 415 464 426 432 L 426 540 L 510 540 L 510 54 C 510 10 502 -28 486 -60 C 470 -92 450 -118 426 -139 C 401 -159 373 -175 342 -185 C 311 -195 280 -200 250 -200 C 201 -200 163 -195 135 -187 C 107 -178 86 -169 72 -161 L 111 -85 C 123 -91 140 -99 163 -107 C 185 -115 212 -119 243 -119 C 267 -119 290 -115 312 -108 C 334 -100 353 -89 369 -75 C 385 -60 397 -42 407 -20 C 416 2 421 27 421 56 L 421 136 C 416 121 409 106 399 90 C 389 74 377 61 363 49 C 349 37 332 27 314 19 C 296 11 276 7 254 7 Z M 279 85 C 297 85 314 88 332 96 C 349 104 364 115 378 131 C 391 147 402 167 410 192 C 418 217 422 247 422 281 C 422 341 408 386 380 418 C 352 449 319 465 280 465 C 236 465 200 447 173 413 C 146 379 133 331 133 271 C 133 211 145 165 171 133 C 197 101 233 85 279 85 Z" unicode="g" />
<glyph horiz-adv-x="560" d="M 494 0 L 401 0 L 401 377 C 401 406 390 429 370 445 C 350 461 325 470 295 470 C 279 470 263 467 248 463 C 232 458 218 451 206 441 C 194 431 184 419 176 404 C 168 389 165 371 165 351 L 165 0 L 72 0 L 72 800 L 158 800 L 158 448 C 166 477 185 501 215 521 C 245 540 282 550 326 550 C 348 550 370 547 390 541 C 410 535 428 525 444 513 C 459 501 471 485 480 467 C 489 449 494 427 494 403 L 494 0 Z" unicode="h" />
<glyph horiz-adv-x="241" d="M 72 647 L 72 746 L 170 746 L 170 647 L 72 647 Z M 74 0 L 74 540 L 167 540 L 167 0 L 74 0 Z" unicode="i" />
<glyph horiz-adv-x="272" d="M 205 647 L 108 647 L 108 746 L 205 746 L 205 647 Z M 203 540 L 203 -26 C 203 -78 189 -118 161 -146 C 133 -174 99 -189 61 -189 C 38 -189 16 -186 -4 -180 C -24 -174 -41 -167 -53 -159 L -23 -90 C -14 -94 -4 -98 8 -102 C 20 -105 34 -107 50 -107 C 66 -107 80 -98 92 -82 C 104 -66 110 -45 110 -20 L 110 540 L 203 540 Z" unicode="j" />
<glyph horiz-adv-x="510" d="M 527 2 L 423 -1 L 251 243 L 165 145 L 165 0 L 72 0 L 72 800 L 163 800 L 163 249 L 391 540 L 490 540 L 313 313 L 527 2 Z" unicode="k" />
<glyph horiz-adv-x="273" d="M 67 117 L 67 800 L 160 800 L 160 143 C 160 122 165 106 175 95 C 185 83 200 78 220 78 C 227 78 235 78 243 79 C 251 80 257 81 261 83 L 267 4 C 260 1 250 -1 238 -3 C 225 -5 212 -6 199 -6 C 164 -6 133 4 107 24 C 80 44 67 75 67 117 Z" unicode="l" />
<glyph horiz-adv-x="880" d="M 72 0 L 72 540 L 154 540 L 154 438 C 164 473 185 500 219 520 C 252 540 288 550 327 550 C 366 550 400 540 429 521 C 457 501 474 474 479 439 L 483 439 C 491 471 510 498 542 519 C 573 539 608 550 648 550 C 694 550 733 537 765 513 C 797 489 813 453 813 405 L 813 0 L 721 0 L 721 373 C 721 407 710 431 689 447 C 668 462 643 470 614 470 C 599 470 584 467 569 462 C 554 457 541 450 529 440 C 517 430 508 418 500 403 C 492 387 489 369 489 349 L 489 0 L 397 0 L 397 377 C 397 407 386 430 366 446 C 345 462 320 470 290 470 C 274 470 259 467 244 462 C 229 457 216 450 204 440 C 192 430 182 417 175 401 C 167 385 164 367 164 346 L 164 0 L 72 0 Z" unicode="m" />
<glyph horiz-adv-x="560" d="M 494 0 L 401 0 L 401 380 C 401 408 390 430 370 446 C 349 462 324 470 296 470 C 281 470 266 467 250 463 C 234 458 220 451 208 441 C 195 431 185 419 177 404 C 169 388 165 370 165 350 L 165 0 L 72 0 L 72 540 L 152 540 L 152 438 C 162 470 183 497 215 518 C 246 539 284 550 328 550 C 350 550 372 546 392 540 C 412 534 429 525 444 513 C 459 501 471 486 480 468 C 489 450 494 431 494 409 L 494 0 Z" unicode="n" />
<glyph horiz-adv-x="568" d="M 281 -9 C 248 -9 217 -2 187 9 C 157 21 131 39 109 63 C 87 86 69 115 56 150 C 42 184 36 224 36 268 C 36 309 42 347 55 382 C 67 416 85 446 107 471 C 129 495 155 515 185 529 C 215 543 247 550 281 550 C 317 550 350 543 381 531 C 411 519 438 501 460 478 C 482 454 500 426 513 393 C 525 360 532 323 532 283 C 532 239 525 200 513 164 C 500 128 482 97 460 72 C 438 46 411 26 380 12 C 349 -1 316 -9 281 -9 Z M 285 73 C 330 73 366 91 394 128 C 422 164 436 214 436 276 C 436 335 421 382 393 416 C 365 450 327 467 280 467 C 236 467 200 449 173 414 C 145 378 132 330 132 269 C 132 204 146 155 176 122 C 205 89 241 73 285 73 Z" unicode="o" />
<glyph horiz-adv-x="578" d="M 72 -196 L 72 540 L 154 540 L 154 412 C 162 450 182 482 213 509 C 244 535 284 549 332 549 C 397 549 448 524 486 476 C 524 428 543 363 543 282 C 543 192 522 122 482 71 C 442 19 391 -6 329 -6 C 287 -6 251 4 222 26 C 192 47 173 73 163 104 L 163 -196 L 72 -196 Z M 303 72 C 344 72 378 89 406 125 C 433 161 447 210 447 272 C 447 330 435 377 411 413 C 387 449 351 468 305 468 C 263 468 229 452 201 421 C 173 389 159 337 159 265 C 159 195 173 145 201 116 C 229 86 263 72 303 72 Z" unicode="p" />
<glyph horiz-adv-x="582" d="M 419 -196 L 419 115 C 413 101 406 86 396 72 C 386 57 373 44 359 32 C 345 20 328 10 309 3 C 290 -4 269 -8 247 -8 C 215 -8 187 -1 161 11 C 135 24 112 42 94 66 C 76 89 61 117 51 150 C 41 183 36 220 36 260 C 36 305 41 345 53 381 C 65 417 81 447 101 472 C 121 496 144 515 172 528 C 199 541 228 548 260 548 C 281 548 301 544 320 537 C 339 529 356 520 370 508 C 384 496 397 482 407 467 C 417 452 424 437 428 421 L 428 540 L 510 540 L 510 -196 L 419 -196 Z M 277 69 C 318 69 352 86 380 121 C 408 156 422 207 422 274 C 422 339 408 388 380 420 C 352 452 317 469 276 469 C 232 469 197 451 171 416 C 145 381 132 332 132 268 C 132 209 145 161 171 124 C 197 87 232 69 277 69 Z" unicode="q" />
<glyph horiz-adv-x="414" d="M 418 520 L 375 437 C 365 446 354 453 340 458 C 326 463 311 466 293 466 C 277 466 262 463 247 457 C 231 451 218 442 206 430 C 194 418 184 404 176 387 C 168 369 165 350 165 328 L 165 0 L 72 0 L 72 540 L 158 540 L 158 430 C 165 460 183 488 213 513 C 242 537 278 550 320 550 C 342 550 362 547 379 541 C 395 535 408 528 418 520 Z" unicode="r" />
<glyph horiz-adv-x="440" d="M 236 -9 C 191 -9 151 -2 117 10 C 82 23 54 40 32 62 L 76 126 C 95 108 118 94 146 84 C 173 73 200 68 228 68 C 252 68 274 75 292 89 C 310 103 319 121 319 144 C 319 164 310 182 292 197 C 274 212 242 228 197 245 C 145 263 108 286 86 313 C 64 339 53 372 53 410 C 53 451 69 485 102 511 C 135 537 176 550 224 550 C 268 550 304 544 332 532 C 360 520 381 508 397 496 L 363 424 C 345 436 325 447 303 457 C 281 467 258 473 232 473 C 208 473 187 467 169 455 C 151 443 142 428 142 409 C 142 389 149 372 163 360 C 177 348 208 333 256 315 C 310 294 348 271 372 245 C 396 219 408 185 408 145 C 408 120 403 98 393 79 C 383 59 371 43 355 30 C 339 17 321 7 301 1 C 280 -5 258 -9 236 -9 Z" unicode="s" />
<glyph horiz-adv-x="328" d="M 301 97 L 317 21 C 307 13 293 7 275 2 C 257 -2 237 -5 217 -5 C 180 -5 148 6 122 30 C 96 54 83 90 83 140 L 83 462 L 11 462 L 11 540 L 84 540 L 84 670 L 174 682 L 174 540 L 299 540 L 299 462 L 175 462 L 175 147 C 175 125 180 109 190 97 C 200 85 214 79 233 79 C 247 79 260 81 272 85 C 284 89 294 93 301 97 Z" unicode="t" />
<glyph horiz-adv-x="560" d="M 67 540 L 160 540 L 160 184 C 160 142 170 113 192 95 C 214 77 241 69 275 69 C 307 69 335 79 359 101 C 383 122 395 153 395 193 L 395 540 L 488 540 L 488 0 L 405 0 L 405 99 C 396 71 377 45 348 23 C 319 1 282 -10 237 -10 C 214 -10 192 -6 172 0 C 151 6 133 16 117 29 C 101 42 89 59 80 79 C 71 99 67 123 67 151 L 67 540 Z" unicode="u" />
<glyph horiz-adv-x="474" d="M 479 540 L 268 -3 L 204 -3 L -5 540 L 95 540 L 240 150 L 386 540 L 479 540 Z" unicode="v" />
<glyph horiz-adv-x="696" d="M 466 -3 L 354 328 L 229 -3 L 169 -3 L 3 540 L 96 540 L 212 144 L 326 466 L 388 466 L 493 147 L 608 540 L 694 540 L 527 -3 L 466 -3 Z" unicode="w" />
<glyph horiz-adv-x="439" d="M 342 0 L 217 205 L 89 0 L 1 0 L 173 277 L 13 540 L 111 540 L 222 357 L 336 540 L 426 540 L 266 284 L 439 0 L 342 0 Z" unicode="x" />
<glyph horiz-adv-x="479" d="M 483 540 L 236 -83 C 218 -125 194 -155 165 -173 C 136 -191 107 -200 79 -200 C 59 -200 42 -197 29 -193 C 15 -188 6 -184 1 -182 L 34 -105 C 37 -107 43 -109 52 -112 C 61 -114 70 -116 79 -116 C 95 -116 109 -110 123 -99 C 137 -87 149 -69 161 -44 L 192 38 L -4 540 L 94 540 L 241 150 L 390 540 L 483 540 Z" unicode="y" />
<glyph horiz-adv-x="430" d="M 402 540 L 402 499 L 144 81 L 420 81 L 420 0 L 17 0 L 17 39 L 275 458 L 29 458 L 29 540 L 402 540 Z" unicode="z" />
<glyph horiz-adv-x="272" d="M 261 -179 C 200 -177 149 -161 109 -131 C 68 -101 47 -64 47 -21 C 47 3 49 26 54 46 C 59 66 65 84 72 100 C 78 116 85 130 91 144 C 97 158 100 171 100 184 C 99 200 90 216 74 230 C 57 244 35 251 9 251 L 9 320 C 35 320 57 327 75 342 C 93 357 102 374 103 394 C 103 398 99 407 93 423 C 87 438 80 455 72 473 C 64 491 57 508 53 526 C 49 544 47 561 48 578 C 48 599 53 620 64 640 C 74 660 89 678 108 694 C 126 710 149 723 175 733 C 201 743 229 748 261 749 L 261 681 C 227 679 199 668 177 647 C 155 625 143 600 143 572 C 142 563 143 552 145 539 C 147 525 152 512 158 498 C 167 478 175 460 183 444 C 191 427 194 413 194 401 C 194 374 185 350 169 329 C 153 307 128 293 94 285 C 128 277 153 262 169 241 C 185 219 193 197 194 175 C 194 156 190 140 184 126 C 177 112 170 98 163 84 C 156 70 151 56 147 40 C 143 24 141 10 142 -2 C 142 -14 145 -26 151 -39 C 157 -51 165 -63 175 -74 C 185 -84 198 -93 212 -100 C 226 -107 243 -111 261 -112 L 261 -179 Z" unicode="{" />
<glyph horiz-adv-x="249" d="M 168 -179 L 81 -179 L 81 730 L 168 730 L 168 -179 Z" unicode="|" />
<glyph horiz-adv-x="272" d="M 10 -179 L 10 -112 C 28 -111 44 -107 59 -100 C 73 -93 86 -84 96 -74 C 106 -63 114 -51 120 -39 C 126 -26 129 -14 130 -2 C 130 10 128 24 124 40 C 120 55 115 70 108 84 C 101 98 94 112 87 126 C 80 140 77 156 78 175 C 78 197 86 219 102 241 C 117 262 142 277 176 285 C 142 293 118 307 102 329 C 86 350 77 374 77 401 C 77 413 80 427 88 444 C 96 460 104 478 113 498 C 119 512 124 525 126 539 C 128 552 129 563 129 572 C 128 600 116 625 94 647 C 72 668 44 679 10 681 L 10 749 C 41 748 70 743 96 733 C 122 723 145 710 164 694 C 182 678 197 660 208 640 C 218 620 224 599 224 578 C 224 561 222 544 218 526 C 214 508 208 491 200 473 C 192 455 184 438 178 423 C 172 407 169 398 169 394 C 169 374 177 357 195 342 C 213 327 235 320 262 320 L 262 251 C 235 251 213 244 197 230 C 180 216 171 200 171 184 C 171 171 174 158 180 144 C 186 130 193 116 200 100 C 206 84 212 66 217 46 C 222 26 225 3 225 -21 C 224 -64 203 -101 163 -131 C 122 -161 71 -177 10 -179 Z" unicode="}" />
<glyph horiz-adv-x="484" d="M 374 441 L 453 441 C 452 385 443 342 426 314 C 409 285 383 271 347 271 C 323 271 303 275 285 285 C 267 294 251 304 239 315 C 226 326 213 336 201 345 C 188 353 175 358 161 358 C 147 358 135 350 125 336 C 114 321 109 300 109 274 L 31 274 C 31 330 40 372 60 401 C 79 430 104 445 134 445 C 159 445 182 440 202 430 C 222 420 239 409 255 397 C 267 387 279 377 291 369 C 303 360 316 356 332 356 C 349 356 360 363 366 377 C 371 391 374 412 374 441 Z" unicode="~" />
<glyph horiz-adv-x="289" d="M 95 611 L 194 611 L 194 508 L 95 508 L 95 611 Z M 91 182 L 123 407 L 169 407 L 198 182 L 198 -113 L 91 -113 L 91 182 Z" unicode="¡" />
<glyph horiz-adv-x="500" d="M 483 198 C 467 175 445 153 419 132 C 393 110 356 98 308 94 L 308 -14 L 242 -14 L 242 96 C 180 104 131 131 94 177 C 56 223 38 279 38 347 C 38 379 42 410 52 440 C 62 469 75 495 93 518 C 111 540 132 559 158 575 C 183 590 211 600 242 605 L 242 708 L 308 708 L 308 607 C 354 603 391 590 420 568 C 449 546 471 522 485 496 L 423 451 C 411 469 395 485 377 500 C 359 514 336 523 308 527 L 308 173 C 340 175 366 185 384 201 C 402 217 417 233 427 249 L 483 198 Z M 131 352 C 131 307 141 269 161 239 C 181 209 208 189 242 179 L 242 522 C 208 512 181 491 161 460 C 141 429 131 393 131 352 Z" unicode="¢" />
<glyph horiz-adv-x="562" d="M 547 72 L 547 0 L 28 0 L 28 56 C 34 58 42 61 53 64 C 64 66 79 70 98 74 C 111 76 124 80 138 86 C 151 92 163 99 174 109 C 185 119 194 130 201 144 C 207 158 211 173 211 191 C 211 194 210 198 210 202 C 209 206 208 210 208 214 L 42 214 L 42 280 L 177 280 C 169 292 161 305 153 319 C 145 333 137 347 129 362 L 42 362 L 42 428 L 99 428 C 92 445 87 463 83 483 C 79 503 77 523 77 544 C 77 581 83 612 97 638 C 110 663 127 683 149 699 C 171 714 196 725 225 732 C 253 738 283 742 314 742 C 362 742 408 732 450 714 C 492 696 522 678 541 662 L 496 594 C 479 606 455 620 423 635 C 391 650 357 658 319 658 C 301 658 283 655 266 651 C 248 647 233 640 220 630 C 207 620 196 606 188 589 C 180 572 176 551 176 527 C 176 510 178 493 183 477 C 187 460 193 444 200 428 L 475 428 L 475 362 L 234 362 C 242 348 249 334 257 320 C 265 306 272 292 278 280 L 475 280 L 475 214 L 295 214 L 295 211 C 295 188 291 168 284 152 C 276 136 267 122 257 111 C 246 100 235 91 223 85 C 211 79 200 74 191 72 L 547 72 Z" unicode="£" />
<glyph horiz-adv-x="501" d="M 444 189 L 401 146 L 340 208 C 327 200 313 194 297 190 C 281 186 265 184 249 184 C 232 184 216 186 201 190 C 185 194 171 200 159 208 L 98 146 L 53 191 L 110 250 C 98 264 89 280 83 298 C 76 316 73 334 73 354 C 73 374 76 392 83 410 C 89 428 99 444 111 459 L 53 518 L 97 562 L 157 499 C 170 507 184 513 200 517 C 216 521 232 524 249 524 C 266 524 283 521 299 517 C 315 513 329 506 343 498 L 405 563 L 448 518 L 390 457 C 401 442 410 426 416 409 C 422 391 426 373 426 354 C 426 334 422 315 416 297 C 409 279 400 262 388 248 L 444 189 Z M 249 252 C 278 252 303 262 325 282 C 347 302 358 326 358 354 C 358 381 347 405 325 425 C 303 445 278 456 249 456 C 219 456 193 445 173 425 C 152 405 142 381 142 354 C 142 326 152 302 173 282 C 193 262 219 252 249 252 Z" unicode="¤" />
<glyph horiz-adv-x="591" d="M 520 134 L 344 134 L 344 0 L 244 0 L 244 134 L 69 134 L 69 200 L 244 200 L 244 262 L 68 262 L 68 329 L 242 329 L 22 730 L 129 730 L 298 413 L 469 730 L 569 730 L 347 329 L 520 329 L 520 262 L 344 262 L 344 200 L 520 200 L 520 134 Z" unicode="¥" />
<glyph horiz-adv-x="272" d="M 96 351 L 96 730 L 176 730 L 176 351 L 96 351 Z M 176 200 L 176 -179 L 96 -179 L 96 200 L 176 200 Z" unicode="¦" />
<glyph horiz-adv-x="628" d="M 332 -181 C 278 -181 227 -174 179 -160 C 131 -146 90 -128 58 -106 L 96 -29 C 126 -50 163 -68 205 -82 C 247 -96 287 -104 325 -104 C 359 -104 388 -95 411 -79 C 433 -62 445 -38 445 -8 C 445 19 435 40 417 55 C 399 69 374 83 343 96 L 225 148 C 195 160 169 172 147 183 C 125 194 106 206 91 219 C 76 232 65 247 57 264 C 49 280 46 301 46 326 C 46 356 53 382 68 402 C 83 422 101 439 123 453 C 104 464 90 480 82 500 C 73 520 69 544 69 574 C 69 600 75 624 87 645 C 99 666 115 684 136 698 C 157 712 182 722 211 730 C 239 738 270 742 304 742 C 363 742 411 733 449 716 C 487 699 519 681 545 663 L 503 592 C 474 612 444 630 413 646 C 381 661 344 669 302 669 C 264 669 231 660 205 643 C 179 626 166 603 166 574 C 166 553 173 535 187 521 C 201 507 222 494 251 484 L 407 419 C 463 397 505 374 535 350 C 565 326 580 291 580 247 C 580 213 568 185 545 163 C 522 141 497 128 469 122 C 475 118 483 112 492 104 C 501 96 509 87 517 77 C 525 66 531 53 537 39 C 542 25 545 9 545 -8 C 545 -35 539 -59 528 -81 C 517 -102 502 -120 483 -135 C 464 -149 442 -161 416 -169 C 390 -177 362 -181 332 -181 Z M 399 168 C 419 170 438 176 455 187 C 471 198 480 216 480 240 C 480 262 470 282 451 299 C 431 316 398 333 351 350 L 202 413 C 184 404 170 394 158 382 C 146 370 141 354 141 334 C 141 308 151 287 171 271 C 191 255 225 238 273 222 L 399 168 Z" unicode="§" />
<glyph horiz-adv-x="500" d="M 375 595 L 298 595 L 298 752 L 375 752 L 375 595 Z M 202 595 L 125 595 L 125 752 L 202 752 L 202 595 Z" unicode="¨" />
<glyph horiz-adv-x="839" d="M 419 1 C 368 1 320 10 275 30 C 230 50 191 76 158 110 C 124 143 98 182 78 228 C 58 273 49 321 49 372 C 49 422 58 470 78 516 C 98 561 124 600 158 634 C 191 667 230 693 275 713 C 320 732 368 742 419 742 C 469 742 517 732 563 713 C 608 693 647 667 681 634 C 714 600 740 561 760 516 C 780 470 790 422 790 372 C 790 321 780 273 760 228 C 740 182 714 143 681 110 C 647 76 608 50 563 30 C 517 10 469 1 419 1 Z M 420 61 C 462 61 502 69 540 85 C 578 101 610 124 638 152 C 666 180 688 212 704 250 C 720 288 729 328 729 371 C 729 413 720 454 704 492 C 688 530 666 563 638 591 C 610 619 578 641 540 658 C 502 674 462 683 420 683 C 377 683 337 674 299 658 C 261 641 229 619 201 591 C 173 563 150 530 134 492 C 118 454 110 413 110 371 C 110 328 118 288 134 250 C 150 212 173 180 201 152 C 229 124 261 101 299 85 C 337 69 377 61 420 61 Z M 588 240 C 572 215 550 194 522 178 C 494 162 459 154 419 154 C 393 154 369 158 345 168 C 321 177 299 191 281 209 C 263 227 248 250 237 277 C 226 304 221 335 221 370 C 221 404 226 434 236 462 C 246 490 259 513 277 533 C 294 552 314 567 338 578 C 362 588 387 594 415 594 C 458 594 493 586 520 571 C 547 556 568 537 584 514 L 521 467 C 510 481 497 493 481 503 C 465 513 444 518 418 518 C 384 518 356 503 334 475 C 312 446 301 410 301 368 C 301 322 313 286 338 262 C 362 237 390 225 421 225 C 444 225 465 230 483 241 C 501 251 515 265 527 283 L 588 240 Z" unicode="©" />
<glyph horiz-adv-x="481" d="M 426 291 L 350 291 L 350 352 C 334 330 311 314 283 302 C 254 290 223 285 190 285 C 144 285 107 297 80 321 C 53 345 40 379 40 422 C 40 470 58 506 95 531 C 131 556 181 570 244 573 L 349 580 L 349 588 C 349 612 339 631 321 645 C 303 659 277 666 245 666 C 217 666 191 661 166 652 C 141 642 118 631 98 619 L 68 683 C 90 699 117 713 149 725 C 181 736 217 742 258 742 C 309 742 350 729 380 705 C 410 680 426 640 426 586 L 426 291 Z M 348 414 L 348 514 L 237 508 C 203 506 176 500 154 488 C 132 476 122 457 122 429 C 122 406 130 388 148 376 C 166 363 189 357 217 357 C 243 357 268 362 292 372 C 316 382 334 396 348 414 Z M 436 158 L 46 158 L 46 235 L 436 235 L 436 158 Z" unicode="ª" />
<glyph horiz-adv-x="449" d="M 209 103 L 28 279 L 28 335 L 209 509 L 209 414 L 108 307 L 209 202 L 209 103 Z M 418 103 L 236 279 L 236 335 L 418 509 L 418 414 L 317 307 L 418 202 L 418 103 Z" unicode="«" />
<glyph horiz-adv-x="490" d="M 446 387 L 446 138 L 368 138 L 368 308 L 31 308 L 31 387 L 446 387 Z" unicode="¬" />
<glyph horiz-adv-x="838" d="M 419 1 C 368 1 320 10 275 30 C 230 50 191 76 158 110 C 124 143 98 182 78 228 C 58 273 49 321 49 372 C 49 422 58 470 78 516 C 98 561 124 600 158 634 C 191 667 230 693 275 713 C 320 732 368 742 419 742 C 469 742 517 732 563 713 C 608 693 647 667 681 634 C 714 600 740 561 760 516 C 779 470 789 422 789 372 C 789 321 779 273 760 228 C 740 182 714 143 681 110 C 647 76 608 50 563 30 C 517 10 469 1 419 1 Z M 419 61 C 461 61 501 69 539 85 C 577 101 610 123 638 151 C 666 179 688 212 704 250 C 720 288 729 328 729 372 C 729 415 720 455 704 493 C 688 531 666 564 638 592 C 610 620 577 642 539 658 C 501 674 461 683 419 683 C 376 683 336 674 298 658 C 260 642 228 620 200 592 C 172 564 150 531 134 493 C 118 455 110 414 110 372 C 110 328 118 288 134 250 C 150 212 172 180 200 152 C 228 124 260 101 298 85 C 336 69 376 61 419 61 Z M 279 164 L 279 595 L 438 595 C 456 595 473 592 490 588 C 507 583 522 576 535 566 C 548 556 559 544 567 529 C 575 514 579 496 579 476 C 579 438 569 409 550 389 C 530 369 508 357 484 354 L 483 350 L 619 164 L 537 164 L 415 338 L 350 338 L 350 164 L 279 164 Z M 349 399 L 443 399 C 461 399 477 405 491 417 C 504 429 511 446 512 469 C 512 491 504 507 489 517 C 473 527 455 533 433 533 L 349 533 L 349 399 Z" unicode="®" />
<glyph horiz-adv-x="500" d="M 378 608 L 122 608 L 122 687 L 378 687 L 378 608 Z" unicode="¯" />
<glyph horiz-adv-x="426" d="M 213 376 C 187 376 163 380 141 390 C 119 400 99 413 83 429 C 67 445 54 465 44 487 C 34 509 30 533 30 559 C 30 584 34 608 44 630 C 54 652 67 672 83 688 C 99 704 119 717 141 727 C 163 737 187 742 213 742 C 238 742 262 737 284 727 C 306 717 326 704 342 688 C 358 672 371 652 381 630 C 391 608 396 584 396 559 C 396 533 391 509 381 487 C 371 465 358 445 342 429 C 326 413 306 400 284 390 C 262 380 238 376 213 376 Z M 213 450 C 243 450 268 460 290 482 C 312 504 323 529 323 559 C 323 589 312 614 290 636 C 268 658 243 669 213 669 C 183 669 157 658 135 636 C 113 614 103 589 103 559 C 103 529 113 504 135 482 C 157 460 183 450 213 450 Z" unicode="°" />
<glyph horiz-adv-x="490" d="M 465 294 L 284 294 L 284 112 L 207 112 L 207 294 L 25 294 L 25 366 L 207 366 L 207 550 L 284 550 L 284 366 L 465 366 L 465 294 Z M 461 25 L 32 25 L 32 96 L 461 96 L 461 25 Z" unicode="±" />
<glyph horiz-adv-x="329" d="M 303 372 L 22 372 L 22 402 L 181 559 C 187 565 194 573 200 583 C 206 593 210 605 210 619 C 210 633 205 645 195 656 C 185 667 171 673 151 673 C 128 673 112 666 103 652 C 93 638 88 623 88 605 L 17 605 C 17 641 29 673 54 700 C 78 727 114 741 160 741 C 204 741 237 730 259 710 C 281 689 292 664 292 636 C 292 609 287 587 277 569 C 267 551 257 537 247 527 L 154 439 L 303 439 L 303 372 Z" unicode="²" />
<glyph horiz-adv-x="346" d="M 226 569 C 254 564 275 553 291 537 C 307 520 315 500 315 477 C 315 465 312 452 307 439 C 302 425 294 413 282 402 C 270 391 255 382 235 375 C 215 367 190 364 161 364 C 119 364 87 368 64 378 C 40 388 22 398 10 408 L 54 454 C 65 447 79 441 96 435 C 113 429 133 426 157 426 C 188 426 210 432 223 444 C 235 456 242 471 242 489 C 242 507 234 520 218 526 C 202 532 183 535 162 535 L 89 535 L 89 593 L 156 593 C 176 593 193 596 206 603 C 218 610 225 621 225 636 C 225 648 219 658 208 666 C 197 673 180 677 158 677 C 138 677 120 673 103 666 C 86 658 73 650 65 640 L 21 684 C 34 698 52 711 74 723 C 96 735 128 742 169 742 C 209 742 241 733 265 717 C 288 700 300 678 300 652 C 300 630 292 611 278 597 C 263 583 246 573 226 569 Z" unicode="³" />
<glyph horiz-adv-x="500" d="M 153 599 L 252 765 L 360 765 L 245 599 L 153 599 Z" unicode="´" />
<glyph horiz-adv-x="612" d="M 77 -163 L 77 540 L 168 540 L 168 170 C 168 140 180 116 206 96 C 232 76 262 66 297 66 C 313 66 330 69 347 75 C 364 81 379 89 393 101 C 407 113 418 127 427 144 C 435 161 440 181 440 203 L 440 540 L 531 540 L 531 0 L 447 0 L 447 99 C 441 85 433 71 421 59 C 409 47 396 36 381 26 C 365 16 349 9 331 3 C 313 -3 295 -6 277 -7 C 252 -7 229 -2 207 8 C 185 18 169 32 161 51 L 161 -163 L 77 -163 Z" unicode="µ" />
<glyph horiz-adv-x="649" d="M 582 -180 L 516 -179 L 516 657 L 416 657 L 416 -179 L 350 -179 L 350 264 L 258 264 C 228 264 199 270 171 282 C 143 294 119 311 98 332 C 76 353 59 378 47 406 C 34 434 28 463 28 494 C 28 527 34 558 46 587 C 58 616 74 641 96 662 C 118 683 144 700 175 712 C 205 724 239 730 277 730 L 582 730 L 582 -180 Z M 351 341 L 351 653 L 307 653 C 262 653 225 638 197 608 C 168 578 154 541 154 496 C 154 454 168 417 196 387 C 224 356 258 341 297 341 L 351 341 Z" unicode="¶" />
<glyph horiz-adv-x="255" d="M 174 284 L 81 284 L 81 418 L 174 418 L 174 284 Z" unicode="·" />
<glyph horiz-adv-x="500" d="M 254 -186 C 231 -186 208 -183 185 -177 C 162 -171 144 -163 131 -153 L 148 -114 C 156 -119 168 -124 183 -130 C 197 -135 213 -138 231 -138 C 245 -138 257 -134 267 -128 C 277 -122 283 -113 283 -103 C 283 -90 278 -81 268 -76 C 258 -70 248 -68 238 -68 C 230 -68 224 -68 218 -70 C 212 -71 206 -73 200 -75 L 188 -60 L 246 13 L 298 13 L 251 -48 C 283 -42 309 -45 331 -57 C 352 -69 363 -87 363 -111 C 363 -135 352 -154 330 -167 C 308 -179 283 -186 254 -186 Z" unicode="¸" />
<glyph horiz-adv-x="324" d="M 141 372 L 141 643 C 133 631 120 621 100 613 C 80 604 63 598 49 596 L 48 678 C 72 681 94 688 112 698 C 130 708 149 722 168 740 L 225 740 L 225 372 L 141 372 Z" unicode="¹" />
<glyph horiz-adv-x="488" d="M 240 282 C 213 282 187 287 162 297 C 136 307 114 322 95 342 C 76 361 61 385 49 413 C 37 441 32 472 32 508 C 32 539 37 569 49 597 C 60 625 75 649 94 670 C 113 691 135 708 161 720 C 186 732 213 739 242 739 C 272 739 300 733 326 723 C 352 712 374 697 394 678 C 413 659 428 636 439 609 C 450 581 456 551 456 519 C 456 485 450 453 439 424 C 427 395 412 370 392 349 C 372 328 349 312 323 300 C 297 288 269 282 240 282 Z M 241 357 C 281 357 313 372 337 402 C 361 432 373 470 373 516 C 373 559 361 595 339 623 C 316 651 284 666 243 666 C 205 666 174 651 150 621 C 126 591 114 552 114 506 C 114 461 126 425 150 398 C 174 370 204 357 241 357 Z M 50 158 L 50 235 L 436 235 L 436 158 L 50 158 Z" unicode="º" />
<glyph horiz-adv-x="452" d="M 31 510 L 213 333 L 213 277 L 31 103 L 31 198 L 132 306 L 31 410 L 31 510 Z M 243 510 L 425 333 L 425 277 L 243 103 L 243 198 L 344 306 L 243 411 L 243 510 Z" unicode="»" />
<glyph horiz-adv-x="687" d="M 5 0 L 5 0 Z M 98 372 L 98 643 C 90 631 77 621 57 613 C 37 604 20 598 6 596 L 5 678 C 29 681 51 688 69 698 C 87 708 106 722 125 740 L 182 740 L 182 372 L 98 372 Z M 570 730 L 201 0 L 122 0 L 491 730 L 570 730 Z M 382 83 L 382 139 L 568 366 L 621 366 L 621 142 L 682 142 L 682 83 L 621 83 L 621 1 L 545 1 L 545 83 L 382 83 Z M 449 134 L 547 134 L 547 256 L 449 134 Z" unicode="¼" />
<glyph horiz-adv-x="745" d="M 5 0 L 5 0 Z M 98 372 L 98 643 C 90 631 77 621 57 613 C 37 604 20 598 6 596 L 5 678 C 29 681 51 688 69 698 C 87 708 106 722 125 740 L 182 740 L 182 372 L 98 372 Z M 570 730 L 201 0 L 122 0 L 491 730 L 570 730 Z M 730 0 L 449 0 L 449 30 L 608 187 C 614 193 621 201 627 211 C 633 221 637 233 637 247 C 637 261 632 273 622 284 C 612 295 598 301 578 301 C 555 301 539 294 530 280 C 520 266 515 251 515 233 L 444 233 C 444 269 456 301 481 328 C 505 355 541 369 587 369 C 631 369 664 358 686 338 C 708 317 719 292 719 264 C 719 237 714 215 704 197 C 694 179 684 165 674 155 L 581 67 L 730 67 L 730 0 Z" unicode="½" />
<glyph horiz-adv-x="747" d="M 5 0 L 5 0 Z M 630 730 L 261 0 L 182 0 L 551 730 L 630 730 Z M 442 83 L 442 139 L 628 366 L 681 366 L 681 142 L 742 142 L 742 83 L 681 83 L 681 1 L 605 1 L 605 83 L 442 83 Z M 509 134 L 607 134 L 607 256 L 509 134 Z M 221 569 C 249 564 270 553 286 537 C 302 520 310 500 310 477 C 310 465 307 452 302 439 C 297 425 289 413 277 402 C 265 391 250 382 230 375 C 210 367 185 364 156 364 C 114 364 82 368 59 378 C 35 388 17 398 5 408 L 49 454 C 60 447 74 441 91 435 C 108 429 128 426 152 426 C 183 426 205 432 218 444 C 230 456 237 471 237 489 C 237 507 229 520 213 526 C 197 532 178 535 157 535 L 84 535 L 84 593 L 151 593 C 171 593 188 596 201 603 C 213 610 220 621 220 636 C 220 648 214 658 203 666 C 192 673 175 677 153 677 C 133 677 115 673 98 666 C 81 658 68 650 60 640 L 16 684 C 29 698 47 711 69 723 C 91 735 123 742 164 742 C 204 742 236 733 260 717 C 283 700 295 678 295 652 C 295 630 287 611 273 597 C 258 583 241 573 221 569 Z" unicode="¾" />
<glyph horiz-adv-x="462" d="M 199 491 L 199 611 L 302 611 L 302 491 L 199 491 Z M 233 -131 C 173 -131 123 -115 84 -84 C 44 -52 25 -9 25 46 C 25 72 28 95 36 115 C 44 135 54 154 66 170 C 78 186 91 201 105 214 C 119 227 132 239 145 250 C 171 270 187 295 195 324 C 202 353 206 382 207 410 L 299 410 C 299 362 293 324 283 295 C 272 266 252 239 223 213 C 199 193 177 171 155 148 C 133 125 123 96 123 60 C 123 27 134 1 158 -17 C 182 -36 211 -46 245 -46 C 275 -46 303 -38 327 -24 C 351 -10 371 7 387 28 L 448 -31 C 425 -59 395 -83 359 -102 C 322 -121 280 -131 233 -131 Z" unicode="¿" />
<glyph horiz-adv-x="597" d="M 1 0 L 1 0 Z M 596 0 L 493 0 L 425 188 L 163 188 L 98 0 L 1 0 L 266 734 L 334 734 L 596 0 Z M 406 263 L 294 581 L 183 263 L 406 263 Z M 295 783 L 295 783 Z M 399 783 L 307 783 L 191 950 L 299 950 L 399 783 Z" unicode="À" />
<glyph horiz-adv-x="597" d="M 1 0 L 1 0 Z M 596 0 L 493 0 L 425 188 L 163 188 L 98 0 L 1 0 L 266 734 L 334 734 L 596 0 Z M 406 263 L 294 581 L 183 263 L 406 263 Z M 295 789 L 295 789 Z M 192 789 L 291 955 L 399 955 L 284 789 L 192 789 Z" unicode="Á" />
<glyph horiz-adv-x="597" d="M 1 0 L 1 0 Z M 596 0 L 493 0 L 425 188 L 163 188 L 98 0 L 1 0 L 266 734 L 334 734 L 596 0 Z M 406 263 L 294 581 L 183 263 L 406 263 Z M 295 784 L 295 784 Z M 454 784 L 370 784 L 295 895 L 218 784 L 136 784 L 251 956 L 340 956 L 454 784 Z" unicode="Â" />
<glyph horiz-adv-x="597" d="M 1 0 L 1 0 Z M 596 0 L 493 0 L 425 188 L 163 188 L 98 0 L 1 0 L 266 734 L 334 734 L 596 0 Z M 406 263 L 294 581 L 183 263 L 406 263 Z M 295 790 L 295 790 Z M 391 928 L 464 928 C 464 881 457 846 443 824 C 429 801 409 790 385 790 C 367 790 350 793 336 801 C 322 809 309 817 298 826 C 287 834 277 841 267 849 C 257 856 246 860 236 860 C 226 860 217 854 210 843 C 203 832 199 816 199 795 L 127 795 C 127 841 136 875 155 898 C 174 920 194 932 216 932 C 232 932 247 928 260 920 C 273 912 286 903 298 895 C 308 886 317 879 327 873 C 336 867 345 864 355 864 C 364 864 372 869 379 880 C 386 891 390 907 391 928 Z" unicode="Ã" />
<glyph horiz-adv-x="597" d="M 1 0 L 1 0 Z M 596 0 L 493 0 L 425 188 L 163 188 L 98 0 L 1 0 L 266 734 L 334 734 L 596 0 Z M 406 263 L 294 581 L 183 263 L 406 263 Z M 295 785 L 295 785 Z M 420 785 L 343 785 L 343 942 L 420 942 L 420 785 Z M 247 785 L 170 785 L 170 942 L 247 942 L 247 785 Z" unicode="Ä" />
<glyph horiz-adv-x="597" d="M 1 0 L 1 0 Z M 596 0 L 493 0 L 425 188 L 163 188 L 98 0 L 1 0 L 266 734 L 334 734 L 596 0 Z M 406 263 L 294 581 L 183 263 L 406 263 Z M 295 777 L 295 777 Z M 295 777 C 261 777 232 789 208 813 C 184 837 172 866 172 900 C 172 934 184 963 208 987 C 232 1011 261 1023 295 1023 C 329 1023 358 1011 382 987 C 406 963 418 934 418 900 C 418 866 406 837 382 813 C 358 789 329 777 295 777 Z M 296 835 C 313 835 328 841 340 854 C 352 866 359 882 359 900 C 359 918 352 933 340 946 C 328 958 313 965 296 965 C 278 965 263 958 251 946 C 238 933 232 918 232 900 C 232 882 238 866 251 854 C 263 841 278 835 296 835 Z" unicode="Å" />
<glyph horiz-adv-x="892" d="M 852 0 L 458 0 L 458 231 L 224 231 L 89 0 L -13 0 L 407 730 L 834 730 L 834 643 L 552 643 L 552 407 L 821 407 L 821 323 L 552 323 L 552 87 L 852 87 L 852 0 Z M 458 313 L 458 662 L 266 313 L 458 313 Z" unicode="Æ" />
<glyph horiz-adv-x="675" d="M 43 0 L 43 0 Z M 366 -10 C 322 -10 280 -1 240 15 C 200 31 166 56 137 88 C 108 120 85 159 68 206 C 51 252 43 305 43 365 C 43 421 50 473 66 519 C 82 565 104 605 132 637 C 160 669 195 695 235 713 C 275 731 319 740 367 740 C 431 740 484 728 526 704 C 568 680 603 647 629 604 L 548 553 C 529 581 506 604 478 622 C 450 640 413 650 368 650 C 298 650 243 625 203 577 C 163 528 143 458 143 367 C 143 317 149 274 163 238 C 176 201 193 171 215 148 C 236 124 261 107 289 95 C 317 83 345 78 375 78 C 421 78 460 88 491 109 C 522 130 547 158 567 192 L 643 144 C 619 99 583 62 536 33 C 489 4 432 -10 366 -10 Z M 363 -7 L 363 -7 Z M 370 -193 C 347 -193 324 -190 301 -184 C 278 -178 260 -170 247 -160 L 264 -121 C 272 -126 284 -131 299 -137 C 313 -142 329 -145 347 -145 C 361 -145 373 -141 383 -135 C 393 -129 399 -120 399 -110 C 399 -97 394 -88 384 -83 C 374 -77 364 -75 354 -75 C 346 -75 340 -75 334 -77 C 328 -78 322 -80 316 -82 L 304 -67 L 362 6 L 414 6 L 367 -55 C 399 -49 425 -52 447 -64 C 468 -76 479 -94 479 -118 C 479 -142 468 -161 446 -174 C 424 -186 399 -193 370 -193 Z" unicode="Ç" />
<glyph horiz-adv-x="524" d="M 83 0 L 83 0 Z M 482 0 L 83 0 L 83 730 L 463 730 L 463 643 L 181 643 L 181 407 L 450 407 L 450 322 L 181 322 L 181 87 L 482 87 L 482 0 Z M 279 783 L 279 783 Z M 383 783 L 291 783 L 175 950 L 283 950 L 383 783 Z" unicode="È" />
<glyph horiz-adv-x="524" d="M 83 0 L 83 0 Z M 482 0 L 83 0 L 83 730 L 463 730 L 463 643 L 181 643 L 181 407 L 450 407 L 450 322 L 181 322 L 181 87 L 482 87 L 482 0 Z M 279 789 L 279 789 Z M 176 789 L 275 955 L 383 955 L 268 789 L 176 789 Z" unicode="É" />
<glyph horiz-adv-x="524" d="M 83 0 L 83 0 Z M 482 0 L 83 0 L 83 730 L 463 730 L 463 643 L 181 643 L 181 407 L 450 407 L 450 322 L 181 322 L 181 87 L 482 87 L 482 0 Z M 279 784 L 279 784 Z M 438 784 L 354 784 L 279 895 L 202 784 L 120 784 L 235 956 L 324 956 L 438 784 Z" unicode="Ê" />
<glyph horiz-adv-x="524" d="M 83 0 L 83 0 Z M 482 0 L 83 0 L 83 730 L 463 730 L 463 643 L 181 643 L 181 407 L 450 407 L 450 322 L 181 322 L 181 87 L 482 87 L 482 0 Z M 279 785 L 279 785 Z M 404 785 L 327 785 L 327 942 L 404 942 L 404 785 Z M 231 785 L 154 785 L 154 942 L 231 942 L 231 785 Z" unicode="Ë" />
<glyph horiz-adv-x="275" d="M 33 0 L 33 0 Z M 188 0 L 87 0 L 87 730 L 188 730 L 188 0 Z M 137 783 L 137 783 Z M 241 783 L 149 783 L 33 950 L 141 950 L 241 783 Z" unicode="Ì" />
<glyph horiz-adv-x="275" d="M 34 0 L 34 0 Z M 188 0 L 87 0 L 87 730 L 188 730 L 188 0 Z M 137 789 L 137 789 Z M 34 789 L 133 955 L 241 955 L 126 789 L 34 789 Z" unicode="Í" />
<glyph horiz-adv-x="275" d="M 0 0 L 0 0 Z M 188 0 L 87 0 L 87 730 L 188 730 L 188 0 Z M 137 784 L 137 784 Z M 296 784 L 212 784 L 137 895 L 60 784 L -22 784 L 93 956 L 182 956 L 296 784 Z" unicode="Î" />
<glyph horiz-adv-x="275" d="M 12 0 L 12 0 Z M 188 0 L 87 0 L 87 730 L 188 730 L 188 0 Z M 137 785 L 137 785 Z M 262 785 L 185 785 L 185 942 L 262 942 L 262 785 Z M 89 785 L 12 785 L 12 942 L 89 942 L 89 785 Z" unicode="Ï" />
<glyph horiz-adv-x="679" d="M 637 366 C 637 315 629 267 613 223 C 597 178 574 139 544 107 C 514 74 476 48 430 29 C 384 9 332 0 272 0 L 83 0 L 83 321 L 29 321 L 29 395 L 83 395 L 83 730 L 285 730 C 340 730 390 721 434 704 C 478 686 514 662 544 631 C 574 599 597 561 613 516 C 629 471 637 421 637 366 Z M 180 76 L 267 76 C 315 76 356 83 390 99 C 424 114 452 135 473 161 C 494 187 509 217 519 252 C 529 287 534 324 534 364 C 534 456 511 528 467 578 C 423 628 362 654 284 654 L 180 654 L 180 395 L 343 395 L 343 321 L 180 321 L 180 76 Z" unicode="Ð" />
<glyph horiz-adv-x="705" d="M 83 0 L 83 0 Z M 622 0 L 550 0 L 177 536 L 177 0 L 83 0 L 83 730 L 158 730 L 531 195 L 531 730 L 622 730 L 622 0 Z M 353 790 L 353 790 Z M 449 928 L 522 928 C 522 881 515 846 501 824 C 487 801 467 790 443 790 C 425 790 408 793 394 801 C 380 809 367 817 356 826 C 345 834 335 841 325 849 C 315 856 304 860 294 860 C 284 860 275 854 268 843 C 261 832 257 816 257 795 L 185 795 C 185 841 194 875 213 898 C 232 920 252 932 274 932 C 290 932 305 928 318 920 C 331 912 344 903 356 895 C 366 886 375 879 385 873 C 394 867 403 864 413 864 C 422 864 430 869 437 880 C 444 891 448 907 449 928 Z" unicode="Ñ" />
<glyph horiz-adv-x="752" d="M 43 0 L 43 0 Z M 379 -10 C 329 -10 283 0 242 17 C 200 35 165 61 136 95 C 106 128 83 168 67 215 C 51 261 43 313 43 370 C 43 424 51 474 68 520 C 84 566 107 605 136 637 C 165 669 200 695 240 713 C 280 731 324 740 372 740 C 422 740 468 731 510 713 C 552 695 587 669 617 637 C 646 605 669 566 685 520 C 701 474 709 423 709 367 C 709 310 700 258 683 212 C 665 166 642 126 613 93 C 583 60 548 35 508 17 C 468 -1 425 -10 379 -10 Z M 383 73 C 415 73 445 79 473 92 C 501 105 525 124 545 149 C 565 173 580 204 592 241 C 603 277 609 319 609 367 C 609 411 603 450 591 486 C 579 521 562 551 541 576 C 519 601 494 620 464 634 C 434 647 402 654 368 654 C 302 654 248 629 206 580 C 164 530 143 460 143 369 C 143 321 149 279 162 243 C 174 206 191 175 213 150 C 234 125 259 106 289 93 C 318 79 349 73 383 73 Z M 372 783 L 372 783 Z M 476 783 L 384 783 L 268 950 L 376 950 L 476 783 Z" unicode="Ò" />
<glyph horiz-adv-x="752" d="M 43 0 L 43 0 Z M 379 -10 C 329 -10 283 0 242 17 C 200 35 165 61 136 95 C 106 128 83 168 67 215 C 51 261 43 313 43 370 C 43 424 51 474 68 520 C 84 566 107 605 136 637 C 165 669 200 695 240 713 C 280 731 324 740 372 740 C 422 740 468 731 510 713 C 552 695 587 669 617 637 C 646 605 669 566 685 520 C 701 474 709 423 709 367 C 709 310 700 258 683 212 C 665 166 642 126 613 93 C 583 60 548 35 508 17 C 468 -1 425 -10 379 -10 Z M 383 73 C 415 73 445 79 473 92 C 501 105 525 124 545 149 C 565 173 580 204 592 241 C 603 277 609 319 609 367 C 609 411 603 450 591 486 C 579 521 562 551 541 576 C 519 601 494 620 464 634 C 434 647 402 654 368 654 C 302 654 248 629 206 580 C 164 530 143 460 143 369 C 143 321 149 279 162 243 C 174 206 191 175 213 150 C 234 125 259 106 289 93 C 318 79 349 73 383 73 Z M 372 789 L 372 789 Z M 269 789 L 368 955 L 476 955 L 361 789 L 269 789 Z" unicode="Ó" />
<glyph horiz-adv-x="752" d="M 43 0 L 43 0 Z M 379 -10 C 329 -10 283 0 242 17 C 200 35 165 61 136 95 C 106 128 83 168 67 215 C 51 261 43 313 43 370 C 43 424 51 474 68 520 C 84 566 107 605 136 637 C 165 669 200 695 240 713 C 280 731 324 740 372 740 C 422 740 468 731 510 713 C 552 695 587 669 617 637 C 646 605 669 566 685 520 C 701 474 709 423 709 367 C 709 310 700 258 683 212 C 665 166 642 126 613 93 C 583 60 548 35 508 17 C 468 -1 425 -10 379 -10 Z M 383 73 C 415 73 445 79 473 92 C 501 105 525 124 545 149 C 565 173 580 204 592 241 C 603 277 609 319 609 367 C 609 411 603 450 591 486 C 579 521 562 551 541 576 C 519 601 494 620 464 634 C 434 647 402 654 368 654 C 302 654 248 629 206 580 C 164 530 143 460 143 369 C 143 321 149 279 162 243 C 174 206 191 175 213 150 C 234 125 259 106 289 93 C 318 79 349 73 383 73 Z M 372 784 L 372 784 Z M 531 784 L 447 784 L 372 895 L 295 784 L 213 784 L 328 956 L 417 956 L 531 784 Z" unicode="Ô" />
<glyph horiz-adv-x="752" d="M 43 0 L 43 0 Z M 379 -10 C 329 -10 283 0 242 17 C 200 35 165 61 136 95 C 106 128 83 168 67 215 C 51 261 43 313 43 370 C 43 424 51 474 68 520 C 84 566 107 605 136 637 C 165 669 200 695 240 713 C 280 731 324 740 372 740 C 422 740 468 731 510 713 C 552 695 587 669 617 637 C 646 605 669 566 685 520 C 701 474 709 423 709 367 C 709 310 700 258 683 212 C 665 166 642 126 613 93 C 583 60 548 35 508 17 C 468 -1 425 -10 379 -10 Z M 383 73 C 415 73 445 79 473 92 C 501 105 525 124 545 149 C 565 173 580 204 592 241 C 603 277 609 319 609 367 C 609 411 603 450 591 486 C 579 521 562 551 541 576 C 519 601 494 620 464 634 C 434 647 402 654 368 654 C 302 654 248 629 206 580 C 164 530 143 460 143 369 C 143 321 149 279 162 243 C 174 206 191 175 213 150 C 234 125 259 106 289 93 C 318 79 349 73 383 73 Z M 372 790 L 372 790 Z M 468 928 L 541 928 C 541 881 534 846 520 824 C 506 801 486 790 462 790 C 444 790 427 793 413 801 C 399 809 386 817 375 826 C 364 834 354 841 344 849 C 334 856 323 860 313 860 C 303 860 294 854 287 843 C 280 832 276 816 276 795 L 204 795 C 204 841 213 875 232 898 C 251 920 271 932 293 932 C 309 932 324 928 337 920 C 350 912 363 903 375 895 C 385 886 394 879 404 873 C 413 867 422 864 432 864 C 441 864 449 869 456 880 C 463 891 467 907 468 928 Z" unicode="Õ" />
<glyph horiz-adv-x="752" d="M 43 0 L 43 0 Z M 379 -10 C 329 -10 283 0 242 17 C 200 35 165 61 136 95 C 106 128 83 168 67 215 C 51 261 43 313 43 370 C 43 424 51 474 68 520 C 84 566 107 605 136 637 C 165 669 200 695 240 713 C 280 731 324 740 372 740 C 422 740 468 731 510 713 C 552 695 587 669 617 637 C 646 605 669 566 685 520 C 701 474 709 423 709 367 C 709 310 700 258 683 212 C 665 166 642 126 613 93 C 583 60 548 35 508 17 C 468 -1 425 -10 379 -10 Z M 383 73 C 415 73 445 79 473 92 C 501 105 525 124 545 149 C 565 173 580 204 592 241 C 603 277 609 319 609 367 C 609 411 603 450 591 486 C 579 521 562 551 541 576 C 519 601 494 620 464 634 C 434 647 402 654 368 654 C 302 654 248 629 206 580 C 164 530 143 460 143 369 C 143 321 149 279 162 243 C 174 206 191 175 213 150 C 234 125 259 106 289 93 C 318 79 349 73 383 73 Z M 372 785 L 372 785 Z M 497 785 L 420 785 L 420 942 L 497 942 L 497 785 Z M 324 785 L 247 785 L 247 942 L 324 942 L 324 785 Z" unicode="Ö" />
<glyph horiz-adv-x="490" d="M 110 144 L 60 195 L 194 330 L 61 464 L 111 515 L 245 381 L 380 515 L 430 464 L 296 330 L 431 195 L 380 143 L 245 280 L 110 144 Z" unicode="×" />
<glyph horiz-adv-x="752" d="M 709 367 C 709 310 700 258 683 212 C 665 166 642 126 613 93 C 583 60 548 35 508 17 C 468 -1 425 -10 379 -10 C 335 -10 295 -3 258 11 C 221 25 188 44 160 70 L 95 -4 L 42 42 L 114 123 C 91 155 73 192 61 234 C 49 276 43 321 43 370 C 43 424 51 474 68 520 C 84 566 107 605 136 637 C 165 669 200 695 240 713 C 280 731 324 740 372 740 C 416 740 456 733 493 719 C 530 705 563 686 592 662 L 667 747 L 720 702 L 639 610 C 661 579 679 543 691 501 C 703 459 709 415 709 367 Z M 143 369 C 143 335 146 303 153 275 C 159 246 169 220 181 198 L 528 590 C 507 610 483 626 456 637 C 428 648 399 654 368 654 C 302 654 248 629 206 580 C 164 530 143 460 143 369 Z M 609 367 C 609 399 605 429 599 457 C 592 485 583 510 571 533 L 222 140 C 243 118 267 101 295 90 C 323 78 352 73 383 73 C 415 73 445 79 473 92 C 501 105 525 124 545 149 C 565 173 580 204 592 241 C 603 277 609 319 609 367 Z" unicode="Ø" />
<glyph horiz-adv-x="686" d="M 79 0 L 79 0 Z M 607 730 L 607 250 C 607 207 599 169 585 137 C 571 104 552 77 528 55 C 504 33 475 17 443 6 C 411 -4 377 -10 341 -10 C 305 -10 272 -4 240 6 C 208 16 180 32 156 54 C 132 75 114 102 100 135 C 86 167 79 206 79 250 L 79 730 L 177 730 L 177 250 C 177 194 193 152 225 123 C 257 93 296 79 341 79 C 363 79 385 82 405 89 C 425 96 442 107 457 121 C 472 135 484 152 493 174 C 502 196 507 221 507 250 L 507 730 L 607 730 Z M 342 783 L 342 783 Z M 446 783 L 354 783 L 238 950 L 346 950 L 446 783 Z" unicode="Ù" />
<glyph horiz-adv-x="686" d="M 79 0 L 79 0 Z M 607 730 L 607 250 C 607 207 599 169 585 137 C 571 104 552 77 528 55 C 504 33 475 17 443 6 C 411 -4 377 -10 341 -10 C 305 -10 272 -4 240 6 C 208 16 180 32 156 54 C 132 75 114 102 100 135 C 86 167 79 206 79 250 L 79 730 L 177 730 L 177 250 C 177 194 193 152 225 123 C 257 93 296 79 341 79 C 363 79 385 82 405 89 C 425 96 442 107 457 121 C 472 135 484 152 493 174 C 502 196 507 221 507 250 L 507 730 L 607 730 Z M 342 789 L 342 789 Z M 239 789 L 338 955 L 446 955 L 331 789 L 239 789 Z" unicode="Ú" />
<glyph horiz-adv-x="686" d="M 79 0 L 79 0 Z M 607 730 L 607 250 C 607 207 599 169 585 137 C 571 104 552 77 528 55 C 504 33 475 17 443 6 C 411 -4 377 -10 341 -10 C 305 -10 272 -4 240 6 C 208 16 180 32 156 54 C 132 75 114 102 100 135 C 86 167 79 206 79 250 L 79 730 L 177 730 L 177 250 C 177 194 193 152 225 123 C 257 93 296 79 341 79 C 363 79 385 82 405 89 C 425 96 442 107 457 121 C 472 135 484 152 493 174 C 502 196 507 221 507 250 L 507 730 L 607 730 Z M 342 784 L 342 784 Z M 501 784 L 417 784 L 342 895 L 265 784 L 183 784 L 298 956 L 387 956 L 501 784 Z" unicode="Û" />
<glyph horiz-adv-x="686" d="M 79 0 L 79 0 Z M 607 730 L 607 250 C 607 207 599 169 585 137 C 571 104 552 77 528 55 C 504 33 475 17 443 6 C 411 -4 377 -10 341 -10 C 305 -10 272 -4 240 6 C 208 16 180 32 156 54 C 132 75 114 102 100 135 C 86 167 79 206 79 250 L 79 730 L 177 730 L 177 250 C 177 194 193 152 225 123 C 257 93 296 79 341 79 C 363 79 385 82 405 89 C 425 96 442 107 457 121 C 472 135 484 152 493 174 C 502 196 507 221 507 250 L 507 730 L 607 730 Z M 342 785 L 342 785 Z M 467 785 L 390 785 L 390 942 L 467 942 L 467 785 Z M 294 785 L 217 785 L 217 942 L 294 942 L 294 785 Z" unicode="Ü" />
<glyph horiz-adv-x="596" d="M 0 0 L 0 0 Z M 597 730 L 346 311 L 346 0 L 246 0 L 246 315 L -1 730 L 113 730 L 301 407 L 495 730 L 597 730 Z M 301 789 L 301 789 Z M 198 789 L 297 955 L 405 955 L 290 789 L 198 789 Z" unicode="Ý" />
<glyph horiz-adv-x="553" d="M 83 0 L 83 730 L 183 730 L 183 601 L 311 601 C 377 601 430 581 470 542 C 510 503 530 451 530 385 C 530 318 509 264 468 223 C 427 182 375 162 311 162 L 183 162 L 183 0 L 83 0 Z M 181 239 L 300 239 C 340 239 372 252 396 278 C 420 304 432 340 432 387 C 432 431 418 465 391 488 C 364 510 332 522 295 522 L 181 522 L 181 239 Z" unicode="Þ" />
<glyph horiz-adv-x="625" d="M 426 -9 C 382 -9 344 -2 310 10 C 276 23 249 40 227 62 L 271 125 C 291 107 315 93 341 83 C 367 73 393 68 420 68 C 444 68 465 75 483 89 C 500 103 509 121 509 145 C 509 165 500 183 482 199 C 464 214 434 230 391 247 C 337 265 298 285 275 307 C 252 328 241 360 241 402 C 241 438 252 467 275 489 C 298 511 324 524 352 530 C 357 533 363 541 370 553 C 377 565 381 583 382 609 C 382 649 371 679 349 699 C 327 719 301 729 273 729 C 244 729 220 720 200 702 C 180 684 171 656 171 619 L 171 0 L 78 0 L 78 630 C 78 687 96 730 132 760 C 168 790 213 805 267 805 C 294 805 320 800 344 792 C 368 784 390 772 408 757 C 426 741 441 722 452 700 C 462 678 468 653 468 625 C 468 585 462 553 450 529 C 438 505 427 489 416 483 C 393 480 372 472 352 460 C 332 447 321 431 319 412 C 319 390 329 373 349 360 C 369 347 402 331 448 313 C 500 293 539 270 563 245 C 587 219 600 186 600 146 C 600 121 595 99 585 80 C 575 60 563 44 547 31 C 531 17 513 7 492 1 C 470 -5 448 -9 426 -9 Z" unicode="ß" />
<glyph horiz-adv-x="521" d="M 34 0 L 34 0 Z M 459 0 L 373 0 L 373 67 C 354 43 331 25 303 12 C 275 0 240 -7 200 -7 C 150 -7 109 7 79 35 C 49 63 34 103 34 153 C 34 213 54 258 96 288 C 137 318 191 336 259 341 L 369 348 L 369 368 C 369 403 359 429 339 446 C 319 462 292 471 258 471 C 228 471 199 465 173 454 C 146 443 122 431 102 417 L 67 488 C 89 505 118 520 153 533 C 187 545 227 552 272 552 C 330 552 375 537 409 509 C 442 480 459 436 459 376 L 459 0 Z M 371 132 L 371 279 L 259 273 C 221 270 190 260 166 242 C 142 224 130 196 130 160 C 130 129 139 105 159 89 C 179 73 204 65 234 65 C 262 65 288 71 312 84 C 336 96 356 112 371 132 Z M 257 593 L 257 593 Z M 361 593 L 269 593 L 153 760 L 261 760 L 361 593 Z" unicode="à" />
<glyph horiz-adv-x="521" d="M 34 0 L 34 0 Z M 459 0 L 373 0 L 373 67 C 354 43 331 25 303 12 C 275 0 240 -7 200 -7 C 150 -7 109 7 79 35 C 49 63 34 103 34 153 C 34 213 54 258 96 288 C 137 318 191 336 259 341 L 369 348 L 369 368 C 369 403 359 429 339 446 C 319 462 292 471 258 471 C 228 471 199 465 173 454 C 146 443 122 431 102 417 L 67 488 C 89 505 118 520 153 533 C 187 545 227 552 272 552 C 330 552 375 537 409 509 C 442 480 459 436 459 376 L 459 0 Z M 371 132 L 371 279 L 259 273 C 221 270 190 260 166 242 C 142 224 130 196 130 160 C 130 129 139 105 159 89 C 179 73 204 65 234 65 C 262 65 288 71 312 84 C 336 96 356 112 371 132 Z M 257 599 L 257 599 Z M 154 599 L 253 765 L 361 765 L 246 599 L 154 599 Z" unicode="á" />
<glyph horiz-adv-x="521" d="M 34 0 L 34 0 Z M 459 0 L 373 0 L 373 67 C 354 43 331 25 303 12 C 275 0 240 -7 200 -7 C 150 -7 109 7 79 35 C 49 63 34 103 34 153 C 34 213 54 258 96 288 C 137 318 191 336 259 341 L 369 348 L 369 368 C 369 403 359 429 339 446 C 319 462 292 471 258 471 C 228 471 199 465 173 454 C 146 443 122 431 102 417 L 67 488 C 89 505 118 520 153 533 C 187 545 227 552 272 552 C 330 552 375 537 409 509 C 442 480 459 436 459 376 L 459 0 Z M 371 132 L 371 279 L 259 273 C 221 270 190 260 166 242 C 142 224 130 196 130 160 C 130 129 139 105 159 89 C 179 73 204 65 234 65 C 262 65 288 71 312 84 C 336 96 356 112 371 132 Z M 257 594 L 257 594 Z M 416 594 L 332 594 L 257 705 L 180 594 L 98 594 L 213 766 L 302 766 L 416 594 Z" unicode="â" />
<glyph horiz-adv-x="521" d="M 34 0 L 34 0 Z M 459 0 L 373 0 L 373 67 C 354 43 331 25 303 12 C 275 0 240 -7 200 -7 C 150 -7 109 7 79 35 C 49 63 34 103 34 153 C 34 213 54 258 96 288 C 137 318 191 336 259 341 L 369 348 L 369 368 C 369 403 359 429 339 446 C 319 462 292 471 258 471 C 228 471 199 465 173 454 C 146 443 122 431 102 417 L 67 488 C 89 505 118 520 153 533 C 187 545 227 552 272 552 C 330 552 375 537 409 509 C 442 480 459 436 459 376 L 459 0 Z M 371 132 L 371 279 L 259 273 C 221 270 190 260 166 242 C 142 224 130 196 130 160 C 130 129 139 105 159 89 C 179 73 204 65 234 65 C 262 65 288 71 312 84 C 336 96 356 112 371 132 Z M 257 600 L 257 600 Z M 353 738 L 426 738 C 426 691 419 656 405 634 C 391 611 371 600 347 600 C 329 600 312 603 298 611 C 284 619 271 627 260 636 C 249 644 239 651 229 659 C 219 666 208 670 198 670 C 188 670 179 664 172 653 C 165 642 161 626 161 605 L 89 605 C 89 651 98 685 117 708 C 136 730 156 742 178 742 C 194 742 209 738 222 730 C 235 722 248 713 260 705 C 270 696 279 689 289 683 C 298 677 307 674 317 674 C 326 674 334 679 341 690 C 348 701 352 717 353 738 Z" unicode="ã" />
<glyph horiz-adv-x="521" d="M 34 0 L 34 0 Z M 459 0 L 373 0 L 373 67 C 354 43 331 25 303 12 C 275 0 240 -7 200 -7 C 150 -7 109 7 79 35 C 49 63 34 103 34 153 C 34 213 54 258 96 288 C 137 318 191 336 259 341 L 369 348 L 369 368 C 369 403 359 429 339 446 C 319 462 292 471 258 471 C 228 471 199 465 173 454 C 146 443 122 431 102 417 L 67 488 C 89 505 118 520 153 533 C 187 545 227 552 272 552 C 330 552 375 537 409 509 C 442 480 459 436 459 376 L 459 0 Z M 371 132 L 371 279 L 259 273 C 221 270 190 260 166 242 C 142 224 130 196 130 160 C 130 129 139 105 159 89 C 179 73 204 65 234 65 C 262 65 288 71 312 84 C 336 96 356 112 371 132 Z M 257 595 L 257 595 Z M 382 595 L 305 595 L 305 752 L 382 752 L 382 595 Z M 209 595 L 132 595 L 132 752 L 209 752 L 209 595 Z" unicode="ä" />
<glyph horiz-adv-x="521" d="M 34 0 L 34 0 Z M 459 0 L 373 0 L 373 67 C 354 43 331 25 303 12 C 275 0 240 -7 200 -7 C 150 -7 109 7 79 35 C 49 63 34 103 34 153 C 34 213 54 258 96 288 C 137 318 191 336 259 341 L 369 348 L 369 368 C 369 403 359 429 339 446 C 319 462 292 471 258 471 C 228 471 199 465 173 454 C 146 443 122 431 102 417 L 67 488 C 89 505 118 520 153 533 C 187 545 227 552 272 552 C 330 552 375 537 409 509 C 442 480 459 436 459 376 L 459 0 Z M 371 132 L 371 279 L 259 273 C 221 270 190 260 166 242 C 142 224 130 196 130 160 C 130 129 139 105 159 89 C 179 73 204 65 234 65 C 262 65 288 71 312 84 C 336 96 356 112 371 132 Z M 257 587 L 257 587 Z M 257 587 C 223 587 194 599 170 623 C 146 647 134 676 134 710 C 134 744 146 773 170 797 C 194 821 223 833 257 833 C 291 833 320 821 344 797 C 368 773 380 744 380 710 C 380 676 368 647 344 623 C 320 599 291 587 257 587 Z M 258 645 C 275 645 290 651 302 664 C 314 676 321 692 321 710 C 321 728 314 743 302 756 C 290 768 275 775 258 775 C 240 775 225 768 213 756 C 200 743 194 728 194 710 C 194 692 200 676 213 664 C 225 651 240 645 258 645 Z" unicode="å" />
<glyph horiz-adv-x="882" d="M 616 -9 C 588 -9 563 -5 541 2 C 518 9 498 18 481 30 C 463 42 449 55 437 69 C 425 83 416 97 412 111 C 397 78 372 50 337 27 C 302 4 259 -7 207 -7 C 159 -7 119 7 89 36 C 58 64 43 103 43 153 C 43 213 63 258 104 288 C 145 318 199 335 267 340 L 378 347 L 378 361 C 378 397 368 425 348 443 C 328 461 300 471 265 471 C 234 471 205 465 179 454 C 153 442 129 430 109 418 L 75 488 C 99 505 126 520 158 533 C 190 545 226 552 266 552 C 310 552 347 542 375 524 C 403 506 422 480 431 448 C 435 458 443 470 453 482 C 463 494 476 504 492 514 C 507 524 525 532 545 539 C 565 545 588 549 613 549 C 684 549 741 522 784 468 C 826 414 848 339 849 244 L 462 244 C 462 195 476 154 506 122 C 535 90 573 74 620 74 C 662 74 695 82 717 98 C 739 114 757 130 772 147 L 826 86 C 804 60 776 38 744 19 C 711 0 668 -9 616 -9 Z M 462 310 L 754 310 C 753 355 740 393 714 424 C 688 454 654 470 610 470 C 568 470 534 454 507 424 C 479 394 464 356 462 310 Z M 238 65 C 271 65 300 75 325 97 C 350 119 368 144 380 172 L 380 278 L 266 270 C 230 268 199 259 175 244 C 150 228 138 201 138 162 C 138 129 147 105 167 89 C 186 73 210 65 238 65 Z" unicode="æ" />
<glyph horiz-adv-x="511" d="M 36 0 L 36 0 Z M 424 155 L 488 103 C 479 89 469 76 457 63 C 445 49 430 37 414 27 C 398 16 379 7 357 1 C 335 -5 311 -9 284 -9 C 246 -9 212 -2 182 11 C 151 25 125 44 104 68 C 82 92 66 122 54 156 C 42 190 36 227 36 269 C 36 308 42 345 54 379 C 66 413 82 443 104 468 C 126 493 152 513 183 528 C 213 542 247 550 285 550 C 313 550 338 546 360 539 C 382 531 402 522 419 510 C 435 498 449 485 460 470 C 471 455 480 440 486 425 L 411 385 C 400 405 384 424 364 441 C 344 458 317 467 283 467 C 237 467 200 448 173 411 C 145 373 132 327 132 271 C 132 209 146 161 175 126 C 203 90 241 73 289 73 C 327 73 356 82 376 100 C 396 118 412 136 424 155 Z M 274 -7 L 274 -7 Z M 281 -193 C 258 -193 235 -190 212 -184 C 189 -178 171 -170 158 -160 L 175 -121 C 183 -126 195 -131 210 -137 C 224 -142 240 -145 258 -145 C 272 -145 284 -141 294 -135 C 304 -129 310 -120 310 -110 C 310 -97 305 -88 295 -83 C 285 -77 275 -75 265 -75 C 257 -75 251 -75 245 -77 C 239 -78 233 -80 227 -82 L 215 -67 L 273 6 L 325 6 L 278 -55 C 310 -49 336 -52 358 -64 C 379 -76 390 -94 390 -118 C 390 -142 379 -161 357 -174 C 335 -186 310 -193 281 -193 Z" unicode="ç" />
<glyph horiz-adv-x="549" d="M 36 0 L 36 0 Z M 284 -9 C 248 -9 214 -2 184 10 C 153 22 127 40 105 64 C 83 88 66 117 54 152 C 42 186 36 225 36 269 C 36 309 42 346 54 381 C 66 415 83 445 105 470 C 127 494 152 514 182 528 C 212 542 244 549 279 549 C 351 549 409 521 451 467 C 493 412 515 337 516 242 L 129 242 C 130 196 144 156 172 123 C 200 90 238 74 287 74 C 325 74 356 81 380 96 C 404 111 423 128 439 147 L 492 86 C 471 60 444 38 411 19 C 378 0 336 -9 284 -9 Z M 127 310 L 421 310 C 420 358 406 396 380 426 C 353 455 319 470 278 470 C 236 470 201 454 173 424 C 145 394 130 356 127 310 Z M 278 593 L 278 593 Z M 382 593 L 290 593 L 174 760 L 282 760 L 382 593 Z" unicode="è" />
<glyph horiz-adv-x="549" d="M 36 0 L 36 0 Z M 284 -9 C 248 -9 214 -2 184 10 C 153 22 127 40 105 64 C 83 88 66 117 54 152 C 42 186 36 225 36 269 C 36 309 42 346 54 381 C 66 415 83 445 105 470 C 127 494 152 514 182 528 C 212 542 244 549 279 549 C 351 549 409 521 451 467 C 493 412 515 337 516 242 L 129 242 C 130 196 144 156 172 123 C 200 90 238 74 287 74 C 325 74 356 81 380 96 C 404 111 423 128 439 147 L 492 86 C 471 60 444 38 411 19 C 378 0 336 -9 284 -9 Z M 127 310 L 421 310 C 420 358 406 396 380 426 C 353 455 319 470 278 470 C 236 470 201 454 173 424 C 145 394 130 356 127 310 Z M 278 599 L 278 599 Z M 175 599 L 274 765 L 382 765 L 267 599 L 175 599 Z" unicode="é" />
<glyph horiz-adv-x="549" d="M 36 0 L 36 0 Z M 284 -9 C 248 -9 214 -2 184 10 C 153 22 127 40 105 64 C 83 88 66 117 54 152 C 42 186 36 225 36 269 C 36 309 42 346 54 381 C 66 415 83 445 105 470 C 127 494 152 514 182 528 C 212 542 244 549 279 549 C 351 549 409 521 451 467 C 493 412 515 337 516 242 L 129 242 C 130 196 144 156 172 123 C 200 90 238 74 287 74 C 325 74 356 81 380 96 C 404 111 423 128 439 147 L 492 86 C 471 60 444 38 411 19 C 378 0 336 -9 284 -9 Z M 127 310 L 421 310 C 420 358 406 396 380 426 C 353 455 319 470 278 470 C 236 470 201 454 173 424 C 145 394 130 356 127 310 Z M 278 594 L 278 594 Z M 437 594 L 353 594 L 278 705 L 201 594 L 119 594 L 234 766 L 323 766 L 437 594 Z" unicode="ê" />
<glyph horiz-adv-x="549" d="M 36 0 L 36 0 Z M 284 -9 C 248 -9 214 -2 184 10 C 153 22 127 40 105 64 C 83 88 66 117 54 152 C 42 186 36 225 36 269 C 36 309 42 346 54 381 C 66 415 83 445 105 470 C 127 494 152 514 182 528 C 212 542 244 549 279 549 C 351 549 409 521 451 467 C 493 412 515 337 516 242 L 129 242 C 130 196 144 156 172 123 C 200 90 238 74 287 74 C 325 74 356 81 380 96 C 404 111 423 128 439 147 L 492 86 C 471 60 444 38 411 19 C 378 0 336 -9 284 -9 Z M 127 310 L 421 310 C 420 358 406 396 380 426 C 353 455 319 470 278 470 C 236 470 201 454 173 424 C 145 394 130 356 127 310 Z M 278 595 L 278 595 Z M 403 595 L 326 595 L 326 752 L 403 752 L 403 595 Z M 230 595 L 153 595 L 153 752 L 230 752 L 230 595 Z" unicode="ë" />
<glyph horiz-adv-x="241" d="M 16 0 L 16 0 Z M 167 0 L 74 0 L 74 540 L 167 540 L 167 0 Z M 120 593 L 120 593 Z M 224 593 L 132 593 L 16 760 L 124 760 L 224 593 Z" unicode="ì" />
<glyph horiz-adv-x="241" d="M 17 0 L 17 0 Z M 167 0 L 74 0 L 74 540 L 167 540 L 167 0 Z M 120 599 L 120 599 Z M 17 599 L 116 765 L 224 765 L 109 599 L 17 599 Z" unicode="í" />
<glyph horiz-adv-x="241" d="M 0 0 L 0 0 Z M 167 0 L 74 0 L 74 540 L 167 540 L 167 0 Z M 120 594 L 120 594 Z M 279 594 L 195 594 L 120 705 L 43 594 L -39 594 L 76 766 L 165 766 L 279 594 Z" unicode="î" />
<glyph horiz-adv-x="241" d="M 0 0 L 0 0 Z M 167 0 L 74 0 L 74 540 L 167 540 L 167 0 Z M 120 595 L 120 595 Z M 245 595 L 168 595 L 168 752 L 245 752 L 245 595 Z M 72 595 L -5 595 L -5 752 L 72 752 L 72 595 Z" unicode="ï" />
<glyph horiz-adv-x="569" d="M 527 301 C 527 257 521 216 511 178 C 500 140 484 107 464 79 C 443 51 417 30 386 14 C 355 -2 320 -10 281 -10 C 246 -10 214 -3 184 9 C 154 21 128 39 106 62 C 84 85 66 113 54 146 C 42 179 36 216 36 258 C 36 297 42 333 54 367 C 66 401 83 430 104 454 C 125 478 149 496 177 510 C 205 524 234 531 264 531 C 302 531 335 521 365 503 C 394 485 416 461 430 433 C 425 479 416 520 403 557 C 389 593 374 625 357 652 L 232 600 L 215 650 L 325 696 C 307 716 290 733 272 746 C 254 758 238 767 224 773 L 304 801 C 316 796 330 787 346 775 C 362 762 379 745 396 725 L 470 756 L 486 706 L 428 682 C 454 640 477 588 497 524 C 517 460 527 386 527 301 Z M 282 69 C 330 69 367 86 394 122 C 421 157 435 205 435 267 C 435 327 421 373 394 407 C 367 440 330 457 282 457 C 236 457 200 439 173 403 C 145 367 132 321 132 264 C 132 203 146 155 174 121 C 202 86 238 69 282 69 Z" unicode="ð" />
<glyph horiz-adv-x="560" d="M 72 0 L 72 0 Z M 494 0 L 401 0 L 401 380 C 401 408 390 430 370 446 C 349 462 324 470 296 470 C 281 470 266 467 250 463 C 234 458 220 451 208 441 C 195 431 185 419 177 404 C 169 388 165 370 165 350 L 165 0 L 72 0 L 72 540 L 152 540 L 152 438 C 162 470 183 497 215 518 C 246 539 284 550 328 550 C 350 550 372 546 392 540 C 412 534 429 525 444 513 C 459 501 471 486 480 468 C 489 450 494 431 494 409 L 494 0 Z M 293 600 L 293 600 Z M 389 738 L 462 738 C 462 691 455 656 441 634 C 427 611 407 600 383 600 C 365 600 348 603 334 611 C 320 619 307 627 296 636 C 285 644 275 651 265 659 C 255 666 244 670 234 670 C 224 670 215 664 208 653 C 201 642 197 626 197 605 L 125 605 C 125 651 134 685 153 708 C 172 730 192 742 214 742 C 230 742 245 738 258 730 C 271 722 284 713 296 705 C 306 696 315 689 325 683 C 334 677 343 674 353 674 C 362 674 370 679 377 690 C 384 701 388 717 389 738 Z" unicode="ñ" />
<glyph horiz-adv-x="568" d="M 36 0 L 36 0 Z M 281 -9 C 248 -9 217 -2 187 9 C 157 21 131 39 109 63 C 87 86 69 115 56 150 C 42 184 36 224 36 268 C 36 309 42 347 55 382 C 67 416 85 446 107 471 C 129 495 155 515 185 529 C 215 543 247 550 281 550 C 317 550 350 543 381 531 C 411 519 438 501 460 478 C 482 454 500 426 513 393 C 525 360 532 323 532 283 C 532 239 525 200 513 164 C 500 128 482 97 460 72 C 438 46 411 26 380 12 C 349 -1 316 -9 281 -9 Z M 285 73 C 330 73 366 91 394 128 C 422 164 436 214 436 276 C 436 335 421 382 393 416 C 365 450 327 467 280 467 C 236 467 200 449 173 414 C 145 378 132 330 132 269 C 132 204 146 155 176 122 C 205 89 241 73 285 73 Z M 282 593 L 282 593 Z M 386 593 L 294 593 L 178 760 L 286 760 L 386 593 Z" unicode="ò" />
<glyph horiz-adv-x="568" d="M 36 0 L 36 0 Z M 281 -9 C 248 -9 217 -2 187 9 C 157 21 131 39 109 63 C 87 86 69 115 56 150 C 42 184 36 224 36 268 C 36 309 42 347 55 382 C 67 416 85 446 107 471 C 129 495 155 515 185 529 C 215 543 247 550 281 550 C 317 550 350 543 381 531 C 411 519 438 501 460 478 C 482 454 500 426 513 393 C 525 360 532 323 532 283 C 532 239 525 200 513 164 C 500 128 482 97 460 72 C 438 46 411 26 380 12 C 349 -1 316 -9 281 -9 Z M 285 73 C 330 73 366 91 394 128 C 422 164 436 214 436 276 C 436 335 421 382 393 416 C 365 450 327 467 280 467 C 236 467 200 449 173 414 C 145 378 132 330 132 269 C 132 204 146 155 176 122 C 205 89 241 73 285 73 Z M 282 599 L 282 599 Z M 179 599 L 278 765 L 386 765 L 271 599 L 179 599 Z" unicode="ó" />
<glyph horiz-adv-x="568" d="M 36 0 L 36 0 Z M 281 -9 C 248 -9 217 -2 187 9 C 157 21 131 39 109 63 C 87 86 69 115 56 150 C 42 184 36 224 36 268 C 36 309 42 347 55 382 C 67 416 85 446 107 471 C 129 495 155 515 185 529 C 215 543 247 550 281 550 C 317 550 350 543 381 531 C 411 519 438 501 460 478 C 482 454 500 426 513 393 C 525 360 532 323 532 283 C 532 239 525 200 513 164 C 500 128 482 97 460 72 C 438 46 411 26 380 12 C 349 -1 316 -9 281 -9 Z M 285 73 C 330 73 366 91 394 128 C 422 164 436 214 436 276 C 436 335 421 382 393 416 C 365 450 327 467 280 467 C 236 467 200 449 173 414 C 145 378 132 330 132 269 C 132 204 146 155 176 122 C 205 89 241 73 285 73 Z M 282 594 L 282 594 Z M 441 594 L 357 594 L 282 705 L 205 594 L 123 594 L 238 766 L 327 766 L 441 594 Z" unicode="ô" />
<glyph horiz-adv-x="568" d="M 36 0 L 36 0 Z M 281 -9 C 248 -9 217 -2 187 9 C 157 21 131 39 109 63 C 87 86 69 115 56 150 C 42 184 36 224 36 268 C 36 309 42 347 55 382 C 67 416 85 446 107 471 C 129 495 155 515 185 529 C 215 543 247 550 281 550 C 317 550 350 543 381 531 C 411 519 438 501 460 478 C 482 454 500 426 513 393 C 525 360 532 323 532 283 C 532 239 525 200 513 164 C 500 128 482 97 460 72 C 438 46 411 26 380 12 C 349 -1 316 -9 281 -9 Z M 285 73 C 330 73 366 91 394 128 C 422 164 436 214 436 276 C 436 335 421 382 393 416 C 365 450 327 467 280 467 C 236 467 200 449 173 414 C 145 378 132 330 132 269 C 132 204 146 155 176 122 C 205 89 241 73 285 73 Z M 282 600 L 282 600 Z M 378 738 L 451 738 C 451 691 444 656 430 634 C 416 611 396 600 372 600 C 354 600 337 603 323 611 C 309 619 296 627 285 636 C 274 644 264 651 254 659 C 244 666 233 670 223 670 C 213 670 204 664 197 653 C 190 642 186 626 186 605 L 114 605 C 114 651 123 685 142 708 C 161 730 181 742 203 742 C 219 742 234 738 247 730 C 260 722 273 713 285 705 C 295 696 304 689 314 683 C 323 677 332 674 342 674 C 351 674 359 679 366 690 C 373 701 377 717 378 738 Z" unicode="õ" />
<glyph horiz-adv-x="568" d="M 36 0 L 36 0 Z M 281 -9 C 248 -9 217 -2 187 9 C 157 21 131 39 109 63 C 87 86 69 115 56 150 C 42 184 36 224 36 268 C 36 309 42 347 55 382 C 67 416 85 446 107 471 C 129 495 155 515 185 529 C 215 543 247 550 281 550 C 317 550 350 543 381 531 C 411 519 438 501 460 478 C 482 454 500 426 513 393 C 525 360 532 323 532 283 C 532 239 525 200 513 164 C 500 128 482 97 460 72 C 438 46 411 26 380 12 C 349 -1 316 -9 281 -9 Z M 285 73 C 330 73 366 91 394 128 C 422 164 436 214 436 276 C 436 335 421 382 393 416 C 365 450 327 467 280 467 C 236 467 200 449 173 414 C 145 378 132 330 132 269 C 132 204 146 155 176 122 C 205 89 241 73 285 73 Z M 282 595 L 282 595 Z M 407 595 L 330 595 L 330 752 L 407 752 L 407 595 Z M 234 595 L 157 595 L 157 752 L 234 752 L 234 595 Z" unicode="ö" />
<glyph horiz-adv-x="490" d="M 201 448 L 201 564 L 289 564 L 289 448 L 201 448 Z M 25 291 L 25 370 L 465 370 L 465 291 L 25 291 Z M 201 97 L 201 213 L 289 213 L 289 97 L 201 97 Z" unicode="÷" />
<glyph horiz-adv-x="568" d="M 281 -9 C 252 -9 224 -4 197 5 C 170 15 146 29 125 48 L 74 -12 L 25 30 L 83 96 C 68 118 56 144 48 173 C 40 201 36 233 36 268 C 36 309 42 347 55 382 C 67 416 85 446 107 471 C 129 495 155 515 185 529 C 215 543 247 550 281 550 C 310 550 338 545 364 537 C 390 529 413 517 434 502 L 485 561 L 533 520 L 479 457 C 495 434 508 408 518 379 C 527 349 532 317 532 283 C 532 239 525 200 513 164 C 500 128 482 97 460 72 C 438 46 411 26 380 12 C 349 -1 316 -9 281 -9 Z M 132 269 C 132 250 133 232 136 216 C 139 200 143 185 148 172 L 375 434 C 362 444 348 452 332 458 C 316 464 298 467 280 467 C 236 467 200 449 173 414 C 145 378 132 330 132 269 Z M 436 276 C 436 296 434 316 430 334 C 426 352 421 368 415 383 L 183 114 C 196 100 211 90 229 83 C 246 76 265 73 285 73 C 330 73 366 91 394 128 C 422 164 436 214 436 276 Z" unicode="ø" />
<glyph horiz-adv-x="560" d="M 67 0 L 67 0 Z M 67 540 L 160 540 L 160 184 C 160 142 170 113 192 95 C 214 77 241 69 275 69 C 307 69 335 79 359 101 C 383 122 395 153 395 193 L 395 540 L 488 540 L 488 0 L 405 0 L 405 99 C 396 71 377 45 348 23 C 319 1 282 -10 237 -10 C 214 -10 192 -6 172 0 C 151 6 133 16 117 29 C 101 42 89 59 80 79 C 71 99 67 123 67 151 L 67 540 Z M 277 593 L 277 593 Z M 381 593 L 289 593 L 173 760 L 281 760 L 381 593 Z" unicode="ù" />
<glyph horiz-adv-x="560" d="M 67 0 L 67 0 Z M 67 540 L 160 540 L 160 184 C 160 142 170 113 192 95 C 214 77 241 69 275 69 C 307 69 335 79 359 101 C 383 122 395 153 395 193 L 395 540 L 488 540 L 488 0 L 405 0 L 405 99 C 396 71 377 45 348 23 C 319 1 282 -10 237 -10 C 214 -10 192 -6 172 0 C 151 6 133 16 117 29 C 101 42 89 59 80 79 C 71 99 67 123 67 151 L 67 540 Z M 277 599 L 277 599 Z M 174 599 L 273 765 L 381 765 L 266 599 L 174 599 Z" unicode="ú" />
<glyph horiz-adv-x="560" d="M 67 0 L 67 0 Z M 67 540 L 160 540 L 160 184 C 160 142 170 113 192 95 C 214 77 241 69 275 69 C 307 69 335 79 359 101 C 383 122 395 153 395 193 L 395 540 L 488 540 L 488 0 L 405 0 L 405 99 C 396 71 377 45 348 23 C 319 1 282 -10 237 -10 C 214 -10 192 -6 172 0 C 151 6 133 16 117 29 C 101 42 89 59 80 79 C 71 99 67 123 67 151 L 67 540 Z M 277 594 L 277 594 Z M 436 594 L 352 594 L 277 705 L 200 594 L 118 594 L 233 766 L 322 766 L 436 594 Z" unicode="û" />
<glyph horiz-adv-x="560" d="M 67 0 L 67 0 Z M 67 540 L 160 540 L 160 184 C 160 142 170 113 192 95 C 214 77 241 69 275 69 C 307 69 335 79 359 101 C 383 122 395 153 395 193 L 395 540 L 488 540 L 488 0 L 405 0 L 405 99 C 396 71 377 45 348 23 C 319 1 282 -10 237 -10 C 214 -10 192 -6 172 0 C 151 6 133 16 117 29 C 101 42 89 59 80 79 C 71 99 67 123 67 151 L 67 540 Z M 277 595 L 277 595 Z M 402 595 L 325 595 L 325 752 L 402 752 L 402 595 Z M 229 595 L 152 595 L 152 752 L 229 752 L 229 595 Z" unicode="ü" />
<glyph horiz-adv-x="479" d="M 0 0 L 0 0 Z M 483 540 L 236 -83 C 218 -125 194 -155 165 -173 C 136 -191 107 -200 79 -200 C 59 -200 42 -197 29 -193 C 15 -188 6 -184 1 -182 L 34 -105 C 37 -107 43 -109 52 -112 C 61 -114 70 -116 79 -116 C 95 -116 109 -110 123 -99 C 137 -87 149 -69 161 -44 L 192 38 L -4 540 L 94 540 L 241 150 L 390 540 L 483 540 Z M 241 599 L 241 599 Z M 138 599 L 237 765 L 345 765 L 230 599 L 138 599 Z" unicode="ý" />
<glyph horiz-adv-x="578" d="M 72 -196 L 72 800 L 162 800 L 162 426 C 170 458 189 487 219 512 C 248 536 287 549 335 549 C 399 549 449 524 487 476 C 524 427 543 362 543 282 C 543 192 522 122 482 71 C 442 19 391 -6 329 -6 C 286 -6 250 4 221 26 C 192 47 173 73 163 105 L 163 -196 L 72 -196 Z M 303 72 C 344 72 378 89 405 125 C 432 161 446 210 446 272 C 446 330 434 377 410 413 C 386 449 351 468 305 468 C 263 468 229 452 201 421 C 173 389 159 337 159 265 C 159 194 173 144 201 115 C 229 86 263 72 303 72 Z" unicode="þ" />
<glyph horiz-adv-x="479" d="M 0 0 L 0 0 Z M 483 540 L 236 -83 C 218 -125 194 -155 165 -173 C 136 -191 107 -200 79 -200 C 59 -200 42 -197 29 -193 C 15 -188 6 -184 1 -182 L 34 -105 C 37 -107 43 -109 52 -112 C 61 -114 70 -116 79 -116 C 95 -116 109 -110 123 -99 C 137 -87 149 -69 161 -44 L 192 38 L -4 540 L 94 540 L 241 150 L 390 540 L 483 540 Z M 241 595 L 241 595 Z M 366 595 L 289 595 L 289 752 L 366 752 L 366 595 Z M 193 595 L 116 595 L 116 752 L 193 752 L 193 595 Z" unicode="ÿ" />
<glyph horiz-adv-x="597" d="M 1 0 L 1 0 Z M 596 0 L 493 0 L 425 188 L 163 188 L 98 0 L 1 0 L 266 734 L 334 734 L 596 0 Z M 406 263 L 294 581 L 183 263 L 406 263 Z M 295 798 L 295 798 Z M 423 798 L 167 798 L 167 877 L 423 877 L 423 798 Z" unicode="Ā" />
<glyph horiz-adv-x="521" d="M 34 0 L 34 0 Z M 459 0 L 373 0 L 373 67 C 354 43 331 25 303 12 C 275 0 240 -7 200 -7 C 150 -7 109 7 79 35 C 49 63 34 103 34 153 C 34 213 54 258 96 288 C 137 318 191 336 259 341 L 369 348 L 369 368 C 369 403 359 429 339 446 C 319 462 292 471 258 471 C 228 471 199 465 173 454 C 146 443 122 431 102 417 L 67 488 C 89 505 118 520 153 533 C 187 545 227 552 272 552 C 330 552 375 537 409 509 C 442 480 459 436 459 376 L 459 0 Z M 371 132 L 371 279 L 259 273 C 221 270 190 260 166 242 C 142 224 130 196 130 160 C 130 129 139 105 159 89 C 179 73 204 65 234 65 C 262 65 288 71 312 84 C 336 96 356 112 371 132 Z M 257 608 L 257 608 Z M 385 608 L 129 608 L 129 687 L 385 687 L 385 608 Z" unicode="ā" />
<glyph horiz-adv-x="597" d="M 1 0 L 1 0 Z M 596 0 L 493 0 L 425 188 L 163 188 L 98 0 L 1 0 L 266 734 L 334 734 L 596 0 Z M 406 263 L 294 581 L 183 263 L 406 263 Z M 295 789 L 295 789 Z M 367 947 L 445 947 C 441 891 425 851 397 826 C 369 801 335 789 295 789 C 254 789 220 801 193 826 C 165 851 150 891 146 947 L 223 947 C 225 919 231 897 242 880 C 252 863 270 855 295 855 C 319 855 337 863 348 879 C 359 895 365 918 367 947 Z" unicode="Ă" />
<glyph horiz-adv-x="521" d="M 34 0 L 34 0 Z M 459 0 L 373 0 L 373 67 C 354 43 331 25 303 12 C 275 0 240 -7 200 -7 C 150 -7 109 7 79 35 C 49 63 34 103 34 153 C 34 213 54 258 96 288 C 137 318 191 336 259 341 L 369 348 L 369 368 C 369 403 359 429 339 446 C 319 462 292 471 258 471 C 228 471 199 465 173 454 C 146 443 122 431 102 417 L 67 488 C 89 505 118 520 153 533 C 187 545 227 552 272 552 C 330 552 375 537 409 509 C 442 480 459 436 459 376 L 459 0 Z M 371 132 L 371 279 L 259 273 C 221 270 190 260 166 242 C 142 224 130 196 130 160 C 130 129 139 105 159 89 C 179 73 204 65 234 65 C 262 65 288 71 312 84 C 336 96 356 112 371 132 Z M 257 599 L 257 599 Z M 329 757 L 407 757 C 403 701 387 661 359 636 C 331 611 297 599 257 599 C 216 599 182 611 155 636 C 127 661 112 701 108 757 L 185 757 C 187 729 193 707 204 690 C 214 673 232 665 257 665 C 281 665 299 673 310 689 C 321 705 327 728 329 757 Z" unicode="ă" />
<glyph horiz-adv-x="597" d="M 1 0 L 1 0 Z M 596 0 L 493 0 L 425 188 L 163 188 L 98 0 L 1 0 L 266 734 L 334 734 L 596 0 Z M 406 263 L 294 581 L 183 263 L 406 263 Z M 513 -7 L 513 -7 Z M 617 -95 L 643 -133 C 623 -153 601 -169 577 -180 C 552 -191 525 -197 495 -197 C 461 -197 435 -189 416 -175 C 397 -160 388 -141 388 -119 C 388 -95 397 -73 416 -52 C 435 -31 463 -13 499 2 L 553 2 C 525 -11 504 -25 489 -39 C 474 -53 467 -68 467 -83 C 467 -97 472 -108 483 -116 C 494 -124 508 -128 525 -128 C 544 -128 561 -125 577 -119 C 593 -113 606 -105 617 -95 Z" unicode="Ą" />
<glyph horiz-adv-x="521" d="M 34 0 L 34 0 Z M 459 0 L 373 0 L 373 67 C 354 43 331 25 303 12 C 275 0 240 -7 200 -7 C 150 -7 109 7 79 35 C 49 63 34 103 34 153 C 34 213 54 258 96 288 C 137 318 191 336 259 341 L 369 348 L 369 368 C 369 403 359 429 339 446 C 319 462 292 471 258 471 C 228 471 199 465 173 454 C 146 443 122 431 102 417 L 67 488 C 89 505 118 520 153 533 C 187 545 227 552 272 552 C 330 552 375 537 409 509 C 442 480 459 436 459 376 L 459 0 Z M 371 132 L 371 279 L 259 273 C 221 270 190 260 166 242 C 142 224 130 196 130 160 C 130 129 139 105 159 89 C 179 73 204 65 234 65 C 262 65 288 71 312 84 C 336 96 356 112 371 132 Z M 392 -7 L 392 -7 Z M 496 -95 L 522 -133 C 502 -153 480 -169 456 -180 C 431 -191 404 -197 374 -197 C 340 -197 314 -189 295 -175 C 276 -160 267 -141 267 -119 C 267 -95 276 -73 295 -52 C 314 -31 342 -13 378 2 L 432 2 C 404 -11 383 -25 368 -39 C 353 -53 346 -68 346 -83 C 346 -97 351 -108 362 -116 C 373 -124 387 -128 404 -128 C 423 -128 440 -125 456 -119 C 472 -113 485 -105 496 -95 Z" unicode="ą" />
<glyph horiz-adv-x="675" d="M 43 0 L 43 0 Z M 366 -10 C 322 -10 280 -1 240 15 C 200 31 166 56 137 88 C 108 120 85 159 68 206 C 51 252 43 305 43 365 C 43 421 50 473 66 519 C 82 565 104 605 132 637 C 160 669 195 695 235 713 C 275 731 319 740 367 740 C 431 740 484 728 526 704 C 568 680 603 647 629 604 L 548 553 C 529 581 506 604 478 622 C 450 640 413 650 368 650 C 298 650 243 625 203 577 C 163 528 143 458 143 367 C 143 317 149 274 163 238 C 176 201 193 171 215 148 C 236 124 261 107 289 95 C 317 83 345 78 375 78 C 421 78 460 88 491 109 C 522 130 547 158 567 192 L 643 144 C 619 99 583 62 536 33 C 489 4 432 -10 366 -10 Z M 368 789 L 368 789 Z M 265 789 L 364 955 L 472 955 L 357 789 L 265 789 Z" unicode="Ć" />
<glyph horiz-adv-x="511" d="M 36 0 L 36 0 Z M 424 155 L 488 103 C 479 89 469 76 457 63 C 445 49 430 37 414 27 C 398 16 379 7 357 1 C 335 -5 311 -9 284 -9 C 246 -9 212 -2 182 11 C 151 25 125 44 104 68 C 82 92 66 122 54 156 C 42 190 36 227 36 269 C 36 308 42 345 54 379 C 66 413 82 443 104 468 C 126 493 152 513 183 528 C 213 542 247 550 285 550 C 313 550 338 546 360 539 C 382 531 402 522 419 510 C 435 498 449 485 460 470 C 471 455 480 440 486 425 L 411 385 C 400 405 384 424 364 441 C 344 458 317 467 283 467 C 237 467 200 448 173 411 C 145 373 132 327 132 271 C 132 209 146 161 175 126 C 203 90 241 73 289 73 C 327 73 356 82 376 100 C 396 118 412 136 424 155 Z M 284 599 L 284 599 Z M 181 599 L 280 765 L 388 765 L 273 599 L 181 599 Z" unicode="ć" />
<glyph horiz-adv-x="675" d="M 43 0 L 43 0 Z M 366 -10 C 322 -10 280 -1 240 15 C 200 31 166 56 137 88 C 108 120 85 159 68 206 C 51 252 43 305 43 365 C 43 421 50 473 66 519 C 82 565 104 605 132 637 C 160 669 195 695 235 713 C 275 731 319 740 367 740 C 431 740 484 728 526 704 C 568 680 603 647 629 604 L 548 553 C 529 581 506 604 478 622 C 450 640 413 650 368 650 C 298 650 243 625 203 577 C 163 528 143 458 143 367 C 143 317 149 274 163 238 C 176 201 193 171 215 148 C 236 124 261 107 289 95 C 317 83 345 78 375 78 C 421 78 460 88 491 109 C 522 130 547 158 567 192 L 643 144 C 619 99 583 62 536 33 C 489 4 432 -10 366 -10 Z M 368 784 L 368 784 Z M 527 784 L 443 784 L 368 895 L 291 784 L 209 784 L 324 956 L 413 956 L 527 784 Z" unicode="Ĉ" />
<glyph horiz-adv-x="511" d="M 36 0 L 36 0 Z M 424 155 L 488 103 C 479 89 469 76 457 63 C 445 49 430 37 414 27 C 398 16 379 7 357 1 C 335 -5 311 -9 284 -9 C 246 -9 212 -2 182 11 C 151 25 125 44 104 68 C 82 92 66 122 54 156 C 42 190 36 227 36 269 C 36 308 42 345 54 379 C 66 413 82 443 104 468 C 126 493 152 513 183 528 C 213 542 247 550 285 550 C 313 550 338 546 360 539 C 382 531 402 522 419 510 C 435 498 449 485 460 470 C 471 455 480 440 486 425 L 411 385 C 400 405 384 424 364 441 C 344 458 317 467 283 467 C 237 467 200 448 173 411 C 145 373 132 327 132 271 C 132 209 146 161 175 126 C 203 90 241 73 289 73 C 327 73 356 82 376 100 C 396 118 412 136 424 155 Z M 284 594 L 284 594 Z M 443 594 L 359 594 L 284 705 L 207 594 L 125 594 L 240 766 L 329 766 L 443 594 Z" unicode="ĉ" />
<glyph horiz-adv-x="675" d="M 43 0 L 43 0 Z M 366 -10 C 322 -10 280 -1 240 15 C 200 31 166 56 137 88 C 108 120 85 159 68 206 C 51 252 43 305 43 365 C 43 421 50 473 66 519 C 82 565 104 605 132 637 C 160 669 195 695 235 713 C 275 731 319 740 367 740 C 431 740 484 728 526 704 C 568 680 603 647 629 604 L 548 553 C 529 581 506 604 478 622 C 450 640 413 650 368 650 C 298 650 243 625 203 577 C 163 528 143 458 143 367 C 143 317 149 274 163 238 C 176 201 193 171 215 148 C 236 124 261 107 289 95 C 317 83 345 78 375 78 C 421 78 460 88 491 109 C 522 130 547 158 567 192 L 643 144 C 619 99 583 62 536 33 C 489 4 432 -10 366 -10 Z M 368 786 L 368 786 Z M 411 786 L 326 786 L 326 934 L 411 934 L 411 786 Z" unicode="Ċ" />
<glyph horiz-adv-x="511" d="M 36 0 L 36 0 Z M 424 155 L 488 103 C 479 89 469 76 457 63 C 445 49 430 37 414 27 C 398 16 379 7 357 1 C 335 -5 311 -9 284 -9 C 246 -9 212 -2 182 11 C 151 25 125 44 104 68 C 82 92 66 122 54 156 C 42 190 36 227 36 269 C 36 308 42 345 54 379 C 66 413 82 443 104 468 C 126 493 152 513 183 528 C 213 542 247 550 285 550 C 313 550 338 546 360 539 C 382 531 402 522 419 510 C 435 498 449 485 460 470 C 471 455 480 440 486 425 L 411 385 C 400 405 384 424 364 441 C 344 458 317 467 283 467 C 237 467 200 448 173 411 C 145 373 132 327 132 271 C 132 209 146 161 175 126 C 203 90 241 73 289 73 C 327 73 356 82 376 100 C 396 118 412 136 424 155 Z M 284 596 L 284 596 Z M 327 596 L 242 596 L 242 744 L 327 744 L 327 596 Z" unicode="ċ" />
<glyph horiz-adv-x="675" d="M 43 0 L 43 0 Z M 366 -10 C 322 -10 280 -1 240 15 C 200 31 166 56 137 88 C 108 120 85 159 68 206 C 51 252 43 305 43 365 C 43 421 50 473 66 519 C 82 565 104 605 132 637 C 160 669 195 695 235 713 C 275 731 319 740 367 740 C 431 740 484 728 526 704 C 568 680 603 647 629 604 L 548 553 C 529 581 506 604 478 622 C 450 640 413 650 368 650 C 298 650 243 625 203 577 C 163 528 143 458 143 367 C 143 317 149 274 163 238 C 176 201 193 171 215 148 C 236 124 261 107 289 95 C 317 83 345 78 375 78 C 421 78 460 88 491 109 C 522 130 547 158 567 192 L 643 144 C 619 99 583 62 536 33 C 489 4 432 -10 366 -10 Z M 368 784 L 368 784 Z M 209 956 L 293 956 L 369 845 L 445 956 L 527 956 L 413 784 L 324 784 L 209 956 Z" unicode="Č" />
<glyph horiz-adv-x="511" d="M 36 0 L 36 0 Z M 424 155 L 488 103 C 479 89 469 76 457 63 C 445 49 430 37 414 27 C 398 16 379 7 357 1 C 335 -5 311 -9 284 -9 C 246 -9 212 -2 182 11 C 151 25 125 44 104 68 C 82 92 66 122 54 156 C 42 190 36 227 36 269 C 36 308 42 345 54 379 C 66 413 82 443 104 468 C 126 493 152 513 183 528 C 213 542 247 550 285 550 C 313 550 338 546 360 539 C 382 531 402 522 419 510 C 435 498 449 485 460 470 C 471 455 480 440 486 425 L 411 385 C 400 405 384 424 364 441 C 344 458 317 467 283 467 C 237 467 200 448 173 411 C 145 373 132 327 132 271 C 132 209 146 161 175 126 C 203 90 241 73 289 73 C 327 73 356 82 376 100 C 396 118 412 136 424 155 Z M 284 594 L 284 594 Z M 125 766 L 209 766 L 285 655 L 361 766 L 443 766 L 329 594 L 240 594 L 125 766 Z" unicode="č" />
<glyph horiz-adv-x="679" d="M 83 0 L 83 0 Z M 83 0 L 83 730 L 285 730 C 340 730 390 721 434 704 C 478 687 514 663 544 632 C 574 601 597 564 613 520 C 629 476 637 427 637 374 C 637 321 629 272 613 226 C 597 180 574 141 544 108 C 514 74 476 48 430 29 C 384 9 332 0 272 0 L 83 0 Z M 183 82 L 271 82 C 316 82 355 89 388 104 C 421 118 448 138 470 164 C 491 190 507 220 517 256 C 527 292 533 331 533 373 C 533 459 510 526 466 575 C 422 624 361 649 283 649 L 183 649 L 183 82 Z M 326 784 L 326 784 Z M 167 956 L 251 956 L 327 845 L 403 956 L 485 956 L 371 784 L 282 784 L 167 956 Z" unicode="Ď" />
<glyph horiz-adv-x="583" d="M 36 0 L 36 0 Z M 255 -9 C 191 -9 138 16 97 67 C 56 117 36 185 36 269 C 36 309 41 347 53 382 C 65 416 81 446 101 470 C 121 494 144 514 172 528 C 199 542 228 549 260 549 C 298 549 331 537 361 514 C 391 490 411 463 422 431 L 422 800 L 511 800 L 511 0 L 427 0 L 427 113 C 423 100 416 86 406 72 C 396 58 384 45 369 33 C 354 21 337 11 318 3 C 298 -5 277 -9 255 -9 Z M 276 69 C 320 69 356 87 382 124 C 408 161 422 211 422 274 C 422 341 407 390 379 422 C 350 453 317 469 279 469 C 234 469 198 451 172 416 C 145 381 132 332 132 270 C 132 209 144 160 170 124 C 196 87 231 69 276 69 Z M 641 608 L 637 463 L 559 463 L 554 608 L 554 730 L 641 730 L 641 608 Z" unicode="ď" />
<glyph horiz-adv-x="679" d="M 29 0 L 29 0 Z M 637 366 C 637 315 629 267 613 223 C 597 178 574 139 544 107 C 514 74 476 48 430 29 C 384 9 332 0 272 0 L 83 0 L 83 321 L 29 321 L 29 395 L 83 395 L 83 730 L 285 730 C 340 730 390 721 434 704 C 478 686 514 662 544 631 C 574 599 597 561 613 516 C 629 471 637 421 637 366 Z M 180 76 L 267 76 C 315 76 356 83 390 99 C 424 114 452 135 473 161 C 494 187 509 217 519 252 C 529 287 534 324 534 364 C 534 456 511 528 467 578 C 423 628 362 654 284 654 L 180 654 L 180 395 L 343 395 L 343 321 L 180 321 L 180 76 Z" unicode="Đ" />
<glyph horiz-adv-x="583" d="M 427 113 C 423 100 416 86 406 72 C 396 58 384 45 369 33 C 354 21 337 11 318 3 C 298 -5 277 -9 255 -9 C 191 -9 138 16 97 67 C 56 117 36 185 36 269 C 36 309 41 347 53 382 C 65 416 81 446 101 470 C 121 494 144 514 172 528 C 199 542 228 549 260 549 C 298 549 331 537 361 514 C 391 490 411 463 422 431 L 422 623 L 273 623 L 273 703 L 422 703 L 422 800 L 511 800 L 511 703 L 577 703 L 577 623 L 511 623 L 511 0 L 427 0 L 427 113 Z M 276 69 C 320 69 356 87 382 124 C 408 161 422 211 422 274 C 422 341 407 390 379 422 C 350 453 317 469 279 469 C 234 469 198 451 172 416 C 145 381 132 332 132 270 C 132 209 144 160 170 124 C 196 87 231 69 276 69 Z" unicode="đ" />
<glyph horiz-adv-x="524" d="M 83 0 L 83 0 Z M 482 0 L 83 0 L 83 730 L 463 730 L 463 643 L 181 643 L 181 407 L 450 407 L 450 322 L 181 322 L 181 87 L 482 87 L 482 0 Z M 279 798 L 279 798 Z M 407 798 L 151 798 L 151 877 L 407 877 L 407 798 Z" unicode="Ē" />
<glyph horiz-adv-x="549" d="M 36 0 L 36 0 Z M 284 -9 C 248 -9 214 -2 184 10 C 153 22 127 40 105 64 C 83 88 66 117 54 152 C 42 186 36 225 36 269 C 36 309 42 346 54 381 C 66 415 83 445 105 470 C 127 494 152 514 182 528 C 212 542 244 549 279 549 C 351 549 409 521 451 467 C 493 412 515 337 516 242 L 129 242 C 130 196 144 156 172 123 C 200 90 238 74 287 74 C 325 74 356 81 380 96 C 404 111 423 128 439 147 L 492 86 C 471 60 444 38 411 19 C 378 0 336 -9 284 -9 Z M 127 310 L 421 310 C 420 358 406 396 380 426 C 353 455 319 470 278 470 C 236 470 201 454 173 424 C 145 394 130 356 127 310 Z M 278 608 L 278 608 Z M 406 608 L 150 608 L 150 687 L 406 687 L 406 608 Z" unicode="ē" />
<glyph horiz-adv-x="524" d="M 83 0 L 83 0 Z M 482 0 L 83 0 L 83 730 L 463 730 L 463 643 L 181 643 L 181 407 L 450 407 L 450 322 L 181 322 L 181 87 L 482 87 L 482 0 Z M 279 789 L 279 789 Z M 351 947 L 429 947 C 425 891 409 851 381 826 C 353 801 319 789 279 789 C 238 789 204 801 177 826 C 149 851 134 891 130 947 L 207 947 C 209 919 215 897 226 880 C 236 863 254 855 279 855 C 303 855 321 863 332 879 C 343 895 349 918 351 947 Z" unicode="Ĕ" />
<glyph horiz-adv-x="549" d="M 36 0 L 36 0 Z M 284 -9 C 248 -9 214 -2 184 10 C 153 22 127 40 105 64 C 83 88 66 117 54 152 C 42 186 36 225 36 269 C 36 309 42 346 54 381 C 66 415 83 445 105 470 C 127 494 152 514 182 528 C 212 542 244 549 279 549 C 351 549 409 521 451 467 C 493 412 515 337 516 242 L 129 242 C 130 196 144 156 172 123 C 200 90 238 74 287 74 C 325 74 356 81 380 96 C 404 111 423 128 439 147 L 492 86 C 471 60 444 38 411 19 C 378 0 336 -9 284 -9 Z M 127 310 L 421 310 C 420 358 406 396 380 426 C 353 455 319 470 278 470 C 236 470 201 454 173 424 C 145 394 130 356 127 310 Z M 278 599 L 278 599 Z M 350 757 L 428 757 C 424 701 408 661 380 636 C 352 611 318 599 278 599 C 237 599 203 611 176 636 C 148 661 133 701 129 757 L 206 757 C 208 729 214 707 225 690 C 235 673 253 665 278 665 C 302 665 320 673 331 689 C 342 705 348 728 350 757 Z" unicode="ĕ" />
<glyph horiz-adv-x="524" d="M 83 0 L 83 0 Z M 482 0 L 83 0 L 83 730 L 463 730 L 463 643 L 181 643 L 181 407 L 450 407 L 450 322 L 181 322 L 181 87 L 482 87 L 482 0 Z M 279 786 L 279 786 Z M 322 786 L 237 786 L 237 934 L 322 934 L 322 786 Z" unicode="Ė" />
<glyph horiz-adv-x="549" d="M 36 0 L 36 0 Z M 284 -9 C 248 -9 214 -2 184 10 C 153 22 127 40 105 64 C 83 88 66 117 54 152 C 42 186 36 225 36 269 C 36 309 42 346 54 381 C 66 415 83 445 105 470 C 127 494 152 514 182 528 C 212 542 244 549 279 549 C 351 549 409 521 451 467 C 493 412 515 337 516 242 L 129 242 C 130 196 144 156 172 123 C 200 90 238 74 287 74 C 325 74 356 81 380 96 C 404 111 423 128 439 147 L 492 86 C 471 60 444 38 411 19 C 378 0 336 -9 284 -9 Z M 127 310 L 421 310 C 420 358 406 396 380 426 C 353 455 319 470 278 470 C 236 470 201 454 173 424 C 145 394 130 356 127 310 Z M 278 596 L 278 596 Z M 321 596 L 236 596 L 236 744 L 321 744 L 321 596 Z" unicode="ė" />
<glyph horiz-adv-x="524" d="M 83 0 L 83 0 Z M 482 0 L 83 0 L 83 730 L 463 730 L 463 643 L 181 643 L 181 407 L 450 407 L 450 322 L 181 322 L 181 87 L 482 87 L 482 0 Z M 442 -7 L 442 -7 Z M 546 -95 L 572 -133 C 552 -153 530 -169 506 -180 C 481 -191 454 -197 424 -197 C 390 -197 364 -189 345 -175 C 326 -160 317 -141 317 -119 C 317 -95 326 -73 345 -52 C 364 -31 392 -13 428 2 L 482 2 C 454 -11 433 -25 418 -39 C 403 -53 396 -68 396 -83 C 396 -97 401 -108 412 -116 C 423 -124 437 -128 454 -128 C 473 -128 490 -125 506 -119 C 522 -113 535 -105 546 -95 Z" unicode="Ę" />
<glyph horiz-adv-x="549" d="M 36 0 L 36 0 Z M 284 -9 C 248 -9 214 -2 184 10 C 153 22 127 40 105 64 C 83 88 66 117 54 152 C 42 186 36 225 36 269 C 36 309 42 346 54 381 C 66 415 83 445 105 470 C 127 494 152 514 182 528 C 212 542 244 549 279 549 C 351 549 409 521 451 467 C 493 412 515 337 516 242 L 129 242 C 130 196 144 156 172 123 C 200 90 238 74 287 74 C 325 74 356 81 380 96 C 404 111 423 128 439 147 L 492 86 C 471 60 444 38 411 19 C 378 0 336 -9 284 -9 Z M 127 310 L 421 310 C 420 358 406 396 380 426 C 353 455 319 470 278 470 C 236 470 201 454 173 424 C 145 394 130 356 127 310 Z M 325 -7 L 325 -7 Z M 429 -95 L 455 -133 C 435 -153 413 -169 389 -180 C 364 -191 337 -197 307 -197 C 273 -197 247 -189 228 -175 C 209 -160 200 -141 200 -119 C 200 -95 209 -73 228 -52 C 247 -31 275 -13 311 2 L 365 2 C 337 -11 316 -25 301 -39 C 286 -53 279 -68 279 -83 C 279 -97 284 -108 295 -116 C 306 -124 320 -128 337 -128 C 356 -128 373 -125 389 -119 C 405 -113 418 -105 429 -95 Z" unicode="ę" />
<glyph horiz-adv-x="524" d="M 83 0 L 83 0 Z M 482 0 L 83 0 L 83 730 L 463 730 L 463 643 L 181 643 L 181 407 L 450 407 L 450 322 L 181 322 L 181 87 L 482 87 L 482 0 Z M 279 784 L 279 784 Z M 120 956 L 204 956 L 280 845 L 356 956 L 438 956 L 324 784 L 235 784 L 120 956 Z" unicode="Ě" />
<glyph horiz-adv-x="549" d="M 36 0 L 36 0 Z M 284 -9 C 248 -9 214 -2 184 10 C 153 22 127 40 105 64 C 83 88 66 117 54 152 C 42 186 36 225 36 269 C 36 309 42 346 54 381 C 66 415 83 445 105 470 C 127 494 152 514 182 528 C 212 542 244 549 279 549 C 351 549 409 521 451 467 C 493 412 515 337 516 242 L 129 242 C 130 196 144 156 172 123 C 200 90 238 74 287 74 C 325 74 356 81 380 96 C 404 111 423 128 439 147 L 492 86 C 471 60 444 38 411 19 C 378 0 336 -9 284 -9 Z M 127 310 L 421 310 C 420 358 406 396 380 426 C 353 455 319 470 278 470 C 236 470 201 454 173 424 C 145 394 130 356 127 310 Z M 278 594 L 278 594 Z M 119 766 L 203 766 L 279 655 L 355 766 L 437 766 L 323 594 L 234 594 L 119 766 Z" unicode="ě" />
<glyph horiz-adv-x="710" d="M 43 0 L 43 0 Z M 376 365 L 663 365 L 663 142 C 637 96 598 59 548 31 C 497 3 439 -10 374 -10 C 328 -10 284 -1 244 16 C 204 33 169 58 139 90 C 109 122 86 162 69 209 C 51 255 43 307 43 365 C 43 422 51 474 68 520 C 85 566 108 606 138 638 C 168 670 203 695 244 713 C 284 731 328 740 375 740 C 441 740 494 728 534 705 C 574 681 605 655 627 626 L 557 559 C 538 583 515 604 487 622 C 459 640 421 649 375 649 C 342 649 311 643 283 631 C 254 619 229 601 209 577 C 188 553 172 524 160 489 C 148 453 142 412 142 366 C 142 319 148 277 160 241 C 172 204 189 173 210 148 C 231 123 256 104 285 91 C 313 78 344 72 376 72 C 420 72 459 80 495 97 C 530 113 556 138 572 171 L 572 280 L 376 280 L 376 365 Z M 376 784 L 376 784 Z M 535 784 L 451 784 L 376 895 L 299 784 L 217 784 L 332 956 L 421 956 L 535 784 Z" unicode="Ĝ" />
<glyph horiz-adv-x="578" d="M 37 0 L 37 0 Z M 254 7 C 190 7 137 31 97 81 C 57 130 37 194 37 274 C 37 357 57 424 98 474 C 139 524 192 549 256 549 C 298 549 334 537 364 515 C 394 492 415 464 426 432 L 426 540 L 510 540 L 510 54 C 510 10 502 -28 486 -60 C 470 -92 450 -118 426 -139 C 401 -159 373 -175 342 -185 C 311 -195 280 -200 250 -200 C 201 -200 163 -195 135 -187 C 107 -178 86 -169 72 -161 L 111 -85 C 123 -91 140 -99 163 -107 C 185 -115 212 -119 243 -119 C 267 -119 290 -115 312 -108 C 334 -100 353 -89 369 -75 C 385 -60 397 -42 407 -20 C 416 2 421 27 421 56 L 421 136 C 416 121 409 106 399 90 C 389 74 377 61 363 49 C 349 37 332 27 314 19 C 296 11 276 7 254 7 Z M 279 85 C 297 85 314 88 332 96 C 349 104 364 115 378 131 C 391 147 402 167 410 192 C 418 217 422 247 422 281 C 422 341 408 386 380 418 C 352 449 319 465 280 465 C 236 465 200 447 173 413 C 146 379 133 331 133 271 C 133 211 145 165 171 133 C 197 101 233 85 279 85 Z M 274 594 L 274 594 Z M 433 594 L 349 594 L 274 705 L 197 594 L 115 594 L 230 766 L 319 766 L 433 594 Z" unicode="ĝ" />
<glyph horiz-adv-x="710" d="M 43 0 L 43 0 Z M 376 365 L 663 365 L 663 142 C 637 96 598 59 548 31 C 497 3 439 -10 374 -10 C 328 -10 284 -1 244 16 C 204 33 169 58 139 90 C 109 122 86 162 69 209 C 51 255 43 307 43 365 C 43 422 51 474 68 520 C 85 566 108 606 138 638 C 168 670 203 695 244 713 C 284 731 328 740 375 740 C 441 740 494 728 534 705 C 574 681 605 655 627 626 L 557 559 C 538 583 515 604 487 622 C 459 640 421 649 375 649 C 342 649 311 643 283 631 C 254 619 229 601 209 577 C 188 553 172 524 160 489 C 148 453 142 412 142 366 C 142 319 148 277 160 241 C 172 204 189 173 210 148 C 231 123 256 104 285 91 C 313 78 344 72 376 72 C 420 72 459 80 495 97 C 530 113 556 138 572 171 L 572 280 L 376 280 L 376 365 Z M 376 789 L 376 789 Z M 448 947 L 526 947 C 522 891 506 851 478 826 C 450 801 416 789 376 789 C 335 789 301 801 274 826 C 246 851 231 891 227 947 L 304 947 C 306 919 312 897 323 880 C 333 863 351 855 376 855 C 400 855 418 863 429 879 C 440 895 446 918 448 947 Z" unicode="Ğ" />
<glyph horiz-adv-x="578" d="M 37 0 L 37 0 Z M 254 7 C 190 7 137 31 97 81 C 57 130 37 194 37 274 C 37 357 57 424 98 474 C 139 524 192 549 256 549 C 298 549 334 537 364 515 C 394 492 415 464 426 432 L 426 540 L 510 540 L 510 54 C 510 10 502 -28 486 -60 C 470 -92 450 -118 426 -139 C 401 -159 373 -175 342 -185 C 311 -195 280 -200 250 -200 C 201 -200 163 -195 135 -187 C 107 -178 86 -169 72 -161 L 111 -85 C 123 -91 140 -99 163 -107 C 185 -115 212 -119 243 -119 C 267 -119 290 -115 312 -108 C 334 -100 353 -89 369 -75 C 385 -60 397 -42 407 -20 C 416 2 421 27 421 56 L 421 136 C 416 121 409 106 399 90 C 389 74 377 61 363 49 C 349 37 332 27 314 19 C 296 11 276 7 254 7 Z M 279 85 C 297 85 314 88 332 96 C 349 104 364 115 378 131 C 391 147 402 167 410 192 C 418 217 422 247 422 281 C 422 341 408 386 380 418 C 352 449 319 465 280 465 C 236 465 200 447 173 413 C 146 379 133 331 133 271 C 133 211 145 165 171 133 C 197 101 233 85 279 85 Z M 274 599 L 274 599 Z M 346 757 L 424 757 C 420 701 404 661 376 636 C 348 611 314 599 274 599 C 233 599 199 611 172 636 C 144 661 129 701 125 757 L 202 757 C 204 729 210 707 221 690 C 231 673 249 665 274 665 C 298 665 316 673 327 689 C 338 705 344 728 346 757 Z" unicode="ğ" />
<glyph horiz-adv-x="710" d="M 43 0 L 43 0 Z M 376 365 L 663 365 L 663 142 C 637 96 598 59 548 31 C 497 3 439 -10 374 -10 C 328 -10 284 -1 244 16 C 204 33 169 58 139 90 C 109 122 86 162 69 209 C 51 255 43 307 43 365 C 43 422 51 474 68 520 C 85 566 108 606 138 638 C 168 670 203 695 244 713 C 284 731 328 740 375 740 C 441 740 494 728 534 705 C 574 681 605 655 627 626 L 557 559 C 538 583 515 604 487 622 C 459 640 421 649 375 649 C 342 649 311 643 283 631 C 254 619 229 601 209 577 C 188 553 172 524 160 489 C 148 453 142 412 142 366 C 142 319 148 277 160 241 C 172 204 189 173 210 148 C 231 123 256 104 285 91 C 313 78 344 72 376 72 C 420 72 459 80 495 97 C 530 113 556 138 572 171 L 572 280 L 376 280 L 376 365 Z M 376 786 L 376 786 Z M 419 786 L 334 786 L 334 934 L 419 934 L 419 786 Z" unicode="Ġ" />
<glyph horiz-adv-x="578" d="M 37 0 L 37 0 Z M 254 7 C 190 7 137 31 97 81 C 57 130 37 194 37 274 C 37 357 57 424 98 474 C 139 524 192 549 256 549 C 298 549 334 537 364 515 C 394 492 415 464 426 432 L 426 540 L 510 540 L 510 54 C 510 10 502 -28 486 -60 C 470 -92 450 -118 426 -139 C 401 -159 373 -175 342 -185 C 311 -195 280 -200 250 -200 C 201 -200 163 -195 135 -187 C 107 -178 86 -169 72 -161 L 111 -85 C 123 -91 140 -99 163 -107 C 185 -115 212 -119 243 -119 C 267 -119 290 -115 312 -108 C 334 -100 353 -89 369 -75 C 385 -60 397 -42 407 -20 C 416 2 421 27 421 56 L 421 136 C 416 121 409 106 399 90 C 389 74 377 61 363 49 C 349 37 332 27 314 19 C 296 11 276 7 254 7 Z M 279 85 C 297 85 314 88 332 96 C 349 104 364 115 378 131 C 391 147 402 167 410 192 C 418 217 422 247 422 281 C 422 341 408 386 380 418 C 352 449 319 465 280 465 C 236 465 200 447 173 413 C 146 379 133 331 133 271 C 133 211 145 165 171 133 C 197 101 233 85 279 85 Z M 274 596 L 274 596 Z M 317 596 L 232 596 L 232 744 L 317 744 L 317 596 Z" unicode="ġ" />
<glyph horiz-adv-x="710" d="M 43 0 L 43 0 Z M 376 365 L 663 365 L 663 142 C 637 96 598 59 548 31 C 497 3 439 -10 374 -10 C 328 -10 284 -1 244 16 C 204 33 169 58 139 90 C 109 122 86 162 69 209 C 51 255 43 307 43 365 C 43 422 51 474 68 520 C 85 566 108 606 138 638 C 168 670 203 695 244 713 C 284 731 328 740 375 740 C 441 740 494 728 534 705 C 574 681 605 655 627 626 L 557 559 C 538 583 515 604 487 622 C 459 640 421 649 375 649 C 342 649 311 643 283 631 C 254 619 229 601 209 577 C 188 553 172 524 160 489 C 148 453 142 412 142 366 C 142 319 148 277 160 241 C 172 204 189 173 210 148 C 231 123 256 104 285 91 C 313 78 344 72 376 72 C 420 72 459 80 495 97 C 530 113 556 138 572 171 L 572 280 L 376 280 L 376 365 Z" unicode="Ģ" />
<glyph horiz-adv-x="578" d="M 37 0 L 37 0 Z M 254 7 C 190 7 137 31 97 81 C 57 130 37 194 37 274 C 37 357 57 424 98 474 C 139 524 192 549 256 549 C 298 549 334 537 364 515 C 394 492 415 464 426 432 L 426 540 L 510 540 L 510 54 C 510 10 502 -28 486 -60 C 470 -92 450 -118 426 -139 C 401 -159 373 -175 342 -185 C 311 -195 280 -200 250 -200 C 201 -200 163 -195 135 -187 C 107 -178 86 -169 72 -161 L 111 -85 C 123 -91 140 -99 163 -107 C 185 -115 212 -119 243 -119 C 267 -119 290 -115 312 -108 C 334 -100 353 -89 369 -75 C 385 -60 397 -42 407 -20 C 416 2 421 27 421 56 L 421 136 C 416 121 409 106 399 90 C 389 74 377 61 363 49 C 349 37 332 27 314 19 C 296 11 276 7 254 7 Z M 279 85 C 297 85 314 88 332 96 C 349 104 364 115 378 131 C 391 147 402 167 410 192 C 418 217 422 247 422 281 C 422 341 408 386 380 418 C 352 449 319 465 280 465 C 236 465 200 447 173 413 C 146 379 133 331 133 271 C 133 211 145 165 171 133 C 197 101 233 85 279 85 Z" unicode="ģ" />
<glyph horiz-adv-x="688" d="M 83 0 L 83 0 Z M 605 0 L 505 0 L 505 318 L 183 318 L 183 0 L 83 0 L 83 730 L 183 730 L 183 403 L 505 403 L 505 730 L 605 730 L 605 0 Z M 342 784 L 342 784 Z M 501 784 L 417 784 L 342 895 L 265 784 L 183 784 L 298 956 L 387 956 L 501 784 Z" unicode="Ĥ" />
<glyph horiz-adv-x="560" d="M 72 0 L 72 0 Z M 494 0 L 401 0 L 401 377 C 401 406 390 429 370 445 C 350 461 325 470 295 470 C 279 470 263 467 248 463 C 232 458 218 451 206 441 C 194 431 184 419 176 404 C 168 389 165 371 165 351 L 165 0 L 72 0 L 72 800 L 158 800 L 158 448 C 166 477 185 501 215 521 C 245 540 282 550 326 550 C 348 550 370 547 390 541 C 410 535 428 525 444 513 C 459 501 471 485 480 467 C 489 449 494 427 494 403 L 494 0 Z M 312 854 L 312 854 Z M 471 854 L 387 854 L 312 965 L 235 854 L 153 854 L 268 1026 L 357 1026 L 471 854 Z" unicode="ĥ" />
<glyph horiz-adv-x="688" d="M 183 318 L 183 0 L 83 0 L 83 542 L 7 542 L 7 622 L 83 622 L 83 730 L 183 730 L 183 622 L 505 622 L 505 730 L 605 730 L 605 622 L 682 622 L 682 542 L 605 542 L 605 0 L 505 0 L 505 318 L 183 318 Z M 183 403 L 505 403 L 505 542 L 183 542 L 183 403 Z" unicode="Ħ" />
<glyph horiz-adv-x="560" d="M 165 351 L 165 0 L 72 0 L 72 623 L 9 623 L 9 703 L 72 703 L 72 800 L 158 800 L 158 703 L 312 703 L 312 623 L 158 623 L 158 448 C 166 477 185 501 215 521 C 245 540 282 550 326 550 C 348 550 370 547 390 541 C 410 535 428 525 444 513 C 459 501 471 485 480 467 C 489 449 494 427 494 403 L 494 0 L 401 0 L 401 377 C 401 406 390 429 370 445 C 350 461 325 470 295 470 C 279 470 263 467 248 463 C 232 458 218 451 206 441 C 194 431 184 419 176 404 C 168 389 165 371 165 351 Z" unicode="ħ" />
<glyph horiz-adv-x="275" d="M 0 0 L 0 0 Z M 188 0 L 87 0 L 87 730 L 188 730 L 188 0 Z M 137 790 L 137 790 Z M 233 928 L 306 928 C 306 881 299 846 285 824 C 271 801 251 790 227 790 C 209 790 192 793 178 801 C 164 809 151 817 140 826 C 129 834 119 841 109 849 C 99 856 88 860 78 860 C 68 860 59 854 52 843 C 45 832 41 816 41 795 L -31 795 C -31 841 -21 875 -2 898 C 16 920 36 932 58 932 C 74 932 89 928 102 920 C 115 912 128 903 140 895 C 150 886 159 879 169 873 C 178 867 187 864 197 864 C 206 864 214 869 221 880 C 228 891 232 907 233 928 Z" unicode="Ĩ" />
<glyph horiz-adv-x="241" d="M 0 0 L 0 0 Z M 167 0 L 74 0 L 74 540 L 167 540 L 167 0 Z M 120 600 L 120 600 Z M 216 738 L 289 738 C 289 691 282 656 268 634 C 254 611 234 600 210 600 C 192 600 175 603 161 611 C 147 619 134 627 123 636 C 112 644 102 651 92 659 C 82 666 71 670 61 670 C 51 670 42 664 35 653 C 28 642 24 626 24 605 L -48 605 C -48 651 -38 685 -19 708 C 0 730 19 742 41 742 C 57 742 72 738 85 730 C 98 722 111 713 123 705 C 133 696 142 689 152 683 C 161 677 170 674 180 674 C 189 674 197 679 204 690 C 211 701 215 717 216 738 Z" unicode="ĩ" />
<glyph horiz-adv-x="275" d="M 9 0 L 9 0 Z M 188 0 L 87 0 L 87 730 L 188 730 L 188 0 Z M 137 798 L 137 798 Z M 265 798 L 9 798 L 9 877 L 265 877 L 265 798 Z" unicode="Ī" />
<glyph horiz-adv-x="241" d="M 0 0 L 0 0 Z M 167 0 L 74 0 L 74 540 L 167 540 L 167 0 Z M 120 608 L 120 608 Z M 248 608 L -8 608 L -8 687 L 248 687 L 248 608 Z" unicode="ī" />
<glyph horiz-adv-x="275" d="M 0 0 L 0 0 Z M 188 0 L 87 0 L 87 730 L 188 730 L 188 0 Z M 137 789 L 137 789 Z M 209 947 L 287 947 C 283 891 267 851 239 826 C 211 801 177 789 137 789 C 96 789 62 801 35 826 C 7 851 -8 891 -12 947 L 65 947 C 67 919 73 897 84 880 C 94 863 112 855 137 855 C 161 855 179 863 190 879 C 201 895 207 918 209 947 Z" unicode="Ĭ" />
<glyph horiz-adv-x="241" d="M 0 0 L 0 0 Z M 167 0 L 74 0 L 74 540 L 167 540 L 167 0 Z M 120 599 L 120 599 Z M 192 757 L 270 757 C 266 701 250 661 222 636 C 194 611 160 599 120 599 C 79 599 45 611 18 636 C -9 661 -25 701 -29 757 L 48 757 C 50 729 56 707 67 690 C 77 673 95 665 120 665 C 144 665 162 673 173 689 C 184 705 190 728 192 757 Z" unicode="ĭ" />
<glyph horiz-adv-x="275" d="M 0 0 L 0 0 Z M 188 0 L 87 0 L 87 730 L 188 730 L 188 0 Z M 107 -7 L 107 -7 Z M 211 -95 L 237 -133 C 217 -153 195 -169 171 -180 C 146 -191 119 -197 89 -197 C 55 -197 29 -189 10 -175 C -8 -160 -18 -141 -18 -119 C -18 -95 -8 -73 10 -52 C 29 -31 57 -13 93 2 L 147 2 C 119 -11 98 -25 83 -39 C 68 -53 61 -68 61 -83 C 61 -97 66 -108 77 -116 C 88 -124 102 -128 119 -128 C 138 -128 155 -125 171 -119 C 187 -113 200 -105 211 -95 Z" unicode="Į" />
<glyph horiz-adv-x="241" d="M 0 0 L 0 0 Z M 72 647 L 72 746 L 170 746 L 170 647 L 72 647 Z M 74 0 L 74 540 L 167 540 L 167 0 L 74 0 Z M 89 -7 L 89 -7 Z M 193 -95 L 219 -133 C 199 -153 177 -169 153 -180 C 128 -191 101 -197 71 -197 C 37 -197 11 -189 -7 -175 C -26 -160 -36 -141 -36 -119 C -36 -95 -26 -73 -7 -52 C 11 -31 39 -13 75 2 L 129 2 C 101 -11 80 -25 65 -39 C 50 -53 43 -68 43 -83 C 43 -97 48 -108 59 -116 C 70 -124 84 -128 101 -128 C 120 -128 137 -125 153 -119 C 169 -113 182 -105 193 -95 Z" unicode="į" />
<glyph horiz-adv-x="275" d="M 87 0 L 87 0 Z M 188 0 L 87 0 L 87 730 L 188 730 L 188 0 Z M 137 786 L 137 786 Z M 180 786 L 95 786 L 95 934 L 180 934 L 180 786 Z" unicode="İ" />
<glyph horiz-adv-x="241" d="M 167 0 L 74 0 L 74 540 L 167 540 L 167 0 Z" unicode="ı" />
<glyph horiz-adv-x="598" d="M 87 0 L 87 0 Z M 188 0 L 87 0 L 87 730 L 188 730 L 188 0 Z M 522 730 L 522 190 C 522 162 517 136 509 112 C 500 87 487 66 470 48 C 453 30 432 15 408 5 C 383 -5 355 -11 323 -11 C 306 -11 287 -9 267 -6 C 247 -2 231 2 220 10 L 252 89 C 257 85 265 83 276 81 C 287 79 298 78 310 78 C 346 78 373 89 393 113 C 412 136 422 164 422 197 L 422 730 L 522 730 Z" unicode="Ĳ" />
<glyph horiz-adv-x="463" d="M 72 0 L 72 0 Z M 72 647 L 72 746 L 170 746 L 170 647 L 72 647 Z M 74 0 L 74 540 L 167 540 L 167 0 L 74 0 Z M 396 647 L 299 647 L 299 746 L 396 746 L 396 647 Z M 394 540 L 394 -26 C 394 -78 380 -118 352 -146 C 324 -174 290 -189 252 -189 C 229 -189 207 -186 187 -180 C 166 -174 150 -167 138 -159 L 168 -90 C 176 -94 187 -98 199 -102 C 211 -105 225 -107 241 -107 C 257 -107 271 -98 283 -82 C 295 -66 301 -45 301 -20 L 301 540 L 394 540 Z" unicode="ĳ" />
<glyph horiz-adv-x="385" d="M 3 0 L 3 0 Z M 305 730 L 305 190 C 305 162 300 136 292 112 C 283 87 270 66 253 48 C 236 30 215 15 191 5 C 166 -5 138 -11 106 -11 C 89 -11 70 -9 50 -6 C 30 -2 14 2 3 10 L 35 89 C 40 85 48 83 59 81 C 70 79 81 78 93 78 C 129 78 156 89 176 113 C 195 136 205 164 205 197 L 205 730 L 305 730 Z M 253 784 L 253 784 Z M 412 784 L 328 784 L 253 895 L 176 784 L 94 784 L 209 956 L 298 956 L 412 784 Z" unicode="Ĵ" />
<glyph horiz-adv-x="272" d="M 0 0 L 0 0 Z M 203 540 L 203 -26 C 203 -79 188 -120 160 -149 C 131 -177 97 -192 58 -192 C 35 -192 13 -189 -6 -184 C -26 -178 -43 -171 -56 -163 L -26 -93 C -17 -97 -6 -101 5 -105 C 17 -109 31 -111 47 -111 C 63 -111 78 -102 91 -85 C 103 -68 110 -46 110 -20 L 110 540 L 203 540 Z M 153 594 L 153 594 Z M 312 594 L 228 594 L 153 705 L 76 594 L -6 594 L 109 766 L 198 766 L 312 594 Z" unicode="ĵ" />
<glyph horiz-adv-x="615" d="M 83 0 L 83 0 Z M 607 0 L 489 0 L 265 330 L 183 229 L 183 0 L 83 0 L 83 730 L 183 730 L 183 352 L 467 730 L 574 730 L 331 408 L 607 0 Z M 305 -76 L 305 -76 Z M 397 -76 C 395 -102 390 -129 383 -156 C 375 -182 366 -207 356 -230 C 346 -253 334 -274 322 -294 C 309 -313 296 -329 284 -341 L 214 -309 C 222 -300 230 -287 239 -270 C 248 -253 257 -234 265 -213 C 273 -192 280 -170 286 -146 C 292 -122 297 -99 300 -76 L 397 -76 Z" unicode="Ķ" />
<glyph horiz-adv-x="510" d="M 72 0 L 72 0 Z M 527 2 L 423 -1 L 251 243 L 165 145 L 165 0 L 72 0 L 72 800 L 163 800 L 163 249 L 391 540 L 490 540 L 313 313 L 527 2 Z M 260 -76 L 260 -76 Z M 352 -76 C 350 -102 345 -129 338 -156 C 330 -182 321 -207 311 -230 C 301 -253 289 -274 277 -294 C 264 -313 251 -329 239 -341 L 169 -309 C 177 -300 185 -287 194 -270 C 203 -253 212 -234 220 -213 C 228 -192 235 -170 241 -146 C 247 -122 252 -99 255 -76 L 352 -76 Z" unicode="ķ" />
<glyph horiz-adv-x="510" d="M 527 2 L 423 -1 L 251 243 L 165 145 L 165 0 L 72 0 L 72 540 L 163 540 L 163 249 L 391 540 L 490 540 L 313 313 L 527 2 Z" unicode="ĸ" />
<glyph horiz-adv-x="475" d="M 83 0 L 83 0 Z M 465 0 L 83 0 L 83 730 L 183 730 L 183 87 L 465 87 L 465 0 Z M 316 789 L 316 789 Z M 213 789 L 312 955 L 420 955 L 305 789 L 213 789 Z" unicode="Ĺ" />
<glyph horiz-adv-x="273" d="M 67 0 L 67 0 Z M 67 117 L 67 800 L 160 800 L 160 143 C 160 122 165 106 175 95 C 185 83 200 78 220 78 C 227 78 235 78 243 79 C 251 80 257 81 261 83 L 267 4 C 260 1 250 -1 238 -3 C 225 -5 212 -6 199 -6 C 164 -6 133 4 107 24 C 80 44 67 75 67 117 Z M 178 859 L 178 859 Z M 75 859 L 174 1025 L 282 1025 L 167 859 L 75 859 Z" unicode="ĺ" />
<glyph horiz-adv-x="475" d="M 83 0 L 83 0 Z M 465 0 L 83 0 L 83 730 L 183 730 L 183 87 L 465 87 L 465 0 Z M 257 -76 L 257 -76 Z M 349 -76 C 347 -102 342 -129 335 -156 C 327 -182 318 -207 308 -230 C 298 -253 286 -274 274 -294 C 261 -313 248 -329 236 -341 L 166 -309 C 174 -300 182 -287 191 -270 C 200 -253 209 -234 217 -213 C 225 -192 232 -170 238 -146 C 244 -122 249 -99 252 -76 L 349 -76 Z" unicode="Ļ" />
<glyph horiz-adv-x="273" d="M 37 0 L 37 0 Z M 67 117 L 67 800 L 160 800 L 160 143 C 160 122 165 106 175 95 C 185 83 200 78 220 78 C 227 78 235 78 243 79 C 251 80 257 81 261 83 L 267 4 C 260 1 250 -1 238 -3 C 225 -5 212 -6 199 -6 C 164 -6 133 4 107 24 C 80 44 67 75 67 117 Z M 128 -76 L 128 -76 Z M 220 -76 C 218 -102 213 -129 206 -156 C 198 -182 189 -207 179 -230 C 169 -253 157 -274 145 -294 C 132 -313 119 -329 107 -341 L 37 -309 C 45 -300 53 -287 62 -270 C 71 -253 80 -234 88 -213 C 96 -192 103 -170 109 -146 C 115 -122 120 -99 123 -76 L 220 -76 Z" unicode="ļ" />
<glyph horiz-adv-x="475" d="M 83 0 L 83 0 Z M 465 0 L 83 0 L 83 730 L 183 730 L 183 87 L 465 87 L 465 0 Z M 496 608 L 492 463 L 414 463 L 409 608 L 409 730 L 496 730 L 496 608 Z" unicode="Ľ" />
<glyph horiz-adv-x="273" d="M 67 0 L 67 0 Z M 67 117 L 67 800 L 160 800 L 160 143 C 160 122 165 106 175 95 C 185 83 200 78 220 78 C 227 78 235 78 243 79 C 251 80 257 81 261 83 L 267 4 C 260 1 250 -1 238 -3 C 225 -5 212 -6 199 -6 C 164 -6 133 4 107 24 C 80 44 67 75 67 117 Z M 302 608 L 298 463 L 220 463 L 215 608 L 215 730 L 302 730 L 302 608 Z" unicode="ľ" />
<glyph horiz-adv-x="475" d="M 83 0 L 83 0 Z M 465 0 L 83 0 L 83 730 L 183 730 L 183 87 L 465 87 L 465 0 Z M 328 287 L 328 287 Z M 371 287 L 286 287 L 286 435 L 371 435 L 371 287 Z" unicode="Ŀ" />
<glyph horiz-adv-x="273" d="M 67 0 L 67 0 Z M 67 117 L 67 800 L 160 800 L 160 143 C 160 122 165 106 175 95 C 185 83 200 78 220 78 C 227 78 235 78 243 79 C 251 80 257 81 261 83 L 267 4 C 260 1 250 -1 238 -3 C 225 -5 212 -6 199 -6 C 164 -6 133 4 107 24 C 80 44 67 75 67 117 Z M 260 237 L 260 237 Z M 303 237 L 218 237 L 218 385 L 303 385 L 303 237 Z" unicode="ŀ" />
<glyph horiz-adv-x="475" d="M 445 82 L 445 0 L 83 0 L 83 266 L 31 244 L -3 315 L 83 351 L 83 730 L 183 730 L 183 393 L 351 463 L 383 392 L 183 308 L 183 82 L 445 82 Z" unicode="Ł" />
<glyph horiz-adv-x="273" d="M 270 4 C 264 1 254 -1 241 -3 C 228 -5 215 -6 203 -6 C 169 -6 138 4 112 24 C 86 44 73 75 73 117 L 73 271 L 21 246 L -4 307 L 73 344 L 73 800 L 165 800 L 165 388 L 245 426 L 272 365 L 165 314 L 165 144 C 165 123 170 107 180 95 C 190 83 205 78 224 78 C 230 78 237 78 245 79 C 253 80 259 81 264 83 L 270 4 Z" unicode="ł" />
<glyph horiz-adv-x="705" d="M 83 0 L 83 0 Z M 622 0 L 550 0 L 177 536 L 177 0 L 83 0 L 83 730 L 158 730 L 531 195 L 531 730 L 622 730 L 622 0 Z M 353 789 L 353 789 Z M 250 789 L 349 955 L 457 955 L 342 789 L 250 789 Z" unicode="Ń" />
<glyph horiz-adv-x="560" d="M 72 0 L 72 0 Z M 494 0 L 401 0 L 401 380 C 401 408 390 430 370 446 C 349 462 324 470 296 470 C 281 470 266 467 250 463 C 234 458 220 451 208 441 C 195 431 185 419 177 404 C 169 388 165 370 165 350 L 165 0 L 72 0 L 72 540 L 152 540 L 152 438 C 162 470 183 497 215 518 C 246 539 284 550 328 550 C 350 550 372 546 392 540 C 412 534 429 525 444 513 C 459 501 471 486 480 468 C 489 450 494 431 494 409 L 494 0 Z M 293 599 L 293 599 Z M 190 599 L 289 765 L 397 765 L 282 599 L 190 599 Z" unicode="ń" />
<glyph horiz-adv-x="705" d="M 83 0 L 83 0 Z M 622 0 L 550 0 L 177 536 L 177 0 L 83 0 L 83 730 L 158 730 L 531 195 L 531 730 L 622 730 L 622 0 Z M 333 -76 L 333 -76 Z M 425 -76 C 423 -102 418 -129 411 -156 C 403 -182 394 -207 384 -230 C 374 -253 362 -274 350 -294 C 337 -313 324 -329 312 -341 L 242 -309 C 250 -300 258 -287 267 -270 C 276 -253 285 -234 293 -213 C 301 -192 308 -170 314 -146 C 320 -122 325 -99 328 -76 L 425 -76 Z" unicode="Ņ" />
<glyph horiz-adv-x="560" d="M 72 0 L 72 0 Z M 494 0 L 401 0 L 401 380 C 401 408 390 430 370 446 C 349 462 324 470 296 470 C 281 470 266 467 250 463 C 234 458 220 451 208 441 C 195 431 185 419 177 404 C 169 388 165 370 165 350 L 165 0 L 72 0 L 72 540 L 152 540 L 152 438 C 162 470 183 497 215 518 C 246 539 284 550 328 550 C 350 550 372 546 392 540 C 412 534 429 525 444 513 C 459 501 471 486 480 468 C 489 450 494 431 494 409 L 494 0 Z M 260 -76 L 260 -76 Z M 352 -76 C 350 -102 345 -129 338 -156 C 330 -182 321 -207 311 -230 C 301 -253 289 -274 277 -294 C 264 -313 251 -329 239 -341 L 169 -309 C 177 -300 185 -287 194 -270 C 203 -253 212 -234 220 -213 C 228 -192 235 -170 241 -146 C 247 -122 252 -99 255 -76 L 352 -76 Z" unicode="ņ" />
<glyph horiz-adv-x="705" d="M 83 0 L 83 0 Z M 622 0 L 550 0 L 177 536 L 177 0 L 83 0 L 83 730 L 158 730 L 531 195 L 531 730 L 622 730 L 622 0 Z M 353 784 L 353 784 Z M 194 956 L 278 956 L 354 845 L 430 956 L 512 956 L 398 784 L 309 784 L 194 956 Z" unicode="Ň" />
<glyph horiz-adv-x="560" d="M 72 0 L 72 0 Z M 494 0 L 401 0 L 401 380 C 401 408 390 430 370 446 C 349 462 324 470 296 470 C 281 470 266 467 250 463 C 234 458 220 451 208 441 C 195 431 185 419 177 404 C 169 388 165 370 165 350 L 165 0 L 72 0 L 72 540 L 152 540 L 152 438 C 162 470 183 497 215 518 C 246 539 284 550 328 550 C 350 550 372 546 392 540 C 412 534 429 525 444 513 C 459 501 471 486 480 468 C 489 450 494 431 494 409 L 494 0 Z M 293 594 L 293 594 Z M 134 766 L 218 766 L 294 655 L 370 766 L 452 766 L 338 594 L 249 594 L 134 766 Z" unicode="ň" />
<glyph horiz-adv-x="705" d="M 531 730 L 622 730 L 622 0 C 622 -62 606 -110 574 -146 C 542 -182 500 -200 450 -200 C 428 -200 407 -197 385 -193 C 363 -188 344 -181 330 -173 L 357 -95 C 366 -100 378 -104 392 -108 C 406 -112 422 -114 440 -114 C 466 -114 488 -102 505 -78 C 522 -54 531 -25 531 9 L 531 27 L 177 536 L 177 0 L 83 0 L 83 730 L 158 730 L 531 195 L 531 730 Z" unicode="Ŋ" />
<glyph horiz-adv-x="560" d="M 328 550 C 350 550 372 546 392 540 C 412 534 429 525 444 513 C 459 501 471 486 480 468 C 489 450 494 431 494 409 L 494 -11 C 494 -71 478 -117 448 -150 C 417 -183 379 -200 334 -200 C 314 -200 293 -197 272 -193 C 251 -189 234 -182 221 -174 L 247 -97 C 256 -101 267 -105 280 -109 C 293 -113 308 -115 324 -115 C 345 -115 363 -104 378 -83 C 393 -61 401 -34 401 -2 L 401 380 C 401 408 390 430 370 446 C 349 462 324 470 296 470 C 281 470 266 467 250 463 C 234 458 220 451 208 441 C 195 431 185 419 177 404 C 169 388 165 370 165 350 L 165 0 L 72 0 L 72 540 L 152 540 L 152 438 C 162 470 183 497 215 518 C 246 539 284 550 328 550 Z" unicode="ŋ" />
<glyph horiz-adv-x="752" d="M 43 0 L 43 0 Z M 379 -10 C 329 -10 283 0 242 17 C 200 35 165 61 136 95 C 106 128 83 168 67 215 C 51 261 43 313 43 370 C 43 424 51 474 68 520 C 84 566 107 605 136 637 C 165 669 200 695 240 713 C 280 731 324 740 372 740 C 422 740 468 731 510 713 C 552 695 587 669 617 637 C 646 605 669 566 685 520 C 701 474 709 423 709 367 C 709 310 700 258 683 212 C 665 166 642 126 613 93 C 583 60 548 35 508 17 C 468 -1 425 -10 379 -10 Z M 383 73 C 415 73 445 79 473 92 C 501 105 525 124 545 149 C 565 173 580 204 592 241 C 603 277 609 319 609 367 C 609 411 603 450 591 486 C 579 521 562 551 541 576 C 519 601 494 620 464 634 C 434 647 402 654 368 654 C 302 654 248 629 206 580 C 164 530 143 460 143 369 C 143 321 149 279 162 243 C 174 206 191 175 213 150 C 234 125 259 106 289 93 C 318 79 349 73 383 73 Z M 372 798 L 372 798 Z M 500 798 L 244 798 L 244 877 L 500 877 L 500 798 Z" unicode="Ō" />
<glyph horiz-adv-x="568" d="M 36 0 L 36 0 Z M 281 -9 C 248 -9 217 -2 187 9 C 157 21 131 39 109 63 C 87 86 69 115 56 150 C 42 184 36 224 36 268 C 36 309 42 347 55 382 C 67 416 85 446 107 471 C 129 495 155 515 185 529 C 215 543 247 550 281 550 C 317 550 350 543 381 531 C 411 519 438 501 460 478 C 482 454 500 426 513 393 C 525 360 532 323 532 283 C 532 239 525 200 513 164 C 500 128 482 97 460 72 C 438 46 411 26 380 12 C 349 -1 316 -9 281 -9 Z M 285 73 C 330 73 366 91 394 128 C 422 164 436 214 436 276 C 436 335 421 382 393 416 C 365 450 327 467 280 467 C 236 467 200 449 173 414 C 145 378 132 330 132 269 C 132 204 146 155 176 122 C 205 89 241 73 285 73 Z M 282 608 L 282 608 Z M 410 608 L 154 608 L 154 687 L 410 687 L 410 608 Z" unicode="ō" />
<glyph horiz-adv-x="752" d="M 43 0 L 43 0 Z M 379 -10 C 329 -10 283 0 242 17 C 200 35 165 61 136 95 C 106 128 83 168 67 215 C 51 261 43 313 43 370 C 43 424 51 474 68 520 C 84 566 107 605 136 637 C 165 669 200 695 240 713 C 280 731 324 740 372 740 C 422 740 468 731 510 713 C 552 695 587 669 617 637 C 646 605 669 566 685 520 C 701 474 709 423 709 367 C 709 310 700 258 683 212 C 665 166 642 126 613 93 C 583 60 548 35 508 17 C 468 -1 425 -10 379 -10 Z M 383 73 C 415 73 445 79 473 92 C 501 105 525 124 545 149 C 565 173 580 204 592 241 C 603 277 609 319 609 367 C 609 411 603 450 591 486 C 579 521 562 551 541 576 C 519 601 494 620 464 634 C 434 647 402 654 368 654 C 302 654 248 629 206 580 C 164 530 143 460 143 369 C 143 321 149 279 162 243 C 174 206 191 175 213 150 C 234 125 259 106 289 93 C 318 79 349 73 383 73 Z M 372 789 L 372 789 Z M 444 947 L 522 947 C 518 891 502 851 474 826 C 446 801 412 789 372 789 C 331 789 297 801 270 826 C 242 851 227 891 223 947 L 300 947 C 302 919 308 897 319 880 C 329 863 347 855 372 855 C 396 855 414 863 425 879 C 436 895 442 918 444 947 Z" unicode="Ŏ" />
<glyph horiz-adv-x="568" d="M 36 0 L 36 0 Z M 281 -9 C 248 -9 217 -2 187 9 C 157 21 131 39 109 63 C 87 86 69 115 56 150 C 42 184 36 224 36 268 C 36 309 42 347 55 382 C 67 416 85 446 107 471 C 129 495 155 515 185 529 C 215 543 247 550 281 550 C 317 550 350 543 381 531 C 411 519 438 501 460 478 C 482 454 500 426 513 393 C 525 360 532 323 532 283 C 532 239 525 200 513 164 C 500 128 482 97 460 72 C 438 46 411 26 380 12 C 349 -1 316 -9 281 -9 Z M 285 73 C 330 73 366 91 394 128 C 422 164 436 214 436 276 C 436 335 421 382 393 416 C 365 450 327 467 280 467 C 236 467 200 449 173 414 C 145 378 132 330 132 269 C 132 204 146 155 176 122 C 205 89 241 73 285 73 Z M 282 599 L 282 599 Z M 354 757 L 432 757 C 428 701 412 661 384 636 C 356 611 322 599 282 599 C 241 599 207 611 180 636 C 152 661 137 701 133 757 L 210 757 C 212 729 218 707 229 690 C 239 673 257 665 282 665 C 306 665 324 673 335 689 C 346 705 352 728 354 757 Z" unicode="ŏ" />
<glyph horiz-adv-x="752" d="M 43 0 L 43 0 Z M 379 -10 C 329 -10 283 0 242 17 C 200 35 165 61 136 95 C 106 128 83 168 67 215 C 51 261 43 313 43 370 C 43 424 51 474 68 520 C 84 566 107 605 136 637 C 165 669 200 695 240 713 C 280 731 324 740 372 740 C 422 740 468 731 510 713 C 552 695 587 669 617 637 C 646 605 669 566 685 520 C 701 474 709 423 709 367 C 709 310 700 258 683 212 C 665 166 642 126 613 93 C 583 60 548 35 508 17 C 468 -1 425 -10 379 -10 Z M 383 73 C 415 73 445 79 473 92 C 501 105 525 124 545 149 C 565 173 580 204 592 241 C 603 277 609 319 609 367 C 609 411 603 450 591 486 C 579 521 562 551 541 576 C 519 601 494 620 464 634 C 434 647 402 654 368 654 C 302 654 248 629 206 580 C 164 530 143 460 143 369 C 143 321 149 279 162 243 C 174 206 191 175 213 150 C 234 125 259 106 289 93 C 318 79 349 73 383 73 Z M 372 783 L 372 783 Z M 191 783 L 275 937 L 373 937 L 273 783 L 191 783 Z M 371 783 L 456 937 L 555 937 L 453 783 L 371 783 Z" unicode="Ő" />
<glyph horiz-adv-x="568" d="M 36 0 L 36 0 Z M 281 -9 C 248 -9 217 -2 187 9 C 157 21 131 39 109 63 C 87 86 69 115 56 150 C 42 184 36 224 36 268 C 36 309 42 347 55 382 C 67 416 85 446 107 471 C 129 495 155 515 185 529 C 215 543 247 550 281 550 C 317 550 350 543 381 531 C 411 519 438 501 460 478 C 482 454 500 426 513 393 C 525 360 532 323 532 283 C 532 239 525 200 513 164 C 500 128 482 97 460 72 C 438 46 411 26 380 12 C 349 -1 316 -9 281 -9 Z M 285 73 C 330 73 366 91 394 128 C 422 164 436 214 436 276 C 436 335 421 382 393 416 C 365 450 327 467 280 467 C 236 467 200 449 173 414 C 145 378 132 330 132 269 C 132 204 146 155 176 122 C 205 89 241 73 285 73 Z M 282 593 L 282 593 Z M 101 593 L 185 747 L 283 747 L 183 593 L 101 593 Z M 281 593 L 366 747 L 465 747 L 363 593 L 281 593 Z" unicode="ő" />
<glyph horiz-adv-x="1039" d="M 362 -10 C 314 -10 271 -1 232 17 C 192 35 159 60 131 93 C 103 126 81 166 66 213 C 50 260 43 312 43 369 C 43 423 51 472 67 518 C 83 564 106 603 135 636 C 163 668 197 694 237 712 C 276 730 318 740 364 740 C 390 740 415 736 440 728 C 465 720 488 709 509 695 C 530 681 549 665 565 646 C 581 627 592 607 600 585 L 600 730 L 977 730 L 977 643 L 693 643 L 693 407 L 965 407 L 965 323 L 693 323 L 693 87 L 997 87 L 997 0 L 600 0 L 600 158 C 592 135 581 113 567 93 C 553 72 536 54 516 39 C 496 24 473 12 447 3 C 421 -5 392 -10 362 -10 Z M 374 70 C 406 70 436 76 464 89 C 492 101 516 120 536 145 C 556 170 571 201 583 239 C 595 276 601 319 601 369 C 601 417 594 459 580 495 C 566 531 549 560 527 584 C 505 608 481 626 453 638 C 425 650 398 656 371 656 C 305 656 250 630 208 580 C 166 530 145 458 145 365 C 145 317 150 274 162 237 C 174 200 190 169 211 145 C 231 120 256 101 284 89 C 312 76 342 70 374 70 Z" unicode="Œ" />
<glyph horiz-adv-x="946" d="M 281 -9 C 248 -9 217 -2 187 9 C 157 21 131 39 109 63 C 87 86 69 115 56 150 C 42 184 36 224 36 268 C 36 308 42 345 55 380 C 67 414 85 444 107 469 C 129 494 155 514 185 528 C 215 542 247 550 281 550 C 310 550 336 545 360 536 C 383 527 403 515 419 501 C 435 487 448 471 458 454 C 468 436 475 420 479 404 C 481 419 487 435 498 452 C 509 469 523 485 541 499 C 558 513 578 525 602 535 C 625 544 650 549 677 549 C 748 549 805 522 847 468 C 889 414 911 340 912 244 L 526 244 C 526 194 540 154 570 122 C 600 90 638 74 684 74 C 722 74 753 81 777 95 C 801 109 821 126 837 145 L 890 85 C 868 59 841 37 809 19 C 776 0 734 -9 683 -9 C 655 -9 630 -4 606 3 C 582 11 562 22 544 36 C 526 50 511 65 499 82 C 487 99 480 116 477 133 C 473 117 466 100 456 84 C 445 67 431 52 415 38 C 398 24 378 12 356 4 C 333 -4 308 -9 281 -9 Z M 526 310 L 818 310 C 817 358 803 396 776 426 C 749 455 715 470 674 470 C 632 470 597 454 570 424 C 543 394 528 356 526 310 Z M 285 73 C 330 73 366 90 394 126 C 422 162 436 212 436 276 C 436 335 421 381 393 415 C 365 449 327 466 280 466 C 236 466 200 448 173 413 C 145 378 132 330 132 269 C 132 204 146 155 176 122 C 205 89 241 73 285 73 Z" unicode="œ" />
<glyph horiz-adv-x="565" d="M 83 0 L 83 0 Z M 83 0 L 83 730 L 286 730 C 344 730 393 712 432 678 C 471 644 491 595 491 533 C 491 503 486 477 478 453 C 470 429 459 408 445 392 C 431 375 415 361 397 351 C 378 341 359 334 339 332 L 337 328 L 547 0 L 434 0 L 244 307 L 180 307 L 180 0 L 83 0 Z M 179 389 L 263 389 C 300 389 331 400 356 423 C 380 445 393 478 393 522 C 393 563 381 594 358 616 C 335 638 306 649 270 649 L 179 649 L 179 389 Z M 277 789 L 277 789 Z M 174 789 L 273 955 L 381 955 L 266 789 L 174 789 Z" unicode="Ŕ" />
<glyph horiz-adv-x="414" d="M 72 0 L 72 0 Z M 418 520 L 375 437 C 365 446 354 453 340 458 C 326 463 311 466 293 466 C 277 466 262 463 247 457 C 231 451 218 442 206 430 C 194 418 184 404 176 387 C 168 369 165 350 165 328 L 165 0 L 72 0 L 72 540 L 158 540 L 158 430 C 165 460 183 488 213 513 C 242 537 278 550 320 550 C 342 550 362 547 379 541 C 395 535 408 528 418 520 Z M 252 599 L 252 599 Z M 149 599 L 248 765 L 356 765 L 241 599 L 149 599 Z" unicode="ŕ" />
<glyph horiz-adv-x="565" d="M 83 0 L 83 0 Z M 83 0 L 83 730 L 286 730 C 344 730 393 712 432 678 C 471 644 491 595 491 533 C 491 503 486 477 478 453 C 470 429 459 408 445 392 C 431 375 415 361 397 351 C 378 341 359 334 339 332 L 337 328 L 547 0 L 434 0 L 244 307 L 180 307 L 180 0 L 83 0 Z M 179 389 L 263 389 C 300 389 331 400 356 423 C 380 445 393 478 393 522 C 393 563 381 594 358 616 C 335 638 306 649 270 649 L 179 649 L 179 389 Z M 269 -76 L 269 -76 Z M 361 -76 C 359 -102 354 -129 347 -156 C 339 -182 330 -207 320 -230 C 310 -253 298 -274 286 -294 C 273 -313 260 -329 248 -341 L 178 -309 C 186 -300 194 -287 203 -270 C 212 -253 221 -234 229 -213 C 237 -192 244 -170 250 -146 C 256 -122 261 -99 264 -76 L 361 -76 Z" unicode="Ŗ" />
<glyph horiz-adv-x="414" d="M 72 0 L 72 0 Z M 418 520 L 375 437 C 365 446 354 453 340 458 C 326 463 311 466 293 466 C 277 466 262 463 247 457 C 231 451 218 442 206 430 C 194 418 184 404 176 387 C 168 369 165 350 165 328 L 165 0 L 72 0 L 72 540 L 158 540 L 158 430 C 165 460 183 488 213 513 C 242 537 278 550 320 550 C 342 550 362 547 379 541 C 395 535 408 528 418 520 Z M 227 -76 L 227 -76 Z M 319 -76 C 317 -102 312 -129 305 -156 C 297 -182 288 -207 278 -230 C 268 -253 256 -274 244 -294 C 231 -313 218 -329 206 -341 L 136 -309 C 144 -300 152 -287 161 -270 C 170 -253 179 -234 187 -213 C 195 -192 202 -170 208 -146 C 214 -122 219 -99 222 -76 L 319 -76 Z" unicode="ŗ" />
<glyph horiz-adv-x="565" d="M 83 0 L 83 0 Z M 83 0 L 83 730 L 286 730 C 344 730 393 712 432 678 C 471 644 491 595 491 533 C 491 503 486 477 478 453 C 470 429 459 408 445 392 C 431 375 415 361 397 351 C 378 341 359 334 339 332 L 337 328 L 547 0 L 434 0 L 244 307 L 180 307 L 180 0 L 83 0 Z M 179 389 L 263 389 C 300 389 331 400 356 423 C 380 445 393 478 393 522 C 393 563 381 594 358 616 C 335 638 306 649 270 649 L 179 649 L 179 389 Z M 277 784 L 277 784 Z M 118 956 L 202 956 L 278 845 L 354 956 L 436 956 L 322 784 L 233 784 L 118 956 Z" unicode="Ř" />
<glyph horiz-adv-x="414" d="M 72 0 L 72 0 Z M 418 520 L 375 437 C 365 446 354 453 340 458 C 326 463 311 466 293 466 C 277 466 262 463 247 457 C 231 451 218 442 206 430 C 194 418 184 404 176 387 C 168 369 165 350 165 328 L 165 0 L 72 0 L 72 540 L 158 540 L 158 430 C 165 460 183 488 213 513 C 242 537 278 550 320 550 C 342 550 362 547 379 541 C 395 535 408 528 418 520 Z M 252 594 L 252 594 Z M 93 766 L 177 766 L 253 655 L 329 766 L 411 766 L 297 594 L 208 594 L 93 766 Z" unicode="ř" />
<glyph horiz-adv-x="538" d="M 35 0 L 35 0 Z M 272 -10 C 218 -10 172 -2 133 13 C 94 28 61 50 35 79 L 100 151 C 118 126 143 106 175 92 C 206 78 239 71 273 71 C 305 71 334 80 359 100 C 383 119 396 144 396 176 C 396 208 385 235 364 257 C 343 279 305 303 251 329 C 215 345 185 360 161 375 C 136 390 116 406 101 424 C 85 441 74 461 67 483 C 60 505 57 530 57 559 C 57 614 76 658 115 691 C 154 723 204 740 266 740 C 314 740 354 732 387 717 C 419 701 446 684 468 664 L 410 589 C 389 607 366 622 341 634 C 315 645 289 651 261 651 C 229 651 203 642 182 626 C 161 609 151 586 151 557 C 151 525 162 499 185 479 C 208 459 248 435 306 409 C 375 377 423 345 450 312 C 477 278 491 236 491 184 C 491 153 485 126 473 102 C 461 78 445 57 425 41 C 405 24 381 11 355 3 C 329 -5 301 -10 272 -10 Z M 265 789 L 265 789 Z M 162 789 L 261 955 L 369 955 L 254 789 L 162 789 Z" unicode="Ś" />
<glyph horiz-adv-x="440" d="M 32 0 L 32 0 Z M 236 -9 C 191 -9 151 -2 117 10 C 82 23 54 40 32 62 L 76 126 C 95 108 118 94 146 84 C 173 73 200 68 228 68 C 252 68 274 75 292 89 C 310 103 319 121 319 144 C 319 164 310 182 292 197 C 274 212 242 228 197 245 C 145 263 108 286 86 313 C 64 339 53 372 53 410 C 53 451 69 485 102 511 C 135 537 176 550 224 550 C 268 550 304 544 332 532 C 360 520 381 508 397 496 L 363 424 C 345 436 325 447 303 457 C 281 467 258 473 232 473 C 208 473 187 467 169 455 C 151 443 142 428 142 409 C 142 389 149 372 163 360 C 177 348 208 333 256 315 C 310 294 348 271 372 245 C 396 219 408 185 408 145 C 408 120 403 98 393 79 C 383 59 371 43 355 30 C 339 17 321 7 301 1 C 280 -5 258 -9 236 -9 Z M 226 599 L 226 599 Z M 123 599 L 222 765 L 330 765 L 215 599 L 123 599 Z" unicode="ś" />
<glyph horiz-adv-x="538" d="M 35 0 L 35 0 Z M 272 -10 C 218 -10 172 -2 133 13 C 94 28 61 50 35 79 L 100 151 C 118 126 143 106 175 92 C 206 78 239 71 273 71 C 305 71 334 80 359 100 C 383 119 396 144 396 176 C 396 208 385 235 364 257 C 343 279 305 303 251 329 C 215 345 185 360 161 375 C 136 390 116 406 101 424 C 85 441 74 461 67 483 C 60 505 57 530 57 559 C 57 614 76 658 115 691 C 154 723 204 740 266 740 C 314 740 354 732 387 717 C 419 701 446 684 468 664 L 410 589 C 389 607 366 622 341 634 C 315 645 289 651 261 651 C 229 651 203 642 182 626 C 161 609 151 586 151 557 C 151 525 162 499 185 479 C 208 459 248 435 306 409 C 375 377 423 345 450 312 C 477 278 491 236 491 184 C 491 153 485 126 473 102 C 461 78 445 57 425 41 C 405 24 381 11 355 3 C 329 -5 301 -10 272 -10 Z M 265 784 L 265 784 Z M 424 784 L 340 784 L 265 895 L 188 784 L 106 784 L 221 956 L 310 956 L 424 784 Z" unicode="Ŝ" />
<glyph horiz-adv-x="440" d="M 32 0 L 32 0 Z M 236 -9 C 191 -9 151 -2 117 10 C 82 23 54 40 32 62 L 76 126 C 95 108 118 94 146 84 C 173 73 200 68 228 68 C 252 68 274 75 292 89 C 310 103 319 121 319 144 C 319 164 310 182 292 197 C 274 212 242 228 197 245 C 145 263 108 286 86 313 C 64 339 53 372 53 410 C 53 451 69 485 102 511 C 135 537 176 550 224 550 C 268 550 304 544 332 532 C 360 520 381 508 397 496 L 363 424 C 345 436 325 447 303 457 C 281 467 258 473 232 473 C 208 473 187 467 169 455 C 151 443 142 428 142 409 C 142 389 149 372 163 360 C 177 348 208 333 256 315 C 310 294 348 271 372 245 C 396 219 408 185 408 145 C 408 120 403 98 393 79 C 383 59 371 43 355 30 C 339 17 321 7 301 1 C 280 -5 258 -9 236 -9 Z M 226 594 L 226 594 Z M 385 594 L 301 594 L 226 705 L 149 594 L 67 594 L 182 766 L 271 766 L 385 594 Z" unicode="ŝ" />
<glyph horiz-adv-x="538" d="M 35 0 L 35 0 Z M 272 -10 C 218 -10 172 -2 133 13 C 94 28 61 50 35 79 L 100 151 C 118 126 143 106 175 92 C 206 78 239 71 273 71 C 305 71 334 80 359 100 C 383 119 396 144 396 176 C 396 208 385 235 364 257 C 343 279 305 303 251 329 C 215 345 185 360 161 375 C 136 390 116 406 101 424 C 85 441 74 461 67 483 C 60 505 57 530 57 559 C 57 614 76 658 115 691 C 154 723 204 740 266 740 C 314 740 354 732 387 717 C 419 701 446 684 468 664 L 410 589 C 389 607 366 622 341 634 C 315 645 289 651 261 651 C 229 651 203 642 182 626 C 161 609 151 586 151 557 C 151 525 162 499 185 479 C 208 459 248 435 306 409 C 375 377 423 345 450 312 C 477 278 491 236 491 184 C 491 153 485 126 473 102 C 461 78 445 57 425 41 C 405 24 381 11 355 3 C 329 -5 301 -10 272 -10 Z M 259 -6 L 259 -6 Z M 266 -192 C 243 -192 220 -189 197 -183 C 174 -177 156 -169 143 -159 L 160 -120 C 168 -125 180 -130 195 -136 C 209 -141 225 -144 243 -144 C 257 -144 269 -140 279 -134 C 289 -128 295 -119 295 -109 C 295 -96 290 -87 280 -82 C 270 -76 260 -74 250 -74 C 242 -74 236 -74 230 -76 C 224 -77 218 -79 212 -81 L 200 -66 L 258 7 L 310 7 L 263 -54 C 295 -48 321 -51 343 -63 C 364 -75 375 -93 375 -117 C 375 -141 364 -160 342 -173 C 320 -185 295 -192 266 -192 Z" unicode="Ş" />
<glyph horiz-adv-x="440" d="M 32 0 L 32 0 Z M 236 -9 C 191 -9 151 -2 117 10 C 82 23 54 40 32 62 L 76 126 C 95 108 118 94 146 84 C 173 73 200 68 228 68 C 252 68 274 75 292 89 C 310 103 319 121 319 144 C 319 164 310 182 292 197 C 274 212 242 228 197 245 C 145 263 108 286 86 313 C 64 339 53 372 53 410 C 53 451 69 485 102 511 C 135 537 176 550 224 550 C 268 550 304 544 332 532 C 360 520 381 508 397 496 L 363 424 C 345 436 325 447 303 457 C 281 467 258 473 232 473 C 208 473 187 467 169 455 C 151 443 142 428 142 409 C 142 389 149 372 163 360 C 177 348 208 333 256 315 C 310 294 348 271 372 245 C 396 219 408 185 408 145 C 408 120 403 98 393 79 C 383 59 371 43 355 30 C 339 17 321 7 301 1 C 280 -5 258 -9 236 -9 Z M 215 -1 L 215 -1 Z M 222 -187 C 199 -187 176 -184 153 -178 C 130 -172 112 -164 99 -154 L 116 -115 C 124 -120 136 -125 151 -131 C 165 -136 181 -139 199 -139 C 213 -139 225 -135 235 -129 C 245 -123 251 -114 251 -104 C 251 -91 246 -82 236 -77 C 226 -71 216 -69 206 -69 C 198 -69 192 -69 186 -71 C 180 -72 174 -74 168 -76 L 156 -61 L 214 12 L 266 12 L 219 -49 C 251 -43 277 -46 299 -58 C 320 -70 331 -88 331 -112 C 331 -136 320 -155 298 -168 C 276 -180 251 -187 222 -187 Z" unicode="ş" />
<glyph horiz-adv-x="538" d="M 35 0 L 35 0 Z M 272 -10 C 218 -10 172 -2 133 13 C 94 28 61 50 35 79 L 100 151 C 118 126 143 106 175 92 C 206 78 239 71 273 71 C 305 71 334 80 359 100 C 383 119 396 144 396 176 C 396 208 385 235 364 257 C 343 279 305 303 251 329 C 215 345 185 360 161 375 C 136 390 116 406 101 424 C 85 441 74 461 67 483 C 60 505 57 530 57 559 C 57 614 76 658 115 691 C 154 723 204 740 266 740 C 314 740 354 732 387 717 C 419 701 446 684 468 664 L 410 589 C 389 607 366 622 341 634 C 315 645 289 651 261 651 C 229 651 203 642 182 626 C 161 609 151 586 151 557 C 151 525 162 499 185 479 C 208 459 248 435 306 409 C 375 377 423 345 450 312 C 477 278 491 236 491 184 C 491 153 485 126 473 102 C 461 78 445 57 425 41 C 405 24 381 11 355 3 C 329 -5 301 -10 272 -10 Z M 265 784 L 265 784 Z M 106 956 L 190 956 L 266 845 L 342 956 L 424 956 L 310 784 L 221 784 L 106 956 Z" unicode="Š" />
<glyph horiz-adv-x="440" d="M 32 0 L 32 0 Z M 236 -9 C 191 -9 151 -2 117 10 C 82 23 54 40 32 62 L 76 126 C 95 108 118 94 146 84 C 173 73 200 68 228 68 C 252 68 274 75 292 89 C 310 103 319 121 319 144 C 319 164 310 182 292 197 C 274 212 242 228 197 245 C 145 263 108 286 86 313 C 64 339 53 372 53 410 C 53 451 69 485 102 511 C 135 537 176 550 224 550 C 268 550 304 544 332 532 C 360 520 381 508 397 496 L 363 424 C 345 436 325 447 303 457 C 281 467 258 473 232 473 C 208 473 187 467 169 455 C 151 443 142 428 142 409 C 142 389 149 372 163 360 C 177 348 208 333 256 315 C 310 294 348 271 372 245 C 396 219 408 185 408 145 C 408 120 403 98 393 79 C 383 59 371 43 355 30 C 339 17 321 7 301 1 C 280 -5 258 -9 236 -9 Z M 226 594 L 226 594 Z M 67 766 L 151 766 L 227 655 L 303 766 L 385 766 L 271 594 L 182 594 L 67 766 Z" unicode="š" />
<glyph horiz-adv-x="493" d="M 9 0 L 9 0 Z M 485 643 L 295 643 L 295 0 L 195 0 L 195 643 L 9 643 L 9 730 L 485 730 L 485 643 Z M 246 784 L 246 784 Z M 87 956 L 171 956 L 247 845 L 323 956 L 405 956 L 291 784 L 202 784 L 87 956 Z" unicode="Ť" />
<glyph horiz-adv-x="328" d="M 11 0 L 11 0 Z M 301 97 L 317 21 C 307 13 293 7 275 2 C 257 -2 237 -5 217 -5 C 180 -5 148 6 122 30 C 96 54 83 90 83 140 L 83 462 L 11 462 L 11 540 L 84 540 L 84 670 L 174 682 L 174 540 L 299 540 L 299 462 L 175 462 L 175 147 C 175 125 180 109 190 97 C 200 85 214 79 233 79 C 247 79 260 81 272 85 C 284 89 294 93 301 97 Z M 408 608 L 404 463 L 326 463 L 321 608 L 321 730 L 408 730 L 408 608 Z" unicode="ť" />
<glyph horiz-adv-x="493" d="M 425 439 L 295 439 L 295 0 L 195 0 L 195 439 L 67 439 L 67 519 L 195 519 L 195 643 L 9 643 L 9 730 L 485 730 L 485 643 L 295 643 L 295 519 L 425 519 L 425 439 Z" unicode="Ŧ" />
<glyph horiz-adv-x="328" d="M 317 21 C 307 13 293 7 275 2 C 257 -2 237 -5 217 -5 C 180 -5 148 6 122 30 C 96 54 83 90 83 140 L 83 297 L 17 297 L 17 377 L 83 377 L 83 462 L 11 462 L 11 540 L 84 540 L 84 670 L 174 682 L 174 540 L 299 540 L 299 462 L 175 462 L 175 377 L 275 377 L 275 297 L 175 297 L 175 147 C 175 125 180 109 190 97 C 200 85 214 79 233 79 C 247 79 260 81 272 85 C 284 89 294 93 301 97 L 317 21 Z" unicode="ŧ" />
<glyph horiz-adv-x="686" d="M 79 0 L 79 0 Z M 607 730 L 607 250 C 607 207 599 169 585 137 C 571 104 552 77 528 55 C 504 33 475 17 443 6 C 411 -4 377 -10 341 -10 C 305 -10 272 -4 240 6 C 208 16 180 32 156 54 C 132 75 114 102 100 135 C 86 167 79 206 79 250 L 79 730 L 177 730 L 177 250 C 177 194 193 152 225 123 C 257 93 296 79 341 79 C 363 79 385 82 405 89 C 425 96 442 107 457 121 C 472 135 484 152 493 174 C 502 196 507 221 507 250 L 507 730 L 607 730 Z M 342 790 L 342 790 Z M 438 928 L 511 928 C 511 881 504 846 490 824 C 476 801 456 790 432 790 C 414 790 397 793 383 801 C 369 809 356 817 345 826 C 334 834 324 841 314 849 C 304 856 293 860 283 860 C 273 860 264 854 257 843 C 250 832 246 816 246 795 L 174 795 C 174 841 183 875 202 898 C 221 920 241 932 263 932 C 279 932 294 928 307 920 C 320 912 333 903 345 895 C 355 886 364 879 374 873 C 383 867 392 864 402 864 C 411 864 419 869 426 880 C 433 891 437 907 438 928 Z" unicode="Ũ" />
<glyph horiz-adv-x="560" d="M 67 0 L 67 0 Z M 67 540 L 160 540 L 160 184 C 160 142 170 113 192 95 C 214 77 241 69 275 69 C 307 69 335 79 359 101 C 383 122 395 153 395 193 L 395 540 L 488 540 L 488 0 L 405 0 L 405 99 C 396 71 377 45 348 23 C 319 1 282 -10 237 -10 C 214 -10 192 -6 172 0 C 151 6 133 16 117 29 C 101 42 89 59 80 79 C 71 99 67 123 67 151 L 67 540 Z M 277 600 L 277 600 Z M 373 738 L 446 738 C 446 691 439 656 425 634 C 411 611 391 600 367 600 C 349 600 332 603 318 611 C 304 619 291 627 280 636 C 269 644 259 651 249 659 C 239 666 228 670 218 670 C 208 670 199 664 192 653 C 185 642 181 626 181 605 L 109 605 C 109 651 118 685 137 708 C 156 730 176 742 198 742 C 214 742 229 738 242 730 C 255 722 268 713 280 705 C 290 696 299 689 309 683 C 318 677 327 674 337 674 C 346 674 354 679 361 690 C 368 701 372 717 373 738 Z" unicode="ũ" />
<glyph horiz-adv-x="686" d="M 79 0 L 79 0 Z M 607 730 L 607 250 C 607 207 599 169 585 137 C 571 104 552 77 528 55 C 504 33 475 17 443 6 C 411 -4 377 -10 341 -10 C 305 -10 272 -4 240 6 C 208 16 180 32 156 54 C 132 75 114 102 100 135 C 86 167 79 206 79 250 L 79 730 L 177 730 L 177 250 C 177 194 193 152 225 123 C 257 93 296 79 341 79 C 363 79 385 82 405 89 C 425 96 442 107 457 121 C 472 135 484 152 493 174 C 502 196 507 221 507 250 L 507 730 L 607 730 Z M 342 798 L 342 798 Z M 470 798 L 214 798 L 214 877 L 470 877 L 470 798 Z" unicode="Ū" />
<glyph horiz-adv-x="560" d="M 67 0 L 67 0 Z M 67 540 L 160 540 L 160 184 C 160 142 170 113 192 95 C 214 77 241 69 275 69 C 307 69 335 79 359 101 C 383 122 395 153 395 193 L 395 540 L 488 540 L 488 0 L 405 0 L 405 99 C 396 71 377 45 348 23 C 319 1 282 -10 237 -10 C 214 -10 192 -6 172 0 C 151 6 133 16 117 29 C 101 42 89 59 80 79 C 71 99 67 123 67 151 L 67 540 Z M 277 608 L 277 608 Z M 405 608 L 149 608 L 149 687 L 405 687 L 405 608 Z" unicode="ū" />
<glyph horiz-adv-x="686" d="M 79 0 L 79 0 Z M 607 730 L 607 250 C 607 207 599 169 585 137 C 571 104 552 77 528 55 C 504 33 475 17 443 6 C 411 -4 377 -10 341 -10 C 305 -10 272 -4 240 6 C 208 16 180 32 156 54 C 132 75 114 102 100 135 C 86 167 79 206 79 250 L 79 730 L 177 730 L 177 250 C 177 194 193 152 225 123 C 257 93 296 79 341 79 C 363 79 385 82 405 89 C 425 96 442 107 457 121 C 472 135 484 152 493 174 C 502 196 507 221 507 250 L 507 730 L 607 730 Z M 342 789 L 342 789 Z M 414 947 L 492 947 C 488 891 472 851 444 826 C 416 801 382 789 342 789 C 301 789 267 801 240 826 C 212 851 197 891 193 947 L 270 947 C 272 919 278 897 289 880 C 299 863 317 855 342 855 C 366 855 384 863 395 879 C 406 895 412 918 414 947 Z" unicode="Ŭ" />
<glyph horiz-adv-x="560" d="M 67 0 L 67 0 Z M 67 540 L 160 540 L 160 184 C 160 142 170 113 192 95 C 214 77 241 69 275 69 C 307 69 335 79 359 101 C 383 122 395 153 395 193 L 395 540 L 488 540 L 488 0 L 405 0 L 405 99 C 396 71 377 45 348 23 C 319 1 282 -10 237 -10 C 214 -10 192 -6 172 0 C 151 6 133 16 117 29 C 101 42 89 59 80 79 C 71 99 67 123 67 151 L 67 540 Z M 277 599 L 277 599 Z M 349 757 L 427 757 C 423 701 407 661 379 636 C 351 611 317 599 277 599 C 236 599 202 611 175 636 C 147 661 132 701 128 757 L 205 757 C 207 729 213 707 224 690 C 234 673 252 665 277 665 C 301 665 319 673 330 689 C 341 705 347 728 349 757 Z" unicode="ŭ" />
<glyph horiz-adv-x="686" d="M 79 0 L 79 0 Z M 607 730 L 607 250 C 607 207 599 169 585 137 C 571 104 552 77 528 55 C 504 33 475 17 443 6 C 411 -4 377 -10 341 -10 C 305 -10 272 -4 240 6 C 208 16 180 32 156 54 C 132 75 114 102 100 135 C 86 167 79 206 79 250 L 79 730 L 177 730 L 177 250 C 177 194 193 152 225 123 C 257 93 296 79 341 79 C 363 79 385 82 405 89 C 425 96 442 107 457 121 C 472 135 484 152 493 174 C 502 196 507 221 507 250 L 507 730 L 607 730 Z M 342 777 L 342 777 Z M 342 777 C 308 777 279 789 255 813 C 231 837 219 866 219 900 C 219 934 231 963 255 987 C 279 1011 308 1023 342 1023 C 376 1023 405 1011 429 987 C 453 963 465 934 465 900 C 465 866 453 837 429 813 C 405 789 376 777 342 777 Z M 343 835 C 360 835 375 841 387 854 C 399 866 406 882 406 900 C 406 918 399 933 387 946 C 375 958 360 965 343 965 C 325 965 310 958 298 946 C 285 933 279 918 279 900 C 279 882 285 866 298 854 C 310 841 325 835 343 835 Z" unicode="Ů" />
<glyph horiz-adv-x="560" d="M 67 0 L 67 0 Z M 67 540 L 160 540 L 160 184 C 160 142 170 113 192 95 C 214 77 241 69 275 69 C 307 69 335 79 359 101 C 383 122 395 153 395 193 L 395 540 L 488 540 L 488 0 L 405 0 L 405 99 C 396 71 377 45 348 23 C 319 1 282 -10 237 -10 C 214 -10 192 -6 172 0 C 151 6 133 16 117 29 C 101 42 89 59 80 79 C 71 99 67 123 67 151 L 67 540 Z M 277 587 L 277 587 Z M 277 587 C 243 587 214 599 190 623 C 166 647 154 676 154 710 C 154 744 166 773 190 797 C 214 821 243 833 277 833 C 311 833 340 821 364 797 C 388 773 400 744 400 710 C 400 676 388 647 364 623 C 340 599 311 587 277 587 Z M 278 645 C 295 645 310 651 322 664 C 334 676 341 692 341 710 C 341 728 334 743 322 756 C 310 768 295 775 278 775 C 260 775 245 768 233 756 C 220 743 214 728 214 710 C 214 692 220 676 233 664 C 245 651 260 645 278 645 Z" unicode="ů" />
<glyph horiz-adv-x="686" d="M 79 0 L 79 0 Z M 607 730 L 607 250 C 607 207 599 169 585 137 C 571 104 552 77 528 55 C 504 33 475 17 443 6 C 411 -4 377 -10 341 -10 C 305 -10 272 -4 240 6 C 208 16 180 32 156 54 C 132 75 114 102 100 135 C 86 167 79 206 79 250 L 79 730 L 177 730 L 177 250 C 177 194 193 152 225 123 C 257 93 296 79 341 79 C 363 79 385 82 405 89 C 425 96 442 107 457 121 C 472 135 484 152 493 174 C 502 196 507 221 507 250 L 507 730 L 607 730 Z M 342 783 L 342 783 Z M 161 783 L 245 937 L 343 937 L 243 783 L 161 783 Z M 341 783 L 426 937 L 525 937 L 423 783 L 341 783 Z" unicode="Ű" />
<glyph horiz-adv-x="560" d="M 67 0 L 67 0 Z M 67 540 L 160 540 L 160 184 C 160 142 170 113 192 95 C 214 77 241 69 275 69 C 307 69 335 79 359 101 C 383 122 395 153 395 193 L 395 540 L 488 540 L 488 0 L 405 0 L 405 99 C 396 71 377 45 348 23 C 319 1 282 -10 237 -10 C 214 -10 192 -6 172 0 C 151 6 133 16 117 29 C 101 42 89 59 80 79 C 71 99 67 123 67 151 L 67 540 Z M 277 593 L 277 593 Z M 96 593 L 180 747 L 278 747 L 178 593 L 96 593 Z M 276 593 L 361 747 L 460 747 L 358 593 L 276 593 Z" unicode="ű" />
<glyph horiz-adv-x="686" d="M 79 0 L 79 0 Z M 607 730 L 607 250 C 607 207 599 169 585 137 C 571 104 552 77 528 55 C 504 33 475 17 443 6 C 411 -4 377 -10 341 -10 C 305 -10 272 -4 240 6 C 208 16 180 32 156 54 C 132 75 114 102 100 135 C 86 167 79 206 79 250 L 79 730 L 177 730 L 177 250 C 177 194 193 152 225 123 C 257 93 296 79 341 79 C 363 79 385 82 405 89 C 425 96 442 107 457 121 C 472 135 484 152 493 174 C 502 196 507 221 507 250 L 507 730 L 607 730 Z M 384 -8 L 384 -8 Z M 488 -96 L 514 -134 C 494 -154 472 -170 448 -181 C 423 -192 396 -198 366 -198 C 332 -198 306 -190 287 -176 C 268 -161 259 -142 259 -120 C 259 -96 268 -74 287 -53 C 306 -32 334 -14 370 1 L 424 1 C 396 -12 375 -26 360 -40 C 345 -54 338 -69 338 -84 C 338 -98 343 -109 354 -117 C 365 -125 379 -129 396 -129 C 415 -129 432 -126 448 -120 C 464 -114 477 -106 488 -96 Z" unicode="Ų" />
<glyph horiz-adv-x="560" d="M 67 0 L 67 0 Z M 67 540 L 160 540 L 160 184 C 160 142 170 113 192 95 C 214 77 241 69 275 69 C 307 69 335 79 359 101 C 383 122 395 153 395 193 L 395 540 L 488 540 L 488 0 L 405 0 L 405 99 C 396 71 377 45 348 23 C 319 1 282 -10 237 -10 C 214 -10 192 -6 172 0 C 151 6 133 16 117 29 C 101 42 89 59 80 79 C 71 99 67 123 67 151 L 67 540 Z M 420 -7 L 420 -7 Z M 524 -95 L 550 -133 C 530 -153 508 -169 484 -180 C 459 -191 432 -197 402 -197 C 368 -197 342 -189 323 -175 C 304 -160 295 -141 295 -119 C 295 -95 304 -73 323 -52 C 342 -31 370 -13 406 2 L 460 2 C 432 -11 411 -25 396 -39 C 381 -53 374 -68 374 -83 C 374 -97 379 -108 390 -116 C 401 -124 415 -128 432 -128 C 451 -128 468 -125 484 -119 C 500 -113 513 -105 524 -95 Z" unicode="ų" />
<glyph horiz-adv-x="854" d="M 9 0 L 9 0 Z M 840 730 L 641 -5 L 579 -5 L 426 550 L 267 -5 L 204 -5 L 9 730 L 110 730 L 247 188 L 397 730 L 461 730 L 612 186 L 749 730 L 840 730 Z M 427 784 L 427 784 Z M 586 784 L 502 784 L 427 895 L 350 784 L 268 784 L 383 956 L 472 956 L 586 784 Z" unicode="Ŵ" />
<glyph horiz-adv-x="696" d="M 3 0 L 3 0 Z M 466 -3 L 354 328 L 229 -3 L 169 -3 L 3 540 L 96 540 L 212 144 L 326 466 L 388 466 L 493 147 L 608 540 L 694 540 L 527 -3 L 466 -3 Z M 353 594 L 353 594 Z M 512 594 L 428 594 L 353 705 L 276 594 L 194 594 L 309 766 L 398 766 L 512 594 Z" unicode="ŵ" />
<glyph horiz-adv-x="596" d="M 0 0 L 0 0 Z M 597 730 L 346 311 L 346 0 L 246 0 L 246 315 L -1 730 L 113 730 L 301 407 L 495 730 L 597 730 Z M 301 784 L 301 784 Z M 460 784 L 376 784 L 301 895 L 224 784 L 142 784 L 257 956 L 346 956 L 460 784 Z" unicode="Ŷ" />
<glyph horiz-adv-x="479" d="M 0 0 L 0 0 Z M 483 540 L 236 -83 C 218 -125 194 -155 165 -173 C 136 -191 107 -200 79 -200 C 59 -200 42 -197 29 -193 C 15 -188 6 -184 1 -182 L 34 -105 C 37 -107 43 -109 52 -112 C 61 -114 70 -116 79 -116 C 95 -116 109 -110 123 -99 C 137 -87 149 -69 161 -44 L 192 38 L -4 540 L 94 540 L 241 150 L 390 540 L 483 540 Z M 241 594 L 241 594 Z M 400 594 L 316 594 L 241 705 L 164 594 L 82 594 L 197 766 L 286 766 L 400 594 Z" unicode="ŷ" />
<glyph horiz-adv-x="596" d="M 0 0 L 0 0 Z M 597 730 L 346 311 L 346 0 L 246 0 L 246 315 L -1 730 L 113 730 L 301 407 L 495 730 L 597 730 Z M 301 785 L 301 785 Z M 426 785 L 349 785 L 349 942 L 426 942 L 426 785 Z M 253 785 L 176 785 L 176 942 L 253 942 L 253 785 Z" unicode="Ÿ" />
<glyph horiz-adv-x="533" d="M 18 0 L 18 0 Z M 503 730 L 503 685 L 148 86 L 515 86 L 515 0 L 18 0 L 18 44 L 369 643 L 49 643 L 49 730 L 503 730 Z M 270 789 L 270 789 Z M 167 789 L 266 955 L 374 955 L 259 789 L 167 789 Z" unicode="Ź" />
<glyph horiz-adv-x="430" d="M 17 0 L 17 0 Z M 402 540 L 402 499 L 144 81 L 420 81 L 420 0 L 17 0 L 17 39 L 275 458 L 29 458 L 29 540 L 402 540 Z M 222 599 L 222 599 Z M 119 599 L 218 765 L 326 765 L 211 599 L 119 599 Z" unicode="ź" />
<glyph horiz-adv-x="533" d="M 18 0 L 18 0 Z M 503 730 L 503 685 L 148 86 L 515 86 L 515 0 L 18 0 L 18 44 L 369 643 L 49 643 L 49 730 L 503 730 Z M 270 786 L 270 786 Z M 313 786 L 228 786 L 228 934 L 313 934 L 313 786 Z" unicode="Ż" />
<glyph horiz-adv-x="430" d="M 17 0 L 17 0 Z M 402 540 L 402 499 L 144 81 L 420 81 L 420 0 L 17 0 L 17 39 L 275 458 L 29 458 L 29 540 L 402 540 Z M 222 596 L 222 596 Z M 265 596 L 180 596 L 180 744 L 265 744 L 265 596 Z" unicode="ż" />
<glyph horiz-adv-x="533" d="M 18 0 L 18 0 Z M 503 730 L 503 685 L 148 86 L 515 86 L 515 0 L 18 0 L 18 44 L 369 643 L 49 643 L 49 730 L 503 730 Z M 270 784 L 270 784 Z M 111 956 L 195 956 L 271 845 L 347 956 L 429 956 L 315 784 L 226 784 L 111 956 Z" unicode="Ž" />
<glyph horiz-adv-x="430" d="M 17 0 L 17 0 Z M 402 540 L 402 499 L 144 81 L 420 81 L 420 0 L 17 0 L 17 39 L 275 458 L 29 458 L 29 540 L 402 540 Z M 222 594 L 222 594 Z M 63 766 L 147 766 L 223 655 L 299 766 L 381 766 L 267 594 L 178 594 L 63 766 Z" unicode="ž" />
<glyph horiz-adv-x="371" d="M 184 -60 C 181 -92 168 -119 145 -143 C 121 -167 92 -179 58 -179 C 40 -179 22 -177 6 -175 C -9 -172 -22 -169 -30 -165 L -21 -98 C -16 -98 -9 -100 0 -102 C 9 -104 18 -105 27 -105 C 47 -105 64 -98 80 -84 C 95 -70 104 -51 107 -27 L 139 331 L 43 331 L 43 407 L 145 407 L 165 628 C 168 664 182 692 207 712 C 231 731 256 741 282 741 C 295 741 308 740 321 739 C 334 738 342 737 345 737 L 338 656 C 336 656 332 657 326 658 C 320 658 314 659 308 659 C 289 659 273 652 261 640 C 249 627 242 607 240 581 L 225 407 L 329 407 L 329 331 L 218 331 L 184 -60 Z" unicode="ƒ" />
<glyph horiz-adv-x="538" d="M 35 0 L 35 0 Z M 272 -10 C 218 -10 172 -2 133 13 C 94 28 61 50 35 79 L 100 151 C 118 126 143 106 175 92 C 206 78 239 71 273 71 C 305 71 334 80 359 100 C 383 119 396 144 396 176 C 396 208 385 235 364 257 C 343 279 305 303 251 329 C 215 345 185 360 161 375 C 136 390 116 406 101 424 C 85 441 74 461 67 483 C 60 505 57 530 57 559 C 57 614 76 658 115 691 C 154 723 204 740 266 740 C 314 740 354 732 387 717 C 419 701 446 684 468 664 L 410 589 C 389 607 366 622 341 634 C 315 645 289 651 261 651 C 229 651 203 642 182 626 C 161 609 151 586 151 557 C 151 525 162 499 185 479 C 208 459 248 435 306 409 C 375 377 423 345 450 312 C 477 278 491 236 491 184 C 491 153 485 126 473 102 C 461 78 445 57 425 41 C 405 24 381 11 355 3 C 329 -5 301 -10 272 -10 Z M 259 -82 L 259 -82 Z M 351 -82 C 349 -108 344 -135 337 -162 C 329 -188 320 -213 310 -236 C 300 -259 288 -280 276 -300 C 263 -319 250 -335 238 -347 L 168 -315 C 176 -306 184 -293 193 -276 C 202 -259 211 -240 219 -219 C 227 -198 234 -176 240 -152 C 246 -128 251 -105 254 -82 L 351 -82 Z" unicode="Ș" />
<glyph horiz-adv-x="440" d="M 32 0 L 32 0 Z M 236 -9 C 191 -9 151 -2 117 10 C 82 23 54 40 32 62 L 76 126 C 95 108 118 94 146 84 C 173 73 200 68 228 68 C 252 68 274 75 292 89 C 310 103 319 121 319 144 C 319 164 310 182 292 197 C 274 212 242 228 197 245 C 145 263 108 286 86 313 C 64 339 53 372 53 410 C 53 451 69 485 102 511 C 135 537 176 550 224 550 C 268 550 304 544 332 532 C 360 520 381 508 397 496 L 363 424 C 345 436 325 447 303 457 C 281 467 258 473 232 473 C 208 473 187 467 169 455 C 151 443 142 428 142 409 C 142 389 149 372 163 360 C 177 348 208 333 256 315 C 310 294 348 271 372 245 C 396 219 408 185 408 145 C 408 120 403 98 393 79 C 383 59 371 43 355 30 C 339 17 321 7 301 1 C 280 -5 258 -9 236 -9 Z M 215 -77 L 215 -77 Z M 307 -77 C 305 -103 300 -130 293 -157 C 285 -183 276 -208 266 -231 C 256 -254 244 -275 232 -295 C 219 -314 206 -330 194 -342 L 124 -310 C 132 -301 140 -288 149 -271 C 158 -254 167 -235 175 -214 C 183 -193 190 -171 196 -147 C 202 -123 207 -100 210 -77 L 307 -77 Z" unicode="ș" />
<glyph horiz-adv-x="493" d="M 9 0 L 9 0 Z M 485 643 L 295 643 L 295 0 L 195 0 L 195 643 L 9 643 L 9 730 L 485 730 L 485 643 Z M 213 -76 L 213 -76 Z M 305 -76 C 303 -102 298 -129 291 -156 C 283 -182 274 -207 264 -230 C 254 -253 242 -274 230 -294 C 217 -313 204 -329 192 -341 L 122 -309 C 130 -300 138 -287 147 -270 C 156 -253 165 -234 173 -213 C 181 -192 188 -170 194 -146 C 200 -122 205 -99 208 -76 L 305 -76 Z" unicode="Ț" />
<glyph horiz-adv-x="328" d="M 11 0 L 11 0 Z M 301 97 L 317 21 C 307 13 293 7 275 2 C 257 -2 237 -5 217 -5 C 180 -5 148 6 122 30 C 96 54 83 90 83 140 L 83 462 L 11 462 L 11 540 L 84 540 L 84 670 L 174 682 L 174 540 L 299 540 L 299 462 L 175 462 L 175 147 C 175 125 180 109 190 97 C 200 85 214 79 233 79 C 247 79 260 81 272 85 C 284 89 294 93 301 97 Z M 153 -76 L 153 -76 Z M 245 -76 C 243 -102 238 -129 231 -156 C 223 -182 214 -207 204 -230 C 194 -253 182 -274 170 -294 C 157 -313 144 -329 132 -341 L 62 -309 C 70 -300 78 -287 87 -270 C 96 -253 105 -234 113 -213 C 121 -192 128 -170 134 -146 C 140 -122 145 -99 148 -76 L 245 -76 Z" unicode="ț" />
<glyph horiz-adv-x="272" d="M 203 540 L 203 -26 C 203 -79 188 -120 160 -149 C 131 -177 97 -192 58 -192 C 35 -192 13 -189 -6 -184 C -26 -178 -43 -171 -56 -163 L -26 -93 C -17 -97 -6 -101 5 -105 C 17 -109 31 -111 47 -111 C 63 -111 78 -102 91 -85 C 103 -68 110 -46 110 -20 L 110 540 L 203 540 Z" unicode="ȷ" />
<glyph horiz-adv-x="500" d="M 409 594 L 325 594 L 250 705 L 173 594 L 91 594 L 206 766 L 295 766 L 409 594 Z" unicode="ˆ" />
<glyph horiz-adv-x="500" d="M 91 766 L 175 766 L 251 655 L 327 766 L 409 766 L 295 594 L 206 594 L 91 766 Z" unicode="ˇ" />
<glyph horiz-adv-x="500" d="M 322 757 L 400 757 C 396 701 380 661 352 636 C 324 611 290 599 250 599 C 209 599 175 611 148 636 C 120 661 105 701 101 757 L 178 757 C 180 729 186 707 197 690 C 207 673 225 665 250 665 C 274 665 292 673 303 689 C 314 705 320 728 322 757 Z" unicode="˘" />
<glyph horiz-adv-x="500" d="M 293 596 L 208 596 L 208 744 L 293 744 L 293 596 Z" unicode="˙" />
<glyph horiz-adv-x="512" d="M 256 587 C 222 587 193 599 169 623 C 145 647 133 676 133 710 C 133 744 145 773 169 797 C 193 821 222 833 256 833 C 290 833 319 821 343 797 C 367 773 379 744 379 710 C 379 676 367 647 343 623 C 319 599 290 587 256 587 Z M 257 645 C 274 645 289 651 301 664 C 313 676 320 692 320 710 C 320 728 313 743 301 756 C 289 768 274 775 257 775 C 239 775 224 768 212 756 C 199 743 193 728 193 710 C 193 692 199 676 212 664 C 224 651 239 645 257 645 Z" unicode="˚" />
<glyph horiz-adv-x="500" d="M 358 -88 L 384 -126 C 364 -146 342 -162 318 -173 C 293 -184 266 -190 236 -190 C 202 -190 176 -182 157 -168 C 138 -153 129 -134 129 -112 C 129 -88 138 -66 157 -45 C 176 -24 204 -6 240 9 L 294 9 C 266 -4 245 -18 230 -32 C 215 -46 208 -61 208 -76 C 208 -90 213 -101 224 -109 C 235 -117 249 -121 266 -121 C 285 -121 302 -118 318 -112 C 334 -106 347 -98 358 -88 Z" unicode="˛" />
<glyph horiz-adv-x="500" d="M 349 738 L 422 738 C 422 691 415 656 401 634 C 387 611 367 600 343 600 C 325 600 308 603 294 611 C 280 619 267 627 256 636 C 245 644 235 651 225 659 C 215 666 204 670 194 670 C 184 670 175 664 168 653 C 161 642 157 626 157 605 L 85 605 C 85 651 94 685 113 708 C 132 730 152 742 174 742 C 190 742 205 738 218 730 C 231 722 244 713 256 705 C 266 696 275 689 285 683 C 294 677 303 674 313 674 C 322 674 330 679 337 690 C 344 701 348 717 349 738 Z" unicode="˜" />
<glyph horiz-adv-x="500" d="M 83 593 L 167 747 L 265 747 L 165 593 L 83 593 Z M 263 593 L 348 747 L 447 747 L 345 593 L 263 593 Z" unicode="˝" />
<glyph horiz-adv-x="0" d="M 0 593 L 0 593 Z M 104 593 L 12 593 L -104 760 L 4 760 L 104 593 Z" unicode="̀" />
<glyph horiz-adv-x="0" d="M 0 599 L 0 599 Z M -103 599 L -4 765 L 104 765 L -11 599 L -103 599 Z" unicode="́" />
<glyph horiz-adv-x="0" d="M 0 594 L 0 594 Z M 159 594 L 75 594 L 0 705 L -77 594 L -159 594 L -44 766 L 45 766 L 159 594 Z" unicode="̂" />
<glyph horiz-adv-x="0" d="M 0 600 L 0 600 Z M 96 738 L 169 738 C 169 691 162 656 148 634 C 134 611 114 600 90 600 C 72 600 55 603 41 611 C 27 619 14 627 3 636 C -7 644 -18 651 -28 659 C -38 666 -48 670 -59 670 C -69 670 -77 664 -84 653 C -91 642 -95 626 -96 605 L -168 605 C -168 651 -158 685 -139 708 C -120 730 -100 742 -79 742 C -62 742 -47 738 -34 730 C -21 722 -9 713 3 705 C 13 696 22 689 32 683 C 41 677 50 674 60 674 C 69 674 77 679 84 690 C 91 701 95 717 96 738 Z" unicode="̃" />
<glyph horiz-adv-x="0" d="M 0 608 L 0 608 Z M 128 608 L -128 608 L -128 687 L 128 687 L 128 608 Z" unicode="̄" />
<glyph horiz-adv-x="0" d="M 0 599 L 0 599 Z M 72 757 L 150 757 C 146 701 130 661 102 636 C 74 611 40 599 0 599 C -40 599 -74 611 -102 636 C -129 661 -145 701 -149 757 L -72 757 C -70 729 -63 707 -53 690 C -42 673 -24 665 0 665 C 24 665 42 673 53 689 C 64 705 70 728 72 757 Z" unicode="̆" />
<glyph horiz-adv-x="0" d="M 0 596 L 0 596 Z M 43 596 L -42 596 L -42 744 L 43 744 L 43 596 Z" unicode="̇" />
<glyph horiz-adv-x="0" d="M 0 595 L 0 595 Z M 125 595 L 48 595 L 48 752 L 125 752 L 125 595 Z M -48 595 L -125 595 L -125 752 L -48 752 L -48 595 Z" unicode="̈" />
<glyph horiz-adv-x="0" d="M 0 587 L 0 587 Z M 0 587 C -34 587 -63 599 -87 623 C -111 647 -123 676 -123 710 C -123 744 -111 773 -87 797 C -63 821 -34 833 0 833 C 34 833 63 821 87 797 C 111 773 123 744 123 710 C 123 676 111 647 87 623 C 63 599 34 587 0 587 Z M 1 645 C 18 645 33 651 45 664 C 57 676 64 692 64 710 C 64 728 57 743 45 756 C 33 768 18 775 1 775 C -16 775 -31 768 -44 756 C -56 743 -63 728 -63 710 C -63 692 -56 676 -44 664 C -31 651 -16 645 1 645 Z" unicode="̊" />
<glyph horiz-adv-x="0" d="M 0 593 L 0 593 Z M -181 593 L -97 747 L 1 747 L -99 593 L -181 593 Z M -1 593 L 84 747 L 183 747 L 81 593 L -1 593 Z" unicode="̋" />
<glyph horiz-adv-x="0" d="M 0 594 L 0 594 Z M -159 766 L -75 766 L 1 655 L 77 766 L 159 766 L 45 594 L -44 594 L -159 766 Z" unicode="̌" />
<glyph horiz-adv-x="0" d="M 0 -76 L 0 -76 Z M 92 -76 C 90 -102 85 -129 78 -156 C 70 -182 61 -207 51 -230 C 41 -253 29 -274 17 -294 C 4 -313 -8 -329 -21 -341 L -91 -309 C -83 -300 -74 -287 -65 -270 C -56 -253 -48 -234 -40 -213 C -32 -192 -24 -170 -18 -146 C -12 -122 -7 -99 -5 -76 L 92 -76 Z" unicode="̦" />
<glyph horiz-adv-x="0" d="M 0 0 L 0 0 Z M 7 -186 C -15 -186 -38 -183 -61 -177 C -84 -171 -102 -163 -116 -153 L -99 -114 C -90 -119 -78 -124 -64 -130 C -49 -135 -33 -138 -16 -138 C -2 -138 10 -134 20 -128 C 30 -122 36 -113 36 -103 C 36 -90 31 -81 21 -76 C 11 -70 1 -68 -9 -68 C -16 -68 -22 -68 -28 -70 C -34 -71 -40 -73 -47 -75 L -59 -60 L -1 13 L 51 13 L 4 -48 C 36 -42 62 -45 84 -57 C 105 -69 116 -87 116 -111 C 116 -135 105 -154 83 -167 C 61 -179 36 -186 7 -186 Z" unicode="̧" />
<glyph horiz-adv-x="0" d="M 0 0 L 0 0 Z M 104 -88 L 130 -126 C 110 -146 88 -162 64 -173 C 39 -184 12 -190 -18 -190 C -51 -190 -77 -182 -96 -168 C -115 -153 -125 -134 -125 -112 C -125 -88 -115 -66 -96 -45 C -77 -24 -50 -6 -14 9 L 40 9 C 12 -4 -8 -18 -23 -32 C -38 -46 -46 -61 -46 -76 C -46 -90 -40 -101 -29 -109 C -18 -117 -4 -121 12 -121 C 31 -121 48 -118 64 -112 C 80 -106 93 -98 104 -88 Z" unicode="̨" />
<glyph horiz-adv-x="570" d="M 1 0 L 1 0 Z M 622 0 L 1 0 L 286 732 L 340 732 L 622 0 Z M 492 76 L 307 579 L 125 76 L 492 76 Z" unicode="Δ" />
<glyph horiz-adv-x="724" d="M 32 0 L 32 0 Z M 41 0 L 41 85 L 256 85 L 256 153 C 190 174 136 211 94 265 C 52 318 32 378 32 445 C 32 487 39 526 55 563 C 71 599 93 631 122 658 C 151 685 186 706 228 722 C 270 738 316 746 368 746 C 421 746 469 738 512 722 C 554 706 590 684 620 657 C 649 630 671 598 687 562 C 703 525 711 486 711 445 C 711 377 691 317 653 265 C 614 213 558 175 486 153 L 486 85 L 701 85 L 701 0 L 419 0 L 419 203 C 479 223 525 255 559 299 C 592 343 609 390 609 440 C 609 473 603 504 591 532 C 579 560 562 584 541 604 C 519 624 494 639 464 651 C 434 662 402 668 368 668 C 334 668 302 662 274 651 C 245 639 220 623 200 603 C 179 583 163 558 151 530 C 139 502 134 471 134 438 C 134 389 150 343 183 300 C 215 256 262 224 324 203 L 324 0 L 41 0 Z" unicode="Ω" />
<glyph horiz-adv-x="589" d="M 77 0 L 77 0 Z M 77 -163 L 77 540 L 168 540 L 168 170 C 168 140 180 116 206 96 C 232 76 262 66 297 66 C 313 66 330 69 347 75 C 364 81 379 89 393 101 C 407 113 418 127 427 144 C 435 161 440 181 440 203 L 440 540 L 531 540 L 531 0 L 447 0 L 447 99 C 441 85 433 71 421 59 C 409 47 396 36 381 26 C 365 16 349 9 331 3 C 313 -3 295 -6 277 -7 C 252 -7 229 -2 207 8 C 185 18 169 32 161 51 L 161 -163 L 77 -163 Z" unicode="μ" />
<glyph horiz-adv-x="596" d="M 181 469 L 181 0 L 90 0 L 90 469 L 15 469 L 15 540 L 581 540 L 581 469 L 502 469 L 502 0 L 410 0 L 410 469 L 181 469 Z" unicode="π" />
<glyph horiz-adv-x="854" d="M 9 0 L 9 0 Z M 840 730 L 641 -5 L 579 -5 L 426 550 L 267 -5 L 204 -5 L 9 730 L 110 730 L 247 188 L 397 730 L 461 730 L 612 186 L 749 730 L 840 730 Z M 427 783 L 427 783 Z M 531 783 L 439 783 L 323 950 L 431 950 L 531 783 Z" unicode="Ẁ" />
<glyph horiz-adv-x="696" d="M 3 0 L 3 0 Z M 466 -3 L 354 328 L 229 -3 L 169 -3 L 3 540 L 96 540 L 212 144 L 326 466 L 388 466 L 493 147 L 608 540 L 694 540 L 527 -3 L 466 -3 Z M 353 593 L 353 593 Z M 457 593 L 365 593 L 249 760 L 357 760 L 457 593 Z" unicode="ẁ" />
<glyph horiz-adv-x="854" d="M 9 0 L 9 0 Z M 840 730 L 641 -5 L 579 -5 L 426 550 L 267 -5 L 204 -5 L 9 730 L 110 730 L 247 188 L 397 730 L 461 730 L 612 186 L 749 730 L 840 730 Z M 427 789 L 427 789 Z M 324 789 L 423 955 L 531 955 L 416 789 L 324 789 Z" unicode="Ẃ" />
<glyph horiz-adv-x="696" d="M 3 0 L 3 0 Z M 466 -3 L 354 328 L 229 -3 L 169 -3 L 3 540 L 96 540 L 212 144 L 326 466 L 388 466 L 493 147 L 608 540 L 694 540 L 527 -3 L 466 -3 Z M 353 599 L 353 599 Z M 250 599 L 349 765 L 457 765 L 342 599 L 250 599 Z" unicode="ẃ" />
<glyph horiz-adv-x="854" d="M 9 0 L 9 0 Z M 840 730 L 641 -5 L 579 -5 L 426 550 L 267 -5 L 204 -5 L 9 730 L 110 730 L 247 188 L 397 730 L 461 730 L 612 186 L 749 730 L 840 730 Z M 427 785 L 427 785 Z M 552 785 L 475 785 L 475 942 L 552 942 L 552 785 Z M 379 785 L 302 785 L 302 942 L 379 942 L 379 785 Z" unicode="Ẅ" />
<glyph horiz-adv-x="696" d="M 3 0 L 3 0 Z M 466 -3 L 354 328 L 229 -3 L 169 -3 L 3 540 L 96 540 L 212 144 L 326 466 L 388 466 L 493 147 L 608 540 L 694 540 L 527 -3 L 466 -3 Z M 353 595 L 353 595 Z M 478 595 L 401 595 L 401 752 L 478 752 L 478 595 Z M 305 595 L 228 595 L 228 752 L 305 752 L 305 595 Z" unicode="ẅ" />
<glyph horiz-adv-x="596" d="M 0 0 L 0 0 Z M 597 730 L 346 311 L 346 0 L 246 0 L 246 315 L -1 730 L 113 730 L 301 407 L 495 730 L 597 730 Z M 301 783 L 301 783 Z M 405 783 L 313 783 L 197 950 L 305 950 L 405 783 Z" unicode="Ỳ" />
<glyph horiz-adv-x="479" d="M 0 0 L 0 0 Z M 483 540 L 236 -83 C 218 -125 194 -155 165 -173 C 136 -191 107 -200 79 -200 C 59 -200 42 -197 29 -193 C 15 -188 6 -184 1 -182 L 34 -105 C 37 -107 43 -109 52 -112 C 61 -114 70 -116 79 -116 C 95 -116 109 -110 123 -99 C 137 -87 149 -69 161 -44 L 192 38 L -4 540 L 94 540 L 241 150 L 390 540 L 483 540 Z M 241 593 L 241 593 Z M 345 593 L 253 593 L 137 760 L 245 760 L 345 593 Z" unicode="ỳ" />
<glyph horiz-adv-x="461" d="M 420 227 L 41 227 L 41 307 L 420 307 L 420 227 Z" unicode="–" />
<glyph horiz-adv-x="646" d="M 605 227 L 41 227 L 41 307 L 605 307 L 605 227 Z" unicode="—" />
<glyph horiz-adv-x="257" d="M 36 507 L 36 514 C 36 553 45 592 65 630 C 85 668 113 704 149 737 L 239 731 C 229 723 218 711 206 697 C 194 683 182 666 171 648 C 160 629 151 608 144 586 C 136 563 133 539 133 515 L 133 507 L 36 507 Z" unicode="‘" />
<glyph horiz-adv-x="257" d="M 221 737 L 221 730 C 221 691 211 653 191 615 C 171 577 143 541 109 507 L 18 513 C 28 522 39 534 51 549 C 63 563 74 580 85 598 C 96 616 105 637 113 659 C 120 681 124 704 124 729 L 124 737 L 221 737 Z" unicode="’" />
<glyph horiz-adv-x="258" d="M 221 112 L 221 105 C 221 66 211 28 191 -10 C 171 -48 143 -84 108 -118 L 18 -112 C 28 -102 39 -90 51 -76 C 63 -61 74 -44 85 -26 C 95 -8 104 12 112 34 C 119 56 123 79 123 104 L 123 112 L 221 112 Z" unicode="‚" />
<glyph horiz-adv-x="425" d="M 216 507 L 216 514 C 216 552 226 589 246 627 C 266 664 294 701 330 737 L 412 731 C 402 721 391 709 379 695 C 366 680 354 663 343 645 C 332 627 323 607 315 585 C 307 563 304 539 304 515 L 304 507 L 216 507 Z M 36 507 L 36 514 C 36 552 46 589 67 627 C 87 664 115 701 150 737 L 232 731 C 223 722 212 710 200 696 C 187 681 175 664 164 646 C 153 628 144 607 136 585 C 128 563 124 539 124 515 L 124 507 L 36 507 Z" unicode="“" />
<glyph horiz-adv-x="425" d="M 213 737 L 213 730 C 213 691 203 653 184 616 C 165 579 137 543 100 507 L 18 513 C 28 523 40 536 53 550 C 65 564 77 581 88 599 C 98 617 107 637 114 659 C 121 681 125 704 125 729 L 125 737 L 213 737 Z M 389 737 L 389 730 C 389 691 379 653 359 615 C 339 577 312 541 276 507 L 194 513 C 204 523 216 536 229 550 C 241 564 253 581 264 599 C 274 617 283 637 290 659 C 297 681 301 704 301 729 L 301 737 L 389 737 Z" unicode="”" />
<glyph horiz-adv-x="426" d="M 212 115 L 212 108 C 212 69 202 31 184 -5 C 165 -42 137 -79 100 -115 L 18 -109 C 28 -99 40 -86 53 -72 C 65 -57 77 -41 88 -23 C 98 -5 107 15 114 37 C 121 59 125 82 125 107 L 125 115 L 212 115 Z M 390 115 L 390 108 C 390 69 380 31 360 -6 C 340 -44 313 -80 277 -115 L 195 -109 C 205 -98 217 -85 230 -71 C 242 -57 254 -40 265 -22 C 275 -4 284 15 291 37 C 298 59 302 82 302 107 L 302 115 L 390 115 Z" unicode="„" />
<glyph horiz-adv-x="514" d="M 491 391 L 302 391 L 302 -179 L 206 -179 L 206 391 L 23 391 L 23 471 L 206 471 L 206 730 L 302 730 L 302 471 L 491 471 L 491 391 Z" unicode="†" />
<glyph horiz-adv-x="516" d="M 208 -179 L 208 117 L 28 117 L 28 197 L 208 197 L 208 388 L 28 388 L 28 468 L 208 468 L 208 730 L 304 730 L 304 468 L 488 468 L 488 388 L 304 388 L 304 197 L 488 197 L 488 117 L 304 117 L 304 -179 L 208 -179 Z" unicode="‡" />
<glyph horiz-adv-x="383" d="M 191 465 C 215 465 235 456 252 440 C 268 423 277 403 277 379 C 277 355 268 334 252 318 C 235 302 215 294 191 294 C 167 294 146 302 130 318 C 114 334 106 355 106 379 C 106 403 114 423 130 440 C 146 456 167 465 191 465 Z" unicode="•" />
<glyph horiz-adv-x="679" d="M 67 0 L 67 129 L 160 129 L 160 0 L 67 0 Z M 293 0 L 293 129 L 387 129 L 387 0 L 293 0 Z M 519 0 L 519 129 L 613 129 L 613 0 L 519 0 Z" unicode="…" />
<glyph horiz-adv-x="1161" d="M 200 352 C 179 352 159 356 139 365 C 119 373 102 386 88 403 C 73 419 61 440 52 464 C 43 488 39 515 39 546 C 39 572 43 597 51 621 C 59 644 70 664 84 682 C 98 700 115 714 135 724 C 155 734 176 740 199 740 C 223 740 245 734 265 724 C 285 714 302 700 316 683 C 330 665 340 645 348 622 C 356 598 360 574 360 549 C 360 521 356 496 348 472 C 340 448 329 427 315 409 C 301 391 284 377 264 367 C 244 357 223 352 200 352 Z M 116 0 L 592 730 L 679 730 L 202 0 L 116 0 Z M 119 545 C 119 509 126 479 140 457 C 154 435 174 424 199 424 C 226 424 246 435 260 459 C 274 482 281 511 281 545 C 281 579 274 607 262 631 C 249 655 229 667 201 667 C 174 667 154 655 140 631 C 126 607 119 579 119 545 Z M 604 -3 C 582 -3 562 1 542 10 C 522 18 505 31 491 48 C 476 64 464 85 455 109 C 446 133 442 160 442 191 C 442 217 446 242 454 266 C 462 290 473 310 487 328 C 501 346 518 360 538 370 C 558 380 579 386 603 386 C 627 386 650 380 670 370 C 690 360 707 346 721 328 C 735 310 745 290 753 267 C 761 243 765 219 765 194 C 765 166 761 141 753 117 C 745 93 734 72 720 54 C 706 36 689 22 669 12 C 649 2 627 -3 604 -3 Z M 961 -3 C 939 -3 919 1 899 10 C 879 18 862 31 848 48 C 833 64 821 85 812 109 C 803 133 799 160 799 191 C 799 217 803 242 811 266 C 819 290 830 310 844 328 C 858 346 876 360 896 370 C 916 380 937 386 961 386 C 985 386 1007 380 1027 370 C 1047 360 1064 346 1078 328 C 1092 310 1102 290 1110 267 C 1118 243 1122 219 1122 194 C 1122 166 1118 141 1110 117 C 1102 93 1091 72 1077 54 C 1063 36 1046 22 1026 12 C 1006 2 984 -3 961 -3 Z M 601 70 C 629 70 650 81 664 105 C 678 128 685 157 685 191 C 685 225 678 253 665 277 C 652 301 632 313 604 313 C 577 313 557 301 543 278 C 529 254 522 225 522 191 C 522 155 529 125 544 103 C 558 81 577 70 601 70 Z M 959 70 C 987 70 1007 81 1021 105 C 1035 128 1042 157 1042 191 C 1042 225 1035 253 1022 277 C 1009 301 989 313 961 313 C 934 313 914 301 900 278 C 886 254 879 225 879 191 C 879 155 886 125 901 103 C 915 81 935 70 959 70 Z" unicode="‰" />
<glyph horiz-adv-x="238" d="M 209 112 L 28 280 L 28 333 L 209 499 L 209 408 L 108 304 L 209 205 L 209 112 Z" unicode="‹" />
<glyph horiz-adv-x="239" d="M 29 500 L 212 332 L 212 280 L 29 114 L 29 204 L 130 308 L 29 407 L 29 500 Z" unicode="›" />
<glyph horiz-adv-x="145" d="M 303 730 L -66 0 L -145 0 L 224 730 L 303 730 Z" unicode="⁄" />
<glyph horiz-adv-x="327" d="M 15 455 L 15 511 L 201 738 L 254 738 L 254 514 L 315 514 L 315 455 L 254 455 L 254 373 L 178 373 L 178 455 L 15 455 Z M 82 506 L 180 506 L 180 628 L 82 506 Z" unicode="⁴" />
<glyph horiz-adv-x="535" d="M 526 116 C 507 78 479 48 442 24 C 404 0 364 -12 320 -12 C 261 -12 210 11 167 58 C 124 105 96 170 83 254 L 34 254 L 34 319 L 76 319 C 75 325 75 332 75 340 C 75 347 75 354 75 362 C 75 368 75 375 75 383 C 75 390 75 397 76 404 L 34 404 L 34 469 L 82 469 C 94 550 120 616 160 666 C 200 716 253 742 319 742 C 373 742 416 730 448 707 C 480 683 503 656 518 626 L 448 587 C 435 611 419 630 399 644 C 379 658 352 665 320 665 C 282 665 249 648 223 615 C 196 581 178 533 169 469 L 468 469 L 468 404 L 163 404 C 162 397 162 390 162 383 C 162 375 162 368 162 361 C 162 353 162 346 162 339 C 162 332 162 325 163 319 L 468 319 L 468 254 L 170 254 C 180 190 200 143 229 112 C 257 80 289 65 323 65 C 355 65 382 74 405 92 C 427 110 445 133 458 159 L 526 116 Z" unicode="€" />
<glyph horiz-adv-x="882" d="M 827 307 L 745 307 L 745 594 L 607 398 L 596 398 L 459 593 L 459 307 L 379 307 L 379 730 L 444 730 L 603 508 L 764 730 L 827 730 L 827 307 Z M 350 637 L 233 637 L 233 307 L 137 307 L 137 637 L 20 637 L 20 730 L 350 730 L 350 637 Z" unicode="™" />
<glyph horiz-adv-x="743" d="M 41 0 L 41 85 L 256 85 L 256 153 C 190 174 136 211 94 265 C 52 318 32 378 32 445 C 32 487 39 526 55 563 C 71 599 93 631 122 658 C 151 685 186 706 228 722 C 270 738 316 746 368 746 C 421 746 469 738 512 722 C 554 706 590 684 620 657 C 649 630 671 598 687 562 C 703 525 711 486 711 445 C 711 377 691 317 653 265 C 614 213 558 175 486 153 L 486 85 L 701 85 L 701 0 L 419 0 L 419 203 C 479 223 525 255 559 299 C 592 343 609 390 609 440 C 609 473 603 504 591 532 C 579 560 562 584 541 604 C 519 624 494 639 464 651 C 434 662 402 668 368 668 C 334 668 302 662 274 651 C 245 639 220 623 200 603 C 179 583 163 558 151 530 C 139 502 134 471 134 438 C 134 389 150 343 183 300 C 215 256 262 224 324 203 L 324 0 L 41 0 Z" unicode="Ω" />
<glyph horiz-adv-x="551" d="M 510 288 C 510 236 503 191 491 153 C 478 115 461 85 440 61 C 418 37 393 19 364 7 C 334 -4 303 -10 271 -10 C 241 -10 211 -4 183 6 C 155 16 130 32 108 52 C 86 72 69 97 56 127 C 42 157 36 190 36 228 C 36 262 41 294 53 324 C 65 354 81 381 101 403 C 121 425 144 442 172 455 C 199 467 228 474 260 474 C 301 474 336 464 365 446 C 394 427 416 403 430 373 C 423 438 410 494 390 540 C 370 586 348 624 322 654 C 296 683 268 705 238 719 C 208 733 179 740 152 742 L 195 802 C 224 802 257 792 294 774 C 330 755 364 725 396 684 C 428 643 455 590 477 525 C 499 459 510 380 510 288 Z M 271 60 C 314 60 349 76 375 108 C 401 140 414 183 414 239 C 414 286 401 325 376 356 C 351 387 316 403 271 403 C 230 403 197 387 171 356 C 145 324 132 283 132 231 C 132 176 144 134 170 104 C 196 74 229 60 271 60 Z" unicode="∂" />
<glyph horiz-adv-x="623" d="M 622 0 L 1 0 L 286 732 L 340 732 L 622 0 Z M 492 76 L 307 579 L 125 76 L 492 76 Z" unicode="∆" />
<glyph horiz-adv-x="681" d="M 222 647 L 222 0 L 126 0 L 126 647 L 15 647 L 15 730 L 666 730 L 666 647 L 560 647 L 560 0 L 464 0 L 464 647 L 222 647 Z" unicode="∏" />
<glyph horiz-adv-x="589" d="M 177 644 L 409 307 L 144 -93 L 549 -93 L 549 -179 L -15 -179 L 310 306 L 15 730 L 528 730 L 528 644 L 177 644 Z" unicode="∑" />
<glyph horiz-adv-x="500" d="M 460 293 L 41 293 L 41 371 L 460 371 L 460 293 Z" unicode="−" />
<glyph horiz-adv-x="510" d="M 502 730 L 198 0 L 186 0 L 13 329 L 79 378 L 203 130 L 443 730 L 502 730 Z" unicode="√" />
<glyph horiz-adv-x="338" d="M 107 -27 L 165 628 C 168 664 182 692 207 712 C 231 731 256 741 282 741 C 295 741 308 740 321 739 C 334 738 342 737 345 737 L 338 656 C 336 656 332 657 326 658 C 320 658 314 659 308 659 C 289 659 273 652 261 640 C 249 627 242 607 240 581 L 184 -60 C 181 -92 168 -120 145 -144 C 121 -168 92 -179 58 -179 C 39 -179 22 -177 6 -173 C -10 -169 -22 -165 -30 -161 L -20 -96 C -16 -96 -9 -98 0 -101 C 9 -103 18 -105 27 -105 C 47 -105 64 -98 80 -84 C 95 -70 104 -51 107 -27 Z" unicode="∫" />
<glyph horiz-adv-x="490" d="M 387 499 L 454 499 C 453 451 444 412 428 382 C 411 352 385 337 351 337 C 328 337 308 341 290 351 C 272 361 256 372 244 385 C 231 397 218 408 205 417 C 192 426 178 431 164 431 C 150 431 136 422 122 406 C 108 389 102 367 102 340 L 36 340 C 36 390 46 429 66 458 C 86 486 113 501 147 501 C 169 501 190 495 209 484 C 227 472 243 460 257 448 C 269 437 282 427 294 418 C 306 409 319 405 333 405 C 352 405 366 412 374 428 C 382 444 387 467 387 499 Z M 387 322 L 454 322 C 453 274 444 235 428 205 C 411 175 385 161 351 161 C 328 161 308 165 290 175 C 272 184 257 195 244 208 C 230 220 217 231 205 240 C 192 248 178 253 164 253 C 150 253 136 245 122 229 C 108 213 102 191 102 164 L 36 164 C 36 213 46 252 66 281 C 86 309 113 324 147 324 C 169 324 190 318 208 306 C 226 294 242 281 256 269 C 268 258 281 248 293 240 C 305 231 319 227 333 227 C 352 227 366 234 374 250 C 382 265 387 289 387 322 Z" unicode="≈" />
<glyph horiz-adv-x="490" d="M 448 175 L 219 175 L 171 68 L 118 89 L 157 175 L 62 175 L 62 253 L 192 253 L 253 389 L 62 389 L 62 466 L 287 466 L 336 574 L 389 553 L 350 466 L 448 466 L 448 389 L 315 389 L 254 253 L 448 253 L 448 175 Z" unicode="≠" />
<glyph horiz-adv-x="490" d="M 58 295 L 58 355 L 428 556 L 428 477 L 149 327 L 428 176 L 428 97 L 58 295 Z M 57 87 L 428 87 L 428 23 L 57 23 L 57 87 Z" unicode="≤" />
<glyph horiz-adv-x="490" d="M 427 295 L 58 97 L 58 176 L 336 327 L 57 477 L 57 556 L 427 355 L 427 295 Z M 428 87 L 428 23 L 57 23 L 57 87 L 428 87 Z" unicode="≥" />
<glyph horiz-adv-x="533" d="M 504 326 L 272 -16 L 261 -16 L 30 326 L 30 337 L 261 678 L 272 678 L 504 337 L 504 326 Z M 417 327 L 417 336 L 271 556 L 263 556 L 117 336 L 117 327 L 263 106 L 271 106 L 417 327 Z" unicode="◊" />
<glyph horiz-adv-x="730" d="M 448 678 L 282 678 L 282 730 L 448 730 L 448 678 Z M 659 282 L 605 282 L 605 448 L 659 448 L 659 282 Z M 125 282 L 71 282 L 71 448 L 125 448 L 125 282 Z M 428 302 L 302 302 L 302 428 L 428 428 L 428 302 Z M 448 0 L 282 0 L 282 53 L 448 53 L 448 0 Z" unicode="" />
<glyph horiz-adv-x="584" d="M 337 454 L 199 454 L 199 0 L 107 0 L 107 454 L 16 454 L 16 530 L 107 530 L 107 613 C 107 644 112 671 122 695 C 132 719 145 738 161 754 C 177 770 196 782 216 790 C 236 798 257 802 278 802 C 294 802 311 800 329 796 C 347 792 360 788 368 784 L 342 706 C 336 708 328 711 318 714 C 307 716 297 718 287 718 C 267 718 248 710 228 694 C 208 678 198 651 198 613 L 198 530 L 337 530 L 337 454 Z M 513 639 L 415 639 L 415 726 L 513 726 L 513 639 Z M 511 0 L 417 0 L 417 530 L 511 530 L 511 0 Z" unicode="ﬁ" />
<glyph horiz-adv-x="605" d="M 337 460 L 197 460 L 197 0 L 105 0 L 105 460 L 12 460 L 12 540 L 105 540 L 105 613 C 105 644 110 671 120 695 C 130 719 144 738 160 754 C 176 770 194 782 215 790 C 235 798 256 802 277 802 C 293 802 310 800 328 796 C 346 792 358 788 366 784 L 340 706 C 334 708 326 711 316 714 C 305 716 295 718 285 718 C 265 718 246 710 226 694 C 206 678 196 651 196 613 L 196 540 L 337 540 L 337 460 Z M 400 117 L 400 800 L 493 800 L 493 143 C 493 122 498 106 508 95 C 518 83 533 78 553 78 C 559 78 567 78 575 79 C 583 80 589 81 593 83 L 599 4 C 593 1 583 -1 570 -3 C 557 -5 544 -6 532 -6 C 496 -6 465 4 439 24 C 413 44 400 75 400 117 Z" unicode="ﬂ" />
</font>
</defs>
</svg>
