<?xml version="1.0" encoding="utf-8" ?><svg version="1.1" xmlns = 'http://www.w3.org/2000/svg'><defs><font id='web' horiz-adv-x="1000">
<font-face font-family="web" descent="-200" cap-height="730" units-per-em="1000" bbox="-148,-308,961,1012" x-height="436" ascent="800" />
<missing-glyph horiz-adv-x="500" d="" /><glyph horiz-adv-x="184" d="" unicode=" " />
<glyph horiz-adv-x="258" d="M 167 431 L 145 188 L 114 188 L 94 431 L 94 730 L 167 730 L 167 431 Z M 164 0 L 97 0 L 97 85 L 164 85 L 164 0 Z" unicode="!" />
<glyph horiz-adv-x="333" d="M 274 624 L 269 496 L 218 496 L 214 623 L 214 730 L 274 730 L 274 624 Z M 118 623 L 115 496 L 63 496 L 59 623 L 59 730 L 118 730 L 118 623 Z" unicode="&#x22;" />
<glyph horiz-adv-x="562" d="M 514 235 L 388 235 L 367 0 L 325 1 L 346 235 L 197 235 L 176 0 L 133 1 L 154 235 L 30 235 L 30 292 L 159 292 L 171 435 L 49 435 L 49 491 L 176 491 L 197 730 L 240 729 L 219 491 L 368 491 L 389 730 L 431 729 L 410 491 L 533 491 L 533 435 L 405 435 L 393 292 L 514 292 L 514 235 Z M 202 292 L 351 292 L 363 435 L 214 435 L 202 292 Z" unicode="#" />
<glyph horiz-adv-x="466" d="M 427 182 C 427 130 410 88 378 56 C 345 23 305 4 257 0 L 257 -124 L 212 -124 L 212 0 C 174 2 139 11 109 26 C 78 41 52 61 30 87 L 61 134 C 79 111 101 93 129 80 C 157 67 184 59 212 57 L 212 353 C 154 381 113 411 87 441 C 61 471 48 512 48 562 C 48 609 63 648 94 679 C 124 709 164 726 212 730 L 212 791 L 257 791 L 257 730 C 287 727 315 720 341 708 C 366 696 389 680 410 660 L 374 616 C 357 633 338 646 318 655 C 298 664 277 670 257 673 L 257 400 L 260 398 C 324 365 367 333 391 301 C 415 269 427 229 427 182 Z M 110 560 C 110 530 118 505 132 486 C 146 466 173 445 212 423 L 212 674 C 183 670 159 658 139 638 C 119 618 110 592 110 560 Z M 366 184 C 366 213 358 239 343 261 C 328 283 299 306 257 330 L 257 58 C 285 62 311 75 333 96 C 355 117 366 146 366 184 Z" unicode="$" />
<glyph horiz-adv-x="694" d="M 176 364 C 160 364 144 367 128 375 C 112 383 97 394 85 410 C 72 426 62 445 54 469 C 46 493 42 520 42 552 C 42 578 45 603 52 626 C 58 649 67 669 79 686 C 91 703 105 716 122 726 C 138 736 156 741 176 741 C 196 741 215 736 232 726 C 249 716 264 702 276 686 C 288 669 297 649 303 627 C 309 604 313 580 313 555 C 313 528 309 503 303 480 C 296 456 286 436 274 419 C 262 401 247 388 231 378 C 214 368 196 364 176 364 Z M 152 0 L 102 0 L 527 730 L 576 730 L 152 0 Z M 175 414 C 189 414 202 417 212 425 C 222 433 231 443 237 456 C 243 468 248 483 251 500 C 254 516 256 533 256 551 C 256 568 254 585 251 602 C 248 618 243 633 237 646 C 231 659 223 670 213 678 C 203 686 192 690 178 690 C 164 690 153 686 143 678 C 133 670 124 660 118 647 C 112 634 107 619 104 603 C 101 586 100 569 100 551 C 100 515 106 483 118 455 C 130 427 149 414 175 414 Z M 515 -3 C 498 -3 481 0 465 8 C 449 16 434 27 422 43 C 409 59 399 78 391 102 C 383 126 380 153 380 185 C 380 211 383 236 390 259 C 396 282 406 302 418 319 C 430 336 444 349 461 359 C 478 369 497 374 517 374 C 538 374 557 369 574 359 C 590 349 604 335 616 319 C 628 302 637 282 643 260 C 649 237 653 213 653 188 C 653 161 649 136 643 113 C 636 89 627 69 615 52 C 603 34 588 21 571 11 C 554 1 535 -3 515 -3 Z M 514 48 C 528 48 540 51 550 59 C 560 67 569 77 576 90 C 582 102 587 117 590 134 C 593 150 595 167 595 185 C 595 202 593 219 590 236 C 587 252 582 267 576 280 C 570 293 562 304 552 312 C 542 320 530 324 517 324 C 491 324 471 309 458 281 C 444 253 438 221 438 185 C 438 148 444 116 457 89 C 470 61 489 48 514 48 Z" unicode="%" />
<glyph horiz-adv-x="620" d="M 559 -6 L 481 82 C 448 52 413 30 376 15 C 339 0 299 -8 255 -8 C 222 -8 192 -4 164 4 C 136 12 113 24 93 40 C 73 56 58 75 47 98 C 35 121 30 148 30 178 C 30 207 34 233 43 255 C 52 277 64 296 79 314 C 94 331 112 347 132 361 C 152 375 174 389 196 403 L 172 430 C 156 448 140 471 124 497 C 108 523 101 554 101 590 C 101 608 104 627 112 645 C 120 663 130 678 144 692 C 158 705 175 716 195 724 C 215 732 238 737 263 737 C 313 737 353 722 383 694 C 413 666 428 632 428 593 C 428 551 415 514 389 484 C 363 453 328 423 284 395 L 486 172 C 497 185 508 200 520 216 C 531 232 542 248 553 266 L 602 232 C 589 212 576 194 564 176 C 551 158 538 142 526 128 L 606 40 L 559 -6 Z M 220 465 L 248 434 C 286 458 315 481 335 505 C 355 528 365 553 365 581 C 365 609 356 633 339 653 C 322 673 297 684 265 684 C 234 684 210 673 193 653 C 175 632 167 610 167 586 C 167 565 171 544 181 523 C 190 501 203 482 220 465 Z M 101 181 C 101 159 105 140 114 124 C 122 108 134 94 149 83 C 163 71 180 63 200 57 C 220 51 240 48 262 48 C 296 48 328 54 358 68 C 388 81 416 100 443 125 L 232 362 C 194 338 163 312 138 284 C 113 256 101 222 101 181 Z" unicode="&#x26;" />
<glyph horiz-adv-x="179" d="M 120 622 L 116 493 L 62 493 L 58 622 L 58 730 L 120 730 L 120 622 Z" unicode="'" />
<glyph horiz-adv-x="292" d="M 272 -128 L 272 -179 C 238 -160 207 -135 177 -104 C 147 -73 120 -37 98 2 C 76 42 58 87 45 137 C 31 186 25 238 25 293 C 25 345 31 394 44 442 C 56 489 74 532 96 572 C 118 611 144 646 174 676 C 204 706 237 731 272 749 L 272 698 C 217 662 174 608 142 536 C 110 464 93 383 93 293 C 93 251 96 209 104 168 C 111 126 122 87 137 51 C 151 14 170 -19 193 -50 C 215 -80 242 -106 272 -128 Z" unicode="(" />
<glyph horiz-adv-x="292" d="M 20 699 L 20 749 C 52 733 84 710 114 681 C 144 651 170 617 192 577 C 214 537 232 492 246 442 C 260 392 267 338 267 282 C 267 230 260 180 247 132 C 234 84 216 41 194 1 C 172 -38 145 -73 115 -104 C 85 -134 53 -159 20 -179 L 20 -126 C 48 -106 74 -81 96 -52 C 118 -23 137 8 153 44 C 169 79 181 117 189 157 C 197 197 202 239 202 282 C 202 376 186 460 153 534 C 120 608 76 663 20 699 Z" unicode=")" />
<glyph horiz-adv-x="388" d="M 354 599 L 221 559 L 310 455 L 276 426 L 195 540 L 115 427 L 78 454 L 169 559 L 39 600 L 59 644 L 179 590 L 172 730 L 218 730 L 211 590 L 335 639 L 354 599 Z" unicode="*" />
<glyph horiz-adv-x="491" d="M 461 305 L 272 305 L 272 123 L 219 123 L 219 305 L 31 305 L 31 357 L 219 357 L 219 539 L 272 539 L 272 357 L 461 357 L 461 305 Z" unicode="+" />
<glyph horiz-adv-x="198" d="M 160 92 C 157 49 146 6 127 -36 C 108 -79 86 -115 61 -145 L 12 -122 C 26 -103 41 -74 59 -34 C 77 6 88 48 92 92 L 160 92 Z" unicode="," />
<glyph horiz-adv-x="316" d="M 276 231 L 41 231 L 41 290 L 276 290 L 276 231 Z" unicode="-" />
<glyph horiz-adv-x="199" d="M 134 0 L 65 0 L 65 110 L 134 110 L 134 0 Z" unicode="." />
<glyph horiz-adv-x="299" d="M 293 730 L 68 0 L 7 0 L 233 730 L 293 730 Z" unicode="/" />
<glyph horiz-adv-x="482" d="M 239 -9 C 179 -9 130 20 92 80 C 54 140 36 233 36 360 C 36 416 40 467 48 514 C 56 560 69 600 86 634 C 103 667 125 693 151 712 C 177 730 207 740 243 740 C 279 740 309 730 335 712 C 361 694 382 668 398 636 C 414 603 426 564 434 519 C 442 473 446 424 446 370 C 446 252 428 159 393 92 C 358 24 307 -9 239 -9 Z M 239 48 C 287 48 322 75 345 129 C 368 183 380 261 380 362 C 380 459 369 536 349 594 C 329 652 293 681 241 681 C 192 681 157 653 135 597 C 113 541 102 463 102 363 C 102 257 114 178 138 126 C 162 74 195 48 239 48 Z" unicode="0" />
<glyph horiz-adv-x="309" d="M 229 0 L 162 0 L 162 630 C 151 609 133 589 109 569 C 84 549 60 538 38 536 L 38 605 C 62 607 87 622 115 648 C 142 674 162 701 176 731 L 229 731 L 229 0 Z" unicode="1" />
<glyph horiz-adv-x="463" d="M 429 0 L 29 0 L 29 20 L 284 360 C 304 386 321 416 336 449 C 350 481 358 517 358 556 C 358 595 345 625 321 647 C 296 668 265 679 227 679 C 181 679 147 663 125 633 C 103 603 92 563 92 514 L 34 514 C 34 590 52 646 88 683 C 124 720 171 739 229 739 C 255 739 280 735 304 728 C 327 720 347 709 365 695 C 382 680 396 661 406 639 C 416 616 421 590 421 560 C 421 506 412 462 396 428 C 379 394 360 363 340 337 L 129 58 L 429 58 L 429 0 Z" unicode="2" />
<glyph horiz-adv-x="460" d="M 215 -9 C 163 -9 120 0 88 17 C 56 34 30 54 12 76 L 47 122 C 63 104 83 87 108 72 C 133 56 166 49 206 49 C 234 49 258 53 279 63 C 299 73 317 85 331 101 C 345 117 355 135 362 156 C 368 176 372 198 372 221 C 372 245 367 266 359 285 C 351 303 340 319 326 331 C 312 343 295 353 277 360 C 258 366 238 370 218 370 L 125 370 L 125 427 L 215 427 C 253 427 285 439 311 464 C 337 488 351 521 351 561 C 351 594 340 622 318 646 C 296 669 266 681 227 681 C 189 681 158 673 134 657 C 110 641 89 619 73 592 L 31 633 C 48 662 73 687 105 708 C 137 729 179 740 231 740 C 287 740 331 724 363 694 C 395 664 411 623 411 572 C 411 547 407 525 400 505 C 392 485 383 469 372 455 C 360 441 348 429 334 420 C 320 411 306 405 293 401 C 311 397 328 390 345 380 C 362 370 377 358 391 343 C 404 328 415 310 423 289 C 431 268 435 245 435 219 C 435 191 430 163 422 136 C 414 108 401 84 383 63 C 365 41 343 24 315 11 C 287 -2 253 -9 215 -9 Z" unicode="3" />
<glyph horiz-adv-x="468" d="M 460 213 L 364 213 L 364 0 L 305 0 L 305 213 L 8 213 L 7 257 L 323 741 L 364 741 L 364 269 L 460 269 L 460 213 Z M 305 269 L 305 616 L 78 269 L 305 269 Z" unicode="4" />
<glyph horiz-adv-x="454" d="M 220 -9 C 176 -9 135 0 99 15 C 62 31 34 52 16 78 L 55 123 C 71 100 92 82 120 68 C 148 54 180 48 216 48 C 262 48 298 65 326 101 C 354 136 368 183 368 242 C 368 296 355 338 329 368 C 303 398 271 414 231 414 C 193 414 163 406 141 390 C 119 374 102 353 90 327 L 44 338 L 70 730 L 394 730 L 393 671 L 120 671 L 103 395 C 113 415 130 432 154 448 C 178 463 210 471 250 471 C 303 471 347 452 381 414 C 415 376 433 321 433 248 C 433 166 413 103 373 58 C 333 13 282 -9 220 -9 Z" unicode="5" />
<glyph horiz-adv-x="453" d="M 236 -10 C 176 -10 126 10 88 51 C 50 92 31 148 31 220 C 31 296 48 371 83 444 C 118 516 169 595 237 680 L 287 745 L 336 712 L 299 666 C 241 594 196 530 165 475 C 134 419 115 374 108 339 C 118 362 135 382 159 400 C 183 417 213 426 249 426 C 304 426 348 405 382 364 C 415 323 432 271 432 208 C 432 177 427 148 418 122 C 408 96 395 73 378 53 C 360 33 340 18 316 7 C 292 -4 265 -10 236 -10 Z M 236 46 C 276 46 308 61 332 91 C 356 121 369 160 369 206 C 369 255 357 295 334 325 C 311 355 279 370 237 370 C 199 370 166 356 139 328 C 111 300 98 261 98 213 C 98 160 110 119 136 90 C 162 60 195 46 236 46 Z" unicode="6" />
<glyph horiz-adv-x="392" d="M 393 730 L 394 703 L 98 -4 L 41 20 L 316 671 L 11 671 L 11 730 L 393 730 Z" unicode="7" />
<glyph horiz-adv-x="478" d="M 312 387 C 328 383 344 377 361 368 C 377 359 392 347 406 332 C 420 316 431 298 440 276 C 448 254 453 228 453 200 C 453 137 434 86 396 48 C 358 10 306 -9 240 -9 C 174 -9 122 9 84 46 C 46 83 27 133 27 195 C 27 225 31 251 41 274 C 50 297 62 317 76 333 C 90 349 106 361 123 370 C 139 379 155 385 170 387 C 156 389 142 395 128 403 C 113 411 100 422 88 436 C 76 450 66 466 58 486 C 50 506 46 529 46 556 C 46 584 51 610 61 633 C 71 655 85 674 103 690 C 120 706 140 718 164 726 C 188 734 213 739 239 739 C 297 739 344 722 380 689 C 415 656 433 614 434 562 C 434 536 430 514 423 494 C 415 474 406 456 394 442 C 382 428 368 416 354 407 C 340 397 326 391 312 387 Z M 241 413 C 279 413 310 425 335 449 C 360 473 373 506 373 548 C 373 590 360 622 335 646 C 309 670 278 682 240 682 C 202 682 170 670 144 646 C 118 622 105 590 105 549 C 105 526 108 506 116 489 C 124 471 134 457 147 446 C 159 435 174 427 190 421 C 206 415 223 413 241 413 Z M 241 47 C 285 47 321 60 348 88 C 375 116 389 155 389 207 C 389 255 374 293 345 319 C 315 345 281 358 241 358 C 199 358 163 345 134 319 C 104 293 90 254 90 203 C 90 154 104 116 133 88 C 161 60 197 47 241 47 Z" unicode="8" />
<glyph horiz-adv-x="453" d="M 176 -12 L 128 24 L 169 69 C 189 92 210 119 230 149 C 250 179 269 209 286 240 C 302 270 316 300 328 329 C 340 357 348 382 352 403 C 340 377 320 354 292 334 C 264 314 233 304 199 304 C 171 304 146 309 124 321 C 102 332 83 347 68 367 C 53 387 41 410 33 437 C 25 463 21 492 21 524 C 21 554 25 583 35 610 C 45 636 58 659 76 678 C 93 697 114 712 139 723 C 163 734 190 740 220 740 C 247 740 273 735 298 725 C 322 715 344 700 362 680 C 380 660 395 636 406 607 C 416 577 422 544 422 506 C 422 464 416 422 405 380 C 393 338 379 297 361 258 C 343 219 322 182 300 147 C 278 112 255 82 233 56 L 176 -12 Z M 215 361 C 232 361 249 364 266 371 C 283 378 298 388 312 402 C 325 415 336 431 344 451 C 352 471 356 493 356 518 C 356 572 342 612 315 640 C 288 668 256 682 219 682 C 177 682 144 667 120 638 C 96 608 85 571 85 525 C 85 475 96 436 118 406 C 140 376 173 361 215 361 Z" unicode="9" />
<glyph horiz-adv-x="202" d="M 135 328 L 67 328 L 67 436 L 135 436 L 135 328 Z M 135 0 L 67 0 L 67 108 L 135 108 L 135 0 Z" unicode=":" />
<glyph horiz-adv-x="202" d="M 141 328 L 72 328 L 72 436 L 141 436 L 141 328 Z M 145 90 C 141 45 130 2 112 -39 C 94 -80 73 -115 48 -145 L -2 -122 C 12 -103 29 -74 47 -34 C 65 5 76 46 79 90 L 145 90 Z" unicode=";" />
<glyph horiz-adv-x="360" d="M 317 98 L 38 304 L 38 345 L 317 549 L 317 486 L 103 325 L 317 162 L 317 98 Z" unicode="&#x3C;" />
<glyph horiz-adv-x="500" d="M 442 394 L 58 394 L 58 450 L 442 450 L 442 394 Z M 442 186 L 58 186 L 58 243 L 442 243 L 442 186 Z" unicode="=" />
<glyph horiz-adv-x="360" d="M 321 304 L 42 98 L 42 162 L 255 325 L 42 486 L 42 549 L 321 345 L 321 304 Z" unicode="&#x3E;" />
<glyph horiz-adv-x="431" d="M 167 189 C 167 235 172 273 183 303 C 193 333 211 362 236 390 C 245 400 255 412 267 424 C 278 436 288 448 298 462 C 308 476 316 491 323 508 C 329 525 333 544 333 565 C 333 601 321 630 297 652 C 273 673 243 684 208 684 C 177 684 150 676 126 661 C 102 645 81 626 65 602 L 24 641 C 48 673 77 698 111 716 C 145 733 182 742 220 742 C 275 742 319 727 352 697 C 385 667 402 625 402 572 C 402 546 398 523 391 503 C 383 483 374 464 363 447 C 351 429 339 413 325 399 C 311 384 297 370 285 357 C 262 335 247 309 241 277 C 235 245 231 216 231 189 L 167 189 Z M 164 0 L 164 89 L 236 89 L 236 0 L 164 0 Z" unicode="?" />
<glyph horiz-adv-x="838" d="M 415 -30 C 361 -30 312 -20 266 0 C 220 20 180 47 147 81 C 113 115 87 155 68 201 C 49 247 40 296 40 348 C 40 400 49 450 68 496 C 87 542 113 583 147 617 C 181 651 221 677 267 697 C 313 717 363 727 417 727 C 473 727 524 718 571 701 C 618 683 658 659 691 628 C 724 597 750 560 768 518 C 786 476 796 430 796 380 C 796 335 790 297 780 266 C 769 234 756 209 740 190 C 724 170 707 156 688 148 C 668 139 650 135 634 135 C 603 135 579 142 561 158 C 543 173 533 192 530 214 C 522 197 503 180 472 162 C 441 144 407 135 370 135 C 320 135 282 147 257 171 C 232 195 220 225 220 261 C 220 305 237 339 273 364 C 308 388 354 401 410 401 L 523 401 L 523 415 C 523 457 512 486 491 502 C 469 518 443 526 413 526 C 387 526 362 522 340 516 C 317 509 298 502 282 496 L 263 542 C 282 551 305 559 332 565 C 358 571 385 574 411 574 C 467 574 508 559 536 531 C 564 503 578 460 578 404 L 578 246 C 578 229 582 214 591 200 C 599 186 615 179 638 180 C 647 180 658 182 671 188 C 683 193 695 203 707 217 C 718 231 727 250 735 276 C 743 302 747 335 747 375 C 747 418 739 458 723 496 C 707 533 685 565 657 593 C 628 620 593 641 553 657 C 512 673 467 681 418 681 C 371 681 327 672 287 655 C 247 637 212 614 183 584 C 154 554 131 518 115 478 C 98 438 90 395 90 349 C 90 303 98 260 115 220 C 131 179 154 144 183 114 C 212 84 247 60 287 42 C 327 24 370 16 417 16 C 437 16 459 18 481 22 C 503 26 527 34 552 46 L 570 4 C 542 -8 516 -17 490 -22 C 464 -27 439 -30 415 -30 Z M 382 183 C 397 183 413 185 429 189 C 445 193 459 199 472 206 C 485 212 496 220 506 228 C 515 236 521 245 523 253 L 523 355 L 412 355 C 368 355 335 347 313 331 C 291 315 281 294 281 266 C 281 242 289 222 307 206 C 324 190 349 183 382 183 Z" unicode="@" />
<glyph horiz-adv-x="526" d="M 521 0 L 453 0 L 385 209 L 137 209 L 71 0 L 4 0 L 240 734 L 286 734 L 521 0 Z M 369 268 L 261 605 L 153 268 L 369 268 Z" unicode="A" />
<glyph horiz-adv-x="488" d="M 80 0 L 80 730 L 246 730 C 298 730 341 714 375 684 C 409 654 426 612 426 560 C 426 508 413 467 389 437 C 365 406 335 388 301 383 C 318 381 336 377 354 369 C 372 361 389 350 404 336 C 418 322 430 304 440 282 C 449 260 454 235 454 207 C 454 145 436 95 401 57 C 366 19 319 0 261 0 L 80 0 Z M 147 406 L 234 406 C 278 406 309 420 328 448 C 347 476 357 508 357 545 C 357 583 346 613 324 635 C 302 657 270 668 230 668 L 147 668 L 147 406 Z M 147 62 L 252 62 C 298 62 331 76 353 105 C 374 133 385 168 385 210 C 385 254 371 287 344 311 C 317 335 284 347 245 347 L 147 347 L 147 62 Z" unicode="B" />
<glyph horiz-adv-x="549" d="M 316 -9 C 278 -9 243 -1 210 15 C 176 31 147 54 123 85 C 98 116 78 155 64 202 C 50 249 43 303 43 365 C 43 423 49 475 62 521 C 75 567 93 607 117 639 C 140 671 169 695 203 713 C 237 730 274 739 316 739 C 375 739 421 727 454 703 C 486 679 512 651 531 617 L 475 582 C 459 607 439 629 415 647 C 391 665 358 674 317 674 C 254 674 204 647 168 594 C 132 541 114 463 114 361 C 114 307 119 261 131 223 C 143 184 158 152 178 128 C 197 103 219 85 244 73 C 268 61 294 55 320 55 C 362 55 397 64 424 83 C 451 102 473 127 490 159 L 541 129 C 520 87 491 54 454 29 C 416 3 370 -9 316 -9 Z" unicode="C" />
<glyph horiz-adv-x="600" d="M 80 0 L 80 730 L 241 730 C 291 730 335 721 375 704 C 414 687 447 663 474 632 C 500 601 521 563 535 519 C 549 474 557 424 557 370 C 557 318 550 269 536 224 C 522 179 502 140 475 107 C 448 73 414 47 373 28 C 332 9 285 0 231 0 L 80 0 Z M 149 61 L 228 61 C 273 61 312 68 344 84 C 376 99 403 120 424 147 C 444 174 460 206 470 244 C 480 282 485 323 485 367 C 485 463 463 538 420 590 C 376 642 316 668 240 668 L 149 668 L 149 61 Z" unicode="D" />
<glyph horiz-adv-x="445" d="M 419 0 L 80 0 L 80 730 L 402 730 L 402 667 L 148 667 L 148 394 L 393 394 L 393 331 L 148 331 L 148 63 L 419 63 L 419 0 Z" unicode="E" />
<glyph horiz-adv-x="396" d="M 378 667 L 150 667 L 150 398 L 366 398 L 366 335 L 150 335 L 150 0 L 80 0 L 80 730 L 378 730 L 378 667 Z" unicode="F" />
<glyph horiz-adv-x="607" d="M 332 353 L 567 353 L 567 128 C 545 86 514 52 472 28 C 430 3 380 -9 322 -9 C 283 -9 247 0 213 17 C 179 35 149 60 124 92 C 99 124 79 164 65 210 C 50 256 43 308 43 365 C 43 422 50 474 64 520 C 78 566 97 606 122 638 C 147 670 177 695 211 713 C 245 730 283 739 323 739 C 381 739 426 727 460 703 C 494 679 520 651 538 620 L 483 588 C 467 612 447 632 422 649 C 396 666 363 675 321 675 C 261 675 211 648 172 594 C 133 540 114 463 114 364 C 114 316 119 272 130 234 C 140 195 155 162 174 135 C 192 108 215 87 241 73 C 267 58 295 51 326 51 C 366 51 402 59 433 76 C 464 93 488 116 505 146 L 505 291 L 332 291 L 332 353 Z" unicode="G" />
<glyph horiz-adv-x="611" d="M 531 0 L 461 0 L 461 328 L 150 328 L 150 0 L 80 0 L 80 730 L 150 730 L 150 394 L 461 394 L 461 730 L 531 730 L 531 0 Z" unicode="H" />
<glyph horiz-adv-x="238" d="M 155 0 L 84 0 L 84 730 L 155 730 L 155 0 Z" unicode="I" />
<glyph horiz-adv-x="314" d="M 248 730 L 248 185 C 248 158 244 133 237 109 C 229 85 218 65 204 47 C 190 29 172 16 151 6 C 130 -4 106 -9 80 -9 C 67 -9 54 -8 41 -6 C 28 -4 18 -2 10 0 L 12 65 C 16 62 24 60 36 58 C 47 56 58 55 69 55 C 104 55 131 68 150 94 C 169 120 179 152 179 190 L 179 730 L 248 730 Z" unicode="J" />
<glyph horiz-adv-x="540" d="M 542 0 L 459 0 L 220 359 L 150 271 L 150 0 L 80 0 L 80 730 L 150 730 L 150 354 L 433 730 L 513 730 L 268 406 L 542 0 Z" unicode="K" />
<glyph horiz-adv-x="400" d="M 393 0 L 80 0 L 80 730 L 150 730 L 150 63 L 393 63 L 393 0 Z" unicode="L" />
<glyph horiz-adv-x="727" d="M 647 0 L 580 0 L 580 579 L 380 161 L 349 161 L 146 578 L 146 0 L 80 0 L 80 730 L 135 730 L 365 267 L 594 730 L 647 730 L 647 0 Z" unicode="M" />
<glyph horiz-adv-x="619" d="M 540 0 L 489 0 L 146 580 L 146 0 L 80 0 L 80 730 L 131 730 L 475 151 L 475 730 L 540 730 L 540 0 Z" unicode="N" />
<glyph horiz-adv-x="661" d="M 333 -9 C 289 -9 250 0 214 17 C 178 34 148 59 123 91 C 97 123 78 163 64 211 C 50 258 43 311 43 371 C 43 427 50 477 64 523 C 78 568 97 607 122 639 C 147 671 177 695 212 713 C 247 730 285 739 327 739 C 416 739 487 705 540 639 C 592 573 619 482 619 366 C 619 308 611 256 597 210 C 582 164 562 124 537 92 C 511 60 481 35 446 17 C 411 0 373 -9 333 -9 Z M 332 53 C 394 53 445 80 486 135 C 526 189 547 268 547 371 C 547 467 526 541 486 595 C 445 649 393 676 329 676 C 263 676 211 649 173 596 C 134 543 115 466 115 365 C 115 313 120 268 131 229 C 142 190 157 158 177 132 C 196 106 219 86 246 73 C 272 59 301 53 332 53 Z" unicode="O" />
<glyph horiz-adv-x="479" d="M 80 0 L 80 730 L 260 730 C 287 730 313 725 337 716 C 361 707 381 694 399 677 C 417 660 431 639 441 613 C 451 587 457 558 457 526 C 457 460 438 408 402 369 C 366 329 320 310 264 310 L 150 310 L 150 0 L 80 0 Z M 150 371 L 244 371 C 288 371 323 384 349 411 C 374 437 387 476 387 526 C 387 573 372 609 343 633 C 314 657 280 669 241 669 L 150 669 L 150 371 Z" unicode="P" />
<glyph horiz-adv-x="657" d="M 571 -93 L 571 -155 C 526 -150 483 -133 442 -104 C 401 -75 369 -43 347 -7 C 344 -7 342 -7 340 -7 C 338 -7 335 -7 333 -7 C 289 -7 250 1 214 18 C 178 35 148 60 123 92 C 97 124 78 164 64 211 C 50 258 43 311 43 371 C 43 427 50 477 64 523 C 78 568 98 607 123 639 C 148 671 178 695 213 713 C 248 730 286 739 328 739 C 416 739 486 705 539 639 C 592 573 619 481 619 365 C 619 271 599 193 561 130 C 523 67 474 26 414 6 C 433 -20 457 -43 487 -61 C 516 -79 544 -90 571 -93 Z M 332 50 C 362 50 391 57 417 71 C 443 85 466 106 486 133 C 505 160 520 194 531 234 C 541 274 547 319 547 371 C 547 420 541 464 530 502 C 519 540 504 573 485 599 C 465 625 442 644 416 658 C 389 671 360 678 329 678 C 264 678 212 651 173 598 C 134 545 115 467 115 364 C 115 313 120 268 131 229 C 142 189 157 156 177 130 C 196 104 219 84 246 70 C 272 56 301 50 332 50 Z" unicode="Q" />
<glyph horiz-adv-x="499" d="M 80 0 L 80 730 L 238 730 C 292 730 337 713 372 680 C 407 647 425 599 425 537 C 425 478 411 431 383 397 C 355 363 324 343 288 339 L 286 337 L 479 0 L 401 0 L 219 322 L 146 322 L 146 0 L 80 0 Z M 146 382 L 234 382 C 269 383 298 396 321 421 C 344 445 356 481 356 527 C 356 573 344 608 320 632 C 296 656 265 668 227 668 L 146 668 L 146 382 Z" unicode="R" />
<glyph horiz-adv-x="425" d="M 218 -9 C 178 -9 141 -1 108 13 C 75 27 47 50 24 80 L 63 129 C 81 101 103 81 131 68 C 158 55 185 49 213 49 C 245 49 273 60 297 83 C 321 106 333 136 333 174 C 333 210 323 240 305 266 C 287 291 253 318 203 347 C 151 377 111 407 83 438 C 55 468 42 512 42 568 C 42 619 58 660 92 692 C 125 723 166 739 215 739 C 253 739 285 732 312 720 C 339 707 362 691 381 673 L 345 623 C 329 638 311 651 289 661 C 267 671 243 677 218 677 C 187 677 161 666 141 646 C 120 626 110 599 110 565 C 110 529 119 501 137 479 C 155 457 191 431 245 402 C 303 370 343 336 366 302 C 388 267 400 226 400 178 C 400 148 395 122 385 99 C 375 75 361 56 345 40 C 328 24 309 11 287 3 C 265 -4 242 -9 218 -9 Z" unicode="S" />
<glyph horiz-adv-x="417" d="M 408 667 L 242 667 L 242 0 L 172 0 L 172 667 L 8 667 L 8 730 L 408 730 L 408 667 Z" unicode="T" />
<glyph horiz-adv-x="602" d="M 527 730 L 527 230 C 527 189 521 153 509 123 C 497 93 480 68 460 49 C 439 29 415 15 387 5 C 359 -4 329 -9 298 -9 C 268 -9 239 -4 212 5 C 184 14 160 28 140 47 C 120 66 104 91 92 121 C 80 151 74 188 74 230 L 74 730 L 142 730 L 142 228 C 142 168 157 124 188 96 C 218 67 256 53 300 53 C 342 53 379 66 411 94 C 442 121 458 166 458 228 L 458 730 L 527 730 Z" unicode="U" />
<glyph horiz-adv-x="519" d="M 515 730 L 280 -5 L 232 -5 L 4 730 L 74 730 L 259 130 L 447 730 L 515 730 Z" unicode="V" />
<glyph horiz-adv-x="754" d="M 739 730 L 564 -5 L 519 -5 L 374 589 L 226 -5 L 181 -5 L 8 730 L 76 730 L 208 141 L 352 730 L 401 730 L 543 141 L 677 730 L 739 730 Z" unicode="W" />
<glyph horiz-adv-x="481" d="M 398 0 L 240 312 L 80 0 L 9 0 L 205 381 L 28 730 L 100 730 L 241 452 L 384 730 L 453 730 L 276 383 L 470 0 L 398 0 Z" unicode="X" />
<glyph horiz-adv-x="512" d="M 509 730 L 289 297 L 289 0 L 219 0 L 219 299 L 2 730 L 77 730 L 257 370 L 439 730 L 509 730 Z" unicode="Y" />
<glyph horiz-adv-x="470" d="M 438 730 L 438 696 L 106 63 L 451 63 L 451 0 L 17 0 L 17 32 L 351 666 L 51 666 L 51 730 L 438 730 Z" unicode="Z" />
<glyph horiz-adv-x="227" d="M 196 -179 L 54 -179 L 54 730 L 196 730 L 196 677 L 116 677 L 116 -125 L 196 -125 L 196 -179 Z" unicode="[" />
<glyph horiz-adv-x="299" d="M 7 730 L 65 730 L 293 0 L 233 0 L 7 730 Z" unicode="\" />
<glyph horiz-adv-x="229" d="M 175 -179 L 33 -179 L 33 -127 L 112 -127 L 112 678 L 33 678 L 33 730 L 175 730 L 175 -179 Z" unicode="]" />
<glyph horiz-adv-x="455" d="M 412 369 L 354 369 L 225 663 L 101 369 L 45 369 L 197 730 L 254 730 L 412 369 Z" unicode="^" />
<glyph horiz-adv-x="451" d="M 451 -150 L 0 -150 L 0 -94 L 451 -94 L 451 -150 Z" unicode="_" />
<glyph horiz-adv-x="500" d="M 327 499 L 263 499 L 163 668 L 237 668 L 327 499 Z" unicode="`" />
<glyph horiz-adv-x="397" d="M 346 0 L 287 0 L 287 56 C 275 40 257 25 235 12 C 212 0 185 -7 155 -7 C 117 -7 85 4 60 28 C 35 51 23 84 23 127 C 23 173 38 207 70 230 C 102 253 141 266 189 269 L 284 275 L 284 303 C 284 333 275 356 259 371 C 242 386 218 394 188 394 C 161 394 138 389 120 380 C 101 371 87 362 78 354 L 56 397 C 70 410 89 421 113 431 C 137 440 167 445 201 445 C 241 445 276 433 304 411 C 332 389 346 355 346 309 L 346 0 Z M 285 98 L 285 227 L 198 222 C 167 220 140 211 118 196 C 96 181 85 158 85 128 C 85 100 94 80 112 67 C 130 53 151 47 176 47 C 201 47 223 52 243 63 C 262 73 276 85 285 98 Z" unicode="a" />
<glyph horiz-adv-x="440" d="M 250 -5 C 214 -5 185 3 162 21 C 139 38 123 59 115 84 L 115 0 L 54 0 L 54 757 L 116 757 L 116 341 C 124 366 139 389 163 411 C 186 432 216 443 253 443 C 302 443 341 422 370 382 C 399 342 414 290 414 228 C 414 156 398 100 367 58 C 335 16 296 -5 250 -5 Z M 230 43 C 264 43 292 58 314 90 C 335 122 346 165 346 220 C 346 271 335 312 315 343 C 295 374 266 390 230 390 C 199 390 172 375 149 346 C 125 316 114 271 114 210 C 114 178 117 152 124 131 C 131 109 140 92 151 79 C 161 66 174 57 188 51 C 202 45 216 43 230 43 Z" unicode="b" />
<glyph horiz-adv-x="374" d="M 320 115 L 365 84 C 359 74 353 63 345 53 C 337 42 327 32 315 23 C 303 14 288 7 272 1 C 255 -4 235 -7 213 -7 C 183 -7 157 -1 134 10 C 110 21 91 36 75 56 C 59 76 46 99 38 127 C 30 154 26 184 26 217 C 26 247 30 276 39 304 C 47 332 60 356 76 377 C 92 397 112 414 136 426 C 160 438 186 444 216 444 C 256 444 288 434 312 415 C 336 395 355 375 367 355 L 321 319 C 310 337 296 353 280 367 C 264 381 242 388 215 388 C 177 388 148 371 126 339 C 104 306 93 266 93 219 C 93 167 104 125 127 94 C 149 62 180 47 218 47 C 248 47 270 54 285 70 C 300 86 312 101 320 115 Z" unicode="c" />
<glyph horiz-adv-x="450" d="M 197 -6 C 171 -6 147 0 126 11 C 104 22 86 37 72 57 C 57 77 46 100 38 127 C 30 153 26 182 26 213 C 26 281 42 337 75 379 C 108 421 149 443 198 443 C 234 443 264 433 287 413 C 310 393 326 369 334 343 L 334 757 L 396 757 L 396 0 L 336 0 L 336 96 C 328 71 314 48 292 26 C 270 4 238 -6 197 -6 Z M 216 45 C 250 45 278 60 301 92 C 324 124 336 167 336 222 C 336 276 323 318 298 347 C 273 375 244 390 211 390 C 175 390 147 374 126 343 C 104 311 94 270 94 218 C 94 168 104 127 126 94 C 147 61 177 45 216 45 Z" unicode="d" />
<glyph horiz-adv-x="412" d="M 218 -7 C 162 -7 116 12 80 52 C 44 91 26 146 26 216 C 26 284 43 339 79 381 C 114 423 158 444 210 444 C 266 444 310 423 342 382 C 374 340 391 281 391 204 L 89 204 C 89 148 102 107 126 82 C 150 56 182 44 220 44 C 254 44 280 50 298 63 C 316 76 331 90 344 106 L 380 72 C 365 53 346 35 322 18 C 298 1 264 -7 218 -7 Z M 91 250 L 329 250 C 328 291 317 325 297 352 C 276 379 248 393 212 393 C 176 393 147 379 126 352 C 105 325 93 291 91 250 Z" unicode="e" />
<glyph horiz-adv-x="235" d="M 225 380 L 148 380 L 148 0 L 84 0 L 84 380 L 21 380 L 21 436 L 84 436 L 84 638 C 84 678 95 708 117 729 C 139 749 162 760 187 760 C 197 760 207 758 217 756 C 227 754 234 751 239 749 L 227 692 C 224 693 220 694 215 696 C 209 698 204 699 198 699 C 184 699 172 693 162 681 C 152 669 147 652 147 628 L 147 436 L 225 436 L 225 380 Z" unicode="f" />
<glyph horiz-adv-x="448" d="M 200 -4 C 147 -4 105 16 73 57 C 41 97 26 150 26 216 C 26 285 42 340 76 381 C 109 422 150 443 199 443 C 233 443 261 432 285 412 C 309 391 325 368 334 344 L 334 436 L 394 436 L 394 13 C 394 -22 388 -53 378 -79 C 368 -105 354 -127 337 -145 C 320 -162 300 -175 278 -183 C 256 -191 233 -196 209 -196 C 175 -196 149 -192 129 -186 C 109 -180 93 -173 83 -167 L 103 -119 C 113 -125 127 -130 143 -136 C 159 -141 179 -144 205 -144 C 240 -144 270 -131 295 -106 C 320 -80 333 -43 333 6 L 333 97 C 325 71 309 47 286 27 C 263 6 234 -4 200 -4 Z M 215 43 C 248 43 276 58 300 90 C 324 122 336 166 336 222 C 336 276 323 318 297 348 C 271 377 243 392 211 392 C 177 392 148 376 126 344 C 104 312 93 271 93 219 C 93 168 103 126 124 93 C 144 59 175 43 215 43 Z" unicode="g" />
<glyph horiz-adv-x="431" d="M 378 0 L 314 0 L 314 293 C 314 325 305 349 289 365 C 273 381 250 389 222 389 C 195 389 171 380 150 363 C 128 345 118 315 118 272 L 118 0 L 54 0 L 54 757 L 115 757 L 115 356 C 121 380 136 401 158 418 C 180 435 209 444 245 444 C 285 444 317 433 341 411 C 365 389 378 356 378 311 L 378 0 Z" unicode="h" />
<glyph horiz-adv-x="180" d="M 56 545 L 56 617 L 124 617 L 124 545 L 56 545 Z M 58 0 L 58 436 L 122 436 L 122 0 L 58 0 Z" unicode="i" />
<glyph horiz-adv-x="178" d="M 125 545 L 57 545 L 57 617 L 125 617 L 125 545 Z M 123 436 L 123 -103 C 123 -131 114 -155 98 -173 C 81 -191 60 -201 34 -201 C 25 -201 16 -200 6 -198 C -3 -196 -9 -195 -13 -193 L -3 -142 C 0 -142 2 -143 6 -144 C 10 -144 14 -145 18 -145 C 28 -145 38 -140 46 -132 C 54 -124 59 -111 59 -95 L 59 436 L 123 436 Z" unicode="j" />
<glyph horiz-adv-x="388" d="M 395 1 L 324 0 L 192 207 L 118 111 L 118 0 L 54 0 L 54 757 L 115 757 L 115 184 L 304 436 L 373 436 L 235 254 L 395 1 Z" unicode="k" />
<glyph horiz-adv-x="175" d="M 120 777 L 120 0 L 56 0 L 56 777 L 120 777 Z" unicode="l" />
<glyph horiz-adv-x="686" d="M 54 0 L 54 436 L 114 436 L 114 358 C 120 384 135 404 159 420 C 182 436 211 444 246 444 C 280 444 307 436 328 420 C 349 404 362 382 367 356 L 370 356 C 378 382 393 404 416 420 C 438 436 467 444 502 444 C 541 444 573 433 597 411 C 621 389 634 357 634 314 L 634 0 L 570 0 L 570 290 C 570 324 561 349 545 365 C 529 381 506 389 478 389 C 451 389 427 380 406 362 C 385 344 375 313 375 269 L 375 0 L 312 0 L 312 291 C 312 327 303 352 287 367 C 270 381 248 389 222 389 C 196 389 172 380 150 362 C 128 344 117 313 117 269 L 117 0 L 54 0 Z" unicode="m" />
<glyph horiz-adv-x="430" d="M 378 0 L 314 0 L 314 300 C 314 328 306 350 290 366 C 274 381 251 389 223 389 C 195 389 171 380 150 363 C 128 345 118 315 118 271 L 118 0 L 54 0 L 54 436 L 115 436 L 115 357 C 122 382 137 403 159 419 C 181 435 210 444 246 444 C 286 444 318 433 342 412 C 366 390 378 359 378 319 L 378 0 Z" unicode="n" />
<glyph horiz-adv-x="429" d="M 215 -7 C 188 -7 163 -2 140 8 C 117 18 97 32 80 52 C 63 71 50 94 40 122 C 30 150 26 181 26 216 C 26 248 30 279 40 307 C 49 335 62 359 78 379 C 94 399 114 415 136 427 C 158 438 183 444 210 444 C 266 444 312 424 348 384 C 384 344 403 292 403 228 C 403 194 398 162 389 133 C 380 104 367 79 351 59 C 334 38 314 22 291 10 C 268 -1 243 -7 215 -7 Z M 214 46 C 252 46 281 61 303 93 C 325 125 336 167 336 221 C 336 273 324 314 302 344 C 280 374 249 390 210 390 C 176 390 148 374 126 344 C 104 313 93 272 93 220 C 93 162 104 119 127 90 C 150 60 179 46 214 46 Z" unicode="o" />
<glyph horiz-adv-x="440" d="M 54 -200 L 54 436 L 114 436 L 114 336 C 120 363 136 388 161 410 C 185 432 216 443 253 443 C 303 443 342 422 371 382 C 399 342 414 290 414 228 C 414 155 397 98 365 57 C 332 15 292 -5 246 -5 C 212 -5 184 3 161 20 C 137 37 122 57 116 79 L 116 -200 L 54 -200 Z M 230 43 C 264 43 292 58 314 89 C 335 119 346 162 346 217 C 346 267 336 308 318 341 C 299 374 270 391 230 391 C 199 391 172 377 148 349 C 124 321 113 275 113 211 C 113 149 124 105 148 80 C 171 55 198 43 230 43 Z" unicode="p" />
<glyph horiz-adv-x="450" d="M 334 -200 L 334 97 C 326 70 310 46 286 26 C 262 5 233 -5 198 -5 C 171 -5 147 0 126 12 C 104 23 86 39 72 59 C 57 79 46 102 38 129 C 30 156 26 185 26 216 C 26 283 42 338 75 380 C 108 422 149 444 197 444 C 235 444 265 433 289 413 C 312 392 328 368 336 342 L 336 436 L 396 436 L 396 -200 L 334 -200 Z M 214 45 C 247 45 276 60 300 91 C 324 121 336 165 336 221 C 336 275 323 316 299 346 C 275 375 246 390 213 390 C 177 390 148 374 126 343 C 104 312 94 271 94 219 C 94 170 104 129 125 95 C 146 61 176 45 214 45 Z" unicode="q" />
<glyph horiz-adv-x="309" d="M 310 413 L 287 360 C 276 370 265 377 253 381 C 241 385 228 387 216 387 C 205 387 194 384 182 380 C 170 375 160 368 151 358 C 141 348 133 335 127 319 C 121 303 118 283 118 260 L 118 0 L 54 0 L 54 436 L 116 436 L 116 352 C 122 374 135 395 155 414 C 175 433 199 443 228 443 C 245 443 261 440 275 434 C 289 428 301 421 310 413 Z" unicode="r" />
<glyph horiz-adv-x="322" d="M 170 -7 C 137 -7 109 -1 85 9 C 61 19 41 34 26 53 L 57 96 C 70 80 86 68 106 59 C 125 49 145 45 167 45 C 185 45 202 50 218 62 C 233 74 241 91 241 114 C 241 132 233 148 218 162 C 203 175 178 190 144 206 C 106 222 79 240 62 258 C 44 276 36 302 36 334 C 36 365 48 391 73 412 C 97 432 126 443 160 443 C 188 443 213 438 234 429 C 255 419 272 409 285 399 L 251 358 C 242 365 230 372 214 379 C 198 386 181 390 163 390 C 144 390 127 385 113 376 C 99 366 92 352 92 334 C 92 318 97 304 109 294 C 121 283 144 269 180 253 C 221 234 251 215 269 195 C 287 175 296 149 296 115 C 296 95 292 78 285 63 C 277 48 268 35 256 25 C 244 15 231 7 216 1 C 201 -4 186 -7 170 -7 Z" unicode="s" />
<glyph horiz-adv-x="212" d="M 198 57 L 206 7 C 202 4 195 1 187 -1 C 178 -3 168 -5 157 -5 C 147 -5 136 -3 125 0 C 114 2 104 7 95 15 C 85 22 78 32 72 45 C 66 58 63 74 63 94 L 63 380 L 14 380 L 14 436 L 64 436 L 64 553 L 126 561 L 126 436 L 196 436 L 196 380 L 127 380 L 127 95 C 127 80 131 69 139 62 C 147 54 158 51 171 51 C 175 51 180 51 186 53 C 192 54 196 55 198 57 Z" unicode="t" />
<glyph horiz-adv-x="430" d="M 52 436 L 116 436 L 116 139 C 116 107 124 83 141 67 C 157 51 180 43 209 43 C 235 43 259 51 280 69 C 301 87 312 118 312 163 L 312 436 L 376 436 L 376 0 L 314 0 L 314 73 C 305 49 289 29 267 15 C 245 0 217 -7 185 -7 C 147 -7 115 3 90 25 C 64 47 52 80 52 126 L 52 436 Z" unicode="u" />
<glyph horiz-adv-x="361" d="M 362 436 L 204 -2 L 154 -2 L -1 436 L 68 436 L 183 99 L 297 436 L 362 436 Z" unicode="v" />
<glyph horiz-adv-x="569" d="M 383 -2 L 285 299 L 185 -2 L 137 -2 L 5 436 L 69 436 L 167 92 L 265 392 L 310 392 L 405 92 L 507 436 L 565 436 L 430 -2 L 383 -2 Z" unicode="w" />
<glyph horiz-adv-x="352" d="M 276 0 L 174 171 L 72 0 L 6 0 L 141 226 L 16 436 L 86 436 L 176 284 L 267 436 L 333 436 L 209 229 L 345 0 L 276 0 Z" unicode="x" />
<glyph horiz-adv-x="363" d="M 362 436 L 167 -107 C 153 -141 136 -165 114 -179 C 92 -193 70 -200 48 -200 C 36 -200 26 -198 17 -196 C 7 -194 0 -192 -4 -190 L 15 -135 C 17 -136 22 -138 29 -140 C 36 -142 44 -143 52 -143 C 63 -143 75 -138 87 -128 C 99 -118 109 -101 118 -79 L 154 32 L -1 436 L 68 436 L 186 112 L 298 436 L 362 436 Z" unicode="y" />
<glyph horiz-adv-x="330" d="M 310 436 L 310 404 L 99 56 L 317 56 L 317 0 L 12 0 L 12 26 L 229 380 L 26 380 L 26 436 L 310 436 Z" unicode="z" />
<glyph horiz-adv-x="265" d="M 242 -179 C 216 -178 192 -174 169 -166 C 146 -158 126 -147 110 -134 C 93 -120 80 -105 70 -87 C 60 -69 55 -51 55 -31 C 55 -7 58 14 64 34 C 70 54 77 72 85 88 C 91 104 98 119 105 134 C 111 149 115 164 115 179 C 115 199 106 218 89 235 C 71 251 48 260 20 261 L 20 310 C 48 310 71 319 89 336 C 107 353 116 373 116 396 C 116 405 112 418 106 434 C 100 450 93 466 85 484 C 76 502 69 519 64 537 C 58 555 56 573 56 592 C 56 612 60 631 70 650 C 80 668 93 685 110 699 C 126 713 146 725 169 734 C 192 743 216 748 242 749 L 242 701 C 211 699 183 687 159 666 C 134 644 122 618 122 587 C 122 574 124 560 128 546 C 132 532 138 517 145 503 C 153 484 161 466 169 449 C 177 432 181 416 181 401 C 181 372 172 347 155 326 C 137 304 112 291 80 285 C 113 279 138 265 155 244 C 172 222 181 198 181 172 C 181 152 177 134 170 119 C 163 104 156 89 149 75 C 141 60 134 45 129 29 C 124 13 122 -2 122 -17 C 122 -45 133 -70 157 -93 C 181 -116 209 -128 242 -130 L 242 -179 Z" unicode="{" />
<glyph horiz-adv-x="232" d="M 147 -179 L 85 -179 L 85 730 L 147 730 L 147 -179 Z" unicode="|" />
<glyph horiz-adv-x="265" d="M 23 -179 L 23 -130 C 55 -128 84 -116 108 -93 C 132 -70 144 -45 144 -17 C 144 -2 141 13 136 29 C 130 45 124 60 117 75 C 109 89 102 104 95 119 C 88 134 85 152 85 172 C 85 198 93 222 110 244 C 126 265 151 279 184 285 C 151 291 126 304 110 326 C 93 347 85 372 85 401 C 85 416 88 432 96 449 C 103 466 111 484 120 503 C 127 517 133 532 137 546 C 141 560 143 574 143 587 C 143 618 130 644 106 666 C 81 687 53 699 23 701 L 23 749 C 49 748 73 743 96 734 C 118 725 138 713 155 699 C 172 685 185 668 195 650 C 205 631 210 612 210 592 C 210 573 207 555 201 537 C 195 519 189 502 181 484 C 172 466 164 450 158 434 C 152 418 149 405 149 396 C 149 373 158 353 176 336 C 194 319 217 310 245 310 L 245 261 C 217 260 194 251 177 235 C 159 218 151 199 151 179 C 151 164 154 149 160 134 C 166 119 173 104 181 88 C 188 72 195 54 201 34 C 207 14 210 -7 210 -31 C 210 -51 205 -69 195 -87 C 185 -105 171 -120 155 -134 C 138 -147 118 -158 95 -166 C 72 -174 48 -178 23 -179 Z" unicode="}" />
<glyph horiz-adv-x="462" d="M 377 432 L 428 432 C 427 382 419 343 405 317 C 391 291 367 278 335 278 C 311 278 292 283 277 295 C 261 306 247 318 234 331 C 219 345 205 357 193 367 C 180 377 165 383 149 383 C 132 383 117 374 104 356 C 91 338 85 313 85 281 L 35 281 C 35 331 44 369 63 396 C 81 423 105 437 135 437 C 159 437 180 431 196 419 C 212 407 227 394 243 380 C 255 368 268 356 281 346 C 293 336 308 331 325 331 C 345 331 359 339 366 355 C 373 371 377 396 377 432 Z" unicode="~" />
<glyph horiz-adv-x="266" d="M 100 602 L 167 602 L 167 517 L 100 517 L 100 602 Z M 97 174 L 119 417 L 149 417 L 170 174 L 170 -117 L 97 -117 L 97 174 Z" unicode="¡" />
<glyph horiz-adv-x="415" d="M 399 183 C 386 165 369 146 348 128 C 326 109 295 98 253 96 L 253 -11 L 209 -11 L 209 96 C 153 102 110 127 79 171 C 47 214 32 267 32 331 C 32 361 36 390 44 418 C 52 445 63 469 79 490 C 94 511 113 529 135 543 C 157 557 181 566 209 570 L 209 676 L 253 676 L 253 571 C 291 568 322 557 346 539 C 370 520 388 500 400 480 L 359 443 C 348 459 334 475 318 489 C 301 503 279 512 253 515 L 253 148 C 285 150 309 158 326 174 C 342 190 355 205 365 220 L 399 183 Z M 98 334 C 98 286 108 245 128 213 C 148 181 175 160 209 152 L 209 513 C 173 505 146 484 127 450 C 107 416 98 378 98 334 Z" unicode="¢" />
<glyph horiz-adv-x="494" d="M 482 60 L 482 0 L 17 0 L 17 51 C 22 53 30 55 40 57 C 50 59 65 61 83 65 C 94 67 106 70 118 76 C 130 81 140 88 150 97 C 160 106 168 117 174 131 C 180 144 184 159 184 177 C 184 183 183 190 181 198 C 179 206 177 213 175 221 L 27 221 L 27 272 L 153 272 C 147 284 140 296 133 309 C 126 322 119 336 113 350 L 27 350 L 27 401 L 90 401 C 82 421 75 443 70 467 C 64 491 62 516 62 542 C 62 580 68 612 80 638 C 92 664 108 684 128 700 C 148 715 171 726 197 732 C 223 738 250 742 278 742 C 322 742 363 733 401 715 C 439 697 467 681 484 665 L 449 610 C 434 624 411 639 381 656 C 350 673 317 682 281 682 C 262 682 243 679 225 675 C 207 670 191 662 177 650 C 163 638 152 623 144 603 C 135 583 131 559 131 530 C 131 507 134 485 140 464 C 146 442 153 421 162 401 L 417 401 L 417 350 L 186 350 C 192 336 199 323 206 310 C 212 297 218 284 224 272 L 417 272 L 417 221 L 241 221 C 241 216 242 211 243 207 C 243 203 244 198 244 194 C 244 172 240 153 233 137 C 226 121 217 108 207 98 C 197 87 186 79 175 73 C 164 67 155 62 147 60 L 482 60 Z" unicode="£" />
<glyph horiz-adv-x="502" d="M 438 182 L 408 152 L 346 216 C 332 207 316 200 300 196 C 284 191 267 189 250 189 C 232 189 214 191 198 196 C 182 201 167 208 153 217 L 91 152 L 59 184 L 119 246 C 105 260 95 277 87 295 C 79 313 76 333 76 354 C 76 374 79 394 87 413 C 95 431 105 448 119 463 L 59 525 L 89 555 L 152 490 C 166 498 181 505 198 511 C 214 516 232 519 250 519 C 268 519 286 516 303 511 C 319 505 335 498 349 489 L 414 556 L 444 525 L 382 461 C 394 446 404 430 412 412 C 420 394 424 374 424 354 C 424 332 420 312 412 293 C 404 274 393 257 379 243 L 438 182 Z M 250 237 C 284 237 313 248 338 272 C 362 295 375 322 375 354 C 375 385 362 412 338 436 C 313 459 284 471 250 471 C 215 471 185 459 161 436 C 137 412 125 385 125 354 C 125 322 137 295 161 272 C 185 248 215 237 250 237 Z" unicode="¤" />
<glyph horiz-adv-x="511" d="M 458 165 L 288 165 L 288 0 L 218 0 L 218 165 L 52 165 L 52 217 L 218 217 L 218 275 L 52 275 L 52 327 L 218 327 L 218 342 L 21 730 L 97 730 L 255 407 L 417 730 L 488 730 L 288 340 L 288 327 L 458 327 L 458 275 L 288 275 L 288 217 L 458 217 L 458 165 Z" unicode="¥" />
<glyph horiz-adv-x="250" d="M 97 351 L 97 730 L 153 730 L 153 351 L 97 351 Z M 153 200 L 153 -179 L 97 -179 L 97 200 L 153 200 Z" unicode="¦" />
<glyph horiz-adv-x="566" d="M 298 -180 C 249 -180 203 -173 159 -159 C 115 -145 79 -127 49 -105 L 74 -50 C 101 -71 134 -89 174 -104 C 214 -118 253 -126 291 -126 C 327 -126 357 -116 382 -96 C 406 -76 419 -49 419 -15 C 419 17 410 41 392 57 C 374 73 351 88 323 102 L 195 164 C 169 176 147 187 127 198 C 107 208 91 220 79 232 C 66 244 56 259 50 275 C 43 291 40 311 40 334 C 40 365 47 390 61 410 C 75 429 93 445 113 458 C 95 468 81 483 73 503 C 64 523 60 548 60 578 C 60 604 65 627 76 648 C 87 668 102 685 121 699 C 139 713 161 723 187 731 C 213 738 240 742 270 742 C 323 742 367 733 401 717 C 435 700 465 681 490 661 L 459 610 C 432 631 404 650 375 666 C 345 682 310 690 268 690 C 229 690 196 679 168 659 C 140 639 127 612 127 578 C 127 554 133 535 146 519 C 158 503 177 490 203 479 L 370 400 C 418 379 454 357 479 333 C 504 309 517 278 517 238 C 517 202 505 174 483 155 C 460 136 436 125 412 123 C 418 119 426 113 435 105 C 444 97 453 88 461 77 C 469 65 475 52 481 37 C 487 21 490 4 490 -14 C 490 -40 485 -63 475 -84 C 465 -104 451 -122 434 -136 C 417 -150 397 -160 373 -168 C 349 -176 324 -180 298 -180 Z M 364 152 C 384 154 403 161 422 174 C 441 186 451 206 451 234 C 451 258 440 280 420 298 C 400 316 370 334 330 352 L 166 430 C 149 419 134 407 122 394 C 109 381 103 363 103 339 C 103 310 113 287 134 271 C 155 254 186 236 226 218 L 364 152 Z" unicode="§" />
<glyph horiz-adv-x="500" d="M 353 500 L 300 500 L 300 656 L 353 656 L 353 500 Z M 200 500 L 147 500 L 147 656 L 200 656 L 200 500 Z" unicode="¨" />
<glyph horiz-adv-x="814" d="M 407 18 C 357 18 310 27 266 46 C 222 65 183 91 151 124 C 118 156 92 195 73 239 C 54 283 45 330 45 380 C 45 430 54 477 73 521 C 92 565 118 603 151 636 C 183 668 222 694 266 713 C 310 732 357 742 407 742 C 456 742 503 732 547 713 C 591 694 630 668 663 636 C 695 603 721 565 740 521 C 759 477 769 430 769 380 C 769 330 759 283 740 239 C 721 195 695 156 663 124 C 630 91 591 65 547 46 C 503 27 456 18 407 18 Z M 407 62 C 450 62 491 70 529 87 C 567 103 601 126 629 155 C 657 183 680 217 697 256 C 713 294 722 335 722 379 C 722 422 713 463 697 502 C 680 540 657 574 629 603 C 601 631 567 654 529 671 C 491 688 450 697 407 697 C 363 697 322 688 284 671 C 245 654 211 631 183 603 C 155 574 132 540 116 502 C 99 463 91 422 91 379 C 91 335 99 294 116 256 C 132 217 155 183 183 155 C 211 126 245 103 284 87 C 322 70 363 62 407 62 Z M 572 247 C 556 223 535 202 507 186 C 479 170 445 162 407 162 C 382 162 358 166 334 176 C 310 186 289 200 271 219 C 253 237 238 260 227 288 C 216 315 211 346 211 381 C 211 414 215 445 225 473 C 235 501 248 524 266 544 C 283 564 303 579 327 590 C 350 601 375 607 402 607 C 444 607 478 600 504 586 C 530 572 550 553 566 531 L 520 497 C 508 513 493 526 475 537 C 457 547 433 553 404 553 C 365 553 333 536 308 503 C 282 469 270 428 270 379 C 270 352 274 328 282 308 C 290 287 300 270 313 256 C 325 242 340 231 357 224 C 373 216 390 213 408 213 C 434 213 457 219 477 231 C 497 243 513 258 526 277 L 572 247 Z" unicode="©" />
<glyph horiz-adv-x="424" d="M 377 318 L 322 318 L 322 380 C 307 358 286 342 260 330 C 233 318 204 312 174 312 C 132 312 99 323 74 345 C 49 367 37 399 37 439 C 37 483 53 517 85 540 C 117 562 160 575 212 578 L 320 586 L 320 595 C 320 627 310 651 292 666 C 273 680 248 688 217 688 C 192 688 169 683 147 675 C 125 666 107 656 92 644 L 66 689 C 84 703 107 715 135 725 C 162 735 193 741 227 741 C 271 741 307 729 335 706 C 363 683 377 647 377 597 L 377 318 Z M 321 421 L 321 538 L 209 531 C 175 529 148 521 126 507 C 104 493 94 471 94 441 C 94 416 103 396 121 382 C 139 368 163 361 193 361 C 217 361 241 366 265 377 C 289 387 307 402 321 421 Z M 383 214 L 43 214 L 43 268 L 383 268 L 383 214 Z" unicode="ª" />
<glyph horiz-adv-x="410" d="M 197 97 L 29 262 L 29 303 L 197 466 L 197 401 L 86 281 L 197 166 L 197 97 Z M 379 97 L 211 262 L 211 303 L 379 466 L 379 401 L 268 281 L 379 166 L 379 97 Z" unicode="«" />
<glyph horiz-adv-x="500" d="M 450 370 L 450 132 L 394 132 L 394 312 L 32 312 L 32 370 L 450 370 Z" unicode="¬" />
<glyph horiz-adv-x="814" d="M 407 18 C 357 18 310 27 266 46 C 222 65 183 91 151 124 C 118 156 92 195 73 239 C 54 283 45 330 45 380 C 45 430 54 477 73 521 C 92 565 118 603 151 636 C 183 668 222 694 266 713 C 310 732 357 742 407 742 C 456 742 503 732 547 713 C 591 694 630 668 663 636 C 695 603 721 565 740 521 C 759 477 769 430 769 380 C 769 330 759 283 740 239 C 721 195 695 156 663 124 C 630 91 591 65 547 46 C 503 27 456 18 407 18 Z M 407 62 C 450 62 491 70 529 87 C 567 103 601 126 629 154 C 657 182 680 216 697 255 C 713 294 722 336 722 380 C 722 424 713 465 697 504 C 680 542 657 576 629 605 C 601 633 567 656 529 672 C 491 688 450 697 407 697 C 363 697 322 688 284 672 C 245 655 211 632 183 604 C 155 575 132 541 116 503 C 99 464 91 423 91 380 C 91 336 99 294 116 255 C 132 216 155 182 183 154 C 211 126 245 103 284 87 C 322 70 363 62 407 62 Z M 279 173 L 279 609 L 422 609 C 440 609 457 606 475 602 C 492 597 507 590 520 581 C 533 571 544 559 552 544 C 560 528 565 510 565 490 C 565 451 554 422 532 403 C 510 384 487 373 463 370 L 462 366 L 594 173 L 531 173 L 413 351 L 335 351 L 335 173 L 279 173 Z M 335 398 L 428 398 C 448 398 466 405 484 419 C 502 433 511 455 511 483 C 511 511 502 531 484 543 C 466 554 443 560 417 560 L 335 560 L 335 398 Z" unicode="®" />
<glyph horiz-adv-x="500" d="M 368 530 L 132 530 L 132 578 L 368 578 L 368 530 Z" unicode="¯" />
<glyph horiz-adv-x="416" d="M 208 386 C 183 386 160 390 138 400 C 116 409 98 422 82 438 C 66 454 53 472 44 494 C 34 516 30 539 30 564 C 30 588 34 611 44 633 C 53 655 66 674 82 690 C 98 706 116 718 138 728 C 160 737 183 742 208 742 C 232 742 255 737 277 728 C 299 718 318 706 334 690 C 350 674 362 655 372 633 C 381 611 386 588 386 564 C 386 539 381 516 372 494 C 362 472 350 454 334 438 C 318 422 299 409 277 400 C 255 390 232 386 208 386 Z M 208 438 C 242 438 271 450 296 475 C 321 500 334 530 334 564 C 334 598 321 628 296 653 C 271 677 242 690 208 690 C 174 690 144 677 119 653 C 94 628 82 598 82 564 C 82 530 94 500 119 475 C 144 450 174 438 208 438 Z" unicode="°" />
<glyph horiz-adv-x="500" d="M 472 305 L 278 305 L 278 116 L 222 116 L 222 305 L 28 305 L 28 357 L 222 357 L 222 546 L 278 546 L 278 357 L 472 357 L 472 305 Z M 466 30 L 36 30 L 36 80 L 466 80 L 466 30 Z" unicode="±" />
<glyph horiz-adv-x="339" d="M 306 372 L 28 372 L 28 393 L 198 547 C 206 555 215 565 224 578 C 232 590 237 605 237 623 C 237 641 230 657 217 671 C 203 685 183 692 157 692 C 127 692 105 683 93 666 C 80 649 73 629 73 607 L 21 607 C 21 641 33 672 57 700 C 81 727 116 741 162 741 C 206 741 239 730 261 709 C 283 688 295 663 295 634 C 295 607 289 585 279 567 C 268 549 257 535 246 525 L 124 420 L 306 420 L 306 372 Z" unicode="²" />
<glyph horiz-adv-x="346" d="M 222 569 C 250 565 272 555 289 539 C 306 523 315 502 315 477 C 315 464 312 451 307 438 C 302 424 294 412 282 401 C 270 390 254 381 234 374 C 214 367 190 364 162 364 C 123 364 92 368 69 378 C 46 388 28 398 16 408 L 48 441 C 58 433 73 426 92 419 C 111 412 134 409 160 409 C 196 409 222 416 238 431 C 254 445 263 463 263 484 C 263 506 254 522 236 531 C 218 539 195 544 169 544 L 98 544 L 98 586 L 165 586 C 189 586 209 590 224 600 C 238 610 246 624 246 643 C 246 658 239 671 226 681 C 212 691 192 696 164 696 C 139 696 118 691 100 682 C 82 672 68 661 58 649 L 26 679 C 38 695 56 709 78 722 C 100 735 131 742 171 742 C 213 742 245 733 267 716 C 289 698 300 677 300 653 C 300 631 292 612 277 598 C 262 583 244 573 222 569 Z" unicode="³" />
<glyph horiz-adv-x="500" d="M 174 499 L 263 668 L 337 668 L 237 499 L 174 499 Z" unicode="´" />
<glyph horiz-adv-x="587" d="M 78 -114 L 78 469 L 142 469 L 142 152 C 142 118 155 91 182 72 C 208 52 240 43 276 43 C 294 43 313 45 331 51 C 349 57 366 65 381 77 C 395 88 407 103 417 121 C 426 139 431 160 431 184 L 431 469 L 495 469 L 495 0 L 436 0 L 436 109 C 426 77 404 49 372 27 C 339 4 304 -7 266 -8 C 237 -8 211 -2 187 10 C 163 22 146 39 137 62 L 137 -114 L 78 -114 Z" unicode="µ" />
<glyph horiz-adv-x="572" d="M 518 -180 L 477 -179 L 477 678 L 365 678 L 365 -179 L 323 -179 L 323 290 L 241 290 C 213 290 185 295 159 307 C 133 319 109 334 89 354 C 69 374 53 397 41 423 C 29 449 23 477 23 507 C 23 538 28 567 40 595 C 51 622 67 646 88 666 C 108 686 133 701 162 713 C 191 724 223 730 259 730 L 518 730 L 518 -180 Z M 324 344 L 324 676 L 275 676 C 222 676 180 660 149 628 C 118 596 103 557 103 509 C 103 487 107 466 115 446 C 123 426 135 408 149 393 C 163 378 179 366 199 357 C 219 348 240 344 263 344 L 324 344 Z" unicode="¶" />
<glyph horiz-adv-x="221" d="M 144 294 L 77 294 L 77 407 L 144 407 L 144 294 Z" unicode="·" />
<glyph horiz-adv-x="500" d="M 253 -184 C 231 -184 210 -181 188 -175 C 166 -169 149 -161 137 -151 L 147 -122 C 156 -128 168 -135 184 -141 C 200 -147 217 -150 236 -150 C 252 -150 266 -146 278 -138 C 290 -130 296 -119 296 -107 C 296 -92 290 -81 280 -75 C 270 -69 258 -66 246 -66 C 237 -66 230 -66 224 -68 C 218 -70 211 -72 203 -75 L 191 -62 L 248 10 L 286 10 L 239 -53 C 271 -44 298 -45 320 -57 C 342 -69 354 -87 354 -111 C 354 -134 344 -152 324 -165 C 304 -177 280 -184 253 -184 Z" unicode="¸" />
<glyph horiz-adv-x="318" d="M 150 372 L 150 672 C 142 660 129 649 109 639 C 89 629 71 623 55 621 L 53 678 C 77 682 98 689 116 700 C 134 710 151 724 168 741 L 211 741 L 211 372 L 150 372 Z" unicode="¹" />
<glyph horiz-adv-x="415" d="M 204 311 C 180 311 156 316 134 326 C 112 336 92 350 76 368 C 59 386 45 408 35 434 C 25 460 20 490 20 522 C 20 550 24 578 34 604 C 44 630 57 653 74 673 C 91 693 111 709 134 721 C 156 733 181 739 207 739 C 233 739 258 733 281 723 C 304 713 324 699 341 681 C 357 663 370 641 380 615 C 390 589 395 562 395 532 C 395 501 390 472 380 445 C 370 418 356 395 339 375 C 322 355 302 339 279 328 C 255 316 230 311 204 311 Z M 206 363 C 244 363 275 378 300 410 C 324 441 337 480 337 528 C 337 572 325 609 302 641 C 278 672 246 688 206 688 C 169 688 138 671 114 639 C 90 607 78 568 78 522 C 78 475 90 437 115 407 C 139 377 170 363 206 363 Z M 39 214 L 39 268 L 373 268 L 373 214 L 39 214 Z" unicode="º" />
<glyph horiz-adv-x="410" d="M 30 466 L 199 301 L 199 260 L 30 97 L 30 162 L 141 282 L 30 397 L 30 466 Z M 213 466 L 380 301 L 380 260 L 213 97 L 213 162 L 324 282 L 213 397 L 213 466 Z" unicode="»" />
<glyph horiz-adv-x="694" d="M 12 0 L 12 0 Z M 109 372 L 109 672 C 101 660 88 649 68 639 C 48 629 30 623 14 621 L 12 678 C 36 682 57 689 75 700 C 93 710 110 724 127 741 L 170 741 L 170 372 L 109 372 Z M 568 730 L 182 0 L 124 0 L 510 730 L 568 730 Z M 385 88 L 385 128 L 578 368 L 617 368 L 617 131 L 682 131 L 682 88 L 617 88 L 617 1 L 563 1 L 563 88 L 385 88 Z M 438 127 L 564 127 L 564 288 L 438 127 Z" unicode="¼" />
<glyph horiz-adv-x="756" d="M 12 0 L 12 0 Z M 109 372 L 109 672 C 101 660 88 649 68 639 C 48 629 30 623 14 621 L 12 678 C 36 682 57 689 75 700 C 93 710 110 724 127 741 L 170 741 L 170 372 L 109 372 Z M 568 730 L 182 0 L 124 0 L 510 730 L 568 730 Z M 735 0 L 457 0 L 457 21 L 627 175 C 635 183 644 193 653 206 C 661 218 666 233 666 251 C 666 269 659 285 646 299 C 632 313 612 320 586 320 C 556 320 534 311 522 294 C 509 277 502 257 502 235 L 450 235 C 450 269 462 300 486 328 C 510 355 545 369 591 369 C 635 369 668 358 690 337 C 712 316 724 291 724 262 C 724 235 718 213 708 195 C 697 177 686 163 675 153 L 553 48 L 735 48 L 735 0 Z" unicode="½" />
<glyph horiz-adv-x="759" d="M 15 0 L 15 0 Z M 632 730 L 246 0 L 188 0 L 574 730 L 632 730 Z M 449 88 L 449 128 L 642 368 L 681 368 L 681 131 L 746 131 L 746 88 L 681 88 L 681 1 L 627 1 L 627 88 L 449 88 Z M 502 127 L 628 127 L 628 288 L 502 127 Z M 221 569 C 249 565 271 555 288 539 C 305 523 314 502 314 477 C 314 464 311 451 306 438 C 301 424 293 412 281 401 C 269 390 253 381 233 374 C 213 367 189 364 161 364 C 122 364 91 368 68 378 C 45 388 27 398 15 408 L 47 441 C 57 433 72 426 91 419 C 110 412 133 409 159 409 C 195 409 221 416 237 431 C 253 445 262 463 262 484 C 262 506 253 522 235 531 C 217 539 194 544 168 544 L 97 544 L 97 586 L 164 586 C 188 586 208 590 223 600 C 237 610 245 624 245 643 C 245 658 238 671 225 681 C 211 691 191 696 163 696 C 138 696 117 691 99 682 C 81 672 67 661 57 649 L 25 679 C 37 695 55 709 77 722 C 99 735 130 742 170 742 C 212 742 244 733 266 716 C 288 698 299 677 299 653 C 299 631 291 612 276 598 C 261 583 243 573 221 569 Z" unicode="¾" />
<glyph horiz-adv-x="434" d="M 197 514 L 197 602 L 270 602 L 270 514 L 197 514 Z M 214 -137 C 158 -137 113 -122 79 -93 C 45 -63 28 -22 28 32 C 28 57 31 80 39 100 C 47 120 56 139 68 156 C 79 172 92 188 106 202 C 120 216 133 229 145 242 C 169 264 185 291 192 323 C 198 355 202 385 203 414 L 267 414 C 267 366 261 327 251 297 C 241 267 223 238 197 211 C 187 200 176 189 164 178 C 152 166 141 154 131 140 C 121 126 113 111 107 95 C 100 78 97 59 97 39 C 97 2 109 -26 133 -48 C 157 -69 188 -80 224 -80 C 254 -80 282 -72 307 -56 C 331 -40 352 -21 369 2 L 410 -37 C 387 -68 359 -92 325 -110 C 291 -128 254 -137 214 -137 Z" unicode="¿" />
<glyph horiz-adv-x="526" d="M 4 0 L 4 0 Z M 521 0 L 453 0 L 385 209 L 137 209 L 71 0 L 4 0 L 240 734 L 286 734 L 521 0 Z M 369 268 L 261 605 L 153 268 L 369 268 Z M 260 793 L 260 793 Z M 342 793 L 278 793 L 178 962 L 252 962 L 342 793 Z" unicode="À" />
<glyph horiz-adv-x="526" d="M 4 0 L 4 0 Z M 521 0 L 453 0 L 385 209 L 137 209 L 71 0 L 4 0 L 240 734 L 286 734 L 521 0 Z M 369 268 L 261 605 L 153 268 L 369 268 Z M 260 793 L 260 793 Z M 179 793 L 268 962 L 342 962 L 242 793 L 179 793 Z" unicode="Á" />
<glyph horiz-adv-x="526" d="M 4 0 L 4 0 Z M 521 0 L 453 0 L 385 209 L 137 209 L 71 0 L 4 0 L 240 734 L 286 734 L 521 0 Z M 369 268 L 261 605 L 153 268 L 369 268 Z M 260 794 L 260 794 Z M 395 794 L 338 794 L 260 919 L 180 794 L 126 794 L 231 964 L 290 964 L 395 794 Z" unicode="Â" />
<glyph horiz-adv-x="526" d="M 4 0 L 4 0 Z M 521 0 L 453 0 L 385 209 L 137 209 L 71 0 L 4 0 L 240 734 L 286 734 L 521 0 Z M 369 268 L 261 605 L 153 268 L 369 268 Z M 260 802 L 260 802 Z M 357 930 L 405 930 C 405 886 399 854 387 833 C 375 812 360 802 342 802 C 324 802 309 806 297 815 C 284 823 273 832 263 841 C 253 849 243 858 233 866 C 223 874 212 879 202 879 C 192 879 183 872 176 860 C 168 848 164 830 164 806 L 116 806 C 116 849 123 881 138 902 C 153 923 170 934 188 934 C 204 934 218 929 230 920 C 242 911 253 902 264 893 C 273 884 282 876 292 868 C 302 860 312 856 322 856 C 331 856 339 862 346 875 C 353 887 357 906 357 930 Z" unicode="Ã" />
<glyph horiz-adv-x="526" d="M 4 0 L 4 0 Z M 521 0 L 453 0 L 385 209 L 137 209 L 71 0 L 4 0 L 240 734 L 286 734 L 521 0 Z M 369 268 L 261 605 L 153 268 L 369 268 Z M 260 794 L 260 794 Z M 362 794 L 309 794 L 309 950 L 362 950 L 362 794 Z M 209 794 L 156 794 L 156 950 L 209 950 L 209 794 Z" unicode="Ä" />
<glyph horiz-adv-x="526" d="M 4 0 L 4 0 Z M 521 0 L 453 0 L 385 209 L 137 209 L 71 0 L 4 0 L 240 734 L 286 734 L 521 0 Z M 369 268 L 261 605 L 153 268 L 369 268 Z M 260 791 L 260 791 Z M 260 791 C 229 791 203 801 182 823 C 160 844 150 870 150 901 C 150 931 160 957 182 979 C 203 1001 229 1012 260 1012 C 290 1012 316 1001 338 979 C 360 957 371 931 371 901 C 371 870 360 844 338 823 C 316 801 290 791 260 791 Z M 260 829 C 280 829 296 836 310 850 C 323 864 330 881 330 901 C 330 921 323 939 310 953 C 296 967 280 974 260 974 C 240 974 224 967 210 953 C 196 939 190 921 190 901 C 190 881 196 864 210 850 C 224 836 240 829 260 829 Z" unicode="Å" />
<glyph horiz-adv-x="792" d="M 765 0 L 429 0 L 429 246 L 203 246 L 69 0 L 0 0 L 393 730 L 749 730 L 749 671 L 495 671 L 495 391 L 740 391 L 740 332 L 495 332 L 495 59 L 765 59 L 765 0 Z M 429 299 L 429 672 L 229 299 L 429 299 Z" unicode="Æ" />
<glyph horiz-adv-x="549" d="M 43 0 L 43 0 Z M 316 -9 C 278 -9 243 -1 210 15 C 176 31 147 54 123 85 C 98 116 78 155 64 202 C 50 249 43 303 43 365 C 43 423 49 475 62 521 C 75 567 93 607 117 639 C 140 671 169 695 203 713 C 237 730 274 739 316 739 C 375 739 421 727 454 703 C 486 679 512 651 531 617 L 475 582 C 459 607 439 629 415 647 C 391 665 358 674 317 674 C 254 674 204 647 168 594 C 132 541 114 463 114 361 C 114 307 119 261 131 223 C 143 184 158 152 178 128 C 197 103 219 85 244 73 C 268 61 294 55 320 55 C 362 55 397 64 424 83 C 451 102 473 127 490 159 L 541 129 C 520 87 491 54 454 29 C 416 3 370 -9 316 -9 Z M 306 -3 L 306 -3 Z M 313 -187 C 291 -187 270 -184 248 -178 C 226 -172 209 -164 197 -154 L 207 -125 C 216 -131 228 -138 244 -144 C 260 -150 277 -153 296 -153 C 312 -153 326 -149 338 -141 C 350 -133 356 -122 356 -110 C 356 -95 350 -84 340 -78 C 330 -72 318 -69 306 -69 C 297 -69 290 -69 284 -71 C 278 -73 271 -75 263 -78 L 251 -65 L 308 7 L 346 7 L 299 -56 C 331 -47 358 -48 380 -60 C 402 -72 414 -90 414 -114 C 414 -137 404 -155 384 -168 C 364 -180 340 -187 313 -187 Z" unicode="Ç" />
<glyph horiz-adv-x="445" d="M 80 0 L 80 0 Z M 419 0 L 80 0 L 80 730 L 402 730 L 402 667 L 148 667 L 148 394 L 393 394 L 393 331 L 148 331 L 148 63 L 419 63 L 419 0 Z M 242 793 L 242 793 Z M 324 793 L 260 793 L 160 962 L 234 962 L 324 793 Z" unicode="È" />
<glyph horiz-adv-x="445" d="M 80 0 L 80 0 Z M 419 0 L 80 0 L 80 730 L 402 730 L 402 667 L 148 667 L 148 394 L 393 394 L 393 331 L 148 331 L 148 63 L 419 63 L 419 0 Z M 242 793 L 242 793 Z M 161 793 L 250 962 L 324 962 L 224 793 L 161 793 Z" unicode="É" />
<glyph horiz-adv-x="445" d="M 80 0 L 80 0 Z M 419 0 L 80 0 L 80 730 L 402 730 L 402 667 L 148 667 L 148 394 L 393 394 L 393 331 L 148 331 L 148 63 L 419 63 L 419 0 Z M 242 794 L 242 794 Z M 377 794 L 320 794 L 242 919 L 162 794 L 108 794 L 213 964 L 272 964 L 377 794 Z" unicode="Ê" />
<glyph horiz-adv-x="445" d="M 80 0 L 80 0 Z M 419 0 L 80 0 L 80 730 L 402 730 L 402 667 L 148 667 L 148 394 L 393 394 L 393 331 L 148 331 L 148 63 L 419 63 L 419 0 Z M 242 794 L 242 794 Z M 344 794 L 291 794 L 291 950 L 344 950 L 344 794 Z M 191 794 L 138 794 L 138 950 L 191 950 L 191 794 Z" unicode="Ë" />
<glyph horiz-adv-x="238" d="M 38 0 L 38 0 Z M 155 0 L 84 0 L 84 730 L 155 730 L 155 0 Z M 120 793 L 120 793 Z M 202 793 L 138 793 L 38 962 L 112 962 L 202 793 Z" unicode="Ì" />
<glyph horiz-adv-x="238" d="M 39 0 L 39 0 Z M 155 0 L 84 0 L 84 730 L 155 730 L 155 0 Z M 120 793 L 120 793 Z M 39 793 L 128 962 L 202 962 L 102 793 L 39 793 Z" unicode="Í" />
<glyph horiz-adv-x="238" d="M 0 0 L 0 0 Z M 155 0 L 84 0 L 84 730 L 155 730 L 155 0 Z M 120 794 L 120 794 Z M 255 794 L 198 794 L 120 919 L 40 794 L -14 794 L 91 964 L 150 964 L 255 794 Z" unicode="Î" />
<glyph horiz-adv-x="238" d="M 16 0 L 16 0 Z M 155 0 L 84 0 L 84 730 L 155 730 L 155 0 Z M 120 794 L 120 794 Z M 222 794 L 169 794 L 169 950 L 222 950 L 222 794 Z M 69 794 L 16 794 L 16 950 L 69 950 L 69 794 Z" unicode="Ï" />
<glyph horiz-adv-x="600" d="M 557 365 C 557 314 550 266 536 222 C 522 178 502 139 475 106 C 448 73 414 47 373 28 C 332 9 285 0 231 0 L 80 0 L 80 336 L 27 336 L 27 389 L 80 389 L 80 730 L 241 730 C 291 730 335 721 375 704 C 414 687 447 663 474 631 C 501 599 522 561 536 516 C 550 471 557 421 557 365 Z M 149 57 L 226 57 C 272 57 312 64 345 80 C 378 96 405 117 426 145 C 446 173 461 205 471 243 C 481 280 486 320 486 363 C 486 463 464 539 420 593 C 376 646 317 673 241 673 L 149 673 L 149 389 L 338 389 L 338 336 L 149 336 L 149 57 Z" unicode="Ð" />
<glyph horiz-adv-x="619" d="M 80 0 L 80 0 Z M 540 0 L 489 0 L 146 580 L 146 0 L 80 0 L 80 730 L 131 730 L 475 151 L 475 730 L 540 730 L 540 0 Z M 311 802 L 311 802 Z M 408 930 L 456 930 C 456 886 450 854 438 833 C 426 812 411 802 393 802 C 375 802 360 806 348 815 C 335 823 324 832 314 841 C 304 849 294 858 284 866 C 274 874 263 879 253 879 C 243 879 234 872 227 860 C 219 848 215 830 215 806 L 167 806 C 167 849 174 881 189 902 C 204 923 221 934 239 934 C 255 934 269 929 281 920 C 293 911 304 902 315 893 C 324 884 333 876 343 868 C 353 860 363 856 373 856 C 382 856 390 862 397 875 C 404 887 408 906 408 930 Z" unicode="Ñ" />
<glyph horiz-adv-x="661" d="M 43 0 L 43 0 Z M 333 -9 C 289 -9 250 0 214 17 C 178 34 148 59 123 91 C 97 123 78 163 64 211 C 50 258 43 311 43 371 C 43 427 50 477 64 523 C 78 568 97 607 122 639 C 147 671 177 695 212 713 C 247 730 285 739 327 739 C 416 739 487 705 540 639 C 592 573 619 482 619 366 C 619 308 611 256 597 210 C 582 164 562 124 537 92 C 511 60 481 35 446 17 C 411 0 373 -9 333 -9 Z M 332 53 C 394 53 445 80 486 135 C 526 189 547 268 547 371 C 547 467 526 541 486 595 C 445 649 393 676 329 676 C 263 676 211 649 173 596 C 134 543 115 466 115 365 C 115 313 120 268 131 229 C 142 190 157 158 177 132 C 196 106 219 86 246 73 C 272 59 301 53 332 53 Z M 329 793 L 329 793 Z M 411 793 L 347 793 L 247 962 L 321 962 L 411 793 Z" unicode="Ò" />
<glyph horiz-adv-x="661" d="M 43 0 L 43 0 Z M 333 -9 C 289 -9 250 0 214 17 C 178 34 148 59 123 91 C 97 123 78 163 64 211 C 50 258 43 311 43 371 C 43 427 50 477 64 523 C 78 568 97 607 122 639 C 147 671 177 695 212 713 C 247 730 285 739 327 739 C 416 739 487 705 540 639 C 592 573 619 482 619 366 C 619 308 611 256 597 210 C 582 164 562 124 537 92 C 511 60 481 35 446 17 C 411 0 373 -9 333 -9 Z M 332 53 C 394 53 445 80 486 135 C 526 189 547 268 547 371 C 547 467 526 541 486 595 C 445 649 393 676 329 676 C 263 676 211 649 173 596 C 134 543 115 466 115 365 C 115 313 120 268 131 229 C 142 190 157 158 177 132 C 196 106 219 86 246 73 C 272 59 301 53 332 53 Z M 329 793 L 329 793 Z M 248 793 L 337 962 L 411 962 L 311 793 L 248 793 Z" unicode="Ó" />
<glyph horiz-adv-x="661" d="M 43 0 L 43 0 Z M 333 -9 C 289 -9 250 0 214 17 C 178 34 148 59 123 91 C 97 123 78 163 64 211 C 50 258 43 311 43 371 C 43 427 50 477 64 523 C 78 568 97 607 122 639 C 147 671 177 695 212 713 C 247 730 285 739 327 739 C 416 739 487 705 540 639 C 592 573 619 482 619 366 C 619 308 611 256 597 210 C 582 164 562 124 537 92 C 511 60 481 35 446 17 C 411 0 373 -9 333 -9 Z M 332 53 C 394 53 445 80 486 135 C 526 189 547 268 547 371 C 547 467 526 541 486 595 C 445 649 393 676 329 676 C 263 676 211 649 173 596 C 134 543 115 466 115 365 C 115 313 120 268 131 229 C 142 190 157 158 177 132 C 196 106 219 86 246 73 C 272 59 301 53 332 53 Z M 329 794 L 329 794 Z M 464 794 L 407 794 L 329 919 L 249 794 L 195 794 L 300 964 L 359 964 L 464 794 Z" unicode="Ô" />
<glyph horiz-adv-x="661" d="M 43 0 L 43 0 Z M 333 -9 C 289 -9 250 0 214 17 C 178 34 148 59 123 91 C 97 123 78 163 64 211 C 50 258 43 311 43 371 C 43 427 50 477 64 523 C 78 568 97 607 122 639 C 147 671 177 695 212 713 C 247 730 285 739 327 739 C 416 739 487 705 540 639 C 592 573 619 482 619 366 C 619 308 611 256 597 210 C 582 164 562 124 537 92 C 511 60 481 35 446 17 C 411 0 373 -9 333 -9 Z M 332 53 C 394 53 445 80 486 135 C 526 189 547 268 547 371 C 547 467 526 541 486 595 C 445 649 393 676 329 676 C 263 676 211 649 173 596 C 134 543 115 466 115 365 C 115 313 120 268 131 229 C 142 190 157 158 177 132 C 196 106 219 86 246 73 C 272 59 301 53 332 53 Z M 329 802 L 329 802 Z M 426 930 L 474 930 C 474 886 468 854 456 833 C 444 812 429 802 411 802 C 393 802 378 806 366 815 C 353 823 342 832 332 841 C 322 849 312 858 302 866 C 292 874 281 879 271 879 C 261 879 252 872 245 860 C 237 848 233 830 233 806 L 185 806 C 185 849 192 881 207 902 C 222 923 239 934 257 934 C 273 934 287 929 299 920 C 311 911 322 902 333 893 C 342 884 351 876 361 868 C 371 860 381 856 391 856 C 400 856 408 862 415 875 C 422 887 426 906 426 930 Z" unicode="Õ" />
<glyph horiz-adv-x="661" d="M 43 0 L 43 0 Z M 333 -9 C 289 -9 250 0 214 17 C 178 34 148 59 123 91 C 97 123 78 163 64 211 C 50 258 43 311 43 371 C 43 427 50 477 64 523 C 78 568 97 607 122 639 C 147 671 177 695 212 713 C 247 730 285 739 327 739 C 416 739 487 705 540 639 C 592 573 619 482 619 366 C 619 308 611 256 597 210 C 582 164 562 124 537 92 C 511 60 481 35 446 17 C 411 0 373 -9 333 -9 Z M 332 53 C 394 53 445 80 486 135 C 526 189 547 268 547 371 C 547 467 526 541 486 595 C 445 649 393 676 329 676 C 263 676 211 649 173 596 C 134 543 115 466 115 365 C 115 313 120 268 131 229 C 142 190 157 158 177 132 C 196 106 219 86 246 73 C 272 59 301 53 332 53 Z M 329 794 L 329 794 Z M 431 794 L 378 794 L 378 950 L 431 950 L 431 794 Z M 278 794 L 225 794 L 225 950 L 278 950 L 278 794 Z" unicode="Ö" />
<glyph horiz-adv-x="501" d="M 110 153 L 73 191 L 213 331 L 73 471 L 110 508 L 251 368 L 391 508 L 428 471 L 287 331 L 428 191 L 391 152 L 251 294 L 110 153 Z" unicode="×" />
<glyph horiz-adv-x="661" d="M 619 366 C 619 308 611 256 597 210 C 582 164 562 124 537 92 C 511 60 481 35 446 17 C 411 0 373 -9 333 -9 C 291 -9 253 -1 219 14 C 184 30 154 53 129 83 L 67 4 L 40 26 L 108 113 C 87 144 71 181 60 225 C 48 269 43 317 43 371 C 43 427 50 477 64 523 C 78 568 97 607 122 639 C 147 671 177 695 212 713 C 247 730 285 739 327 739 C 369 739 407 731 441 716 C 475 701 505 680 530 652 L 599 740 L 626 718 L 552 624 C 573 592 589 554 601 511 C 613 467 619 419 619 366 Z M 115 365 C 115 325 118 288 125 256 C 131 224 141 195 154 171 L 486 596 C 467 622 444 641 417 655 C 390 669 361 676 329 676 C 263 676 211 649 173 596 C 134 543 115 466 115 365 Z M 547 371 C 547 410 543 446 536 479 C 528 511 518 540 506 565 L 172 139 C 192 110 215 88 243 74 C 270 60 300 53 332 53 C 394 53 445 80 486 135 C 526 189 547 268 547 371 Z" unicode="Ø" />
<glyph horiz-adv-x="602" d="M 74 0 L 74 0 Z M 527 730 L 527 230 C 527 189 521 153 509 123 C 497 93 480 68 460 49 C 439 29 415 15 387 5 C 359 -4 329 -9 298 -9 C 268 -9 239 -4 212 5 C 184 14 160 28 140 47 C 120 66 104 91 92 121 C 80 151 74 188 74 230 L 74 730 L 142 730 L 142 228 C 142 168 157 124 188 96 C 218 67 256 53 300 53 C 342 53 379 66 411 94 C 442 121 458 166 458 228 L 458 730 L 527 730 Z M 299 793 L 299 793 Z M 381 793 L 317 793 L 217 962 L 291 962 L 381 793 Z" unicode="Ù" />
<glyph horiz-adv-x="602" d="M 74 0 L 74 0 Z M 527 730 L 527 230 C 527 189 521 153 509 123 C 497 93 480 68 460 49 C 439 29 415 15 387 5 C 359 -4 329 -9 298 -9 C 268 -9 239 -4 212 5 C 184 14 160 28 140 47 C 120 66 104 91 92 121 C 80 151 74 188 74 230 L 74 730 L 142 730 L 142 228 C 142 168 157 124 188 96 C 218 67 256 53 300 53 C 342 53 379 66 411 94 C 442 121 458 166 458 228 L 458 730 L 527 730 Z M 299 793 L 299 793 Z M 218 793 L 307 962 L 381 962 L 281 793 L 218 793 Z" unicode="Ú" />
<glyph horiz-adv-x="602" d="M 74 0 L 74 0 Z M 527 730 L 527 230 C 527 189 521 153 509 123 C 497 93 480 68 460 49 C 439 29 415 15 387 5 C 359 -4 329 -9 298 -9 C 268 -9 239 -4 212 5 C 184 14 160 28 140 47 C 120 66 104 91 92 121 C 80 151 74 188 74 230 L 74 730 L 142 730 L 142 228 C 142 168 157 124 188 96 C 218 67 256 53 300 53 C 342 53 379 66 411 94 C 442 121 458 166 458 228 L 458 730 L 527 730 Z M 299 794 L 299 794 Z M 434 794 L 377 794 L 299 919 L 219 794 L 165 794 L 270 964 L 329 964 L 434 794 Z" unicode="Û" />
<glyph horiz-adv-x="602" d="M 74 0 L 74 0 Z M 527 730 L 527 230 C 527 189 521 153 509 123 C 497 93 480 68 460 49 C 439 29 415 15 387 5 C 359 -4 329 -9 298 -9 C 268 -9 239 -4 212 5 C 184 14 160 28 140 47 C 120 66 104 91 92 121 C 80 151 74 188 74 230 L 74 730 L 142 730 L 142 228 C 142 168 157 124 188 96 C 218 67 256 53 300 53 C 342 53 379 66 411 94 C 442 121 458 166 458 228 L 458 730 L 527 730 Z M 299 794 L 299 794 Z M 401 794 L 348 794 L 348 950 L 401 950 L 401 794 Z M 248 794 L 195 794 L 195 950 L 248 950 L 248 794 Z" unicode="Ü" />
<glyph horiz-adv-x="512" d="M 2 0 L 2 0 Z M 509 730 L 289 297 L 289 0 L 219 0 L 219 299 L 2 730 L 77 730 L 257 370 L 439 730 L 509 730 Z M 257 793 L 257 793 Z M 176 793 L 265 962 L 339 962 L 239 793 L 176 793 Z" unicode="Ý" />
<glyph horiz-adv-x="480" d="M 80 0 L 80 730 L 150 730 L 150 593 L 257 593 C 315 593 362 574 400 538 C 438 501 457 450 457 386 C 457 318 438 265 400 226 C 362 187 315 168 258 168 L 150 168 L 150 0 L 80 0 Z M 149 225 L 250 225 C 292 225 325 239 351 267 C 377 295 390 335 390 387 C 390 435 375 472 347 497 C 318 522 285 535 248 535 L 149 535 L 149 225 Z" unicode="Þ" />
<glyph horiz-adv-x="497" d="M 346 -7 C 313 -7 285 -1 261 9 C 237 19 217 34 202 53 L 234 95 C 246 80 262 68 281 59 C 299 50 319 46 341 46 C 361 46 378 51 394 62 C 410 73 418 90 418 114 C 418 132 410 148 395 162 C 379 176 354 191 319 208 C 279 226 251 245 235 265 C 219 285 211 309 211 338 C 211 370 221 395 241 414 C 261 432 284 445 309 452 C 316 455 324 465 332 483 C 340 501 345 533 345 581 C 345 625 335 658 316 679 C 297 699 272 710 242 710 C 213 710 189 699 169 679 C 149 658 140 629 140 591 L 140 0 L 74 0 L 74 593 C 74 646 90 688 122 719 C 154 749 194 765 242 765 C 289 765 328 749 360 719 C 391 689 407 642 407 578 C 407 524 399 485 384 459 C 369 433 354 417 340 413 C 320 409 303 402 287 392 C 271 381 264 365 264 345 C 264 327 270 312 284 298 C 298 284 322 270 356 254 C 398 234 428 215 446 195 C 464 175 473 149 473 115 C 473 95 469 78 462 63 C 454 47 445 34 433 24 C 421 14 407 6 392 1 C 376 -4 361 -7 346 -7 Z" unicode="ß" />
<glyph horiz-adv-x="397" d="M 23 0 L 23 0 Z M 346 0 L 287 0 L 287 56 C 275 40 257 25 235 12 C 212 0 185 -7 155 -7 C 117 -7 85 4 60 28 C 35 51 23 84 23 127 C 23 173 38 207 70 230 C 102 253 141 266 189 269 L 284 275 L 284 303 C 284 333 275 356 259 371 C 242 386 218 394 188 394 C 161 394 138 389 120 380 C 101 371 87 362 78 354 L 56 397 C 70 410 89 421 113 431 C 137 440 167 445 201 445 C 241 445 276 433 304 411 C 332 389 346 355 346 309 L 346 0 Z M 285 98 L 285 227 L 198 222 C 167 220 140 211 118 196 C 96 181 85 158 85 128 C 85 100 94 80 112 67 C 130 53 151 47 176 47 C 201 47 223 52 243 63 C 262 73 276 85 285 98 Z M 193 499 L 193 499 Z M 275 499 L 211 499 L 111 668 L 185 668 L 275 499 Z" unicode="à" />
<glyph horiz-adv-x="397" d="M 23 0 L 23 0 Z M 346 0 L 287 0 L 287 56 C 275 40 257 25 235 12 C 212 0 185 -7 155 -7 C 117 -7 85 4 60 28 C 35 51 23 84 23 127 C 23 173 38 207 70 230 C 102 253 141 266 189 269 L 284 275 L 284 303 C 284 333 275 356 259 371 C 242 386 218 394 188 394 C 161 394 138 389 120 380 C 101 371 87 362 78 354 L 56 397 C 70 410 89 421 113 431 C 137 440 167 445 201 445 C 241 445 276 433 304 411 C 332 389 346 355 346 309 L 346 0 Z M 285 98 L 285 227 L 198 222 C 167 220 140 211 118 196 C 96 181 85 158 85 128 C 85 100 94 80 112 67 C 130 53 151 47 176 47 C 201 47 223 52 243 63 C 262 73 276 85 285 98 Z M 193 499 L 193 499 Z M 112 499 L 201 668 L 275 668 L 175 499 L 112 499 Z" unicode="á" />
<glyph horiz-adv-x="397" d="M 23 0 L 23 0 Z M 346 0 L 287 0 L 287 56 C 275 40 257 25 235 12 C 212 0 185 -7 155 -7 C 117 -7 85 4 60 28 C 35 51 23 84 23 127 C 23 173 38 207 70 230 C 102 253 141 266 189 269 L 284 275 L 284 303 C 284 333 275 356 259 371 C 242 386 218 394 188 394 C 161 394 138 389 120 380 C 101 371 87 362 78 354 L 56 397 C 70 410 89 421 113 431 C 137 440 167 445 201 445 C 241 445 276 433 304 411 C 332 389 346 355 346 309 L 346 0 Z M 285 98 L 285 227 L 198 222 C 167 220 140 211 118 196 C 96 181 85 158 85 128 C 85 100 94 80 112 67 C 130 53 151 47 176 47 C 201 47 223 52 243 63 C 262 73 276 85 285 98 Z M 193 500 L 193 500 Z M 328 500 L 271 500 L 193 625 L 113 500 L 59 500 L 164 670 L 223 670 L 328 500 Z" unicode="â" />
<glyph horiz-adv-x="397" d="M 23 0 L 23 0 Z M 346 0 L 287 0 L 287 56 C 275 40 257 25 235 12 C 212 0 185 -7 155 -7 C 117 -7 85 4 60 28 C 35 51 23 84 23 127 C 23 173 38 207 70 230 C 102 253 141 266 189 269 L 284 275 L 284 303 C 284 333 275 356 259 371 C 242 386 218 394 188 394 C 161 394 138 389 120 380 C 101 371 87 362 78 354 L 56 397 C 70 410 89 421 113 431 C 137 440 167 445 201 445 C 241 445 276 433 304 411 C 332 389 346 355 346 309 L 346 0 Z M 285 98 L 285 227 L 198 222 C 167 220 140 211 118 196 C 96 181 85 158 85 128 C 85 100 94 80 112 67 C 130 53 151 47 176 47 C 201 47 223 52 243 63 C 262 73 276 85 285 98 Z M 193 508 L 193 508 Z M 290 636 L 338 636 C 338 592 332 560 320 539 C 308 518 293 508 275 508 C 257 508 242 512 230 521 C 217 529 206 538 196 547 C 186 555 176 564 166 572 C 156 580 145 585 135 585 C 125 585 116 578 109 566 C 101 554 97 536 97 512 L 49 512 C 49 555 56 587 71 608 C 86 629 103 640 121 640 C 137 640 151 635 163 626 C 175 617 186 608 197 599 C 206 590 215 582 225 574 C 235 566 245 562 255 562 C 264 562 272 568 279 581 C 286 593 290 612 290 636 Z" unicode="ã" />
<glyph horiz-adv-x="397" d="M 23 0 L 23 0 Z M 346 0 L 287 0 L 287 56 C 275 40 257 25 235 12 C 212 0 185 -7 155 -7 C 117 -7 85 4 60 28 C 35 51 23 84 23 127 C 23 173 38 207 70 230 C 102 253 141 266 189 269 L 284 275 L 284 303 C 284 333 275 356 259 371 C 242 386 218 394 188 394 C 161 394 138 389 120 380 C 101 371 87 362 78 354 L 56 397 C 70 410 89 421 113 431 C 137 440 167 445 201 445 C 241 445 276 433 304 411 C 332 389 346 355 346 309 L 346 0 Z M 285 98 L 285 227 L 198 222 C 167 220 140 211 118 196 C 96 181 85 158 85 128 C 85 100 94 80 112 67 C 130 53 151 47 176 47 C 201 47 223 52 243 63 C 262 73 276 85 285 98 Z M 193 500 L 193 500 Z M 295 500 L 242 500 L 242 656 L 295 656 L 295 500 Z M 142 500 L 89 500 L 89 656 L 142 656 L 142 500 Z" unicode="ä" />
<glyph horiz-adv-x="397" d="M 23 0 L 23 0 Z M 346 0 L 287 0 L 287 56 C 275 40 257 25 235 12 C 212 0 185 -7 155 -7 C 117 -7 85 4 60 28 C 35 51 23 84 23 127 C 23 173 38 207 70 230 C 102 253 141 266 189 269 L 284 275 L 284 303 C 284 333 275 356 259 371 C 242 386 218 394 188 394 C 161 394 138 389 120 380 C 101 371 87 362 78 354 L 56 397 C 70 410 89 421 113 431 C 137 440 167 445 201 445 C 241 445 276 433 304 411 C 332 389 346 355 346 309 L 346 0 Z M 285 98 L 285 227 L 198 222 C 167 220 140 211 118 196 C 96 181 85 158 85 128 C 85 100 94 80 112 67 C 130 53 151 47 176 47 C 201 47 223 52 243 63 C 262 73 276 85 285 98 Z M 193 497 L 193 497 Z M 193 497 C 162 497 136 507 115 529 C 93 550 83 576 83 607 C 83 637 93 663 115 685 C 136 707 162 718 193 718 C 223 718 249 707 271 685 C 293 663 304 637 304 607 C 304 576 293 550 271 529 C 249 507 223 497 193 497 Z M 193 535 C 213 535 229 542 243 556 C 256 570 263 587 263 607 C 263 627 256 645 243 659 C 229 673 213 680 193 680 C 173 680 157 673 143 659 C 129 645 123 627 123 607 C 123 587 129 570 143 556 C 157 542 173 535 193 535 Z" unicode="å" />
<glyph horiz-adv-x="668" d="M 475 -7 C 452 -7 432 -3 414 3 C 396 9 380 18 367 28 C 353 38 342 50 334 63 C 326 76 320 89 316 103 C 308 72 290 46 262 25 C 233 3 199 -7 159 -7 C 121 -7 88 4 62 27 C 36 50 23 83 23 126 C 23 171 38 205 70 229 C 102 253 141 266 189 269 L 291 275 L 291 299 C 291 333 281 357 262 371 C 242 385 218 393 190 393 C 162 393 139 388 119 380 C 99 371 85 362 77 353 L 56 396 C 70 410 90 421 114 430 C 138 438 165 443 195 443 C 229 443 258 435 283 419 C 308 403 323 379 328 347 C 336 369 352 391 375 412 C 398 432 430 443 472 443 C 526 443 568 422 600 380 C 631 338 647 279 647 204 L 351 204 C 351 148 363 107 386 82 C 409 56 439 44 476 44 C 510 44 536 50 554 62 C 571 74 586 89 600 106 L 636 72 C 621 52 602 33 578 17 C 554 1 519 -7 475 -7 Z M 351 249 L 586 249 C 585 290 574 324 552 351 C 530 378 502 392 466 392 C 430 392 403 378 384 352 C 364 325 353 291 351 249 Z M 178 47 C 208 47 234 56 256 75 C 278 93 290 117 292 146 L 292 227 L 198 222 C 167 220 140 211 118 197 C 96 183 85 160 85 130 C 85 101 94 80 113 67 C 131 53 153 47 178 47 Z" unicode="æ" />
<glyph horiz-adv-x="374" d="M 26 0 L 26 0 Z M 320 115 L 365 84 C 359 74 353 63 345 53 C 337 42 327 32 315 23 C 303 14 288 7 272 1 C 255 -4 235 -7 213 -7 C 183 -7 157 -1 134 10 C 110 21 91 36 75 56 C 59 76 46 99 38 127 C 30 154 26 184 26 217 C 26 247 30 276 39 304 C 47 332 60 356 76 377 C 92 397 112 414 136 426 C 160 438 186 444 216 444 C 256 444 288 434 312 415 C 336 395 355 375 367 355 L 321 319 C 310 337 296 353 280 367 C 264 381 242 388 215 388 C 177 388 148 371 126 339 C 104 306 93 266 93 219 C 93 167 104 125 127 94 C 149 62 180 47 218 47 C 248 47 270 54 285 70 C 300 86 312 101 320 115 Z M 203 -3 L 203 -3 Z M 210 -187 C 188 -187 167 -184 145 -178 C 123 -172 106 -164 94 -154 L 104 -125 C 113 -131 125 -138 141 -144 C 157 -150 174 -153 193 -153 C 209 -153 223 -149 235 -141 C 247 -133 253 -122 253 -110 C 253 -95 247 -84 237 -78 C 227 -72 215 -69 203 -69 C 194 -69 187 -69 181 -71 C 175 -73 168 -75 160 -78 L 148 -65 L 205 7 L 243 7 L 196 -56 C 228 -47 255 -48 277 -60 C 299 -72 311 -90 311 -114 C 311 -137 301 -155 281 -168 C 261 -180 237 -187 210 -187 Z" unicode="ç" />
<glyph horiz-adv-x="412" d="M 26 0 L 26 0 Z M 218 -7 C 162 -7 116 12 80 52 C 44 91 26 146 26 216 C 26 284 43 339 79 381 C 114 423 158 444 210 444 C 266 444 310 423 342 382 C 374 340 391 281 391 204 L 89 204 C 89 148 102 107 126 82 C 150 56 182 44 220 44 C 254 44 280 50 298 63 C 316 76 331 90 344 106 L 380 72 C 365 53 346 35 322 18 C 298 1 264 -7 218 -7 Z M 91 250 L 329 250 C 328 291 317 325 297 352 C 276 379 248 393 212 393 C 176 393 147 379 126 352 C 105 325 93 291 91 250 Z M 210 499 L 210 499 Z M 292 499 L 228 499 L 128 668 L 202 668 L 292 499 Z" unicode="è" />
<glyph horiz-adv-x="412" d="M 26 0 L 26 0 Z M 218 -7 C 162 -7 116 12 80 52 C 44 91 26 146 26 216 C 26 284 43 339 79 381 C 114 423 158 444 210 444 C 266 444 310 423 342 382 C 374 340 391 281 391 204 L 89 204 C 89 148 102 107 126 82 C 150 56 182 44 220 44 C 254 44 280 50 298 63 C 316 76 331 90 344 106 L 380 72 C 365 53 346 35 322 18 C 298 1 264 -7 218 -7 Z M 91 250 L 329 250 C 328 291 317 325 297 352 C 276 379 248 393 212 393 C 176 393 147 379 126 352 C 105 325 93 291 91 250 Z M 210 499 L 210 499 Z M 129 499 L 218 668 L 292 668 L 192 499 L 129 499 Z" unicode="é" />
<glyph horiz-adv-x="412" d="M 26 0 L 26 0 Z M 218 -7 C 162 -7 116 12 80 52 C 44 91 26 146 26 216 C 26 284 43 339 79 381 C 114 423 158 444 210 444 C 266 444 310 423 342 382 C 374 340 391 281 391 204 L 89 204 C 89 148 102 107 126 82 C 150 56 182 44 220 44 C 254 44 280 50 298 63 C 316 76 331 90 344 106 L 380 72 C 365 53 346 35 322 18 C 298 1 264 -7 218 -7 Z M 91 250 L 329 250 C 328 291 317 325 297 352 C 276 379 248 393 212 393 C 176 393 147 379 126 352 C 105 325 93 291 91 250 Z M 210 500 L 210 500 Z M 345 500 L 288 500 L 210 625 L 130 500 L 76 500 L 181 670 L 240 670 L 345 500 Z" unicode="ê" />
<glyph horiz-adv-x="412" d="M 26 0 L 26 0 Z M 218 -7 C 162 -7 116 12 80 52 C 44 91 26 146 26 216 C 26 284 43 339 79 381 C 114 423 158 444 210 444 C 266 444 310 423 342 382 C 374 340 391 281 391 204 L 89 204 C 89 148 102 107 126 82 C 150 56 182 44 220 44 C 254 44 280 50 298 63 C 316 76 331 90 344 106 L 380 72 C 365 53 346 35 322 18 C 298 1 264 -7 218 -7 Z M 91 250 L 329 250 C 328 291 317 325 297 352 C 276 379 248 393 212 393 C 176 393 147 379 126 352 C 105 325 93 291 91 250 Z M 210 500 L 210 500 Z M 312 500 L 259 500 L 259 656 L 312 656 L 312 500 Z M 159 500 L 106 500 L 106 656 L 159 656 L 159 500 Z" unicode="ë" />
<glyph horiz-adv-x="180" d="M 8 0 L 8 0 Z M 122 0 L 58 0 L 58 436 L 122 436 L 122 0 Z M 90 499 L 90 499 Z M 172 499 L 108 499 L 8 668 L 82 668 L 172 499 Z" unicode="ì" />
<glyph horiz-adv-x="180" d="M 9 0 L 9 0 Z M 122 0 L 58 0 L 58 436 L 122 436 L 122 0 Z M 90 499 L 90 499 Z M 9 499 L 98 668 L 172 668 L 72 499 L 9 499 Z" unicode="í" />
<glyph horiz-adv-x="180" d="M 0 0 L 0 0 Z M 122 0 L 58 0 L 58 436 L 122 436 L 122 0 Z M 90 500 L 90 500 Z M 225 500 L 168 500 L 90 625 L 10 500 L -44 500 L 61 670 L 120 670 L 225 500 Z" unicode="î" />
<glyph horiz-adv-x="180" d="M 0 0 L 0 0 Z M 122 0 L 58 0 L 58 436 L 122 436 L 122 0 Z M 90 500 L 90 500 Z M 192 500 L 139 500 L 139 656 L 192 656 L 192 500 Z M 39 500 L -14 500 L -14 656 L 39 656 L 39 500 Z" unicode="ï" />
<glyph horiz-adv-x="440" d="M 407 259 C 407 221 402 185 394 152 C 385 119 373 91 357 67 C 341 43 321 25 297 12 C 273 -1 247 -8 217 -8 C 162 -8 116 12 80 52 C 44 92 26 148 26 218 C 26 252 31 284 41 312 C 51 340 64 363 81 383 C 97 402 117 417 139 428 C 161 438 185 444 209 444 C 243 444 272 435 296 417 C 320 399 337 379 347 357 C 342 409 332 456 317 499 C 302 542 285 579 267 611 L 164 571 L 146 618 L 239 654 C 220 680 202 701 184 717 C 166 733 153 743 144 748 L 195 773 C 205 766 220 755 238 739 C 256 723 274 701 293 675 L 364 702 L 381 656 L 320 632 C 343 591 363 540 381 479 C 398 417 407 344 407 259 Z M 214 46 C 253 46 284 61 306 93 C 328 125 339 167 339 219 C 339 272 328 314 306 344 C 284 374 254 390 215 390 C 179 390 149 374 126 342 C 103 310 92 270 92 220 C 92 164 103 121 126 91 C 148 61 178 46 214 46 Z" unicode="ð" />
<glyph horiz-adv-x="430" d="M 54 0 L 54 0 Z M 378 0 L 314 0 L 314 300 C 314 328 306 350 290 366 C 274 381 251 389 223 389 C 195 389 171 380 150 363 C 128 345 118 315 118 271 L 118 0 L 54 0 L 54 436 L 115 436 L 115 357 C 122 382 137 403 159 419 C 181 435 210 444 246 444 C 286 444 318 433 342 412 C 366 390 378 359 378 319 L 378 0 Z M 216 508 L 216 508 Z M 313 636 L 361 636 C 361 592 355 560 343 539 C 331 518 316 508 298 508 C 280 508 265 512 253 521 C 240 529 229 538 219 547 C 209 555 199 564 189 572 C 179 580 168 585 158 585 C 148 585 139 578 132 566 C 124 554 120 536 120 512 L 72 512 C 72 555 79 587 94 608 C 109 629 126 640 144 640 C 160 640 174 635 186 626 C 198 617 209 608 220 599 C 229 590 238 582 248 574 C 258 566 268 562 278 562 C 287 562 295 568 302 581 C 309 593 313 612 313 636 Z" unicode="ñ" />
<glyph horiz-adv-x="429" d="M 26 0 L 26 0 Z M 215 -7 C 188 -7 163 -2 140 8 C 117 18 97 32 80 52 C 63 71 50 94 40 122 C 30 150 26 181 26 216 C 26 248 30 279 40 307 C 49 335 62 359 78 379 C 94 399 114 415 136 427 C 158 438 183 444 210 444 C 266 444 312 424 348 384 C 384 344 403 292 403 228 C 403 194 398 162 389 133 C 380 104 367 79 351 59 C 334 38 314 22 291 10 C 268 -1 243 -7 215 -7 Z M 214 46 C 252 46 281 61 303 93 C 325 125 336 167 336 221 C 336 273 324 314 302 344 C 280 374 249 390 210 390 C 176 390 148 374 126 344 C 104 313 93 272 93 220 C 93 162 104 119 127 90 C 150 60 179 46 214 46 Z M 213 499 L 213 499 Z M 295 499 L 231 499 L 131 668 L 205 668 L 295 499 Z" unicode="ò" />
<glyph horiz-adv-x="429" d="M 26 0 L 26 0 Z M 215 -7 C 188 -7 163 -2 140 8 C 117 18 97 32 80 52 C 63 71 50 94 40 122 C 30 150 26 181 26 216 C 26 248 30 279 40 307 C 49 335 62 359 78 379 C 94 399 114 415 136 427 C 158 438 183 444 210 444 C 266 444 312 424 348 384 C 384 344 403 292 403 228 C 403 194 398 162 389 133 C 380 104 367 79 351 59 C 334 38 314 22 291 10 C 268 -1 243 -7 215 -7 Z M 214 46 C 252 46 281 61 303 93 C 325 125 336 167 336 221 C 336 273 324 314 302 344 C 280 374 249 390 210 390 C 176 390 148 374 126 344 C 104 313 93 272 93 220 C 93 162 104 119 127 90 C 150 60 179 46 214 46 Z M 213 499 L 213 499 Z M 132 499 L 221 668 L 295 668 L 195 499 L 132 499 Z" unicode="ó" />
<glyph horiz-adv-x="429" d="M 26 0 L 26 0 Z M 215 -7 C 188 -7 163 -2 140 8 C 117 18 97 32 80 52 C 63 71 50 94 40 122 C 30 150 26 181 26 216 C 26 248 30 279 40 307 C 49 335 62 359 78 379 C 94 399 114 415 136 427 C 158 438 183 444 210 444 C 266 444 312 424 348 384 C 384 344 403 292 403 228 C 403 194 398 162 389 133 C 380 104 367 79 351 59 C 334 38 314 22 291 10 C 268 -1 243 -7 215 -7 Z M 214 46 C 252 46 281 61 303 93 C 325 125 336 167 336 221 C 336 273 324 314 302 344 C 280 374 249 390 210 390 C 176 390 148 374 126 344 C 104 313 93 272 93 220 C 93 162 104 119 127 90 C 150 60 179 46 214 46 Z M 213 500 L 213 500 Z M 348 500 L 291 500 L 213 625 L 133 500 L 79 500 L 184 670 L 243 670 L 348 500 Z" unicode="ô" />
<glyph horiz-adv-x="429" d="M 26 0 L 26 0 Z M 215 -7 C 188 -7 163 -2 140 8 C 117 18 97 32 80 52 C 63 71 50 94 40 122 C 30 150 26 181 26 216 C 26 248 30 279 40 307 C 49 335 62 359 78 379 C 94 399 114 415 136 427 C 158 438 183 444 210 444 C 266 444 312 424 348 384 C 384 344 403 292 403 228 C 403 194 398 162 389 133 C 380 104 367 79 351 59 C 334 38 314 22 291 10 C 268 -1 243 -7 215 -7 Z M 214 46 C 252 46 281 61 303 93 C 325 125 336 167 336 221 C 336 273 324 314 302 344 C 280 374 249 390 210 390 C 176 390 148 374 126 344 C 104 313 93 272 93 220 C 93 162 104 119 127 90 C 150 60 179 46 214 46 Z M 213 508 L 213 508 Z M 310 636 L 358 636 C 358 592 352 560 340 539 C 328 518 313 508 295 508 C 277 508 262 512 250 521 C 237 529 226 538 216 547 C 206 555 196 564 186 572 C 176 580 165 585 155 585 C 145 585 136 578 129 566 C 121 554 117 536 117 512 L 69 512 C 69 555 76 587 91 608 C 106 629 123 640 141 640 C 157 640 171 635 183 626 C 195 617 206 608 217 599 C 226 590 235 582 245 574 C 255 566 265 562 275 562 C 284 562 292 568 299 581 C 306 593 310 612 310 636 Z" unicode="õ" />
<glyph horiz-adv-x="429" d="M 26 0 L 26 0 Z M 215 -7 C 188 -7 163 -2 140 8 C 117 18 97 32 80 52 C 63 71 50 94 40 122 C 30 150 26 181 26 216 C 26 248 30 279 40 307 C 49 335 62 359 78 379 C 94 399 114 415 136 427 C 158 438 183 444 210 444 C 266 444 312 424 348 384 C 384 344 403 292 403 228 C 403 194 398 162 389 133 C 380 104 367 79 351 59 C 334 38 314 22 291 10 C 268 -1 243 -7 215 -7 Z M 214 46 C 252 46 281 61 303 93 C 325 125 336 167 336 221 C 336 273 324 314 302 344 C 280 374 249 390 210 390 C 176 390 148 374 126 344 C 104 313 93 272 93 220 C 93 162 104 119 127 90 C 150 60 179 46 214 46 Z M 213 500 L 213 500 Z M 315 500 L 262 500 L 262 656 L 315 656 L 315 500 Z M 162 500 L 109 500 L 109 656 L 162 656 L 162 500 Z" unicode="ö" />
<glyph horiz-adv-x="500" d="M 219 447 L 219 555 L 281 555 L 281 447 L 219 447 Z M 28 303 L 28 359 L 472 359 L 472 303 L 28 303 Z M 219 106 L 219 214 L 281 214 L 281 106 L 219 106 Z" unicode="÷" />
<glyph horiz-adv-x="429" d="M 403 228 C 403 194 398 162 389 133 C 380 104 367 79 351 59 C 334 38 314 22 291 10 C 268 -1 243 -7 215 -7 C 191 -7 169 -2 148 5 C 127 13 108 25 92 40 L 61 2 L 40 23 L 72 63 C 57 81 46 103 38 129 C 30 155 26 184 26 216 C 26 248 30 279 40 307 C 49 335 62 359 78 379 C 94 399 114 415 136 427 C 158 438 183 444 210 444 C 236 444 260 439 282 431 C 304 422 323 409 340 393 L 371 431 L 392 410 L 360 370 C 373 352 383 331 391 307 C 399 283 403 256 403 228 Z M 93 220 C 93 198 94 178 98 160 C 101 142 106 127 113 113 L 302 346 C 291 360 278 370 262 378 C 246 386 229 390 210 390 C 176 390 148 374 126 344 C 104 313 93 272 93 220 Z M 336 221 C 336 239 334 257 331 274 C 328 290 324 305 318 319 L 130 87 C 140 73 153 63 167 56 C 181 49 197 46 214 46 C 252 46 281 61 303 93 C 325 125 336 167 336 221 Z" unicode="ø" />
<glyph horiz-adv-x="430" d="M 52 0 L 52 0 Z M 52 436 L 116 436 L 116 139 C 116 107 124 83 141 67 C 157 51 180 43 209 43 C 235 43 259 51 280 69 C 301 87 312 118 312 163 L 312 436 L 376 436 L 376 0 L 314 0 L 314 73 C 305 49 289 29 267 15 C 245 0 217 -7 185 -7 C 147 -7 115 3 90 25 C 64 47 52 80 52 126 L 52 436 Z M 214 499 L 214 499 Z M 296 499 L 232 499 L 132 668 L 206 668 L 296 499 Z" unicode="ù" />
<glyph horiz-adv-x="430" d="M 52 0 L 52 0 Z M 52 436 L 116 436 L 116 139 C 116 107 124 83 141 67 C 157 51 180 43 209 43 C 235 43 259 51 280 69 C 301 87 312 118 312 163 L 312 436 L 376 436 L 376 0 L 314 0 L 314 73 C 305 49 289 29 267 15 C 245 0 217 -7 185 -7 C 147 -7 115 3 90 25 C 64 47 52 80 52 126 L 52 436 Z M 214 499 L 214 499 Z M 133 499 L 222 668 L 296 668 L 196 499 L 133 499 Z" unicode="ú" />
<glyph horiz-adv-x="430" d="M 52 0 L 52 0 Z M 52 436 L 116 436 L 116 139 C 116 107 124 83 141 67 C 157 51 180 43 209 43 C 235 43 259 51 280 69 C 301 87 312 118 312 163 L 312 436 L 376 436 L 376 0 L 314 0 L 314 73 C 305 49 289 29 267 15 C 245 0 217 -7 185 -7 C 147 -7 115 3 90 25 C 64 47 52 80 52 126 L 52 436 Z M 214 500 L 214 500 Z M 349 500 L 292 500 L 214 625 L 134 500 L 80 500 L 185 670 L 244 670 L 349 500 Z" unicode="û" />
<glyph horiz-adv-x="430" d="M 52 0 L 52 0 Z M 52 436 L 116 436 L 116 139 C 116 107 124 83 141 67 C 157 51 180 43 209 43 C 235 43 259 51 280 69 C 301 87 312 118 312 163 L 312 436 L 376 436 L 376 0 L 314 0 L 314 73 C 305 49 289 29 267 15 C 245 0 217 -7 185 -7 C 147 -7 115 3 90 25 C 64 47 52 80 52 126 L 52 436 Z M 214 500 L 214 500 Z M 316 500 L 263 500 L 263 656 L 316 656 L 316 500 Z M 163 500 L 110 500 L 110 656 L 163 656 L 163 500 Z" unicode="ü" />
<glyph horiz-adv-x="363" d="M 0 0 L 0 0 Z M 362 436 L 167 -107 C 153 -141 136 -165 114 -179 C 92 -193 70 -200 48 -200 C 36 -200 26 -198 17 -196 C 7 -194 0 -192 -4 -190 L 15 -135 C 17 -136 22 -138 29 -140 C 36 -142 44 -143 52 -143 C 63 -143 75 -138 87 -128 C 99 -118 109 -101 118 -79 L 154 32 L -1 436 L 68 436 L 186 112 L 298 436 L 362 436 Z M 182 499 L 182 499 Z M 101 499 L 190 668 L 264 668 L 164 499 L 101 499 Z" unicode="ý" />
<glyph horiz-adv-x="440" d="M 54 -200 L 54 757 L 114 757 L 114 334 C 120 362 136 388 161 410 C 185 432 216 443 253 443 C 279 443 303 437 323 426 C 343 415 359 400 373 381 C 386 361 396 339 403 313 C 410 287 414 259 414 229 C 414 156 398 99 367 57 C 335 15 296 -5 250 -5 C 214 -5 185 3 161 21 C 137 39 122 59 116 82 L 116 -200 L 54 -200 Z M 229 43 C 264 43 292 58 314 89 C 335 119 346 162 346 216 C 346 266 336 307 318 341 C 299 374 270 391 230 391 C 199 391 172 377 148 349 C 124 321 113 274 113 210 C 113 149 124 106 148 81 C 171 55 198 43 229 43 Z" unicode="þ" />
<glyph horiz-adv-x="363" d="M 0 0 L 0 0 Z M 362 436 L 167 -107 C 153 -141 136 -165 114 -179 C 92 -193 70 -200 48 -200 C 36 -200 26 -198 17 -196 C 7 -194 0 -192 -4 -190 L 15 -135 C 17 -136 22 -138 29 -140 C 36 -142 44 -143 52 -143 C 63 -143 75 -138 87 -128 C 99 -118 109 -101 118 -79 L 154 32 L -1 436 L 68 436 L 186 112 L 298 436 L 362 436 Z M 182 500 L 182 500 Z M 284 500 L 231 500 L 231 656 L 284 656 L 284 500 Z M 131 500 L 78 500 L 78 656 L 131 656 L 131 500 Z" unicode="ÿ" />
<glyph horiz-adv-x="526" d="M 4 0 L 4 0 Z M 521 0 L 453 0 L 385 209 L 137 209 L 71 0 L 4 0 L 240 734 L 286 734 L 521 0 Z M 369 268 L 261 605 L 153 268 L 369 268 Z M 260 824 L 260 824 Z M 378 824 L 142 824 L 142 872 L 378 872 L 378 824 Z" unicode="Ā" />
<glyph horiz-adv-x="397" d="M 23 0 L 23 0 Z M 346 0 L 287 0 L 287 56 C 275 40 257 25 235 12 C 212 0 185 -7 155 -7 C 117 -7 85 4 60 28 C 35 51 23 84 23 127 C 23 173 38 207 70 230 C 102 253 141 266 189 269 L 284 275 L 284 303 C 284 333 275 356 259 371 C 242 386 218 394 188 394 C 161 394 138 389 120 380 C 101 371 87 362 78 354 L 56 397 C 70 410 89 421 113 431 C 137 440 167 445 201 445 C 241 445 276 433 304 411 C 332 389 346 355 346 309 L 346 0 Z M 285 98 L 285 227 L 198 222 C 167 220 140 211 118 196 C 96 181 85 158 85 128 C 85 100 94 80 112 67 C 130 53 151 47 176 47 C 201 47 223 52 243 63 C 262 73 276 85 285 98 Z M 193 530 L 193 530 Z M 311 530 L 75 530 L 75 578 L 311 578 L 311 530 Z" unicode="ā" />
<glyph horiz-adv-x="526" d="M 4 0 L 4 0 Z M 521 0 L 453 0 L 385 209 L 137 209 L 71 0 L 4 0 L 240 734 L 286 734 L 521 0 Z M 369 268 L 261 605 L 153 268 L 369 268 Z M 260 801 L 260 801 Z M 334 956 L 389 956 C 385 902 372 862 348 838 C 324 813 295 801 260 801 C 224 801 195 813 172 838 C 148 862 135 902 132 956 L 186 956 C 188 923 195 896 206 876 C 217 855 235 845 260 845 C 284 845 302 855 314 875 C 325 895 332 922 334 956 Z" unicode="Ă" />
<glyph horiz-adv-x="397" d="M 23 0 L 23 0 Z M 346 0 L 287 0 L 287 56 C 275 40 257 25 235 12 C 212 0 185 -7 155 -7 C 117 -7 85 4 60 28 C 35 51 23 84 23 127 C 23 173 38 207 70 230 C 102 253 141 266 189 269 L 284 275 L 284 303 C 284 333 275 356 259 371 C 242 386 218 394 188 394 C 161 394 138 389 120 380 C 101 371 87 362 78 354 L 56 397 C 70 410 89 421 113 431 C 137 440 167 445 201 445 C 241 445 276 433 304 411 C 332 389 346 355 346 309 L 346 0 Z M 285 98 L 285 227 L 198 222 C 167 220 140 211 118 196 C 96 181 85 158 85 128 C 85 100 94 80 112 67 C 130 53 151 47 176 47 C 201 47 223 52 243 63 C 262 73 276 85 285 98 Z M 193 507 L 193 507 Z M 267 662 L 322 662 C 318 608 305 568 281 544 C 257 519 228 507 193 507 C 157 507 128 519 105 544 C 81 568 68 608 65 662 L 119 662 C 121 629 128 602 139 582 C 150 561 168 551 193 551 C 217 551 235 561 247 581 C 258 601 265 628 267 662 Z" unicode="ă" />
<glyph horiz-adv-x="526" d="M 4 0 L 4 0 Z M 521 0 L 453 0 L 385 209 L 137 209 L 71 0 L 4 0 L 240 734 L 286 734 L 521 0 Z M 369 268 L 261 605 L 153 268 L 369 268 Z M 450 -10 L 450 -10 Z M 552 -110 L 571 -137 C 552 -156 531 -171 507 -181 C 483 -191 457 -197 429 -197 C 398 -197 374 -189 356 -175 C 338 -161 329 -142 329 -120 C 329 -96 338 -73 358 -52 C 378 -30 409 -12 451 4 L 495 3 C 462 -11 435 -26 415 -43 C 394 -59 384 -77 384 -95 C 384 -111 390 -124 402 -134 C 414 -143 430 -148 449 -148 C 469 -148 489 -144 507 -137 C 525 -130 540 -121 552 -110 Z" unicode="Ą" />
<glyph horiz-adv-x="397" d="M 23 0 L 23 0 Z M 346 0 L 287 0 L 287 56 C 275 40 257 25 235 12 C 212 0 185 -7 155 -7 C 117 -7 85 4 60 28 C 35 51 23 84 23 127 C 23 173 38 207 70 230 C 102 253 141 266 189 269 L 284 275 L 284 303 C 284 333 275 356 259 371 C 242 386 218 394 188 394 C 161 394 138 389 120 380 C 101 371 87 362 78 354 L 56 397 C 70 410 89 421 113 431 C 137 440 167 445 201 445 C 241 445 276 433 304 411 C 332 389 346 355 346 309 L 346 0 Z M 285 98 L 285 227 L 198 222 C 167 220 140 211 118 196 C 96 181 85 158 85 128 C 85 100 94 80 112 67 C 130 53 151 47 176 47 C 201 47 223 52 243 63 C 262 73 276 85 285 98 Z M 289 -10 L 289 -10 Z M 391 -110 L 410 -137 C 391 -156 370 -171 346 -181 C 322 -191 296 -197 268 -197 C 237 -197 213 -189 195 -175 C 177 -161 168 -142 168 -120 C 168 -96 177 -73 197 -52 C 217 -30 248 -12 290 4 L 334 3 C 301 -11 274 -26 254 -43 C 233 -59 223 -77 223 -95 C 223 -111 229 -124 241 -134 C 253 -143 269 -148 288 -148 C 308 -148 328 -144 346 -137 C 364 -130 379 -121 391 -110 Z" unicode="ą" />
<glyph horiz-adv-x="549" d="M 43 0 L 43 0 Z M 316 -9 C 278 -9 243 -1 210 15 C 176 31 147 54 123 85 C 98 116 78 155 64 202 C 50 249 43 303 43 365 C 43 423 49 475 62 521 C 75 567 93 607 117 639 C 140 671 169 695 203 713 C 237 730 274 739 316 739 C 375 739 421 727 454 703 C 486 679 512 651 531 617 L 475 582 C 459 607 439 629 415 647 C 391 665 358 674 317 674 C 254 674 204 647 168 594 C 132 541 114 463 114 361 C 114 307 119 261 131 223 C 143 184 158 152 178 128 C 197 103 219 85 244 73 C 268 61 294 55 320 55 C 362 55 397 64 424 83 C 451 102 473 127 490 159 L 541 129 C 520 87 491 54 454 29 C 416 3 370 -9 316 -9 Z M 316 793 L 316 793 Z M 235 793 L 324 962 L 398 962 L 298 793 L 235 793 Z" unicode="Ć" />
<glyph horiz-adv-x="374" d="M 26 0 L 26 0 Z M 320 115 L 365 84 C 359 74 353 63 345 53 C 337 42 327 32 315 23 C 303 14 288 7 272 1 C 255 -4 235 -7 213 -7 C 183 -7 157 -1 134 10 C 110 21 91 36 75 56 C 59 76 46 99 38 127 C 30 154 26 184 26 217 C 26 247 30 276 39 304 C 47 332 60 356 76 377 C 92 397 112 414 136 426 C 160 438 186 444 216 444 C 256 444 288 434 312 415 C 336 395 355 375 367 355 L 321 319 C 310 337 296 353 280 367 C 264 381 242 388 215 388 C 177 388 148 371 126 339 C 104 306 93 266 93 219 C 93 167 104 125 127 94 C 149 62 180 47 218 47 C 248 47 270 54 285 70 C 300 86 312 101 320 115 Z M 206 499 L 206 499 Z M 125 499 L 214 668 L 288 668 L 188 499 L 125 499 Z" unicode="ć" />
<glyph horiz-adv-x="549" d="M 43 0 L 43 0 Z M 316 -9 C 278 -9 243 -1 210 15 C 176 31 147 54 123 85 C 98 116 78 155 64 202 C 50 249 43 303 43 365 C 43 423 49 475 62 521 C 75 567 93 607 117 639 C 140 671 169 695 203 713 C 237 730 274 739 316 739 C 375 739 421 727 454 703 C 486 679 512 651 531 617 L 475 582 C 459 607 439 629 415 647 C 391 665 358 674 317 674 C 254 674 204 647 168 594 C 132 541 114 463 114 361 C 114 307 119 261 131 223 C 143 184 158 152 178 128 C 197 103 219 85 244 73 C 268 61 294 55 320 55 C 362 55 397 64 424 83 C 451 102 473 127 490 159 L 541 129 C 520 87 491 54 454 29 C 416 3 370 -9 316 -9 Z M 316 794 L 316 794 Z M 451 794 L 394 794 L 316 919 L 236 794 L 182 794 L 287 964 L 346 964 L 451 794 Z" unicode="Ĉ" />
<glyph horiz-adv-x="374" d="M 26 0 L 26 0 Z M 320 115 L 365 84 C 359 74 353 63 345 53 C 337 42 327 32 315 23 C 303 14 288 7 272 1 C 255 -4 235 -7 213 -7 C 183 -7 157 -1 134 10 C 110 21 91 36 75 56 C 59 76 46 99 38 127 C 30 154 26 184 26 217 C 26 247 30 276 39 304 C 47 332 60 356 76 377 C 92 397 112 414 136 426 C 160 438 186 444 216 444 C 256 444 288 434 312 415 C 336 395 355 375 367 355 L 321 319 C 310 337 296 353 280 367 C 264 381 242 388 215 388 C 177 388 148 371 126 339 C 104 306 93 266 93 219 C 93 167 104 125 127 94 C 149 62 180 47 218 47 C 248 47 270 54 285 70 C 300 86 312 101 320 115 Z M 206 500 L 206 500 Z M 341 500 L 284 500 L 206 625 L 126 500 L 72 500 L 177 670 L 236 670 L 341 500 Z" unicode="ĉ" />
<glyph horiz-adv-x="549" d="M 43 0 L 43 0 Z M 316 -9 C 278 -9 243 -1 210 15 C 176 31 147 54 123 85 C 98 116 78 155 64 202 C 50 249 43 303 43 365 C 43 423 49 475 62 521 C 75 567 93 607 117 639 C 140 671 169 695 203 713 C 237 730 274 739 316 739 C 375 739 421 727 454 703 C 486 679 512 651 531 617 L 475 582 C 459 607 439 629 415 647 C 391 665 358 674 317 674 C 254 674 204 647 168 594 C 132 541 114 463 114 361 C 114 307 119 261 131 223 C 143 184 158 152 178 128 C 197 103 219 85 244 73 C 268 61 294 55 320 55 C 362 55 397 64 424 83 C 451 102 473 127 490 159 L 541 129 C 520 87 491 54 454 29 C 416 3 370 -9 316 -9 Z M 316 805 L 316 805 Z M 346 805 L 286 805 L 286 929 L 346 929 L 346 805 Z" unicode="Ċ" />
<glyph horiz-adv-x="374" d="M 26 0 L 26 0 Z M 320 115 L 365 84 C 359 74 353 63 345 53 C 337 42 327 32 315 23 C 303 14 288 7 272 1 C 255 -4 235 -7 213 -7 C 183 -7 157 -1 134 10 C 110 21 91 36 75 56 C 59 76 46 99 38 127 C 30 154 26 184 26 217 C 26 247 30 276 39 304 C 47 332 60 356 76 377 C 92 397 112 414 136 426 C 160 438 186 444 216 444 C 256 444 288 434 312 415 C 336 395 355 375 367 355 L 321 319 C 310 337 296 353 280 367 C 264 381 242 388 215 388 C 177 388 148 371 126 339 C 104 306 93 266 93 219 C 93 167 104 125 127 94 C 149 62 180 47 218 47 C 248 47 270 54 285 70 C 300 86 312 101 320 115 Z M 206 511 L 206 511 Z M 236 511 L 176 511 L 176 635 L 236 635 L 236 511 Z" unicode="ċ" />
<glyph horiz-adv-x="549" d="M 43 0 L 43 0 Z M 316 -9 C 278 -9 243 -1 210 15 C 176 31 147 54 123 85 C 98 116 78 155 64 202 C 50 249 43 303 43 365 C 43 423 49 475 62 521 C 75 567 93 607 117 639 C 140 671 169 695 203 713 C 237 730 274 739 316 739 C 375 739 421 727 454 703 C 486 679 512 651 531 617 L 475 582 C 459 607 439 629 415 647 C 391 665 358 674 317 674 C 254 674 204 647 168 594 C 132 541 114 463 114 361 C 114 307 119 261 131 223 C 143 184 158 152 178 128 C 197 103 219 85 244 73 C 268 61 294 55 320 55 C 362 55 397 64 424 83 C 451 102 473 127 490 159 L 541 129 C 520 87 491 54 454 29 C 416 3 370 -9 316 -9 Z M 316 794 L 316 794 Z M 182 964 L 238 964 L 317 838 L 396 964 L 451 964 L 346 794 L 287 794 L 182 964 Z" unicode="Č" />
<glyph horiz-adv-x="374" d="M 26 0 L 26 0 Z M 320 115 L 365 84 C 359 74 353 63 345 53 C 337 42 327 32 315 23 C 303 14 288 7 272 1 C 255 -4 235 -7 213 -7 C 183 -7 157 -1 134 10 C 110 21 91 36 75 56 C 59 76 46 99 38 127 C 30 154 26 184 26 217 C 26 247 30 276 39 304 C 47 332 60 356 76 377 C 92 397 112 414 136 426 C 160 438 186 444 216 444 C 256 444 288 434 312 415 C 336 395 355 375 367 355 L 321 319 C 310 337 296 353 280 367 C 264 381 242 388 215 388 C 177 388 148 371 126 339 C 104 306 93 266 93 219 C 93 167 104 125 127 94 C 149 62 180 47 218 47 C 248 47 270 54 285 70 C 300 86 312 101 320 115 Z M 206 500 L 206 500 Z M 72 670 L 128 670 L 207 544 L 286 670 L 341 670 L 236 500 L 177 500 L 72 670 Z" unicode="č" />
<glyph horiz-adv-x="600" d="M 80 0 L 80 0 Z M 80 0 L 80 730 L 241 730 C 291 730 335 721 375 704 C 414 687 447 663 474 632 C 500 601 521 563 535 519 C 549 474 557 424 557 370 C 557 318 550 269 536 224 C 522 179 502 140 475 107 C 448 73 414 47 373 28 C 332 9 285 0 231 0 L 80 0 Z M 149 61 L 228 61 C 273 61 312 68 344 84 C 376 99 403 120 424 147 C 444 174 460 206 470 244 C 480 282 485 323 485 367 C 485 463 463 538 420 590 C 376 642 316 668 240 668 L 149 668 L 149 61 Z M 275 794 L 275 794 Z M 141 964 L 197 964 L 276 838 L 355 964 L 410 964 L 305 794 L 246 794 L 141 964 Z" unicode="Ď" />
<glyph horiz-adv-x="450" d="M 26 0 L 26 0 Z M 197 -6 C 171 -6 147 0 126 11 C 104 22 86 37 72 57 C 57 77 46 100 38 127 C 30 153 26 182 26 213 C 26 281 42 337 75 379 C 108 421 149 443 198 443 C 234 443 264 433 287 413 C 310 393 326 369 334 343 L 334 757 L 396 757 L 396 0 L 336 0 L 336 96 C 328 71 314 48 292 26 C 270 4 238 -6 197 -6 Z M 216 45 C 250 45 278 60 301 92 C 324 124 336 167 336 222 C 336 276 323 318 298 347 C 273 375 244 390 211 390 C 175 390 147 374 126 343 C 104 311 94 270 94 218 C 94 168 104 127 126 94 C 147 61 177 45 216 45 Z M 514 622 L 510 493 L 456 493 L 452 622 L 452 730 L 514 730 L 514 622 Z" unicode="ď" />
<glyph horiz-adv-x="600" d="M 27 0 L 27 0 Z M 557 365 C 557 314 550 266 536 222 C 522 178 502 139 475 106 C 448 73 414 47 373 28 C 332 9 285 0 231 0 L 80 0 L 80 336 L 27 336 L 27 389 L 80 389 L 80 730 L 241 730 C 291 730 335 721 375 704 C 414 687 447 663 474 631 C 501 599 522 561 536 516 C 550 471 557 421 557 365 Z M 149 57 L 226 57 C 272 57 312 64 345 80 C 378 96 405 117 426 145 C 446 173 461 205 471 243 C 481 280 486 320 486 363 C 486 463 464 539 420 593 C 376 646 317 673 241 673 L 149 673 L 149 389 L 338 389 L 338 336 L 149 336 L 149 57 Z" unicode="Đ" />
<glyph horiz-adv-x="450" d="M 336 96 C 328 71 314 48 292 26 C 270 4 238 -6 197 -6 C 171 -6 147 0 126 11 C 104 22 86 37 72 57 C 57 77 46 100 38 127 C 30 153 26 182 26 213 C 26 281 42 337 75 379 C 108 421 149 443 198 443 C 234 443 264 433 287 413 C 310 393 326 369 334 343 L 334 567 L 216 567 L 216 622 L 334 622 L 334 757 L 396 757 L 396 622 L 441 622 L 441 567 L 396 567 L 396 0 L 336 0 L 336 96 Z M 216 45 C 250 45 278 60 301 92 C 324 124 336 167 336 222 C 336 276 323 318 298 347 C 273 375 244 390 211 390 C 175 390 147 374 126 343 C 104 311 94 270 94 218 C 94 168 104 127 126 94 C 147 61 177 45 216 45 Z" unicode="đ" />
<glyph horiz-adv-x="445" d="M 80 0 L 80 0 Z M 419 0 L 80 0 L 80 730 L 402 730 L 402 667 L 148 667 L 148 394 L 393 394 L 393 331 L 148 331 L 148 63 L 419 63 L 419 0 Z M 242 824 L 242 824 Z M 360 824 L 124 824 L 124 872 L 360 872 L 360 824 Z" unicode="Ē" />
<glyph horiz-adv-x="412" d="M 26 0 L 26 0 Z M 218 -7 C 162 -7 116 12 80 52 C 44 91 26 146 26 216 C 26 284 43 339 79 381 C 114 423 158 444 210 444 C 266 444 310 423 342 382 C 374 340 391 281 391 204 L 89 204 C 89 148 102 107 126 82 C 150 56 182 44 220 44 C 254 44 280 50 298 63 C 316 76 331 90 344 106 L 380 72 C 365 53 346 35 322 18 C 298 1 264 -7 218 -7 Z M 91 250 L 329 250 C 328 291 317 325 297 352 C 276 379 248 393 212 393 C 176 393 147 379 126 352 C 105 325 93 291 91 250 Z M 210 530 L 210 530 Z M 328 530 L 92 530 L 92 578 L 328 578 L 328 530 Z" unicode="ē" />
<glyph horiz-adv-x="445" d="M 80 0 L 80 0 Z M 419 0 L 80 0 L 80 730 L 402 730 L 402 667 L 148 667 L 148 394 L 393 394 L 393 331 L 148 331 L 148 63 L 419 63 L 419 0 Z M 242 801 L 242 801 Z M 316 956 L 371 956 C 367 902 354 862 330 838 C 306 813 277 801 242 801 C 206 801 177 813 154 838 C 130 862 117 902 114 956 L 168 956 C 170 923 177 896 188 876 C 199 855 217 845 242 845 C 266 845 284 855 296 875 C 307 895 314 922 316 956 Z" unicode="Ĕ" />
<glyph horiz-adv-x="412" d="M 26 0 L 26 0 Z M 218 -7 C 162 -7 116 12 80 52 C 44 91 26 146 26 216 C 26 284 43 339 79 381 C 114 423 158 444 210 444 C 266 444 310 423 342 382 C 374 340 391 281 391 204 L 89 204 C 89 148 102 107 126 82 C 150 56 182 44 220 44 C 254 44 280 50 298 63 C 316 76 331 90 344 106 L 380 72 C 365 53 346 35 322 18 C 298 1 264 -7 218 -7 Z M 91 250 L 329 250 C 328 291 317 325 297 352 C 276 379 248 393 212 393 C 176 393 147 379 126 352 C 105 325 93 291 91 250 Z M 210 507 L 210 507 Z M 284 662 L 339 662 C 335 608 322 568 298 544 C 274 519 245 507 210 507 C 174 507 145 519 122 544 C 98 568 85 608 82 662 L 136 662 C 138 629 145 602 156 582 C 167 561 185 551 210 551 C 234 551 252 561 264 581 C 275 601 282 628 284 662 Z" unicode="ĕ" />
<glyph horiz-adv-x="445" d="M 80 0 L 80 0 Z M 419 0 L 80 0 L 80 730 L 402 730 L 402 667 L 148 667 L 148 394 L 393 394 L 393 331 L 148 331 L 148 63 L 419 63 L 419 0 Z M 242 805 L 242 805 Z M 272 805 L 212 805 L 212 929 L 272 929 L 272 805 Z" unicode="Ė" />
<glyph horiz-adv-x="412" d="M 26 0 L 26 0 Z M 218 -7 C 162 -7 116 12 80 52 C 44 91 26 146 26 216 C 26 284 43 339 79 381 C 114 423 158 444 210 444 C 266 444 310 423 342 382 C 374 340 391 281 391 204 L 89 204 C 89 148 102 107 126 82 C 150 56 182 44 220 44 C 254 44 280 50 298 63 C 316 76 331 90 344 106 L 380 72 C 365 53 346 35 322 18 C 298 1 264 -7 218 -7 Z M 91 250 L 329 250 C 328 291 317 325 297 352 C 276 379 248 393 212 393 C 176 393 147 379 126 352 C 105 325 93 291 91 250 Z M 210 511 L 210 511 Z M 240 511 L 180 511 L 180 635 L 240 635 L 240 511 Z" unicode="ė" />
<glyph horiz-adv-x="445" d="M 80 0 L 80 0 Z M 419 0 L 80 0 L 80 730 L 402 730 L 402 667 L 148 667 L 148 394 L 393 394 L 393 331 L 148 331 L 148 63 L 419 63 L 419 0 Z M 374 -10 L 374 -10 Z M 476 -110 L 495 -137 C 476 -156 455 -171 431 -181 C 407 -191 381 -197 353 -197 C 322 -197 298 -189 280 -175 C 262 -161 253 -142 253 -120 C 253 -96 262 -73 282 -52 C 302 -30 333 -12 375 4 L 419 3 C 386 -11 359 -26 339 -43 C 318 -59 308 -77 308 -95 C 308 -111 314 -124 326 -134 C 338 -143 354 -148 373 -148 C 393 -148 413 -144 431 -137 C 449 -130 464 -121 476 -110 Z" unicode="Ę" />
<glyph horiz-adv-x="412" d="M 26 0 L 26 0 Z M 218 -7 C 162 -7 116 12 80 52 C 44 91 26 146 26 216 C 26 284 43 339 79 381 C 114 423 158 444 210 444 C 266 444 310 423 342 382 C 374 340 391 281 391 204 L 89 204 C 89 148 102 107 126 82 C 150 56 182 44 220 44 C 254 44 280 50 298 63 C 316 76 331 90 344 106 L 380 72 C 365 53 346 35 322 18 C 298 1 264 -7 218 -7 Z M 91 250 L 329 250 C 328 291 317 325 297 352 C 276 379 248 393 212 393 C 176 393 147 379 126 352 C 105 325 93 291 91 250 Z M 243 -10 L 243 -10 Z M 345 -110 L 364 -137 C 345 -156 324 -171 300 -181 C 276 -191 250 -197 222 -197 C 191 -197 167 -189 149 -175 C 131 -161 122 -142 122 -120 C 122 -96 131 -73 151 -52 C 171 -30 202 -12 244 4 L 288 3 C 255 -11 228 -26 208 -43 C 187 -59 177 -77 177 -95 C 177 -111 183 -124 195 -134 C 207 -143 223 -148 242 -148 C 262 -148 282 -144 300 -137 C 318 -130 333 -121 345 -110 Z" unicode="ę" />
<glyph horiz-adv-x="445" d="M 80 0 L 80 0 Z M 419 0 L 80 0 L 80 730 L 402 730 L 402 667 L 148 667 L 148 394 L 393 394 L 393 331 L 148 331 L 148 63 L 419 63 L 419 0 Z M 242 794 L 242 794 Z M 108 964 L 164 964 L 243 838 L 322 964 L 377 964 L 272 794 L 213 794 L 108 964 Z" unicode="Ě" />
<glyph horiz-adv-x="412" d="M 26 0 L 26 0 Z M 218 -7 C 162 -7 116 12 80 52 C 44 91 26 146 26 216 C 26 284 43 339 79 381 C 114 423 158 444 210 444 C 266 444 310 423 342 382 C 374 340 391 281 391 204 L 89 204 C 89 148 102 107 126 82 C 150 56 182 44 220 44 C 254 44 280 50 298 63 C 316 76 331 90 344 106 L 380 72 C 365 53 346 35 322 18 C 298 1 264 -7 218 -7 Z M 91 250 L 329 250 C 328 291 317 325 297 352 C 276 379 248 393 212 393 C 176 393 147 379 126 352 C 105 325 93 291 91 250 Z M 210 500 L 210 500 Z M 76 670 L 132 670 L 211 544 L 290 670 L 345 670 L 240 500 L 181 500 L 76 670 Z" unicode="ě" />
<glyph horiz-adv-x="607" d="M 43 0 L 43 0 Z M 332 353 L 567 353 L 567 128 C 545 86 514 52 472 28 C 430 3 380 -9 322 -9 C 283 -9 247 0 213 17 C 179 35 149 60 124 92 C 99 124 79 164 65 210 C 50 256 43 308 43 365 C 43 422 50 474 64 520 C 78 566 97 606 122 638 C 147 670 177 695 211 713 C 245 730 283 739 323 739 C 381 739 426 727 460 703 C 494 679 520 651 538 620 L 483 588 C 467 612 447 632 422 649 C 396 666 363 675 321 675 C 261 675 211 648 172 594 C 133 540 114 463 114 364 C 114 316 119 272 130 234 C 140 195 155 162 174 135 C 192 108 215 87 241 73 C 267 58 295 51 326 51 C 366 51 402 59 433 76 C 464 93 488 116 505 146 L 505 291 L 332 291 L 332 353 Z M 321 794 L 321 794 Z M 456 794 L 399 794 L 321 919 L 241 794 L 187 794 L 292 964 L 351 964 L 456 794 Z" unicode="Ĝ" />
<glyph horiz-adv-x="448" d="M 26 0 L 26 0 Z M 200 -4 C 147 -4 105 16 73 57 C 41 97 26 150 26 216 C 26 285 42 340 76 381 C 109 422 150 443 199 443 C 233 443 261 432 285 412 C 309 391 325 368 334 344 L 334 436 L 394 436 L 394 13 C 394 -22 388 -53 378 -79 C 368 -105 354 -127 337 -145 C 320 -162 300 -175 278 -183 C 256 -191 233 -196 209 -196 C 175 -196 149 -192 129 -186 C 109 -180 93 -173 83 -167 L 103 -119 C 113 -125 127 -130 143 -136 C 159 -141 179 -144 205 -144 C 240 -144 270 -131 295 -106 C 320 -80 333 -43 333 6 L 333 97 C 325 71 309 47 286 27 C 263 6 234 -4 200 -4 Z M 215 43 C 248 43 276 58 300 90 C 324 122 336 166 336 222 C 336 276 323 318 297 348 C 271 377 243 392 211 392 C 177 392 148 376 126 344 C 104 312 93 271 93 219 C 93 168 103 126 124 93 C 144 59 175 43 215 43 Z M 208 500 L 208 500 Z M 343 500 L 286 500 L 208 625 L 128 500 L 74 500 L 179 670 L 238 670 L 343 500 Z" unicode="ĝ" />
<glyph horiz-adv-x="607" d="M 43 0 L 43 0 Z M 332 353 L 567 353 L 567 128 C 545 86 514 52 472 28 C 430 3 380 -9 322 -9 C 283 -9 247 0 213 17 C 179 35 149 60 124 92 C 99 124 79 164 65 210 C 50 256 43 308 43 365 C 43 422 50 474 64 520 C 78 566 97 606 122 638 C 147 670 177 695 211 713 C 245 730 283 739 323 739 C 381 739 426 727 460 703 C 494 679 520 651 538 620 L 483 588 C 467 612 447 632 422 649 C 396 666 363 675 321 675 C 261 675 211 648 172 594 C 133 540 114 463 114 364 C 114 316 119 272 130 234 C 140 195 155 162 174 135 C 192 108 215 87 241 73 C 267 58 295 51 326 51 C 366 51 402 59 433 76 C 464 93 488 116 505 146 L 505 291 L 332 291 L 332 353 Z M 321 801 L 321 801 Z M 395 956 L 450 956 C 446 902 433 862 409 838 C 385 813 356 801 321 801 C 285 801 256 813 233 838 C 209 862 196 902 193 956 L 247 956 C 249 923 256 896 267 876 C 278 855 296 845 321 845 C 345 845 363 855 375 875 C 386 895 393 922 395 956 Z" unicode="Ğ" />
<glyph horiz-adv-x="448" d="M 26 0 L 26 0 Z M 200 -4 C 147 -4 105 16 73 57 C 41 97 26 150 26 216 C 26 285 42 340 76 381 C 109 422 150 443 199 443 C 233 443 261 432 285 412 C 309 391 325 368 334 344 L 334 436 L 394 436 L 394 13 C 394 -22 388 -53 378 -79 C 368 -105 354 -127 337 -145 C 320 -162 300 -175 278 -183 C 256 -191 233 -196 209 -196 C 175 -196 149 -192 129 -186 C 109 -180 93 -173 83 -167 L 103 -119 C 113 -125 127 -130 143 -136 C 159 -141 179 -144 205 -144 C 240 -144 270 -131 295 -106 C 320 -80 333 -43 333 6 L 333 97 C 325 71 309 47 286 27 C 263 6 234 -4 200 -4 Z M 215 43 C 248 43 276 58 300 90 C 324 122 336 166 336 222 C 336 276 323 318 297 348 C 271 377 243 392 211 392 C 177 392 148 376 126 344 C 104 312 93 271 93 219 C 93 168 103 126 124 93 C 144 59 175 43 215 43 Z M 208 507 L 208 507 Z M 282 662 L 337 662 C 333 608 320 568 296 544 C 272 519 243 507 208 507 C 172 507 143 519 120 544 C 96 568 83 608 80 662 L 134 662 C 136 629 143 602 154 582 C 165 561 183 551 208 551 C 232 551 250 561 262 581 C 273 601 280 628 282 662 Z" unicode="ğ" />
<glyph horiz-adv-x="607" d="M 43 0 L 43 0 Z M 332 353 L 567 353 L 567 128 C 545 86 514 52 472 28 C 430 3 380 -9 322 -9 C 283 -9 247 0 213 17 C 179 35 149 60 124 92 C 99 124 79 164 65 210 C 50 256 43 308 43 365 C 43 422 50 474 64 520 C 78 566 97 606 122 638 C 147 670 177 695 211 713 C 245 730 283 739 323 739 C 381 739 426 727 460 703 C 494 679 520 651 538 620 L 483 588 C 467 612 447 632 422 649 C 396 666 363 675 321 675 C 261 675 211 648 172 594 C 133 540 114 463 114 364 C 114 316 119 272 130 234 C 140 195 155 162 174 135 C 192 108 215 87 241 73 C 267 58 295 51 326 51 C 366 51 402 59 433 76 C 464 93 488 116 505 146 L 505 291 L 332 291 L 332 353 Z M 321 805 L 321 805 Z M 351 805 L 291 805 L 291 929 L 351 929 L 351 805 Z" unicode="Ġ" />
<glyph horiz-adv-x="448" d="M 26 0 L 26 0 Z M 200 -4 C 147 -4 105 16 73 57 C 41 97 26 150 26 216 C 26 285 42 340 76 381 C 109 422 150 443 199 443 C 233 443 261 432 285 412 C 309 391 325 368 334 344 L 334 436 L 394 436 L 394 13 C 394 -22 388 -53 378 -79 C 368 -105 354 -127 337 -145 C 320 -162 300 -175 278 -183 C 256 -191 233 -196 209 -196 C 175 -196 149 -192 129 -186 C 109 -180 93 -173 83 -167 L 103 -119 C 113 -125 127 -130 143 -136 C 159 -141 179 -144 205 -144 C 240 -144 270 -131 295 -106 C 320 -80 333 -43 333 6 L 333 97 C 325 71 309 47 286 27 C 263 6 234 -4 200 -4 Z M 215 43 C 248 43 276 58 300 90 C 324 122 336 166 336 222 C 336 276 323 318 297 348 C 271 377 243 392 211 392 C 177 392 148 376 126 344 C 104 312 93 271 93 219 C 93 168 103 126 124 93 C 144 59 175 43 215 43 Z M 208 511 L 208 511 Z M 238 511 L 178 511 L 178 635 L 238 635 L 238 511 Z" unicode="ġ" />
<glyph horiz-adv-x="607" d="M 43 0 L 43 0 Z M 332 353 L 567 353 L 567 128 C 545 86 514 52 472 28 C 430 3 380 -9 322 -9 C 283 -9 247 0 213 17 C 179 35 149 60 124 92 C 99 124 79 164 65 210 C 50 256 43 308 43 365 C 43 422 50 474 64 520 C 78 566 97 606 122 638 C 147 670 177 695 211 713 C 245 730 283 739 323 739 C 381 739 426 727 460 703 C 494 679 520 651 538 620 L 483 588 C 467 612 447 632 422 649 C 396 666 363 675 321 675 C 261 675 211 648 172 594 C 133 540 114 463 114 364 C 114 316 119 272 130 234 C 140 195 155 162 174 135 C 192 108 215 87 241 73 C 267 58 295 51 326 51 C 366 51 402 59 433 76 C 464 93 488 116 505 146 L 505 291 L 332 291 L 332 353 Z" unicode="Ģ" />
<glyph horiz-adv-x="448" d="M 26 0 L 26 0 Z M 200 -4 C 147 -4 105 16 73 57 C 41 97 26 150 26 216 C 26 285 42 340 76 381 C 109 422 150 443 199 443 C 233 443 261 432 285 412 C 309 391 325 368 334 344 L 334 436 L 394 436 L 394 13 C 394 -22 388 -53 378 -79 C 368 -105 354 -127 337 -145 C 320 -162 300 -175 278 -183 C 256 -191 233 -196 209 -196 C 175 -196 149 -192 129 -186 C 109 -180 93 -173 83 -167 L 103 -119 C 113 -125 127 -130 143 -136 C 159 -141 179 -144 205 -144 C 240 -144 270 -131 295 -106 C 320 -80 333 -43 333 6 L 333 97 C 325 71 309 47 286 27 C 263 6 234 -4 200 -4 Z M 215 43 C 248 43 276 58 300 90 C 324 122 336 166 336 222 C 336 276 323 318 297 348 C 271 377 243 392 211 392 C 177 392 148 376 126 344 C 104 312 93 271 93 219 C 93 168 103 126 124 93 C 144 59 175 43 215 43 Z" unicode="ģ" />
<glyph horiz-adv-x="611" d="M 80 0 L 80 0 Z M 531 0 L 461 0 L 461 328 L 150 328 L 150 0 L 80 0 L 80 730 L 150 730 L 150 394 L 461 394 L 461 730 L 531 730 L 531 0 Z M 306 794 L 306 794 Z M 441 794 L 384 794 L 306 919 L 226 794 L 172 794 L 277 964 L 336 964 L 441 794 Z" unicode="Ĥ" />
<glyph horiz-adv-x="431" d="M 54 0 L 54 0 Z M 378 0 L 314 0 L 314 293 C 314 325 305 349 289 365 C 273 381 250 389 222 389 C 195 389 171 380 150 363 C 128 345 118 315 118 272 L 118 0 L 54 0 L 54 757 L 115 757 L 115 356 C 121 380 136 401 158 418 C 180 435 209 444 245 444 C 285 444 317 433 341 411 C 365 389 378 356 378 311 L 378 0 Z M 217 821 L 217 821 Z M 352 821 L 295 821 L 217 946 L 137 821 L 83 821 L 188 991 L 247 991 L 352 821 Z" unicode="ĥ" />
<glyph horiz-adv-x="611" d="M 150 328 L 150 0 L 80 0 L 80 556 L 14 556 L 14 611 L 80 611 L 80 730 L 150 730 L 150 611 L 461 611 L 461 730 L 531 730 L 531 611 L 596 611 L 596 556 L 531 556 L 531 0 L 461 0 L 461 328 L 150 328 Z M 150 394 L 461 394 L 461 556 L 150 556 L 150 394 Z" unicode="Ħ" />
<glyph horiz-adv-x="431" d="M 118 272 L 118 0 L 54 0 L 54 567 L 9 567 L 9 622 L 54 622 L 54 757 L 115 757 L 115 622 L 235 622 L 235 567 L 115 567 L 115 356 C 121 380 136 401 158 418 C 180 435 209 444 245 444 C 285 444 317 433 341 411 C 365 389 378 356 378 311 L 378 0 L 314 0 L 314 293 C 314 325 305 349 289 365 C 273 381 250 389 222 389 C 195 389 171 380 150 363 C 128 345 118 315 118 272 Z" unicode="ħ" />
<glyph horiz-adv-x="238" d="M 0 0 L 0 0 Z M 155 0 L 84 0 L 84 730 L 155 730 L 155 0 Z M 120 802 L 120 802 Z M 217 930 L 265 930 C 265 886 259 854 247 833 C 235 812 220 802 202 802 C 184 802 169 806 157 815 C 144 823 133 832 123 841 C 113 849 103 858 93 866 C 83 874 72 879 62 879 C 52 879 43 872 36 860 C 28 848 24 830 24 806 L -24 806 C -24 849 -16 881 -1 902 C 13 923 30 934 48 934 C 64 934 78 929 90 920 C 102 911 113 902 124 893 C 133 884 142 876 152 868 C 162 860 172 856 182 856 C 191 856 199 862 206 875 C 213 887 217 906 217 930 Z" unicode="Ĩ" />
<glyph horiz-adv-x="180" d="M 0 0 L 0 0 Z M 122 0 L 58 0 L 58 436 L 122 436 L 122 0 Z M 90 508 L 90 508 Z M 187 636 L 235 636 C 235 592 229 560 217 539 C 205 518 190 508 172 508 C 154 508 139 512 127 521 C 114 529 103 538 93 547 C 83 555 73 564 63 572 C 53 580 42 585 32 585 C 22 585 13 578 6 566 C -1 554 -5 536 -6 512 L -54 512 C -54 555 -46 587 -31 608 C -16 629 0 640 18 640 C 34 640 48 635 60 626 C 72 617 83 608 94 599 C 103 590 112 582 122 574 C 132 566 142 562 152 562 C 161 562 169 568 176 581 C 183 593 187 612 187 636 Z" unicode="ĩ" />
<glyph horiz-adv-x="238" d="M 2 0 L 2 0 Z M 155 0 L 84 0 L 84 730 L 155 730 L 155 0 Z M 120 824 L 120 824 Z M 238 824 L 2 824 L 2 872 L 238 872 L 238 824 Z" unicode="Ī" />
<glyph horiz-adv-x="180" d="M 0 0 L 0 0 Z M 122 0 L 58 0 L 58 436 L 122 436 L 122 0 Z M 90 530 L 90 530 Z M 208 530 L -28 530 L -28 578 L 208 578 L 208 530 Z" unicode="ī" />
<glyph horiz-adv-x="238" d="M 0 0 L 0 0 Z M 155 0 L 84 0 L 84 730 L 155 730 L 155 0 Z M 120 801 L 120 801 Z M 194 956 L 249 956 C 245 902 232 862 208 838 C 184 813 155 801 120 801 C 84 801 55 813 32 838 C 8 862 -4 902 -8 956 L 46 956 C 48 923 55 896 66 876 C 77 855 95 845 120 845 C 144 845 162 855 174 875 C 185 895 192 922 194 956 Z" unicode="Ĭ" />
<glyph horiz-adv-x="180" d="M 0 0 L 0 0 Z M 122 0 L 58 0 L 58 436 L 122 436 L 122 0 Z M 90 507 L 90 507 Z M 164 662 L 219 662 C 215 608 202 568 178 544 C 154 519 125 507 90 507 C 54 507 25 519 2 544 C -21 568 -34 608 -38 662 L 16 662 C 18 629 25 602 36 582 C 47 561 65 551 90 551 C 114 551 132 561 144 581 C 155 601 162 628 164 662 Z" unicode="ĭ" />
<glyph horiz-adv-x="238" d="M 0 0 L 0 0 Z M 155 0 L 84 0 L 84 730 L 155 730 L 155 0 Z M 84 -10 L 84 -10 Z M 186 -110 L 205 -137 C 186 -156 165 -171 141 -181 C 117 -191 91 -197 63 -197 C 32 -197 8 -189 -10 -175 C -28 -161 -37 -142 -37 -120 C -37 -96 -27 -73 -7 -52 C 12 -30 43 -12 85 4 L 129 3 C 96 -11 69 -26 49 -43 C 28 -59 18 -77 18 -95 C 18 -111 24 -124 36 -134 C 48 -143 64 -148 83 -148 C 103 -148 123 -144 141 -137 C 159 -130 174 -121 186 -110 Z" unicode="Į" />
<glyph horiz-adv-x="180" d="M 0 0 L 0 0 Z M 56 545 L 56 617 L 124 617 L 124 545 L 56 545 Z M 58 0 L 58 436 L 122 436 L 122 0 L 58 0 Z M 60 -10 L 60 -10 Z M 162 -110 L 181 -137 C 162 -156 141 -171 117 -181 C 93 -191 67 -197 39 -197 C 8 -197 -16 -189 -34 -175 C -52 -161 -61 -142 -61 -120 C -61 -96 -51 -73 -31 -52 C -11 -30 19 -12 61 4 L 105 3 C 72 -11 45 -26 25 -43 C 4 -59 -6 -77 -6 -95 C -6 -111 0 -124 12 -134 C 24 -143 40 -148 59 -148 C 79 -148 99 -144 117 -137 C 135 -130 150 -121 162 -110 Z" unicode="į" />
<glyph horiz-adv-x="238" d="M 84 0 L 84 0 Z M 155 0 L 84 0 L 84 730 L 155 730 L 155 0 Z M 120 805 L 120 805 Z M 150 805 L 90 805 L 90 929 L 150 929 L 150 805 Z" unicode="İ" />
<glyph horiz-adv-x="180" d="M 122 0 L 58 0 L 58 436 L 122 436 L 122 0 Z" unicode="ı" />
<glyph horiz-adv-x="524" d="M 84 0 L 84 0 Z M 155 0 L 84 0 L 84 730 L 155 730 L 155 0 Z M 455 730 L 455 185 C 455 158 451 133 444 109 C 436 85 425 65 411 47 C 397 29 379 16 358 6 C 337 -4 313 -9 287 -9 C 274 -9 261 -8 248 -6 C 235 -4 225 -2 217 0 L 219 65 C 223 62 231 60 243 58 C 254 56 265 55 276 55 C 311 55 338 68 357 94 C 376 120 386 152 386 190 L 386 730 L 455 730 Z" unicode="Ĳ" />
<glyph horiz-adv-x="348" d="M 56 0 L 56 0 Z M 56 545 L 56 617 L 124 617 L 124 545 L 56 545 Z M 58 0 L 58 436 L 122 436 L 122 0 L 58 0 Z M 297 545 L 229 545 L 229 617 L 297 617 L 297 545 Z M 295 436 L 295 -103 C 295 -131 286 -155 270 -173 C 253 -191 232 -201 206 -201 C 197 -201 188 -200 178 -198 C 168 -196 162 -195 159 -193 L 169 -142 C 171 -142 174 -143 178 -144 C 182 -144 186 -145 190 -145 C 200 -145 210 -140 218 -132 C 226 -124 231 -111 231 -95 L 231 436 L 295 436 Z" unicode="ĳ" />
<glyph horiz-adv-x="314" d="M 10 0 L 10 0 Z M 248 730 L 248 185 C 248 158 244 133 237 109 C 229 85 218 65 204 47 C 190 29 172 16 151 6 C 130 -4 106 -9 80 -9 C 67 -9 54 -8 41 -6 C 28 -4 18 -2 10 0 L 12 65 C 16 62 24 60 36 58 C 47 56 58 55 69 55 C 104 55 131 68 150 94 C 169 120 179 152 179 190 L 179 730 L 248 730 Z M 213 794 L 213 794 Z M 348 794 L 291 794 L 213 919 L 133 794 L 79 794 L 184 964 L 243 964 L 348 794 Z" unicode="Ĵ" />
<glyph horiz-adv-x="178" d="M 0 0 L 0 0 Z M 123 436 L 123 -103 C 123 -131 114 -155 98 -173 C 81 -191 60 -201 34 -201 C 25 -201 16 -200 6 -198 C -3 -196 -9 -195 -13 -193 L -3 -142 C 0 -142 2 -143 6 -144 C 10 -144 14 -145 18 -145 C 28 -145 38 -140 46 -132 C 54 -124 59 -111 59 -95 L 59 436 L 123 436 Z M 90 500 L 90 500 Z M 225 500 L 168 500 L 90 625 L 10 500 L -44 500 L 61 670 L 120 670 L 225 500 Z" unicode="ĵ" />
<glyph horiz-adv-x="540" d="M 80 0 L 80 0 Z M 542 0 L 459 0 L 220 359 L 150 271 L 150 0 L 80 0 L 80 730 L 150 730 L 150 354 L 433 730 L 513 730 L 268 406 L 542 0 Z M 276 -68 L 276 -68 Z M 350 -68 C 347 -110 336 -153 317 -196 C 298 -239 276 -275 251 -305 L 202 -282 C 216 -263 231 -234 249 -194 C 267 -154 278 -112 282 -68 L 350 -68 Z" unicode="Ķ" />
<glyph horiz-adv-x="388" d="M 54 0 L 54 0 Z M 395 1 L 324 0 L 192 207 L 118 111 L 118 0 L 54 0 L 54 757 L 115 757 L 115 184 L 304 436 L 373 436 L 235 254 L 395 1 Z M 195 -68 L 195 -68 Z M 269 -68 C 266 -110 255 -153 236 -196 C 217 -239 195 -275 170 -305 L 121 -282 C 135 -263 150 -234 168 -194 C 186 -154 197 -112 201 -68 L 269 -68 Z" unicode="ķ" />
<glyph horiz-adv-x="388" d="M 395 1 L 324 0 L 192 207 L 118 111 L 118 0 L 54 0 L 54 436 L 115 436 L 115 184 L 304 436 L 373 436 L 235 254 L 395 1 Z" unicode="ĸ" />
<glyph horiz-adv-x="400" d="M 80 0 L 80 0 Z M 393 0 L 80 0 L 80 730 L 150 730 L 150 63 L 393 63 L 393 0 Z M 220 793 L 220 793 Z M 139 793 L 228 962 L 302 962 L 202 793 L 139 793 Z" unicode="Ĺ" />
<glyph horiz-adv-x="175" d="M 56 0 L 56 0 Z M 139 840 L 139 840 Z M 58 840 L 147 1009 L 221 1009 L 121 840 L 58 840 Z M 120 777 L 120 0 L 56 0 L 56 777 L 120 777 Z" unicode="ĺ" />
<glyph horiz-adv-x="400" d="M 80 0 L 80 0 Z M 393 0 L 80 0 L 80 730 L 150 730 L 150 63 L 393 63 L 393 0 Z M 217 -68 L 217 -68 Z M 291 -68 C 288 -110 277 -153 258 -196 C 239 -239 217 -275 192 -305 L 143 -282 C 157 -263 172 -234 190 -194 C 208 -154 219 -112 223 -68 L 291 -68 Z" unicode="Ļ" />
<glyph horiz-adv-x="175" d="M 0 0 L 0 0 Z M 120 777 L 120 0 L 56 0 L 56 777 L 120 777 Z M 62 -68 L 62 -68 Z M 136 -68 C 133 -110 122 -153 103 -196 C 84 -239 62 -275 37 -305 L -12 -282 C 2 -263 17 -234 35 -194 C 53 -154 64 -112 68 -68 L 136 -68 Z" unicode="ļ" />
<glyph horiz-adv-x="400" d="M 80 0 L 80 0 Z M 393 0 L 80 0 L 80 730 L 150 730 L 150 63 L 393 63 L 393 0 Z M 392 622 L 388 493 L 334 493 L 330 622 L 330 730 L 392 730 L 392 622 Z" unicode="Ľ" />
<glyph horiz-adv-x="175" d="M 56 0 L 56 0 Z M 120 777 L 120 0 L 56 0 L 56 777 L 120 777 Z M 250 622 L 246 493 L 192 493 L 188 622 L 188 730 L 250 730 L 250 622 Z" unicode="ľ" />
<glyph horiz-adv-x="400" d="M 80 0 L 80 0 Z M 393 0 L 80 0 L 80 730 L 150 730 L 150 63 L 393 63 L 393 0 Z M 302 301 L 302 301 Z M 332 301 L 272 301 L 272 425 L 332 425 L 332 301 Z" unicode="Ŀ" />
<glyph horiz-adv-x="175" d="M 56 0 L 56 0 Z M 120 777 L 120 0 L 56 0 L 56 777 L 120 777 Z M 215 202 L 215 202 Z M 245 202 L 185 202 L 185 326 L 245 326 L 245 202 Z" unicode="ŀ" />
<glyph horiz-adv-x="400" d="M 393 59 L 393 0 L 80 0 L 80 277 L 25 254 L 2 303 L 80 335 L 80 730 L 150 730 L 150 364 L 308 430 L 329 380 L 150 306 L 150 59 L 393 59 Z" unicode="Ł" />
<glyph horiz-adv-x="175" d="M 198 339 L 130 308 L 130 0 L 66 0 L 66 278 L 16 255 L -2 299 L 66 330 L 66 757 L 130 757 L 130 359 L 180 382 L 198 339 Z" unicode="ł" />
<glyph horiz-adv-x="619" d="M 80 0 L 80 0 Z M 540 0 L 489 0 L 146 580 L 146 0 L 80 0 L 80 730 L 131 730 L 475 151 L 475 730 L 540 730 L 540 0 Z M 311 793 L 311 793 Z M 230 793 L 319 962 L 393 962 L 293 793 L 230 793 Z" unicode="Ń" />
<glyph horiz-adv-x="430" d="M 54 0 L 54 0 Z M 378 0 L 314 0 L 314 300 C 314 328 306 350 290 366 C 274 381 251 389 223 389 C 195 389 171 380 150 363 C 128 345 118 315 118 271 L 118 0 L 54 0 L 54 436 L 115 436 L 115 357 C 122 382 137 403 159 419 C 181 435 210 444 246 444 C 286 444 318 433 342 412 C 366 390 378 359 378 319 L 378 0 Z M 216 499 L 216 499 Z M 135 499 L 224 668 L 298 668 L 198 499 L 135 499 Z" unicode="ń" />
<glyph horiz-adv-x="619" d="M 80 0 L 80 0 Z M 540 0 L 489 0 L 146 580 L 146 0 L 80 0 L 80 730 L 131 730 L 475 151 L 475 730 L 540 730 L 540 0 Z M 292 -68 L 292 -68 Z M 366 -68 C 363 -110 352 -153 333 -196 C 314 -239 292 -275 267 -305 L 218 -282 C 232 -263 247 -234 265 -194 C 283 -154 294 -112 298 -68 L 366 -68 Z" unicode="Ņ" />
<glyph horiz-adv-x="430" d="M 54 0 L 54 0 Z M 378 0 L 314 0 L 314 300 C 314 328 306 350 290 366 C 274 381 251 389 223 389 C 195 389 171 380 150 363 C 128 345 118 315 118 271 L 118 0 L 54 0 L 54 436 L 115 436 L 115 357 C 122 382 137 403 159 419 C 181 435 210 444 246 444 C 286 444 318 433 342 412 C 366 390 378 359 378 319 L 378 0 Z M 194 -68 L 194 -68 Z M 268 -68 C 265 -110 254 -153 235 -196 C 216 -239 194 -275 169 -305 L 120 -282 C 134 -263 149 -234 167 -194 C 185 -154 196 -112 200 -68 L 268 -68 Z" unicode="ņ" />
<glyph horiz-adv-x="619" d="M 80 0 L 80 0 Z M 540 0 L 489 0 L 146 580 L 146 0 L 80 0 L 80 730 L 131 730 L 475 151 L 475 730 L 540 730 L 540 0 Z M 311 794 L 311 794 Z M 177 964 L 233 964 L 312 838 L 391 964 L 446 964 L 341 794 L 282 794 L 177 964 Z" unicode="Ň" />
<glyph horiz-adv-x="430" d="M 54 0 L 54 0 Z M 378 0 L 314 0 L 314 300 C 314 328 306 350 290 366 C 274 381 251 389 223 389 C 195 389 171 380 150 363 C 128 345 118 315 118 271 L 118 0 L 54 0 L 54 436 L 115 436 L 115 357 C 122 382 137 403 159 419 C 181 435 210 444 246 444 C 286 444 318 433 342 412 C 366 390 378 359 378 319 L 378 0 Z M 216 500 L 216 500 Z M 82 670 L 138 670 L 217 544 L 296 670 L 351 670 L 246 500 L 187 500 L 82 670 Z" unicode="ň" />
<glyph horiz-adv-x="621" d="M 475 730 L 540 730 L 540 -3 C 540 -29 536 -54 529 -78 C 522 -102 512 -122 498 -140 C 484 -158 467 -172 447 -182 C 427 -192 403 -197 377 -197 C 364 -197 351 -196 338 -194 C 324 -192 314 -190 307 -188 L 308 -123 C 313 -125 321 -128 333 -130 C 344 -132 355 -133 366 -133 C 401 -133 428 -119 447 -93 C 466 -67 476 -35 476 2 L 476 22 L 146 580 L 146 0 L 80 0 L 80 730 L 131 730 L 475 151 L 475 730 Z" unicode="Ŋ" />
<glyph horiz-adv-x="430" d="M 246 444 C 286 444 318 433 342 412 C 366 390 378 359 378 319 L 378 -103 C 378 -131 369 -155 353 -173 C 336 -191 315 -201 289 -201 C 280 -201 271 -200 261 -198 C 251 -196 245 -195 242 -193 L 252 -142 C 254 -142 257 -143 261 -144 C 265 -144 269 -145 273 -145 C 283 -145 293 -140 301 -132 C 309 -124 314 -111 314 -95 L 314 300 C 314 328 306 350 290 366 C 274 381 251 389 223 389 C 195 389 171 380 150 363 C 128 345 118 315 118 271 L 118 0 L 54 0 L 54 436 L 115 436 L 115 357 C 122 382 137 403 159 419 C 181 435 210 444 246 444 Z" unicode="ŋ" />
<glyph horiz-adv-x="661" d="M 43 0 L 43 0 Z M 333 -9 C 289 -9 250 0 214 17 C 178 34 148 59 123 91 C 97 123 78 163 64 211 C 50 258 43 311 43 371 C 43 427 50 477 64 523 C 78 568 97 607 122 639 C 147 671 177 695 212 713 C 247 730 285 739 327 739 C 416 739 487 705 540 639 C 592 573 619 482 619 366 C 619 308 611 256 597 210 C 582 164 562 124 537 92 C 511 60 481 35 446 17 C 411 0 373 -9 333 -9 Z M 332 53 C 394 53 445 80 486 135 C 526 189 547 268 547 371 C 547 467 526 541 486 595 C 445 649 393 676 329 676 C 263 676 211 649 173 596 C 134 543 115 466 115 365 C 115 313 120 268 131 229 C 142 190 157 158 177 132 C 196 106 219 86 246 73 C 272 59 301 53 332 53 Z M 329 824 L 329 824 Z M 447 824 L 211 824 L 211 872 L 447 872 L 447 824 Z" unicode="Ō" />
<glyph horiz-adv-x="429" d="M 26 0 L 26 0 Z M 215 -7 C 188 -7 163 -2 140 8 C 117 18 97 32 80 52 C 63 71 50 94 40 122 C 30 150 26 181 26 216 C 26 248 30 279 40 307 C 49 335 62 359 78 379 C 94 399 114 415 136 427 C 158 438 183 444 210 444 C 266 444 312 424 348 384 C 384 344 403 292 403 228 C 403 194 398 162 389 133 C 380 104 367 79 351 59 C 334 38 314 22 291 10 C 268 -1 243 -7 215 -7 Z M 214 46 C 252 46 281 61 303 93 C 325 125 336 167 336 221 C 336 273 324 314 302 344 C 280 374 249 390 210 390 C 176 390 148 374 126 344 C 104 313 93 272 93 220 C 93 162 104 119 127 90 C 150 60 179 46 214 46 Z M 213 530 L 213 530 Z M 331 530 L 95 530 L 95 578 L 331 578 L 331 530 Z" unicode="ō" />
<glyph horiz-adv-x="661" d="M 43 0 L 43 0 Z M 333 -9 C 289 -9 250 0 214 17 C 178 34 148 59 123 91 C 97 123 78 163 64 211 C 50 258 43 311 43 371 C 43 427 50 477 64 523 C 78 568 97 607 122 639 C 147 671 177 695 212 713 C 247 730 285 739 327 739 C 416 739 487 705 540 639 C 592 573 619 482 619 366 C 619 308 611 256 597 210 C 582 164 562 124 537 92 C 511 60 481 35 446 17 C 411 0 373 -9 333 -9 Z M 332 53 C 394 53 445 80 486 135 C 526 189 547 268 547 371 C 547 467 526 541 486 595 C 445 649 393 676 329 676 C 263 676 211 649 173 596 C 134 543 115 466 115 365 C 115 313 120 268 131 229 C 142 190 157 158 177 132 C 196 106 219 86 246 73 C 272 59 301 53 332 53 Z M 329 801 L 329 801 Z M 403 956 L 458 956 C 454 902 441 862 417 838 C 393 813 364 801 329 801 C 293 801 264 813 241 838 C 217 862 204 902 201 956 L 255 956 C 257 923 264 896 275 876 C 286 855 304 845 329 845 C 353 845 371 855 383 875 C 394 895 401 922 403 956 Z" unicode="Ŏ" />
<glyph horiz-adv-x="429" d="M 26 0 L 26 0 Z M 215 -7 C 188 -7 163 -2 140 8 C 117 18 97 32 80 52 C 63 71 50 94 40 122 C 30 150 26 181 26 216 C 26 248 30 279 40 307 C 49 335 62 359 78 379 C 94 399 114 415 136 427 C 158 438 183 444 210 444 C 266 444 312 424 348 384 C 384 344 403 292 403 228 C 403 194 398 162 389 133 C 380 104 367 79 351 59 C 334 38 314 22 291 10 C 268 -1 243 -7 215 -7 Z M 214 46 C 252 46 281 61 303 93 C 325 125 336 167 336 221 C 336 273 324 314 302 344 C 280 374 249 390 210 390 C 176 390 148 374 126 344 C 104 313 93 272 93 220 C 93 162 104 119 127 90 C 150 60 179 46 214 46 Z M 213 507 L 213 507 Z M 287 662 L 342 662 C 338 608 325 568 301 544 C 277 519 248 507 213 507 C 177 507 148 519 125 544 C 101 568 88 608 85 662 L 139 662 C 141 629 148 602 159 582 C 170 561 188 551 213 551 C 237 551 255 561 267 581 C 278 601 285 628 287 662 Z" unicode="ŏ" />
<glyph horiz-adv-x="661" d="M 43 0 L 43 0 Z M 333 -9 C 289 -9 250 0 214 17 C 178 34 148 59 123 91 C 97 123 78 163 64 211 C 50 258 43 311 43 371 C 43 427 50 477 64 523 C 78 568 97 607 122 639 C 147 671 177 695 212 713 C 247 730 285 739 327 739 C 416 739 487 705 540 639 C 592 573 619 482 619 366 C 619 308 611 256 597 210 C 582 164 562 124 537 92 C 511 60 481 35 446 17 C 411 0 373 -9 333 -9 Z M 332 53 C 394 53 445 80 486 135 C 526 189 547 268 547 371 C 547 467 526 541 486 595 C 445 649 393 676 329 676 C 263 676 211 649 173 596 C 134 543 115 466 115 365 C 115 313 120 268 131 229 C 142 190 157 158 177 132 C 196 106 219 86 246 73 C 272 59 301 53 332 53 Z M 329 793 L 329 793 Z M 181 793 L 252 946 L 322 946 L 239 793 L 181 793 Z M 337 793 L 409 946 L 478 946 L 396 793 L 337 793 Z" unicode="Ő" />
<glyph horiz-adv-x="429" d="M 26 0 L 26 0 Z M 215 -7 C 188 -7 163 -2 140 8 C 117 18 97 32 80 52 C 63 71 50 94 40 122 C 30 150 26 181 26 216 C 26 248 30 279 40 307 C 49 335 62 359 78 379 C 94 399 114 415 136 427 C 158 438 183 444 210 444 C 266 444 312 424 348 384 C 384 344 403 292 403 228 C 403 194 398 162 389 133 C 380 104 367 79 351 59 C 334 38 314 22 291 10 C 268 -1 243 -7 215 -7 Z M 214 46 C 252 46 281 61 303 93 C 325 125 336 167 336 221 C 336 273 324 314 302 344 C 280 374 249 390 210 390 C 176 390 148 374 126 344 C 104 313 93 272 93 220 C 93 162 104 119 127 90 C 150 60 179 46 214 46 Z M 213 499 L 213 499 Z M 65 499 L 136 652 L 206 652 L 123 499 L 65 499 Z M 221 499 L 293 652 L 362 652 L 280 499 L 221 499 Z" unicode="ő" />
<glyph horiz-adv-x="900" d="M 319 -9 C 278 -9 241 0 207 16 C 173 32 144 57 120 89 C 96 121 77 160 63 208 C 49 255 43 309 43 370 C 43 428 49 479 63 525 C 77 571 96 609 120 641 C 144 672 172 696 206 713 C 240 729 276 738 316 738 C 343 738 369 733 393 724 C 417 715 439 703 458 688 C 477 672 493 654 506 634 C 519 614 529 592 535 570 L 535 730 L 857 730 L 857 671 L 603 671 L 603 391 L 848 391 L 848 332 L 603 332 L 603 59 L 874 59 L 874 0 L 535 0 L 535 166 C 529 144 521 122 509 101 C 497 79 481 61 463 45 C 445 29 423 16 399 6 C 375 -4 348 -9 319 -9 Z M 327 46 C 357 46 384 53 410 67 C 436 81 458 101 477 128 C 495 155 510 189 521 230 C 531 271 537 318 537 372 C 537 423 531 468 519 507 C 507 546 491 578 472 604 C 452 630 430 649 404 662 C 378 675 351 682 323 682 C 261 682 210 655 172 602 C 133 548 114 469 114 365 C 114 312 119 265 130 225 C 141 185 156 151 175 125 C 194 99 217 79 243 66 C 269 52 297 46 327 46 Z" unicode="Œ" />
<glyph horiz-adv-x="721" d="M 211 -7 C 159 -7 115 13 79 53 C 43 93 26 147 26 216 C 26 249 30 280 40 308 C 49 336 62 360 78 380 C 94 400 113 415 136 427 C 159 438 184 444 211 444 C 234 444 255 440 273 433 C 291 425 307 416 321 404 C 334 392 345 379 353 365 C 361 351 366 336 369 322 C 371 335 375 349 383 364 C 391 378 401 391 414 403 C 426 415 441 424 459 432 C 477 440 497 444 520 444 C 577 444 621 422 653 380 C 684 338 700 279 700 204 L 399 204 C 399 150 412 109 437 83 C 461 56 492 43 529 43 C 563 43 590 49 608 63 C 626 76 641 90 654 106 L 690 72 C 675 53 656 35 633 18 C 609 1 574 -7 528 -7 C 504 -7 483 -3 464 3 C 445 10 429 19 416 31 C 402 42 391 55 383 70 C 375 84 369 99 367 115 C 364 102 358 88 350 74 C 341 60 330 47 317 35 C 304 23 289 13 271 5 C 253 -3 233 -7 211 -7 Z M 401 249 L 639 249 C 638 291 627 325 606 352 C 585 379 556 393 519 393 C 483 393 455 379 435 352 C 415 325 403 291 401 249 Z M 214 46 C 252 46 281 61 303 93 C 325 124 336 167 336 221 C 336 273 324 314 302 344 C 280 374 250 390 212 390 C 176 390 147 374 125 344 C 103 313 93 272 93 220 C 93 163 104 120 127 90 C 149 60 178 46 214 46 Z" unicode="œ" />
<glyph horiz-adv-x="499" d="M 80 0 L 80 0 Z M 80 0 L 80 730 L 238 730 C 292 730 337 713 372 680 C 407 647 425 599 425 537 C 425 478 411 431 383 397 C 355 363 324 343 288 339 L 286 337 L 479 0 L 401 0 L 219 322 L 146 322 L 146 0 L 80 0 Z M 146 382 L 234 382 C 269 383 298 396 321 421 C 344 445 356 481 356 527 C 356 573 344 608 320 632 C 296 656 265 668 227 668 L 146 668 L 146 382 Z M 232 793 L 232 793 Z M 151 793 L 240 962 L 314 962 L 214 793 L 151 793 Z" unicode="Ŕ" />
<glyph horiz-adv-x="309" d="M 54 0 L 54 0 Z M 310 413 L 287 360 C 276 370 265 377 253 381 C 241 385 228 387 216 387 C 205 387 194 384 182 380 C 170 375 160 368 151 358 C 141 348 133 335 127 319 C 121 303 118 283 118 260 L 118 0 L 54 0 L 54 436 L 116 436 L 116 352 C 122 374 135 395 155 414 C 175 433 199 443 228 443 C 245 443 261 440 275 434 C 289 428 301 421 310 413 Z M 181 499 L 181 499 Z M 100 499 L 189 668 L 263 668 L 163 499 L 100 499 Z" unicode="ŕ" />
<glyph horiz-adv-x="499" d="M 80 0 L 80 0 Z M 80 0 L 80 730 L 238 730 C 292 730 337 713 372 680 C 407 647 425 599 425 537 C 425 478 411 431 383 397 C 355 363 324 343 288 339 L 286 337 L 479 0 L 401 0 L 219 322 L 146 322 L 146 0 L 80 0 Z M 146 382 L 234 382 C 269 383 298 396 321 421 C 344 445 356 481 356 527 C 356 573 344 608 320 632 C 296 656 265 668 227 668 L 146 668 L 146 382 Z M 241 -68 L 241 -68 Z M 315 -68 C 312 -110 301 -153 282 -196 C 263 -239 241 -275 216 -305 L 167 -282 C 181 -263 196 -234 214 -194 C 232 -154 243 -112 247 -68 L 315 -68 Z" unicode="Ŗ" />
<glyph horiz-adv-x="309" d="M 54 0 L 54 0 Z M 310 413 L 287 360 C 276 370 265 377 253 381 C 241 385 228 387 216 387 C 205 387 194 384 182 380 C 170 375 160 368 151 358 C 141 348 133 335 127 319 C 121 303 118 283 118 260 L 118 0 L 54 0 L 54 436 L 116 436 L 116 352 C 122 374 135 395 155 414 C 175 433 199 443 228 443 C 245 443 261 440 275 434 C 289 428 301 421 310 413 Z M 155 -68 L 155 -68 Z M 229 -68 C 226 -110 215 -153 196 -196 C 177 -239 155 -275 130 -305 L 81 -282 C 95 -263 110 -234 128 -194 C 146 -154 157 -112 161 -68 L 229 -68 Z" unicode="ŗ" />
<glyph horiz-adv-x="499" d="M 80 0 L 80 0 Z M 80 0 L 80 730 L 238 730 C 292 730 337 713 372 680 C 407 647 425 599 425 537 C 425 478 411 431 383 397 C 355 363 324 343 288 339 L 286 337 L 479 0 L 401 0 L 219 322 L 146 322 L 146 0 L 80 0 Z M 146 382 L 234 382 C 269 383 298 396 321 421 C 344 445 356 481 356 527 C 356 573 344 608 320 632 C 296 656 265 668 227 668 L 146 668 L 146 382 Z M 232 794 L 232 794 Z M 98 964 L 154 964 L 233 838 L 312 964 L 367 964 L 262 794 L 203 794 L 98 964 Z" unicode="Ř" />
<glyph horiz-adv-x="309" d="M 47 0 L 47 0 Z M 310 413 L 287 360 C 276 370 265 377 253 381 C 241 385 228 387 216 387 C 205 387 194 384 182 380 C 170 375 160 368 151 358 C 141 348 133 335 127 319 C 121 303 118 283 118 260 L 118 0 L 54 0 L 54 436 L 116 436 L 116 352 C 122 374 135 395 155 414 C 175 433 199 443 228 443 C 245 443 261 440 275 434 C 289 428 301 421 310 413 Z M 181 500 L 181 500 Z M 47 670 L 103 670 L 182 544 L 261 670 L 316 670 L 211 500 L 152 500 L 47 670 Z" unicode="ř" />
<glyph horiz-adv-x="425" d="M 24 0 L 24 0 Z M 218 -9 C 178 -9 141 -1 108 13 C 75 27 47 50 24 80 L 63 129 C 81 101 103 81 131 68 C 158 55 185 49 213 49 C 245 49 273 60 297 83 C 321 106 333 136 333 174 C 333 210 323 240 305 266 C 287 291 253 318 203 347 C 151 377 111 407 83 438 C 55 468 42 512 42 568 C 42 619 58 660 92 692 C 125 723 166 739 215 739 C 253 739 285 732 312 720 C 339 707 362 691 381 673 L 345 623 C 329 638 311 651 289 661 C 267 671 243 677 218 677 C 187 677 161 666 141 646 C 120 626 110 599 110 565 C 110 529 119 501 137 479 C 155 457 191 431 245 402 C 303 370 343 336 366 302 C 388 267 400 226 400 178 C 400 148 395 122 385 99 C 375 75 361 56 345 40 C 328 24 309 11 287 3 C 265 -4 242 -9 218 -9 Z M 213 793 L 213 793 Z M 132 793 L 221 962 L 295 962 L 195 793 L 132 793 Z" unicode="Ś" />
<glyph horiz-adv-x="322" d="M 26 0 L 26 0 Z M 170 -7 C 137 -7 109 -1 85 9 C 61 19 41 34 26 53 L 57 96 C 70 80 86 68 106 59 C 125 49 145 45 167 45 C 185 45 202 50 218 62 C 233 74 241 91 241 114 C 241 132 233 148 218 162 C 203 175 178 190 144 206 C 106 222 79 240 62 258 C 44 276 36 302 36 334 C 36 365 48 391 73 412 C 97 432 126 443 160 443 C 188 443 213 438 234 429 C 255 419 272 409 285 399 L 251 358 C 242 365 230 372 214 379 C 198 386 181 390 163 390 C 144 390 127 385 113 376 C 99 366 92 352 92 334 C 92 318 97 304 109 294 C 121 283 144 269 180 253 C 221 234 251 215 269 195 C 287 175 296 149 296 115 C 296 95 292 78 285 63 C 277 48 268 35 256 25 C 244 15 231 7 216 1 C 201 -4 186 -7 170 -7 Z M 163 499 L 163 499 Z M 82 499 L 171 668 L 245 668 L 145 499 L 82 499 Z" unicode="ś" />
<glyph horiz-adv-x="425" d="M 24 0 L 24 0 Z M 218 -9 C 178 -9 141 -1 108 13 C 75 27 47 50 24 80 L 63 129 C 81 101 103 81 131 68 C 158 55 185 49 213 49 C 245 49 273 60 297 83 C 321 106 333 136 333 174 C 333 210 323 240 305 266 C 287 291 253 318 203 347 C 151 377 111 407 83 438 C 55 468 42 512 42 568 C 42 619 58 660 92 692 C 125 723 166 739 215 739 C 253 739 285 732 312 720 C 339 707 362 691 381 673 L 345 623 C 329 638 311 651 289 661 C 267 671 243 677 218 677 C 187 677 161 666 141 646 C 120 626 110 599 110 565 C 110 529 119 501 137 479 C 155 457 191 431 245 402 C 303 370 343 336 366 302 C 388 267 400 226 400 178 C 400 148 395 122 385 99 C 375 75 361 56 345 40 C 328 24 309 11 287 3 C 265 -4 242 -9 218 -9 Z M 213 794 L 213 794 Z M 348 794 L 291 794 L 213 919 L 133 794 L 79 794 L 184 964 L 243 964 L 348 794 Z" unicode="Ŝ" />
<glyph horiz-adv-x="322" d="M 26 0 L 26 0 Z M 170 -7 C 137 -7 109 -1 85 9 C 61 19 41 34 26 53 L 57 96 C 70 80 86 68 106 59 C 125 49 145 45 167 45 C 185 45 202 50 218 62 C 233 74 241 91 241 114 C 241 132 233 148 218 162 C 203 175 178 190 144 206 C 106 222 79 240 62 258 C 44 276 36 302 36 334 C 36 365 48 391 73 412 C 97 432 126 443 160 443 C 188 443 213 438 234 429 C 255 419 272 409 285 399 L 251 358 C 242 365 230 372 214 379 C 198 386 181 390 163 390 C 144 390 127 385 113 376 C 99 366 92 352 92 334 C 92 318 97 304 109 294 C 121 283 144 269 180 253 C 221 234 251 215 269 195 C 287 175 296 149 296 115 C 296 95 292 78 285 63 C 277 48 268 35 256 25 C 244 15 231 7 216 1 C 201 -4 186 -7 170 -7 Z M 163 500 L 163 500 Z M 298 500 L 241 500 L 163 625 L 83 500 L 29 500 L 134 670 L 193 670 L 298 500 Z" unicode="ŝ" />
<glyph horiz-adv-x="425" d="M 24 0 L 24 0 Z M 218 -9 C 178 -9 141 -1 108 13 C 75 27 47 50 24 80 L 63 129 C 81 101 103 81 131 68 C 158 55 185 49 213 49 C 245 49 273 60 297 83 C 321 106 333 136 333 174 C 333 210 323 240 305 266 C 287 291 253 318 203 347 C 151 377 111 407 83 438 C 55 468 42 512 42 568 C 42 619 58 660 92 692 C 125 723 166 739 215 739 C 253 739 285 732 312 720 C 339 707 362 691 381 673 L 345 623 C 329 638 311 651 289 661 C 267 671 243 677 218 677 C 187 677 161 666 141 646 C 120 626 110 599 110 565 C 110 529 119 501 137 479 C 155 457 191 431 245 402 C 303 370 343 336 366 302 C 388 267 400 226 400 178 C 400 148 395 122 385 99 C 375 75 361 56 345 40 C 328 24 309 11 287 3 C 265 -4 242 -9 218 -9 Z M 195 -3 L 195 -3 Z M 202 -187 C 180 -187 159 -184 137 -178 C 115 -172 98 -164 86 -154 L 96 -125 C 105 -131 117 -138 133 -144 C 149 -150 166 -153 185 -153 C 201 -153 215 -149 227 -141 C 239 -133 245 -122 245 -110 C 245 -95 239 -84 229 -78 C 219 -72 207 -69 195 -69 C 186 -69 179 -69 173 -71 C 167 -73 160 -75 152 -78 L 140 -65 L 197 7 L 235 7 L 188 -56 C 220 -47 247 -48 269 -60 C 291 -72 303 -90 303 -114 C 303 -137 293 -155 273 -168 C 253 -180 229 -187 202 -187 Z" unicode="Ş" />
<glyph horiz-adv-x="322" d="M 26 0 L 26 0 Z M 170 -7 C 137 -7 109 -1 85 9 C 61 19 41 34 26 53 L 57 96 C 70 80 86 68 106 59 C 125 49 145 45 167 45 C 185 45 202 50 218 62 C 233 74 241 91 241 114 C 241 132 233 148 218 162 C 203 175 178 190 144 206 C 106 222 79 240 62 258 C 44 276 36 302 36 334 C 36 365 48 391 73 412 C 97 432 126 443 160 443 C 188 443 213 438 234 429 C 255 419 272 409 285 399 L 251 358 C 242 365 230 372 214 379 C 198 386 181 390 163 390 C 144 390 127 385 113 376 C 99 366 92 352 92 334 C 92 318 97 304 109 294 C 121 283 144 269 180 253 C 221 234 251 215 269 195 C 287 175 296 149 296 115 C 296 95 292 78 285 63 C 277 48 268 35 256 25 C 244 15 231 7 216 1 C 201 -4 186 -7 170 -7 Z M 153 -3 L 153 -3 Z M 160 -187 C 138 -187 117 -184 95 -178 C 73 -172 56 -164 44 -154 L 54 -125 C 63 -131 75 -138 91 -144 C 107 -150 124 -153 143 -153 C 159 -153 173 -149 185 -141 C 197 -133 203 -122 203 -110 C 203 -95 197 -84 187 -78 C 177 -72 165 -69 153 -69 C 144 -69 137 -69 131 -71 C 125 -73 118 -75 110 -78 L 98 -65 L 155 7 L 193 7 L 146 -56 C 178 -47 205 -48 227 -60 C 249 -72 261 -90 261 -114 C 261 -137 251 -155 231 -168 C 211 -180 187 -187 160 -187 Z" unicode="ş" />
<glyph horiz-adv-x="425" d="M 24 0 L 24 0 Z M 218 -9 C 178 -9 141 -1 108 13 C 75 27 47 50 24 80 L 63 129 C 81 101 103 81 131 68 C 158 55 185 49 213 49 C 245 49 273 60 297 83 C 321 106 333 136 333 174 C 333 210 323 240 305 266 C 287 291 253 318 203 347 C 151 377 111 407 83 438 C 55 468 42 512 42 568 C 42 619 58 660 92 692 C 125 723 166 739 215 739 C 253 739 285 732 312 720 C 339 707 362 691 381 673 L 345 623 C 329 638 311 651 289 661 C 267 671 243 677 218 677 C 187 677 161 666 141 646 C 120 626 110 599 110 565 C 110 529 119 501 137 479 C 155 457 191 431 245 402 C 303 370 343 336 366 302 C 388 267 400 226 400 178 C 400 148 395 122 385 99 C 375 75 361 56 345 40 C 328 24 309 11 287 3 C 265 -4 242 -9 218 -9 Z M 213 794 L 213 794 Z M 79 964 L 135 964 L 214 838 L 293 964 L 348 964 L 243 794 L 184 794 L 79 964 Z" unicode="Š" />
<glyph horiz-adv-x="322" d="M 26 0 L 26 0 Z M 170 -7 C 137 -7 109 -1 85 9 C 61 19 41 34 26 53 L 57 96 C 70 80 86 68 106 59 C 125 49 145 45 167 45 C 185 45 202 50 218 62 C 233 74 241 91 241 114 C 241 132 233 148 218 162 C 203 175 178 190 144 206 C 106 222 79 240 62 258 C 44 276 36 302 36 334 C 36 365 48 391 73 412 C 97 432 126 443 160 443 C 188 443 213 438 234 429 C 255 419 272 409 285 399 L 251 358 C 242 365 230 372 214 379 C 198 386 181 390 163 390 C 144 390 127 385 113 376 C 99 366 92 352 92 334 C 92 318 97 304 109 294 C 121 283 144 269 180 253 C 221 234 251 215 269 195 C 287 175 296 149 296 115 C 296 95 292 78 285 63 C 277 48 268 35 256 25 C 244 15 231 7 216 1 C 201 -4 186 -7 170 -7 Z M 163 500 L 163 500 Z M 29 670 L 85 670 L 164 544 L 243 670 L 298 670 L 193 500 L 134 500 L 29 670 Z" unicode="š" />
<glyph horiz-adv-x="417" d="M 8 0 L 8 0 Z M 408 667 L 242 667 L 242 0 L 172 0 L 172 667 L 8 667 L 8 730 L 408 730 L 408 667 Z M 207 794 L 207 794 Z M 73 964 L 129 964 L 208 838 L 287 964 L 342 964 L 237 794 L 178 794 L 73 964 Z" unicode="Ť" />
<glyph horiz-adv-x="212" d="M 14 0 L 14 0 Z M 198 57 L 206 7 C 202 4 195 1 187 -1 C 178 -3 168 -5 157 -5 C 147 -5 136 -3 125 0 C 114 2 104 7 95 15 C 85 22 78 32 72 45 C 66 58 63 74 63 94 L 63 380 L 14 380 L 14 436 L 64 436 L 64 553 L 126 561 L 126 436 L 196 436 L 196 380 L 127 380 L 127 95 C 127 80 131 69 139 62 C 147 54 158 51 171 51 C 175 51 180 51 186 53 C 192 54 196 55 198 57 Z M 271 622 L 267 493 L 213 493 L 209 622 L 209 730 L 271 730 L 271 622 Z" unicode="ť" />
<glyph horiz-adv-x="417" d="M 368 492 L 242 492 L 242 0 L 172 0 L 172 492 L 44 492 L 44 547 L 172 547 L 172 667 L 8 667 L 8 730 L 408 730 L 408 667 L 242 667 L 242 547 L 368 547 L 368 492 Z" unicode="Ŧ" />
<glyph horiz-adv-x="212" d="M 206 7 C 202 4 195 1 187 -1 C 178 -3 168 -5 157 -5 C 147 -5 136 -3 125 0 C 114 2 104 7 95 15 C 85 22 78 32 72 45 C 66 58 63 74 63 94 L 63 256 L 23 256 L 23 311 L 63 311 L 63 380 L 14 380 L 14 436 L 64 436 L 64 553 L 126 561 L 126 436 L 196 436 L 196 380 L 127 380 L 127 311 L 187 311 L 187 256 L 127 256 L 127 95 C 127 80 131 69 139 62 C 147 54 158 51 171 51 C 175 51 180 51 186 53 C 192 54 196 55 198 57 L 206 7 Z" unicode="ŧ" />
<glyph horiz-adv-x="602" d="M 74 0 L 74 0 Z M 527 730 L 527 230 C 527 189 521 153 509 123 C 497 93 480 68 460 49 C 439 29 415 15 387 5 C 359 -4 329 -9 298 -9 C 268 -9 239 -4 212 5 C 184 14 160 28 140 47 C 120 66 104 91 92 121 C 80 151 74 188 74 230 L 74 730 L 142 730 L 142 228 C 142 168 157 124 188 96 C 218 67 256 53 300 53 C 342 53 379 66 411 94 C 442 121 458 166 458 228 L 458 730 L 527 730 Z M 299 802 L 299 802 Z M 396 930 L 444 930 C 444 886 438 854 426 833 C 414 812 399 802 381 802 C 363 802 348 806 336 815 C 323 823 312 832 302 841 C 292 849 282 858 272 866 C 262 874 251 879 241 879 C 231 879 222 872 215 860 C 207 848 203 830 203 806 L 155 806 C 155 849 162 881 177 902 C 192 923 209 934 227 934 C 243 934 257 929 269 920 C 281 911 292 902 303 893 C 312 884 321 876 331 868 C 341 860 351 856 361 856 C 370 856 378 862 385 875 C 392 887 396 906 396 930 Z" unicode="Ũ" />
<glyph horiz-adv-x="430" d="M 52 0 L 52 0 Z M 52 436 L 116 436 L 116 139 C 116 107 124 83 141 67 C 157 51 180 43 209 43 C 235 43 259 51 280 69 C 301 87 312 118 312 163 L 312 436 L 376 436 L 376 0 L 314 0 L 314 73 C 305 49 289 29 267 15 C 245 0 217 -7 185 -7 C 147 -7 115 3 90 25 C 64 47 52 80 52 126 L 52 436 Z M 214 508 L 214 508 Z M 311 636 L 359 636 C 359 592 353 560 341 539 C 329 518 314 508 296 508 C 278 508 263 512 251 521 C 238 529 227 538 217 547 C 207 555 197 564 187 572 C 177 580 166 585 156 585 C 146 585 137 578 130 566 C 122 554 118 536 118 512 L 70 512 C 70 555 77 587 92 608 C 107 629 124 640 142 640 C 158 640 172 635 184 626 C 196 617 207 608 218 599 C 227 590 236 582 246 574 C 256 566 266 562 276 562 C 285 562 293 568 300 581 C 307 593 311 612 311 636 Z" unicode="ũ" />
<glyph horiz-adv-x="602" d="M 74 0 L 74 0 Z M 527 730 L 527 230 C 527 189 521 153 509 123 C 497 93 480 68 460 49 C 439 29 415 15 387 5 C 359 -4 329 -9 298 -9 C 268 -9 239 -4 212 5 C 184 14 160 28 140 47 C 120 66 104 91 92 121 C 80 151 74 188 74 230 L 74 730 L 142 730 L 142 228 C 142 168 157 124 188 96 C 218 67 256 53 300 53 C 342 53 379 66 411 94 C 442 121 458 166 458 228 L 458 730 L 527 730 Z M 299 824 L 299 824 Z M 417 824 L 181 824 L 181 872 L 417 872 L 417 824 Z" unicode="Ū" />
<glyph horiz-adv-x="430" d="M 52 0 L 52 0 Z M 52 436 L 116 436 L 116 139 C 116 107 124 83 141 67 C 157 51 180 43 209 43 C 235 43 259 51 280 69 C 301 87 312 118 312 163 L 312 436 L 376 436 L 376 0 L 314 0 L 314 73 C 305 49 289 29 267 15 C 245 0 217 -7 185 -7 C 147 -7 115 3 90 25 C 64 47 52 80 52 126 L 52 436 Z M 214 530 L 214 530 Z M 332 530 L 96 530 L 96 578 L 332 578 L 332 530 Z" unicode="ū" />
<glyph horiz-adv-x="602" d="M 74 0 L 74 0 Z M 527 730 L 527 230 C 527 189 521 153 509 123 C 497 93 480 68 460 49 C 439 29 415 15 387 5 C 359 -4 329 -9 298 -9 C 268 -9 239 -4 212 5 C 184 14 160 28 140 47 C 120 66 104 91 92 121 C 80 151 74 188 74 230 L 74 730 L 142 730 L 142 228 C 142 168 157 124 188 96 C 218 67 256 53 300 53 C 342 53 379 66 411 94 C 442 121 458 166 458 228 L 458 730 L 527 730 Z M 299 801 L 299 801 Z M 373 956 L 428 956 C 424 902 411 862 387 838 C 363 813 334 801 299 801 C 263 801 234 813 211 838 C 187 862 174 902 171 956 L 225 956 C 227 923 234 896 245 876 C 256 855 274 845 299 845 C 323 845 341 855 353 875 C 364 895 371 922 373 956 Z" unicode="Ŭ" />
<glyph horiz-adv-x="430" d="M 52 0 L 52 0 Z M 52 436 L 116 436 L 116 139 C 116 107 124 83 141 67 C 157 51 180 43 209 43 C 235 43 259 51 280 69 C 301 87 312 118 312 163 L 312 436 L 376 436 L 376 0 L 314 0 L 314 73 C 305 49 289 29 267 15 C 245 0 217 -7 185 -7 C 147 -7 115 3 90 25 C 64 47 52 80 52 126 L 52 436 Z M 214 507 L 214 507 Z M 288 662 L 343 662 C 339 608 326 568 302 544 C 278 519 249 507 214 507 C 178 507 149 519 126 544 C 102 568 89 608 86 662 L 140 662 C 142 629 149 602 160 582 C 171 561 189 551 214 551 C 238 551 256 561 268 581 C 279 601 286 628 288 662 Z" unicode="ŭ" />
<glyph horiz-adv-x="602" d="M 74 0 L 74 0 Z M 527 730 L 527 230 C 527 189 521 153 509 123 C 497 93 480 68 460 49 C 439 29 415 15 387 5 C 359 -4 329 -9 298 -9 C 268 -9 239 -4 212 5 C 184 14 160 28 140 47 C 120 66 104 91 92 121 C 80 151 74 188 74 230 L 74 730 L 142 730 L 142 228 C 142 168 157 124 188 96 C 218 67 256 53 300 53 C 342 53 379 66 411 94 C 442 121 458 166 458 228 L 458 730 L 527 730 Z M 299 791 L 299 791 Z M 299 791 C 268 791 242 801 221 823 C 199 844 189 870 189 901 C 189 931 199 957 221 979 C 242 1001 268 1012 299 1012 C 329 1012 355 1001 377 979 C 399 957 410 931 410 901 C 410 870 399 844 377 823 C 355 801 329 791 299 791 Z M 299 829 C 319 829 335 836 349 850 C 362 864 369 881 369 901 C 369 921 362 939 349 953 C 335 967 319 974 299 974 C 279 974 263 967 249 953 C 235 939 229 921 229 901 C 229 881 235 864 249 850 C 263 836 279 829 299 829 Z" unicode="Ů" />
<glyph horiz-adv-x="430" d="M 52 0 L 52 0 Z M 52 436 L 116 436 L 116 139 C 116 107 124 83 141 67 C 157 51 180 43 209 43 C 235 43 259 51 280 69 C 301 87 312 118 312 163 L 312 436 L 376 436 L 376 0 L 314 0 L 314 73 C 305 49 289 29 267 15 C 245 0 217 -7 185 -7 C 147 -7 115 3 90 25 C 64 47 52 80 52 126 L 52 436 Z M 214 497 L 214 497 Z M 214 497 C 183 497 157 507 136 529 C 114 550 104 576 104 607 C 104 637 114 663 136 685 C 157 707 183 718 214 718 C 244 718 270 707 292 685 C 314 663 325 637 325 607 C 325 576 314 550 292 529 C 270 507 244 497 214 497 Z M 214 535 C 234 535 250 542 264 556 C 277 570 284 587 284 607 C 284 627 277 645 264 659 C 250 673 234 680 214 680 C 194 680 178 673 164 659 C 150 645 144 627 144 607 C 144 587 150 570 164 556 C 178 542 194 535 214 535 Z" unicode="ů" />
<glyph horiz-adv-x="602" d="M 74 0 L 74 0 Z M 527 730 L 527 230 C 527 189 521 153 509 123 C 497 93 480 68 460 49 C 439 29 415 15 387 5 C 359 -4 329 -9 298 -9 C 268 -9 239 -4 212 5 C 184 14 160 28 140 47 C 120 66 104 91 92 121 C 80 151 74 188 74 230 L 74 730 L 142 730 L 142 228 C 142 168 157 124 188 96 C 218 67 256 53 300 53 C 342 53 379 66 411 94 C 442 121 458 166 458 228 L 458 730 L 527 730 Z M 299 793 L 299 793 Z M 151 793 L 222 946 L 292 946 L 209 793 L 151 793 Z M 307 793 L 379 946 L 448 946 L 366 793 L 307 793 Z" unicode="Ű" />
<glyph horiz-adv-x="430" d="M 52 0 L 52 0 Z M 52 436 L 116 436 L 116 139 C 116 107 124 83 141 67 C 157 51 180 43 209 43 C 235 43 259 51 280 69 C 301 87 312 118 312 163 L 312 436 L 376 436 L 376 0 L 314 0 L 314 73 C 305 49 289 29 267 15 C 245 0 217 -7 185 -7 C 147 -7 115 3 90 25 C 64 47 52 80 52 126 L 52 436 Z M 214 499 L 214 499 Z M 66 499 L 137 652 L 207 652 L 124 499 L 66 499 Z M 222 499 L 294 652 L 363 652 L 281 499 L 222 499 Z" unicode="ű" />
<glyph horiz-adv-x="602" d="M 74 0 L 74 0 Z M 527 730 L 527 230 C 527 189 521 153 509 123 C 497 93 480 68 460 49 C 439 29 415 15 387 5 C 359 -4 329 -9 298 -9 C 268 -9 239 -4 212 5 C 184 14 160 28 140 47 C 120 66 104 91 92 121 C 80 151 74 188 74 230 L 74 730 L 142 730 L 142 228 C 142 168 157 124 188 96 C 218 67 256 53 300 53 C 342 53 379 66 411 94 C 442 121 458 166 458 228 L 458 730 L 527 730 Z M 333 -10 L 333 -10 Z M 435 -110 L 454 -137 C 435 -156 414 -171 390 -181 C 366 -191 340 -197 312 -197 C 281 -197 257 -189 239 -175 C 221 -161 212 -142 212 -120 C 212 -96 221 -73 241 -52 C 261 -30 292 -12 334 4 L 378 3 C 345 -11 318 -26 298 -43 C 277 -59 267 -77 267 -95 C 267 -111 273 -124 285 -134 C 297 -143 313 -148 332 -148 C 352 -148 372 -144 390 -137 C 408 -130 423 -121 435 -110 Z" unicode="Ų" />
<glyph horiz-adv-x="430" d="M 52 0 L 52 0 Z M 52 436 L 116 436 L 116 139 C 116 107 124 83 141 67 C 157 51 180 43 209 43 C 235 43 259 51 280 69 C 301 87 312 118 312 163 L 312 436 L 376 436 L 376 0 L 314 0 L 314 73 C 305 49 289 29 267 15 C 245 0 217 -7 185 -7 C 147 -7 115 3 90 25 C 64 47 52 80 52 126 L 52 436 Z M 315 -10 L 315 -10 Z M 417 -110 L 436 -137 C 417 -156 396 -171 372 -181 C 348 -191 322 -197 294 -197 C 263 -197 239 -189 221 -175 C 203 -161 194 -142 194 -120 C 194 -96 203 -73 223 -52 C 243 -30 274 -12 316 4 L 360 3 C 327 -11 300 -26 280 -43 C 259 -59 249 -77 249 -95 C 249 -111 255 -124 267 -134 C 279 -143 295 -148 314 -148 C 334 -148 354 -144 372 -137 C 390 -130 405 -121 417 -110 Z" unicode="ų" />
<glyph horiz-adv-x="754" d="M 8 0 L 8 0 Z M 739 730 L 564 -5 L 519 -5 L 374 589 L 226 -5 L 181 -5 L 8 730 L 76 730 L 208 141 L 352 730 L 401 730 L 543 141 L 677 730 L 739 730 Z M 376 794 L 376 794 Z M 511 794 L 454 794 L 376 919 L 296 794 L 242 794 L 347 964 L 406 964 L 511 794 Z" unicode="Ŵ" />
<glyph horiz-adv-x="569" d="M 5 0 L 5 0 Z M 383 -2 L 285 299 L 185 -2 L 137 -2 L 5 436 L 69 436 L 167 92 L 265 392 L 310 392 L 405 92 L 507 436 L 565 436 L 430 -2 L 383 -2 Z M 285 500 L 285 500 Z M 420 500 L 363 500 L 285 625 L 205 500 L 151 500 L 256 670 L 315 670 L 420 500 Z" unicode="ŵ" />
<glyph horiz-adv-x="502" d="M 2 0 L 2 0 Z M 509 730 L 289 297 L 289 0 L 219 0 L 219 299 L 2 730 L 77 730 L 257 370 L 439 730 L 509 730 Z M 257 794 L 257 794 Z M 392 794 L 335 794 L 257 919 L 177 794 L 123 794 L 228 964 L 287 964 L 392 794 Z" unicode="Ŷ" />
<glyph horiz-adv-x="363" d="M 0 0 L 0 0 Z M 362 436 L 167 -107 C 153 -141 136 -165 114 -179 C 92 -193 70 -200 48 -200 C 36 -200 26 -198 17 -196 C 7 -194 0 -192 -4 -190 L 15 -135 C 17 -136 22 -138 29 -140 C 36 -142 44 -143 52 -143 C 63 -143 75 -138 87 -128 C 99 -118 109 -101 118 -79 L 154 32 L -1 436 L 68 436 L 186 112 L 298 436 L 362 436 Z M 182 500 L 182 500 Z M 317 500 L 260 500 L 182 625 L 102 500 L 48 500 L 153 670 L 212 670 L 317 500 Z" unicode="ŷ" />
<glyph horiz-adv-x="512" d="M 2 0 L 2 0 Z M 509 730 L 289 297 L 289 0 L 219 0 L 219 299 L 2 730 L 77 730 L 257 370 L 439 730 L 509 730 Z M 257 794 L 257 794 Z M 359 794 L 306 794 L 306 950 L 359 950 L 359 794 Z M 206 794 L 153 794 L 153 950 L 206 950 L 206 794 Z" unicode="Ÿ" />
<glyph horiz-adv-x="463" d="M 17 0 L 17 0 Z M 438 730 L 438 696 L 106 63 L 451 63 L 451 0 L 17 0 L 17 32 L 351 666 L 51 666 L 51 730 L 438 730 Z M 242 793 L 242 793 Z M 161 793 L 250 962 L 324 962 L 224 793 L 161 793 Z" unicode="Ź" />
<glyph horiz-adv-x="330" d="M 12 0 L 12 0 Z M 310 436 L 310 404 L 99 56 L 317 56 L 317 0 L 12 0 L 12 26 L 229 380 L 26 380 L 26 436 L 310 436 Z M 168 499 L 168 499 Z M 87 499 L 176 668 L 250 668 L 150 499 L 87 499 Z" unicode="ź" />
<glyph horiz-adv-x="463" d="M 17 0 L 17 0 Z M 438 730 L 438 696 L 106 63 L 451 63 L 451 0 L 17 0 L 17 32 L 351 666 L 51 666 L 51 730 L 438 730 Z M 242 805 L 242 805 Z M 272 805 L 212 805 L 212 929 L 272 929 L 272 805 Z" unicode="Ż" />
<glyph horiz-adv-x="330" d="M 12 0 L 12 0 Z M 310 436 L 310 404 L 99 56 L 317 56 L 317 0 L 12 0 L 12 26 L 229 380 L 26 380 L 26 436 L 310 436 Z M 168 511 L 168 511 Z M 198 511 L 138 511 L 138 635 L 198 635 L 198 511 Z" unicode="ż" />
<glyph horiz-adv-x="470" d="M 17 0 L 17 0 Z M 438 730 L 438 696 L 106 63 L 451 63 L 451 0 L 17 0 L 17 32 L 351 666 L 51 666 L 51 730 L 438 730 Z M 242 794 L 242 794 Z M 108 964 L 164 964 L 243 838 L 322 964 L 377 964 L 272 794 L 213 794 L 108 964 Z" unicode="Ž" />
<glyph horiz-adv-x="330" d="M 12 0 L 12 0 Z M 310 436 L 310 404 L 99 56 L 317 56 L 317 0 L 12 0 L 12 26 L 229 380 L 26 380 L 26 436 L 310 436 Z M 168 500 L 168 500 Z M 34 670 L 90 670 L 169 544 L 248 670 L 303 670 L 198 500 L 139 500 L 34 670 Z" unicode="ž" />
<glyph horiz-adv-x="343" d="M 167 -68 C 164 -100 151 -126 129 -147 C 106 -168 79 -179 47 -179 C 31 -179 16 -177 2 -175 C -11 -173 -22 -170 -29 -168 L -22 -119 C -17 -119 -10 -120 -1 -122 C 8 -124 17 -125 26 -125 C 46 -125 65 -117 82 -103 C 98 -89 108 -69 111 -44 L 145 342 L 50 342 L 50 396 L 150 396 L 171 635 C 173 668 186 693 209 711 C 231 729 254 738 277 738 C 289 738 300 737 311 736 C 321 735 328 734 331 734 L 325 676 C 323 676 319 677 313 678 C 307 678 301 679 295 679 C 276 679 260 672 248 660 C 235 647 228 627 226 601 L 208 396 L 314 396 L 314 342 L 203 342 L 167 -68 Z" unicode="ƒ" />
<glyph horiz-adv-x="425" d="M 24 0 L 24 0 Z M 218 -9 C 178 -9 141 -1 108 13 C 75 27 47 50 24 80 L 63 129 C 81 101 103 81 131 68 C 158 55 185 49 213 49 C 245 49 273 60 297 83 C 321 106 333 136 333 174 C 333 210 323 240 305 266 C 287 291 253 318 203 347 C 151 377 111 407 83 438 C 55 468 42 512 42 568 C 42 619 58 660 92 692 C 125 723 166 739 215 739 C 253 739 285 732 312 720 C 339 707 362 691 381 673 L 345 623 C 329 638 311 651 289 661 C 267 671 243 677 218 677 C 187 677 161 666 141 646 C 120 626 110 599 110 565 C 110 529 119 501 137 479 C 155 457 191 431 245 402 C 303 370 343 336 366 302 C 388 267 400 226 400 178 C 400 148 395 122 385 99 C 375 75 361 56 345 40 C 328 24 309 11 287 3 C 265 -4 242 -9 218 -9 Z M 195 -71 L 195 -71 Z M 269 -71 C 266 -113 255 -156 236 -199 C 217 -242 195 -278 170 -308 L 121 -285 C 135 -266 150 -237 168 -197 C 186 -157 197 -115 201 -71 L 269 -71 Z" unicode="Ș" />
<glyph horiz-adv-x="322" d="M 26 0 L 26 0 Z M 170 -7 C 137 -7 109 -1 85 9 C 61 19 41 34 26 53 L 57 96 C 70 80 86 68 106 59 C 125 49 145 45 167 45 C 185 45 202 50 218 62 C 233 74 241 91 241 114 C 241 132 233 148 218 162 C 203 175 178 190 144 206 C 106 222 79 240 62 258 C 44 276 36 302 36 334 C 36 365 48 391 73 412 C 97 432 126 443 160 443 C 188 443 213 438 234 429 C 255 419 272 409 285 399 L 251 358 C 242 365 230 372 214 379 C 198 386 181 390 163 390 C 144 390 127 385 113 376 C 99 366 92 352 92 334 C 92 318 97 304 109 294 C 121 283 144 269 180 253 C 221 234 251 215 269 195 C 287 175 296 149 296 115 C 296 95 292 78 285 63 C 277 48 268 35 256 25 C 244 15 231 7 216 1 C 201 -4 186 -7 170 -7 Z M 153 -71 L 153 -71 Z M 227 -71 C 224 -113 213 -156 194 -199 C 175 -242 153 -278 128 -308 L 79 -285 C 93 -266 108 -237 126 -197 C 144 -157 155 -115 159 -71 L 227 -71 Z" unicode="ș" />
<glyph horiz-adv-x="417" d="M 8 0 L 8 0 Z M 408 667 L 242 667 L 242 0 L 172 0 L 172 667 L 8 667 L 8 730 L 408 730 L 408 667 Z M 185 -68 L 185 -68 Z M 259 -68 C 256 -110 245 -153 226 -196 C 207 -239 185 -275 160 -305 L 111 -282 C 125 -263 140 -234 158 -194 C 176 -154 187 -112 191 -68 L 259 -68 Z" unicode="Ț" />
<glyph horiz-adv-x="212" d="M 14 0 L 14 0 Z M 198 57 L 206 7 C 202 4 195 1 187 -1 C 178 -3 168 -5 157 -5 C 147 -5 136 -3 125 0 C 114 2 104 7 95 15 C 85 22 78 32 72 45 C 66 58 63 74 63 94 L 63 380 L 14 380 L 14 436 L 64 436 L 64 553 L 126 561 L 126 436 L 196 436 L 196 380 L 127 380 L 127 95 C 127 80 131 69 139 62 C 147 54 158 51 171 51 C 175 51 180 51 186 53 C 192 54 196 55 198 57 Z M 107 -68 L 107 -68 Z M 181 -68 C 178 -110 167 -153 148 -196 C 129 -239 107 -275 82 -305 L 33 -282 C 47 -263 62 -234 80 -194 C 98 -154 109 -112 113 -68 L 181 -68 Z" unicode="ț" />
<glyph horiz-adv-x="178" d="M 123 436 L 123 -103 C 123 -131 114 -155 98 -173 C 81 -191 60 -201 34 -201 C 25 -201 16 -200 6 -198 C -3 -196 -9 -195 -13 -193 L -3 -142 C 0 -142 2 -143 6 -144 C 10 -144 14 -145 18 -145 C 28 -145 38 -140 46 -132 C 54 -124 59 -111 59 -95 L 59 436 L 123 436 Z" unicode="ȷ" />
<glyph horiz-adv-x="500" d="M 385 500 L 328 500 L 250 625 L 170 500 L 116 500 L 221 670 L 280 670 L 385 500 Z" unicode="ˆ" />
<glyph horiz-adv-x="500" d="M 116 670 L 172 670 L 251 544 L 330 670 L 385 670 L 280 500 L 221 500 L 116 670 Z" unicode="ˇ" />
<glyph horiz-adv-x="500" d="M 324 662 L 379 662 C 375 608 362 568 338 544 C 314 519 285 507 250 507 C 214 507 185 519 162 544 C 138 568 125 608 122 662 L 176 662 C 178 629 185 602 196 582 C 207 561 225 551 250 551 C 274 551 292 561 304 581 C 315 601 322 628 324 662 Z" unicode="˘" />
<glyph horiz-adv-x="500" d="M 280 511 L 220 511 L 220 635 L 280 635 L 280 511 Z" unicode="˙" />
<glyph horiz-adv-x="500" d="M 250 497 C 219 497 193 507 172 529 C 150 550 140 576 140 607 C 140 637 150 663 172 685 C 193 707 219 718 250 718 C 280 718 306 707 328 685 C 350 663 361 637 361 607 C 361 576 350 550 328 529 C 306 507 280 497 250 497 Z M 250 535 C 270 535 286 542 300 556 C 313 570 320 587 320 607 C 320 627 313 645 300 659 C 286 673 270 680 250 680 C 230 680 214 673 200 659 C 186 645 180 627 180 607 C 180 587 186 570 200 556 C 214 542 230 535 250 535 Z" unicode="˚" />
<glyph horiz-adv-x="500" d="M 356 -100 L 375 -127 C 356 -146 335 -161 311 -171 C 287 -181 261 -187 233 -187 C 202 -187 178 -179 160 -165 C 142 -151 133 -132 133 -110 C 133 -86 142 -63 162 -42 C 182 -20 213 -2 255 14 L 299 13 C 266 -1 239 -16 219 -33 C 198 -49 188 -67 188 -85 C 188 -101 194 -114 206 -124 C 218 -133 234 -138 253 -138 C 273 -138 293 -134 311 -127 C 329 -120 344 -111 356 -100 Z" unicode="˛" />
<glyph horiz-adv-x="500" d="M 348 636 L 396 636 C 396 592 390 560 378 539 C 366 518 351 508 333 508 C 315 508 300 512 288 521 C 275 529 264 538 254 547 C 244 555 234 564 224 572 C 214 580 203 585 193 585 C 183 585 174 578 167 566 C 159 554 155 536 155 512 L 107 512 C 107 555 114 587 129 608 C 144 629 161 640 179 640 C 195 640 209 635 221 626 C 233 617 244 608 255 599 C 264 590 273 582 283 574 C 293 566 303 562 313 562 C 322 562 330 568 337 581 C 344 593 348 612 348 636 Z" unicode="˜" />
<glyph horiz-adv-x="500" d="M 114 499 L 185 652 L 255 652 L 172 499 L 114 499 Z M 270 499 L 342 652 L 411 652 L 329 499 L 270 499 Z" unicode="˝" />
<glyph horiz-adv-x="0" d="M 0 499 L 0 499 Z M 82 499 L 18 499 L -82 668 L -8 668 L 82 499 Z" unicode="̀" />
<glyph horiz-adv-x="0" d="M 0 499 L 0 499 Z M -81 499 L 8 668 L 82 668 L -18 499 L -81 499 Z" unicode="́" />
<glyph horiz-adv-x="0" d="M 0 500 L 0 500 Z M 135 500 L 78 500 L 0 625 L -80 500 L -134 500 L -29 670 L 30 670 L 135 500 Z" unicode="̂" />
<glyph horiz-adv-x="0" d="M 0 508 L 0 508 Z M 97 636 L 145 636 C 145 592 139 560 127 539 C 115 518 100 508 82 508 C 64 508 49 512 37 521 C 24 529 13 538 3 547 C -7 555 -17 564 -27 572 C -37 580 -47 585 -58 585 C -68 585 -76 578 -84 566 C -91 554 -95 536 -96 512 L -144 512 C -144 555 -136 587 -121 608 C -106 629 -90 640 -72 640 C -56 640 -42 635 -30 626 C -18 617 -6 608 4 599 C 13 590 22 582 32 574 C 42 566 52 562 62 562 C 71 562 79 568 86 581 C 93 593 97 612 97 636 Z" unicode="̃" />
<glyph horiz-adv-x="0" d="M 0 530 L 0 530 Z M 118 530 L -118 530 L -118 578 L 118 578 L 118 530 Z" unicode="̄" />
<glyph horiz-adv-x="0" d="M 0 507 L 0 507 Z M 74 662 L 129 662 C 125 608 112 568 88 544 C 64 519 35 507 0 507 C -35 507 -64 519 -88 544 C -111 568 -124 608 -128 662 L -74 662 C -71 629 -64 602 -53 582 C -42 561 -24 551 0 551 C 24 551 42 561 54 581 C 65 601 72 628 74 662 Z" unicode="̆" />
<glyph horiz-adv-x="0" d="M 0 511 L 0 511 Z M 30 511 L -30 511 L -30 635 L 30 635 L 30 511 Z" unicode="̇" />
<glyph horiz-adv-x="0" d="M 0 500 L 0 500 Z M 102 500 L 49 500 L 49 656 L 102 656 L 102 500 Z M -51 500 L -104 500 L -104 656 L -51 656 L -51 500 Z" unicode="̈" />
<glyph horiz-adv-x="0" d="M 0 497 L 0 497 Z M 0 497 C -30 497 -56 507 -78 529 C -99 550 -110 576 -110 607 C -110 637 -99 663 -78 685 C -56 707 -30 718 0 718 C 30 718 56 707 78 685 C 100 663 111 637 111 607 C 111 576 100 550 78 529 C 56 507 30 497 0 497 Z M 0 535 C 20 535 36 542 50 556 C 63 570 70 587 70 607 C 70 627 63 645 50 659 C 36 673 20 680 0 680 C -19 680 -35 673 -49 659 C -63 645 -70 627 -70 607 C -70 587 -63 570 -49 556 C -35 542 -19 535 0 535 Z" unicode="̊" />
<glyph horiz-adv-x="0" d="M 0 499 L 0 499 Z M -148 499 L -77 652 L -7 652 L -90 499 L -148 499 Z M 8 499 L 80 652 L 149 652 L 67 499 L 8 499 Z" unicode="̋" />
<glyph horiz-adv-x="0" d="M 0 500 L 0 500 Z M -134 670 L -78 670 L 1 544 L 80 670 L 135 670 L 30 500 L -29 500 L -134 670 Z" unicode="̌" />
<glyph horiz-adv-x="0" d="M 0 -68 L 0 -68 Z M 74 -68 C 71 -110 60 -153 41 -196 C 22 -239 0 -275 -25 -305 L -74 -282 C -60 -263 -44 -234 -26 -194 C -8 -154 2 -112 6 -68 L 74 -68 Z" unicode="̦" />
<glyph horiz-adv-x="0" d="M 0 0 L 0 0 Z M 7 -184 C -14 -184 -35 -181 -57 -175 C -79 -169 -96 -161 -109 -151 L -99 -122 C -89 -128 -77 -135 -61 -141 C -45 -147 -28 -150 -10 -150 C 6 -150 20 -146 32 -138 C 44 -130 50 -119 50 -107 C 50 -92 44 -81 34 -75 C 24 -69 12 -66 0 -66 C -8 -66 -16 -66 -22 -68 C -28 -70 -35 -72 -43 -75 L -55 -62 L 2 10 L 40 10 L -7 -53 C 25 -44 52 -45 74 -57 C 96 -69 108 -87 108 -111 C 108 -134 98 -152 78 -165 C 58 -177 34 -184 7 -184 Z" unicode="̧" />
<glyph horiz-adv-x="0" d="M 0 0 L 0 0 Z M 102 -100 L 121 -127 C 102 -146 81 -161 57 -171 C 33 -181 7 -187 -21 -187 C -51 -187 -76 -179 -94 -165 C -112 -151 -121 -132 -121 -110 C -121 -86 -111 -63 -91 -42 C -71 -20 -41 -2 1 14 L 45 13 C 12 -1 -14 -16 -35 -33 C -55 -49 -66 -67 -66 -85 C -66 -101 -59 -114 -47 -124 C -35 -133 -19 -138 -1 -138 C 19 -138 39 -134 57 -127 C 75 -120 90 -111 102 -100 Z" unicode="̨" />
<glyph horiz-adv-x="563" d="M 2 0 L 2 0 Z M 562 0 L 2 0 L 271 730 L 294 730 L 562 0 Z M 477 52 L 281 611 L 86 52 L 477 52 Z" unicode="Δ" />
<glyph horiz-adv-x="724" d="M 35 0 L 35 0 Z M 44 0 L 44 60 L 256 60 L 256 143 C 222 154 191 170 163 191 C 135 211 112 235 93 261 C 74 287 60 316 50 347 C 40 378 35 409 35 441 C 35 483 42 523 57 560 C 72 597 93 629 121 657 C 148 684 181 705 221 721 C 260 737 304 745 353 745 C 403 745 449 737 490 721 C 530 705 564 683 592 656 C 620 628 641 596 656 559 C 670 522 678 483 678 441 C 678 409 673 377 664 347 C 654 316 640 287 622 261 C 604 235 581 211 553 191 C 525 171 493 155 457 143 L 457 60 L 669 60 L 669 0 L 405 0 L 405 178 C 437 188 466 202 491 221 C 516 239 537 260 554 283 C 571 306 584 331 593 358 C 602 384 607 411 607 438 C 607 474 600 508 588 539 C 576 570 559 597 537 619 C 515 641 488 658 457 671 C 425 683 391 690 353 690 C 316 690 282 683 252 671 C 222 658 196 640 174 618 C 152 596 136 569 124 538 C 112 507 107 473 107 436 C 107 410 111 384 120 358 C 128 332 141 307 158 284 C 175 261 196 240 222 222 C 247 203 276 188 309 178 L 309 0 L 44 0 Z" unicode="Ω" />
<glyph horiz-adv-x="594" d="M 78 0 L 78 0 Z M 78 -114 L 78 469 L 142 469 L 142 152 C 142 118 155 91 182 72 C 208 52 240 43 276 43 C 294 43 313 45 331 51 C 349 57 366 65 381 77 C 395 88 407 103 417 121 C 426 139 431 160 431 184 L 431 469 L 495 469 L 495 0 L 436 0 L 436 109 C 426 77 404 49 372 27 C 339 4 304 -7 266 -8 C 237 -8 211 -2 187 10 C 163 22 146 39 137 62 L 137 -114 L 78 -114 Z" unicode="μ" />
<glyph horiz-adv-x="543" d="M 156 439 L 156 0 L 92 0 L 92 439 L 15 439 L 15 490 L 528 490 L 528 439 L 445 439 L 445 0 L 380 0 L 380 439 L 156 439 Z" unicode="π" />
<glyph horiz-adv-x="754" d="M 8 0 L 8 0 Z M 739 730 L 564 -5 L 519 -5 L 374 589 L 226 -5 L 181 -5 L 8 730 L 76 730 L 208 141 L 352 730 L 401 730 L 543 141 L 677 730 L 739 730 Z M 376 793 L 376 793 Z M 458 793 L 394 793 L 294 962 L 368 962 L 458 793 Z" unicode="Ẁ" />
<glyph horiz-adv-x="569" d="M 5 0 L 5 0 Z M 383 -2 L 285 299 L 185 -2 L 137 -2 L 5 436 L 69 436 L 167 92 L 265 392 L 310 392 L 405 92 L 507 436 L 565 436 L 430 -2 L 383 -2 Z M 285 499 L 285 499 Z M 367 499 L 303 499 L 203 668 L 277 668 L 367 499 Z" unicode="ẁ" />
<glyph horiz-adv-x="754" d="M 8 0 L 8 0 Z M 739 730 L 564 -5 L 519 -5 L 374 589 L 226 -5 L 181 -5 L 8 730 L 76 730 L 208 141 L 352 730 L 401 730 L 543 141 L 677 730 L 739 730 Z M 376 793 L 376 793 Z M 295 793 L 384 962 L 458 962 L 358 793 L 295 793 Z" unicode="Ẃ" />
<glyph horiz-adv-x="569" d="M 5 0 L 5 0 Z M 383 -2 L 285 299 L 185 -2 L 137 -2 L 5 436 L 69 436 L 167 92 L 265 392 L 310 392 L 405 92 L 507 436 L 565 436 L 430 -2 L 383 -2 Z M 285 499 L 285 499 Z M 204 499 L 293 668 L 367 668 L 267 499 L 204 499 Z" unicode="ẃ" />
<glyph horiz-adv-x="754" d="M 8 0 L 8 0 Z M 739 730 L 564 -5 L 519 -5 L 374 589 L 226 -5 L 181 -5 L 8 730 L 76 730 L 208 141 L 352 730 L 401 730 L 543 141 L 677 730 L 739 730 Z M 376 794 L 376 794 Z M 478 794 L 425 794 L 425 950 L 478 950 L 478 794 Z M 325 794 L 272 794 L 272 950 L 325 950 L 325 794 Z" unicode="Ẅ" />
<glyph horiz-adv-x="569" d="M 5 0 L 5 0 Z M 383 -2 L 285 299 L 185 -2 L 137 -2 L 5 436 L 69 436 L 167 92 L 265 392 L 310 392 L 405 92 L 507 436 L 565 436 L 430 -2 L 383 -2 Z M 285 500 L 285 500 Z M 387 500 L 334 500 L 334 656 L 387 656 L 387 500 Z M 234 500 L 181 500 L 181 656 L 234 656 L 234 500 Z" unicode="ẅ" />
<glyph horiz-adv-x="502" d="M 2 0 L 2 0 Z M 509 730 L 289 297 L 289 0 L 219 0 L 219 299 L 2 730 L 77 730 L 257 370 L 439 730 L 509 730 Z M 257 793 L 257 793 Z M 339 793 L 275 793 L 175 962 L 249 962 L 339 793 Z" unicode="Ỳ" />
<glyph horiz-adv-x="363" d="M 0 0 L 0 0 Z M 362 436 L 167 -107 C 153 -141 136 -165 114 -179 C 92 -193 70 -200 48 -200 C 36 -200 26 -198 17 -196 C 7 -194 0 -192 -4 -190 L 15 -135 C 17 -136 22 -138 29 -140 C 36 -142 44 -143 52 -143 C 63 -143 75 -138 87 -128 C 99 -118 109 -101 118 -79 L 154 32 L -1 436 L 68 436 L 186 112 L 298 436 L 362 436 Z M 182 499 L 182 499 Z M 264 499 L 200 499 L 100 668 L 174 668 L 264 499 Z" unicode="ỳ" />
<glyph horiz-adv-x="460" d="M 418 225 L 42 225 L 42 282 L 418 282 L 418 225 Z" unicode="–" />
<glyph horiz-adv-x="645" d="M 603 225 L 42 225 L 42 282 L 603 282 L 603 225 Z" unicode="—" />
<glyph horiz-adv-x="218" d="M 41 507 L 41 514 C 41 556 48 595 64 632 C 79 669 102 704 134 737 L 195 731 C 175 709 155 680 137 644 C 118 608 109 565 109 515 L 109 507 L 41 507 Z" unicode="‘" />
<glyph horiz-adv-x="218" d="M 177 737 L 177 730 C 177 688 169 648 154 612 C 138 575 115 540 84 507 L 23 513 C 43 536 62 565 81 601 C 99 637 109 679 109 729 L 109 737 L 177 737 Z" unicode="’" />
<glyph horiz-adv-x="219" d="M 176 108 L 176 101 C 176 59 168 19 153 -17 C 137 -53 114 -88 83 -122 L 22 -116 C 42 -92 61 -63 80 -27 C 98 8 108 50 108 100 L 108 108 L 176 108 Z" unicode="‚" />
<glyph horiz-adv-x="362" d="M 191 507 L 191 514 C 191 550 199 587 216 624 C 232 661 258 699 294 737 L 351 731 C 342 722 332 710 321 696 C 309 682 299 665 289 647 C 279 628 270 607 264 585 C 257 563 254 539 254 515 L 254 507 L 191 507 Z M 42 507 L 42 514 C 42 550 50 587 68 624 C 85 661 111 699 145 737 L 202 731 C 194 722 184 710 173 696 C 161 682 151 665 141 647 C 131 628 122 607 115 585 C 108 563 105 539 105 515 L 105 507 L 42 507 Z" unicode="“" />
<glyph horiz-adv-x="362" d="M 171 737 L 171 730 C 171 688 163 648 149 612 C 134 576 111 541 79 507 L 22 513 C 43 537 63 567 81 602 C 99 637 108 679 108 729 L 108 737 L 171 737 Z M 320 737 L 320 730 C 320 688 312 648 297 612 C 281 576 258 541 228 507 L 171 513 C 192 537 212 567 230 602 C 248 637 257 679 257 729 L 257 737 L 320 737 Z" unicode="”" />
<glyph horiz-adv-x="365" d="M 170 109 L 170 102 C 170 60 162 21 148 -15 C 134 -51 111 -86 79 -121 L 22 -115 C 43 -90 63 -60 81 -25 C 99 9 108 51 108 101 L 108 109 L 170 109 Z M 322 109 L 322 102 C 322 60 314 20 300 -15 C 285 -51 262 -87 232 -121 L 174 -115 C 195 -90 215 -60 233 -25 C 251 9 260 51 260 101 L 260 109 L 322 109 Z" unicode="„" />
<glyph horiz-adv-x="450" d="M 429 406 L 256 406 L 256 -179 L 188 -179 L 188 406 L 21 406 L 21 470 L 188 470 L 188 730 L 256 730 L 256 470 L 429 470 L 429 406 Z" unicode="†" />
<glyph horiz-adv-x="454" d="M 191 -179 L 191 126 L 26 126 L 26 190 L 191 190 L 191 390 L 26 390 L 26 454 L 191 454 L 191 730 L 258 730 L 258 454 L 428 454 L 428 390 L 258 390 L 258 190 L 428 190 L 428 126 L 258 126 L 258 -179 L 191 -179 Z" unicode="‡" />
<glyph horiz-adv-x="382" d="M 191 442 C 208 442 223 435 235 423 C 247 411 254 396 254 379 C 254 361 247 347 235 335 C 223 323 208 317 191 317 C 173 317 159 323 147 335 C 135 347 129 361 129 379 C 129 396 135 411 147 423 C 159 435 173 442 191 442 Z" unicode="•" />
<glyph horiz-adv-x="597" d="M 66 0 L 66 110 L 133 110 L 133 0 L 66 0 Z M 265 0 L 265 110 L 332 110 L 332 0 L 265 0 Z M 464 0 L 464 110 L 530 110 L 530 0 L 464 0 Z" unicode="…" />
<glyph horiz-adv-x="1003" d="M 176 364 C 160 364 144 367 128 375 C 112 383 97 394 85 410 C 72 426 62 445 54 469 C 46 493 42 520 42 552 C 42 578 45 603 52 626 C 58 649 67 669 79 686 C 91 703 105 716 122 726 C 138 736 156 741 176 741 C 196 741 215 736 232 726 C 249 716 264 702 276 686 C 288 669 297 649 303 627 C 309 604 313 580 313 555 C 313 528 309 503 303 480 C 296 456 286 436 274 419 C 262 401 247 388 231 378 C 214 368 196 364 176 364 Z M 102 0 L 527 730 L 576 730 L 151 0 L 102 0 Z M 100 551 C 100 515 106 483 118 455 C 130 427 149 414 175 414 C 189 414 202 417 212 425 C 222 433 231 443 237 456 C 243 468 248 483 251 500 C 254 516 256 533 256 551 C 256 568 254 585 251 602 C 248 618 243 633 237 646 C 231 659 223 670 213 678 C 203 686 192 690 178 690 C 164 690 153 686 143 678 C 133 670 124 660 118 647 C 112 634 107 619 104 603 C 101 586 100 569 100 551 Z M 515 -3 C 498 -3 481 0 465 8 C 449 16 434 27 422 43 C 409 59 399 78 391 102 C 383 126 380 153 380 185 C 380 211 383 236 390 259 C 396 282 406 302 418 319 C 430 336 444 349 461 359 C 478 369 497 374 517 374 C 538 374 557 369 574 359 C 590 349 604 335 616 319 C 628 302 637 282 643 260 C 649 237 653 213 653 188 C 653 161 649 136 643 113 C 636 89 627 69 615 52 C 603 34 588 21 571 11 C 554 1 535 -3 515 -3 Z M 823 -3 C 806 -3 790 0 774 8 C 758 16 743 27 731 43 C 718 59 708 78 700 102 C 692 126 688 153 688 185 C 688 211 691 236 698 259 C 704 282 714 302 726 319 C 738 336 752 349 769 359 C 786 369 805 374 825 374 C 846 374 865 369 882 359 C 898 349 912 335 924 319 C 936 302 945 282 951 260 C 957 237 961 213 961 188 C 961 161 957 136 951 113 C 944 89 935 69 923 52 C 911 34 896 21 879 11 C 862 1 843 -3 823 -3 Z M 514 48 C 528 48 540 51 550 59 C 560 67 569 77 576 90 C 582 102 587 117 591 134 C 594 150 596 167 596 185 C 596 202 594 219 591 236 C 587 252 582 267 576 280 C 570 293 562 304 552 312 C 542 320 530 324 517 324 C 491 324 471 309 457 281 C 443 253 437 221 437 185 C 437 148 443 116 457 89 C 470 61 489 48 514 48 Z M 823 48 C 837 48 849 51 859 59 C 869 67 878 77 884 90 C 890 102 895 117 899 134 C 902 150 904 167 904 185 C 904 202 902 219 899 236 C 896 252 891 267 885 280 C 879 293 871 304 861 312 C 851 320 839 324 825 324 C 799 324 779 309 766 281 C 752 253 746 221 746 185 C 746 148 752 116 765 89 C 778 61 797 48 823 48 Z" unicode="‰" />
<glyph horiz-adv-x="227" d="M 197 97 L 29 262 L 29 303 L 197 466 L 197 400 L 86 281 L 197 166 L 197 97 Z" unicode="‹" />
<glyph horiz-adv-x="228" d="M 30 466 L 199 301 L 199 260 L 30 97 L 30 162 L 141 282 L 30 397 L 30 466 Z" unicode="›" />
<glyph horiz-adv-x="145" d="M 299 730 L -87 0 L -145 0 L 241 730 L 299 730 Z" unicode="⁄" />
<glyph horiz-adv-x="324" d="M 16 460 L 16 500 L 209 740 L 248 740 L 248 503 L 313 503 L 313 460 L 248 460 L 248 373 L 194 373 L 194 460 L 16 460 Z M 69 499 L 195 499 L 195 660 L 69 499 Z" unicode="⁴" />
<glyph horiz-adv-x="499" d="M 482 118 C 464 80 439 49 406 25 C 372 0 336 -12 296 -12 C 242 -12 195 13 155 64 C 114 114 88 183 77 271 L 33 271 L 33 324 L 72 324 C 71 330 71 337 71 343 C 71 349 71 356 71 363 C 71 368 71 373 71 379 C 71 384 71 389 72 395 L 33 395 L 33 448 L 76 448 C 80 490 89 530 101 566 C 113 602 129 633 148 659 C 166 685 188 705 213 720 C 237 734 265 742 295 742 C 342 742 380 730 408 708 C 436 686 458 659 473 627 L 425 595 C 412 619 396 640 376 658 C 356 676 329 685 297 685 C 255 685 220 663 192 621 C 164 579 146 521 138 448 L 439 448 L 439 395 L 134 395 C 133 389 133 384 133 378 C 133 372 133 367 133 362 C 133 355 133 348 133 342 C 133 336 133 330 134 324 L 439 324 L 439 271 L 139 271 C 149 197 169 141 199 102 C 229 63 263 44 299 44 C 331 44 358 54 381 76 C 403 97 422 122 436 151 L 482 118 Z" unicode="€" />
<glyph horiz-adv-x="822" d="M 768 326 L 710 326 L 710 633 L 573 423 L 554 423 L 418 632 L 418 326 L 361 326 L 361 730 L 420 730 L 564 510 L 707 730 L 768 730 L 768 326 Z M 332 667 L 209 667 L 209 326 L 148 326 L 148 667 L 24 667 L 24 730 L 332 730 L 332 667 Z" unicode="™" />
<glyph horiz-adv-x="714" d="M 44 0 L 44 60 L 256 60 L 256 143 C 222 154 191 170 163 191 C 135 211 112 235 93 261 C 74 287 60 316 50 347 C 40 378 35 409 35 441 C 35 483 42 523 57 560 C 72 597 93 629 121 657 C 148 684 181 705 221 721 C 260 737 304 745 353 745 C 403 745 449 737 490 721 C 530 705 564 683 592 656 C 620 628 641 596 656 559 C 670 522 678 483 678 441 C 678 409 673 377 664 347 C 654 316 640 287 622 261 C 604 235 581 211 553 191 C 525 171 493 155 457 143 L 457 60 L 669 60 L 669 0 L 405 0 L 405 178 C 437 188 466 202 491 221 C 516 239 537 260 554 283 C 571 306 584 331 593 358 C 602 384 607 411 607 438 C 607 474 600 508 588 539 C 576 570 559 597 537 619 C 515 641 488 658 457 671 C 425 683 391 690 353 690 C 316 690 282 683 252 671 C 222 658 196 640 174 618 C 152 596 136 569 124 538 C 112 507 107 473 107 436 C 107 410 111 384 120 358 C 128 332 141 307 158 284 C 175 261 196 240 222 222 C 247 203 276 188 309 178 L 309 0 L 44 0 Z" unicode="Ω" />
<glyph horiz-adv-x="461" d="M 421 266 C 421 219 416 178 406 144 C 396 110 382 81 364 59 C 346 36 326 19 302 8 C 278 -2 252 -8 225 -8 C 199 -8 175 -3 151 7 C 127 17 106 31 88 50 C 70 69 55 93 45 121 C 34 149 29 180 29 216 C 29 249 33 280 43 308 C 53 336 66 361 83 381 C 99 401 119 417 142 429 C 164 440 189 446 215 446 C 251 446 282 436 308 416 C 334 396 353 371 366 340 C 360 414 347 478 328 532 C 309 586 287 629 263 663 C 239 697 213 722 187 738 C 160 754 136 762 116 763 L 144 802 C 165 802 192 792 224 773 C 256 753 286 722 315 680 C 344 638 369 582 390 514 C 410 446 421 363 421 266 Z M 225 39 C 265 39 296 55 319 89 C 341 123 353 168 353 224 C 353 276 341 318 319 350 C 297 382 265 398 223 398 C 185 398 154 381 131 349 C 107 316 96 273 96 219 C 96 161 107 116 131 85 C 155 54 186 39 225 39 Z" unicode="∂" />
<glyph horiz-adv-x="565" d="M 562 0 L 2 0 L 271 730 L 294 730 L 562 0 Z M 477 52 L 281 611 L 86 52 L 477 52 Z" unicode="∆" />
<glyph horiz-adv-x="652" d="M 198 671 L 198 0 L 130 0 L 130 671 L 15 671 L 15 730 L 637 730 L 637 671 L 526 671 L 526 0 L 459 0 L 459 671 L 198 671 Z" unicode="∏" />
<glyph horiz-adv-x="547" d="M 135 671 L 371 307 L 103 -120 L 515 -120 L 515 -179 L -5 -179 L 305 306 L 24 730 L 494 730 L 494 671 L 135 671 Z" unicode="∑" />
<glyph horiz-adv-x="509" d="M 468 305 L 42 305 L 42 358 L 468 358 L 468 305 Z" unicode="−" />
<glyph horiz-adv-x="510" d="M 496 730 L 198 0 L 186 0 L 15 325 L 63 357 L 200 90 L 453 730 L 496 730 Z" unicode="√" />
<glyph horiz-adv-x="327" d="M 112 -45 L 173 635 C 175 668 188 693 210 711 C 232 729 254 738 277 738 C 289 738 300 737 311 736 C 321 735 328 734 331 734 L 325 676 C 323 676 319 677 313 678 C 307 678 301 679 295 679 C 276 679 260 672 248 660 C 235 648 228 628 226 601 L 167 -68 C 164 -100 151 -126 129 -148 C 106 -169 79 -179 47 -179 C 31 -179 16 -177 2 -174 C -11 -170 -21 -167 -28 -164 L -21 -118 C -17 -118 -10 -120 -1 -123 C 8 -125 17 -127 26 -127 C 46 -127 65 -119 82 -105 C 99 -91 109 -71 112 -45 Z" unicode="∫" />
<glyph horiz-adv-x="487" d="M 385 490 L 447 490 C 446 441 438 403 424 376 C 409 349 386 336 355 336 C 333 336 314 341 298 351 C 281 361 266 372 254 385 C 240 397 225 408 210 418 C 195 428 180 433 165 433 C 150 433 135 424 120 408 C 104 392 97 369 97 339 L 43 339 C 43 387 53 424 73 451 C 93 477 117 491 146 491 C 167 491 186 485 202 475 C 218 465 233 454 247 442 C 259 432 272 422 286 413 C 299 403 313 399 329 399 C 348 399 362 406 371 420 C 380 434 385 457 385 490 Z M 387 321 L 447 321 C 446 272 438 234 422 208 C 406 181 382 168 350 168 C 328 168 309 173 293 183 C 277 193 262 204 250 216 C 236 228 222 239 208 248 C 194 257 179 262 165 262 C 150 262 135 254 121 238 C 106 222 99 200 99 171 L 43 171 C 43 219 53 256 73 283 C 93 309 119 323 150 323 C 172 323 192 317 209 307 C 226 297 241 285 254 273 C 266 262 278 252 291 243 C 304 234 318 230 333 230 C 351 230 365 237 374 251 C 382 265 387 288 387 321 Z" unicode="≈" />
<glyph horiz-adv-x="500" d="M 457 186 L 220 186 L 166 78 L 121 98 L 164 186 L 65 186 L 65 243 L 193 243 L 267 394 L 65 394 L 65 449 L 294 449 L 346 554 L 392 534 L 350 449 L 457 449 L 457 394 L 323 394 L 248 243 L 457 243 L 457 186 Z" unicode="≠" />
<glyph horiz-adv-x="500" d="M 62 303 L 62 348 L 433 551 L 433 489 L 125 327 L 433 162 L 433 100 L 62 303 Z M 61 73 L 433 73 L 433 23 L 61 23 L 61 73 Z" unicode="≤" />
<glyph horiz-adv-x="500" d="M 432 303 L 61 100 L 61 162 L 369 327 L 61 489 L 61 551 L 432 348 L 432 303 Z M 433 73 L 433 23 L 61 23 L 61 73 L 433 73 Z" unicode="≥" />
<glyph horiz-adv-x="522" d="M 491 326 L 266 -6 L 256 -6 L 31 326 L 31 337 L 256 668 L 266 668 L 491 337 L 491 326 Z M 429 327 L 429 336 L 266 582 L 257 582 L 94 336 L 94 327 L 257 80 L 266 80 L 429 327 Z" unicode="◊" />
<glyph horiz-adv-x="730" d="M 448 692 L 282 692 L 282 730 L 448 730 L 448 692 Z M 659 282 L 619 282 L 619 448 L 659 448 L 659 282 Z M 111 282 L 71 282 L 71 448 L 111 448 L 111 282 Z M 414 316 L 316 316 L 316 414 L 414 414 L 414 316 Z M 448 0 L 282 0 L 282 39 L 448 39 L 448 0 Z" unicode="" />
<glyph horiz-adv-x="434" d="M 237 383 L 150 383 L 150 0 L 86 0 L 86 383 L 21 383 L 21 436 L 86 436 L 86 601 C 86 628 90 652 99 674 C 107 695 119 713 133 727 C 147 741 162 752 180 760 C 197 767 214 771 232 771 C 249 771 265 769 279 766 C 293 762 304 758 311 754 L 299 701 C 294 703 286 706 275 709 C 264 711 253 713 243 713 C 221 713 199 703 179 683 C 159 663 149 635 149 597 L 149 436 L 237 436 L 237 383 Z M 378 548 L 310 548 L 310 617 L 378 617 L 378 548 Z M 376 0 L 312 0 L 312 436 L 376 436 L 376 0 Z" unicode="ﬁ" />
<glyph horiz-adv-x="429" d="M 150 383 L 150 0 L 86 0 L 86 383 L 21 383 L 21 436 L 86 436 L 86 589 C 86 617 90 641 99 663 C 107 684 119 702 133 716 C 147 730 162 741 180 749 C 197 756 214 760 232 760 C 249 760 265 758 279 755 C 293 751 303 748 310 745 L 310 757 L 374 757 L 374 0 L 310 0 L 310 740 L 299 690 C 294 692 286 695 275 698 C 264 701 253 703 243 703 C 220 703 199 692 179 672 C 159 652 149 623 149 585 L 149 436 L 238 436 L 238 383 L 150 383 Z" unicode="ﬂ" />
</font>
</defs>
</svg>
