<?xml version="1.0" encoding="utf-8" ?><svg version="1.1" xmlns = 'http://www.w3.org/2000/svg'><defs><font id='web' horiz-adv-x="1000">
<font-face font-family="web" descent="-200" cap-height="730" units-per-em="1000" bbox="-158,-339,1064,1026" x-height="529" ascent="800" />
<missing-glyph horiz-adv-x="500" d="" /><glyph horiz-adv-x="220" d="" unicode=" " />
<glyph horiz-adv-x="277" d="M 176 433 L 155 190 L 122 190 L 101 433 L 101 730 L 176 730 L 176 433 Z M 174 0 L 103 0 L 103 78 L 174 78 L 174 0 Z" unicode="!" />
<glyph horiz-adv-x="369" d="M 299 616 L 293 484 L 241 484 L 237 615 L 237 730 L 299 730 L 299 616 Z M 131 615 L 127 484 L 74 484 L 70 615 L 70 730 L 131 730 L 131 615 Z" unicode="&#x22;" />
<glyph horiz-adv-x="605" d="M 550 235 L 413 235 L 392 0 L 349 1 L 370 235 L 212 235 L 191 0 L 149 1 L 170 235 L 32 235 L 32 288 L 174 288 L 187 438 L 54 438 L 54 491 L 192 491 L 213 730 L 255 729 L 234 491 L 392 491 L 413 730 L 456 729 L 435 491 L 573 491 L 573 438 L 430 438 L 417 288 L 550 288 L 550 235 Z M 216 288 L 374 288 L 387 438 L 229 438 L 216 288 Z" unicode="#" />
<glyph horiz-adv-x="501" d="M 459 182 C 459 155 454 131 444 109 C 434 87 420 69 403 53 C 385 37 365 25 342 16 C 318 7 294 2 268 0 L 268 -122 L 228 -122 L 228 1 C 186 3 148 12 114 28 C 80 43 53 63 32 87 L 59 139 C 77 116 102 97 134 82 C 165 66 196 57 228 55 L 228 351 C 162 381 115 412 88 442 C 60 472 47 511 47 560 C 47 610 64 650 98 681 C 132 711 175 728 228 730 L 228 790 L 268 790 L 268 729 C 304 726 336 719 365 707 C 393 695 418 679 439 659 L 406 613 C 388 631 367 646 343 656 C 319 666 294 672 268 675 L 268 399 L 274 396 C 340 364 387 332 416 301 C 444 270 459 230 459 182 Z M 111 558 C 111 527 119 502 135 482 C 151 462 182 441 228 418 L 228 675 C 194 672 166 660 144 640 C 122 619 111 592 111 558 Z M 394 181 C 394 211 385 237 369 259 C 352 281 318 305 268 331 L 268 55 C 303 57 333 69 357 91 C 381 113 394 143 394 181 Z" unicode="$" />
<glyph horiz-adv-x="782" d="M 194 356 C 174 356 155 360 137 369 C 119 377 103 390 89 406 C 75 422 63 442 55 466 C 47 490 43 517 43 548 C 43 574 46 598 54 622 C 62 646 72 666 85 684 C 98 701 114 715 133 725 C 151 735 172 741 194 741 C 217 741 238 735 257 725 C 275 715 291 701 304 684 C 317 667 327 647 334 624 C 341 600 345 576 345 551 C 345 523 341 498 334 474 C 326 450 316 430 303 412 C 289 394 273 381 255 371 C 237 361 216 356 194 356 Z M 170 0 L 108 0 L 600 730 L 662 730 L 170 0 Z M 192 407 C 224 407 249 420 265 448 C 281 475 289 508 289 548 C 289 586 281 619 266 647 C 251 675 227 689 195 689 C 164 689 140 675 124 647 C 107 619 99 586 99 548 C 99 506 107 472 124 446 C 141 420 164 407 192 407 Z M 587 -3 C 567 -3 548 1 530 10 C 512 18 496 31 482 47 C 468 63 456 83 448 107 C 440 131 436 158 436 189 C 436 215 439 239 447 263 C 455 287 465 307 479 325 C 492 342 508 356 527 366 C 545 376 566 382 588 382 C 611 382 632 376 651 366 C 669 356 685 342 698 325 C 711 308 721 288 728 265 C 735 241 739 217 739 192 C 739 165 735 140 728 116 C 720 92 710 71 697 54 C 683 36 667 22 649 12 C 630 2 609 -3 587 -3 Z M 585 49 C 617 49 642 62 658 90 C 674 117 683 150 683 189 C 683 227 675 260 660 288 C 644 316 620 331 588 331 C 557 331 533 317 517 289 C 500 261 492 228 492 189 C 492 147 500 114 518 88 C 536 62 558 49 585 49 Z" unicode="%" />
<glyph horiz-adv-x="685" d="M 624 -4 L 532 82 C 498 53 460 31 418 15 C 376 0 329 -8 276 -8 C 206 -8 148 7 104 38 C 59 69 37 113 37 169 C 37 196 41 220 50 242 C 59 263 71 282 87 299 C 103 315 121 331 142 345 C 162 359 184 373 207 387 L 182 411 C 163 429 145 452 128 480 C 111 508 103 542 103 582 C 103 602 107 622 117 641 C 127 660 140 677 156 691 C 172 705 190 716 212 724 C 234 732 256 737 280 737 C 334 737 377 721 408 691 C 439 661 455 625 455 583 C 455 540 441 504 413 475 C 385 446 348 417 302 387 L 530 174 C 542 188 554 202 566 218 C 578 234 589 250 601 268 L 660 234 C 647 214 634 195 621 177 C 607 159 594 143 580 128 L 664 49 L 624 -4 Z M 232 453 L 264 423 C 304 448 335 472 357 496 C 379 519 391 545 391 574 C 391 602 381 627 362 648 C 342 669 315 680 280 680 C 248 680 221 669 200 647 C 179 625 169 602 169 577 C 169 553 175 530 187 509 C 199 488 214 469 232 453 Z M 109 177 C 109 157 113 140 122 124 C 131 108 143 94 159 84 C 175 73 193 65 214 59 C 235 53 257 50 281 50 C 319 50 354 56 388 70 C 422 84 453 103 483 128 L 246 351 C 205 325 172 299 147 274 C 121 249 109 217 109 177 Z" unicode="&#x26;" />
<glyph horiz-adv-x="202" d="M 131 613 L 128 480 L 74 480 L 70 613 L 70 730 L 131 730 L 131 613 Z" unicode="'" />
<glyph horiz-adv-x="314" d="M 295 -125 L 295 -183 C 257 -163 221 -137 189 -104 C 157 -71 129 -34 105 7 C 81 48 63 93 50 142 C 36 191 30 241 30 293 C 30 345 37 394 51 442 C 65 490 84 533 108 572 C 132 611 160 646 192 676 C 224 706 259 731 295 749 L 295 695 C 268 677 243 655 220 629 C 196 603 176 573 159 539 C 142 505 129 467 119 425 C 109 383 104 339 104 293 C 104 250 108 208 116 167 C 124 126 137 87 153 51 C 169 15 189 -18 213 -48 C 237 -78 264 -104 295 -125 Z" unicode="(" />
<glyph horiz-adv-x="314" d="M 18 696 L 18 749 C 52 733 85 710 117 681 C 149 652 177 618 202 578 C 226 538 246 492 261 442 C 276 392 284 338 284 282 C 284 230 277 179 263 131 C 249 83 230 39 206 -1 C 182 -41 153 -76 121 -108 C 88 -139 54 -164 18 -183 L 18 -123 C 45 -104 70 -80 94 -52 C 117 -24 137 7 154 42 C 171 76 184 114 194 155 C 204 195 209 238 209 282 C 209 332 204 378 194 422 C 184 465 170 504 153 539 C 135 574 115 605 92 632 C 68 658 44 680 18 696 Z" unicode=")" />
<glyph horiz-adv-x="407" d="M 371 586 L 235 549 L 331 450 L 283 409 L 205 527 L 127 409 L 78 449 L 174 550 L 39 587 L 65 646 L 185 584 L 171 730 L 238 730 L 223 584 L 348 642 L 371 586 Z" unicode="*" />
<glyph horiz-adv-x="494" d="M 466 304 L 275 304 L 275 119 L 220 119 L 220 304 L 28 304 L 28 359 L 220 359 L 220 543 L 275 543 L 275 359 L 466 359 L 466 304 Z" unicode="+" />
<glyph horiz-adv-x="218" d="M 175 101 C 169 51 156 5 136 -39 C 116 -83 92 -119 65 -149 L 16 -126 C 24 -116 32 -102 42 -86 C 51 -69 60 -51 68 -31 C 76 -11 84 10 91 33 C 97 55 102 78 106 101 L 175 101 Z" unicode="," />
<glyph horiz-adv-x="328" d="M 286 231 L 43 231 L 43 290 L 286 290 L 286 231 Z" unicode="-" />
<glyph horiz-adv-x="219" d="M 143 0 L 76 0 L 76 117 L 143 117 L 143 0 Z" unicode="." />
<glyph horiz-adv-x="303" d="M 297 730 L 68 0 L 7 0 L 237 730 L 297 730 Z" unicode="/" />
<glyph horiz-adv-x="542" d="M 268 -10 C 199 -10 144 22 102 87 C 60 152 40 243 40 361 C 40 413 44 463 54 510 C 64 556 78 597 97 631 C 116 665 140 691 170 711 C 199 731 233 741 273 741 C 313 741 347 731 377 712 C 406 692 430 666 448 633 C 466 599 480 560 489 514 C 497 468 502 420 502 369 C 502 313 497 261 487 215 C 477 168 463 128 444 95 C 424 62 400 36 371 18 C 341 0 307 -10 268 -10 Z M 268 48 C 296 48 321 55 342 70 C 363 85 380 106 394 133 C 408 160 418 193 425 232 C 431 270 435 313 435 361 C 435 407 432 450 426 490 C 420 529 410 563 397 592 C 384 620 367 643 346 659 C 325 675 300 683 271 683 C 243 683 218 675 198 660 C 177 644 160 623 147 595 C 133 567 123 533 117 494 C 110 454 107 411 107 363 C 107 265 120 188 148 132 C 176 76 216 48 268 48 Z" unicode="0" />
<glyph horiz-adv-x="343" d="M 253 0 L 186 0 L 186 638 C 173 617 153 596 126 576 C 98 555 71 543 45 541 L 45 605 C 73 608 102 622 132 648 C 162 674 185 701 203 731 L 253 731 L 253 0 Z" unicode="1" />
<glyph horiz-adv-x="517" d="M 486 0 L 33 0 L 33 21 L 326 347 C 346 371 365 399 382 431 C 399 463 408 499 408 539 C 408 585 393 620 365 645 C 336 670 300 683 256 683 C 207 683 169 667 142 636 C 115 604 102 562 102 509 L 40 509 C 40 584 61 641 101 681 C 141 720 196 740 264 740 C 325 740 375 723 415 689 C 455 655 475 608 475 548 C 475 494 465 449 446 414 C 426 378 405 348 383 322 L 146 61 L 486 61 L 486 0 Z" unicode="2" />
<glyph horiz-adv-x="520" d="M 248 -10 C 189 -10 140 -2 101 14 C 61 30 31 47 10 67 L 43 121 C 61 104 87 87 120 71 C 152 55 193 47 241 47 C 299 47 344 63 376 96 C 408 129 425 170 425 218 C 425 264 409 300 377 326 C 345 352 305 365 259 365 L 142 365 L 142 422 L 255 422 C 298 422 333 435 360 461 C 387 487 401 518 401 556 C 401 589 388 618 362 644 C 336 670 300 683 254 683 C 208 683 171 673 142 654 C 112 634 89 611 71 583 L 32 627 C 52 657 80 684 118 707 C 156 729 203 741 260 741 C 324 741 374 725 411 693 C 447 661 466 619 466 568 C 466 523 452 485 425 455 C 398 425 366 405 329 397 C 350 393 370 387 390 377 C 410 367 427 355 442 340 C 456 324 468 306 477 286 C 485 265 490 242 490 217 C 490 187 484 158 474 131 C 463 103 447 79 427 58 C 406 37 381 20 351 8 C 321 -3 286 -10 248 -10 Z" unicode="3" />
<glyph horiz-adv-x="524" d="M 520 192 L 407 192 L 407 0 L 346 0 L 346 192 L 14 192 L 13 240 L 359 743 L 407 743 L 407 248 L 520 248 L 520 192 Z M 346 246 L 347 636 L 83 246 L 346 246 Z" unicode="4" />
<glyph horiz-adv-x="528" d="M 253 -10 C 204 -10 159 -1 119 15 C 79 31 48 52 27 77 L 63 129 C 81 108 105 89 137 73 C 168 56 205 48 249 48 C 303 48 346 66 378 104 C 410 142 426 192 426 254 C 426 310 411 355 381 387 C 351 419 314 435 270 435 C 232 435 199 426 172 410 C 144 394 123 371 109 341 L 64 355 L 91 730 L 447 730 L 447 669 L 140 669 L 122 406 C 133 428 153 447 182 465 C 211 482 246 491 286 491 C 346 491 395 470 435 429 C 474 388 494 331 494 258 C 494 177 471 112 427 63 C 382 14 324 -10 253 -10 Z" unicode="5" />
<glyph horiz-adv-x="519" d="M 269 -11 C 235 -11 204 -5 176 6 C 147 18 122 34 102 56 C 81 77 65 103 53 134 C 41 164 36 199 36 237 C 36 315 57 392 101 466 C 144 540 199 612 267 682 L 333 751 L 376 708 L 321 652 C 266 595 219 539 181 484 C 142 429 119 383 111 346 C 122 372 143 395 173 417 C 203 439 240 450 283 450 C 315 450 344 444 370 432 C 396 420 417 404 435 384 C 453 364 466 340 476 312 C 486 284 491 254 491 222 C 491 189 485 158 474 130 C 463 102 448 77 428 56 C 408 35 385 19 358 7 C 330 -5 301 -11 269 -11 Z M 267 47 C 291 47 312 51 332 60 C 352 69 368 81 382 97 C 396 113 406 131 414 153 C 421 174 425 196 425 220 C 425 244 421 266 414 287 C 407 308 397 327 384 343 C 371 359 355 371 335 380 C 315 389 292 394 267 394 C 245 394 225 390 205 382 C 185 374 167 362 152 348 C 136 334 124 316 115 295 C 105 274 101 251 101 225 C 101 173 116 130 146 97 C 176 63 217 47 267 47 Z" unicode="6" />
<glyph horiz-adv-x="449" d="M 441 730 L 448 698 L 123 -4 L 64 20 L 369 668 L 14 668 L 14 730 L 441 730 Z" unicode="7" />
<glyph horiz-adv-x="552" d="M 355 388 C 375 384 395 377 415 367 C 434 357 451 344 466 328 C 480 312 492 294 501 272 C 510 250 515 226 515 199 C 515 137 493 86 451 48 C 408 9 350 -10 277 -10 C 203 -10 145 8 102 46 C 59 84 38 133 38 194 C 38 222 43 248 53 271 C 63 294 75 314 91 330 C 106 346 123 359 143 369 C 162 379 181 385 200 387 C 184 391 167 397 151 406 C 134 414 119 426 106 440 C 92 454 81 470 73 489 C 64 508 60 530 60 554 C 60 582 65 607 77 630 C 88 653 103 673 123 689 C 142 705 165 718 191 727 C 217 735 246 740 276 740 C 340 740 392 723 432 690 C 472 657 493 613 493 558 C 493 535 489 514 481 495 C 473 475 462 458 450 444 C 437 429 422 417 406 408 C 389 398 372 392 355 388 Z M 277 407 C 323 407 360 419 389 445 C 417 471 432 504 432 545 C 432 587 417 620 387 646 C 357 672 321 685 277 685 C 233 685 195 672 165 647 C 135 621 120 587 120 545 C 120 522 124 502 133 485 C 141 468 153 454 168 442 C 182 430 199 422 218 416 C 237 410 257 407 277 407 Z M 278 45 C 330 45 371 59 403 87 C 434 115 450 154 450 204 C 450 252 433 288 400 314 C 367 339 326 352 278 352 C 228 352 186 339 153 314 C 119 289 103 251 103 201 C 103 154 119 116 152 88 C 185 59 227 45 278 45 Z" unicode="8" />
<glyph horiz-adv-x="519" d="M 198 -15 L 158 28 L 223 85 C 244 105 265 129 286 156 C 307 182 326 209 343 237 C 360 265 375 292 387 320 C 399 347 408 372 413 394 C 400 366 377 341 343 319 C 309 297 272 286 234 286 C 202 286 173 291 147 303 C 121 314 100 330 83 350 C 65 370 52 394 42 422 C 32 450 28 480 28 514 C 28 545 33 575 45 603 C 56 631 71 655 91 675 C 111 695 135 711 163 723 C 191 735 221 741 254 741 C 286 741 316 735 344 724 C 372 713 396 697 416 677 C 436 656 453 630 465 600 C 477 569 483 534 483 496 C 483 450 476 406 464 363 C 452 319 435 278 415 240 C 395 202 371 166 345 133 C 319 100 292 71 265 47 L 198 -15 Z M 250 340 C 272 340 294 344 315 352 C 335 360 353 372 368 387 C 383 401 395 419 404 440 C 413 460 418 483 418 507 C 418 534 413 559 405 581 C 396 603 384 621 370 637 C 355 652 338 664 318 672 C 298 680 277 685 255 685 C 205 685 165 668 137 635 C 108 601 94 561 94 514 C 94 464 107 423 134 390 C 160 356 199 340 250 340 Z" unicode="9" />
<glyph horiz-adv-x="216" d="M 141 415 L 74 415 L 74 529 L 141 529 L 141 415 Z M 141 0 L 74 0 L 74 114 L 141 114 L 141 0 Z" unicode=":" />
<glyph horiz-adv-x="215" d="M 146 415 L 79 415 L 79 529 L 146 529 L 146 415 Z M 153 92 C 147 48 134 4 115 -37 C 95 -79 72 -115 45 -145 L -4 -122 C 12 -101 30 -70 50 -30 C 69 9 81 50 86 92 L 153 92 Z" unicode=";" />
<glyph horiz-adv-x="387" d="M 341 100 L 39 301 L 39 352 L 341 551 L 341 489 L 105 328 L 341 163 L 341 100 Z" unicode="&#x3C;" />
<glyph horiz-adv-x="499" d="M 445 394 L 53 394 L 53 450 L 445 450 L 445 394 Z M 445 186 L 53 186 L 53 243 L 445 243 L 445 186 Z" unicode="=" />
<glyph horiz-adv-x="387" d="M 347 301 L 45 100 L 45 163 L 281 328 L 45 490 L 45 551 L 347 352 L 347 301 Z" unicode="&#x3E;" />
<glyph horiz-adv-x="455" d="M 172 188 C 172 238 177 278 187 308 C 197 338 216 367 245 394 C 257 404 269 415 282 427 C 294 438 306 450 317 464 C 328 477 337 492 344 508 C 351 524 355 543 355 564 C 355 600 342 628 316 650 C 290 671 257 682 219 682 C 185 682 154 674 128 658 C 102 642 79 622 61 600 L 18 642 C 40 672 69 696 105 714 C 141 732 181 742 226 742 C 282 742 329 727 367 697 C 405 667 424 626 424 572 C 424 546 419 523 411 503 C 403 482 392 463 380 447 C 368 431 354 416 340 403 C 325 389 311 377 299 366 C 272 343 255 315 248 283 C 240 250 236 218 236 188 L 172 188 Z M 169 0 L 169 103 L 241 103 L 241 0 L 169 0 Z" unicode="?" />
<glyph horiz-adv-x="860" d="M 427 -25 C 373 -25 323 -15 277 5 C 231 25 191 52 157 86 C 123 120 96 160 77 206 C 57 252 48 302 48 355 C 48 408 57 458 77 504 C 96 550 122 591 156 625 C 190 659 230 685 278 705 C 325 725 376 735 431 735 C 487 735 539 726 587 709 C 634 691 674 667 708 637 C 741 606 767 569 785 527 C 803 484 813 438 813 388 C 813 344 808 306 798 275 C 788 243 776 218 760 198 C 744 178 727 164 708 155 C 688 146 669 142 650 142 C 617 142 592 149 574 164 C 556 179 546 197 544 219 C 536 202 517 185 485 168 C 453 151 418 143 379 143 C 331 143 294 154 268 178 C 242 202 229 232 229 268 C 229 310 246 343 280 368 C 314 393 361 406 423 406 L 535 406 L 535 420 C 535 462 523 490 501 506 C 478 521 451 529 421 529 C 396 529 372 526 350 520 C 328 514 309 508 293 502 L 273 548 C 291 556 314 564 342 571 C 369 577 396 581 423 581 C 479 581 520 566 548 538 C 576 509 590 466 590 410 L 590 256 C 590 239 595 223 605 209 C 615 195 631 188 655 188 C 665 188 677 190 690 196 C 703 201 715 211 727 225 C 738 239 747 258 755 284 C 763 309 767 342 767 382 C 767 425 759 466 743 504 C 727 542 704 576 675 604 C 646 632 611 654 569 670 C 527 686 481 694 431 694 C 382 694 337 685 296 668 C 254 650 219 626 189 596 C 159 566 135 530 119 489 C 102 447 94 403 94 356 C 94 309 102 265 119 224 C 136 182 160 146 190 116 C 220 85 255 61 296 43 C 337 25 381 16 429 16 C 451 16 474 18 498 23 C 522 27 547 36 573 49 L 590 10 C 562 -2 535 -11 508 -17 C 480 -22 453 -25 427 -25 Z M 401 191 C 415 191 430 193 445 197 C 460 201 474 206 486 212 C 498 218 509 226 518 234 C 526 242 532 249 535 257 L 535 364 L 430 364 C 384 364 350 356 327 340 C 303 324 292 301 292 273 C 292 248 301 228 319 213 C 337 198 365 191 401 191 Z" unicode="@" />
<glyph horiz-adv-x="585" d="M 580 0 L 509 0 L 429 219 L 149 219 L 72 0 L 4 0 L 269 734 L 316 734 L 580 0 Z M 415 272 L 289 627 L 164 272 L 415 272 Z" unicode="A" />
<glyph horiz-adv-x="544" d="M 90 0 L 90 730 L 270 730 C 330 730 377 714 412 683 C 447 652 465 609 465 554 C 465 506 452 466 426 434 C 400 402 368 382 328 376 C 348 374 368 370 389 362 C 409 354 428 342 445 328 C 461 314 475 296 485 274 C 495 252 501 226 501 197 C 501 140 481 93 443 56 C 405 18 353 0 288 0 L 90 0 Z M 156 396 L 257 396 C 282 396 304 400 322 409 C 340 417 354 428 366 442 C 377 456 385 472 390 490 C 395 508 398 526 398 545 C 398 583 385 614 360 638 C 334 662 299 674 254 674 L 156 674 L 156 396 Z M 156 56 L 282 56 C 332 56 370 70 394 100 C 418 130 430 165 430 205 C 430 247 415 280 386 304 C 356 328 320 340 278 340 L 156 340 L 156 56 Z" unicode="B" />
<glyph horiz-adv-x="673" d="M 368 -10 C 324 -10 283 -1 244 15 C 205 31 171 56 142 88 C 112 120 89 159 72 206 C 54 252 46 305 46 365 C 46 421 53 472 69 518 C 85 564 107 604 135 637 C 163 669 197 695 237 713 C 277 731 320 740 368 740 C 430 740 481 728 523 706 C 564 683 597 652 622 612 L 566 576 C 545 605 519 629 488 649 C 457 668 417 678 369 678 C 292 678 231 650 185 595 C 139 539 117 463 117 365 C 117 313 124 267 139 227 C 153 187 172 155 196 129 C 220 103 247 83 278 70 C 309 57 341 51 373 51 C 423 51 466 62 501 85 C 535 107 563 136 584 170 L 638 137 C 613 94 578 59 532 31 C 486 3 432 -10 368 -10 Z" unicode="C" />
<glyph horiz-adv-x="673" d="M 90 0 L 90 730 L 274 730 C 328 730 378 721 422 705 C 466 688 503 664 533 634 C 563 604 587 567 603 523 C 619 479 627 431 627 378 C 627 324 619 274 604 228 C 588 182 565 142 535 108 C 505 74 467 48 421 29 C 375 9 322 0 262 0 L 90 0 Z M 160 57 L 259 57 C 309 57 353 65 391 81 C 428 97 459 119 483 147 C 507 175 525 209 537 248 C 549 287 555 330 555 376 C 555 468 529 540 479 593 C 428 646 359 673 272 673 L 160 673 L 160 57 Z" unicode="D" />
<glyph horiz-adv-x="513" d="M 467 0 L 90 0 L 90 730 L 449 730 L 449 669 L 159 669 L 159 393 L 438 393 L 438 334 L 159 334 L 159 61 L 467 61 L 467 0 Z" unicode="E" />
<glyph horiz-adv-x="463" d="M 426 669 L 160 669 L 160 399 L 412 399 L 412 340 L 160 340 L 160 0 L 90 0 L 90 730 L 426 730 L 426 669 Z" unicode="F" />
<glyph horiz-adv-x="713" d="M 380 353 L 661 353 L 661 142 C 634 94 595 56 545 30 C 495 3 438 -10 376 -10 C 330 -10 287 -1 247 17 C 207 35 172 60 142 92 C 112 124 89 164 72 210 C 54 256 46 308 46 365 C 46 421 54 473 72 519 C 89 565 112 605 142 638 C 172 670 207 695 248 713 C 288 731 332 740 378 740 C 441 740 492 728 532 706 C 572 684 603 658 625 630 L 577 583 C 556 608 530 630 499 649 C 468 667 428 677 378 677 C 341 677 307 670 275 656 C 243 642 215 622 191 596 C 167 569 149 536 136 498 C 122 459 116 415 116 365 C 116 317 123 273 137 233 C 151 193 169 160 193 133 C 217 105 245 84 277 69 C 309 54 342 47 378 47 C 426 47 469 56 509 76 C 549 96 578 124 597 162 L 597 293 L 380 293 L 380 353 Z" unicode="G" />
<glyph horiz-adv-x="684" d="M 594 0 L 524 0 L 524 331 L 160 331 L 160 0 L 90 0 L 90 730 L 160 730 L 160 391 L 524 391 L 524 730 L 594 730 L 594 0 Z" unicode="H" />
<glyph horiz-adv-x="259" d="M 165 0 L 94 0 L 94 730 L 165 730 L 165 0 Z" unicode="I" />
<glyph horiz-adv-x="376" d="M 290 730 L 290 187 C 290 160 285 135 277 111 C 269 87 257 66 241 48 C 225 30 206 15 182 5 C 158 -5 130 -11 100 -11 C 85 -11 69 -9 51 -7 C 33 -4 19 0 9 6 L 32 63 C 37 59 45 56 57 54 C 68 52 80 51 92 51 C 132 51 164 64 186 91 C 208 118 220 150 220 188 L 220 730 L 290 730 Z" unicode="J" />
<glyph horiz-adv-x="596" d="M 583 0 L 500 0 L 257 354 L 160 231 L 160 0 L 90 0 L 90 730 L 160 730 L 160 317 L 472 730 L 548 730 L 304 409 L 583 0 Z" unicode="K" />
<glyph horiz-adv-x="461" d="M 452 0 L 90 0 L 90 730 L 160 730 L 160 61 L 452 61 L 452 0 Z" unicode="L" />
<glyph horiz-adv-x="814" d="M 724 0 L 658 0 L 658 592 L 424 202 L 393 202 L 155 592 L 155 0 L 90 0 L 90 730 L 145 730 L 410 289 L 669 730 L 724 730 L 724 0 Z" unicode="M" />
<glyph horiz-adv-x="706" d="M 616 0 L 565 0 L 156 594 L 156 0 L 90 0 L 90 730 L 143 730 L 552 135 L 552 730 L 616 730 L 616 0 Z" unicode="N" />
<glyph horiz-adv-x="757" d="M 381 -10 C 332 -10 287 0 246 17 C 205 35 170 61 140 94 C 110 127 87 167 71 214 C 54 261 46 313 46 370 C 46 424 54 474 71 520 C 87 566 110 605 139 637 C 168 669 203 695 243 713 C 283 731 327 740 375 740 C 425 740 470 731 512 713 C 553 695 588 669 618 637 C 647 604 670 565 686 519 C 702 473 711 422 711 366 C 711 310 702 258 685 212 C 667 166 644 126 615 93 C 585 60 550 35 510 17 C 470 -1 427 -10 381 -10 Z M 384 48 C 420 48 453 55 485 70 C 516 84 543 105 566 133 C 589 160 607 193 620 233 C 633 273 640 318 640 368 C 640 414 633 457 620 496 C 606 534 588 567 564 594 C 540 621 512 642 479 657 C 446 672 410 680 372 680 C 334 680 300 672 269 658 C 237 644 210 623 188 597 C 166 570 148 537 136 499 C 123 460 117 416 117 368 C 117 318 124 273 138 233 C 152 193 171 159 195 132 C 219 104 247 83 280 69 C 312 55 347 48 384 48 Z" unicode="O" />
<glyph horiz-adv-x="539" d="M 90 0 L 90 730 L 298 730 C 328 730 356 725 382 716 C 408 707 430 694 449 677 C 468 659 483 638 494 613 C 505 587 511 558 511 526 C 511 462 491 410 453 370 C 414 330 364 310 304 310 L 160 310 L 160 0 L 90 0 Z M 159 367 L 290 367 C 338 367 375 381 401 410 C 427 439 440 478 440 527 C 440 575 424 611 394 636 C 364 660 327 673 283 673 L 159 673 L 159 367 Z" unicode="P" />
<glyph horiz-adv-x="757" d="M 639 -105 L 639 -168 C 587 -165 537 -150 491 -122 C 444 -94 407 -57 380 -9 C 330 -9 285 0 244 18 C 203 36 168 61 139 94 C 109 127 86 167 70 214 C 54 260 46 312 46 370 C 46 424 54 473 70 519 C 86 565 109 604 138 636 C 167 668 202 694 243 712 C 283 730 327 740 375 740 C 425 740 470 731 512 713 C 553 695 588 670 618 638 C 647 606 670 566 686 520 C 702 474 711 422 711 366 C 711 318 704 274 692 233 C 679 191 661 155 639 124 C 616 92 589 66 557 44 C 525 22 491 7 454 -1 C 477 -34 505 -59 539 -76 C 573 -93 606 -103 639 -105 Z M 117 369 C 117 321 123 279 135 241 C 147 203 164 170 186 143 C 207 116 232 95 261 79 C 290 63 321 53 354 50 C 348 66 343 84 340 104 C 337 123 336 143 336 164 L 404 164 C 404 142 406 122 410 104 C 413 85 418 68 425 52 C 487 62 538 95 579 150 C 619 205 640 277 640 367 C 640 415 633 459 619 498 C 605 536 586 569 562 596 C 538 623 509 644 477 658 C 444 672 409 680 372 680 C 334 680 300 673 268 659 C 236 645 209 624 187 598 C 165 571 147 538 135 500 C 123 461 117 417 117 369 Z" unicode="Q" />
<glyph horiz-adv-x="545" d="M 90 0 L 90 730 L 267 730 C 325 730 373 713 410 679 C 447 645 466 598 466 538 C 466 508 461 481 452 457 C 443 433 431 412 416 396 C 401 379 384 366 364 356 C 344 346 323 341 301 339 L 297 336 L 517 0 L 437 0 L 231 322 L 158 322 L 158 0 L 90 0 Z M 157 379 L 248 379 C 291 379 327 392 355 418 C 383 444 397 482 397 530 C 397 574 384 609 358 635 C 332 661 298 674 256 674 L 157 674 L 157 379 Z" unicode="R" />
<glyph horiz-adv-x="521" d="M 264 -10 C 215 -10 172 -2 135 13 C 97 28 66 50 42 79 L 88 130 C 108 102 134 81 166 67 C 198 53 231 46 264 46 C 301 46 333 57 361 80 C 388 103 402 133 402 171 C 402 207 391 237 369 262 C 347 287 308 314 251 342 C 215 358 186 373 162 388 C 138 403 118 419 104 436 C 89 453 78 472 72 493 C 65 514 62 538 62 566 C 62 618 80 660 116 692 C 152 724 198 740 255 740 C 299 740 336 732 367 718 C 398 703 424 685 445 665 L 404 613 C 383 632 359 648 333 660 C 307 672 279 678 251 678 C 215 678 185 667 162 647 C 139 626 128 599 128 565 C 128 527 139 497 163 475 C 187 452 229 426 289 398 C 358 365 405 332 430 299 C 455 266 468 226 468 178 C 468 148 462 122 451 99 C 440 75 425 56 407 40 C 389 24 367 11 342 3 C 317 -5 291 -10 264 -10 Z" unicode="S" />
<glyph horiz-adv-x="475" d="M 466 669 L 270 669 L 270 0 L 200 0 L 200 669 L 9 669 L 9 730 L 466 730 L 466 669 Z" unicode="T" />
<glyph horiz-adv-x="680" d="M 594 730 L 594 248 C 594 206 587 168 573 136 C 559 104 541 77 518 55 C 495 33 468 17 437 6 C 406 -4 373 -10 338 -10 C 304 -10 271 -4 241 6 C 210 16 183 32 160 53 C 137 74 119 101 106 134 C 92 166 86 204 86 248 L 86 730 L 154 730 L 154 246 C 154 214 159 187 169 163 C 179 139 192 118 209 102 C 225 86 245 73 267 65 C 289 56 313 52 338 52 C 363 52 387 56 410 64 C 432 72 452 84 469 100 C 485 116 499 136 509 160 C 519 184 524 213 524 246 L 524 730 L 594 730 Z" unicode="U" />
<glyph horiz-adv-x="588" d="M 584 730 L 314 -6 L 265 -6 L 4 730 L 78 730 L 291 110 L 514 730 L 584 730 Z" unicode="V" />
<glyph horiz-adv-x="846" d="M 829 730 L 632 -6 L 587 -6 L 422 605 L 253 -6 L 208 -6 L 13 730 L 84 730 L 238 128 L 401 730 L 448 730 L 611 126 L 765 730 L 829 730 Z" unicode="W" />
<glyph horiz-adv-x="546" d="M 455 0 L 271 318 L 86 0 L 15 0 L 236 379 L 33 730 L 110 730 L 275 445 L 441 730 L 512 730 L 310 384 L 532 0 L 455 0 Z" unicode="X" />
<glyph horiz-adv-x="580" d="M 577 730 L 323 321 L 323 0 L 253 0 L 253 323 L 3 730 L 82 730 L 292 387 L 505 730 L 577 730 Z" unicode="Y" />
<glyph horiz-adv-x="525" d="M 492 730 L 492 698 L 110 60 L 506 60 L 506 0 L 19 0 L 19 31 L 399 669 L 55 669 L 55 730 L 492 730 Z" unicode="Z" />
<glyph horiz-adv-x="288" d="M 249 -179 L 86 -179 L 86 730 L 249 730 L 249 677 L 148 677 L 148 -124 L 249 -124 L 249 -179 Z" unicode="[" />
<glyph horiz-adv-x="303" d="M 7 730 L 65 730 L 297 0 L 237 0 L 7 730 Z" unicode="\" />
<glyph horiz-adv-x="270" d="M 199 -179 L 40 -179 L 40 -126 L 137 -126 L 137 677 L 40 677 L 40 730 L 199 730 L 199 -179 Z" unicode="]" />
<glyph horiz-adv-x="482" d="M 419 369 L 361 369 L 238 660 L 122 369 L 65 369 L 211 730 L 267 730 L 419 369 Z" unicode="^" />
<glyph horiz-adv-x="476" d="M 476 -148 L 0 -148 L 0 -94 L 476 -94 L 476 -148 Z" unicode="_" />
<glyph horiz-adv-x="500" d="M 330 584 L 266 584 L 156 751 L 232 751 L 330 584 Z" unicode="`" />
<glyph horiz-adv-x="504" d="M 438 0 L 377 0 L 377 72 C 359 48 335 28 306 14 C 276 0 242 -7 202 -7 C 154 -7 114 6 84 34 C 54 61 39 99 39 149 C 39 207 58 250 98 279 C 138 307 188 324 249 328 L 375 337 L 375 364 C 375 404 364 434 342 454 C 320 473 290 483 252 483 C 221 483 193 477 167 466 C 141 455 118 443 100 429 L 75 479 C 96 495 122 510 154 522 C 185 534 221 540 262 540 C 315 540 358 526 390 499 C 422 471 438 429 438 371 L 438 0 Z M 376 119 L 376 288 L 249 280 C 208 277 174 266 147 246 C 119 226 106 195 106 153 C 106 117 117 90 140 71 C 162 52 191 43 225 43 C 255 43 284 50 312 64 C 339 78 360 97 376 119 Z" unicode="a" />
<glyph horiz-adv-x="565" d="M 318 -7 C 270 -7 230 6 200 32 C 170 58 149 89 139 126 L 139 0 L 78 0 L 78 800 L 138 800 L 138 390 C 148 430 168 464 199 493 C 229 522 270 537 321 537 C 352 537 380 530 406 518 C 431 505 453 487 471 464 C 489 441 502 413 512 381 C 522 349 527 313 527 275 C 527 232 521 193 510 158 C 499 123 484 93 466 69 C 447 45 425 26 400 13 C 374 0 347 -7 318 -7 Z M 301 48 C 347 48 385 68 415 110 C 444 151 459 204 459 268 C 459 332 445 383 418 422 C 390 461 351 481 300 481 C 278 481 257 476 237 468 C 217 459 200 446 186 428 C 171 410 159 386 151 358 C 142 330 138 296 138 257 C 138 183 154 130 186 97 C 218 64 256 48 301 48 Z" unicode="b" />
<glyph horiz-adv-x="500" d="M 429 141 L 474 105 C 466 92 456 79 445 65 C 433 51 420 39 404 28 C 388 17 370 8 350 1 C 329 -5 305 -9 278 -9 C 242 -9 209 -2 179 11 C 149 25 124 44 103 68 C 82 92 66 120 55 154 C 43 187 38 223 38 263 C 38 300 43 335 55 369 C 67 402 83 431 104 456 C 125 481 150 501 180 516 C 210 530 243 538 279 538 C 305 538 329 534 351 527 C 372 519 391 510 407 499 C 423 487 436 474 447 460 C 457 445 466 431 472 417 L 419 389 C 408 411 391 431 369 451 C 346 470 315 480 277 480 C 251 480 227 474 206 463 C 184 451 166 436 152 416 C 137 396 125 373 117 347 C 109 321 105 293 105 264 C 105 200 121 149 153 109 C 185 69 227 49 281 49 C 302 49 321 52 337 58 C 353 64 366 71 378 80 C 390 89 400 99 408 110 C 416 120 423 131 429 141 Z" unicode="c" />
<glyph horiz-adv-x="571" d="M 253 -9 C 221 -9 191 -2 165 11 C 138 24 115 42 97 66 C 78 90 63 118 53 152 C 43 186 38 223 38 263 C 38 303 43 340 55 374 C 66 408 81 437 101 461 C 121 485 144 503 171 517 C 197 531 226 538 257 538 C 299 538 336 524 368 496 C 400 468 420 436 430 399 L 430 800 L 493 800 L 493 0 L 434 0 L 434 136 C 430 120 423 104 413 87 C 403 70 390 54 375 40 C 360 26 342 14 322 5 C 301 -4 278 -9 253 -9 Z M 267 46 C 315 46 355 66 385 108 C 415 149 431 203 431 269 C 431 304 426 335 417 362 C 408 388 396 410 381 428 C 366 446 349 459 330 468 C 310 477 290 482 270 482 C 220 482 181 462 151 423 C 121 383 106 330 106 264 C 106 200 120 147 149 107 C 177 66 217 46 267 46 Z" unicode="d" />
<glyph horiz-adv-x="538" d="M 278 -9 C 243 -9 211 -2 181 10 C 151 22 126 40 105 64 C 84 87 68 116 56 150 C 44 184 38 222 38 264 C 38 302 44 338 56 372 C 68 405 84 434 105 459 C 126 483 151 503 180 517 C 208 531 239 538 273 538 C 341 538 396 511 438 459 C 480 407 501 336 502 247 L 103 247 C 104 190 120 143 152 105 C 184 67 226 49 280 49 C 321 49 354 56 380 72 C 405 88 426 106 443 127 L 480 85 C 459 59 433 37 402 19 C 370 0 329 -9 278 -9 Z M 102 295 L 436 295 C 435 349 419 394 389 430 C 358 465 319 483 272 483 C 248 483 226 478 206 468 C 186 458 168 445 154 428 C 139 411 127 391 118 368 C 109 345 104 321 102 295 Z" unicode="e" />
<glyph horiz-adv-x="292" d="M 282 473 L 170 473 L 170 0 L 104 0 L 104 473 L 16 473 L 16 529 L 104 529 L 104 663 C 104 685 107 704 115 722 C 122 739 131 754 143 766 C 155 778 168 787 183 793 C 198 799 214 803 230 803 C 244 803 259 801 273 797 C 287 793 298 789 307 784 L 289 731 C 284 733 277 736 267 738 C 257 740 248 742 239 742 C 220 742 204 733 190 717 C 176 701 169 679 169 651 L 169 529 L 282 529 L 282 473 Z" unicode="f" />
<glyph horiz-adv-x="565" d="M 254 2 C 222 2 192 8 166 21 C 140 34 117 52 98 75 C 79 98 64 126 54 158 C 44 190 39 226 39 266 C 39 306 44 342 55 376 C 65 410 80 438 99 462 C 118 486 141 504 167 517 C 193 530 222 537 254 537 C 298 537 336 523 368 497 C 400 471 421 439 433 401 L 433 529 L 492 529 L 492 53 C 492 9 484 -29 469 -61 C 454 -93 435 -119 411 -139 C 387 -159 361 -175 331 -185 C 301 -195 271 -200 242 -200 C 198 -200 165 -196 141 -189 C 117 -182 98 -175 86 -168 L 114 -114 C 124 -120 140 -127 160 -134 C 180 -140 206 -144 237 -144 C 262 -144 286 -139 310 -131 C 333 -123 353 -110 371 -94 C 389 -78 403 -57 414 -32 C 424 -6 430 22 430 56 L 430 151 C 425 133 417 115 407 97 C 396 79 383 63 369 49 C 354 35 337 23 317 15 C 297 6 276 2 254 2 Z M 271 56 C 290 56 309 60 328 69 C 347 77 364 91 379 109 C 394 127 406 149 416 177 C 425 205 430 237 430 275 C 430 307 425 336 417 362 C 408 388 396 409 381 426 C 366 443 349 456 330 465 C 310 474 290 479 270 479 C 222 479 182 459 152 420 C 121 381 106 329 106 264 C 106 200 120 149 149 112 C 178 74 219 56 271 56 Z" unicode="g" />
<glyph horiz-adv-x="549" d="M 476 0 L 412 0 L 412 375 C 412 409 400 436 376 454 C 352 472 323 482 290 482 C 272 482 255 479 237 474 C 219 468 204 460 190 449 C 176 438 164 424 156 407 C 147 389 143 369 143 346 L 143 0 L 78 0 L 78 800 L 138 800 L 138 428 C 146 460 166 486 198 507 C 229 527 267 538 311 538 C 333 538 354 535 374 529 C 394 523 411 514 426 502 C 441 490 453 474 462 456 C 471 438 476 416 476 392 L 476 0 Z" unicode="h" />
<glyph horiz-adv-x="225" d="M 77 649 L 77 724 L 148 724 L 148 649 L 77 649 Z M 80 0 L 80 529 L 145 529 L 145 0 L 80 0 Z" unicode="i" />
<glyph horiz-adv-x="244" d="M 172 649 L 102 649 L 102 724 L 172 724 L 172 649 Z M 170 529 L 170 -45 C 170 -91 157 -125 133 -149 C 109 -173 81 -185 49 -185 C 33 -185 17 -183 2 -179 C -12 -175 -24 -170 -33 -164 L -12 -115 C -5 -118 2 -121 11 -124 C 20 -126 30 -128 42 -128 C 58 -128 72 -120 85 -105 C 98 -89 105 -68 105 -42 L 105 529 L 170 529 Z" unicode="j" />
<glyph horiz-adv-x="487" d="M 499 1 L 426 0 L 242 261 L 143 145 L 143 0 L 78 0 L 78 800 L 142 800 L 142 219 L 388 529 L 458 529 L 286 310 L 499 1 Z" unicode="k" />
<glyph horiz-adv-x="248" d="M 74 99 L 74 800 L 139 800 L 139 116 C 139 95 144 79 154 69 C 164 58 178 53 196 53 C 202 53 209 53 217 54 C 224 55 230 57 235 59 L 240 3 C 234 1 225 -1 214 -3 C 203 -5 192 -6 181 -6 C 152 -6 127 2 106 20 C 84 37 74 63 74 99 Z" unicode="l" />
<glyph horiz-adv-x="872" d="M 78 0 L 78 529 L 135 529 L 135 421 C 145 457 166 485 200 506 C 233 527 269 538 309 538 C 351 538 386 527 415 506 C 444 485 460 457 463 421 L 467 421 C 474 455 494 483 526 505 C 558 527 595 538 635 538 C 681 538 719 526 751 502 C 783 478 799 441 799 393 L 799 0 L 735 0 L 735 371 C 735 409 723 437 699 455 C 675 473 646 482 612 482 C 596 482 579 479 562 474 C 545 468 530 460 517 449 C 503 437 492 423 484 406 C 475 388 471 368 471 345 L 471 0 L 407 0 L 407 377 C 407 411 395 437 371 455 C 347 473 318 482 284 482 C 267 482 250 479 234 474 C 217 468 202 460 189 449 C 175 437 164 423 156 405 C 147 387 143 366 143 342 L 143 0 L 78 0 Z" unicode="m" />
<glyph horiz-adv-x="549" d="M 476 0 L 411 0 L 411 379 C 411 411 399 437 375 455 C 351 473 323 482 292 482 C 275 482 258 479 240 474 C 222 469 206 461 192 450 C 178 439 166 425 157 408 C 147 390 143 370 143 346 L 143 0 L 78 0 L 78 529 L 134 529 L 134 422 C 145 456 167 484 199 506 C 231 527 269 538 313 538 C 334 538 355 534 375 528 C 395 522 412 513 427 501 C 441 489 453 475 462 458 C 471 440 476 421 476 400 L 476 0 Z" unicode="n" />
<glyph horiz-adv-x="553" d="M 274 -9 C 242 -9 212 -2 184 9 C 155 21 130 39 108 62 C 86 85 69 114 57 148 C 44 182 38 220 38 262 C 38 301 44 337 56 371 C 68 405 85 434 106 459 C 127 483 152 503 181 517 C 210 531 241 538 275 538 C 309 538 340 531 370 519 C 400 506 425 488 447 466 C 468 443 485 415 497 383 C 509 351 515 315 515 276 C 515 234 509 196 497 161 C 485 126 468 96 447 71 C 425 46 400 26 370 12 C 340 -1 308 -9 274 -9 Z M 278 49 C 328 49 369 69 401 110 C 432 151 448 204 448 269 C 448 331 432 381 400 421 C 368 460 325 480 273 480 C 223 480 183 459 152 419 C 121 379 106 327 106 264 C 106 195 122 142 156 105 C 189 67 230 49 278 49 Z" unicode="o" />
<glyph horiz-adv-x="565" d="M 78 -195 L 78 529 L 136 529 L 136 386 C 144 427 165 462 197 492 C 229 522 270 537 320 537 C 352 537 381 530 407 518 C 433 505 454 487 472 464 C 490 441 503 413 513 381 C 522 349 527 313 527 275 C 527 189 507 121 467 70 C 427 19 378 -6 318 -6 C 271 -6 232 6 202 31 C 171 55 151 86 142 122 L 142 -195 L 78 -195 Z M 301 48 C 347 48 385 68 415 108 C 445 148 460 201 460 267 C 460 297 456 326 450 352 C 443 378 433 401 420 420 C 406 439 390 454 370 465 C 350 475 328 481 302 481 C 257 481 218 463 186 429 C 154 394 138 337 138 259 C 138 183 154 129 186 97 C 218 64 256 48 301 48 Z" unicode="p" />
<glyph horiz-adv-x="570" d="M 428 -195 L 428 137 C 423 120 416 103 406 86 C 396 69 383 54 368 40 C 353 26 335 14 315 5 C 295 -3 272 -8 248 -8 C 216 -8 188 -1 162 11 C 136 24 113 42 95 66 C 77 89 63 117 53 149 C 43 181 38 217 38 255 C 38 298 43 337 55 373 C 66 408 81 438 101 462 C 120 486 143 505 170 518 C 197 531 226 538 257 538 C 280 538 301 533 321 525 C 341 517 358 506 374 492 C 389 478 402 463 412 446 C 422 428 430 410 434 392 L 434 529 L 492 529 L 492 -195 L 428 -195 Z M 268 46 C 313 46 351 65 383 105 C 415 144 431 199 431 269 C 431 303 426 334 418 361 C 409 387 397 409 382 427 C 367 445 350 458 330 468 C 310 477 290 482 268 482 C 219 482 180 462 150 423 C 120 383 106 330 106 263 C 106 200 120 148 149 107 C 178 66 218 46 268 46 Z" unicode="q" />
<glyph horiz-adv-x="397" d="M 399 510 L 368 452 C 359 460 348 467 334 472 C 320 477 303 480 285 480 C 268 480 251 476 234 469 C 217 462 202 452 188 439 C 174 426 163 410 155 391 C 147 371 143 350 143 326 L 143 0 L 78 0 L 78 529 L 138 529 L 138 409 C 146 443 165 473 195 499 C 225 525 262 538 304 538 C 326 538 345 535 361 529 C 377 523 390 517 399 510 Z" unicode="r" />
<glyph horiz-adv-x="418" d="M 222 -9 C 180 -9 143 -2 112 10 C 80 23 54 40 34 61 L 66 106 C 84 88 106 73 132 62 C 158 50 187 45 217 45 C 244 45 268 53 289 70 C 309 87 320 109 320 136 C 320 160 311 180 293 198 C 275 215 242 233 194 252 C 140 272 103 294 83 319 C 63 343 53 373 53 408 C 53 446 68 477 99 501 C 129 525 167 538 211 538 C 251 538 284 532 310 521 C 336 509 356 498 371 486 L 345 435 C 329 447 311 458 289 468 C 267 478 243 484 216 484 C 189 484 165 477 145 463 C 125 449 115 430 115 408 C 115 385 122 366 137 352 C 151 338 184 321 234 302 C 288 280 327 257 349 232 C 371 206 383 174 383 136 C 383 113 378 93 369 75 C 360 57 348 41 334 29 C 319 17 302 7 282 1 C 262 -5 242 -9 222 -9 Z" unicode="s" />
<glyph horiz-adv-x="301" d="M 273 70 L 285 17 C 277 11 265 5 250 1 C 235 -2 219 -5 202 -5 C 171 -5 144 5 122 25 C 100 45 89 77 89 121 L 89 474 L 15 474 L 15 529 L 90 529 L 90 658 L 153 667 L 153 529 L 273 529 L 273 474 L 154 474 L 154 124 C 154 102 159 84 169 72 C 179 60 194 54 213 54 C 225 54 237 55 248 59 C 258 63 267 66 273 70 Z" unicode="t" />
<glyph horiz-adv-x="549" d="M 72 529 L 137 529 L 137 177 C 137 129 149 95 175 75 C 200 55 231 46 269 46 C 305 46 336 58 364 82 C 392 106 406 140 406 186 L 406 529 L 471 529 L 471 0 L 412 0 L 412 106 C 404 76 385 50 356 26 C 326 2 289 -9 243 -9 C 220 -9 198 -5 177 0 C 156 6 138 16 123 29 C 107 42 95 59 86 79 C 76 99 72 124 72 153 L 72 529 Z" unicode="u" />
<glyph horiz-adv-x="450" d="M 452 529 L 247 -2 L 201 -2 L -3 529 L 67 529 L 226 103 L 387 529 L 452 529 Z" unicode="v" />
<glyph horiz-adv-x="675" d="M 462 -2 L 342 351 L 212 -2 L 169 -2 L 6 529 L 71 529 L 199 99 L 322 447 L 367 447 L 481 101 L 609 529 L 669 529 L 505 -2 L 462 -2 Z" unicode="w" />
<glyph horiz-adv-x="414" d="M 343 0 L 206 224 L 66 0 L 4 0 L 175 274 L 19 529 L 87 529 L 209 329 L 334 529 L 397 529 L 240 279 L 411 0 L 343 0 Z" unicode="x" />
<glyph horiz-adv-x="455" d="M 457 529 L 212 -90 C 194 -131 173 -160 148 -176 C 122 -192 98 -200 74 -200 C 57 -200 43 -198 33 -195 C 22 -191 14 -188 10 -186 L 32 -131 C 35 -133 41 -135 49 -137 C 57 -139 65 -141 74 -141 C 89 -141 104 -135 119 -123 C 133 -111 147 -91 159 -63 L 194 29 L -2 529 L 67 529 L 228 107 L 392 529 L 457 529 Z" unicode="y" />
<glyph horiz-adv-x="411" d="M 382 529 L 382 499 L 106 57 L 401 57 L 401 0 L 18 0 L 18 29 L 294 472 L 32 472 L 32 529 L 382 529 Z" unicode="z" />
<glyph horiz-adv-x="279" d="M 261 -179 C 207 -174 163 -156 127 -126 C 91 -95 72 -58 70 -14 C 69 6 71 26 75 44 C 79 62 83 79 88 94 C 93 108 98 122 103 136 C 107 149 109 162 109 175 C 108 197 99 216 83 234 C 67 252 45 261 17 261 L 17 310 C 45 310 68 319 85 337 C 102 355 111 377 112 402 C 112 408 109 419 105 433 C 100 447 94 462 88 478 C 82 494 77 511 74 527 C 70 543 69 559 70 575 C 71 619 89 657 124 691 C 159 725 205 744 261 749 L 261 700 C 225 695 195 681 173 657 C 150 633 138 604 136 572 C 136 562 137 550 139 537 C 141 524 144 511 149 499 C 155 481 162 465 168 449 C 174 433 176 419 176 407 C 175 377 167 350 151 328 C 135 305 110 291 78 285 C 110 279 134 265 150 243 C 165 220 173 196 175 170 C 175 152 173 136 168 122 C 163 108 158 94 153 80 C 147 67 142 53 139 39 C 136 24 135 10 136 -2 C 138 -30 151 -58 174 -84 C 197 -110 226 -126 261 -131 L 261 -179 Z" unicode="{" />
<glyph horiz-adv-x="243" d="M 152 -179 L 91 -179 L 91 730 L 152 730 L 152 -179 Z" unicode="|" />
<glyph horiz-adv-x="279" d="M 18 -179 L 18 -131 C 52 -126 81 -110 104 -84 C 127 -58 140 -30 142 -2 C 142 10 141 24 139 38 C 136 52 132 66 126 80 C 120 94 115 108 110 122 C 105 136 103 152 104 170 C 105 196 113 221 129 243 C 144 265 168 279 200 285 C 167 291 143 305 127 328 C 111 350 103 377 103 407 C 102 419 104 433 110 449 C 116 465 122 481 129 499 C 134 511 138 524 140 537 C 142 549 142 561 142 572 C 140 604 128 633 106 657 C 83 681 54 695 18 700 L 18 749 C 74 744 119 725 154 691 C 189 657 207 619 209 575 C 209 559 208 543 205 527 C 201 511 196 494 190 478 C 184 462 178 447 174 433 C 169 419 167 408 167 402 C 167 377 176 355 193 337 C 210 319 233 310 262 310 L 262 261 C 234 261 211 252 195 234 C 179 216 170 196 169 175 C 169 162 171 149 176 136 C 180 122 185 108 190 94 C 195 79 200 62 204 44 C 208 26 209 6 209 -14 C 206 -58 187 -95 151 -126 C 115 -156 70 -174 18 -179 Z" unicode="}" />
<glyph horiz-adv-x="481" d="M 388 434 L 444 434 C 443 380 435 339 420 313 C 404 287 380 274 346 274 C 323 274 303 279 286 290 C 269 300 254 312 241 325 C 227 338 213 350 199 360 C 185 370 170 376 156 376 C 140 376 126 367 113 351 C 99 334 93 309 93 277 L 38 277 C 38 329 47 369 67 396 C 86 423 110 437 139 437 C 163 437 185 431 203 420 C 221 409 238 396 254 382 C 266 370 279 360 293 350 C 306 340 321 335 338 335 C 357 335 370 342 377 358 C 384 373 388 398 388 434 Z" unicode="~" />
<glyph horiz-adv-x="277" d="M 103 617 L 174 617 L 174 539 L 103 539 L 103 617 Z M 101 186 L 123 429 L 156 429 L 176 186 L 176 -109 L 101 -109 L 101 186 Z" unicode="¡" />
<glyph horiz-adv-x="491" d="M 471 210 C 463 199 454 188 444 176 C 434 164 422 153 408 143 C 394 133 377 124 358 117 C 339 109 317 105 293 104 L 293 1 L 247 1 L 247 104 C 215 107 187 116 161 130 C 135 144 114 162 96 184 C 78 206 64 231 54 260 C 44 289 40 320 40 354 C 40 386 45 417 55 447 C 65 476 79 502 97 525 C 115 548 136 567 162 582 C 187 596 215 606 247 610 L 247 709 L 293 709 L 293 612 C 339 609 376 596 406 574 C 436 551 458 527 472 502 L 428 470 C 415 490 398 509 376 526 C 354 543 326 553 293 555 L 293 158 C 332 160 362 171 383 190 C 404 209 420 228 432 246 L 471 210 Z M 105 358 C 105 307 117 263 143 227 C 169 191 203 169 247 161 L 247 553 C 203 545 169 522 143 486 C 117 449 105 406 105 358 Z" unicode="¢" />
<glyph horiz-adv-x="555" d="M 542 51 L 542 0 L 31 0 L 31 40 C 37 42 45 45 56 47 C 66 49 80 51 97 55 C 109 57 122 61 136 67 C 150 73 162 80 174 90 C 185 100 194 112 202 126 C 210 140 214 156 214 176 C 214 183 213 191 211 199 C 209 207 206 215 203 224 L 41 224 L 41 272 L 179 272 C 171 286 162 300 153 316 C 144 332 135 348 127 365 L 41 365 L 41 412 L 106 412 C 98 431 91 451 86 473 C 81 495 79 518 79 542 C 79 580 85 612 98 638 C 111 664 128 684 150 700 C 172 715 197 726 225 732 C 253 738 282 742 312 742 C 336 742 360 739 383 734 C 406 728 427 722 447 714 C 467 706 484 697 500 687 C 515 677 527 668 537 660 L 505 613 C 488 626 463 641 429 658 C 395 674 357 683 316 683 C 294 683 274 680 254 676 C 234 671 216 663 200 651 C 184 639 172 624 163 604 C 153 584 149 559 149 530 C 149 509 151 489 157 469 C 162 449 169 430 178 412 L 465 412 L 465 365 L 201 365 C 209 349 218 333 227 317 C 235 301 243 286 250 272 L 465 272 L 465 224 L 268 224 C 269 218 270 212 271 206 C 272 200 273 194 273 189 C 273 166 268 146 260 130 C 251 113 241 99 229 89 C 217 78 204 70 191 64 C 178 58 167 53 158 51 L 542 51 Z" unicode="£" />
<glyph horiz-adv-x="502" d="M 440 181 L 409 150 L 345 216 C 331 207 316 200 300 196 C 284 191 267 189 250 189 C 232 189 214 191 198 196 C 182 201 167 208 154 217 L 89 150 L 57 182 L 119 246 C 105 260 95 277 87 295 C 79 313 76 333 76 354 C 76 374 79 394 87 413 C 95 431 105 448 119 463 L 57 527 L 88 557 L 153 491 C 166 499 181 506 198 511 C 214 516 232 519 250 519 C 268 519 285 516 302 511 C 318 505 334 498 348 490 L 415 558 L 445 526 L 382 461 C 394 446 404 430 412 412 C 419 394 423 374 423 354 C 423 333 419 313 411 294 C 403 275 392 258 379 244 L 440 181 Z M 250 237 C 284 237 313 248 338 272 C 362 295 375 322 375 354 C 375 385 362 412 338 436 C 313 459 284 471 250 471 C 215 471 185 459 161 436 C 137 412 125 385 125 354 C 125 322 137 295 161 272 C 185 248 215 237 250 237 Z" unicode="¤" />
<glyph horiz-adv-x="569" d="M 501 163 L 318 163 L 318 0 L 248 0 L 248 163 L 66 163 L 66 211 L 248 211 L 248 280 L 66 280 L 66 327 L 248 327 L 248 337 L 29 730 L 104 730 L 286 398 L 469 730 L 540 730 L 318 335 L 318 327 L 501 327 L 501 280 L 318 280 L 318 211 L 501 211 L 501 163 Z" unicode="¥" />
<glyph horiz-adv-x="258" d="M 101 351 L 101 730 L 158 730 L 158 351 L 101 351 Z M 158 200 L 158 -179 L 101 -179 L 101 200 L 158 200 Z" unicode="¦" />
<glyph horiz-adv-x="622" d="M 329 -180 C 276 -180 226 -173 179 -159 C 131 -145 92 -127 60 -105 L 88 -50 C 117 -71 153 -89 197 -103 C 240 -117 282 -125 324 -125 C 364 -125 397 -115 424 -96 C 451 -76 465 -49 465 -15 C 465 17 455 41 435 58 C 415 74 389 89 358 102 L 218 164 C 190 176 166 187 145 198 C 124 208 107 220 93 232 C 79 244 68 259 61 275 C 53 291 50 311 50 334 C 50 365 58 390 74 410 C 90 429 108 445 129 458 C 110 468 96 483 87 503 C 77 523 73 548 73 578 C 73 604 78 627 90 648 C 102 668 118 685 138 699 C 158 713 181 723 209 731 C 237 738 266 742 298 742 C 356 742 403 733 440 717 C 476 700 508 681 536 661 L 505 610 C 475 630 445 649 413 665 C 381 681 342 690 296 690 C 254 690 217 679 187 659 C 156 639 141 612 141 578 C 141 554 147 535 160 519 C 173 503 193 490 220 480 L 405 401 C 457 380 498 358 526 335 C 554 311 568 279 568 238 C 568 220 564 204 558 190 C 551 176 542 164 532 154 C 521 144 509 136 496 130 C 482 124 469 120 456 118 C 462 114 470 108 479 101 C 488 94 497 85 505 74 C 513 63 521 50 527 36 C 533 21 536 4 536 -14 C 536 -40 530 -63 520 -84 C 509 -104 494 -122 476 -136 C 457 -150 435 -161 410 -169 C 384 -176 357 -180 329 -180 Z M 406 151 C 428 152 449 159 469 172 C 488 185 498 205 498 233 C 498 257 487 279 466 298 C 445 316 412 334 367 352 L 184 430 C 165 420 149 408 137 395 C 124 382 118 363 118 339 C 118 310 128 287 150 269 C 172 251 206 234 252 217 L 406 151 Z" unicode="§" />
<glyph horiz-adv-x="500" d="M 360 585 L 305 585 L 305 741 L 360 741 L 360 585 Z M 195 585 L 140 585 L 140 741 L 195 741 L 195 585 Z" unicode="¨" />
<glyph horiz-adv-x="838" d="M 419 5 C 368 5 320 14 275 34 C 230 53 191 79 158 113 C 124 146 98 185 79 230 C 59 274 50 322 50 373 C 50 423 59 471 79 516 C 98 561 124 600 158 634 C 191 667 230 693 275 713 C 320 732 368 742 419 742 C 469 742 517 732 562 713 C 607 693 646 667 680 634 C 713 600 739 561 759 516 C 778 471 788 423 788 373 C 788 322 778 274 759 230 C 739 185 713 146 680 113 C 646 79 607 53 562 34 C 517 14 469 5 419 5 Z M 419 47 C 463 47 505 55 545 72 C 584 89 618 112 648 142 C 677 172 700 206 717 246 C 734 286 743 328 743 373 C 743 417 734 459 717 499 C 700 539 677 573 648 603 C 618 632 584 655 545 673 C 505 690 463 699 419 699 C 374 699 332 690 293 673 C 253 655 219 632 190 603 C 160 573 137 539 120 499 C 103 459 95 417 95 373 C 95 328 103 286 120 246 C 137 206 160 172 190 142 C 219 112 253 89 293 72 C 332 55 374 47 419 47 Z M 587 238 C 571 214 549 193 521 177 C 493 161 459 153 420 153 C 394 153 370 157 346 167 C 322 177 300 191 282 210 C 263 228 248 251 237 279 C 225 306 220 337 220 372 C 220 405 225 436 235 464 C 245 492 258 515 276 535 C 293 555 313 570 337 581 C 361 592 386 598 414 598 C 456 598 491 590 517 576 C 543 562 565 543 581 521 L 536 488 C 524 504 508 517 490 528 C 471 538 446 544 416 544 C 376 544 342 527 316 494 C 290 460 277 419 277 371 C 277 344 281 320 289 300 C 297 279 308 261 322 247 C 335 233 350 222 368 215 C 385 207 403 204 421 204 C 447 204 471 210 492 222 C 513 234 530 249 543 268 L 587 238 Z" unicode="©" />
<glyph horiz-adv-x="469" d="M 414 294 L 359 294 L 359 359 C 342 336 319 318 289 306 C 259 293 228 287 194 287 C 148 287 111 299 83 323 C 55 347 42 380 42 422 C 42 469 59 505 95 529 C 131 553 177 567 235 570 L 359 579 L 359 589 C 359 622 348 647 327 664 C 306 680 278 689 242 689 C 213 689 186 684 161 674 C 136 664 114 653 96 641 L 74 687 C 94 701 119 714 149 725 C 178 736 212 742 250 742 C 298 742 338 730 368 706 C 398 682 414 643 414 589 L 414 294 Z M 358 404 L 358 532 L 230 524 C 192 521 161 512 137 498 C 112 483 100 459 100 426 C 100 398 110 376 131 361 C 152 345 179 338 212 338 C 240 338 268 343 295 355 C 322 367 343 383 358 404 Z M 424 177 L 48 177 L 48 232 L 424 232 L 424 177 Z" unicode="ª" />
<glyph horiz-adv-x="422" d="M 197 112 L 29 283 L 29 322 L 197 491 L 197 424 L 86 302 L 197 184 L 197 112 Z M 391 112 L 223 283 L 223 322 L 391 491 L 391 424 L 280 302 L 391 184 L 391 112 Z" unicode="«" />
<glyph horiz-adv-x="494" d="M 446 370 L 446 137 L 391 137 L 391 314 L 32 314 L 32 370 L 446 370 Z" unicode="¬" />
<glyph horiz-adv-x="837" d="M 419 5 C 368 5 320 14 275 34 C 230 53 191 79 158 113 C 124 146 98 185 79 230 C 59 274 50 322 50 373 C 50 423 59 471 79 516 C 98 561 124 600 158 634 C 191 667 230 693 275 713 C 320 732 368 742 419 742 C 469 742 517 732 562 713 C 606 693 645 667 679 634 C 712 600 738 561 758 516 C 777 471 787 423 787 373 C 787 322 777 274 758 230 C 738 185 712 146 679 113 C 645 79 606 53 562 34 C 517 14 469 5 419 5 Z M 419 47 C 463 47 504 55 544 72 C 584 89 618 112 648 142 C 677 171 700 205 717 245 C 734 285 743 327 743 373 C 743 418 734 460 717 500 C 700 540 677 574 648 604 C 618 633 584 656 544 673 C 504 690 463 699 419 699 C 374 699 332 690 292 673 C 252 656 218 633 189 604 C 159 574 136 540 119 500 C 102 460 94 418 94 373 C 94 327 102 285 119 245 C 136 205 159 171 189 142 C 218 112 252 89 292 72 C 332 55 374 47 419 47 Z M 285 166 L 285 599 L 435 599 C 453 599 470 596 487 592 C 503 587 518 580 531 571 C 544 561 554 549 562 534 C 570 519 574 501 574 481 C 574 443 563 414 542 394 C 521 374 498 362 472 359 L 472 355 L 611 166 L 552 166 L 421 348 L 335 348 L 335 166 L 285 166 Z M 335 391 L 442 391 C 463 391 482 398 499 413 C 516 427 525 448 526 476 C 526 502 516 522 498 535 C 479 547 456 554 430 554 L 335 554 L 335 391 Z" unicode="®" />
<glyph horiz-adv-x="500" d="M 371 608 L 129 608 L 129 663 L 371 663 L 371 608 Z" unicode="¯" />
<glyph horiz-adv-x="423" d="M 212 379 C 186 379 163 383 141 393 C 119 403 99 416 83 432 C 67 448 54 468 44 490 C 34 512 30 535 30 561 C 30 585 34 609 44 631 C 54 653 67 673 83 689 C 99 705 119 717 141 727 C 163 737 186 742 212 742 C 236 742 260 737 282 727 C 304 717 324 705 340 689 C 356 673 368 653 378 631 C 388 609 393 585 393 561 C 393 535 388 512 378 490 C 368 468 356 448 340 432 C 324 416 304 403 282 393 C 260 383 236 379 212 379 Z M 212 432 C 247 432 277 444 303 470 C 329 495 342 525 342 561 C 342 595 329 625 303 651 C 277 677 247 690 212 690 C 176 690 146 677 120 651 C 94 625 82 595 82 561 C 82 525 94 495 120 470 C 146 444 176 432 212 432 Z" unicode="°" />
<glyph horiz-adv-x="494" d="M 466 305 L 274 305 L 274 116 L 220 116 L 220 305 L 28 305 L 28 356 L 220 356 L 220 546 L 274 546 L 274 356 L 466 356 L 466 305 Z M 459 30 L 36 30 L 36 81 L 459 81 L 459 30 Z" unicode="±" />
<glyph horiz-adv-x="329" d="M 302 372 L 25 372 L 25 393 L 195 547 C 203 555 212 565 221 578 C 229 590 234 605 234 623 C 234 641 227 657 213 671 C 199 685 179 692 153 692 C 123 692 102 683 89 666 C 76 649 69 629 69 607 L 18 607 C 18 641 30 672 54 700 C 78 727 113 741 159 741 C 203 741 236 730 258 709 C 280 688 292 663 292 634 C 292 607 286 585 276 567 C 265 549 254 535 242 525 L 120 420 L 302 420 L 302 372 Z" unicode="²" />
<glyph horiz-adv-x="346" d="M 222 569 C 252 565 275 554 291 537 C 307 520 315 500 315 477 C 315 464 312 451 307 438 C 302 424 294 412 282 401 C 270 390 254 381 234 374 C 214 367 190 364 161 364 C 121 364 90 368 68 378 C 45 387 27 397 13 407 L 45 440 C 57 432 73 424 92 418 C 111 412 134 409 160 409 C 196 409 222 416 238 431 C 254 445 263 463 263 484 C 263 507 253 523 234 531 C 214 539 193 544 169 544 L 98 544 L 98 586 L 165 586 C 189 586 209 590 224 600 C 238 610 246 624 246 643 C 246 658 239 671 226 681 C 212 691 192 696 164 696 C 139 696 118 691 100 682 C 82 672 68 661 58 649 L 26 679 C 38 695 56 709 78 722 C 100 735 131 742 171 742 C 213 742 245 733 267 716 C 289 698 300 677 300 653 C 300 631 292 612 277 598 C 262 583 244 573 222 569 Z" unicode="³" />
<glyph horiz-adv-x="500" d="M 170 588 L 268 755 L 344 755 L 235 588 L 170 588 Z" unicode="´" />
<glyph horiz-adv-x="610" d="M 83 -153 L 83 529 L 147 529 L 147 160 C 147 143 151 127 159 113 C 167 98 177 86 191 76 C 204 66 219 58 237 52 C 255 46 273 43 293 43 C 311 43 330 46 350 53 C 369 59 387 69 403 82 C 419 94 432 110 442 130 C 452 149 458 171 458 197 L 458 529 L 522 529 L 522 0 L 463 0 L 463 111 C 458 95 449 80 437 66 C 425 52 410 39 394 28 C 377 17 359 8 339 2 C 319 -3 299 -7 280 -8 C 251 -8 223 -1 197 11 C 170 24 152 42 142 65 L 142 -153 L 83 -153 Z" unicode="µ" />
<glyph horiz-adv-x="635" d="M 563 -179 L 516 -179 L 516 678 L 398 678 L 398 -179 L 350 -179 L 350 268 L 258 268 C 228 268 200 274 172 286 C 144 298 120 315 99 336 C 78 356 61 380 49 408 C 36 436 30 465 30 496 C 30 529 36 560 48 589 C 60 617 76 642 98 663 C 119 683 145 700 176 712 C 206 724 240 730 277 730 L 563 730 L 563 -179 Z M 351 323 L 351 676 L 298 676 C 246 676 203 659 169 625 C 135 591 118 548 118 498 C 118 474 122 452 131 431 C 140 409 152 391 168 375 C 183 359 201 346 222 337 C 242 327 264 323 287 323 L 351 323 Z" unicode="¶" />
<glyph horiz-adv-x="235" d="M 151 296 L 85 296 L 85 414 L 151 414 L 151 296 Z" unicode="·" />
<glyph horiz-adv-x="500" d="M 253 -184 C 231 -184 209 -181 187 -175 C 165 -169 147 -161 135 -151 L 147 -122 C 157 -128 169 -134 185 -140 C 201 -146 218 -149 237 -149 C 253 -149 268 -145 280 -137 C 292 -129 299 -118 299 -106 C 299 -91 293 -81 282 -75 C 271 -69 259 -66 247 -66 C 238 -66 230 -66 224 -68 C 217 -69 210 -71 203 -74 L 193 -62 L 248 10 L 286 10 L 239 -52 C 271 -44 299 -46 322 -58 C 345 -69 357 -87 357 -111 C 357 -134 346 -152 326 -165 C 305 -177 281 -184 253 -184 Z" unicode="¸" />
<glyph horiz-adv-x="322" d="M 151 372 L 151 673 C 143 661 130 650 110 640 C 90 630 71 623 55 621 L 53 678 C 77 682 98 689 116 700 C 134 710 151 724 168 741 L 211 741 L 211 372 L 151 372 Z" unicode="¹" />
<glyph horiz-adv-x="480" d="M 236 285 C 209 285 183 290 159 301 C 135 311 113 326 95 346 C 76 365 61 388 50 416 C 38 444 33 475 33 509 C 33 539 38 568 49 596 C 59 624 74 648 93 669 C 111 690 133 707 158 720 C 183 732 210 739 239 739 C 268 739 295 733 321 722 C 346 711 368 696 386 677 C 404 657 419 634 430 607 C 440 580 446 551 446 520 C 446 486 440 455 430 427 C 419 398 404 373 386 352 C 367 331 345 315 319 303 C 293 291 265 285 236 285 Z M 238 337 C 282 337 318 354 346 388 C 374 422 388 465 388 516 C 388 539 384 561 378 582 C 371 603 361 621 349 637 C 336 653 320 665 301 674 C 282 683 261 688 238 688 C 195 688 160 670 133 636 C 105 601 92 559 92 509 C 92 458 105 417 133 385 C 161 353 196 337 238 337 Z M 53 177 L 53 232 L 423 232 L 423 177 L 53 177 Z" unicode="º" />
<glyph horiz-adv-x="426" d="M 31 491 L 200 321 L 200 282 L 31 113 L 31 180 L 142 302 L 31 420 L 31 491 Z M 229 491 L 397 321 L 397 282 L 229 113 L 229 180 L 340 302 L 229 420 L 229 491 Z" unicode="»" />
<glyph horiz-adv-x="685" d="M 7 0 L 7 0 Z M 105 372 L 105 673 C 97 661 84 650 64 640 C 44 630 25 623 9 621 L 7 678 C 31 682 52 689 70 700 C 88 710 105 724 122 741 L 165 741 L 165 372 L 105 372 Z M 563 730 L 176 0 L 119 0 L 506 730 L 563 730 Z M 380 88 L 380 128 L 573 368 L 612 368 L 612 131 L 677 131 L 677 88 L 612 88 L 612 1 L 558 1 L 558 88 L 380 88 Z M 430 125 L 559 125 L 559 290 L 430 125 Z" unicode="¼" />
<glyph horiz-adv-x="741" d="M 7 0 L 7 0 Z M 105 372 L 105 673 C 97 661 84 650 64 640 C 44 630 25 623 9 621 L 7 678 C 31 682 52 689 70 700 C 88 710 105 724 122 741 L 165 741 L 165 372 L 105 372 Z M 563 730 L 176 0 L 119 0 L 506 730 L 563 730 Z M 726 0 L 449 0 L 449 21 L 619 175 C 627 183 636 193 645 206 C 653 218 658 233 658 251 C 658 269 651 285 637 299 C 623 313 603 320 577 320 C 547 320 526 311 513 294 C 500 277 493 257 493 235 L 442 235 C 442 269 454 300 478 328 C 502 355 537 369 583 369 C 627 369 660 358 682 337 C 704 316 716 291 716 262 C 716 235 710 213 700 195 C 689 177 678 163 666 153 L 544 48 L 726 48 L 726 0 Z" unicode="½" />
<glyph horiz-adv-x="749" d="M 7 0 L 7 0 Z M 628 730 L 241 0 L 184 0 L 571 730 L 628 730 Z M 445 88 L 445 128 L 638 368 L 677 368 L 677 131 L 742 131 L 742 88 L 677 88 L 677 1 L 623 1 L 623 88 L 445 88 Z M 495 125 L 624 125 L 624 290 L 495 125 Z M 216 569 C 246 565 269 554 285 537 C 301 520 309 500 309 477 C 309 464 306 451 301 438 C 296 424 288 412 276 401 C 264 390 248 381 228 374 C 208 367 184 364 155 364 C 115 364 84 368 62 378 C 39 387 21 397 7 407 L 39 440 C 51 432 67 424 86 418 C 105 412 128 409 154 409 C 190 409 216 416 232 431 C 248 445 257 463 257 484 C 257 507 247 523 228 531 C 208 539 187 544 163 544 L 92 544 L 92 586 L 159 586 C 183 586 203 590 218 600 C 232 610 240 624 240 643 C 240 658 233 671 220 681 C 206 691 186 696 158 696 C 133 696 112 691 94 682 C 76 672 62 661 52 649 L 20 679 C 32 695 50 709 72 722 C 94 735 125 742 165 742 C 207 742 239 733 261 716 C 283 698 294 677 294 653 C 294 631 286 612 271 598 C 256 583 238 573 216 569 Z" unicode="¾" />
<glyph horiz-adv-x="455" d="M 213 514 L 213 617 L 285 617 L 285 514 L 213 514 Z M 228 -125 C 171 -125 124 -110 86 -80 C 48 -50 30 -8 30 46 C 30 71 34 94 42 115 C 50 135 61 154 73 170 C 85 186 99 201 114 215 C 128 228 142 240 155 251 C 181 273 198 301 206 334 C 213 367 217 399 218 430 L 283 430 C 283 380 277 339 267 309 C 257 279 237 250 209 224 C 197 214 185 203 172 192 C 159 180 147 168 137 155 C 126 141 117 126 110 110 C 103 94 100 75 100 55 C 100 18 113 -10 139 -32 C 165 -53 197 -64 236 -64 C 269 -64 299 -56 326 -40 C 352 -24 375 -5 393 17 L 436 -25 C 413 -54 384 -78 348 -97 C 312 -115 272 -125 228 -125 Z" unicode="¿" />
<glyph horiz-adv-x="585" d="M 4 0 L 4 0 Z M 580 0 L 509 0 L 429 219 L 149 219 L 72 0 L 4 0 L 269 734 L 316 734 L 580 0 Z M 415 272 L 289 627 L 164 272 L 415 272 Z M 290 785 L 290 785 Z M 377 785 L 313 785 L 203 952 L 279 952 L 377 785 Z" unicode="À" />
<glyph horiz-adv-x="585" d="M 4 0 L 4 0 Z M 580 0 L 509 0 L 429 219 L 149 219 L 72 0 L 4 0 L 269 734 L 316 734 L 580 0 Z M 415 272 L 289 627 L 164 272 L 415 272 Z M 290 789 L 290 789 Z M 203 789 L 301 956 L 377 956 L 268 789 L 203 789 Z" unicode="Á" />
<glyph horiz-adv-x="585" d="M 4 0 L 4 0 Z M 580 0 L 509 0 L 429 219 L 149 219 L 72 0 L 4 0 L 269 734 L 316 734 L 580 0 Z M 415 272 L 289 627 L 164 272 L 415 272 Z M 290 786 L 290 786 Z M 436 786 L 376 786 L 290 912 L 203 786 L 145 786 L 259 956 L 322 956 L 436 786 Z" unicode="Â" />
<glyph horiz-adv-x="585" d="M 4 0 L 4 0 Z M 580 0 L 509 0 L 429 219 L 149 219 L 72 0 L 4 0 L 269 734 L 316 734 L 580 0 Z M 415 272 L 289 627 L 164 272 L 415 272 Z M 290 794 L 290 794 Z M 398 922 L 449 922 C 449 878 442 845 430 825 C 418 804 401 794 379 794 C 361 794 344 798 330 807 C 316 816 303 825 292 835 C 280 844 269 853 258 862 C 247 871 236 876 225 876 C 214 876 204 869 196 856 C 188 843 183 824 183 799 L 132 799 C 132 841 140 873 157 894 C 173 915 192 926 212 926 C 228 926 243 921 256 912 C 269 903 282 893 294 883 C 304 873 315 865 326 857 C 336 849 347 846 358 846 C 368 846 377 852 385 865 C 393 878 397 897 398 922 Z" unicode="Ã" />
<glyph horiz-adv-x="585" d="M 4 0 L 4 0 Z M 580 0 L 509 0 L 429 219 L 149 219 L 72 0 L 4 0 L 269 734 L 316 734 L 580 0 Z M 415 272 L 289 627 L 164 272 L 415 272 Z M 290 786 L 290 786 Z M 400 786 L 345 786 L 345 942 L 400 942 L 400 786 Z M 235 786 L 180 786 L 180 942 L 235 942 L 235 786 Z" unicode="Ä" />
<glyph horiz-adv-x="585" d="M 4 0 L 4 0 Z M 580 0 L 509 0 L 429 219 L 149 219 L 72 0 L 4 0 L 269 734 L 316 734 L 580 0 Z M 415 272 L 289 627 L 164 272 L 415 272 Z M 290 780 L 290 780 Z M 290 780 C 257 780 229 791 207 814 C 185 836 174 864 174 897 C 174 929 185 957 207 980 C 229 1002 257 1014 290 1014 C 322 1014 350 1002 373 980 C 395 957 407 929 407 897 C 407 864 395 836 373 814 C 350 791 322 780 290 780 Z M 290 822 C 310 822 328 829 342 844 C 356 858 364 876 364 897 C 364 917 356 935 342 950 C 328 965 310 973 290 973 C 269 973 251 965 237 950 C 223 935 216 917 216 897 C 216 876 223 858 237 844 C 251 829 269 822 290 822 Z" unicode="Å" />
<glyph horiz-adv-x="871" d="M 826 0 L 451 0 L 451 253 L 214 253 L 66 0 L -7 0 L 417 730 L 808 730 L 808 669 L 517 669 L 517 393 L 797 393 L 797 335 L 517 335 L 517 61 L 826 61 L 826 0 Z M 451 311 L 451 678 L 244 311 L 451 311 Z" unicode="Æ" />
<glyph horiz-adv-x="673" d="M 46 0 L 46 0 Z M 368 -10 C 324 -10 283 -1 244 15 C 205 31 171 56 142 88 C 112 120 89 159 72 206 C 54 252 46 305 46 365 C 46 421 53 472 69 518 C 85 564 107 604 135 637 C 163 669 197 695 237 713 C 277 731 320 740 368 740 C 430 740 481 728 523 706 C 564 683 597 652 622 612 L 566 576 C 545 605 519 629 488 649 C 457 668 417 678 369 678 C 292 678 231 650 185 595 C 139 539 117 463 117 365 C 117 313 124 267 139 227 C 153 187 172 155 196 129 C 220 103 247 83 278 70 C 309 57 341 51 373 51 C 423 51 466 62 501 85 C 535 107 563 136 584 170 L 638 137 C 613 94 578 59 532 31 C 486 3 432 -10 368 -10 Z M 362 -7 L 362 -7 Z M 369 -191 C 347 -191 325 -188 303 -182 C 281 -176 263 -168 251 -158 L 263 -129 C 273 -135 285 -141 301 -147 C 317 -153 334 -156 353 -156 C 369 -156 384 -152 396 -144 C 408 -136 415 -125 415 -113 C 415 -98 409 -88 398 -82 C 387 -76 375 -73 363 -73 C 354 -73 346 -73 340 -75 C 333 -76 326 -78 319 -81 L 309 -69 L 364 3 L 402 3 L 355 -59 C 387 -51 415 -53 438 -65 C 461 -76 473 -94 473 -118 C 473 -141 462 -159 442 -172 C 421 -184 397 -191 369 -191 Z" unicode="Ç" />
<glyph horiz-adv-x="513" d="M 90 0 L 90 0 Z M 467 0 L 90 0 L 90 730 L 449 730 L 449 669 L 159 669 L 159 393 L 438 393 L 438 334 L 159 334 L 159 61 L 467 61 L 467 0 Z M 275 785 L 275 785 Z M 362 785 L 298 785 L 188 952 L 264 952 L 362 785 Z" unicode="È" />
<glyph horiz-adv-x="513" d="M 90 0 L 90 0 Z M 467 0 L 90 0 L 90 730 L 449 730 L 449 669 L 159 669 L 159 393 L 438 393 L 438 334 L 159 334 L 159 61 L 467 61 L 467 0 Z M 275 789 L 275 789 Z M 188 789 L 286 956 L 362 956 L 253 789 L 188 789 Z" unicode="É" />
<glyph horiz-adv-x="513" d="M 90 0 L 90 0 Z M 467 0 L 90 0 L 90 730 L 449 730 L 449 669 L 159 669 L 159 393 L 438 393 L 438 334 L 159 334 L 159 61 L 467 61 L 467 0 Z M 275 786 L 275 786 Z M 421 786 L 361 786 L 275 912 L 188 786 L 130 786 L 244 956 L 307 956 L 421 786 Z" unicode="Ê" />
<glyph horiz-adv-x="513" d="M 90 0 L 90 0 Z M 467 0 L 90 0 L 90 730 L 449 730 L 449 669 L 159 669 L 159 393 L 438 393 L 438 334 L 159 334 L 159 61 L 467 61 L 467 0 Z M 275 786 L 275 786 Z M 385 786 L 330 786 L 330 942 L 385 942 L 385 786 Z M 220 786 L 165 786 L 165 942 L 220 942 L 220 786 Z" unicode="Ë" />
<glyph horiz-adv-x="259" d="M 42 0 L 42 0 Z M 165 0 L 94 0 L 94 730 L 165 730 L 165 0 Z M 129 785 L 129 785 Z M 216 785 L 152 785 L 42 952 L 118 952 L 216 785 Z" unicode="Ì" />
<glyph horiz-adv-x="259" d="M 42 0 L 42 0 Z M 165 0 L 94 0 L 94 730 L 165 730 L 165 0 Z M 129 789 L 129 789 Z M 42 789 L 140 956 L 216 956 L 107 789 L 42 789 Z" unicode="Í" />
<glyph horiz-adv-x="259" d="M 0 0 L 0 0 Z M 165 0 L 94 0 L 94 730 L 165 730 L 165 0 Z M 129 786 L 129 786 Z M 275 786 L 215 786 L 129 912 L 42 786 L -16 786 L 98 956 L 161 956 L 275 786 Z" unicode="Î" />
<glyph horiz-adv-x="259" d="M 19 0 L 19 0 Z M 165 0 L 94 0 L 94 730 L 165 730 L 165 0 Z M 129 786 L 129 786 Z M 239 786 L 184 786 L 184 942 L 239 942 L 239 786 Z M 74 786 L 19 786 L 19 942 L 74 942 L 74 786 Z" unicode="Ï" />
<glyph horiz-adv-x="673" d="M 627 366 C 627 315 619 267 604 223 C 588 178 565 139 535 107 C 505 74 467 48 421 29 C 375 9 322 0 262 0 L 90 0 L 90 333 L 31 333 L 31 385 L 90 385 L 90 730 L 274 730 C 328 730 378 721 422 704 C 466 687 503 663 533 632 C 563 600 587 562 603 517 C 619 472 627 422 627 366 Z M 158 54 L 253 54 C 307 54 354 62 392 79 C 430 95 462 118 486 146 C 510 174 527 206 538 244 C 549 282 555 322 555 364 C 555 463 529 540 479 594 C 429 648 360 676 273 676 L 158 676 L 158 385 L 343 385 L 343 333 L 158 333 L 158 54 Z" unicode="Ð" />
<glyph horiz-adv-x="706" d="M 90 0 L 90 0 Z M 616 0 L 565 0 L 156 594 L 156 0 L 90 0 L 90 730 L 143 730 L 552 135 L 552 730 L 616 730 L 616 0 Z M 354 794 L 354 794 Z M 462 922 L 513 922 C 513 878 506 845 494 825 C 482 804 465 794 443 794 C 425 794 408 798 394 807 C 380 816 367 825 356 835 C 344 844 333 853 322 862 C 311 871 300 876 289 876 C 278 876 268 869 260 856 C 252 843 247 824 247 799 L 196 799 C 196 841 204 873 221 894 C 237 915 256 926 276 926 C 292 926 307 921 320 912 C 333 903 346 893 358 883 C 368 873 379 865 390 857 C 400 849 411 846 422 846 C 432 846 441 852 449 865 C 457 878 461 897 462 922 Z" unicode="Ñ" />
<glyph horiz-adv-x="757" d="M 46 0 L 46 0 Z M 381 -10 C 332 -10 287 0 246 17 C 205 35 170 61 140 94 C 110 127 87 167 71 214 C 54 261 46 313 46 370 C 46 424 54 474 71 520 C 87 566 110 605 139 637 C 168 669 203 695 243 713 C 283 731 327 740 375 740 C 425 740 470 731 512 713 C 553 695 588 669 618 637 C 647 604 670 565 686 519 C 702 473 711 422 711 366 C 711 310 702 258 685 212 C 667 166 644 126 615 93 C 585 60 550 35 510 17 C 470 -1 427 -10 381 -10 Z M 384 48 C 420 48 453 55 485 70 C 516 84 543 105 566 133 C 589 160 607 193 620 233 C 633 273 640 318 640 368 C 640 414 633 457 620 496 C 606 534 588 567 564 594 C 540 621 512 642 479 657 C 446 672 410 680 372 680 C 334 680 300 672 269 658 C 237 644 210 623 188 597 C 166 570 148 537 136 499 C 123 460 117 416 117 368 C 117 318 124 273 138 233 C 152 193 171 159 195 132 C 219 104 247 83 280 69 C 312 55 347 48 384 48 Z M 374 785 L 374 785 Z M 461 785 L 397 785 L 287 952 L 363 952 L 461 785 Z" unicode="Ò" />
<glyph horiz-adv-x="757" d="M 46 0 L 46 0 Z M 381 -10 C 332 -10 287 0 246 17 C 205 35 170 61 140 94 C 110 127 87 167 71 214 C 54 261 46 313 46 370 C 46 424 54 474 71 520 C 87 566 110 605 139 637 C 168 669 203 695 243 713 C 283 731 327 740 375 740 C 425 740 470 731 512 713 C 553 695 588 669 618 637 C 647 604 670 565 686 519 C 702 473 711 422 711 366 C 711 310 702 258 685 212 C 667 166 644 126 615 93 C 585 60 550 35 510 17 C 470 -1 427 -10 381 -10 Z M 384 48 C 420 48 453 55 485 70 C 516 84 543 105 566 133 C 589 160 607 193 620 233 C 633 273 640 318 640 368 C 640 414 633 457 620 496 C 606 534 588 567 564 594 C 540 621 512 642 479 657 C 446 672 410 680 372 680 C 334 680 300 672 269 658 C 237 644 210 623 188 597 C 166 570 148 537 136 499 C 123 460 117 416 117 368 C 117 318 124 273 138 233 C 152 193 171 159 195 132 C 219 104 247 83 280 69 C 312 55 347 48 384 48 Z M 374 789 L 374 789 Z M 287 789 L 385 956 L 461 956 L 352 789 L 287 789 Z" unicode="Ó" />
<glyph horiz-adv-x="757" d="M 46 0 L 46 0 Z M 381 -10 C 332 -10 287 0 246 17 C 205 35 170 61 140 94 C 110 127 87 167 71 214 C 54 261 46 313 46 370 C 46 424 54 474 71 520 C 87 566 110 605 139 637 C 168 669 203 695 243 713 C 283 731 327 740 375 740 C 425 740 470 731 512 713 C 553 695 588 669 618 637 C 647 604 670 565 686 519 C 702 473 711 422 711 366 C 711 310 702 258 685 212 C 667 166 644 126 615 93 C 585 60 550 35 510 17 C 470 -1 427 -10 381 -10 Z M 384 48 C 420 48 453 55 485 70 C 516 84 543 105 566 133 C 589 160 607 193 620 233 C 633 273 640 318 640 368 C 640 414 633 457 620 496 C 606 534 588 567 564 594 C 540 621 512 642 479 657 C 446 672 410 680 372 680 C 334 680 300 672 269 658 C 237 644 210 623 188 597 C 166 570 148 537 136 499 C 123 460 117 416 117 368 C 117 318 124 273 138 233 C 152 193 171 159 195 132 C 219 104 247 83 280 69 C 312 55 347 48 384 48 Z M 374 786 L 374 786 Z M 520 786 L 460 786 L 374 912 L 287 786 L 229 786 L 343 956 L 406 956 L 520 786 Z" unicode="Ô" />
<glyph horiz-adv-x="757" d="M 46 0 L 46 0 Z M 381 -10 C 332 -10 287 0 246 17 C 205 35 170 61 140 94 C 110 127 87 167 71 214 C 54 261 46 313 46 370 C 46 424 54 474 71 520 C 87 566 110 605 139 637 C 168 669 203 695 243 713 C 283 731 327 740 375 740 C 425 740 470 731 512 713 C 553 695 588 669 618 637 C 647 604 670 565 686 519 C 702 473 711 422 711 366 C 711 310 702 258 685 212 C 667 166 644 126 615 93 C 585 60 550 35 510 17 C 470 -1 427 -10 381 -10 Z M 384 48 C 420 48 453 55 485 70 C 516 84 543 105 566 133 C 589 160 607 193 620 233 C 633 273 640 318 640 368 C 640 414 633 457 620 496 C 606 534 588 567 564 594 C 540 621 512 642 479 657 C 446 672 410 680 372 680 C 334 680 300 672 269 658 C 237 644 210 623 188 597 C 166 570 148 537 136 499 C 123 460 117 416 117 368 C 117 318 124 273 138 233 C 152 193 171 159 195 132 C 219 104 247 83 280 69 C 312 55 347 48 384 48 Z M 374 794 L 374 794 Z M 482 922 L 533 922 C 533 878 526 845 514 825 C 502 804 485 794 463 794 C 445 794 428 798 414 807 C 400 816 387 825 376 835 C 364 844 353 853 342 862 C 331 871 320 876 309 876 C 298 876 288 869 280 856 C 272 843 267 824 267 799 L 216 799 C 216 841 224 873 241 894 C 257 915 276 926 296 926 C 312 926 327 921 340 912 C 353 903 366 893 378 883 C 388 873 399 865 410 857 C 420 849 431 846 442 846 C 452 846 461 852 469 865 C 477 878 481 897 482 922 Z" unicode="Õ" />
<glyph horiz-adv-x="757" d="M 46 0 L 46 0 Z M 381 -10 C 332 -10 287 0 246 17 C 205 35 170 61 140 94 C 110 127 87 167 71 214 C 54 261 46 313 46 370 C 46 424 54 474 71 520 C 87 566 110 605 139 637 C 168 669 203 695 243 713 C 283 731 327 740 375 740 C 425 740 470 731 512 713 C 553 695 588 669 618 637 C 647 604 670 565 686 519 C 702 473 711 422 711 366 C 711 310 702 258 685 212 C 667 166 644 126 615 93 C 585 60 550 35 510 17 C 470 -1 427 -10 381 -10 Z M 384 48 C 420 48 453 55 485 70 C 516 84 543 105 566 133 C 589 160 607 193 620 233 C 633 273 640 318 640 368 C 640 414 633 457 620 496 C 606 534 588 567 564 594 C 540 621 512 642 479 657 C 446 672 410 680 372 680 C 334 680 300 672 269 658 C 237 644 210 623 188 597 C 166 570 148 537 136 499 C 123 460 117 416 117 368 C 117 318 124 273 138 233 C 152 193 171 159 195 132 C 219 104 247 83 280 69 C 312 55 347 48 384 48 Z M 374 786 L 374 786 Z M 484 786 L 429 786 L 429 942 L 484 942 L 484 786 Z M 319 786 L 264 786 L 264 942 L 319 942 L 319 786 Z" unicode="Ö" />
<glyph horiz-adv-x="494" d="M 107 155 L 71 191 L 211 330 L 72 469 L 107 505 L 247 367 L 386 505 L 422 469 L 283 330 L 423 191 L 386 153 L 247 294 L 107 155 Z" unicode="×" />
<glyph horiz-adv-x="757" d="M 711 366 C 711 310 702 258 685 212 C 667 166 644 126 615 93 C 585 60 550 35 510 17 C 470 -1 427 -10 381 -10 C 336 -10 294 -2 256 13 C 218 28 184 50 155 79 L 88 3 L 50 36 L 122 117 C 98 149 79 187 66 230 C 52 272 46 319 46 370 C 46 424 54 474 71 520 C 87 566 110 605 139 637 C 168 669 203 695 243 713 C 283 731 327 740 375 740 C 420 740 462 732 500 717 C 538 702 572 681 601 655 L 677 740 L 715 707 L 635 617 C 659 585 678 547 691 505 C 704 462 711 416 711 366 Z M 117 368 C 117 328 121 291 130 257 C 139 223 152 194 168 169 L 556 604 C 532 628 505 646 473 660 C 441 673 408 680 372 680 C 334 680 300 672 269 658 C 237 644 210 623 188 597 C 166 570 148 537 136 499 C 123 460 117 416 117 368 Z M 640 368 C 640 406 635 442 626 475 C 616 508 603 538 587 564 L 199 128 C 223 102 250 82 282 68 C 314 54 348 48 384 48 C 420 48 453 55 485 70 C 516 84 543 105 566 133 C 589 160 607 193 620 233 C 633 273 640 318 640 368 Z" unicode="Ø" />
<glyph horiz-adv-x="680" d="M 86 0 L 86 0 Z M 594 730 L 594 248 C 594 206 587 168 573 136 C 559 104 541 77 518 55 C 495 33 468 17 437 6 C 406 -4 373 -10 338 -10 C 304 -10 271 -4 241 6 C 210 16 183 32 160 53 C 137 74 119 101 106 134 C 92 166 86 204 86 248 L 86 730 L 154 730 L 154 246 C 154 214 159 187 169 163 C 179 139 192 118 209 102 C 225 86 245 73 267 65 C 289 56 313 52 338 52 C 363 52 387 56 410 64 C 432 72 452 84 469 100 C 485 116 499 136 509 160 C 519 184 524 213 524 246 L 524 730 L 594 730 Z M 339 785 L 339 785 Z M 426 785 L 362 785 L 252 952 L 328 952 L 426 785 Z" unicode="Ù" />
<glyph horiz-adv-x="680" d="M 86 0 L 86 0 Z M 594 730 L 594 248 C 594 206 587 168 573 136 C 559 104 541 77 518 55 C 495 33 468 17 437 6 C 406 -4 373 -10 338 -10 C 304 -10 271 -4 241 6 C 210 16 183 32 160 53 C 137 74 119 101 106 134 C 92 166 86 204 86 248 L 86 730 L 154 730 L 154 246 C 154 214 159 187 169 163 C 179 139 192 118 209 102 C 225 86 245 73 267 65 C 289 56 313 52 338 52 C 363 52 387 56 410 64 C 432 72 452 84 469 100 C 485 116 499 136 509 160 C 519 184 524 213 524 246 L 524 730 L 594 730 Z M 339 789 L 339 789 Z M 252 789 L 350 956 L 426 956 L 317 789 L 252 789 Z" unicode="Ú" />
<glyph horiz-adv-x="680" d="M 86 0 L 86 0 Z M 594 730 L 594 248 C 594 206 587 168 573 136 C 559 104 541 77 518 55 C 495 33 468 17 437 6 C 406 -4 373 -10 338 -10 C 304 -10 271 -4 241 6 C 210 16 183 32 160 53 C 137 74 119 101 106 134 C 92 166 86 204 86 248 L 86 730 L 154 730 L 154 246 C 154 214 159 187 169 163 C 179 139 192 118 209 102 C 225 86 245 73 267 65 C 289 56 313 52 338 52 C 363 52 387 56 410 64 C 432 72 452 84 469 100 C 485 116 499 136 509 160 C 519 184 524 213 524 246 L 524 730 L 594 730 Z M 339 786 L 339 786 Z M 485 786 L 425 786 L 339 912 L 252 786 L 194 786 L 308 956 L 371 956 L 485 786 Z" unicode="Û" />
<glyph horiz-adv-x="680" d="M 86 0 L 86 0 Z M 594 730 L 594 248 C 594 206 587 168 573 136 C 559 104 541 77 518 55 C 495 33 468 17 437 6 C 406 -4 373 -10 338 -10 C 304 -10 271 -4 241 6 C 210 16 183 32 160 53 C 137 74 119 101 106 134 C 92 166 86 204 86 248 L 86 730 L 154 730 L 154 246 C 154 214 159 187 169 163 C 179 139 192 118 209 102 C 225 86 245 73 267 65 C 289 56 313 52 338 52 C 363 52 387 56 410 64 C 432 72 452 84 469 100 C 485 116 499 136 509 160 C 519 184 524 213 524 246 L 524 730 L 594 730 Z M 339 786 L 339 786 Z M 449 786 L 394 786 L 394 942 L 449 942 L 449 786 Z M 284 786 L 229 786 L 229 942 L 284 942 L 284 786 Z" unicode="Ü" />
<glyph horiz-adv-x="580" d="M 3 0 L 3 0 Z M 577 730 L 323 321 L 323 0 L 253 0 L 253 323 L 3 730 L 82 730 L 292 387 L 505 730 L 577 730 Z M 292 789 L 292 789 Z M 205 789 L 303 956 L 379 956 L 270 789 L 205 789 Z" unicode="Ý" />
<glyph horiz-adv-x="537" d="M 90 0 L 90 730 L 160 730 L 160 594 L 296 594 C 362 594 414 575 453 537 C 491 499 511 449 511 386 C 511 322 491 270 452 230 C 412 190 362 170 301 170 L 160 170 L 160 0 L 90 0 Z M 158 225 L 291 225 C 337 225 373 239 401 268 C 428 296 442 337 442 389 C 442 438 426 475 395 500 C 364 525 327 538 285 538 L 158 538 L 158 225 Z" unicode="Þ" />
<glyph horiz-adv-x="587" d="M 396 -9 C 355 -9 319 -2 289 10 C 259 22 233 40 213 62 L 245 106 C 263 87 285 72 311 61 C 336 50 363 45 392 45 C 420 45 445 53 465 70 C 485 86 495 109 495 137 C 495 160 486 181 468 199 C 450 217 417 235 369 254 C 317 273 280 293 258 313 C 236 333 226 363 226 402 C 226 438 238 466 263 487 C 287 508 315 521 346 525 C 352 529 359 538 367 552 C 375 566 379 589 380 621 C 380 665 367 697 343 718 C 318 739 290 750 260 750 C 229 750 203 740 182 721 C 160 701 150 673 150 635 L 150 0 L 84 0 L 84 641 C 84 693 100 733 133 761 C 166 789 207 804 256 804 C 280 804 304 800 326 792 C 348 784 368 773 385 759 C 401 744 415 726 425 704 C 435 682 440 658 440 631 C 440 589 434 557 423 534 C 411 511 400 497 390 491 C 363 489 338 480 316 466 C 294 451 282 432 281 408 C 281 384 290 364 310 350 C 329 336 362 319 409 301 C 463 280 501 257 524 232 C 547 206 559 175 559 137 C 559 113 554 93 545 75 C 536 57 524 41 509 29 C 494 17 477 7 457 1 C 437 -5 417 -9 396 -9 Z" unicode="ß" />
<glyph horiz-adv-x="504" d="M 39 0 L 39 0 Z M 438 0 L 377 0 L 377 72 C 359 48 335 28 306 14 C 276 0 242 -7 202 -7 C 154 -7 114 6 84 34 C 54 61 39 99 39 149 C 39 207 58 250 98 279 C 138 307 188 324 249 328 L 375 337 L 375 364 C 375 404 364 434 342 454 C 320 473 290 483 252 483 C 221 483 193 477 167 466 C 141 455 118 443 100 429 L 75 479 C 96 495 122 510 154 522 C 185 534 221 540 262 540 C 315 540 358 526 390 499 C 422 471 438 429 438 371 L 438 0 Z M 376 119 L 376 288 L 249 280 C 208 277 174 266 147 246 C 119 226 106 195 106 153 C 106 117 117 90 140 71 C 162 52 191 43 225 43 C 255 43 284 50 312 64 C 339 78 360 97 376 119 Z M 249 584 L 249 584 Z M 336 584 L 272 584 L 162 751 L 238 751 L 336 584 Z" unicode="à" />
<glyph horiz-adv-x="504" d="M 39 0 L 39 0 Z M 438 0 L 377 0 L 377 72 C 359 48 335 28 306 14 C 276 0 242 -7 202 -7 C 154 -7 114 6 84 34 C 54 61 39 99 39 149 C 39 207 58 250 98 279 C 138 307 188 324 249 328 L 375 337 L 375 364 C 375 404 364 434 342 454 C 320 473 290 483 252 483 C 221 483 193 477 167 466 C 141 455 118 443 100 429 L 75 479 C 96 495 122 510 154 522 C 185 534 221 540 262 540 C 315 540 358 526 390 499 C 422 471 438 429 438 371 L 438 0 Z M 376 119 L 376 288 L 249 280 C 208 277 174 266 147 246 C 119 226 106 195 106 153 C 106 117 117 90 140 71 C 162 52 191 43 225 43 C 255 43 284 50 312 64 C 339 78 360 97 376 119 Z M 249 588 L 249 588 Z M 162 588 L 260 755 L 336 755 L 227 588 L 162 588 Z" unicode="á" />
<glyph horiz-adv-x="504" d="M 39 0 L 39 0 Z M 438 0 L 377 0 L 377 72 C 359 48 335 28 306 14 C 276 0 242 -7 202 -7 C 154 -7 114 6 84 34 C 54 61 39 99 39 149 C 39 207 58 250 98 279 C 138 307 188 324 249 328 L 375 337 L 375 364 C 375 404 364 434 342 454 C 320 473 290 483 252 483 C 221 483 193 477 167 466 C 141 455 118 443 100 429 L 75 479 C 96 495 122 510 154 522 C 185 534 221 540 262 540 C 315 540 358 526 390 499 C 422 471 438 429 438 371 L 438 0 Z M 376 119 L 376 288 L 249 280 C 208 277 174 266 147 246 C 119 226 106 195 106 153 C 106 117 117 90 140 71 C 162 52 191 43 225 43 C 255 43 284 50 312 64 C 339 78 360 97 376 119 Z M 249 585 L 249 585 Z M 395 585 L 335 585 L 249 711 L 162 585 L 104 585 L 218 755 L 281 755 L 395 585 Z" unicode="â" />
<glyph horiz-adv-x="504" d="M 39 0 L 39 0 Z M 438 0 L 377 0 L 377 72 C 359 48 335 28 306 14 C 276 0 242 -7 202 -7 C 154 -7 114 6 84 34 C 54 61 39 99 39 149 C 39 207 58 250 98 279 C 138 307 188 324 249 328 L 375 337 L 375 364 C 375 404 364 434 342 454 C 320 473 290 483 252 483 C 221 483 193 477 167 466 C 141 455 118 443 100 429 L 75 479 C 96 495 122 510 154 522 C 185 534 221 540 262 540 C 315 540 358 526 390 499 C 422 471 438 429 438 371 L 438 0 Z M 376 119 L 376 288 L 249 280 C 208 277 174 266 147 246 C 119 226 106 195 106 153 C 106 117 117 90 140 71 C 162 52 191 43 225 43 C 255 43 284 50 312 64 C 339 78 360 97 376 119 Z M 249 593 L 249 593 Z M 357 721 L 408 721 C 408 677 401 644 389 624 C 377 603 360 593 338 593 C 320 593 303 597 289 606 C 275 615 262 624 251 634 C 239 643 228 652 217 661 C 206 670 195 675 184 675 C 173 675 163 668 155 655 C 147 642 142 623 142 598 L 91 598 C 91 640 99 672 116 693 C 132 714 151 725 171 725 C 187 725 202 720 215 711 C 228 702 241 692 253 682 C 263 672 274 664 285 656 C 295 648 306 645 317 645 C 327 645 336 651 344 664 C 352 677 356 696 357 721 Z" unicode="ã" />
<glyph horiz-adv-x="504" d="M 39 0 L 39 0 Z M 438 0 L 377 0 L 377 72 C 359 48 335 28 306 14 C 276 0 242 -7 202 -7 C 154 -7 114 6 84 34 C 54 61 39 99 39 149 C 39 207 58 250 98 279 C 138 307 188 324 249 328 L 375 337 L 375 364 C 375 404 364 434 342 454 C 320 473 290 483 252 483 C 221 483 193 477 167 466 C 141 455 118 443 100 429 L 75 479 C 96 495 122 510 154 522 C 185 534 221 540 262 540 C 315 540 358 526 390 499 C 422 471 438 429 438 371 L 438 0 Z M 376 119 L 376 288 L 249 280 C 208 277 174 266 147 246 C 119 226 106 195 106 153 C 106 117 117 90 140 71 C 162 52 191 43 225 43 C 255 43 284 50 312 64 C 339 78 360 97 376 119 Z M 249 585 L 249 585 Z M 359 585 L 304 585 L 304 741 L 359 741 L 359 585 Z M 194 585 L 139 585 L 139 741 L 194 741 L 194 585 Z" unicode="ä" />
<glyph horiz-adv-x="504" d="M 39 0 L 39 0 Z M 438 0 L 377 0 L 377 72 C 359 48 335 28 306 14 C 276 0 242 -7 202 -7 C 154 -7 114 6 84 34 C 54 61 39 99 39 149 C 39 207 58 250 98 279 C 138 307 188 324 249 328 L 375 337 L 375 364 C 375 404 364 434 342 454 C 320 473 290 483 252 483 C 221 483 193 477 167 466 C 141 455 118 443 100 429 L 75 479 C 96 495 122 510 154 522 C 185 534 221 540 262 540 C 315 540 358 526 390 499 C 422 471 438 429 438 371 L 438 0 Z M 376 119 L 376 288 L 249 280 C 208 277 174 266 147 246 C 119 226 106 195 106 153 C 106 117 117 90 140 71 C 162 52 191 43 225 43 C 255 43 284 50 312 64 C 339 78 360 97 376 119 Z M 249 579 L 249 579 Z M 249 579 C 216 579 188 590 166 613 C 144 635 133 663 133 696 C 133 728 144 756 166 779 C 188 801 216 813 249 813 C 281 813 309 801 332 779 C 354 756 366 728 366 696 C 366 663 354 635 332 613 C 309 590 281 579 249 579 Z M 249 621 C 269 621 287 628 301 643 C 315 657 323 675 323 696 C 323 716 315 734 301 749 C 287 764 269 772 249 772 C 228 772 210 764 196 749 C 182 734 175 716 175 696 C 175 675 182 657 196 643 C 210 628 228 621 249 621 Z" unicode="å" />
<glyph horiz-adv-x="875" d="M 614 -9 C 585 -9 559 -4 535 4 C 511 12 491 23 473 37 C 455 51 441 66 429 83 C 417 100 410 117 406 133 C 394 93 370 59 334 33 C 298 6 255 -7 205 -7 C 159 -7 121 6 91 34 C 60 61 45 99 45 149 C 45 207 64 251 104 279 C 143 307 193 323 254 327 L 381 336 L 381 353 C 381 397 369 429 347 451 C 324 472 294 483 257 483 C 225 483 197 477 171 466 C 145 454 123 442 105 429 L 80 479 C 102 495 128 509 157 521 C 186 533 219 539 257 539 C 303 539 340 528 368 506 C 396 484 413 450 419 405 C 423 420 431 435 442 451 C 452 467 465 481 481 494 C 497 506 515 517 537 525 C 559 533 583 537 610 537 C 677 537 732 511 774 459 C 816 407 838 337 838 249 L 440 249 C 440 189 457 140 491 104 C 524 67 566 49 616 49 C 663 49 698 57 722 75 C 745 92 764 109 780 127 L 817 85 C 796 59 770 37 738 19 C 706 0 665 -9 614 -9 Z M 440 295 L 772 295 C 772 321 768 345 760 368 C 752 391 740 411 726 428 C 712 444 695 458 675 468 C 655 478 632 483 608 483 C 561 483 522 465 491 429 C 459 393 442 348 440 295 Z M 226 43 C 262 43 295 55 324 81 C 353 107 372 138 382 176 L 382 287 L 254 278 C 214 275 181 265 153 247 C 125 229 111 199 111 155 C 111 117 122 89 145 71 C 167 52 194 43 226 43 Z" unicode="æ" />
<glyph horiz-adv-x="500" d="M 38 0 L 38 0 Z M 429 141 L 474 105 C 466 92 456 79 445 65 C 433 51 420 39 404 28 C 388 17 370 8 350 1 C 329 -5 305 -9 278 -9 C 242 -9 209 -2 179 11 C 149 25 124 44 103 68 C 82 92 66 120 55 154 C 43 187 38 223 38 263 C 38 300 43 335 55 369 C 67 402 83 431 104 456 C 125 481 150 501 180 516 C 210 530 243 538 279 538 C 305 538 329 534 351 527 C 372 519 391 510 407 499 C 423 487 436 474 447 460 C 457 445 466 431 472 417 L 419 389 C 408 411 391 431 369 451 C 346 470 315 480 277 480 C 251 480 227 474 206 463 C 184 451 166 436 152 416 C 137 396 125 373 117 347 C 109 321 105 293 105 264 C 105 200 121 149 153 109 C 185 69 227 49 281 49 C 302 49 321 52 337 58 C 353 64 366 71 378 80 C 390 89 400 99 408 110 C 416 120 423 131 429 141 Z M 265 -7 L 265 -7 Z M 272 -191 C 250 -191 228 -188 206 -182 C 184 -176 166 -168 154 -158 L 166 -129 C 176 -135 188 -141 204 -147 C 220 -153 237 -156 256 -156 C 272 -156 287 -152 299 -144 C 311 -136 318 -125 318 -113 C 318 -98 312 -88 301 -82 C 290 -76 278 -73 266 -73 C 257 -73 249 -73 243 -75 C 236 -76 229 -78 222 -81 L 212 -69 L 267 3 L 305 3 L 258 -59 C 290 -51 318 -53 341 -65 C 364 -76 376 -94 376 -118 C 376 -141 365 -159 345 -172 C 324 -184 300 -191 272 -191 Z" unicode="ç" />
<glyph horiz-adv-x="538" d="M 38 0 L 38 0 Z M 278 -9 C 243 -9 211 -2 181 10 C 151 22 126 40 105 64 C 84 87 68 116 56 150 C 44 184 38 222 38 264 C 38 302 44 338 56 372 C 68 405 84 434 105 459 C 126 483 151 503 180 517 C 208 531 239 538 273 538 C 341 538 396 511 438 459 C 480 407 501 336 502 247 L 103 247 C 104 190 120 143 152 105 C 184 67 226 49 280 49 C 321 49 354 56 380 72 C 405 88 426 106 443 127 L 480 85 C 459 59 433 37 402 19 C 370 0 329 -9 278 -9 Z M 102 295 L 436 295 C 435 349 419 394 389 430 C 358 465 319 483 272 483 C 248 483 226 478 206 468 C 186 458 168 445 154 428 C 139 411 127 391 118 368 C 109 345 104 321 102 295 Z M 272 584 L 272 584 Z M 359 584 L 295 584 L 185 751 L 261 751 L 359 584 Z" unicode="è" />
<glyph horiz-adv-x="538" d="M 38 0 L 38 0 Z M 278 -9 C 243 -9 211 -2 181 10 C 151 22 126 40 105 64 C 84 87 68 116 56 150 C 44 184 38 222 38 264 C 38 302 44 338 56 372 C 68 405 84 434 105 459 C 126 483 151 503 180 517 C 208 531 239 538 273 538 C 341 538 396 511 438 459 C 480 407 501 336 502 247 L 103 247 C 104 190 120 143 152 105 C 184 67 226 49 280 49 C 321 49 354 56 380 72 C 405 88 426 106 443 127 L 480 85 C 459 59 433 37 402 19 C 370 0 329 -9 278 -9 Z M 102 295 L 436 295 C 435 349 419 394 389 430 C 358 465 319 483 272 483 C 248 483 226 478 206 468 C 186 458 168 445 154 428 C 139 411 127 391 118 368 C 109 345 104 321 102 295 Z M 272 588 L 272 588 Z M 185 588 L 283 755 L 359 755 L 250 588 L 185 588 Z" unicode="é" />
<glyph horiz-adv-x="538" d="M 38 0 L 38 0 Z M 278 -9 C 243 -9 211 -2 181 10 C 151 22 126 40 105 64 C 84 87 68 116 56 150 C 44 184 38 222 38 264 C 38 302 44 338 56 372 C 68 405 84 434 105 459 C 126 483 151 503 180 517 C 208 531 239 538 273 538 C 341 538 396 511 438 459 C 480 407 501 336 502 247 L 103 247 C 104 190 120 143 152 105 C 184 67 226 49 280 49 C 321 49 354 56 380 72 C 405 88 426 106 443 127 L 480 85 C 459 59 433 37 402 19 C 370 0 329 -9 278 -9 Z M 102 295 L 436 295 C 435 349 419 394 389 430 C 358 465 319 483 272 483 C 248 483 226 478 206 468 C 186 458 168 445 154 428 C 139 411 127 391 118 368 C 109 345 104 321 102 295 Z M 272 585 L 272 585 Z M 418 585 L 358 585 L 272 711 L 185 585 L 127 585 L 241 755 L 304 755 L 418 585 Z" unicode="ê" />
<glyph horiz-adv-x="538" d="M 38 0 L 38 0 Z M 278 -9 C 243 -9 211 -2 181 10 C 151 22 126 40 105 64 C 84 87 68 116 56 150 C 44 184 38 222 38 264 C 38 302 44 338 56 372 C 68 405 84 434 105 459 C 126 483 151 503 180 517 C 208 531 239 538 273 538 C 341 538 396 511 438 459 C 480 407 501 336 502 247 L 103 247 C 104 190 120 143 152 105 C 184 67 226 49 280 49 C 321 49 354 56 380 72 C 405 88 426 106 443 127 L 480 85 C 459 59 433 37 402 19 C 370 0 329 -9 278 -9 Z M 102 295 L 436 295 C 435 349 419 394 389 430 C 358 465 319 483 272 483 C 248 483 226 478 206 468 C 186 458 168 445 154 428 C 139 411 127 391 118 368 C 109 345 104 321 102 295 Z M 272 585 L 272 585 Z M 382 585 L 327 585 L 327 741 L 382 741 L 382 585 Z M 217 585 L 162 585 L 162 741 L 217 741 L 217 585 Z" unicode="ë" />
<glyph horiz-adv-x="225" d="M 25 0 L 25 0 Z M 145 0 L 80 0 L 80 529 L 145 529 L 145 0 Z M 112 584 L 112 584 Z M 199 584 L 135 584 L 25 751 L 101 751 L 199 584 Z" unicode="ì" />
<glyph horiz-adv-x="225" d="M 25 0 L 25 0 Z M 145 0 L 80 0 L 80 529 L 145 529 L 145 0 Z M 112 588 L 112 588 Z M 25 588 L 123 755 L 199 755 L 90 588 L 25 588 Z" unicode="í" />
<glyph horiz-adv-x="225" d="M 0 0 L 0 0 Z M 145 0 L 80 0 L 80 529 L 145 529 L 145 0 Z M 112 585 L 112 585 Z M 258 585 L 198 585 L 112 711 L 25 585 L -33 585 L 81 755 L 144 755 L 258 585 Z" unicode="î" />
<glyph horiz-adv-x="225" d="M 2 0 L 2 0 Z M 145 0 L 80 0 L 80 529 L 145 529 L 145 0 Z M 112 585 L 112 585 Z M 222 585 L 167 585 L 167 741 L 222 741 L 222 585 Z M 57 585 L 2 585 L 2 741 L 57 741 L 57 585 Z" unicode="ï" />
<glyph horiz-adv-x="555" d="M 512 294 C 512 250 506 209 496 172 C 485 134 469 102 449 76 C 429 49 404 28 374 13 C 344 -1 311 -9 274 -9 C 240 -9 209 -2 181 9 C 152 21 127 39 106 62 C 85 85 69 113 57 146 C 45 178 39 215 39 255 C 39 293 45 328 57 361 C 69 394 85 423 105 447 C 125 471 148 490 176 504 C 204 518 233 525 264 525 C 306 525 342 513 374 491 C 406 469 429 440 443 405 C 437 463 426 513 410 557 C 394 600 375 636 355 666 L 229 606 L 216 643 L 331 697 C 310 721 289 740 267 754 C 245 767 225 776 209 780 L 265 802 C 279 798 297 790 318 777 C 338 763 359 744 380 720 L 452 754 L 464 718 L 404 689 C 432 648 457 595 479 529 C 501 463 512 385 512 294 Z M 276 46 C 328 46 369 66 400 106 C 431 146 447 198 447 264 C 447 326 431 376 401 415 C 370 453 328 473 274 473 C 249 473 226 467 206 457 C 185 446 167 431 152 412 C 137 393 126 371 118 345 C 110 319 106 290 106 260 C 106 194 122 141 154 103 C 186 65 227 46 276 46 Z" unicode="ð" />
<glyph horiz-adv-x="549" d="M 78 0 L 78 0 Z M 476 0 L 411 0 L 411 379 C 411 411 399 437 375 455 C 351 473 323 482 292 482 C 275 482 258 479 240 474 C 222 469 206 461 192 450 C 178 439 166 425 157 408 C 147 390 143 370 143 346 L 143 0 L 78 0 L 78 529 L 134 529 L 134 422 C 145 456 167 484 199 506 C 231 527 269 538 313 538 C 334 538 355 534 375 528 C 395 522 412 513 427 501 C 441 489 453 475 462 458 C 471 440 476 421 476 400 L 476 0 Z M 284 593 L 284 593 Z M 392 721 L 443 721 C 443 677 436 644 424 624 C 412 603 395 593 373 593 C 355 593 338 597 324 606 C 310 615 297 624 286 634 C 274 643 263 652 252 661 C 241 670 230 675 219 675 C 208 675 198 668 190 655 C 182 642 177 623 177 598 L 126 598 C 126 640 134 672 151 693 C 167 714 186 725 206 725 C 222 725 237 720 250 711 C 263 702 276 692 288 682 C 298 672 309 664 320 656 C 330 648 341 645 352 645 C 362 645 371 651 379 664 C 387 677 391 696 392 721 Z" unicode="ñ" />
<glyph horiz-adv-x="553" d="M 38 0 L 38 0 Z M 274 -9 C 242 -9 212 -2 184 9 C 155 21 130 39 108 62 C 86 85 69 114 57 148 C 44 182 38 220 38 262 C 38 301 44 337 56 371 C 68 405 85 434 106 459 C 127 483 152 503 181 517 C 210 531 241 538 275 538 C 309 538 340 531 370 519 C 400 506 425 488 447 466 C 468 443 485 415 497 383 C 509 351 515 315 515 276 C 515 234 509 196 497 161 C 485 126 468 96 447 71 C 425 46 400 26 370 12 C 340 -1 308 -9 274 -9 Z M 278 49 C 328 49 369 69 401 110 C 432 151 448 204 448 269 C 448 331 432 381 400 421 C 368 460 325 480 273 480 C 223 480 183 459 152 419 C 121 379 106 327 106 264 C 106 195 122 142 156 105 C 189 67 230 49 278 49 Z M 275 584 L 275 584 Z M 362 584 L 298 584 L 188 751 L 264 751 L 362 584 Z" unicode="ò" />
<glyph horiz-adv-x="553" d="M 38 0 L 38 0 Z M 274 -9 C 242 -9 212 -2 184 9 C 155 21 130 39 108 62 C 86 85 69 114 57 148 C 44 182 38 220 38 262 C 38 301 44 337 56 371 C 68 405 85 434 106 459 C 127 483 152 503 181 517 C 210 531 241 538 275 538 C 309 538 340 531 370 519 C 400 506 425 488 447 466 C 468 443 485 415 497 383 C 509 351 515 315 515 276 C 515 234 509 196 497 161 C 485 126 468 96 447 71 C 425 46 400 26 370 12 C 340 -1 308 -9 274 -9 Z M 278 49 C 328 49 369 69 401 110 C 432 151 448 204 448 269 C 448 331 432 381 400 421 C 368 460 325 480 273 480 C 223 480 183 459 152 419 C 121 379 106 327 106 264 C 106 195 122 142 156 105 C 189 67 230 49 278 49 Z M 275 588 L 275 588 Z M 188 588 L 286 755 L 362 755 L 253 588 L 188 588 Z" unicode="ó" />
<glyph horiz-adv-x="553" d="M 38 0 L 38 0 Z M 274 -9 C 242 -9 212 -2 184 9 C 155 21 130 39 108 62 C 86 85 69 114 57 148 C 44 182 38 220 38 262 C 38 301 44 337 56 371 C 68 405 85 434 106 459 C 127 483 152 503 181 517 C 210 531 241 538 275 538 C 309 538 340 531 370 519 C 400 506 425 488 447 466 C 468 443 485 415 497 383 C 509 351 515 315 515 276 C 515 234 509 196 497 161 C 485 126 468 96 447 71 C 425 46 400 26 370 12 C 340 -1 308 -9 274 -9 Z M 278 49 C 328 49 369 69 401 110 C 432 151 448 204 448 269 C 448 331 432 381 400 421 C 368 460 325 480 273 480 C 223 480 183 459 152 419 C 121 379 106 327 106 264 C 106 195 122 142 156 105 C 189 67 230 49 278 49 Z M 275 585 L 275 585 Z M 421 585 L 361 585 L 275 711 L 188 585 L 130 585 L 244 755 L 307 755 L 421 585 Z" unicode="ô" />
<glyph horiz-adv-x="553" d="M 38 0 L 38 0 Z M 274 -9 C 242 -9 212 -2 184 9 C 155 21 130 39 108 62 C 86 85 69 114 57 148 C 44 182 38 220 38 262 C 38 301 44 337 56 371 C 68 405 85 434 106 459 C 127 483 152 503 181 517 C 210 531 241 538 275 538 C 309 538 340 531 370 519 C 400 506 425 488 447 466 C 468 443 485 415 497 383 C 509 351 515 315 515 276 C 515 234 509 196 497 161 C 485 126 468 96 447 71 C 425 46 400 26 370 12 C 340 -1 308 -9 274 -9 Z M 278 49 C 328 49 369 69 401 110 C 432 151 448 204 448 269 C 448 331 432 381 400 421 C 368 460 325 480 273 480 C 223 480 183 459 152 419 C 121 379 106 327 106 264 C 106 195 122 142 156 105 C 189 67 230 49 278 49 Z M 275 593 L 275 593 Z M 383 721 L 434 721 C 434 677 427 644 415 624 C 403 603 386 593 364 593 C 346 593 329 597 315 606 C 301 615 288 624 277 634 C 265 643 254 652 243 661 C 232 670 221 675 210 675 C 199 675 189 668 181 655 C 173 642 168 623 168 598 L 117 598 C 117 640 125 672 142 693 C 158 714 177 725 197 725 C 213 725 228 720 241 711 C 254 702 267 692 279 682 C 289 672 300 664 311 656 C 321 648 332 645 343 645 C 353 645 362 651 370 664 C 378 677 382 696 383 721 Z" unicode="õ" />
<glyph horiz-adv-x="553" d="M 38 0 L 38 0 Z M 274 -9 C 242 -9 212 -2 184 9 C 155 21 130 39 108 62 C 86 85 69 114 57 148 C 44 182 38 220 38 262 C 38 301 44 337 56 371 C 68 405 85 434 106 459 C 127 483 152 503 181 517 C 210 531 241 538 275 538 C 309 538 340 531 370 519 C 400 506 425 488 447 466 C 468 443 485 415 497 383 C 509 351 515 315 515 276 C 515 234 509 196 497 161 C 485 126 468 96 447 71 C 425 46 400 26 370 12 C 340 -1 308 -9 274 -9 Z M 278 49 C 328 49 369 69 401 110 C 432 151 448 204 448 269 C 448 331 432 381 400 421 C 368 460 325 480 273 480 C 223 480 183 459 152 419 C 121 379 106 327 106 264 C 106 195 122 142 156 105 C 189 67 230 49 278 49 Z M 275 585 L 275 585 Z M 385 585 L 330 585 L 330 741 L 385 741 L 385 585 Z M 220 585 L 165 585 L 165 741 L 220 741 L 220 585 Z" unicode="ö" />
<glyph horiz-adv-x="494" d="M 216 447 L 216 555 L 278 555 L 278 447 L 216 447 Z M 28 303 L 28 359 L 465 359 L 465 303 L 28 303 Z M 216 106 L 216 214 L 278 214 L 278 106 L 216 106 Z" unicode="÷" />
<glyph horiz-adv-x="553" d="M 515 276 C 515 234 509 196 497 161 C 485 126 468 96 447 71 C 425 46 400 26 370 12 C 340 -1 308 -9 274 -9 C 244 -9 216 -3 189 7 C 161 17 137 33 117 54 L 66 -5 L 31 25 L 87 90 C 71 112 59 137 51 166 C 42 195 38 227 38 262 C 38 301 44 337 56 371 C 68 405 85 434 106 459 C 127 483 152 503 181 517 C 210 531 241 538 275 538 C 304 538 331 533 357 524 C 383 514 406 501 427 485 L 475 541 L 510 511 L 459 452 C 476 429 490 403 500 373 C 510 343 515 311 515 276 Z M 106 264 C 106 239 108 217 112 197 C 116 177 123 158 132 142 L 386 437 C 371 450 354 460 335 468 C 316 476 295 480 273 480 C 223 480 183 459 152 419 C 121 379 106 327 106 264 Z M 448 269 C 448 295 445 319 439 341 C 433 363 425 383 415 401 L 158 102 C 173 84 191 71 212 62 C 232 53 254 49 278 49 C 328 49 369 69 401 110 C 432 151 448 204 448 269 Z" unicode="ø" />
<glyph horiz-adv-x="549" d="M 72 0 L 72 0 Z M 72 529 L 137 529 L 137 177 C 137 129 149 95 175 75 C 200 55 231 46 269 46 C 305 46 336 58 364 82 C 392 106 406 140 406 186 L 406 529 L 471 529 L 471 0 L 412 0 L 412 106 C 404 76 385 50 356 26 C 326 2 289 -9 243 -9 C 220 -9 198 -5 177 0 C 156 6 138 16 123 29 C 107 42 95 59 86 79 C 76 99 72 124 72 153 L 72 529 Z M 272 584 L 272 584 Z M 359 584 L 295 584 L 185 751 L 261 751 L 359 584 Z" unicode="ù" />
<glyph horiz-adv-x="549" d="M 72 0 L 72 0 Z M 72 529 L 137 529 L 137 177 C 137 129 149 95 175 75 C 200 55 231 46 269 46 C 305 46 336 58 364 82 C 392 106 406 140 406 186 L 406 529 L 471 529 L 471 0 L 412 0 L 412 106 C 404 76 385 50 356 26 C 326 2 289 -9 243 -9 C 220 -9 198 -5 177 0 C 156 6 138 16 123 29 C 107 42 95 59 86 79 C 76 99 72 124 72 153 L 72 529 Z M 272 588 L 272 588 Z M 185 588 L 283 755 L 359 755 L 250 588 L 185 588 Z" unicode="ú" />
<glyph horiz-adv-x="549" d="M 72 0 L 72 0 Z M 72 529 L 137 529 L 137 177 C 137 129 149 95 175 75 C 200 55 231 46 269 46 C 305 46 336 58 364 82 C 392 106 406 140 406 186 L 406 529 L 471 529 L 471 0 L 412 0 L 412 106 C 404 76 385 50 356 26 C 326 2 289 -9 243 -9 C 220 -9 198 -5 177 0 C 156 6 138 16 123 29 C 107 42 95 59 86 79 C 76 99 72 124 72 153 L 72 529 Z M 272 585 L 272 585 Z M 418 585 L 358 585 L 272 711 L 185 585 L 127 585 L 241 755 L 304 755 L 418 585 Z" unicode="û" />
<glyph horiz-adv-x="549" d="M 72 0 L 72 0 Z M 72 529 L 137 529 L 137 177 C 137 129 149 95 175 75 C 200 55 231 46 269 46 C 305 46 336 58 364 82 C 392 106 406 140 406 186 L 406 529 L 471 529 L 471 0 L 412 0 L 412 106 C 404 76 385 50 356 26 C 326 2 289 -9 243 -9 C 220 -9 198 -5 177 0 C 156 6 138 16 123 29 C 107 42 95 59 86 79 C 76 99 72 124 72 153 L 72 529 Z M 272 585 L 272 585 Z M 382 585 L 327 585 L 327 741 L 382 741 L 382 585 Z M 217 585 L 162 585 L 162 741 L 217 741 L 217 585 Z" unicode="ü" />
<glyph horiz-adv-x="455" d="M 0 0 L 0 0 Z M 457 529 L 212 -90 C 194 -131 173 -160 148 -176 C 122 -192 98 -200 74 -200 C 57 -200 43 -198 33 -195 C 22 -191 14 -188 10 -186 L 32 -131 C 35 -133 41 -135 49 -137 C 57 -139 65 -141 74 -141 C 89 -141 104 -135 119 -123 C 133 -111 147 -91 159 -63 L 194 29 L -2 529 L 67 529 L 228 107 L 392 529 L 457 529 Z M 229 588 L 229 588 Z M 142 588 L 240 755 L 316 755 L 207 588 L 142 588 Z" unicode="ý" />
<glyph horiz-adv-x="565" d="M 78 -195 L 78 800 L 141 800 L 141 395 C 149 433 169 466 200 494 C 231 522 272 537 322 537 C 354 537 382 530 408 518 C 433 505 454 487 472 464 C 490 441 503 413 513 381 C 522 349 527 313 527 275 C 527 189 507 121 467 70 C 427 19 377 -6 317 -6 C 270 -6 231 6 201 31 C 171 56 151 87 142 123 L 142 -195 L 78 -195 Z M 300 48 C 346 48 384 68 414 108 C 444 148 460 201 460 266 C 460 296 456 325 450 351 C 443 377 433 400 420 420 C 406 439 390 454 370 465 C 350 475 328 481 302 481 C 257 481 218 463 186 429 C 154 394 138 337 138 258 C 138 183 154 129 186 97 C 218 64 256 48 300 48 Z" unicode="þ" />
<glyph horiz-adv-x="455" d="M 0 0 L 0 0 Z M 457 529 L 212 -90 C 194 -131 173 -160 148 -176 C 122 -192 98 -200 74 -200 C 57 -200 43 -198 33 -195 C 22 -191 14 -188 10 -186 L 32 -131 C 35 -133 41 -135 49 -137 C 57 -139 65 -141 74 -141 C 89 -141 104 -135 119 -123 C 133 -111 147 -91 159 -63 L 194 29 L -2 529 L 67 529 L 228 107 L 392 529 L 457 529 Z M 229 585 L 229 585 Z M 339 585 L 284 585 L 284 741 L 339 741 L 339 585 Z M 174 585 L 119 585 L 119 741 L 174 741 L 174 585 Z" unicode="ÿ" />
<glyph horiz-adv-x="585" d="M 4 0 L 4 0 Z M 580 0 L 509 0 L 429 219 L 149 219 L 72 0 L 4 0 L 269 734 L 316 734 L 580 0 Z M 415 272 L 289 627 L 164 272 L 415 272 Z M 290 809 L 290 809 Z M 411 809 L 169 809 L 169 864 L 411 864 L 411 809 Z" unicode="Ā" />
<glyph horiz-adv-x="504" d="M 39 0 L 39 0 Z M 438 0 L 377 0 L 377 72 C 359 48 335 28 306 14 C 276 0 242 -7 202 -7 C 154 -7 114 6 84 34 C 54 61 39 99 39 149 C 39 207 58 250 98 279 C 138 307 188 324 249 328 L 375 337 L 375 364 C 375 404 364 434 342 454 C 320 473 290 483 252 483 C 221 483 193 477 167 466 C 141 455 118 443 100 429 L 75 479 C 96 495 122 510 154 522 C 185 534 221 540 262 540 C 315 540 358 526 390 499 C 422 471 438 429 438 371 L 438 0 Z M 376 119 L 376 288 L 249 280 C 208 277 174 266 147 246 C 119 226 106 195 106 153 C 106 117 117 90 140 71 C 162 52 191 43 225 43 C 255 43 284 50 312 64 C 339 78 360 97 376 119 Z M 249 608 L 249 608 Z M 370 608 L 128 608 L 128 663 L 370 663 L 370 608 Z" unicode="ā" />
<glyph horiz-adv-x="585" d="M 4 0 L 4 0 Z M 580 0 L 509 0 L 429 219 L 149 219 L 72 0 L 4 0 L 269 734 L 316 734 L 580 0 Z M 415 272 L 289 627 L 164 272 L 415 272 Z M 290 793 L 290 793 Z M 374 948 L 429 948 C 425 894 410 854 385 830 C 359 805 328 793 290 793 C 252 793 220 805 195 830 C 169 854 155 894 151 948 L 206 948 C 208 917 216 891 229 871 C 241 850 262 840 290 840 C 318 840 338 849 351 869 C 364 889 372 915 374 948 Z" unicode="Ă" />
<glyph horiz-adv-x="504" d="M 39 0 L 39 0 Z M 438 0 L 377 0 L 377 72 C 359 48 335 28 306 14 C 276 0 242 -7 202 -7 C 154 -7 114 6 84 34 C 54 61 39 99 39 149 C 39 207 58 250 98 279 C 138 307 188 324 249 328 L 375 337 L 375 364 C 375 404 364 434 342 454 C 320 473 290 483 252 483 C 221 483 193 477 167 466 C 141 455 118 443 100 429 L 75 479 C 96 495 122 510 154 522 C 185 534 221 540 262 540 C 315 540 358 526 390 499 C 422 471 438 429 438 371 L 438 0 Z M 376 119 L 376 288 L 249 280 C 208 277 174 266 147 246 C 119 226 106 195 106 153 C 106 117 117 90 140 71 C 162 52 191 43 225 43 C 255 43 284 50 312 64 C 339 78 360 97 376 119 Z M 249 592 L 249 592 Z M 333 747 L 388 747 C 384 693 369 653 344 629 C 318 604 287 592 249 592 C 211 592 179 604 154 629 C 128 653 114 693 110 747 L 165 747 C 167 716 175 690 188 670 C 200 649 221 639 249 639 C 277 639 297 648 310 668 C 323 688 331 714 333 747 Z" unicode="ă" />
<glyph horiz-adv-x="585" d="M 4 0 L 4 0 Z M 580 0 L 509 0 L 429 219 L 149 219 L 72 0 L 4 0 L 269 734 L 316 734 L 580 0 Z M 415 272 L 289 627 L 164 272 L 415 272 Z M 509 -9 L 509 -9 Z M 620 -110 L 640 -136 C 621 -155 599 -170 575 -180 C 551 -190 524 -196 495 -196 C 463 -196 437 -188 419 -174 C 401 -160 392 -141 392 -119 C 392 -96 402 -74 423 -53 C 443 -31 474 -13 514 2 L 551 1 C 517 -13 492 -29 474 -45 C 456 -61 448 -77 448 -94 C 448 -110 454 -123 467 -133 C 479 -143 495 -148 515 -148 C 537 -148 557 -144 575 -137 C 593 -129 608 -120 620 -110 Z" unicode="Ą" />
<glyph horiz-adv-x="504" d="M 39 0 L 39 0 Z M 438 0 L 377 0 L 377 72 C 359 48 335 28 306 14 C 276 0 242 -7 202 -7 C 154 -7 114 6 84 34 C 54 61 39 99 39 149 C 39 207 58 250 98 279 C 138 307 188 324 249 328 L 375 337 L 375 364 C 375 404 364 434 342 454 C 320 473 290 483 252 483 C 221 483 193 477 167 466 C 141 455 118 443 100 429 L 75 479 C 96 495 122 510 154 522 C 185 534 221 540 262 540 C 315 540 358 526 390 499 C 422 471 438 429 438 371 L 438 0 Z M 376 119 L 376 288 L 249 280 C 208 277 174 266 147 246 C 119 226 106 195 106 153 C 106 117 117 90 140 71 C 162 52 191 43 225 43 C 255 43 284 50 312 64 C 339 78 360 97 376 119 Z M 377 -9 L 377 -9 Z M 488 -110 L 508 -136 C 489 -155 467 -170 443 -180 C 419 -190 392 -196 363 -196 C 331 -196 305 -188 287 -174 C 269 -160 260 -141 260 -119 C 260 -96 270 -74 291 -53 C 311 -31 342 -13 382 2 L 419 1 C 385 -13 360 -29 342 -45 C 324 -61 316 -77 316 -94 C 316 -110 322 -123 335 -133 C 347 -143 363 -148 383 -148 C 405 -148 425 -144 443 -137 C 461 -129 476 -120 488 -110 Z" unicode="ą" />
<glyph horiz-adv-x="673" d="M 46 0 L 46 0 Z M 368 -10 C 324 -10 283 -1 244 15 C 205 31 171 56 142 88 C 112 120 89 159 72 206 C 54 252 46 305 46 365 C 46 421 53 472 69 518 C 85 564 107 604 135 637 C 163 669 197 695 237 713 C 277 731 320 740 368 740 C 430 740 481 728 523 706 C 564 683 597 652 622 612 L 566 576 C 545 605 519 629 488 649 C 457 668 417 678 369 678 C 292 678 231 650 185 595 C 139 539 117 463 117 365 C 117 313 124 267 139 227 C 153 187 172 155 196 129 C 220 103 247 83 278 70 C 309 57 341 51 373 51 C 423 51 466 62 501 85 C 535 107 563 136 584 170 L 638 137 C 613 94 578 59 532 31 C 486 3 432 -10 368 -10 Z M 367 789 L 367 789 Z M 280 789 L 378 956 L 454 956 L 345 789 L 280 789 Z" unicode="Ć" />
<glyph horiz-adv-x="500" d="M 38 0 L 38 0 Z M 429 141 L 474 105 C 466 92 456 79 445 65 C 433 51 420 39 404 28 C 388 17 370 8 350 1 C 329 -5 305 -9 278 -9 C 242 -9 209 -2 179 11 C 149 25 124 44 103 68 C 82 92 66 120 55 154 C 43 187 38 223 38 263 C 38 300 43 335 55 369 C 67 402 83 431 104 456 C 125 481 150 501 180 516 C 210 530 243 538 279 538 C 305 538 329 534 351 527 C 372 519 391 510 407 499 C 423 487 436 474 447 460 C 457 445 466 431 472 417 L 419 389 C 408 411 391 431 369 451 C 346 470 315 480 277 480 C 251 480 227 474 206 463 C 184 451 166 436 152 416 C 137 396 125 373 117 347 C 109 321 105 293 105 264 C 105 200 121 149 153 109 C 185 69 227 49 281 49 C 302 49 321 52 337 58 C 353 64 366 71 378 80 C 390 89 400 99 408 110 C 416 120 423 131 429 141 Z M 277 588 L 277 588 Z M 190 588 L 288 755 L 364 755 L 255 588 L 190 588 Z" unicode="ć" />
<glyph horiz-adv-x="673" d="M 46 0 L 46 0 Z M 368 -10 C 324 -10 283 -1 244 15 C 205 31 171 56 142 88 C 112 120 89 159 72 206 C 54 252 46 305 46 365 C 46 421 53 472 69 518 C 85 564 107 604 135 637 C 163 669 197 695 237 713 C 277 731 320 740 368 740 C 430 740 481 728 523 706 C 564 683 597 652 622 612 L 566 576 C 545 605 519 629 488 649 C 457 668 417 678 369 678 C 292 678 231 650 185 595 C 139 539 117 463 117 365 C 117 313 124 267 139 227 C 153 187 172 155 196 129 C 220 103 247 83 278 70 C 309 57 341 51 373 51 C 423 51 466 62 501 85 C 535 107 563 136 584 170 L 638 137 C 613 94 578 59 532 31 C 486 3 432 -10 368 -10 Z M 367 786 L 367 786 Z M 513 786 L 453 786 L 367 912 L 280 786 L 222 786 L 336 956 L 399 956 L 513 786 Z" unicode="Ĉ" />
<glyph horiz-adv-x="500" d="M 38 0 L 38 0 Z M 429 141 L 474 105 C 466 92 456 79 445 65 C 433 51 420 39 404 28 C 388 17 370 8 350 1 C 329 -5 305 -9 278 -9 C 242 -9 209 -2 179 11 C 149 25 124 44 103 68 C 82 92 66 120 55 154 C 43 187 38 223 38 263 C 38 300 43 335 55 369 C 67 402 83 431 104 456 C 125 481 150 501 180 516 C 210 530 243 538 279 538 C 305 538 329 534 351 527 C 372 519 391 510 407 499 C 423 487 436 474 447 460 C 457 445 466 431 472 417 L 419 389 C 408 411 391 431 369 451 C 346 470 315 480 277 480 C 251 480 227 474 206 463 C 184 451 166 436 152 416 C 137 396 125 373 117 347 C 109 321 105 293 105 264 C 105 200 121 149 153 109 C 185 69 227 49 281 49 C 302 49 321 52 337 58 C 353 64 366 71 378 80 C 390 89 400 99 408 110 C 416 120 423 131 429 141 Z M 277 585 L 277 585 Z M 423 585 L 363 585 L 277 711 L 190 585 L 132 585 L 246 755 L 309 755 L 423 585 Z" unicode="ĉ" />
<glyph horiz-adv-x="673" d="M 46 0 L 46 0 Z M 368 -10 C 324 -10 283 -1 244 15 C 205 31 171 56 142 88 C 112 120 89 159 72 206 C 54 252 46 305 46 365 C 46 421 53 472 69 518 C 85 564 107 604 135 637 C 163 669 197 695 237 713 C 277 731 320 740 368 740 C 430 740 481 728 523 706 C 564 683 597 652 622 612 L 566 576 C 545 605 519 629 488 649 C 457 668 417 678 369 678 C 292 678 231 650 185 595 C 139 539 117 463 117 365 C 117 313 124 267 139 227 C 153 187 172 155 196 129 C 220 103 247 83 278 70 C 309 57 341 51 373 51 C 423 51 466 62 501 85 C 535 107 563 136 584 170 L 638 137 C 613 94 578 59 532 31 C 486 3 432 -10 368 -10 Z M 367 788 L 367 788 Z M 397 788 L 337 788 L 337 932 L 397 932 L 397 788 Z" unicode="Ċ" />
<glyph horiz-adv-x="500" d="M 38 0 L 38 0 Z M 429 141 L 474 105 C 466 92 456 79 445 65 C 433 51 420 39 404 28 C 388 17 370 8 350 1 C 329 -5 305 -9 278 -9 C 242 -9 209 -2 179 11 C 149 25 124 44 103 68 C 82 92 66 120 55 154 C 43 187 38 223 38 263 C 38 300 43 335 55 369 C 67 402 83 431 104 456 C 125 481 150 501 180 516 C 210 530 243 538 279 538 C 305 538 329 534 351 527 C 372 519 391 510 407 499 C 423 487 436 474 447 460 C 457 445 466 431 472 417 L 419 389 C 408 411 391 431 369 451 C 346 470 315 480 277 480 C 251 480 227 474 206 463 C 184 451 166 436 152 416 C 137 396 125 373 117 347 C 109 321 105 293 105 264 C 105 200 121 149 153 109 C 185 69 227 49 281 49 C 302 49 321 52 337 58 C 353 64 366 71 378 80 C 390 89 400 99 408 110 C 416 120 423 131 429 141 Z M 277 587 L 277 587 Z M 307 587 L 247 587 L 247 731 L 307 731 L 307 587 Z" unicode="ċ" />
<glyph horiz-adv-x="673" d="M 46 0 L 46 0 Z M 368 -10 C 324 -10 283 -1 244 15 C 205 31 171 56 142 88 C 112 120 89 159 72 206 C 54 252 46 305 46 365 C 46 421 53 472 69 518 C 85 564 107 604 135 637 C 163 669 197 695 237 713 C 277 731 320 740 368 740 C 430 740 481 728 523 706 C 564 683 597 652 622 612 L 566 576 C 545 605 519 629 488 649 C 457 668 417 678 369 678 C 292 678 231 650 185 595 C 139 539 117 463 117 365 C 117 313 124 267 139 227 C 153 187 172 155 196 129 C 220 103 247 83 278 70 C 309 57 341 51 373 51 C 423 51 466 62 501 85 C 535 107 563 136 584 170 L 638 137 C 613 94 578 59 532 31 C 486 3 432 -10 368 -10 Z M 367 786 L 367 786 Z M 222 956 L 282 956 L 368 829 L 455 956 L 513 956 L 399 786 L 336 786 L 222 956 Z" unicode="Č" />
<glyph horiz-adv-x="500" d="M 38 0 L 38 0 Z M 429 141 L 474 105 C 466 92 456 79 445 65 C 433 51 420 39 404 28 C 388 17 370 8 350 1 C 329 -5 305 -9 278 -9 C 242 -9 209 -2 179 11 C 149 25 124 44 103 68 C 82 92 66 120 55 154 C 43 187 38 223 38 263 C 38 300 43 335 55 369 C 67 402 83 431 104 456 C 125 481 150 501 180 516 C 210 530 243 538 279 538 C 305 538 329 534 351 527 C 372 519 391 510 407 499 C 423 487 436 474 447 460 C 457 445 466 431 472 417 L 419 389 C 408 411 391 431 369 451 C 346 470 315 480 277 480 C 251 480 227 474 206 463 C 184 451 166 436 152 416 C 137 396 125 373 117 347 C 109 321 105 293 105 264 C 105 200 121 149 153 109 C 185 69 227 49 281 49 C 302 49 321 52 337 58 C 353 64 366 71 378 80 C 390 89 400 99 408 110 C 416 120 423 131 429 141 Z M 277 585 L 277 585 Z M 132 755 L 192 755 L 278 628 L 365 755 L 423 755 L 309 585 L 246 585 L 132 755 Z" unicode="č" />
<glyph horiz-adv-x="673" d="M 90 0 L 90 0 Z M 90 0 L 90 730 L 274 730 C 328 730 378 721 422 705 C 466 688 503 664 533 634 C 563 604 587 567 603 523 C 619 479 627 431 627 378 C 627 324 619 274 604 228 C 588 182 565 142 535 108 C 505 74 467 48 421 29 C 375 9 322 0 262 0 L 90 0 Z M 160 57 L 259 57 C 309 57 353 65 391 81 C 428 97 459 119 483 147 C 507 175 525 209 537 248 C 549 287 555 330 555 376 C 555 468 529 540 479 593 C 428 646 359 673 272 673 L 160 673 L 160 57 Z M 316 786 L 316 786 Z M 171 956 L 231 956 L 317 829 L 404 956 L 462 956 L 348 786 L 285 786 L 171 956 Z" unicode="Ď" />
<glyph horiz-adv-x="571" d="M 38 0 L 38 0 Z M 253 -9 C 221 -9 191 -2 165 11 C 138 24 115 42 97 66 C 78 90 63 118 53 152 C 43 186 38 223 38 263 C 38 303 43 340 55 374 C 66 408 81 437 101 461 C 121 485 144 503 171 517 C 197 531 226 538 257 538 C 299 538 336 524 368 496 C 400 468 420 436 430 399 L 430 800 L 493 800 L 493 0 L 434 0 L 434 136 C 430 120 423 104 413 87 C 403 70 390 54 375 40 C 360 26 342 14 322 5 C 301 -4 278 -9 253 -9 Z M 267 46 C 315 46 355 66 385 108 C 415 149 431 203 431 269 C 431 304 426 335 417 362 C 408 388 396 410 381 428 C 366 446 349 459 330 468 C 310 477 290 482 270 482 C 220 482 181 462 151 423 C 121 383 106 330 106 264 C 106 200 120 147 149 107 C 177 66 217 46 267 46 Z M 612 613 L 609 480 L 555 480 L 551 613 L 551 730 L 612 730 L 612 613 Z" unicode="ď" />
<glyph horiz-adv-x="673" d="M 31 0 L 31 0 Z M 627 366 C 627 315 619 267 604 223 C 588 178 565 139 535 107 C 505 74 467 48 421 29 C 375 9 322 0 262 0 L 90 0 L 90 333 L 31 333 L 31 385 L 90 385 L 90 730 L 274 730 C 328 730 378 721 422 704 C 466 687 503 663 533 632 C 563 600 587 562 603 517 C 619 472 627 422 627 366 Z M 158 54 L 253 54 C 307 54 354 62 392 79 C 430 95 462 118 486 146 C 510 174 527 206 538 244 C 549 282 555 322 555 364 C 555 463 529 540 479 594 C 429 648 360 676 273 676 L 158 676 L 158 385 L 343 385 L 343 333 L 158 333 L 158 54 Z" unicode="Đ" />
<glyph horiz-adv-x="571" d="M 434 136 C 430 120 423 104 413 87 C 403 70 390 54 375 40 C 360 26 342 14 322 5 C 301 -4 278 -9 253 -9 C 221 -9 191 -2 165 11 C 138 24 115 42 97 66 C 78 90 63 118 53 152 C 43 186 38 223 38 263 C 38 303 43 340 55 374 C 66 408 81 437 101 461 C 121 485 144 503 171 517 C 197 531 226 538 257 538 C 299 538 336 524 368 496 C 400 468 420 436 430 399 L 430 637 L 263 637 L 263 693 L 430 693 L 430 800 L 493 800 L 493 693 L 567 693 L 567 637 L 493 637 L 493 0 L 434 0 L 434 136 Z M 267 46 C 315 46 355 66 385 108 C 415 149 431 203 431 269 C 431 304 426 335 417 362 C 408 388 396 410 381 428 C 366 446 349 459 330 468 C 310 477 290 482 270 482 C 220 482 181 462 151 423 C 121 383 106 330 106 264 C 106 200 120 147 149 107 C 177 66 217 46 267 46 Z" unicode="đ" />
<glyph horiz-adv-x="513" d="M 90 0 L 90 0 Z M 467 0 L 90 0 L 90 730 L 449 730 L 449 669 L 159 669 L 159 393 L 438 393 L 438 334 L 159 334 L 159 61 L 467 61 L 467 0 Z M 275 809 L 275 809 Z M 396 809 L 154 809 L 154 864 L 396 864 L 396 809 Z" unicode="Ē" />
<glyph horiz-adv-x="538" d="M 38 0 L 38 0 Z M 278 -9 C 243 -9 211 -2 181 10 C 151 22 126 40 105 64 C 84 87 68 116 56 150 C 44 184 38 222 38 264 C 38 302 44 338 56 372 C 68 405 84 434 105 459 C 126 483 151 503 180 517 C 208 531 239 538 273 538 C 341 538 396 511 438 459 C 480 407 501 336 502 247 L 103 247 C 104 190 120 143 152 105 C 184 67 226 49 280 49 C 321 49 354 56 380 72 C 405 88 426 106 443 127 L 480 85 C 459 59 433 37 402 19 C 370 0 329 -9 278 -9 Z M 102 295 L 436 295 C 435 349 419 394 389 430 C 358 465 319 483 272 483 C 248 483 226 478 206 468 C 186 458 168 445 154 428 C 139 411 127 391 118 368 C 109 345 104 321 102 295 Z M 272 608 L 272 608 Z M 393 608 L 151 608 L 151 663 L 393 663 L 393 608 Z" unicode="ē" />
<glyph horiz-adv-x="513" d="M 90 0 L 90 0 Z M 467 0 L 90 0 L 90 730 L 449 730 L 449 669 L 159 669 L 159 393 L 438 393 L 438 334 L 159 334 L 159 61 L 467 61 L 467 0 Z M 275 793 L 275 793 Z M 359 948 L 414 948 C 410 894 395 854 370 830 C 344 805 313 793 275 793 C 237 793 205 805 180 830 C 154 854 140 894 136 948 L 191 948 C 193 917 201 891 214 871 C 226 850 247 840 275 840 C 303 840 323 849 336 869 C 349 889 357 915 359 948 Z" unicode="Ĕ" />
<glyph horiz-adv-x="538" d="M 38 0 L 38 0 Z M 278 -9 C 243 -9 211 -2 181 10 C 151 22 126 40 105 64 C 84 87 68 116 56 150 C 44 184 38 222 38 264 C 38 302 44 338 56 372 C 68 405 84 434 105 459 C 126 483 151 503 180 517 C 208 531 239 538 273 538 C 341 538 396 511 438 459 C 480 407 501 336 502 247 L 103 247 C 104 190 120 143 152 105 C 184 67 226 49 280 49 C 321 49 354 56 380 72 C 405 88 426 106 443 127 L 480 85 C 459 59 433 37 402 19 C 370 0 329 -9 278 -9 Z M 102 295 L 436 295 C 435 349 419 394 389 430 C 358 465 319 483 272 483 C 248 483 226 478 206 468 C 186 458 168 445 154 428 C 139 411 127 391 118 368 C 109 345 104 321 102 295 Z M 272 592 L 272 592 Z M 356 747 L 411 747 C 407 693 392 653 367 629 C 341 604 310 592 272 592 C 234 592 202 604 177 629 C 151 653 137 693 133 747 L 188 747 C 190 716 198 690 211 670 C 223 649 244 639 272 639 C 300 639 320 648 333 668 C 346 688 354 714 356 747 Z" unicode="ĕ" />
<glyph horiz-adv-x="513" d="M 90 0 L 90 0 Z M 467 0 L 90 0 L 90 730 L 449 730 L 449 669 L 159 669 L 159 393 L 438 393 L 438 334 L 159 334 L 159 61 L 467 61 L 467 0 Z M 275 788 L 275 788 Z M 305 788 L 245 788 L 245 932 L 305 932 L 305 788 Z" unicode="Ė" />
<glyph horiz-adv-x="538" d="M 38 0 L 38 0 Z M 278 -9 C 243 -9 211 -2 181 10 C 151 22 126 40 105 64 C 84 87 68 116 56 150 C 44 184 38 222 38 264 C 38 302 44 338 56 372 C 68 405 84 434 105 459 C 126 483 151 503 180 517 C 208 531 239 538 273 538 C 341 538 396 511 438 459 C 480 407 501 336 502 247 L 103 247 C 104 190 120 143 152 105 C 184 67 226 49 280 49 C 321 49 354 56 380 72 C 405 88 426 106 443 127 L 480 85 C 459 59 433 37 402 19 C 370 0 329 -9 278 -9 Z M 102 295 L 436 295 C 435 349 419 394 389 430 C 358 465 319 483 272 483 C 248 483 226 478 206 468 C 186 458 168 445 154 428 C 139 411 127 391 118 368 C 109 345 104 321 102 295 Z M 272 587 L 272 587 Z M 302 587 L 242 587 L 242 731 L 302 731 L 302 587 Z" unicode="ė" />
<glyph horiz-adv-x="513" d="M 90 0 L 90 0 Z M 467 0 L 90 0 L 90 730 L 449 730 L 449 669 L 159 669 L 159 393 L 438 393 L 438 334 L 159 334 L 159 61 L 467 61 L 467 0 Z M 425 -9 L 425 -9 Z M 536 -110 L 556 -136 C 537 -155 515 -170 491 -180 C 467 -190 440 -196 411 -196 C 379 -196 353 -188 335 -174 C 317 -160 308 -141 308 -119 C 308 -96 318 -74 339 -53 C 359 -31 390 -13 430 2 L 467 1 C 433 -13 408 -29 390 -45 C 372 -61 364 -77 364 -94 C 364 -110 370 -123 383 -133 C 395 -143 411 -148 431 -148 C 453 -148 473 -144 491 -137 C 509 -129 524 -120 536 -110 Z" unicode="Ę" />
<glyph horiz-adv-x="538" d="M 38 0 L 38 0 Z M 278 -9 C 243 -9 211 -2 181 10 C 151 22 126 40 105 64 C 84 87 68 116 56 150 C 44 184 38 222 38 264 C 38 302 44 338 56 372 C 68 405 84 434 105 459 C 126 483 151 503 180 517 C 208 531 239 538 273 538 C 341 538 396 511 438 459 C 480 407 501 336 502 247 L 103 247 C 104 190 120 143 152 105 C 184 67 226 49 280 49 C 321 49 354 56 380 72 C 405 88 426 106 443 127 L 480 85 C 459 59 433 37 402 19 C 370 0 329 -9 278 -9 Z M 102 295 L 436 295 C 435 349 419 394 389 430 C 358 465 319 483 272 483 C 248 483 226 478 206 468 C 186 458 168 445 154 428 C 139 411 127 391 118 368 C 109 345 104 321 102 295 Z M 314 -9 L 314 -9 Z M 425 -110 L 445 -136 C 426 -155 404 -170 380 -180 C 356 -190 329 -196 300 -196 C 268 -196 242 -188 224 -174 C 206 -160 197 -141 197 -119 C 197 -96 207 -74 228 -53 C 248 -31 279 -13 319 2 L 356 1 C 322 -13 297 -29 279 -45 C 261 -61 253 -77 253 -94 C 253 -110 259 -123 272 -133 C 284 -143 300 -148 320 -148 C 342 -148 362 -144 380 -137 C 398 -129 413 -120 425 -110 Z" unicode="ę" />
<glyph horiz-adv-x="513" d="M 90 0 L 90 0 Z M 467 0 L 90 0 L 90 730 L 449 730 L 449 669 L 159 669 L 159 393 L 438 393 L 438 334 L 159 334 L 159 61 L 467 61 L 467 0 Z M 275 786 L 275 786 Z M 130 956 L 190 956 L 276 829 L 363 956 L 421 956 L 307 786 L 244 786 L 130 956 Z" unicode="Ě" />
<glyph horiz-adv-x="538" d="M 38 0 L 38 0 Z M 278 -9 C 243 -9 211 -2 181 10 C 151 22 126 40 105 64 C 84 87 68 116 56 150 C 44 184 38 222 38 264 C 38 302 44 338 56 372 C 68 405 84 434 105 459 C 126 483 151 503 180 517 C 208 531 239 538 273 538 C 341 538 396 511 438 459 C 480 407 501 336 502 247 L 103 247 C 104 190 120 143 152 105 C 184 67 226 49 280 49 C 321 49 354 56 380 72 C 405 88 426 106 443 127 L 480 85 C 459 59 433 37 402 19 C 370 0 329 -9 278 -9 Z M 102 295 L 436 295 C 435 349 419 394 389 430 C 358 465 319 483 272 483 C 248 483 226 478 206 468 C 186 458 168 445 154 428 C 139 411 127 391 118 368 C 109 345 104 321 102 295 Z M 272 585 L 272 585 Z M 127 755 L 187 755 L 273 628 L 360 755 L 418 755 L 304 585 L 241 585 L 127 755 Z" unicode="ě" />
<glyph horiz-adv-x="713" d="M 46 0 L 46 0 Z M 380 353 L 661 353 L 661 142 C 634 94 595 56 545 30 C 495 3 438 -10 376 -10 C 330 -10 287 -1 247 17 C 207 35 172 60 142 92 C 112 124 89 164 72 210 C 54 256 46 308 46 365 C 46 421 54 473 72 519 C 89 565 112 605 142 638 C 172 670 207 695 248 713 C 288 731 332 740 378 740 C 441 740 492 728 532 706 C 572 684 603 658 625 630 L 577 583 C 556 608 530 630 499 649 C 468 667 428 677 378 677 C 341 677 307 670 275 656 C 243 642 215 622 191 596 C 167 569 149 536 136 498 C 122 459 116 415 116 365 C 116 317 123 273 137 233 C 151 193 169 160 193 133 C 217 105 245 84 277 69 C 309 54 342 47 378 47 C 426 47 469 56 509 76 C 549 96 578 124 597 162 L 597 293 L 380 293 L 380 353 Z M 376 786 L 376 786 Z M 522 786 L 462 786 L 376 912 L 289 786 L 231 786 L 345 956 L 408 956 L 522 786 Z" unicode="Ĝ" />
<glyph horiz-adv-x="565" d="M 39 0 L 39 0 Z M 254 2 C 222 2 192 8 166 21 C 140 34 117 52 98 75 C 79 98 64 126 54 158 C 44 190 39 226 39 266 C 39 306 44 342 55 376 C 65 410 80 438 99 462 C 118 486 141 504 167 517 C 193 530 222 537 254 537 C 298 537 336 523 368 497 C 400 471 421 439 433 401 L 433 529 L 492 529 L 492 53 C 492 9 484 -29 469 -61 C 454 -93 435 -119 411 -139 C 387 -159 361 -175 331 -185 C 301 -195 271 -200 242 -200 C 198 -200 165 -196 141 -189 C 117 -182 98 -175 86 -168 L 114 -114 C 124 -120 140 -127 160 -134 C 180 -140 206 -144 237 -144 C 262 -144 286 -139 310 -131 C 333 -123 353 -110 371 -94 C 389 -78 403 -57 414 -32 C 424 -6 430 22 430 56 L 430 151 C 425 133 417 115 407 97 C 396 79 383 63 369 49 C 354 35 337 23 317 15 C 297 6 276 2 254 2 Z M 271 56 C 290 56 309 60 328 69 C 347 77 364 91 379 109 C 394 127 406 149 416 177 C 425 205 430 237 430 275 C 430 307 425 336 417 362 C 408 388 396 409 381 426 C 366 443 349 456 330 465 C 310 474 290 479 270 479 C 222 479 182 459 152 420 C 121 381 106 329 106 264 C 106 200 120 149 149 112 C 178 74 219 56 271 56 Z M 268 585 L 268 585 Z M 414 585 L 354 585 L 268 711 L 181 585 L 123 585 L 237 755 L 300 755 L 414 585 Z" unicode="ĝ" />
<glyph horiz-adv-x="713" d="M 46 0 L 46 0 Z M 380 353 L 661 353 L 661 142 C 634 94 595 56 545 30 C 495 3 438 -10 376 -10 C 330 -10 287 -1 247 17 C 207 35 172 60 142 92 C 112 124 89 164 72 210 C 54 256 46 308 46 365 C 46 421 54 473 72 519 C 89 565 112 605 142 638 C 172 670 207 695 248 713 C 288 731 332 740 378 740 C 441 740 492 728 532 706 C 572 684 603 658 625 630 L 577 583 C 556 608 530 630 499 649 C 468 667 428 677 378 677 C 341 677 307 670 275 656 C 243 642 215 622 191 596 C 167 569 149 536 136 498 C 122 459 116 415 116 365 C 116 317 123 273 137 233 C 151 193 169 160 193 133 C 217 105 245 84 277 69 C 309 54 342 47 378 47 C 426 47 469 56 509 76 C 549 96 578 124 597 162 L 597 293 L 380 293 L 380 353 Z M 376 793 L 376 793 Z M 460 948 L 515 948 C 511 894 496 854 471 830 C 445 805 414 793 376 793 C 338 793 306 805 281 830 C 255 854 241 894 237 948 L 292 948 C 294 917 302 891 315 871 C 327 850 348 840 376 840 C 404 840 424 849 437 869 C 450 889 458 915 460 948 Z" unicode="Ğ" />
<glyph horiz-adv-x="565" d="M 39 0 L 39 0 Z M 254 2 C 222 2 192 8 166 21 C 140 34 117 52 98 75 C 79 98 64 126 54 158 C 44 190 39 226 39 266 C 39 306 44 342 55 376 C 65 410 80 438 99 462 C 118 486 141 504 167 517 C 193 530 222 537 254 537 C 298 537 336 523 368 497 C 400 471 421 439 433 401 L 433 529 L 492 529 L 492 53 C 492 9 484 -29 469 -61 C 454 -93 435 -119 411 -139 C 387 -159 361 -175 331 -185 C 301 -195 271 -200 242 -200 C 198 -200 165 -196 141 -189 C 117 -182 98 -175 86 -168 L 114 -114 C 124 -120 140 -127 160 -134 C 180 -140 206 -144 237 -144 C 262 -144 286 -139 310 -131 C 333 -123 353 -110 371 -94 C 389 -78 403 -57 414 -32 C 424 -6 430 22 430 56 L 430 151 C 425 133 417 115 407 97 C 396 79 383 63 369 49 C 354 35 337 23 317 15 C 297 6 276 2 254 2 Z M 271 56 C 290 56 309 60 328 69 C 347 77 364 91 379 109 C 394 127 406 149 416 177 C 425 205 430 237 430 275 C 430 307 425 336 417 362 C 408 388 396 409 381 426 C 366 443 349 456 330 465 C 310 474 290 479 270 479 C 222 479 182 459 152 420 C 121 381 106 329 106 264 C 106 200 120 149 149 112 C 178 74 219 56 271 56 Z M 268 592 L 268 592 Z M 352 747 L 407 747 C 403 693 388 653 363 629 C 337 604 306 592 268 592 C 230 592 198 604 173 629 C 147 653 133 693 129 747 L 184 747 C 186 716 194 690 207 670 C 219 649 240 639 268 639 C 296 639 316 648 329 668 C 342 688 350 714 352 747 Z" unicode="ğ" />
<glyph horiz-adv-x="713" d="M 46 0 L 46 0 Z M 380 353 L 661 353 L 661 142 C 634 94 595 56 545 30 C 495 3 438 -10 376 -10 C 330 -10 287 -1 247 17 C 207 35 172 60 142 92 C 112 124 89 164 72 210 C 54 256 46 308 46 365 C 46 421 54 473 72 519 C 89 565 112 605 142 638 C 172 670 207 695 248 713 C 288 731 332 740 378 740 C 441 740 492 728 532 706 C 572 684 603 658 625 630 L 577 583 C 556 608 530 630 499 649 C 468 667 428 677 378 677 C 341 677 307 670 275 656 C 243 642 215 622 191 596 C 167 569 149 536 136 498 C 122 459 116 415 116 365 C 116 317 123 273 137 233 C 151 193 169 160 193 133 C 217 105 245 84 277 69 C 309 54 342 47 378 47 C 426 47 469 56 509 76 C 549 96 578 124 597 162 L 597 293 L 380 293 L 380 353 Z M 376 788 L 376 788 Z M 406 788 L 346 788 L 346 932 L 406 932 L 406 788 Z" unicode="Ġ" />
<glyph horiz-adv-x="565" d="M 39 0 L 39 0 Z M 254 2 C 222 2 192 8 166 21 C 140 34 117 52 98 75 C 79 98 64 126 54 158 C 44 190 39 226 39 266 C 39 306 44 342 55 376 C 65 410 80 438 99 462 C 118 486 141 504 167 517 C 193 530 222 537 254 537 C 298 537 336 523 368 497 C 400 471 421 439 433 401 L 433 529 L 492 529 L 492 53 C 492 9 484 -29 469 -61 C 454 -93 435 -119 411 -139 C 387 -159 361 -175 331 -185 C 301 -195 271 -200 242 -200 C 198 -200 165 -196 141 -189 C 117 -182 98 -175 86 -168 L 114 -114 C 124 -120 140 -127 160 -134 C 180 -140 206 -144 237 -144 C 262 -144 286 -139 310 -131 C 333 -123 353 -110 371 -94 C 389 -78 403 -57 414 -32 C 424 -6 430 22 430 56 L 430 151 C 425 133 417 115 407 97 C 396 79 383 63 369 49 C 354 35 337 23 317 15 C 297 6 276 2 254 2 Z M 271 56 C 290 56 309 60 328 69 C 347 77 364 91 379 109 C 394 127 406 149 416 177 C 425 205 430 237 430 275 C 430 307 425 336 417 362 C 408 388 396 409 381 426 C 366 443 349 456 330 465 C 310 474 290 479 270 479 C 222 479 182 459 152 420 C 121 381 106 329 106 264 C 106 200 120 149 149 112 C 178 74 219 56 271 56 Z M 268 587 L 268 587 Z M 298 587 L 238 587 L 238 731 L 298 731 L 298 587 Z" unicode="ġ" />
<glyph horiz-adv-x="713" d="M 46 0 L 46 0 Z M 380 353 L 661 353 L 661 142 C 634 94 595 56 545 30 C 495 3 438 -10 376 -10 C 330 -10 287 -1 247 17 C 207 35 172 60 142 92 C 112 124 89 164 72 210 C 54 256 46 308 46 365 C 46 421 54 473 72 519 C 89 565 112 605 142 638 C 172 670 207 695 248 713 C 288 731 332 740 378 740 C 441 740 492 728 532 706 C 572 684 603 658 625 630 L 577 583 C 556 608 530 630 499 649 C 468 667 428 677 378 677 C 341 677 307 670 275 656 C 243 642 215 622 191 596 C 167 569 149 536 136 498 C 122 459 116 415 116 365 C 116 317 123 273 137 233 C 151 193 169 160 193 133 C 217 105 245 84 277 69 C 309 54 342 47 378 47 C 426 47 469 56 509 76 C 549 96 578 124 597 162 L 597 293 L 380 293 L 380 353 Z" unicode="Ģ" />
<glyph horiz-adv-x="565" d="M 39 0 L 39 0 Z M 254 2 C 222 2 192 8 166 21 C 140 34 117 52 98 75 C 79 98 64 126 54 158 C 44 190 39 226 39 266 C 39 306 44 342 55 376 C 65 410 80 438 99 462 C 118 486 141 504 167 517 C 193 530 222 537 254 537 C 298 537 336 523 368 497 C 400 471 421 439 433 401 L 433 529 L 492 529 L 492 53 C 492 9 484 -29 469 -61 C 454 -93 435 -119 411 -139 C 387 -159 361 -175 331 -185 C 301 -195 271 -200 242 -200 C 198 -200 165 -196 141 -189 C 117 -182 98 -175 86 -168 L 114 -114 C 124 -120 140 -127 160 -134 C 180 -140 206 -144 237 -144 C 262 -144 286 -139 310 -131 C 333 -123 353 -110 371 -94 C 389 -78 403 -57 414 -32 C 424 -6 430 22 430 56 L 430 151 C 425 133 417 115 407 97 C 396 79 383 63 369 49 C 354 35 337 23 317 15 C 297 6 276 2 254 2 Z M 271 56 C 290 56 309 60 328 69 C 347 77 364 91 379 109 C 394 127 406 149 416 177 C 425 205 430 237 430 275 C 430 307 425 336 417 362 C 408 388 396 409 381 426 C 366 443 349 456 330 465 C 310 474 290 479 270 479 C 222 479 182 459 152 420 C 121 381 106 329 106 264 C 106 200 120 149 149 112 C 178 74 219 56 271 56 Z" unicode="ģ" />
<glyph horiz-adv-x="684" d="M 90 0 L 90 0 Z M 594 0 L 524 0 L 524 331 L 160 331 L 160 0 L 90 0 L 90 730 L 160 730 L 160 391 L 524 391 L 524 730 L 594 730 L 594 0 Z M 341 786 L 341 786 Z M 487 786 L 427 786 L 341 912 L 254 786 L 196 786 L 310 956 L 373 956 L 487 786 Z" unicode="Ĥ" />
<glyph horiz-adv-x="549" d="M 78 0 L 78 0 Z M 476 0 L 412 0 L 412 375 C 412 409 400 436 376 454 C 352 472 323 482 290 482 C 272 482 255 479 237 474 C 219 468 204 460 190 449 C 176 438 164 424 156 407 C 147 389 143 369 143 346 L 143 0 L 78 0 L 78 800 L 138 800 L 138 428 C 146 460 166 486 198 507 C 229 527 267 538 311 538 C 333 538 354 535 374 529 C 394 523 411 514 426 502 C 441 490 453 474 462 456 C 471 438 476 416 476 392 L 476 0 Z M 301 856 L 301 856 Z M 447 856 L 387 856 L 301 982 L 214 856 L 156 856 L 270 1026 L 333 1026 L 447 856 Z" unicode="ĥ" />
<glyph horiz-adv-x="684" d="M 160 331 L 160 0 L 90 0 L 90 553 L 8 553 L 8 609 L 90 609 L 90 730 L 160 730 L 160 609 L 524 609 L 524 730 L 594 730 L 594 609 L 676 609 L 676 553 L 594 553 L 594 0 L 524 0 L 524 331 L 160 331 Z M 160 391 L 524 391 L 524 553 L 160 553 L 160 391 Z" unicode="Ħ" />
<glyph horiz-adv-x="549" d="M 143 346 L 143 0 L 78 0 L 78 637 L 7 637 L 7 693 L 78 693 L 78 800 L 138 800 L 138 693 L 309 693 L 309 637 L 138 637 L 138 428 C 146 460 166 486 198 507 C 229 527 267 538 311 538 C 333 538 354 535 374 529 C 394 523 411 514 426 502 C 441 490 453 474 462 456 C 471 438 476 416 476 392 L 476 0 L 412 0 L 412 375 C 412 409 400 436 376 454 C 352 472 323 482 290 482 C 272 482 255 479 237 474 C 219 468 204 460 190 449 C 176 438 164 424 156 407 C 147 389 143 369 143 346 Z" unicode="ħ" />
<glyph horiz-adv-x="259" d="M 0 0 L 0 0 Z M 165 0 L 94 0 L 94 730 L 165 730 L 165 0 Z M 129 794 L 129 794 Z M 237 922 L 288 922 C 288 878 281 845 269 825 C 257 804 240 794 218 794 C 200 794 183 798 169 807 C 155 816 142 825 131 835 C 119 844 108 853 97 862 C 86 871 75 876 64 876 C 53 876 43 869 35 856 C 27 843 22 824 22 799 L -29 799 C -29 841 -20 873 -4 894 C 12 915 31 926 51 926 C 67 926 82 921 95 912 C 108 903 121 893 133 883 C 143 873 154 865 165 857 C 175 849 186 846 197 846 C 207 846 216 852 224 865 C 232 878 236 897 237 922 Z" unicode="Ĩ" />
<glyph horiz-adv-x="225" d="M 0 0 L 0 0 Z M 145 0 L 80 0 L 80 529 L 145 529 L 145 0 Z M 112 593 L 112 593 Z M 220 721 L 271 721 C 271 677 264 644 252 624 C 240 603 223 593 201 593 C 183 593 166 597 152 606 C 138 615 125 624 114 634 C 102 643 91 652 80 661 C 69 670 58 675 47 675 C 36 675 26 668 18 655 C 10 642 5 623 5 598 L -46 598 C -46 640 -37 672 -21 693 C -4 714 14 725 34 725 C 50 725 65 720 78 711 C 91 702 104 692 116 682 C 126 672 137 664 148 656 C 158 648 169 645 180 645 C 190 645 199 651 207 664 C 215 677 219 696 220 721 Z" unicode="ĩ" />
<glyph horiz-adv-x="259" d="M 8 0 L 8 0 Z M 165 0 L 94 0 L 94 730 L 165 730 L 165 0 Z M 129 809 L 129 809 Z M 250 809 L 8 809 L 8 864 L 250 864 L 250 809 Z" unicode="Ī" />
<glyph horiz-adv-x="225" d="M 0 0 L 0 0 Z M 145 0 L 80 0 L 80 529 L 145 529 L 145 0 Z M 112 608 L 112 608 Z M 233 608 L -9 608 L -9 663 L 233 663 L 233 608 Z" unicode="ī" />
<glyph horiz-adv-x="259" d="M 0 0 L 0 0 Z M 165 0 L 94 0 L 94 730 L 165 730 L 165 0 Z M 129 793 L 129 793 Z M 213 948 L 268 948 C 264 894 249 854 224 830 C 198 805 167 793 129 793 C 91 793 59 805 34 830 C 8 854 -6 894 -10 948 L 45 948 C 47 917 55 891 68 871 C 80 850 101 840 129 840 C 157 840 177 849 190 869 C 203 889 211 915 213 948 Z" unicode="Ĭ" />
<glyph horiz-adv-x="225" d="M 0 0 L 0 0 Z M 145 0 L 80 0 L 80 529 L 145 529 L 145 0 Z M 112 592 L 112 592 Z M 196 747 L 251 747 C 247 693 232 653 207 629 C 181 604 150 592 112 592 C 74 592 42 604 17 629 C -8 653 -23 693 -27 747 L 28 747 C 30 716 38 690 51 670 C 63 649 84 639 112 639 C 140 639 160 648 173 668 C 186 688 194 714 196 747 Z" unicode="ĭ" />
<glyph horiz-adv-x="259" d="M 0 0 L 0 0 Z M 165 0 L 94 0 L 94 730 L 165 730 L 165 0 Z M 96 -9 L 96 -9 Z M 207 -110 L 227 -136 C 208 -155 186 -170 162 -180 C 138 -190 111 -196 82 -196 C 50 -196 24 -188 6 -174 C -11 -160 -21 -141 -21 -119 C -21 -96 -10 -74 10 -53 C 30 -31 61 -13 101 2 L 138 1 C 104 -13 79 -29 61 -45 C 43 -61 35 -77 35 -94 C 35 -110 41 -123 54 -133 C 66 -143 82 -148 102 -148 C 124 -148 144 -144 162 -137 C 180 -129 195 -120 207 -110 Z" unicode="Į" />
<glyph horiz-adv-x="225" d="M 0 0 L 0 0 Z M 77 649 L 77 724 L 148 724 L 148 649 L 77 649 Z M 80 0 L 80 529 L 145 529 L 145 0 L 80 0 Z M 78 -9 L 78 -9 Z M 189 -110 L 209 -136 C 190 -155 168 -170 144 -180 C 120 -190 93 -196 64 -196 C 32 -196 6 -188 -11 -174 C -29 -160 -39 -141 -39 -119 C -39 -96 -28 -74 -8 -53 C 12 -31 43 -13 83 2 L 120 1 C 86 -13 61 -29 43 -45 C 25 -61 17 -77 17 -94 C 17 -110 23 -123 36 -133 C 48 -143 64 -148 84 -148 C 106 -148 126 -144 144 -137 C 162 -129 177 -120 189 -110 Z" unicode="į" />
<glyph horiz-adv-x="259" d="M 94 0 L 94 0 Z M 165 0 L 94 0 L 94 730 L 165 730 L 165 0 Z M 129 788 L 129 788 Z M 159 788 L 99 788 L 99 932 L 159 932 L 159 788 Z" unicode="İ" />
<glyph horiz-adv-x="225" d="M 145 0 L 80 0 L 80 529 L 145 529 L 145 0 Z" unicode="ı" />
<glyph horiz-adv-x="585" d="M 94 0 L 94 0 Z M 165 0 L 94 0 L 94 730 L 165 730 L 165 0 Z M 501 730 L 501 187 C 501 160 496 135 488 111 C 480 87 468 66 452 48 C 436 30 417 15 393 5 C 369 -5 341 -11 311 -11 C 296 -11 280 -9 262 -7 C 244 -4 230 0 220 6 L 243 63 C 248 59 256 56 268 54 C 279 52 291 51 303 51 C 343 51 375 64 397 91 C 419 118 431 150 431 188 L 431 730 L 501 730 Z" unicode="Ĳ" />
<glyph horiz-adv-x="434" d="M 77 0 L 77 0 Z M 77 649 L 77 724 L 148 724 L 148 649 L 77 649 Z M 80 0 L 80 529 L 145 529 L 145 0 L 80 0 Z M 362 649 L 292 649 L 292 724 L 362 724 L 362 649 Z M 360 529 L 360 -45 C 360 -91 347 -125 323 -149 C 299 -173 271 -185 239 -185 C 223 -185 207 -183 192 -179 C 177 -175 165 -170 157 -164 L 178 -115 C 184 -118 192 -121 201 -124 C 210 -126 220 -128 232 -128 C 248 -128 262 -120 275 -105 C 288 -89 295 -68 295 -42 L 295 529 L 360 529 Z" unicode="ĳ" />
<glyph horiz-adv-x="376" d="M 9 0 L 9 0 Z M 290 730 L 290 187 C 290 160 285 135 277 111 C 269 87 257 66 241 48 C 225 30 206 15 182 5 C 158 -5 130 -11 100 -11 C 85 -11 69 -9 51 -7 C 33 -4 19 0 9 6 L 32 63 C 37 59 45 56 57 54 C 68 52 80 51 92 51 C 132 51 164 64 186 91 C 208 118 220 150 220 188 L 220 730 L 290 730 Z M 254 786 L 254 786 Z M 400 786 L 340 786 L 254 912 L 167 786 L 109 786 L 223 956 L 286 956 L 400 786 Z" unicode="Ĵ" />
<glyph horiz-adv-x="244" d="M 0 0 L 0 0 Z M 170 529 L 170 -47 C 170 -95 156 -131 130 -157 C 103 -183 73 -196 41 -196 C 25 -196 10 -193 -5 -189 C -20 -185 -32 -180 -41 -174 L -20 -126 C -13 -129 -5 -132 3 -134 C 12 -136 22 -138 34 -138 C 50 -138 66 -129 82 -113 C 97 -96 105 -73 105 -43 L 105 529 L 170 529 Z M 135 585 L 135 585 Z M 281 585 L 221 585 L 135 711 L 48 585 L -10 585 L 104 755 L 167 755 L 281 585 Z" unicode="ĵ" />
<glyph horiz-adv-x="596" d="M 90 0 L 90 0 Z M 583 0 L 500 0 L 257 354 L 160 231 L 160 0 L 90 0 L 90 730 L 160 730 L 160 317 L 472 730 L 548 730 L 304 409 L 583 0 Z M 296 -82 L 296 -82 Z M 376 -82 C 370 -131 357 -178 337 -222 C 317 -266 293 -302 266 -332 L 217 -309 C 225 -299 233 -285 243 -269 C 252 -252 261 -234 269 -214 C 277 -194 285 -172 292 -150 C 298 -127 303 -104 307 -82 L 376 -82 Z" unicode="Ķ" />
<glyph horiz-adv-x="487" d="M 78 0 L 78 0 Z M 499 1 L 426 0 L 242 261 L 143 145 L 143 0 L 78 0 L 78 800 L 142 800 L 142 219 L 388 529 L 458 529 L 286 310 L 499 1 Z M 254 -82 L 254 -82 Z M 334 -82 C 328 -131 315 -178 295 -222 C 275 -266 251 -302 224 -332 L 175 -309 C 183 -299 191 -285 201 -269 C 210 -252 219 -234 227 -214 C 235 -194 243 -172 250 -150 C 256 -127 261 -104 265 -82 L 334 -82 Z" unicode="ķ" />
<glyph horiz-adv-x="487" d="M 499 1 L 426 0 L 242 261 L 143 145 L 143 0 L 78 0 L 78 529 L 142 529 L 142 219 L 388 529 L 458 529 L 286 310 L 499 1 Z" unicode="ĸ" />
<glyph horiz-adv-x="461" d="M 90 0 L 90 0 Z M 452 0 L 90 0 L 90 730 L 160 730 L 160 61 L 452 61 L 452 0 Z M 297 789 L 297 789 Z M 210 789 L 308 956 L 384 956 L 275 789 L 210 789 Z" unicode="Ĺ" />
<glyph horiz-adv-x="248" d="M 74 0 L 74 0 Z M 74 99 L 74 800 L 139 800 L 139 116 C 139 95 144 79 154 69 C 164 58 178 53 196 53 C 202 53 209 53 217 54 C 224 55 230 57 235 59 L 240 3 C 234 1 225 -1 214 -3 C 203 -5 192 -6 181 -6 C 152 -6 127 2 106 20 C 84 37 74 63 74 99 Z M 165 859 L 165 859 Z M 78 859 L 176 1026 L 252 1026 L 143 859 L 78 859 Z" unicode="ĺ" />
<glyph horiz-adv-x="461" d="M 90 0 L 90 0 Z M 452 0 L 90 0 L 90 730 L 160 730 L 160 61 L 452 61 L 452 0 Z M 252 -82 L 252 -82 Z M 332 -82 C 326 -131 313 -178 293 -222 C 273 -266 249 -302 222 -332 L 173 -309 C 181 -299 189 -285 199 -269 C 208 -252 217 -234 225 -214 C 233 -194 241 -172 248 -150 C 254 -127 259 -104 263 -82 L 332 -82 Z" unicode="Ļ" />
<glyph horiz-adv-x="248" d="M 39 0 L 39 0 Z M 74 99 L 74 800 L 139 800 L 139 116 C 139 95 144 79 154 69 C 164 58 178 53 196 53 C 202 53 209 53 217 54 C 224 55 230 57 235 59 L 240 3 C 234 1 225 -1 214 -3 C 203 -5 192 -6 181 -6 C 152 -6 127 2 106 20 C 84 37 74 63 74 99 Z M 118 -82 L 118 -82 Z M 198 -82 C 192 -131 179 -178 159 -222 C 139 -266 115 -302 88 -332 L 39 -309 C 47 -299 55 -285 65 -269 C 74 -252 83 -234 91 -214 C 99 -194 107 -172 114 -150 C 120 -127 125 -104 129 -82 L 198 -82 Z" unicode="ļ" />
<glyph horiz-adv-x="461" d="M 90 0 L 90 0 Z M 452 0 L 90 0 L 90 730 L 160 730 L 160 61 L 452 61 L 452 0 Z M 479 613 L 476 480 L 422 480 L 418 613 L 418 730 L 479 730 L 479 613 Z" unicode="Ľ" />
<glyph horiz-adv-x="248" d="M 74 0 L 74 0 Z M 74 99 L 74 800 L 139 800 L 139 116 C 139 95 144 79 154 69 C 164 58 178 53 196 53 C 202 53 209 53 217 54 C 224 55 230 57 235 59 L 240 3 C 234 1 225 -1 214 -3 C 203 -5 192 -6 181 -6 C 152 -6 127 2 106 20 C 84 37 74 63 74 99 Z M 270 613 L 267 480 L 213 480 L 209 613 L 209 730 L 270 730 L 270 613 Z" unicode="ľ" />
<glyph horiz-adv-x="461" d="M 90 0 L 90 0 Z M 452 0 L 90 0 L 90 730 L 160 730 L 160 61 L 452 61 L 452 0 Z M 321 284 L 321 284 Z M 351 284 L 291 284 L 291 428 L 351 428 L 351 284 Z" unicode="Ŀ" />
<glyph horiz-adv-x="248" d="M 74 0 L 74 0 Z M 74 99 L 74 800 L 139 800 L 139 116 C 139 95 144 79 154 69 C 164 58 178 53 196 53 C 202 53 209 53 217 54 C 224 55 230 57 235 59 L 240 3 C 234 1 225 -1 214 -3 C 203 -5 192 -6 181 -6 C 152 -6 127 2 106 20 C 84 37 74 63 74 99 Z M 241 235 L 241 235 Z M 271 235 L 211 235 L 211 379 L 271 379 L 271 235 Z" unicode="ŀ" />
<glyph horiz-adv-x="461" d="M 438 57 L 438 0 L 90 0 L 90 277 L 29 252 L 5 302 L 90 337 L 90 730 L 160 730 L 160 366 L 345 443 L 368 392 L 160 306 L 160 57 L 438 57 Z" unicode="Ł" />
<glyph horiz-adv-x="248" d="M 242 3 C 236 1 228 -1 217 -3 C 206 -5 195 -6 185 -6 C 156 -6 131 2 110 20 C 88 37 78 63 78 99 L 78 284 L 19 257 L 2 301 L 78 336 L 78 800 L 143 800 L 143 366 L 226 405 L 245 362 L 143 315 L 143 117 C 143 95 148 79 158 69 C 168 58 181 53 199 53 C 205 53 212 53 220 54 C 227 55 233 57 237 59 L 242 3 Z" unicode="ł" />
<glyph horiz-adv-x="706" d="M 90 0 L 90 0 Z M 616 0 L 565 0 L 156 594 L 156 0 L 90 0 L 90 730 L 143 730 L 552 135 L 552 730 L 616 730 L 616 0 Z M 354 789 L 354 789 Z M 267 789 L 365 956 L 441 956 L 332 789 L 267 789 Z" unicode="Ń" />
<glyph horiz-adv-x="549" d="M 78 0 L 78 0 Z M 476 0 L 411 0 L 411 379 C 411 411 399 437 375 455 C 351 473 323 482 292 482 C 275 482 258 479 240 474 C 222 469 206 461 192 450 C 178 439 166 425 157 408 C 147 390 143 370 143 346 L 143 0 L 78 0 L 78 529 L 134 529 L 134 422 C 145 456 167 484 199 506 C 231 527 269 538 313 538 C 334 538 355 534 375 528 C 395 522 412 513 427 501 C 441 489 453 475 462 458 C 471 440 476 421 476 400 L 476 0 Z M 284 588 L 284 588 Z M 197 588 L 295 755 L 371 755 L 262 588 L 197 588 Z" unicode="ń" />
<glyph horiz-adv-x="706" d="M 90 0 L 90 0 Z M 616 0 L 565 0 L 156 594 L 156 0 L 90 0 L 90 730 L 143 730 L 552 135 L 552 730 L 616 730 L 616 0 Z M 339 -82 L 339 -82 Z M 419 -82 C 413 -131 400 -178 380 -222 C 360 -266 336 -302 309 -332 L 260 -309 C 268 -299 276 -285 286 -269 C 295 -252 304 -234 312 -214 C 320 -194 328 -172 335 -150 C 341 -127 346 -104 350 -82 L 419 -82 Z" unicode="Ņ" />
<glyph horiz-adv-x="549" d="M 78 0 L 78 0 Z M 476 0 L 411 0 L 411 379 C 411 411 399 437 375 455 C 351 473 323 482 292 482 C 275 482 258 479 240 474 C 222 469 206 461 192 450 C 178 439 166 425 157 408 C 147 390 143 370 143 346 L 143 0 L 78 0 L 78 529 L 134 529 L 134 422 C 145 456 167 484 199 506 C 231 527 269 538 313 538 C 334 538 355 534 375 528 C 395 522 412 513 427 501 C 441 489 453 475 462 458 C 471 440 476 421 476 400 L 476 0 Z M 254 -82 L 254 -82 Z M 334 -82 C 328 -131 315 -178 295 -222 C 275 -266 251 -302 224 -332 L 175 -309 C 183 -299 191 -285 201 -269 C 210 -252 219 -234 227 -214 C 235 -194 243 -172 250 -150 C 256 -127 261 -104 265 -82 L 334 -82 Z" unicode="ņ" />
<glyph horiz-adv-x="706" d="M 90 0 L 90 0 Z M 616 0 L 565 0 L 156 594 L 156 0 L 90 0 L 90 730 L 143 730 L 552 135 L 552 730 L 616 730 L 616 0 Z M 354 786 L 354 786 Z M 209 956 L 269 956 L 355 829 L 442 956 L 500 956 L 386 786 L 323 786 L 209 956 Z" unicode="Ň" />
<glyph horiz-adv-x="549" d="M 78 0 L 78 0 Z M 476 0 L 411 0 L 411 379 C 411 411 399 437 375 455 C 351 473 323 482 292 482 C 275 482 258 479 240 474 C 222 469 206 461 192 450 C 178 439 166 425 157 408 C 147 390 143 370 143 346 L 143 0 L 78 0 L 78 529 L 134 529 L 134 422 C 145 456 167 484 199 506 C 231 527 269 538 313 538 C 334 538 355 534 375 528 C 395 522 412 513 427 501 C 441 489 453 475 462 458 C 471 440 476 421 476 400 L 476 0 Z M 284 585 L 284 585 Z M 139 755 L 199 755 L 285 628 L 372 755 L 430 755 L 316 585 L 253 585 L 139 755 Z" unicode="ň" />
<glyph horiz-adv-x="706" d="M 552 730 L 616 730 L 616 -3 C 616 -60 600 -107 570 -144 C 539 -180 497 -199 445 -199 C 427 -199 408 -197 389 -193 C 370 -189 354 -184 342 -178 L 361 -123 C 369 -127 380 -131 394 -134 C 407 -137 422 -139 439 -139 C 473 -139 500 -125 521 -98 C 541 -70 552 -38 552 0 L 552 19 L 156 594 L 156 0 L 90 0 L 90 730 L 143 730 L 552 135 L 552 730 Z" unicode="Ŋ" />
<glyph horiz-adv-x="549" d="M 313 538 C 334 538 355 534 375 528 C 395 522 412 513 427 501 C 441 489 453 475 462 458 C 471 440 476 421 476 400 L 476 -37 C 476 -89 462 -130 434 -158 C 406 -186 374 -201 338 -201 C 324 -201 309 -199 294 -196 C 278 -192 266 -188 257 -182 L 276 -128 C 282 -132 290 -135 300 -137 C 309 -139 320 -141 332 -141 C 352 -141 370 -131 386 -111 C 402 -91 411 -65 411 -31 L 411 379 C 411 411 399 437 375 455 C 351 473 323 482 292 482 C 275 482 258 479 240 474 C 222 469 206 461 192 450 C 178 439 166 425 157 408 C 147 390 143 370 143 346 L 143 0 L 78 0 L 78 529 L 134 529 L 134 422 C 145 456 167 484 199 506 C 231 527 269 538 313 538 Z" unicode="ŋ" />
<glyph horiz-adv-x="757" d="M 46 0 L 46 0 Z M 381 -10 C 332 -10 287 0 246 17 C 205 35 170 61 140 94 C 110 127 87 167 71 214 C 54 261 46 313 46 370 C 46 424 54 474 71 520 C 87 566 110 605 139 637 C 168 669 203 695 243 713 C 283 731 327 740 375 740 C 425 740 470 731 512 713 C 553 695 588 669 618 637 C 647 604 670 565 686 519 C 702 473 711 422 711 366 C 711 310 702 258 685 212 C 667 166 644 126 615 93 C 585 60 550 35 510 17 C 470 -1 427 -10 381 -10 Z M 384 48 C 420 48 453 55 485 70 C 516 84 543 105 566 133 C 589 160 607 193 620 233 C 633 273 640 318 640 368 C 640 414 633 457 620 496 C 606 534 588 567 564 594 C 540 621 512 642 479 657 C 446 672 410 680 372 680 C 334 680 300 672 269 658 C 237 644 210 623 188 597 C 166 570 148 537 136 499 C 123 460 117 416 117 368 C 117 318 124 273 138 233 C 152 193 171 159 195 132 C 219 104 247 83 280 69 C 312 55 347 48 384 48 Z M 374 809 L 374 809 Z M 495 809 L 253 809 L 253 864 L 495 864 L 495 809 Z" unicode="Ō" />
<glyph horiz-adv-x="553" d="M 38 0 L 38 0 Z M 274 -9 C 242 -9 212 -2 184 9 C 155 21 130 39 108 62 C 86 85 69 114 57 148 C 44 182 38 220 38 262 C 38 301 44 337 56 371 C 68 405 85 434 106 459 C 127 483 152 503 181 517 C 210 531 241 538 275 538 C 309 538 340 531 370 519 C 400 506 425 488 447 466 C 468 443 485 415 497 383 C 509 351 515 315 515 276 C 515 234 509 196 497 161 C 485 126 468 96 447 71 C 425 46 400 26 370 12 C 340 -1 308 -9 274 -9 Z M 278 49 C 328 49 369 69 401 110 C 432 151 448 204 448 269 C 448 331 432 381 400 421 C 368 460 325 480 273 480 C 223 480 183 459 152 419 C 121 379 106 327 106 264 C 106 195 122 142 156 105 C 189 67 230 49 278 49 Z M 275 608 L 275 608 Z M 396 608 L 154 608 L 154 663 L 396 663 L 396 608 Z" unicode="ō" />
<glyph horiz-adv-x="757" d="M 46 0 L 46 0 Z M 381 -10 C 332 -10 287 0 246 17 C 205 35 170 61 140 94 C 110 127 87 167 71 214 C 54 261 46 313 46 370 C 46 424 54 474 71 520 C 87 566 110 605 139 637 C 168 669 203 695 243 713 C 283 731 327 740 375 740 C 425 740 470 731 512 713 C 553 695 588 669 618 637 C 647 604 670 565 686 519 C 702 473 711 422 711 366 C 711 310 702 258 685 212 C 667 166 644 126 615 93 C 585 60 550 35 510 17 C 470 -1 427 -10 381 -10 Z M 384 48 C 420 48 453 55 485 70 C 516 84 543 105 566 133 C 589 160 607 193 620 233 C 633 273 640 318 640 368 C 640 414 633 457 620 496 C 606 534 588 567 564 594 C 540 621 512 642 479 657 C 446 672 410 680 372 680 C 334 680 300 672 269 658 C 237 644 210 623 188 597 C 166 570 148 537 136 499 C 123 460 117 416 117 368 C 117 318 124 273 138 233 C 152 193 171 159 195 132 C 219 104 247 83 280 69 C 312 55 347 48 384 48 Z M 374 793 L 374 793 Z M 458 948 L 513 948 C 509 894 494 854 469 830 C 443 805 412 793 374 793 C 336 793 304 805 279 830 C 253 854 239 894 235 948 L 290 948 C 292 917 300 891 313 871 C 325 850 346 840 374 840 C 402 840 422 849 435 869 C 448 889 456 915 458 948 Z" unicode="Ŏ" />
<glyph horiz-adv-x="553" d="M 38 0 L 38 0 Z M 274 -9 C 242 -9 212 -2 184 9 C 155 21 130 39 108 62 C 86 85 69 114 57 148 C 44 182 38 220 38 262 C 38 301 44 337 56 371 C 68 405 85 434 106 459 C 127 483 152 503 181 517 C 210 531 241 538 275 538 C 309 538 340 531 370 519 C 400 506 425 488 447 466 C 468 443 485 415 497 383 C 509 351 515 315 515 276 C 515 234 509 196 497 161 C 485 126 468 96 447 71 C 425 46 400 26 370 12 C 340 -1 308 -9 274 -9 Z M 278 49 C 328 49 369 69 401 110 C 432 151 448 204 448 269 C 448 331 432 381 400 421 C 368 460 325 480 273 480 C 223 480 183 459 152 419 C 121 379 106 327 106 264 C 106 195 122 142 156 105 C 189 67 230 49 278 49 Z M 275 592 L 275 592 Z M 359 747 L 414 747 C 410 693 395 653 370 629 C 344 604 313 592 275 592 C 237 592 205 604 180 629 C 154 653 140 693 136 747 L 191 747 C 193 716 201 690 214 670 C 226 649 247 639 275 639 C 303 639 323 648 336 668 C 349 688 357 714 359 747 Z" unicode="ŏ" />
<glyph horiz-adv-x="757" d="M 46 0 L 46 0 Z M 381 -10 C 332 -10 287 0 246 17 C 205 35 170 61 140 94 C 110 127 87 167 71 214 C 54 261 46 313 46 370 C 46 424 54 474 71 520 C 87 566 110 605 139 637 C 168 669 203 695 243 713 C 283 731 327 740 375 740 C 425 740 470 731 512 713 C 553 695 588 669 618 637 C 647 604 670 565 686 519 C 702 473 711 422 711 366 C 711 310 702 258 685 212 C 667 166 644 126 615 93 C 585 60 550 35 510 17 C 470 -1 427 -10 381 -10 Z M 384 48 C 420 48 453 55 485 70 C 516 84 543 105 566 133 C 589 160 607 193 620 233 C 633 273 640 318 640 368 C 640 414 633 457 620 496 C 606 534 588 567 564 594 C 540 621 512 642 479 657 C 446 672 410 680 372 680 C 334 680 300 672 269 658 C 237 644 210 623 188 597 C 166 570 148 537 136 499 C 123 460 117 416 117 368 C 117 318 124 273 138 233 C 152 193 171 159 195 132 C 219 104 247 83 280 69 C 312 55 347 48 384 48 Z M 374 785 L 374 785 Z M 217 785 L 299 936 L 369 936 L 276 785 L 217 785 Z M 380 785 L 463 936 L 533 936 L 439 785 L 380 785 Z" unicode="Ő" />
<glyph horiz-adv-x="553" d="M 38 0 L 38 0 Z M 274 -9 C 242 -9 212 -2 184 9 C 155 21 130 39 108 62 C 86 85 69 114 57 148 C 44 182 38 220 38 262 C 38 301 44 337 56 371 C 68 405 85 434 106 459 C 127 483 152 503 181 517 C 210 531 241 538 275 538 C 309 538 340 531 370 519 C 400 506 425 488 447 466 C 468 443 485 415 497 383 C 509 351 515 315 515 276 C 515 234 509 196 497 161 C 485 126 468 96 447 71 C 425 46 400 26 370 12 C 340 -1 308 -9 274 -9 Z M 278 49 C 328 49 369 69 401 110 C 432 151 448 204 448 269 C 448 331 432 381 400 421 C 368 460 325 480 273 480 C 223 480 183 459 152 419 C 121 379 106 327 106 264 C 106 195 122 142 156 105 C 189 67 230 49 278 49 Z M 275 584 L 275 584 Z M 118 584 L 200 735 L 270 735 L 177 584 L 118 584 Z M 281 584 L 364 735 L 434 735 L 340 584 L 281 584 Z" unicode="ő" />
<glyph horiz-adv-x="1054" d="M 367 -10 C 320 -10 277 -1 238 17 C 198 35 164 60 136 93 C 108 126 86 166 70 213 C 54 259 46 311 46 369 C 46 423 54 473 70 519 C 86 565 109 604 138 636 C 166 668 200 694 240 712 C 279 730 321 740 367 740 C 396 740 425 735 453 725 C 481 715 507 702 531 685 C 554 668 574 648 591 625 C 608 601 621 576 629 550 L 629 730 L 988 730 L 988 669 L 695 669 L 695 393 L 977 393 L 977 335 L 695 335 L 695 61 L 1006 61 L 1006 0 L 629 0 L 629 193 C 621 165 610 139 595 114 C 579 89 561 67 539 49 C 517 31 491 16 462 6 C 433 -4 401 -10 367 -10 Z M 376 45 C 411 45 444 52 475 66 C 506 80 533 101 556 129 C 579 156 597 190 611 231 C 624 271 631 318 631 370 C 631 421 623 466 607 506 C 591 545 571 578 546 604 C 521 630 493 649 463 663 C 432 676 402 683 372 683 C 335 683 301 675 270 661 C 239 646 212 625 190 598 C 167 570 149 537 137 498 C 124 458 118 414 118 365 C 118 314 124 269 138 229 C 152 189 170 156 193 129 C 216 101 243 80 275 66 C 307 52 340 45 376 45 Z" unicode="Œ" />
<glyph horiz-adv-x="945" d="M 274 -9 C 242 -9 212 -2 184 9 C 155 21 130 39 108 62 C 86 85 69 114 57 148 C 44 182 38 220 38 262 C 38 300 44 336 56 370 C 68 404 85 433 106 458 C 127 482 152 502 181 516 C 210 530 241 538 275 538 C 305 538 332 532 356 522 C 380 512 400 498 417 482 C 434 465 448 446 458 426 C 468 405 475 384 478 364 C 480 383 486 403 497 424 C 508 444 522 463 540 480 C 558 496 579 510 603 521 C 627 532 653 538 681 538 C 748 538 803 512 845 460 C 887 408 908 338 908 249 L 511 249 C 511 189 528 141 561 104 C 593 67 635 49 687 49 C 728 49 761 56 787 72 C 813 87 834 105 851 126 L 888 84 C 867 59 841 37 809 19 C 777 0 737 -9 687 -9 C 657 -9 630 -4 606 6 C 581 16 559 29 541 45 C 523 61 508 79 497 100 C 485 120 478 141 476 163 C 473 142 466 121 456 101 C 445 81 431 62 414 46 C 397 30 377 16 353 6 C 329 -3 303 -9 274 -9 Z M 511 295 L 843 295 C 842 350 826 395 795 430 C 764 465 725 483 679 483 C 655 483 634 478 614 468 C 594 458 576 445 562 429 C 547 412 535 392 527 369 C 518 346 513 321 511 295 Z M 278 49 C 328 49 368 69 400 109 C 432 149 448 203 448 269 C 448 331 432 381 400 421 C 368 460 325 480 273 480 C 223 480 183 460 152 420 C 121 380 106 328 106 264 C 106 195 122 142 156 105 C 189 67 230 49 278 49 Z" unicode="œ" />
<glyph horiz-adv-x="545" d="M 90 0 L 90 0 Z M 90 0 L 90 730 L 267 730 C 325 730 373 713 410 679 C 447 645 466 598 466 538 C 466 508 461 481 452 457 C 443 433 431 412 416 396 C 401 379 384 366 364 356 C 344 346 323 341 301 339 L 297 336 L 517 0 L 437 0 L 231 322 L 158 322 L 158 0 L 90 0 Z M 157 379 L 248 379 C 291 379 327 392 355 418 C 383 444 397 482 397 530 C 397 574 384 609 358 635 C 332 661 298 674 256 674 L 157 674 L 157 379 Z M 265 789 L 265 789 Z M 178 789 L 276 956 L 352 956 L 243 789 L 178 789 Z" unicode="Ŕ" />
<glyph horiz-adv-x="397" d="M 78 0 L 78 0 Z M 399 510 L 368 452 C 359 460 348 467 334 472 C 320 477 303 480 285 480 C 268 480 251 476 234 469 C 217 462 202 452 188 439 C 174 426 163 410 155 391 C 147 371 143 350 143 326 L 143 0 L 78 0 L 78 529 L 138 529 L 138 409 C 146 443 165 473 195 499 C 225 525 262 538 304 538 C 326 538 345 535 361 529 C 377 523 390 517 399 510 Z M 243 588 L 243 588 Z M 156 588 L 254 755 L 330 755 L 221 588 L 156 588 Z" unicode="ŕ" />
<glyph horiz-adv-x="545" d="M 90 0 L 90 0 Z M 90 0 L 90 730 L 267 730 C 325 730 373 713 410 679 C 447 645 466 598 466 538 C 466 508 461 481 452 457 C 443 433 431 412 416 396 C 401 379 384 366 364 356 C 344 346 323 341 301 339 L 297 336 L 517 0 L 437 0 L 231 322 L 158 322 L 158 0 L 90 0 Z M 157 379 L 248 379 C 291 379 327 392 355 418 C 383 444 397 482 397 530 C 397 574 384 609 358 635 C 332 661 298 674 256 674 L 157 674 L 157 379 Z M 261 -82 L 261 -82 Z M 341 -82 C 335 -131 322 -178 302 -222 C 282 -266 258 -302 231 -332 L 182 -309 C 190 -299 198 -285 208 -269 C 217 -252 226 -234 234 -214 C 242 -194 250 -172 257 -150 C 263 -127 268 -104 272 -82 L 341 -82 Z" unicode="Ŗ" />
<glyph horiz-adv-x="397" d="M 78 0 L 78 0 Z M 399 510 L 368 452 C 359 460 348 467 334 472 C 320 477 303 480 285 480 C 268 480 251 476 234 469 C 217 462 202 452 188 439 C 174 426 163 410 155 391 C 147 371 143 350 143 326 L 143 0 L 78 0 L 78 529 L 138 529 L 138 409 C 146 443 165 473 195 499 C 225 525 262 538 304 538 C 326 538 345 535 361 529 C 377 523 390 517 399 510 Z M 215 -82 L 215 -82 Z M 295 -82 C 289 -131 276 -178 256 -222 C 236 -266 212 -302 185 -332 L 136 -309 C 144 -299 152 -285 162 -269 C 171 -252 180 -234 188 -214 C 196 -194 204 -172 211 -150 C 217 -127 222 -104 226 -82 L 295 -82 Z" unicode="ŗ" />
<glyph horiz-adv-x="545" d="M 90 0 L 90 0 Z M 90 0 L 90 730 L 267 730 C 325 730 373 713 410 679 C 447 645 466 598 466 538 C 466 508 461 481 452 457 C 443 433 431 412 416 396 C 401 379 384 366 364 356 C 344 346 323 341 301 339 L 297 336 L 517 0 L 437 0 L 231 322 L 158 322 L 158 0 L 90 0 Z M 157 379 L 248 379 C 291 379 327 392 355 418 C 383 444 397 482 397 530 C 397 574 384 609 358 635 C 332 661 298 674 256 674 L 157 674 L 157 379 Z M 265 786 L 265 786 Z M 120 956 L 180 956 L 266 829 L 353 956 L 411 956 L 297 786 L 234 786 L 120 956 Z" unicode="Ř" />
<glyph horiz-adv-x="397" d="M 78 0 L 78 0 Z M 399 510 L 368 452 C 359 460 348 467 334 472 C 320 477 303 480 285 480 C 268 480 251 476 234 469 C 217 462 202 452 188 439 C 174 426 163 410 155 391 C 147 371 143 350 143 326 L 143 0 L 78 0 L 78 529 L 138 529 L 138 409 C 146 443 165 473 195 499 C 225 525 262 538 304 538 C 326 538 345 535 361 529 C 377 523 390 517 399 510 Z M 243 585 L 243 585 Z M 98 755 L 158 755 L 244 628 L 331 755 L 389 755 L 275 585 L 212 585 L 98 755 Z" unicode="ř" />
<glyph horiz-adv-x="521" d="M 42 0 L 42 0 Z M 264 -10 C 215 -10 172 -2 135 13 C 97 28 66 50 42 79 L 88 130 C 108 102 134 81 166 67 C 198 53 231 46 264 46 C 301 46 333 57 361 80 C 388 103 402 133 402 171 C 402 207 391 237 369 262 C 347 287 308 314 251 342 C 215 358 186 373 162 388 C 138 403 118 419 104 436 C 89 453 78 472 72 493 C 65 514 62 538 62 566 C 62 618 80 660 116 692 C 152 724 198 740 255 740 C 299 740 336 732 367 718 C 398 703 424 685 445 665 L 404 613 C 383 632 359 648 333 660 C 307 672 279 678 251 678 C 215 678 185 667 162 647 C 139 626 128 599 128 565 C 128 527 139 497 163 475 C 187 452 229 426 289 398 C 358 365 405 332 430 299 C 455 266 468 226 468 178 C 468 148 462 122 451 99 C 440 75 425 56 407 40 C 389 24 367 11 342 3 C 317 -5 291 -10 264 -10 Z M 257 789 L 257 789 Z M 170 789 L 268 956 L 344 956 L 235 789 L 170 789 Z" unicode="Ś" />
<glyph horiz-adv-x="418" d="M 34 0 L 34 0 Z M 222 -9 C 180 -9 143 -2 112 10 C 80 23 54 40 34 61 L 66 106 C 84 88 106 73 132 62 C 158 50 187 45 217 45 C 244 45 268 53 289 70 C 309 87 320 109 320 136 C 320 160 311 180 293 198 C 275 215 242 233 194 252 C 140 272 103 294 83 319 C 63 343 53 373 53 408 C 53 446 68 477 99 501 C 129 525 167 538 211 538 C 251 538 284 532 310 521 C 336 509 356 498 371 486 L 345 435 C 329 447 311 458 289 468 C 267 478 243 484 216 484 C 189 484 165 477 145 463 C 125 449 115 430 115 408 C 115 385 122 366 137 352 C 151 338 184 321 234 302 C 288 280 327 257 349 232 C 371 206 383 174 383 136 C 383 113 378 93 369 75 C 360 57 348 41 334 29 C 319 17 302 7 282 1 C 262 -5 242 -9 222 -9 Z M 212 588 L 212 588 Z M 125 588 L 223 755 L 299 755 L 190 588 L 125 588 Z" unicode="ś" />
<glyph horiz-adv-x="521" d="M 42 0 L 42 0 Z M 264 -10 C 215 -10 172 -2 135 13 C 97 28 66 50 42 79 L 88 130 C 108 102 134 81 166 67 C 198 53 231 46 264 46 C 301 46 333 57 361 80 C 388 103 402 133 402 171 C 402 207 391 237 369 262 C 347 287 308 314 251 342 C 215 358 186 373 162 388 C 138 403 118 419 104 436 C 89 453 78 472 72 493 C 65 514 62 538 62 566 C 62 618 80 660 116 692 C 152 724 198 740 255 740 C 299 740 336 732 367 718 C 398 703 424 685 445 665 L 404 613 C 383 632 359 648 333 660 C 307 672 279 678 251 678 C 215 678 185 667 162 647 C 139 626 128 599 128 565 C 128 527 139 497 163 475 C 187 452 229 426 289 398 C 358 365 405 332 430 299 C 455 266 468 226 468 178 C 468 148 462 122 451 99 C 440 75 425 56 407 40 C 389 24 367 11 342 3 C 317 -5 291 -10 264 -10 Z M 257 786 L 257 786 Z M 403 786 L 343 786 L 257 912 L 170 786 L 112 786 L 226 956 L 289 956 L 403 786 Z" unicode="Ŝ" />
<glyph horiz-adv-x="418" d="M 34 0 L 34 0 Z M 222 -9 C 180 -9 143 -2 112 10 C 80 23 54 40 34 61 L 66 106 C 84 88 106 73 132 62 C 158 50 187 45 217 45 C 244 45 268 53 289 70 C 309 87 320 109 320 136 C 320 160 311 180 293 198 C 275 215 242 233 194 252 C 140 272 103 294 83 319 C 63 343 53 373 53 408 C 53 446 68 477 99 501 C 129 525 167 538 211 538 C 251 538 284 532 310 521 C 336 509 356 498 371 486 L 345 435 C 329 447 311 458 289 468 C 267 478 243 484 216 484 C 189 484 165 477 145 463 C 125 449 115 430 115 408 C 115 385 122 366 137 352 C 151 338 184 321 234 302 C 288 280 327 257 349 232 C 371 206 383 174 383 136 C 383 113 378 93 369 75 C 360 57 348 41 334 29 C 319 17 302 7 282 1 C 262 -5 242 -9 222 -9 Z M 212 585 L 212 585 Z M 358 585 L 298 585 L 212 711 L 125 585 L 67 585 L 181 755 L 244 755 L 358 585 Z" unicode="ŝ" />
<glyph horiz-adv-x="521" d="M 42 0 L 42 0 Z M 264 -10 C 215 -10 172 -2 135 13 C 97 28 66 50 42 79 L 88 130 C 108 102 134 81 166 67 C 198 53 231 46 264 46 C 301 46 333 57 361 80 C 388 103 402 133 402 171 C 402 207 391 237 369 262 C 347 287 308 314 251 342 C 215 358 186 373 162 388 C 138 403 118 419 104 436 C 89 453 78 472 72 493 C 65 514 62 538 62 566 C 62 618 80 660 116 692 C 152 724 198 740 255 740 C 299 740 336 732 367 718 C 398 703 424 685 445 665 L 404 613 C 383 632 359 648 333 660 C 307 672 279 678 251 678 C 215 678 185 667 162 647 C 139 626 128 599 128 565 C 128 527 139 497 163 475 C 187 452 229 426 289 398 C 358 365 405 332 430 299 C 455 266 468 226 468 178 C 468 148 462 122 451 99 C 440 75 425 56 407 40 C 389 24 367 11 342 3 C 317 -5 291 -10 264 -10 Z M 250 -7 L 250 -7 Z M 257 -191 C 235 -191 213 -188 191 -182 C 169 -176 151 -168 139 -158 L 151 -129 C 161 -135 173 -141 189 -147 C 205 -153 222 -156 241 -156 C 257 -156 272 -152 284 -144 C 296 -136 303 -125 303 -113 C 303 -98 297 -88 286 -82 C 275 -76 263 -73 251 -73 C 242 -73 234 -73 228 -75 C 221 -76 214 -78 207 -81 L 197 -69 L 252 3 L 290 3 L 243 -59 C 275 -51 303 -53 326 -65 C 349 -76 361 -94 361 -118 C 361 -141 350 -159 330 -172 C 309 -184 285 -191 257 -191 Z" unicode="Ş" />
<glyph horiz-adv-x="418" d="M 34 0 L 34 0 Z M 222 -9 C 180 -9 143 -2 112 10 C 80 23 54 40 34 61 L 66 106 C 84 88 106 73 132 62 C 158 50 187 45 217 45 C 244 45 268 53 289 70 C 309 87 320 109 320 136 C 320 160 311 180 293 198 C 275 215 242 233 194 252 C 140 272 103 294 83 319 C 63 343 53 373 53 408 C 53 446 68 477 99 501 C 129 525 167 538 211 538 C 251 538 284 532 310 521 C 336 509 356 498 371 486 L 345 435 C 329 447 311 458 289 468 C 267 478 243 484 216 484 C 189 484 165 477 145 463 C 125 449 115 430 115 408 C 115 385 122 366 137 352 C 151 338 184 321 234 302 C 288 280 327 257 349 232 C 371 206 383 174 383 136 C 383 113 378 93 369 75 C 360 57 348 41 334 29 C 319 17 302 7 282 1 C 262 -5 242 -9 222 -9 Z M 204 -3 L 204 -3 Z M 211 -187 C 189 -187 167 -184 145 -178 C 123 -172 105 -164 93 -154 L 105 -125 C 115 -131 127 -137 143 -143 C 159 -149 176 -152 195 -152 C 211 -152 226 -148 238 -140 C 250 -132 257 -121 257 -109 C 257 -94 251 -84 240 -78 C 229 -72 217 -69 205 -69 C 196 -69 188 -69 182 -71 C 175 -72 168 -74 161 -77 L 151 -65 L 206 7 L 244 7 L 197 -55 C 229 -47 257 -49 280 -61 C 303 -72 315 -90 315 -114 C 315 -137 304 -155 284 -168 C 263 -180 239 -187 211 -187 Z" unicode="ş" />
<glyph horiz-adv-x="521" d="M 42 0 L 42 0 Z M 264 -10 C 215 -10 172 -2 135 13 C 97 28 66 50 42 79 L 88 130 C 108 102 134 81 166 67 C 198 53 231 46 264 46 C 301 46 333 57 361 80 C 388 103 402 133 402 171 C 402 207 391 237 369 262 C 347 287 308 314 251 342 C 215 358 186 373 162 388 C 138 403 118 419 104 436 C 89 453 78 472 72 493 C 65 514 62 538 62 566 C 62 618 80 660 116 692 C 152 724 198 740 255 740 C 299 740 336 732 367 718 C 398 703 424 685 445 665 L 404 613 C 383 632 359 648 333 660 C 307 672 279 678 251 678 C 215 678 185 667 162 647 C 139 626 128 599 128 565 C 128 527 139 497 163 475 C 187 452 229 426 289 398 C 358 365 405 332 430 299 C 455 266 468 226 468 178 C 468 148 462 122 451 99 C 440 75 425 56 407 40 C 389 24 367 11 342 3 C 317 -5 291 -10 264 -10 Z M 257 786 L 257 786 Z M 112 956 L 172 956 L 258 829 L 345 956 L 403 956 L 289 786 L 226 786 L 112 956 Z" unicode="Š" />
<glyph horiz-adv-x="418" d="M 34 0 L 34 0 Z M 222 -9 C 180 -9 143 -2 112 10 C 80 23 54 40 34 61 L 66 106 C 84 88 106 73 132 62 C 158 50 187 45 217 45 C 244 45 268 53 289 70 C 309 87 320 109 320 136 C 320 160 311 180 293 198 C 275 215 242 233 194 252 C 140 272 103 294 83 319 C 63 343 53 373 53 408 C 53 446 68 477 99 501 C 129 525 167 538 211 538 C 251 538 284 532 310 521 C 336 509 356 498 371 486 L 345 435 C 329 447 311 458 289 468 C 267 478 243 484 216 484 C 189 484 165 477 145 463 C 125 449 115 430 115 408 C 115 385 122 366 137 352 C 151 338 184 321 234 302 C 288 280 327 257 349 232 C 371 206 383 174 383 136 C 383 113 378 93 369 75 C 360 57 348 41 334 29 C 319 17 302 7 282 1 C 262 -5 242 -9 222 -9 Z M 212 585 L 212 585 Z M 67 755 L 127 755 L 213 628 L 300 755 L 358 755 L 244 585 L 181 585 L 67 755 Z" unicode="š" />
<glyph horiz-adv-x="475" d="M 9 0 L 9 0 Z M 466 669 L 270 669 L 270 0 L 200 0 L 200 669 L 9 669 L 9 730 L 466 730 L 466 669 Z M 236 786 L 236 786 Z M 91 956 L 151 956 L 237 829 L 324 956 L 382 956 L 268 786 L 205 786 L 91 956 Z" unicode="Ť" />
<glyph horiz-adv-x="301" d="M 15 0 L 15 0 Z M 273 70 L 285 17 C 277 11 265 5 250 1 C 235 -2 219 -5 202 -5 C 171 -5 144 5 122 25 C 100 45 89 77 89 121 L 89 474 L 15 474 L 15 529 L 90 529 L 90 658 L 153 667 L 153 529 L 273 529 L 273 474 L 154 474 L 154 124 C 154 102 159 84 169 72 C 179 60 194 54 213 54 C 225 54 237 55 248 59 C 258 63 267 66 273 70 Z M 359 613 L 356 480 L 302 480 L 298 613 L 298 730 L 359 730 L 359 613 Z" unicode="ť" />
<glyph horiz-adv-x="475" d="M 412 481 L 270 481 L 270 0 L 200 0 L 200 481 L 59 481 L 59 537 L 200 537 L 200 669 L 9 669 L 9 730 L 466 730 L 466 669 L 270 669 L 270 537 L 412 537 L 412 481 Z" unicode="Ŧ" />
<glyph horiz-adv-x="301" d="M 285 17 C 277 11 265 5 250 1 C 235 -2 219 -5 202 -5 C 171 -5 144 5 122 25 C 100 45 89 77 89 121 L 89 320 L 22 320 L 22 376 L 89 376 L 89 474 L 15 474 L 15 529 L 90 529 L 90 658 L 153 667 L 153 529 L 273 529 L 273 474 L 154 474 L 154 376 L 252 376 L 252 320 L 154 320 L 154 124 C 154 102 159 84 169 72 C 179 60 194 54 213 54 C 225 54 237 55 248 59 C 258 63 267 66 273 70 L 285 17 Z" unicode="ŧ" />
<glyph horiz-adv-x="680" d="M 86 0 L 86 0 Z M 594 730 L 594 248 C 594 206 587 168 573 136 C 559 104 541 77 518 55 C 495 33 468 17 437 6 C 406 -4 373 -10 338 -10 C 304 -10 271 -4 241 6 C 210 16 183 32 160 53 C 137 74 119 101 106 134 C 92 166 86 204 86 248 L 86 730 L 154 730 L 154 246 C 154 214 159 187 169 163 C 179 139 192 118 209 102 C 225 86 245 73 267 65 C 289 56 313 52 338 52 C 363 52 387 56 410 64 C 432 72 452 84 469 100 C 485 116 499 136 509 160 C 519 184 524 213 524 246 L 524 730 L 594 730 Z M 339 794 L 339 794 Z M 447 922 L 498 922 C 498 878 491 845 479 825 C 467 804 450 794 428 794 C 410 794 393 798 379 807 C 365 816 352 825 341 835 C 329 844 318 853 307 862 C 296 871 285 876 274 876 C 263 876 253 869 245 856 C 237 843 232 824 232 799 L 181 799 C 181 841 189 873 206 894 C 222 915 241 926 261 926 C 277 926 292 921 305 912 C 318 903 331 893 343 883 C 353 873 364 865 375 857 C 385 849 396 846 407 846 C 417 846 426 852 434 865 C 442 878 446 897 447 922 Z" unicode="Ũ" />
<glyph horiz-adv-x="549" d="M 72 0 L 72 0 Z M 72 529 L 137 529 L 137 177 C 137 129 149 95 175 75 C 200 55 231 46 269 46 C 305 46 336 58 364 82 C 392 106 406 140 406 186 L 406 529 L 471 529 L 471 0 L 412 0 L 412 106 C 404 76 385 50 356 26 C 326 2 289 -9 243 -9 C 220 -9 198 -5 177 0 C 156 6 138 16 123 29 C 107 42 95 59 86 79 C 76 99 72 124 72 153 L 72 529 Z M 272 593 L 272 593 Z M 380 721 L 431 721 C 431 677 424 644 412 624 C 400 603 383 593 361 593 C 343 593 326 597 312 606 C 298 615 285 624 274 634 C 262 643 251 652 240 661 C 229 670 218 675 207 675 C 196 675 186 668 178 655 C 170 642 165 623 165 598 L 114 598 C 114 640 122 672 139 693 C 155 714 174 725 194 725 C 210 725 225 720 238 711 C 251 702 264 692 276 682 C 286 672 297 664 308 656 C 318 648 329 645 340 645 C 350 645 359 651 367 664 C 375 677 379 696 380 721 Z" unicode="ũ" />
<glyph horiz-adv-x="680" d="M 86 0 L 86 0 Z M 594 730 L 594 248 C 594 206 587 168 573 136 C 559 104 541 77 518 55 C 495 33 468 17 437 6 C 406 -4 373 -10 338 -10 C 304 -10 271 -4 241 6 C 210 16 183 32 160 53 C 137 74 119 101 106 134 C 92 166 86 204 86 248 L 86 730 L 154 730 L 154 246 C 154 214 159 187 169 163 C 179 139 192 118 209 102 C 225 86 245 73 267 65 C 289 56 313 52 338 52 C 363 52 387 56 410 64 C 432 72 452 84 469 100 C 485 116 499 136 509 160 C 519 184 524 213 524 246 L 524 730 L 594 730 Z M 339 809 L 339 809 Z M 460 809 L 218 809 L 218 864 L 460 864 L 460 809 Z" unicode="Ū" />
<glyph horiz-adv-x="549" d="M 72 0 L 72 0 Z M 72 529 L 137 529 L 137 177 C 137 129 149 95 175 75 C 200 55 231 46 269 46 C 305 46 336 58 364 82 C 392 106 406 140 406 186 L 406 529 L 471 529 L 471 0 L 412 0 L 412 106 C 404 76 385 50 356 26 C 326 2 289 -9 243 -9 C 220 -9 198 -5 177 0 C 156 6 138 16 123 29 C 107 42 95 59 86 79 C 76 99 72 124 72 153 L 72 529 Z M 272 608 L 272 608 Z M 393 608 L 151 608 L 151 663 L 393 663 L 393 608 Z" unicode="ū" />
<glyph horiz-adv-x="680" d="M 86 0 L 86 0 Z M 594 730 L 594 248 C 594 206 587 168 573 136 C 559 104 541 77 518 55 C 495 33 468 17 437 6 C 406 -4 373 -10 338 -10 C 304 -10 271 -4 241 6 C 210 16 183 32 160 53 C 137 74 119 101 106 134 C 92 166 86 204 86 248 L 86 730 L 154 730 L 154 246 C 154 214 159 187 169 163 C 179 139 192 118 209 102 C 225 86 245 73 267 65 C 289 56 313 52 338 52 C 363 52 387 56 410 64 C 432 72 452 84 469 100 C 485 116 499 136 509 160 C 519 184 524 213 524 246 L 524 730 L 594 730 Z M 339 793 L 339 793 Z M 423 948 L 478 948 C 474 894 459 854 434 830 C 408 805 377 793 339 793 C 301 793 269 805 244 830 C 218 854 204 894 200 948 L 255 948 C 257 917 265 891 278 871 C 290 850 311 840 339 840 C 367 840 387 849 400 869 C 413 889 421 915 423 948 Z" unicode="Ŭ" />
<glyph horiz-adv-x="549" d="M 72 0 L 72 0 Z M 72 529 L 137 529 L 137 177 C 137 129 149 95 175 75 C 200 55 231 46 269 46 C 305 46 336 58 364 82 C 392 106 406 140 406 186 L 406 529 L 471 529 L 471 0 L 412 0 L 412 106 C 404 76 385 50 356 26 C 326 2 289 -9 243 -9 C 220 -9 198 -5 177 0 C 156 6 138 16 123 29 C 107 42 95 59 86 79 C 76 99 72 124 72 153 L 72 529 Z M 272 592 L 272 592 Z M 356 747 L 411 747 C 407 693 392 653 367 629 C 341 604 310 592 272 592 C 234 592 202 604 177 629 C 151 653 137 693 133 747 L 188 747 C 190 716 198 690 211 670 C 223 649 244 639 272 639 C 300 639 320 648 333 668 C 346 688 354 714 356 747 Z" unicode="ŭ" />
<glyph horiz-adv-x="680" d="M 86 0 L 86 0 Z M 594 730 L 594 248 C 594 206 587 168 573 136 C 559 104 541 77 518 55 C 495 33 468 17 437 6 C 406 -4 373 -10 338 -10 C 304 -10 271 -4 241 6 C 210 16 183 32 160 53 C 137 74 119 101 106 134 C 92 166 86 204 86 248 L 86 730 L 154 730 L 154 246 C 154 214 159 187 169 163 C 179 139 192 118 209 102 C 225 86 245 73 267 65 C 289 56 313 52 338 52 C 363 52 387 56 410 64 C 432 72 452 84 469 100 C 485 116 499 136 509 160 C 519 184 524 213 524 246 L 524 730 L 594 730 Z M 339 780 L 339 780 Z M 339 780 C 306 780 278 791 256 814 C 234 836 223 864 223 897 C 223 929 234 957 256 980 C 278 1002 306 1014 339 1014 C 371 1014 399 1002 422 980 C 444 957 456 929 456 897 C 456 864 444 836 422 814 C 399 791 371 780 339 780 Z M 339 822 C 359 822 377 829 391 844 C 405 858 413 876 413 897 C 413 917 405 935 391 950 C 377 965 359 973 339 973 C 318 973 300 965 286 950 C 272 935 265 917 265 897 C 265 876 272 858 286 844 C 300 829 318 822 339 822 Z" unicode="Ů" />
<glyph horiz-adv-x="549" d="M 72 0 L 72 0 Z M 72 529 L 137 529 L 137 177 C 137 129 149 95 175 75 C 200 55 231 46 269 46 C 305 46 336 58 364 82 C 392 106 406 140 406 186 L 406 529 L 471 529 L 471 0 L 412 0 L 412 106 C 404 76 385 50 356 26 C 326 2 289 -9 243 -9 C 220 -9 198 -5 177 0 C 156 6 138 16 123 29 C 107 42 95 59 86 79 C 76 99 72 124 72 153 L 72 529 Z M 272 579 L 272 579 Z M 272 579 C 239 579 211 590 189 613 C 167 635 156 663 156 696 C 156 728 167 756 189 779 C 211 801 239 813 272 813 C 304 813 332 801 355 779 C 377 756 389 728 389 696 C 389 663 377 635 355 613 C 332 590 304 579 272 579 Z M 272 621 C 292 621 310 628 324 643 C 338 657 346 675 346 696 C 346 716 338 734 324 749 C 310 764 292 772 272 772 C 251 772 233 764 219 749 C 205 734 198 716 198 696 C 198 675 205 657 219 643 C 233 628 251 621 272 621 Z" unicode="ů" />
<glyph horiz-adv-x="680" d="M 86 0 L 86 0 Z M 594 730 L 594 248 C 594 206 587 168 573 136 C 559 104 541 77 518 55 C 495 33 468 17 437 6 C 406 -4 373 -10 338 -10 C 304 -10 271 -4 241 6 C 210 16 183 32 160 53 C 137 74 119 101 106 134 C 92 166 86 204 86 248 L 86 730 L 154 730 L 154 246 C 154 214 159 187 169 163 C 179 139 192 118 209 102 C 225 86 245 73 267 65 C 289 56 313 52 338 52 C 363 52 387 56 410 64 C 432 72 452 84 469 100 C 485 116 499 136 509 160 C 519 184 524 213 524 246 L 524 730 L 594 730 Z M 339 785 L 339 785 Z M 182 785 L 264 936 L 334 936 L 241 785 L 182 785 Z M 345 785 L 428 936 L 498 936 L 404 785 L 345 785 Z" unicode="Ű" />
<glyph horiz-adv-x="549" d="M 72 0 L 72 0 Z M 72 529 L 137 529 L 137 177 C 137 129 149 95 175 75 C 200 55 231 46 269 46 C 305 46 336 58 364 82 C 392 106 406 140 406 186 L 406 529 L 471 529 L 471 0 L 412 0 L 412 106 C 404 76 385 50 356 26 C 326 2 289 -9 243 -9 C 220 -9 198 -5 177 0 C 156 6 138 16 123 29 C 107 42 95 59 86 79 C 76 99 72 124 72 153 L 72 529 Z M 272 584 L 272 584 Z M 115 584 L 197 735 L 267 735 L 174 584 L 115 584 Z M 278 584 L 361 735 L 431 735 L 337 584 L 278 584 Z" unicode="ű" />
<glyph horiz-adv-x="680" d="M 86 0 L 86 0 Z M 594 730 L 594 248 C 594 206 587 168 573 136 C 559 104 541 77 518 55 C 495 33 468 17 437 6 C 406 -4 373 -10 338 -10 C 304 -10 271 -4 241 6 C 210 16 183 32 160 53 C 137 74 119 101 106 134 C 92 166 86 204 86 248 L 86 730 L 154 730 L 154 246 C 154 214 159 187 169 163 C 179 139 192 118 209 102 C 225 86 245 73 267 65 C 289 56 313 52 338 52 C 363 52 387 56 410 64 C 432 72 452 84 469 100 C 485 116 499 136 509 160 C 519 184 524 213 524 246 L 524 730 L 594 730 Z M 377 -9 L 377 -9 Z M 488 -110 L 508 -136 C 489 -155 467 -170 443 -180 C 419 -190 392 -196 363 -196 C 331 -196 305 -188 287 -174 C 269 -160 260 -141 260 -119 C 260 -96 270 -74 291 -53 C 311 -31 342 -13 382 2 L 419 1 C 385 -13 360 -29 342 -45 C 324 -61 316 -77 316 -94 C 316 -110 322 -123 335 -133 C 347 -143 363 -148 383 -148 C 405 -148 425 -144 443 -137 C 461 -129 476 -120 488 -110 Z" unicode="Ų" />
<glyph horiz-adv-x="549" d="M 72 0 L 72 0 Z M 72 529 L 137 529 L 137 177 C 137 129 149 95 175 75 C 200 55 231 46 269 46 C 305 46 336 58 364 82 C 392 106 406 140 406 186 L 406 529 L 471 529 L 471 0 L 412 0 L 412 106 C 404 76 385 50 356 26 C 326 2 289 -9 243 -9 C 220 -9 198 -5 177 0 C 156 6 138 16 123 29 C 107 42 95 59 86 79 C 76 99 72 124 72 153 L 72 529 Z M 409 -9 L 409 -9 Z M 520 -110 L 540 -136 C 521 -155 499 -170 475 -180 C 451 -190 424 -196 395 -196 C 363 -196 337 -188 319 -174 C 301 -160 292 -141 292 -119 C 292 -96 302 -74 323 -53 C 343 -31 374 -13 414 2 L 451 1 C 417 -13 392 -29 374 -45 C 356 -61 348 -77 348 -94 C 348 -110 354 -123 367 -133 C 379 -143 395 -148 415 -148 C 437 -148 457 -144 475 -137 C 493 -129 508 -120 520 -110 Z" unicode="ų" />
<glyph horiz-adv-x="846" d="M 13 0 L 13 0 Z M 829 730 L 632 -6 L 587 -6 L 422 605 L 253 -6 L 208 -6 L 13 730 L 84 730 L 238 128 L 401 730 L 448 730 L 611 126 L 765 730 L 829 730 Z M 423 786 L 423 786 Z M 569 786 L 509 786 L 423 912 L 336 786 L 278 786 L 392 956 L 455 956 L 569 786 Z" unicode="Ŵ" />
<glyph horiz-adv-x="675" d="M 6 0 L 6 0 Z M 462 -2 L 342 351 L 212 -2 L 169 -2 L 6 529 L 71 529 L 199 99 L 322 447 L 367 447 L 481 101 L 609 529 L 669 529 L 505 -2 L 462 -2 Z M 342 585 L 342 585 Z M 488 585 L 428 585 L 342 711 L 255 585 L 197 585 L 311 755 L 374 755 L 488 585 Z" unicode="ŵ" />
<glyph horiz-adv-x="580" d="M 3 0 L 3 0 Z M 577 730 L 323 321 L 323 0 L 253 0 L 253 323 L 3 730 L 82 730 L 292 387 L 505 730 L 577 730 Z M 292 786 L 292 786 Z M 438 786 L 378 786 L 292 912 L 205 786 L 147 786 L 261 956 L 324 956 L 438 786 Z" unicode="Ŷ" />
<glyph horiz-adv-x="455" d="M 0 0 L 0 0 Z M 457 529 L 212 -90 C 194 -131 173 -160 148 -176 C 122 -192 98 -200 74 -200 C 57 -200 43 -198 33 -195 C 22 -191 14 -188 10 -186 L 32 -131 C 35 -133 41 -135 49 -137 C 57 -139 65 -141 74 -141 C 89 -141 104 -135 119 -123 C 133 -111 147 -91 159 -63 L 194 29 L -2 529 L 67 529 L 228 107 L 392 529 L 457 529 Z M 229 585 L 229 585 Z M 375 585 L 315 585 L 229 711 L 142 585 L 84 585 L 198 755 L 261 755 L 375 585 Z" unicode="ŷ" />
<glyph horiz-adv-x="580" d="M 3 0 L 3 0 Z M 577 730 L 323 321 L 323 0 L 253 0 L 253 323 L 3 730 L 82 730 L 292 387 L 505 730 L 577 730 Z M 292 786 L 292 786 Z M 402 786 L 347 786 L 347 942 L 402 942 L 402 786 Z M 237 786 L 182 786 L 182 942 L 237 942 L 237 786 Z" unicode="Ÿ" />
<glyph horiz-adv-x="525" d="M 19 0 L 19 0 Z M 492 730 L 492 698 L 110 60 L 506 60 L 506 0 L 19 0 L 19 31 L 399 669 L 55 669 L 55 730 L 492 730 Z M 266 789 L 266 789 Z M 179 789 L 277 956 L 353 956 L 244 789 L 179 789 Z" unicode="Ź" />
<glyph horiz-adv-x="411" d="M 18 0 L 18 0 Z M 382 529 L 382 499 L 106 57 L 401 57 L 401 0 L 18 0 L 18 29 L 294 472 L 32 472 L 32 529 L 382 529 Z M 212 588 L 212 588 Z M 125 588 L 223 755 L 299 755 L 190 588 L 125 588 Z" unicode="ź" />
<glyph horiz-adv-x="525" d="M 19 0 L 19 0 Z M 492 730 L 492 698 L 110 60 L 506 60 L 506 0 L 19 0 L 19 31 L 399 669 L 55 669 L 55 730 L 492 730 Z M 266 788 L 266 788 Z M 296 788 L 236 788 L 236 932 L 296 932 L 296 788 Z" unicode="Ż" />
<glyph horiz-adv-x="411" d="M 18 0 L 18 0 Z M 382 529 L 382 499 L 106 57 L 401 57 L 401 0 L 18 0 L 18 29 L 294 472 L 32 472 L 32 529 L 382 529 Z M 212 587 L 212 587 Z M 242 587 L 182 587 L 182 731 L 242 731 L 242 587 Z" unicode="ż" />
<glyph horiz-adv-x="525" d="M 19 0 L 19 0 Z M 492 730 L 492 698 L 110 60 L 506 60 L 506 0 L 19 0 L 19 31 L 399 669 L 55 669 L 55 730 L 492 730 Z M 266 786 L 266 786 Z M 121 956 L 181 956 L 267 829 L 354 956 L 412 956 L 298 786 L 235 786 L 121 956 Z" unicode="Ž" />
<glyph horiz-adv-x="411" d="M 18 0 L 18 0 Z M 382 529 L 382 499 L 106 57 L 401 57 L 401 0 L 18 0 L 18 29 L 294 472 L 32 472 L 32 529 L 382 529 Z M 212 585 L 212 585 Z M 67 755 L 127 755 L 213 628 L 300 755 L 358 755 L 244 585 L 181 585 L 67 755 Z" unicode="ž" />
<glyph horiz-adv-x="360" d="M 167 -68 C 164 -100 151 -126 129 -147 C 106 -168 79 -179 47 -179 C 31 -179 16 -177 2 -175 C -11 -173 -22 -170 -29 -168 L -22 -121 C -17 -121 -10 -122 -1 -124 C 8 -126 17 -127 26 -127 C 46 -127 65 -119 82 -105 C 99 -91 109 -71 112 -45 L 147 341 L 50 341 L 50 396 L 152 396 L 173 635 C 175 668 188 693 210 711 C 232 729 254 738 277 738 C 289 738 300 737 311 736 C 321 735 328 734 331 734 L 325 676 C 323 676 319 677 313 678 C 307 678 301 679 295 679 C 276 679 260 672 248 660 C 235 647 228 627 226 601 L 208 396 L 314 396 L 314 341 L 203 341 L 167 -68 Z" unicode="ƒ" />
<glyph horiz-adv-x="521" d="M 42 0 L 42 0 Z M 264 -10 C 215 -10 172 -2 135 13 C 97 28 66 50 42 79 L 88 130 C 108 102 134 81 166 67 C 198 53 231 46 264 46 C 301 46 333 57 361 80 C 388 103 402 133 402 171 C 402 207 391 237 369 262 C 347 287 308 314 251 342 C 215 358 186 373 162 388 C 138 403 118 419 104 436 C 89 453 78 472 72 493 C 65 514 62 538 62 566 C 62 618 80 660 116 692 C 152 724 198 740 255 740 C 299 740 336 732 367 718 C 398 703 424 685 445 665 L 404 613 C 383 632 359 648 333 660 C 307 672 279 678 251 678 C 215 678 185 667 162 647 C 139 626 128 599 128 565 C 128 527 139 497 163 475 C 187 452 229 426 289 398 C 358 365 405 332 430 299 C 455 266 468 226 468 178 C 468 148 462 122 451 99 C 440 75 425 56 407 40 C 389 24 367 11 342 3 C 317 -5 291 -10 264 -10 Z M 250 -89 L 250 -89 Z M 330 -89 C 324 -138 311 -185 291 -229 C 271 -273 247 -309 220 -339 L 171 -316 C 179 -306 187 -292 197 -276 C 206 -259 215 -241 223 -221 C 231 -201 239 -179 246 -157 C 252 -134 257 -111 261 -89 L 330 -89 Z" unicode="Ș" />
<glyph horiz-adv-x="418" d="M 34 0 L 34 0 Z M 222 -9 C 180 -9 143 -2 112 10 C 80 23 54 40 34 61 L 66 106 C 84 88 106 73 132 62 C 158 50 187 45 217 45 C 244 45 268 53 289 70 C 309 87 320 109 320 136 C 320 160 311 180 293 198 C 275 215 242 233 194 252 C 140 272 103 294 83 319 C 63 343 53 373 53 408 C 53 446 68 477 99 501 C 129 525 167 538 211 538 C 251 538 284 532 310 521 C 336 509 356 498 371 486 L 345 435 C 329 447 311 458 289 468 C 267 478 243 484 216 484 C 189 484 165 477 145 463 C 125 449 115 430 115 408 C 115 385 122 366 137 352 C 151 338 184 321 234 302 C 288 280 327 257 349 232 C 371 206 383 174 383 136 C 383 113 378 93 369 75 C 360 57 348 41 334 29 C 319 17 302 7 282 1 C 262 -5 242 -9 222 -9 Z M 204 -85 L 204 -85 Z M 284 -85 C 278 -134 265 -181 245 -225 C 225 -269 201 -305 174 -335 L 125 -312 C 133 -302 141 -288 151 -272 C 160 -255 169 -237 177 -217 C 185 -197 193 -175 200 -153 C 206 -130 211 -107 215 -85 L 284 -85 Z" unicode="ș" />
<glyph horiz-adv-x="475" d="M 9 0 L 9 0 Z M 466 669 L 270 669 L 270 0 L 200 0 L 200 669 L 9 669 L 9 730 L 466 730 L 466 669 Z M 203 -82 L 203 -82 Z M 283 -82 C 277 -131 264 -178 244 -222 C 224 -266 200 -302 173 -332 L 124 -309 C 132 -299 140 -285 150 -269 C 159 -252 168 -234 176 -214 C 184 -194 192 -172 199 -150 C 205 -127 210 -104 214 -82 L 283 -82 Z" unicode="Ț" />
<glyph horiz-adv-x="301" d="M 15 0 L 15 0 Z M 273 70 L 285 17 C 277 11 265 5 250 1 C 235 -2 219 -5 202 -5 C 171 -5 144 5 122 25 C 100 45 89 77 89 121 L 89 474 L 15 474 L 15 529 L 90 529 L 90 658 L 153 667 L 153 529 L 273 529 L 273 474 L 154 474 L 154 124 C 154 102 159 84 169 72 C 179 60 194 54 213 54 C 225 54 237 55 248 59 C 258 63 267 66 273 70 Z M 142 -82 L 142 -82 Z M 222 -82 C 216 -131 203 -178 183 -222 C 163 -266 139 -302 112 -332 L 63 -309 C 71 -299 79 -285 89 -269 C 98 -252 107 -234 115 -214 C 123 -194 131 -172 138 -150 C 144 -127 149 -104 153 -82 L 222 -82 Z" unicode="ț" />
<glyph horiz-adv-x="244" d="M 170 529 L 170 -47 C 170 -95 156 -131 130 -157 C 103 -183 73 -196 41 -196 C 25 -196 10 -193 -5 -189 C -20 -185 -32 -180 -41 -174 L -20 -126 C -13 -129 -5 -132 3 -134 C 12 -136 22 -138 34 -138 C 50 -138 66 -129 82 -113 C 97 -96 105 -73 105 -43 L 105 529 L 170 529 Z" unicode="ȷ" />
<glyph horiz-adv-x="500" d="M 396 585 L 336 585 L 250 711 L 163 585 L 105 585 L 219 755 L 282 755 L 396 585 Z" unicode="ˆ" />
<glyph horiz-adv-x="500" d="M 105 755 L 165 755 L 251 628 L 338 755 L 396 755 L 282 585 L 219 585 L 105 755 Z" unicode="ˇ" />
<glyph horiz-adv-x="500" d="M 334 747 L 389 747 C 385 693 370 653 345 629 C 319 604 288 592 250 592 C 212 592 180 604 155 629 C 129 653 115 693 111 747 L 166 747 C 168 716 176 690 189 670 C 201 649 222 639 250 639 C 278 639 298 648 311 668 C 324 688 332 714 334 747 Z" unicode="˘" />
<glyph horiz-adv-x="500" d="M 280 587 L 220 587 L 220 731 L 280 731 L 280 587 Z" unicode="˙" />
<glyph horiz-adv-x="508" d="M 254 579 C 221 579 193 590 171 613 C 149 635 138 663 138 696 C 138 728 149 756 171 779 C 193 801 221 813 254 813 C 286 813 314 801 337 779 C 359 756 371 728 371 696 C 371 663 359 635 337 613 C 314 590 286 579 254 579 Z M 254 621 C 274 621 292 628 306 643 C 320 657 328 675 328 696 C 328 716 320 734 306 749 C 292 764 274 772 254 772 C 233 772 215 764 201 749 C 187 734 180 716 180 696 C 180 675 187 657 201 643 C 215 628 233 621 254 621 Z" unicode="˚" />
<glyph horiz-adv-x="500" d="M 358 -101 L 378 -127 C 359 -146 337 -161 313 -171 C 289 -181 262 -187 233 -187 C 201 -187 175 -179 157 -165 C 139 -151 130 -132 130 -110 C 130 -87 140 -65 161 -44 C 181 -22 212 -4 252 11 L 289 10 C 255 -4 230 -20 212 -36 C 194 -52 186 -68 186 -85 C 186 -101 192 -114 205 -124 C 217 -134 233 -139 253 -139 C 275 -139 295 -135 313 -128 C 331 -120 346 -111 358 -101 Z" unicode="˛" />
<glyph horiz-adv-x="500" d="M 359 721 L 410 721 C 410 677 403 644 391 624 C 379 603 362 593 340 593 C 322 593 305 597 291 606 C 277 615 264 624 253 634 C 241 643 230 652 219 661 C 208 670 197 675 186 675 C 175 675 165 668 157 655 C 149 642 144 623 144 598 L 93 598 C 93 640 101 672 118 693 C 134 714 153 725 173 725 C 189 725 204 720 217 711 C 230 702 243 692 255 682 C 265 672 276 664 287 656 C 297 648 308 645 319 645 C 329 645 338 651 346 664 C 354 677 358 696 359 721 Z" unicode="˜" />
<glyph horiz-adv-x="500" d="M 103 584 L 185 735 L 255 735 L 162 584 L 103 584 Z M 266 584 L 349 735 L 419 735 L 325 584 L 266 584 Z" unicode="˝" />
<glyph horiz-adv-x="0" d="M 0 584 L 0 584 Z M 87 584 L 23 584 L -87 751 L -11 751 L 87 584 Z" unicode="̀" />
<glyph horiz-adv-x="0" d="M 0 588 L 0 588 Z M -87 588 L 11 755 L 87 755 L -22 588 L -87 588 Z" unicode="́" />
<glyph horiz-adv-x="0" d="M 0 585 L 0 585 Z M 146 585 L 86 585 L 0 711 L -87 585 L -145 585 L -31 755 L 32 755 L 146 585 Z" unicode="̂" />
<glyph horiz-adv-x="0" d="M 0 593 L 0 593 Z M 108 721 L 159 721 C 159 677 152 644 140 624 C 128 603 111 593 89 593 C 71 593 54 597 40 606 C 26 615 13 624 2 634 C -9 643 -20 652 -31 661 C -42 670 -53 675 -65 675 C -75 675 -85 668 -93 655 C -101 642 -106 623 -107 598 L -158 598 C -158 640 -149 672 -133 693 C -116 714 -98 725 -78 725 C -61 725 -46 720 -33 711 C -20 702 -8 692 4 682 C 14 672 25 664 36 656 C 46 648 57 645 68 645 C 78 645 87 651 95 664 C 103 677 107 696 108 721 Z" unicode="̃" />
<glyph horiz-adv-x="0" d="M 0 608 L 0 608 Z M 121 608 L -121 608 L -121 663 L 121 663 L 121 608 Z" unicode="̄" />
<glyph horiz-adv-x="0" d="M 0 592 L 0 592 Z M 84 747 L 139 747 C 135 693 120 653 95 629 C 69 604 38 592 0 592 C -38 592 -69 604 -95 629 C -120 653 -135 693 -139 747 L -84 747 C -81 716 -73 690 -61 670 C -48 649 -28 639 0 639 C 28 639 48 648 61 668 C 74 688 82 714 84 747 Z" unicode="̆" />
<glyph horiz-adv-x="0" d="M 0 587 L 0 587 Z M 30 587 L -30 587 L -30 731 L 30 731 L 30 587 Z" unicode="̇" />
<glyph horiz-adv-x="0" d="M 0 585 L 0 585 Z M 110 585 L 55 585 L 55 741 L 110 741 L 110 585 Z M -55 585 L -110 585 L -110 741 L -55 741 L -55 585 Z" unicode="̈" />
<glyph horiz-adv-x="0" d="M 0 579 L 0 579 Z M 0 579 C -32 579 -60 590 -82 613 C -104 635 -116 663 -116 696 C -116 728 -104 756 -82 779 C -60 801 -32 813 0 813 C 32 813 60 801 83 779 C 105 756 117 728 117 696 C 117 663 105 635 83 613 C 60 590 32 579 0 579 Z M 0 621 C 20 621 38 628 52 643 C 66 657 74 675 74 696 C 74 716 66 734 52 749 C 38 764 20 772 0 772 C -20 772 -38 764 -52 749 C -66 734 -74 716 -74 696 C -74 675 -66 657 -52 643 C -38 628 -20 621 0 621 Z" unicode="̊" />
<glyph horiz-adv-x="0" d="M 0 584 L 0 584 Z M -157 584 L -75 735 L -5 735 L -98 584 L -157 584 Z M 6 584 L 89 735 L 159 735 L 65 584 L 6 584 Z" unicode="̋" />
<glyph horiz-adv-x="0" d="M 0 585 L 0 585 Z M -145 755 L -85 755 L 1 628 L 88 755 L 146 755 L 32 585 L -31 585 L -145 755 Z" unicode="̌" />
<glyph horiz-adv-x="0" d="M 0 -82 L 0 -82 Z M 80 -82 C 74 -131 61 -178 41 -222 C 21 -266 -2 -302 -30 -332 L -79 -309 C -71 -299 -62 -285 -53 -269 C -43 -252 -34 -234 -26 -214 C -18 -194 -10 -172 -4 -150 C 2 -127 7 -104 11 -82 L 80 -82 Z" unicode="̦" />
<glyph horiz-adv-x="0" d="M 0 0 L 0 0 Z M 7 -184 C -14 -184 -36 -181 -58 -175 C -80 -169 -98 -161 -111 -151 L -99 -122 C -89 -128 -76 -134 -60 -140 C -44 -146 -27 -149 -9 -149 C 7 -149 22 -145 34 -137 C 46 -129 53 -118 53 -106 C 53 -91 47 -81 36 -75 C 25 -69 13 -66 1 -66 C -7 -66 -15 -66 -22 -68 C -28 -69 -35 -71 -43 -74 L -53 -62 L 2 10 L 40 10 L -7 -52 C 25 -44 53 -46 76 -58 C 99 -69 111 -87 111 -111 C 111 -134 100 -152 80 -165 C 59 -177 35 -184 7 -184 Z" unicode="̧" />
<glyph horiz-adv-x="0" d="M 0 0 L 0 0 Z M 111 -101 L 131 -127 C 112 -146 90 -161 66 -171 C 42 -181 15 -187 -14 -187 C -46 -187 -71 -179 -89 -165 C -107 -151 -117 -132 -117 -110 C -117 -87 -106 -65 -86 -44 C -65 -22 -35 -4 5 11 L 42 10 C 8 -4 -16 -20 -34 -36 C -52 -52 -61 -68 -61 -85 C -61 -101 -54 -114 -42 -124 C -29 -134 -13 -139 6 -139 C 28 -139 48 -135 66 -128 C 84 -120 99 -111 111 -101 Z" unicode="̨" />
<glyph horiz-adv-x="584" d="M 2 0 L 2 0 Z M 608 0 L 2 0 L 285 731 L 327 731 L 608 0 Z M 516 54 L 302 627 L 90 54 L 516 54 Z" unicode="Δ" />
<glyph horiz-adv-x="724" d="M 38 0 L 38 0 Z M 47 0 L 47 60 L 267 60 L 267 142 C 232 154 200 170 172 191 C 144 211 120 235 100 261 C 80 287 65 315 54 346 C 43 376 38 408 38 441 C 38 483 45 523 61 560 C 76 597 98 629 126 657 C 154 684 187 705 227 721 C 267 737 311 745 360 745 C 410 745 456 737 497 721 C 538 705 573 683 601 656 C 629 628 651 596 667 559 C 682 522 690 483 690 441 C 690 408 684 376 674 346 C 664 315 649 287 630 261 C 610 235 586 211 558 191 C 529 171 496 154 460 142 L 460 60 L 681 60 L 681 0 L 412 0 L 412 178 C 444 189 473 204 499 223 C 525 241 546 262 564 285 C 582 307 595 332 605 358 C 614 384 619 411 619 438 C 619 474 612 508 600 539 C 587 570 569 597 547 619 C 524 641 497 658 465 671 C 433 683 398 690 360 690 C 323 690 289 683 258 671 C 227 658 201 640 179 618 C 157 596 139 569 127 538 C 115 507 109 473 109 436 C 109 410 113 384 123 358 C 132 332 145 308 163 286 C 180 263 202 242 228 224 C 254 205 283 190 316 178 L 316 0 L 47 0 Z" unicode="Ω" />
<glyph horiz-adv-x="594" d="M 83 0 L 83 0 Z M 83 -153 L 83 529 L 147 529 L 147 160 C 147 143 151 127 159 113 C 167 98 177 86 191 76 C 204 66 219 58 237 52 C 255 46 273 43 293 43 C 311 43 330 46 350 53 C 369 59 387 69 403 82 C 419 94 432 110 442 130 C 452 149 458 171 458 197 L 458 529 L 522 529 L 522 0 L 463 0 L 463 111 C 458 95 449 80 437 66 C 425 52 410 39 394 28 C 377 17 359 8 339 2 C 319 -3 299 -7 280 -8 C 251 -8 223 -1 197 11 C 170 24 152 42 142 65 L 142 -153 L 83 -153 Z" unicode="μ" />
<glyph horiz-adv-x="576" d="M 160 478 L 160 0 L 95 0 L 95 478 L 15 478 L 15 529 L 561 529 L 561 478 L 475 478 L 475 0 L 410 0 L 410 478 L 160 478 Z" unicode="π" />
<glyph horiz-adv-x="846" d="M 13 0 L 13 0 Z M 829 730 L 632 -6 L 587 -6 L 422 605 L 253 -6 L 208 -6 L 13 730 L 84 730 L 238 128 L 401 730 L 448 730 L 611 126 L 765 730 L 829 730 Z M 423 785 L 423 785 Z M 510 785 L 446 785 L 336 952 L 412 952 L 510 785 Z" unicode="Ẁ" />
<glyph horiz-adv-x="675" d="M 6 0 L 6 0 Z M 462 -2 L 342 351 L 212 -2 L 169 -2 L 6 529 L 71 529 L 199 99 L 322 447 L 367 447 L 481 101 L 609 529 L 669 529 L 505 -2 L 462 -2 Z M 342 584 L 342 584 Z M 429 584 L 365 584 L 255 751 L 331 751 L 429 584 Z" unicode="ẁ" />
<glyph horiz-adv-x="846" d="M 13 0 L 13 0 Z M 829 730 L 632 -6 L 587 -6 L 422 605 L 253 -6 L 208 -6 L 13 730 L 84 730 L 238 128 L 401 730 L 448 730 L 611 126 L 765 730 L 829 730 Z M 423 789 L 423 789 Z M 336 789 L 434 956 L 510 956 L 401 789 L 336 789 Z" unicode="Ẃ" />
<glyph horiz-adv-x="675" d="M 6 0 L 6 0 Z M 462 -2 L 342 351 L 212 -2 L 169 -2 L 6 529 L 71 529 L 199 99 L 322 447 L 367 447 L 481 101 L 609 529 L 669 529 L 505 -2 L 462 -2 Z M 342 588 L 342 588 Z M 255 588 L 353 755 L 429 755 L 320 588 L 255 588 Z" unicode="ẃ" />
<glyph horiz-adv-x="846" d="M 13 0 L 13 0 Z M 829 730 L 632 -6 L 587 -6 L 422 605 L 253 -6 L 208 -6 L 13 730 L 84 730 L 238 128 L 401 730 L 448 730 L 611 126 L 765 730 L 829 730 Z M 423 786 L 423 786 Z M 533 786 L 478 786 L 478 942 L 533 942 L 533 786 Z M 368 786 L 313 786 L 313 942 L 368 942 L 368 786 Z" unicode="Ẅ" />
<glyph horiz-adv-x="675" d="M 6 0 L 6 0 Z M 462 -2 L 342 351 L 212 -2 L 169 -2 L 6 529 L 71 529 L 199 99 L 322 447 L 367 447 L 481 101 L 609 529 L 669 529 L 505 -2 L 462 -2 Z M 342 585 L 342 585 Z M 452 585 L 397 585 L 397 741 L 452 741 L 452 585 Z M 287 585 L 232 585 L 232 741 L 287 741 L 287 585 Z" unicode="ẅ" />
<glyph horiz-adv-x="580" d="M 3 0 L 3 0 Z M 577 730 L 323 321 L 323 0 L 253 0 L 253 323 L 3 730 L 82 730 L 292 387 L 505 730 L 577 730 Z M 292 785 L 292 785 Z M 379 785 L 315 785 L 205 952 L 281 952 L 379 785 Z" unicode="Ỳ" />
<glyph horiz-adv-x="455" d="M 0 0 L 0 0 Z M 457 529 L 212 -90 C 194 -131 173 -160 148 -176 C 122 -192 98 -200 74 -200 C 57 -200 43 -198 33 -195 C 22 -191 14 -188 10 -186 L 32 -131 C 35 -133 41 -135 49 -137 C 57 -139 65 -141 74 -141 C 89 -141 104 -135 119 -123 C 133 -111 147 -91 159 -63 L 194 29 L -2 529 L 67 529 L 228 107 L 392 529 L 457 529 Z M 229 584 L 229 584 Z M 316 584 L 252 584 L 142 751 L 218 751 L 316 584 Z" unicode="ỳ" />
<glyph horiz-adv-x="460" d="M 418 233 L 42 233 L 42 289 L 418 289 L 418 233 Z" unicode="–" />
<glyph horiz-adv-x="645" d="M 603 233 L 42 233 L 42 289 L 603 289 L 603 233 Z" unicode="—" />
<glyph horiz-adv-x="232" d="M 38 507 L 38 514 C 38 554 47 593 67 631 C 86 669 113 704 149 737 L 212 731 C 202 722 190 710 178 696 C 166 682 154 665 144 647 C 134 628 125 607 118 585 C 110 563 107 539 107 515 L 107 507 L 38 507 Z" unicode="‘" />
<glyph horiz-adv-x="232" d="M 194 737 L 194 730 C 194 690 184 652 164 614 C 144 576 117 540 83 507 L 20 513 C 30 523 41 535 53 550 C 65 564 76 581 87 599 C 97 617 106 637 113 659 C 120 681 124 704 124 729 L 124 737 L 194 737 Z" unicode="’" />
<glyph horiz-adv-x="232" d="M 193 108 L 193 101 C 193 61 183 23 163 -14 C 143 -52 116 -88 82 -122 L 19 -116 C 29 -106 40 -93 52 -79 C 64 -64 76 -48 86 -30 C 96 -12 105 8 113 30 C 120 52 124 75 124 100 L 124 108 L 193 108 Z" unicode="‚" />
<glyph horiz-adv-x="388" d="M 202 507 L 202 514 C 202 552 211 589 231 626 C 251 663 279 700 317 737 L 374 731 C 364 721 353 709 341 695 C 328 681 316 664 305 646 C 293 628 284 607 276 585 C 268 563 265 539 265 515 L 265 507 L 202 507 Z M 38 507 L 38 514 C 38 552 48 589 69 626 C 89 663 117 700 153 737 L 210 731 C 201 722 190 710 178 696 C 165 682 153 665 142 647 C 130 628 121 607 113 585 C 105 563 101 539 101 515 L 101 507 L 38 507 Z" unicode="“" />
<glyph horiz-adv-x="388" d="M 188 737 L 188 730 C 188 690 178 652 160 615 C 141 578 113 542 77 507 L 20 513 C 30 523 42 536 54 551 C 66 565 78 582 89 600 C 99 618 108 637 115 659 C 122 681 126 704 126 729 L 126 737 L 188 737 Z M 349 737 L 349 730 C 349 690 339 652 320 614 C 301 576 274 541 238 507 L 181 513 C 192 523 204 536 216 551 C 228 565 240 582 250 600 C 260 618 269 637 276 659 C 283 681 287 704 287 729 L 287 737 L 349 737 Z" unicode="”" />
<glyph horiz-adv-x="389" d="M 187 110 L 187 103 C 187 63 177 25 159 -11 C 141 -47 113 -84 77 -120 L 19 -114 C 29 -103 41 -90 54 -76 C 66 -61 78 -45 88 -27 C 98 -9 107 10 114 32 C 121 54 125 77 125 102 L 125 110 L 187 110 Z M 350 110 L 350 103 C 350 63 340 25 321 -12 C 302 -49 275 -85 239 -120 L 182 -114 C 193 -103 205 -90 217 -76 C 229 -61 241 -45 251 -27 C 261 -9 270 10 277 32 C 284 54 288 77 288 102 L 288 110 L 350 110 Z" unicode="„" />
<glyph horiz-adv-x="507" d="M 485 414 L 285 414 L 285 -179 L 217 -179 L 217 414 L 23 414 L 23 471 L 217 471 L 217 730 L 285 730 L 285 471 L 485 471 L 485 414 Z" unicode="†" />
<glyph horiz-adv-x="509" d="M 218 -179 L 218 135 L 27 135 L 27 192 L 218 192 L 218 400 L 27 400 L 27 456 L 218 456 L 218 730 L 286 730 L 286 456 L 483 456 L 483 400 L 286 400 L 286 192 L 483 192 L 483 135 L 286 135 L 286 -179 L 218 -179 Z" unicode="‡" />
<glyph horiz-adv-x="382" d="M 191 442 C 208 442 223 435 235 423 C 247 411 254 396 254 379 C 254 361 247 347 235 335 C 223 323 208 317 191 317 C 173 317 159 323 147 335 C 135 347 129 361 129 379 C 129 396 135 411 147 423 C 159 435 173 442 191 442 Z" unicode="•" />
<glyph horiz-adv-x="632" d="M 72 0 L 72 115 L 139 115 L 139 0 L 72 0 Z M 283 0 L 283 115 L 349 115 L 349 0 L 283 0 Z M 494 0 L 494 115 L 560 115 L 560 0 L 494 0 Z" unicode="…" />
<glyph horiz-adv-x="1107" d="M 194 356 C 174 356 155 360 137 369 C 119 377 103 390 89 406 C 75 422 63 442 55 466 C 47 490 43 517 43 548 C 43 574 46 598 54 622 C 62 646 72 666 85 684 C 98 701 114 715 133 725 C 151 735 172 741 194 741 C 217 741 238 735 257 725 C 275 715 291 701 304 684 C 317 667 327 647 334 624 C 341 600 345 576 345 551 C 345 523 341 498 334 474 C 326 450 316 430 303 412 C 289 394 273 381 255 371 C 237 361 216 356 194 356 Z M 116 0 L 577 730 L 639 730 L 178 0 L 116 0 Z M 99 548 C 99 506 107 472 125 446 C 142 420 164 407 192 407 C 224 407 249 420 265 448 C 281 475 289 508 289 548 C 289 586 281 619 266 647 C 251 675 227 689 195 689 C 164 689 140 675 124 647 C 107 619 99 586 99 548 Z M 573 -3 C 553 -3 534 1 516 10 C 498 18 482 31 468 47 C 454 63 442 83 434 107 C 426 131 422 158 422 189 C 422 215 425 239 433 263 C 440 287 450 307 464 325 C 477 342 493 356 512 366 C 530 376 551 382 573 382 C 596 382 617 376 636 366 C 655 356 671 342 684 325 C 697 308 707 288 714 265 C 721 241 725 217 725 192 C 725 165 721 140 714 116 C 706 92 696 71 683 54 C 669 36 653 22 635 12 C 616 2 595 -3 573 -3 Z M 912 -3 C 892 -3 873 1 855 10 C 836 18 820 31 806 47 C 792 63 780 83 772 107 C 764 131 760 158 760 189 C 760 215 763 239 771 263 C 779 287 789 307 803 325 C 816 342 832 356 851 366 C 869 376 890 382 913 382 C 936 382 957 376 976 366 C 994 356 1010 342 1023 325 C 1036 308 1046 288 1053 265 C 1060 241 1064 217 1064 192 C 1064 165 1060 140 1053 116 C 1045 92 1035 71 1022 54 C 1008 36 992 22 974 12 C 955 2 934 -3 912 -3 Z M 571 49 C 603 49 628 62 644 90 C 660 117 668 150 668 189 C 668 227 660 260 645 288 C 630 316 606 331 574 331 C 543 331 519 317 503 289 C 486 261 478 228 478 189 C 478 147 486 114 504 88 C 521 62 543 49 571 49 Z M 910 49 C 942 49 967 62 983 90 C 999 117 1007 150 1007 189 C 1007 227 999 260 984 288 C 969 316 945 331 913 331 C 882 331 858 317 842 289 C 825 261 817 228 817 189 C 817 147 825 114 843 88 C 860 62 882 49 910 49 Z" unicode="‰" />
<glyph horiz-adv-x="227" d="M 197 119 L 29 284 L 29 321 L 197 484 L 197 420 L 86 301 L 197 186 L 197 119 Z" unicode="‹" />
<glyph horiz-adv-x="228" d="M 30 485 L 199 320 L 199 283 L 30 120 L 30 184 L 141 303 L 30 418 L 30 485 Z" unicode="›" />
<glyph horiz-adv-x="145" d="M 299 730 L -88 0 L -145 0 L 242 730 L 299 730 Z" unicode="⁄" />
<glyph horiz-adv-x="324" d="M 16 460 L 16 500 L 209 740 L 248 740 L 248 503 L 313 503 L 313 460 L 248 460 L 248 373 L 194 373 L 194 460 L 16 460 Z M 66 497 L 195 497 L 195 662 L 66 497 Z" unicode="⁴" />
<glyph horiz-adv-x="534" d="M 523 118 C 503 80 476 49 440 25 C 404 0 364 -12 320 -12 C 262 -12 211 13 167 63 C 123 113 94 182 82 270 L 38 270 L 38 318 L 77 318 C 76 325 76 332 76 340 C 76 348 76 355 76 363 C 76 370 76 377 76 385 C 76 392 76 399 77 406 L 38 406 L 38 453 L 82 453 C 87 495 96 534 110 570 C 123 606 140 636 160 662 C 180 687 204 707 231 721 C 257 735 287 742 319 742 C 370 742 411 730 442 708 C 472 686 496 659 513 627 L 463 599 C 448 625 429 647 407 663 C 385 679 356 688 320 688 C 274 688 235 667 204 625 C 172 583 152 526 144 453 L 463 453 L 463 406 L 139 406 C 138 398 138 391 138 383 C 138 375 138 368 138 361 C 138 353 138 346 138 339 C 138 331 138 324 139 318 L 463 318 L 463 270 L 144 270 C 154 196 177 140 211 101 C 245 61 282 42 322 42 C 357 42 388 52 414 73 C 440 94 460 119 475 148 L 523 118 Z" unicode="€" />
<glyph horiz-adv-x="846" d="M 786 311 L 728 311 L 728 633 L 581 423 L 571 423 L 425 632 L 425 311 L 368 311 L 368 730 L 414 730 L 577 500 L 742 730 L 786 730 L 786 311 Z M 339 665 L 213 665 L 213 311 L 146 311 L 146 665 L 24 665 L 24 730 L 339 730 L 339 665 Z" unicode="™" />
<glyph horiz-adv-x="728" d="M 47 0 L 47 60 L 267 60 L 267 142 C 232 154 200 170 172 191 C 144 211 120 235 100 261 C 80 287 65 315 54 346 C 43 376 38 408 38 441 C 38 483 45 523 61 560 C 76 597 98 629 126 657 C 154 684 187 705 227 721 C 267 737 311 745 360 745 C 410 745 456 737 497 721 C 538 705 573 683 601 656 C 629 628 651 596 667 559 C 682 522 690 483 690 441 C 690 408 684 376 674 346 C 664 315 649 287 630 261 C 610 235 586 211 558 191 C 529 171 496 154 460 142 L 460 60 L 681 60 L 681 0 L 412 0 L 412 178 C 444 189 473 204 499 223 C 525 241 546 262 564 285 C 582 307 595 332 605 358 C 614 384 619 411 619 438 C 619 474 612 508 600 539 C 587 570 569 597 547 619 C 524 641 497 658 465 671 C 433 683 398 690 360 690 C 323 690 289 683 258 671 C 227 658 201 640 179 618 C 157 596 139 569 127 538 C 115 507 109 473 109 436 C 109 410 113 384 123 358 C 132 332 145 308 163 286 C 180 263 202 242 228 224 C 254 205 283 190 316 178 L 316 0 L 47 0 Z" unicode="Ω" />
<glyph horiz-adv-x="543" d="M 501 281 C 501 232 495 189 483 153 C 471 117 454 87 433 63 C 412 39 387 21 359 9 C 331 -3 300 -9 268 -9 C 238 -9 209 -3 181 8 C 153 19 129 35 108 55 C 86 75 69 101 57 131 C 44 161 38 194 38 231 C 38 265 43 297 55 327 C 66 357 82 384 102 407 C 122 429 145 447 173 460 C 200 473 229 480 261 480 C 305 480 342 468 374 446 C 406 424 429 395 443 359 C 436 431 422 493 402 544 C 381 594 357 635 331 667 C 304 698 275 721 245 736 C 215 750 187 758 161 759 L 192 802 C 219 802 250 792 286 774 C 322 755 355 725 387 684 C 419 643 446 589 468 523 C 490 456 501 375 501 281 Z M 269 40 C 317 40 357 58 387 96 C 417 133 433 182 433 242 C 433 268 429 292 421 315 C 413 338 403 358 389 375 C 375 392 357 405 337 415 C 316 425 293 430 267 430 C 220 430 181 411 151 374 C 121 337 106 291 106 235 C 106 174 121 126 152 92 C 182 57 221 40 269 40 Z" unicode="∂" />
<glyph horiz-adv-x="610" d="M 608 0 L 2 0 L 285 731 L 327 731 L 608 0 Z M 516 54 L 302 627 L 90 54 L 516 54 Z" unicode="∆" />
<glyph horiz-adv-x="676" d="M 202 671 L 202 0 L 135 0 L 135 671 L 15 671 L 15 730 L 661 730 L 661 671 L 545 671 L 545 0 L 478 0 L 478 671 L 202 671 Z" unicode="∏" />
<glyph horiz-adv-x="582" d="M 139 669 L 388 307 L 107 -118 L 544 -118 L 544 -179 L -5 -179 L 318 306 L 24 730 L 523 730 L 523 669 L 139 669 Z" unicode="∑" />
<glyph horiz-adv-x="501" d="M 459 304 L 42 304 L 42 360 L 459 360 L 459 304 Z" unicode="−" />
<glyph horiz-adv-x="510" d="M 496 730 L 198 0 L 186 0 L 15 325 L 63 357 L 200 90 L 453 730 L 496 730 Z" unicode="√" />
<glyph horiz-adv-x="327" d="M 112 -45 L 173 635 C 175 668 188 693 210 711 C 232 729 254 738 277 738 C 289 738 300 737 311 736 C 321 735 328 734 331 734 L 325 676 C 323 676 319 677 313 678 C 307 678 301 679 295 679 C 276 679 260 672 248 660 C 235 648 228 628 226 601 L 167 -68 C 164 -100 151 -126 129 -148 C 106 -169 79 -179 47 -179 C 31 -179 16 -177 2 -174 C -11 -170 -21 -167 -28 -164 L -21 -118 C -17 -118 -10 -120 -1 -123 C 8 -125 17 -127 26 -127 C 46 -127 65 -119 82 -105 C 99 -91 109 -71 112 -45 Z" unicode="∫" />
<glyph horiz-adv-x="494" d="M 403 490 L 451 490 C 450 441 442 403 426 376 C 410 349 386 336 353 336 C 331 336 312 341 295 352 C 277 363 262 375 248 389 C 234 403 219 416 205 426 C 191 436 176 442 160 442 C 144 442 129 433 113 415 C 97 397 90 371 90 339 L 42 339 C 42 387 52 424 73 451 C 93 478 119 492 150 492 C 172 492 193 485 211 473 C 229 461 245 448 259 434 C 272 422 285 410 299 400 C 312 389 327 384 343 384 C 363 384 378 392 388 409 C 398 425 403 452 403 490 Z M 403 321 L 451 321 C 450 272 442 234 426 208 C 410 181 386 168 353 168 C 331 168 312 173 295 184 C 277 194 262 207 248 221 C 234 235 220 247 206 257 C 192 267 176 273 160 273 C 144 273 129 264 113 246 C 97 228 90 203 90 171 L 42 171 C 42 219 52 256 73 283 C 93 309 119 323 150 323 C 172 323 192 316 210 304 C 228 292 244 278 259 264 C 271 252 284 240 298 230 C 312 220 327 215 343 215 C 363 215 378 223 388 240 C 398 256 403 283 403 321 Z" unicode="≈" />
<glyph horiz-adv-x="494" d="M 451 186 L 214 186 L 163 79 L 125 95 L 168 186 L 63 186 L 63 242 L 195 242 L 268 395 L 63 395 L 63 449 L 293 449 L 342 551 L 381 535 L 340 449 L 451 449 L 451 395 L 314 395 L 241 242 L 451 242 L 451 186 Z" unicode="≠" />
<glyph horiz-adv-x="494" d="M 60 303 L 60 348 L 430 550 L 430 493 L 123 327 L 430 159 L 430 103 L 60 303 Z M 59 75 L 430 75 L 430 29 L 59 29 L 59 75 Z" unicode="≤" />
<glyph horiz-adv-x="494" d="M 429 303 L 59 103 L 59 159 L 365 327 L 58 493 L 58 550 L 429 348 L 429 303 Z M 430 75 L 430 29 L 59 29 L 59 75 L 430 75 Z" unicode="≥" />
<glyph horiz-adv-x="522" d="M 491 326 L 266 -6 L 256 -6 L 31 326 L 31 337 L 256 668 L 266 668 L 491 337 L 491 326 Z M 429 327 L 429 336 L 266 582 L 257 582 L 94 336 L 94 327 L 257 80 L 266 80 L 429 327 Z" unicode="◊" />
<glyph horiz-adv-x="730" d="M 448 692 L 282 692 L 282 730 L 448 730 L 448 692 Z M 659 282 L 619 282 L 619 448 L 659 448 L 659 282 Z M 111 282 L 71 282 L 71 448 L 111 448 L 111 282 Z M 414 316 L 316 316 L 316 414 L 414 414 L 414 316 Z M 448 0 L 282 0 L 282 39 L 448 39 L 448 0 Z" unicode="" />
<glyph horiz-adv-x="571" d="M 329 469 L 179 469 L 179 0 L 115 0 L 115 469 L 19 469 L 19 522 L 115 522 L 115 614 C 115 645 119 672 129 696 C 139 720 151 739 167 755 C 183 771 200 782 220 790 C 239 798 258 802 278 802 C 294 802 310 800 326 797 C 342 793 353 790 361 786 L 342 730 C 336 732 328 735 316 738 C 304 741 293 743 283 743 C 271 743 259 740 247 735 C 235 730 224 722 214 712 C 204 702 195 689 189 673 C 182 657 179 638 179 617 L 179 522 L 329 522 L 329 469 Z M 494 650 L 423 650 L 423 717 L 494 717 L 494 650 Z M 491 0 L 426 0 L 426 522 L 491 522 L 491 0 Z" unicode="ﬁ" />
<glyph horiz-adv-x="586" d="M 329 473 L 178 473 L 178 0 L 114 0 L 114 473 L 16 473 L 16 529 L 114 529 L 114 614 C 114 645 118 672 128 696 C 138 720 150 739 166 755 C 182 771 199 782 219 790 C 238 798 257 802 277 802 C 292 802 308 800 324 797 C 340 793 352 790 359 786 L 341 730 C 335 732 327 735 315 738 C 303 741 292 743 282 743 C 270 743 258 740 246 735 C 234 730 223 722 213 712 C 203 702 194 689 188 673 C 181 657 178 638 178 617 L 178 529 L 329 529 L 329 473 Z M 412 99 L 412 800 L 477 800 L 477 116 C 477 95 482 79 492 69 C 502 58 515 53 533 53 C 540 53 547 53 555 54 C 562 55 568 57 573 59 L 577 3 C 571 1 563 -1 552 -3 C 541 -5 530 -6 519 -6 C 490 -6 465 2 444 20 C 422 37 412 63 412 99 Z" unicode="ﬂ" />
</font>
</defs>
</svg>
