<?xml version="1.0" encoding="utf-8" ?><svg version="1.1" xmlns = 'http://www.w3.org/2000/svg'><defs><font id='web' horiz-adv-x="1000">
<font-face font-family="web" descent="-200" cap-height="730" units-per-em="1000" bbox="-148,-317,976,1019" x-height="482" ascent="800" />
<missing-glyph horiz-adv-x="500" d="" /><glyph horiz-adv-x="190" d="" unicode=" " />
<glyph horiz-adv-x="262" d="M 168 431 L 147 188 L 116 188 L 95 431 L 95 730 L 168 730 L 168 431 Z M 166 0 L 98 0 L 98 83 L 166 83 L 166 0 Z" unicode="!" />
<glyph horiz-adv-x="335" d="M 275 622 L 270 493 L 219 493 L 215 621 L 215 730 L 275 730 L 275 622 Z M 119 621 L 116 493 L 64 493 L 60 621 L 60 730 L 119 730 L 119 621 Z" unicode="&#x22;" />
<glyph horiz-adv-x="566" d="M 516 235 L 390 235 L 369 0 L 327 1 L 348 235 L 197 235 L 176 0 L 134 1 L 155 235 L 30 235 L 30 291 L 159 291 L 172 436 L 50 436 L 50 491 L 177 491 L 198 730 L 240 729 L 219 491 L 370 491 L 391 730 L 433 729 L 412 491 L 536 491 L 536 436 L 407 436 L 395 291 L 516 291 L 516 235 Z M 202 291 L 352 291 L 365 436 L 214 436 L 202 291 Z" unicode="#" />
<glyph horiz-adv-x="469" d="M 430 182 C 430 156 425 132 416 110 C 407 88 395 70 379 55 C 363 39 344 27 323 17 C 302 7 280 2 256 0 L 256 -124 L 214 -124 L 214 0 C 176 2 141 10 109 26 C 77 41 51 61 29 87 L 61 136 C 79 112 102 93 130 79 C 158 65 186 58 214 56 L 214 353 C 155 382 112 412 86 442 C 60 472 47 512 47 562 C 47 610 62 649 94 680 C 125 710 165 727 214 731 L 214 791 L 256 791 L 256 730 C 288 727 317 720 343 708 C 369 696 393 681 413 661 L 377 616 C 360 633 341 646 321 656 C 300 666 278 672 256 675 L 256 398 L 260 396 C 324 364 368 332 393 300 C 417 268 430 229 430 182 Z M 110 559 C 110 528 117 503 132 483 C 146 463 174 442 214 420 L 214 675 C 185 671 160 659 140 639 C 120 618 110 591 110 559 Z M 368 183 C 368 213 360 239 345 261 C 329 283 300 306 256 331 L 256 57 C 285 61 311 74 334 95 C 356 115 368 145 368 183 Z" unicode="$" />
<glyph horiz-adv-x="709" d="M 178 362 C 161 362 144 366 128 374 C 112 382 97 393 84 409 C 71 425 61 444 53 468 C 45 492 42 519 42 551 C 42 577 45 602 52 625 C 58 648 68 668 80 685 C 92 702 106 716 123 726 C 140 736 158 741 178 741 C 199 741 218 736 235 726 C 252 716 267 702 279 685 C 291 668 300 648 307 626 C 313 603 317 579 317 554 C 317 527 313 502 306 478 C 299 454 289 434 277 417 C 265 400 250 387 233 377 C 216 367 198 362 178 362 Z M 153 0 L 99 0 L 542 730 L 594 730 L 153 0 Z M 177 412 C 191 412 204 415 215 423 C 226 431 235 441 242 454 C 248 466 253 481 257 498 C 260 515 262 532 262 550 C 262 567 260 584 257 601 C 254 618 249 633 243 646 C 236 659 227 670 217 678 C 207 686 194 690 180 690 C 166 690 153 686 143 678 C 132 670 123 660 117 647 C 110 634 105 619 102 602 C 98 585 97 568 97 550 C 97 513 103 481 117 453 C 130 425 150 412 177 412 Z M 528 -3 C 510 -3 493 1 477 9 C 461 17 446 28 434 44 C 421 60 411 79 403 103 C 395 127 391 154 391 186 C 391 212 394 237 401 260 C 407 283 417 303 429 320 C 441 337 456 351 473 361 C 490 371 509 376 530 376 C 551 376 570 371 588 361 C 605 351 619 337 631 320 C 643 303 652 283 658 261 C 664 238 668 214 668 189 C 668 162 664 137 658 113 C 651 89 641 69 629 52 C 617 35 602 22 585 12 C 567 2 548 -3 528 -3 Z M 527 48 C 541 48 554 51 565 59 C 576 67 585 77 592 90 C 598 102 603 117 607 134 C 610 150 612 168 612 186 C 612 203 610 220 607 237 C 603 254 598 269 592 282 C 585 295 576 306 566 314 C 556 322 544 326 530 326 C 516 326 503 322 493 314 C 483 306 474 296 468 283 C 461 270 456 255 452 238 C 448 221 447 204 447 186 C 447 148 453 116 467 89 C 481 61 501 48 527 48 Z" unicode="%" />
<glyph horiz-adv-x="641" d="M 581 -5 L 498 82 C 465 53 429 31 390 15 C 351 0 308 -8 261 -8 C 194 -8 139 7 97 39 C 54 71 33 116 33 174 C 33 232 49 276 82 308 C 114 340 154 370 200 398 L 175 424 C 158 442 142 465 126 492 C 110 518 102 550 102 587 C 102 606 106 625 114 643 C 122 661 133 677 147 691 C 161 705 179 716 199 724 C 219 732 242 737 267 737 C 319 737 360 722 390 693 C 420 664 435 630 435 590 C 435 548 422 511 396 481 C 370 451 334 421 290 392 L 501 173 C 512 186 523 201 535 217 C 547 233 558 249 569 267 L 621 232 C 608 212 595 194 583 176 C 570 158 557 142 544 128 L 625 43 L 581 -5 Z M 224 461 L 254 430 C 292 454 321 478 341 502 C 361 525 372 550 372 578 C 372 606 363 630 345 650 C 327 670 301 681 269 681 C 238 681 213 670 195 649 C 177 627 168 604 168 580 C 168 558 173 537 183 517 C 193 497 207 478 224 461 Z M 104 180 C 104 160 108 141 117 125 C 125 109 137 95 152 84 C 167 72 185 64 205 58 C 225 52 246 49 268 49 C 304 49 337 55 368 69 C 399 82 428 101 456 127 L 237 358 C 199 333 167 307 142 281 C 116 255 104 221 104 180 Z" unicode="&#x26;" />
<glyph horiz-adv-x="180" d="M 121 620 L 117 490 L 63 490 L 59 620 L 59 730 L 121 730 L 121 620 Z" unicode="'" />
<glyph horiz-adv-x="296" d="M 275 -125 L 275 -180 C 241 -161 208 -136 178 -105 C 148 -74 121 -38 99 2 C 77 42 59 87 46 137 C 32 186 26 238 26 293 C 26 345 32 394 45 442 C 57 489 75 532 97 572 C 119 611 146 646 176 676 C 206 706 239 731 275 749 L 275 696 C 220 660 176 606 144 535 C 112 463 95 383 95 293 C 95 251 98 209 106 168 C 113 127 124 89 139 53 C 154 17 173 -16 196 -47 C 218 -77 245 -103 275 -125 Z" unicode="(" />
<glyph horiz-adv-x="296" d="M 21 696 L 21 749 C 53 733 85 710 115 681 C 145 651 172 617 195 577 C 217 537 235 492 249 442 C 263 392 270 338 270 282 C 270 230 263 180 250 132 C 237 84 219 41 197 1 C 174 -38 147 -73 117 -104 C 87 -135 55 -160 21 -180 L 21 -123 C 49 -103 75 -78 97 -49 C 119 -20 138 11 154 46 C 170 80 182 118 190 158 C 198 198 203 240 203 282 C 203 375 187 458 154 532 C 120 605 76 660 21 696 Z" unicode=")" />
<glyph horiz-adv-x="392" d="M 359 593 L 225 556 L 317 455 L 275 420 L 197 537 L 120 421 L 76 454 L 169 557 L 37 594 L 62 647 L 180 589 L 169 730 L 225 730 L 214 589 L 337 641 L 359 593 Z" unicode="*" />
<glyph horiz-adv-x="490" d="M 460 305 L 272 305 L 272 123 L 218 123 L 218 305 L 29 305 L 29 357 L 218 357 L 218 539 L 272 539 L 272 357 L 460 357 L 460 305 Z" unicode="+" />
<glyph horiz-adv-x="200" d="M 160 95 C 156 51 145 7 127 -36 C 108 -80 86 -116 61 -146 L 12 -123 C 19 -113 27 -99 36 -83 C 44 -67 52 -49 60 -30 C 68 -11 74 8 80 30 C 86 52 90 73 92 95 L 160 95 Z" unicode="," />
<glyph horiz-adv-x="318" d="M 278 231 L 41 231 L 41 290 L 278 290 L 278 231 Z" unicode="-" />
<glyph horiz-adv-x="201" d="M 134 0 L 67 0 L 67 112 L 134 112 L 134 0 Z" unicode="." />
<glyph horiz-adv-x="299" d="M 293 730 L 68 0 L 7 0 L 233 730 L 293 730 Z" unicode="/" />
<glyph horiz-adv-x="486" d="M 240 -9 C 180 -9 131 20 93 80 C 55 140 37 233 37 360 C 37 416 41 467 49 514 C 57 560 70 600 87 634 C 104 667 126 693 152 712 C 178 730 208 740 244 740 C 280 740 311 730 337 712 C 363 694 385 668 401 636 C 417 603 429 564 437 519 C 445 473 449 424 449 370 C 449 252 431 159 396 92 C 360 24 308 -9 240 -9 Z M 240 48 C 288 48 324 75 348 129 C 371 183 383 261 383 363 C 383 460 372 537 352 595 C 331 653 295 682 243 682 C 193 682 158 654 136 598 C 114 542 103 464 103 364 C 103 257 115 178 139 126 C 163 74 196 48 240 48 Z" unicode="0" />
<glyph horiz-adv-x="311" d="M 231 0 L 164 0 L 164 633 C 153 612 135 592 110 572 C 84 552 60 540 38 537 L 38 605 C 62 607 88 622 116 648 C 144 674 164 702 177 731 L 231 731 L 231 0 Z" unicode="1" />
<glyph horiz-adv-x="466" d="M 432 0 L 29 0 L 29 19 L 286 352 C 306 378 323 408 338 441 C 352 473 360 510 360 550 C 360 593 347 626 322 648 C 297 670 266 681 229 681 C 183 681 150 665 128 635 C 106 604 95 564 95 514 L 35 514 C 35 590 53 646 89 683 C 125 720 172 739 232 739 C 286 739 331 723 368 693 C 405 662 424 617 424 557 C 424 503 415 458 399 423 C 383 388 364 357 344 331 L 133 60 L 432 60 L 432 0 Z" unicode="2" />
<glyph horiz-adv-x="464" d="M 215 -9 C 162 -9 119 0 86 15 C 53 31 27 50 9 70 L 41 119 C 57 102 78 86 105 71 C 131 55 166 48 208 48 C 235 48 259 52 280 62 C 300 71 318 83 332 99 C 346 115 356 133 364 154 C 371 174 375 196 375 220 C 375 244 370 265 362 284 C 354 302 343 318 329 331 C 315 343 298 353 280 359 C 261 365 241 369 221 369 L 126 369 L 126 426 L 218 426 C 256 426 287 438 313 463 C 338 487 351 520 351 560 C 351 594 340 622 318 646 C 296 670 265 682 225 682 C 187 682 155 674 130 658 C 104 642 83 620 67 594 L 27 635 C 45 664 70 689 103 709 C 136 729 179 740 231 740 C 287 740 332 724 365 694 C 397 664 414 623 414 572 C 414 548 410 526 403 507 C 396 487 387 470 375 456 C 363 442 350 430 336 421 C 321 411 306 405 291 401 C 309 397 327 390 345 381 C 362 371 377 359 391 344 C 405 328 416 310 424 290 C 432 269 437 245 437 219 C 437 190 432 162 424 135 C 415 107 401 83 383 62 C 365 40 342 23 314 10 C 286 -2 253 -9 215 -9 Z" unicode="3" />
<glyph horiz-adv-x="467" d="M 462 202 L 365 202 L 365 0 L 307 0 L 307 202 L 9 202 L 8 246 L 323 741 L 365 741 L 365 258 L 462 258 L 462 202 Z M 307 256 L 307 622 L 77 256 L 307 256 Z" unicode="4" />
<glyph horiz-adv-x="463" d="M 223 -9 C 179 -9 138 0 101 15 C 64 31 36 52 17 77 L 54 124 C 70 102 92 84 120 70 C 148 55 181 48 217 48 C 264 48 301 66 329 102 C 357 138 371 186 371 247 C 371 302 358 345 332 375 C 306 405 274 421 234 421 C 196 421 166 413 144 397 C 122 381 105 359 93 333 L 48 345 L 74 730 L 397 730 L 397 670 L 123 670 L 105 399 C 115 419 132 437 156 453 C 180 469 213 477 253 477 C 306 477 350 457 385 419 C 419 381 437 325 437 252 C 437 169 416 105 376 59 C 336 13 285 -9 223 -9 Z" unicode="5" />
<glyph horiz-adv-x="458" d="M 238 -10 C 208 -10 181 -4 155 6 C 129 16 107 31 89 51 C 71 71 56 95 46 124 C 36 153 31 186 31 223 C 31 297 48 370 84 444 C 120 518 170 594 236 674 L 294 746 L 341 711 L 297 659 C 243 593 199 531 166 475 C 132 419 112 373 105 337 C 115 361 133 383 159 403 C 184 422 215 432 253 432 C 281 432 306 426 329 415 C 351 404 370 389 386 370 C 402 350 414 327 422 300 C 430 273 435 244 435 213 C 435 181 430 152 420 125 C 410 97 397 74 380 54 C 363 34 342 18 318 7 C 294 -4 267 -10 238 -10 Z M 237 46 C 278 46 311 61 335 92 C 359 123 372 162 372 210 C 372 259 360 299 337 330 C 314 360 281 376 239 376 C 201 376 167 361 139 333 C 111 305 97 266 97 216 C 97 162 110 121 136 91 C 162 61 196 46 237 46 Z" unicode="6" />
<glyph horiz-adv-x="394" d="M 393 730 L 396 701 L 103 -4 L 44 19 L 320 670 L 11 670 L 11 730 L 393 730 Z" unicode="7" />
<glyph horiz-adv-x="483" d="M 313 388 C 329 384 346 378 364 369 C 381 359 396 347 410 332 C 423 316 434 298 443 276 C 451 254 456 229 456 201 C 456 137 437 86 399 48 C 361 10 309 -9 243 -9 C 177 -9 124 9 86 47 C 47 84 28 133 28 195 C 28 225 32 251 42 274 C 51 297 63 317 77 333 C 91 349 107 361 125 370 C 142 379 158 385 174 387 C 160 390 145 396 130 404 C 115 412 101 423 89 437 C 77 451 67 467 59 487 C 51 507 48 530 48 556 C 48 584 53 609 63 632 C 73 654 87 673 105 689 C 122 705 142 717 166 726 C 190 734 215 739 242 739 C 300 739 346 722 382 690 C 418 657 436 614 436 562 C 436 536 432 514 425 494 C 417 474 408 457 396 443 C 384 429 371 417 357 408 C 342 398 327 392 313 388 Z M 243 410 C 281 410 313 422 338 446 C 363 470 376 504 376 546 C 376 588 363 622 338 646 C 312 670 281 683 243 683 C 205 683 172 671 146 647 C 119 623 106 590 106 548 C 106 524 110 504 118 486 C 126 468 136 454 149 443 C 161 431 176 423 193 418 C 209 412 226 410 243 410 Z M 243 47 C 288 47 324 60 351 88 C 378 115 392 154 392 206 C 392 254 377 291 348 317 C 318 342 283 355 243 355 C 201 355 165 342 136 317 C 106 291 92 253 92 202 C 92 154 106 116 135 88 C 164 60 200 47 243 47 Z" unicode="8" />
<glyph horiz-adv-x="458" d="M 176 -13 L 130 24 L 174 71 C 194 93 215 120 235 150 C 255 180 274 210 291 240 C 307 270 322 300 334 329 C 346 358 355 383 359 404 C 347 377 326 353 297 333 C 267 312 236 302 202 302 C 174 302 148 307 126 318 C 104 329 85 344 70 364 C 54 384 42 407 34 434 C 26 461 22 490 22 522 C 22 553 27 582 37 609 C 47 635 60 658 78 678 C 96 697 117 712 142 723 C 166 734 193 740 223 740 C 251 740 277 735 302 725 C 326 715 348 700 366 681 C 384 661 399 637 410 608 C 420 578 426 545 426 507 C 426 465 420 422 409 379 C 397 336 383 295 365 256 C 347 216 326 179 303 144 C 280 109 257 79 234 53 L 176 -13 Z M 218 358 C 236 358 253 361 271 368 C 288 375 303 385 317 399 C 330 413 341 429 349 449 C 357 469 361 491 361 516 C 361 570 347 612 320 640 C 293 668 261 682 223 682 C 180 682 146 667 122 637 C 98 607 86 569 86 523 C 86 473 97 433 120 403 C 142 373 175 358 218 358 Z" unicode="9" />
<glyph horiz-adv-x="202" d="M 135 373 L 68 373 L 68 482 L 135 482 L 135 373 Z M 135 0 L 68 0 L 68 110 L 135 110 L 135 0 Z" unicode=":" />
<glyph horiz-adv-x="202" d="M 140 373 L 73 373 L 73 482 L 140 482 L 140 373 Z M 145 91 C 141 47 130 4 112 -38 C 94 -80 73 -115 48 -145 L -2 -122 C 14 -101 30 -71 48 -31 C 66 9 76 49 79 91 L 145 91 Z" unicode=";" />
<glyph horiz-adv-x="370" d="M 327 100 L 37 303 L 37 347 L 327 548 L 327 486 L 102 325 L 327 163 L 327 100 Z" unicode="&#x3C;" />
<glyph horiz-adv-x="499" d="M 442 394 L 57 394 L 57 450 L 442 450 L 442 394 Z M 442 186 L 57 186 L 57 243 L 442 243 L 442 186 Z" unicode="=" />
<glyph horiz-adv-x="370" d="M 331 303 L 42 100 L 42 163 L 266 325 L 42 486 L 42 548 L 331 347 L 331 303 Z" unicode="&#x3E;" />
<glyph horiz-adv-x="435" d="M 167 188 C 167 236 172 275 183 305 C 193 335 211 363 236 391 C 246 401 256 412 268 424 C 280 436 290 449 300 463 C 310 477 318 492 325 509 C 331 525 335 544 335 565 C 335 601 323 629 299 651 C 275 672 245 683 210 683 C 178 683 150 675 126 659 C 102 643 81 624 65 601 L 24 642 C 47 674 76 698 110 716 C 144 733 180 742 220 742 C 275 742 319 727 353 697 C 387 667 404 626 404 572 C 404 546 400 523 392 503 C 384 483 375 464 364 447 C 352 430 340 414 326 400 C 312 385 299 371 287 359 C 263 337 248 311 242 279 C 235 247 231 216 231 188 L 167 188 Z M 164 0 L 164 93 L 236 93 L 236 0 L 164 0 Z" unicode="?" />
<glyph horiz-adv-x="837" d="M 415 -29 C 361 -29 312 -19 266 1 C 220 21 180 48 147 82 C 114 116 88 156 69 202 C 50 248 41 297 41 349 C 41 401 50 451 69 497 C 88 543 114 583 148 617 C 181 651 221 677 267 697 C 313 717 364 727 418 727 C 474 727 525 718 572 701 C 618 683 658 659 691 629 C 724 598 750 561 768 519 C 786 476 796 430 796 380 C 796 336 791 298 781 267 C 771 236 758 211 742 192 C 726 172 708 158 689 149 C 670 140 652 136 634 136 C 603 136 579 143 562 159 C 544 174 534 192 532 214 C 524 197 505 180 474 162 C 442 144 408 136 370 136 C 321 136 284 147 258 171 C 232 195 220 225 220 262 C 220 306 237 340 272 365 C 307 389 353 402 411 402 L 522 402 L 522 416 C 522 458 511 486 489 502 C 467 518 441 526 411 526 C 386 526 362 523 340 517 C 317 511 298 504 283 498 L 264 543 C 283 551 306 559 332 565 C 358 571 385 575 411 575 C 467 575 508 560 535 532 C 562 503 576 460 576 404 L 576 248 C 576 231 580 216 590 202 C 600 188 616 181 638 181 C 648 181 659 183 672 189 C 685 194 697 204 709 218 C 720 232 729 252 737 278 C 745 303 749 336 749 376 C 749 419 741 459 725 497 C 709 535 687 567 659 595 C 630 623 595 644 555 660 C 514 676 469 684 419 684 C 371 684 327 675 287 657 C 246 639 211 616 182 586 C 152 556 129 520 113 479 C 96 438 88 395 88 349 C 88 303 96 260 113 219 C 129 178 152 142 182 112 C 211 82 246 58 286 40 C 326 22 370 14 417 14 C 437 14 459 16 482 20 C 504 24 528 32 554 45 L 571 5 C 543 -7 517 -16 491 -21 C 465 -26 439 -29 415 -29 Z M 385 183 C 400 183 415 185 431 189 C 446 193 460 199 473 206 C 485 212 496 220 505 228 C 514 236 520 244 522 252 L 522 358 L 414 358 C 370 358 336 350 314 334 C 291 318 280 295 280 267 C 280 242 289 222 307 206 C 325 190 351 183 385 183 Z" unicode="@" />
<glyph horiz-adv-x="526" d="M 521 0 L 452 0 L 384 210 L 136 210 L 71 0 L 4 0 L 239 734 L 286 734 L 521 0 Z M 371 265 L 260 614 L 150 265 L 371 265 Z" unicode="A" />
<glyph horiz-adv-x="489" d="M 80 0 L 80 730 L 245 730 C 299 730 342 714 375 684 C 408 654 425 612 425 558 C 425 506 412 465 387 435 C 362 404 332 386 297 380 C 315 378 334 374 353 366 C 371 358 388 347 403 333 C 418 318 430 300 440 279 C 450 257 455 232 455 204 C 455 144 437 95 402 57 C 367 19 320 0 262 0 L 80 0 Z M 147 401 L 233 401 C 255 401 274 405 290 413 C 306 421 319 431 329 445 C 339 458 346 473 351 491 C 355 508 358 526 358 545 C 358 583 346 614 324 637 C 301 659 269 671 229 671 L 147 671 L 147 401 Z M 147 59 L 252 59 C 298 59 331 73 353 102 C 375 131 386 166 386 207 C 386 251 372 284 345 308 C 317 332 284 344 244 344 L 147 344 L 147 59 Z" unicode="B" />
<glyph horiz-adv-x="572" d="M 320 -9 C 282 -9 246 -1 212 15 C 178 31 149 54 124 86 C 99 117 79 156 65 203 C 50 249 43 303 43 365 C 43 423 49 475 62 521 C 75 567 94 607 118 639 C 142 671 171 695 205 713 C 239 730 278 739 320 739 C 378 739 425 726 459 702 C 493 678 520 647 539 609 L 482 577 C 466 605 445 628 421 647 C 396 666 363 676 321 676 C 257 676 206 649 169 597 C 132 544 114 466 114 362 C 114 308 120 262 132 223 C 144 183 159 151 179 126 C 199 101 221 83 247 71 C 272 59 298 53 325 53 C 369 53 404 63 432 84 C 459 105 481 132 498 166 L 552 136 C 531 92 501 57 463 31 C 424 4 376 -9 320 -9 Z" unicode="C" />
<glyph horiz-adv-x="603" d="M 80 0 L 80 730 L 244 730 C 294 730 338 721 378 704 C 417 687 450 663 477 632 C 503 601 524 563 538 519 C 552 475 560 426 560 372 C 560 320 553 271 539 225 C 525 179 505 140 478 107 C 451 73 417 47 376 28 C 335 9 288 0 234 0 L 80 0 Z M 149 59 L 231 59 C 276 59 315 66 347 82 C 379 97 406 118 427 146 C 447 174 463 207 473 245 C 483 283 488 324 488 370 C 488 466 466 540 423 592 C 379 644 319 670 243 670 L 149 670 L 149 59 Z" unicode="D" />
<glyph horiz-adv-x="448" d="M 419 0 L 80 0 L 80 730 L 402 730 L 402 668 L 148 668 L 148 394 L 393 394 L 393 333 L 148 333 L 148 62 L 419 62 L 419 0 Z" unicode="E" />
<glyph horiz-adv-x="402" d="M 380 668 L 150 668 L 150 398 L 368 398 L 368 337 L 150 337 L 150 0 L 80 0 L 80 730 L 380 730 L 380 668 Z" unicode="F" />
<glyph horiz-adv-x="618" d="M 332 352 L 575 352 L 575 129 C 552 86 519 52 477 28 C 435 3 385 -9 327 -9 C 287 -9 250 0 216 17 C 181 35 151 60 126 92 C 100 124 80 164 65 210 C 50 256 43 308 43 365 C 43 421 50 473 64 519 C 78 565 98 605 124 637 C 149 669 179 694 214 712 C 249 729 287 738 329 738 C 387 738 433 726 467 703 C 501 679 528 652 547 621 L 493 583 C 477 608 456 630 430 648 C 404 666 370 675 328 675 C 297 675 268 668 242 654 C 216 640 193 621 174 595 C 154 569 139 536 129 497 C 118 458 113 413 113 363 C 113 314 118 270 130 231 C 141 192 156 159 176 133 C 195 106 218 85 244 71 C 270 57 299 50 330 50 C 371 50 407 58 439 75 C 471 91 495 115 512 147 L 512 292 L 332 292 L 332 352 Z" unicode="G" />
<glyph horiz-adv-x="611" d="M 531 0 L 461 0 L 461 330 L 150 330 L 150 0 L 80 0 L 80 730 L 150 730 L 150 392 L 461 392 L 461 730 L 531 730 L 531 0 Z" unicode="H" />
<glyph horiz-adv-x="238" d="M 155 0 L 84 0 L 84 730 L 155 730 L 155 0 Z" unicode="I" />
<glyph horiz-adv-x="322" d="M 251 730 L 251 185 C 251 158 247 133 239 109 C 231 85 220 65 206 47 C 192 29 174 16 153 6 C 131 -4 107 -9 80 -9 C 67 -9 53 -8 39 -6 C 25 -4 13 -1 5 3 L 15 64 C 20 61 28 59 39 57 C 49 55 60 54 71 54 C 106 54 133 67 153 94 C 172 120 182 152 182 190 L 182 730 L 251 730 Z" unicode="J" />
<glyph horiz-adv-x="537" d="M 537 0 L 456 0 L 219 351 L 150 265 L 150 0 L 80 0 L 80 730 L 150 730 L 150 351 L 431 730 L 508 730 L 265 404 L 537 0 Z" unicode="K" />
<glyph horiz-adv-x="404" d="M 397 0 L 80 0 L 80 730 L 150 730 L 150 62 L 397 62 L 397 0 Z" unicode="L" />
<glyph horiz-adv-x="727" d="M 647 0 L 581 0 L 581 585 L 381 184 L 349 184 L 146 584 L 146 0 L 80 0 L 80 730 L 138 730 L 366 282 L 591 730 L 647 730 L 647 0 Z" unicode="M" />
<glyph horiz-adv-x="620" d="M 541 0 L 490 0 L 146 580 L 146 0 L 80 0 L 80 730 L 131 730 L 476 149 L 476 730 L 541 730 L 541 0 Z" unicode="N" />
<glyph horiz-adv-x="664" d="M 334 -9 C 290 -9 251 0 215 17 C 179 34 148 59 123 91 C 97 123 78 163 64 211 C 50 258 43 311 43 371 C 43 427 50 477 64 523 C 78 569 97 607 123 639 C 148 671 178 695 213 713 C 248 730 287 739 329 739 C 418 739 489 705 542 639 C 594 572 621 481 621 366 C 621 308 613 256 599 210 C 584 164 564 124 538 92 C 512 60 482 35 447 17 C 412 0 374 -9 334 -9 Z M 334 51 C 365 51 394 58 420 72 C 446 86 469 106 489 133 C 508 159 523 193 534 233 C 544 273 550 319 550 371 C 550 467 529 542 488 597 C 446 651 393 679 329 679 C 264 679 212 652 173 598 C 134 544 115 467 115 365 C 115 313 120 268 132 229 C 143 189 158 156 178 130 C 197 104 220 84 247 71 C 274 57 303 51 334 51 Z" unicode="O" />
<glyph horiz-adv-x="481" d="M 80 0 L 80 730 L 262 730 C 289 730 315 725 339 716 C 363 707 383 694 401 677 C 419 660 433 639 443 614 C 453 588 459 559 459 527 C 459 461 440 409 404 370 C 367 331 321 312 266 312 L 150 312 L 150 0 L 80 0 Z M 150 371 L 248 371 C 292 371 326 384 351 412 C 376 439 389 478 389 528 C 389 575 374 611 346 635 C 317 659 283 671 245 671 L 150 671 L 150 371 Z" unicode="P" />
<glyph horiz-adv-x="661" d="M 571 -95 L 571 -158 C 525 -152 482 -135 442 -106 C 402 -77 371 -44 349 -7 C 346 -7 343 -7 341 -7 C 339 -7 336 -7 334 -7 C 290 -7 251 1 215 18 C 179 35 149 60 123 92 C 97 124 78 164 64 211 C 50 258 43 311 43 371 C 43 427 50 477 64 523 C 78 568 98 607 123 639 C 148 671 178 695 214 713 C 249 730 287 739 329 739 C 417 739 488 705 541 639 C 594 573 621 482 621 366 C 621 272 601 194 563 131 C 525 67 476 26 416 6 C 434 -20 458 -43 487 -62 C 516 -80 544 -91 571 -95 Z M 334 49 C 365 49 394 56 420 70 C 446 84 469 105 489 132 C 508 159 523 193 534 233 C 544 273 550 318 550 370 C 550 420 544 464 533 503 C 521 541 506 574 486 600 C 466 626 443 645 416 659 C 389 673 360 680 329 680 C 264 680 212 653 173 600 C 133 546 114 468 114 366 C 114 314 119 269 131 229 C 142 189 157 156 177 130 C 197 103 220 83 247 69 C 274 55 303 49 334 49 Z" unicode="Q" />
<glyph horiz-adv-x="498" d="M 80 0 L 80 730 L 237 730 C 291 730 336 713 372 680 C 408 647 426 599 426 536 C 426 478 411 431 383 397 C 354 363 320 343 282 339 L 278 337 L 480 0 L 404 0 L 213 322 L 146 322 L 146 0 L 80 0 Z M 146 381 L 228 381 C 266 381 297 394 321 420 C 345 445 358 481 358 528 C 358 574 345 609 321 634 C 296 658 265 671 227 671 L 146 671 L 146 381 Z" unicode="R" />
<glyph horiz-adv-x="443" d="M 225 -9 C 183 -9 146 -1 113 13 C 80 27 52 50 29 80 L 71 128 C 89 100 111 80 139 67 C 167 54 194 48 222 48 C 254 48 283 59 307 82 C 331 104 343 134 343 172 C 343 208 333 239 315 265 C 296 290 261 317 210 346 C 154 376 113 407 87 438 C 60 469 47 512 47 567 C 47 619 63 660 97 692 C 131 723 172 739 222 739 C 261 739 294 732 322 719 C 349 705 372 689 390 671 L 351 622 C 335 638 316 651 294 662 C 272 672 248 678 223 678 C 192 678 166 667 145 647 C 123 627 113 599 113 565 C 113 529 123 500 142 478 C 161 456 198 430 252 401 C 311 368 352 334 375 300 C 397 266 409 225 409 177 C 409 147 404 121 394 98 C 384 75 370 56 353 40 C 336 24 316 11 294 3 C 272 -4 249 -9 225 -9 Z" unicode="S" />
<glyph horiz-adv-x="419" d="M 410 668 L 243 668 L 243 0 L 173 0 L 173 668 L 8 668 L 8 730 L 410 730 L 410 668 Z" unicode="T" />
<glyph horiz-adv-x="604" d="M 530 730 L 530 230 C 530 189 523 153 511 123 C 499 93 482 68 462 49 C 441 29 416 15 388 5 C 360 -4 330 -9 299 -9 C 269 -9 240 -4 213 4 C 185 13 161 27 141 47 C 121 66 105 91 93 121 C 81 151 75 188 75 230 L 75 730 L 144 730 L 144 229 C 144 169 159 124 189 96 C 219 67 257 53 301 53 C 344 53 381 66 412 94 C 443 121 459 166 459 229 L 459 730 L 530 730 Z" unicode="U" />
<glyph horiz-adv-x="520" d="M 516 730 L 281 -5 L 232 -5 L 4 730 L 74 730 L 259 122 L 448 730 L 516 730 Z" unicode="V" />
<glyph horiz-adv-x="758" d="M 741 730 L 567 -5 L 521 -5 L 376 597 L 228 -5 L 182 -5 L 10 730 L 78 730 L 212 134 L 354 730 L 403 730 L 544 134 L 679 730 L 741 730 Z" unicode="W" />
<glyph horiz-adv-x="484" d="M 400 0 L 241 313 L 80 0 L 11 0 L 206 380 L 28 730 L 101 730 L 243 451 L 386 730 L 455 730 L 277 384 L 472 0 L 400 0 Z" unicode="X" />
<glyph horiz-adv-x="513" d="M 511 730 L 289 310 L 289 0 L 219 0 L 219 311 L 2 730 L 80 730 L 258 380 L 441 730 L 511 730 Z" unicode="Y" />
<glyph horiz-adv-x="470" d="M 439 730 L 439 696 L 105 61 L 451 61 L 451 0 L 17 0 L 17 32 L 350 668 L 51 668 L 51 730 L 439 730 Z" unicode="Z" />
<glyph horiz-adv-x="236" d="M 205 -179 L 61 -179 L 61 730 L 205 730 L 205 676 L 123 676 L 123 -124 L 205 -124 L 205 -179 Z" unicode="[" />
<glyph horiz-adv-x="299" d="M 7 730 L 65 730 L 293 0 L 233 0 L 7 730 Z" unicode="\" />
<glyph horiz-adv-x="233" d="M 176 -179 L 33 -179 L 33 -125 L 114 -125 L 114 676 L 33 676 L 33 730 L 176 730 L 176 -179 Z" unicode="]" />
<glyph horiz-adv-x="455" d="M 412 369 L 354 369 L 225 663 L 101 369 L 45 369 L 197 730 L 254 730 L 412 369 Z" unicode="^" />
<glyph horiz-adv-x="451" d="M 451 -149 L 0 -149 L 0 -94 L 451 -94 L 451 -149 Z" unicode="_" />
<glyph horiz-adv-x="500" d="M 327 543 L 263 543 L 163 712 L 237 712 L 327 543 Z" unicode="`" />
<glyph horiz-adv-x="414" d="M 360 0 L 302 0 L 302 60 C 288 41 269 25 246 13 C 223 0 195 -6 163 -6 C 123 -6 91 6 65 31 C 39 56 27 92 27 139 C 27 191 43 229 77 254 C 110 279 151 293 200 296 L 298 304 L 298 339 C 298 372 289 397 272 413 C 254 429 230 437 199 437 C 172 437 149 432 129 423 C 109 414 94 404 82 394 L 60 441 C 75 455 95 467 121 477 C 146 487 176 492 212 492 C 255 492 290 480 318 456 C 346 432 360 396 360 348 L 360 0 Z M 300 104 L 300 256 L 208 250 C 175 247 147 237 124 220 C 101 202 90 176 90 140 C 90 108 99 84 118 68 C 137 52 159 45 185 45 C 211 45 234 51 254 63 C 274 75 289 88 300 104 Z" unicode="a" />
<glyph horiz-adv-x="459" d="M 260 -5 C 223 -5 192 4 168 24 C 144 44 127 68 118 97 L 118 0 L 58 0 L 58 778 L 120 778 L 120 371 C 128 401 144 429 168 453 C 192 477 224 489 264 489 C 314 489 355 466 385 422 C 415 378 430 321 430 252 C 430 172 413 110 381 64 C 349 18 308 -5 260 -5 Z M 240 46 C 276 46 306 63 329 99 C 351 134 363 183 363 245 C 363 303 352 349 331 383 C 309 417 279 434 240 434 C 207 434 178 418 154 386 C 130 354 118 303 118 232 C 118 196 121 167 128 143 C 135 119 144 99 156 85 C 167 71 180 61 195 55 C 209 49 224 46 240 46 Z" unicode="b" />
<glyph horiz-adv-x="397" d="M 340 123 L 383 89 C 377 78 369 67 360 56 C 351 44 340 34 328 25 C 316 15 301 8 285 2 C 268 -4 248 -7 226 -7 C 195 -7 167 0 143 11 C 118 23 97 40 80 62 C 63 84 50 110 41 140 C 32 170 28 204 28 240 C 28 273 32 305 41 335 C 50 365 63 392 81 415 C 98 437 119 455 144 469 C 168 482 196 489 227 489 C 269 489 303 478 329 457 C 355 436 373 414 384 391 L 336 357 C 326 376 312 393 295 409 C 278 425 255 433 226 433 C 206 433 187 428 171 418 C 155 408 141 395 130 378 C 118 360 110 340 104 317 C 98 293 95 268 95 242 C 95 182 107 134 132 100 C 156 65 189 48 231 48 C 263 48 287 56 303 74 C 319 91 331 107 340 123 Z" unicode="c" />
<glyph horiz-adv-x="469" d="M 206 -6 C 179 -6 155 0 133 12 C 111 24 92 41 77 63 C 61 85 49 110 41 140 C 33 170 29 202 29 237 C 29 312 46 373 80 419 C 114 465 156 489 208 489 C 244 489 275 477 300 454 C 324 430 341 403 349 372 L 349 778 L 411 778 L 411 0 L 352 0 L 352 110 C 348 96 343 83 335 69 C 327 55 318 42 306 31 C 294 20 279 11 263 4 C 246 -2 227 -6 206 -6 Z M 224 46 C 260 46 291 63 315 99 C 339 135 351 184 351 246 C 351 308 338 355 312 387 C 286 418 256 434 222 434 C 184 434 153 416 130 382 C 107 348 96 301 96 241 C 96 183 107 136 130 100 C 152 64 184 46 224 46 Z" unicode="d" />
<glyph horiz-adv-x="433" d="M 226 -7 C 168 -7 120 15 84 59 C 47 103 29 164 29 240 C 29 276 33 310 43 341 C 53 371 66 397 83 419 C 100 441 120 458 144 470 C 167 482 192 489 220 489 C 278 489 323 465 357 419 C 391 373 408 309 408 227 L 92 227 C 92 171 105 127 130 95 C 155 63 188 47 230 47 C 264 47 291 54 311 68 C 330 82 346 97 359 114 L 394 78 C 378 57 358 38 332 20 C 306 2 271 -7 226 -7 Z M 93 273 L 345 273 C 344 321 332 360 310 391 C 288 421 258 437 222 437 C 184 437 153 421 131 391 C 108 360 95 321 93 273 Z" unicode="e" />
<glyph horiz-adv-x="241" d="M 232 426 L 149 426 L 149 0 L 85 0 L 85 426 L 18 426 L 18 482 L 85 482 L 85 656 C 85 696 96 727 119 749 C 142 770 167 781 194 781 C 204 781 215 779 227 777 C 238 774 247 771 254 767 L 239 713 C 236 714 231 716 224 718 C 217 720 210 721 203 721 C 188 721 175 714 164 702 C 153 689 148 670 148 645 L 148 482 L 232 482 L 232 426 Z" unicode="f" />
<glyph horiz-adv-x="466" d="M 208 0 C 154 0 110 22 78 67 C 45 111 29 170 29 242 C 29 317 46 377 80 422 C 114 466 156 489 207 489 C 243 489 273 477 299 455 C 324 432 341 406 350 377 L 350 482 L 409 482 L 409 21 C 409 -16 403 -48 392 -76 C 380 -104 365 -127 347 -145 C 329 -163 308 -176 284 -185 C 260 -193 235 -198 210 -198 C 175 -198 147 -194 127 -188 C 106 -182 90 -175 80 -169 L 102 -119 C 112 -124 126 -129 142 -135 C 158 -140 180 -143 206 -143 C 244 -143 278 -129 306 -101 C 334 -73 348 -33 348 20 L 348 119 C 340 89 323 61 299 37 C 275 12 244 0 208 0 Z M 224 51 C 258 51 287 67 312 100 C 337 133 350 182 350 248 C 350 310 336 356 310 388 C 283 419 253 435 221 435 C 184 435 154 417 131 383 C 107 349 96 302 96 243 C 96 185 107 138 129 103 C 151 68 182 51 224 51 Z" unicode="g" />
<glyph horiz-adv-x="449" d="M 393 0 L 329 0 L 329 340 C 329 372 320 395 302 411 C 284 427 262 435 234 435 C 205 435 179 426 156 408 C 133 390 122 359 122 316 L 122 0 L 58 0 L 58 778 L 119 778 L 119 399 C 125 425 140 446 164 464 C 187 481 217 490 255 490 C 295 490 328 479 354 458 C 380 436 393 403 393 357 L 393 0 Z" unicode="h" />
<glyph horiz-adv-x="187" d="M 59 589 L 59 661 L 128 661 L 128 589 L 59 589 Z M 61 0 L 61 482 L 126 482 L 126 0 L 61 0 Z" unicode="i" />
<glyph horiz-adv-x="192" d="M 135 589 L 67 589 L 67 661 L 135 661 L 135 589 Z M 133 482 L 133 -79 C 133 -111 123 -137 105 -156 C 87 -175 64 -185 38 -185 C 26 -185 14 -183 3 -180 C -7 -176 -15 -173 -20 -171 L -5 -123 C -1 -124 2 -125 8 -127 C 13 -128 19 -129 26 -129 C 37 -129 47 -124 56 -114 C 64 -104 69 -91 69 -74 L 69 482 L 133 482 Z" unicode="j" />
<glyph horiz-adv-x="402" d="M 411 1 L 340 0 L 198 229 L 122 130 L 122 0 L 58 0 L 58 778 L 120 778 L 120 205 L 318 482 L 386 482 L 240 278 L 411 1 Z" unicode="k" />
<glyph horiz-adv-x="182" d="M 123 788 L 123 0 L 59 0 L 59 788 L 123 788 Z" unicode="l" />
<glyph horiz-adv-x="714" d="M 58 0 L 58 482 L 116 482 L 116 396 C 123 425 139 448 165 465 C 191 481 221 490 256 490 C 291 490 320 481 342 464 C 364 447 378 424 382 394 L 385 394 C 391 422 407 445 432 463 C 456 481 487 490 523 490 C 562 490 594 479 620 457 C 645 435 658 403 658 359 L 658 0 L 594 0 L 594 335 C 594 369 585 394 567 410 C 549 426 525 435 497 435 C 470 435 445 425 423 407 C 401 389 390 358 390 314 L 390 0 L 326 0 L 326 337 C 326 372 316 397 298 412 C 280 427 257 435 231 435 C 204 435 179 425 156 407 C 133 389 122 357 122 313 L 122 0 L 58 0 Z" unicode="m" />
<glyph horiz-adv-x="449" d="M 393 0 L 329 0 L 329 345 C 329 373 320 395 303 411 C 285 427 263 435 235 435 C 206 435 180 426 157 408 C 133 390 122 359 122 315 L 122 0 L 58 0 L 58 482 L 116 482 L 116 397 C 124 424 141 446 165 464 C 189 481 220 490 258 490 C 297 490 329 479 355 458 C 380 436 393 405 393 365 L 393 0 Z" unicode="n" />
<glyph horiz-adv-x="448" d="M 224 -7 C 196 -7 171 -1 147 9 C 123 20 103 36 85 57 C 67 78 53 104 43 135 C 33 165 28 200 28 239 C 28 275 32 309 42 340 C 52 371 65 398 82 420 C 99 442 119 459 143 471 C 167 483 192 490 220 490 C 278 490 325 468 363 425 C 401 381 420 324 420 252 C 420 214 415 179 406 147 C 396 115 383 88 366 65 C 348 42 328 24 304 12 C 280 0 253 -7 224 -7 Z M 225 48 C 264 48 295 65 318 101 C 341 136 353 184 353 244 C 353 304 341 350 317 384 C 293 417 261 434 220 434 C 183 434 153 417 130 383 C 107 349 96 302 96 243 C 96 178 108 129 132 97 C 156 64 187 48 225 48 Z" unicode="o" />
<glyph horiz-adv-x="459" d="M 58 -199 L 58 482 L 116 482 L 116 366 C 123 398 139 427 165 452 C 191 476 223 489 263 489 C 289 489 313 483 334 471 C 355 459 373 443 387 423 C 401 402 411 377 419 348 C 426 318 430 287 430 253 C 430 173 413 110 381 64 C 349 18 308 -5 258 -5 C 222 -5 192 4 168 23 C 144 42 128 65 120 91 L 120 -199 L 58 -199 Z M 240 46 C 276 46 306 63 329 97 C 351 131 363 179 363 241 C 363 297 353 344 333 380 C 313 416 282 434 241 434 C 208 434 179 418 154 388 C 129 358 117 306 117 233 C 117 163 129 115 153 87 C 177 59 206 46 240 46 Z" unicode="p" />
<glyph horiz-adv-x="469" d="M 349 -199 L 349 113 C 345 98 338 84 330 70 C 322 56 312 43 300 32 C 288 20 273 11 257 4 C 241 -2 223 -6 204 -6 C 177 -6 153 0 131 12 C 109 24 91 41 76 63 C 61 85 49 110 41 140 C 33 170 29 202 29 237 C 29 314 46 375 80 421 C 114 467 157 490 207 490 C 246 490 278 477 303 453 C 327 429 344 401 353 370 L 353 482 L 411 482 L 411 -199 L 349 -199 Z M 222 46 C 258 46 288 63 313 97 C 338 131 351 181 351 245 C 351 307 338 354 313 386 C 287 418 257 434 222 434 C 184 434 153 417 130 383 C 107 349 96 301 96 241 C 96 185 107 138 129 101 C 151 64 182 46 222 46 Z" unicode="q" />
<glyph horiz-adv-x="323" d="M 325 460 L 300 406 C 290 415 279 422 268 426 C 256 430 243 432 229 432 C 217 432 204 429 192 425 C 179 420 167 412 157 402 C 147 392 138 378 132 361 C 125 344 122 324 122 301 L 122 0 L 58 0 L 58 482 L 120 482 L 120 391 C 126 417 141 439 163 459 C 185 479 211 489 242 489 C 260 489 276 486 290 481 C 304 475 316 468 325 460 Z" unicode="r" />
<glyph horiz-adv-x="340" d="M 179 -7 C 145 -7 115 -1 89 11 C 63 23 42 39 26 59 L 59 102 C 72 85 89 72 109 62 C 129 52 151 47 174 47 C 194 47 213 53 230 67 C 246 80 255 99 255 125 C 255 146 247 164 231 180 C 215 195 188 211 152 229 C 112 247 83 267 65 288 C 47 309 39 337 39 371 C 39 405 51 433 77 455 C 103 477 134 489 170 489 C 200 489 227 484 249 474 C 271 464 288 454 301 443 L 272 396 C 261 404 247 413 230 422 C 213 430 194 435 174 435 C 153 435 135 429 119 418 C 103 407 96 391 96 371 C 96 352 102 336 115 324 C 127 312 153 296 191 278 C 234 256 265 234 284 212 C 302 190 312 161 312 125 C 312 103 308 84 300 68 C 292 52 282 38 270 27 C 258 15 244 7 228 1 C 212 -4 195 -7 179 -7 Z" unicode="s" />
<glyph horiz-adv-x="231" d="M 213 62 L 223 11 C 218 7 210 3 200 0 C 190 -2 178 -4 164 -4 C 141 -4 119 4 99 20 C 78 36 68 63 68 101 L 68 427 L 13 427 L 13 482 L 69 482 L 69 598 L 132 606 L 132 482 L 213 482 L 213 427 L 133 427 L 133 103 C 133 87 137 74 145 66 C 153 58 164 54 178 54 C 184 54 191 55 198 57 C 205 59 210 60 213 62 Z" unicode="t" />
<glyph horiz-adv-x="449" d="M 56 482 L 120 482 L 120 149 C 120 113 129 86 147 70 C 165 53 189 45 219 45 C 247 45 272 54 294 73 C 316 92 327 124 327 168 L 327 482 L 391 482 L 391 0 L 331 0 L 331 83 C 323 57 307 36 283 19 C 259 1 230 -7 194 -7 C 156 -7 123 4 96 27 C 69 49 56 84 56 132 L 56 482 Z" unicode="u" />
<glyph horiz-adv-x="371" d="M 373 482 L 209 -2 L 160 -2 L -1 482 L 67 482 L 188 104 L 309 482 L 373 482 Z" unicode="v" />
<glyph horiz-adv-x="584" d="M 394 -2 L 294 327 L 189 -2 L 141 -2 L 5 482 L 67 482 L 172 97 L 273 422 L 319 422 L 415 98 L 522 482 L 580 482 L 441 -2 L 394 -2 Z" unicode="w" />
<glyph horiz-adv-x="360" d="M 287 0 L 178 194 L 68 0 L 6 0 L 147 249 L 17 482 L 85 482 L 181 310 L 279 482 L 342 482 L 213 254 L 355 0 L 287 0 Z" unicode="x" />
<glyph horiz-adv-x="374" d="M 374 482 L 175 -102 C 161 -137 144 -162 122 -177 C 100 -192 77 -200 55 -200 C 39 -200 26 -198 16 -195 C 5 -192 -2 -189 -7 -187 L 15 -133 C 17 -135 22 -137 30 -139 C 38 -141 46 -143 55 -143 C 67 -143 79 -137 92 -127 C 104 -116 115 -99 124 -76 L 159 33 L -1 482 L 67 482 L 191 116 L 311 482 L 374 482 Z" unicode="y" />
<glyph horiz-adv-x="344" d="M 322 482 L 322 452 L 98 56 L 332 56 L 332 0 L 14 0 L 14 26 L 241 426 L 27 426 L 27 482 L 322 482 Z" unicode="z" />
<glyph horiz-adv-x="265" d="M 244 -179 C 218 -177 194 -172 171 -164 C 148 -156 128 -145 112 -132 C 95 -118 82 -103 72 -85 C 62 -67 57 -47 57 -27 C 56 -3 59 17 65 37 C 71 56 77 73 84 89 C 90 104 97 119 103 134 C 109 148 111 163 111 178 C 111 198 102 217 85 234 C 68 251 46 260 19 261 L 19 310 C 46 310 68 319 86 337 C 104 354 113 374 113 398 C 113 406 110 418 104 434 C 98 449 91 465 84 482 C 76 500 69 517 64 535 C 59 552 57 570 57 588 C 57 608 62 628 72 647 C 82 665 95 682 112 697 C 128 711 148 723 171 733 C 193 742 218 747 244 749 L 244 701 C 212 698 185 685 161 663 C 137 641 124 614 124 583 C 124 571 125 558 129 544 C 132 530 137 516 144 502 C 152 483 160 465 167 449 C 174 433 178 417 178 403 C 177 373 168 348 152 326 C 135 304 110 291 78 285 C 110 279 135 265 152 243 C 168 221 177 197 177 171 C 177 152 174 135 168 120 C 161 105 154 90 148 76 C 140 61 134 46 130 31 C 125 16 123 1 123 -13 C 123 -41 135 -67 159 -91 C 183 -115 211 -128 244 -130 L 244 -179 Z" unicode="{" />
<glyph horiz-adv-x="232" d="M 147 -179 L 85 -179 L 85 730 L 147 730 L 147 -179 Z" unicode="|" />
<glyph horiz-adv-x="265" d="M 21 -179 L 21 -130 C 53 -128 81 -115 105 -91 C 128 -67 140 -41 141 -13 C 141 1 139 16 134 31 C 129 46 123 61 117 76 C 110 90 103 105 97 120 C 90 135 87 152 87 171 C 87 197 96 221 112 243 C 128 265 152 279 185 285 C 153 291 128 304 112 326 C 96 348 87 373 87 403 C 87 417 90 433 97 449 C 103 465 111 483 120 502 C 126 516 131 530 135 544 C 139 558 141 571 141 583 C 140 614 128 641 104 663 C 80 685 52 698 21 701 L 21 749 C 47 747 71 742 94 733 C 116 723 136 711 153 697 C 169 682 182 665 192 647 C 202 628 207 608 207 588 C 207 570 205 552 200 535 C 195 517 189 500 181 482 C 173 465 166 449 160 434 C 154 418 151 406 151 398 C 151 374 160 354 178 337 C 196 319 218 310 246 310 L 246 261 C 218 260 196 251 179 234 C 162 217 153 198 153 178 C 153 163 156 148 162 134 C 168 119 174 104 181 89 C 187 73 193 56 199 37 C 205 17 208 -3 208 -27 C 208 -47 203 -67 193 -85 C 183 -103 169 -118 152 -132 C 135 -145 115 -156 93 -164 C 70 -172 46 -177 21 -179 Z" unicode="}" />
<glyph horiz-adv-x="462" d="M 375 433 L 428 433 C 427 383 419 344 405 318 C 390 291 366 278 334 278 C 311 278 291 283 275 294 C 259 305 244 317 232 331 C 217 344 203 356 191 366 C 178 376 164 382 149 382 C 133 382 119 373 106 356 C 92 338 86 313 86 281 L 35 281 C 35 331 44 369 63 396 C 81 423 106 437 136 437 C 160 437 180 431 197 419 C 214 407 230 395 245 381 C 257 369 270 357 282 347 C 294 337 308 332 325 332 C 344 332 357 340 364 356 C 371 372 375 397 375 433 Z" unicode="~" />
<glyph horiz-adv-x="266" d="M 99 610 L 167 610 L 167 527 L 99 527 L 99 610 Z M 97 182 L 119 425 L 149 425 L 170 182 L 170 -111 L 97 -111 L 97 182 Z" unicode="¡" />
<glyph horiz-adv-x="415" d="M 398 188 C 385 170 368 151 347 132 C 325 113 294 102 252 100 L 252 -7 L 209 -7 L 209 100 C 153 106 110 131 79 174 C 47 217 32 271 32 335 C 32 365 36 393 44 421 C 52 448 63 472 79 494 C 94 515 113 533 135 547 C 157 561 181 570 209 574 L 209 680 L 252 680 L 252 575 C 290 572 321 561 345 543 C 369 524 388 504 400 484 L 362 446 C 351 463 337 479 320 494 C 303 508 280 517 252 520 L 252 153 C 284 154 309 163 326 179 C 343 195 356 210 365 225 L 398 188 Z M 98 338 C 98 290 108 250 128 218 C 148 186 175 165 209 157 L 209 517 C 173 508 146 487 127 454 C 107 421 98 382 98 338 Z" unicode="¢" />
<glyph horiz-adv-x="498" d="M 486 56 L 486 0 L 21 0 L 21 46 C 25 48 33 50 43 52 C 53 54 67 56 85 60 C 96 62 108 66 120 72 C 132 77 143 84 153 94 C 163 103 171 114 178 128 C 184 142 188 158 188 176 C 188 183 187 191 185 199 C 183 207 180 215 178 223 L 30 223 L 30 273 L 156 273 C 149 285 142 298 135 312 C 127 326 120 340 114 355 L 30 355 L 30 405 L 92 405 C 84 425 77 447 72 470 C 67 493 65 517 65 542 C 65 580 71 612 83 638 C 95 664 111 684 131 700 C 151 715 174 726 200 732 C 226 738 252 742 280 742 C 324 742 364 733 402 715 C 439 697 466 679 483 663 L 450 612 C 435 625 413 640 383 657 C 353 674 320 683 284 683 C 265 683 247 680 229 676 C 211 671 195 663 181 651 C 167 639 155 624 147 604 C 138 584 134 559 134 530 C 134 508 136 486 142 466 C 147 445 154 425 163 405 L 420 405 L 420 355 L 186 355 C 192 340 199 326 207 312 C 214 298 220 285 226 273 L 420 273 L 420 223 L 243 223 C 244 217 245 212 246 207 C 246 201 247 196 247 192 C 247 169 243 150 236 134 C 228 118 219 104 209 94 C 199 83 188 75 177 69 C 165 63 156 58 148 56 L 486 56 Z" unicode="£" />
<glyph horiz-adv-x="502" d="M 440 181 L 409 150 L 345 216 C 331 207 316 200 300 196 C 284 191 267 189 250 189 C 232 189 214 191 198 196 C 182 201 167 208 154 217 L 89 150 L 57 182 L 119 246 C 105 260 95 277 87 295 C 79 313 76 333 76 354 C 76 374 79 394 87 413 C 95 431 105 448 119 463 L 57 527 L 88 557 L 153 491 C 166 499 181 506 198 511 C 214 516 232 519 250 519 C 268 519 285 516 302 511 C 318 505 334 498 348 490 L 415 558 L 446 526 L 383 461 C 395 446 405 430 413 412 C 420 394 424 374 424 354 C 424 333 420 313 412 294 C 404 274 393 257 379 243 L 440 181 Z M 250 237 C 284 237 313 248 338 272 C 362 295 375 322 375 354 C 375 385 362 412 338 436 C 313 459 284 471 250 471 C 215 471 185 459 161 436 C 137 412 125 385 125 354 C 125 322 137 295 161 272 C 185 248 215 237 250 237 Z" unicode="¤" />
<glyph horiz-adv-x="511" d="M 458 165 L 289 165 L 289 0 L 219 0 L 219 165 L 52 165 L 52 215 L 219 215 L 219 279 L 52 279 L 52 329 L 219 329 L 219 340 L 21 730 L 94 730 L 256 404 L 420 730 L 490 730 L 289 338 L 289 329 L 458 329 L 458 279 L 289 279 L 289 215 L 458 215 L 458 165 Z" unicode="¥" />
<glyph horiz-adv-x="250" d="M 97 351 L 97 730 L 153 730 L 153 351 L 97 351 Z M 153 200 L 153 -179 L 97 -179 L 97 200 L 153 200 Z" unicode="¦" />
<glyph horiz-adv-x="567" d="M 300 -180 C 250 -180 204 -173 160 -159 C 116 -145 80 -127 50 -105 L 76 -50 C 103 -71 136 -89 176 -104 C 216 -118 255 -126 293 -126 C 329 -126 359 -116 383 -96 C 407 -76 420 -49 420 -15 C 420 17 411 41 393 57 C 375 73 352 88 324 102 L 197 164 C 171 176 148 187 128 198 C 108 208 92 220 80 232 C 67 244 57 259 51 275 C 44 291 41 311 41 334 C 41 365 48 390 63 410 C 77 429 94 445 114 458 C 96 468 83 483 74 503 C 65 523 61 548 61 578 C 61 604 66 627 77 648 C 88 668 103 685 122 699 C 140 713 162 723 188 731 C 214 738 241 742 271 742 C 325 742 369 733 403 717 C 437 700 467 681 491 661 L 460 610 C 433 631 405 650 376 666 C 347 682 312 690 270 690 C 231 690 198 679 170 659 C 142 639 129 612 129 578 C 129 554 135 535 147 519 C 159 503 178 489 204 479 L 371 400 C 419 379 455 357 481 333 C 506 309 519 278 519 238 C 519 203 507 176 485 156 C 463 136 439 125 415 122 C 421 118 429 112 438 104 C 446 96 455 87 463 76 C 471 65 477 52 483 37 C 488 21 491 4 491 -14 C 491 -40 486 -63 476 -84 C 466 -104 452 -122 435 -136 C 418 -150 398 -160 375 -168 C 351 -176 326 -180 300 -180 Z M 365 152 C 385 154 405 161 423 174 C 441 186 450 206 450 234 C 450 258 440 280 421 298 C 401 316 372 334 332 352 L 167 430 C 150 419 136 407 124 394 C 112 381 106 363 106 339 C 106 310 116 287 136 270 C 156 253 187 236 227 218 L 365 152 Z" unicode="§" />
<glyph horiz-adv-x="500" d="M 353 545 L 300 545 L 300 700 L 353 700 L 353 545 Z M 200 545 L 147 545 L 147 700 L 200 700 L 200 545 Z" unicode="¨" />
<glyph horiz-adv-x="815" d="M 408 20 C 358 20 311 29 267 48 C 223 67 184 93 152 126 C 119 158 93 197 74 241 C 55 285 46 331 46 381 C 46 430 55 477 74 521 C 93 565 119 603 152 636 C 184 668 223 694 267 713 C 311 732 358 742 408 742 C 457 742 504 732 548 713 C 592 694 630 668 663 636 C 695 603 721 565 740 521 C 759 477 769 430 769 381 C 769 331 759 285 740 241 C 721 197 695 158 663 126 C 630 93 592 67 548 48 C 504 29 457 20 408 20 Z M 408 63 C 451 63 492 71 530 88 C 568 104 602 127 630 156 C 658 184 681 218 698 257 C 714 295 723 336 723 380 C 723 423 714 464 698 503 C 681 541 658 575 630 604 C 602 632 568 655 530 672 C 492 689 451 698 408 698 C 364 698 323 689 285 672 C 246 655 212 632 184 604 C 156 575 133 541 117 503 C 100 464 92 423 92 380 C 92 336 100 295 117 257 C 133 218 156 184 184 156 C 212 127 246 104 285 88 C 323 71 364 63 408 63 Z M 571 247 C 555 223 534 202 506 186 C 478 169 446 161 408 161 C 383 161 359 165 336 175 C 312 185 292 199 274 218 C 256 236 241 259 230 287 C 219 314 214 345 214 380 C 214 446 232 501 268 543 C 304 585 349 606 403 606 C 444 606 478 599 504 585 C 530 571 550 552 565 530 L 521 496 C 509 512 493 525 475 536 C 457 546 433 552 404 552 C 366 552 334 535 309 502 C 283 469 271 428 271 379 C 271 352 275 328 283 308 C 291 287 301 269 314 255 C 326 241 341 230 358 223 C 374 215 391 212 409 212 C 434 212 457 218 477 230 C 497 242 514 257 527 276 L 571 247 Z" unicode="©" />
<glyph horiz-adv-x="427" d="M 378 314 L 324 314 L 324 377 C 309 355 288 337 262 325 C 235 313 206 307 176 307 C 134 307 100 318 75 341 C 50 364 38 396 38 436 C 38 480 54 514 86 537 C 118 560 161 573 213 576 L 322 584 L 322 594 C 322 626 312 650 294 666 C 275 681 250 689 219 689 C 193 689 170 684 148 676 C 126 667 107 657 91 645 L 67 688 C 85 702 108 715 136 725 C 163 735 194 741 228 741 C 272 741 308 729 336 706 C 364 683 378 646 378 595 L 378 314 Z M 323 417 L 323 538 L 210 530 C 176 528 149 520 127 506 C 105 492 95 469 95 438 C 95 412 104 392 122 378 C 140 363 164 356 194 356 C 218 356 243 361 267 372 C 291 383 309 398 323 417 Z M 384 208 L 44 208 L 44 261 L 384 261 L 384 208 Z" unicode="ª" />
<glyph horiz-adv-x="410" d="M 197 106 L 29 273 L 29 312 L 197 477 L 197 411 L 86 291 L 197 175 L 197 106 Z M 379 106 L 211 273 L 211 312 L 379 477 L 379 411 L 268 291 L 379 176 L 379 106 Z" unicode="«" />
<glyph horiz-adv-x="494" d="M 446 370 L 446 137 L 391 137 L 391 314 L 32 314 L 32 370 L 446 370 Z" unicode="¬" />
<glyph horiz-adv-x="815" d="M 407 20 C 357 20 311 29 267 48 C 223 67 184 93 152 126 C 119 158 93 197 74 241 C 55 285 46 331 46 381 C 46 430 55 477 74 521 C 93 565 119 603 152 636 C 184 668 223 694 267 713 C 311 732 357 742 407 742 C 456 742 503 732 547 713 C 591 694 630 668 663 636 C 695 603 721 565 740 521 C 759 477 769 430 769 381 C 769 331 759 285 740 241 C 721 197 695 158 663 126 C 630 93 591 67 547 48 C 503 29 456 20 407 20 Z M 407 63 C 450 63 491 71 530 87 C 568 103 602 126 630 155 C 658 183 681 217 698 256 C 714 294 723 336 723 381 C 723 425 714 466 698 505 C 681 543 658 577 630 606 C 602 634 568 657 530 673 C 491 689 450 698 407 698 C 363 698 322 689 284 673 C 245 656 211 633 183 605 C 155 577 132 543 116 505 C 99 466 91 425 91 381 C 91 337 99 295 116 256 C 132 217 155 183 183 155 C 211 127 245 104 284 88 C 322 71 363 63 407 63 Z M 281 174 L 281 607 L 423 607 C 440 607 457 604 474 600 C 491 596 506 589 519 579 C 532 569 543 557 551 542 C 559 527 563 509 563 489 C 563 451 552 422 530 403 C 508 383 485 372 461 369 L 460 365 L 594 174 L 534 174 L 411 354 L 332 354 L 332 174 L 281 174 Z M 331 398 L 428 398 C 448 398 468 405 486 419 C 504 433 513 455 513 483 C 513 511 504 531 485 543 C 466 555 443 561 417 561 L 331 561 L 331 398 Z" unicode="®" />
<glyph horiz-adv-x="500" d="M 368 571 L 132 571 L 132 623 L 368 623 L 368 571 Z" unicode="¯" />
<glyph horiz-adv-x="413" d="M 206 389 C 182 389 159 393 137 403 C 115 412 97 425 81 441 C 65 457 53 475 44 497 C 34 518 30 541 30 566 C 30 590 34 612 44 634 C 53 656 65 674 81 690 C 97 706 115 718 137 728 C 159 737 182 742 206 742 C 230 742 253 737 275 728 C 297 718 315 706 331 690 C 347 674 359 656 369 634 C 378 612 383 590 383 566 C 383 541 378 518 369 497 C 359 475 347 457 331 441 C 315 425 297 412 275 403 C 253 393 230 389 206 389 Z M 206 440 C 240 440 269 452 295 477 C 320 502 333 532 333 566 C 333 600 320 629 295 654 C 269 678 240 691 206 691 C 172 691 142 678 118 654 C 93 629 81 600 81 566 C 81 532 93 502 118 477 C 142 452 172 440 206 440 Z" unicode="°" />
<glyph horiz-adv-x="494" d="M 466 305 L 274 305 L 274 116 L 220 116 L 220 305 L 28 305 L 28 356 L 220 356 L 220 546 L 274 546 L 274 356 L 466 356 L 466 305 Z M 459 30 L 36 30 L 36 80 L 459 80 L 459 30 Z" unicode="±" />
<glyph horiz-adv-x="337" d="M 305 372 L 27 372 L 27 393 L 197 547 C 205 555 214 565 223 578 C 232 590 237 605 237 623 C 237 641 230 657 216 671 C 202 685 182 692 156 692 C 126 692 104 683 92 666 C 79 649 72 629 72 607 L 20 607 C 20 641 32 672 56 700 C 80 727 115 741 161 741 C 205 741 238 730 261 709 C 283 688 295 663 295 634 C 295 607 289 585 278 567 C 267 549 256 535 245 525 L 123 420 L 305 420 L 305 372 Z" unicode="²" />
<glyph horiz-adv-x="346" d="M 222 569 C 250 565 273 554 290 538 C 306 522 315 501 315 477 C 315 464 312 451 307 438 C 302 424 294 412 282 401 C 270 390 254 381 234 374 C 214 367 190 364 161 364 C 122 364 91 368 68 378 C 45 388 27 397 15 407 L 46 440 C 58 432 73 425 92 419 C 111 412 134 409 160 409 C 196 409 222 416 238 431 C 254 445 263 463 263 484 C 263 506 253 522 235 531 C 216 539 194 544 169 544 L 98 544 L 98 586 L 165 586 C 189 586 209 590 224 600 C 238 610 246 624 246 643 C 246 658 239 671 226 681 C 212 691 192 696 164 696 C 139 696 118 691 100 682 C 82 672 68 661 58 649 L 26 679 C 38 695 56 709 78 722 C 100 735 131 742 171 742 C 213 742 245 733 267 716 C 289 698 300 677 300 653 C 300 631 292 612 277 598 C 262 583 244 573 222 569 Z" unicode="³" />
<glyph horiz-adv-x="500" d="M 174 544 L 263 713 L 337 713 L 237 544 L 174 544 Z" unicode="´" />
<glyph horiz-adv-x="594" d="M 79 -124 L 79 499 L 143 499 L 143 156 C 143 122 157 94 185 74 C 213 53 246 43 282 43 C 300 43 319 46 338 52 C 357 58 374 66 390 78 C 405 90 417 105 427 123 C 437 141 442 162 442 187 L 442 499 L 506 499 L 506 0 L 447 0 L 447 110 C 437 78 415 51 381 28 C 347 4 310 -7 271 -8 C 242 -8 215 -1 190 11 C 165 23 148 41 138 64 L 138 -124 L 79 -124 Z" unicode="µ" />
<glyph horiz-adv-x="575" d="M 520 -180 L 475 -179 L 475 678 L 366 678 L 366 -179 L 320 -179 L 320 290 L 243 290 C 214 290 186 295 160 307 C 134 319 111 334 91 354 C 71 374 54 397 42 423 C 30 449 24 477 24 507 C 24 538 29 567 41 595 C 52 622 68 646 89 666 C 109 686 134 701 164 713 C 193 724 225 730 261 730 L 520 730 L 520 -180 Z M 321 344 L 321 676 L 278 676 C 226 676 184 660 152 628 C 120 596 104 557 104 509 C 104 487 108 466 117 446 C 125 426 137 408 152 393 C 166 378 183 366 203 357 C 223 348 244 344 266 344 L 321 344 Z" unicode="¶" />
<glyph horiz-adv-x="228" d="M 147 295 L 81 295 L 81 409 L 147 409 L 147 295 Z" unicode="·" />
<glyph horiz-adv-x="500" d="M 252 -183 C 231 -183 210 -180 189 -174 C 168 -168 151 -160 139 -150 L 152 -121 C 160 -127 172 -134 187 -140 C 202 -146 219 -149 238 -149 C 254 -149 267 -145 279 -137 C 291 -129 297 -119 297 -107 C 297 -92 291 -81 281 -75 C 270 -69 259 -66 247 -66 C 238 -66 231 -66 225 -68 C 219 -70 212 -72 205 -75 L 194 -61 L 249 10 L 285 10 L 240 -52 C 270 -44 297 -46 319 -57 C 341 -68 352 -86 352 -110 C 352 -133 342 -151 322 -164 C 302 -176 278 -183 252 -183 Z" unicode="¸" />
<glyph horiz-adv-x="319" d="M 151 372 L 151 673 C 143 661 130 650 110 640 C 90 630 71 623 55 621 L 53 678 C 77 682 98 689 116 700 C 134 710 151 724 168 741 L 211 741 L 211 372 L 151 372 Z" unicode="¹" />
<glyph horiz-adv-x="419" d="M 206 306 C 182 306 159 311 137 321 C 115 331 95 345 79 364 C 62 382 49 405 39 431 C 29 457 24 487 24 520 C 24 548 28 576 38 603 C 48 629 61 653 78 673 C 94 693 114 709 137 721 C 159 733 183 739 209 739 C 261 739 306 719 342 680 C 378 640 396 590 396 530 C 396 498 391 469 381 442 C 371 414 358 391 341 371 C 324 351 304 335 281 323 C 257 311 232 306 206 306 Z M 209 357 C 247 357 278 373 302 405 C 326 437 339 477 339 525 C 339 570 327 608 304 640 C 281 672 249 688 208 688 C 170 688 140 671 116 639 C 92 607 81 567 81 519 C 81 471 93 432 117 402 C 141 372 172 357 209 357 Z M 43 208 L 43 261 L 374 261 L 374 208 L 43 208 Z" unicode="º" />
<glyph horiz-adv-x="411" d="M 30 477 L 199 311 L 199 271 L 30 107 L 30 172 L 141 292 L 30 408 L 30 477 Z M 214 477 L 382 311 L 382 271 L 214 107 L 214 172 L 325 292 L 214 408 L 214 477 Z" unicode="»" />
<glyph horiz-adv-x="692" d="M 11 0 L 11 0 Z M 109 372 L 109 673 C 101 661 88 650 68 640 C 48 630 29 623 13 621 L 11 678 C 35 682 56 689 74 700 C 92 710 109 724 126 741 L 169 741 L 169 372 L 109 372 Z M 567 730 L 180 0 L 123 0 L 510 730 L 567 730 Z M 384 88 L 384 128 L 577 368 L 616 368 L 616 131 L 681 131 L 681 88 L 616 88 L 616 1 L 562 1 L 562 88 L 384 88 Z M 437 127 L 563 127 L 563 288 L 437 127 Z" unicode="¼" />
<glyph horiz-adv-x="752" d="M 11 0 L 11 0 Z M 109 372 L 109 673 C 101 661 88 650 68 640 C 48 630 29 623 13 621 L 11 678 C 35 682 56 689 74 700 C 92 710 109 724 126 741 L 169 741 L 169 372 L 109 372 Z M 567 730 L 180 0 L 123 0 L 510 730 L 567 730 Z M 733 0 L 455 0 L 455 21 L 625 175 C 633 183 642 193 651 206 C 660 218 665 233 665 251 C 665 269 658 285 644 299 C 630 313 610 320 584 320 C 554 320 532 311 520 294 C 507 277 500 257 500 235 L 448 235 C 448 269 460 300 484 328 C 508 355 543 369 589 369 C 633 369 666 358 689 337 C 711 316 723 291 723 262 C 723 235 717 213 706 195 C 695 177 684 163 673 153 L 551 48 L 733 48 L 733 0 Z" unicode="½" />
<glyph horiz-adv-x="756" d="M 13 0 L 13 0 Z M 631 730 L 244 0 L 187 0 L 574 730 L 631 730 Z M 448 88 L 448 128 L 641 368 L 680 368 L 680 131 L 745 131 L 745 88 L 680 88 L 680 1 L 626 1 L 626 88 L 448 88 Z M 501 127 L 627 127 L 627 288 L 501 127 Z M 220 569 C 248 565 271 554 288 538 C 304 522 313 501 313 477 C 313 464 310 451 305 438 C 300 424 292 412 280 401 C 268 390 252 381 232 374 C 212 367 188 364 159 364 C 120 364 89 368 66 378 C 43 388 25 397 13 407 L 44 440 C 56 432 71 425 90 419 C 109 412 132 409 158 409 C 194 409 220 416 236 431 C 252 445 261 463 261 484 C 261 506 251 522 233 531 C 214 539 192 544 167 544 L 96 544 L 96 586 L 163 586 C 187 586 207 590 222 600 C 236 610 244 624 244 643 C 244 658 237 671 224 681 C 210 691 190 696 162 696 C 137 696 116 691 98 682 C 80 672 66 661 56 649 L 24 679 C 36 695 54 709 76 722 C 98 735 129 742 169 742 C 211 742 243 733 265 716 C 287 698 298 677 298 653 C 298 631 290 612 275 598 C 260 583 242 573 220 569 Z" unicode="¾" />
<glyph horiz-adv-x="436" d="M 199 517 L 199 610 L 271 610 L 271 517 L 199 517 Z M 215 -131 C 160 -131 115 -116 81 -86 C 46 -56 29 -15 29 39 C 29 64 32 87 40 107 C 48 127 57 146 69 163 C 81 180 93 196 107 210 C 121 224 134 237 147 249 C 171 271 187 298 194 330 C 200 362 204 393 205 422 L 268 422 C 268 374 263 334 253 304 C 243 274 224 245 198 219 C 188 208 177 197 165 186 C 153 174 142 162 132 148 C 122 134 114 119 108 103 C 101 86 98 67 98 47 C 98 10 110 -18 134 -40 C 158 -61 189 -72 225 -72 C 255 -72 283 -64 308 -48 C 332 -32 353 -13 370 9 L 412 -31 C 389 -61 360 -86 326 -104 C 292 -122 255 -131 215 -131 Z" unicode="¿" />
<glyph horiz-adv-x="526" d="M 4 0 L 4 0 Z M 521 0 L 452 0 L 384 210 L 136 210 L 71 0 L 4 0 L 239 734 L 286 734 L 521 0 Z M 371 265 L 260 614 L 150 265 L 371 265 Z M 261 791 L 261 791 Z M 343 791 L 279 791 L 179 960 L 253 960 L 343 791 Z" unicode="À" />
<glyph horiz-adv-x="526" d="M 4 0 L 4 0 Z M 521 0 L 452 0 L 384 210 L 136 210 L 71 0 L 4 0 L 239 734 L 286 734 L 521 0 Z M 371 265 L 260 614 L 150 265 L 371 265 Z M 261 792 L 261 792 Z M 180 792 L 269 961 L 343 961 L 243 792 L 180 792 Z" unicode="Á" />
<glyph horiz-adv-x="526" d="M 4 0 L 4 0 Z M 521 0 L 452 0 L 384 210 L 136 210 L 71 0 L 4 0 L 239 734 L 286 734 L 521 0 Z M 371 265 L 260 614 L 150 265 L 371 265 Z M 261 792 L 261 792 Z M 396 792 L 338 792 L 261 917 L 182 792 L 127 792 L 232 962 L 291 962 L 396 792 Z" unicode="Â" />
<glyph horiz-adv-x="526" d="M 4 0 L 4 0 Z M 521 0 L 452 0 L 384 210 L 136 210 L 71 0 L 4 0 L 239 734 L 286 734 L 521 0 Z M 371 265 L 260 614 L 150 265 L 371 265 Z M 261 800 L 261 800 Z M 360 928 L 409 928 C 409 884 403 852 391 831 C 379 810 363 800 344 800 C 326 800 311 804 298 813 C 285 822 273 831 263 840 C 253 848 243 857 233 865 C 223 873 212 878 202 878 C 192 878 183 871 176 859 C 168 846 164 828 164 805 L 115 805 C 115 847 122 879 138 901 C 153 922 170 933 189 933 C 204 933 218 928 231 919 C 243 910 255 901 266 891 C 275 882 284 874 294 866 C 304 858 314 855 324 855 C 333 855 341 861 349 874 C 356 886 360 904 360 928 Z" unicode="Ã" />
<glyph horiz-adv-x="526" d="M 4 0 L 4 0 Z M 521 0 L 452 0 L 384 210 L 136 210 L 71 0 L 4 0 L 239 734 L 286 734 L 521 0 Z M 371 265 L 260 614 L 150 265 L 371 265 Z M 261 793 L 261 793 Z M 364 793 L 311 793 L 311 948 L 364 948 L 364 793 Z M 211 793 L 158 793 L 158 948 L 211 948 L 211 793 Z" unicode="Ä" />
<glyph horiz-adv-x="526" d="M 4 0 L 4 0 Z M 521 0 L 452 0 L 384 210 L 136 210 L 71 0 L 4 0 L 239 734 L 286 734 L 521 0 Z M 371 265 L 260 614 L 150 265 L 371 265 Z M 261 786 L 261 786 Z M 261 786 C 229 786 203 797 181 819 C 159 841 148 867 148 899 C 148 930 159 957 181 979 C 203 1001 229 1013 261 1013 C 293 1013 320 1001 342 979 C 364 957 375 930 375 899 C 375 867 364 841 342 819 C 320 797 293 786 261 786 Z M 261 825 C 281 825 299 832 313 846 C 327 860 334 878 334 899 C 334 919 327 937 313 952 C 299 966 281 974 261 974 C 241 974 223 966 209 952 C 195 937 188 919 188 899 C 188 878 195 860 209 846 C 223 832 241 825 261 825 Z" unicode="Å" />
<glyph horiz-adv-x="789" d="M 760 0 L 423 0 L 423 244 L 199 244 L 68 0 L -2 0 L 387 730 L 743 730 L 743 670 L 489 670 L 489 392 L 734 392 L 734 333 L 489 333 L 489 60 L 760 60 L 760 0 Z M 423 299 L 424 676 L 226 299 L 423 299 Z" unicode="Æ" />
<glyph horiz-adv-x="572" d="M 43 0 L 43 0 Z M 320 -9 C 282 -9 246 -1 212 15 C 178 31 149 54 124 86 C 99 117 79 156 65 203 C 50 249 43 303 43 365 C 43 423 49 475 62 521 C 75 567 94 607 118 639 C 142 671 171 695 205 713 C 239 730 278 739 320 739 C 378 739 425 726 459 702 C 493 678 520 647 539 609 L 482 577 C 466 605 445 628 421 647 C 396 666 363 676 321 676 C 257 676 206 649 169 597 C 132 544 114 466 114 362 C 114 308 120 262 132 223 C 144 183 159 151 179 126 C 199 101 221 83 247 71 C 272 59 298 53 325 53 C 369 53 404 63 432 84 C 459 105 481 132 498 166 L 552 136 C 531 92 501 57 463 31 C 424 4 376 -9 320 -9 Z M 311 -3 L 311 -3 Z M 318 -186 C 297 -186 276 -183 255 -177 C 234 -171 217 -163 205 -153 L 218 -124 C 226 -130 238 -137 253 -143 C 268 -149 285 -152 304 -152 C 320 -152 333 -148 345 -140 C 357 -132 363 -122 363 -110 C 363 -95 357 -84 347 -78 C 336 -72 325 -69 313 -69 C 304 -69 297 -69 291 -71 C 285 -73 278 -75 271 -78 L 260 -64 L 315 7 L 351 7 L 306 -55 C 336 -47 363 -49 385 -60 C 407 -71 418 -89 418 -113 C 418 -136 408 -154 388 -167 C 368 -179 344 -186 318 -186 Z" unicode="Ç" />
<glyph horiz-adv-x="448" d="M 80 0 L 80 0 Z M 419 0 L 80 0 L 80 730 L 402 730 L 402 668 L 148 668 L 148 394 L 393 394 L 393 333 L 148 333 L 148 62 L 419 62 L 419 0 Z M 243 791 L 243 791 Z M 325 791 L 261 791 L 161 960 L 235 960 L 325 791 Z" unicode="È" />
<glyph horiz-adv-x="448" d="M 80 0 L 80 0 Z M 419 0 L 80 0 L 80 730 L 402 730 L 402 668 L 148 668 L 148 394 L 393 394 L 393 333 L 148 333 L 148 62 L 419 62 L 419 0 Z M 243 792 L 243 792 Z M 162 792 L 251 961 L 325 961 L 225 792 L 162 792 Z" unicode="É" />
<glyph horiz-adv-x="448" d="M 80 0 L 80 0 Z M 419 0 L 80 0 L 80 730 L 402 730 L 402 668 L 148 668 L 148 394 L 393 394 L 393 333 L 148 333 L 148 62 L 419 62 L 419 0 Z M 243 792 L 243 792 Z M 378 792 L 320 792 L 243 917 L 164 792 L 109 792 L 214 962 L 273 962 L 378 792 Z" unicode="Ê" />
<glyph horiz-adv-x="448" d="M 80 0 L 80 0 Z M 419 0 L 80 0 L 80 730 L 402 730 L 402 668 L 148 668 L 148 394 L 393 394 L 393 333 L 148 333 L 148 62 L 419 62 L 419 0 Z M 243 793 L 243 793 Z M 346 793 L 293 793 L 293 948 L 346 948 L 346 793 Z M 193 793 L 140 793 L 140 948 L 193 948 L 193 793 Z" unicode="Ë" />
<glyph horiz-adv-x="238" d="M 37 0 L 37 0 Z M 155 0 L 84 0 L 84 730 L 155 730 L 155 0 Z M 119 791 L 119 791 Z M 201 791 L 137 791 L 37 960 L 111 960 L 201 791 Z" unicode="Ì" />
<glyph horiz-adv-x="238" d="M 38 0 L 38 0 Z M 155 0 L 84 0 L 84 730 L 155 730 L 155 0 Z M 119 792 L 119 792 Z M 38 792 L 127 961 L 201 961 L 101 792 L 38 792 Z" unicode="Í" />
<glyph horiz-adv-x="238" d="M 0 0 L 0 0 Z M 155 0 L 84 0 L 84 730 L 155 730 L 155 0 Z M 119 792 L 119 792 Z M 254 792 L 196 792 L 119 917 L 40 792 L -15 792 L 90 962 L 149 962 L 254 792 Z" unicode="Î" />
<glyph horiz-adv-x="238" d="M 16 0 L 16 0 Z M 155 0 L 84 0 L 84 730 L 155 730 L 155 0 Z M 119 793 L 119 793 Z M 222 793 L 169 793 L 169 948 L 222 948 L 222 793 Z M 69 793 L 16 793 L 16 948 L 69 948 L 69 793 Z" unicode="Ï" />
<glyph horiz-adv-x="603" d="M 560 365 C 560 314 553 266 539 222 C 525 178 505 139 478 106 C 451 73 417 47 376 28 C 335 9 288 0 234 0 L 80 0 L 80 335 L 27 335 L 27 388 L 80 388 L 80 730 L 244 730 C 294 730 338 721 378 704 C 417 687 450 663 477 631 C 504 599 525 561 539 516 C 553 471 560 421 560 365 Z M 149 55 L 228 55 C 274 55 314 63 348 79 C 381 95 408 116 429 144 C 449 171 464 203 474 241 C 484 279 489 319 489 363 C 489 463 467 540 423 594 C 379 647 319 674 243 674 L 149 674 L 149 388 L 324 388 L 324 335 L 149 335 L 149 55 Z" unicode="Ð" />
<glyph horiz-adv-x="620" d="M 80 0 L 80 0 Z M 541 0 L 490 0 L 146 580 L 146 0 L 80 0 L 80 730 L 131 730 L 476 149 L 476 730 L 541 730 L 541 0 Z M 311 800 L 311 800 Z M 410 928 L 459 928 C 459 884 453 852 441 831 C 429 810 413 800 394 800 C 376 800 361 804 348 813 C 335 822 323 831 313 840 C 303 848 293 857 283 865 C 273 873 262 878 252 878 C 242 878 233 871 226 859 C 218 846 214 828 214 805 L 165 805 C 165 847 172 879 188 901 C 203 922 220 933 239 933 C 254 933 268 928 281 919 C 293 910 305 901 316 891 C 325 882 334 874 344 866 C 354 858 364 855 374 855 C 383 855 391 861 399 874 C 406 886 410 904 410 928 Z" unicode="Ñ" />
<glyph horiz-adv-x="664" d="M 43 0 L 43 0 Z M 334 -9 C 290 -9 251 0 215 17 C 179 34 148 59 123 91 C 97 123 78 163 64 211 C 50 258 43 311 43 371 C 43 427 50 477 64 523 C 78 569 97 607 123 639 C 148 671 178 695 213 713 C 248 730 287 739 329 739 C 418 739 489 705 542 639 C 594 572 621 481 621 366 C 621 308 613 256 599 210 C 584 164 564 124 538 92 C 512 60 482 35 447 17 C 412 0 374 -9 334 -9 Z M 334 51 C 365 51 394 58 420 72 C 446 86 469 106 489 133 C 508 159 523 193 534 233 C 544 273 550 319 550 371 C 550 467 529 542 488 597 C 446 651 393 679 329 679 C 264 679 212 652 173 598 C 134 544 115 467 115 365 C 115 313 120 268 132 229 C 143 189 158 156 178 130 C 197 104 220 84 247 71 C 274 57 303 51 334 51 Z M 330 791 L 330 791 Z M 412 791 L 348 791 L 248 960 L 322 960 L 412 791 Z" unicode="Ò" />
<glyph horiz-adv-x="664" d="M 43 0 L 43 0 Z M 334 -9 C 290 -9 251 0 215 17 C 179 34 148 59 123 91 C 97 123 78 163 64 211 C 50 258 43 311 43 371 C 43 427 50 477 64 523 C 78 569 97 607 123 639 C 148 671 178 695 213 713 C 248 730 287 739 329 739 C 418 739 489 705 542 639 C 594 572 621 481 621 366 C 621 308 613 256 599 210 C 584 164 564 124 538 92 C 512 60 482 35 447 17 C 412 0 374 -9 334 -9 Z M 334 51 C 365 51 394 58 420 72 C 446 86 469 106 489 133 C 508 159 523 193 534 233 C 544 273 550 319 550 371 C 550 467 529 542 488 597 C 446 651 393 679 329 679 C 264 679 212 652 173 598 C 134 544 115 467 115 365 C 115 313 120 268 132 229 C 143 189 158 156 178 130 C 197 104 220 84 247 71 C 274 57 303 51 334 51 Z M 330 792 L 330 792 Z M 249 792 L 338 961 L 412 961 L 312 792 L 249 792 Z" unicode="Ó" />
<glyph horiz-adv-x="664" d="M 43 0 L 43 0 Z M 334 -9 C 290 -9 251 0 215 17 C 179 34 148 59 123 91 C 97 123 78 163 64 211 C 50 258 43 311 43 371 C 43 427 50 477 64 523 C 78 569 97 607 123 639 C 148 671 178 695 213 713 C 248 730 287 739 329 739 C 418 739 489 705 542 639 C 594 572 621 481 621 366 C 621 308 613 256 599 210 C 584 164 564 124 538 92 C 512 60 482 35 447 17 C 412 0 374 -9 334 -9 Z M 334 51 C 365 51 394 58 420 72 C 446 86 469 106 489 133 C 508 159 523 193 534 233 C 544 273 550 319 550 371 C 550 467 529 542 488 597 C 446 651 393 679 329 679 C 264 679 212 652 173 598 C 134 544 115 467 115 365 C 115 313 120 268 132 229 C 143 189 158 156 178 130 C 197 104 220 84 247 71 C 274 57 303 51 334 51 Z M 330 792 L 330 792 Z M 465 792 L 407 792 L 330 917 L 251 792 L 196 792 L 301 962 L 360 962 L 465 792 Z" unicode="Ô" />
<glyph horiz-adv-x="664" d="M 43 0 L 43 0 Z M 334 -9 C 290 -9 251 0 215 17 C 179 34 148 59 123 91 C 97 123 78 163 64 211 C 50 258 43 311 43 371 C 43 427 50 477 64 523 C 78 569 97 607 123 639 C 148 671 178 695 213 713 C 248 730 287 739 329 739 C 418 739 489 705 542 639 C 594 572 621 481 621 366 C 621 308 613 256 599 210 C 584 164 564 124 538 92 C 512 60 482 35 447 17 C 412 0 374 -9 334 -9 Z M 334 51 C 365 51 394 58 420 72 C 446 86 469 106 489 133 C 508 159 523 193 534 233 C 544 273 550 319 550 371 C 550 467 529 542 488 597 C 446 651 393 679 329 679 C 264 679 212 652 173 598 C 134 544 115 467 115 365 C 115 313 120 268 132 229 C 143 189 158 156 178 130 C 197 104 220 84 247 71 C 274 57 303 51 334 51 Z M 330 800 L 330 800 Z M 429 928 L 478 928 C 478 884 472 852 460 831 C 448 810 432 800 413 800 C 395 800 380 804 367 813 C 354 822 342 831 332 840 C 322 848 312 857 302 865 C 292 873 281 878 271 878 C 261 878 252 871 245 859 C 237 846 233 828 233 805 L 184 805 C 184 847 191 879 207 901 C 222 922 239 933 258 933 C 273 933 287 928 300 919 C 312 910 324 901 335 891 C 344 882 353 874 363 866 C 373 858 383 855 393 855 C 402 855 410 861 418 874 C 425 886 429 904 429 928 Z" unicode="Õ" />
<glyph horiz-adv-x="664" d="M 43 0 L 43 0 Z M 334 -9 C 290 -9 251 0 215 17 C 179 34 148 59 123 91 C 97 123 78 163 64 211 C 50 258 43 311 43 371 C 43 427 50 477 64 523 C 78 569 97 607 123 639 C 148 671 178 695 213 713 C 248 730 287 739 329 739 C 418 739 489 705 542 639 C 594 572 621 481 621 366 C 621 308 613 256 599 210 C 584 164 564 124 538 92 C 512 60 482 35 447 17 C 412 0 374 -9 334 -9 Z M 334 51 C 365 51 394 58 420 72 C 446 86 469 106 489 133 C 508 159 523 193 534 233 C 544 273 550 319 550 371 C 550 467 529 542 488 597 C 446 651 393 679 329 679 C 264 679 212 652 173 598 C 134 544 115 467 115 365 C 115 313 120 268 132 229 C 143 189 158 156 178 130 C 197 104 220 84 247 71 C 274 57 303 51 334 51 Z M 330 793 L 330 793 Z M 433 793 L 380 793 L 380 948 L 433 948 L 433 793 Z M 280 793 L 227 793 L 227 948 L 280 948 L 280 793 Z" unicode="Ö" />
<glyph horiz-adv-x="494" d="M 107 155 L 71 191 L 211 330 L 72 469 L 108 505 L 247 367 L 387 505 L 422 469 L 283 330 L 423 191 L 387 153 L 247 294 L 107 155 Z" unicode="×" />
<glyph horiz-adv-x="664" d="M 621 366 C 621 308 613 256 599 210 C 584 164 564 124 538 92 C 512 60 482 35 447 17 C 412 0 374 -9 334 -9 C 293 -9 255 -1 221 14 C 186 29 156 51 132 81 L 70 2 L 38 28 L 106 115 C 86 147 70 184 59 227 C 48 270 43 318 43 371 C 43 427 50 477 64 523 C 78 569 97 607 123 639 C 148 671 178 695 213 713 C 248 730 287 739 329 739 C 369 739 407 731 441 717 C 475 702 504 681 529 655 L 597 742 L 630 716 L 556 621 C 576 589 592 552 604 509 C 615 465 621 418 621 366 Z M 115 365 C 115 326 118 291 125 259 C 131 227 140 198 152 174 L 486 600 C 466 625 443 644 417 658 C 390 672 361 679 329 679 C 264 679 212 652 173 598 C 134 544 115 467 115 365 Z M 550 371 C 550 409 546 444 539 477 C 532 509 522 538 510 563 L 174 135 C 194 107 217 86 245 72 C 272 58 302 51 334 51 C 365 51 394 58 420 72 C 446 86 469 106 489 133 C 508 159 523 193 534 233 C 544 273 550 319 550 371 Z" unicode="Ø" />
<glyph horiz-adv-x="604" d="M 75 0 L 75 0 Z M 530 730 L 530 230 C 530 189 523 153 511 123 C 499 93 482 68 462 49 C 441 29 416 15 388 5 C 360 -4 330 -9 299 -9 C 269 -9 240 -4 213 4 C 185 13 161 27 141 47 C 121 66 105 91 93 121 C 81 151 75 188 75 230 L 75 730 L 144 730 L 144 229 C 144 169 159 124 189 96 C 219 67 257 53 301 53 C 344 53 381 66 412 94 C 443 121 459 166 459 229 L 459 730 L 530 730 Z M 301 791 L 301 791 Z M 383 791 L 319 791 L 219 960 L 293 960 L 383 791 Z" unicode="Ù" />
<glyph horiz-adv-x="604" d="M 75 0 L 75 0 Z M 530 730 L 530 230 C 530 189 523 153 511 123 C 499 93 482 68 462 49 C 441 29 416 15 388 5 C 360 -4 330 -9 299 -9 C 269 -9 240 -4 213 4 C 185 13 161 27 141 47 C 121 66 105 91 93 121 C 81 151 75 188 75 230 L 75 730 L 144 730 L 144 229 C 144 169 159 124 189 96 C 219 67 257 53 301 53 C 344 53 381 66 412 94 C 443 121 459 166 459 229 L 459 730 L 530 730 Z M 301 792 L 301 792 Z M 220 792 L 309 961 L 383 961 L 283 792 L 220 792 Z" unicode="Ú" />
<glyph horiz-adv-x="604" d="M 75 0 L 75 0 Z M 530 730 L 530 230 C 530 189 523 153 511 123 C 499 93 482 68 462 49 C 441 29 416 15 388 5 C 360 -4 330 -9 299 -9 C 269 -9 240 -4 213 4 C 185 13 161 27 141 47 C 121 66 105 91 93 121 C 81 151 75 188 75 230 L 75 730 L 144 730 L 144 229 C 144 169 159 124 189 96 C 219 67 257 53 301 53 C 344 53 381 66 412 94 C 443 121 459 166 459 229 L 459 730 L 530 730 Z M 301 792 L 301 792 Z M 436 792 L 378 792 L 301 917 L 222 792 L 167 792 L 272 962 L 331 962 L 436 792 Z" unicode="Û" />
<glyph horiz-adv-x="604" d="M 75 0 L 75 0 Z M 530 730 L 530 230 C 530 189 523 153 511 123 C 499 93 482 68 462 49 C 441 29 416 15 388 5 C 360 -4 330 -9 299 -9 C 269 -9 240 -4 213 4 C 185 13 161 27 141 47 C 121 66 105 91 93 121 C 81 151 75 188 75 230 L 75 730 L 144 730 L 144 229 C 144 169 159 124 189 96 C 219 67 257 53 301 53 C 344 53 381 66 412 94 C 443 121 459 166 459 229 L 459 730 L 530 730 Z M 301 793 L 301 793 Z M 404 793 L 351 793 L 351 948 L 404 948 L 404 793 Z M 251 793 L 198 793 L 198 948 L 251 948 L 251 793 Z" unicode="Ü" />
<glyph horiz-adv-x="513" d="M 2 0 L 2 0 Z M 511 730 L 289 310 L 289 0 L 219 0 L 219 311 L 2 730 L 80 730 L 258 380 L 441 730 L 511 730 Z M 258 792 L 258 792 Z M 177 792 L 266 961 L 340 961 L 240 792 L 177 792 Z" unicode="Ý" />
<glyph horiz-adv-x="481" d="M 80 0 L 80 730 L 150 730 L 150 593 L 258 593 C 316 593 364 574 402 538 C 440 502 459 451 459 386 C 459 318 440 265 402 227 C 364 188 316 169 260 169 L 150 169 L 150 0 L 80 0 Z M 148 225 L 252 225 C 294 225 327 239 353 267 C 379 295 392 336 392 388 C 392 436 377 473 349 498 C 320 523 287 536 249 536 L 148 536 L 148 225 Z" unicode="Þ" />
<glyph horiz-adv-x="507" d="M 350 -7 C 316 -7 286 -1 261 11 C 235 23 215 39 199 59 L 231 102 C 245 85 262 72 282 62 C 301 52 322 47 345 47 C 365 47 384 53 401 67 C 417 80 426 99 426 125 C 426 146 418 164 402 180 C 386 196 359 213 322 232 C 281 251 252 271 234 291 C 216 311 208 337 208 370 C 208 404 218 431 240 451 C 261 471 284 483 310 489 C 317 491 325 501 333 519 C 341 536 345 565 345 606 C 345 650 335 681 315 701 C 295 720 270 730 241 730 C 212 730 188 719 169 699 C 149 679 140 649 140 611 L 140 0 L 74 0 L 74 614 C 74 667 89 709 121 739 C 152 769 192 784 240 784 C 286 784 326 769 358 739 C 390 709 406 665 406 605 C 406 556 399 519 386 493 C 372 467 359 452 346 448 C 325 446 306 439 289 427 C 272 415 263 398 263 376 C 263 356 270 339 285 325 C 300 311 326 295 363 277 C 406 256 437 234 456 212 C 474 190 484 160 484 124 C 484 102 480 83 472 67 C 464 51 453 37 441 26 C 428 15 414 7 398 1 C 382 -4 366 -7 350 -7 Z" unicode="ß" />
<glyph horiz-adv-x="414" d="M 27 0 L 27 0 Z M 360 0 L 302 0 L 302 60 C 288 41 269 25 246 13 C 223 0 195 -6 163 -6 C 123 -6 91 6 65 31 C 39 56 27 92 27 139 C 27 191 43 229 77 254 C 110 279 151 293 200 296 L 298 304 L 298 339 C 298 372 289 397 272 413 C 254 429 230 437 199 437 C 172 437 149 432 129 423 C 109 414 94 404 82 394 L 60 441 C 75 455 95 467 121 477 C 146 487 176 492 212 492 C 255 492 290 480 318 456 C 346 432 360 396 360 348 L 360 0 Z M 300 104 L 300 256 L 208 250 C 175 247 147 237 124 220 C 101 202 90 176 90 140 C 90 108 99 84 118 68 C 137 52 159 45 185 45 C 211 45 234 51 254 63 C 274 75 289 88 300 104 Z M 202 543 L 202 543 Z M 284 543 L 220 543 L 120 712 L 194 712 L 284 543 Z" unicode="à" />
<glyph horiz-adv-x="414" d="M 27 0 L 27 0 Z M 360 0 L 302 0 L 302 60 C 288 41 269 25 246 13 C 223 0 195 -6 163 -6 C 123 -6 91 6 65 31 C 39 56 27 92 27 139 C 27 191 43 229 77 254 C 110 279 151 293 200 296 L 298 304 L 298 339 C 298 372 289 397 272 413 C 254 429 230 437 199 437 C 172 437 149 432 129 423 C 109 414 94 404 82 394 L 60 441 C 75 455 95 467 121 477 C 146 487 176 492 212 492 C 255 492 290 480 318 456 C 346 432 360 396 360 348 L 360 0 Z M 300 104 L 300 256 L 208 250 C 175 247 147 237 124 220 C 101 202 90 176 90 140 C 90 108 99 84 118 68 C 137 52 159 45 185 45 C 211 45 234 51 254 63 C 274 75 289 88 300 104 Z M 202 544 L 202 544 Z M 121 544 L 210 713 L 284 713 L 184 544 L 121 544 Z" unicode="á" />
<glyph horiz-adv-x="414" d="M 27 0 L 27 0 Z M 360 0 L 302 0 L 302 60 C 288 41 269 25 246 13 C 223 0 195 -6 163 -6 C 123 -6 91 6 65 31 C 39 56 27 92 27 139 C 27 191 43 229 77 254 C 110 279 151 293 200 296 L 298 304 L 298 339 C 298 372 289 397 272 413 C 254 429 230 437 199 437 C 172 437 149 432 129 423 C 109 414 94 404 82 394 L 60 441 C 75 455 95 467 121 477 C 146 487 176 492 212 492 C 255 492 290 480 318 456 C 346 432 360 396 360 348 L 360 0 Z M 300 104 L 300 256 L 208 250 C 175 247 147 237 124 220 C 101 202 90 176 90 140 C 90 108 99 84 118 68 C 137 52 159 45 185 45 C 211 45 234 51 254 63 C 274 75 289 88 300 104 Z M 202 544 L 202 544 Z M 337 544 L 279 544 L 202 669 L 123 544 L 68 544 L 173 714 L 232 714 L 337 544 Z" unicode="â" />
<glyph horiz-adv-x="414" d="M 27 0 L 27 0 Z M 360 0 L 302 0 L 302 60 C 288 41 269 25 246 13 C 223 0 195 -6 163 -6 C 123 -6 91 6 65 31 C 39 56 27 92 27 139 C 27 191 43 229 77 254 C 110 279 151 293 200 296 L 298 304 L 298 339 C 298 372 289 397 272 413 C 254 429 230 437 199 437 C 172 437 149 432 129 423 C 109 414 94 404 82 394 L 60 441 C 75 455 95 467 121 477 C 146 487 176 492 212 492 C 255 492 290 480 318 456 C 346 432 360 396 360 348 L 360 0 Z M 300 104 L 300 256 L 208 250 C 175 247 147 237 124 220 C 101 202 90 176 90 140 C 90 108 99 84 118 68 C 137 52 159 45 185 45 C 211 45 234 51 254 63 C 274 75 289 88 300 104 Z M 202 552 L 202 552 Z M 301 680 L 350 680 C 350 636 344 604 332 583 C 320 562 304 552 285 552 C 267 552 252 556 239 565 C 226 574 214 583 204 592 C 194 600 184 609 174 617 C 164 625 153 630 143 630 C 133 630 124 623 117 611 C 109 598 105 580 105 557 L 56 557 C 56 599 63 631 79 653 C 94 674 111 685 130 685 C 145 685 159 680 172 671 C 184 662 196 653 207 643 C 216 634 225 626 235 618 C 245 610 255 607 265 607 C 274 607 282 613 290 626 C 297 638 301 656 301 680 Z" unicode="ã" />
<glyph horiz-adv-x="414" d="M 27 0 L 27 0 Z M 360 0 L 302 0 L 302 60 C 288 41 269 25 246 13 C 223 0 195 -6 163 -6 C 123 -6 91 6 65 31 C 39 56 27 92 27 139 C 27 191 43 229 77 254 C 110 279 151 293 200 296 L 298 304 L 298 339 C 298 372 289 397 272 413 C 254 429 230 437 199 437 C 172 437 149 432 129 423 C 109 414 94 404 82 394 L 60 441 C 75 455 95 467 121 477 C 146 487 176 492 212 492 C 255 492 290 480 318 456 C 346 432 360 396 360 348 L 360 0 Z M 300 104 L 300 256 L 208 250 C 175 247 147 237 124 220 C 101 202 90 176 90 140 C 90 108 99 84 118 68 C 137 52 159 45 185 45 C 211 45 234 51 254 63 C 274 75 289 88 300 104 Z M 202 545 L 202 545 Z M 305 545 L 252 545 L 252 700 L 305 700 L 305 545 Z M 152 545 L 99 545 L 99 700 L 152 700 L 152 545 Z" unicode="ä" />
<glyph horiz-adv-x="414" d="M 27 0 L 27 0 Z M 360 0 L 302 0 L 302 60 C 288 41 269 25 246 13 C 223 0 195 -6 163 -6 C 123 -6 91 6 65 31 C 39 56 27 92 27 139 C 27 191 43 229 77 254 C 110 279 151 293 200 296 L 298 304 L 298 339 C 298 372 289 397 272 413 C 254 429 230 437 199 437 C 172 437 149 432 129 423 C 109 414 94 404 82 394 L 60 441 C 75 455 95 467 121 477 C 146 487 176 492 212 492 C 255 492 290 480 318 456 C 346 432 360 396 360 348 L 360 0 Z M 300 104 L 300 256 L 208 250 C 175 247 147 237 124 220 C 101 202 90 176 90 140 C 90 108 99 84 118 68 C 137 52 159 45 185 45 C 211 45 234 51 254 63 C 274 75 289 88 300 104 Z M 202 538 L 202 538 Z M 202 538 C 170 538 144 549 122 571 C 100 593 89 619 89 651 C 89 682 100 709 122 731 C 144 753 170 765 202 765 C 234 765 261 753 283 731 C 305 709 316 682 316 651 C 316 619 305 593 283 571 C 261 549 234 538 202 538 Z M 202 577 C 222 577 240 584 254 598 C 268 612 275 630 275 651 C 275 671 268 689 254 704 C 240 718 222 726 202 726 C 182 726 164 718 150 704 C 136 689 129 671 129 651 C 129 630 136 612 150 598 C 164 584 182 577 202 577 Z" unicode="å" />
<glyph horiz-adv-x="701" d="M 494 -7 C 470 -7 449 -3 430 4 C 411 11 395 20 381 32 C 367 43 356 56 348 70 C 339 84 333 97 329 111 C 321 76 302 48 272 26 C 242 4 207 -6 167 -6 C 129 -6 96 6 69 31 C 42 56 29 92 29 138 C 29 190 45 228 78 253 C 111 278 152 292 201 296 L 303 303 L 303 326 C 303 366 293 395 274 412 C 255 428 231 437 201 437 C 173 437 149 432 129 423 C 109 413 93 403 83 393 L 61 440 C 77 454 98 466 122 476 C 146 485 174 490 206 490 C 242 490 272 481 297 463 C 321 445 336 418 341 380 C 345 392 351 405 359 418 C 367 431 377 443 389 453 C 401 463 416 472 434 479 C 451 485 470 489 492 489 C 548 489 592 465 626 419 C 659 372 676 308 677 227 L 363 227 C 363 170 376 126 400 94 C 424 62 457 47 497 47 C 533 47 560 54 579 68 C 598 82 614 97 627 114 L 662 78 C 646 56 625 37 600 19 C 574 1 539 -7 494 -7 Z M 363 272 L 614 272 C 613 319 601 358 579 389 C 556 420 526 436 488 436 C 452 436 422 420 400 390 C 378 360 365 320 363 272 Z M 187 45 C 217 45 243 54 265 74 C 287 94 300 120 304 153 L 304 256 L 209 249 C 176 247 148 237 126 221 C 103 204 92 178 92 142 C 92 108 101 84 120 68 C 139 52 161 45 187 45 Z" unicode="æ" />
<glyph horiz-adv-x="397" d="M 28 0 L 28 0 Z M 340 123 L 383 89 C 377 78 369 67 360 56 C 351 44 340 34 328 25 C 316 15 301 8 285 2 C 268 -4 248 -7 226 -7 C 195 -7 167 0 143 11 C 118 23 97 40 80 62 C 63 84 50 110 41 140 C 32 170 28 204 28 240 C 28 273 32 305 41 335 C 50 365 63 392 81 415 C 98 437 119 455 144 469 C 168 482 196 489 227 489 C 269 489 303 478 329 457 C 355 436 373 414 384 391 L 336 357 C 326 376 312 393 295 409 C 278 425 255 433 226 433 C 206 433 187 428 171 418 C 155 408 141 395 130 378 C 118 360 110 340 104 317 C 98 293 95 268 95 242 C 95 182 107 134 132 100 C 156 65 189 48 231 48 C 263 48 287 56 303 74 C 319 91 331 107 340 123 Z M 214 -3 L 214 -3 Z M 221 -186 C 200 -186 179 -183 158 -177 C 137 -171 120 -163 108 -153 L 121 -124 C 129 -130 141 -137 156 -143 C 171 -149 188 -152 207 -152 C 223 -152 236 -148 248 -140 C 260 -132 266 -122 266 -110 C 266 -95 260 -84 250 -78 C 239 -72 228 -69 216 -69 C 207 -69 200 -69 194 -71 C 188 -73 181 -75 174 -78 L 163 -64 L 218 7 L 254 7 L 209 -55 C 239 -47 266 -49 288 -60 C 310 -71 321 -89 321 -113 C 321 -136 311 -154 291 -167 C 271 -179 247 -186 221 -186 Z" unicode="ç" />
<glyph horiz-adv-x="433" d="M 29 0 L 29 0 Z M 226 -7 C 168 -7 120 15 84 59 C 47 103 29 164 29 240 C 29 276 33 310 43 341 C 53 371 66 397 83 419 C 100 441 120 458 144 470 C 167 482 192 489 220 489 C 278 489 323 465 357 419 C 391 373 408 309 408 227 L 92 227 C 92 171 105 127 130 95 C 155 63 188 47 230 47 C 264 47 291 54 311 68 C 330 82 346 97 359 114 L 394 78 C 378 57 358 38 332 20 C 306 2 271 -7 226 -7 Z M 93 273 L 345 273 C 344 321 332 360 310 391 C 288 421 258 437 222 437 C 184 437 153 421 131 391 C 108 360 95 321 93 273 Z M 220 543 L 220 543 Z M 302 543 L 238 543 L 138 712 L 212 712 L 302 543 Z" unicode="è" />
<glyph horiz-adv-x="433" d="M 29 0 L 29 0 Z M 226 -7 C 168 -7 120 15 84 59 C 47 103 29 164 29 240 C 29 276 33 310 43 341 C 53 371 66 397 83 419 C 100 441 120 458 144 470 C 167 482 192 489 220 489 C 278 489 323 465 357 419 C 391 373 408 309 408 227 L 92 227 C 92 171 105 127 130 95 C 155 63 188 47 230 47 C 264 47 291 54 311 68 C 330 82 346 97 359 114 L 394 78 C 378 57 358 38 332 20 C 306 2 271 -7 226 -7 Z M 93 273 L 345 273 C 344 321 332 360 310 391 C 288 421 258 437 222 437 C 184 437 153 421 131 391 C 108 360 95 321 93 273 Z M 220 544 L 220 544 Z M 139 544 L 228 713 L 302 713 L 202 544 L 139 544 Z" unicode="é" />
<glyph horiz-adv-x="433" d="M 29 0 L 29 0 Z M 226 -7 C 168 -7 120 15 84 59 C 47 103 29 164 29 240 C 29 276 33 310 43 341 C 53 371 66 397 83 419 C 100 441 120 458 144 470 C 167 482 192 489 220 489 C 278 489 323 465 357 419 C 391 373 408 309 408 227 L 92 227 C 92 171 105 127 130 95 C 155 63 188 47 230 47 C 264 47 291 54 311 68 C 330 82 346 97 359 114 L 394 78 C 378 57 358 38 332 20 C 306 2 271 -7 226 -7 Z M 93 273 L 345 273 C 344 321 332 360 310 391 C 288 421 258 437 222 437 C 184 437 153 421 131 391 C 108 360 95 321 93 273 Z M 220 544 L 220 544 Z M 355 544 L 297 544 L 220 669 L 141 544 L 86 544 L 191 714 L 250 714 L 355 544 Z" unicode="ê" />
<glyph horiz-adv-x="433" d="M 29 0 L 29 0 Z M 226 -7 C 168 -7 120 15 84 59 C 47 103 29 164 29 240 C 29 276 33 310 43 341 C 53 371 66 397 83 419 C 100 441 120 458 144 470 C 167 482 192 489 220 489 C 278 489 323 465 357 419 C 391 373 408 309 408 227 L 92 227 C 92 171 105 127 130 95 C 155 63 188 47 230 47 C 264 47 291 54 311 68 C 330 82 346 97 359 114 L 394 78 C 378 57 358 38 332 20 C 306 2 271 -7 226 -7 Z M 93 273 L 345 273 C 344 321 332 360 310 391 C 288 421 258 437 222 437 C 184 437 153 421 131 391 C 108 360 95 321 93 273 Z M 220 545 L 220 545 Z M 323 545 L 270 545 L 270 700 L 323 700 L 323 545 Z M 170 545 L 117 545 L 117 700 L 170 700 L 170 545 Z" unicode="ë" />
<glyph horiz-adv-x="187" d="M 11 0 L 11 0 Z M 126 0 L 61 0 L 61 482 L 126 482 L 126 0 Z M 93 543 L 93 543 Z M 175 543 L 111 543 L 11 712 L 85 712 L 175 543 Z" unicode="ì" />
<glyph horiz-adv-x="187" d="M 12 0 L 12 0 Z M 126 0 L 61 0 L 61 482 L 126 482 L 126 0 Z M 93 544 L 93 544 Z M 12 544 L 101 713 L 175 713 L 75 544 L 12 544 Z" unicode="í" />
<glyph horiz-adv-x="187" d="M 0 0 L 0 0 Z M 126 0 L 61 0 L 61 482 L 126 482 L 126 0 Z M 93 544 L 93 544 Z M 228 544 L 170 544 L 93 669 L 14 544 L -41 544 L 64 714 L 123 714 L 228 544 Z" unicode="î" />
<glyph horiz-adv-x="187" d="M 0 0 L 0 0 Z M 126 0 L 61 0 L 61 482 L 126 482 L 126 0 Z M 93 545 L 93 545 Z M 196 545 L 143 545 L 143 700 L 196 700 L 196 545 Z M 43 545 L -10 545 L -10 700 L 43 700 L 43 545 Z" unicode="ï" />
<glyph horiz-adv-x="456" d="M 421 277 C 421 235 416 197 408 162 C 399 127 386 97 370 72 C 353 47 332 27 308 13 C 284 0 256 -8 226 -8 C 169 -8 122 13 85 57 C 47 101 29 160 29 236 C 29 273 34 307 44 338 C 54 368 67 394 84 416 C 101 437 121 453 144 465 C 166 477 190 483 215 483 C 249 483 279 473 304 455 C 328 437 346 414 358 387 C 353 439 343 485 329 526 C 315 567 299 603 282 634 L 176 587 L 160 631 L 257 673 C 238 699 220 719 202 734 C 184 749 169 759 159 764 L 209 787 C 219 781 234 771 252 756 C 270 741 288 720 307 694 L 375 724 L 390 681 L 332 655 C 356 614 376 562 394 500 C 412 438 421 363 421 277 Z M 224 47 C 264 47 296 64 319 99 C 342 133 354 180 354 240 C 354 300 342 346 319 380 C 296 413 264 430 223 430 C 185 430 154 412 130 377 C 106 342 95 296 95 239 C 95 177 107 129 131 96 C 155 63 186 47 224 47 Z" unicode="ð" />
<glyph horiz-adv-x="449" d="M 58 0 L 58 0 Z M 393 0 L 329 0 L 329 345 C 329 373 320 395 303 411 C 285 427 263 435 235 435 C 206 435 180 426 157 408 C 133 390 122 359 122 315 L 122 0 L 58 0 L 58 482 L 116 482 L 116 397 C 124 424 141 446 165 464 C 189 481 220 490 258 490 C 297 490 329 479 355 458 C 380 436 393 405 393 365 L 393 0 Z M 228 552 L 228 552 Z M 327 680 L 376 680 C 376 636 370 604 358 583 C 346 562 330 552 311 552 C 293 552 278 556 265 565 C 252 574 240 583 230 592 C 220 600 210 609 200 617 C 190 625 179 630 169 630 C 159 630 150 623 143 611 C 135 598 131 580 131 557 L 82 557 C 82 599 89 631 105 653 C 120 674 137 685 156 685 C 171 685 185 680 198 671 C 210 662 222 653 233 643 C 242 634 251 626 261 618 C 271 610 281 607 291 607 C 300 607 308 613 316 626 C 323 638 327 656 327 680 Z" unicode="ñ" />
<glyph horiz-adv-x="448" d="M 28 0 L 28 0 Z M 224 -7 C 196 -7 171 -1 147 9 C 123 20 103 36 85 57 C 67 78 53 104 43 135 C 33 165 28 200 28 239 C 28 275 32 309 42 340 C 52 371 65 398 82 420 C 99 442 119 459 143 471 C 167 483 192 490 220 490 C 278 490 325 468 363 425 C 401 381 420 324 420 252 C 420 214 415 179 406 147 C 396 115 383 88 366 65 C 348 42 328 24 304 12 C 280 0 253 -7 224 -7 Z M 225 48 C 264 48 295 65 318 101 C 341 136 353 184 353 244 C 353 304 341 350 317 384 C 293 417 261 434 220 434 C 183 434 153 417 130 383 C 107 349 96 302 96 243 C 96 178 108 129 132 97 C 156 64 187 48 225 48 Z M 223 543 L 223 543 Z M 305 543 L 241 543 L 141 712 L 215 712 L 305 543 Z" unicode="ò" />
<glyph horiz-adv-x="448" d="M 28 0 L 28 0 Z M 224 -7 C 196 -7 171 -1 147 9 C 123 20 103 36 85 57 C 67 78 53 104 43 135 C 33 165 28 200 28 239 C 28 275 32 309 42 340 C 52 371 65 398 82 420 C 99 442 119 459 143 471 C 167 483 192 490 220 490 C 278 490 325 468 363 425 C 401 381 420 324 420 252 C 420 214 415 179 406 147 C 396 115 383 88 366 65 C 348 42 328 24 304 12 C 280 0 253 -7 224 -7 Z M 225 48 C 264 48 295 65 318 101 C 341 136 353 184 353 244 C 353 304 341 350 317 384 C 293 417 261 434 220 434 C 183 434 153 417 130 383 C 107 349 96 302 96 243 C 96 178 108 129 132 97 C 156 64 187 48 225 48 Z M 223 544 L 223 544 Z M 142 544 L 231 713 L 305 713 L 205 544 L 142 544 Z" unicode="ó" />
<glyph horiz-adv-x="448" d="M 28 0 L 28 0 Z M 224 -7 C 196 -7 171 -1 147 9 C 123 20 103 36 85 57 C 67 78 53 104 43 135 C 33 165 28 200 28 239 C 28 275 32 309 42 340 C 52 371 65 398 82 420 C 99 442 119 459 143 471 C 167 483 192 490 220 490 C 278 490 325 468 363 425 C 401 381 420 324 420 252 C 420 214 415 179 406 147 C 396 115 383 88 366 65 C 348 42 328 24 304 12 C 280 0 253 -7 224 -7 Z M 225 48 C 264 48 295 65 318 101 C 341 136 353 184 353 244 C 353 304 341 350 317 384 C 293 417 261 434 220 434 C 183 434 153 417 130 383 C 107 349 96 302 96 243 C 96 178 108 129 132 97 C 156 64 187 48 225 48 Z M 223 544 L 223 544 Z M 358 544 L 300 544 L 223 669 L 144 544 L 89 544 L 194 714 L 253 714 L 358 544 Z" unicode="ô" />
<glyph horiz-adv-x="448" d="M 28 0 L 28 0 Z M 224 -7 C 196 -7 171 -1 147 9 C 123 20 103 36 85 57 C 67 78 53 104 43 135 C 33 165 28 200 28 239 C 28 275 32 309 42 340 C 52 371 65 398 82 420 C 99 442 119 459 143 471 C 167 483 192 490 220 490 C 278 490 325 468 363 425 C 401 381 420 324 420 252 C 420 214 415 179 406 147 C 396 115 383 88 366 65 C 348 42 328 24 304 12 C 280 0 253 -7 224 -7 Z M 225 48 C 264 48 295 65 318 101 C 341 136 353 184 353 244 C 353 304 341 350 317 384 C 293 417 261 434 220 434 C 183 434 153 417 130 383 C 107 349 96 302 96 243 C 96 178 108 129 132 97 C 156 64 187 48 225 48 Z M 223 552 L 223 552 Z M 322 680 L 371 680 C 371 636 365 604 353 583 C 341 562 325 552 306 552 C 288 552 273 556 260 565 C 247 574 235 583 225 592 C 215 600 205 609 195 617 C 185 625 174 630 164 630 C 154 630 145 623 138 611 C 130 598 126 580 126 557 L 77 557 C 77 599 84 631 100 653 C 115 674 132 685 151 685 C 166 685 180 680 193 671 C 205 662 217 653 228 643 C 237 634 246 626 256 618 C 266 610 276 607 286 607 C 295 607 303 613 311 626 C 318 638 322 656 322 680 Z" unicode="õ" />
<glyph horiz-adv-x="448" d="M 28 0 L 28 0 Z M 224 -7 C 196 -7 171 -1 147 9 C 123 20 103 36 85 57 C 67 78 53 104 43 135 C 33 165 28 200 28 239 C 28 275 32 309 42 340 C 52 371 65 398 82 420 C 99 442 119 459 143 471 C 167 483 192 490 220 490 C 278 490 325 468 363 425 C 401 381 420 324 420 252 C 420 214 415 179 406 147 C 396 115 383 88 366 65 C 348 42 328 24 304 12 C 280 0 253 -7 224 -7 Z M 225 48 C 264 48 295 65 318 101 C 341 136 353 184 353 244 C 353 304 341 350 317 384 C 293 417 261 434 220 434 C 183 434 153 417 130 383 C 107 349 96 302 96 243 C 96 178 108 129 132 97 C 156 64 187 48 225 48 Z M 223 545 L 223 545 Z M 326 545 L 273 545 L 273 700 L 326 700 L 326 545 Z M 173 545 L 120 545 L 120 700 L 173 700 L 173 545 Z" unicode="ö" />
<glyph horiz-adv-x="494" d="M 216 447 L 216 555 L 278 555 L 278 447 L 216 447 Z M 28 303 L 28 359 L 465 359 L 465 303 L 28 303 Z M 216 106 L 216 214 L 278 214 L 278 106 L 216 106 Z" unicode="÷" />
<glyph horiz-adv-x="448" d="M 420 252 C 420 214 415 179 406 147 C 396 115 383 88 366 65 C 348 42 328 24 304 12 C 280 0 253 -7 224 -7 C 199 -7 176 -2 154 6 C 132 15 113 28 97 45 L 63 0 L 36 23 L 74 73 C 59 93 48 118 40 146 C 32 174 28 205 28 239 C 28 275 32 309 42 340 C 52 371 65 398 82 420 C 99 442 119 459 143 471 C 167 483 192 490 220 490 C 246 490 270 485 292 477 C 314 468 334 455 351 439 L 385 483 L 412 461 L 375 412 C 389 391 400 367 408 341 C 416 314 420 284 420 252 Z M 96 243 C 96 219 97 198 101 179 C 104 159 109 142 116 128 L 314 389 C 302 403 289 414 273 422 C 257 430 239 434 220 434 C 183 434 153 417 130 383 C 107 349 96 302 96 243 Z M 353 244 C 353 266 351 287 348 306 C 344 325 339 342 333 357 L 134 94 C 145 78 158 67 174 59 C 190 51 207 48 225 48 C 264 48 295 65 318 101 C 341 136 353 184 353 244 Z" unicode="ø" />
<glyph horiz-adv-x="449" d="M 56 0 L 56 0 Z M 56 482 L 120 482 L 120 149 C 120 113 129 86 147 70 C 165 53 189 45 219 45 C 247 45 272 54 294 73 C 316 92 327 124 327 168 L 327 482 L 391 482 L 391 0 L 331 0 L 331 83 C 323 57 307 36 283 19 C 259 1 230 -7 194 -7 C 156 -7 123 4 96 27 C 69 49 56 84 56 132 L 56 482 Z M 223 543 L 223 543 Z M 305 543 L 241 543 L 141 712 L 215 712 L 305 543 Z" unicode="ù" />
<glyph horiz-adv-x="449" d="M 56 0 L 56 0 Z M 56 482 L 120 482 L 120 149 C 120 113 129 86 147 70 C 165 53 189 45 219 45 C 247 45 272 54 294 73 C 316 92 327 124 327 168 L 327 482 L 391 482 L 391 0 L 331 0 L 331 83 C 323 57 307 36 283 19 C 259 1 230 -7 194 -7 C 156 -7 123 4 96 27 C 69 49 56 84 56 132 L 56 482 Z M 223 544 L 223 544 Z M 142 544 L 231 713 L 305 713 L 205 544 L 142 544 Z" unicode="ú" />
<glyph horiz-adv-x="449" d="M 56 0 L 56 0 Z M 56 482 L 120 482 L 120 149 C 120 113 129 86 147 70 C 165 53 189 45 219 45 C 247 45 272 54 294 73 C 316 92 327 124 327 168 L 327 482 L 391 482 L 391 0 L 331 0 L 331 83 C 323 57 307 36 283 19 C 259 1 230 -7 194 -7 C 156 -7 123 4 96 27 C 69 49 56 84 56 132 L 56 482 Z M 223 544 L 223 544 Z M 358 544 L 300 544 L 223 669 L 144 544 L 89 544 L 194 714 L 253 714 L 358 544 Z" unicode="û" />
<glyph horiz-adv-x="449" d="M 56 0 L 56 0 Z M 56 482 L 120 482 L 120 149 C 120 113 129 86 147 70 C 165 53 189 45 219 45 C 247 45 272 54 294 73 C 316 92 327 124 327 168 L 327 482 L 391 482 L 391 0 L 331 0 L 331 83 C 323 57 307 36 283 19 C 259 1 230 -7 194 -7 C 156 -7 123 4 96 27 C 69 49 56 84 56 132 L 56 482 Z M 223 545 L 223 545 Z M 326 545 L 273 545 L 273 700 L 326 700 L 326 545 Z M 173 545 L 120 545 L 120 700 L 173 700 L 173 545 Z" unicode="ü" />
<glyph horiz-adv-x="374" d="M 0 0 L 0 0 Z M 374 482 L 175 -102 C 161 -137 144 -162 122 -177 C 100 -192 77 -200 55 -200 C 39 -200 26 -198 16 -195 C 5 -192 -2 -189 -7 -187 L 15 -133 C 17 -135 22 -137 30 -139 C 38 -141 46 -143 55 -143 C 67 -143 79 -137 92 -127 C 104 -116 115 -99 124 -76 L 159 33 L -1 482 L 67 482 L 191 116 L 311 482 L 374 482 Z M 189 544 L 189 544 Z M 108 544 L 197 713 L 271 713 L 171 544 L 108 544 Z" unicode="ý" />
<glyph horiz-adv-x="459" d="M 58 -199 L 58 778 L 119 778 L 119 370 C 126 402 142 429 167 453 C 192 477 224 489 264 489 C 291 489 315 483 336 471 C 356 459 374 442 388 422 C 402 401 412 376 419 347 C 426 318 430 287 430 253 C 430 173 414 110 382 64 C 350 18 309 -5 259 -5 C 222 -5 192 4 168 24 C 144 43 128 66 120 93 L 120 -199 L 58 -199 Z M 239 46 C 276 46 306 63 329 97 C 351 131 363 178 363 240 C 363 296 353 342 333 379 C 313 415 282 434 241 434 C 208 434 179 418 154 388 C 129 358 117 306 117 233 C 117 163 129 115 153 87 C 177 59 206 46 239 46 Z" unicode="þ" />
<glyph horiz-adv-x="374" d="M 0 0 L 0 0 Z M 374 482 L 175 -102 C 161 -137 144 -162 122 -177 C 100 -192 77 -200 55 -200 C 39 -200 26 -198 16 -195 C 5 -192 -2 -189 -7 -187 L 15 -133 C 17 -135 22 -137 30 -139 C 38 -141 46 -143 55 -143 C 67 -143 79 -137 92 -127 C 104 -116 115 -99 124 -76 L 159 33 L -1 482 L 67 482 L 191 116 L 311 482 L 374 482 Z M 189 545 L 189 545 Z M 292 545 L 239 545 L 239 700 L 292 700 L 292 545 Z M 139 545 L 86 545 L 86 700 L 139 700 L 139 545 Z" unicode="ÿ" />
<glyph horiz-adv-x="526" d="M 4 0 L 4 0 Z M 521 0 L 452 0 L 384 210 L 136 210 L 71 0 L 4 0 L 239 734 L 286 734 L 521 0 Z M 371 265 L 260 614 L 150 265 L 371 265 Z M 261 819 L 261 819 Z M 379 819 L 143 819 L 143 871 L 379 871 L 379 819 Z" unicode="Ā" />
<glyph horiz-adv-x="414" d="M 27 0 L 27 0 Z M 360 0 L 302 0 L 302 60 C 288 41 269 25 246 13 C 223 0 195 -6 163 -6 C 123 -6 91 6 65 31 C 39 56 27 92 27 139 C 27 191 43 229 77 254 C 110 279 151 293 200 296 L 298 304 L 298 339 C 298 372 289 397 272 413 C 254 429 230 437 199 437 C 172 437 149 432 129 423 C 109 414 94 404 82 394 L 60 441 C 75 455 95 467 121 477 C 146 487 176 492 212 492 C 255 492 290 480 318 456 C 346 432 360 396 360 348 L 360 0 Z M 300 104 L 300 256 L 208 250 C 175 247 147 237 124 220 C 101 202 90 176 90 140 C 90 108 99 84 118 68 C 137 52 159 45 185 45 C 211 45 234 51 254 63 C 274 75 289 88 300 104 Z M 202 571 L 202 571 Z M 320 571 L 84 571 L 84 623 L 320 623 L 320 571 Z" unicode="ā" />
<glyph horiz-adv-x="526" d="M 4 0 L 4 0 Z M 521 0 L 452 0 L 384 210 L 136 210 L 71 0 L 4 0 L 239 734 L 286 734 L 521 0 Z M 371 265 L 260 614 L 150 265 L 371 265 Z M 261 799 L 261 799 Z M 335 955 L 390 955 C 386 901 373 861 349 836 C 325 811 296 799 261 799 C 225 799 196 811 173 836 C 149 861 136 901 133 955 L 187 955 C 189 923 196 896 207 876 C 218 856 236 846 261 846 C 285 846 303 855 315 875 C 326 895 333 921 335 955 Z" unicode="Ă" />
<glyph horiz-adv-x="414" d="M 27 0 L 27 0 Z M 360 0 L 302 0 L 302 60 C 288 41 269 25 246 13 C 223 0 195 -6 163 -6 C 123 -6 91 6 65 31 C 39 56 27 92 27 139 C 27 191 43 229 77 254 C 110 279 151 293 200 296 L 298 304 L 298 339 C 298 372 289 397 272 413 C 254 429 230 437 199 437 C 172 437 149 432 129 423 C 109 414 94 404 82 394 L 60 441 C 75 455 95 467 121 477 C 146 487 176 492 212 492 C 255 492 290 480 318 456 C 346 432 360 396 360 348 L 360 0 Z M 300 104 L 300 256 L 208 250 C 175 247 147 237 124 220 C 101 202 90 176 90 140 C 90 108 99 84 118 68 C 137 52 159 45 185 45 C 211 45 234 51 254 63 C 274 75 289 88 300 104 Z M 202 551 L 202 551 Z M 276 707 L 331 707 C 327 653 314 613 290 588 C 266 563 237 551 202 551 C 166 551 137 563 114 588 C 90 613 77 653 74 707 L 128 707 C 130 675 137 648 148 628 C 159 608 177 598 202 598 C 226 598 244 607 256 627 C 267 647 274 673 276 707 Z" unicode="ă" />
<glyph horiz-adv-x="526" d="M 4 0 L 4 0 Z M 521 0 L 452 0 L 384 210 L 136 210 L 71 0 L 4 0 L 239 734 L 286 734 L 521 0 Z M 371 265 L 260 614 L 150 265 L 371 265 Z M 449 -10 L 449 -10 Z M 552 -110 L 571 -137 C 552 -156 531 -171 508 -181 C 484 -191 458 -197 430 -197 C 399 -197 375 -189 357 -175 C 339 -161 331 -142 331 -120 C 331 -96 341 -73 361 -52 C 381 -30 413 -12 455 3 L 492 2 C 458 -12 432 -28 414 -44 C 395 -60 386 -77 386 -95 C 386 -111 392 -124 404 -134 C 416 -143 431 -148 450 -148 C 470 -148 489 -144 507 -137 C 525 -130 540 -121 552 -110 Z" unicode="Ą" />
<glyph horiz-adv-x="414" d="M 27 0 L 27 0 Z M 360 0 L 302 0 L 302 60 C 288 41 269 25 246 13 C 223 0 195 -6 163 -6 C 123 -6 91 6 65 31 C 39 56 27 92 27 139 C 27 191 43 229 77 254 C 110 279 151 293 200 296 L 298 304 L 298 339 C 298 372 289 397 272 413 C 254 429 230 437 199 437 C 172 437 149 432 129 423 C 109 414 94 404 82 394 L 60 441 C 75 455 95 467 121 477 C 146 487 176 492 212 492 C 255 492 290 480 318 456 C 346 432 360 396 360 348 L 360 0 Z M 300 104 L 300 256 L 208 250 C 175 247 147 237 124 220 C 101 202 90 176 90 140 C 90 108 99 84 118 68 C 137 52 159 45 185 45 C 211 45 234 51 254 63 C 274 75 289 88 300 104 Z M 301 -10 L 301 -10 Z M 404 -110 L 423 -137 C 404 -156 383 -171 360 -181 C 336 -191 310 -197 282 -197 C 251 -197 227 -189 209 -175 C 191 -161 183 -142 183 -120 C 183 -96 193 -73 213 -52 C 233 -30 265 -12 307 3 L 344 2 C 310 -12 284 -28 266 -44 C 247 -60 238 -77 238 -95 C 238 -111 244 -124 256 -134 C 268 -143 283 -148 302 -148 C 322 -148 341 -144 359 -137 C 377 -130 392 -121 404 -110 Z" unicode="ą" />
<glyph horiz-adv-x="572" d="M 43 0 L 43 0 Z M 320 -9 C 282 -9 246 -1 212 15 C 178 31 149 54 124 86 C 99 117 79 156 65 203 C 50 249 43 303 43 365 C 43 423 49 475 62 521 C 75 567 94 607 118 639 C 142 671 171 695 205 713 C 239 730 278 739 320 739 C 378 739 425 726 459 702 C 493 678 520 647 539 609 L 482 577 C 466 605 445 628 421 647 C 396 666 363 676 321 676 C 257 676 206 649 169 597 C 132 544 114 466 114 362 C 114 308 120 262 132 223 C 144 183 159 151 179 126 C 199 101 221 83 247 71 C 272 59 298 53 325 53 C 369 53 404 63 432 84 C 459 105 481 132 498 166 L 552 136 C 531 92 501 57 463 31 C 424 4 376 -9 320 -9 Z M 320 792 L 320 792 Z M 239 792 L 328 961 L 402 961 L 302 792 L 239 792 Z" unicode="Ć" />
<glyph horiz-adv-x="397" d="M 28 0 L 28 0 Z M 340 123 L 383 89 C 377 78 369 67 360 56 C 351 44 340 34 328 25 C 316 15 301 8 285 2 C 268 -4 248 -7 226 -7 C 195 -7 167 0 143 11 C 118 23 97 40 80 62 C 63 84 50 110 41 140 C 32 170 28 204 28 240 C 28 273 32 305 41 335 C 50 365 63 392 81 415 C 98 437 119 455 144 469 C 168 482 196 489 227 489 C 269 489 303 478 329 457 C 355 436 373 414 384 391 L 336 357 C 326 376 312 393 295 409 C 278 425 255 433 226 433 C 206 433 187 428 171 418 C 155 408 141 395 130 378 C 118 360 110 340 104 317 C 98 293 95 268 95 242 C 95 182 107 134 132 100 C 156 65 189 48 231 48 C 263 48 287 56 303 74 C 319 91 331 107 340 123 Z M 221 544 L 221 544 Z M 140 544 L 229 713 L 303 713 L 203 544 L 140 544 Z" unicode="ć" />
<glyph horiz-adv-x="572" d="M 43 0 L 43 0 Z M 320 -9 C 282 -9 246 -1 212 15 C 178 31 149 54 124 86 C 99 117 79 156 65 203 C 50 249 43 303 43 365 C 43 423 49 475 62 521 C 75 567 94 607 118 639 C 142 671 171 695 205 713 C 239 730 278 739 320 739 C 378 739 425 726 459 702 C 493 678 520 647 539 609 L 482 577 C 466 605 445 628 421 647 C 396 666 363 676 321 676 C 257 676 206 649 169 597 C 132 544 114 466 114 362 C 114 308 120 262 132 223 C 144 183 159 151 179 126 C 199 101 221 83 247 71 C 272 59 298 53 325 53 C 369 53 404 63 432 84 C 459 105 481 132 498 166 L 552 136 C 531 92 501 57 463 31 C 424 4 376 -9 320 -9 Z M 320 792 L 320 792 Z M 455 792 L 397 792 L 320 917 L 241 792 L 186 792 L 291 962 L 350 962 L 455 792 Z" unicode="Ĉ" />
<glyph horiz-adv-x="397" d="M 28 0 L 28 0 Z M 340 123 L 383 89 C 377 78 369 67 360 56 C 351 44 340 34 328 25 C 316 15 301 8 285 2 C 268 -4 248 -7 226 -7 C 195 -7 167 0 143 11 C 118 23 97 40 80 62 C 63 84 50 110 41 140 C 32 170 28 204 28 240 C 28 273 32 305 41 335 C 50 365 63 392 81 415 C 98 437 119 455 144 469 C 168 482 196 489 227 489 C 269 489 303 478 329 457 C 355 436 373 414 384 391 L 336 357 C 326 376 312 393 295 409 C 278 425 255 433 226 433 C 206 433 187 428 171 418 C 155 408 141 395 130 378 C 118 360 110 340 104 317 C 98 293 95 268 95 242 C 95 182 107 134 132 100 C 156 65 189 48 231 48 C 263 48 287 56 303 74 C 319 91 331 107 340 123 Z M 221 544 L 221 544 Z M 356 544 L 298 544 L 221 669 L 142 544 L 87 544 L 192 714 L 251 714 L 356 544 Z" unicode="ĉ" />
<glyph horiz-adv-x="572" d="M 43 0 L 43 0 Z M 320 -9 C 282 -9 246 -1 212 15 C 178 31 149 54 124 86 C 99 117 79 156 65 203 C 50 249 43 303 43 365 C 43 423 49 475 62 521 C 75 567 94 607 118 639 C 142 671 171 695 205 713 C 239 730 278 739 320 739 C 378 739 425 726 459 702 C 493 678 520 647 539 609 L 482 577 C 466 605 445 628 421 647 C 396 666 363 676 321 676 C 257 676 206 649 169 597 C 132 544 114 466 114 362 C 114 308 120 262 132 223 C 144 183 159 151 179 126 C 199 101 221 83 247 71 C 272 59 298 53 325 53 C 369 53 404 63 432 84 C 459 105 481 132 498 166 L 552 136 C 531 92 501 57 463 31 C 424 4 376 -9 320 -9 Z M 320 800 L 320 800 Z M 350 800 L 290 800 L 290 925 L 350 925 L 350 800 Z" unicode="Ċ" />
<glyph horiz-adv-x="397" d="M 28 0 L 28 0 Z M 340 123 L 383 89 C 377 78 369 67 360 56 C 351 44 340 34 328 25 C 316 15 301 8 285 2 C 268 -4 248 -7 226 -7 C 195 -7 167 0 143 11 C 118 23 97 40 80 62 C 63 84 50 110 41 140 C 32 170 28 204 28 240 C 28 273 32 305 41 335 C 50 365 63 392 81 415 C 98 437 119 455 144 469 C 168 482 196 489 227 489 C 269 489 303 478 329 457 C 355 436 373 414 384 391 L 336 357 C 326 376 312 393 295 409 C 278 425 255 433 226 433 C 206 433 187 428 171 418 C 155 408 141 395 130 378 C 118 360 110 340 104 317 C 98 293 95 268 95 242 C 95 182 107 134 132 100 C 156 65 189 48 231 48 C 263 48 287 56 303 74 C 319 91 331 107 340 123 Z M 221 552 L 221 552 Z M 251 552 L 191 552 L 191 677 L 251 677 L 251 552 Z" unicode="ċ" />
<glyph horiz-adv-x="572" d="M 43 0 L 43 0 Z M 320 -9 C 282 -9 246 -1 212 15 C 178 31 149 54 124 86 C 99 117 79 156 65 203 C 50 249 43 303 43 365 C 43 423 49 475 62 521 C 75 567 94 607 118 639 C 142 671 171 695 205 713 C 239 730 278 739 320 739 C 378 739 425 726 459 702 C 493 678 520 647 539 609 L 482 577 C 466 605 445 628 421 647 C 396 666 363 676 321 676 C 257 676 206 649 169 597 C 132 544 114 466 114 362 C 114 308 120 262 132 223 C 144 183 159 151 179 126 C 199 101 221 83 247 71 C 272 59 298 53 325 53 C 369 53 404 63 432 84 C 459 105 481 132 498 166 L 552 136 C 531 92 501 57 463 31 C 424 4 376 -9 320 -9 Z M 320 792 L 320 792 Z M 186 962 L 243 962 L 321 837 L 399 962 L 455 962 L 350 792 L 291 792 L 186 962 Z" unicode="Č" />
<glyph horiz-adv-x="397" d="M 28 0 L 28 0 Z M 340 123 L 383 89 C 377 78 369 67 360 56 C 351 44 340 34 328 25 C 316 15 301 8 285 2 C 268 -4 248 -7 226 -7 C 195 -7 167 0 143 11 C 118 23 97 40 80 62 C 63 84 50 110 41 140 C 32 170 28 204 28 240 C 28 273 32 305 41 335 C 50 365 63 392 81 415 C 98 437 119 455 144 469 C 168 482 196 489 227 489 C 269 489 303 478 329 457 C 355 436 373 414 384 391 L 336 357 C 326 376 312 393 295 409 C 278 425 255 433 226 433 C 206 433 187 428 171 418 C 155 408 141 395 130 378 C 118 360 110 340 104 317 C 98 293 95 268 95 242 C 95 182 107 134 132 100 C 156 65 189 48 231 48 C 263 48 287 56 303 74 C 319 91 331 107 340 123 Z M 221 544 L 221 544 Z M 87 714 L 144 714 L 222 589 L 300 714 L 356 714 L 251 544 L 192 544 L 87 714 Z" unicode="č" />
<glyph horiz-adv-x="603" d="M 80 0 L 80 0 Z M 80 0 L 80 730 L 244 730 C 294 730 338 721 378 704 C 417 687 450 663 477 632 C 503 601 524 563 538 519 C 552 475 560 426 560 372 C 560 320 553 271 539 225 C 525 179 505 140 478 107 C 451 73 417 47 376 28 C 335 9 288 0 234 0 L 80 0 Z M 149 59 L 231 59 C 276 59 315 66 347 82 C 379 97 406 118 427 146 C 447 174 463 207 473 245 C 483 283 488 324 488 370 C 488 466 466 540 423 592 C 379 644 319 670 243 670 L 149 670 L 149 59 Z M 279 792 L 279 792 Z M 145 962 L 202 962 L 280 837 L 358 962 L 414 962 L 309 792 L 250 792 L 145 962 Z" unicode="Ď" />
<glyph horiz-adv-x="469" d="M 29 0 L 29 0 Z M 206 -6 C 179 -6 155 0 133 12 C 111 24 92 41 77 63 C 61 85 49 110 41 140 C 33 170 29 202 29 237 C 29 312 46 373 80 419 C 114 465 156 489 208 489 C 244 489 275 477 300 454 C 324 430 341 403 349 372 L 349 778 L 411 778 L 411 0 L 352 0 L 352 110 C 348 96 343 83 335 69 C 327 55 318 42 306 31 C 294 20 279 11 263 4 C 246 -2 227 -6 206 -6 Z M 224 46 C 260 46 291 63 315 99 C 339 135 351 184 351 246 C 351 308 338 355 312 387 C 286 418 256 434 222 434 C 184 434 153 416 130 382 C 107 348 96 301 96 241 C 96 183 107 136 130 100 C 152 64 184 46 224 46 Z M 528 620 L 524 490 L 470 490 L 466 620 L 466 730 L 528 730 L 528 620 Z" unicode="ď" />
<glyph horiz-adv-x="603" d="M 27 0 L 27 0 Z M 560 365 C 560 314 553 266 539 222 C 525 178 505 139 478 106 C 451 73 417 47 376 28 C 335 9 288 0 234 0 L 80 0 L 80 335 L 27 335 L 27 388 L 80 388 L 80 730 L 244 730 C 294 730 338 721 378 704 C 417 687 450 663 477 631 C 504 599 525 561 539 516 C 553 471 560 421 560 365 Z M 149 55 L 228 55 C 274 55 314 63 348 79 C 381 95 408 116 429 144 C 449 171 464 203 474 241 C 484 279 489 319 489 363 C 489 463 467 540 423 594 C 379 647 319 674 243 674 L 149 674 L 149 388 L 324 388 L 324 335 L 149 335 L 149 55 Z" unicode="Đ" />
<glyph horiz-adv-x="469" d="M 352 110 C 348 96 343 83 335 69 C 327 55 318 42 306 31 C 294 20 279 11 263 4 C 246 -2 227 -6 206 -6 C 179 -6 155 0 133 12 C 111 24 92 41 77 63 C 61 85 49 110 41 140 C 33 170 29 202 29 237 C 29 312 46 373 80 419 C 114 465 156 489 208 489 C 244 489 275 477 300 454 C 324 430 341 403 349 372 L 349 602 L 227 602 L 227 658 L 349 658 L 349 778 L 411 778 L 411 658 L 464 658 L 464 602 L 411 602 L 411 0 L 352 0 L 352 110 Z M 224 46 C 260 46 291 63 315 99 C 339 135 351 184 351 246 C 351 308 338 355 312 387 C 286 418 256 434 222 434 C 184 434 153 416 130 382 C 107 348 96 301 96 241 C 96 183 107 136 130 100 C 152 64 184 46 224 46 Z" unicode="đ" />
<glyph horiz-adv-x="448" d="M 80 0 L 80 0 Z M 419 0 L 80 0 L 80 730 L 402 730 L 402 668 L 148 668 L 148 394 L 393 394 L 393 333 L 148 333 L 148 62 L 419 62 L 419 0 Z M 243 819 L 243 819 Z M 361 819 L 125 819 L 125 871 L 361 871 L 361 819 Z" unicode="Ē" />
<glyph horiz-adv-x="433" d="M 29 0 L 29 0 Z M 226 -7 C 168 -7 120 15 84 59 C 47 103 29 164 29 240 C 29 276 33 310 43 341 C 53 371 66 397 83 419 C 100 441 120 458 144 470 C 167 482 192 489 220 489 C 278 489 323 465 357 419 C 391 373 408 309 408 227 L 92 227 C 92 171 105 127 130 95 C 155 63 188 47 230 47 C 264 47 291 54 311 68 C 330 82 346 97 359 114 L 394 78 C 378 57 358 38 332 20 C 306 2 271 -7 226 -7 Z M 93 273 L 345 273 C 344 321 332 360 310 391 C 288 421 258 437 222 437 C 184 437 153 421 131 391 C 108 360 95 321 93 273 Z M 220 571 L 220 571 Z M 338 571 L 102 571 L 102 623 L 338 623 L 338 571 Z" unicode="ē" />
<glyph horiz-adv-x="448" d="M 80 0 L 80 0 Z M 419 0 L 80 0 L 80 730 L 402 730 L 402 668 L 148 668 L 148 394 L 393 394 L 393 333 L 148 333 L 148 62 L 419 62 L 419 0 Z M 243 799 L 243 799 Z M 317 955 L 372 955 C 368 901 355 861 331 836 C 307 811 278 799 243 799 C 207 799 178 811 155 836 C 131 861 118 901 115 955 L 169 955 C 171 923 178 896 189 876 C 200 856 218 846 243 846 C 267 846 285 855 297 875 C 308 895 315 921 317 955 Z" unicode="Ĕ" />
<glyph horiz-adv-x="433" d="M 29 0 L 29 0 Z M 226 -7 C 168 -7 120 15 84 59 C 47 103 29 164 29 240 C 29 276 33 310 43 341 C 53 371 66 397 83 419 C 100 441 120 458 144 470 C 167 482 192 489 220 489 C 278 489 323 465 357 419 C 391 373 408 309 408 227 L 92 227 C 92 171 105 127 130 95 C 155 63 188 47 230 47 C 264 47 291 54 311 68 C 330 82 346 97 359 114 L 394 78 C 378 57 358 38 332 20 C 306 2 271 -7 226 -7 Z M 93 273 L 345 273 C 344 321 332 360 310 391 C 288 421 258 437 222 437 C 184 437 153 421 131 391 C 108 360 95 321 93 273 Z M 220 551 L 220 551 Z M 294 707 L 349 707 C 345 653 332 613 308 588 C 284 563 255 551 220 551 C 184 551 155 563 132 588 C 108 613 95 653 92 707 L 146 707 C 148 675 155 648 166 628 C 177 608 195 598 220 598 C 244 598 262 607 274 627 C 285 647 292 673 294 707 Z" unicode="ĕ" />
<glyph horiz-adv-x="448" d="M 80 0 L 80 0 Z M 419 0 L 80 0 L 80 730 L 402 730 L 402 668 L 148 668 L 148 394 L 393 394 L 393 333 L 148 333 L 148 62 L 419 62 L 419 0 Z M 243 800 L 243 800 Z M 273 800 L 213 800 L 213 925 L 273 925 L 273 800 Z" unicode="Ė" />
<glyph horiz-adv-x="433" d="M 29 0 L 29 0 Z M 226 -7 C 168 -7 120 15 84 59 C 47 103 29 164 29 240 C 29 276 33 310 43 341 C 53 371 66 397 83 419 C 100 441 120 458 144 470 C 167 482 192 489 220 489 C 278 489 323 465 357 419 C 391 373 408 309 408 227 L 92 227 C 92 171 105 127 130 95 C 155 63 188 47 230 47 C 264 47 291 54 311 68 C 330 82 346 97 359 114 L 394 78 C 378 57 358 38 332 20 C 306 2 271 -7 226 -7 Z M 93 273 L 345 273 C 344 321 332 360 310 391 C 288 421 258 437 222 437 C 184 437 153 421 131 391 C 108 360 95 321 93 273 Z M 220 552 L 220 552 Z M 250 552 L 190 552 L 190 677 L 250 677 L 250 552 Z" unicode="ė" />
<glyph horiz-adv-x="448" d="M 80 0 L 80 0 Z M 419 0 L 80 0 L 80 730 L 402 730 L 402 668 L 148 668 L 148 394 L 393 394 L 393 333 L 148 333 L 148 62 L 419 62 L 419 0 Z M 376 -10 L 376 -10 Z M 479 -110 L 498 -137 C 479 -156 458 -171 435 -181 C 411 -191 385 -197 357 -197 C 326 -197 302 -189 284 -175 C 266 -161 258 -142 258 -120 C 258 -96 268 -73 288 -52 C 308 -30 340 -12 382 3 L 419 2 C 385 -12 359 -28 341 -44 C 322 -60 313 -77 313 -95 C 313 -111 319 -124 331 -134 C 343 -143 358 -148 377 -148 C 397 -148 416 -144 434 -137 C 452 -130 467 -121 479 -110 Z" unicode="Ę" />
<glyph horiz-adv-x="433" d="M 29 0 L 29 0 Z M 226 -7 C 168 -7 120 15 84 59 C 47 103 29 164 29 240 C 29 276 33 310 43 341 C 53 371 66 397 83 419 C 100 441 120 458 144 470 C 167 482 192 489 220 489 C 278 489 323 465 357 419 C 391 373 408 309 408 227 L 92 227 C 92 171 105 127 130 95 C 155 63 188 47 230 47 C 264 47 291 54 311 68 C 330 82 346 97 359 114 L 394 78 C 378 57 358 38 332 20 C 306 2 271 -7 226 -7 Z M 93 273 L 345 273 C 344 321 332 360 310 391 C 288 421 258 437 222 437 C 184 437 153 421 131 391 C 108 360 95 321 93 273 Z M 249 -10 L 249 -10 Z M 352 -110 L 371 -137 C 352 -156 331 -171 308 -181 C 284 -191 258 -197 230 -197 C 199 -197 175 -189 157 -175 C 139 -161 131 -142 131 -120 C 131 -96 141 -73 161 -52 C 181 -30 213 -12 255 3 L 292 2 C 258 -12 232 -28 214 -44 C 195 -60 186 -77 186 -95 C 186 -111 192 -124 204 -134 C 216 -143 231 -148 250 -148 C 270 -148 289 -144 307 -137 C 325 -130 340 -121 352 -110 Z" unicode="ę" />
<glyph horiz-adv-x="448" d="M 80 0 L 80 0 Z M 419 0 L 80 0 L 80 730 L 402 730 L 402 668 L 148 668 L 148 394 L 393 394 L 393 333 L 148 333 L 148 62 L 419 62 L 419 0 Z M 243 792 L 243 792 Z M 109 962 L 166 962 L 244 837 L 322 962 L 378 962 L 273 792 L 214 792 L 109 962 Z" unicode="Ě" />
<glyph horiz-adv-x="433" d="M 29 0 L 29 0 Z M 226 -7 C 168 -7 120 15 84 59 C 47 103 29 164 29 240 C 29 276 33 310 43 341 C 53 371 66 397 83 419 C 100 441 120 458 144 470 C 167 482 192 489 220 489 C 278 489 323 465 357 419 C 391 373 408 309 408 227 L 92 227 C 92 171 105 127 130 95 C 155 63 188 47 230 47 C 264 47 291 54 311 68 C 330 82 346 97 359 114 L 394 78 C 378 57 358 38 332 20 C 306 2 271 -7 226 -7 Z M 93 273 L 345 273 C 344 321 332 360 310 391 C 288 421 258 437 222 437 C 184 437 153 421 131 391 C 108 360 95 321 93 273 Z M 220 544 L 220 544 Z M 86 714 L 143 714 L 221 589 L 299 714 L 355 714 L 250 544 L 191 544 L 86 714 Z" unicode="ě" />
<glyph horiz-adv-x="618" d="M 43 0 L 43 0 Z M 332 352 L 575 352 L 575 129 C 552 86 519 52 477 28 C 435 3 385 -9 327 -9 C 287 -9 250 0 216 17 C 181 35 151 60 126 92 C 100 124 80 164 65 210 C 50 256 43 308 43 365 C 43 421 50 473 64 519 C 78 565 98 605 124 637 C 149 669 179 694 214 712 C 249 729 287 738 329 738 C 387 738 433 726 467 703 C 501 679 528 652 547 621 L 493 583 C 477 608 456 630 430 648 C 404 666 370 675 328 675 C 297 675 268 668 242 654 C 216 640 193 621 174 595 C 154 569 139 536 129 497 C 118 458 113 413 113 363 C 113 314 118 270 130 231 C 141 192 156 159 176 133 C 195 106 218 85 244 71 C 270 57 299 50 330 50 C 371 50 407 58 439 75 C 471 91 495 115 512 147 L 512 292 L 332 292 L 332 352 Z M 325 792 L 325 792 Z M 460 792 L 402 792 L 325 917 L 246 792 L 191 792 L 296 962 L 355 962 L 460 792 Z" unicode="Ĝ" />
<glyph horiz-adv-x="466" d="M 29 0 L 29 0 Z M 208 0 C 154 0 110 22 78 67 C 45 111 29 170 29 242 C 29 317 46 377 80 422 C 114 466 156 489 207 489 C 243 489 273 477 299 455 C 324 432 341 406 350 377 L 350 482 L 409 482 L 409 21 C 409 -16 403 -48 392 -76 C 380 -104 365 -127 347 -145 C 329 -163 308 -176 284 -185 C 260 -193 235 -198 210 -198 C 175 -198 147 -194 127 -188 C 106 -182 90 -175 80 -169 L 102 -119 C 112 -124 126 -129 142 -135 C 158 -140 180 -143 206 -143 C 244 -143 278 -129 306 -101 C 334 -73 348 -33 348 20 L 348 119 C 340 89 323 61 299 37 C 275 12 244 0 208 0 Z M 224 51 C 258 51 287 67 312 100 C 337 133 350 182 350 248 C 350 310 336 356 310 388 C 283 419 253 435 221 435 C 184 435 154 417 131 383 C 107 349 96 302 96 243 C 96 185 107 138 129 103 C 151 68 182 51 224 51 Z M 220 544 L 220 544 Z M 355 544 L 297 544 L 220 669 L 141 544 L 86 544 L 191 714 L 250 714 L 355 544 Z" unicode="ĝ" />
<glyph horiz-adv-x="618" d="M 43 0 L 43 0 Z M 332 352 L 575 352 L 575 129 C 552 86 519 52 477 28 C 435 3 385 -9 327 -9 C 287 -9 250 0 216 17 C 181 35 151 60 126 92 C 100 124 80 164 65 210 C 50 256 43 308 43 365 C 43 421 50 473 64 519 C 78 565 98 605 124 637 C 149 669 179 694 214 712 C 249 729 287 738 329 738 C 387 738 433 726 467 703 C 501 679 528 652 547 621 L 493 583 C 477 608 456 630 430 648 C 404 666 370 675 328 675 C 297 675 268 668 242 654 C 216 640 193 621 174 595 C 154 569 139 536 129 497 C 118 458 113 413 113 363 C 113 314 118 270 130 231 C 141 192 156 159 176 133 C 195 106 218 85 244 71 C 270 57 299 50 330 50 C 371 50 407 58 439 75 C 471 91 495 115 512 147 L 512 292 L 332 292 L 332 352 Z M 325 799 L 325 799 Z M 399 955 L 454 955 C 450 901 437 861 413 836 C 389 811 360 799 325 799 C 289 799 260 811 237 836 C 213 861 200 901 197 955 L 251 955 C 253 923 260 896 271 876 C 282 856 300 846 325 846 C 349 846 367 855 379 875 C 390 895 397 921 399 955 Z" unicode="Ğ" />
<glyph horiz-adv-x="466" d="M 29 0 L 29 0 Z M 208 0 C 154 0 110 22 78 67 C 45 111 29 170 29 242 C 29 317 46 377 80 422 C 114 466 156 489 207 489 C 243 489 273 477 299 455 C 324 432 341 406 350 377 L 350 482 L 409 482 L 409 21 C 409 -16 403 -48 392 -76 C 380 -104 365 -127 347 -145 C 329 -163 308 -176 284 -185 C 260 -193 235 -198 210 -198 C 175 -198 147 -194 127 -188 C 106 -182 90 -175 80 -169 L 102 -119 C 112 -124 126 -129 142 -135 C 158 -140 180 -143 206 -143 C 244 -143 278 -129 306 -101 C 334 -73 348 -33 348 20 L 348 119 C 340 89 323 61 299 37 C 275 12 244 0 208 0 Z M 224 51 C 258 51 287 67 312 100 C 337 133 350 182 350 248 C 350 310 336 356 310 388 C 283 419 253 435 221 435 C 184 435 154 417 131 383 C 107 349 96 302 96 243 C 96 185 107 138 129 103 C 151 68 182 51 224 51 Z M 220 551 L 220 551 Z M 294 707 L 349 707 C 345 653 332 613 308 588 C 284 563 255 551 220 551 C 184 551 155 563 132 588 C 108 613 95 653 92 707 L 146 707 C 148 675 155 648 166 628 C 177 608 195 598 220 598 C 244 598 262 607 274 627 C 285 647 292 673 294 707 Z" unicode="ğ" />
<glyph horiz-adv-x="618" d="M 43 0 L 43 0 Z M 332 352 L 575 352 L 575 129 C 552 86 519 52 477 28 C 435 3 385 -9 327 -9 C 287 -9 250 0 216 17 C 181 35 151 60 126 92 C 100 124 80 164 65 210 C 50 256 43 308 43 365 C 43 421 50 473 64 519 C 78 565 98 605 124 637 C 149 669 179 694 214 712 C 249 729 287 738 329 738 C 387 738 433 726 467 703 C 501 679 528 652 547 621 L 493 583 C 477 608 456 630 430 648 C 404 666 370 675 328 675 C 297 675 268 668 242 654 C 216 640 193 621 174 595 C 154 569 139 536 129 497 C 118 458 113 413 113 363 C 113 314 118 270 130 231 C 141 192 156 159 176 133 C 195 106 218 85 244 71 C 270 57 299 50 330 50 C 371 50 407 58 439 75 C 471 91 495 115 512 147 L 512 292 L 332 292 L 332 352 Z M 325 800 L 325 800 Z M 355 800 L 295 800 L 295 925 L 355 925 L 355 800 Z" unicode="Ġ" />
<glyph horiz-adv-x="466" d="M 29 0 L 29 0 Z M 208 0 C 154 0 110 22 78 67 C 45 111 29 170 29 242 C 29 317 46 377 80 422 C 114 466 156 489 207 489 C 243 489 273 477 299 455 C 324 432 341 406 350 377 L 350 482 L 409 482 L 409 21 C 409 -16 403 -48 392 -76 C 380 -104 365 -127 347 -145 C 329 -163 308 -176 284 -185 C 260 -193 235 -198 210 -198 C 175 -198 147 -194 127 -188 C 106 -182 90 -175 80 -169 L 102 -119 C 112 -124 126 -129 142 -135 C 158 -140 180 -143 206 -143 C 244 -143 278 -129 306 -101 C 334 -73 348 -33 348 20 L 348 119 C 340 89 323 61 299 37 C 275 12 244 0 208 0 Z M 224 51 C 258 51 287 67 312 100 C 337 133 350 182 350 248 C 350 310 336 356 310 388 C 283 419 253 435 221 435 C 184 435 154 417 131 383 C 107 349 96 302 96 243 C 96 185 107 138 129 103 C 151 68 182 51 224 51 Z M 220 552 L 220 552 Z M 250 552 L 190 552 L 190 677 L 250 677 L 250 552 Z" unicode="ġ" />
<glyph horiz-adv-x="618" d="M 43 0 L 43 0 Z M 332 352 L 575 352 L 575 129 C 552 86 519 52 477 28 C 435 3 385 -9 327 -9 C 287 -9 250 0 216 17 C 181 35 151 60 126 92 C 100 124 80 164 65 210 C 50 256 43 308 43 365 C 43 421 50 473 64 519 C 78 565 98 605 124 637 C 149 669 179 694 214 712 C 249 729 287 738 329 738 C 387 738 433 726 467 703 C 501 679 528 652 547 621 L 493 583 C 477 608 456 630 430 648 C 404 666 370 675 328 675 C 297 675 268 668 242 654 C 216 640 193 621 174 595 C 154 569 139 536 129 497 C 118 458 113 413 113 363 C 113 314 118 270 130 231 C 141 192 156 159 176 133 C 195 106 218 85 244 71 C 270 57 299 50 330 50 C 371 50 407 58 439 75 C 471 91 495 115 512 147 L 512 292 L 332 292 L 332 352 Z" unicode="Ģ" />
<glyph horiz-adv-x="466" d="M 29 0 L 29 0 Z M 208 0 C 154 0 110 22 78 67 C 45 111 29 170 29 242 C 29 317 46 377 80 422 C 114 466 156 489 207 489 C 243 489 273 477 299 455 C 324 432 341 406 350 377 L 350 482 L 409 482 L 409 21 C 409 -16 403 -48 392 -76 C 380 -104 365 -127 347 -145 C 329 -163 308 -176 284 -185 C 260 -193 235 -198 210 -198 C 175 -198 147 -194 127 -188 C 106 -182 90 -175 80 -169 L 102 -119 C 112 -124 126 -129 142 -135 C 158 -140 180 -143 206 -143 C 244 -143 278 -129 306 -101 C 334 -73 348 -33 348 20 L 348 119 C 340 89 323 61 299 37 C 275 12 244 0 208 0 Z M 224 51 C 258 51 287 67 312 100 C 337 133 350 182 350 248 C 350 310 336 356 310 388 C 283 419 253 435 221 435 C 184 435 154 417 131 383 C 107 349 96 302 96 243 C 96 185 107 138 129 103 C 151 68 182 51 224 51 Z" unicode="ģ" />
<glyph horiz-adv-x="611" d="M 80 0 L 80 0 Z M 531 0 L 461 0 L 461 330 L 150 330 L 150 0 L 80 0 L 80 730 L 150 730 L 150 392 L 461 392 L 461 730 L 531 730 L 531 0 Z M 305 792 L 305 792 Z M 440 792 L 382 792 L 305 917 L 226 792 L 171 792 L 276 962 L 335 962 L 440 792 Z" unicode="Ĥ" />
<glyph horiz-adv-x="449" d="M 58 0 L 58 0 Z M 393 0 L 329 0 L 329 340 C 329 372 320 395 302 411 C 284 427 262 435 234 435 C 205 435 179 426 156 408 C 133 390 122 359 122 316 L 122 0 L 58 0 L 58 778 L 119 778 L 119 399 C 125 425 140 446 164 464 C 187 481 217 490 255 490 C 295 490 328 479 354 458 C 380 436 393 403 393 357 L 393 0 Z M 234 840 L 234 840 Z M 369 840 L 311 840 L 234 965 L 155 840 L 100 840 L 205 1010 L 264 1010 L 369 840 Z" unicode="ĥ" />
<glyph horiz-adv-x="611" d="M 150 330 L 150 0 L 80 0 L 80 555 L 10 555 L 10 610 L 80 610 L 80 730 L 150 730 L 150 610 L 461 610 L 461 730 L 531 730 L 531 610 L 601 610 L 601 555 L 531 555 L 531 0 L 461 0 L 461 330 L 150 330 Z M 150 392 L 461 392 L 461 555 L 150 555 L 150 392 Z" unicode="Ħ" />
<glyph horiz-adv-x="449" d="M 122 316 L 122 0 L 58 0 L 58 602 L 8 602 L 8 658 L 58 658 L 58 778 L 119 778 L 119 658 L 245 658 L 245 602 L 119 602 L 119 399 C 125 425 140 446 164 464 C 187 481 217 490 255 490 C 295 490 328 479 354 458 C 380 436 393 403 393 357 L 393 0 L 329 0 L 329 340 C 329 372 320 395 302 411 C 284 427 262 435 234 435 C 205 435 179 426 156 408 C 133 390 122 359 122 316 Z" unicode="ħ" />
<glyph horiz-adv-x="238" d="M 0 0 L 0 0 Z M 155 0 L 84 0 L 84 730 L 155 730 L 155 0 Z M 119 800 L 119 800 Z M 218 928 L 267 928 C 267 884 261 852 249 831 C 237 810 221 800 202 800 C 184 800 169 804 156 813 C 143 822 131 831 121 840 C 111 848 101 857 91 865 C 81 873 70 878 60 878 C 50 878 41 871 34 859 C 26 846 22 828 22 805 L -27 805 C -27 847 -19 879 -4 901 C 11 922 28 933 47 933 C 62 933 76 928 89 919 C 101 910 113 901 124 891 C 133 882 142 874 152 866 C 162 858 172 855 182 855 C 191 855 199 861 207 874 C 214 886 218 904 218 928 Z" unicode="Ĩ" />
<glyph horiz-adv-x="187" d="M 0 0 L 0 0 Z M 126 0 L 61 0 L 61 482 L 126 482 L 126 0 Z M 93 552 L 93 552 Z M 192 680 L 241 680 C 241 636 235 604 223 583 C 211 562 195 552 176 552 C 158 552 143 556 130 565 C 117 574 105 583 95 592 C 85 600 75 609 65 617 C 55 625 44 630 34 630 C 24 630 15 623 8 611 C 0 598 -3 580 -4 557 L -53 557 C -53 599 -45 631 -30 653 C -14 674 2 685 21 685 C 36 685 50 680 63 671 C 75 662 87 653 98 643 C 107 634 116 626 126 618 C 136 610 146 607 156 607 C 165 607 173 613 181 626 C 188 638 192 656 192 680 Z" unicode="ĩ" />
<glyph horiz-adv-x="238" d="M 1 0 L 1 0 Z M 155 0 L 84 0 L 84 730 L 155 730 L 155 0 Z M 119 819 L 119 819 Z M 237 819 L 1 819 L 1 871 L 237 871 L 237 819 Z" unicode="Ī" />
<glyph horiz-adv-x="187" d="M 0 0 L 0 0 Z M 126 0 L 61 0 L 61 482 L 126 482 L 126 0 Z M 93 571 L 93 571 Z M 211 571 L -25 571 L -25 623 L 211 623 L 211 571 Z" unicode="ī" />
<glyph horiz-adv-x="238" d="M 0 0 L 0 0 Z M 155 0 L 84 0 L 84 730 L 155 730 L 155 0 Z M 119 799 L 119 799 Z M 193 955 L 248 955 C 244 901 231 861 207 836 C 183 811 154 799 119 799 C 83 799 54 811 31 836 C 7 861 -5 901 -9 955 L 45 955 C 47 923 54 896 65 876 C 76 856 94 846 119 846 C 143 846 161 855 173 875 C 184 895 191 921 193 955 Z" unicode="Ĭ" />
<glyph horiz-adv-x="187" d="M 0 0 L 0 0 Z M 126 0 L 61 0 L 61 482 L 126 482 L 126 0 Z M 93 551 L 93 551 Z M 167 707 L 222 707 C 218 653 205 613 181 588 C 157 563 128 551 93 551 C 57 551 28 563 5 588 C -18 613 -31 653 -35 707 L 19 707 C 21 675 28 648 39 628 C 50 608 68 598 93 598 C 117 598 135 607 147 627 C 158 647 165 673 167 707 Z" unicode="ĭ" />
<glyph horiz-adv-x="238" d="M 0 0 L 0 0 Z M 155 0 L 84 0 L 84 730 L 155 730 L 155 0 Z M 83 -10 L 83 -10 Z M 186 -110 L 205 -137 C 186 -156 165 -171 142 -181 C 118 -191 92 -197 64 -197 C 33 -197 9 -189 -8 -175 C -26 -161 -35 -142 -35 -120 C -35 -96 -24 -73 -4 -52 C 15 -30 47 -12 89 3 L 126 2 C 92 -12 66 -28 48 -44 C 29 -60 20 -77 20 -95 C 20 -111 26 -124 38 -134 C 50 -143 65 -148 84 -148 C 104 -148 123 -144 141 -137 C 159 -130 174 -121 186 -110 Z" unicode="Į" />
<glyph horiz-adv-x="187" d="M 0 0 L 0 0 Z M 59 589 L 59 661 L 128 661 L 128 589 L 59 589 Z M 61 0 L 61 482 L 126 482 L 126 0 L 61 0 Z M 58 -10 L 58 -10 Z M 161 -110 L 180 -137 C 161 -156 140 -171 117 -181 C 93 -191 67 -197 39 -197 C 8 -197 -15 -189 -33 -175 C -51 -161 -60 -142 -60 -120 C -60 -96 -49 -73 -29 -52 C -9 -30 22 -12 64 3 L 101 2 C 67 -12 41 -28 23 -44 C 4 -60 -5 -77 -5 -95 C -5 -111 1 -124 13 -134 C 25 -143 40 -148 59 -148 C 79 -148 98 -144 116 -137 C 134 -130 149 -121 161 -110 Z" unicode="į" />
<glyph horiz-adv-x="238" d="M 84 0 L 84 0 Z M 155 0 L 84 0 L 84 730 L 155 730 L 155 0 Z M 119 800 L 119 800 Z M 149 800 L 89 800 L 89 925 L 149 925 L 149 800 Z" unicode="İ" />
<glyph horiz-adv-x="187" d="M 126 0 L 61 0 L 61 482 L 126 482 L 126 0 Z" unicode="ı" />
<glyph horiz-adv-x="526" d="M 84 0 L 84 0 Z M 155 0 L 84 0 L 84 730 L 155 730 L 155 0 Z M 456 730 L 456 185 C 456 158 452 133 444 109 C 436 85 425 65 411 47 C 397 29 379 16 358 6 C 336 -4 312 -9 285 -9 C 272 -9 258 -8 244 -6 C 230 -4 218 -1 210 3 L 220 64 C 225 61 233 59 244 57 C 254 55 265 54 276 54 C 311 54 338 67 358 94 C 377 120 387 152 387 190 L 387 730 L 456 730 Z" unicode="Ĳ" />
<glyph horiz-adv-x="364" d="M 59 0 L 59 0 Z M 59 589 L 59 661 L 128 661 L 128 589 L 59 589 Z M 61 0 L 61 482 L 126 482 L 126 0 L 61 0 Z M 308 589 L 240 589 L 240 661 L 308 661 L 308 589 Z M 306 482 L 306 -79 C 306 -111 296 -137 278 -156 C 260 -175 237 -185 211 -185 C 199 -185 187 -183 176 -180 C 165 -176 157 -173 153 -171 L 168 -123 C 171 -124 175 -125 181 -127 C 186 -128 192 -129 199 -129 C 210 -129 220 -124 229 -114 C 237 -104 242 -91 242 -74 L 242 482 L 306 482 Z" unicode="ĳ" />
<glyph horiz-adv-x="322" d="M 5 0 L 5 0 Z M 251 730 L 251 185 C 251 158 247 133 239 109 C 231 85 220 65 206 47 C 192 29 174 16 153 6 C 131 -4 107 -9 80 -9 C 67 -9 53 -8 39 -6 C 25 -4 13 -1 5 3 L 15 64 C 20 61 28 59 39 57 C 49 55 60 54 71 54 C 106 54 133 67 153 94 C 172 120 182 152 182 190 L 182 730 L 251 730 Z M 216 792 L 216 792 Z M 351 792 L 293 792 L 216 917 L 137 792 L 82 792 L 187 962 L 246 962 L 351 792 Z" unicode="Ĵ" />
<glyph horiz-adv-x="192" d="M 0 0 L 0 0 Z M 133 482 L 133 -81 C 133 -115 122 -143 102 -164 C 82 -184 57 -195 29 -195 C 18 -195 7 -193 -4 -190 C -15 -187 -23 -184 -28 -181 L -13 -133 C -9 -134 -5 -135 0 -137 C 5 -138 11 -139 18 -139 C 30 -139 42 -133 53 -122 C 63 -111 69 -95 69 -75 L 69 482 L 133 482 Z M 100 544 L 100 544 Z M 235 544 L 177 544 L 100 669 L 21 544 L -34 544 L 71 714 L 130 714 L 235 544 Z" unicode="ĵ" />
<glyph horiz-adv-x="537" d="M 80 0 L 80 0 Z M 537 0 L 456 0 L 219 351 L 150 265 L 150 0 L 80 0 L 80 730 L 150 730 L 150 351 L 431 730 L 508 730 L 265 404 L 537 0 Z M 273 -73 L 273 -73 Z M 347 -73 C 343 -117 332 -160 314 -204 C 295 -248 273 -284 248 -314 L 199 -291 C 206 -281 214 -267 223 -251 C 231 -235 239 -217 247 -198 C 255 -179 261 -159 267 -137 C 273 -115 277 -94 279 -73 L 347 -73 Z" unicode="Ķ" />
<glyph horiz-adv-x="402" d="M 58 0 L 58 0 Z M 411 1 L 340 0 L 198 229 L 122 130 L 122 0 L 58 0 L 58 778 L 120 778 L 120 205 L 318 482 L 386 482 L 240 278 L 411 1 Z M 206 -73 L 206 -73 Z M 280 -73 C 276 -117 265 -160 247 -204 C 228 -248 206 -284 181 -314 L 132 -291 C 139 -281 147 -267 156 -251 C 164 -235 172 -217 180 -198 C 188 -179 194 -159 200 -137 C 206 -115 210 -94 212 -73 L 280 -73 Z" unicode="ķ" />
<glyph horiz-adv-x="402" d="M 411 1 L 340 0 L 198 229 L 122 130 L 122 0 L 58 0 L 58 482 L 120 482 L 120 205 L 318 482 L 386 482 L 240 278 L 411 1 Z" unicode="ĸ" />
<glyph horiz-adv-x="404" d="M 80 0 L 80 0 Z M 397 0 L 80 0 L 80 730 L 150 730 L 150 62 L 397 62 L 397 0 Z M 244 792 L 244 792 Z M 163 792 L 252 961 L 326 961 L 226 792 L 163 792 Z" unicode="Ĺ" />
<glyph horiz-adv-x="182" d="M 59 0 L 59 0 Z M 143 850 L 143 850 Z M 62 850 L 151 1019 L 225 1019 L 125 850 L 62 850 Z M 123 788 L 123 0 L 59 0 L 59 788 L 123 788 Z" unicode="ĺ" />
<glyph horiz-adv-x="404" d="M 80 0 L 80 0 Z M 397 0 L 80 0 L 80 730 L 150 730 L 150 62 L 397 62 L 397 0 Z M 222 -73 L 222 -73 Z M 296 -73 C 292 -117 281 -160 263 -204 C 244 -248 222 -284 197 -314 L 148 -291 C 155 -281 163 -267 172 -251 C 180 -235 188 -217 196 -198 C 204 -179 210 -159 216 -137 C 222 -115 226 -94 228 -73 L 296 -73 Z" unicode="Ļ" />
<glyph horiz-adv-x="182" d="M 0 0 L 0 0 Z M 123 788 L 123 0 L 59 0 L 59 788 L 123 788 Z M 63 -73 L 63 -73 Z M 137 -73 C 133 -117 122 -160 104 -204 C 85 -248 63 -284 38 -314 L -11 -291 C -3 -281 4 -267 13 -251 C 21 -235 29 -217 37 -198 C 45 -179 51 -159 57 -137 C 63 -115 67 -94 69 -73 L 137 -73 Z" unicode="ļ" />
<glyph horiz-adv-x="404" d="M 80 0 L 80 0 Z M 397 0 L 80 0 L 80 730 L 150 730 L 150 62 L 397 62 L 397 0 Z M 411 620 L 407 490 L 353 490 L 349 620 L 349 730 L 411 730 L 411 620 Z" unicode="Ľ" />
<glyph horiz-adv-x="182" d="M 59 0 L 59 0 Z M 123 788 L 123 0 L 59 0 L 59 788 L 123 788 Z M 245 620 L 241 490 L 187 490 L 183 620 L 183 730 L 245 730 L 245 620 Z" unicode="ľ" />
<glyph horiz-adv-x="404" d="M 80 0 L 80 0 Z M 397 0 L 80 0 L 80 730 L 150 730 L 150 62 L 397 62 L 397 0 Z M 298 293 L 298 293 Z M 328 293 L 268 293 L 268 418 L 328 418 L 328 293 Z" unicode="Ŀ" />
<glyph horiz-adv-x="182" d="M 59 0 L 59 0 Z M 123 788 L 123 0 L 59 0 L 59 788 L 123 788 Z M 211 221 L 211 221 Z M 241 221 L 181 221 L 181 346 L 241 346 L 241 221 Z" unicode="ŀ" />
<glyph horiz-adv-x="404" d="M 393 58 L 393 0 L 80 0 L 80 275 L 25 252 L 2 303 L 80 335 L 80 730 L 150 730 L 150 365 L 312 432 L 335 381 L 150 304 L 150 58 L 393 58 Z" unicode="Ł" />
<glyph horiz-adv-x="182" d="M 197 337 L 129 306 L 129 0 L 64 0 L 64 276 L 16 254 L -3 299 L 64 330 L 64 778 L 129 778 L 129 360 L 177 382 L 197 337 Z" unicode="ł" />
<glyph horiz-adv-x="620" d="M 80 0 L 80 0 Z M 541 0 L 490 0 L 146 580 L 146 0 L 80 0 L 80 730 L 131 730 L 476 149 L 476 730 L 541 730 L 541 0 Z M 311 792 L 311 792 Z M 230 792 L 319 961 L 393 961 L 293 792 L 230 792 Z" unicode="Ń" />
<glyph horiz-adv-x="449" d="M 58 0 L 58 0 Z M 393 0 L 329 0 L 329 345 C 329 373 320 395 303 411 C 285 427 263 435 235 435 C 206 435 180 426 157 408 C 133 390 122 359 122 315 L 122 0 L 58 0 L 58 482 L 116 482 L 116 397 C 124 424 141 446 165 464 C 189 481 220 490 258 490 C 297 490 329 479 355 458 C 380 436 393 405 393 365 L 393 0 Z M 228 544 L 228 544 Z M 147 544 L 236 713 L 310 713 L 210 544 L 147 544 Z" unicode="ń" />
<glyph horiz-adv-x="620" d="M 80 0 L 80 0 Z M 541 0 L 490 0 L 146 580 L 146 0 L 80 0 L 80 730 L 131 730 L 476 149 L 476 730 L 541 730 L 541 0 Z M 295 -73 L 295 -73 Z M 369 -73 C 365 -117 354 -160 336 -204 C 317 -248 295 -284 270 -314 L 221 -291 C 228 -281 236 -267 245 -251 C 253 -235 261 -217 269 -198 C 277 -179 283 -159 289 -137 C 295 -115 299 -94 301 -73 L 369 -73 Z" unicode="Ņ" />
<glyph horiz-adv-x="449" d="M 58 0 L 58 0 Z M 393 0 L 329 0 L 329 345 C 329 373 320 395 303 411 C 285 427 263 435 235 435 C 206 435 180 426 157 408 C 133 390 122 359 122 315 L 122 0 L 58 0 L 58 482 L 116 482 L 116 397 C 124 424 141 446 165 464 C 189 481 220 490 258 490 C 297 490 329 479 355 458 C 380 436 393 405 393 365 L 393 0 Z M 204 -73 L 204 -73 Z M 278 -73 C 274 -117 263 -160 245 -204 C 226 -248 204 -284 179 -314 L 130 -291 C 137 -281 145 -267 154 -251 C 162 -235 170 -217 178 -198 C 186 -179 192 -159 198 -137 C 204 -115 208 -94 210 -73 L 278 -73 Z" unicode="ņ" />
<glyph horiz-adv-x="620" d="M 80 0 L 80 0 Z M 541 0 L 490 0 L 146 580 L 146 0 L 80 0 L 80 730 L 131 730 L 476 149 L 476 730 L 541 730 L 541 0 Z M 311 792 L 311 792 Z M 177 962 L 234 962 L 312 837 L 390 962 L 446 962 L 341 792 L 282 792 L 177 962 Z" unicode="Ň" />
<glyph horiz-adv-x="449" d="M 58 0 L 58 0 Z M 393 0 L 329 0 L 329 345 C 329 373 320 395 303 411 C 285 427 263 435 235 435 C 206 435 180 426 157 408 C 133 390 122 359 122 315 L 122 0 L 58 0 L 58 482 L 116 482 L 116 397 C 124 424 141 446 165 464 C 189 481 220 490 258 490 C 297 490 329 479 355 458 C 380 436 393 405 393 365 L 393 0 Z M 228 544 L 228 544 Z M 94 714 L 151 714 L 229 589 L 307 714 L 363 714 L 258 544 L 199 544 L 94 714 Z" unicode="ň" />
<glyph horiz-adv-x="622" d="M 476 730 L 541 730 L 541 -4 C 541 -58 526 -104 498 -141 C 469 -178 429 -197 377 -197 C 363 -197 349 -196 334 -194 C 319 -192 307 -188 299 -184 L 308 -123 C 314 -125 322 -128 334 -131 C 345 -133 356 -135 368 -135 C 402 -135 428 -121 448 -95 C 467 -68 477 -36 477 2 L 477 22 L 146 580 L 146 0 L 80 0 L 80 730 L 131 730 L 476 149 L 476 730 Z" unicode="Ŋ" />
<glyph horiz-adv-x="449" d="M 258 490 C 297 490 329 479 355 458 C 380 436 393 405 393 365 L 393 -71 C 393 -111 382 -142 361 -165 C 339 -188 312 -200 280 -200 C 270 -200 259 -199 248 -197 C 236 -195 228 -192 223 -189 L 236 -136 C 239 -137 244 -138 250 -140 C 256 -141 262 -142 269 -142 C 285 -142 299 -135 311 -121 C 323 -107 329 -87 329 -62 L 329 345 C 329 373 320 395 303 411 C 285 427 263 435 235 435 C 206 435 180 426 157 408 C 133 390 122 359 122 315 L 122 0 L 58 0 L 58 482 L 116 482 L 116 397 C 124 424 141 446 165 464 C 189 481 220 490 258 490 Z" unicode="ŋ" />
<glyph horiz-adv-x="664" d="M 43 0 L 43 0 Z M 334 -9 C 290 -9 251 0 215 17 C 179 34 148 59 123 91 C 97 123 78 163 64 211 C 50 258 43 311 43 371 C 43 427 50 477 64 523 C 78 569 97 607 123 639 C 148 671 178 695 213 713 C 248 730 287 739 329 739 C 418 739 489 705 542 639 C 594 572 621 481 621 366 C 621 308 613 256 599 210 C 584 164 564 124 538 92 C 512 60 482 35 447 17 C 412 0 374 -9 334 -9 Z M 334 51 C 365 51 394 58 420 72 C 446 86 469 106 489 133 C 508 159 523 193 534 233 C 544 273 550 319 550 371 C 550 467 529 542 488 597 C 446 651 393 679 329 679 C 264 679 212 652 173 598 C 134 544 115 467 115 365 C 115 313 120 268 132 229 C 143 189 158 156 178 130 C 197 104 220 84 247 71 C 274 57 303 51 334 51 Z M 330 819 L 330 819 Z M 448 819 L 212 819 L 212 871 L 448 871 L 448 819 Z" unicode="Ō" />
<glyph horiz-adv-x="448" d="M 28 0 L 28 0 Z M 224 -7 C 196 -7 171 -1 147 9 C 123 20 103 36 85 57 C 67 78 53 104 43 135 C 33 165 28 200 28 239 C 28 275 32 309 42 340 C 52 371 65 398 82 420 C 99 442 119 459 143 471 C 167 483 192 490 220 490 C 278 490 325 468 363 425 C 401 381 420 324 420 252 C 420 214 415 179 406 147 C 396 115 383 88 366 65 C 348 42 328 24 304 12 C 280 0 253 -7 224 -7 Z M 225 48 C 264 48 295 65 318 101 C 341 136 353 184 353 244 C 353 304 341 350 317 384 C 293 417 261 434 220 434 C 183 434 153 417 130 383 C 107 349 96 302 96 243 C 96 178 108 129 132 97 C 156 64 187 48 225 48 Z M 223 571 L 223 571 Z M 341 571 L 105 571 L 105 623 L 341 623 L 341 571 Z" unicode="ō" />
<glyph horiz-adv-x="664" d="M 43 0 L 43 0 Z M 334 -9 C 290 -9 251 0 215 17 C 179 34 148 59 123 91 C 97 123 78 163 64 211 C 50 258 43 311 43 371 C 43 427 50 477 64 523 C 78 569 97 607 123 639 C 148 671 178 695 213 713 C 248 730 287 739 329 739 C 418 739 489 705 542 639 C 594 572 621 481 621 366 C 621 308 613 256 599 210 C 584 164 564 124 538 92 C 512 60 482 35 447 17 C 412 0 374 -9 334 -9 Z M 334 51 C 365 51 394 58 420 72 C 446 86 469 106 489 133 C 508 159 523 193 534 233 C 544 273 550 319 550 371 C 550 467 529 542 488 597 C 446 651 393 679 329 679 C 264 679 212 652 173 598 C 134 544 115 467 115 365 C 115 313 120 268 132 229 C 143 189 158 156 178 130 C 197 104 220 84 247 71 C 274 57 303 51 334 51 Z M 330 799 L 330 799 Z M 404 955 L 459 955 C 455 901 442 861 418 836 C 394 811 365 799 330 799 C 294 799 265 811 242 836 C 218 861 205 901 202 955 L 256 955 C 258 923 265 896 276 876 C 287 856 305 846 330 846 C 354 846 372 855 384 875 C 395 895 402 921 404 955 Z" unicode="Ŏ" />
<glyph horiz-adv-x="448" d="M 28 0 L 28 0 Z M 224 -7 C 196 -7 171 -1 147 9 C 123 20 103 36 85 57 C 67 78 53 104 43 135 C 33 165 28 200 28 239 C 28 275 32 309 42 340 C 52 371 65 398 82 420 C 99 442 119 459 143 471 C 167 483 192 490 220 490 C 278 490 325 468 363 425 C 401 381 420 324 420 252 C 420 214 415 179 406 147 C 396 115 383 88 366 65 C 348 42 328 24 304 12 C 280 0 253 -7 224 -7 Z M 225 48 C 264 48 295 65 318 101 C 341 136 353 184 353 244 C 353 304 341 350 317 384 C 293 417 261 434 220 434 C 183 434 153 417 130 383 C 107 349 96 302 96 243 C 96 178 108 129 132 97 C 156 64 187 48 225 48 Z M 223 551 L 223 551 Z M 297 707 L 352 707 C 348 653 335 613 311 588 C 287 563 258 551 223 551 C 187 551 158 563 135 588 C 111 613 98 653 95 707 L 149 707 C 151 675 158 648 169 628 C 180 608 198 598 223 598 C 247 598 265 607 277 627 C 288 647 295 673 297 707 Z" unicode="ŏ" />
<glyph horiz-adv-x="664" d="M 43 0 L 43 0 Z M 334 -9 C 290 -9 251 0 215 17 C 179 34 148 59 123 91 C 97 123 78 163 64 211 C 50 258 43 311 43 371 C 43 427 50 477 64 523 C 78 569 97 607 123 639 C 148 671 178 695 213 713 C 248 730 287 739 329 739 C 418 739 489 705 542 639 C 594 572 621 481 621 366 C 621 308 613 256 599 210 C 584 164 564 124 538 92 C 512 60 482 35 447 17 C 412 0 374 -9 334 -9 Z M 334 51 C 365 51 394 58 420 72 C 446 86 469 106 489 133 C 508 159 523 193 534 233 C 544 273 550 319 550 371 C 550 467 529 542 488 597 C 446 651 393 679 329 679 C 264 679 212 652 173 598 C 134 544 115 467 115 365 C 115 313 120 268 132 229 C 143 189 158 156 178 130 C 197 104 220 84 247 71 C 274 57 303 51 334 51 Z M 330 791 L 330 791 Z M 182 791 L 253 945 L 323 945 L 240 791 L 182 791 Z M 338 791 L 410 945 L 479 945 L 397 791 L 338 791 Z" unicode="Ő" />
<glyph horiz-adv-x="448" d="M 28 0 L 28 0 Z M 224 -7 C 196 -7 171 -1 147 9 C 123 20 103 36 85 57 C 67 78 53 104 43 135 C 33 165 28 200 28 239 C 28 275 32 309 42 340 C 52 371 65 398 82 420 C 99 442 119 459 143 471 C 167 483 192 490 220 490 C 278 490 325 468 363 425 C 401 381 420 324 420 252 C 420 214 415 179 406 147 C 396 115 383 88 366 65 C 348 42 328 24 304 12 C 280 0 253 -7 224 -7 Z M 225 48 C 264 48 295 65 318 101 C 341 136 353 184 353 244 C 353 304 341 350 317 384 C 293 417 261 434 220 434 C 183 434 153 417 130 383 C 107 349 96 302 96 243 C 96 178 108 129 132 97 C 156 64 187 48 225 48 Z M 223 543 L 223 543 Z M 75 543 L 146 697 L 216 697 L 133 543 L 75 543 Z M 231 543 L 303 697 L 372 697 L 290 543 L 231 543 Z" unicode="ő" />
<glyph horiz-adv-x="904" d="M 318 -9 C 278 -9 241 0 207 16 C 173 33 144 58 120 90 C 96 122 77 161 63 209 C 49 256 43 310 43 370 C 43 426 49 477 63 523 C 77 569 96 608 120 640 C 144 672 172 696 206 713 C 240 730 276 739 316 739 C 344 739 370 734 394 725 C 418 715 440 703 459 687 C 477 671 493 653 506 632 C 519 610 529 588 535 565 L 535 730 L 857 730 L 857 670 L 603 670 L 603 392 L 848 392 L 848 333 L 603 333 L 603 60 L 874 60 L 874 0 L 535 0 L 535 173 C 529 149 520 127 508 105 C 496 83 481 63 463 47 C 445 30 423 16 399 6 C 375 -3 348 -9 318 -9 Z M 327 45 C 357 45 384 52 410 66 C 436 80 458 100 477 128 C 495 155 510 189 521 230 C 531 270 537 317 537 371 C 537 422 531 467 519 507 C 507 546 491 579 471 605 C 451 631 429 650 403 663 C 377 676 350 683 323 683 C 261 683 210 656 172 602 C 133 548 114 469 114 365 C 114 312 119 265 130 225 C 141 185 156 151 175 125 C 194 99 217 79 243 65 C 269 51 297 45 327 45 Z" unicode="Œ" />
<glyph horiz-adv-x="756" d="M 222 -7 C 194 -7 169 -1 145 9 C 121 20 101 36 84 57 C 66 78 53 104 43 135 C 33 165 28 200 28 239 C 28 275 32 309 42 340 C 52 371 65 398 82 420 C 99 442 119 459 143 471 C 167 483 193 490 221 490 C 245 490 266 485 286 477 C 305 469 322 458 336 444 C 350 430 361 415 369 397 C 377 379 383 362 385 344 C 387 361 392 378 400 396 C 408 413 419 428 433 442 C 446 456 462 467 481 476 C 500 484 521 489 544 489 C 602 489 647 465 681 419 C 714 372 731 308 731 227 L 415 227 C 415 171 428 127 454 95 C 479 63 512 47 552 47 C 586 47 613 54 633 68 C 653 82 669 97 683 114 L 717 77 C 701 56 681 37 656 19 C 630 1 595 -7 550 -7 C 525 -7 503 -3 484 5 C 464 13 447 23 433 37 C 419 50 407 65 399 83 C 391 100 385 118 383 137 C 380 120 374 103 366 86 C 358 68 347 53 333 39 C 319 25 303 14 285 6 C 266 -2 245 -7 222 -7 Z M 416 273 L 668 273 C 667 321 655 360 633 391 C 610 421 580 437 543 437 C 505 437 475 421 453 391 C 431 360 418 321 416 273 Z M 225 48 C 264 48 295 65 318 100 C 341 134 353 183 353 245 C 353 304 341 350 317 384 C 293 417 261 434 221 434 C 183 434 152 417 129 383 C 106 349 95 302 95 243 C 95 178 107 129 131 97 C 155 64 187 48 225 48 Z" unicode="œ" />
<glyph horiz-adv-x="498" d="M 80 0 L 80 0 Z M 80 0 L 80 730 L 237 730 C 291 730 336 713 372 680 C 408 647 426 599 426 536 C 426 478 411 431 383 397 C 354 363 320 343 282 339 L 278 337 L 480 0 L 404 0 L 213 322 L 146 322 L 146 0 L 80 0 Z M 146 381 L 228 381 C 266 381 297 394 321 420 C 345 445 358 481 358 528 C 358 574 345 609 321 634 C 296 658 265 671 227 671 L 146 671 L 146 381 Z M 236 792 L 236 792 Z M 155 792 L 244 961 L 318 961 L 218 792 L 155 792 Z" unicode="Ŕ" />
<glyph horiz-adv-x="323" d="M 58 0 L 58 0 Z M 325 460 L 300 406 C 290 415 279 422 268 426 C 256 430 243 432 229 432 C 217 432 204 429 192 425 C 179 420 167 412 157 402 C 147 392 138 378 132 361 C 125 344 122 324 122 301 L 122 0 L 58 0 L 58 482 L 120 482 L 120 391 C 126 417 141 439 163 459 C 185 479 211 489 242 489 C 260 489 276 486 290 481 C 304 475 316 468 325 460 Z M 193 544 L 193 544 Z M 112 544 L 201 713 L 275 713 L 175 544 L 112 544 Z" unicode="ŕ" />
<glyph horiz-adv-x="498" d="M 80 0 L 80 0 Z M 80 0 L 80 730 L 237 730 C 291 730 336 713 372 680 C 408 647 426 599 426 536 C 426 478 411 431 383 397 C 354 363 320 343 282 339 L 278 337 L 480 0 L 404 0 L 213 322 L 146 322 L 146 0 L 80 0 Z M 146 381 L 228 381 C 266 381 297 394 321 420 C 345 445 358 481 358 528 C 358 574 345 609 321 634 C 296 658 265 671 227 671 L 146 671 L 146 381 Z M 242 -73 L 242 -73 Z M 316 -73 C 312 -117 301 -160 283 -204 C 264 -248 242 -284 217 -314 L 168 -291 C 175 -281 183 -267 192 -251 C 200 -235 208 -217 216 -198 C 224 -179 230 -159 236 -137 C 242 -115 246 -94 248 -73 L 316 -73 Z" unicode="Ŗ" />
<glyph horiz-adv-x="323" d="M 58 0 L 58 0 Z M 325 460 L 300 406 C 290 415 279 422 268 426 C 256 430 243 432 229 432 C 217 432 204 429 192 425 C 179 420 167 412 157 402 C 147 392 138 378 132 361 C 125 344 122 324 122 301 L 122 0 L 58 0 L 58 482 L 120 482 L 120 391 C 126 417 141 439 163 459 C 185 479 211 489 242 489 C 260 489 276 486 290 481 C 304 475 316 468 325 460 Z M 168 -73 L 168 -73 Z M 242 -73 C 238 -117 227 -160 209 -204 C 190 -248 168 -284 143 -314 L 94 -291 C 101 -281 109 -267 118 -251 C 126 -235 134 -217 142 -198 C 150 -179 156 -159 162 -137 C 168 -115 172 -94 174 -73 L 242 -73 Z" unicode="ŗ" />
<glyph horiz-adv-x="498" d="M 80 0 L 80 0 Z M 80 0 L 80 730 L 237 730 C 291 730 336 713 372 680 C 408 647 426 599 426 536 C 426 478 411 431 383 397 C 354 363 320 343 282 339 L 278 337 L 480 0 L 404 0 L 213 322 L 146 322 L 146 0 L 80 0 Z M 146 381 L 228 381 C 266 381 297 394 321 420 C 345 445 358 481 358 528 C 358 574 345 609 321 634 C 296 658 265 671 227 671 L 146 671 L 146 381 Z M 236 792 L 236 792 Z M 102 962 L 159 962 L 237 837 L 315 962 L 371 962 L 266 792 L 207 792 L 102 962 Z" unicode="Ř" />
<glyph horiz-adv-x="323" d="M 58 0 L 58 0 Z M 325 460 L 300 406 C 290 415 279 422 268 426 C 256 430 243 432 229 432 C 217 432 204 429 192 425 C 179 420 167 412 157 402 C 147 392 138 378 132 361 C 125 344 122 324 122 301 L 122 0 L 58 0 L 58 482 L 120 482 L 120 391 C 126 417 141 439 163 459 C 185 479 211 489 242 489 C 260 489 276 486 290 481 C 304 475 316 468 325 460 Z M 193 544 L 193 544 Z M 59 714 L 116 714 L 194 589 L 272 714 L 328 714 L 223 544 L 164 544 L 59 714 Z" unicode="ř" />
<glyph horiz-adv-x="443" d="M 29 0 L 29 0 Z M 225 -9 C 183 -9 146 -1 113 13 C 80 27 52 50 29 80 L 71 128 C 89 100 111 80 139 67 C 167 54 194 48 222 48 C 254 48 283 59 307 82 C 331 104 343 134 343 172 C 343 208 333 239 315 265 C 296 290 261 317 210 346 C 154 376 113 407 87 438 C 60 469 47 512 47 567 C 47 619 63 660 97 692 C 131 723 172 739 222 739 C 261 739 294 732 322 719 C 349 705 372 689 390 671 L 351 622 C 335 638 316 651 294 662 C 272 672 248 678 223 678 C 192 678 166 667 145 647 C 123 627 113 599 113 565 C 113 529 123 500 142 478 C 161 456 198 430 252 401 C 311 368 352 334 375 300 C 397 266 409 225 409 177 C 409 147 404 121 394 98 C 384 75 370 56 353 40 C 336 24 316 11 294 3 C 272 -4 249 -9 225 -9 Z M 221 792 L 221 792 Z M 140 792 L 229 961 L 303 961 L 203 792 L 140 792 Z" unicode="Ś" />
<glyph horiz-adv-x="340" d="M 26 0 L 26 0 Z M 179 -7 C 145 -7 115 -1 89 11 C 63 23 42 39 26 59 L 59 102 C 72 85 89 72 109 62 C 129 52 151 47 174 47 C 194 47 213 53 230 67 C 246 80 255 99 255 125 C 255 146 247 164 231 180 C 215 195 188 211 152 229 C 112 247 83 267 65 288 C 47 309 39 337 39 371 C 39 405 51 433 77 455 C 103 477 134 489 170 489 C 200 489 227 484 249 474 C 271 464 288 454 301 443 L 272 396 C 261 404 247 413 230 422 C 213 430 194 435 174 435 C 153 435 135 429 119 418 C 103 407 96 391 96 371 C 96 352 102 336 115 324 C 127 312 153 296 191 278 C 234 256 265 234 284 212 C 302 190 312 161 312 125 C 312 103 308 84 300 68 C 292 52 282 38 270 27 C 258 15 244 7 228 1 C 212 -4 195 -7 179 -7 Z M 172 544 L 172 544 Z M 91 544 L 180 713 L 254 713 L 154 544 L 91 544 Z" unicode="ś" />
<glyph horiz-adv-x="443" d="M 29 0 L 29 0 Z M 225 -9 C 183 -9 146 -1 113 13 C 80 27 52 50 29 80 L 71 128 C 89 100 111 80 139 67 C 167 54 194 48 222 48 C 254 48 283 59 307 82 C 331 104 343 134 343 172 C 343 208 333 239 315 265 C 296 290 261 317 210 346 C 154 376 113 407 87 438 C 60 469 47 512 47 567 C 47 619 63 660 97 692 C 131 723 172 739 222 739 C 261 739 294 732 322 719 C 349 705 372 689 390 671 L 351 622 C 335 638 316 651 294 662 C 272 672 248 678 223 678 C 192 678 166 667 145 647 C 123 627 113 599 113 565 C 113 529 123 500 142 478 C 161 456 198 430 252 401 C 311 368 352 334 375 300 C 397 266 409 225 409 177 C 409 147 404 121 394 98 C 384 75 370 56 353 40 C 336 24 316 11 294 3 C 272 -4 249 -9 225 -9 Z M 221 792 L 221 792 Z M 356 792 L 298 792 L 221 917 L 142 792 L 87 792 L 192 962 L 251 962 L 356 792 Z" unicode="Ŝ" />
<glyph horiz-adv-x="340" d="M 26 0 L 26 0 Z M 179 -7 C 145 -7 115 -1 89 11 C 63 23 42 39 26 59 L 59 102 C 72 85 89 72 109 62 C 129 52 151 47 174 47 C 194 47 213 53 230 67 C 246 80 255 99 255 125 C 255 146 247 164 231 180 C 215 195 188 211 152 229 C 112 247 83 267 65 288 C 47 309 39 337 39 371 C 39 405 51 433 77 455 C 103 477 134 489 170 489 C 200 489 227 484 249 474 C 271 464 288 454 301 443 L 272 396 C 261 404 247 413 230 422 C 213 430 194 435 174 435 C 153 435 135 429 119 418 C 103 407 96 391 96 371 C 96 352 102 336 115 324 C 127 312 153 296 191 278 C 234 256 265 234 284 212 C 302 190 312 161 312 125 C 312 103 308 84 300 68 C 292 52 282 38 270 27 C 258 15 244 7 228 1 C 212 -4 195 -7 179 -7 Z M 172 544 L 172 544 Z M 307 544 L 249 544 L 172 669 L 93 544 L 38 544 L 143 714 L 202 714 L 307 544 Z" unicode="ŝ" />
<glyph horiz-adv-x="443" d="M 29 0 L 29 0 Z M 225 -9 C 183 -9 146 -1 113 13 C 80 27 52 50 29 80 L 71 128 C 89 100 111 80 139 67 C 167 54 194 48 222 48 C 254 48 283 59 307 82 C 331 104 343 134 343 172 C 343 208 333 239 315 265 C 296 290 261 317 210 346 C 154 376 113 407 87 438 C 60 469 47 512 47 567 C 47 619 63 660 97 692 C 131 723 172 739 222 739 C 261 739 294 732 322 719 C 349 705 372 689 390 671 L 351 622 C 335 638 316 651 294 662 C 272 672 248 678 223 678 C 192 678 166 667 145 647 C 123 627 113 599 113 565 C 113 529 123 500 142 478 C 161 456 198 430 252 401 C 311 368 352 334 375 300 C 397 266 409 225 409 177 C 409 147 404 121 394 98 C 384 75 370 56 353 40 C 336 24 316 11 294 3 C 272 -4 249 -9 225 -9 Z M 207 -3 L 207 -3 Z M 214 -186 C 193 -186 172 -183 151 -177 C 130 -171 113 -163 101 -153 L 114 -124 C 122 -130 134 -137 149 -143 C 164 -149 181 -152 200 -152 C 216 -152 229 -148 241 -140 C 253 -132 259 -122 259 -110 C 259 -95 253 -84 243 -78 C 232 -72 221 -69 209 -69 C 200 -69 193 -69 187 -71 C 181 -73 174 -75 167 -78 L 156 -64 L 211 7 L 247 7 L 202 -55 C 232 -47 259 -49 281 -60 C 303 -71 314 -89 314 -113 C 314 -136 304 -154 284 -167 C 264 -179 240 -186 214 -186 Z" unicode="Ş" />
<glyph horiz-adv-x="340" d="M 26 0 L 26 0 Z M 179 -7 C 145 -7 115 -1 89 11 C 63 23 42 39 26 59 L 59 102 C 72 85 89 72 109 62 C 129 52 151 47 174 47 C 194 47 213 53 230 67 C 246 80 255 99 255 125 C 255 146 247 164 231 180 C 215 195 188 211 152 229 C 112 247 83 267 65 288 C 47 309 39 337 39 371 C 39 405 51 433 77 455 C 103 477 134 489 170 489 C 200 489 227 484 249 474 C 271 464 288 454 301 443 L 272 396 C 261 404 247 413 230 422 C 213 430 194 435 174 435 C 153 435 135 429 119 418 C 103 407 96 391 96 371 C 96 352 102 336 115 324 C 127 312 153 296 191 278 C 234 256 265 234 284 212 C 302 190 312 161 312 125 C 312 103 308 84 300 68 C 292 52 282 38 270 27 C 258 15 244 7 228 1 C 212 -4 195 -7 179 -7 Z M 162 -2 L 162 -2 Z M 169 -185 C 148 -185 127 -182 106 -176 C 85 -170 68 -162 56 -152 L 69 -123 C 77 -129 89 -136 104 -142 C 119 -148 136 -151 155 -151 C 171 -151 184 -147 196 -139 C 208 -131 214 -121 214 -109 C 214 -94 208 -83 198 -77 C 187 -71 176 -68 164 -68 C 155 -68 148 -68 142 -70 C 136 -72 129 -74 122 -77 L 111 -63 L 166 8 L 202 8 L 157 -54 C 187 -46 214 -48 236 -59 C 258 -70 269 -88 269 -112 C 269 -135 259 -153 239 -166 C 219 -178 195 -185 169 -185 Z" unicode="ş" />
<glyph horiz-adv-x="443" d="M 29 0 L 29 0 Z M 225 -9 C 183 -9 146 -1 113 13 C 80 27 52 50 29 80 L 71 128 C 89 100 111 80 139 67 C 167 54 194 48 222 48 C 254 48 283 59 307 82 C 331 104 343 134 343 172 C 343 208 333 239 315 265 C 296 290 261 317 210 346 C 154 376 113 407 87 438 C 60 469 47 512 47 567 C 47 619 63 660 97 692 C 131 723 172 739 222 739 C 261 739 294 732 322 719 C 349 705 372 689 390 671 L 351 622 C 335 638 316 651 294 662 C 272 672 248 678 223 678 C 192 678 166 667 145 647 C 123 627 113 599 113 565 C 113 529 123 500 142 478 C 161 456 198 430 252 401 C 311 368 352 334 375 300 C 397 266 409 225 409 177 C 409 147 404 121 394 98 C 384 75 370 56 353 40 C 336 24 316 11 294 3 C 272 -4 249 -9 225 -9 Z M 221 792 L 221 792 Z M 87 962 L 144 962 L 222 837 L 300 962 L 356 962 L 251 792 L 192 792 L 87 962 Z" unicode="Š" />
<glyph horiz-adv-x="340" d="M 26 0 L 26 0 Z M 179 -7 C 145 -7 115 -1 89 11 C 63 23 42 39 26 59 L 59 102 C 72 85 89 72 109 62 C 129 52 151 47 174 47 C 194 47 213 53 230 67 C 246 80 255 99 255 125 C 255 146 247 164 231 180 C 215 195 188 211 152 229 C 112 247 83 267 65 288 C 47 309 39 337 39 371 C 39 405 51 433 77 455 C 103 477 134 489 170 489 C 200 489 227 484 249 474 C 271 464 288 454 301 443 L 272 396 C 261 404 247 413 230 422 C 213 430 194 435 174 435 C 153 435 135 429 119 418 C 103 407 96 391 96 371 C 96 352 102 336 115 324 C 127 312 153 296 191 278 C 234 256 265 234 284 212 C 302 190 312 161 312 125 C 312 103 308 84 300 68 C 292 52 282 38 270 27 C 258 15 244 7 228 1 C 212 -4 195 -7 179 -7 Z M 172 544 L 172 544 Z M 38 714 L 95 714 L 173 589 L 251 714 L 307 714 L 202 544 L 143 544 L 38 714 Z" unicode="š" />
<glyph horiz-adv-x="419" d="M 8 0 L 8 0 Z M 410 668 L 243 668 L 243 0 L 173 0 L 173 668 L 8 668 L 8 730 L 410 730 L 410 668 Z M 208 792 L 208 792 Z M 74 962 L 131 962 L 209 837 L 287 962 L 343 962 L 238 792 L 179 792 L 74 962 Z" unicode="Ť" />
<glyph horiz-adv-x="231" d="M 13 0 L 13 0 Z M 213 62 L 223 11 C 218 7 210 3 200 0 C 190 -2 178 -4 164 -4 C 141 -4 119 4 99 20 C 78 36 68 63 68 101 L 68 427 L 13 427 L 13 482 L 69 482 L 69 598 L 132 606 L 132 482 L 213 482 L 213 427 L 133 427 L 133 103 C 133 87 137 74 145 66 C 153 58 164 54 178 54 C 184 54 191 55 198 57 C 205 59 210 60 213 62 Z M 295 620 L 291 490 L 237 490 L 233 620 L 233 730 L 295 730 L 295 620 Z" unicode="ť" />
<glyph horiz-adv-x="419" d="M 371 487 L 243 487 L 243 0 L 173 0 L 173 487 L 44 487 L 44 542 L 173 542 L 173 668 L 8 668 L 8 730 L 410 730 L 410 668 L 243 668 L 243 542 L 371 542 L 371 487 Z" unicode="Ŧ" />
<glyph horiz-adv-x="231" d="M 223 11 C 218 7 210 3 200 0 C 190 -2 178 -4 164 -4 C 141 -4 119 4 99 20 C 78 36 68 63 68 101 L 68 288 L 22 288 L 22 343 L 68 343 L 68 427 L 13 427 L 13 482 L 69 482 L 69 598 L 132 606 L 132 482 L 213 482 L 213 427 L 133 427 L 133 343 L 199 343 L 199 288 L 133 288 L 133 103 C 133 87 137 74 145 66 C 153 58 164 54 178 54 C 184 54 191 55 198 57 C 205 59 210 60 213 62 L 223 11 Z" unicode="ŧ" />
<glyph horiz-adv-x="604" d="M 75 0 L 75 0 Z M 530 730 L 530 230 C 530 189 523 153 511 123 C 499 93 482 68 462 49 C 441 29 416 15 388 5 C 360 -4 330 -9 299 -9 C 269 -9 240 -4 213 4 C 185 13 161 27 141 47 C 121 66 105 91 93 121 C 81 151 75 188 75 230 L 75 730 L 144 730 L 144 229 C 144 169 159 124 189 96 C 219 67 257 53 301 53 C 344 53 381 66 412 94 C 443 121 459 166 459 229 L 459 730 L 530 730 Z M 301 800 L 301 800 Z M 400 928 L 449 928 C 449 884 443 852 431 831 C 419 810 403 800 384 800 C 366 800 351 804 338 813 C 325 822 313 831 303 840 C 293 848 283 857 273 865 C 263 873 252 878 242 878 C 232 878 223 871 216 859 C 208 846 204 828 204 805 L 155 805 C 155 847 162 879 178 901 C 193 922 210 933 229 933 C 244 933 258 928 271 919 C 283 910 295 901 306 891 C 315 882 324 874 334 866 C 344 858 354 855 364 855 C 373 855 381 861 389 874 C 396 886 400 904 400 928 Z" unicode="Ũ" />
<glyph horiz-adv-x="449" d="M 56 0 L 56 0 Z M 56 482 L 120 482 L 120 149 C 120 113 129 86 147 70 C 165 53 189 45 219 45 C 247 45 272 54 294 73 C 316 92 327 124 327 168 L 327 482 L 391 482 L 391 0 L 331 0 L 331 83 C 323 57 307 36 283 19 C 259 1 230 -7 194 -7 C 156 -7 123 4 96 27 C 69 49 56 84 56 132 L 56 482 Z M 223 552 L 223 552 Z M 322 680 L 371 680 C 371 636 365 604 353 583 C 341 562 325 552 306 552 C 288 552 273 556 260 565 C 247 574 235 583 225 592 C 215 600 205 609 195 617 C 185 625 174 630 164 630 C 154 630 145 623 138 611 C 130 598 126 580 126 557 L 77 557 C 77 599 84 631 100 653 C 115 674 132 685 151 685 C 166 685 180 680 193 671 C 205 662 217 653 228 643 C 237 634 246 626 256 618 C 266 610 276 607 286 607 C 295 607 303 613 311 626 C 318 638 322 656 322 680 Z" unicode="ũ" />
<glyph horiz-adv-x="604" d="M 75 0 L 75 0 Z M 530 730 L 530 230 C 530 189 523 153 511 123 C 499 93 482 68 462 49 C 441 29 416 15 388 5 C 360 -4 330 -9 299 -9 C 269 -9 240 -4 213 4 C 185 13 161 27 141 47 C 121 66 105 91 93 121 C 81 151 75 188 75 230 L 75 730 L 144 730 L 144 229 C 144 169 159 124 189 96 C 219 67 257 53 301 53 C 344 53 381 66 412 94 C 443 121 459 166 459 229 L 459 730 L 530 730 Z M 301 819 L 301 819 Z M 419 819 L 183 819 L 183 871 L 419 871 L 419 819 Z" unicode="Ū" />
<glyph horiz-adv-x="449" d="M 56 0 L 56 0 Z M 56 482 L 120 482 L 120 149 C 120 113 129 86 147 70 C 165 53 189 45 219 45 C 247 45 272 54 294 73 C 316 92 327 124 327 168 L 327 482 L 391 482 L 391 0 L 331 0 L 331 83 C 323 57 307 36 283 19 C 259 1 230 -7 194 -7 C 156 -7 123 4 96 27 C 69 49 56 84 56 132 L 56 482 Z M 223 571 L 223 571 Z M 341 571 L 105 571 L 105 623 L 341 623 L 341 571 Z" unicode="ū" />
<glyph horiz-adv-x="604" d="M 75 0 L 75 0 Z M 530 730 L 530 230 C 530 189 523 153 511 123 C 499 93 482 68 462 49 C 441 29 416 15 388 5 C 360 -4 330 -9 299 -9 C 269 -9 240 -4 213 4 C 185 13 161 27 141 47 C 121 66 105 91 93 121 C 81 151 75 188 75 230 L 75 730 L 144 730 L 144 229 C 144 169 159 124 189 96 C 219 67 257 53 301 53 C 344 53 381 66 412 94 C 443 121 459 166 459 229 L 459 730 L 530 730 Z M 301 799 L 301 799 Z M 375 955 L 430 955 C 426 901 413 861 389 836 C 365 811 336 799 301 799 C 265 799 236 811 213 836 C 189 861 176 901 173 955 L 227 955 C 229 923 236 896 247 876 C 258 856 276 846 301 846 C 325 846 343 855 355 875 C 366 895 373 921 375 955 Z" unicode="Ŭ" />
<glyph horiz-adv-x="449" d="M 56 0 L 56 0 Z M 56 482 L 120 482 L 120 149 C 120 113 129 86 147 70 C 165 53 189 45 219 45 C 247 45 272 54 294 73 C 316 92 327 124 327 168 L 327 482 L 391 482 L 391 0 L 331 0 L 331 83 C 323 57 307 36 283 19 C 259 1 230 -7 194 -7 C 156 -7 123 4 96 27 C 69 49 56 84 56 132 L 56 482 Z M 223 551 L 223 551 Z M 297 707 L 352 707 C 348 653 335 613 311 588 C 287 563 258 551 223 551 C 187 551 158 563 135 588 C 111 613 98 653 95 707 L 149 707 C 151 675 158 648 169 628 C 180 608 198 598 223 598 C 247 598 265 607 277 627 C 288 647 295 673 297 707 Z" unicode="ŭ" />
<glyph horiz-adv-x="604" d="M 75 0 L 75 0 Z M 530 730 L 530 230 C 530 189 523 153 511 123 C 499 93 482 68 462 49 C 441 29 416 15 388 5 C 360 -4 330 -9 299 -9 C 269 -9 240 -4 213 4 C 185 13 161 27 141 47 C 121 66 105 91 93 121 C 81 151 75 188 75 230 L 75 730 L 144 730 L 144 229 C 144 169 159 124 189 96 C 219 67 257 53 301 53 C 344 53 381 66 412 94 C 443 121 459 166 459 229 L 459 730 L 530 730 Z M 301 786 L 301 786 Z M 301 786 C 269 786 243 797 221 819 C 199 841 188 867 188 899 C 188 930 199 957 221 979 C 243 1001 269 1013 301 1013 C 333 1013 360 1001 382 979 C 404 957 415 930 415 899 C 415 867 404 841 382 819 C 360 797 333 786 301 786 Z M 301 825 C 321 825 339 832 353 846 C 367 860 374 878 374 899 C 374 919 367 937 353 952 C 339 966 321 974 301 974 C 281 974 263 966 249 952 C 235 937 228 919 228 899 C 228 878 235 860 249 846 C 263 832 281 825 301 825 Z" unicode="Ů" />
<glyph horiz-adv-x="449" d="M 56 0 L 56 0 Z M 56 482 L 120 482 L 120 149 C 120 113 129 86 147 70 C 165 53 189 45 219 45 C 247 45 272 54 294 73 C 316 92 327 124 327 168 L 327 482 L 391 482 L 391 0 L 331 0 L 331 83 C 323 57 307 36 283 19 C 259 1 230 -7 194 -7 C 156 -7 123 4 96 27 C 69 49 56 84 56 132 L 56 482 Z M 223 538 L 223 538 Z M 223 538 C 191 538 165 549 143 571 C 121 593 110 619 110 651 C 110 682 121 709 143 731 C 165 753 191 765 223 765 C 255 765 282 753 304 731 C 326 709 337 682 337 651 C 337 619 326 593 304 571 C 282 549 255 538 223 538 Z M 223 577 C 243 577 261 584 275 598 C 289 612 296 630 296 651 C 296 671 289 689 275 704 C 261 718 243 726 223 726 C 203 726 185 718 171 704 C 157 689 150 671 150 651 C 150 630 157 612 171 598 C 185 584 203 577 223 577 Z" unicode="ů" />
<glyph horiz-adv-x="604" d="M 75 0 L 75 0 Z M 530 730 L 530 230 C 530 189 523 153 511 123 C 499 93 482 68 462 49 C 441 29 416 15 388 5 C 360 -4 330 -9 299 -9 C 269 -9 240 -4 213 4 C 185 13 161 27 141 47 C 121 66 105 91 93 121 C 81 151 75 188 75 230 L 75 730 L 144 730 L 144 229 C 144 169 159 124 189 96 C 219 67 257 53 301 53 C 344 53 381 66 412 94 C 443 121 459 166 459 229 L 459 730 L 530 730 Z M 301 791 L 301 791 Z M 153 791 L 224 945 L 294 945 L 211 791 L 153 791 Z M 309 791 L 381 945 L 450 945 L 368 791 L 309 791 Z" unicode="Ű" />
<glyph horiz-adv-x="449" d="M 56 0 L 56 0 Z M 56 482 L 120 482 L 120 149 C 120 113 129 86 147 70 C 165 53 189 45 219 45 C 247 45 272 54 294 73 C 316 92 327 124 327 168 L 327 482 L 391 482 L 391 0 L 331 0 L 331 83 C 323 57 307 36 283 19 C 259 1 230 -7 194 -7 C 156 -7 123 4 96 27 C 69 49 56 84 56 132 L 56 482 Z M 223 543 L 223 543 Z M 75 543 L 146 697 L 216 697 L 133 543 L 75 543 Z M 231 543 L 303 697 L 372 697 L 290 543 L 231 543 Z" unicode="ű" />
<glyph horiz-adv-x="604" d="M 75 0 L 75 0 Z M 530 730 L 530 230 C 530 189 523 153 511 123 C 499 93 482 68 462 49 C 441 29 416 15 388 5 C 360 -4 330 -9 299 -9 C 269 -9 240 -4 213 4 C 185 13 161 27 141 47 C 121 66 105 91 93 121 C 81 151 75 188 75 230 L 75 730 L 144 730 L 144 229 C 144 169 159 124 189 96 C 219 67 257 53 301 53 C 344 53 381 66 412 94 C 443 121 459 166 459 229 L 459 730 L 530 730 Z M 335 -10 L 335 -10 Z M 438 -110 L 457 -137 C 438 -156 417 -171 394 -181 C 370 -191 344 -197 316 -197 C 285 -197 261 -189 243 -175 C 225 -161 217 -142 217 -120 C 217 -96 227 -73 247 -52 C 267 -30 299 -12 341 3 L 378 2 C 344 -12 318 -28 300 -44 C 281 -60 272 -77 272 -95 C 272 -111 278 -124 290 -134 C 302 -143 317 -148 336 -148 C 356 -148 375 -144 393 -137 C 411 -130 426 -121 438 -110 Z" unicode="Ų" />
<glyph horiz-adv-x="449" d="M 56 0 L 56 0 Z M 56 482 L 120 482 L 120 149 C 120 113 129 86 147 70 C 165 53 189 45 219 45 C 247 45 272 54 294 73 C 316 92 327 124 327 168 L 327 482 L 391 482 L 391 0 L 331 0 L 331 83 C 323 57 307 36 283 19 C 259 1 230 -7 194 -7 C 156 -7 123 4 96 27 C 69 49 56 84 56 132 L 56 482 Z M 326 -10 L 326 -10 Z M 429 -110 L 448 -137 C 429 -156 408 -171 385 -181 C 361 -191 335 -197 307 -197 C 276 -197 252 -189 234 -175 C 216 -161 208 -142 208 -120 C 208 -96 218 -73 238 -52 C 258 -30 290 -12 332 3 L 369 2 C 335 -12 309 -28 291 -44 C 272 -60 263 -77 263 -95 C 263 -111 269 -124 281 -134 C 293 -143 308 -148 327 -148 C 347 -148 366 -144 384 -137 C 402 -130 417 -121 429 -110 Z" unicode="ų" />
<glyph horiz-adv-x="758" d="M 10 0 L 10 0 Z M 741 730 L 567 -5 L 521 -5 L 376 597 L 228 -5 L 182 -5 L 10 730 L 78 730 L 212 134 L 354 730 L 403 730 L 544 134 L 679 730 L 741 730 Z M 378 792 L 378 792 Z M 513 792 L 455 792 L 378 917 L 299 792 L 244 792 L 349 962 L 408 962 L 513 792 Z" unicode="Ŵ" />
<glyph horiz-adv-x="584" d="M 5 0 L 5 0 Z M 394 -2 L 294 327 L 189 -2 L 141 -2 L 5 482 L 67 482 L 172 97 L 273 422 L 319 422 L 415 98 L 522 482 L 580 482 L 441 -2 L 394 -2 Z M 293 544 L 293 544 Z M 428 544 L 370 544 L 293 669 L 214 544 L 159 544 L 264 714 L 323 714 L 428 544 Z" unicode="ŵ" />
<glyph horiz-adv-x="509" d="M 2 0 L 2 0 Z M 511 730 L 289 310 L 289 0 L 219 0 L 219 311 L 2 730 L 80 730 L 258 380 L 441 730 L 511 730 Z M 258 792 L 258 792 Z M 393 792 L 335 792 L 258 917 L 179 792 L 124 792 L 229 962 L 288 962 L 393 792 Z" unicode="Ŷ" />
<glyph horiz-adv-x="374" d="M 0 0 L 0 0 Z M 374 482 L 175 -102 C 161 -137 144 -162 122 -177 C 100 -192 77 -200 55 -200 C 39 -200 26 -198 16 -195 C 5 -192 -2 -189 -7 -187 L 15 -133 C 17 -135 22 -137 30 -139 C 38 -141 46 -143 55 -143 C 67 -143 79 -137 92 -127 C 104 -116 115 -99 124 -76 L 159 33 L -1 482 L 67 482 L 191 116 L 311 482 L 374 482 Z M 189 544 L 189 544 Z M 324 544 L 266 544 L 189 669 L 110 544 L 55 544 L 160 714 L 219 714 L 324 544 Z" unicode="ŷ" />
<glyph horiz-adv-x="513" d="M 2 0 L 2 0 Z M 511 730 L 289 310 L 289 0 L 219 0 L 219 311 L 2 730 L 80 730 L 258 380 L 441 730 L 511 730 Z M 258 793 L 258 793 Z M 361 793 L 308 793 L 308 948 L 361 948 L 361 793 Z M 208 793 L 155 793 L 155 948 L 208 948 L 208 793 Z" unicode="Ÿ" />
<glyph horiz-adv-x="466" d="M 17 0 L 17 0 Z M 439 730 L 439 696 L 105 61 L 451 61 L 451 0 L 17 0 L 17 32 L 350 668 L 51 668 L 51 730 L 439 730 Z M 242 792 L 242 792 Z M 161 792 L 250 961 L 324 961 L 224 792 L 161 792 Z" unicode="Ź" />
<glyph horiz-adv-x="344" d="M 14 0 L 14 0 Z M 322 482 L 322 452 L 98 56 L 332 56 L 332 0 L 14 0 L 14 26 L 241 426 L 27 426 L 27 482 L 322 482 Z M 177 544 L 177 544 Z M 96 544 L 185 713 L 259 713 L 159 544 L 96 544 Z" unicode="ź" />
<glyph horiz-adv-x="466" d="M 17 0 L 17 0 Z M 439 730 L 439 696 L 105 61 L 451 61 L 451 0 L 17 0 L 17 32 L 350 668 L 51 668 L 51 730 L 439 730 Z M 242 800 L 242 800 Z M 272 800 L 212 800 L 212 925 L 272 925 L 272 800 Z" unicode="Ż" />
<glyph horiz-adv-x="344" d="M 14 0 L 14 0 Z M 322 482 L 322 452 L 98 56 L 332 56 L 332 0 L 14 0 L 14 26 L 241 426 L 27 426 L 27 482 L 322 482 Z M 177 552 L 177 552 Z M 207 552 L 147 552 L 147 677 L 207 677 L 207 552 Z" unicode="ż" />
<glyph horiz-adv-x="470" d="M 17 0 L 17 0 Z M 439 730 L 439 696 L 105 61 L 451 61 L 451 0 L 17 0 L 17 32 L 350 668 L 51 668 L 51 730 L 439 730 Z M 242 792 L 242 792 Z M 108 962 L 165 962 L 243 837 L 321 962 L 377 962 L 272 792 L 213 792 L 108 962 Z" unicode="Ž" />
<glyph horiz-adv-x="344" d="M 14 0 L 14 0 Z M 322 482 L 322 452 L 98 56 L 332 56 L 332 0 L 14 0 L 14 26 L 241 426 L 27 426 L 27 482 L 322 482 Z M 177 544 L 177 544 Z M 43 714 L 100 714 L 178 589 L 256 714 L 312 714 L 207 544 L 148 544 L 43 714 Z" unicode="ž" />
<glyph horiz-adv-x="347" d="M 167 -68 C 164 -100 151 -126 129 -147 C 106 -168 79 -179 47 -179 C 31 -179 16 -177 2 -175 C -11 -173 -22 -170 -29 -168 L -22 -120 C -17 -120 -10 -121 -1 -123 C 8 -125 17 -126 26 -126 C 46 -126 65 -118 82 -104 C 98 -90 108 -70 111 -44 L 145 340 L 50 340 L 50 396 L 151 396 L 172 635 C 174 668 187 693 209 711 C 231 729 254 738 277 738 C 289 738 300 737 311 736 C 321 735 328 734 331 734 L 325 676 C 323 676 319 677 313 678 C 307 678 301 679 295 679 C 276 679 260 672 248 660 C 235 647 228 627 226 601 L 208 396 L 314 396 L 314 340 L 203 340 L 167 -68 Z" unicode="ƒ" />
<glyph horiz-adv-x="443" d="M 29 0 L 29 0 Z M 225 -9 C 183 -9 146 -1 113 13 C 80 27 52 50 29 80 L 71 128 C 89 100 111 80 139 67 C 167 54 194 48 222 48 C 254 48 283 59 307 82 C 331 104 343 134 343 172 C 343 208 333 239 315 265 C 296 290 261 317 210 346 C 154 376 113 407 87 438 C 60 469 47 512 47 567 C 47 619 63 660 97 692 C 131 723 172 739 222 739 C 261 739 294 732 322 719 C 349 705 372 689 390 671 L 351 622 C 335 638 316 651 294 662 C 272 672 248 678 223 678 C 192 678 166 667 145 647 C 123 627 113 599 113 565 C 113 529 123 500 142 478 C 161 456 198 430 252 401 C 311 368 352 334 375 300 C 397 266 409 225 409 177 C 409 147 404 121 394 98 C 384 75 370 56 353 40 C 336 24 316 11 294 3 C 272 -4 249 -9 225 -9 Z M 207 -76 L 207 -76 Z M 281 -76 C 277 -120 266 -163 248 -207 C 229 -251 207 -287 182 -317 L 133 -294 C 140 -284 148 -270 157 -254 C 165 -238 173 -220 181 -201 C 189 -182 195 -162 201 -140 C 207 -118 211 -97 213 -76 L 281 -76 Z" unicode="Ș" />
<glyph horiz-adv-x="340" d="M 26 0 L 26 0 Z M 179 -7 C 145 -7 115 -1 89 11 C 63 23 42 39 26 59 L 59 102 C 72 85 89 72 109 62 C 129 52 151 47 174 47 C 194 47 213 53 230 67 C 246 80 255 99 255 125 C 255 146 247 164 231 180 C 215 195 188 211 152 229 C 112 247 83 267 65 288 C 47 309 39 337 39 371 C 39 405 51 433 77 455 C 103 477 134 489 170 489 C 200 489 227 484 249 474 C 271 464 288 454 301 443 L 272 396 C 261 404 247 413 230 422 C 213 430 194 435 174 435 C 153 435 135 429 119 418 C 103 407 96 391 96 371 C 96 352 102 336 115 324 C 127 312 153 296 191 278 C 234 256 265 234 284 212 C 302 190 312 161 312 125 C 312 103 308 84 300 68 C 292 52 282 38 270 27 C 258 15 244 7 228 1 C 212 -4 195 -7 179 -7 Z M 162 -75 L 162 -75 Z M 236 -75 C 232 -119 221 -162 203 -206 C 184 -250 162 -286 137 -316 L 88 -293 C 95 -283 103 -269 112 -253 C 120 -237 128 -219 136 -200 C 144 -181 150 -161 156 -139 C 162 -117 166 -96 168 -75 L 236 -75 Z" unicode="ș" />
<glyph horiz-adv-x="419" d="M 8 0 L 8 0 Z M 410 668 L 243 668 L 243 0 L 173 0 L 173 668 L 8 668 L 8 730 L 410 730 L 410 668 Z M 184 -73 L 184 -73 Z M 258 -73 C 254 -117 243 -160 225 -204 C 206 -248 184 -284 159 -314 L 110 -291 C 117 -281 125 -267 134 -251 C 142 -235 150 -217 158 -198 C 166 -179 172 -159 178 -137 C 184 -115 188 -94 190 -73 L 258 -73 Z" unicode="Ț" />
<glyph horiz-adv-x="231" d="M 13 0 L 13 0 Z M 213 62 L 223 11 C 218 7 210 3 200 0 C 190 -2 178 -4 164 -4 C 141 -4 119 4 99 20 C 78 36 68 63 68 101 L 68 427 L 13 427 L 13 482 L 69 482 L 69 598 L 132 606 L 132 482 L 213 482 L 213 427 L 133 427 L 133 103 C 133 87 137 74 145 66 C 153 58 164 54 178 54 C 184 54 191 55 198 57 C 205 59 210 60 213 62 Z M 113 -73 L 113 -73 Z M 187 -73 C 183 -117 172 -160 154 -204 C 135 -248 113 -284 88 -314 L 39 -291 C 46 -281 54 -267 63 -251 C 71 -235 79 -217 87 -198 C 95 -179 101 -159 107 -137 C 113 -115 117 -94 119 -73 L 187 -73 Z" unicode="ț" />
<glyph horiz-adv-x="192" d="M 133 482 L 133 -81 C 133 -115 122 -143 102 -164 C 82 -184 57 -195 29 -195 C 18 -195 7 -193 -4 -190 C -15 -187 -23 -184 -28 -181 L -13 -133 C -9 -134 -5 -135 0 -137 C 5 -138 11 -139 18 -139 C 30 -139 42 -133 53 -122 C 63 -111 69 -95 69 -75 L 69 482 L 133 482 Z" unicode="ȷ" />
<glyph horiz-adv-x="500" d="M 385 544 L 327 544 L 250 669 L 171 544 L 116 544 L 221 714 L 280 714 L 385 544 Z" unicode="ˆ" />
<glyph horiz-adv-x="500" d="M 116 714 L 173 714 L 251 589 L 329 714 L 385 714 L 280 544 L 221 544 L 116 714 Z" unicode="ˇ" />
<glyph horiz-adv-x="500" d="M 324 707 L 379 707 C 375 653 362 613 338 588 C 314 563 285 551 250 551 C 214 551 185 563 162 588 C 138 613 125 653 122 707 L 176 707 C 178 675 185 648 196 628 C 207 608 225 598 250 598 C 274 598 292 607 304 627 C 315 647 322 673 324 707 Z" unicode="˘" />
<glyph horiz-adv-x="500" d="M 280 552 L 220 552 L 220 677 L 280 677 L 280 552 Z" unicode="˙" />
<glyph horiz-adv-x="502" d="M 251 538 C 219 538 193 549 171 571 C 149 593 138 619 138 651 C 138 682 149 709 171 731 C 193 753 219 765 251 765 C 283 765 310 753 332 731 C 354 709 365 682 365 651 C 365 619 354 593 332 571 C 310 549 283 538 251 538 Z M 251 577 C 271 577 289 584 303 598 C 317 612 324 630 324 651 C 324 671 317 689 303 704 C 289 718 271 726 251 726 C 231 726 213 718 199 704 C 185 689 178 671 178 651 C 178 630 185 612 199 598 C 213 584 231 577 251 577 Z" unicode="˚" />
<glyph horiz-adv-x="500" d="M 355 -100 L 374 -127 C 355 -146 334 -161 311 -171 C 287 -181 261 -187 233 -187 C 202 -187 178 -179 160 -165 C 142 -151 134 -132 134 -110 C 134 -86 144 -63 164 -42 C 184 -20 216 -2 258 13 L 295 12 C 261 -2 235 -18 217 -34 C 198 -50 189 -67 189 -85 C 189 -101 195 -114 207 -124 C 219 -133 234 -138 253 -138 C 273 -138 292 -134 310 -127 C 328 -120 343 -111 355 -100 Z" unicode="˛" />
<glyph horiz-adv-x="500" d="M 350 680 L 399 680 C 399 636 393 604 381 583 C 369 562 353 552 334 552 C 316 552 301 556 288 565 C 275 574 263 583 253 592 C 243 600 233 609 223 617 C 213 625 202 630 192 630 C 182 630 173 623 166 611 C 158 598 154 580 154 557 L 105 557 C 105 599 112 631 128 653 C 143 674 160 685 179 685 C 194 685 208 680 221 671 C 233 662 245 653 256 643 C 265 634 274 626 284 618 C 294 610 304 607 314 607 C 323 607 331 613 339 626 C 346 638 350 656 350 680 Z" unicode="˜" />
<glyph horiz-adv-x="500" d="M 114 543 L 185 697 L 255 697 L 172 543 L 114 543 Z M 270 543 L 342 697 L 411 697 L 329 543 L 270 543 Z" unicode="˝" />
<glyph horiz-adv-x="0" d="M 0 543 L 0 543 Z M 82 543 L 18 543 L -82 712 L -8 712 L 82 543 Z" unicode="̀" />
<glyph horiz-adv-x="0" d="M 0 544 L 0 544 Z M -81 544 L 8 713 L 82 713 L -18 544 L -81 544 Z" unicode="́" />
<glyph horiz-adv-x="0" d="M 0 544 L 0 544 Z M 135 544 L 77 544 L 0 669 L -79 544 L -134 544 L -29 714 L 30 714 L 135 544 Z" unicode="̂" />
<glyph horiz-adv-x="0" d="M 0 552 L 0 552 Z M 99 680 L 148 680 C 148 636 142 604 130 583 C 118 562 102 552 83 552 C 65 552 50 556 37 565 C 24 574 12 583 2 592 C -8 600 -18 609 -28 617 C -38 625 -48 630 -59 630 C -69 630 -77 623 -85 611 C -92 598 -96 580 -97 557 L -146 557 C -146 599 -138 631 -123 653 C -107 674 -90 685 -72 685 C -56 685 -42 680 -30 671 C -17 662 -5 653 5 643 C 14 634 23 626 33 618 C 43 610 53 607 63 607 C 72 607 80 613 88 626 C 95 638 99 656 99 680 Z" unicode="̃" />
<glyph horiz-adv-x="0" d="M 0 571 L 0 571 Z M 118 571 L -118 571 L -118 623 L 118 623 L 118 571 Z" unicode="̄" />
<glyph horiz-adv-x="0" d="M 0 551 L 0 551 Z M 74 707 L 129 707 C 125 653 112 613 88 588 C 64 563 35 551 0 551 C -35 551 -64 563 -88 588 C -111 613 -124 653 -128 707 L -74 707 C -71 675 -64 648 -53 628 C -42 608 -24 598 0 598 C 24 598 42 607 54 627 C 65 647 72 673 74 707 Z" unicode="̆" />
<glyph horiz-adv-x="0" d="M 0 552 L 0 552 Z M 30 552 L -30 552 L -30 677 L 30 677 L 30 552 Z" unicode="̇" />
<glyph horiz-adv-x="0" d="M 0 545 L 0 545 Z M 103 545 L 50 545 L 50 700 L 103 700 L 103 545 Z M -50 545 L -103 545 L -103 700 L -50 700 L -50 545 Z" unicode="̈" />
<glyph horiz-adv-x="0" d="M 0 538 L 0 538 Z M 0 538 C -31 538 -58 549 -80 571 C -102 593 -113 619 -113 651 C -113 682 -102 709 -80 731 C -58 753 -31 765 0 765 C 32 765 59 753 81 731 C 103 709 114 682 114 651 C 114 619 103 593 81 571 C 59 549 32 538 0 538 Z M 0 577 C 20 577 38 584 52 598 C 66 612 73 630 73 651 C 73 671 66 689 52 704 C 38 718 20 726 0 726 C -20 726 -37 718 -51 704 C -65 689 -73 671 -73 651 C -73 630 -65 612 -51 598 C -37 584 -20 577 0 577 Z" unicode="̊" />
<glyph horiz-adv-x="0" d="M 0 543 L 0 543 Z M -148 543 L -77 697 L -7 697 L -90 543 L -148 543 Z M 8 543 L 80 697 L 149 697 L 67 543 L 8 543 Z" unicode="̋" />
<glyph horiz-adv-x="0" d="M 0 544 L 0 544 Z M -134 714 L -77 714 L 1 589 L 79 714 L 135 714 L 30 544 L -29 544 L -134 714 Z" unicode="̌" />
<glyph horiz-adv-x="0" d="M 0 -73 L 0 -73 Z M 74 -73 C 70 -117 59 -160 41 -204 C 22 -248 0 -284 -25 -314 L -74 -291 C -66 -281 -58 -267 -50 -251 C -41 -235 -33 -217 -25 -198 C -17 -179 -11 -159 -5 -137 C 0 -115 4 -94 6 -73 L 74 -73 Z" unicode="̦" />
<glyph horiz-adv-x="0" d="M 0 0 L 0 0 Z M 7 -183 C -13 -183 -34 -180 -55 -174 C -76 -168 -93 -160 -106 -150 L -93 -121 C -84 -127 -72 -134 -57 -140 C -42 -146 -25 -149 -7 -149 C 9 -149 22 -145 34 -137 C 46 -129 52 -119 52 -107 C 52 -92 46 -81 36 -75 C 25 -69 14 -66 2 -66 C -6 -66 -14 -66 -20 -68 C -26 -70 -32 -72 -40 -75 L -51 -61 L 4 10 L 40 10 L -5 -52 C 25 -44 52 -46 74 -57 C 96 -68 107 -86 107 -110 C 107 -133 97 -151 77 -164 C 57 -176 33 -183 7 -183 Z" unicode="̧" />
<glyph horiz-adv-x="0" d="M 0 0 L 0 0 Z M 103 -100 L 122 -127 C 103 -146 82 -161 59 -171 C 35 -181 9 -187 -19 -187 C -49 -187 -73 -179 -91 -165 C -109 -151 -118 -132 -118 -110 C -118 -86 -107 -63 -87 -42 C -67 -20 -36 -2 6 13 L 43 12 C 9 -2 -16 -18 -35 -34 C -53 -50 -63 -67 -63 -85 C -63 -101 -57 -114 -45 -124 C -33 -133 -17 -138 1 -138 C 21 -138 40 -134 58 -127 C 76 -120 91 -111 103 -100 Z" unicode="̨" />
<glyph horiz-adv-x="568" d="M 2 0 L 2 0 Z M 564 0 L 2 0 L 270 730 L 298 730 L 564 0 Z M 478 52 L 282 616 L 86 52 L 478 52 Z" unicode="Δ" />
<glyph horiz-adv-x="724" d="M 34 0 L 34 0 Z M 43 0 L 43 60 L 257 60 L 257 143 C 222 154 191 170 163 190 C 135 210 112 234 93 260 C 74 286 59 315 49 346 C 39 377 34 409 34 441 C 34 483 41 523 56 560 C 70 597 91 629 119 657 C 147 684 180 705 220 721 C 259 737 303 745 352 745 C 402 745 448 737 489 721 C 529 705 563 683 591 656 C 619 628 640 596 655 559 C 669 522 677 483 677 441 C 677 409 672 377 662 346 C 652 315 638 287 620 261 C 601 235 578 211 550 191 C 522 170 490 154 454 143 L 454 60 L 668 60 L 668 0 L 404 0 L 404 178 C 436 188 465 202 490 221 C 515 239 536 260 553 283 C 570 306 583 331 592 358 C 601 384 606 411 606 438 C 606 474 599 508 587 539 C 575 570 558 597 536 619 C 514 641 487 658 456 671 C 424 683 390 690 352 690 C 314 690 280 683 250 671 C 220 658 194 640 172 618 C 150 596 134 569 122 538 C 110 507 105 473 105 436 C 105 410 109 384 118 358 C 126 332 139 307 156 284 C 173 261 194 240 220 222 C 245 203 274 188 307 178 L 307 0 L 43 0 Z" unicode="Ω" />
<glyph horiz-adv-x="594" d="M 79 0 L 79 0 Z M 79 -124 L 79 499 L 143 499 L 143 156 C 143 122 157 94 185 74 C 213 53 246 43 282 43 C 300 43 319 46 338 52 C 357 58 374 66 390 78 C 405 90 417 105 427 123 C 437 141 442 162 442 187 L 442 499 L 506 499 L 506 0 L 447 0 L 447 110 C 437 78 415 51 381 28 C 347 4 310 -7 271 -8 C 242 -8 215 -1 190 11 C 165 23 148 41 138 64 L 138 -124 L 79 -124 Z" unicode="μ" />
<glyph horiz-adv-x="543" d="M 156 458 L 156 0 L 92 0 L 92 458 L 15 458 L 15 510 L 528 510 L 528 458 L 445 458 L 445 0 L 380 0 L 380 458 L 156 458 Z" unicode="π" />
<glyph horiz-adv-x="758" d="M 10 0 L 10 0 Z M 741 730 L 567 -5 L 521 -5 L 376 597 L 228 -5 L 182 -5 L 10 730 L 78 730 L 212 134 L 354 730 L 403 730 L 544 134 L 679 730 L 741 730 Z M 378 791 L 378 791 Z M 460 791 L 396 791 L 296 960 L 370 960 L 460 791 Z" unicode="Ẁ" />
<glyph horiz-adv-x="584" d="M 5 0 L 5 0 Z M 394 -2 L 294 327 L 189 -2 L 141 -2 L 5 482 L 67 482 L 172 97 L 273 422 L 319 422 L 415 98 L 522 482 L 580 482 L 441 -2 L 394 -2 Z M 293 543 L 293 543 Z M 375 543 L 311 543 L 211 712 L 285 712 L 375 543 Z" unicode="ẁ" />
<glyph horiz-adv-x="758" d="M 10 0 L 10 0 Z M 741 730 L 567 -5 L 521 -5 L 376 597 L 228 -5 L 182 -5 L 10 730 L 78 730 L 212 134 L 354 730 L 403 730 L 544 134 L 679 730 L 741 730 Z M 378 792 L 378 792 Z M 297 792 L 386 961 L 460 961 L 360 792 L 297 792 Z" unicode="Ẃ" />
<glyph horiz-adv-x="584" d="M 5 0 L 5 0 Z M 394 -2 L 294 327 L 189 -2 L 141 -2 L 5 482 L 67 482 L 172 97 L 273 422 L 319 422 L 415 98 L 522 482 L 580 482 L 441 -2 L 394 -2 Z M 293 544 L 293 544 Z M 212 544 L 301 713 L 375 713 L 275 544 L 212 544 Z" unicode="ẃ" />
<glyph horiz-adv-x="758" d="M 10 0 L 10 0 Z M 741 730 L 567 -5 L 521 -5 L 376 597 L 228 -5 L 182 -5 L 10 730 L 78 730 L 212 134 L 354 730 L 403 730 L 544 134 L 679 730 L 741 730 Z M 378 793 L 378 793 Z M 481 793 L 428 793 L 428 948 L 481 948 L 481 793 Z M 328 793 L 275 793 L 275 948 L 328 948 L 328 793 Z" unicode="Ẅ" />
<glyph horiz-adv-x="584" d="M 5 0 L 5 0 Z M 394 -2 L 294 327 L 189 -2 L 141 -2 L 5 482 L 67 482 L 172 97 L 273 422 L 319 422 L 415 98 L 522 482 L 580 482 L 441 -2 L 394 -2 Z M 293 545 L 293 545 Z M 396 545 L 343 545 L 343 700 L 396 700 L 396 545 Z M 243 545 L 190 545 L 190 700 L 243 700 L 243 545 Z" unicode="ẅ" />
<glyph horiz-adv-x="509" d="M 2 0 L 2 0 Z M 511 730 L 289 310 L 289 0 L 219 0 L 219 311 L 2 730 L 80 730 L 258 380 L 441 730 L 511 730 Z M 258 791 L 258 791 Z M 340 791 L 276 791 L 176 960 L 250 960 L 340 791 Z" unicode="Ỳ" />
<glyph horiz-adv-x="374" d="M 0 0 L 0 0 Z M 374 482 L 175 -102 C 161 -137 144 -162 122 -177 C 100 -192 77 -200 55 -200 C 39 -200 26 -198 16 -195 C 5 -192 -2 -189 -7 -187 L 15 -133 C 17 -135 22 -137 30 -139 C 38 -141 46 -143 55 -143 C 67 -143 79 -137 92 -127 C 104 -116 115 -99 124 -76 L 159 33 L -1 482 L 67 482 L 191 116 L 311 482 L 374 482 Z M 189 543 L 189 543 Z M 271 543 L 207 543 L 107 712 L 181 712 L 271 543 Z" unicode="ỳ" />
<glyph horiz-adv-x="460" d="M 418 229 L 42 229 L 42 286 L 418 286 L 418 229 Z" unicode="–" />
<glyph horiz-adv-x="645" d="M 603 229 L 42 229 L 42 286 L 603 286 L 603 229 Z" unicode="—" />
<glyph horiz-adv-x="218" d="M 41 507 L 41 514 C 41 556 48 595 64 632 C 79 669 102 704 134 737 L 195 731 C 175 709 155 680 137 644 C 118 608 109 565 109 515 L 109 507 L 41 507 Z" unicode="‘" />
<glyph horiz-adv-x="218" d="M 177 737 L 177 730 C 177 688 169 648 154 612 C 138 575 115 540 84 507 L 23 513 C 43 536 62 565 81 601 C 99 637 109 679 109 729 L 109 737 L 177 737 Z" unicode="’" />
<glyph horiz-adv-x="219" d="M 176 108 L 176 101 C 176 59 168 19 153 -17 C 137 -53 114 -88 83 -122 L 22 -116 C 42 -92 61 -63 80 -27 C 98 8 108 50 108 100 L 108 108 L 176 108 Z" unicode="‚" />
<glyph horiz-adv-x="362" d="M 192 507 L 192 514 C 192 552 200 589 216 626 C 232 662 258 699 293 737 L 351 731 C 342 721 332 709 321 695 C 309 681 299 664 289 646 C 279 628 271 607 265 585 C 258 563 255 539 255 515 L 255 507 L 192 507 Z M 42 507 L 42 514 C 42 552 50 589 67 626 C 84 662 109 699 143 737 L 201 731 C 192 722 182 710 171 696 C 160 681 150 664 140 646 C 130 628 122 607 115 585 C 108 563 105 539 105 515 L 105 507 L 42 507 Z" unicode="“" />
<glyph horiz-adv-x="362" d="M 172 737 L 172 730 C 172 688 164 648 150 612 C 135 576 112 541 80 507 L 22 513 C 43 537 63 566 81 602 C 99 637 109 679 109 729 L 109 737 L 172 737 Z M 320 737 L 320 730 C 320 688 312 648 297 612 C 281 576 258 541 228 507 L 169 513 C 191 537 211 567 229 602 C 247 637 257 679 257 729 L 257 737 L 320 737 Z" unicode="”" />
<glyph horiz-adv-x="365" d="M 172 109 L 172 102 C 172 60 164 20 150 -15 C 135 -51 112 -87 80 -121 L 22 -115 C 43 -90 63 -60 81 -25 C 99 9 108 51 108 101 L 108 109 L 172 109 Z M 322 109 L 322 102 C 322 60 314 20 299 -15 C 284 -51 261 -87 231 -121 L 172 -115 C 194 -90 214 -60 232 -25 C 250 9 259 51 259 101 L 259 109 L 322 109 Z" unicode="„" />
<glyph horiz-adv-x="450" d="M 429 409 L 256 409 L 256 -179 L 188 -179 L 188 409 L 21 409 L 21 471 L 188 471 L 188 730 L 256 730 L 256 471 L 429 471 L 429 409 Z" unicode="†" />
<glyph horiz-adv-x="454" d="M 191 -179 L 191 130 L 26 130 L 26 192 L 191 192 L 191 394 L 26 394 L 26 456 L 191 456 L 191 730 L 258 730 L 258 456 L 428 456 L 428 394 L 258 394 L 258 192 L 428 192 L 428 130 L 258 130 L 258 -179 L 191 -179 Z" unicode="‡" />
<glyph horiz-adv-x="382" d="M 191 442 C 208 442 223 435 235 423 C 247 411 254 396 254 379 C 254 361 247 347 235 335 C 223 323 208 317 191 317 C 173 317 159 323 147 335 C 135 347 129 361 129 379 C 129 396 135 411 147 423 C 159 435 173 442 191 442 Z" unicode="•" />
<glyph horiz-adv-x="597" d="M 66 0 L 66 111 L 133 111 L 133 0 L 66 0 Z M 265 0 L 265 111 L 332 111 L 332 0 L 265 0 Z M 464 0 L 464 111 L 530 111 L 530 0 L 464 0 Z" unicode="…" />
<glyph horiz-adv-x="1018" d="M 178 362 C 161 362 144 366 128 374 C 112 382 97 393 84 409 C 71 425 61 444 53 468 C 45 492 42 519 42 551 C 42 577 45 602 52 625 C 58 648 68 668 80 685 C 92 702 106 716 123 726 C 140 736 158 741 178 741 C 199 741 218 736 235 726 C 252 716 267 702 279 685 C 291 668 300 648 307 626 C 313 603 317 579 317 554 C 317 527 313 502 306 478 C 299 454 289 434 277 417 C 265 400 250 387 233 377 C 216 367 198 362 178 362 Z M 101 0 L 536 730 L 589 730 L 154 0 L 101 0 Z M 97 550 C 97 514 103 482 117 454 C 130 426 150 412 177 412 C 191 412 204 415 215 423 C 225 431 234 441 241 454 C 248 466 253 481 256 498 C 259 515 261 532 261 550 C 261 567 259 584 256 601 C 253 618 248 633 242 646 C 236 659 227 670 217 678 C 207 686 194 690 180 690 C 166 690 153 686 143 678 C 132 670 123 660 117 647 C 110 634 105 619 102 602 C 98 585 97 568 97 550 Z M 525 -3 C 507 -3 490 1 474 9 C 457 17 442 28 430 44 C 417 60 407 79 399 103 C 391 127 387 154 387 186 C 387 212 390 237 397 260 C 403 283 413 303 425 320 C 437 337 452 351 469 361 C 486 371 505 376 526 376 C 547 376 566 371 584 361 C 601 351 615 337 627 320 C 639 303 648 283 654 261 C 660 238 664 214 664 189 C 664 162 660 137 654 113 C 647 89 637 69 625 52 C 613 35 598 22 581 12 C 564 2 545 -3 525 -3 Z M 837 -3 C 819 -3 802 1 786 9 C 769 17 754 28 742 44 C 729 60 719 79 711 103 C 703 127 699 154 699 186 C 699 212 702 237 709 260 C 715 283 725 303 737 320 C 749 337 764 351 782 361 C 799 371 818 376 839 376 C 860 376 879 371 896 361 C 913 351 927 337 939 320 C 951 303 960 283 966 261 C 972 238 976 214 976 189 C 976 162 972 137 966 113 C 959 89 949 69 937 52 C 925 35 910 22 893 12 C 876 2 857 -3 837 -3 Z M 524 48 C 538 48 551 51 562 59 C 572 67 581 77 588 90 C 595 102 600 117 604 134 C 607 150 609 168 609 186 C 609 203 607 220 604 237 C 600 254 595 269 589 282 C 582 295 573 306 563 314 C 553 322 540 326 526 326 C 512 326 499 322 489 314 C 479 306 470 296 464 283 C 457 270 452 255 448 238 C 444 221 443 204 443 186 C 443 148 449 116 463 89 C 477 61 497 48 524 48 Z M 836 48 C 850 48 863 51 874 59 C 884 67 893 77 900 90 C 907 102 912 117 916 134 C 919 150 921 168 921 186 C 921 203 919 220 916 237 C 912 254 907 269 901 282 C 894 295 885 306 875 314 C 865 322 852 326 838 326 C 824 326 811 322 801 314 C 791 306 782 296 776 283 C 769 270 764 255 760 238 C 756 221 755 204 755 186 C 755 148 761 116 775 89 C 789 61 809 48 836 48 Z" unicode="‰" />
<glyph horiz-adv-x="227" d="M 197 108 L 29 273 L 29 312 L 197 475 L 197 410 L 86 291 L 197 176 L 197 108 Z" unicode="‹" />
<glyph horiz-adv-x="228" d="M 30 476 L 199 310 L 199 272 L 30 108 L 30 173 L 141 292 L 30 407 L 30 476 Z" unicode="›" />
<glyph horiz-adv-x="145" d="M 299 730 L -88 0 L -145 0 L 242 730 L 299 730 Z" unicode="⁄" />
<glyph horiz-adv-x="324" d="M 16 460 L 16 500 L 209 740 L 248 740 L 248 503 L 313 503 L 313 460 L 248 460 L 248 373 L 194 373 L 194 460 L 16 460 Z M 69 499 L 195 499 L 195 660 L 69 499 Z" unicode="⁴" />
<glyph horiz-adv-x="499" d="M 482 118 C 464 80 439 49 406 25 C 372 0 336 -12 296 -12 C 242 -12 194 13 154 63 C 113 113 87 183 76 273 L 33 273 L 33 323 L 72 323 C 71 329 71 336 71 343 C 71 349 71 356 71 363 C 71 369 71 376 71 382 C 71 388 71 394 72 400 L 33 400 L 33 450 L 76 450 C 80 493 89 533 101 569 C 113 605 129 635 148 661 C 166 686 188 706 213 720 C 237 734 265 742 295 742 C 342 742 380 730 408 708 C 436 686 458 659 473 627 L 425 597 C 412 623 396 644 376 660 C 356 676 329 685 297 685 C 256 685 221 664 193 622 C 165 580 146 523 138 450 L 439 450 L 439 400 L 134 400 C 133 393 133 386 133 380 C 133 374 133 367 133 361 C 133 354 133 347 133 341 C 133 335 133 329 134 323 L 439 323 L 439 273 L 138 273 C 148 198 168 141 199 102 C 229 63 263 44 299 44 C 331 44 358 54 381 75 C 403 96 422 121 436 150 L 482 118 Z" unicode="€" />
<glyph horiz-adv-x="812" d="M 758 328 L 701 328 L 701 633 L 563 423 L 547 423 L 411 632 L 411 328 L 355 328 L 355 730 L 409 730 L 557 506 L 705 730 L 758 730 L 758 328 Z M 326 667 L 208 667 L 208 328 L 144 328 L 144 667 L 24 667 L 24 730 L 326 730 L 326 667 Z" unicode="™" />
<glyph horiz-adv-x="711" d="M 43 0 L 43 60 L 257 60 L 257 143 C 222 154 191 170 163 190 C 135 210 112 234 93 260 C 74 286 59 315 49 346 C 39 377 34 409 34 441 C 34 483 41 523 56 560 C 70 597 91 629 119 657 C 147 684 180 705 220 721 C 259 737 303 745 352 745 C 402 745 448 737 489 721 C 529 705 563 683 591 656 C 619 628 640 596 655 559 C 669 522 677 483 677 441 C 677 409 672 377 662 346 C 652 315 638 287 620 261 C 601 235 578 211 550 191 C 522 170 490 154 454 143 L 454 60 L 668 60 L 668 0 L 404 0 L 404 178 C 436 188 465 202 490 221 C 515 239 536 260 553 283 C 570 306 583 331 592 358 C 601 384 606 411 606 438 C 606 474 599 508 587 539 C 575 570 558 597 536 619 C 514 641 487 658 456 671 C 424 683 390 690 352 690 C 314 690 280 683 250 671 C 220 658 194 640 172 618 C 150 596 134 569 122 538 C 110 507 105 473 105 436 C 105 410 109 384 118 358 C 126 332 139 307 156 284 C 173 261 194 240 220 222 C 245 203 274 188 307 178 L 307 0 L 43 0 Z" unicode="Ω" />
<glyph horiz-adv-x="471" d="M 430 270 C 430 222 424 181 414 146 C 404 111 390 82 372 60 C 354 37 333 20 309 9 C 285 -2 259 -8 231 -8 C 205 -8 179 -2 155 7 C 131 17 109 32 91 52 C 73 71 58 95 47 123 C 36 151 31 184 31 220 C 31 254 35 285 45 314 C 55 342 68 367 85 388 C 102 408 122 424 146 436 C 169 448 194 454 221 454 C 257 454 289 444 315 425 C 341 405 360 380 373 348 C 366 421 353 484 334 536 C 315 588 294 630 270 663 C 246 695 220 719 194 735 C 168 750 144 758 124 759 L 154 802 C 175 802 201 792 233 773 C 265 753 295 723 324 681 C 353 639 378 584 399 516 C 419 448 430 366 430 270 Z M 231 42 C 271 42 303 59 327 93 C 351 127 363 172 363 228 C 363 280 351 322 328 354 C 304 386 271 403 229 403 C 189 403 158 386 134 353 C 110 320 99 277 99 223 C 99 165 111 120 135 89 C 159 57 191 42 231 42 Z" unicode="∂" />
<glyph horiz-adv-x="567" d="M 564 0 L 2 0 L 270 730 L 298 730 L 564 0 Z M 478 52 L 282 616 L 86 52 L 478 52 Z" unicode="∆" />
<glyph horiz-adv-x="652" d="M 198 671 L 198 0 L 130 0 L 130 671 L 15 671 L 15 730 L 637 730 L 637 671 L 526 671 L 526 0 L 459 0 L 459 671 L 198 671 Z" unicode="∏" />
<glyph horiz-adv-x="547" d="M 136 671 L 371 307 L 104 -120 L 515 -120 L 515 -179 L -5 -179 L 304 306 L 24 730 L 494 730 L 494 671 L 136 671 Z" unicode="∑" />
<glyph horiz-adv-x="500" d="M 458 304 L 42 304 L 42 358 L 458 358 L 458 304 Z" unicode="−" />
<glyph horiz-adv-x="510" d="M 496 730 L 198 0 L 186 0 L 15 325 L 63 357 L 200 90 L 453 730 L 496 730 Z" unicode="√" />
<glyph horiz-adv-x="327" d="M 112 -45 L 173 635 C 175 668 188 693 210 711 C 232 729 254 738 277 738 C 289 738 300 737 311 736 C 321 735 328 734 331 734 L 325 676 C 323 676 319 677 313 678 C 307 678 301 679 295 679 C 276 679 260 672 248 660 C 235 648 228 628 226 601 L 167 -68 C 164 -100 151 -126 129 -148 C 106 -169 79 -179 47 -179 C 31 -179 16 -177 2 -174 C -11 -170 -21 -167 -28 -164 L -21 -118 C -17 -118 -10 -120 -1 -123 C 8 -125 17 -127 26 -127 C 46 -127 65 -119 82 -105 C 99 -91 109 -71 112 -45 Z" unicode="∫" />
<glyph horiz-adv-x="487" d="M 392 490 L 447 490 C 446 441 438 403 423 376 C 408 349 385 336 353 336 C 331 336 312 341 295 352 C 277 362 262 374 249 387 C 235 400 220 412 206 422 C 192 432 177 437 161 437 C 146 437 131 428 115 411 C 99 394 92 370 92 339 L 41 339 C 41 387 51 424 71 451 C 91 478 116 492 146 492 C 168 492 187 486 205 474 C 222 462 238 450 252 438 C 264 427 277 417 291 407 C 304 397 318 393 334 393 C 354 393 369 400 378 416 C 387 431 392 456 392 490 Z M 393 321 L 447 321 C 446 272 438 234 423 208 C 407 181 383 168 351 168 C 329 168 309 173 292 183 C 275 193 260 205 247 218 C 233 231 219 242 205 252 C 191 262 177 267 161 267 C 146 267 131 258 116 242 C 100 225 93 201 93 171 L 41 171 C 41 219 51 256 71 283 C 91 309 117 323 148 323 C 170 323 190 317 208 305 C 226 293 241 281 255 269 C 267 257 280 247 293 237 C 306 227 320 223 336 223 C 356 223 370 230 379 246 C 388 261 393 286 393 321 Z" unicode="≈" />
<glyph horiz-adv-x="494" d="M 451 186 L 217 186 L 166 78 L 123 96 L 166 186 L 63 186 L 63 242 L 192 242 L 265 395 L 63 395 L 63 449 L 291 449 L 340 552 L 383 535 L 342 449 L 451 449 L 451 395 L 317 395 L 244 242 L 451 242 L 451 186 Z" unicode="≠" />
<glyph horiz-adv-x="494" d="M 60 303 L 60 348 L 430 550 L 430 490 L 123 327 L 430 162 L 430 103 L 60 303 Z M 59 75 L 430 75 L 430 26 L 59 26 L 59 75 Z" unicode="≤" />
<glyph horiz-adv-x="494" d="M 429 303 L 59 103 L 59 162 L 365 327 L 58 490 L 58 550 L 429 348 L 429 303 Z M 430 75 L 430 26 L 59 26 L 59 75 L 430 75 Z" unicode="≥" />
<glyph horiz-adv-x="522" d="M 491 326 L 266 -6 L 256 -6 L 31 326 L 31 337 L 256 668 L 266 668 L 491 337 L 491 326 Z M 429 327 L 429 336 L 266 582 L 257 582 L 94 336 L 94 327 L 257 80 L 266 80 L 429 327 Z" unicode="◊" />
<glyph horiz-adv-x="730" d="M 448 692 L 282 692 L 282 730 L 448 730 L 448 692 Z M 659 282 L 619 282 L 619 448 L 659 448 L 659 282 Z M 111 282 L 71 282 L 71 448 L 111 448 L 111 282 Z M 414 316 L 316 316 L 316 414 L 414 414 L 414 316 Z M 448 0 L 282 0 L 282 39 L 448 39 L 448 0 Z" unicode="" />
<glyph horiz-adv-x="456" d="M 251 424 L 153 424 L 153 0 L 88 0 L 88 424 L 21 424 L 21 476 L 88 476 L 88 616 C 88 643 92 667 101 689 C 109 711 121 729 135 743 C 149 757 164 768 182 776 C 199 783 216 787 233 787 C 250 787 266 785 282 781 C 297 777 308 773 315 769 L 300 717 C 295 719 287 722 275 725 C 263 728 252 730 242 730 C 221 730 201 720 181 700 C 161 680 152 652 152 614 L 152 476 L 251 476 L 251 424 Z M 397 595 L 328 595 L 328 663 L 397 663 L 397 595 Z M 394 0 L 330 0 L 330 476 L 394 476 L 394 0 Z" unicode="ﬁ" />
<glyph horiz-adv-x="449" d="M 252 428 L 153 428 L 153 0 L 88 0 L 88 428 L 19 428 L 19 482 L 88 482 L 88 610 C 88 637 92 661 101 683 C 109 705 121 723 135 737 C 149 751 164 762 182 770 C 199 777 216 781 233 781 C 250 781 266 779 281 776 C 296 772 307 768 315 764 L 300 712 C 295 714 287 717 275 720 C 263 723 252 725 242 725 C 221 725 201 715 181 695 C 161 675 152 646 152 608 L 152 482 L 252 482 L 252 428 Z M 390 778 L 390 0 L 326 0 L 326 778 L 390 778 Z" unicode="ﬂ" />
</font>
</defs>
</svg>
