<?xml version="1.0" encoding="utf-8" ?><svg version="1.1" xmlns = 'http://www.w3.org/2000/svg'><defs><font id='web' horiz-adv-x="1000">
<font-face font-family="web" descent="-200" cap-height="730" units-per-em="1000" bbox="-190,-321,1125,1016" x-height="436" ascent="800" />
<missing-glyph horiz-adv-x="500" d="" /><glyph horiz-adv-x="216" d="" unicode=" " />
<glyph horiz-adv-x="269" d="M 194 435 L 163 210 L 114 210 L 83 435 L 83 730 L 194 730 L 194 435 Z M 190 0 L 88 0 L 88 114 L 190 114 L 190 0 Z" unicode="!" />
<glyph horiz-adv-x="412" d="M 348 624 L 341 487 L 265 487 L 260 623 L 260 730 L 348 730 L 348 624 Z M 152 623 L 147 487 L 69 487 L 65 623 L 65 730 L 152 730 L 152 623 Z" unicode="&#x22;" />
<glyph horiz-adv-x="623" d="M 362 0 L 381 219 L 225 219 L 206 0 L 147 0 L 166 219 L 35 219 L 35 300 L 173 300 L 184 427 L 53 427 L 53 508 L 192 508 L 211 729 L 270 729 L 251 508 L 407 508 L 426 729 L 484 729 L 465 508 L 588 508 L 588 427 L 457 427 L 446 300 L 570 300 L 570 219 L 439 219 L 420 0 L 362 0 Z M 232 300 L 388 300 L 399 427 L 243 427 L 232 300 Z" unicode="#" />
<glyph horiz-adv-x="522" d="M 486 190 C 486 140 468 97 432 63 C 396 29 349 9 293 3 L 293 -120 L 225 -120 L 225 3 C 183 6 145 15 111 31 C 77 46 49 64 29 85 L 77 159 C 93 142 115 127 142 115 C 169 102 197 93 225 89 L 225 343 C 160 370 114 400 86 433 C 58 465 44 505 44 553 C 44 597 60 636 94 669 C 127 702 171 722 225 728 L 225 789 L 293 789 L 293 728 C 323 725 353 717 382 705 C 411 693 438 675 463 653 L 409 584 C 392 600 374 613 354 623 C 334 633 313 640 293 644 L 293 411 L 295 410 C 365 378 414 347 443 316 C 471 284 486 242 486 190 Z M 132 554 C 131 530 137 511 151 495 C 165 479 189 462 225 444 L 225 646 C 196 642 173 632 157 616 C 140 599 132 578 132 554 Z M 399 192 C 399 216 392 236 379 254 C 365 272 337 291 293 313 L 293 85 C 323 89 349 100 369 120 C 389 139 399 163 399 192 Z" unicode="$" />
<glyph horiz-adv-x="762" d="M 199 363 C 181 363 162 366 144 374 C 125 382 108 393 93 409 C 78 425 66 444 56 468 C 46 492 42 519 42 551 C 42 577 46 601 54 624 C 62 647 74 667 88 684 C 102 701 119 715 138 725 C 157 735 177 740 198 740 C 221 740 242 735 262 725 C 281 715 297 701 311 685 C 325 668 335 648 343 626 C 351 603 355 579 355 554 C 355 527 351 502 343 479 C 335 455 324 435 310 418 C 296 400 279 387 260 377 C 241 367 221 363 199 363 Z M 204 0 L 135 0 L 552 730 L 622 730 L 204 0 Z M 198 434 C 222 434 241 445 254 467 C 267 489 274 517 274 551 C 274 584 268 612 256 635 C 244 657 226 669 201 669 C 177 669 158 657 146 635 C 133 612 127 584 127 551 C 127 514 133 485 147 465 C 161 444 178 434 198 434 Z M 565 -3 C 546 -3 527 0 509 8 C 490 16 473 27 459 43 C 444 59 432 78 423 102 C 414 126 410 153 410 185 C 410 211 414 235 422 258 C 430 281 441 301 455 318 C 469 335 485 349 505 359 C 524 369 545 374 568 374 C 591 374 612 369 632 359 C 651 349 667 335 681 319 C 694 302 704 282 712 260 C 719 237 723 213 723 188 C 723 161 719 136 711 113 C 703 89 692 69 678 52 C 664 34 648 21 628 11 C 608 1 587 -3 565 -3 Z M 565 69 C 589 69 608 79 622 101 C 635 122 642 150 642 185 C 642 219 635 247 623 269 C 610 291 591 303 567 303 C 545 303 527 291 514 269 C 501 247 495 219 495 185 C 495 147 502 119 516 99 C 530 79 546 69 565 69 Z" unicode="%" />
<glyph horiz-adv-x="700" d="M 618 -4 L 529 84 C 492 54 453 32 412 16 C 371 0 328 -8 283 -8 C 245 -8 211 -3 180 4 C 149 12 122 25 100 41 C 78 57 60 76 48 100 C 35 124 29 150 29 180 C 29 208 33 233 43 255 C 53 277 66 296 83 313 C 99 329 119 345 141 359 C 163 373 186 387 210 401 L 194 417 C 176 436 157 459 139 487 C 120 515 111 547 111 583 C 111 602 115 621 125 640 C 135 658 148 675 165 689 C 182 703 202 715 226 724 C 249 732 274 737 301 737 C 327 737 352 732 375 724 C 397 716 416 705 432 691 C 448 677 460 660 469 642 C 478 623 483 604 483 584 C 483 544 470 509 445 479 C 419 449 384 420 338 390 L 537 201 C 550 215 563 231 576 248 C 588 264 600 282 612 300 L 678 253 C 665 233 652 214 638 196 C 624 178 609 162 595 147 L 681 65 L 618 -4 Z M 266 459 L 281 444 C 317 467 346 489 366 511 C 386 532 396 555 396 580 C 396 603 388 624 372 643 C 356 661 332 671 301 671 C 272 671 248 661 230 643 C 212 624 203 604 203 583 C 203 560 208 538 220 518 C 232 497 247 477 266 459 Z M 134 180 C 134 146 148 118 177 98 C 206 78 241 68 283 68 C 317 68 350 74 382 87 C 414 99 444 117 473 140 L 266 346 C 224 319 191 294 168 270 C 145 246 134 216 134 180 Z" unicode="&#x26;" />
<glyph horiz-adv-x="216" d="M 152 621 L 147 483 L 69 483 L 65 621 L 65 730 L 152 730 L 152 621 Z" unicode="'" />
<glyph horiz-adv-x="313" d="M 301 -89 L 301 -179 C 264 -159 229 -134 196 -102 C 162 -70 133 -33 108 7 C 83 47 63 92 48 141 C 33 189 26 240 26 293 C 26 348 33 400 49 448 C 64 496 84 540 109 579 C 134 618 163 652 197 681 C 230 709 265 732 301 749 L 301 660 C 279 646 257 628 237 606 C 216 584 198 557 182 527 C 166 497 154 462 144 422 C 134 382 130 339 130 292 C 130 250 134 211 142 173 C 150 135 161 99 176 67 C 191 34 209 4 230 -22 C 251 -48 275 -71 301 -89 Z" unicode="(" />
<glyph horiz-adv-x="313" d="M 12 659 L 12 749 C 46 734 79 713 112 685 C 145 657 174 623 200 584 C 226 544 247 499 263 449 C 279 398 287 343 287 284 C 287 228 279 176 263 127 C 247 78 226 34 200 -4 C 174 -43 145 -78 112 -108 C 79 -138 46 -161 12 -179 L 12 -85 C 36 -69 60 -48 82 -24 C 104 0 123 28 140 59 C 156 90 170 125 180 163 C 190 201 195 241 195 284 C 195 334 189 379 179 420 C 168 460 154 496 137 528 C 119 559 100 586 78 608 C 56 630 34 647 12 659 Z" unicode=")" />
<glyph horiz-adv-x="397" d="M 361 586 L 236 555 L 329 468 L 268 416 L 200 529 L 132 417 L 69 466 L 165 555 L 35 582 L 71 662 L 178 597 L 158 730 L 242 730 L 222 597 L 331 660 L 361 586 Z" unicode="*" />
<glyph horiz-adv-x="514" d="M 477 295 L 294 295 L 294 116 L 219 116 L 219 295 L 37 295 L 37 367 L 219 367 L 219 546 L 294 546 L 294 367 L 477 367 L 477 295 Z" unicode="+" />
<glyph horiz-adv-x="234" d="M 199 103 C 196 80 191 57 183 33 C 175 9 165 -14 154 -36 C 143 -58 131 -79 118 -98 C 104 -117 91 -133 78 -145 L 9 -113 C 17 -103 25 -91 35 -75 C 44 -59 53 -42 62 -23 C 70 -4 78 16 86 38 C 93 60 98 81 102 103 L 199 103 Z" unicode="," />
<glyph horiz-adv-x="344" d="M 299 224 L 46 224 L 46 308 L 299 308 L 299 224 Z" unicode="-" />
<glyph horiz-adv-x="236" d="M 169 0 L 67 0 L 67 125 L 169 125 L 169 0 Z" unicode="." />
<glyph horiz-adv-x="323" d="M 320 730 L 89 0 L 3 0 L 236 730 L 320 730 Z" unicode="/" />
<glyph horiz-adv-x="577" d="M 286 -12 C 210 -12 149 21 105 87 C 61 153 39 244 39 361 C 39 411 44 460 54 506 C 64 552 80 593 100 628 C 120 662 147 690 179 711 C 211 731 248 742 291 742 C 334 742 371 732 403 712 C 434 692 460 666 480 632 C 500 598 514 559 524 513 C 533 467 538 419 538 369 C 538 314 532 263 522 217 C 512 170 496 130 476 96 C 456 62 430 36 398 17 C 366 -2 328 -12 286 -12 Z M 286 72 C 313 72 336 79 356 93 C 376 107 392 127 405 153 C 417 179 427 209 433 244 C 439 279 442 317 442 359 C 442 401 439 440 434 477 C 428 513 419 545 407 572 C 395 598 379 619 360 635 C 340 650 317 658 289 658 C 262 658 239 650 220 636 C 200 621 184 601 172 575 C 159 549 150 517 144 481 C 138 444 135 404 135 361 C 135 318 138 279 144 243 C 150 207 160 177 172 152 C 184 126 200 107 219 93 C 238 79 260 72 286 72 Z" unicode="0" />
<glyph horiz-adv-x="370" d="M 283 0 L 187 0 L 187 586 C 180 578 171 569 159 561 C 147 553 135 545 122 539 C 108 533 95 527 81 523 C 67 518 55 515 45 515 L 45 608 C 79 610 109 622 137 644 C 165 666 192 695 219 731 L 283 731 L 283 0 Z" unicode="1" />
<glyph horiz-adv-x="552" d="M 517 0 L 31 0 L 31 25 L 344 375 C 366 399 384 424 398 450 C 411 476 418 503 418 531 C 418 567 404 597 376 619 C 348 641 314 653 272 653 C 224 653 187 639 161 612 C 134 584 121 547 121 501 L 33 501 C 33 578 55 637 100 679 C 145 721 204 742 276 742 C 310 742 341 737 370 729 C 399 720 424 707 445 691 C 465 674 482 653 494 629 C 506 604 512 575 512 543 C 512 491 501 447 479 412 C 457 376 435 346 412 322 L 186 83 L 517 83 L 517 0 Z" unicode="2" />
<glyph horiz-adv-x="542" d="M 253 -12 C 193 -12 142 -3 101 13 C 60 30 28 49 5 71 L 52 141 C 72 125 98 110 130 95 C 162 79 201 72 248 72 C 306 72 350 86 381 116 C 412 145 428 181 428 223 C 428 262 412 293 380 316 C 348 338 308 350 259 350 L 142 350 L 142 435 L 260 435 C 302 435 337 446 363 469 C 389 491 403 518 403 549 C 403 577 391 603 367 625 C 343 647 310 658 268 658 C 221 658 184 649 157 631 C 130 613 108 593 90 569 L 33 631 C 41 643 51 655 65 668 C 79 681 95 693 115 704 C 135 714 158 723 185 731 C 212 738 243 742 278 742 C 344 742 397 725 437 692 C 477 659 497 616 497 562 C 497 540 493 520 486 502 C 478 484 469 468 457 454 C 445 440 432 428 416 418 C 400 408 385 400 369 396 C 410 385 445 364 475 334 C 505 303 520 263 520 215 C 520 189 515 162 505 135 C 495 108 480 84 459 62 C 437 40 410 23 376 9 C 342 -5 301 -12 253 -12 Z" unicode="3" />
<glyph horiz-adv-x="578" d="M 567 188 L 443 188 L 443 0 L 354 0 L 354 188 L 18 188 L 18 247 L 382 742 L 443 742 L 443 268 L 567 268 L 567 188 Z M 356 268 L 356 584 L 123 268 L 356 268 Z" unicode="4" />
<glyph horiz-adv-x="562" d="M 271 -12 C 213 -12 164 -2 124 16 C 83 35 51 56 29 79 L 75 148 C 95 125 122 106 154 92 C 186 78 224 71 267 71 C 320 71 362 88 393 123 C 423 157 439 201 439 254 C 439 304 424 343 395 372 C 365 401 328 416 282 416 C 248 416 217 409 189 395 C 161 381 139 360 125 333 L 62 349 L 93 730 L 479 730 L 479 642 L 163 642 L 146 419 C 160 443 181 462 211 476 C 241 490 273 497 308 497 C 377 497 432 475 474 431 C 515 387 536 330 536 259 C 536 220 529 184 517 151 C 505 117 487 89 465 65 C 442 41 414 22 382 8 C 349 -5 312 -12 271 -12 Z" unicode="5" />
<glyph horiz-adv-x="548" d="M 287 -12 C 249 -12 215 -5 184 7 C 153 19 127 37 105 60 C 83 82 66 109 54 141 C 42 172 36 206 36 244 C 36 319 56 392 98 463 C 140 533 193 607 259 683 L 313 746 L 383 692 L 346 649 C 322 620 298 592 276 566 C 254 539 234 514 217 490 C 199 466 184 444 172 424 C 160 403 152 385 148 369 C 158 389 177 409 203 428 C 229 447 262 457 304 457 C 339 457 370 451 398 439 C 426 427 449 410 468 389 C 487 368 502 343 512 315 C 522 286 527 255 527 223 C 527 191 521 161 510 133 C 498 104 482 79 461 58 C 440 36 415 19 385 7 C 355 -5 323 -12 287 -12 Z M 290 71 C 334 71 369 85 396 115 C 422 144 436 179 436 220 C 436 264 423 300 398 330 C 373 359 337 374 289 374 C 269 374 250 370 232 364 C 214 358 197 348 183 336 C 169 324 157 308 149 290 C 140 272 136 251 136 227 C 136 180 149 142 177 114 C 204 85 242 71 290 71 Z" unicode="6" />
<glyph horiz-adv-x="493" d="M 494 730 L 500 704 L 146 -8 L 63 31 L 370 642 L 16 642 L 16 730 L 494 730 Z" unicode="7" />
<glyph horiz-adv-x="587" d="M 407 384 C 423 379 439 372 456 363 C 473 353 488 341 502 326 C 516 311 527 293 536 272 C 544 250 549 226 549 198 C 549 168 543 141 531 115 C 519 89 503 67 481 49 C 459 30 433 15 401 4 C 369 -6 334 -12 294 -12 C 214 -12 152 7 108 45 C 64 83 42 133 42 196 C 42 224 47 250 57 273 C 67 295 79 314 94 330 C 108 345 124 357 141 366 C 158 374 174 380 188 382 C 176 386 162 392 148 401 C 134 409 120 420 108 434 C 95 448 84 464 76 484 C 67 503 63 525 63 550 C 63 579 69 606 81 630 C 93 654 109 674 130 690 C 151 706 176 719 204 728 C 232 737 262 742 294 742 C 368 742 425 724 466 688 C 507 652 528 607 528 555 C 528 531 524 510 517 491 C 509 471 500 455 488 441 C 476 427 463 415 449 405 C 435 395 421 388 407 384 Z M 294 417 C 338 417 372 428 398 451 C 423 473 436 502 436 536 C 436 576 423 607 398 628 C 372 649 338 660 294 660 C 253 660 219 648 192 625 C 164 602 151 573 151 537 C 151 501 164 472 192 450 C 220 428 254 417 294 417 Z M 294 66 C 346 66 386 78 416 104 C 445 130 460 164 460 207 C 460 248 445 280 415 303 C 385 326 344 338 294 338 C 245 338 205 326 175 304 C 144 281 129 248 129 205 C 129 163 143 130 173 104 C 203 78 243 66 294 66 Z" unicode="8" />
<glyph horiz-adv-x="548" d="M 232 -12 L 167 49 L 213 95 C 234 116 255 139 276 163 C 297 187 316 211 334 235 C 351 259 366 282 378 305 C 390 328 398 349 402 369 C 390 346 369 325 341 307 C 312 288 279 279 242 279 C 207 279 176 285 149 297 C 121 309 98 325 79 346 C 60 367 46 392 36 420 C 26 448 21 479 21 512 C 21 543 26 573 38 602 C 50 630 66 655 87 676 C 108 697 134 714 164 727 C 194 739 227 746 264 746 C 298 746 331 740 361 728 C 391 716 418 699 440 677 C 462 655 480 628 493 597 C 505 565 512 531 512 493 C 512 451 506 411 495 371 C 484 331 469 294 450 258 C 431 222 409 187 383 153 C 357 119 330 88 302 59 L 232 -12 Z M 260 362 C 303 362 340 375 370 403 C 400 431 415 467 415 511 C 415 558 400 595 370 622 C 340 649 304 663 264 663 C 218 663 182 648 155 620 C 128 591 115 556 115 515 C 115 471 127 434 152 405 C 176 376 212 362 260 362 Z" unicode="9" />
<glyph horiz-adv-x="245" d="M 172 311 L 74 311 L 74 436 L 172 436 L 172 311 Z M 172 0 L 74 0 L 74 125 L 172 125 L 172 0 Z" unicode=":" />
<glyph horiz-adv-x="245" d="M 178 311 L 80 311 L 80 436 L 178 436 L 178 311 Z M 182 103 C 178 79 173 54 165 30 C 157 6 148 -17 138 -39 C 128 -61 116 -81 104 -99 C 91 -117 78 -133 65 -145 L -5 -113 C 3 -103 12 -91 22 -75 C 32 -59 41 -42 50 -23 C 59 -4 67 16 74 38 C 81 60 86 81 89 103 L 182 103 Z" unicode=";" />
<glyph horiz-adv-x="415" d="M 363 86 L 49 296 L 49 351 L 363 563 L 363 466 L 152 325 L 363 183 L 363 86 Z" unicode="&#x3C;" />
<glyph horiz-adv-x="509" d="M 451 388 L 59 388 L 59 468 L 451 468 L 451 388 Z M 451 175 L 59 175 L 59 255 L 451 255 L 451 175 Z" unicode="=" />
<glyph horiz-adv-x="415" d="M 363 296 L 49 86 L 49 183 L 263 325 L 49 467 L 49 563 L 363 351 L 363 296 Z" unicode="&#x3E;" />
<glyph horiz-adv-x="456" d="M 167 204 C 167 245 173 280 186 309 C 198 337 217 365 243 393 C 253 403 263 414 274 425 C 285 436 295 448 305 461 C 314 473 322 487 328 502 C 334 517 337 534 337 552 C 337 584 324 610 300 629 C 275 647 246 657 212 657 C 182 657 154 649 130 635 C 106 621 86 603 71 582 L 12 640 C 38 674 70 699 110 716 C 150 733 190 742 231 742 C 294 742 344 725 380 691 C 416 657 435 614 435 561 C 435 535 431 513 424 493 C 416 473 407 454 395 438 C 383 421 370 405 356 391 C 342 377 328 362 314 348 C 293 328 279 305 272 278 C 264 251 260 226 260 204 L 167 204 Z M 163 0 L 163 107 L 268 107 L 268 0 L 163 0 Z" unicode="?" />
<glyph horiz-adv-x="844" d="M 411 -39 C 357 -39 307 -29 261 -9 C 215 11 175 38 142 72 C 109 106 83 146 65 192 C 46 238 37 288 37 340 C 37 392 46 442 65 488 C 83 534 109 575 143 609 C 176 643 216 669 263 689 C 309 709 360 719 415 719 C 471 719 523 710 570 693 C 617 676 657 652 690 622 C 722 592 748 555 766 512 C 784 469 794 422 794 372 C 794 327 788 289 778 258 C 767 226 753 201 737 182 C 721 162 703 148 684 140 C 665 131 647 127 631 127 C 600 127 575 134 556 148 C 536 162 524 180 519 202 C 510 185 492 168 464 152 C 436 135 404 127 367 127 C 316 127 278 139 254 164 C 229 188 217 219 217 257 C 217 301 235 335 273 361 C 310 386 357 399 413 399 L 510 399 L 510 410 C 510 444 501 467 484 479 C 466 491 442 498 412 498 C 386 498 363 494 341 488 C 319 482 301 475 287 469 L 260 533 C 279 542 302 550 329 556 C 356 562 383 566 411 566 C 467 566 510 552 541 525 C 571 498 587 455 587 397 L 587 247 C 587 232 590 219 597 207 C 603 195 617 189 637 189 C 645 189 655 191 665 196 C 675 201 685 210 694 223 C 703 236 711 254 717 278 C 723 301 726 331 726 367 C 726 408 718 446 704 482 C 689 517 668 547 642 573 C 615 598 582 618 544 633 C 505 647 462 655 415 655 C 369 655 328 646 290 630 C 252 614 220 591 193 563 C 166 535 145 501 130 463 C 114 425 107 384 107 341 C 107 297 114 256 130 218 C 145 180 166 146 193 118 C 220 89 252 66 290 50 C 328 33 369 25 414 25 C 434 25 455 27 477 31 C 498 35 520 42 543 53 L 568 -5 C 540 -17 514 -26 488 -31 C 462 -36 436 -39 411 -39 Z M 384 195 C 412 195 439 201 464 213 C 489 225 504 238 510 251 L 510 335 L 413 335 C 375 335 347 328 330 316 C 312 304 304 287 304 265 C 304 244 311 227 325 214 C 339 201 359 195 384 195 Z" unicode="@" />
<glyph horiz-adv-x="658" d="M 655 0 L 551 0 L 474 193 L 179 193 L 103 0 L 2 0 L 303 733 L 360 733 L 655 0 Z M 442 279 L 326 565 L 212 279 L 442 279 Z" unicode="A" />
<glyph horiz-adv-x="602" d="M 95 0 L 95 730 L 319 730 C 381 730 431 714 469 683 C 507 652 527 611 527 559 C 527 507 513 466 487 435 C 461 404 429 385 391 378 C 411 376 432 371 452 363 C 472 355 491 345 507 331 C 523 317 537 300 547 279 C 557 258 562 234 562 207 C 562 142 539 91 494 55 C 449 18 391 0 320 0 L 95 0 Z M 193 412 L 298 412 C 345 412 378 424 398 449 C 417 473 427 501 427 532 C 427 564 415 590 393 610 C 370 630 340 640 302 640 L 193 640 L 193 412 Z M 193 88 L 325 88 C 373 88 407 99 429 123 C 451 147 462 176 462 212 C 462 247 448 275 422 296 C 395 317 361 328 319 328 L 193 328 L 193 88 Z" unicode="B" />
<glyph horiz-adv-x="708" d="M 408 -12 C 358 -12 311 -3 267 13 C 223 30 184 55 152 87 C 120 119 94 158 75 205 C 56 252 47 305 47 365 C 47 419 56 469 74 515 C 92 561 117 600 149 634 C 181 668 219 694 264 713 C 308 732 357 742 410 742 C 476 742 531 732 576 714 C 620 695 658 670 688 639 L 627 556 C 605 581 577 602 542 620 C 506 638 464 647 414 647 C 372 647 334 639 302 625 C 269 611 241 591 219 566 C 197 540 180 510 168 475 C 156 440 151 402 151 361 C 151 313 158 272 173 237 C 187 201 207 172 231 149 C 255 125 282 108 314 96 C 346 84 379 79 413 79 C 466 79 512 89 550 110 C 588 130 620 156 645 186 L 702 121 C 670 82 629 50 579 25 C 529 0 472 -12 408 -12 Z" unicode="C" />
<glyph horiz-adv-x="749" d="M 95 0 L 95 730 L 316 730 C 376 730 431 721 479 705 C 527 688 567 664 600 634 C 632 603 657 566 675 522 C 693 478 702 430 702 378 C 702 324 693 274 676 228 C 658 182 633 142 599 108 C 565 74 524 48 474 29 C 424 9 366 0 301 0 L 95 0 Z M 195 89 L 298 89 C 348 89 392 96 430 111 C 468 125 499 145 524 171 C 548 197 567 227 579 262 C 591 297 597 335 597 375 C 597 454 571 518 521 566 C 470 614 400 639 312 639 L 195 639 L 195 89 Z" unicode="D" />
<glyph horiz-adv-x="584" d="M 532 0 L 95 0 L 95 730 L 513 730 L 513 640 L 195 640 L 195 405 L 497 405 L 497 315 L 195 315 L 195 90 L 532 90 L 532 0 Z" unicode="E" />
<glyph horiz-adv-x="510" d="M 470 640 L 195 640 L 195 407 L 455 407 L 455 317 L 195 317 L 195 0 L 95 0 L 95 730 L 470 730 L 470 640 Z" unicode="F" />
<glyph horiz-adv-x="771" d="M 425 370 L 725 370 L 725 150 C 698 102 658 63 605 33 C 552 3 489 -12 415 -12 C 363 -12 314 -2 269 16 C 223 34 184 60 152 94 C 119 127 93 167 75 213 C 56 259 47 310 47 365 C 47 422 57 474 77 521 C 97 567 123 607 157 640 C 191 672 230 697 275 715 C 320 733 368 742 418 742 C 454 742 487 738 515 732 C 543 726 568 718 589 708 C 609 698 627 687 642 675 C 656 663 669 651 680 640 L 614 572 C 595 590 570 607 538 623 C 506 639 464 647 414 647 C 376 647 340 640 308 626 C 275 612 247 592 224 567 C 200 542 182 512 169 478 C 155 443 149 405 149 364 C 149 325 155 288 169 253 C 182 218 201 188 225 162 C 249 136 277 115 311 99 C 344 83 380 76 420 76 C 470 76 514 85 553 105 C 591 125 619 150 637 181 L 637 277 L 425 277 L 425 370 Z" unicode="G" />
<glyph horiz-adv-x="765" d="M 669 0 L 569 0 L 569 313 L 195 313 L 195 0 L 95 0 L 95 730 L 195 730 L 195 407 L 569 407 L 569 730 L 669 730 L 669 0 Z" unicode="H" />
<glyph horiz-adv-x="300" d="M 200 0 L 100 0 L 100 730 L 200 730 L 200 0 Z" unicode="I" />
<glyph horiz-adv-x="383" d="M 313 730 L 313 194 C 313 166 308 140 300 115 C 292 90 279 68 262 50 C 245 31 224 16 198 5 C 172 -6 142 -12 108 -12 C 90 -12 73 -11 58 -9 C 42 -7 30 -5 21 -3 L 21 86 C 27 83 40 81 58 79 C 76 77 90 77 101 77 C 139 77 168 87 190 108 C 211 129 222 155 222 186 L 222 730 L 313 730 Z" unicode="J" />
<glyph horiz-adv-x="693" d="M 688 0 L 558 0 L 283 318 L 195 216 L 195 0 L 95 0 L 95 730 L 195 730 L 195 344 L 522 730 L 644 730 L 348 392 L 688 0 Z" unicode="K" />
<glyph horiz-adv-x="500" d="M 492 0 L 95 0 L 95 730 L 195 730 L 195 90 L 492 90 L 492 0 Z" unicode="L" />
<glyph horiz-adv-x="918" d="M 823 0 L 727 0 L 727 529 L 474 166 L 439 166 L 191 524 L 191 0 L 95 0 L 95 730 L 156 730 L 461 298 L 762 730 L 823 730 L 823 0 Z" unicode="M" />
<glyph horiz-adv-x="781" d="M 685 0 L 617 0 L 191 547 L 191 0 L 95 0 L 95 730 L 171 730 L 589 186 L 589 730 L 685 730 L 685 0 Z" unicode="N" />
<glyph horiz-adv-x="842" d="M 424 -12 C 367 -12 315 -2 269 16 C 222 35 182 61 150 95 C 117 129 92 169 74 216 C 56 263 47 314 47 370 C 47 422 56 470 76 516 C 95 562 121 601 154 635 C 187 668 226 694 271 713 C 316 732 364 742 416 742 C 471 742 522 733 569 715 C 615 697 655 671 689 639 C 722 606 748 566 767 520 C 785 474 795 423 795 368 C 795 312 785 260 765 214 C 745 167 719 127 685 94 C 651 60 612 34 567 16 C 521 -2 474 -12 424 -12 Z M 423 82 C 461 82 496 88 529 102 C 561 115 590 134 614 159 C 638 184 657 215 671 251 C 685 287 692 327 692 371 C 692 411 685 449 671 483 C 657 517 639 546 615 570 C 591 594 562 612 529 626 C 495 640 459 647 420 647 C 381 647 345 640 312 628 C 279 615 251 597 227 573 C 203 549 184 519 171 485 C 157 450 151 411 151 367 C 151 321 158 281 172 246 C 186 210 206 180 231 156 C 255 132 284 113 317 101 C 350 88 385 82 423 82 Z" unicode="O" />
<glyph horiz-adv-x="593" d="M 95 0 L 95 730 L 336 730 C 402 730 457 711 500 673 C 542 635 564 583 564 516 C 564 484 558 454 548 426 C 537 398 522 375 503 355 C 483 335 460 319 432 308 C 404 296 374 291 340 291 L 195 291 L 195 0 L 95 0 Z M 195 382 L 323 382 C 367 382 402 394 426 419 C 450 444 463 476 463 516 C 463 556 448 587 420 608 C 391 628 356 639 314 639 L 195 639 L 195 382 Z" unicode="P" />
<glyph horiz-adv-x="830" d="M 707 -68 L 707 -165 C 640 -163 580 -148 528 -120 C 476 -92 437 -55 413 -9 C 357 -7 307 2 262 21 C 216 40 178 66 146 100 C 114 133 90 173 73 219 C 55 265 47 315 47 370 C 47 422 56 470 76 516 C 95 562 121 601 154 635 C 187 668 226 694 272 713 C 317 732 365 742 417 742 C 472 742 523 733 569 715 C 615 697 655 671 689 638 C 722 605 748 565 767 519 C 785 472 795 421 795 365 C 795 321 788 280 775 241 C 762 202 744 167 721 136 C 698 105 670 78 638 56 C 605 33 569 16 531 6 C 549 -16 574 -34 606 -47 C 638 -60 671 -67 707 -68 Z M 423 84 C 461 84 496 90 529 104 C 561 117 590 136 614 161 C 638 186 657 217 671 253 C 685 289 692 329 692 373 C 692 414 685 452 671 486 C 657 520 637 548 613 572 C 589 596 560 614 527 627 C 493 640 458 647 420 647 C 381 647 345 640 312 628 C 279 615 251 597 227 573 C 203 549 184 519 171 485 C 157 450 151 411 151 367 C 151 322 158 282 172 247 C 186 211 206 182 231 158 C 255 134 284 115 317 103 C 350 90 385 84 423 84 Z" unicode="Q" />
<glyph horiz-adv-x="621" d="M 95 0 L 95 730 L 312 730 C 373 730 424 712 464 676 C 504 640 524 591 524 529 C 524 496 519 467 510 442 C 500 417 488 396 473 379 C 458 362 441 349 422 339 C 402 329 382 324 362 322 L 359 320 L 590 0 L 474 0 L 261 297 L 195 297 L 195 0 L 95 0 Z M 195 384 L 289 384 C 329 384 361 395 386 419 C 411 442 424 475 424 517 C 424 552 412 581 388 604 C 364 627 332 639 293 639 L 195 639 L 195 384 Z" unicode="R" />
<glyph horiz-adv-x="499" d="M 262 -12 C 211 -12 165 -4 124 12 C 83 28 49 50 23 79 L 81 156 C 100 132 126 114 158 100 C 190 86 223 79 257 79 C 293 79 322 89 345 109 C 368 129 380 154 380 186 C 380 214 369 238 348 260 C 326 281 291 302 241 324 C 183 348 137 378 101 413 C 65 447 48 496 48 558 C 48 611 66 655 103 690 C 140 724 189 742 251 742 C 291 742 327 736 360 724 C 392 712 422 695 449 674 L 401 594 C 380 611 358 625 334 635 C 310 645 285 651 259 651 C 223 651 194 641 174 622 C 154 603 144 581 144 555 C 144 525 154 501 174 482 C 194 462 235 440 297 414 C 361 386 406 355 434 320 C 462 285 476 241 476 188 C 476 156 470 128 458 103 C 446 78 431 57 411 40 C 391 23 369 10 343 1 C 317 -7 290 -12 262 -12 Z" unicode="S" />
<glyph horiz-adv-x="535" d="M 525 640 L 314 640 L 314 0 L 214 0 L 214 640 L 10 640 L 10 730 L 525 730 L 525 640 Z" unicode="T" />
<glyph horiz-adv-x="741" d="M 654 730 L 654 266 C 654 222 646 183 632 149 C 617 114 597 85 571 61 C 545 37 515 19 481 7 C 446 -5 409 -12 370 -12 C 330 -12 293 -6 259 6 C 225 18 195 35 169 59 C 143 83 123 112 109 147 C 94 181 87 221 87 266 L 87 730 L 185 730 L 185 258 C 185 206 202 163 238 130 C 273 97 316 81 368 81 C 394 81 418 85 441 93 C 464 101 484 113 501 129 C 517 144 531 163 541 185 C 551 207 556 231 556 258 L 556 730 L 654 730 Z" unicode="U" />
<glyph horiz-adv-x="660" d="M 660 730 L 356 -6 L 298 -6 L 2 730 L 107 730 L 332 164 L 557 730 L 660 730 Z" unicode="V" />
<glyph horiz-adv-x="924" d="M 919 730 L 691 -8 L 638 -8 L 463 546 L 282 -8 L 229 -8 L 6 730 L 105 730 L 261 196 L 440 730 L 494 730 L 667 196 L 826 730 L 919 730 Z" unicode="W" />
<glyph horiz-adv-x="611" d="M 488 0 L 305 292 L 119 0 L 11 0 L 251 377 L 29 730 L 141 730 L 307 465 L 476 730 L 584 730 L 361 380 L 600 0 L 488 0 Z" unicode="X" />
<glyph horiz-adv-x="649" d="M 647 730 L 372 326 L 372 0 L 272 0 L 272 330 L 1 730 L 114 730 L 327 418 L 539 730 L 647 730 Z" unicode="Y" />
<glyph horiz-adv-x="593" d="M 553 730 L 553 688 L 156 90 L 566 90 L 566 0 L 16 0 L 16 40 L 410 640 L 47 640 L 47 730 L 553 730 Z" unicode="Z" />
<glyph horiz-adv-x="295" d="M 255 -179 L 70 -179 L 70 730 L 255 730 L 255 650 L 158 650 L 158 -99 L 255 -99 L 255 -179 Z" unicode="[" />
<glyph horiz-adv-x="323" d="M 3 730 L 86 730 L 320 0 L 236 0 L 3 730 Z" unicode="\" />
<glyph horiz-adv-x="295" d="M 225 -179 L 40 -179 L 40 -99 L 137 -99 L 137 650 L 40 650 L 40 730 L 225 730 L 225 -179 Z" unicode="]" />
<glyph horiz-adv-x="510" d="M 440 369 L 359 369 L 254 630 L 154 369 L 74 369 L 215 730 L 294 730 L 440 369 Z" unicode="^" />
<glyph horiz-adv-x="500" d="M 500 -166 L 0 -166 L 0 -82 L 500 -82 L 500 -166 Z" unicode="_" />
<glyph horiz-adv-x="500" d="M 351 498 L 257 498 L 135 661 L 244 661 L 351 498 Z" unicode="`" />
<glyph horiz-adv-x="476" d="M 420 0 L 333 0 L 333 57 C 320 40 301 24 276 10 C 250 -4 219 -12 183 -12 C 128 -12 87 1 60 28 C 33 55 20 90 20 132 C 20 177 37 213 73 239 C 109 265 160 280 226 284 L 329 289 L 329 299 C 329 323 320 342 304 355 C 287 367 263 374 233 374 C 203 374 176 369 152 359 C 128 349 109 339 97 330 L 58 394 C 73 406 96 418 127 430 C 158 442 196 448 242 448 C 292 448 334 435 368 411 C 402 387 420 348 420 296 L 420 0 Z M 331 118 L 331 219 L 232 215 C 194 213 164 205 143 191 C 121 177 111 159 111 136 C 111 113 119 95 135 83 C 151 71 172 65 198 65 C 228 65 256 71 280 83 C 304 95 321 106 331 118 Z" unicode="a" />
<glyph horiz-adv-x="542" d="M 313 -7 C 269 -7 233 2 205 20 C 177 38 158 59 150 83 L 150 0 L 63 0 L 63 730 L 153 730 L 153 358 C 160 378 178 398 206 418 C 234 438 269 448 310 448 C 341 448 369 442 394 431 C 419 420 440 405 458 385 C 476 365 489 342 499 315 C 509 287 514 258 514 227 C 514 192 508 160 497 131 C 486 102 471 77 453 57 C 435 37 413 21 389 10 C 365 -1 339 -7 313 -7 Z M 288 65 C 326 65 358 79 382 107 C 406 135 418 173 418 221 C 418 265 406 301 384 331 C 362 360 329 375 285 375 C 250 375 219 361 193 333 C 166 305 153 267 153 217 C 153 193 156 171 164 152 C 172 133 182 117 194 104 C 206 91 221 81 237 75 C 253 68 270 65 288 65 Z" unicode="b" />
<glyph horiz-adv-x="463" d="M 379 140 L 456 97 C 440 70 417 45 385 23 C 353 0 310 -11 255 -11 C 221 -11 190 -5 162 6 C 134 18 110 34 90 54 C 70 74 55 99 45 127 C 34 155 29 185 29 218 C 29 250 34 281 46 309 C 58 337 74 362 95 383 C 115 403 140 419 168 431 C 196 443 226 449 259 449 C 311 449 354 437 388 415 C 421 393 445 368 459 342 L 373 299 C 362 319 347 335 329 347 C 310 359 286 366 258 366 C 219 366 187 351 162 323 C 136 294 124 259 124 217 C 124 175 136 140 161 112 C 185 84 218 71 259 71 C 293 71 319 78 338 94 C 356 110 370 125 379 140 Z" unicode="c" />
<glyph horiz-adv-x="540" d="M 236 -7 C 204 -7 176 -1 151 10 C 125 21 104 36 86 56 C 68 76 54 99 44 125 C 34 151 29 179 29 209 C 29 244 34 276 45 306 C 56 336 71 361 90 382 C 108 403 130 419 156 431 C 182 443 209 449 239 449 C 276 449 307 441 333 425 C 358 409 376 391 386 372 L 386 730 L 477 730 L 477 0 L 390 0 L 390 86 C 381 62 363 41 337 22 C 310 2 276 -7 236 -7 Z M 260 66 C 294 66 324 80 350 108 C 376 136 390 175 390 223 C 390 248 386 270 378 290 C 370 309 360 325 348 337 C 336 349 321 359 305 365 C 289 371 272 374 255 374 C 216 374 184 359 160 331 C 136 303 124 266 124 220 C 124 177 135 141 159 111 C 182 81 216 66 260 66 Z" unicode="d" />
<glyph horiz-adv-x="499" d="M 269 -11 C 235 -11 203 -5 173 4 C 143 14 118 29 97 48 C 75 67 59 91 47 119 C 35 147 29 178 29 214 C 29 246 34 277 46 306 C 57 334 73 359 93 380 C 113 401 138 418 167 430 C 195 442 227 449 262 449 C 328 449 382 426 423 382 C 464 337 485 273 485 191 L 115 191 C 117 153 132 123 159 100 C 185 77 222 66 269 66 C 309 66 339 72 359 84 C 379 96 395 108 406 121 L 463 67 C 444 46 421 28 393 12 C 365 -3 324 -11 269 -11 Z M 119 263 L 397 263 C 395 291 382 317 358 339 C 334 361 301 373 259 373 C 218 373 185 361 160 339 C 135 317 121 291 119 263 Z" unicode="e" />
<glyph horiz-adv-x="305" d="M 300 353 L 195 353 L 195 0 L 104 0 L 104 353 L 17 353 L 17 436 L 104 436 L 104 562 C 104 592 108 618 117 640 C 125 662 137 680 151 694 C 165 708 181 719 200 726 C 218 732 237 736 257 736 C 268 736 279 735 289 734 C 299 732 308 731 315 729 L 313 638 C 309 639 303 640 297 641 C 290 642 282 643 273 643 C 253 643 235 635 219 620 C 203 604 195 583 195 557 L 195 436 L 300 436 L 300 353 Z" unicode="f" />
<glyph horiz-adv-x="540" d="M 234 -3 C 203 -3 175 2 150 14 C 124 25 103 40 85 60 C 67 79 53 102 43 130 C 33 157 29 187 29 219 C 29 286 48 341 87 384 C 126 427 176 449 237 449 C 273 449 305 440 333 424 C 361 408 380 389 390 369 L 390 436 L 477 436 L 477 33 C 477 -5 471 -39 459 -67 C 447 -95 430 -119 410 -137 C 389 -155 365 -168 337 -177 C 309 -186 279 -191 248 -191 C 200 -191 162 -186 135 -176 C 107 -166 86 -157 72 -148 L 107 -76 C 117 -84 133 -93 155 -103 C 177 -113 205 -118 239 -118 C 258 -118 276 -115 294 -110 C 312 -104 327 -96 341 -86 C 355 -76 366 -62 374 -46 C 382 -30 386 -11 386 11 L 386 83 C 377 60 359 40 331 23 C 303 5 271 -3 234 -3 Z M 259 65 C 295 65 325 79 351 109 C 377 138 390 176 390 222 C 390 268 376 305 350 333 C 323 361 290 375 251 375 C 216 375 186 360 161 332 C 136 304 124 266 124 220 C 124 175 136 138 160 109 C 184 79 217 65 259 65 Z" unicode="g" />
<glyph horiz-adv-x="527" d="M 470 0 L 378 0 L 378 279 C 378 309 368 332 350 349 C 331 366 306 375 275 375 C 244 375 216 365 192 345 C 167 325 155 295 155 255 L 155 0 L 63 0 L 63 730 L 150 730 L 150 352 C 158 378 176 401 204 420 C 231 439 266 449 310 449 C 358 449 396 435 426 408 C 455 380 470 343 470 295 L 470 0 Z" unicode="h" />
<glyph horiz-adv-x="230" d="M 67 534 L 67 630 L 163 630 L 163 534 L 67 534 Z M 69 0 L 69 436 L 161 436 L 161 0 L 69 0 Z" unicode="i" />
<glyph horiz-adv-x="218" d="M 158 534 L 62 534 L 62 630 L 158 630 L 158 534 Z M 156 436 L 156 -67 C 156 -103 144 -135 121 -162 C 98 -189 66 -202 25 -202 C 16 -202 5 -201 -6 -200 C -18 -198 -28 -197 -34 -195 L -32 -119 C -29 -119 -24 -120 -17 -121 C -9 -121 -3 -122 3 -122 C 19 -122 34 -116 46 -105 C 58 -93 64 -76 64 -54 L 64 436 L 156 436 Z" unicode="j" />
<glyph horiz-adv-x="489" d="M 504 0 L 393 0 L 236 194 L 154 108 L 154 0 L 63 0 L 63 730 L 150 730 L 150 207 L 357 436 L 465 436 L 295 256 L 504 0 Z" unicode="k" />
<glyph horiz-adv-x="221" d="M 156 730 L 156 0 L 64 0 L 64 730 L 156 730 Z" unicode="l" />
<glyph horiz-adv-x="837" d="M 63 0 L 63 436 L 152 436 L 152 359 C 160 383 178 404 206 422 C 234 440 270 449 312 449 C 347 449 377 441 402 425 C 427 409 443 386 450 358 L 454 358 C 463 384 482 406 512 423 C 542 440 577 449 617 449 C 667 449 706 435 736 407 C 765 379 780 342 780 296 L 780 0 L 689 0 L 689 279 C 689 307 680 330 662 348 C 644 366 619 375 587 375 C 572 375 557 372 543 367 C 529 362 516 355 505 345 C 493 335 484 323 477 308 C 470 292 467 274 467 254 L 467 0 L 376 0 L 376 279 C 376 307 367 330 349 348 C 331 366 306 375 274 375 C 241 375 213 364 189 343 C 165 322 154 292 154 253 L 154 0 L 63 0 Z" unicode="m" />
<glyph horiz-adv-x="527" d="M 470 0 L 378 0 L 378 279 C 378 307 369 330 351 348 C 333 366 307 375 274 375 C 242 375 215 364 191 344 C 167 324 155 293 155 251 L 155 0 L 63 0 L 63 436 L 152 436 L 152 361 C 162 385 182 406 211 423 C 239 440 272 449 308 449 C 357 449 396 435 426 407 C 455 379 470 342 470 296 L 470 0 Z" unicode="n" />
<glyph horiz-adv-x="529" d="M 261 -11 C 231 -11 203 -5 175 5 C 147 15 122 30 101 50 C 79 70 62 94 49 122 C 35 150 29 181 29 217 C 29 248 35 278 47 306 C 59 334 76 359 97 380 C 118 401 143 418 171 430 C 199 442 228 449 259 449 C 291 449 321 443 350 433 C 379 422 405 407 427 388 C 449 369 467 346 480 319 C 493 291 500 261 500 229 C 500 195 493 163 481 133 C 468 103 451 78 430 57 C 408 35 383 19 354 7 C 324 -5 293 -11 261 -11 Z M 264 69 C 304 69 338 83 365 111 C 391 139 405 177 405 224 C 405 264 391 298 365 326 C 338 354 302 369 256 369 C 219 369 188 355 162 328 C 136 300 124 264 124 219 C 124 171 137 134 164 108 C 191 82 224 69 264 69 Z" unicode="o" />
<glyph horiz-adv-x="542" d="M 63 -200 L 63 436 L 150 436 L 150 354 C 158 376 177 398 207 418 C 236 438 272 448 315 448 C 344 448 371 442 396 431 C 420 419 441 404 459 384 C 476 364 489 341 499 314 C 509 286 514 257 514 226 C 514 189 508 156 496 127 C 484 98 468 74 450 54 C 431 34 410 18 386 8 C 362 -1 339 -7 316 -7 C 275 -7 240 1 210 19 C 180 37 161 56 153 77 L 153 -200 L 63 -200 Z M 293 65 C 328 65 358 78 382 106 C 406 133 418 171 418 219 C 418 263 406 300 383 330 C 360 360 327 375 285 375 C 249 375 218 361 192 334 C 166 306 153 267 153 215 C 153 189 156 167 164 148 C 172 129 182 113 195 101 C 208 89 223 80 240 74 C 257 68 275 65 293 65 Z" unicode="p" />
<glyph horiz-adv-x="540" d="M 386 -200 L 386 81 C 376 58 358 38 332 20 C 306 2 274 -7 236 -7 C 204 -7 176 -1 151 10 C 125 21 104 36 86 56 C 68 75 54 98 44 126 C 34 153 29 183 29 215 C 29 249 34 280 46 309 C 57 337 72 362 92 383 C 111 403 133 419 159 431 C 184 443 210 449 238 449 C 276 449 308 440 334 424 C 360 407 377 389 386 370 L 386 436 L 477 436 L 477 -200 L 386 -200 Z M 258 66 C 274 66 290 69 306 77 C 322 84 336 94 348 108 C 360 121 370 137 378 157 C 386 177 390 199 390 224 C 390 274 376 311 349 336 C 322 361 291 374 257 374 C 215 374 183 360 160 332 C 136 304 125 269 125 225 C 125 179 136 141 159 111 C 181 81 214 66 258 66 Z" unicode="q" />
<glyph horiz-adv-x="387" d="M 383 418 L 347 340 C 331 352 316 359 301 363 C 286 367 272 369 260 369 C 234 369 210 358 188 337 C 166 315 155 287 155 251 L 155 0 L 63 0 L 63 436 L 152 436 L 152 359 C 154 367 159 377 167 388 C 174 398 183 408 195 417 C 207 425 220 433 236 439 C 252 445 269 448 289 448 C 308 448 326 445 342 440 C 358 434 372 427 383 418 Z" unicode="r" />
<glyph horiz-adv-x="385" d="M 203 -12 C 163 -12 128 -7 99 3 C 69 13 45 27 26 46 L 73 109 C 87 96 106 86 128 78 C 150 70 175 66 202 66 C 223 66 240 70 252 80 C 264 90 271 103 271 119 C 271 134 263 146 247 156 C 231 166 206 176 172 186 C 128 198 95 215 72 235 C 48 255 37 283 37 319 C 37 357 51 388 81 412 C 110 436 147 448 193 448 C 225 448 255 443 281 433 C 307 423 328 412 343 400 L 298 339 C 286 347 271 354 253 362 C 234 369 214 373 192 373 C 175 373 159 369 144 363 C 129 357 122 346 122 332 C 122 320 126 311 136 303 C 146 295 170 286 208 274 C 255 259 291 241 317 220 C 343 198 356 168 356 128 C 356 84 342 50 314 25 C 286 0 249 -12 203 -12 Z" unicode="s" />
<glyph horiz-adv-x="259" d="M 248 75 L 248 -3 C 246 -3 240 -4 231 -5 C 222 -5 212 -6 202 -6 C 186 -6 171 -4 155 0 C 139 3 124 9 112 18 C 99 26 88 38 80 53 C 72 67 68 86 68 109 L 68 353 L 9 353 L 9 436 L 68 436 L 68 536 L 160 547 L 160 436 L 243 436 L 243 353 L 160 353 L 160 128 C 160 106 165 91 177 83 C 188 75 203 72 223 72 C 225 72 230 72 237 73 C 244 73 248 74 248 75 Z" unicode="t" />
<glyph horiz-adv-x="528" d="M 58 436 L 149 436 L 149 158 C 149 128 158 105 177 89 C 196 72 221 64 252 64 C 284 64 313 73 337 93 C 361 113 373 142 373 182 L 373 436 L 464 436 L 464 0 L 374 0 L 374 81 C 360 54 339 32 311 16 C 283 0 251 -9 215 -9 C 170 -9 133 4 103 31 C 73 58 58 96 58 146 L 58 436 Z" unicode="u" />
<glyph horiz-adv-x="471" d="M 474 436 L 256 -3 L 207 -3 L -4 436 L 97 436 L 238 130 L 379 436 L 474 436 Z" unicode="v" />
<glyph horiz-adv-x="669" d="M 451 -3 L 336 281 L 217 -3 L 165 -3 L 7 436 L 103 436 L 203 136 L 314 406 L 365 406 L 473 136 L 574 436 L 662 436 L 503 -3 L 451 -3 Z" unicode="w" />
<glyph horiz-adv-x="427" d="M 314 0 L 211 155 L 102 0 L 5 0 L 163 226 L 24 436 L 129 436 L 217 303 L 310 436 L 407 436 L 264 232 L 419 0 L 314 0 Z" unicode="x" />
<glyph horiz-adv-x="476" d="M 475 436 L 218 -90 C 195 -136 170 -165 143 -179 C 116 -193 91 -200 69 -200 C 54 -200 41 -198 31 -195 C 20 -192 12 -190 7 -189 L 32 -103 C 34 -104 39 -106 47 -108 C 55 -110 62 -112 70 -112 C 84 -112 98 -107 111 -98 C 123 -89 136 -71 150 -45 L 191 38 L -3 436 L 98 436 L 238 126 L 380 436 L 475 436 Z" unicode="y" />
<glyph horiz-adv-x="387" d="M 370 436 L 370 393 L 151 82 L 375 82 L 375 0 L 11 0 L 11 26 L 239 354 L 24 354 L 24 436 L 370 436 Z" unicode="z" />
<glyph horiz-adv-x="327" d="M 292 -179 C 226 -178 173 -163 131 -134 C 89 -104 69 -69 69 -27 C 69 -1 72 21 78 43 C 84 64 90 82 98 98 C 105 114 112 130 119 144 C 125 158 129 172 129 186 C 129 201 120 216 102 230 C 84 244 59 251 29 251 L 29 320 C 59 320 84 327 103 342 C 122 356 132 373 132 392 C 132 396 128 407 121 423 C 114 439 106 456 98 475 C 89 493 82 512 77 530 C 72 548 70 565 70 583 C 70 603 75 624 86 644 C 96 664 111 681 131 697 C 151 712 174 724 202 734 C 229 744 259 749 292 749 L 292 682 C 254 681 224 670 200 650 C 176 630 165 605 165 577 C 165 567 166 555 169 541 C 172 527 177 514 184 500 C 194 479 203 460 211 443 C 219 426 223 411 223 399 C 223 372 214 348 197 328 C 180 307 153 293 116 285 C 154 277 181 262 198 241 C 214 220 223 198 223 175 C 223 156 219 139 212 125 C 204 111 197 96 189 82 C 181 68 174 53 170 37 C 166 21 164 6 164 -7 C 164 -19 167 -31 173 -43 C 179 -55 187 -66 198 -76 C 208 -86 222 -94 238 -101 C 254 -107 272 -111 292 -111 L 292 -179 Z" unicode="{" />
<glyph horiz-adv-x="259" d="M 173 -179 L 86 -179 L 86 730 L 173 730 L 173 -179 Z" unicode="|" />
<glyph horiz-adv-x="327" d="M 35 -179 L 35 -111 C 55 -111 72 -107 88 -101 C 104 -94 117 -86 128 -76 C 139 -66 147 -55 153 -43 C 159 -31 162 -19 162 -7 C 162 6 159 21 155 37 C 151 53 145 68 137 82 C 129 96 122 111 114 125 C 106 139 103 156 103 175 C 103 198 111 220 128 241 C 144 262 172 277 210 285 C 172 293 145 307 128 328 C 111 348 103 372 103 399 C 103 411 107 426 115 443 C 123 460 132 479 142 500 C 149 514 154 527 157 541 C 159 555 161 567 161 577 C 161 605 149 630 125 650 C 101 670 71 681 35 682 L 35 749 C 67 749 97 744 125 734 C 152 724 175 712 195 697 C 214 681 229 664 240 644 C 250 624 256 603 256 583 C 256 565 253 548 249 530 C 244 512 237 493 229 475 C 220 456 212 439 205 423 C 198 407 195 396 195 392 C 195 373 204 356 223 342 C 241 327 266 320 298 320 L 298 251 C 266 251 242 244 224 230 C 206 216 197 201 197 186 C 197 172 200 158 207 144 C 214 130 221 114 229 98 C 236 82 242 64 248 43 C 254 21 257 -1 257 -27 C 257 -69 236 -104 195 -134 C 153 -163 100 -178 35 -179 Z" unicode="}" />
<glyph horiz-adv-x="500" d="M 387 440 L 467 440 C 467 380 458 335 440 307 C 422 279 394 265 358 265 C 334 265 314 269 297 278 C 279 287 264 297 252 308 C 238 318 224 328 210 336 C 196 344 181 349 167 349 C 152 349 139 342 129 328 C 118 314 113 294 113 268 L 34 268 C 34 328 43 372 63 401 C 83 429 106 444 134 444 C 160 444 183 439 203 430 C 223 421 242 410 260 398 C 272 388 285 378 299 370 C 313 361 328 357 345 357 C 363 357 374 363 379 377 C 384 391 387 412 387 440 Z" unicode="~" />
<glyph horiz-adv-x="305" d="M 102 579 L 203 579 L 203 466 L 102 466 L 102 579 Z M 97 144 L 129 370 L 178 370 L 207 144 L 207 -133 L 97 -133 L 97 144 Z" unicode="¡" />
<glyph horiz-adv-x="575" d="M 556 191 C 538 164 513 138 482 112 C 450 86 408 71 354 67 L 354 -41 L 275 -41 L 275 68 C 208 77 153 106 111 155 C 68 203 47 263 47 335 C 47 370 52 403 64 435 C 75 466 91 494 111 518 C 131 542 155 562 183 578 C 211 594 241 604 275 610 L 275 711 L 354 711 L 354 613 C 406 608 449 592 483 565 C 517 538 541 509 556 477 L 479 443 C 466 463 449 482 429 499 C 408 516 383 527 354 532 L 354 146 C 390 150 418 162 439 182 C 459 201 476 220 488 239 L 556 191 Z M 139 339 C 139 291 151 250 175 216 C 199 182 233 159 275 149 L 275 530 C 233 519 200 496 176 461 C 151 425 139 385 139 339 Z" unicode="¢" />
<glyph horiz-adv-x="587" d="M 578 83 L 578 0 L 16 0 L 16 56 C 22 58 32 61 47 65 C 61 68 82 72 109 77 C 135 81 159 92 181 109 C 202 126 213 149 213 179 C 213 185 212 192 211 198 C 209 204 207 211 205 218 L 30 218 L 30 286 L 170 286 C 164 296 157 306 151 317 C 144 327 137 338 131 349 L 30 349 L 30 417 L 96 417 C 87 435 80 455 75 477 C 70 498 68 520 68 544 C 68 581 75 612 89 638 C 103 663 121 683 145 699 C 168 714 195 725 226 732 C 256 738 288 742 322 742 C 378 742 429 732 475 714 C 521 696 554 678 575 662 L 520 582 C 502 596 475 611 439 627 C 403 643 365 652 323 652 C 303 652 283 650 265 646 C 246 642 229 635 215 625 C 200 615 188 603 180 587 C 171 571 167 551 167 527 C 167 508 170 489 176 471 C 182 453 190 435 200 417 L 494 417 L 494 349 L 241 349 C 247 338 254 327 260 317 C 266 306 272 296 277 286 L 494 286 L 494 218 L 296 218 C 295 179 284 148 264 126 C 243 104 221 89 199 83 L 578 83 Z" unicode="£" />
<glyph horiz-adv-x="502" d="M 441 191 L 399 149 L 342 209 C 328 201 314 194 298 190 C 282 186 266 184 250 184 C 233 184 217 186 201 190 C 185 194 171 201 158 209 L 101 149 L 57 193 L 111 249 C 99 263 89 279 83 297 C 76 315 73 334 73 354 C 73 374 76 393 83 411 C 90 429 100 445 112 460 L 57 516 L 99 558 L 157 498 C 170 506 185 513 201 517 C 217 521 233 524 250 524 C 267 524 284 521 300 517 C 316 512 330 506 344 498 L 404 559 L 446 516 L 390 458 C 401 443 410 427 417 409 C 423 391 427 373 427 354 C 427 333 423 314 416 296 C 409 278 400 261 388 247 L 441 191 Z M 250 252 C 279 252 304 262 326 283 C 347 303 358 327 358 354 C 358 381 347 405 326 425 C 304 445 279 456 250 456 C 220 456 194 445 173 425 C 152 405 142 381 142 354 C 142 327 152 303 173 283 C 194 262 220 252 250 252 Z" unicode="¤" />
<glyph horiz-adv-x="656" d="M 567 137 L 371 137 L 371 0 L 271 0 L 271 137 L 85 137 L 85 210 L 271 210 L 271 268 L 85 268 L 85 340 L 271 340 L 271 342 L 35 730 L 146 730 L 326 430 L 507 730 L 612 730 L 372 340 L 567 340 L 567 268 L 371 268 L 371 210 L 567 210 L 567 137 Z" unicode="¥" />
<glyph horiz-adv-x="277" d="M 99 351 L 99 730 L 179 730 L 179 351 L 99 351 Z M 179 200 L 179 -179 L 99 -179 L 99 200 L 179 200 Z" unicode="¦" />
<glyph horiz-adv-x="676" d="M 356 -181 C 298 -181 243 -174 193 -160 C 142 -146 100 -128 66 -106 L 106 -29 C 138 -50 177 -68 223 -82 C 269 -96 312 -104 352 -104 C 389 -104 420 -95 445 -79 C 469 -62 482 -38 482 -8 C 482 19 471 40 451 55 C 430 69 403 83 371 96 L 243 148 C 212 160 185 172 161 183 C 137 194 117 206 101 219 C 85 232 73 247 65 264 C 57 280 53 301 53 326 C 53 356 61 382 77 402 C 93 422 112 439 135 453 C 115 464 100 480 91 500 C 82 520 78 544 78 574 C 78 600 84 624 97 645 C 109 666 127 684 149 698 C 171 712 197 722 227 730 C 257 738 290 742 326 742 C 389 742 440 733 480 716 C 520 699 554 681 583 663 L 542 592 C 510 612 477 629 443 645 C 409 660 369 668 323 668 C 281 668 246 659 218 643 C 190 626 176 603 176 574 C 176 553 183 536 197 522 C 211 508 233 496 263 486 L 434 421 C 495 399 542 376 574 352 C 606 328 622 293 622 247 C 622 210 609 181 585 160 C 560 138 533 124 503 118 C 510 114 518 108 528 101 C 537 93 546 84 554 74 C 562 63 568 51 574 37 C 579 23 582 8 582 -9 C 582 -36 576 -60 564 -82 C 552 -103 537 -121 517 -136 C 497 -150 473 -161 445 -169 C 417 -177 388 -181 356 -181 Z M 435 166 C 457 168 478 174 497 185 C 515 196 525 214 525 238 C 525 260 514 280 492 297 C 470 313 433 331 380 350 L 217 413 C 197 405 181 395 168 383 C 155 371 149 355 149 334 C 149 308 160 288 183 273 C 206 257 244 240 296 220 L 435 166 Z" unicode="§" />
<glyph horiz-adv-x="500" d="M 382 499 L 304 499 L 304 657 L 382 657 L 382 499 Z M 196 499 L 118 499 L 118 657 L 196 657 L 196 499 Z" unicode="¨" />
<glyph horiz-adv-x="829" d="M 414 3 C 363 3 315 12 270 32 C 225 52 186 78 153 112 C 119 145 93 184 74 229 C 54 274 45 322 45 373 C 45 423 54 471 74 516 C 93 561 119 600 153 634 C 186 667 225 693 270 713 C 315 732 363 742 414 742 C 464 742 512 732 558 713 C 603 693 642 667 676 634 C 709 600 735 561 755 516 C 774 471 784 423 784 373 C 784 322 774 274 755 229 C 735 184 709 145 676 112 C 642 78 603 52 558 32 C 512 12 464 3 414 3 Z M 414 65 C 456 65 495 73 532 89 C 569 105 601 127 629 155 C 657 183 679 215 695 253 C 711 290 719 330 719 372 C 719 414 711 453 695 491 C 679 528 657 561 629 589 C 601 617 569 639 532 655 C 495 671 456 680 414 680 C 372 680 332 671 295 655 C 257 639 225 617 198 589 C 170 561 149 528 133 491 C 117 453 109 414 109 372 C 109 330 117 290 133 253 C 149 215 170 183 198 155 C 225 127 257 105 295 89 C 332 73 372 65 414 65 Z M 587 244 C 570 219 547 198 519 182 C 491 165 456 157 414 157 C 387 157 361 161 337 171 C 312 181 290 195 272 213 C 253 231 238 253 227 281 C 215 308 210 339 210 374 C 210 408 215 439 225 467 C 235 495 250 518 268 538 C 286 557 307 572 331 583 C 355 593 381 599 409 599 C 453 599 489 591 517 576 C 544 561 566 542 582 519 L 516 471 C 505 485 492 497 476 507 C 460 517 438 522 412 522 C 378 522 349 507 327 479 C 305 450 294 414 294 372 C 294 326 306 291 331 267 C 356 242 384 230 415 230 C 438 230 459 235 477 246 C 495 256 510 270 522 287 L 587 244 Z" unicode="©" />
<glyph horiz-adv-x="430" d="M 391 342 L 318 342 L 318 397 C 303 377 283 362 257 352 C 231 342 204 337 174 337 C 131 337 97 347 73 369 C 48 391 36 421 36 459 C 36 501 52 533 86 556 C 120 578 166 591 224 594 L 313 600 L 313 605 C 313 625 304 641 288 652 C 272 663 249 669 220 669 C 196 669 172 664 150 656 C 128 648 108 638 91 628 L 63 691 C 83 705 108 718 137 728 C 165 738 198 743 236 743 C 283 743 321 732 349 710 C 377 688 391 653 391 605 L 391 342 Z M 316 453 L 316 541 L 219 535 C 189 533 164 527 145 517 C 125 507 116 490 116 466 C 116 446 124 431 140 420 C 156 408 176 403 202 403 C 224 403 245 407 266 416 C 287 425 304 437 316 453 Z M 403 223 L 42 223 L 42 298 L 403 298 L 403 223 Z" unicode="ª" />
<glyph horiz-adv-x="457" d="M 209 74 L 28 241 L 28 312 L 209 477 L 209 379 L 108 274 L 209 175 L 209 74 Z M 428 74 L 246 241 L 246 312 L 428 477 L 428 379 L 327 274 L 428 176 L 428 74 Z" unicode="«" />
<glyph horiz-adv-x="500" d="M 451 386 L 451 131 L 373 131 L 373 305 L 31 305 L 31 386 L 451 386 Z" unicode="¬" />
<glyph horiz-adv-x="829" d="M 414 3 C 363 3 315 12 270 32 C 225 52 186 78 153 112 C 119 145 93 184 74 229 C 54 274 45 322 45 373 C 45 423 54 471 74 516 C 93 561 119 600 153 634 C 186 667 225 693 270 713 C 315 732 363 742 414 742 C 464 742 512 732 558 713 C 603 693 642 667 676 634 C 709 600 735 561 755 516 C 774 471 784 423 784 373 C 784 322 774 274 755 229 C 735 184 709 145 676 112 C 642 78 603 52 558 32 C 512 12 464 3 414 3 Z M 414 65 C 456 65 495 72 533 88 C 570 104 602 125 630 153 C 658 181 680 213 696 251 C 712 288 720 328 720 372 C 720 415 712 455 696 493 C 680 531 658 563 630 591 C 602 618 570 640 533 656 C 495 672 456 680 414 680 C 372 680 332 672 295 656 C 258 640 226 618 198 590 C 170 562 149 530 133 492 C 117 454 109 414 109 372 C 109 329 117 289 133 251 C 149 213 170 181 198 154 C 226 126 258 105 295 89 C 332 73 372 65 414 65 Z M 275 165 L 275 600 L 434 600 C 451 600 468 597 486 593 C 504 588 520 581 534 571 C 548 561 559 549 568 534 C 576 518 581 500 581 479 C 581 440 570 411 549 393 C 528 375 506 364 484 361 L 483 357 L 613 165 L 526 165 L 417 333 L 353 333 L 353 165 L 275 165 Z M 353 398 L 437 398 C 453 398 469 404 483 416 C 497 428 504 446 505 469 C 505 493 497 510 483 519 C 468 527 449 532 427 532 L 353 532 L 353 398 Z" unicode="®" />
<glyph horiz-adv-x="500" d="M 381 523 L 119 523 L 119 591 L 381 591 L 381 523 Z" unicode="¯" />
<glyph horiz-adv-x="436" d="M 218 366 C 192 366 167 371 144 381 C 121 391 101 404 85 421 C 68 437 55 457 45 480 C 35 503 30 528 30 554 C 30 580 35 604 45 627 C 55 650 68 670 85 687 C 101 703 121 717 144 727 C 167 737 192 742 218 742 C 244 742 268 737 291 727 C 314 717 334 703 351 687 C 367 670 381 650 391 627 C 401 604 406 580 406 554 C 406 528 401 503 391 480 C 381 457 367 437 351 421 C 334 404 314 391 291 381 C 268 371 244 366 218 366 Z M 218 439 C 250 439 277 450 300 473 C 322 495 334 522 334 554 C 334 586 322 613 300 636 C 277 658 250 670 218 670 C 186 670 158 658 136 636 C 113 613 102 586 102 554 C 102 522 113 495 136 473 C 158 450 186 439 218 439 Z" unicode="°" />
<glyph horiz-adv-x="500" d="M 475 295 L 290 295 L 290 112 L 211 112 L 211 295 L 25 295 L 25 367 L 211 367 L 211 550 L 290 550 L 290 367 L 475 367 L 475 295 Z M 470 25 L 32 25 L 32 90 L 470 90 L 470 25 Z" unicode="±" />
<glyph horiz-adv-x="344" d="M 309 372 L 27 372 L 27 402 L 186 559 C 192 565 199 573 205 583 C 211 593 215 605 215 619 C 215 633 210 645 200 656 C 190 667 176 673 156 673 C 133 673 117 666 108 652 C 99 638 94 623 94 605 L 22 605 C 22 641 34 673 59 700 C 83 727 119 741 165 741 C 209 741 242 730 264 710 C 286 689 297 664 297 636 C 297 609 292 587 282 569 C 272 551 262 537 252 527 L 159 439 L 309 439 L 309 372 Z" unicode="²" />
<glyph horiz-adv-x="346" d="M 226 569 C 254 564 275 553 291 537 C 307 520 315 500 315 477 C 315 465 312 452 307 439 C 302 425 294 413 282 402 C 270 391 255 382 235 375 C 215 367 190 364 161 364 C 119 364 87 368 64 378 C 40 388 22 398 10 408 L 54 454 C 65 447 79 441 96 435 C 113 429 133 426 157 426 C 188 426 210 432 223 444 C 235 456 242 471 242 489 C 242 507 234 520 218 526 C 202 532 183 535 162 535 L 89 535 L 89 593 L 156 593 C 176 593 193 596 206 603 C 218 610 225 621 225 636 C 225 648 219 658 208 666 C 197 673 180 677 158 677 C 138 677 120 673 103 666 C 86 658 73 650 65 640 L 21 684 C 34 698 52 711 74 723 C 96 735 128 742 169 742 C 209 742 241 733 265 717 C 288 700 300 678 300 652 C 300 630 292 611 278 597 C 263 583 246 573 226 569 Z" unicode="³" />
<glyph horiz-adv-x="500" d="M 151 498 L 256 661 L 366 661 L 244 498 L 151 498 Z" unicode="´" />
<glyph horiz-adv-x="555" d="M 69 -106 L 69 436 L 161 436 L 161 158 C 161 128 170 105 189 89 C 207 72 232 64 264 64 C 296 64 324 73 348 93 C 372 113 384 142 384 182 L 384 436 L 475 436 L 475 0 L 392 0 L 392 93 C 380 65 362 41 336 22 C 310 3 281 -6 247 -8 C 224 -8 204 -4 188 5 C 172 14 160 27 154 44 L 154 -106 L 69 -106 Z" unicode="µ" />
<glyph horiz-adv-x="683" d="M 611 -179 L 548 -179 L 548 657 L 434 657 L 434 -179 L 371 -179 L 371 247 L 262 247 C 231 247 201 253 172 266 C 143 279 118 296 96 318 C 74 339 56 364 43 393 C 29 422 23 453 23 485 C 23 519 29 552 42 582 C 54 612 72 637 94 659 C 116 681 144 698 176 711 C 208 723 243 730 282 730 L 611 730 L 611 -179 Z M 372 324 L 372 653 L 301 653 C 249 653 212 637 192 606 C 172 574 162 535 162 488 C 162 466 164 445 169 425 C 174 405 182 387 192 372 C 202 357 216 345 232 337 C 248 328 268 324 291 324 L 372 324 Z" unicode="¶" />
<glyph horiz-adv-x="254" d="M 174 271 L 81 271 L 81 401 L 174 401 L 174 271 Z" unicode="·" />
<glyph horiz-adv-x="500" d="M 256 -188 C 231 -188 206 -185 181 -179 C 156 -173 137 -165 123 -156 L 134 -114 C 144 -119 157 -124 173 -130 C 189 -135 207 -138 226 -138 C 240 -138 253 -134 265 -128 C 276 -121 282 -112 282 -102 C 282 -89 277 -80 267 -75 C 257 -70 246 -68 235 -68 C 227 -68 220 -68 214 -69 C 208 -70 201 -72 195 -75 L 180 -59 L 241 12 L 299 12 L 249 -50 C 283 -42 312 -45 336 -58 C 359 -70 371 -89 371 -114 C 371 -138 359 -157 336 -169 C 313 -181 286 -188 256 -188 Z" unicode="¸" />
<glyph horiz-adv-x="318" d="M 139 372 L 139 641 C 131 630 118 620 99 612 C 79 604 63 598 49 596 L 48 678 C 72 681 94 688 112 698 C 130 708 149 722 168 740 L 225 740 L 225 372 L 139 372 Z" unicode="¹" />
<glyph horiz-adv-x="441" d="M 217 336 C 191 336 167 340 143 349 C 119 358 99 371 81 389 C 63 406 48 427 37 452 C 26 477 21 505 21 537 C 21 564 26 590 37 615 C 47 640 61 662 79 680 C 97 698 118 713 142 724 C 166 735 192 741 219 741 C 247 741 273 736 298 727 C 322 717 343 704 361 687 C 379 670 393 650 403 626 C 413 602 419 575 419 546 C 419 516 413 488 403 462 C 392 436 378 414 360 396 C 342 377 320 362 296 352 C 271 341 245 336 217 336 Z M 218 412 C 252 412 281 424 303 449 C 325 473 337 505 337 544 C 337 580 326 610 305 634 C 284 658 255 670 219 670 C 185 670 157 657 135 632 C 113 607 103 575 103 536 C 103 498 114 468 136 446 C 158 423 185 412 218 412 Z M 38 223 L 38 298 L 400 298 L 400 223 L 38 223 Z" unicode="º" />
<glyph horiz-adv-x="457" d="M 29 477 L 212 309 L 212 239 L 29 74 L 29 171 L 130 276 L 29 375 L 29 477 Z M 248 477 L 429 309 L 429 239 L 248 74 L 248 171 L 349 276 L 248 375 L 248 477 Z" unicode="»" />
<glyph horiz-adv-x="701" d="M 12 0 L 12 0 Z M 103 372 L 103 641 C 95 630 82 620 63 612 C 43 604 27 598 13 596 L 12 678 C 36 681 58 688 76 698 C 94 708 113 722 132 740 L 189 740 L 189 372 L 103 372 Z M 577 730 L 210 0 L 129 0 L 496 730 L 577 730 Z M 389 83 L 389 139 L 575 366 L 628 366 L 628 142 L 689 142 L 689 83 L 628 83 L 628 1 L 552 1 L 552 83 L 389 83 Z M 451 131 L 554 131 L 554 259 L 451 131 Z" unicode="¼" />
<glyph horiz-adv-x="769" d="M 12 0 L 12 0 Z M 103 372 L 103 641 C 95 630 82 620 63 612 C 43 604 27 598 13 596 L 12 678 C 36 681 58 688 76 698 C 94 708 113 722 132 740 L 189 740 L 189 372 L 103 372 Z M 577 730 L 210 0 L 129 0 L 496 730 L 577 730 Z M 743 0 L 461 0 L 461 30 L 620 187 C 626 193 633 201 639 211 C 645 221 649 233 649 247 C 649 261 644 273 634 284 C 624 295 610 301 590 301 C 567 301 551 294 542 280 C 533 266 528 251 528 233 L 456 233 C 456 269 468 301 493 328 C 517 355 553 369 599 369 C 643 369 676 358 698 338 C 720 317 731 292 731 264 C 731 237 726 215 716 197 C 706 179 696 165 686 155 L 593 67 L 743 67 L 743 0 Z" unicode="½" />
<glyph horiz-adv-x="761" d="M 12 0 L 12 0 Z M 637 730 L 270 0 L 189 0 L 556 730 L 637 730 Z M 449 83 L 449 139 L 635 366 L 688 366 L 688 142 L 749 142 L 749 83 L 688 83 L 688 1 L 612 1 L 612 83 L 449 83 Z M 511 131 L 614 131 L 614 259 L 511 131 Z M 228 569 C 256 564 277 553 293 537 C 309 520 317 500 317 477 C 317 465 314 452 309 439 C 304 425 296 413 284 402 C 272 391 257 382 237 375 C 217 367 192 364 163 364 C 121 364 89 368 66 378 C 42 388 24 398 12 408 L 56 454 C 67 447 81 441 98 435 C 115 429 135 426 159 426 C 190 426 212 432 225 444 C 237 456 244 471 244 489 C 244 507 236 520 220 526 C 204 532 185 535 164 535 L 91 535 L 91 593 L 158 593 C 178 593 195 596 208 603 C 220 610 227 621 227 636 C 227 648 221 658 210 666 C 199 673 182 677 160 677 C 140 677 122 673 105 666 C 88 658 75 650 67 640 L 23 684 C 36 698 54 711 76 723 C 98 735 130 742 171 742 C 211 742 243 733 267 717 C 290 700 302 678 302 652 C 302 630 294 611 280 597 C 265 583 248 573 228 569 Z" unicode="¾" />
<glyph horiz-adv-x="471" d="M 203 479 L 203 579 L 308 579 L 308 479 L 203 479 Z M 236 -150 C 205 -150 176 -146 149 -138 C 122 -130 99 -119 79 -105 C 59 -90 44 -72 33 -50 C 21 -28 16 -4 16 24 C 16 50 20 73 28 93 C 36 113 47 130 60 145 C 72 160 86 173 101 185 C 115 196 129 206 142 215 C 171 236 190 261 198 290 C 206 318 210 348 211 378 L 304 378 C 304 328 298 289 288 261 C 278 233 256 207 224 183 C 210 173 197 163 184 153 C 171 143 159 133 149 122 C 139 110 130 98 124 84 C 117 70 114 54 114 36 C 114 3 126 -22 152 -41 C 177 -59 208 -69 246 -69 C 278 -69 308 -61 335 -47 C 361 -32 383 -14 400 6 L 462 -51 C 441 -77 411 -100 373 -120 C 335 -140 289 -150 236 -150 Z" unicode="¿" />
<glyph horiz-adv-x="658" d="M 2 0 L 2 0 Z M 655 0 L 551 0 L 474 193 L 179 193 L 103 0 L 2 0 L 303 733 L 360 733 L 655 0 Z M 442 279 L 326 565 L 212 279 L 442 279 Z M 329 792 L 329 792 Z M 437 792 L 343 792 L 221 955 L 330 955 L 437 792 Z" unicode="À" />
<glyph horiz-adv-x="658" d="M 2 0 L 2 0 Z M 655 0 L 551 0 L 474 193 L 179 193 L 103 0 L 2 0 L 303 733 L 360 733 L 655 0 Z M 442 279 L 326 565 L 212 279 L 442 279 Z M 329 792 L 329 792 Z M 222 792 L 327 955 L 437 955 L 315 792 L 222 792 Z" unicode="Á" />
<glyph horiz-adv-x="658" d="M 2 0 L 2 0 Z M 655 0 L 551 0 L 474 193 L 179 193 L 103 0 L 2 0 L 303 733 L 360 733 L 655 0 Z M 442 279 L 326 565 L 212 279 L 442 279 Z M 329 793 L 329 793 Z M 500 793 L 413 793 L 329 899 L 244 793 L 159 793 L 282 964 L 377 964 L 500 793 Z" unicode="Â" />
<glyph horiz-adv-x="658" d="M 2 0 L 2 0 Z M 655 0 L 551 0 L 474 193 L 179 193 L 103 0 L 2 0 L 303 733 L 360 733 L 655 0 Z M 442 279 L 326 565 L 212 279 L 442 279 Z M 329 799 L 329 799 Z M 421 936 L 489 936 C 489 889 482 854 469 832 C 455 810 438 799 417 799 C 398 799 381 802 367 809 C 353 816 341 823 333 829 C 323 835 313 841 305 847 C 296 853 287 856 279 856 C 270 856 262 850 256 840 C 249 830 246 817 246 803 L 176 803 C 176 849 185 883 203 906 C 221 928 241 940 262 940 C 277 940 290 936 302 930 C 314 923 326 915 338 907 C 346 900 355 894 364 888 C 372 882 381 879 390 879 C 398 879 405 884 411 895 C 417 905 421 919 421 936 Z" unicode="Ã" />
<glyph horiz-adv-x="658" d="M 2 0 L 2 0 Z M 655 0 L 551 0 L 474 193 L 179 193 L 103 0 L 2 0 L 303 733 L 360 733 L 655 0 Z M 442 279 L 326 565 L 212 279 L 442 279 Z M 329 793 L 329 793 Z M 460 793 L 382 793 L 382 951 L 460 951 L 460 793 Z M 274 793 L 196 793 L 196 951 L 274 951 L 274 793 Z" unicode="Ä" />
<glyph horiz-adv-x="658" d="M 2 0 L 2 0 Z M 655 0 L 551 0 L 474 193 L 179 193 L 103 0 L 2 0 L 303 733 L 360 733 L 655 0 Z M 442 279 L 326 565 L 212 279 L 442 279 Z M 329 789 L 329 789 Z M 329 789 C 297 789 271 800 249 822 C 227 844 216 870 216 902 C 216 934 227 961 249 983 C 271 1005 297 1016 329 1016 C 361 1016 388 1005 410 983 C 432 961 443 934 443 902 C 443 870 432 844 410 822 C 388 800 361 789 329 789 Z M 329 843 C 345 843 359 848 370 860 C 381 871 387 885 387 902 C 387 918 381 932 370 944 C 359 956 345 962 329 962 C 313 962 299 956 288 944 C 276 932 271 918 271 902 C 271 885 276 871 288 860 C 299 848 313 843 329 843 Z" unicode="Å" />
<glyph horiz-adv-x="974" d="M 921 0 L 486 0 L 486 246 L 241 246 L 87 0 L -20 0 L 442 730 L 902 730 L 902 640 L 585 640 L 585 405 L 887 405 L 887 315 L 585 315 L 585 90 L 921 90 L 921 0 Z M 486 331 L 486 636 L 294 331 L 486 331 Z" unicode="Æ" />
<glyph horiz-adv-x="708" d="M 47 0 L 47 0 Z M 408 -12 C 358 -12 311 -3 267 13 C 223 30 184 55 152 87 C 120 119 94 158 75 205 C 56 252 47 305 47 365 C 47 419 56 469 74 515 C 92 561 117 600 149 634 C 181 668 219 694 264 713 C 308 732 357 742 410 742 C 476 742 531 732 576 714 C 620 695 658 670 688 639 L 627 556 C 605 581 577 602 542 620 C 506 638 464 647 414 647 C 372 647 334 639 302 625 C 269 611 241 591 219 566 C 197 540 180 510 168 475 C 156 440 151 402 151 361 C 151 313 158 272 173 237 C 187 201 207 172 231 149 C 255 125 282 108 314 96 C 346 84 379 79 413 79 C 466 79 512 89 550 110 C 588 130 620 156 645 186 L 702 121 C 670 82 629 50 579 25 C 529 0 472 -12 408 -12 Z M 388 -1 L 388 -1 Z M 397 -189 C 372 -189 347 -186 322 -180 C 297 -174 278 -166 264 -157 L 275 -115 C 285 -120 298 -125 314 -131 C 330 -136 348 -139 367 -139 C 381 -139 394 -135 406 -129 C 417 -122 423 -113 423 -103 C 423 -90 418 -81 408 -76 C 398 -71 387 -69 376 -69 C 368 -69 361 -69 355 -70 C 349 -71 342 -73 336 -76 L 321 -60 L 382 11 L 440 11 L 390 -51 C 424 -43 453 -46 477 -59 C 500 -71 512 -90 512 -115 C 512 -139 500 -158 477 -170 C 454 -182 427 -189 397 -189 Z" unicode="Ç" />
<glyph horiz-adv-x="584" d="M 95 0 L 95 0 Z M 532 0 L 95 0 L 95 730 L 513 730 L 513 640 L 195 640 L 195 405 L 497 405 L 497 315 L 195 315 L 195 90 L 532 90 L 532 0 Z M 307 792 L 307 792 Z M 415 792 L 321 792 L 199 955 L 308 955 L 415 792 Z" unicode="È" />
<glyph horiz-adv-x="584" d="M 95 0 L 95 0 Z M 532 0 L 95 0 L 95 730 L 513 730 L 513 640 L 195 640 L 195 405 L 497 405 L 497 315 L 195 315 L 195 90 L 532 90 L 532 0 Z M 307 792 L 307 792 Z M 200 792 L 305 955 L 415 955 L 293 792 L 200 792 Z" unicode="É" />
<glyph horiz-adv-x="584" d="M 95 0 L 95 0 Z M 532 0 L 95 0 L 95 730 L 513 730 L 513 640 L 195 640 L 195 405 L 497 405 L 497 315 L 195 315 L 195 90 L 532 90 L 532 0 Z M 307 793 L 307 793 Z M 478 793 L 391 793 L 307 899 L 222 793 L 137 793 L 260 964 L 355 964 L 478 793 Z" unicode="Ê" />
<glyph horiz-adv-x="584" d="M 95 0 L 95 0 Z M 532 0 L 95 0 L 95 730 L 513 730 L 513 640 L 195 640 L 195 405 L 497 405 L 497 315 L 195 315 L 195 90 L 532 90 L 532 0 Z M 307 793 L 307 793 Z M 438 793 L 360 793 L 360 951 L 438 951 L 438 793 Z M 252 793 L 174 793 L 174 951 L 252 951 L 252 793 Z" unicode="Ë" />
<glyph horiz-adv-x="300" d="M 42 0 L 42 0 Z M 200 0 L 100 0 L 100 730 L 200 730 L 200 0 Z M 150 792 L 150 792 Z M 258 792 L 164 792 L 42 955 L 151 955 L 258 792 Z" unicode="Ì" />
<glyph horiz-adv-x="300" d="M 43 0 L 43 0 Z M 200 0 L 100 0 L 100 730 L 200 730 L 200 0 Z M 150 792 L 150 792 Z M 43 792 L 148 955 L 258 955 L 136 792 L 43 792 Z" unicode="Í" />
<glyph horiz-adv-x="300" d="M 0 0 L 0 0 Z M 200 0 L 100 0 L 100 730 L 200 730 L 200 0 Z M 150 793 L 150 793 Z M 321 793 L 234 793 L 150 899 L 65 793 L -20 793 L 103 964 L 198 964 L 321 793 Z" unicode="Î" />
<glyph horiz-adv-x="300" d="M 17 0 L 17 0 Z M 200 0 L 100 0 L 100 730 L 200 730 L 200 0 Z M 150 793 L 150 793 Z M 281 793 L 203 793 L 203 951 L 281 951 L 281 793 Z M 95 793 L 17 793 L 17 951 L 95 951 L 95 793 Z" unicode="Ï" />
<glyph horiz-adv-x="749" d="M 702 367 C 702 316 693 268 676 224 C 658 179 633 140 599 107 C 565 74 524 48 474 29 C 424 9 366 0 301 0 L 95 0 L 95 315 L 35 315 L 35 399 L 95 399 L 95 730 L 316 730 C 378 730 433 721 481 704 C 529 687 569 663 602 632 C 634 600 659 562 676 517 C 693 472 702 422 702 367 Z M 195 89 L 295 89 C 348 89 394 96 432 112 C 470 127 502 147 526 173 C 550 199 568 228 580 261 C 591 294 597 328 597 364 C 597 449 572 516 522 565 C 472 614 404 639 316 639 L 195 639 L 195 399 L 374 399 L 374 315 L 195 315 L 195 89 Z" unicode="Ð" />
<glyph horiz-adv-x="781" d="M 95 0 L 95 0 Z M 685 0 L 617 0 L 191 547 L 191 0 L 95 0 L 95 730 L 171 730 L 589 186 L 589 730 L 685 730 L 685 0 Z M 392 799 L 392 799 Z M 484 936 L 552 936 C 552 889 545 854 532 832 C 518 810 501 799 480 799 C 461 799 444 802 430 809 C 416 816 404 823 396 829 C 386 835 376 841 368 847 C 359 853 350 856 342 856 C 333 856 325 850 319 840 C 312 830 309 817 309 803 L 239 803 C 239 849 248 883 266 906 C 284 928 304 940 325 940 C 340 940 353 936 365 930 C 377 923 389 915 401 907 C 409 900 418 894 427 888 C 435 882 444 879 453 879 C 461 879 468 884 474 895 C 480 905 484 919 484 936 Z" unicode="Ñ" />
<glyph horiz-adv-x="842" d="M 47 0 L 47 0 Z M 424 -12 C 367 -12 315 -2 269 16 C 222 35 182 61 150 95 C 117 129 92 169 74 216 C 56 263 47 314 47 370 C 47 422 56 470 76 516 C 95 562 121 601 154 635 C 187 668 226 694 271 713 C 316 732 364 742 416 742 C 471 742 522 733 569 715 C 615 697 655 671 689 639 C 722 606 748 566 767 520 C 785 474 795 423 795 368 C 795 312 785 260 765 214 C 745 167 719 127 685 94 C 651 60 612 34 567 16 C 521 -2 474 -12 424 -12 Z M 423 82 C 461 82 496 88 529 102 C 561 115 590 134 614 159 C 638 184 657 215 671 251 C 685 287 692 327 692 371 C 692 411 685 449 671 483 C 657 517 639 546 615 570 C 591 594 562 612 529 626 C 495 640 459 647 420 647 C 381 647 345 640 312 628 C 279 615 251 597 227 573 C 203 549 184 519 171 485 C 157 450 151 411 151 367 C 151 321 158 281 172 246 C 186 210 206 180 231 156 C 255 132 284 113 317 101 C 350 88 385 82 423 82 Z M 419 792 L 419 792 Z M 527 792 L 433 792 L 311 955 L 420 955 L 527 792 Z" unicode="Ò" />
<glyph horiz-adv-x="842" d="M 47 0 L 47 0 Z M 424 -12 C 367 -12 315 -2 269 16 C 222 35 182 61 150 95 C 117 129 92 169 74 216 C 56 263 47 314 47 370 C 47 422 56 470 76 516 C 95 562 121 601 154 635 C 187 668 226 694 271 713 C 316 732 364 742 416 742 C 471 742 522 733 569 715 C 615 697 655 671 689 639 C 722 606 748 566 767 520 C 785 474 795 423 795 368 C 795 312 785 260 765 214 C 745 167 719 127 685 94 C 651 60 612 34 567 16 C 521 -2 474 -12 424 -12 Z M 423 82 C 461 82 496 88 529 102 C 561 115 590 134 614 159 C 638 184 657 215 671 251 C 685 287 692 327 692 371 C 692 411 685 449 671 483 C 657 517 639 546 615 570 C 591 594 562 612 529 626 C 495 640 459 647 420 647 C 381 647 345 640 312 628 C 279 615 251 597 227 573 C 203 549 184 519 171 485 C 157 450 151 411 151 367 C 151 321 158 281 172 246 C 186 210 206 180 231 156 C 255 132 284 113 317 101 C 350 88 385 82 423 82 Z M 419 792 L 419 792 Z M 312 792 L 417 955 L 527 955 L 405 792 L 312 792 Z" unicode="Ó" />
<glyph horiz-adv-x="842" d="M 47 0 L 47 0 Z M 424 -12 C 367 -12 315 -2 269 16 C 222 35 182 61 150 95 C 117 129 92 169 74 216 C 56 263 47 314 47 370 C 47 422 56 470 76 516 C 95 562 121 601 154 635 C 187 668 226 694 271 713 C 316 732 364 742 416 742 C 471 742 522 733 569 715 C 615 697 655 671 689 639 C 722 606 748 566 767 520 C 785 474 795 423 795 368 C 795 312 785 260 765 214 C 745 167 719 127 685 94 C 651 60 612 34 567 16 C 521 -2 474 -12 424 -12 Z M 423 82 C 461 82 496 88 529 102 C 561 115 590 134 614 159 C 638 184 657 215 671 251 C 685 287 692 327 692 371 C 692 411 685 449 671 483 C 657 517 639 546 615 570 C 591 594 562 612 529 626 C 495 640 459 647 420 647 C 381 647 345 640 312 628 C 279 615 251 597 227 573 C 203 549 184 519 171 485 C 157 450 151 411 151 367 C 151 321 158 281 172 246 C 186 210 206 180 231 156 C 255 132 284 113 317 101 C 350 88 385 82 423 82 Z M 419 793 L 419 793 Z M 590 793 L 503 793 L 419 899 L 334 793 L 249 793 L 372 964 L 467 964 L 590 793 Z" unicode="Ô" />
<glyph horiz-adv-x="842" d="M 47 0 L 47 0 Z M 424 -12 C 367 -12 315 -2 269 16 C 222 35 182 61 150 95 C 117 129 92 169 74 216 C 56 263 47 314 47 370 C 47 422 56 470 76 516 C 95 562 121 601 154 635 C 187 668 226 694 271 713 C 316 732 364 742 416 742 C 471 742 522 733 569 715 C 615 697 655 671 689 639 C 722 606 748 566 767 520 C 785 474 795 423 795 368 C 795 312 785 260 765 214 C 745 167 719 127 685 94 C 651 60 612 34 567 16 C 521 -2 474 -12 424 -12 Z M 423 82 C 461 82 496 88 529 102 C 561 115 590 134 614 159 C 638 184 657 215 671 251 C 685 287 692 327 692 371 C 692 411 685 449 671 483 C 657 517 639 546 615 570 C 591 594 562 612 529 626 C 495 640 459 647 420 647 C 381 647 345 640 312 628 C 279 615 251 597 227 573 C 203 549 184 519 171 485 C 157 450 151 411 151 367 C 151 321 158 281 172 246 C 186 210 206 180 231 156 C 255 132 284 113 317 101 C 350 88 385 82 423 82 Z M 419 799 L 419 799 Z M 511 936 L 579 936 C 579 889 572 854 559 832 C 545 810 528 799 507 799 C 488 799 471 802 457 809 C 443 816 431 823 423 829 C 413 835 403 841 395 847 C 386 853 377 856 369 856 C 360 856 352 850 346 840 C 339 830 336 817 336 803 L 266 803 C 266 849 275 883 293 906 C 311 928 331 940 352 940 C 367 940 380 936 392 930 C 404 923 416 915 428 907 C 436 900 445 894 454 888 C 462 882 471 879 480 879 C 488 879 495 884 501 895 C 507 905 511 919 511 936 Z" unicode="Õ" />
<glyph horiz-adv-x="842" d="M 47 0 L 47 0 Z M 424 -12 C 367 -12 315 -2 269 16 C 222 35 182 61 150 95 C 117 129 92 169 74 216 C 56 263 47 314 47 370 C 47 422 56 470 76 516 C 95 562 121 601 154 635 C 187 668 226 694 271 713 C 316 732 364 742 416 742 C 471 742 522 733 569 715 C 615 697 655 671 689 639 C 722 606 748 566 767 520 C 785 474 795 423 795 368 C 795 312 785 260 765 214 C 745 167 719 127 685 94 C 651 60 612 34 567 16 C 521 -2 474 -12 424 -12 Z M 423 82 C 461 82 496 88 529 102 C 561 115 590 134 614 159 C 638 184 657 215 671 251 C 685 287 692 327 692 371 C 692 411 685 449 671 483 C 657 517 639 546 615 570 C 591 594 562 612 529 626 C 495 640 459 647 420 647 C 381 647 345 640 312 628 C 279 615 251 597 227 573 C 203 549 184 519 171 485 C 157 450 151 411 151 367 C 151 321 158 281 172 246 C 186 210 206 180 231 156 C 255 132 284 113 317 101 C 350 88 385 82 423 82 Z M 419 793 L 419 793 Z M 550 793 L 472 793 L 472 951 L 550 951 L 550 793 Z M 364 793 L 286 793 L 286 951 L 364 951 L 364 793 Z" unicode="Ö" />
<glyph horiz-adv-x="501" d="M 114 142 L 62 195 L 198 331 L 63 466 L 115 519 L 251 383 L 387 519 L 439 466 L 302 331 L 439 195 L 387 141 L 251 279 L 114 142 Z" unicode="×" />
<glyph horiz-adv-x="842" d="M 795 368 C 795 312 785 260 765 214 C 745 167 719 127 685 94 C 651 60 612 34 567 16 C 521 -2 474 -12 424 -12 C 374 -12 327 -4 285 10 C 243 25 206 46 174 73 L 104 3 L 54 53 L 125 124 C 100 156 81 193 67 235 C 53 277 47 322 47 370 C 47 422 56 470 76 516 C 95 562 121 601 154 635 C 187 668 226 694 271 713 C 316 732 364 742 416 742 C 464 742 509 735 551 721 C 593 707 630 687 662 662 L 747 747 L 797 697 L 713 613 C 739 581 759 544 773 503 C 787 461 795 416 795 368 Z M 151 367 C 151 333 155 301 163 273 C 171 245 183 219 198 197 L 591 591 C 568 609 542 622 513 632 C 483 642 452 647 420 647 C 381 647 345 640 312 628 C 279 615 251 597 227 573 C 203 549 184 519 171 485 C 157 450 151 411 151 367 Z M 692 371 C 692 403 687 434 678 463 C 669 491 656 517 640 540 L 245 144 C 268 123 295 107 326 97 C 356 87 389 82 423 82 C 461 82 496 88 529 102 C 561 115 590 134 614 159 C 638 184 657 215 671 251 C 685 287 692 327 692 371 Z" unicode="Ø" />
<glyph horiz-adv-x="741" d="M 87 0 L 87 0 Z M 654 730 L 654 266 C 654 222 646 183 632 149 C 617 114 597 85 571 61 C 545 37 515 19 481 7 C 446 -5 409 -12 370 -12 C 330 -12 293 -6 259 6 C 225 18 195 35 169 59 C 143 83 123 112 109 147 C 94 181 87 221 87 266 L 87 730 L 185 730 L 185 258 C 185 206 202 163 238 130 C 273 97 316 81 368 81 C 394 81 418 85 441 93 C 464 101 484 113 501 129 C 517 144 531 163 541 185 C 551 207 556 231 556 258 L 556 730 L 654 730 Z M 370 792 L 370 792 Z M 478 792 L 384 792 L 262 955 L 371 955 L 478 792 Z" unicode="Ù" />
<glyph horiz-adv-x="741" d="M 87 0 L 87 0 Z M 654 730 L 654 266 C 654 222 646 183 632 149 C 617 114 597 85 571 61 C 545 37 515 19 481 7 C 446 -5 409 -12 370 -12 C 330 -12 293 -6 259 6 C 225 18 195 35 169 59 C 143 83 123 112 109 147 C 94 181 87 221 87 266 L 87 730 L 185 730 L 185 258 C 185 206 202 163 238 130 C 273 97 316 81 368 81 C 394 81 418 85 441 93 C 464 101 484 113 501 129 C 517 144 531 163 541 185 C 551 207 556 231 556 258 L 556 730 L 654 730 Z M 370 792 L 370 792 Z M 263 792 L 368 955 L 478 955 L 356 792 L 263 792 Z" unicode="Ú" />
<glyph horiz-adv-x="741" d="M 87 0 L 87 0 Z M 654 730 L 654 266 C 654 222 646 183 632 149 C 617 114 597 85 571 61 C 545 37 515 19 481 7 C 446 -5 409 -12 370 -12 C 330 -12 293 -6 259 6 C 225 18 195 35 169 59 C 143 83 123 112 109 147 C 94 181 87 221 87 266 L 87 730 L 185 730 L 185 258 C 185 206 202 163 238 130 C 273 97 316 81 368 81 C 394 81 418 85 441 93 C 464 101 484 113 501 129 C 517 144 531 163 541 185 C 551 207 556 231 556 258 L 556 730 L 654 730 Z M 370 793 L 370 793 Z M 541 793 L 454 793 L 370 899 L 285 793 L 200 793 L 323 964 L 418 964 L 541 793 Z" unicode="Û" />
<glyph horiz-adv-x="741" d="M 87 0 L 87 0 Z M 654 730 L 654 266 C 654 222 646 183 632 149 C 617 114 597 85 571 61 C 545 37 515 19 481 7 C 446 -5 409 -12 370 -12 C 330 -12 293 -6 259 6 C 225 18 195 35 169 59 C 143 83 123 112 109 147 C 94 181 87 221 87 266 L 87 730 L 185 730 L 185 258 C 185 206 202 163 238 130 C 273 97 316 81 368 81 C 394 81 418 85 441 93 C 464 101 484 113 501 129 C 517 144 531 163 541 185 C 551 207 556 231 556 258 L 556 730 L 654 730 Z M 370 793 L 370 793 Z M 501 793 L 423 793 L 423 951 L 501 951 L 501 793 Z M 315 793 L 237 793 L 237 951 L 315 951 L 315 793 Z" unicode="Ü" />
<glyph horiz-adv-x="649" d="M 1 0 L 1 0 Z M 647 730 L 372 326 L 372 0 L 272 0 L 272 330 L 1 730 L 114 730 L 327 418 L 539 730 L 647 730 Z M 324 792 L 324 792 Z M 217 792 L 322 955 L 432 955 L 310 792 L 217 792 Z" unicode="Ý" />
<glyph horiz-adv-x="597" d="M 95 0 L 95 730 L 195 730 L 195 594 L 334 594 C 407 594 464 573 505 533 C 546 492 567 440 567 376 C 567 344 561 314 550 286 C 539 258 523 235 503 215 C 483 195 459 180 431 169 C 403 157 372 152 338 152 L 195 152 L 195 0 L 95 0 Z M 195 243 L 323 243 C 367 243 401 255 427 279 C 453 303 466 336 466 378 C 466 418 451 449 422 470 C 392 491 357 502 315 502 L 195 502 L 195 243 Z" unicode="Þ" />
<glyph horiz-adv-x="629" d="M 443 -12 C 404 -12 370 -7 342 3 C 314 13 290 27 270 46 L 317 109 C 329 96 348 86 372 78 C 396 70 419 66 442 66 C 462 66 480 70 494 79 C 508 87 515 100 515 116 C 515 133 507 146 492 156 C 476 166 450 176 413 187 C 360 202 324 222 306 248 C 287 273 278 302 278 335 C 278 365 287 390 306 410 C 324 430 346 442 371 445 C 377 447 386 454 396 466 C 406 478 411 505 411 549 C 411 587 400 616 378 636 C 356 656 329 667 296 667 C 263 667 236 657 214 639 C 192 621 182 593 182 556 L 182 0 L 88 0 L 88 561 C 88 589 93 614 105 637 C 116 659 131 678 150 694 C 168 710 190 722 215 730 C 240 738 266 743 293 743 C 322 743 349 738 375 730 C 400 721 422 708 441 692 C 459 675 474 654 485 630 C 495 605 501 577 501 546 C 501 498 491 460 473 434 C 454 408 436 392 420 386 C 404 385 390 381 378 373 C 366 365 361 353 361 339 C 361 326 368 314 382 302 C 396 290 422 280 458 270 C 504 257 540 240 564 218 C 588 196 600 164 600 124 C 600 78 584 44 554 22 C 523 0 486 -12 443 -12 Z" unicode="ß" />
<glyph horiz-adv-x="476" d="M 20 0 L 20 0 Z M 420 0 L 333 0 L 333 57 C 320 40 301 24 276 10 C 250 -4 219 -12 183 -12 C 128 -12 87 1 60 28 C 33 55 20 90 20 132 C 20 177 37 213 73 239 C 109 265 160 280 226 284 L 329 289 L 329 299 C 329 323 320 342 304 355 C 287 367 263 374 233 374 C 203 374 176 369 152 359 C 128 349 109 339 97 330 L 58 394 C 73 406 96 418 127 430 C 158 442 196 448 242 448 C 292 448 334 435 368 411 C 402 387 420 348 420 296 L 420 0 Z M 331 118 L 331 219 L 232 215 C 194 213 164 205 143 191 C 121 177 111 159 111 136 C 111 113 119 95 135 83 C 151 71 172 65 198 65 C 228 65 256 71 280 83 C 304 95 321 106 331 118 Z M 231 498 L 231 498 Z M 339 498 L 245 498 L 123 661 L 232 661 L 339 498 Z" unicode="à" />
<glyph horiz-adv-x="476" d="M 20 0 L 20 0 Z M 420 0 L 333 0 L 333 57 C 320 40 301 24 276 10 C 250 -4 219 -12 183 -12 C 128 -12 87 1 60 28 C 33 55 20 90 20 132 C 20 177 37 213 73 239 C 109 265 160 280 226 284 L 329 289 L 329 299 C 329 323 320 342 304 355 C 287 367 263 374 233 374 C 203 374 176 369 152 359 C 128 349 109 339 97 330 L 58 394 C 73 406 96 418 127 430 C 158 442 196 448 242 448 C 292 448 334 435 368 411 C 402 387 420 348 420 296 L 420 0 Z M 331 118 L 331 219 L 232 215 C 194 213 164 205 143 191 C 121 177 111 159 111 136 C 111 113 119 95 135 83 C 151 71 172 65 198 65 C 228 65 256 71 280 83 C 304 95 321 106 331 118 Z M 231 498 L 231 498 Z M 124 498 L 229 661 L 339 661 L 217 498 L 124 498 Z" unicode="á" />
<glyph horiz-adv-x="476" d="M 20 0 L 20 0 Z M 420 0 L 333 0 L 333 57 C 320 40 301 24 276 10 C 250 -4 219 -12 183 -12 C 128 -12 87 1 60 28 C 33 55 20 90 20 132 C 20 177 37 213 73 239 C 109 265 160 280 226 284 L 329 289 L 329 299 C 329 323 320 342 304 355 C 287 367 263 374 233 374 C 203 374 176 369 152 359 C 128 349 109 339 97 330 L 58 394 C 73 406 96 418 127 430 C 158 442 196 448 242 448 C 292 448 334 435 368 411 C 402 387 420 348 420 296 L 420 0 Z M 331 118 L 331 219 L 232 215 C 194 213 164 205 143 191 C 121 177 111 159 111 136 C 111 113 119 95 135 83 C 151 71 172 65 198 65 C 228 65 256 71 280 83 C 304 95 321 106 331 118 Z M 231 499 L 231 499 Z M 402 499 L 315 499 L 231 605 L 146 499 L 61 499 L 184 670 L 279 670 L 402 499 Z" unicode="â" />
<glyph horiz-adv-x="476" d="M 20 0 L 20 0 Z M 420 0 L 333 0 L 333 57 C 320 40 301 24 276 10 C 250 -4 219 -12 183 -12 C 128 -12 87 1 60 28 C 33 55 20 90 20 132 C 20 177 37 213 73 239 C 109 265 160 280 226 284 L 329 289 L 329 299 C 329 323 320 342 304 355 C 287 367 263 374 233 374 C 203 374 176 369 152 359 C 128 349 109 339 97 330 L 58 394 C 73 406 96 418 127 430 C 158 442 196 448 242 448 C 292 448 334 435 368 411 C 402 387 420 348 420 296 L 420 0 Z M 331 118 L 331 219 L 232 215 C 194 213 164 205 143 191 C 121 177 111 159 111 136 C 111 113 119 95 135 83 C 151 71 172 65 198 65 C 228 65 256 71 280 83 C 304 95 321 106 331 118 Z M 231 505 L 231 505 Z M 323 642 L 391 642 C 391 595 384 560 371 538 C 357 516 340 505 319 505 C 300 505 283 508 269 515 C 255 522 243 529 235 535 C 225 541 215 547 207 553 C 198 559 189 562 181 562 C 172 562 164 556 158 546 C 151 536 148 523 148 509 L 78 509 C 78 555 87 589 105 612 C 123 634 143 646 164 646 C 179 646 192 642 204 636 C 216 629 228 621 240 613 C 248 606 257 600 266 594 C 274 588 283 585 292 585 C 300 585 307 590 313 601 C 319 611 323 625 323 642 Z" unicode="ã" />
<glyph horiz-adv-x="476" d="M 20 0 L 20 0 Z M 420 0 L 333 0 L 333 57 C 320 40 301 24 276 10 C 250 -4 219 -12 183 -12 C 128 -12 87 1 60 28 C 33 55 20 90 20 132 C 20 177 37 213 73 239 C 109 265 160 280 226 284 L 329 289 L 329 299 C 329 323 320 342 304 355 C 287 367 263 374 233 374 C 203 374 176 369 152 359 C 128 349 109 339 97 330 L 58 394 C 73 406 96 418 127 430 C 158 442 196 448 242 448 C 292 448 334 435 368 411 C 402 387 420 348 420 296 L 420 0 Z M 331 118 L 331 219 L 232 215 C 194 213 164 205 143 191 C 121 177 111 159 111 136 C 111 113 119 95 135 83 C 151 71 172 65 198 65 C 228 65 256 71 280 83 C 304 95 321 106 331 118 Z M 231 499 L 231 499 Z M 362 499 L 284 499 L 284 657 L 362 657 L 362 499 Z M 176 499 L 98 499 L 98 657 L 176 657 L 176 499 Z" unicode="ä" />
<glyph horiz-adv-x="476" d="M 20 0 L 20 0 Z M 420 0 L 333 0 L 333 57 C 320 40 301 24 276 10 C 250 -4 219 -12 183 -12 C 128 -12 87 1 60 28 C 33 55 20 90 20 132 C 20 177 37 213 73 239 C 109 265 160 280 226 284 L 329 289 L 329 299 C 329 323 320 342 304 355 C 287 367 263 374 233 374 C 203 374 176 369 152 359 C 128 349 109 339 97 330 L 58 394 C 73 406 96 418 127 430 C 158 442 196 448 242 448 C 292 448 334 435 368 411 C 402 387 420 348 420 296 L 420 0 Z M 331 118 L 331 219 L 232 215 C 194 213 164 205 143 191 C 121 177 111 159 111 136 C 111 113 119 95 135 83 C 151 71 172 65 198 65 C 228 65 256 71 280 83 C 304 95 321 106 331 118 Z M 231 495 L 231 495 Z M 231 495 C 199 495 173 506 151 528 C 129 550 118 576 118 608 C 118 640 129 667 151 689 C 173 711 199 722 231 722 C 263 722 290 711 312 689 C 334 667 345 640 345 608 C 345 576 334 550 312 528 C 290 506 263 495 231 495 Z M 231 549 C 247 549 261 554 272 566 C 283 577 289 591 289 608 C 289 624 283 638 272 650 C 261 662 247 668 231 668 C 215 668 201 662 190 650 C 178 638 173 624 173 608 C 173 591 178 577 190 566 C 201 554 215 549 231 549 Z" unicode="å" />
<glyph horiz-adv-x="802" d="M 575 -11 C 521 -11 478 -1 448 16 C 417 34 394 56 380 82 C 367 59 343 38 309 18 C 275 -2 232 -12 182 -12 C 132 -12 92 0 63 26 C 34 52 20 87 20 132 C 20 177 37 213 73 239 C 108 265 159 280 227 284 L 338 289 L 338 299 C 338 323 327 342 305 355 C 283 367 258 374 230 374 C 201 374 174 369 150 359 C 126 349 108 339 97 330 L 58 394 C 75 408 100 421 132 432 C 164 442 199 448 237 448 C 277 448 312 440 341 425 C 370 409 389 392 398 372 C 409 392 429 409 457 425 C 485 441 524 449 572 449 C 605 449 635 442 662 430 C 688 417 711 399 730 377 C 748 355 763 328 773 296 C 783 264 788 229 788 191 L 427 191 C 430 152 443 121 467 99 C 491 77 526 66 572 66 C 611 66 640 71 660 82 C 679 93 695 106 708 121 L 766 67 C 745 42 720 23 691 9 C 661 -4 623 -11 575 -11 Z M 431 263 L 700 263 C 700 291 687 316 661 339 C 635 361 602 373 560 373 C 518 373 487 361 466 339 C 445 317 433 291 431 263 Z M 202 65 C 238 65 269 73 295 91 C 320 108 335 128 341 151 L 341 219 L 232 215 C 196 213 166 205 144 193 C 122 180 111 161 111 137 C 111 111 120 93 138 82 C 156 70 177 65 202 65 Z" unicode="æ" />
<glyph horiz-adv-x="463" d="M 29 0 L 29 0 Z M 379 140 L 456 97 C 440 70 417 45 385 23 C 353 0 310 -11 255 -11 C 221 -11 190 -5 162 6 C 134 18 110 34 90 54 C 70 74 55 99 45 127 C 34 155 29 185 29 218 C 29 250 34 281 46 309 C 58 337 74 362 95 383 C 115 403 140 419 168 431 C 196 443 226 449 259 449 C 311 449 354 437 388 415 C 421 393 445 368 459 342 L 373 299 C 362 319 347 335 329 347 C 310 359 286 366 258 366 C 219 366 187 351 162 323 C 136 294 124 259 124 217 C 124 175 136 140 161 112 C 185 84 218 71 259 71 C 293 71 319 78 338 94 C 356 110 370 125 379 140 Z M 248 -1 L 248 -1 Z M 257 -189 C 232 -189 207 -186 182 -180 C 157 -174 138 -166 124 -157 L 135 -115 C 145 -120 158 -125 174 -131 C 190 -136 208 -139 227 -139 C 241 -139 254 -135 266 -129 C 277 -122 283 -113 283 -103 C 283 -90 278 -81 268 -76 C 258 -71 247 -69 236 -69 C 228 -69 221 -69 215 -70 C 209 -71 202 -73 196 -76 L 181 -60 L 242 11 L 300 11 L 250 -51 C 284 -43 313 -46 337 -59 C 360 -71 372 -90 372 -115 C 372 -139 360 -158 337 -170 C 314 -182 287 -189 257 -189 Z" unicode="ç" />
<glyph horiz-adv-x="499" d="M 29 0 L 29 0 Z M 269 -11 C 235 -11 203 -5 173 4 C 143 14 118 29 97 48 C 75 67 59 91 47 119 C 35 147 29 178 29 214 C 29 246 34 277 46 306 C 57 334 73 359 93 380 C 113 401 138 418 167 430 C 195 442 227 449 262 449 C 328 449 382 426 423 382 C 464 337 485 273 485 191 L 115 191 C 117 153 132 123 159 100 C 185 77 222 66 269 66 C 309 66 339 72 359 84 C 379 96 395 108 406 121 L 463 67 C 444 46 421 28 393 12 C 365 -3 324 -11 269 -11 Z M 119 263 L 397 263 C 395 291 382 317 358 339 C 334 361 301 373 259 373 C 218 373 185 361 160 339 C 135 317 121 291 119 263 Z M 258 498 L 258 498 Z M 366 498 L 272 498 L 150 661 L 259 661 L 366 498 Z" unicode="è" />
<glyph horiz-adv-x="499" d="M 29 0 L 29 0 Z M 269 -11 C 235 -11 203 -5 173 4 C 143 14 118 29 97 48 C 75 67 59 91 47 119 C 35 147 29 178 29 214 C 29 246 34 277 46 306 C 57 334 73 359 93 380 C 113 401 138 418 167 430 C 195 442 227 449 262 449 C 328 449 382 426 423 382 C 464 337 485 273 485 191 L 115 191 C 117 153 132 123 159 100 C 185 77 222 66 269 66 C 309 66 339 72 359 84 C 379 96 395 108 406 121 L 463 67 C 444 46 421 28 393 12 C 365 -3 324 -11 269 -11 Z M 119 263 L 397 263 C 395 291 382 317 358 339 C 334 361 301 373 259 373 C 218 373 185 361 160 339 C 135 317 121 291 119 263 Z M 258 498 L 258 498 Z M 151 498 L 256 661 L 366 661 L 244 498 L 151 498 Z" unicode="é" />
<glyph horiz-adv-x="499" d="M 29 0 L 29 0 Z M 269 -11 C 235 -11 203 -5 173 4 C 143 14 118 29 97 48 C 75 67 59 91 47 119 C 35 147 29 178 29 214 C 29 246 34 277 46 306 C 57 334 73 359 93 380 C 113 401 138 418 167 430 C 195 442 227 449 262 449 C 328 449 382 426 423 382 C 464 337 485 273 485 191 L 115 191 C 117 153 132 123 159 100 C 185 77 222 66 269 66 C 309 66 339 72 359 84 C 379 96 395 108 406 121 L 463 67 C 444 46 421 28 393 12 C 365 -3 324 -11 269 -11 Z M 119 263 L 397 263 C 395 291 382 317 358 339 C 334 361 301 373 259 373 C 218 373 185 361 160 339 C 135 317 121 291 119 263 Z M 258 499 L 258 499 Z M 429 499 L 342 499 L 258 605 L 173 499 L 88 499 L 211 670 L 306 670 L 429 499 Z" unicode="ê" />
<glyph horiz-adv-x="499" d="M 29 0 L 29 0 Z M 269 -11 C 235 -11 203 -5 173 4 C 143 14 118 29 97 48 C 75 67 59 91 47 119 C 35 147 29 178 29 214 C 29 246 34 277 46 306 C 57 334 73 359 93 380 C 113 401 138 418 167 430 C 195 442 227 449 262 449 C 328 449 382 426 423 382 C 464 337 485 273 485 191 L 115 191 C 117 153 132 123 159 100 C 185 77 222 66 269 66 C 309 66 339 72 359 84 C 379 96 395 108 406 121 L 463 67 C 444 46 421 28 393 12 C 365 -3 324 -11 269 -11 Z M 119 263 L 397 263 C 395 291 382 317 358 339 C 334 361 301 373 259 373 C 218 373 185 361 160 339 C 135 317 121 291 119 263 Z M 258 499 L 258 499 Z M 389 499 L 311 499 L 311 657 L 389 657 L 389 499 Z M 203 499 L 125 499 L 125 657 L 203 657 L 203 499 Z" unicode="ë" />
<glyph horiz-adv-x="230" d="M 6 0 L 6 0 Z M 161 0 L 69 0 L 69 436 L 161 436 L 161 0 Z M 114 498 L 114 498 Z M 222 498 L 128 498 L 6 661 L 115 661 L 222 498 Z" unicode="ì" />
<glyph horiz-adv-x="230" d="M 7 0 L 7 0 Z M 161 0 L 69 0 L 69 436 L 161 436 L 161 0 Z M 114 498 L 114 498 Z M 7 498 L 112 661 L 222 661 L 100 498 L 7 498 Z" unicode="í" />
<glyph horiz-adv-x="230" d="M 0 0 L 0 0 Z M 161 0 L 69 0 L 69 436 L 161 436 L 161 0 Z M 114 499 L 114 499 Z M 285 499 L 198 499 L 114 605 L 29 499 L -56 499 L 67 670 L 162 670 L 285 499 Z" unicode="î" />
<glyph horiz-adv-x="230" d="M 0 0 L 0 0 Z M 161 0 L 69 0 L 69 436 L 161 436 L 161 0 Z M 114 499 L 114 499 Z M 245 499 L 167 499 L 167 657 L 245 657 L 245 499 Z M 59 499 L -19 499 L -19 657 L 59 657 L 59 499 Z" unicode="ï" />
<glyph horiz-adv-x="546" d="M 512 240 C 512 206 506 173 495 143 C 484 112 468 85 447 63 C 426 40 400 22 370 9 C 339 -4 304 -11 266 -11 C 232 -11 201 -5 172 5 C 143 16 118 32 97 52 C 76 72 59 97 47 126 C 35 154 29 186 29 221 C 29 252 35 281 48 309 C 61 337 78 361 100 381 C 121 401 146 417 174 429 C 202 441 232 447 263 447 C 299 447 331 439 359 423 C 386 407 405 392 415 379 C 410 418 400 454 385 486 C 369 518 352 546 332 571 L 183 534 L 163 595 L 283 624 C 259 645 237 662 215 676 C 193 689 177 698 165 704 L 243 743 C 259 733 279 720 302 705 C 324 689 347 670 370 646 L 451 666 L 469 605 L 414 591 C 441 553 464 505 483 447 C 502 389 512 320 512 240 Z M 265 68 C 311 68 347 82 375 112 C 403 141 417 177 417 219 C 417 262 404 298 378 326 C 352 354 316 368 272 368 C 230 368 194 353 166 324 C 137 294 123 260 123 220 C 123 176 136 139 164 111 C 192 82 225 68 265 68 Z" unicode="ð" />
<glyph horiz-adv-x="527" d="M 63 0 L 63 0 Z M 470 0 L 378 0 L 378 279 C 378 307 369 330 351 348 C 333 366 307 375 274 375 C 242 375 215 364 191 344 C 167 324 155 293 155 251 L 155 0 L 63 0 L 63 436 L 152 436 L 152 361 C 162 385 182 406 211 423 C 239 440 272 449 308 449 C 357 449 396 435 426 407 C 455 379 470 342 470 296 L 470 0 Z M 262 505 L 262 505 Z M 354 642 L 422 642 C 422 595 415 560 402 538 C 388 516 371 505 350 505 C 331 505 314 508 300 515 C 286 522 274 529 266 535 C 256 541 246 547 238 553 C 229 559 220 562 212 562 C 203 562 195 556 189 546 C 182 536 179 523 179 509 L 109 509 C 109 555 118 589 136 612 C 154 634 174 646 195 646 C 210 646 223 642 235 636 C 247 629 259 621 271 613 C 279 606 288 600 297 594 C 305 588 314 585 323 585 C 331 585 338 590 344 601 C 350 611 354 625 354 642 Z" unicode="ñ" />
<glyph horiz-adv-x="529" d="M 29 0 L 29 0 Z M 261 -11 C 231 -11 203 -5 175 5 C 147 15 122 30 101 50 C 79 70 62 94 49 122 C 35 150 29 181 29 217 C 29 248 35 278 47 306 C 59 334 76 359 97 380 C 118 401 143 418 171 430 C 199 442 228 449 259 449 C 291 449 321 443 350 433 C 379 422 405 407 427 388 C 449 369 467 346 480 319 C 493 291 500 261 500 229 C 500 195 493 163 481 133 C 468 103 451 78 430 57 C 408 35 383 19 354 7 C 324 -5 293 -11 261 -11 Z M 264 69 C 304 69 338 83 365 111 C 391 139 405 177 405 224 C 405 264 391 298 365 326 C 338 354 302 369 256 369 C 219 369 188 355 162 328 C 136 300 124 264 124 219 C 124 171 137 134 164 108 C 191 82 224 69 264 69 Z M 256 498 L 256 498 Z M 364 498 L 270 498 L 148 661 L 257 661 L 364 498 Z" unicode="ò" />
<glyph horiz-adv-x="529" d="M 29 0 L 29 0 Z M 261 -11 C 231 -11 203 -5 175 5 C 147 15 122 30 101 50 C 79 70 62 94 49 122 C 35 150 29 181 29 217 C 29 248 35 278 47 306 C 59 334 76 359 97 380 C 118 401 143 418 171 430 C 199 442 228 449 259 449 C 291 449 321 443 350 433 C 379 422 405 407 427 388 C 449 369 467 346 480 319 C 493 291 500 261 500 229 C 500 195 493 163 481 133 C 468 103 451 78 430 57 C 408 35 383 19 354 7 C 324 -5 293 -11 261 -11 Z M 264 69 C 304 69 338 83 365 111 C 391 139 405 177 405 224 C 405 264 391 298 365 326 C 338 354 302 369 256 369 C 219 369 188 355 162 328 C 136 300 124 264 124 219 C 124 171 137 134 164 108 C 191 82 224 69 264 69 Z M 256 498 L 256 498 Z M 149 498 L 254 661 L 364 661 L 242 498 L 149 498 Z" unicode="ó" />
<glyph horiz-adv-x="529" d="M 29 0 L 29 0 Z M 261 -11 C 231 -11 203 -5 175 5 C 147 15 122 30 101 50 C 79 70 62 94 49 122 C 35 150 29 181 29 217 C 29 248 35 278 47 306 C 59 334 76 359 97 380 C 118 401 143 418 171 430 C 199 442 228 449 259 449 C 291 449 321 443 350 433 C 379 422 405 407 427 388 C 449 369 467 346 480 319 C 493 291 500 261 500 229 C 500 195 493 163 481 133 C 468 103 451 78 430 57 C 408 35 383 19 354 7 C 324 -5 293 -11 261 -11 Z M 264 69 C 304 69 338 83 365 111 C 391 139 405 177 405 224 C 405 264 391 298 365 326 C 338 354 302 369 256 369 C 219 369 188 355 162 328 C 136 300 124 264 124 219 C 124 171 137 134 164 108 C 191 82 224 69 264 69 Z M 256 499 L 256 499 Z M 427 499 L 340 499 L 256 605 L 171 499 L 86 499 L 209 670 L 304 670 L 427 499 Z" unicode="ô" />
<glyph horiz-adv-x="529" d="M 29 0 L 29 0 Z M 261 -11 C 231 -11 203 -5 175 5 C 147 15 122 30 101 50 C 79 70 62 94 49 122 C 35 150 29 181 29 217 C 29 248 35 278 47 306 C 59 334 76 359 97 380 C 118 401 143 418 171 430 C 199 442 228 449 259 449 C 291 449 321 443 350 433 C 379 422 405 407 427 388 C 449 369 467 346 480 319 C 493 291 500 261 500 229 C 500 195 493 163 481 133 C 468 103 451 78 430 57 C 408 35 383 19 354 7 C 324 -5 293 -11 261 -11 Z M 264 69 C 304 69 338 83 365 111 C 391 139 405 177 405 224 C 405 264 391 298 365 326 C 338 354 302 369 256 369 C 219 369 188 355 162 328 C 136 300 124 264 124 219 C 124 171 137 134 164 108 C 191 82 224 69 264 69 Z M 256 505 L 256 505 Z M 348 642 L 416 642 C 416 595 409 560 396 538 C 382 516 365 505 344 505 C 325 505 308 508 294 515 C 280 522 268 529 260 535 C 250 541 240 547 232 553 C 223 559 214 562 206 562 C 197 562 189 556 183 546 C 176 536 173 523 173 509 L 103 509 C 103 555 112 589 130 612 C 148 634 168 646 189 646 C 204 646 217 642 229 636 C 241 629 253 621 265 613 C 273 606 282 600 291 594 C 299 588 308 585 317 585 C 325 585 332 590 338 601 C 344 611 348 625 348 642 Z" unicode="õ" />
<glyph horiz-adv-x="529" d="M 29 0 L 29 0 Z M 261 -11 C 231 -11 203 -5 175 5 C 147 15 122 30 101 50 C 79 70 62 94 49 122 C 35 150 29 181 29 217 C 29 248 35 278 47 306 C 59 334 76 359 97 380 C 118 401 143 418 171 430 C 199 442 228 449 259 449 C 291 449 321 443 350 433 C 379 422 405 407 427 388 C 449 369 467 346 480 319 C 493 291 500 261 500 229 C 500 195 493 163 481 133 C 468 103 451 78 430 57 C 408 35 383 19 354 7 C 324 -5 293 -11 261 -11 Z M 264 69 C 304 69 338 83 365 111 C 391 139 405 177 405 224 C 405 264 391 298 365 326 C 338 354 302 369 256 369 C 219 369 188 355 162 328 C 136 300 124 264 124 219 C 124 171 137 134 164 108 C 191 82 224 69 264 69 Z M 256 499 L 256 499 Z M 387 499 L 309 499 L 309 657 L 387 657 L 387 499 Z M 201 499 L 123 499 L 123 657 L 201 657 L 201 499 Z" unicode="ö" />
<glyph horiz-adv-x="500" d="M 206 448 L 206 564 L 294 564 L 294 448 L 206 448 Z M 25 291 L 25 370 L 475 370 L 475 291 L 25 291 Z M 206 97 L 206 213 L 294 213 L 294 97 L 206 97 Z" unicode="÷" />
<glyph horiz-adv-x="529" d="M 500 229 C 500 195 493 163 481 133 C 468 103 451 78 430 57 C 408 35 383 19 354 7 C 324 -5 293 -11 261 -11 C 235 -11 209 -6 185 1 C 160 9 137 21 117 37 L 72 -7 L 35 32 L 78 75 C 63 93 51 114 42 138 C 33 162 29 188 29 217 C 29 248 35 278 47 306 C 59 334 76 359 97 380 C 118 401 143 418 171 430 C 199 442 228 449 259 449 C 286 449 313 445 339 437 C 365 429 388 417 409 403 L 455 449 L 492 410 L 449 367 C 465 349 477 328 486 305 C 495 281 500 256 500 229 Z M 124 219 C 124 203 125 188 129 174 C 132 160 136 148 142 138 L 347 342 C 335 350 321 357 306 362 C 291 366 274 369 256 369 C 219 369 188 355 162 328 C 136 300 124 264 124 219 Z M 405 224 C 405 238 403 252 399 266 C 395 279 390 291 384 303 L 177 97 C 188 88 201 81 216 76 C 231 71 247 69 264 69 C 304 69 338 83 365 111 C 391 139 405 177 405 224 Z" unicode="ø" />
<glyph horiz-adv-x="528" d="M 58 0 L 58 0 Z M 58 436 L 149 436 L 149 158 C 149 128 158 105 177 89 C 196 72 221 64 252 64 C 284 64 313 73 337 93 C 361 113 373 142 373 182 L 373 436 L 464 436 L 464 0 L 374 0 L 374 81 C 360 54 339 32 311 16 C 283 0 251 -9 215 -9 C 170 -9 133 4 103 31 C 73 58 58 96 58 146 L 58 436 Z M 261 498 L 261 498 Z M 369 498 L 275 498 L 153 661 L 262 661 L 369 498 Z" unicode="ù" />
<glyph horiz-adv-x="528" d="M 58 0 L 58 0 Z M 58 436 L 149 436 L 149 158 C 149 128 158 105 177 89 C 196 72 221 64 252 64 C 284 64 313 73 337 93 C 361 113 373 142 373 182 L 373 436 L 464 436 L 464 0 L 374 0 L 374 81 C 360 54 339 32 311 16 C 283 0 251 -9 215 -9 C 170 -9 133 4 103 31 C 73 58 58 96 58 146 L 58 436 Z M 261 498 L 261 498 Z M 154 498 L 259 661 L 369 661 L 247 498 L 154 498 Z" unicode="ú" />
<glyph horiz-adv-x="528" d="M 58 0 L 58 0 Z M 58 436 L 149 436 L 149 158 C 149 128 158 105 177 89 C 196 72 221 64 252 64 C 284 64 313 73 337 93 C 361 113 373 142 373 182 L 373 436 L 464 436 L 464 0 L 374 0 L 374 81 C 360 54 339 32 311 16 C 283 0 251 -9 215 -9 C 170 -9 133 4 103 31 C 73 58 58 96 58 146 L 58 436 Z M 261 499 L 261 499 Z M 432 499 L 345 499 L 261 605 L 176 499 L 91 499 L 214 670 L 309 670 L 432 499 Z" unicode="û" />
<glyph horiz-adv-x="528" d="M 58 0 L 58 0 Z M 58 436 L 149 436 L 149 158 C 149 128 158 105 177 89 C 196 72 221 64 252 64 C 284 64 313 73 337 93 C 361 113 373 142 373 182 L 373 436 L 464 436 L 464 0 L 374 0 L 374 81 C 360 54 339 32 311 16 C 283 0 251 -9 215 -9 C 170 -9 133 4 103 31 C 73 58 58 96 58 146 L 58 436 Z M 261 499 L 261 499 Z M 392 499 L 314 499 L 314 657 L 392 657 L 392 499 Z M 206 499 L 128 499 L 128 657 L 206 657 L 206 499 Z" unicode="ü" />
<glyph horiz-adv-x="476" d="M 0 0 L 0 0 Z M 475 436 L 218 -90 C 195 -136 170 -165 143 -179 C 116 -193 91 -200 69 -200 C 54 -200 41 -198 31 -195 C 20 -192 12 -190 7 -189 L 32 -103 C 34 -104 39 -106 47 -108 C 55 -110 62 -112 70 -112 C 84 -112 98 -107 111 -98 C 123 -89 136 -71 150 -45 L 191 38 L -3 436 L 98 436 L 238 126 L 380 436 L 475 436 Z M 239 498 L 239 498 Z M 132 498 L 237 661 L 347 661 L 225 498 L 132 498 Z" unicode="ý" />
<glyph horiz-adv-x="542" d="M 63 -200 L 63 730 L 151 730 L 151 352 C 157 374 175 396 205 417 C 234 437 270 448 314 448 C 343 448 370 442 395 431 C 419 419 440 404 458 385 C 476 365 489 342 499 315 C 509 288 514 259 514 229 C 514 192 508 159 497 130 C 485 100 470 75 452 55 C 433 35 412 19 388 9 C 364 -1 340 -7 316 -7 C 274 -7 239 1 210 19 C 180 37 161 56 153 77 L 153 -200 L 63 -200 Z M 291 65 C 327 65 357 78 381 105 C 405 132 418 170 418 218 C 418 262 406 300 383 330 C 360 360 327 375 285 375 C 249 375 218 361 192 333 C 166 305 153 266 153 214 C 153 189 156 167 164 148 C 172 129 182 114 195 102 C 207 90 222 80 239 74 C 256 68 273 65 291 65 Z" unicode="þ" />
<glyph horiz-adv-x="476" d="M 0 0 L 0 0 Z M 475 436 L 218 -90 C 195 -136 170 -165 143 -179 C 116 -193 91 -200 69 -200 C 54 -200 41 -198 31 -195 C 20 -192 12 -190 7 -189 L 32 -103 C 34 -104 39 -106 47 -108 C 55 -110 62 -112 70 -112 C 84 -112 98 -107 111 -98 C 123 -89 136 -71 150 -45 L 191 38 L -3 436 L 98 436 L 238 126 L 380 436 L 475 436 Z M 239 499 L 239 499 Z M 370 499 L 292 499 L 292 657 L 370 657 L 370 499 Z M 184 499 L 106 499 L 106 657 L 184 657 L 184 499 Z" unicode="ÿ" />
<glyph horiz-adv-x="658" d="M 2 0 L 2 0 Z M 655 0 L 551 0 L 474 193 L 179 193 L 103 0 L 2 0 L 303 733 L 360 733 L 655 0 Z M 442 279 L 326 565 L 212 279 L 442 279 Z M 329 817 L 329 817 Z M 460 817 L 198 817 L 198 885 L 460 885 L 460 817 Z" unicode="Ā" />
<glyph horiz-adv-x="476" d="M 20 0 L 20 0 Z M 420 0 L 333 0 L 333 57 C 320 40 301 24 276 10 C 250 -4 219 -12 183 -12 C 128 -12 87 1 60 28 C 33 55 20 90 20 132 C 20 177 37 213 73 239 C 109 265 160 280 226 284 L 329 289 L 329 299 C 329 323 320 342 304 355 C 287 367 263 374 233 374 C 203 374 176 369 152 359 C 128 349 109 339 97 330 L 58 394 C 73 406 96 418 127 430 C 158 442 196 448 242 448 C 292 448 334 435 368 411 C 402 387 420 348 420 296 L 420 0 Z M 331 118 L 331 219 L 232 215 C 194 213 164 205 143 191 C 121 177 111 159 111 136 C 111 113 119 95 135 83 C 151 71 172 65 198 65 C 228 65 256 71 280 83 C 304 95 321 106 331 118 Z M 231 523 L 231 523 Z M 362 523 L 100 523 L 100 591 L 362 591 L 362 523 Z" unicode="ā" />
<glyph horiz-adv-x="658" d="M 2 0 L 2 0 Z M 655 0 L 551 0 L 474 193 L 179 193 L 103 0 L 2 0 L 303 733 L 360 733 L 655 0 Z M 442 279 L 326 565 L 212 279 L 442 279 Z M 329 797 L 329 797 Z M 410 955 L 487 955 C 483 899 466 859 437 834 C 407 809 371 797 329 797 C 286 797 250 809 221 834 C 191 859 175 899 171 955 L 248 955 C 250 923 258 897 270 877 C 282 857 302 848 329 848 C 355 848 375 857 388 876 C 400 895 408 921 410 955 Z" unicode="Ă" />
<glyph horiz-adv-x="476" d="M 20 0 L 20 0 Z M 420 0 L 333 0 L 333 57 C 320 40 301 24 276 10 C 250 -4 219 -12 183 -12 C 128 -12 87 1 60 28 C 33 55 20 90 20 132 C 20 177 37 213 73 239 C 109 265 160 280 226 284 L 329 289 L 329 299 C 329 323 320 342 304 355 C 287 367 263 374 233 374 C 203 374 176 369 152 359 C 128 349 109 339 97 330 L 58 394 C 73 406 96 418 127 430 C 158 442 196 448 242 448 C 292 448 334 435 368 411 C 402 387 420 348 420 296 L 420 0 Z M 331 118 L 331 219 L 232 215 C 194 213 164 205 143 191 C 121 177 111 159 111 136 C 111 113 119 95 135 83 C 151 71 172 65 198 65 C 228 65 256 71 280 83 C 304 95 321 106 331 118 Z M 231 503 L 231 503 Z M 312 661 L 389 661 C 385 605 368 565 339 540 C 309 515 273 503 231 503 C 188 503 152 515 123 540 C 93 565 77 605 73 661 L 150 661 C 152 629 160 603 172 583 C 184 563 204 554 231 554 C 257 554 277 563 290 582 C 302 601 310 627 312 661 Z" unicode="ă" />
<glyph horiz-adv-x="658" d="M 2 0 L 2 0 Z M 655 0 L 551 0 L 474 193 L 179 193 L 103 0 L 2 0 L 303 733 L 360 733 L 655 0 Z M 442 279 L 326 565 L 212 279 L 442 279 Z M 538 -9 L 538 -9 Z M 643 -96 L 669 -135 C 649 -155 626 -171 601 -182 C 575 -193 547 -199 517 -199 C 483 -199 456 -191 436 -177 C 416 -162 406 -143 406 -121 C 406 -96 418 -73 444 -51 C 470 -29 505 -11 549 4 L 583 4 C 553 -10 529 -24 511 -39 C 493 -53 485 -68 485 -84 C 485 -98 490 -110 502 -118 C 514 -126 529 -130 547 -130 C 567 -130 586 -126 602 -120 C 618 -114 632 -106 643 -96 Z" unicode="Ą" />
<glyph horiz-adv-x="476" d="M 20 0 L 20 0 Z M 420 0 L 333 0 L 333 57 C 320 40 301 24 276 10 C 250 -4 219 -12 183 -12 C 128 -12 87 1 60 28 C 33 55 20 90 20 132 C 20 177 37 213 73 239 C 109 265 160 280 226 284 L 329 289 L 329 299 C 329 323 320 342 304 355 C 287 367 263 374 233 374 C 203 374 176 369 152 359 C 128 349 109 339 97 330 L 58 394 C 73 406 96 418 127 430 C 158 442 196 448 242 448 C 292 448 334 435 368 411 C 402 387 420 348 420 296 L 420 0 Z M 331 118 L 331 219 L 232 215 C 194 213 164 205 143 191 C 121 177 111 159 111 136 C 111 113 119 95 135 83 C 151 71 172 65 198 65 C 228 65 256 71 280 83 C 304 95 321 106 331 118 Z M 334 -9 L 334 -9 Z M 439 -96 L 465 -135 C 445 -155 422 -171 397 -182 C 371 -193 343 -199 313 -199 C 279 -199 252 -191 232 -177 C 212 -162 202 -143 202 -121 C 202 -96 214 -73 240 -51 C 266 -29 301 -11 345 4 L 379 4 C 349 -10 325 -24 307 -39 C 289 -53 281 -68 281 -84 C 281 -98 286 -110 298 -118 C 310 -126 325 -130 343 -130 C 363 -130 382 -126 398 -120 C 414 -114 428 -106 439 -96 Z" unicode="ą" />
<glyph horiz-adv-x="708" d="M 47 0 L 47 0 Z M 408 -12 C 358 -12 311 -3 267 13 C 223 30 184 55 152 87 C 120 119 94 158 75 205 C 56 252 47 305 47 365 C 47 419 56 469 74 515 C 92 561 117 600 149 634 C 181 668 219 694 264 713 C 308 732 357 742 410 742 C 476 742 531 732 576 714 C 620 695 658 670 688 639 L 627 556 C 605 581 577 602 542 620 C 506 638 464 647 414 647 C 372 647 334 639 302 625 C 269 611 241 591 219 566 C 197 540 180 510 168 475 C 156 440 151 402 151 361 C 151 313 158 272 173 237 C 187 201 207 172 231 149 C 255 125 282 108 314 96 C 346 84 379 79 413 79 C 466 79 512 89 550 110 C 588 130 620 156 645 186 L 702 121 C 670 82 629 50 579 25 C 529 0 472 -12 408 -12 Z M 411 792 L 411 792 Z M 304 792 L 409 955 L 519 955 L 397 792 L 304 792 Z" unicode="Ć" />
<glyph horiz-adv-x="463" d="M 29 0 L 29 0 Z M 379 140 L 456 97 C 440 70 417 45 385 23 C 353 0 310 -11 255 -11 C 221 -11 190 -5 162 6 C 134 18 110 34 90 54 C 70 74 55 99 45 127 C 34 155 29 185 29 218 C 29 250 34 281 46 309 C 58 337 74 362 95 383 C 115 403 140 419 168 431 C 196 443 226 449 259 449 C 311 449 354 437 388 415 C 421 393 445 368 459 342 L 373 299 C 362 319 347 335 329 347 C 310 359 286 366 258 366 C 219 366 187 351 162 323 C 136 294 124 259 124 217 C 124 175 136 140 161 112 C 185 84 218 71 259 71 C 293 71 319 78 338 94 C 356 110 370 125 379 140 Z M 245 498 L 245 498 Z M 138 498 L 243 661 L 353 661 L 231 498 L 138 498 Z" unicode="ć" />
<glyph horiz-adv-x="708" d="M 47 0 L 47 0 Z M 408 -12 C 358 -12 311 -3 267 13 C 223 30 184 55 152 87 C 120 119 94 158 75 205 C 56 252 47 305 47 365 C 47 419 56 469 74 515 C 92 561 117 600 149 634 C 181 668 219 694 264 713 C 308 732 357 742 410 742 C 476 742 531 732 576 714 C 620 695 658 670 688 639 L 627 556 C 605 581 577 602 542 620 C 506 638 464 647 414 647 C 372 647 334 639 302 625 C 269 611 241 591 219 566 C 197 540 180 510 168 475 C 156 440 151 402 151 361 C 151 313 158 272 173 237 C 187 201 207 172 231 149 C 255 125 282 108 314 96 C 346 84 379 79 413 79 C 466 79 512 89 550 110 C 588 130 620 156 645 186 L 702 121 C 670 82 629 50 579 25 C 529 0 472 -12 408 -12 Z M 411 793 L 411 793 Z M 582 793 L 495 793 L 411 899 L 326 793 L 241 793 L 364 964 L 459 964 L 582 793 Z" unicode="Ĉ" />
<glyph horiz-adv-x="463" d="M 29 0 L 29 0 Z M 379 140 L 456 97 C 440 70 417 45 385 23 C 353 0 310 -11 255 -11 C 221 -11 190 -5 162 6 C 134 18 110 34 90 54 C 70 74 55 99 45 127 C 34 155 29 185 29 218 C 29 250 34 281 46 309 C 58 337 74 362 95 383 C 115 403 140 419 168 431 C 196 443 226 449 259 449 C 311 449 354 437 388 415 C 421 393 445 368 459 342 L 373 299 C 362 319 347 335 329 347 C 310 359 286 366 258 366 C 219 366 187 351 162 323 C 136 294 124 259 124 217 C 124 175 136 140 161 112 C 185 84 218 71 259 71 C 293 71 319 78 338 94 C 356 110 370 125 379 140 Z M 245 499 L 245 499 Z M 416 499 L 329 499 L 245 605 L 160 499 L 75 499 L 198 670 L 293 670 L 416 499 Z" unicode="ĉ" />
<glyph horiz-adv-x="708" d="M 47 0 L 47 0 Z M 408 -12 C 358 -12 311 -3 267 13 C 223 30 184 55 152 87 C 120 119 94 158 75 205 C 56 252 47 305 47 365 C 47 419 56 469 74 515 C 92 561 117 600 149 634 C 181 668 219 694 264 713 C 308 732 357 742 410 742 C 476 742 531 732 576 714 C 620 695 658 670 688 639 L 627 556 C 605 581 577 602 542 620 C 506 638 464 647 414 647 C 372 647 334 639 302 625 C 269 611 241 591 219 566 C 197 540 180 510 168 475 C 156 440 151 402 151 361 C 151 313 158 272 173 237 C 187 201 207 172 231 149 C 255 125 282 108 314 96 C 346 84 379 79 413 79 C 466 79 512 89 550 110 C 588 130 620 156 645 186 L 702 121 C 670 82 629 50 579 25 C 529 0 472 -12 408 -12 Z M 411 793 L 411 793 Z M 454 793 L 369 793 L 369 956 L 454 956 L 454 793 Z" unicode="Ċ" />
<glyph horiz-adv-x="463" d="M 29 0 L 29 0 Z M 379 140 L 456 97 C 440 70 417 45 385 23 C 353 0 310 -11 255 -11 C 221 -11 190 -5 162 6 C 134 18 110 34 90 54 C 70 74 55 99 45 127 C 34 155 29 185 29 218 C 29 250 34 281 46 309 C 58 337 74 362 95 383 C 115 403 140 419 168 431 C 196 443 226 449 259 449 C 311 449 354 437 388 415 C 421 393 445 368 459 342 L 373 299 C 362 319 347 335 329 347 C 310 359 286 366 258 366 C 219 366 187 351 162 323 C 136 294 124 259 124 217 C 124 175 136 140 161 112 C 185 84 218 71 259 71 C 293 71 319 78 338 94 C 356 110 370 125 379 140 Z M 245 499 L 245 499 Z M 288 499 L 203 499 L 203 662 L 288 662 L 288 499 Z" unicode="ċ" />
<glyph horiz-adv-x="708" d="M 47 0 L 47 0 Z M 408 -12 C 358 -12 311 -3 267 13 C 223 30 184 55 152 87 C 120 119 94 158 75 205 C 56 252 47 305 47 365 C 47 419 56 469 74 515 C 92 561 117 600 149 634 C 181 668 219 694 264 713 C 308 732 357 742 410 742 C 476 742 531 732 576 714 C 620 695 658 670 688 639 L 627 556 C 605 581 577 602 542 620 C 506 638 464 647 414 647 C 372 647 334 639 302 625 C 269 611 241 591 219 566 C 197 540 180 510 168 475 C 156 440 151 402 151 361 C 151 313 158 272 173 237 C 187 201 207 172 231 149 C 255 125 282 108 314 96 C 346 84 379 79 413 79 C 466 79 512 89 550 110 C 588 130 620 156 645 186 L 702 121 C 670 82 629 50 579 25 C 529 0 472 -12 408 -12 Z M 411 793 L 411 793 Z M 241 964 L 328 964 L 412 857 L 497 964 L 582 964 L 459 793 L 364 793 L 241 964 Z" unicode="Č" />
<glyph horiz-adv-x="463" d="M 29 0 L 29 0 Z M 379 140 L 456 97 C 440 70 417 45 385 23 C 353 0 310 -11 255 -11 C 221 -11 190 -5 162 6 C 134 18 110 34 90 54 C 70 74 55 99 45 127 C 34 155 29 185 29 218 C 29 250 34 281 46 309 C 58 337 74 362 95 383 C 115 403 140 419 168 431 C 196 443 226 449 259 449 C 311 449 354 437 388 415 C 421 393 445 368 459 342 L 373 299 C 362 319 347 335 329 347 C 310 359 286 366 258 366 C 219 366 187 351 162 323 C 136 294 124 259 124 217 C 124 175 136 140 161 112 C 185 84 218 71 259 71 C 293 71 319 78 338 94 C 356 110 370 125 379 140 Z M 245 499 L 245 499 Z M 75 670 L 162 670 L 246 563 L 331 670 L 416 670 L 293 499 L 198 499 L 75 670 Z" unicode="č" />
<glyph horiz-adv-x="749" d="M 95 0 L 95 0 Z M 95 0 L 95 730 L 316 730 C 376 730 431 721 479 705 C 527 688 567 664 600 634 C 632 603 657 566 675 522 C 693 478 702 430 702 378 C 702 324 693 274 676 228 C 658 182 633 142 599 108 C 565 74 524 48 474 29 C 424 9 366 0 301 0 L 95 0 Z M 195 89 L 298 89 C 348 89 392 96 430 111 C 468 125 499 145 524 171 C 548 197 567 227 579 262 C 591 297 597 335 597 375 C 597 454 571 518 521 566 C 470 614 400 639 312 639 L 195 639 L 195 89 Z M 350 793 L 350 793 Z M 180 964 L 267 964 L 351 857 L 436 964 L 521 964 L 398 793 L 303 793 L 180 964 Z" unicode="Ď" />
<glyph horiz-adv-x="540" d="M 29 0 L 29 0 Z M 236 -7 C 204 -7 176 -1 151 10 C 125 21 104 36 86 56 C 68 76 54 99 44 125 C 34 151 29 179 29 209 C 29 244 34 276 45 306 C 56 336 71 361 90 382 C 108 403 130 419 156 431 C 182 443 209 449 239 449 C 276 449 307 441 333 425 C 358 409 376 391 386 372 L 386 730 L 477 730 L 477 0 L 390 0 L 390 86 C 381 62 363 41 337 22 C 310 2 276 -7 236 -7 Z M 260 66 C 294 66 324 80 350 108 C 376 136 390 175 390 223 C 390 248 386 270 378 290 C 370 309 360 325 348 337 C 336 349 321 359 305 365 C 289 371 272 374 255 374 C 216 374 184 359 160 331 C 136 303 124 266 124 220 C 124 177 135 141 159 111 C 182 81 216 66 260 66 Z M 627 621 L 622 483 L 544 483 L 540 621 L 540 730 L 627 730 L 627 621 Z" unicode="ď" />
<glyph horiz-adv-x="749" d="M 35 0 L 35 0 Z M 702 367 C 702 316 693 268 676 224 C 658 179 633 140 599 107 C 565 74 524 48 474 29 C 424 9 366 0 301 0 L 95 0 L 95 315 L 35 315 L 35 399 L 95 399 L 95 730 L 316 730 C 378 730 433 721 481 704 C 529 687 569 663 602 632 C 634 600 659 562 676 517 C 693 472 702 422 702 367 Z M 195 89 L 295 89 C 348 89 394 96 432 112 C 470 127 502 147 526 173 C 550 199 568 228 580 261 C 591 294 597 328 597 364 C 597 449 572 516 522 565 C 472 614 404 639 316 639 L 195 639 L 195 399 L 374 399 L 374 315 L 195 315 L 195 89 Z" unicode="Đ" />
<glyph horiz-adv-x="540" d="M 390 86 C 381 62 363 41 337 22 C 310 2 276 -7 236 -7 C 204 -7 176 -1 151 10 C 125 21 104 36 86 56 C 68 76 54 99 44 125 C 34 151 29 179 29 209 C 29 244 34 276 45 306 C 56 336 71 361 90 382 C 108 403 130 419 156 431 C 182 443 209 449 239 449 C 276 449 307 441 333 425 C 358 409 376 391 386 372 L 386 549 L 275 549 L 275 629 L 386 629 L 386 730 L 477 730 L 477 629 L 531 629 L 531 549 L 477 549 L 477 0 L 390 0 L 390 86 Z M 260 66 C 294 66 324 80 350 108 C 376 136 390 175 390 223 C 390 248 386 270 378 290 C 370 309 360 325 348 337 C 336 349 321 359 305 365 C 289 371 272 374 255 374 C 216 374 184 359 160 331 C 136 303 124 266 124 220 C 124 177 135 141 159 111 C 182 81 216 66 260 66 Z" unicode="đ" />
<glyph horiz-adv-x="584" d="M 95 0 L 95 0 Z M 532 0 L 95 0 L 95 730 L 513 730 L 513 640 L 195 640 L 195 405 L 497 405 L 497 315 L 195 315 L 195 90 L 532 90 L 532 0 Z M 307 817 L 307 817 Z M 438 817 L 176 817 L 176 885 L 438 885 L 438 817 Z" unicode="Ē" />
<glyph horiz-adv-x="499" d="M 29 0 L 29 0 Z M 269 -11 C 235 -11 203 -5 173 4 C 143 14 118 29 97 48 C 75 67 59 91 47 119 C 35 147 29 178 29 214 C 29 246 34 277 46 306 C 57 334 73 359 93 380 C 113 401 138 418 167 430 C 195 442 227 449 262 449 C 328 449 382 426 423 382 C 464 337 485 273 485 191 L 115 191 C 117 153 132 123 159 100 C 185 77 222 66 269 66 C 309 66 339 72 359 84 C 379 96 395 108 406 121 L 463 67 C 444 46 421 28 393 12 C 365 -3 324 -11 269 -11 Z M 119 263 L 397 263 C 395 291 382 317 358 339 C 334 361 301 373 259 373 C 218 373 185 361 160 339 C 135 317 121 291 119 263 Z M 258 523 L 258 523 Z M 389 523 L 127 523 L 127 591 L 389 591 L 389 523 Z" unicode="ē" />
<glyph horiz-adv-x="584" d="M 95 0 L 95 0 Z M 532 0 L 95 0 L 95 730 L 513 730 L 513 640 L 195 640 L 195 405 L 497 405 L 497 315 L 195 315 L 195 90 L 532 90 L 532 0 Z M 307 797 L 307 797 Z M 388 955 L 465 955 C 461 899 444 859 415 834 C 385 809 349 797 307 797 C 264 797 228 809 199 834 C 169 859 153 899 149 955 L 226 955 C 228 923 236 897 248 877 C 260 857 280 848 307 848 C 333 848 353 857 366 876 C 378 895 386 921 388 955 Z" unicode="Ĕ" />
<glyph horiz-adv-x="499" d="M 29 0 L 29 0 Z M 269 -11 C 235 -11 203 -5 173 4 C 143 14 118 29 97 48 C 75 67 59 91 47 119 C 35 147 29 178 29 214 C 29 246 34 277 46 306 C 57 334 73 359 93 380 C 113 401 138 418 167 430 C 195 442 227 449 262 449 C 328 449 382 426 423 382 C 464 337 485 273 485 191 L 115 191 C 117 153 132 123 159 100 C 185 77 222 66 269 66 C 309 66 339 72 359 84 C 379 96 395 108 406 121 L 463 67 C 444 46 421 28 393 12 C 365 -3 324 -11 269 -11 Z M 119 263 L 397 263 C 395 291 382 317 358 339 C 334 361 301 373 259 373 C 218 373 185 361 160 339 C 135 317 121 291 119 263 Z M 258 503 L 258 503 Z M 339 661 L 416 661 C 412 605 395 565 366 540 C 336 515 300 503 258 503 C 215 503 179 515 150 540 C 120 565 104 605 100 661 L 177 661 C 179 629 187 603 199 583 C 211 563 231 554 258 554 C 284 554 304 563 317 582 C 329 601 337 627 339 661 Z" unicode="ĕ" />
<glyph horiz-adv-x="584" d="M 95 0 L 95 0 Z M 532 0 L 95 0 L 95 730 L 513 730 L 513 640 L 195 640 L 195 405 L 497 405 L 497 315 L 195 315 L 195 90 L 532 90 L 532 0 Z M 307 793 L 307 793 Z M 350 793 L 265 793 L 265 956 L 350 956 L 350 793 Z" unicode="Ė" />
<glyph horiz-adv-x="499" d="M 29 0 L 29 0 Z M 269 -11 C 235 -11 203 -5 173 4 C 143 14 118 29 97 48 C 75 67 59 91 47 119 C 35 147 29 178 29 214 C 29 246 34 277 46 306 C 57 334 73 359 93 380 C 113 401 138 418 167 430 C 195 442 227 449 262 449 C 328 449 382 426 423 382 C 464 337 485 273 485 191 L 115 191 C 117 153 132 123 159 100 C 185 77 222 66 269 66 C 309 66 339 72 359 84 C 379 96 395 108 406 121 L 463 67 C 444 46 421 28 393 12 C 365 -3 324 -11 269 -11 Z M 119 263 L 397 263 C 395 291 382 317 358 339 C 334 361 301 373 259 373 C 218 373 185 361 160 339 C 135 317 121 291 119 263 Z M 258 499 L 258 499 Z M 301 499 L 216 499 L 216 662 L 301 662 L 301 499 Z" unicode="ė" />
<glyph horiz-adv-x="584" d="M 95 0 L 95 0 Z M 532 0 L 95 0 L 95 730 L 513 730 L 513 640 L 195 640 L 195 405 L 497 405 L 497 315 L 195 315 L 195 90 L 532 90 L 532 0 Z M 486 -9 L 486 -9 Z M 591 -96 L 617 -135 C 597 -155 574 -171 549 -182 C 523 -193 495 -199 465 -199 C 431 -199 404 -191 384 -177 C 364 -162 354 -143 354 -121 C 354 -96 366 -73 392 -51 C 418 -29 453 -11 497 4 L 531 4 C 501 -10 477 -24 459 -39 C 441 -53 433 -68 433 -84 C 433 -98 438 -110 450 -118 C 462 -126 477 -130 495 -130 C 515 -130 534 -126 550 -120 C 566 -114 580 -106 591 -96 Z" unicode="Ę" />
<glyph horiz-adv-x="499" d="M 29 0 L 29 0 Z M 269 -11 C 235 -11 203 -5 173 4 C 143 14 118 29 97 48 C 75 67 59 91 47 119 C 35 147 29 178 29 214 C 29 246 34 277 46 306 C 57 334 73 359 93 380 C 113 401 138 418 167 430 C 195 442 227 449 262 449 C 328 449 382 426 423 382 C 464 337 485 273 485 191 L 115 191 C 117 153 132 123 159 100 C 185 77 222 66 269 66 C 309 66 339 72 359 84 C 379 96 395 108 406 121 L 463 67 C 444 46 421 28 393 12 C 365 -3 324 -11 269 -11 Z M 119 263 L 397 263 C 395 291 382 317 358 339 C 334 361 301 373 259 373 C 218 373 185 361 160 339 C 135 317 121 291 119 263 Z M 327 -9 L 327 -9 Z M 432 -96 L 458 -135 C 438 -155 415 -171 390 -182 C 364 -193 336 -199 306 -199 C 272 -199 245 -191 225 -177 C 205 -162 195 -143 195 -121 C 195 -96 207 -73 233 -51 C 259 -29 294 -11 338 4 L 372 4 C 342 -10 318 -24 300 -39 C 282 -53 274 -68 274 -84 C 274 -98 279 -110 291 -118 C 303 -126 318 -130 336 -130 C 356 -130 375 -126 391 -120 C 407 -114 421 -106 432 -96 Z" unicode="ę" />
<glyph horiz-adv-x="584" d="M 95 0 L 95 0 Z M 532 0 L 95 0 L 95 730 L 513 730 L 513 640 L 195 640 L 195 405 L 497 405 L 497 315 L 195 315 L 195 90 L 532 90 L 532 0 Z M 307 793 L 307 793 Z M 137 964 L 224 964 L 308 857 L 393 964 L 478 964 L 355 793 L 260 793 L 137 964 Z" unicode="Ě" />
<glyph horiz-adv-x="499" d="M 29 0 L 29 0 Z M 269 -11 C 235 -11 203 -5 173 4 C 143 14 118 29 97 48 C 75 67 59 91 47 119 C 35 147 29 178 29 214 C 29 246 34 277 46 306 C 57 334 73 359 93 380 C 113 401 138 418 167 430 C 195 442 227 449 262 449 C 328 449 382 426 423 382 C 464 337 485 273 485 191 L 115 191 C 117 153 132 123 159 100 C 185 77 222 66 269 66 C 309 66 339 72 359 84 C 379 96 395 108 406 121 L 463 67 C 444 46 421 28 393 12 C 365 -3 324 -11 269 -11 Z M 119 263 L 397 263 C 395 291 382 317 358 339 C 334 361 301 373 259 373 C 218 373 185 361 160 339 C 135 317 121 291 119 263 Z M 258 499 L 258 499 Z M 88 670 L 175 670 L 259 563 L 344 670 L 429 670 L 306 499 L 211 499 L 88 670 Z" unicode="ě" />
<glyph horiz-adv-x="771" d="M 47 0 L 47 0 Z M 425 370 L 725 370 L 725 150 C 698 102 658 63 605 33 C 552 3 489 -12 415 -12 C 363 -12 314 -2 269 16 C 223 34 184 60 152 94 C 119 127 93 167 75 213 C 56 259 47 310 47 365 C 47 422 57 474 77 521 C 97 567 123 607 157 640 C 191 672 230 697 275 715 C 320 733 368 742 418 742 C 454 742 487 738 515 732 C 543 726 568 718 589 708 C 609 698 627 687 642 675 C 656 663 669 651 680 640 L 614 572 C 595 590 570 607 538 623 C 506 639 464 647 414 647 C 376 647 340 640 308 626 C 275 612 247 592 224 567 C 200 542 182 512 169 478 C 155 443 149 405 149 364 C 149 325 155 288 169 253 C 182 218 201 188 225 162 C 249 136 277 115 311 99 C 344 83 380 76 420 76 C 470 76 514 85 553 105 C 591 125 619 150 637 181 L 637 277 L 425 277 L 425 370 Z M 417 793 L 417 793 Z M 588 793 L 501 793 L 417 899 L 332 793 L 247 793 L 370 964 L 465 964 L 588 793 Z" unicode="Ĝ" />
<glyph horiz-adv-x="540" d="M 29 0 L 29 0 Z M 234 -3 C 203 -3 175 2 150 14 C 124 25 103 40 85 60 C 67 79 53 102 43 130 C 33 157 29 187 29 219 C 29 286 48 341 87 384 C 126 427 176 449 237 449 C 273 449 305 440 333 424 C 361 408 380 389 390 369 L 390 436 L 477 436 L 477 33 C 477 -5 471 -39 459 -67 C 447 -95 430 -119 410 -137 C 389 -155 365 -168 337 -177 C 309 -186 279 -191 248 -191 C 200 -191 162 -186 135 -176 C 107 -166 86 -157 72 -148 L 107 -76 C 117 -84 133 -93 155 -103 C 177 -113 205 -118 239 -118 C 258 -118 276 -115 294 -110 C 312 -104 327 -96 341 -86 C 355 -76 366 -62 374 -46 C 382 -30 386 -11 386 11 L 386 83 C 377 60 359 40 331 23 C 303 5 271 -3 234 -3 Z M 259 65 C 295 65 325 79 351 109 C 377 138 390 176 390 222 C 390 268 376 305 350 333 C 323 361 290 375 251 375 C 216 375 186 360 161 332 C 136 304 124 266 124 220 C 124 175 136 138 160 109 C 184 79 217 65 259 65 Z M 243 499 L 243 499 Z M 414 499 L 327 499 L 243 605 L 158 499 L 73 499 L 196 670 L 291 670 L 414 499 Z" unicode="ĝ" />
<glyph horiz-adv-x="771" d="M 47 0 L 47 0 Z M 425 370 L 725 370 L 725 150 C 698 102 658 63 605 33 C 552 3 489 -12 415 -12 C 363 -12 314 -2 269 16 C 223 34 184 60 152 94 C 119 127 93 167 75 213 C 56 259 47 310 47 365 C 47 422 57 474 77 521 C 97 567 123 607 157 640 C 191 672 230 697 275 715 C 320 733 368 742 418 742 C 454 742 487 738 515 732 C 543 726 568 718 589 708 C 609 698 627 687 642 675 C 656 663 669 651 680 640 L 614 572 C 595 590 570 607 538 623 C 506 639 464 647 414 647 C 376 647 340 640 308 626 C 275 612 247 592 224 567 C 200 542 182 512 169 478 C 155 443 149 405 149 364 C 149 325 155 288 169 253 C 182 218 201 188 225 162 C 249 136 277 115 311 99 C 344 83 380 76 420 76 C 470 76 514 85 553 105 C 591 125 619 150 637 181 L 637 277 L 425 277 L 425 370 Z M 417 797 L 417 797 Z M 498 955 L 575 955 C 571 899 554 859 525 834 C 495 809 459 797 417 797 C 374 797 338 809 309 834 C 279 859 263 899 259 955 L 336 955 C 338 923 346 897 358 877 C 370 857 390 848 417 848 C 443 848 463 857 476 876 C 488 895 496 921 498 955 Z" unicode="Ğ" />
<glyph horiz-adv-x="540" d="M 29 0 L 29 0 Z M 234 -3 C 203 -3 175 2 150 14 C 124 25 103 40 85 60 C 67 79 53 102 43 130 C 33 157 29 187 29 219 C 29 286 48 341 87 384 C 126 427 176 449 237 449 C 273 449 305 440 333 424 C 361 408 380 389 390 369 L 390 436 L 477 436 L 477 33 C 477 -5 471 -39 459 -67 C 447 -95 430 -119 410 -137 C 389 -155 365 -168 337 -177 C 309 -186 279 -191 248 -191 C 200 -191 162 -186 135 -176 C 107 -166 86 -157 72 -148 L 107 -76 C 117 -84 133 -93 155 -103 C 177 -113 205 -118 239 -118 C 258 -118 276 -115 294 -110 C 312 -104 327 -96 341 -86 C 355 -76 366 -62 374 -46 C 382 -30 386 -11 386 11 L 386 83 C 377 60 359 40 331 23 C 303 5 271 -3 234 -3 Z M 259 65 C 295 65 325 79 351 109 C 377 138 390 176 390 222 C 390 268 376 305 350 333 C 323 361 290 375 251 375 C 216 375 186 360 161 332 C 136 304 124 266 124 220 C 124 175 136 138 160 109 C 184 79 217 65 259 65 Z M 243 503 L 243 503 Z M 324 661 L 401 661 C 397 605 380 565 351 540 C 321 515 285 503 243 503 C 200 503 164 515 135 540 C 105 565 89 605 85 661 L 162 661 C 164 629 172 603 184 583 C 196 563 216 554 243 554 C 269 554 289 563 302 582 C 314 601 322 627 324 661 Z" unicode="ğ" />
<glyph horiz-adv-x="771" d="M 47 0 L 47 0 Z M 425 370 L 725 370 L 725 150 C 698 102 658 63 605 33 C 552 3 489 -12 415 -12 C 363 -12 314 -2 269 16 C 223 34 184 60 152 94 C 119 127 93 167 75 213 C 56 259 47 310 47 365 C 47 422 57 474 77 521 C 97 567 123 607 157 640 C 191 672 230 697 275 715 C 320 733 368 742 418 742 C 454 742 487 738 515 732 C 543 726 568 718 589 708 C 609 698 627 687 642 675 C 656 663 669 651 680 640 L 614 572 C 595 590 570 607 538 623 C 506 639 464 647 414 647 C 376 647 340 640 308 626 C 275 612 247 592 224 567 C 200 542 182 512 169 478 C 155 443 149 405 149 364 C 149 325 155 288 169 253 C 182 218 201 188 225 162 C 249 136 277 115 311 99 C 344 83 380 76 420 76 C 470 76 514 85 553 105 C 591 125 619 150 637 181 L 637 277 L 425 277 L 425 370 Z M 417 793 L 417 793 Z M 460 793 L 375 793 L 375 956 L 460 956 L 460 793 Z" unicode="Ġ" />
<glyph horiz-adv-x="540" d="M 29 0 L 29 0 Z M 234 -3 C 203 -3 175 2 150 14 C 124 25 103 40 85 60 C 67 79 53 102 43 130 C 33 157 29 187 29 219 C 29 286 48 341 87 384 C 126 427 176 449 237 449 C 273 449 305 440 333 424 C 361 408 380 389 390 369 L 390 436 L 477 436 L 477 33 C 477 -5 471 -39 459 -67 C 447 -95 430 -119 410 -137 C 389 -155 365 -168 337 -177 C 309 -186 279 -191 248 -191 C 200 -191 162 -186 135 -176 C 107 -166 86 -157 72 -148 L 107 -76 C 117 -84 133 -93 155 -103 C 177 -113 205 -118 239 -118 C 258 -118 276 -115 294 -110 C 312 -104 327 -96 341 -86 C 355 -76 366 -62 374 -46 C 382 -30 386 -11 386 11 L 386 83 C 377 60 359 40 331 23 C 303 5 271 -3 234 -3 Z M 259 65 C 295 65 325 79 351 109 C 377 138 390 176 390 222 C 390 268 376 305 350 333 C 323 361 290 375 251 375 C 216 375 186 360 161 332 C 136 304 124 266 124 220 C 124 175 136 138 160 109 C 184 79 217 65 259 65 Z M 243 499 L 243 499 Z M 286 499 L 201 499 L 201 662 L 286 662 L 286 499 Z" unicode="ġ" />
<glyph horiz-adv-x="771" d="M 47 0 L 47 0 Z M 425 370 L 725 370 L 725 150 C 698 102 658 63 605 33 C 552 3 489 -12 415 -12 C 363 -12 314 -2 269 16 C 223 34 184 60 152 94 C 119 127 93 167 75 213 C 56 259 47 310 47 365 C 47 422 57 474 77 521 C 97 567 123 607 157 640 C 191 672 230 697 275 715 C 320 733 368 742 418 742 C 454 742 487 738 515 732 C 543 726 568 718 589 708 C 609 698 627 687 642 675 C 656 663 669 651 680 640 L 614 572 C 595 590 570 607 538 623 C 506 639 464 647 414 647 C 376 647 340 640 308 626 C 275 612 247 592 224 567 C 200 542 182 512 169 478 C 155 443 149 405 149 364 C 149 325 155 288 169 253 C 182 218 201 188 225 162 C 249 136 277 115 311 99 C 344 83 380 76 420 76 C 470 76 514 85 553 105 C 591 125 619 150 637 181 L 637 277 L 425 277 L 425 370 Z" unicode="Ģ" />
<glyph horiz-adv-x="540" d="M 29 0 L 29 0 Z M 234 -3 C 203 -3 175 2 150 14 C 124 25 103 40 85 60 C 67 79 53 102 43 130 C 33 157 29 187 29 219 C 29 286 48 341 87 384 C 126 427 176 449 237 449 C 273 449 305 440 333 424 C 361 408 380 389 390 369 L 390 436 L 477 436 L 477 33 C 477 -5 471 -39 459 -67 C 447 -95 430 -119 410 -137 C 389 -155 365 -168 337 -177 C 309 -186 279 -191 248 -191 C 200 -191 162 -186 135 -176 C 107 -166 86 -157 72 -148 L 107 -76 C 117 -84 133 -93 155 -103 C 177 -113 205 -118 239 -118 C 258 -118 276 -115 294 -110 C 312 -104 327 -96 341 -86 C 355 -76 366 -62 374 -46 C 382 -30 386 -11 386 11 L 386 83 C 377 60 359 40 331 23 C 303 5 271 -3 234 -3 Z M 259 65 C 295 65 325 79 351 109 C 377 138 390 176 390 222 C 390 268 376 305 350 333 C 323 361 290 375 251 375 C 216 375 186 360 161 332 C 136 304 124 266 124 220 C 124 175 136 138 160 109 C 184 79 217 65 259 65 Z" unicode="ģ" />
<glyph horiz-adv-x="765" d="M 95 0 L 95 0 Z M 669 0 L 569 0 L 569 313 L 195 313 L 195 0 L 95 0 L 95 730 L 195 730 L 195 407 L 569 407 L 569 730 L 669 730 L 669 0 Z M 381 793 L 381 793 Z M 552 793 L 465 793 L 381 899 L 296 793 L 211 793 L 334 964 L 429 964 L 552 793 Z" unicode="Ĥ" />
<glyph horiz-adv-x="527" d="M 63 0 L 63 0 Z M 470 0 L 378 0 L 378 279 C 378 309 368 332 350 349 C 331 366 306 375 275 375 C 244 375 216 365 192 345 C 167 325 155 295 155 255 L 155 0 L 63 0 L 63 730 L 150 730 L 150 352 C 158 378 176 401 204 420 C 231 439 266 449 310 449 C 358 449 396 435 426 408 C 455 380 470 343 470 295 L 470 0 Z M 266 793 L 266 793 Z M 437 793 L 350 793 L 266 899 L 181 793 L 96 793 L 219 964 L 314 964 L 437 793 Z" unicode="ĥ" />
<glyph horiz-adv-x="765" d="M 195 313 L 195 0 L 95 0 L 95 551 L 11 551 L 11 629 L 95 629 L 95 730 L 195 730 L 195 629 L 569 629 L 569 730 L 669 730 L 669 629 L 753 629 L 753 551 L 669 551 L 669 0 L 569 0 L 569 313 L 195 313 Z M 195 407 L 569 407 L 569 551 L 195 551 L 195 407 Z" unicode="Ħ" />
<glyph horiz-adv-x="527" d="M 155 255 L 155 0 L 63 0 L 63 551 L 9 551 L 9 629 L 63 629 L 63 730 L 150 730 L 150 629 L 273 629 L 273 551 L 150 551 L 150 352 C 158 378 176 401 204 420 C 231 439 266 449 310 449 C 358 449 396 435 426 408 C 455 380 470 343 470 295 L 470 0 L 378 0 L 378 279 C 378 309 368 332 350 349 C 331 366 306 375 275 375 C 244 375 216 365 192 345 C 167 325 155 295 155 255 Z" unicode="ħ" />
<glyph horiz-adv-x="300" d="M 0 0 L 0 0 Z M 200 0 L 100 0 L 100 730 L 200 730 L 200 0 Z M 150 799 L 150 799 Z M 242 936 L 310 936 C 310 889 303 854 290 832 C 276 810 259 799 238 799 C 219 799 202 802 188 809 C 174 816 162 823 154 829 C 144 835 134 841 126 847 C 117 853 108 856 100 856 C 91 856 83 850 77 840 C 70 830 67 817 67 803 L -3 803 C -3 849 6 883 24 906 C 42 928 62 940 83 940 C 98 940 111 936 123 930 C 135 923 147 915 159 907 C 167 900 176 894 185 888 C 193 882 202 879 211 879 C 219 879 226 884 232 895 C 238 905 242 919 242 936 Z" unicode="Ĩ" />
<glyph horiz-adv-x="230" d="M 0 0 L 0 0 Z M 161 0 L 69 0 L 69 436 L 161 436 L 161 0 Z M 114 505 L 114 505 Z M 206 642 L 274 642 C 274 595 267 560 254 538 C 240 516 223 505 202 505 C 183 505 166 508 152 515 C 138 522 126 529 118 535 C 108 541 98 547 90 553 C 81 559 72 562 64 562 C 55 562 47 556 41 546 C 34 536 31 523 31 509 L -39 509 C -39 555 -29 589 -11 612 C 6 634 26 646 47 646 C 62 646 75 642 87 636 C 99 629 111 621 123 613 C 131 606 140 600 149 594 C 157 588 166 585 175 585 C 183 585 190 590 196 601 C 202 611 206 625 206 642 Z" unicode="ĩ" />
<glyph horiz-adv-x="300" d="M 19 0 L 19 0 Z M 200 0 L 100 0 L 100 730 L 200 730 L 200 0 Z M 150 817 L 150 817 Z M 281 817 L 19 817 L 19 885 L 281 885 L 281 817 Z" unicode="Ī" />
<glyph horiz-adv-x="230" d="M 0 0 L 0 0 Z M 161 0 L 69 0 L 69 436 L 161 436 L 161 0 Z M 114 523 L 114 523 Z M 245 523 L -17 523 L -17 591 L 245 591 L 245 523 Z" unicode="ī" />
<glyph horiz-adv-x="300" d="M 0 0 L 0 0 Z M 200 0 L 100 0 L 100 730 L 200 730 L 200 0 Z M 150 797 L 150 797 Z M 231 955 L 308 955 C 304 899 287 859 258 834 C 228 809 192 797 150 797 C 107 797 71 809 42 834 C 12 859 -4 899 -8 955 L 69 955 C 71 923 79 897 91 877 C 103 857 123 848 150 848 C 176 848 196 857 209 876 C 221 895 229 921 231 955 Z" unicode="Ĭ" />
<glyph horiz-adv-x="230" d="M 0 0 L 0 0 Z M 161 0 L 69 0 L 69 436 L 161 436 L 161 0 Z M 114 503 L 114 503 Z M 195 661 L 272 661 C 268 605 251 565 222 540 C 192 515 156 503 114 503 C 71 503 35 515 6 540 C -23 565 -40 605 -44 661 L 33 661 C 35 629 43 603 55 583 C 67 563 87 554 114 554 C 140 554 160 563 173 582 C 185 601 193 627 195 661 Z" unicode="ĭ" />
<glyph horiz-adv-x="300" d="M 0 0 L 0 0 Z M 200 0 L 100 0 L 100 730 L 200 730 L 200 0 Z M 91 -12 L 91 -12 Z M 196 -99 L 222 -138 C 202 -158 179 -174 154 -185 C 128 -196 100 -202 70 -202 C 36 -202 9 -194 -11 -180 C -31 -165 -41 -146 -41 -124 C -41 -99 -28 -76 -2 -54 C 23 -32 58 -14 102 1 L 136 1 C 106 -13 82 -27 64 -42 C 46 -56 38 -71 38 -87 C 38 -101 43 -113 55 -121 C 67 -129 82 -133 100 -133 C 120 -133 139 -129 155 -123 C 171 -117 185 -109 196 -99 Z" unicode="Į" />
<glyph horiz-adv-x="230" d="M 0 0 L 0 0 Z M 67 534 L 67 630 L 163 630 L 163 534 L 67 534 Z M 69 0 L 69 436 L 161 436 L 161 0 L 69 0 Z M 70 -9 L 70 -9 Z M 175 -96 L 201 -135 C 181 -155 158 -171 133 -182 C 107 -193 79 -199 49 -199 C 15 -199 -12 -191 -32 -177 C -52 -162 -62 -143 -62 -121 C -62 -96 -49 -73 -23 -51 C 2 -29 37 -11 81 4 L 115 4 C 85 -10 61 -24 43 -39 C 25 -53 17 -68 17 -84 C 17 -98 22 -110 34 -118 C 46 -126 61 -130 79 -130 C 99 -130 118 -126 134 -120 C 150 -114 164 -106 175 -96 Z" unicode="į" />
<glyph horiz-adv-x="300" d="M 100 0 L 100 0 Z M 200 0 L 100 0 L 100 730 L 200 730 L 200 0 Z M 150 793 L 150 793 Z M 193 793 L 108 793 L 108 956 L 193 956 L 193 793 Z" unicode="İ" />
<glyph horiz-adv-x="230" d="M 161 0 L 69 0 L 69 436 L 161 436 L 161 0 Z" unicode="ı" />
<glyph horiz-adv-x="612" d="M 100 0 L 100 0 Z M 200 0 L 100 0 L 100 730 L 200 730 L 200 0 Z M 530 730 L 530 194 C 530 166 525 140 517 115 C 509 90 496 68 479 50 C 462 31 441 16 415 5 C 389 -6 359 -12 325 -12 C 307 -12 290 -11 275 -9 C 259 -7 247 -5 238 -3 L 238 86 C 244 83 257 81 275 79 C 293 77 307 77 318 77 C 356 77 385 87 407 108 C 428 129 439 155 439 186 L 439 730 L 530 730 Z" unicode="Ĳ" />
<glyph horiz-adv-x="420" d="M 67 0 L 67 0 Z M 67 534 L 67 630 L 163 630 L 163 534 L 67 534 Z M 69 0 L 69 436 L 161 436 L 161 0 L 69 0 Z M 370 534 L 274 534 L 274 630 L 370 630 L 370 534 Z M 368 436 L 368 -67 C 368 -103 356 -135 333 -162 C 310 -189 278 -202 237 -202 C 228 -202 217 -201 205 -200 C 193 -198 184 -197 178 -195 L 180 -119 C 182 -119 187 -120 195 -121 C 202 -121 209 -122 215 -122 C 231 -122 246 -116 258 -105 C 270 -93 276 -76 276 -54 L 276 436 L 368 436 Z" unicode="ĳ" />
<glyph horiz-adv-x="383" d="M 21 0 L 21 0 Z M 313 730 L 313 194 C 313 166 308 140 300 115 C 292 90 279 68 262 50 C 245 31 224 16 198 5 C 172 -6 142 -12 108 -12 C 90 -12 73 -11 58 -9 C 42 -7 30 -5 21 -3 L 21 86 C 27 83 40 81 58 79 C 76 77 90 77 101 77 C 139 77 168 87 190 108 C 211 129 222 155 222 186 L 222 730 L 313 730 Z M 267 793 L 267 793 Z M 438 793 L 351 793 L 267 899 L 182 793 L 97 793 L 220 964 L 315 964 L 438 793 Z" unicode="Ĵ" />
<glyph horiz-adv-x="218" d="M 0 0 L 0 0 Z M 156 436 L 156 -67 C 156 -103 144 -135 121 -162 C 98 -189 66 -202 25 -202 C 16 -202 5 -201 -6 -200 C -18 -198 -28 -197 -34 -195 L -32 -119 C -29 -119 -24 -120 -17 -121 C -9 -121 -3 -122 3 -122 C 19 -122 34 -116 46 -105 C 58 -93 64 -76 64 -54 L 64 436 L 156 436 Z M 109 499 L 109 499 Z M 280 499 L 193 499 L 109 605 L 24 499 L -61 499 L 62 670 L 157 670 L 280 499 Z" unicode="ĵ" />
<glyph horiz-adv-x="693" d="M 95 0 L 95 0 Z M 688 0 L 558 0 L 283 318 L 195 216 L 195 0 L 95 0 L 95 730 L 195 730 L 195 344 L 522 730 L 644 730 L 348 392 L 688 0 Z M 351 -72 L 351 -72 Z M 446 -72 C 443 -94 438 -118 430 -142 C 422 -166 412 -189 401 -211 C 390 -233 378 -254 365 -273 C 351 -292 338 -308 325 -320 L 256 -288 C 264 -278 272 -266 282 -250 C 291 -234 300 -217 309 -198 C 317 -179 325 -159 333 -137 C 340 -115 345 -93 349 -72 L 446 -72 Z" unicode="Ķ" />
<glyph horiz-adv-x="489" d="M 63 0 L 63 0 Z M 504 0 L 393 0 L 236 194 L 154 108 L 154 0 L 63 0 L 63 730 L 150 730 L 150 207 L 357 436 L 465 436 L 295 256 L 504 0 Z M 244 -72 L 244 -72 Z M 339 -72 C 336 -94 331 -118 323 -142 C 315 -166 305 -189 294 -211 C 283 -233 271 -254 258 -273 C 244 -292 231 -308 218 -320 L 149 -288 C 157 -278 165 -266 175 -250 C 184 -234 193 -217 202 -198 C 210 -179 218 -159 226 -137 C 233 -115 238 -93 242 -72 L 339 -72 Z" unicode="ķ" />
<glyph horiz-adv-x="489" d="M 504 0 L 393 0 L 236 194 L 154 108 L 154 0 L 63 0 L 63 436 L 150 436 L 150 207 L 357 436 L 465 436 L 295 256 L 504 0 Z" unicode="ĸ" />
<glyph horiz-adv-x="500" d="M 95 0 L 95 0 Z M 492 0 L 95 0 L 95 730 L 195 730 L 195 90 L 492 90 L 492 0 Z M 300 792 L 300 792 Z M 193 792 L 298 955 L 408 955 L 286 792 L 193 792 Z" unicode="Ĺ" />
<glyph horiz-adv-x="221" d="M 64 0 L 64 0 Z M 173 792 L 173 792 Z M 66 792 L 171 955 L 281 955 L 159 792 L 66 792 Z M 156 730 L 156 0 L 64 0 L 64 730 L 156 730 Z" unicode="ĺ" />
<glyph horiz-adv-x="500" d="M 95 0 L 95 0 Z M 492 0 L 95 0 L 95 730 L 195 730 L 195 90 L 492 90 L 492 0 Z M 272 -72 L 272 -72 Z M 367 -72 C 364 -94 359 -118 351 -142 C 343 -166 333 -189 322 -211 C 311 -233 299 -254 286 -273 C 272 -292 259 -308 246 -320 L 177 -288 C 185 -278 193 -266 203 -250 C 212 -234 221 -217 230 -198 C 238 -179 246 -159 254 -137 C 261 -115 266 -93 270 -72 L 367 -72 Z" unicode="Ļ" />
<glyph horiz-adv-x="221" d="M 0 0 L 0 0 Z M 156 730 L 156 0 L 64 0 L 64 730 L 156 730 Z M 80 -72 L 80 -72 Z M 175 -72 C 172 -94 167 -118 159 -142 C 151 -166 141 -189 130 -211 C 119 -233 107 -254 94 -273 C 80 -292 67 -308 54 -320 L -15 -288 C -7 -278 1 -266 11 -250 C 20 -234 29 -217 38 -198 C 46 -179 54 -159 62 -137 C 69 -115 74 -93 78 -72 L 175 -72 Z" unicode="ļ" />
<glyph horiz-adv-x="500" d="M 95 0 L 95 0 Z M 492 0 L 95 0 L 95 730 L 195 730 L 195 90 L 492 90 L 492 0 Z M 469 621 L 464 483 L 386 483 L 382 621 L 382 730 L 469 730 L 469 621 Z" unicode="Ľ" />
<glyph horiz-adv-x="221" d="M 64 0 L 64 0 Z M 307 621 L 302 483 L 224 483 L 220 621 L 220 730 L 307 730 L 307 621 Z M 156 730 L 156 0 L 64 0 L 64 730 L 156 730 Z" unicode="ľ" />
<glyph horiz-adv-x="500" d="M 95 0 L 95 0 Z M 492 0 L 95 0 L 95 730 L 195 730 L 195 90 L 492 90 L 492 0 Z M 367 281 L 367 281 Z M 410 281 L 325 281 L 325 444 L 410 444 L 410 281 Z" unicode="Ŀ" />
<glyph horiz-adv-x="221" d="M 64 0 L 64 0 Z M 156 730 L 156 0 L 64 0 L 64 730 L 156 730 Z M 275 181 L 275 181 Z M 318 181 L 233 181 L 233 344 L 318 344 L 318 181 Z" unicode="ŀ" />
<glyph horiz-adv-x="500" d="M 492 90 L 492 0 L 95 0 L 95 270 L 36 246 L 2 315 L 95 353 L 95 730 L 195 730 L 195 394 L 358 460 L 390 391 L 195 311 L 195 90 L 492 90 Z" unicode="Ł" />
<glyph horiz-adv-x="221" d="M 232 344 L 156 308 L 156 0 L 64 0 L 64 264 L 18 242 L -11 313 L 64 349 L 64 730 L 156 730 L 156 392 L 202 414 L 232 344 Z" unicode="ł" />
<glyph horiz-adv-x="781" d="M 95 0 L 95 0 Z M 685 0 L 617 0 L 191 547 L 191 0 L 95 0 L 95 730 L 171 730 L 589 186 L 589 730 L 685 730 L 685 0 Z M 392 792 L 392 792 Z M 285 792 L 390 955 L 500 955 L 378 792 L 285 792 Z" unicode="Ń" />
<glyph horiz-adv-x="527" d="M 63 0 L 63 0 Z M 470 0 L 378 0 L 378 279 C 378 307 369 330 351 348 C 333 366 307 375 274 375 C 242 375 215 364 191 344 C 167 324 155 293 155 251 L 155 0 L 63 0 L 63 436 L 152 436 L 152 361 C 162 385 182 406 211 423 C 239 440 272 449 308 449 C 357 449 396 435 426 407 C 455 379 470 342 470 296 L 470 0 Z M 262 498 L 262 498 Z M 155 498 L 260 661 L 370 661 L 248 498 L 155 498 Z" unicode="ń" />
<glyph horiz-adv-x="781" d="M 95 0 L 95 0 Z M 685 0 L 617 0 L 191 547 L 191 0 L 95 0 L 95 730 L 171 730 L 589 186 L 589 730 L 685 730 L 685 0 Z M 366 -72 L 366 -72 Z M 461 -72 C 458 -94 453 -118 445 -142 C 437 -166 427 -189 416 -211 C 405 -233 393 -254 380 -273 C 366 -292 353 -308 340 -320 L 271 -288 C 279 -278 287 -266 297 -250 C 306 -234 315 -217 324 -198 C 332 -179 340 -159 348 -137 C 355 -115 360 -93 364 -72 L 461 -72 Z" unicode="Ņ" />
<glyph horiz-adv-x="527" d="M 63 0 L 63 0 Z M 470 0 L 378 0 L 378 279 C 378 307 369 330 351 348 C 333 366 307 375 274 375 C 242 375 215 364 191 344 C 167 324 155 293 155 251 L 155 0 L 63 0 L 63 436 L 152 436 L 152 361 C 162 385 182 406 211 423 C 239 440 272 449 308 449 C 357 449 396 435 426 407 C 455 379 470 342 470 296 L 470 0 Z M 228 -72 L 228 -72 Z M 323 -72 C 320 -94 315 -118 307 -142 C 299 -166 289 -189 278 -211 C 267 -233 255 -254 242 -273 C 228 -292 215 -308 202 -320 L 133 -288 C 141 -278 149 -266 159 -250 C 168 -234 177 -217 186 -198 C 194 -179 202 -159 210 -137 C 217 -115 222 -93 226 -72 L 323 -72 Z" unicode="ņ" />
<glyph horiz-adv-x="781" d="M 95 0 L 95 0 Z M 685 0 L 617 0 L 191 547 L 191 0 L 95 0 L 95 730 L 171 730 L 589 186 L 589 730 L 685 730 L 685 0 Z M 392 793 L 392 793 Z M 222 964 L 309 964 L 393 857 L 478 964 L 563 964 L 440 793 L 345 793 L 222 964 Z" unicode="Ň" />
<glyph horiz-adv-x="527" d="M 63 0 L 63 0 Z M 470 0 L 378 0 L 378 279 C 378 307 369 330 351 348 C 333 366 307 375 274 375 C 242 375 215 364 191 344 C 167 324 155 293 155 251 L 155 0 L 63 0 L 63 436 L 152 436 L 152 361 C 162 385 182 406 211 423 C 239 440 272 449 308 449 C 357 449 396 435 426 407 C 455 379 470 342 470 296 L 470 0 Z M 262 499 L 262 499 Z M 92 670 L 179 670 L 263 563 L 348 670 L 433 670 L 310 499 L 215 499 L 92 670 Z" unicode="ň" />
<glyph horiz-adv-x="790" d="M 589 730 L 685 730 L 685 0 L 685 0 C 684 -26 679 -52 670 -76 C 661 -100 648 -122 632 -140 C 615 -158 594 -173 568 -184 C 542 -194 513 -200 480 -200 C 462 -200 445 -199 430 -197 C 414 -195 402 -193 393 -191 L 393 -102 C 399 -104 412 -106 430 -108 C 448 -110 462 -111 473 -111 C 511 -111 540 -100 562 -79 C 583 -58 594 -32 594 -2 L 594 30 L 191 547 L 191 0 L 95 0 L 95 730 L 171 730 L 589 186 L 589 730 Z" unicode="Ŋ" />
<glyph horiz-adv-x="527" d="M 308 449 C 357 449 396 435 426 407 C 455 379 470 342 470 296 L 470 -67 C 470 -103 458 -135 435 -162 C 411 -189 379 -202 339 -202 C 330 -202 319 -201 307 -200 C 295 -198 286 -197 280 -195 L 282 -119 C 284 -119 289 -120 297 -121 C 304 -121 311 -122 317 -122 C 333 -122 348 -116 360 -105 C 372 -93 378 -76 378 -54 L 378 279 C 378 307 369 330 351 348 C 333 366 307 375 274 375 C 242 375 215 364 191 344 C 167 324 155 293 155 251 L 155 0 L 63 0 L 63 436 L 152 436 L 152 361 C 162 385 182 406 211 423 C 239 440 272 449 308 449 Z" unicode="ŋ" />
<glyph horiz-adv-x="842" d="M 47 0 L 47 0 Z M 424 -12 C 367 -12 315 -2 269 16 C 222 35 182 61 150 95 C 117 129 92 169 74 216 C 56 263 47 314 47 370 C 47 422 56 470 76 516 C 95 562 121 601 154 635 C 187 668 226 694 271 713 C 316 732 364 742 416 742 C 471 742 522 733 569 715 C 615 697 655 671 689 639 C 722 606 748 566 767 520 C 785 474 795 423 795 368 C 795 312 785 260 765 214 C 745 167 719 127 685 94 C 651 60 612 34 567 16 C 521 -2 474 -12 424 -12 Z M 423 82 C 461 82 496 88 529 102 C 561 115 590 134 614 159 C 638 184 657 215 671 251 C 685 287 692 327 692 371 C 692 411 685 449 671 483 C 657 517 639 546 615 570 C 591 594 562 612 529 626 C 495 640 459 647 420 647 C 381 647 345 640 312 628 C 279 615 251 597 227 573 C 203 549 184 519 171 485 C 157 450 151 411 151 367 C 151 321 158 281 172 246 C 186 210 206 180 231 156 C 255 132 284 113 317 101 C 350 88 385 82 423 82 Z M 419 817 L 419 817 Z M 550 817 L 288 817 L 288 885 L 550 885 L 550 817 Z" unicode="Ō" />
<glyph horiz-adv-x="529" d="M 29 0 L 29 0 Z M 261 -11 C 231 -11 203 -5 175 5 C 147 15 122 30 101 50 C 79 70 62 94 49 122 C 35 150 29 181 29 217 C 29 248 35 278 47 306 C 59 334 76 359 97 380 C 118 401 143 418 171 430 C 199 442 228 449 259 449 C 291 449 321 443 350 433 C 379 422 405 407 427 388 C 449 369 467 346 480 319 C 493 291 500 261 500 229 C 500 195 493 163 481 133 C 468 103 451 78 430 57 C 408 35 383 19 354 7 C 324 -5 293 -11 261 -11 Z M 264 69 C 304 69 338 83 365 111 C 391 139 405 177 405 224 C 405 264 391 298 365 326 C 338 354 302 369 256 369 C 219 369 188 355 162 328 C 136 300 124 264 124 219 C 124 171 137 134 164 108 C 191 82 224 69 264 69 Z M 256 523 L 256 523 Z M 387 523 L 125 523 L 125 591 L 387 591 L 387 523 Z" unicode="ō" />
<glyph horiz-adv-x="842" d="M 47 0 L 47 0 Z M 424 -12 C 367 -12 315 -2 269 16 C 222 35 182 61 150 95 C 117 129 92 169 74 216 C 56 263 47 314 47 370 C 47 422 56 470 76 516 C 95 562 121 601 154 635 C 187 668 226 694 271 713 C 316 732 364 742 416 742 C 471 742 522 733 569 715 C 615 697 655 671 689 639 C 722 606 748 566 767 520 C 785 474 795 423 795 368 C 795 312 785 260 765 214 C 745 167 719 127 685 94 C 651 60 612 34 567 16 C 521 -2 474 -12 424 -12 Z M 423 82 C 461 82 496 88 529 102 C 561 115 590 134 614 159 C 638 184 657 215 671 251 C 685 287 692 327 692 371 C 692 411 685 449 671 483 C 657 517 639 546 615 570 C 591 594 562 612 529 626 C 495 640 459 647 420 647 C 381 647 345 640 312 628 C 279 615 251 597 227 573 C 203 549 184 519 171 485 C 157 450 151 411 151 367 C 151 321 158 281 172 246 C 186 210 206 180 231 156 C 255 132 284 113 317 101 C 350 88 385 82 423 82 Z M 419 797 L 419 797 Z M 500 955 L 577 955 C 573 899 556 859 527 834 C 497 809 461 797 419 797 C 376 797 340 809 311 834 C 281 859 265 899 261 955 L 338 955 C 340 923 348 897 360 877 C 372 857 392 848 419 848 C 445 848 465 857 478 876 C 490 895 498 921 500 955 Z" unicode="Ŏ" />
<glyph horiz-adv-x="529" d="M 29 0 L 29 0 Z M 261 -11 C 231 -11 203 -5 175 5 C 147 15 122 30 101 50 C 79 70 62 94 49 122 C 35 150 29 181 29 217 C 29 248 35 278 47 306 C 59 334 76 359 97 380 C 118 401 143 418 171 430 C 199 442 228 449 259 449 C 291 449 321 443 350 433 C 379 422 405 407 427 388 C 449 369 467 346 480 319 C 493 291 500 261 500 229 C 500 195 493 163 481 133 C 468 103 451 78 430 57 C 408 35 383 19 354 7 C 324 -5 293 -11 261 -11 Z M 264 69 C 304 69 338 83 365 111 C 391 139 405 177 405 224 C 405 264 391 298 365 326 C 338 354 302 369 256 369 C 219 369 188 355 162 328 C 136 300 124 264 124 219 C 124 171 137 134 164 108 C 191 82 224 69 264 69 Z M 256 503 L 256 503 Z M 337 661 L 414 661 C 410 605 393 565 364 540 C 334 515 298 503 256 503 C 213 503 177 515 148 540 C 118 565 102 605 98 661 L 175 661 C 177 629 185 603 197 583 C 209 563 229 554 256 554 C 282 554 302 563 315 582 C 327 601 335 627 337 661 Z" unicode="ŏ" />
<glyph horiz-adv-x="842" d="M 47 0 L 47 0 Z M 424 -12 C 367 -12 315 -2 269 16 C 222 35 182 61 150 95 C 117 129 92 169 74 216 C 56 263 47 314 47 370 C 47 422 56 470 76 516 C 95 562 121 601 154 635 C 187 668 226 694 271 713 C 316 732 364 742 416 742 C 471 742 522 733 569 715 C 615 697 655 671 689 639 C 722 606 748 566 767 520 C 785 474 795 423 795 368 C 795 312 785 260 765 214 C 745 167 719 127 685 94 C 651 60 612 34 567 16 C 521 -2 474 -12 424 -12 Z M 423 82 C 461 82 496 88 529 102 C 561 115 590 134 614 159 C 638 184 657 215 671 251 C 685 287 692 327 692 371 C 692 411 685 449 671 483 C 657 517 639 546 615 570 C 591 594 562 612 529 626 C 495 640 459 647 420 647 C 381 647 345 640 312 628 C 279 615 251 597 227 573 C 203 549 184 519 171 485 C 157 450 151 411 151 367 C 151 321 158 281 172 246 C 186 210 206 180 231 156 C 255 132 284 113 317 101 C 350 88 385 82 423 82 Z M 419 792 L 419 792 Z M 229 792 L 324 942 L 423 942 L 312 792 L 229 792 Z M 416 792 L 511 942 L 610 942 L 498 792 L 416 792 Z" unicode="Ő" />
<glyph horiz-adv-x="529" d="M 29 0 L 29 0 Z M 261 -11 C 231 -11 203 -5 175 5 C 147 15 122 30 101 50 C 79 70 62 94 49 122 C 35 150 29 181 29 217 C 29 248 35 278 47 306 C 59 334 76 359 97 380 C 118 401 143 418 171 430 C 199 442 228 449 259 449 C 291 449 321 443 350 433 C 379 422 405 407 427 388 C 449 369 467 346 480 319 C 493 291 500 261 500 229 C 500 195 493 163 481 133 C 468 103 451 78 430 57 C 408 35 383 19 354 7 C 324 -5 293 -11 261 -11 Z M 264 69 C 304 69 338 83 365 111 C 391 139 405 177 405 224 C 405 264 391 298 365 326 C 338 354 302 369 256 369 C 219 369 188 355 162 328 C 136 300 124 264 124 219 C 124 171 137 134 164 108 C 191 82 224 69 264 69 Z M 256 498 L 256 498 Z M 66 498 L 161 648 L 260 648 L 149 498 L 66 498 Z M 253 498 L 348 648 L 447 648 L 335 498 L 253 498 Z" unicode="ő" />
<glyph horiz-adv-x="1177" d="M 411 -12 C 357 -12 307 -2 263 16 C 218 35 180 61 148 95 C 116 129 91 169 73 216 C 55 262 47 313 47 369 C 47 421 56 470 76 516 C 95 562 121 601 154 635 C 187 668 226 694 271 713 C 316 732 364 742 416 742 C 443 742 471 738 500 731 C 528 724 555 714 580 701 C 605 688 627 673 647 655 C 667 637 681 618 691 598 L 691 730 L 1105 730 L 1105 640 L 788 640 L 788 405 L 1091 405 L 1091 315 L 788 315 L 788 90 L 1125 90 L 1125 0 L 691 0 L 691 144 C 672 100 638 63 589 33 C 540 3 481 -12 411 -12 Z M 422 81 C 459 81 494 87 527 100 C 560 112 589 131 613 155 C 637 179 657 209 671 245 C 685 281 692 323 692 370 C 692 416 683 456 666 491 C 649 526 627 555 601 578 C 574 601 545 618 513 630 C 481 642 450 648 420 648 C 382 648 346 641 313 628 C 280 615 252 596 228 572 C 204 548 185 518 171 483 C 157 448 150 409 150 366 C 150 320 157 280 171 245 C 185 209 205 179 230 155 C 254 131 283 112 316 100 C 349 87 384 81 422 81 Z" unicode="Œ" />
<glyph horiz-adv-x="881" d="M 264 -11 C 230 -11 199 -5 171 6 C 142 17 117 33 96 53 C 75 73 59 97 47 125 C 35 153 29 183 29 217 C 29 249 35 280 47 308 C 59 336 75 361 96 382 C 117 402 142 419 171 431 C 199 443 230 449 264 449 C 316 449 358 438 390 418 C 422 398 444 373 456 345 C 462 357 470 369 481 381 C 492 393 505 405 521 415 C 537 425 555 433 576 439 C 596 445 619 449 643 449 C 679 449 712 442 740 430 C 768 417 791 399 810 377 C 829 355 843 328 853 296 C 863 264 868 229 868 191 L 499 191 C 501 155 516 126 544 102 C 572 78 607 66 651 66 C 691 66 720 71 739 83 C 758 95 774 107 788 121 L 845 67 C 826 46 803 28 776 12 C 749 -3 708 -11 652 -11 C 594 -11 549 0 517 22 C 485 44 464 68 456 93 C 451 81 443 69 433 57 C 422 45 408 34 392 24 C 376 14 357 5 335 -1 C 313 -7 290 -11 264 -11 Z M 501 263 L 779 263 C 777 292 764 318 740 340 C 716 362 684 373 642 373 C 601 373 568 362 544 340 C 520 318 505 293 501 263 Z M 264 69 C 306 69 340 82 366 109 C 392 135 405 174 405 224 C 405 267 391 302 364 329 C 337 355 303 369 261 369 C 221 369 188 355 162 327 C 136 299 124 263 124 219 C 124 171 137 134 164 108 C 190 82 224 69 264 69 Z" unicode="œ" />
<glyph horiz-adv-x="621" d="M 95 0 L 95 0 Z M 95 0 L 95 730 L 312 730 C 373 730 424 712 464 676 C 504 640 524 591 524 529 C 524 496 519 467 510 442 C 500 417 488 396 473 379 C 458 362 441 349 422 339 C 402 329 382 324 362 322 L 359 320 L 590 0 L 474 0 L 261 297 L 195 297 L 195 0 L 95 0 Z M 195 384 L 289 384 C 329 384 361 395 386 419 C 411 442 424 475 424 517 C 424 552 412 581 388 604 C 364 627 332 639 293 639 L 195 639 L 195 384 Z M 299 792 L 299 792 Z M 192 792 L 297 955 L 407 955 L 285 792 L 192 792 Z" unicode="Ŕ" />
<glyph horiz-adv-x="387" d="M 63 0 L 63 0 Z M 383 418 L 347 340 C 331 352 316 359 301 363 C 286 367 272 369 260 369 C 234 369 210 358 188 337 C 166 315 155 287 155 251 L 155 0 L 63 0 L 63 436 L 152 436 L 152 359 C 154 367 159 377 167 388 C 174 398 183 408 195 417 C 207 425 220 433 236 439 C 252 445 269 448 289 448 C 308 448 326 445 342 440 C 358 434 372 427 383 418 Z M 222 498 L 222 498 Z M 115 498 L 220 661 L 330 661 L 208 498 L 115 498 Z" unicode="ŕ" />
<glyph horiz-adv-x="621" d="M 95 0 L 95 0 Z M 95 0 L 95 730 L 312 730 C 373 730 424 712 464 676 C 504 640 524 591 524 529 C 524 496 519 467 510 442 C 500 417 488 396 473 379 C 458 362 441 349 422 339 C 402 329 382 324 362 322 L 359 320 L 590 0 L 474 0 L 261 297 L 195 297 L 195 0 L 95 0 Z M 195 384 L 289 384 C 329 384 361 395 386 419 C 411 442 424 475 424 517 C 424 552 412 581 388 604 C 364 627 332 639 293 639 L 195 639 L 195 384 Z M 302 -72 L 302 -72 Z M 397 -72 C 394 -94 389 -118 381 -142 C 373 -166 363 -189 352 -211 C 341 -233 329 -254 316 -273 C 302 -292 289 -308 276 -320 L 207 -288 C 215 -278 223 -266 233 -250 C 242 -234 251 -217 260 -198 C 268 -179 276 -159 284 -137 C 291 -115 296 -93 300 -72 L 397 -72 Z" unicode="Ŗ" />
<glyph horiz-adv-x="387" d="M 63 0 L 63 0 Z M 383 418 L 347 340 C 331 352 316 359 301 363 C 286 367 272 369 260 369 C 234 369 210 358 188 337 C 166 315 155 287 155 251 L 155 0 L 63 0 L 63 436 L 152 436 L 152 359 C 154 367 159 377 167 388 C 174 398 183 408 195 417 C 207 425 220 433 236 439 C 252 445 269 448 289 448 C 308 448 326 445 342 440 C 358 434 372 427 383 418 Z M 188 -72 L 188 -72 Z M 283 -72 C 280 -94 275 -118 267 -142 C 259 -166 249 -189 238 -211 C 227 -233 215 -254 202 -273 C 188 -292 175 -308 162 -320 L 93 -288 C 101 -278 109 -266 119 -250 C 128 -234 137 -217 146 -198 C 154 -179 162 -159 170 -137 C 177 -115 182 -93 186 -72 L 283 -72 Z" unicode="ŗ" />
<glyph horiz-adv-x="621" d="M 95 0 L 95 0 Z M 95 0 L 95 730 L 312 730 C 373 730 424 712 464 676 C 504 640 524 591 524 529 C 524 496 519 467 510 442 C 500 417 488 396 473 379 C 458 362 441 349 422 339 C 402 329 382 324 362 322 L 359 320 L 590 0 L 474 0 L 261 297 L 195 297 L 195 0 L 95 0 Z M 195 384 L 289 384 C 329 384 361 395 386 419 C 411 442 424 475 424 517 C 424 552 412 581 388 604 C 364 627 332 639 293 639 L 195 639 L 195 384 Z M 299 793 L 299 793 Z M 129 964 L 216 964 L 300 857 L 385 964 L 470 964 L 347 793 L 252 793 L 129 964 Z" unicode="Ř" />
<glyph horiz-adv-x="387" d="M 52 0 L 52 0 Z M 383 418 L 347 340 C 331 352 316 359 301 363 C 286 367 272 369 260 369 C 234 369 210 358 188 337 C 166 315 155 287 155 251 L 155 0 L 63 0 L 63 436 L 152 436 L 152 359 C 154 367 159 377 167 388 C 174 398 183 408 195 417 C 207 425 220 433 236 439 C 252 445 269 448 289 448 C 308 448 326 445 342 440 C 358 434 372 427 383 418 Z M 222 499 L 222 499 Z M 52 670 L 139 670 L 223 563 L 308 670 L 393 670 L 270 499 L 175 499 L 52 670 Z" unicode="ř" />
<glyph horiz-adv-x="499" d="M 23 0 L 23 0 Z M 262 -12 C 211 -12 165 -4 124 12 C 83 28 49 50 23 79 L 81 156 C 100 132 126 114 158 100 C 190 86 223 79 257 79 C 293 79 322 89 345 109 C 368 129 380 154 380 186 C 380 214 369 238 348 260 C 326 281 291 302 241 324 C 183 348 137 378 101 413 C 65 447 48 496 48 558 C 48 611 66 655 103 690 C 140 724 189 742 251 742 C 291 742 327 736 360 724 C 392 712 422 695 449 674 L 401 594 C 380 611 358 625 334 635 C 310 645 285 651 259 651 C 223 651 194 641 174 622 C 154 603 144 581 144 555 C 144 525 154 501 174 482 C 194 462 235 440 297 414 C 361 386 406 355 434 320 C 462 285 476 241 476 188 C 476 156 470 128 458 103 C 446 78 431 57 411 40 C 391 23 369 10 343 1 C 317 -7 290 -12 262 -12 Z M 251 792 L 251 792 Z M 144 792 L 249 955 L 359 955 L 237 792 L 144 792 Z" unicode="Ś" />
<glyph horiz-adv-x="385" d="M 26 0 L 26 0 Z M 203 -12 C 163 -12 128 -7 99 3 C 69 13 45 27 26 46 L 73 109 C 87 96 106 86 128 78 C 150 70 175 66 202 66 C 223 66 240 70 252 80 C 264 90 271 103 271 119 C 271 134 263 146 247 156 C 231 166 206 176 172 186 C 128 198 95 215 72 235 C 48 255 37 283 37 319 C 37 357 51 388 81 412 C 110 436 147 448 193 448 C 225 448 255 443 281 433 C 307 423 328 412 343 400 L 298 339 C 286 347 271 354 253 362 C 234 369 214 373 192 373 C 175 373 159 369 144 363 C 129 357 122 346 122 332 C 122 320 126 311 136 303 C 146 295 170 286 208 274 C 255 259 291 241 317 220 C 343 198 356 168 356 128 C 356 84 342 50 314 25 C 286 0 249 -12 203 -12 Z M 196 498 L 196 498 Z M 89 498 L 194 661 L 304 661 L 182 498 L 89 498 Z" unicode="ś" />
<glyph horiz-adv-x="499" d="M 23 0 L 23 0 Z M 262 -12 C 211 -12 165 -4 124 12 C 83 28 49 50 23 79 L 81 156 C 100 132 126 114 158 100 C 190 86 223 79 257 79 C 293 79 322 89 345 109 C 368 129 380 154 380 186 C 380 214 369 238 348 260 C 326 281 291 302 241 324 C 183 348 137 378 101 413 C 65 447 48 496 48 558 C 48 611 66 655 103 690 C 140 724 189 742 251 742 C 291 742 327 736 360 724 C 392 712 422 695 449 674 L 401 594 C 380 611 358 625 334 635 C 310 645 285 651 259 651 C 223 651 194 641 174 622 C 154 603 144 581 144 555 C 144 525 154 501 174 482 C 194 462 235 440 297 414 C 361 386 406 355 434 320 C 462 285 476 241 476 188 C 476 156 470 128 458 103 C 446 78 431 57 411 40 C 391 23 369 10 343 1 C 317 -7 290 -12 262 -12 Z M 251 793 L 251 793 Z M 422 793 L 335 793 L 251 899 L 166 793 L 81 793 L 204 964 L 299 964 L 422 793 Z" unicode="Ŝ" />
<glyph horiz-adv-x="385" d="M 26 0 L 26 0 Z M 203 -12 C 163 -12 128 -7 99 3 C 69 13 45 27 26 46 L 73 109 C 87 96 106 86 128 78 C 150 70 175 66 202 66 C 223 66 240 70 252 80 C 264 90 271 103 271 119 C 271 134 263 146 247 156 C 231 166 206 176 172 186 C 128 198 95 215 72 235 C 48 255 37 283 37 319 C 37 357 51 388 81 412 C 110 436 147 448 193 448 C 225 448 255 443 281 433 C 307 423 328 412 343 400 L 298 339 C 286 347 271 354 253 362 C 234 369 214 373 192 373 C 175 373 159 369 144 363 C 129 357 122 346 122 332 C 122 320 126 311 136 303 C 146 295 170 286 208 274 C 255 259 291 241 317 220 C 343 198 356 168 356 128 C 356 84 342 50 314 25 C 286 0 249 -12 203 -12 Z M 196 499 L 196 499 Z M 367 499 L 280 499 L 196 605 L 111 499 L 26 499 L 149 670 L 244 670 L 367 499 Z" unicode="ŝ" />
<glyph horiz-adv-x="499" d="M 23 0 L 23 0 Z M 262 -12 C 211 -12 165 -4 124 12 C 83 28 49 50 23 79 L 81 156 C 100 132 126 114 158 100 C 190 86 223 79 257 79 C 293 79 322 89 345 109 C 368 129 380 154 380 186 C 380 214 369 238 348 260 C 326 281 291 302 241 324 C 183 348 137 378 101 413 C 65 447 48 496 48 558 C 48 611 66 655 103 690 C 140 724 189 742 251 742 C 291 742 327 736 360 724 C 392 712 422 695 449 674 L 401 594 C 380 611 358 625 334 635 C 310 645 285 651 259 651 C 223 651 194 641 174 622 C 154 603 144 581 144 555 C 144 525 154 501 174 482 C 194 462 235 440 297 414 C 361 386 406 355 434 320 C 462 285 476 241 476 188 C 476 156 470 128 458 103 C 446 78 431 57 411 40 C 391 23 369 10 343 1 C 317 -7 290 -12 262 -12 Z M 235 -1 L 235 -1 Z M 244 -189 C 219 -189 194 -186 169 -180 C 144 -174 125 -166 111 -157 L 122 -115 C 132 -120 145 -125 161 -131 C 177 -136 195 -139 214 -139 C 228 -139 241 -135 253 -129 C 264 -122 270 -113 270 -103 C 270 -90 265 -81 255 -76 C 245 -71 234 -69 223 -69 C 215 -69 208 -69 202 -70 C 196 -71 189 -73 183 -76 L 168 -60 L 229 11 L 287 11 L 237 -51 C 271 -43 300 -46 324 -59 C 347 -71 359 -90 359 -115 C 359 -139 347 -158 324 -170 C 301 -182 274 -189 244 -189 Z" unicode="Ş" />
<glyph horiz-adv-x="385" d="M 26 0 L 26 0 Z M 203 -12 C 163 -12 128 -7 99 3 C 69 13 45 27 26 46 L 73 109 C 87 96 106 86 128 78 C 150 70 175 66 202 66 C 223 66 240 70 252 80 C 264 90 271 103 271 119 C 271 134 263 146 247 156 C 231 166 206 176 172 186 C 128 198 95 215 72 235 C 48 255 37 283 37 319 C 37 357 51 388 81 412 C 110 436 147 448 193 448 C 225 448 255 443 281 433 C 307 423 328 412 343 400 L 298 339 C 286 347 271 354 253 362 C 234 369 214 373 192 373 C 175 373 159 369 144 363 C 129 357 122 346 122 332 C 122 320 126 311 136 303 C 146 295 170 286 208 274 C 255 259 291 241 317 220 C 343 198 356 168 356 128 C 356 84 342 50 314 25 C 286 0 249 -12 203 -12 Z M 183 -1 L 183 -1 Z M 192 -189 C 167 -189 142 -186 117 -180 C 92 -174 73 -166 59 -157 L 70 -115 C 80 -120 93 -125 109 -131 C 125 -136 143 -139 162 -139 C 176 -139 189 -135 201 -129 C 212 -122 218 -113 218 -103 C 218 -90 213 -81 203 -76 C 193 -71 182 -69 171 -69 C 163 -69 156 -69 150 -70 C 144 -71 137 -73 131 -76 L 116 -60 L 177 11 L 235 11 L 185 -51 C 219 -43 248 -46 272 -59 C 295 -71 307 -90 307 -115 C 307 -139 295 -158 272 -170 C 249 -182 222 -189 192 -189 Z" unicode="ş" />
<glyph horiz-adv-x="499" d="M 23 0 L 23 0 Z M 262 -12 C 211 -12 165 -4 124 12 C 83 28 49 50 23 79 L 81 156 C 100 132 126 114 158 100 C 190 86 223 79 257 79 C 293 79 322 89 345 109 C 368 129 380 154 380 186 C 380 214 369 238 348 260 C 326 281 291 302 241 324 C 183 348 137 378 101 413 C 65 447 48 496 48 558 C 48 611 66 655 103 690 C 140 724 189 742 251 742 C 291 742 327 736 360 724 C 392 712 422 695 449 674 L 401 594 C 380 611 358 625 334 635 C 310 645 285 651 259 651 C 223 651 194 641 174 622 C 154 603 144 581 144 555 C 144 525 154 501 174 482 C 194 462 235 440 297 414 C 361 386 406 355 434 320 C 462 285 476 241 476 188 C 476 156 470 128 458 103 C 446 78 431 57 411 40 C 391 23 369 10 343 1 C 317 -7 290 -12 262 -12 Z M 251 793 L 251 793 Z M 81 964 L 168 964 L 252 857 L 337 964 L 422 964 L 299 793 L 204 793 L 81 964 Z" unicode="Š" />
<glyph horiz-adv-x="385" d="M 26 0 L 26 0 Z M 203 -12 C 163 -12 128 -7 99 3 C 69 13 45 27 26 46 L 73 109 C 87 96 106 86 128 78 C 150 70 175 66 202 66 C 223 66 240 70 252 80 C 264 90 271 103 271 119 C 271 134 263 146 247 156 C 231 166 206 176 172 186 C 128 198 95 215 72 235 C 48 255 37 283 37 319 C 37 357 51 388 81 412 C 110 436 147 448 193 448 C 225 448 255 443 281 433 C 307 423 328 412 343 400 L 298 339 C 286 347 271 354 253 362 C 234 369 214 373 192 373 C 175 373 159 369 144 363 C 129 357 122 346 122 332 C 122 320 126 311 136 303 C 146 295 170 286 208 274 C 255 259 291 241 317 220 C 343 198 356 168 356 128 C 356 84 342 50 314 25 C 286 0 249 -12 203 -12 Z M 196 499 L 196 499 Z M 26 670 L 113 670 L 197 563 L 282 670 L 367 670 L 244 499 L 149 499 L 26 670 Z" unicode="š" />
<glyph horiz-adv-x="535" d="M 10 0 L 10 0 Z M 525 640 L 314 640 L 314 0 L 214 0 L 214 640 L 10 640 L 10 730 L 525 730 L 525 640 Z M 265 793 L 265 793 Z M 95 964 L 182 964 L 266 857 L 351 964 L 436 964 L 313 793 L 218 793 L 95 964 Z" unicode="Ť" />
<glyph horiz-adv-x="259" d="M 9 0 L 9 0 Z M 248 75 L 248 -3 C 246 -3 240 -4 231 -5 C 222 -5 212 -6 202 -6 C 186 -6 171 -4 155 0 C 139 3 124 9 112 18 C 99 26 88 38 80 53 C 72 67 68 86 68 109 L 68 353 L 9 353 L 9 436 L 68 436 L 68 536 L 160 547 L 160 436 L 243 436 L 243 353 L 160 353 L 160 128 C 160 106 165 91 177 83 C 188 75 203 72 223 72 C 225 72 230 72 237 73 C 244 73 248 74 248 75 Z M 335 621 L 330 483 L 252 483 L 248 621 L 248 730 L 335 730 L 335 621 Z" unicode="ť" />
<glyph horiz-adv-x="535" d="M 444 455 L 314 455 L 314 0 L 214 0 L 214 455 L 79 455 L 79 533 L 214 533 L 214 640 L 10 640 L 10 730 L 525 730 L 525 640 L 314 640 L 314 533 L 444 533 L 444 455 Z" unicode="Ŧ" />
<glyph horiz-adv-x="259" d="M 248 -3 C 246 -3 240 -4 231 -5 C 222 -5 212 -6 202 -6 C 186 -6 171 -4 155 0 C 139 3 124 9 112 18 C 99 26 88 38 80 53 C 72 67 68 86 68 109 L 68 217 L 18 217 L 18 296 L 68 296 L 68 353 L 9 353 L 9 436 L 68 436 L 68 536 L 160 547 L 160 436 L 243 436 L 243 353 L 160 353 L 160 296 L 233 296 L 233 217 L 160 217 L 160 128 C 160 106 165 91 177 83 C 188 75 203 72 223 72 C 225 72 230 72 237 73 C 244 73 248 74 248 75 L 248 -3 Z" unicode="ŧ" />
<glyph horiz-adv-x="741" d="M 87 0 L 87 0 Z M 654 730 L 654 266 C 654 222 646 183 632 149 C 617 114 597 85 571 61 C 545 37 515 19 481 7 C 446 -5 409 -12 370 -12 C 330 -12 293 -6 259 6 C 225 18 195 35 169 59 C 143 83 123 112 109 147 C 94 181 87 221 87 266 L 87 730 L 185 730 L 185 258 C 185 206 202 163 238 130 C 273 97 316 81 368 81 C 394 81 418 85 441 93 C 464 101 484 113 501 129 C 517 144 531 163 541 185 C 551 207 556 231 556 258 L 556 730 L 654 730 Z M 370 799 L 370 799 Z M 462 936 L 530 936 C 530 889 523 854 510 832 C 496 810 479 799 458 799 C 439 799 422 802 408 809 C 394 816 382 823 374 829 C 364 835 354 841 346 847 C 337 853 328 856 320 856 C 311 856 303 850 297 840 C 290 830 287 817 287 803 L 217 803 C 217 849 226 883 244 906 C 262 928 282 940 303 940 C 318 940 331 936 343 930 C 355 923 367 915 379 907 C 387 900 396 894 405 888 C 413 882 422 879 431 879 C 439 879 446 884 452 895 C 458 905 462 919 462 936 Z" unicode="Ũ" />
<glyph horiz-adv-x="528" d="M 58 0 L 58 0 Z M 58 436 L 149 436 L 149 158 C 149 128 158 105 177 89 C 196 72 221 64 252 64 C 284 64 313 73 337 93 C 361 113 373 142 373 182 L 373 436 L 464 436 L 464 0 L 374 0 L 374 81 C 360 54 339 32 311 16 C 283 0 251 -9 215 -9 C 170 -9 133 4 103 31 C 73 58 58 96 58 146 L 58 436 Z M 261 505 L 261 505 Z M 353 642 L 421 642 C 421 595 414 560 401 538 C 387 516 370 505 349 505 C 330 505 313 508 299 515 C 285 522 273 529 265 535 C 255 541 245 547 237 553 C 228 559 219 562 211 562 C 202 562 194 556 188 546 C 181 536 178 523 178 509 L 108 509 C 108 555 117 589 135 612 C 153 634 173 646 194 646 C 209 646 222 642 234 636 C 246 629 258 621 270 613 C 278 606 287 600 296 594 C 304 588 313 585 322 585 C 330 585 337 590 343 601 C 349 611 353 625 353 642 Z" unicode="ũ" />
<glyph horiz-adv-x="741" d="M 87 0 L 87 0 Z M 654 730 L 654 266 C 654 222 646 183 632 149 C 617 114 597 85 571 61 C 545 37 515 19 481 7 C 446 -5 409 -12 370 -12 C 330 -12 293 -6 259 6 C 225 18 195 35 169 59 C 143 83 123 112 109 147 C 94 181 87 221 87 266 L 87 730 L 185 730 L 185 258 C 185 206 202 163 238 130 C 273 97 316 81 368 81 C 394 81 418 85 441 93 C 464 101 484 113 501 129 C 517 144 531 163 541 185 C 551 207 556 231 556 258 L 556 730 L 654 730 Z M 370 817 L 370 817 Z M 501 817 L 239 817 L 239 885 L 501 885 L 501 817 Z" unicode="Ū" />
<glyph horiz-adv-x="528" d="M 58 0 L 58 0 Z M 58 436 L 149 436 L 149 158 C 149 128 158 105 177 89 C 196 72 221 64 252 64 C 284 64 313 73 337 93 C 361 113 373 142 373 182 L 373 436 L 464 436 L 464 0 L 374 0 L 374 81 C 360 54 339 32 311 16 C 283 0 251 -9 215 -9 C 170 -9 133 4 103 31 C 73 58 58 96 58 146 L 58 436 Z M 261 523 L 261 523 Z M 392 523 L 130 523 L 130 591 L 392 591 L 392 523 Z" unicode="ū" />
<glyph horiz-adv-x="741" d="M 87 0 L 87 0 Z M 654 730 L 654 266 C 654 222 646 183 632 149 C 617 114 597 85 571 61 C 545 37 515 19 481 7 C 446 -5 409 -12 370 -12 C 330 -12 293 -6 259 6 C 225 18 195 35 169 59 C 143 83 123 112 109 147 C 94 181 87 221 87 266 L 87 730 L 185 730 L 185 258 C 185 206 202 163 238 130 C 273 97 316 81 368 81 C 394 81 418 85 441 93 C 464 101 484 113 501 129 C 517 144 531 163 541 185 C 551 207 556 231 556 258 L 556 730 L 654 730 Z M 370 797 L 370 797 Z M 451 955 L 528 955 C 524 899 507 859 478 834 C 448 809 412 797 370 797 C 327 797 291 809 262 834 C 232 859 216 899 212 955 L 289 955 C 291 923 299 897 311 877 C 323 857 343 848 370 848 C 396 848 416 857 429 876 C 441 895 449 921 451 955 Z" unicode="Ŭ" />
<glyph horiz-adv-x="528" d="M 58 0 L 58 0 Z M 58 436 L 149 436 L 149 158 C 149 128 158 105 177 89 C 196 72 221 64 252 64 C 284 64 313 73 337 93 C 361 113 373 142 373 182 L 373 436 L 464 436 L 464 0 L 374 0 L 374 81 C 360 54 339 32 311 16 C 283 0 251 -9 215 -9 C 170 -9 133 4 103 31 C 73 58 58 96 58 146 L 58 436 Z M 261 503 L 261 503 Z M 342 661 L 419 661 C 415 605 398 565 369 540 C 339 515 303 503 261 503 C 218 503 182 515 153 540 C 123 565 107 605 103 661 L 180 661 C 182 629 190 603 202 583 C 214 563 234 554 261 554 C 287 554 307 563 320 582 C 332 601 340 627 342 661 Z" unicode="ŭ" />
<glyph horiz-adv-x="741" d="M 87 0 L 87 0 Z M 654 730 L 654 266 C 654 222 646 183 632 149 C 617 114 597 85 571 61 C 545 37 515 19 481 7 C 446 -5 409 -12 370 -12 C 330 -12 293 -6 259 6 C 225 18 195 35 169 59 C 143 83 123 112 109 147 C 94 181 87 221 87 266 L 87 730 L 185 730 L 185 258 C 185 206 202 163 238 130 C 273 97 316 81 368 81 C 394 81 418 85 441 93 C 464 101 484 113 501 129 C 517 144 531 163 541 185 C 551 207 556 231 556 258 L 556 730 L 654 730 Z M 370 789 L 370 789 Z M 370 789 C 338 789 312 800 290 822 C 268 844 257 870 257 902 C 257 934 268 961 290 983 C 312 1005 338 1016 370 1016 C 402 1016 429 1005 451 983 C 473 961 484 934 484 902 C 484 870 473 844 451 822 C 429 800 402 789 370 789 Z M 370 843 C 386 843 400 848 411 860 C 422 871 428 885 428 902 C 428 918 422 932 411 944 C 400 956 386 962 370 962 C 354 962 340 956 329 944 C 317 932 312 918 312 902 C 312 885 317 871 329 860 C 340 848 354 843 370 843 Z" unicode="Ů" />
<glyph horiz-adv-x="528" d="M 58 0 L 58 0 Z M 58 436 L 149 436 L 149 158 C 149 128 158 105 177 89 C 196 72 221 64 252 64 C 284 64 313 73 337 93 C 361 113 373 142 373 182 L 373 436 L 464 436 L 464 0 L 374 0 L 374 81 C 360 54 339 32 311 16 C 283 0 251 -9 215 -9 C 170 -9 133 4 103 31 C 73 58 58 96 58 146 L 58 436 Z M 261 495 L 261 495 Z M 261 495 C 229 495 203 506 181 528 C 159 550 148 576 148 608 C 148 640 159 667 181 689 C 203 711 229 722 261 722 C 293 722 320 711 342 689 C 364 667 375 640 375 608 C 375 576 364 550 342 528 C 320 506 293 495 261 495 Z M 261 549 C 277 549 291 554 302 566 C 313 577 319 591 319 608 C 319 624 313 638 302 650 C 291 662 277 668 261 668 C 245 668 231 662 220 650 C 208 638 203 624 203 608 C 203 591 208 577 220 566 C 231 554 245 549 261 549 Z" unicode="ů" />
<glyph horiz-adv-x="741" d="M 87 0 L 87 0 Z M 654 730 L 654 266 C 654 222 646 183 632 149 C 617 114 597 85 571 61 C 545 37 515 19 481 7 C 446 -5 409 -12 370 -12 C 330 -12 293 -6 259 6 C 225 18 195 35 169 59 C 143 83 123 112 109 147 C 94 181 87 221 87 266 L 87 730 L 185 730 L 185 258 C 185 206 202 163 238 130 C 273 97 316 81 368 81 C 394 81 418 85 441 93 C 464 101 484 113 501 129 C 517 144 531 163 541 185 C 551 207 556 231 556 258 L 556 730 L 654 730 Z M 370 792 L 370 792 Z M 180 792 L 275 942 L 374 942 L 263 792 L 180 792 Z M 367 792 L 462 942 L 561 942 L 449 792 L 367 792 Z" unicode="Ű" />
<glyph horiz-adv-x="528" d="M 58 0 L 58 0 Z M 58 436 L 149 436 L 149 158 C 149 128 158 105 177 89 C 196 72 221 64 252 64 C 284 64 313 73 337 93 C 361 113 373 142 373 182 L 373 436 L 464 436 L 464 0 L 374 0 L 374 81 C 360 54 339 32 311 16 C 283 0 251 -9 215 -9 C 170 -9 133 4 103 31 C 73 58 58 96 58 146 L 58 436 Z M 261 498 L 261 498 Z M 71 498 L 166 648 L 265 648 L 154 498 L 71 498 Z M 258 498 L 353 648 L 452 648 L 340 498 L 258 498 Z" unicode="ű" />
<glyph horiz-adv-x="741" d="M 87 0 L 87 0 Z M 654 730 L 654 266 C 654 222 646 183 632 149 C 617 114 597 85 571 61 C 545 37 515 19 481 7 C 446 -5 409 -12 370 -12 C 330 -12 293 -6 259 6 C 225 18 195 35 169 59 C 143 83 123 112 109 147 C 94 181 87 221 87 266 L 87 730 L 185 730 L 185 258 C 185 206 202 163 238 130 C 273 97 316 81 368 81 C 394 81 418 85 441 93 C 464 101 484 113 501 129 C 517 144 531 163 541 185 C 551 207 556 231 556 258 L 556 730 L 654 730 Z M 427 -9 L 427 -9 Z M 532 -96 L 558 -135 C 538 -155 515 -171 490 -182 C 464 -193 436 -199 406 -199 C 372 -199 345 -191 325 -177 C 305 -162 295 -143 295 -121 C 295 -96 307 -73 333 -51 C 359 -29 394 -11 438 4 L 472 4 C 442 -10 418 -24 400 -39 C 382 -53 374 -68 374 -84 C 374 -98 379 -110 391 -118 C 403 -126 418 -130 436 -130 C 456 -130 475 -126 491 -120 C 507 -114 521 -106 532 -96 Z" unicode="Ų" />
<glyph horiz-adv-x="528" d="M 58 0 L 58 0 Z M 58 436 L 149 436 L 149 158 C 149 128 158 105 177 89 C 196 72 221 64 252 64 C 284 64 313 73 337 93 C 361 113 373 142 373 182 L 373 436 L 464 436 L 464 0 L 374 0 L 374 81 C 360 54 339 32 311 16 C 283 0 251 -9 215 -9 C 170 -9 133 4 103 31 C 73 58 58 96 58 146 L 58 436 Z M 374 -9 L 374 -9 Z M 479 -96 L 505 -135 C 485 -155 462 -171 437 -182 C 411 -193 383 -199 353 -199 C 319 -199 292 -191 272 -177 C 252 -162 242 -143 242 -121 C 242 -96 254 -73 280 -51 C 306 -29 341 -11 385 4 L 419 4 C 389 -10 365 -24 347 -39 C 329 -53 321 -68 321 -84 C 321 -98 326 -110 338 -118 C 350 -126 365 -130 383 -130 C 403 -130 422 -126 438 -120 C 454 -114 468 -106 479 -96 Z" unicode="ų" />
<glyph horiz-adv-x="924" d="M 6 0 L 6 0 Z M 919 730 L 691 -8 L 638 -8 L 463 546 L 282 -8 L 229 -8 L 6 730 L 105 730 L 261 196 L 440 730 L 494 730 L 667 196 L 826 730 L 919 730 Z M 467 793 L 467 793 Z M 638 793 L 551 793 L 467 899 L 382 793 L 297 793 L 420 964 L 515 964 L 638 793 Z" unicode="Ŵ" />
<glyph horiz-adv-x="669" d="M 7 0 L 7 0 Z M 451 -3 L 336 281 L 217 -3 L 165 -3 L 7 436 L 103 436 L 203 136 L 314 406 L 365 406 L 473 136 L 574 436 L 662 436 L 503 -3 L 451 -3 Z M 335 499 L 335 499 Z M 506 499 L 419 499 L 335 605 L 250 499 L 165 499 L 288 670 L 383 670 L 506 499 Z" unicode="ŵ" />
<glyph horiz-adv-x="605" d="M 1 0 L 1 0 Z M 647 730 L 372 326 L 372 0 L 272 0 L 272 330 L 1 730 L 114 730 L 327 418 L 539 730 L 647 730 Z M 324 793 L 324 793 Z M 495 793 L 408 793 L 324 899 L 239 793 L 154 793 L 277 964 L 372 964 L 495 793 Z" unicode="Ŷ" />
<glyph horiz-adv-x="476" d="M 0 0 L 0 0 Z M 475 436 L 218 -90 C 195 -136 170 -165 143 -179 C 116 -193 91 -200 69 -200 C 54 -200 41 -198 31 -195 C 20 -192 12 -190 7 -189 L 32 -103 C 34 -104 39 -106 47 -108 C 55 -110 62 -112 70 -112 C 84 -112 98 -107 111 -98 C 123 -89 136 -71 150 -45 L 191 38 L -3 436 L 98 436 L 238 126 L 380 436 L 475 436 Z M 239 499 L 239 499 Z M 410 499 L 323 499 L 239 605 L 154 499 L 69 499 L 192 670 L 287 670 L 410 499 Z" unicode="ŷ" />
<glyph horiz-adv-x="649" d="M 1 0 L 1 0 Z M 647 730 L 372 326 L 372 0 L 272 0 L 272 330 L 1 730 L 114 730 L 327 418 L 539 730 L 647 730 Z M 324 793 L 324 793 Z M 455 793 L 377 793 L 377 951 L 455 951 L 455 793 Z M 269 793 L 191 793 L 191 951 L 269 951 L 269 793 Z" unicode="Ÿ" />
<glyph horiz-adv-x="560" d="M 16 0 L 16 0 Z M 553 730 L 553 688 L 156 90 L 566 90 L 566 0 L 16 0 L 16 40 L 410 640 L 47 640 L 47 730 L 553 730 Z M 293 792 L 293 792 Z M 186 792 L 291 955 L 401 955 L 279 792 L 186 792 Z" unicode="Ź" />
<glyph horiz-adv-x="387" d="M 11 0 L 11 0 Z M 370 436 L 370 393 L 151 82 L 375 82 L 375 0 L 11 0 L 11 26 L 239 354 L 24 354 L 24 436 L 370 436 Z M 199 498 L 199 498 Z M 92 498 L 197 661 L 307 661 L 185 498 L 92 498 Z" unicode="ź" />
<glyph horiz-adv-x="560" d="M 16 0 L 16 0 Z M 553 730 L 553 688 L 156 90 L 566 90 L 566 0 L 16 0 L 16 40 L 410 640 L 47 640 L 47 730 L 553 730 Z M 293 793 L 293 793 Z M 336 793 L 251 793 L 251 956 L 336 956 L 336 793 Z" unicode="Ż" />
<glyph horiz-adv-x="387" d="M 11 0 L 11 0 Z M 370 436 L 370 393 L 151 82 L 375 82 L 375 0 L 11 0 L 11 26 L 239 354 L 24 354 L 24 436 L 370 436 Z M 199 499 L 199 499 Z M 242 499 L 157 499 L 157 662 L 242 662 L 242 499 Z" unicode="ż" />
<glyph horiz-adv-x="593" d="M 16 0 L 16 0 Z M 553 730 L 553 688 L 156 90 L 566 90 L 566 0 L 16 0 L 16 40 L 410 640 L 47 640 L 47 730 L 553 730 Z M 293 793 L 293 793 Z M 123 964 L 210 964 L 294 857 L 379 964 L 464 964 L 341 793 L 246 793 L 123 964 Z" unicode="Ž" />
<glyph horiz-adv-x="387" d="M 11 0 L 11 0 Z M 370 436 L 370 393 L 151 82 L 375 82 L 375 0 L 11 0 L 11 26 L 239 354 L 24 354 L 24 436 L 370 436 Z M 199 499 L 199 499 Z M 29 670 L 116 670 L 200 563 L 285 670 L 370 670 L 247 499 L 152 499 L 29 670 Z" unicode="ž" />
<glyph horiz-adv-x="358" d="M 184 -60 C 181 -92 168 -119 145 -143 C 121 -167 92 -179 58 -179 C 40 -179 22 -177 6 -175 C -9 -172 -22 -169 -30 -165 L -21 -98 C -16 -98 -9 -100 0 -102 C 9 -104 18 -105 27 -105 C 47 -105 63 -98 76 -84 C 89 -70 97 -51 100 -27 L 131 328 L 43 328 L 43 407 L 138 407 L 158 628 C 160 646 165 663 173 677 C 181 691 191 702 203 712 C 215 721 228 728 242 733 C 256 738 269 741 282 741 C 295 741 308 740 321 739 C 334 738 342 737 345 737 L 338 656 C 336 656 332 657 326 658 C 320 658 314 659 308 659 C 289 659 273 652 261 640 C 249 627 242 607 240 581 L 225 407 L 329 407 L 329 328 L 218 328 L 184 -60 Z" unicode="ƒ" />
<glyph horiz-adv-x="499" d="M 23 0 L 23 0 Z M 262 -12 C 211 -12 165 -4 124 12 C 83 28 49 50 23 79 L 81 156 C 100 132 126 114 158 100 C 190 86 223 79 257 79 C 293 79 322 89 345 109 C 368 129 380 154 380 186 C 380 214 369 238 348 260 C 326 281 291 302 241 324 C 183 348 137 378 101 413 C 65 447 48 496 48 558 C 48 611 66 655 103 690 C 140 724 189 742 251 742 C 291 742 327 736 360 724 C 392 712 422 695 449 674 L 401 594 C 380 611 358 625 334 635 C 310 645 285 651 259 651 C 223 651 194 641 174 622 C 154 603 144 581 144 555 C 144 525 154 501 174 482 C 194 462 235 440 297 414 C 361 386 406 355 434 320 C 462 285 476 241 476 188 C 476 156 470 128 458 103 C 446 78 431 57 411 40 C 391 23 369 10 343 1 C 317 -7 290 -12 262 -12 Z M 235 -73 L 235 -73 Z M 330 -73 C 327 -95 322 -119 314 -143 C 306 -167 296 -190 285 -212 C 274 -234 262 -255 249 -274 C 235 -293 222 -309 209 -321 L 140 -289 C 148 -279 156 -267 166 -251 C 175 -235 184 -218 193 -199 C 201 -180 209 -160 217 -138 C 224 -116 229 -94 233 -73 L 330 -73 Z" unicode="Ș" />
<glyph horiz-adv-x="385" d="M 26 0 L 26 0 Z M 203 -12 C 163 -12 128 -7 99 3 C 69 13 45 27 26 46 L 73 109 C 87 96 106 86 128 78 C 150 70 175 66 202 66 C 223 66 240 70 252 80 C 264 90 271 103 271 119 C 271 134 263 146 247 156 C 231 166 206 176 172 186 C 128 198 95 215 72 235 C 48 255 37 283 37 319 C 37 357 51 388 81 412 C 110 436 147 448 193 448 C 225 448 255 443 281 433 C 307 423 328 412 343 400 L 298 339 C 286 347 271 354 253 362 C 234 369 214 373 192 373 C 175 373 159 369 144 363 C 129 357 122 346 122 332 C 122 320 126 311 136 303 C 146 295 170 286 208 274 C 255 259 291 241 317 220 C 343 198 356 168 356 128 C 356 84 342 50 314 25 C 286 0 249 -12 203 -12 Z M 183 -73 L 183 -73 Z M 278 -73 C 275 -95 270 -119 262 -143 C 254 -167 244 -190 233 -212 C 222 -234 210 -255 197 -274 C 183 -293 170 -309 157 -321 L 88 -289 C 96 -279 104 -267 114 -251 C 123 -235 132 -218 141 -199 C 149 -180 157 -160 165 -138 C 172 -116 177 -94 181 -73 L 278 -73 Z" unicode="ș" />
<glyph horiz-adv-x="535" d="M 10 0 L 10 0 Z M 525 640 L 314 640 L 314 0 L 214 0 L 214 640 L 10 640 L 10 730 L 525 730 L 525 640 Z M 241 -72 L 241 -72 Z M 336 -72 C 333 -94 328 -118 320 -142 C 312 -166 302 -189 291 -211 C 280 -233 268 -254 255 -273 C 241 -292 228 -308 215 -320 L 146 -288 C 154 -278 162 -266 172 -250 C 181 -234 190 -217 199 -198 C 207 -179 215 -159 223 -137 C 230 -115 235 -93 239 -72 L 336 -72 Z" unicode="Ț" />
<glyph horiz-adv-x="259" d="M 9 0 L 9 0 Z M 248 75 L 248 -3 C 246 -3 240 -4 231 -5 C 222 -5 212 -6 202 -6 C 186 -6 171 -4 155 0 C 139 3 124 9 112 18 C 99 26 88 38 80 53 C 72 67 68 86 68 109 L 68 353 L 9 353 L 9 436 L 68 436 L 68 536 L 160 547 L 160 436 L 243 436 L 243 353 L 160 353 L 160 128 C 160 106 165 91 177 83 C 188 75 203 72 223 72 C 225 72 230 72 237 73 C 244 73 248 74 248 75 Z M 128 -72 L 128 -72 Z M 223 -72 C 220 -94 215 -118 207 -142 C 199 -166 189 -189 178 -211 C 167 -233 155 -254 142 -273 C 128 -292 115 -308 102 -320 L 33 -288 C 41 -278 49 -266 59 -250 C 68 -234 77 -217 86 -198 C 94 -179 102 -159 110 -137 C 117 -115 122 -93 126 -72 L 223 -72 Z" unicode="ț" />
<glyph horiz-adv-x="218" d="M 156 436 L 156 -67 C 156 -103 144 -135 121 -162 C 98 -189 66 -202 25 -202 C 16 -202 5 -201 -6 -200 C -18 -198 -28 -197 -34 -195 L -32 -119 C -29 -119 -24 -120 -17 -121 C -9 -121 -3 -122 3 -122 C 19 -122 34 -116 46 -105 C 58 -93 64 -76 64 -54 L 64 436 L 156 436 Z" unicode="ȷ" />
<glyph horiz-adv-x="500" d="M 421 499 L 334 499 L 250 605 L 165 499 L 80 499 L 203 670 L 298 670 L 421 499 Z" unicode="ˆ" />
<glyph horiz-adv-x="500" d="M 80 670 L 167 670 L 251 563 L 336 670 L 421 670 L 298 499 L 203 499 L 80 670 Z" unicode="ˇ" />
<glyph horiz-adv-x="500" d="M 331 661 L 408 661 C 404 605 387 565 358 540 C 328 515 292 503 250 503 C 207 503 171 515 142 540 C 112 565 96 605 92 661 L 169 661 C 171 629 179 603 191 583 C 203 563 223 554 250 554 C 276 554 296 563 309 582 C 321 601 329 627 331 661 Z" unicode="˘" />
<glyph horiz-adv-x="500" d="M 293 499 L 208 499 L 208 662 L 293 662 L 293 499 Z" unicode="˙" />
<glyph horiz-adv-x="500" d="M 250 495 C 218 495 192 506 170 528 C 148 550 137 576 137 608 C 137 640 148 667 170 689 C 192 711 218 722 250 722 C 282 722 309 711 331 689 C 353 667 364 640 364 608 C 364 576 353 550 331 528 C 309 506 282 495 250 495 Z M 250 549 C 266 549 280 554 291 566 C 302 577 308 591 308 608 C 308 624 302 638 291 650 C 280 662 266 668 250 668 C 234 668 220 662 209 650 C 197 638 192 624 192 608 C 192 591 197 577 209 566 C 220 554 234 549 250 549 Z" unicode="˚" />
<glyph horiz-adv-x="500" d="M 362 -87 L 388 -126 C 368 -146 345 -162 320 -173 C 294 -184 266 -190 236 -190 C 202 -190 175 -182 155 -168 C 135 -153 125 -134 125 -112 C 125 -87 137 -64 163 -42 C 189 -20 224 -2 268 13 L 302 13 C 272 -1 248 -15 230 -30 C 212 -44 204 -59 204 -75 C 204 -89 209 -101 221 -109 C 233 -117 248 -121 266 -121 C 286 -121 305 -117 321 -111 C 337 -105 351 -97 362 -87 Z" unicode="˛" />
<glyph horiz-adv-x="500" d="M 342 642 L 410 642 C 410 595 403 560 390 538 C 376 516 359 505 338 505 C 319 505 302 508 288 515 C 274 522 262 529 254 535 C 244 541 234 547 226 553 C 217 559 208 562 200 562 C 191 562 183 556 177 546 C 170 536 167 523 167 509 L 97 509 C 97 555 106 589 124 612 C 142 634 162 646 183 646 C 198 646 211 642 223 636 C 235 629 247 621 259 613 C 267 606 276 600 285 594 C 293 588 302 585 311 585 C 319 585 326 590 332 601 C 338 611 342 625 342 642 Z" unicode="˜" />
<glyph horiz-adv-x="500" d="M 72 498 L 167 648 L 266 648 L 155 498 L 72 498 Z M 259 498 L 354 648 L 453 648 L 341 498 L 259 498 Z" unicode="˝" />
<glyph horiz-adv-x="0" d="M 0 498 L 0 498 Z M 108 498 L 14 498 L -108 661 L 1 661 L 108 498 Z" unicode="̀" />
<glyph horiz-adv-x="0" d="M 0 498 L 0 498 Z M -107 498 L -2 661 L 108 661 L -14 498 L -107 498 Z" unicode="́" />
<glyph horiz-adv-x="0" d="M 0 499 L 0 499 Z M 171 499 L 84 499 L 0 605 L -85 499 L -170 499 L -47 670 L 48 670 L 171 499 Z" unicode="̂" />
<glyph horiz-adv-x="0" d="M 0 505 L 0 505 Z M 92 642 L 160 642 C 160 595 153 560 140 538 C 126 516 109 505 88 505 C 69 505 52 508 38 515 C 24 522 12 529 4 535 C -6 541 -15 547 -24 553 C -32 559 -41 562 -50 562 C -58 562 -66 556 -73 546 C -79 536 -83 523 -83 509 L -153 509 C -153 555 -143 589 -125 612 C -107 634 -87 646 -67 646 C -51 646 -38 642 -26 636 C -14 629 -3 621 9 613 C 17 606 26 600 35 594 C 43 588 52 585 61 585 C 69 585 76 590 82 601 C 88 611 92 625 92 642 Z" unicode="̃" />
<glyph horiz-adv-x="0" d="M 0 523 L 0 523 Z M 131 523 L -131 523 L -131 591 L 131 591 L 131 523 Z" unicode="̄" />
<glyph horiz-adv-x="0" d="M 0 503 L 0 503 Z M 81 661 L 158 661 C 154 605 137 565 108 540 C 78 515 42 503 0 503 C -42 503 -78 515 -108 540 C -137 565 -154 605 -158 661 L -81 661 C -78 629 -70 603 -58 583 C -46 563 -26 554 0 554 C 26 554 46 563 59 582 C 71 601 79 627 81 661 Z" unicode="̆" />
<glyph horiz-adv-x="0" d="M 0 499 L 0 499 Z M 43 499 L -42 499 L -42 662 L 43 662 L 43 499 Z" unicode="̇" />
<glyph horiz-adv-x="0" d="M 0 499 L 0 499 Z M 131 499 L 53 499 L 53 657 L 131 657 L 131 499 Z M -55 499 L -133 499 L -133 657 L -55 657 L -55 499 Z" unicode="̈" />
<glyph horiz-adv-x="0" d="M 0 495 L 0 495 Z M 0 495 C -31 495 -58 506 -80 528 C -102 550 -113 576 -113 608 C -113 640 -102 667 -80 689 C -58 711 -31 722 0 722 C 32 722 59 711 81 689 C 103 667 114 640 114 608 C 114 576 103 550 81 528 C 59 506 32 495 0 495 Z M 0 549 C 16 549 30 554 41 566 C 52 577 58 591 58 608 C 58 624 52 638 41 650 C 30 662 16 668 0 668 C -16 668 -29 662 -41 650 C -52 638 -58 624 -58 608 C -58 591 -52 577 -41 566 C -29 554 -16 549 0 549 Z" unicode="̊" />
<glyph horiz-adv-x="0" d="M 0 498 L 0 498 Z M -190 498 L -95 648 L 4 648 L -107 498 L -190 498 Z M -3 498 L 92 648 L 191 648 L 79 498 L -3 498 Z" unicode="̋" />
<glyph horiz-adv-x="0" d="M 0 499 L 0 499 Z M -170 670 L -83 670 L 1 563 L 86 670 L 171 670 L 48 499 L -47 499 L -170 670 Z" unicode="̌" />
<glyph horiz-adv-x="0" d="M 0 -72 L 0 -72 Z M 95 -72 C 92 -94 87 -118 79 -142 C 71 -166 61 -189 50 -211 C 39 -233 27 -254 14 -273 C 0 -292 -12 -308 -26 -320 L -95 -288 C -87 -278 -78 -266 -69 -250 C -59 -234 -50 -217 -42 -198 C -33 -179 -25 -159 -18 -137 C -10 -115 -5 -93 -2 -72 L 95 -72 Z" unicode="̦" />
<glyph horiz-adv-x="0" d="M 0 0 L 0 0 Z M 9 -188 C -15 -188 -40 -185 -65 -179 C -90 -173 -110 -165 -124 -156 L -113 -114 C -103 -119 -89 -124 -73 -130 C -57 -135 -39 -138 -21 -138 C -6 -138 6 -134 18 -128 C 29 -121 35 -112 35 -102 C 35 -89 30 -80 20 -75 C 10 -70 0 -68 -12 -68 C -20 -68 -27 -68 -33 -69 C -39 -70 -45 -72 -52 -75 L -67 -59 L -6 12 L 52 12 L 2 -50 C 36 -42 65 -45 89 -58 C 112 -70 124 -89 124 -114 C 124 -138 112 -157 89 -169 C 66 -181 39 -188 9 -188 Z" unicode="̧" />
<glyph horiz-adv-x="0" d="M 0 0 L 0 0 Z M 105 -87 L 131 -126 C 111 -146 88 -162 63 -173 C 37 -184 9 -190 -21 -190 C -55 -190 -82 -182 -102 -168 C -122 -153 -132 -134 -132 -112 C -132 -87 -119 -64 -93 -42 C -67 -20 -33 -2 11 13 L 45 13 C 15 -1 -8 -15 -26 -30 C -44 -44 -53 -59 -53 -75 C -53 -89 -47 -101 -35 -109 C -23 -117 -9 -121 9 -121 C 29 -121 48 -117 64 -111 C 80 -105 94 -97 105 -87 Z" unicode="̨" />
<glyph horiz-adv-x="563" d="M 1 0 L 1 0 Z M 640 0 L 1 0 L 306 730 L 336 730 L 640 0 Z M 509 79 L 318 545 L 127 79 L 509 79 Z" unicode="Δ" />
<glyph horiz-adv-x="724" d="M 47 0 L 47 0 Z M 56 0 L 56 85 L 258 85 L 258 159 C 192 186 141 225 103 277 C 65 329 47 385 47 445 C 47 487 55 526 71 563 C 87 599 109 631 139 658 C 168 685 204 706 246 722 C 288 738 334 746 386 746 C 439 746 487 738 530 722 C 573 706 610 684 640 657 C 670 630 693 598 709 562 C 725 525 733 486 733 445 C 733 383 715 327 680 276 C 645 224 592 185 522 159 L 522 85 L 723 85 L 723 0 L 438 0 L 438 203 C 498 225 545 257 580 300 C 614 343 632 390 632 440 C 632 473 625 504 613 532 C 601 560 584 584 562 604 C 540 624 514 639 484 651 C 454 662 421 668 387 668 C 353 668 321 662 292 651 C 263 639 238 623 217 603 C 195 583 179 558 167 530 C 155 502 149 471 149 438 C 149 389 166 343 200 301 C 234 259 281 226 343 203 L 343 0 L 56 0 Z" unicode="Ω" />
<glyph horiz-adv-x="589" d="M 69 0 L 69 0 Z M 69 -106 L 69 436 L 161 436 L 161 158 C 161 128 170 105 189 89 C 207 72 232 64 264 64 C 296 64 324 73 348 93 C 372 113 384 142 384 182 L 384 436 L 475 436 L 475 0 L 392 0 L 392 93 C 380 65 362 41 336 22 C 310 3 281 -6 247 -8 C 224 -8 204 -4 188 5 C 172 14 160 27 154 44 L 154 -106 L 69 -106 Z" unicode="μ" />
<glyph horiz-adv-x="629" d="M 184 459 L 184 0 L 93 0 L 93 459 L 15 459 L 15 530 L 614 530 L 614 459 L 532 459 L 532 0 L 440 0 L 440 459 L 184 459 Z" unicode="π" />
<glyph horiz-adv-x="924" d="M 6 0 L 6 0 Z M 919 730 L 691 -8 L 638 -8 L 463 546 L 282 -8 L 229 -8 L 6 730 L 105 730 L 261 196 L 440 730 L 494 730 L 667 196 L 826 730 L 919 730 Z M 467 792 L 467 792 Z M 575 792 L 481 792 L 359 955 L 468 955 L 575 792 Z" unicode="Ẁ" />
<glyph horiz-adv-x="669" d="M 7 0 L 7 0 Z M 451 -3 L 336 281 L 217 -3 L 165 -3 L 7 436 L 103 436 L 203 136 L 314 406 L 365 406 L 473 136 L 574 436 L 662 436 L 503 -3 L 451 -3 Z M 335 498 L 335 498 Z M 443 498 L 349 498 L 227 661 L 336 661 L 443 498 Z" unicode="ẁ" />
<glyph horiz-adv-x="924" d="M 6 0 L 6 0 Z M 919 730 L 691 -8 L 638 -8 L 463 546 L 282 -8 L 229 -8 L 6 730 L 105 730 L 261 196 L 440 730 L 494 730 L 667 196 L 826 730 L 919 730 Z M 467 792 L 467 792 Z M 360 792 L 465 955 L 575 955 L 453 792 L 360 792 Z" unicode="Ẃ" />
<glyph horiz-adv-x="669" d="M 7 0 L 7 0 Z M 451 -3 L 336 281 L 217 -3 L 165 -3 L 7 436 L 103 436 L 203 136 L 314 406 L 365 406 L 473 136 L 574 436 L 662 436 L 503 -3 L 451 -3 Z M 335 498 L 335 498 Z M 228 498 L 333 661 L 443 661 L 321 498 L 228 498 Z" unicode="ẃ" />
<glyph horiz-adv-x="924" d="M 6 0 L 6 0 Z M 919 730 L 691 -8 L 638 -8 L 463 546 L 282 -8 L 229 -8 L 6 730 L 105 730 L 261 196 L 440 730 L 494 730 L 667 196 L 826 730 L 919 730 Z M 467 793 L 467 793 Z M 598 793 L 520 793 L 520 951 L 598 951 L 598 793 Z M 412 793 L 334 793 L 334 951 L 412 951 L 412 793 Z" unicode="Ẅ" />
<glyph horiz-adv-x="669" d="M 7 0 L 7 0 Z M 451 -3 L 336 281 L 217 -3 L 165 -3 L 7 436 L 103 436 L 203 136 L 314 406 L 365 406 L 473 136 L 574 436 L 662 436 L 503 -3 L 451 -3 Z M 335 499 L 335 499 Z M 466 499 L 388 499 L 388 657 L 466 657 L 466 499 Z M 280 499 L 202 499 L 202 657 L 280 657 L 280 499 Z" unicode="ẅ" />
<glyph horiz-adv-x="605" d="M 1 0 L 1 0 Z M 647 730 L 372 326 L 372 0 L 272 0 L 272 330 L 1 730 L 114 730 L 327 418 L 539 730 L 647 730 Z M 324 792 L 324 792 Z M 432 792 L 338 792 L 216 955 L 325 955 L 432 792 Z" unicode="Ỳ" />
<glyph horiz-adv-x="476" d="M 0 0 L 0 0 Z M 475 436 L 218 -90 C 195 -136 170 -165 143 -179 C 116 -193 91 -200 69 -200 C 54 -200 41 -198 31 -195 C 20 -192 12 -190 7 -189 L 32 -103 C 34 -104 39 -106 47 -108 C 55 -110 62 -112 70 -112 C 84 -112 98 -107 111 -98 C 123 -89 136 -71 150 -45 L 191 38 L -3 436 L 98 436 L 238 126 L 380 436 L 475 436 Z M 239 498 L 239 498 Z M 347 498 L 253 498 L 131 661 L 240 661 L 347 498 Z" unicode="ỳ" />
<glyph horiz-adv-x="460" d="M 420 226 L 41 226 L 41 306 L 420 306 L 420 226 Z" unicode="–" />
<glyph horiz-adv-x="645" d="M 605 226 L 41 226 L 41 306 L 605 306 L 605 226 Z" unicode="—" />
<glyph horiz-adv-x="271" d="M 34 507 L 34 514 C 34 550 45 589 69 629 C 92 669 123 705 163 737 L 255 731 C 245 725 233 715 219 701 C 205 687 191 670 179 651 C 166 631 155 610 146 587 C 137 563 133 539 133 515 L 133 507 L 34 507 Z" unicode="‘" />
<glyph horiz-adv-x="271" d="M 237 737 L 237 730 C 237 693 225 655 201 616 C 177 577 146 541 108 507 L 16 513 C 26 521 38 532 52 546 C 66 560 79 577 92 596 C 104 614 115 635 124 658 C 133 680 138 704 138 729 L 138 737 L 237 737 Z" unicode="’" />
<glyph horiz-adv-x="271" d="M 237 112 L 237 105 C 237 68 225 30 201 -8 C 177 -47 146 -84 108 -118 L 16 -112 C 26 -104 38 -92 52 -78 C 66 -64 79 -47 92 -29 C 104 -10 115 10 124 33 C 133 55 138 79 138 104 L 138 112 L 237 112 Z" unicode="‚" />
<glyph horiz-adv-x="449" d="M 225 507 L 225 514 C 225 550 235 587 255 625 C 275 663 305 700 345 737 L 433 731 C 423 722 411 710 398 696 C 385 682 373 665 361 647 C 349 628 338 607 330 585 C 322 563 318 539 318 515 L 318 507 L 225 507 Z M 34 507 L 34 514 C 34 550 44 587 66 625 C 87 663 116 700 154 737 L 243 731 C 234 723 223 711 210 697 C 196 683 183 666 171 648 C 159 629 148 608 140 586 C 131 563 127 539 127 515 L 127 507 L 34 507 Z" unicode="“" />
<glyph horiz-adv-x="449" d="M 225 737 L 225 730 C 225 693 215 656 196 618 C 176 580 146 543 104 507 L 16 513 C 27 522 39 534 53 549 C 66 563 78 580 90 598 C 102 616 111 637 119 659 C 127 681 131 704 131 729 L 131 737 L 225 737 Z M 415 737 L 415 730 C 415 693 405 655 385 617 C 365 579 335 542 295 507 L 207 513 C 219 523 231 535 245 549 C 258 563 270 580 282 598 C 293 616 302 637 310 659 C 318 681 322 704 322 729 L 322 737 L 415 737 Z" unicode="”" />
<glyph horiz-adv-x="449" d="M 225 116 L 225 109 C 225 72 215 35 196 -2 C 176 -40 146 -77 104 -114 L 16 -108 C 27 -98 39 -86 53 -72 C 66 -57 78 -40 90 -22 C 102 -4 111 16 119 38 C 127 60 131 83 131 108 L 131 116 L 225 116 Z M 415 116 L 415 109 C 415 72 405 34 385 -3 C 365 -41 335 -78 295 -114 L 207 -108 C 219 -98 231 -85 245 -71 C 258 -57 270 -40 282 -22 C 293 -4 302 16 310 38 C 318 60 322 83 322 108 L 322 116 L 415 116 Z" unicode="„" />
<glyph horiz-adv-x="565" d="M 540 379 L 328 379 L 328 -179 L 231 -179 L 231 379 L 25 379 L 25 470 L 231 470 L 231 730 L 328 730 L 328 470 L 540 470 L 540 379 Z" unicode="†" />
<glyph horiz-adv-x="565" d="M 232 -179 L 232 103 L 29 103 L 29 194 L 232 194 L 232 374 L 29 374 L 29 465 L 232 465 L 232 730 L 328 730 L 328 465 L 536 465 L 536 374 L 328 374 L 328 194 L 536 194 L 536 103 L 328 103 L 328 -179 L 232 -179 Z" unicode="‡" />
<glyph horiz-adv-x="382" d="M 191 465 C 215 465 235 456 252 440 C 268 423 277 403 277 379 C 277 355 268 334 252 318 C 235 302 215 294 191 294 C 167 294 146 302 130 318 C 114 334 106 355 106 379 C 106 403 114 423 130 440 C 146 456 167 465 191 465 Z" unicode="•" />
<glyph horiz-adv-x="708" d="M 71 0 L 71 125 L 166 125 L 166 0 L 71 0 Z M 307 0 L 307 125 L 401 125 L 401 0 L 307 0 Z M 542 0 L 542 125 L 637 125 L 637 0 L 542 0 Z" unicode="…" />
<glyph horiz-adv-x="1115" d="M 199 363 C 181 363 162 366 144 374 C 125 382 108 393 93 409 C 78 425 66 444 56 468 C 46 492 42 519 42 551 C 42 577 46 601 54 624 C 62 647 74 667 88 684 C 102 701 119 715 138 725 C 157 735 177 740 198 740 C 221 740 242 735 262 725 C 281 715 297 701 311 685 C 325 668 335 648 343 626 C 351 603 355 579 355 554 C 355 527 351 502 343 479 C 335 455 324 435 310 418 C 296 400 279 387 260 377 C 241 367 221 363 199 363 Z M 135 0 L 552 730 L 620 730 L 202 0 L 135 0 Z M 127 551 C 127 514 133 485 147 465 C 161 444 178 434 198 434 C 222 434 241 445 254 467 C 267 489 274 517 274 551 C 274 584 268 612 256 635 C 244 657 226 669 201 669 C 177 669 158 657 146 635 C 133 612 127 584 127 551 Z M 565 -3 C 546 -3 527 0 509 8 C 490 16 473 27 459 43 C 444 59 432 78 423 102 C 414 126 410 153 410 185 C 410 211 414 235 422 258 C 430 281 441 301 455 318 C 469 335 485 349 505 359 C 524 369 545 374 568 374 C 591 374 612 369 632 359 C 651 349 667 335 681 319 C 694 302 704 282 712 260 C 719 237 723 213 723 188 C 723 161 719 136 711 113 C 703 89 692 69 678 52 C 664 34 648 21 628 11 C 608 1 587 -3 565 -3 Z M 914 -3 C 895 -3 876 0 858 8 C 840 16 823 27 809 43 C 794 59 782 78 773 102 C 763 126 759 153 759 185 C 759 211 763 235 771 258 C 779 281 790 301 804 318 C 818 335 834 349 854 359 C 873 369 894 374 917 374 C 940 374 961 369 981 359 C 1000 349 1016 335 1030 319 C 1043 302 1053 282 1061 260 C 1068 237 1072 213 1072 188 C 1072 161 1068 136 1060 113 C 1052 89 1041 69 1027 52 C 1013 34 997 21 977 11 C 957 1 936 -3 914 -3 Z M 565 69 C 589 69 608 79 622 101 C 635 122 642 150 642 185 C 642 219 635 247 623 269 C 610 291 591 303 567 303 C 545 303 527 291 514 269 C 501 247 495 219 495 185 C 495 147 502 119 516 99 C 530 79 546 69 565 69 Z M 915 69 C 939 69 957 79 971 101 C 985 122 992 150 992 185 C 992 219 985 247 973 269 C 960 291 941 303 917 303 C 894 303 876 291 863 269 C 850 247 844 219 844 185 C 844 147 851 119 865 99 C 879 79 896 69 915 69 Z" unicode="‰" />
<glyph horiz-adv-x="238" d="M 209 74 L 28 241 L 28 312 L 209 477 L 209 378 L 108 274 L 209 175 L 209 74 Z" unicode="‹" />
<glyph horiz-adv-x="239" d="M 29 477 L 212 309 L 212 239 L 29 74 L 29 172 L 130 276 L 29 375 L 29 477 Z" unicode="›" />
<glyph horiz-adv-x="145" d="M 303 730 L -64 0 L -145 0 L 222 730 L 303 730 Z" unicode="⁄" />
<glyph horiz-adv-x="327" d="M 15 455 L 15 511 L 201 738 L 254 738 L 254 514 L 315 514 L 315 455 L 254 455 L 254 373 L 178 373 L 178 455 L 15 455 Z M 77 503 L 180 503 L 180 631 L 77 503 Z" unicode="⁴" />
<glyph horiz-adv-x="567" d="M 563 116 C 542 78 512 48 472 24 C 432 0 389 -12 341 -12 C 279 -12 225 11 179 59 C 133 106 102 171 88 253 L 37 253 L 37 327 L 80 327 C 79 332 79 338 79 344 C 79 350 79 356 79 362 C 79 366 79 370 79 374 C 79 378 79 381 79 385 L 37 385 L 37 460 L 86 460 C 92 501 102 539 116 574 C 130 608 147 638 169 663 C 190 687 215 707 244 721 C 272 735 304 742 340 742 C 398 742 444 730 478 707 C 512 683 537 656 554 626 L 480 587 C 466 611 448 630 426 645 C 404 660 375 668 340 668 C 296 668 259 650 230 614 C 200 578 181 527 172 460 L 491 460 L 491 385 L 166 385 C 166 381 166 378 166 374 C 166 370 166 367 166 363 C 166 357 166 351 166 345 C 166 339 166 333 167 327 L 491 327 L 491 253 L 176 253 C 188 190 209 142 240 110 C 270 78 304 62 342 62 C 376 62 406 71 432 91 C 458 110 478 133 492 159 L 563 116 Z" unicode="€" />
<glyph horiz-adv-x="883" d="M 829 309 L 746 309 L 746 594 L 616 398 L 591 398 L 461 593 L 461 309 L 381 309 L 381 730 L 466 730 L 604 522 L 741 730 L 829 730 L 829 309 Z M 352 641 L 230 641 L 230 309 L 143 309 L 143 641 L 20 641 L 20 730 L 352 730 L 352 641 Z" unicode="™" />
<glyph horiz-adv-x="781" d="M 56 0 L 56 85 L 258 85 L 258 159 C 192 186 141 225 103 277 C 65 329 47 385 47 445 C 47 487 55 526 71 563 C 87 599 109 631 139 658 C 168 685 204 706 246 722 C 288 738 334 746 386 746 C 439 746 487 738 530 722 C 573 706 610 684 640 657 C 670 630 693 598 709 562 C 725 525 733 486 733 445 C 733 383 715 327 680 276 C 645 224 592 185 522 159 L 522 85 L 723 85 L 723 0 L 438 0 L 438 203 C 498 225 545 257 580 300 C 614 343 632 390 632 440 C 632 473 625 504 613 532 C 601 560 584 584 562 604 C 540 624 514 639 484 651 C 454 662 421 668 387 668 C 353 668 321 662 292 651 C 263 639 238 623 217 603 C 195 583 179 558 167 530 C 155 502 149 471 149 438 C 149 389 166 343 200 301 C 234 259 281 226 343 203 L 343 0 L 56 0 Z" unicode="Ω" />
<glyph horiz-adv-x="556" d="M 511 274 C 511 224 504 181 491 145 C 478 109 461 79 439 56 C 417 33 391 16 361 5 C 331 -5 300 -11 267 -11 C 237 -11 208 -5 180 4 C 151 14 125 29 103 49 C 81 69 63 93 49 121 C 35 149 29 180 29 216 C 29 247 35 277 47 306 C 59 334 75 359 95 381 C 115 402 140 419 168 432 C 196 444 226 451 258 451 C 300 451 336 441 366 421 C 396 401 419 376 433 346 C 427 416 414 476 394 527 C 373 577 348 619 320 651 C 292 683 261 707 227 723 C 193 739 160 747 128 749 L 170 802 C 203 802 240 792 280 774 C 320 755 357 725 391 683 C 425 641 453 587 476 520 C 499 452 511 370 511 274 Z M 268 54 C 312 54 347 69 375 100 C 402 131 416 174 416 228 C 416 272 403 309 377 339 C 351 369 315 384 269 384 C 227 384 192 368 165 338 C 138 308 125 268 125 219 C 125 167 138 126 165 97 C 192 68 226 54 268 54 Z" unicode="∂" />
<glyph horiz-adv-x="640" d="M 640 0 L 1 0 L 306 730 L 336 730 L 640 0 Z M 509 79 L 318 545 L 127 79 L 509 79 Z" unicode="∆" />
<glyph horiz-adv-x="700" d="M 226 647 L 226 0 L 130 0 L 130 647 L 15 647 L 15 730 L 685 730 L 685 647 L 575 647 L 575 0 L 480 0 L 480 647 L 226 647 Z" unicode="∏" />
<glyph horiz-adv-x="618" d="M 171 647 L 422 307 L 138 -96 L 571 -96 L 571 -179 L -15 -179 L 329 306 L 15 730 L 550 730 L 550 647 L 171 647 Z" unicode="∑" />
<glyph horiz-adv-x="514" d="M 474 294 L 41 294 L 41 369 L 474 369 L 474 294 Z" unicode="−" />
<glyph horiz-adv-x="510" d="M 502 730 L 198 0 L 186 0 L 13 329 L 79 378 L 203 130 L 443 730 L 502 730 Z" unicode="√" />
<glyph horiz-adv-x="338" d="M 107 -27 L 165 628 C 168 664 182 692 207 712 C 231 731 256 741 282 741 C 295 741 308 740 321 739 C 334 738 342 737 345 737 L 338 656 C 336 656 332 657 326 658 C 320 658 314 659 308 659 C 289 659 273 652 261 640 C 249 627 242 607 240 581 L 184 -60 C 181 -92 168 -120 145 -144 C 121 -168 92 -179 58 -179 C 39 -179 22 -177 6 -173 C -10 -169 -22 -165 -30 -161 L -20 -96 C -16 -96 -9 -98 0 -101 C 9 -103 18 -105 27 -105 C 47 -105 64 -98 80 -84 C 95 -70 104 -51 107 -27 Z" unicode="∫" />
<glyph horiz-adv-x="500" d="M 366 499 L 448 499 C 447 451 440 412 427 382 C 413 352 390 337 358 337 C 336 337 316 341 298 349 C 280 357 265 367 253 378 C 240 388 226 398 210 406 C 194 414 180 418 166 418 C 153 418 140 410 127 396 C 114 382 108 363 108 340 L 37 340 C 37 390 46 429 66 457 C 85 485 110 500 141 500 C 161 500 179 495 195 487 C 211 478 225 469 238 460 C 249 452 262 444 276 437 C 290 430 304 427 318 427 C 335 427 347 432 355 444 C 362 456 366 474 366 499 Z M 369 322 L 448 322 C 447 274 438 235 422 205 C 405 175 380 161 346 161 C 323 161 303 165 287 173 C 271 181 257 191 246 201 C 234 211 220 219 206 227 C 191 234 177 238 165 238 C 153 238 140 231 128 218 C 116 204 110 186 110 164 L 37 164 C 37 213 46 252 66 281 C 86 309 113 324 147 324 C 169 324 189 319 206 310 C 223 301 237 292 249 282 C 259 273 271 265 285 259 C 299 252 312 249 324 249 C 340 249 351 255 358 267 C 365 279 369 297 369 322 Z" unicode="≈" />
<glyph horiz-adv-x="500" d="M 457 175 L 225 175 L 174 67 L 113 93 L 152 175 L 65 175 L 65 254 L 190 254 L 254 388 L 65 388 L 65 466 L 291 466 L 344 578 L 404 552 L 363 466 L 457 466 L 457 388 L 326 388 L 263 254 L 457 254 L 457 175 Z" unicode="≠" />
<glyph horiz-adv-x="500" d="M 62 295 L 62 355 L 433 558 L 433 471 L 152 327 L 433 180 L 433 93 L 62 295 Z M 61 84 L 433 84 L 433 14 L 61 14 L 61 84 Z" unicode="≤" />
<glyph horiz-adv-x="500" d="M 432 295 L 61 93 L 61 180 L 342 327 L 61 471 L 61 558 L 432 355 L 432 295 Z M 433 84 L 433 14 L 61 14 L 61 84 L 433 84 Z" unicode="≥" />
<glyph horiz-adv-x="533" d="M 504 326 L 272 -16 L 261 -16 L 30 326 L 30 337 L 261 678 L 272 678 L 504 337 L 504 326 Z M 417 327 L 417 336 L 271 556 L 263 556 L 117 336 L 117 327 L 263 106 L 271 106 L 417 327 Z" unicode="◊" />
<glyph horiz-adv-x="730" d="M 448 678 L 282 678 L 282 730 L 448 730 L 448 678 Z M 659 282 L 605 282 L 605 448 L 659 448 L 659 282 Z M 125 282 L 71 282 L 71 448 L 125 448 L 125 282 Z M 428 302 L 302 302 L 302 428 L 428 428 L 428 302 Z M 448 0 L 282 0 L 282 53 L 448 53 L 448 0 Z" unicode="" />
<glyph horiz-adv-x="547" d="M 319 365 L 204 365 L 204 0 L 112 0 L 112 365 L 17 365 L 17 436 L 112 436 L 112 517 C 112 557 118 591 130 620 C 142 649 157 673 176 691 C 194 709 215 723 239 732 C 263 741 286 746 310 746 C 324 746 338 745 350 743 C 362 741 372 738 380 736 L 380 659 C 374 661 367 662 357 664 C 347 666 337 667 326 667 C 311 667 296 663 282 657 C 268 650 255 641 243 629 C 231 617 222 603 215 586 C 207 569 204 551 204 531 L 204 436 L 319 436 L 319 365 Z M 484 534 L 389 534 L 389 630 L 484 630 L 484 534 Z M 482 0 L 391 0 L 391 436 L 482 436 L 482 0 Z" unicode="ﬁ" />
<glyph horiz-adv-x="540" d="M 319 365 L 204 365 L 204 0 L 112 0 L 112 365 L 17 365 L 17 436 L 112 436 L 112 503 C 112 543 118 577 130 607 C 142 637 157 661 176 680 C 194 699 215 713 239 723 C 263 733 286 738 310 738 C 324 738 338 737 350 735 C 362 733 372 730 380 728 L 380 651 C 374 653 367 654 357 656 C 347 658 337 659 326 659 C 311 659 296 655 282 648 C 268 640 255 630 243 618 C 231 605 222 590 215 573 C 207 555 204 537 204 517 L 204 436 L 319 436 L 319 365 Z M 476 730 L 476 0 L 384 0 L 384 730 L 476 730 Z" unicode="ﬂ" />
</font>
</defs>
</svg>
