<?xml version="1.0" encoding="utf-8" ?><svg version="1.1" xmlns = 'http://www.w3.org/2000/svg'><defs><font id='web' horiz-adv-x="1000">
<font-face font-family="web" descent="-200" cap-height="730" units-per-em="1000" bbox="-190,-323,1039,1017" x-height="436" ascent="800" />
<missing-glyph horiz-adv-x="500" d="" /><glyph horiz-adv-x="206" d="" unicode=" " />
<glyph horiz-adv-x="266" d="M 195 432 L 161 213 L 110 213 L 77 432 L 77 730 L 195 730 L 195 432 Z M 190 0 L 83 0 L 83 119 L 190 119 L 190 0 Z" unicode="!" />
<glyph horiz-adv-x="395" d="M 338 624 L 332 484 L 249 484 L 244 623 L 244 730 L 338 730 L 338 624 Z M 150 623 L 146 484 L 61 484 L 56 623 L 56 730 L 150 730 L 150 623 Z" unicode="&#x22;" />
<glyph horiz-adv-x="598" d="M 344 0 L 363 214 L 216 214 L 197 0 L 132 0 L 151 214 L 33 214 L 33 303 L 159 303 L 169 424 L 51 424 L 51 513 L 177 513 L 196 729 L 261 729 L 242 513 L 389 513 L 408 729 L 472 729 L 453 513 L 565 513 L 565 424 L 445 424 L 435 303 L 547 303 L 547 214 L 427 214 L 408 0 L 344 0 Z M 224 303 L 371 303 L 381 424 L 234 424 L 224 303 Z" unicode="#" />
<glyph horiz-adv-x="504" d="M 470 190 C 470 138 452 95 417 62 C 382 28 339 8 287 2 L 287 -123 L 215 -123 L 215 2 C 175 5 138 14 106 29 C 74 43 47 62 25 85 L 76 162 C 92 145 113 130 138 118 C 163 106 189 97 215 93 L 215 340 C 157 367 113 397 85 429 C 57 461 43 503 43 553 C 43 599 59 638 91 670 C 123 702 164 722 215 729 L 215 790 L 287 790 L 287 729 C 317 726 346 718 374 706 C 402 694 427 677 449 656 L 392 583 C 377 597 360 609 342 619 C 324 628 305 634 287 638 L 287 414 L 289 413 C 355 381 401 349 429 317 C 456 285 470 243 470 190 Z M 140 552 C 139 530 144 512 155 498 C 166 483 186 467 215 451 L 215 639 C 193 633 175 623 161 608 C 147 593 140 574 140 552 Z M 375 193 C 375 215 369 235 357 252 C 345 269 322 287 287 306 L 287 94 C 311 98 332 109 349 127 C 366 144 375 166 375 193 Z" unicode="$" />
<glyph horiz-adv-x="738" d="M 190 363 C 172 363 154 366 136 374 C 118 382 101 393 87 409 C 73 425 61 444 52 468 C 43 492 39 519 39 551 C 39 577 43 601 51 624 C 59 647 69 667 83 684 C 96 701 112 715 130 725 C 148 735 168 740 188 740 C 210 740 231 735 250 725 C 269 715 285 701 299 685 C 312 668 322 648 330 626 C 337 603 341 579 341 554 C 341 527 337 502 329 479 C 321 455 310 435 297 418 C 283 400 267 387 249 377 C 230 367 210 363 190 363 Z M 194 0 L 119 0 L 535 730 L 610 730 L 194 0 Z M 189 441 C 211 441 227 451 237 473 C 247 494 252 520 252 551 C 252 581 247 607 238 629 C 228 651 213 662 191 662 C 170 662 155 651 145 629 C 135 607 130 581 130 551 C 130 519 135 492 145 472 C 155 451 170 441 189 441 Z M 548 -3 C 530 -3 512 0 494 8 C 476 16 460 27 446 43 C 432 59 420 78 411 102 C 402 126 398 153 398 185 C 398 211 401 236 409 259 C 417 282 427 302 441 319 C 455 336 471 349 490 359 C 508 369 529 374 551 374 C 573 374 594 369 613 359 C 631 349 647 335 661 319 C 674 302 684 282 691 260 C 698 237 702 213 702 188 C 702 161 698 136 690 113 C 682 89 672 69 658 52 C 644 34 628 21 610 11 C 591 1 570 -3 548 -3 Z M 549 76 C 570 76 586 86 597 107 C 607 127 613 153 613 185 C 613 215 607 241 597 263 C 587 285 571 296 550 296 C 531 296 516 285 506 264 C 495 242 490 216 490 185 C 490 152 495 126 506 106 C 516 86 531 76 549 76 Z" unicode="%" />
<glyph horiz-adv-x="682" d="M 598 -5 L 515 79 C 480 50 443 28 403 14 C 363 0 321 -8 276 -8 C 202 -8 142 8 96 42 C 50 76 27 123 27 183 C 27 212 31 237 41 259 C 50 281 62 300 78 317 C 94 333 112 348 133 362 C 153 376 175 389 199 403 L 189 413 C 171 431 153 455 134 483 C 115 511 106 544 106 581 C 106 601 110 620 119 639 C 128 658 141 675 157 689 C 173 703 193 715 216 724 C 239 732 265 737 293 737 C 347 737 391 721 425 691 C 459 661 476 626 476 586 C 476 546 464 511 440 481 C 416 451 382 421 338 393 L 522 211 C 534 225 545 240 556 256 C 567 272 578 288 589 305 L 662 253 C 650 233 637 215 624 197 C 611 179 598 163 586 149 L 668 68 L 598 -5 Z M 266 464 L 279 451 C 312 472 337 492 354 512 C 370 532 379 553 379 575 C 379 596 372 615 358 633 C 344 651 322 660 294 660 C 267 660 246 651 231 634 C 216 616 209 598 209 578 C 209 558 214 539 224 519 C 234 499 248 480 266 464 Z M 141 185 C 141 151 154 125 182 106 C 210 87 243 78 282 78 C 314 78 344 83 372 95 C 400 106 428 122 454 143 L 258 343 C 222 319 193 296 172 272 C 151 248 141 219 141 185 Z" unicode="&#x26;" />
<glyph horiz-adv-x="208" d="M 152 621 L 147 480 L 61 480 L 56 621 L 56 730 L 152 730 L 152 621 Z" unicode="'" />
<glyph horiz-adv-x="308" d="M 294 -91 L 294 -179 C 258 -161 224 -137 192 -107 C 159 -76 130 -41 106 -1 C 81 39 61 84 46 134 C 31 184 24 237 24 293 C 24 349 31 402 46 451 C 60 499 80 543 104 582 C 128 621 157 655 190 683 C 223 711 258 733 294 749 L 294 663 C 250 635 212 590 181 528 C 150 466 134 388 134 292 C 134 207 148 131 176 64 C 204 -3 243 -55 294 -91 Z" unicode="(" />
<glyph horiz-adv-x="308" d="M 15 662 L 15 749 C 49 735 82 714 115 686 C 147 658 176 625 201 586 C 226 546 246 501 262 451 C 277 400 285 345 285 285 C 285 228 277 175 262 126 C 246 76 226 32 201 -6 C 175 -45 146 -79 114 -109 C 82 -138 49 -161 15 -179 L 15 -88 C 63 -54 103 -5 135 59 C 167 123 183 198 183 285 C 183 334 178 379 169 420 C 160 460 148 496 133 528 C 118 559 100 586 80 608 C 59 630 37 648 15 662 Z" unicode=")" />
<glyph horiz-adv-x="391" d="M 360 587 L 236 554 L 325 466 L 267 416 L 198 526 L 129 417 L 67 464 L 159 555 L 32 583 L 67 661 L 174 600 L 157 730 L 238 730 L 221 600 L 330 658 L 360 587 Z" unicode="*" />
<glyph horiz-adv-x="500" d="M 468 292 L 291 292 L 291 119 L 209 119 L 209 292 L 32 292 L 32 370 L 209 370 L 209 543 L 291 543 L 291 370 L 468 370 L 468 292 Z" unicode="+" />
<glyph horiz-adv-x="230" d="M 196 106 C 194 83 190 59 183 35 C 175 10 166 -13 156 -36 C 145 -59 133 -80 121 -99 C 108 -118 96 -133 84 -145 L 7 -110 C 15 -100 23 -88 32 -72 C 40 -56 49 -39 57 -20 C 65 -1 72 19 78 41 C 84 63 88 84 91 106 L 196 106 Z" unicode="," />
<glyph horiz-adv-x="337" d="M 296 222 L 42 222 L 42 314 L 296 314 L 296 222 Z" unicode="-" />
<glyph horiz-adv-x="232" d="M 171 0 L 61 0 L 61 130 L 171 130 L 171 0 Z" unicode="." />
<glyph horiz-adv-x="322" d="M 320 730 L 96 0 L 2 0 L 228 730 L 320 730 Z" unicode="/" />
<glyph horiz-adv-x="532" d="M 263 -10 C 194 -10 139 20 97 81 C 55 142 35 235 35 361 C 35 415 39 465 49 511 C 58 557 72 598 91 632 C 110 666 134 692 164 712 C 193 731 228 741 268 741 C 308 741 343 731 373 713 C 402 694 426 668 444 635 C 462 602 476 563 485 518 C 493 472 498 423 498 370 C 498 312 493 260 483 213 C 473 166 459 126 440 93 C 420 60 396 35 366 17 C 336 -1 302 -10 263 -10 Z M 264 80 C 309 80 342 104 362 154 C 382 203 393 272 393 360 C 393 448 383 518 365 570 C 346 622 313 649 266 649 C 221 649 188 624 168 574 C 148 524 138 453 138 362 C 138 270 148 200 169 152 C 190 104 222 80 264 80 Z" unicode="0" />
<glyph horiz-adv-x="348" d="M 273 0 L 168 0 L 168 574 C 154 556 134 540 108 526 C 81 512 57 504 37 502 L 37 608 C 66 610 94 622 122 646 C 149 669 174 698 196 732 L 273 732 L 273 0 Z" unicode="1" />
<glyph horiz-adv-x="510" d="M 478 0 L 26 0 L 26 30 L 302 371 C 324 397 341 424 353 452 C 365 480 372 508 372 537 C 372 569 360 595 338 615 C 315 635 285 645 249 645 C 207 645 175 632 154 606 C 133 580 123 547 123 507 L 29 507 C 29 583 49 641 90 681 C 131 720 185 740 252 740 C 284 740 313 735 340 727 C 367 719 390 707 410 691 C 430 675 445 654 456 630 C 467 606 473 578 473 546 C 473 493 463 449 445 415 C 426 380 405 349 383 323 L 188 91 L 478 91 L 478 0 Z" unicode="2" />
<glyph horiz-adv-x="502" d="M 232 -10 C 176 -10 129 -1 92 15 C 55 31 26 51 5 73 L 57 148 C 74 132 96 117 123 103 C 150 88 184 81 224 81 C 276 81 315 95 342 124 C 368 152 382 186 382 226 C 382 266 367 296 338 317 C 308 338 273 349 231 349 L 129 349 L 129 441 L 232 441 C 268 441 299 451 323 471 C 347 491 359 517 359 548 C 359 575 349 599 329 619 C 309 639 281 649 245 649 C 206 649 175 641 152 626 C 128 610 109 592 93 570 L 30 637 C 38 648 48 660 61 672 C 73 684 89 696 107 706 C 125 716 146 724 171 731 C 195 737 223 741 254 741 C 316 741 365 725 402 693 C 439 661 458 618 458 564 C 458 541 454 520 447 502 C 440 484 431 468 420 454 C 408 440 396 428 382 419 C 368 409 355 402 341 398 C 377 388 410 368 438 338 C 466 307 481 267 481 217 C 481 191 476 164 468 137 C 459 110 445 86 425 64 C 405 42 380 25 348 11 C 316 -3 277 -10 232 -10 Z" unicode="3" />
<glyph horiz-adv-x="526" d="M 517 187 L 413 187 L 413 0 L 319 0 L 319 187 L 12 187 L 12 253 L 347 740 L 413 740 L 413 275 L 517 275 L 517 187 Z M 320 275 L 320 557 L 125 275 L 320 275 Z" unicode="4" />
<glyph horiz-adv-x="511" d="M 248 -10 C 194 -10 148 0 109 17 C 69 35 39 56 19 79 L 74 152 C 91 131 114 114 142 100 C 170 86 203 79 241 79 C 285 79 321 95 347 127 C 373 159 386 200 386 250 C 386 297 373 334 349 361 C 324 387 292 401 253 401 C 221 401 193 394 171 381 C 148 368 130 349 118 325 L 49 342 L 79 730 L 440 730 L 440 635 L 157 635 L 141 425 C 152 443 170 459 195 471 C 220 483 250 490 284 490 C 346 490 395 469 433 428 C 471 387 490 330 490 257 C 490 175 467 110 423 62 C 378 14 320 -10 248 -10 Z" unicode="5" />
<glyph horiz-adv-x="506" d="M 265 -10 C 195 -10 139 12 96 57 C 52 102 31 162 31 238 C 31 315 50 388 88 457 C 126 526 176 598 236 672 L 295 746 L 370 691 L 332 644 C 286 586 246 534 213 488 C 180 442 159 404 151 376 C 160 393 176 409 198 424 C 220 439 249 447 284 447 C 345 447 394 425 432 383 C 469 340 488 286 488 220 C 488 188 482 158 472 130 C 461 102 446 77 426 57 C 406 36 383 20 356 8 C 328 -4 298 -10 265 -10 Z M 267 79 C 303 79 332 92 355 118 C 377 144 389 177 389 217 C 389 261 378 295 357 321 C 335 346 305 359 266 359 C 233 359 203 347 177 324 C 151 301 138 267 138 223 C 138 177 149 141 173 116 C 197 91 228 79 267 79 Z" unicode="6" />
<glyph horiz-adv-x="448" d="M 452 730 L 456 695 L 137 -7 L 47 33 L 322 635 L 13 635 L 13 730 L 452 730 Z" unicode="7" />
<glyph horiz-adv-x="533" d="M 372 387 C 386 383 401 376 417 366 C 433 356 447 344 460 329 C 473 314 484 296 492 274 C 500 252 504 228 504 200 C 504 139 483 89 441 49 C 399 9 340 -10 266 -10 C 193 -10 136 8 95 46 C 53 84 33 134 33 197 C 33 226 37 252 46 274 C 55 296 66 315 80 331 C 93 347 107 359 123 368 C 139 377 153 383 166 385 C 154 389 142 395 129 403 C 115 411 103 422 92 436 C 80 450 71 466 63 485 C 55 504 52 526 52 552 C 52 581 57 607 69 631 C 80 654 95 674 115 690 C 134 706 157 718 183 727 C 209 735 237 740 267 740 C 334 740 387 722 425 688 C 463 653 483 610 484 559 C 484 534 480 512 474 493 C 467 473 458 457 447 443 C 436 429 424 417 411 408 C 397 398 384 391 372 387 Z M 267 425 C 303 425 331 435 353 455 C 375 475 386 502 386 536 C 386 574 375 602 353 622 C 331 641 303 651 267 651 C 233 651 204 640 181 620 C 158 600 147 572 147 537 C 147 500 158 472 182 453 C 206 434 234 425 267 425 Z M 267 76 C 309 76 343 87 368 111 C 392 135 405 168 405 211 C 405 252 392 283 366 305 C 340 327 307 338 267 338 C 227 338 194 327 168 306 C 142 284 129 252 129 209 C 129 167 141 135 167 111 C 193 87 226 76 267 76 Z" unicode="8" />
<glyph horiz-adv-x="506" d="M 214 -12 L 142 49 L 180 92 C 199 114 219 137 239 162 C 259 187 278 212 295 236 C 311 260 326 284 338 307 C 350 329 358 349 362 367 C 350 346 331 327 305 311 C 279 295 250 287 218 287 C 187 287 159 292 135 304 C 110 316 89 332 72 352 C 55 372 42 396 33 424 C 23 452 19 482 19 515 C 19 547 24 577 35 605 C 46 633 61 657 81 677 C 101 697 125 714 153 726 C 181 738 211 744 245 744 C 277 744 307 738 335 727 C 363 715 387 699 408 678 C 428 657 445 631 457 600 C 469 568 475 533 475 493 C 475 451 469 411 458 372 C 447 332 433 294 415 258 C 397 222 376 187 352 154 C 328 120 304 89 279 61 L 214 -12 Z M 241 376 C 275 376 305 387 331 411 C 357 435 370 469 370 513 C 370 559 357 593 332 617 C 307 640 278 652 244 652 C 206 652 175 639 153 614 C 131 589 120 557 120 517 C 120 473 130 438 151 413 C 171 388 201 376 241 376 Z" unicode="9" />
<glyph horiz-adv-x="237" d="M 172 308 L 66 308 L 66 436 L 172 436 L 172 308 Z M 172 0 L 66 0 L 66 129 L 172 129 L 172 0 Z" unicode=":" />
<glyph horiz-adv-x="237" d="M 179 308 L 73 308 L 73 436 L 179 436 L 179 308 Z M 182 105 C 179 81 174 56 167 31 C 160 6 152 -17 142 -39 C 132 -61 121 -82 109 -100 C 97 -118 85 -133 73 -145 L -4 -110 C 4 -100 12 -88 21 -73 C 30 -57 39 -40 47 -21 C 55 -1 63 18 69 40 C 75 62 78 83 80 105 L 182 105 Z" unicode=";" />
<glyph horiz-adv-x="394" d="M 345 90 L 44 292 L 44 356 L 345 558 L 345 456 L 151 325 L 345 193 L 345 90 Z" unicode="&#x3C;" />
<glyph horiz-adv-x="500" d="M 443 386 L 58 386 L 58 474 L 443 474 L 443 386 Z M 443 171 L 58 171 L 58 259 L 443 259 L 443 171 Z" unicode="=" />
<glyph horiz-adv-x="394" d="M 348 292 L 47 90 L 47 193 L 241 325 L 47 457 L 47 558 L 348 356 L 348 292 Z" unicode="&#x3E;" />
<glyph horiz-adv-x="448" d="M 160 209 C 160 248 166 282 178 310 C 190 338 209 366 233 394 C 251 415 270 438 289 462 C 308 486 318 516 318 550 C 318 581 307 606 285 624 C 263 642 236 651 206 651 C 178 651 153 644 131 630 C 109 616 92 598 78 578 L 14 640 C 39 674 71 699 109 716 C 147 733 187 742 227 742 C 289 742 338 725 373 691 C 408 657 426 614 426 561 C 426 535 422 513 415 493 C 408 473 399 454 388 437 C 377 420 365 404 351 389 C 337 374 324 359 311 345 C 292 326 279 304 272 279 C 265 253 261 230 261 209 L 160 209 Z M 155 0 L 155 116 L 270 116 L 270 0 L 155 0 Z" unicode="?" />
<glyph horiz-adv-x="839" d="M 410 -42 C 355 -42 305 -32 259 -12 C 213 8 173 35 140 69 C 107 103 81 143 63 189 C 45 235 36 285 36 337 C 36 389 45 439 64 485 C 82 531 108 572 142 606 C 175 640 215 666 261 686 C 307 706 358 716 414 716 C 470 716 522 707 569 691 C 616 674 656 650 689 620 C 722 590 748 553 766 510 C 784 467 793 420 793 369 C 793 324 787 286 777 255 C 766 223 752 198 736 179 C 720 159 702 145 683 137 C 664 128 646 124 630 124 C 599 124 574 131 554 145 C 534 159 521 176 516 198 C 506 181 487 164 461 148 C 435 132 403 124 366 124 C 315 124 277 136 253 161 C 228 186 216 218 216 256 C 216 278 221 297 231 315 C 241 333 255 348 273 360 C 290 372 311 382 335 388 C 359 394 386 398 414 398 L 505 398 L 505 408 C 505 438 497 459 481 471 C 465 483 442 489 412 489 C 386 489 363 485 342 479 C 320 473 302 466 288 460 L 259 530 C 278 539 301 547 328 553 C 355 559 383 563 411 563 C 467 563 510 549 542 523 C 574 497 590 454 590 394 L 590 247 C 590 233 593 220 599 209 C 605 197 617 192 636 192 C 644 192 653 194 663 199 C 673 204 682 213 690 226 C 698 238 705 256 711 278 C 716 300 719 329 719 364 C 719 404 712 442 698 477 C 684 511 663 541 637 566 C 611 591 579 611 541 625 C 503 639 461 646 414 646 C 369 646 328 638 291 622 C 254 606 222 584 196 556 C 169 528 148 496 134 458 C 119 420 112 380 112 338 C 112 296 119 256 134 218 C 148 180 169 148 196 120 C 222 92 254 69 291 53 C 328 36 369 28 413 28 C 433 28 454 30 475 34 C 495 38 517 45 540 56 L 567 -8 C 539 -20 513 -29 487 -34 C 461 -39 435 -42 410 -42 Z M 385 199 C 412 199 437 204 461 216 C 485 227 499 238 505 250 L 505 328 L 413 328 C 377 328 351 322 335 311 C 319 299 311 284 311 264 C 311 244 317 228 331 216 C 344 204 362 199 385 199 Z" unicode="@" />
<glyph horiz-adv-x="603" d="M 601 0 L 490 0 L 426 177 L 171 177 L 109 0 L 1 0 L 269 733 L 337 733 L 601 0 Z M 397 270 L 299 539 L 201 270 L 397 270 Z" unicode="A" />
<glyph horiz-adv-x="558" d="M 81 0 L 81 730 L 297 730 C 355 730 402 714 440 683 C 477 652 496 610 496 558 C 496 506 483 466 458 436 C 432 406 403 387 369 381 C 387 379 406 374 425 366 C 443 358 460 348 475 334 C 490 320 502 302 512 281 C 521 260 526 236 526 208 C 526 143 505 92 463 55 C 421 18 367 0 301 0 L 81 0 Z M 188 417 L 274 417 C 315 417 344 428 361 452 C 378 475 387 501 387 530 C 387 560 377 585 357 604 C 337 622 310 632 274 632 L 188 632 L 188 417 Z M 188 97 L 297 97 C 339 97 369 108 388 130 C 407 152 417 180 417 214 C 417 249 405 276 381 296 C 357 315 327 325 289 325 L 188 325 L 188 97 Z" unicode="B" />
<glyph horiz-adv-x="633" d="M 363 -10 C 317 -10 275 -1 236 14 C 197 30 163 54 135 86 C 106 118 83 157 67 204 C 50 250 42 304 42 365 C 42 420 49 471 65 517 C 81 563 103 603 131 636 C 159 668 193 694 233 712 C 273 730 317 740 365 740 C 431 740 483 729 522 707 C 561 685 593 658 618 625 L 541 552 C 524 574 501 594 473 611 C 445 627 410 636 368 636 C 300 636 247 612 210 564 C 172 516 154 448 154 361 C 154 313 160 272 172 238 C 184 204 200 176 220 154 C 240 132 263 115 289 105 C 315 95 342 90 370 90 C 414 90 452 99 482 117 C 512 135 537 158 557 186 L 628 126 C 601 86 565 53 521 28 C 477 2 424 -10 363 -10 Z" unicode="C" />
<glyph horiz-adv-x="681" d="M 81 0 L 81 730 L 288 730 C 344 730 393 721 437 704 C 481 687 517 663 547 632 C 577 600 599 563 615 519 C 631 475 639 426 639 372 C 639 320 631 271 616 225 C 600 179 577 140 547 107 C 517 73 479 47 433 28 C 387 9 335 0 275 0 L 81 0 Z M 191 97 L 274 97 C 317 97 355 103 387 117 C 419 131 445 150 465 174 C 485 198 501 227 511 261 C 521 294 526 330 526 369 C 526 451 504 515 462 561 C 420 607 361 631 286 631 L 191 631 L 191 97 Z" unicode="D" />
<glyph horiz-adv-x="523" d="M 487 0 L 81 0 L 81 730 L 468 730 L 468 631 L 190 631 L 190 411 L 454 411 L 454 312 L 190 312 L 190 99 L 487 99 L 487 0 Z" unicode="E" />
<glyph horiz-adv-x="461" d="M 433 631 L 191 631 L 191 411 L 419 411 L 419 312 L 191 312 L 191 0 L 81 0 L 81 730 L 433 730 L 433 631 Z" unicode="F" />
<glyph horiz-adv-x="687" d="M 375 372 L 651 372 L 651 139 C 627 95 592 59 544 31 C 496 3 437 -10 368 -10 C 322 -10 279 -1 239 17 C 199 35 164 60 135 93 C 106 125 83 165 67 211 C 50 257 42 309 42 365 C 42 422 50 474 67 520 C 84 566 107 606 137 638 C 167 670 202 695 242 713 C 282 731 326 740 372 740 C 406 740 436 736 462 729 C 488 722 511 713 530 703 C 549 692 565 680 579 666 C 592 652 603 639 613 625 L 533 564 C 518 582 498 598 472 614 C 446 629 411 637 368 637 C 305 637 253 612 213 564 C 173 516 153 449 153 364 C 153 322 158 285 169 251 C 180 217 195 187 215 163 C 234 139 257 120 284 106 C 311 92 341 86 374 86 C 416 86 452 93 484 109 C 515 125 538 145 553 170 L 553 273 L 375 273 L 375 372 Z" unicode="G" />
<glyph horiz-adv-x="690" d="M 608 0 L 498 0 L 498 308 L 191 308 L 191 0 L 81 0 L 81 730 L 191 730 L 191 412 L 498 412 L 498 730 L 608 730 L 608 0 Z" unicode="H" />
<glyph horiz-adv-x="281" d="M 196 0 L 86 0 L 86 730 L 196 730 L 196 0 Z" unicode="I" />
<glyph horiz-adv-x="352" d="M 289 730 L 289 191 C 289 163 284 137 276 113 C 268 88 255 66 239 48 C 223 30 203 15 179 5 C 155 -5 127 -11 96 -11 C 80 -11 64 -10 49 -8 C 34 -6 22 -4 14 -2 L 14 97 C 20 94 31 92 46 91 C 60 89 73 89 83 89 C 115 89 140 99 158 119 C 176 139 185 165 185 195 L 185 730 L 289 730 Z" unicode="J" />
<glyph horiz-adv-x="632" d="M 635 0 L 498 0 L 253 315 L 191 241 L 191 0 L 81 0 L 81 730 L 191 730 L 191 376 L 472 730 L 601 730 L 327 392 L 635 0 Z" unicode="K" />
<glyph horiz-adv-x="455" d="M 448 0 L 81 0 L 81 730 L 191 730 L 191 99 L 448 99 L 448 0 Z" unicode="L" />
<glyph horiz-adv-x="831" d="M 750 0 L 645 0 L 645 499 L 435 151 L 394 151 L 186 495 L 186 0 L 81 0 L 81 730 L 156 730 L 417 308 L 677 730 L 750 730 L 750 0 Z" unicode="M" />
<glyph horiz-adv-x="697" d="M 616 0 L 540 0 L 186 511 L 186 0 L 81 0 L 81 730 L 162 730 L 513 223 L 513 730 L 616 730 L 616 0 Z" unicode="N" />
<glyph horiz-adv-x="750" d="M 378 -10 C 326 -10 279 -1 237 17 C 195 35 160 60 132 93 C 103 126 81 166 65 213 C 49 260 42 312 42 370 C 42 424 50 473 67 519 C 83 565 106 604 135 636 C 164 668 199 694 239 712 C 279 730 323 740 371 740 C 421 740 467 731 509 714 C 551 696 586 672 616 640 C 645 608 668 568 684 522 C 700 476 709 424 709 367 C 709 310 700 258 683 212 C 665 165 642 125 612 93 C 582 60 547 35 507 17 C 467 -1 424 -10 378 -10 Z M 377 91 C 408 91 437 97 464 109 C 491 121 514 139 534 163 C 553 186 568 215 579 250 C 590 285 596 325 596 371 C 596 454 575 519 533 567 C 491 614 438 638 374 638 C 308 638 255 615 215 569 C 175 523 155 455 155 366 C 155 320 160 280 172 246 C 183 211 198 182 218 160 C 238 137 261 120 289 108 C 316 96 345 91 377 91 Z" unicode="O" />
<glyph horiz-adv-x="548" d="M 81 0 L 81 730 L 309 730 C 371 730 422 711 463 673 C 503 635 524 582 524 515 C 524 482 518 452 508 424 C 498 396 483 372 465 352 C 446 332 423 316 397 305 C 371 293 342 288 310 288 L 191 288 L 191 0 L 81 0 Z M 191 387 L 287 387 C 327 387 358 398 380 421 C 402 443 414 475 414 515 C 414 553 401 582 375 602 C 349 621 317 631 281 631 L 191 631 L 191 387 Z" unicode="P" />
<glyph horiz-adv-x="743" d="M 640 -61 L 640 -165 C 580 -161 525 -144 475 -114 C 425 -84 388 -49 364 -7 C 314 -5 270 5 230 23 C 190 41 156 67 128 99 C 100 131 79 171 64 217 C 49 263 42 314 42 370 C 42 424 50 473 67 519 C 83 565 106 604 136 636 C 165 668 200 694 240 712 C 280 730 324 740 372 740 C 422 740 467 731 509 714 C 551 696 586 671 616 639 C 645 607 668 567 684 521 C 700 475 709 423 709 365 C 709 277 688 202 647 139 C 605 75 551 32 484 10 C 502 -10 526 -27 554 -40 C 582 -52 611 -59 640 -61 Z M 377 90 C 408 90 437 96 464 108 C 491 120 514 139 534 163 C 553 187 568 216 579 251 C 590 286 596 326 596 372 C 596 415 590 453 579 487 C 567 520 552 548 532 571 C 512 593 489 610 462 622 C 434 634 405 640 374 640 C 308 640 255 617 215 571 C 175 525 155 457 155 366 C 155 320 160 280 172 246 C 183 212 198 183 218 160 C 238 137 261 120 289 108 C 316 96 345 90 377 90 Z" unicode="Q" />
<glyph horiz-adv-x="575" d="M 81 0 L 81 730 L 286 730 C 345 730 394 712 433 678 C 472 643 492 594 492 530 C 492 468 477 419 448 384 C 418 348 385 328 347 323 L 344 320 L 558 0 L 435 0 L 238 296 L 188 296 L 188 0 L 81 0 Z M 188 391 L 265 391 C 299 391 328 401 350 423 C 372 445 384 475 384 514 C 384 550 372 578 350 599 C 328 620 300 631 267 631 L 188 631 L 188 391 Z" unicode="R" />
<glyph horiz-adv-x="473" d="M 245 -10 C 197 -10 155 -2 117 12 C 79 26 46 49 20 80 L 81 160 C 98 137 121 119 150 106 C 178 92 208 86 239 86 C 269 86 295 95 316 113 C 336 131 347 156 347 187 C 347 215 337 240 318 261 C 299 281 266 303 220 326 C 169 351 127 381 93 415 C 59 449 43 496 43 558 C 43 612 61 655 98 689 C 135 723 183 740 241 740 C 281 740 316 734 348 722 C 379 710 406 694 429 675 L 375 591 C 358 605 339 617 317 627 C 295 637 273 642 249 642 C 218 642 193 633 175 616 C 157 599 148 578 148 553 C 148 526 156 503 174 485 C 192 467 228 445 284 419 C 342 390 385 358 412 322 C 439 286 453 242 453 188 C 453 156 447 128 435 103 C 423 78 408 57 389 41 C 370 24 348 11 323 3 C 297 -5 271 -10 245 -10 Z" unicode="S" />
<glyph horiz-adv-x="487" d="M 478 631 L 297 631 L 297 0 L 187 0 L 187 631 L 9 631 L 9 730 L 478 730 L 478 631 Z" unicode="T" />
<glyph horiz-adv-x="673" d="M 599 730 L 599 251 C 599 209 592 171 578 139 C 564 106 545 79 521 57 C 497 35 468 18 436 7 C 404 -4 370 -10 334 -10 C 298 -10 265 -4 233 6 C 201 17 174 33 151 55 C 127 76 109 103 95 136 C 81 169 75 207 75 251 L 75 730 L 182 730 L 182 245 C 182 196 196 158 226 130 C 255 102 291 89 334 89 C 377 89 414 102 445 129 C 475 155 491 194 491 245 L 491 730 L 599 730 Z" unicode="U" />
<glyph horiz-adv-x="597" d="M 598 730 L 331 -5 L 262 -5 L 1 730 L 113 730 L 301 197 L 487 730 L 598 730 Z" unicode="V" />
<glyph horiz-adv-x="848" d="M 839 730 L 636 -6 L 573 -6 L 423 515 L 266 -6 L 203 -6 L 4 730 L 111 730 L 242 223 L 394 730 L 460 730 L 607 222 L 740 730 L 839 730 Z" unicode="W" />
<glyph horiz-adv-x="561" d="M 435 0 L 279 277 L 122 0 L 8 0 L 223 377 L 24 730 L 142 730 L 282 481 L 423 730 L 537 730 L 338 380 L 552 0 L 435 0 Z" unicode="X" />
<glyph horiz-adv-x="590" d="M 592 730 L 348 319 L 348 0 L 238 0 L 238 323 L -1 730 L 119 730 L 298 426 L 477 730 L 592 730 Z" unicode="Y" />
<glyph horiz-adv-x="538" d="M 503 730 L 503 681 L 162 99 L 515 99 L 515 0 L 15 0 L 15 47 L 355 630 L 44 630 L 44 730 L 503 730 Z" unicode="Z" />
<glyph horiz-adv-x="277" d="M 245 -179 L 63 -179 L 63 730 L 245 730 L 245 645 L 160 645 L 160 -93 L 245 -93 L 245 -179 Z" unicode="[" />
<glyph horiz-adv-x="322" d="M 2 730 L 93 730 L 320 0 L 228 0 L 2 730 Z" unicode="\" />
<glyph horiz-adv-x="278" d="M 215 -179 L 33 -179 L 33 -94 L 118 -94 L 118 645 L 33 645 L 33 730 L 215 730 L 215 -179 Z" unicode="]" />
<glyph horiz-adv-x="485" d="M 434 369 L 345 369 L 241 622 L 141 369 L 54 369 L 198 730 L 285 730 L 434 369 Z" unicode="^" />
<glyph horiz-adv-x="475" d="M 475 -167 L 0 -167 L 0 -78 L 475 -78 L 475 -167 Z" unicode="_" />
<glyph horiz-adv-x="500" d="M 353 497 L 252 497 L 135 663 L 254 663 L 353 497 Z" unicode="`" />
<glyph horiz-adv-x="443" d="M 394 0 L 300 0 L 300 53 C 287 36 269 21 247 9 C 225 -3 197 -10 165 -10 C 117 -10 80 3 55 29 C 30 55 18 89 18 131 C 18 177 35 213 69 239 C 103 264 149 278 209 281 L 296 286 L 296 299 C 296 321 289 337 275 349 C 261 360 239 366 211 366 C 184 366 160 361 139 353 C 118 344 102 335 92 327 L 54 395 C 69 408 91 420 120 431 C 148 441 184 447 227 447 C 274 447 314 435 346 411 C 378 387 394 350 394 300 L 394 0 Z M 298 117 L 298 210 L 219 206 C 188 205 163 198 144 186 C 125 174 116 157 116 135 C 116 115 123 100 137 90 C 151 80 169 75 190 75 C 214 75 236 79 256 89 C 275 98 289 107 298 117 Z" unicode="a" />
<glyph horiz-adv-x="500" d="M 291 -5 C 253 -5 222 2 198 17 C 174 31 157 48 149 68 L 149 0 L 53 0 L 53 752 L 152 752 L 152 368 C 158 385 174 402 198 420 C 222 437 254 446 292 446 C 347 446 391 425 425 385 C 458 344 475 292 475 229 C 475 193 470 160 460 131 C 450 102 437 78 421 58 C 404 38 384 22 362 11 C 339 0 315 -5 291 -5 Z M 260 71 C 293 71 319 84 339 110 C 359 136 369 173 369 220 C 369 263 359 298 341 324 C 322 350 295 364 259 364 C 229 364 204 351 183 327 C 161 302 151 264 151 214 C 151 164 162 128 184 105 C 206 82 231 71 260 71 Z" unicode="b" />
<glyph horiz-adv-x="424" d="M 341 138 L 419 89 C 405 64 384 41 356 21 C 328 1 288 -9 237 -9 C 204 -9 174 -3 148 8 C 122 19 100 35 82 55 C 64 75 50 99 40 127 C 30 155 25 185 25 218 C 25 250 30 280 41 308 C 51 336 66 360 85 380 C 104 400 127 416 154 428 C 180 440 210 446 242 446 C 289 446 327 436 357 416 C 387 396 408 375 422 351 L 338 299 C 328 315 316 329 301 340 C 285 351 265 357 241 357 C 208 357 181 343 161 317 C 141 291 131 258 131 218 C 131 174 141 140 162 115 C 183 89 210 77 244 77 C 271 77 292 83 307 97 C 321 111 333 124 341 138 Z" unicode="c" />
<glyph horiz-adv-x="502" d="M 216 -6 C 187 -6 161 0 138 11 C 114 22 94 37 78 57 C 61 76 48 99 39 125 C 30 151 26 180 26 210 C 26 245 31 277 41 306 C 51 335 64 360 82 381 C 100 401 120 417 144 429 C 168 440 193 446 220 446 C 254 446 282 439 304 425 C 326 411 342 395 351 378 L 351 752 L 449 752 L 449 0 L 355 0 L 355 69 C 347 50 331 33 309 17 C 286 1 255 -6 216 -6 Z M 245 73 C 275 73 301 86 322 113 C 343 139 354 176 354 222 C 354 270 342 305 320 328 C 297 351 270 363 240 363 C 207 363 181 350 161 324 C 141 298 131 263 131 219 C 131 177 140 142 160 114 C 180 86 208 73 245 73 Z" unicode="d" />
<glyph horiz-adv-x="464" d="M 248 -9 C 216 -9 186 -4 159 6 C 131 16 108 30 88 49 C 68 68 53 92 42 120 C 31 148 26 179 26 215 C 26 248 31 279 42 308 C 52 336 67 361 86 381 C 105 401 128 417 154 429 C 180 440 209 446 241 446 C 305 446 355 424 393 381 C 430 337 449 273 449 188 L 123 188 C 124 150 136 121 158 101 C 180 81 211 72 250 72 C 284 72 310 77 328 88 C 346 99 361 111 372 124 L 431 67 C 414 47 392 30 366 14 C 339 -1 300 -9 248 -9 Z M 127 265 L 351 265 C 349 293 339 316 320 336 C 301 355 275 365 242 365 C 208 365 181 355 161 336 C 141 316 129 293 127 265 Z" unicode="e" />
<glyph horiz-adv-x="279" d="M 272 347 L 186 347 L 186 0 L 86 0 L 86 347 L 16 347 L 16 436 L 86 436 L 86 594 C 86 621 90 645 98 666 C 106 686 116 703 130 717 C 143 730 158 740 175 747 C 192 753 210 757 228 757 C 240 757 252 756 264 754 C 275 752 284 749 291 747 L 281 653 C 277 654 273 655 267 657 C 261 658 254 659 246 659 C 230 659 216 652 204 639 C 192 625 186 606 186 582 L 186 436 L 272 436 L 272 347 Z" unicode="f" />
<glyph horiz-adv-x="501" d="M 218 -2 C 160 -2 114 18 79 59 C 43 99 26 152 26 217 C 26 286 44 341 81 383 C 118 425 164 446 219 446 C 251 446 279 438 303 424 C 327 409 343 393 353 376 L 353 436 L 448 436 L 448 26 C 448 -11 442 -43 431 -71 C 419 -99 404 -121 384 -139 C 364 -157 341 -170 315 -179 C 289 -187 261 -192 232 -192 C 188 -192 152 -187 126 -178 C 100 -168 80 -159 67 -150 L 102 -74 C 113 -82 129 -90 149 -98 C 169 -106 194 -110 224 -110 C 258 -110 288 -100 313 -80 C 337 -60 350 -31 350 9 L 350 69 C 342 50 326 33 302 19 C 278 5 250 -2 218 -2 Z M 244 72 C 275 72 301 85 322 112 C 343 138 354 175 354 221 C 354 265 342 301 320 327 C 297 353 269 366 237 366 C 206 366 181 352 161 326 C 141 300 131 264 131 219 C 131 175 140 140 160 113 C 180 85 208 72 244 72 Z" unicode="g" />
<glyph horiz-adv-x="489" d="M 440 0 L 339 0 L 339 278 C 339 305 331 326 316 341 C 300 355 279 363 253 363 C 227 363 204 354 184 338 C 164 321 154 295 154 261 L 154 0 L 53 0 L 53 752 L 149 752 L 149 362 C 157 385 173 405 197 422 C 221 438 252 447 292 447 C 336 447 371 434 399 409 C 426 384 440 348 440 302 L 440 0 Z" unicode="h" />
<glyph horiz-adv-x="217" d="M 56 525 L 56 628 L 161 628 L 161 525 L 56 525 Z M 58 0 L 58 436 L 159 436 L 159 0 L 58 0 Z" unicode="i" />
<glyph horiz-adv-x="209" d="M 158 525 L 53 525 L 53 628 L 158 628 L 158 525 Z M 156 436 L 156 -76 C 156 -110 145 -139 123 -164 C 101 -189 71 -202 33 -202 C 22 -202 10 -201 -2 -199 C -15 -197 -25 -195 -31 -193 L -23 -111 C -20 -111 -15 -112 -9 -113 C -3 -113 2 -114 8 -114 C 21 -114 32 -109 41 -100 C 50 -91 55 -78 55 -60 L 55 436 L 156 436 Z" unicode="j" />
<glyph horiz-adv-x="457" d="M 471 1 L 355 0 L 221 182 L 153 106 L 153 0 L 53 0 L 53 752 L 149 752 L 149 217 L 329 436 L 442 436 L 287 253 L 471 1 Z" unicode="k" />
<glyph horiz-adv-x="208" d="M 155 753 L 155 0 L 54 0 L 54 753 L 155 753 Z" unicode="l" />
<glyph horiz-adv-x="769" d="M 53 0 L 53 436 L 149 436 L 149 368 C 157 390 173 409 199 424 C 225 439 256 447 294 447 C 326 447 354 439 377 425 C 399 410 414 390 421 366 L 425 366 C 434 390 451 410 477 425 C 503 439 534 447 571 447 C 616 447 652 434 679 409 C 706 384 720 349 720 304 L 720 0 L 620 0 L 620 276 C 620 304 612 325 597 340 C 582 355 561 363 535 363 C 510 363 487 354 467 338 C 446 321 436 294 436 257 L 436 0 L 337 0 L 337 277 C 337 305 329 327 315 341 C 300 355 279 363 253 363 C 226 363 203 354 183 336 C 163 318 153 292 153 257 L 153 0 L 53 0 Z" unicode="m" />
<glyph horiz-adv-x="489" d="M 440 0 L 339 0 L 339 281 C 339 306 331 326 316 341 C 301 355 280 363 253 363 C 226 363 203 354 183 338 C 163 321 154 294 154 257 L 154 0 L 53 0 L 53 436 L 150 436 L 150 368 C 159 390 176 409 202 424 C 227 439 257 447 291 447 C 336 447 372 434 399 409 C 426 384 440 349 440 305 L 440 0 Z" unicode="n" />
<glyph horiz-adv-x="489" d="M 242 -9 C 214 -9 186 -3 160 6 C 134 16 111 31 91 50 C 71 69 55 93 43 121 C 31 149 25 181 25 217 C 25 249 30 280 42 308 C 53 336 68 360 88 380 C 107 400 130 416 156 428 C 182 440 209 446 239 446 C 269 446 298 440 326 430 C 354 420 378 405 398 387 C 418 368 434 345 446 318 C 458 291 464 261 464 229 C 464 194 458 162 447 133 C 435 103 420 78 400 57 C 380 36 357 20 330 8 C 302 -3 273 -9 242 -9 Z M 245 76 C 279 76 306 88 327 114 C 347 140 358 176 358 222 C 358 264 347 298 326 323 C 305 348 276 361 238 361 C 207 361 181 348 161 324 C 141 299 131 264 131 219 C 131 171 141 135 163 111 C 185 87 212 76 245 76 Z" unicode="o" />
<glyph horiz-adv-x="500" d="M 53 -200 L 53 436 L 148 436 L 148 363 C 156 383 173 401 199 419 C 225 436 256 445 294 445 C 347 445 390 425 424 385 C 458 345 475 293 475 229 C 475 191 469 158 459 129 C 448 100 434 76 417 56 C 399 36 379 20 357 10 C 335 0 312 -5 290 -5 C 256 -5 226 1 201 15 C 176 28 159 43 151 60 L 151 -200 L 53 -200 Z M 263 71 C 293 71 319 83 339 109 C 359 134 369 170 369 217 C 369 260 359 295 341 323 C 322 351 295 365 259 365 C 229 365 204 352 182 328 C 160 304 150 265 150 213 C 150 161 161 125 183 103 C 205 81 232 71 263 71 Z" unicode="p" />
<glyph horiz-adv-x="502" d="M 351 -200 L 351 67 C 341 47 325 30 302 16 C 278 1 250 -6 217 -6 C 188 -6 162 0 138 11 C 114 22 94 37 78 57 C 61 77 48 100 39 127 C 30 154 26 183 26 215 C 26 249 31 280 41 309 C 51 337 65 362 83 382 C 100 402 120 418 144 430 C 167 441 191 447 217 447 C 252 447 281 439 305 425 C 328 410 344 394 353 376 L 353 436 L 449 436 L 449 -200 L 351 -200 Z M 243 73 C 272 73 298 85 320 111 C 342 137 354 174 354 222 C 354 268 342 303 320 327 C 298 351 271 363 241 363 C 207 363 180 350 161 325 C 141 299 132 265 132 221 C 132 179 141 143 160 115 C 179 87 207 73 243 73 Z" unicode="q" />
<glyph horiz-adv-x="362" d="M 361 415 L 325 331 C 311 341 297 348 284 352 C 271 355 259 357 247 357 C 225 357 204 348 184 330 C 164 312 154 285 154 249 L 154 0 L 53 0 L 53 436 L 151 436 L 151 364 C 157 382 170 400 192 418 C 213 436 240 446 273 446 C 291 446 308 443 324 437 C 339 431 351 423 361 415 Z" unicode="r" />
<glyph horiz-adv-x="362" d="M 191 -10 C 153 -10 119 -4 91 6 C 62 16 39 31 21 49 L 71 118 C 85 104 102 94 123 86 C 144 78 166 74 189 74 C 206 74 220 78 231 86 C 242 94 248 106 248 121 C 248 135 240 146 225 156 C 210 165 187 175 157 186 C 119 198 88 215 66 236 C 43 256 32 285 32 321 C 32 357 46 386 75 410 C 103 434 139 446 181 446 C 212 446 240 441 266 431 C 291 421 311 411 326 399 L 276 333 C 266 340 252 347 236 353 C 219 359 201 363 183 363 C 167 363 153 360 141 355 C 129 349 123 340 123 328 C 123 317 128 308 138 301 C 148 293 171 283 205 271 C 247 255 279 237 303 217 C 326 197 338 167 338 127 C 338 84 323 50 295 26 C 267 2 232 -10 191 -10 Z" unicode="s" />
<glyph horiz-adv-x="253" d="M 239 85 L 245 4 C 242 1 236 -1 226 -3 C 216 -5 205 -6 191 -6 C 177 -6 162 -4 147 0 C 131 3 117 9 105 19 C 92 28 81 40 73 56 C 65 72 61 92 61 117 L 61 347 L 9 347 L 9 436 L 62 436 L 62 555 L 160 567 L 160 436 L 235 436 L 235 347 L 161 347 L 161 131 C 161 111 165 98 175 91 C 184 84 197 81 214 81 C 217 81 222 81 228 82 C 234 83 238 84 239 85 Z" unicode="t" />
<glyph horiz-adv-x="490" d="M 50 436 L 150 436 L 150 154 C 150 127 157 107 173 93 C 189 79 210 72 237 72 C 263 72 286 80 306 97 C 325 113 335 140 335 176 L 335 436 L 436 436 L 436 0 L 337 0 L 337 66 C 325 43 307 25 282 12 C 257 -1 228 -8 196 -8 C 154 -8 120 4 92 29 C 64 53 50 89 50 137 L 50 436 Z" unicode="u" />
<glyph horiz-adv-x="433" d="M 437 436 L 247 -3 L 181 -3 L -5 436 L 105 436 L 220 152 L 334 436 L 437 436 Z" unicode="v" />
<glyph horiz-adv-x="631" d="M 414 -3 L 316 260 L 216 -3 L 151 -3 L 4 436 L 107 436 L 195 149 L 289 403 L 350 403 L 443 149 L 534 436 L 627 436 L 478 -3 L 414 -3 Z" unicode="w" />
<glyph horiz-adv-x="405" d="M 288 0 L 199 141 L 108 0 L 3 0 L 147 224 L 14 436 L 127 436 L 204 312 L 284 436 L 390 436 L 256 229 L 400 0 L 288 0 Z" unicode="x" />
<glyph horiz-adv-x="437" d="M 438 436 L 210 -95 C 191 -137 168 -165 142 -179 C 115 -193 89 -200 63 -200 C 49 -200 36 -198 25 -195 C 14 -192 6 -189 0 -187 L 28 -98 C 30 -99 36 -101 44 -103 C 52 -105 60 -107 68 -107 C 80 -107 92 -102 102 -94 C 112 -86 123 -70 134 -48 L 170 39 L -4 436 L 105 436 L 221 152 L 336 436 L 438 436 Z" unicode="y" />
<glyph horiz-adv-x="369" d="M 354 436 L 354 388 L 157 89 L 358 89 L 358 0 L 10 0 L 10 32 L 217 347 L 23 347 L 23 436 L 354 436 Z" unicode="z" />
<glyph horiz-adv-x="309" d="M 278 -179 C 246 -179 216 -175 189 -167 C 161 -159 138 -148 119 -134 C 99 -120 84 -104 73 -86 C 61 -67 56 -47 56 -26 C 56 0 59 24 65 46 C 71 67 77 85 85 101 C 92 117 99 133 106 147 C 112 161 116 175 116 188 C 116 202 107 215 90 228 C 73 241 51 248 25 248 L 25 323 C 51 323 74 330 92 344 C 110 358 119 373 119 391 C 119 393 115 403 108 419 C 101 435 93 453 85 472 C 76 490 69 509 64 527 C 59 545 57 563 57 580 C 57 601 62 622 73 642 C 84 662 99 680 119 696 C 138 712 161 724 189 734 C 216 744 246 749 278 749 L 278 675 C 245 675 217 665 195 645 C 173 625 162 601 162 574 C 162 565 163 554 165 540 C 167 526 172 513 179 499 C 189 478 199 459 207 442 C 215 424 220 410 220 398 C 220 372 211 349 195 329 C 178 308 152 293 118 285 C 154 276 180 261 196 241 C 212 220 220 198 220 176 C 220 157 216 141 208 127 C 200 113 193 99 185 85 C 177 71 171 56 167 40 C 163 24 161 9 161 -4 C 161 -14 163 -26 169 -38 C 174 -50 182 -61 192 -71 C 202 -81 215 -89 229 -95 C 243 -101 260 -105 278 -105 L 278 -179 Z" unicode="{" />
<glyph horiz-adv-x="251" d="M 173 -179 L 77 -179 L 77 730 L 173 730 L 173 -179 Z" unicode="|" />
<glyph horiz-adv-x="309" d="M 31 -179 L 31 -105 C 49 -105 65 -101 79 -95 C 93 -89 106 -81 116 -71 C 126 -61 134 -50 140 -38 C 145 -26 148 -14 148 -4 C 148 9 146 24 142 40 C 138 56 132 71 124 85 C 116 99 108 113 100 127 C 92 141 89 157 89 176 C 89 198 97 220 113 241 C 129 261 154 276 190 285 C 156 293 130 308 114 329 C 97 349 89 372 89 398 C 89 410 93 424 101 442 C 109 459 119 478 130 499 C 136 513 141 526 144 540 C 146 554 148 565 148 574 C 148 601 136 625 114 645 C 92 665 64 675 31 675 L 31 749 C 63 749 92 744 120 734 C 147 724 170 712 190 696 C 209 680 224 662 235 642 C 246 622 252 601 252 580 C 252 563 249 545 245 527 C 240 509 233 490 225 472 C 216 453 208 435 201 419 C 193 403 190 393 190 391 C 190 373 199 358 217 344 C 235 330 257 323 284 323 L 284 248 C 257 248 235 241 218 228 C 201 215 193 202 193 188 C 193 175 196 161 203 147 C 210 133 217 117 225 101 C 232 85 238 67 244 46 C 250 24 253 0 253 -26 C 253 -47 247 -67 236 -86 C 224 -104 209 -120 190 -134 C 170 -148 147 -159 120 -167 C 92 -175 63 -179 31 -179 Z" unicode="}" />
<glyph horiz-adv-x="484" d="M 372 443 L 456 443 C 455 386 446 343 428 313 C 410 283 383 269 347 269 C 323 269 303 273 287 282 C 270 291 255 301 243 312 C 229 322 216 332 204 340 C 191 348 177 353 163 353 C 149 353 136 345 126 331 C 116 316 111 296 111 272 L 29 272 C 29 330 38 373 57 403 C 76 432 101 447 132 447 C 158 447 180 442 199 433 C 217 423 235 412 252 400 C 264 390 277 381 289 373 C 301 365 315 361 331 361 C 349 361 360 368 365 382 C 369 396 372 416 372 443 Z" unicode="~" />
<glyph horiz-adv-x="292" d="M 93 579 L 201 579 L 201 460 L 93 460 L 93 579 Z M 87 150 L 122 369 L 173 369 L 205 150 L 205 -132 L 87 -132 L 87 150 Z" unicode="¡" />
<glyph horiz-adv-x="502" d="M 489 167 C 473 145 451 124 425 104 C 399 83 363 70 317 66 L 317 -44 L 241 -44 L 241 67 C 180 75 131 103 94 149 C 56 195 38 252 38 320 C 38 352 42 383 52 413 C 62 442 75 468 93 490 C 111 512 132 531 157 547 C 182 562 210 572 241 577 L 241 682 L 317 682 L 317 579 C 361 574 398 561 427 539 C 455 517 476 493 489 468 L 415 420 C 404 436 391 451 375 464 C 359 477 340 486 317 490 L 317 151 C 345 154 368 163 385 178 C 401 193 415 208 425 223 L 489 167 Z M 140 322 C 140 280 149 244 167 216 C 185 187 210 167 241 157 L 241 486 C 209 476 185 456 167 426 C 149 396 140 362 140 322 Z" unicode="¢" />
<glyph horiz-adv-x="549" d="M 537 92 L 537 0 L 15 0 L 15 70 C 21 73 30 76 44 79 C 57 81 76 85 101 90 C 127 94 150 105 169 122 C 188 138 198 161 198 190 C 198 192 197 195 197 199 C 197 203 196 206 196 209 L 31 209 L 31 286 L 161 286 C 156 294 151 303 145 313 C 139 322 134 331 129 341 L 31 341 L 31 418 L 90 418 C 82 436 76 456 71 478 C 66 499 64 521 64 545 C 64 581 70 612 84 638 C 97 663 115 683 137 699 C 159 714 184 725 214 732 C 243 738 273 742 305 742 C 355 742 401 733 445 716 C 488 699 519 683 538 667 L 481 579 C 464 591 440 606 409 622 C 377 638 344 646 308 646 C 291 646 274 644 258 640 C 242 636 227 629 215 620 C 202 610 192 598 184 583 C 176 567 173 548 173 526 C 173 507 176 489 182 471 C 188 453 195 435 204 418 L 466 418 L 466 341 L 247 341 C 252 331 257 322 262 313 C 267 303 271 294 275 286 L 466 286 L 466 209 L 289 209 C 286 175 276 148 259 130 C 241 111 223 98 205 92 L 537 92 Z" unicode="£" />
<glyph horiz-adv-x="502" d="M 442 194 L 396 148 L 341 206 C 327 199 313 193 298 189 C 282 185 266 183 250 183 C 233 183 217 185 202 189 C 187 193 173 198 160 206 L 104 148 L 56 196 L 108 250 C 97 264 88 280 82 298 C 75 316 72 334 72 354 C 72 374 75 392 82 410 C 88 428 97 444 109 459 L 56 513 L 102 559 L 159 501 C 171 508 185 514 201 518 C 217 522 233 525 250 525 C 266 525 283 522 299 518 C 315 514 329 508 343 500 L 401 560 L 447 513 L 393 457 C 403 442 412 426 418 409 C 424 391 428 373 428 354 C 428 334 424 315 418 297 C 411 279 402 262 390 248 L 442 194 Z M 250 257 C 278 257 302 266 322 286 C 342 306 353 328 353 354 C 353 380 342 402 322 422 C 302 441 278 451 250 451 C 221 451 197 441 177 422 C 157 402 148 380 148 354 C 148 328 157 306 177 286 C 197 266 221 257 250 257 Z" unicode="¤" />
<glyph horiz-adv-x="599" d="M 527 127 L 349 127 L 349 0 L 239 0 L 239 127 L 69 127 L 69 207 L 239 207 L 239 256 L 69 256 L 69 336 L 238 336 L 23 730 L 143 730 L 299 434 L 456 730 L 570 730 L 352 336 L 527 336 L 527 256 L 349 256 L 349 207 L 527 207 L 527 127 Z" unicode="¥" />
<glyph horiz-adv-x="275" d="M 94 351 L 94 730 L 182 730 L 182 351 L 94 351 Z M 182 200 L 182 -179 L 94 -179 L 94 200 L 182 200 Z" unicode="¦" />
<glyph horiz-adv-x="631" d="M 333 -181 C 277 -181 226 -174 178 -161 C 130 -147 89 -129 57 -107 L 98 -22 C 128 -43 165 -61 207 -75 C 249 -89 289 -97 325 -97 C 357 -97 384 -89 406 -73 C 427 -57 438 -34 438 -6 C 438 20 429 39 411 53 C 393 67 368 80 338 94 L 227 143 C 197 155 170 167 147 178 C 124 189 105 201 90 214 C 74 227 63 242 55 260 C 47 277 44 298 44 323 C 44 353 51 379 66 399 C 81 419 99 437 121 451 C 102 463 88 479 80 499 C 71 519 67 543 67 573 C 67 599 73 623 85 644 C 97 665 114 683 135 697 C 156 711 181 722 211 730 C 240 738 272 742 306 742 C 366 742 415 733 453 717 C 491 700 523 682 549 664 L 502 586 C 473 606 443 623 412 639 C 381 654 345 662 303 662 C 266 662 235 654 211 638 C 186 622 174 600 174 573 C 174 553 181 536 196 523 C 210 509 232 497 261 486 L 408 425 C 465 403 508 380 538 355 C 568 330 583 295 583 250 C 583 214 571 186 548 165 C 524 143 498 130 470 125 C 486 115 503 100 521 78 C 539 56 548 28 548 -6 C 548 -33 542 -57 531 -79 C 520 -101 505 -119 486 -134 C 467 -149 444 -161 418 -169 C 392 -177 363 -181 333 -181 Z M 397 174 C 416 176 434 182 452 193 C 469 203 478 220 478 243 C 478 264 467 282 447 298 C 427 313 393 330 346 349 L 208 407 C 191 399 176 390 164 379 C 152 368 146 352 146 332 C 146 307 156 288 177 274 C 198 260 232 243 280 224 L 397 174 Z" unicode="§" />
<glyph horiz-adv-x="500" d="M 381 498 L 296 498 L 296 657 L 381 657 L 381 498 Z M 204 498 L 119 498 L 119 657 L 204 657 L 204 498 Z" unicode="¨" />
<glyph horiz-adv-x="827" d="M 413 6 C 362 6 314 15 270 35 C 225 54 186 80 153 114 C 119 147 93 186 74 231 C 54 275 45 323 45 374 C 45 424 54 472 74 517 C 93 561 119 600 153 634 C 186 667 225 693 270 713 C 314 732 362 742 413 742 C 463 742 511 732 556 713 C 601 693 640 667 674 634 C 707 600 733 561 753 517 C 772 472 782 424 782 374 C 782 323 772 275 753 231 C 733 186 707 147 674 114 C 640 80 601 54 556 35 C 511 15 463 6 413 6 Z M 413 73 C 453 73 492 81 528 97 C 564 113 596 134 623 161 C 650 188 671 220 687 257 C 703 293 711 332 711 373 C 711 414 703 453 687 490 C 671 526 650 558 623 585 C 596 612 564 634 528 650 C 492 666 453 674 413 674 C 371 674 332 666 296 650 C 260 634 228 612 202 585 C 175 558 154 526 138 490 C 122 453 115 414 115 373 C 115 332 122 293 138 257 C 154 220 175 188 202 161 C 228 134 260 113 296 97 C 332 81 371 73 413 73 Z M 585 247 C 569 222 546 201 518 185 C 489 168 454 160 412 160 C 386 160 360 164 336 174 C 312 183 290 197 272 215 C 253 233 238 255 227 282 C 215 309 210 340 210 376 C 210 410 215 441 225 469 C 235 497 249 520 267 540 C 285 559 306 574 330 584 C 354 594 380 600 408 600 C 452 600 487 592 515 577 C 543 562 564 543 580 519 L 508 466 C 498 480 485 491 470 501 C 455 510 435 515 411 515 C 379 515 353 501 333 474 C 312 447 302 413 302 373 C 302 331 313 298 336 274 C 358 250 384 239 413 239 C 435 239 455 244 472 254 C 489 264 503 278 514 294 L 585 247 Z" unicode="©" />
<glyph horiz-adv-x="432" d="M 391 336 L 309 336 L 309 390 C 295 371 276 356 251 346 C 226 336 199 331 170 331 C 128 331 95 342 71 364 C 47 386 35 416 35 455 C 35 497 52 530 86 553 C 120 575 166 588 224 591 L 304 597 L 304 602 C 304 620 296 635 282 645 C 267 655 246 660 219 660 C 196 660 174 656 152 648 C 130 640 111 630 95 619 L 60 688 C 80 703 105 716 135 727 C 165 737 198 743 236 743 C 284 743 321 731 349 709 C 377 687 391 651 391 602 L 391 336 Z M 307 451 L 307 528 L 219 523 C 190 521 167 516 150 508 C 132 499 124 483 124 461 C 124 444 131 431 145 421 C 159 411 178 406 202 406 C 222 406 242 410 262 418 C 281 426 296 437 307 451 Z M 401 213 L 42 213 L 42 296 L 401 296 L 401 213 Z" unicode="ª" />
<glyph horiz-adv-x="456" d="M 213 70 L 27 239 L 27 310 L 213 477 L 213 372 L 115 272 L 213 178 L 213 70 Z M 427 70 L 240 239 L 240 310 L 427 477 L 427 372 L 330 272 L 427 179 L 427 70 Z" unicode="«" />
<glyph horiz-adv-x="500" d="M 452 392 L 452 130 L 366 130 L 366 303 L 30 303 L 30 392 L 452 392 Z" unicode="¬" />
<glyph horiz-adv-x="827" d="M 413 6 C 362 6 314 15 270 35 C 225 54 186 80 153 114 C 119 147 93 186 74 231 C 54 275 45 323 45 374 C 45 424 54 472 74 517 C 93 561 119 600 153 634 C 186 667 225 693 270 713 C 314 732 362 742 413 742 C 463 742 511 732 556 713 C 601 693 640 667 674 634 C 707 600 733 561 753 517 C 772 472 782 424 782 374 C 782 323 772 275 753 231 C 733 186 707 147 674 114 C 640 80 601 54 556 35 C 511 15 463 6 413 6 Z M 413 73 C 453 73 492 80 528 96 C 564 111 596 132 623 159 C 650 186 671 218 687 255 C 703 291 711 331 711 373 C 711 415 703 454 687 491 C 671 528 650 560 623 587 C 596 614 564 635 528 651 C 492 666 453 674 413 674 C 371 674 332 666 296 650 C 260 634 228 613 202 586 C 175 559 154 527 138 491 C 122 454 115 415 115 373 C 115 331 122 292 138 256 C 154 219 175 187 202 160 C 228 133 260 112 296 96 C 332 80 371 73 413 73 Z M 274 167 L 274 601 L 433 601 C 450 601 468 598 486 594 C 504 589 520 582 534 572 C 548 562 559 549 568 534 C 576 518 581 500 581 480 C 581 441 570 412 550 394 C 529 376 508 365 487 362 L 486 358 L 613 167 L 517 167 L 414 331 L 359 331 L 359 167 L 274 167 Z M 359 403 L 435 403 C 451 403 465 408 478 419 C 490 430 497 447 498 469 C 498 491 491 506 477 514 C 463 522 446 526 426 526 L 359 526 L 359 403 Z" unicode="®" />
<glyph horiz-adv-x="500" d="M 380 520 L 120 520 L 120 595 L 380 595 L 380 520 Z" unicode="¯" />
<glyph horiz-adv-x="431" d="M 215 371 C 189 371 165 375 143 385 C 120 395 100 408 84 425 C 67 441 54 461 44 484 C 34 507 30 531 30 557 C 30 582 34 606 44 629 C 54 651 67 671 84 688 C 100 704 120 717 143 727 C 165 737 189 742 215 742 C 240 742 264 737 287 727 C 310 717 330 704 347 688 C 363 671 376 651 386 629 C 396 606 401 582 401 557 C 401 531 396 507 386 484 C 376 461 363 441 347 425 C 330 408 310 395 287 385 C 264 375 240 371 215 371 Z M 215 451 C 243 451 268 461 290 482 C 311 503 322 528 322 557 C 322 585 311 610 290 631 C 268 652 243 663 215 663 C 186 663 161 652 140 631 C 119 610 109 585 109 557 C 109 528 119 503 140 482 C 161 461 186 451 215 451 Z" unicode="°" />
<glyph horiz-adv-x="500" d="M 476 292 L 294 292 L 294 111 L 207 111 L 207 292 L 24 292 L 24 370 L 207 370 L 207 551 L 294 551 L 294 370 L 476 370 L 476 292 Z M 471 23 L 31 23 L 31 97 L 471 97 L 471 23 Z" unicode="±" />
<glyph horiz-adv-x="345" d="M 310 372 L 27 372 L 27 405 L 182 563 C 188 569 193 576 199 585 C 205 594 208 605 208 618 C 208 630 203 641 195 651 C 186 661 173 666 156 666 C 135 666 121 659 113 647 C 105 635 101 620 101 604 L 22 604 C 22 642 34 674 59 701 C 84 727 120 741 166 741 C 210 741 243 730 265 710 C 287 690 298 665 298 637 C 298 610 293 588 284 570 C 274 552 264 538 254 528 L 171 445 L 310 445 L 310 372 Z" unicode="²" />
<glyph horiz-adv-x="346" d="M 227 569 C 254 564 275 553 291 537 C 307 520 315 500 315 477 C 315 465 312 452 308 439 C 303 425 295 413 283 402 C 271 391 255 382 235 375 C 215 367 191 364 161 364 C 119 364 86 369 63 379 C 39 389 21 399 9 409 L 58 459 C 68 452 82 446 98 440 C 114 434 133 432 156 432 C 185 432 205 437 217 448 C 229 459 235 473 235 490 C 235 507 227 518 212 524 C 197 529 179 532 159 532 L 86 532 L 86 595 L 153 595 C 172 595 188 598 200 605 C 212 611 218 621 218 634 C 218 646 212 655 202 661 C 192 667 176 671 156 671 C 138 671 121 667 105 660 C 89 653 76 645 68 637 L 20 685 C 33 699 51 712 73 724 C 95 736 127 742 168 742 C 208 742 240 733 264 717 C 288 700 300 678 300 651 C 300 629 292 611 278 597 C 263 583 246 573 227 569 Z" unicode="³" />
<glyph horiz-adv-x="500" d="M 148 497 L 246 663 L 366 663 L 248 497 L 148 497 Z" unicode="´" />
<glyph horiz-adv-x="562" d="M 66 -103 L 66 448 L 167 448 L 167 160 C 167 132 177 111 197 96 C 217 80 241 73 271 73 C 303 73 331 82 355 100 C 379 118 392 146 392 182 L 392 448 L 492 448 L 492 0 L 400 0 L 400 92 C 388 64 369 41 343 23 C 316 4 286 -5 253 -7 C 231 -7 212 -3 195 5 C 178 14 166 26 159 42 L 159 -103 L 66 -103 Z" unicode="µ" />
<glyph horiz-adv-x="644" d="M 584 -180 L 518 -179 L 518 650 L 417 650 L 417 -179 L 351 -179 L 351 263 L 253 263 C 223 263 194 269 166 281 C 138 293 113 310 92 331 C 71 352 54 377 41 405 C 28 433 22 462 22 493 C 22 526 28 557 40 586 C 52 615 68 640 90 661 C 112 682 138 699 169 711 C 200 723 234 730 272 730 L 584 730 L 584 -180 Z M 352 347 L 352 646 L 295 646 C 247 646 213 631 192 603 C 171 575 161 539 161 496 C 161 456 171 421 192 391 C 213 361 244 347 286 347 L 352 347 Z" unicode="¶" />
<glyph horiz-adv-x="260" d="M 182 266 L 79 266 L 79 401 L 182 401 L 182 266 Z" unicode="·" />
<glyph horiz-adv-x="500" d="M 256 -188 C 232 -188 207 -185 183 -179 C 158 -173 139 -165 126 -156 L 138 -111 C 147 -116 159 -121 175 -127 C 191 -132 207 -135 225 -135 C 238 -135 250 -132 260 -126 C 270 -120 276 -111 276 -101 C 276 -89 271 -81 262 -76 C 253 -71 244 -69 234 -69 C 226 -69 219 -69 214 -70 C 208 -71 202 -73 196 -76 L 181 -59 L 242 13 L 303 13 L 253 -48 C 286 -41 314 -44 336 -57 C 358 -69 370 -88 370 -112 C 370 -136 358 -155 335 -168 C 312 -181 286 -188 256 -188 Z" unicode="¸" />
<glyph horiz-adv-x="318" d="M 136 372 L 136 631 C 128 620 115 611 95 603 C 75 595 59 590 47 588 L 47 678 C 71 680 93 687 111 697 C 129 707 148 722 168 740 L 230 740 L 230 372 L 136 372 Z" unicode="¹" />
<glyph horiz-adv-x="436" d="M 214 330 C 189 330 165 334 142 343 C 118 352 98 365 80 383 C 62 400 48 421 38 447 C 27 472 22 501 22 534 C 22 562 27 589 37 614 C 47 639 61 661 79 680 C 97 698 117 713 141 724 C 165 735 190 741 216 741 C 243 741 269 736 293 727 C 317 717 338 704 356 687 C 374 669 388 648 398 624 C 408 600 414 573 414 543 C 414 512 408 483 398 457 C 387 431 373 408 355 390 C 337 371 315 356 291 346 C 267 335 241 330 214 330 Z M 215 412 C 247 412 274 424 294 448 C 314 472 324 503 324 541 C 324 575 314 604 295 627 C 276 649 250 661 217 661 C 186 661 161 649 141 625 C 121 601 112 570 112 532 C 112 496 121 467 141 445 C 160 423 185 412 215 412 Z M 38 213 L 38 296 L 396 296 L 396 213 L 38 213 Z" unicode="º" />
<glyph horiz-adv-x="456" d="M 29 477 L 216 307 L 216 237 L 29 70 L 29 174 L 127 274 L 29 368 L 29 477 Z M 243 477 L 429 307 L 429 237 L 243 70 L 243 174 L 341 274 L 243 368 L 243 477 Z" unicode="»" />
<glyph horiz-adv-x="703" d="M 12 0 L 12 0 Z M 101 372 L 101 631 C 93 620 80 611 60 603 C 40 595 24 590 12 588 L 12 678 C 36 680 58 687 76 697 C 94 707 113 722 133 740 L 195 740 L 195 372 L 101 372 Z M 579 730 L 218 0 L 130 0 L 491 730 L 579 730 Z M 389 81 L 389 142 L 573 365 L 631 365 L 631 146 L 691 146 L 691 81 L 631 81 L 631 1 L 548 1 L 548 81 L 389 81 Z M 462 137 L 550 137 L 550 245 L 462 137 Z" unicode="¼" />
<glyph horiz-adv-x="773" d="M 12 0 L 12 0 Z M 101 372 L 101 631 C 93 620 80 611 60 603 C 40 595 24 590 12 588 L 12 678 C 36 680 58 687 76 697 C 94 707 113 722 133 740 L 195 740 L 195 372 L 101 372 Z M 579 730 L 218 0 L 130 0 L 491 730 L 579 730 Z M 745 0 L 462 0 L 462 33 L 617 191 C 623 197 628 204 634 213 C 640 222 643 233 643 246 C 643 258 638 269 630 279 C 621 289 608 294 591 294 C 570 294 556 287 548 275 C 540 263 536 248 536 232 L 457 232 C 457 270 469 302 494 329 C 519 355 555 369 601 369 C 645 369 678 358 700 338 C 722 318 733 293 733 265 C 733 238 728 216 719 198 C 709 180 699 166 689 156 L 606 73 L 745 73 L 745 0 Z" unicode="½" />
<glyph horiz-adv-x="762" d="M 12 0 L 12 0 Z M 638 730 L 277 0 L 189 0 L 550 730 L 638 730 Z M 448 81 L 448 142 L 632 365 L 690 365 L 690 146 L 750 146 L 750 81 L 690 81 L 690 1 L 607 1 L 607 81 L 448 81 Z M 521 137 L 609 137 L 609 245 L 521 137 Z M 230 569 C 257 564 278 553 294 537 C 310 520 318 500 318 477 C 318 465 315 452 311 439 C 306 425 298 413 286 402 C 274 391 258 382 238 375 C 218 367 194 364 164 364 C 122 364 89 369 66 379 C 42 389 24 399 12 409 L 61 459 C 71 452 85 446 101 440 C 117 434 136 432 159 432 C 188 432 208 437 220 448 C 232 459 238 473 238 490 C 238 507 230 518 215 524 C 200 529 182 532 162 532 L 89 532 L 89 595 L 156 595 C 175 595 191 598 203 605 C 215 611 221 621 221 634 C 221 646 215 655 205 661 C 195 667 179 671 159 671 C 141 671 124 667 108 660 C 92 653 79 645 71 637 L 23 685 C 36 699 54 712 76 724 C 98 736 130 742 171 742 C 211 742 243 733 267 717 C 291 700 303 678 303 651 C 303 629 295 611 281 597 C 266 583 249 573 230 569 Z" unicode="¾" />
<glyph horiz-adv-x="459" d="M 190 467 L 190 579 L 304 579 L 304 467 L 190 467 Z M 230 -154 C 168 -154 117 -138 78 -108 C 38 -77 19 -34 19 22 C 19 48 22 71 30 91 C 38 111 47 128 59 144 C 71 160 83 174 97 187 C 111 199 124 211 137 222 C 162 242 178 265 186 292 C 193 318 197 345 198 372 L 299 372 C 299 326 293 289 283 262 C 273 234 253 208 223 182 C 199 161 177 140 157 119 C 137 97 127 69 127 35 C 127 3 138 -21 160 -39 C 182 -57 210 -66 244 -66 C 273 -66 300 -58 324 -44 C 348 -30 367 -13 382 7 L 447 -54 C 425 -82 395 -106 358 -125 C 320 -144 278 -154 230 -154 Z" unicode="¿" />
<glyph horiz-adv-x="603" d="M 1 0 L 1 0 Z M 601 0 L 490 0 L 426 177 L 171 177 L 109 0 L 1 0 L 269 733 L 337 733 L 601 0 Z M 397 270 L 299 539 L 201 270 L 397 270 Z M 300 791 L 300 791 Z M 409 791 L 308 791 L 191 957 L 310 957 L 409 791 Z" unicode="À" />
<glyph horiz-adv-x="603" d="M 1 0 L 1 0 Z M 601 0 L 490 0 L 426 177 L 171 177 L 109 0 L 1 0 L 269 733 L 337 733 L 601 0 Z M 397 270 L 299 539 L 201 270 L 397 270 Z M 300 791 L 300 791 Z M 192 791 L 290 957 L 410 957 L 292 791 L 192 791 Z" unicode="Á" />
<glyph horiz-adv-x="603" d="M 1 0 L 1 0 Z M 601 0 L 490 0 L 426 177 L 171 177 L 109 0 L 1 0 L 269 733 L 337 733 L 601 0 Z M 397 270 L 299 539 L 201 270 L 397 270 Z M 300 792 L 300 792 Z M 464 792 L 374 792 L 300 895 L 225 792 L 137 792 L 252 964 L 349 964 L 464 792 Z" unicode="Â" />
<glyph horiz-adv-x="603" d="M 1 0 L 1 0 Z M 601 0 L 490 0 L 426 177 L 171 177 L 109 0 L 1 0 L 269 733 L 337 733 L 601 0 Z M 397 270 L 299 539 L 201 270 L 397 270 Z M 300 798 L 300 798 Z M 385 938 L 460 938 C 460 890 453 854 439 832 C 425 809 408 798 387 798 C 368 798 352 801 338 808 C 324 814 313 821 305 827 C 296 832 287 837 279 843 C 270 849 261 852 253 852 C 244 852 237 847 231 838 C 225 828 222 816 222 801 L 147 801 C 147 848 155 883 173 907 C 191 930 210 942 231 942 C 247 942 261 938 273 932 C 285 925 296 918 307 911 C 315 905 323 899 331 893 C 339 887 347 884 355 884 C 362 884 369 888 375 898 C 381 908 385 921 385 938 Z" unicode="Ã" />
<glyph horiz-adv-x="603" d="M 1 0 L 1 0 Z M 601 0 L 490 0 L 426 177 L 171 177 L 109 0 L 1 0 L 269 733 L 337 733 L 601 0 Z M 397 270 L 299 539 L 201 270 L 397 270 Z M 300 792 L 300 792 Z M 431 792 L 346 792 L 346 951 L 431 951 L 431 792 Z M 254 792 L 169 792 L 169 951 L 254 951 L 254 792 Z" unicode="Ä" />
<glyph horiz-adv-x="603" d="M 1 0 L 1 0 Z M 601 0 L 490 0 L 426 177 L 171 177 L 109 0 L 1 0 L 269 733 L 337 733 L 601 0 Z M 397 270 L 299 539 L 201 270 L 397 270 Z M 300 788 L 300 788 Z M 300 788 C 268 788 241 799 219 821 C 197 843 186 871 186 903 C 186 935 197 962 219 984 C 241 1006 268 1017 300 1017 C 332 1017 360 1006 382 984 C 404 962 415 935 415 903 C 415 871 404 843 382 821 C 360 799 332 788 300 788 Z M 300 847 C 315 847 328 852 338 863 C 348 873 354 887 354 903 C 354 918 348 931 338 942 C 328 953 315 959 300 959 C 285 959 272 953 262 942 C 251 931 246 918 246 903 C 246 887 251 873 262 863 C 272 852 285 847 300 847 Z" unicode="Å" />
<glyph horiz-adv-x="899" d="M 862 0 L 460 0 L 460 226 L 228 226 L 97 0 L -15 0 L 405 730 L 843 730 L 843 634 L 565 634 L 565 409 L 830 409 L 830 312 L 565 312 L 565 96 L 862 96 L 862 0 Z M 460 314 L 460 637 L 277 314 L 460 314 Z" unicode="Æ" />
<glyph horiz-adv-x="633" d="M 42 0 L 42 0 Z M 363 -10 C 317 -10 275 -1 236 14 C 197 30 163 54 135 86 C 106 118 83 157 67 204 C 50 250 42 304 42 365 C 42 420 49 471 65 517 C 81 563 103 603 131 636 C 159 668 193 694 233 712 C 273 730 317 740 365 740 C 431 740 483 729 522 707 C 561 685 593 658 618 625 L 541 552 C 524 574 501 594 473 611 C 445 627 410 636 368 636 C 300 636 247 612 210 564 C 172 516 154 448 154 361 C 154 313 160 272 172 238 C 184 204 200 176 220 154 C 240 132 263 115 289 105 C 315 95 342 90 370 90 C 414 90 452 99 482 117 C 512 135 537 158 557 186 L 628 126 C 601 86 565 53 521 28 C 477 2 424 -10 363 -10 Z M 348 0 L 348 0 Z M 356 -188 C 332 -188 307 -185 283 -179 C 258 -173 239 -165 226 -156 L 238 -111 C 247 -116 259 -121 275 -127 C 291 -132 307 -135 325 -135 C 338 -135 350 -132 360 -126 C 370 -120 376 -111 376 -101 C 376 -89 371 -81 362 -76 C 353 -71 344 -69 334 -69 C 326 -69 319 -69 314 -70 C 308 -71 302 -73 296 -76 L 281 -59 L 342 13 L 403 13 L 353 -48 C 386 -41 414 -44 436 -57 C 458 -69 470 -88 470 -112 C 470 -136 458 -155 435 -168 C 412 -181 386 -188 356 -188 Z" unicode="Ç" />
<glyph horiz-adv-x="523" d="M 81 0 L 81 0 Z M 487 0 L 81 0 L 81 730 L 468 730 L 468 631 L 190 631 L 190 411 L 454 411 L 454 312 L 190 312 L 190 99 L 487 99 L 487 0 Z M 275 791 L 275 791 Z M 384 791 L 283 791 L 166 957 L 285 957 L 384 791 Z" unicode="È" />
<glyph horiz-adv-x="523" d="M 81 0 L 81 0 Z M 487 0 L 81 0 L 81 730 L 468 730 L 468 631 L 190 631 L 190 411 L 454 411 L 454 312 L 190 312 L 190 99 L 487 99 L 487 0 Z M 275 791 L 275 791 Z M 167 791 L 265 957 L 385 957 L 267 791 L 167 791 Z" unicode="É" />
<glyph horiz-adv-x="523" d="M 81 0 L 81 0 Z M 487 0 L 81 0 L 81 730 L 468 730 L 468 631 L 190 631 L 190 411 L 454 411 L 454 312 L 190 312 L 190 99 L 487 99 L 487 0 Z M 275 792 L 275 792 Z M 439 792 L 349 792 L 275 895 L 200 792 L 112 792 L 227 964 L 324 964 L 439 792 Z" unicode="Ê" />
<glyph horiz-adv-x="523" d="M 81 0 L 81 0 Z M 487 0 L 81 0 L 81 730 L 468 730 L 468 631 L 190 631 L 190 411 L 454 411 L 454 312 L 190 312 L 190 99 L 487 99 L 487 0 Z M 275 792 L 275 792 Z M 406 792 L 321 792 L 321 951 L 406 951 L 406 792 Z M 229 792 L 144 792 L 144 951 L 229 951 L 229 792 Z" unicode="Ë" />
<glyph horiz-adv-x="281" d="M 32 0 L 32 0 Z M 196 0 L 86 0 L 86 730 L 196 730 L 196 0 Z M 141 791 L 141 791 Z M 250 791 L 149 791 L 32 957 L 151 957 L 250 791 Z" unicode="Ì" />
<glyph horiz-adv-x="281" d="M 33 0 L 33 0 Z M 196 0 L 86 0 L 86 730 L 196 730 L 196 0 Z M 141 791 L 141 791 Z M 33 791 L 131 957 L 251 957 L 133 791 L 33 791 Z" unicode="Í" />
<glyph horiz-adv-x="281" d="M 0 0 L 0 0 Z M 196 0 L 86 0 L 86 730 L 196 730 L 196 0 Z M 141 792 L 141 792 Z M 305 792 L 215 792 L 141 895 L 66 792 L -22 792 L 93 964 L 190 964 L 305 792 Z" unicode="Î" />
<glyph horiz-adv-x="281" d="M 10 0 L 10 0 Z M 196 0 L 86 0 L 86 730 L 196 730 L 196 0 Z M 141 792 L 141 792 Z M 272 792 L 187 792 L 187 951 L 272 951 L 272 792 Z M 95 792 L 10 792 L 10 951 L 95 951 L 95 792 Z" unicode="Ï" />
<glyph horiz-adv-x="681" d="M 639 365 C 639 314 631 266 616 222 C 600 178 577 139 547 106 C 517 73 479 47 433 28 C 387 9 335 0 275 0 L 81 0 L 81 315 L 29 315 L 29 403 L 81 403 L 81 730 L 288 730 C 344 730 395 721 439 704 C 483 686 519 662 549 630 C 578 598 600 560 616 515 C 631 470 639 420 639 365 Z M 191 93 L 273 93 C 318 93 357 100 389 114 C 421 128 447 148 467 173 C 487 197 502 226 512 259 C 521 291 526 326 526 363 C 526 450 505 517 463 564 C 421 611 363 635 289 635 L 191 635 L 191 403 L 354 403 L 354 315 L 191 315 L 191 93 Z" unicode="Ð" />
<glyph horiz-adv-x="697" d="M 81 0 L 81 0 Z M 616 0 L 540 0 L 186 511 L 186 0 L 81 0 L 81 730 L 162 730 L 513 223 L 513 730 L 616 730 L 616 0 Z M 350 798 L 350 798 Z M 435 938 L 510 938 C 510 890 503 854 489 832 C 475 809 458 798 437 798 C 418 798 402 801 388 808 C 374 814 363 821 355 827 C 346 832 337 837 329 843 C 320 849 311 852 303 852 C 294 852 287 847 281 838 C 275 828 272 816 272 801 L 197 801 C 197 848 205 883 223 907 C 241 930 260 942 281 942 C 297 942 311 938 323 932 C 335 925 346 918 357 911 C 365 905 373 899 381 893 C 389 887 397 884 405 884 C 412 884 419 888 425 898 C 431 908 435 921 435 938 Z" unicode="Ñ" />
<glyph horiz-adv-x="750" d="M 42 0 L 42 0 Z M 378 -10 C 326 -10 279 -1 237 17 C 195 35 160 60 132 93 C 103 126 81 166 65 213 C 49 260 42 312 42 370 C 42 424 50 473 67 519 C 83 565 106 604 135 636 C 164 668 199 694 239 712 C 279 730 323 740 371 740 C 421 740 467 731 509 714 C 551 696 586 672 616 640 C 645 608 668 568 684 522 C 700 476 709 424 709 367 C 709 310 700 258 683 212 C 665 165 642 125 612 93 C 582 60 547 35 507 17 C 467 -1 424 -10 378 -10 Z M 377 91 C 408 91 437 97 464 109 C 491 121 514 139 534 163 C 553 186 568 215 579 250 C 590 285 596 325 596 371 C 596 454 575 519 533 567 C 491 614 438 638 374 638 C 308 638 255 615 215 569 C 175 523 155 455 155 366 C 155 320 160 280 172 246 C 183 211 198 182 218 160 C 238 137 261 120 289 108 C 316 96 345 91 377 91 Z M 372 791 L 372 791 Z M 481 791 L 380 791 L 263 957 L 382 957 L 481 791 Z" unicode="Ò" />
<glyph horiz-adv-x="750" d="M 42 0 L 42 0 Z M 378 -10 C 326 -10 279 -1 237 17 C 195 35 160 60 132 93 C 103 126 81 166 65 213 C 49 260 42 312 42 370 C 42 424 50 473 67 519 C 83 565 106 604 135 636 C 164 668 199 694 239 712 C 279 730 323 740 371 740 C 421 740 467 731 509 714 C 551 696 586 672 616 640 C 645 608 668 568 684 522 C 700 476 709 424 709 367 C 709 310 700 258 683 212 C 665 165 642 125 612 93 C 582 60 547 35 507 17 C 467 -1 424 -10 378 -10 Z M 377 91 C 408 91 437 97 464 109 C 491 121 514 139 534 163 C 553 186 568 215 579 250 C 590 285 596 325 596 371 C 596 454 575 519 533 567 C 491 614 438 638 374 638 C 308 638 255 615 215 569 C 175 523 155 455 155 366 C 155 320 160 280 172 246 C 183 211 198 182 218 160 C 238 137 261 120 289 108 C 316 96 345 91 377 91 Z M 372 791 L 372 791 Z M 264 791 L 362 957 L 482 957 L 364 791 L 264 791 Z" unicode="Ó" />
<glyph horiz-adv-x="750" d="M 42 0 L 42 0 Z M 378 -10 C 326 -10 279 -1 237 17 C 195 35 160 60 132 93 C 103 126 81 166 65 213 C 49 260 42 312 42 370 C 42 424 50 473 67 519 C 83 565 106 604 135 636 C 164 668 199 694 239 712 C 279 730 323 740 371 740 C 421 740 467 731 509 714 C 551 696 586 672 616 640 C 645 608 668 568 684 522 C 700 476 709 424 709 367 C 709 310 700 258 683 212 C 665 165 642 125 612 93 C 582 60 547 35 507 17 C 467 -1 424 -10 378 -10 Z M 377 91 C 408 91 437 97 464 109 C 491 121 514 139 534 163 C 553 186 568 215 579 250 C 590 285 596 325 596 371 C 596 454 575 519 533 567 C 491 614 438 638 374 638 C 308 638 255 615 215 569 C 175 523 155 455 155 366 C 155 320 160 280 172 246 C 183 211 198 182 218 160 C 238 137 261 120 289 108 C 316 96 345 91 377 91 Z M 372 792 L 372 792 Z M 536 792 L 446 792 L 372 895 L 297 792 L 209 792 L 324 964 L 421 964 L 536 792 Z" unicode="Ô" />
<glyph horiz-adv-x="750" d="M 42 0 L 42 0 Z M 378 -10 C 326 -10 279 -1 237 17 C 195 35 160 60 132 93 C 103 126 81 166 65 213 C 49 260 42 312 42 370 C 42 424 50 473 67 519 C 83 565 106 604 135 636 C 164 668 199 694 239 712 C 279 730 323 740 371 740 C 421 740 467 731 509 714 C 551 696 586 672 616 640 C 645 608 668 568 684 522 C 700 476 709 424 709 367 C 709 310 700 258 683 212 C 665 165 642 125 612 93 C 582 60 547 35 507 17 C 467 -1 424 -10 378 -10 Z M 377 91 C 408 91 437 97 464 109 C 491 121 514 139 534 163 C 553 186 568 215 579 250 C 590 285 596 325 596 371 C 596 454 575 519 533 567 C 491 614 438 638 374 638 C 308 638 255 615 215 569 C 175 523 155 455 155 366 C 155 320 160 280 172 246 C 183 211 198 182 218 160 C 238 137 261 120 289 108 C 316 96 345 91 377 91 Z M 372 798 L 372 798 Z M 457 938 L 532 938 C 532 890 525 854 511 832 C 497 809 480 798 459 798 C 440 798 424 801 410 808 C 396 814 385 821 377 827 C 368 832 359 837 351 843 C 342 849 333 852 325 852 C 316 852 309 847 303 838 C 297 828 294 816 294 801 L 219 801 C 219 848 227 883 245 907 C 263 930 282 942 303 942 C 319 942 333 938 345 932 C 357 925 368 918 379 911 C 387 905 395 899 403 893 C 411 887 419 884 427 884 C 434 884 441 888 447 898 C 453 908 457 921 457 938 Z" unicode="Õ" />
<glyph horiz-adv-x="750" d="M 42 0 L 42 0 Z M 378 -10 C 326 -10 279 -1 237 17 C 195 35 160 60 132 93 C 103 126 81 166 65 213 C 49 260 42 312 42 370 C 42 424 50 473 67 519 C 83 565 106 604 135 636 C 164 668 199 694 239 712 C 279 730 323 740 371 740 C 421 740 467 731 509 714 C 551 696 586 672 616 640 C 645 608 668 568 684 522 C 700 476 709 424 709 367 C 709 310 700 258 683 212 C 665 165 642 125 612 93 C 582 60 547 35 507 17 C 467 -1 424 -10 378 -10 Z M 377 91 C 408 91 437 97 464 109 C 491 121 514 139 534 163 C 553 186 568 215 579 250 C 590 285 596 325 596 371 C 596 454 575 519 533 567 C 491 614 438 638 374 638 C 308 638 255 615 215 569 C 175 523 155 455 155 366 C 155 320 160 280 172 246 C 183 211 198 182 218 160 C 238 137 261 120 289 108 C 316 96 345 91 377 91 Z M 372 792 L 372 792 Z M 503 792 L 418 792 L 418 951 L 503 951 L 503 792 Z M 326 792 L 241 792 L 241 951 L 326 951 L 326 792 Z" unicode="Ö" />
<glyph horiz-adv-x="501" d="M 115 139 L 59 196 L 193 331 L 60 465 L 116 522 L 251 388 L 386 522 L 442 465 L 307 331 L 443 196 L 386 137 L 251 274 L 115 139 Z" unicode="×" />
<glyph horiz-adv-x="750" d="M 709 367 C 709 310 700 258 683 212 C 665 165 642 125 612 93 C 582 60 547 35 507 17 C 467 -1 424 -10 378 -10 C 332 -10 290 -3 252 11 C 214 25 181 45 153 72 L 89 -1 L 41 43 L 110 121 C 88 153 71 190 59 232 C 47 274 42 320 42 370 C 42 424 50 473 67 519 C 83 565 106 604 135 636 C 164 668 199 694 239 712 C 279 730 323 740 371 740 C 415 740 455 733 492 720 C 529 707 562 688 591 664 L 666 749 L 713 705 L 635 617 C 658 585 676 548 689 506 C 702 464 709 417 709 367 Z M 155 366 C 155 334 157 304 163 278 C 169 252 177 228 187 208 L 519 583 C 500 601 478 614 454 624 C 429 633 402 638 374 638 C 308 638 255 615 215 569 C 175 523 155 455 155 366 Z M 596 371 C 596 403 592 432 586 459 C 580 485 571 509 559 531 L 225 153 C 244 132 267 116 293 106 C 319 96 347 91 377 91 C 408 91 437 97 464 109 C 491 121 514 139 534 163 C 553 186 568 215 579 250 C 590 285 596 325 596 371 Z" unicode="Ø" />
<glyph horiz-adv-x="673" d="M 75 0 L 75 0 Z M 599 730 L 599 251 C 599 209 592 171 578 139 C 564 106 545 79 521 57 C 497 35 468 18 436 7 C 404 -4 370 -10 334 -10 C 298 -10 265 -4 233 6 C 201 17 174 33 151 55 C 127 76 109 103 95 136 C 81 169 75 207 75 251 L 75 730 L 182 730 L 182 245 C 182 196 196 158 226 130 C 255 102 291 89 334 89 C 377 89 414 102 445 129 C 475 155 491 194 491 245 L 491 730 L 599 730 Z M 335 791 L 335 791 Z M 444 791 L 343 791 L 226 957 L 345 957 L 444 791 Z" unicode="Ù" />
<glyph horiz-adv-x="673" d="M 75 0 L 75 0 Z M 599 730 L 599 251 C 599 209 592 171 578 139 C 564 106 545 79 521 57 C 497 35 468 18 436 7 C 404 -4 370 -10 334 -10 C 298 -10 265 -4 233 6 C 201 17 174 33 151 55 C 127 76 109 103 95 136 C 81 169 75 207 75 251 L 75 730 L 182 730 L 182 245 C 182 196 196 158 226 130 C 255 102 291 89 334 89 C 377 89 414 102 445 129 C 475 155 491 194 491 245 L 491 730 L 599 730 Z M 335 791 L 335 791 Z M 227 791 L 325 957 L 445 957 L 327 791 L 227 791 Z" unicode="Ú" />
<glyph horiz-adv-x="673" d="M 75 0 L 75 0 Z M 599 730 L 599 251 C 599 209 592 171 578 139 C 564 106 545 79 521 57 C 497 35 468 18 436 7 C 404 -4 370 -10 334 -10 C 298 -10 265 -4 233 6 C 201 17 174 33 151 55 C 127 76 109 103 95 136 C 81 169 75 207 75 251 L 75 730 L 182 730 L 182 245 C 182 196 196 158 226 130 C 255 102 291 89 334 89 C 377 89 414 102 445 129 C 475 155 491 194 491 245 L 491 730 L 599 730 Z M 335 792 L 335 792 Z M 499 792 L 409 792 L 335 895 L 260 792 L 172 792 L 287 964 L 384 964 L 499 792 Z" unicode="Û" />
<glyph horiz-adv-x="673" d="M 75 0 L 75 0 Z M 599 730 L 599 251 C 599 209 592 171 578 139 C 564 106 545 79 521 57 C 497 35 468 18 436 7 C 404 -4 370 -10 334 -10 C 298 -10 265 -4 233 6 C 201 17 174 33 151 55 C 127 76 109 103 95 136 C 81 169 75 207 75 251 L 75 730 L 182 730 L 182 245 C 182 196 196 158 226 130 C 255 102 291 89 334 89 C 377 89 414 102 445 129 C 475 155 491 194 491 245 L 491 730 L 599 730 Z M 335 792 L 335 792 Z M 466 792 L 381 792 L 381 951 L 466 951 L 466 792 Z M 289 792 L 204 792 L 204 951 L 289 951 L 289 792 Z" unicode="Ü" />
<glyph horiz-adv-x="590" d="M 0 0 L 0 0 Z M 592 730 L 348 319 L 348 0 L 238 0 L 238 323 L -1 730 L 119 730 L 298 426 L 477 730 L 592 730 Z M 296 791 L 296 791 Z M 188 791 L 286 957 L 406 957 L 288 791 L 188 791 Z" unicode="Ý" />
<glyph horiz-adv-x="550" d="M 81 0 L 81 730 L 191 730 L 191 598 L 304 598 C 371 598 425 578 465 538 C 505 498 526 445 526 379 C 526 311 505 257 463 215 C 421 173 368 152 304 152 L 191 152 L 191 0 L 81 0 Z M 190 246 L 293 246 C 331 246 361 257 384 281 C 406 305 418 338 418 380 C 418 420 405 450 379 471 C 353 492 323 503 287 503 L 190 503 L 190 246 Z" unicode="Þ" />
<glyph horiz-adv-x="587" d="M 413 -10 C 375 -10 343 -4 315 6 C 287 16 264 31 246 49 L 296 117 C 308 104 325 94 346 86 C 367 78 388 75 409 75 C 427 75 443 78 455 85 C 467 92 473 103 473 118 C 473 134 465 146 450 155 C 435 164 411 175 379 187 C 333 203 300 223 282 248 C 263 272 254 301 254 334 C 254 366 263 393 283 413 C 302 433 323 446 346 452 C 352 454 360 461 369 475 C 377 488 382 517 382 561 C 382 598 372 627 353 647 C 334 667 309 677 279 677 C 250 677 226 668 207 650 C 187 632 178 605 178 568 L 178 0 L 76 0 L 76 574 C 76 603 81 629 91 653 C 101 676 116 695 134 711 C 152 727 174 739 198 747 C 222 755 249 760 277 760 C 305 760 332 755 357 747 C 381 738 403 725 421 708 C 439 691 453 670 464 645 C 474 619 480 590 480 557 C 480 507 470 467 452 439 C 433 410 415 393 399 389 C 383 387 369 382 358 375 C 346 367 341 356 341 342 C 341 329 348 316 362 304 C 376 292 400 280 433 269 C 476 254 509 236 531 215 C 553 194 564 164 564 124 C 564 101 559 81 551 65 C 543 48 532 34 518 23 C 504 12 487 4 469 -1 C 451 -7 432 -10 413 -10 Z" unicode="ß" />
<glyph horiz-adv-x="443" d="M 18 0 L 18 0 Z M 394 0 L 300 0 L 300 53 C 287 36 269 21 247 9 C 225 -3 197 -10 165 -10 C 117 -10 80 3 55 29 C 30 55 18 89 18 131 C 18 177 35 213 69 239 C 103 264 149 278 209 281 L 296 286 L 296 299 C 296 321 289 337 275 349 C 261 360 239 366 211 366 C 184 366 160 361 139 353 C 118 344 102 335 92 327 L 54 395 C 69 408 91 420 120 431 C 148 441 184 447 227 447 C 274 447 314 435 346 411 C 378 387 394 350 394 300 L 394 0 Z M 298 117 L 298 210 L 219 206 C 188 205 163 198 144 186 C 125 174 116 157 116 135 C 116 115 123 100 137 90 C 151 80 169 75 190 75 C 214 75 236 79 256 89 C 275 98 289 107 298 117 Z M 215 497 L 215 497 Z M 324 497 L 223 497 L 106 663 L 225 663 L 324 497 Z" unicode="à" />
<glyph horiz-adv-x="443" d="M 18 0 L 18 0 Z M 394 0 L 300 0 L 300 53 C 287 36 269 21 247 9 C 225 -3 197 -10 165 -10 C 117 -10 80 3 55 29 C 30 55 18 89 18 131 C 18 177 35 213 69 239 C 103 264 149 278 209 281 L 296 286 L 296 299 C 296 321 289 337 275 349 C 261 360 239 366 211 366 C 184 366 160 361 139 353 C 118 344 102 335 92 327 L 54 395 C 69 408 91 420 120 431 C 148 441 184 447 227 447 C 274 447 314 435 346 411 C 378 387 394 350 394 300 L 394 0 Z M 298 117 L 298 210 L 219 206 C 188 205 163 198 144 186 C 125 174 116 157 116 135 C 116 115 123 100 137 90 C 151 80 169 75 190 75 C 214 75 236 79 256 89 C 275 98 289 107 298 117 Z M 215 497 L 215 497 Z M 107 497 L 205 663 L 325 663 L 207 497 L 107 497 Z" unicode="á" />
<glyph horiz-adv-x="443" d="M 18 0 L 18 0 Z M 394 0 L 300 0 L 300 53 C 287 36 269 21 247 9 C 225 -3 197 -10 165 -10 C 117 -10 80 3 55 29 C 30 55 18 89 18 131 C 18 177 35 213 69 239 C 103 264 149 278 209 281 L 296 286 L 296 299 C 296 321 289 337 275 349 C 261 360 239 366 211 366 C 184 366 160 361 139 353 C 118 344 102 335 92 327 L 54 395 C 69 408 91 420 120 431 C 148 441 184 447 227 447 C 274 447 314 435 346 411 C 378 387 394 350 394 300 L 394 0 Z M 298 117 L 298 210 L 219 206 C 188 205 163 198 144 186 C 125 174 116 157 116 135 C 116 115 123 100 137 90 C 151 80 169 75 190 75 C 214 75 236 79 256 89 C 275 98 289 107 298 117 Z M 215 498 L 215 498 Z M 379 498 L 289 498 L 215 601 L 140 498 L 52 498 L 167 670 L 264 670 L 379 498 Z" unicode="â" />
<glyph horiz-adv-x="443" d="M 18 0 L 18 0 Z M 394 0 L 300 0 L 300 53 C 287 36 269 21 247 9 C 225 -3 197 -10 165 -10 C 117 -10 80 3 55 29 C 30 55 18 89 18 131 C 18 177 35 213 69 239 C 103 264 149 278 209 281 L 296 286 L 296 299 C 296 321 289 337 275 349 C 261 360 239 366 211 366 C 184 366 160 361 139 353 C 118 344 102 335 92 327 L 54 395 C 69 408 91 420 120 431 C 148 441 184 447 227 447 C 274 447 314 435 346 411 C 378 387 394 350 394 300 L 394 0 Z M 298 117 L 298 210 L 219 206 C 188 205 163 198 144 186 C 125 174 116 157 116 135 C 116 115 123 100 137 90 C 151 80 169 75 190 75 C 214 75 236 79 256 89 C 275 98 289 107 298 117 Z M 215 504 L 215 504 Z M 300 644 L 375 644 C 375 596 368 560 354 538 C 340 515 323 504 302 504 C 283 504 267 507 253 514 C 239 520 228 527 220 533 C 211 538 202 543 194 549 C 185 555 176 558 168 558 C 159 558 152 553 146 544 C 140 534 137 522 137 507 L 62 507 C 62 554 70 589 88 613 C 106 636 125 648 146 648 C 162 648 176 644 188 638 C 200 631 211 624 222 617 C 230 611 238 605 246 599 C 254 593 262 590 270 590 C 277 590 284 594 290 604 C 296 614 300 627 300 644 Z" unicode="ã" />
<glyph horiz-adv-x="443" d="M 18 0 L 18 0 Z M 394 0 L 300 0 L 300 53 C 287 36 269 21 247 9 C 225 -3 197 -10 165 -10 C 117 -10 80 3 55 29 C 30 55 18 89 18 131 C 18 177 35 213 69 239 C 103 264 149 278 209 281 L 296 286 L 296 299 C 296 321 289 337 275 349 C 261 360 239 366 211 366 C 184 366 160 361 139 353 C 118 344 102 335 92 327 L 54 395 C 69 408 91 420 120 431 C 148 441 184 447 227 447 C 274 447 314 435 346 411 C 378 387 394 350 394 300 L 394 0 Z M 298 117 L 298 210 L 219 206 C 188 205 163 198 144 186 C 125 174 116 157 116 135 C 116 115 123 100 137 90 C 151 80 169 75 190 75 C 214 75 236 79 256 89 C 275 98 289 107 298 117 Z M 215 498 L 215 498 Z M 346 498 L 261 498 L 261 657 L 346 657 L 346 498 Z M 169 498 L 84 498 L 84 657 L 169 657 L 169 498 Z" unicode="ä" />
<glyph horiz-adv-x="443" d="M 18 0 L 18 0 Z M 394 0 L 300 0 L 300 53 C 287 36 269 21 247 9 C 225 -3 197 -10 165 -10 C 117 -10 80 3 55 29 C 30 55 18 89 18 131 C 18 177 35 213 69 239 C 103 264 149 278 209 281 L 296 286 L 296 299 C 296 321 289 337 275 349 C 261 360 239 366 211 366 C 184 366 160 361 139 353 C 118 344 102 335 92 327 L 54 395 C 69 408 91 420 120 431 C 148 441 184 447 227 447 C 274 447 314 435 346 411 C 378 387 394 350 394 300 L 394 0 Z M 298 117 L 298 210 L 219 206 C 188 205 163 198 144 186 C 125 174 116 157 116 135 C 116 115 123 100 137 90 C 151 80 169 75 190 75 C 214 75 236 79 256 89 C 275 98 289 107 298 117 Z M 215 494 L 215 494 Z M 215 494 C 183 494 156 505 134 527 C 112 549 101 577 101 609 C 101 641 112 668 134 690 C 156 712 183 723 215 723 C 247 723 275 712 297 690 C 319 668 330 641 330 609 C 330 577 319 549 297 527 C 275 505 247 494 215 494 Z M 215 553 C 230 553 243 558 253 569 C 263 579 269 593 269 609 C 269 624 263 637 253 648 C 243 659 230 665 215 665 C 200 665 187 659 177 648 C 166 637 161 624 161 609 C 161 593 166 579 177 569 C 187 558 200 553 215 553 Z" unicode="å" />
<glyph horiz-adv-x="735" d="M 521 -9 C 473 -9 434 0 406 17 C 378 35 358 55 346 78 C 333 55 311 35 280 17 C 249 -1 212 -10 168 -10 C 122 -10 86 2 59 28 C 31 53 18 87 18 130 C 18 176 35 212 69 238 C 103 264 150 278 210 281 L 304 286 L 304 297 C 304 321 295 338 277 349 C 259 360 236 366 210 366 C 183 366 159 361 138 353 C 116 344 101 335 91 327 L 54 395 C 70 409 93 421 123 431 C 152 441 184 446 218 446 C 254 446 285 439 311 425 C 337 411 355 395 364 377 C 374 395 392 411 418 425 C 444 439 478 446 520 446 C 582 446 630 422 666 376 C 701 330 719 267 719 188 L 400 188 C 402 149 413 120 433 101 C 453 81 482 72 520 72 C 554 72 579 77 597 87 C 614 97 629 109 643 124 L 702 67 C 683 45 660 26 632 12 C 604 -1 567 -9 521 -9 Z M 402 263 L 623 263 C 622 291 611 315 591 335 C 570 355 543 365 509 365 C 475 365 449 355 432 335 C 414 315 404 291 402 263 Z M 195 75 C 224 75 249 82 270 97 C 291 112 303 130 307 150 L 307 211 L 219 207 C 189 205 165 199 145 188 C 125 176 116 159 116 137 C 116 115 124 99 140 89 C 156 79 174 75 195 75 Z" unicode="æ" />
<glyph horiz-adv-x="424" d="M 25 0 L 25 0 Z M 341 138 L 419 89 C 405 64 384 41 356 21 C 328 1 288 -9 237 -9 C 204 -9 174 -3 148 8 C 122 19 100 35 82 55 C 64 75 50 99 40 127 C 30 155 25 185 25 218 C 25 250 30 280 41 308 C 51 336 66 360 85 380 C 104 400 127 416 154 428 C 180 440 210 446 242 446 C 289 446 327 436 357 416 C 387 396 408 375 422 351 L 338 299 C 328 315 316 329 301 340 C 285 351 265 357 241 357 C 208 357 181 343 161 317 C 141 291 131 258 131 218 C 131 174 141 140 162 115 C 183 89 210 77 244 77 C 271 77 292 83 307 97 C 321 111 333 124 341 138 Z M 228 0 L 228 0 Z M 236 -188 C 212 -188 187 -185 163 -179 C 138 -173 119 -165 106 -156 L 118 -111 C 127 -116 139 -121 155 -127 C 171 -132 187 -135 205 -135 C 218 -135 230 -132 240 -126 C 250 -120 256 -111 256 -101 C 256 -89 251 -81 242 -76 C 233 -71 224 -69 214 -69 C 206 -69 199 -69 194 -70 C 188 -71 182 -73 176 -76 L 161 -59 L 222 13 L 283 13 L 233 -48 C 266 -41 294 -44 316 -57 C 338 -69 350 -88 350 -112 C 350 -136 338 -155 315 -168 C 292 -181 266 -188 236 -188 Z" unicode="ç" />
<glyph horiz-adv-x="464" d="M 26 0 L 26 0 Z M 248 -9 C 216 -9 186 -4 159 6 C 131 16 108 30 88 49 C 68 68 53 92 42 120 C 31 148 26 179 26 215 C 26 248 31 279 42 308 C 52 336 67 361 86 381 C 105 401 128 417 154 429 C 180 440 209 446 241 446 C 305 446 355 424 393 381 C 430 337 449 273 449 188 L 123 188 C 124 150 136 121 158 101 C 180 81 211 72 250 72 C 284 72 310 77 328 88 C 346 99 361 111 372 124 L 431 67 C 414 47 392 30 366 14 C 339 -1 300 -9 248 -9 Z M 127 265 L 351 265 C 349 293 339 316 320 336 C 301 355 275 365 242 365 C 208 365 181 355 161 336 C 141 316 129 293 127 265 Z M 238 497 L 238 497 Z M 347 497 L 246 497 L 129 663 L 248 663 L 347 497 Z" unicode="è" />
<glyph horiz-adv-x="464" d="M 26 0 L 26 0 Z M 248 -9 C 216 -9 186 -4 159 6 C 131 16 108 30 88 49 C 68 68 53 92 42 120 C 31 148 26 179 26 215 C 26 248 31 279 42 308 C 52 336 67 361 86 381 C 105 401 128 417 154 429 C 180 440 209 446 241 446 C 305 446 355 424 393 381 C 430 337 449 273 449 188 L 123 188 C 124 150 136 121 158 101 C 180 81 211 72 250 72 C 284 72 310 77 328 88 C 346 99 361 111 372 124 L 431 67 C 414 47 392 30 366 14 C 339 -1 300 -9 248 -9 Z M 127 265 L 351 265 C 349 293 339 316 320 336 C 301 355 275 365 242 365 C 208 365 181 355 161 336 C 141 316 129 293 127 265 Z M 238 497 L 238 497 Z M 130 497 L 228 663 L 348 663 L 230 497 L 130 497 Z" unicode="é" />
<glyph horiz-adv-x="464" d="M 26 0 L 26 0 Z M 248 -9 C 216 -9 186 -4 159 6 C 131 16 108 30 88 49 C 68 68 53 92 42 120 C 31 148 26 179 26 215 C 26 248 31 279 42 308 C 52 336 67 361 86 381 C 105 401 128 417 154 429 C 180 440 209 446 241 446 C 305 446 355 424 393 381 C 430 337 449 273 449 188 L 123 188 C 124 150 136 121 158 101 C 180 81 211 72 250 72 C 284 72 310 77 328 88 C 346 99 361 111 372 124 L 431 67 C 414 47 392 30 366 14 C 339 -1 300 -9 248 -9 Z M 127 265 L 351 265 C 349 293 339 316 320 336 C 301 355 275 365 242 365 C 208 365 181 355 161 336 C 141 316 129 293 127 265 Z M 238 498 L 238 498 Z M 402 498 L 312 498 L 238 601 L 163 498 L 75 498 L 190 670 L 287 670 L 402 498 Z" unicode="ê" />
<glyph horiz-adv-x="464" d="M 26 0 L 26 0 Z M 248 -9 C 216 -9 186 -4 159 6 C 131 16 108 30 88 49 C 68 68 53 92 42 120 C 31 148 26 179 26 215 C 26 248 31 279 42 308 C 52 336 67 361 86 381 C 105 401 128 417 154 429 C 180 440 209 446 241 446 C 305 446 355 424 393 381 C 430 337 449 273 449 188 L 123 188 C 124 150 136 121 158 101 C 180 81 211 72 250 72 C 284 72 310 77 328 88 C 346 99 361 111 372 124 L 431 67 C 414 47 392 30 366 14 C 339 -1 300 -9 248 -9 Z M 127 265 L 351 265 C 349 293 339 316 320 336 C 301 355 275 365 242 365 C 208 365 181 355 161 336 C 141 316 129 293 127 265 Z M 238 498 L 238 498 Z M 369 498 L 284 498 L 284 657 L 369 657 L 369 498 Z M 192 498 L 107 498 L 107 657 L 192 657 L 192 498 Z" unicode="ë" />
<glyph horiz-adv-x="217" d="M 0 0 L 0 0 Z M 159 0 L 58 0 L 58 436 L 159 436 L 159 0 Z M 108 497 L 108 497 Z M 217 497 L 116 497 L -1 663 L 118 663 L 217 497 Z" unicode="ì" />
<glyph horiz-adv-x="217" d="M 0 0 L 0 0 Z M 159 0 L 58 0 L 58 436 L 159 436 L 159 0 Z M 108 497 L 108 497 Z M 0 497 L 98 663 L 218 663 L 100 497 L 0 497 Z" unicode="í" />
<glyph horiz-adv-x="217" d="M 0 0 L 0 0 Z M 159 0 L 58 0 L 58 436 L 159 436 L 159 0 Z M 108 498 L 108 498 Z M 272 498 L 182 498 L 108 601 L 33 498 L -55 498 L 60 670 L 157 670 L 272 498 Z" unicode="î" />
<glyph horiz-adv-x="217" d="M 0 0 L 0 0 Z M 159 0 L 58 0 L 58 436 L 159 436 L 159 0 Z M 108 498 L 108 498 Z M 239 498 L 154 498 L 154 657 L 239 657 L 239 498 Z M 62 498 L -23 498 L -23 657 L 62 657 L 62 498 Z" unicode="ï" />
<glyph horiz-adv-x="505" d="M 473 256 C 473 219 468 184 458 152 C 448 119 433 91 414 67 C 395 43 371 25 343 11 C 315 -3 283 -10 247 -10 C 215 -10 186 -4 159 6 C 132 16 109 31 89 51 C 69 71 54 95 43 124 C 31 152 26 184 26 220 C 26 254 32 284 44 312 C 56 340 71 363 91 383 C 111 403 133 418 159 429 C 185 439 211 445 239 445 C 269 445 297 439 321 427 C 345 415 363 402 374 390 C 369 425 359 459 345 492 C 331 524 315 554 297 581 L 180 546 L 155 616 L 248 643 C 230 662 214 678 198 692 C 182 706 169 716 159 723 L 243 762 C 257 752 272 739 290 724 C 307 709 324 691 342 669 L 420 692 L 443 624 L 385 607 C 409 566 430 517 447 459 C 464 401 473 333 473 256 Z M 245 76 C 283 76 313 89 335 115 C 357 141 368 175 368 218 C 368 263 357 298 336 323 C 315 347 286 360 249 360 C 214 360 185 346 163 320 C 140 294 129 260 129 219 C 129 174 140 139 162 114 C 184 88 211 76 245 76 Z" unicode="ð" />
<glyph horiz-adv-x="489" d="M 53 0 L 53 0 Z M 440 0 L 339 0 L 339 281 C 339 306 331 326 316 341 C 301 355 280 363 253 363 C 226 363 203 354 183 338 C 163 321 154 294 154 257 L 154 0 L 53 0 L 53 436 L 150 436 L 150 368 C 159 390 176 409 202 424 C 227 439 257 447 291 447 C 336 447 372 434 399 409 C 426 384 440 349 440 305 L 440 0 Z M 244 504 L 244 504 Z M 329 644 L 404 644 C 404 596 397 560 383 538 C 369 515 352 504 331 504 C 312 504 296 507 282 514 C 268 520 257 527 249 533 C 240 538 231 543 223 549 C 214 555 205 558 197 558 C 188 558 181 553 175 544 C 169 534 166 522 166 507 L 91 507 C 91 554 99 589 117 613 C 135 636 154 648 175 648 C 191 648 205 644 217 638 C 229 631 240 624 251 617 C 259 611 267 605 275 599 C 283 593 291 590 299 590 C 306 590 313 594 319 604 C 325 614 329 627 329 644 Z" unicode="ñ" />
<glyph horiz-adv-x="489" d="M 25 0 L 25 0 Z M 242 -9 C 214 -9 186 -3 160 6 C 134 16 111 31 91 50 C 71 69 55 93 43 121 C 31 149 25 181 25 217 C 25 249 30 280 42 308 C 53 336 68 360 88 380 C 107 400 130 416 156 428 C 182 440 209 446 239 446 C 269 446 298 440 326 430 C 354 420 378 405 398 387 C 418 368 434 345 446 318 C 458 291 464 261 464 229 C 464 194 458 162 447 133 C 435 103 420 78 400 57 C 380 36 357 20 330 8 C 302 -3 273 -9 242 -9 Z M 245 76 C 279 76 306 88 327 114 C 347 140 358 176 358 222 C 358 264 347 298 326 323 C 305 348 276 361 238 361 C 207 361 181 348 161 324 C 141 299 131 264 131 219 C 131 171 141 135 163 111 C 185 87 212 76 245 76 Z M 239 497 L 239 497 Z M 348 497 L 247 497 L 130 663 L 249 663 L 348 497 Z" unicode="ò" />
<glyph horiz-adv-x="489" d="M 25 0 L 25 0 Z M 242 -9 C 214 -9 186 -3 160 6 C 134 16 111 31 91 50 C 71 69 55 93 43 121 C 31 149 25 181 25 217 C 25 249 30 280 42 308 C 53 336 68 360 88 380 C 107 400 130 416 156 428 C 182 440 209 446 239 446 C 269 446 298 440 326 430 C 354 420 378 405 398 387 C 418 368 434 345 446 318 C 458 291 464 261 464 229 C 464 194 458 162 447 133 C 435 103 420 78 400 57 C 380 36 357 20 330 8 C 302 -3 273 -9 242 -9 Z M 245 76 C 279 76 306 88 327 114 C 347 140 358 176 358 222 C 358 264 347 298 326 323 C 305 348 276 361 238 361 C 207 361 181 348 161 324 C 141 299 131 264 131 219 C 131 171 141 135 163 111 C 185 87 212 76 245 76 Z M 239 497 L 239 497 Z M 131 497 L 229 663 L 349 663 L 231 497 L 131 497 Z" unicode="ó" />
<glyph horiz-adv-x="489" d="M 25 0 L 25 0 Z M 242 -9 C 214 -9 186 -3 160 6 C 134 16 111 31 91 50 C 71 69 55 93 43 121 C 31 149 25 181 25 217 C 25 249 30 280 42 308 C 53 336 68 360 88 380 C 107 400 130 416 156 428 C 182 440 209 446 239 446 C 269 446 298 440 326 430 C 354 420 378 405 398 387 C 418 368 434 345 446 318 C 458 291 464 261 464 229 C 464 194 458 162 447 133 C 435 103 420 78 400 57 C 380 36 357 20 330 8 C 302 -3 273 -9 242 -9 Z M 245 76 C 279 76 306 88 327 114 C 347 140 358 176 358 222 C 358 264 347 298 326 323 C 305 348 276 361 238 361 C 207 361 181 348 161 324 C 141 299 131 264 131 219 C 131 171 141 135 163 111 C 185 87 212 76 245 76 Z M 239 498 L 239 498 Z M 403 498 L 313 498 L 239 601 L 164 498 L 76 498 L 191 670 L 288 670 L 403 498 Z" unicode="ô" />
<glyph horiz-adv-x="489" d="M 25 0 L 25 0 Z M 242 -9 C 214 -9 186 -3 160 6 C 134 16 111 31 91 50 C 71 69 55 93 43 121 C 31 149 25 181 25 217 C 25 249 30 280 42 308 C 53 336 68 360 88 380 C 107 400 130 416 156 428 C 182 440 209 446 239 446 C 269 446 298 440 326 430 C 354 420 378 405 398 387 C 418 368 434 345 446 318 C 458 291 464 261 464 229 C 464 194 458 162 447 133 C 435 103 420 78 400 57 C 380 36 357 20 330 8 C 302 -3 273 -9 242 -9 Z M 245 76 C 279 76 306 88 327 114 C 347 140 358 176 358 222 C 358 264 347 298 326 323 C 305 348 276 361 238 361 C 207 361 181 348 161 324 C 141 299 131 264 131 219 C 131 171 141 135 163 111 C 185 87 212 76 245 76 Z M 239 504 L 239 504 Z M 324 644 L 399 644 C 399 596 392 560 378 538 C 364 515 347 504 326 504 C 307 504 291 507 277 514 C 263 520 252 527 244 533 C 235 538 226 543 218 549 C 209 555 200 558 192 558 C 183 558 176 553 170 544 C 164 534 161 522 161 507 L 86 507 C 86 554 94 589 112 613 C 130 636 149 648 170 648 C 186 648 200 644 212 638 C 224 631 235 624 246 617 C 254 611 262 605 270 599 C 278 593 286 590 294 590 C 301 590 308 594 314 604 C 320 614 324 627 324 644 Z" unicode="õ" />
<glyph horiz-adv-x="489" d="M 25 0 L 25 0 Z M 242 -9 C 214 -9 186 -3 160 6 C 134 16 111 31 91 50 C 71 69 55 93 43 121 C 31 149 25 181 25 217 C 25 249 30 280 42 308 C 53 336 68 360 88 380 C 107 400 130 416 156 428 C 182 440 209 446 239 446 C 269 446 298 440 326 430 C 354 420 378 405 398 387 C 418 368 434 345 446 318 C 458 291 464 261 464 229 C 464 194 458 162 447 133 C 435 103 420 78 400 57 C 380 36 357 20 330 8 C 302 -3 273 -9 242 -9 Z M 245 76 C 279 76 306 88 327 114 C 347 140 358 176 358 222 C 358 264 347 298 326 323 C 305 348 276 361 238 361 C 207 361 181 348 161 324 C 141 299 131 264 131 219 C 131 171 141 135 163 111 C 185 87 212 76 245 76 Z M 239 498 L 239 498 Z M 370 498 L 285 498 L 285 657 L 370 657 L 370 498 Z M 193 498 L 108 498 L 108 657 L 193 657 L 193 498 Z" unicode="ö" />
<glyph horiz-adv-x="500" d="M 202 448 L 202 567 L 298 567 L 298 448 L 202 448 Z M 24 287 L 24 374 L 476 374 L 476 287 L 24 287 Z M 202 94 L 202 212 L 298 212 L 298 94 L 202 94 Z" unicode="÷" />
<glyph horiz-adv-x="489" d="M 464 229 C 464 194 458 162 447 133 C 435 103 420 78 400 57 C 380 36 357 20 330 8 C 302 -3 273 -9 242 -9 C 217 -9 193 -5 170 2 C 147 9 126 20 108 35 L 70 -6 L 35 30 L 73 71 C 58 89 46 111 38 135 C 29 159 25 187 25 217 C 25 249 30 280 42 308 C 53 336 68 360 88 380 C 107 400 130 416 156 428 C 182 440 209 446 239 446 C 265 446 291 442 315 434 C 339 426 360 416 380 402 L 421 446 L 456 410 L 416 367 C 430 349 442 328 451 305 C 459 281 464 256 464 229 Z M 131 219 C 131 204 132 191 134 179 C 136 167 139 156 143 146 L 317 334 C 307 342 295 349 282 354 C 268 358 254 361 238 361 C 207 361 181 348 161 324 C 141 299 131 264 131 219 Z M 358 222 C 358 234 357 247 355 259 C 353 271 350 281 346 291 L 171 103 C 181 94 192 87 204 83 C 216 78 230 76 245 76 C 279 76 306 88 327 114 C 347 140 358 176 358 222 Z" unicode="ø" />
<glyph horiz-adv-x="490" d="M 50 0 L 50 0 Z M 50 436 L 150 436 L 150 154 C 150 127 157 107 173 93 C 189 79 210 72 237 72 C 263 72 286 80 306 97 C 325 113 335 140 335 176 L 335 436 L 436 436 L 436 0 L 337 0 L 337 66 C 325 43 307 25 282 12 C 257 -1 228 -8 196 -8 C 154 -8 120 4 92 29 C 64 53 50 89 50 137 L 50 436 Z M 242 497 L 242 497 Z M 351 497 L 250 497 L 133 663 L 252 663 L 351 497 Z" unicode="ù" />
<glyph horiz-adv-x="490" d="M 50 0 L 50 0 Z M 50 436 L 150 436 L 150 154 C 150 127 157 107 173 93 C 189 79 210 72 237 72 C 263 72 286 80 306 97 C 325 113 335 140 335 176 L 335 436 L 436 436 L 436 0 L 337 0 L 337 66 C 325 43 307 25 282 12 C 257 -1 228 -8 196 -8 C 154 -8 120 4 92 29 C 64 53 50 89 50 137 L 50 436 Z M 242 497 L 242 497 Z M 134 497 L 232 663 L 352 663 L 234 497 L 134 497 Z" unicode="ú" />
<glyph horiz-adv-x="490" d="M 50 0 L 50 0 Z M 50 436 L 150 436 L 150 154 C 150 127 157 107 173 93 C 189 79 210 72 237 72 C 263 72 286 80 306 97 C 325 113 335 140 335 176 L 335 436 L 436 436 L 436 0 L 337 0 L 337 66 C 325 43 307 25 282 12 C 257 -1 228 -8 196 -8 C 154 -8 120 4 92 29 C 64 53 50 89 50 137 L 50 436 Z M 242 498 L 242 498 Z M 406 498 L 316 498 L 242 601 L 167 498 L 79 498 L 194 670 L 291 670 L 406 498 Z" unicode="û" />
<glyph horiz-adv-x="490" d="M 50 0 L 50 0 Z M 50 436 L 150 436 L 150 154 C 150 127 157 107 173 93 C 189 79 210 72 237 72 C 263 72 286 80 306 97 C 325 113 335 140 335 176 L 335 436 L 436 436 L 436 0 L 337 0 L 337 66 C 325 43 307 25 282 12 C 257 -1 228 -8 196 -8 C 154 -8 120 4 92 29 C 64 53 50 89 50 137 L 50 436 Z M 242 498 L 242 498 Z M 373 498 L 288 498 L 288 657 L 373 657 L 373 498 Z M 196 498 L 111 498 L 111 657 L 196 657 L 196 498 Z" unicode="ü" />
<glyph horiz-adv-x="437" d="M 0 0 L 0 0 Z M 438 436 L 210 -95 C 191 -137 168 -165 142 -179 C 115 -193 89 -200 63 -200 C 49 -200 36 -198 25 -195 C 14 -192 6 -189 0 -187 L 28 -98 C 30 -99 36 -101 44 -103 C 52 -105 60 -107 68 -107 C 80 -107 92 -102 102 -94 C 112 -86 123 -70 134 -48 L 170 39 L -4 436 L 105 436 L 221 152 L 336 436 L 438 436 Z M 219 497 L 219 497 Z M 111 497 L 209 663 L 329 663 L 211 497 L 111 497 Z" unicode="ý" />
<glyph horiz-adv-x="500" d="M 53 -200 L 53 752 L 149 752 L 149 360 C 155 381 172 400 198 418 C 224 436 256 445 294 445 C 322 445 347 439 369 428 C 391 417 410 402 426 383 C 442 364 454 342 462 316 C 470 290 475 261 475 231 C 475 193 470 160 460 131 C 450 101 436 77 420 57 C 403 37 383 21 361 11 C 339 0 316 -5 293 -5 C 257 -5 226 2 201 16 C 176 30 159 45 151 62 L 151 -200 L 53 -200 Z M 262 71 C 293 71 319 83 339 108 C 359 133 369 169 369 216 C 369 259 359 295 341 323 C 322 351 295 365 259 365 C 229 365 204 352 182 328 C 160 304 150 265 150 212 C 150 162 161 126 183 104 C 205 82 232 71 262 71 Z" unicode="þ" />
<glyph horiz-adv-x="437" d="M 0 0 L 0 0 Z M 438 436 L 210 -95 C 191 -137 168 -165 142 -179 C 115 -193 89 -200 63 -200 C 49 -200 36 -198 25 -195 C 14 -192 6 -189 0 -187 L 28 -98 C 30 -99 36 -101 44 -103 C 52 -105 60 -107 68 -107 C 80 -107 92 -102 102 -94 C 112 -86 123 -70 134 -48 L 170 39 L -4 436 L 105 436 L 221 152 L 336 436 L 438 436 Z M 219 498 L 219 498 Z M 350 498 L 265 498 L 265 657 L 350 657 L 350 498 Z M 173 498 L 88 498 L 88 657 L 173 657 L 173 498 Z" unicode="ÿ" />
<glyph horiz-adv-x="603" d="M 1 0 L 1 0 Z M 601 0 L 490 0 L 426 177 L 171 177 L 109 0 L 1 0 L 269 733 L 337 733 L 601 0 Z M 397 270 L 299 539 L 201 270 L 397 270 Z M 300 814 L 300 814 Z M 430 814 L 170 814 L 170 889 L 430 889 L 430 814 Z" unicode="Ā" />
<glyph horiz-adv-x="443" d="M 18 0 L 18 0 Z M 394 0 L 300 0 L 300 53 C 287 36 269 21 247 9 C 225 -3 197 -10 165 -10 C 117 -10 80 3 55 29 C 30 55 18 89 18 131 C 18 177 35 213 69 239 C 103 264 149 278 209 281 L 296 286 L 296 299 C 296 321 289 337 275 349 C 261 360 239 366 211 366 C 184 366 160 361 139 353 C 118 344 102 335 92 327 L 54 395 C 69 408 91 420 120 431 C 148 441 184 447 227 447 C 274 447 314 435 346 411 C 378 387 394 350 394 300 L 394 0 Z M 298 117 L 298 210 L 219 206 C 188 205 163 198 144 186 C 125 174 116 157 116 135 C 116 115 123 100 137 90 C 151 80 169 75 190 75 C 214 75 236 79 256 89 C 275 98 289 107 298 117 Z M 215 520 L 215 520 Z M 345 520 L 85 520 L 85 595 L 345 595 L 345 520 Z" unicode="ā" />
<glyph horiz-adv-x="603" d="M 1 0 L 1 0 Z M 601 0 L 490 0 L 426 177 L 171 177 L 109 0 L 1 0 L 269 733 L 337 733 L 601 0 Z M 397 270 L 299 539 L 201 270 L 397 270 Z M 300 796 L 300 796 Z M 369 954 L 453 954 C 449 898 433 858 405 833 C 377 808 342 796 300 796 C 258 796 223 808 195 833 C 167 858 151 898 147 954 L 232 954 C 234 924 240 901 250 884 C 260 866 277 858 300 858 C 322 858 339 866 350 883 C 360 899 367 923 369 954 Z" unicode="Ă" />
<glyph horiz-adv-x="443" d="M 18 0 L 18 0 Z M 394 0 L 300 0 L 300 53 C 287 36 269 21 247 9 C 225 -3 197 -10 165 -10 C 117 -10 80 3 55 29 C 30 55 18 89 18 131 C 18 177 35 213 69 239 C 103 264 149 278 209 281 L 296 286 L 296 299 C 296 321 289 337 275 349 C 261 360 239 366 211 366 C 184 366 160 361 139 353 C 118 344 102 335 92 327 L 54 395 C 69 408 91 420 120 431 C 148 441 184 447 227 447 C 274 447 314 435 346 411 C 378 387 394 350 394 300 L 394 0 Z M 298 117 L 298 210 L 219 206 C 188 205 163 198 144 186 C 125 174 116 157 116 135 C 116 115 123 100 137 90 C 151 80 169 75 190 75 C 214 75 236 79 256 89 C 275 98 289 107 298 117 Z M 215 502 L 215 502 Z M 284 660 L 368 660 C 364 604 348 564 320 539 C 292 514 257 502 215 502 C 173 502 138 514 110 539 C 82 564 66 604 62 660 L 147 660 C 149 630 155 607 165 590 C 175 572 192 564 215 564 C 237 564 254 572 265 589 C 275 605 282 629 284 660 Z" unicode="ă" />
<glyph horiz-adv-x="603" d="M 1 0 L 1 0 Z M 601 0 L 490 0 L 426 177 L 171 177 L 109 0 L 1 0 L 269 733 L 337 733 L 601 0 Z M 397 270 L 299 539 L 201 270 L 397 270 Z M 492 -8 L 492 -8 Z M 593 -91 L 622 -134 C 602 -155 579 -171 554 -182 C 529 -193 501 -199 471 -199 C 437 -199 410 -191 390 -177 C 370 -162 361 -143 361 -121 C 361 -96 372 -73 394 -51 C 416 -29 447 -10 488 5 L 542 5 C 515 -7 493 -21 475 -36 C 457 -50 448 -65 448 -80 C 448 -93 453 -103 463 -111 C 473 -119 487 -123 504 -123 C 522 -123 539 -120 555 -114 C 570 -108 583 -100 593 -91 Z" unicode="Ą" />
<glyph horiz-adv-x="443" d="M 18 0 L 18 0 Z M 394 0 L 300 0 L 300 53 C 287 36 269 21 247 9 C 225 -3 197 -10 165 -10 C 117 -10 80 3 55 29 C 30 55 18 89 18 131 C 18 177 35 213 69 239 C 103 264 149 278 209 281 L 296 286 L 296 299 C 296 321 289 337 275 349 C 261 360 239 366 211 366 C 184 366 160 361 139 353 C 118 344 102 335 92 327 L 54 395 C 69 408 91 420 120 431 C 148 441 184 447 227 447 C 274 447 314 435 346 411 C 378 387 394 350 394 300 L 394 0 Z M 298 117 L 298 210 L 219 206 C 188 205 163 198 144 186 C 125 174 116 157 116 135 C 116 115 123 100 137 90 C 151 80 169 75 190 75 C 214 75 236 79 256 89 C 275 98 289 107 298 117 Z M 312 -8 L 312 -8 Z M 413 -91 L 442 -134 C 422 -155 399 -171 374 -182 C 349 -193 321 -199 291 -199 C 257 -199 230 -191 210 -177 C 190 -162 181 -143 181 -121 C 181 -96 192 -73 214 -51 C 236 -29 267 -10 308 5 L 362 5 C 335 -7 313 -21 295 -36 C 277 -50 268 -65 268 -80 C 268 -93 273 -103 283 -111 C 293 -119 307 -123 324 -123 C 342 -123 359 -120 375 -114 C 390 -108 403 -100 413 -91 Z" unicode="ą" />
<glyph horiz-adv-x="633" d="M 42 0 L 42 0 Z M 363 -10 C 317 -10 275 -1 236 14 C 197 30 163 54 135 86 C 106 118 83 157 67 204 C 50 250 42 304 42 365 C 42 420 49 471 65 517 C 81 563 103 603 131 636 C 159 668 193 694 233 712 C 273 730 317 740 365 740 C 431 740 483 729 522 707 C 561 685 593 658 618 625 L 541 552 C 524 574 501 594 473 611 C 445 627 410 636 368 636 C 300 636 247 612 210 564 C 172 516 154 448 154 361 C 154 313 160 272 172 238 C 184 204 200 176 220 154 C 240 132 263 115 289 105 C 315 95 342 90 370 90 C 414 90 452 99 482 117 C 512 135 537 158 557 186 L 628 126 C 601 86 565 53 521 28 C 477 2 424 -10 363 -10 Z M 366 791 L 366 791 Z M 258 791 L 356 957 L 476 957 L 358 791 L 258 791 Z" unicode="Ć" />
<glyph horiz-adv-x="424" d="M 25 0 L 25 0 Z M 341 138 L 419 89 C 405 64 384 41 356 21 C 328 1 288 -9 237 -9 C 204 -9 174 -3 148 8 C 122 19 100 35 82 55 C 64 75 50 99 40 127 C 30 155 25 185 25 218 C 25 250 30 280 41 308 C 51 336 66 360 85 380 C 104 400 127 416 154 428 C 180 440 210 446 242 446 C 289 446 327 436 357 416 C 387 396 408 375 422 351 L 338 299 C 328 315 316 329 301 340 C 285 351 265 357 241 357 C 208 357 181 343 161 317 C 141 291 131 258 131 218 C 131 174 141 140 162 115 C 183 89 210 77 244 77 C 271 77 292 83 307 97 C 321 111 333 124 341 138 Z M 227 497 L 227 497 Z M 119 497 L 217 663 L 337 663 L 219 497 L 119 497 Z" unicode="ć" />
<glyph horiz-adv-x="633" d="M 42 0 L 42 0 Z M 363 -10 C 317 -10 275 -1 236 14 C 197 30 163 54 135 86 C 106 118 83 157 67 204 C 50 250 42 304 42 365 C 42 420 49 471 65 517 C 81 563 103 603 131 636 C 159 668 193 694 233 712 C 273 730 317 740 365 740 C 431 740 483 729 522 707 C 561 685 593 658 618 625 L 541 552 C 524 574 501 594 473 611 C 445 627 410 636 368 636 C 300 636 247 612 210 564 C 172 516 154 448 154 361 C 154 313 160 272 172 238 C 184 204 200 176 220 154 C 240 132 263 115 289 105 C 315 95 342 90 370 90 C 414 90 452 99 482 117 C 512 135 537 158 557 186 L 628 126 C 601 86 565 53 521 28 C 477 2 424 -10 363 -10 Z M 366 792 L 366 792 Z M 530 792 L 440 792 L 366 895 L 291 792 L 203 792 L 318 964 L 415 964 L 530 792 Z" unicode="Ĉ" />
<glyph horiz-adv-x="424" d="M 25 0 L 25 0 Z M 341 138 L 419 89 C 405 64 384 41 356 21 C 328 1 288 -9 237 -9 C 204 -9 174 -3 148 8 C 122 19 100 35 82 55 C 64 75 50 99 40 127 C 30 155 25 185 25 218 C 25 250 30 280 41 308 C 51 336 66 360 85 380 C 104 400 127 416 154 428 C 180 440 210 446 242 446 C 289 446 327 436 357 416 C 387 396 408 375 422 351 L 338 299 C 328 315 316 329 301 340 C 285 351 265 357 241 357 C 208 357 181 343 161 317 C 141 291 131 258 131 218 C 131 174 141 140 162 115 C 183 89 210 77 244 77 C 271 77 292 83 307 97 C 321 111 333 124 341 138 Z M 227 498 L 227 498 Z M 391 498 L 301 498 L 227 601 L 152 498 L 64 498 L 179 670 L 276 670 L 391 498 Z" unicode="ĉ" />
<glyph horiz-adv-x="633" d="M 42 0 L 42 0 Z M 363 -10 C 317 -10 275 -1 236 14 C 197 30 163 54 135 86 C 106 118 83 157 67 204 C 50 250 42 304 42 365 C 42 420 49 471 65 517 C 81 563 103 603 131 636 C 159 668 193 694 233 712 C 273 730 317 740 365 740 C 431 740 483 729 522 707 C 561 685 593 658 618 625 L 541 552 C 524 574 501 594 473 611 C 445 627 410 636 368 636 C 300 636 247 612 210 564 C 172 516 154 448 154 361 C 154 313 160 272 172 238 C 184 204 200 176 220 154 C 240 132 263 115 289 105 C 315 95 342 90 370 90 C 414 90 452 99 482 117 C 512 135 537 158 557 186 L 628 126 C 601 86 565 53 521 28 C 477 2 424 -10 363 -10 Z M 366 799 L 366 799 Z M 413 799 L 320 799 L 320 949 L 413 949 L 413 799 Z" unicode="Ċ" />
<glyph horiz-adv-x="424" d="M 25 0 L 25 0 Z M 341 138 L 419 89 C 405 64 384 41 356 21 C 328 1 288 -9 237 -9 C 204 -9 174 -3 148 8 C 122 19 100 35 82 55 C 64 75 50 99 40 127 C 30 155 25 185 25 218 C 25 250 30 280 41 308 C 51 336 66 360 85 380 C 104 400 127 416 154 428 C 180 440 210 446 242 446 C 289 446 327 436 357 416 C 387 396 408 375 422 351 L 338 299 C 328 315 316 329 301 340 C 285 351 265 357 241 357 C 208 357 181 343 161 317 C 141 291 131 258 131 218 C 131 174 141 140 162 115 C 183 89 210 77 244 77 C 271 77 292 83 307 97 C 321 111 333 124 341 138 Z M 227 505 L 227 505 Z M 274 505 L 181 505 L 181 655 L 274 655 L 274 505 Z" unicode="ċ" />
<glyph horiz-adv-x="633" d="M 42 0 L 42 0 Z M 363 -10 C 317 -10 275 -1 236 14 C 197 30 163 54 135 86 C 106 118 83 157 67 204 C 50 250 42 304 42 365 C 42 420 49 471 65 517 C 81 563 103 603 131 636 C 159 668 193 694 233 712 C 273 730 317 740 365 740 C 431 740 483 729 522 707 C 561 685 593 658 618 625 L 541 552 C 524 574 501 594 473 611 C 445 627 410 636 368 636 C 300 636 247 612 210 564 C 172 516 154 448 154 361 C 154 313 160 272 172 238 C 184 204 200 176 220 154 C 240 132 263 115 289 105 C 315 95 342 90 370 90 C 414 90 452 99 482 117 C 512 135 537 158 557 186 L 628 126 C 601 86 565 53 521 28 C 477 2 424 -10 363 -10 Z M 366 792 L 366 792 Z M 203 964 L 293 964 L 367 862 L 442 964 L 530 964 L 415 792 L 318 792 L 203 964 Z" unicode="Č" />
<glyph horiz-adv-x="424" d="M 25 0 L 25 0 Z M 341 138 L 419 89 C 405 64 384 41 356 21 C 328 1 288 -9 237 -9 C 204 -9 174 -3 148 8 C 122 19 100 35 82 55 C 64 75 50 99 40 127 C 30 155 25 185 25 218 C 25 250 30 280 41 308 C 51 336 66 360 85 380 C 104 400 127 416 154 428 C 180 440 210 446 242 446 C 289 446 327 436 357 416 C 387 396 408 375 422 351 L 338 299 C 328 315 316 329 301 340 C 285 351 265 357 241 357 C 208 357 181 343 161 317 C 141 291 131 258 131 218 C 131 174 141 140 162 115 C 183 89 210 77 244 77 C 271 77 292 83 307 97 C 321 111 333 124 341 138 Z M 227 498 L 227 498 Z M 64 670 L 154 670 L 228 568 L 303 670 L 391 670 L 276 498 L 179 498 L 64 670 Z" unicode="č" />
<glyph horiz-adv-x="681" d="M 81 0 L 81 0 Z M 81 0 L 81 730 L 288 730 C 344 730 393 721 437 704 C 481 687 517 663 547 632 C 577 600 599 563 615 519 C 631 475 639 426 639 372 C 639 320 631 271 616 225 C 600 179 577 140 547 107 C 517 73 479 47 433 28 C 387 9 335 0 275 0 L 81 0 Z M 191 97 L 274 97 C 317 97 355 103 387 117 C 419 131 445 150 465 174 C 485 198 501 227 511 261 C 521 294 526 330 526 369 C 526 451 504 515 462 561 C 420 607 361 631 286 631 L 191 631 L 191 97 Z M 317 792 L 317 792 Z M 154 964 L 244 964 L 318 862 L 393 964 L 481 964 L 366 792 L 269 792 L 154 964 Z" unicode="Ď" />
<glyph horiz-adv-x="502" d="M 26 0 L 26 0 Z M 216 -6 C 187 -6 161 0 138 11 C 114 22 94 37 78 57 C 61 76 48 99 39 125 C 30 151 26 180 26 210 C 26 245 31 277 41 306 C 51 335 64 360 82 381 C 100 401 120 417 144 429 C 168 440 193 446 220 446 C 254 446 282 439 304 425 C 326 411 342 395 351 378 L 351 752 L 449 752 L 449 0 L 355 0 L 355 69 C 347 50 331 33 309 17 C 286 1 255 -6 216 -6 Z M 245 73 C 275 73 301 86 322 113 C 343 139 354 176 354 222 C 354 270 342 305 320 328 C 297 351 270 363 240 363 C 207 363 181 350 161 324 C 141 298 131 263 131 219 C 131 177 140 142 160 114 C 180 86 208 73 245 73 Z M 598 621 L 593 480 L 507 480 L 502 621 L 502 730 L 598 730 L 598 621 Z" unicode="ď" />
<glyph horiz-adv-x="681" d="M 29 0 L 29 0 Z M 639 365 C 639 314 631 266 616 222 C 600 178 577 139 547 106 C 517 73 479 47 433 28 C 387 9 335 0 275 0 L 81 0 L 81 315 L 29 315 L 29 403 L 81 403 L 81 730 L 288 730 C 344 730 395 721 439 704 C 483 686 519 662 549 630 C 578 598 600 560 616 515 C 631 470 639 420 639 365 Z M 191 93 L 273 93 C 318 93 357 100 389 114 C 421 128 447 148 467 173 C 487 197 502 226 512 259 C 521 291 526 326 526 363 C 526 450 505 517 463 564 C 421 611 363 635 289 635 L 191 635 L 191 403 L 354 403 L 354 315 L 191 315 L 191 93 Z" unicode="Đ" />
<glyph horiz-adv-x="502" d="M 355 69 C 347 50 331 33 309 17 C 286 1 255 -6 216 -6 C 187 -6 161 0 138 11 C 114 22 94 37 78 57 C 61 76 48 99 39 125 C 30 151 26 180 26 210 C 26 245 31 277 41 306 C 51 335 64 360 82 381 C 100 401 120 417 144 429 C 168 440 193 446 220 446 C 254 446 282 439 304 425 C 326 411 342 395 351 378 L 351 554 L 243 554 L 243 641 L 351 641 L 351 752 L 449 752 L 449 641 L 492 641 L 492 554 L 449 554 L 449 0 L 355 0 L 355 69 Z M 245 73 C 275 73 301 86 322 113 C 343 139 354 176 354 222 C 354 270 342 305 320 328 C 297 351 270 363 240 363 C 207 363 181 350 161 324 C 141 298 131 263 131 219 C 131 177 140 142 160 114 C 180 86 208 73 245 73 Z" unicode="đ" />
<glyph horiz-adv-x="523" d="M 81 0 L 81 0 Z M 487 0 L 81 0 L 81 730 L 468 730 L 468 631 L 190 631 L 190 411 L 454 411 L 454 312 L 190 312 L 190 99 L 487 99 L 487 0 Z M 275 814 L 275 814 Z M 405 814 L 145 814 L 145 889 L 405 889 L 405 814 Z" unicode="Ē" />
<glyph horiz-adv-x="464" d="M 26 0 L 26 0 Z M 248 -9 C 216 -9 186 -4 159 6 C 131 16 108 30 88 49 C 68 68 53 92 42 120 C 31 148 26 179 26 215 C 26 248 31 279 42 308 C 52 336 67 361 86 381 C 105 401 128 417 154 429 C 180 440 209 446 241 446 C 305 446 355 424 393 381 C 430 337 449 273 449 188 L 123 188 C 124 150 136 121 158 101 C 180 81 211 72 250 72 C 284 72 310 77 328 88 C 346 99 361 111 372 124 L 431 67 C 414 47 392 30 366 14 C 339 -1 300 -9 248 -9 Z M 127 265 L 351 265 C 349 293 339 316 320 336 C 301 355 275 365 242 365 C 208 365 181 355 161 336 C 141 316 129 293 127 265 Z M 238 520 L 238 520 Z M 368 520 L 108 520 L 108 595 L 368 595 L 368 520 Z" unicode="ē" />
<glyph horiz-adv-x="523" d="M 81 0 L 81 0 Z M 487 0 L 81 0 L 81 730 L 468 730 L 468 631 L 190 631 L 190 411 L 454 411 L 454 312 L 190 312 L 190 99 L 487 99 L 487 0 Z M 275 796 L 275 796 Z M 344 954 L 428 954 C 424 898 408 858 380 833 C 352 808 317 796 275 796 C 233 796 198 808 170 833 C 142 858 126 898 122 954 L 207 954 C 209 924 215 901 225 884 C 235 866 252 858 275 858 C 297 858 314 866 325 883 C 335 899 342 923 344 954 Z" unicode="Ĕ" />
<glyph horiz-adv-x="464" d="M 26 0 L 26 0 Z M 248 -9 C 216 -9 186 -4 159 6 C 131 16 108 30 88 49 C 68 68 53 92 42 120 C 31 148 26 179 26 215 C 26 248 31 279 42 308 C 52 336 67 361 86 381 C 105 401 128 417 154 429 C 180 440 209 446 241 446 C 305 446 355 424 393 381 C 430 337 449 273 449 188 L 123 188 C 124 150 136 121 158 101 C 180 81 211 72 250 72 C 284 72 310 77 328 88 C 346 99 361 111 372 124 L 431 67 C 414 47 392 30 366 14 C 339 -1 300 -9 248 -9 Z M 127 265 L 351 265 C 349 293 339 316 320 336 C 301 355 275 365 242 365 C 208 365 181 355 161 336 C 141 316 129 293 127 265 Z M 238 502 L 238 502 Z M 307 660 L 391 660 C 387 604 371 564 343 539 C 315 514 280 502 238 502 C 196 502 161 514 133 539 C 105 564 89 604 85 660 L 170 660 C 172 630 178 607 188 590 C 198 572 215 564 238 564 C 260 564 277 572 288 589 C 298 605 305 629 307 660 Z" unicode="ĕ" />
<glyph horiz-adv-x="523" d="M 81 0 L 81 0 Z M 487 0 L 81 0 L 81 730 L 468 730 L 468 631 L 190 631 L 190 411 L 454 411 L 454 312 L 190 312 L 190 99 L 487 99 L 487 0 Z M 275 799 L 275 799 Z M 322 799 L 229 799 L 229 949 L 322 949 L 322 799 Z" unicode="Ė" />
<glyph horiz-adv-x="464" d="M 26 0 L 26 0 Z M 248 -9 C 216 -9 186 -4 159 6 C 131 16 108 30 88 49 C 68 68 53 92 42 120 C 31 148 26 179 26 215 C 26 248 31 279 42 308 C 52 336 67 361 86 381 C 105 401 128 417 154 429 C 180 440 209 446 241 446 C 305 446 355 424 393 381 C 430 337 449 273 449 188 L 123 188 C 124 150 136 121 158 101 C 180 81 211 72 250 72 C 284 72 310 77 328 88 C 346 99 361 111 372 124 L 431 67 C 414 47 392 30 366 14 C 339 -1 300 -9 248 -9 Z M 127 265 L 351 265 C 349 293 339 316 320 336 C 301 355 275 365 242 365 C 208 365 181 355 161 336 C 141 316 129 293 127 265 Z M 238 505 L 238 505 Z M 285 505 L 192 505 L 192 655 L 285 655 L 285 505 Z" unicode="ė" />
<glyph horiz-adv-x="523" d="M 81 0 L 81 0 Z M 487 0 L 81 0 L 81 730 L 468 730 L 468 631 L 190 631 L 190 411 L 454 411 L 454 312 L 190 312 L 190 99 L 487 99 L 487 0 Z M 436 -8 L 436 -8 Z M 537 -91 L 566 -134 C 546 -155 523 -171 498 -182 C 473 -193 445 -199 415 -199 C 381 -199 354 -191 334 -177 C 314 -162 305 -143 305 -121 C 305 -96 316 -73 338 -51 C 360 -29 391 -10 432 5 L 486 5 C 459 -7 437 -21 419 -36 C 401 -50 392 -65 392 -80 C 392 -93 397 -103 407 -111 C 417 -119 431 -123 448 -123 C 466 -123 483 -120 499 -114 C 514 -108 527 -100 537 -91 Z" unicode="Ę" />
<glyph horiz-adv-x="464" d="M 26 0 L 26 0 Z M 248 -9 C 216 -9 186 -4 159 6 C 131 16 108 30 88 49 C 68 68 53 92 42 120 C 31 148 26 179 26 215 C 26 248 31 279 42 308 C 52 336 67 361 86 381 C 105 401 128 417 154 429 C 180 440 209 446 241 446 C 305 446 355 424 393 381 C 430 337 449 273 449 188 L 123 188 C 124 150 136 121 158 101 C 180 81 211 72 250 72 C 284 72 310 77 328 88 C 346 99 361 111 372 124 L 431 67 C 414 47 392 30 366 14 C 339 -1 300 -9 248 -9 Z M 127 265 L 351 265 C 349 293 339 316 320 336 C 301 355 275 365 242 365 C 208 365 181 355 161 336 C 141 316 129 293 127 265 Z M 291 -8 L 291 -8 Z M 392 -91 L 421 -134 C 401 -155 378 -171 353 -182 C 328 -193 300 -199 270 -199 C 236 -199 209 -191 189 -177 C 169 -162 160 -143 160 -121 C 160 -96 171 -73 193 -51 C 215 -29 246 -10 287 5 L 341 5 C 314 -7 292 -21 274 -36 C 256 -50 247 -65 247 -80 C 247 -93 252 -103 262 -111 C 272 -119 286 -123 303 -123 C 321 -123 338 -120 354 -114 C 369 -108 382 -100 392 -91 Z" unicode="ę" />
<glyph horiz-adv-x="523" d="M 81 0 L 81 0 Z M 487 0 L 81 0 L 81 730 L 468 730 L 468 631 L 190 631 L 190 411 L 454 411 L 454 312 L 190 312 L 190 99 L 487 99 L 487 0 Z M 275 792 L 275 792 Z M 112 964 L 202 964 L 276 862 L 351 964 L 439 964 L 324 792 L 227 792 L 112 964 Z" unicode="Ě" />
<glyph horiz-adv-x="464" d="M 26 0 L 26 0 Z M 248 -9 C 216 -9 186 -4 159 6 C 131 16 108 30 88 49 C 68 68 53 92 42 120 C 31 148 26 179 26 215 C 26 248 31 279 42 308 C 52 336 67 361 86 381 C 105 401 128 417 154 429 C 180 440 209 446 241 446 C 305 446 355 424 393 381 C 430 337 449 273 449 188 L 123 188 C 124 150 136 121 158 101 C 180 81 211 72 250 72 C 284 72 310 77 328 88 C 346 99 361 111 372 124 L 431 67 C 414 47 392 30 366 14 C 339 -1 300 -9 248 -9 Z M 127 265 L 351 265 C 349 293 339 316 320 336 C 301 355 275 365 242 365 C 208 365 181 355 161 336 C 141 316 129 293 127 265 Z M 238 498 L 238 498 Z M 75 670 L 165 670 L 239 568 L 314 670 L 402 670 L 287 498 L 190 498 L 75 670 Z" unicode="ě" />
<glyph horiz-adv-x="687" d="M 42 0 L 42 0 Z M 375 372 L 651 372 L 651 139 C 627 95 592 59 544 31 C 496 3 437 -10 368 -10 C 322 -10 279 -1 239 17 C 199 35 164 60 135 93 C 106 125 83 165 67 211 C 50 257 42 309 42 365 C 42 422 50 474 67 520 C 84 566 107 606 137 638 C 167 670 202 695 242 713 C 282 731 326 740 372 740 C 406 740 436 736 462 729 C 488 722 511 713 530 703 C 549 692 565 680 579 666 C 592 652 603 639 613 625 L 533 564 C 518 582 498 598 472 614 C 446 629 411 637 368 637 C 305 637 253 612 213 564 C 173 516 153 449 153 364 C 153 322 158 285 169 251 C 180 217 195 187 215 163 C 234 139 257 120 284 106 C 311 92 341 86 374 86 C 416 86 452 93 484 109 C 515 125 538 145 553 170 L 553 273 L 375 273 L 375 372 Z M 369 792 L 369 792 Z M 533 792 L 443 792 L 369 895 L 294 792 L 206 792 L 321 964 L 418 964 L 533 792 Z" unicode="Ĝ" />
<glyph horiz-adv-x="501" d="M 26 0 L 26 0 Z M 218 -2 C 160 -2 114 18 79 59 C 43 99 26 152 26 217 C 26 286 44 341 81 383 C 118 425 164 446 219 446 C 251 446 279 438 303 424 C 327 409 343 393 353 376 L 353 436 L 448 436 L 448 26 C 448 -11 442 -43 431 -71 C 419 -99 404 -121 384 -139 C 364 -157 341 -170 315 -179 C 289 -187 261 -192 232 -192 C 188 -192 152 -187 126 -178 C 100 -168 80 -159 67 -150 L 102 -74 C 113 -82 129 -90 149 -98 C 169 -106 194 -110 224 -110 C 258 -110 288 -100 313 -80 C 337 -60 350 -31 350 9 L 350 69 C 342 50 326 33 302 19 C 278 5 250 -2 218 -2 Z M 244 72 C 275 72 301 85 322 112 C 343 138 354 175 354 221 C 354 265 342 301 320 327 C 297 353 269 366 237 366 C 206 366 181 352 161 326 C 141 300 131 264 131 219 C 131 175 140 140 160 113 C 180 85 208 72 244 72 Z M 228 498 L 228 498 Z M 392 498 L 302 498 L 228 601 L 153 498 L 65 498 L 180 670 L 277 670 L 392 498 Z" unicode="ĝ" />
<glyph horiz-adv-x="687" d="M 42 0 L 42 0 Z M 375 372 L 651 372 L 651 139 C 627 95 592 59 544 31 C 496 3 437 -10 368 -10 C 322 -10 279 -1 239 17 C 199 35 164 60 135 93 C 106 125 83 165 67 211 C 50 257 42 309 42 365 C 42 422 50 474 67 520 C 84 566 107 606 137 638 C 167 670 202 695 242 713 C 282 731 326 740 372 740 C 406 740 436 736 462 729 C 488 722 511 713 530 703 C 549 692 565 680 579 666 C 592 652 603 639 613 625 L 533 564 C 518 582 498 598 472 614 C 446 629 411 637 368 637 C 305 637 253 612 213 564 C 173 516 153 449 153 364 C 153 322 158 285 169 251 C 180 217 195 187 215 163 C 234 139 257 120 284 106 C 311 92 341 86 374 86 C 416 86 452 93 484 109 C 515 125 538 145 553 170 L 553 273 L 375 273 L 375 372 Z M 369 796 L 369 796 Z M 438 954 L 522 954 C 518 898 502 858 474 833 C 446 808 411 796 369 796 C 327 796 292 808 264 833 C 236 858 220 898 216 954 L 301 954 C 303 924 309 901 319 884 C 329 866 346 858 369 858 C 391 858 408 866 419 883 C 429 899 436 923 438 954 Z" unicode="Ğ" />
<glyph horiz-adv-x="501" d="M 26 0 L 26 0 Z M 218 -2 C 160 -2 114 18 79 59 C 43 99 26 152 26 217 C 26 286 44 341 81 383 C 118 425 164 446 219 446 C 251 446 279 438 303 424 C 327 409 343 393 353 376 L 353 436 L 448 436 L 448 26 C 448 -11 442 -43 431 -71 C 419 -99 404 -121 384 -139 C 364 -157 341 -170 315 -179 C 289 -187 261 -192 232 -192 C 188 -192 152 -187 126 -178 C 100 -168 80 -159 67 -150 L 102 -74 C 113 -82 129 -90 149 -98 C 169 -106 194 -110 224 -110 C 258 -110 288 -100 313 -80 C 337 -60 350 -31 350 9 L 350 69 C 342 50 326 33 302 19 C 278 5 250 -2 218 -2 Z M 244 72 C 275 72 301 85 322 112 C 343 138 354 175 354 221 C 354 265 342 301 320 327 C 297 353 269 366 237 366 C 206 366 181 352 161 326 C 141 300 131 264 131 219 C 131 175 140 140 160 113 C 180 85 208 72 244 72 Z M 228 502 L 228 502 Z M 297 660 L 381 660 C 377 604 361 564 333 539 C 305 514 270 502 228 502 C 186 502 151 514 123 539 C 95 564 79 604 75 660 L 160 660 C 162 630 168 607 178 590 C 188 572 205 564 228 564 C 250 564 267 572 278 589 C 288 605 295 629 297 660 Z" unicode="ğ" />
<glyph horiz-adv-x="687" d="M 42 0 L 42 0 Z M 375 372 L 651 372 L 651 139 C 627 95 592 59 544 31 C 496 3 437 -10 368 -10 C 322 -10 279 -1 239 17 C 199 35 164 60 135 93 C 106 125 83 165 67 211 C 50 257 42 309 42 365 C 42 422 50 474 67 520 C 84 566 107 606 137 638 C 167 670 202 695 242 713 C 282 731 326 740 372 740 C 406 740 436 736 462 729 C 488 722 511 713 530 703 C 549 692 565 680 579 666 C 592 652 603 639 613 625 L 533 564 C 518 582 498 598 472 614 C 446 629 411 637 368 637 C 305 637 253 612 213 564 C 173 516 153 449 153 364 C 153 322 158 285 169 251 C 180 217 195 187 215 163 C 234 139 257 120 284 106 C 311 92 341 86 374 86 C 416 86 452 93 484 109 C 515 125 538 145 553 170 L 553 273 L 375 273 L 375 372 Z M 369 799 L 369 799 Z M 416 799 L 323 799 L 323 949 L 416 949 L 416 799 Z" unicode="Ġ" />
<glyph horiz-adv-x="501" d="M 26 0 L 26 0 Z M 218 -2 C 160 -2 114 18 79 59 C 43 99 26 152 26 217 C 26 286 44 341 81 383 C 118 425 164 446 219 446 C 251 446 279 438 303 424 C 327 409 343 393 353 376 L 353 436 L 448 436 L 448 26 C 448 -11 442 -43 431 -71 C 419 -99 404 -121 384 -139 C 364 -157 341 -170 315 -179 C 289 -187 261 -192 232 -192 C 188 -192 152 -187 126 -178 C 100 -168 80 -159 67 -150 L 102 -74 C 113 -82 129 -90 149 -98 C 169 -106 194 -110 224 -110 C 258 -110 288 -100 313 -80 C 337 -60 350 -31 350 9 L 350 69 C 342 50 326 33 302 19 C 278 5 250 -2 218 -2 Z M 244 72 C 275 72 301 85 322 112 C 343 138 354 175 354 221 C 354 265 342 301 320 327 C 297 353 269 366 237 366 C 206 366 181 352 161 326 C 141 300 131 264 131 219 C 131 175 140 140 160 113 C 180 85 208 72 244 72 Z M 228 505 L 228 505 Z M 275 505 L 182 505 L 182 655 L 275 655 L 275 505 Z" unicode="ġ" />
<glyph horiz-adv-x="687" d="M 42 0 L 42 0 Z M 375 372 L 651 372 L 651 139 C 627 95 592 59 544 31 C 496 3 437 -10 368 -10 C 322 -10 279 -1 239 17 C 199 35 164 60 135 93 C 106 125 83 165 67 211 C 50 257 42 309 42 365 C 42 422 50 474 67 520 C 84 566 107 606 137 638 C 167 670 202 695 242 713 C 282 731 326 740 372 740 C 406 740 436 736 462 729 C 488 722 511 713 530 703 C 549 692 565 680 579 666 C 592 652 603 639 613 625 L 533 564 C 518 582 498 598 472 614 C 446 629 411 637 368 637 C 305 637 253 612 213 564 C 173 516 153 449 153 364 C 153 322 158 285 169 251 C 180 217 195 187 215 163 C 234 139 257 120 284 106 C 311 92 341 86 374 86 C 416 86 452 93 484 109 C 515 125 538 145 553 170 L 553 273 L 375 273 L 375 372 Z" unicode="Ģ" />
<glyph horiz-adv-x="501" d="M 26 0 L 26 0 Z M 218 -2 C 160 -2 114 18 79 59 C 43 99 26 152 26 217 C 26 286 44 341 81 383 C 118 425 164 446 219 446 C 251 446 279 438 303 424 C 327 409 343 393 353 376 L 353 436 L 448 436 L 448 26 C 448 -11 442 -43 431 -71 C 419 -99 404 -121 384 -139 C 364 -157 341 -170 315 -179 C 289 -187 261 -192 232 -192 C 188 -192 152 -187 126 -178 C 100 -168 80 -159 67 -150 L 102 -74 C 113 -82 129 -90 149 -98 C 169 -106 194 -110 224 -110 C 258 -110 288 -100 313 -80 C 337 -60 350 -31 350 9 L 350 69 C 342 50 326 33 302 19 C 278 5 250 -2 218 -2 Z M 244 72 C 275 72 301 85 322 112 C 343 138 354 175 354 221 C 354 265 342 301 320 327 C 297 353 269 366 237 366 C 206 366 181 352 161 326 C 141 300 131 264 131 219 C 131 175 140 140 160 113 C 180 85 208 72 244 72 Z" unicode="ģ" />
<glyph horiz-adv-x="690" d="M 81 0 L 81 0 Z M 608 0 L 498 0 L 498 308 L 191 308 L 191 0 L 81 0 L 81 730 L 191 730 L 191 412 L 498 412 L 498 730 L 608 730 L 608 0 Z M 344 792 L 344 792 Z M 508 792 L 418 792 L 344 895 L 269 792 L 181 792 L 296 964 L 393 964 L 508 792 Z" unicode="Ĥ" />
<glyph horiz-adv-x="489" d="M 53 0 L 53 0 Z M 440 0 L 339 0 L 339 278 C 339 305 331 326 316 341 C 300 355 279 363 253 363 C 227 363 204 354 184 338 C 164 321 154 295 154 261 L 154 0 L 53 0 L 53 752 L 149 752 L 149 362 C 157 385 173 405 197 422 C 221 438 252 447 292 447 C 336 447 371 434 399 409 C 426 384 440 348 440 302 L 440 0 Z M 247 814 L 247 814 Z M 411 814 L 321 814 L 247 917 L 172 814 L 84 814 L 199 986 L 296 986 L 411 814 Z" unicode="ĥ" />
<glyph horiz-adv-x="690" d="M 191 308 L 191 0 L 81 0 L 81 546 L 10 546 L 10 632 L 81 632 L 81 730 L 191 730 L 191 632 L 498 632 L 498 730 L 608 730 L 608 632 L 679 632 L 679 546 L 608 546 L 608 0 L 498 0 L 498 308 L 191 308 Z M 191 412 L 498 412 L 498 546 L 191 546 L 191 412 Z" unicode="Ħ" />
<glyph horiz-adv-x="489" d="M 154 261 L 154 0 L 53 0 L 53 555 L 10 555 L 10 641 L 53 641 L 53 752 L 149 752 L 149 641 L 265 641 L 265 555 L 149 555 L 149 362 C 157 385 173 405 197 422 C 221 438 252 447 292 447 C 336 447 371 434 399 409 C 426 384 440 348 440 302 L 440 0 L 339 0 L 339 278 C 339 305 331 326 316 341 C 300 355 279 363 253 363 C 227 363 204 354 184 338 C 164 321 154 295 154 261 Z" unicode="ħ" />
<glyph horiz-adv-x="281" d="M 0 0 L 0 0 Z M 196 0 L 86 0 L 86 730 L 196 730 L 196 0 Z M 141 798 L 141 798 Z M 226 938 L 301 938 C 301 890 294 854 280 832 C 266 809 249 798 228 798 C 209 798 193 801 179 808 C 165 814 154 821 146 827 C 137 832 128 837 120 843 C 111 849 102 852 94 852 C 85 852 78 847 72 838 C 66 828 63 816 63 801 L -12 801 C -12 848 -3 883 14 907 C 32 930 51 942 72 942 C 88 942 102 938 114 932 C 126 925 137 918 148 911 C 156 905 164 899 172 893 C 180 887 188 884 196 884 C 203 884 210 888 216 898 C 222 908 226 921 226 938 Z" unicode="Ĩ" />
<glyph horiz-adv-x="217" d="M 0 0 L 0 0 Z M 159 0 L 58 0 L 58 436 L 159 436 L 159 0 Z M 108 504 L 108 504 Z M 193 644 L 268 644 C 268 596 261 560 247 538 C 233 515 216 504 195 504 C 176 504 160 507 146 514 C 132 520 121 527 113 533 C 104 538 95 543 87 549 C 78 555 69 558 61 558 C 52 558 45 553 39 544 C 33 534 30 522 30 507 L -45 507 C -45 554 -36 589 -18 613 C 0 636 18 648 39 648 C 55 648 69 644 81 638 C 93 631 104 624 115 617 C 123 611 131 605 139 599 C 147 593 155 590 163 590 C 170 590 177 594 183 604 C 189 614 193 627 193 644 Z" unicode="ĩ" />
<glyph horiz-adv-x="281" d="M 11 0 L 11 0 Z M 196 0 L 86 0 L 86 730 L 196 730 L 196 0 Z M 141 814 L 141 814 Z M 271 814 L 11 814 L 11 889 L 271 889 L 271 814 Z" unicode="Ī" />
<glyph horiz-adv-x="217" d="M 0 0 L 0 0 Z M 159 0 L 58 0 L 58 436 L 159 436 L 159 0 Z M 108 520 L 108 520 Z M 238 520 L -22 520 L -22 595 L 238 595 L 238 520 Z" unicode="ī" />
<glyph horiz-adv-x="281" d="M 0 0 L 0 0 Z M 196 0 L 86 0 L 86 730 L 196 730 L 196 0 Z M 141 796 L 141 796 Z M 210 954 L 294 954 C 290 898 274 858 246 833 C 218 808 183 796 141 796 C 99 796 64 808 36 833 C 8 858 -8 898 -12 954 L 73 954 C 75 924 81 901 91 884 C 101 866 118 858 141 858 C 163 858 180 866 191 883 C 201 899 208 923 210 954 Z" unicode="Ĭ" />
<glyph horiz-adv-x="217" d="M 0 0 L 0 0 Z M 159 0 L 58 0 L 58 436 L 159 436 L 159 0 Z M 108 502 L 108 502 Z M 177 660 L 261 660 C 257 604 241 564 213 539 C 185 514 150 502 108 502 C 66 502 31 514 3 539 C -25 564 -41 604 -45 660 L 40 660 C 42 630 48 607 58 590 C 68 572 85 564 108 564 C 130 564 147 572 158 589 C 168 605 175 629 177 660 Z" unicode="ĭ" />
<glyph horiz-adv-x="281" d="M 0 0 L 0 0 Z M 196 0 L 86 0 L 86 730 L 196 730 L 196 0 Z M 90 -11 L 90 -11 Z M 191 -94 L 220 -137 C 200 -158 177 -174 152 -185 C 127 -196 99 -202 69 -202 C 35 -202 8 -194 -11 -180 C -31 -165 -41 -146 -41 -124 C -41 -99 -30 -76 -8 -54 C 14 -32 45 -13 86 2 L 140 2 C 113 -10 91 -24 73 -39 C 55 -53 46 -68 46 -83 C 46 -96 51 -106 61 -114 C 71 -122 85 -126 102 -126 C 120 -126 137 -123 153 -117 C 168 -111 181 -103 191 -94 Z" unicode="Į" />
<glyph horiz-adv-x="217" d="M 0 0 L 0 0 Z M 56 525 L 56 628 L 161 628 L 161 525 L 56 525 Z M 58 0 L 58 436 L 159 436 L 159 0 L 58 0 Z M 70 -8 L 70 -8 Z M 171 -91 L 200 -134 C 180 -155 157 -171 132 -182 C 107 -193 79 -199 49 -199 C 15 -199 -11 -191 -31 -177 C -51 -162 -61 -143 -61 -121 C -61 -96 -50 -73 -28 -51 C -6 -29 25 -10 66 5 L 120 5 C 93 -7 71 -21 53 -36 C 35 -50 26 -65 26 -80 C 26 -93 31 -103 41 -111 C 51 -119 65 -123 82 -123 C 100 -123 117 -120 133 -114 C 148 -108 161 -100 171 -91 Z" unicode="į" />
<glyph horiz-adv-x="281" d="M 86 0 L 86 0 Z M 196 0 L 86 0 L 86 730 L 196 730 L 196 0 Z M 141 799 L 141 799 Z M 188 799 L 95 799 L 95 949 L 188 949 L 188 799 Z" unicode="İ" />
<glyph horiz-adv-x="217" d="M 159 0 L 58 0 L 58 436 L 159 436 L 159 0 Z" unicode="ı" />
<glyph horiz-adv-x="583" d="M 86 0 L 86 0 Z M 196 0 L 86 0 L 86 730 L 196 730 L 196 0 Z M 511 730 L 511 191 C 511 163 506 137 498 113 C 490 88 477 66 461 48 C 445 30 425 15 401 5 C 377 -5 349 -11 318 -11 C 302 -11 286 -10 271 -8 C 256 -6 244 -4 236 -2 L 236 97 C 242 94 253 92 268 91 C 282 89 295 89 305 89 C 337 89 362 99 380 119 C 398 139 407 165 407 195 L 407 730 L 511 730 Z" unicode="Ĳ" />
<glyph horiz-adv-x="404" d="M 56 0 L 56 0 Z M 56 525 L 56 628 L 161 628 L 161 525 L 56 525 Z M 58 0 L 58 436 L 159 436 L 159 0 L 58 0 Z M 361 525 L 256 525 L 256 628 L 361 628 L 361 525 Z M 359 436 L 359 -76 C 359 -110 348 -139 326 -164 C 304 -189 274 -202 236 -202 C 225 -202 213 -201 200 -199 C 187 -197 178 -195 172 -193 L 180 -111 C 182 -111 187 -112 193 -113 C 199 -113 205 -114 211 -114 C 224 -114 235 -109 244 -100 C 253 -91 258 -78 258 -60 L 258 436 L 359 436 Z" unicode="ĳ" />
<glyph horiz-adv-x="352" d="M 14 0 L 14 0 Z M 289 730 L 289 191 C 289 163 284 137 276 113 C 268 88 255 66 239 48 C 223 30 203 15 179 5 C 155 -5 127 -11 96 -11 C 80 -11 64 -10 49 -8 C 34 -6 22 -4 14 -2 L 14 97 C 20 94 31 92 46 91 C 60 89 73 89 83 89 C 115 89 140 99 158 119 C 176 139 185 165 185 195 L 185 730 L 289 730 Z M 236 792 L 236 792 Z M 400 792 L 310 792 L 236 895 L 161 792 L 73 792 L 188 964 L 285 964 L 400 792 Z" unicode="Ĵ" />
<glyph horiz-adv-x="209" d="M 0 0 L 0 0 Z M 156 436 L 156 -76 C 156 -110 145 -139 123 -164 C 101 -189 71 -202 33 -202 C 22 -202 10 -201 -2 -199 C -15 -197 -25 -195 -31 -193 L -23 -111 C -20 -111 -15 -112 -9 -113 C -3 -113 2 -114 8 -114 C 21 -114 32 -109 41 -100 C 50 -91 55 -78 55 -60 L 55 436 L 156 436 Z M 104 498 L 104 498 Z M 268 498 L 178 498 L 104 601 L 29 498 L -59 498 L 56 670 L 153 670 L 268 498 Z" unicode="ĵ" />
<glyph horiz-adv-x="632" d="M 81 0 L 81 0 Z M 635 0 L 498 0 L 253 315 L 191 241 L 191 0 L 81 0 L 81 730 L 191 730 L 191 376 L 472 730 L 601 730 L 327 392 L 635 0 Z M 319 -72 L 319 -72 Z M 413 -72 C 411 -94 407 -118 400 -143 C 392 -167 383 -191 373 -214 C 362 -237 350 -258 338 -277 C 325 -296 313 -311 301 -323 L 224 -288 C 232 -278 240 -266 249 -250 C 257 -234 266 -217 274 -198 C 282 -179 289 -159 295 -137 C 301 -115 305 -93 308 -72 L 413 -72 Z" unicode="Ķ" />
<glyph horiz-adv-x="457" d="M 53 0 L 53 0 Z M 471 1 L 355 0 L 221 182 L 153 106 L 153 0 L 53 0 L 53 752 L 149 752 L 149 217 L 329 436 L 442 436 L 287 253 L 471 1 Z M 227 -72 L 227 -72 Z M 321 -72 C 319 -94 315 -118 308 -143 C 300 -167 291 -191 281 -214 C 270 -237 258 -258 246 -277 C 233 -296 221 -311 209 -323 L 132 -288 C 140 -278 148 -266 157 -250 C 165 -234 174 -217 182 -198 C 190 -179 197 -159 203 -137 C 209 -115 213 -93 216 -72 L 321 -72 Z" unicode="ķ" />
<glyph horiz-adv-x="457" d="M 471 1 L 355 0 L 221 182 L 153 106 L 153 0 L 53 0 L 53 436 L 149 436 L 149 217 L 329 436 L 442 436 L 287 253 L 471 1 Z" unicode="ĸ" />
<glyph horiz-adv-x="455" d="M 81 0 L 81 0 Z M 448 0 L 81 0 L 81 730 L 191 730 L 191 99 L 448 99 L 448 0 Z M 257 791 L 257 791 Z M 149 791 L 247 957 L 367 957 L 249 791 L 149 791 Z" unicode="Ĺ" />
<glyph horiz-adv-x="208" d="M 54 0 L 54 0 Z M 165 814 L 165 814 Z M 57 814 L 155 980 L 275 980 L 157 814 L 57 814 Z M 155 753 L 155 0 L 54 0 L 54 753 L 155 753 Z" unicode="ĺ" />
<glyph horiz-adv-x="455" d="M 81 0 L 81 0 Z M 448 0 L 81 0 L 81 730 L 191 730 L 191 99 L 448 99 L 448 0 Z M 247 -72 L 247 -72 Z M 341 -72 C 339 -94 335 -118 328 -143 C 320 -167 311 -191 301 -214 C 290 -237 278 -258 266 -277 C 253 -296 241 -311 229 -323 L 152 -288 C 160 -278 168 -266 177 -250 C 185 -234 194 -217 202 -198 C 210 -179 217 -159 223 -137 C 229 -115 233 -93 236 -72 L 341 -72 Z" unicode="Ļ" />
<glyph horiz-adv-x="208" d="M 0 0 L 0 0 Z M 155 753 L 155 0 L 54 0 L 54 753 L 155 753 Z M 80 -72 L 80 -72 Z M 174 -72 C 172 -94 168 -118 161 -143 C 153 -167 144 -191 134 -214 C 123 -237 111 -258 99 -277 C 86 -296 74 -311 62 -323 L -15 -288 C -7 -278 1 -266 10 -250 C 18 -234 27 -217 35 -198 C 43 -179 50 -159 56 -137 C 62 -115 66 -93 69 -72 L 174 -72 Z" unicode="ļ" />
<glyph horiz-adv-x="455" d="M 81 0 L 81 0 Z M 448 0 L 81 0 L 81 730 L 191 730 L 191 99 L 448 99 L 448 0 Z M 429 621 L 424 480 L 338 480 L 333 621 L 333 730 L 429 730 L 429 621 Z" unicode="Ľ" />
<glyph horiz-adv-x="208" d="M 54 0 L 54 0 Z M 155 753 L 155 0 L 54 0 L 54 753 L 155 753 Z M 313 621 L 308 480 L 222 480 L 217 621 L 217 730 L 313 730 L 313 621 Z" unicode="ľ" />
<glyph horiz-adv-x="455" d="M 81 0 L 81 0 Z M 448 0 L 81 0 L 81 730 L 191 730 L 191 99 L 448 99 L 448 0 Z M 343 287 L 343 287 Z M 390 287 L 297 287 L 297 437 L 390 437 L 390 287 Z" unicode="Ŀ" />
<glyph horiz-adv-x="208" d="M 54 0 L 54 0 Z M 155 753 L 155 0 L 54 0 L 54 753 L 155 753 Z M 266 181 L 266 181 Z M 313 181 L 220 181 L 220 331 L 313 331 L 313 181 Z" unicode="ŀ" />
<glyph horiz-adv-x="455" d="M 448 96 L 448 0 L 81 0 L 81 265 L 30 244 L -5 320 L 81 356 L 81 730 L 191 730 L 191 401 L 332 460 L 367 384 L 191 311 L 191 96 L 448 96 Z" unicode="Ł" />
<glyph horiz-adv-x="208" d="M 237 342 L 164 308 L 164 0 L 63 0 L 63 260 L 20 240 L -11 312 L 63 347 L 63 752 L 164 752 L 164 394 L 206 414 L 237 342 Z" unicode="ł" />
<glyph horiz-adv-x="697" d="M 81 0 L 81 0 Z M 616 0 L 540 0 L 186 511 L 186 0 L 81 0 L 81 730 L 162 730 L 513 223 L 513 730 L 616 730 L 616 0 Z M 350 791 L 350 791 Z M 242 791 L 340 957 L 460 957 L 342 791 L 242 791 Z" unicode="Ń" />
<glyph horiz-adv-x="489" d="M 53 0 L 53 0 Z M 440 0 L 339 0 L 339 281 C 339 306 331 326 316 341 C 301 355 280 363 253 363 C 226 363 203 354 183 338 C 163 321 154 294 154 257 L 154 0 L 53 0 L 53 436 L 150 436 L 150 368 C 159 390 176 409 202 424 C 227 439 257 447 291 447 C 336 447 372 434 399 409 C 426 384 440 349 440 305 L 440 0 Z M 244 497 L 244 497 Z M 136 497 L 234 663 L 354 663 L 236 497 L 136 497 Z" unicode="ń" />
<glyph horiz-adv-x="697" d="M 81 0 L 81 0 Z M 616 0 L 540 0 L 186 511 L 186 0 L 81 0 L 81 730 L 162 730 L 513 223 L 513 730 L 616 730 L 616 0 Z M 331 -72 L 331 -72 Z M 425 -72 C 423 -94 419 -118 412 -143 C 404 -167 395 -191 385 -214 C 374 -237 362 -258 350 -277 C 337 -296 325 -311 313 -323 L 236 -288 C 244 -278 252 -266 261 -250 C 269 -234 278 -217 286 -198 C 294 -179 301 -159 307 -137 C 313 -115 317 -93 320 -72 L 425 -72 Z" unicode="Ņ" />
<glyph horiz-adv-x="489" d="M 53 0 L 53 0 Z M 440 0 L 339 0 L 339 281 C 339 306 331 326 316 341 C 301 355 280 363 253 363 C 226 363 203 354 183 338 C 163 321 154 294 154 257 L 154 0 L 53 0 L 53 436 L 150 436 L 150 368 C 159 390 176 409 202 424 C 227 439 257 447 291 447 C 336 447 372 434 399 409 C 426 384 440 349 440 305 L 440 0 Z M 219 -72 L 219 -72 Z M 313 -72 C 311 -94 307 -118 300 -143 C 292 -167 283 -191 273 -214 C 262 -237 250 -258 238 -277 C 225 -296 213 -311 201 -323 L 124 -288 C 132 -278 140 -266 149 -250 C 157 -234 166 -217 174 -198 C 182 -179 189 -159 195 -137 C 201 -115 205 -93 208 -72 L 313 -72 Z" unicode="ņ" />
<glyph horiz-adv-x="697" d="M 81 0 L 81 0 Z M 616 0 L 540 0 L 186 511 L 186 0 L 81 0 L 81 730 L 162 730 L 513 223 L 513 730 L 616 730 L 616 0 Z M 350 792 L 350 792 Z M 187 964 L 277 964 L 351 862 L 426 964 L 514 964 L 399 792 L 302 792 L 187 964 Z" unicode="Ň" />
<glyph horiz-adv-x="489" d="M 53 0 L 53 0 Z M 440 0 L 339 0 L 339 281 C 339 306 331 326 316 341 C 301 355 280 363 253 363 C 226 363 203 354 183 338 C 163 321 154 294 154 257 L 154 0 L 53 0 L 53 436 L 150 436 L 150 368 C 159 390 176 409 202 424 C 227 439 257 447 291 447 C 336 447 372 434 399 409 C 426 384 440 349 440 305 L 440 0 Z M 244 498 L 244 498 Z M 81 670 L 171 670 L 245 568 L 320 670 L 408 670 L 293 498 L 196 498 L 81 670 Z" unicode="ň" />
<glyph horiz-adv-x="704" d="M 513 730 L 616 730 L 616 0 L 616 0 C 616 -27 612 -53 604 -77 C 596 -101 584 -123 568 -141 C 552 -159 532 -173 509 -183 C 485 -193 458 -199 427 -199 C 411 -199 395 -198 380 -196 C 365 -194 353 -192 345 -190 L 345 -91 C 351 -93 362 -95 377 -97 C 391 -98 404 -99 414 -99 C 446 -99 471 -88 489 -68 C 507 -48 516 -23 516 7 L 516 35 L 186 511 L 186 0 L 81 0 L 81 730 L 162 730 L 513 223 L 513 730 Z" unicode="Ŋ" />
<glyph horiz-adv-x="489" d="M 291 447 C 336 447 372 434 399 409 C 426 384 440 349 440 305 L 440 -76 C 440 -110 429 -139 407 -164 C 385 -189 355 -202 316 -202 C 306 -202 294 -201 281 -199 C 267 -197 258 -195 252 -193 L 260 -111 C 263 -111 268 -112 274 -113 C 280 -113 286 -114 292 -114 C 304 -114 315 -109 325 -100 C 334 -91 339 -78 339 -60 L 339 281 C 339 306 331 326 316 341 C 301 355 280 363 253 363 C 226 363 203 354 183 338 C 163 321 154 294 154 257 L 154 0 L 53 0 L 53 436 L 150 436 L 150 368 C 159 390 176 409 202 424 C 227 439 257 447 291 447 Z" unicode="ŋ" />
<glyph horiz-adv-x="750" d="M 42 0 L 42 0 Z M 378 -10 C 326 -10 279 -1 237 17 C 195 35 160 60 132 93 C 103 126 81 166 65 213 C 49 260 42 312 42 370 C 42 424 50 473 67 519 C 83 565 106 604 135 636 C 164 668 199 694 239 712 C 279 730 323 740 371 740 C 421 740 467 731 509 714 C 551 696 586 672 616 640 C 645 608 668 568 684 522 C 700 476 709 424 709 367 C 709 310 700 258 683 212 C 665 165 642 125 612 93 C 582 60 547 35 507 17 C 467 -1 424 -10 378 -10 Z M 377 91 C 408 91 437 97 464 109 C 491 121 514 139 534 163 C 553 186 568 215 579 250 C 590 285 596 325 596 371 C 596 454 575 519 533 567 C 491 614 438 638 374 638 C 308 638 255 615 215 569 C 175 523 155 455 155 366 C 155 320 160 280 172 246 C 183 211 198 182 218 160 C 238 137 261 120 289 108 C 316 96 345 91 377 91 Z M 372 814 L 372 814 Z M 502 814 L 242 814 L 242 889 L 502 889 L 502 814 Z" unicode="Ō" />
<glyph horiz-adv-x="489" d="M 25 0 L 25 0 Z M 242 -9 C 214 -9 186 -3 160 6 C 134 16 111 31 91 50 C 71 69 55 93 43 121 C 31 149 25 181 25 217 C 25 249 30 280 42 308 C 53 336 68 360 88 380 C 107 400 130 416 156 428 C 182 440 209 446 239 446 C 269 446 298 440 326 430 C 354 420 378 405 398 387 C 418 368 434 345 446 318 C 458 291 464 261 464 229 C 464 194 458 162 447 133 C 435 103 420 78 400 57 C 380 36 357 20 330 8 C 302 -3 273 -9 242 -9 Z M 245 76 C 279 76 306 88 327 114 C 347 140 358 176 358 222 C 358 264 347 298 326 323 C 305 348 276 361 238 361 C 207 361 181 348 161 324 C 141 299 131 264 131 219 C 131 171 141 135 163 111 C 185 87 212 76 245 76 Z M 239 520 L 239 520 Z M 369 520 L 109 520 L 109 595 L 369 595 L 369 520 Z" unicode="ō" />
<glyph horiz-adv-x="750" d="M 42 0 L 42 0 Z M 378 -10 C 326 -10 279 -1 237 17 C 195 35 160 60 132 93 C 103 126 81 166 65 213 C 49 260 42 312 42 370 C 42 424 50 473 67 519 C 83 565 106 604 135 636 C 164 668 199 694 239 712 C 279 730 323 740 371 740 C 421 740 467 731 509 714 C 551 696 586 672 616 640 C 645 608 668 568 684 522 C 700 476 709 424 709 367 C 709 310 700 258 683 212 C 665 165 642 125 612 93 C 582 60 547 35 507 17 C 467 -1 424 -10 378 -10 Z M 377 91 C 408 91 437 97 464 109 C 491 121 514 139 534 163 C 553 186 568 215 579 250 C 590 285 596 325 596 371 C 596 454 575 519 533 567 C 491 614 438 638 374 638 C 308 638 255 615 215 569 C 175 523 155 455 155 366 C 155 320 160 280 172 246 C 183 211 198 182 218 160 C 238 137 261 120 289 108 C 316 96 345 91 377 91 Z M 372 796 L 372 796 Z M 441 954 L 525 954 C 521 898 505 858 477 833 C 449 808 414 796 372 796 C 330 796 295 808 267 833 C 239 858 223 898 219 954 L 304 954 C 306 924 312 901 322 884 C 332 866 349 858 372 858 C 394 858 411 866 422 883 C 432 899 439 923 441 954 Z" unicode="Ŏ" />
<glyph horiz-adv-x="489" d="M 25 0 L 25 0 Z M 242 -9 C 214 -9 186 -3 160 6 C 134 16 111 31 91 50 C 71 69 55 93 43 121 C 31 149 25 181 25 217 C 25 249 30 280 42 308 C 53 336 68 360 88 380 C 107 400 130 416 156 428 C 182 440 209 446 239 446 C 269 446 298 440 326 430 C 354 420 378 405 398 387 C 418 368 434 345 446 318 C 458 291 464 261 464 229 C 464 194 458 162 447 133 C 435 103 420 78 400 57 C 380 36 357 20 330 8 C 302 -3 273 -9 242 -9 Z M 245 76 C 279 76 306 88 327 114 C 347 140 358 176 358 222 C 358 264 347 298 326 323 C 305 348 276 361 238 361 C 207 361 181 348 161 324 C 141 299 131 264 131 219 C 131 171 141 135 163 111 C 185 87 212 76 245 76 Z M 239 502 L 239 502 Z M 308 660 L 392 660 C 388 604 372 564 344 539 C 316 514 281 502 239 502 C 197 502 162 514 134 539 C 106 564 90 604 86 660 L 171 660 C 173 630 179 607 189 590 C 199 572 216 564 239 564 C 261 564 278 572 289 589 C 299 605 306 629 308 660 Z" unicode="ŏ" />
<glyph horiz-adv-x="750" d="M 42 0 L 42 0 Z M 378 -10 C 326 -10 279 -1 237 17 C 195 35 160 60 132 93 C 103 126 81 166 65 213 C 49 260 42 312 42 370 C 42 424 50 473 67 519 C 83 565 106 604 135 636 C 164 668 199 694 239 712 C 279 730 323 740 371 740 C 421 740 467 731 509 714 C 551 696 586 672 616 640 C 645 608 668 568 684 522 C 700 476 709 424 709 367 C 709 310 700 258 683 212 C 665 165 642 125 612 93 C 582 60 547 35 507 17 C 467 -1 424 -10 378 -10 Z M 377 91 C 408 91 437 97 464 109 C 491 121 514 139 534 163 C 553 186 568 215 579 250 C 590 285 596 325 596 371 C 596 454 575 519 533 567 C 491 614 438 638 374 638 C 308 638 255 615 215 569 C 175 523 155 455 155 366 C 155 320 160 280 172 246 C 183 211 198 182 218 160 C 238 137 261 120 289 108 C 316 96 345 91 377 91 Z M 372 791 L 372 791 Z M 182 791 L 267 945 L 375 945 L 272 791 L 182 791 Z M 368 791 L 454 945 L 562 945 L 458 791 L 368 791 Z" unicode="Ő" />
<glyph horiz-adv-x="489" d="M 25 0 L 25 0 Z M 242 -9 C 214 -9 186 -3 160 6 C 134 16 111 31 91 50 C 71 69 55 93 43 121 C 31 149 25 181 25 217 C 25 249 30 280 42 308 C 53 336 68 360 88 380 C 107 400 130 416 156 428 C 182 440 209 446 239 446 C 269 446 298 440 326 430 C 354 420 378 405 398 387 C 418 368 434 345 446 318 C 458 291 464 261 464 229 C 464 194 458 162 447 133 C 435 103 420 78 400 57 C 380 36 357 20 330 8 C 302 -3 273 -9 242 -9 Z M 245 76 C 279 76 306 88 327 114 C 347 140 358 176 358 222 C 358 264 347 298 326 323 C 305 348 276 361 238 361 C 207 361 181 348 161 324 C 141 299 131 264 131 219 C 131 171 141 135 163 111 C 185 87 212 76 245 76 Z M 239 497 L 239 497 Z M 49 497 L 134 651 L 242 651 L 139 497 L 49 497 Z M 235 497 L 321 651 L 429 651 L 325 497 L 235 497 Z" unicode="ő" />
<glyph horiz-adv-x="1030" d="M 361 -10 C 313 -10 269 -1 230 16 C 190 34 157 59 129 92 C 101 124 80 164 65 212 C 49 259 42 312 42 370 C 42 425 50 475 66 521 C 82 567 105 606 134 638 C 162 670 196 695 236 713 C 275 731 317 740 363 740 C 387 740 411 737 435 731 C 459 725 481 716 502 705 C 522 694 540 681 556 667 C 571 652 582 636 590 620 L 590 730 L 974 730 L 974 634 L 696 634 L 696 409 L 961 409 L 961 312 L 696 312 L 696 96 L 993 96 L 993 0 L 590 0 L 590 118 C 575 84 548 54 508 28 C 468 2 419 -10 361 -10 Z M 373 84 C 404 84 433 90 460 102 C 486 114 509 131 528 155 C 547 179 562 209 573 245 C 584 281 590 322 590 370 C 590 416 583 456 571 490 C 558 524 541 553 521 576 C 500 598 476 615 450 626 C 424 637 397 643 371 643 C 307 643 255 619 215 573 C 174 527 154 458 154 366 C 154 318 159 277 171 242 C 182 206 197 177 217 154 C 236 130 259 113 286 101 C 313 89 342 84 373 84 Z" unicode="Œ" />
<glyph horiz-adv-x="800" d="M 241 -9 C 210 -9 181 -3 155 7 C 129 18 106 33 87 53 C 67 72 52 96 41 124 C 30 152 25 183 25 217 C 25 249 30 280 41 308 C 52 336 67 361 87 381 C 106 401 129 416 156 428 C 182 440 211 446 243 446 C 289 446 327 436 356 418 C 384 400 403 379 412 355 C 420 375 439 396 467 416 C 495 436 532 446 576 446 C 644 446 696 422 731 376 C 766 330 784 267 784 189 L 459 189 C 461 153 473 125 497 104 C 520 82 550 72 586 72 C 620 72 645 77 663 88 C 680 99 695 111 708 124 L 767 67 C 750 47 728 30 702 14 C 675 -1 636 -9 584 -9 C 534 -9 494 0 466 20 C 438 40 419 60 411 81 C 407 71 400 60 390 50 C 380 40 367 30 353 21 C 339 12 322 5 303 0 C 284 -6 263 -9 241 -9 Z M 463 264 L 688 264 C 686 292 675 316 656 336 C 636 355 610 365 576 365 C 542 365 516 355 497 336 C 477 316 466 292 463 264 Z M 245 76 C 279 76 307 88 328 112 C 348 136 359 173 359 223 C 359 267 348 301 326 325 C 304 349 276 361 242 361 C 208 361 181 348 161 323 C 141 297 131 263 131 219 C 131 171 141 135 162 111 C 183 87 211 76 245 76 Z" unicode="œ" />
<glyph horiz-adv-x="575" d="M 81 0 L 81 0 Z M 81 0 L 81 730 L 286 730 C 345 730 394 712 433 678 C 472 643 492 594 492 530 C 492 468 477 419 448 384 C 418 348 385 328 347 323 L 344 320 L 558 0 L 435 0 L 238 296 L 188 296 L 188 0 L 81 0 Z M 188 391 L 265 391 C 299 391 328 401 350 423 C 372 445 384 475 384 514 C 384 550 372 578 350 599 C 328 620 300 631 267 631 L 188 631 L 188 391 Z M 273 791 L 273 791 Z M 165 791 L 263 957 L 383 957 L 265 791 L 165 791 Z" unicode="Ŕ" />
<glyph horiz-adv-x="362" d="M 53 0 L 53 0 Z M 361 415 L 325 331 C 311 341 297 348 284 352 C 271 355 259 357 247 357 C 225 357 204 348 184 330 C 164 312 154 285 154 249 L 154 0 L 53 0 L 53 436 L 151 436 L 151 364 C 157 382 170 400 192 418 C 213 436 240 446 273 446 C 291 446 308 443 324 437 C 339 431 351 423 361 415 Z M 206 497 L 206 497 Z M 98 497 L 196 663 L 316 663 L 198 497 L 98 497 Z" unicode="ŕ" />
<glyph horiz-adv-x="575" d="M 81 0 L 81 0 Z M 81 0 L 81 730 L 286 730 C 345 730 394 712 433 678 C 472 643 492 594 492 530 C 492 468 477 419 448 384 C 418 348 385 328 347 323 L 344 320 L 558 0 L 435 0 L 238 296 L 188 296 L 188 0 L 81 0 Z M 188 391 L 265 391 C 299 391 328 401 350 423 C 372 445 384 475 384 514 C 384 550 372 578 350 599 C 328 620 300 631 267 631 L 188 631 L 188 391 Z M 282 -72 L 282 -72 Z M 376 -72 C 374 -94 370 -118 363 -143 C 355 -167 346 -191 336 -214 C 325 -237 313 -258 301 -277 C 288 -296 276 -311 264 -323 L 187 -288 C 195 -278 203 -266 212 -250 C 220 -234 229 -217 237 -198 C 245 -179 252 -159 258 -137 C 264 -115 268 -93 271 -72 L 376 -72 Z" unicode="Ŗ" />
<glyph horiz-adv-x="362" d="M 53 0 L 53 0 Z M 361 415 L 325 331 C 311 341 297 348 284 352 C 271 355 259 357 247 357 C 225 357 204 348 184 330 C 164 312 154 285 154 249 L 154 0 L 53 0 L 53 436 L 151 436 L 151 364 C 157 382 170 400 192 418 C 213 436 240 446 273 446 C 291 446 308 443 324 437 C 339 431 351 423 361 415 Z M 179 -72 L 179 -72 Z M 273 -72 C 271 -94 267 -118 260 -143 C 252 -167 243 -191 233 -214 C 222 -237 210 -258 198 -277 C 185 -296 173 -311 161 -323 L 84 -288 C 92 -278 100 -266 109 -250 C 117 -234 126 -217 134 -198 C 142 -179 149 -159 155 -137 C 161 -115 165 -93 168 -72 L 273 -72 Z" unicode="ŗ" />
<glyph horiz-adv-x="575" d="M 81 0 L 81 0 Z M 81 0 L 81 730 L 286 730 C 345 730 394 712 433 678 C 472 643 492 594 492 530 C 492 468 477 419 448 384 C 418 348 385 328 347 323 L 344 320 L 558 0 L 435 0 L 238 296 L 188 296 L 188 0 L 81 0 Z M 188 391 L 265 391 C 299 391 328 401 350 423 C 372 445 384 475 384 514 C 384 550 372 578 350 599 C 328 620 300 631 267 631 L 188 631 L 188 391 Z M 273 792 L 273 792 Z M 110 964 L 200 964 L 274 862 L 349 964 L 437 964 L 322 792 L 225 792 L 110 964 Z" unicode="Ř" />
<glyph horiz-adv-x="362" d="M 43 0 L 43 0 Z M 361 415 L 325 331 C 311 341 297 348 284 352 C 271 355 259 357 247 357 C 225 357 204 348 184 330 C 164 312 154 285 154 249 L 154 0 L 53 0 L 53 436 L 151 436 L 151 364 C 157 382 170 400 192 418 C 213 436 240 446 273 446 C 291 446 308 443 324 437 C 339 431 351 423 361 415 Z M 206 498 L 206 498 Z M 43 670 L 133 670 L 207 568 L 282 670 L 370 670 L 255 498 L 158 498 L 43 670 Z" unicode="ř" />
<glyph horiz-adv-x="473" d="M 20 0 L 20 0 Z M 245 -10 C 197 -10 155 -2 117 12 C 79 26 46 49 20 80 L 81 160 C 98 137 121 119 150 106 C 178 92 208 86 239 86 C 269 86 295 95 316 113 C 336 131 347 156 347 187 C 347 215 337 240 318 261 C 299 281 266 303 220 326 C 169 351 127 381 93 415 C 59 449 43 496 43 558 C 43 612 61 655 98 689 C 135 723 183 740 241 740 C 281 740 316 734 348 722 C 379 710 406 694 429 675 L 375 591 C 358 605 339 617 317 627 C 295 637 273 642 249 642 C 218 642 193 633 175 616 C 157 599 148 578 148 553 C 148 526 156 503 174 485 C 192 467 228 445 284 419 C 342 390 385 358 412 322 C 439 286 453 242 453 188 C 453 156 447 128 435 103 C 423 78 408 57 389 41 C 370 24 348 11 323 3 C 297 -5 271 -10 245 -10 Z M 239 791 L 239 791 Z M 131 791 L 229 957 L 349 957 L 231 791 L 131 791 Z" unicode="Ś" />
<glyph horiz-adv-x="362" d="M 21 0 L 21 0 Z M 191 -10 C 153 -10 119 -4 91 6 C 62 16 39 31 21 49 L 71 118 C 85 104 102 94 123 86 C 144 78 166 74 189 74 C 206 74 220 78 231 86 C 242 94 248 106 248 121 C 248 135 240 146 225 156 C 210 165 187 175 157 186 C 119 198 88 215 66 236 C 43 256 32 285 32 321 C 32 357 46 386 75 410 C 103 434 139 446 181 446 C 212 446 240 441 266 431 C 291 421 311 411 326 399 L 276 333 C 266 340 252 347 236 353 C 219 359 201 363 183 363 C 167 363 153 360 141 355 C 129 349 123 340 123 328 C 123 317 128 308 138 301 C 148 293 171 283 205 271 C 247 255 279 237 303 217 C 326 197 338 167 338 127 C 338 84 323 50 295 26 C 267 2 232 -10 191 -10 Z M 185 497 L 185 497 Z M 77 497 L 175 663 L 295 663 L 177 497 L 77 497 Z" unicode="ś" />
<glyph horiz-adv-x="473" d="M 20 0 L 20 0 Z M 245 -10 C 197 -10 155 -2 117 12 C 79 26 46 49 20 80 L 81 160 C 98 137 121 119 150 106 C 178 92 208 86 239 86 C 269 86 295 95 316 113 C 336 131 347 156 347 187 C 347 215 337 240 318 261 C 299 281 266 303 220 326 C 169 351 127 381 93 415 C 59 449 43 496 43 558 C 43 612 61 655 98 689 C 135 723 183 740 241 740 C 281 740 316 734 348 722 C 379 710 406 694 429 675 L 375 591 C 358 605 339 617 317 627 C 295 637 273 642 249 642 C 218 642 193 633 175 616 C 157 599 148 578 148 553 C 148 526 156 503 174 485 C 192 467 228 445 284 419 C 342 390 385 358 412 322 C 439 286 453 242 453 188 C 453 156 447 128 435 103 C 423 78 408 57 389 41 C 370 24 348 11 323 3 C 297 -5 271 -10 245 -10 Z M 239 792 L 239 792 Z M 403 792 L 313 792 L 239 895 L 164 792 L 76 792 L 191 964 L 288 964 L 403 792 Z" unicode="Ŝ" />
<glyph horiz-adv-x="362" d="M 21 0 L 21 0 Z M 191 -10 C 153 -10 119 -4 91 6 C 62 16 39 31 21 49 L 71 118 C 85 104 102 94 123 86 C 144 78 166 74 189 74 C 206 74 220 78 231 86 C 242 94 248 106 248 121 C 248 135 240 146 225 156 C 210 165 187 175 157 186 C 119 198 88 215 66 236 C 43 256 32 285 32 321 C 32 357 46 386 75 410 C 103 434 139 446 181 446 C 212 446 240 441 266 431 C 291 421 311 411 326 399 L 276 333 C 266 340 252 347 236 353 C 219 359 201 363 183 363 C 167 363 153 360 141 355 C 129 349 123 340 123 328 C 123 317 128 308 138 301 C 148 293 171 283 205 271 C 247 255 279 237 303 217 C 326 197 338 167 338 127 C 338 84 323 50 295 26 C 267 2 232 -10 191 -10 Z M 185 498 L 185 498 Z M 349 498 L 259 498 L 185 601 L 110 498 L 22 498 L 137 670 L 234 670 L 349 498 Z" unicode="ŝ" />
<glyph horiz-adv-x="473" d="M 20 0 L 20 0 Z M 245 -10 C 197 -10 155 -2 117 12 C 79 26 46 49 20 80 L 81 160 C 98 137 121 119 150 106 C 178 92 208 86 239 86 C 269 86 295 95 316 113 C 336 131 347 156 347 187 C 347 215 337 240 318 261 C 299 281 266 303 220 326 C 169 351 127 381 93 415 C 59 449 43 496 43 558 C 43 612 61 655 98 689 C 135 723 183 740 241 740 C 281 740 316 734 348 722 C 379 710 406 694 429 675 L 375 591 C 358 605 339 617 317 627 C 295 637 273 642 249 642 C 218 642 193 633 175 616 C 157 599 148 578 148 553 C 148 526 156 503 174 485 C 192 467 228 445 284 419 C 342 390 385 358 412 322 C 439 286 453 242 453 188 C 453 156 447 128 435 103 C 423 78 408 57 389 41 C 370 24 348 11 323 3 C 297 -5 271 -10 245 -10 Z M 219 0 L 219 0 Z M 227 -188 C 203 -188 178 -185 154 -179 C 129 -173 110 -165 97 -156 L 109 -111 C 118 -116 130 -121 146 -127 C 162 -132 178 -135 196 -135 C 209 -135 221 -132 231 -126 C 241 -120 247 -111 247 -101 C 247 -89 242 -81 233 -76 C 224 -71 215 -69 205 -69 C 197 -69 190 -69 185 -70 C 179 -71 173 -73 167 -76 L 152 -59 L 213 13 L 274 13 L 224 -48 C 257 -41 285 -44 307 -57 C 329 -69 341 -88 341 -112 C 341 -136 329 -155 306 -168 C 283 -181 257 -188 227 -188 Z" unicode="Ş" />
<glyph horiz-adv-x="362" d="M 21 0 L 21 0 Z M 191 -10 C 153 -10 119 -4 91 6 C 62 16 39 31 21 49 L 71 118 C 85 104 102 94 123 86 C 144 78 166 74 189 74 C 206 74 220 78 231 86 C 242 94 248 106 248 121 C 248 135 240 146 225 156 C 210 165 187 175 157 186 C 119 198 88 215 66 236 C 43 256 32 285 32 321 C 32 357 46 386 75 410 C 103 434 139 446 181 446 C 212 446 240 441 266 431 C 291 421 311 411 326 399 L 276 333 C 266 340 252 347 236 353 C 219 359 201 363 183 363 C 167 363 153 360 141 355 C 129 349 123 340 123 328 C 123 317 128 308 138 301 C 148 293 171 283 205 271 C 247 255 279 237 303 217 C 326 197 338 167 338 127 C 338 84 323 50 295 26 C 267 2 232 -10 191 -10 Z M 171 0 L 171 0 Z M 179 -188 C 155 -188 130 -185 106 -179 C 81 -173 62 -165 49 -156 L 61 -111 C 70 -116 82 -121 98 -127 C 114 -132 130 -135 148 -135 C 161 -135 173 -132 183 -126 C 193 -120 199 -111 199 -101 C 199 -89 194 -81 185 -76 C 176 -71 167 -69 157 -69 C 149 -69 142 -69 137 -70 C 131 -71 125 -73 119 -76 L 104 -59 L 165 13 L 226 13 L 176 -48 C 209 -41 237 -44 259 -57 C 281 -69 293 -88 293 -112 C 293 -136 281 -155 258 -168 C 235 -181 209 -188 179 -188 Z" unicode="ş" />
<glyph horiz-adv-x="473" d="M 20 0 L 20 0 Z M 245 -10 C 197 -10 155 -2 117 12 C 79 26 46 49 20 80 L 81 160 C 98 137 121 119 150 106 C 178 92 208 86 239 86 C 269 86 295 95 316 113 C 336 131 347 156 347 187 C 347 215 337 240 318 261 C 299 281 266 303 220 326 C 169 351 127 381 93 415 C 59 449 43 496 43 558 C 43 612 61 655 98 689 C 135 723 183 740 241 740 C 281 740 316 734 348 722 C 379 710 406 694 429 675 L 375 591 C 358 605 339 617 317 627 C 295 637 273 642 249 642 C 218 642 193 633 175 616 C 157 599 148 578 148 553 C 148 526 156 503 174 485 C 192 467 228 445 284 419 C 342 390 385 358 412 322 C 439 286 453 242 453 188 C 453 156 447 128 435 103 C 423 78 408 57 389 41 C 370 24 348 11 323 3 C 297 -5 271 -10 245 -10 Z M 239 792 L 239 792 Z M 76 964 L 166 964 L 240 862 L 315 964 L 403 964 L 288 792 L 191 792 L 76 964 Z" unicode="Š" />
<glyph horiz-adv-x="362" d="M 21 0 L 21 0 Z M 191 -10 C 153 -10 119 -4 91 6 C 62 16 39 31 21 49 L 71 118 C 85 104 102 94 123 86 C 144 78 166 74 189 74 C 206 74 220 78 231 86 C 242 94 248 106 248 121 C 248 135 240 146 225 156 C 210 165 187 175 157 186 C 119 198 88 215 66 236 C 43 256 32 285 32 321 C 32 357 46 386 75 410 C 103 434 139 446 181 446 C 212 446 240 441 266 431 C 291 421 311 411 326 399 L 276 333 C 266 340 252 347 236 353 C 219 359 201 363 183 363 C 167 363 153 360 141 355 C 129 349 123 340 123 328 C 123 317 128 308 138 301 C 148 293 171 283 205 271 C 247 255 279 237 303 217 C 326 197 338 167 338 127 C 338 84 323 50 295 26 C 267 2 232 -10 191 -10 Z M 185 498 L 185 498 Z M 22 670 L 112 670 L 186 568 L 261 670 L 349 670 L 234 498 L 137 498 L 22 670 Z" unicode="š" />
<glyph horiz-adv-x="487" d="M 9 0 L 9 0 Z M 478 631 L 297 631 L 297 0 L 187 0 L 187 631 L 9 631 L 9 730 L 478 730 L 478 631 Z M 242 792 L 242 792 Z M 79 964 L 169 964 L 243 862 L 318 964 L 406 964 L 291 792 L 194 792 L 79 964 Z" unicode="Ť" />
<glyph horiz-adv-x="253" d="M 9 0 L 9 0 Z M 239 85 L 245 4 C 242 1 236 -1 226 -3 C 216 -5 205 -6 191 -6 C 177 -6 162 -4 147 0 C 131 3 117 9 105 19 C 92 28 81 40 73 56 C 65 72 61 92 61 117 L 61 347 L 9 347 L 9 436 L 62 436 L 62 555 L 160 567 L 160 436 L 235 436 L 235 347 L 161 347 L 161 131 C 161 111 165 98 175 91 C 184 84 197 81 214 81 C 217 81 222 81 228 82 C 234 83 238 84 239 85 Z M 340 621 L 335 480 L 249 480 L 244 621 L 244 730 L 340 730 L 340 621 Z" unicode="ť" />
<glyph horiz-adv-x="487" d="M 419 442 L 297 442 L 297 0 L 187 0 L 187 442 L 59 442 L 59 528 L 187 528 L 187 631 L 9 631 L 9 730 L 478 730 L 478 631 L 297 631 L 297 528 L 419 528 L 419 442 Z" unicode="Ŧ" />
<glyph horiz-adv-x="253" d="M 245 4 C 242 1 236 -1 226 -3 C 216 -5 205 -6 191 -6 C 177 -6 162 -4 147 0 C 131 3 117 9 105 19 C 92 28 81 40 73 56 C 65 72 61 92 61 117 L 61 211 L 19 211 L 19 297 L 61 297 L 61 347 L 9 347 L 9 436 L 62 436 L 62 555 L 160 567 L 160 436 L 235 436 L 235 347 L 161 347 L 161 297 L 225 297 L 225 211 L 161 211 L 161 131 C 161 111 165 98 175 91 C 184 84 197 81 214 81 C 217 81 222 81 228 82 C 234 83 238 84 239 85 L 245 4 Z" unicode="ŧ" />
<glyph horiz-adv-x="673" d="M 75 0 L 75 0 Z M 599 730 L 599 251 C 599 209 592 171 578 139 C 564 106 545 79 521 57 C 497 35 468 18 436 7 C 404 -4 370 -10 334 -10 C 298 -10 265 -4 233 6 C 201 17 174 33 151 55 C 127 76 109 103 95 136 C 81 169 75 207 75 251 L 75 730 L 182 730 L 182 245 C 182 196 196 158 226 130 C 255 102 291 89 334 89 C 377 89 414 102 445 129 C 475 155 491 194 491 245 L 491 730 L 599 730 Z M 335 798 L 335 798 Z M 420 938 L 495 938 C 495 890 488 854 474 832 C 460 809 443 798 422 798 C 403 798 387 801 373 808 C 359 814 348 821 340 827 C 331 832 322 837 314 843 C 305 849 296 852 288 852 C 279 852 272 847 266 838 C 260 828 257 816 257 801 L 182 801 C 182 848 190 883 208 907 C 226 930 245 942 266 942 C 282 942 296 938 308 932 C 320 925 331 918 342 911 C 350 905 358 899 366 893 C 374 887 382 884 390 884 C 397 884 404 888 410 898 C 416 908 420 921 420 938 Z" unicode="Ũ" />
<glyph horiz-adv-x="490" d="M 50 0 L 50 0 Z M 50 436 L 150 436 L 150 154 C 150 127 157 107 173 93 C 189 79 210 72 237 72 C 263 72 286 80 306 97 C 325 113 335 140 335 176 L 335 436 L 436 436 L 436 0 L 337 0 L 337 66 C 325 43 307 25 282 12 C 257 -1 228 -8 196 -8 C 154 -8 120 4 92 29 C 64 53 50 89 50 137 L 50 436 Z M 242 504 L 242 504 Z M 327 644 L 402 644 C 402 596 395 560 381 538 C 367 515 350 504 329 504 C 310 504 294 507 280 514 C 266 520 255 527 247 533 C 238 538 229 543 221 549 C 212 555 203 558 195 558 C 186 558 179 553 173 544 C 167 534 164 522 164 507 L 89 507 C 89 554 97 589 115 613 C 133 636 152 648 173 648 C 189 648 203 644 215 638 C 227 631 238 624 249 617 C 257 611 265 605 273 599 C 281 593 289 590 297 590 C 304 590 311 594 317 604 C 323 614 327 627 327 644 Z" unicode="ũ" />
<glyph horiz-adv-x="673" d="M 75 0 L 75 0 Z M 599 730 L 599 251 C 599 209 592 171 578 139 C 564 106 545 79 521 57 C 497 35 468 18 436 7 C 404 -4 370 -10 334 -10 C 298 -10 265 -4 233 6 C 201 17 174 33 151 55 C 127 76 109 103 95 136 C 81 169 75 207 75 251 L 75 730 L 182 730 L 182 245 C 182 196 196 158 226 130 C 255 102 291 89 334 89 C 377 89 414 102 445 129 C 475 155 491 194 491 245 L 491 730 L 599 730 Z M 335 814 L 335 814 Z M 465 814 L 205 814 L 205 889 L 465 889 L 465 814 Z" unicode="Ū" />
<glyph horiz-adv-x="490" d="M 50 0 L 50 0 Z M 50 436 L 150 436 L 150 154 C 150 127 157 107 173 93 C 189 79 210 72 237 72 C 263 72 286 80 306 97 C 325 113 335 140 335 176 L 335 436 L 436 436 L 436 0 L 337 0 L 337 66 C 325 43 307 25 282 12 C 257 -1 228 -8 196 -8 C 154 -8 120 4 92 29 C 64 53 50 89 50 137 L 50 436 Z M 242 520 L 242 520 Z M 372 520 L 112 520 L 112 595 L 372 595 L 372 520 Z" unicode="ū" />
<glyph horiz-adv-x="673" d="M 75 0 L 75 0 Z M 599 730 L 599 251 C 599 209 592 171 578 139 C 564 106 545 79 521 57 C 497 35 468 18 436 7 C 404 -4 370 -10 334 -10 C 298 -10 265 -4 233 6 C 201 17 174 33 151 55 C 127 76 109 103 95 136 C 81 169 75 207 75 251 L 75 730 L 182 730 L 182 245 C 182 196 196 158 226 130 C 255 102 291 89 334 89 C 377 89 414 102 445 129 C 475 155 491 194 491 245 L 491 730 L 599 730 Z M 335 796 L 335 796 Z M 404 954 L 488 954 C 484 898 468 858 440 833 C 412 808 377 796 335 796 C 293 796 258 808 230 833 C 202 858 186 898 182 954 L 267 954 C 269 924 275 901 285 884 C 295 866 312 858 335 858 C 357 858 374 866 385 883 C 395 899 402 923 404 954 Z" unicode="Ŭ" />
<glyph horiz-adv-x="490" d="M 50 0 L 50 0 Z M 50 436 L 150 436 L 150 154 C 150 127 157 107 173 93 C 189 79 210 72 237 72 C 263 72 286 80 306 97 C 325 113 335 140 335 176 L 335 436 L 436 436 L 436 0 L 337 0 L 337 66 C 325 43 307 25 282 12 C 257 -1 228 -8 196 -8 C 154 -8 120 4 92 29 C 64 53 50 89 50 137 L 50 436 Z M 242 502 L 242 502 Z M 311 660 L 395 660 C 391 604 375 564 347 539 C 319 514 284 502 242 502 C 200 502 165 514 137 539 C 109 564 93 604 89 660 L 174 660 C 176 630 182 607 192 590 C 202 572 219 564 242 564 C 264 564 281 572 292 589 C 302 605 309 629 311 660 Z" unicode="ŭ" />
<glyph horiz-adv-x="673" d="M 75 0 L 75 0 Z M 599 730 L 599 251 C 599 209 592 171 578 139 C 564 106 545 79 521 57 C 497 35 468 18 436 7 C 404 -4 370 -10 334 -10 C 298 -10 265 -4 233 6 C 201 17 174 33 151 55 C 127 76 109 103 95 136 C 81 169 75 207 75 251 L 75 730 L 182 730 L 182 245 C 182 196 196 158 226 130 C 255 102 291 89 334 89 C 377 89 414 102 445 129 C 475 155 491 194 491 245 L 491 730 L 599 730 Z M 335 788 L 335 788 Z M 335 788 C 303 788 276 799 254 821 C 232 843 221 871 221 903 C 221 935 232 962 254 984 C 276 1006 303 1017 335 1017 C 367 1017 395 1006 417 984 C 439 962 450 935 450 903 C 450 871 439 843 417 821 C 395 799 367 788 335 788 Z M 335 847 C 350 847 363 852 373 863 C 383 873 389 887 389 903 C 389 918 383 931 373 942 C 363 953 350 959 335 959 C 320 959 307 953 297 942 C 286 931 281 918 281 903 C 281 887 286 873 297 863 C 307 852 320 847 335 847 Z" unicode="Ů" />
<glyph horiz-adv-x="490" d="M 50 0 L 50 0 Z M 50 436 L 150 436 L 150 154 C 150 127 157 107 173 93 C 189 79 210 72 237 72 C 263 72 286 80 306 97 C 325 113 335 140 335 176 L 335 436 L 436 436 L 436 0 L 337 0 L 337 66 C 325 43 307 25 282 12 C 257 -1 228 -8 196 -8 C 154 -8 120 4 92 29 C 64 53 50 89 50 137 L 50 436 Z M 242 494 L 242 494 Z M 242 494 C 210 494 183 505 161 527 C 139 549 128 577 128 609 C 128 641 139 668 161 690 C 183 712 210 723 242 723 C 274 723 302 712 324 690 C 346 668 357 641 357 609 C 357 577 346 549 324 527 C 302 505 274 494 242 494 Z M 242 553 C 257 553 270 558 280 569 C 290 579 296 593 296 609 C 296 624 290 637 280 648 C 270 659 257 665 242 665 C 227 665 214 659 204 648 C 193 637 188 624 188 609 C 188 593 193 579 204 569 C 214 558 227 553 242 553 Z" unicode="ů" />
<glyph horiz-adv-x="673" d="M 75 0 L 75 0 Z M 599 730 L 599 251 C 599 209 592 171 578 139 C 564 106 545 79 521 57 C 497 35 468 18 436 7 C 404 -4 370 -10 334 -10 C 298 -10 265 -4 233 6 C 201 17 174 33 151 55 C 127 76 109 103 95 136 C 81 169 75 207 75 251 L 75 730 L 182 730 L 182 245 C 182 196 196 158 226 130 C 255 102 291 89 334 89 C 377 89 414 102 445 129 C 475 155 491 194 491 245 L 491 730 L 599 730 Z M 335 791 L 335 791 Z M 145 791 L 230 945 L 338 945 L 235 791 L 145 791 Z M 331 791 L 417 945 L 525 945 L 421 791 L 331 791 Z" unicode="Ű" />
<glyph horiz-adv-x="490" d="M 50 0 L 50 0 Z M 50 436 L 150 436 L 150 154 C 150 127 157 107 173 93 C 189 79 210 72 237 72 C 263 72 286 80 306 97 C 325 113 335 140 335 176 L 335 436 L 436 436 L 436 0 L 337 0 L 337 66 C 325 43 307 25 282 12 C 257 -1 228 -8 196 -8 C 154 -8 120 4 92 29 C 64 53 50 89 50 137 L 50 436 Z M 242 497 L 242 497 Z M 52 497 L 137 651 L 245 651 L 142 497 L 52 497 Z M 238 497 L 324 651 L 432 651 L 328 497 L 238 497 Z" unicode="ű" />
<glyph horiz-adv-x="673" d="M 75 0 L 75 0 Z M 599 730 L 599 251 C 599 209 592 171 578 139 C 564 106 545 79 521 57 C 497 35 468 18 436 7 C 404 -4 370 -10 334 -10 C 298 -10 265 -4 233 6 C 201 17 174 33 151 55 C 127 76 109 103 95 136 C 81 169 75 207 75 251 L 75 730 L 182 730 L 182 245 C 182 196 196 158 226 130 C 255 102 291 89 334 89 C 377 89 414 102 445 129 C 475 155 491 194 491 245 L 491 730 L 599 730 Z M 380 -8 L 380 -8 Z M 481 -91 L 510 -134 C 490 -155 467 -171 442 -182 C 417 -193 389 -199 359 -199 C 325 -199 298 -191 278 -177 C 258 -162 249 -143 249 -121 C 249 -96 260 -73 282 -51 C 304 -29 335 -10 376 5 L 430 5 C 403 -7 381 -21 363 -36 C 345 -50 336 -65 336 -80 C 336 -93 341 -103 351 -111 C 361 -119 375 -123 392 -123 C 410 -123 427 -120 443 -114 C 458 -108 471 -100 481 -91 Z" unicode="Ų" />
<glyph horiz-adv-x="490" d="M 50 0 L 50 0 Z M 50 436 L 150 436 L 150 154 C 150 127 157 107 173 93 C 189 79 210 72 237 72 C 263 72 286 80 306 97 C 325 113 335 140 335 176 L 335 436 L 436 436 L 436 0 L 337 0 L 337 66 C 325 43 307 25 282 12 C 257 -1 228 -8 196 -8 C 154 -8 120 4 92 29 C 64 53 50 89 50 137 L 50 436 Z M 349 -8 L 349 -8 Z M 450 -91 L 479 -134 C 459 -155 436 -171 411 -182 C 386 -193 358 -199 328 -199 C 294 -199 267 -191 247 -177 C 227 -162 218 -143 218 -121 C 218 -96 229 -73 251 -51 C 273 -29 304 -10 345 5 L 399 5 C 372 -7 350 -21 332 -36 C 314 -50 305 -65 305 -80 C 305 -93 310 -103 320 -111 C 330 -119 344 -123 361 -123 C 379 -123 396 -120 412 -114 C 427 -108 440 -100 450 -91 Z" unicode="ų" />
<glyph horiz-adv-x="848" d="M 4 0 L 4 0 Z M 839 730 L 636 -6 L 573 -6 L 423 515 L 266 -6 L 203 -6 L 4 730 L 111 730 L 242 223 L 394 730 L 460 730 L 607 222 L 740 730 L 839 730 Z M 427 792 L 427 792 Z M 591 792 L 501 792 L 427 895 L 352 792 L 264 792 L 379 964 L 476 964 L 591 792 Z" unicode="Ŵ" />
<glyph horiz-adv-x="631" d="M 4 0 L 4 0 Z M 414 -3 L 316 260 L 216 -3 L 151 -3 L 4 436 L 107 436 L 195 149 L 289 403 L 350 403 L 443 149 L 534 436 L 627 436 L 478 -3 L 414 -3 Z M 316 498 L 316 498 Z M 480 498 L 390 498 L 316 601 L 241 498 L 153 498 L 268 670 L 365 670 L 480 498 Z" unicode="ŵ" />
<glyph horiz-adv-x="558" d="M 0 0 L 0 0 Z M 592 730 L 348 319 L 348 0 L 238 0 L 238 323 L -1 730 L 119 730 L 298 426 L 477 730 L 592 730 Z M 296 792 L 296 792 Z M 460 792 L 370 792 L 296 895 L 221 792 L 133 792 L 248 964 L 345 964 L 460 792 Z" unicode="Ŷ" />
<glyph horiz-adv-x="437" d="M 0 0 L 0 0 Z M 438 436 L 210 -95 C 191 -137 168 -165 142 -179 C 115 -193 89 -200 63 -200 C 49 -200 36 -198 25 -195 C 14 -192 6 -189 0 -187 L 28 -98 C 30 -99 36 -101 44 -103 C 52 -105 60 -107 68 -107 C 80 -107 92 -102 102 -94 C 112 -86 123 -70 134 -48 L 170 39 L -4 436 L 105 436 L 221 152 L 336 436 L 438 436 Z M 219 498 L 219 498 Z M 383 498 L 293 498 L 219 601 L 144 498 L 56 498 L 171 670 L 268 670 L 383 498 Z" unicode="ŷ" />
<glyph horiz-adv-x="590" d="M 0 0 L 0 0 Z M 592 730 L 348 319 L 348 0 L 238 0 L 238 323 L -1 730 L 119 730 L 298 426 L 477 730 L 592 730 Z M 296 792 L 296 792 Z M 427 792 L 342 792 L 342 951 L 427 951 L 427 792 Z M 250 792 L 165 792 L 165 951 L 250 951 L 250 792 Z" unicode="Ÿ" />
<glyph horiz-adv-x="514" d="M 15 0 L 15 0 Z M 503 730 L 503 681 L 162 99 L 515 99 L 515 0 L 15 0 L 15 47 L 355 630 L 44 630 L 44 730 L 503 730 Z M 268 791 L 268 791 Z M 160 791 L 258 957 L 378 957 L 260 791 L 160 791 Z" unicode="Ź" />
<glyph horiz-adv-x="369" d="M 10 0 L 10 0 Z M 354 436 L 354 388 L 157 89 L 358 89 L 358 0 L 10 0 L 10 32 L 217 347 L 23 347 L 23 436 L 354 436 Z M 190 497 L 190 497 Z M 82 497 L 180 663 L 300 663 L 182 497 L 82 497 Z" unicode="ź" />
<glyph horiz-adv-x="514" d="M 15 0 L 15 0 Z M 503 730 L 503 681 L 162 99 L 515 99 L 515 0 L 15 0 L 15 47 L 355 630 L 44 630 L 44 730 L 503 730 Z M 268 799 L 268 799 Z M 315 799 L 222 799 L 222 949 L 315 949 L 315 799 Z" unicode="Ż" />
<glyph horiz-adv-x="369" d="M 10 0 L 10 0 Z M 354 436 L 354 388 L 157 89 L 358 89 L 358 0 L 10 0 L 10 32 L 217 347 L 23 347 L 23 436 L 354 436 Z M 190 505 L 190 505 Z M 237 505 L 144 505 L 144 655 L 237 655 L 237 505 Z" unicode="ż" />
<glyph horiz-adv-x="538" d="M 15 0 L 15 0 Z M 503 730 L 503 681 L 162 99 L 515 99 L 515 0 L 15 0 L 15 47 L 355 630 L 44 630 L 44 730 L 503 730 Z M 268 792 L 268 792 Z M 105 964 L 195 964 L 269 862 L 344 964 L 432 964 L 317 792 L 220 792 L 105 964 Z" unicode="Ž" />
<glyph horiz-adv-x="369" d="M 10 0 L 10 0 Z M 354 436 L 354 388 L 157 89 L 358 89 L 358 0 L 10 0 L 10 32 L 217 347 L 23 347 L 23 436 L 354 436 Z M 190 498 L 190 498 Z M 27 670 L 117 670 L 191 568 L 266 670 L 354 670 L 239 498 L 142 498 L 27 670 Z" unicode="ž" />
<glyph horiz-adv-x="363" d="M 190 -57 C 187 -89 174 -117 151 -142 C 127 -166 98 -179 62 -179 C 43 -179 25 -177 8 -174 C -9 -171 -22 -168 -31 -164 L -21 -89 C -16 -89 -9 -91 0 -93 C 10 -95 19 -96 28 -96 C 47 -96 63 -89 76 -76 C 89 -62 97 -43 100 -19 L 131 326 L 40 326 L 40 411 L 138 411 L 157 625 C 159 644 164 661 172 676 C 180 690 191 702 203 712 C 215 722 228 729 242 734 C 256 739 270 742 284 742 C 298 742 311 741 325 740 C 339 739 347 738 350 738 L 342 649 C 340 649 336 650 330 651 C 324 651 318 652 312 652 C 293 652 278 645 266 633 C 254 620 247 600 245 574 L 231 411 L 334 411 L 334 326 L 223 326 L 190 -57 Z" unicode="ƒ" />
<glyph horiz-adv-x="473" d="M 20 0 L 20 0 Z M 245 -10 C 197 -10 155 -2 117 12 C 79 26 46 49 20 80 L 81 160 C 98 137 121 119 150 106 C 178 92 208 86 239 86 C 269 86 295 95 316 113 C 336 131 347 156 347 187 C 347 215 337 240 318 261 C 299 281 266 303 220 326 C 169 351 127 381 93 415 C 59 449 43 496 43 558 C 43 612 61 655 98 689 C 135 723 183 740 241 740 C 281 740 316 734 348 722 C 379 710 406 694 429 675 L 375 591 C 358 605 339 617 317 627 C 295 637 273 642 249 642 C 218 642 193 633 175 616 C 157 599 148 578 148 553 C 148 526 156 503 174 485 C 192 467 228 445 284 419 C 342 390 385 358 412 322 C 439 286 453 242 453 188 C 453 156 447 128 435 103 C 423 78 408 57 389 41 C 370 24 348 11 323 3 C 297 -5 271 -10 245 -10 Z M 219 -72 L 219 -72 Z M 313 -72 C 311 -94 307 -118 300 -143 C 292 -167 283 -191 273 -214 C 262 -237 250 -258 238 -277 C 225 -296 213 -311 201 -323 L 124 -288 C 132 -278 140 -266 149 -250 C 157 -234 166 -217 174 -198 C 182 -179 189 -159 195 -137 C 201 -115 205 -93 208 -72 L 313 -72 Z" unicode="Ș" />
<glyph horiz-adv-x="362" d="M 21 0 L 21 0 Z M 191 -10 C 153 -10 119 -4 91 6 C 62 16 39 31 21 49 L 71 118 C 85 104 102 94 123 86 C 144 78 166 74 189 74 C 206 74 220 78 231 86 C 242 94 248 106 248 121 C 248 135 240 146 225 156 C 210 165 187 175 157 186 C 119 198 88 215 66 236 C 43 256 32 285 32 321 C 32 357 46 386 75 410 C 103 434 139 446 181 446 C 212 446 240 441 266 431 C 291 421 311 411 326 399 L 276 333 C 266 340 252 347 236 353 C 219 359 201 363 183 363 C 167 363 153 360 141 355 C 129 349 123 340 123 328 C 123 317 128 308 138 301 C 148 293 171 283 205 271 C 247 255 279 237 303 217 C 326 197 338 167 338 127 C 338 84 323 50 295 26 C 267 2 232 -10 191 -10 Z M 171 -72 L 171 -72 Z M 265 -72 C 263 -94 259 -118 252 -143 C 244 -167 235 -191 225 -214 C 214 -237 202 -258 190 -277 C 177 -296 165 -311 153 -323 L 76 -288 C 84 -278 92 -266 101 -250 C 109 -234 118 -217 126 -198 C 134 -179 141 -159 147 -137 C 153 -115 157 -93 160 -72 L 265 -72 Z" unicode="ș" />
<glyph horiz-adv-x="487" d="M 9 0 L 9 0 Z M 478 631 L 297 631 L 297 0 L 187 0 L 187 631 L 9 631 L 9 730 L 478 730 L 478 631 Z M 219 -72 L 219 -72 Z M 313 -72 C 311 -94 307 -118 300 -143 C 292 -167 283 -191 273 -214 C 262 -237 250 -258 238 -277 C 225 -296 213 -311 201 -323 L 124 -288 C 132 -278 140 -266 149 -250 C 157 -234 166 -217 174 -198 C 182 -179 189 -159 195 -137 C 201 -115 205 -93 208 -72 L 313 -72 Z" unicode="Ț" />
<glyph horiz-adv-x="253" d="M 9 0 L 9 0 Z M 239 85 L 245 4 C 242 1 236 -1 226 -3 C 216 -5 205 -6 191 -6 C 177 -6 162 -4 147 0 C 131 3 117 9 105 19 C 92 28 81 40 73 56 C 65 72 61 92 61 117 L 61 347 L 9 347 L 9 436 L 62 436 L 62 555 L 160 567 L 160 436 L 235 436 L 235 347 L 161 347 L 161 131 C 161 111 165 98 175 91 C 184 84 197 81 214 81 C 217 81 222 81 228 82 C 234 83 238 84 239 85 Z M 127 -72 L 127 -72 Z M 221 -72 C 219 -94 215 -118 208 -143 C 200 -167 191 -191 181 -214 C 170 -237 158 -258 146 -277 C 133 -296 121 -311 109 -323 L 32 -288 C 40 -278 48 -266 57 -250 C 65 -234 74 -217 82 -198 C 90 -179 97 -159 103 -137 C 109 -115 113 -93 116 -72 L 221 -72 Z" unicode="ț" />
<glyph horiz-adv-x="209" d="M 156 436 L 156 -76 C 156 -110 145 -139 123 -164 C 101 -189 71 -202 33 -202 C 22 -202 10 -201 -2 -199 C -15 -197 -25 -195 -31 -193 L -23 -111 C -20 -111 -15 -112 -9 -113 C -3 -113 2 -114 8 -114 C 21 -114 32 -109 41 -100 C 50 -91 55 -78 55 -60 L 55 436 L 156 436 Z" unicode="ȷ" />
<glyph horiz-adv-x="500" d="M 414 498 L 324 498 L 250 601 L 175 498 L 87 498 L 202 670 L 299 670 L 414 498 Z" unicode="ˆ" />
<glyph horiz-adv-x="500" d="M 87 670 L 177 670 L 251 568 L 326 670 L 414 670 L 299 498 L 202 498 L 87 670 Z" unicode="ˇ" />
<glyph horiz-adv-x="500" d="M 319 660 L 403 660 C 399 604 383 564 355 539 C 327 514 292 502 250 502 C 208 502 173 514 145 539 C 117 564 101 604 97 660 L 182 660 C 184 630 190 607 200 590 C 210 572 227 564 250 564 C 272 564 289 572 300 589 C 310 605 317 629 319 660 Z" unicode="˘" />
<glyph horiz-adv-x="500" d="M 297 505 L 204 505 L 204 655 L 297 655 L 297 505 Z" unicode="˙" />
<glyph horiz-adv-x="500" d="M 250 494 C 218 494 191 505 169 527 C 147 549 136 577 136 609 C 136 641 147 668 169 690 C 191 712 218 723 250 723 C 282 723 310 712 332 690 C 354 668 365 641 365 609 C 365 577 354 549 332 527 C 310 505 282 494 250 494 Z M 250 553 C 265 553 278 558 288 569 C 298 579 304 593 304 609 C 304 624 298 637 288 648 C 278 659 265 665 250 665 C 235 665 222 659 212 648 C 201 637 196 624 196 609 C 196 593 201 579 212 569 C 222 558 235 553 250 553 Z" unicode="˚" />
<glyph horiz-adv-x="500" d="M 359 -83 L 388 -126 C 368 -147 345 -163 320 -174 C 295 -185 267 -191 237 -191 C 203 -191 176 -183 156 -169 C 136 -154 127 -135 127 -113 C 127 -88 138 -65 160 -43 C 182 -21 213 -2 254 13 L 308 13 C 281 0 259 -13 241 -28 C 223 -42 214 -57 214 -72 C 214 -85 219 -95 229 -103 C 239 -111 253 -115 270 -115 C 288 -115 305 -112 321 -106 C 336 -100 349 -92 359 -83 Z" unicode="˛" />
<glyph horiz-adv-x="500" d="M 336 644 L 411 644 C 411 596 404 560 390 538 C 376 515 359 504 338 504 C 319 504 303 507 289 514 C 275 520 264 527 256 533 C 247 538 238 543 230 549 C 221 555 212 558 204 558 C 195 558 188 553 182 544 C 176 534 173 522 173 507 L 98 507 C 98 554 106 589 124 613 C 142 636 161 648 182 648 C 198 648 212 644 224 638 C 236 631 247 624 258 617 C 266 611 274 605 282 599 C 290 593 298 590 306 590 C 313 590 320 594 326 604 C 332 614 336 627 336 644 Z" unicode="˜" />
<glyph horiz-adv-x="500" d="M 76 497 L 161 651 L 269 651 L 166 497 L 76 497 Z M 262 497 L 348 651 L 456 651 L 352 497 L 262 497 Z" unicode="˝" />
<glyph horiz-adv-x="0" d="M 0 497 L 0 497 Z M 109 497 L 8 497 L -109 663 L 10 663 L 109 497 Z" unicode="̀" />
<glyph horiz-adv-x="0" d="M 0 497 L 0 497 Z M -108 497 L -10 663 L 110 663 L -8 497 L -108 497 Z" unicode="́" />
<glyph horiz-adv-x="0" d="M 0 498 L 0 498 Z M 164 498 L 74 498 L 0 601 L -75 498 L -163 498 L -48 670 L 49 670 L 164 498 Z" unicode="̂" />
<glyph horiz-adv-x="0" d="M 0 504 L 0 504 Z M 85 644 L 160 644 C 160 596 153 560 139 538 C 125 515 108 504 87 504 C 68 504 52 507 38 514 C 24 520 13 527 5 533 C -3 538 -12 543 -21 549 C -29 555 -38 558 -47 558 C -55 558 -63 553 -69 544 C -75 534 -78 522 -78 507 L -153 507 C -153 554 -144 589 -126 613 C -108 636 -89 648 -69 648 C -52 648 -38 644 -26 638 C -14 631 -3 624 7 617 C 15 611 23 605 31 599 C 39 593 47 590 55 590 C 62 590 69 594 75 604 C 81 614 85 627 85 644 Z" unicode="̃" />
<glyph horiz-adv-x="0" d="M 0 520 L 0 520 Z M 130 520 L -130 520 L -130 595 L 130 595 L 130 520 Z" unicode="̄" />
<glyph horiz-adv-x="0" d="M 0 502 L 0 502 Z M 69 660 L 153 660 C 149 604 133 564 105 539 C 77 514 42 502 0 502 C -42 502 -77 514 -105 539 C -133 564 -149 604 -153 660 L -68 660 C -66 630 -59 607 -49 590 C -39 572 -22 564 0 564 C 22 564 39 572 50 589 C 60 605 67 629 69 660 Z" unicode="̆" />
<glyph horiz-adv-x="0" d="M 0 505 L 0 505 Z M 47 505 L -46 505 L -46 655 L 47 655 L 47 505 Z" unicode="̇" />
<glyph horiz-adv-x="0" d="M 0 498 L 0 498 Z M 131 498 L 46 498 L 46 657 L 131 657 L 131 498 Z M -46 498 L -131 498 L -131 657 L -46 657 L -46 498 Z" unicode="̈" />
<glyph horiz-adv-x="0" d="M 0 494 L 0 494 Z M 0 494 C -32 494 -59 505 -81 527 C -103 549 -114 577 -114 609 C -114 641 -103 668 -81 690 C -59 712 -32 723 0 723 C 32 723 60 712 82 690 C 104 668 115 641 115 609 C 115 577 104 549 82 527 C 60 505 32 494 0 494 Z M 0 553 C 15 553 28 558 38 569 C 48 579 54 593 54 609 C 54 624 48 637 38 648 C 28 659 15 665 0 665 C -14 665 -27 659 -38 648 C -48 637 -54 624 -54 609 C -54 593 -48 579 -38 569 C -27 558 -14 553 0 553 Z" unicode="̊" />
<glyph horiz-adv-x="0" d="M 0 497 L 0 497 Z M -190 497 L -105 651 L 3 651 L -100 497 L -190 497 Z M -4 497 L 82 651 L 190 651 L 86 497 L -4 497 Z" unicode="̋" />
<glyph horiz-adv-x="0" d="M 0 498 L 0 498 Z M -163 670 L -73 670 L 1 568 L 76 670 L 164 670 L 49 498 L -48 498 L -163 670 Z" unicode="̌" />
<glyph horiz-adv-x="0" d="M 0 -72 L 0 -72 Z M 94 -72 C 92 -94 88 -118 81 -143 C 73 -167 64 -191 54 -214 C 43 -237 31 -258 19 -277 C 6 -296 -6 -311 -18 -323 L -95 -288 C -87 -278 -78 -266 -70 -250 C -61 -234 -53 -217 -45 -198 C -37 -179 -30 -159 -24 -137 C -18 -115 -13 -93 -11 -72 L 94 -72 Z" unicode="̦" />
<glyph horiz-adv-x="0" d="M 0 0 L 0 0 Z M 8 -188 C -16 -188 -40 -185 -65 -179 C -89 -173 -108 -165 -122 -156 L -110 -111 C -100 -116 -88 -121 -72 -127 C -56 -132 -40 -135 -23 -135 C -9 -135 2 -132 12 -126 C 22 -120 28 -111 28 -101 C 28 -89 23 -81 14 -76 C 5 -71 -4 -69 -14 -69 C -22 -69 -28 -69 -34 -70 C -39 -71 -45 -73 -52 -76 L -67 -59 L -6 13 L 55 13 L 5 -48 C 38 -41 66 -44 88 -57 C 110 -69 122 -88 122 -112 C 122 -136 110 -155 87 -168 C 64 -181 38 -188 8 -188 Z" unicode="̧" />
<glyph horiz-adv-x="0" d="M 0 0 L 0 0 Z M 101 -83 L 130 -126 C 110 -147 87 -163 62 -174 C 37 -185 9 -191 -21 -191 C -55 -191 -81 -183 -101 -169 C -121 -154 -131 -135 -131 -113 C -131 -88 -120 -65 -98 -43 C -76 -21 -44 -2 -4 13 L 50 13 C 23 0 1 -13 -17 -28 C -35 -42 -44 -57 -44 -72 C -44 -85 -38 -95 -28 -103 C -18 -111 -4 -115 12 -115 C 30 -115 47 -112 63 -106 C 78 -100 91 -92 101 -83 Z" unicode="̨" />
<glyph horiz-adv-x="563" d="M 0 0 L 0 0 Z M 613 0 L 0 0 L 292 730 L 323 730 L 613 0 Z M 475 83 L 304 532 L 135 83 L 475 83 Z" unicode="Δ" />
<glyph horiz-adv-x="724" d="M 39 0 L 39 0 Z M 48 0 L 48 94 L 248 94 L 248 161 C 216 173 187 188 161 208 C 135 227 113 249 95 274 C 77 298 63 325 53 355 C 43 384 39 414 39 446 C 39 488 46 527 62 564 C 78 600 100 632 129 659 C 158 686 194 707 236 723 C 278 739 326 747 378 747 C 432 747 481 739 525 723 C 568 707 604 685 634 658 C 664 631 686 599 702 563 C 718 526 726 487 726 446 C 726 382 708 325 674 274 C 639 222 586 185 516 161 L 516 94 L 716 94 L 716 0 L 429 0 L 429 212 C 487 230 533 261 565 303 C 597 345 614 391 614 441 C 614 473 608 502 596 529 C 584 556 567 579 547 599 C 526 618 501 633 472 644 C 443 655 412 661 379 661 C 346 661 316 655 288 644 C 260 633 235 618 215 598 C 195 578 179 555 168 528 C 156 501 151 471 151 439 C 151 391 166 346 198 305 C 229 263 275 232 335 212 L 335 0 L 48 0 Z" unicode="Ω" />
<glyph horiz-adv-x="588" d="M 66 0 L 66 0 Z M 66 -103 L 66 448 L 167 448 L 167 160 C 167 132 177 111 197 96 C 217 80 241 73 271 73 C 303 73 331 82 355 100 C 379 118 392 146 392 182 L 392 448 L 492 448 L 492 0 L 400 0 L 400 92 C 388 64 369 41 343 23 C 316 4 286 -5 253 -7 C 231 -7 212 -3 195 5 C 178 14 166 26 159 42 L 159 -103 L 66 -103 Z" unicode="μ" />
<glyph horiz-adv-x="602" d="M 188 439 L 188 0 L 88 0 L 88 439 L 15 439 L 15 518 L 587 518 L 587 439 L 511 439 L 511 0 L 410 0 L 410 439 L 188 439 Z" unicode="π" />
<glyph horiz-adv-x="848" d="M 4 0 L 4 0 Z M 839 730 L 636 -6 L 573 -6 L 423 515 L 266 -6 L 203 -6 L 4 730 L 111 730 L 242 223 L 394 730 L 460 730 L 607 222 L 740 730 L 839 730 Z M 427 791 L 427 791 Z M 536 791 L 435 791 L 318 957 L 437 957 L 536 791 Z" unicode="Ẁ" />
<glyph horiz-adv-x="631" d="M 4 0 L 4 0 Z M 414 -3 L 316 260 L 216 -3 L 151 -3 L 4 436 L 107 436 L 195 149 L 289 403 L 350 403 L 443 149 L 534 436 L 627 436 L 478 -3 L 414 -3 Z M 316 497 L 316 497 Z M 425 497 L 324 497 L 207 663 L 326 663 L 425 497 Z" unicode="ẁ" />
<glyph horiz-adv-x="848" d="M 4 0 L 4 0 Z M 839 730 L 636 -6 L 573 -6 L 423 515 L 266 -6 L 203 -6 L 4 730 L 111 730 L 242 223 L 394 730 L 460 730 L 607 222 L 740 730 L 839 730 Z M 427 791 L 427 791 Z M 319 791 L 417 957 L 537 957 L 419 791 L 319 791 Z" unicode="Ẃ" />
<glyph horiz-adv-x="631" d="M 4 0 L 4 0 Z M 414 -3 L 316 260 L 216 -3 L 151 -3 L 4 436 L 107 436 L 195 149 L 289 403 L 350 403 L 443 149 L 534 436 L 627 436 L 478 -3 L 414 -3 Z M 316 497 L 316 497 Z M 208 497 L 306 663 L 426 663 L 308 497 L 208 497 Z" unicode="ẃ" />
<glyph horiz-adv-x="848" d="M 4 0 L 4 0 Z M 839 730 L 636 -6 L 573 -6 L 423 515 L 266 -6 L 203 -6 L 4 730 L 111 730 L 242 223 L 394 730 L 460 730 L 607 222 L 740 730 L 839 730 Z M 427 792 L 427 792 Z M 558 792 L 473 792 L 473 951 L 558 951 L 558 792 Z M 381 792 L 296 792 L 296 951 L 381 951 L 381 792 Z" unicode="Ẅ" />
<glyph horiz-adv-x="631" d="M 4 0 L 4 0 Z M 414 -3 L 316 260 L 216 -3 L 151 -3 L 4 436 L 107 436 L 195 149 L 289 403 L 350 403 L 443 149 L 534 436 L 627 436 L 478 -3 L 414 -3 Z M 316 498 L 316 498 Z M 447 498 L 362 498 L 362 657 L 447 657 L 447 498 Z M 270 498 L 185 498 L 185 657 L 270 657 L 270 498 Z" unicode="ẅ" />
<glyph horiz-adv-x="558" d="M 0 0 L 0 0 Z M 592 730 L 348 319 L 348 0 L 238 0 L 238 323 L -1 730 L 119 730 L 298 426 L 477 730 L 592 730 Z M 296 791 L 296 791 Z M 405 791 L 304 791 L 187 957 L 306 957 L 405 791 Z" unicode="Ỳ" />
<glyph horiz-adv-x="437" d="M 0 0 L 0 0 Z M 438 436 L 210 -95 C 191 -137 168 -165 142 -179 C 115 -193 89 -200 63 -200 C 49 -200 36 -198 25 -195 C 14 -192 6 -189 0 -187 L 28 -98 C 30 -99 36 -101 44 -103 C 52 -105 60 -107 68 -107 C 80 -107 92 -102 102 -94 C 112 -86 123 -70 134 -48 L 170 39 L -4 436 L 105 436 L 221 152 L 336 436 L 438 436 Z M 219 497 L 219 497 Z M 328 497 L 227 497 L 110 663 L 229 663 L 328 497 Z" unicode="ỳ" />
<glyph horiz-adv-x="460" d="M 421 218 L 40 218 L 40 306 L 421 306 L 421 218 Z" unicode="–" />
<glyph horiz-adv-x="645" d="M 606 218 L 40 218 L 40 306 L 606 306 L 606 218 Z" unicode="—" />
<glyph horiz-adv-x="266" d="M 35 507 L 35 514 C 35 552 45 591 65 630 C 85 668 112 704 148 737 L 248 731 C 238 723 227 711 215 697 C 203 683 191 666 181 648 C 170 629 161 608 153 586 C 145 563 142 539 142 515 L 142 507 L 35 507 Z" unicode="‘" />
<glyph horiz-adv-x="266" d="M 230 737 L 230 730 C 230 691 220 653 200 615 C 180 577 152 541 117 507 L 17 513 C 27 522 38 534 50 549 C 62 563 74 580 85 598 C 95 616 104 637 112 659 C 120 681 124 704 124 729 L 124 737 L 230 737 Z" unicode="’" />
<glyph horiz-adv-x="266" d="M 230 113 L 230 106 C 230 68 220 29 200 -8 C 180 -46 152 -83 117 -117 L 17 -111 C 27 -101 38 -89 50 -75 C 62 -60 73 -43 84 -25 C 95 -7 104 13 112 35 C 119 57 123 80 123 105 L 123 113 L 230 113 Z" unicode="‚" />
<glyph horiz-adv-x="438" d="M 220 507 L 220 514 C 220 550 229 587 247 625 C 265 662 293 699 331 737 L 425 731 C 415 722 404 710 392 696 C 380 682 368 665 358 647 C 347 628 338 607 330 585 C 322 563 319 539 319 515 L 319 507 L 220 507 Z M 36 507 L 36 514 C 36 550 45 587 65 625 C 84 662 111 699 147 737 L 241 731 C 232 723 222 711 210 697 C 198 683 186 666 175 648 C 164 629 155 608 147 586 C 139 563 135 539 135 515 L 135 507 L 36 507 Z" unicode="“" />
<glyph horiz-adv-x="438" d="M 218 737 L 218 730 C 218 691 209 653 192 616 C 175 579 148 543 111 507 L 17 513 C 27 523 39 536 51 550 C 63 564 74 581 84 599 C 94 617 102 637 109 659 C 115 681 119 704 119 729 L 119 737 L 218 737 Z M 402 737 L 402 730 C 402 691 393 653 375 615 C 357 577 330 541 295 507 L 201 513 C 211 523 223 536 235 550 C 247 564 258 581 268 599 C 278 617 286 637 293 659 C 299 681 303 704 303 729 L 303 737 L 402 737 Z" unicode="”" />
<glyph horiz-adv-x="439" d="M 218 117 L 218 110 C 218 71 209 33 192 -3 C 175 -40 148 -77 111 -113 L 17 -107 C 27 -97 39 -84 51 -70 C 63 -55 74 -39 84 -21 C 94 -3 102 17 109 39 C 115 61 119 84 119 109 L 119 117 L 218 117 Z M 403 117 L 403 110 C 403 71 394 33 376 -4 C 358 -42 331 -78 296 -113 L 202 -107 C 212 -97 224 -84 236 -70 C 248 -55 259 -39 269 -21 C 279 -3 287 17 293 39 C 299 61 303 84 303 109 L 303 117 L 403 117 Z" unicode="„" />
<glyph horiz-adv-x="516" d="M 493 370 L 308 370 L 308 -179 L 202 -179 L 202 370 L 23 370 L 23 470 L 202 470 L 202 730 L 308 730 L 308 470 L 493 470 L 493 370 Z" unicode="†" />
<glyph horiz-adv-x="519" d="M 204 -179 L 204 95 L 29 95 L 29 195 L 204 195 L 204 369 L 29 369 L 29 469 L 204 469 L 204 730 L 310 730 L 310 469 L 490 469 L 490 369 L 310 369 L 310 195 L 490 195 L 490 95 L 310 95 L 310 -179 L 204 -179 Z" unicode="‡" />
<glyph horiz-adv-x="382" d="M 191 473 C 217 473 240 464 258 446 C 276 428 285 405 285 379 C 285 353 276 331 258 313 C 240 295 217 286 191 286 C 164 286 142 295 124 313 C 106 331 98 353 98 379 C 98 405 106 428 124 446 C 142 464 164 473 191 473 Z" unicode="•" />
<glyph horiz-adv-x="695" d="M 65 0 L 65 130 L 168 130 L 168 0 L 65 0 Z M 296 0 L 296 130 L 399 130 L 399 0 L 296 0 Z M 527 0 L 527 130 L 631 130 L 631 0 L 527 0 Z" unicode="…" />
<glyph horiz-adv-x="1078" d="M 190 363 C 172 363 154 366 136 374 C 118 382 101 393 87 409 C 73 425 61 444 52 468 C 43 492 39 519 39 551 C 39 577 43 601 51 624 C 59 647 69 667 83 684 C 96 701 112 715 130 725 C 148 735 168 740 188 740 C 210 740 231 735 250 725 C 269 715 285 701 299 685 C 312 668 322 648 330 626 C 337 603 341 579 341 554 C 341 527 337 502 329 479 C 321 455 310 435 297 418 C 283 400 267 387 249 377 C 230 367 210 363 190 363 Z M 119 0 L 535 730 L 609 730 L 193 0 L 119 0 Z M 130 551 C 130 519 135 492 145 472 C 155 451 170 441 189 441 C 211 441 227 451 237 473 C 247 494 252 520 252 551 C 252 581 247 607 238 629 C 228 651 213 662 191 662 C 170 662 155 651 145 629 C 135 607 130 581 130 551 Z M 548 -3 C 530 -3 512 0 494 8 C 476 16 460 27 446 43 C 432 59 420 78 411 102 C 402 126 398 153 398 185 C 398 211 401 236 409 259 C 417 282 427 302 441 319 C 455 336 471 349 490 359 C 508 369 529 374 551 374 C 573 374 594 369 613 359 C 631 349 647 335 661 319 C 674 302 684 282 691 260 C 698 237 702 213 702 188 C 702 161 698 136 690 113 C 682 89 672 69 658 52 C 644 34 628 21 610 11 C 591 1 570 -3 548 -3 Z M 886 -3 C 868 -3 850 0 832 8 C 814 16 798 27 784 43 C 770 59 758 78 749 102 C 740 126 736 153 736 185 C 736 211 739 236 747 259 C 755 282 765 302 779 319 C 793 336 809 349 828 359 C 846 369 867 374 889 374 C 911 374 932 369 951 359 C 969 349 985 335 998 319 C 1011 302 1021 282 1028 260 C 1035 237 1039 213 1039 188 C 1039 161 1035 136 1027 113 C 1019 89 1009 69 996 52 C 982 34 966 21 948 11 C 929 1 908 -3 886 -3 Z M 549 76 C 570 76 586 86 597 107 C 607 127 613 153 613 185 C 613 215 607 241 597 263 C 587 285 571 296 550 296 C 531 296 516 285 506 264 C 495 242 490 216 490 185 C 490 152 495 126 506 106 C 516 86 531 76 549 76 Z M 887 76 C 908 76 924 86 935 107 C 945 127 951 153 951 185 C 951 215 946 241 936 263 C 926 285 910 296 888 296 C 869 296 854 285 843 264 C 832 242 827 216 827 185 C 827 152 832 126 843 106 C 854 86 869 76 887 76 Z" unicode="‰" />
<glyph horiz-adv-x="242" d="M 213 70 L 27 239 L 27 310 L 213 477 L 213 371 L 115 272 L 213 178 L 213 70 Z" unicode="‹" />
<glyph horiz-adv-x="243" d="M 29 477 L 216 307 L 216 237 L 29 70 L 29 175 L 127 274 L 29 368 L 29 477 Z" unicode="›" />
<glyph horiz-adv-x="145" d="M 304 730 L -57 0 L -145 0 L 216 730 L 304 730 Z" unicode="⁄" />
<glyph horiz-adv-x="328" d="M 14 453 L 14 514 L 198 737 L 256 737 L 256 518 L 316 518 L 316 453 L 256 453 L 256 373 L 173 373 L 173 453 L 14 453 Z M 87 509 L 175 509 L 175 617 L 87 509 Z" unicode="⁴" />
<glyph horiz-adv-x="535" d="M 527 115 C 508 77 480 47 442 23 C 404 0 363 -12 319 -12 C 261 -12 210 11 168 57 C 126 103 98 167 84 248 L 32 248 L 32 330 L 76 330 C 75 334 75 339 75 345 C 75 350 75 355 75 361 C 75 365 75 369 75 373 C 75 377 75 380 75 384 L 32 384 L 32 465 L 82 465 C 88 505 97 542 110 576 C 123 610 139 640 159 664 C 179 688 202 707 229 721 C 255 735 285 742 318 742 C 374 742 418 730 450 706 C 482 682 505 655 520 625 L 442 580 C 430 600 414 618 395 634 C 376 649 351 657 320 657 C 283 657 252 640 227 608 C 202 575 185 527 177 465 L 470 465 L 470 384 L 171 384 C 171 380 171 377 171 373 C 171 369 171 366 171 363 C 171 357 171 352 171 346 C 171 340 171 335 172 330 L 470 330 L 470 248 L 181 248 C 191 189 210 145 236 116 C 262 87 291 73 323 73 C 353 73 379 82 401 101 C 423 119 440 141 452 166 L 527 115 Z" unicode="€" />
<glyph horiz-adv-x="888" d="M 837 312 L 746 312 L 746 581 L 621 390 L 594 390 L 470 580 L 470 312 L 382 312 L 382 730 L 476 730 L 608 526 L 740 730 L 837 730 L 837 312 Z M 353 632 L 236 632 L 236 312 L 140 312 L 140 632 L 19 632 L 19 730 L 353 730 L 353 632 Z" unicode="™" />
<glyph horiz-adv-x="765" d="M 48 0 L 48 94 L 248 94 L 248 161 C 216 173 187 188 161 208 C 135 227 113 249 95 274 C 77 298 63 325 53 355 C 43 384 39 414 39 446 C 39 488 46 527 62 564 C 78 600 100 632 129 659 C 158 686 194 707 236 723 C 278 739 326 747 378 747 C 432 747 481 739 525 723 C 568 707 604 685 634 658 C 664 631 686 599 702 563 C 718 526 726 487 726 446 C 726 382 708 325 674 274 C 639 222 586 185 516 161 L 516 94 L 716 94 L 716 0 L 429 0 L 429 212 C 487 230 533 261 565 303 C 597 345 614 391 614 441 C 614 473 608 502 596 529 C 584 556 567 579 547 599 C 526 618 501 633 472 644 C 443 655 412 661 379 661 C 346 661 316 655 288 644 C 260 633 235 618 215 598 C 195 578 179 555 168 528 C 156 501 151 471 151 439 C 151 391 166 346 198 305 C 229 263 275 232 335 212 L 335 0 L 48 0 Z" unicode="Ω" />
<glyph horiz-adv-x="527" d="M 484 278 C 484 227 477 183 465 147 C 453 110 436 80 416 57 C 395 34 371 17 343 6 C 315 -4 286 -10 255 -10 C 226 -10 198 -5 171 5 C 144 15 120 29 99 49 C 78 68 61 92 48 120 C 35 148 29 180 29 216 C 29 248 34 279 46 308 C 57 336 72 361 91 382 C 110 402 133 419 159 431 C 185 443 212 449 242 449 C 280 449 312 440 339 422 C 366 404 386 382 400 356 C 394 422 381 480 362 528 C 342 576 320 616 294 648 C 268 679 240 702 210 718 C 180 733 150 741 122 743 L 167 802 C 197 802 230 792 267 773 C 304 754 338 724 370 682 C 402 640 429 586 451 520 C 473 453 484 372 484 278 Z M 255 62 C 293 62 323 76 345 105 C 367 134 379 175 379 227 C 379 271 368 306 346 334 C 324 361 294 375 255 375 C 219 375 189 361 167 333 C 145 305 134 267 134 219 C 134 167 145 127 167 101 C 189 75 219 62 255 62 Z" unicode="∂" />
<glyph horiz-adv-x="614" d="M 613 0 L 0 0 L 292 730 L 323 730 L 613 0 Z M 475 83 L 304 532 L 135 83 L 475 83 Z" unicode="∆" />
<glyph horiz-adv-x="683" d="M 228 639 L 228 0 L 123 0 L 123 639 L 15 639 L 15 730 L 668 730 L 668 639 L 565 639 L 565 0 L 460 0 L 460 639 L 228 639 Z" unicode="∏" />
<glyph horiz-adv-x="592" d="M 183 639 L 416 307 L 150 -88 L 550 -88 L 550 -179 L -18 -179 L 313 306 L 12 730 L 529 730 L 529 639 L 183 639 Z" unicode="∑" />
<glyph horiz-adv-x="515" d="M 476 291 L 40 291 L 40 372 L 476 372 L 476 291 Z" unicode="−" />
<glyph horiz-adv-x="510" d="M 504 730 L 198 0 L 186 0 L 12 330 L 84 385 L 204 143 L 440 730 L 504 730 Z" unicode="√" />
<glyph horiz-adv-x="342" d="M 105 -21 L 162 625 C 164 644 169 661 177 676 C 185 690 194 702 206 712 C 217 722 229 729 243 734 C 257 739 270 742 284 742 C 298 742 311 741 325 740 C 339 739 347 738 350 738 L 342 649 C 340 649 336 650 330 651 C 324 651 318 652 312 652 C 293 652 278 645 266 633 C 254 620 247 600 245 574 L 190 -57 C 187 -89 174 -117 151 -142 C 127 -167 98 -179 62 -179 C 42 -179 24 -177 7 -173 C -9 -169 -22 -164 -31 -160 L -20 -89 C -16 -89 -9 -91 0 -94 C 10 -96 19 -98 28 -98 C 47 -98 64 -91 79 -78 C 93 -64 102 -45 105 -21 Z" unicode="∫" />
<glyph horiz-adv-x="489" d="M 356 502 L 449 502 C 447 454 439 414 425 384 C 411 353 387 338 355 338 C 333 338 314 341 296 349 C 278 357 264 366 252 376 C 239 386 226 394 212 402 C 198 409 184 413 170 413 C 158 413 146 406 134 392 C 122 378 116 361 116 341 L 35 341 C 35 391 44 430 63 459 C 82 488 107 503 139 503 C 159 503 177 499 193 491 C 209 483 223 474 235 466 C 246 458 258 451 271 445 C 284 439 297 436 309 436 C 325 436 337 441 345 453 C 352 464 356 480 356 502 Z M 358 323 L 449 323 C 447 275 438 235 421 204 C 404 173 379 158 345 158 C 322 158 302 162 286 170 C 269 178 255 186 245 196 C 233 204 221 212 208 219 C 194 226 182 230 170 230 C 158 230 147 223 136 211 C 124 198 119 181 119 161 L 35 161 C 35 211 44 250 64 280 C 84 310 111 325 146 325 C 168 325 188 320 205 311 C 222 302 236 293 247 285 C 257 276 269 269 281 263 C 293 257 305 255 316 255 C 331 255 342 260 348 272 C 354 283 358 300 358 323 Z" unicode="≈" />
<glyph horiz-adv-x="500" d="M 457 171 L 229 171 L 178 63 L 109 92 L 146 171 L 65 171 L 65 258 L 187 258 L 248 386 L 65 386 L 65 472 L 288 472 L 342 586 L 410 557 L 370 472 L 457 472 L 457 386 L 330 386 L 270 258 L 457 258 L 457 171 Z" unicode="≠" />
<glyph horiz-adv-x="500" d="M 62 292 L 62 357 L 433 561 L 433 465 L 161 327 L 433 186 L 433 90 L 62 292 Z M 61 88 L 433 88 L 433 11 L 61 11 L 61 88 Z" unicode="≤" />
<glyph horiz-adv-x="500" d="M 432 292 L 61 90 L 61 186 L 333 327 L 61 465 L 61 561 L 432 357 L 432 292 Z M 433 88 L 433 11 L 61 11 L 61 88 L 433 88 Z" unicode="≥" />
<glyph horiz-adv-x="537" d="M 508 326 L 274 -19 L 263 -19 L 29 326 L 29 337 L 263 681 L 274 681 L 508 337 L 508 326 Z M 413 327 L 413 336 L 273 547 L 265 547 L 124 336 L 124 327 L 265 115 L 273 115 L 413 327 Z" unicode="◊" />
<glyph horiz-adv-x="730" d="M 448 673 L 282 673 L 282 730 L 448 730 L 448 673 Z M 659 282 L 600 282 L 600 448 L 659 448 L 659 282 Z M 130 282 L 71 282 L 71 448 L 130 448 L 130 282 Z M 433 297 L 297 297 L 297 433 L 433 433 L 433 297 Z M 448 0 L 282 0 L 282 58 L 448 58 L 448 0 Z" unicode="" />
<glyph horiz-adv-x="508" d="M 289 356 L 193 356 L 193 0 L 92 0 L 92 356 L 16 356 L 16 436 L 92 436 L 92 553 C 92 587 97 617 108 643 C 118 669 132 691 150 708 C 167 725 186 738 208 747 C 229 755 250 760 272 760 C 288 760 304 758 318 755 C 332 752 342 749 350 746 L 342 663 C 337 665 330 667 320 669 C 310 671 300 672 290 672 C 266 672 243 661 223 640 C 202 618 192 590 192 555 L 192 436 L 289 436 L 289 356 Z M 454 528 L 350 528 L 350 628 L 454 628 L 454 528 Z M 452 0 L 352 0 L 352 436 L 452 436 L 452 0 Z" unicode="ﬁ" />
<glyph horiz-adv-x="501" d="M 193 356 L 193 0 L 92 0 L 92 356 L 16 356 L 16 436 L 92 436 L 92 548 C 92 582 97 612 108 639 C 118 665 132 687 150 705 C 167 723 186 736 208 745 C 229 754 250 759 272 759 C 288 759 303 757 317 754 C 331 751 341 748 347 746 L 347 752 L 448 752 L 448 0 L 347 0 L 347 714 L 342 662 C 337 664 330 666 320 668 C 310 670 300 671 290 671 C 266 671 243 659 223 637 C 202 614 192 585 192 549 L 192 436 L 289 436 L 289 356 L 193 356 Z" unicode="ﬂ" />
</font>
</defs>
</svg>
