<?xml version="1.0" encoding="utf-8" ?><svg version="1.1" xmlns = 'http://www.w3.org/2000/svg'><defs><font id='web' horiz-adv-x="1000">
<font-face font-family="web" descent="-200" cap-height="730" units-per-em="1000" bbox="-182,-358,1185,1022" x-height="536" ascent="800" />
<missing-glyph horiz-adv-x="500" d="" /><glyph horiz-adv-x="262" d="" unicode=" " />
<glyph horiz-adv-x="299" d="M 199 435 L 171 204 L 127 204 L 100 435 L 100 730 L 199 730 L 199 435 Z M 196 0 L 103 0 L 103 94 L 196 94 L 196 0 Z" unicode="!" />
<glyph horiz-adv-x="420" d="M 345 609 L 339 467 L 270 467 L 265 608 L 265 730 L 345 730 L 345 609 Z M 154 608 L 150 467 L 80 467 L 75 608 L 75 730 L 154 730 L 154 608 Z" unicode="&#x22;" />
<glyph horiz-adv-x="649" d="M 589 224 L 448 224 L 428 0 L 375 1 L 395 224 L 230 224 L 210 0 L 157 1 L 177 224 L 33 224 L 33 289 L 182 289 L 195 437 L 60 437 L 60 502 L 201 502 L 221 730 L 274 729 L 254 502 L 419 502 L 439 730 L 492 729 L 472 502 L 615 502 L 615 437 L 466 437 L 453 289 L 589 289 L 589 224 Z M 235 289 L 400 289 L 413 437 L 248 437 L 235 289 Z" unicode="#" />
<glyph horiz-adv-x="545" d="M 504 186 C 504 159 498 135 487 113 C 476 91 461 72 442 56 C 423 40 401 28 375 19 C 349 9 322 4 294 2 L 294 -120 L 242 -120 L 242 2 C 196 5 154 14 118 30 C 81 46 52 64 32 85 L 63 155 C 82 134 108 116 142 101 C 175 85 208 75 242 71 L 242 344 C 169 376 118 407 89 438 C 59 468 45 507 45 555 C 45 605 63 646 100 678 C 136 710 184 727 242 730 L 242 789 L 294 789 L 294 729 C 334 725 370 717 402 704 C 434 691 460 675 481 655 L 441 595 C 422 613 400 627 375 639 C 349 650 322 657 294 660 L 294 405 L 299 403 C 366 372 417 341 452 311 C 486 280 504 238 504 186 Z M 127 554 C 127 526 135 504 151 487 C 167 469 198 450 242 429 L 242 661 C 209 657 182 646 160 628 C 138 609 127 584 127 554 Z M 420 182 C 420 208 412 232 396 252 C 380 272 346 294 294 320 L 294 69 C 332 71 362 83 385 103 C 408 123 420 149 420 182 Z" unicode="$" />
<glyph horiz-adv-x="870" d="M 214 348 C 191 348 169 352 148 362 C 127 371 109 384 93 401 C 77 417 65 438 56 462 C 46 486 42 514 42 544 C 42 570 46 595 55 619 C 63 643 75 663 90 681 C 105 699 123 713 144 724 C 165 734 188 740 213 740 C 238 740 261 734 282 724 C 303 714 321 700 336 682 C 350 664 362 644 370 621 C 378 597 383 573 383 547 C 383 519 378 493 370 469 C 362 445 350 424 335 406 C 320 388 302 373 282 363 C 261 353 238 348 214 348 Z M 209 0 L 124 0 L 648 730 L 733 730 L 209 0 Z M 211 414 C 241 414 265 426 282 450 C 298 474 307 505 307 544 C 307 582 299 613 283 637 C 267 661 244 674 214 674 C 184 674 160 661 143 637 C 126 613 118 582 118 544 C 118 502 127 469 145 447 C 163 425 185 414 211 414 Z M 658 -3 C 635 -3 613 1 593 11 C 572 20 554 33 538 50 C 522 66 510 87 501 111 C 491 135 487 163 487 193 C 487 219 491 244 500 268 C 508 292 520 312 535 330 C 550 348 568 362 589 373 C 609 383 632 389 657 389 C 682 389 705 383 727 373 C 748 363 766 349 781 331 C 795 313 807 293 815 270 C 823 246 827 222 827 196 C 827 168 822 143 814 119 C 806 95 794 74 780 56 C 765 38 747 23 726 13 C 705 2 682 -3 658 -3 Z M 655 64 C 685 64 709 76 726 100 C 742 124 751 155 751 193 C 751 231 743 262 727 286 C 711 310 688 323 658 323 C 628 323 604 310 588 286 C 571 262 563 231 563 193 C 563 151 572 119 590 97 C 608 75 630 64 655 64 Z" unicode="%" />
<glyph horiz-adv-x="730" d="M 659 -4 L 562 79 C 528 51 489 30 445 15 C 401 0 351 -8 293 -8 C 216 -8 154 7 107 39 C 59 70 36 114 36 171 C 36 197 40 220 50 240 C 60 260 73 278 89 294 C 105 310 123 325 144 339 C 164 353 185 366 207 380 L 193 392 C 183 400 172 410 161 422 C 150 434 140 447 132 462 C 123 477 116 494 110 512 C 104 530 101 551 101 574 C 101 596 106 618 118 638 C 129 658 144 675 163 690 C 181 704 202 716 226 724 C 250 732 274 737 299 737 C 357 737 403 720 436 688 C 469 656 486 617 486 573 C 486 531 471 496 443 469 C 414 441 377 413 331 385 L 555 197 C 566 210 577 224 589 239 C 600 254 611 270 622 287 L 701 245 C 689 225 676 207 664 189 C 651 171 638 154 624 138 L 705 70 L 659 -4 Z M 256 449 L 281 428 C 319 452 348 474 370 496 C 391 517 402 541 402 567 C 402 594 392 617 374 637 C 356 656 330 666 296 666 C 265 666 239 656 218 636 C 197 616 187 595 187 571 C 187 547 193 525 207 505 C 221 484 237 465 256 449 Z M 129 179 C 129 142 145 114 178 94 C 210 74 250 64 297 64 C 333 64 368 70 401 83 C 433 96 464 114 493 137 L 256 338 C 216 312 184 288 162 265 C 140 242 129 213 129 179 Z" unicode="&#x26;" />
<glyph horiz-adv-x="229" d="M 154 604 L 150 460 L 80 460 L 75 604 L 75 730 L 154 730 L 154 604 Z" unicode="'" />
<glyph horiz-adv-x="341" d="M 325 -114 L 325 -187 C 282 -167 243 -140 207 -107 C 171 -73 141 -36 115 5 C 89 47 69 92 55 142 C 41 191 34 241 34 293 C 34 347 42 398 58 447 C 74 495 95 539 122 578 C 148 617 179 651 215 681 C 250 710 287 733 325 749 L 325 685 C 300 670 276 651 254 627 C 231 603 211 574 194 542 C 176 510 162 473 152 431 C 141 389 136 343 136 293 C 136 249 140 206 149 166 C 158 125 171 87 187 53 C 203 18 223 -13 247 -42 C 270 -70 296 -94 325 -114 Z" unicode="(" />
<glyph horiz-adv-x="341" d="M 16 687 L 16 749 C 52 734 87 712 122 684 C 157 656 188 622 216 582 C 243 542 265 497 282 447 C 298 396 307 341 307 283 C 307 228 299 176 283 127 C 267 77 246 32 220 -7 C 194 -47 163 -83 128 -114 C 92 -144 55 -169 16 -187 L 16 -113 C 41 -95 65 -73 88 -47 C 110 -21 130 8 148 42 C 165 75 179 112 189 153 C 199 193 205 237 205 283 C 205 337 199 385 188 429 C 176 473 162 511 144 545 C 126 578 105 606 83 630 C 61 654 38 673 16 687 Z" unicode=")" />
<glyph horiz-adv-x="427" d="M 388 575 L 255 538 L 353 445 L 292 392 L 215 509 L 138 392 L 80 444 L 175 540 L 39 576 L 70 647 L 190 583 L 172 730 L 258 730 L 239 583 L 362 646 L 388 575 Z" unicode="*" />
<glyph horiz-adv-x="500" d="M 474 295 L 286 295 L 286 114 L 215 114 L 215 295 L 26 295 L 26 367 L 215 367 L 215 548 L 286 548 L 286 367 L 474 367 L 474 295 Z" unicode="+" />
<glyph horiz-adv-x="248" d="M 204 114 C 197 57 182 5 160 -42 C 137 -90 111 -127 83 -153 L 20 -124 C 27 -116 35 -103 45 -87 C 55 -70 64 -51 73 -29 C 82 -7 90 15 98 40 C 106 64 111 89 115 114 L 204 114 Z" unicode="," />
<glyph horiz-adv-x="350" d="M 305 226 L 45 226 L 45 302 L 305 302 L 305 226 Z" unicode="-" />
<glyph horiz-adv-x="249" d="M 166 0 L 82 0 L 82 130 L 166 130 L 166 0 Z" unicode="." />
<glyph horiz-adv-x="318" d="M 314 730 L 82 0 L 4 0 L 238 730 L 314 730 Z" unicode="/" />
<glyph horiz-adv-x="602" d="M 297 -12 C 258 -12 223 -3 191 15 C 159 33 132 58 110 90 C 88 122 71 162 59 208 C 47 254 41 305 41 361 C 41 411 46 460 57 506 C 68 552 84 593 106 628 C 128 662 155 690 188 711 C 221 731 259 742 303 742 C 348 742 387 732 420 712 C 452 692 479 665 500 631 C 520 597 536 558 546 513 C 556 467 561 419 561 369 C 561 315 555 264 545 218 C 534 171 518 131 496 97 C 474 63 447 36 414 17 C 380 -2 341 -12 297 -12 Z M 298 65 C 328 65 354 72 376 87 C 398 101 416 122 430 148 C 444 174 454 205 461 241 C 468 277 472 316 472 359 C 472 402 468 442 462 480 C 456 518 446 550 432 578 C 418 605 401 626 379 642 C 357 658 330 666 300 666 C 271 666 246 658 225 643 C 203 628 186 607 172 581 C 158 554 147 522 140 485 C 133 447 130 406 130 362 C 130 318 133 277 141 241 C 148 204 159 173 173 147 C 187 121 204 101 225 87 C 246 72 270 65 298 65 Z" unicode="0" />
<glyph horiz-adv-x="384" d="M 288 0 L 202 0 L 202 617 C 188 598 166 579 136 560 C 106 540 76 529 48 527 L 48 607 C 80 609 113 623 146 648 C 178 672 206 700 230 731 L 288 731 L 288 0 Z" unicode="1" />
<glyph horiz-adv-x="570" d="M 543 0 L 32 0 L 32 34 L 355 357 C 375 377 395 403 413 433 C 431 463 441 496 441 532 C 441 572 426 604 396 629 C 366 654 327 667 281 667 C 231 667 192 651 163 621 C 134 591 120 551 120 503 L 40 503 C 42 577 65 636 111 678 C 156 720 218 742 296 742 C 364 742 420 723 464 687 C 508 650 530 602 530 542 C 530 488 518 443 496 408 C 474 372 450 342 425 318 L 183 79 L 543 79 L 543 0 Z" unicode="2" />
<glyph horiz-adv-x="571" d="M 283 -12 C 217 -12 161 -3 116 13 C 70 30 36 49 12 71 L 59 142 C 79 124 107 107 143 89 C 178 71 221 63 271 63 C 329 63 374 78 407 108 C 439 138 456 175 456 219 C 456 259 440 292 410 316 C 379 340 339 353 289 353 L 152 353 L 152 426 L 285 426 C 329 426 365 438 392 462 C 418 486 432 515 432 547 C 432 561 428 576 422 590 C 415 604 405 617 393 629 C 380 640 364 649 346 656 C 328 663 307 667 284 667 C 234 667 194 656 164 635 C 134 614 109 590 91 564 L 41 625 C 61 655 92 682 134 706 C 176 730 227 742 287 742 C 358 742 414 725 456 692 C 498 659 519 616 519 563 C 519 520 505 483 477 452 C 449 421 415 401 375 393 C 422 385 462 366 494 335 C 526 303 543 263 543 215 C 543 184 537 155 525 128 C 513 100 495 76 473 56 C 450 35 423 18 391 6 C 359 -5 323 -12 283 -12 Z" unicode="3" />
<glyph horiz-adv-x="584" d="M 579 190 L 454 190 L 454 0 L 373 0 L 373 190 L 15 190 L 15 254 L 387 743 L 454 743 L 454 260 L 579 260 L 579 190 Z M 374 260 L 374 616 L 109 260 L 374 260 Z" unicode="4" />
<glyph horiz-adv-x="586" d="M 280 -12 C 224 -12 174 -2 130 16 C 86 34 53 55 31 79 L 78 146 C 96 127 122 109 156 91 C 190 73 231 64 277 64 C 333 64 377 81 410 117 C 442 152 459 198 459 255 C 459 307 443 349 412 379 C 381 409 343 425 297 425 C 260 425 227 417 197 402 C 167 387 144 365 130 337 L 73 352 L 103 730 L 492 730 L 492 651 L 166 651 L 150 420 C 162 440 184 457 215 473 C 246 489 280 497 317 497 C 385 497 440 475 483 431 C 526 387 548 330 548 259 C 548 220 541 184 529 151 C 516 117 498 89 475 65 C 452 41 424 22 391 8 C 357 -5 320 -12 280 -12 Z" unicode="5" />
<glyph horiz-adv-x="585" d="M 302 -12 C 264 -12 228 -5 196 7 C 163 19 135 37 112 61 C 89 84 71 112 58 145 C 45 178 39 215 39 255 C 39 299 45 341 59 382 C 73 422 91 461 115 498 C 139 535 167 570 199 604 C 231 638 265 670 302 701 L 369 757 L 420 695 L 361 646 C 303 597 253 548 213 500 C 173 452 148 411 140 377 C 150 399 172 420 204 440 C 236 460 273 470 317 470 C 352 470 384 464 414 452 C 443 440 468 424 489 403 C 509 382 525 357 537 328 C 548 299 554 267 554 233 C 554 199 547 167 534 137 C 521 107 503 81 481 59 C 459 37 432 19 401 7 C 370 -5 337 -12 302 -12 Z M 298 63 C 323 63 346 67 367 77 C 388 86 406 98 420 113 C 434 128 446 146 454 166 C 462 186 466 208 466 230 C 466 252 462 274 455 294 C 447 314 436 332 422 348 C 408 363 390 375 369 385 C 348 394 324 399 297 399 C 274 399 252 395 231 387 C 210 379 192 367 176 353 C 160 339 147 322 137 302 C 127 282 123 259 123 235 C 123 211 127 189 135 168 C 143 147 154 129 169 113 C 184 97 202 85 224 76 C 246 67 270 63 298 63 Z" unicode="6" />
<glyph horiz-adv-x="508" d="M 492 730 L 506 689 L 153 -7 L 78 29 L 398 650 L 16 650 L 16 730 L 492 730 Z" unicode="7" />
<glyph horiz-adv-x="615" d="M 403 387 C 451 378 491 357 523 323 C 555 289 572 247 572 195 C 572 165 565 138 553 112 C 541 86 523 64 501 46 C 478 28 450 13 417 3 C 384 -6 347 -12 307 -12 C 227 -12 163 7 116 46 C 68 84 45 134 45 195 C 45 221 49 245 59 267 C 69 289 81 309 97 326 C 113 342 131 356 151 366 C 171 376 192 383 213 386 C 195 390 177 396 160 406 C 142 416 127 428 113 442 C 99 456 88 473 80 491 C 72 509 68 528 68 550 C 68 578 74 604 86 628 C 98 652 115 672 136 689 C 157 705 182 718 212 728 C 241 737 273 742 307 742 C 378 742 436 724 481 690 C 525 656 548 611 548 555 C 548 514 533 478 504 447 C 475 415 441 395 403 387 Z M 308 414 C 355 414 393 426 423 450 C 452 474 467 504 467 540 C 467 579 452 610 422 634 C 392 658 354 670 308 670 C 263 670 225 658 194 634 C 163 610 148 579 148 540 C 148 502 163 471 195 448 C 226 425 264 414 308 414 Z M 308 60 C 362 60 405 73 438 100 C 471 127 488 163 488 207 C 488 251 471 284 437 308 C 403 331 360 343 308 343 C 256 343 213 331 179 308 C 145 284 128 250 128 205 C 128 163 144 128 178 101 C 211 73 254 60 308 60 Z" unicode="8" />
<glyph horiz-adv-x="585" d="M 229 -19 L 183 43 L 265 108 C 286 125 307 144 327 166 C 347 188 366 210 382 232 C 398 254 412 277 424 300 C 436 323 445 345 451 366 C 445 354 435 342 422 330 C 409 318 394 307 378 298 C 361 288 343 281 324 275 C 304 269 285 266 266 266 C 196 266 139 287 96 331 C 52 374 31 432 31 504 C 31 536 37 567 50 596 C 63 625 81 650 103 672 C 125 694 152 711 184 724 C 215 736 249 743 286 743 C 322 743 356 737 388 725 C 420 713 447 695 471 673 C 494 650 512 622 526 589 C 539 556 546 519 546 478 C 546 429 539 383 525 340 C 511 296 492 256 470 219 C 447 182 421 148 392 118 C 362 87 332 60 301 38 L 229 -19 Z M 285 332 C 310 332 333 336 355 345 C 377 354 395 366 411 381 C 427 396 439 414 448 434 C 457 454 462 475 462 497 C 462 547 445 589 411 622 C 377 654 337 671 289 671 C 263 671 239 666 218 657 C 197 647 179 635 165 620 C 150 604 139 586 131 566 C 123 545 119 524 119 502 C 119 479 122 457 129 437 C 136 416 147 398 161 383 C 175 367 192 355 213 346 C 233 336 257 332 285 332 Z" unicode="9" />
<glyph horiz-adv-x="240" d="M 163 411 L 78 411 L 78 536 L 163 536 L 163 411 Z M 163 0 L 78 0 L 78 127 L 163 127 L 163 0 Z" unicode=":" />
<glyph horiz-adv-x="239" d="M 168 411 L 83 411 L 83 536 L 168 536 L 168 411 Z M 175 99 C 168 53 154 7 132 -38 C 110 -83 85 -119 57 -145 L -5 -116 C 3 -106 12 -94 22 -79 C 32 -63 41 -46 50 -27 C 59 -7 67 12 75 34 C 83 56 88 77 91 99 L 175 99 Z" unicode=";" />
<glyph horiz-adv-x="408" d="M 358 98 L 42 293 L 42 364 L 358 556 L 358 479 L 128 331 L 358 178 L 358 98 Z" unicode="&#x3C;" />
<glyph horiz-adv-x="500" d="M 450 390 L 50 390 L 50 462 L 450 462 L 450 390 Z M 450 179 L 50 179 L 50 251 L 450 251 L 450 179 Z" unicode="=" />
<glyph horiz-adv-x="408" d="M 367 293 L 50 98 L 50 177 L 282 331 L 50 480 L 50 556 L 367 364 L 367 293 Z" unicode="&#x3E;" />
<glyph horiz-adv-x="477" d="M 170 196 C 170 246 175 287 185 317 C 195 347 216 374 249 399 C 262 409 275 419 289 430 C 302 440 314 452 325 464 C 336 476 345 490 352 505 C 358 520 362 537 362 556 C 362 590 348 616 322 636 C 296 656 263 666 225 666 C 191 666 160 658 133 643 C 105 627 83 609 66 588 L 10 643 C 32 669 61 692 99 712 C 137 732 182 742 234 742 C 264 742 292 738 319 730 C 345 722 368 710 388 696 C 407 681 422 663 434 641 C 445 619 451 594 451 567 C 451 541 446 517 438 497 C 429 476 418 458 406 442 C 393 426 379 413 364 401 C 349 389 335 378 323 369 C 293 347 274 320 266 289 C 258 257 254 226 254 196 L 170 196 Z M 167 0 L 167 119 L 261 119 L 261 0 L 167 0 Z" unicode="?" />
<glyph horiz-adv-x="889" d="M 439 -24 C 385 -24 334 -14 287 6 C 239 26 198 53 164 87 C 130 121 103 162 83 209 C 63 256 53 306 53 360 C 53 414 62 464 82 511 C 101 558 128 599 162 633 C 196 667 238 693 286 713 C 334 732 387 742 445 742 C 503 742 557 733 605 716 C 653 699 694 675 728 645 C 762 615 788 578 807 535 C 825 492 835 445 835 395 C 835 350 830 312 820 280 C 810 248 798 223 782 203 C 766 183 749 169 729 160 C 709 151 690 147 671 147 C 635 147 607 153 588 167 C 568 181 556 198 551 218 C 543 201 524 185 494 171 C 464 156 429 149 389 149 C 340 149 302 160 276 184 C 250 208 237 237 237 273 C 237 313 254 347 288 373 C 322 399 373 412 441 412 L 544 412 L 544 422 C 544 456 533 480 512 494 C 491 508 465 515 434 515 C 409 515 386 512 364 506 C 342 500 324 494 309 488 L 282 551 C 299 559 322 566 352 574 C 381 581 409 585 436 585 C 492 585 536 571 568 543 C 600 515 616 473 616 415 L 616 270 C 616 255 620 240 629 226 C 638 212 654 205 678 205 C 688 205 698 207 710 212 C 721 217 732 226 742 240 C 752 253 760 271 767 295 C 773 319 777 349 777 387 C 777 428 769 467 754 504 C 738 541 716 573 688 601 C 660 629 625 651 584 667 C 542 683 496 691 445 691 C 395 691 350 682 309 666 C 268 649 233 626 204 597 C 174 567 151 532 135 492 C 119 452 111 408 111 362 C 111 316 119 272 137 232 C 154 191 177 156 207 126 C 236 96 271 72 311 54 C 351 36 395 28 441 28 C 465 28 490 30 516 36 C 542 42 568 51 593 63 L 615 13 C 588 0 559 -9 529 -15 C 499 -21 469 -24 439 -24 Z M 422 211 C 448 211 474 216 498 228 C 522 240 537 252 544 264 L 544 358 L 449 358 C 407 358 375 351 354 338 C 333 325 323 306 323 282 C 323 259 331 241 347 229 C 363 217 388 211 422 211 Z" unicode="@" />
<glyph horiz-adv-x="652" d="M 650 0 L 554 0 L 472 204 L 170 204 L 92 0 L 2 0 L 298 733 L 358 733 L 650 0 Z M 451 273 L 321 601 L 192 273 L 451 273 Z" unicode="A" />
<glyph horiz-adv-x="612" d="M 97 0 L 97 730 L 312 730 C 378 730 429 714 467 683 C 504 652 523 609 523 553 C 523 507 510 468 485 436 C 459 404 425 385 383 377 C 404 375 425 370 447 362 C 468 354 487 343 504 329 C 521 315 535 297 546 275 C 556 253 562 226 562 196 C 562 138 540 90 496 54 C 452 18 395 0 324 0 L 97 0 Z M 181 404 L 294 404 C 320 404 342 408 360 416 C 378 424 392 434 403 447 C 414 460 422 475 427 491 C 432 507 435 524 435 541 C 435 575 422 603 396 625 C 370 647 336 658 292 658 L 181 658 L 181 404 Z M 182 72 L 322 72 C 372 72 409 85 433 113 C 457 141 469 173 469 209 C 469 244 455 273 427 297 C 399 320 364 332 322 332 L 182 332 L 182 72 Z" unicode="B" />
<glyph horiz-adv-x="750" d="M 409 -12 C 361 -12 315 -3 271 14 C 227 32 189 57 156 89 C 123 121 97 161 77 208 C 57 254 48 307 48 365 C 48 419 57 470 75 517 C 93 563 119 603 151 636 C 183 669 221 695 265 714 C 309 732 358 742 410 742 C 476 742 532 731 580 711 C 627 691 667 661 699 621 L 631 565 C 607 592 577 614 542 632 C 507 650 464 659 412 659 C 370 659 333 652 299 638 C 265 624 236 604 213 579 C 189 553 171 523 158 487 C 145 451 139 411 139 368 C 139 320 147 277 163 239 C 179 201 200 170 226 145 C 252 120 281 101 315 88 C 349 75 383 69 419 69 C 471 69 517 79 555 100 C 593 121 625 148 649 182 L 716 134 C 688 94 647 59 595 31 C 542 2 480 -12 409 -12 Z" unicode="C" />
<glyph horiz-adv-x="747" d="M 97 0 L 97 730 L 311 730 C 371 730 425 721 473 705 C 521 688 562 664 595 634 C 628 604 653 567 671 523 C 689 479 698 431 698 379 C 698 325 689 275 672 229 C 654 183 629 143 596 109 C 562 75 520 48 470 29 C 420 9 362 0 296 0 L 97 0 Z M 187 73 L 293 73 C 345 73 391 80 430 96 C 469 112 501 133 527 161 C 553 188 572 220 585 258 C 597 295 604 335 604 378 C 604 462 577 529 524 581 C 471 632 399 658 307 658 L 187 658 L 187 73 Z" unicode="D" />
<glyph horiz-adv-x="583" d="M 526 0 L 97 0 L 97 730 L 507 730 L 507 652 L 186 652 L 186 403 L 493 403 L 493 326 L 186 326 L 186 78 L 526 78 L 526 0 Z" unicode="E" />
<glyph horiz-adv-x="527" d="M 481 652 L 187 652 L 187 406 L 466 406 L 466 330 L 187 330 L 187 0 L 97 0 L 97 730 L 481 730 L 481 652 Z" unicode="F" />
<glyph horiz-adv-x="795" d="M 426 362 L 741 362 L 741 154 C 711 102 667 62 610 32 C 552 2 489 -12 420 -12 C 368 -12 320 -3 274 15 C 228 33 189 58 156 91 C 122 124 96 164 77 211 C 57 257 48 309 48 365 C 48 422 57 474 77 521 C 97 567 124 607 158 640 C 192 672 231 697 277 715 C 322 733 370 742 421 742 C 490 742 547 731 592 709 C 636 687 671 663 696 637 L 638 570 C 615 593 587 614 553 632 C 519 650 474 659 418 659 C 379 659 343 652 309 639 C 275 626 245 607 220 583 C 194 558 174 527 160 491 C 145 455 138 414 138 368 C 138 322 145 281 160 243 C 175 205 195 173 221 147 C 247 120 277 99 312 85 C 346 70 383 63 422 63 C 474 63 521 73 564 94 C 607 114 639 144 659 184 L 659 285 L 426 285 L 426 362 Z" unicode="G" />
<glyph horiz-adv-x="762" d="M 665 0 L 575 0 L 575 321 L 187 321 L 187 0 L 97 0 L 97 730 L 187 730 L 187 400 L 575 400 L 575 730 L 665 730 L 665 0 Z" unicode="H" />
<glyph horiz-adv-x="293" d="M 191 0 L 101 0 L 101 730 L 191 730 L 191 0 Z" unicode="I" />
<glyph horiz-adv-x="430" d="M 336 730 L 336 192 C 336 165 331 139 322 114 C 313 89 300 67 282 49 C 264 31 242 16 216 5 C 190 -6 160 -12 126 -12 C 108 -12 89 -10 67 -7 C 45 -4 27 0 15 8 L 48 79 C 54 75 64 72 76 70 C 88 68 100 67 114 67 C 156 67 188 79 211 104 C 234 128 246 158 246 192 L 246 730 L 336 730 Z" unicode="J" />
<glyph horiz-adv-x="669" d="M 651 0 L 541 0 L 299 347 L 186 207 L 186 0 L 97 0 L 97 730 L 186 730 L 186 312 L 512 730 L 611 730 L 363 413 L 651 0 Z" unicode="K" />
<glyph horiz-adv-x="527" d="M 516 0 L 97 0 L 97 730 L 187 730 L 187 78 L 516 78 L 516 0 Z" unicode="L" />
<glyph horiz-adv-x="912" d="M 815 0 L 732 0 L 732 553 L 477 177 L 438 177 L 179 553 L 179 0 L 97 0 L 97 730 L 159 730 L 461 282 L 752 730 L 815 730 L 815 0 Z" unicode="M" />
<glyph horiz-adv-x="791" d="M 694 0 L 629 0 L 181 574 L 181 0 L 97 0 L 97 730 L 166 730 L 611 160 L 611 730 L 694 730 L 694 0 Z" unicode="N" />
<glyph horiz-adv-x="844" d="M 425 -12 C 370 -12 319 -2 273 17 C 227 36 187 63 154 97 C 120 131 94 171 76 218 C 57 265 48 316 48 370 C 48 423 57 472 76 518 C 95 564 121 603 154 636 C 187 669 226 695 272 714 C 317 732 365 742 417 742 C 472 742 523 732 570 714 C 616 695 656 669 690 636 C 723 602 749 563 768 517 C 786 471 796 421 796 367 C 796 311 786 260 766 214 C 746 167 720 127 686 94 C 652 60 613 34 568 16 C 522 -2 475 -12 425 -12 Z M 431 65 C 469 65 505 72 539 86 C 573 100 602 119 627 145 C 651 171 671 202 685 240 C 699 277 707 319 707 365 C 707 407 699 447 684 483 C 669 519 648 551 622 577 C 596 603 565 624 529 639 C 493 653 454 661 412 661 C 372 661 336 654 302 640 C 268 626 239 607 215 582 C 191 557 172 527 158 491 C 144 455 138 415 138 371 C 138 325 145 283 161 245 C 177 207 198 174 225 148 C 251 122 282 101 318 87 C 354 72 391 65 431 65 Z" unicode="O" />
<glyph horiz-adv-x="607" d="M 97 0 L 97 730 L 343 730 C 376 730 407 725 435 716 C 463 706 488 693 509 675 C 529 657 545 634 557 608 C 569 582 575 552 575 519 C 575 453 554 400 512 358 C 470 316 416 296 349 296 L 187 296 L 187 0 L 97 0 Z M 186 369 L 335 369 C 383 369 419 383 445 411 C 471 439 484 476 484 520 C 484 565 468 599 438 623 C 407 646 370 658 326 658 L 186 658 L 186 369 Z" unicode="P" />
<glyph horiz-adv-x="844" d="M 707 -107 L 707 -187 C 641 -186 580 -171 526 -142 C 472 -112 431 -68 403 -8 C 349 -6 301 4 257 24 C 213 44 176 70 145 103 C 114 136 90 175 73 221 C 56 266 48 316 48 370 C 48 422 57 470 76 516 C 94 562 120 601 153 635 C 185 668 224 694 270 713 C 315 732 364 742 418 742 C 473 742 524 732 570 714 C 616 696 656 670 690 637 C 723 604 749 564 768 518 C 786 472 796 421 796 365 C 796 319 788 275 774 234 C 759 192 739 156 713 124 C 687 92 655 66 619 44 C 583 22 543 6 500 -2 C 522 -40 552 -66 590 -82 C 627 -98 666 -106 707 -107 Z M 459 179 C 459 157 460 137 462 119 C 464 101 468 84 472 68 C 505 72 536 82 565 98 C 594 114 619 134 640 159 C 660 184 676 214 688 248 C 700 282 706 321 706 363 C 706 409 698 450 682 487 C 666 524 645 555 619 581 C 592 606 561 626 525 640 C 489 654 452 661 412 661 C 372 661 336 654 302 640 C 268 626 239 607 215 583 C 191 558 172 528 158 492 C 144 456 138 417 138 373 C 138 331 144 292 157 257 C 169 222 186 192 208 166 C 230 140 255 118 284 102 C 313 86 344 75 376 69 C 372 85 370 103 368 121 C 366 139 365 159 365 179 L 459 179 Z" unicode="Q" />
<glyph horiz-adv-x="608" d="M 97 0 L 97 730 L 312 730 C 374 730 424 712 464 678 C 504 643 524 596 524 537 C 524 506 519 478 509 454 C 499 430 487 409 471 392 C 455 375 437 362 417 352 C 397 342 376 336 355 334 L 352 331 L 578 0 L 471 0 L 265 312 L 186 312 L 186 0 L 97 0 Z M 185 385 L 286 385 C 328 385 363 397 391 421 C 419 445 433 480 433 526 C 433 566 420 598 396 622 C 371 646 338 658 296 658 L 185 658 L 185 385 Z" unicode="R" />
<glyph horiz-adv-x="595" d="M 302 -12 C 243 -12 192 -3 150 13 C 107 29 72 51 46 78 L 105 148 C 125 122 154 102 191 86 C 227 70 265 63 305 63 C 343 63 376 73 404 94 C 432 115 446 142 446 175 C 446 207 434 234 411 258 C 388 281 346 305 286 331 C 244 347 210 363 182 378 C 154 393 131 409 115 426 C 98 443 86 462 79 484 C 71 505 68 530 68 559 C 68 615 88 659 129 692 C 169 725 223 742 289 742 C 339 742 381 733 417 717 C 453 701 483 682 508 662 L 457 588 C 431 609 404 626 374 639 C 344 652 313 659 281 659 C 243 659 213 650 190 632 C 167 614 156 589 156 559 C 156 525 169 497 196 476 C 222 454 267 430 331 404 C 408 372 461 341 491 309 C 521 277 536 235 536 183 C 536 153 529 126 517 102 C 504 78 487 57 466 40 C 445 23 420 10 392 1 C 363 -7 333 -12 302 -12 Z" unicode="S" />
<glyph horiz-adv-x="544" d="M 534 652 L 314 652 L 314 0 L 224 0 L 224 652 L 10 652 L 10 730 L 534 730 L 534 652 Z" unicode="T" />
<glyph horiz-adv-x="759" d="M 666 730 L 666 266 C 666 222 658 183 643 149 C 628 114 608 85 582 61 C 556 37 525 19 490 7 C 455 -5 418 -12 379 -12 C 340 -12 303 -6 268 6 C 233 18 203 35 177 59 C 151 83 131 112 116 147 C 100 181 93 221 93 266 L 93 730 L 181 730 L 181 266 C 181 236 186 208 197 184 C 207 160 221 139 239 122 C 257 105 277 92 301 83 C 325 73 350 69 377 69 C 403 69 429 73 454 82 C 478 90 500 103 518 120 C 536 136 550 157 561 182 C 572 206 578 234 578 266 L 578 730 L 666 730 Z" unicode="U" />
<glyph horiz-adv-x="665" d="M 663 730 L 358 -6 L 298 -6 L 2 730 L 101 730 L 329 141 L 569 730 L 663 730 Z" unicode="V" />
<glyph horiz-adv-x="935" d="M 922 730 L 700 -6 L 645 -6 L 470 568 L 285 -6 L 231 -6 L 13 730 L 106 730 L 268 170 L 444 730 L 498 730 L 676 167 L 838 730 L 922 730 Z" unicode="W" />
<glyph horiz-adv-x="620" d="M 504 0 L 309 303 L 113 0 L 17 0 L 261 377 L 33 730 L 136 730 L 312 456 L 489 730 L 585 730 L 360 382 L 606 0 L 504 0 Z" unicode="X" />
<glyph horiz-adv-x="658" d="M 656 730 L 372 312 L 372 0 L 282 0 L 282 316 L 2 730 L 103 730 L 331 395 L 561 730 L 656 730 Z" unicode="Y" />
<glyph horiz-adv-x="587" d="M 553 730 L 553 691 L 141 78 L 567 78 L 567 0 L 20 0 L 20 37 L 428 651 L 54 651 L 54 730 L 553 730 Z" unicode="Z" />
<glyph horiz-adv-x="343" d="M 300 -179 L 102 -179 L 102 730 L 300 730 L 300 665 L 182 665 L 182 -111 L 300 -111 L 300 -179 Z" unicode="[" />
<glyph horiz-adv-x="318" d="M 4 730 L 79 730 L 314 0 L 237 0 L 4 730 Z" unicode="\" />
<glyph horiz-adv-x="323" d="M 232 -179 L 42 -179 L 42 -115 L 153 -115 L 153 666 L 42 666 L 42 730 L 232 730 L 232 -179 Z" unicode="]" />
<glyph horiz-adv-x="512" d="M 436 369 L 362 369 L 253 639 L 150 369 L 78 369 L 218 730 L 289 730 L 436 369 Z" unicode="^" />
<glyph horiz-adv-x="500" d="M 500 -154 L 0 -154 L 0 -86 L 500 -86 L 500 -154 Z" unicode="_" />
<glyph horiz-adv-x="500" d="M 345 586 L 261 586 L 140 750 L 238 750 L 345 586 Z" unicode="`" />
<glyph horiz-adv-x="589" d="M 516 0 L 433 0 L 433 76 C 413 50 385 29 351 14 C 316 0 276 -8 231 -8 C 173 -8 127 6 94 34 C 60 62 44 100 44 148 C 44 208 67 253 113 285 C 159 317 220 335 297 340 L 432 348 L 432 358 C 432 398 420 428 396 448 C 372 467 340 477 298 477 C 264 477 231 471 200 459 C 169 447 141 433 115 417 L 80 479 C 107 497 140 514 179 528 C 217 542 261 550 309 550 C 372 550 422 534 460 504 C 497 474 516 425 516 359 L 516 0 Z M 434 138 L 434 283 L 287 276 C 242 273 205 262 176 243 C 147 224 133 196 133 158 C 133 127 144 103 168 85 C 192 67 223 58 261 58 C 295 58 327 65 359 80 C 391 94 416 114 434 138 Z" unicode="a" />
<glyph horiz-adv-x="659" d="M 373 -8 C 316 -8 271 6 237 34 C 203 62 181 95 171 133 L 171 0 L 90 0 L 90 800 L 167 800 L 167 398 C 177 440 200 475 236 503 C 271 531 317 546 375 546 C 446 546 504 521 549 472 C 593 423 616 359 616 279 C 616 235 609 195 596 159 C 583 123 566 93 544 69 C 522 44 496 25 467 12 C 437 -1 406 -8 373 -8 Z M 352 63 C 378 63 402 68 424 79 C 446 90 464 105 480 124 C 495 142 507 164 516 190 C 524 216 529 243 529 272 C 529 331 513 380 483 418 C 453 456 409 476 351 476 C 325 476 301 471 279 463 C 257 454 237 441 221 424 C 205 407 192 385 183 359 C 173 332 169 301 169 265 C 169 200 186 150 220 115 C 254 80 298 63 352 63 Z" unicode="b" />
<glyph horiz-adv-x="587" d="M 491 163 L 557 118 C 547 103 535 88 521 72 C 507 56 491 43 472 31 C 453 19 431 9 406 1 C 381 -7 352 -11 320 -11 C 280 -11 243 -4 209 9 C 175 23 145 42 121 66 C 97 90 78 120 64 154 C 50 188 44 226 44 267 C 44 306 51 343 65 378 C 79 412 98 442 123 467 C 147 492 177 512 211 526 C 245 540 283 548 323 548 C 355 548 384 543 410 535 C 435 527 457 516 476 503 C 495 490 511 475 523 459 C 535 442 545 425 552 409 L 479 376 C 467 400 448 422 423 442 C 398 462 364 473 320 473 C 292 473 266 467 243 456 C 219 445 199 430 183 412 C 167 394 154 372 145 347 C 135 322 131 296 131 269 C 131 211 148 162 183 123 C 217 84 264 65 322 65 C 346 65 367 68 385 74 C 403 80 418 87 432 97 C 445 107 456 117 466 129 C 476 141 484 152 491 163 Z" unicode="c" />
<glyph horiz-adv-x="660" d="M 292 -11 C 256 -11 222 -4 192 8 C 161 21 135 40 113 64 C 91 88 74 118 62 153 C 50 187 44 226 44 269 C 44 309 50 346 64 380 C 78 414 96 444 119 469 C 142 493 169 513 200 527 C 231 541 264 549 300 549 C 344 549 383 535 419 509 C 454 483 477 453 489 419 L 489 800 L 570 800 L 570 0 L 494 0 L 494 135 C 490 120 482 104 470 87 C 458 70 444 54 427 40 C 409 25 389 13 366 3 C 343 -6 318 -11 292 -11 Z M 308 60 C 335 60 360 65 382 76 C 404 86 423 101 439 120 C 455 139 467 162 476 188 C 484 214 489 242 489 273 C 489 306 484 335 474 361 C 464 387 451 408 435 425 C 419 442 400 455 378 464 C 356 472 334 477 312 477 C 257 477 213 457 180 419 C 147 381 131 331 131 269 C 131 239 135 212 143 186 C 151 160 162 138 178 120 C 193 101 212 86 234 76 C 256 65 280 60 308 60 Z" unicode="d" />
<glyph horiz-adv-x="628" d="M 324 -11 C 284 -11 246 -4 212 8 C 178 20 148 38 123 62 C 98 86 79 115 65 150 C 51 184 44 224 44 268 C 44 306 51 343 65 377 C 79 411 98 440 122 466 C 146 491 175 511 209 526 C 243 540 279 548 319 548 C 358 548 394 541 427 527 C 459 513 487 493 511 467 C 534 441 552 408 565 370 C 578 332 585 289 585 241 L 128 241 C 130 192 149 150 183 116 C 217 82 263 65 321 65 C 367 65 405 72 434 88 C 462 104 486 122 505 144 L 558 86 C 532 58 502 34 466 16 C 430 -1 382 -11 324 -11 Z M 128 305 L 497 305 C 496 354 478 395 444 427 C 410 459 367 476 315 476 C 289 476 264 471 242 462 C 220 452 201 440 185 424 C 169 408 156 390 146 370 C 136 349 130 327 128 305 Z" unicode="e" />
<glyph horiz-adv-x="355" d="M 339 464 L 203 464 L 203 0 L 118 0 L 118 464 L 14 464 L 14 536 L 118 536 L 118 642 C 118 666 122 689 130 709 C 138 729 148 746 162 760 C 176 774 191 784 209 792 C 227 799 245 803 265 803 C 287 803 307 800 324 795 C 341 790 355 784 367 778 L 344 709 C 336 712 326 715 314 719 C 302 722 290 724 278 724 C 256 724 238 714 224 695 C 210 675 203 652 203 625 L 203 536 L 339 536 L 339 464 Z" unicode="f" />
<glyph horiz-adv-x="654" d="M 292 3 C 256 3 222 9 192 22 C 162 35 136 53 114 77 C 92 101 75 129 63 162 C 51 195 45 231 45 271 C 45 311 51 349 63 383 C 75 417 93 446 115 470 C 137 494 163 512 194 526 C 224 539 258 546 295 546 C 343 546 385 533 421 508 C 457 483 481 451 493 412 L 493 536 L 570 536 L 570 77 C 570 28 561 -13 543 -49 C 525 -84 503 -113 475 -135 C 447 -157 416 -174 382 -185 C 347 -196 313 -202 280 -202 C 226 -202 184 -197 154 -188 C 124 -178 102 -169 88 -161 L 127 -90 C 138 -98 156 -106 182 -116 C 208 -125 238 -130 273 -130 C 301 -130 329 -125 355 -117 C 381 -109 404 -96 424 -79 C 444 -62 459 -41 471 -15 C 483 11 489 41 489 75 L 489 151 C 483 134 475 117 463 99 C 451 81 437 66 421 52 C 404 38 385 26 363 17 C 341 7 317 3 292 3 Z M 313 73 C 334 73 355 77 376 85 C 397 93 416 106 433 123 C 449 140 463 162 473 188 C 483 214 489 244 489 279 C 489 339 472 386 438 420 C 404 454 363 471 315 471 C 261 471 217 452 183 414 C 149 376 132 327 132 265 C 132 204 148 157 180 123 C 212 89 257 73 313 73 Z" unicode="g" />
<glyph horiz-adv-x="636" d="M 554 0 L 471 0 L 471 364 C 471 399 457 426 431 446 C 405 465 373 475 337 475 C 318 475 299 472 279 466 C 259 460 242 452 227 441 C 211 429 199 415 189 397 C 179 379 174 359 174 336 L 174 0 L 90 0 L 90 800 L 167 800 L 167 428 C 175 462 198 491 235 514 C 271 536 315 548 365 548 C 389 548 413 544 436 537 C 458 530 478 520 496 507 C 513 494 527 478 538 458 C 548 438 554 415 554 389 L 554 0 Z" unicode="h" />
<glyph horiz-adv-x="268" d="M 89 662 L 89 758 L 179 758 L 179 662 L 89 662 Z M 91 0 L 91 536 L 176 536 L 176 0 L 91 0 Z" unicode="i" />
<glyph horiz-adv-x="307" d="M 225 662 L 137 662 L 137 758 L 225 758 L 225 662 Z M 223 536 L 223 -17 C 223 -47 218 -74 210 -98 C 202 -121 190 -140 176 -156 C 162 -171 145 -182 127 -190 C 108 -198 89 -202 69 -202 C 47 -202 26 -199 4 -194 C -18 -189 -36 -182 -51 -174 L -25 -106 C -14 -112 -1 -117 12 -121 C 26 -125 43 -127 61 -127 C 81 -127 99 -116 115 -95 C 131 -74 139 -47 139 -13 L 139 536 L 223 536 Z" unicode="j" />
<glyph horiz-adv-x="572" d="M 591 2 L 494 -1 L 286 260 L 174 141 L 174 0 L 90 0 L 90 800 L 174 800 L 174 232 L 448 536 L 539 536 L 343 319 L 591 2 Z" unicode="k" />
<glyph horiz-adv-x="302" d="M 83 119 L 83 800 L 168 800 L 168 146 C 168 122 174 103 186 90 C 198 76 216 70 239 70 C 247 70 256 70 266 71 C 276 72 283 74 288 76 L 291 2 C 284 0 274 -1 260 -3 C 246 -5 233 -6 221 -6 C 203 -6 185 -3 169 1 C 152 6 137 14 125 24 C 112 34 102 47 94 63 C 86 79 83 97 83 119 Z" unicode="l" />
<glyph horiz-adv-x="1005" d="M 90 0 L 90 536 L 165 536 L 165 420 C 171 439 180 457 194 473 C 207 489 223 502 241 513 C 259 524 278 533 300 539 C 321 545 342 548 364 548 C 408 548 447 536 481 514 C 515 491 534 461 539 423 L 543 423 C 547 441 555 458 567 474 C 579 489 594 502 612 513 C 629 524 648 533 669 539 C 690 545 711 548 733 548 C 759 548 784 544 808 537 C 831 530 851 520 868 507 C 885 493 898 477 908 457 C 918 437 923 414 923 389 L 923 0 L 839 0 L 839 365 C 839 402 826 430 800 448 C 774 466 743 475 707 475 C 689 475 671 472 652 466 C 633 460 616 451 601 439 C 586 427 574 413 564 395 C 554 377 549 357 549 335 L 549 0 L 465 0 L 465 371 C 465 401 452 426 426 446 C 400 465 369 475 332 475 C 313 475 294 472 275 466 C 256 460 239 450 224 438 C 209 426 197 411 188 393 C 178 375 174 354 174 330 L 174 0 L 90 0 Z" unicode="m" />
<glyph horiz-adv-x="636" d="M 554 0 L 470 0 L 470 370 C 470 403 456 429 430 447 C 403 465 373 475 339 475 C 321 475 302 472 283 466 C 263 460 245 452 229 441 C 213 429 199 415 189 397 C 179 379 174 358 174 334 L 174 0 L 90 0 L 90 536 L 163 536 L 163 417 C 175 456 200 488 237 512 C 274 536 317 548 366 548 C 390 548 414 544 437 537 C 459 530 479 520 497 507 C 514 493 528 477 538 459 C 548 440 554 419 554 396 L 554 0 Z" unicode="n" />
<glyph horiz-adv-x="647" d="M 319 -11 C 283 -11 248 -4 215 8 C 181 20 152 39 127 63 C 102 87 82 116 67 150 C 51 184 44 223 44 266 C 44 305 51 342 66 376 C 80 410 100 440 126 466 C 151 491 180 511 214 526 C 248 540 284 548 322 548 C 361 548 398 541 432 528 C 466 515 496 497 521 474 C 546 450 566 422 581 389 C 595 356 603 320 603 280 C 603 238 595 199 580 163 C 565 127 545 97 520 71 C 494 45 464 25 430 11 C 395 -3 358 -11 319 -11 Z M 325 64 C 353 64 378 69 402 80 C 426 91 446 106 463 125 C 479 143 492 165 502 191 C 511 217 516 244 516 274 C 516 301 511 327 501 351 C 491 375 478 396 461 414 C 444 432 423 446 399 456 C 374 466 347 472 318 472 C 290 472 265 466 243 456 C 220 445 200 430 184 412 C 168 394 155 372 146 347 C 136 321 132 294 132 265 C 132 234 137 206 147 181 C 157 156 170 135 188 118 C 205 100 225 87 249 78 C 273 68 298 64 325 64 Z" unicode="o" />
<glyph horiz-adv-x="660" d="M 90 -194 L 90 536 L 167 536 L 167 393 C 177 437 200 473 236 502 C 271 531 317 546 373 546 C 445 546 504 521 549 473 C 593 425 616 359 616 276 C 616 233 609 194 597 159 C 585 124 568 94 546 70 C 524 46 499 27 469 13 C 439 0 406 -7 372 -7 C 320 -7 277 6 242 32 C 207 58 184 91 174 129 L 174 -194 L 90 -194 Z M 353 64 C 378 64 401 69 423 80 C 444 90 462 105 478 123 C 494 141 506 163 515 189 C 524 215 529 243 529 273 C 529 301 525 328 517 353 C 509 377 498 399 484 417 C 469 435 451 450 429 460 C 407 470 382 476 354 476 C 301 476 257 458 222 424 C 186 389 169 336 169 266 C 169 231 173 201 183 176 C 193 150 206 129 222 113 C 238 96 258 84 281 76 C 303 68 327 64 353 64 Z" unicode="p" />
<glyph horiz-adv-x="659" d="M 485 -194 L 485 132 C 479 116 470 99 459 83 C 447 66 433 51 417 37 C 400 23 381 12 359 3 C 337 -5 312 -10 286 -10 C 250 -10 217 -3 187 9 C 157 22 132 40 111 64 C 89 88 73 116 61 149 C 49 181 44 217 44 257 C 44 301 50 340 64 376 C 77 412 95 442 118 467 C 140 492 167 511 199 525 C 230 539 263 546 299 546 C 324 546 348 541 370 533 C 392 525 411 514 428 501 C 444 487 458 472 470 455 C 482 438 490 421 494 405 L 494 536 L 570 536 L 570 -194 L 485 -194 Z M 311 60 C 335 60 358 65 380 75 C 402 85 421 99 437 117 C 453 135 466 158 476 184 C 485 210 490 240 490 273 C 490 306 485 335 475 361 C 465 386 452 407 436 425 C 420 442 401 455 379 464 C 357 472 334 477 310 477 C 254 477 211 457 179 419 C 147 380 131 329 131 267 C 131 206 147 156 179 118 C 211 79 255 60 311 60 Z" unicode="q" />
<glyph horiz-adv-x="468" d="M 471 519 L 426 442 C 417 450 405 458 389 464 C 373 470 353 473 331 473 C 311 473 292 469 273 461 C 254 453 237 442 223 428 C 208 414 196 397 187 377 C 178 357 174 336 174 314 L 174 0 L 90 0 L 90 536 L 166 536 L 166 404 C 170 422 177 440 189 458 C 201 475 215 490 232 504 C 249 517 269 528 291 536 C 313 544 338 548 364 548 C 388 548 410 545 428 540 C 446 534 461 527 471 519 Z" unicode="r" />
<glyph horiz-adv-x="496" d="M 267 -11 C 217 -11 173 -4 136 8 C 98 21 67 38 42 59 L 80 116 C 102 99 130 85 163 73 C 196 61 229 56 263 56 C 293 56 318 64 340 81 C 361 97 372 118 372 142 C 372 162 362 181 343 198 C 323 214 286 231 230 247 C 166 265 122 288 99 316 C 75 343 64 374 64 410 C 64 430 68 449 78 467 C 88 484 101 498 118 510 C 135 522 155 531 178 538 C 200 544 225 548 251 548 C 302 548 343 541 374 529 C 404 516 428 504 445 492 L 413 428 C 391 441 368 453 343 464 C 317 475 289 481 258 481 C 229 481 204 474 182 461 C 160 447 150 430 150 409 C 150 398 151 388 154 380 C 157 371 163 363 172 356 C 181 348 194 341 212 333 C 230 325 253 317 282 309 C 346 290 391 268 418 242 C 444 216 458 184 458 145 C 458 121 453 100 443 81 C 433 61 419 45 402 31 C 384 17 364 7 341 0 C 317 -7 293 -11 267 -11 Z" unicode="s" />
<glyph horiz-adv-x="371" d="M 338 90 L 353 22 C 342 13 326 6 306 1 C 285 -3 264 -6 243 -6 C 203 -6 170 6 142 30 C 114 54 100 94 100 148 L 100 467 L 15 467 L 15 536 L 100 536 L 100 680 L 184 691 L 184 536 L 334 536 L 334 467 L 184 467 L 184 151 C 184 125 190 104 202 90 C 214 75 231 68 254 68 C 272 68 288 70 303 76 C 318 81 330 86 338 90 Z" unicode="t" />
<glyph horiz-adv-x="636" d="M 82 536 L 166 536 L 166 199 C 166 147 180 110 208 90 C 236 70 271 60 312 60 C 352 60 387 73 417 99 C 447 125 462 159 462 202 L 462 536 L 547 536 L 547 0 L 470 0 L 470 114 C 461 82 440 53 407 27 C 373 1 331 -12 279 -12 C 252 -12 227 -8 203 -1 C 179 5 158 16 140 31 C 122 45 108 64 98 86 C 87 108 82 135 82 166 L 82 536 Z" unicode="u" />
<glyph horiz-adv-x="534" d="M 539 536 L 292 -3 L 238 -3 L -5 536 L 89 536 L 269 126 L 451 536 L 539 536 Z" unicode="v" />
<glyph horiz-adv-x="765" d="M 522 -3 L 390 337 L 243 -3 L 192 -3 L 5 536 L 93 536 L 230 126 L 366 461 L 421 461 L 546 129 L 680 536 L 761 536 L 573 -3 L 522 -3 Z" unicode="w" />
<glyph horiz-adv-x="479" d="M 388 0 L 237 218 L 84 0 L 1 0 L 196 277 L 17 536 L 107 536 L 242 341 L 379 536 L 462 536 L 283 282 L 478 0 L 388 0 Z" unicode="x" />
<glyph horiz-adv-x="541" d="M 545 536 L 258 -78 C 235 -126 208 -158 177 -175 C 146 -191 116 -200 88 -200 C 72 -200 59 -198 48 -194 C 37 -190 29 -188 25 -187 L 52 -112 C 55 -114 61 -116 69 -118 C 77 -120 85 -122 94 -122 C 111 -122 127 -115 143 -103 C 158 -91 173 -70 188 -41 L 224 31 L -4 536 L 87 536 L 270 125 L 457 536 L 545 536 Z" unicode="y" />
<glyph horiz-adv-x="477" d="M 443 536 L 443 497 L 142 74 L 468 74 L 468 0 L 20 0 L 20 39 L 321 462 L 34 462 L 34 536 L 443 536 Z" unicode="z" />
<glyph horiz-adv-x="285" d="M 275 -179 C 213 -175 163 -157 124 -126 C 84 -95 64 -58 62 -14 C 61 8 63 29 67 48 C 71 67 76 84 82 99 C 87 114 92 128 98 142 C 103 155 105 168 105 180 C 104 198 95 215 79 231 C 62 246 39 254 10 254 L 10 316 C 40 316 63 324 81 340 C 98 356 107 376 108 399 C 108 402 105 411 100 426 C 94 440 88 456 82 473 C 75 490 70 507 67 524 C 63 540 62 556 62 572 C 62 594 68 615 78 636 C 88 656 103 675 121 691 C 139 707 162 720 188 730 C 214 740 243 747 275 749 L 275 688 C 237 684 206 671 184 648 C 161 624 149 597 148 567 C 147 558 147 547 149 535 C 151 523 154 510 160 498 C 168 479 175 462 181 446 C 187 430 191 416 191 405 C 190 376 182 350 166 328 C 150 306 124 291 89 285 C 123 278 148 263 164 241 C 180 219 188 196 190 172 C 190 154 188 139 182 125 C 176 111 170 97 164 84 C 158 71 153 57 151 43 C 148 28 147 14 148 2 C 148 -10 152 -23 158 -37 C 164 -51 173 -63 184 -75 C 194 -86 207 -96 223 -104 C 238 -112 255 -116 275 -118 L 275 -179 Z" unicode="{" />
<glyph horiz-adv-x="257" d="M 168 -179 L 89 -179 L 89 730 L 168 730 L 168 -179 Z" unicode="|" />
<glyph horiz-adv-x="285" d="M 10 -179 L 10 -118 C 29 -116 46 -112 62 -104 C 77 -96 90 -86 101 -75 C 111 -63 120 -51 126 -37 C 132 -23 136 -10 137 2 C 137 14 136 28 134 43 C 131 57 127 71 121 84 C 114 97 108 111 102 125 C 96 139 94 154 95 172 C 96 196 104 220 120 242 C 136 264 161 278 196 285 C 160 291 135 306 119 328 C 103 350 94 376 94 405 C 94 416 97 430 103 446 C 109 462 117 479 125 498 C 130 510 133 523 135 535 C 137 547 137 558 137 567 C 135 597 123 624 101 648 C 78 671 48 684 10 688 L 10 749 C 42 747 71 740 97 730 C 123 720 145 706 163 690 C 181 674 195 655 206 635 C 216 615 222 594 223 572 C 223 556 221 540 218 524 C 214 507 209 490 203 473 C 196 456 190 440 185 426 C 179 411 177 402 177 399 C 177 376 186 356 204 340 C 221 324 245 316 275 316 L 275 254 C 245 254 222 246 206 231 C 189 215 180 198 180 180 C 179 168 181 155 187 142 C 192 128 197 114 203 99 C 208 84 213 67 217 48 C 221 29 223 8 223 -14 C 221 -58 200 -95 161 -126 C 121 -157 71 -175 10 -179 Z" unicode="}" />
<glyph horiz-adv-x="500" d="M 392 437 L 465 437 C 465 378 456 335 438 308 C 420 280 394 267 358 267 C 335 267 315 271 298 281 C 280 291 265 301 252 312 C 238 323 223 333 209 342 C 195 351 180 356 165 356 C 150 356 137 348 125 334 C 113 319 108 298 108 270 L 36 270 C 36 328 46 371 66 399 C 86 427 109 442 136 442 C 162 442 185 437 205 427 C 224 417 242 406 260 393 C 272 382 286 372 300 363 C 314 354 329 350 347 350 C 365 350 377 357 383 371 C 389 385 392 407 392 437 Z" unicode="~" />
<glyph horiz-adv-x="299" d="M 103 613 L 196 613 L 196 520 L 103 520 L 103 613 Z M 100 178 L 129 410 L 173 410 L 199 178 L 199 -117 L 100 -117 L 100 178 Z" unicode="¡" />
<glyph horiz-adv-x="572" d="M 553 225 C 543 211 532 198 520 184 C 508 170 493 158 476 146 C 459 134 440 124 418 116 C 396 108 371 103 343 101 L 343 -3 L 278 -3 L 278 103 C 210 111 154 140 112 189 C 69 238 48 298 48 370 C 48 405 53 438 65 470 C 76 501 92 529 112 553 C 132 577 157 597 185 613 C 213 629 244 639 278 644 L 278 741 L 343 741 L 343 646 C 396 642 440 627 476 601 C 512 574 537 545 552 513 L 483 482 C 469 504 451 524 428 542 C 404 560 376 571 343 575 L 343 172 C 383 175 414 187 437 208 C 460 228 478 249 491 269 L 553 225 Z M 130 373 C 130 323 143 279 170 243 C 196 207 232 184 278 175 L 278 572 C 234 562 198 538 171 501 C 143 463 130 421 130 373 Z" unicode="¢" />
<glyph horiz-adv-x="610" d="M 596 65 L 596 0 L 36 0 L 36 51 C 42 53 50 56 62 58 C 74 60 89 64 108 68 C 122 70 136 74 151 80 C 165 86 179 93 191 103 C 203 112 214 124 222 138 C 230 152 234 168 234 186 C 234 190 233 195 232 201 C 231 206 230 211 228 216 L 48 216 L 48 275 L 198 275 C 189 289 179 303 169 319 C 159 335 149 351 140 369 L 48 369 L 48 428 L 111 428 C 104 445 98 463 94 483 C 90 502 88 522 88 543 C 88 580 95 611 109 637 C 123 663 141 683 165 699 C 188 714 215 725 246 732 C 276 738 308 742 342 742 C 397 742 448 732 494 714 C 540 696 573 678 594 662 L 552 600 C 533 612 505 627 467 643 C 429 659 389 667 345 667 C 323 667 302 664 282 660 C 262 656 244 648 228 638 C 212 627 200 613 191 595 C 181 577 177 554 177 528 C 177 510 179 493 184 477 C 188 460 194 444 202 428 L 511 428 L 511 369 L 234 369 C 244 352 254 336 264 320 C 274 304 282 289 289 275 L 511 275 L 511 216 L 308 216 C 308 214 309 212 309 210 C 309 208 309 206 309 204 C 309 181 304 161 296 145 C 287 128 276 114 264 103 C 252 92 239 84 225 78 C 211 72 198 67 188 65 L 596 65 Z" unicode="£" />
<glyph horiz-adv-x="501" d="M 439 188 L 401 150 L 342 211 C 328 203 314 196 298 192 C 282 188 265 186 249 186 C 232 186 216 188 200 192 C 184 196 169 203 156 211 L 97 150 L 57 190 L 113 248 C 101 262 91 279 84 297 C 77 315 74 334 74 354 C 74 374 77 394 84 412 C 91 430 101 446 114 461 L 57 519 L 95 557 L 155 496 C 168 504 183 510 199 515 C 215 519 231 522 249 522 C 266 522 283 519 299 515 C 315 510 331 503 345 495 L 406 558 L 444 519 L 387 459 C 399 444 408 428 415 410 C 421 392 425 374 425 354 C 425 333 421 313 414 295 C 406 277 396 260 384 246 L 439 188 Z M 249 247 C 279 247 306 257 329 279 C 351 300 363 325 363 354 C 363 382 351 407 329 429 C 306 450 279 461 249 461 C 217 461 191 450 169 429 C 147 407 136 382 136 354 C 136 325 147 300 169 279 C 191 257 217 247 249 247 Z" unicode="¤" />
<glyph horiz-adv-x="647" d="M 559 140 L 366 140 L 366 0 L 276 0 L 276 140 L 83 140 L 83 200 L 276 200 L 276 264 L 83 264 L 83 323 L 276 323 L 276 329 L 33 730 L 134 730 L 326 403 L 518 730 L 613 730 L 366 325 L 366 323 L 559 323 L 559 264 L 366 264 L 366 200 L 559 200 L 559 140 Z" unicode="¥" />
<glyph horiz-adv-x="274" d="M 101 351 L 101 730 L 173 730 L 173 351 L 101 351 Z M 173 200 L 173 -179 L 101 -179 L 101 200 L 173 200 Z" unicode="¦" />
<glyph horiz-adv-x="675" d="M 356 -181 C 298 -181 243 -174 193 -160 C 143 -146 101 -128 67 -106 L 104 -36 C 136 -57 175 -75 221 -89 C 267 -103 311 -111 353 -111 C 391 -111 424 -102 450 -85 C 476 -67 490 -42 490 -10 C 490 18 479 40 458 56 C 437 71 410 85 378 98 L 241 153 C 211 165 184 177 161 188 C 137 198 118 210 102 223 C 86 235 75 250 67 267 C 59 283 55 304 55 328 C 55 359 63 385 79 405 C 95 425 115 441 138 454 C 117 465 102 481 93 501 C 84 521 80 545 80 575 C 80 601 86 625 98 646 C 110 666 128 684 150 698 C 172 712 198 723 228 731 C 258 738 290 742 325 742 C 387 742 438 733 478 716 C 518 699 552 681 582 662 L 544 598 C 512 618 479 635 445 651 C 411 667 370 675 322 675 C 279 675 243 666 213 648 C 183 630 168 606 168 575 C 168 554 175 536 189 522 C 203 507 224 495 253 485 L 435 415 C 495 393 540 370 572 346 C 604 322 620 288 620 244 C 620 206 607 177 582 157 C 557 137 530 123 500 117 C 507 113 515 107 525 100 C 534 92 543 83 551 73 C 559 63 566 50 572 36 C 578 22 581 6 581 -11 C 581 -37 575 -61 563 -82 C 551 -103 536 -121 516 -136 C 496 -150 472 -161 444 -169 C 416 -177 387 -181 356 -181 Z M 438 160 C 461 162 482 168 502 180 C 522 192 532 210 532 236 C 532 259 520 279 498 297 C 476 314 439 332 387 351 L 211 419 C 191 410 174 399 161 387 C 147 375 141 358 141 336 C 141 309 152 287 176 270 C 199 253 237 236 289 218 L 438 160 Z" unicode="§" />
<glyph horiz-adv-x="500" d="M 377 587 L 306 587 L 306 744 L 377 744 L 377 587 Z M 194 587 L 123 587 L 123 744 L 194 744 L 194 587 Z" unicode="¨" />
<glyph horiz-adv-x="857" d="M 429 -12 C 377 -12 328 -2 282 18 C 236 38 196 64 162 98 C 128 132 102 172 82 218 C 62 264 52 313 52 365 C 52 417 62 466 82 512 C 102 558 128 597 162 631 C 196 665 236 692 282 712 C 328 732 377 742 429 742 C 481 742 530 732 576 712 C 622 692 661 665 695 631 C 729 597 756 558 776 512 C 796 466 806 417 806 365 C 806 313 796 264 776 218 C 756 172 729 132 695 98 C 661 64 622 38 576 18 C 530 -2 481 -12 429 -12 Z M 429 42 C 473 42 514 50 554 67 C 593 84 627 107 656 136 C 685 165 708 199 725 239 C 741 278 750 320 750 364 C 750 408 741 449 725 489 C 708 529 685 563 656 593 C 627 622 593 645 554 662 C 514 679 473 688 429 688 C 385 688 343 679 304 662 C 265 645 231 622 202 593 C 173 563 150 529 133 489 C 116 449 108 408 108 364 C 108 320 116 278 133 239 C 150 199 173 165 202 136 C 231 107 265 84 304 67 C 343 50 385 42 429 42 Z M 602 234 C 586 209 563 188 534 172 C 505 155 470 147 429 147 C 403 147 377 151 353 161 C 328 171 306 185 287 203 C 268 221 253 244 241 271 C 229 298 224 329 224 365 C 224 399 229 429 239 457 C 249 485 264 508 282 528 C 300 548 321 563 345 574 C 369 584 396 590 424 590 C 468 590 503 582 531 568 C 559 553 581 534 597 511 L 537 468 C 526 482 512 495 495 505 C 477 515 454 520 426 520 C 390 520 360 505 336 475 C 312 445 300 407 300 362 C 300 338 303 317 311 298 C 318 279 328 263 340 251 C 352 238 365 228 381 222 C 397 215 413 212 430 212 C 454 212 476 217 496 229 C 516 240 532 254 544 272 L 602 234 Z" unicode="©" />
<glyph horiz-adv-x="516" d="M 456 274 L 386 274 L 386 338 C 368 315 343 297 311 285 C 279 273 244 267 208 267 C 156 267 116 279 86 305 C 56 330 42 365 42 409 C 42 458 61 496 101 522 C 141 548 194 564 261 568 L 386 575 L 386 583 C 386 611 375 633 354 649 C 332 664 303 672 266 672 C 235 672 206 667 178 657 C 150 647 125 635 103 621 L 75 683 C 99 699 127 713 161 725 C 194 737 232 743 275 743 C 329 743 373 730 406 705 C 439 679 456 638 456 582 L 456 274 Z M 384 400 L 384 514 L 255 507 C 215 505 183 497 158 484 C 132 471 120 449 120 418 C 120 392 130 371 151 357 C 172 342 200 335 234 335 C 262 335 290 340 318 352 C 346 363 368 379 384 400 Z M 471 138 L 49 138 L 49 210 L 471 210 L 471 138 Z" unicode="ª" />
<glyph horiz-adv-x="451" d="M 205 102 L 28 280 L 28 331 L 205 508 L 205 420 L 101 306 L 205 194 L 205 102 Z M 420 102 L 242 280 L 242 331 L 420 508 L 420 420 L 315 306 L 420 194 L 420 102 Z" unicode="«" />
<glyph horiz-adv-x="500" d="M 451 381 L 451 131 L 380 131 L 380 308 L 31 308 L 31 381 L 451 381 Z" unicode="¬" />
<glyph horiz-adv-x="856" d="M 428 -12 C 376 -12 327 -2 281 18 C 235 38 195 64 161 98 C 127 132 101 172 81 218 C 61 264 51 313 51 365 C 51 417 61 466 81 512 C 101 558 127 597 161 631 C 195 665 235 692 281 712 C 327 732 376 742 428 742 C 480 742 529 732 575 712 C 621 692 660 665 694 631 C 728 597 755 558 775 512 C 795 466 805 417 805 365 C 805 313 795 264 775 218 C 755 172 728 132 694 98 C 660 64 621 38 575 18 C 529 -2 480 -12 428 -12 Z M 428 42 C 472 42 513 50 552 67 C 591 84 625 107 654 136 C 683 165 706 199 723 239 C 740 278 749 320 749 365 C 749 409 740 450 723 490 C 706 530 683 564 654 593 C 625 622 591 645 552 662 C 513 679 472 688 428 688 C 384 688 342 679 303 662 C 264 645 230 622 201 593 C 172 564 149 530 132 490 C 115 450 107 409 107 365 C 107 320 115 278 132 239 C 149 199 172 165 201 136 C 230 107 264 84 303 67 C 342 50 384 42 428 42 Z M 284 157 L 284 591 L 449 591 C 466 591 483 588 500 584 C 517 579 532 572 545 563 C 557 553 568 541 576 526 C 584 510 588 492 588 472 C 588 433 578 403 559 383 C 539 363 517 351 493 348 L 492 344 L 631 157 L 553 157 L 427 335 L 352 335 L 352 157 L 284 157 Z M 351 393 L 454 393 C 474 393 491 399 505 412 C 518 425 525 443 525 466 C 525 488 517 505 501 517 C 485 528 466 534 444 534 L 351 534 L 351 393 Z" unicode="®" />
<glyph horiz-adv-x="500" d="M 379 602 L 121 602 L 121 675 L 379 675 L 379 602 Z" unicode="¯" />
<glyph horiz-adv-x="436" d="M 218 366 C 192 366 167 371 144 381 C 121 391 101 404 85 421 C 68 437 55 457 45 480 C 35 503 30 528 30 554 C 30 580 35 604 45 627 C 55 650 68 670 85 687 C 101 703 121 717 144 727 C 167 737 192 742 218 742 C 244 742 268 737 291 727 C 314 717 334 703 351 687 C 367 670 381 650 391 627 C 401 604 406 580 406 554 C 406 528 401 503 391 480 C 381 457 367 437 351 421 C 334 404 314 391 291 381 C 268 371 244 366 218 366 Z M 218 435 C 250 435 278 446 302 470 C 326 494 338 522 338 554 C 338 586 326 614 302 638 C 278 661 250 673 218 673 C 185 673 157 661 133 638 C 109 614 98 586 98 554 C 98 522 109 494 133 470 C 157 446 185 435 218 435 Z" unicode="°" />
<glyph horiz-adv-x="500" d="M 474 299 L 286 299 L 286 114 L 215 114 L 215 299 L 26 299 L 26 363 L 215 363 L 215 548 L 286 548 L 286 363 L 474 363 L 474 299 Z M 468 26 L 34 26 L 34 91 L 468 91 L 468 26 Z" unicode="±" />
<glyph horiz-adv-x="322" d="M 301 372 L 21 372 L 21 399 L 183 555 C 190 561 197 570 205 581 C 212 592 216 605 216 620 C 216 635 210 649 199 661 C 188 673 172 679 150 679 C 124 679 106 671 96 656 C 86 641 80 624 80 605 L 15 605 C 15 641 27 672 52 700 C 76 727 111 741 157 741 C 201 741 234 730 256 710 C 278 689 290 664 290 635 C 290 608 285 586 275 568 C 265 550 254 536 243 526 L 141 432 L 301 432 L 301 372 Z" unicode="²" />
<glyph horiz-adv-x="346" d="M 225 569 C 253 565 275 554 291 537 C 307 520 315 500 315 477 C 315 464 312 451 307 438 C 302 424 294 412 282 401 C 270 390 255 381 235 374 C 215 367 190 364 161 364 C 120 364 88 368 65 378 C 42 388 24 398 11 408 L 51 449 C 62 442 76 435 94 429 C 112 423 133 420 158 420 C 190 420 214 426 228 439 C 242 452 249 468 249 487 C 249 507 240 521 223 528 C 206 534 186 538 164 538 L 92 538 L 92 591 L 159 591 C 181 591 198 595 212 603 C 225 611 232 623 232 639 C 232 652 226 663 214 671 C 202 679 184 683 160 683 C 139 683 120 679 102 671 C 84 663 71 653 63 643 L 23 682 C 36 696 54 710 76 723 C 98 735 129 742 170 742 C 211 742 243 733 266 716 C 288 699 300 678 300 652 C 300 630 292 611 278 597 C 263 583 245 573 225 569 Z" unicode="³" />
<glyph horiz-adv-x="500" d="M 156 594 L 262 757 L 361 757 L 240 594 L 156 594 Z" unicode="´" />
<glyph horiz-adv-x="622" d="M 82 -185 L 82 536 L 164 536 L 164 168 C 164 137 177 111 204 90 C 231 68 263 58 301 58 C 318 58 336 61 354 68 C 372 74 388 84 403 97 C 417 110 429 126 439 145 C 448 164 453 186 453 210 L 453 536 L 535 536 L 535 0 L 459 0 L 459 103 C 453 88 445 74 433 61 C 421 48 406 37 390 27 C 374 17 356 9 338 3 C 319 -3 300 -6 282 -7 C 256 -7 231 -1 207 9 C 183 20 167 35 158 55 L 158 -185 L 82 -185 Z" unicode="µ" />
<glyph horiz-adv-x="696" d="M 614 -179 L 557 -179 L 557 664 L 437 664 L 437 -179 L 380 -179 L 380 247 L 271 247 C 240 247 210 253 181 266 C 152 279 127 296 105 318 C 83 339 65 364 52 393 C 38 422 32 453 32 485 C 32 519 38 552 51 582 C 63 612 81 637 103 659 C 125 681 153 698 185 711 C 217 723 252 730 291 730 L 614 730 L 614 -179 Z M 381 316 L 381 661 L 320 661 C 272 661 232 644 202 611 C 171 578 156 537 156 488 C 156 464 160 442 168 422 C 176 401 188 383 202 367 C 216 351 232 339 251 330 C 269 320 289 316 310 316 L 381 316 Z" unicode="¶" />
<glyph horiz-adv-x="249" d="M 166 288 L 82 288 L 82 418 L 166 418 L 166 288 Z" unicode="·" />
<glyph horiz-adv-x="500" d="M 256 -187 C 232 -187 207 -184 183 -178 C 158 -172 139 -164 125 -155 L 138 -117 C 148 -123 160 -128 176 -134 C 192 -139 209 -142 229 -142 C 245 -142 258 -138 270 -131 C 282 -124 288 -115 288 -103 C 288 -90 282 -81 272 -75 C 262 -69 250 -67 238 -67 C 229 -67 222 -67 216 -68 C 210 -69 203 -71 196 -74 L 185 -62 L 244 12 L 295 12 L 245 -51 C 279 -43 309 -45 333 -58 C 357 -70 369 -89 369 -113 C 369 -137 357 -156 335 -168 C 312 -180 286 -187 256 -187 Z" unicode="¸" />
<glyph horiz-adv-x="326" d="M 143 372 L 143 652 C 135 640 122 630 102 622 C 82 613 65 607 51 605 L 50 678 C 74 681 96 688 114 699 C 132 709 150 723 168 740 L 220 740 L 220 372 L 143 372 Z" unicode="¹" />
<glyph horiz-adv-x="541" d="M 266 263 C 236 263 208 268 180 279 C 152 290 128 306 107 326 C 86 346 69 370 57 400 C 44 429 38 462 38 499 C 38 531 44 562 56 591 C 68 620 85 645 106 667 C 127 689 152 706 180 719 C 208 732 237 739 269 739 C 301 739 332 733 360 722 C 388 711 413 695 434 675 C 455 655 472 631 484 603 C 496 575 502 544 502 510 C 502 474 495 442 483 412 C 471 382 454 356 433 334 C 412 312 387 294 358 282 C 329 269 298 263 266 263 Z M 267 335 C 313 335 350 351 380 384 C 410 416 425 457 425 507 C 425 553 411 592 383 624 C 355 655 317 671 269 671 C 224 671 187 654 158 622 C 129 589 115 548 115 498 C 115 449 129 410 158 380 C 187 350 223 335 267 335 Z M 57 138 L 57 210 L 479 210 L 479 138 L 57 138 Z" unicode="º" />
<glyph horiz-adv-x="456" d="M 31 508 L 210 330 L 210 278 L 31 102 L 31 190 L 136 304 L 31 415 L 31 508 Z M 251 508 L 428 330 L 428 278 L 251 102 L 251 190 L 356 304 L 251 416 L 251 508 Z" unicode="»" />
<glyph horiz-adv-x="680" d="M 3 0 L 3 0 Z M 96 372 L 96 652 C 88 640 75 630 55 622 C 35 613 18 607 4 605 L 3 678 C 27 681 49 688 67 699 C 85 709 103 723 121 740 L 173 740 L 173 372 L 96 372 Z M 564 730 L 191 0 L 118 0 L 491 730 L 564 730 Z M 378 84 L 378 135 L 567 366 L 615 366 L 615 138 L 678 138 L 678 84 L 615 84 L 615 1 L 546 1 L 546 84 L 378 84 Z M 435 129 L 548 129 L 548 270 L 435 129 Z" unicode="¼" />
<glyph horiz-adv-x="733" d="M 3 0 L 3 0 Z M 96 372 L 96 652 C 88 640 75 630 55 622 C 35 613 18 607 4 605 L 3 678 C 27 681 49 688 67 699 C 85 709 103 723 121 740 L 173 740 L 173 372 L 96 372 Z M 564 730 L 191 0 L 118 0 L 491 730 L 564 730 Z M 724 0 L 444 0 L 444 27 L 606 183 C 613 189 620 198 628 209 C 635 220 639 233 639 248 C 639 263 633 277 622 289 C 611 301 595 307 573 307 C 547 307 529 299 519 284 C 509 269 503 252 503 233 L 438 233 C 438 269 450 300 475 328 C 499 355 534 369 580 369 C 624 369 657 358 679 338 C 701 317 713 292 713 263 C 713 236 708 214 698 196 C 688 178 677 164 666 154 L 564 60 L 724 60 L 724 0 Z" unicode="½" />
<glyph horiz-adv-x="742" d="M 3 0 L 3 0 Z M 625 730 L 252 0 L 179 0 L 552 730 L 625 730 Z M 439 84 L 439 135 L 628 366 L 676 366 L 676 138 L 739 138 L 739 84 L 676 84 L 676 1 L 607 1 L 607 84 L 439 84 Z M 496 129 L 609 129 L 609 270 L 496 129 Z M 217 569 C 245 565 267 554 283 537 C 299 520 307 500 307 477 C 307 464 304 451 299 438 C 294 424 286 412 274 401 C 262 390 247 381 227 374 C 207 367 182 364 153 364 C 112 364 80 368 57 378 C 34 388 16 398 3 408 L 43 449 C 54 442 68 435 86 429 C 104 423 125 420 150 420 C 182 420 206 426 220 439 C 234 452 241 468 241 487 C 241 507 232 521 215 528 C 198 534 178 538 156 538 L 84 538 L 84 591 L 151 591 C 173 591 190 595 204 603 C 217 611 224 623 224 639 C 224 652 218 663 206 671 C 194 679 176 683 152 683 C 131 683 112 679 94 671 C 76 663 63 653 55 643 L 15 682 C 28 696 46 710 68 723 C 90 735 121 742 162 742 C 203 742 235 733 258 716 C 280 699 292 678 292 652 C 292 630 284 611 270 597 C 255 583 237 573 217 569 Z" unicode="¾" />
<glyph horiz-adv-x="477" d="M 216 494 L 216 613 L 309 613 L 309 494 L 216 494 Z M 243 -129 C 212 -129 183 -125 157 -117 C 131 -109 108 -97 89 -83 C 69 -68 54 -50 43 -28 C 31 -6 26 19 26 47 C 26 73 30 96 38 116 C 46 136 57 155 70 171 C 83 187 97 200 112 212 C 127 224 141 234 154 244 C 183 266 202 292 210 324 C 218 355 222 386 223 417 L 306 417 C 306 366 301 326 291 296 C 281 266 259 239 227 214 C 214 204 201 193 188 183 C 174 173 162 161 151 149 C 140 137 131 123 125 108 C 118 93 115 76 115 58 C 115 24 128 -2 154 -22 C 180 -42 212 -52 251 -52 C 285 -52 315 -44 343 -29 C 370 -14 392 3 410 25 L 466 -30 C 444 -56 415 -79 377 -99 C 339 -119 295 -129 243 -129 Z" unicode="¿" />
<glyph horiz-adv-x="652" d="M 2 0 L 2 0 Z M 650 0 L 554 0 L 472 204 L 170 204 L 92 0 L 2 0 L 298 733 L 358 733 L 650 0 Z M 451 273 L 321 601 L 192 273 L 451 273 Z M 321 780 L 321 780 Z M 424 780 L 340 780 L 219 944 L 317 944 L 424 780 Z" unicode="À" />
<glyph horiz-adv-x="652" d="M 2 0 L 2 0 Z M 650 0 L 554 0 L 472 204 L 170 204 L 92 0 L 2 0 L 298 733 L 358 733 L 650 0 Z M 451 273 L 321 601 L 192 273 L 451 273 Z M 321 788 L 321 788 Z M 219 788 L 325 951 L 424 951 L 303 788 L 219 788 Z" unicode="Á" />
<glyph horiz-adv-x="652" d="M 2 0 L 2 0 Z M 650 0 L 554 0 L 472 204 L 170 204 L 92 0 L 2 0 L 298 733 L 358 733 L 650 0 Z M 451 273 L 321 601 L 192 273 L 451 273 Z M 321 781 L 321 781 Z M 487 781 L 409 781 L 321 901 L 232 781 L 156 781 L 279 952 L 364 952 L 487 781 Z" unicode="Â" />
<glyph horiz-adv-x="652" d="M 2 0 L 2 0 Z M 650 0 L 554 0 L 472 204 L 170 204 L 92 0 L 2 0 L 298 733 L 358 733 L 650 0 Z M 451 273 L 321 601 L 192 273 L 451 273 Z M 321 788 L 321 788 Z M 428 922 L 495 922 C 495 876 488 842 474 820 C 460 798 440 788 415 788 C 396 788 379 792 365 800 C 351 808 337 817 325 827 C 313 835 302 844 291 853 C 279 862 268 867 256 867 C 244 867 235 861 227 849 C 219 837 214 818 214 792 L 147 792 C 147 837 156 871 175 893 C 194 915 215 926 237 926 C 254 926 269 921 283 913 C 297 905 310 895 323 885 C 333 875 344 867 355 860 C 365 852 376 849 387 849 C 398 849 407 855 415 867 C 423 879 427 898 428 922 Z" unicode="Ã" />
<glyph horiz-adv-x="652" d="M 2 0 L 2 0 Z M 650 0 L 554 0 L 472 204 L 170 204 L 92 0 L 2 0 L 298 733 L 358 733 L 650 0 Z M 451 273 L 321 601 L 192 273 L 451 273 Z M 321 781 L 321 781 Z M 448 781 L 377 781 L 377 938 L 448 938 L 448 781 Z M 265 781 L 194 781 L 194 938 L 265 938 L 265 781 Z" unicode="Ä" />
<glyph horiz-adv-x="652" d="M 2 0 L 2 0 Z M 650 0 L 554 0 L 472 204 L 170 204 L 92 0 L 2 0 L 298 733 L 358 733 L 650 0 Z M 451 273 L 321 601 L 192 273 L 451 273 Z M 321 781 L 321 781 Z M 321 781 C 287 781 259 792 236 816 C 212 840 201 868 201 902 C 201 935 212 963 236 987 C 259 1010 287 1022 321 1022 C 355 1022 383 1010 407 987 C 430 963 442 935 442 902 C 442 868 430 840 407 816 C 383 792 355 781 321 781 Z M 321 835 C 339 835 355 841 368 854 C 380 867 387 883 387 902 C 387 920 380 936 368 949 C 355 962 339 969 321 969 C 303 969 287 962 274 949 C 261 936 255 920 255 902 C 255 883 261 867 274 854 C 287 841 303 835 321 835 Z" unicode="Å" />
<glyph horiz-adv-x="967" d="M 913 0 L 488 0 L 488 253 L 240 253 L 80 0 L -17 0 L 446 730 L 894 730 L 894 652 L 572 652 L 572 402 L 880 402 L 880 327 L 572 327 L 572 78 L 913 78 L 913 0 Z M 488 328 L 488 665 L 281 328 L 488 328 Z" unicode="Æ" />
<glyph horiz-adv-x="750" d="M 48 0 L 48 0 Z M 409 -12 C 361 -12 315 -3 271 14 C 227 32 189 57 156 89 C 123 121 97 161 77 208 C 57 254 48 307 48 365 C 48 419 57 470 75 517 C 93 563 119 603 151 636 C 183 669 221 695 265 714 C 309 732 358 742 410 742 C 476 742 532 731 580 711 C 627 691 667 661 699 621 L 631 565 C 607 592 577 614 542 632 C 507 650 464 659 412 659 C 370 659 333 652 299 638 C 265 624 236 604 213 579 C 189 553 171 523 158 487 C 145 451 139 411 139 368 C 139 320 147 277 163 239 C 179 201 200 170 226 145 C 252 120 281 101 315 88 C 349 75 383 69 419 69 C 471 69 517 79 555 100 C 593 121 625 148 649 182 L 716 134 C 688 94 647 59 595 31 C 542 2 480 -12 409 -12 Z M 407 -10 L 407 -10 Z M 416 -197 C 392 -197 367 -194 343 -188 C 318 -182 299 -174 285 -165 L 298 -127 C 308 -133 320 -138 336 -144 C 352 -149 369 -152 389 -152 C 405 -152 418 -148 430 -141 C 442 -134 448 -125 448 -113 C 448 -100 442 -91 432 -85 C 422 -79 410 -77 398 -77 C 389 -77 382 -77 376 -78 C 370 -79 363 -81 356 -84 L 345 -72 L 404 2 L 455 2 L 405 -61 C 439 -53 469 -55 493 -68 C 517 -80 529 -99 529 -123 C 529 -147 517 -166 495 -178 C 472 -190 446 -197 416 -197 Z" unicode="Ç" />
<glyph horiz-adv-x="583" d="M 97 0 L 97 0 Z M 526 0 L 97 0 L 97 730 L 507 730 L 507 652 L 186 652 L 186 403 L 493 403 L 493 326 L 186 326 L 186 78 L 526 78 L 526 0 Z M 310 780 L 310 780 Z M 413 780 L 329 780 L 208 944 L 306 944 L 413 780 Z" unicode="È" />
<glyph horiz-adv-x="583" d="M 97 0 L 97 0 Z M 526 0 L 97 0 L 97 730 L 507 730 L 507 652 L 186 652 L 186 403 L 493 403 L 493 326 L 186 326 L 186 78 L 526 78 L 526 0 Z M 310 788 L 310 788 Z M 208 788 L 314 951 L 413 951 L 292 788 L 208 788 Z" unicode="É" />
<glyph horiz-adv-x="583" d="M 97 0 L 97 0 Z M 526 0 L 97 0 L 97 730 L 507 730 L 507 652 L 186 652 L 186 403 L 493 403 L 493 326 L 186 326 L 186 78 L 526 78 L 526 0 Z M 310 781 L 310 781 Z M 476 781 L 398 781 L 310 901 L 221 781 L 145 781 L 268 952 L 353 952 L 476 781 Z" unicode="Ê" />
<glyph horiz-adv-x="583" d="M 97 0 L 97 0 Z M 526 0 L 97 0 L 97 730 L 507 730 L 507 652 L 186 652 L 186 403 L 493 403 L 493 326 L 186 326 L 186 78 L 526 78 L 526 0 Z M 310 781 L 310 781 Z M 437 781 L 366 781 L 366 938 L 437 938 L 437 781 Z M 254 781 L 183 781 L 183 938 L 254 938 L 254 781 Z" unicode="Ë" />
<glyph horiz-adv-x="293" d="M 44 0 L 44 0 Z M 191 0 L 101 0 L 101 730 L 191 730 L 191 0 Z M 146 780 L 146 780 Z M 249 780 L 165 780 L 44 944 L 142 944 L 249 780 Z" unicode="Ì" />
<glyph horiz-adv-x="293" d="M 44 0 L 44 0 Z M 191 0 L 101 0 L 101 730 L 191 730 L 191 0 Z M 146 788 L 146 788 Z M 44 788 L 150 951 L 249 951 L 128 788 L 44 788 Z" unicode="Í" />
<glyph horiz-adv-x="293" d="M 0 0 L 0 0 Z M 191 0 L 101 0 L 101 730 L 191 730 L 191 0 Z M 146 781 L 146 781 Z M 312 781 L 234 781 L 146 901 L 57 781 L -19 781 L 104 952 L 189 952 L 312 781 Z" unicode="Î" />
<glyph horiz-adv-x="293" d="M 19 0 L 19 0 Z M 191 0 L 101 0 L 101 730 L 191 730 L 191 0 Z M 146 781 L 146 781 Z M 273 781 L 202 781 L 202 938 L 273 938 L 273 781 Z M 90 781 L 19 781 L 19 938 L 90 938 L 90 781 Z" unicode="Ï" />
<glyph horiz-adv-x="747" d="M 698 367 C 698 316 689 268 672 224 C 654 179 629 140 596 107 C 562 74 520 48 470 29 C 420 9 362 0 296 0 L 97 0 L 97 325 L 35 325 L 35 390 L 97 390 L 97 730 L 311 730 C 371 730 425 721 473 704 C 521 687 562 663 595 632 C 628 600 653 562 671 517 C 689 472 698 422 698 367 Z M 183 68 L 286 68 C 344 68 393 76 434 93 C 474 109 507 131 533 159 C 558 186 576 218 588 254 C 600 290 606 327 606 365 C 606 457 579 529 526 582 C 472 635 400 662 309 662 L 183 662 L 183 390 L 375 390 L 375 325 L 183 325 L 183 68 Z" unicode="Ð" />
<glyph horiz-adv-x="791" d="M 97 0 L 97 0 Z M 694 0 L 629 0 L 181 574 L 181 0 L 97 0 L 97 730 L 166 730 L 611 160 L 611 730 L 694 730 L 694 0 Z M 395 788 L 395 788 Z M 502 922 L 569 922 C 569 876 562 842 548 820 C 534 798 514 788 489 788 C 470 788 453 792 439 800 C 425 808 411 817 399 827 C 387 835 376 844 365 853 C 353 862 342 867 330 867 C 318 867 309 861 301 849 C 293 837 288 818 288 792 L 221 792 C 221 837 230 871 249 893 C 268 915 289 926 311 926 C 328 926 343 921 357 913 C 371 905 384 895 397 885 C 407 875 418 867 429 860 C 439 852 450 849 461 849 C 472 849 481 855 489 867 C 497 879 501 898 502 922 Z" unicode="Ñ" />
<glyph horiz-adv-x="844" d="M 48 0 L 48 0 Z M 425 -12 C 370 -12 319 -2 273 17 C 227 36 187 63 154 97 C 120 131 94 171 76 218 C 57 265 48 316 48 370 C 48 423 57 472 76 518 C 95 564 121 603 154 636 C 187 669 226 695 272 714 C 317 732 365 742 417 742 C 472 742 523 732 570 714 C 616 695 656 669 690 636 C 723 602 749 563 768 517 C 786 471 796 421 796 367 C 796 311 786 260 766 214 C 746 167 720 127 686 94 C 652 60 613 34 568 16 C 522 -2 475 -12 425 -12 Z M 431 65 C 469 65 505 72 539 86 C 573 100 602 119 627 145 C 651 171 671 202 685 240 C 699 277 707 319 707 365 C 707 407 699 447 684 483 C 669 519 648 551 622 577 C 596 603 565 624 529 639 C 493 653 454 661 412 661 C 372 661 336 654 302 640 C 268 626 239 607 215 582 C 191 557 172 527 158 491 C 144 455 138 415 138 371 C 138 325 145 283 161 245 C 177 207 198 174 225 148 C 251 122 282 101 318 87 C 354 72 391 65 431 65 Z M 416 780 L 416 780 Z M 519 780 L 435 780 L 314 944 L 412 944 L 519 780 Z" unicode="Ò" />
<glyph horiz-adv-x="844" d="M 48 0 L 48 0 Z M 425 -12 C 370 -12 319 -2 273 17 C 227 36 187 63 154 97 C 120 131 94 171 76 218 C 57 265 48 316 48 370 C 48 423 57 472 76 518 C 95 564 121 603 154 636 C 187 669 226 695 272 714 C 317 732 365 742 417 742 C 472 742 523 732 570 714 C 616 695 656 669 690 636 C 723 602 749 563 768 517 C 786 471 796 421 796 367 C 796 311 786 260 766 214 C 746 167 720 127 686 94 C 652 60 613 34 568 16 C 522 -2 475 -12 425 -12 Z M 431 65 C 469 65 505 72 539 86 C 573 100 602 119 627 145 C 651 171 671 202 685 240 C 699 277 707 319 707 365 C 707 407 699 447 684 483 C 669 519 648 551 622 577 C 596 603 565 624 529 639 C 493 653 454 661 412 661 C 372 661 336 654 302 640 C 268 626 239 607 215 582 C 191 557 172 527 158 491 C 144 455 138 415 138 371 C 138 325 145 283 161 245 C 177 207 198 174 225 148 C 251 122 282 101 318 87 C 354 72 391 65 431 65 Z M 416 788 L 416 788 Z M 314 788 L 420 951 L 519 951 L 398 788 L 314 788 Z" unicode="Ó" />
<glyph horiz-adv-x="844" d="M 48 0 L 48 0 Z M 425 -12 C 370 -12 319 -2 273 17 C 227 36 187 63 154 97 C 120 131 94 171 76 218 C 57 265 48 316 48 370 C 48 423 57 472 76 518 C 95 564 121 603 154 636 C 187 669 226 695 272 714 C 317 732 365 742 417 742 C 472 742 523 732 570 714 C 616 695 656 669 690 636 C 723 602 749 563 768 517 C 786 471 796 421 796 367 C 796 311 786 260 766 214 C 746 167 720 127 686 94 C 652 60 613 34 568 16 C 522 -2 475 -12 425 -12 Z M 431 65 C 469 65 505 72 539 86 C 573 100 602 119 627 145 C 651 171 671 202 685 240 C 699 277 707 319 707 365 C 707 407 699 447 684 483 C 669 519 648 551 622 577 C 596 603 565 624 529 639 C 493 653 454 661 412 661 C 372 661 336 654 302 640 C 268 626 239 607 215 582 C 191 557 172 527 158 491 C 144 455 138 415 138 371 C 138 325 145 283 161 245 C 177 207 198 174 225 148 C 251 122 282 101 318 87 C 354 72 391 65 431 65 Z M 416 781 L 416 781 Z M 582 781 L 504 781 L 416 901 L 327 781 L 251 781 L 374 952 L 459 952 L 582 781 Z" unicode="Ô" />
<glyph horiz-adv-x="844" d="M 48 0 L 48 0 Z M 425 -12 C 370 -12 319 -2 273 17 C 227 36 187 63 154 97 C 120 131 94 171 76 218 C 57 265 48 316 48 370 C 48 423 57 472 76 518 C 95 564 121 603 154 636 C 187 669 226 695 272 714 C 317 732 365 742 417 742 C 472 742 523 732 570 714 C 616 695 656 669 690 636 C 723 602 749 563 768 517 C 786 471 796 421 796 367 C 796 311 786 260 766 214 C 746 167 720 127 686 94 C 652 60 613 34 568 16 C 522 -2 475 -12 425 -12 Z M 431 65 C 469 65 505 72 539 86 C 573 100 602 119 627 145 C 651 171 671 202 685 240 C 699 277 707 319 707 365 C 707 407 699 447 684 483 C 669 519 648 551 622 577 C 596 603 565 624 529 639 C 493 653 454 661 412 661 C 372 661 336 654 302 640 C 268 626 239 607 215 582 C 191 557 172 527 158 491 C 144 455 138 415 138 371 C 138 325 145 283 161 245 C 177 207 198 174 225 148 C 251 122 282 101 318 87 C 354 72 391 65 431 65 Z M 416 788 L 416 788 Z M 523 922 L 590 922 C 590 876 583 842 569 820 C 555 798 535 788 510 788 C 491 788 474 792 460 800 C 446 808 432 817 420 827 C 408 835 397 844 386 853 C 374 862 363 867 351 867 C 339 867 330 861 322 849 C 314 837 309 818 309 792 L 242 792 C 242 837 251 871 270 893 C 289 915 310 926 332 926 C 349 926 364 921 378 913 C 392 905 405 895 418 885 C 428 875 439 867 450 860 C 460 852 471 849 482 849 C 493 849 502 855 510 867 C 518 879 522 898 523 922 Z" unicode="Õ" />
<glyph horiz-adv-x="844" d="M 48 0 L 48 0 Z M 425 -12 C 370 -12 319 -2 273 17 C 227 36 187 63 154 97 C 120 131 94 171 76 218 C 57 265 48 316 48 370 C 48 423 57 472 76 518 C 95 564 121 603 154 636 C 187 669 226 695 272 714 C 317 732 365 742 417 742 C 472 742 523 732 570 714 C 616 695 656 669 690 636 C 723 602 749 563 768 517 C 786 471 796 421 796 367 C 796 311 786 260 766 214 C 746 167 720 127 686 94 C 652 60 613 34 568 16 C 522 -2 475 -12 425 -12 Z M 431 65 C 469 65 505 72 539 86 C 573 100 602 119 627 145 C 651 171 671 202 685 240 C 699 277 707 319 707 365 C 707 407 699 447 684 483 C 669 519 648 551 622 577 C 596 603 565 624 529 639 C 493 653 454 661 412 661 C 372 661 336 654 302 640 C 268 626 239 607 215 582 C 191 557 172 527 158 491 C 144 455 138 415 138 371 C 138 325 145 283 161 245 C 177 207 198 174 225 148 C 251 122 282 101 318 87 C 354 72 391 65 431 65 Z M 416 781 L 416 781 Z M 543 781 L 472 781 L 472 938 L 543 938 L 543 781 Z M 360 781 L 289 781 L 289 938 L 360 938 L 360 781 Z" unicode="Ö" />
<glyph horiz-adv-x="500" d="M 112 146 L 65 193 L 203 331 L 66 468 L 112 515 L 250 378 L 388 515 L 434 468 L 297 331 L 435 193 L 388 145 L 250 284 L 112 146 Z" unicode="×" />
<glyph horiz-adv-x="844" d="M 796 367 C 796 311 786 260 766 214 C 746 167 720 127 686 94 C 652 60 613 34 568 16 C 522 -2 475 -12 425 -12 C 377 -12 332 -4 290 11 C 248 26 212 47 180 74 L 107 1 L 59 47 L 133 121 C 106 153 85 191 70 234 C 55 276 48 322 48 370 C 48 423 57 472 76 518 C 95 564 121 603 154 636 C 187 669 226 695 272 714 C 317 732 365 742 417 742 C 466 742 512 734 555 719 C 597 704 635 683 668 656 L 752 741 L 800 695 L 714 609 C 740 577 760 540 774 499 C 788 458 796 414 796 367 Z M 138 371 C 138 334 143 300 153 268 C 163 236 177 207 195 183 L 605 594 C 579 614 550 631 517 643 C 484 655 449 661 412 661 C 372 661 336 654 302 640 C 268 626 239 607 215 582 C 191 557 172 527 158 491 C 144 455 138 415 138 371 Z M 707 365 C 707 399 702 432 692 462 C 682 492 668 520 650 545 L 240 134 C 266 112 295 95 328 83 C 360 71 395 65 431 65 C 469 65 505 72 539 86 C 573 100 602 119 627 145 C 651 171 671 202 685 240 C 699 277 707 319 707 365 Z" unicode="Ø" />
<glyph horiz-adv-x="759" d="M 93 0 L 93 0 Z M 666 730 L 666 266 C 666 222 658 183 643 149 C 628 114 608 85 582 61 C 556 37 525 19 490 7 C 455 -5 418 -12 379 -12 C 340 -12 303 -6 268 6 C 233 18 203 35 177 59 C 151 83 131 112 116 147 C 100 181 93 221 93 266 L 93 730 L 181 730 L 181 266 C 181 236 186 208 197 184 C 207 160 221 139 239 122 C 257 105 277 92 301 83 C 325 73 350 69 377 69 C 403 69 429 73 454 82 C 478 90 500 103 518 120 C 536 136 550 157 561 182 C 572 206 578 234 578 266 L 578 730 L 666 730 Z M 379 780 L 379 780 Z M 482 780 L 398 780 L 277 944 L 375 944 L 482 780 Z" unicode="Ù" />
<glyph horiz-adv-x="759" d="M 93 0 L 93 0 Z M 666 730 L 666 266 C 666 222 658 183 643 149 C 628 114 608 85 582 61 C 556 37 525 19 490 7 C 455 -5 418 -12 379 -12 C 340 -12 303 -6 268 6 C 233 18 203 35 177 59 C 151 83 131 112 116 147 C 100 181 93 221 93 266 L 93 730 L 181 730 L 181 266 C 181 236 186 208 197 184 C 207 160 221 139 239 122 C 257 105 277 92 301 83 C 325 73 350 69 377 69 C 403 69 429 73 454 82 C 478 90 500 103 518 120 C 536 136 550 157 561 182 C 572 206 578 234 578 266 L 578 730 L 666 730 Z M 379 788 L 379 788 Z M 277 788 L 383 951 L 482 951 L 361 788 L 277 788 Z" unicode="Ú" />
<glyph horiz-adv-x="759" d="M 93 0 L 93 0 Z M 666 730 L 666 266 C 666 222 658 183 643 149 C 628 114 608 85 582 61 C 556 37 525 19 490 7 C 455 -5 418 -12 379 -12 C 340 -12 303 -6 268 6 C 233 18 203 35 177 59 C 151 83 131 112 116 147 C 100 181 93 221 93 266 L 93 730 L 181 730 L 181 266 C 181 236 186 208 197 184 C 207 160 221 139 239 122 C 257 105 277 92 301 83 C 325 73 350 69 377 69 C 403 69 429 73 454 82 C 478 90 500 103 518 120 C 536 136 550 157 561 182 C 572 206 578 234 578 266 L 578 730 L 666 730 Z M 379 781 L 379 781 Z M 545 781 L 467 781 L 379 901 L 290 781 L 214 781 L 337 952 L 422 952 L 545 781 Z" unicode="Û" />
<glyph horiz-adv-x="759" d="M 93 0 L 93 0 Z M 666 730 L 666 266 C 666 222 658 183 643 149 C 628 114 608 85 582 61 C 556 37 525 19 490 7 C 455 -5 418 -12 379 -12 C 340 -12 303 -6 268 6 C 233 18 203 35 177 59 C 151 83 131 112 116 147 C 100 181 93 221 93 266 L 93 730 L 181 730 L 181 266 C 181 236 186 208 197 184 C 207 160 221 139 239 122 C 257 105 277 92 301 83 C 325 73 350 69 377 69 C 403 69 429 73 454 82 C 478 90 500 103 518 120 C 536 136 550 157 561 182 C 572 206 578 234 578 266 L 578 730 L 666 730 Z M 379 781 L 379 781 Z M 506 781 L 435 781 L 435 938 L 506 938 L 506 781 Z M 323 781 L 252 781 L 252 938 L 323 938 L 323 781 Z" unicode="Ü" />
<glyph horiz-adv-x="658" d="M 2 0 L 2 0 Z M 656 730 L 372 312 L 372 0 L 282 0 L 282 316 L 2 730 L 103 730 L 331 395 L 561 730 L 656 730 Z M 331 788 L 331 788 Z M 229 788 L 335 951 L 434 951 L 313 788 L 229 788 Z" unicode="Ý" />
<glyph horiz-adv-x="602" d="M 97 0 L 97 730 L 187 730 L 187 599 L 343 599 C 416 599 473 579 514 539 C 554 499 575 447 575 384 C 575 352 569 323 558 296 C 547 269 532 246 512 227 C 492 207 469 192 441 181 C 413 170 382 165 349 165 L 187 165 L 187 0 L 97 0 Z M 185 233 L 335 233 C 380 233 416 246 443 274 C 470 301 484 339 484 387 C 484 433 468 468 438 492 C 407 516 370 528 326 528 L 185 528 L 185 233 Z" unicode="Þ" />
<glyph horiz-adv-x="683" d="M 460 -11 C 412 -11 369 -4 332 8 C 295 20 264 37 240 59 L 277 116 C 301 98 328 83 360 72 C 392 61 424 56 456 56 C 487 56 513 64 533 81 C 553 97 563 118 563 143 C 563 163 554 182 536 199 C 518 215 482 231 430 247 C 365 264 320 283 294 305 C 268 326 255 358 255 401 C 255 419 258 436 266 451 C 273 465 283 478 295 488 C 307 498 320 507 335 514 C 350 520 366 525 382 527 C 386 531 392 538 400 549 C 407 560 411 578 412 604 C 412 647 399 680 374 703 C 348 726 319 738 287 738 C 255 738 229 728 207 710 C 185 692 174 664 174 627 L 174 0 L 90 0 L 90 639 C 90 666 95 690 105 711 C 115 732 128 750 145 764 C 162 778 182 788 206 795 C 229 802 254 806 280 806 C 307 806 333 801 359 793 C 385 785 407 773 427 758 C 446 742 461 724 473 702 C 485 680 491 655 491 628 C 491 590 485 560 474 539 C 463 517 453 502 444 494 C 416 490 390 480 366 466 C 342 451 328 433 325 412 C 325 388 336 368 359 354 C 382 339 420 324 473 309 C 537 290 582 268 610 243 C 638 217 652 185 652 146 C 652 122 647 100 637 80 C 627 60 613 44 596 31 C 578 17 558 7 535 0 C 511 -7 486 -11 460 -11 Z" unicode="ß" />
<glyph horiz-adv-x="589" d="M 44 0 L 44 0 Z M 516 0 L 433 0 L 433 76 C 413 50 385 29 351 14 C 316 0 276 -8 231 -8 C 173 -8 127 6 94 34 C 60 62 44 100 44 148 C 44 208 67 253 113 285 C 159 317 220 335 297 340 L 432 348 L 432 358 C 432 398 420 428 396 448 C 372 467 340 477 298 477 C 264 477 231 471 200 459 C 169 447 141 433 115 417 L 80 479 C 107 497 140 514 179 528 C 217 542 261 550 309 550 C 372 550 422 534 460 504 C 497 474 516 425 516 359 L 516 0 Z M 434 138 L 434 283 L 287 276 C 242 273 205 262 176 243 C 147 224 133 196 133 158 C 133 127 144 103 168 85 C 192 67 223 58 261 58 C 295 58 327 65 359 80 C 391 94 416 114 434 138 Z M 291 586 L 291 586 Z M 394 586 L 310 586 L 189 750 L 287 750 L 394 586 Z" unicode="à" />
<glyph horiz-adv-x="589" d="M 44 0 L 44 0 Z M 516 0 L 433 0 L 433 76 C 413 50 385 29 351 14 C 316 0 276 -8 231 -8 C 173 -8 127 6 94 34 C 60 62 44 100 44 148 C 44 208 67 253 113 285 C 159 317 220 335 297 340 L 432 348 L 432 358 C 432 398 420 428 396 448 C 372 467 340 477 298 477 C 264 477 231 471 200 459 C 169 447 141 433 115 417 L 80 479 C 107 497 140 514 179 528 C 217 542 261 550 309 550 C 372 550 422 534 460 504 C 497 474 516 425 516 359 L 516 0 Z M 434 138 L 434 283 L 287 276 C 242 273 205 262 176 243 C 147 224 133 196 133 158 C 133 127 144 103 168 85 C 192 67 223 58 261 58 C 295 58 327 65 359 80 C 391 94 416 114 434 138 Z M 291 594 L 291 594 Z M 189 594 L 295 757 L 394 757 L 273 594 L 189 594 Z" unicode="á" />
<glyph horiz-adv-x="589" d="M 44 0 L 44 0 Z M 516 0 L 433 0 L 433 76 C 413 50 385 29 351 14 C 316 0 276 -8 231 -8 C 173 -8 127 6 94 34 C 60 62 44 100 44 148 C 44 208 67 253 113 285 C 159 317 220 335 297 340 L 432 348 L 432 358 C 432 398 420 428 396 448 C 372 467 340 477 298 477 C 264 477 231 471 200 459 C 169 447 141 433 115 417 L 80 479 C 107 497 140 514 179 528 C 217 542 261 550 309 550 C 372 550 422 534 460 504 C 497 474 516 425 516 359 L 516 0 Z M 434 138 L 434 283 L 287 276 C 242 273 205 262 176 243 C 147 224 133 196 133 158 C 133 127 144 103 168 85 C 192 67 223 58 261 58 C 295 58 327 65 359 80 C 391 94 416 114 434 138 Z M 291 587 L 291 587 Z M 457 587 L 379 587 L 291 707 L 202 587 L 126 587 L 249 758 L 334 758 L 457 587 Z" unicode="â" />
<glyph horiz-adv-x="589" d="M 44 0 L 44 0 Z M 516 0 L 433 0 L 433 76 C 413 50 385 29 351 14 C 316 0 276 -8 231 -8 C 173 -8 127 6 94 34 C 60 62 44 100 44 148 C 44 208 67 253 113 285 C 159 317 220 335 297 340 L 432 348 L 432 358 C 432 398 420 428 396 448 C 372 467 340 477 298 477 C 264 477 231 471 200 459 C 169 447 141 433 115 417 L 80 479 C 107 497 140 514 179 528 C 217 542 261 550 309 550 C 372 550 422 534 460 504 C 497 474 516 425 516 359 L 516 0 Z M 434 138 L 434 283 L 287 276 C 242 273 205 262 176 243 C 147 224 133 196 133 158 C 133 127 144 103 168 85 C 192 67 223 58 261 58 C 295 58 327 65 359 80 C 391 94 416 114 434 138 Z M 291 594 L 291 594 Z M 398 728 L 465 728 C 465 682 458 648 444 626 C 430 604 410 594 385 594 C 366 594 349 598 335 606 C 321 614 307 623 295 633 C 283 641 272 650 261 659 C 249 668 238 673 226 673 C 214 673 205 667 197 655 C 189 643 184 624 184 598 L 117 598 C 117 643 126 677 145 699 C 164 721 185 732 207 732 C 224 732 239 727 253 719 C 267 711 280 701 293 691 C 303 681 314 673 325 666 C 335 658 346 655 357 655 C 368 655 377 661 385 673 C 393 685 397 704 398 728 Z" unicode="ã" />
<glyph horiz-adv-x="589" d="M 44 0 L 44 0 Z M 516 0 L 433 0 L 433 76 C 413 50 385 29 351 14 C 316 0 276 -8 231 -8 C 173 -8 127 6 94 34 C 60 62 44 100 44 148 C 44 208 67 253 113 285 C 159 317 220 335 297 340 L 432 348 L 432 358 C 432 398 420 428 396 448 C 372 467 340 477 298 477 C 264 477 231 471 200 459 C 169 447 141 433 115 417 L 80 479 C 107 497 140 514 179 528 C 217 542 261 550 309 550 C 372 550 422 534 460 504 C 497 474 516 425 516 359 L 516 0 Z M 434 138 L 434 283 L 287 276 C 242 273 205 262 176 243 C 147 224 133 196 133 158 C 133 127 144 103 168 85 C 192 67 223 58 261 58 C 295 58 327 65 359 80 C 391 94 416 114 434 138 Z M 291 587 L 291 587 Z M 418 587 L 347 587 L 347 744 L 418 744 L 418 587 Z M 235 587 L 164 587 L 164 744 L 235 744 L 235 587 Z" unicode="ä" />
<glyph horiz-adv-x="589" d="M 44 0 L 44 0 Z M 516 0 L 433 0 L 433 76 C 413 50 385 29 351 14 C 316 0 276 -8 231 -8 C 173 -8 127 6 94 34 C 60 62 44 100 44 148 C 44 208 67 253 113 285 C 159 317 220 335 297 340 L 432 348 L 432 358 C 432 398 420 428 396 448 C 372 467 340 477 298 477 C 264 477 231 471 200 459 C 169 447 141 433 115 417 L 80 479 C 107 497 140 514 179 528 C 217 542 261 550 309 550 C 372 550 422 534 460 504 C 497 474 516 425 516 359 L 516 0 Z M 434 138 L 434 283 L 287 276 C 242 273 205 262 176 243 C 147 224 133 196 133 158 C 133 127 144 103 168 85 C 192 67 223 58 261 58 C 295 58 327 65 359 80 C 391 94 416 114 434 138 Z M 291 587 L 291 587 Z M 291 587 C 257 587 229 598 206 622 C 182 646 171 674 171 708 C 171 741 182 769 206 793 C 229 816 257 828 291 828 C 325 828 353 816 377 793 C 400 769 412 741 412 708 C 412 674 400 646 377 622 C 353 598 325 587 291 587 Z M 291 641 C 309 641 325 647 338 660 C 350 673 357 689 357 708 C 357 726 350 742 338 755 C 325 768 309 775 291 775 C 273 775 257 768 244 755 C 231 742 225 726 225 708 C 225 689 231 673 244 660 C 257 647 273 641 291 641 Z" unicode="å" />
<glyph horiz-adv-x="1018" d="M 715 -11 C 683 -11 654 -6 627 2 C 599 10 575 21 554 35 C 533 48 516 63 502 81 C 488 98 478 115 474 132 C 466 114 455 96 441 79 C 427 62 410 47 390 34 C 370 21 347 11 321 3 C 295 -4 266 -8 236 -8 C 182 -8 138 6 105 34 C 71 62 55 100 55 148 C 55 209 77 255 123 286 C 169 316 230 334 308 339 L 444 348 L 444 358 C 444 394 431 423 407 445 C 383 466 350 477 309 477 C 275 477 242 470 210 458 C 178 446 150 432 124 416 L 90 479 C 118 498 150 515 186 529 C 222 543 261 550 303 550 C 357 550 399 538 431 516 C 462 493 483 462 493 424 C 499 437 508 451 520 466 C 532 480 547 494 565 506 C 583 518 605 528 629 536 C 653 544 679 548 709 548 C 788 548 852 521 901 467 C 949 413 974 338 975 243 L 519 243 C 519 216 524 192 534 170 C 544 148 558 129 575 114 C 592 98 612 86 636 78 C 660 69 685 65 713 65 C 767 65 806 74 832 92 C 858 110 879 127 896 145 L 948 86 C 922 58 892 34 856 16 C 820 -1 773 -11 715 -11 Z M 520 304 L 888 304 C 887 327 882 349 873 370 C 864 390 852 408 836 424 C 820 440 802 452 780 462 C 758 471 733 476 706 476 C 680 476 656 471 634 462 C 612 453 592 441 576 425 C 560 409 547 391 537 370 C 527 349 522 327 520 304 Z M 266 58 C 286 58 306 61 325 69 C 343 77 360 87 376 99 C 391 111 404 125 416 141 C 428 156 438 171 446 187 L 446 283 L 298 273 C 254 270 217 261 187 246 C 157 230 143 202 143 161 C 143 127 154 102 178 84 C 201 66 230 58 266 58 Z" unicode="æ" />
<glyph horiz-adv-x="587" d="M 44 0 L 44 0 Z M 491 163 L 557 118 C 547 103 535 88 521 72 C 507 56 491 43 472 31 C 453 19 431 9 406 1 C 381 -7 352 -11 320 -11 C 280 -11 243 -4 209 9 C 175 23 145 42 121 66 C 97 90 78 120 64 154 C 50 188 44 226 44 267 C 44 306 51 343 65 378 C 79 412 98 442 123 467 C 147 492 177 512 211 526 C 245 540 283 548 323 548 C 355 548 384 543 410 535 C 435 527 457 516 476 503 C 495 490 511 475 523 459 C 535 442 545 425 552 409 L 479 376 C 467 400 448 422 423 442 C 398 462 364 473 320 473 C 292 473 266 467 243 456 C 219 445 199 430 183 412 C 167 394 154 372 145 347 C 135 322 131 296 131 269 C 131 211 148 162 183 123 C 217 84 264 65 322 65 C 346 65 367 68 385 74 C 403 80 418 87 432 97 C 445 107 456 117 466 129 C 476 141 484 152 491 163 Z M 311 -10 L 311 -10 Z M 320 -197 C 296 -197 271 -194 247 -188 C 222 -182 203 -174 189 -165 L 202 -127 C 212 -133 224 -138 240 -144 C 256 -149 273 -152 293 -152 C 309 -152 322 -148 334 -141 C 346 -134 352 -125 352 -113 C 352 -100 346 -91 336 -85 C 326 -79 314 -77 302 -77 C 293 -77 286 -77 280 -78 C 274 -79 267 -81 260 -84 L 249 -72 L 308 2 L 359 2 L 309 -61 C 343 -53 373 -55 397 -68 C 421 -80 433 -99 433 -123 C 433 -147 421 -166 399 -178 C 376 -190 350 -197 320 -197 Z" unicode="ç" />
<glyph horiz-adv-x="628" d="M 44 0 L 44 0 Z M 324 -11 C 284 -11 246 -4 212 8 C 178 20 148 38 123 62 C 98 86 79 115 65 150 C 51 184 44 224 44 268 C 44 306 51 343 65 377 C 79 411 98 440 122 466 C 146 491 175 511 209 526 C 243 540 279 548 319 548 C 358 548 394 541 427 527 C 459 513 487 493 511 467 C 534 441 552 408 565 370 C 578 332 585 289 585 241 L 128 241 C 130 192 149 150 183 116 C 217 82 263 65 321 65 C 367 65 405 72 434 88 C 462 104 486 122 505 144 L 558 86 C 532 58 502 34 466 16 C 430 -1 382 -11 324 -11 Z M 128 305 L 497 305 C 496 354 478 395 444 427 C 410 459 367 476 315 476 C 289 476 264 471 242 462 C 220 452 201 440 185 424 C 169 408 156 390 146 370 C 136 349 130 327 128 305 Z M 316 586 L 316 586 Z M 419 586 L 335 586 L 214 750 L 312 750 L 419 586 Z" unicode="è" />
<glyph horiz-adv-x="628" d="M 44 0 L 44 0 Z M 324 -11 C 284 -11 246 -4 212 8 C 178 20 148 38 123 62 C 98 86 79 115 65 150 C 51 184 44 224 44 268 C 44 306 51 343 65 377 C 79 411 98 440 122 466 C 146 491 175 511 209 526 C 243 540 279 548 319 548 C 358 548 394 541 427 527 C 459 513 487 493 511 467 C 534 441 552 408 565 370 C 578 332 585 289 585 241 L 128 241 C 130 192 149 150 183 116 C 217 82 263 65 321 65 C 367 65 405 72 434 88 C 462 104 486 122 505 144 L 558 86 C 532 58 502 34 466 16 C 430 -1 382 -11 324 -11 Z M 128 305 L 497 305 C 496 354 478 395 444 427 C 410 459 367 476 315 476 C 289 476 264 471 242 462 C 220 452 201 440 185 424 C 169 408 156 390 146 370 C 136 349 130 327 128 305 Z M 316 594 L 316 594 Z M 214 594 L 320 757 L 419 757 L 298 594 L 214 594 Z" unicode="é" />
<glyph horiz-adv-x="628" d="M 44 0 L 44 0 Z M 324 -11 C 284 -11 246 -4 212 8 C 178 20 148 38 123 62 C 98 86 79 115 65 150 C 51 184 44 224 44 268 C 44 306 51 343 65 377 C 79 411 98 440 122 466 C 146 491 175 511 209 526 C 243 540 279 548 319 548 C 358 548 394 541 427 527 C 459 513 487 493 511 467 C 534 441 552 408 565 370 C 578 332 585 289 585 241 L 128 241 C 130 192 149 150 183 116 C 217 82 263 65 321 65 C 367 65 405 72 434 88 C 462 104 486 122 505 144 L 558 86 C 532 58 502 34 466 16 C 430 -1 382 -11 324 -11 Z M 128 305 L 497 305 C 496 354 478 395 444 427 C 410 459 367 476 315 476 C 289 476 264 471 242 462 C 220 452 201 440 185 424 C 169 408 156 390 146 370 C 136 349 130 327 128 305 Z M 316 587 L 316 587 Z M 482 587 L 404 587 L 316 707 L 227 587 L 151 587 L 274 758 L 359 758 L 482 587 Z" unicode="ê" />
<glyph horiz-adv-x="628" d="M 44 0 L 44 0 Z M 324 -11 C 284 -11 246 -4 212 8 C 178 20 148 38 123 62 C 98 86 79 115 65 150 C 51 184 44 224 44 268 C 44 306 51 343 65 377 C 79 411 98 440 122 466 C 146 491 175 511 209 526 C 243 540 279 548 319 548 C 358 548 394 541 427 527 C 459 513 487 493 511 467 C 534 441 552 408 565 370 C 578 332 585 289 585 241 L 128 241 C 130 192 149 150 183 116 C 217 82 263 65 321 65 C 367 65 405 72 434 88 C 462 104 486 122 505 144 L 558 86 C 532 58 502 34 466 16 C 430 -1 382 -11 324 -11 Z M 128 305 L 497 305 C 496 354 478 395 444 427 C 410 459 367 476 315 476 C 289 476 264 471 242 462 C 220 452 201 440 185 424 C 169 408 156 390 146 370 C 136 349 130 327 128 305 Z M 316 587 L 316 587 Z M 443 587 L 372 587 L 372 744 L 443 744 L 443 587 Z M 260 587 L 189 587 L 189 744 L 260 744 L 260 587 Z" unicode="ë" />
<glyph horiz-adv-x="268" d="M 32 0 L 32 0 Z M 176 0 L 91 0 L 91 536 L 176 536 L 176 0 Z M 134 586 L 134 586 Z M 237 586 L 153 586 L 32 750 L 130 750 L 237 586 Z" unicode="ì" />
<glyph horiz-adv-x="268" d="M 32 0 L 32 0 Z M 176 0 L 91 0 L 91 536 L 176 536 L 176 0 Z M 134 594 L 134 594 Z M 32 594 L 138 757 L 237 757 L 116 594 L 32 594 Z" unicode="í" />
<glyph horiz-adv-x="268" d="M 0 0 L 0 0 Z M 176 0 L 91 0 L 91 536 L 176 536 L 176 0 Z M 134 587 L 134 587 Z M 300 587 L 222 587 L 134 707 L 45 587 L -31 587 L 92 758 L 177 758 L 300 587 Z" unicode="î" />
<glyph horiz-adv-x="268" d="M 7 0 L 7 0 Z M 176 0 L 91 0 L 91 536 L 176 536 L 176 0 Z M 134 587 L 134 587 Z M 261 587 L 190 587 L 190 744 L 261 744 L 261 587 Z M 78 587 L 7 587 L 7 744 L 78 744 L 78 587 Z" unicode="ï" />
<glyph horiz-adv-x="645" d="M 596 297 C 596 253 589 213 577 175 C 565 137 547 105 523 77 C 499 49 470 28 436 12 C 401 -3 362 -11 318 -11 C 280 -11 244 -4 211 8 C 177 20 148 38 124 62 C 99 85 80 113 66 147 C 52 180 45 217 45 257 C 45 293 52 327 66 361 C 80 394 98 423 122 448 C 145 473 172 493 204 508 C 236 523 269 531 304 531 C 350 531 391 519 428 496 C 465 472 491 443 507 409 C 501 467 489 518 471 561 C 453 604 433 640 411 669 L 268 607 L 253 647 L 381 702 C 359 722 337 739 315 751 C 293 763 272 771 253 776 L 333 801 C 348 797 365 790 385 778 C 405 766 425 749 445 729 L 526 764 L 540 725 L 474 696 C 506 655 535 601 559 535 C 583 469 596 389 596 297 Z M 322 60 C 380 60 427 79 462 118 C 497 157 515 207 515 269 C 515 325 497 371 463 409 C 429 446 382 465 322 465 C 294 465 268 459 245 449 C 221 439 201 424 185 406 C 168 388 155 366 146 342 C 136 318 132 292 132 264 C 132 204 150 155 186 117 C 222 79 268 60 322 60 Z" unicode="ð" />
<glyph horiz-adv-x="636" d="M 90 0 L 90 0 Z M 554 0 L 470 0 L 470 370 C 470 403 456 429 430 447 C 403 465 373 475 339 475 C 321 475 302 472 283 466 C 263 460 245 452 229 441 C 213 429 199 415 189 397 C 179 379 174 358 174 334 L 174 0 L 90 0 L 90 536 L 163 536 L 163 417 C 175 456 200 488 237 512 C 274 536 317 548 366 548 C 390 548 414 544 437 537 C 459 530 479 520 497 507 C 514 493 528 477 538 459 C 548 440 554 419 554 396 L 554 0 Z M 336 594 L 336 594 Z M 443 728 L 510 728 C 510 682 503 648 489 626 C 475 604 455 594 430 594 C 411 594 394 598 380 606 C 366 614 352 623 340 633 C 328 641 317 650 306 659 C 294 668 283 673 271 673 C 259 673 250 667 242 655 C 234 643 229 624 229 598 L 162 598 C 162 643 171 677 190 699 C 209 721 230 732 252 732 C 269 732 284 727 298 719 C 312 711 325 701 338 691 C 348 681 359 673 370 666 C 380 658 391 655 402 655 C 413 655 422 661 430 673 C 438 685 442 704 443 728 Z" unicode="ñ" />
<glyph horiz-adv-x="647" d="M 44 0 L 44 0 Z M 319 -11 C 283 -11 248 -4 215 8 C 181 20 152 39 127 63 C 102 87 82 116 67 150 C 51 184 44 223 44 266 C 44 305 51 342 66 376 C 80 410 100 440 126 466 C 151 491 180 511 214 526 C 248 540 284 548 322 548 C 361 548 398 541 432 528 C 466 515 496 497 521 474 C 546 450 566 422 581 389 C 595 356 603 320 603 280 C 603 238 595 199 580 163 C 565 127 545 97 520 71 C 494 45 464 25 430 11 C 395 -3 358 -11 319 -11 Z M 325 64 C 353 64 378 69 402 80 C 426 91 446 106 463 125 C 479 143 492 165 502 191 C 511 217 516 244 516 274 C 516 301 511 327 501 351 C 491 375 478 396 461 414 C 444 432 423 446 399 456 C 374 466 347 472 318 472 C 290 472 265 466 243 456 C 220 445 200 430 184 412 C 168 394 155 372 146 347 C 136 321 132 294 132 265 C 132 234 137 206 147 181 C 157 156 170 135 188 118 C 205 100 225 87 249 78 C 273 68 298 64 325 64 Z M 321 586 L 321 586 Z M 424 586 L 340 586 L 219 750 L 317 750 L 424 586 Z" unicode="ò" />
<glyph horiz-adv-x="647" d="M 44 0 L 44 0 Z M 319 -11 C 283 -11 248 -4 215 8 C 181 20 152 39 127 63 C 102 87 82 116 67 150 C 51 184 44 223 44 266 C 44 305 51 342 66 376 C 80 410 100 440 126 466 C 151 491 180 511 214 526 C 248 540 284 548 322 548 C 361 548 398 541 432 528 C 466 515 496 497 521 474 C 546 450 566 422 581 389 C 595 356 603 320 603 280 C 603 238 595 199 580 163 C 565 127 545 97 520 71 C 494 45 464 25 430 11 C 395 -3 358 -11 319 -11 Z M 325 64 C 353 64 378 69 402 80 C 426 91 446 106 463 125 C 479 143 492 165 502 191 C 511 217 516 244 516 274 C 516 301 511 327 501 351 C 491 375 478 396 461 414 C 444 432 423 446 399 456 C 374 466 347 472 318 472 C 290 472 265 466 243 456 C 220 445 200 430 184 412 C 168 394 155 372 146 347 C 136 321 132 294 132 265 C 132 234 137 206 147 181 C 157 156 170 135 188 118 C 205 100 225 87 249 78 C 273 68 298 64 325 64 Z M 321 594 L 321 594 Z M 219 594 L 325 757 L 424 757 L 303 594 L 219 594 Z" unicode="ó" />
<glyph horiz-adv-x="647" d="M 44 0 L 44 0 Z M 319 -11 C 283 -11 248 -4 215 8 C 181 20 152 39 127 63 C 102 87 82 116 67 150 C 51 184 44 223 44 266 C 44 305 51 342 66 376 C 80 410 100 440 126 466 C 151 491 180 511 214 526 C 248 540 284 548 322 548 C 361 548 398 541 432 528 C 466 515 496 497 521 474 C 546 450 566 422 581 389 C 595 356 603 320 603 280 C 603 238 595 199 580 163 C 565 127 545 97 520 71 C 494 45 464 25 430 11 C 395 -3 358 -11 319 -11 Z M 325 64 C 353 64 378 69 402 80 C 426 91 446 106 463 125 C 479 143 492 165 502 191 C 511 217 516 244 516 274 C 516 301 511 327 501 351 C 491 375 478 396 461 414 C 444 432 423 446 399 456 C 374 466 347 472 318 472 C 290 472 265 466 243 456 C 220 445 200 430 184 412 C 168 394 155 372 146 347 C 136 321 132 294 132 265 C 132 234 137 206 147 181 C 157 156 170 135 188 118 C 205 100 225 87 249 78 C 273 68 298 64 325 64 Z M 321 587 L 321 587 Z M 487 587 L 409 587 L 321 707 L 232 587 L 156 587 L 279 758 L 364 758 L 487 587 Z" unicode="ô" />
<glyph horiz-adv-x="647" d="M 44 0 L 44 0 Z M 319 -11 C 283 -11 248 -4 215 8 C 181 20 152 39 127 63 C 102 87 82 116 67 150 C 51 184 44 223 44 266 C 44 305 51 342 66 376 C 80 410 100 440 126 466 C 151 491 180 511 214 526 C 248 540 284 548 322 548 C 361 548 398 541 432 528 C 466 515 496 497 521 474 C 546 450 566 422 581 389 C 595 356 603 320 603 280 C 603 238 595 199 580 163 C 565 127 545 97 520 71 C 494 45 464 25 430 11 C 395 -3 358 -11 319 -11 Z M 325 64 C 353 64 378 69 402 80 C 426 91 446 106 463 125 C 479 143 492 165 502 191 C 511 217 516 244 516 274 C 516 301 511 327 501 351 C 491 375 478 396 461 414 C 444 432 423 446 399 456 C 374 466 347 472 318 472 C 290 472 265 466 243 456 C 220 445 200 430 184 412 C 168 394 155 372 146 347 C 136 321 132 294 132 265 C 132 234 137 206 147 181 C 157 156 170 135 188 118 C 205 100 225 87 249 78 C 273 68 298 64 325 64 Z M 321 594 L 321 594 Z M 428 728 L 495 728 C 495 682 488 648 474 626 C 460 604 440 594 415 594 C 396 594 379 598 365 606 C 351 614 337 623 325 633 C 313 641 302 650 291 659 C 279 668 268 673 256 673 C 244 673 235 667 227 655 C 219 643 214 624 214 598 L 147 598 C 147 643 156 677 175 699 C 194 721 215 732 237 732 C 254 732 269 727 283 719 C 297 711 310 701 323 691 C 333 681 344 673 355 666 C 365 658 376 655 387 655 C 398 655 407 661 415 673 C 423 685 427 704 428 728 Z" unicode="õ" />
<glyph horiz-adv-x="647" d="M 44 0 L 44 0 Z M 319 -11 C 283 -11 248 -4 215 8 C 181 20 152 39 127 63 C 102 87 82 116 67 150 C 51 184 44 223 44 266 C 44 305 51 342 66 376 C 80 410 100 440 126 466 C 151 491 180 511 214 526 C 248 540 284 548 322 548 C 361 548 398 541 432 528 C 466 515 496 497 521 474 C 546 450 566 422 581 389 C 595 356 603 320 603 280 C 603 238 595 199 580 163 C 565 127 545 97 520 71 C 494 45 464 25 430 11 C 395 -3 358 -11 319 -11 Z M 325 64 C 353 64 378 69 402 80 C 426 91 446 106 463 125 C 479 143 492 165 502 191 C 511 217 516 244 516 274 C 516 301 511 327 501 351 C 491 375 478 396 461 414 C 444 432 423 446 399 456 C 374 466 347 472 318 472 C 290 472 265 466 243 456 C 220 445 200 430 184 412 C 168 394 155 372 146 347 C 136 321 132 294 132 265 C 132 234 137 206 147 181 C 157 156 170 135 188 118 C 205 100 225 87 249 78 C 273 68 298 64 325 64 Z M 321 587 L 321 587 Z M 448 587 L 377 587 L 377 744 L 448 744 L 448 587 Z M 265 587 L 194 587 L 194 744 L 265 744 L 265 587 Z" unicode="ö" />
<glyph horiz-adv-x="500" d="M 210 448 L 210 561 L 290 561 L 290 448 L 210 448 Z M 26 295 L 26 366 L 474 366 L 474 295 L 26 295 Z M 210 100 L 210 213 L 290 213 L 290 100 L 210 100 Z" unicode="÷" />
<glyph horiz-adv-x="647" d="M 319 -11 C 286 -11 254 -5 223 5 C 191 15 163 31 139 52 L 74 -13 L 26 32 L 95 100 C 79 122 66 147 57 175 C 48 203 44 233 44 266 C 44 305 51 342 66 376 C 80 410 100 440 126 466 C 151 491 180 511 214 526 C 248 540 284 548 322 548 C 354 548 385 543 414 535 C 443 526 469 513 493 497 L 557 560 L 603 516 L 541 454 C 560 431 575 405 586 375 C 597 345 603 314 603 280 C 603 238 595 199 580 163 C 565 127 545 97 520 71 C 494 45 464 25 430 11 C 395 -3 358 -11 319 -11 Z M 132 265 C 132 245 134 226 138 209 C 142 192 148 176 156 162 L 434 438 C 418 448 401 457 381 463 C 361 469 340 472 318 472 C 290 472 265 466 243 456 C 220 445 200 430 184 412 C 168 394 155 372 146 347 C 136 321 132 294 132 265 Z M 516 274 C 516 296 512 318 506 338 C 500 358 491 376 480 393 L 197 110 C 213 95 233 84 255 76 C 277 68 300 64 325 64 C 353 64 378 69 402 80 C 426 91 446 106 463 125 C 479 143 492 165 502 191 C 511 217 516 244 516 274 Z" unicode="ø" />
<glyph horiz-adv-x="636" d="M 82 0 L 82 0 Z M 82 536 L 166 536 L 166 199 C 166 147 180 110 208 90 C 236 70 271 60 312 60 C 352 60 387 73 417 99 C 447 125 462 159 462 202 L 462 536 L 547 536 L 547 0 L 470 0 L 470 114 C 461 82 440 53 407 27 C 373 1 331 -12 279 -12 C 252 -12 227 -8 203 -1 C 179 5 158 16 140 31 C 122 45 108 64 98 86 C 87 108 82 135 82 166 L 82 536 Z M 314 586 L 314 586 Z M 417 586 L 333 586 L 212 750 L 310 750 L 417 586 Z" unicode="ù" />
<glyph horiz-adv-x="636" d="M 82 0 L 82 0 Z M 82 536 L 166 536 L 166 199 C 166 147 180 110 208 90 C 236 70 271 60 312 60 C 352 60 387 73 417 99 C 447 125 462 159 462 202 L 462 536 L 547 536 L 547 0 L 470 0 L 470 114 C 461 82 440 53 407 27 C 373 1 331 -12 279 -12 C 252 -12 227 -8 203 -1 C 179 5 158 16 140 31 C 122 45 108 64 98 86 C 87 108 82 135 82 166 L 82 536 Z M 314 594 L 314 594 Z M 212 594 L 318 757 L 417 757 L 296 594 L 212 594 Z" unicode="ú" />
<glyph horiz-adv-x="636" d="M 82 0 L 82 0 Z M 82 536 L 166 536 L 166 199 C 166 147 180 110 208 90 C 236 70 271 60 312 60 C 352 60 387 73 417 99 C 447 125 462 159 462 202 L 462 536 L 547 536 L 547 0 L 470 0 L 470 114 C 461 82 440 53 407 27 C 373 1 331 -12 279 -12 C 252 -12 227 -8 203 -1 C 179 5 158 16 140 31 C 122 45 108 64 98 86 C 87 108 82 135 82 166 L 82 536 Z M 314 587 L 314 587 Z M 480 587 L 402 587 L 314 707 L 225 587 L 149 587 L 272 758 L 357 758 L 480 587 Z" unicode="û" />
<glyph horiz-adv-x="636" d="M 82 0 L 82 0 Z M 82 536 L 166 536 L 166 199 C 166 147 180 110 208 90 C 236 70 271 60 312 60 C 352 60 387 73 417 99 C 447 125 462 159 462 202 L 462 536 L 547 536 L 547 0 L 470 0 L 470 114 C 461 82 440 53 407 27 C 373 1 331 -12 279 -12 C 252 -12 227 -8 203 -1 C 179 5 158 16 140 31 C 122 45 108 64 98 86 C 87 108 82 135 82 166 L 82 536 Z M 314 587 L 314 587 Z M 441 587 L 370 587 L 370 744 L 441 744 L 441 587 Z M 258 587 L 187 587 L 187 744 L 258 744 L 258 587 Z" unicode="ü" />
<glyph horiz-adv-x="541" d="M 0 0 L 0 0 Z M 545 536 L 258 -78 C 235 -126 208 -158 177 -175 C 146 -191 116 -200 88 -200 C 72 -200 59 -198 48 -194 C 37 -190 29 -188 25 -187 L 52 -112 C 55 -114 61 -116 69 -118 C 77 -120 85 -122 94 -122 C 111 -122 127 -115 143 -103 C 158 -91 173 -70 188 -41 L 224 31 L -4 536 L 87 536 L 270 125 L 457 536 L 545 536 Z M 271 594 L 271 594 Z M 169 594 L 275 757 L 374 757 L 253 594 L 169 594 Z" unicode="ý" />
<glyph horiz-adv-x="660" d="M 90 -194 L 90 800 L 173 800 L 173 405 C 177 423 185 441 197 458 C 208 475 222 490 239 503 C 256 516 276 527 299 535 C 322 543 348 547 378 547 C 448 547 505 522 549 474 C 593 425 616 359 616 276 C 616 233 609 194 597 159 C 585 124 568 94 546 70 C 524 46 499 27 469 13 C 439 0 406 -7 372 -7 C 320 -7 277 6 242 32 C 207 58 184 91 174 129 L 174 -194 L 90 -194 Z M 353 64 C 378 64 401 69 423 80 C 444 90 462 105 478 123 C 494 141 506 163 515 189 C 524 215 529 243 529 273 C 529 301 525 328 517 353 C 509 377 498 399 484 417 C 469 435 451 450 429 460 C 407 470 382 476 354 476 C 301 476 257 458 222 424 C 186 389 169 336 169 266 C 169 231 173 201 183 176 C 193 150 206 129 222 113 C 238 96 258 84 281 76 C 303 68 327 64 353 64 Z" unicode="þ" />
<glyph horiz-adv-x="541" d="M 0 0 L 0 0 Z M 545 536 L 258 -78 C 235 -126 208 -158 177 -175 C 146 -191 116 -200 88 -200 C 72 -200 59 -198 48 -194 C 37 -190 29 -188 25 -187 L 52 -112 C 55 -114 61 -116 69 -118 C 77 -120 85 -122 94 -122 C 111 -122 127 -115 143 -103 C 158 -91 173 -70 188 -41 L 224 31 L -4 536 L 87 536 L 270 125 L 457 536 L 545 536 Z M 271 587 L 271 587 Z M 398 587 L 327 587 L 327 744 L 398 744 L 398 587 Z M 215 587 L 144 587 L 144 744 L 215 744 L 215 587 Z" unicode="ÿ" />
<glyph horiz-adv-x="652" d="M 2 0 L 2 0 Z M 650 0 L 554 0 L 472 204 L 170 204 L 92 0 L 2 0 L 298 733 L 358 733 L 650 0 Z M 451 273 L 321 601 L 192 273 L 451 273 Z M 321 796 L 321 796 Z M 450 796 L 192 796 L 192 869 L 450 869 L 450 796 Z" unicode="Ā" />
<glyph horiz-adv-x="589" d="M 44 0 L 44 0 Z M 516 0 L 433 0 L 433 76 C 413 50 385 29 351 14 C 316 0 276 -8 231 -8 C 173 -8 127 6 94 34 C 60 62 44 100 44 148 C 44 208 67 253 113 285 C 159 317 220 335 297 340 L 432 348 L 432 358 C 432 398 420 428 396 448 C 372 467 340 477 298 477 C 264 477 231 471 200 459 C 169 447 141 433 115 417 L 80 479 C 107 497 140 514 179 528 C 217 542 261 550 309 550 C 372 550 422 534 460 504 C 497 474 516 425 516 359 L 516 0 Z M 434 138 L 434 283 L 287 276 C 242 273 205 262 176 243 C 147 224 133 196 133 158 C 133 127 144 103 168 85 C 192 67 223 58 261 58 C 295 58 327 65 359 80 C 391 94 416 114 434 138 Z M 291 602 L 291 602 Z M 420 602 L 162 602 L 162 675 L 420 675 L 420 602 Z" unicode="ā" />
<glyph horiz-adv-x="652" d="M 2 0 L 2 0 Z M 650 0 L 554 0 L 472 204 L 170 204 L 92 0 L 2 0 L 298 733 L 358 733 L 650 0 Z M 451 273 L 321 601 L 192 273 L 451 273 Z M 321 786 L 321 786 Z M 406 943 L 476 943 C 472 889 455 849 427 824 C 398 798 363 786 321 786 C 279 786 243 798 215 824 C 186 849 170 889 166 943 L 236 943 C 238 913 246 889 259 871 C 272 852 293 843 321 843 C 349 843 369 852 383 870 C 396 888 404 912 406 943 Z" unicode="Ă" />
<glyph horiz-adv-x="589" d="M 44 0 L 44 0 Z M 516 0 L 433 0 L 433 76 C 413 50 385 29 351 14 C 316 0 276 -8 231 -8 C 173 -8 127 6 94 34 C 60 62 44 100 44 148 C 44 208 67 253 113 285 C 159 317 220 335 297 340 L 432 348 L 432 358 C 432 398 420 428 396 448 C 372 467 340 477 298 477 C 264 477 231 471 200 459 C 169 447 141 433 115 417 L 80 479 C 107 497 140 514 179 528 C 217 542 261 550 309 550 C 372 550 422 534 460 504 C 497 474 516 425 516 359 L 516 0 Z M 434 138 L 434 283 L 287 276 C 242 273 205 262 176 243 C 147 224 133 196 133 158 C 133 127 144 103 168 85 C 192 67 223 58 261 58 C 295 58 327 65 359 80 C 391 94 416 114 434 138 Z M 291 592 L 291 592 Z M 376 749 L 446 749 C 442 695 425 655 397 630 C 368 604 333 592 291 592 C 249 592 213 604 185 630 C 156 655 140 695 136 749 L 206 749 C 208 719 216 695 229 677 C 242 658 263 649 291 649 C 319 649 339 658 353 676 C 366 694 374 718 376 749 Z" unicode="ă" />
<glyph horiz-adv-x="652" d="M 2 0 L 2 0 Z M 650 0 L 554 0 L 472 204 L 170 204 L 92 0 L 2 0 L 298 733 L 358 733 L 650 0 Z M 451 273 L 321 601 L 192 273 L 451 273 Z M 575 -7 L 575 -7 Z M 687 -99 L 711 -134 C 691 -154 669 -169 644 -180 C 618 -190 590 -196 560 -196 C 526 -196 499 -188 479 -174 C 459 -160 450 -141 450 -119 C 450 -96 459 -74 478 -53 C 497 -32 523 -14 557 1 L 614 0 C 585 -13 562 -27 546 -42 C 529 -56 521 -71 521 -86 C 521 -100 527 -112 540 -121 C 552 -129 568 -134 587 -134 C 607 -134 626 -130 644 -124 C 662 -118 676 -109 687 -99 Z" unicode="Ą" />
<glyph horiz-adv-x="589" d="M 44 0 L 44 0 Z M 516 0 L 433 0 L 433 76 C 413 50 385 29 351 14 C 316 0 276 -8 231 -8 C 173 -8 127 6 94 34 C 60 62 44 100 44 148 C 44 208 67 253 113 285 C 159 317 220 335 297 340 L 432 348 L 432 358 C 432 398 420 428 396 448 C 372 467 340 477 298 477 C 264 477 231 471 200 459 C 169 447 141 433 115 417 L 80 479 C 107 497 140 514 179 528 C 217 542 261 550 309 550 C 372 550 422 534 460 504 C 497 474 516 425 516 359 L 516 0 Z M 434 138 L 434 283 L 287 276 C 242 273 205 262 176 243 C 147 224 133 196 133 158 C 133 127 144 103 168 85 C 192 67 223 58 261 58 C 295 58 327 65 359 80 C 391 94 416 114 434 138 Z M 453 -7 L 453 -7 Z M 565 -99 L 589 -134 C 569 -154 547 -169 522 -180 C 496 -190 468 -196 438 -196 C 404 -196 377 -188 357 -174 C 337 -160 328 -141 328 -119 C 328 -96 337 -74 356 -53 C 375 -32 401 -14 435 1 L 492 0 C 463 -13 440 -27 424 -42 C 407 -56 399 -71 399 -86 C 399 -100 405 -112 418 -121 C 430 -129 446 -134 465 -134 C 485 -134 504 -130 522 -124 C 540 -118 554 -109 565 -99 Z" unicode="ą" />
<glyph horiz-adv-x="750" d="M 48 0 L 48 0 Z M 409 -12 C 361 -12 315 -3 271 14 C 227 32 189 57 156 89 C 123 121 97 161 77 208 C 57 254 48 307 48 365 C 48 419 57 470 75 517 C 93 563 119 603 151 636 C 183 669 221 695 265 714 C 309 732 358 742 410 742 C 476 742 532 731 580 711 C 627 691 667 661 699 621 L 631 565 C 607 592 577 614 542 632 C 507 650 464 659 412 659 C 370 659 333 652 299 638 C 265 624 236 604 213 579 C 189 553 171 523 158 487 C 145 451 139 411 139 368 C 139 320 147 277 163 239 C 179 201 200 170 226 145 C 252 120 281 101 315 88 C 349 75 383 69 419 69 C 471 69 517 79 555 100 C 593 121 625 148 649 182 L 716 134 C 688 94 647 59 595 31 C 542 2 480 -12 409 -12 Z M 409 788 L 409 788 Z M 307 788 L 413 951 L 512 951 L 391 788 L 307 788 Z" unicode="Ć" />
<glyph horiz-adv-x="587" d="M 44 0 L 44 0 Z M 491 163 L 557 118 C 547 103 535 88 521 72 C 507 56 491 43 472 31 C 453 19 431 9 406 1 C 381 -7 352 -11 320 -11 C 280 -11 243 -4 209 9 C 175 23 145 42 121 66 C 97 90 78 120 64 154 C 50 188 44 226 44 267 C 44 306 51 343 65 378 C 79 412 98 442 123 467 C 147 492 177 512 211 526 C 245 540 283 548 323 548 C 355 548 384 543 410 535 C 435 527 457 516 476 503 C 495 490 511 475 523 459 C 535 442 545 425 552 409 L 479 376 C 467 400 448 422 423 442 C 398 462 364 473 320 473 C 292 473 266 467 243 456 C 219 445 199 430 183 412 C 167 394 154 372 145 347 C 135 322 131 296 131 269 C 131 211 148 162 183 123 C 217 84 264 65 322 65 C 346 65 367 68 385 74 C 403 80 418 87 432 97 C 445 107 456 117 466 129 C 476 141 484 152 491 163 Z M 322 594 L 322 594 Z M 220 594 L 326 757 L 425 757 L 304 594 L 220 594 Z" unicode="ć" />
<glyph horiz-adv-x="750" d="M 48 0 L 48 0 Z M 409 -12 C 361 -12 315 -3 271 14 C 227 32 189 57 156 89 C 123 121 97 161 77 208 C 57 254 48 307 48 365 C 48 419 57 470 75 517 C 93 563 119 603 151 636 C 183 669 221 695 265 714 C 309 732 358 742 410 742 C 476 742 532 731 580 711 C 627 691 667 661 699 621 L 631 565 C 607 592 577 614 542 632 C 507 650 464 659 412 659 C 370 659 333 652 299 638 C 265 624 236 604 213 579 C 189 553 171 523 158 487 C 145 451 139 411 139 368 C 139 320 147 277 163 239 C 179 201 200 170 226 145 C 252 120 281 101 315 88 C 349 75 383 69 419 69 C 471 69 517 79 555 100 C 593 121 625 148 649 182 L 716 134 C 688 94 647 59 595 31 C 542 2 480 -12 409 -12 Z M 409 781 L 409 781 Z M 575 781 L 497 781 L 409 901 L 320 781 L 244 781 L 367 952 L 452 952 L 575 781 Z" unicode="Ĉ" />
<glyph horiz-adv-x="587" d="M 44 0 L 44 0 Z M 491 163 L 557 118 C 547 103 535 88 521 72 C 507 56 491 43 472 31 C 453 19 431 9 406 1 C 381 -7 352 -11 320 -11 C 280 -11 243 -4 209 9 C 175 23 145 42 121 66 C 97 90 78 120 64 154 C 50 188 44 226 44 267 C 44 306 51 343 65 378 C 79 412 98 442 123 467 C 147 492 177 512 211 526 C 245 540 283 548 323 548 C 355 548 384 543 410 535 C 435 527 457 516 476 503 C 495 490 511 475 523 459 C 535 442 545 425 552 409 L 479 376 C 467 400 448 422 423 442 C 398 462 364 473 320 473 C 292 473 266 467 243 456 C 219 445 199 430 183 412 C 167 394 154 372 145 347 C 135 322 131 296 131 269 C 131 211 148 162 183 123 C 217 84 264 65 322 65 C 346 65 367 68 385 74 C 403 80 418 87 432 97 C 445 107 456 117 466 129 C 476 141 484 152 491 163 Z M 322 587 L 322 587 Z M 488 587 L 410 587 L 322 707 L 233 587 L 157 587 L 280 758 L 365 758 L 488 587 Z" unicode="ĉ" />
<glyph horiz-adv-x="750" d="M 48 0 L 48 0 Z M 409 -12 C 361 -12 315 -3 271 14 C 227 32 189 57 156 89 C 123 121 97 161 77 208 C 57 254 48 307 48 365 C 48 419 57 470 75 517 C 93 563 119 603 151 636 C 183 669 221 695 265 714 C 309 732 358 742 410 742 C 476 742 532 731 580 711 C 627 691 667 661 699 621 L 631 565 C 607 592 577 614 542 632 C 507 650 464 659 412 659 C 370 659 333 652 299 638 C 265 624 236 604 213 579 C 189 553 171 523 158 487 C 145 451 139 411 139 368 C 139 320 147 277 163 239 C 179 201 200 170 226 145 C 252 120 281 101 315 88 C 349 75 383 69 419 69 C 471 69 517 79 555 100 C 593 121 625 148 649 182 L 716 134 C 688 94 647 59 595 31 C 542 2 480 -12 409 -12 Z M 409 781 L 409 781 Z M 448 781 L 371 781 L 371 945 L 448 945 L 448 781 Z" unicode="Ċ" />
<glyph horiz-adv-x="587" d="M 44 0 L 44 0 Z M 491 163 L 557 118 C 547 103 535 88 521 72 C 507 56 491 43 472 31 C 453 19 431 9 406 1 C 381 -7 352 -11 320 -11 C 280 -11 243 -4 209 9 C 175 23 145 42 121 66 C 97 90 78 120 64 154 C 50 188 44 226 44 267 C 44 306 51 343 65 378 C 79 412 98 442 123 467 C 147 492 177 512 211 526 C 245 540 283 548 323 548 C 355 548 384 543 410 535 C 435 527 457 516 476 503 C 495 490 511 475 523 459 C 535 442 545 425 552 409 L 479 376 C 467 400 448 422 423 442 C 398 462 364 473 320 473 C 292 473 266 467 243 456 C 219 445 199 430 183 412 C 167 394 154 372 145 347 C 135 322 131 296 131 269 C 131 211 148 162 183 123 C 217 84 264 65 322 65 C 346 65 367 68 385 74 C 403 80 418 87 432 97 C 445 107 456 117 466 129 C 476 141 484 152 491 163 Z M 322 587 L 322 587 Z M 361 587 L 284 587 L 284 751 L 361 751 L 361 587 Z" unicode="ċ" />
<glyph horiz-adv-x="750" d="M 48 0 L 48 0 Z M 409 -12 C 361 -12 315 -3 271 14 C 227 32 189 57 156 89 C 123 121 97 161 77 208 C 57 254 48 307 48 365 C 48 419 57 470 75 517 C 93 563 119 603 151 636 C 183 669 221 695 265 714 C 309 732 358 742 410 742 C 476 742 532 731 580 711 C 627 691 667 661 699 621 L 631 565 C 607 592 577 614 542 632 C 507 650 464 659 412 659 C 370 659 333 652 299 638 C 265 624 236 604 213 579 C 189 553 171 523 158 487 C 145 451 139 411 139 368 C 139 320 147 277 163 239 C 179 201 200 170 226 145 C 252 120 281 101 315 88 C 349 75 383 69 419 69 C 471 69 517 79 555 100 C 593 121 625 148 649 182 L 716 134 C 688 94 647 59 595 31 C 542 2 480 -12 409 -12 Z M 409 781 L 409 781 Z M 244 952 L 322 952 L 410 832 L 499 952 L 575 952 L 452 781 L 367 781 L 244 952 Z" unicode="Č" />
<glyph horiz-adv-x="587" d="M 44 0 L 44 0 Z M 491 163 L 557 118 C 547 103 535 88 521 72 C 507 56 491 43 472 31 C 453 19 431 9 406 1 C 381 -7 352 -11 320 -11 C 280 -11 243 -4 209 9 C 175 23 145 42 121 66 C 97 90 78 120 64 154 C 50 188 44 226 44 267 C 44 306 51 343 65 378 C 79 412 98 442 123 467 C 147 492 177 512 211 526 C 245 540 283 548 323 548 C 355 548 384 543 410 535 C 435 527 457 516 476 503 C 495 490 511 475 523 459 C 535 442 545 425 552 409 L 479 376 C 467 400 448 422 423 442 C 398 462 364 473 320 473 C 292 473 266 467 243 456 C 219 445 199 430 183 412 C 167 394 154 372 145 347 C 135 322 131 296 131 269 C 131 211 148 162 183 123 C 217 84 264 65 322 65 C 346 65 367 68 385 74 C 403 80 418 87 432 97 C 445 107 456 117 466 129 C 476 141 484 152 491 163 Z M 322 587 L 322 587 Z M 157 758 L 235 758 L 323 638 L 412 758 L 488 758 L 365 587 L 280 587 L 157 758 Z" unicode="č" />
<glyph horiz-adv-x="747" d="M 97 0 L 97 0 Z M 97 0 L 97 730 L 311 730 C 371 730 425 721 473 705 C 521 688 562 664 595 634 C 628 604 653 567 671 523 C 689 479 698 431 698 379 C 698 325 689 275 672 229 C 654 183 629 143 596 109 C 562 75 520 48 470 29 C 420 9 362 0 296 0 L 97 0 Z M 187 73 L 293 73 C 345 73 391 80 430 96 C 469 112 501 133 527 161 C 553 188 572 220 585 258 C 597 295 604 335 604 378 C 604 462 577 529 524 581 C 471 632 399 658 307 658 L 187 658 L 187 73 Z M 358 781 L 358 781 Z M 193 952 L 271 952 L 359 832 L 448 952 L 524 952 L 401 781 L 316 781 L 193 952 Z" unicode="Ď" />
<glyph horiz-adv-x="660" d="M 44 0 L 44 0 Z M 292 -11 C 256 -11 222 -4 192 8 C 161 21 135 40 113 64 C 91 88 74 118 62 153 C 50 187 44 226 44 269 C 44 309 50 346 64 380 C 78 414 96 444 119 469 C 142 493 169 513 200 527 C 231 541 264 549 300 549 C 344 549 383 535 419 509 C 454 483 477 453 489 419 L 489 800 L 570 800 L 570 0 L 494 0 L 494 135 C 490 120 482 104 470 87 C 458 70 444 54 427 40 C 409 25 389 13 366 3 C 343 -6 318 -11 292 -11 Z M 308 60 C 335 60 360 65 382 76 C 404 86 423 101 439 120 C 455 139 467 162 476 188 C 484 214 489 242 489 273 C 489 306 484 335 474 361 C 464 387 451 408 435 425 C 419 442 400 455 378 464 C 356 472 334 477 312 477 C 257 477 213 457 180 419 C 147 381 131 331 131 269 C 131 239 135 212 143 186 C 151 160 162 138 178 120 C 193 101 212 86 234 76 C 256 65 280 60 308 60 Z M 699 604 L 695 460 L 625 460 L 620 604 L 620 730 L 699 730 L 699 604 Z" unicode="ď" />
<glyph horiz-adv-x="747" d="M 35 0 L 35 0 Z M 698 367 C 698 316 689 268 672 224 C 654 179 629 140 596 107 C 562 74 520 48 470 29 C 420 9 362 0 296 0 L 97 0 L 97 325 L 35 325 L 35 390 L 97 390 L 97 730 L 311 730 C 371 730 425 721 473 704 C 521 687 562 663 595 632 C 628 600 653 562 671 517 C 689 472 698 422 698 367 Z M 183 68 L 286 68 C 344 68 393 76 434 93 C 474 109 507 131 533 159 C 558 186 576 218 588 254 C 600 290 606 327 606 365 C 606 457 579 529 526 582 C 472 635 400 662 309 662 L 183 662 L 183 390 L 375 390 L 375 325 L 183 325 L 183 68 Z" unicode="Đ" />
<glyph horiz-adv-x="660" d="M 494 135 C 490 120 482 104 470 87 C 458 70 444 54 427 40 C 409 25 389 13 366 3 C 343 -6 318 -11 292 -11 C 256 -11 222 -4 192 8 C 161 21 135 40 113 64 C 91 88 74 118 62 153 C 50 187 44 226 44 269 C 44 309 50 346 64 380 C 78 414 96 444 119 469 C 142 493 169 513 200 527 C 231 541 264 549 300 549 C 344 549 383 535 419 509 C 454 483 477 453 489 419 L 489 628 L 297 628 L 297 700 L 489 700 L 489 800 L 570 800 L 570 700 L 653 700 L 653 628 L 570 628 L 570 0 L 494 0 L 494 135 Z M 308 60 C 335 60 360 65 382 76 C 404 86 423 101 439 120 C 455 139 467 162 476 188 C 484 214 489 242 489 273 C 489 306 484 335 474 361 C 464 387 451 408 435 425 C 419 442 400 455 378 464 C 356 472 334 477 312 477 C 257 477 213 457 180 419 C 147 381 131 331 131 269 C 131 239 135 212 143 186 C 151 160 162 138 178 120 C 193 101 212 86 234 76 C 256 65 280 60 308 60 Z" unicode="đ" />
<glyph horiz-adv-x="583" d="M 97 0 L 97 0 Z M 526 0 L 97 0 L 97 730 L 507 730 L 507 652 L 186 652 L 186 403 L 493 403 L 493 326 L 186 326 L 186 78 L 526 78 L 526 0 Z M 310 796 L 310 796 Z M 439 796 L 181 796 L 181 869 L 439 869 L 439 796 Z" unicode="Ē" />
<glyph horiz-adv-x="628" d="M 44 0 L 44 0 Z M 324 -11 C 284 -11 246 -4 212 8 C 178 20 148 38 123 62 C 98 86 79 115 65 150 C 51 184 44 224 44 268 C 44 306 51 343 65 377 C 79 411 98 440 122 466 C 146 491 175 511 209 526 C 243 540 279 548 319 548 C 358 548 394 541 427 527 C 459 513 487 493 511 467 C 534 441 552 408 565 370 C 578 332 585 289 585 241 L 128 241 C 130 192 149 150 183 116 C 217 82 263 65 321 65 C 367 65 405 72 434 88 C 462 104 486 122 505 144 L 558 86 C 532 58 502 34 466 16 C 430 -1 382 -11 324 -11 Z M 128 305 L 497 305 C 496 354 478 395 444 427 C 410 459 367 476 315 476 C 289 476 264 471 242 462 C 220 452 201 440 185 424 C 169 408 156 390 146 370 C 136 349 130 327 128 305 Z M 316 602 L 316 602 Z M 445 602 L 187 602 L 187 675 L 445 675 L 445 602 Z" unicode="ē" />
<glyph horiz-adv-x="583" d="M 97 0 L 97 0 Z M 526 0 L 97 0 L 97 730 L 507 730 L 507 652 L 186 652 L 186 403 L 493 403 L 493 326 L 186 326 L 186 78 L 526 78 L 526 0 Z M 310 786 L 310 786 Z M 395 943 L 465 943 C 461 889 444 849 416 824 C 387 798 352 786 310 786 C 268 786 232 798 204 824 C 175 849 159 889 155 943 L 225 943 C 227 913 235 889 248 871 C 261 852 282 843 310 843 C 338 843 358 852 372 870 C 385 888 393 912 395 943 Z" unicode="Ĕ" />
<glyph horiz-adv-x="628" d="M 44 0 L 44 0 Z M 324 -11 C 284 -11 246 -4 212 8 C 178 20 148 38 123 62 C 98 86 79 115 65 150 C 51 184 44 224 44 268 C 44 306 51 343 65 377 C 79 411 98 440 122 466 C 146 491 175 511 209 526 C 243 540 279 548 319 548 C 358 548 394 541 427 527 C 459 513 487 493 511 467 C 534 441 552 408 565 370 C 578 332 585 289 585 241 L 128 241 C 130 192 149 150 183 116 C 217 82 263 65 321 65 C 367 65 405 72 434 88 C 462 104 486 122 505 144 L 558 86 C 532 58 502 34 466 16 C 430 -1 382 -11 324 -11 Z M 128 305 L 497 305 C 496 354 478 395 444 427 C 410 459 367 476 315 476 C 289 476 264 471 242 462 C 220 452 201 440 185 424 C 169 408 156 390 146 370 C 136 349 130 327 128 305 Z M 316 592 L 316 592 Z M 401 749 L 471 749 C 467 695 450 655 422 630 C 393 604 358 592 316 592 C 274 592 238 604 210 630 C 181 655 165 695 161 749 L 231 749 C 233 719 241 695 254 677 C 267 658 288 649 316 649 C 344 649 364 658 378 676 C 391 694 399 718 401 749 Z" unicode="ĕ" />
<glyph horiz-adv-x="583" d="M 97 0 L 97 0 Z M 526 0 L 97 0 L 97 730 L 507 730 L 507 652 L 186 652 L 186 403 L 493 403 L 493 326 L 186 326 L 186 78 L 526 78 L 526 0 Z M 310 781 L 310 781 Z M 349 781 L 272 781 L 272 945 L 349 945 L 349 781 Z" unicode="Ė" />
<glyph horiz-adv-x="628" d="M 44 0 L 44 0 Z M 324 -11 C 284 -11 246 -4 212 8 C 178 20 148 38 123 62 C 98 86 79 115 65 150 C 51 184 44 224 44 268 C 44 306 51 343 65 377 C 79 411 98 440 122 466 C 146 491 175 511 209 526 C 243 540 279 548 319 548 C 358 548 394 541 427 527 C 459 513 487 493 511 467 C 534 441 552 408 565 370 C 578 332 585 289 585 241 L 128 241 C 130 192 149 150 183 116 C 217 82 263 65 321 65 C 367 65 405 72 434 88 C 462 104 486 122 505 144 L 558 86 C 532 58 502 34 466 16 C 430 -1 382 -11 324 -11 Z M 128 305 L 497 305 C 496 354 478 395 444 427 C 410 459 367 476 315 476 C 289 476 264 471 242 462 C 220 452 201 440 185 424 C 169 408 156 390 146 370 C 136 349 130 327 128 305 Z M 316 587 L 316 587 Z M 355 587 L 278 587 L 278 751 L 355 751 L 355 587 Z" unicode="ė" />
<glyph horiz-adv-x="583" d="M 97 0 L 97 0 Z M 526 0 L 97 0 L 97 730 L 507 730 L 507 652 L 186 652 L 186 403 L 493 403 L 493 326 L 186 326 L 186 78 L 526 78 L 526 0 Z M 488 -7 L 488 -7 Z M 600 -99 L 624 -134 C 604 -154 582 -169 557 -180 C 531 -190 503 -196 473 -196 C 439 -196 412 -188 392 -174 C 372 -160 363 -141 363 -119 C 363 -96 372 -74 391 -53 C 410 -32 436 -14 470 1 L 527 0 C 498 -13 475 -27 459 -42 C 442 -56 434 -71 434 -86 C 434 -100 440 -112 453 -121 C 465 -129 481 -134 500 -134 C 520 -134 539 -130 557 -124 C 575 -118 589 -109 600 -99 Z" unicode="Ę" />
<glyph horiz-adv-x="628" d="M 44 0 L 44 0 Z M 324 -11 C 284 -11 246 -4 212 8 C 178 20 148 38 123 62 C 98 86 79 115 65 150 C 51 184 44 224 44 268 C 44 306 51 343 65 377 C 79 411 98 440 122 466 C 146 491 175 511 209 526 C 243 540 279 548 319 548 C 358 548 394 541 427 527 C 459 513 487 493 511 467 C 534 441 552 408 565 370 C 578 332 585 289 585 241 L 128 241 C 130 192 149 150 183 116 C 217 82 263 65 321 65 C 367 65 405 72 434 88 C 462 104 486 122 505 144 L 558 86 C 532 58 502 34 466 16 C 430 -1 382 -11 324 -11 Z M 128 305 L 497 305 C 496 354 478 395 444 427 C 410 459 367 476 315 476 C 289 476 264 471 242 462 C 220 452 201 440 185 424 C 169 408 156 390 146 370 C 136 349 130 327 128 305 Z M 380 -7 L 380 -7 Z M 492 -99 L 516 -134 C 496 -154 474 -169 449 -180 C 423 -190 395 -196 365 -196 C 331 -196 304 -188 284 -174 C 264 -160 255 -141 255 -119 C 255 -96 264 -74 283 -53 C 302 -32 328 -14 362 1 L 419 0 C 390 -13 367 -27 351 -42 C 334 -56 326 -71 326 -86 C 326 -100 332 -112 345 -121 C 357 -129 373 -134 392 -134 C 412 -134 431 -130 449 -124 C 467 -118 481 -109 492 -99 Z" unicode="ę" />
<glyph horiz-adv-x="583" d="M 97 0 L 97 0 Z M 526 0 L 97 0 L 97 730 L 507 730 L 507 652 L 186 652 L 186 403 L 493 403 L 493 326 L 186 326 L 186 78 L 526 78 L 526 0 Z M 310 781 L 310 781 Z M 145 952 L 223 952 L 311 832 L 400 952 L 476 952 L 353 781 L 268 781 L 145 952 Z" unicode="Ě" />
<glyph horiz-adv-x="628" d="M 44 0 L 44 0 Z M 324 -11 C 284 -11 246 -4 212 8 C 178 20 148 38 123 62 C 98 86 79 115 65 150 C 51 184 44 224 44 268 C 44 306 51 343 65 377 C 79 411 98 440 122 466 C 146 491 175 511 209 526 C 243 540 279 548 319 548 C 358 548 394 541 427 527 C 459 513 487 493 511 467 C 534 441 552 408 565 370 C 578 332 585 289 585 241 L 128 241 C 130 192 149 150 183 116 C 217 82 263 65 321 65 C 367 65 405 72 434 88 C 462 104 486 122 505 144 L 558 86 C 532 58 502 34 466 16 C 430 -1 382 -11 324 -11 Z M 128 305 L 497 305 C 496 354 478 395 444 427 C 410 459 367 476 315 476 C 289 476 264 471 242 462 C 220 452 201 440 185 424 C 169 408 156 390 146 370 C 136 349 130 327 128 305 Z M 316 587 L 316 587 Z M 151 758 L 229 758 L 317 638 L 406 758 L 482 758 L 359 587 L 274 587 L 151 758 Z" unicode="ě" />
<glyph horiz-adv-x="795" d="M 48 0 L 48 0 Z M 426 362 L 741 362 L 741 154 C 711 102 667 62 610 32 C 552 2 489 -12 420 -12 C 368 -12 320 -3 274 15 C 228 33 189 58 156 91 C 122 124 96 164 77 211 C 57 257 48 309 48 365 C 48 422 57 474 77 521 C 97 567 124 607 158 640 C 192 672 231 697 277 715 C 322 733 370 742 421 742 C 490 742 547 731 592 709 C 636 687 671 663 696 637 L 638 570 C 615 593 587 614 553 632 C 519 650 474 659 418 659 C 379 659 343 652 309 639 C 275 626 245 607 220 583 C 194 558 174 527 160 491 C 145 455 138 414 138 368 C 138 322 145 281 160 243 C 175 205 195 173 221 147 C 247 120 277 99 312 85 C 346 70 383 63 422 63 C 474 63 521 73 564 94 C 607 114 639 144 659 184 L 659 285 L 426 285 L 426 362 Z M 421 781 L 421 781 Z M 587 781 L 509 781 L 421 901 L 332 781 L 256 781 L 379 952 L 464 952 L 587 781 Z" unicode="Ĝ" />
<glyph horiz-adv-x="654" d="M 45 0 L 45 0 Z M 292 3 C 256 3 222 9 192 22 C 162 35 136 53 114 77 C 92 101 75 129 63 162 C 51 195 45 231 45 271 C 45 311 51 349 63 383 C 75 417 93 446 115 470 C 137 494 163 512 194 526 C 224 539 258 546 295 546 C 343 546 385 533 421 508 C 457 483 481 451 493 412 L 493 536 L 570 536 L 570 77 C 570 28 561 -13 543 -49 C 525 -84 503 -113 475 -135 C 447 -157 416 -174 382 -185 C 347 -196 313 -202 280 -202 C 226 -202 184 -197 154 -188 C 124 -178 102 -169 88 -161 L 127 -90 C 138 -98 156 -106 182 -116 C 208 -125 238 -130 273 -130 C 301 -130 329 -125 355 -117 C 381 -109 404 -96 424 -79 C 444 -62 459 -41 471 -15 C 483 11 489 41 489 75 L 489 151 C 483 134 475 117 463 99 C 451 81 437 66 421 52 C 404 38 385 26 363 17 C 341 7 317 3 292 3 Z M 313 73 C 334 73 355 77 376 85 C 397 93 416 106 433 123 C 449 140 463 162 473 188 C 483 214 489 244 489 279 C 489 339 472 386 438 420 C 404 454 363 471 315 471 C 261 471 217 452 183 414 C 149 376 132 327 132 265 C 132 204 148 157 180 123 C 212 89 257 73 313 73 Z M 307 587 L 307 587 Z M 473 587 L 395 587 L 307 707 L 218 587 L 142 587 L 265 758 L 350 758 L 473 587 Z" unicode="ĝ" />
<glyph horiz-adv-x="795" d="M 48 0 L 48 0 Z M 426 362 L 741 362 L 741 154 C 711 102 667 62 610 32 C 552 2 489 -12 420 -12 C 368 -12 320 -3 274 15 C 228 33 189 58 156 91 C 122 124 96 164 77 211 C 57 257 48 309 48 365 C 48 422 57 474 77 521 C 97 567 124 607 158 640 C 192 672 231 697 277 715 C 322 733 370 742 421 742 C 490 742 547 731 592 709 C 636 687 671 663 696 637 L 638 570 C 615 593 587 614 553 632 C 519 650 474 659 418 659 C 379 659 343 652 309 639 C 275 626 245 607 220 583 C 194 558 174 527 160 491 C 145 455 138 414 138 368 C 138 322 145 281 160 243 C 175 205 195 173 221 147 C 247 120 277 99 312 85 C 346 70 383 63 422 63 C 474 63 521 73 564 94 C 607 114 639 144 659 184 L 659 285 L 426 285 L 426 362 Z M 421 786 L 421 786 Z M 506 943 L 576 943 C 572 889 555 849 527 824 C 498 798 463 786 421 786 C 379 786 343 798 315 824 C 286 849 270 889 266 943 L 336 943 C 338 913 346 889 359 871 C 372 852 393 843 421 843 C 449 843 469 852 483 870 C 496 888 504 912 506 943 Z" unicode="Ğ" />
<glyph horiz-adv-x="654" d="M 45 0 L 45 0 Z M 292 3 C 256 3 222 9 192 22 C 162 35 136 53 114 77 C 92 101 75 129 63 162 C 51 195 45 231 45 271 C 45 311 51 349 63 383 C 75 417 93 446 115 470 C 137 494 163 512 194 526 C 224 539 258 546 295 546 C 343 546 385 533 421 508 C 457 483 481 451 493 412 L 493 536 L 570 536 L 570 77 C 570 28 561 -13 543 -49 C 525 -84 503 -113 475 -135 C 447 -157 416 -174 382 -185 C 347 -196 313 -202 280 -202 C 226 -202 184 -197 154 -188 C 124 -178 102 -169 88 -161 L 127 -90 C 138 -98 156 -106 182 -116 C 208 -125 238 -130 273 -130 C 301 -130 329 -125 355 -117 C 381 -109 404 -96 424 -79 C 444 -62 459 -41 471 -15 C 483 11 489 41 489 75 L 489 151 C 483 134 475 117 463 99 C 451 81 437 66 421 52 C 404 38 385 26 363 17 C 341 7 317 3 292 3 Z M 313 73 C 334 73 355 77 376 85 C 397 93 416 106 433 123 C 449 140 463 162 473 188 C 483 214 489 244 489 279 C 489 339 472 386 438 420 C 404 454 363 471 315 471 C 261 471 217 452 183 414 C 149 376 132 327 132 265 C 132 204 148 157 180 123 C 212 89 257 73 313 73 Z M 307 592 L 307 592 Z M 392 749 L 462 749 C 458 695 441 655 413 630 C 384 604 349 592 307 592 C 265 592 229 604 201 630 C 172 655 156 695 152 749 L 222 749 C 224 719 232 695 245 677 C 258 658 279 649 307 649 C 335 649 355 658 369 676 C 382 694 390 718 392 749 Z" unicode="ğ" />
<glyph horiz-adv-x="795" d="M 48 0 L 48 0 Z M 426 362 L 741 362 L 741 154 C 711 102 667 62 610 32 C 552 2 489 -12 420 -12 C 368 -12 320 -3 274 15 C 228 33 189 58 156 91 C 122 124 96 164 77 211 C 57 257 48 309 48 365 C 48 422 57 474 77 521 C 97 567 124 607 158 640 C 192 672 231 697 277 715 C 322 733 370 742 421 742 C 490 742 547 731 592 709 C 636 687 671 663 696 637 L 638 570 C 615 593 587 614 553 632 C 519 650 474 659 418 659 C 379 659 343 652 309 639 C 275 626 245 607 220 583 C 194 558 174 527 160 491 C 145 455 138 414 138 368 C 138 322 145 281 160 243 C 175 205 195 173 221 147 C 247 120 277 99 312 85 C 346 70 383 63 422 63 C 474 63 521 73 564 94 C 607 114 639 144 659 184 L 659 285 L 426 285 L 426 362 Z M 421 781 L 421 781 Z M 460 781 L 383 781 L 383 945 L 460 945 L 460 781 Z" unicode="Ġ" />
<glyph horiz-adv-x="654" d="M 45 0 L 45 0 Z M 292 3 C 256 3 222 9 192 22 C 162 35 136 53 114 77 C 92 101 75 129 63 162 C 51 195 45 231 45 271 C 45 311 51 349 63 383 C 75 417 93 446 115 470 C 137 494 163 512 194 526 C 224 539 258 546 295 546 C 343 546 385 533 421 508 C 457 483 481 451 493 412 L 493 536 L 570 536 L 570 77 C 570 28 561 -13 543 -49 C 525 -84 503 -113 475 -135 C 447 -157 416 -174 382 -185 C 347 -196 313 -202 280 -202 C 226 -202 184 -197 154 -188 C 124 -178 102 -169 88 -161 L 127 -90 C 138 -98 156 -106 182 -116 C 208 -125 238 -130 273 -130 C 301 -130 329 -125 355 -117 C 381 -109 404 -96 424 -79 C 444 -62 459 -41 471 -15 C 483 11 489 41 489 75 L 489 151 C 483 134 475 117 463 99 C 451 81 437 66 421 52 C 404 38 385 26 363 17 C 341 7 317 3 292 3 Z M 313 73 C 334 73 355 77 376 85 C 397 93 416 106 433 123 C 449 140 463 162 473 188 C 483 214 489 244 489 279 C 489 339 472 386 438 420 C 404 454 363 471 315 471 C 261 471 217 452 183 414 C 149 376 132 327 132 265 C 132 204 148 157 180 123 C 212 89 257 73 313 73 Z M 307 587 L 307 587 Z M 346 587 L 269 587 L 269 751 L 346 751 L 346 587 Z" unicode="ġ" />
<glyph horiz-adv-x="795" d="M 48 0 L 48 0 Z M 426 362 L 741 362 L 741 154 C 711 102 667 62 610 32 C 552 2 489 -12 420 -12 C 368 -12 320 -3 274 15 C 228 33 189 58 156 91 C 122 124 96 164 77 211 C 57 257 48 309 48 365 C 48 422 57 474 77 521 C 97 567 124 607 158 640 C 192 672 231 697 277 715 C 322 733 370 742 421 742 C 490 742 547 731 592 709 C 636 687 671 663 696 637 L 638 570 C 615 593 587 614 553 632 C 519 650 474 659 418 659 C 379 659 343 652 309 639 C 275 626 245 607 220 583 C 194 558 174 527 160 491 C 145 455 138 414 138 368 C 138 322 145 281 160 243 C 175 205 195 173 221 147 C 247 120 277 99 312 85 C 346 70 383 63 422 63 C 474 63 521 73 564 94 C 607 114 639 144 659 184 L 659 285 L 426 285 L 426 362 Z" unicode="Ģ" />
<glyph horiz-adv-x="654" d="M 45 0 L 45 0 Z M 292 3 C 256 3 222 9 192 22 C 162 35 136 53 114 77 C 92 101 75 129 63 162 C 51 195 45 231 45 271 C 45 311 51 349 63 383 C 75 417 93 446 115 470 C 137 494 163 512 194 526 C 224 539 258 546 295 546 C 343 546 385 533 421 508 C 457 483 481 451 493 412 L 493 536 L 570 536 L 570 77 C 570 28 561 -13 543 -49 C 525 -84 503 -113 475 -135 C 447 -157 416 -174 382 -185 C 347 -196 313 -202 280 -202 C 226 -202 184 -197 154 -188 C 124 -178 102 -169 88 -161 L 127 -90 C 138 -98 156 -106 182 -116 C 208 -125 238 -130 273 -130 C 301 -130 329 -125 355 -117 C 381 -109 404 -96 424 -79 C 444 -62 459 -41 471 -15 C 483 11 489 41 489 75 L 489 151 C 483 134 475 117 463 99 C 451 81 437 66 421 52 C 404 38 385 26 363 17 C 341 7 317 3 292 3 Z M 313 73 C 334 73 355 77 376 85 C 397 93 416 106 433 123 C 449 140 463 162 473 188 C 483 214 489 244 489 279 C 489 339 472 386 438 420 C 404 454 363 471 315 471 C 261 471 217 452 183 414 C 149 376 132 327 132 265 C 132 204 148 157 180 123 C 212 89 257 73 313 73 Z" unicode="ģ" />
<glyph horiz-adv-x="762" d="M 97 0 L 97 0 Z M 665 0 L 575 0 L 575 321 L 187 321 L 187 0 L 97 0 L 97 730 L 187 730 L 187 400 L 575 400 L 575 730 L 665 730 L 665 0 Z M 381 781 L 381 781 Z M 547 781 L 469 781 L 381 901 L 292 781 L 216 781 L 339 952 L 424 952 L 547 781 Z" unicode="Ĥ" />
<glyph horiz-adv-x="636" d="M 90 0 L 90 0 Z M 554 0 L 471 0 L 471 364 C 471 399 457 426 431 446 C 405 465 373 475 337 475 C 318 475 299 472 279 466 C 259 460 242 452 227 441 C 211 429 199 415 189 397 C 179 379 174 359 174 336 L 174 0 L 90 0 L 90 800 L 167 800 L 167 428 C 175 462 198 491 235 514 C 271 536 315 548 365 548 C 389 548 413 544 436 537 C 458 530 478 520 496 507 C 513 494 527 478 538 458 C 548 438 554 415 554 389 L 554 0 Z M 361 851 L 361 851 Z M 527 851 L 449 851 L 361 971 L 272 851 L 196 851 L 319 1022 L 404 1022 L 527 851 Z" unicode="ĥ" />
<glyph horiz-adv-x="762" d="M 187 321 L 187 0 L 97 0 L 97 546 L 10 546 L 10 618 L 97 618 L 97 730 L 187 730 L 187 618 L 575 618 L 575 730 L 665 730 L 665 618 L 754 618 L 754 546 L 665 546 L 665 0 L 575 0 L 575 321 L 187 321 Z M 187 400 L 575 400 L 575 546 L 187 546 L 187 400 Z" unicode="Ħ" />
<glyph horiz-adv-x="636" d="M 174 336 L 174 0 L 90 0 L 90 628 L 8 628 L 8 700 L 90 700 L 90 800 L 167 800 L 167 700 L 363 700 L 363 628 L 167 628 L 167 428 C 175 462 198 491 235 514 C 271 536 315 548 365 548 C 389 548 413 544 436 537 C 458 530 478 520 496 507 C 513 494 527 478 538 458 C 548 438 554 415 554 389 L 554 0 L 471 0 L 471 364 C 471 399 457 426 431 446 C 405 465 373 475 337 475 C 318 475 299 472 279 466 C 259 460 242 452 227 441 C 211 429 199 415 189 397 C 179 379 174 359 174 336 Z" unicode="ħ" />
<glyph horiz-adv-x="293" d="M 0 0 L 0 0 Z M 191 0 L 101 0 L 101 730 L 191 730 L 191 0 Z M 146 788 L 146 788 Z M 253 922 L 320 922 C 320 876 313 842 299 820 C 285 798 265 788 240 788 C 221 788 204 792 190 800 C 176 808 162 817 150 827 C 138 835 127 844 116 853 C 104 862 93 867 81 867 C 69 867 60 861 52 849 C 44 837 39 818 39 792 L -28 792 C -28 837 -18 871 0 893 C 19 915 40 926 62 926 C 79 926 94 921 108 913 C 122 905 135 895 148 885 C 158 875 169 867 180 860 C 190 852 201 849 212 849 C 223 849 232 855 240 867 C 248 879 252 898 253 922 Z" unicode="Ĩ" />
<glyph horiz-adv-x="268" d="M 0 0 L 0 0 Z M 176 0 L 91 0 L 91 536 L 176 536 L 176 0 Z M 134 594 L 134 594 Z M 241 728 L 308 728 C 308 682 301 648 287 626 C 273 604 253 594 228 594 C 209 594 192 598 178 606 C 164 614 150 623 138 633 C 126 641 115 650 104 659 C 92 668 81 673 69 673 C 57 673 48 667 40 655 C 32 643 27 624 27 598 L -40 598 C -40 643 -30 677 -11 699 C 7 721 28 732 50 732 C 67 732 82 727 96 719 C 110 711 123 701 136 691 C 146 681 157 673 168 666 C 178 658 189 655 200 655 C 211 655 220 661 228 673 C 236 685 240 704 241 728 Z" unicode="ĩ" />
<glyph horiz-adv-x="293" d="M 17 0 L 17 0 Z M 191 0 L 101 0 L 101 730 L 191 730 L 191 0 Z M 146 796 L 146 796 Z M 275 796 L 17 796 L 17 869 L 275 869 L 275 796 Z" unicode="Ī" />
<glyph horiz-adv-x="268" d="M 5 0 L 5 0 Z M 176 0 L 91 0 L 91 536 L 176 536 L 176 0 Z M 134 602 L 134 602 Z M 263 602 L 5 602 L 5 675 L 263 675 L 263 602 Z" unicode="ī" />
<glyph horiz-adv-x="293" d="M 0 0 L 0 0 Z M 191 0 L 101 0 L 101 730 L 191 730 L 191 0 Z M 146 786 L 146 786 Z M 231 943 L 301 943 C 297 889 280 849 252 824 C 223 798 188 786 146 786 C 104 786 68 798 40 824 C 11 849 -5 889 -9 943 L 61 943 C 63 913 71 889 84 871 C 97 852 118 843 146 843 C 174 843 194 852 208 870 C 221 888 229 912 231 943 Z" unicode="Ĭ" />
<glyph horiz-adv-x="268" d="M 0 0 L 0 0 Z M 176 0 L 91 0 L 91 536 L 176 536 L 176 0 Z M 134 592 L 134 592 Z M 219 749 L 289 749 C 285 695 268 655 240 630 C 211 604 176 592 134 592 C 92 592 56 604 28 630 C 0 655 -17 695 -21 749 L 49 749 C 51 719 59 695 72 677 C 85 658 106 649 134 649 C 162 649 182 658 196 676 C 209 694 217 718 219 749 Z" unicode="ĭ" />
<glyph horiz-adv-x="293" d="M 0 0 L 0 0 Z M 191 0 L 101 0 L 101 730 L 191 730 L 191 0 Z M 122 -7 L 122 -7 Z M 234 -99 L 258 -134 C 238 -154 216 -169 191 -180 C 165 -190 137 -196 107 -196 C 73 -196 46 -188 26 -174 C 6 -160 -3 -141 -3 -119 C -3 -96 6 -74 25 -53 C 44 -32 70 -14 104 1 L 161 0 C 132 -13 109 -27 93 -42 C 76 -56 68 -71 68 -86 C 68 -100 74 -112 87 -121 C 99 -129 115 -134 134 -134 C 154 -134 173 -130 191 -124 C 209 -118 223 -109 234 -99 Z" unicode="Į" />
<glyph horiz-adv-x="268" d="M 0 0 L 0 0 Z M 89 662 L 89 758 L 179 758 L 179 662 L 89 662 Z M 91 0 L 91 536 L 176 536 L 176 0 L 91 0 Z M 111 -7 L 111 -7 Z M 223 -99 L 247 -134 C 227 -154 205 -169 180 -180 C 154 -190 126 -196 96 -196 C 62 -196 35 -188 15 -174 C -4 -160 -14 -141 -14 -119 C -14 -96 -4 -74 14 -53 C 33 -32 59 -14 93 1 L 150 0 C 121 -13 98 -27 82 -42 C 65 -56 57 -71 57 -86 C 57 -100 63 -112 76 -121 C 88 -129 104 -134 123 -134 C 143 -134 162 -130 180 -124 C 198 -118 212 -109 223 -99 Z" unicode="į" />
<glyph horiz-adv-x="293" d="M 101 0 L 101 0 Z M 191 0 L 101 0 L 101 730 L 191 730 L 191 0 Z M 146 781 L 146 781 Z M 185 781 L 108 781 L 108 945 L 185 945 L 185 781 Z" unicode="İ" />
<glyph horiz-adv-x="268" d="M 176 0 L 91 0 L 91 536 L 176 536 L 176 0 Z" unicode="ı" />
<glyph horiz-adv-x="650" d="M 101 0 L 101 0 Z M 191 0 L 101 0 L 101 730 L 191 730 L 191 0 Z M 556 730 L 556 192 C 556 165 551 139 542 114 C 533 89 520 67 502 49 C 484 31 462 16 436 5 C 410 -6 380 -12 346 -12 C 328 -12 309 -10 287 -7 C 265 -4 247 0 235 8 L 268 79 C 274 75 284 72 296 70 C 308 68 320 67 334 67 C 376 67 408 79 431 104 C 454 128 466 158 466 192 L 466 730 L 556 730 Z" unicode="Ĳ" />
<glyph horiz-adv-x="509" d="M 89 0 L 89 0 Z M 89 662 L 89 758 L 179 758 L 179 662 L 89 662 Z M 91 0 L 91 536 L 176 536 L 176 0 L 91 0 Z M 428 662 L 340 662 L 340 758 L 428 758 L 428 662 Z M 426 536 L 426 -17 C 426 -47 421 -74 413 -98 C 405 -121 393 -140 379 -156 C 365 -171 348 -182 330 -190 C 311 -198 292 -202 272 -202 C 250 -202 229 -199 207 -194 C 185 -189 166 -182 152 -174 L 178 -106 C 188 -112 201 -117 215 -121 C 229 -125 246 -127 264 -127 C 284 -127 302 -116 318 -95 C 334 -74 342 -47 342 -13 L 342 536 L 426 536 Z" unicode="ĳ" />
<glyph horiz-adv-x="430" d="M 15 0 L 15 0 Z M 336 730 L 336 192 C 336 165 331 139 322 114 C 313 89 300 67 282 49 C 264 31 242 16 216 5 C 190 -6 160 -12 126 -12 C 108 -12 89 -10 67 -7 C 45 -4 27 0 15 8 L 48 79 C 54 75 64 72 76 70 C 88 68 100 67 114 67 C 156 67 188 79 211 104 C 234 128 246 158 246 192 L 246 730 L 336 730 Z M 289 781 L 289 781 Z M 455 781 L 377 781 L 289 901 L 200 781 L 124 781 L 247 952 L 332 952 L 455 781 Z" unicode="Ĵ" />
<glyph horiz-adv-x="307" d="M 0 0 L 0 0 Z M 223 536 L 223 -17 C 223 -47 218 -74 210 -98 C 202 -121 190 -140 176 -156 C 162 -171 145 -182 127 -190 C 108 -198 89 -202 69 -202 C 47 -202 26 -199 4 -194 C -18 -189 -36 -182 -51 -174 L -25 -106 C -14 -112 -1 -117 12 -121 C 26 -125 43 -127 61 -127 C 81 -127 99 -116 115 -95 C 131 -74 139 -47 139 -13 L 139 536 L 223 536 Z M 176 587 L 176 587 Z M 342 587 L 264 587 L 176 707 L 87 587 L 11 587 L 134 758 L 219 758 L 342 587 Z" unicode="ĵ" />
<glyph horiz-adv-x="669" d="M 97 0 L 97 0 Z M 651 0 L 541 0 L 299 347 L 186 207 L 186 0 L 97 0 L 97 730 L 186 730 L 186 312 L 512 730 L 611 730 L 363 413 L 651 0 Z M 327 -81 L 327 -81 Z M 420 -81 C 413 -137 398 -189 376 -237 C 353 -285 327 -322 299 -348 L 236 -319 C 243 -311 251 -298 261 -282 C 271 -265 280 -246 289 -224 C 298 -202 306 -179 314 -155 C 322 -130 327 -105 331 -81 L 420 -81 Z" unicode="Ķ" />
<glyph horiz-adv-x="572" d="M 90 0 L 90 0 Z M 591 2 L 494 -1 L 286 260 L 174 141 L 174 0 L 90 0 L 90 800 L 174 800 L 174 232 L 448 536 L 539 536 L 343 319 L 591 2 Z M 296 -81 L 296 -81 Z M 389 -81 C 382 -137 367 -189 345 -237 C 322 -285 296 -322 268 -348 L 205 -319 C 212 -311 220 -298 230 -282 C 240 -265 249 -246 258 -224 C 267 -202 275 -179 283 -155 C 291 -130 296 -105 300 -81 L 389 -81 Z" unicode="ķ" />
<glyph horiz-adv-x="572" d="M 591 2 L 494 -1 L 286 260 L 174 141 L 174 0 L 90 0 L 90 536 L 174 536 L 174 232 L 448 536 L 539 536 L 343 319 L 591 2 Z" unicode="ĸ" />
<glyph horiz-adv-x="527" d="M 97 0 L 97 0 Z M 516 0 L 97 0 L 97 730 L 187 730 L 187 78 L 516 78 L 516 0 Z M 342 788 L 342 788 Z M 240 788 L 346 951 L 445 951 L 324 788 L 240 788 Z" unicode="Ĺ" />
<glyph horiz-adv-x="302" d="M 83 0 L 83 0 Z M 83 119 L 83 800 L 168 800 L 168 146 C 168 122 174 103 186 90 C 198 76 216 70 239 70 C 247 70 256 70 266 71 C 276 72 283 74 288 76 L 291 2 C 284 0 274 -1 260 -3 C 246 -5 233 -6 221 -6 C 203 -6 185 -3 169 1 C 152 6 137 14 125 24 C 112 34 102 47 94 63 C 86 79 83 97 83 119 Z M 192 858 L 192 858 Z M 90 858 L 196 1021 L 295 1021 L 174 858 L 90 858 Z" unicode="ĺ" />
<glyph horiz-adv-x="527" d="M 97 0 L 97 0 Z M 516 0 L 97 0 L 97 730 L 187 730 L 187 78 L 516 78 L 516 0 Z M 283 -81 L 283 -81 Z M 376 -81 C 369 -137 354 -189 332 -237 C 309 -285 283 -322 255 -348 L 192 -319 C 199 -311 207 -298 217 -282 C 227 -265 236 -246 245 -224 C 254 -202 262 -179 270 -155 C 278 -130 283 -105 287 -81 L 376 -81 Z" unicode="Ļ" />
<glyph horiz-adv-x="302" d="M 48 0 L 48 0 Z M 83 119 L 83 800 L 168 800 L 168 146 C 168 122 174 103 186 90 C 198 76 216 70 239 70 C 247 70 256 70 266 71 C 276 72 283 74 288 76 L 291 2 C 284 0 274 -1 260 -3 C 246 -5 233 -6 221 -6 C 203 -6 185 -3 169 1 C 152 6 137 14 125 24 C 112 34 102 47 94 63 C 86 79 83 97 83 119 Z M 139 -81 L 139 -81 Z M 232 -81 C 225 -137 210 -189 188 -237 C 165 -285 139 -322 111 -348 L 48 -319 C 55 -311 63 -298 73 -282 C 83 -265 92 -246 101 -224 C 110 -202 118 -179 126 -155 C 134 -130 139 -105 143 -81 L 232 -81 Z" unicode="ļ" />
<glyph horiz-adv-x="527" d="M 97 0 L 97 0 Z M 516 0 L 97 0 L 97 730 L 187 730 L 187 78 L 516 78 L 516 0 Z M 546 604 L 542 460 L 472 460 L 467 604 L 467 730 L 546 730 L 546 604 Z" unicode="Ľ" />
<glyph horiz-adv-x="302" d="M 83 0 L 83 0 Z M 83 119 L 83 800 L 168 800 L 168 146 C 168 122 174 103 186 90 C 198 76 216 70 239 70 C 247 70 256 70 266 71 C 276 72 283 74 288 76 L 291 2 C 284 0 274 -1 260 -3 C 246 -5 233 -6 221 -6 C 203 -6 185 -3 169 1 C 152 6 137 14 125 24 C 112 34 102 47 94 63 C 86 79 83 97 83 119 Z M 319 604 L 315 460 L 245 460 L 240 604 L 240 730 L 319 730 L 319 604 Z" unicode="ľ" />
<glyph horiz-adv-x="527" d="M 97 0 L 97 0 Z M 516 0 L 97 0 L 97 730 L 187 730 L 187 78 L 516 78 L 516 0 Z M 354 282 L 354 282 Z M 393 282 L 316 282 L 316 446 L 393 446 L 393 282 Z" unicode="Ŀ" />
<glyph horiz-adv-x="302" d="M 83 0 L 83 0 Z M 83 119 L 83 800 L 168 800 L 168 146 C 168 122 174 103 186 90 C 198 76 216 70 239 70 C 247 70 256 70 266 71 C 276 72 283 74 288 76 L 291 2 C 284 0 274 -1 260 -3 C 246 -5 233 -6 221 -6 C 203 -6 185 -3 169 1 C 152 6 137 14 125 24 C 112 34 102 47 94 63 C 86 79 83 97 83 119 Z M 281 231 L 281 231 Z M 320 231 L 243 231 L 243 395 L 320 395 L 320 231 Z" unicode="ŀ" />
<glyph horiz-adv-x="527" d="M 489 74 L 489 0 L 97 0 L 97 274 L 35 249 L 4 311 L 97 349 L 97 730 L 187 730 L 187 386 L 379 464 L 407 401 L 187 311 L 187 74 L 489 74 Z" unicode="Ł" />
<glyph horiz-adv-x="302" d="M 291 2 C 284 0 274 -1 260 -3 C 246 -5 233 -6 221 -6 C 203 -6 185 -3 169 1 C 152 6 137 14 125 24 C 112 34 102 47 94 63 C 86 79 83 97 83 119 L 83 282 L 23 254 L 2 304 L 83 342 L 83 800 L 168 800 L 168 382 L 262 426 L 284 376 L 168 322 L 168 146 C 168 122 174 103 186 90 C 198 76 216 70 239 70 C 247 70 256 70 266 71 C 276 72 283 74 288 76 L 291 2 Z" unicode="ł" />
<glyph horiz-adv-x="791" d="M 97 0 L 97 0 Z M 694 0 L 629 0 L 181 574 L 181 0 L 97 0 L 97 730 L 166 730 L 611 160 L 611 730 L 694 730 L 694 0 Z M 395 788 L 395 788 Z M 293 788 L 399 951 L 498 951 L 377 788 L 293 788 Z" unicode="Ń" />
<glyph horiz-adv-x="636" d="M 90 0 L 90 0 Z M 554 0 L 470 0 L 470 370 C 470 403 456 429 430 447 C 403 465 373 475 339 475 C 321 475 302 472 283 466 C 263 460 245 452 229 441 C 213 429 199 415 189 397 C 179 379 174 358 174 334 L 174 0 L 90 0 L 90 536 L 163 536 L 163 417 C 175 456 200 488 237 512 C 274 536 317 548 366 548 C 390 548 414 544 437 537 C 459 530 479 520 497 507 C 514 493 528 477 538 459 C 548 440 554 419 554 396 L 554 0 Z M 336 594 L 336 594 Z M 234 594 L 340 757 L 439 757 L 318 594 L 234 594 Z" unicode="ń" />
<glyph horiz-adv-x="791" d="M 97 0 L 97 0 Z M 694 0 L 629 0 L 181 574 L 181 0 L 97 0 L 97 730 L 166 730 L 611 160 L 611 730 L 694 730 L 694 0 Z M 376 -81 L 376 -81 Z M 469 -81 C 462 -137 447 -189 425 -237 C 402 -285 376 -322 348 -348 L 285 -319 C 292 -311 300 -298 310 -282 C 320 -265 329 -246 338 -224 C 347 -202 355 -179 363 -155 C 371 -130 376 -105 380 -81 L 469 -81 Z" unicode="Ņ" />
<glyph horiz-adv-x="636" d="M 90 0 L 90 0 Z M 554 0 L 470 0 L 470 370 C 470 403 456 429 430 447 C 403 465 373 475 339 475 C 321 475 302 472 283 466 C 263 460 245 452 229 441 C 213 429 199 415 189 397 C 179 379 174 358 174 334 L 174 0 L 90 0 L 90 536 L 163 536 L 163 417 C 175 456 200 488 237 512 C 274 536 317 548 366 548 C 390 548 414 544 437 537 C 459 530 479 520 497 507 C 514 493 528 477 538 459 C 548 440 554 419 554 396 L 554 0 Z M 297 -81 L 297 -81 Z M 390 -81 C 383 -137 368 -189 346 -237 C 323 -285 297 -322 269 -348 L 206 -319 C 213 -311 221 -298 231 -282 C 241 -265 250 -246 259 -224 C 268 -202 276 -179 284 -155 C 292 -130 297 -105 301 -81 L 390 -81 Z" unicode="ņ" />
<glyph horiz-adv-x="791" d="M 97 0 L 97 0 Z M 694 0 L 629 0 L 181 574 L 181 0 L 97 0 L 97 730 L 166 730 L 611 160 L 611 730 L 694 730 L 694 0 Z M 395 781 L 395 781 Z M 230 952 L 308 952 L 396 832 L 485 952 L 561 952 L 438 781 L 353 781 L 230 952 Z" unicode="Ň" />
<glyph horiz-adv-x="636" d="M 90 0 L 90 0 Z M 554 0 L 470 0 L 470 370 C 470 403 456 429 430 447 C 403 465 373 475 339 475 C 321 475 302 472 283 466 C 263 460 245 452 229 441 C 213 429 199 415 189 397 C 179 379 174 358 174 334 L 174 0 L 90 0 L 90 536 L 163 536 L 163 417 C 175 456 200 488 237 512 C 274 536 317 548 366 548 C 390 548 414 544 437 537 C 459 530 479 520 497 507 C 514 493 528 477 538 459 C 548 440 554 419 554 396 L 554 0 Z M 336 587 L 336 587 Z M 171 758 L 249 758 L 337 638 L 426 758 L 502 758 L 379 587 L 294 587 L 171 758 Z" unicode="ň" />
<glyph horiz-adv-x="791" d="M 611 730 L 694 730 L 694 0 L 694 0 C 693 -62 676 -112 644 -148 C 612 -184 570 -202 520 -202 C 495 -202 470 -199 446 -194 C 422 -189 401 -182 385 -172 L 412 -104 C 424 -110 438 -115 455 -119 C 471 -123 490 -126 512 -126 C 542 -126 566 -113 584 -88 C 602 -63 611 -32 611 4 L 611 23 L 181 574 L 181 0 L 97 0 L 97 730 L 166 730 L 611 160 L 611 730 Z" unicode="Ŋ" />
<glyph horiz-adv-x="636" d="M 366 548 C 390 548 414 544 437 537 C 459 530 479 520 497 507 C 514 493 528 477 538 459 C 548 440 554 419 554 396 L 554 -17 C 554 -47 549 -74 541 -98 C 533 -121 522 -140 508 -156 C 494 -171 477 -182 459 -190 C 440 -198 420 -202 400 -202 C 378 -202 357 -199 335 -194 C 313 -189 294 -182 280 -174 L 306 -106 C 316 -112 329 -117 343 -121 C 357 -125 374 -127 392 -127 C 412 -127 430 -116 446 -95 C 462 -74 470 -47 470 -13 L 470 370 C 470 403 456 429 430 447 C 403 465 373 475 339 475 C 321 475 302 472 283 466 C 263 460 245 452 229 441 C 213 429 199 415 189 397 C 179 379 174 358 174 334 L 174 0 L 90 0 L 90 536 L 163 536 L 163 417 C 175 456 200 488 237 512 C 274 536 317 548 366 548 Z" unicode="ŋ" />
<glyph horiz-adv-x="844" d="M 48 0 L 48 0 Z M 425 -12 C 370 -12 319 -2 273 17 C 227 36 187 63 154 97 C 120 131 94 171 76 218 C 57 265 48 316 48 370 C 48 423 57 472 76 518 C 95 564 121 603 154 636 C 187 669 226 695 272 714 C 317 732 365 742 417 742 C 472 742 523 732 570 714 C 616 695 656 669 690 636 C 723 602 749 563 768 517 C 786 471 796 421 796 367 C 796 311 786 260 766 214 C 746 167 720 127 686 94 C 652 60 613 34 568 16 C 522 -2 475 -12 425 -12 Z M 431 65 C 469 65 505 72 539 86 C 573 100 602 119 627 145 C 651 171 671 202 685 240 C 699 277 707 319 707 365 C 707 407 699 447 684 483 C 669 519 648 551 622 577 C 596 603 565 624 529 639 C 493 653 454 661 412 661 C 372 661 336 654 302 640 C 268 626 239 607 215 582 C 191 557 172 527 158 491 C 144 455 138 415 138 371 C 138 325 145 283 161 245 C 177 207 198 174 225 148 C 251 122 282 101 318 87 C 354 72 391 65 431 65 Z M 416 796 L 416 796 Z M 545 796 L 287 796 L 287 869 L 545 869 L 545 796 Z" unicode="Ō" />
<glyph horiz-adv-x="647" d="M 44 0 L 44 0 Z M 319 -11 C 283 -11 248 -4 215 8 C 181 20 152 39 127 63 C 102 87 82 116 67 150 C 51 184 44 223 44 266 C 44 305 51 342 66 376 C 80 410 100 440 126 466 C 151 491 180 511 214 526 C 248 540 284 548 322 548 C 361 548 398 541 432 528 C 466 515 496 497 521 474 C 546 450 566 422 581 389 C 595 356 603 320 603 280 C 603 238 595 199 580 163 C 565 127 545 97 520 71 C 494 45 464 25 430 11 C 395 -3 358 -11 319 -11 Z M 325 64 C 353 64 378 69 402 80 C 426 91 446 106 463 125 C 479 143 492 165 502 191 C 511 217 516 244 516 274 C 516 301 511 327 501 351 C 491 375 478 396 461 414 C 444 432 423 446 399 456 C 374 466 347 472 318 472 C 290 472 265 466 243 456 C 220 445 200 430 184 412 C 168 394 155 372 146 347 C 136 321 132 294 132 265 C 132 234 137 206 147 181 C 157 156 170 135 188 118 C 205 100 225 87 249 78 C 273 68 298 64 325 64 Z M 321 602 L 321 602 Z M 450 602 L 192 602 L 192 675 L 450 675 L 450 602 Z" unicode="ō" />
<glyph horiz-adv-x="844" d="M 48 0 L 48 0 Z M 425 -12 C 370 -12 319 -2 273 17 C 227 36 187 63 154 97 C 120 131 94 171 76 218 C 57 265 48 316 48 370 C 48 423 57 472 76 518 C 95 564 121 603 154 636 C 187 669 226 695 272 714 C 317 732 365 742 417 742 C 472 742 523 732 570 714 C 616 695 656 669 690 636 C 723 602 749 563 768 517 C 786 471 796 421 796 367 C 796 311 786 260 766 214 C 746 167 720 127 686 94 C 652 60 613 34 568 16 C 522 -2 475 -12 425 -12 Z M 431 65 C 469 65 505 72 539 86 C 573 100 602 119 627 145 C 651 171 671 202 685 240 C 699 277 707 319 707 365 C 707 407 699 447 684 483 C 669 519 648 551 622 577 C 596 603 565 624 529 639 C 493 653 454 661 412 661 C 372 661 336 654 302 640 C 268 626 239 607 215 582 C 191 557 172 527 158 491 C 144 455 138 415 138 371 C 138 325 145 283 161 245 C 177 207 198 174 225 148 C 251 122 282 101 318 87 C 354 72 391 65 431 65 Z M 416 786 L 416 786 Z M 501 943 L 571 943 C 567 889 550 849 522 824 C 493 798 458 786 416 786 C 374 786 338 798 310 824 C 281 849 265 889 261 943 L 331 943 C 333 913 341 889 354 871 C 367 852 388 843 416 843 C 444 843 464 852 478 870 C 491 888 499 912 501 943 Z" unicode="Ŏ" />
<glyph horiz-adv-x="647" d="M 44 0 L 44 0 Z M 319 -11 C 283 -11 248 -4 215 8 C 181 20 152 39 127 63 C 102 87 82 116 67 150 C 51 184 44 223 44 266 C 44 305 51 342 66 376 C 80 410 100 440 126 466 C 151 491 180 511 214 526 C 248 540 284 548 322 548 C 361 548 398 541 432 528 C 466 515 496 497 521 474 C 546 450 566 422 581 389 C 595 356 603 320 603 280 C 603 238 595 199 580 163 C 565 127 545 97 520 71 C 494 45 464 25 430 11 C 395 -3 358 -11 319 -11 Z M 325 64 C 353 64 378 69 402 80 C 426 91 446 106 463 125 C 479 143 492 165 502 191 C 511 217 516 244 516 274 C 516 301 511 327 501 351 C 491 375 478 396 461 414 C 444 432 423 446 399 456 C 374 466 347 472 318 472 C 290 472 265 466 243 456 C 220 445 200 430 184 412 C 168 394 155 372 146 347 C 136 321 132 294 132 265 C 132 234 137 206 147 181 C 157 156 170 135 188 118 C 205 100 225 87 249 78 C 273 68 298 64 325 64 Z M 321 592 L 321 592 Z M 406 749 L 476 749 C 472 695 455 655 427 630 C 398 604 363 592 321 592 C 279 592 243 604 215 630 C 186 655 170 695 166 749 L 236 749 C 238 719 246 695 259 677 C 272 658 293 649 321 649 C 349 649 369 658 383 676 C 396 694 404 718 406 749 Z" unicode="ŏ" />
<glyph horiz-adv-x="844" d="M 48 0 L 48 0 Z M 425 -12 C 370 -12 319 -2 273 17 C 227 36 187 63 154 97 C 120 131 94 171 76 218 C 57 265 48 316 48 370 C 48 423 57 472 76 518 C 95 564 121 603 154 636 C 187 669 226 695 272 714 C 317 732 365 742 417 742 C 472 742 523 732 570 714 C 616 695 656 669 690 636 C 723 602 749 563 768 517 C 786 471 796 421 796 367 C 796 311 786 260 766 214 C 746 167 720 127 686 94 C 652 60 613 34 568 16 C 522 -2 475 -12 425 -12 Z M 431 65 C 469 65 505 72 539 86 C 573 100 602 119 627 145 C 651 171 671 202 685 240 C 699 277 707 319 707 365 C 707 407 699 447 684 483 C 669 519 648 551 622 577 C 596 603 565 624 529 639 C 493 653 454 661 412 661 C 372 661 336 654 302 640 C 268 626 239 607 215 582 C 191 557 172 527 158 491 C 144 455 138 415 138 371 C 138 325 145 283 161 245 C 177 207 198 174 225 148 C 251 122 282 101 318 87 C 354 72 391 65 431 65 Z M 416 780 L 416 780 Z M 234 780 L 328 930 L 417 930 L 308 780 L 234 780 Z M 415 780 L 510 930 L 599 930 L 489 780 L 415 780 Z" unicode="Ő" />
<glyph horiz-adv-x="647" d="M 44 0 L 44 0 Z M 319 -11 C 283 -11 248 -4 215 8 C 181 20 152 39 127 63 C 102 87 82 116 67 150 C 51 184 44 223 44 266 C 44 305 51 342 66 376 C 80 410 100 440 126 466 C 151 491 180 511 214 526 C 248 540 284 548 322 548 C 361 548 398 541 432 528 C 466 515 496 497 521 474 C 546 450 566 422 581 389 C 595 356 603 320 603 280 C 603 238 595 199 580 163 C 565 127 545 97 520 71 C 494 45 464 25 430 11 C 395 -3 358 -11 319 -11 Z M 325 64 C 353 64 378 69 402 80 C 426 91 446 106 463 125 C 479 143 492 165 502 191 C 511 217 516 244 516 274 C 516 301 511 327 501 351 C 491 375 478 396 461 414 C 444 432 423 446 399 456 C 374 466 347 472 318 472 C 290 472 265 466 243 456 C 220 445 200 430 184 412 C 168 394 155 372 146 347 C 136 321 132 294 132 265 C 132 234 137 206 147 181 C 157 156 170 135 188 118 C 205 100 225 87 249 78 C 273 68 298 64 325 64 Z M 321 586 L 321 586 Z M 139 586 L 233 736 L 322 736 L 213 586 L 139 586 Z M 320 586 L 415 736 L 504 736 L 394 586 L 320 586 Z" unicode="ő" />
<glyph horiz-adv-x="1188" d="M 413 -12 C 359 -12 310 -2 265 16 C 220 35 182 61 150 95 C 118 129 93 169 75 216 C 57 262 48 313 48 369 C 48 421 57 470 76 516 C 95 562 121 601 154 635 C 187 668 226 694 272 713 C 317 732 365 742 417 742 C 445 742 474 737 504 728 C 534 719 562 707 588 691 C 614 675 637 656 657 634 C 677 612 692 588 702 562 L 702 730 L 1110 730 L 1110 651 L 785 651 L 785 402 L 1096 402 L 1096 327 L 785 327 L 785 78 L 1130 78 L 1130 0 L 702 0 L 702 184 C 683 128 648 81 598 44 C 548 6 486 -12 413 -12 Z M 423 63 C 461 63 497 69 531 83 C 565 96 595 115 621 141 C 646 167 666 199 681 237 C 695 275 703 318 703 368 C 703 416 694 459 676 496 C 658 533 635 564 608 588 C 580 612 550 631 516 643 C 482 655 450 662 420 662 C 380 662 343 655 309 641 C 275 627 245 607 220 581 C 195 555 175 524 161 488 C 147 451 140 410 140 365 C 140 317 147 275 162 238 C 177 200 197 169 223 143 C 249 117 279 97 314 83 C 348 69 385 63 423 63 Z" unicode="Œ" />
<glyph horiz-adv-x="1097" d="M 319 -11 C 283 -11 248 -4 215 8 C 181 20 152 39 127 63 C 102 87 82 116 67 150 C 51 184 44 223 44 266 C 44 304 51 340 66 374 C 80 408 100 438 126 464 C 151 490 180 510 214 525 C 248 540 284 548 322 548 C 357 548 388 542 415 532 C 442 521 465 508 484 492 C 502 476 517 458 529 440 C 541 421 549 403 553 387 C 555 402 563 419 576 438 C 589 456 606 474 627 490 C 647 506 671 520 699 531 C 726 542 756 548 788 548 C 867 548 931 521 980 467 C 1028 413 1053 338 1054 244 L 599 244 C 599 190 618 147 655 114 C 691 80 737 64 792 64 C 838 64 875 72 903 88 C 931 104 955 122 975 144 L 1027 86 C 1001 58 971 34 935 16 C 899 -1 852 -11 794 -11 C 763 -11 734 -6 706 4 C 678 14 653 26 632 42 C 610 57 592 74 578 93 C 564 112 555 131 551 149 C 547 132 539 114 527 95 C 515 76 499 59 479 43 C 459 27 435 14 408 4 C 381 -5 351 -11 319 -11 Z M 599 305 L 967 305 C 965 355 948 396 914 428 C 880 460 837 476 785 476 C 759 476 735 471 713 462 C 691 452 671 440 655 425 C 639 409 626 391 616 370 C 606 349 601 327 599 305 Z M 325 64 C 381 64 426 83 462 123 C 498 163 516 213 516 274 C 516 301 511 327 501 351 C 491 375 478 396 461 414 C 444 432 423 446 399 456 C 374 466 347 472 318 472 C 290 472 265 466 243 456 C 220 445 200 430 184 412 C 168 394 155 372 146 347 C 136 321 132 294 132 265 C 132 234 137 206 147 181 C 157 156 170 135 188 118 C 205 100 225 87 249 78 C 273 68 298 64 325 64 Z" unicode="œ" />
<glyph horiz-adv-x="608" d="M 97 0 L 97 0 Z M 97 0 L 97 730 L 312 730 C 374 730 424 712 464 678 C 504 643 524 596 524 537 C 524 506 519 478 509 454 C 499 430 487 409 471 392 C 455 375 437 362 417 352 C 397 342 376 336 355 334 L 352 331 L 578 0 L 471 0 L 265 312 L 186 312 L 186 0 L 97 0 Z M 185 385 L 286 385 C 328 385 363 397 391 421 C 419 445 433 480 433 526 C 433 566 420 598 396 622 C 371 646 338 658 296 658 L 185 658 L 185 385 Z M 300 788 L 300 788 Z M 198 788 L 304 951 L 403 951 L 282 788 L 198 788 Z" unicode="Ŕ" />
<glyph horiz-adv-x="468" d="M 90 0 L 90 0 Z M 471 519 L 426 442 C 417 450 405 458 389 464 C 373 470 353 473 331 473 C 311 473 292 469 273 461 C 254 453 237 442 223 428 C 208 414 196 397 187 377 C 178 357 174 336 174 314 L 174 0 L 90 0 L 90 536 L 166 536 L 166 404 C 170 422 177 440 189 458 C 201 475 215 490 232 504 C 249 517 269 528 291 536 C 313 544 338 548 364 548 C 388 548 410 545 428 540 C 446 534 461 527 471 519 Z M 286 594 L 286 594 Z M 184 594 L 290 757 L 389 757 L 268 594 L 184 594 Z" unicode="ŕ" />
<glyph horiz-adv-x="608" d="M 97 0 L 97 0 Z M 97 0 L 97 730 L 312 730 C 374 730 424 712 464 678 C 504 643 524 596 524 537 C 524 506 519 478 509 454 C 499 430 487 409 471 392 C 455 375 437 362 417 352 C 397 342 376 336 355 334 L 352 331 L 578 0 L 471 0 L 265 312 L 186 312 L 186 0 L 97 0 Z M 185 385 L 286 385 C 328 385 363 397 391 421 C 419 445 433 480 433 526 C 433 566 420 598 396 622 C 371 646 338 658 296 658 L 185 658 L 185 385 Z M 288 -81 L 288 -81 Z M 381 -81 C 374 -137 359 -189 337 -237 C 314 -285 288 -322 260 -348 L 197 -319 C 204 -311 212 -298 222 -282 C 232 -265 241 -246 250 -224 C 259 -202 267 -179 275 -155 C 283 -130 288 -105 292 -81 L 381 -81 Z" unicode="Ŗ" />
<glyph horiz-adv-x="468" d="M 90 0 L 90 0 Z M 471 519 L 426 442 C 417 450 405 458 389 464 C 373 470 353 473 331 473 C 311 473 292 469 273 461 C 254 453 237 442 223 428 C 208 414 196 397 187 377 C 178 357 174 336 174 314 L 174 0 L 90 0 L 90 536 L 166 536 L 166 404 C 170 422 177 440 189 458 C 201 475 215 490 232 504 C 249 517 269 528 291 536 C 313 544 338 548 364 548 C 388 548 410 545 428 540 C 446 534 461 527 471 519 Z M 258 -81 L 258 -81 Z M 351 -81 C 344 -137 329 -189 307 -237 C 284 -285 258 -322 230 -348 L 167 -319 C 174 -311 182 -298 192 -282 C 202 -265 211 -246 220 -224 C 229 -202 237 -179 245 -155 C 253 -130 258 -105 262 -81 L 351 -81 Z" unicode="ŗ" />
<glyph horiz-adv-x="608" d="M 97 0 L 97 0 Z M 97 0 L 97 730 L 312 730 C 374 730 424 712 464 678 C 504 643 524 596 524 537 C 524 506 519 478 509 454 C 499 430 487 409 471 392 C 455 375 437 362 417 352 C 397 342 376 336 355 334 L 352 331 L 578 0 L 471 0 L 265 312 L 186 312 L 186 0 L 97 0 Z M 185 385 L 286 385 C 328 385 363 397 391 421 C 419 445 433 480 433 526 C 433 566 420 598 396 622 C 371 646 338 658 296 658 L 185 658 L 185 385 Z M 300 781 L 300 781 Z M 135 952 L 213 952 L 301 832 L 390 952 L 466 952 L 343 781 L 258 781 L 135 952 Z" unicode="Ř" />
<glyph horiz-adv-x="468" d="M 90 0 L 90 0 Z M 471 519 L 426 442 C 417 450 405 458 389 464 C 373 470 353 473 331 473 C 311 473 292 469 273 461 C 254 453 237 442 223 428 C 208 414 196 397 187 377 C 178 357 174 336 174 314 L 174 0 L 90 0 L 90 536 L 166 536 L 166 404 C 170 422 177 440 189 458 C 201 475 215 490 232 504 C 249 517 269 528 291 536 C 313 544 338 548 364 548 C 388 548 410 545 428 540 C 446 534 461 527 471 519 Z M 286 587 L 286 587 Z M 121 758 L 199 758 L 287 638 L 376 758 L 452 758 L 329 587 L 244 587 L 121 758 Z" unicode="ř" />
<glyph horiz-adv-x="595" d="M 46 0 L 46 0 Z M 302 -12 C 243 -12 192 -3 150 13 C 107 29 72 51 46 78 L 105 148 C 125 122 154 102 191 86 C 227 70 265 63 305 63 C 343 63 376 73 404 94 C 432 115 446 142 446 175 C 446 207 434 234 411 258 C 388 281 346 305 286 331 C 244 347 210 363 182 378 C 154 393 131 409 115 426 C 98 443 86 462 79 484 C 71 505 68 530 68 559 C 68 615 88 659 129 692 C 169 725 223 742 289 742 C 339 742 381 733 417 717 C 453 701 483 682 508 662 L 457 588 C 431 609 404 626 374 639 C 344 652 313 659 281 659 C 243 659 213 650 190 632 C 167 614 156 589 156 559 C 156 525 169 497 196 476 C 222 454 267 430 331 404 C 408 372 461 341 491 309 C 521 277 536 235 536 183 C 536 153 529 126 517 102 C 504 78 487 57 466 40 C 445 23 420 10 392 1 C 363 -7 333 -12 302 -12 Z M 290 788 L 290 788 Z M 188 788 L 294 951 L 393 951 L 272 788 L 188 788 Z" unicode="Ś" />
<glyph horiz-adv-x="496" d="M 42 0 L 42 0 Z M 267 -11 C 217 -11 173 -4 136 8 C 98 21 67 38 42 59 L 80 116 C 102 99 130 85 163 73 C 196 61 229 56 263 56 C 293 56 318 64 340 81 C 361 97 372 118 372 142 C 372 162 362 181 343 198 C 323 214 286 231 230 247 C 166 265 122 288 99 316 C 75 343 64 374 64 410 C 64 430 68 449 78 467 C 88 484 101 498 118 510 C 135 522 155 531 178 538 C 200 544 225 548 251 548 C 302 548 343 541 374 529 C 404 516 428 504 445 492 L 413 428 C 391 441 368 453 343 464 C 317 475 289 481 258 481 C 229 481 204 474 182 461 C 160 447 150 430 150 409 C 150 398 151 388 154 380 C 157 371 163 363 172 356 C 181 348 194 341 212 333 C 230 325 253 317 282 309 C 346 290 391 268 418 242 C 444 216 458 184 458 145 C 458 121 453 100 443 81 C 433 61 419 45 402 31 C 384 17 364 7 341 0 C 317 -7 293 -11 267 -11 Z M 254 594 L 254 594 Z M 152 594 L 258 757 L 357 757 L 236 594 L 152 594 Z" unicode="ś" />
<glyph horiz-adv-x="595" d="M 46 0 L 46 0 Z M 302 -12 C 243 -12 192 -3 150 13 C 107 29 72 51 46 78 L 105 148 C 125 122 154 102 191 86 C 227 70 265 63 305 63 C 343 63 376 73 404 94 C 432 115 446 142 446 175 C 446 207 434 234 411 258 C 388 281 346 305 286 331 C 244 347 210 363 182 378 C 154 393 131 409 115 426 C 98 443 86 462 79 484 C 71 505 68 530 68 559 C 68 615 88 659 129 692 C 169 725 223 742 289 742 C 339 742 381 733 417 717 C 453 701 483 682 508 662 L 457 588 C 431 609 404 626 374 639 C 344 652 313 659 281 659 C 243 659 213 650 190 632 C 167 614 156 589 156 559 C 156 525 169 497 196 476 C 222 454 267 430 331 404 C 408 372 461 341 491 309 C 521 277 536 235 536 183 C 536 153 529 126 517 102 C 504 78 487 57 466 40 C 445 23 420 10 392 1 C 363 -7 333 -12 302 -12 Z M 290 781 L 290 781 Z M 456 781 L 378 781 L 290 901 L 201 781 L 125 781 L 248 952 L 333 952 L 456 781 Z" unicode="Ŝ" />
<glyph horiz-adv-x="496" d="M 42 0 L 42 0 Z M 267 -11 C 217 -11 173 -4 136 8 C 98 21 67 38 42 59 L 80 116 C 102 99 130 85 163 73 C 196 61 229 56 263 56 C 293 56 318 64 340 81 C 361 97 372 118 372 142 C 372 162 362 181 343 198 C 323 214 286 231 230 247 C 166 265 122 288 99 316 C 75 343 64 374 64 410 C 64 430 68 449 78 467 C 88 484 101 498 118 510 C 135 522 155 531 178 538 C 200 544 225 548 251 548 C 302 548 343 541 374 529 C 404 516 428 504 445 492 L 413 428 C 391 441 368 453 343 464 C 317 475 289 481 258 481 C 229 481 204 474 182 461 C 160 447 150 430 150 409 C 150 398 151 388 154 380 C 157 371 163 363 172 356 C 181 348 194 341 212 333 C 230 325 253 317 282 309 C 346 290 391 268 418 242 C 444 216 458 184 458 145 C 458 121 453 100 443 81 C 433 61 419 45 402 31 C 384 17 364 7 341 0 C 317 -7 293 -11 267 -11 Z M 254 587 L 254 587 Z M 420 587 L 342 587 L 254 707 L 165 587 L 89 587 L 212 758 L 297 758 L 420 587 Z" unicode="ŝ" />
<glyph horiz-adv-x="595" d="M 46 0 L 46 0 Z M 302 -12 C 243 -12 192 -3 150 13 C 107 29 72 51 46 78 L 105 148 C 125 122 154 102 191 86 C 227 70 265 63 305 63 C 343 63 376 73 404 94 C 432 115 446 142 446 175 C 446 207 434 234 411 258 C 388 281 346 305 286 331 C 244 347 210 363 182 378 C 154 393 131 409 115 426 C 98 443 86 462 79 484 C 71 505 68 530 68 559 C 68 615 88 659 129 692 C 169 725 223 742 289 742 C 339 742 381 733 417 717 C 453 701 483 682 508 662 L 457 588 C 431 609 404 626 374 639 C 344 652 313 659 281 659 C 243 659 213 650 190 632 C 167 614 156 589 156 559 C 156 525 169 497 196 476 C 222 454 267 430 331 404 C 408 372 461 341 491 309 C 521 277 536 235 536 183 C 536 153 529 126 517 102 C 504 78 487 57 466 40 C 445 23 420 10 392 1 C 363 -7 333 -12 302 -12 Z M 291 -10 L 291 -10 Z M 300 -197 C 276 -197 251 -194 227 -188 C 202 -182 183 -174 169 -165 L 182 -127 C 192 -133 204 -138 220 -144 C 236 -149 253 -152 273 -152 C 289 -152 302 -148 314 -141 C 326 -134 332 -125 332 -113 C 332 -100 326 -91 316 -85 C 306 -79 294 -77 282 -77 C 273 -77 266 -77 260 -78 C 254 -79 247 -81 240 -84 L 229 -72 L 288 2 L 339 2 L 289 -61 C 323 -53 353 -55 377 -68 C 401 -80 413 -99 413 -123 C 413 -147 401 -166 379 -178 C 356 -190 330 -197 300 -197 Z" unicode="Ş" />
<glyph horiz-adv-x="496" d="M 42 0 L 42 0 Z M 267 -11 C 217 -11 173 -4 136 8 C 98 21 67 38 42 59 L 80 116 C 102 99 130 85 163 73 C 196 61 229 56 263 56 C 293 56 318 64 340 81 C 361 97 372 118 372 142 C 372 162 362 181 343 198 C 323 214 286 231 230 247 C 166 265 122 288 99 316 C 75 343 64 374 64 410 C 64 430 68 449 78 467 C 88 484 101 498 118 510 C 135 522 155 531 178 538 C 200 544 225 548 251 548 C 302 548 343 541 374 529 C 404 516 428 504 445 492 L 413 428 C 391 441 368 453 343 464 C 317 475 289 481 258 481 C 229 481 204 474 182 461 C 160 447 150 430 150 409 C 150 398 151 388 154 380 C 157 371 163 363 172 356 C 181 348 194 341 212 333 C 230 325 253 317 282 309 C 346 290 391 268 418 242 C 444 216 458 184 458 145 C 458 121 453 100 443 81 C 433 61 419 45 402 31 C 384 17 364 7 341 0 C 317 -7 293 -11 267 -11 Z M 245 -3 L 245 -3 Z M 254 -190 C 230 -190 205 -187 181 -181 C 156 -175 137 -167 123 -158 L 136 -120 C 146 -126 158 -131 174 -137 C 190 -142 207 -145 227 -145 C 243 -145 256 -141 268 -134 C 280 -127 286 -118 286 -106 C 286 -93 280 -84 270 -78 C 260 -72 248 -70 236 -70 C 227 -70 220 -70 214 -71 C 208 -72 201 -74 194 -77 L 183 -65 L 242 9 L 293 9 L 243 -54 C 277 -46 307 -48 331 -61 C 355 -73 367 -92 367 -116 C 367 -140 355 -159 333 -171 C 310 -183 284 -190 254 -190 Z" unicode="ş" />
<glyph horiz-adv-x="595" d="M 46 0 L 46 0 Z M 302 -12 C 243 -12 192 -3 150 13 C 107 29 72 51 46 78 L 105 148 C 125 122 154 102 191 86 C 227 70 265 63 305 63 C 343 63 376 73 404 94 C 432 115 446 142 446 175 C 446 207 434 234 411 258 C 388 281 346 305 286 331 C 244 347 210 363 182 378 C 154 393 131 409 115 426 C 98 443 86 462 79 484 C 71 505 68 530 68 559 C 68 615 88 659 129 692 C 169 725 223 742 289 742 C 339 742 381 733 417 717 C 453 701 483 682 508 662 L 457 588 C 431 609 404 626 374 639 C 344 652 313 659 281 659 C 243 659 213 650 190 632 C 167 614 156 589 156 559 C 156 525 169 497 196 476 C 222 454 267 430 331 404 C 408 372 461 341 491 309 C 521 277 536 235 536 183 C 536 153 529 126 517 102 C 504 78 487 57 466 40 C 445 23 420 10 392 1 C 363 -7 333 -12 302 -12 Z M 290 781 L 290 781 Z M 125 952 L 203 952 L 291 832 L 380 952 L 456 952 L 333 781 L 248 781 L 125 952 Z" unicode="Š" />
<glyph horiz-adv-x="496" d="M 42 0 L 42 0 Z M 267 -11 C 217 -11 173 -4 136 8 C 98 21 67 38 42 59 L 80 116 C 102 99 130 85 163 73 C 196 61 229 56 263 56 C 293 56 318 64 340 81 C 361 97 372 118 372 142 C 372 162 362 181 343 198 C 323 214 286 231 230 247 C 166 265 122 288 99 316 C 75 343 64 374 64 410 C 64 430 68 449 78 467 C 88 484 101 498 118 510 C 135 522 155 531 178 538 C 200 544 225 548 251 548 C 302 548 343 541 374 529 C 404 516 428 504 445 492 L 413 428 C 391 441 368 453 343 464 C 317 475 289 481 258 481 C 229 481 204 474 182 461 C 160 447 150 430 150 409 C 150 398 151 388 154 380 C 157 371 163 363 172 356 C 181 348 194 341 212 333 C 230 325 253 317 282 309 C 346 290 391 268 418 242 C 444 216 458 184 458 145 C 458 121 453 100 443 81 C 433 61 419 45 402 31 C 384 17 364 7 341 0 C 317 -7 293 -11 267 -11 Z M 254 587 L 254 587 Z M 89 758 L 167 758 L 255 638 L 344 758 L 420 758 L 297 587 L 212 587 L 89 758 Z" unicode="š" />
<glyph horiz-adv-x="544" d="M 10 0 L 10 0 Z M 534 652 L 314 652 L 314 0 L 224 0 L 224 652 L 10 652 L 10 730 L 534 730 L 534 652 Z M 271 781 L 271 781 Z M 106 952 L 184 952 L 272 832 L 361 952 L 437 952 L 314 781 L 229 781 L 106 952 Z" unicode="Ť" />
<glyph horiz-adv-x="371" d="M 15 0 L 15 0 Z M 338 90 L 353 22 C 342 13 326 6 306 1 C 285 -3 264 -6 243 -6 C 203 -6 170 6 142 30 C 114 54 100 94 100 148 L 100 467 L 15 467 L 15 536 L 100 536 L 100 680 L 184 691 L 184 536 L 334 536 L 334 467 L 184 467 L 184 151 C 184 125 190 104 202 90 C 214 75 231 68 254 68 C 272 68 288 70 303 76 C 318 81 330 86 338 90 Z M 433 604 L 429 460 L 359 460 L 354 604 L 354 730 L 433 730 L 433 604 Z" unicode="ť" />
<glyph horiz-adv-x="544" d="M 460 453 L 314 453 L 314 0 L 224 0 L 224 453 L 81 453 L 81 525 L 224 525 L 224 652 L 10 652 L 10 730 L 534 730 L 534 652 L 314 652 L 314 525 L 460 525 L 460 453 Z" unicode="Ŧ" />
<glyph horiz-adv-x="371" d="M 353 22 C 342 13 326 6 306 1 C 285 -3 264 -6 243 -6 C 203 -6 170 6 142 30 C 114 54 100 94 100 148 L 100 305 L 21 305 L 21 377 L 100 377 L 100 467 L 15 467 L 15 536 L 100 536 L 100 680 L 184 691 L 184 536 L 334 536 L 334 467 L 184 467 L 184 377 L 308 377 L 308 305 L 184 305 L 184 151 C 184 125 190 104 202 90 C 214 75 231 68 254 68 C 272 68 288 70 303 76 C 318 81 330 86 338 90 L 353 22 Z" unicode="ŧ" />
<glyph horiz-adv-x="759" d="M 93 0 L 93 0 Z M 666 730 L 666 266 C 666 222 658 183 643 149 C 628 114 608 85 582 61 C 556 37 525 19 490 7 C 455 -5 418 -12 379 -12 C 340 -12 303 -6 268 6 C 233 18 203 35 177 59 C 151 83 131 112 116 147 C 100 181 93 221 93 266 L 93 730 L 181 730 L 181 266 C 181 236 186 208 197 184 C 207 160 221 139 239 122 C 257 105 277 92 301 83 C 325 73 350 69 377 69 C 403 69 429 73 454 82 C 478 90 500 103 518 120 C 536 136 550 157 561 182 C 572 206 578 234 578 266 L 578 730 L 666 730 Z M 379 788 L 379 788 Z M 486 922 L 553 922 C 553 876 546 842 532 820 C 518 798 498 788 473 788 C 454 788 437 792 423 800 C 409 808 395 817 383 827 C 371 835 360 844 349 853 C 337 862 326 867 314 867 C 302 867 293 861 285 849 C 277 837 272 818 272 792 L 205 792 C 205 837 214 871 233 893 C 252 915 273 926 295 926 C 312 926 327 921 341 913 C 355 905 368 895 381 885 C 391 875 402 867 413 860 C 423 852 434 849 445 849 C 456 849 465 855 473 867 C 481 879 485 898 486 922 Z" unicode="Ũ" />
<glyph horiz-adv-x="636" d="M 82 0 L 82 0 Z M 82 536 L 166 536 L 166 199 C 166 147 180 110 208 90 C 236 70 271 60 312 60 C 352 60 387 73 417 99 C 447 125 462 159 462 202 L 462 536 L 547 536 L 547 0 L 470 0 L 470 114 C 461 82 440 53 407 27 C 373 1 331 -12 279 -12 C 252 -12 227 -8 203 -1 C 179 5 158 16 140 31 C 122 45 108 64 98 86 C 87 108 82 135 82 166 L 82 536 Z M 314 594 L 314 594 Z M 421 728 L 488 728 C 488 682 481 648 467 626 C 453 604 433 594 408 594 C 389 594 372 598 358 606 C 344 614 330 623 318 633 C 306 641 295 650 284 659 C 272 668 261 673 249 673 C 237 673 228 667 220 655 C 212 643 207 624 207 598 L 140 598 C 140 643 149 677 168 699 C 187 721 208 732 230 732 C 247 732 262 727 276 719 C 290 711 303 701 316 691 C 326 681 337 673 348 666 C 358 658 369 655 380 655 C 391 655 400 661 408 673 C 416 685 420 704 421 728 Z" unicode="ũ" />
<glyph horiz-adv-x="759" d="M 93 0 L 93 0 Z M 666 730 L 666 266 C 666 222 658 183 643 149 C 628 114 608 85 582 61 C 556 37 525 19 490 7 C 455 -5 418 -12 379 -12 C 340 -12 303 -6 268 6 C 233 18 203 35 177 59 C 151 83 131 112 116 147 C 100 181 93 221 93 266 L 93 730 L 181 730 L 181 266 C 181 236 186 208 197 184 C 207 160 221 139 239 122 C 257 105 277 92 301 83 C 325 73 350 69 377 69 C 403 69 429 73 454 82 C 478 90 500 103 518 120 C 536 136 550 157 561 182 C 572 206 578 234 578 266 L 578 730 L 666 730 Z M 379 796 L 379 796 Z M 508 796 L 250 796 L 250 869 L 508 869 L 508 796 Z" unicode="Ū" />
<glyph horiz-adv-x="636" d="M 82 0 L 82 0 Z M 82 536 L 166 536 L 166 199 C 166 147 180 110 208 90 C 236 70 271 60 312 60 C 352 60 387 73 417 99 C 447 125 462 159 462 202 L 462 536 L 547 536 L 547 0 L 470 0 L 470 114 C 461 82 440 53 407 27 C 373 1 331 -12 279 -12 C 252 -12 227 -8 203 -1 C 179 5 158 16 140 31 C 122 45 108 64 98 86 C 87 108 82 135 82 166 L 82 536 Z M 314 602 L 314 602 Z M 443 602 L 185 602 L 185 675 L 443 675 L 443 602 Z" unicode="ū" />
<glyph horiz-adv-x="759" d="M 93 0 L 93 0 Z M 666 730 L 666 266 C 666 222 658 183 643 149 C 628 114 608 85 582 61 C 556 37 525 19 490 7 C 455 -5 418 -12 379 -12 C 340 -12 303 -6 268 6 C 233 18 203 35 177 59 C 151 83 131 112 116 147 C 100 181 93 221 93 266 L 93 730 L 181 730 L 181 266 C 181 236 186 208 197 184 C 207 160 221 139 239 122 C 257 105 277 92 301 83 C 325 73 350 69 377 69 C 403 69 429 73 454 82 C 478 90 500 103 518 120 C 536 136 550 157 561 182 C 572 206 578 234 578 266 L 578 730 L 666 730 Z M 379 786 L 379 786 Z M 464 943 L 534 943 C 530 889 513 849 485 824 C 456 798 421 786 379 786 C 337 786 301 798 273 824 C 244 849 228 889 224 943 L 294 943 C 296 913 304 889 317 871 C 330 852 351 843 379 843 C 407 843 427 852 441 870 C 454 888 462 912 464 943 Z" unicode="Ŭ" />
<glyph horiz-adv-x="636" d="M 82 0 L 82 0 Z M 82 536 L 166 536 L 166 199 C 166 147 180 110 208 90 C 236 70 271 60 312 60 C 352 60 387 73 417 99 C 447 125 462 159 462 202 L 462 536 L 547 536 L 547 0 L 470 0 L 470 114 C 461 82 440 53 407 27 C 373 1 331 -12 279 -12 C 252 -12 227 -8 203 -1 C 179 5 158 16 140 31 C 122 45 108 64 98 86 C 87 108 82 135 82 166 L 82 536 Z M 314 592 L 314 592 Z M 399 749 L 469 749 C 465 695 448 655 420 630 C 391 604 356 592 314 592 C 272 592 236 604 208 630 C 179 655 163 695 159 749 L 229 749 C 231 719 239 695 252 677 C 265 658 286 649 314 649 C 342 649 362 658 376 676 C 389 694 397 718 399 749 Z" unicode="ŭ" />
<glyph horiz-adv-x="759" d="M 93 0 L 93 0 Z M 666 730 L 666 266 C 666 222 658 183 643 149 C 628 114 608 85 582 61 C 556 37 525 19 490 7 C 455 -5 418 -12 379 -12 C 340 -12 303 -6 268 6 C 233 18 203 35 177 59 C 151 83 131 112 116 147 C 100 181 93 221 93 266 L 93 730 L 181 730 L 181 266 C 181 236 186 208 197 184 C 207 160 221 139 239 122 C 257 105 277 92 301 83 C 325 73 350 69 377 69 C 403 69 429 73 454 82 C 478 90 500 103 518 120 C 536 136 550 157 561 182 C 572 206 578 234 578 266 L 578 730 L 666 730 Z M 379 781 L 379 781 Z M 379 781 C 345 781 317 792 294 816 C 270 840 259 868 259 902 C 259 935 270 963 294 987 C 317 1010 345 1022 379 1022 C 413 1022 441 1010 465 987 C 488 963 500 935 500 902 C 500 868 488 840 465 816 C 441 792 413 781 379 781 Z M 379 835 C 397 835 413 841 426 854 C 438 867 445 883 445 902 C 445 920 438 936 426 949 C 413 962 397 969 379 969 C 361 969 345 962 332 949 C 319 936 313 920 313 902 C 313 883 319 867 332 854 C 345 841 361 835 379 835 Z" unicode="Ů" />
<glyph horiz-adv-x="636" d="M 82 0 L 82 0 Z M 82 536 L 166 536 L 166 199 C 166 147 180 110 208 90 C 236 70 271 60 312 60 C 352 60 387 73 417 99 C 447 125 462 159 462 202 L 462 536 L 547 536 L 547 0 L 470 0 L 470 114 C 461 82 440 53 407 27 C 373 1 331 -12 279 -12 C 252 -12 227 -8 203 -1 C 179 5 158 16 140 31 C 122 45 108 64 98 86 C 87 108 82 135 82 166 L 82 536 Z M 314 587 L 314 587 Z M 314 587 C 280 587 252 598 229 622 C 205 646 194 674 194 708 C 194 741 205 769 229 793 C 252 816 280 828 314 828 C 348 828 376 816 400 793 C 423 769 435 741 435 708 C 435 674 423 646 400 622 C 376 598 348 587 314 587 Z M 314 641 C 332 641 348 647 361 660 C 373 673 380 689 380 708 C 380 726 373 742 361 755 C 348 768 332 775 314 775 C 296 775 280 768 267 755 C 254 742 248 726 248 708 C 248 689 254 673 267 660 C 280 647 296 641 314 641 Z" unicode="ů" />
<glyph horiz-adv-x="759" d="M 93 0 L 93 0 Z M 666 730 L 666 266 C 666 222 658 183 643 149 C 628 114 608 85 582 61 C 556 37 525 19 490 7 C 455 -5 418 -12 379 -12 C 340 -12 303 -6 268 6 C 233 18 203 35 177 59 C 151 83 131 112 116 147 C 100 181 93 221 93 266 L 93 730 L 181 730 L 181 266 C 181 236 186 208 197 184 C 207 160 221 139 239 122 C 257 105 277 92 301 83 C 325 73 350 69 377 69 C 403 69 429 73 454 82 C 478 90 500 103 518 120 C 536 136 550 157 561 182 C 572 206 578 234 578 266 L 578 730 L 666 730 Z M 379 780 L 379 780 Z M 197 780 L 291 930 L 380 930 L 271 780 L 197 780 Z M 378 780 L 473 930 L 562 930 L 452 780 L 378 780 Z" unicode="Ű" />
<glyph horiz-adv-x="636" d="M 82 0 L 82 0 Z M 82 536 L 166 536 L 166 199 C 166 147 180 110 208 90 C 236 70 271 60 312 60 C 352 60 387 73 417 99 C 447 125 462 159 462 202 L 462 536 L 547 536 L 547 0 L 470 0 L 470 114 C 461 82 440 53 407 27 C 373 1 331 -12 279 -12 C 252 -12 227 -8 203 -1 C 179 5 158 16 140 31 C 122 45 108 64 98 86 C 87 108 82 135 82 166 L 82 536 Z M 314 586 L 314 586 Z M 132 586 L 226 736 L 315 736 L 206 586 L 132 586 Z M 313 586 L 408 736 L 497 736 L 387 586 L 313 586 Z" unicode="ű" />
<glyph horiz-adv-x="759" d="M 93 0 L 93 0 Z M 666 730 L 666 266 C 666 222 658 183 643 149 C 628 114 608 85 582 61 C 556 37 525 19 490 7 C 455 -5 418 -12 379 -12 C 340 -12 303 -6 268 6 C 233 18 203 35 177 59 C 151 83 131 112 116 147 C 100 181 93 221 93 266 L 93 730 L 181 730 L 181 266 C 181 236 186 208 197 184 C 207 160 221 139 239 122 C 257 105 277 92 301 83 C 325 73 350 69 377 69 C 403 69 429 73 454 82 C 478 90 500 103 518 120 C 536 136 550 157 561 182 C 572 206 578 234 578 266 L 578 730 L 666 730 Z M 426 -8 L 426 -8 Z M 538 -100 L 562 -135 C 542 -155 520 -170 495 -181 C 469 -191 441 -197 411 -197 C 377 -197 350 -189 330 -175 C 310 -161 301 -142 301 -120 C 301 -97 310 -75 329 -54 C 348 -33 374 -15 408 0 L 465 -1 C 436 -14 413 -28 397 -43 C 380 -57 372 -72 372 -87 C 372 -101 378 -113 391 -122 C 403 -130 419 -135 438 -135 C 458 -135 477 -131 495 -125 C 513 -119 527 -110 538 -100 Z" unicode="Ų" />
<glyph horiz-adv-x="636" d="M 82 0 L 82 0 Z M 82 536 L 166 536 L 166 199 C 166 147 180 110 208 90 C 236 70 271 60 312 60 C 352 60 387 73 417 99 C 447 125 462 159 462 202 L 462 536 L 547 536 L 547 0 L 470 0 L 470 114 C 461 82 440 53 407 27 C 373 1 331 -12 279 -12 C 252 -12 227 -8 203 -1 C 179 5 158 16 140 31 C 122 45 108 64 98 86 C 87 108 82 135 82 166 L 82 536 Z M 490 -7 L 490 -7 Z M 602 -99 L 626 -134 C 606 -154 584 -169 559 -180 C 533 -190 505 -196 475 -196 C 441 -196 414 -188 394 -174 C 374 -160 365 -141 365 -119 C 365 -96 374 -74 393 -53 C 412 -32 438 -14 472 1 L 529 0 C 500 -13 477 -27 461 -42 C 444 -56 436 -71 436 -86 C 436 -100 442 -112 455 -121 C 467 -129 483 -134 502 -134 C 522 -134 541 -130 559 -124 C 577 -118 591 -109 602 -99 Z" unicode="ų" />
<glyph horiz-adv-x="935" d="M 13 0 L 13 0 Z M 922 730 L 700 -6 L 645 -6 L 470 568 L 285 -6 L 231 -6 L 13 730 L 106 730 L 268 170 L 444 730 L 498 730 L 676 167 L 838 730 L 922 730 Z M 467 781 L 467 781 Z M 633 781 L 555 781 L 467 901 L 378 781 L 302 781 L 425 952 L 510 952 L 633 781 Z" unicode="Ŵ" />
<glyph horiz-adv-x="765" d="M 5 0 L 5 0 Z M 522 -3 L 390 337 L 243 -3 L 192 -3 L 5 536 L 93 536 L 230 126 L 366 461 L 421 461 L 546 129 L 680 536 L 761 536 L 573 -3 L 522 -3 Z M 391 587 L 391 587 Z M 557 587 L 479 587 L 391 707 L 302 587 L 226 587 L 349 758 L 434 758 L 557 587 Z" unicode="ŵ" />
<glyph horiz-adv-x="658" d="M 2 0 L 2 0 Z M 656 730 L 372 312 L 372 0 L 282 0 L 282 316 L 2 730 L 103 730 L 331 395 L 561 730 L 656 730 Z M 331 781 L 331 781 Z M 497 781 L 419 781 L 331 901 L 242 781 L 166 781 L 289 952 L 374 952 L 497 781 Z" unicode="Ŷ" />
<glyph horiz-adv-x="541" d="M 0 0 L 0 0 Z M 545 536 L 258 -78 C 235 -126 208 -158 177 -175 C 146 -191 116 -200 88 -200 C 72 -200 59 -198 48 -194 C 37 -190 29 -188 25 -187 L 52 -112 C 55 -114 61 -116 69 -118 C 77 -120 85 -122 94 -122 C 111 -122 127 -115 143 -103 C 158 -91 173 -70 188 -41 L 224 31 L -4 536 L 87 536 L 270 125 L 457 536 L 545 536 Z M 271 587 L 271 587 Z M 437 587 L 359 587 L 271 707 L 182 587 L 106 587 L 229 758 L 314 758 L 437 587 Z" unicode="ŷ" />
<glyph horiz-adv-x="658" d="M 2 0 L 2 0 Z M 656 730 L 372 312 L 372 0 L 282 0 L 282 316 L 2 730 L 103 730 L 331 395 L 561 730 L 656 730 Z M 331 781 L 331 781 Z M 458 781 L 387 781 L 387 938 L 458 938 L 458 781 Z M 275 781 L 204 781 L 204 938 L 275 938 L 275 781 Z" unicode="Ÿ" />
<glyph horiz-adv-x="587" d="M 20 0 L 20 0 Z M 553 730 L 553 691 L 141 78 L 567 78 L 567 0 L 20 0 L 20 37 L 428 651 L 54 651 L 54 730 L 553 730 Z M 293 788 L 293 788 Z M 191 788 L 297 951 L 396 951 L 275 788 L 191 788 Z" unicode="Ź" />
<glyph horiz-adv-x="477" d="M 20 0 L 20 0 Z M 443 536 L 443 497 L 142 74 L 468 74 L 468 0 L 20 0 L 20 39 L 321 462 L 34 462 L 34 536 L 443 536 Z M 244 594 L 244 594 Z M 142 594 L 248 757 L 347 757 L 226 594 L 142 594 Z" unicode="ź" />
<glyph horiz-adv-x="587" d="M 20 0 L 20 0 Z M 553 730 L 553 691 L 141 78 L 567 78 L 567 0 L 20 0 L 20 37 L 428 651 L 54 651 L 54 730 L 553 730 Z M 293 781 L 293 781 Z M 332 781 L 255 781 L 255 945 L 332 945 L 332 781 Z" unicode="Ż" />
<glyph horiz-adv-x="477" d="M 20 0 L 20 0 Z M 443 536 L 443 497 L 142 74 L 468 74 L 468 0 L 20 0 L 20 39 L 321 462 L 34 462 L 34 536 L 443 536 Z M 244 587 L 244 587 Z M 283 587 L 206 587 L 206 751 L 283 751 L 283 587 Z" unicode="ż" />
<glyph horiz-adv-x="587" d="M 20 0 L 20 0 Z M 553 730 L 553 691 L 141 78 L 567 78 L 567 0 L 20 0 L 20 37 L 428 651 L 54 651 L 54 730 L 553 730 Z M 293 781 L 293 781 Z M 128 952 L 206 952 L 294 832 L 383 952 L 459 952 L 336 781 L 251 781 L 128 952 Z" unicode="Ž" />
<glyph horiz-adv-x="477" d="M 20 0 L 20 0 Z M 443 536 L 443 497 L 142 74 L 468 74 L 468 0 L 20 0 L 20 39 L 321 462 L 34 462 L 34 536 L 443 536 Z M 244 587 L 244 587 Z M 79 758 L 157 758 L 245 638 L 334 758 L 410 758 L 287 587 L 202 587 L 79 758 Z" unicode="ž" />
<glyph horiz-adv-x="375" d="M 179 -62 C 176 -94 163 -121 140 -144 C 116 -167 88 -179 54 -179 C 37 -179 21 -177 5 -175 C -10 -172 -22 -169 -30 -166 L -22 -106 C -17 -106 -10 -107 0 -109 C 9 -111 18 -112 27 -112 C 47 -112 65 -105 81 -91 C 97 -77 106 -58 109 -33 L 142 339 L 45 339 L 45 403 L 147 403 L 167 630 C 170 666 184 693 208 712 C 232 730 256 740 281 740 C 293 740 306 739 318 738 C 330 737 337 736 340 736 L 333 663 C 331 663 327 664 321 665 C 315 665 309 666 303 666 C 284 666 268 659 256 647 C 244 634 237 614 235 588 L 219 403 L 324 403 L 324 339 L 214 339 L 179 -62 Z" unicode="ƒ" />
<glyph horiz-adv-x="595" d="M 46 0 L 46 0 Z M 302 -12 C 243 -12 192 -3 150 13 C 107 29 72 51 46 78 L 105 148 C 125 122 154 102 191 86 C 227 70 265 63 305 63 C 343 63 376 73 404 94 C 432 115 446 142 446 175 C 446 207 434 234 411 258 C 388 281 346 305 286 331 C 244 347 210 363 182 378 C 154 393 131 409 115 426 C 98 443 86 462 79 484 C 71 505 68 530 68 559 C 68 615 88 659 129 692 C 169 725 223 742 289 742 C 339 742 381 733 417 717 C 453 701 483 682 508 662 L 457 588 C 431 609 404 626 374 639 C 344 652 313 659 281 659 C 243 659 213 650 190 632 C 167 614 156 589 156 559 C 156 525 169 497 196 476 C 222 454 267 430 331 404 C 408 372 461 341 491 309 C 521 277 536 235 536 183 C 536 153 529 126 517 102 C 504 78 487 57 466 40 C 445 23 420 10 392 1 C 363 -7 333 -12 302 -12 Z M 291 -91 L 291 -91 Z M 384 -91 C 377 -147 362 -199 340 -247 C 317 -295 291 -332 263 -358 L 200 -329 C 207 -321 215 -308 225 -292 C 235 -275 244 -256 253 -234 C 262 -212 270 -189 278 -165 C 286 -140 291 -115 295 -91 L 384 -91 Z" unicode="Ș" />
<glyph horiz-adv-x="496" d="M 42 0 L 42 0 Z M 267 -11 C 217 -11 173 -4 136 8 C 98 21 67 38 42 59 L 80 116 C 102 99 130 85 163 73 C 196 61 229 56 263 56 C 293 56 318 64 340 81 C 361 97 372 118 372 142 C 372 162 362 181 343 198 C 323 214 286 231 230 247 C 166 265 122 288 99 316 C 75 343 64 374 64 410 C 64 430 68 449 78 467 C 88 484 101 498 118 510 C 135 522 155 531 178 538 C 200 544 225 548 251 548 C 302 548 343 541 374 529 C 404 516 428 504 445 492 L 413 428 C 391 441 368 453 343 464 C 317 475 289 481 258 481 C 229 481 204 474 182 461 C 160 447 150 430 150 409 C 150 398 151 388 154 380 C 157 371 163 363 172 356 C 181 348 194 341 212 333 C 230 325 253 317 282 309 C 346 290 391 268 418 242 C 444 216 458 184 458 145 C 458 121 453 100 443 81 C 433 61 419 45 402 31 C 384 17 364 7 341 0 C 317 -7 293 -11 267 -11 Z M 245 -84 L 245 -84 Z M 338 -84 C 331 -140 316 -192 294 -240 C 271 -288 245 -325 217 -351 L 154 -322 C 161 -314 169 -301 179 -285 C 189 -268 198 -249 207 -227 C 216 -205 224 -182 232 -158 C 240 -133 245 -108 249 -84 L 338 -84 Z" unicode="ș" />
<glyph horiz-adv-x="544" d="M 10 0 L 10 0 Z M 534 652 L 314 652 L 314 0 L 224 0 L 224 652 L 10 652 L 10 730 L 534 730 L 534 652 Z M 233 -81 L 233 -81 Z M 326 -81 C 319 -137 304 -189 282 -237 C 259 -285 233 -322 205 -348 L 142 -319 C 149 -311 157 -298 167 -282 C 177 -265 186 -246 195 -224 C 204 -202 212 -179 220 -155 C 228 -130 233 -105 237 -81 L 326 -81 Z" unicode="Ț" />
<glyph horiz-adv-x="371" d="M 15 0 L 15 0 Z M 338 90 L 353 22 C 342 13 326 6 306 1 C 285 -3 264 -6 243 -6 C 203 -6 170 6 142 30 C 114 54 100 94 100 148 L 100 467 L 15 467 L 15 536 L 100 536 L 100 680 L 184 691 L 184 536 L 334 536 L 334 467 L 184 467 L 184 151 C 184 125 190 104 202 90 C 214 75 231 68 254 68 C 272 68 288 70 303 76 C 318 81 330 86 338 90 Z M 171 -81 L 171 -81 Z M 264 -81 C 257 -137 242 -189 220 -237 C 197 -285 171 -322 143 -348 L 80 -319 C 87 -311 95 -298 105 -282 C 115 -265 124 -246 133 -224 C 142 -202 150 -179 158 -155 C 166 -130 171 -105 175 -81 L 264 -81 Z" unicode="ț" />
<glyph horiz-adv-x="307" d="M 223 536 L 223 -17 C 223 -47 218 -74 210 -98 C 202 -121 190 -140 176 -156 C 162 -171 145 -182 127 -190 C 108 -198 89 -202 69 -202 C 47 -202 26 -199 4 -194 C -18 -189 -36 -182 -51 -174 L -25 -106 C -14 -112 -1 -117 12 -121 C 26 -125 43 -127 61 -127 C 81 -127 99 -116 115 -95 C 131 -74 139 -47 139 -13 L 139 536 L 223 536 Z" unicode="ȷ" />
<glyph horiz-adv-x="500" d="M 416 587 L 338 587 L 250 707 L 161 587 L 85 587 L 208 758 L 293 758 L 416 587 Z" unicode="ˆ" />
<glyph horiz-adv-x="500" d="M 85 758 L 163 758 L 251 638 L 340 758 L 416 758 L 293 587 L 208 587 L 85 758 Z" unicode="ˇ" />
<glyph horiz-adv-x="500" d="M 335 749 L 405 749 C 401 695 384 655 356 630 C 327 604 292 592 250 592 C 208 592 172 604 144 630 C 115 655 99 695 95 749 L 165 749 C 167 719 175 695 188 677 C 201 658 222 649 250 649 C 278 649 298 658 312 676 C 325 694 333 718 335 749 Z" unicode="˘" />
<glyph horiz-adv-x="500" d="M 289 587 L 212 587 L 212 751 L 289 751 L 289 587 Z" unicode="˙" />
<glyph horiz-adv-x="516" d="M 258 587 C 224 587 196 598 173 622 C 149 646 138 674 138 708 C 138 741 149 769 173 793 C 196 816 224 828 258 828 C 292 828 320 816 344 793 C 367 769 379 741 379 708 C 379 674 367 646 344 622 C 320 598 292 587 258 587 Z M 258 641 C 276 641 292 647 305 660 C 317 673 324 689 324 708 C 324 726 317 742 305 755 C 292 768 276 775 258 775 C 240 775 224 768 211 755 C 198 742 192 726 192 708 C 192 689 198 673 211 660 C 224 647 240 641 258 641 Z" unicode="˚" />
<glyph horiz-adv-x="500" d="M 362 -92 L 386 -127 C 366 -147 344 -162 319 -173 C 293 -183 265 -189 235 -189 C 201 -189 174 -181 154 -167 C 134 -153 125 -134 125 -112 C 125 -89 134 -67 153 -46 C 172 -25 198 -7 232 8 L 289 7 C 260 -6 237 -20 221 -35 C 204 -49 196 -64 196 -79 C 196 -93 202 -105 215 -114 C 227 -122 243 -127 262 -127 C 282 -127 301 -123 319 -117 C 337 -111 351 -102 362 -92 Z" unicode="˛" />
<glyph horiz-adv-x="500" d="M 359 728 L 426 728 C 426 682 419 648 405 626 C 391 604 371 594 346 594 C 327 594 310 598 296 606 C 282 614 268 623 256 633 C 244 641 233 650 222 659 C 210 668 199 673 187 673 C 175 673 166 667 158 655 C 150 643 145 624 145 598 L 78 598 C 78 643 87 677 106 699 C 125 721 146 732 168 732 C 185 732 200 727 214 719 C 228 711 241 701 254 691 C 264 681 275 673 286 666 C 296 658 307 655 318 655 C 329 655 338 661 346 673 C 354 685 358 704 359 728 Z" unicode="˜" />
<glyph horiz-adv-x="500" d="M 79 586 L 173 736 L 262 736 L 153 586 L 79 586 Z M 260 586 L 355 736 L 444 736 L 334 586 L 260 586 Z" unicode="˝" />
<glyph horiz-adv-x="0" d="M 0 586 L 0 586 Z M 103 586 L 19 586 L -102 750 L -4 750 L 103 586 Z" unicode="̀" />
<glyph horiz-adv-x="0" d="M 0 594 L 0 594 Z M -102 594 L 4 757 L 103 757 L -18 594 L -102 594 Z" unicode="́" />
<glyph horiz-adv-x="0" d="M 0 587 L 0 587 Z M 166 587 L 88 587 L 0 707 L -89 587 L -165 587 L -42 758 L 43 758 L 166 587 Z" unicode="̂" />
<glyph horiz-adv-x="0" d="M 0 594 L 0 594 Z M 107 728 L 174 728 C 174 682 167 648 153 626 C 139 604 119 594 94 594 C 75 594 58 598 44 606 C 30 614 16 623 4 633 C -7 641 -18 650 -30 659 C -41 668 -53 673 -65 673 C -76 673 -86 667 -94 655 C -102 643 -106 624 -107 598 L -174 598 C -174 643 -164 677 -145 699 C -126 721 -106 732 -84 732 C -66 732 -51 727 -37 719 C -23 711 -10 701 2 691 C 12 681 23 673 34 666 C 44 658 55 655 66 655 C 77 655 86 661 94 673 C 102 685 106 704 107 728 Z" unicode="̃" />
<glyph horiz-adv-x="0" d="M 0 602 L 0 602 Z M 129 602 L -129 602 L -129 675 L 129 675 L 129 602 Z" unicode="̄" />
<glyph horiz-adv-x="0" d="M 0 592 L 0 592 Z M 85 749 L 155 749 C 151 695 134 655 106 630 C 77 604 42 592 0 592 C -42 592 -77 604 -106 630 C -134 655 -151 695 -155 749 L -85 749 C -82 719 -74 695 -61 677 C -48 658 -28 649 0 649 C 28 649 48 658 62 676 C 75 694 83 718 85 749 Z" unicode="̆" />
<glyph horiz-adv-x="0" d="M 0 587 L 0 587 Z M 39 587 L -38 587 L -38 751 L 39 751 L 39 587 Z" unicode="̇" />
<glyph horiz-adv-x="0" d="M 0 587 L 0 587 Z M 127 587 L 56 587 L 56 744 L 127 744 L 127 587 Z M -56 587 L -127 587 L -127 744 L -56 744 L -56 587 Z" unicode="̈" />
<glyph horiz-adv-x="0" d="M 0 587 L 0 587 Z M 0 587 C -33 587 -61 598 -85 622 C -108 646 -120 674 -120 708 C -120 741 -108 769 -85 793 C -61 816 -33 828 0 828 C 34 828 62 816 86 793 C 109 769 121 741 121 708 C 121 674 109 646 86 622 C 62 598 34 587 0 587 Z M 0 641 C 18 641 34 647 47 660 C 59 673 66 689 66 708 C 66 726 59 742 47 755 C 34 768 18 775 0 775 C -18 775 -33 768 -46 755 C -59 742 -66 726 -66 708 C -66 689 -59 673 -46 660 C -33 647 -18 641 0 641 Z" unicode="̊" />
<glyph horiz-adv-x="0" d="M 0 586 L 0 586 Z M -182 586 L -88 736 L 1 736 L -108 586 L -182 586 Z M -1 586 L 94 736 L 183 736 L 73 586 L -1 586 Z" unicode="̋" />
<glyph horiz-adv-x="0" d="M 0 587 L 0 587 Z M -165 758 L -87 758 L 1 638 L 90 758 L 166 758 L 43 587 L -42 587 L -165 758 Z" unicode="̌" />
<glyph horiz-adv-x="0" d="M 0 -81 L 0 -81 Z M 93 -81 C 86 -137 71 -189 49 -237 C 26 -285 0 -322 -28 -348 L -91 -319 C -83 -311 -75 -298 -65 -282 C -55 -265 -46 -246 -37 -224 C -28 -202 -20 -179 -12 -155 C -4 -130 0 -105 4 -81 L 93 -81 Z" unicode="̦" />
<glyph horiz-adv-x="0" d="M 0 0 L 0 0 Z M 9 -187 C -15 -187 -39 -184 -64 -178 C -88 -172 -108 -164 -122 -155 L -109 -117 C -99 -123 -86 -128 -70 -134 C -54 -139 -37 -142 -18 -142 C -2 -142 11 -138 23 -131 C 35 -124 41 -115 41 -103 C 41 -90 35 -81 25 -75 C 15 -69 3 -67 -9 -67 C -17 -67 -25 -67 -31 -68 C -37 -69 -43 -71 -51 -74 L -62 -62 L -3 12 L 48 12 L -2 -51 C 32 -43 62 -45 86 -58 C 110 -70 122 -89 122 -113 C 122 -137 110 -156 88 -168 C 65 -180 39 -187 9 -187 Z" unicode="̧" />
<glyph horiz-adv-x="0" d="M 0 0 L 0 0 Z M 112 -92 L 136 -127 C 116 -147 94 -162 69 -173 C 43 -183 15 -189 -15 -189 C -49 -189 -75 -181 -95 -167 C -115 -153 -125 -134 -125 -112 C -125 -89 -115 -67 -96 -46 C -77 -25 -51 -7 -18 8 L 39 7 C 10 -6 -12 -20 -29 -35 C -45 -49 -54 -64 -54 -79 C -54 -93 -47 -105 -35 -114 C -22 -122 -6 -127 12 -127 C 32 -127 51 -123 69 -117 C 87 -111 101 -102 112 -92 Z" unicode="̨" />
<glyph horiz-adv-x="580" d="M 1 0 L 1 0 Z M 655 0 L 1 0 L 299 732 L 361 732 L 655 0 Z M 532 71 L 323 602 L 118 71 L 532 71 Z" unicode="Δ" />
<glyph horiz-adv-x="724" d="M 38 0 L 38 0 Z M 47 0 L 47 77 L 268 77 L 268 150 C 234 162 203 177 175 197 C 147 217 122 239 102 265 C 82 290 66 318 55 348 C 43 378 38 410 38 444 C 38 486 46 525 62 562 C 78 599 100 631 129 658 C 158 685 193 706 235 722 C 277 738 323 746 373 746 C 425 746 473 738 516 722 C 558 706 594 684 624 657 C 653 630 676 598 692 561 C 708 524 716 485 716 444 C 716 377 695 317 655 265 C 615 213 558 174 486 150 L 486 77 L 706 77 L 706 0 L 425 0 L 425 195 C 487 217 535 251 571 296 C 607 340 625 388 625 440 C 625 474 618 505 606 534 C 593 563 575 588 553 609 C 531 630 504 646 474 658 C 443 670 410 676 374 676 C 339 676 307 670 277 658 C 247 646 221 630 199 609 C 177 588 160 563 148 534 C 136 504 130 472 130 438 C 130 388 147 341 182 297 C 217 253 266 219 330 195 L 330 0 L 47 0 Z" unicode="Ω" />
<glyph horiz-adv-x="591" d="M 82 0 L 82 0 Z M 82 -185 L 82 536 L 164 536 L 164 168 C 164 137 177 111 204 90 C 231 68 263 58 301 58 C 318 58 336 61 354 68 C 372 74 388 84 403 97 C 417 110 429 126 439 145 C 448 164 453 186 453 210 L 453 536 L 535 536 L 535 0 L 459 0 L 459 103 C 453 88 445 74 433 61 C 421 48 406 37 390 27 C 374 17 356 9 338 3 C 319 -3 300 -6 282 -7 C 256 -7 231 -1 207 9 C 183 20 167 35 158 55 L 158 -185 L 82 -185 Z" unicode="μ" />
<glyph horiz-adv-x="623" d="M 177 472 L 177 0 L 95 0 L 95 472 L 15 472 L 15 536 L 608 536 L 608 472 L 523 472 L 523 0 L 440 0 L 440 472 L 177 472 Z" unicode="π" />
<glyph horiz-adv-x="935" d="M 13 0 L 13 0 Z M 922 730 L 700 -6 L 645 -6 L 470 568 L 285 -6 L 231 -6 L 13 730 L 106 730 L 268 170 L 444 730 L 498 730 L 676 167 L 838 730 L 922 730 Z M 467 780 L 467 780 Z M 570 780 L 486 780 L 365 944 L 463 944 L 570 780 Z" unicode="Ẁ" />
<glyph horiz-adv-x="765" d="M 5 0 L 5 0 Z M 522 -3 L 390 337 L 243 -3 L 192 -3 L 5 536 L 93 536 L 230 126 L 366 461 L 421 461 L 546 129 L 680 536 L 761 536 L 573 -3 L 522 -3 Z M 391 586 L 391 586 Z M 494 586 L 410 586 L 289 750 L 387 750 L 494 586 Z" unicode="ẁ" />
<glyph horiz-adv-x="935" d="M 13 0 L 13 0 Z M 922 730 L 700 -6 L 645 -6 L 470 568 L 285 -6 L 231 -6 L 13 730 L 106 730 L 268 170 L 444 730 L 498 730 L 676 167 L 838 730 L 922 730 Z M 467 788 L 467 788 Z M 365 788 L 471 951 L 570 951 L 449 788 L 365 788 Z" unicode="Ẃ" />
<glyph horiz-adv-x="765" d="M 5 0 L 5 0 Z M 522 -3 L 390 337 L 243 -3 L 192 -3 L 5 536 L 93 536 L 230 126 L 366 461 L 421 461 L 546 129 L 680 536 L 761 536 L 573 -3 L 522 -3 Z M 391 594 L 391 594 Z M 289 594 L 395 757 L 494 757 L 373 594 L 289 594 Z" unicode="ẃ" />
<glyph horiz-adv-x="935" d="M 13 0 L 13 0 Z M 922 730 L 700 -6 L 645 -6 L 470 568 L 285 -6 L 231 -6 L 13 730 L 106 730 L 268 170 L 444 730 L 498 730 L 676 167 L 838 730 L 922 730 Z M 467 781 L 467 781 Z M 594 781 L 523 781 L 523 938 L 594 938 L 594 781 Z M 411 781 L 340 781 L 340 938 L 411 938 L 411 781 Z" unicode="Ẅ" />
<glyph horiz-adv-x="765" d="M 5 0 L 5 0 Z M 522 -3 L 390 337 L 243 -3 L 192 -3 L 5 536 L 93 536 L 230 126 L 366 461 L 421 461 L 546 129 L 680 536 L 761 536 L 573 -3 L 522 -3 Z M 391 587 L 391 587 Z M 518 587 L 447 587 L 447 744 L 518 744 L 518 587 Z M 335 587 L 264 587 L 264 744 L 335 744 L 335 587 Z" unicode="ẅ" />
<glyph horiz-adv-x="658" d="M 2 0 L 2 0 Z M 656 730 L 372 312 L 372 0 L 282 0 L 282 316 L 2 730 L 103 730 L 331 395 L 561 730 L 656 730 Z M 331 780 L 331 780 Z M 434 780 L 350 780 L 229 944 L 327 944 L 434 780 Z" unicode="Ỳ" />
<glyph horiz-adv-x="541" d="M 0 0 L 0 0 Z M 545 536 L 258 -78 C 235 -126 208 -158 177 -175 C 146 -191 116 -200 88 -200 C 72 -200 59 -198 48 -194 C 37 -190 29 -188 25 -187 L 52 -112 C 55 -114 61 -116 69 -118 C 77 -120 85 -122 94 -122 C 111 -122 127 -115 143 -103 C 158 -91 173 -70 188 -41 L 224 31 L -4 536 L 87 536 L 270 125 L 457 536 L 545 536 Z M 271 586 L 271 586 Z M 374 586 L 290 586 L 169 750 L 267 750 L 374 586 Z" unicode="ỳ" />
<glyph horiz-adv-x="461" d="M 420 229 L 41 229 L 41 301 L 420 301 L 420 229 Z" unicode="–" />
<glyph horiz-adv-x="646" d="M 605 229 L 41 229 L 41 301 L 605 301 L 605 229 Z" unicode="—" />
<glyph horiz-adv-x="263" d="M 34 507 L 34 514 C 34 550 45 589 69 629 C 92 669 123 705 163 737 L 246 731 C 236 725 224 715 210 701 C 196 687 182 670 170 651 C 157 631 146 610 137 587 C 128 563 124 539 124 515 L 124 507 L 34 507 Z" unicode="‘" />
<glyph horiz-adv-x="263" d="M 228 737 L 228 730 C 228 693 216 655 192 616 C 168 577 137 541 99 507 L 16 513 C 26 521 38 532 52 546 C 66 560 79 577 92 596 C 104 614 115 635 124 658 C 133 680 138 704 138 729 L 138 737 L 228 737 Z" unicode="’" />
<glyph horiz-adv-x="263" d="M 228 111 L 228 104 C 228 67 216 29 192 -9 C 168 -48 137 -85 99 -119 L 16 -113 C 26 -105 38 -93 52 -79 C 66 -65 79 -48 92 -30 C 104 -11 115 9 124 32 C 133 54 138 78 138 103 L 138 111 L 228 111 Z" unicode="‚" />
<glyph horiz-adv-x="437" d="M 220 507 L 220 514 C 220 550 231 587 254 625 C 277 663 309 700 349 737 L 421 731 C 411 722 399 710 385 696 C 371 682 357 665 344 647 C 331 628 320 607 311 585 C 301 563 297 539 297 515 L 297 507 L 220 507 Z M 34 507 L 34 514 C 34 550 46 587 70 625 C 94 663 125 700 163 737 L 235 731 C 226 723 215 711 201 697 C 187 683 173 666 160 648 C 146 629 135 608 125 586 C 115 563 111 539 111 515 L 111 507 L 34 507 Z" unicode="“" />
<glyph horiz-adv-x="437" d="M 217 737 L 217 730 C 217 693 206 656 184 618 C 162 580 130 543 88 507 L 16 513 C 27 522 40 534 54 549 C 68 563 82 580 95 598 C 107 616 118 637 127 659 C 135 681 140 704 140 729 L 140 737 L 217 737 Z M 403 737 L 403 730 C 403 693 391 655 368 617 C 345 579 314 542 274 507 L 202 513 C 214 523 227 535 241 549 C 255 563 269 580 281 598 C 293 616 304 637 313 659 C 321 681 326 704 326 729 L 326 737 L 403 737 Z" unicode="”" />
<glyph horiz-adv-x="437" d="M 217 115 L 217 108 C 217 71 206 34 184 -3 C 162 -41 130 -78 88 -115 L 16 -109 C 27 -99 40 -87 54 -73 C 68 -58 82 -41 95 -23 C 107 -5 118 15 127 37 C 135 59 140 82 140 107 L 140 115 L 217 115 Z M 403 115 L 403 108 C 403 71 391 33 368 -4 C 345 -42 314 -79 274 -115 L 202 -109 C 214 -99 227 -86 241 -72 C 255 -58 269 -41 281 -23 C 293 -5 304 15 313 37 C 321 59 326 82 326 107 L 326 115 L 403 115 Z" unicode="„" />
<glyph horiz-adv-x="565" d="M 540 403 L 323 403 L 323 -179 L 236 -179 L 236 403 L 25 403 L 25 470 L 236 470 L 236 730 L 323 730 L 323 470 L 540 470 L 540 403 Z" unicode="†" />
<glyph horiz-adv-x="565" d="M 237 -179 L 237 126 L 29 126 L 29 193 L 237 193 L 237 395 L 29 395 L 29 462 L 237 462 L 237 730 L 323 730 L 323 462 L 536 462 L 536 395 L 323 395 L 323 193 L 536 193 L 536 126 L 323 126 L 323 -179 L 237 -179 Z" unicode="‡" />
<glyph horiz-adv-x="383" d="M 191 457 C 213 457 231 449 246 434 C 261 419 269 401 269 379 C 269 357 261 339 246 324 C 231 308 213 301 191 301 C 169 301 150 308 135 324 C 120 339 113 357 113 379 C 113 401 120 419 135 434 C 150 449 169 457 191 457 Z" unicode="•" />
<glyph horiz-adv-x="695" d="M 74 0 L 74 127 L 158 127 L 158 0 L 74 0 Z M 305 0 L 305 127 L 390 127 L 390 0 L 305 0 Z M 537 0 L 537 127 L 621 127 L 621 0 L 537 0 Z" unicode="…" />
<glyph horiz-adv-x="1227" d="M 214 348 C 191 348 169 352 148 362 C 127 371 109 384 93 401 C 77 417 65 438 56 462 C 46 486 42 514 42 544 C 42 570 46 595 55 619 C 63 643 75 663 90 681 C 105 699 123 713 144 724 C 165 734 188 740 213 740 C 238 740 261 734 282 724 C 303 714 321 700 336 682 C 350 664 362 644 370 621 C 378 597 383 573 383 547 C 383 519 378 493 370 469 C 362 445 350 424 335 406 C 320 388 302 373 282 363 C 261 353 238 348 214 348 Z M 132 0 L 628 730 L 714 730 L 216 0 L 132 0 Z M 119 544 C 119 502 128 469 146 447 C 164 425 186 414 211 414 C 241 414 265 426 281 450 C 297 474 306 505 306 544 C 306 582 298 613 283 637 C 267 661 244 674 214 674 C 184 674 160 661 144 637 C 127 613 119 582 119 544 Z M 639 -3 C 616 -3 594 1 574 11 C 553 20 535 33 520 50 C 504 66 492 87 483 111 C 473 135 469 163 469 193 C 469 219 473 244 481 268 C 489 292 501 312 516 330 C 531 348 549 362 570 373 C 590 383 613 389 638 389 C 663 389 686 383 708 373 C 729 363 747 349 762 331 C 776 313 788 293 796 270 C 804 246 809 222 809 196 C 809 168 804 143 796 119 C 788 95 776 74 761 56 C 746 38 728 23 707 13 C 686 2 663 -3 639 -3 Z M 1016 -3 C 993 -3 971 1 950 11 C 929 20 911 33 896 50 C 880 66 868 87 859 111 C 849 135 845 163 845 193 C 845 219 849 244 857 268 C 865 292 877 312 892 330 C 907 348 925 362 946 373 C 967 383 990 389 1015 389 C 1040 389 1063 383 1085 373 C 1106 363 1124 349 1139 331 C 1153 313 1165 293 1173 270 C 1181 246 1185 222 1185 196 C 1185 168 1180 143 1172 119 C 1164 95 1152 74 1138 56 C 1123 38 1105 23 1084 13 C 1063 2 1040 -3 1016 -3 Z M 636 64 C 666 64 690 76 707 100 C 724 124 733 155 733 193 C 733 231 725 262 709 286 C 693 310 670 323 639 323 C 609 323 586 310 570 286 C 553 262 545 231 545 193 C 545 151 554 119 572 97 C 590 75 611 64 636 64 Z M 1013 64 C 1043 64 1067 76 1084 100 C 1100 124 1109 155 1109 193 C 1109 231 1101 262 1086 286 C 1070 310 1047 323 1016 323 C 986 323 963 310 946 286 C 929 262 921 231 921 193 C 921 151 930 119 948 97 C 966 75 988 64 1013 64 Z" unicode="‰" />
<glyph horiz-adv-x="235" d="M 205 114 L 28 281 L 28 329 L 205 494 L 205 412 L 101 303 L 205 199 L 205 114 Z" unicode="‹" />
<glyph horiz-adv-x="235" d="M 30 495 L 207 328 L 207 281 L 30 116 L 30 198 L 134 306 L 30 410 L 30 495 Z" unicode="›" />
<glyph horiz-adv-x="145" d="M 301 730 L -72 0 L -145 0 L 228 730 L 301 730 Z" unicode="⁄" />
<glyph horiz-adv-x="326" d="M 15 456 L 15 507 L 204 738 L 252 738 L 252 510 L 315 510 L 315 456 L 252 456 L 252 373 L 183 373 L 183 456 L 15 456 Z M 72 501 L 185 501 L 185 642 L 72 501 Z" unicode="⁴" />
<glyph horiz-adv-x="567" d="M 564 116 C 543 79 513 48 473 24 C 433 0 390 -12 342 -12 C 280 -12 226 11 180 59 C 134 106 103 171 89 254 L 39 254 L 39 314 L 82 314 C 81 322 80 330 80 338 C 80 346 80 354 80 362 C 80 369 80 376 80 384 C 80 392 80 399 81 407 L 39 407 L 39 467 L 88 467 C 94 507 105 544 119 578 C 133 612 151 641 172 665 C 193 689 218 707 247 721 C 275 735 307 742 341 742 C 398 742 444 730 478 707 C 512 684 537 657 554 626 L 487 591 C 472 615 453 635 430 651 C 406 667 377 675 341 675 C 295 675 257 657 227 621 C 196 585 175 533 165 467 L 490 467 L 490 407 L 159 407 C 158 400 158 393 158 385 C 158 377 158 370 158 363 C 158 354 158 346 158 338 C 158 330 159 322 160 314 L 490 314 L 490 254 L 168 254 C 180 189 203 140 236 106 C 268 72 304 55 343 55 C 379 55 410 65 437 85 C 463 105 484 128 499 156 L 564 116 Z" unicode="€" />
<glyph horiz-adv-x="913" d="M 853 292 L 777 292 L 777 607 L 626 407 L 618 407 L 469 606 L 469 292 L 395 292 L 395 730 L 448 730 L 623 503 L 796 730 L 853 730 L 853 292 Z M 366 644 L 233 644 L 233 292 L 147 292 L 147 644 L 21 644 L 21 730 L 366 730 L 366 644 Z" unicode="™" />
<glyph horiz-adv-x="754" d="M 47 0 L 47 77 L 268 77 L 268 150 C 234 162 203 177 175 197 C 147 217 122 239 102 265 C 82 290 66 318 55 348 C 43 378 38 410 38 444 C 38 486 46 525 62 562 C 78 599 100 631 129 658 C 158 685 193 706 235 722 C 277 738 323 746 373 746 C 425 746 473 738 516 722 C 558 706 594 684 624 657 C 653 630 676 598 692 561 C 708 524 716 485 716 444 C 716 377 695 317 655 265 C 615 213 558 174 486 150 L 486 77 L 706 77 L 706 0 L 425 0 L 425 195 C 487 217 535 251 571 296 C 607 340 625 388 625 440 C 625 474 618 505 606 534 C 593 563 575 588 553 609 C 531 630 504 646 474 658 C 443 670 410 676 374 676 C 339 676 307 670 277 658 C 247 646 221 630 199 609 C 177 588 160 563 148 534 C 136 504 130 472 130 438 C 130 388 147 341 182 297 C 217 253 266 219 330 195 L 330 0 L 47 0 Z" unicode="Ω" />
<glyph horiz-adv-x="602" d="M 559 292 C 559 240 552 195 538 157 C 524 119 506 87 482 63 C 458 38 431 19 399 7 C 367 -4 332 -11 296 -11 C 263 -11 231 -5 201 6 C 170 18 143 34 119 56 C 95 77 76 103 62 134 C 48 164 41 198 41 236 C 41 270 47 302 60 333 C 72 364 90 391 112 415 C 134 438 161 457 191 471 C 221 485 254 492 289 492 C 337 492 378 480 414 456 C 449 432 474 403 489 369 C 481 438 467 497 446 546 C 424 594 399 634 371 664 C 342 694 311 717 277 731 C 243 745 211 752 179 754 L 219 802 C 252 802 288 792 328 774 C 368 756 405 727 439 687 C 473 647 501 594 524 529 C 547 463 559 384 559 292 Z M 298 48 C 349 48 391 66 424 103 C 456 139 473 188 473 249 C 473 273 469 297 461 319 C 453 341 441 361 426 377 C 411 393 393 406 371 416 C 349 426 325 431 298 431 C 249 431 208 413 176 377 C 143 341 127 295 127 239 C 127 179 143 133 176 99 C 208 65 249 48 298 48 Z" unicode="∂" />
<glyph horiz-adv-x="656" d="M 655 0 L 1 0 L 299 732 L 361 732 L 655 0 Z M 532 71 L 323 602 L 118 71 L 532 71 Z" unicode="∆" />
<glyph horiz-adv-x="700" d="M 220 655 L 220 0 L 133 0 L 133 655 L 15 655 L 15 730 L 685 730 L 685 655 L 571 655 L 571 0 L 485 0 L 485 655 L 220 655 Z" unicode="∏" />
<glyph horiz-adv-x="618" d="M 167 651 L 416 307 L 134 -100 L 572 -100 L 572 -179 L -12 -179 L 324 306 L 18 730 L 551 730 L 551 651 L 167 651 Z" unicode="∑" />
<glyph horiz-adv-x="513" d="M 472 296 L 41 296 L 41 368 L 472 368 L 472 296 Z" unicode="−" />
<glyph horiz-adv-x="510" d="M 500 730 L 198 0 L 186 0 L 14 327 L 74 371 L 202 116 L 446 730 L 500 730 Z" unicode="√" />
<glyph horiz-adv-x="334" d="M 109 -33 L 167 630 C 170 666 184 693 208 712 C 232 730 256 740 281 740 C 293 740 306 739 318 738 C 330 737 337 736 340 736 L 333 663 C 331 663 327 664 321 665 C 315 665 309 666 303 666 C 284 666 268 659 256 647 C 244 634 237 614 235 588 L 179 -62 C 176 -94 163 -121 140 -145 C 116 -168 88 -179 54 -179 C 36 -179 20 -177 5 -174 C -10 -170 -22 -166 -30 -162 L -21 -103 C -17 -103 -10 -105 0 -108 C 9 -110 18 -112 27 -112 C 47 -112 65 -105 81 -91 C 97 -77 106 -58 109 -33 Z" unicode="∫" />
<glyph horiz-adv-x="500" d="M 398 496 L 458 496 C 457 448 448 409 432 380 C 415 351 389 337 355 337 C 332 337 312 342 296 352 C 279 362 264 374 251 387 C 237 400 223 411 209 421 C 195 431 181 436 167 436 C 152 436 137 427 123 410 C 109 392 102 369 102 340 L 42 340 C 42 388 52 427 72 455 C 92 483 119 498 153 498 C 176 498 196 491 214 479 C 232 467 247 454 261 442 C 274 430 287 420 300 410 C 313 400 327 396 342 396 C 361 396 375 404 384 420 C 393 436 398 462 398 496 Z M 398 322 L 458 322 C 457 274 448 235 432 206 C 415 177 389 163 355 163 C 332 163 312 168 296 178 C 279 188 264 200 251 213 C 237 226 223 237 209 247 C 195 257 181 262 167 262 C 152 262 137 253 123 236 C 109 218 102 195 102 166 L 42 166 C 42 214 52 253 72 281 C 92 309 119 324 153 324 C 176 324 196 317 214 305 C 232 293 247 280 261 268 C 274 256 287 246 300 236 C 313 226 327 222 342 222 C 361 222 375 230 384 246 C 393 262 398 288 398 322 Z" unicode="≈" />
<glyph horiz-adv-x="500" d="M 457 179 L 217 179 L 166 72 L 121 93 L 162 179 L 65 179 L 65 250 L 197 250 L 264 390 L 65 390 L 65 461 L 298 461 L 350 568 L 394 547 L 353 461 L 457 461 L 457 390 L 319 390 L 251 250 L 457 250 L 457 179 Z" unicode="≠" />
<glyph horiz-adv-x="500" d="M 62 298 L 62 352 L 433 556 L 433 485 L 143 327 L 433 166 L 433 95 L 62 298 Z M 61 80 L 433 80 L 433 25 L 61 25 L 61 80 Z" unicode="≤" />
<glyph horiz-adv-x="500" d="M 432 298 L 61 95 L 61 166 L 351 327 L 61 485 L 61 556 L 432 352 L 432 298 Z M 433 80 L 433 25 L 61 25 L 61 80 L 433 80 Z" unicode="≥" />
<glyph horiz-adv-x="530" d="M 500 326 L 270 -12 L 259 -12 L 30 326 L 30 337 L 259 674 L 270 674 L 500 337 L 500 326 Z M 421 327 L 421 336 L 269 565 L 261 565 L 109 336 L 109 327 L 261 97 L 269 97 L 421 327 Z" unicode="◊" />
</font>
</defs>
</svg>
