<?xml version="1.0" encoding="utf-8" ?><svg version="1.1" xmlns = 'http://www.w3.org/2000/svg'><defs><font id='web' horiz-adv-x="1000">
<font-face font-family="web" descent="-200" cap-height="730" units-per-em="1000" bbox="-197,-323,1121,1017" x-height="436" ascent="800" />
<missing-glyph horiz-adv-x="500" d="" /><glyph horiz-adv-x="219" d="" unicode=" " />
<glyph horiz-adv-x="270" d="M 201 435 L 166 216 L 113 216 L 79 435 L 79 730 L 201 730 L 201 435 Z M 196 0 L 85 0 L 85 122 L 196 122 L 196 0 Z" unicode="!" />
<glyph horiz-adv-x="420" d="M 359 624 L 352 484 L 268 484 L 263 623 L 263 730 L 359 730 L 359 624 Z M 157 623 L 152 484 L 66 484 L 62 623 L 62 730 L 157 730 L 157 623 Z" unicode="&#x22;" />
<glyph horiz-adv-x="624" d="M 363 0 L 382 214 L 226 214 L 207 0 L 143 0 L 162 214 L 35 214 L 35 303 L 170 303 L 180 424 L 53 424 L 53 513 L 188 513 L 207 729 L 271 729 L 252 513 L 408 513 L 427 729 L 490 729 L 471 513 L 589 513 L 589 424 L 463 424 L 453 303 L 571 303 L 571 214 L 445 214 L 426 0 L 363 0 Z M 234 303 L 390 303 L 400 424 L 244 424 L 234 303 Z" unicode="#" />
<glyph horiz-adv-x="527" d="M 492 192 C 492 142 474 99 438 65 C 402 30 355 9 299 3 L 299 -120 L 224 -120 L 224 3 C 181 7 143 16 109 32 C 75 47 48 64 28 84 L 80 166 C 96 150 118 136 144 124 C 170 112 197 103 224 98 L 224 340 C 160 366 113 396 85 429 C 57 462 43 503 43 551 C 43 595 59 634 93 668 C 126 701 170 721 224 728 L 224 789 L 299 789 L 299 728 C 329 724 359 716 388 704 C 417 692 444 674 469 652 L 410 576 C 394 592 376 604 357 614 C 337 623 318 630 299 635 L 299 414 L 300 414 C 369 382 418 351 448 320 C 477 288 492 246 492 192 Z M 139 552 C 138 530 144 512 156 498 C 168 483 191 467 224 451 L 224 638 C 198 634 177 624 162 609 C 146 593 139 574 139 552 Z M 397 194 C 397 216 390 236 378 252 C 366 268 339 287 299 307 L 299 95 C 327 99 350 109 369 127 C 387 145 397 167 397 194 Z" unicode="$" />
<glyph horiz-adv-x="767" d="M 200 363 C 182 363 163 366 144 374 C 125 382 108 393 93 409 C 78 425 66 444 56 468 C 46 492 41 519 41 551 C 41 577 45 601 54 624 C 62 647 74 667 88 684 C 102 701 119 715 139 725 C 158 735 178 740 199 740 C 222 740 243 735 263 725 C 283 715 300 701 314 685 C 328 668 338 648 346 626 C 354 603 358 579 358 554 C 358 527 353 502 345 479 C 337 455 326 435 312 418 C 298 400 281 387 262 377 C 242 367 222 363 200 363 Z M 211 0 L 135 0 L 552 730 L 628 730 L 211 0 Z M 199 441 C 221 441 239 451 251 471 C 263 491 269 518 269 551 C 269 582 263 608 253 630 C 242 651 225 662 202 662 C 180 662 163 651 151 630 C 139 608 134 582 134 551 C 134 517 140 490 152 470 C 164 450 180 441 199 441 Z M 569 -3 C 550 -3 531 0 513 8 C 494 16 477 27 463 43 C 448 59 436 78 427 102 C 417 126 413 153 413 185 C 413 211 417 235 425 258 C 433 281 444 301 458 318 C 472 335 489 349 509 359 C 528 369 549 374 572 374 C 595 374 616 369 636 359 C 656 349 672 335 686 319 C 700 302 710 282 718 260 C 725 237 729 213 729 188 C 729 161 725 136 717 113 C 709 89 698 69 684 52 C 670 34 653 21 633 11 C 613 1 592 -3 569 -3 Z M 570 76 C 592 76 610 85 622 105 C 634 125 640 151 640 185 C 640 217 634 244 622 265 C 610 285 593 296 571 296 C 551 296 536 285 524 265 C 512 244 506 217 506 185 C 506 149 512 122 524 104 C 536 85 552 76 570 76 Z" unicode="%" />
<glyph horiz-adv-x="707" d="M 620 -4 L 531 83 C 494 53 455 31 414 15 C 372 0 329 -8 285 -8 C 247 -8 212 -3 180 5 C 148 13 121 26 99 42 C 76 58 58 78 46 102 C 33 126 27 153 27 183 C 27 211 32 236 42 258 C 52 279 65 298 81 315 C 97 331 117 347 139 361 C 161 375 184 389 208 403 L 197 414 C 188 424 178 434 168 446 C 158 458 148 470 140 484 C 132 498 125 513 119 529 C 113 545 111 563 111 581 C 111 601 116 620 126 639 C 136 657 149 674 166 689 C 183 703 204 715 228 724 C 252 732 278 737 306 737 C 332 737 357 732 380 724 C 403 716 423 704 439 690 C 455 676 467 659 477 641 C 486 622 491 603 491 583 C 491 543 478 509 453 479 C 428 449 393 420 349 391 L 540 212 C 552 226 565 242 577 258 C 589 274 601 291 613 309 L 685 258 C 672 238 659 220 645 202 C 631 184 618 167 604 152 L 689 72 L 620 -4 Z M 275 460 L 286 450 C 321 472 348 494 367 514 C 385 534 395 555 395 579 C 395 601 387 620 372 638 C 357 656 335 665 305 665 C 278 665 256 656 238 638 C 220 620 212 601 212 581 C 212 559 217 538 229 518 C 241 498 256 478 275 460 Z M 143 183 C 143 149 156 123 184 104 C 212 84 245 75 285 75 C 318 75 350 81 381 93 C 412 105 442 123 470 145 L 270 342 C 228 316 197 292 175 269 C 153 246 143 217 143 183 Z" unicode="&#x26;" />
<glyph horiz-adv-x="219" d="M 157 621 L 152 480 L 66 480 L 62 621 L 62 730 L 157 730 L 157 621 Z" unicode="'" />
<glyph horiz-adv-x="316" d="M 304 -80 L 304 -179 C 267 -160 232 -135 198 -104 C 164 -72 135 -36 109 4 C 83 44 63 89 48 138 C 32 187 25 239 25 293 C 25 349 32 402 48 451 C 64 499 84 543 110 582 C 136 621 165 655 199 683 C 233 711 268 733 304 749 L 304 652 C 283 639 263 622 243 601 C 223 579 206 554 191 524 C 175 494 163 460 154 422 C 144 383 140 340 140 292 C 140 209 154 135 184 69 C 214 3 254 -46 304 -80 Z" unicode="(" />
<glyph horiz-adv-x="316" d="M 12 650 L 12 749 C 46 735 79 714 113 686 C 147 658 177 625 203 586 C 229 546 250 501 266 451 C 282 400 290 345 290 285 C 290 228 281 175 265 126 C 249 76 228 32 202 -6 C 176 -45 146 -79 113 -109 C 79 -138 46 -161 12 -179 L 12 -76 C 35 -60 57 -40 79 -17 C 101 6 120 33 136 63 C 152 93 164 127 174 165 C 184 202 189 242 189 285 C 189 335 183 380 173 420 C 163 460 149 495 133 525 C 116 555 97 580 76 601 C 54 622 33 638 12 650 Z" unicode=")" />
<glyph horiz-adv-x="398" d="M 363 583 L 239 554 L 332 470 L 266 413 L 201 526 L 135 414 L 66 468 L 162 554 L 33 578 L 73 666 L 177 600 L 155 730 L 247 730 L 224 600 L 330 664 L 363 583 Z" unicode="*" />
<glyph horiz-adv-x="515" d="M 478 292 L 299 292 L 299 115 L 216 115 L 216 292 L 37 292 L 37 370 L 216 370 L 216 547 L 299 547 L 299 370 L 478 370 L 478 292 Z" unicode="+" />
<glyph horiz-adv-x="239" d="M 204 106 C 202 83 197 59 189 35 C 181 10 171 -13 160 -36 C 148 -59 136 -80 123 -99 C 109 -118 96 -133 83 -145 L 8 -110 C 16 -100 24 -88 34 -72 C 43 -56 52 -39 60 -20 C 68 -1 76 19 83 41 C 90 63 95 84 99 106 L 204 106 Z" unicode="," />
<glyph horiz-adv-x="349" d="M 304 222 L 46 222 L 46 314 L 304 314 L 304 222 Z" unicode="-" />
<glyph horiz-adv-x="241" d="M 176 0 L 64 0 L 64 130 L 176 130 L 176 0 Z" unicode="." />
<glyph horiz-adv-x="328" d="M 327 730 L 96 0 L 2 0 L 235 730 L 327 730 Z" unicode="/" />
<glyph horiz-adv-x="578" d="M 286 -12 C 210 -12 150 20 105 85 C 60 150 38 242 38 361 C 38 412 43 461 53 507 C 63 553 79 594 100 629 C 120 663 146 691 178 711 C 210 731 247 742 291 742 C 335 742 372 732 404 713 C 435 693 461 667 481 633 C 501 599 515 560 525 515 C 534 469 539 421 539 369 C 539 313 533 262 523 216 C 513 169 497 129 477 95 C 456 61 430 35 398 16 C 366 -2 329 -12 286 -12 Z M 287 80 C 313 80 335 87 354 101 C 372 115 387 134 399 158 C 411 182 419 212 425 246 C 431 280 434 318 434 359 C 434 401 431 439 426 475 C 420 511 412 541 401 567 C 389 592 374 612 356 627 C 338 641 315 649 289 649 C 264 649 242 642 224 628 C 206 614 191 595 179 570 C 167 545 158 515 152 479 C 146 443 144 404 144 361 C 144 319 146 280 152 246 C 158 211 167 181 179 157 C 191 132 206 113 224 100 C 242 86 263 80 287 80 Z" unicode="0" />
<glyph horiz-adv-x="373" d="M 289 0 L 184 0 L 184 572 C 176 564 167 556 155 548 C 143 540 131 534 118 528 C 104 522 91 517 78 513 C 64 509 52 506 42 506 L 42 609 C 76 611 106 622 134 644 C 162 666 190 695 219 731 L 289 731 L 289 0 Z" unicode="1" />
<glyph horiz-adv-x="551" d="M 518 0 L 29 0 L 29 28 L 339 380 C 361 404 379 428 391 454 C 403 479 409 504 409 530 C 409 564 396 591 370 612 C 344 633 311 644 271 644 C 225 644 190 631 165 605 C 140 579 128 544 128 500 L 31 500 C 31 577 53 637 99 679 C 144 721 203 742 275 742 C 309 742 340 737 370 729 C 399 720 424 707 445 691 C 466 674 483 653 495 629 C 507 604 513 575 513 543 C 513 491 502 447 480 412 C 458 376 436 346 413 321 L 199 91 L 518 91 L 518 0 Z" unicode="2" />
<glyph horiz-adv-x="539" d="M 250 -12 C 190 -12 139 -3 99 13 C 58 30 26 50 3 72 L 55 148 C 74 133 99 118 130 103 C 161 88 199 81 245 81 C 301 81 343 94 373 122 C 403 150 418 184 418 224 C 418 262 402 291 371 313 C 340 334 301 345 254 345 L 138 345 L 138 439 L 255 439 C 295 439 328 449 354 471 C 379 492 392 517 392 547 C 392 575 380 599 358 619 C 336 639 305 650 265 650 C 220 650 185 641 159 625 C 133 608 111 588 94 566 L 32 635 C 40 645 50 657 64 670 C 77 682 93 694 113 705 C 133 715 156 724 183 731 C 210 738 241 742 277 742 C 342 742 395 725 435 693 C 475 660 496 616 496 561 C 496 539 492 520 485 502 C 477 484 468 468 456 454 C 444 440 431 428 416 418 C 401 408 386 400 371 396 C 411 385 445 364 475 333 C 504 302 519 263 519 215 C 519 189 514 163 504 136 C 494 109 479 85 458 63 C 437 41 409 23 375 9 C 341 -5 299 -12 250 -12 Z" unicode="3" />
<glyph horiz-adv-x="579" d="M 567 186 L 445 186 L 445 0 L 347 0 L 347 186 L 17 186 L 17 250 L 378 741 L 445 741 L 445 274 L 567 274 L 567 186 Z M 349 274 L 349 568 L 133 274 L 349 274 Z" unicode="4" />
<glyph horiz-adv-x="560" d="M 270 -12 C 212 -12 162 -2 121 16 C 80 35 48 56 26 79 L 77 155 C 97 132 123 114 155 100 C 187 86 223 79 265 79 C 315 79 355 95 385 128 C 414 161 429 203 429 253 C 429 301 415 338 387 366 C 359 394 322 408 278 408 C 245 408 215 401 189 388 C 162 374 142 355 128 330 L 59 347 L 90 730 L 477 730 L 477 633 L 168 633 L 151 424 C 165 446 186 464 214 477 C 242 489 273 496 307 496 C 376 496 431 474 473 430 C 514 386 535 329 535 258 C 535 219 528 183 516 150 C 504 117 486 89 464 65 C 441 41 413 22 381 8 C 348 -5 311 -12 270 -12 Z" unicode="5" />
<glyph horiz-adv-x="549" d="M 288 -12 C 250 -12 216 -5 185 7 C 153 19 127 37 105 60 C 83 82 65 109 53 141 C 41 173 35 208 35 246 C 35 321 55 394 97 464 C 138 534 191 608 256 684 L 309 747 L 386 687 L 351 646 C 328 618 306 592 284 566 C 262 540 243 515 226 492 C 208 469 193 448 181 428 C 169 408 161 391 157 376 C 167 395 185 413 210 431 C 235 449 267 458 307 458 C 341 458 372 452 400 440 C 428 428 451 411 470 391 C 489 370 504 345 514 317 C 524 288 529 257 529 224 C 529 192 523 161 511 133 C 499 104 483 79 462 58 C 441 36 416 19 386 7 C 356 -5 324 -12 288 -12 Z M 291 79 C 332 79 365 92 391 120 C 416 148 429 181 429 221 C 429 263 417 298 393 326 C 369 353 335 367 290 367 C 272 367 254 364 236 358 C 218 352 203 343 190 332 C 176 320 165 306 157 288 C 149 270 145 250 145 228 C 145 182 158 146 184 119 C 210 92 245 79 291 79 Z" unicode="6" />
<glyph horiz-adv-x="494" d="M 496 730 L 503 702 L 151 -9 L 60 34 L 359 633 L 15 633 L 15 730 L 496 730 Z" unicode="7" />
<glyph horiz-adv-x="584" d="M 411 384 C 426 379 442 372 458 363 C 474 353 489 341 502 326 C 515 311 526 293 534 272 C 542 250 547 226 547 198 C 547 168 541 141 529 115 C 517 89 501 67 479 49 C 457 30 431 15 399 4 C 367 -6 332 -12 292 -12 C 212 -12 151 7 107 45 C 63 83 41 133 41 196 C 41 224 45 250 55 272 C 65 294 77 313 91 329 C 105 345 120 357 136 366 C 152 374 167 380 181 382 C 169 386 157 392 143 401 C 129 409 116 420 104 434 C 92 448 81 464 73 483 C 65 502 61 524 61 549 C 61 579 67 606 79 630 C 91 654 107 674 128 690 C 149 706 174 719 202 728 C 230 737 260 742 292 742 C 329 742 362 737 392 727 C 421 717 445 704 465 688 C 485 671 500 651 511 628 C 521 605 527 581 527 555 C 527 531 523 510 516 491 C 509 472 500 455 489 441 C 477 427 465 415 451 405 C 437 395 424 388 411 384 Z M 292 420 C 334 420 366 430 390 452 C 413 474 425 501 425 533 C 425 573 413 602 389 622 C 365 642 333 652 292 652 C 254 652 222 641 196 619 C 170 597 158 568 158 534 C 158 500 170 472 196 451 C 222 430 254 420 292 420 Z M 292 74 C 341 74 379 86 407 110 C 435 134 449 167 449 208 C 449 247 434 278 406 300 C 378 322 340 333 292 333 C 246 333 208 322 179 300 C 150 278 136 247 136 206 C 136 166 150 134 178 110 C 206 86 244 74 292 74 Z" unicode="8" />
<glyph horiz-adv-x="549" d="M 237 -12 L 166 55 L 207 98 C 227 119 248 141 269 165 C 289 188 308 211 325 234 C 342 257 357 279 369 301 C 381 323 389 343 393 362 C 381 340 362 321 335 304 C 307 286 276 278 241 278 C 206 278 175 284 148 296 C 120 308 97 324 78 345 C 59 365 45 390 35 419 C 25 447 20 478 20 511 C 20 543 25 573 37 602 C 49 630 65 655 86 677 C 107 698 133 715 163 728 C 193 740 227 747 264 747 C 299 747 332 741 362 729 C 392 717 419 699 441 677 C 463 655 481 628 494 596 C 507 564 514 529 514 491 C 514 449 508 409 497 370 C 486 331 471 294 453 258 C 434 222 412 187 386 154 C 360 120 333 88 305 58 L 237 -12 Z M 261 369 C 301 369 335 381 364 407 C 392 433 407 467 407 511 C 407 556 392 591 364 617 C 336 642 302 655 264 655 C 221 655 187 641 162 615 C 136 588 124 555 124 515 C 124 471 135 436 159 409 C 182 382 216 369 261 369 Z" unicode="9" />
<glyph horiz-adv-x="250" d="M 179 306 L 72 306 L 72 436 L 179 436 L 179 306 Z M 179 0 L 72 0 L 72 130 L 179 130 L 179 0 Z" unicode=":" />
<glyph horiz-adv-x="250" d="M 186 306 L 79 306 L 79 436 L 186 436 L 186 306 Z M 189 106 C 186 82 181 57 173 32 C 165 7 156 -16 146 -39 C 135 -61 123 -82 111 -100 C 98 -118 85 -133 72 -145 L -4 -110 C 4 -100 13 -88 23 -72 C 33 -56 42 -39 51 -20 C 59 0 67 19 74 41 C 81 63 86 84 88 106 L 189 106 Z" unicode=";" />
<glyph horiz-adv-x="422" d="M 369 84 L 50 293 L 50 354 L 369 565 L 369 459 L 163 325 L 369 190 L 369 84 Z" unicode="&#x3C;" />
<glyph horiz-adv-x="510" d="M 452 386 L 60 386 L 60 474 L 452 474 L 452 386 Z M 452 171 L 60 171 L 60 259 L 452 259 L 452 171 Z" unicode="=" />
<glyph horiz-adv-x="422" d="M 369 293 L 50 84 L 50 190 L 259 325 L 50 460 L 50 565 L 369 354 L 369 293 Z" unicode="&#x3E;" />
<glyph horiz-adv-x="458" d="M 164 209 C 164 248 170 282 183 310 C 196 338 215 366 240 394 C 250 404 260 415 270 426 C 280 437 290 449 299 461 C 308 473 315 487 321 501 C 327 515 330 531 330 549 C 330 579 318 604 295 622 C 271 640 243 649 211 649 C 182 649 156 642 133 628 C 109 614 90 596 76 576 L 11 640 C 37 674 70 699 110 716 C 150 733 191 742 232 742 C 296 742 346 724 383 690 C 419 655 438 611 438 558 C 438 532 434 510 427 490 C 419 470 410 452 399 436 C 387 419 375 403 361 389 C 347 374 333 359 319 345 C 299 326 285 304 278 279 C 271 253 267 230 267 209 L 164 209 Z M 160 0 L 160 114 L 275 114 L 275 0 L 160 0 Z" unicode="?" />
<glyph horiz-adv-x="844" d="M 410 -42 C 355 -42 305 -32 259 -12 C 213 8 173 35 140 69 C 107 103 81 143 63 189 C 45 235 36 285 36 337 C 36 389 45 439 64 485 C 82 531 108 572 142 606 C 175 640 215 666 261 686 C 307 706 358 716 414 716 C 470 716 522 707 569 691 C 616 674 656 650 689 620 C 722 590 748 553 766 510 C 784 467 793 420 793 369 C 793 324 787 286 777 255 C 766 223 752 198 736 179 C 720 159 702 145 683 137 C 664 128 646 124 630 124 C 599 124 574 131 554 145 C 534 159 521 176 516 198 C 506 181 487 164 461 148 C 435 132 403 124 366 124 C 315 124 277 136 253 161 C 228 186 216 218 216 256 C 216 278 221 297 231 315 C 241 333 255 348 273 360 C 290 372 311 382 335 388 C 359 394 386 398 414 398 L 505 398 L 505 408 C 505 438 497 459 481 471 C 465 483 442 489 412 489 C 386 489 363 485 342 479 C 320 473 302 466 288 460 L 259 530 C 278 539 301 547 328 553 C 355 559 383 563 411 563 C 467 563 510 549 542 523 C 574 497 590 454 590 394 L 590 247 C 590 233 593 220 599 209 C 605 197 617 192 636 192 C 644 192 653 194 663 199 C 673 204 682 213 690 226 C 698 238 705 256 711 278 C 716 300 719 329 719 364 C 719 404 712 442 698 477 C 684 511 663 541 637 566 C 611 591 579 611 541 625 C 503 639 461 646 414 646 C 369 646 328 638 291 622 C 254 606 222 584 196 556 C 169 528 148 496 134 458 C 119 420 112 380 112 338 C 112 296 119 256 134 218 C 148 180 169 148 196 120 C 222 92 254 69 291 53 C 328 36 369 28 413 28 C 433 28 454 30 475 34 C 495 38 517 45 540 56 L 567 -8 C 539 -20 513 -29 487 -34 C 461 -39 435 -42 410 -42 Z M 385 199 C 412 199 437 204 461 216 C 485 227 499 238 505 250 L 505 328 L 413 328 C 377 328 351 322 335 311 C 319 299 311 284 311 264 C 311 244 317 228 331 216 C 344 204 362 199 385 199 Z" unicode="@" />
<glyph horiz-adv-x="662" d="M 660 0 L 546 0 L 473 181 L 184 181 L 112 0 L 1 0 L 302 733 L 365 733 L 660 0 Z M 438 276 L 328 548 L 219 276 L 438 276 Z" unicode="A" />
<glyph horiz-adv-x="607" d="M 94 0 L 94 730 L 326 730 C 388 730 438 714 477 683 C 515 652 535 610 535 558 C 535 506 522 465 496 435 C 470 405 438 386 401 379 C 421 377 441 372 461 364 C 481 356 500 346 516 332 C 532 318 545 301 555 280 C 565 259 570 235 570 208 C 570 175 563 146 551 120 C 539 94 522 72 501 54 C 479 36 453 23 423 14 C 393 4 360 0 324 0 L 94 0 Z M 201 417 L 303 417 C 347 417 379 428 397 451 C 415 474 425 500 425 529 C 425 559 414 583 393 602 C 371 621 343 631 307 631 L 201 631 L 201 417 Z M 201 97 L 330 97 C 376 97 409 108 429 130 C 449 152 460 180 460 214 C 460 248 447 274 421 294 C 395 314 363 324 323 324 L 201 324 L 201 97 Z" unicode="B" />
<glyph horiz-adv-x="706" d="M 407 -12 C 357 -12 309 -3 265 13 C 221 30 182 55 150 87 C 118 119 92 158 74 205 C 55 252 46 305 46 365 C 46 419 55 469 73 515 C 91 561 116 601 148 635 C 180 668 218 694 263 713 C 307 732 356 742 409 742 C 475 742 530 732 575 714 C 619 696 657 671 688 640 L 621 549 C 600 573 572 594 538 611 C 504 628 462 637 413 637 C 372 637 336 630 304 616 C 272 602 246 583 225 559 C 203 535 187 506 176 472 C 165 438 160 401 160 361 C 160 315 167 274 181 240 C 195 206 213 177 236 155 C 259 132 286 115 317 104 C 347 93 379 88 413 88 C 465 88 509 98 546 118 C 583 138 614 163 638 193 L 701 121 C 669 81 628 49 578 25 C 528 0 471 -12 407 -12 Z" unicode="C" />
<glyph horiz-adv-x="752" d="M 94 0 L 94 730 L 321 730 C 381 730 435 721 483 704 C 531 687 571 663 604 633 C 636 602 661 565 679 521 C 696 477 705 429 705 377 C 705 324 696 274 679 228 C 661 182 636 142 603 108 C 569 74 528 48 478 29 C 428 9 370 0 305 0 L 94 0 Z M 204 98 L 303 98 C 351 98 394 105 430 119 C 466 133 496 153 520 178 C 543 202 560 232 572 266 C 584 300 590 336 590 374 C 590 450 565 511 517 559 C 469 606 402 630 317 630 L 204 630 L 204 98 Z" unicode="D" />
<glyph horiz-adv-x="587" d="M 537 0 L 94 0 L 94 730 L 518 730 L 518 631 L 203 631 L 203 410 L 502 410 L 502 310 L 203 310 L 203 99 L 537 99 L 537 0 Z" unicode="E" />
<glyph horiz-adv-x="513" d="M 474 631 L 203 631 L 203 410 L 459 410 L 459 311 L 203 311 L 203 0 L 94 0 L 94 730 L 474 730 L 474 631 Z" unicode="F" />
<glyph horiz-adv-x="768" d="M 424 375 L 724 375 L 724 149 C 698 102 658 63 606 33 C 553 3 489 -12 414 -12 C 361 -12 312 -2 267 16 C 221 34 182 60 150 94 C 118 127 92 167 74 213 C 55 259 46 310 46 365 C 46 423 56 475 76 522 C 96 568 122 608 156 640 C 190 672 229 697 274 715 C 319 733 367 742 417 742 C 454 742 487 738 515 732 C 543 725 567 717 588 707 C 608 697 626 686 641 674 C 655 662 668 650 678 639 L 605 565 C 587 581 563 597 533 613 C 502 629 462 637 413 637 C 375 637 341 630 310 617 C 278 603 251 584 229 560 C 207 536 189 507 177 474 C 164 440 158 404 158 364 C 158 326 164 291 177 257 C 189 223 207 193 230 168 C 253 142 281 122 313 107 C 345 92 381 85 420 85 C 468 85 510 94 547 113 C 584 131 611 155 628 184 L 628 272 L 424 272 L 424 375 Z" unicode="G" />
<glyph horiz-adv-x="768" d="M 674 0 L 564 0 L 564 308 L 204 308 L 204 0 L 94 0 L 94 730 L 204 730 L 204 412 L 564 412 L 564 730 L 674 730 L 674 0 Z" unicode="H" />
<glyph horiz-adv-x="307" d="M 209 0 L 99 0 L 99 730 L 209 730 L 209 0 Z" unicode="I" />
<glyph horiz-adv-x="385" d="M 315 730 L 315 196 C 315 168 310 141 302 116 C 293 90 280 68 263 50 C 246 31 225 16 199 5 C 173 -6 142 -12 108 -12 C 89 -12 72 -11 57 -9 C 41 -7 29 -5 20 -3 L 20 95 C 26 92 39 90 57 88 C 75 86 89 86 100 86 C 136 86 164 95 184 115 C 204 135 215 159 215 188 L 215 730 L 315 730 Z" unicode="J" />
<glyph horiz-adv-x="698" d="M 697 0 L 553 0 L 285 311 L 204 216 L 204 0 L 94 0 L 94 730 L 204 730 L 204 357 L 519 730 L 654 730 L 356 392 L 697 0 Z" unicode="K" />
<glyph horiz-adv-x="503" d="M 495 0 L 94 0 L 94 730 L 204 730 L 204 99 L 495 99 L 495 0 Z" unicode="L" />
<glyph horiz-adv-x="924" d="M 830 0 L 725 0 L 725 508 L 478 155 L 440 155 L 199 503 L 199 0 L 94 0 L 94 730 L 160 730 L 464 301 L 764 730 L 830 730 L 830 0 Z" unicode="M" />
<glyph horiz-adv-x="780" d="M 686 0 L 611 0 L 199 528 L 199 0 L 94 0 L 94 730 L 176 730 L 580 205 L 580 730 L 686 730 L 686 0 Z" unicode="N" />
<glyph horiz-adv-x="840" d="M 423 -12 C 365 -12 313 -2 267 16 C 220 35 180 61 148 95 C 115 129 90 169 72 216 C 54 263 46 314 46 370 C 46 422 55 470 75 516 C 94 562 120 601 153 635 C 186 668 225 694 270 713 C 315 732 363 742 415 742 C 470 742 521 733 568 715 C 614 697 654 671 688 639 C 721 606 747 567 766 521 C 784 475 794 424 794 368 C 794 312 784 260 764 214 C 744 167 718 127 684 94 C 650 60 611 34 566 16 C 520 -2 473 -12 423 -12 Z M 422 91 C 458 91 492 97 524 110 C 556 123 583 142 606 166 C 629 190 647 219 661 254 C 674 288 681 327 681 371 C 681 410 674 446 661 479 C 647 512 629 540 606 563 C 583 586 555 604 523 617 C 491 630 456 637 419 637 C 381 637 347 631 315 619 C 283 607 256 589 233 567 C 210 544 192 516 179 482 C 166 448 160 410 160 367 C 160 323 166 283 180 249 C 194 215 212 186 236 163 C 260 139 288 121 320 109 C 352 97 386 91 422 91 Z" unicode="O" />
<glyph horiz-adv-x="597" d="M 94 0 L 94 730 L 340 730 C 407 730 462 710 505 672 C 547 634 569 581 569 513 C 569 480 563 450 553 422 C 542 394 527 371 507 351 C 487 331 464 315 436 303 C 408 291 376 286 342 286 L 204 286 L 204 0 L 94 0 Z M 204 386 L 324 386 C 366 386 399 397 423 421 C 446 445 458 475 458 513 C 458 551 444 580 417 600 C 389 620 356 630 316 630 L 204 630 L 204 386 Z" unicode="P" />
<glyph horiz-adv-x="829" d="M 706 -61 L 706 -168 C 638 -166 577 -151 523 -122 C 469 -92 430 -54 406 -8 C 351 -6 301 4 257 24 C 212 43 174 69 143 102 C 112 135 88 174 71 220 C 54 266 46 316 46 370 C 46 422 55 470 75 516 C 94 562 120 601 153 635 C 186 668 225 694 271 713 C 316 732 364 742 416 742 C 471 742 522 733 568 715 C 614 697 654 671 688 638 C 721 605 747 565 766 519 C 784 473 794 421 794 365 C 794 322 787 281 775 243 C 763 205 745 170 723 139 C 700 108 673 81 641 59 C 609 36 574 19 536 8 C 554 -13 579 -30 609 -42 C 639 -54 672 -60 706 -61 Z M 422 94 C 458 94 492 100 524 113 C 556 125 583 144 606 168 C 629 192 647 221 661 256 C 674 290 681 329 681 373 C 681 413 674 450 660 483 C 646 515 628 543 605 566 C 581 588 554 606 522 618 C 490 630 455 637 419 637 C 381 637 347 631 315 619 C 283 607 256 589 233 567 C 210 544 192 516 179 482 C 166 448 160 410 160 367 C 160 323 166 285 180 251 C 194 217 212 188 236 165 C 260 142 288 124 320 112 C 352 100 386 94 422 94 Z" unicode="Q" />
<glyph horiz-adv-x="629" d="M 94 0 L 94 730 L 318 730 C 348 730 377 725 403 716 C 429 707 452 694 471 677 C 490 659 505 638 516 613 C 527 587 533 559 533 527 C 533 493 528 464 519 439 C 510 414 498 393 484 376 C 469 359 452 346 433 336 C 414 326 395 321 375 319 L 372 316 L 603 0 L 475 0 L 265 291 L 203 291 L 203 0 L 94 0 Z M 203 387 L 295 387 C 332 387 363 398 387 420 C 411 442 423 473 423 513 C 423 547 411 575 387 597 C 363 619 333 630 297 630 L 203 630 L 203 387 Z" unicode="R" />
<glyph horiz-adv-x="500" d="M 263 -12 C 211 -12 165 -4 124 12 C 82 28 48 50 21 79 L 84 163 C 102 141 128 123 160 109 C 192 95 224 88 258 88 C 292 88 319 97 341 116 C 362 134 373 159 373 189 C 373 215 362 238 342 258 C 321 278 287 298 239 319 C 184 342 138 371 102 407 C 65 442 47 492 47 556 C 47 610 65 654 103 689 C 141 724 191 742 253 742 C 293 742 329 736 362 724 C 395 712 425 696 452 675 L 400 587 C 380 603 358 617 335 627 C 311 637 287 642 262 642 C 228 642 201 633 181 615 C 161 597 152 576 152 552 C 152 524 161 501 181 483 C 201 465 241 443 301 418 C 363 391 408 360 436 325 C 464 289 479 245 479 191 C 479 159 473 130 461 105 C 449 79 433 58 413 41 C 393 23 371 10 345 1 C 319 -7 291 -12 263 -12 Z" unicode="S" />
<glyph horiz-adv-x="540" d="M 530 631 L 322 631 L 322 0 L 212 0 L 212 631 L 10 631 L 10 730 L 530 730 L 530 631 Z" unicode="T" />
<glyph horiz-adv-x="743" d="M 657 730 L 657 266 C 657 222 649 183 634 149 C 619 114 599 85 574 61 C 548 37 518 19 483 7 C 448 -5 411 -12 371 -12 C 331 -12 294 -6 260 6 C 225 18 195 35 169 59 C 143 83 123 112 108 147 C 93 181 86 221 86 266 L 86 730 L 193 730 L 193 259 C 193 209 210 169 244 137 C 278 105 319 90 369 90 C 394 90 418 94 440 102 C 462 110 481 121 497 136 C 513 150 526 168 536 189 C 545 210 550 233 550 259 L 550 730 L 657 730 Z" unicode="U" />
<glyph horiz-adv-x="664" d="M 665 730 L 361 -5 L 298 -5 L 1 730 L 116 730 L 335 182 L 552 730 L 665 730 Z" unicode="V" />
<glyph horiz-adv-x="926" d="M 922 730 L 693 -8 L 635 -8 L 464 527 L 287 -8 L 229 -8 L 5 730 L 114 730 L 264 217 L 439 730 L 498 730 L 667 217 L 820 730 L 922 730 Z" unicode="W" />
<glyph horiz-adv-x="618" d="M 485 0 L 308 282 L 129 0 L 10 0 L 249 377 L 28 730 L 150 730 L 310 474 L 473 730 L 592 730 L 370 379 L 607 0 L 485 0 Z" unicode="X" />
<glyph horiz-adv-x="654" d="M 653 730 L 379 325 L 379 0 L 269 0 L 269 329 L 0 730 L 124 730 L 330 426 L 534 730 L 653 730 Z" unicode="Y" />
<glyph horiz-adv-x="597" d="M 556 730 L 556 684 L 169 99 L 569 99 L 569 0 L 15 0 L 15 44 L 399 631 L 44 631 L 44 730 L 556 730 Z" unicode="Z" />
<glyph horiz-adv-x="300" d="M 262 -179 L 71 -179 L 71 730 L 262 730 L 262 642 L 168 642 L 168 -91 L 262 -91 L 262 -179 Z" unicode="[" />
<glyph horiz-adv-x="328" d="M 2 730 L 93 730 L 327 0 L 234 0 L 2 730 Z" unicode="\" />
<glyph horiz-adv-x="300" d="M 229 -179 L 38 -179 L 38 -91 L 132 -91 L 132 642 L 38 642 L 38 730 L 229 730 L 229 -179 Z" unicode="]" />
<glyph horiz-adv-x="511" d="M 445 369 L 356 369 L 255 621 L 158 369 L 71 369 L 212 730 L 299 730 L 445 369 Z" unicode="^" />
<glyph horiz-adv-x="500" d="M 500 -170 L 0 -170 L 0 -78 L 500 -78 L 500 -170 Z" unicode="_" />
<glyph horiz-adv-x="500" d="M 356 497 L 253 497 L 130 660 L 250 660 L 356 497 Z" unicode="`" />
<glyph horiz-adv-x="476" d="M 421 0 L 326 0 L 326 56 C 313 39 294 23 270 9 C 246 -4 216 -12 180 -12 C 125 -12 84 1 58 29 C 32 56 19 90 19 132 C 19 178 36 214 72 240 C 108 266 159 281 227 285 L 322 290 L 322 300 C 322 321 314 337 299 349 C 283 361 261 367 233 367 C 204 367 178 362 154 352 C 130 342 112 332 100 323 L 57 393 C 73 405 96 418 127 430 C 158 442 197 448 243 448 C 294 448 336 435 370 411 C 404 387 421 348 421 295 L 421 0 Z M 324 121 L 324 214 L 233 210 C 197 208 169 200 149 188 C 129 175 119 158 119 137 C 119 116 126 100 140 89 C 154 78 173 73 197 73 C 225 73 251 78 275 89 C 298 99 314 110 324 121 Z" unicode="a" />
<glyph horiz-adv-x="544" d="M 315 -6 C 272 -6 237 2 210 19 C 183 35 165 54 157 75 L 157 0 L 61 0 L 61 730 L 160 730 L 160 367 C 167 384 184 402 212 420 C 239 438 273 448 313 448 C 343 448 371 442 396 431 C 421 420 442 405 460 385 C 478 365 491 342 501 315 C 511 288 516 259 516 227 C 516 192 510 160 499 131 C 488 102 473 78 455 58 C 437 38 415 22 391 11 C 367 0 341 -6 315 -6 Z M 287 72 C 324 72 354 85 377 112 C 399 138 411 175 411 221 C 411 263 400 298 379 326 C 357 354 326 368 285 368 C 251 368 222 355 197 329 C 172 303 160 266 160 218 C 160 172 173 136 199 110 C 225 84 254 72 287 72 Z" unicode="b" />
<glyph horiz-adv-x="463" d="M 373 145 L 458 98 C 442 70 418 44 386 22 C 354 0 310 -11 255 -11 C 221 -11 189 -5 161 6 C 133 18 109 34 89 54 C 69 74 54 98 44 126 C 33 154 28 185 28 218 C 28 251 34 282 46 310 C 58 338 74 363 95 383 C 115 403 140 419 168 431 C 196 443 227 449 260 449 C 313 449 356 437 390 415 C 423 392 447 367 461 341 L 366 294 C 356 312 342 327 325 339 C 307 351 285 357 259 357 C 222 357 192 343 168 317 C 144 290 133 257 133 217 C 133 176 144 143 168 117 C 191 91 222 79 260 79 C 292 79 317 86 334 101 C 351 115 364 130 373 145 Z" unicode="c" />
<glyph horiz-adv-x="541" d="M 235 -7 C 204 -7 176 -1 151 10 C 125 21 103 36 85 56 C 67 76 53 99 43 125 C 33 151 28 179 28 209 C 28 244 33 276 44 306 C 55 336 70 361 90 382 C 109 403 131 419 157 431 C 183 443 210 449 239 449 C 275 449 305 441 329 427 C 353 413 371 397 381 381 L 381 730 L 480 730 L 480 0 L 385 0 L 385 78 C 376 57 359 38 333 20 C 307 2 275 -7 235 -7 Z M 262 73 C 294 73 323 86 348 113 C 372 140 385 177 385 223 C 385 272 372 308 346 332 C 320 355 290 367 257 367 C 220 367 190 353 167 326 C 144 299 133 264 133 220 C 133 179 144 144 166 116 C 188 87 220 73 262 73 Z" unicode="d" />
<glyph horiz-adv-x="500" d="M 270 -11 C 235 -11 203 -5 173 4 C 143 14 118 29 97 48 C 75 67 59 91 47 119 C 35 147 29 178 29 214 C 29 246 34 277 46 306 C 57 334 73 359 93 381 C 113 402 138 419 167 431 C 196 443 228 449 263 449 C 330 449 384 426 426 381 C 467 336 488 271 488 187 L 124 187 C 126 153 140 126 165 105 C 189 83 224 73 270 73 C 308 73 336 78 356 90 C 376 102 391 114 401 126 L 464 66 C 445 45 422 27 394 12 C 366 -3 325 -11 270 -11 Z M 128 266 L 390 266 C 388 292 375 315 353 335 C 331 355 300 365 260 365 C 222 365 191 355 167 335 C 143 315 130 292 128 266 Z" unicode="e" />
<glyph horiz-adv-x="307" d="M 301 345 L 200 345 L 200 0 L 99 0 L 99 345 L 16 345 L 16 436 L 99 436 L 99 557 C 99 588 103 615 112 638 C 120 660 132 679 147 693 C 161 707 178 718 198 725 C 217 732 237 736 258 736 C 269 736 280 735 291 734 C 302 732 311 731 318 729 L 316 629 C 312 630 306 631 300 632 C 293 633 285 634 276 634 C 256 634 238 626 223 612 C 207 597 200 577 200 551 L 200 436 L 301 436 L 301 345 Z" unicode="f" />
<glyph horiz-adv-x="541" d="M 233 -2 C 202 -2 174 3 149 14 C 123 25 102 40 84 60 C 66 80 53 103 43 130 C 33 157 28 187 28 219 C 28 287 47 342 87 385 C 126 427 176 449 237 449 C 272 449 303 441 330 427 C 356 412 375 396 385 378 L 385 436 L 480 436 L 480 34 C 480 -4 474 -37 462 -65 C 450 -93 433 -117 413 -135 C 392 -153 368 -167 340 -176 C 312 -185 281 -190 249 -190 C 199 -190 159 -184 131 -174 C 102 -164 80 -154 66 -144 L 104 -65 C 115 -74 132 -84 154 -94 C 176 -104 205 -109 239 -109 C 257 -109 275 -106 292 -102 C 309 -97 324 -90 337 -80 C 350 -70 361 -58 369 -43 C 377 -28 381 -10 381 10 L 381 75 C 372 54 354 36 327 21 C 300 5 269 -2 233 -2 Z M 261 73 C 295 73 325 86 349 114 C 373 142 385 178 385 222 C 385 265 372 300 347 327 C 321 354 290 368 252 368 C 219 368 191 354 168 327 C 144 300 133 264 133 219 C 133 176 144 141 167 114 C 190 86 221 73 261 73 Z" unicode="g" />
<glyph horiz-adv-x="530" d="M 475 0 L 374 0 L 374 277 C 374 305 365 328 347 344 C 329 360 306 368 276 368 C 246 368 220 358 197 339 C 173 320 162 292 162 256 L 162 0 L 61 0 L 61 730 L 157 730 L 157 357 C 165 381 183 403 210 421 C 237 439 272 449 315 449 C 363 449 401 435 431 407 C 460 379 475 342 475 294 L 475 0 Z" unicode="h" />
<glyph horiz-adv-x="235" d="M 65 529 L 65 633 L 170 633 L 170 529 L 65 529 Z M 67 0 L 67 436 L 168 436 L 168 0 L 67 0 Z" unicode="i" />
<glyph horiz-adv-x="223" d="M 165 529 L 59 529 L 59 633 L 165 633 L 165 529 Z M 163 436 L 163 -65 C 163 -101 151 -133 128 -161 C 104 -189 71 -202 28 -202 C 18 -202 7 -201 -6 -200 C -19 -198 -29 -197 -36 -195 L -34 -111 C -30 -111 -25 -112 -17 -113 C -9 -113 -2 -114 4 -114 C 20 -114 33 -108 44 -97 C 55 -86 61 -70 61 -50 L 61 436 L 163 436 Z" unicode="j" />
<glyph horiz-adv-x="496" d="M 513 0 L 391 0 L 239 188 L 161 107 L 161 0 L 61 0 L 61 730 L 157 730 L 157 216 L 356 436 L 474 436 L 304 256 L 513 0 Z" unicode="k" />
<glyph horiz-adv-x="224" d="M 163 730 L 163 0 L 61 0 L 61 730 L 163 730 Z" unicode="l" />
<glyph horiz-adv-x="838" d="M 61 0 L 61 436 L 159 436 L 159 364 C 167 386 185 406 213 423 C 241 440 276 449 317 449 C 351 449 380 441 405 426 C 429 411 445 390 453 363 L 458 363 C 468 389 487 409 516 425 C 545 441 580 449 620 449 C 670 449 709 434 739 406 C 768 378 783 341 783 295 L 783 0 L 683 0 L 683 276 C 683 304 674 326 658 343 C 641 359 617 368 586 368 C 572 368 558 365 545 361 C 531 356 519 349 508 340 C 497 330 488 318 482 304 C 475 290 472 273 472 254 L 472 0 L 372 0 L 372 276 C 372 304 363 326 347 343 C 330 359 306 368 275 368 C 243 368 216 357 194 337 C 172 317 161 289 161 253 L 161 0 L 61 0 Z" unicode="m" />
<glyph horiz-adv-x="530" d="M 475 0 L 374 0 L 374 277 C 374 304 365 326 348 343 C 331 359 307 368 275 368 C 245 368 218 358 196 339 C 173 320 162 291 162 251 L 162 0 L 61 0 L 61 436 L 159 436 L 159 366 C 169 390 189 409 217 425 C 245 441 277 449 313 449 C 362 449 401 434 431 406 C 460 378 475 341 475 295 L 475 0 Z" unicode="n" />
<glyph horiz-adv-x="530" d="M 262 -11 C 232 -11 204 -5 176 4 C 148 14 123 29 101 49 C 79 69 61 93 48 121 C 34 149 28 181 28 217 C 28 249 34 279 47 307 C 59 335 76 360 97 381 C 118 401 143 418 171 430 C 199 442 229 449 260 449 C 292 449 322 443 352 433 C 381 423 407 408 429 389 C 451 369 468 346 482 319 C 495 292 502 262 502 229 C 502 194 495 162 483 133 C 470 103 453 78 431 57 C 409 35 384 19 355 7 C 325 -5 294 -11 262 -11 Z M 265 77 C 303 77 334 90 359 116 C 384 142 397 178 397 224 C 397 262 384 295 359 321 C 334 347 300 361 256 361 C 222 361 193 348 169 323 C 145 297 133 263 133 219 C 133 173 145 137 171 113 C 196 89 227 77 265 77 Z" unicode="o" />
<glyph horiz-adv-x="544" d="M 61 -200 L 61 436 L 157 436 L 157 363 C 165 383 184 402 213 420 C 241 438 276 448 318 448 C 346 448 373 442 397 431 C 421 420 442 405 460 385 C 478 365 491 342 501 315 C 511 287 516 258 516 227 C 516 189 510 156 498 127 C 486 98 470 74 451 54 C 432 34 411 19 388 9 C 364 0 341 -6 319 -6 C 279 -6 244 1 216 17 C 187 33 168 50 160 69 L 160 -200 L 61 -200 Z M 293 72 C 326 72 354 85 377 111 C 399 137 411 173 411 219 C 411 261 400 297 378 325 C 356 353 325 368 285 368 C 251 368 221 355 197 329 C 172 303 160 265 160 215 C 160 165 173 129 200 106 C 227 83 258 72 293 72 Z" unicode="p" />
<glyph horiz-adv-x="541" d="M 381 -200 L 381 72 C 371 52 353 33 328 17 C 303 1 272 -7 235 -7 C 204 -7 176 -1 151 9 C 125 20 104 35 86 55 C 68 75 54 98 44 125 C 34 152 29 182 29 214 C 29 248 34 279 46 308 C 58 337 73 362 92 383 C 111 403 133 419 159 431 C 184 443 210 449 238 449 C 274 449 304 441 330 426 C 355 411 372 395 381 379 L 381 436 L 480 436 L 480 -200 L 381 -200 Z M 260 73 C 276 73 291 76 306 83 C 321 90 334 100 346 113 C 358 126 367 142 374 161 C 381 179 385 200 385 224 C 385 272 372 307 347 331 C 321 355 292 367 259 367 C 219 367 188 353 166 327 C 144 301 134 267 134 225 C 134 181 144 145 166 116 C 188 87 219 73 260 73 Z" unicode="q" />
<glyph horiz-adv-x="392" d="M 388 418 L 349 333 C 333 345 317 352 303 356 C 288 359 275 361 263 361 C 238 361 215 351 194 331 C 172 311 162 285 162 251 L 162 0 L 61 0 L 61 436 L 159 436 L 159 365 C 161 373 166 381 174 391 C 181 401 190 410 202 418 C 214 426 227 433 243 439 C 258 445 275 448 294 448 C 313 448 331 445 347 440 C 363 434 377 427 388 418 Z" unicode="r" />
<glyph horiz-adv-x="388" d="M 205 -12 C 164 -12 129 -7 99 3 C 69 13 44 27 24 45 L 76 115 C 90 102 109 92 131 85 C 153 77 178 74 204 74 C 224 74 240 78 251 86 C 261 94 267 106 267 120 C 267 134 259 146 244 155 C 228 163 204 172 172 181 C 129 193 95 209 71 230 C 47 251 35 280 35 316 C 35 355 50 387 80 411 C 110 435 148 448 195 448 C 227 448 257 443 285 433 C 312 423 333 411 348 399 L 299 332 C 287 340 272 347 254 355 C 235 362 215 366 194 366 C 178 366 163 363 149 358 C 135 352 129 343 129 331 C 129 320 133 311 142 305 C 151 298 174 289 211 278 C 257 264 293 246 320 225 C 347 203 361 172 361 130 C 361 86 346 51 318 26 C 290 0 252 -12 205 -12 Z" unicode="s" />
<glyph horiz-adv-x="266" d="M 255 82 L 255 -3 C 253 -3 247 -4 238 -5 C 229 -5 219 -6 207 -6 C 191 -6 174 -4 157 0 C 140 3 125 9 112 19 C 98 28 87 40 79 56 C 70 72 66 91 66 115 L 66 345 L 8 345 L 8 436 L 66 436 L 66 537 L 167 550 L 167 436 L 249 436 L 249 345 L 167 345 L 167 137 C 167 114 172 99 184 91 C 195 83 210 80 230 80 C 232 80 237 80 244 80 C 251 80 255 81 255 82 Z" unicode="t" />
<glyph horiz-adv-x="531" d="M 56 436 L 156 436 L 156 160 C 156 132 165 110 183 95 C 201 79 225 72 255 72 C 286 72 313 81 335 100 C 357 118 369 146 369 182 L 369 436 L 469 436 L 469 0 L 371 0 L 371 76 C 356 50 335 29 307 14 C 279 -1 247 -9 213 -9 C 169 -9 131 4 101 32 C 71 59 56 97 56 147 L 56 436 Z" unicode="u" />
<glyph horiz-adv-x="476" d="M 481 436 L 261 -3 L 208 -3 L -5 436 L 106 436 L 241 144 L 376 436 L 481 436 Z" unicode="v" />
<glyph horiz-adv-x="672" d="M 448 -3 L 337 271 L 222 -3 L 166 -3 L 6 436 L 112 436 L 207 151 L 313 409 L 368 409 L 472 151 L 569 436 L 665 436 L 505 -3 L 448 -3 Z" unicode="w" />
<glyph horiz-adv-x="433" d="M 311 0 L 214 147 L 111 0 L 4 0 L 161 226 L 22 436 L 138 436 L 221 311 L 308 436 L 415 436 L 273 232 L 426 0 L 311 0 Z" unicode="x" />
<glyph horiz-adv-x="482" d="M 482 436 L 224 -89 C 201 -135 175 -165 147 -179 C 119 -193 93 -200 70 -200 C 55 -200 42 -198 31 -195 C 19 -192 11 -190 6 -188 L 33 -94 C 35 -95 41 -97 49 -99 C 57 -101 64 -103 72 -103 C 86 -103 100 -98 112 -90 C 124 -81 136 -64 149 -40 L 190 42 L -4 436 L 107 436 L 241 139 L 377 436 L 482 436 Z" unicode="y" />
<glyph horiz-adv-x="390" d="M 375 436 L 375 389 L 165 90 L 379 90 L 379 0 L 10 0 L 10 28 L 230 346 L 23 346 L 23 436 L 375 436 Z" unicode="z" />
<glyph horiz-adv-x="336" d="M 300 -179 C 232 -179 176 -164 133 -134 C 90 -104 69 -68 69 -26 C 69 0 71 24 77 46 C 83 67 89 85 97 101 C 104 117 111 133 118 147 C 125 161 129 175 129 188 C 129 202 120 215 102 228 C 84 241 60 248 30 248 L 30 323 C 60 323 85 330 104 344 C 122 358 132 373 132 391 C 132 393 128 403 121 419 C 113 435 105 453 97 472 C 88 490 81 509 77 527 C 72 545 70 563 70 580 C 70 601 75 622 86 642 C 97 662 113 680 133 696 C 153 712 177 724 206 734 C 234 744 266 749 300 749 L 300 675 C 262 675 231 665 208 645 C 185 625 174 601 174 574 C 174 565 175 554 178 540 C 180 526 185 513 192 499 C 202 478 212 459 220 442 C 228 424 232 410 232 398 C 232 372 223 349 207 329 C 190 308 163 293 125 285 C 163 276 191 261 207 241 C 223 220 232 198 232 176 C 232 157 228 141 221 127 C 213 113 206 99 198 85 C 190 71 183 56 179 40 C 175 24 173 9 173 -4 C 173 -14 175 -26 181 -38 C 187 -50 195 -61 206 -71 C 216 -81 230 -89 246 -95 C 262 -101 280 -105 300 -105 L 300 -179 Z" unicode="{" />
<glyph horiz-adv-x="261" d="M 178 -179 L 83 -179 L 83 730 L 178 730 L 178 -179 Z" unicode="|" />
<glyph horiz-adv-x="336" d="M 36 -179 L 36 -105 C 56 -105 74 -101 90 -95 C 106 -89 119 -81 130 -71 C 140 -61 148 -50 154 -38 C 160 -26 163 -14 163 -4 C 163 9 160 24 156 40 C 152 56 146 71 138 85 C 130 99 123 113 115 127 C 107 141 104 157 104 176 C 104 198 112 220 128 241 C 144 261 172 276 211 285 C 173 293 145 308 129 329 C 112 349 104 372 104 398 C 104 410 108 424 116 442 C 124 459 133 478 144 499 C 150 513 155 526 158 540 C 160 554 162 565 162 574 C 162 601 150 625 127 645 C 104 665 74 675 36 675 L 36 749 C 70 749 101 744 130 734 C 158 724 183 712 203 696 C 223 680 238 662 249 642 C 260 622 266 601 266 580 C 266 563 263 545 259 527 C 254 509 247 490 239 472 C 230 453 222 435 215 419 C 207 403 204 393 204 391 C 204 373 213 358 232 344 C 251 330 276 323 307 323 L 307 248 C 276 248 252 241 234 228 C 216 215 207 202 207 188 C 207 175 210 161 217 147 C 224 133 231 117 239 101 C 246 85 252 67 258 46 C 264 24 267 0 267 -26 C 267 -68 245 -104 202 -134 C 159 -164 104 -179 36 -179 Z" unicode="}" />
<glyph horiz-adv-x="500" d="M 382 442 L 470 442 C 470 380 460 335 442 306 C 423 277 395 263 358 263 C 334 263 313 267 296 276 C 278 284 263 294 251 304 C 237 314 224 322 210 330 C 196 338 182 342 168 342 C 154 342 143 335 133 322 C 123 309 118 290 118 266 L 31 266 C 31 328 40 373 60 403 C 80 432 103 447 131 447 C 158 447 182 442 202 434 C 222 426 241 415 259 403 C 271 393 284 384 298 376 C 311 368 326 364 343 364 C 360 364 371 370 375 384 C 379 397 382 416 382 442 Z" unicode="~" />
<glyph horiz-adv-x="310" d="M 100 574 L 211 574 L 211 452 L 100 452 L 100 574 Z M 94 139 L 130 359 L 183 359 L 216 139 L 216 -137 L 94 -137 L 94 139 Z" unicode="¡" />
<glyph horiz-adv-x="577" d="M 560 186 C 541 159 516 133 485 108 C 453 82 411 67 359 62 L 359 -49 L 272 -49 L 272 64 C 206 74 152 102 110 150 C 68 198 47 258 47 332 C 47 403 68 464 110 514 C 152 564 206 595 272 606 L 272 711 L 359 711 L 359 609 C 411 603 453 587 487 561 C 521 534 545 504 559 472 L 475 434 C 463 454 448 472 429 488 C 409 504 386 515 359 521 L 359 150 C 392 155 418 167 438 185 C 458 203 473 221 485 239 L 560 186 Z M 148 336 C 148 290 159 250 181 218 C 203 186 234 164 272 154 L 272 518 C 234 507 203 485 181 451 C 159 417 148 379 148 336 Z" unicode="¢" />
<glyph horiz-adv-x="588" d="M 579 91 L 579 0 L 15 0 L 15 61 C 21 64 31 67 46 71 C 61 75 83 79 112 84 C 138 88 162 99 182 116 C 202 132 212 155 212 183 C 212 187 211 192 210 198 C 209 204 208 209 207 215 L 31 215 L 31 289 L 169 289 C 163 297 157 306 151 316 C 145 326 139 336 133 346 L 31 346 L 31 421 L 94 421 C 86 439 79 459 74 480 C 69 500 67 522 67 545 C 67 581 74 612 88 638 C 102 663 120 683 144 699 C 167 714 194 725 225 732 C 256 738 288 742 322 742 C 378 742 429 733 475 715 C 521 697 555 679 576 663 L 516 575 C 498 588 471 603 436 619 C 401 635 363 643 323 643 C 304 643 286 641 268 637 C 250 633 235 626 221 617 C 207 608 196 596 188 581 C 180 566 176 548 176 526 C 176 508 179 490 185 472 C 191 454 199 437 209 421 L 497 421 L 497 346 L 254 346 C 260 336 265 327 271 317 C 277 307 282 298 287 289 L 497 289 L 497 215 L 303 215 C 300 181 289 153 271 132 C 253 111 233 97 212 91 L 579 91 Z" unicode="£" />
<glyph horiz-adv-x="502" d="M 442 194 L 396 148 L 341 206 C 327 199 313 193 298 189 C 282 185 266 183 250 183 C 233 183 217 185 202 189 C 187 193 173 198 160 206 L 104 148 L 56 196 L 108 250 C 97 264 88 280 82 298 C 75 316 72 334 72 354 C 72 374 75 392 82 410 C 88 428 97 444 109 459 L 56 513 L 102 559 L 159 501 C 171 508 185 514 201 518 C 217 522 233 525 250 525 C 266 525 283 522 299 518 C 315 514 329 508 343 500 L 401 560 L 447 513 L 393 457 C 403 442 412 426 418 409 C 424 391 428 373 428 354 C 428 334 424 315 418 297 C 411 279 402 262 390 248 L 442 194 Z M 250 257 C 278 257 302 266 322 286 C 342 306 353 328 353 354 C 353 380 342 402 322 422 C 302 441 278 451 250 451 C 221 451 197 441 177 422 C 157 402 148 380 148 354 C 148 328 157 306 177 286 C 197 266 221 257 250 257 Z" unicode="¤" />
<glyph horiz-adv-x="665" d="M 574 128 L 380 128 L 380 0 L 270 0 L 270 128 L 86 128 L 86 207 L 270 207 L 270 263 L 86 263 L 86 342 L 269 342 L 33 730 L 155 730 L 331 437 L 507 730 L 623 730 L 384 342 L 574 342 L 574 263 L 380 263 L 380 207 L 574 207 L 574 128 Z" unicode="¥" />
<glyph horiz-adv-x="281" d="M 97 351 L 97 730 L 185 730 L 185 351 L 97 351 Z M 185 200 L 185 -179 L 97 -179 L 97 200 L 185 200 Z" unicode="¦" />
<glyph horiz-adv-x="676" d="M 356 -181 C 297 -181 242 -174 192 -161 C 141 -147 99 -129 65 -107 L 109 -22 C 141 -43 180 -61 225 -75 C 270 -89 312 -97 351 -97 C 386 -97 415 -89 438 -73 C 461 -57 473 -34 473 -6 C 473 20 463 40 443 54 C 423 68 396 81 364 94 L 244 143 C 212 155 185 167 161 178 C 137 189 116 201 100 214 C 84 227 71 242 63 260 C 55 277 51 298 51 323 C 51 353 58 379 74 399 C 90 419 109 437 132 451 C 112 463 98 479 89 499 C 80 519 76 543 76 573 C 76 599 82 623 95 644 C 107 665 125 683 147 697 C 169 711 196 722 227 730 C 257 738 291 742 327 742 C 390 742 442 733 482 717 C 522 700 556 682 584 664 L 539 586 C 508 605 476 622 442 638 C 408 653 368 661 324 661 C 284 661 250 653 224 637 C 197 621 184 600 184 573 C 184 553 191 537 206 524 C 220 510 242 498 272 488 L 433 427 C 495 405 542 381 575 357 C 607 332 624 296 624 250 C 624 213 612 184 588 162 C 564 140 536 126 506 119 C 521 110 538 95 556 75 C 574 54 583 27 583 -7 C 583 -34 577 -58 565 -80 C 553 -102 538 -120 518 -135 C 498 -149 474 -161 446 -169 C 418 -177 388 -181 356 -181 Z M 432 171 C 453 173 473 179 491 190 C 509 201 518 218 518 241 C 518 263 507 281 486 297 C 464 313 427 330 373 349 L 222 408 C 203 400 187 390 175 379 C 162 368 156 352 156 332 C 156 307 167 287 189 273 C 211 259 249 241 303 221 L 432 171 Z" unicode="§" />
<glyph horiz-adv-x="500" d="M 387 498 L 301 498 L 301 657 L 387 657 L 387 498 Z M 199 498 L 113 498 L 113 657 L 199 657 L 199 498 Z" unicode="¨" />
<glyph horiz-adv-x="828" d="M 413 5 C 362 5 314 14 270 34 C 225 53 186 79 153 113 C 119 146 93 185 74 230 C 54 275 45 323 45 374 C 45 424 54 472 74 517 C 93 561 119 600 153 634 C 186 667 225 693 270 713 C 314 732 362 742 413 742 C 463 742 511 732 557 713 C 602 693 641 667 675 634 C 708 600 734 561 754 517 C 773 472 783 424 783 374 C 783 323 773 275 754 230 C 734 185 708 146 675 113 C 641 79 602 53 557 34 C 511 14 463 5 413 5 Z M 413 72 C 453 72 492 80 529 96 C 565 112 597 133 624 160 C 650 187 672 219 688 256 C 704 292 712 331 712 373 C 712 413 704 452 688 489 C 672 525 650 557 624 585 C 597 612 565 634 529 650 C 492 666 453 674 413 674 C 371 674 332 666 296 650 C 260 634 228 612 202 585 C 175 557 154 525 138 489 C 122 452 115 413 115 373 C 115 331 122 292 138 256 C 154 219 175 187 202 160 C 228 133 260 112 296 96 C 332 80 371 72 413 72 Z M 586 247 C 569 222 546 201 518 184 C 490 167 455 159 413 159 C 386 159 360 163 336 173 C 312 182 290 196 272 214 C 253 232 238 255 227 282 C 215 309 210 340 210 375 C 210 409 215 441 225 469 C 235 497 249 520 267 540 C 285 559 306 574 330 584 C 354 594 380 600 408 600 C 452 600 488 592 516 577 C 544 561 565 542 581 518 L 509 466 C 499 479 486 490 471 500 C 455 510 435 515 411 515 C 379 515 353 501 333 474 C 312 447 302 413 302 373 C 302 330 313 297 336 274 C 359 250 385 239 414 239 C 436 239 456 244 473 254 C 490 264 504 277 515 294 L 586 247 Z" unicode="©" />
<glyph horiz-adv-x="426" d="M 388 348 L 309 348 L 309 400 C 295 381 275 367 250 357 C 225 347 198 343 170 343 C 128 343 95 353 71 375 C 47 396 35 426 35 464 C 35 505 51 537 85 559 C 119 581 165 594 224 598 L 303 603 L 303 607 C 303 623 295 637 280 647 C 265 657 244 662 217 662 C 194 662 172 657 150 649 C 128 641 109 631 91 621 L 60 690 C 80 704 105 717 135 727 C 164 737 197 743 235 743 C 282 743 319 732 347 710 C 374 688 388 654 388 606 L 388 348 Z M 306 462 L 306 538 L 218 533 C 190 531 167 526 149 518 C 131 510 123 494 123 472 C 123 454 130 441 145 431 C 159 421 178 416 201 416 C 221 416 241 420 261 428 C 280 436 295 447 306 462 Z M 400 226 L 41 226 L 41 308 L 400 308 L 400 226 Z" unicode="ª" />
<glyph horiz-adv-x="465" d="M 213 67 L 27 236 L 27 313 L 213 480 L 213 372 L 115 272 L 213 178 L 213 67 Z M 436 67 L 249 236 L 249 313 L 436 480 L 436 372 L 338 272 L 436 179 L 436 67 Z" unicode="«" />
<glyph horiz-adv-x="500" d="M 452 391 L 452 130 L 366 130 L 366 303 L 30 303 L 30 391 L 452 391 Z" unicode="¬" />
<glyph horiz-adv-x="828" d="M 413 5 C 362 5 314 14 270 34 C 225 53 186 79 153 113 C 119 146 93 185 74 230 C 54 275 45 323 45 374 C 45 424 54 472 74 517 C 93 561 119 600 153 634 C 186 667 225 693 270 713 C 314 732 362 742 413 742 C 463 742 511 732 557 713 C 602 693 641 667 675 634 C 708 600 734 561 754 517 C 773 472 783 424 783 374 C 783 323 773 275 754 230 C 734 185 708 146 675 113 C 641 79 602 53 557 34 C 511 14 463 5 413 5 Z M 413 72 C 454 72 493 79 529 95 C 565 110 597 131 624 158 C 651 185 672 217 688 254 C 704 291 712 331 712 373 C 712 415 704 454 688 491 C 672 528 651 560 624 587 C 597 614 565 635 529 651 C 493 666 454 674 413 674 C 372 674 333 666 297 650 C 261 634 229 613 202 586 C 175 559 154 527 138 490 C 122 453 115 414 115 373 C 115 331 122 291 138 255 C 154 218 175 186 202 159 C 229 132 261 111 297 95 C 333 79 372 72 413 72 Z M 274 166 L 274 601 L 433 601 C 451 601 468 598 486 594 C 504 589 520 582 534 572 C 548 562 560 549 569 534 C 577 518 582 500 582 479 C 582 441 571 412 550 394 C 529 376 508 365 487 362 L 486 358 L 614 166 L 518 166 L 414 330 L 359 330 L 359 166 L 274 166 Z M 359 402 L 436 402 C 452 402 466 407 479 419 C 491 430 498 446 498 468 C 498 490 491 506 477 514 C 463 522 446 526 426 526 L 359 526 L 359 402 Z" unicode="®" />
<glyph horiz-adv-x="500" d="M 384 520 L 116 520 L 116 595 L 384 595 L 384 520 Z" unicode="¯" />
<glyph horiz-adv-x="436" d="M 218 366 C 192 366 167 371 144 381 C 121 391 101 404 85 421 C 68 437 55 457 45 480 C 35 503 30 528 30 554 C 30 580 35 604 45 627 C 55 650 68 670 85 687 C 101 703 121 717 144 727 C 167 737 192 742 218 742 C 244 742 268 737 291 727 C 314 717 334 703 351 687 C 367 670 381 650 391 627 C 401 604 406 580 406 554 C 406 528 401 503 391 480 C 381 457 367 437 351 421 C 334 404 314 391 291 381 C 268 371 244 366 218 366 Z M 218 446 C 248 446 273 456 295 478 C 316 499 327 524 327 554 C 327 584 316 609 295 631 C 273 652 248 663 218 663 C 188 663 162 652 141 631 C 119 609 109 584 109 554 C 109 524 119 499 141 478 C 162 456 188 446 218 446 Z" unicode="°" />
<glyph horiz-adv-x="500" d="M 476 292 L 294 292 L 294 111 L 207 111 L 207 292 L 24 292 L 24 370 L 207 370 L 207 551 L 294 551 L 294 370 L 476 370 L 476 292 Z M 471 23 L 31 23 L 31 95 L 471 95 L 471 23 Z" unicode="±" />
<glyph horiz-adv-x="345" d="M 310 372 L 27 372 L 27 405 L 182 563 C 188 569 193 576 199 585 C 205 594 208 605 208 618 C 208 630 203 641 195 651 C 186 661 173 666 156 666 C 135 666 121 659 113 647 C 105 635 101 620 101 604 L 22 604 C 22 642 34 674 59 701 C 84 727 120 741 166 741 C 210 741 243 730 265 710 C 287 690 298 665 298 637 C 298 610 293 588 284 570 C 274 552 264 538 254 528 L 171 445 L 310 445 L 310 372 Z" unicode="²" />
<glyph horiz-adv-x="346" d="M 227 569 C 254 564 275 553 291 537 C 307 520 315 500 315 477 C 315 465 312 452 308 439 C 303 425 295 413 283 402 C 271 391 255 382 235 375 C 215 367 191 364 161 364 C 119 364 86 369 63 379 C 39 389 21 399 9 409 L 57 459 C 67 452 81 446 97 440 C 113 434 133 432 156 432 C 185 432 205 437 217 448 C 229 459 235 473 235 490 C 235 507 227 518 212 524 C 197 529 179 532 159 532 L 86 532 L 86 595 L 153 595 C 172 595 188 598 200 605 C 212 611 218 621 218 634 C 218 646 212 655 202 661 C 192 667 176 671 156 671 C 138 671 121 667 105 660 C 89 653 76 645 68 637 L 20 685 C 33 699 51 712 73 724 C 95 736 127 742 168 742 C 208 742 240 733 264 717 C 288 700 300 678 300 651 C 300 629 292 611 278 597 C 263 583 246 573 227 569 Z" unicode="³" />
<glyph horiz-adv-x="500" d="M 146 497 L 250 660 L 371 660 L 248 497 L 146 497 Z" unicode="´" />
<glyph horiz-adv-x="550" d="M 66 -103 L 66 436 L 167 436 L 167 160 C 167 132 176 110 194 95 C 212 79 235 72 265 72 C 297 72 324 81 346 100 C 368 118 379 146 379 182 L 379 436 L 480 436 L 480 0 L 388 0 L 388 90 C 376 63 357 40 333 22 C 308 4 279 -5 246 -7 C 225 -7 207 -3 192 5 C 176 13 165 25 159 40 L 159 -103 L 66 -103 Z" unicode="µ" />
<glyph horiz-adv-x="686" d="M 616 -179 L 547 -179 L 547 650 L 439 650 L 439 -179 L 370 -179 L 370 247 L 261 247 C 230 247 200 253 171 266 C 142 279 117 296 95 318 C 73 339 55 364 42 393 C 28 422 22 453 22 485 C 22 519 28 552 41 582 C 53 612 71 637 93 659 C 115 681 143 698 175 711 C 207 723 242 730 281 730 L 616 730 L 616 -179 Z M 371 331 L 371 646 L 302 646 C 252 646 219 631 201 601 C 183 571 175 533 175 488 C 175 466 177 446 181 427 C 185 408 192 391 202 377 C 211 363 223 351 238 343 C 253 335 271 331 293 331 L 371 331 Z" unicode="¶" />
<glyph horiz-adv-x="261" d="M 182 266 L 80 266 L 80 401 L 182 401 L 182 266 Z" unicode="·" />
<glyph horiz-adv-x="500" d="M 257 -189 C 232 -189 207 -186 181 -180 C 155 -174 136 -166 122 -157 L 133 -111 C 143 -116 156 -121 172 -127 C 188 -132 205 -135 223 -135 C 237 -135 249 -131 260 -125 C 270 -119 276 -111 276 -101 C 276 -89 271 -80 262 -76 C 252 -71 242 -69 232 -69 C 224 -69 217 -69 212 -70 C 206 -71 200 -73 194 -75 L 178 -58 L 240 13 L 303 13 L 253 -49 C 287 -42 315 -45 339 -58 C 362 -70 374 -89 374 -114 C 374 -139 362 -158 338 -170 C 314 -182 287 -189 257 -189 Z" unicode="¸" />
<glyph horiz-adv-x="318" d="M 136 372 L 136 631 C 128 620 115 611 95 603 C 75 595 59 590 47 588 L 47 678 C 71 680 93 687 111 697 C 129 707 148 722 168 740 L 230 740 L 230 372 L 136 372 Z" unicode="¹" />
<glyph horiz-adv-x="438" d="M 216 342 C 190 342 166 346 143 355 C 119 364 99 377 81 394 C 63 410 48 431 38 456 C 27 480 22 508 22 540 C 22 567 27 593 38 618 C 48 642 62 664 80 682 C 98 700 118 715 142 726 C 166 736 191 742 217 742 C 245 742 271 737 295 728 C 319 719 340 706 358 690 C 376 673 390 653 400 629 C 410 605 416 578 416 549 C 416 519 410 491 400 466 C 389 440 375 418 357 400 C 339 382 317 367 293 357 C 269 347 243 342 216 342 Z M 216 425 C 248 425 275 436 295 459 C 315 482 326 512 326 548 C 326 582 316 609 297 631 C 278 652 252 663 218 663 C 186 663 161 651 141 629 C 121 606 112 576 112 539 C 112 505 121 477 141 456 C 160 435 185 425 216 425 Z M 38 226 L 38 308 L 397 308 L 397 226 L 38 226 Z" unicode="º" />
<glyph horiz-adv-x="465" d="M 29 480 L 216 310 L 216 234 L 29 67 L 29 174 L 127 274 L 29 368 L 29 480 Z M 252 480 L 438 310 L 438 234 L 252 67 L 252 174 L 350 274 L 252 368 L 252 480 Z" unicode="»" />
<glyph horiz-adv-x="703" d="M 12 0 L 12 0 Z M 101 372 L 101 631 C 93 620 80 611 60 603 C 40 595 24 590 12 588 L 12 678 C 36 680 58 687 76 697 C 94 707 113 722 133 740 L 195 740 L 195 372 L 101 372 Z M 579 730 L 218 0 L 130 0 L 491 730 L 579 730 Z M 389 81 L 389 142 L 573 365 L 631 365 L 631 146 L 691 146 L 691 81 L 631 81 L 631 1 L 548 1 L 548 81 L 389 81 Z M 457 134 L 550 134 L 550 248 L 457 134 Z" unicode="¼" />
<glyph horiz-adv-x="773" d="M 12 0 L 12 0 Z M 101 372 L 101 631 C 93 620 80 611 60 603 C 40 595 24 590 12 588 L 12 678 C 36 680 58 687 76 697 C 94 707 113 722 133 740 L 195 740 L 195 372 L 101 372 Z M 579 730 L 218 0 L 130 0 L 491 730 L 579 730 Z M 745 0 L 462 0 L 462 33 L 617 191 C 623 197 628 204 634 213 C 640 222 643 233 643 246 C 643 258 638 269 630 279 C 621 289 608 294 591 294 C 570 294 556 287 548 275 C 540 263 536 248 536 232 L 457 232 C 457 270 469 302 494 329 C 519 355 555 369 601 369 C 645 369 678 358 700 338 C 722 318 733 293 733 265 C 733 238 728 216 719 198 C 709 180 699 166 689 156 L 606 73 L 745 73 L 745 0 Z" unicode="½" />
<glyph horiz-adv-x="762" d="M 12 0 L 12 0 Z M 638 730 L 277 0 L 189 0 L 550 730 L 638 730 Z M 448 81 L 448 142 L 632 365 L 690 365 L 690 146 L 750 146 L 750 81 L 690 81 L 690 1 L 607 1 L 607 81 L 448 81 Z M 516 134 L 609 134 L 609 248 L 516 134 Z M 230 569 C 257 564 278 553 294 537 C 310 520 318 500 318 477 C 318 465 315 452 311 439 C 306 425 298 413 286 402 C 274 391 258 382 238 375 C 218 367 194 364 164 364 C 122 364 89 369 66 379 C 42 389 24 399 12 409 L 60 459 C 70 452 84 446 100 440 C 116 434 136 432 159 432 C 188 432 208 437 220 448 C 232 459 238 473 238 490 C 238 507 230 518 215 524 C 200 529 182 532 162 532 L 89 532 L 89 595 L 156 595 C 175 595 191 598 203 605 C 215 611 221 621 221 634 C 221 646 215 655 205 661 C 195 667 179 671 159 671 C 141 671 124 667 108 660 C 92 653 79 645 71 637 L 23 685 C 36 699 54 712 76 724 C 98 736 130 742 171 742 C 211 742 243 733 267 717 C 291 700 303 678 303 651 C 303 629 295 611 281 597 C 266 583 249 573 230 569 Z" unicode="¾" />
<glyph horiz-adv-x="474" d="M 199 466 L 199 574 L 315 574 L 315 466 L 199 466 Z M 239 -154 C 207 -154 178 -150 151 -142 C 123 -134 100 -123 80 -108 C 60 -93 44 -75 32 -53 C 20 -31 15 -7 15 21 C 15 47 19 70 27 90 C 35 110 45 127 57 142 C 69 157 83 170 98 181 C 112 192 126 202 139 211 C 168 231 187 255 195 283 C 203 310 207 338 208 368 L 310 368 C 310 318 304 280 294 253 C 284 226 262 200 229 176 C 202 156 178 136 156 116 C 134 96 123 69 123 35 C 123 3 135 -21 159 -39 C 183 -57 213 -66 249 -66 C 281 -66 310 -58 336 -44 C 362 -29 383 -12 399 7 L 467 -55 C 446 -80 416 -103 378 -123 C 339 -143 293 -154 239 -154 Z" unicode="¿" />
<glyph horiz-adv-x="662" d="M 1 0 L 1 0 Z M 660 0 L 546 0 L 473 181 L 184 181 L 112 0 L 1 0 L 302 733 L 365 733 L 660 0 Z M 438 276 L 328 548 L 219 276 L 438 276 Z M 331 791 L 331 791 Z M 444 791 L 341 791 L 218 954 L 338 954 L 444 791 Z" unicode="À" />
<glyph horiz-adv-x="662" d="M 1 0 L 1 0 Z M 660 0 L 546 0 L 473 181 L 184 181 L 112 0 L 1 0 L 302 733 L 365 733 L 660 0 Z M 438 276 L 328 548 L 219 276 L 438 276 Z M 331 791 L 331 791 Z M 219 791 L 323 954 L 444 954 L 321 791 L 219 791 Z" unicode="Á" />
<glyph horiz-adv-x="662" d="M 1 0 L 1 0 Z M 660 0 L 546 0 L 473 181 L 184 181 L 112 0 L 1 0 L 302 733 L 365 733 L 660 0 Z M 438 276 L 328 548 L 219 276 L 438 276 Z M 331 792 L 331 792 Z M 507 792 L 412 792 L 331 893 L 249 792 L 156 792 L 279 964 L 384 964 L 507 792 Z" unicode="Â" />
<glyph horiz-adv-x="662" d="M 1 0 L 1 0 Z M 660 0 L 546 0 L 473 181 L 184 181 L 112 0 L 1 0 L 302 733 L 365 733 L 660 0 Z M 438 276 L 328 548 L 219 276 L 438 276 Z M 331 798 L 331 798 Z M 418 938 L 492 938 C 492 890 485 854 472 832 C 458 809 441 798 419 798 C 400 798 384 801 370 808 C 356 814 344 820 336 826 C 326 831 317 836 309 842 C 301 847 293 850 285 850 C 276 850 269 845 263 835 C 257 825 255 814 255 802 L 178 802 C 178 849 187 884 206 907 C 225 930 245 942 266 942 C 281 942 294 938 306 932 C 317 926 329 919 341 912 C 349 906 357 900 365 894 C 373 888 381 886 389 886 C 395 886 402 890 408 900 C 414 910 418 922 418 938 Z" unicode="Ã" />
<glyph horiz-adv-x="662" d="M 1 0 L 1 0 Z M 660 0 L 546 0 L 473 181 L 184 181 L 112 0 L 1 0 L 302 733 L 365 733 L 660 0 Z M 438 276 L 328 548 L 219 276 L 438 276 Z M 331 792 L 331 792 Z M 468 792 L 382 792 L 382 951 L 468 951 L 468 792 Z M 280 792 L 194 792 L 194 951 L 280 951 L 280 792 Z" unicode="Ä" />
<glyph horiz-adv-x="662" d="M 1 0 L 1 0 Z M 660 0 L 546 0 L 473 181 L 184 181 L 112 0 L 1 0 L 302 733 L 365 733 L 660 0 Z M 438 276 L 328 548 L 219 276 L 438 276 Z M 331 788 L 331 788 Z M 331 788 C 299 788 272 799 250 821 C 228 843 217 871 217 903 C 217 935 228 962 250 984 C 272 1006 299 1017 331 1017 C 363 1017 391 1006 413 984 C 435 962 446 935 446 903 C 446 871 435 843 413 821 C 391 799 363 788 331 788 Z M 331 848 C 346 848 359 853 369 864 C 379 874 385 887 385 903 C 385 918 379 931 369 942 C 359 952 346 958 331 958 C 316 958 303 952 293 942 C 282 931 277 918 277 903 C 277 887 282 874 293 864 C 303 853 316 848 331 848 Z" unicode="Å" />
<glyph horiz-adv-x="980" d="M 929 0 L 487 0 L 487 240 L 244 240 L 94 0 L -23 0 L 438 730 L 910 730 L 910 631 L 596 631 L 596 410 L 894 410 L 894 310 L 596 310 L 596 99 L 929 99 L 929 0 Z M 487 334 L 487 627 L 303 334 L 487 334 Z" unicode="Æ" />
<glyph horiz-adv-x="706" d="M 46 0 L 46 0 Z M 407 -12 C 357 -12 309 -3 265 13 C 221 30 182 55 150 87 C 118 119 92 158 74 205 C 55 252 46 305 46 365 C 46 419 55 469 73 515 C 91 561 116 601 148 635 C 180 668 218 694 263 713 C 307 732 356 742 409 742 C 475 742 530 732 575 714 C 619 696 657 671 688 640 L 621 549 C 600 573 572 594 538 611 C 504 628 462 637 413 637 C 372 637 336 630 304 616 C 272 602 246 583 225 559 C 203 535 187 506 176 472 C 165 438 160 401 160 361 C 160 315 167 274 181 240 C 195 206 213 177 236 155 C 259 132 286 115 317 104 C 347 93 379 88 413 88 C 465 88 509 98 546 118 C 583 138 614 163 638 193 L 701 121 C 669 81 628 49 578 25 C 528 0 471 -12 407 -12 Z M 387 0 L 387 0 Z M 396 -189 C 371 -189 346 -186 320 -180 C 294 -174 275 -166 261 -157 L 272 -111 C 282 -116 295 -121 311 -127 C 327 -132 344 -135 362 -135 C 376 -135 388 -131 399 -125 C 409 -119 415 -111 415 -101 C 415 -89 410 -80 401 -76 C 391 -71 381 -69 371 -69 C 363 -69 356 -69 351 -70 C 345 -71 339 -73 333 -75 L 317 -58 L 379 13 L 442 13 L 392 -49 C 426 -42 454 -45 478 -58 C 501 -70 513 -89 513 -114 C 513 -139 501 -158 477 -170 C 453 -182 426 -189 396 -189 Z" unicode="Ç" />
<glyph horiz-adv-x="587" d="M 94 0 L 94 0 Z M 537 0 L 94 0 L 94 730 L 518 730 L 518 631 L 203 631 L 203 410 L 502 410 L 502 310 L 203 310 L 203 99 L 537 99 L 537 0 Z M 309 791 L 309 791 Z M 422 791 L 319 791 L 196 954 L 316 954 L 422 791 Z" unicode="È" />
<glyph horiz-adv-x="587" d="M 94 0 L 94 0 Z M 537 0 L 94 0 L 94 730 L 518 730 L 518 631 L 203 631 L 203 410 L 502 410 L 502 310 L 203 310 L 203 99 L 537 99 L 537 0 Z M 309 791 L 309 791 Z M 197 791 L 301 954 L 422 954 L 299 791 L 197 791 Z" unicode="É" />
<glyph horiz-adv-x="587" d="M 94 0 L 94 0 Z M 537 0 L 94 0 L 94 730 L 518 730 L 518 631 L 203 631 L 203 410 L 502 410 L 502 310 L 203 310 L 203 99 L 537 99 L 537 0 Z M 309 792 L 309 792 Z M 485 792 L 390 792 L 309 893 L 227 792 L 134 792 L 257 964 L 362 964 L 485 792 Z" unicode="Ê" />
<glyph horiz-adv-x="587" d="M 94 0 L 94 0 Z M 537 0 L 94 0 L 94 730 L 518 730 L 518 631 L 203 631 L 203 410 L 502 410 L 502 310 L 203 310 L 203 99 L 537 99 L 537 0 Z M 309 792 L 309 792 Z M 446 792 L 360 792 L 360 951 L 446 951 L 446 792 Z M 258 792 L 172 792 L 172 951 L 258 951 L 258 792 Z" unicode="Ë" />
<glyph horiz-adv-x="307" d="M 40 0 L 40 0 Z M 209 0 L 99 0 L 99 730 L 209 730 L 209 0 Z M 153 791 L 153 791 Z M 266 791 L 163 791 L 40 954 L 160 954 L 266 791 Z" unicode="Ì" />
<glyph horiz-adv-x="307" d="M 41 0 L 41 0 Z M 209 0 L 99 0 L 99 730 L 209 730 L 209 0 Z M 153 791 L 153 791 Z M 41 791 L 145 954 L 266 954 L 143 791 L 41 791 Z" unicode="Í" />
<glyph horiz-adv-x="307" d="M 0 0 L 0 0 Z M 209 0 L 99 0 L 99 730 L 209 730 L 209 0 Z M 153 792 L 153 792 Z M 329 792 L 234 792 L 153 893 L 71 792 L -22 792 L 101 964 L 206 964 L 329 792 Z" unicode="Î" />
<glyph horiz-adv-x="307" d="M 16 0 L 16 0 Z M 209 0 L 99 0 L 99 730 L 209 730 L 209 0 Z M 153 792 L 153 792 Z M 290 792 L 204 792 L 204 951 L 290 951 L 290 792 Z M 102 792 L 16 792 L 16 951 L 102 951 L 102 792 Z" unicode="Ï" />
<glyph horiz-adv-x="752" d="M 705 367 C 705 316 696 268 679 224 C 661 179 636 140 603 107 C 569 74 528 48 478 29 C 428 9 370 0 305 0 L 94 0 L 94 311 L 35 311 L 35 403 L 94 403 L 94 730 L 321 730 C 383 730 438 721 486 704 C 534 686 574 662 606 631 C 638 599 663 561 680 516 C 696 471 705 421 705 367 Z M 204 98 L 301 98 C 352 98 396 105 433 120 C 469 135 499 155 522 180 C 545 204 562 233 573 265 C 584 297 590 330 590 364 C 590 446 566 510 519 558 C 472 606 406 630 321 630 L 204 630 L 204 403 L 374 403 L 374 311 L 204 311 L 204 98 Z" unicode="Ð" />
<glyph horiz-adv-x="780" d="M 94 0 L 94 0 Z M 686 0 L 611 0 L 199 528 L 199 0 L 94 0 L 94 730 L 176 730 L 580 205 L 580 730 L 686 730 L 686 0 Z M 391 798 L 391 798 Z M 478 938 L 552 938 C 552 890 545 854 532 832 C 518 809 501 798 479 798 C 460 798 444 801 430 808 C 416 814 404 820 396 826 C 386 831 377 836 369 842 C 361 847 353 850 345 850 C 336 850 329 845 323 835 C 317 825 315 814 315 802 L 238 802 C 238 849 247 884 266 907 C 285 930 305 942 326 942 C 341 942 354 938 366 932 C 377 926 389 919 401 912 C 409 906 417 900 425 894 C 433 888 441 886 449 886 C 455 886 462 890 468 900 C 474 910 478 922 478 938 Z" unicode="Ñ" />
<glyph horiz-adv-x="840" d="M 46 0 L 46 0 Z M 423 -12 C 365 -12 313 -2 267 16 C 220 35 180 61 148 95 C 115 129 90 169 72 216 C 54 263 46 314 46 370 C 46 422 55 470 75 516 C 94 562 120 601 153 635 C 186 668 225 694 270 713 C 315 732 363 742 415 742 C 470 742 521 733 568 715 C 614 697 654 671 688 639 C 721 606 747 567 766 521 C 784 475 794 424 794 368 C 794 312 784 260 764 214 C 744 167 718 127 684 94 C 650 60 611 34 566 16 C 520 -2 473 -12 423 -12 Z M 422 91 C 458 91 492 97 524 110 C 556 123 583 142 606 166 C 629 190 647 219 661 254 C 674 288 681 327 681 371 C 681 410 674 446 661 479 C 647 512 629 540 606 563 C 583 586 555 604 523 617 C 491 630 456 637 419 637 C 381 637 347 631 315 619 C 283 607 256 589 233 567 C 210 544 192 516 179 482 C 166 448 160 410 160 367 C 160 323 166 283 180 249 C 194 215 212 186 236 163 C 260 139 288 121 320 109 C 352 97 386 91 422 91 Z M 418 791 L 418 791 Z M 531 791 L 428 791 L 305 954 L 425 954 L 531 791 Z" unicode="Ò" />
<glyph horiz-adv-x="840" d="M 46 0 L 46 0 Z M 423 -12 C 365 -12 313 -2 267 16 C 220 35 180 61 148 95 C 115 129 90 169 72 216 C 54 263 46 314 46 370 C 46 422 55 470 75 516 C 94 562 120 601 153 635 C 186 668 225 694 270 713 C 315 732 363 742 415 742 C 470 742 521 733 568 715 C 614 697 654 671 688 639 C 721 606 747 567 766 521 C 784 475 794 424 794 368 C 794 312 784 260 764 214 C 744 167 718 127 684 94 C 650 60 611 34 566 16 C 520 -2 473 -12 423 -12 Z M 422 91 C 458 91 492 97 524 110 C 556 123 583 142 606 166 C 629 190 647 219 661 254 C 674 288 681 327 681 371 C 681 410 674 446 661 479 C 647 512 629 540 606 563 C 583 586 555 604 523 617 C 491 630 456 637 419 637 C 381 637 347 631 315 619 C 283 607 256 589 233 567 C 210 544 192 516 179 482 C 166 448 160 410 160 367 C 160 323 166 283 180 249 C 194 215 212 186 236 163 C 260 139 288 121 320 109 C 352 97 386 91 422 91 Z M 418 791 L 418 791 Z M 306 791 L 410 954 L 531 954 L 408 791 L 306 791 Z" unicode="Ó" />
<glyph horiz-adv-x="840" d="M 46 0 L 46 0 Z M 423 -12 C 365 -12 313 -2 267 16 C 220 35 180 61 148 95 C 115 129 90 169 72 216 C 54 263 46 314 46 370 C 46 422 55 470 75 516 C 94 562 120 601 153 635 C 186 668 225 694 270 713 C 315 732 363 742 415 742 C 470 742 521 733 568 715 C 614 697 654 671 688 639 C 721 606 747 567 766 521 C 784 475 794 424 794 368 C 794 312 784 260 764 214 C 744 167 718 127 684 94 C 650 60 611 34 566 16 C 520 -2 473 -12 423 -12 Z M 422 91 C 458 91 492 97 524 110 C 556 123 583 142 606 166 C 629 190 647 219 661 254 C 674 288 681 327 681 371 C 681 410 674 446 661 479 C 647 512 629 540 606 563 C 583 586 555 604 523 617 C 491 630 456 637 419 637 C 381 637 347 631 315 619 C 283 607 256 589 233 567 C 210 544 192 516 179 482 C 166 448 160 410 160 367 C 160 323 166 283 180 249 C 194 215 212 186 236 163 C 260 139 288 121 320 109 C 352 97 386 91 422 91 Z M 418 792 L 418 792 Z M 594 792 L 499 792 L 418 893 L 336 792 L 243 792 L 366 964 L 471 964 L 594 792 Z" unicode="Ô" />
<glyph horiz-adv-x="840" d="M 46 0 L 46 0 Z M 423 -12 C 365 -12 313 -2 267 16 C 220 35 180 61 148 95 C 115 129 90 169 72 216 C 54 263 46 314 46 370 C 46 422 55 470 75 516 C 94 562 120 601 153 635 C 186 668 225 694 270 713 C 315 732 363 742 415 742 C 470 742 521 733 568 715 C 614 697 654 671 688 639 C 721 606 747 567 766 521 C 784 475 794 424 794 368 C 794 312 784 260 764 214 C 744 167 718 127 684 94 C 650 60 611 34 566 16 C 520 -2 473 -12 423 -12 Z M 422 91 C 458 91 492 97 524 110 C 556 123 583 142 606 166 C 629 190 647 219 661 254 C 674 288 681 327 681 371 C 681 410 674 446 661 479 C 647 512 629 540 606 563 C 583 586 555 604 523 617 C 491 630 456 637 419 637 C 381 637 347 631 315 619 C 283 607 256 589 233 567 C 210 544 192 516 179 482 C 166 448 160 410 160 367 C 160 323 166 283 180 249 C 194 215 212 186 236 163 C 260 139 288 121 320 109 C 352 97 386 91 422 91 Z M 418 798 L 418 798 Z M 505 938 L 579 938 C 579 890 572 854 559 832 C 545 809 528 798 506 798 C 487 798 471 801 457 808 C 443 814 431 820 423 826 C 413 831 404 836 396 842 C 388 847 380 850 372 850 C 363 850 356 845 350 835 C 344 825 342 814 342 802 L 265 802 C 265 849 274 884 293 907 C 312 930 332 942 353 942 C 368 942 381 938 393 932 C 404 926 416 919 428 912 C 436 906 444 900 452 894 C 460 888 468 886 476 886 C 482 886 489 890 495 900 C 501 910 505 922 505 938 Z" unicode="Õ" />
<glyph horiz-adv-x="840" d="M 46 0 L 46 0 Z M 423 -12 C 365 -12 313 -2 267 16 C 220 35 180 61 148 95 C 115 129 90 169 72 216 C 54 263 46 314 46 370 C 46 422 55 470 75 516 C 94 562 120 601 153 635 C 186 668 225 694 270 713 C 315 732 363 742 415 742 C 470 742 521 733 568 715 C 614 697 654 671 688 639 C 721 606 747 567 766 521 C 784 475 794 424 794 368 C 794 312 784 260 764 214 C 744 167 718 127 684 94 C 650 60 611 34 566 16 C 520 -2 473 -12 423 -12 Z M 422 91 C 458 91 492 97 524 110 C 556 123 583 142 606 166 C 629 190 647 219 661 254 C 674 288 681 327 681 371 C 681 410 674 446 661 479 C 647 512 629 540 606 563 C 583 586 555 604 523 617 C 491 630 456 637 419 637 C 381 637 347 631 315 619 C 283 607 256 589 233 567 C 210 544 192 516 179 482 C 166 448 160 410 160 367 C 160 323 166 283 180 249 C 194 215 212 186 236 163 C 260 139 288 121 320 109 C 352 97 386 91 422 91 Z M 418 792 L 418 792 Z M 555 792 L 469 792 L 469 951 L 555 951 L 555 792 Z M 367 792 L 281 792 L 281 951 L 367 951 L 367 792 Z" unicode="Ö" />
<glyph horiz-adv-x="501" d="M 115 139 L 59 196 L 193 331 L 60 465 L 116 522 L 251 388 L 386 522 L 442 465 L 307 331 L 443 196 L 386 137 L 251 274 L 115 139 Z" unicode="×" />
<glyph horiz-adv-x="840" d="M 794 368 C 794 312 784 260 764 214 C 744 167 718 127 684 94 C 650 60 611 34 566 16 C 520 -2 473 -12 423 -12 C 373 -12 327 -4 285 9 C 243 23 206 44 175 71 L 105 1 L 51 56 L 122 127 C 97 159 78 195 65 237 C 52 278 46 322 46 370 C 46 422 55 470 75 516 C 94 562 120 601 153 635 C 186 668 225 694 270 713 C 315 732 363 742 415 742 C 463 742 507 735 549 722 C 590 708 627 689 659 665 L 744 750 L 798 695 L 714 611 C 739 579 759 543 773 502 C 787 460 794 416 794 368 Z M 160 367 C 160 335 163 305 171 278 C 178 251 188 227 202 207 L 580 586 C 558 602 534 615 506 624 C 478 632 449 637 419 637 C 381 637 347 631 315 619 C 283 607 256 589 233 567 C 210 544 192 516 179 482 C 166 448 160 410 160 367 Z M 681 371 C 681 401 676 430 668 458 C 660 485 648 509 634 531 L 252 148 C 274 129 300 115 329 105 C 358 95 389 91 422 91 C 458 91 492 97 524 110 C 556 123 583 142 606 166 C 629 190 647 219 661 254 C 674 288 681 327 681 371 Z" unicode="Ø" />
<glyph horiz-adv-x="743" d="M 86 0 L 86 0 Z M 657 730 L 657 266 C 657 222 649 183 634 149 C 619 114 599 85 574 61 C 548 37 518 19 483 7 C 448 -5 411 -12 371 -12 C 331 -12 294 -6 260 6 C 225 18 195 35 169 59 C 143 83 123 112 108 147 C 93 181 86 221 86 266 L 86 730 L 193 730 L 193 259 C 193 209 210 169 244 137 C 278 105 319 90 369 90 C 394 90 418 94 440 102 C 462 110 481 121 497 136 C 513 150 526 168 536 189 C 545 210 550 233 550 259 L 550 730 L 657 730 Z M 371 791 L 371 791 Z M 484 791 L 381 791 L 258 954 L 378 954 L 484 791 Z" unicode="Ù" />
<glyph horiz-adv-x="743" d="M 86 0 L 86 0 Z M 657 730 L 657 266 C 657 222 649 183 634 149 C 619 114 599 85 574 61 C 548 37 518 19 483 7 C 448 -5 411 -12 371 -12 C 331 -12 294 -6 260 6 C 225 18 195 35 169 59 C 143 83 123 112 108 147 C 93 181 86 221 86 266 L 86 730 L 193 730 L 193 259 C 193 209 210 169 244 137 C 278 105 319 90 369 90 C 394 90 418 94 440 102 C 462 110 481 121 497 136 C 513 150 526 168 536 189 C 545 210 550 233 550 259 L 550 730 L 657 730 Z M 371 791 L 371 791 Z M 259 791 L 363 954 L 484 954 L 361 791 L 259 791 Z" unicode="Ú" />
<glyph horiz-adv-x="743" d="M 86 0 L 86 0 Z M 657 730 L 657 266 C 657 222 649 183 634 149 C 619 114 599 85 574 61 C 548 37 518 19 483 7 C 448 -5 411 -12 371 -12 C 331 -12 294 -6 260 6 C 225 18 195 35 169 59 C 143 83 123 112 108 147 C 93 181 86 221 86 266 L 86 730 L 193 730 L 193 259 C 193 209 210 169 244 137 C 278 105 319 90 369 90 C 394 90 418 94 440 102 C 462 110 481 121 497 136 C 513 150 526 168 536 189 C 545 210 550 233 550 259 L 550 730 L 657 730 Z M 371 792 L 371 792 Z M 547 792 L 452 792 L 371 893 L 289 792 L 196 792 L 319 964 L 424 964 L 547 792 Z" unicode="Û" />
<glyph horiz-adv-x="743" d="M 86 0 L 86 0 Z M 657 730 L 657 266 C 657 222 649 183 634 149 C 619 114 599 85 574 61 C 548 37 518 19 483 7 C 448 -5 411 -12 371 -12 C 331 -12 294 -6 260 6 C 225 18 195 35 169 59 C 143 83 123 112 108 147 C 93 181 86 221 86 266 L 86 730 L 193 730 L 193 259 C 193 209 210 169 244 137 C 278 105 319 90 369 90 C 394 90 418 94 440 102 C 462 110 481 121 497 136 C 513 150 526 168 536 189 C 545 210 550 233 550 259 L 550 730 L 657 730 Z M 371 792 L 371 792 Z M 508 792 L 422 792 L 422 951 L 508 951 L 508 792 Z M 320 792 L 234 792 L 234 951 L 320 951 L 320 792 Z" unicode="Ü" />
<glyph horiz-adv-x="654" d="M 0 0 L 0 0 Z M 653 730 L 379 325 L 379 0 L 269 0 L 269 329 L 0 730 L 124 730 L 330 426 L 534 730 L 653 730 Z M 327 791 L 327 791 Z M 215 791 L 319 954 L 440 954 L 317 791 L 215 791 Z" unicode="Ý" />
<glyph horiz-adv-x="601" d="M 94 0 L 94 730 L 204 730 L 204 595 L 338 595 C 411 595 468 574 510 533 C 551 492 572 439 572 375 C 572 342 566 312 555 284 C 543 256 527 232 507 212 C 487 192 462 176 434 165 C 405 153 374 148 340 148 L 204 148 L 204 0 L 94 0 Z M 204 248 L 325 248 C 367 248 400 259 424 282 C 448 305 461 337 461 377 C 461 415 447 445 419 465 C 391 485 357 495 317 495 L 204 495 L 204 248 Z" unicode="Þ" />
<glyph horiz-adv-x="637" d="M 449 -12 C 409 -12 375 -7 346 3 C 317 13 293 27 273 45 L 324 115 C 336 103 355 93 379 85 C 403 77 426 74 448 74 C 468 74 485 77 497 85 C 509 92 516 103 516 117 C 516 133 508 146 493 154 C 478 162 453 172 417 182 C 363 197 327 218 309 244 C 290 270 281 300 281 334 C 281 364 290 389 308 409 C 326 429 346 441 370 444 C 376 446 385 452 395 464 C 405 475 410 502 410 544 C 410 580 399 608 379 628 C 358 648 331 658 299 658 C 267 658 241 649 220 631 C 199 613 189 586 189 550 L 189 0 L 86 0 L 86 556 C 86 584 91 610 103 633 C 115 656 130 676 149 692 C 168 708 190 720 216 728 C 242 736 268 741 296 741 C 325 741 353 736 379 728 C 405 719 427 706 447 689 C 466 672 481 651 492 626 C 503 601 509 573 509 541 C 509 494 499 457 480 429 C 461 401 443 385 425 380 C 410 379 397 375 387 368 C 377 361 372 351 372 338 C 372 326 379 314 394 303 C 408 292 433 282 467 274 C 513 262 548 244 572 222 C 596 200 609 168 609 126 C 609 79 593 44 562 22 C 530 0 493 -12 449 -12 Z" unicode="ß" />
<glyph horiz-adv-x="476" d="M 19 0 L 19 0 Z M 421 0 L 326 0 L 326 56 C 313 39 294 23 270 9 C 246 -4 216 -12 180 -12 C 125 -12 84 1 58 29 C 32 56 19 90 19 132 C 19 178 36 214 72 240 C 108 266 159 281 227 285 L 322 290 L 322 300 C 322 321 314 337 299 349 C 283 361 261 367 233 367 C 204 367 178 362 154 352 C 130 342 112 332 100 323 L 57 393 C 73 405 96 418 127 430 C 158 442 197 448 243 448 C 294 448 336 435 370 411 C 404 387 421 348 421 295 L 421 0 Z M 324 121 L 324 214 L 233 210 C 197 208 169 200 149 188 C 129 175 119 158 119 137 C 119 116 126 100 140 89 C 154 78 173 73 197 73 C 225 73 251 78 275 89 C 298 99 314 110 324 121 Z M 232 497 L 232 497 Z M 345 497 L 242 497 L 119 660 L 239 660 L 345 497 Z" unicode="à" />
<glyph horiz-adv-x="476" d="M 19 0 L 19 0 Z M 421 0 L 326 0 L 326 56 C 313 39 294 23 270 9 C 246 -4 216 -12 180 -12 C 125 -12 84 1 58 29 C 32 56 19 90 19 132 C 19 178 36 214 72 240 C 108 266 159 281 227 285 L 322 290 L 322 300 C 322 321 314 337 299 349 C 283 361 261 367 233 367 C 204 367 178 362 154 352 C 130 342 112 332 100 323 L 57 393 C 73 405 96 418 127 430 C 158 442 197 448 243 448 C 294 448 336 435 370 411 C 404 387 421 348 421 295 L 421 0 Z M 324 121 L 324 214 L 233 210 C 197 208 169 200 149 188 C 129 175 119 158 119 137 C 119 116 126 100 140 89 C 154 78 173 73 197 73 C 225 73 251 78 275 89 C 298 99 314 110 324 121 Z M 232 497 L 232 497 Z M 120 497 L 224 660 L 345 660 L 222 497 L 120 497 Z" unicode="á" />
<glyph horiz-adv-x="476" d="M 19 0 L 19 0 Z M 421 0 L 326 0 L 326 56 C 313 39 294 23 270 9 C 246 -4 216 -12 180 -12 C 125 -12 84 1 58 29 C 32 56 19 90 19 132 C 19 178 36 214 72 240 C 108 266 159 281 227 285 L 322 290 L 322 300 C 322 321 314 337 299 349 C 283 361 261 367 233 367 C 204 367 178 362 154 352 C 130 342 112 332 100 323 L 57 393 C 73 405 96 418 127 430 C 158 442 197 448 243 448 C 294 448 336 435 370 411 C 404 387 421 348 421 295 L 421 0 Z M 324 121 L 324 214 L 233 210 C 197 208 169 200 149 188 C 129 175 119 158 119 137 C 119 116 126 100 140 89 C 154 78 173 73 197 73 C 225 73 251 78 275 89 C 298 99 314 110 324 121 Z M 232 498 L 232 498 Z M 408 498 L 313 498 L 232 599 L 150 498 L 57 498 L 180 670 L 285 670 L 408 498 Z" unicode="â" />
<glyph horiz-adv-x="476" d="M 19 0 L 19 0 Z M 421 0 L 326 0 L 326 56 C 313 39 294 23 270 9 C 246 -4 216 -12 180 -12 C 125 -12 84 1 58 29 C 32 56 19 90 19 132 C 19 178 36 214 72 240 C 108 266 159 281 227 285 L 322 290 L 322 300 C 322 321 314 337 299 349 C 283 361 261 367 233 367 C 204 367 178 362 154 352 C 130 342 112 332 100 323 L 57 393 C 73 405 96 418 127 430 C 158 442 197 448 243 448 C 294 448 336 435 370 411 C 404 387 421 348 421 295 L 421 0 Z M 324 121 L 324 214 L 233 210 C 197 208 169 200 149 188 C 129 175 119 158 119 137 C 119 116 126 100 140 89 C 154 78 173 73 197 73 C 225 73 251 78 275 89 C 298 99 314 110 324 121 Z M 232 504 L 232 504 Z M 319 644 L 393 644 C 393 596 386 560 373 538 C 359 515 342 504 320 504 C 301 504 285 507 271 514 C 257 520 245 526 237 532 C 227 537 218 542 210 548 C 202 553 194 556 186 556 C 177 556 170 551 164 541 C 158 531 156 520 156 508 L 79 508 C 79 555 88 590 107 613 C 126 636 146 648 167 648 C 182 648 195 644 207 638 C 218 632 230 625 242 618 C 250 612 258 606 266 600 C 274 594 282 592 290 592 C 296 592 303 596 309 606 C 315 616 319 628 319 644 Z" unicode="ã" />
<glyph horiz-adv-x="476" d="M 19 0 L 19 0 Z M 421 0 L 326 0 L 326 56 C 313 39 294 23 270 9 C 246 -4 216 -12 180 -12 C 125 -12 84 1 58 29 C 32 56 19 90 19 132 C 19 178 36 214 72 240 C 108 266 159 281 227 285 L 322 290 L 322 300 C 322 321 314 337 299 349 C 283 361 261 367 233 367 C 204 367 178 362 154 352 C 130 342 112 332 100 323 L 57 393 C 73 405 96 418 127 430 C 158 442 197 448 243 448 C 294 448 336 435 370 411 C 404 387 421 348 421 295 L 421 0 Z M 324 121 L 324 214 L 233 210 C 197 208 169 200 149 188 C 129 175 119 158 119 137 C 119 116 126 100 140 89 C 154 78 173 73 197 73 C 225 73 251 78 275 89 C 298 99 314 110 324 121 Z M 232 498 L 232 498 Z M 369 498 L 283 498 L 283 657 L 369 657 L 369 498 Z M 181 498 L 95 498 L 95 657 L 181 657 L 181 498 Z" unicode="ä" />
<glyph horiz-adv-x="476" d="M 19 0 L 19 0 Z M 421 0 L 326 0 L 326 56 C 313 39 294 23 270 9 C 246 -4 216 -12 180 -12 C 125 -12 84 1 58 29 C 32 56 19 90 19 132 C 19 178 36 214 72 240 C 108 266 159 281 227 285 L 322 290 L 322 300 C 322 321 314 337 299 349 C 283 361 261 367 233 367 C 204 367 178 362 154 352 C 130 342 112 332 100 323 L 57 393 C 73 405 96 418 127 430 C 158 442 197 448 243 448 C 294 448 336 435 370 411 C 404 387 421 348 421 295 L 421 0 Z M 324 121 L 324 214 L 233 210 C 197 208 169 200 149 188 C 129 175 119 158 119 137 C 119 116 126 100 140 89 C 154 78 173 73 197 73 C 225 73 251 78 275 89 C 298 99 314 110 324 121 Z M 232 494 L 232 494 Z M 232 494 C 200 494 173 505 151 527 C 129 549 118 577 118 609 C 118 641 129 668 151 690 C 173 712 200 723 232 723 C 264 723 292 712 314 690 C 336 668 347 641 347 609 C 347 577 336 549 314 527 C 292 505 264 494 232 494 Z M 232 554 C 247 554 260 559 270 570 C 280 580 286 593 286 609 C 286 624 280 637 270 648 C 260 658 247 664 232 664 C 217 664 204 658 194 648 C 183 637 178 624 178 609 C 178 593 183 580 194 570 C 204 559 217 554 232 554 Z" unicode="å" />
<glyph horiz-adv-x="797" d="M 570 -11 C 517 -11 475 -2 445 14 C 415 30 392 51 377 75 C 363 54 340 34 306 16 C 272 -2 231 -12 181 -12 C 130 -12 90 1 62 27 C 33 53 19 88 19 132 C 19 178 36 214 72 240 C 108 266 160 281 228 285 L 331 290 L 331 300 C 331 322 320 338 300 350 C 280 361 256 367 229 367 C 201 367 175 362 152 352 C 128 342 111 332 100 323 L 57 393 C 75 408 100 421 132 432 C 164 442 199 448 237 448 C 277 448 312 440 340 426 C 368 412 387 396 397 380 C 408 398 428 414 456 428 C 484 442 521 449 567 449 C 601 449 631 442 658 430 C 685 417 708 399 726 376 C 744 353 759 325 769 293 C 779 261 784 225 784 187 L 430 187 C 433 151 445 123 467 103 C 489 83 522 73 567 73 C 604 73 632 78 650 89 C 668 99 684 112 697 126 L 761 66 C 739 41 714 22 685 9 C 655 -4 617 -11 570 -11 Z M 434 266 L 687 266 C 687 290 675 313 651 334 C 627 354 595 365 555 365 C 515 365 486 354 467 334 C 447 314 436 291 434 266 Z M 203 73 C 237 73 266 80 290 96 C 314 112 329 130 335 151 L 335 214 L 233 210 C 199 208 171 201 150 189 C 129 177 119 160 119 138 C 119 114 127 98 144 88 C 160 78 180 73 203 73 Z" unicode="æ" />
<glyph horiz-adv-x="463" d="M 28 0 L 28 0 Z M 373 145 L 458 98 C 442 70 418 44 386 22 C 354 0 310 -11 255 -11 C 221 -11 189 -5 161 6 C 133 18 109 34 89 54 C 69 74 54 98 44 126 C 33 154 28 185 28 218 C 28 251 34 282 46 310 C 58 338 74 363 95 383 C 115 403 140 419 168 431 C 196 443 227 449 260 449 C 313 449 356 437 390 415 C 423 392 447 367 461 341 L 366 294 C 356 312 342 327 325 339 C 307 351 285 357 259 357 C 222 357 192 343 168 317 C 144 290 133 257 133 217 C 133 176 144 143 168 117 C 191 91 222 79 260 79 C 292 79 317 86 334 101 C 351 115 364 130 373 145 Z M 248 0 L 248 0 Z M 257 -189 C 232 -189 207 -186 181 -180 C 155 -174 136 -166 122 -157 L 133 -111 C 143 -116 156 -121 172 -127 C 188 -132 205 -135 223 -135 C 237 -135 249 -131 260 -125 C 270 -119 276 -111 276 -101 C 276 -89 271 -80 262 -76 C 252 -71 242 -69 232 -69 C 224 -69 217 -69 212 -70 C 206 -71 200 -73 194 -75 L 178 -58 L 240 13 L 303 13 L 253 -49 C 287 -42 315 -45 339 -58 C 362 -70 374 -89 374 -114 C 374 -139 362 -158 338 -170 C 314 -182 287 -189 257 -189 Z" unicode="ç" />
<glyph horiz-adv-x="500" d="M 29 0 L 29 0 Z M 270 -11 C 235 -11 203 -5 173 4 C 143 14 118 29 97 48 C 75 67 59 91 47 119 C 35 147 29 178 29 214 C 29 246 34 277 46 306 C 57 334 73 359 93 381 C 113 402 138 419 167 431 C 196 443 228 449 263 449 C 330 449 384 426 426 381 C 467 336 488 271 488 187 L 124 187 C 126 153 140 126 165 105 C 189 83 224 73 270 73 C 308 73 336 78 356 90 C 376 102 391 114 401 126 L 464 66 C 445 45 422 27 394 12 C 366 -3 325 -11 270 -11 Z M 128 266 L 390 266 C 388 292 375 315 353 335 C 331 355 300 365 260 365 C 222 365 191 355 167 335 C 143 315 130 292 128 266 Z M 259 497 L 259 497 Z M 372 497 L 269 497 L 146 660 L 266 660 L 372 497 Z" unicode="è" />
<glyph horiz-adv-x="500" d="M 29 0 L 29 0 Z M 270 -11 C 235 -11 203 -5 173 4 C 143 14 118 29 97 48 C 75 67 59 91 47 119 C 35 147 29 178 29 214 C 29 246 34 277 46 306 C 57 334 73 359 93 381 C 113 402 138 419 167 431 C 196 443 228 449 263 449 C 330 449 384 426 426 381 C 467 336 488 271 488 187 L 124 187 C 126 153 140 126 165 105 C 189 83 224 73 270 73 C 308 73 336 78 356 90 C 376 102 391 114 401 126 L 464 66 C 445 45 422 27 394 12 C 366 -3 325 -11 270 -11 Z M 128 266 L 390 266 C 388 292 375 315 353 335 C 331 355 300 365 260 365 C 222 365 191 355 167 335 C 143 315 130 292 128 266 Z M 259 497 L 259 497 Z M 147 497 L 251 660 L 372 660 L 249 497 L 147 497 Z" unicode="é" />
<glyph horiz-adv-x="500" d="M 29 0 L 29 0 Z M 270 -11 C 235 -11 203 -5 173 4 C 143 14 118 29 97 48 C 75 67 59 91 47 119 C 35 147 29 178 29 214 C 29 246 34 277 46 306 C 57 334 73 359 93 381 C 113 402 138 419 167 431 C 196 443 228 449 263 449 C 330 449 384 426 426 381 C 467 336 488 271 488 187 L 124 187 C 126 153 140 126 165 105 C 189 83 224 73 270 73 C 308 73 336 78 356 90 C 376 102 391 114 401 126 L 464 66 C 445 45 422 27 394 12 C 366 -3 325 -11 270 -11 Z M 128 266 L 390 266 C 388 292 375 315 353 335 C 331 355 300 365 260 365 C 222 365 191 355 167 335 C 143 315 130 292 128 266 Z M 259 498 L 259 498 Z M 435 498 L 340 498 L 259 599 L 177 498 L 84 498 L 207 670 L 312 670 L 435 498 Z" unicode="ê" />
<glyph horiz-adv-x="500" d="M 29 0 L 29 0 Z M 270 -11 C 235 -11 203 -5 173 4 C 143 14 118 29 97 48 C 75 67 59 91 47 119 C 35 147 29 178 29 214 C 29 246 34 277 46 306 C 57 334 73 359 93 381 C 113 402 138 419 167 431 C 196 443 228 449 263 449 C 330 449 384 426 426 381 C 467 336 488 271 488 187 L 124 187 C 126 153 140 126 165 105 C 189 83 224 73 270 73 C 308 73 336 78 356 90 C 376 102 391 114 401 126 L 464 66 C 445 45 422 27 394 12 C 366 -3 325 -11 270 -11 Z M 128 266 L 390 266 C 388 292 375 315 353 335 C 331 355 300 365 260 365 C 222 365 191 355 167 335 C 143 315 130 292 128 266 Z M 259 498 L 259 498 Z M 396 498 L 310 498 L 310 657 L 396 657 L 396 498 Z M 208 498 L 122 498 L 122 657 L 208 657 L 208 498 Z" unicode="ë" />
<glyph horiz-adv-x="235" d="M 4 0 L 4 0 Z M 168 0 L 67 0 L 67 436 L 168 436 L 168 0 Z M 117 497 L 117 497 Z M 230 497 L 127 497 L 4 660 L 124 660 L 230 497 Z" unicode="ì" />
<glyph horiz-adv-x="235" d="M 5 0 L 5 0 Z M 168 0 L 67 0 L 67 436 L 168 436 L 168 0 Z M 117 497 L 117 497 Z M 5 497 L 109 660 L 230 660 L 107 497 L 5 497 Z" unicode="í" />
<glyph horiz-adv-x="235" d="M 0 0 L 0 0 Z M 168 0 L 67 0 L 67 436 L 168 436 L 168 0 Z M 117 498 L 117 498 Z M 293 498 L 198 498 L 117 599 L 35 498 L -58 498 L 65 670 L 170 670 L 293 498 Z" unicode="î" />
<glyph horiz-adv-x="235" d="M 0 0 L 0 0 Z M 168 0 L 67 0 L 67 436 L 168 436 L 168 0 Z M 117 498 L 117 498 Z M 254 498 L 168 498 L 168 657 L 254 657 L 254 498 Z M 66 498 L -20 498 L -20 657 L 66 657 L 66 498 Z" unicode="ï" />
<glyph horiz-adv-x="549" d="M 515 241 C 515 207 509 174 498 143 C 486 112 470 85 449 63 C 428 40 402 22 372 9 C 341 -4 306 -11 267 -11 C 233 -11 202 -5 173 5 C 144 16 119 32 98 52 C 76 72 59 96 47 125 C 35 153 29 185 29 221 C 29 253 35 282 48 310 C 61 337 78 361 100 381 C 122 401 147 417 175 429 C 203 440 232 446 263 446 C 296 446 326 439 353 426 C 379 412 398 400 408 389 C 403 424 393 456 379 486 C 364 516 347 543 329 567 L 180 530 L 159 597 L 273 625 C 251 645 230 661 210 674 C 190 686 174 695 163 701 L 250 744 C 266 733 285 720 306 705 C 327 690 348 671 370 649 L 452 669 L 472 602 L 419 589 C 445 550 468 502 487 445 C 505 388 515 320 515 241 Z M 266 76 C 310 76 345 89 371 117 C 397 145 410 179 410 219 C 410 261 397 295 373 321 C 349 347 315 360 273 360 C 233 360 199 346 172 318 C 145 290 132 258 132 220 C 132 178 145 143 171 116 C 197 89 228 76 266 76 Z" unicode="ð" />
<glyph horiz-adv-x="530" d="M 61 0 L 61 0 Z M 475 0 L 374 0 L 374 277 C 374 304 365 326 348 343 C 331 359 307 368 275 368 C 245 368 218 358 196 339 C 173 320 162 291 162 251 L 162 0 L 61 0 L 61 436 L 159 436 L 159 366 C 169 390 189 409 217 425 C 245 441 277 449 313 449 C 362 449 401 434 431 406 C 460 378 475 341 475 295 L 475 0 Z M 263 504 L 263 504 Z M 350 644 L 424 644 C 424 596 417 560 404 538 C 390 515 373 504 351 504 C 332 504 316 507 302 514 C 288 520 276 526 268 532 C 258 537 249 542 241 548 C 233 553 225 556 217 556 C 208 556 201 551 195 541 C 189 531 187 520 187 508 L 110 508 C 110 555 119 590 138 613 C 157 636 177 648 198 648 C 213 648 226 644 238 638 C 249 632 261 625 273 618 C 281 612 289 606 297 600 C 305 594 313 592 321 592 C 327 592 334 596 340 606 C 346 616 350 628 350 644 Z" unicode="ñ" />
<glyph horiz-adv-x="530" d="M 28 0 L 28 0 Z M 262 -11 C 232 -11 204 -5 176 4 C 148 14 123 29 101 49 C 79 69 61 93 48 121 C 34 149 28 181 28 217 C 28 249 34 279 47 307 C 59 335 76 360 97 381 C 118 401 143 418 171 430 C 199 442 229 449 260 449 C 292 449 322 443 352 433 C 381 423 407 408 429 389 C 451 369 468 346 482 319 C 495 292 502 262 502 229 C 502 194 495 162 483 133 C 470 103 453 78 431 57 C 409 35 384 19 355 7 C 325 -5 294 -11 262 -11 Z M 265 77 C 303 77 334 90 359 116 C 384 142 397 178 397 224 C 397 262 384 295 359 321 C 334 347 300 361 256 361 C 222 361 193 348 169 323 C 145 297 133 263 133 219 C 133 173 145 137 171 113 C 196 89 227 77 265 77 Z M 256 497 L 256 497 Z M 369 497 L 266 497 L 143 660 L 263 660 L 369 497 Z" unicode="ò" />
<glyph horiz-adv-x="530" d="M 28 0 L 28 0 Z M 262 -11 C 232 -11 204 -5 176 4 C 148 14 123 29 101 49 C 79 69 61 93 48 121 C 34 149 28 181 28 217 C 28 249 34 279 47 307 C 59 335 76 360 97 381 C 118 401 143 418 171 430 C 199 442 229 449 260 449 C 292 449 322 443 352 433 C 381 423 407 408 429 389 C 451 369 468 346 482 319 C 495 292 502 262 502 229 C 502 194 495 162 483 133 C 470 103 453 78 431 57 C 409 35 384 19 355 7 C 325 -5 294 -11 262 -11 Z M 265 77 C 303 77 334 90 359 116 C 384 142 397 178 397 224 C 397 262 384 295 359 321 C 334 347 300 361 256 361 C 222 361 193 348 169 323 C 145 297 133 263 133 219 C 133 173 145 137 171 113 C 196 89 227 77 265 77 Z M 256 497 L 256 497 Z M 144 497 L 248 660 L 369 660 L 246 497 L 144 497 Z" unicode="ó" />
<glyph horiz-adv-x="530" d="M 28 0 L 28 0 Z M 262 -11 C 232 -11 204 -5 176 4 C 148 14 123 29 101 49 C 79 69 61 93 48 121 C 34 149 28 181 28 217 C 28 249 34 279 47 307 C 59 335 76 360 97 381 C 118 401 143 418 171 430 C 199 442 229 449 260 449 C 292 449 322 443 352 433 C 381 423 407 408 429 389 C 451 369 468 346 482 319 C 495 292 502 262 502 229 C 502 194 495 162 483 133 C 470 103 453 78 431 57 C 409 35 384 19 355 7 C 325 -5 294 -11 262 -11 Z M 265 77 C 303 77 334 90 359 116 C 384 142 397 178 397 224 C 397 262 384 295 359 321 C 334 347 300 361 256 361 C 222 361 193 348 169 323 C 145 297 133 263 133 219 C 133 173 145 137 171 113 C 196 89 227 77 265 77 Z M 256 498 L 256 498 Z M 432 498 L 337 498 L 256 599 L 174 498 L 81 498 L 204 670 L 309 670 L 432 498 Z" unicode="ô" />
<glyph horiz-adv-x="530" d="M 28 0 L 28 0 Z M 262 -11 C 232 -11 204 -5 176 4 C 148 14 123 29 101 49 C 79 69 61 93 48 121 C 34 149 28 181 28 217 C 28 249 34 279 47 307 C 59 335 76 360 97 381 C 118 401 143 418 171 430 C 199 442 229 449 260 449 C 292 449 322 443 352 433 C 381 423 407 408 429 389 C 451 369 468 346 482 319 C 495 292 502 262 502 229 C 502 194 495 162 483 133 C 470 103 453 78 431 57 C 409 35 384 19 355 7 C 325 -5 294 -11 262 -11 Z M 265 77 C 303 77 334 90 359 116 C 384 142 397 178 397 224 C 397 262 384 295 359 321 C 334 347 300 361 256 361 C 222 361 193 348 169 323 C 145 297 133 263 133 219 C 133 173 145 137 171 113 C 196 89 227 77 265 77 Z M 256 504 L 256 504 Z M 343 644 L 417 644 C 417 596 410 560 397 538 C 383 515 366 504 344 504 C 325 504 309 507 295 514 C 281 520 269 526 261 532 C 251 537 242 542 234 548 C 226 553 218 556 210 556 C 201 556 194 551 188 541 C 182 531 180 520 180 508 L 103 508 C 103 555 112 590 131 613 C 150 636 170 648 191 648 C 206 648 219 644 231 638 C 242 632 254 625 266 618 C 274 612 282 606 290 600 C 298 594 306 592 314 592 C 320 592 327 596 333 606 C 339 616 343 628 343 644 Z" unicode="õ" />
<glyph horiz-adv-x="530" d="M 28 0 L 28 0 Z M 262 -11 C 232 -11 204 -5 176 4 C 148 14 123 29 101 49 C 79 69 61 93 48 121 C 34 149 28 181 28 217 C 28 249 34 279 47 307 C 59 335 76 360 97 381 C 118 401 143 418 171 430 C 199 442 229 449 260 449 C 292 449 322 443 352 433 C 381 423 407 408 429 389 C 451 369 468 346 482 319 C 495 292 502 262 502 229 C 502 194 495 162 483 133 C 470 103 453 78 431 57 C 409 35 384 19 355 7 C 325 -5 294 -11 262 -11 Z M 265 77 C 303 77 334 90 359 116 C 384 142 397 178 397 224 C 397 262 384 295 359 321 C 334 347 300 361 256 361 C 222 361 193 348 169 323 C 145 297 133 263 133 219 C 133 173 145 137 171 113 C 196 89 227 77 265 77 Z M 256 498 L 256 498 Z M 393 498 L 307 498 L 307 657 L 393 657 L 393 498 Z M 205 498 L 119 498 L 119 657 L 205 657 L 205 498 Z" unicode="ö" />
<glyph horiz-adv-x="500" d="M 202 448 L 202 567 L 298 567 L 298 448 L 202 448 Z M 24 287 L 24 374 L 476 374 L 476 287 L 24 287 Z M 202 94 L 202 212 L 298 212 L 298 94 L 202 94 Z" unicode="÷" />
<glyph horiz-adv-x="530" d="M 502 229 C 502 194 495 162 483 133 C 470 103 453 78 431 57 C 409 35 384 19 355 7 C 325 -5 294 -11 262 -11 C 236 -11 211 -7 187 1 C 162 9 139 20 119 35 L 74 -9 L 34 33 L 77 75 C 62 93 50 114 41 138 C 32 162 28 188 28 217 C 28 249 34 279 47 307 C 59 335 76 360 97 381 C 118 401 143 418 171 430 C 199 442 229 449 260 449 C 287 449 313 445 339 437 C 364 429 387 419 408 405 L 456 452 L 496 410 L 452 366 C 467 348 479 327 488 304 C 497 280 502 255 502 229 Z M 133 219 C 133 205 134 191 137 179 C 139 167 143 156 148 146 L 341 338 C 329 344 316 350 302 354 C 288 358 272 361 256 361 C 222 361 193 348 169 323 C 145 297 133 263 133 219 Z M 397 224 C 397 236 395 249 392 261 C 389 273 385 284 380 295 L 185 101 C 195 93 207 87 221 83 C 235 79 249 77 265 77 C 303 77 334 90 359 116 C 384 142 397 178 397 224 Z" unicode="ø" />
<glyph horiz-adv-x="531" d="M 56 0 L 56 0 Z M 56 436 L 156 436 L 156 160 C 156 132 165 110 183 95 C 201 79 225 72 255 72 C 286 72 313 81 335 100 C 357 118 369 146 369 182 L 369 436 L 469 436 L 469 0 L 371 0 L 371 76 C 356 50 335 29 307 14 C 279 -1 247 -9 213 -9 C 169 -9 131 4 101 32 C 71 59 56 97 56 147 L 56 436 Z M 262 497 L 262 497 Z M 375 497 L 272 497 L 149 660 L 269 660 L 375 497 Z" unicode="ù" />
<glyph horiz-adv-x="531" d="M 56 0 L 56 0 Z M 56 436 L 156 436 L 156 160 C 156 132 165 110 183 95 C 201 79 225 72 255 72 C 286 72 313 81 335 100 C 357 118 369 146 369 182 L 369 436 L 469 436 L 469 0 L 371 0 L 371 76 C 356 50 335 29 307 14 C 279 -1 247 -9 213 -9 C 169 -9 131 4 101 32 C 71 59 56 97 56 147 L 56 436 Z M 262 497 L 262 497 Z M 150 497 L 254 660 L 375 660 L 252 497 L 150 497 Z" unicode="ú" />
<glyph horiz-adv-x="531" d="M 56 0 L 56 0 Z M 56 436 L 156 436 L 156 160 C 156 132 165 110 183 95 C 201 79 225 72 255 72 C 286 72 313 81 335 100 C 357 118 369 146 369 182 L 369 436 L 469 436 L 469 0 L 371 0 L 371 76 C 356 50 335 29 307 14 C 279 -1 247 -9 213 -9 C 169 -9 131 4 101 32 C 71 59 56 97 56 147 L 56 436 Z M 262 498 L 262 498 Z M 438 498 L 343 498 L 262 599 L 180 498 L 87 498 L 210 670 L 315 670 L 438 498 Z" unicode="û" />
<glyph horiz-adv-x="531" d="M 56 0 L 56 0 Z M 56 436 L 156 436 L 156 160 C 156 132 165 110 183 95 C 201 79 225 72 255 72 C 286 72 313 81 335 100 C 357 118 369 146 369 182 L 369 436 L 469 436 L 469 0 L 371 0 L 371 76 C 356 50 335 29 307 14 C 279 -1 247 -9 213 -9 C 169 -9 131 4 101 32 C 71 59 56 97 56 147 L 56 436 Z M 262 498 L 262 498 Z M 399 498 L 313 498 L 313 657 L 399 657 L 399 498 Z M 211 498 L 125 498 L 125 657 L 211 657 L 211 498 Z" unicode="ü" />
<glyph horiz-adv-x="482" d="M 0 0 L 0 0 Z M 482 436 L 224 -89 C 201 -135 175 -165 147 -179 C 119 -193 93 -200 70 -200 C 55 -200 42 -198 31 -195 C 19 -192 11 -190 6 -188 L 33 -94 C 35 -95 41 -97 49 -99 C 57 -101 64 -103 72 -103 C 86 -103 100 -98 112 -90 C 124 -81 136 -64 149 -40 L 190 42 L -4 436 L 107 436 L 241 139 L 377 436 L 482 436 Z M 242 497 L 242 497 Z M 130 497 L 234 660 L 355 660 L 232 497 L 130 497 Z" unicode="ý" />
<glyph horiz-adv-x="544" d="M 61 -200 L 61 730 L 158 730 L 158 360 C 164 380 182 400 211 419 C 239 438 275 448 317 448 C 346 448 373 442 397 431 C 421 420 442 405 460 385 C 478 365 491 342 501 316 C 511 289 516 260 516 230 C 516 192 510 159 498 130 C 486 100 471 76 453 56 C 435 36 414 20 390 10 C 366 0 343 -6 319 -6 C 279 -6 244 1 216 17 C 187 33 168 50 160 69 L 160 -200 L 61 -200 Z M 290 72 C 324 72 353 84 376 110 C 399 136 411 172 411 218 C 411 261 400 297 378 325 C 356 353 325 368 285 368 C 251 368 221 355 197 329 C 172 303 160 264 160 214 C 160 166 173 130 200 107 C 226 83 256 72 290 72 Z" unicode="þ" />
<glyph horiz-adv-x="482" d="M 0 0 L 0 0 Z M 482 436 L 224 -89 C 201 -135 175 -165 147 -179 C 119 -193 93 -200 70 -200 C 55 -200 42 -198 31 -195 C 19 -192 11 -190 6 -188 L 33 -94 C 35 -95 41 -97 49 -99 C 57 -101 64 -103 72 -103 C 86 -103 100 -98 112 -90 C 124 -81 136 -64 149 -40 L 190 42 L -4 436 L 107 436 L 241 139 L 377 436 L 482 436 Z M 242 498 L 242 498 Z M 379 498 L 293 498 L 293 657 L 379 657 L 379 498 Z M 191 498 L 105 498 L 105 657 L 191 657 L 191 498 Z" unicode="ÿ" />
<glyph horiz-adv-x="662" d="M 1 0 L 1 0 Z M 660 0 L 546 0 L 473 181 L 184 181 L 112 0 L 1 0 L 302 733 L 365 733 L 660 0 Z M 438 276 L 328 548 L 219 276 L 438 276 Z M 331 814 L 331 814 Z M 465 814 L 197 814 L 197 889 L 465 889 L 465 814 Z" unicode="Ā" />
<glyph horiz-adv-x="476" d="M 19 0 L 19 0 Z M 421 0 L 326 0 L 326 56 C 313 39 294 23 270 9 C 246 -4 216 -12 180 -12 C 125 -12 84 1 58 29 C 32 56 19 90 19 132 C 19 178 36 214 72 240 C 108 266 159 281 227 285 L 322 290 L 322 300 C 322 321 314 337 299 349 C 283 361 261 367 233 367 C 204 367 178 362 154 352 C 130 342 112 332 100 323 L 57 393 C 73 405 96 418 127 430 C 158 442 197 448 243 448 C 294 448 336 435 370 411 C 404 387 421 348 421 295 L 421 0 Z M 324 121 L 324 214 L 233 210 C 197 208 169 200 149 188 C 129 175 119 158 119 137 C 119 116 126 100 140 89 C 154 78 173 73 197 73 C 225 73 251 78 275 89 C 298 99 314 110 324 121 Z M 232 520 L 232 520 Z M 366 520 L 98 520 L 98 595 L 366 595 L 366 520 Z" unicode="ā" />
<glyph horiz-adv-x="662" d="M 1 0 L 1 0 Z M 660 0 L 546 0 L 473 181 L 184 181 L 112 0 L 1 0 L 302 733 L 365 733 L 660 0 Z M 438 276 L 328 548 L 219 276 L 438 276 Z M 331 796 L 331 796 Z M 407 954 L 492 954 C 488 898 471 858 441 833 C 411 808 375 796 331 796 C 287 796 250 808 220 833 C 190 858 174 898 170 954 L 255 954 C 257 923 264 898 276 879 C 288 860 306 851 331 851 C 355 851 374 860 386 878 C 398 896 405 921 407 954 Z" unicode="Ă" />
<glyph horiz-adv-x="476" d="M 19 0 L 19 0 Z M 421 0 L 326 0 L 326 56 C 313 39 294 23 270 9 C 246 -4 216 -12 180 -12 C 125 -12 84 1 58 29 C 32 56 19 90 19 132 C 19 178 36 214 72 240 C 108 266 159 281 227 285 L 322 290 L 322 300 C 322 321 314 337 299 349 C 283 361 261 367 233 367 C 204 367 178 362 154 352 C 130 342 112 332 100 323 L 57 393 C 73 405 96 418 127 430 C 158 442 197 448 243 448 C 294 448 336 435 370 411 C 404 387 421 348 421 295 L 421 0 Z M 324 121 L 324 214 L 233 210 C 197 208 169 200 149 188 C 129 175 119 158 119 137 C 119 116 126 100 140 89 C 154 78 173 73 197 73 C 225 73 251 78 275 89 C 298 99 314 110 324 121 Z M 232 502 L 232 502 Z M 308 660 L 393 660 C 389 604 372 564 342 539 C 312 514 276 502 232 502 C 188 502 151 514 121 539 C 91 564 75 604 71 660 L 156 660 C 158 629 165 604 177 585 C 189 566 207 557 232 557 C 256 557 275 566 287 584 C 299 602 306 627 308 660 Z" unicode="ă" />
<glyph horiz-adv-x="662" d="M 1 0 L 1 0 Z M 660 0 L 546 0 L 473 181 L 184 181 L 112 0 L 1 0 L 302 733 L 365 733 L 660 0 Z M 438 276 L 328 548 L 219 276 L 438 276 Z M 535 -8 L 535 -8 Z M 638 -91 L 667 -134 C 646 -155 623 -171 598 -182 C 572 -193 544 -199 514 -199 C 479 -199 452 -191 432 -177 C 412 -162 402 -143 402 -121 C 402 -96 414 -73 440 -51 C 465 -29 500 -10 544 5 L 582 5 C 553 -8 530 -22 514 -36 C 497 -50 489 -65 489 -80 C 489 -93 494 -103 505 -111 C 516 -119 530 -123 547 -123 C 566 -123 583 -120 599 -114 C 615 -108 628 -100 638 -91 Z" unicode="Ą" />
<glyph horiz-adv-x="476" d="M 19 0 L 19 0 Z M 421 0 L 326 0 L 326 56 C 313 39 294 23 270 9 C 246 -4 216 -12 180 -12 C 125 -12 84 1 58 29 C 32 56 19 90 19 132 C 19 178 36 214 72 240 C 108 266 159 281 227 285 L 322 290 L 322 300 C 322 321 314 337 299 349 C 283 361 261 367 233 367 C 204 367 178 362 154 352 C 130 342 112 332 100 323 L 57 393 C 73 405 96 418 127 430 C 158 442 197 448 243 448 C 294 448 336 435 370 411 C 404 387 421 348 421 295 L 421 0 Z M 324 121 L 324 214 L 233 210 C 197 208 169 200 149 188 C 129 175 119 158 119 137 C 119 116 126 100 140 89 C 154 78 173 73 197 73 C 225 73 251 78 275 89 C 298 99 314 110 324 121 Z M 329 -8 L 329 -8 Z M 432 -91 L 461 -134 C 440 -155 417 -171 392 -182 C 366 -193 338 -199 308 -199 C 273 -199 246 -191 226 -177 C 206 -162 196 -143 196 -121 C 196 -96 208 -73 234 -51 C 259 -29 294 -10 338 5 L 376 5 C 347 -8 324 -22 308 -36 C 291 -50 283 -65 283 -80 C 283 -93 288 -103 299 -111 C 310 -119 324 -123 341 -123 C 360 -123 377 -120 393 -114 C 409 -108 422 -100 432 -91 Z" unicode="ą" />
<glyph horiz-adv-x="706" d="M 46 0 L 46 0 Z M 407 -12 C 357 -12 309 -3 265 13 C 221 30 182 55 150 87 C 118 119 92 158 74 205 C 55 252 46 305 46 365 C 46 419 55 469 73 515 C 91 561 116 601 148 635 C 180 668 218 694 263 713 C 307 732 356 742 409 742 C 475 742 530 732 575 714 C 619 696 657 671 688 640 L 621 549 C 600 573 572 594 538 611 C 504 628 462 637 413 637 C 372 637 336 630 304 616 C 272 602 246 583 225 559 C 203 535 187 506 176 472 C 165 438 160 401 160 361 C 160 315 167 274 181 240 C 195 206 213 177 236 155 C 259 132 286 115 317 104 C 347 93 379 88 413 88 C 465 88 509 98 546 118 C 583 138 614 163 638 193 L 701 121 C 669 81 628 49 578 25 C 528 0 471 -12 407 -12 Z M 410 791 L 410 791 Z M 298 791 L 402 954 L 523 954 L 400 791 L 298 791 Z" unicode="Ć" />
<glyph horiz-adv-x="463" d="M 28 0 L 28 0 Z M 373 145 L 458 98 C 442 70 418 44 386 22 C 354 0 310 -11 255 -11 C 221 -11 189 -5 161 6 C 133 18 109 34 89 54 C 69 74 54 98 44 126 C 33 154 28 185 28 218 C 28 251 34 282 46 310 C 58 338 74 363 95 383 C 115 403 140 419 168 431 C 196 443 227 449 260 449 C 313 449 356 437 390 415 C 423 392 447 367 461 341 L 366 294 C 356 312 342 327 325 339 C 307 351 285 357 259 357 C 222 357 192 343 168 317 C 144 290 133 257 133 217 C 133 176 144 143 168 117 C 191 91 222 79 260 79 C 292 79 317 86 334 101 C 351 115 364 130 373 145 Z M 244 497 L 244 497 Z M 132 497 L 236 660 L 357 660 L 234 497 L 132 497 Z" unicode="ć" />
<glyph horiz-adv-x="706" d="M 46 0 L 46 0 Z M 407 -12 C 357 -12 309 -3 265 13 C 221 30 182 55 150 87 C 118 119 92 158 74 205 C 55 252 46 305 46 365 C 46 419 55 469 73 515 C 91 561 116 601 148 635 C 180 668 218 694 263 713 C 307 732 356 742 409 742 C 475 742 530 732 575 714 C 619 696 657 671 688 640 L 621 549 C 600 573 572 594 538 611 C 504 628 462 637 413 637 C 372 637 336 630 304 616 C 272 602 246 583 225 559 C 203 535 187 506 176 472 C 165 438 160 401 160 361 C 160 315 167 274 181 240 C 195 206 213 177 236 155 C 259 132 286 115 317 104 C 347 93 379 88 413 88 C 465 88 509 98 546 118 C 583 138 614 163 638 193 L 701 121 C 669 81 628 49 578 25 C 528 0 471 -12 407 -12 Z M 410 792 L 410 792 Z M 586 792 L 491 792 L 410 893 L 328 792 L 235 792 L 358 964 L 463 964 L 586 792 Z" unicode="Ĉ" />
<glyph horiz-adv-x="463" d="M 28 0 L 28 0 Z M 373 145 L 458 98 C 442 70 418 44 386 22 C 354 0 310 -11 255 -11 C 221 -11 189 -5 161 6 C 133 18 109 34 89 54 C 69 74 54 98 44 126 C 33 154 28 185 28 218 C 28 251 34 282 46 310 C 58 338 74 363 95 383 C 115 403 140 419 168 431 C 196 443 227 449 260 449 C 313 449 356 437 390 415 C 423 392 447 367 461 341 L 366 294 C 356 312 342 327 325 339 C 307 351 285 357 259 357 C 222 357 192 343 168 317 C 144 290 133 257 133 217 C 133 176 144 143 168 117 C 191 91 222 79 260 79 C 292 79 317 86 334 101 C 351 115 364 130 373 145 Z M 244 498 L 244 498 Z M 420 498 L 325 498 L 244 599 L 162 498 L 69 498 L 192 670 L 297 670 L 420 498 Z" unicode="ĉ" />
<glyph horiz-adv-x="706" d="M 46 0 L 46 0 Z M 407 -12 C 357 -12 309 -3 265 13 C 221 30 182 55 150 87 C 118 119 92 158 74 205 C 55 252 46 305 46 365 C 46 419 55 469 73 515 C 91 561 116 601 148 635 C 180 668 218 694 263 713 C 307 732 356 742 409 742 C 475 742 530 732 575 714 C 619 696 657 671 688 640 L 621 549 C 600 573 572 594 538 611 C 504 628 462 637 413 637 C 372 637 336 630 304 616 C 272 602 246 583 225 559 C 203 535 187 506 176 472 C 165 438 160 401 160 361 C 160 315 167 274 181 240 C 195 206 213 177 236 155 C 259 132 286 115 317 104 C 347 93 379 88 413 88 C 465 88 509 98 546 118 C 583 138 614 163 638 193 L 701 121 C 669 81 628 49 578 25 C 528 0 471 -12 407 -12 Z M 410 792 L 410 792 Z M 457 792 L 364 792 L 364 956 L 457 956 L 457 792 Z" unicode="Ċ" />
<glyph horiz-adv-x="463" d="M 28 0 L 28 0 Z M 373 145 L 458 98 C 442 70 418 44 386 22 C 354 0 310 -11 255 -11 C 221 -11 189 -5 161 6 C 133 18 109 34 89 54 C 69 74 54 98 44 126 C 33 154 28 185 28 218 C 28 251 34 282 46 310 C 58 338 74 363 95 383 C 115 403 140 419 168 431 C 196 443 227 449 260 449 C 313 449 356 437 390 415 C 423 392 447 367 461 341 L 366 294 C 356 312 342 327 325 339 C 307 351 285 357 259 357 C 222 357 192 343 168 317 C 144 290 133 257 133 217 C 133 176 144 143 168 117 C 191 91 222 79 260 79 C 292 79 317 86 334 101 C 351 115 364 130 373 145 Z M 244 498 L 244 498 Z M 291 498 L 198 498 L 198 662 L 291 662 L 291 498 Z" unicode="ċ" />
<glyph horiz-adv-x="706" d="M 46 0 L 46 0 Z M 407 -12 C 357 -12 309 -3 265 13 C 221 30 182 55 150 87 C 118 119 92 158 74 205 C 55 252 46 305 46 365 C 46 419 55 469 73 515 C 91 561 116 601 148 635 C 180 668 218 694 263 713 C 307 732 356 742 409 742 C 475 742 530 732 575 714 C 619 696 657 671 688 640 L 621 549 C 600 573 572 594 538 611 C 504 628 462 637 413 637 C 372 637 336 630 304 616 C 272 602 246 583 225 559 C 203 535 187 506 176 472 C 165 438 160 401 160 361 C 160 315 167 274 181 240 C 195 206 213 177 236 155 C 259 132 286 115 317 104 C 347 93 379 88 413 88 C 465 88 509 98 546 118 C 583 138 614 163 638 193 L 701 121 C 669 81 628 49 578 25 C 528 0 471 -12 407 -12 Z M 410 792 L 410 792 Z M 235 964 L 330 964 L 411 863 L 493 964 L 586 964 L 463 792 L 358 792 L 235 964 Z" unicode="Č" />
<glyph horiz-adv-x="463" d="M 28 0 L 28 0 Z M 373 145 L 458 98 C 442 70 418 44 386 22 C 354 0 310 -11 255 -11 C 221 -11 189 -5 161 6 C 133 18 109 34 89 54 C 69 74 54 98 44 126 C 33 154 28 185 28 218 C 28 251 34 282 46 310 C 58 338 74 363 95 383 C 115 403 140 419 168 431 C 196 443 227 449 260 449 C 313 449 356 437 390 415 C 423 392 447 367 461 341 L 366 294 C 356 312 342 327 325 339 C 307 351 285 357 259 357 C 222 357 192 343 168 317 C 144 290 133 257 133 217 C 133 176 144 143 168 117 C 191 91 222 79 260 79 C 292 79 317 86 334 101 C 351 115 364 130 373 145 Z M 244 498 L 244 498 Z M 69 670 L 164 670 L 245 569 L 327 670 L 420 670 L 297 498 L 192 498 L 69 670 Z" unicode="č" />
<glyph horiz-adv-x="752" d="M 94 0 L 94 0 Z M 94 0 L 94 730 L 321 730 C 381 730 435 721 483 704 C 531 687 571 663 604 633 C 636 602 661 565 679 521 C 696 477 705 429 705 377 C 705 324 696 274 679 228 C 661 182 636 142 603 108 C 569 74 528 48 478 29 C 428 9 370 0 305 0 L 94 0 Z M 204 98 L 303 98 C 351 98 394 105 430 119 C 466 133 496 153 520 178 C 543 202 560 232 572 266 C 584 300 590 336 590 374 C 590 450 565 511 517 559 C 469 606 402 630 317 630 L 204 630 L 204 98 Z M 353 792 L 353 792 Z M 178 964 L 273 964 L 354 863 L 436 964 L 529 964 L 406 792 L 301 792 L 178 964 Z" unicode="Ď" />
<glyph horiz-adv-x="541" d="M 28 0 L 28 0 Z M 235 -7 C 204 -7 176 -1 151 10 C 125 21 103 36 85 56 C 67 76 53 99 43 125 C 33 151 28 179 28 209 C 28 244 33 276 44 306 C 55 336 70 361 90 382 C 109 403 131 419 157 431 C 183 443 210 449 239 449 C 275 449 305 441 329 427 C 353 413 371 397 381 381 L 381 730 L 480 730 L 480 0 L 385 0 L 385 78 C 376 57 359 38 333 20 C 307 2 275 -7 235 -7 Z M 262 73 C 294 73 323 86 348 113 C 372 140 385 177 385 223 C 385 272 372 308 346 332 C 320 355 290 367 257 367 C 220 367 190 353 167 326 C 144 299 133 264 133 220 C 133 179 144 144 166 116 C 188 87 220 73 262 73 Z M 637 621 L 632 480 L 546 480 L 542 621 L 542 730 L 637 730 L 637 621 Z" unicode="ď" />
<glyph horiz-adv-x="752" d="M 35 0 L 35 0 Z M 705 367 C 705 316 696 268 679 224 C 661 179 636 140 603 107 C 569 74 528 48 478 29 C 428 9 370 0 305 0 L 94 0 L 94 311 L 35 311 L 35 403 L 94 403 L 94 730 L 321 730 C 383 730 438 721 486 704 C 534 686 574 662 606 631 C 638 599 663 561 680 516 C 696 471 705 421 705 367 Z M 204 98 L 301 98 C 352 98 396 105 433 120 C 469 135 499 155 522 180 C 545 204 562 233 573 265 C 584 297 590 330 590 364 C 590 446 566 510 519 558 C 472 606 406 630 321 630 L 204 630 L 204 403 L 374 403 L 374 311 L 204 311 L 204 98 Z" unicode="Đ" />
<glyph horiz-adv-x="541" d="M 385 78 C 376 57 359 38 333 20 C 307 2 275 -7 235 -7 C 204 -7 176 -1 151 10 C 125 21 103 36 85 56 C 67 76 53 99 43 125 C 33 151 28 179 28 209 C 28 244 33 276 44 306 C 55 336 70 361 90 382 C 109 403 131 419 157 431 C 183 443 210 449 239 449 C 275 449 305 441 329 427 C 353 413 371 397 381 381 L 381 546 L 274 546 L 274 634 L 381 634 L 381 730 L 480 730 L 480 634 L 532 634 L 532 546 L 480 546 L 480 0 L 385 0 L 385 78 Z M 262 73 C 294 73 323 86 348 113 C 372 140 385 177 385 223 C 385 272 372 308 346 332 C 320 355 290 367 257 367 C 220 367 190 353 167 326 C 144 299 133 264 133 220 C 133 179 144 144 166 116 C 188 87 220 73 262 73 Z" unicode="đ" />
<glyph horiz-adv-x="587" d="M 94 0 L 94 0 Z M 537 0 L 94 0 L 94 730 L 518 730 L 518 631 L 203 631 L 203 410 L 502 410 L 502 310 L 203 310 L 203 99 L 537 99 L 537 0 Z M 309 814 L 309 814 Z M 443 814 L 175 814 L 175 889 L 443 889 L 443 814 Z" unicode="Ē" />
<glyph horiz-adv-x="500" d="M 29 0 L 29 0 Z M 270 -11 C 235 -11 203 -5 173 4 C 143 14 118 29 97 48 C 75 67 59 91 47 119 C 35 147 29 178 29 214 C 29 246 34 277 46 306 C 57 334 73 359 93 381 C 113 402 138 419 167 431 C 196 443 228 449 263 449 C 330 449 384 426 426 381 C 467 336 488 271 488 187 L 124 187 C 126 153 140 126 165 105 C 189 83 224 73 270 73 C 308 73 336 78 356 90 C 376 102 391 114 401 126 L 464 66 C 445 45 422 27 394 12 C 366 -3 325 -11 270 -11 Z M 128 266 L 390 266 C 388 292 375 315 353 335 C 331 355 300 365 260 365 C 222 365 191 355 167 335 C 143 315 130 292 128 266 Z M 259 520 L 259 520 Z M 393 520 L 125 520 L 125 595 L 393 595 L 393 520 Z" unicode="ē" />
<glyph horiz-adv-x="587" d="M 94 0 L 94 0 Z M 537 0 L 94 0 L 94 730 L 518 730 L 518 631 L 203 631 L 203 410 L 502 410 L 502 310 L 203 310 L 203 99 L 537 99 L 537 0 Z M 309 796 L 309 796 Z M 385 954 L 470 954 C 466 898 449 858 419 833 C 389 808 353 796 309 796 C 265 796 228 808 198 833 C 168 858 152 898 148 954 L 233 954 C 235 923 242 898 254 879 C 266 860 284 851 309 851 C 333 851 352 860 364 878 C 376 896 383 921 385 954 Z" unicode="Ĕ" />
<glyph horiz-adv-x="500" d="M 29 0 L 29 0 Z M 270 -11 C 235 -11 203 -5 173 4 C 143 14 118 29 97 48 C 75 67 59 91 47 119 C 35 147 29 178 29 214 C 29 246 34 277 46 306 C 57 334 73 359 93 381 C 113 402 138 419 167 431 C 196 443 228 449 263 449 C 330 449 384 426 426 381 C 467 336 488 271 488 187 L 124 187 C 126 153 140 126 165 105 C 189 83 224 73 270 73 C 308 73 336 78 356 90 C 376 102 391 114 401 126 L 464 66 C 445 45 422 27 394 12 C 366 -3 325 -11 270 -11 Z M 128 266 L 390 266 C 388 292 375 315 353 335 C 331 355 300 365 260 365 C 222 365 191 355 167 335 C 143 315 130 292 128 266 Z M 259 502 L 259 502 Z M 335 660 L 420 660 C 416 604 399 564 369 539 C 339 514 303 502 259 502 C 215 502 178 514 148 539 C 118 564 102 604 98 660 L 183 660 C 185 629 192 604 204 585 C 216 566 234 557 259 557 C 283 557 302 566 314 584 C 326 602 333 627 335 660 Z" unicode="ĕ" />
<glyph horiz-adv-x="587" d="M 94 0 L 94 0 Z M 537 0 L 94 0 L 94 730 L 518 730 L 518 631 L 203 631 L 203 410 L 502 410 L 502 310 L 203 310 L 203 99 L 537 99 L 537 0 Z M 309 792 L 309 792 Z M 356 792 L 263 792 L 263 956 L 356 956 L 356 792 Z" unicode="Ė" />
<glyph horiz-adv-x="500" d="M 29 0 L 29 0 Z M 270 -11 C 235 -11 203 -5 173 4 C 143 14 118 29 97 48 C 75 67 59 91 47 119 C 35 147 29 178 29 214 C 29 246 34 277 46 306 C 57 334 73 359 93 381 C 113 402 138 419 167 431 C 196 443 228 449 263 449 C 330 449 384 426 426 381 C 467 336 488 271 488 187 L 124 187 C 126 153 140 126 165 105 C 189 83 224 73 270 73 C 308 73 336 78 356 90 C 376 102 391 114 401 126 L 464 66 C 445 45 422 27 394 12 C 366 -3 325 -11 270 -11 Z M 128 266 L 390 266 C 388 292 375 315 353 335 C 331 355 300 365 260 365 C 222 365 191 355 167 335 C 143 315 130 292 128 266 Z M 259 498 L 259 498 Z M 306 498 L 213 498 L 213 662 L 306 662 L 306 498 Z" unicode="ė" />
<glyph horiz-adv-x="587" d="M 94 0 L 94 0 Z M 537 0 L 94 0 L 94 730 L 518 730 L 518 631 L 203 631 L 203 410 L 502 410 L 502 310 L 203 310 L 203 99 L 537 99 L 537 0 Z M 490 -8 L 490 -8 Z M 593 -91 L 622 -134 C 601 -155 578 -171 553 -182 C 527 -193 499 -199 469 -199 C 434 -199 407 -191 387 -177 C 367 -162 357 -143 357 -121 C 357 -96 369 -73 395 -51 C 420 -29 455 -10 499 5 L 537 5 C 508 -8 485 -22 469 -36 C 452 -50 444 -65 444 -80 C 444 -93 449 -103 460 -111 C 471 -119 485 -123 502 -123 C 521 -123 538 -120 554 -114 C 570 -108 583 -100 593 -91 Z" unicode="Ę" />
<glyph horiz-adv-x="500" d="M 29 0 L 29 0 Z M 270 -11 C 235 -11 203 -5 173 4 C 143 14 118 29 97 48 C 75 67 59 91 47 119 C 35 147 29 178 29 214 C 29 246 34 277 46 306 C 57 334 73 359 93 381 C 113 402 138 419 167 431 C 196 443 228 449 263 449 C 330 449 384 426 426 381 C 467 336 488 271 488 187 L 124 187 C 126 153 140 126 165 105 C 189 83 224 73 270 73 C 308 73 336 78 356 90 C 376 102 391 114 401 126 L 464 66 C 445 45 422 27 394 12 C 366 -3 325 -11 270 -11 Z M 128 266 L 390 266 C 388 292 375 315 353 335 C 331 355 300 365 260 365 C 222 365 191 355 167 335 C 143 315 130 292 128 266 Z M 329 -8 L 329 -8 Z M 432 -91 L 461 -134 C 440 -155 417 -171 392 -182 C 366 -193 338 -199 308 -199 C 273 -199 246 -191 226 -177 C 206 -162 196 -143 196 -121 C 196 -96 208 -73 234 -51 C 259 -29 294 -10 338 5 L 376 5 C 347 -8 324 -22 308 -36 C 291 -50 283 -65 283 -80 C 283 -93 288 -103 299 -111 C 310 -119 324 -123 341 -123 C 360 -123 377 -120 393 -114 C 409 -108 422 -100 432 -91 Z" unicode="ę" />
<glyph horiz-adv-x="587" d="M 94 0 L 94 0 Z M 537 0 L 94 0 L 94 730 L 518 730 L 518 631 L 203 631 L 203 410 L 502 410 L 502 310 L 203 310 L 203 99 L 537 99 L 537 0 Z M 309 792 L 309 792 Z M 134 964 L 229 964 L 310 863 L 392 964 L 485 964 L 362 792 L 257 792 L 134 964 Z" unicode="Ě" />
<glyph horiz-adv-x="500" d="M 29 0 L 29 0 Z M 270 -11 C 235 -11 203 -5 173 4 C 143 14 118 29 97 48 C 75 67 59 91 47 119 C 35 147 29 178 29 214 C 29 246 34 277 46 306 C 57 334 73 359 93 381 C 113 402 138 419 167 431 C 196 443 228 449 263 449 C 330 449 384 426 426 381 C 467 336 488 271 488 187 L 124 187 C 126 153 140 126 165 105 C 189 83 224 73 270 73 C 308 73 336 78 356 90 C 376 102 391 114 401 126 L 464 66 C 445 45 422 27 394 12 C 366 -3 325 -11 270 -11 Z M 128 266 L 390 266 C 388 292 375 315 353 335 C 331 355 300 365 260 365 C 222 365 191 355 167 335 C 143 315 130 292 128 266 Z M 259 498 L 259 498 Z M 84 670 L 179 670 L 260 569 L 342 670 L 435 670 L 312 498 L 207 498 L 84 670 Z" unicode="ě" />
<glyph horiz-adv-x="768" d="M 46 0 L 46 0 Z M 424 375 L 724 375 L 724 149 C 698 102 658 63 606 33 C 553 3 489 -12 414 -12 C 361 -12 312 -2 267 16 C 221 34 182 60 150 94 C 118 127 92 167 74 213 C 55 259 46 310 46 365 C 46 423 56 475 76 522 C 96 568 122 608 156 640 C 190 672 229 697 274 715 C 319 733 367 742 417 742 C 454 742 487 738 515 732 C 543 725 567 717 588 707 C 608 697 626 686 641 674 C 655 662 668 650 678 639 L 605 565 C 587 581 563 597 533 613 C 502 629 462 637 413 637 C 375 637 341 630 310 617 C 278 603 251 584 229 560 C 207 536 189 507 177 474 C 164 440 158 404 158 364 C 158 326 164 291 177 257 C 189 223 207 193 230 168 C 253 142 281 122 313 107 C 345 92 381 85 420 85 C 468 85 510 94 547 113 C 584 131 611 155 628 184 L 628 272 L 424 272 L 424 375 Z M 416 792 L 416 792 Z M 592 792 L 497 792 L 416 893 L 334 792 L 241 792 L 364 964 L 469 964 L 592 792 Z" unicode="Ĝ" />
<glyph horiz-adv-x="541" d="M 28 0 L 28 0 Z M 233 -2 C 202 -2 174 3 149 14 C 123 25 102 40 84 60 C 66 80 53 103 43 130 C 33 157 28 187 28 219 C 28 287 47 342 87 385 C 126 427 176 449 237 449 C 272 449 303 441 330 427 C 356 412 375 396 385 378 L 385 436 L 480 436 L 480 34 C 480 -4 474 -37 462 -65 C 450 -93 433 -117 413 -135 C 392 -153 368 -167 340 -176 C 312 -185 281 -190 249 -190 C 199 -190 159 -184 131 -174 C 102 -164 80 -154 66 -144 L 104 -65 C 115 -74 132 -84 154 -94 C 176 -104 205 -109 239 -109 C 257 -109 275 -106 292 -102 C 309 -97 324 -90 337 -80 C 350 -70 361 -58 369 -43 C 377 -28 381 -10 381 10 L 381 75 C 372 54 354 36 327 21 C 300 5 269 -2 233 -2 Z M 261 73 C 295 73 325 86 349 114 C 373 142 385 178 385 222 C 385 265 372 300 347 327 C 321 354 290 368 252 368 C 219 368 191 354 168 327 C 144 300 133 264 133 219 C 133 176 144 141 167 114 C 190 86 221 73 261 73 Z M 243 498 L 243 498 Z M 419 498 L 324 498 L 243 599 L 161 498 L 68 498 L 191 670 L 296 670 L 419 498 Z" unicode="ĝ" />
<glyph horiz-adv-x="768" d="M 46 0 L 46 0 Z M 424 375 L 724 375 L 724 149 C 698 102 658 63 606 33 C 553 3 489 -12 414 -12 C 361 -12 312 -2 267 16 C 221 34 182 60 150 94 C 118 127 92 167 74 213 C 55 259 46 310 46 365 C 46 423 56 475 76 522 C 96 568 122 608 156 640 C 190 672 229 697 274 715 C 319 733 367 742 417 742 C 454 742 487 738 515 732 C 543 725 567 717 588 707 C 608 697 626 686 641 674 C 655 662 668 650 678 639 L 605 565 C 587 581 563 597 533 613 C 502 629 462 637 413 637 C 375 637 341 630 310 617 C 278 603 251 584 229 560 C 207 536 189 507 177 474 C 164 440 158 404 158 364 C 158 326 164 291 177 257 C 189 223 207 193 230 168 C 253 142 281 122 313 107 C 345 92 381 85 420 85 C 468 85 510 94 547 113 C 584 131 611 155 628 184 L 628 272 L 424 272 L 424 375 Z M 416 796 L 416 796 Z M 492 954 L 577 954 C 573 898 556 858 526 833 C 496 808 460 796 416 796 C 372 796 335 808 305 833 C 275 858 259 898 255 954 L 340 954 C 342 923 349 898 361 879 C 373 860 391 851 416 851 C 440 851 459 860 471 878 C 483 896 490 921 492 954 Z" unicode="Ğ" />
<glyph horiz-adv-x="541" d="M 28 0 L 28 0 Z M 233 -2 C 202 -2 174 3 149 14 C 123 25 102 40 84 60 C 66 80 53 103 43 130 C 33 157 28 187 28 219 C 28 287 47 342 87 385 C 126 427 176 449 237 449 C 272 449 303 441 330 427 C 356 412 375 396 385 378 L 385 436 L 480 436 L 480 34 C 480 -4 474 -37 462 -65 C 450 -93 433 -117 413 -135 C 392 -153 368 -167 340 -176 C 312 -185 281 -190 249 -190 C 199 -190 159 -184 131 -174 C 102 -164 80 -154 66 -144 L 104 -65 C 115 -74 132 -84 154 -94 C 176 -104 205 -109 239 -109 C 257 -109 275 -106 292 -102 C 309 -97 324 -90 337 -80 C 350 -70 361 -58 369 -43 C 377 -28 381 -10 381 10 L 381 75 C 372 54 354 36 327 21 C 300 5 269 -2 233 -2 Z M 261 73 C 295 73 325 86 349 114 C 373 142 385 178 385 222 C 385 265 372 300 347 327 C 321 354 290 368 252 368 C 219 368 191 354 168 327 C 144 300 133 264 133 219 C 133 176 144 141 167 114 C 190 86 221 73 261 73 Z M 243 502 L 243 502 Z M 319 660 L 404 660 C 400 604 383 564 353 539 C 323 514 287 502 243 502 C 199 502 162 514 132 539 C 102 564 86 604 82 660 L 167 660 C 169 629 176 604 188 585 C 200 566 218 557 243 557 C 267 557 286 566 298 584 C 310 602 317 627 319 660 Z" unicode="ğ" />
<glyph horiz-adv-x="768" d="M 46 0 L 46 0 Z M 424 375 L 724 375 L 724 149 C 698 102 658 63 606 33 C 553 3 489 -12 414 -12 C 361 -12 312 -2 267 16 C 221 34 182 60 150 94 C 118 127 92 167 74 213 C 55 259 46 310 46 365 C 46 423 56 475 76 522 C 96 568 122 608 156 640 C 190 672 229 697 274 715 C 319 733 367 742 417 742 C 454 742 487 738 515 732 C 543 725 567 717 588 707 C 608 697 626 686 641 674 C 655 662 668 650 678 639 L 605 565 C 587 581 563 597 533 613 C 502 629 462 637 413 637 C 375 637 341 630 310 617 C 278 603 251 584 229 560 C 207 536 189 507 177 474 C 164 440 158 404 158 364 C 158 326 164 291 177 257 C 189 223 207 193 230 168 C 253 142 281 122 313 107 C 345 92 381 85 420 85 C 468 85 510 94 547 113 C 584 131 611 155 628 184 L 628 272 L 424 272 L 424 375 Z M 416 792 L 416 792 Z M 463 792 L 370 792 L 370 956 L 463 956 L 463 792 Z" unicode="Ġ" />
<glyph horiz-adv-x="541" d="M 28 0 L 28 0 Z M 233 -2 C 202 -2 174 3 149 14 C 123 25 102 40 84 60 C 66 80 53 103 43 130 C 33 157 28 187 28 219 C 28 287 47 342 87 385 C 126 427 176 449 237 449 C 272 449 303 441 330 427 C 356 412 375 396 385 378 L 385 436 L 480 436 L 480 34 C 480 -4 474 -37 462 -65 C 450 -93 433 -117 413 -135 C 392 -153 368 -167 340 -176 C 312 -185 281 -190 249 -190 C 199 -190 159 -184 131 -174 C 102 -164 80 -154 66 -144 L 104 -65 C 115 -74 132 -84 154 -94 C 176 -104 205 -109 239 -109 C 257 -109 275 -106 292 -102 C 309 -97 324 -90 337 -80 C 350 -70 361 -58 369 -43 C 377 -28 381 -10 381 10 L 381 75 C 372 54 354 36 327 21 C 300 5 269 -2 233 -2 Z M 261 73 C 295 73 325 86 349 114 C 373 142 385 178 385 222 C 385 265 372 300 347 327 C 321 354 290 368 252 368 C 219 368 191 354 168 327 C 144 300 133 264 133 219 C 133 176 144 141 167 114 C 190 86 221 73 261 73 Z M 243 498 L 243 498 Z M 290 498 L 197 498 L 197 662 L 290 662 L 290 498 Z" unicode="ġ" />
<glyph horiz-adv-x="768" d="M 46 0 L 46 0 Z M 424 375 L 724 375 L 724 149 C 698 102 658 63 606 33 C 553 3 489 -12 414 -12 C 361 -12 312 -2 267 16 C 221 34 182 60 150 94 C 118 127 92 167 74 213 C 55 259 46 310 46 365 C 46 423 56 475 76 522 C 96 568 122 608 156 640 C 190 672 229 697 274 715 C 319 733 367 742 417 742 C 454 742 487 738 515 732 C 543 725 567 717 588 707 C 608 697 626 686 641 674 C 655 662 668 650 678 639 L 605 565 C 587 581 563 597 533 613 C 502 629 462 637 413 637 C 375 637 341 630 310 617 C 278 603 251 584 229 560 C 207 536 189 507 177 474 C 164 440 158 404 158 364 C 158 326 164 291 177 257 C 189 223 207 193 230 168 C 253 142 281 122 313 107 C 345 92 381 85 420 85 C 468 85 510 94 547 113 C 584 131 611 155 628 184 L 628 272 L 424 272 L 424 375 Z" unicode="Ģ" />
<glyph horiz-adv-x="541" d="M 28 0 L 28 0 Z M 233 -2 C 202 -2 174 3 149 14 C 123 25 102 40 84 60 C 66 80 53 103 43 130 C 33 157 28 187 28 219 C 28 287 47 342 87 385 C 126 427 176 449 237 449 C 272 449 303 441 330 427 C 356 412 375 396 385 378 L 385 436 L 480 436 L 480 34 C 480 -4 474 -37 462 -65 C 450 -93 433 -117 413 -135 C 392 -153 368 -167 340 -176 C 312 -185 281 -190 249 -190 C 199 -190 159 -184 131 -174 C 102 -164 80 -154 66 -144 L 104 -65 C 115 -74 132 -84 154 -94 C 176 -104 205 -109 239 -109 C 257 -109 275 -106 292 -102 C 309 -97 324 -90 337 -80 C 350 -70 361 -58 369 -43 C 377 -28 381 -10 381 10 L 381 75 C 372 54 354 36 327 21 C 300 5 269 -2 233 -2 Z M 261 73 C 295 73 325 86 349 114 C 373 142 385 178 385 222 C 385 265 372 300 347 327 C 321 354 290 368 252 368 C 219 368 191 354 168 327 C 144 300 133 264 133 219 C 133 176 144 141 167 114 C 190 86 221 73 261 73 Z" unicode="ģ" />
<glyph horiz-adv-x="768" d="M 94 0 L 94 0 Z M 674 0 L 564 0 L 564 308 L 204 308 L 204 0 L 94 0 L 94 730 L 204 730 L 204 412 L 564 412 L 564 730 L 674 730 L 674 0 Z M 382 792 L 382 792 Z M 558 792 L 463 792 L 382 893 L 300 792 L 207 792 L 330 964 L 435 964 L 558 792 Z" unicode="Ĥ" />
<glyph horiz-adv-x="530" d="M 61 0 L 61 0 Z M 475 0 L 374 0 L 374 277 C 374 305 365 328 347 344 C 329 360 306 368 276 368 C 246 368 220 358 197 339 C 173 320 162 292 162 256 L 162 0 L 61 0 L 61 730 L 157 730 L 157 357 C 165 381 183 403 210 421 C 237 439 272 449 315 449 C 363 449 401 435 431 407 C 460 379 475 342 475 294 L 475 0 Z M 268 792 L 268 792 Z M 444 792 L 349 792 L 268 893 L 186 792 L 93 792 L 216 964 L 321 964 L 444 792 Z" unicode="ĥ" />
<glyph horiz-adv-x="768" d="M 204 308 L 204 0 L 94 0 L 94 548 L 10 548 L 10 634 L 94 634 L 94 730 L 204 730 L 204 634 L 564 634 L 564 730 L 674 730 L 674 634 L 757 634 L 757 548 L 674 548 L 674 0 L 564 0 L 564 308 L 204 308 Z M 204 412 L 564 412 L 564 548 L 204 548 L 204 412 Z" unicode="Ħ" />
<glyph horiz-adv-x="530" d="M 162 256 L 162 0 L 61 0 L 61 548 L 10 548 L 10 634 L 61 634 L 61 730 L 157 730 L 157 634 L 277 634 L 277 548 L 157 548 L 157 357 C 165 381 183 403 210 421 C 237 439 272 449 315 449 C 363 449 401 435 431 407 C 460 379 475 342 475 294 L 475 0 L 374 0 L 374 277 C 374 305 365 328 347 344 C 329 360 306 368 276 368 C 246 368 220 358 197 339 C 173 320 162 292 162 256 Z" unicode="ħ" />
<glyph horiz-adv-x="307" d="M 0 0 L 0 0 Z M 209 0 L 99 0 L 99 730 L 209 730 L 209 0 Z M 153 798 L 153 798 Z M 240 938 L 314 938 C 314 890 307 854 294 832 C 280 809 263 798 241 798 C 222 798 206 801 192 808 C 178 814 166 820 158 826 C 148 831 139 836 131 842 C 123 847 115 850 107 850 C 98 850 91 845 85 835 C 79 825 77 814 77 802 L 0 802 C 0 849 9 884 28 907 C 47 930 67 942 88 942 C 103 942 116 938 128 932 C 139 926 151 919 163 912 C 171 906 179 900 187 894 C 195 888 203 886 211 886 C 217 886 224 890 230 900 C 236 910 240 922 240 938 Z" unicode="Ĩ" />
<glyph horiz-adv-x="235" d="M 0 0 L 0 0 Z M 168 0 L 67 0 L 67 436 L 168 436 L 168 0 Z M 117 504 L 117 504 Z M 204 644 L 278 644 C 278 596 271 560 258 538 C 244 515 227 504 205 504 C 186 504 170 507 156 514 C 142 520 130 526 122 532 C 112 537 103 542 95 548 C 87 553 79 556 71 556 C 62 556 55 551 49 541 C 43 531 41 520 41 508 L -36 508 C -36 555 -26 590 -7 613 C 11 636 31 648 52 648 C 67 648 80 644 92 638 C 103 632 115 625 127 618 C 135 612 143 606 151 600 C 159 594 167 592 175 592 C 181 592 188 596 194 606 C 200 616 204 628 204 644 Z" unicode="ĩ" />
<glyph horiz-adv-x="307" d="M 19 0 L 19 0 Z M 209 0 L 99 0 L 99 730 L 209 730 L 209 0 Z M 153 814 L 153 814 Z M 287 814 L 19 814 L 19 889 L 287 889 L 287 814 Z" unicode="Ī" />
<glyph horiz-adv-x="235" d="M 0 0 L 0 0 Z M 168 0 L 67 0 L 67 436 L 168 436 L 168 0 Z M 117 520 L 117 520 Z M 251 520 L -17 520 L -17 595 L 251 595 L 251 520 Z" unicode="ī" />
<glyph horiz-adv-x="307" d="M 0 0 L 0 0 Z M 209 0 L 99 0 L 99 730 L 209 730 L 209 0 Z M 153 796 L 153 796 Z M 229 954 L 314 954 C 310 898 293 858 263 833 C 233 808 197 796 153 796 C 109 796 72 808 42 833 C 12 858 -4 898 -8 954 L 77 954 C 79 923 86 898 98 879 C 110 860 128 851 153 851 C 177 851 196 860 208 878 C 220 896 227 921 229 954 Z" unicode="Ĭ" />
<glyph horiz-adv-x="235" d="M 0 0 L 0 0 Z M 168 0 L 67 0 L 67 436 L 168 436 L 168 0 Z M 117 502 L 117 502 Z M 193 660 L 278 660 C 274 604 257 564 227 539 C 197 514 161 502 117 502 C 73 502 36 514 6 539 C -23 564 -40 604 -44 660 L 41 660 C 43 629 50 604 62 585 C 74 566 92 557 117 557 C 141 557 160 566 172 584 C 184 602 191 627 193 660 Z" unicode="ĭ" />
<glyph horiz-adv-x="307" d="M 0 0 L 0 0 Z M 209 0 L 99 0 L 99 730 L 209 730 L 209 0 Z M 90 -12 L 90 -12 Z M 193 -95 L 222 -138 C 201 -159 178 -175 153 -186 C 127 -197 99 -203 69 -203 C 34 -203 7 -195 -13 -181 C -33 -166 -43 -147 -43 -125 C -43 -100 -30 -77 -5 -55 C 20 -33 55 -14 99 1 L 137 1 C 108 -12 85 -26 69 -40 C 52 -54 44 -69 44 -84 C 44 -97 49 -107 60 -115 C 71 -123 85 -127 102 -127 C 121 -127 138 -124 154 -118 C 170 -112 183 -104 193 -95 Z" unicode="Į" />
<glyph horiz-adv-x="235" d="M 0 0 L 0 0 Z M 65 529 L 65 633 L 170 633 L 170 529 L 65 529 Z M 67 0 L 67 436 L 168 436 L 168 0 L 67 0 Z M 71 -8 L 71 -8 Z M 174 -91 L 203 -134 C 182 -155 159 -171 134 -182 C 108 -193 80 -199 50 -199 C 15 -199 -12 -191 -32 -177 C -52 -162 -62 -143 -62 -121 C -62 -96 -49 -73 -24 -51 C 1 -29 36 -10 80 5 L 118 5 C 89 -8 66 -22 50 -36 C 33 -50 25 -65 25 -80 C 25 -93 30 -103 41 -111 C 52 -119 66 -123 83 -123 C 102 -123 119 -120 135 -114 C 151 -108 164 -100 174 -91 Z" unicode="į" />
<glyph horiz-adv-x="307" d="M 99 0 L 99 0 Z M 209 0 L 99 0 L 99 730 L 209 730 L 209 0 Z M 153 792 L 153 792 Z M 200 792 L 107 792 L 107 956 L 200 956 L 200 792 Z" unicode="İ" />
<glyph horiz-adv-x="235" d="M 168 0 L 67 0 L 67 436 L 168 436 L 168 0 Z" unicode="ı" />
<glyph horiz-adv-x="617" d="M 99 0 L 99 0 Z M 209 0 L 99 0 L 99 730 L 209 730 L 209 0 Z M 534 730 L 534 196 C 534 168 529 141 521 116 C 512 90 499 68 482 50 C 465 31 444 16 418 5 C 392 -6 361 -12 327 -12 C 308 -12 291 -11 276 -9 C 260 -7 248 -5 239 -3 L 239 95 C 245 92 258 90 276 88 C 294 86 308 86 319 86 C 355 86 383 95 403 115 C 423 135 434 159 434 188 L 434 730 L 534 730 Z" unicode="Ĳ" />
<glyph horiz-adv-x="427" d="M 65 0 L 65 0 Z M 65 529 L 65 633 L 170 633 L 170 529 L 65 529 Z M 67 0 L 67 436 L 168 436 L 168 0 L 67 0 Z M 381 529 L 275 529 L 275 633 L 381 633 L 381 529 Z M 379 436 L 379 -65 C 379 -101 367 -133 344 -161 C 320 -189 287 -202 244 -202 C 234 -202 223 -201 210 -200 C 196 -198 186 -197 180 -195 L 182 -111 C 185 -111 190 -112 198 -113 C 206 -113 213 -114 220 -114 C 236 -114 249 -108 260 -97 C 271 -86 277 -70 277 -50 L 277 436 L 379 436 Z" unicode="ĳ" />
<glyph horiz-adv-x="385" d="M 20 0 L 20 0 Z M 315 730 L 315 196 C 315 168 310 141 302 116 C 293 90 280 68 263 50 C 246 31 225 16 199 5 C 173 -6 142 -12 108 -12 C 89 -12 72 -11 57 -9 C 41 -7 29 -5 20 -3 L 20 95 C 26 92 39 90 57 88 C 75 86 89 86 100 86 C 136 86 164 95 184 115 C 204 135 215 159 215 188 L 215 730 L 315 730 Z M 264 792 L 264 792 Z M 440 792 L 345 792 L 264 893 L 182 792 L 89 792 L 212 964 L 317 964 L 440 792 Z" unicode="Ĵ" />
<glyph horiz-adv-x="223" d="M 0 0 L 0 0 Z M 163 436 L 163 -65 C 163 -101 151 -133 128 -161 C 104 -189 71 -202 28 -202 C 18 -202 7 -201 -6 -200 C -19 -198 -29 -197 -36 -195 L -34 -111 C -30 -111 -25 -112 -17 -113 C -9 -113 -2 -114 4 -114 C 20 -114 33 -108 44 -97 C 55 -86 61 -70 61 -50 L 61 436 L 163 436 Z M 111 498 L 111 498 Z M 287 498 L 192 498 L 111 599 L 29 498 L -64 498 L 59 670 L 164 670 L 287 498 Z" unicode="ĵ" />
<glyph horiz-adv-x="698" d="M 94 0 L 94 0 Z M 697 0 L 553 0 L 285 311 L 204 216 L 204 0 L 94 0 L 94 730 L 204 730 L 204 357 L 519 730 L 654 730 L 356 392 L 697 0 Z M 355 -72 L 355 -72 Z M 453 -72 C 451 -94 446 -118 438 -143 C 430 -167 420 -191 409 -214 C 397 -237 385 -258 372 -277 C 358 -296 345 -311 332 -323 L 257 -288 C 265 -278 273 -266 283 -250 C 292 -234 301 -217 309 -198 C 317 -179 325 -159 332 -137 C 339 -115 344 -93 348 -72 L 453 -72 Z" unicode="Ķ" />
<glyph horiz-adv-x="496" d="M 61 0 L 61 0 Z M 513 0 L 391 0 L 239 188 L 161 107 L 161 0 L 61 0 L 61 730 L 157 730 L 157 216 L 356 436 L 474 436 L 304 256 L 513 0 Z M 247 -72 L 247 -72 Z M 345 -72 C 343 -94 338 -118 330 -143 C 322 -167 312 -191 301 -214 C 289 -237 277 -258 264 -277 C 250 -296 237 -311 224 -323 L 149 -288 C 157 -278 165 -266 175 -250 C 184 -234 193 -217 201 -198 C 209 -179 217 -159 224 -137 C 231 -115 236 -93 240 -72 L 345 -72 Z" unicode="ķ" />
<glyph horiz-adv-x="496" d="M 513 0 L 391 0 L 239 188 L 161 107 L 161 0 L 61 0 L 61 436 L 157 436 L 157 216 L 356 436 L 474 436 L 304 256 L 513 0 Z" unicode="ĸ" />
<glyph horiz-adv-x="503" d="M 94 0 L 94 0 Z M 495 0 L 94 0 L 94 730 L 204 730 L 204 99 L 495 99 L 495 0 Z M 302 791 L 302 791 Z M 190 791 L 294 954 L 415 954 L 292 791 L 190 791 Z" unicode="Ĺ" />
<glyph horiz-adv-x="224" d="M 61 0 L 61 0 Z M 176 791 L 176 791 Z M 64 791 L 168 954 L 289 954 L 166 791 L 64 791 Z M 163 730 L 163 0 L 61 0 L 61 730 L 163 730 Z" unicode="ĺ" />
<glyph horiz-adv-x="503" d="M 94 0 L 94 0 Z M 495 0 L 94 0 L 94 730 L 204 730 L 204 99 L 495 99 L 495 0 Z M 275 -72 L 275 -72 Z M 373 -72 C 371 -94 366 -118 358 -143 C 350 -167 340 -191 329 -214 C 317 -237 305 -258 292 -277 C 278 -296 265 -311 252 -323 L 177 -288 C 185 -278 193 -266 203 -250 C 212 -234 221 -217 229 -198 C 237 -179 245 -159 252 -137 C 259 -115 264 -93 268 -72 L 373 -72 Z" unicode="Ļ" />
<glyph horiz-adv-x="224" d="M 0 0 L 0 0 Z M 163 730 L 163 0 L 61 0 L 61 730 L 163 730 Z M 84 -72 L 84 -72 Z M 182 -72 C 180 -94 175 -118 167 -143 C 159 -167 149 -191 138 -214 C 126 -237 114 -258 101 -277 C 87 -296 74 -311 61 -323 L -14 -288 C -6 -278 2 -266 12 -250 C 21 -234 30 -217 38 -198 C 46 -179 54 -159 61 -137 C 68 -115 73 -93 77 -72 L 182 -72 Z" unicode="ļ" />
<glyph horiz-adv-x="503" d="M 94 0 L 94 0 Z M 495 0 L 94 0 L 94 730 L 204 730 L 204 99 L 495 99 L 495 0 Z M 467 621 L 462 480 L 376 480 L 372 621 L 372 730 L 467 730 L 467 621 Z" unicode="Ľ" />
<glyph horiz-adv-x="224" d="M 61 0 L 61 0 Z M 319 621 L 314 480 L 228 480 L 224 621 L 224 730 L 319 730 L 319 621 Z M 163 730 L 163 0 L 61 0 L 61 730 L 163 730 Z" unicode="ľ" />
<glyph horiz-adv-x="503" d="M 94 0 L 94 0 Z M 495 0 L 94 0 L 94 730 L 204 730 L 204 99 L 495 99 L 495 0 Z M 371 280 L 371 280 Z M 418 280 L 325 280 L 325 444 L 418 444 L 418 280 Z" unicode="Ŀ" />
<glyph horiz-adv-x="224" d="M 61 0 L 61 0 Z M 163 730 L 163 0 L 61 0 L 61 730 L 163 730 Z M 283 175 L 283 175 Z M 330 175 L 237 175 L 237 339 L 330 339 L 330 175 Z" unicode="ŀ" />
<glyph horiz-adv-x="503" d="M 495 99 L 495 0 L 94 0 L 94 267 L 37 244 L 0 320 L 94 358 L 94 730 L 204 730 L 204 403 L 358 465 L 393 390 L 204 312 L 204 99 L 495 99 Z" unicode="Ł" />
<glyph horiz-adv-x="224" d="M 239 343 L 163 307 L 163 0 L 61 0 L 61 258 L 18 237 L -14 315 L 61 351 L 61 730 L 163 730 L 163 399 L 206 420 L 239 343 Z" unicode="ł" />
<glyph horiz-adv-x="780" d="M 94 0 L 94 0 Z M 686 0 L 611 0 L 199 528 L 199 0 L 94 0 L 94 730 L 176 730 L 580 205 L 580 730 L 686 730 L 686 0 Z M 391 791 L 391 791 Z M 279 791 L 383 954 L 504 954 L 381 791 L 279 791 Z" unicode="Ń" />
<glyph horiz-adv-x="530" d="M 61 0 L 61 0 Z M 475 0 L 374 0 L 374 277 C 374 304 365 326 348 343 C 331 359 307 368 275 368 C 245 368 218 358 196 339 C 173 320 162 291 162 251 L 162 0 L 61 0 L 61 436 L 159 436 L 159 366 C 169 390 189 409 217 425 C 245 441 277 449 313 449 C 362 449 401 434 431 406 C 460 378 475 341 475 295 L 475 0 Z M 263 497 L 263 497 Z M 151 497 L 255 660 L 376 660 L 253 497 L 151 497 Z" unicode="ń" />
<glyph horiz-adv-x="780" d="M 94 0 L 94 0 Z M 686 0 L 611 0 L 199 528 L 199 0 L 94 0 L 94 730 L 176 730 L 580 205 L 580 730 L 686 730 L 686 0 Z M 367 -72 L 367 -72 Z M 465 -72 C 463 -94 458 -118 450 -143 C 442 -167 432 -191 421 -214 C 409 -237 397 -258 384 -277 C 370 -296 357 -311 344 -323 L 269 -288 C 277 -278 285 -266 295 -250 C 304 -234 313 -217 321 -198 C 329 -179 337 -159 344 -137 C 351 -115 356 -93 360 -72 L 465 -72 Z" unicode="Ņ" />
<glyph horiz-adv-x="530" d="M 61 0 L 61 0 Z M 475 0 L 374 0 L 374 277 C 374 304 365 326 348 343 C 331 359 307 368 275 368 C 245 368 218 358 196 339 C 173 320 162 291 162 251 L 162 0 L 61 0 L 61 436 L 159 436 L 159 366 C 169 390 189 409 217 425 C 245 441 277 449 313 449 C 362 449 401 434 431 406 C 460 378 475 341 475 295 L 475 0 Z M 231 -72 L 231 -72 Z M 329 -72 C 327 -94 322 -118 314 -143 C 306 -167 296 -191 285 -214 C 273 -237 261 -258 248 -277 C 234 -296 221 -311 208 -323 L 133 -288 C 141 -278 149 -266 159 -250 C 168 -234 177 -217 185 -198 C 193 -179 201 -159 208 -137 C 215 -115 220 -93 224 -72 L 329 -72 Z" unicode="ņ" />
<glyph horiz-adv-x="780" d="M 94 0 L 94 0 Z M 686 0 L 611 0 L 199 528 L 199 0 L 94 0 L 94 730 L 176 730 L 580 205 L 580 730 L 686 730 L 686 0 Z M 391 792 L 391 792 Z M 216 964 L 311 964 L 392 863 L 474 964 L 567 964 L 444 792 L 339 792 L 216 964 Z" unicode="Ň" />
<glyph horiz-adv-x="530" d="M 61 0 L 61 0 Z M 475 0 L 374 0 L 374 277 C 374 304 365 326 348 343 C 331 359 307 368 275 368 C 245 368 218 358 196 339 C 173 320 162 291 162 251 L 162 0 L 61 0 L 61 436 L 159 436 L 159 366 C 169 390 189 409 217 425 C 245 441 277 449 313 449 C 362 449 401 434 431 406 C 460 378 475 341 475 295 L 475 0 Z M 263 498 L 263 498 Z M 88 670 L 183 670 L 264 569 L 346 670 L 439 670 L 316 498 L 211 498 L 88 670 Z" unicode="ň" />
<glyph horiz-adv-x="790" d="M 580 730 L 686 730 L 686 0 L 686 0 C 685 -27 680 -53 671 -77 C 662 -101 649 -123 632 -141 C 615 -159 594 -173 568 -184 C 542 -194 513 -200 479 -200 C 460 -200 443 -199 427 -197 C 411 -195 399 -193 390 -191 L 390 -93 C 396 -95 409 -97 427 -99 C 445 -101 460 -102 471 -102 C 507 -102 535 -92 555 -72 C 575 -52 585 -28 585 0 L 585 33 L 199 528 L 199 0 L 94 0 L 94 730 L 176 730 L 580 205 L 580 730 Z" unicode="Ŋ" />
<glyph horiz-adv-x="530" d="M 313 449 C 362 449 401 434 431 406 C 460 378 475 341 475 295 L 475 -65 C 475 -101 463 -133 440 -161 C 417 -189 384 -202 340 -202 C 331 -202 320 -201 307 -200 C 293 -198 283 -197 277 -195 L 279 -111 C 281 -111 287 -112 295 -113 C 303 -113 310 -114 316 -114 C 332 -114 346 -108 357 -97 C 368 -86 374 -70 374 -50 L 374 277 C 374 304 365 326 348 343 C 331 359 307 368 275 368 C 245 368 218 358 196 339 C 173 320 162 291 162 251 L 162 0 L 61 0 L 61 436 L 159 436 L 159 366 C 169 390 189 409 217 425 C 245 441 277 449 313 449 Z" unicode="ŋ" />
<glyph horiz-adv-x="840" d="M 46 0 L 46 0 Z M 423 -12 C 365 -12 313 -2 267 16 C 220 35 180 61 148 95 C 115 129 90 169 72 216 C 54 263 46 314 46 370 C 46 422 55 470 75 516 C 94 562 120 601 153 635 C 186 668 225 694 270 713 C 315 732 363 742 415 742 C 470 742 521 733 568 715 C 614 697 654 671 688 639 C 721 606 747 567 766 521 C 784 475 794 424 794 368 C 794 312 784 260 764 214 C 744 167 718 127 684 94 C 650 60 611 34 566 16 C 520 -2 473 -12 423 -12 Z M 422 91 C 458 91 492 97 524 110 C 556 123 583 142 606 166 C 629 190 647 219 661 254 C 674 288 681 327 681 371 C 681 410 674 446 661 479 C 647 512 629 540 606 563 C 583 586 555 604 523 617 C 491 630 456 637 419 637 C 381 637 347 631 315 619 C 283 607 256 589 233 567 C 210 544 192 516 179 482 C 166 448 160 410 160 367 C 160 323 166 283 180 249 C 194 215 212 186 236 163 C 260 139 288 121 320 109 C 352 97 386 91 422 91 Z M 418 814 L 418 814 Z M 552 814 L 284 814 L 284 889 L 552 889 L 552 814 Z" unicode="Ō" />
<glyph horiz-adv-x="530" d="M 28 0 L 28 0 Z M 262 -11 C 232 -11 204 -5 176 4 C 148 14 123 29 101 49 C 79 69 61 93 48 121 C 34 149 28 181 28 217 C 28 249 34 279 47 307 C 59 335 76 360 97 381 C 118 401 143 418 171 430 C 199 442 229 449 260 449 C 292 449 322 443 352 433 C 381 423 407 408 429 389 C 451 369 468 346 482 319 C 495 292 502 262 502 229 C 502 194 495 162 483 133 C 470 103 453 78 431 57 C 409 35 384 19 355 7 C 325 -5 294 -11 262 -11 Z M 265 77 C 303 77 334 90 359 116 C 384 142 397 178 397 224 C 397 262 384 295 359 321 C 334 347 300 361 256 361 C 222 361 193 348 169 323 C 145 297 133 263 133 219 C 133 173 145 137 171 113 C 196 89 227 77 265 77 Z M 256 520 L 256 520 Z M 390 520 L 122 520 L 122 595 L 390 595 L 390 520 Z" unicode="ō" />
<glyph horiz-adv-x="840" d="M 46 0 L 46 0 Z M 423 -12 C 365 -12 313 -2 267 16 C 220 35 180 61 148 95 C 115 129 90 169 72 216 C 54 263 46 314 46 370 C 46 422 55 470 75 516 C 94 562 120 601 153 635 C 186 668 225 694 270 713 C 315 732 363 742 415 742 C 470 742 521 733 568 715 C 614 697 654 671 688 639 C 721 606 747 567 766 521 C 784 475 794 424 794 368 C 794 312 784 260 764 214 C 744 167 718 127 684 94 C 650 60 611 34 566 16 C 520 -2 473 -12 423 -12 Z M 422 91 C 458 91 492 97 524 110 C 556 123 583 142 606 166 C 629 190 647 219 661 254 C 674 288 681 327 681 371 C 681 410 674 446 661 479 C 647 512 629 540 606 563 C 583 586 555 604 523 617 C 491 630 456 637 419 637 C 381 637 347 631 315 619 C 283 607 256 589 233 567 C 210 544 192 516 179 482 C 166 448 160 410 160 367 C 160 323 166 283 180 249 C 194 215 212 186 236 163 C 260 139 288 121 320 109 C 352 97 386 91 422 91 Z M 418 796 L 418 796 Z M 494 954 L 579 954 C 575 898 558 858 528 833 C 498 808 462 796 418 796 C 374 796 337 808 307 833 C 277 858 261 898 257 954 L 342 954 C 344 923 351 898 363 879 C 375 860 393 851 418 851 C 442 851 461 860 473 878 C 485 896 492 921 494 954 Z" unicode="Ŏ" />
<glyph horiz-adv-x="530" d="M 28 0 L 28 0 Z M 262 -11 C 232 -11 204 -5 176 4 C 148 14 123 29 101 49 C 79 69 61 93 48 121 C 34 149 28 181 28 217 C 28 249 34 279 47 307 C 59 335 76 360 97 381 C 118 401 143 418 171 430 C 199 442 229 449 260 449 C 292 449 322 443 352 433 C 381 423 407 408 429 389 C 451 369 468 346 482 319 C 495 292 502 262 502 229 C 502 194 495 162 483 133 C 470 103 453 78 431 57 C 409 35 384 19 355 7 C 325 -5 294 -11 262 -11 Z M 265 77 C 303 77 334 90 359 116 C 384 142 397 178 397 224 C 397 262 384 295 359 321 C 334 347 300 361 256 361 C 222 361 193 348 169 323 C 145 297 133 263 133 219 C 133 173 145 137 171 113 C 196 89 227 77 265 77 Z M 256 502 L 256 502 Z M 332 660 L 417 660 C 413 604 396 564 366 539 C 336 514 300 502 256 502 C 212 502 175 514 145 539 C 115 564 99 604 95 660 L 180 660 C 182 629 189 604 201 585 C 213 566 231 557 256 557 C 280 557 299 566 311 584 C 323 602 330 627 332 660 Z" unicode="ŏ" />
<glyph horiz-adv-x="840" d="M 46 0 L 46 0 Z M 423 -12 C 365 -12 313 -2 267 16 C 220 35 180 61 148 95 C 115 129 90 169 72 216 C 54 263 46 314 46 370 C 46 422 55 470 75 516 C 94 562 120 601 153 635 C 186 668 225 694 270 713 C 315 732 363 742 415 742 C 470 742 521 733 568 715 C 614 697 654 671 688 639 C 721 606 747 567 766 521 C 784 475 794 424 794 368 C 794 312 784 260 764 214 C 744 167 718 127 684 94 C 650 60 611 34 566 16 C 520 -2 473 -12 423 -12 Z M 422 91 C 458 91 492 97 524 110 C 556 123 583 142 606 166 C 629 190 647 219 661 254 C 674 288 681 327 681 371 C 681 410 674 446 661 479 C 647 512 629 540 606 563 C 583 586 555 604 523 617 C 491 630 456 637 419 637 C 381 637 347 631 315 619 C 283 607 256 589 233 567 C 210 544 192 516 179 482 C 166 448 160 410 160 367 C 160 323 166 283 180 249 C 194 215 212 186 236 163 C 260 139 288 121 320 109 C 352 97 386 91 422 91 Z M 418 791 L 418 791 Z M 221 791 L 316 942 L 424 942 L 311 791 L 221 791 Z M 413 791 L 508 942 L 617 942 L 503 791 L 413 791 Z" unicode="Ő" />
<glyph horiz-adv-x="530" d="M 28 0 L 28 0 Z M 262 -11 C 232 -11 204 -5 176 4 C 148 14 123 29 101 49 C 79 69 61 93 48 121 C 34 149 28 181 28 217 C 28 249 34 279 47 307 C 59 335 76 360 97 381 C 118 401 143 418 171 430 C 199 442 229 449 260 449 C 292 449 322 443 352 433 C 381 423 407 408 429 389 C 451 369 468 346 482 319 C 495 292 502 262 502 229 C 502 194 495 162 483 133 C 470 103 453 78 431 57 C 409 35 384 19 355 7 C 325 -5 294 -11 262 -11 Z M 265 77 C 303 77 334 90 359 116 C 384 142 397 178 397 224 C 397 262 384 295 359 321 C 334 347 300 361 256 361 C 222 361 193 348 169 323 C 145 297 133 263 133 219 C 133 173 145 137 171 113 C 196 89 227 77 265 77 Z M 256 497 L 256 497 Z M 59 497 L 154 648 L 262 648 L 149 497 L 59 497 Z M 251 497 L 346 648 L 455 648 L 341 497 L 251 497 Z" unicode="ő" />
<glyph horiz-adv-x="1171" d="M 409 -12 C 355 -12 305 -2 261 16 C 216 35 178 61 146 95 C 114 129 90 169 72 216 C 54 262 46 313 46 369 C 46 421 55 470 75 516 C 94 562 120 601 153 635 C 186 668 225 694 270 713 C 315 732 363 742 415 742 C 441 742 467 738 495 732 C 523 725 549 716 573 705 C 597 693 618 679 638 663 C 657 647 671 629 680 611 L 680 730 L 1101 730 L 1101 631 L 787 631 L 787 410 L 1086 410 L 1086 310 L 787 310 L 787 99 L 1121 99 L 1121 0 L 680 0 L 680 131 C 662 91 629 57 581 29 C 533 1 476 -12 409 -12 Z M 421 90 C 457 90 490 96 522 108 C 554 120 581 137 605 161 C 628 184 646 213 660 248 C 674 283 681 323 681 369 C 681 413 672 453 656 487 C 640 521 619 549 594 571 C 568 593 540 609 509 621 C 478 632 448 638 419 638 C 382 638 348 631 316 619 C 284 607 257 589 234 566 C 210 543 192 515 179 481 C 165 447 159 408 159 366 C 159 322 166 282 180 248 C 194 214 212 185 236 162 C 259 138 287 120 319 108 C 351 96 385 90 421 90 Z" unicode="Œ" />
<glyph horiz-adv-x="876" d="M 265 -11 C 231 -11 199 -5 170 6 C 141 17 116 33 95 53 C 74 73 58 97 46 125 C 34 153 28 183 28 217 C 28 249 34 280 46 308 C 58 336 75 361 96 382 C 117 402 142 419 171 431 C 200 443 231 449 265 449 C 315 449 355 439 387 421 C 419 403 441 380 453 354 C 465 376 487 397 519 418 C 551 438 590 449 638 449 C 675 449 708 442 736 430 C 764 417 787 399 806 376 C 824 353 838 325 848 293 C 858 261 863 225 863 187 L 500 187 C 502 156 517 129 543 107 C 569 84 604 73 646 73 C 684 73 712 78 730 90 C 748 101 764 113 777 126 L 840 66 C 821 45 798 27 771 12 C 743 -3 702 -11 646 -11 C 590 -11 546 0 514 20 C 482 41 462 62 453 84 C 448 74 440 63 430 52 C 419 40 406 30 390 21 C 374 11 355 4 334 -2 C 313 -8 290 -11 265 -11 Z M 503 266 L 766 266 C 763 292 750 315 728 335 C 706 355 675 365 636 365 C 598 365 567 355 544 336 C 521 316 507 293 503 266 Z M 265 77 C 305 77 337 89 361 114 C 385 139 397 176 397 224 C 397 266 384 299 359 324 C 333 348 301 361 262 361 C 224 361 193 347 169 321 C 145 295 133 261 133 219 C 133 173 145 137 170 113 C 195 89 227 77 265 77 Z" unicode="œ" />
<glyph horiz-adv-x="629" d="M 94 0 L 94 0 Z M 94 0 L 94 730 L 318 730 C 348 730 377 725 403 716 C 429 707 452 694 471 677 C 490 659 505 638 516 613 C 527 587 533 559 533 527 C 533 493 528 464 519 439 C 510 414 498 393 484 376 C 469 359 452 346 433 336 C 414 326 395 321 375 319 L 372 316 L 603 0 L 475 0 L 265 291 L 203 291 L 203 0 L 94 0 Z M 203 387 L 295 387 C 332 387 363 398 387 420 C 411 442 423 473 423 513 C 423 547 411 575 387 597 C 363 619 333 630 297 630 L 203 630 L 203 387 Z M 304 791 L 304 791 Z M 192 791 L 296 954 L 417 954 L 294 791 L 192 791 Z" unicode="Ŕ" />
<glyph horiz-adv-x="392" d="M 61 0 L 61 0 Z M 388 418 L 349 333 C 333 345 317 352 303 356 C 288 359 275 361 263 361 C 238 361 215 351 194 331 C 172 311 162 285 162 251 L 162 0 L 61 0 L 61 436 L 159 436 L 159 365 C 161 373 166 381 174 391 C 181 401 190 410 202 418 C 214 426 227 433 243 439 C 258 445 275 448 294 448 C 313 448 331 445 347 440 C 363 434 377 427 388 418 Z M 224 497 L 224 497 Z M 112 497 L 216 660 L 337 660 L 214 497 L 112 497 Z" unicode="ŕ" />
<glyph horiz-adv-x="629" d="M 94 0 L 94 0 Z M 94 0 L 94 730 L 318 730 C 348 730 377 725 403 716 C 429 707 452 694 471 677 C 490 659 505 638 516 613 C 527 587 533 559 533 527 C 533 493 528 464 519 439 C 510 414 498 393 484 376 C 469 359 452 346 433 336 C 414 326 395 321 375 319 L 372 316 L 603 0 L 475 0 L 265 291 L 203 291 L 203 0 L 94 0 Z M 203 387 L 295 387 C 332 387 363 398 387 420 C 411 442 423 473 423 513 C 423 547 411 575 387 597 C 363 619 333 630 297 630 L 203 630 L 203 387 Z M 308 -72 L 308 -72 Z M 406 -72 C 404 -94 399 -118 391 -143 C 383 -167 373 -191 362 -214 C 350 -237 338 -258 325 -277 C 311 -296 298 -311 285 -323 L 210 -288 C 218 -278 226 -266 236 -250 C 245 -234 254 -217 262 -198 C 270 -179 278 -159 285 -137 C 292 -115 297 -93 301 -72 L 406 -72 Z" unicode="Ŗ" />
<glyph horiz-adv-x="392" d="M 61 0 L 61 0 Z M 388 418 L 349 333 C 333 345 317 352 303 356 C 288 359 275 361 263 361 C 238 361 215 351 194 331 C 172 311 162 285 162 251 L 162 0 L 61 0 L 61 436 L 159 436 L 159 365 C 161 373 166 381 174 391 C 181 401 190 410 202 418 C 214 426 227 433 243 439 C 258 445 275 448 294 448 C 313 448 331 445 347 440 C 363 434 377 427 388 418 Z M 191 -72 L 191 -72 Z M 289 -72 C 287 -94 282 -118 274 -143 C 266 -167 256 -191 245 -214 C 233 -237 221 -258 208 -277 C 194 -296 181 -311 168 -323 L 93 -288 C 101 -278 109 -266 119 -250 C 128 -234 137 -217 145 -198 C 153 -179 161 -159 168 -137 C 175 -115 180 -93 184 -72 L 289 -72 Z" unicode="ŗ" />
<glyph horiz-adv-x="629" d="M 94 0 L 94 0 Z M 94 0 L 94 730 L 318 730 C 348 730 377 725 403 716 C 429 707 452 694 471 677 C 490 659 505 638 516 613 C 527 587 533 559 533 527 C 533 493 528 464 519 439 C 510 414 498 393 484 376 C 469 359 452 346 433 336 C 414 326 395 321 375 319 L 372 316 L 603 0 L 475 0 L 265 291 L 203 291 L 203 0 L 94 0 Z M 203 387 L 295 387 C 332 387 363 398 387 420 C 411 442 423 473 423 513 C 423 547 411 575 387 597 C 363 619 333 630 297 630 L 203 630 L 203 387 Z M 304 792 L 304 792 Z M 129 964 L 224 964 L 305 863 L 387 964 L 480 964 L 357 792 L 252 792 L 129 964 Z" unicode="Ř" />
<glyph horiz-adv-x="392" d="M 49 0 L 49 0 Z M 388 418 L 349 333 C 333 345 317 352 303 356 C 288 359 275 361 263 361 C 238 361 215 351 194 331 C 172 311 162 285 162 251 L 162 0 L 61 0 L 61 436 L 159 436 L 159 365 C 161 373 166 381 174 391 C 181 401 190 410 202 418 C 214 426 227 433 243 439 C 258 445 275 448 294 448 C 313 448 331 445 347 440 C 363 434 377 427 388 418 Z M 224 498 L 224 498 Z M 49 670 L 144 670 L 225 569 L 307 670 L 400 670 L 277 498 L 172 498 L 49 670 Z" unicode="ř" />
<glyph horiz-adv-x="500" d="M 21 0 L 21 0 Z M 263 -12 C 211 -12 165 -4 124 12 C 82 28 48 50 21 79 L 84 163 C 102 141 128 123 160 109 C 192 95 224 88 258 88 C 292 88 319 97 341 116 C 362 134 373 159 373 189 C 373 215 362 238 342 258 C 321 278 287 298 239 319 C 184 342 138 371 102 407 C 65 442 47 492 47 556 C 47 610 65 654 103 689 C 141 724 191 742 253 742 C 293 742 329 736 362 724 C 395 712 425 696 452 675 L 400 587 C 380 603 358 617 335 627 C 311 637 287 642 262 642 C 228 642 201 633 181 615 C 161 597 152 576 152 552 C 152 524 161 501 181 483 C 201 465 241 443 301 418 C 363 391 408 360 436 325 C 464 289 479 245 479 191 C 479 159 473 130 461 105 C 449 79 433 58 413 41 C 393 23 371 10 345 1 C 319 -7 291 -12 263 -12 Z M 252 791 L 252 791 Z M 140 791 L 244 954 L 365 954 L 242 791 L 140 791 Z" unicode="Ś" />
<glyph horiz-adv-x="388" d="M 24 0 L 24 0 Z M 205 -12 C 164 -12 129 -7 99 3 C 69 13 44 27 24 45 L 76 115 C 90 102 109 92 131 85 C 153 77 178 74 204 74 C 224 74 240 78 251 86 C 261 94 267 106 267 120 C 267 134 259 146 244 155 C 228 163 204 172 172 181 C 129 193 95 209 71 230 C 47 251 35 280 35 316 C 35 355 50 387 80 411 C 110 435 148 448 195 448 C 227 448 257 443 285 433 C 312 423 333 411 348 399 L 299 332 C 287 340 272 347 254 355 C 235 362 215 366 194 366 C 178 366 163 363 149 358 C 135 352 129 343 129 331 C 129 320 133 311 142 305 C 151 298 174 289 211 278 C 257 264 293 246 320 225 C 347 203 361 172 361 130 C 361 86 346 51 318 26 C 290 0 252 -12 205 -12 Z M 198 497 L 198 497 Z M 86 497 L 190 660 L 311 660 L 188 497 L 86 497 Z" unicode="ś" />
<glyph horiz-adv-x="500" d="M 21 0 L 21 0 Z M 263 -12 C 211 -12 165 -4 124 12 C 82 28 48 50 21 79 L 84 163 C 102 141 128 123 160 109 C 192 95 224 88 258 88 C 292 88 319 97 341 116 C 362 134 373 159 373 189 C 373 215 362 238 342 258 C 321 278 287 298 239 319 C 184 342 138 371 102 407 C 65 442 47 492 47 556 C 47 610 65 654 103 689 C 141 724 191 742 253 742 C 293 742 329 736 362 724 C 395 712 425 696 452 675 L 400 587 C 380 603 358 617 335 627 C 311 637 287 642 262 642 C 228 642 201 633 181 615 C 161 597 152 576 152 552 C 152 524 161 501 181 483 C 201 465 241 443 301 418 C 363 391 408 360 436 325 C 464 289 479 245 479 191 C 479 159 473 130 461 105 C 449 79 433 58 413 41 C 393 23 371 10 345 1 C 319 -7 291 -12 263 -12 Z M 252 792 L 252 792 Z M 428 792 L 333 792 L 252 893 L 170 792 L 77 792 L 200 964 L 305 964 L 428 792 Z" unicode="Ŝ" />
<glyph horiz-adv-x="388" d="M 23 0 L 23 0 Z M 205 -12 C 164 -12 129 -7 99 3 C 69 13 44 27 24 45 L 76 115 C 90 102 109 92 131 85 C 153 77 178 74 204 74 C 224 74 240 78 251 86 C 261 94 267 106 267 120 C 267 134 259 146 244 155 C 228 163 204 172 172 181 C 129 193 95 209 71 230 C 47 251 35 280 35 316 C 35 355 50 387 80 411 C 110 435 148 448 195 448 C 227 448 257 443 285 433 C 312 423 333 411 348 399 L 299 332 C 287 340 272 347 254 355 C 235 362 215 366 194 366 C 178 366 163 363 149 358 C 135 352 129 343 129 331 C 129 320 133 311 142 305 C 151 298 174 289 211 278 C 257 264 293 246 320 225 C 347 203 361 172 361 130 C 361 86 346 51 318 26 C 290 0 252 -12 205 -12 Z M 198 498 L 198 498 Z M 374 498 L 279 498 L 198 599 L 116 498 L 23 498 L 146 670 L 251 670 L 374 498 Z" unicode="ŝ" />
<glyph horiz-adv-x="500" d="M 21 0 L 21 0 Z M 263 -12 C 211 -12 165 -4 124 12 C 82 28 48 50 21 79 L 84 163 C 102 141 128 123 160 109 C 192 95 224 88 258 88 C 292 88 319 97 341 116 C 362 134 373 159 373 189 C 373 215 362 238 342 258 C 321 278 287 298 239 319 C 184 342 138 371 102 407 C 65 442 47 492 47 556 C 47 610 65 654 103 689 C 141 724 191 742 253 742 C 293 742 329 736 362 724 C 395 712 425 696 452 675 L 400 587 C 380 603 358 617 335 627 C 311 637 287 642 262 642 C 228 642 201 633 181 615 C 161 597 152 576 152 552 C 152 524 161 501 181 483 C 201 465 241 443 301 418 C 363 391 408 360 436 325 C 464 289 479 245 479 191 C 479 159 473 130 461 105 C 449 79 433 58 413 41 C 393 23 371 10 345 1 C 319 -7 291 -12 263 -12 Z M 236 0 L 236 0 Z M 245 -189 C 220 -189 195 -186 169 -180 C 143 -174 124 -166 110 -157 L 121 -111 C 131 -116 144 -121 160 -127 C 176 -132 193 -135 211 -135 C 225 -135 237 -131 248 -125 C 258 -119 264 -111 264 -101 C 264 -89 259 -80 250 -76 C 240 -71 230 -69 220 -69 C 212 -69 205 -69 200 -70 C 194 -71 188 -73 182 -75 L 166 -58 L 228 13 L 291 13 L 241 -49 C 275 -42 303 -45 327 -58 C 350 -70 362 -89 362 -114 C 362 -139 350 -158 326 -170 C 302 -182 275 -189 245 -189 Z" unicode="Ş" />
<glyph horiz-adv-x="388" d="M 24 0 L 24 0 Z M 205 -12 C 164 -12 129 -7 99 3 C 69 13 44 27 24 45 L 76 115 C 90 102 109 92 131 85 C 153 77 178 74 204 74 C 224 74 240 78 251 86 C 261 94 267 106 267 120 C 267 134 259 146 244 155 C 228 163 204 172 172 181 C 129 193 95 209 71 230 C 47 251 35 280 35 316 C 35 355 50 387 80 411 C 110 435 148 448 195 448 C 227 448 257 443 285 433 C 312 423 333 411 348 399 L 299 332 C 287 340 272 347 254 355 C 235 362 215 366 194 366 C 178 366 163 363 149 358 C 135 352 129 343 129 331 C 129 320 133 311 142 305 C 151 298 174 289 211 278 C 257 264 293 246 320 225 C 347 203 361 172 361 130 C 361 86 346 51 318 26 C 290 0 252 -12 205 -12 Z M 186 0 L 186 0 Z M 195 -189 C 170 -189 145 -186 119 -180 C 93 -174 74 -166 60 -157 L 71 -111 C 81 -116 94 -121 110 -127 C 126 -132 143 -135 161 -135 C 175 -135 187 -131 198 -125 C 208 -119 214 -111 214 -101 C 214 -89 209 -80 200 -76 C 190 -71 180 -69 170 -69 C 162 -69 155 -69 150 -70 C 144 -71 138 -73 132 -75 L 116 -58 L 178 13 L 241 13 L 191 -49 C 225 -42 253 -45 277 -58 C 300 -70 312 -89 312 -114 C 312 -139 300 -158 276 -170 C 252 -182 225 -189 195 -189 Z" unicode="ş" />
<glyph horiz-adv-x="500" d="M 21 0 L 21 0 Z M 263 -12 C 211 -12 165 -4 124 12 C 82 28 48 50 21 79 L 84 163 C 102 141 128 123 160 109 C 192 95 224 88 258 88 C 292 88 319 97 341 116 C 362 134 373 159 373 189 C 373 215 362 238 342 258 C 321 278 287 298 239 319 C 184 342 138 371 102 407 C 65 442 47 492 47 556 C 47 610 65 654 103 689 C 141 724 191 742 253 742 C 293 742 329 736 362 724 C 395 712 425 696 452 675 L 400 587 C 380 603 358 617 335 627 C 311 637 287 642 262 642 C 228 642 201 633 181 615 C 161 597 152 576 152 552 C 152 524 161 501 181 483 C 201 465 241 443 301 418 C 363 391 408 360 436 325 C 464 289 479 245 479 191 C 479 159 473 130 461 105 C 449 79 433 58 413 41 C 393 23 371 10 345 1 C 319 -7 291 -12 263 -12 Z M 252 792 L 252 792 Z M 77 964 L 172 964 L 253 863 L 335 964 L 428 964 L 305 792 L 200 792 L 77 964 Z" unicode="Š" />
<glyph horiz-adv-x="388" d="M 23 0 L 23 0 Z M 205 -12 C 164 -12 129 -7 99 3 C 69 13 44 27 24 45 L 76 115 C 90 102 109 92 131 85 C 153 77 178 74 204 74 C 224 74 240 78 251 86 C 261 94 267 106 267 120 C 267 134 259 146 244 155 C 228 163 204 172 172 181 C 129 193 95 209 71 230 C 47 251 35 280 35 316 C 35 355 50 387 80 411 C 110 435 148 448 195 448 C 227 448 257 443 285 433 C 312 423 333 411 348 399 L 299 332 C 287 340 272 347 254 355 C 235 362 215 366 194 366 C 178 366 163 363 149 358 C 135 352 129 343 129 331 C 129 320 133 311 142 305 C 151 298 174 289 211 278 C 257 264 293 246 320 225 C 347 203 361 172 361 130 C 361 86 346 51 318 26 C 290 0 252 -12 205 -12 Z M 198 498 L 198 498 Z M 23 670 L 118 670 L 199 569 L 281 670 L 374 670 L 251 498 L 146 498 L 23 670 Z" unicode="š" />
<glyph horiz-adv-x="540" d="M 10 0 L 10 0 Z M 530 631 L 322 631 L 322 0 L 212 0 L 212 631 L 10 631 L 10 730 L 530 730 L 530 631 Z M 268 792 L 268 792 Z M 93 964 L 188 964 L 269 863 L 351 964 L 444 964 L 321 792 L 216 792 L 93 964 Z" unicode="Ť" />
<glyph horiz-adv-x="266" d="M 8 0 L 8 0 Z M 255 82 L 255 -3 C 253 -3 247 -4 238 -5 C 229 -5 219 -6 207 -6 C 191 -6 174 -4 157 0 C 140 3 125 9 112 19 C 98 28 87 40 79 56 C 70 72 66 91 66 115 L 66 345 L 8 345 L 8 436 L 66 436 L 66 537 L 167 550 L 167 436 L 249 436 L 249 345 L 167 345 L 167 137 C 167 114 172 99 184 91 C 195 83 210 80 230 80 C 232 80 237 80 244 80 C 251 80 255 81 255 82 Z M 348 621 L 343 480 L 257 480 L 253 621 L 253 730 L 348 730 L 348 621 Z" unicode="ť" />
<glyph horiz-adv-x="540" d="M 452 442 L 322 442 L 322 0 L 212 0 L 212 442 L 76 442 L 76 528 L 212 528 L 212 631 L 10 631 L 10 730 L 530 730 L 530 631 L 322 631 L 322 528 L 452 528 L 452 442 Z" unicode="Ŧ" />
<glyph horiz-adv-x="266" d="M 255 -3 C 253 -3 247 -4 238 -5 C 229 -5 219 -6 207 -6 C 191 -6 174 -4 157 0 C 140 3 125 9 112 19 C 98 28 87 40 79 56 C 70 72 66 91 66 115 L 66 206 L 18 206 L 18 293 L 66 293 L 66 345 L 8 345 L 8 436 L 66 436 L 66 537 L 167 550 L 167 436 L 249 436 L 249 345 L 167 345 L 167 293 L 239 293 L 239 206 L 167 206 L 167 137 C 167 114 172 99 184 91 C 195 83 210 80 230 80 C 232 80 237 80 244 80 C 251 80 255 81 255 82 L 255 -3 Z" unicode="ŧ" />
<glyph horiz-adv-x="743" d="M 86 0 L 86 0 Z M 657 730 L 657 266 C 657 222 649 183 634 149 C 619 114 599 85 574 61 C 548 37 518 19 483 7 C 448 -5 411 -12 371 -12 C 331 -12 294 -6 260 6 C 225 18 195 35 169 59 C 143 83 123 112 108 147 C 93 181 86 221 86 266 L 86 730 L 193 730 L 193 259 C 193 209 210 169 244 137 C 278 105 319 90 369 90 C 394 90 418 94 440 102 C 462 110 481 121 497 136 C 513 150 526 168 536 189 C 545 210 550 233 550 259 L 550 730 L 657 730 Z M 371 798 L 371 798 Z M 458 938 L 532 938 C 532 890 525 854 512 832 C 498 809 481 798 459 798 C 440 798 424 801 410 808 C 396 814 384 820 376 826 C 366 831 357 836 349 842 C 341 847 333 850 325 850 C 316 850 309 845 303 835 C 297 825 295 814 295 802 L 218 802 C 218 849 227 884 246 907 C 265 930 285 942 306 942 C 321 942 334 938 346 932 C 357 926 369 919 381 912 C 389 906 397 900 405 894 C 413 888 421 886 429 886 C 435 886 442 890 448 900 C 454 910 458 922 458 938 Z" unicode="Ũ" />
<glyph horiz-adv-x="531" d="M 56 0 L 56 0 Z M 56 436 L 156 436 L 156 160 C 156 132 165 110 183 95 C 201 79 225 72 255 72 C 286 72 313 81 335 100 C 357 118 369 146 369 182 L 369 436 L 469 436 L 469 0 L 371 0 L 371 76 C 356 50 335 29 307 14 C 279 -1 247 -9 213 -9 C 169 -9 131 4 101 32 C 71 59 56 97 56 147 L 56 436 Z M 262 504 L 262 504 Z M 349 644 L 423 644 C 423 596 416 560 403 538 C 389 515 372 504 350 504 C 331 504 315 507 301 514 C 287 520 275 526 267 532 C 257 537 248 542 240 548 C 232 553 224 556 216 556 C 207 556 200 551 194 541 C 188 531 186 520 186 508 L 109 508 C 109 555 118 590 137 613 C 156 636 176 648 197 648 C 212 648 225 644 237 638 C 248 632 260 625 272 618 C 280 612 288 606 296 600 C 304 594 312 592 320 592 C 326 592 333 596 339 606 C 345 616 349 628 349 644 Z" unicode="ũ" />
<glyph horiz-adv-x="743" d="M 86 0 L 86 0 Z M 657 730 L 657 266 C 657 222 649 183 634 149 C 619 114 599 85 574 61 C 548 37 518 19 483 7 C 448 -5 411 -12 371 -12 C 331 -12 294 -6 260 6 C 225 18 195 35 169 59 C 143 83 123 112 108 147 C 93 181 86 221 86 266 L 86 730 L 193 730 L 193 259 C 193 209 210 169 244 137 C 278 105 319 90 369 90 C 394 90 418 94 440 102 C 462 110 481 121 497 136 C 513 150 526 168 536 189 C 545 210 550 233 550 259 L 550 730 L 657 730 Z M 371 814 L 371 814 Z M 505 814 L 237 814 L 237 889 L 505 889 L 505 814 Z" unicode="Ū" />
<glyph horiz-adv-x="531" d="M 56 0 L 56 0 Z M 56 436 L 156 436 L 156 160 C 156 132 165 110 183 95 C 201 79 225 72 255 72 C 286 72 313 81 335 100 C 357 118 369 146 369 182 L 369 436 L 469 436 L 469 0 L 371 0 L 371 76 C 356 50 335 29 307 14 C 279 -1 247 -9 213 -9 C 169 -9 131 4 101 32 C 71 59 56 97 56 147 L 56 436 Z M 262 520 L 262 520 Z M 396 520 L 128 520 L 128 595 L 396 595 L 396 520 Z" unicode="ū" />
<glyph horiz-adv-x="743" d="M 86 0 L 86 0 Z M 657 730 L 657 266 C 657 222 649 183 634 149 C 619 114 599 85 574 61 C 548 37 518 19 483 7 C 448 -5 411 -12 371 -12 C 331 -12 294 -6 260 6 C 225 18 195 35 169 59 C 143 83 123 112 108 147 C 93 181 86 221 86 266 L 86 730 L 193 730 L 193 259 C 193 209 210 169 244 137 C 278 105 319 90 369 90 C 394 90 418 94 440 102 C 462 110 481 121 497 136 C 513 150 526 168 536 189 C 545 210 550 233 550 259 L 550 730 L 657 730 Z M 371 796 L 371 796 Z M 447 954 L 532 954 C 528 898 511 858 481 833 C 451 808 415 796 371 796 C 327 796 290 808 260 833 C 230 858 214 898 210 954 L 295 954 C 297 923 304 898 316 879 C 328 860 346 851 371 851 C 395 851 414 860 426 878 C 438 896 445 921 447 954 Z" unicode="Ŭ" />
<glyph horiz-adv-x="531" d="M 56 0 L 56 0 Z M 56 436 L 156 436 L 156 160 C 156 132 165 110 183 95 C 201 79 225 72 255 72 C 286 72 313 81 335 100 C 357 118 369 146 369 182 L 369 436 L 469 436 L 469 0 L 371 0 L 371 76 C 356 50 335 29 307 14 C 279 -1 247 -9 213 -9 C 169 -9 131 4 101 32 C 71 59 56 97 56 147 L 56 436 Z M 262 502 L 262 502 Z M 338 660 L 423 660 C 419 604 402 564 372 539 C 342 514 306 502 262 502 C 218 502 181 514 151 539 C 121 564 105 604 101 660 L 186 660 C 188 629 195 604 207 585 C 219 566 237 557 262 557 C 286 557 305 566 317 584 C 329 602 336 627 338 660 Z" unicode="ŭ" />
<glyph horiz-adv-x="743" d="M 86 0 L 86 0 Z M 657 730 L 657 266 C 657 222 649 183 634 149 C 619 114 599 85 574 61 C 548 37 518 19 483 7 C 448 -5 411 -12 371 -12 C 331 -12 294 -6 260 6 C 225 18 195 35 169 59 C 143 83 123 112 108 147 C 93 181 86 221 86 266 L 86 730 L 193 730 L 193 259 C 193 209 210 169 244 137 C 278 105 319 90 369 90 C 394 90 418 94 440 102 C 462 110 481 121 497 136 C 513 150 526 168 536 189 C 545 210 550 233 550 259 L 550 730 L 657 730 Z M 371 788 L 371 788 Z M 371 788 C 339 788 312 799 290 821 C 268 843 257 871 257 903 C 257 935 268 962 290 984 C 312 1006 339 1017 371 1017 C 403 1017 431 1006 453 984 C 475 962 486 935 486 903 C 486 871 475 843 453 821 C 431 799 403 788 371 788 Z M 371 848 C 386 848 399 853 409 864 C 419 874 425 887 425 903 C 425 918 419 931 409 942 C 399 952 386 958 371 958 C 356 958 343 952 333 942 C 322 931 317 918 317 903 C 317 887 322 874 333 864 C 343 853 356 848 371 848 Z" unicode="Ů" />
<glyph horiz-adv-x="531" d="M 56 0 L 56 0 Z M 56 436 L 156 436 L 156 160 C 156 132 165 110 183 95 C 201 79 225 72 255 72 C 286 72 313 81 335 100 C 357 118 369 146 369 182 L 369 436 L 469 436 L 469 0 L 371 0 L 371 76 C 356 50 335 29 307 14 C 279 -1 247 -9 213 -9 C 169 -9 131 4 101 32 C 71 59 56 97 56 147 L 56 436 Z M 262 494 L 262 494 Z M 262 494 C 230 494 203 505 181 527 C 159 549 148 577 148 609 C 148 641 159 668 181 690 C 203 712 230 723 262 723 C 294 723 322 712 344 690 C 366 668 377 641 377 609 C 377 577 366 549 344 527 C 322 505 294 494 262 494 Z M 262 554 C 277 554 290 559 300 570 C 310 580 316 593 316 609 C 316 624 310 637 300 648 C 290 658 277 664 262 664 C 247 664 234 658 224 648 C 213 637 208 624 208 609 C 208 593 213 580 224 570 C 234 559 247 554 262 554 Z" unicode="ů" />
<glyph horiz-adv-x="743" d="M 86 0 L 86 0 Z M 657 730 L 657 266 C 657 222 649 183 634 149 C 619 114 599 85 574 61 C 548 37 518 19 483 7 C 448 -5 411 -12 371 -12 C 331 -12 294 -6 260 6 C 225 18 195 35 169 59 C 143 83 123 112 108 147 C 93 181 86 221 86 266 L 86 730 L 193 730 L 193 259 C 193 209 210 169 244 137 C 278 105 319 90 369 90 C 394 90 418 94 440 102 C 462 110 481 121 497 136 C 513 150 526 168 536 189 C 545 210 550 233 550 259 L 550 730 L 657 730 Z M 371 791 L 371 791 Z M 174 791 L 269 942 L 377 942 L 264 791 L 174 791 Z M 366 791 L 461 942 L 570 942 L 456 791 L 366 791 Z" unicode="Ű" />
<glyph horiz-adv-x="531" d="M 56 0 L 56 0 Z M 56 436 L 156 436 L 156 160 C 156 132 165 110 183 95 C 201 79 225 72 255 72 C 286 72 313 81 335 100 C 357 118 369 146 369 182 L 369 436 L 469 436 L 469 0 L 371 0 L 371 76 C 356 50 335 29 307 14 C 279 -1 247 -9 213 -9 C 169 -9 131 4 101 32 C 71 59 56 97 56 147 L 56 436 Z M 262 497 L 262 497 Z M 65 497 L 160 648 L 268 648 L 155 497 L 65 497 Z M 257 497 L 352 648 L 461 648 L 347 497 L 257 497 Z" unicode="ű" />
<glyph horiz-adv-x="743" d="M 86 0 L 86 0 Z M 657 730 L 657 266 C 657 222 649 183 634 149 C 619 114 599 85 574 61 C 548 37 518 19 483 7 C 448 -5 411 -12 371 -12 C 331 -12 294 -6 260 6 C 225 18 195 35 169 59 C 143 83 123 112 108 147 C 93 181 86 221 86 266 L 86 730 L 193 730 L 193 259 C 193 209 210 169 244 137 C 278 105 319 90 369 90 C 394 90 418 94 440 102 C 462 110 481 121 497 136 C 513 150 526 168 536 189 C 545 210 550 233 550 259 L 550 730 L 657 730 Z M 428 -8 L 428 -8 Z M 531 -91 L 560 -134 C 539 -155 516 -171 491 -182 C 465 -193 437 -199 407 -199 C 372 -199 345 -191 325 -177 C 305 -162 295 -143 295 -121 C 295 -96 307 -73 333 -51 C 358 -29 393 -10 437 5 L 475 5 C 446 -8 423 -22 407 -36 C 390 -50 382 -65 382 -80 C 382 -93 387 -103 398 -111 C 409 -119 423 -123 440 -123 C 459 -123 476 -120 492 -114 C 508 -108 521 -100 531 -91 Z" unicode="Ų" />
<glyph horiz-adv-x="531" d="M 56 0 L 56 0 Z M 56 436 L 156 436 L 156 160 C 156 132 165 110 183 95 C 201 79 225 72 255 72 C 286 72 313 81 335 100 C 357 118 369 146 369 182 L 369 436 L 469 436 L 469 0 L 371 0 L 371 76 C 356 50 335 29 307 14 C 279 -1 247 -9 213 -9 C 169 -9 131 4 101 32 C 71 59 56 97 56 147 L 56 436 Z M 374 -8 L 374 -8 Z M 477 -91 L 506 -134 C 485 -155 462 -171 437 -182 C 411 -193 383 -199 353 -199 C 318 -199 291 -191 271 -177 C 251 -162 241 -143 241 -121 C 241 -96 253 -73 279 -51 C 304 -29 339 -10 383 5 L 421 5 C 392 -8 369 -22 353 -36 C 336 -50 328 -65 328 -80 C 328 -93 333 -103 344 -111 C 355 -119 369 -123 386 -123 C 405 -123 422 -120 438 -114 C 454 -108 467 -100 477 -91 Z" unicode="ų" />
<glyph horiz-adv-x="926" d="M 5 0 L 5 0 Z M 922 730 L 693 -8 L 635 -8 L 464 527 L 287 -8 L 229 -8 L 5 730 L 114 730 L 264 217 L 439 730 L 498 730 L 667 217 L 820 730 L 922 730 Z M 469 792 L 469 792 Z M 645 792 L 550 792 L 469 893 L 387 792 L 294 792 L 417 964 L 522 964 L 645 792 Z" unicode="Ŵ" />
<glyph horiz-adv-x="672" d="M 6 0 L 6 0 Z M 448 -3 L 337 271 L 222 -3 L 166 -3 L 6 436 L 112 436 L 207 151 L 313 409 L 368 409 L 472 151 L 569 436 L 665 436 L 505 -3 L 448 -3 Z M 336 498 L 336 498 Z M 512 498 L 417 498 L 336 599 L 254 498 L 161 498 L 284 670 L 389 670 L 512 498 Z" unicode="ŵ" />
<glyph horiz-adv-x="605" d="M 0 0 L 0 0 Z M 653 730 L 379 325 L 379 0 L 269 0 L 269 329 L 0 730 L 124 730 L 330 426 L 534 730 L 653 730 Z M 327 792 L 327 792 Z M 503 792 L 408 792 L 327 893 L 245 792 L 152 792 L 275 964 L 380 964 L 503 792 Z" unicode="Ŷ" />
<glyph horiz-adv-x="482" d="M 0 0 L 0 0 Z M 482 436 L 224 -89 C 201 -135 175 -165 147 -179 C 119 -193 93 -200 70 -200 C 55 -200 42 -198 31 -195 C 19 -192 11 -190 6 -188 L 33 -94 C 35 -95 41 -97 49 -99 C 57 -101 64 -103 72 -103 C 86 -103 100 -98 112 -90 C 124 -81 136 -64 149 -40 L 190 42 L -4 436 L 107 436 L 241 139 L 377 436 L 482 436 Z M 242 498 L 242 498 Z M 418 498 L 323 498 L 242 599 L 160 498 L 67 498 L 190 670 L 295 670 L 418 498 Z" unicode="ŷ" />
<glyph horiz-adv-x="654" d="M 0 0 L 0 0 Z M 653 730 L 379 325 L 379 0 L 269 0 L 269 329 L 0 730 L 124 730 L 330 426 L 534 730 L 653 730 Z M 327 792 L 327 792 Z M 464 792 L 378 792 L 378 951 L 464 951 L 464 792 Z M 276 792 L 190 792 L 190 951 L 276 951 L 276 792 Z" unicode="Ÿ" />
<glyph horiz-adv-x="560" d="M 15 0 L 15 0 Z M 556 730 L 556 684 L 169 99 L 569 99 L 569 0 L 15 0 L 15 44 L 399 631 L 44 631 L 44 730 L 556 730 Z M 293 791 L 293 791 Z M 181 791 L 285 954 L 406 954 L 283 791 L 181 791 Z" unicode="Ź" />
<glyph horiz-adv-x="390" d="M 10 0 L 10 0 Z M 375 436 L 375 389 L 165 90 L 379 90 L 379 0 L 10 0 L 10 28 L 230 346 L 23 346 L 23 436 L 375 436 Z M 201 497 L 201 497 Z M 89 497 L 193 660 L 314 660 L 191 497 L 89 497 Z" unicode="ź" />
<glyph horiz-adv-x="560" d="M 15 0 L 15 0 Z M 556 730 L 556 684 L 169 99 L 569 99 L 569 0 L 15 0 L 15 44 L 399 631 L 44 631 L 44 730 L 556 730 Z M 293 792 L 293 792 Z M 340 792 L 247 792 L 247 956 L 340 956 L 340 792 Z" unicode="Ż" />
<glyph horiz-adv-x="390" d="M 10 0 L 10 0 Z M 375 436 L 375 389 L 165 90 L 379 90 L 379 0 L 10 0 L 10 28 L 230 346 L 23 346 L 23 436 L 375 436 Z M 201 498 L 201 498 Z M 248 498 L 155 498 L 155 662 L 248 662 L 248 498 Z" unicode="ż" />
<glyph horiz-adv-x="597" d="M 15 0 L 15 0 Z M 556 730 L 556 684 L 169 99 L 569 99 L 569 0 L 15 0 L 15 44 L 399 631 L 44 631 L 44 730 L 556 730 Z M 293 792 L 293 792 Z M 118 964 L 213 964 L 294 863 L 376 964 L 469 964 L 346 792 L 241 792 L 118 964 Z" unicode="Ž" />
<glyph horiz-adv-x="390" d="M 10 0 L 10 0 Z M 375 436 L 375 389 L 165 90 L 379 90 L 379 0 L 10 0 L 10 28 L 230 346 L 23 346 L 23 436 L 375 436 Z M 201 498 L 201 498 Z M 26 670 L 121 670 L 202 569 L 284 670 L 377 670 L 254 498 L 149 498 L 26 670 Z" unicode="ž" />
<glyph horiz-adv-x="363" d="M 190 -57 C 187 -89 174 -117 151 -142 C 127 -166 98 -179 62 -179 C 43 -179 25 -177 8 -174 C -9 -171 -22 -168 -31 -164 L -21 -91 C -16 -91 -9 -93 0 -95 C 10 -97 19 -98 28 -98 C 47 -98 63 -91 75 -78 C 87 -64 94 -45 97 -21 L 128 324 L 40 324 L 40 411 L 136 411 L 155 625 C 157 644 162 661 171 676 C 179 690 190 702 202 712 C 214 722 228 729 242 734 C 256 739 270 742 284 742 C 298 742 311 741 325 740 C 339 739 347 738 350 738 L 342 649 C 340 649 336 650 330 651 C 324 651 318 652 312 652 C 293 652 278 645 266 633 C 254 620 247 600 245 574 L 231 411 L 334 411 L 334 324 L 223 324 L 190 -57 Z" unicode="ƒ" />
<glyph horiz-adv-x="500" d="M 21 0 L 21 0 Z M 263 -12 C 211 -12 165 -4 124 12 C 82 28 48 50 21 79 L 84 163 C 102 141 128 123 160 109 C 192 95 224 88 258 88 C 292 88 319 97 341 116 C 362 134 373 159 373 189 C 373 215 362 238 342 258 C 321 278 287 298 239 319 C 184 342 138 371 102 407 C 65 442 47 492 47 556 C 47 610 65 654 103 689 C 141 724 191 742 253 742 C 293 742 329 736 362 724 C 395 712 425 696 452 675 L 400 587 C 380 603 358 617 335 627 C 311 637 287 642 262 642 C 228 642 201 633 181 615 C 161 597 152 576 152 552 C 152 524 161 501 181 483 C 201 465 241 443 301 418 C 363 391 408 360 436 325 C 464 289 479 245 479 191 C 479 159 473 130 461 105 C 449 79 433 58 413 41 C 393 23 371 10 345 1 C 319 -7 291 -12 263 -12 Z M 236 -72 L 236 -72 Z M 334 -72 C 332 -94 327 -118 319 -143 C 311 -167 301 -191 290 -214 C 278 -237 266 -258 253 -277 C 239 -296 226 -311 213 -323 L 138 -288 C 146 -278 154 -266 164 -250 C 173 -234 182 -217 190 -198 C 198 -179 206 -159 213 -137 C 220 -115 225 -93 229 -72 L 334 -72 Z" unicode="Ș" />
<glyph horiz-adv-x="388" d="M 24 0 L 24 0 Z M 205 -12 C 164 -12 129 -7 99 3 C 69 13 44 27 24 45 L 76 115 C 90 102 109 92 131 85 C 153 77 178 74 204 74 C 224 74 240 78 251 86 C 261 94 267 106 267 120 C 267 134 259 146 244 155 C 228 163 204 172 172 181 C 129 193 95 209 71 230 C 47 251 35 280 35 316 C 35 355 50 387 80 411 C 110 435 148 448 195 448 C 227 448 257 443 285 433 C 312 423 333 411 348 399 L 299 332 C 287 340 272 347 254 355 C 235 362 215 366 194 366 C 178 366 163 363 149 358 C 135 352 129 343 129 331 C 129 320 133 311 142 305 C 151 298 174 289 211 278 C 257 264 293 246 320 225 C 347 203 361 172 361 130 C 361 86 346 51 318 26 C 290 0 252 -12 205 -12 Z M 186 -72 L 186 -72 Z M 284 -72 C 282 -94 277 -118 269 -143 C 261 -167 251 -191 240 -214 C 228 -237 216 -258 203 -277 C 189 -296 176 -311 163 -323 L 88 -288 C 96 -278 104 -266 114 -250 C 123 -234 132 -217 140 -198 C 148 -179 156 -159 163 -137 C 170 -115 175 -93 179 -72 L 284 -72 Z" unicode="ș" />
<glyph horiz-adv-x="540" d="M 10 0 L 10 0 Z M 530 631 L 322 631 L 322 0 L 212 0 L 212 631 L 10 631 L 10 730 L 530 730 L 530 631 Z M 245 -72 L 245 -72 Z M 343 -72 C 341 -94 336 -118 328 -143 C 320 -167 310 -191 299 -214 C 287 -237 275 -258 262 -277 C 248 -296 235 -311 222 -323 L 147 -288 C 155 -278 163 -266 173 -250 C 182 -234 191 -217 199 -198 C 207 -179 215 -159 222 -137 C 229 -115 234 -93 238 -72 L 343 -72 Z" unicode="Ț" />
<glyph horiz-adv-x="266" d="M 8 0 L 8 0 Z M 255 82 L 255 -3 C 253 -3 247 -4 238 -5 C 229 -5 219 -6 207 -6 C 191 -6 174 -4 157 0 C 140 3 125 9 112 19 C 98 28 87 40 79 56 C 70 72 66 91 66 115 L 66 345 L 8 345 L 8 436 L 66 436 L 66 537 L 167 550 L 167 436 L 249 436 L 249 345 L 167 345 L 167 137 C 167 114 172 99 184 91 C 195 83 210 80 230 80 C 232 80 237 80 244 80 C 251 80 255 81 255 82 Z M 131 -72 L 131 -72 Z M 229 -72 C 227 -94 222 -118 214 -143 C 206 -167 196 -191 185 -214 C 173 -237 161 -258 148 -277 C 134 -296 121 -311 108 -323 L 33 -288 C 41 -278 49 -266 59 -250 C 68 -234 77 -217 85 -198 C 93 -179 101 -159 108 -137 C 115 -115 120 -93 124 -72 L 229 -72 Z" unicode="ț" />
<glyph horiz-adv-x="223" d="M 163 436 L 163 -65 C 163 -101 151 -133 128 -161 C 104 -189 71 -202 28 -202 C 18 -202 7 -201 -6 -200 C -19 -198 -29 -197 -36 -195 L -34 -111 C -30 -111 -25 -112 -17 -113 C -9 -113 -2 -114 4 -114 C 20 -114 33 -108 44 -97 C 55 -86 61 -70 61 -50 L 61 436 L 163 436 Z" unicode="ȷ" />
<glyph horiz-adv-x="500" d="M 426 498 L 331 498 L 250 599 L 168 498 L 75 498 L 198 670 L 303 670 L 426 498 Z" unicode="ˆ" />
<glyph horiz-adv-x="500" d="M 75 670 L 170 670 L 251 569 L 333 670 L 426 670 L 303 498 L 198 498 L 75 670 Z" unicode="ˇ" />
<glyph horiz-adv-x="500" d="M 326 660 L 411 660 C 407 604 390 564 360 539 C 330 514 294 502 250 502 C 206 502 169 514 139 539 C 109 564 93 604 89 660 L 174 660 C 176 629 183 604 195 585 C 207 566 225 557 250 557 C 274 557 293 566 305 584 C 317 602 324 627 326 660 Z" unicode="˘" />
<glyph horiz-adv-x="500" d="M 297 498 L 204 498 L 204 662 L 297 662 L 297 498 Z" unicode="˙" />
<glyph horiz-adv-x="500" d="M 250 494 C 218 494 191 505 169 527 C 147 549 136 577 136 609 C 136 641 147 668 169 690 C 191 712 218 723 250 723 C 282 723 310 712 332 690 C 354 668 365 641 365 609 C 365 577 354 549 332 527 C 310 505 282 494 250 494 Z M 250 554 C 265 554 278 559 288 570 C 298 580 304 593 304 609 C 304 624 298 637 288 648 C 278 658 265 664 250 664 C 235 664 222 658 212 648 C 201 637 196 624 196 609 C 196 593 201 580 212 570 C 222 559 235 554 250 554 Z" unicode="˚" />
<glyph horiz-adv-x="500" d="M 361 -83 L 390 -126 C 369 -147 346 -163 321 -174 C 295 -185 267 -191 237 -191 C 202 -191 175 -183 155 -169 C 135 -154 125 -135 125 -113 C 125 -88 137 -65 163 -43 C 188 -21 223 -2 267 13 L 305 13 C 276 0 253 -14 237 -28 C 220 -42 212 -57 212 -72 C 212 -85 217 -95 228 -103 C 239 -111 253 -115 270 -115 C 289 -115 306 -112 322 -106 C 338 -100 351 -92 361 -83 Z" unicode="˛" />
<glyph horiz-adv-x="500" d="M 337 644 L 411 644 C 411 596 404 560 391 538 C 377 515 360 504 338 504 C 319 504 303 507 289 514 C 275 520 263 526 255 532 C 245 537 236 542 228 548 C 220 553 212 556 204 556 C 195 556 188 551 182 541 C 176 531 174 520 174 508 L 97 508 C 97 555 106 590 125 613 C 144 636 164 648 185 648 C 200 648 213 644 225 638 C 236 632 248 625 260 618 C 268 612 276 606 284 600 C 292 594 300 592 308 592 C 314 592 321 596 327 606 C 333 616 337 628 337 644 Z" unicode="˜" />
<glyph horiz-adv-x="500" d="M 66 497 L 161 648 L 269 648 L 156 497 L 66 497 Z M 258 497 L 353 648 L 462 648 L 348 497 L 258 497 Z" unicode="˝" />
<glyph horiz-adv-x="0" d="M 0 497 L 0 497 Z M 113 497 L 10 497 L -113 660 L 7 660 L 113 497 Z" unicode="̀" />
<glyph horiz-adv-x="0" d="M 0 497 L 0 497 Z M -112 497 L -8 660 L 113 660 L -10 497 L -112 497 Z" unicode="́" />
<glyph horiz-adv-x="0" d="M 0 498 L 0 498 Z M 176 498 L 81 498 L 0 599 L -82 498 L -175 498 L -52 670 L 53 670 L 176 498 Z" unicode="̂" />
<glyph horiz-adv-x="0" d="M 0 504 L 0 504 Z M 87 644 L 161 644 C 161 596 154 560 141 538 C 127 515 110 504 88 504 C 69 504 53 507 39 514 C 25 520 13 526 5 532 C -4 537 -13 542 -21 548 C -29 553 -38 556 -46 556 C -54 556 -61 551 -67 541 C -73 531 -76 520 -76 508 L -153 508 C -153 555 -143 590 -124 613 C -105 636 -85 648 -65 648 C -49 648 -36 644 -25 638 C -13 632 -2 625 10 618 C 18 612 26 606 34 600 C 42 594 50 592 58 592 C 64 592 71 596 77 606 C 83 616 87 628 87 644 Z" unicode="̃" />
<glyph horiz-adv-x="0" d="M 0 520 L 0 520 Z M 134 520 L -134 520 L -134 595 L 134 595 L 134 520 Z" unicode="̄" />
<glyph horiz-adv-x="0" d="M 0 502 L 0 502 Z M 76 660 L 161 660 C 157 604 140 564 110 539 C 80 514 44 502 0 502 C -44 502 -80 514 -110 539 C -140 564 -157 604 -161 660 L -76 660 C -74 629 -67 604 -55 585 C -43 566 -24 557 0 557 C 24 557 43 566 55 584 C 67 602 74 627 76 660 Z" unicode="̆" />
<glyph horiz-adv-x="0" d="M 0 498 L 0 498 Z M 47 498 L -46 498 L -46 662 L 47 662 L 47 498 Z" unicode="̇" />
<glyph horiz-adv-x="0" d="M 0 498 L 0 498 Z M 137 498 L 51 498 L 51 657 L 137 657 L 137 498 Z M -51 498 L -137 498 L -137 657 L -51 657 L -51 498 Z" unicode="̈" />
<glyph horiz-adv-x="0" d="M 0 494 L 0 494 Z M 0 494 C -32 494 -59 505 -81 527 C -103 549 -114 577 -114 609 C -114 641 -103 668 -81 690 C -59 712 -32 723 0 723 C 32 723 60 712 82 690 C 104 668 115 641 115 609 C 115 577 104 549 82 527 C 60 505 32 494 0 494 Z M 0 554 C 15 554 28 559 38 570 C 48 580 54 593 54 609 C 54 624 48 637 38 648 C 28 658 15 664 0 664 C -14 664 -27 658 -38 648 C -48 637 -54 624 -54 609 C -54 593 -48 580 -38 570 C -27 559 -14 554 0 554 Z" unicode="̊" />
<glyph horiz-adv-x="0" d="M 0 497 L 0 497 Z M -197 497 L -102 648 L 6 648 L -107 497 L -197 497 Z M -5 497 L 90 648 L 199 648 L 85 497 L -5 497 Z" unicode="̋" />
<glyph horiz-adv-x="0" d="M 0 498 L 0 498 Z M -175 670 L -80 670 L 1 569 L 83 670 L 176 670 L 53 498 L -52 498 L -175 670 Z" unicode="̌" />
<glyph horiz-adv-x="0" d="M 0 -72 L 0 -72 Z M 98 -72 C 96 -94 91 -118 83 -143 C 75 -167 65 -191 54 -214 C 42 -237 30 -258 17 -277 C 3 -296 -9 -311 -23 -323 L -98 -288 C -90 -278 -81 -266 -72 -250 C -62 -234 -53 -217 -45 -198 C -37 -179 -29 -159 -22 -137 C -15 -115 -10 -93 -7 -72 L 98 -72 Z" unicode="̦" />
<glyph horiz-adv-x="0" d="M 0 0 L 0 0 Z M 9 -189 C -15 -189 -40 -186 -66 -180 C -92 -174 -112 -166 -126 -157 L -115 -111 C -105 -116 -92 -121 -76 -127 C -60 -132 -43 -135 -25 -135 C -11 -135 1 -131 12 -125 C 22 -119 28 -111 28 -101 C 28 -89 23 -80 14 -76 C 4 -71 -5 -69 -16 -69 C -24 -69 -30 -69 -36 -70 C -41 -71 -47 -73 -54 -75 L -70 -58 L -8 13 L 55 13 L 5 -49 C 39 -42 67 -45 91 -58 C 114 -70 126 -89 126 -114 C 126 -139 114 -158 90 -170 C 66 -182 39 -189 9 -189 Z" unicode="̧" />
<glyph horiz-adv-x="0" d="M 0 0 L 0 0 Z M 103 -83 L 132 -126 C 111 -147 88 -163 63 -174 C 37 -185 9 -191 -21 -191 C -55 -191 -83 -183 -103 -169 C -123 -154 -133 -135 -133 -113 C -133 -88 -120 -65 -95 -43 C -69 -21 -35 -2 9 13 L 47 13 C 18 0 -4 -14 -21 -28 C -37 -42 -46 -57 -46 -72 C -46 -85 -40 -95 -29 -103 C -18 -111 -4 -115 12 -115 C 31 -115 48 -112 64 -106 C 80 -100 93 -92 103 -83 Z" unicode="̨" />
<glyph horiz-adv-x="563" d="M 0 0 L 0 0 Z M 641 0 L 0 0 L 305 730 L 337 730 L 641 0 Z M 497 86 L 318 525 L 139 86 L 497 86 Z" unicode="Δ" />
<glyph horiz-adv-x="724" d="M 46 0 L 46 0 Z M 55 0 L 55 94 L 253 94 L 253 163 C 189 189 138 228 101 279 C 64 330 46 386 46 446 C 46 488 54 527 70 564 C 86 600 108 632 138 659 C 168 686 204 707 247 723 C 289 739 337 747 389 747 C 443 747 492 739 536 723 C 580 707 617 685 647 658 C 677 631 700 599 716 563 C 732 526 740 487 740 446 C 740 384 723 328 689 278 C 655 228 603 189 533 163 L 533 94 L 730 94 L 730 0 L 441 0 L 441 212 C 499 232 544 263 578 305 C 612 346 629 391 629 441 C 629 473 622 502 610 529 C 598 556 581 579 560 599 C 539 618 514 633 485 644 C 455 655 424 661 390 661 C 357 661 326 655 298 644 C 269 633 244 618 224 598 C 204 578 188 555 176 528 C 164 501 158 471 158 439 C 158 391 174 346 207 306 C 239 266 286 234 346 212 L 346 0 L 55 0 Z" unicode="Ω" />
<glyph horiz-adv-x="588" d="M 66 0 L 66 0 Z M 66 -103 L 66 436 L 167 436 L 167 160 C 167 132 176 110 194 95 C 212 79 235 72 265 72 C 297 72 324 81 346 100 C 368 118 379 146 379 182 L 379 436 L 480 436 L 480 0 L 388 0 L 388 90 C 376 63 357 40 333 22 C 308 4 279 -5 246 -7 C 225 -7 207 -3 192 5 C 176 13 165 25 159 40 L 159 -103 L 66 -103 Z" unicode="μ" />
<glyph horiz-adv-x="636" d="M 191 462 L 191 0 L 91 0 L 91 462 L 15 462 L 15 541 L 621 541 L 621 462 L 541 462 L 541 0 L 440 0 L 440 462 L 191 462 Z" unicode="π" />
<glyph horiz-adv-x="926" d="M 5 0 L 5 0 Z M 922 730 L 693 -8 L 635 -8 L 464 527 L 287 -8 L 229 -8 L 5 730 L 114 730 L 264 217 L 439 730 L 498 730 L 667 217 L 820 730 L 922 730 Z M 469 791 L 469 791 Z M 582 791 L 479 791 L 356 954 L 476 954 L 582 791 Z" unicode="Ẁ" />
<glyph horiz-adv-x="672" d="M 6 0 L 6 0 Z M 448 -3 L 337 271 L 222 -3 L 166 -3 L 6 436 L 112 436 L 207 151 L 313 409 L 368 409 L 472 151 L 569 436 L 665 436 L 505 -3 L 448 -3 Z M 336 497 L 336 497 Z M 449 497 L 346 497 L 223 660 L 343 660 L 449 497 Z" unicode="ẁ" />
<glyph horiz-adv-x="926" d="M 5 0 L 5 0 Z M 922 730 L 693 -8 L 635 -8 L 464 527 L 287 -8 L 229 -8 L 5 730 L 114 730 L 264 217 L 439 730 L 498 730 L 667 217 L 820 730 L 922 730 Z M 469 791 L 469 791 Z M 357 791 L 461 954 L 582 954 L 459 791 L 357 791 Z" unicode="Ẃ" />
<glyph horiz-adv-x="672" d="M 6 0 L 6 0 Z M 448 -3 L 337 271 L 222 -3 L 166 -3 L 6 436 L 112 436 L 207 151 L 313 409 L 368 409 L 472 151 L 569 436 L 665 436 L 505 -3 L 448 -3 Z M 336 497 L 336 497 Z M 224 497 L 328 660 L 449 660 L 326 497 L 224 497 Z" unicode="ẃ" />
<glyph horiz-adv-x="926" d="M 5 0 L 5 0 Z M 922 730 L 693 -8 L 635 -8 L 464 527 L 287 -8 L 229 -8 L 5 730 L 114 730 L 264 217 L 439 730 L 498 730 L 667 217 L 820 730 L 922 730 Z M 469 792 L 469 792 Z M 606 792 L 520 792 L 520 951 L 606 951 L 606 792 Z M 418 792 L 332 792 L 332 951 L 418 951 L 418 792 Z" unicode="Ẅ" />
<glyph horiz-adv-x="672" d="M 6 0 L 6 0 Z M 448 -3 L 337 271 L 222 -3 L 166 -3 L 6 436 L 112 436 L 207 151 L 313 409 L 368 409 L 472 151 L 569 436 L 665 436 L 505 -3 L 448 -3 Z M 336 498 L 336 498 Z M 473 498 L 387 498 L 387 657 L 473 657 L 473 498 Z M 285 498 L 199 498 L 199 657 L 285 657 L 285 498 Z" unicode="ẅ" />
<glyph horiz-adv-x="605" d="M 0 0 L 0 0 Z M 653 730 L 379 325 L 379 0 L 269 0 L 269 329 L 0 730 L 124 730 L 330 426 L 534 730 L 653 730 Z M 327 791 L 327 791 Z M 440 791 L 337 791 L 214 954 L 334 954 L 440 791 Z" unicode="Ỳ" />
<glyph horiz-adv-x="482" d="M 0 0 L 0 0 Z M 482 436 L 224 -89 C 201 -135 175 -165 147 -179 C 119 -193 93 -200 70 -200 C 55 -200 42 -198 31 -195 C 19 -192 11 -190 6 -188 L 33 -94 C 35 -95 41 -97 49 -99 C 57 -101 64 -103 72 -103 C 86 -103 100 -98 112 -90 C 124 -81 136 -64 149 -40 L 190 42 L -4 436 L 107 436 L 241 139 L 377 436 L 482 436 Z M 242 497 L 242 497 Z M 355 497 L 252 497 L 129 660 L 249 660 L 355 497 Z" unicode="ỳ" />
<glyph horiz-adv-x="460" d="M 421 224 L 40 224 L 40 312 L 421 312 L 421 224 Z" unicode="–" />
<glyph horiz-adv-x="645" d="M 606 224 L 40 224 L 40 312 L 606 312 L 606 224 Z" unicode="—" />
<glyph horiz-adv-x="280" d="M 33 507 L 33 514 C 33 550 44 589 68 629 C 91 669 122 705 162 737 L 264 731 C 254 725 242 715 228 701 C 214 687 200 670 188 651 C 175 631 164 610 155 587 C 146 563 142 539 142 515 L 142 507 L 33 507 Z" unicode="‘" />
<glyph horiz-adv-x="280" d="M 246 737 L 246 730 C 246 693 234 655 210 616 C 186 577 155 541 117 507 L 15 513 C 25 521 37 532 51 546 C 65 560 78 577 91 596 C 103 614 114 635 123 658 C 132 680 137 704 137 729 L 137 737 L 246 737 Z" unicode="’" />
<glyph horiz-adv-x="280" d="M 246 113 L 246 106 C 246 69 234 31 210 -7 C 186 -46 155 -83 117 -117 L 15 -111 C 25 -103 37 -91 51 -77 C 65 -63 78 -46 91 -28 C 103 -9 114 11 123 34 C 132 56 137 80 137 105 L 137 113 L 246 113 Z" unicode="‚" />
<glyph horiz-adv-x="461" d="M 229 507 L 229 514 C 229 550 238 587 258 625 C 278 663 308 700 348 737 L 446 731 C 436 722 424 710 411 696 C 398 682 386 665 374 647 C 362 628 351 607 343 585 C 335 563 331 539 331 515 L 331 507 L 229 507 Z M 33 507 L 33 514 C 33 550 43 587 65 625 C 86 663 115 700 153 737 L 250 731 C 241 723 230 711 217 697 C 204 683 192 666 180 648 C 168 629 157 608 149 586 C 140 563 136 539 136 515 L 136 507 L 33 507 Z" unicode="“" />
<glyph horiz-adv-x="461" d="M 232 737 L 232 730 C 232 693 222 656 204 618 C 185 580 155 543 113 507 L 15 513 C 26 522 38 534 52 549 C 65 563 77 580 89 598 C 101 616 110 637 118 659 C 126 681 130 704 130 729 L 130 737 L 232 737 Z M 428 737 L 428 730 C 428 693 418 655 398 617 C 378 579 348 542 308 507 L 211 513 C 223 523 235 535 249 549 C 262 563 274 580 286 598 C 297 616 306 637 314 659 C 321 681 325 704 325 729 L 325 737 L 428 737 Z" unicode="”" />
<glyph horiz-adv-x="461" d="M 232 118 L 232 111 C 232 74 222 37 204 0 C 185 -38 155 -75 113 -112 L 15 -106 C 26 -96 38 -84 52 -70 C 65 -55 77 -38 89 -20 C 101 -2 110 18 118 40 C 126 62 130 85 130 110 L 130 118 L 232 118 Z M 428 118 L 428 111 C 428 74 418 36 398 -1 C 378 -39 348 -76 308 -112 L 211 -106 C 223 -96 235 -83 249 -69 C 262 -55 274 -38 286 -20 C 297 -2 306 18 314 40 C 321 62 325 85 325 110 L 325 118 L 428 118 Z" unicode="„" />
<glyph horiz-adv-x="565" d="M 540 370 L 333 370 L 333 -179 L 226 -179 L 226 370 L 25 370 L 25 470 L 226 470 L 226 730 L 333 730 L 333 470 L 540 470 L 540 370 Z" unicode="†" />
<glyph horiz-adv-x="565" d="M 227 -179 L 227 95 L 30 95 L 30 195 L 227 195 L 227 369 L 30 369 L 30 469 L 227 469 L 227 730 L 333 730 L 333 469 L 535 469 L 535 369 L 333 369 L 333 195 L 535 195 L 535 95 L 333 95 L 333 -179 L 227 -179 Z" unicode="‡" />
<glyph horiz-adv-x="382" d="M 191 473 C 217 473 240 464 258 446 C 276 428 285 405 285 379 C 285 353 276 331 258 313 C 240 295 217 286 191 286 C 164 286 142 295 124 313 C 106 331 98 353 98 379 C 98 405 106 428 124 446 C 142 464 164 473 191 473 Z" unicode="•" />
<glyph horiz-adv-x="721" d="M 69 0 L 69 130 L 173 130 L 173 0 L 69 0 Z M 309 0 L 309 130 L 412 130 L 412 0 L 309 0 Z M 549 0 L 549 130 L 652 130 L 652 0 L 549 0 Z" unicode="…" />
<glyph horiz-adv-x="1123" d="M 200 363 C 182 363 163 366 144 374 C 125 382 108 393 93 409 C 78 425 66 444 56 468 C 46 492 41 519 41 551 C 41 577 45 601 54 624 C 62 647 74 667 88 684 C 102 701 119 715 139 725 C 158 735 178 740 199 740 C 222 740 243 735 263 725 C 283 715 300 701 314 685 C 328 668 338 648 346 626 C 354 603 358 579 358 554 C 358 527 353 502 345 479 C 337 455 326 435 312 418 C 298 400 281 387 262 377 C 242 367 222 363 200 363 Z M 135 0 L 552 730 L 626 730 L 209 0 L 135 0 Z M 134 551 C 134 517 140 490 152 470 C 164 450 180 441 199 441 C 221 441 239 451 251 471 C 263 491 269 518 269 551 C 269 582 263 608 253 630 C 242 651 225 662 202 662 C 180 662 163 651 151 630 C 139 608 134 582 134 551 Z M 569 -3 C 550 -3 531 0 513 8 C 494 16 477 27 463 43 C 448 59 436 78 427 102 C 417 126 413 153 413 185 C 413 211 417 235 425 258 C 433 281 444 301 458 318 C 472 335 489 349 509 359 C 528 369 549 374 572 374 C 595 374 616 369 636 359 C 656 349 672 335 686 319 C 700 302 710 282 718 260 C 725 237 729 213 729 188 C 729 161 725 136 717 113 C 709 89 698 69 684 52 C 670 34 653 21 633 11 C 613 1 592 -3 569 -3 Z M 921 -3 C 902 -3 883 0 865 8 C 846 16 829 27 815 43 C 800 59 788 78 779 102 C 769 126 765 153 765 185 C 765 211 769 235 777 258 C 785 281 796 301 810 318 C 824 335 841 349 861 359 C 880 369 901 374 924 374 C 947 374 968 369 988 359 C 1008 349 1024 335 1038 319 C 1052 302 1062 282 1070 260 C 1077 237 1081 213 1081 188 C 1081 161 1077 136 1069 113 C 1061 89 1050 69 1036 52 C 1022 34 1005 21 985 11 C 965 1 944 -3 921 -3 Z M 570 76 C 592 76 610 85 622 105 C 634 125 640 151 640 185 C 640 217 634 244 622 265 C 610 285 593 296 571 296 C 551 296 536 285 524 265 C 512 244 506 217 506 185 C 506 149 512 122 524 104 C 536 85 552 76 570 76 Z M 923 76 C 945 76 962 85 974 105 C 986 125 993 151 993 185 C 993 217 987 244 975 265 C 963 285 946 296 924 296 C 904 296 888 285 876 265 C 864 244 858 217 858 185 C 858 149 864 122 877 104 C 890 85 905 76 923 76 Z" unicode="‰" />
<glyph horiz-adv-x="242" d="M 213 67 L 27 236 L 27 313 L 213 480 L 213 371 L 115 272 L 213 178 L 213 67 Z" unicode="‹" />
<glyph horiz-adv-x="243" d="M 29 480 L 216 310 L 216 234 L 29 67 L 29 175 L 127 274 L 29 368 L 29 480 Z" unicode="›" />
<glyph horiz-adv-x="145" d="M 304 730 L -57 0 L -145 0 L 216 730 L 304 730 Z" unicode="⁄" />
<glyph horiz-adv-x="328" d="M 14 453 L 14 514 L 198 737 L 256 737 L 256 518 L 316 518 L 316 453 L 256 453 L 256 373 L 173 373 L 173 453 L 14 453 Z M 82 506 L 175 506 L 175 620 L 82 506 Z" unicode="⁴" />
<glyph horiz-adv-x="566" d="M 563 115 C 542 77 512 47 472 23 C 432 0 388 -12 340 -12 C 278 -12 224 11 179 57 C 133 103 103 167 88 247 L 36 247 L 36 328 L 79 328 C 78 333 78 338 78 344 C 78 350 78 355 78 361 C 78 364 78 367 78 371 C 78 375 78 378 78 382 L 36 382 L 36 464 L 85 464 C 91 504 101 542 115 576 C 129 610 146 639 168 664 C 189 688 214 707 243 721 C 271 735 303 742 339 742 C 398 742 445 730 479 706 C 513 682 538 655 555 625 L 473 583 C 460 605 443 624 422 639 C 400 653 373 661 339 661 C 297 661 262 644 235 611 C 207 577 189 528 180 464 L 492 464 L 492 382 L 174 382 C 174 379 174 376 174 373 C 174 369 174 366 174 363 C 174 357 174 351 174 345 C 174 339 174 333 175 328 L 492 328 L 492 247 L 185 247 C 197 188 217 144 246 114 C 274 84 306 69 341 69 C 375 69 404 78 428 97 C 452 116 471 138 485 163 L 563 115 Z" unicode="€" />
<glyph horiz-adv-x="890" d="M 839 311 L 748 311 L 748 581 L 623 390 L 596 390 L 471 580 L 471 311 L 383 311 L 383 730 L 477 730 L 609 526 L 742 730 L 839 730 L 839 311 Z M 354 632 L 236 632 L 236 311 L 140 311 L 140 632 L 19 632 L 19 730 L 354 730 L 354 632 Z" unicode="™" />
<glyph horiz-adv-x="787" d="M 55 0 L 55 94 L 253 94 L 253 163 C 189 189 138 228 101 279 C 64 330 46 386 46 446 C 46 488 54 527 70 564 C 86 600 108 632 138 659 C 168 686 204 707 247 723 C 289 739 337 747 389 747 C 443 747 492 739 536 723 C 580 707 617 685 647 658 C 677 631 700 599 716 563 C 732 526 740 487 740 446 C 740 384 723 328 689 278 C 655 228 603 189 533 163 L 533 94 L 730 94 L 730 0 L 441 0 L 441 212 C 499 232 544 263 578 305 C 612 346 629 391 629 441 C 629 473 622 502 610 529 C 598 556 581 579 560 599 C 539 618 514 633 485 644 C 455 655 424 661 390 661 C 357 661 326 655 298 644 C 269 633 244 618 224 598 C 204 578 188 555 176 528 C 164 501 158 471 158 439 C 158 391 174 346 207 306 C 239 266 286 234 346 212 L 346 0 L 55 0 Z" unicode="Ω" />
<glyph horiz-adv-x="559" d="M 514 277 C 514 226 507 182 494 146 C 481 109 463 79 441 56 C 419 33 393 16 363 5 C 333 -5 301 -11 268 -11 C 238 -11 209 -5 180 4 C 151 14 125 29 103 49 C 81 68 63 92 49 120 C 35 148 29 180 29 216 C 29 248 35 278 47 307 C 59 335 75 360 96 381 C 116 402 141 419 169 432 C 197 444 226 451 258 451 C 298 451 333 441 363 423 C 393 404 415 380 429 352 C 423 419 410 477 390 527 C 370 576 346 616 318 648 C 290 679 259 702 226 718 C 192 734 159 742 127 744 L 173 802 C 207 802 244 792 284 774 C 324 755 360 725 394 683 C 428 641 456 587 479 520 C 502 453 514 372 514 277 Z M 269 61 C 311 61 344 75 370 105 C 396 135 409 176 409 228 C 409 270 396 305 372 334 C 348 362 314 377 270 377 C 230 377 198 362 172 334 C 146 305 134 267 134 219 C 134 168 146 129 172 102 C 197 74 229 61 269 61 Z" unicode="∂" />
<glyph horiz-adv-x="641" d="M 641 0 L 0 0 L 305 730 L 337 730 L 641 0 Z M 497 86 L 318 525 L 139 86 L 497 86 Z" unicode="∆" />
<glyph horiz-adv-x="700" d="M 232 639 L 232 0 L 127 0 L 127 639 L 15 639 L 15 730 L 685 730 L 685 639 L 579 639 L 579 0 L 474 0 L 474 639 L 232 639 Z" unicode="∏" />
<glyph horiz-adv-x="618" d="M 183 639 L 428 307 L 150 -88 L 571 -88 L 571 -179 L -18 -179 L 326 306 L 12 730 L 550 730 L 550 639 L 183 639 Z" unicode="∑" />
<glyph horiz-adv-x="515" d="M 476 291 L 40 291 L 40 372 L 476 372 L 476 291 Z" unicode="−" />
<glyph horiz-adv-x="510" d="M 504 730 L 198 0 L 186 0 L 12 330 L 84 385 L 204 143 L 440 730 L 504 730 Z" unicode="√" />
<glyph horiz-adv-x="342" d="M 105 -21 L 162 625 C 164 644 169 661 177 676 C 185 690 194 702 206 712 C 217 722 229 729 243 734 C 257 739 270 742 284 742 C 298 742 311 741 325 740 C 339 739 347 738 350 738 L 342 649 C 340 649 336 650 330 651 C 324 651 318 652 312 652 C 293 652 278 645 266 633 C 254 620 247 600 245 574 L 190 -57 C 187 -89 174 -117 151 -142 C 127 -167 98 -179 62 -179 C 42 -179 24 -177 7 -173 C -9 -169 -22 -164 -31 -160 L -20 -89 C -16 -89 -9 -91 0 -94 C 10 -96 19 -98 28 -98 C 47 -98 64 -91 79 -78 C 93 -64 102 -45 105 -21 Z" unicode="∫" />
<glyph horiz-adv-x="500" d="M 359 502 L 449 502 C 447 454 440 414 427 384 C 413 353 390 338 358 338 C 336 338 316 341 298 349 C 279 357 264 366 252 376 C 239 386 225 394 210 402 C 195 409 181 413 167 413 C 155 413 143 406 131 392 C 119 378 113 361 113 341 L 35 341 C 35 391 44 430 63 459 C 82 488 107 503 139 503 C 159 503 177 499 193 491 C 209 483 223 474 235 466 C 246 458 259 451 273 445 C 287 439 300 436 313 436 C 329 436 341 441 348 453 C 355 464 359 480 359 502 Z M 362 323 L 449 323 C 447 275 438 235 421 204 C 404 173 379 158 345 158 C 322 158 302 162 286 170 C 269 178 255 186 245 196 C 233 204 220 212 206 219 C 192 226 178 230 166 230 C 155 230 144 223 132 211 C 120 198 115 181 115 161 L 35 161 C 35 211 44 250 64 280 C 84 310 111 325 146 325 C 168 325 188 320 205 311 C 222 302 236 293 247 285 C 257 276 268 269 282 263 C 296 257 308 255 319 255 C 334 255 345 260 352 272 C 358 283 362 300 362 323 Z" unicode="≈" />
<glyph horiz-adv-x="500" d="M 457 171 L 228 171 L 177 63 L 110 92 L 147 171 L 65 171 L 65 258 L 188 258 L 249 386 L 65 386 L 65 472 L 289 472 L 343 586 L 409 557 L 369 472 L 457 472 L 457 386 L 329 386 L 269 258 L 457 258 L 457 171 Z" unicode="≠" />
<glyph horiz-adv-x="500" d="M 62 292 L 62 357 L 433 561 L 433 465 L 161 327 L 433 186 L 433 90 L 62 292 Z M 61 88 L 433 88 L 433 11 L 61 11 L 61 88 Z" unicode="≤" />
<glyph horiz-adv-x="500" d="M 432 292 L 61 90 L 61 186 L 333 327 L 61 465 L 61 561 L 432 357 L 432 292 Z M 433 88 L 433 11 L 61 11 L 61 88 L 433 88 Z" unicode="≥" />
<glyph horiz-adv-x="537" d="M 508 326 L 274 -19 L 263 -19 L 29 326 L 29 337 L 263 681 L 274 681 L 508 337 L 508 326 Z M 413 327 L 413 336 L 273 547 L 265 547 L 124 336 L 124 327 L 265 115 L 273 115 L 413 327 Z" unicode="◊" />
<glyph horiz-adv-x="730" d="M 448 673 L 282 673 L 282 730 L 448 730 L 448 673 Z M 659 282 L 600 282 L 600 448 L 659 448 L 659 282 Z M 130 282 L 71 282 L 71 448 L 130 448 L 130 282 Z M 433 297 L 297 297 L 297 433 L 433 433 L 433 297 Z M 448 0 L 282 0 L 282 58 L 448 58 L 448 0 Z" unicode="" />
<glyph horiz-adv-x="553" d="M 322 358 L 209 358 L 209 0 L 109 0 L 109 358 L 16 358 L 16 436 L 109 436 L 109 508 C 109 548 115 582 127 612 C 139 642 154 666 173 685 C 192 703 214 717 238 726 C 262 735 286 740 310 740 C 324 740 338 739 350 737 C 362 735 373 732 381 730 L 381 646 C 375 648 368 649 359 651 C 349 652 339 653 327 653 C 313 653 299 649 285 643 C 271 637 258 628 247 616 C 235 604 226 591 219 575 C 212 559 209 541 209 522 L 209 436 L 322 436 L 322 358 Z M 492 529 L 388 529 L 388 633 L 492 633 L 492 529 Z M 490 0 L 390 0 L 390 436 L 490 436 L 490 0 Z" unicode="ﬁ" />
<glyph horiz-adv-x="545" d="M 322 358 L 209 358 L 209 0 L 109 0 L 109 358 L 16 358 L 16 436 L 109 436 L 109 500 C 109 540 115 575 127 605 C 139 635 154 660 173 680 C 192 700 214 714 238 724 C 262 734 286 739 310 739 C 324 739 338 738 350 736 C 362 734 373 731 381 729 L 381 644 C 375 646 368 647 359 649 C 349 651 339 652 327 652 C 313 652 299 648 285 641 C 271 633 258 623 247 611 C 235 599 226 584 219 568 C 212 551 209 533 209 514 L 209 436 L 322 436 L 322 358 Z M 483 730 L 483 0 L 382 0 L 382 730 L 483 730 Z" unicode="ﬂ" />
</font>
</defs>
</svg>
