<?xml version="1.0" encoding="utf-8" ?><svg version="1.1" xmlns = 'http://www.w3.org/2000/svg'><defs><font id='web' horiz-adv-x="1000">
<font-face font-family="web" descent="-200" cap-height="730" units-per-em="1000" bbox="-165,-319,946,1034" x-height="436" ascent="800" />
<missing-glyph horiz-adv-x="500" d="" /><glyph horiz-adv-x="178" d="" unicode=" " />
<glyph horiz-adv-x="257" d="M 179 426 L 148 201 L 108 201 L 77 426 L 77 730 L 179 730 L 179 426 Z M 175 0 L 82 0 L 82 105 L 175 105 L 175 0 Z" unicode="!" />
<glyph horiz-adv-x="334" d="M 287 624 L 281 487 L 209 487 L 204 623 L 204 730 L 287 730 L 287 624 Z M 130 623 L 125 487 L 52 487 L 47 623 L 47 730 L 130 730 L 130 623 Z" unicode="&#x22;" />
<glyph horiz-adv-x="543" d="M 496 219 L 385 219 L 366 0 L 307 1 L 326 219 L 191 219 L 172 0 L 113 1 L 132 219 L 29 219 L 29 300 L 139 300 L 150 427 L 47 427 L 47 508 L 158 508 L 177 730 L 236 729 L 217 508 L 352 508 L 371 730 L 430 729 L 411 508 L 514 508 L 514 427 L 403 427 L 392 300 L 496 300 L 496 219 Z M 198 300 L 333 300 L 344 427 L 209 427 L 198 300 Z" unicode="#" />
<glyph horiz-adv-x="455" d="M 421 186 C 421 132 405 89 373 57 C 341 25 304 6 260 0 L 260 -129 L 199 -129 L 199 -1 C 163 1 131 9 102 23 C 73 37 47 58 23 87 L 64 148 C 80 125 100 108 125 97 C 149 85 174 79 199 77 L 199 344 C 149 371 111 400 84 431 C 57 462 44 505 44 559 C 44 606 58 645 88 675 C 117 705 154 724 199 730 L 199 792 L 260 792 L 260 731 C 291 728 319 721 343 709 C 367 697 387 681 405 663 L 357 603 C 343 617 328 628 312 636 C 295 644 278 649 260 652 L 260 409 L 263 407 C 321 375 362 342 386 310 C 409 277 421 236 421 186 Z M 133 553 C 133 530 138 511 147 495 C 156 479 173 462 199 445 L 199 648 C 180 641 164 629 152 613 C 139 597 133 577 133 553 Z M 334 190 C 334 214 328 235 317 253 C 306 271 287 289 260 308 L 260 85 C 280 91 297 103 312 120 C 326 137 334 160 334 190 Z" unicode="$" />
<glyph horiz-adv-x="678" d="M 168 363 C 152 363 136 366 120 374 C 104 382 89 393 77 409 C 64 425 54 444 46 468 C 38 492 35 519 35 551 C 35 604 47 649 72 685 C 97 721 129 740 167 740 C 187 740 206 735 223 725 C 240 715 254 701 266 685 C 278 668 287 648 294 626 C 300 603 304 579 304 554 C 304 527 300 502 293 479 C 286 455 277 435 265 418 C 253 400 238 387 222 377 C 205 367 187 363 168 363 Z M 155 0 L 87 0 L 504 730 L 572 730 L 155 0 Z M 168 435 C 190 435 204 447 212 471 C 219 495 223 522 223 551 C 223 565 222 579 220 593 C 218 607 215 619 211 631 C 207 642 201 651 195 658 C 188 665 180 669 170 669 C 149 669 135 656 127 632 C 119 607 116 580 116 551 C 116 537 116 523 118 509 C 120 495 123 482 127 471 C 131 460 136 451 143 445 C 149 438 158 435 168 435 Z M 505 -3 C 488 -3 471 0 455 8 C 439 16 424 27 412 43 C 399 59 389 78 381 102 C 373 126 369 153 369 185 C 369 238 381 283 407 319 C 433 355 466 374 507 374 C 527 374 546 369 563 359 C 580 349 594 335 606 319 C 617 302 626 282 632 260 C 638 237 642 213 642 188 C 642 161 638 136 632 113 C 625 89 616 69 604 52 C 592 34 577 21 561 11 C 544 1 525 -3 505 -3 Z M 504 70 C 525 70 540 81 548 105 C 556 129 561 155 561 185 C 561 199 560 214 558 228 C 556 242 552 254 548 265 C 544 276 538 285 531 292 C 524 299 516 303 506 303 C 487 303 473 290 464 266 C 455 242 451 215 451 185 C 451 155 455 129 463 105 C 471 81 484 70 504 70 Z" unicode="%" />
<glyph horiz-adv-x="621" d="M 615 55 L 549 -8 L 477 72 C 446 45 412 25 376 12 C 339 -1 298 -8 254 -8 C 184 -8 129 8 88 42 C 46 75 26 122 26 183 C 26 243 41 288 72 320 C 103 351 140 379 182 404 L 171 417 C 155 434 139 457 122 485 C 105 513 97 546 97 584 C 97 603 100 622 107 641 C 114 659 125 676 139 690 C 153 704 170 715 191 724 C 211 732 235 737 263 737 C 315 737 358 722 390 694 C 422 666 438 632 438 592 C 438 550 426 514 402 483 C 378 452 346 423 306 396 L 482 202 C 490 214 499 228 509 242 C 519 256 528 272 538 289 L 607 240 C 596 221 585 203 574 186 C 562 168 551 152 540 138 L 615 55 Z M 239 470 L 258 449 C 290 469 313 489 327 509 C 341 528 348 548 348 570 C 348 592 341 612 327 630 C 313 648 293 657 267 657 C 241 657 222 648 210 631 C 198 614 192 596 192 576 C 192 559 195 541 203 522 C 210 503 222 486 239 470 Z M 127 189 C 127 152 141 124 170 104 C 198 84 232 74 270 74 C 300 74 327 79 352 89 C 376 99 400 115 422 135 L 232 348 C 202 327 177 304 157 280 C 137 255 127 225 127 189 Z" unicode="&#x26;" />
<glyph horiz-adv-x="180" d="M 133 621 L 129 483 L 51 483 L 46 621 L 46 730 L 133 730 L 133 621 Z" unicode="'" />
<glyph horiz-adv-x="292" d="M 271 -118 L 271 -179 C 239 -163 208 -140 178 -111 C 148 -82 121 -48 98 -8 C 74 31 56 76 42 127 C 28 178 21 233 21 293 C 21 348 27 400 40 448 C 52 496 70 540 92 579 C 114 618 140 652 171 681 C 201 709 235 732 271 749 L 271 689 C 220 655 181 605 155 537 C 128 469 114 387 114 293 C 114 204 126 124 151 52 C 175 -20 215 -76 271 -118 Z" unicode="(" />
<glyph horiz-adv-x="292" d="M 21 690 L 21 749 C 55 734 87 713 118 685 C 148 657 175 623 197 584 C 219 544 237 499 251 449 C 264 398 271 343 271 284 C 271 228 264 176 251 127 C 237 78 219 34 197 -4 C 174 -43 147 -78 117 -108 C 87 -138 55 -161 21 -179 L 21 -116 C 75 -76 114 -22 140 48 C 165 118 178 196 178 284 C 178 380 166 463 140 533 C 114 602 74 654 21 690 Z" unicode=")" />
<glyph horiz-adv-x="380" d="M 353 596 L 227 556 L 310 456 L 271 424 L 192 530 L 114 425 L 72 455 L 156 557 L 33 596 L 56 648 L 170 598 L 165 730 L 218 730 L 213 598 L 332 642 L 353 596 Z" unicode="*" />
<glyph horiz-adv-x="472" d="M 448 295 L 274 295 L 274 125 L 199 125 L 199 295 L 25 295 L 25 367 L 199 367 L 199 537 L 274 537 L 274 367 L 448 367 L 448 295 Z" unicode="+" />
<glyph horiz-adv-x="206" d="M 173 103 C 173 80 170 57 164 33 C 158 9 150 -14 141 -36 C 132 -58 122 -79 111 -98 C 100 -117 89 -133 79 -145 L 8 -113 C 14 -103 21 -91 29 -75 C 37 -59 44 -42 51 -23 C 58 -4 64 16 69 38 C 73 60 76 81 77 103 L 173 103 Z" unicode="," />
<glyph horiz-adv-x="313" d="M 279 224 L 35 224 L 35 308 L 279 308 L 279 224 Z" unicode="-" />
<glyph horiz-adv-x="208" d="M 151 0 L 57 0 L 57 125 L 151 125 L 151 0 Z" unicode="." />
<glyph horiz-adv-x="306" d="M 303 730 L 89 0 L 3 0 L 219 730 L 303 730 Z" unicode="/" />
<glyph horiz-adv-x="440" d="M 217 -7 C 190 -7 165 0 142 11 C 119 23 99 44 83 73 C 66 101 53 139 43 187 C 33 234 29 292 29 361 C 29 477 44 569 75 637 C 106 704 155 738 221 738 C 255 738 284 729 308 712 C 332 695 352 671 367 640 C 382 608 393 570 400 524 C 407 478 411 428 411 372 C 411 247 394 153 362 89 C 329 25 281 -7 217 -7 Z M 218 73 C 252 73 278 95 294 140 C 310 185 318 259 318 362 C 318 461 311 535 297 583 C 283 631 258 656 220 656 C 184 656 158 633 143 587 C 128 541 121 466 121 364 C 121 309 123 263 127 226 C 131 188 138 158 146 136 C 154 113 165 97 177 87 C 189 77 202 73 218 73 Z" unicode="0" />
<glyph horiz-adv-x="294" d="M 233 0 L 138 0 L 138 591 C 127 570 111 551 89 533 C 67 515 46 505 27 503 L 27 605 C 37 606 48 611 61 619 C 73 627 85 638 97 650 C 109 662 119 675 129 690 C 139 704 146 719 151 733 L 233 733 L 233 0 Z" unicode="1" />
<glyph horiz-adv-x="426" d="M 396 0 L 20 0 L 20 32 L 234 355 C 253 384 269 415 282 448 C 294 481 301 516 301 554 C 301 584 292 609 275 627 C 258 645 234 654 203 654 C 167 654 141 641 127 615 C 113 589 106 558 106 520 L 26 520 C 26 594 42 649 75 684 C 107 719 151 737 206 737 C 258 737 301 722 336 692 C 371 662 389 617 389 557 C 389 502 382 458 368 424 C 354 390 337 359 319 331 L 154 83 L 396 83 L 396 0 Z" unicode="2" />
<glyph horiz-adv-x="424" d="M 195 -7 C 147 -7 108 1 79 18 C 50 35 27 55 11 77 L 59 140 C 71 123 87 108 106 94 C 124 80 149 74 181 74 C 204 74 224 78 241 87 C 258 95 272 107 283 121 C 293 135 301 152 306 170 C 311 188 314 207 314 227 C 314 249 310 269 303 286 C 295 302 286 316 274 327 C 262 338 248 346 233 352 C 217 357 202 360 186 360 L 111 360 L 111 441 L 185 441 C 215 441 241 450 263 470 C 285 490 297 517 297 553 C 297 581 289 604 273 624 C 257 644 235 654 205 654 C 177 654 153 647 134 635 C 114 623 98 606 85 584 L 26 640 C 41 666 64 689 94 709 C 124 728 162 738 208 738 C 261 738 303 723 333 693 C 363 663 378 623 378 571 C 378 546 374 524 368 504 C 361 484 352 468 342 454 C 332 440 320 429 308 421 C 296 412 284 406 274 403 C 289 399 304 392 320 383 C 335 373 349 361 361 346 C 373 330 382 312 390 292 C 397 271 401 247 401 221 C 401 193 397 166 390 139 C 382 111 370 87 354 65 C 338 43 316 26 290 13 C 264 0 232 -7 195 -7 Z" unicode="3" />
<glyph horiz-adv-x="418" d="M 415 198 L 344 198 L 344 0 L 263 0 L 263 198 L 2 198 L 2 261 L 286 738 L 344 738 L 344 277 L 415 277 L 415 198 Z M 263 277 L 263 553 L 100 277 L 263 277 Z" unicode="4" />
<glyph horiz-adv-x="409" d="M 200 -7 C 158 -7 120 1 84 17 C 48 33 21 53 4 78 L 62 140 C 74 120 91 104 114 91 C 136 78 162 72 191 72 C 226 72 254 87 274 117 C 294 147 304 188 304 240 C 304 288 294 325 276 351 C 257 377 233 391 203 391 C 169 391 144 384 129 370 C 113 356 101 338 93 316 L 30 330 L 57 730 L 361 730 L 361 647 L 128 647 L 113 416 C 120 428 133 441 151 454 C 169 466 196 473 232 473 C 279 473 318 455 349 419 C 380 383 396 327 396 251 C 396 207 390 169 380 137 C 369 104 355 77 337 56 C 319 35 299 19 275 9 C 251 -1 226 -7 200 -7 Z" unicode="5" />
<glyph horiz-adv-x="417" d="M 218 -8 C 162 -8 115 11 79 49 C 42 87 24 143 24 219 C 24 298 39 372 71 441 C 103 509 146 581 201 656 L 266 745 L 334 703 L 292 647 C 242 581 204 524 179 476 C 154 428 137 391 129 365 C 137 381 150 395 168 406 C 186 416 208 422 235 422 C 280 422 319 403 351 365 C 383 327 400 275 400 209 C 400 146 383 94 349 53 C 315 12 271 -8 218 -8 Z M 216 71 C 245 71 268 83 286 107 C 303 131 312 164 312 207 C 312 254 303 289 286 312 C 268 334 245 346 217 346 C 188 346 164 334 145 311 C 125 288 116 255 116 212 C 116 163 125 127 145 105 C 165 82 188 71 216 71 Z" unicode="6" />
<glyph horiz-adv-x="354" d="M 359 730 L 359 686 L 101 -4 L 22 27 L 254 647 L 9 647 L 9 730 L 359 730 Z" unicode="7" />
<glyph horiz-adv-x="429" d="M 289 391 C 303 387 317 381 332 372 C 347 362 360 350 372 335 C 384 319 393 301 401 279 C 409 257 413 233 413 205 C 413 139 395 87 359 49 C 323 11 275 -7 213 -7 C 153 -7 105 11 70 48 C 34 85 17 135 17 198 C 17 228 21 254 29 277 C 37 300 47 319 59 335 C 71 351 85 363 99 373 C 113 382 127 388 139 391 C 127 393 114 399 102 407 C 89 415 78 425 68 439 C 58 452 49 468 43 488 C 37 508 34 531 34 558 C 34 586 38 611 48 633 C 58 655 71 674 87 690 C 103 705 122 717 144 725 C 166 733 189 737 214 737 C 268 737 311 721 345 689 C 378 657 395 616 395 566 C 395 540 391 517 385 497 C 379 477 370 459 360 445 C 350 431 338 419 326 410 C 313 401 301 395 289 391 Z M 216 429 C 242 429 265 438 284 457 C 302 476 312 505 312 545 C 312 581 302 608 283 628 C 264 647 241 657 215 657 C 187 657 163 647 144 629 C 125 611 116 583 116 546 C 116 524 119 505 125 490 C 131 475 138 463 148 454 C 158 445 169 439 181 435 C 193 431 204 429 216 429 Z M 216 73 C 248 73 273 84 293 107 C 312 129 322 165 322 215 C 322 261 311 295 289 317 C 267 339 242 351 216 351 C 186 351 160 339 139 317 C 117 294 107 259 107 211 C 107 165 118 130 140 107 C 162 84 187 73 216 73 Z" unicode="8" />
<glyph horiz-adv-x="417" d="M 166 -12 L 97 33 L 129 75 C 146 98 164 124 183 153 C 202 182 220 211 236 240 C 252 268 266 296 278 322 C 290 348 298 369 302 386 C 290 364 273 346 249 331 C 225 315 199 308 172 308 C 127 308 90 328 60 369 C 30 409 16 461 16 523 C 16 587 34 638 70 678 C 106 717 150 737 204 737 C 229 737 253 732 276 723 C 299 713 319 699 336 680 C 353 661 367 637 377 607 C 387 577 393 541 393 501 C 393 459 387 418 376 377 C 365 335 351 296 335 258 C 318 220 299 185 279 152 C 259 118 239 89 221 64 L 166 -12 Z M 199 386 C 211 386 223 388 235 393 C 247 398 257 406 267 417 C 277 427 285 441 291 458 C 297 474 301 494 301 517 C 301 566 291 601 272 623 C 252 644 229 655 202 655 C 171 655 147 643 130 621 C 113 598 105 566 105 524 C 105 478 113 443 129 420 C 145 397 169 386 199 386 Z" unicode="9" />
<glyph horiz-adv-x="206" d="M 150 316 L 56 316 L 56 436 L 150 436 L 150 316 Z M 150 0 L 56 0 L 56 121 L 150 121 L 150 0 Z" unicode=":" />
<glyph horiz-adv-x="206" d="M 157 316 L 63 316 L 63 436 L 157 436 L 157 316 Z M 159 98 C 158 74 155 51 149 27 C 143 3 136 -19 128 -41 C 120 -62 110 -82 100 -100 C 89 -118 78 -133 68 -145 L -3 -113 C 11 -94 26 -65 43 -25 C 59 15 67 56 67 98 L 159 98 Z" unicode=";" />
<glyph horiz-adv-x="338" d="M 298 102 L 31 294 L 31 356 L 298 545 L 298 459 L 119 325 L 298 190 L 298 102 Z" unicode="&#x3C;" />
<glyph horiz-adv-x="483" d="M 430 388 L 55 388 L 55 468 L 430 468 L 430 388 Z M 430 175 L 55 175 L 55 255 L 430 255 L 430 175 Z" unicode="=" />
<glyph horiz-adv-x="338" d="M 307 294 L 40 102 L 40 190 L 216 325 L 40 459 L 40 545 L 307 356 L 307 294 Z" unicode="&#x3E;" />
<glyph horiz-adv-x="427" d="M 154 204 C 154 245 159 280 170 309 C 180 337 197 365 220 393 C 238 414 256 438 274 464 C 292 490 301 521 301 557 C 301 589 291 615 271 634 C 251 652 227 662 198 662 C 172 662 149 654 129 640 C 109 626 93 608 79 587 L 23 640 C 47 674 76 699 110 716 C 144 733 179 742 217 742 C 275 742 319 726 351 695 C 383 664 399 622 399 568 C 399 543 395 520 389 500 C 382 479 373 460 363 442 C 353 424 341 408 329 393 C 316 377 303 362 291 348 C 272 328 259 305 253 278 C 247 251 243 226 243 204 L 154 204 Z M 150 0 L 150 113 L 251 113 L 251 0 L 150 0 Z" unicode="?" />
<glyph horiz-adv-x="829" d="M 411 -39 C 357 -39 307 -29 261 -9 C 215 11 175 38 142 72 C 109 106 83 146 65 192 C 46 238 37 288 37 340 C 37 392 46 442 65 488 C 83 534 109 575 143 609 C 176 643 216 669 263 689 C 309 709 360 719 415 719 C 471 719 523 710 570 693 C 617 676 657 652 690 622 C 722 592 748 555 766 512 C 784 469 794 422 794 372 C 794 327 788 289 778 258 C 767 226 753 201 737 182 C 721 162 703 148 684 140 C 665 131 647 127 631 127 C 600 127 575 134 556 148 C 536 162 524 180 519 202 C 510 185 492 168 464 152 C 436 135 404 127 367 127 C 316 127 278 139 254 164 C 229 188 217 219 217 257 C 217 301 235 335 273 361 C 310 386 357 399 413 399 L 510 399 L 510 410 C 510 444 501 467 484 479 C 466 491 442 498 412 498 C 386 498 363 494 341 488 C 319 482 301 475 287 469 L 260 533 C 279 542 302 550 329 556 C 356 562 383 566 411 566 C 467 566 510 552 541 525 C 571 498 587 455 587 397 L 587 247 C 587 232 590 219 597 207 C 603 195 617 189 637 189 C 645 189 655 191 665 196 C 675 201 685 210 694 223 C 703 236 711 254 717 278 C 723 301 726 331 726 367 C 726 408 718 446 704 482 C 689 517 668 547 642 573 C 615 598 582 618 544 633 C 505 647 462 655 415 655 C 369 655 328 646 290 630 C 252 614 220 591 193 563 C 166 535 145 501 130 463 C 114 425 107 384 107 341 C 107 297 114 256 130 218 C 145 180 166 146 193 118 C 220 89 252 66 290 50 C 328 33 369 25 414 25 C 434 25 455 27 477 31 C 498 35 520 42 543 53 L 568 -5 C 540 -17 514 -26 488 -31 C 462 -36 436 -39 411 -39 Z M 384 195 C 412 195 439 201 464 213 C 489 225 504 238 510 251 L 510 335 L 413 335 C 375 335 347 328 330 316 C 312 304 304 287 304 265 C 304 244 311 227 325 214 C 339 201 359 195 384 195 Z" unicode="@" />
<glyph horiz-adv-x="479" d="M 478 0 L 383 0 L 334 176 L 139 176 L 94 0 L 1 0 L 205 734 L 274 734 L 478 0 Z M 317 259 L 238 541 L 157 259 L 317 259 Z" unicode="A" />
<glyph horiz-adv-x="455" d="M 59 0 L 59 730 L 234 730 C 284 730 325 714 359 684 C 393 653 410 611 410 557 C 410 505 398 465 375 436 C 351 407 325 390 297 385 C 312 383 328 379 344 371 C 360 363 374 351 387 337 C 400 322 411 304 419 282 C 427 260 432 235 432 207 C 432 145 415 95 381 57 C 347 19 303 0 250 0 L 59 0 Z M 155 416 L 215 416 C 249 416 274 428 289 453 C 304 478 312 506 312 537 C 312 569 303 595 287 614 C 270 633 244 643 208 643 L 155 643 L 155 416 Z M 155 89 L 229 89 C 266 89 293 101 309 125 C 325 149 334 178 334 213 C 334 253 323 283 302 303 C 280 323 252 333 218 333 L 155 333 L 155 89 Z" unicode="B" />
<glyph horiz-adv-x="481" d="M 272 -7 C 238 -7 206 0 177 16 C 148 31 123 54 102 85 C 81 115 65 154 53 201 C 41 248 35 303 35 366 C 35 483 55 574 97 639 C 138 704 197 737 273 737 C 335 737 381 723 409 695 C 437 667 457 635 470 598 L 383 564 C 373 586 360 605 344 621 C 328 637 305 645 275 645 C 231 645 197 623 172 580 C 147 536 135 463 135 361 C 135 309 139 265 147 230 C 155 194 166 166 180 145 C 194 123 209 108 227 99 C 245 89 263 85 282 85 C 314 85 338 92 354 106 C 370 120 384 141 395 168 L 477 136 C 461 92 436 58 404 32 C 371 6 327 -7 272 -7 Z" unicode="C" />
<glyph horiz-adv-x="537" d="M 59 0 L 59 730 L 220 730 C 266 730 306 721 342 704 C 377 686 406 662 430 630 C 454 598 472 559 484 514 C 496 468 503 418 503 363 C 503 312 497 264 485 220 C 473 176 455 137 431 105 C 407 73 376 47 340 28 C 304 9 261 0 212 0 L 59 0 Z M 158 87 L 213 87 C 281 87 330 112 359 162 C 387 212 402 278 402 361 C 402 456 386 527 354 573 C 322 619 278 642 222 642 L 158 642 L 158 87 Z" unicode="D" />
<glyph horiz-adv-x="392" d="M 382 0 L 59 0 L 59 730 L 364 730 L 364 640 L 157 640 L 157 410 L 356 410 L 356 319 L 157 319 L 157 90 L 382 90 L 382 0 Z" unicode="E" />
<glyph horiz-adv-x="353" d="M 348 640 L 160 640 L 160 409 L 337 409 L 337 319 L 160 319 L 160 0 L 60 0 L 60 730 L 348 730 L 348 640 Z" unicode="F" />
<glyph horiz-adv-x="524" d="M 278 363 L 499 363 L 499 117 C 481 80 453 50 416 27 C 379 4 332 -7 276 -7 C 242 -7 211 1 182 18 C 152 34 127 58 105 90 C 83 121 65 160 53 207 C 40 253 34 306 34 365 C 34 421 39 473 51 519 C 63 565 79 604 100 636 C 121 668 147 693 177 711 C 207 728 241 737 279 737 C 335 737 378 723 409 696 C 440 669 463 637 478 601 L 392 568 C 381 590 367 608 351 624 C 334 639 310 647 278 647 C 236 647 201 624 174 579 C 147 533 134 462 134 364 C 134 266 148 194 177 148 C 205 102 240 79 281 79 C 312 79 338 84 359 95 C 379 105 396 121 409 141 L 409 278 L 278 278 L 278 363 Z" unicode="G" />
<glyph horiz-adv-x="535" d="M 475 0 L 375 0 L 375 313 L 159 313 L 159 0 L 59 0 L 59 730 L 159 730 L 159 407 L 375 407 L 375 730 L 475 730 L 475 0 Z" unicode="H" />
<glyph horiz-adv-x="227" d="M 164 0 L 63 0 L 63 730 L 164 730 L 164 0 Z" unicode="I" />
<glyph horiz-adv-x="286" d="M 231 730 L 231 182 C 231 127 216 82 187 46 C 158 10 120 -8 72 -8 C 60 -8 48 -7 34 -5 C 20 -3 9 -1 3 1 L 4 94 C 8 91 15 89 24 87 C 32 85 41 85 50 85 C 76 85 96 96 110 120 C 124 143 131 171 131 204 L 131 730 L 231 730 Z" unicode="J" />
<glyph horiz-adv-x="493" d="M 503 0 L 393 0 L 191 334 L 160 293 L 160 0 L 59 0 L 59 730 L 160 730 L 160 404 L 379 730 L 487 730 L 262 398 L 503 0 Z" unicode="K" />
<glyph horiz-adv-x="359" d="M 352 0 L 59 0 L 59 730 L 159 730 L 159 90 L 352 90 L 352 0 Z" unicode="L" />
<glyph horiz-adv-x="644" d="M 585 0 L 490 0 L 490 504 L 346 143 L 301 143 L 154 504 L 154 0 L 59 0 L 59 730 L 143 730 L 324 305 L 507 730 L 585 730 L 585 0 Z" unicode="M" />
<glyph horiz-adv-x="534" d="M 475 0 L 404 0 L 153 499 L 153 0 L 59 0 L 59 730 L 130 730 L 384 234 L 384 730 L 475 730 L 475 0 Z" unicode="N" />
<glyph horiz-adv-x="569" d="M 287 -7 C 207 -7 144 25 100 90 C 56 154 34 248 34 371 C 34 485 56 575 101 640 C 145 704 206 737 282 737 C 363 737 425 705 469 641 C 513 577 535 485 535 365 C 535 248 512 157 466 91 C 420 25 360 -7 287 -7 Z M 285 80 C 331 80 367 103 394 150 C 420 197 434 271 434 371 C 434 464 420 534 393 580 C 365 626 329 649 283 649 C 235 649 198 626 173 581 C 148 535 136 463 136 364 C 136 264 149 192 176 147 C 203 102 239 80 285 80 Z" unicode="O" />
<glyph horiz-adv-x="443" d="M 59 0 L 59 730 L 242 730 C 267 730 291 725 314 716 C 336 706 356 693 373 675 C 389 657 402 635 412 609 C 422 583 427 553 427 520 C 427 452 409 398 374 358 C 338 318 294 298 242 298 L 159 298 L 159 0 L 59 0 Z M 159 385 L 211 385 C 247 385 276 395 298 417 C 319 439 330 473 330 520 C 330 562 318 593 294 613 C 270 633 242 644 210 644 L 159 644 L 159 385 Z" unicode="P" />
<glyph horiz-adv-x="569" d="M 506 -70 L 506 -158 C 464 -150 423 -131 383 -101 C 343 -71 311 -39 287 -5 L 287 -5 C 208 -5 146 27 101 91 C 56 155 34 248 34 371 C 34 485 56 575 102 640 C 147 704 207 737 282 737 C 362 737 424 705 468 641 C 512 577 535 485 535 365 C 535 273 520 198 491 138 C 462 78 424 36 376 14 C 394 -7 415 -25 440 -41 C 464 -57 486 -66 506 -70 Z M 285 73 C 331 73 367 97 394 146 C 420 195 434 269 434 369 C 434 469 419 541 391 586 C 363 631 327 654 283 654 C 235 654 199 631 174 585 C 148 539 136 465 136 363 C 136 264 149 191 176 144 C 202 96 239 73 285 73 Z" unicode="Q" />
<glyph horiz-adv-x="462" d="M 59 0 L 59 730 L 220 730 C 274 730 318 713 353 681 C 388 649 406 600 406 535 C 406 482 394 437 372 400 C 349 363 320 341 284 335 L 282 331 L 463 0 L 356 0 L 188 311 L 151 311 L 151 0 L 59 0 Z M 151 396 L 208 396 C 238 396 262 407 281 429 C 300 451 310 481 310 520 C 310 562 299 592 279 612 C 258 632 233 642 205 642 L 151 642 L 151 396 Z" unicode="R" />
<glyph horiz-adv-x="411" d="M 206 -7 C 168 -7 133 0 102 13 C 70 26 42 49 18 82 L 70 147 C 86 122 105 103 128 91 C 151 78 175 72 199 72 C 224 72 246 81 266 101 C 286 121 296 147 296 181 C 296 215 288 243 272 265 C 256 287 226 313 182 343 C 138 371 102 401 75 433 C 48 464 35 508 35 564 C 35 590 39 614 49 636 C 59 657 72 675 88 690 C 104 705 123 717 145 725 C 167 733 190 737 214 737 C 253 737 286 730 313 718 C 339 705 360 690 375 674 L 324 606 C 312 618 296 628 277 637 C 258 645 238 650 218 650 C 195 650 175 642 157 626 C 139 610 131 588 131 558 C 131 529 139 505 153 487 C 167 468 197 444 243 416 C 295 382 333 348 356 312 C 379 276 391 232 391 182 C 391 151 385 124 375 100 C 364 76 350 57 333 41 C 316 25 296 13 274 5 C 252 -3 229 -7 206 -7 Z" unicode="S" />
<glyph horiz-adv-x="377" d="M 370 640 L 238 640 L 238 0 L 138 0 L 138 640 L 7 640 L 7 730 L 370 730 L 370 640 Z" unicode="T" />
<glyph horiz-adv-x="534" d="M 478 730 L 478 218 C 478 178 472 143 460 115 C 448 87 432 63 412 45 C 392 27 369 13 343 5 C 317 -2 289 -7 261 -7 C 233 -7 207 -2 182 5 C 157 13 135 26 117 44 C 98 62 83 85 72 114 C 61 142 56 177 56 218 L 56 730 L 153 730 L 153 216 C 153 166 163 130 185 110 C 206 89 233 79 265 79 C 295 79 322 88 344 108 C 366 128 378 164 378 216 L 378 730 L 478 730 Z" unicode="U" />
<glyph horiz-adv-x="460" d="M 459 730 L 265 -4 L 191 -4 L 1 730 L 97 730 L 232 206 L 363 730 L 459 730 Z" unicode="V" />
<glyph horiz-adv-x="687" d="M 668 730 L 519 -3 L 450 -3 L 337 514 L 220 -3 L 152 -3 L 4 730 L 98 730 L 194 212 L 304 730 L 378 730 L 485 210 L 583 730 L 668 730 Z" unicode="W" />
<glyph horiz-adv-x="444" d="M 338 0 L 219 272 L 100 0 L 5 0 L 172 380 L 19 730 L 116 730 L 221 490 L 326 730 L 420 730 L 268 383 L 435 0 L 338 0 Z" unicode="X" />
<glyph horiz-adv-x="461" d="M 464 730 L 278 302 L 278 0 L 178 0 L 178 303 L -3 730 L 101 730 L 234 408 L 367 730 L 464 730 Z" unicode="Y" />
<glyph horiz-adv-x="419" d="M 393 730 L 393 679 L 136 90 L 405 90 L 405 0 L 15 0 L 15 49 L 277 638 L 43 638 L 43 730 L 393 730 Z" unicode="Z" />
<glyph horiz-adv-x="223" d="M 203 -179 L 47 -179 L 47 730 L 203 730 L 203 658 L 135 658 L 135 -104 L 203 -104 L 203 -179 Z" unicode="[" />
<glyph horiz-adv-x="306" d="M 3 730 L 86 730 L 303 0 L 218 0 L 3 730 Z" unicode="\" />
<glyph horiz-adv-x="226" d="M 180 -179 L 23 -179 L 23 -108 L 91 -108 L 91 659 L 23 659 L 23 730 L 180 730 L 180 -179 Z" unicode="]" />
<glyph horiz-adv-x="432" d="M 410 369 L 330 369 L 214 636 L 101 369 L 21 369 L 175 730 L 254 730 L 410 369 Z" unicode="^" />
<glyph horiz-adv-x="426" d="M 426 -157 L 0 -157 L 0 -82 L 426 -82 L 426 -157 Z" unicode="_" />
<glyph horiz-adv-x="500" d="M 342 498 L 254 498 L 152 670 L 257 670 L 342 498 Z" unicode="`" />
<glyph horiz-adv-x="373" d="M 333 0 L 250 0 L 250 48 C 238 32 222 20 202 10 C 182 0 160 -5 134 -5 C 101 -5 74 6 52 30 C 30 54 19 87 19 129 C 19 177 34 212 64 234 C 94 256 131 268 173 271 L 247 275 L 247 298 C 247 323 240 341 227 353 C 213 365 193 371 166 371 C 143 371 124 367 109 360 C 94 353 83 346 75 340 L 48 399 C 62 413 81 424 104 432 C 127 440 156 445 192 445 C 230 445 263 434 291 412 C 319 390 333 356 333 311 L 333 0 Z M 249 105 L 249 208 L 190 205 C 168 203 149 197 131 185 C 113 173 104 155 104 131 C 104 110 111 95 125 86 C 139 77 155 73 172 73 C 190 73 206 76 218 82 C 230 88 241 96 249 105 Z" unicode="a" />
<glyph horiz-adv-x="407" d="M 237 -4 C 208 -4 185 2 167 14 C 149 26 135 41 127 59 L 127 0 L 40 0 L 40 790 L 127 790 L 127 363 C 134 382 147 400 166 416 C 185 432 211 441 245 441 C 287 441 321 421 347 382 C 373 343 386 293 386 231 C 386 156 372 98 344 57 C 316 16 280 -4 237 -4 Z M 205 63 C 231 63 251 76 266 103 C 281 130 289 169 289 219 C 289 265 281 300 267 325 C 253 350 232 363 206 363 C 183 363 164 351 148 328 C 132 305 125 265 125 208 C 125 149 133 110 150 91 C 166 72 185 63 205 63 Z" unicode="b" />
<glyph horiz-adv-x="341" d="M 278 119 L 335 74 C 326 56 312 39 292 21 C 272 3 241 -5 199 -5 C 170 -5 144 0 122 11 C 100 22 81 37 66 57 C 51 77 40 100 32 128 C 24 155 21 185 21 217 C 21 247 24 275 32 303 C 40 330 51 354 67 374 C 82 394 101 411 124 423 C 146 435 173 441 203 441 C 238 441 266 433 288 418 C 309 402 326 386 338 368 L 283 312 C 274 325 264 337 252 348 C 240 358 223 364 203 364 C 176 364 155 350 139 324 C 123 297 116 262 116 220 C 116 170 125 132 143 106 C 161 80 183 68 209 68 C 227 68 242 73 252 85 C 262 97 271 108 278 119 Z" unicode="c" />
<glyph horiz-adv-x="420" d="M 178 -5 C 154 -5 132 0 113 11 C 93 22 77 37 63 57 C 49 77 39 100 32 127 C 24 153 21 182 21 213 C 21 282 36 337 67 378 C 98 418 136 439 182 439 C 212 439 237 431 255 417 C 273 402 286 384 293 364 L 293 790 L 379 790 L 379 0 L 297 0 L 297 60 C 290 45 278 30 261 16 C 243 2 216 -5 178 -5 Z M 206 66 C 233 66 255 79 271 107 C 287 134 295 172 295 221 C 295 269 286 304 268 328 C 250 351 229 363 203 363 C 176 363 155 350 140 325 C 125 299 118 263 118 217 C 118 171 125 135 141 107 C 156 79 178 66 206 66 Z" unicode="d" />
<glyph horiz-adv-x="387" d="M 201 -5 C 147 -5 103 14 70 53 C 37 91 21 146 21 216 C 21 251 25 283 35 311 C 44 339 56 362 72 382 C 88 401 106 416 127 426 C 148 436 170 441 193 441 C 249 441 291 420 320 380 C 349 340 364 278 364 195 L 113 195 C 113 144 121 109 139 91 C 157 73 179 64 206 64 C 232 64 253 69 269 79 C 284 89 298 102 311 117 L 359 70 C 345 53 327 36 303 20 C 279 3 245 -5 201 -5 Z M 116 258 L 276 258 C 275 293 268 321 256 341 C 243 361 225 371 201 371 C 175 371 155 361 141 341 C 127 321 118 293 116 258 Z" unicode="e" />
<glyph horiz-adv-x="218" d="M 208 358 L 152 358 L 152 0 L 61 0 L 61 358 L 17 358 L 17 436 L 61 436 L 61 669 C 61 707 72 737 94 759 C 116 781 140 792 165 792 C 179 792 192 790 204 787 C 216 784 224 781 229 777 L 205 702 C 203 702 199 703 195 705 C 190 707 186 708 182 708 C 172 708 164 703 159 694 C 153 684 151 668 151 646 L 151 436 L 208 436 L 208 358 Z" unicode="f" />
<glyph horiz-adv-x="418" d="M 185 -2 C 137 -2 97 17 67 55 C 36 93 21 146 21 214 C 21 249 25 281 34 309 C 42 337 54 360 69 380 C 83 399 101 414 121 424 C 141 434 161 439 183 439 C 210 439 233 431 252 416 C 270 400 284 383 293 365 L 293 436 L 377 436 L 377 9 C 377 -26 371 -56 361 -82 C 351 -108 337 -129 321 -146 C 304 -162 285 -175 263 -183 C 241 -191 219 -196 197 -196 C 165 -196 139 -192 119 -186 C 98 -179 82 -172 72 -165 L 97 -100 C 108 -106 122 -111 138 -115 C 154 -119 172 -121 193 -121 C 223 -121 246 -110 264 -88 C 282 -66 291 -35 291 5 L 291 67 C 283 49 271 33 253 19 C 235 5 213 -2 185 -2 Z M 206 63 C 232 63 254 76 270 103 C 286 129 295 169 295 221 C 295 270 285 307 266 332 C 247 356 226 369 204 369 C 177 369 156 355 140 329 C 124 302 117 265 117 218 C 117 172 124 134 138 106 C 152 77 175 63 206 63 Z" unicode="g" />
<glyph horiz-adv-x="402" d="M 362 0 L 271 0 L 271 285 C 271 311 265 330 253 342 C 241 354 224 361 204 361 C 184 361 167 354 153 342 C 139 330 132 307 132 273 L 132 0 L 40 0 L 40 790 L 126 790 L 126 372 C 132 392 145 408 163 422 C 181 435 206 442 238 442 C 275 442 305 432 328 412 C 350 392 362 361 362 317 L 362 0 Z" unicode="h" />
<glyph horiz-adv-x="176" d="M 41 524 L 41 618 L 136 618 L 136 524 L 41 524 Z M 43 0 L 43 436 L 134 436 L 134 0 L 43 0 Z" unicode="i" />
<glyph horiz-adv-x="176" d="M 138 524 L 44 524 L 44 618 L 138 618 L 138 524 Z M 136 436 L 136 -102 C 136 -130 127 -153 111 -172 C 94 -191 71 -201 43 -201 C 31 -201 19 -199 7 -197 C -5 -195 -14 -192 -18 -190 L 1 -119 C 3 -119 6 -120 9 -121 C 12 -121 15 -122 19 -122 C 27 -122 33 -118 38 -112 C 43 -106 46 -97 46 -87 L 46 436 L 136 436 Z" unicode="j" />
<glyph horiz-adv-x="371" d="M 379 2 L 283 -1 L 182 179 L 131 105 L 131 0 L 40 0 L 40 790 L 126 790 L 126 210 L 277 436 L 369 436 L 245 248 L 379 2 Z" unicode="k" />
<glyph horiz-adv-x="172" d="M 132 800 L 132 0 L 40 0 L 40 800 L 132 800 Z" unicode="l" />
<glyph horiz-adv-x="626" d="M 40 0 L 40 436 L 124 436 L 124 372 C 130 396 144 413 165 425 C 185 436 211 442 241 442 C 272 442 296 435 314 422 C 332 408 344 391 350 371 L 353 371 C 361 393 374 410 393 423 C 412 435 437 442 468 442 C 502 442 531 432 553 414 C 575 395 586 365 586 323 L 586 0 L 496 0 L 496 279 C 496 309 489 331 477 343 C 465 355 449 361 429 361 C 410 361 393 354 379 341 C 365 327 358 302 358 266 L 358 0 L 268 0 L 268 281 C 268 313 262 335 250 345 C 238 355 223 361 206 361 C 188 361 171 354 155 341 C 138 327 130 303 130 267 L 130 0 L 40 0 Z" unicode="m" />
<glyph horiz-adv-x="402" d="M 362 0 L 271 0 L 271 294 C 271 316 265 332 253 344 C 241 355 226 361 206 361 C 185 361 167 354 153 342 C 139 330 132 307 132 273 L 132 0 L 40 0 L 40 436 L 126 436 L 126 371 C 132 391 145 408 164 422 C 182 435 208 442 241 442 C 277 442 306 432 328 414 C 350 396 362 367 362 327 L 362 0 Z" unicode="n" />
<glyph horiz-adv-x="400" d="M 201 -5 C 149 -5 106 14 72 52 C 38 90 21 145 21 216 C 21 283 37 337 69 379 C 101 420 143 441 195 441 C 251 441 295 421 329 383 C 363 344 380 292 380 228 C 380 158 364 102 332 59 C 300 16 256 -5 201 -5 Z M 200 67 C 227 67 248 79 262 105 C 276 130 283 168 283 219 C 283 270 275 307 261 331 C 246 355 225 367 198 367 C 172 367 152 354 138 330 C 124 306 117 269 117 219 C 117 165 124 126 140 102 C 155 78 175 67 200 67 Z" unicode="o" />
<glyph horiz-adv-x="406" d="M 40 -200 L 40 436 L 125 436 L 125 357 C 131 378 145 397 166 414 C 186 431 212 440 242 440 C 286 440 321 421 347 384 C 373 346 386 296 386 232 C 386 158 371 101 342 59 C 312 17 274 -4 228 -4 C 204 -4 182 1 164 11 C 146 21 133 34 127 48 L 127 -200 L 40 -200 Z M 203 62 C 229 62 250 74 266 100 C 281 126 289 164 289 214 C 289 260 282 296 270 324 C 257 352 236 366 206 366 C 184 366 165 355 148 333 C 131 311 123 270 123 208 C 123 150 130 111 146 91 C 161 71 180 62 203 62 Z" unicode="p" />
<glyph horiz-adv-x="420" d="M 293 -200 L 293 65 C 285 45 271 29 251 16 C 231 2 207 -4 179 -4 C 154 -4 132 1 113 13 C 93 25 77 40 63 60 C 49 80 39 103 32 130 C 24 157 21 186 21 217 C 21 283 35 337 65 379 C 94 421 131 442 176 442 C 209 442 236 434 256 418 C 276 402 290 384 298 363 L 298 436 L 379 436 L 379 -200 L 293 -200 Z M 205 67 C 231 67 253 79 270 105 C 286 130 295 168 295 218 C 295 266 286 302 269 327 C 251 351 230 364 204 364 C 177 364 156 351 141 325 C 125 299 118 262 118 214 C 118 172 125 137 140 109 C 155 81 177 67 205 67 Z" unicode="q" />
<glyph horiz-adv-x="296" d="M 300 410 L 272 335 C 261 344 251 350 242 353 C 233 356 223 358 211 358 C 195 358 177 351 159 337 C 141 323 132 294 132 250 L 132 0 L 40 0 L 40 436 L 129 436 L 129 361 C 135 381 147 400 164 416 C 180 432 200 441 223 441 C 240 441 255 437 269 431 C 282 425 292 418 300 410 Z" unicode="r" />
<glyph horiz-adv-x="306" d="M 162 -6 C 130 -6 101 0 76 12 C 51 24 31 39 17 57 L 59 118 C 71 102 87 90 105 81 C 123 71 140 67 156 67 C 168 67 181 71 193 80 C 205 88 212 101 212 119 C 212 133 205 146 191 158 C 177 170 155 183 126 198 C 96 214 72 231 54 251 C 36 270 28 297 28 331 C 28 361 40 387 65 409 C 90 430 119 441 152 441 C 180 441 205 436 226 428 C 246 419 264 409 278 398 L 230 341 C 223 347 213 352 199 358 C 185 363 171 366 159 366 C 143 366 131 362 121 355 C 111 348 106 338 106 326 C 106 313 112 302 124 292 C 136 282 157 270 188 254 C 223 235 248 216 264 198 C 280 179 288 152 288 118 C 288 98 284 80 276 65 C 268 49 258 36 246 26 C 234 15 220 7 205 2 C 190 -3 176 -6 162 -6 Z" unicode="s" />
<glyph horiz-adv-x="221" d="M 201 82 L 219 15 C 213 10 205 5 195 1 C 184 -2 170 -5 153 -5 C 145 -5 135 -3 123 0 C 111 3 100 9 90 18 C 80 26 71 38 63 54 C 55 70 52 90 52 114 L 52 358 L 13 358 L 13 436 L 54 436 L 54 585 L 141 594 L 141 436 L 201 436 L 201 358 L 143 358 L 143 112 C 143 100 146 90 152 84 C 158 78 165 75 175 75 C 179 75 184 75 189 77 C 194 79 198 80 201 82 Z" unicode="t" />
<glyph horiz-adv-x="402" d="M 39 436 L 131 436 L 131 141 C 131 114 137 95 149 83 C 161 71 177 65 198 65 C 216 65 233 71 248 84 C 262 97 270 123 270 161 L 270 436 L 361 436 L 361 0 L 273 0 L 273 51 C 266 33 253 19 234 9 C 215 0 192 -6 164 -6 C 129 -6 99 3 75 23 C 51 42 39 74 39 118 L 39 436 Z" unicode="u" />
<glyph horiz-adv-x="337" d="M 341 436 L 209 -2 L 129 -2 L -4 436 L 93 436 L 173 151 L 251 436 L 341 436 Z" unicode="v" />
<glyph horiz-adv-x="543" d="M 345 -2 L 270 251 L 197 -2 L 122 -2 L 0 436 L 88 436 L 168 132 L 240 392 L 308 392 L 380 132 L 464 436 L 542 436 L 418 -2 L 345 -2 Z" unicode="w" />
<glyph horiz-adv-x="342" d="M 244 0 L 169 136 L 95 0 L 3 0 L 122 220 L 2 436 L 99 436 L 170 308 L 239 436 L 332 436 L 216 223 L 340 0 L 244 0 Z" unicode="x" />
<glyph horiz-adv-x="339" d="M 343 436 L 173 -109 C 163 -141 146 -164 124 -178 C 101 -192 75 -200 47 -200 C 34 -200 22 -198 12 -196 C 2 -193 -6 -190 -13 -186 L 16 -113 C 18 -114 23 -116 31 -118 C 39 -120 47 -122 55 -122 C 65 -122 75 -117 83 -109 C 91 -101 98 -88 103 -71 L 132 34 L -4 436 L 93 436 L 177 164 L 253 436 L 343 436 Z" unicode="y" />
<glyph horiz-adv-x="322" d="M 305 436 L 305 391 L 130 78 L 311 78 L 311 0 L 11 0 L 11 38 L 196 358 L 23 358 L 23 436 L 305 436 Z" unicode="z" />
<glyph horiz-adv-x="254" d="M 234 -179 C 207 -179 182 -175 158 -167 C 134 -159 112 -148 94 -134 C 76 -120 61 -104 51 -86 C 40 -67 35 -47 35 -27 C 35 -1 38 21 44 43 C 50 64 56 82 64 98 C 71 114 78 130 85 144 C 91 158 95 172 95 186 C 95 201 87 216 71 230 C 55 244 37 251 17 251 L 17 320 C 37 320 55 327 72 342 C 89 356 98 373 98 392 C 98 396 94 407 87 423 C 80 439 72 456 64 475 C 55 493 48 512 43 530 C 38 548 36 565 36 583 C 36 603 41 624 52 644 C 62 664 76 681 94 697 C 112 712 133 724 157 734 C 181 744 207 749 234 749 L 234 682 C 208 681 185 670 163 650 C 141 630 131 605 131 577 C 131 567 132 555 135 541 C 138 527 143 514 150 500 C 160 479 169 460 177 443 C 185 426 189 411 189 399 C 189 372 181 348 165 328 C 149 307 126 293 96 285 C 127 277 150 262 166 241 C 181 220 189 198 189 175 C 189 156 185 139 178 125 C 170 111 163 96 155 82 C 147 68 140 53 136 37 C 132 21 130 6 130 -7 C 130 -19 132 -31 138 -43 C 144 -55 151 -66 161 -76 C 170 -86 181 -94 194 -101 C 206 -107 220 -111 234 -111 L 234 -179 Z" unicode="{" />
<glyph horiz-adv-x="228" d="M 158 -179 L 70 -179 L 70 730 L 158 730 L 158 -179 Z" unicode="|" />
<glyph horiz-adv-x="254" d="M 20 -179 L 20 -111 C 34 -111 47 -107 60 -101 C 72 -94 83 -86 93 -76 C 102 -66 109 -55 115 -43 C 121 -31 124 -19 124 -7 C 124 6 121 21 117 37 C 113 53 107 68 99 82 C 91 96 83 111 76 125 C 68 139 65 156 65 175 C 65 198 72 220 87 241 C 102 262 124 277 154 285 C 125 293 103 307 88 328 C 72 348 65 372 65 399 C 65 411 69 426 77 443 C 85 460 94 479 104 500 C 110 514 115 527 118 541 C 121 555 123 567 123 577 C 123 605 112 630 90 650 C 68 670 45 681 20 682 L 20 749 C 46 749 72 744 96 734 C 120 724 141 712 159 697 C 177 681 191 664 202 644 C 212 624 218 603 218 583 C 218 565 215 548 210 530 C 205 512 198 493 190 475 C 181 456 173 439 166 423 C 159 407 156 396 156 392 C 156 373 164 356 181 342 C 198 327 217 320 237 320 L 237 251 C 217 251 199 244 183 230 C 167 216 159 201 159 186 C 159 172 162 158 169 144 C 175 130 182 114 190 98 C 197 82 204 64 210 43 C 216 21 219 -1 219 -27 C 219 -47 213 -67 203 -86 C 192 -104 177 -120 159 -134 C 141 -148 120 -159 96 -167 C 72 -175 46 -179 20 -179 Z" unicode="}" />
<glyph horiz-adv-x="451" d="M 356 442 L 423 442 C 422 394 414 356 399 326 C 383 296 359 282 325 282 C 301 282 282 287 267 297 C 252 307 238 318 225 331 C 212 343 200 354 189 364 C 177 373 164 378 149 378 C 134 378 121 369 110 352 C 98 334 93 312 93 285 L 27 285 C 27 334 36 373 54 402 C 72 431 99 446 133 446 C 156 446 176 440 192 428 C 208 416 222 403 236 391 C 248 380 260 370 271 361 C 281 351 294 347 308 347 C 327 347 340 355 346 371 C 352 387 356 410 356 442 Z" unicode="~" />
<glyph horiz-adv-x="257" d="M 82 592 L 175 592 L 175 487 L 82 487 L 82 592 Z M 77 174 L 109 399 L 150 399 L 179 174 L 179 -121 L 77 -121 L 77 174 Z" unicode="¡" />
<glyph horiz-adv-x="348" d="M 340 139 C 329 128 316 116 300 104 C 284 92 260 84 228 82 L 228 -28 L 176 -28 L 176 83 C 126 89 87 112 61 153 C 34 193 21 243 21 303 C 21 330 24 356 31 382 C 37 407 47 430 60 450 C 72 470 88 486 108 499 C 128 512 150 521 176 525 L 176 634 L 228 634 L 228 526 C 258 523 282 515 300 502 C 318 489 332 476 342 464 L 295 401 C 287 411 278 420 268 428 C 258 436 244 441 228 444 L 228 154 C 248 154 264 159 276 169 C 287 178 296 187 303 196 L 340 139 Z M 116 303 C 116 267 121 238 132 215 C 143 191 158 175 176 165 L 176 438 C 156 429 141 412 131 388 C 121 364 116 335 116 303 Z" unicode="¢" />
<glyph horiz-adv-x="464" d="M 449 86 L 449 0 L 16 0 L 16 80 C 20 82 28 85 38 87 C 48 89 61 91 78 95 C 102 99 123 110 142 127 C 161 143 171 167 171 199 C 171 199 171 200 171 201 C 171 201 171 202 171 203 L 30 203 L 30 277 L 145 277 C 141 285 136 294 131 304 C 125 313 120 323 116 334 L 30 334 L 30 408 L 84 408 C 76 428 70 449 66 472 C 61 494 59 518 59 544 C 59 581 64 612 76 638 C 87 663 102 683 122 699 C 141 714 163 725 188 732 C 213 738 239 742 267 742 C 286 742 305 739 325 735 C 344 731 362 725 379 718 C 396 711 411 703 425 695 C 438 687 448 679 456 672 L 409 594 C 396 606 377 620 353 635 C 328 650 301 658 273 658 C 259 658 245 655 231 651 C 217 647 205 640 194 630 C 183 620 174 606 168 589 C 161 572 158 551 158 527 C 158 506 160 486 166 466 C 171 446 177 426 185 408 L 399 408 L 399 334 L 219 334 C 223 324 228 314 232 304 C 236 294 239 285 243 277 L 399 277 L 399 203 L 254 203 C 251 165 241 137 224 120 C 206 103 192 92 180 86 L 449 86 Z" unicode="£" />
<glyph horiz-adv-x="502" d="M 441 191 L 399 149 L 342 209 C 328 201 314 194 298 190 C 282 186 266 184 250 184 C 233 184 217 186 201 190 C 185 194 171 201 158 209 L 101 149 L 57 193 L 111 249 C 99 263 89 279 83 297 C 76 315 73 334 73 354 C 73 374 76 393 83 411 C 90 429 100 445 112 460 L 57 516 L 99 558 L 157 498 C 170 506 185 513 201 517 C 217 521 233 524 250 524 C 267 524 284 521 300 517 C 316 512 330 506 344 498 L 404 559 L 446 516 L 390 458 C 401 443 410 427 417 409 C 423 391 427 373 427 354 C 427 333 423 314 416 296 C 409 278 400 261 388 247 L 441 191 Z M 250 252 C 279 252 304 262 326 283 C 347 303 358 327 358 354 C 358 381 347 405 326 425 C 304 445 279 456 250 456 C 220 456 194 445 173 425 C 152 405 142 381 142 354 C 142 327 152 303 173 283 C 194 262 220 252 250 252 Z" unicode="¤" />
<glyph horiz-adv-x="462" d="M 427 135 L 280 135 L 280 0 L 180 0 L 180 135 L 36 135 L 36 210 L 180 210 L 180 249 L 36 249 L 36 323 L 180 323 L 180 329 L 5 730 L 110 730 L 232 423 L 358 730 L 458 730 L 280 327 L 280 323 L 427 323 L 427 249 L 280 249 L 280 210 L 427 210 L 427 135 Z" unicode="¥" />
<glyph horiz-adv-x="259" d="M 90 351 L 90 730 L 169 730 L 169 351 L 90 351 Z M 169 200 L 169 -179 L 90 -179 L 90 200 L 169 200 Z" unicode="¦" />
<glyph horiz-adv-x="533" d="M 283 -181 C 235 -181 191 -174 149 -160 C 107 -146 71 -128 42 -106 L 73 -29 C 100 -50 131 -68 167 -83 C 203 -97 237 -105 269 -105 C 299 -105 323 -96 341 -79 C 359 -62 369 -38 369 -8 C 369 19 361 39 347 53 C 333 67 312 81 286 96 L 187 148 C 160 160 137 172 117 183 C 97 194 81 206 68 219 C 55 232 45 247 39 264 C 33 280 30 301 30 326 C 30 356 36 382 50 402 C 63 422 79 439 98 453 C 82 464 69 480 61 500 C 53 520 49 544 49 574 C 49 600 54 624 65 645 C 76 666 91 684 110 698 C 128 712 150 722 176 730 C 202 738 229 742 259 742 C 311 742 353 733 387 717 C 421 700 448 682 469 663 L 425 592 C 400 612 375 630 349 646 C 323 661 293 669 257 669 C 224 669 197 660 176 643 C 155 626 145 603 145 574 C 145 552 151 535 165 521 C 179 507 199 494 226 480 L 352 415 C 398 394 433 371 457 347 C 481 322 493 289 493 247 C 493 213 482 187 461 167 C 439 147 416 137 391 136 C 407 125 425 108 443 84 C 461 60 470 30 470 -6 C 470 -33 465 -57 455 -79 C 445 -101 432 -119 416 -134 C 399 -149 379 -161 356 -169 C 333 -177 309 -181 283 -181 Z M 326 173 C 342 175 358 181 375 192 C 391 203 400 220 400 244 C 400 266 390 284 371 299 C 352 314 326 331 292 349 L 172 413 C 158 404 146 394 134 382 C 122 370 117 354 117 334 C 117 308 126 289 145 275 C 164 261 191 244 226 226 L 326 173 Z" unicode="§" />
<glyph horiz-adv-x="500" d="M 362 499 L 288 499 L 288 657 L 362 657 L 362 499 Z M 212 499 L 138 499 L 138 657 L 212 657 L 212 499 Z" unicode="¨" />
<glyph horiz-adv-x="819" d="M 409 13 C 359 13 311 22 267 42 C 223 61 184 87 151 120 C 118 152 92 191 73 236 C 54 280 45 328 45 378 C 45 428 54 475 73 519 C 92 563 118 602 151 635 C 184 668 223 694 267 713 C 311 732 359 742 409 742 C 459 742 506 732 551 713 C 595 694 634 668 667 635 C 699 602 725 563 745 519 C 764 475 774 428 774 378 C 774 328 764 280 745 236 C 725 191 699 152 667 120 C 634 87 595 61 551 42 C 506 22 459 13 409 13 Z M 409 75 C 450 75 489 83 525 99 C 561 115 593 136 620 164 C 647 191 669 223 685 260 C 701 296 709 335 709 377 C 709 418 701 457 685 494 C 669 531 647 563 620 591 C 593 618 561 640 525 656 C 489 672 450 680 409 680 C 367 680 328 672 292 656 C 255 640 223 618 196 591 C 169 563 148 531 132 494 C 116 457 109 418 109 377 C 109 335 116 296 132 260 C 148 223 169 191 196 164 C 223 136 255 115 292 99 C 328 83 367 75 409 75 Z M 578 249 C 562 224 540 203 512 187 C 484 170 449 162 409 162 C 383 162 358 166 334 176 C 310 186 288 200 270 218 C 252 236 237 258 226 286 C 215 313 210 344 210 379 C 210 413 215 444 225 472 C 235 500 248 523 266 543 C 284 562 304 577 328 588 C 352 598 377 604 405 604 C 448 604 483 596 510 581 C 536 566 557 547 573 524 L 507 476 C 497 490 484 502 468 512 C 452 522 432 527 407 527 C 374 527 347 512 326 484 C 304 455 294 419 294 377 C 294 331 306 296 330 272 C 354 247 380 235 410 235 C 432 235 452 240 470 251 C 488 261 502 275 513 292 L 578 249 Z" unicode="©" />
<glyph horiz-adv-x="437" d="M 390 313 L 311 313 L 311 372 C 297 351 277 335 252 324 C 227 312 200 307 170 307 C 129 307 96 318 72 341 C 48 364 36 396 36 438 C 36 482 52 516 85 538 C 118 560 163 573 219 576 L 307 583 L 307 591 C 307 617 299 635 284 647 C 269 659 248 665 220 665 C 197 665 175 660 155 652 C 134 644 116 633 102 621 L 61 685 C 81 700 105 713 135 724 C 165 735 198 741 235 741 C 282 741 320 729 348 706 C 376 682 390 645 390 593 L 390 313 Z M 308 426 L 308 513 L 215 508 C 186 507 163 501 145 491 C 127 480 118 463 118 439 C 118 420 125 405 140 395 C 154 384 174 379 199 379 C 219 379 240 383 260 391 C 280 399 296 411 308 426 Z M 394 194 L 42 194 L 42 271 L 394 271 L 394 194 Z" unicode="ª" />
<glyph horiz-adv-x="429" d="M 209 82 L 28 250 L 28 303 L 209 469 L 209 379 L 108 274 L 209 175 L 209 82 Z M 399 82 L 217 250 L 217 303 L 399 469 L 399 379 L 298 274 L 399 176 L 399 82 Z" unicode="«" />
<glyph horiz-adv-x="500" d="M 451 387 L 451 131 L 373 131 L 373 305 L 31 305 L 31 387 L 451 387 Z" unicode="¬" />
<glyph horiz-adv-x="819" d="M 409 13 C 359 13 311 22 267 42 C 223 61 184 87 151 120 C 118 152 92 191 73 236 C 54 280 45 328 45 378 C 45 428 54 475 73 519 C 92 563 118 602 151 635 C 184 668 223 694 267 713 C 311 732 359 742 409 742 C 459 742 506 732 551 713 C 595 694 634 668 667 635 C 699 602 725 563 745 519 C 764 475 774 428 774 378 C 774 328 764 280 745 236 C 725 191 699 152 667 120 C 634 87 595 61 551 42 C 506 22 459 13 409 13 Z M 409 75 C 450 75 489 82 526 98 C 562 114 594 135 621 162 C 648 189 669 221 685 258 C 701 295 709 335 709 377 C 709 419 701 459 685 496 C 669 533 648 565 621 592 C 594 619 562 640 526 656 C 489 672 450 680 409 680 C 367 680 328 672 292 656 C 255 640 223 618 196 591 C 169 564 148 532 132 495 C 116 458 109 419 109 377 C 109 335 116 295 132 258 C 148 221 169 189 196 162 C 223 135 255 114 292 98 C 328 82 367 75 409 75 Z M 275 171 L 275 606 L 427 606 C 445 606 462 603 480 599 C 498 594 513 587 527 577 C 541 567 552 554 561 539 C 569 523 574 505 574 484 C 574 446 563 417 543 399 C 522 381 500 370 478 367 L 477 363 L 604 171 L 517 171 L 411 338 L 353 338 L 353 171 L 275 171 Z M 353 404 L 431 404 C 447 404 463 410 477 422 C 491 434 498 451 498 475 C 498 499 491 515 476 524 C 461 532 443 537 421 537 L 353 537 L 353 404 Z" unicode="®" />
<glyph horiz-adv-x="500" d="M 371 523 L 129 523 L 129 591 L 371 591 L 371 523 Z" unicode="¯" />
<glyph horiz-adv-x="417" d="M 208 385 C 183 385 160 389 138 399 C 116 408 98 421 82 437 C 66 453 53 472 44 494 C 34 516 30 539 30 564 C 30 588 34 611 44 633 C 53 655 66 674 82 690 C 98 706 116 718 138 728 C 160 737 183 742 208 742 C 232 742 256 737 278 728 C 300 718 319 706 335 690 C 351 674 363 655 373 633 C 382 611 387 588 387 564 C 387 514 369 471 335 437 C 300 402 258 385 208 385 Z M 208 458 C 236 458 261 468 283 489 C 304 510 315 535 315 564 C 315 592 304 617 283 638 C 261 658 236 669 208 669 C 179 669 154 658 134 638 C 113 617 103 592 103 564 C 103 535 113 510 134 489 C 154 468 179 458 208 458 Z" unicode="°" />
<glyph horiz-adv-x="500" d="M 475 295 L 290 295 L 290 112 L 211 112 L 211 295 L 25 295 L 25 367 L 211 367 L 211 550 L 290 550 L 290 367 L 475 367 L 475 295 Z M 470 25 L 32 25 L 32 96 L 470 96 L 470 25 Z" unicode="±" />
<glyph horiz-adv-x="344" d="M 309 372 L 27 372 L 27 402 L 186 559 C 192 565 199 573 205 583 C 211 593 215 605 215 619 C 215 633 210 645 200 656 C 190 667 176 673 156 673 C 133 673 117 666 108 652 C 99 638 94 623 94 605 L 22 605 C 22 641 34 673 59 700 C 83 727 119 741 165 741 C 209 741 242 730 264 710 C 286 689 297 664 297 636 C 297 609 292 587 282 569 C 272 551 262 537 252 527 L 159 439 L 309 439 L 309 372 Z" unicode="²" />
<glyph horiz-adv-x="346" d="M 226 569 C 252 564 274 554 290 538 C 306 522 315 501 315 477 C 315 465 312 452 307 439 C 302 425 294 413 282 402 C 270 391 255 382 235 375 C 215 367 191 364 162 364 C 120 364 88 369 65 379 C 41 389 23 399 11 409 L 56 454 C 66 447 80 441 97 435 C 113 429 133 426 157 426 C 188 426 210 432 223 444 C 235 456 242 471 242 489 C 242 507 234 519 219 525 C 203 531 184 535 162 535 L 89 535 L 89 593 L 156 593 C 176 593 193 596 206 603 C 218 610 225 621 225 636 C 225 648 219 658 208 666 C 197 673 180 677 158 677 C 138 677 120 673 103 666 C 86 658 73 650 65 640 L 21 684 C 34 698 52 711 74 723 C 96 735 128 742 169 742 C 209 742 241 733 265 717 C 288 700 300 678 300 652 C 300 630 292 611 278 597 C 263 583 246 573 226 569 Z" unicode="³" />
<glyph horiz-adv-x="500" d="M 158 498 L 243 670 L 348 670 L 246 498 L 158 498 Z" unicode="´" />
<glyph horiz-adv-x="589" d="M 69 -106 L 69 476 L 161 476 L 161 159 C 161 129 173 106 199 90 C 224 74 252 66 283 66 C 299 66 316 68 333 73 C 350 78 365 85 379 95 C 392 105 403 117 411 132 C 419 146 424 163 424 183 L 424 476 L 515 476 L 515 0 L 431 0 L 431 99 C 420 70 399 46 368 26 C 336 6 304 -4 270 -6 C 245 -6 222 -2 200 8 C 178 18 162 32 154 51 L 154 -106 L 69 -106 Z" unicode="µ" />
<glyph horiz-adv-x="550" d="M 509 -181 L 455 -179 L 455 657 L 364 657 L 364 -179 L 309 -179 L 309 298 L 235 298 C 207 298 181 303 155 315 C 129 327 106 342 86 362 C 66 381 51 403 39 429 C 27 455 21 482 21 511 C 21 541 26 570 38 597 C 49 624 65 647 85 667 C 105 687 129 702 158 713 C 186 724 218 730 253 730 L 509 730 L 509 -181 Z M 310 375 L 310 653 L 276 653 C 232 653 195 639 167 613 C 138 587 124 554 124 514 C 124 476 138 444 166 416 C 194 388 228 375 266 375 L 310 375 Z" unicode="¶" />
<glyph horiz-adv-x="247" d="M 171 274 L 77 274 L 77 404 L 171 404 L 171 274 Z" unicode="·" />
<glyph horiz-adv-x="500" d="M 253 -184 C 231 -184 209 -181 187 -175 C 165 -169 148 -161 136 -151 L 149 -114 C 157 -120 169 -125 184 -131 C 198 -137 214 -140 231 -140 C 244 -140 256 -136 266 -130 C 276 -124 281 -115 281 -104 C 281 -91 276 -82 268 -77 C 259 -72 250 -70 240 -70 C 232 -70 226 -70 221 -71 C 215 -72 209 -74 203 -77 L 188 -61 L 247 13 L 298 13 L 250 -49 C 280 -42 306 -44 327 -56 C 347 -68 358 -85 358 -109 C 358 -133 347 -152 327 -165 C 306 -177 281 -184 253 -184 Z" unicode="¸" />
<glyph horiz-adv-x="318" d="M 139 372 L 139 641 C 131 630 118 620 99 612 C 79 604 63 598 49 596 L 48 678 C 72 681 94 688 112 698 C 130 708 149 722 168 740 L 225 740 L 225 372 L 139 372 Z" unicode="¹" />
<glyph horiz-adv-x="423" d="M 208 306 C 184 306 160 310 138 320 C 115 330 95 344 78 362 C 60 380 46 403 36 430 C 26 456 21 486 21 520 C 21 549 26 577 36 604 C 46 630 60 654 77 674 C 94 694 114 709 137 721 C 160 733 184 739 210 739 C 236 739 261 734 285 724 C 309 714 329 699 346 681 C 363 663 377 641 387 615 C 397 589 402 561 402 530 C 402 498 396 468 386 440 C 376 412 362 389 344 369 C 326 349 306 334 283 323 C 259 311 234 306 208 306 Z M 210 379 C 242 379 269 392 289 420 C 309 448 320 483 320 526 C 320 565 310 598 291 625 C 271 651 245 665 211 665 C 179 665 153 651 133 623 C 113 595 103 559 103 517 C 103 475 113 442 133 417 C 153 391 179 379 210 379 Z M 38 194 L 38 271 L 384 271 L 384 194 L 38 194 Z" unicode="º" />
<glyph horiz-adv-x="429" d="M 29 469 L 212 300 L 212 248 L 29 82 L 29 171 L 130 276 L 29 375 L 29 469 Z M 220 469 L 401 300 L 401 248 L 220 82 L 220 171 L 321 276 L 220 375 L 220 469 Z" unicode="»" />
<glyph horiz-adv-x="701" d="M 12 0 L 12 0 Z M 103 372 L 103 641 C 95 630 82 620 63 612 C 43 604 27 598 13 596 L 12 678 C 36 681 58 688 76 698 C 94 708 113 722 132 740 L 189 740 L 189 372 L 103 372 Z M 577 730 L 210 0 L 129 0 L 496 730 L 577 730 Z M 389 83 L 389 139 L 575 366 L 628 366 L 628 142 L 689 142 L 689 83 L 628 83 L 628 1 L 552 1 L 552 83 L 389 83 Z M 466 140 L 554 140 L 554 251 L 466 140 Z" unicode="¼" />
<glyph horiz-adv-x="769" d="M 12 0 L 12 0 Z M 103 372 L 103 641 C 95 630 82 620 63 612 C 43 604 27 598 13 596 L 12 678 C 36 681 58 688 76 698 C 94 708 113 722 132 740 L 189 740 L 189 372 L 103 372 Z M 577 730 L 210 0 L 129 0 L 496 730 L 577 730 Z M 743 0 L 461 0 L 461 30 L 620 187 C 626 193 633 201 639 211 C 645 221 649 233 649 247 C 649 261 644 273 634 284 C 624 295 610 301 590 301 C 567 301 551 294 542 280 C 533 266 528 251 528 233 L 456 233 C 456 269 468 301 493 328 C 517 355 553 369 599 369 C 643 369 676 358 698 338 C 720 317 731 292 731 264 C 731 237 726 215 716 197 C 706 179 696 165 686 155 L 593 67 L 743 67 L 743 0 Z" unicode="½" />
<glyph horiz-adv-x="761" d="M 13 0 L 13 0 Z M 637 730 L 270 0 L 189 0 L 556 730 L 637 730 Z M 449 83 L 449 139 L 635 366 L 688 366 L 688 142 L 749 142 L 749 83 L 688 83 L 688 1 L 612 1 L 612 83 L 449 83 Z M 526 140 L 614 140 L 614 251 L 526 140 Z M 228 569 C 254 564 276 554 292 538 C 308 522 317 501 317 477 C 317 465 314 452 309 439 C 304 425 296 413 284 402 C 272 391 257 382 237 375 C 217 367 193 364 164 364 C 122 364 90 369 67 379 C 43 389 25 399 13 409 L 58 454 C 68 447 82 441 99 435 C 115 429 135 426 159 426 C 190 426 212 432 225 444 C 237 456 244 471 244 489 C 244 507 236 519 221 525 C 205 531 186 535 164 535 L 91 535 L 91 593 L 158 593 C 178 593 195 596 208 603 C 220 610 227 621 227 636 C 227 648 221 658 210 666 C 199 673 182 677 160 677 C 140 677 122 673 105 666 C 88 658 75 650 67 640 L 23 684 C 36 698 54 711 76 723 C 98 735 130 742 171 742 C 211 742 243 733 267 717 C 290 700 302 678 302 652 C 302 630 294 611 280 597 C 265 583 248 573 228 569 Z" unicode="¾" />
<glyph horiz-adv-x="427" d="M 176 481 L 176 592 L 277 592 L 277 481 L 176 481 Z M 211 -150 C 153 -150 108 -134 76 -103 C 44 -71 28 -29 28 25 C 28 50 31 73 38 94 C 44 114 53 133 63 151 C 73 168 85 184 98 200 C 110 215 123 230 136 245 C 154 264 166 287 173 314 C 179 341 183 366 184 390 L 273 390 C 273 348 267 312 256 284 C 245 255 229 227 207 200 C 189 178 171 155 153 129 C 135 103 126 72 126 36 C 126 3 135 -22 155 -41 C 175 -59 199 -69 229 -69 C 255 -69 278 -62 298 -48 C 318 -34 335 -16 349 6 L 404 -48 C 380 -82 351 -107 317 -124 C 283 -141 247 -150 211 -150 Z" unicode="¿" />
<glyph horiz-adv-x="479" d="M 1 0 L 1 0 Z M 478 0 L 383 0 L 334 176 L 139 176 L 94 0 L 1 0 L 205 734 L 274 734 L 478 0 Z M 317 259 L 238 541 L 157 259 L 317 259 Z M 235 792 L 235 792 Z M 330 792 L 242 792 L 140 964 L 245 964 L 330 792 Z" unicode="À" />
<glyph horiz-adv-x="479" d="M 1 0 L 1 0 Z M 478 0 L 383 0 L 334 176 L 139 176 L 94 0 L 1 0 L 205 734 L 274 734 L 478 0 Z M 317 259 L 238 541 L 157 259 L 317 259 Z M 235 792 L 235 792 Z M 140 792 L 225 964 L 330 964 L 228 792 L 140 792 Z" unicode="Á" />
<glyph horiz-adv-x="479" d="M 1 0 L 1 0 Z M 478 0 L 383 0 L 334 176 L 139 176 L 94 0 L 1 0 L 205 734 L 274 734 L 478 0 Z M 317 259 L 238 541 L 157 259 L 317 259 Z M 235 793 L 235 793 Z M 372 793 L 297 793 L 235 903 L 172 793 L 99 793 L 197 964 L 274 964 L 372 793 Z" unicode="Â" />
<glyph horiz-adv-x="479" d="M 1 0 L 1 0 Z M 478 0 L 383 0 L 334 176 L 139 176 L 94 0 L 1 0 L 205 734 L 274 734 L 478 0 Z M 317 259 L 238 541 L 157 259 L 317 259 Z M 235 799 L 235 799 Z M 319 937 L 387 937 C 387 890 380 855 367 833 C 354 810 337 799 317 799 C 299 799 284 802 272 810 C 260 817 249 824 240 832 C 231 838 222 845 213 852 C 203 859 194 863 184 863 C 175 863 167 858 161 848 C 155 838 151 822 151 802 L 84 802 C 84 848 91 882 107 905 C 123 928 140 940 159 940 C 176 940 191 936 203 928 C 215 920 226 912 236 904 C 244 897 253 890 261 884 C 269 877 277 874 286 874 C 294 874 302 879 309 890 C 315 900 319 916 319 937 Z" unicode="Ã" />
<glyph horiz-adv-x="479" d="M 1 0 L 1 0 Z M 478 0 L 383 0 L 334 176 L 139 176 L 94 0 L 1 0 L 205 734 L 274 734 L 478 0 Z M 317 259 L 238 541 L 157 259 L 317 259 Z M 235 793 L 235 793 Z M 347 793 L 273 793 L 273 951 L 347 951 L 347 793 Z M 197 793 L 123 793 L 123 951 L 197 951 L 197 793 Z" unicode="Ä" />
<glyph horiz-adv-x="479" d="M 1 0 L 1 0 Z M 478 0 L 383 0 L 334 176 L 139 176 L 94 0 L 1 0 L 205 734 L 274 734 L 478 0 Z M 317 259 L 238 541 L 157 259 L 317 259 Z M 235 789 L 235 789 Z M 235 789 C 203 789 177 800 155 822 C 133 844 122 870 122 902 C 122 934 133 961 155 983 C 177 1005 203 1016 235 1016 C 267 1016 294 1005 316 983 C 338 961 349 934 349 902 C 349 870 338 844 316 822 C 294 800 267 789 235 789 Z M 235 841 C 251 841 265 847 276 859 C 287 871 293 885 293 902 C 293 919 287 933 276 945 C 265 957 251 963 235 963 C 219 963 205 957 194 945 C 182 933 177 919 177 902 C 177 885 182 871 194 859 C 205 847 219 841 235 841 Z" unicode="Å" />
<glyph horiz-adv-x="731" d="M 721 0 L 405 0 L 405 207 L 193 207 L 95 0 L 1 0 L 345 730 L 703 730 L 703 648 L 495 648 L 495 402 L 695 402 L 695 320 L 495 320 L 495 82 L 721 82 L 721 0 Z M 405 279 L 405 662 L 222 279 L 405 279 Z" unicode="Æ" />
<glyph horiz-adv-x="481" d="M 35 0 L 35 0 Z M 272 -7 C 238 -7 206 0 177 16 C 148 31 123 54 102 85 C 81 115 65 154 53 201 C 41 248 35 303 35 366 C 35 483 55 574 97 639 C 138 704 197 737 273 737 C 335 737 381 723 409 695 C 437 667 457 635 470 598 L 383 564 C 373 586 360 605 344 621 C 328 637 305 645 275 645 C 231 645 197 623 172 580 C 147 536 135 463 135 361 C 135 309 139 265 147 230 C 155 194 166 166 180 145 C 194 123 209 108 227 99 C 245 89 263 85 282 85 C 314 85 338 92 354 106 C 370 120 384 141 395 168 L 477 136 C 461 92 436 58 404 32 C 371 6 327 -7 272 -7 Z M 269 -1 L 269 -1 Z M 275 -185 C 253 -185 231 -182 209 -176 C 187 -170 170 -162 158 -152 L 171 -115 C 179 -121 191 -126 206 -132 C 220 -138 236 -141 253 -141 C 266 -141 278 -137 288 -131 C 298 -125 303 -116 303 -105 C 303 -92 298 -83 290 -78 C 281 -73 272 -71 262 -71 C 254 -71 248 -71 243 -72 C 237 -73 231 -75 225 -78 L 210 -62 L 269 12 L 320 12 L 272 -50 C 302 -43 328 -45 349 -57 C 369 -69 380 -86 380 -110 C 380 -134 369 -153 349 -166 C 328 -178 303 -185 275 -185 Z" unicode="Ç" />
<glyph horiz-adv-x="392" d="M 59 0 L 59 0 Z M 382 0 L 59 0 L 59 730 L 364 730 L 364 640 L 157 640 L 157 410 L 356 410 L 356 319 L 157 319 L 157 90 L 382 90 L 382 0 Z M 209 792 L 209 792 Z M 304 792 L 216 792 L 114 964 L 219 964 L 304 792 Z" unicode="È" />
<glyph horiz-adv-x="392" d="M 59 0 L 59 0 Z M 382 0 L 59 0 L 59 730 L 364 730 L 364 640 L 157 640 L 157 410 L 356 410 L 356 319 L 157 319 L 157 90 L 382 90 L 382 0 Z M 209 792 L 209 792 Z M 114 792 L 199 964 L 304 964 L 202 792 L 114 792 Z" unicode="É" />
<glyph horiz-adv-x="392" d="M 59 0 L 59 0 Z M 382 0 L 59 0 L 59 730 L 364 730 L 364 640 L 157 640 L 157 410 L 356 410 L 356 319 L 157 319 L 157 90 L 382 90 L 382 0 Z M 209 793 L 209 793 Z M 346 793 L 271 793 L 209 903 L 146 793 L 73 793 L 171 964 L 248 964 L 346 793 Z" unicode="Ê" />
<glyph horiz-adv-x="392" d="M 59 0 L 59 0 Z M 382 0 L 59 0 L 59 730 L 364 730 L 364 640 L 157 640 L 157 410 L 356 410 L 356 319 L 157 319 L 157 90 L 382 90 L 382 0 Z M 209 793 L 209 793 Z M 321 793 L 247 793 L 247 951 L 321 951 L 321 793 Z M 171 793 L 97 793 L 97 951 L 171 951 L 171 793 Z" unicode="Ë" />
<glyph horiz-adv-x="227" d="M 20 0 L 20 0 Z M 164 0 L 63 0 L 63 730 L 164 730 L 164 0 Z M 115 792 L 115 792 Z M 210 792 L 122 792 L 20 964 L 125 964 L 210 792 Z" unicode="Ì" />
<glyph horiz-adv-x="227" d="M 20 0 L 20 0 Z M 164 0 L 63 0 L 63 730 L 164 730 L 164 0 Z M 115 792 L 115 792 Z M 20 792 L 105 964 L 210 964 L 108 792 L 20 792 Z" unicode="Í" />
<glyph horiz-adv-x="227" d="M 0 0 L 0 0 Z M 164 0 L 63 0 L 63 730 L 164 730 L 164 0 Z M 115 793 L 115 793 Z M 252 793 L 177 793 L 115 903 L 52 793 L -21 793 L 77 964 L 154 964 L 252 793 Z" unicode="Î" />
<glyph horiz-adv-x="227" d="M 3 0 L 3 0 Z M 164 0 L 63 0 L 63 730 L 164 730 L 164 0 Z M 115 793 L 115 793 Z M 227 793 L 153 793 L 153 951 L 227 951 L 227 793 Z M 77 793 L 3 793 L 3 951 L 77 951 L 77 793 Z" unicode="Ï" />
<glyph horiz-adv-x="537" d="M 503 363 C 503 312 497 264 485 220 C 473 176 455 137 431 105 C 407 73 376 47 340 28 C 304 9 261 0 212 0 L 59 0 L 59 328 L 18 328 L 18 399 L 59 399 L 59 730 L 220 730 C 266 730 306 721 342 704 C 377 686 406 662 430 630 C 454 598 472 559 484 514 C 496 468 503 418 503 363 Z M 158 77 L 213 77 C 281 77 330 103 359 155 C 387 207 402 275 402 361 C 402 460 386 533 354 581 C 322 629 278 653 222 653 L 158 653 L 158 399 L 316 399 L 316 328 L 158 328 L 158 77 Z" unicode="Ð" />
<glyph horiz-adv-x="534" d="M 59 0 L 59 0 Z M 475 0 L 404 0 L 153 499 L 153 0 L 59 0 L 59 730 L 130 730 L 384 234 L 384 730 L 475 730 L 475 0 Z M 267 799 L 267 799 Z M 351 937 L 419 937 C 419 890 412 855 399 833 C 386 810 369 799 349 799 C 331 799 316 802 304 810 C 292 817 281 824 272 832 C 263 838 254 845 245 852 C 235 859 226 863 216 863 C 207 863 199 858 193 848 C 187 838 183 822 183 802 L 116 802 C 116 848 123 882 139 905 C 155 928 172 940 191 940 C 208 940 223 936 235 928 C 247 920 258 912 268 904 C 276 897 285 890 293 884 C 301 877 309 874 318 874 C 326 874 334 879 341 890 C 347 900 351 916 351 937 Z" unicode="Ñ" />
<glyph horiz-adv-x="569" d="M 34 0 L 34 0 Z M 287 -7 C 207 -7 144 25 100 90 C 56 154 34 248 34 371 C 34 485 56 575 101 640 C 145 704 206 737 282 737 C 363 737 425 705 469 641 C 513 577 535 485 535 365 C 535 248 512 157 466 91 C 420 25 360 -7 287 -7 Z M 285 80 C 331 80 367 103 394 150 C 420 197 434 271 434 371 C 434 464 420 534 393 580 C 365 626 329 649 283 649 C 235 649 198 626 173 581 C 148 535 136 463 136 364 C 136 264 149 192 176 147 C 203 102 239 80 285 80 Z M 282 792 L 282 792 Z M 377 792 L 289 792 L 187 964 L 292 964 L 377 792 Z" unicode="Ò" />
<glyph horiz-adv-x="569" d="M 34 0 L 34 0 Z M 287 -7 C 207 -7 144 25 100 90 C 56 154 34 248 34 371 C 34 485 56 575 101 640 C 145 704 206 737 282 737 C 363 737 425 705 469 641 C 513 577 535 485 535 365 C 535 248 512 157 466 91 C 420 25 360 -7 287 -7 Z M 285 80 C 331 80 367 103 394 150 C 420 197 434 271 434 371 C 434 464 420 534 393 580 C 365 626 329 649 283 649 C 235 649 198 626 173 581 C 148 535 136 463 136 364 C 136 264 149 192 176 147 C 203 102 239 80 285 80 Z M 282 792 L 282 792 Z M 187 792 L 272 964 L 377 964 L 275 792 L 187 792 Z" unicode="Ó" />
<glyph horiz-adv-x="569" d="M 34 0 L 34 0 Z M 287 -7 C 207 -7 144 25 100 90 C 56 154 34 248 34 371 C 34 485 56 575 101 640 C 145 704 206 737 282 737 C 363 737 425 705 469 641 C 513 577 535 485 535 365 C 535 248 512 157 466 91 C 420 25 360 -7 287 -7 Z M 285 80 C 331 80 367 103 394 150 C 420 197 434 271 434 371 C 434 464 420 534 393 580 C 365 626 329 649 283 649 C 235 649 198 626 173 581 C 148 535 136 463 136 364 C 136 264 149 192 176 147 C 203 102 239 80 285 80 Z M 282 793 L 282 793 Z M 419 793 L 344 793 L 282 903 L 219 793 L 146 793 L 244 964 L 321 964 L 419 793 Z" unicode="Ô" />
<glyph horiz-adv-x="569" d="M 34 0 L 34 0 Z M 287 -7 C 207 -7 144 25 100 90 C 56 154 34 248 34 371 C 34 485 56 575 101 640 C 145 704 206 737 282 737 C 363 737 425 705 469 641 C 513 577 535 485 535 365 C 535 248 512 157 466 91 C 420 25 360 -7 287 -7 Z M 285 80 C 331 80 367 103 394 150 C 420 197 434 271 434 371 C 434 464 420 534 393 580 C 365 626 329 649 283 649 C 235 649 198 626 173 581 C 148 535 136 463 136 364 C 136 264 149 192 176 147 C 203 102 239 80 285 80 Z M 282 799 L 282 799 Z M 366 937 L 434 937 C 434 890 427 855 414 833 C 401 810 384 799 364 799 C 346 799 331 802 319 810 C 307 817 296 824 287 832 C 278 838 269 845 260 852 C 250 859 241 863 231 863 C 222 863 214 858 208 848 C 202 838 198 822 198 802 L 131 802 C 131 848 138 882 154 905 C 170 928 187 940 206 940 C 223 940 238 936 250 928 C 262 920 273 912 283 904 C 291 897 300 890 308 884 C 316 877 324 874 333 874 C 341 874 349 879 356 890 C 362 900 366 916 366 937 Z" unicode="Õ" />
<glyph horiz-adv-x="569" d="M 34 0 L 34 0 Z M 287 -7 C 207 -7 144 25 100 90 C 56 154 34 248 34 371 C 34 485 56 575 101 640 C 145 704 206 737 282 737 C 363 737 425 705 469 641 C 513 577 535 485 535 365 C 535 248 512 157 466 91 C 420 25 360 -7 287 -7 Z M 285 80 C 331 80 367 103 394 150 C 420 197 434 271 434 371 C 434 464 420 534 393 580 C 365 626 329 649 283 649 C 235 649 198 626 173 581 C 148 535 136 463 136 364 C 136 264 149 192 176 147 C 203 102 239 80 285 80 Z M 282 793 L 282 793 Z M 394 793 L 320 793 L 320 951 L 394 951 L 394 793 Z M 244 793 L 170 793 L 170 951 L 244 951 L 244 793 Z" unicode="Ö" />
<glyph horiz-adv-x="501" d="M 114 142 L 62 195 L 198 331 L 63 466 L 115 519 L 251 383 L 387 519 L 439 466 L 302 331 L 439 195 L 387 141 L 251 279 L 114 142 Z" unicode="×" />
<glyph horiz-adv-x="569" d="M 535 365 C 535 248 512 157 466 91 C 420 25 360 -7 287 -7 C 249 -7 216 0 186 14 C 156 28 130 50 109 78 L 55 -3 L 24 18 L 87 112 C 69 142 56 179 47 223 C 38 267 34 316 34 371 C 34 485 56 575 101 640 C 145 704 206 737 282 737 C 318 737 350 730 380 717 C 409 704 434 685 455 661 L 512 746 L 543 725 L 478 628 C 496 597 510 559 520 515 C 530 471 535 421 535 365 Z M 136 364 C 136 333 137 305 140 279 C 143 253 147 229 152 209 L 397 574 C 384 598 368 617 349 630 C 329 642 307 649 283 649 C 235 649 198 626 173 581 C 148 535 136 463 136 364 Z M 434 371 C 434 403 432 433 429 460 C 425 487 420 511 414 532 L 168 165 C 180 136 197 115 217 101 C 237 87 259 80 285 80 C 331 80 367 103 394 150 C 420 197 434 271 434 371 Z" unicode="Ø" />
<glyph horiz-adv-x="534" d="M 56 0 L 56 0 Z M 478 730 L 478 218 C 478 178 472 143 460 115 C 448 87 432 63 412 45 C 392 27 369 13 343 5 C 317 -2 289 -7 261 -7 C 233 -7 207 -2 182 5 C 157 13 135 26 117 44 C 98 62 83 85 72 114 C 61 142 56 177 56 218 L 56 730 L 153 730 L 153 216 C 153 166 163 130 185 110 C 206 89 233 79 265 79 C 295 79 322 88 344 108 C 366 128 378 164 378 216 L 378 730 L 478 730 Z M 265 792 L 265 792 Z M 360 792 L 272 792 L 170 964 L 275 964 L 360 792 Z" unicode="Ù" />
<glyph horiz-adv-x="534" d="M 56 0 L 56 0 Z M 478 730 L 478 218 C 478 178 472 143 460 115 C 448 87 432 63 412 45 C 392 27 369 13 343 5 C 317 -2 289 -7 261 -7 C 233 -7 207 -2 182 5 C 157 13 135 26 117 44 C 98 62 83 85 72 114 C 61 142 56 177 56 218 L 56 730 L 153 730 L 153 216 C 153 166 163 130 185 110 C 206 89 233 79 265 79 C 295 79 322 88 344 108 C 366 128 378 164 378 216 L 378 730 L 478 730 Z M 265 792 L 265 792 Z M 170 792 L 255 964 L 360 964 L 258 792 L 170 792 Z" unicode="Ú" />
<glyph horiz-adv-x="534" d="M 56 0 L 56 0 Z M 478 730 L 478 218 C 478 178 472 143 460 115 C 448 87 432 63 412 45 C 392 27 369 13 343 5 C 317 -2 289 -7 261 -7 C 233 -7 207 -2 182 5 C 157 13 135 26 117 44 C 98 62 83 85 72 114 C 61 142 56 177 56 218 L 56 730 L 153 730 L 153 216 C 153 166 163 130 185 110 C 206 89 233 79 265 79 C 295 79 322 88 344 108 C 366 128 378 164 378 216 L 378 730 L 478 730 Z M 265 793 L 265 793 Z M 402 793 L 327 793 L 265 903 L 202 793 L 129 793 L 227 964 L 304 964 L 402 793 Z" unicode="Û" />
<glyph horiz-adv-x="534" d="M 56 0 L 56 0 Z M 478 730 L 478 218 C 478 178 472 143 460 115 C 448 87 432 63 412 45 C 392 27 369 13 343 5 C 317 -2 289 -7 261 -7 C 233 -7 207 -2 182 5 C 157 13 135 26 117 44 C 98 62 83 85 72 114 C 61 142 56 177 56 218 L 56 730 L 153 730 L 153 216 C 153 166 163 130 185 110 C 206 89 233 79 265 79 C 295 79 322 88 344 108 C 366 128 378 164 378 216 L 378 730 L 478 730 Z M 265 793 L 265 793 Z M 377 793 L 303 793 L 303 951 L 377 951 L 377 793 Z M 227 793 L 153 793 L 153 951 L 227 951 L 227 793 Z" unicode="Ü" />
<glyph horiz-adv-x="461" d="M 0 0 L 0 0 Z M 464 730 L 278 302 L 278 0 L 178 0 L 178 303 L -3 730 L 101 730 L 234 408 L 367 730 L 464 730 Z M 233 792 L 233 792 Z M 138 792 L 223 964 L 328 964 L 226 792 L 138 792 Z" unicode="Ý" />
<glyph horiz-adv-x="443" d="M 59 0 L 59 730 L 159 730 L 159 601 L 234 601 C 260 601 285 596 309 587 C 333 577 353 564 371 546 C 388 528 402 505 412 479 C 422 452 427 422 427 388 C 427 316 408 261 370 221 C 332 181 285 162 229 162 L 159 162 L 159 0 L 59 0 Z M 157 238 L 225 238 C 257 238 284 250 304 276 C 324 302 335 339 335 387 C 335 432 323 466 301 489 C 278 512 253 524 225 524 L 157 524 L 157 238 Z" unicode="Þ" />
<glyph horiz-adv-x="477" d="M 332 -6 C 300 -6 271 0 246 12 C 221 24 201 39 187 57 L 231 115 C 243 100 257 88 273 80 C 289 72 305 68 323 68 C 339 68 353 71 365 79 C 377 87 384 100 384 120 C 384 134 376 147 361 159 C 346 171 324 185 296 201 C 265 218 241 237 223 258 C 205 278 196 304 196 335 C 196 371 206 399 227 419 C 248 439 270 454 292 464 C 298 466 305 477 312 496 C 318 514 322 547 322 594 C 322 636 314 666 299 686 C 283 705 261 715 233 715 C 209 715 189 705 173 687 C 157 669 150 641 150 603 L 150 0 L 58 0 L 58 608 C 58 666 73 712 105 744 C 137 776 180 792 234 792 C 284 792 325 775 359 743 C 393 710 409 658 409 588 C 409 531 400 488 384 458 C 368 428 352 412 336 410 C 318 406 302 399 289 391 C 275 382 269 368 269 350 C 269 333 275 317 289 303 C 303 289 324 274 354 258 C 392 237 419 217 435 199 C 451 180 460 153 460 118 C 460 98 456 80 448 65 C 440 49 429 36 417 26 C 404 15 390 7 375 2 C 360 -3 346 -6 332 -6 Z" unicode="ß" />
<glyph horiz-adv-x="373" d="M 19 0 L 19 0 Z M 333 0 L 250 0 L 250 48 C 238 32 222 20 202 10 C 182 0 160 -5 134 -5 C 101 -5 74 6 52 30 C 30 54 19 87 19 129 C 19 177 34 212 64 234 C 94 256 131 268 173 271 L 247 275 L 247 298 C 247 323 240 341 227 353 C 213 365 193 371 166 371 C 143 371 124 367 109 360 C 94 353 83 346 75 340 L 48 399 C 62 413 81 424 104 432 C 127 440 156 445 192 445 C 230 445 263 434 291 412 C 319 390 333 356 333 311 L 333 0 Z M 249 105 L 249 208 L 190 205 C 168 203 149 197 131 185 C 113 173 104 155 104 131 C 104 110 111 95 125 86 C 139 77 155 73 172 73 C 190 73 206 76 218 82 C 230 88 241 96 249 105 Z M 179 498 L 179 498 Z M 274 498 L 186 498 L 84 670 L 189 670 L 274 498 Z" unicode="à" />
<glyph horiz-adv-x="373" d="M 19 0 L 19 0 Z M 333 0 L 250 0 L 250 48 C 238 32 222 20 202 10 C 182 0 160 -5 134 -5 C 101 -5 74 6 52 30 C 30 54 19 87 19 129 C 19 177 34 212 64 234 C 94 256 131 268 173 271 L 247 275 L 247 298 C 247 323 240 341 227 353 C 213 365 193 371 166 371 C 143 371 124 367 109 360 C 94 353 83 346 75 340 L 48 399 C 62 413 81 424 104 432 C 127 440 156 445 192 445 C 230 445 263 434 291 412 C 319 390 333 356 333 311 L 333 0 Z M 249 105 L 249 208 L 190 205 C 168 203 149 197 131 185 C 113 173 104 155 104 131 C 104 110 111 95 125 86 C 139 77 155 73 172 73 C 190 73 206 76 218 82 C 230 88 241 96 249 105 Z M 179 498 L 179 498 Z M 84 498 L 169 670 L 274 670 L 172 498 L 84 498 Z" unicode="á" />
<glyph horiz-adv-x="373" d="M 19 0 L 19 0 Z M 333 0 L 250 0 L 250 48 C 238 32 222 20 202 10 C 182 0 160 -5 134 -5 C 101 -5 74 6 52 30 C 30 54 19 87 19 129 C 19 177 34 212 64 234 C 94 256 131 268 173 271 L 247 275 L 247 298 C 247 323 240 341 227 353 C 213 365 193 371 166 371 C 143 371 124 367 109 360 C 94 353 83 346 75 340 L 48 399 C 62 413 81 424 104 432 C 127 440 156 445 192 445 C 230 445 263 434 291 412 C 319 390 333 356 333 311 L 333 0 Z M 249 105 L 249 208 L 190 205 C 168 203 149 197 131 185 C 113 173 104 155 104 131 C 104 110 111 95 125 86 C 139 77 155 73 172 73 C 190 73 206 76 218 82 C 230 88 241 96 249 105 Z M 179 499 L 179 499 Z M 316 499 L 241 499 L 179 609 L 116 499 L 43 499 L 141 670 L 218 670 L 316 499 Z" unicode="â" />
<glyph horiz-adv-x="373" d="M 19 0 L 19 0 Z M 333 0 L 250 0 L 250 48 C 238 32 222 20 202 10 C 182 0 160 -5 134 -5 C 101 -5 74 6 52 30 C 30 54 19 87 19 129 C 19 177 34 212 64 234 C 94 256 131 268 173 271 L 247 275 L 247 298 C 247 323 240 341 227 353 C 213 365 193 371 166 371 C 143 371 124 367 109 360 C 94 353 83 346 75 340 L 48 399 C 62 413 81 424 104 432 C 127 440 156 445 192 445 C 230 445 263 434 291 412 C 319 390 333 356 333 311 L 333 0 Z M 249 105 L 249 208 L 190 205 C 168 203 149 197 131 185 C 113 173 104 155 104 131 C 104 110 111 95 125 86 C 139 77 155 73 172 73 C 190 73 206 76 218 82 C 230 88 241 96 249 105 Z M 179 505 L 179 505 Z M 263 643 L 331 643 C 331 596 324 561 311 539 C 298 516 281 505 261 505 C 243 505 228 508 216 516 C 204 523 193 530 184 538 C 175 544 166 551 157 558 C 147 565 138 569 128 569 C 119 569 111 564 105 554 C 99 544 95 528 95 508 L 28 508 C 28 554 35 588 51 611 C 67 634 84 646 103 646 C 120 646 135 642 147 634 C 159 626 170 618 180 610 C 188 603 197 596 205 590 C 213 583 221 580 230 580 C 238 580 246 585 253 596 C 259 606 263 622 263 643 Z" unicode="ã" />
<glyph horiz-adv-x="373" d="M 19 0 L 19 0 Z M 333 0 L 250 0 L 250 48 C 238 32 222 20 202 10 C 182 0 160 -5 134 -5 C 101 -5 74 6 52 30 C 30 54 19 87 19 129 C 19 177 34 212 64 234 C 94 256 131 268 173 271 L 247 275 L 247 298 C 247 323 240 341 227 353 C 213 365 193 371 166 371 C 143 371 124 367 109 360 C 94 353 83 346 75 340 L 48 399 C 62 413 81 424 104 432 C 127 440 156 445 192 445 C 230 445 263 434 291 412 C 319 390 333 356 333 311 L 333 0 Z M 249 105 L 249 208 L 190 205 C 168 203 149 197 131 185 C 113 173 104 155 104 131 C 104 110 111 95 125 86 C 139 77 155 73 172 73 C 190 73 206 76 218 82 C 230 88 241 96 249 105 Z M 179 499 L 179 499 Z M 291 499 L 217 499 L 217 657 L 291 657 L 291 499 Z M 141 499 L 67 499 L 67 657 L 141 657 L 141 499 Z" unicode="ä" />
<glyph horiz-adv-x="373" d="M 19 0 L 19 0 Z M 333 0 L 250 0 L 250 48 C 238 32 222 20 202 10 C 182 0 160 -5 134 -5 C 101 -5 74 6 52 30 C 30 54 19 87 19 129 C 19 177 34 212 64 234 C 94 256 131 268 173 271 L 247 275 L 247 298 C 247 323 240 341 227 353 C 213 365 193 371 166 371 C 143 371 124 367 109 360 C 94 353 83 346 75 340 L 48 399 C 62 413 81 424 104 432 C 127 440 156 445 192 445 C 230 445 263 434 291 412 C 319 390 333 356 333 311 L 333 0 Z M 249 105 L 249 208 L 190 205 C 168 203 149 197 131 185 C 113 173 104 155 104 131 C 104 110 111 95 125 86 C 139 77 155 73 172 73 C 190 73 206 76 218 82 C 230 88 241 96 249 105 Z M 179 495 L 179 495 Z M 179 495 C 147 495 121 506 99 528 C 77 550 66 576 66 608 C 66 640 77 667 99 689 C 121 711 147 722 179 722 C 211 722 238 711 260 689 C 282 667 293 640 293 608 C 293 576 282 550 260 528 C 238 506 211 495 179 495 Z M 179 547 C 195 547 209 553 220 565 C 231 577 237 591 237 608 C 237 625 231 639 220 651 C 209 663 195 669 179 669 C 163 669 149 663 138 651 C 126 639 121 625 121 608 C 121 591 126 577 138 565 C 149 553 163 547 179 547 Z" unicode="å" />
<glyph horiz-adv-x="607" d="M 422 -5 C 382 -5 351 5 327 25 C 303 45 288 67 283 90 C 274 61 256 38 230 21 C 204 3 175 -5 145 -5 C 109 -5 79 6 55 30 C 31 53 19 85 19 127 C 19 173 34 207 64 231 C 94 255 131 268 173 270 L 253 274 L 253 294 C 253 323 245 343 230 355 C 215 366 195 372 170 372 C 145 372 124 368 108 361 C 92 353 80 346 72 338 L 48 398 C 62 411 81 421 104 429 C 127 437 152 441 178 441 C 206 441 232 435 255 423 C 277 411 292 392 298 364 C 306 383 321 400 341 416 C 361 432 389 440 424 440 C 474 440 514 419 542 377 C 570 335 585 275 585 195 L 335 195 C 335 145 343 111 360 92 C 377 73 399 64 426 64 C 452 64 473 69 488 79 C 503 89 518 101 532 117 L 579 70 C 565 53 546 36 523 20 C 499 3 466 -5 422 -5 Z M 334 255 L 498 255 C 497 291 489 319 475 340 C 461 360 441 371 417 371 C 391 371 372 361 358 341 C 344 321 336 292 334 255 Z M 177 72 C 197 72 215 79 230 93 C 245 107 253 125 253 146 L 253 209 L 190 205 C 167 204 147 198 130 187 C 112 175 104 158 104 134 C 104 111 111 95 126 86 C 141 76 158 72 177 72 Z" unicode="æ" />
<glyph horiz-adv-x="341" d="M 21 0 L 21 0 Z M 278 119 L 335 74 C 326 56 312 39 292 21 C 272 3 241 -5 199 -5 C 170 -5 144 0 122 11 C 100 22 81 37 66 57 C 51 77 40 100 32 128 C 24 155 21 185 21 217 C 21 247 24 275 32 303 C 40 330 51 354 67 374 C 82 394 101 411 124 423 C 146 435 173 441 203 441 C 238 441 266 433 288 418 C 309 402 326 386 338 368 L 283 312 C 274 325 264 337 252 348 C 240 358 223 364 203 364 C 176 364 155 350 139 324 C 123 297 116 262 116 220 C 116 170 125 132 143 106 C 161 80 183 68 209 68 C 227 68 242 73 252 85 C 262 97 271 108 278 119 Z M 187 -1 L 187 -1 Z M 193 -185 C 171 -185 149 -182 127 -176 C 105 -170 88 -162 76 -152 L 89 -115 C 97 -121 109 -126 124 -132 C 138 -138 154 -141 171 -141 C 184 -141 196 -137 206 -131 C 216 -125 221 -116 221 -105 C 221 -92 216 -83 208 -78 C 199 -73 190 -71 180 -71 C 172 -71 166 -71 161 -72 C 155 -73 149 -75 143 -78 L 128 -62 L 187 12 L 238 12 L 190 -50 C 220 -43 246 -45 267 -57 C 287 -69 298 -86 298 -110 C 298 -134 287 -153 267 -166 C 246 -178 221 -185 193 -185 Z" unicode="ç" />
<glyph horiz-adv-x="387" d="M 21 0 L 21 0 Z M 201 -5 C 147 -5 103 14 70 53 C 37 91 21 146 21 216 C 21 251 25 283 35 311 C 44 339 56 362 72 382 C 88 401 106 416 127 426 C 148 436 170 441 193 441 C 249 441 291 420 320 380 C 349 340 364 278 364 195 L 113 195 C 113 144 121 109 139 91 C 157 73 179 64 206 64 C 232 64 253 69 269 79 C 284 89 298 102 311 117 L 359 70 C 345 53 327 36 303 20 C 279 3 245 -5 201 -5 Z M 116 258 L 276 258 C 275 293 268 321 256 341 C 243 361 225 371 201 371 C 175 371 155 361 141 341 C 127 321 118 293 116 258 Z M 195 498 L 195 498 Z M 290 498 L 202 498 L 100 670 L 205 670 L 290 498 Z" unicode="è" />
<glyph horiz-adv-x="387" d="M 21 0 L 21 0 Z M 201 -5 C 147 -5 103 14 70 53 C 37 91 21 146 21 216 C 21 251 25 283 35 311 C 44 339 56 362 72 382 C 88 401 106 416 127 426 C 148 436 170 441 193 441 C 249 441 291 420 320 380 C 349 340 364 278 364 195 L 113 195 C 113 144 121 109 139 91 C 157 73 179 64 206 64 C 232 64 253 69 269 79 C 284 89 298 102 311 117 L 359 70 C 345 53 327 36 303 20 C 279 3 245 -5 201 -5 Z M 116 258 L 276 258 C 275 293 268 321 256 341 C 243 361 225 371 201 371 C 175 371 155 361 141 341 C 127 321 118 293 116 258 Z M 195 498 L 195 498 Z M 100 498 L 185 670 L 290 670 L 188 498 L 100 498 Z" unicode="é" />
<glyph horiz-adv-x="387" d="M 21 0 L 21 0 Z M 201 -5 C 147 -5 103 14 70 53 C 37 91 21 146 21 216 C 21 251 25 283 35 311 C 44 339 56 362 72 382 C 88 401 106 416 127 426 C 148 436 170 441 193 441 C 249 441 291 420 320 380 C 349 340 364 278 364 195 L 113 195 C 113 144 121 109 139 91 C 157 73 179 64 206 64 C 232 64 253 69 269 79 C 284 89 298 102 311 117 L 359 70 C 345 53 327 36 303 20 C 279 3 245 -5 201 -5 Z M 116 258 L 276 258 C 275 293 268 321 256 341 C 243 361 225 371 201 371 C 175 371 155 361 141 341 C 127 321 118 293 116 258 Z M 195 499 L 195 499 Z M 332 499 L 257 499 L 195 609 L 132 499 L 59 499 L 157 670 L 234 670 L 332 499 Z" unicode="ê" />
<glyph horiz-adv-x="387" d="M 21 0 L 21 0 Z M 201 -5 C 147 -5 103 14 70 53 C 37 91 21 146 21 216 C 21 251 25 283 35 311 C 44 339 56 362 72 382 C 88 401 106 416 127 426 C 148 436 170 441 193 441 C 249 441 291 420 320 380 C 349 340 364 278 364 195 L 113 195 C 113 144 121 109 139 91 C 157 73 179 64 206 64 C 232 64 253 69 269 79 C 284 89 298 102 311 117 L 359 70 C 345 53 327 36 303 20 C 279 3 245 -5 201 -5 Z M 116 258 L 276 258 C 275 293 268 321 256 341 C 243 361 225 371 201 371 C 175 371 155 361 141 341 C 127 321 118 293 116 258 Z M 195 499 L 195 499 Z M 307 499 L 233 499 L 233 657 L 307 657 L 307 499 Z M 157 499 L 83 499 L 83 657 L 157 657 L 157 499 Z" unicode="ë" />
<glyph horiz-adv-x="176" d="M 0 0 L 0 0 Z M 135 0 L 43 0 L 43 436 L 135 436 L 135 0 Z M 88 498 L 88 498 Z M 183 498 L 95 498 L -7 670 L 98 670 L 183 498 Z" unicode="ì" />
<glyph horiz-adv-x="176" d="M 0 0 L 0 0 Z M 135 0 L 43 0 L 43 436 L 135 436 L 135 0 Z M 88 498 L 88 498 Z M -7 498 L 78 670 L 183 670 L 81 498 L -7 498 Z" unicode="í" />
<glyph horiz-adv-x="176" d="M 0 0 L 0 0 Z M 135 0 L 43 0 L 43 436 L 135 436 L 135 0 Z M 88 499 L 88 499 Z M 225 499 L 150 499 L 88 609 L 25 499 L -48 499 L 50 670 L 127 670 L 225 499 Z" unicode="î" />
<glyph horiz-adv-x="176" d="M 0 0 L 0 0 Z M 135 0 L 43 0 L 43 436 L 135 436 L 135 0 Z M 88 499 L 88 499 Z M 200 499 L 126 499 L 126 657 L 200 657 L 200 499 Z M 50 499 L -24 499 L -24 657 L 50 657 L 50 499 Z" unicode="ï" />
<glyph horiz-adv-x="411" d="M 382 282 C 382 240 378 202 370 167 C 362 131 351 101 336 75 C 321 49 302 29 280 15 C 258 0 232 -7 203 -7 C 149 -7 105 12 71 51 C 37 90 21 145 21 217 C 21 254 25 287 35 316 C 45 344 57 368 73 387 C 89 405 107 419 127 429 C 147 438 167 443 189 443 C 215 443 239 437 259 427 C 279 416 294 402 305 384 C 301 422 294 460 282 500 C 270 539 256 576 241 610 L 172 580 L 144 647 L 209 675 C 197 697 185 717 174 733 C 162 749 153 760 145 767 L 218 797 C 226 788 236 776 247 761 C 258 745 270 727 282 707 L 347 735 L 375 669 L 313 642 C 331 598 347 545 361 485 C 375 425 382 357 382 282 Z M 200 68 C 228 68 250 80 264 105 C 278 130 285 167 285 217 C 285 269 277 307 263 331 C 248 355 226 367 198 367 C 171 367 150 354 136 328 C 122 302 115 266 115 218 C 115 166 122 128 137 104 C 152 80 173 68 200 68 Z" unicode="ð" />
<glyph horiz-adv-x="402" d="M 40 0 L 40 0 Z M 362 0 L 271 0 L 271 294 C 271 316 265 332 253 344 C 241 355 226 361 206 361 C 185 361 167 354 153 342 C 139 330 132 307 132 273 L 132 0 L 40 0 L 40 436 L 126 436 L 126 371 C 132 391 145 408 164 422 C 182 435 208 442 241 442 C 277 442 306 432 328 414 C 350 396 362 367 362 327 L 362 0 Z M 201 505 L 201 505 Z M 285 643 L 353 643 C 353 596 346 561 333 539 C 320 516 303 505 283 505 C 265 505 250 508 238 516 C 226 523 215 530 206 538 C 197 544 188 551 179 558 C 169 565 160 569 150 569 C 141 569 133 564 127 554 C 121 544 117 528 117 508 L 50 508 C 50 554 57 588 73 611 C 89 634 106 646 125 646 C 142 646 157 642 169 634 C 181 626 192 618 202 610 C 210 603 219 596 227 590 C 235 583 243 580 252 580 C 260 580 268 585 275 596 C 281 606 285 622 285 643 Z" unicode="ñ" />
<glyph horiz-adv-x="400" d="M 21 0 L 21 0 Z M 201 -5 C 149 -5 106 14 72 52 C 38 90 21 145 21 216 C 21 283 37 337 69 379 C 101 420 143 441 195 441 C 251 441 295 421 329 383 C 363 344 380 292 380 228 C 380 158 364 102 332 59 C 300 16 256 -5 201 -5 Z M 200 67 C 227 67 248 79 262 105 C 276 130 283 168 283 219 C 283 270 275 307 261 331 C 246 355 225 367 198 367 C 172 367 152 354 138 330 C 124 306 117 269 117 219 C 117 165 124 126 140 102 C 155 78 175 67 200 67 Z M 200 498 L 200 498 Z M 295 498 L 207 498 L 105 670 L 210 670 L 295 498 Z" unicode="ò" />
<glyph horiz-adv-x="400" d="M 21 0 L 21 0 Z M 201 -5 C 149 -5 106 14 72 52 C 38 90 21 145 21 216 C 21 283 37 337 69 379 C 101 420 143 441 195 441 C 251 441 295 421 329 383 C 363 344 380 292 380 228 C 380 158 364 102 332 59 C 300 16 256 -5 201 -5 Z M 200 67 C 227 67 248 79 262 105 C 276 130 283 168 283 219 C 283 270 275 307 261 331 C 246 355 225 367 198 367 C 172 367 152 354 138 330 C 124 306 117 269 117 219 C 117 165 124 126 140 102 C 155 78 175 67 200 67 Z M 200 498 L 200 498 Z M 105 498 L 190 670 L 295 670 L 193 498 L 105 498 Z" unicode="ó" />
<glyph horiz-adv-x="400" d="M 21 0 L 21 0 Z M 201 -5 C 149 -5 106 14 72 52 C 38 90 21 145 21 216 C 21 283 37 337 69 379 C 101 420 143 441 195 441 C 251 441 295 421 329 383 C 363 344 380 292 380 228 C 380 158 364 102 332 59 C 300 16 256 -5 201 -5 Z M 200 67 C 227 67 248 79 262 105 C 276 130 283 168 283 219 C 283 270 275 307 261 331 C 246 355 225 367 198 367 C 172 367 152 354 138 330 C 124 306 117 269 117 219 C 117 165 124 126 140 102 C 155 78 175 67 200 67 Z M 200 499 L 200 499 Z M 337 499 L 262 499 L 200 609 L 137 499 L 64 499 L 162 670 L 239 670 L 337 499 Z" unicode="ô" />
<glyph horiz-adv-x="400" d="M 21 0 L 21 0 Z M 201 -5 C 149 -5 106 14 72 52 C 38 90 21 145 21 216 C 21 283 37 337 69 379 C 101 420 143 441 195 441 C 251 441 295 421 329 383 C 363 344 380 292 380 228 C 380 158 364 102 332 59 C 300 16 256 -5 201 -5 Z M 200 67 C 227 67 248 79 262 105 C 276 130 283 168 283 219 C 283 270 275 307 261 331 C 246 355 225 367 198 367 C 172 367 152 354 138 330 C 124 306 117 269 117 219 C 117 165 124 126 140 102 C 155 78 175 67 200 67 Z M 200 505 L 200 505 Z M 284 643 L 352 643 C 352 596 345 561 332 539 C 319 516 302 505 282 505 C 264 505 249 508 237 516 C 225 523 214 530 205 538 C 196 544 187 551 178 558 C 168 565 159 569 149 569 C 140 569 132 564 126 554 C 120 544 116 528 116 508 L 49 508 C 49 554 56 588 72 611 C 88 634 105 646 124 646 C 141 646 156 642 168 634 C 180 626 191 618 201 610 C 209 603 218 596 226 590 C 234 583 242 580 251 580 C 259 580 267 585 274 596 C 280 606 284 622 284 643 Z" unicode="õ" />
<glyph horiz-adv-x="400" d="M 21 0 L 21 0 Z M 201 -5 C 149 -5 106 14 72 52 C 38 90 21 145 21 216 C 21 283 37 337 69 379 C 101 420 143 441 195 441 C 251 441 295 421 329 383 C 363 344 380 292 380 228 C 380 158 364 102 332 59 C 300 16 256 -5 201 -5 Z M 200 67 C 227 67 248 79 262 105 C 276 130 283 168 283 219 C 283 270 275 307 261 331 C 246 355 225 367 198 367 C 172 367 152 354 138 330 C 124 306 117 269 117 219 C 117 165 124 126 140 102 C 155 78 175 67 200 67 Z M 200 499 L 200 499 Z M 312 499 L 238 499 L 238 657 L 312 657 L 312 499 Z M 162 499 L 88 499 L 88 657 L 162 657 L 162 499 Z" unicode="ö" />
<glyph horiz-adv-x="500" d="M 206 448 L 206 564 L 294 564 L 294 448 L 206 448 Z M 25 291 L 25 370 L 475 370 L 475 291 L 25 291 Z M 206 97 L 206 213 L 294 213 L 294 97 L 206 97 Z" unicode="÷" />
<glyph horiz-adv-x="400" d="M 380 228 C 380 158 364 102 332 59 C 300 16 256 -5 201 -5 C 179 -5 158 -1 139 5 C 119 12 102 22 87 36 L 61 1 L 38 22 L 66 59 C 52 77 41 100 33 126 C 25 152 21 182 21 216 C 21 283 37 337 69 379 C 101 420 143 441 195 441 C 219 441 242 436 264 428 C 285 420 303 408 319 394 L 347 431 L 368 410 L 339 371 C 351 353 361 331 369 307 C 376 283 380 256 380 228 Z M 117 219 C 117 202 117 187 119 174 C 121 160 123 148 126 138 L 266 323 C 258 337 249 348 238 356 C 226 363 213 367 198 367 C 172 367 152 354 138 330 C 124 306 117 269 117 219 Z M 283 219 C 283 232 282 244 281 256 C 280 268 279 279 277 289 L 139 104 C 145 91 154 82 165 76 C 175 70 187 67 200 67 C 227 67 248 79 262 105 C 276 130 283 168 283 219 Z" unicode="ø" />
<glyph horiz-adv-x="402" d="M 39 0 L 39 0 Z M 39 436 L 131 436 L 131 141 C 131 114 137 95 149 83 C 161 71 177 65 198 65 C 216 65 233 71 248 84 C 262 97 270 123 270 161 L 270 436 L 361 436 L 361 0 L 273 0 L 273 51 C 266 33 253 19 234 9 C 215 0 192 -6 164 -6 C 129 -6 99 3 75 23 C 51 42 39 74 39 118 L 39 436 Z M 200 498 L 200 498 Z M 295 498 L 207 498 L 105 670 L 210 670 L 295 498 Z" unicode="ù" />
<glyph horiz-adv-x="402" d="M 39 0 L 39 0 Z M 39 436 L 131 436 L 131 141 C 131 114 137 95 149 83 C 161 71 177 65 198 65 C 216 65 233 71 248 84 C 262 97 270 123 270 161 L 270 436 L 361 436 L 361 0 L 273 0 L 273 51 C 266 33 253 19 234 9 C 215 0 192 -6 164 -6 C 129 -6 99 3 75 23 C 51 42 39 74 39 118 L 39 436 Z M 200 498 L 200 498 Z M 105 498 L 190 670 L 295 670 L 193 498 L 105 498 Z" unicode="ú" />
<glyph horiz-adv-x="402" d="M 39 0 L 39 0 Z M 39 436 L 131 436 L 131 141 C 131 114 137 95 149 83 C 161 71 177 65 198 65 C 216 65 233 71 248 84 C 262 97 270 123 270 161 L 270 436 L 361 436 L 361 0 L 273 0 L 273 51 C 266 33 253 19 234 9 C 215 0 192 -6 164 -6 C 129 -6 99 3 75 23 C 51 42 39 74 39 118 L 39 436 Z M 200 499 L 200 499 Z M 337 499 L 262 499 L 200 609 L 137 499 L 64 499 L 162 670 L 239 670 L 337 499 Z" unicode="û" />
<glyph horiz-adv-x="402" d="M 39 0 L 39 0 Z M 39 436 L 131 436 L 131 141 C 131 114 137 95 149 83 C 161 71 177 65 198 65 C 216 65 233 71 248 84 C 262 97 270 123 270 161 L 270 436 L 361 436 L 361 0 L 273 0 L 273 51 C 266 33 253 19 234 9 C 215 0 192 -6 164 -6 C 129 -6 99 3 75 23 C 51 42 39 74 39 118 L 39 436 Z M 200 499 L 200 499 Z M 312 499 L 238 499 L 238 657 L 312 657 L 312 499 Z M 162 499 L 88 499 L 88 657 L 162 657 L 162 499 Z" unicode="ü" />
<glyph horiz-adv-x="339" d="M 0 0 L 0 0 Z M 343 436 L 173 -109 C 163 -141 146 -164 124 -178 C 101 -192 75 -200 47 -200 C 34 -200 22 -198 12 -196 C 2 -193 -6 -190 -13 -186 L 16 -113 C 18 -114 23 -116 31 -118 C 39 -120 47 -122 55 -122 C 65 -122 75 -117 83 -109 C 91 -101 98 -88 103 -71 L 132 34 L -4 436 L 93 436 L 177 164 L 253 436 L 343 436 Z M 170 498 L 170 498 Z M 75 498 L 160 670 L 265 670 L 163 498 L 75 498 Z" unicode="ý" />
<glyph horiz-adv-x="406" d="M 40 -200 L 40 790 L 125 790 L 125 355 C 131 377 145 397 166 414 C 186 431 212 440 242 440 C 266 440 288 434 306 424 C 324 413 339 398 351 380 C 363 361 371 339 377 314 C 383 288 386 261 386 232 C 386 158 372 101 345 59 C 318 17 281 -4 235 -4 C 207 -4 184 1 165 13 C 146 24 133 38 127 54 L 127 -200 L 40 -200 Z M 203 63 C 229 63 250 75 266 101 C 281 126 289 163 289 213 C 289 258 282 295 270 323 C 257 351 236 366 206 366 C 184 366 165 354 148 332 C 131 310 123 268 123 208 C 123 150 130 112 146 92 C 161 72 180 63 203 63 Z" unicode="þ" />
<glyph horiz-adv-x="339" d="M 0 0 L 0 0 Z M 343 436 L 173 -109 C 163 -141 146 -164 124 -178 C 101 -192 75 -200 47 -200 C 34 -200 22 -198 12 -196 C 2 -193 -6 -190 -13 -186 L 16 -113 C 18 -114 23 -116 31 -118 C 39 -120 47 -122 55 -122 C 65 -122 75 -117 83 -109 C 91 -101 98 -88 103 -71 L 132 34 L -4 436 L 93 436 L 177 164 L 253 436 L 343 436 Z M 170 499 L 170 499 Z M 282 499 L 208 499 L 208 657 L 282 657 L 282 499 Z M 132 499 L 58 499 L 58 657 L 132 657 L 132 499 Z" unicode="ÿ" />
<glyph horiz-adv-x="479" d="M 1 0 L 1 0 Z M 478 0 L 383 0 L 334 176 L 139 176 L 94 0 L 1 0 L 205 734 L 274 734 L 478 0 Z M 317 259 L 238 541 L 157 259 L 317 259 Z M 235 817 L 235 817 Z M 356 817 L 114 817 L 114 885 L 356 885 L 356 817 Z" unicode="Ā" />
<glyph horiz-adv-x="373" d="M 19 0 L 19 0 Z M 333 0 L 250 0 L 250 48 C 238 32 222 20 202 10 C 182 0 160 -5 134 -5 C 101 -5 74 6 52 30 C 30 54 19 87 19 129 C 19 177 34 212 64 234 C 94 256 131 268 173 271 L 247 275 L 247 298 C 247 323 240 341 227 353 C 213 365 193 371 166 371 C 143 371 124 367 109 360 C 94 353 83 346 75 340 L 48 399 C 62 413 81 424 104 432 C 127 440 156 445 192 445 C 230 445 263 434 291 412 C 319 390 333 356 333 311 L 333 0 Z M 249 105 L 249 208 L 190 205 C 168 203 149 197 131 185 C 113 173 104 155 104 131 C 104 110 111 95 125 86 C 139 77 155 73 172 73 C 190 73 206 76 218 82 C 230 88 241 96 249 105 Z M 179 523 L 179 523 Z M 300 523 L 58 523 L 58 591 L 300 591 L 300 523 Z" unicode="ā" />
<glyph horiz-adv-x="479" d="M 1 0 L 1 0 Z M 478 0 L 383 0 L 334 176 L 139 176 L 94 0 L 1 0 L 205 734 L 274 734 L 478 0 Z M 317 259 L 238 541 L 157 259 L 317 259 Z M 235 797 L 235 797 Z M 291 955 L 367 955 C 363 899 350 859 326 834 C 302 809 271 797 235 797 C 198 797 168 809 144 834 C 120 859 106 899 104 955 L 180 955 C 181 926 185 904 193 888 C 201 872 215 865 235 865 C 255 865 269 872 277 887 C 285 902 289 925 291 955 Z" unicode="Ă" />
<glyph horiz-adv-x="373" d="M 19 0 L 19 0 Z M 333 0 L 250 0 L 250 48 C 238 32 222 20 202 10 C 182 0 160 -5 134 -5 C 101 -5 74 6 52 30 C 30 54 19 87 19 129 C 19 177 34 212 64 234 C 94 256 131 268 173 271 L 247 275 L 247 298 C 247 323 240 341 227 353 C 213 365 193 371 166 371 C 143 371 124 367 109 360 C 94 353 83 346 75 340 L 48 399 C 62 413 81 424 104 432 C 127 440 156 445 192 445 C 230 445 263 434 291 412 C 319 390 333 356 333 311 L 333 0 Z M 249 105 L 249 208 L 190 205 C 168 203 149 197 131 185 C 113 173 104 155 104 131 C 104 110 111 95 125 86 C 139 77 155 73 172 73 C 190 73 206 76 218 82 C 230 88 241 96 249 105 Z M 179 503 L 179 503 Z M 235 661 L 311 661 C 307 605 294 565 270 540 C 246 515 215 503 179 503 C 142 503 112 515 88 540 C 64 565 50 605 48 661 L 124 661 C 125 632 129 610 137 594 C 145 578 159 571 179 571 C 199 571 213 578 221 593 C 229 608 233 631 235 661 Z" unicode="ă" />
<glyph horiz-adv-x="479" d="M 1 0 L 1 0 Z M 478 0 L 383 0 L 334 176 L 139 176 L 94 0 L 1 0 L 205 734 L 274 734 L 478 0 Z M 317 259 L 238 541 L 157 259 L 317 259 Z M 406 -9 L 406 -9 Z M 504 -96 L 530 -135 C 510 -155 488 -171 464 -182 C 440 -193 413 -199 385 -199 C 352 -199 326 -191 308 -177 C 290 -162 281 -143 281 -121 C 281 -96 288 -73 304 -52 C 320 -30 346 -12 382 4 L 461 4 C 435 -6 412 -20 391 -36 C 370 -52 360 -68 360 -84 C 360 -98 365 -109 375 -117 C 385 -125 399 -130 415 -130 C 433 -130 449 -126 465 -120 C 480 -114 493 -106 504 -96 Z" unicode="Ą" />
<glyph horiz-adv-x="373" d="M 19 0 L 19 0 Z M 333 0 L 250 0 L 250 48 C 238 32 222 20 202 10 C 182 0 160 -5 134 -5 C 101 -5 74 6 52 30 C 30 54 19 87 19 129 C 19 177 34 212 64 234 C 94 256 131 268 173 271 L 247 275 L 247 298 C 247 323 240 341 227 353 C 213 365 193 371 166 371 C 143 371 124 367 109 360 C 94 353 83 346 75 340 L 48 399 C 62 413 81 424 104 432 C 127 440 156 445 192 445 C 230 445 263 434 291 412 C 319 390 333 356 333 311 L 333 0 Z M 249 105 L 249 208 L 190 205 C 168 203 149 197 131 185 C 113 173 104 155 104 131 C 104 110 111 95 125 86 C 139 77 155 73 172 73 C 190 73 206 76 218 82 C 230 88 241 96 249 105 Z M 274 -9 L 274 -9 Z M 372 -96 L 398 -135 C 378 -155 356 -171 332 -182 C 308 -193 281 -199 253 -199 C 220 -199 194 -191 176 -177 C 158 -162 149 -143 149 -121 C 149 -96 156 -73 172 -52 C 188 -30 214 -12 250 4 L 329 4 C 303 -6 280 -20 259 -36 C 238 -52 228 -68 228 -84 C 228 -98 233 -109 243 -117 C 253 -125 267 -130 283 -130 C 301 -130 317 -126 333 -120 C 348 -114 361 -106 372 -96 Z" unicode="ą" />
<glyph horiz-adv-x="481" d="M 35 0 L 35 0 Z M 272 -7 C 238 -7 206 0 177 16 C 148 31 123 54 102 85 C 81 115 65 154 53 201 C 41 248 35 303 35 366 C 35 483 55 574 97 639 C 138 704 197 737 273 737 C 335 737 381 723 409 695 C 437 667 457 635 470 598 L 383 564 C 373 586 360 605 344 621 C 328 637 305 645 275 645 C 231 645 197 623 172 580 C 147 536 135 463 135 361 C 135 309 139 265 147 230 C 155 194 166 166 180 145 C 194 123 209 108 227 99 C 245 89 263 85 282 85 C 314 85 338 92 354 106 C 370 120 384 141 395 168 L 477 136 C 461 92 436 58 404 32 C 371 6 327 -7 272 -7 Z M 275 792 L 275 792 Z M 180 792 L 265 964 L 370 964 L 268 792 L 180 792 Z" unicode="Ć" />
<glyph horiz-adv-x="341" d="M 21 0 L 21 0 Z M 278 119 L 335 74 C 326 56 312 39 292 21 C 272 3 241 -5 199 -5 C 170 -5 144 0 122 11 C 100 22 81 37 66 57 C 51 77 40 100 32 128 C 24 155 21 185 21 217 C 21 247 24 275 32 303 C 40 330 51 354 67 374 C 82 394 101 411 124 423 C 146 435 173 441 203 441 C 238 441 266 433 288 418 C 309 402 326 386 338 368 L 283 312 C 274 325 264 337 252 348 C 240 358 223 364 203 364 C 176 364 155 350 139 324 C 123 297 116 262 116 220 C 116 170 125 132 143 106 C 161 80 183 68 209 68 C 227 68 242 73 252 85 C 262 97 271 108 278 119 Z M 190 498 L 190 498 Z M 95 498 L 180 670 L 285 670 L 183 498 L 95 498 Z" unicode="ć" />
<glyph horiz-adv-x="481" d="M 35 0 L 35 0 Z M 272 -7 C 238 -7 206 0 177 16 C 148 31 123 54 102 85 C 81 115 65 154 53 201 C 41 248 35 303 35 366 C 35 483 55 574 97 639 C 138 704 197 737 273 737 C 335 737 381 723 409 695 C 437 667 457 635 470 598 L 383 564 C 373 586 360 605 344 621 C 328 637 305 645 275 645 C 231 645 197 623 172 580 C 147 536 135 463 135 361 C 135 309 139 265 147 230 C 155 194 166 166 180 145 C 194 123 209 108 227 99 C 245 89 263 85 282 85 C 314 85 338 92 354 106 C 370 120 384 141 395 168 L 477 136 C 461 92 436 58 404 32 C 371 6 327 -7 272 -7 Z M 275 793 L 275 793 Z M 412 793 L 337 793 L 275 903 L 212 793 L 139 793 L 237 964 L 314 964 L 412 793 Z" unicode="Ĉ" />
<glyph horiz-adv-x="341" d="M 21 0 L 21 0 Z M 278 119 L 335 74 C 326 56 312 39 292 21 C 272 3 241 -5 199 -5 C 170 -5 144 0 122 11 C 100 22 81 37 66 57 C 51 77 40 100 32 128 C 24 155 21 185 21 217 C 21 247 24 275 32 303 C 40 330 51 354 67 374 C 82 394 101 411 124 423 C 146 435 173 441 203 441 C 238 441 266 433 288 418 C 309 402 326 386 338 368 L 283 312 C 274 325 264 337 252 348 C 240 358 223 364 203 364 C 176 364 155 350 139 324 C 123 297 116 262 116 220 C 116 170 125 132 143 106 C 161 80 183 68 209 68 C 227 68 242 73 252 85 C 262 97 271 108 278 119 Z M 190 499 L 190 499 Z M 327 499 L 252 499 L 190 609 L 127 499 L 54 499 L 152 670 L 229 670 L 327 499 Z" unicode="ĉ" />
<glyph horiz-adv-x="481" d="M 35 0 L 35 0 Z M 272 -7 C 238 -7 206 0 177 16 C 148 31 123 54 102 85 C 81 115 65 154 53 201 C 41 248 35 303 35 366 C 35 483 55 574 97 639 C 138 704 197 737 273 737 C 335 737 381 723 409 695 C 437 667 457 635 470 598 L 383 564 C 373 586 360 605 344 621 C 328 637 305 645 275 645 C 231 645 197 623 172 580 C 147 536 135 463 135 361 C 135 309 139 265 147 230 C 155 194 166 166 180 145 C 194 123 209 108 227 99 C 245 89 263 85 282 85 C 314 85 338 92 354 106 C 370 120 384 141 395 168 L 477 136 C 461 92 436 58 404 32 C 371 6 327 -7 272 -7 Z M 275 811 L 275 811 Z M 318 811 L 233 811 L 233 929 L 318 929 L 318 811 Z" unicode="Ċ" />
<glyph horiz-adv-x="341" d="M 21 0 L 21 0 Z M 278 119 L 335 74 C 326 56 312 39 292 21 C 272 3 241 -5 199 -5 C 170 -5 144 0 122 11 C 100 22 81 37 66 57 C 51 77 40 100 32 128 C 24 155 21 185 21 217 C 21 247 24 275 32 303 C 40 330 51 354 67 374 C 82 394 101 411 124 423 C 146 435 173 441 203 441 C 238 441 266 433 288 418 C 309 402 326 386 338 368 L 283 312 C 274 325 264 337 252 348 C 240 358 223 364 203 364 C 176 364 155 350 139 324 C 123 297 116 262 116 220 C 116 170 125 132 143 106 C 161 80 183 68 209 68 C 227 68 242 73 252 85 C 262 97 271 108 278 119 Z M 190 517 L 190 517 Z M 233 517 L 148 517 L 148 635 L 233 635 L 233 517 Z" unicode="ċ" />
<glyph horiz-adv-x="481" d="M 35 0 L 35 0 Z M 272 -7 C 238 -7 206 0 177 16 C 148 31 123 54 102 85 C 81 115 65 154 53 201 C 41 248 35 303 35 366 C 35 483 55 574 97 639 C 138 704 197 737 273 737 C 335 737 381 723 409 695 C 437 667 457 635 470 598 L 383 564 C 373 586 360 605 344 621 C 328 637 305 645 275 645 C 231 645 197 623 172 580 C 147 536 135 463 135 361 C 135 309 139 265 147 230 C 155 194 166 166 180 145 C 194 123 209 108 227 99 C 245 89 263 85 282 85 C 314 85 338 92 354 106 C 370 120 384 141 395 168 L 477 136 C 461 92 436 58 404 32 C 371 6 327 -7 272 -7 Z M 275 793 L 275 793 Z M 139 964 L 214 964 L 276 853 L 339 964 L 412 964 L 314 793 L 237 793 L 139 964 Z" unicode="Č" />
<glyph horiz-adv-x="341" d="M 21 0 L 21 0 Z M 278 119 L 335 74 C 326 56 312 39 292 21 C 272 3 241 -5 199 -5 C 170 -5 144 0 122 11 C 100 22 81 37 66 57 C 51 77 40 100 32 128 C 24 155 21 185 21 217 C 21 247 24 275 32 303 C 40 330 51 354 67 374 C 82 394 101 411 124 423 C 146 435 173 441 203 441 C 238 441 266 433 288 418 C 309 402 326 386 338 368 L 283 312 C 274 325 264 337 252 348 C 240 358 223 364 203 364 C 176 364 155 350 139 324 C 123 297 116 262 116 220 C 116 170 125 132 143 106 C 161 80 183 68 209 68 C 227 68 242 73 252 85 C 262 97 271 108 278 119 Z M 190 499 L 190 499 Z M 54 670 L 129 670 L 191 559 L 254 670 L 327 670 L 229 499 L 152 499 L 54 670 Z" unicode="č" />
<glyph horiz-adv-x="537" d="M 59 0 L 59 0 Z M 59 0 L 59 730 L 220 730 C 266 730 306 721 342 704 C 377 686 406 662 430 630 C 454 598 472 559 484 514 C 496 468 503 418 503 363 C 503 312 497 264 485 220 C 473 176 455 137 431 105 C 407 73 376 47 340 28 C 304 9 261 0 212 0 L 59 0 Z M 158 87 L 213 87 C 281 87 330 112 359 162 C 387 212 402 278 402 361 C 402 456 386 527 354 573 C 322 619 278 642 222 642 L 158 642 L 158 87 Z M 244 793 L 244 793 Z M 108 964 L 183 964 L 245 853 L 308 964 L 381 964 L 283 793 L 206 793 L 108 964 Z" unicode="Ď" />
<glyph horiz-adv-x="420" d="M 21 0 L 21 0 Z M 178 -5 C 154 -5 132 0 113 11 C 93 22 77 37 63 57 C 49 77 39 100 32 127 C 24 153 21 182 21 213 C 21 282 36 337 67 378 C 98 418 136 439 182 439 C 212 439 237 431 255 417 C 273 402 286 384 293 364 L 293 790 L 379 790 L 379 0 L 297 0 L 297 60 C 290 45 278 30 261 16 C 243 2 216 -5 178 -5 Z M 206 66 C 233 66 255 79 271 107 C 287 134 295 172 295 221 C 295 269 286 304 268 328 C 250 351 229 363 203 363 C 176 363 155 350 140 325 C 125 299 118 263 118 217 C 118 171 125 135 141 107 C 156 79 178 66 206 66 Z M 508 621 L 504 483 L 426 483 L 421 621 L 421 730 L 508 730 L 508 621 Z" unicode="ď" />
<glyph horiz-adv-x="537" d="M 18 0 L 18 0 Z M 503 363 C 503 312 497 264 485 220 C 473 176 455 137 431 105 C 407 73 376 47 340 28 C 304 9 261 0 212 0 L 59 0 L 59 328 L 18 328 L 18 399 L 59 399 L 59 730 L 220 730 C 266 730 306 721 342 704 C 377 686 406 662 430 630 C 454 598 472 559 484 514 C 496 468 503 418 503 363 Z M 158 77 L 213 77 C 281 77 330 103 359 155 C 387 207 402 275 402 361 C 402 460 386 533 354 581 C 322 629 278 653 222 653 L 158 653 L 158 399 L 316 399 L 316 328 L 158 328 L 158 77 Z" unicode="Đ" />
<glyph horiz-adv-x="420" d="M 297 60 C 290 45 278 30 261 16 C 243 2 216 -5 178 -5 C 154 -5 132 0 113 11 C 93 22 77 37 63 57 C 49 77 39 100 32 127 C 24 153 21 182 21 213 C 21 282 36 337 67 378 C 98 418 136 439 182 439 C 212 439 237 431 255 417 C 273 402 286 384 293 364 L 293 569 L 184 569 L 184 647 L 293 647 L 293 790 L 379 790 L 379 647 L 410 647 L 410 569 L 379 569 L 379 0 L 297 0 L 297 60 Z M 206 66 C 233 66 255 79 271 107 C 287 134 295 172 295 221 C 295 269 286 304 268 328 C 250 351 229 363 203 363 C 176 363 155 350 140 325 C 125 299 118 263 118 217 C 118 171 125 135 141 107 C 156 79 178 66 206 66 Z" unicode="đ" />
<glyph horiz-adv-x="392" d="M 59 0 L 59 0 Z M 382 0 L 59 0 L 59 730 L 364 730 L 364 640 L 157 640 L 157 410 L 356 410 L 356 319 L 157 319 L 157 90 L 382 90 L 382 0 Z M 209 817 L 209 817 Z M 330 817 L 88 817 L 88 885 L 330 885 L 330 817 Z" unicode="Ē" />
<glyph horiz-adv-x="387" d="M 21 0 L 21 0 Z M 201 -5 C 147 -5 103 14 70 53 C 37 91 21 146 21 216 C 21 251 25 283 35 311 C 44 339 56 362 72 382 C 88 401 106 416 127 426 C 148 436 170 441 193 441 C 249 441 291 420 320 380 C 349 340 364 278 364 195 L 113 195 C 113 144 121 109 139 91 C 157 73 179 64 206 64 C 232 64 253 69 269 79 C 284 89 298 102 311 117 L 359 70 C 345 53 327 36 303 20 C 279 3 245 -5 201 -5 Z M 116 258 L 276 258 C 275 293 268 321 256 341 C 243 361 225 371 201 371 C 175 371 155 361 141 341 C 127 321 118 293 116 258 Z M 195 523 L 195 523 Z M 316 523 L 74 523 L 74 591 L 316 591 L 316 523 Z" unicode="ē" />
<glyph horiz-adv-x="392" d="M 59 0 L 59 0 Z M 382 0 L 59 0 L 59 730 L 364 730 L 364 640 L 157 640 L 157 410 L 356 410 L 356 319 L 157 319 L 157 90 L 382 90 L 382 0 Z M 209 797 L 209 797 Z M 265 955 L 341 955 C 337 899 324 859 300 834 C 276 809 245 797 209 797 C 172 797 142 809 118 834 C 94 859 80 899 78 955 L 154 955 C 155 926 159 904 167 888 C 175 872 189 865 209 865 C 229 865 243 872 251 887 C 259 902 263 925 265 955 Z" unicode="Ĕ" />
<glyph horiz-adv-x="387" d="M 21 0 L 21 0 Z M 201 -5 C 147 -5 103 14 70 53 C 37 91 21 146 21 216 C 21 251 25 283 35 311 C 44 339 56 362 72 382 C 88 401 106 416 127 426 C 148 436 170 441 193 441 C 249 441 291 420 320 380 C 349 340 364 278 364 195 L 113 195 C 113 144 121 109 139 91 C 157 73 179 64 206 64 C 232 64 253 69 269 79 C 284 89 298 102 311 117 L 359 70 C 345 53 327 36 303 20 C 279 3 245 -5 201 -5 Z M 116 258 L 276 258 C 275 293 268 321 256 341 C 243 361 225 371 201 371 C 175 371 155 361 141 341 C 127 321 118 293 116 258 Z M 195 503 L 195 503 Z M 251 661 L 327 661 C 323 605 310 565 286 540 C 262 515 231 503 195 503 C 158 503 128 515 104 540 C 80 565 66 605 64 661 L 140 661 C 141 632 145 610 153 594 C 161 578 175 571 195 571 C 215 571 229 578 237 593 C 245 608 249 631 251 661 Z" unicode="ĕ" />
<glyph horiz-adv-x="392" d="M 59 0 L 59 0 Z M 382 0 L 59 0 L 59 730 L 364 730 L 364 640 L 157 640 L 157 410 L 356 410 L 356 319 L 157 319 L 157 90 L 382 90 L 382 0 Z M 209 811 L 209 811 Z M 252 811 L 167 811 L 167 929 L 252 929 L 252 811 Z" unicode="Ė" />
<glyph horiz-adv-x="387" d="M 21 0 L 21 0 Z M 201 -5 C 147 -5 103 14 70 53 C 37 91 21 146 21 216 C 21 251 25 283 35 311 C 44 339 56 362 72 382 C 88 401 106 416 127 426 C 148 436 170 441 193 441 C 249 441 291 420 320 380 C 349 340 364 278 364 195 L 113 195 C 113 144 121 109 139 91 C 157 73 179 64 206 64 C 232 64 253 69 269 79 C 284 89 298 102 311 117 L 359 70 C 345 53 327 36 303 20 C 279 3 245 -5 201 -5 Z M 116 258 L 276 258 C 275 293 268 321 256 341 C 243 361 225 371 201 371 C 175 371 155 361 141 341 C 127 321 118 293 116 258 Z M 195 517 L 195 517 Z M 238 517 L 153 517 L 153 635 L 238 635 L 238 517 Z" unicode="ė" />
<glyph horiz-adv-x="392" d="M 59 0 L 59 0 Z M 382 0 L 59 0 L 59 730 L 364 730 L 364 640 L 157 640 L 157 410 L 356 410 L 356 319 L 157 319 L 157 90 L 382 90 L 382 0 Z M 327 -9 L 327 -9 Z M 425 -96 L 451 -135 C 431 -155 409 -171 385 -182 C 361 -193 334 -199 306 -199 C 273 -199 247 -191 229 -177 C 211 -162 202 -143 202 -121 C 202 -96 209 -73 225 -52 C 241 -30 267 -12 303 4 L 382 4 C 356 -6 333 -20 312 -36 C 291 -52 281 -68 281 -84 C 281 -98 286 -109 296 -117 C 306 -125 320 -130 336 -130 C 354 -130 370 -126 386 -120 C 401 -114 414 -106 425 -96 Z" unicode="Ę" />
<glyph horiz-adv-x="387" d="M 21 0 L 21 0 Z M 201 -5 C 147 -5 103 14 70 53 C 37 91 21 146 21 216 C 21 251 25 283 35 311 C 44 339 56 362 72 382 C 88 401 106 416 127 426 C 148 436 170 441 193 441 C 249 441 291 420 320 380 C 349 340 364 278 364 195 L 113 195 C 113 144 121 109 139 91 C 157 73 179 64 206 64 C 232 64 253 69 269 79 C 284 89 298 102 311 117 L 359 70 C 345 53 327 36 303 20 C 279 3 245 -5 201 -5 Z M 116 258 L 276 258 C 275 293 268 321 256 341 C 243 361 225 371 201 371 C 175 371 155 361 141 341 C 127 321 118 293 116 258 Z M 212 -9 L 212 -9 Z M 310 -96 L 336 -135 C 316 -155 294 -171 270 -182 C 246 -193 219 -199 191 -199 C 158 -199 132 -191 114 -177 C 96 -162 87 -143 87 -121 C 87 -96 94 -73 110 -52 C 126 -30 152 -12 188 4 L 267 4 C 241 -6 218 -20 197 -36 C 176 -52 166 -68 166 -84 C 166 -98 171 -109 181 -117 C 191 -125 205 -130 221 -130 C 239 -130 255 -126 271 -120 C 286 -114 299 -106 310 -96 Z" unicode="ę" />
<glyph horiz-adv-x="392" d="M 59 0 L 59 0 Z M 382 0 L 59 0 L 59 730 L 364 730 L 364 640 L 157 640 L 157 410 L 356 410 L 356 319 L 157 319 L 157 90 L 382 90 L 382 0 Z M 209 793 L 209 793 Z M 73 964 L 148 964 L 210 853 L 273 964 L 346 964 L 248 793 L 171 793 L 73 964 Z" unicode="Ě" />
<glyph horiz-adv-x="387" d="M 21 0 L 21 0 Z M 201 -5 C 147 -5 103 14 70 53 C 37 91 21 146 21 216 C 21 251 25 283 35 311 C 44 339 56 362 72 382 C 88 401 106 416 127 426 C 148 436 170 441 193 441 C 249 441 291 420 320 380 C 349 340 364 278 364 195 L 113 195 C 113 144 121 109 139 91 C 157 73 179 64 206 64 C 232 64 253 69 269 79 C 284 89 298 102 311 117 L 359 70 C 345 53 327 36 303 20 C 279 3 245 -5 201 -5 Z M 116 258 L 276 258 C 275 293 268 321 256 341 C 243 361 225 371 201 371 C 175 371 155 361 141 341 C 127 321 118 293 116 258 Z M 195 499 L 195 499 Z M 59 670 L 134 670 L 196 559 L 259 670 L 332 670 L 234 499 L 157 499 L 59 670 Z" unicode="ě" />
<glyph horiz-adv-x="524" d="M 34 0 L 34 0 Z M 278 363 L 499 363 L 499 117 C 481 80 453 50 416 27 C 379 4 332 -7 276 -7 C 242 -7 211 1 182 18 C 152 34 127 58 105 90 C 83 121 65 160 53 207 C 40 253 34 306 34 365 C 34 421 39 473 51 519 C 63 565 79 604 100 636 C 121 668 147 693 177 711 C 207 728 241 737 279 737 C 335 737 378 723 409 696 C 440 669 463 637 478 601 L 392 568 C 381 590 367 608 351 624 C 334 639 310 647 278 647 C 236 647 201 624 174 579 C 147 533 134 462 134 364 C 134 266 148 194 177 148 C 205 102 240 79 281 79 C 312 79 338 84 359 95 C 379 105 396 121 409 141 L 409 278 L 278 278 L 278 363 Z M 274 793 L 274 793 Z M 411 793 L 336 793 L 274 903 L 211 793 L 138 793 L 236 964 L 313 964 L 411 793 Z" unicode="Ĝ" />
<glyph horiz-adv-x="418" d="M 21 0 L 21 0 Z M 185 -2 C 137 -2 97 17 67 55 C 36 93 21 146 21 214 C 21 249 25 281 34 309 C 42 337 54 360 69 380 C 83 399 101 414 121 424 C 141 434 161 439 183 439 C 210 439 233 431 252 416 C 270 400 284 383 293 365 L 293 436 L 377 436 L 377 9 C 377 -26 371 -56 361 -82 C 351 -108 337 -129 321 -146 C 304 -162 285 -175 263 -183 C 241 -191 219 -196 197 -196 C 165 -196 139 -192 119 -186 C 98 -179 82 -172 72 -165 L 97 -100 C 108 -106 122 -111 138 -115 C 154 -119 172 -121 193 -121 C 223 -121 246 -110 264 -88 C 282 -66 291 -35 291 5 L 291 67 C 283 49 271 33 253 19 C 235 5 213 -2 185 -2 Z M 206 63 C 232 63 254 76 270 103 C 286 129 295 169 295 221 C 295 270 285 307 266 332 C 247 356 226 369 204 369 C 177 369 156 355 140 329 C 124 302 117 265 117 218 C 117 172 124 134 138 106 C 152 77 175 63 206 63 Z M 195 499 L 195 499 Z M 332 499 L 257 499 L 195 609 L 132 499 L 59 499 L 157 670 L 234 670 L 332 499 Z" unicode="ĝ" />
<glyph horiz-adv-x="524" d="M 34 0 L 34 0 Z M 278 363 L 499 363 L 499 117 C 481 80 453 50 416 27 C 379 4 332 -7 276 -7 C 242 -7 211 1 182 18 C 152 34 127 58 105 90 C 83 121 65 160 53 207 C 40 253 34 306 34 365 C 34 421 39 473 51 519 C 63 565 79 604 100 636 C 121 668 147 693 177 711 C 207 728 241 737 279 737 C 335 737 378 723 409 696 C 440 669 463 637 478 601 L 392 568 C 381 590 367 608 351 624 C 334 639 310 647 278 647 C 236 647 201 624 174 579 C 147 533 134 462 134 364 C 134 266 148 194 177 148 C 205 102 240 79 281 79 C 312 79 338 84 359 95 C 379 105 396 121 409 141 L 409 278 L 278 278 L 278 363 Z M 274 797 L 274 797 Z M 330 955 L 406 955 C 402 899 389 859 365 834 C 341 809 310 797 274 797 C 237 797 207 809 183 834 C 159 859 145 899 143 955 L 219 955 C 220 926 224 904 232 888 C 240 872 254 865 274 865 C 294 865 308 872 316 887 C 324 902 328 925 330 955 Z" unicode="Ğ" />
<glyph horiz-adv-x="418" d="M 21 0 L 21 0 Z M 185 -2 C 137 -2 97 17 67 55 C 36 93 21 146 21 214 C 21 249 25 281 34 309 C 42 337 54 360 69 380 C 83 399 101 414 121 424 C 141 434 161 439 183 439 C 210 439 233 431 252 416 C 270 400 284 383 293 365 L 293 436 L 377 436 L 377 9 C 377 -26 371 -56 361 -82 C 351 -108 337 -129 321 -146 C 304 -162 285 -175 263 -183 C 241 -191 219 -196 197 -196 C 165 -196 139 -192 119 -186 C 98 -179 82 -172 72 -165 L 97 -100 C 108 -106 122 -111 138 -115 C 154 -119 172 -121 193 -121 C 223 -121 246 -110 264 -88 C 282 -66 291 -35 291 5 L 291 67 C 283 49 271 33 253 19 C 235 5 213 -2 185 -2 Z M 206 63 C 232 63 254 76 270 103 C 286 129 295 169 295 221 C 295 270 285 307 266 332 C 247 356 226 369 204 369 C 177 369 156 355 140 329 C 124 302 117 265 117 218 C 117 172 124 134 138 106 C 152 77 175 63 206 63 Z M 195 503 L 195 503 Z M 251 661 L 327 661 C 323 605 310 565 286 540 C 262 515 231 503 195 503 C 158 503 128 515 104 540 C 80 565 66 605 64 661 L 140 661 C 141 632 145 610 153 594 C 161 578 175 571 195 571 C 215 571 229 578 237 593 C 245 608 249 631 251 661 Z" unicode="ğ" />
<glyph horiz-adv-x="524" d="M 34 0 L 34 0 Z M 278 363 L 499 363 L 499 117 C 481 80 453 50 416 27 C 379 4 332 -7 276 -7 C 242 -7 211 1 182 18 C 152 34 127 58 105 90 C 83 121 65 160 53 207 C 40 253 34 306 34 365 C 34 421 39 473 51 519 C 63 565 79 604 100 636 C 121 668 147 693 177 711 C 207 728 241 737 279 737 C 335 737 378 723 409 696 C 440 669 463 637 478 601 L 392 568 C 381 590 367 608 351 624 C 334 639 310 647 278 647 C 236 647 201 624 174 579 C 147 533 134 462 134 364 C 134 266 148 194 177 148 C 205 102 240 79 281 79 C 312 79 338 84 359 95 C 379 105 396 121 409 141 L 409 278 L 278 278 L 278 363 Z M 274 811 L 274 811 Z M 317 811 L 232 811 L 232 929 L 317 929 L 317 811 Z" unicode="Ġ" />
<glyph horiz-adv-x="418" d="M 21 0 L 21 0 Z M 185 -2 C 137 -2 97 17 67 55 C 36 93 21 146 21 214 C 21 249 25 281 34 309 C 42 337 54 360 69 380 C 83 399 101 414 121 424 C 141 434 161 439 183 439 C 210 439 233 431 252 416 C 270 400 284 383 293 365 L 293 436 L 377 436 L 377 9 C 377 -26 371 -56 361 -82 C 351 -108 337 -129 321 -146 C 304 -162 285 -175 263 -183 C 241 -191 219 -196 197 -196 C 165 -196 139 -192 119 -186 C 98 -179 82 -172 72 -165 L 97 -100 C 108 -106 122 -111 138 -115 C 154 -119 172 -121 193 -121 C 223 -121 246 -110 264 -88 C 282 -66 291 -35 291 5 L 291 67 C 283 49 271 33 253 19 C 235 5 213 -2 185 -2 Z M 206 63 C 232 63 254 76 270 103 C 286 129 295 169 295 221 C 295 270 285 307 266 332 C 247 356 226 369 204 369 C 177 369 156 355 140 329 C 124 302 117 265 117 218 C 117 172 124 134 138 106 C 152 77 175 63 206 63 Z M 195 517 L 195 517 Z M 238 517 L 153 517 L 153 635 L 238 635 L 238 517 Z" unicode="ġ" />
<glyph horiz-adv-x="524" d="M 34 0 L 34 0 Z M 278 363 L 499 363 L 499 117 C 481 80 453 50 416 27 C 379 4 332 -7 276 -7 C 242 -7 211 1 182 18 C 152 34 127 58 105 90 C 83 121 65 160 53 207 C 40 253 34 306 34 365 C 34 421 39 473 51 519 C 63 565 79 604 100 636 C 121 668 147 693 177 711 C 207 728 241 737 279 737 C 335 737 378 723 409 696 C 440 669 463 637 478 601 L 392 568 C 381 590 367 608 351 624 C 334 639 310 647 278 647 C 236 647 201 624 174 579 C 147 533 134 462 134 364 C 134 266 148 194 177 148 C 205 102 240 79 281 79 C 312 79 338 84 359 95 C 379 105 396 121 409 141 L 409 278 L 278 278 L 278 363 Z M 263 -70 L 263 -70 Z M 345 -70 C 345 -92 342 -116 336 -140 C 330 -164 322 -187 313 -209 C 304 -231 294 -252 283 -271 C 272 -290 261 -306 251 -318 L 180 -286 C 186 -276 193 -264 201 -248 C 209 -232 216 -215 223 -196 C 230 -177 236 -157 241 -135 C 245 -113 248 -91 249 -70 L 345 -70 Z" unicode="Ģ" />
<glyph horiz-adv-x="418" d="M 21 0 L 21 0 Z M 185 -2 C 137 -2 97 17 67 55 C 36 93 21 146 21 214 C 21 249 25 281 34 309 C 42 337 54 360 69 380 C 83 399 101 414 121 424 C 141 434 161 439 183 439 C 210 439 233 431 252 416 C 270 400 284 383 293 365 L 293 436 L 377 436 L 377 9 C 377 -26 371 -56 361 -82 C 351 -108 337 -129 321 -146 C 304 -162 285 -175 263 -183 C 241 -191 219 -196 197 -196 C 165 -196 139 -192 119 -186 C 98 -179 82 -172 72 -165 L 97 -100 C 108 -106 122 -111 138 -115 C 154 -119 172 -121 193 -121 C 223 -121 246 -110 264 -88 C 282 -66 291 -35 291 5 L 291 67 C 283 49 271 33 253 19 C 235 5 213 -2 185 -2 Z M 206 63 C 232 63 254 76 270 103 C 286 129 295 169 295 221 C 295 270 285 307 266 332 C 247 356 226 369 204 369 C 177 369 156 355 140 329 C 124 302 117 265 117 218 C 117 172 124 134 138 106 C 152 77 175 63 206 63 Z" unicode="ģ" />
<glyph horiz-adv-x="535" d="M 59 0 L 59 0 Z M 475 0 L 375 0 L 375 313 L 159 313 L 159 0 L 59 0 L 59 730 L 159 730 L 159 407 L 375 407 L 375 730 L 475 730 L 475 0 Z M 269 793 L 269 793 Z M 406 793 L 331 793 L 269 903 L 206 793 L 133 793 L 231 964 L 308 964 L 406 793 Z" unicode="Ĥ" />
<glyph horiz-adv-x="402" d="M 40 0 L 40 0 Z M 362 0 L 271 0 L 271 285 C 271 311 265 330 253 342 C 241 354 224 361 204 361 C 184 361 167 354 153 342 C 139 330 132 307 132 273 L 132 0 L 40 0 L 40 790 L 126 790 L 126 372 C 132 392 145 408 163 422 C 181 435 206 442 238 442 C 275 442 305 432 328 412 C 350 392 362 361 362 317 L 362 0 Z M 202 853 L 202 853 Z M 339 853 L 264 853 L 202 963 L 139 853 L 66 853 L 164 1024 L 241 1024 L 339 853 Z" unicode="ĥ" />
<glyph horiz-adv-x="535" d="M 159 313 L 159 0 L 59 0 L 59 543 L 11 543 L 11 622 L 59 622 L 59 730 L 159 730 L 159 622 L 375 622 L 375 730 L 475 730 L 475 622 L 523 622 L 523 543 L 475 543 L 475 0 L 375 0 L 375 313 L 159 313 Z M 159 407 L 375 407 L 375 543 L 159 543 L 159 407 Z" unicode="Ħ" />
<glyph horiz-adv-x="402" d="M 132 273 L 132 0 L 40 0 L 40 569 L 10 569 L 10 647 L 40 647 L 40 790 L 126 790 L 126 647 L 236 647 L 236 569 L 126 569 L 126 372 C 132 392 145 408 163 422 C 181 435 206 442 238 442 C 275 442 305 432 328 412 C 350 392 362 361 362 317 L 362 0 L 271 0 L 271 285 C 271 311 265 330 253 342 C 241 354 224 361 204 361 C 184 361 167 354 153 342 C 139 330 132 307 132 273 Z" unicode="ħ" />
<glyph horiz-adv-x="227" d="M 0 0 L 0 0 Z M 164 0 L 63 0 L 63 730 L 164 730 L 164 0 Z M 115 799 L 115 799 Z M 199 937 L 267 937 C 267 890 260 855 247 833 C 234 810 217 799 197 799 C 179 799 164 802 152 810 C 140 817 129 824 120 832 C 111 838 102 845 93 852 C 83 859 74 863 64 863 C 55 863 47 858 41 848 C 35 838 31 822 31 802 L -36 802 C -36 848 -28 882 -12 905 C 3 928 20 940 39 940 C 56 940 71 936 83 928 C 95 920 106 912 116 904 C 124 897 133 890 141 884 C 149 877 157 874 166 874 C 174 874 182 879 189 890 C 195 900 199 916 199 937 Z" unicode="Ĩ" />
<glyph horiz-adv-x="176" d="M 0 0 L 0 0 Z M 135 0 L 43 0 L 43 436 L 135 436 L 135 0 Z M 88 505 L 88 505 Z M 172 643 L 240 643 C 240 596 233 561 220 539 C 207 516 190 505 170 505 C 152 505 137 508 125 516 C 113 523 102 530 93 538 C 84 544 75 551 66 558 C 56 565 47 569 37 569 C 28 569 20 564 14 554 C 8 544 4 528 4 508 L -63 508 C -63 554 -55 588 -39 611 C -23 634 -6 646 12 646 C 29 646 44 642 56 634 C 68 626 79 618 89 610 C 97 603 106 596 114 590 C 122 583 130 580 139 580 C 147 580 155 585 162 596 C 168 606 172 622 172 643 Z" unicode="ĩ" />
<glyph horiz-adv-x="227" d="M 0 0 L 0 0 Z M 164 0 L 63 0 L 63 730 L 164 730 L 164 0 Z M 115 817 L 115 817 Z M 236 817 L -6 817 L -6 885 L 236 885 L 236 817 Z" unicode="Ī" />
<glyph horiz-adv-x="176" d="M 0 0 L 0 0 Z M 135 0 L 43 0 L 43 436 L 135 436 L 135 0 Z M 88 523 L 88 523 Z M 209 523 L -33 523 L -33 591 L 209 591 L 209 523 Z" unicode="ī" />
<glyph horiz-adv-x="227" d="M 0 0 L 0 0 Z M 164 0 L 63 0 L 63 730 L 164 730 L 164 0 Z M 115 797 L 115 797 Z M 171 955 L 247 955 C 243 899 230 859 206 834 C 182 809 151 797 115 797 C 78 797 48 809 24 834 C 0 859 -13 899 -16 955 L 60 955 C 61 926 65 904 73 888 C 81 872 95 865 115 865 C 135 865 149 872 157 887 C 165 902 169 925 171 955 Z" unicode="Ĭ" />
<glyph horiz-adv-x="176" d="M 0 0 L 0 0 Z M 135 0 L 43 0 L 43 436 L 135 436 L 135 0 Z M 88 503 L 88 503 Z M 144 661 L 220 661 C 216 605 203 565 179 540 C 155 515 124 503 88 503 C 51 503 21 515 -3 540 C -27 565 -40 605 -43 661 L 33 661 C 34 632 38 610 46 594 C 54 578 68 571 88 571 C 108 571 122 578 130 593 C 138 608 142 631 144 661 Z" unicode="ĭ" />
<glyph horiz-adv-x="227" d="M 0 0 L 0 0 Z M 164 0 L 63 0 L 63 730 L 164 730 L 164 0 Z M 87 -9 L 87 -9 Z M 185 -96 L 211 -135 C 191 -155 169 -171 145 -182 C 121 -193 94 -199 66 -199 C 33 -199 7 -191 -10 -177 C -28 -162 -38 -143 -38 -121 C -38 -96 -30 -73 -14 -52 C 1 -30 27 -12 63 4 L 142 4 C 116 -6 93 -20 72 -36 C 51 -52 41 -68 41 -84 C 41 -98 46 -109 56 -117 C 66 -125 80 -130 96 -130 C 114 -130 130 -126 146 -120 C 161 -114 174 -106 185 -96 Z" unicode="Į" />
<glyph horiz-adv-x="176" d="M 0 0 L 0 0 Z M 41 524 L 41 618 L 136 618 L 136 524 L 41 524 Z M 43 0 L 43 436 L 134 436 L 134 0 L 43 0 Z M 66 -9 L 66 -9 Z M 164 -96 L 190 -135 C 170 -155 148 -171 124 -182 C 100 -193 73 -199 45 -199 C 12 -199 -13 -191 -31 -177 C -49 -162 -59 -143 -59 -121 C -59 -96 -51 -73 -35 -52 C -19 -30 6 -12 42 4 L 121 4 C 95 -6 72 -20 51 -36 C 30 -52 20 -68 20 -84 C 20 -98 25 -109 35 -117 C 45 -125 59 -130 75 -130 C 93 -130 109 -126 125 -120 C 140 -114 153 -106 164 -96 Z" unicode="į" />
<glyph horiz-adv-x="227" d="M 63 0 L 63 0 Z M 164 0 L 63 0 L 63 730 L 164 730 L 164 0 Z M 115 811 L 115 811 Z M 158 811 L 73 811 L 73 929 L 158 929 L 158 811 Z" unicode="İ" />
<glyph horiz-adv-x="176" d="M 135 0 L 43 0 L 43 436 L 135 436 L 135 0 Z" unicode="ı" />
<glyph horiz-adv-x="508" d="M 63 0 L 63 0 Z M 164 0 L 63 0 L 63 730 L 164 730 L 164 0 Z M 452 730 L 452 182 C 452 127 437 82 408 46 C 379 10 341 -8 293 -8 C 281 -8 269 -7 255 -5 C 241 -3 230 -1 224 1 L 225 94 C 229 91 236 89 245 87 C 253 85 262 85 271 85 C 297 85 317 96 331 120 C 345 143 352 171 352 204 L 352 730 L 452 730 Z" unicode="Ĳ" />
<glyph horiz-adv-x="349" d="M 41 0 L 41 0 Z M 41 524 L 41 618 L 136 618 L 136 524 L 41 524 Z M 43 0 L 43 436 L 134 436 L 134 0 L 43 0 Z M 311 524 L 217 524 L 217 618 L 311 618 L 311 524 Z M 309 436 L 309 -102 C 309 -130 300 -153 284 -172 C 267 -191 244 -201 216 -201 C 204 -201 192 -199 180 -197 C 167 -195 159 -192 155 -190 L 174 -119 C 176 -119 179 -120 182 -121 C 185 -121 188 -122 192 -122 C 200 -122 206 -118 211 -112 C 216 -106 219 -97 219 -87 L 219 436 L 309 436 Z" unicode="ĳ" />
<glyph horiz-adv-x="286" d="M 3 0 L 3 0 Z M 231 730 L 231 182 C 231 127 216 82 187 46 C 158 10 120 -8 72 -8 C 60 -8 48 -7 34 -5 C 20 -3 9 -1 3 1 L 4 94 C 8 91 15 89 24 87 C 32 85 41 85 50 85 C 76 85 96 96 110 120 C 124 143 131 171 131 204 L 131 730 L 231 730 Z M 181 793 L 181 793 Z M 318 793 L 243 793 L 181 903 L 118 793 L 45 793 L 143 964 L 220 964 L 318 793 Z" unicode="Ĵ" />
<glyph horiz-adv-x="176" d="M 0 0 L 0 0 Z M 136 436 L 136 -102 C 136 -130 127 -153 111 -172 C 94 -191 71 -201 43 -201 C 31 -201 19 -199 7 -197 C -5 -195 -14 -192 -18 -190 L 1 -119 C 3 -119 6 -120 9 -121 C 12 -121 15 -122 19 -122 C 27 -122 33 -118 38 -112 C 43 -106 46 -97 46 -87 L 46 436 L 136 436 Z M 88 499 L 88 499 Z M 225 499 L 150 499 L 88 609 L 25 499 L -48 499 L 50 670 L 127 670 L 225 499 Z" unicode="ĵ" />
<glyph horiz-adv-x="493" d="M 59 0 L 59 0 Z M 503 0 L 393 0 L 191 334 L 160 293 L 160 0 L 59 0 L 59 730 L 160 730 L 160 404 L 379 730 L 487 730 L 262 398 L 503 0 Z M 246 -70 L 246 -70 Z M 328 -70 C 328 -92 325 -116 319 -140 C 313 -164 305 -187 296 -209 C 287 -231 277 -252 266 -271 C 255 -290 244 -306 234 -318 L 163 -286 C 169 -276 176 -264 184 -248 C 192 -232 199 -215 206 -196 C 213 -177 219 -157 224 -135 C 228 -113 231 -91 232 -70 L 328 -70 Z" unicode="Ķ" />
<glyph horiz-adv-x="371" d="M 40 0 L 40 0 Z M 379 2 L 283 -1 L 182 179 L 131 105 L 131 0 L 40 0 L 40 790 L 126 790 L 126 210 L 277 436 L 369 436 L 245 248 L 379 2 Z M 185 -70 L 185 -70 Z M 267 -70 C 267 -92 264 -116 258 -140 C 252 -164 244 -187 235 -209 C 226 -231 216 -252 205 -271 C 194 -290 183 -306 173 -318 L 102 -286 C 108 -276 115 -264 123 -248 C 131 -232 138 -215 145 -196 C 152 -177 158 -157 163 -135 C 167 -113 170 -91 171 -70 L 267 -70 Z" unicode="ķ" />
<glyph horiz-adv-x="371" d="M 379 2 L 283 -1 L 182 179 L 131 105 L 131 0 L 40 0 L 40 436 L 126 436 L 126 210 L 277 436 L 369 436 L 245 248 L 379 2 Z" unicode="ĸ" />
<glyph horiz-adv-x="359" d="M 59 0 L 59 0 Z M 352 0 L 59 0 L 59 730 L 159 730 L 159 90 L 352 90 L 352 0 Z M 171 792 L 171 792 Z M 76 792 L 161 964 L 266 964 L 164 792 L 76 792 Z" unicode="Ĺ" />
<glyph horiz-adv-x="172" d="M 40 0 L 40 0 Z M 139 862 L 139 862 Z M 44 862 L 129 1034 L 234 1034 L 132 862 L 44 862 Z M 132 800 L 132 0 L 40 0 L 40 800 L 132 800 Z" unicode="ĺ" />
<glyph horiz-adv-x="359" d="M 59 0 L 59 0 Z M 352 0 L 59 0 L 59 730 L 159 730 L 159 90 L 352 90 L 352 0 Z M 192 -70 L 192 -70 Z M 274 -70 C 274 -92 271 -116 265 -140 C 259 -164 251 -187 242 -209 C 233 -231 223 -252 212 -271 C 201 -290 190 -306 180 -318 L 109 -286 C 115 -276 122 -264 130 -248 C 138 -232 145 -215 152 -196 C 159 -177 165 -157 170 -135 C 174 -113 177 -91 178 -70 L 274 -70 Z" unicode="Ļ" />
<glyph horiz-adv-x="172" d="M 0 0 L 0 0 Z M 132 800 L 132 0 L 40 0 L 40 800 L 132 800 Z M 70 -70 L 70 -70 Z M 152 -70 C 152 -92 149 -116 143 -140 C 137 -164 129 -187 120 -209 C 111 -231 101 -252 90 -271 C 79 -290 68 -306 58 -318 L -13 -286 C -6 -276 0 -264 8 -248 C 16 -232 23 -215 30 -196 C 37 -177 43 -157 48 -135 C 52 -113 55 -91 56 -70 L 152 -70 Z" unicode="ļ" />
<glyph horiz-adv-x="359" d="M 59 0 L 59 0 Z M 352 0 L 59 0 L 59 730 L 159 730 L 159 90 L 352 90 L 352 0 Z M 351 621 L 347 483 L 269 483 L 264 621 L 264 730 L 351 730 L 351 621 Z" unicode="Ľ" />
<glyph horiz-adv-x="172" d="M 40 0 L 40 0 Z M 132 800 L 132 0 L 40 0 L 40 800 L 132 800 Z M 286 621 L 282 483 L 204 483 L 199 621 L 199 730 L 286 730 L 286 621 Z" unicode="ľ" />
<glyph horiz-adv-x="359" d="M 59 0 L 59 0 Z M 352 0 L 59 0 L 59 730 L 159 730 L 159 90 L 352 90 L 352 0 Z M 283 302 L 283 302 Z M 326 302 L 241 302 L 241 420 L 326 420 L 326 302 Z" unicode="Ŀ" />
<glyph horiz-adv-x="172" d="M 40 0 L 40 0 Z M 132 800 L 132 0 L 40 0 L 40 800 L 132 800 Z M 222 196 L 222 196 Z M 265 196 L 180 196 L 180 314 L 265 314 L 265 196 Z" unicode="ŀ" />
<glyph horiz-adv-x="359" d="M 352 82 L 352 0 L 59 0 L 59 264 L 19 247 L -12 317 L 59 347 L 59 730 L 159 730 L 159 390 L 282 442 L 312 373 L 159 307 L 159 82 L 352 82 Z" unicode="Ł" />
<glyph horiz-adv-x="172" d="M 222 340 L 156 310 L 156 0 L 64 0 L 64 268 L 21 248 L -3 303 L 64 334 L 64 790 L 156 790 L 156 377 L 198 396 L 222 340 Z" unicode="ł" />
<glyph horiz-adv-x="534" d="M 59 0 L 59 0 Z M 475 0 L 404 0 L 153 499 L 153 0 L 59 0 L 59 730 L 130 730 L 384 234 L 384 730 L 475 730 L 475 0 Z M 267 792 L 267 792 Z M 172 792 L 257 964 L 362 964 L 260 792 L 172 792 Z" unicode="Ń" />
<glyph horiz-adv-x="402" d="M 40 0 L 40 0 Z M 362 0 L 271 0 L 271 294 C 271 316 265 332 253 344 C 241 355 226 361 206 361 C 185 361 167 354 153 342 C 139 330 132 307 132 273 L 132 0 L 40 0 L 40 436 L 126 436 L 126 371 C 132 391 145 408 164 422 C 182 435 208 442 241 442 C 277 442 306 432 328 414 C 350 396 362 367 362 327 L 362 0 Z M 201 498 L 201 498 Z M 106 498 L 191 670 L 296 670 L 194 498 L 106 498 Z" unicode="ń" />
<glyph horiz-adv-x="534" d="M 59 0 L 59 0 Z M 475 0 L 404 0 L 153 499 L 153 0 L 59 0 L 59 730 L 130 730 L 384 234 L 384 730 L 475 730 L 475 0 Z M 257 -70 L 257 -70 Z M 339 -70 C 339 -92 336 -116 330 -140 C 324 -164 316 -187 307 -209 C 298 -231 288 -252 277 -271 C 266 -290 255 -306 245 -318 L 174 -286 C 180 -276 187 -264 195 -248 C 203 -232 210 -215 217 -196 C 224 -177 230 -157 235 -135 C 239 -113 242 -91 243 -70 L 339 -70 Z" unicode="Ņ" />
<glyph horiz-adv-x="402" d="M 40 0 L 40 0 Z M 362 0 L 271 0 L 271 294 C 271 316 265 332 253 344 C 241 355 226 361 206 361 C 185 361 167 354 153 342 C 139 330 132 307 132 273 L 132 0 L 40 0 L 40 436 L 126 436 L 126 371 C 132 391 145 408 164 422 C 182 435 208 442 241 442 C 277 442 306 432 328 414 C 350 396 362 367 362 327 L 362 0 Z M 191 -70 L 191 -70 Z M 273 -70 C 273 -92 270 -116 264 -140 C 258 -164 250 -187 241 -209 C 232 -231 222 -252 211 -271 C 200 -290 189 -306 179 -318 L 108 -286 C 114 -276 121 -264 129 -248 C 137 -232 144 -215 151 -196 C 158 -177 164 -157 169 -135 C 173 -113 176 -91 177 -70 L 273 -70 Z" unicode="ņ" />
<glyph horiz-adv-x="534" d="M 59 0 L 59 0 Z M 475 0 L 404 0 L 153 499 L 153 0 L 59 0 L 59 730 L 130 730 L 384 234 L 384 730 L 475 730 L 475 0 Z M 267 793 L 267 793 Z M 131 964 L 206 964 L 268 853 L 331 964 L 404 964 L 306 793 L 229 793 L 131 964 Z" unicode="Ň" />
<glyph horiz-adv-x="402" d="M 40 0 L 40 0 Z M 362 0 L 271 0 L 271 294 C 271 316 265 332 253 344 C 241 355 226 361 206 361 C 185 361 167 354 153 342 C 139 330 132 307 132 273 L 132 0 L 40 0 L 40 436 L 126 436 L 126 371 C 132 391 145 408 164 422 C 182 435 208 442 241 442 C 277 442 306 432 328 414 C 350 396 362 367 362 327 L 362 0 Z M 201 499 L 201 499 Z M 65 670 L 140 670 L 202 559 L 265 670 L 338 670 L 240 499 L 163 499 L 65 670 Z" unicode="ň" />
<glyph horiz-adv-x="534" d="M 384 730 L 475 730 L 475 -6 C 475 -60 461 -106 435 -142 C 409 -178 372 -196 324 -196 C 312 -196 300 -195 286 -193 C 272 -191 262 -189 256 -187 L 256 -94 C 260 -96 267 -98 276 -100 C 284 -102 293 -103 302 -103 C 328 -103 349 -91 363 -68 C 377 -44 384 -16 384 16 L 384 40 L 153 499 L 153 0 L 59 0 L 59 730 L 130 730 L 384 234 L 384 730 Z" unicode="Ŋ" />
<glyph horiz-adv-x="402" d="M 241 442 C 277 442 306 432 328 414 C 350 396 362 367 362 327 L 362 -102 C 362 -130 353 -153 336 -172 C 319 -191 296 -201 268 -201 C 256 -201 244 -199 232 -197 C 219 -195 211 -192 207 -190 L 226 -119 C 228 -119 231 -120 234 -121 C 237 -121 241 -122 245 -122 C 252 -122 258 -118 263 -112 C 268 -106 271 -97 271 -87 L 271 294 C 271 316 265 332 253 344 C 241 355 226 361 206 361 C 185 361 167 354 153 342 C 139 330 132 307 132 273 L 132 0 L 40 0 L 40 436 L 126 436 L 126 371 C 132 391 145 408 164 422 C 182 435 208 442 241 442 Z" unicode="ŋ" />
<glyph horiz-adv-x="569" d="M 34 0 L 34 0 Z M 287 -7 C 207 -7 144 25 100 90 C 56 154 34 248 34 371 C 34 485 56 575 101 640 C 145 704 206 737 282 737 C 363 737 425 705 469 641 C 513 577 535 485 535 365 C 535 248 512 157 466 91 C 420 25 360 -7 287 -7 Z M 285 80 C 331 80 367 103 394 150 C 420 197 434 271 434 371 C 434 464 420 534 393 580 C 365 626 329 649 283 649 C 235 649 198 626 173 581 C 148 535 136 463 136 364 C 136 264 149 192 176 147 C 203 102 239 80 285 80 Z M 282 817 L 282 817 Z M 403 817 L 161 817 L 161 885 L 403 885 L 403 817 Z" unicode="Ō" />
<glyph horiz-adv-x="400" d="M 21 0 L 21 0 Z M 201 -5 C 149 -5 106 14 72 52 C 38 90 21 145 21 216 C 21 283 37 337 69 379 C 101 420 143 441 195 441 C 251 441 295 421 329 383 C 363 344 380 292 380 228 C 380 158 364 102 332 59 C 300 16 256 -5 201 -5 Z M 200 67 C 227 67 248 79 262 105 C 276 130 283 168 283 219 C 283 270 275 307 261 331 C 246 355 225 367 198 367 C 172 367 152 354 138 330 C 124 306 117 269 117 219 C 117 165 124 126 140 102 C 155 78 175 67 200 67 Z M 200 523 L 200 523 Z M 321 523 L 79 523 L 79 591 L 321 591 L 321 523 Z" unicode="ō" />
<glyph horiz-adv-x="569" d="M 34 0 L 34 0 Z M 287 -7 C 207 -7 144 25 100 90 C 56 154 34 248 34 371 C 34 485 56 575 101 640 C 145 704 206 737 282 737 C 363 737 425 705 469 641 C 513 577 535 485 535 365 C 535 248 512 157 466 91 C 420 25 360 -7 287 -7 Z M 285 80 C 331 80 367 103 394 150 C 420 197 434 271 434 371 C 434 464 420 534 393 580 C 365 626 329 649 283 649 C 235 649 198 626 173 581 C 148 535 136 463 136 364 C 136 264 149 192 176 147 C 203 102 239 80 285 80 Z M 282 797 L 282 797 Z M 338 955 L 414 955 C 410 899 397 859 373 834 C 349 809 318 797 282 797 C 245 797 215 809 191 834 C 167 859 153 899 151 955 L 227 955 C 228 926 232 904 240 888 C 248 872 262 865 282 865 C 302 865 316 872 324 887 C 332 902 336 925 338 955 Z" unicode="Ŏ" />
<glyph horiz-adv-x="400" d="M 21 0 L 21 0 Z M 201 -5 C 149 -5 106 14 72 52 C 38 90 21 145 21 216 C 21 283 37 337 69 379 C 101 420 143 441 195 441 C 251 441 295 421 329 383 C 363 344 380 292 380 228 C 380 158 364 102 332 59 C 300 16 256 -5 201 -5 Z M 200 67 C 227 67 248 79 262 105 C 276 130 283 168 283 219 C 283 270 275 307 261 331 C 246 355 225 367 198 367 C 172 367 152 354 138 330 C 124 306 117 269 117 219 C 117 165 124 126 140 102 C 155 78 175 67 200 67 Z M 200 503 L 200 503 Z M 256 661 L 332 661 C 328 605 315 565 291 540 C 267 515 236 503 200 503 C 163 503 133 515 109 540 C 85 565 71 605 69 661 L 145 661 C 146 632 150 610 158 594 C 166 578 180 571 200 571 C 220 571 234 578 242 593 C 250 608 254 631 256 661 Z" unicode="ŏ" />
<glyph horiz-adv-x="569" d="M 34 0 L 34 0 Z M 287 -7 C 207 -7 144 25 100 90 C 56 154 34 248 34 371 C 34 485 56 575 101 640 C 145 704 206 737 282 737 C 363 737 425 705 469 641 C 513 577 535 485 535 365 C 535 248 512 157 466 91 C 420 25 360 -7 287 -7 Z M 285 80 C 331 80 367 103 394 150 C 420 197 434 271 434 371 C 434 464 420 534 393 580 C 365 626 329 649 283 649 C 235 649 198 626 173 581 C 148 535 136 463 136 364 C 136 264 149 192 176 147 C 203 102 239 80 285 80 Z M 282 792 L 282 792 Z M 117 792 L 180 951 L 278 951 L 198 792 L 117 792 Z M 286 792 L 350 951 L 448 951 L 367 792 L 286 792 Z" unicode="Ő" />
<glyph horiz-adv-x="400" d="M 21 0 L 21 0 Z M 201 -5 C 149 -5 106 14 72 52 C 38 90 21 145 21 216 C 21 283 37 337 69 379 C 101 420 143 441 195 441 C 251 441 295 421 329 383 C 363 344 380 292 380 228 C 380 158 364 102 332 59 C 300 16 256 -5 201 -5 Z M 200 67 C 227 67 248 79 262 105 C 276 130 283 168 283 219 C 283 270 275 307 261 331 C 246 355 225 367 198 367 C 172 367 152 354 138 330 C 124 306 117 269 117 219 C 117 165 124 126 140 102 C 155 78 175 67 200 67 Z M 200 498 L 200 498 Z M 35 498 L 98 657 L 196 657 L 116 498 L 35 498 Z M 204 498 L 268 657 L 366 657 L 285 498 L 204 498 Z" unicode="ő" />
<glyph horiz-adv-x="749" d="M 266 -6 C 194 -6 138 24 96 86 C 54 148 34 243 34 371 C 34 492 54 583 96 644 C 138 704 192 735 260 735 C 304 735 340 723 367 700 C 393 677 410 651 417 623 L 417 730 L 722 730 L 722 648 L 514 648 L 514 402 L 713 402 L 713 320 L 514 320 L 514 82 L 739 82 L 739 0 L 417 0 L 417 108 C 413 94 407 81 399 67 C 391 53 380 41 368 31 C 355 20 340 11 323 4 C 306 -2 287 -6 266 -6 Z M 277 65 C 321 65 355 90 380 140 C 405 190 418 267 418 372 C 418 470 405 542 379 590 C 353 638 319 662 275 662 C 229 662 195 639 171 593 C 147 547 136 471 136 365 C 136 256 148 179 174 133 C 199 87 233 65 277 65 Z" unicode="Œ" />
<glyph horiz-adv-x="645" d="M 191 -5 C 143 -5 103 14 70 52 C 37 90 21 145 21 216 C 21 283 37 337 69 379 C 101 420 143 441 195 441 C 215 441 233 438 249 432 C 265 426 278 418 289 410 C 300 401 309 391 316 381 C 322 370 326 360 328 350 C 329 359 333 369 339 380 C 345 390 353 400 363 409 C 373 418 385 426 400 432 C 415 438 432 441 452 441 C 508 441 550 420 579 378 C 608 336 623 276 623 196 L 371 196 C 371 148 379 114 397 94 C 415 73 437 63 464 63 C 490 63 511 68 527 79 C 543 90 557 103 570 117 L 618 70 C 604 53 585 36 561 20 C 537 3 504 -5 460 -5 C 420 -5 388 4 366 24 C 344 43 330 63 325 85 C 321 75 316 65 308 55 C 300 44 290 34 279 26 C 267 17 254 10 239 4 C 224 -2 208 -5 191 -5 Z M 375 257 L 536 257 C 535 292 527 320 513 341 C 499 361 479 372 454 372 C 429 372 410 361 397 341 C 384 320 377 292 375 257 Z M 200 68 C 228 68 249 80 263 105 C 277 130 284 168 284 220 C 284 270 276 307 262 331 C 247 355 226 367 198 367 C 172 367 151 354 137 330 C 123 306 116 269 116 220 C 116 166 123 127 139 103 C 154 79 174 68 200 68 Z" unicode="œ" />
<glyph horiz-adv-x="462" d="M 59 0 L 59 0 Z M 59 0 L 59 730 L 220 730 C 274 730 318 713 353 681 C 388 649 406 600 406 535 C 406 482 394 437 372 400 C 349 363 320 341 284 335 L 282 331 L 463 0 L 356 0 L 188 311 L 151 311 L 151 0 L 59 0 Z M 151 396 L 208 396 C 238 396 262 407 281 429 C 300 451 310 481 310 520 C 310 562 299 592 279 612 C 258 632 233 642 205 642 L 151 642 L 151 396 Z M 209 792 L 209 792 Z M 114 792 L 199 964 L 304 964 L 202 792 L 114 792 Z" unicode="Ŕ" />
<glyph horiz-adv-x="296" d="M 40 0 L 40 0 Z M 300 410 L 272 335 C 261 344 251 350 242 353 C 233 356 223 358 211 358 C 195 358 177 351 159 337 C 141 323 132 294 132 250 L 132 0 L 40 0 L 40 436 L 129 436 L 129 361 C 135 381 147 400 164 416 C 180 432 200 441 223 441 C 240 441 255 437 269 431 C 282 425 292 418 300 410 Z M 169 498 L 169 498 Z M 74 498 L 159 670 L 264 670 L 162 498 L 74 498 Z" unicode="ŕ" />
<glyph horiz-adv-x="462" d="M 59 0 L 59 0 Z M 59 0 L 59 730 L 220 730 C 274 730 318 713 353 681 C 388 649 406 600 406 535 C 406 482 394 437 372 400 C 349 363 320 341 284 335 L 282 331 L 463 0 L 356 0 L 188 311 L 151 311 L 151 0 L 59 0 Z M 151 396 L 208 396 C 238 396 262 407 281 429 C 300 451 310 481 310 520 C 310 562 299 592 279 612 C 258 632 233 642 205 642 L 151 642 L 151 396 Z M 227 -70 L 227 -70 Z M 309 -70 C 309 -92 306 -116 300 -140 C 294 -164 286 -187 277 -209 C 268 -231 258 -252 247 -271 C 236 -290 225 -306 215 -318 L 144 -286 C 150 -276 157 -264 165 -248 C 173 -232 180 -215 187 -196 C 194 -177 200 -157 205 -135 C 209 -113 212 -91 213 -70 L 309 -70 Z" unicode="Ŗ" />
<glyph horiz-adv-x="296" d="M 40 0 L 40 0 Z M 300 410 L 272 335 C 261 344 251 350 242 353 C 233 356 223 358 211 358 C 195 358 177 351 159 337 C 141 323 132 294 132 250 L 132 0 L 40 0 L 40 436 L 129 436 L 129 361 C 135 381 147 400 164 416 C 180 432 200 441 223 441 C 240 441 255 437 269 431 C 282 425 292 418 300 410 Z M 152 -70 L 152 -70 Z M 234 -70 C 234 -92 231 -116 225 -140 C 219 -164 211 -187 202 -209 C 193 -231 183 -252 172 -271 C 161 -290 150 -306 140 -318 L 69 -286 C 75 -276 82 -264 90 -248 C 98 -232 105 -215 112 -196 C 119 -177 125 -157 130 -135 C 134 -113 137 -91 138 -70 L 234 -70 Z" unicode="ŗ" />
<glyph horiz-adv-x="462" d="M 59 0 L 59 0 Z M 59 0 L 59 730 L 220 730 C 274 730 318 713 353 681 C 388 649 406 600 406 535 C 406 482 394 437 372 400 C 349 363 320 341 284 335 L 282 331 L 463 0 L 356 0 L 188 311 L 151 311 L 151 0 L 59 0 Z M 151 396 L 208 396 C 238 396 262 407 281 429 C 300 451 310 481 310 520 C 310 562 299 592 279 612 C 258 632 233 642 205 642 L 151 642 L 151 396 Z M 209 793 L 209 793 Z M 73 964 L 148 964 L 210 853 L 273 964 L 346 964 L 248 793 L 171 793 L 73 964 Z" unicode="Ř" />
<glyph horiz-adv-x="296" d="M 33 0 L 33 0 Z M 300 410 L 272 335 C 261 344 251 350 242 353 C 233 356 223 358 211 358 C 195 358 177 351 159 337 C 141 323 132 294 132 250 L 132 0 L 40 0 L 40 436 L 129 436 L 129 361 C 135 381 147 400 164 416 C 180 432 200 441 223 441 C 240 441 255 437 269 431 C 282 425 292 418 300 410 Z M 169 499 L 169 499 Z M 33 670 L 108 670 L 170 559 L 233 670 L 306 670 L 208 499 L 131 499 L 33 670 Z" unicode="ř" />
<glyph horiz-adv-x="411" d="M 18 0 L 18 0 Z M 206 -7 C 168 -7 133 0 102 13 C 70 26 42 49 18 82 L 70 147 C 86 122 105 103 128 91 C 151 78 175 72 199 72 C 224 72 246 81 266 101 C 286 121 296 147 296 181 C 296 215 288 243 272 265 C 256 287 226 313 182 343 C 138 371 102 401 75 433 C 48 464 35 508 35 564 C 35 590 39 614 49 636 C 59 657 72 675 88 690 C 104 705 123 717 145 725 C 167 733 190 737 214 737 C 253 737 286 730 313 718 C 339 705 360 690 375 674 L 324 606 C 312 618 296 628 277 637 C 258 645 238 650 218 650 C 195 650 175 642 157 626 C 139 610 131 588 131 558 C 131 529 139 505 153 487 C 167 468 197 444 243 416 C 295 382 333 348 356 312 C 379 276 391 232 391 182 C 391 151 385 124 375 100 C 364 76 350 57 333 41 C 316 25 296 13 274 5 C 252 -3 229 -7 206 -7 Z M 207 792 L 207 792 Z M 112 792 L 197 964 L 302 964 L 200 792 L 112 792 Z" unicode="Ś" />
<glyph horiz-adv-x="306" d="M 17 0 L 17 0 Z M 162 -6 C 130 -6 101 0 76 12 C 51 24 31 39 17 57 L 59 118 C 71 102 87 90 105 81 C 123 71 140 67 156 67 C 168 67 181 71 193 80 C 205 88 212 101 212 119 C 212 133 205 146 191 158 C 177 170 155 183 126 198 C 96 214 72 231 54 251 C 36 270 28 297 28 331 C 28 361 40 387 65 409 C 90 430 119 441 152 441 C 180 441 205 436 226 428 C 246 419 264 409 278 398 L 230 341 C 223 347 213 352 199 358 C 185 363 171 366 159 366 C 143 366 131 362 121 355 C 111 348 106 338 106 326 C 106 313 112 302 124 292 C 136 282 157 270 188 254 C 223 235 248 216 264 198 C 280 179 288 152 288 118 C 288 98 284 80 276 65 C 268 49 258 36 246 26 C 234 15 220 7 205 2 C 190 -3 176 -6 162 -6 Z M 156 498 L 156 498 Z M 61 498 L 146 670 L 251 670 L 149 498 L 61 498 Z" unicode="ś" />
<glyph horiz-adv-x="411" d="M 18 0 L 18 0 Z M 206 -7 C 168 -7 133 0 102 13 C 70 26 42 49 18 82 L 70 147 C 86 122 105 103 128 91 C 151 78 175 72 199 72 C 224 72 246 81 266 101 C 286 121 296 147 296 181 C 296 215 288 243 272 265 C 256 287 226 313 182 343 C 138 371 102 401 75 433 C 48 464 35 508 35 564 C 35 590 39 614 49 636 C 59 657 72 675 88 690 C 104 705 123 717 145 725 C 167 733 190 737 214 737 C 253 737 286 730 313 718 C 339 705 360 690 375 674 L 324 606 C 312 618 296 628 277 637 C 258 645 238 650 218 650 C 195 650 175 642 157 626 C 139 610 131 588 131 558 C 131 529 139 505 153 487 C 167 468 197 444 243 416 C 295 382 333 348 356 312 C 379 276 391 232 391 182 C 391 151 385 124 375 100 C 364 76 350 57 333 41 C 316 25 296 13 274 5 C 252 -3 229 -7 206 -7 Z M 207 793 L 207 793 Z M 344 793 L 269 793 L 207 903 L 144 793 L 71 793 L 169 964 L 246 964 L 344 793 Z" unicode="Ŝ" />
<glyph horiz-adv-x="306" d="M 17 0 L 17 0 Z M 162 -6 C 130 -6 101 0 76 12 C 51 24 31 39 17 57 L 59 118 C 71 102 87 90 105 81 C 123 71 140 67 156 67 C 168 67 181 71 193 80 C 205 88 212 101 212 119 C 212 133 205 146 191 158 C 177 170 155 183 126 198 C 96 214 72 231 54 251 C 36 270 28 297 28 331 C 28 361 40 387 65 409 C 90 430 119 441 152 441 C 180 441 205 436 226 428 C 246 419 264 409 278 398 L 230 341 C 223 347 213 352 199 358 C 185 363 171 366 159 366 C 143 366 131 362 121 355 C 111 348 106 338 106 326 C 106 313 112 302 124 292 C 136 282 157 270 188 254 C 223 235 248 216 264 198 C 280 179 288 152 288 118 C 288 98 284 80 276 65 C 268 49 258 36 246 26 C 234 15 220 7 205 2 C 190 -3 176 -6 162 -6 Z M 156 499 L 156 499 Z M 293 499 L 218 499 L 156 609 L 93 499 L 20 499 L 118 670 L 195 670 L 293 499 Z" unicode="ŝ" />
<glyph horiz-adv-x="411" d="M 18 0 L 18 0 Z M 206 -7 C 168 -7 133 0 102 13 C 70 26 42 49 18 82 L 70 147 C 86 122 105 103 128 91 C 151 78 175 72 199 72 C 224 72 246 81 266 101 C 286 121 296 147 296 181 C 296 215 288 243 272 265 C 256 287 226 313 182 343 C 138 371 102 401 75 433 C 48 464 35 508 35 564 C 35 590 39 614 49 636 C 59 657 72 675 88 690 C 104 705 123 717 145 725 C 167 733 190 737 214 737 C 253 737 286 730 313 718 C 339 705 360 690 375 674 L 324 606 C 312 618 296 628 277 637 C 258 645 238 650 218 650 C 195 650 175 642 157 626 C 139 610 131 588 131 558 C 131 529 139 505 153 487 C 167 468 197 444 243 416 C 295 382 333 348 356 312 C 379 276 391 232 391 182 C 391 151 385 124 375 100 C 364 76 350 57 333 41 C 316 25 296 13 274 5 C 252 -3 229 -7 206 -7 Z M 183 -1 L 183 -1 Z M 189 -185 C 167 -185 145 -182 123 -176 C 101 -170 84 -162 72 -152 L 85 -115 C 93 -121 105 -126 120 -132 C 134 -138 150 -141 167 -141 C 180 -141 192 -137 202 -131 C 212 -125 217 -116 217 -105 C 217 -92 212 -83 204 -78 C 195 -73 186 -71 176 -71 C 168 -71 162 -71 157 -72 C 151 -73 145 -75 139 -78 L 124 -62 L 183 12 L 234 12 L 186 -50 C 216 -43 242 -45 263 -57 C 283 -69 294 -86 294 -110 C 294 -134 283 -153 263 -166 C 242 -178 217 -185 189 -185 Z" unicode="Ş" />
<glyph horiz-adv-x="306" d="M 17 0 L 17 0 Z M 162 -6 C 130 -6 101 0 76 12 C 51 24 31 39 17 57 L 59 118 C 71 102 87 90 105 81 C 123 71 140 67 156 67 C 168 67 181 71 193 80 C 205 88 212 101 212 119 C 212 133 205 146 191 158 C 177 170 155 183 126 198 C 96 214 72 231 54 251 C 36 270 28 297 28 331 C 28 361 40 387 65 409 C 90 430 119 441 152 441 C 180 441 205 436 226 428 C 246 419 264 409 278 398 L 230 341 C 223 347 213 352 199 358 C 185 363 171 366 159 366 C 143 366 131 362 121 355 C 111 348 106 338 106 326 C 106 313 112 302 124 292 C 136 282 157 270 188 254 C 223 235 248 216 264 198 C 280 179 288 152 288 118 C 288 98 284 80 276 65 C 268 49 258 36 246 26 C 234 15 220 7 205 2 C 190 -3 176 -6 162 -6 Z M 142 -1 L 142 -1 Z M 148 -185 C 126 -185 104 -182 82 -176 C 60 -170 43 -162 31 -152 L 44 -115 C 52 -121 64 -126 79 -132 C 93 -138 109 -141 126 -141 C 139 -141 151 -137 161 -131 C 171 -125 176 -116 176 -105 C 176 -92 171 -83 163 -78 C 154 -73 145 -71 135 -71 C 127 -71 121 -71 116 -72 C 110 -73 104 -75 98 -78 L 83 -62 L 142 12 L 193 12 L 145 -50 C 175 -43 201 -45 222 -57 C 242 -69 253 -86 253 -110 C 253 -134 242 -153 222 -166 C 201 -178 176 -185 148 -185 Z" unicode="ş" />
<glyph horiz-adv-x="411" d="M 18 0 L 18 0 Z M 206 -7 C 168 -7 133 0 102 13 C 70 26 42 49 18 82 L 70 147 C 86 122 105 103 128 91 C 151 78 175 72 199 72 C 224 72 246 81 266 101 C 286 121 296 147 296 181 C 296 215 288 243 272 265 C 256 287 226 313 182 343 C 138 371 102 401 75 433 C 48 464 35 508 35 564 C 35 590 39 614 49 636 C 59 657 72 675 88 690 C 104 705 123 717 145 725 C 167 733 190 737 214 737 C 253 737 286 730 313 718 C 339 705 360 690 375 674 L 324 606 C 312 618 296 628 277 637 C 258 645 238 650 218 650 C 195 650 175 642 157 626 C 139 610 131 588 131 558 C 131 529 139 505 153 487 C 167 468 197 444 243 416 C 295 382 333 348 356 312 C 379 276 391 232 391 182 C 391 151 385 124 375 100 C 364 76 350 57 333 41 C 316 25 296 13 274 5 C 252 -3 229 -7 206 -7 Z M 207 793 L 207 793 Z M 71 964 L 146 964 L 208 853 L 271 964 L 344 964 L 246 793 L 169 793 L 71 964 Z" unicode="Š" />
<glyph horiz-adv-x="306" d="M 17 0 L 17 0 Z M 162 -6 C 130 -6 101 0 76 12 C 51 24 31 39 17 57 L 59 118 C 71 102 87 90 105 81 C 123 71 140 67 156 67 C 168 67 181 71 193 80 C 205 88 212 101 212 119 C 212 133 205 146 191 158 C 177 170 155 183 126 198 C 96 214 72 231 54 251 C 36 270 28 297 28 331 C 28 361 40 387 65 409 C 90 430 119 441 152 441 C 180 441 205 436 226 428 C 246 419 264 409 278 398 L 230 341 C 223 347 213 352 199 358 C 185 363 171 366 159 366 C 143 366 131 362 121 355 C 111 348 106 338 106 326 C 106 313 112 302 124 292 C 136 282 157 270 188 254 C 223 235 248 216 264 198 C 280 179 288 152 288 118 C 288 98 284 80 276 65 C 268 49 258 36 246 26 C 234 15 220 7 205 2 C 190 -3 176 -6 162 -6 Z M 156 499 L 156 499 Z M 20 670 L 95 670 L 157 559 L 220 670 L 293 670 L 195 499 L 118 499 L 20 670 Z" unicode="š" />
<glyph horiz-adv-x="377" d="M 7 0 L 7 0 Z M 370 640 L 238 640 L 238 0 L 138 0 L 138 640 L 7 640 L 7 730 L 370 730 L 370 640 Z M 188 793 L 188 793 Z M 52 964 L 127 964 L 189 853 L 252 964 L 325 964 L 227 793 L 150 793 L 52 964 Z" unicode="Ť" />
<glyph horiz-adv-x="221" d="M 13 0 L 13 0 Z M 201 82 L 219 15 C 213 10 205 5 195 1 C 184 -2 170 -5 153 -5 C 145 -5 135 -3 123 0 C 111 3 100 9 90 18 C 80 26 71 38 63 54 C 55 70 52 90 52 114 L 52 358 L 13 358 L 13 436 L 54 436 L 54 585 L 141 594 L 141 436 L 201 436 L 201 358 L 143 358 L 143 112 C 143 100 146 90 152 84 C 158 78 165 75 175 75 C 179 75 184 75 189 77 C 194 79 198 80 201 82 Z M 307 621 L 303 483 L 225 483 L 220 621 L 220 730 L 307 730 L 307 621 Z" unicode="ť" />
<glyph horiz-adv-x="377" d="M 352 455 L 238 455 L 238 0 L 138 0 L 138 455 L 25 455 L 25 533 L 138 533 L 138 640 L 7 640 L 7 730 L 370 730 L 370 640 L 238 640 L 238 533 L 352 533 L 352 455 Z" unicode="Ŧ" />
<glyph horiz-adv-x="221" d="M 219 15 C 213 10 205 5 195 1 C 184 -2 170 -5 153 -5 C 145 -5 135 -3 123 0 C 111 3 100 9 90 18 C 80 26 71 38 63 54 C 55 70 52 90 52 114 L 52 230 L 23 230 L 23 309 L 52 309 L 52 358 L 13 358 L 13 436 L 54 436 L 54 585 L 141 594 L 141 436 L 201 436 L 201 358 L 143 358 L 143 309 L 191 309 L 191 230 L 143 230 L 143 112 C 143 100 146 90 152 84 C 158 78 165 75 175 75 C 179 75 184 75 189 77 C 194 79 198 80 201 82 L 219 15 Z" unicode="ŧ" />
<glyph horiz-adv-x="534" d="M 56 0 L 56 0 Z M 478 730 L 478 218 C 478 178 472 143 460 115 C 448 87 432 63 412 45 C 392 27 369 13 343 5 C 317 -2 289 -7 261 -7 C 233 -7 207 -2 182 5 C 157 13 135 26 117 44 C 98 62 83 85 72 114 C 61 142 56 177 56 218 L 56 730 L 153 730 L 153 216 C 153 166 163 130 185 110 C 206 89 233 79 265 79 C 295 79 322 88 344 108 C 366 128 378 164 378 216 L 378 730 L 478 730 Z M 265 799 L 265 799 Z M 349 937 L 417 937 C 417 890 410 855 397 833 C 384 810 367 799 347 799 C 329 799 314 802 302 810 C 290 817 279 824 270 832 C 261 838 252 845 243 852 C 233 859 224 863 214 863 C 205 863 197 858 191 848 C 185 838 181 822 181 802 L 114 802 C 114 848 121 882 137 905 C 153 928 170 940 189 940 C 206 940 221 936 233 928 C 245 920 256 912 266 904 C 274 897 283 890 291 884 C 299 877 307 874 316 874 C 324 874 332 879 339 890 C 345 900 349 916 349 937 Z" unicode="Ũ" />
<glyph horiz-adv-x="402" d="M 39 0 L 39 0 Z M 39 436 L 131 436 L 131 141 C 131 114 137 95 149 83 C 161 71 177 65 198 65 C 216 65 233 71 248 84 C 262 97 270 123 270 161 L 270 436 L 361 436 L 361 0 L 273 0 L 273 51 C 266 33 253 19 234 9 C 215 0 192 -6 164 -6 C 129 -6 99 3 75 23 C 51 42 39 74 39 118 L 39 436 Z M 200 505 L 200 505 Z M 284 643 L 352 643 C 352 596 345 561 332 539 C 319 516 302 505 282 505 C 264 505 249 508 237 516 C 225 523 214 530 205 538 C 196 544 187 551 178 558 C 168 565 159 569 149 569 C 140 569 132 564 126 554 C 120 544 116 528 116 508 L 49 508 C 49 554 56 588 72 611 C 88 634 105 646 124 646 C 141 646 156 642 168 634 C 180 626 191 618 201 610 C 209 603 218 596 226 590 C 234 583 242 580 251 580 C 259 580 267 585 274 596 C 280 606 284 622 284 643 Z" unicode="ũ" />
<glyph horiz-adv-x="534" d="M 56 0 L 56 0 Z M 478 730 L 478 218 C 478 178 472 143 460 115 C 448 87 432 63 412 45 C 392 27 369 13 343 5 C 317 -2 289 -7 261 -7 C 233 -7 207 -2 182 5 C 157 13 135 26 117 44 C 98 62 83 85 72 114 C 61 142 56 177 56 218 L 56 730 L 153 730 L 153 216 C 153 166 163 130 185 110 C 206 89 233 79 265 79 C 295 79 322 88 344 108 C 366 128 378 164 378 216 L 378 730 L 478 730 Z M 265 817 L 265 817 Z M 386 817 L 144 817 L 144 885 L 386 885 L 386 817 Z" unicode="Ū" />
<glyph horiz-adv-x="402" d="M 39 0 L 39 0 Z M 39 436 L 131 436 L 131 141 C 131 114 137 95 149 83 C 161 71 177 65 198 65 C 216 65 233 71 248 84 C 262 97 270 123 270 161 L 270 436 L 361 436 L 361 0 L 273 0 L 273 51 C 266 33 253 19 234 9 C 215 0 192 -6 164 -6 C 129 -6 99 3 75 23 C 51 42 39 74 39 118 L 39 436 Z M 200 523 L 200 523 Z M 321 523 L 79 523 L 79 591 L 321 591 L 321 523 Z" unicode="ū" />
<glyph horiz-adv-x="534" d="M 56 0 L 56 0 Z M 478 730 L 478 218 C 478 178 472 143 460 115 C 448 87 432 63 412 45 C 392 27 369 13 343 5 C 317 -2 289 -7 261 -7 C 233 -7 207 -2 182 5 C 157 13 135 26 117 44 C 98 62 83 85 72 114 C 61 142 56 177 56 218 L 56 730 L 153 730 L 153 216 C 153 166 163 130 185 110 C 206 89 233 79 265 79 C 295 79 322 88 344 108 C 366 128 378 164 378 216 L 378 730 L 478 730 Z M 265 797 L 265 797 Z M 321 955 L 397 955 C 393 899 380 859 356 834 C 332 809 301 797 265 797 C 228 797 198 809 174 834 C 150 859 136 899 134 955 L 210 955 C 211 926 215 904 223 888 C 231 872 245 865 265 865 C 285 865 299 872 307 887 C 315 902 319 925 321 955 Z" unicode="Ŭ" />
<glyph horiz-adv-x="402" d="M 39 0 L 39 0 Z M 39 436 L 131 436 L 131 141 C 131 114 137 95 149 83 C 161 71 177 65 198 65 C 216 65 233 71 248 84 C 262 97 270 123 270 161 L 270 436 L 361 436 L 361 0 L 273 0 L 273 51 C 266 33 253 19 234 9 C 215 0 192 -6 164 -6 C 129 -6 99 3 75 23 C 51 42 39 74 39 118 L 39 436 Z M 200 503 L 200 503 Z M 256 661 L 332 661 C 328 605 315 565 291 540 C 267 515 236 503 200 503 C 163 503 133 515 109 540 C 85 565 71 605 69 661 L 145 661 C 146 632 150 610 158 594 C 166 578 180 571 200 571 C 220 571 234 578 242 593 C 250 608 254 631 256 661 Z" unicode="ŭ" />
<glyph horiz-adv-x="534" d="M 56 0 L 56 0 Z M 478 730 L 478 218 C 478 178 472 143 460 115 C 448 87 432 63 412 45 C 392 27 369 13 343 5 C 317 -2 289 -7 261 -7 C 233 -7 207 -2 182 5 C 157 13 135 26 117 44 C 98 62 83 85 72 114 C 61 142 56 177 56 218 L 56 730 L 153 730 L 153 216 C 153 166 163 130 185 110 C 206 89 233 79 265 79 C 295 79 322 88 344 108 C 366 128 378 164 378 216 L 378 730 L 478 730 Z M 265 789 L 265 789 Z M 265 789 C 233 789 207 800 185 822 C 163 844 152 870 152 902 C 152 934 163 961 185 983 C 207 1005 233 1016 265 1016 C 297 1016 324 1005 346 983 C 368 961 379 934 379 902 C 379 870 368 844 346 822 C 324 800 297 789 265 789 Z M 265 841 C 281 841 295 847 306 859 C 317 871 323 885 323 902 C 323 919 317 933 306 945 C 295 957 281 963 265 963 C 249 963 235 957 224 945 C 212 933 207 919 207 902 C 207 885 212 871 224 859 C 235 847 249 841 265 841 Z" unicode="Ů" />
<glyph horiz-adv-x="402" d="M 39 0 L 39 0 Z M 39 436 L 131 436 L 131 141 C 131 114 137 95 149 83 C 161 71 177 65 198 65 C 216 65 233 71 248 84 C 262 97 270 123 270 161 L 270 436 L 361 436 L 361 0 L 273 0 L 273 51 C 266 33 253 19 234 9 C 215 0 192 -6 164 -6 C 129 -6 99 3 75 23 C 51 42 39 74 39 118 L 39 436 Z M 200 495 L 200 495 Z M 200 495 C 168 495 142 506 120 528 C 98 550 87 576 87 608 C 87 640 98 667 120 689 C 142 711 168 722 200 722 C 232 722 259 711 281 689 C 303 667 314 640 314 608 C 314 576 303 550 281 528 C 259 506 232 495 200 495 Z M 200 547 C 216 547 230 553 241 565 C 252 577 258 591 258 608 C 258 625 252 639 241 651 C 230 663 216 669 200 669 C 184 669 170 663 159 651 C 147 639 142 625 142 608 C 142 591 147 577 159 565 C 170 553 184 547 200 547 Z" unicode="ů" />
<glyph horiz-adv-x="534" d="M 56 0 L 56 0 Z M 478 730 L 478 218 C 478 178 472 143 460 115 C 448 87 432 63 412 45 C 392 27 369 13 343 5 C 317 -2 289 -7 261 -7 C 233 -7 207 -2 182 5 C 157 13 135 26 117 44 C 98 62 83 85 72 114 C 61 142 56 177 56 218 L 56 730 L 153 730 L 153 216 C 153 166 163 130 185 110 C 206 89 233 79 265 79 C 295 79 322 88 344 108 C 366 128 378 164 378 216 L 378 730 L 478 730 Z M 265 792 L 265 792 Z M 100 792 L 163 951 L 261 951 L 181 792 L 100 792 Z M 269 792 L 333 951 L 431 951 L 350 792 L 269 792 Z" unicode="Ű" />
<glyph horiz-adv-x="402" d="M 35 0 L 35 0 Z M 39 436 L 131 436 L 131 141 C 131 114 137 95 149 83 C 161 71 177 65 198 65 C 216 65 233 71 248 84 C 262 97 270 123 270 161 L 270 436 L 361 436 L 361 0 L 273 0 L 273 51 C 266 33 253 19 234 9 C 215 0 192 -6 164 -6 C 129 -6 99 3 75 23 C 51 42 39 74 39 118 L 39 436 Z M 200 498 L 200 498 Z M 35 498 L 98 657 L 196 657 L 116 498 L 35 498 Z M 204 498 L 268 657 L 366 657 L 285 498 L 204 498 Z" unicode="ű" />
<glyph horiz-adv-x="534" d="M 56 0 L 56 0 Z M 478 730 L 478 218 C 478 178 472 143 460 115 C 448 87 432 63 412 45 C 392 27 369 13 343 5 C 317 -2 289 -7 261 -7 C 233 -7 207 -2 182 5 C 157 13 135 26 117 44 C 98 62 83 85 72 114 C 61 142 56 177 56 218 L 56 730 L 153 730 L 153 216 C 153 166 163 130 185 110 C 206 89 233 79 265 79 C 295 79 322 88 344 108 C 366 128 378 164 378 216 L 378 730 L 478 730 Z M 284 -9 L 284 -9 Z M 382 -96 L 408 -135 C 388 -155 366 -171 342 -182 C 318 -193 291 -199 263 -199 C 230 -199 204 -191 186 -177 C 168 -162 159 -143 159 -121 C 159 -96 166 -73 182 -52 C 198 -30 224 -12 260 4 L 339 4 C 313 -6 290 -20 269 -36 C 248 -52 238 -68 238 -84 C 238 -98 243 -109 253 -117 C 263 -125 277 -130 293 -130 C 311 -130 327 -126 343 -120 C 358 -114 371 -106 382 -96 Z" unicode="Ų" />
<glyph horiz-adv-x="402" d="M 39 0 L 39 0 Z M 39 436 L 131 436 L 131 141 C 131 114 137 95 149 83 C 161 71 177 65 198 65 C 216 65 233 71 248 84 C 262 97 270 123 270 161 L 270 436 L 361 436 L 361 0 L 273 0 L 273 51 C 266 33 253 19 234 9 C 215 0 192 -6 164 -6 C 129 -6 99 3 75 23 C 51 42 39 74 39 118 L 39 436 Z M 296 -9 L 296 -9 Z M 394 -96 L 420 -135 C 400 -155 378 -171 354 -182 C 330 -193 303 -199 275 -199 C 242 -199 216 -191 198 -177 C 180 -162 171 -143 171 -121 C 171 -96 178 -73 194 -52 C 210 -30 236 -12 272 4 L 351 4 C 325 -6 302 -20 281 -36 C 260 -52 250 -68 250 -84 C 250 -98 255 -109 265 -117 C 275 -125 289 -130 305 -130 C 323 -130 339 -126 355 -120 C 370 -114 383 -106 394 -96 Z" unicode="ų" />
<glyph horiz-adv-x="687" d="M 4 0 L 4 0 Z M 668 730 L 519 -3 L 450 -3 L 337 514 L 220 -3 L 152 -3 L 4 730 L 98 730 L 194 212 L 304 730 L 378 730 L 485 210 L 583 730 L 668 730 Z M 340 793 L 340 793 Z M 477 793 L 402 793 L 340 903 L 277 793 L 204 793 L 302 964 L 379 964 L 477 793 Z" unicode="Ŵ" />
<glyph horiz-adv-x="543" d="M 0 0 L 0 0 Z M 345 -2 L 270 251 L 197 -2 L 122 -2 L 0 436 L 88 436 L 168 132 L 240 392 L 308 392 L 380 132 L 464 436 L 542 436 L 418 -2 L 345 -2 Z M 271 499 L 271 499 Z M 408 499 L 333 499 L 271 609 L 208 499 L 135 499 L 233 670 L 310 670 L 408 499 Z" unicode="ŵ" />
<glyph horiz-adv-x="461" d="M 0 0 L 0 0 Z M 464 730 L 278 302 L 278 0 L 178 0 L 178 303 L -3 730 L 101 730 L 234 408 L 367 730 L 464 730 Z M 233 793 L 233 793 Z M 370 793 L 295 793 L 233 903 L 170 793 L 97 793 L 195 964 L 272 964 L 370 793 Z" unicode="Ŷ" />
<glyph horiz-adv-x="339" d="M 0 0 L 0 0 Z M 343 436 L 173 -109 C 163 -141 146 -164 124 -178 C 101 -192 75 -200 47 -200 C 34 -200 22 -198 12 -196 C 2 -193 -6 -190 -13 -186 L 16 -113 C 18 -114 23 -116 31 -118 C 39 -120 47 -122 55 -122 C 65 -122 75 -117 83 -109 C 91 -101 98 -88 103 -71 L 132 34 L -4 436 L 93 436 L 177 164 L 253 436 L 343 436 Z M 170 499 L 170 499 Z M 307 499 L 232 499 L 170 609 L 107 499 L 34 499 L 132 670 L 209 670 L 307 499 Z" unicode="ŷ" />
<glyph horiz-adv-x="461" d="M 0 0 L 0 0 Z M 464 730 L 278 302 L 278 0 L 178 0 L 178 303 L -3 730 L 101 730 L 234 408 L 367 730 L 464 730 Z M 233 793 L 233 793 Z M 345 793 L 271 793 L 271 951 L 345 951 L 345 793 Z M 195 793 L 121 793 L 121 951 L 195 951 L 195 793 Z" unicode="Ÿ" />
<glyph horiz-adv-x="419" d="M 15 0 L 15 0 Z M 393 730 L 393 679 L 136 90 L 405 90 L 405 0 L 15 0 L 15 49 L 277 638 L 43 638 L 43 730 L 393 730 Z M 218 792 L 218 792 Z M 123 792 L 208 964 L 313 964 L 211 792 L 123 792 Z" unicode="Ź" />
<glyph horiz-adv-x="322" d="M 11 0 L 11 0 Z M 305 436 L 305 391 L 130 78 L 311 78 L 311 0 L 11 0 L 11 38 L 196 358 L 23 358 L 23 436 L 305 436 Z M 164 498 L 164 498 Z M 69 498 L 154 670 L 259 670 L 157 498 L 69 498 Z" unicode="ź" />
<glyph horiz-adv-x="419" d="M 15 0 L 15 0 Z M 393 730 L 393 679 L 136 90 L 405 90 L 405 0 L 15 0 L 15 49 L 277 638 L 43 638 L 43 730 L 393 730 Z M 218 811 L 218 811 Z M 261 811 L 176 811 L 176 929 L 261 929 L 261 811 Z" unicode="Ż" />
<glyph horiz-adv-x="322" d="M 11 0 L 11 0 Z M 305 436 L 305 391 L 130 78 L 311 78 L 311 0 L 11 0 L 11 38 L 196 358 L 23 358 L 23 436 L 305 436 Z M 164 517 L 164 517 Z M 207 517 L 122 517 L 122 635 L 207 635 L 207 517 Z" unicode="ż" />
<glyph horiz-adv-x="419" d="M 15 0 L 15 0 Z M 393 730 L 393 679 L 136 90 L 405 90 L 405 0 L 15 0 L 15 49 L 277 638 L 43 638 L 43 730 L 393 730 Z M 218 793 L 218 793 Z M 82 964 L 157 964 L 219 853 L 282 964 L 355 964 L 257 793 L 180 793 L 82 964 Z" unicode="Ž" />
<glyph horiz-adv-x="322" d="M 11 0 L 11 0 Z M 305 436 L 305 391 L 130 78 L 311 78 L 311 0 L 11 0 L 11 38 L 196 358 L 23 358 L 23 436 L 305 436 Z M 164 499 L 164 499 Z M 28 670 L 103 670 L 165 559 L 228 670 L 301 670 L 203 499 L 126 499 L 28 670 Z" unicode="ž" />
<glyph horiz-adv-x="358" d="M 184 -60 C 181 -92 168 -119 145 -143 C 121 -167 92 -179 58 -179 C 40 -179 22 -177 6 -175 C -9 -172 -22 -169 -30 -165 L -21 -94 C -16 -94 -9 -96 0 -98 C 9 -100 18 -101 27 -101 C 47 -101 64 -94 80 -80 C 95 -66 104 -47 107 -23 L 139 334 L 43 334 L 43 407 L 145 407 L 165 628 C 168 664 182 692 207 712 C 231 731 256 741 282 741 C 295 741 308 740 321 739 C 334 738 342 737 345 737 L 338 656 C 336 656 332 657 326 658 C 320 658 314 659 308 659 C 289 659 273 652 261 640 C 249 627 242 607 240 581 L 225 407 L 329 407 L 329 334 L 218 334 L 184 -60 Z" unicode="ƒ" />
<glyph horiz-adv-x="411" d="M 18 0 L 18 0 Z M 206 -7 C 168 -7 133 0 102 13 C 70 26 42 49 18 82 L 70 147 C 86 122 105 103 128 91 C 151 78 175 72 199 72 C 224 72 246 81 266 101 C 286 121 296 147 296 181 C 296 215 288 243 272 265 C 256 287 226 313 182 343 C 138 371 102 401 75 433 C 48 464 35 508 35 564 C 35 590 39 614 49 636 C 59 657 72 675 88 690 C 104 705 123 717 145 725 C 167 733 190 737 214 737 C 253 737 286 730 313 718 C 339 705 360 690 375 674 L 324 606 C 312 618 296 628 277 637 C 258 645 238 650 218 650 C 195 650 175 642 157 626 C 139 610 131 588 131 558 C 131 529 139 505 153 487 C 167 468 197 444 243 416 C 295 382 333 348 356 312 C 379 276 391 232 391 182 C 391 151 385 124 375 100 C 364 76 350 57 333 41 C 316 25 296 13 274 5 C 252 -3 229 -7 206 -7 Z M 183 -71 L 183 -71 Z M 265 -71 C 265 -93 262 -117 256 -141 C 250 -165 242 -188 233 -210 C 224 -232 214 -253 203 -272 C 192 -291 181 -307 171 -319 L 100 -287 C 106 -277 113 -265 121 -249 C 129 -233 136 -216 143 -197 C 150 -178 156 -158 161 -136 C 165 -114 168 -92 169 -71 L 265 -71 Z" unicode="Ș" />
<glyph horiz-adv-x="306" d="M 17 0 L 17 0 Z M 162 -6 C 130 -6 101 0 76 12 C 51 24 31 39 17 57 L 59 118 C 71 102 87 90 105 81 C 123 71 140 67 156 67 C 168 67 181 71 193 80 C 205 88 212 101 212 119 C 212 133 205 146 191 158 C 177 170 155 183 126 198 C 96 214 72 231 54 251 C 36 270 28 297 28 331 C 28 361 40 387 65 409 C 90 430 119 441 152 441 C 180 441 205 436 226 428 C 246 419 264 409 278 398 L 230 341 C 223 347 213 352 199 358 C 185 363 171 366 159 366 C 143 366 131 362 121 355 C 111 348 106 338 106 326 C 106 313 112 302 124 292 C 136 282 157 270 188 254 C 223 235 248 216 264 198 C 280 179 288 152 288 118 C 288 98 284 80 276 65 C 268 49 258 36 246 26 C 234 15 220 7 205 2 C 190 -3 176 -6 162 -6 Z M 142 -71 L 142 -71 Z M 224 -71 C 224 -93 221 -117 215 -141 C 209 -165 201 -188 192 -210 C 183 -232 173 -253 162 -272 C 151 -291 140 -307 130 -319 L 59 -287 C 65 -277 72 -265 80 -249 C 88 -233 95 -216 102 -197 C 109 -178 115 -158 120 -136 C 124 -114 127 -92 128 -71 L 224 -71 Z" unicode="ș" />
<glyph horiz-adv-x="377" d="M 7 0 L 7 0 Z M 370 640 L 238 640 L 238 0 L 138 0 L 138 640 L 7 640 L 7 730 L 370 730 L 370 640 Z M 167 -70 L 167 -70 Z M 249 -70 C 249 -92 246 -116 240 -140 C 234 -164 226 -187 217 -209 C 208 -231 198 -252 187 -271 C 176 -290 165 -306 155 -318 L 84 -286 C 90 -276 97 -264 105 -248 C 113 -232 120 -215 127 -196 C 134 -177 140 -157 145 -135 C 149 -113 152 -91 153 -70 L 249 -70 Z" unicode="Ț" />
<glyph horiz-adv-x="221" d="M 13 0 L 13 0 Z M 201 82 L 219 15 C 213 10 205 5 195 1 C 184 -2 170 -5 153 -5 C 145 -5 135 -3 123 0 C 111 3 100 9 90 18 C 80 26 71 38 63 54 C 55 70 52 90 52 114 L 52 358 L 13 358 L 13 436 L 54 436 L 54 585 L 141 594 L 141 436 L 201 436 L 201 358 L 143 358 L 143 112 C 143 100 146 90 152 84 C 158 78 165 75 175 75 C 179 75 184 75 189 77 C 194 79 198 80 201 82 Z M 113 -70 L 113 -70 Z M 195 -70 C 195 -92 192 -116 186 -140 C 180 -164 172 -187 163 -209 C 154 -231 144 -252 133 -271 C 122 -290 111 -306 101 -318 L 30 -286 C 36 -276 43 -264 51 -248 C 59 -232 66 -215 73 -196 C 80 -177 86 -157 91 -135 C 95 -113 98 -91 99 -70 L 195 -70 Z" unicode="ț" />
<glyph horiz-adv-x="176" d="M 136 436 L 136 -102 C 136 -130 127 -153 111 -172 C 94 -191 71 -201 43 -201 C 31 -201 19 -199 7 -197 C -5 -195 -14 -192 -18 -190 L 1 -119 C 3 -119 6 -120 9 -121 C 12 -121 15 -122 19 -122 C 27 -122 33 -118 38 -112 C 43 -106 46 -97 46 -87 L 46 436 L 136 436 Z" unicode="ȷ" />
<glyph horiz-adv-x="500" d="M 387 499 L 312 499 L 250 609 L 187 499 L 114 499 L 212 670 L 289 670 L 387 499 Z" unicode="ˆ" />
<glyph horiz-adv-x="500" d="M 114 670 L 189 670 L 251 559 L 314 670 L 387 670 L 289 499 L 212 499 L 114 670 Z" unicode="ˇ" />
<glyph horiz-adv-x="500" d="M 306 661 L 382 661 C 378 605 365 565 341 540 C 317 515 286 503 250 503 C 213 503 183 515 159 540 C 135 565 121 605 119 661 L 195 661 C 196 632 200 610 208 594 C 216 578 230 571 250 571 C 270 571 284 578 292 593 C 300 608 304 631 306 661 Z" unicode="˘" />
<glyph horiz-adv-x="500" d="M 293 517 L 208 517 L 208 635 L 293 635 L 293 517 Z" unicode="˙" />
<glyph horiz-adv-x="500" d="M 250 495 C 218 495 192 506 170 528 C 148 550 137 576 137 608 C 137 640 148 667 170 689 C 192 711 218 722 250 722 C 282 722 309 711 331 689 C 353 667 364 640 364 608 C 364 576 353 550 331 528 C 309 506 282 495 250 495 Z M 250 547 C 266 547 280 553 291 565 C 302 577 308 591 308 608 C 308 625 302 639 291 651 C 280 663 266 669 250 669 C 234 669 220 663 209 651 C 197 639 192 625 192 608 C 192 591 197 577 209 565 C 220 553 234 547 250 547 Z" unicode="˚" />
<glyph horiz-adv-x="500" d="M 355 -87 L 381 -126 C 361 -146 339 -162 315 -173 C 291 -184 264 -190 236 -190 C 203 -190 177 -182 159 -168 C 141 -153 132 -134 132 -112 C 132 -87 139 -64 155 -43 C 171 -21 197 -3 233 13 L 312 13 C 286 2 263 -11 242 -27 C 221 -43 211 -59 211 -75 C 211 -89 216 -100 226 -108 C 236 -116 250 -121 266 -121 C 284 -121 300 -117 316 -111 C 331 -105 344 -97 355 -87 Z" unicode="˛" />
<glyph horiz-adv-x="500" d="M 337 643 L 405 643 C 405 596 398 561 385 539 C 372 516 355 505 335 505 C 317 505 302 508 290 516 C 278 523 267 530 258 538 C 249 544 240 551 231 558 C 221 565 212 569 202 569 C 193 569 185 564 179 554 C 173 544 169 528 169 508 L 102 508 C 102 554 109 588 125 611 C 141 634 158 646 177 646 C 194 646 209 642 221 634 C 233 626 244 618 254 610 C 262 603 271 596 279 590 C 287 583 295 580 304 580 C 312 580 320 585 327 596 C 333 606 337 622 337 643 Z" unicode="˜" />
<glyph horiz-adv-x="500" d="M 104 498 L 167 657 L 265 657 L 185 498 L 104 498 Z M 273 498 L 337 657 L 435 657 L 354 498 L 273 498 Z" unicode="˝" />
<glyph horiz-adv-x="0" d="M 0 498 L 0 498 Z M 95 498 L 7 498 L -95 670 L 10 670 L 95 498 Z" unicode="̀" />
<glyph horiz-adv-x="0" d="M 0 498 L 0 498 Z M -95 498 L -10 670 L 95 670 L -7 498 L -95 498 Z" unicode="́" />
<glyph horiz-adv-x="0" d="M 0 499 L 0 499 Z M 137 499 L 62 499 L 0 609 L -63 499 L -136 499 L -38 670 L 39 670 L 137 499 Z" unicode="̂" />
<glyph horiz-adv-x="0" d="M 0 505 L 0 505 Z M 84 643 L 152 643 C 152 596 145 561 132 539 C 119 516 102 505 82 505 C 64 505 49 508 37 516 C 25 523 14 530 5 538 C -3 544 -12 551 -22 558 C -31 565 -41 569 -51 569 C -59 569 -67 564 -73 554 C -79 544 -83 528 -84 508 L -151 508 C -151 554 -143 588 -127 611 C -111 634 -94 646 -76 646 C -58 646 -43 642 -31 634 C -19 626 -8 618 1 610 C 9 603 18 596 26 590 C 34 583 42 580 51 580 C 59 580 67 585 74 596 C 80 606 84 622 84 643 Z" unicode="̃" />
<glyph horiz-adv-x="0" d="M 0 523 L 0 523 Z M 121 523 L -121 523 L -121 591 L 121 591 L 121 523 Z" unicode="̄" />
<glyph horiz-adv-x="0" d="M 0 503 L 0 503 Z M 56 661 L 132 661 C 128 605 115 565 91 540 C 67 515 36 503 0 503 C -36 503 -67 515 -91 540 C -115 565 -128 605 -131 661 L -55 661 C -53 632 -49 610 -41 594 C -33 578 -20 571 0 571 C 20 571 34 578 42 593 C 50 608 54 631 56 661 Z" unicode="̆" />
<glyph horiz-adv-x="0" d="M 0 517 L 0 517 Z M 43 517 L -42 517 L -42 635 L 43 635 L 43 517 Z" unicode="̇" />
<glyph horiz-adv-x="0" d="M 0 499 L 0 499 Z M 112 499 L 38 499 L 38 657 L 112 657 L 112 499 Z M -38 499 L -112 499 L -112 657 L -38 657 L -38 499 Z" unicode="̈" />
<glyph horiz-adv-x="0" d="M 0 495 L 0 495 Z M 0 495 C -31 495 -58 506 -80 528 C -102 550 -113 576 -113 608 C -113 640 -102 667 -80 689 C -58 711 -31 722 0 722 C 32 722 59 711 81 689 C 103 667 114 640 114 608 C 114 576 103 550 81 528 C 59 506 32 495 0 495 Z M 0 547 C 16 547 30 553 41 565 C 52 577 58 591 58 608 C 58 625 52 639 41 651 C 30 663 16 669 0 669 C -16 669 -29 663 -41 651 C -52 639 -58 625 -58 608 C -58 591 -52 577 -41 565 C -29 553 -16 547 0 547 Z" unicode="̊" />
<glyph horiz-adv-x="0" d="M 0 498 L 0 498 Z M -165 498 L -102 657 L -4 657 L -84 498 L -165 498 Z M 4 498 L 68 657 L 166 657 L 85 498 L 4 498 Z" unicode="̋" />
<glyph horiz-adv-x="0" d="M 0 499 L 0 499 Z M -136 670 L -61 670 L 1 559 L 64 670 L 137 670 L 39 499 L -38 499 L -136 670 Z" unicode="̌" />
<glyph horiz-adv-x="0" d="M 0 -70 L 0 -70 Z M 82 -70 C 82 -92 79 -116 73 -140 C 67 -164 59 -187 50 -209 C 41 -231 31 -252 20 -271 C 9 -290 -1 -306 -12 -318 L -83 -286 C -76 -276 -69 -264 -61 -248 C -53 -232 -46 -215 -39 -196 C -32 -177 -26 -157 -22 -135 C -17 -113 -14 -91 -14 -70 L 82 -70 Z" unicode="̦" />
<glyph horiz-adv-x="0" d="M 0 0 L 0 0 Z M 6 -184 C -16 -184 -37 -181 -59 -175 C -81 -169 -98 -161 -111 -151 L -98 -114 C -89 -120 -77 -125 -63 -131 C -48 -137 -32 -140 -16 -140 C -2 -140 9 -136 19 -130 C 29 -124 34 -115 34 -104 C 34 -91 29 -82 21 -77 C 12 -72 3 -70 -7 -70 C -14 -70 -20 -70 -26 -71 C -31 -72 -37 -74 -44 -77 L -59 -61 L 0 13 L 51 13 L 3 -49 C 33 -42 59 -44 80 -56 C 100 -68 111 -85 111 -109 C 111 -133 100 -152 80 -165 C 59 -177 34 -184 6 -184 Z" unicode="̧" />
<glyph horiz-adv-x="0" d="M 0 0 L 0 0 Z M 98 -87 L 124 -126 C 104 -146 82 -162 58 -173 C 34 -184 7 -190 -21 -190 C -53 -190 -79 -182 -97 -168 C -115 -153 -125 -134 -125 -112 C -125 -87 -117 -64 -101 -43 C -85 -21 -60 -3 -24 13 L 55 13 C 29 2 6 -11 -14 -27 C -35 -43 -46 -59 -46 -75 C -46 -89 -40 -100 -30 -108 C -20 -116 -7 -121 9 -121 C 27 -121 43 -117 59 -111 C 74 -105 87 -97 98 -87 Z" unicode="̨" />
<glyph horiz-adv-x="563" d="M 1 0 L 1 0 Z M 550 0 L 1 0 L 262 730 L 290 730 L 550 0 Z M 433 70 L 273 562 L 115 70 L 433 70 Z" unicode="Δ" />
<glyph horiz-adv-x="724" d="M 25 0 L 25 0 Z M 34 0 L 34 85 L 241 85 L 241 153 C 208 161 178 175 151 194 C 124 213 101 236 83 262 C 65 288 50 316 40 348 C 30 379 25 411 25 445 C 25 487 32 526 47 563 C 61 599 83 631 111 658 C 139 685 173 706 214 722 C 254 738 300 746 352 746 C 405 746 453 738 495 722 C 537 706 572 684 600 657 C 628 630 650 598 665 562 C 680 525 688 486 688 445 C 688 411 683 379 674 348 C 665 316 652 288 634 262 C 616 236 593 214 566 195 C 538 176 507 162 471 153 L 471 85 L 678 85 L 678 0 L 404 0 L 404 203 C 434 211 460 223 483 239 C 505 255 524 274 540 295 C 555 316 566 339 574 364 C 582 389 586 414 586 440 C 586 473 580 504 569 532 C 557 560 542 584 522 604 C 502 624 477 639 448 651 C 419 662 387 668 353 668 C 285 668 231 646 189 603 C 147 560 126 505 126 438 C 126 413 129 389 137 365 C 145 341 156 318 171 297 C 186 276 205 257 228 241 C 251 224 278 211 309 203 L 309 0 L 34 0 Z" unicode="Ω" />
<glyph horiz-adv-x="589" d="M 69 0 L 69 0 Z M 69 -106 L 69 476 L 161 476 L 161 159 C 161 129 173 106 199 90 C 224 74 252 66 283 66 C 299 66 316 68 333 73 C 350 78 365 85 379 95 C 392 105 403 117 411 132 C 419 146 424 163 424 183 L 424 476 L 515 476 L 515 0 L 431 0 L 431 99 C 420 70 399 46 368 26 C 336 6 304 -4 270 -6 C 245 -6 222 -2 200 8 C 178 18 162 32 154 51 L 154 -106 L 69 -106 Z" unicode="μ" />
<glyph horiz-adv-x="529" d="M 174 404 L 174 0 L 83 0 L 83 404 L 15 404 L 15 476 L 514 476 L 514 404 L 442 404 L 442 0 L 350 0 L 350 404 L 174 404 Z" unicode="π" />
<glyph horiz-adv-x="687" d="M 4 0 L 4 0 Z M 668 730 L 519 -3 L 450 -3 L 337 514 L 220 -3 L 152 -3 L 4 730 L 98 730 L 194 212 L 304 730 L 378 730 L 485 210 L 583 730 L 668 730 Z M 340 792 L 340 792 Z M 435 792 L 347 792 L 245 964 L 350 964 L 435 792 Z" unicode="Ẁ" />
<glyph horiz-adv-x="543" d="M 0 0 L 0 0 Z M 345 -2 L 270 251 L 197 -2 L 122 -2 L 0 436 L 88 436 L 168 132 L 240 392 L 308 392 L 380 132 L 464 436 L 542 436 L 418 -2 L 345 -2 Z M 271 498 L 271 498 Z M 366 498 L 278 498 L 176 670 L 281 670 L 366 498 Z" unicode="ẁ" />
<glyph horiz-adv-x="687" d="M 4 0 L 4 0 Z M 668 730 L 519 -3 L 450 -3 L 337 514 L 220 -3 L 152 -3 L 4 730 L 98 730 L 194 212 L 304 730 L 378 730 L 485 210 L 583 730 L 668 730 Z M 340 792 L 340 792 Z M 245 792 L 330 964 L 435 964 L 333 792 L 245 792 Z" unicode="Ẃ" />
<glyph horiz-adv-x="543" d="M 0 0 L 0 0 Z M 345 -2 L 270 251 L 197 -2 L 122 -2 L 0 436 L 88 436 L 168 132 L 240 392 L 308 392 L 380 132 L 464 436 L 542 436 L 418 -2 L 345 -2 Z M 271 498 L 271 498 Z M 176 498 L 261 670 L 366 670 L 264 498 L 176 498 Z" unicode="ẃ" />
<glyph horiz-adv-x="687" d="M 4 0 L 4 0 Z M 668 730 L 519 -3 L 450 -3 L 337 514 L 220 -3 L 152 -3 L 4 730 L 98 730 L 194 212 L 304 730 L 378 730 L 485 210 L 583 730 L 668 730 Z M 340 793 L 340 793 Z M 452 793 L 378 793 L 378 951 L 452 951 L 452 793 Z M 302 793 L 228 793 L 228 951 L 302 951 L 302 793 Z" unicode="Ẅ" />
<glyph horiz-adv-x="543" d="M 0 0 L 0 0 Z M 345 -2 L 270 251 L 197 -2 L 122 -2 L 0 436 L 88 436 L 168 132 L 240 392 L 308 392 L 380 132 L 464 436 L 542 436 L 418 -2 L 345 -2 Z M 271 499 L 271 499 Z M 383 499 L 309 499 L 309 657 L 383 657 L 383 499 Z M 233 499 L 159 499 L 159 657 L 233 657 L 233 499 Z" unicode="ẅ" />
<glyph horiz-adv-x="461" d="M 0 0 L 0 0 Z M 464 730 L 278 302 L 278 0 L 178 0 L 178 303 L -3 730 L 101 730 L 234 408 L 367 730 L 464 730 Z M 233 792 L 233 792 Z M 328 792 L 240 792 L 138 964 L 243 964 L 328 792 Z" unicode="Ỳ" />
<glyph horiz-adv-x="339" d="M 0 0 L 0 0 Z M 343 436 L 173 -109 C 163 -141 146 -164 124 -178 C 101 -192 75 -200 47 -200 C 34 -200 22 -198 12 -196 C 2 -193 -6 -190 -13 -186 L 16 -113 C 18 -114 23 -116 31 -118 C 39 -120 47 -122 55 -122 C 65 -122 75 -117 83 -109 C 91 -101 98 -88 103 -71 L 132 34 L -4 436 L 93 436 L 177 164 L 253 436 L 343 436 Z M 170 498 L 170 498 Z M 265 498 L 177 498 L 75 670 L 180 670 L 265 498 Z" unicode="ỳ" />
<glyph horiz-adv-x="460" d="M 420 210 L 41 210 L 41 290 L 420 290 L 420 210 Z" unicode="–" />
<glyph horiz-adv-x="645" d="M 605 210 L 41 210 L 41 290 L 605 290 L 605 210 Z" unicode="—" />
<glyph horiz-adv-x="229" d="M 40 507 L 40 514 C 40 558 46 597 58 633 C 70 669 91 703 120 737 L 207 731 C 187 707 170 677 155 642 C 140 607 133 565 133 515 L 133 507 L 40 507 Z" unicode="‘" />
<glyph horiz-adv-x="229" d="M 189 737 L 189 730 C 189 686 182 647 170 611 C 158 575 137 540 109 507 L 22 513 C 41 537 58 567 73 602 C 88 637 96 679 96 729 L 96 737 L 189 737 Z" unicode="’" />
<glyph horiz-adv-x="231" d="M 188 112 L 188 105 C 188 61 181 22 169 -13 C 157 -49 136 -84 108 -118 L 21 -112 C 40 -88 57 -58 72 -23 C 87 12 95 54 95 104 L 95 112 L 188 112 Z" unicode="‚" />
<glyph horiz-adv-x="377" d="M 196 507 L 196 514 C 196 550 203 587 218 624 C 233 660 257 698 290 737 L 370 731 C 361 722 351 710 341 696 C 330 682 320 665 312 647 C 303 628 296 607 290 585 C 284 563 281 539 281 515 L 281 507 L 196 507 Z M 43 507 L 43 514 C 43 550 50 587 66 624 C 81 660 104 698 136 737 L 216 731 C 207 722 197 710 187 696 C 177 682 167 665 159 647 C 150 628 143 607 137 585 C 131 563 128 539 128 515 L 128 507 L 43 507 Z" unicode="“" />
<glyph horiz-adv-x="377" d="M 182 737 L 182 730 C 182 686 175 647 162 611 C 149 575 129 541 101 507 L 21 513 C 42 537 60 567 75 602 C 89 637 97 679 97 729 L 97 737 L 182 737 Z M 336 737 L 336 730 C 336 686 329 647 315 611 C 301 575 281 541 255 507 L 175 513 C 195 537 213 567 228 602 C 243 637 251 679 251 729 L 251 737 L 336 737 Z" unicode="”" />
<glyph horiz-adv-x="381" d="M 181 112 L 181 105 C 181 61 174 22 162 -13 C 149 -49 129 -84 101 -118 L 21 -112 C 42 -87 60 -57 74 -22 C 88 12 96 54 96 104 L 96 112 L 181 112 Z M 338 112 L 338 105 C 338 61 331 22 318 -13 C 305 -49 285 -84 259 -118 L 179 -112 C 199 -87 216 -57 231 -22 C 245 12 253 54 253 104 L 253 112 L 338 112 Z" unicode="„" />
<glyph horiz-adv-x="411" d="M 393 379 L 251 379 L 251 -179 L 154 -179 L 154 379 L 18 379 L 18 470 L 154 470 L 154 730 L 251 730 L 251 470 L 393 470 L 393 379 Z" unicode="†" />
<glyph horiz-adv-x="419" d="M 159 -179 L 159 103 L 27 103 L 27 194 L 159 194 L 159 374 L 27 374 L 27 465 L 159 465 L 159 730 L 255 730 L 255 465 L 393 465 L 393 374 L 255 374 L 255 194 L 393 194 L 393 103 L 255 103 L 255 -179 L 159 -179 Z" unicode="‡" />
<glyph horiz-adv-x="382" d="M 191 465 C 215 465 235 456 252 440 C 268 423 277 403 277 379 C 277 355 268 334 252 318 C 235 302 215 294 191 294 C 167 294 146 302 130 318 C 114 334 106 355 106 379 C 106 403 114 423 130 440 C 146 456 167 465 191 465 Z" unicode="•" />
<glyph horiz-adv-x="622" d="M 57 0 L 57 125 L 151 125 L 151 0 L 57 0 Z M 264 0 L 264 125 L 358 125 L 358 0 L 264 0 Z M 471 0 L 471 125 L 566 125 L 566 0 L 471 0 Z" unicode="…" />
<glyph horiz-adv-x="982" d="M 168 363 C 152 363 136 366 120 374 C 104 382 89 393 77 409 C 64 425 54 444 46 468 C 38 492 35 519 35 551 C 35 604 47 649 72 685 C 97 721 129 740 167 740 C 187 740 206 735 223 725 C 240 715 254 701 266 685 C 278 668 287 648 294 626 C 300 603 304 579 304 554 C 304 527 300 502 293 479 C 286 455 277 435 265 418 C 253 400 238 387 222 377 C 205 367 187 363 168 363 Z M 87 0 L 504 730 L 572 730 L 155 0 L 87 0 Z M 116 551 C 116 537 116 523 118 509 C 120 495 123 482 127 472 C 131 461 136 452 143 445 C 149 438 158 435 168 435 C 178 435 187 438 195 445 C 202 451 208 460 212 471 C 216 482 218 495 220 509 C 222 523 223 537 223 551 C 223 565 222 579 220 593 C 218 607 215 619 211 631 C 207 642 201 651 195 658 C 188 665 180 669 170 669 C 149 669 135 656 127 632 C 119 607 116 580 116 551 Z M 505 -3 C 488 -3 471 0 455 8 C 439 16 424 27 412 43 C 399 59 389 78 381 102 C 373 126 369 153 369 185 C 369 238 381 283 407 319 C 433 355 466 374 507 374 C 527 374 546 369 563 359 C 580 349 594 335 606 319 C 617 302 626 282 632 260 C 638 237 642 213 642 188 C 642 161 638 136 632 113 C 625 89 616 69 604 52 C 592 34 577 21 561 11 C 544 1 525 -3 505 -3 Z M 809 -3 C 792 -3 776 0 760 8 C 744 16 729 27 717 43 C 704 59 694 78 686 102 C 678 126 674 153 674 185 C 674 238 686 283 712 319 C 738 355 771 374 811 374 C 831 374 850 369 867 359 C 884 349 898 335 910 319 C 921 302 930 282 936 260 C 942 237 946 213 946 188 C 946 161 942 136 936 113 C 929 89 920 69 908 52 C 896 34 881 21 865 11 C 848 1 829 -3 809 -3 Z M 504 69 C 525 69 540 81 549 105 C 557 129 562 155 562 185 C 562 199 561 214 559 228 C 557 242 553 254 549 265 C 544 276 538 285 531 292 C 524 299 516 303 506 303 C 487 303 473 290 464 266 C 454 242 450 215 450 185 C 450 155 454 129 462 105 C 470 81 484 69 504 69 Z M 808 69 C 830 69 845 81 853 105 C 861 129 866 155 866 185 C 866 199 865 214 863 228 C 861 242 857 254 853 265 C 849 276 843 285 836 292 C 828 299 820 303 810 303 C 790 303 776 290 767 266 C 758 242 754 215 754 185 C 754 155 758 129 766 105 C 774 81 788 69 808 69 Z" unicode="‰" />
<glyph horiz-adv-x="238" d="M 209 82 L 28 250 L 28 303 L 209 469 L 209 379 L 108 274 L 209 175 L 209 82 Z" unicode="‹" />
<glyph horiz-adv-x="239" d="M 29 469 L 212 300 L 212 248 L 29 82 L 29 171 L 130 276 L 29 375 L 29 469 Z" unicode="›" />
<glyph horiz-adv-x="145" d="M 303 730 L -64 0 L -145 0 L 222 730 L 303 730 Z" unicode="⁄" />
<glyph horiz-adv-x="327" d="M 15 455 L 15 511 L 201 738 L 254 738 L 254 514 L 315 514 L 315 455 L 254 455 L 254 373 L 178 373 L 178 455 L 15 455 Z M 92 512 L 180 512 L 180 623 L 92 512 Z" unicode="⁴" />
<glyph horiz-adv-x="471" d="M 452 116 C 436 78 412 48 381 24 C 349 0 315 -12 277 -12 C 227 -12 183 11 147 59 C 110 107 86 172 75 256 L 26 256 L 26 330 L 69 330 C 68 334 68 339 68 345 C 68 351 68 356 68 362 C 68 366 68 371 68 375 C 68 379 68 384 68 389 L 26 389 L 26 463 L 74 463 C 78 503 86 541 98 575 C 109 609 123 639 140 663 C 157 687 177 707 200 721 C 222 735 248 742 276 742 C 323 742 360 730 387 707 C 413 683 433 656 446 626 L 382 578 C 371 596 358 614 343 631 C 327 648 306 657 280 657 C 250 657 224 640 203 607 C 182 573 168 525 161 463 L 422 463 L 422 389 L 155 389 C 155 384 155 379 155 375 C 155 371 155 366 155 362 C 155 356 155 351 155 345 C 155 339 155 334 156 330 L 422 330 L 422 256 L 162 256 C 170 193 186 146 209 116 C 231 86 256 71 283 71 C 309 71 331 80 348 99 C 365 118 379 140 390 166 L 452 116 Z" unicode="€" />
<glyph horiz-adv-x="863" d="M 814 321 L 731 321 L 731 594 L 605 398 L 579 398 L 454 593 L 454 321 L 374 321 L 374 730 L 459 730 L 592 522 L 725 730 L 814 730 L 814 321 Z M 345 641 L 229 641 L 229 321 L 141 321 L 141 641 L 20 641 L 20 730 L 345 730 L 345 641 Z" unicode="™" />
<glyph horiz-adv-x="713" d="M 34 0 L 34 85 L 241 85 L 241 153 C 208 161 178 175 151 194 C 124 213 101 236 83 262 C 65 288 50 316 40 348 C 30 379 25 411 25 445 C 25 487 32 526 47 563 C 61 599 83 631 111 658 C 139 685 173 706 214 722 C 254 738 300 746 352 746 C 405 746 453 738 495 722 C 537 706 572 684 600 657 C 628 630 650 598 665 562 C 680 525 688 486 688 445 C 688 411 683 379 674 348 C 665 316 652 288 634 262 C 616 236 593 214 566 195 C 538 176 507 162 471 153 L 471 85 L 678 85 L 678 0 L 404 0 L 404 203 C 434 211 460 223 483 239 C 505 255 524 274 540 295 C 555 316 566 339 574 364 C 582 389 586 414 586 440 C 586 473 580 504 569 532 C 557 560 542 584 522 604 C 502 624 477 639 448 651 C 419 662 387 668 353 668 C 285 668 231 646 189 603 C 147 560 126 505 126 438 C 126 413 129 389 137 365 C 145 341 156 318 171 297 C 186 276 205 257 228 241 C 251 224 278 211 309 203 L 309 0 L 34 0 Z" unicode="Ω" />
<glyph horiz-adv-x="453" d="M 413 277 C 413 226 408 183 398 147 C 388 111 374 81 357 59 C 340 36 320 19 297 9 C 273 -1 248 -7 222 -7 C 197 -7 173 -2 149 7 C 125 16 105 30 87 49 C 69 67 55 91 44 119 C 33 147 28 179 28 216 C 28 250 32 282 42 310 C 51 338 64 362 80 382 C 96 402 115 417 137 428 C 159 439 182 445 207 445 C 237 445 264 437 286 422 C 308 406 325 386 337 360 C 330 426 318 484 301 533 C 283 581 264 621 242 653 C 220 684 198 707 175 723 C 151 738 130 746 111 748 L 150 802 C 170 802 196 792 226 772 C 256 752 284 722 312 680 C 340 638 363 584 383 517 C 403 450 413 370 413 277 Z M 220 59 C 252 59 276 73 292 102 C 308 130 317 171 317 223 C 317 271 308 309 292 336 C 276 363 251 377 219 377 C 189 377 165 363 149 336 C 132 308 124 269 124 218 C 124 164 132 124 149 98 C 165 72 189 59 220 59 Z" unicode="∂" />
<glyph horiz-adv-x="551" d="M 550 0 L 1 0 L 262 730 L 290 730 L 550 0 Z M 433 70 L 273 562 L 115 70 L 433 70 Z" unicode="∆" />
<glyph horiz-adv-x="643" d="M 214 647 L 214 0 L 119 0 L 119 647 L 15 647 L 15 730 L 628 730 L 628 647 L 530 647 L 530 0 L 434 0 L 434 647 L 214 647 Z" unicode="∏" />
<glyph horiz-adv-x="532" d="M 171 647 L 382 307 L 138 -96 L 503 -96 L 503 -179 L -15 -179 L 289 306 L 15 730 L 482 730 L 482 647 L 171 647 Z" unicode="∑" />
<glyph horiz-adv-x="514" d="M 474 294 L 41 294 L 41 369 L 474 369 L 474 294 Z" unicode="−" />
<glyph horiz-adv-x="510" d="M 502 730 L 198 0 L 186 0 L 13 329 L 79 378 L 203 130 L 443 730 L 502 730 Z" unicode="√" />
<glyph horiz-adv-x="338" d="M 107 -27 L 165 628 C 168 664 182 692 207 712 C 231 731 256 741 282 741 C 295 741 308 740 321 739 C 334 738 342 737 345 737 L 338 656 C 336 656 332 657 326 658 C 320 658 314 659 308 659 C 289 659 273 652 261 640 C 249 627 242 607 240 581 L 184 -60 C 181 -92 168 -120 145 -144 C 121 -168 92 -179 58 -179 C 39 -179 22 -177 6 -173 C -10 -169 -22 -165 -30 -161 L -20 -96 C -16 -96 -9 -98 0 -101 C 9 -103 18 -105 27 -105 C 47 -105 64 -98 80 -84 C 95 -70 104 -51 107 -27 Z" unicode="∫" />
<glyph horiz-adv-x="471" d="M 358 499 L 448 499 C 447 451 439 412 423 382 C 407 352 382 337 350 337 C 328 337 310 341 294 349 C 278 357 265 367 253 378 C 240 388 227 398 215 406 C 202 414 188 418 174 418 C 161 418 148 410 135 396 C 122 382 116 363 116 340 L 37 340 C 37 390 46 429 66 457 C 85 485 110 500 141 500 C 161 500 179 495 195 487 C 211 478 225 469 238 460 C 249 452 260 444 272 437 C 284 430 296 427 309 427 C 326 427 338 432 346 444 C 354 456 358 474 358 499 Z M 360 322 L 448 322 C 447 274 438 235 422 205 C 405 175 380 161 346 161 C 323 161 303 165 287 173 C 271 181 257 191 246 201 C 234 211 222 219 210 227 C 198 234 186 238 174 238 C 161 238 149 231 137 218 C 125 204 119 186 119 164 L 37 164 C 37 213 46 252 66 281 C 86 309 113 324 147 324 C 169 324 189 319 206 310 C 223 301 237 292 249 282 C 259 273 270 265 281 259 C 291 252 303 249 315 249 C 331 249 343 255 350 267 C 356 279 360 297 360 322 Z" unicode="≈" />
<glyph horiz-adv-x="500" d="M 457 175 L 228 175 L 176 66 L 111 93 L 150 175 L 65 175 L 65 254 L 187 254 L 251 388 L 65 388 L 65 466 L 288 466 L 341 578 L 407 551 L 367 466 L 457 466 L 457 388 L 329 388 L 266 254 L 457 254 L 457 175 Z" unicode="≠" />
<glyph horiz-adv-x="500" d="M 62 295 L 62 355 L 433 558 L 433 471 L 152 327 L 433 181 L 433 93 L 62 295 Z M 61 84 L 433 84 L 433 14 L 61 14 L 61 84 Z" unicode="≤" />
<glyph horiz-adv-x="500" d="M 432 295 L 61 93 L 61 180 L 342 327 L 61 471 L 61 558 L 432 355 L 432 295 Z M 433 84 L 433 14 L 61 14 L 61 84 L 433 84 Z" unicode="≥" />
<glyph horiz-adv-x="533" d="M 504 326 L 272 -16 L 261 -16 L 30 326 L 30 337 L 261 678 L 272 678 L 504 337 L 504 326 Z M 417 327 L 417 336 L 271 556 L 263 556 L 117 336 L 117 327 L 263 106 L 271 106 L 417 327 Z" unicode="◊" />
<glyph horiz-adv-x="730" d="M 448 678 L 282 678 L 282 730 L 448 730 L 448 678 Z M 659 282 L 605 282 L 605 448 L 659 448 L 659 282 Z M 125 282 L 71 282 L 71 448 L 125 448 L 125 282 Z M 428 302 L 302 302 L 302 428 L 428 428 L 428 302 Z M 448 0 L 282 0 L 282 53 L 448 53 L 448 0 Z" unicode="" />
<glyph horiz-adv-x="410" d="M 217 358 L 152 358 L 152 0 L 61 0 L 61 358 L 17 358 L 17 436 L 61 436 L 61 639 C 61 661 65 682 73 701 C 81 720 91 736 104 750 C 116 763 131 773 147 781 C 163 789 179 793 195 793 C 215 793 234 790 251 786 C 267 781 279 776 286 771 L 263 698 C 258 700 250 702 240 706 C 230 709 220 711 212 711 C 196 711 181 703 169 688 C 157 672 151 649 151 618 L 151 436 L 217 436 L 217 358 Z M 368 533 L 273 533 L 273 618 L 368 618 L 368 533 Z M 366 0 L 275 0 L 275 436 L 366 436 L 366 0 Z" unicode="ﬁ" />
<glyph horiz-adv-x="406" d="M 152 358 L 152 0 L 61 0 L 61 358 L 17 358 L 17 436 L 61 436 L 61 639 C 61 661 65 682 73 701 C 81 720 91 736 104 750 C 116 763 131 773 147 781 C 163 788 179 792 195 792 C 211 792 227 790 241 788 C 255 785 266 781 275 777 L 275 790 L 366 790 L 366 0 L 275 0 L 275 736 L 263 697 C 258 699 250 702 240 705 C 230 708 220 710 212 710 C 196 710 181 702 169 687 C 157 671 151 648 151 618 L 151 436 L 217 436 L 217 358 L 152 358 Z" unicode="ﬂ" />
</font>
</defs>
</svg>
