<?xml version="1.0" encoding="utf-8" ?><svg version="1.1" xmlns = 'http://www.w3.org/2000/svg'><defs><font id='web' horiz-adv-x="1000">
<font-face font-family="web" descent="-200" cap-height="730" units-per-em="1000" bbox="-205,-328,1058,1020" x-height="436" ascent="800" />
<missing-glyph horiz-adv-x="500" d="" /><glyph horiz-adv-x="209" d="" unicode=" " />
<glyph horiz-adv-x="268" d="M 208 431 L 167 224 L 107 224 L 68 431 L 68 730 L 208 730 L 208 431 Z M 202 0 L 75 0 L 75 134 L 202 134 L 202 0 Z" unicode="!" />
<glyph horiz-adv-x="412" d="M 361 624 L 353 478 L 255 478 L 250 623 L 250 730 L 361 730 L 361 624 Z M 162 623 L 157 478 L 57 478 L 51 623 L 51 730 L 162 730 L 162 623 Z" unicode="&#x22;" />
<glyph horiz-adv-x="601" d="M 345 0 L 363 203 L 219 203 L 201 0 L 125 0 L 143 203 L 34 203 L 34 308 L 152 308 L 162 419 L 51 419 L 51 524 L 171 524 L 189 729 L 265 729 L 247 524 L 391 524 L 409 729 L 483 729 L 465 524 L 567 524 L 567 419 L 456 419 L 446 308 L 550 308 L 550 203 L 437 203 L 419 0 L 345 0 Z M 228 308 L 372 308 L 382 419 L 238 419 L 228 308 Z" unicode="#" />
<glyph horiz-adv-x="513" d="M 481 194 C 481 142 463 99 428 65 C 393 31 349 10 296 3 L 296 -124 L 218 -124 L 218 1 C 176 4 139 13 106 28 C 72 42 44 61 22 84 L 78 172 C 98 151 126 134 160 121 C 194 107 227 101 257 101 C 287 101 313 109 335 126 C 357 142 369 165 369 195 C 369 208 367 220 363 231 C 359 241 352 252 341 262 C 330 272 315 282 296 293 C 276 303 251 316 220 330 C 159 356 114 387 84 421 C 54 455 40 498 40 550 C 40 596 56 635 90 668 C 123 701 166 721 218 728 L 218 790 L 296 790 L 296 729 C 327 725 357 717 385 705 C 413 692 438 675 460 655 L 395 572 C 374 591 351 605 326 615 C 300 625 276 630 254 630 C 225 630 201 622 182 608 C 163 593 154 573 154 549 C 154 523 163 502 183 486 C 203 469 241 447 298 420 C 363 388 410 357 438 325 C 466 293 481 250 481 194 Z" unicode="$" />
<glyph horiz-adv-x="747" d="M 192 363 C 174 363 155 366 137 374 C 119 382 102 393 87 409 C 72 425 60 444 51 468 C 41 492 37 519 37 551 C 37 577 41 601 49 624 C 57 647 68 667 82 684 C 96 701 112 715 130 725 C 148 735 168 740 189 740 C 211 740 232 735 252 725 C 271 715 288 701 302 685 C 316 668 326 648 334 626 C 342 603 346 579 346 554 C 346 527 341 502 333 479 C 325 455 314 435 300 418 C 286 400 270 387 251 377 C 232 367 212 363 192 363 Z M 202 0 L 122 0 L 536 730 L 615 730 L 202 0 Z M 191 451 C 210 451 224 460 233 479 C 241 498 246 522 246 551 C 246 578 242 601 234 621 C 226 641 212 651 193 651 C 174 651 160 641 152 621 C 144 601 140 578 140 551 C 140 521 144 497 153 479 C 161 460 174 451 191 451 Z M 556 -3 C 537 -3 518 0 500 8 C 482 16 465 27 451 43 C 436 59 424 78 415 102 C 406 126 402 153 402 185 C 402 211 406 236 414 259 C 422 282 433 302 447 319 C 461 336 477 349 496 359 C 515 369 536 374 559 374 C 582 374 603 369 622 359 C 641 349 657 335 671 319 C 684 302 694 282 702 260 C 709 237 713 213 713 188 C 713 161 709 136 701 113 C 693 89 682 69 668 52 C 654 34 638 21 619 11 C 599 1 578 -3 556 -3 Z M 556 86 C 575 86 589 95 599 113 C 608 131 613 155 613 185 C 613 213 608 237 599 256 C 590 275 576 285 557 285 C 541 285 528 275 519 256 C 509 237 505 213 505 185 C 505 154 509 130 519 112 C 528 94 540 86 556 86 Z" unicode="%" />
<glyph horiz-adv-x="692" d="M 599 -5 L 518 77 C 483 49 446 28 406 14 C 366 0 324 -8 279 -8 C 201 -8 139 9 93 44 C 46 78 23 126 23 188 C 23 217 27 242 37 264 C 46 286 58 305 74 322 C 90 338 108 353 129 367 C 149 381 171 394 194 407 L 193 408 C 184 416 175 427 165 439 C 155 451 145 464 137 478 C 128 492 121 507 115 524 C 109 541 106 559 106 578 C 106 598 110 618 120 637 C 129 656 142 673 159 688 C 175 702 196 714 220 723 C 244 732 270 737 300 737 C 327 737 352 732 376 724 C 400 716 420 705 437 691 C 453 677 466 660 476 642 C 485 624 490 604 490 584 C 490 544 478 509 455 480 C 431 450 399 421 357 393 L 526 230 C 536 244 547 258 558 274 C 568 290 579 306 589 323 L 673 262 C 661 243 649 225 637 207 C 625 189 612 173 600 158 L 681 80 L 599 -5 Z M 283 465 L 287 461 C 317 481 340 499 355 517 C 369 535 377 553 377 572 C 377 591 370 608 358 624 C 345 640 326 648 301 648 C 277 648 258 640 245 624 C 231 608 225 592 225 575 C 225 557 230 538 240 519 C 250 500 265 482 283 465 Z M 158 190 C 158 159 170 135 196 117 C 221 99 251 91 286 91 C 315 91 343 96 370 106 C 396 116 422 131 446 150 L 265 335 C 230 312 203 290 185 269 C 167 247 158 221 158 190 Z" unicode="&#x26;" />
<glyph horiz-adv-x="214" d="M 164 621 L 158 473 L 56 473 L 51 621 L 51 730 L 164 730 L 164 621 Z" unicode="'" />
<glyph horiz-adv-x="314" d="M 299 -82 L 299 -179 C 264 -162 230 -139 197 -110 C 163 -80 134 -46 108 -6 C 82 34 61 79 45 129 C 29 179 22 234 22 293 C 22 351 29 405 45 455 C 60 505 80 549 106 587 C 131 625 160 658 194 686 C 228 713 263 734 299 749 L 299 654 C 258 629 223 587 194 529 C 165 470 150 391 150 292 C 150 204 163 129 189 65 C 215 1 252 -47 299 -82 Z" unicode="(" />
<glyph horiz-adv-x="314" d="M 14 653 L 14 749 C 49 735 83 715 117 689 C 150 662 179 629 205 590 C 231 551 251 506 267 455 C 283 404 291 348 291 286 C 291 227 283 173 267 123 C 251 73 230 28 204 -11 C 178 -50 148 -84 115 -112 C 81 -140 48 -163 14 -179 L 14 -79 C 60 -46 97 0 127 62 C 156 123 171 198 171 286 C 171 336 166 382 158 423 C 150 463 138 498 124 528 C 110 558 93 583 74 604 C 55 624 35 641 14 653 Z" unicode=")" />
<glyph horiz-adv-x="391" d="M 362 583 L 243 550 L 329 465 L 266 412 L 198 517 L 130 413 L 64 464 L 153 551 L 29 579 L 67 663 L 170 604 L 153 730 L 242 730 L 224 604 L 330 661 L 362 583 Z" unicode="*" />
<glyph horiz-adv-x="500" d="M 468 285 L 298 285 L 298 117 L 201 117 L 201 285 L 32 285 L 32 377 L 201 377 L 201 545 L 298 545 L 298 377 L 468 377 L 468 285 Z" unicode="+" />
<glyph horiz-adv-x="240" d="M 209 113 C 207 90 203 65 195 39 C 187 13 178 -12 167 -36 C 156 -60 144 -81 131 -101 C 118 -121 106 -135 95 -145 L 5 -105 C 13 -95 21 -83 29 -67 C 37 -51 45 -33 53 -14 C 61 5 67 26 73 48 C 79 70 83 91 85 113 L 209 113 Z" unicode="," />
<glyph horiz-adv-x="344" d="M 304 212 L 41 212 L 41 321 L 304 321 L 304 212 Z" unicode="-" />
<glyph horiz-adv-x="242" d="M 185 0 L 58 0 L 58 140 L 185 140 L 185 0 Z" unicode="." />
<glyph horiz-adv-x="331" d="M 332 730 L 109 0 L -1 0 L 224 730 L 332 730 Z" unicode="/" />
<glyph horiz-adv-x="534" d="M 264 -10 C 195 -10 139 19 96 79 C 53 138 32 232 32 361 C 32 415 36 465 46 512 C 55 558 69 598 89 632 C 108 666 133 692 163 712 C 193 731 228 741 269 741 C 310 741 345 731 375 713 C 405 695 429 669 448 637 C 466 604 480 565 489 519 C 497 473 502 424 502 370 C 502 312 497 259 487 212 C 477 164 463 124 443 92 C 423 59 399 34 369 16 C 339 -1 304 -10 264 -10 Z M 265 93 C 305 93 334 115 352 161 C 370 206 379 272 379 359 C 379 447 370 515 354 563 C 337 611 308 635 267 635 C 227 635 199 612 181 567 C 163 521 155 453 155 362 C 155 270 164 203 182 159 C 200 115 228 93 265 93 Z" unicode="0" />
<glyph horiz-adv-x="355" d="M 286 0 L 161 0 L 161 552 C 154 543 145 535 135 527 C 124 519 113 513 101 507 C 89 501 77 497 65 493 C 53 489 42 486 33 486 L 33 609 C 63 610 91 622 119 646 C 146 669 172 698 196 732 L 286 732 L 286 0 Z" unicode="1" />
<glyph horiz-adv-x="511" d="M 481 0 L 22 0 L 22 34 L 293 375 C 315 402 331 429 341 456 C 351 482 357 508 357 534 C 357 562 347 586 327 604 C 307 622 281 631 248 631 C 210 631 181 619 163 596 C 144 572 135 542 135 506 L 25 506 C 25 582 46 640 88 680 C 130 720 184 740 252 740 C 317 740 371 723 413 690 C 455 657 476 609 476 546 C 476 493 466 449 448 414 C 430 379 409 348 387 321 L 208 105 L 481 105 L 481 0 Z" unicode="2" />
<glyph horiz-adv-x="500" d="M 230 -10 C 174 -10 127 -1 90 15 C 52 31 23 51 2 74 L 61 159 C 77 144 98 130 124 116 C 149 102 181 95 219 95 C 267 95 304 108 328 134 C 352 160 365 192 365 228 C 365 265 351 293 323 312 C 295 330 262 340 224 340 L 124 340 L 124 448 L 225 448 C 259 448 287 456 309 474 C 331 492 342 515 342 544 C 342 568 333 590 315 608 C 297 626 272 635 240 635 C 203 635 173 628 151 614 C 129 600 110 583 94 564 L 27 642 C 34 652 44 662 57 674 C 69 686 85 696 103 706 C 121 716 143 724 168 731 C 192 737 221 741 253 741 C 315 741 364 725 402 693 C 440 661 459 618 459 563 C 459 541 455 520 448 502 C 441 484 432 468 421 454 C 410 440 398 428 384 419 C 370 409 357 402 344 398 C 380 387 412 366 440 336 C 468 305 482 265 482 217 C 482 191 477 165 469 139 C 461 112 447 88 427 66 C 407 44 381 25 349 11 C 317 -2 277 -10 230 -10 Z" unicode="3" />
<glyph horiz-adv-x="528" d="M 520 182 L 420 182 L 420 0 L 309 0 L 309 182 L 11 182 L 11 259 L 342 739 L 420 739 L 420 285 L 520 285 L 520 182 Z M 310 284 L 310 533 L 139 284 L 310 284 Z" unicode="4" />
<glyph horiz-adv-x="511" d="M 248 -10 C 192 -10 145 0 105 18 C 65 36 35 57 15 79 L 78 165 C 94 145 116 128 144 115 C 172 101 203 95 238 95 C 279 95 311 109 335 138 C 358 166 370 203 370 249 C 370 291 358 325 336 350 C 314 374 285 387 249 387 C 219 387 194 381 173 369 C 152 357 136 340 126 319 L 45 338 L 76 730 L 440 730 L 440 620 L 167 620 L 152 433 C 162 449 179 463 203 474 C 226 484 253 490 285 490 C 348 490 398 469 436 428 C 474 386 493 329 493 256 C 493 175 470 110 425 62 C 379 14 320 -10 248 -10 Z" unicode="5" />
<glyph horiz-adv-x="510" d="M 267 -10 C 232 -10 200 -4 171 7 C 141 19 116 35 95 57 C 74 79 58 105 46 136 C 34 167 29 202 29 241 C 29 318 47 391 85 459 C 123 527 171 597 229 670 L 288 747 L 378 688 L 341 640 C 299 585 261 536 229 492 C 197 448 176 413 167 387 C 177 403 192 417 212 431 C 232 444 259 451 291 451 C 351 451 400 429 437 387 C 474 345 493 290 493 223 C 493 190 487 159 476 131 C 465 103 450 78 430 57 C 410 36 387 20 359 8 C 331 -4 300 -10 267 -10 Z M 269 92 C 301 92 327 103 347 127 C 367 151 377 182 377 220 C 377 262 367 294 348 316 C 329 338 303 350 269 350 C 239 350 213 339 190 319 C 167 299 156 267 156 225 C 156 181 166 147 187 125 C 207 103 235 92 269 92 Z" unicode="6" />
<glyph horiz-adv-x="452" d="M 457 730 L 462 692 L 147 -9 L 43 37 L 308 620 L 13 620 L 13 730 L 457 730 Z" unicode="7" />
<glyph horiz-adv-x="531" d="M 376 387 C 390 382 404 375 419 366 C 434 356 448 344 460 329 C 472 314 483 296 491 275 C 499 253 503 229 503 201 C 503 140 482 90 440 50 C 398 10 340 -10 265 -10 C 191 -10 134 8 92 46 C 50 84 30 134 30 198 C 30 227 34 253 43 275 C 52 297 63 316 77 332 C 90 347 104 359 119 368 C 133 376 147 382 159 385 C 148 389 136 395 123 404 C 110 412 98 423 88 437 C 77 450 68 466 61 485 C 53 504 50 526 50 551 C 50 580 55 606 67 630 C 78 654 93 674 113 690 C 132 706 155 718 181 727 C 207 735 235 740 265 740 C 334 740 387 722 425 687 C 463 652 482 609 483 559 C 483 535 479 513 473 494 C 466 474 457 458 447 444 C 437 430 425 418 413 408 C 400 398 388 391 376 387 Z M 265 429 C 297 429 323 438 341 456 C 359 474 369 499 369 532 C 369 568 359 594 341 612 C 322 629 297 638 265 638 C 235 638 210 628 191 610 C 171 591 162 565 162 533 C 162 498 172 472 192 455 C 212 437 236 429 265 429 Z M 266 89 C 303 89 332 99 354 120 C 376 141 387 172 387 212 C 387 250 375 279 353 299 C 331 319 302 329 266 329 C 230 329 200 319 178 299 C 155 279 144 250 144 210 C 144 172 155 142 178 121 C 200 99 230 89 266 89 Z" unicode="8" />
<glyph horiz-adv-x="510" d="M 223 -12 L 137 53 L 173 96 C 191 117 209 140 228 164 C 247 188 265 211 281 234 C 297 256 312 278 324 299 C 336 319 344 338 348 354 C 337 335 320 319 296 305 C 272 291 245 284 215 284 C 185 284 157 289 133 301 C 109 312 88 328 71 348 C 53 368 40 393 31 421 C 21 449 17 479 17 512 C 17 544 22 575 33 603 C 44 631 60 656 80 677 C 100 697 125 714 153 726 C 181 738 212 744 246 744 C 278 744 309 738 338 727 C 366 715 391 699 412 678 C 433 656 450 630 462 598 C 474 566 481 531 481 491 C 481 450 475 410 465 372 C 454 333 440 296 422 261 C 404 225 384 191 360 158 C 336 124 312 93 287 63 L 223 -12 Z M 244 385 C 274 385 300 395 323 417 C 345 438 357 470 357 512 C 357 555 346 587 324 608 C 302 629 276 640 246 640 C 212 640 186 628 166 606 C 146 584 137 554 137 516 C 137 474 146 441 165 419 C 183 396 210 385 244 385 Z" unicode="9" />
<glyph horiz-adv-x="248" d="M 186 298 L 62 298 L 62 436 L 186 436 L 186 298 Z M 186 0 L 62 0 L 62 139 L 186 139 L 186 0 Z" unicode=":" />
<glyph horiz-adv-x="248" d="M 194 298 L 71 298 L 71 436 L 194 436 L 194 298 Z M 196 112 C 194 86 189 60 182 34 C 174 8 165 -16 155 -40 C 145 -63 134 -84 122 -103 C 110 -121 98 -135 86 -145 L -4 -105 C 4 -95 12 -83 21 -67 C 30 -51 39 -34 47 -14 C 55 5 61 25 67 47 C 73 69 76 90 77 112 L 196 112 Z" unicode=";" />
<glyph horiz-adv-x="402" d="M 352 88 L 45 287 L 45 361 L 352 561 L 352 444 L 168 325 L 352 205 L 352 88 Z" unicode="&#x3C;" />
<glyph horiz-adv-x="499" d="M 442 382 L 58 382 L 58 486 L 442 486 L 442 382 Z M 442 163 L 58 163 L 58 267 L 442 267 L 442 163 Z" unicode="=" />
<glyph horiz-adv-x="402" d="M 355 287 L 48 88 L 48 205 L 231 325 L 48 445 L 48 561 L 355 361 L 355 287 Z" unicode="&#x3E;" />
<glyph horiz-adv-x="452" d="M 154 218 C 154 254 160 286 173 314 C 186 342 204 369 227 396 C 245 417 262 439 279 462 C 295 484 304 511 304 543 C 304 571 294 594 274 610 C 254 626 230 634 203 634 C 177 634 155 627 135 614 C 115 601 98 585 86 566 L 11 640 C 37 674 70 700 109 717 C 148 733 188 742 228 742 C 293 742 343 724 378 689 C 413 653 431 609 431 557 C 431 506 419 465 395 433 C 371 401 346 369 320 338 C 303 321 291 301 284 279 C 277 257 273 236 273 218 L 154 218 Z M 149 0 L 149 130 L 283 130 L 283 0 L 149 0 Z" unicode="?" />
<glyph horiz-adv-x="834" d="M 407 -42 C 351 -42 301 -32 255 -12 C 209 8 169 35 137 69 C 105 103 80 143 62 189 C 44 235 35 285 35 337 C 35 389 44 439 62 485 C 80 531 106 571 140 605 C 173 639 213 665 259 685 C 305 705 357 715 413 715 C 469 715 521 706 568 690 C 615 673 655 650 688 620 C 721 590 747 553 765 510 C 783 467 793 420 793 368 C 793 323 787 285 776 254 C 765 222 751 197 735 178 C 718 158 700 144 681 136 C 661 127 644 123 628 123 C 597 123 572 129 552 143 C 532 156 519 173 513 194 C 502 177 484 161 458 146 C 432 130 401 123 365 123 C 313 123 275 135 251 161 C 226 187 214 219 214 258 C 214 280 219 300 230 318 C 240 336 255 351 273 363 C 291 375 313 384 338 390 C 362 396 389 400 417 400 L 500 400 L 500 409 C 500 435 493 454 480 465 C 466 475 444 481 413 481 C 387 481 364 477 343 471 C 322 465 305 459 291 453 L 258 530 C 276 539 299 547 327 553 C 355 559 383 563 411 563 C 467 563 511 550 544 524 C 577 498 594 454 594 394 L 594 249 C 594 236 597 225 603 215 C 609 205 620 201 637 201 C 644 201 652 203 661 208 C 670 212 678 221 686 233 C 693 245 699 261 704 283 C 709 304 712 331 712 364 C 712 404 705 441 691 475 C 677 509 657 538 631 562 C 605 586 574 604 537 618 C 500 632 459 639 413 639 C 369 639 328 631 292 615 C 255 599 224 578 198 551 C 172 524 153 492 139 455 C 125 418 118 379 118 337 C 118 295 125 256 139 219 C 153 182 172 150 198 123 C 224 95 255 73 291 57 C 327 41 366 33 410 33 C 430 33 451 34 471 38 C 491 41 513 48 535 59 L 565 -8 C 537 -20 511 -29 485 -34 C 459 -39 433 -42 407 -42 Z M 389 205 C 413 205 436 210 458 220 C 479 230 493 240 500 251 L 500 326 L 415 326 C 382 326 358 320 343 310 C 328 300 321 285 321 267 C 321 247 326 232 338 221 C 350 210 367 205 389 205 Z" unicode="@" />
<glyph horiz-adv-x="611" d="M 612 0 L 480 0 L 423 158 L 181 158 L 126 0 L -1 0 L 268 733 L 348 733 L 612 0 Z M 392 263 L 302 513 L 213 263 L 392 263 Z" unicode="A" />
<glyph horiz-adv-x="569" d="M 77 0 L 77 730 L 309 730 C 367 730 415 714 453 684 C 491 653 510 611 510 557 C 510 506 497 466 471 437 C 445 407 416 389 382 383 C 400 381 419 376 438 368 C 457 360 474 349 490 335 C 505 321 517 303 527 282 C 536 261 541 236 541 208 C 541 175 535 146 523 120 C 511 94 494 72 474 54 C 454 36 429 23 401 14 C 372 4 341 0 309 0 L 77 0 Z M 201 424 L 281 424 C 317 424 343 434 358 456 C 373 477 381 501 381 527 C 381 554 372 576 355 594 C 337 611 312 620 280 620 L 201 620 L 201 424 Z M 202 109 L 303 109 C 341 109 369 119 386 139 C 403 159 412 185 412 216 C 412 248 401 274 380 292 C 358 310 330 319 294 319 L 202 319 L 202 109 Z" unicode="B" />
<glyph horiz-adv-x="632" d="M 361 -10 C 315 -10 272 -1 233 14 C 193 30 159 54 131 86 C 102 118 79 157 63 204 C 47 251 39 305 39 365 C 39 420 46 471 62 517 C 78 563 100 602 128 635 C 156 668 191 694 231 712 C 271 730 316 740 364 740 C 430 740 482 729 522 707 C 562 685 594 656 619 622 L 530 543 C 514 564 493 583 467 599 C 441 615 408 623 368 623 C 304 623 256 600 222 554 C 188 508 172 444 172 361 C 172 315 177 275 188 243 C 199 210 214 183 232 163 C 250 142 272 127 296 118 C 320 108 345 104 371 104 C 413 104 448 112 476 129 C 504 145 527 167 546 194 L 628 127 C 601 85 565 52 521 27 C 476 2 423 -10 361 -10 Z" unicode="C" />
<glyph horiz-adv-x="685" d="M 77 0 L 77 730 L 295 730 C 351 730 401 721 445 704 C 489 686 525 662 555 631 C 585 600 607 562 623 518 C 638 474 646 425 646 371 C 646 319 638 270 622 225 C 606 179 583 140 553 107 C 523 73 485 47 439 28 C 393 9 341 0 281 0 L 77 0 Z M 206 111 L 282 111 C 322 111 356 117 385 130 C 414 143 438 161 457 184 C 475 206 489 233 498 265 C 507 297 512 331 512 368 C 512 446 492 507 454 551 C 416 595 362 617 294 617 L 206 617 L 206 111 Z" unicode="D" />
<glyph horiz-adv-x="530" d="M 496 0 L 77 0 L 77 730 L 477 730 L 477 616 L 204 616 L 204 418 L 462 418 L 462 305 L 204 305 L 204 114 L 496 114 L 496 0 Z" unicode="E" />
<glyph horiz-adv-x="466" d="M 441 616 L 206 616 L 206 417 L 427 417 L 427 303 L 206 303 L 206 0 L 77 0 L 77 730 L 441 730 L 441 616 Z" unicode="F" />
<glyph horiz-adv-x="684" d="M 372 379 L 650 379 L 650 138 C 626 95 591 60 544 32 C 496 4 437 -10 367 -10 C 320 -10 276 -1 236 16 C 196 34 161 59 132 92 C 103 124 80 164 64 210 C 47 256 39 308 39 365 C 39 422 47 474 65 521 C 82 567 105 607 135 639 C 165 671 200 696 240 714 C 280 731 324 740 370 740 C 405 740 436 736 462 729 C 488 722 511 713 530 702 C 549 691 565 679 578 665 C 591 651 602 637 611 623 L 519 555 C 506 571 488 586 464 601 C 440 616 408 624 368 624 C 309 624 261 601 225 555 C 188 509 170 445 170 364 C 170 284 188 220 226 172 C 263 123 313 99 375 99 C 413 99 447 106 475 120 C 503 134 523 153 537 175 L 537 266 L 372 266 L 372 379 Z" unicode="G" />
<glyph horiz-adv-x="692" d="M 616 0 L 486 0 L 486 300 L 207 300 L 207 0 L 77 0 L 77 730 L 207 730 L 207 419 L 486 419 L 486 730 L 616 730 L 616 0 Z" unicode="H" />
<glyph horiz-adv-x="292" d="M 212 0 L 81 0 L 81 730 L 212 730 L 212 0 Z" unicode="I" />
<glyph horiz-adv-x="356" d="M 294 730 L 294 194 C 294 165 289 138 281 113 C 272 88 259 66 243 48 C 227 30 206 15 182 5 C 157 -5 129 -11 98 -11 C 81 -11 65 -10 49 -8 C 33 -6 20 -4 12 -2 L 12 113 C 18 110 29 108 45 107 C 60 105 72 105 82 105 C 110 105 132 114 148 132 C 164 150 172 172 172 199 L 172 730 L 294 730 Z" unicode="J" />
<glyph horiz-adv-x="643" d="M 651 0 L 490 0 L 258 299 L 207 239 L 207 0 L 77 0 L 77 730 L 207 730 L 207 397 L 469 730 L 620 730 L 344 392 L 651 0 Z" unicode="K" />
<glyph horiz-adv-x="460" d="M 452 0 L 77 0 L 77 730 L 207 730 L 207 115 L 452 115 L 452 0 Z" unicode="L" />
<glyph horiz-adv-x="840" d="M 763 0 L 640 0 L 640 459 L 442 134 L 394 134 L 200 456 L 200 0 L 77 0 L 77 730 L 165 730 L 421 314 L 679 730 L 763 730 L 763 0 Z" unicode="M" />
<glyph horiz-adv-x="695" d="M 618 0 L 530 0 L 199 476 L 199 0 L 77 0 L 77 730 L 172 730 L 497 259 L 497 730 L 618 730 L 618 0 Z" unicode="N" />
<glyph horiz-adv-x="746" d="M 376 -10 C 323 -10 276 -1 234 17 C 192 35 156 60 128 93 C 99 126 77 166 62 213 C 46 260 39 312 39 370 C 39 424 47 473 64 519 C 80 565 103 604 133 636 C 162 668 197 694 237 712 C 277 730 321 740 369 740 C 419 740 466 731 508 714 C 550 696 585 672 615 640 C 644 608 667 569 683 523 C 699 477 708 425 708 367 C 708 310 699 258 682 212 C 664 165 641 125 611 93 C 581 60 546 35 506 17 C 465 -1 422 -10 376 -10 Z M 375 105 C 433 105 481 127 519 172 C 556 217 575 283 575 371 C 575 451 556 514 518 558 C 480 602 432 624 373 624 C 313 624 264 602 228 560 C 191 518 173 453 173 366 C 173 278 192 212 230 169 C 268 126 317 105 375 105 Z" unicode="O" />
<glyph horiz-adv-x="556" d="M 77 0 L 77 730 L 317 730 C 380 730 432 710 473 671 C 513 631 534 578 534 510 C 534 476 528 446 518 418 C 508 390 493 365 474 345 C 454 325 431 309 404 297 C 377 285 347 280 315 280 L 207 280 L 207 0 L 77 0 Z M 206 391 L 291 391 C 327 391 355 401 375 422 C 395 442 405 472 405 510 C 405 546 393 573 370 591 C 347 609 319 619 286 619 L 206 619 L 206 391 Z" unicode="P" />
<glyph horiz-adv-x="741" d="M 640 -52 L 640 -169 C 578 -165 522 -147 472 -117 C 422 -87 384 -50 360 -6 C 310 -4 265 6 225 24 C 185 42 151 68 124 101 C 96 133 75 172 61 218 C 46 263 39 314 39 370 C 39 424 47 473 64 519 C 81 565 104 604 134 636 C 163 668 198 694 238 712 C 278 730 322 740 370 740 C 420 740 466 731 508 714 C 550 696 585 672 615 640 C 644 608 667 568 683 522 C 699 475 708 423 708 365 C 708 279 688 206 648 144 C 608 82 557 38 493 14 C 510 -5 532 -20 559 -32 C 585 -44 612 -50 640 -52 Z M 375 103 C 433 103 480 126 518 172 C 556 218 575 284 575 372 C 575 414 569 451 559 483 C 549 515 535 541 517 562 C 499 583 477 599 453 610 C 428 620 401 626 373 626 C 313 626 264 604 228 562 C 191 520 173 454 173 366 C 173 279 192 213 230 169 C 268 125 316 103 375 103 Z" unicode="Q" />
<glyph horiz-adv-x="588" d="M 77 0 L 77 730 L 297 730 C 326 730 354 725 380 717 C 406 708 428 695 447 678 C 465 661 480 640 491 615 C 502 589 508 560 508 527 C 508 497 504 470 496 446 C 488 422 478 401 465 384 C 452 367 437 353 420 343 C 403 333 385 326 367 323 L 364 319 L 578 0 L 433 0 L 244 286 L 202 286 L 202 0 L 77 0 Z M 202 397 L 273 397 C 303 397 329 406 349 426 C 369 446 379 474 379 510 C 379 543 369 569 349 588 C 329 607 304 617 275 617 L 202 617 L 202 397 Z" unicode="R" />
<glyph horiz-adv-x="480" d="M 249 -10 C 200 -10 156 -2 117 12 C 77 26 44 49 16 80 L 87 171 C 103 150 125 133 153 119 C 181 105 210 98 240 98 C 268 98 291 106 310 123 C 329 139 339 162 339 190 C 339 216 329 239 311 258 C 292 277 262 297 220 318 C 196 330 174 343 152 357 C 130 371 110 387 94 405 C 78 423 65 445 55 469 C 45 493 40 522 40 554 C 40 608 59 652 98 687 C 136 722 186 740 246 740 C 286 740 322 734 354 722 C 386 710 413 694 437 675 L 375 581 C 359 595 340 606 320 615 C 299 624 277 629 255 629 C 227 629 205 621 188 606 C 171 591 163 572 163 550 C 163 525 171 504 189 488 C 206 471 241 450 293 425 C 349 396 391 364 419 329 C 447 293 461 248 461 193 C 461 160 455 131 443 106 C 431 80 415 59 395 42 C 375 24 353 11 328 3 C 302 -5 276 -10 249 -10 Z" unicode="S" />
<glyph horiz-adv-x="497" d="M 488 615 L 312 615 L 312 0 L 182 0 L 182 615 L 8 615 L 8 730 L 488 730 L 488 615 Z" unicode="T" />
<glyph horiz-adv-x="676" d="M 605 730 L 605 252 C 605 210 597 172 583 139 C 569 106 549 79 525 57 C 501 35 472 18 439 7 C 406 -4 371 -10 335 -10 C 299 -10 264 -4 232 6 C 200 17 172 33 148 55 C 124 77 106 104 92 137 C 78 170 71 208 71 252 L 71 730 L 197 730 L 197 245 C 197 201 210 166 236 141 C 262 116 295 104 335 104 C 375 104 408 116 436 140 C 463 164 477 199 477 245 L 477 730 L 605 730 Z" unicode="U" />
<glyph horiz-adv-x="603" d="M 606 730 L 341 -4 L 260 -4 L -1 730 L 131 730 L 305 229 L 477 730 L 606 730 Z" unicode="V" />
<glyph horiz-adv-x="854" d="M 847 730 L 642 -6 L 570 -6 L 425 487 L 274 -6 L 203 -6 L 2 730 L 128 730 L 251 255 L 393 730 L 468 730 L 606 254 L 730 730 L 847 730 Z" unicode="W" />
<glyph horiz-adv-x="574" d="M 430 0 L 285 258 L 139 0 L 7 0 L 220 376 L 21 730 L 157 730 L 288 496 L 420 730 L 552 730 L 354 379 L 566 0 L 430 0 Z" unicode="X" />
<glyph horiz-adv-x="599" d="M 603 730 L 362 317 L 362 0 L 232 0 L 232 322 L -3 730 L 138 730 L 303 442 L 469 730 L 603 730 Z" unicode="Y" />
<glyph horiz-adv-x="545" d="M 509 730 L 509 675 L 184 114 L 520 114 L 520 0 L 14 0 L 14 53 L 338 615 L 39 615 L 39 730 L 509 730 Z" unicode="Z" />
<glyph horiz-adv-x="289" d="M 261 -179 L 65 -179 L 65 730 L 261 730 L 261 631 L 179 631 L 179 -79 L 261 -79 L 261 -179 Z" unicode="[" />
<glyph horiz-adv-x="331" d="M -1 730 L 106 730 L 332 0 L 223 0 L -1 730 Z" unicode="\" />
<glyph horiz-adv-x="290" d="M 226 -179 L 29 -179 L 29 -80 L 112 -80 L 112 631 L 29 631 L 29 730 L 226 730 L 226 -179 Z" unicode="]" />
<glyph horiz-adv-x="487" d="M 441 369 L 337 369 L 243 603 L 151 369 L 48 369 L 192 730 L 295 730 L 441 369 Z" unicode="^" />
<glyph horiz-adv-x="475" d="M 475 -172 L 0 -172 L 0 -70 L 475 -70 L 475 -172 Z" unicode="_" />
<glyph horiz-adv-x="500" d="M 365 496 L 246 496 L 124 662 L 265 662 L 365 496 Z" unicode="`" />
<glyph horiz-adv-x="451" d="M 406 0 L 296 0 L 296 50 C 283 33 266 19 244 7 C 222 -4 195 -10 163 -10 C 114 -10 77 3 53 31 C 28 58 16 92 16 132 C 16 179 33 215 68 240 C 103 265 151 279 213 282 L 291 286 L 291 296 C 291 314 284 329 272 340 C 259 350 239 356 213 356 C 186 356 162 352 141 344 C 119 336 103 327 93 319 L 52 395 C 68 407 91 419 121 430 C 150 441 187 447 232 447 C 281 447 322 435 356 411 C 389 387 406 350 406 298 L 406 0 Z M 293 121 L 293 203 L 226 200 C 197 199 174 193 157 183 C 140 172 132 157 132 138 C 132 120 138 107 150 98 C 162 89 178 85 196 85 C 218 85 238 88 255 96 C 272 104 285 112 293 121 Z" unicode="a" />
<glyph horiz-adv-x="506" d="M 298 -5 C 262 -5 232 1 209 15 C 186 28 170 44 162 62 L 162 0 L 49 0 L 49 750 L 164 750 L 164 375 C 171 390 186 405 210 421 C 234 437 264 445 300 445 C 354 445 397 425 431 385 C 464 345 481 293 481 229 C 481 193 476 160 466 131 C 456 102 443 78 427 58 C 410 38 390 22 368 11 C 346 0 322 -5 298 -5 Z M 261 81 C 290 81 313 93 331 117 C 348 141 357 175 357 219 C 357 259 348 291 332 315 C 316 339 292 351 260 351 C 233 351 210 340 192 318 C 173 296 164 261 164 214 C 164 168 173 134 193 113 C 212 91 235 81 261 81 Z" unicode="b" />
<glyph horiz-adv-x="431" d="M 340 145 L 427 90 C 412 64 390 41 361 21 C 332 1 292 -9 240 -9 C 206 -9 176 -3 150 8 C 123 19 100 35 82 55 C 63 75 49 99 39 127 C 29 155 24 185 24 218 C 24 250 29 281 40 309 C 51 337 66 361 86 381 C 105 401 128 416 156 428 C 183 440 213 446 246 446 C 294 446 333 436 363 416 C 393 396 415 374 429 350 L 337 291 C 328 307 316 320 302 330 C 288 340 270 345 248 345 C 219 345 195 333 177 310 C 158 286 149 256 149 218 C 149 176 158 144 178 122 C 197 100 222 89 252 89 C 276 89 295 95 309 107 C 322 119 332 132 340 145 Z" unicode="c" />
<glyph horiz-adv-x="507" d="M 215 -6 C 187 -6 161 0 138 11 C 114 22 94 37 78 57 C 61 76 48 99 39 125 C 29 151 25 180 25 210 C 25 245 30 277 40 306 C 50 335 64 360 82 381 C 100 401 120 417 144 429 C 168 440 193 446 221 446 C 251 446 277 439 298 427 C 319 415 334 401 343 386 L 343 750 L 457 750 L 457 0 L 348 0 L 348 60 C 340 44 325 29 303 15 C 281 1 252 -6 215 -6 Z M 249 84 C 277 84 300 96 318 120 C 336 144 346 177 346 221 C 346 266 336 299 316 320 C 296 340 273 351 245 351 C 215 351 192 339 175 316 C 157 292 149 260 149 218 C 149 178 157 146 174 121 C 191 96 216 84 249 84 Z" unicode="d" />
<glyph horiz-adv-x="470" d="M 250 -9 C 217 -9 187 -4 159 6 C 131 16 108 30 88 49 C 68 68 53 91 42 119 C 30 147 25 178 25 214 C 25 248 30 279 41 308 C 52 336 67 361 87 381 C 106 401 129 417 156 429 C 183 440 212 446 244 446 C 310 446 361 423 399 379 C 436 334 455 269 455 184 L 139 184 C 140 151 151 126 171 109 C 191 91 219 83 255 83 C 287 83 312 87 330 97 C 348 107 362 118 373 130 L 437 66 C 419 46 397 29 369 14 C 341 -1 302 -9 250 -9 Z M 143 268 L 341 268 C 339 292 330 313 314 330 C 297 346 274 355 245 355 C 215 355 191 346 173 330 C 155 313 145 292 143 268 Z" unicode="e" />
<glyph horiz-adv-x="287" d="M 282 334 L 199 334 L 199 0 L 80 0 L 80 334 L 13 334 L 13 436 L 80 436 L 80 582 C 80 611 84 637 93 659 C 101 681 113 699 127 713 C 141 727 158 737 177 744 C 195 751 214 755 234 755 C 248 755 261 753 273 751 C 285 749 295 746 302 744 L 290 638 C 287 639 283 640 277 641 C 271 642 264 643 256 643 C 240 643 226 636 215 624 C 203 612 198 594 198 571 L 198 436 L 282 436 L 282 334 Z" unicode="f" />
<glyph horiz-adv-x="506" d="M 216 -1 C 160 -1 114 19 78 59 C 42 99 25 151 25 217 C 25 286 43 341 80 383 C 116 425 162 446 218 446 C 247 446 273 439 296 426 C 319 413 335 399 345 384 L 345 436 L 457 436 L 457 28 C 457 -9 451 -41 439 -69 C 427 -97 412 -119 392 -137 C 372 -155 348 -168 321 -177 C 293 -185 264 -190 234 -190 C 187 -190 149 -184 121 -174 C 93 -164 71 -154 57 -144 L 98 -58 C 110 -67 127 -76 148 -85 C 169 -93 195 -98 225 -98 C 257 -98 285 -89 307 -71 C 329 -53 341 -27 341 9 L 341 63 C 333 46 317 31 295 18 C 273 5 246 -1 216 -1 Z M 249 85 C 277 85 301 97 319 121 C 337 145 346 179 346 221 C 346 261 336 294 317 318 C 297 342 273 354 243 354 C 215 354 193 342 175 318 C 157 294 148 261 148 219 C 148 178 156 145 174 121 C 192 97 217 85 249 85 Z" unicode="g" />
<glyph horiz-adv-x="497" d="M 452 0 L 333 0 L 333 274 C 333 298 326 316 312 329 C 298 342 279 349 256 349 C 233 349 213 341 195 327 C 177 312 169 290 169 261 L 169 0 L 49 0 L 49 750 L 162 750 L 162 368 C 170 389 186 407 210 423 C 233 439 264 447 303 447 C 347 447 383 434 411 409 C 438 383 452 347 452 301 L 452 0 Z" unicode="h" />
<glyph horiz-adv-x="227" d="M 52 515 L 52 633 L 175 633 L 175 515 L 52 515 Z M 54 0 L 54 436 L 173 436 L 173 0 L 54 0 Z" unicode="i" />
<glyph horiz-adv-x="217" d="M 171 515 L 48 515 L 48 633 L 171 633 L 171 515 Z M 169 436 L 169 -69 C 169 -103 157 -133 135 -161 C 113 -188 80 -202 36 -202 C 24 -202 11 -201 -3 -199 C -18 -197 -29 -195 -36 -193 L -27 -99 C -24 -99 -19 -100 -13 -101 C -7 -101 -1 -102 5 -102 C 17 -102 28 -97 37 -89 C 45 -80 50 -67 50 -51 L 50 436 L 169 436 Z" unicode="j" />
<glyph horiz-adv-x="471" d="M 488 1 L 351 0 L 224 173 L 166 108 L 166 0 L 50 0 L 50 750 L 162 750 L 162 234 L 328 436 L 460 436 L 303 252 L 488 1 Z" unicode="k" />
<glyph horiz-adv-x="218" d="M 169 750 L 169 0 L 49 0 L 49 750 L 169 750 Z" unicode="l" />
<glyph horiz-adv-x="774" d="M 49 0 L 49 436 L 161 436 L 161 371 C 169 393 186 411 212 425 C 237 439 268 447 305 447 C 336 447 363 440 385 427 C 407 413 423 394 431 370 L 435 370 C 445 393 462 412 487 426 C 512 440 543 447 579 447 C 624 447 660 434 688 409 C 715 383 729 348 729 304 L 729 0 L 611 0 L 611 271 C 611 296 604 315 591 329 C 577 342 559 349 535 349 C 513 349 493 341 475 327 C 457 312 448 288 448 256 L 448 0 L 330 0 L 330 272 C 330 297 323 316 310 329 C 297 342 279 349 256 349 C 232 349 211 341 193 325 C 175 309 167 286 167 256 L 167 0 L 49 0 Z" unicode="m" />
<glyph horiz-adv-x="497" d="M 452 0 L 333 0 L 333 277 C 333 299 326 316 313 329 C 299 342 280 349 256 349 C 232 349 211 341 194 327 C 177 312 169 289 169 257 L 169 0 L 49 0 L 49 436 L 162 436 L 162 373 C 172 394 190 412 215 426 C 239 440 268 447 301 447 C 347 447 383 434 411 409 C 438 383 452 348 452 304 L 452 0 Z" unicode="n" />
<glyph horiz-adv-x="498" d="M 246 -9 C 217 -9 189 -4 163 6 C 136 16 112 30 92 50 C 71 69 54 93 42 121 C 30 149 24 181 24 217 C 24 249 29 280 41 308 C 53 336 69 360 89 380 C 109 400 132 416 159 428 C 185 440 213 446 243 446 C 274 446 304 441 332 431 C 360 421 384 406 405 388 C 426 369 443 346 455 319 C 467 292 474 262 474 229 C 474 193 468 161 456 132 C 444 102 428 77 408 57 C 388 36 364 20 336 8 C 308 -3 278 -9 246 -9 Z M 249 86 C 279 86 304 97 322 120 C 340 143 349 177 349 223 C 349 263 339 294 321 316 C 303 338 277 350 243 350 C 215 350 193 339 175 317 C 157 295 149 263 149 219 C 149 172 158 138 177 117 C 195 96 219 86 249 86 Z" unicode="o" />
<glyph horiz-adv-x="506" d="M 49 -200 L 49 436 L 161 436 L 161 370 C 169 388 185 405 211 421 C 236 437 267 445 303 445 C 355 445 397 425 431 385 C 464 345 481 294 481 231 C 481 193 475 160 465 131 C 454 101 440 77 423 57 C 406 37 386 21 364 11 C 342 0 319 -5 296 -5 C 264 -5 237 0 213 12 C 189 24 173 37 165 51 L 165 -200 L 49 -200 Z M 264 82 C 291 82 313 93 331 116 C 348 138 357 172 357 216 C 357 257 349 290 333 315 C 317 340 292 353 260 353 C 233 353 210 342 192 320 C 173 298 164 262 164 212 C 164 163 173 129 193 110 C 212 91 236 82 264 82 Z" unicode="p" />
<glyph horiz-adv-x="507" d="M 343 -200 L 343 58 C 333 41 318 26 296 13 C 274 0 248 -6 216 -6 C 187 -6 161 0 138 10 C 114 21 94 36 78 56 C 61 76 48 99 39 127 C 29 154 25 183 25 215 C 25 249 30 280 40 309 C 50 337 64 362 82 382 C 100 402 120 418 144 430 C 168 441 192 447 218 447 C 250 447 278 440 300 427 C 322 414 337 400 346 385 L 346 436 L 457 436 L 457 -200 L 343 -200 Z M 247 84 C 273 84 296 95 316 119 C 336 142 346 176 346 221 C 346 265 336 297 317 319 C 297 340 274 351 247 351 C 215 351 190 339 174 316 C 157 292 149 260 149 220 C 149 180 157 148 174 122 C 190 96 215 84 247 84 Z" unicode="q" />
<glyph horiz-adv-x="372" d="M 372 415 L 330 316 C 315 327 301 334 289 338 C 276 341 264 343 253 343 C 233 343 214 335 196 320 C 178 304 169 280 169 246 L 169 0 L 49 0 L 49 436 L 164 436 L 164 369 C 170 385 183 402 204 420 C 224 437 251 446 284 446 C 302 446 319 443 335 437 C 350 431 362 423 372 415 Z" unicode="r" />
<glyph horiz-adv-x="369" d="M 194 -10 C 155 -10 120 -4 90 6 C 60 16 35 31 17 49 L 72 127 C 86 113 104 103 126 95 C 148 87 169 83 190 83 C 205 83 217 86 227 93 C 237 100 242 110 242 122 C 242 134 234 145 220 154 C 205 162 183 171 155 181 C 119 192 89 208 65 229 C 41 249 29 279 29 318 C 29 354 43 384 73 409 C 103 433 140 446 185 446 C 217 446 246 441 274 431 C 301 421 322 411 337 399 L 283 324 C 272 331 258 338 241 344 C 224 350 207 354 189 354 C 175 354 162 351 151 347 C 140 343 135 335 135 325 C 135 315 140 307 150 301 C 160 294 182 285 215 273 C 255 258 287 241 311 221 C 335 201 348 170 348 129 C 348 85 333 51 303 27 C 273 2 236 -10 194 -10 Z" unicode="s" />
<glyph horiz-adv-x="267" d="M 252 99 L 260 4 C 256 1 249 -1 239 -3 C 229 -5 216 -6 201 -6 C 186 -6 170 -4 153 0 C 136 4 120 11 106 21 C 92 31 80 44 71 62 C 61 79 57 101 57 127 L 57 334 L 8 334 L 8 436 L 58 436 L 58 558 L 174 570 L 174 436 L 248 436 L 248 334 L 175 334 L 175 145 C 175 125 179 112 189 105 C 198 98 211 95 228 95 C 231 95 236 95 242 96 C 248 97 251 98 252 99 Z" unicode="t" />
<glyph horiz-adv-x="498" d="M 46 436 L 164 436 L 164 158 C 164 134 171 116 185 104 C 199 92 218 86 242 86 C 266 86 287 93 304 108 C 320 122 329 145 329 176 L 329 436 L 448 436 L 448 0 L 333 0 L 333 62 C 320 40 301 23 276 11 C 251 -1 223 -8 193 -8 C 152 -8 117 4 89 29 C 60 54 46 91 46 139 L 46 436 Z" unicode="u" />
<glyph horiz-adv-x="445" d="M 451 436 L 258 -3 L 183 -3 L -6 436 L 122 436 L 228 175 L 333 436 L 451 436 Z" unicode="v" />
<glyph horiz-adv-x="638" d="M 413 -3 L 320 247 L 226 -3 L 151 -3 L 3 436 L 122 436 L 204 170 L 290 407 L 360 407 L 445 170 L 530 436 L 636 436 L 486 -3 L 413 -3 Z" unicode="w" />
<glyph horiz-adv-x="417" d="M 285 0 L 205 128 L 121 0 L 1 0 L 146 222 L 11 436 L 140 436 L 211 323 L 285 436 L 406 436 L 270 229 L 414 0 L 285 0 Z" unicode="x" />
<glyph horiz-adv-x="450" d="M 454 436 L 222 -94 C 203 -136 179 -164 151 -178 C 122 -192 94 -200 67 -200 C 51 -200 38 -198 26 -195 C 14 -191 5 -188 -1 -186 L 31 -86 C 33 -87 39 -89 47 -91 C 55 -93 62 -95 70 -95 C 84 -95 95 -90 105 -82 C 115 -74 124 -59 134 -39 L 169 43 L -5 436 L 124 436 L 230 174 L 336 436 L 454 436 Z" unicode="y" />
<glyph horiz-adv-x="377" d="M 363 436 L 363 381 L 178 101 L 367 101 L 367 0 L 9 0 L 9 39 L 207 335 L 20 335 L 20 436 L 363 436 Z" unicode="z" />
<glyph horiz-adv-x="313" d="M 284 -179 C 250 -179 218 -174 190 -166 C 162 -158 138 -146 118 -132 C 98 -118 82 -101 71 -83 C 59 -64 54 -44 54 -24 C 54 0 56 23 62 44 C 67 65 73 83 80 99 C 86 115 93 129 99 143 C 105 157 108 170 108 183 C 108 197 100 210 84 223 C 68 235 48 242 22 242 L 22 329 C 48 329 69 335 86 349 C 102 363 111 378 111 395 C 111 398 107 407 101 423 C 95 439 87 456 79 475 C 71 493 65 510 61 528 C 57 546 55 563 55 580 C 55 600 60 621 71 641 C 82 661 98 679 118 695 C 138 711 162 724 190 734 C 218 744 250 749 284 749 L 284 660 C 253 660 227 651 206 633 C 184 615 174 593 174 567 C 174 558 175 547 177 534 C 179 521 183 508 189 496 C 197 476 205 457 213 441 C 221 425 225 411 225 400 C 225 374 217 351 202 330 C 186 308 162 293 128 285 C 162 276 186 261 202 239 C 217 217 225 196 225 174 C 225 156 221 140 214 127 C 207 113 200 100 194 87 C 187 73 182 59 178 44 C 174 29 173 15 173 3 C 173 -17 183 -38 203 -59 C 223 -79 250 -90 284 -90 L 284 -179 Z" unicode="{" />
<glyph horiz-adv-x="254" d="M 184 -179 L 71 -179 L 71 730 L 184 730 L 184 -179 Z" unicode="|" />
<glyph horiz-adv-x="313" d="M 29 -179 L 29 -90 C 61 -90 88 -79 109 -59 C 129 -38 140 -17 140 3 C 140 15 138 29 134 44 C 130 59 125 73 119 87 C 112 100 105 113 98 127 C 91 140 88 156 88 174 C 88 196 95 217 110 239 C 125 261 150 276 184 285 C 150 293 126 308 111 330 C 95 351 88 374 88 400 C 88 411 91 425 99 441 C 107 457 115 476 124 496 C 130 508 134 521 136 534 C 138 547 139 558 139 567 C 139 593 128 615 107 633 C 85 651 59 660 29 660 L 29 749 C 63 749 94 744 122 734 C 150 724 175 711 195 695 C 215 679 230 661 241 641 C 252 621 258 600 258 580 C 258 563 256 546 252 528 C 248 510 242 493 234 475 C 225 456 217 439 211 423 C 205 407 202 398 202 395 C 202 378 210 363 227 349 C 243 335 265 329 291 329 L 291 242 C 265 242 244 235 228 223 C 212 210 205 197 205 183 C 205 170 208 157 214 143 C 220 129 226 115 233 99 C 239 83 245 65 251 44 C 256 23 259 0 259 -24 C 259 -44 253 -64 242 -83 C 230 -101 215 -118 195 -132 C 175 -146 150 -158 122 -166 C 94 -174 63 -179 29 -179 Z" unicode="}" />
<glyph horiz-adv-x="488" d="M 366 449 L 461 449 C 460 393 451 349 433 318 C 415 286 387 271 349 271 C 325 271 304 275 288 283 C 271 291 256 300 244 310 C 231 320 219 328 207 336 C 195 343 182 347 168 347 C 155 347 144 340 135 326 C 126 312 122 295 122 274 L 29 274 C 29 332 38 376 57 407 C 76 437 102 453 135 453 C 161 453 183 448 202 439 C 220 429 237 419 253 408 C 265 399 277 391 289 383 C 301 375 314 372 328 372 C 344 372 355 378 359 392 C 363 406 366 425 366 449 Z" unicode="~" />
<glyph horiz-adv-x="300" d="M 87 568 L 214 568 L 214 434 L 87 434 L 87 568 Z M 80 140 L 122 348 L 181 348 L 220 140 L 220 -139 L 80 -139 L 80 140 Z" unicode="¡" />
<glyph horiz-adv-x="516" d="M 503 162 C 487 138 464 116 436 94 C 408 72 370 59 323 55 L 323 -59 L 241 -59 L 241 57 C 179 66 130 93 93 139 C 55 184 37 241 37 310 C 37 376 55 433 92 481 C 129 529 179 558 241 569 L 241 677 L 323 677 L 323 571 C 369 566 407 552 437 530 C 466 508 487 483 500 457 L 413 399 C 400 418 384 434 365 448 C 346 461 321 468 291 468 C 250 468 217 453 193 424 C 169 395 157 358 157 314 C 157 264 170 225 196 197 C 222 169 257 156 299 156 C 333 156 359 163 379 179 C 399 194 414 210 425 227 L 503 162 Z" unicode="¢" />
<glyph horiz-adv-x="554" d="M 541 104 L 541 0 L 14 0 L 14 80 C 20 83 29 86 43 90 C 57 93 76 97 101 102 C 129 106 152 117 170 134 C 188 151 197 173 197 201 C 197 201 197 202 197 203 C 197 204 197 205 197 206 L 32 206 L 32 290 L 162 290 C 157 297 152 305 147 313 C 141 321 136 330 132 339 L 32 339 L 32 423 L 89 423 C 81 441 75 461 71 481 C 66 501 64 523 64 546 C 64 582 70 612 84 638 C 97 663 115 683 137 699 C 159 714 185 725 215 732 C 244 738 274 742 306 742 C 330 742 355 739 379 735 C 403 730 426 724 447 717 C 467 709 486 701 502 692 C 518 683 531 675 541 667 L 477 568 C 461 580 438 593 408 607 C 378 621 346 629 312 629 C 297 629 282 627 268 623 C 254 619 241 613 230 605 C 219 597 210 586 203 572 C 196 558 193 542 193 523 C 193 506 195 489 201 473 C 207 456 214 439 223 423 L 474 423 L 474 339 L 270 339 C 274 330 279 322 283 314 C 287 306 291 298 294 290 L 474 290 L 474 206 L 302 206 C 297 177 287 154 272 138 C 257 122 241 110 223 104 L 541 104 Z" unicode="£" />
<glyph horiz-adv-x="502" d="M 445 195 L 396 147 L 341 204 C 327 196 313 190 298 186 C 282 182 266 180 250 180 C 233 180 217 182 202 186 C 186 190 172 196 160 204 L 105 147 L 55 197 L 106 251 C 95 265 86 281 80 299 C 74 316 71 334 71 354 C 71 373 74 391 80 409 C 86 427 95 443 107 458 L 55 513 L 104 562 L 159 504 C 172 511 186 517 202 521 C 217 525 233 528 250 528 C 266 528 283 525 299 521 C 315 517 329 511 343 503 L 399 562 L 448 512 L 395 457 C 405 442 414 426 420 408 C 426 390 429 372 429 354 C 429 334 425 316 419 298 C 413 280 404 263 393 249 L 445 195 Z M 250 264 C 276 264 298 273 317 291 C 336 309 346 330 346 354 C 346 378 336 399 317 417 C 298 435 276 444 250 444 C 223 444 200 435 182 417 C 164 399 155 378 155 354 C 155 330 164 309 182 291 C 200 273 223 264 250 264 Z" unicode="¤" />
<glyph horiz-adv-x="613" d="M 539 115 L 366 115 L 366 0 L 236 0 L 236 115 L 71 115 L 71 202 L 236 202 L 236 247 L 71 247 L 71 334 L 234 334 L 19 730 L 160 730 L 306 447 L 454 730 L 587 730 L 370 334 L 539 334 L 539 247 L 366 247 L 366 202 L 539 202 L 539 115 Z" unicode="¥" />
<glyph horiz-adv-x="284" d="M 91 351 L 91 730 L 194 730 L 194 351 L 91 351 Z M 194 200 L 194 -179 L 91 -179 L 91 200 L 194 200 Z" unicode="¦" />
<glyph horiz-adv-x="636" d="M 336 -181 C 280 -181 227 -174 179 -161 C 130 -147 89 -130 56 -108 L 104 -9 C 135 -29 171 -47 213 -61 C 254 -75 292 -83 326 -83 C 356 -83 380 -75 398 -61 C 416 -47 425 -27 425 -2 C 425 21 416 39 399 51 C 382 63 358 76 328 90 L 232 132 C 200 145 173 157 149 169 C 125 180 105 192 89 206 C 73 219 61 234 53 252 C 45 270 41 292 41 318 C 41 348 48 374 63 395 C 78 415 96 433 118 447 C 99 459 85 476 77 496 C 69 516 65 541 65 570 C 65 597 71 621 83 643 C 95 664 113 682 135 697 C 157 711 183 722 213 730 C 243 738 275 742 311 742 C 371 742 421 733 460 717 C 498 700 530 683 556 665 L 501 574 C 472 593 442 610 412 625 C 382 640 347 648 308 648 C 274 648 246 641 224 627 C 202 613 192 594 192 570 C 192 552 199 537 214 525 C 229 513 252 501 283 489 L 409 436 C 469 414 514 391 545 366 C 575 340 591 304 591 256 C 591 220 579 192 557 170 C 535 148 509 134 479 128 C 495 117 512 101 529 79 C 546 57 555 30 555 -2 C 555 -30 549 -55 538 -77 C 526 -99 511 -118 492 -134 C 472 -149 449 -161 422 -169 C 395 -177 366 -181 336 -181 Z M 393 185 C 411 187 428 193 443 203 C 458 212 466 227 466 248 C 466 268 456 285 437 299 C 417 313 384 329 336 347 L 221 396 C 204 389 190 381 179 371 C 168 361 163 346 163 328 C 163 306 172 288 192 275 C 212 261 246 245 294 227 L 393 185 Z" unicode="§" />
<glyph horiz-adv-x="500" d="M 391 497 L 292 497 L 292 657 L 391 657 L 391 497 Z M 208 497 L 109 497 L 109 657 L 208 657 L 208 497 Z" unicode="¨" />
<glyph horiz-adv-x="829" d="M 414 3 C 363 3 315 12 270 32 C 225 52 186 78 153 112 C 119 145 93 184 74 229 C 54 274 45 322 45 373 C 45 423 54 471 74 516 C 93 561 119 600 153 634 C 186 667 225 693 270 713 C 315 732 363 742 414 742 C 464 742 512 732 558 713 C 603 693 642 667 676 634 C 709 600 735 561 755 516 C 774 471 784 423 784 373 C 784 322 774 274 755 229 C 735 184 709 145 676 112 C 642 78 603 52 558 32 C 512 12 464 3 414 3 Z M 414 76 C 454 76 492 83 528 99 C 564 115 595 136 622 163 C 648 189 669 221 685 257 C 701 293 709 331 709 372 C 709 412 701 450 685 486 C 669 522 648 554 622 581 C 595 608 564 629 528 645 C 492 661 454 669 414 669 C 373 669 335 661 299 645 C 263 629 232 608 206 581 C 179 554 158 522 143 486 C 127 450 120 412 120 372 C 120 331 127 293 143 257 C 158 221 179 189 206 163 C 232 136 263 115 299 99 C 335 83 373 76 414 76 Z M 588 249 C 572 224 549 203 521 186 C 492 168 456 160 413 160 C 386 160 360 164 336 174 C 312 183 290 197 272 215 C 253 233 238 255 227 282 C 215 308 210 339 210 375 C 210 410 215 441 225 469 C 235 497 250 520 268 539 C 286 558 307 573 331 583 C 355 593 381 598 409 598 C 455 598 491 590 519 574 C 547 558 568 539 584 515 L 503 456 C 494 469 482 480 468 489 C 454 498 435 503 413 503 C 383 503 359 490 341 466 C 322 441 313 410 313 372 C 313 332 323 302 344 281 C 364 259 388 249 414 249 C 435 249 454 253 470 263 C 486 273 499 285 509 301 L 588 249 Z" unicode="©" />
<glyph horiz-adv-x="434" d="M 395 339 L 301 339 L 301 390 C 288 371 270 357 246 348 C 222 338 195 334 167 334 C 125 334 93 345 69 367 C 45 389 34 420 34 459 C 34 501 51 533 85 555 C 119 577 166 590 226 593 L 296 598 L 296 603 C 296 618 289 630 276 639 C 263 647 244 652 219 652 C 197 652 175 648 154 641 C 132 633 113 624 95 612 L 56 687 C 76 702 102 715 134 726 C 165 737 200 743 239 743 C 287 743 325 731 353 709 C 381 687 395 651 395 601 L 395 339 Z M 298 458 L 298 524 L 221 520 C 195 518 175 514 159 506 C 143 498 136 485 136 465 C 136 449 142 437 154 429 C 166 420 183 416 203 416 C 221 416 239 419 257 427 C 274 435 288 445 298 458 Z M 403 213 L 41 213 L 41 302 L 403 302 L 403 213 Z" unicode="ª" />
<glyph horiz-adv-x="474" d="M 221 60 L 26 230 L 26 311 L 221 479 L 221 357 L 130 268 L 221 185 L 221 60 Z M 445 60 L 249 230 L 249 311 L 445 479 L 445 357 L 354 268 L 445 186 L 445 60 Z" unicode="«" />
<glyph horiz-adv-x="500" d="M 453 401 L 453 129 L 351 129 L 351 299 L 29 299 L 29 401 L 453 401 Z" unicode="¬" />
<glyph horiz-adv-x="829" d="M 414 3 C 363 3 315 12 270 32 C 225 52 186 78 153 112 C 119 145 93 184 74 229 C 54 274 45 322 45 373 C 45 423 54 471 74 516 C 93 561 119 600 153 634 C 186 667 225 693 270 713 C 315 732 363 742 414 742 C 464 742 512 732 558 713 C 603 693 642 667 676 634 C 709 600 735 561 755 516 C 774 471 784 423 784 373 C 784 322 774 274 755 229 C 735 184 709 145 676 112 C 642 78 603 52 558 32 C 512 12 464 3 414 3 Z M 414 76 C 454 76 493 83 529 98 C 565 113 596 134 622 161 C 648 187 669 219 685 255 C 701 291 709 330 709 372 C 709 414 701 453 685 489 C 669 525 648 557 622 583 C 596 609 565 630 529 646 C 493 661 454 669 414 669 C 374 669 336 661 300 645 C 264 629 232 608 206 582 C 180 555 159 524 143 488 C 127 452 120 413 120 372 C 120 330 127 291 143 255 C 159 219 180 187 206 161 C 232 135 264 114 300 99 C 336 83 374 76 414 76 Z M 271 166 L 271 599 L 435 599 C 453 599 471 596 489 592 C 507 587 523 580 537 570 C 551 560 562 547 571 532 C 579 516 584 498 584 477 C 584 439 574 410 554 392 C 534 374 513 363 493 360 L 492 356 L 619 166 L 512 166 L 412 325 L 365 325 L 365 166 L 271 166 Z M 365 404 L 434 404 C 448 404 461 409 473 419 C 485 429 491 444 491 465 C 491 486 484 500 472 508 C 459 515 444 519 426 519 L 365 519 L 365 404 Z" unicode="®" />
<glyph horiz-adv-x="500" d="M 385 515 L 115 515 L 115 603 L 385 603 L 385 515 Z" unicode="¯" />
<glyph horiz-adv-x="432" d="M 216 370 C 190 370 166 374 143 384 C 120 394 100 407 84 424 C 67 440 54 460 44 483 C 34 506 30 530 30 556 C 30 581 34 605 44 628 C 54 651 67 671 84 688 C 100 704 120 717 143 727 C 166 737 190 742 216 742 C 241 742 265 737 288 727 C 311 717 331 704 348 688 C 364 671 377 651 387 628 C 397 605 402 581 402 556 C 402 530 397 506 387 483 C 377 460 364 440 348 424 C 331 407 311 394 288 384 C 265 374 241 370 216 370 Z M 216 458 C 242 458 265 467 285 487 C 305 506 315 529 315 556 C 315 582 305 605 285 625 C 265 644 242 654 216 654 C 189 654 166 644 146 625 C 126 605 117 582 117 556 C 117 529 126 506 146 487 C 166 467 189 458 216 458 Z" unicode="°" />
<glyph horiz-adv-x="500" d="M 477 285 L 302 285 L 302 108 L 199 108 L 199 285 L 23 285 L 23 377 L 199 377 L 199 554 L 302 554 L 302 377 L 477 377 L 477 285 Z M 474 19 L 28 19 L 28 106 L 474 106 L 474 19 Z" unicode="±" />
<glyph horiz-adv-x="348" d="M 316 372 L 24 372 L 24 406 L 180 566 C 186 572 191 579 196 587 C 200 595 203 605 203 617 C 203 627 199 637 192 646 C 184 654 173 659 158 659 C 140 659 127 653 121 642 C 114 631 110 618 110 604 L 20 604 C 20 642 33 675 60 701 C 86 727 123 741 170 741 C 215 741 249 731 272 711 C 294 691 306 666 306 638 C 306 611 301 589 292 572 C 282 554 272 540 262 529 L 187 453 L 316 453 L 316 372 Z" unicode="²" />
<glyph horiz-adv-x="346" d="M 230 569 C 256 564 276 553 292 537 C 307 520 315 500 315 477 C 315 465 312 452 308 439 C 303 426 295 414 283 403 C 271 391 256 382 236 375 C 216 367 191 364 161 364 C 117 364 84 369 60 379 C 36 389 18 400 6 410 L 57 464 C 67 457 80 451 95 445 C 110 439 129 437 151 437 C 178 437 197 442 208 452 C 219 462 225 474 225 490 C 225 506 217 516 203 521 C 189 525 172 528 152 528 L 81 528 L 81 598 L 146 598 C 164 598 178 600 190 606 C 201 612 207 621 207 633 C 207 643 202 651 193 657 C 183 663 170 666 152 666 C 135 666 119 662 103 656 C 87 650 75 643 67 635 L 18 687 C 30 699 48 712 70 724 C 92 736 125 742 167 742 C 207 742 239 733 263 717 C 287 701 300 678 300 650 C 300 629 292 611 278 597 C 264 583 248 573 230 569 Z" unicode="³" />
<glyph horiz-adv-x="500" d="M 136 496 L 235 662 L 376 662 L 255 496 L 136 496 Z" unicode="´" />
<glyph horiz-adv-x="562" d="M 61 -98 L 61 446 L 179 446 L 179 164 C 179 139 188 120 206 107 C 224 94 246 88 273 88 C 302 88 327 96 348 112 C 369 128 380 151 380 182 L 380 446 L 499 446 L 499 0 L 390 0 L 390 84 C 378 59 359 38 334 22 C 309 5 281 -4 251 -6 C 232 -6 215 -3 201 4 C 187 11 176 21 170 34 L 170 -98 L 61 -98 Z" unicode="µ" />
<glyph horiz-adv-x="655" d="M 597 -180 L 521 -179 L 521 635 L 430 635 L 430 -179 L 353 -179 L 353 260 L 254 260 C 224 260 194 266 166 279 C 138 291 113 308 92 329 C 70 350 53 375 40 403 C 27 431 21 460 21 492 C 21 525 27 556 39 586 C 51 615 68 640 90 661 C 112 682 138 699 170 711 C 201 723 235 730 273 730 L 597 730 L 597 -180 Z M 354 359 L 354 631 L 300 631 C 257 631 226 618 207 592 C 188 566 179 534 179 495 C 179 458 188 426 207 399 C 226 372 254 359 292 359 L 354 359 Z" unicode="¶" />
<glyph horiz-adv-x="274" d="M 198 255 L 77 255 L 77 401 L 198 401 L 198 255 Z" unicode="·" />
<glyph horiz-adv-x="500" d="M 256 -189 C 231 -189 206 -186 181 -180 C 156 -174 137 -166 124 -157 L 138 -106 C 146 -110 158 -115 173 -120 C 188 -125 204 -128 221 -128 C 232 -128 242 -125 251 -120 C 260 -114 265 -107 265 -99 C 265 -88 261 -81 253 -77 C 245 -73 236 -71 228 -71 C 221 -71 215 -71 210 -72 C 205 -73 200 -75 195 -77 L 177 -58 L 239 14 L 309 14 L 261 -46 C 293 -40 320 -44 342 -57 C 363 -69 374 -88 374 -112 C 374 -137 362 -156 338 -169 C 314 -182 286 -189 256 -189 Z" unicode="¸" />
<glyph horiz-adv-x="318" d="M 131 372 L 131 620 C 127 614 121 609 114 605 C 106 601 98 597 90 594 C 81 590 72 588 64 586 C 56 584 49 582 44 582 L 44 678 C 68 680 90 686 109 696 C 127 706 147 720 168 740 L 236 740 L 236 372 L 131 372 Z" unicode="¹" />
<glyph horiz-adv-x="437" d="M 215 333 C 190 333 166 337 143 346 C 119 355 99 368 81 385 C 63 402 49 423 39 448 C 28 473 23 502 23 535 C 23 563 28 590 38 616 C 48 641 62 663 80 681 C 98 699 118 714 142 725 C 166 735 190 741 216 741 C 243 741 269 736 293 727 C 317 718 338 705 356 688 C 374 671 388 650 398 626 C 408 602 414 575 414 545 C 414 513 408 485 398 459 C 387 433 373 410 355 392 C 337 373 315 358 291 348 C 267 338 241 333 215 333 Z M 216 424 C 244 424 268 434 286 456 C 304 478 313 507 313 543 C 313 575 304 602 288 622 C 271 642 248 652 218 652 C 189 652 166 641 149 619 C 131 597 123 568 123 532 C 123 498 131 472 149 453 C 166 433 188 424 216 424 Z M 36 213 L 36 302 L 399 302 L 399 213 L 36 213 Z" unicode="º" />
<glyph horiz-adv-x="474" d="M 28 479 L 224 307 L 224 228 L 28 60 L 28 181 L 119 270 L 28 353 L 28 479 Z M 253 479 L 447 307 L 447 228 L 253 60 L 253 181 L 344 270 L 253 353 L 253 479 Z" unicode="»" />
<glyph horiz-adv-x="707" d="M 12 0 L 12 0 Z M 99 372 L 99 620 C 95 614 89 609 82 605 C 74 601 66 597 58 594 C 49 590 40 588 32 586 C 24 584 17 582 12 582 L 12 678 C 36 680 58 686 77 696 C 95 706 115 720 136 740 L 204 740 L 204 372 L 99 372 Z M 585 730 L 232 0 L 133 0 L 486 730 L 585 730 Z M 391 80 L 391 147 L 573 364 L 638 364 L 638 151 L 695 151 L 695 80 L 638 80 L 638 1 L 546 1 L 546 80 L 391 80 Z M 471 142 L 548 142 L 548 236 L 471 142 Z" unicode="¼" />
<glyph horiz-adv-x="781" d="M 12 0 L 12 0 Z M 99 372 L 99 620 C 95 614 89 609 82 605 C 74 601 66 597 58 594 C 49 590 40 588 32 586 C 24 584 17 582 12 582 L 12 678 C 36 680 58 686 77 696 C 95 706 115 720 136 740 L 204 740 L 204 372 L 99 372 Z M 585 730 L 232 0 L 133 0 L 486 730 L 585 730 Z M 754 0 L 462 0 L 462 34 L 618 194 C 624 200 629 207 634 215 C 638 223 641 233 641 245 C 641 255 637 265 630 274 C 622 282 611 287 596 287 C 578 287 565 281 559 270 C 552 259 548 246 548 232 L 458 232 C 458 270 471 303 498 329 C 524 355 561 369 608 369 C 653 369 687 359 710 339 C 732 319 744 294 744 266 C 744 239 739 217 730 200 C 720 182 710 168 700 157 L 625 81 L 754 81 L 754 0 Z" unicode="½" />
<glyph horiz-adv-x="763" d="M 12 0 L 12 0 Z M 641 730 L 288 0 L 189 0 L 542 730 L 641 730 Z M 447 80 L 447 147 L 629 364 L 694 364 L 694 151 L 751 151 L 751 80 L 694 80 L 694 1 L 602 1 L 602 80 L 447 80 Z M 527 142 L 604 142 L 604 236 L 527 142 Z M 236 569 C 262 564 282 553 298 537 C 313 520 321 500 321 477 C 321 465 318 452 314 439 C 309 426 301 414 289 403 C 277 391 262 382 242 375 C 222 367 197 364 167 364 C 123 364 90 369 66 379 C 42 389 24 400 12 410 L 63 464 C 73 457 86 451 101 445 C 116 439 135 437 157 437 C 184 437 203 442 214 452 C 225 462 231 474 231 490 C 231 506 223 516 209 521 C 195 525 178 528 158 528 L 87 528 L 87 598 L 152 598 C 170 598 184 600 196 606 C 207 612 213 621 213 633 C 213 643 208 651 199 657 C 189 663 176 666 158 666 C 141 666 125 662 109 656 C 93 650 81 643 73 635 L 24 687 C 36 699 54 712 76 724 C 98 736 131 742 173 742 C 213 742 245 733 269 717 C 293 701 306 678 306 650 C 306 629 298 611 284 597 C 270 583 254 573 236 569 Z" unicode="¾" />
<glyph horiz-adv-x="465" d="M 182 443 L 182 568 L 316 568 L 316 443 L 182 443 Z M 234 -162 C 170 -162 117 -146 77 -114 C 36 -82 16 -39 16 16 C 16 42 19 65 27 85 C 34 105 43 122 55 138 C 66 154 78 168 92 181 C 106 193 119 205 132 216 C 156 234 171 255 179 279 C 187 303 191 327 192 352 L 311 352 C 311 308 305 272 295 246 C 284 220 264 194 234 169 C 210 149 189 129 171 109 C 153 89 144 64 144 33 C 144 4 154 -18 175 -34 C 195 -50 221 -58 251 -58 C 278 -58 303 -51 325 -38 C 347 -24 365 -8 379 10 L 456 -62 C 434 -90 404 -113 366 -133 C 328 -152 284 -162 234 -162 Z" unicode="¿" />
<glyph horiz-adv-x="611" d="M 0 0 L 0 0 Z M 612 0 L 480 0 L 423 158 L 181 158 L 126 0 L -1 0 L 268 733 L 348 733 L 612 0 Z M 392 263 L 302 513 L 213 263 L 392 263 Z M 305 790 L 305 790 Z M 426 790 L 307 790 L 185 956 L 326 956 L 426 790 Z" unicode="À" />
<glyph horiz-adv-x="611" d="M 0 0 L 0 0 Z M 612 0 L 480 0 L 423 158 L 181 158 L 126 0 L -1 0 L 268 733 L 348 733 L 612 0 Z M 392 263 L 302 513 L 213 263 L 392 263 Z M 305 790 L 305 790 Z M 185 790 L 284 956 L 425 956 L 304 790 L 185 790 Z" unicode="Á" />
<glyph horiz-adv-x="611" d="M 0 0 L 0 0 Z M 612 0 L 480 0 L 423 158 L 181 158 L 126 0 L -1 0 L 268 733 L 348 733 L 612 0 Z M 392 263 L 302 513 L 213 263 L 392 263 Z M 305 791 L 305 791 Z M 478 791 L 372 791 L 305 885 L 237 791 L 133 791 L 248 964 L 363 964 L 478 791 Z" unicode="Â" />
<glyph horiz-adv-x="611" d="M 0 0 L 0 0 Z M 612 0 L 480 0 L 423 158 L 181 158 L 126 0 L -1 0 L 268 733 L 348 733 L 612 0 Z M 392 263 L 302 513 L 213 263 L 392 263 Z M 305 795 L 305 795 Z M 383 942 L 472 942 C 472 892 464 855 449 831 C 434 807 415 795 393 795 C 373 795 357 798 343 805 C 329 811 318 817 310 822 C 301 827 292 832 284 838 C 276 843 268 846 260 846 C 252 846 246 841 240 832 C 234 823 232 812 232 799 L 143 799 C 143 848 152 885 171 909 C 190 933 210 946 232 946 C 249 946 263 942 275 936 C 287 930 298 923 309 917 C 317 911 324 906 332 901 C 339 895 346 893 354 893 C 360 893 367 897 373 906 C 379 915 382 927 383 942 Z" unicode="Ã" />
<glyph horiz-adv-x="611" d="M 0 0 L 0 0 Z M 612 0 L 480 0 L 423 158 L 181 158 L 126 0 L -1 0 L 268 733 L 348 733 L 612 0 Z M 392 263 L 302 513 L 213 263 L 392 263 Z M 305 791 L 305 791 Z M 446 791 L 347 791 L 347 951 L 446 951 L 446 791 Z M 263 791 L 164 791 L 164 951 L 263 951 L 263 791 Z" unicode="Ä" />
<glyph horiz-adv-x="611" d="M 0 0 L 0 0 Z M 612 0 L 480 0 L 423 158 L 181 158 L 126 0 L -1 0 L 268 733 L 348 733 L 612 0 Z M 392 263 L 302 513 L 213 263 L 392 263 Z M 305 787 L 305 787 Z M 305 787 C 272 787 244 798 222 821 C 199 843 188 871 188 904 C 188 936 199 963 222 986 C 244 1008 272 1020 305 1020 C 337 1020 365 1008 388 986 C 411 963 423 936 423 904 C 423 871 411 843 388 821 C 365 798 337 787 305 787 Z M 305 852 C 319 852 331 857 341 867 C 350 877 355 889 355 903 C 355 917 350 929 341 939 C 331 949 319 954 305 954 C 291 954 279 949 269 939 C 259 929 255 917 255 903 C 255 889 259 877 269 867 C 279 857 291 852 305 852 Z" unicode="Å" />
<glyph horiz-adv-x="908" d="M 873 0 L 460 0 L 460 213 L 234 213 L 112 0 L -20 0 L 392 730 L 854 730 L 854 619 L 582 619 L 582 415 L 840 415 L 840 305 L 582 305 L 582 111 L 873 111 L 873 0 Z M 460 316 L 460 627 L 289 316 L 460 316 Z" unicode="Æ" />
<glyph horiz-adv-x="632" d="M 39 0 L 39 0 Z M 361 -10 C 315 -10 272 -1 233 14 C 193 30 159 54 131 86 C 102 118 79 157 63 204 C 47 251 39 305 39 365 C 39 420 46 471 62 517 C 78 563 100 602 128 635 C 156 668 191 694 231 712 C 271 730 316 740 364 740 C 430 740 482 729 522 707 C 562 685 594 656 619 622 L 530 543 C 514 564 493 583 467 599 C 441 615 408 623 368 623 C 304 623 256 600 222 554 C 188 508 172 444 172 361 C 172 315 177 275 188 243 C 199 210 214 183 232 163 C 250 142 272 127 296 118 C 320 108 345 104 371 104 C 413 104 448 112 476 129 C 504 145 527 167 546 194 L 628 127 C 601 85 565 52 521 27 C 476 2 423 -10 361 -10 Z M 347 0 L 347 0 Z M 354 -189 C 329 -189 304 -186 279 -180 C 254 -174 235 -166 222 -157 L 236 -106 C 244 -110 256 -115 271 -120 C 286 -125 302 -128 319 -128 C 330 -128 340 -125 349 -120 C 358 -114 363 -107 363 -99 C 363 -88 359 -81 351 -77 C 343 -73 334 -71 326 -71 C 319 -71 313 -71 308 -72 C 303 -73 298 -75 293 -77 L 275 -58 L 337 14 L 407 14 L 359 -46 C 391 -40 418 -44 440 -57 C 461 -69 472 -88 472 -112 C 472 -137 460 -156 436 -169 C 412 -182 384 -189 354 -189 Z" unicode="Ç" />
<glyph horiz-adv-x="530" d="M 77 0 L 77 0 Z M 496 0 L 77 0 L 77 730 L 477 730 L 477 616 L 204 616 L 204 418 L 462 418 L 462 305 L 204 305 L 204 114 L 496 114 L 496 0 Z M 278 790 L 278 790 Z M 399 790 L 280 790 L 158 956 L 299 956 L 399 790 Z" unicode="È" />
<glyph horiz-adv-x="530" d="M 77 0 L 77 0 Z M 496 0 L 77 0 L 77 730 L 477 730 L 477 616 L 204 616 L 204 418 L 462 418 L 462 305 L 204 305 L 204 114 L 496 114 L 496 0 Z M 278 790 L 278 790 Z M 158 790 L 257 956 L 398 956 L 277 790 L 158 790 Z" unicode="É" />
<glyph horiz-adv-x="530" d="M 77 0 L 77 0 Z M 496 0 L 77 0 L 77 730 L 477 730 L 477 616 L 204 616 L 204 418 L 462 418 L 462 305 L 204 305 L 204 114 L 496 114 L 496 0 Z M 278 791 L 278 791 Z M 451 791 L 345 791 L 278 885 L 210 791 L 106 791 L 221 964 L 336 964 L 451 791 Z" unicode="Ê" />
<glyph horiz-adv-x="530" d="M 77 0 L 77 0 Z M 496 0 L 77 0 L 77 730 L 477 730 L 477 616 L 204 616 L 204 418 L 462 418 L 462 305 L 204 305 L 204 114 L 496 114 L 496 0 Z M 278 791 L 278 791 Z M 419 791 L 320 791 L 320 951 L 419 951 L 419 791 Z M 236 791 L 137 791 L 137 951 L 236 951 L 236 791 Z" unicode="Ë" />
<glyph horiz-adv-x="292" d="M 26 0 L 26 0 Z M 212 0 L 81 0 L 81 730 L 212 730 L 212 0 Z M 146 790 L 146 790 Z M 267 790 L 148 790 L 26 956 L 167 956 L 267 790 Z" unicode="Ì" />
<glyph horiz-adv-x="292" d="M 26 0 L 26 0 Z M 212 0 L 81 0 L 81 730 L 212 730 L 212 0 Z M 146 790 L 146 790 Z M 26 790 L 125 956 L 266 956 L 145 790 L 26 790 Z" unicode="Í" />
<glyph horiz-adv-x="292" d="M 0 0 L 0 0 Z M 212 0 L 81 0 L 81 730 L 212 730 L 212 0 Z M 146 791 L 146 791 Z M 319 791 L 213 791 L 146 885 L 78 791 L -26 791 L 89 964 L 204 964 L 319 791 Z" unicode="Î" />
<glyph horiz-adv-x="292" d="M 5 0 L 5 0 Z M 212 0 L 81 0 L 81 730 L 212 730 L 212 0 Z M 146 791 L 146 791 Z M 287 791 L 188 791 L 188 951 L 287 951 L 287 791 Z M 104 791 L 5 791 L 5 951 L 104 951 L 104 791 Z" unicode="Ï" />
<glyph horiz-adv-x="685" d="M 646 365 C 646 314 638 266 622 222 C 606 178 583 139 553 106 C 523 73 485 47 439 28 C 393 9 341 0 281 0 L 77 0 L 77 308 L 27 308 L 27 408 L 77 408 L 77 730 L 295 730 C 352 730 403 721 447 704 C 491 686 527 662 557 630 C 586 598 608 560 623 515 C 638 469 646 419 646 365 Z M 205 108 L 282 108 C 323 108 358 114 387 128 C 416 141 440 159 458 183 C 476 206 490 233 499 264 C 507 295 512 328 512 363 C 512 446 493 510 455 554 C 417 598 365 621 297 621 L 205 621 L 205 408 L 352 408 L 352 308 L 205 308 L 205 108 Z" unicode="Ð" />
<glyph horiz-adv-x="695" d="M 77 0 L 77 0 Z M 618 0 L 530 0 L 199 476 L 199 0 L 77 0 L 77 730 L 172 730 L 497 259 L 497 730 L 618 730 L 618 0 Z M 348 795 L 348 795 Z M 426 942 L 515 942 C 515 892 507 855 492 831 C 477 807 458 795 436 795 C 416 795 400 798 386 805 C 372 811 361 817 353 822 C 344 827 335 832 327 838 C 319 843 311 846 303 846 C 295 846 289 841 283 832 C 277 823 275 812 275 799 L 186 799 C 186 848 195 885 214 909 C 233 933 253 946 275 946 C 292 946 306 942 318 936 C 330 930 341 923 352 917 C 360 911 367 906 375 901 C 382 895 389 893 397 893 C 403 893 410 897 416 906 C 422 915 425 927 426 942 Z" unicode="Ñ" />
<glyph horiz-adv-x="746" d="M 39 0 L 39 0 Z M 376 -10 C 323 -10 276 -1 234 17 C 192 35 156 60 128 93 C 99 126 77 166 62 213 C 46 260 39 312 39 370 C 39 424 47 473 64 519 C 80 565 103 604 133 636 C 162 668 197 694 237 712 C 277 730 321 740 369 740 C 419 740 466 731 508 714 C 550 696 585 672 615 640 C 644 608 667 569 683 523 C 699 477 708 425 708 367 C 708 310 699 258 682 212 C 664 165 641 125 611 93 C 581 60 546 35 506 17 C 465 -1 422 -10 376 -10 Z M 375 105 C 433 105 481 127 519 172 C 556 217 575 283 575 371 C 575 451 556 514 518 558 C 480 602 432 624 373 624 C 313 624 264 602 228 560 C 191 518 173 453 173 366 C 173 278 192 212 230 169 C 268 126 317 105 375 105 Z M 371 790 L 371 790 Z M 492 790 L 373 790 L 251 956 L 392 956 L 492 790 Z" unicode="Ò" />
<glyph horiz-adv-x="746" d="M 39 0 L 39 0 Z M 376 -10 C 323 -10 276 -1 234 17 C 192 35 156 60 128 93 C 99 126 77 166 62 213 C 46 260 39 312 39 370 C 39 424 47 473 64 519 C 80 565 103 604 133 636 C 162 668 197 694 237 712 C 277 730 321 740 369 740 C 419 740 466 731 508 714 C 550 696 585 672 615 640 C 644 608 667 569 683 523 C 699 477 708 425 708 367 C 708 310 699 258 682 212 C 664 165 641 125 611 93 C 581 60 546 35 506 17 C 465 -1 422 -10 376 -10 Z M 375 105 C 433 105 481 127 519 172 C 556 217 575 283 575 371 C 575 451 556 514 518 558 C 480 602 432 624 373 624 C 313 624 264 602 228 560 C 191 518 173 453 173 366 C 173 278 192 212 230 169 C 268 126 317 105 375 105 Z M 371 790 L 371 790 Z M 251 790 L 350 956 L 491 956 L 370 790 L 251 790 Z" unicode="Ó" />
<glyph horiz-adv-x="746" d="M 39 0 L 39 0 Z M 376 -10 C 323 -10 276 -1 234 17 C 192 35 156 60 128 93 C 99 126 77 166 62 213 C 46 260 39 312 39 370 C 39 424 47 473 64 519 C 80 565 103 604 133 636 C 162 668 197 694 237 712 C 277 730 321 740 369 740 C 419 740 466 731 508 714 C 550 696 585 672 615 640 C 644 608 667 569 683 523 C 699 477 708 425 708 367 C 708 310 699 258 682 212 C 664 165 641 125 611 93 C 581 60 546 35 506 17 C 465 -1 422 -10 376 -10 Z M 375 105 C 433 105 481 127 519 172 C 556 217 575 283 575 371 C 575 451 556 514 518 558 C 480 602 432 624 373 624 C 313 624 264 602 228 560 C 191 518 173 453 173 366 C 173 278 192 212 230 169 C 268 126 317 105 375 105 Z M 371 791 L 371 791 Z M 544 791 L 438 791 L 371 885 L 303 791 L 199 791 L 314 964 L 429 964 L 544 791 Z" unicode="Ô" />
<glyph horiz-adv-x="746" d="M 39 0 L 39 0 Z M 376 -10 C 323 -10 276 -1 234 17 C 192 35 156 60 128 93 C 99 126 77 166 62 213 C 46 260 39 312 39 370 C 39 424 47 473 64 519 C 80 565 103 604 133 636 C 162 668 197 694 237 712 C 277 730 321 740 369 740 C 419 740 466 731 508 714 C 550 696 585 672 615 640 C 644 608 667 569 683 523 C 699 477 708 425 708 367 C 708 310 699 258 682 212 C 664 165 641 125 611 93 C 581 60 546 35 506 17 C 465 -1 422 -10 376 -10 Z M 375 105 C 433 105 481 127 519 172 C 556 217 575 283 575 371 C 575 451 556 514 518 558 C 480 602 432 624 373 624 C 313 624 264 602 228 560 C 191 518 173 453 173 366 C 173 278 192 212 230 169 C 268 126 317 105 375 105 Z M 371 795 L 371 795 Z M 449 942 L 538 942 C 538 892 530 855 515 831 C 500 807 481 795 459 795 C 439 795 423 798 409 805 C 395 811 384 817 376 822 C 367 827 358 832 350 838 C 342 843 334 846 326 846 C 318 846 312 841 306 832 C 300 823 298 812 298 799 L 209 799 C 209 848 218 885 237 909 C 256 933 276 946 298 946 C 315 946 329 942 341 936 C 353 930 364 923 375 917 C 383 911 390 906 398 901 C 405 895 412 893 420 893 C 426 893 433 897 439 906 C 445 915 448 927 449 942 Z" unicode="Õ" />
<glyph horiz-adv-x="746" d="M 39 0 L 39 0 Z M 376 -10 C 323 -10 276 -1 234 17 C 192 35 156 60 128 93 C 99 126 77 166 62 213 C 46 260 39 312 39 370 C 39 424 47 473 64 519 C 80 565 103 604 133 636 C 162 668 197 694 237 712 C 277 730 321 740 369 740 C 419 740 466 731 508 714 C 550 696 585 672 615 640 C 644 608 667 569 683 523 C 699 477 708 425 708 367 C 708 310 699 258 682 212 C 664 165 641 125 611 93 C 581 60 546 35 506 17 C 465 -1 422 -10 376 -10 Z M 375 105 C 433 105 481 127 519 172 C 556 217 575 283 575 371 C 575 451 556 514 518 558 C 480 602 432 624 373 624 C 313 624 264 602 228 560 C 191 518 173 453 173 366 C 173 278 192 212 230 169 C 268 126 317 105 375 105 Z M 371 791 L 371 791 Z M 512 791 L 413 791 L 413 951 L 512 951 L 512 791 Z M 329 791 L 230 791 L 230 951 L 329 951 L 329 791 Z" unicode="Ö" />
<glyph horiz-adv-x="501" d="M 118 132 L 52 199 L 184 331 L 53 462 L 119 529 L 251 398 L 383 529 L 449 462 L 318 331 L 450 199 L 383 129 L 251 264 L 118 132 Z" unicode="×" />
<glyph horiz-adv-x="746" d="M 708 367 C 708 310 699 258 682 212 C 664 165 641 125 611 93 C 581 60 546 35 506 17 C 465 -1 422 -10 376 -10 C 330 -10 288 -3 250 10 C 212 24 180 43 152 69 L 89 -2 L 38 44 L 106 121 C 84 153 67 190 56 232 C 44 274 39 320 39 370 C 39 424 47 473 64 519 C 80 565 103 604 133 636 C 162 668 197 694 237 712 C 277 730 321 740 369 740 C 412 740 452 733 489 721 C 526 708 559 690 588 667 L 662 751 L 712 704 L 635 617 C 658 585 676 548 689 506 C 701 464 708 417 708 367 Z M 173 366 C 173 337 175 311 179 288 C 183 264 189 243 197 225 L 505 573 C 488 589 468 602 446 611 C 423 619 399 624 373 624 C 313 624 264 602 228 560 C 191 518 173 453 173 366 Z M 575 371 C 575 399 572 426 567 450 C 562 474 555 496 546 516 L 235 163 C 253 143 273 129 297 119 C 321 109 347 105 375 105 C 433 105 481 127 519 172 C 556 217 575 283 575 371 Z" unicode="Ø" />
<glyph horiz-adv-x="676" d="M 71 0 L 71 0 Z M 605 730 L 605 252 C 605 210 597 172 583 139 C 569 106 549 79 525 57 C 501 35 472 18 439 7 C 406 -4 371 -10 335 -10 C 299 -10 264 -4 232 6 C 200 17 172 33 148 55 C 124 77 106 104 92 137 C 78 170 71 208 71 252 L 71 730 L 197 730 L 197 245 C 197 201 210 166 236 141 C 262 116 295 104 335 104 C 375 104 408 116 436 140 C 463 164 477 199 477 245 L 477 730 L 605 730 Z M 337 790 L 337 790 Z M 458 790 L 339 790 L 217 956 L 358 956 L 458 790 Z" unicode="Ù" />
<glyph horiz-adv-x="676" d="M 71 0 L 71 0 Z M 605 730 L 605 252 C 605 210 597 172 583 139 C 569 106 549 79 525 57 C 501 35 472 18 439 7 C 406 -4 371 -10 335 -10 C 299 -10 264 -4 232 6 C 200 17 172 33 148 55 C 124 77 106 104 92 137 C 78 170 71 208 71 252 L 71 730 L 197 730 L 197 245 C 197 201 210 166 236 141 C 262 116 295 104 335 104 C 375 104 408 116 436 140 C 463 164 477 199 477 245 L 477 730 L 605 730 Z M 337 790 L 337 790 Z M 217 790 L 316 956 L 457 956 L 336 790 L 217 790 Z" unicode="Ú" />
<glyph horiz-adv-x="676" d="M 71 0 L 71 0 Z M 605 730 L 605 252 C 605 210 597 172 583 139 C 569 106 549 79 525 57 C 501 35 472 18 439 7 C 406 -4 371 -10 335 -10 C 299 -10 264 -4 232 6 C 200 17 172 33 148 55 C 124 77 106 104 92 137 C 78 170 71 208 71 252 L 71 730 L 197 730 L 197 245 C 197 201 210 166 236 141 C 262 116 295 104 335 104 C 375 104 408 116 436 140 C 463 164 477 199 477 245 L 477 730 L 605 730 Z M 337 791 L 337 791 Z M 510 791 L 404 791 L 337 885 L 269 791 L 165 791 L 280 964 L 395 964 L 510 791 Z" unicode="Û" />
<glyph horiz-adv-x="676" d="M 71 0 L 71 0 Z M 605 730 L 605 252 C 605 210 597 172 583 139 C 569 106 549 79 525 57 C 501 35 472 18 439 7 C 406 -4 371 -10 335 -10 C 299 -10 264 -4 232 6 C 200 17 172 33 148 55 C 124 77 106 104 92 137 C 78 170 71 208 71 252 L 71 730 L 197 730 L 197 245 C 197 201 210 166 236 141 C 262 116 295 104 335 104 C 375 104 408 116 436 140 C 463 164 477 199 477 245 L 477 730 L 605 730 Z M 337 791 L 337 791 Z M 478 791 L 379 791 L 379 951 L 478 951 L 478 791 Z M 295 791 L 196 791 L 196 951 L 295 951 L 295 791 Z" unicode="Ü" />
<glyph horiz-adv-x="599" d="M 0 0 L 0 0 Z M 603 730 L 362 317 L 362 0 L 232 0 L 232 322 L -3 730 L 138 730 L 303 442 L 469 730 L 603 730 Z M 301 790 L 301 790 Z M 181 790 L 280 956 L 421 956 L 300 790 L 181 790 Z" unicode="Ý" />
<glyph horiz-adv-x="559" d="M 77 0 L 77 730 L 207 730 L 207 603 L 312 603 C 379 603 433 582 475 541 C 516 500 537 446 537 379 C 537 309 515 253 473 210 C 430 167 375 146 308 146 L 207 146 L 207 0 L 77 0 Z M 206 255 L 297 255 C 331 255 358 266 379 288 C 399 310 410 341 410 379 C 410 417 398 445 375 465 C 352 484 324 494 292 494 L 206 494 L 206 255 Z" unicode="Þ" />
<glyph horiz-adv-x="611" d="M 430 -10 C 391 -10 356 -4 326 6 C 296 17 271 32 252 50 L 307 130 C 321 117 340 107 362 99 C 384 91 404 88 424 88 C 441 88 455 91 465 97 C 475 103 481 113 481 126 C 481 140 473 151 459 159 C 445 167 422 177 391 188 C 345 204 311 224 291 249 C 271 273 261 303 261 338 C 261 370 270 397 289 417 C 308 437 329 451 351 458 C 356 459 363 465 371 477 C 379 489 383 513 383 551 C 384 586 376 613 358 632 C 340 651 316 661 287 661 C 259 661 236 652 219 636 C 201 619 193 593 193 557 L 193 0 L 72 0 L 72 567 C 72 597 77 625 88 649 C 99 673 114 693 133 709 C 151 725 174 738 200 747 C 226 755 253 760 283 760 C 313 760 341 755 367 747 C 393 738 416 725 436 708 C 455 690 470 669 481 644 C 492 618 498 589 498 556 C 498 506 488 467 470 439 C 451 411 433 395 415 390 C 400 387 387 382 377 376 C 366 370 360 360 360 348 C 360 335 367 323 383 312 C 399 301 423 290 455 280 C 498 265 531 247 554 226 C 576 204 588 173 588 131 C 588 107 583 87 575 69 C 566 51 554 37 540 25 C 525 13 508 5 489 -1 C 470 -7 450 -10 430 -10 Z" unicode="ß" />
<glyph horiz-adv-x="451" d="M 16 0 L 16 0 Z M 406 0 L 296 0 L 296 50 C 283 33 266 19 244 7 C 222 -4 195 -10 163 -10 C 114 -10 77 3 53 31 C 28 58 16 92 16 132 C 16 179 33 215 68 240 C 103 265 151 279 213 282 L 291 286 L 291 296 C 291 314 284 329 272 340 C 259 350 239 356 213 356 C 186 356 162 352 141 344 C 119 336 103 327 93 319 L 52 395 C 68 407 91 419 121 430 C 150 441 187 447 232 447 C 281 447 322 435 356 411 C 389 387 406 350 406 298 L 406 0 Z M 293 121 L 293 203 L 226 200 C 197 199 174 193 157 183 C 140 172 132 157 132 138 C 132 120 138 107 150 98 C 162 89 178 85 196 85 C 218 85 238 88 255 96 C 272 104 285 112 293 121 Z M 220 496 L 220 496 Z M 341 496 L 222 496 L 100 662 L 241 662 L 341 496 Z" unicode="à" />
<glyph horiz-adv-x="451" d="M 16 0 L 16 0 Z M 406 0 L 296 0 L 296 50 C 283 33 266 19 244 7 C 222 -4 195 -10 163 -10 C 114 -10 77 3 53 31 C 28 58 16 92 16 132 C 16 179 33 215 68 240 C 103 265 151 279 213 282 L 291 286 L 291 296 C 291 314 284 329 272 340 C 259 350 239 356 213 356 C 186 356 162 352 141 344 C 119 336 103 327 93 319 L 52 395 C 68 407 91 419 121 430 C 150 441 187 447 232 447 C 281 447 322 435 356 411 C 389 387 406 350 406 298 L 406 0 Z M 293 121 L 293 203 L 226 200 C 197 199 174 193 157 183 C 140 172 132 157 132 138 C 132 120 138 107 150 98 C 162 89 178 85 196 85 C 218 85 238 88 255 96 C 272 104 285 112 293 121 Z M 220 496 L 220 496 Z M 100 496 L 199 662 L 340 662 L 219 496 L 100 496 Z" unicode="á" />
<glyph horiz-adv-x="451" d="M 16 0 L 16 0 Z M 406 0 L 296 0 L 296 50 C 283 33 266 19 244 7 C 222 -4 195 -10 163 -10 C 114 -10 77 3 53 31 C 28 58 16 92 16 132 C 16 179 33 215 68 240 C 103 265 151 279 213 282 L 291 286 L 291 296 C 291 314 284 329 272 340 C 259 350 239 356 213 356 C 186 356 162 352 141 344 C 119 336 103 327 93 319 L 52 395 C 68 407 91 419 121 430 C 150 441 187 447 232 447 C 281 447 322 435 356 411 C 389 387 406 350 406 298 L 406 0 Z M 293 121 L 293 203 L 226 200 C 197 199 174 193 157 183 C 140 172 132 157 132 138 C 132 120 138 107 150 98 C 162 89 178 85 196 85 C 218 85 238 88 255 96 C 272 104 285 112 293 121 Z M 220 497 L 220 497 Z M 393 497 L 287 497 L 220 591 L 152 497 L 48 497 L 163 670 L 278 670 L 393 497 Z" unicode="â" />
<glyph horiz-adv-x="451" d="M 16 0 L 16 0 Z M 406 0 L 296 0 L 296 50 C 283 33 266 19 244 7 C 222 -4 195 -10 163 -10 C 114 -10 77 3 53 31 C 28 58 16 92 16 132 C 16 179 33 215 68 240 C 103 265 151 279 213 282 L 291 286 L 291 296 C 291 314 284 329 272 340 C 259 350 239 356 213 356 C 186 356 162 352 141 344 C 119 336 103 327 93 319 L 52 395 C 68 407 91 419 121 430 C 150 441 187 447 232 447 C 281 447 322 435 356 411 C 389 387 406 350 406 298 L 406 0 Z M 293 121 L 293 203 L 226 200 C 197 199 174 193 157 183 C 140 172 132 157 132 138 C 132 120 138 107 150 98 C 162 89 178 85 196 85 C 218 85 238 88 255 96 C 272 104 285 112 293 121 Z M 220 501 L 220 501 Z M 298 648 L 387 648 C 387 598 379 561 364 537 C 349 513 330 501 308 501 C 288 501 272 504 258 511 C 244 517 233 523 225 528 C 216 533 207 538 199 544 C 191 549 183 552 175 552 C 167 552 161 547 155 538 C 149 529 147 518 147 505 L 58 505 C 58 554 67 591 86 615 C 105 639 125 652 147 652 C 164 652 178 648 190 642 C 202 636 213 629 224 623 C 232 617 239 612 247 607 C 254 601 261 599 269 599 C 275 599 282 603 288 612 C 294 621 297 633 298 648 Z" unicode="ã" />
<glyph horiz-adv-x="451" d="M 16 0 L 16 0 Z M 406 0 L 296 0 L 296 50 C 283 33 266 19 244 7 C 222 -4 195 -10 163 -10 C 114 -10 77 3 53 31 C 28 58 16 92 16 132 C 16 179 33 215 68 240 C 103 265 151 279 213 282 L 291 286 L 291 296 C 291 314 284 329 272 340 C 259 350 239 356 213 356 C 186 356 162 352 141 344 C 119 336 103 327 93 319 L 52 395 C 68 407 91 419 121 430 C 150 441 187 447 232 447 C 281 447 322 435 356 411 C 389 387 406 350 406 298 L 406 0 Z M 293 121 L 293 203 L 226 200 C 197 199 174 193 157 183 C 140 172 132 157 132 138 C 132 120 138 107 150 98 C 162 89 178 85 196 85 C 218 85 238 88 255 96 C 272 104 285 112 293 121 Z M 220 497 L 220 497 Z M 361 497 L 262 497 L 262 657 L 361 657 L 361 497 Z M 178 497 L 79 497 L 79 657 L 178 657 L 178 497 Z" unicode="ä" />
<glyph horiz-adv-x="451" d="M 16 0 L 16 0 Z M 406 0 L 296 0 L 296 50 C 283 33 266 19 244 7 C 222 -4 195 -10 163 -10 C 114 -10 77 3 53 31 C 28 58 16 92 16 132 C 16 179 33 215 68 240 C 103 265 151 279 213 282 L 291 286 L 291 296 C 291 314 284 329 272 340 C 259 350 239 356 213 356 C 186 356 162 352 141 344 C 119 336 103 327 93 319 L 52 395 C 68 407 91 419 121 430 C 150 441 187 447 232 447 C 281 447 322 435 356 411 C 389 387 406 350 406 298 L 406 0 Z M 293 121 L 293 203 L 226 200 C 197 199 174 193 157 183 C 140 172 132 157 132 138 C 132 120 138 107 150 98 C 162 89 178 85 196 85 C 218 85 238 88 255 96 C 272 104 285 112 293 121 Z M 220 493 L 220 493 Z M 220 493 C 187 493 159 504 137 527 C 114 549 103 577 103 610 C 103 642 114 669 137 692 C 159 714 187 726 220 726 C 252 726 280 714 303 692 C 326 669 338 642 338 610 C 338 577 326 549 303 527 C 280 504 252 493 220 493 Z M 220 558 C 234 558 246 563 256 573 C 265 583 270 595 270 609 C 270 623 265 635 256 645 C 246 655 234 660 220 660 C 206 660 194 655 184 645 C 174 635 170 623 170 609 C 170 595 174 583 184 573 C 194 563 206 558 220 558 Z" unicode="å" />
<glyph horiz-adv-x="734" d="M 518 -9 C 470 -9 433 0 405 15 C 377 31 356 51 344 74 C 330 51 308 31 276 15 C 244 -1 208 -10 167 -10 C 120 -10 83 3 56 29 C 29 55 16 89 16 131 C 16 177 33 213 68 239 C 103 265 152 279 214 282 L 298 286 L 298 296 C 298 316 289 331 273 341 C 257 351 236 356 212 356 C 185 356 161 351 140 343 C 118 335 102 326 92 318 L 52 394 C 69 408 93 421 123 431 C 153 441 186 446 222 446 C 257 446 288 440 314 428 C 340 416 357 401 367 385 C 378 401 396 416 421 428 C 446 440 478 446 517 446 C 581 446 630 422 666 375 C 702 327 720 264 720 185 L 410 185 C 412 151 422 126 440 109 C 458 91 485 83 521 83 C 552 83 576 87 593 96 C 610 105 625 116 638 130 L 702 66 C 682 44 659 26 631 12 C 603 -2 566 -9 518 -9 Z M 412 266 L 607 266 C 606 290 597 311 579 329 C 561 346 537 355 507 355 C 477 355 454 346 439 329 C 423 312 414 291 412 266 Z M 201 85 C 227 85 249 91 267 104 C 285 116 297 131 301 148 L 301 204 L 226 201 C 198 199 176 194 158 184 C 140 174 132 159 132 139 C 132 119 138 105 152 97 C 166 89 182 85 201 85 Z" unicode="æ" />
<glyph horiz-adv-x="431" d="M 24 0 L 24 0 Z M 340 145 L 427 90 C 412 64 390 41 361 21 C 332 1 292 -9 240 -9 C 206 -9 176 -3 150 8 C 123 19 100 35 82 55 C 63 75 49 99 39 127 C 29 155 24 185 24 218 C 24 250 29 281 40 309 C 51 337 66 361 86 381 C 105 401 128 416 156 428 C 183 440 213 446 246 446 C 294 446 333 436 363 416 C 393 396 415 374 429 350 L 337 291 C 328 307 316 320 302 330 C 288 340 270 345 248 345 C 219 345 195 333 177 310 C 158 286 149 256 149 218 C 149 176 158 144 178 122 C 197 100 222 89 252 89 C 276 89 295 95 309 107 C 322 119 332 132 340 145 Z M 232 0 L 232 0 Z M 239 -189 C 214 -189 189 -186 164 -180 C 139 -174 120 -166 107 -157 L 121 -106 C 129 -110 141 -115 156 -120 C 171 -125 187 -128 204 -128 C 215 -128 225 -125 234 -120 C 243 -114 248 -107 248 -99 C 248 -88 244 -81 236 -77 C 228 -73 219 -71 211 -71 C 204 -71 198 -71 193 -72 C 188 -73 183 -75 178 -77 L 160 -58 L 222 14 L 292 14 L 244 -46 C 276 -40 303 -44 325 -57 C 346 -69 357 -88 357 -112 C 357 -137 345 -156 321 -169 C 297 -182 269 -189 239 -189 Z" unicode="ç" />
<glyph horiz-adv-x="470" d="M 25 0 L 25 0 Z M 250 -9 C 217 -9 187 -4 159 6 C 131 16 108 30 88 49 C 68 68 53 91 42 119 C 30 147 25 178 25 214 C 25 248 30 279 41 308 C 52 336 67 361 87 381 C 106 401 129 417 156 429 C 183 440 212 446 244 446 C 310 446 361 423 399 379 C 436 334 455 269 455 184 L 139 184 C 140 151 151 126 171 109 C 191 91 219 83 255 83 C 287 83 312 87 330 97 C 348 107 362 118 373 130 L 437 66 C 419 46 397 29 369 14 C 341 -1 302 -9 250 -9 Z M 143 268 L 341 268 C 339 292 330 313 314 330 C 297 346 274 355 245 355 C 215 355 191 346 173 330 C 155 313 145 292 143 268 Z M 241 496 L 241 496 Z M 362 496 L 243 496 L 121 662 L 262 662 L 362 496 Z" unicode="è" />
<glyph horiz-adv-x="470" d="M 25 0 L 25 0 Z M 250 -9 C 217 -9 187 -4 159 6 C 131 16 108 30 88 49 C 68 68 53 91 42 119 C 30 147 25 178 25 214 C 25 248 30 279 41 308 C 52 336 67 361 87 381 C 106 401 129 417 156 429 C 183 440 212 446 244 446 C 310 446 361 423 399 379 C 436 334 455 269 455 184 L 139 184 C 140 151 151 126 171 109 C 191 91 219 83 255 83 C 287 83 312 87 330 97 C 348 107 362 118 373 130 L 437 66 C 419 46 397 29 369 14 C 341 -1 302 -9 250 -9 Z M 143 268 L 341 268 C 339 292 330 313 314 330 C 297 346 274 355 245 355 C 215 355 191 346 173 330 C 155 313 145 292 143 268 Z M 241 496 L 241 496 Z M 121 496 L 220 662 L 361 662 L 240 496 L 121 496 Z" unicode="é" />
<glyph horiz-adv-x="470" d="M 25 0 L 25 0 Z M 250 -9 C 217 -9 187 -4 159 6 C 131 16 108 30 88 49 C 68 68 53 91 42 119 C 30 147 25 178 25 214 C 25 248 30 279 41 308 C 52 336 67 361 87 381 C 106 401 129 417 156 429 C 183 440 212 446 244 446 C 310 446 361 423 399 379 C 436 334 455 269 455 184 L 139 184 C 140 151 151 126 171 109 C 191 91 219 83 255 83 C 287 83 312 87 330 97 C 348 107 362 118 373 130 L 437 66 C 419 46 397 29 369 14 C 341 -1 302 -9 250 -9 Z M 143 268 L 341 268 C 339 292 330 313 314 330 C 297 346 274 355 245 355 C 215 355 191 346 173 330 C 155 313 145 292 143 268 Z M 241 497 L 241 497 Z M 414 497 L 308 497 L 241 591 L 173 497 L 69 497 L 184 670 L 299 670 L 414 497 Z" unicode="ê" />
<glyph horiz-adv-x="470" d="M 25 0 L 25 0 Z M 250 -9 C 217 -9 187 -4 159 6 C 131 16 108 30 88 49 C 68 68 53 91 42 119 C 30 147 25 178 25 214 C 25 248 30 279 41 308 C 52 336 67 361 87 381 C 106 401 129 417 156 429 C 183 440 212 446 244 446 C 310 446 361 423 399 379 C 436 334 455 269 455 184 L 139 184 C 140 151 151 126 171 109 C 191 91 219 83 255 83 C 287 83 312 87 330 97 C 348 107 362 118 373 130 L 437 66 C 419 46 397 29 369 14 C 341 -1 302 -9 250 -9 Z M 143 268 L 341 268 C 339 292 330 313 314 330 C 297 346 274 355 245 355 C 215 355 191 346 173 330 C 155 313 145 292 143 268 Z M 241 497 L 241 497 Z M 382 497 L 283 497 L 283 657 L 382 657 L 382 497 Z M 199 497 L 100 497 L 100 657 L 199 657 L 199 497 Z" unicode="ë" />
<glyph horiz-adv-x="227" d="M 0 0 L 0 0 Z M 174 0 L 54 0 L 54 436 L 174 436 L 174 0 Z M 113 496 L 113 496 Z M 234 496 L 115 496 L -7 662 L 134 662 L 234 496 Z" unicode="ì" />
<glyph horiz-adv-x="227" d="M 0 0 L 0 0 Z M 174 0 L 54 0 L 54 436 L 174 436 L 174 0 Z M 113 496 L 113 496 Z M -7 496 L 92 662 L 233 662 L 112 496 L -7 496 Z" unicode="í" />
<glyph horiz-adv-x="227" d="M 0 0 L 0 0 Z M 174 0 L 54 0 L 54 436 L 174 436 L 174 0 Z M 113 497 L 113 497 Z M 286 497 L 180 497 L 113 591 L 45 497 L -59 497 L 56 670 L 171 670 L 286 497 Z" unicode="î" />
<glyph horiz-adv-x="227" d="M 0 0 L 0 0 Z M 174 0 L 54 0 L 54 436 L 174 436 L 174 0 Z M 113 497 L 113 497 Z M 254 497 L 155 497 L 155 657 L 254 657 L 254 497 Z M 71 497 L -28 497 L -28 657 L 71 657 L 71 497 Z" unicode="ï" />
<glyph horiz-adv-x="513" d="M 483 260 C 483 222 478 187 468 154 C 458 121 443 92 423 68 C 403 44 379 25 350 11 C 321 -3 288 -10 251 -10 C 218 -10 188 -4 160 6 C 132 16 109 31 89 51 C 69 71 53 95 42 124 C 30 152 25 184 25 220 C 25 254 31 286 43 314 C 55 342 72 365 92 385 C 112 404 135 419 161 429 C 187 439 213 445 241 445 C 269 445 294 440 317 430 C 339 420 356 409 367 398 C 362 430 353 461 339 492 C 325 522 310 551 292 578 L 178 545 L 152 619 L 241 644 C 225 662 209 678 195 692 C 181 705 169 715 160 722 L 260 764 C 272 754 286 741 302 726 C 317 711 333 694 349 675 L 426 697 L 451 623 L 395 607 C 419 565 440 516 457 458 C 474 400 483 334 483 260 Z M 250 86 C 284 86 311 97 330 121 C 349 145 359 177 359 218 C 359 262 349 294 331 316 C 313 338 287 349 254 349 C 221 349 195 337 175 313 C 155 289 146 258 146 219 C 146 177 155 144 175 121 C 194 97 219 86 250 86 Z" unicode="ð" />
<glyph horiz-adv-x="497" d="M 49 0 L 49 0 Z M 452 0 L 333 0 L 333 277 C 333 299 326 316 313 329 C 299 342 280 349 256 349 C 232 349 211 341 194 327 C 177 312 169 289 169 257 L 169 0 L 49 0 L 49 436 L 162 436 L 162 373 C 172 394 190 412 215 426 C 239 440 268 447 301 447 C 347 447 383 434 411 409 C 438 383 452 348 452 304 L 452 0 Z M 248 501 L 248 501 Z M 326 648 L 415 648 C 415 598 407 561 392 537 C 377 513 358 501 336 501 C 316 501 300 504 286 511 C 272 517 261 523 253 528 C 244 533 235 538 227 544 C 219 549 211 552 203 552 C 195 552 189 547 183 538 C 177 529 175 518 175 505 L 86 505 C 86 554 95 591 114 615 C 133 639 153 652 175 652 C 192 652 206 648 218 642 C 230 636 241 629 252 623 C 260 617 267 612 275 607 C 282 601 289 599 297 599 C 303 599 310 603 316 612 C 322 621 325 633 326 648 Z" unicode="ñ" />
<glyph horiz-adv-x="498" d="M 24 0 L 24 0 Z M 246 -9 C 217 -9 189 -4 163 6 C 136 16 112 30 92 50 C 71 69 54 93 42 121 C 30 149 24 181 24 217 C 24 249 29 280 41 308 C 53 336 69 360 89 380 C 109 400 132 416 159 428 C 185 440 213 446 243 446 C 274 446 304 441 332 431 C 360 421 384 406 405 388 C 426 369 443 346 455 319 C 467 292 474 262 474 229 C 474 193 468 161 456 132 C 444 102 428 77 408 57 C 388 36 364 20 336 8 C 308 -3 278 -9 246 -9 Z M 249 86 C 279 86 304 97 322 120 C 340 143 349 177 349 223 C 349 263 339 294 321 316 C 303 338 277 350 243 350 C 215 350 193 339 175 317 C 157 295 149 263 149 219 C 149 172 158 138 177 117 C 195 96 219 86 249 86 Z M 243 496 L 243 496 Z M 364 496 L 245 496 L 123 662 L 264 662 L 364 496 Z" unicode="ò" />
<glyph horiz-adv-x="498" d="M 24 0 L 24 0 Z M 246 -9 C 217 -9 189 -4 163 6 C 136 16 112 30 92 50 C 71 69 54 93 42 121 C 30 149 24 181 24 217 C 24 249 29 280 41 308 C 53 336 69 360 89 380 C 109 400 132 416 159 428 C 185 440 213 446 243 446 C 274 446 304 441 332 431 C 360 421 384 406 405 388 C 426 369 443 346 455 319 C 467 292 474 262 474 229 C 474 193 468 161 456 132 C 444 102 428 77 408 57 C 388 36 364 20 336 8 C 308 -3 278 -9 246 -9 Z M 249 86 C 279 86 304 97 322 120 C 340 143 349 177 349 223 C 349 263 339 294 321 316 C 303 338 277 350 243 350 C 215 350 193 339 175 317 C 157 295 149 263 149 219 C 149 172 158 138 177 117 C 195 96 219 86 249 86 Z M 243 496 L 243 496 Z M 123 496 L 222 662 L 363 662 L 242 496 L 123 496 Z" unicode="ó" />
<glyph horiz-adv-x="498" d="M 24 0 L 24 0 Z M 246 -9 C 217 -9 189 -4 163 6 C 136 16 112 30 92 50 C 71 69 54 93 42 121 C 30 149 24 181 24 217 C 24 249 29 280 41 308 C 53 336 69 360 89 380 C 109 400 132 416 159 428 C 185 440 213 446 243 446 C 274 446 304 441 332 431 C 360 421 384 406 405 388 C 426 369 443 346 455 319 C 467 292 474 262 474 229 C 474 193 468 161 456 132 C 444 102 428 77 408 57 C 388 36 364 20 336 8 C 308 -3 278 -9 246 -9 Z M 249 86 C 279 86 304 97 322 120 C 340 143 349 177 349 223 C 349 263 339 294 321 316 C 303 338 277 350 243 350 C 215 350 193 339 175 317 C 157 295 149 263 149 219 C 149 172 158 138 177 117 C 195 96 219 86 249 86 Z M 243 497 L 243 497 Z M 416 497 L 310 497 L 243 591 L 175 497 L 71 497 L 186 670 L 301 670 L 416 497 Z" unicode="ô" />
<glyph horiz-adv-x="498" d="M 24 0 L 24 0 Z M 246 -9 C 217 -9 189 -4 163 6 C 136 16 112 30 92 50 C 71 69 54 93 42 121 C 30 149 24 181 24 217 C 24 249 29 280 41 308 C 53 336 69 360 89 380 C 109 400 132 416 159 428 C 185 440 213 446 243 446 C 274 446 304 441 332 431 C 360 421 384 406 405 388 C 426 369 443 346 455 319 C 467 292 474 262 474 229 C 474 193 468 161 456 132 C 444 102 428 77 408 57 C 388 36 364 20 336 8 C 308 -3 278 -9 246 -9 Z M 249 86 C 279 86 304 97 322 120 C 340 143 349 177 349 223 C 349 263 339 294 321 316 C 303 338 277 350 243 350 C 215 350 193 339 175 317 C 157 295 149 263 149 219 C 149 172 158 138 177 117 C 195 96 219 86 249 86 Z M 243 501 L 243 501 Z M 321 648 L 410 648 C 410 598 402 561 387 537 C 372 513 353 501 331 501 C 311 501 295 504 281 511 C 267 517 256 523 248 528 C 239 533 230 538 222 544 C 214 549 206 552 198 552 C 190 552 184 547 178 538 C 172 529 170 518 170 505 L 81 505 C 81 554 90 591 109 615 C 128 639 148 652 170 652 C 187 652 201 648 213 642 C 225 636 236 629 247 623 C 255 617 262 612 270 607 C 277 601 284 599 292 599 C 298 599 305 603 311 612 C 317 621 320 633 321 648 Z" unicode="õ" />
<glyph horiz-adv-x="498" d="M 24 0 L 24 0 Z M 246 -9 C 217 -9 189 -4 163 6 C 136 16 112 30 92 50 C 71 69 54 93 42 121 C 30 149 24 181 24 217 C 24 249 29 280 41 308 C 53 336 69 360 89 380 C 109 400 132 416 159 428 C 185 440 213 446 243 446 C 274 446 304 441 332 431 C 360 421 384 406 405 388 C 426 369 443 346 455 319 C 467 292 474 262 474 229 C 474 193 468 161 456 132 C 444 102 428 77 408 57 C 388 36 364 20 336 8 C 308 -3 278 -9 246 -9 Z M 249 86 C 279 86 304 97 322 120 C 340 143 349 177 349 223 C 349 263 339 294 321 316 C 303 338 277 350 243 350 C 215 350 193 339 175 317 C 157 295 149 263 149 219 C 149 172 158 138 177 117 C 195 96 219 86 249 86 Z M 243 497 L 243 497 Z M 384 497 L 285 497 L 285 657 L 384 657 L 384 497 Z M 201 497 L 102 497 L 102 657 L 201 657 L 201 497 Z" unicode="ö" />
<glyph horiz-adv-x="500" d="M 194 448 L 194 573 L 306 573 L 306 448 L 194 448 Z M 23 279 L 23 382 L 477 382 L 477 279 L 23 279 Z M 194 87 L 194 211 L 306 211 L 306 87 L 194 87 Z" unicode="÷" />
<glyph horiz-adv-x="498" d="M 474 229 C 474 193 468 161 456 132 C 444 102 428 77 408 57 C 388 36 364 20 336 8 C 308 -3 278 -9 246 -9 C 221 -9 197 -5 174 2 C 151 9 130 20 111 34 L 72 -8 L 35 29 L 73 70 C 58 88 46 110 37 135 C 28 159 24 187 24 217 C 24 249 29 280 41 308 C 53 336 69 360 89 380 C 109 400 132 416 159 428 C 185 440 213 446 243 446 C 269 446 295 442 320 435 C 344 427 366 417 386 403 L 428 448 L 465 411 L 425 368 C 440 350 452 329 461 306 C 469 282 474 257 474 229 Z M 149 219 C 149 207 149 196 151 186 C 152 176 154 166 156 158 L 313 326 C 304 334 294 340 282 344 C 270 348 257 350 243 350 C 215 350 193 339 175 317 C 157 295 149 263 149 219 Z M 349 223 C 349 233 348 243 347 253 C 345 262 343 271 341 279 L 183 110 C 191 102 201 96 213 92 C 224 88 236 86 249 86 C 279 86 304 97 322 120 C 340 143 349 177 349 223 Z" unicode="ø" />
<glyph horiz-adv-x="498" d="M 46 0 L 46 0 Z M 46 436 L 164 436 L 164 158 C 164 134 171 116 185 104 C 199 92 218 86 242 86 C 266 86 287 93 304 108 C 320 122 329 145 329 176 L 329 436 L 448 436 L 448 0 L 333 0 L 333 62 C 320 40 301 23 276 11 C 251 -1 223 -8 193 -8 C 152 -8 117 4 89 29 C 60 54 46 91 46 139 L 46 436 Z M 247 496 L 247 496 Z M 368 496 L 249 496 L 127 662 L 268 662 L 368 496 Z" unicode="ù" />
<glyph horiz-adv-x="498" d="M 46 0 L 46 0 Z M 46 436 L 164 436 L 164 158 C 164 134 171 116 185 104 C 199 92 218 86 242 86 C 266 86 287 93 304 108 C 320 122 329 145 329 176 L 329 436 L 448 436 L 448 0 L 333 0 L 333 62 C 320 40 301 23 276 11 C 251 -1 223 -8 193 -8 C 152 -8 117 4 89 29 C 60 54 46 91 46 139 L 46 436 Z M 247 496 L 247 496 Z M 127 496 L 226 662 L 367 662 L 246 496 L 127 496 Z" unicode="ú" />
<glyph horiz-adv-x="498" d="M 46 0 L 46 0 Z M 46 436 L 164 436 L 164 158 C 164 134 171 116 185 104 C 199 92 218 86 242 86 C 266 86 287 93 304 108 C 320 122 329 145 329 176 L 329 436 L 448 436 L 448 0 L 333 0 L 333 62 C 320 40 301 23 276 11 C 251 -1 223 -8 193 -8 C 152 -8 117 4 89 29 C 60 54 46 91 46 139 L 46 436 Z M 247 497 L 247 497 Z M 420 497 L 314 497 L 247 591 L 179 497 L 75 497 L 190 670 L 305 670 L 420 497 Z" unicode="û" />
<glyph horiz-adv-x="498" d="M 46 0 L 46 0 Z M 46 436 L 164 436 L 164 158 C 164 134 171 116 185 104 C 199 92 218 86 242 86 C 266 86 287 93 304 108 C 320 122 329 145 329 176 L 329 436 L 448 436 L 448 0 L 333 0 L 333 62 C 320 40 301 23 276 11 C 251 -1 223 -8 193 -8 C 152 -8 117 4 89 29 C 60 54 46 91 46 139 L 46 436 Z M 247 497 L 247 497 Z M 388 497 L 289 497 L 289 657 L 388 657 L 388 497 Z M 205 497 L 106 497 L 106 657 L 205 657 L 205 497 Z" unicode="ü" />
<glyph horiz-adv-x="450" d="M 0 0 L 0 0 Z M 454 436 L 222 -94 C 203 -136 179 -164 151 -178 C 122 -192 94 -200 67 -200 C 51 -200 38 -198 26 -195 C 14 -191 5 -188 -1 -186 L 31 -86 C 33 -87 39 -89 47 -91 C 55 -93 62 -95 70 -95 C 84 -95 95 -90 105 -82 C 115 -74 124 -59 134 -39 L 169 43 L -5 436 L 124 436 L 230 174 L 336 436 L 454 436 Z M 227 496 L 227 496 Z M 107 496 L 206 662 L 347 662 L 226 496 L 107 496 Z" unicode="ý" />
<glyph horiz-adv-x="506" d="M 49 -200 L 49 750 L 162 750 L 162 368 C 168 386 184 404 210 420 C 235 436 266 445 302 445 C 329 445 354 439 376 429 C 398 418 416 403 432 385 C 448 366 460 344 468 318 C 476 292 481 263 481 233 C 481 195 476 162 466 132 C 456 102 442 77 426 57 C 409 37 389 21 367 11 C 345 0 322 -5 299 -5 C 266 -5 238 1 214 13 C 190 25 173 38 165 53 L 165 -200 L 49 -200 Z M 262 82 C 290 82 313 93 331 115 C 348 137 357 171 357 215 C 357 256 349 289 333 315 C 317 340 292 353 260 353 C 233 353 210 342 191 320 C 172 298 163 262 163 211 C 163 163 172 130 192 111 C 212 91 235 82 262 82 Z" unicode="þ" />
<glyph horiz-adv-x="450" d="M 0 0 L 0 0 Z M 454 436 L 222 -94 C 203 -136 179 -164 151 -178 C 122 -192 94 -200 67 -200 C 51 -200 38 -198 26 -195 C 14 -191 5 -188 -1 -186 L 31 -86 C 33 -87 39 -89 47 -91 C 55 -93 62 -95 70 -95 C 84 -95 95 -90 105 -82 C 115 -74 124 -59 134 -39 L 169 43 L -5 436 L 124 436 L 230 174 L 336 436 L 454 436 Z M 227 497 L 227 497 Z M 368 497 L 269 497 L 269 657 L 368 657 L 368 497 Z M 185 497 L 86 497 L 86 657 L 185 657 L 185 497 Z" unicode="ÿ" />
<glyph horiz-adv-x="611" d="M 0 0 L 0 0 Z M 612 0 L 480 0 L 423 158 L 181 158 L 126 0 L -1 0 L 268 733 L 348 733 L 612 0 Z M 392 263 L 302 513 L 213 263 L 392 263 Z M 305 809 L 305 809 Z M 440 809 L 170 809 L 170 897 L 440 897 L 440 809 Z" unicode="Ā" />
<glyph horiz-adv-x="451" d="M 16 0 L 16 0 Z M 406 0 L 296 0 L 296 50 C 283 33 266 19 244 7 C 222 -4 195 -10 163 -10 C 114 -10 77 3 53 31 C 28 58 16 92 16 132 C 16 179 33 215 68 240 C 103 265 151 279 213 282 L 291 286 L 291 296 C 291 314 284 329 272 340 C 259 350 239 356 213 356 C 186 356 162 352 141 344 C 119 336 103 327 93 319 L 52 395 C 68 407 91 419 121 430 C 150 441 187 447 232 447 C 281 447 322 435 356 411 C 389 387 406 350 406 298 L 406 0 Z M 293 121 L 293 203 L 226 200 C 197 199 174 193 157 183 C 140 172 132 157 132 138 C 132 120 138 107 150 98 C 162 89 178 85 196 85 C 218 85 238 88 255 96 C 272 104 285 112 293 121 Z M 220 515 L 220 515 Z M 355 515 L 85 515 L 85 603 L 355 603 L 355 515 Z" unicode="ā" />
<glyph horiz-adv-x="611" d="M 0 0 L 0 0 Z M 612 0 L 480 0 L 423 158 L 181 158 L 126 0 L -1 0 L 268 733 L 348 733 L 612 0 Z M 392 263 L 302 513 L 213 263 L 392 263 Z M 305 793 L 305 793 Z M 366 953 L 465 953 C 461 897 444 857 415 831 C 385 805 349 793 305 793 C 261 793 224 805 195 831 C 165 857 149 897 145 953 L 244 953 C 246 925 251 903 260 887 C 269 871 284 864 305 864 C 325 864 340 871 350 886 C 359 901 364 923 366 953 Z" unicode="Ă" />
<glyph horiz-adv-x="451" d="M 16 0 L 16 0 Z M 406 0 L 296 0 L 296 50 C 283 33 266 19 244 7 C 222 -4 195 -10 163 -10 C 114 -10 77 3 53 31 C 28 58 16 92 16 132 C 16 179 33 215 68 240 C 103 265 151 279 213 282 L 291 286 L 291 296 C 291 314 284 329 272 340 C 259 350 239 356 213 356 C 186 356 162 352 141 344 C 119 336 103 327 93 319 L 52 395 C 68 407 91 419 121 430 C 150 441 187 447 232 447 C 281 447 322 435 356 411 C 389 387 406 350 406 298 L 406 0 Z M 293 121 L 293 203 L 226 200 C 197 199 174 193 157 183 C 140 172 132 157 132 138 C 132 120 138 107 150 98 C 162 89 178 85 196 85 C 218 85 238 88 255 96 C 272 104 285 112 293 121 Z M 220 499 L 220 499 Z M 281 659 L 380 659 C 376 603 359 563 330 537 C 300 511 264 499 220 499 C 176 499 139 511 110 537 C 80 563 64 603 60 659 L 159 659 C 161 631 166 609 175 593 C 184 577 199 570 220 570 C 240 570 255 577 265 592 C 274 607 279 629 281 659 Z" unicode="ă" />
<glyph horiz-adv-x="611" d="M 0 0 L 0 0 Z M 612 0 L 480 0 L 423 158 L 181 158 L 126 0 L -1 0 L 268 733 L 348 733 L 612 0 Z M 392 263 L 302 513 L 213 263 L 392 263 Z M 487 -7 L 487 -7 Z M 588 -82 L 620 -133 C 599 -155 576 -171 551 -182 C 525 -193 497 -199 466 -199 C 431 -199 404 -191 384 -177 C 364 -162 354 -143 354 -121 C 354 -96 365 -72 388 -50 C 410 -28 442 -9 483 6 L 541 6 C 517 -5 497 -18 481 -32 C 465 -46 457 -59 457 -72 C 457 -84 461 -93 470 -100 C 479 -107 491 -111 506 -111 C 523 -111 539 -108 553 -103 C 567 -97 578 -90 588 -82 Z" unicode="Ą" />
<glyph horiz-adv-x="451" d="M 16 0 L 16 0 Z M 406 0 L 296 0 L 296 50 C 283 33 266 19 244 7 C 222 -4 195 -10 163 -10 C 114 -10 77 3 53 31 C 28 58 16 92 16 132 C 16 179 33 215 68 240 C 103 265 151 279 213 282 L 291 286 L 291 296 C 291 314 284 329 272 340 C 259 350 239 356 213 356 C 186 356 162 352 141 344 C 119 336 103 327 93 319 L 52 395 C 68 407 91 419 121 430 C 150 441 187 447 232 447 C 281 447 322 435 356 411 C 389 387 406 350 406 298 L 406 0 Z M 293 121 L 293 203 L 226 200 C 197 199 174 193 157 183 C 140 172 132 157 132 138 C 132 120 138 107 150 98 C 162 89 178 85 196 85 C 218 85 238 88 255 96 C 272 104 285 112 293 121 Z M 312 -7 L 312 -7 Z M 413 -82 L 445 -133 C 424 -155 401 -171 376 -182 C 350 -193 322 -199 291 -199 C 256 -199 229 -191 209 -177 C 189 -162 179 -143 179 -121 C 179 -96 190 -72 213 -50 C 235 -28 267 -9 308 6 L 366 6 C 342 -5 322 -18 306 -32 C 290 -46 282 -59 282 -72 C 282 -84 286 -93 295 -100 C 304 -107 316 -111 331 -111 C 348 -111 364 -108 378 -103 C 392 -97 403 -90 413 -82 Z" unicode="ą" />
<glyph horiz-adv-x="632" d="M 39 0 L 39 0 Z M 361 -10 C 315 -10 272 -1 233 14 C 193 30 159 54 131 86 C 102 118 79 157 63 204 C 47 251 39 305 39 365 C 39 420 46 471 62 517 C 78 563 100 602 128 635 C 156 668 191 694 231 712 C 271 730 316 740 364 740 C 430 740 482 729 522 707 C 562 685 594 656 619 622 L 530 543 C 514 564 493 583 467 599 C 441 615 408 623 368 623 C 304 623 256 600 222 554 C 188 508 172 444 172 361 C 172 315 177 275 188 243 C 199 210 214 183 232 163 C 250 142 272 127 296 118 C 320 108 345 104 371 104 C 413 104 448 112 476 129 C 504 145 527 167 546 194 L 628 127 C 601 85 565 52 521 27 C 476 2 423 -10 361 -10 Z M 364 790 L 364 790 Z M 244 790 L 343 956 L 484 956 L 363 790 L 244 790 Z" unicode="Ć" />
<glyph horiz-adv-x="431" d="M 24 0 L 24 0 Z M 340 145 L 427 90 C 412 64 390 41 361 21 C 332 1 292 -9 240 -9 C 206 -9 176 -3 150 8 C 123 19 100 35 82 55 C 63 75 49 99 39 127 C 29 155 24 185 24 218 C 24 250 29 281 40 309 C 51 337 66 361 86 381 C 105 401 128 416 156 428 C 183 440 213 446 246 446 C 294 446 333 436 363 416 C 393 396 415 374 429 350 L 337 291 C 328 307 316 320 302 330 C 288 340 270 345 248 345 C 219 345 195 333 177 310 C 158 286 149 256 149 218 C 149 176 158 144 178 122 C 197 100 222 89 252 89 C 276 89 295 95 309 107 C 322 119 332 132 340 145 Z M 231 496 L 231 496 Z M 111 496 L 210 662 L 351 662 L 230 496 L 111 496 Z" unicode="ć" />
<glyph horiz-adv-x="632" d="M 39 0 L 39 0 Z M 361 -10 C 315 -10 272 -1 233 14 C 193 30 159 54 131 86 C 102 118 79 157 63 204 C 47 251 39 305 39 365 C 39 420 46 471 62 517 C 78 563 100 602 128 635 C 156 668 191 694 231 712 C 271 730 316 740 364 740 C 430 740 482 729 522 707 C 562 685 594 656 619 622 L 530 543 C 514 564 493 583 467 599 C 441 615 408 623 368 623 C 304 623 256 600 222 554 C 188 508 172 444 172 361 C 172 315 177 275 188 243 C 199 210 214 183 232 163 C 250 142 272 127 296 118 C 320 108 345 104 371 104 C 413 104 448 112 476 129 C 504 145 527 167 546 194 L 628 127 C 601 85 565 52 521 27 C 476 2 423 -10 361 -10 Z M 364 791 L 364 791 Z M 537 791 L 431 791 L 364 885 L 296 791 L 192 791 L 307 964 L 422 964 L 537 791 Z" unicode="Ĉ" />
<glyph horiz-adv-x="431" d="M 24 0 L 24 0 Z M 340 145 L 427 90 C 412 64 390 41 361 21 C 332 1 292 -9 240 -9 C 206 -9 176 -3 150 8 C 123 19 100 35 82 55 C 63 75 49 99 39 127 C 29 155 24 185 24 218 C 24 250 29 281 40 309 C 51 337 66 361 86 381 C 105 401 128 416 156 428 C 183 440 213 446 246 446 C 294 446 333 436 363 416 C 393 396 415 374 429 350 L 337 291 C 328 307 316 320 302 330 C 288 340 270 345 248 345 C 219 345 195 333 177 310 C 158 286 149 256 149 218 C 149 176 158 144 178 122 C 197 100 222 89 252 89 C 276 89 295 95 309 107 C 322 119 332 132 340 145 Z M 231 497 L 231 497 Z M 404 497 L 298 497 L 231 591 L 163 497 L 59 497 L 174 670 L 289 670 L 404 497 Z" unicode="ĉ" />
<glyph horiz-adv-x="632" d="M 39 0 L 39 0 Z M 361 -10 C 315 -10 272 -1 233 14 C 193 30 159 54 131 86 C 102 118 79 157 63 204 C 47 251 39 305 39 365 C 39 420 46 471 62 517 C 78 563 100 602 128 635 C 156 668 191 694 231 712 C 271 730 316 740 364 740 C 430 740 482 729 522 707 C 562 685 594 656 619 622 L 530 543 C 514 564 493 583 467 599 C 441 615 408 623 368 623 C 304 623 256 600 222 554 C 188 508 172 444 172 361 C 172 315 177 275 188 243 C 199 210 214 183 232 163 C 250 142 272 127 296 118 C 320 108 345 104 371 104 C 413 104 448 112 476 129 C 504 145 527 167 546 194 L 628 127 C 601 85 565 52 521 27 C 476 2 423 -10 361 -10 Z M 364 797 L 364 797 Z M 419 797 L 310 797 L 310 950 L 419 950 L 419 797 Z" unicode="Ċ" />
<glyph horiz-adv-x="431" d="M 24 0 L 24 0 Z M 340 145 L 427 90 C 412 64 390 41 361 21 C 332 1 292 -9 240 -9 C 206 -9 176 -3 150 8 C 123 19 100 35 82 55 C 63 75 49 99 39 127 C 29 155 24 185 24 218 C 24 250 29 281 40 309 C 51 337 66 361 86 381 C 105 401 128 416 156 428 C 183 440 213 446 246 446 C 294 446 333 436 363 416 C 393 396 415 374 429 350 L 337 291 C 328 307 316 320 302 330 C 288 340 270 345 248 345 C 219 345 195 333 177 310 C 158 286 149 256 149 218 C 149 176 158 144 178 122 C 197 100 222 89 252 89 C 276 89 295 95 309 107 C 322 119 332 132 340 145 Z M 231 503 L 231 503 Z M 286 503 L 177 503 L 177 656 L 286 656 L 286 503 Z" unicode="ċ" />
<glyph horiz-adv-x="632" d="M 39 0 L 39 0 Z M 361 -10 C 315 -10 272 -1 233 14 C 193 30 159 54 131 86 C 102 118 79 157 63 204 C 47 251 39 305 39 365 C 39 420 46 471 62 517 C 78 563 100 602 128 635 C 156 668 191 694 231 712 C 271 730 316 740 364 740 C 430 740 482 729 522 707 C 562 685 594 656 619 622 L 530 543 C 514 564 493 583 467 599 C 441 615 408 623 368 623 C 304 623 256 600 222 554 C 188 508 172 444 172 361 C 172 315 177 275 188 243 C 199 210 214 183 232 163 C 250 142 272 127 296 118 C 320 108 345 104 371 104 C 413 104 448 112 476 129 C 504 145 527 167 546 194 L 628 127 C 601 85 565 52 521 27 C 476 2 423 -10 361 -10 Z M 364 791 L 364 791 Z M 192 964 L 298 964 L 365 871 L 433 964 L 537 964 L 422 791 L 307 791 L 192 964 Z" unicode="Č" />
<glyph horiz-adv-x="431" d="M 24 0 L 24 0 Z M 340 145 L 427 90 C 412 64 390 41 361 21 C 332 1 292 -9 240 -9 C 206 -9 176 -3 150 8 C 123 19 100 35 82 55 C 63 75 49 99 39 127 C 29 155 24 185 24 218 C 24 250 29 281 40 309 C 51 337 66 361 86 381 C 105 401 128 416 156 428 C 183 440 213 446 246 446 C 294 446 333 436 363 416 C 393 396 415 374 429 350 L 337 291 C 328 307 316 320 302 330 C 288 340 270 345 248 345 C 219 345 195 333 177 310 C 158 286 149 256 149 218 C 149 176 158 144 178 122 C 197 100 222 89 252 89 C 276 89 295 95 309 107 C 322 119 332 132 340 145 Z M 231 497 L 231 497 Z M 59 670 L 165 670 L 232 577 L 300 670 L 404 670 L 289 497 L 174 497 L 59 670 Z" unicode="č" />
<glyph horiz-adv-x="685" d="M 77 0 L 77 0 Z M 77 0 L 77 730 L 295 730 C 351 730 401 721 445 704 C 489 686 525 662 555 631 C 585 600 607 562 623 518 C 638 474 646 425 646 371 C 646 319 638 270 622 225 C 606 179 583 140 553 107 C 523 73 485 47 439 28 C 393 9 341 0 281 0 L 77 0 Z M 206 111 L 282 111 C 322 111 356 117 385 130 C 414 143 438 161 457 184 C 475 206 489 233 498 265 C 507 297 512 331 512 368 C 512 446 492 507 454 551 C 416 595 362 617 294 617 L 206 617 L 206 111 Z M 319 791 L 319 791 Z M 147 964 L 253 964 L 320 871 L 388 964 L 492 964 L 377 791 L 262 791 L 147 964 Z" unicode="Ď" />
<glyph horiz-adv-x="514" d="M 25 0 L 25 0 Z M 215 -6 C 187 -6 161 0 138 11 C 114 22 94 37 78 57 C 61 76 48 99 39 125 C 29 151 25 180 25 210 C 25 245 30 277 40 306 C 50 335 64 360 82 381 C 100 401 120 417 144 429 C 168 440 193 446 221 446 C 251 446 277 439 298 427 C 319 415 334 401 343 386 L 343 750 L 457 750 L 457 0 L 348 0 L 348 60 C 340 44 325 29 303 15 C 281 1 252 -6 215 -6 Z M 249 84 C 277 84 300 96 318 120 C 336 144 346 177 346 221 C 346 266 336 299 316 320 C 296 340 273 351 245 351 C 215 351 192 339 175 316 C 157 292 149 260 149 218 C 149 178 157 146 174 121 C 191 96 216 84 249 84 Z M 620 621 L 614 473 L 512 473 L 507 621 L 507 730 L 620 730 L 620 621 Z" unicode="ď" />
<glyph horiz-adv-x="685" d="M 27 0 L 27 0 Z M 646 365 C 646 314 638 266 622 222 C 606 178 583 139 553 106 C 523 73 485 47 439 28 C 393 9 341 0 281 0 L 77 0 L 77 308 L 27 308 L 27 408 L 77 408 L 77 730 L 295 730 C 352 730 403 721 447 704 C 491 686 527 662 557 630 C 586 598 608 560 623 515 C 638 469 646 419 646 365 Z M 205 108 L 282 108 C 323 108 358 114 387 128 C 416 141 440 159 458 183 C 476 206 490 233 499 264 C 507 295 512 328 512 363 C 512 446 493 510 455 554 C 417 598 365 621 297 621 L 205 621 L 205 408 L 352 408 L 352 308 L 205 308 L 205 108 Z" unicode="Đ" />
<glyph horiz-adv-x="507" d="M 348 60 C 340 44 325 29 303 15 C 281 1 252 -6 215 -6 C 187 -6 161 0 138 11 C 114 22 94 37 78 57 C 61 76 48 99 39 125 C 29 151 25 180 25 210 C 25 245 30 277 40 306 C 50 335 64 360 82 381 C 100 401 120 417 144 429 C 168 440 193 446 221 446 C 251 446 277 439 298 427 C 319 415 334 401 343 386 L 343 549 L 235 549 L 235 643 L 343 643 L 343 750 L 457 750 L 457 643 L 497 643 L 497 549 L 457 549 L 457 0 L 348 0 L 348 60 Z M 249 84 C 277 84 300 96 318 120 C 336 144 346 177 346 221 C 346 266 336 299 316 320 C 296 340 273 351 245 351 C 215 351 192 339 175 316 C 157 292 149 260 149 218 C 149 178 157 146 174 121 C 191 96 216 84 249 84 Z" unicode="đ" />
<glyph horiz-adv-x="530" d="M 77 0 L 77 0 Z M 496 0 L 77 0 L 77 730 L 477 730 L 477 616 L 204 616 L 204 418 L 462 418 L 462 305 L 204 305 L 204 114 L 496 114 L 496 0 Z M 278 809 L 278 809 Z M 413 809 L 143 809 L 143 897 L 413 897 L 413 809 Z" unicode="Ē" />
<glyph horiz-adv-x="470" d="M 25 0 L 25 0 Z M 250 -9 C 217 -9 187 -4 159 6 C 131 16 108 30 88 49 C 68 68 53 91 42 119 C 30 147 25 178 25 214 C 25 248 30 279 41 308 C 52 336 67 361 87 381 C 106 401 129 417 156 429 C 183 440 212 446 244 446 C 310 446 361 423 399 379 C 436 334 455 269 455 184 L 139 184 C 140 151 151 126 171 109 C 191 91 219 83 255 83 C 287 83 312 87 330 97 C 348 107 362 118 373 130 L 437 66 C 419 46 397 29 369 14 C 341 -1 302 -9 250 -9 Z M 143 268 L 341 268 C 339 292 330 313 314 330 C 297 346 274 355 245 355 C 215 355 191 346 173 330 C 155 313 145 292 143 268 Z M 241 515 L 241 515 Z M 376 515 L 106 515 L 106 603 L 376 603 L 376 515 Z" unicode="ē" />
<glyph horiz-adv-x="530" d="M 77 0 L 77 0 Z M 496 0 L 77 0 L 77 730 L 477 730 L 477 616 L 204 616 L 204 418 L 462 418 L 462 305 L 204 305 L 204 114 L 496 114 L 496 0 Z M 278 793 L 278 793 Z M 339 953 L 438 953 C 434 897 417 857 388 831 C 358 805 322 793 278 793 C 234 793 197 805 168 831 C 138 857 122 897 118 953 L 217 953 C 219 925 224 903 233 887 C 242 871 257 864 278 864 C 298 864 313 871 323 886 C 332 901 337 923 339 953 Z" unicode="Ĕ" />
<glyph horiz-adv-x="470" d="M 25 0 L 25 0 Z M 250 -9 C 217 -9 187 -4 159 6 C 131 16 108 30 88 49 C 68 68 53 91 42 119 C 30 147 25 178 25 214 C 25 248 30 279 41 308 C 52 336 67 361 87 381 C 106 401 129 417 156 429 C 183 440 212 446 244 446 C 310 446 361 423 399 379 C 436 334 455 269 455 184 L 139 184 C 140 151 151 126 171 109 C 191 91 219 83 255 83 C 287 83 312 87 330 97 C 348 107 362 118 373 130 L 437 66 C 419 46 397 29 369 14 C 341 -1 302 -9 250 -9 Z M 143 268 L 341 268 C 339 292 330 313 314 330 C 297 346 274 355 245 355 C 215 355 191 346 173 330 C 155 313 145 292 143 268 Z M 241 499 L 241 499 Z M 302 659 L 401 659 C 397 603 380 563 351 537 C 321 511 285 499 241 499 C 197 499 160 511 131 537 C 101 563 85 603 81 659 L 180 659 C 182 631 187 609 196 593 C 205 577 220 570 241 570 C 261 570 276 577 286 592 C 295 607 300 629 302 659 Z" unicode="ĕ" />
<glyph horiz-adv-x="530" d="M 77 0 L 77 0 Z M 496 0 L 77 0 L 77 730 L 477 730 L 477 616 L 204 616 L 204 418 L 462 418 L 462 305 L 204 305 L 204 114 L 496 114 L 496 0 Z M 278 797 L 278 797 Z M 333 797 L 224 797 L 224 950 L 333 950 L 333 797 Z" unicode="Ė" />
<glyph horiz-adv-x="470" d="M 25 0 L 25 0 Z M 250 -9 C 217 -9 187 -4 159 6 C 131 16 108 30 88 49 C 68 68 53 91 42 119 C 30 147 25 178 25 214 C 25 248 30 279 41 308 C 52 336 67 361 87 381 C 106 401 129 417 156 429 C 183 440 212 446 244 446 C 310 446 361 423 399 379 C 436 334 455 269 455 184 L 139 184 C 140 151 151 126 171 109 C 191 91 219 83 255 83 C 287 83 312 87 330 97 C 348 107 362 118 373 130 L 437 66 C 419 46 397 29 369 14 C 341 -1 302 -9 250 -9 Z M 143 268 L 341 268 C 339 292 330 313 314 330 C 297 346 274 355 245 355 C 215 355 191 346 173 330 C 155 313 145 292 143 268 Z M 241 503 L 241 503 Z M 296 503 L 187 503 L 187 656 L 296 656 L 296 503 Z" unicode="ė" />
<glyph horiz-adv-x="530" d="M 77 0 L 77 0 Z M 496 0 L 77 0 L 77 730 L 477 730 L 477 616 L 204 616 L 204 418 L 462 418 L 462 305 L 204 305 L 204 114 L 496 114 L 496 0 Z M 442 -7 L 442 -7 Z M 543 -82 L 575 -133 C 554 -155 531 -171 506 -182 C 480 -193 452 -199 421 -199 C 386 -199 359 -191 339 -177 C 319 -162 309 -143 309 -121 C 309 -96 320 -72 343 -50 C 365 -28 397 -9 438 6 L 496 6 C 472 -5 452 -18 436 -32 C 420 -46 412 -59 412 -72 C 412 -84 416 -93 425 -100 C 434 -107 446 -111 461 -111 C 478 -111 494 -108 508 -103 C 522 -97 533 -90 543 -82 Z" unicode="Ę" />
<glyph horiz-adv-x="470" d="M 25 0 L 25 0 Z M 250 -9 C 217 -9 187 -4 159 6 C 131 16 108 30 88 49 C 68 68 53 91 42 119 C 30 147 25 178 25 214 C 25 248 30 279 41 308 C 52 336 67 361 87 381 C 106 401 129 417 156 429 C 183 440 212 446 244 446 C 310 446 361 423 399 379 C 436 334 455 269 455 184 L 139 184 C 140 151 151 126 171 109 C 191 91 219 83 255 83 C 287 83 312 87 330 97 C 348 107 362 118 373 130 L 437 66 C 419 46 397 29 369 14 C 341 -1 302 -9 250 -9 Z M 143 268 L 341 268 C 339 292 330 313 314 330 C 297 346 274 355 245 355 C 215 355 191 346 173 330 C 155 313 145 292 143 268 Z M 297 -7 L 297 -7 Z M 398 -82 L 430 -133 C 409 -155 386 -171 361 -182 C 335 -193 307 -199 276 -199 C 241 -199 214 -191 194 -177 C 174 -162 164 -143 164 -121 C 164 -96 175 -72 198 -50 C 220 -28 252 -9 293 6 L 351 6 C 327 -5 307 -18 291 -32 C 275 -46 267 -59 267 -72 C 267 -84 271 -93 280 -100 C 289 -107 301 -111 316 -111 C 333 -111 349 -108 363 -103 C 377 -97 388 -90 398 -82 Z" unicode="ę" />
<glyph horiz-adv-x="530" d="M 77 0 L 77 0 Z M 496 0 L 77 0 L 77 730 L 477 730 L 477 616 L 204 616 L 204 418 L 462 418 L 462 305 L 204 305 L 204 114 L 496 114 L 496 0 Z M 278 791 L 278 791 Z M 106 964 L 212 964 L 279 871 L 347 964 L 451 964 L 336 791 L 221 791 L 106 964 Z" unicode="Ě" />
<glyph horiz-adv-x="470" d="M 25 0 L 25 0 Z M 250 -9 C 217 -9 187 -4 159 6 C 131 16 108 30 88 49 C 68 68 53 91 42 119 C 30 147 25 178 25 214 C 25 248 30 279 41 308 C 52 336 67 361 87 381 C 106 401 129 417 156 429 C 183 440 212 446 244 446 C 310 446 361 423 399 379 C 436 334 455 269 455 184 L 139 184 C 140 151 151 126 171 109 C 191 91 219 83 255 83 C 287 83 312 87 330 97 C 348 107 362 118 373 130 L 437 66 C 419 46 397 29 369 14 C 341 -1 302 -9 250 -9 Z M 143 268 L 341 268 C 339 292 330 313 314 330 C 297 346 274 355 245 355 C 215 355 191 346 173 330 C 155 313 145 292 143 268 Z M 241 497 L 241 497 Z M 69 670 L 175 670 L 242 577 L 310 670 L 414 670 L 299 497 L 184 497 L 69 670 Z" unicode="ě" />
<glyph horiz-adv-x="684" d="M 39 0 L 39 0 Z M 372 379 L 650 379 L 650 138 C 626 95 591 60 544 32 C 496 4 437 -10 367 -10 C 320 -10 276 -1 236 16 C 196 34 161 59 132 92 C 103 124 80 164 64 210 C 47 256 39 308 39 365 C 39 422 47 474 65 521 C 82 567 105 607 135 639 C 165 671 200 696 240 714 C 280 731 324 740 370 740 C 405 740 436 736 462 729 C 488 722 511 713 530 702 C 549 691 565 679 578 665 C 591 651 602 637 611 623 L 519 555 C 506 571 488 586 464 601 C 440 616 408 624 368 624 C 309 624 261 601 225 555 C 188 509 170 445 170 364 C 170 284 188 220 226 172 C 263 123 313 99 375 99 C 413 99 447 106 475 120 C 503 134 523 153 537 175 L 537 266 L 372 266 L 372 379 Z M 367 791 L 367 791 Z M 540 791 L 434 791 L 367 885 L 299 791 L 195 791 L 310 964 L 425 964 L 540 791 Z" unicode="Ĝ" />
<glyph horiz-adv-x="506" d="M 25 0 L 25 0 Z M 216 -1 C 160 -1 114 19 78 59 C 42 99 25 151 25 217 C 25 286 43 341 80 383 C 116 425 162 446 218 446 C 247 446 273 439 296 426 C 319 413 335 399 345 384 L 345 436 L 457 436 L 457 28 C 457 -9 451 -41 439 -69 C 427 -97 412 -119 392 -137 C 372 -155 348 -168 321 -177 C 293 -185 264 -190 234 -190 C 187 -190 149 -184 121 -174 C 93 -164 71 -154 57 -144 L 98 -58 C 110 -67 127 -76 148 -85 C 169 -93 195 -98 225 -98 C 257 -98 285 -89 307 -71 C 329 -53 341 -27 341 9 L 341 63 C 333 46 317 31 295 18 C 273 5 246 -1 216 -1 Z M 249 85 C 277 85 301 97 319 121 C 337 145 346 179 346 221 C 346 261 336 294 317 318 C 297 342 273 354 243 354 C 215 354 193 342 175 318 C 157 294 148 261 148 219 C 148 178 156 145 174 121 C 192 97 217 85 249 85 Z M 233 497 L 233 497 Z M 406 497 L 300 497 L 233 591 L 165 497 L 61 497 L 176 670 L 291 670 L 406 497 Z" unicode="ĝ" />
<glyph horiz-adv-x="684" d="M 39 0 L 39 0 Z M 372 379 L 650 379 L 650 138 C 626 95 591 60 544 32 C 496 4 437 -10 367 -10 C 320 -10 276 -1 236 16 C 196 34 161 59 132 92 C 103 124 80 164 64 210 C 47 256 39 308 39 365 C 39 422 47 474 65 521 C 82 567 105 607 135 639 C 165 671 200 696 240 714 C 280 731 324 740 370 740 C 405 740 436 736 462 729 C 488 722 511 713 530 702 C 549 691 565 679 578 665 C 591 651 602 637 611 623 L 519 555 C 506 571 488 586 464 601 C 440 616 408 624 368 624 C 309 624 261 601 225 555 C 188 509 170 445 170 364 C 170 284 188 220 226 172 C 263 123 313 99 375 99 C 413 99 447 106 475 120 C 503 134 523 153 537 175 L 537 266 L 372 266 L 372 379 Z M 367 793 L 367 793 Z M 428 953 L 527 953 C 523 897 506 857 477 831 C 447 805 411 793 367 793 C 323 793 286 805 257 831 C 227 857 211 897 207 953 L 306 953 C 308 925 313 903 322 887 C 331 871 346 864 367 864 C 387 864 402 871 412 886 C 421 901 426 923 428 953 Z" unicode="Ğ" />
<glyph horiz-adv-x="506" d="M 25 0 L 25 0 Z M 216 -1 C 160 -1 114 19 78 59 C 42 99 25 151 25 217 C 25 286 43 341 80 383 C 116 425 162 446 218 446 C 247 446 273 439 296 426 C 319 413 335 399 345 384 L 345 436 L 457 436 L 457 28 C 457 -9 451 -41 439 -69 C 427 -97 412 -119 392 -137 C 372 -155 348 -168 321 -177 C 293 -185 264 -190 234 -190 C 187 -190 149 -184 121 -174 C 93 -164 71 -154 57 -144 L 98 -58 C 110 -67 127 -76 148 -85 C 169 -93 195 -98 225 -98 C 257 -98 285 -89 307 -71 C 329 -53 341 -27 341 9 L 341 63 C 333 46 317 31 295 18 C 273 5 246 -1 216 -1 Z M 249 85 C 277 85 301 97 319 121 C 337 145 346 179 346 221 C 346 261 336 294 317 318 C 297 342 273 354 243 354 C 215 354 193 342 175 318 C 157 294 148 261 148 219 C 148 178 156 145 174 121 C 192 97 217 85 249 85 Z M 233 499 L 233 499 Z M 294 659 L 393 659 C 389 603 372 563 343 537 C 313 511 277 499 233 499 C 189 499 152 511 123 537 C 93 563 77 603 73 659 L 172 659 C 174 631 179 609 188 593 C 197 577 212 570 233 570 C 253 570 268 577 278 592 C 287 607 292 629 294 659 Z" unicode="ğ" />
<glyph horiz-adv-x="684" d="M 39 0 L 39 0 Z M 372 379 L 650 379 L 650 138 C 626 95 591 60 544 32 C 496 4 437 -10 367 -10 C 320 -10 276 -1 236 16 C 196 34 161 59 132 92 C 103 124 80 164 64 210 C 47 256 39 308 39 365 C 39 422 47 474 65 521 C 82 567 105 607 135 639 C 165 671 200 696 240 714 C 280 731 324 740 370 740 C 405 740 436 736 462 729 C 488 722 511 713 530 702 C 549 691 565 679 578 665 C 591 651 602 637 611 623 L 519 555 C 506 571 488 586 464 601 C 440 616 408 624 368 624 C 309 624 261 601 225 555 C 188 509 170 445 170 364 C 170 284 188 220 226 172 C 263 123 313 99 375 99 C 413 99 447 106 475 120 C 503 134 523 153 537 175 L 537 266 L 372 266 L 372 379 Z M 367 797 L 367 797 Z M 422 797 L 313 797 L 313 950 L 422 950 L 422 797 Z" unicode="Ġ" />
<glyph horiz-adv-x="506" d="M 25 0 L 25 0 Z M 216 -1 C 160 -1 114 19 78 59 C 42 99 25 151 25 217 C 25 286 43 341 80 383 C 116 425 162 446 218 446 C 247 446 273 439 296 426 C 319 413 335 399 345 384 L 345 436 L 457 436 L 457 28 C 457 -9 451 -41 439 -69 C 427 -97 412 -119 392 -137 C 372 -155 348 -168 321 -177 C 293 -185 264 -190 234 -190 C 187 -190 149 -184 121 -174 C 93 -164 71 -154 57 -144 L 98 -58 C 110 -67 127 -76 148 -85 C 169 -93 195 -98 225 -98 C 257 -98 285 -89 307 -71 C 329 -53 341 -27 341 9 L 341 63 C 333 46 317 31 295 18 C 273 5 246 -1 216 -1 Z M 249 85 C 277 85 301 97 319 121 C 337 145 346 179 346 221 C 346 261 336 294 317 318 C 297 342 273 354 243 354 C 215 354 193 342 175 318 C 157 294 148 261 148 219 C 148 178 156 145 174 121 C 192 97 217 85 249 85 Z M 233 503 L 233 503 Z M 288 503 L 179 503 L 179 656 L 288 656 L 288 503 Z" unicode="ġ" />
<glyph horiz-adv-x="684" d="M 39 0 L 39 0 Z M 372 379 L 650 379 L 650 138 C 626 95 591 60 544 32 C 496 4 437 -10 367 -10 C 320 -10 276 -1 236 16 C 196 34 161 59 132 92 C 103 124 80 164 64 210 C 47 256 39 308 39 365 C 39 422 47 474 65 521 C 82 567 105 607 135 639 C 165 671 200 696 240 714 C 280 731 324 740 370 740 C 405 740 436 736 462 729 C 488 722 511 713 530 702 C 549 691 565 679 578 665 C 591 651 602 637 611 623 L 519 555 C 506 571 488 586 464 601 C 440 616 408 624 368 624 C 309 624 261 601 225 555 C 188 509 170 445 170 364 C 170 284 188 220 226 172 C 263 123 313 99 375 99 C 413 99 447 106 475 120 C 503 134 523 153 537 175 L 537 266 L 372 266 L 372 379 Z" unicode="Ģ" />
<glyph horiz-adv-x="506" d="M 25 0 L 25 0 Z M 216 -1 C 160 -1 114 19 78 59 C 42 99 25 151 25 217 C 25 286 43 341 80 383 C 116 425 162 446 218 446 C 247 446 273 439 296 426 C 319 413 335 399 345 384 L 345 436 L 457 436 L 457 28 C 457 -9 451 -41 439 -69 C 427 -97 412 -119 392 -137 C 372 -155 348 -168 321 -177 C 293 -185 264 -190 234 -190 C 187 -190 149 -184 121 -174 C 93 -164 71 -154 57 -144 L 98 -58 C 110 -67 127 -76 148 -85 C 169 -93 195 -98 225 -98 C 257 -98 285 -89 307 -71 C 329 -53 341 -27 341 9 L 341 63 C 333 46 317 31 295 18 C 273 5 246 -1 216 -1 Z M 249 85 C 277 85 301 97 319 121 C 337 145 346 179 346 221 C 346 261 336 294 317 318 C 297 342 273 354 243 354 C 215 354 193 342 175 318 C 157 294 148 261 148 219 C 148 178 156 145 174 121 C 192 97 217 85 249 85 Z" unicode="ģ" />
<glyph horiz-adv-x="692" d="M 77 0 L 77 0 Z M 616 0 L 486 0 L 486 300 L 207 300 L 207 0 L 77 0 L 77 730 L 207 730 L 207 419 L 486 419 L 486 730 L 616 730 L 616 0 Z M 346 791 L 346 791 Z M 519 791 L 413 791 L 346 885 L 278 791 L 174 791 L 289 964 L 404 964 L 519 791 Z" unicode="Ĥ" />
<glyph horiz-adv-x="497" d="M 49 0 L 49 0 Z M 452 0 L 333 0 L 333 274 C 333 298 326 316 312 329 C 298 342 279 349 256 349 C 233 349 213 341 195 327 C 177 312 169 290 169 261 L 169 0 L 49 0 L 49 750 L 162 750 L 162 368 C 170 389 186 407 210 423 C 233 439 264 447 303 447 C 347 447 383 434 411 409 C 438 383 452 347 452 301 L 452 0 Z M 251 811 L 251 811 Z M 424 811 L 318 811 L 251 905 L 183 811 L 79 811 L 194 984 L 309 984 L 424 811 Z" unicode="ĥ" />
<glyph horiz-adv-x="692" d="M 207 300 L 207 0 L 77 0 L 77 541 L 10 541 L 10 635 L 77 635 L 77 730 L 207 730 L 207 635 L 486 635 L 486 730 L 616 730 L 616 635 L 683 635 L 683 541 L 616 541 L 616 0 L 486 0 L 486 300 L 207 300 Z M 207 419 L 486 419 L 486 541 L 207 541 L 207 419 Z" unicode="Ħ" />
<glyph horiz-adv-x="497" d="M 169 261 L 169 0 L 49 0 L 49 550 L 10 550 L 10 643 L 49 643 L 49 750 L 162 750 L 162 643 L 277 643 L 277 550 L 162 550 L 162 368 C 170 389 186 407 210 423 C 233 439 264 447 303 447 C 347 447 383 434 411 409 C 438 383 452 347 452 301 L 452 0 L 333 0 L 333 274 C 333 298 326 316 312 329 C 298 342 279 349 256 349 C 233 349 213 341 195 327 C 177 312 169 290 169 261 Z" unicode="ħ" />
<glyph horiz-adv-x="292" d="M 0 0 L 0 0 Z M 212 0 L 81 0 L 81 730 L 212 730 L 212 0 Z M 146 795 L 146 795 Z M 224 942 L 313 942 C 313 892 305 855 290 831 C 275 807 256 795 234 795 C 214 795 198 798 184 805 C 170 811 159 817 151 822 C 142 827 133 832 125 838 C 117 843 109 846 101 846 C 93 846 87 841 81 832 C 75 823 73 812 73 799 L -16 799 C -16 848 -6 885 12 909 C 31 933 51 946 73 946 C 90 946 104 942 116 936 C 128 930 139 923 150 917 C 158 911 165 906 173 901 C 180 895 187 893 195 893 C 201 893 208 897 214 906 C 220 915 223 927 224 942 Z" unicode="Ĩ" />
<glyph horiz-adv-x="227" d="M 0 0 L 0 0 Z M 174 0 L 54 0 L 54 436 L 174 436 L 174 0 Z M 113 501 L 113 501 Z M 191 648 L 280 648 C 280 598 272 561 257 537 C 242 513 223 501 201 501 C 181 501 165 504 151 511 C 137 517 126 523 118 528 C 109 533 100 538 92 544 C 84 549 76 552 68 552 C 60 552 54 547 48 538 C 42 529 40 518 40 505 L -49 505 C -49 554 -39 591 -20 615 C -1 639 18 652 40 652 C 57 652 71 648 83 642 C 95 636 106 629 117 623 C 125 617 132 612 140 607 C 147 601 154 599 162 599 C 168 599 175 603 181 612 C 187 621 190 633 191 648 Z" unicode="ĩ" />
<glyph horiz-adv-x="292" d="M 11 0 L 11 0 Z M 212 0 L 81 0 L 81 730 L 212 730 L 212 0 Z M 146 809 L 146 809 Z M 281 809 L 11 809 L 11 897 L 281 897 L 281 809 Z" unicode="Ī" />
<glyph horiz-adv-x="227" d="M 0 0 L 0 0 Z M 174 0 L 54 0 L 54 436 L 174 436 L 174 0 Z M 113 515 L 113 515 Z M 248 515 L -22 515 L -22 603 L 248 603 L 248 515 Z" unicode="ī" />
<glyph horiz-adv-x="292" d="M 0 0 L 0 0 Z M 212 0 L 81 0 L 81 730 L 212 730 L 212 0 Z M 146 793 L 146 793 Z M 207 953 L 306 953 C 302 897 285 857 256 831 C 226 805 190 793 146 793 C 102 793 65 805 36 831 C 6 857 -10 897 -14 953 L 85 953 C 87 925 92 903 101 887 C 110 871 125 864 146 864 C 166 864 181 871 191 886 C 200 901 205 923 207 953 Z" unicode="Ĭ" />
<glyph horiz-adv-x="227" d="M 0 0 L 0 0 Z M 174 0 L 54 0 L 54 436 L 174 436 L 174 0 Z M 113 499 L 113 499 Z M 174 659 L 273 659 C 269 603 252 563 223 537 C 193 511 157 499 113 499 C 69 499 32 511 3 537 C -26 563 -43 603 -47 659 L 52 659 C 54 631 59 609 68 593 C 77 577 92 570 113 570 C 133 570 148 577 158 592 C 167 607 172 629 174 659 Z" unicode="ĭ" />
<glyph horiz-adv-x="292" d="M 0 0 L 0 0 Z M 212 0 L 81 0 L 81 730 L 212 730 L 212 0 Z M 90 -9 L 90 -9 Z M 191 -84 L 223 -135 C 202 -157 179 -173 154 -184 C 128 -195 100 -201 69 -201 C 34 -201 7 -193 -13 -179 C -33 -164 -43 -145 -43 -123 C -43 -98 -31 -74 -9 -52 C 13 -30 45 -11 86 4 L 144 4 C 120 -7 100 -20 84 -34 C 68 -48 60 -61 60 -74 C 60 -86 64 -95 73 -102 C 82 -109 94 -113 109 -113 C 126 -113 142 -110 156 -105 C 170 -99 181 -92 191 -84 Z" unicode="Į" />
<glyph horiz-adv-x="227" d="M 0 0 L 0 0 Z M 52 515 L 52 633 L 175 633 L 175 515 L 52 515 Z M 54 0 L 54 436 L 173 436 L 173 0 L 54 0 Z M 71 -7 L 71 -7 Z M 172 -82 L 204 -133 C 183 -155 160 -171 135 -182 C 109 -193 81 -199 50 -199 C 15 -199 -12 -191 -32 -177 C -52 -162 -62 -143 -62 -121 C -62 -96 -50 -72 -28 -50 C -5 -28 26 -9 67 6 L 125 6 C 101 -5 81 -18 65 -32 C 49 -46 41 -59 41 -72 C 41 -84 45 -93 54 -100 C 63 -107 75 -111 90 -111 C 107 -111 123 -108 137 -103 C 151 -97 162 -90 172 -82 Z" unicode="į" />
<glyph horiz-adv-x="292" d="M 81 0 L 81 0 Z M 212 0 L 81 0 L 81 730 L 212 730 L 212 0 Z M 146 797 L 146 797 Z M 201 797 L 92 797 L 92 950 L 201 950 L 201 797 Z" unicode="İ" />
<glyph horiz-adv-x="227" d="M 174 0 L 54 0 L 54 436 L 174 436 L 174 0 Z" unicode="ı" />
<glyph horiz-adv-x="598" d="M 81 0 L 81 0 Z M 212 0 L 81 0 L 81 730 L 212 730 L 212 0 Z M 528 730 L 528 194 C 528 165 523 138 515 113 C 506 88 493 66 477 48 C 461 30 440 15 416 5 C 391 -5 363 -11 332 -11 C 315 -11 299 -10 283 -8 C 267 -6 254 -4 246 -2 L 246 113 C 252 110 263 108 279 107 C 294 105 306 105 316 105 C 344 105 366 114 382 132 C 398 150 406 172 406 199 L 406 730 L 528 730 Z" unicode="Ĳ" />
<glyph horiz-adv-x="425" d="M 52 0 L 52 0 Z M 52 515 L 52 633 L 175 633 L 175 515 L 52 515 Z M 54 0 L 54 436 L 173 436 L 173 0 L 54 0 Z M 386 515 L 263 515 L 263 633 L 386 633 L 386 515 Z M 384 436 L 384 -69 C 384 -103 372 -133 350 -161 C 328 -188 295 -202 251 -202 C 239 -202 226 -201 211 -199 C 196 -197 185 -195 179 -193 L 188 -99 C 190 -99 195 -100 201 -101 C 207 -101 214 -102 220 -102 C 232 -102 243 -97 252 -89 C 260 -80 265 -67 265 -51 L 265 436 L 384 436 Z" unicode="ĳ" />
<glyph horiz-adv-x="356" d="M 12 0 L 12 0 Z M 294 730 L 294 194 C 294 165 289 138 281 113 C 272 88 259 66 243 48 C 227 30 206 15 182 5 C 157 -5 129 -11 98 -11 C 81 -11 65 -10 49 -8 C 33 -6 20 -4 12 -2 L 12 113 C 18 110 29 108 45 107 C 60 105 72 105 82 105 C 110 105 132 114 148 132 C 164 150 172 172 172 199 L 172 730 L 294 730 Z M 232 791 L 232 791 Z M 405 791 L 299 791 L 232 885 L 164 791 L 60 791 L 175 964 L 290 964 L 405 791 Z" unicode="Ĵ" />
<glyph horiz-adv-x="217" d="M 0 0 L 0 0 Z M 169 436 L 169 -69 C 169 -103 157 -133 135 -161 C 113 -188 80 -202 36 -202 C 24 -202 11 -201 -3 -199 C -18 -197 -29 -195 -36 -193 L -27 -99 C -24 -99 -19 -100 -13 -101 C -7 -101 -1 -102 5 -102 C 17 -102 28 -97 37 -89 C 45 -80 50 -67 50 -51 L 50 436 L 169 436 Z M 108 497 L 108 497 Z M 281 497 L 175 497 L 108 591 L 40 497 L -64 497 L 51 670 L 166 670 L 281 497 Z" unicode="ĵ" />
<glyph horiz-adv-x="643" d="M 77 0 L 77 0 Z M 651 0 L 490 0 L 258 299 L 207 239 L 207 0 L 77 0 L 77 730 L 207 730 L 207 397 L 469 730 L 620 730 L 344 392 L 651 0 Z M 325 -70 L 325 -70 Z M 427 -70 C 425 -92 421 -117 413 -143 C 405 -169 396 -195 385 -219 C 374 -243 362 -264 349 -284 C 336 -304 324 -318 313 -328 L 223 -288 C 231 -278 239 -266 247 -250 C 255 -234 263 -216 271 -197 C 279 -177 285 -157 291 -135 C 297 -113 301 -91 303 -70 L 427 -70 Z" unicode="Ķ" />
<glyph horiz-adv-x="471" d="M 50 0 L 50 0 Z M 488 1 L 351 0 L 224 173 L 166 108 L 166 0 L 50 0 L 50 750 L 162 750 L 162 234 L 328 436 L 460 436 L 303 252 L 488 1 Z M 236 -70 L 236 -70 Z M 338 -70 C 336 -92 332 -117 324 -143 C 316 -169 307 -195 296 -219 C 285 -243 273 -264 260 -284 C 247 -304 235 -318 224 -328 L 134 -288 C 142 -278 150 -266 158 -250 C 166 -234 174 -216 182 -197 C 190 -177 196 -157 202 -135 C 208 -113 212 -91 214 -70 L 338 -70 Z" unicode="ķ" />
<glyph horiz-adv-x="471" d="M 488 1 L 351 0 L 224 173 L 166 108 L 166 0 L 50 0 L 50 436 L 162 436 L 162 234 L 328 436 L 460 436 L 303 252 L 488 1 Z" unicode="ĸ" />
<glyph horiz-adv-x="460" d="M 77 0 L 77 0 Z M 452 0 L 77 0 L 77 730 L 207 730 L 207 115 L 452 115 L 452 0 Z M 259 790 L 259 790 Z M 139 790 L 238 956 L 379 956 L 258 790 L 139 790 Z" unicode="Ĺ" />
<glyph horiz-adv-x="218" d="M 49 0 L 49 0 Z M 172 810 L 172 810 Z M 52 810 L 151 976 L 292 976 L 171 810 L 52 810 Z M 169 750 L 169 0 L 49 0 L 49 750 L 169 750 Z" unicode="ĺ" />
<glyph horiz-adv-x="460" d="M 77 0 L 77 0 Z M 452 0 L 77 0 L 77 730 L 207 730 L 207 115 L 452 115 L 452 0 Z M 251 -70 L 251 -70 Z M 353 -70 C 351 -92 347 -117 339 -143 C 331 -169 322 -195 311 -219 C 300 -243 288 -264 275 -284 C 262 -304 250 -318 239 -328 L 149 -288 C 157 -278 165 -266 173 -250 C 181 -234 189 -216 197 -197 C 205 -177 211 -157 217 -135 C 223 -113 227 -91 229 -70 L 353 -70 Z" unicode="Ļ" />
<glyph horiz-adv-x="218" d="M 0 0 L 0 0 Z M 169 750 L 169 0 L 49 0 L 49 750 L 169 750 Z M 87 -70 L 87 -70 Z M 189 -70 C 187 -92 183 -117 175 -143 C 167 -169 158 -195 147 -219 C 136 -243 124 -264 111 -284 C 98 -304 86 -318 75 -328 L -15 -288 C -7 -278 1 -266 9 -250 C 17 -234 25 -216 33 -197 C 41 -177 47 -157 53 -135 C 59 -113 63 -91 65 -70 L 189 -70 Z" unicode="ļ" />
<glyph horiz-adv-x="460" d="M 77 0 L 77 0 Z M 452 0 L 77 0 L 77 730 L 207 730 L 207 115 L 452 115 L 452 0 Z M 439 621 L 433 473 L 331 473 L 326 621 L 326 730 L 439 730 L 439 621 Z" unicode="Ľ" />
<glyph horiz-adv-x="218" d="M 49 0 L 49 0 Z M 169 750 L 169 0 L 49 0 L 49 750 L 169 750 Z M 341 621 L 335 473 L 233 473 L 228 621 L 228 730 L 341 730 L 341 621 Z" unicode="ľ" />
<glyph horiz-adv-x="460" d="M 77 0 L 77 0 Z M 452 0 L 77 0 L 77 730 L 207 730 L 207 115 L 452 115 L 452 0 Z M 353 285 L 353 285 Z M 408 285 L 299 285 L 299 438 L 408 438 L 408 285 Z" unicode="Ŀ" />
<glyph horiz-adv-x="218" d="M 49 0 L 49 0 Z M 169 750 L 169 0 L 49 0 L 49 750 L 169 750 Z M 283 178 L 283 178 Z M 338 178 L 229 178 L 229 331 L 338 331 L 338 178 Z" unicode="ŀ" />
<glyph horiz-adv-x="460" d="M 452 112 L 452 0 L 77 0 L 77 259 L 31 240 L -11 329 L 77 366 L 77 730 L 207 730 L 207 420 L 337 474 L 377 385 L 207 314 L 207 112 L 452 112 Z" unicode="Ł" />
<glyph horiz-adv-x="218" d="M 254 346 L 178 310 L 178 0 L 59 0 L 59 253 L 20 234 L -15 315 L 59 350 L 59 750 L 178 750 L 178 407 L 219 427 L 254 346 Z" unicode="ł" />
<glyph horiz-adv-x="695" d="M 77 0 L 77 0 Z M 618 0 L 530 0 L 199 476 L 199 0 L 77 0 L 77 730 L 172 730 L 497 259 L 497 730 L 618 730 L 618 0 Z M 348 790 L 348 790 Z M 228 790 L 327 956 L 468 956 L 347 790 L 228 790 Z" unicode="Ń" />
<glyph horiz-adv-x="497" d="M 49 0 L 49 0 Z M 452 0 L 333 0 L 333 277 C 333 299 326 316 313 329 C 299 342 280 349 256 349 C 232 349 211 341 194 327 C 177 312 169 289 169 257 L 169 0 L 49 0 L 49 436 L 162 436 L 162 373 C 172 394 190 412 215 426 C 239 440 268 447 301 447 C 347 447 383 434 411 409 C 438 383 452 348 452 304 L 452 0 Z M 248 496 L 248 496 Z M 128 496 L 227 662 L 368 662 L 247 496 L 128 496 Z" unicode="ń" />
<glyph horiz-adv-x="695" d="M 77 0 L 77 0 Z M 618 0 L 530 0 L 199 476 L 199 0 L 77 0 L 77 730 L 172 730 L 497 259 L 497 730 L 618 730 L 618 0 Z M 332 -70 L 332 -70 Z M 434 -70 C 432 -92 428 -117 420 -143 C 412 -169 403 -195 392 -219 C 381 -243 369 -264 356 -284 C 343 -304 331 -318 320 -328 L 230 -288 C 238 -278 246 -266 254 -250 C 262 -234 270 -216 278 -197 C 286 -177 292 -157 298 -135 C 304 -113 308 -91 310 -70 L 434 -70 Z" unicode="Ņ" />
<glyph horiz-adv-x="497" d="M 49 0 L 49 0 Z M 452 0 L 333 0 L 333 277 C 333 299 326 316 313 329 C 299 342 280 349 256 349 C 232 349 211 341 194 327 C 177 312 169 289 169 257 L 169 0 L 49 0 L 49 436 L 162 436 L 162 373 C 172 394 190 412 215 426 C 239 440 268 447 301 447 C 347 447 383 434 411 409 C 438 383 452 348 452 304 L 452 0 Z M 227 -70 L 227 -70 Z M 329 -70 C 327 -92 323 -117 315 -143 C 307 -169 298 -195 287 -219 C 276 -243 264 -264 251 -284 C 238 -304 226 -318 215 -328 L 125 -288 C 133 -278 141 -266 149 -250 C 157 -234 165 -216 173 -197 C 181 -177 187 -157 193 -135 C 199 -113 203 -91 205 -70 L 329 -70 Z" unicode="ņ" />
<glyph horiz-adv-x="695" d="M 77 0 L 77 0 Z M 618 0 L 530 0 L 199 476 L 199 0 L 77 0 L 77 730 L 172 730 L 497 259 L 497 730 L 618 730 L 618 0 Z M 348 791 L 348 791 Z M 176 964 L 282 964 L 349 871 L 417 964 L 521 964 L 406 791 L 291 791 L 176 964 Z" unicode="Ň" />
<glyph horiz-adv-x="497" d="M 49 0 L 49 0 Z M 452 0 L 333 0 L 333 277 C 333 299 326 316 313 329 C 299 342 280 349 256 349 C 232 349 211 341 194 327 C 177 312 169 289 169 257 L 169 0 L 49 0 L 49 436 L 162 436 L 162 373 C 172 394 190 412 215 426 C 239 440 268 447 301 447 C 347 447 383 434 411 409 C 438 383 452 348 452 304 L 452 0 Z M 248 497 L 248 497 Z M 76 670 L 182 670 L 249 577 L 317 670 L 421 670 L 306 497 L 191 497 L 76 670 Z" unicode="ň" />
<glyph horiz-adv-x="701" d="M 497 730 L 618 730 L 618 0 L 618 0 C 617 -28 612 -54 604 -78 C 596 -102 584 -123 568 -141 C 552 -159 533 -173 509 -183 C 485 -193 457 -199 426 -199 C 409 -199 393 -198 377 -196 C 361 -194 349 -192 341 -190 L 341 -75 C 347 -77 357 -79 373 -81 C 389 -82 401 -83 410 -83 C 438 -83 460 -74 476 -56 C 492 -38 500 -15 500 11 L 500 43 L 199 476 L 199 0 L 77 0 L 77 730 L 172 730 L 497 259 L 497 730 Z" unicode="Ŋ" />
<glyph horiz-adv-x="497" d="M 301 447 C 347 447 383 434 411 409 C 438 383 452 348 452 304 L 452 -69 C 452 -103 440 -133 418 -161 C 396 -188 363 -202 319 -202 C 307 -202 294 -201 279 -199 C 263 -197 252 -195 246 -193 L 255 -99 C 258 -99 263 -100 269 -101 C 275 -101 282 -102 288 -102 C 300 -102 311 -97 320 -89 C 328 -80 333 -67 333 -51 L 333 277 C 333 299 326 316 313 329 C 299 342 280 349 256 349 C 232 349 211 341 194 327 C 177 312 169 289 169 257 L 169 0 L 49 0 L 49 436 L 162 436 L 162 373 C 172 394 190 412 215 426 C 239 440 268 447 301 447 Z" unicode="ŋ" />
<glyph horiz-adv-x="746" d="M 39 0 L 39 0 Z M 376 -10 C 323 -10 276 -1 234 17 C 192 35 156 60 128 93 C 99 126 77 166 62 213 C 46 260 39 312 39 370 C 39 424 47 473 64 519 C 80 565 103 604 133 636 C 162 668 197 694 237 712 C 277 730 321 740 369 740 C 419 740 466 731 508 714 C 550 696 585 672 615 640 C 644 608 667 569 683 523 C 699 477 708 425 708 367 C 708 310 699 258 682 212 C 664 165 641 125 611 93 C 581 60 546 35 506 17 C 465 -1 422 -10 376 -10 Z M 375 105 C 433 105 481 127 519 172 C 556 217 575 283 575 371 C 575 451 556 514 518 558 C 480 602 432 624 373 624 C 313 624 264 602 228 560 C 191 518 173 453 173 366 C 173 278 192 212 230 169 C 268 126 317 105 375 105 Z M 371 809 L 371 809 Z M 506 809 L 236 809 L 236 897 L 506 897 L 506 809 Z" unicode="Ō" />
<glyph horiz-adv-x="498" d="M 24 0 L 24 0 Z M 246 -9 C 217 -9 189 -4 163 6 C 136 16 112 30 92 50 C 71 69 54 93 42 121 C 30 149 24 181 24 217 C 24 249 29 280 41 308 C 53 336 69 360 89 380 C 109 400 132 416 159 428 C 185 440 213 446 243 446 C 274 446 304 441 332 431 C 360 421 384 406 405 388 C 426 369 443 346 455 319 C 467 292 474 262 474 229 C 474 193 468 161 456 132 C 444 102 428 77 408 57 C 388 36 364 20 336 8 C 308 -3 278 -9 246 -9 Z M 249 86 C 279 86 304 97 322 120 C 340 143 349 177 349 223 C 349 263 339 294 321 316 C 303 338 277 350 243 350 C 215 350 193 339 175 317 C 157 295 149 263 149 219 C 149 172 158 138 177 117 C 195 96 219 86 249 86 Z M 243 515 L 243 515 Z M 378 515 L 108 515 L 108 603 L 378 603 L 378 515 Z" unicode="ō" />
<glyph horiz-adv-x="746" d="M 39 0 L 39 0 Z M 376 -10 C 323 -10 276 -1 234 17 C 192 35 156 60 128 93 C 99 126 77 166 62 213 C 46 260 39 312 39 370 C 39 424 47 473 64 519 C 80 565 103 604 133 636 C 162 668 197 694 237 712 C 277 730 321 740 369 740 C 419 740 466 731 508 714 C 550 696 585 672 615 640 C 644 608 667 569 683 523 C 699 477 708 425 708 367 C 708 310 699 258 682 212 C 664 165 641 125 611 93 C 581 60 546 35 506 17 C 465 -1 422 -10 376 -10 Z M 375 105 C 433 105 481 127 519 172 C 556 217 575 283 575 371 C 575 451 556 514 518 558 C 480 602 432 624 373 624 C 313 624 264 602 228 560 C 191 518 173 453 173 366 C 173 278 192 212 230 169 C 268 126 317 105 375 105 Z M 371 793 L 371 793 Z M 432 953 L 531 953 C 527 897 510 857 481 831 C 451 805 415 793 371 793 C 327 793 290 805 261 831 C 231 857 215 897 211 953 L 310 953 C 312 925 317 903 326 887 C 335 871 350 864 371 864 C 391 864 406 871 416 886 C 425 901 430 923 432 953 Z" unicode="Ŏ" />
<glyph horiz-adv-x="498" d="M 24 0 L 24 0 Z M 246 -9 C 217 -9 189 -4 163 6 C 136 16 112 30 92 50 C 71 69 54 93 42 121 C 30 149 24 181 24 217 C 24 249 29 280 41 308 C 53 336 69 360 89 380 C 109 400 132 416 159 428 C 185 440 213 446 243 446 C 274 446 304 441 332 431 C 360 421 384 406 405 388 C 426 369 443 346 455 319 C 467 292 474 262 474 229 C 474 193 468 161 456 132 C 444 102 428 77 408 57 C 388 36 364 20 336 8 C 308 -3 278 -9 246 -9 Z M 249 86 C 279 86 304 97 322 120 C 340 143 349 177 349 223 C 349 263 339 294 321 316 C 303 338 277 350 243 350 C 215 350 193 339 175 317 C 157 295 149 263 149 219 C 149 172 158 138 177 117 C 195 96 219 86 249 86 Z M 243 499 L 243 499 Z M 304 659 L 403 659 C 399 603 382 563 353 537 C 323 511 287 499 243 499 C 199 499 162 511 133 537 C 103 563 87 603 83 659 L 182 659 C 184 631 189 609 198 593 C 207 577 222 570 243 570 C 263 570 278 577 288 592 C 297 607 302 629 304 659 Z" unicode="ŏ" />
<glyph horiz-adv-x="746" d="M 39 0 L 39 0 Z M 376 -10 C 323 -10 276 -1 234 17 C 192 35 156 60 128 93 C 99 126 77 166 62 213 C 46 260 39 312 39 370 C 39 424 47 473 64 519 C 80 565 103 604 133 636 C 162 668 197 694 237 712 C 277 730 321 740 369 740 C 419 740 466 731 508 714 C 550 696 585 672 615 640 C 644 608 667 569 683 523 C 699 477 708 425 708 367 C 708 310 699 258 682 212 C 664 165 641 125 611 93 C 581 60 546 35 506 17 C 465 -1 422 -10 376 -10 Z M 375 105 C 433 105 481 127 519 172 C 556 217 575 283 575 371 C 575 451 556 514 518 558 C 480 602 432 624 373 624 C 313 624 264 602 228 560 C 191 518 173 453 173 366 C 173 278 192 212 230 169 C 268 126 317 105 375 105 Z M 371 790 L 371 790 Z M 166 790 L 252 946 L 379 946 L 271 790 L 166 790 Z M 364 790 L 450 946 L 577 946 L 469 790 L 364 790 Z" unicode="Ő" />
<glyph horiz-adv-x="498" d="M 24 0 L 24 0 Z M 246 -9 C 217 -9 189 -4 163 6 C 136 16 112 30 92 50 C 71 69 54 93 42 121 C 30 149 24 181 24 217 C 24 249 29 280 41 308 C 53 336 69 360 89 380 C 109 400 132 416 159 428 C 185 440 213 446 243 446 C 274 446 304 441 332 431 C 360 421 384 406 405 388 C 426 369 443 346 455 319 C 467 292 474 262 474 229 C 474 193 468 161 456 132 C 444 102 428 77 408 57 C 388 36 364 20 336 8 C 308 -3 278 -9 246 -9 Z M 249 86 C 279 86 304 97 322 120 C 340 143 349 177 349 223 C 349 263 339 294 321 316 C 303 338 277 350 243 350 C 215 350 193 339 175 317 C 157 295 149 263 149 219 C 149 172 158 138 177 117 C 195 96 219 86 249 86 Z M 243 496 L 243 496 Z M 38 496 L 124 652 L 251 652 L 143 496 L 38 496 Z M 236 496 L 322 652 L 449 652 L 341 496 L 236 496 Z" unicode="ő" />
<glyph horiz-adv-x="1021" d="M 355 -10 C 307 -10 263 -1 224 16 C 185 34 152 59 125 92 C 97 124 76 164 61 212 C 46 259 39 312 39 370 C 39 424 47 474 63 520 C 79 566 102 605 131 637 C 159 669 193 695 233 713 C 272 731 314 740 360 740 C 382 740 404 737 426 732 C 448 726 469 719 488 710 C 506 701 523 690 538 678 C 552 665 563 652 570 638 L 570 730 L 967 730 L 967 619 L 695 619 L 695 415 L 952 415 L 952 305 L 695 305 L 695 111 L 987 111 L 987 0 L 570 0 L 570 101 C 556 71 530 45 492 23 C 454 1 409 -10 355 -10 Z M 372 99 C 429 99 476 121 514 166 C 551 210 570 278 570 370 C 570 414 564 452 552 485 C 540 517 525 544 507 566 C 489 587 467 603 443 613 C 419 623 394 629 370 629 C 312 629 264 607 227 564 C 190 521 172 455 172 366 C 172 274 191 207 229 164 C 267 120 314 99 372 99 Z" unicode="Œ" />
<glyph horiz-adv-x="795" d="M 243 -9 C 213 -9 184 -3 158 7 C 131 17 108 32 88 52 C 68 71 53 95 41 123 C 29 151 24 182 24 217 C 24 250 29 281 41 309 C 52 337 67 361 87 381 C 107 401 130 417 157 429 C 184 440 213 446 245 446 C 290 446 326 437 354 421 C 382 405 401 386 411 366 C 420 384 438 401 466 419 C 493 437 528 446 570 446 C 639 446 691 422 727 375 C 763 327 781 264 781 185 L 466 185 C 467 154 478 129 499 110 C 520 91 548 82 582 82 C 612 82 636 87 654 97 C 671 107 686 118 699 130 L 763 66 C 745 46 722 29 696 14 C 670 -1 630 -9 577 -9 C 529 -9 491 0 464 17 C 437 34 419 52 410 71 C 400 53 380 36 351 18 C 322 0 286 -9 243 -9 Z M 468 267 L 667 267 C 665 292 656 313 639 330 C 622 346 599 355 569 355 C 539 355 516 346 499 330 C 481 313 471 292 468 267 Z M 249 87 C 280 87 304 97 322 119 C 340 141 349 175 349 223 C 349 264 339 295 321 317 C 302 339 277 350 246 350 C 216 350 192 338 174 316 C 156 293 148 261 148 219 C 148 173 157 139 175 118 C 193 97 218 87 249 87 Z" unicode="œ" />
<glyph horiz-adv-x="588" d="M 77 0 L 77 0 Z M 77 0 L 77 730 L 297 730 C 326 730 354 725 380 717 C 406 708 428 695 447 678 C 465 661 480 640 491 615 C 502 589 508 560 508 527 C 508 497 504 470 496 446 C 488 422 478 401 465 384 C 452 367 437 353 420 343 C 403 333 385 326 367 323 L 364 319 L 578 0 L 433 0 L 244 286 L 202 286 L 202 0 L 77 0 Z M 202 397 L 273 397 C 303 397 329 406 349 426 C 369 446 379 474 379 510 C 379 543 369 569 349 588 C 329 607 304 617 275 617 L 202 617 L 202 397 Z M 280 790 L 280 790 Z M 160 790 L 259 956 L 400 956 L 279 790 L 160 790 Z" unicode="Ŕ" />
<glyph horiz-adv-x="372" d="M 49 0 L 49 0 Z M 372 415 L 330 316 C 315 327 301 334 289 338 C 276 341 264 343 253 343 C 233 343 214 335 196 320 C 178 304 169 280 169 246 L 169 0 L 49 0 L 49 436 L 164 436 L 164 369 C 170 385 183 402 204 420 C 224 437 251 446 284 446 C 302 446 319 443 335 437 C 350 431 362 423 372 415 Z M 210 496 L 210 496 Z M 90 496 L 189 662 L 330 662 L 209 496 L 90 496 Z" unicode="ŕ" />
<glyph horiz-adv-x="588" d="M 77 0 L 77 0 Z M 77 0 L 77 730 L 297 730 C 326 730 354 725 380 717 C 406 708 428 695 447 678 C 465 661 480 640 491 615 C 502 589 508 560 508 527 C 508 497 504 470 496 446 C 488 422 478 401 465 384 C 452 367 437 353 420 343 C 403 333 385 326 367 323 L 364 319 L 578 0 L 433 0 L 244 286 L 202 286 L 202 0 L 77 0 Z M 202 397 L 273 397 C 303 397 329 406 349 426 C 369 446 379 474 379 510 C 379 543 369 569 349 588 C 329 607 304 617 275 617 L 202 617 L 202 397 Z M 292 -70 L 292 -70 Z M 394 -70 C 392 -92 388 -117 380 -143 C 372 -169 363 -195 352 -219 C 341 -243 329 -264 316 -284 C 303 -304 291 -318 280 -328 L 190 -288 C 198 -278 206 -266 214 -250 C 222 -234 230 -216 238 -197 C 246 -177 252 -157 258 -135 C 264 -113 268 -91 270 -70 L 394 -70 Z" unicode="Ŗ" />
<glyph horiz-adv-x="372" d="M 49 0 L 49 0 Z M 372 415 L 330 316 C 315 327 301 334 289 338 C 276 341 264 343 253 343 C 233 343 214 335 196 320 C 178 304 169 280 169 246 L 169 0 L 49 0 L 49 436 L 164 436 L 164 369 C 170 385 183 402 204 420 C 224 437 251 446 284 446 C 302 446 319 443 335 437 C 350 431 362 423 372 415 Z M 186 -70 L 186 -70 Z M 288 -70 C 286 -92 282 -117 274 -143 C 266 -169 257 -195 246 -219 C 235 -243 223 -264 210 -284 C 197 -304 185 -318 174 -328 L 84 -288 C 92 -278 100 -266 108 -250 C 116 -234 124 -216 132 -197 C 140 -177 146 -157 152 -135 C 158 -113 162 -91 164 -70 L 288 -70 Z" unicode="ŗ" />
<glyph horiz-adv-x="588" d="M 77 0 L 77 0 Z M 77 0 L 77 730 L 297 730 C 326 730 354 725 380 717 C 406 708 428 695 447 678 C 465 661 480 640 491 615 C 502 589 508 560 508 527 C 508 497 504 470 496 446 C 488 422 478 401 465 384 C 452 367 437 353 420 343 C 403 333 385 326 367 323 L 364 319 L 578 0 L 433 0 L 244 286 L 202 286 L 202 0 L 77 0 Z M 202 397 L 273 397 C 303 397 329 406 349 426 C 369 446 379 474 379 510 C 379 543 369 569 349 588 C 329 607 304 617 275 617 L 202 617 L 202 397 Z M 280 791 L 280 791 Z M 108 964 L 214 964 L 281 871 L 349 964 L 453 964 L 338 791 L 223 791 L 108 964 Z" unicode="Ř" />
<glyph horiz-adv-x="372" d="M 38 0 L 38 0 Z M 372 415 L 330 316 C 315 327 301 334 289 338 C 276 341 264 343 253 343 C 233 343 214 335 196 320 C 178 304 169 280 169 246 L 169 0 L 49 0 L 49 436 L 164 436 L 164 369 C 170 385 183 402 204 420 C 224 437 251 446 284 446 C 302 446 319 443 335 437 C 350 431 362 423 372 415 Z M 210 497 L 210 497 Z M 38 670 L 144 670 L 211 577 L 279 670 L 383 670 L 268 497 L 153 497 L 38 670 Z" unicode="ř" />
<glyph horiz-adv-x="480" d="M 16 0 L 16 0 Z M 249 -10 C 200 -10 156 -2 117 12 C 77 26 44 49 16 80 L 87 171 C 103 150 125 133 153 119 C 181 105 210 98 240 98 C 268 98 291 106 310 123 C 329 139 339 162 339 190 C 339 216 329 239 311 258 C 292 277 262 297 220 318 C 196 330 174 343 152 357 C 130 371 110 387 94 405 C 78 423 65 445 55 469 C 45 493 40 522 40 554 C 40 608 59 652 98 687 C 136 722 186 740 246 740 C 286 740 322 734 354 722 C 386 710 413 694 437 675 L 375 581 C 359 595 340 606 320 615 C 299 624 277 629 255 629 C 227 629 205 621 188 606 C 171 591 163 572 163 550 C 163 525 171 504 189 488 C 206 471 241 450 293 425 C 349 396 391 364 419 329 C 447 293 461 248 461 193 C 461 160 455 131 443 106 C 431 80 415 59 395 42 C 375 24 353 11 328 3 C 302 -5 276 -10 249 -10 Z M 243 790 L 243 790 Z M 123 790 L 222 956 L 363 956 L 242 790 L 123 790 Z" unicode="Ś" />
<glyph horiz-adv-x="369" d="M 17 0 L 17 0 Z M 194 -10 C 155 -10 120 -4 90 6 C 60 16 35 31 17 49 L 72 127 C 86 113 104 103 126 95 C 148 87 169 83 190 83 C 205 83 217 86 227 93 C 237 100 242 110 242 122 C 242 134 234 145 220 154 C 205 162 183 171 155 181 C 119 192 89 208 65 229 C 41 249 29 279 29 318 C 29 354 43 384 73 409 C 103 433 140 446 185 446 C 217 446 246 441 274 431 C 301 421 322 411 337 399 L 283 324 C 272 331 258 338 241 344 C 224 350 207 354 189 354 C 175 354 162 351 151 347 C 140 343 135 335 135 325 C 135 315 140 307 150 301 C 160 294 182 285 215 273 C 255 258 287 241 311 221 C 335 201 348 170 348 129 C 348 85 333 51 303 27 C 273 2 236 -10 194 -10 Z M 188 496 L 188 496 Z M 68 496 L 167 662 L 308 662 L 187 496 L 68 496 Z" unicode="ś" />
<glyph horiz-adv-x="480" d="M 16 0 L 16 0 Z M 249 -10 C 200 -10 156 -2 117 12 C 77 26 44 49 16 80 L 87 171 C 103 150 125 133 153 119 C 181 105 210 98 240 98 C 268 98 291 106 310 123 C 329 139 339 162 339 190 C 339 216 329 239 311 258 C 292 277 262 297 220 318 C 196 330 174 343 152 357 C 130 371 110 387 94 405 C 78 423 65 445 55 469 C 45 493 40 522 40 554 C 40 608 59 652 98 687 C 136 722 186 740 246 740 C 286 740 322 734 354 722 C 386 710 413 694 437 675 L 375 581 C 359 595 340 606 320 615 C 299 624 277 629 255 629 C 227 629 205 621 188 606 C 171 591 163 572 163 550 C 163 525 171 504 189 488 C 206 471 241 450 293 425 C 349 396 391 364 419 329 C 447 293 461 248 461 193 C 461 160 455 131 443 106 C 431 80 415 59 395 42 C 375 24 353 11 328 3 C 302 -5 276 -10 249 -10 Z M 243 791 L 243 791 Z M 416 791 L 310 791 L 243 885 L 175 791 L 71 791 L 186 964 L 301 964 L 416 791 Z" unicode="Ŝ" />
<glyph horiz-adv-x="369" d="M 16 0 L 16 0 Z M 194 -10 C 155 -10 120 -4 90 6 C 60 16 35 31 17 49 L 72 127 C 86 113 104 103 126 95 C 148 87 169 83 190 83 C 205 83 217 86 227 93 C 237 100 242 110 242 122 C 242 134 234 145 220 154 C 205 162 183 171 155 181 C 119 192 89 208 65 229 C 41 249 29 279 29 318 C 29 354 43 384 73 409 C 103 433 140 446 185 446 C 217 446 246 441 274 431 C 301 421 322 411 337 399 L 283 324 C 272 331 258 338 241 344 C 224 350 207 354 189 354 C 175 354 162 351 151 347 C 140 343 135 335 135 325 C 135 315 140 307 150 301 C 160 294 182 285 215 273 C 255 258 287 241 311 221 C 335 201 348 170 348 129 C 348 85 333 51 303 27 C 273 2 236 -10 194 -10 Z M 188 497 L 188 497 Z M 361 497 L 255 497 L 188 591 L 120 497 L 16 497 L 131 670 L 246 670 L 361 497 Z" unicode="ŝ" />
<glyph horiz-adv-x="480" d="M 16 0 L 16 0 Z M 249 -10 C 200 -10 156 -2 117 12 C 77 26 44 49 16 80 L 87 171 C 103 150 125 133 153 119 C 181 105 210 98 240 98 C 268 98 291 106 310 123 C 329 139 339 162 339 190 C 339 216 329 239 311 258 C 292 277 262 297 220 318 C 196 330 174 343 152 357 C 130 371 110 387 94 405 C 78 423 65 445 55 469 C 45 493 40 522 40 554 C 40 608 59 652 98 687 C 136 722 186 740 246 740 C 286 740 322 734 354 722 C 386 710 413 694 437 675 L 375 581 C 359 595 340 606 320 615 C 299 624 277 629 255 629 C 227 629 205 621 188 606 C 171 591 163 572 163 550 C 163 525 171 504 189 488 C 206 471 241 450 293 425 C 349 396 391 364 419 329 C 447 293 461 248 461 193 C 461 160 455 131 443 106 C 431 80 415 59 395 42 C 375 24 353 11 328 3 C 302 -5 276 -10 249 -10 Z M 223 0 L 223 0 Z M 230 -189 C 205 -189 180 -186 155 -180 C 130 -174 111 -166 98 -157 L 112 -106 C 120 -110 132 -115 147 -120 C 162 -125 178 -128 195 -128 C 206 -128 216 -125 225 -120 C 234 -114 239 -107 239 -99 C 239 -88 235 -81 227 -77 C 219 -73 210 -71 202 -71 C 195 -71 189 -71 184 -72 C 179 -73 174 -75 169 -77 L 151 -58 L 213 14 L 283 14 L 235 -46 C 267 -40 294 -44 316 -57 C 337 -69 348 -88 348 -112 C 348 -137 336 -156 312 -169 C 288 -182 260 -189 230 -189 Z" unicode="Ş" />
<glyph horiz-adv-x="369" d="M 17 0 L 17 0 Z M 194 -10 C 155 -10 120 -4 90 6 C 60 16 35 31 17 49 L 72 127 C 86 113 104 103 126 95 C 148 87 169 83 190 83 C 205 83 217 86 227 93 C 237 100 242 110 242 122 C 242 134 234 145 220 154 C 205 162 183 171 155 181 C 119 192 89 208 65 229 C 41 249 29 279 29 318 C 29 354 43 384 73 409 C 103 433 140 446 185 446 C 217 446 246 441 274 431 C 301 421 322 411 337 399 L 283 324 C 272 331 258 338 241 344 C 224 350 207 354 189 354 C 175 354 162 351 151 347 C 140 343 135 335 135 325 C 135 315 140 307 150 301 C 160 294 182 285 215 273 C 255 258 287 241 311 221 C 335 201 348 170 348 129 C 348 85 333 51 303 27 C 273 2 236 -10 194 -10 Z M 175 0 L 175 0 Z M 182 -189 C 157 -189 132 -186 107 -180 C 82 -174 63 -166 50 -157 L 64 -106 C 72 -110 84 -115 99 -120 C 114 -125 130 -128 147 -128 C 158 -128 168 -125 177 -120 C 186 -114 191 -107 191 -99 C 191 -88 187 -81 179 -77 C 171 -73 162 -71 154 -71 C 147 -71 141 -71 136 -72 C 131 -73 126 -75 121 -77 L 103 -58 L 165 14 L 235 14 L 187 -46 C 219 -40 246 -44 268 -57 C 289 -69 300 -88 300 -112 C 300 -137 288 -156 264 -169 C 240 -182 212 -189 182 -189 Z" unicode="ş" />
<glyph horiz-adv-x="480" d="M 16 0 L 16 0 Z M 249 -10 C 200 -10 156 -2 117 12 C 77 26 44 49 16 80 L 87 171 C 103 150 125 133 153 119 C 181 105 210 98 240 98 C 268 98 291 106 310 123 C 329 139 339 162 339 190 C 339 216 329 239 311 258 C 292 277 262 297 220 318 C 196 330 174 343 152 357 C 130 371 110 387 94 405 C 78 423 65 445 55 469 C 45 493 40 522 40 554 C 40 608 59 652 98 687 C 136 722 186 740 246 740 C 286 740 322 734 354 722 C 386 710 413 694 437 675 L 375 581 C 359 595 340 606 320 615 C 299 624 277 629 255 629 C 227 629 205 621 188 606 C 171 591 163 572 163 550 C 163 525 171 504 189 488 C 206 471 241 450 293 425 C 349 396 391 364 419 329 C 447 293 461 248 461 193 C 461 160 455 131 443 106 C 431 80 415 59 395 42 C 375 24 353 11 328 3 C 302 -5 276 -10 249 -10 Z M 243 791 L 243 791 Z M 71 964 L 177 964 L 244 871 L 312 964 L 416 964 L 301 791 L 186 791 L 71 964 Z" unicode="Š" />
<glyph horiz-adv-x="369" d="M 16 0 L 16 0 Z M 194 -10 C 155 -10 120 -4 90 6 C 60 16 35 31 17 49 L 72 127 C 86 113 104 103 126 95 C 148 87 169 83 190 83 C 205 83 217 86 227 93 C 237 100 242 110 242 122 C 242 134 234 145 220 154 C 205 162 183 171 155 181 C 119 192 89 208 65 229 C 41 249 29 279 29 318 C 29 354 43 384 73 409 C 103 433 140 446 185 446 C 217 446 246 441 274 431 C 301 421 322 411 337 399 L 283 324 C 272 331 258 338 241 344 C 224 350 207 354 189 354 C 175 354 162 351 151 347 C 140 343 135 335 135 325 C 135 315 140 307 150 301 C 160 294 182 285 215 273 C 255 258 287 241 311 221 C 335 201 348 170 348 129 C 348 85 333 51 303 27 C 273 2 236 -10 194 -10 Z M 188 497 L 188 497 Z M 16 670 L 122 670 L 189 577 L 257 670 L 361 670 L 246 497 L 131 497 L 16 670 Z" unicode="š" />
<glyph horiz-adv-x="497" d="M 8 0 L 8 0 Z M 488 615 L 312 615 L 312 0 L 182 0 L 182 615 L 8 615 L 8 730 L 488 730 L 488 615 Z M 247 791 L 247 791 Z M 75 964 L 181 964 L 248 871 L 316 964 L 420 964 L 305 791 L 190 791 L 75 964 Z" unicode="Ť" />
<glyph horiz-adv-x="267" d="M 8 0 L 8 0 Z M 252 99 L 260 4 C 256 1 249 -1 239 -3 C 229 -5 216 -6 201 -6 C 186 -6 170 -4 153 0 C 136 4 120 11 106 21 C 92 31 80 44 71 62 C 61 79 57 101 57 127 L 57 334 L 8 334 L 8 436 L 58 436 L 58 558 L 174 570 L 174 436 L 248 436 L 248 334 L 175 334 L 175 145 C 175 125 179 112 189 105 C 198 98 211 95 228 95 C 231 95 236 95 242 96 C 248 97 251 98 252 99 Z M 363 621 L 357 473 L 255 473 L 250 621 L 250 730 L 363 730 L 363 621 Z" unicode="ť" />
<glyph horiz-adv-x="497" d="M 430 420 L 312 420 L 312 0 L 182 0 L 182 420 L 60 420 L 60 513 L 182 513 L 182 615 L 8 615 L 8 730 L 488 730 L 488 615 L 312 615 L 312 513 L 430 513 L 430 420 Z" unicode="Ŧ" />
<glyph horiz-adv-x="267" d="M 260 4 C 256 1 249 -1 239 -3 C 229 -5 216 -6 201 -6 C 186 -6 170 -4 153 0 C 136 4 120 11 106 21 C 92 31 80 44 71 62 C 61 79 57 101 57 127 L 57 205 L 18 205 L 18 291 L 57 291 L 57 334 L 8 334 L 8 436 L 58 436 L 58 558 L 174 570 L 174 436 L 248 436 L 248 334 L 175 334 L 175 291 L 237 291 L 237 205 L 175 205 L 175 145 C 175 125 179 112 189 105 C 198 98 211 95 228 95 C 231 95 236 95 242 96 C 248 97 251 98 252 99 L 260 4 Z" unicode="ŧ" />
<glyph horiz-adv-x="676" d="M 71 0 L 71 0 Z M 605 730 L 605 252 C 605 210 597 172 583 139 C 569 106 549 79 525 57 C 501 35 472 18 439 7 C 406 -4 371 -10 335 -10 C 299 -10 264 -4 232 6 C 200 17 172 33 148 55 C 124 77 106 104 92 137 C 78 170 71 208 71 252 L 71 730 L 197 730 L 197 245 C 197 201 210 166 236 141 C 262 116 295 104 335 104 C 375 104 408 116 436 140 C 463 164 477 199 477 245 L 477 730 L 605 730 Z M 337 795 L 337 795 Z M 415 942 L 504 942 C 504 892 496 855 481 831 C 466 807 447 795 425 795 C 405 795 389 798 375 805 C 361 811 350 817 342 822 C 333 827 324 832 316 838 C 308 843 300 846 292 846 C 284 846 278 841 272 832 C 266 823 264 812 264 799 L 175 799 C 175 848 184 885 203 909 C 222 933 242 946 264 946 C 281 946 295 942 307 936 C 319 930 330 923 341 917 C 349 911 356 906 364 901 C 371 895 378 893 386 893 C 392 893 399 897 405 906 C 411 915 414 927 415 942 Z" unicode="Ũ" />
<glyph horiz-adv-x="498" d="M 46 0 L 46 0 Z M 46 436 L 164 436 L 164 158 C 164 134 171 116 185 104 C 199 92 218 86 242 86 C 266 86 287 93 304 108 C 320 122 329 145 329 176 L 329 436 L 448 436 L 448 0 L 333 0 L 333 62 C 320 40 301 23 276 11 C 251 -1 223 -8 193 -8 C 152 -8 117 4 89 29 C 60 54 46 91 46 139 L 46 436 Z M 247 501 L 247 501 Z M 325 648 L 414 648 C 414 598 406 561 391 537 C 376 513 357 501 335 501 C 315 501 299 504 285 511 C 271 517 260 523 252 528 C 243 533 234 538 226 544 C 218 549 210 552 202 552 C 194 552 188 547 182 538 C 176 529 174 518 174 505 L 85 505 C 85 554 94 591 113 615 C 132 639 152 652 174 652 C 191 652 205 648 217 642 C 229 636 240 629 251 623 C 259 617 266 612 274 607 C 281 601 288 599 296 599 C 302 599 309 603 315 612 C 321 621 324 633 325 648 Z" unicode="ũ" />
<glyph horiz-adv-x="676" d="M 71 0 L 71 0 Z M 605 730 L 605 252 C 605 210 597 172 583 139 C 569 106 549 79 525 57 C 501 35 472 18 439 7 C 406 -4 371 -10 335 -10 C 299 -10 264 -4 232 6 C 200 17 172 33 148 55 C 124 77 106 104 92 137 C 78 170 71 208 71 252 L 71 730 L 197 730 L 197 245 C 197 201 210 166 236 141 C 262 116 295 104 335 104 C 375 104 408 116 436 140 C 463 164 477 199 477 245 L 477 730 L 605 730 Z M 337 809 L 337 809 Z M 472 809 L 202 809 L 202 897 L 472 897 L 472 809 Z" unicode="Ū" />
<glyph horiz-adv-x="498" d="M 46 0 L 46 0 Z M 46 436 L 164 436 L 164 158 C 164 134 171 116 185 104 C 199 92 218 86 242 86 C 266 86 287 93 304 108 C 320 122 329 145 329 176 L 329 436 L 448 436 L 448 0 L 333 0 L 333 62 C 320 40 301 23 276 11 C 251 -1 223 -8 193 -8 C 152 -8 117 4 89 29 C 60 54 46 91 46 139 L 46 436 Z M 247 515 L 247 515 Z M 382 515 L 112 515 L 112 603 L 382 603 L 382 515 Z" unicode="ū" />
<glyph horiz-adv-x="676" d="M 71 0 L 71 0 Z M 605 730 L 605 252 C 605 210 597 172 583 139 C 569 106 549 79 525 57 C 501 35 472 18 439 7 C 406 -4 371 -10 335 -10 C 299 -10 264 -4 232 6 C 200 17 172 33 148 55 C 124 77 106 104 92 137 C 78 170 71 208 71 252 L 71 730 L 197 730 L 197 245 C 197 201 210 166 236 141 C 262 116 295 104 335 104 C 375 104 408 116 436 140 C 463 164 477 199 477 245 L 477 730 L 605 730 Z M 337 793 L 337 793 Z M 398 953 L 497 953 C 493 897 476 857 447 831 C 417 805 381 793 337 793 C 293 793 256 805 227 831 C 197 857 181 897 177 953 L 276 953 C 278 925 283 903 292 887 C 301 871 316 864 337 864 C 357 864 372 871 382 886 C 391 901 396 923 398 953 Z" unicode="Ŭ" />
<glyph horiz-adv-x="498" d="M 46 0 L 46 0 Z M 46 436 L 164 436 L 164 158 C 164 134 171 116 185 104 C 199 92 218 86 242 86 C 266 86 287 93 304 108 C 320 122 329 145 329 176 L 329 436 L 448 436 L 448 0 L 333 0 L 333 62 C 320 40 301 23 276 11 C 251 -1 223 -8 193 -8 C 152 -8 117 4 89 29 C 60 54 46 91 46 139 L 46 436 Z M 247 499 L 247 499 Z M 308 659 L 407 659 C 403 603 386 563 357 537 C 327 511 291 499 247 499 C 203 499 166 511 137 537 C 107 563 91 603 87 659 L 186 659 C 188 631 193 609 202 593 C 211 577 226 570 247 570 C 267 570 282 577 292 592 C 301 607 306 629 308 659 Z" unicode="ŭ" />
<glyph horiz-adv-x="676" d="M 71 0 L 71 0 Z M 605 730 L 605 252 C 605 210 597 172 583 139 C 569 106 549 79 525 57 C 501 35 472 18 439 7 C 406 -4 371 -10 335 -10 C 299 -10 264 -4 232 6 C 200 17 172 33 148 55 C 124 77 106 104 92 137 C 78 170 71 208 71 252 L 71 730 L 197 730 L 197 245 C 197 201 210 166 236 141 C 262 116 295 104 335 104 C 375 104 408 116 436 140 C 463 164 477 199 477 245 L 477 730 L 605 730 Z M 337 787 L 337 787 Z M 337 787 C 304 787 276 798 254 821 C 231 843 220 871 220 904 C 220 936 231 963 254 986 C 276 1008 304 1020 337 1020 C 369 1020 397 1008 420 986 C 443 963 455 936 455 904 C 455 871 443 843 420 821 C 397 798 369 787 337 787 Z M 337 852 C 351 852 363 857 373 867 C 382 877 387 889 387 903 C 387 917 382 929 373 939 C 363 949 351 954 337 954 C 323 954 311 949 301 939 C 291 929 287 917 287 903 C 287 889 291 877 301 867 C 311 857 323 852 337 852 Z" unicode="Ů" />
<glyph horiz-adv-x="498" d="M 46 0 L 46 0 Z M 46 436 L 164 436 L 164 158 C 164 134 171 116 185 104 C 199 92 218 86 242 86 C 266 86 287 93 304 108 C 320 122 329 145 329 176 L 329 436 L 448 436 L 448 0 L 333 0 L 333 62 C 320 40 301 23 276 11 C 251 -1 223 -8 193 -8 C 152 -8 117 4 89 29 C 60 54 46 91 46 139 L 46 436 Z M 247 493 L 247 493 Z M 247 493 C 214 493 186 504 164 527 C 141 549 130 577 130 610 C 130 642 141 669 164 692 C 186 714 214 726 247 726 C 279 726 307 714 330 692 C 353 669 365 642 365 610 C 365 577 353 549 330 527 C 307 504 279 493 247 493 Z M 247 558 C 261 558 273 563 283 573 C 292 583 297 595 297 609 C 297 623 292 635 283 645 C 273 655 261 660 247 660 C 233 660 221 655 211 645 C 201 635 197 623 197 609 C 197 595 201 583 211 573 C 221 563 233 558 247 558 Z" unicode="ů" />
<glyph horiz-adv-x="676" d="M 71 0 L 71 0 Z M 605 730 L 605 252 C 605 210 597 172 583 139 C 569 106 549 79 525 57 C 501 35 472 18 439 7 C 406 -4 371 -10 335 -10 C 299 -10 264 -4 232 6 C 200 17 172 33 148 55 C 124 77 106 104 92 137 C 78 170 71 208 71 252 L 71 730 L 197 730 L 197 245 C 197 201 210 166 236 141 C 262 116 295 104 335 104 C 375 104 408 116 436 140 C 463 164 477 199 477 245 L 477 730 L 605 730 Z M 337 790 L 337 790 Z M 132 790 L 218 946 L 345 946 L 237 790 L 132 790 Z M 330 790 L 416 946 L 543 946 L 435 790 L 330 790 Z" unicode="Ű" />
<glyph horiz-adv-x="498" d="M 42 0 L 42 0 Z M 46 436 L 164 436 L 164 158 C 164 134 171 116 185 104 C 199 92 218 86 242 86 C 266 86 287 93 304 108 C 320 122 329 145 329 176 L 329 436 L 448 436 L 448 0 L 333 0 L 333 62 C 320 40 301 23 276 11 C 251 -1 223 -8 193 -8 C 152 -8 117 4 89 29 C 60 54 46 91 46 139 L 46 436 Z M 247 496 L 247 496 Z M 42 496 L 128 652 L 255 652 L 147 496 L 42 496 Z M 240 496 L 326 652 L 453 652 L 345 496 L 240 496 Z" unicode="ű" />
<glyph horiz-adv-x="676" d="M 71 0 L 71 0 Z M 605 730 L 605 252 C 605 210 597 172 583 139 C 569 106 549 79 525 57 C 501 35 472 18 439 7 C 406 -4 371 -10 335 -10 C 299 -10 264 -4 232 6 C 200 17 172 33 148 55 C 124 77 106 104 92 137 C 78 170 71 208 71 252 L 71 730 L 197 730 L 197 245 C 197 201 210 166 236 141 C 262 116 295 104 335 104 C 375 104 408 116 436 140 C 463 164 477 199 477 245 L 477 730 L 605 730 Z M 383 -7 L 383 -7 Z M 484 -82 L 516 -133 C 495 -155 472 -171 447 -182 C 421 -193 393 -199 362 -199 C 327 -199 300 -191 280 -177 C 260 -162 250 -143 250 -121 C 250 -96 261 -72 284 -50 C 306 -28 338 -9 379 6 L 437 6 C 413 -5 393 -18 377 -32 C 361 -46 353 -59 353 -72 C 353 -84 357 -93 366 -100 C 375 -107 387 -111 402 -111 C 419 -111 435 -108 449 -103 C 463 -97 474 -90 484 -82 Z" unicode="Ų" />
<glyph horiz-adv-x="498" d="M 46 0 L 46 0 Z M 46 436 L 164 436 L 164 158 C 164 134 171 116 185 104 C 199 92 218 86 242 86 C 266 86 287 93 304 108 C 320 122 329 145 329 176 L 329 436 L 448 436 L 448 0 L 333 0 L 333 62 C 320 40 301 23 276 11 C 251 -1 223 -8 193 -8 C 152 -8 117 4 89 29 C 60 54 46 91 46 139 L 46 436 Z M 349 -7 L 349 -7 Z M 450 -82 L 482 -133 C 461 -155 438 -171 413 -182 C 387 -193 359 -199 328 -199 C 293 -199 266 -191 246 -177 C 226 -162 216 -143 216 -121 C 216 -96 227 -72 250 -50 C 272 -28 304 -9 345 6 L 403 6 C 379 -5 359 -18 343 -32 C 327 -46 319 -59 319 -72 C 319 -84 323 -93 332 -100 C 341 -107 353 -111 368 -111 C 385 -111 401 -108 415 -103 C 429 -97 440 -90 450 -82 Z" unicode="ų" />
<glyph horiz-adv-x="854" d="M 2 0 L 2 0 Z M 847 730 L 642 -6 L 570 -6 L 425 487 L 274 -6 L 203 -6 L 2 730 L 128 730 L 251 255 L 393 730 L 468 730 L 606 254 L 730 730 L 847 730 Z M 431 791 L 431 791 Z M 604 791 L 498 791 L 431 885 L 363 791 L 259 791 L 374 964 L 489 964 L 604 791 Z" unicode="Ŵ" />
<glyph horiz-adv-x="638" d="M 3 0 L 3 0 Z M 413 -3 L 320 247 L 226 -3 L 151 -3 L 3 436 L 122 436 L 204 170 L 290 407 L 360 407 L 445 170 L 530 436 L 636 436 L 486 -3 L 413 -3 Z M 322 497 L 322 497 Z M 495 497 L 389 497 L 322 591 L 254 497 L 150 497 L 265 670 L 380 670 L 495 497 Z" unicode="ŵ" />
<glyph horiz-adv-x="570" d="M 0 0 L 0 0 Z M 603 730 L 362 317 L 362 0 L 232 0 L 232 322 L -3 730 L 138 730 L 303 442 L 469 730 L 603 730 Z M 301 791 L 301 791 Z M 474 791 L 368 791 L 301 885 L 233 791 L 129 791 L 244 964 L 359 964 L 474 791 Z" unicode="Ŷ" />
<glyph horiz-adv-x="450" d="M 0 0 L 0 0 Z M 454 436 L 222 -94 C 203 -136 179 -164 151 -178 C 122 -192 94 -200 67 -200 C 51 -200 38 -198 26 -195 C 14 -191 5 -188 -1 -186 L 31 -86 C 33 -87 39 -89 47 -91 C 55 -93 62 -95 70 -95 C 84 -95 95 -90 105 -82 C 115 -74 124 -59 134 -39 L 169 43 L -5 436 L 124 436 L 230 174 L 336 436 L 454 436 Z M 227 497 L 227 497 Z M 400 497 L 294 497 L 227 591 L 159 497 L 55 497 L 170 670 L 285 670 L 400 497 Z" unicode="ŷ" />
<glyph horiz-adv-x="599" d="M 0 0 L 0 0 Z M 603 730 L 362 317 L 362 0 L 232 0 L 232 322 L -3 730 L 138 730 L 303 442 L 469 730 L 603 730 Z M 301 791 L 301 791 Z M 442 791 L 343 791 L 343 951 L 442 951 L 442 791 Z M 259 791 L 160 791 L 160 951 L 259 951 L 259 791 Z" unicode="Ÿ" />
<glyph horiz-adv-x="522" d="M 14 0 L 14 0 Z M 509 730 L 509 675 L 184 114 L 520 114 L 520 0 L 14 0 L 14 53 L 338 615 L 39 615 L 39 730 L 509 730 Z M 270 790 L 270 790 Z M 150 790 L 249 956 L 390 956 L 269 790 L 150 790 Z" unicode="Ź" />
<glyph horiz-adv-x="377" d="M 9 0 L 9 0 Z M 363 436 L 363 381 L 178 101 L 367 101 L 367 0 L 9 0 L 9 39 L 207 335 L 20 335 L 20 436 L 363 436 Z M 193 496 L 193 496 Z M 73 496 L 172 662 L 313 662 L 192 496 L 73 496 Z" unicode="ź" />
<glyph horiz-adv-x="522" d="M 14 0 L 14 0 Z M 509 730 L 509 675 L 184 114 L 520 114 L 520 0 L 14 0 L 14 53 L 338 615 L 39 615 L 39 730 L 509 730 Z M 270 797 L 270 797 Z M 325 797 L 216 797 L 216 950 L 325 950 L 325 797 Z" unicode="Ż" />
<glyph horiz-adv-x="377" d="M 9 0 L 9 0 Z M 363 436 L 363 381 L 178 101 L 367 101 L 367 0 L 9 0 L 9 39 L 207 335 L 20 335 L 20 436 L 363 436 Z M 193 503 L 193 503 Z M 248 503 L 139 503 L 139 656 L 248 656 L 248 503 Z" unicode="ż" />
<glyph horiz-adv-x="545" d="M 14 0 L 14 0 Z M 509 730 L 509 675 L 184 114 L 520 114 L 520 0 L 14 0 L 14 53 L 338 615 L 39 615 L 39 730 L 509 730 Z M 270 791 L 270 791 Z M 98 964 L 204 964 L 271 871 L 339 964 L 443 964 L 328 791 L 213 791 L 98 964 Z" unicode="Ž" />
<glyph horiz-adv-x="377" d="M 9 0 L 9 0 Z M 363 436 L 363 381 L 178 101 L 367 101 L 367 0 L 9 0 L 9 39 L 207 335 L 20 335 L 20 436 L 363 436 Z" unicode="ž" />
<glyph horiz-adv-x="372" d="M 201 -52 C 199 -68 195 -83 189 -99 C 182 -114 173 -127 162 -139 C 150 -151 137 -160 121 -168 C 105 -175 88 -179 70 -179 C 49 -179 29 -177 11 -173 C -7 -169 -22 -165 -32 -161 L -20 -74 C -15 -74 -8 -76 1 -78 C 10 -80 19 -82 28 -82 C 47 -82 63 -75 75 -63 C 87 -50 94 -31 97 -7 L 126 321 L 35 321 L 35 419 L 134 419 L 152 620 C 154 640 159 658 168 674 C 177 689 188 702 201 712 C 214 722 228 730 244 735 C 259 740 274 743 288 743 C 302 743 317 742 332 741 C 347 740 356 739 359 739 L 350 636 C 348 636 344 637 338 638 C 332 638 326 639 320 639 C 301 639 286 632 274 620 C 262 607 256 587 254 561 L 242 419 L 343 419 L 343 321 L 233 321 L 201 -52 Z" unicode="ƒ" />
<glyph horiz-adv-x="480" d="M 16 0 L 16 0 Z M 249 -10 C 200 -10 156 -2 117 12 C 77 26 44 49 16 80 L 87 171 C 103 150 125 133 153 119 C 181 105 210 98 240 98 C 268 98 291 106 310 123 C 329 139 339 162 339 190 C 339 216 329 239 311 258 C 292 277 262 297 220 318 C 196 330 174 343 152 357 C 130 371 110 387 94 405 C 78 423 65 445 55 469 C 45 493 40 522 40 554 C 40 608 59 652 98 687 C 136 722 186 740 246 740 C 286 740 322 734 354 722 C 386 710 413 694 437 675 L 375 581 C 359 595 340 606 320 615 C 299 624 277 629 255 629 C 227 629 205 621 188 606 C 171 591 163 572 163 550 C 163 525 171 504 189 488 C 206 471 241 450 293 425 C 349 396 391 364 419 329 C 447 293 461 248 461 193 C 461 160 455 131 443 106 C 431 80 415 59 395 42 C 375 24 353 11 328 3 C 302 -5 276 -10 249 -10 Z M 223 -70 L 223 -70 Z M 325 -70 C 323 -92 319 -117 311 -143 C 303 -169 294 -195 283 -219 C 272 -243 260 -264 247 -284 C 234 -304 222 -318 211 -328 L 121 -288 C 129 -278 137 -266 145 -250 C 153 -234 161 -216 169 -197 C 177 -177 183 -157 189 -135 C 195 -113 199 -91 201 -70 L 325 -70 Z" unicode="Ș" />
<glyph horiz-adv-x="369" d="M 17 0 L 17 0 Z M 194 -10 C 155 -10 120 -4 90 6 C 60 16 35 31 17 49 L 72 127 C 86 113 104 103 126 95 C 148 87 169 83 190 83 C 205 83 217 86 227 93 C 237 100 242 110 242 122 C 242 134 234 145 220 154 C 205 162 183 171 155 181 C 119 192 89 208 65 229 C 41 249 29 279 29 318 C 29 354 43 384 73 409 C 103 433 140 446 185 446 C 217 446 246 441 274 431 C 301 421 322 411 337 399 L 283 324 C 272 331 258 338 241 344 C 224 350 207 354 189 354 C 175 354 162 351 151 347 C 140 343 135 335 135 325 C 135 315 140 307 150 301 C 160 294 182 285 215 273 C 255 258 287 241 311 221 C 335 201 348 170 348 129 C 348 85 333 51 303 27 C 273 2 236 -10 194 -10 Z M 175 -70 L 175 -70 Z M 277 -70 C 275 -92 271 -117 263 -143 C 255 -169 246 -195 235 -219 C 224 -243 212 -264 199 -284 C 186 -304 174 -318 163 -328 L 73 -288 C 81 -278 89 -266 97 -250 C 105 -234 113 -216 121 -197 C 129 -177 135 -157 141 -135 C 147 -113 151 -91 153 -70 L 277 -70 Z" unicode="ș" />
<glyph horiz-adv-x="497" d="M 8 0 L 8 0 Z M 488 615 L 312 615 L 312 0 L 182 0 L 182 615 L 8 615 L 8 730 L 488 730 L 488 615 Z M 226 -70 L 226 -70 Z M 328 -70 C 326 -92 322 -117 314 -143 C 306 -169 297 -195 286 -219 C 275 -243 263 -264 250 -284 C 237 -304 225 -318 214 -328 L 124 -288 C 132 -278 140 -266 148 -250 C 156 -234 164 -216 172 -197 C 180 -177 186 -157 192 -135 C 198 -113 202 -91 204 -70 L 328 -70 Z" unicode="Ț" />
<glyph horiz-adv-x="267" d="M 8 0 L 8 0 Z M 252 99 L 260 4 C 256 1 249 -1 239 -3 C 229 -5 216 -6 201 -6 C 186 -6 170 -4 153 0 C 136 4 120 11 106 21 C 92 31 80 44 71 62 C 61 79 57 101 57 127 L 57 334 L 8 334 L 8 436 L 58 436 L 58 558 L 174 570 L 174 436 L 248 436 L 248 334 L 175 334 L 175 145 C 175 125 179 112 189 105 C 198 98 211 95 228 95 C 231 95 236 95 242 96 C 248 97 251 98 252 99 Z M 132 -70 L 132 -70 Z M 234 -70 C 232 -92 228 -117 220 -143 C 212 -169 203 -195 192 -219 C 181 -243 169 -264 156 -284 C 143 -304 131 -318 120 -328 L 30 -288 C 38 -278 46 -266 54 -250 C 62 -234 70 -216 78 -197 C 86 -177 92 -157 98 -135 C 104 -113 108 -91 110 -70 L 234 -70 Z" unicode="ț" />
<glyph horiz-adv-x="217" d="M 169 436 L 169 -69 C 169 -103 157 -133 135 -161 C 113 -188 80 -202 36 -202 C 24 -202 11 -201 -3 -199 C -18 -197 -29 -195 -36 -193 L -27 -99 C -24 -99 -19 -100 -13 -101 C -7 -101 -1 -102 5 -102 C 17 -102 28 -97 37 -89 C 45 -80 50 -67 50 -51 L 50 436 L 169 436 Z" unicode="ȷ" />
<glyph horiz-adv-x="500" d="M 423 497 L 317 497 L 250 591 L 182 497 L 78 497 L 193 670 L 308 670 L 423 497 Z" unicode="ˆ" />
<glyph horiz-adv-x="500" d="M 78 670 L 184 670 L 251 577 L 319 670 L 423 670 L 308 497 L 193 497 L 78 670 Z" unicode="ˇ" />
<glyph horiz-adv-x="500" d="M 311 659 L 410 659 C 406 603 389 563 360 537 C 330 511 294 499 250 499 C 206 499 169 511 140 537 C 110 563 94 603 90 659 L 189 659 C 191 631 196 609 205 593 C 214 577 229 570 250 570 C 270 570 285 577 295 592 C 304 607 309 629 311 659 Z" unicode="˘" />
<glyph horiz-adv-x="500" d="M 305 503 L 196 503 L 196 656 L 305 656 L 305 503 Z" unicode="˙" />
<glyph horiz-adv-x="500" d="M 250 493 C 217 493 189 504 167 527 C 144 549 133 577 133 610 C 133 642 144 669 167 692 C 189 714 217 726 250 726 C 282 726 310 714 333 692 C 356 669 368 642 368 610 C 368 577 356 549 333 527 C 310 504 282 493 250 493 Z M 250 558 C 264 558 276 563 286 573 C 295 583 300 595 300 609 C 300 623 295 635 286 645 C 276 655 264 660 250 660 C 236 660 224 655 214 645 C 204 635 200 623 200 609 C 200 595 204 583 214 573 C 224 563 236 558 250 558 Z" unicode="˚" />
<glyph horiz-adv-x="500" d="M 360 -75 L 392 -126 C 371 -148 348 -164 323 -175 C 297 -186 269 -192 238 -192 C 203 -192 176 -184 156 -170 C 136 -155 126 -136 126 -114 C 126 -89 137 -65 160 -43 C 182 -21 214 -2 255 13 L 313 13 C 289 1 269 -11 253 -25 C 237 -39 229 -52 229 -65 C 229 -77 233 -86 242 -93 C 251 -100 263 -104 278 -104 C 295 -104 311 -101 325 -96 C 339 -90 350 -83 360 -75 Z" unicode="˛" />
<glyph horiz-adv-x="500" d="M 331 648 L 420 648 C 420 598 412 561 397 537 C 382 513 363 501 341 501 C 321 501 305 504 291 511 C 277 517 266 523 258 528 C 249 533 240 538 232 544 C 224 549 216 552 208 552 C 200 552 194 547 188 538 C 182 529 180 518 180 505 L 91 505 C 91 554 100 591 119 615 C 138 639 158 652 180 652 C 197 652 211 648 223 642 C 235 636 246 629 257 623 C 265 617 272 612 280 607 C 287 601 294 599 302 599 C 308 599 315 603 321 612 C 327 621 330 633 331 648 Z" unicode="˜" />
<glyph horiz-adv-x="500" d="M 63 496 L 149 652 L 276 652 L 168 496 L 63 496 Z M 261 496 L 347 652 L 474 652 L 366 496 L 261 496 Z" unicode="˝" />
<glyph horiz-adv-x="0" d="M 0 496 L 0 496 Z M 121 496 L 2 496 L -120 662 L 21 662 L 121 496 Z" unicode="̀" />
<glyph horiz-adv-x="0" d="M 0 496 L 0 496 Z M -120 496 L -21 662 L 120 662 L -1 496 L -120 496 Z" unicode="́" />
<glyph horiz-adv-x="0" d="M 0 497 L 0 497 Z M 173 497 L 67 497 L 0 591 L -68 497 L -172 497 L -57 670 L 58 670 L 173 497 Z" unicode="̂" />
<glyph horiz-adv-x="0" d="M 0 501 L 0 501 Z M 78 648 L 167 648 C 167 598 159 561 144 537 C 129 513 110 501 88 501 C 68 501 52 504 38 511 C 24 517 13 523 5 528 C -3 533 -12 538 -20 544 C -28 549 -37 552 -45 552 C -52 552 -58 547 -64 538 C -70 529 -73 518 -73 505 L -162 505 C -162 554 -152 591 -133 615 C -114 639 -94 652 -73 652 C -55 652 -41 648 -29 642 C -17 636 -6 629 4 623 C 12 617 19 612 27 607 C 34 601 41 599 49 599 C 55 599 62 603 68 612 C 74 621 77 633 78 648 Z" unicode="̃" />
<glyph horiz-adv-x="0" d="M 0 515 L 0 515 Z M 135 515 L -135 515 L -135 603 L 135 603 L 135 515 Z" unicode="̄" />
<glyph horiz-adv-x="0" d="M 0 499 L 0 499 Z M 61 659 L 160 659 C 156 603 139 563 110 537 C 80 511 44 499 0 499 C -44 499 -80 511 -110 537 C -139 563 -156 603 -160 659 L -61 659 C -59 631 -53 609 -44 593 C -35 577 -20 570 0 570 C 20 570 35 577 45 592 C 54 607 59 629 61 659 Z" unicode="̆" />
<glyph horiz-adv-x="0" d="M 0 503 L 0 503 Z M 55 503 L -54 503 L -54 656 L 55 656 L 55 503 Z" unicode="̇" />
<glyph horiz-adv-x="0" d="M 0 497 L 0 497 Z M 141 497 L 42 497 L 42 657 L 141 657 L 141 497 Z M -42 497 L -141 497 L -141 657 L -42 657 L -42 497 Z" unicode="̈" />
<glyph horiz-adv-x="0" d="M 0 493 L 0 493 Z M 0 493 C -32 493 -60 504 -83 527 C -105 549 -117 577 -117 610 C -117 642 -105 669 -83 692 C -60 714 -32 726 0 726 C 32 726 60 714 83 692 C 106 669 118 642 118 610 C 118 577 106 549 83 527 C 60 504 32 493 0 493 Z M 0 558 C 14 558 26 563 36 573 C 45 583 50 595 50 609 C 50 623 45 635 36 645 C 26 655 14 660 0 660 C -14 660 -25 655 -35 645 C -45 635 -50 623 -50 609 C -50 595 -45 583 -35 573 C -25 563 -14 558 0 558 Z" unicode="̊" />
<glyph horiz-adv-x="0" d="M 0 496 L 0 496 Z M -205 496 L -119 652 L 8 652 L -100 496 L -205 496 Z M -7 496 L 79 652 L 206 652 L 98 496 L -7 496 Z" unicode="̋" />
<glyph horiz-adv-x="0" d="M 0 497 L 0 497 Z M -172 670 L -66 670 L 1 577 L 69 670 L 173 670 L 58 497 L -57 497 L -172 670 Z" unicode="̌" />
<glyph horiz-adv-x="0" d="M 0 -70 L 0 -70 Z M 102 -70 C 100 -92 96 -117 88 -143 C 80 -169 71 -195 60 -219 C 49 -243 37 -264 24 -284 C 11 -304 0 -318 -12 -328 L -102 -288 C -94 -278 -85 -266 -77 -250 C -69 -234 -61 -216 -53 -197 C -45 -177 -39 -157 -33 -135 C -27 -113 -24 -91 -22 -70 L 102 -70 Z" unicode="̦" />
<glyph horiz-adv-x="0" d="M 0 0 L 0 0 Z M 7 -189 C -17 -189 -42 -186 -67 -180 C -92 -174 -111 -166 -125 -157 L -111 -106 C -102 -110 -90 -115 -75 -120 C -60 -125 -44 -128 -28 -128 C -16 -128 -6 -125 2 -120 C 11 -114 16 -107 16 -99 C 16 -88 12 -81 4 -77 C -4 -73 -12 -71 -21 -71 C -27 -71 -33 -71 -38 -72 C -43 -73 -48 -75 -54 -77 L -72 -58 L -10 14 L 60 14 L 12 -46 C 44 -40 71 -44 93 -57 C 114 -69 125 -88 125 -112 C 125 -137 113 -156 89 -169 C 65 -182 37 -189 7 -189 Z" unicode="̧" />
<glyph horiz-adv-x="0" d="M 0 0 L 0 0 Z M 101 -75 L 133 -126 C 112 -148 89 -164 64 -175 C 38 -186 10 -192 -21 -192 C -55 -192 -83 -184 -103 -170 C -123 -155 -133 -136 -133 -114 C -133 -89 -121 -65 -99 -43 C -76 -21 -44 -2 -4 13 L 54 13 C 30 1 10 -11 -6 -25 C -22 -39 -30 -52 -30 -65 C -30 -77 -25 -86 -16 -93 C -7 -100 4 -104 19 -104 C 36 -104 52 -101 66 -96 C 80 -90 91 -83 101 -75 Z" unicode="̨" />
<glyph horiz-adv-x="563" d="M 0 0 L 0 0 Z M 620 0 L -1 0 L 293 730 L 327 730 L 620 0 Z M 459 96 L 307 498 L 155 96 L 459 96 Z" unicode="Δ" />
<glyph horiz-adv-x="703" d="" unicode="Ω" />
<glyph horiz-adv-x="585" d="M 61 0 L 61 0 Z M 61 -98 L 61 446 L 179 446 L 179 164 C 179 139 188 120 206 107 C 224 94 246 88 273 88 C 302 88 327 96 348 112 C 369 128 380 151 380 182 L 380 446 L 499 446 L 499 0 L 390 0 L 390 84 C 378 59 359 38 334 22 C 309 5 281 -4 251 -6 C 232 -6 215 -3 201 4 C 187 11 176 21 170 34 L 170 -98 L 61 -98 Z" unicode="μ" />
<glyph horiz-adv-x="606" d="M 201 417 L 201 0 L 83 0 L 83 417 L 15 417 L 15 509 L 591 509 L 591 417 L 520 417 L 520 0 L 401 0 L 401 417 L 201 417 Z" unicode="π" />
<glyph horiz-adv-x="854" d="M 2 0 L 2 0 Z M 847 730 L 642 -6 L 570 -6 L 425 487 L 274 -6 L 203 -6 L 2 730 L 128 730 L 251 255 L 393 730 L 468 730 L 606 254 L 730 730 L 847 730 Z M 431 790 L 431 790 Z M 552 790 L 433 790 L 311 956 L 452 956 L 552 790 Z" unicode="Ẁ" />
<glyph horiz-adv-x="638" d="M 3 0 L 3 0 Z M 413 -3 L 320 247 L 226 -3 L 151 -3 L 3 436 L 122 436 L 204 170 L 290 407 L 360 407 L 445 170 L 530 436 L 636 436 L 486 -3 L 413 -3 Z M 322 496 L 322 496 Z M 443 496 L 324 496 L 202 662 L 343 662 L 443 496 Z" unicode="ẁ" />
<glyph horiz-adv-x="854" d="M 2 0 L 2 0 Z M 847 730 L 642 -6 L 570 -6 L 425 487 L 274 -6 L 203 -6 L 2 730 L 128 730 L 251 255 L 393 730 L 468 730 L 606 254 L 730 730 L 847 730 Z M 431 790 L 431 790 Z M 311 790 L 410 956 L 551 956 L 430 790 L 311 790 Z" unicode="Ẃ" />
<glyph horiz-adv-x="638" d="M 3 0 L 3 0 Z M 413 -3 L 320 247 L 226 -3 L 151 -3 L 3 436 L 122 436 L 204 170 L 290 407 L 360 407 L 445 170 L 530 436 L 636 436 L 486 -3 L 413 -3 Z M 322 496 L 322 496 Z M 202 496 L 301 662 L 442 662 L 321 496 L 202 496 Z" unicode="ẃ" />
<glyph horiz-adv-x="854" d="M 2 0 L 2 0 Z M 847 730 L 642 -6 L 570 -6 L 425 487 L 274 -6 L 203 -6 L 2 730 L 128 730 L 251 255 L 393 730 L 468 730 L 606 254 L 730 730 L 847 730 Z M 431 791 L 431 791 Z M 572 791 L 473 791 L 473 951 L 572 951 L 572 791 Z M 389 791 L 290 791 L 290 951 L 389 951 L 389 791 Z" unicode="Ẅ" />
<glyph horiz-adv-x="638" d="M 3 0 L 3 0 Z M 413 -3 L 320 247 L 226 -3 L 151 -3 L 3 436 L 122 436 L 204 170 L 290 407 L 360 407 L 445 170 L 530 436 L 636 436 L 486 -3 L 413 -3 Z M 322 497 L 322 497 Z M 463 497 L 364 497 L 364 657 L 463 657 L 463 497 Z M 280 497 L 181 497 L 181 657 L 280 657 L 280 497 Z" unicode="ẅ" />
<glyph horiz-adv-x="570" d="M 0 0 L 0 0 Z M 603 730 L 362 317 L 362 0 L 232 0 L 232 322 L -3 730 L 138 730 L 303 442 L 469 730 L 603 730 Z M 301 790 L 301 790 Z M 422 790 L 303 790 L 181 956 L 322 956 L 422 790 Z" unicode="Ỳ" />
<glyph horiz-adv-x="450" d="M 0 0 L 0 0 Z M 454 436 L 222 -94 C 203 -136 179 -164 151 -178 C 122 -192 94 -200 67 -200 C 51 -200 38 -198 26 -195 C 14 -191 5 -188 -1 -186 L 31 -86 C 33 -87 39 -89 47 -91 C 55 -93 62 -95 70 -95 C 84 -95 95 -90 105 -82 C 115 -74 124 -59 134 -39 L 169 43 L -5 436 L 124 436 L 230 174 L 336 436 L 454 436 Z M 227 496 L 227 496 Z M 348 496 L 229 496 L 107 662 L 248 662 L 348 496 Z" unicode="ỳ" />
<glyph horiz-adv-x="460" d="M 422 209 L 39 209 L 39 313 L 422 313 L 422 209 Z" unicode="–" />
<glyph horiz-adv-x="645" d="M 607 209 L 39 209 L 39 313 L 607 313 L 607 209 Z" unicode="—" />
<glyph horiz-adv-x="283" d="M 34 507 L 34 514 C 34 552 44 590 64 629 C 84 668 112 704 148 737 L 267 731 C 257 723 245 712 233 698 C 221 684 209 667 198 648 C 187 629 178 608 170 586 C 162 563 159 539 159 515 L 159 507 L 34 507 Z" unicode="‘" />
<glyph horiz-adv-x="283" d="M 249 737 L 249 730 C 249 692 238 653 218 615 C 198 577 170 541 135 507 L 16 513 C 25 522 36 534 48 548 C 60 562 72 579 83 597 C 94 615 103 636 111 658 C 119 680 123 704 123 729 L 123 737 L 249 737 Z" unicode="’" />
<glyph horiz-adv-x="283" d="M 248 116 L 248 109 C 248 71 237 32 217 -5 C 197 -43 169 -80 134 -114 L 16 -108 C 25 -99 36 -87 48 -73 C 60 -58 72 -41 83 -23 C 94 -5 103 15 111 37 C 119 59 123 83 123 108 L 123 116 L 248 116 Z" unicode="‚" />
<glyph horiz-adv-x="463" d="M 229 507 L 229 514 C 229 550 238 587 257 625 C 275 662 303 699 341 737 L 450 731 C 440 722 429 710 417 696 C 405 682 393 665 383 647 C 372 628 363 607 355 585 C 347 563 344 539 344 515 L 344 507 L 229 507 Z M 35 507 L 35 514 C 35 550 44 587 64 625 C 84 662 111 699 146 737 L 256 731 C 247 723 237 711 225 697 C 213 683 201 666 190 648 C 178 629 169 608 161 586 C 153 563 149 539 149 515 L 149 507 L 35 507 Z" unicode="“" />
<glyph horiz-adv-x="463" d="M 234 737 L 234 730 C 234 692 225 654 207 617 C 189 579 162 543 126 507 L 16 513 C 26 523 38 535 50 550 C 62 564 74 581 84 599 C 94 617 102 637 109 659 C 115 681 119 704 119 729 L 119 737 L 234 737 Z M 428 737 L 428 730 C 428 692 418 654 400 616 C 382 578 355 542 320 507 L 210 513 C 220 523 232 535 244 550 C 256 564 268 581 278 599 C 288 617 297 637 304 659 C 310 681 314 704 314 729 L 314 737 L 428 737 Z" unicode="”" />
<glyph horiz-adv-x="464" d="M 234 120 L 234 113 C 234 75 225 37 207 0 C 189 -37 162 -74 126 -110 L 16 -104 C 26 -94 38 -81 50 -67 C 62 -52 74 -36 84 -18 C 94 0 102 20 109 42 C 115 64 119 87 119 112 L 119 120 L 234 120 Z M 429 120 L 429 113 C 429 75 419 37 401 -1 C 383 -39 356 -75 321 -110 L 211 -104 C 221 -94 233 -81 245 -67 C 257 -52 269 -36 279 -18 C 289 0 297 20 304 42 C 310 64 314 87 314 112 L 314 120 L 429 120 Z" unicode="„" />
<glyph horiz-adv-x="520" d="M 498 357 L 320 357 L 320 -179 L 194 -179 L 194 357 L 23 357 L 23 470 L 194 470 L 194 730 L 320 730 L 320 470 L 498 470 L 498 357 Z" unicode="†" />
<glyph horiz-adv-x="524" d="M 197 -179 L 197 85 L 30 85 L 30 198 L 197 198 L 197 364 L 30 364 L 30 477 L 197 477 L 197 730 L 322 730 L 322 477 L 494 477 L 494 364 L 322 364 L 322 198 L 494 198 L 494 85 L 322 85 L 322 -179 L 197 -179 Z" unicode="‡" />
<glyph horiz-adv-x="382" d="M 191 489 C 221 489 247 478 269 457 C 290 435 301 409 301 379 C 301 348 290 322 269 301 C 247 280 221 270 191 270 C 160 270 134 280 113 301 C 92 322 82 348 82 379 C 82 409 92 435 113 457 C 134 478 160 489 191 489 Z" unicode="•" />
<glyph horiz-adv-x="726" d="M 61 0 L 61 140 L 182 140 L 182 0 L 61 0 Z M 303 0 L 303 140 L 424 140 L 424 0 L 303 0 Z M 544 0 L 544 140 L 666 140 L 666 0 L 544 0 Z" unicode="…" />
<glyph horiz-adv-x="1094" d="M 192 363 C 174 363 155 366 137 374 C 119 382 102 393 87 409 C 72 425 60 444 51 468 C 41 492 37 519 37 551 C 37 577 41 601 49 624 C 57 647 68 667 82 684 C 96 701 112 715 130 725 C 148 735 168 740 189 740 C 211 740 232 735 252 725 C 271 715 288 701 302 685 C 316 668 326 648 334 626 C 342 603 346 579 346 554 C 346 527 341 502 333 479 C 325 455 314 435 300 418 C 286 400 270 387 251 377 C 232 367 212 363 192 363 Z M 122 0 L 536 730 L 614 730 L 201 0 L 122 0 Z M 140 551 C 140 522 144 498 153 479 C 161 460 174 451 191 451 C 210 451 224 460 233 479 C 241 498 246 522 246 551 C 246 578 242 601 234 621 C 226 641 212 651 193 651 C 174 651 160 641 152 621 C 144 601 140 578 140 551 Z M 556 -3 C 537 -3 518 0 500 8 C 482 16 465 27 451 43 C 436 59 424 78 415 102 C 406 126 402 153 402 185 C 402 211 406 236 414 259 C 422 282 433 302 447 319 C 461 336 477 349 496 359 C 515 369 536 374 559 374 C 582 374 603 369 622 359 C 641 349 657 335 671 319 C 684 302 694 282 702 260 C 709 237 713 213 713 188 C 713 161 709 136 701 113 C 693 89 682 69 668 52 C 654 34 638 21 619 11 C 599 1 578 -3 556 -3 Z M 900 -3 C 882 -3 863 0 845 8 C 827 16 810 27 796 43 C 782 59 770 78 761 102 C 751 126 747 153 747 185 C 747 211 751 236 759 259 C 767 282 777 302 791 319 C 805 336 821 349 841 359 C 860 369 881 374 903 374 C 926 374 947 369 966 359 C 985 349 1001 335 1015 319 C 1029 302 1039 282 1047 260 C 1054 237 1058 213 1058 188 C 1058 161 1054 136 1046 113 C 1038 89 1027 69 1013 52 C 999 34 982 21 963 11 C 943 1 922 -3 900 -3 Z M 556 86 C 575 86 589 95 599 113 C 608 131 613 155 613 185 C 613 213 608 237 599 256 C 590 275 576 285 557 285 C 541 285 528 275 519 256 C 509 237 505 213 505 185 C 505 154 509 130 519 112 C 528 94 540 86 556 86 Z M 902 86 C 920 86 934 95 944 113 C 953 131 958 155 958 185 C 958 213 953 237 944 256 C 935 275 921 285 903 285 C 886 285 873 275 864 256 C 854 237 850 213 850 185 C 850 154 854 130 864 112 C 873 94 886 86 902 86 Z" unicode="‰" />
<glyph horiz-adv-x="249" d="M 221 60 L 26 230 L 26 311 L 221 479 L 221 357 L 130 268 L 221 185 L 221 60 Z" unicode="‹" />
<glyph horiz-adv-x="251" d="M 28 479 L 224 307 L 224 228 L 28 60 L 28 181 L 119 270 L 28 353 L 28 479 Z" unicode="›" />
<glyph horiz-adv-x="145" d="M 307 730 L -46 0 L -145 0 L 208 730 L 307 730 Z" unicode="⁄" />
<glyph horiz-adv-x="330" d="M 13 452 L 13 519 L 195 736 L 260 736 L 260 523 L 317 523 L 317 452 L 260 452 L 260 373 L 168 373 L 168 452 L 13 452 Z M 93 514 L 170 514 L 170 608 L 93 514 Z" unicode="⁴" />
<glyph horiz-adv-x="536" d="M 530 114 C 511 76 482 46 444 23 C 406 0 364 -12 319 -12 C 259 -12 208 11 166 57 C 124 103 97 166 83 246 L 30 246 L 30 333 L 74 333 C 74 337 74 342 74 346 C 74 350 74 355 74 360 C 74 363 74 366 74 370 C 74 374 74 377 74 381 L 30 381 L 30 468 L 81 468 C 87 508 96 544 109 578 C 121 612 137 641 157 665 C 177 689 200 707 227 721 C 254 735 284 742 318 742 C 376 742 421 730 453 706 C 485 682 509 654 524 624 L 432 572 C 420 590 406 607 389 621 C 371 635 348 642 320 642 C 286 642 259 627 237 599 C 215 571 201 527 193 468 L 473 468 L 473 381 L 187 381 C 187 378 187 375 187 372 C 187 368 187 365 187 363 C 187 358 187 353 187 348 C 187 342 187 337 188 333 L 473 333 L 473 246 L 196 246 C 206 192 222 152 245 126 C 268 100 294 87 323 87 C 351 87 375 95 395 113 C 415 130 430 150 441 173 L 530 114 Z" unicode="€" />
<glyph horiz-adv-x="919" d="M 871 309 L 764 309 L 764 555 L 642 374 L 617 374 L 497 553 L 497 309 L 393 309 L 393 730 L 495 730 L 630 528 L 764 730 L 871 730 L 871 309 Z M 364 613 L 250 613 L 250 309 L 134 309 L 134 613 L 16 613 L 16 730 L 364 730 L 364 613 Z" unicode="™" />
<glyph horiz-adv-x="773" d="M 43 0 L 43 110 L 241 110 L 241 168 C 179 188 129 224 91 275 C 53 326 34 384 34 449 C 34 490 42 529 58 565 C 74 601 96 633 126 660 C 156 687 192 708 236 724 C 279 740 328 748 382 748 C 438 748 488 740 532 724 C 576 708 614 686 644 660 C 674 633 698 601 714 565 C 730 528 739 489 739 449 C 739 383 722 326 688 276 C 654 226 601 190 531 168 L 531 110 L 729 110 L 729 0 L 433 0 L 433 229 C 488 245 531 273 561 312 C 591 351 606 394 606 442 C 606 471 600 498 589 524 C 577 549 562 571 542 589 C 522 607 499 621 472 631 C 444 641 415 646 384 646 C 353 646 324 641 298 631 C 271 621 248 606 229 588 C 209 570 194 548 183 523 C 172 497 167 470 167 440 C 167 394 181 352 210 314 C 239 276 282 247 340 229 L 340 0 L 43 0 Z" unicode="Ω" />
<glyph horiz-adv-x="539" d="M 496 285 C 496 231 489 185 477 147 C 464 109 447 79 425 56 C 403 33 378 16 350 6 C 321 -4 291 -10 260 -10 C 231 -10 203 -5 175 5 C 147 15 122 29 100 48 C 78 67 61 91 48 119 C 34 147 28 180 28 216 C 28 249 33 280 45 309 C 56 337 71 362 91 383 C 111 403 134 420 161 432 C 187 444 215 450 245 450 C 281 450 312 442 338 426 C 364 410 383 391 397 367 C 390 429 377 482 359 528 C 341 574 319 611 294 641 C 268 671 241 693 211 708 C 181 723 151 731 122 733 L 174 802 C 205 802 239 792 277 773 C 314 754 349 724 381 683 C 413 642 441 589 463 523 C 485 457 496 377 496 285 Z M 260 75 C 294 75 322 88 342 114 C 362 140 372 177 372 227 C 372 268 362 301 343 325 C 324 349 297 362 261 362 C 228 362 202 349 182 324 C 162 299 152 264 152 218 C 152 170 161 134 181 110 C 201 86 227 75 260 75 Z" unicode="∂" />
<glyph horiz-adv-x="618" d="M 620 0 L -1 0 L 293 730 L 327 730 L 620 0 Z M 459 96 L 307 498 L 155 96 L 459 96 Z" unicode="∆" />
<glyph horiz-adv-x="686" d="M 241 623 L 241 0 L 117 0 L 117 623 L 15 623 L 15 730 L 671 730 L 671 623 L 575 623 L 575 0 L 451 0 L 451 623 L 241 623 Z" unicode="∏" />
<glyph horiz-adv-x="597" d="M 207 623 L 430 307 L 173 -72 L 553 -72 L 553 -179 L -25 -179 L 309 306 L 5 730 L 532 730 L 532 623 L 207 623 Z" unicode="∑" />
<glyph horiz-adv-x="518" d="M 480 284 L 39 284 L 39 379 L 480 379 L 480 284 Z" unicode="−" />
<glyph horiz-adv-x="510" d="M 508 730 L 198 0 L 186 0 L 11 333 L 95 398 L 207 170 L 433 730 L 508 730 Z" unicode="√" />
<glyph horiz-adv-x="350" d="M 101 -9 L 157 620 C 159 640 164 658 172 674 C 180 689 191 702 203 712 C 215 722 229 730 244 735 C 259 740 274 743 288 743 C 302 743 317 742 332 741 C 347 740 356 739 359 739 L 350 636 C 348 636 344 637 338 638 C 332 638 326 639 320 639 C 301 639 286 632 274 620 C 262 607 256 587 254 561 L 201 -52 C 199 -68 195 -83 189 -99 C 182 -114 173 -128 162 -140 C 150 -152 137 -161 121 -169 C 105 -176 88 -179 70 -179 C 48 -179 28 -176 10 -172 C -7 -168 -22 -163 -32 -159 L -20 -74 C -15 -74 -8 -76 1 -79 C 10 -81 19 -83 28 -83 C 47 -83 63 -76 77 -64 C 90 -51 98 -33 101 -9 Z" unicode="∫" />
<glyph horiz-adv-x="487" d="M 347 509 L 451 509 C 449 461 440 420 425 388 C 410 355 386 339 352 339 C 330 339 310 342 292 350 C 274 357 260 365 249 374 C 237 382 224 390 211 397 C 197 403 184 407 172 407 C 161 407 150 400 139 388 C 128 375 123 360 123 342 L 31 342 C 31 392 40 433 59 464 C 78 494 104 510 138 510 C 158 510 177 505 193 497 C 209 489 223 481 234 473 C 245 466 257 460 269 454 C 281 448 293 446 305 446 C 321 446 332 451 338 463 C 344 474 347 489 347 509 Z M 350 323 L 451 323 C 449 275 439 234 422 202 C 405 169 379 153 343 153 C 319 153 299 156 283 164 C 266 171 252 179 242 188 C 231 196 219 204 207 210 C 195 216 183 220 171 220 C 160 220 150 213 140 201 C 130 188 126 173 126 156 L 31 156 C 31 207 40 248 60 279 C 80 309 108 325 144 325 C 166 325 186 320 204 312 C 221 304 235 295 246 287 C 256 279 266 273 278 268 C 290 262 301 260 311 260 C 325 260 335 265 341 277 C 347 288 350 303 350 323 Z" unicode="≈" />
<glyph horiz-adv-x="500" d="M 457 163 L 230 163 L 181 56 L 106 88 L 140 163 L 65 163 L 65 266 L 188 266 L 241 382 L 65 382 L 65 484 L 287 484 L 341 601 L 417 569 L 378 484 L 457 484 L 457 382 L 331 382 L 278 266 L 457 266 L 457 163 Z" unicode="≠" />
<glyph horiz-adv-x="500" d="M 180 327 L 433 195 L 433 9 L 61 9 L 61 96 L 413 96 L 62 287 L 62 361 L 433 566 L 433 456 L 180 327 Z" unicode="≤" />
<glyph horiz-adv-x="500" d="M 433 9 L 61 9 L 61 195 L 314 327 L 61 456 L 61 566 L 432 361 L 432 287 L 81 96 L 433 96 L 433 9 Z" unicode="≥" />
<glyph horiz-adv-x="545" d="M 516 326 L 278 -26 L 267 -26 L 28 326 L 28 337 L 267 688 L 278 688 L 516 337 L 516 326 Z M 405 327 L 405 336 L 277 530 L 269 530 L 139 336 L 139 327 L 269 132 L 277 132 L 405 327 Z" unicode="◊" />
<glyph horiz-adv-x="730" d="M 448 664 L 282 664 L 282 730 L 448 730 L 448 664 Z M 659 282 L 591 282 L 591 448 L 659 448 L 659 282 Z M 139 282 L 71 282 L 71 448 L 139 448 L 139 282 Z M 442 288 L 288 288 L 288 442 L 442 442 L 442 288 Z M 448 0 L 282 0 L 282 67 L 448 67 L 448 0 Z" unicode="" />
<glyph horiz-adv-x="521" d="M 297 342 L 205 342 L 205 0 L 86 0 L 86 342 L 13 342 L 13 436 L 86 436 L 86 545 C 86 580 91 611 102 637 C 112 663 126 685 144 703 C 161 721 181 734 203 743 C 225 751 248 756 271 756 C 287 756 303 754 318 751 C 333 748 345 745 353 741 L 343 645 C 338 647 331 648 322 650 C 313 652 303 653 293 653 C 270 653 249 643 231 624 C 213 604 204 578 204 546 L 204 436 L 297 436 L 297 342 Z M 472 518 L 349 518 L 349 633 L 472 633 L 472 518 Z M 470 0 L 351 0 L 351 436 L 470 436 L 470 0 Z" unicode="ﬁ" />
<glyph horiz-adv-x="515" d="M 205 342 L 205 0 L 86 0 L 86 342 L 13 342 L 13 436 L 86 436 L 86 543 C 86 578 91 609 102 636 C 112 662 126 685 144 703 C 161 721 181 734 203 743 C 225 752 248 757 271 757 C 285 757 299 755 313 753 C 327 751 338 748 347 746 L 347 750 L 466 750 L 466 0 L 347 0 L 347 670 L 345 646 C 340 648 333 650 323 652 C 313 654 303 655 293 655 C 270 655 249 644 231 624 C 213 603 204 576 204 544 L 204 436 L 297 436 L 297 342 L 205 342 Z" unicode="ﬂ" />
</font>
</defs>
</svg>
