<?xml version="1.0" encoding="utf-8" ?><svg version="1.1" xmlns = 'http://www.w3.org/2000/svg'><defs><font id='web' horiz-adv-x="1000">
<font-face font-family="web" descent="-200" cap-height="730" units-per-em="1000" bbox="-221,-345,1147,1024" x-height="498" ascent="800" />
<missing-glyph horiz-adv-x="500" d="" /><glyph horiz-adv-x="232" d="" unicode=" " />
<glyph horiz-adv-x="290" d="M 228 431 L 180 235 L 112 235 L 66 431 L 66 730 L 228 730 L 228 431 Z M 220 0 L 74 0 L 74 148 L 220 148 L 220 0 Z" unicode="!" />
<glyph horiz-adv-x="438" d="M 387 615 L 379 459 L 265 459 L 259 614 L 259 730 L 387 730 L 387 615 Z M 178 614 L 172 459 L 57 459 L 51 614 L 51 730 L 178 730 L 178 614 Z" unicode="&#x22;" />
<glyph horiz-adv-x="619" d="M 353 0 L 370 192 L 225 192 L 208 0 L 122 0 L 139 192 L 33 192 L 33 309 L 149 309 L 159 418 L 55 418 L 55 535 L 169 535 L 186 730 L 272 729 L 255 535 L 400 535 L 417 730 L 502 729 L 485 535 L 587 535 L 587 418 L 475 418 L 465 309 L 565 309 L 565 192 L 455 192 L 438 0 L 353 0 Z M 235 309 L 380 309 L 390 418 L 245 418 L 235 309 Z" unicode="#" />
<glyph horiz-adv-x="537" d="M 507 196 C 507 168 501 143 491 121 C 481 99 467 79 449 63 C 431 46 410 32 386 22 C 362 12 336 5 308 2 L 308 -124 L 230 -124 L 230 0 C 185 3 145 12 109 27 C 73 41 43 60 21 83 L 79 186 C 89 175 102 165 117 156 C 132 146 148 138 165 132 C 182 125 199 120 217 116 C 234 112 250 111 266 111 C 296 111 322 118 343 132 C 363 146 374 167 374 194 C 374 206 372 217 368 227 C 364 237 356 246 346 256 C 335 265 320 275 300 286 C 280 296 254 309 223 323 C 161 351 114 381 83 415 C 51 449 36 492 36 546 C 36 595 54 636 91 670 C 127 703 174 723 230 729 L 230 791 L 308 791 L 308 729 C 345 725 378 716 408 703 C 438 690 463 674 484 654 L 414 561 C 395 579 372 593 346 603 C 320 613 294 619 270 619 C 242 619 219 612 199 599 C 179 585 170 567 170 544 C 170 520 179 501 198 487 C 216 472 255 451 313 424 C 344 409 372 394 396 380 C 420 365 441 349 457 332 C 473 315 486 296 494 274 C 502 252 507 226 507 196 Z" unicode="$" />
<glyph horiz-adv-x="817" d="M 203 353 C 182 353 161 357 141 366 C 121 374 103 387 87 403 C 71 419 59 440 49 464 C 39 488 34 515 34 546 C 34 572 38 597 47 621 C 55 644 67 664 82 682 C 97 699 115 713 135 723 C 155 733 176 739 199 739 C 223 739 246 733 267 723 C 287 713 305 699 320 682 C 335 664 347 644 356 621 C 364 598 369 574 369 549 C 369 521 364 496 356 472 C 347 448 335 428 320 410 C 305 392 287 378 267 368 C 247 358 225 353 203 353 Z M 222 0 L 131 0 L 580 730 L 671 730 L 222 0 Z M 201 451 C 221 451 235 459 244 477 C 252 495 257 518 257 546 C 257 573 252 595 244 613 C 236 631 222 640 203 640 C 183 640 169 631 160 613 C 151 595 147 573 147 546 C 147 517 151 494 160 477 C 169 459 183 451 201 451 Z M 616 -3 C 594 -3 574 1 554 10 C 534 18 516 31 500 47 C 484 63 472 83 462 107 C 452 131 448 158 448 189 C 448 215 452 240 461 264 C 469 288 481 308 496 326 C 510 343 528 357 549 367 C 569 377 592 383 616 383 C 640 383 663 377 684 367 C 705 357 723 343 738 326 C 752 308 764 288 772 265 C 780 241 785 217 785 192 C 785 165 780 140 772 116 C 763 92 751 71 736 54 C 721 36 703 22 683 12 C 662 2 640 -3 616 -3 Z M 615 96 C 634 96 648 104 658 121 C 668 137 673 160 673 189 C 673 217 668 240 659 258 C 649 275 635 284 616 284 C 598 284 585 275 576 258 C 566 240 562 217 562 189 C 562 159 566 136 576 120 C 585 104 598 96 615 96 Z" unicode="%" />
<glyph horiz-adv-x="721" d="M 625 -5 L 541 72 C 507 46 470 26 429 12 C 387 -1 341 -8 289 -8 C 207 -8 142 9 94 44 C 46 78 23 127 23 189 C 23 215 27 239 36 260 C 45 281 57 300 72 316 C 87 332 104 346 124 360 C 144 373 164 386 185 398 C 176 406 166 416 156 428 C 146 439 136 452 128 466 C 120 480 113 496 107 513 C 101 530 99 548 99 568 C 99 590 104 612 115 633 C 125 653 140 671 159 687 C 177 702 199 714 225 723 C 251 732 278 737 308 737 C 338 737 365 732 390 724 C 415 715 436 703 454 689 C 472 674 485 657 495 637 C 505 617 510 597 510 576 C 510 536 498 502 475 474 C 451 445 419 417 379 391 L 537 251 C 547 263 556 277 566 292 C 575 307 584 322 593 338 L 701 269 C 690 250 679 232 668 215 C 657 197 646 181 634 166 L 710 99 L 625 -5 Z M 237 562 C 237 545 242 528 254 511 C 265 494 279 478 297 464 C 324 482 344 499 357 514 C 370 529 377 545 377 562 C 377 579 371 595 359 609 C 347 623 330 630 307 630 C 285 630 267 622 255 608 C 243 594 237 578 237 562 Z M 177 198 C 177 169 189 147 213 131 C 237 115 266 107 300 107 C 326 107 352 111 377 120 C 401 128 425 141 447 158 L 268 321 C 237 301 214 282 199 264 C 184 246 177 224 177 198 Z" unicode="&#x26;" />
<glyph horiz-adv-x="230" d="M 180 610 L 174 451 L 56 451 L 50 610 L 50 730 L 180 730 L 180 610 Z" unicode="'" />
<glyph horiz-adv-x="337" d="M 321 -74 L 321 -183 C 283 -167 246 -145 210 -117 C 174 -88 143 -53 116 -13 C 88 26 66 72 50 124 C 34 176 26 232 26 293 C 26 353 34 409 50 460 C 66 510 88 555 115 593 C 141 631 173 663 209 690 C 245 716 282 736 321 749 L 321 647 C 282 624 249 585 221 531 C 193 477 178 397 178 293 C 178 201 190 125 216 65 C 241 5 276 -41 321 -74 Z" unicode="(" />
<glyph horiz-adv-x="337" d="M 18 647 L 18 749 C 55 737 91 718 127 692 C 163 666 194 633 222 595 C 249 556 271 511 288 459 C 304 407 313 350 313 288 C 313 226 304 170 288 119 C 271 67 249 22 221 -17 C 193 -57 162 -91 127 -119 C 91 -147 55 -168 18 -183 L 18 -73 C 60 -41 95 4 123 62 C 150 120 164 196 164 288 C 164 341 160 388 152 428 C 144 468 133 503 120 532 C 106 560 91 584 73 603 C 55 621 37 636 18 647 Z" unicode=")" />
<glyph horiz-adv-x="408" d="M 383 571 L 263 537 L 353 456 L 276 390 L 207 496 L 138 391 L 61 454 L 151 539 L 26 567 L 69 663 L 173 603 L 154 730 L 260 730 L 240 603 L 347 661 L 383 571 Z" unicode="*" />
<glyph horiz-adv-x="492" d="M 467 276 L 303 276 L 303 114 L 190 114 L 190 276 L 26 276 L 26 386 L 190 386 L 190 548 L 303 548 L 303 386 L 467 386 L 467 276 Z" unicode="+" />
<glyph horiz-adv-x="261" d="M 228 130 C 227 102 222 74 214 44 C 206 14 196 -14 185 -40 C 173 -66 161 -88 148 -108 C 135 -128 123 -141 112 -149 L 8 -103 C 15 -94 23 -81 32 -64 C 40 -47 48 -28 56 -7 C 63 13 69 36 75 60 C 80 84 84 107 86 130 L 228 130 Z" unicode="," />
<glyph horiz-adv-x="358" d="M 318 207 L 40 207 L 40 332 L 318 332 L 318 207 Z" unicode="-" />
<glyph horiz-adv-x="263" d="M 202 0 L 61 0 L 61 154 L 202 154 L 202 0 Z" unicode="." />
<glyph horiz-adv-x="340" d="M 344 730 L 123 0 L -4 0 L 220 730 L 344 730 Z" unicode="/" />
<glyph horiz-adv-x="552" d="M 273 -10 C 237 -10 205 -3 175 11 C 145 25 120 47 99 77 C 78 107 62 145 50 192 C 38 239 32 295 32 361 C 32 415 37 466 47 513 C 57 559 72 599 92 633 C 112 666 138 692 169 711 C 200 730 236 740 278 740 C 320 740 357 731 388 713 C 419 695 444 670 464 638 C 483 606 497 567 507 521 C 516 475 521 425 521 370 C 521 251 500 158 459 91 C 418 23 356 -10 273 -10 Z M 275 108 C 311 108 337 128 353 168 C 369 208 378 272 378 359 C 378 447 370 513 355 556 C 339 599 313 621 276 621 C 241 621 215 600 199 560 C 182 519 174 453 174 362 C 174 271 182 206 199 167 C 216 127 241 108 275 108 Z" unicode="0" />
<glyph horiz-adv-x="372" d="M 305 0 L 161 0 L 161 537 C 154 529 145 521 134 513 C 122 505 111 499 99 493 C 87 487 74 483 62 479 C 49 475 38 473 28 473 L 28 610 C 58 610 89 622 119 646 C 149 670 177 698 201 732 L 305 732 L 305 0 Z" unicode="1" />
<glyph horiz-adv-x="523" d="M 499 0 L 19 0 L 19 42 L 287 374 C 307 400 323 426 334 452 C 345 478 351 503 351 529 C 351 555 342 577 324 593 C 306 609 282 618 252 618 C 218 618 193 607 176 586 C 159 564 151 537 151 503 L 23 507 C 24 581 46 638 89 679 C 132 719 190 740 262 740 C 330 740 385 723 428 689 C 470 655 492 608 492 548 C 492 493 482 448 463 413 C 443 377 422 346 400 318 L 235 121 L 499 121 L 499 0 Z" unicode="2" />
<glyph horiz-adv-x="512" d="M 241 -10 C 182 -10 132 -1 92 14 C 52 30 21 49 0 71 L 65 171 C 81 157 103 143 130 129 C 156 115 188 109 225 109 C 269 109 302 120 324 143 C 346 166 358 194 358 228 C 358 263 345 289 321 305 C 296 321 266 330 230 330 L 122 330 L 122 450 L 230 450 C 260 450 285 458 305 474 C 325 490 335 511 335 538 C 335 560 326 580 310 596 C 294 612 271 621 241 621 C 205 621 176 614 153 601 C 130 587 111 572 95 556 L 25 647 C 33 657 43 667 57 678 C 71 689 87 699 106 708 C 125 717 147 725 172 731 C 197 737 225 740 256 740 C 319 740 371 724 411 693 C 451 661 472 618 472 562 C 472 518 459 482 434 453 C 409 423 381 404 350 396 C 389 386 423 366 452 335 C 480 304 495 265 495 217 C 495 191 490 165 481 139 C 472 112 458 88 438 66 C 418 44 391 25 359 11 C 327 -2 287 -10 241 -10 Z" unicode="3" />
<glyph horiz-adv-x="537" d="M 531 178 L 435 178 L 435 0 L 306 0 L 306 178 L 9 178 L 9 271 L 339 737 L 435 737 L 435 295 L 531 295 L 531 178 Z M 308 291 L 308 521 L 147 291 L 308 291 Z" unicode="4" />
<glyph horiz-adv-x="523" d="M 254 -10 C 196 -10 146 0 104 19 C 62 38 31 58 11 79 L 81 180 C 97 163 118 147 146 133 C 173 118 204 111 238 111 C 276 111 305 123 327 148 C 348 173 359 207 359 249 C 359 287 349 317 329 339 C 309 361 283 372 251 372 C 223 372 200 366 181 356 C 162 346 148 331 138 313 L 46 335 L 77 730 L 447 730 L 447 606 L 180 606 L 168 441 C 178 453 193 463 214 473 C 235 483 260 488 290 488 C 354 488 406 467 444 425 C 482 383 502 327 502 256 C 502 215 495 178 483 145 C 471 112 454 84 432 61 C 410 38 384 20 354 8 C 323 -3 290 -10 254 -10 Z" unicode="5" />
<glyph horiz-adv-x="536" d="M 280 -10 C 245 -10 212 -4 182 8 C 151 20 124 37 102 59 C 79 81 61 109 48 142 C 34 174 28 211 28 253 C 28 294 33 333 44 371 C 55 409 70 445 90 480 C 109 514 132 548 159 581 C 185 614 214 647 245 680 L 312 755 L 406 680 L 357 628 C 315 580 278 536 246 498 C 214 460 192 429 182 405 C 192 419 208 433 231 446 C 253 458 279 465 308 465 C 368 465 418 444 458 402 C 497 360 517 303 517 232 C 517 197 511 165 499 135 C 487 105 470 80 449 59 C 428 37 403 20 374 8 C 344 -3 313 -10 280 -10 Z M 278 105 C 308 105 333 116 351 138 C 369 160 379 191 379 229 C 379 269 370 299 352 321 C 334 343 309 354 277 354 C 248 354 223 344 202 324 C 181 304 171 273 171 233 C 171 191 180 159 200 137 C 219 115 245 105 278 105 Z" unicode="6" />
<glyph horiz-adv-x="465" d="M 462 730 L 474 674 L 166 -10 L 43 44 L 304 606 L 13 606 L 13 730 L 462 730 Z" unicode="7" />
<glyph horiz-adv-x="544" d="M 386 388 C 402 383 418 375 434 365 C 450 355 464 342 476 327 C 488 311 497 293 505 272 C 512 251 516 227 516 201 C 516 139 494 89 450 49 C 406 9 347 -10 271 -10 C 195 -10 136 9 93 47 C 50 85 29 136 29 200 C 29 227 33 251 41 273 C 49 295 60 313 73 329 C 86 345 100 357 116 367 C 131 377 146 384 160 388 C 147 393 134 400 121 410 C 107 419 96 430 86 444 C 76 457 67 472 61 490 C 54 508 51 528 51 551 C 51 580 56 606 67 630 C 78 653 93 673 113 689 C 133 705 156 718 183 727 C 210 735 239 740 271 740 C 340 740 394 722 434 688 C 473 654 493 611 494 559 C 494 515 482 478 460 449 C 437 420 412 400 386 388 Z M 271 430 C 299 430 322 438 339 455 C 355 471 364 495 364 526 C 364 559 355 584 339 600 C 322 616 299 625 271 625 C 243 625 221 616 204 599 C 186 582 178 558 178 526 C 178 493 187 469 205 453 C 223 437 245 430 271 430 Z M 271 102 C 304 102 331 111 351 130 C 371 149 381 177 381 213 C 381 247 370 274 350 292 C 330 310 303 319 271 319 C 239 319 212 310 192 292 C 172 274 162 248 162 212 C 162 176 172 149 192 130 C 212 111 239 102 271 102 Z" unicode="8" />
<glyph horiz-adv-x="535" d="M 233 -16 L 141 61 L 190 111 C 206 129 223 149 241 170 C 259 191 275 211 291 231 C 306 251 320 270 332 288 C 344 306 354 322 360 336 C 349 320 330 305 304 292 C 278 278 251 272 225 272 C 165 272 115 292 77 334 C 38 376 19 432 19 504 C 19 538 25 569 37 599 C 49 628 66 653 88 675 C 109 696 134 713 164 725 C 193 737 225 743 259 743 C 293 743 325 737 355 725 C 385 713 412 697 434 675 C 456 653 473 625 486 592 C 499 559 506 522 506 480 C 506 436 500 394 488 354 C 476 314 461 277 442 242 C 422 206 400 173 374 141 C 348 109 322 80 295 52 L 233 -16 Z M 260 382 C 288 382 313 392 334 412 C 355 432 366 462 366 502 C 366 544 355 575 335 596 C 315 616 290 627 261 627 C 229 627 204 616 186 594 C 168 572 159 542 159 506 C 159 466 167 435 185 414 C 202 392 227 382 260 382 Z" unicode="9" />
<glyph horiz-adv-x="259" d="M 200 349 L 60 349 L 60 498 L 200 498 L 200 349 Z M 200 0 L 60 0 L 60 149 L 200 149 L 200 0 Z" unicode=":" />
<glyph horiz-adv-x="260" d="M 208 349 L 69 349 L 69 498 L 208 498 L 208 349 Z M 210 118 C 208 92 204 65 196 37 C 188 9 179 -17 169 -41 C 158 -65 146 -87 134 -106 C 122 -124 110 -137 100 -145 L -4 -99 C 4 -89 12 -77 21 -61 C 30 -45 39 -27 47 -7 C 55 12 61 32 67 54 C 72 76 75 97 75 118 L 210 118 Z" unicode=";" />
<glyph horiz-adv-x="423" d="M 370 91 L 41 277 L 41 376 L 370 561 L 370 434 L 180 329 L 370 221 L 370 91 Z" unicode="&#x3C;" />
<glyph horiz-adv-x="492" d="M 440 378 L 53 378 L 53 497 L 440 497 L 440 378 Z M 440 155 L 53 155 L 53 274 L 440 274 L 440 155 Z" unicode="=" />
<glyph horiz-adv-x="423" d="M 379 277 L 50 91 L 50 221 L 239 329 L 50 434 L 50 561 L 379 376 L 379 277 Z" unicode="&#x3E;" />
<glyph horiz-adv-x="465" d="M 148 227 C 148 264 154 296 166 323 C 178 349 198 376 224 402 C 244 422 262 443 277 463 C 292 483 300 508 300 536 C 300 561 290 581 272 595 C 254 609 232 617 206 617 C 181 617 159 610 140 598 C 121 586 106 571 94 554 L 7 640 C 31 672 62 697 102 715 C 142 733 185 742 231 742 C 298 742 351 724 389 688 C 427 652 447 608 447 554 C 447 528 443 505 437 485 C 430 465 421 446 411 430 C 401 414 389 398 376 384 C 362 370 349 356 337 342 C 318 326 305 307 298 287 C 290 266 286 246 286 227 L 148 227 Z M 143 0 L 143 146 L 297 146 L 297 0 L 143 0 Z" unicode="?" />
<glyph horiz-adv-x="845" d="M 414 -42 C 358 -42 306 -32 260 -12 C 214 8 174 35 142 69 C 109 103 83 144 65 191 C 47 237 38 287 38 340 C 38 393 47 443 65 490 C 83 536 109 577 143 611 C 176 645 216 671 264 691 C 311 711 364 721 422 721 C 480 721 533 712 581 696 C 628 680 668 657 702 627 C 735 597 761 560 779 517 C 797 474 806 426 806 374 C 806 329 800 291 790 260 C 779 228 766 203 750 183 C 734 163 716 149 696 140 C 676 131 657 127 639 127 C 606 127 580 133 561 145 C 541 157 528 173 520 194 C 509 178 491 163 465 149 C 439 135 407 128 369 128 C 319 128 281 140 256 166 C 230 191 218 223 218 263 C 218 307 237 341 277 365 C 316 389 366 402 428 402 L 505 402 L 505 413 C 505 434 498 450 485 461 C 471 471 449 477 419 477 C 394 477 371 474 351 468 C 330 462 313 456 300 450 L 264 532 C 281 540 304 548 333 555 C 361 562 390 566 420 566 C 475 566 520 553 554 528 C 588 503 605 460 605 398 L 605 255 C 605 244 608 234 615 225 C 621 215 633 211 650 211 C 666 211 682 221 698 242 C 714 262 723 304 723 368 C 723 408 716 445 702 479 C 688 513 669 542 643 566 C 617 590 586 609 548 623 C 510 637 468 644 421 644 C 375 644 333 636 296 620 C 259 604 228 583 202 557 C 176 530 157 498 143 461 C 129 423 122 383 122 341 C 122 299 129 259 143 221 C 157 183 177 151 203 123 C 229 95 260 73 296 57 C 332 41 373 33 417 33 C 439 33 462 35 484 40 C 506 44 528 52 551 63 L 581 -6 C 554 -18 527 -27 499 -33 C 471 -39 442 -42 414 -42 Z M 405 212 C 427 212 447 216 466 225 C 484 234 497 243 505 252 L 505 331 L 429 331 C 397 331 374 326 358 316 C 342 306 335 291 335 273 C 335 252 340 237 352 227 C 363 217 381 212 405 212 Z" unicode="@" />
<glyph horiz-adv-x="619" d="M 622 0 L 468 0 L 419 140 L 190 140 L 143 0 L -3 0 L 264 733 L 361 733 L 622 0 Z M 390 252 L 304 498 L 220 252 L 390 252 Z" unicode="A" />
<glyph horiz-adv-x="588" d="M 73 0 L 73 730 L 324 730 C 384 730 432 714 470 683 C 508 652 527 609 527 555 C 527 506 514 467 488 439 C 462 410 430 392 394 386 C 414 384 434 379 454 371 C 474 363 491 351 507 337 C 523 322 536 304 546 282 C 556 260 561 235 561 206 C 561 172 554 143 542 117 C 529 91 512 70 491 53 C 469 35 444 22 415 13 C 385 4 354 0 322 0 L 73 0 Z M 214 427 L 291 427 C 324 427 347 437 361 458 C 375 478 382 501 382 525 C 382 551 374 572 358 588 C 342 604 319 612 289 612 L 214 612 L 214 427 Z M 216 117 L 311 117 C 347 117 372 126 387 146 C 402 166 410 190 410 218 C 410 248 400 271 382 288 C 364 305 338 314 304 314 L 216 314 L 216 117 Z" unicode="B" />
<glyph horiz-adv-x="650" d="M 361 -10 C 315 -10 272 -1 232 15 C 192 31 157 56 129 88 C 100 120 77 159 61 206 C 45 252 37 305 37 365 C 37 421 45 472 61 518 C 77 564 99 603 127 636 C 155 669 190 695 230 713 C 270 731 315 740 363 740 C 429 740 483 728 525 705 C 567 681 601 648 627 606 L 519 528 C 504 550 484 570 460 586 C 435 602 404 610 367 610 C 309 610 264 589 234 547 C 203 505 188 445 188 366 C 188 320 193 282 204 250 C 214 218 228 192 246 172 C 263 152 283 138 306 130 C 328 121 352 117 376 117 C 414 117 446 125 472 142 C 498 159 519 181 536 209 L 638 141 C 612 95 576 59 530 31 C 483 3 427 -10 361 -10 Z" unicode="C" />
<glyph horiz-adv-x="690" d="M 73 0 L 73 730 L 303 730 C 359 730 409 721 453 704 C 497 686 533 662 563 630 C 593 598 615 560 630 516 C 645 472 653 423 653 369 C 653 317 645 269 629 224 C 613 178 590 139 560 106 C 530 73 492 47 446 28 C 400 9 348 0 288 0 L 73 0 Z M 222 121 L 291 121 C 327 121 358 127 384 139 C 410 151 432 169 449 191 C 465 213 478 239 486 269 C 494 299 498 331 498 367 C 498 444 481 503 447 545 C 413 587 364 608 302 608 L 222 608 L 222 121 Z" unicode="D" />
<glyph horiz-adv-x="541" d="M 506 0 L 73 0 L 73 730 L 487 730 L 487 603 L 220 603 L 220 424 L 470 424 L 470 300 L 220 300 L 220 127 L 506 127 L 506 0 Z" unicode="E" />
<glyph horiz-adv-x="485" d="M 458 603 L 222 603 L 222 424 L 444 424 L 444 298 L 222 298 L 222 0 L 73 0 L 73 730 L 458 730 L 458 603 Z" unicode="F" />
<glyph horiz-adv-x="695" d="M 372 385 L 658 385 L 658 139 C 633 96 596 60 547 32 C 497 4 438 -10 369 -10 C 321 -10 277 -1 236 16 C 195 33 160 58 131 90 C 101 122 78 161 62 208 C 45 254 37 307 37 365 C 37 422 45 474 62 521 C 79 567 102 607 132 639 C 162 671 197 696 238 714 C 278 731 322 740 369 740 C 438 740 492 727 532 702 C 571 676 600 648 618 618 L 516 537 C 502 555 484 571 462 587 C 439 602 408 610 368 610 C 314 610 271 589 237 548 C 203 507 187 446 187 366 C 187 284 204 220 239 176 C 274 132 320 110 376 110 C 412 110 443 116 470 129 C 496 142 515 160 527 182 L 527 264 L 372 264 L 372 385 Z" unicode="G" />
<glyph horiz-adv-x="698" d="M 625 0 L 475 0 L 475 295 L 223 295 L 223 0 L 73 0 L 73 730 L 223 730 L 223 424 L 475 424 L 475 730 L 625 730 L 625 0 Z" unicode="H" />
<glyph horiz-adv-x="304" d="M 227 0 L 77 0 L 77 730 L 227 730 L 227 0 Z" unicode="I" />
<glyph horiz-adv-x="383" d="M 318 730 L 318 196 C 318 166 313 139 304 114 C 294 88 281 66 263 48 C 245 30 224 15 199 5 C 173 -5 144 -11 112 -11 C 93 -11 73 -9 53 -7 C 33 -4 16 0 4 7 L 28 130 C 34 127 43 125 56 123 C 69 121 80 121 90 121 C 116 121 137 129 151 146 C 165 162 172 183 172 207 L 172 730 L 318 730 Z" unicode="J" />
<glyph horiz-adv-x="651" d="M 658 0 L 476 0 L 270 288 L 222 231 L 222 0 L 73 0 L 73 730 L 222 730 L 222 413 L 463 730 L 629 730 L 370 399 L 658 0 Z" unicode="K" />
<glyph horiz-adv-x="482" d="M 473 0 L 73 0 L 73 730 L 223 730 L 223 127 L 473 127 L 473 0 Z" unicode="L" />
<glyph horiz-adv-x="850" d="M 777 0 L 636 0 L 636 424 L 453 119 L 395 119 L 212 423 L 212 0 L 73 0 L 73 730 L 180 730 L 428 315 L 675 730 L 777 730 L 777 0 Z" unicode="M" />
<glyph horiz-adv-x="699" d="M 626 0 L 523 0 L 213 447 L 213 0 L 73 0 L 73 730 L 183 730 L 489 290 L 489 730 L 626 730 L 626 0 Z" unicode="N" />
<glyph horiz-adv-x="744" d="M 375 -10 C 322 -10 274 0 232 17 C 190 35 154 61 126 94 C 97 127 75 167 60 214 C 44 261 37 313 37 370 C 37 424 45 474 62 520 C 78 566 101 605 131 637 C 160 669 195 695 236 713 C 276 731 320 740 368 740 C 418 740 465 731 507 714 C 549 696 584 672 614 640 C 643 608 666 568 682 522 C 698 476 707 424 707 367 C 707 309 698 257 681 211 C 663 164 640 124 610 92 C 580 59 545 34 505 16 C 464 -1 421 -10 375 -10 Z M 375 116 C 428 116 471 136 505 178 C 538 220 555 283 555 369 C 555 447 537 506 503 548 C 468 590 423 611 368 611 C 314 611 271 591 238 551 C 205 511 189 450 189 368 C 189 282 206 219 241 178 C 276 136 321 116 375 116 Z" unicode="O" />
<glyph horiz-adv-x="577" d="M 73 0 L 73 730 L 332 730 C 396 730 450 709 492 669 C 534 629 555 574 555 505 C 555 471 549 439 538 411 C 527 382 512 357 492 337 C 472 317 449 301 421 289 C 393 277 362 272 328 272 L 223 272 L 223 0 L 73 0 Z M 221 390 L 305 390 C 338 390 363 400 381 420 C 398 440 407 469 407 505 C 407 540 396 566 376 584 C 356 602 330 611 300 611 L 221 611 L 221 390 Z" unicode="P" />
<glyph horiz-adv-x="741" d="M 641 -53 L 641 -181 C 575 -176 516 -157 466 -125 C 415 -92 377 -52 353 -4 C 303 -2 258 8 218 27 C 178 45 145 71 119 103 C 92 135 72 173 58 219 C 44 264 37 314 37 370 C 37 424 45 473 61 519 C 77 564 100 603 130 636 C 159 668 194 694 235 712 C 275 730 320 740 368 740 C 418 740 464 731 506 714 C 548 697 583 673 613 641 C 643 609 666 569 682 523 C 698 476 707 423 707 365 C 707 279 687 206 648 144 C 609 82 557 40 493 16 C 510 -4 532 -20 559 -32 C 585 -44 613 -51 641 -53 Z M 374 114 C 428 114 471 135 505 177 C 538 219 555 283 555 367 C 555 409 550 445 540 476 C 530 507 517 533 501 553 C 484 573 464 587 441 597 C 418 607 394 612 368 612 C 314 612 270 592 238 553 C 205 513 189 452 189 368 C 189 283 206 219 241 177 C 276 135 320 114 374 114 Z" unicode="Q" />
<glyph horiz-adv-x="600" d="M 73 0 L 73 730 L 313 730 C 343 730 371 725 397 717 C 423 708 446 695 466 678 C 486 661 501 640 513 614 C 524 588 530 559 530 526 C 530 496 526 470 518 447 C 510 423 499 403 487 387 C 474 371 459 357 443 347 C 426 337 409 330 392 327 L 390 322 L 598 0 L 432 0 L 259 279 L 218 279 L 218 0 L 73 0 Z M 216 401 L 286 401 C 312 401 335 410 354 428 C 373 446 383 473 383 508 C 383 542 373 567 354 585 C 335 602 313 611 289 611 L 216 611 L 216 401 Z" unicode="R" />
<glyph horiz-adv-x="529" d="M 269 -10 C 215 -10 167 -2 125 12 C 83 26 48 49 19 80 L 101 183 C 117 162 140 144 170 130 C 199 116 230 109 263 109 C 289 109 312 116 330 130 C 348 144 358 164 358 189 C 358 214 348 235 330 252 C 311 269 280 288 238 309 C 180 335 133 366 97 400 C 61 434 44 484 44 549 C 44 577 49 603 61 627 C 72 651 87 671 107 688 C 127 704 150 717 178 726 C 206 735 236 740 269 740 C 317 740 357 732 391 718 C 425 704 453 687 476 668 L 404 562 C 385 576 364 589 342 600 C 320 610 296 616 272 616 C 246 616 226 609 210 596 C 194 583 186 566 186 546 C 186 523 195 504 214 488 C 232 472 267 452 319 428 C 381 399 426 368 456 334 C 485 300 500 254 500 196 C 500 162 493 133 480 107 C 467 81 450 59 429 42 C 408 25 384 12 356 3 C 328 -5 299 -10 269 -10 Z" unicode="S" />
<glyph horiz-adv-x="515" d="M 507 602 L 331 602 L 331 0 L 181 0 L 181 602 L 8 602 L 8 730 L 507 730 L 507 602 Z" unicode="T" />
<glyph horiz-adv-x="689" d="M 621 730 L 621 253 C 621 210 613 172 598 139 C 582 106 562 79 537 57 C 511 35 482 18 448 7 C 414 -4 378 -10 341 -10 C 304 -10 269 -4 236 6 C 203 17 174 33 149 55 C 124 77 104 104 90 137 C 75 170 68 209 68 253 L 68 730 L 215 730 L 215 250 C 215 208 227 176 251 154 C 275 131 306 120 342 120 C 378 120 408 131 434 153 C 459 175 472 207 472 250 L 472 730 L 621 730 Z" unicode="U" />
<glyph horiz-adv-x="615" d="M 619 730 L 355 -3 L 258 -3 L -3 730 L 152 730 L 310 253 L 471 730 L 619 730 Z" unicode="V" />
<glyph horiz-adv-x="863" d="M 856 730 L 652 -5 L 567 -5 L 430 465 L 287 -5 L 201 -5 L 1 730 L 149 730 L 265 278 L 392 730 L 480 730 L 607 277 L 722 730 L 856 730 Z" unicode="W" />
<glyph horiz-adv-x="594" d="M 429 0 L 293 241 L 156 0 L 7 0 L 219 372 L 17 730 L 176 730 L 299 512 L 423 730 L 572 730 L 373 380 L 587 0 L 429 0 Z" unicode="X" />
<glyph horiz-adv-x="616" d="M 622 730 L 380 305 L 380 0 L 230 0 L 230 310 L -6 730 L 157 730 L 312 447 L 470 730 L 622 730 Z" unicode="Y" />
<glyph horiz-adv-x="549" d="M 517 730 L 517 666 L 206 126 L 528 126 L 528 0 L 15 0 L 15 61 L 324 603 L 36 603 L 36 730 L 517 730 Z" unicode="Z" />
<glyph horiz-adv-x="319" d="M 295 -179 L 73 -179 L 73 730 L 295 730 L 295 618 L 205 618 L 205 -65 L 295 -65 L 295 -179 Z" unicode="[" />
<glyph horiz-adv-x="340" d="M -4 730 L 120 730 L 344 0 L 218 0 L -4 730 Z" unicode="\" />
<glyph horiz-adv-x="315" d="M 244 -179 L 26 -179 L 26 -67 L 112 -67 L 112 618 L 26 618 L 26 730 L 244 730 L 244 -179 Z" unicode="]" />
<glyph horiz-adv-x="490" d="M 448 369 L 329 369 L 244 584 L 161 369 L 43 369 L 186 730 L 304 730 L 448 369 Z" unicode="^" />
<glyph horiz-adv-x="474" d="M 474 -175 L 0 -175 L 0 -61 L 474 -61 L 474 -175 Z" unicode="_" />
<glyph horiz-adv-x="500" d="M 376 553 L 239 553 L 113 717 L 276 717 L 376 553 Z" unicode="`" />
<glyph horiz-adv-x="506" d="M 457 0 L 329 0 L 329 53 C 313 33 293 18 269 8 C 245 -2 215 -8 179 -8 C 127 -8 88 6 61 35 C 34 64 21 101 21 146 C 21 202 41 244 81 272 C 121 300 177 316 247 319 L 324 323 L 324 336 C 324 356 317 373 304 385 C 291 397 270 403 242 403 C 214 403 187 398 163 389 C 138 379 117 369 99 359 L 53 448 C 74 464 102 479 138 491 C 173 503 215 510 265 510 C 322 510 368 496 404 469 C 439 441 457 398 457 340 L 457 0 Z M 327 139 L 327 233 L 255 230 C 225 229 202 222 184 210 C 166 198 158 180 158 156 C 158 136 164 120 177 110 C 190 100 206 95 226 95 C 248 95 268 99 286 108 C 303 117 317 127 327 139 Z" unicode="a" />
<glyph horiz-adv-x="557" d="M 329 -5 C 290 -5 259 2 235 18 C 211 33 195 51 185 71 L 185 0 L 54 0 L 54 773 L 184 773 L 184 419 C 192 441 209 461 235 479 C 260 497 293 506 334 506 C 390 506 437 483 474 439 C 511 395 530 335 530 260 C 530 218 524 180 513 147 C 502 114 487 86 469 64 C 451 41 429 24 405 12 C 381 0 355 -5 329 -5 Z M 286 99 C 316 99 341 112 359 138 C 377 164 386 201 386 250 C 386 297 377 333 360 358 C 343 382 318 395 286 395 C 257 395 233 383 214 360 C 195 337 186 299 186 245 C 186 193 195 155 213 133 C 231 110 256 99 286 99 Z" unicode="b" />
<glyph horiz-adv-x="484" d="M 381 165 L 473 97 C 455 69 431 44 399 23 C 367 1 324 -9 268 -9 C 196 -9 137 14 93 62 C 49 109 27 171 27 249 C 27 286 33 320 45 352 C 57 384 73 411 95 434 C 117 457 143 475 173 488 C 203 501 237 508 273 508 C 327 508 371 496 404 472 C 436 448 459 422 473 394 L 371 331 C 362 349 350 363 335 375 C 320 386 301 392 277 392 C 245 392 219 379 200 353 C 181 327 172 293 172 251 C 172 201 182 164 203 140 C 223 116 250 105 283 105 C 309 105 329 111 345 124 C 360 136 372 150 381 165 Z" unicode="c" />
<glyph horiz-adv-x="559" d="M 237 -7 C 177 -7 127 16 87 62 C 47 108 28 169 28 245 C 28 283 33 318 45 350 C 56 382 71 410 91 433 C 111 456 134 474 160 487 C 186 499 214 506 244 506 C 272 506 298 499 322 486 C 346 472 363 457 373 439 L 373 773 L 505 773 L 505 0 L 379 0 L 379 69 C 371 52 355 35 330 18 C 305 1 274 -7 237 -7 Z M 274 99 C 305 99 329 112 347 138 C 365 164 374 202 374 252 C 374 304 364 341 345 363 C 325 385 301 396 273 396 C 241 396 217 383 199 358 C 181 333 172 297 172 249 C 172 201 180 164 198 138 C 216 112 241 99 274 99 Z" unicode="d" />
<glyph horiz-adv-x="523" d="M 273 -9 C 237 -9 204 -3 174 8 C 144 19 118 35 96 57 C 74 79 58 105 46 137 C 34 169 28 205 28 245 C 28 283 34 319 46 351 C 58 383 74 411 96 435 C 117 458 142 476 172 489 C 202 501 234 508 269 508 C 341 508 398 482 439 430 C 480 378 501 305 501 210 L 164 210 C 164 179 175 153 195 132 C 215 110 245 100 283 100 C 315 100 341 105 361 116 C 381 127 397 139 410 153 L 479 76 C 458 53 432 33 401 16 C 369 0 327 -9 273 -9 Z M 164 301 L 366 301 C 364 331 355 355 337 374 C 319 392 296 402 268 402 C 238 402 214 392 196 373 C 177 353 166 329 164 301 Z" unicode="e" />
<glyph horiz-adv-x="317" d="M 313 383 L 219 383 L 219 0 L 81 0 L 81 383 L 9 383 L 9 498 L 81 498 L 81 600 C 81 629 85 655 95 677 C 104 699 116 717 132 732 C 148 746 166 757 187 765 C 207 772 228 776 250 776 C 266 776 283 774 300 771 C 316 767 330 763 340 757 L 316 647 C 311 649 305 651 297 653 C 289 655 281 656 272 656 C 256 656 243 650 233 638 C 223 626 218 609 218 588 L 218 498 L 313 498 L 313 383 Z" unicode="f" />
<glyph horiz-adv-x="558" d="M 235 8 C 205 8 178 13 152 25 C 126 37 104 53 86 74 C 68 95 53 121 43 151 C 33 181 28 215 28 253 C 28 331 47 393 87 439 C 127 484 177 507 237 507 C 269 507 298 499 324 485 C 349 471 367 454 377 435 L 377 498 L 504 498 L 504 42 C 504 1 497 -33 483 -63 C 469 -93 450 -117 427 -137 C 403 -156 376 -170 346 -180 C 316 -189 285 -194 253 -194 C 199 -194 155 -188 123 -176 C 91 -164 67 -153 52 -143 L 102 -45 C 116 -55 134 -64 158 -73 C 182 -81 209 -86 241 -86 C 279 -86 310 -75 334 -55 C 358 -35 371 -6 371 32 L 371 87 C 362 68 346 50 322 33 C 298 16 269 8 235 8 Z M 275 112 C 303 112 327 123 346 147 C 364 171 374 207 374 257 C 374 301 365 335 347 359 C 329 383 304 396 273 396 C 242 396 217 383 199 359 C 181 334 172 298 172 251 C 172 205 181 170 199 147 C 217 123 242 112 275 112 Z" unicode="g" />
<glyph horiz-adv-x="545" d="M 495 0 L 357 0 L 357 326 C 357 346 350 363 337 375 C 323 387 305 393 283 393 C 259 393 238 386 220 372 C 202 358 193 338 193 311 L 193 0 L 54 0 L 54 773 L 183 773 L 183 427 C 191 449 208 468 234 484 C 260 500 293 508 334 508 C 380 508 418 495 449 470 C 479 444 495 408 495 361 L 495 0 Z" unicode="h" />
<glyph horiz-adv-x="255" d="M 56 574 L 56 703 L 199 703 L 199 574 L 56 574 Z M 58 0 L 58 498 L 197 498 L 197 0 L 58 0 Z" unicode="i" />
<glyph horiz-adv-x="261" d="M 211 574 L 69 574 L 69 703 L 211 703 L 211 574 Z M 209 498 L 209 -38 C 209 -84 195 -122 167 -153 C 139 -183 100 -198 50 -198 C 32 -198 12 -196 -8 -192 C -29 -188 -46 -183 -58 -178 L -38 -75 C -32 -77 -24 -80 -14 -82 C -4 -84 7 -86 19 -86 C 35 -86 48 -79 57 -67 C 66 -54 71 -38 71 -19 L 71 498 L 209 498 Z" unicode="j" />
<glyph horiz-adv-x="519" d="M 541 1 L 384 0 L 247 193 L 191 129 L 191 0 L 55 0 L 55 773 L 188 773 L 188 275 L 365 498 L 512 498 L 340 286 L 541 1 Z" unicode="k" />
<glyph horiz-adv-x="247" d="M 193 773 L 193 0 L 54 0 L 54 773 L 193 773 Z" unicode="l" />
<glyph horiz-adv-x="840" d="M 54 0 L 54 498 L 180 498 L 180 421 C 189 447 208 468 238 484 C 268 500 301 508 338 508 C 370 508 399 500 425 486 C 450 472 466 450 474 420 L 479 420 C 488 446 506 468 534 484 C 562 500 594 508 632 508 C 678 508 715 495 745 470 C 775 444 790 409 790 363 L 790 0 L 652 0 L 652 322 C 652 346 645 364 632 376 C 618 388 600 394 578 394 C 556 394 536 387 518 373 C 500 359 491 337 491 307 L 491 0 L 354 0 L 354 325 C 354 347 347 364 334 376 C 320 388 302 394 280 394 C 256 394 235 386 218 371 C 200 355 192 334 192 306 L 192 0 L 54 0 Z" unicode="m" />
<glyph horiz-adv-x="545" d="M 495 0 L 356 0 L 356 327 C 356 347 349 363 336 375 C 322 387 305 393 283 393 C 259 393 238 386 220 372 C 202 358 193 336 193 308 L 193 0 L 54 0 L 54 498 L 181 498 L 181 422 C 191 446 210 467 237 483 C 264 499 296 508 334 508 C 380 508 419 495 449 469 C 479 443 495 408 495 364 L 495 0 Z" unicode="n" />
<glyph horiz-adv-x="550" d="M 272 -9 C 240 -9 210 -3 180 7 C 150 18 124 34 102 56 C 79 77 61 104 47 136 C 33 168 27 206 27 248 C 27 286 33 321 46 353 C 59 385 77 412 99 435 C 121 458 146 476 176 489 C 206 501 237 508 270 508 C 305 508 338 502 369 491 C 399 480 426 464 449 443 C 471 422 489 396 503 366 C 516 335 523 300 523 262 C 523 220 516 183 503 150 C 490 116 472 88 450 64 C 427 40 400 22 370 10 C 339 -2 306 -9 272 -9 Z M 275 102 C 307 102 333 114 351 140 C 369 165 379 203 379 255 C 379 302 369 337 350 360 C 331 383 305 395 271 395 C 240 395 216 383 198 359 C 180 335 172 298 172 249 C 172 196 181 158 200 136 C 219 113 244 102 275 102 Z" unicode="o" />
<glyph horiz-adv-x="558" d="M 54 -199 L 54 498 L 181 498 L 181 413 C 189 437 207 459 235 478 C 262 497 295 507 333 507 C 391 507 438 485 475 441 C 511 397 530 337 530 263 C 530 221 524 183 513 150 C 502 116 487 88 469 66 C 451 43 429 26 405 14 C 380 2 354 -4 327 -4 C 294 -4 265 2 241 15 C 216 27 199 43 189 62 L 189 -199 L 54 -199 Z M 287 100 C 315 100 339 112 358 136 C 376 160 386 198 386 248 C 386 294 377 330 361 356 C 344 382 319 396 287 396 C 257 396 233 384 214 362 C 195 339 186 300 186 244 C 186 188 195 150 214 130 C 233 110 257 100 287 100 Z" unicode="p" />
<glyph horiz-adv-x="559" d="M 370 -199 L 370 69 C 359 49 342 32 318 17 C 294 1 265 -6 231 -6 C 172 -6 123 16 85 62 C 47 107 28 167 28 241 C 28 282 33 319 45 352 C 57 385 72 413 92 436 C 111 458 134 476 160 488 C 186 500 213 506 242 506 C 276 506 305 497 330 481 C 354 464 371 447 380 429 L 380 498 L 505 498 L 505 -199 L 370 -199 Z M 274 99 C 303 99 327 111 346 136 C 364 160 374 199 374 251 C 374 302 364 339 346 362 C 327 384 302 396 272 396 C 239 396 214 383 197 358 C 180 333 172 296 172 248 C 172 202 180 165 198 139 C 216 112 241 99 274 99 Z" unicode="q" />
<glyph horiz-adv-x="412" d="M 417 477 L 361 357 C 348 368 335 376 322 380 C 309 384 296 387 283 387 C 261 387 241 378 222 362 C 202 346 193 321 193 288 L 193 0 L 54 0 L 54 498 L 183 498 L 183 417 C 189 437 205 458 230 478 C 254 498 285 508 321 508 C 342 508 361 505 377 499 C 393 493 407 485 417 477 Z" unicode="r" />
<glyph horiz-adv-x="428" d="M 228 -10 C 184 -10 144 -3 108 8 C 72 20 43 36 21 56 L 81 145 C 99 130 122 118 148 109 C 174 100 198 96 220 96 C 236 96 250 100 261 108 C 271 116 277 126 277 140 C 277 153 269 165 253 175 C 237 185 213 195 181 206 C 137 220 103 239 77 264 C 51 288 38 322 38 365 C 38 405 55 439 89 467 C 123 494 165 508 217 508 C 259 508 295 502 326 491 C 356 480 379 468 395 456 L 344 361 C 327 371 308 381 288 390 C 267 398 246 403 226 403 C 210 403 195 400 183 394 C 171 388 165 379 165 367 C 165 354 171 344 184 336 C 196 328 222 318 260 304 C 306 287 341 267 367 244 C 392 221 405 188 405 145 C 405 120 400 98 390 79 C 380 59 368 43 352 30 C 336 16 317 6 295 0 C 273 -6 251 -10 228 -10 Z" unicode="s" />
<glyph horiz-adv-x="322" d="M 300 122 L 317 14 C 309 8 297 4 281 0 C 265 -4 247 -6 229 -6 C 209 -6 189 -3 169 3 C 149 9 132 18 116 31 C 100 43 87 60 77 80 C 67 100 63 125 63 154 L 63 384 L 7 384 L 7 498 L 65 498 L 65 625 L 200 639 L 200 498 L 297 498 L 297 384 L 201 384 L 201 170 C 201 149 205 134 214 125 C 223 116 237 112 255 112 C 263 112 272 113 281 115 C 289 117 296 120 300 122 Z" unicode="t" />
<glyph horiz-adv-x="545" d="M 50 498 L 188 498 L 188 176 C 188 150 195 131 210 119 C 224 107 243 101 267 101 C 291 101 312 108 328 123 C 344 137 352 159 352 188 L 352 498 L 490 498 L 490 0 L 361 0 L 361 73 C 350 49 331 30 304 14 C 277 -1 246 -9 210 -9 C 166 -9 128 3 97 29 C 65 55 50 93 50 143 L 50 498 Z" unicode="u" />
<glyph horiz-adv-x="487" d="M 495 498 L 287 -3 L 196 -3 L -8 498 L 140 498 L 250 211 L 360 498 L 495 498 Z" unicode="v" />
<glyph horiz-adv-x="690" d="M 444 -3 L 348 265 L 247 -3 L 160 -3 L 0 498 L 138 498 L 224 199 L 313 455 L 396 455 L 481 200 L 568 498 L 690 498 L 529 -3 L 444 -3 Z" unicode="w" />
<glyph horiz-adv-x="457" d="M 312 0 L 223 145 L 130 0 L -1 0 L 159 251 L 7 498 L 152 498 L 232 367 L 316 498 L 449 498 L 297 261 L 457 0 L 312 0 Z" unicode="x" />
<glyph horiz-adv-x="493" d="M 499 498 L 256 -83 C 236 -127 210 -157 177 -174 C 143 -191 110 -200 78 -200 C 58 -200 42 -197 28 -193 C 14 -189 4 -185 -2 -183 L 36 -74 C 38 -76 44 -78 53 -81 C 61 -83 70 -85 79 -85 C 94 -85 107 -80 118 -70 C 128 -60 138 -45 148 -25 L 180 49 L -6 498 L 141 498 L 251 207 L 363 498 L 499 498 Z" unicode="y" />
<glyph horiz-adv-x="423" d="M 404 498 L 404 436 L 200 115 L 413 115 L 413 0 L 12 0 L 12 50 L 224 383 L 22 383 L 22 498 L 404 498 Z" unicode="z" />
<glyph horiz-adv-x="301" d="M 284 -179 C 248 -179 215 -174 186 -165 C 156 -156 131 -144 111 -130 C 90 -116 74 -99 63 -80 C 52 -61 47 -42 47 -23 C 47 0 49 20 54 40 C 58 60 64 77 70 93 C 75 108 80 122 86 136 C 91 150 94 162 94 174 C 94 189 87 203 73 216 C 59 229 40 236 14 236 L 14 335 C 40 335 60 341 74 355 C 88 369 96 384 96 402 C 96 406 93 416 87 432 C 81 447 75 463 69 481 C 62 498 57 515 53 533 C 49 550 48 566 48 582 C 48 601 53 621 64 641 C 75 661 91 679 111 695 C 131 711 156 724 186 734 C 215 744 248 749 284 749 L 284 644 C 256 644 232 636 211 620 C 190 604 180 584 180 560 C 180 551 181 541 183 529 C 185 517 188 505 193 493 C 200 475 207 458 213 443 C 219 427 222 414 222 403 C 222 377 215 354 201 332 C 187 310 163 294 131 285 C 163 275 187 259 201 237 C 215 215 222 192 222 170 C 222 154 219 139 214 126 C 208 113 203 100 197 88 C 191 75 187 62 184 48 C 181 34 180 21 180 10 C 180 -10 190 -29 210 -47 C 230 -65 254 -74 284 -74 L 284 -179 Z" unicode="{" />
<glyph horiz-adv-x="258" d="M 194 -179 L 64 -179 L 64 730 L 194 730 L 194 -179 Z" unicode="|" />
<glyph horiz-adv-x="301" d="M 17 -179 L 17 -74 C 46 -74 71 -65 91 -47 C 111 -29 121 -10 121 10 C 121 21 119 34 116 48 C 113 62 109 75 103 88 C 97 100 92 113 86 126 C 80 139 78 154 78 170 C 78 192 85 215 99 237 C 113 259 136 275 169 285 C 137 294 113 310 99 332 C 85 354 78 377 78 403 C 78 414 81 427 87 443 C 93 458 100 475 108 493 C 112 505 115 517 117 529 C 119 541 120 551 120 560 C 120 584 109 604 89 620 C 68 636 44 644 17 644 L 17 749 C 53 749 85 744 115 734 C 144 724 169 711 189 695 C 209 679 225 661 236 641 C 247 621 253 601 253 582 C 253 566 251 550 247 533 C 243 515 237 498 231 481 C 224 463 218 447 212 432 C 206 416 204 406 204 402 C 204 384 211 369 226 355 C 240 341 261 335 287 335 L 287 236 C 261 236 241 229 227 216 C 213 203 206 189 206 174 C 206 162 208 150 214 136 C 219 122 225 108 231 93 C 237 77 242 60 246 40 C 250 20 253 0 253 -23 C 253 -42 247 -61 236 -80 C 225 -99 209 -116 189 -130 C 168 -144 143 -156 114 -165 C 85 -174 53 -179 17 -179 Z" unicode="}" />
<glyph horiz-adv-x="490" d="M 359 454 L 467 454 C 466 397 456 352 437 319 C 418 285 389 269 349 269 C 324 269 303 272 286 280 C 268 288 254 296 242 306 C 230 314 218 322 207 329 C 196 336 184 340 172 340 C 160 340 151 333 143 320 C 135 306 131 290 131 272 L 25 272 C 25 332 34 378 53 410 C 72 442 99 458 134 458 C 160 458 183 453 203 444 C 222 435 239 425 254 415 C 266 407 278 399 289 392 C 299 385 311 382 323 382 C 339 382 349 388 353 402 C 357 415 359 432 359 454 Z" unicode="~" />
<glyph horiz-adv-x="308" d="M 81 579 L 228 579 L 228 431 L 81 431 L 81 579 Z M 73 153 L 122 348 L 190 348 L 235 153 L 235 -133 L 73 -133 L 73 153 Z" unicode="¡" />
<glyph horiz-adv-x="523" d="M 507 166 C 490 142 467 120 439 99 C 411 78 373 65 325 61 L 325 -56 L 246 -56 L 246 62 C 183 70 132 97 94 143 C 55 188 36 246 36 318 C 36 386 55 444 93 492 C 131 539 182 568 246 578 L 246 689 L 325 689 L 325 581 C 372 576 410 562 440 540 C 470 517 491 492 504 465 L 411 400 C 399 418 384 434 366 446 C 348 458 324 464 296 464 C 258 464 229 450 207 424 C 185 398 175 364 175 322 C 175 272 187 235 211 211 C 235 187 266 175 304 175 C 334 175 359 181 378 195 C 397 208 412 223 423 240 L 507 166 Z" unicode="¢" />
<glyph horiz-adv-x="565" d="M 550 110 L 550 0 L 19 0 L 19 85 C 24 89 33 93 46 97 C 58 100 76 104 99 108 C 127 112 151 123 169 140 C 187 156 198 178 201 205 L 40 205 L 40 293 L 168 293 C 163 301 158 309 152 318 C 146 327 140 336 135 346 L 40 346 L 40 434 L 90 434 C 84 450 79 468 75 487 C 71 506 69 526 69 547 C 69 583 75 613 89 638 C 102 663 120 683 142 698 C 164 713 190 724 220 731 C 250 738 280 742 312 742 C 336 742 361 739 385 734 C 409 729 431 723 452 716 C 472 708 491 700 507 691 C 523 682 536 674 546 666 L 480 560 C 464 570 442 582 413 595 C 384 608 353 615 321 615 C 295 615 272 607 250 593 C 228 579 217 555 217 521 C 217 506 219 491 224 477 C 229 463 235 448 243 434 L 487 434 L 487 346 L 293 346 C 297 337 302 328 307 319 C 311 310 315 301 318 293 L 487 293 L 487 205 L 321 205 C 314 178 303 157 287 142 C 271 127 255 116 238 110 L 550 110 Z" unicode="£" />
<glyph horiz-adv-x="502" d="M 448 194 L 397 143 L 341 201 C 327 193 313 187 298 183 C 282 179 266 177 250 177 C 233 177 217 179 202 183 C 186 187 172 193 159 201 L 104 143 L 52 195 L 104 248 C 92 262 83 279 77 297 C 71 315 68 334 68 354 C 68 374 71 393 78 411 C 84 429 93 445 104 460 L 52 514 L 102 565 L 159 507 C 171 514 185 520 201 524 C 217 528 233 531 250 531 C 266 531 282 528 298 524 C 314 520 329 514 343 506 L 400 566 L 450 514 L 397 458 C 407 443 416 427 422 409 C 428 391 431 373 431 354 C 431 334 427 315 421 297 C 415 279 406 262 395 248 L 448 194 Z M 250 268 C 274 268 295 276 313 294 C 331 311 340 331 340 354 C 340 376 331 396 313 414 C 295 431 274 440 250 440 C 225 440 204 431 186 414 C 168 396 160 376 160 354 C 160 331 168 311 186 294 C 204 276 225 268 250 268 Z" unicode="¤" />
<glyph horiz-adv-x="628" d="M 552 105 L 384 105 L 384 0 L 234 0 L 234 105 L 72 105 L 72 194 L 234 194 L 234 240 L 72 240 L 72 329 L 228 329 L 12 730 L 173 730 L 315 450 L 460 730 L 611 730 L 394 329 L 552 329 L 552 240 L 384 240 L 384 194 L 552 194 L 552 105 Z" unicode="¥" />
<glyph horiz-adv-x="293" d="M 87 351 L 87 730 L 206 730 L 206 351 L 87 351 Z M 206 200 L 206 -179 L 87 -179 L 87 200 L 206 200 Z" unicode="¦" />
<glyph horiz-adv-x="640" d="M 339 -181 C 281 -181 228 -174 179 -161 C 130 -148 89 -130 55 -108 L 110 5 C 142 -15 178 -33 219 -47 C 259 -61 295 -68 327 -68 C 353 -68 374 -61 390 -49 C 405 -37 413 -19 413 3 C 413 23 405 39 389 50 C 373 61 349 73 318 86 L 236 121 C 203 135 174 147 150 159 C 125 171 104 183 88 197 C 72 211 59 227 51 245 C 43 263 39 286 39 313 C 39 343 46 369 60 390 C 74 411 93 429 115 444 C 97 457 83 474 75 494 C 67 514 63 539 63 568 C 63 595 69 619 82 641 C 94 663 112 681 134 696 C 156 710 183 722 214 730 C 245 738 279 742 315 742 C 377 742 427 733 467 717 C 506 700 538 683 563 666 L 500 562 C 472 580 443 597 413 612 C 383 626 350 634 312 634 C 280 634 255 628 237 616 C 218 604 209 587 209 567 C 209 551 216 537 232 526 C 248 514 272 503 304 492 L 411 448 C 473 425 520 401 552 376 C 584 350 600 313 600 263 C 600 228 589 199 567 176 C 545 153 519 137 489 129 C 506 118 522 102 538 81 C 554 60 562 34 562 2 C 562 -26 556 -52 545 -75 C 533 -98 518 -117 498 -133 C 478 -148 454 -160 427 -168 C 399 -176 370 -181 339 -181 Z M 389 197 C 405 199 420 204 433 213 C 446 221 453 235 453 253 C 453 271 444 287 427 300 C 410 313 377 328 327 346 L 233 385 C 217 379 205 371 195 362 C 185 353 181 341 181 325 C 181 304 189 287 207 275 C 225 262 259 247 309 230 L 389 197 Z" unicode="§" />
<glyph horiz-adv-x="500" d="M 402 553 L 287 553 L 287 715 L 402 715 L 402 553 Z M 213 553 L 98 553 L 98 715 L 213 715 L 213 553 Z" unicode="¨" />
<glyph horiz-adv-x="837" d="M 418 -2 C 367 -2 319 7 273 27 C 227 47 188 73 155 107 C 121 140 95 179 75 225 C 55 271 46 319 46 370 C 46 420 55 468 75 514 C 95 560 121 599 155 633 C 188 666 227 692 273 712 C 319 732 367 742 418 742 C 468 742 516 732 562 712 C 608 692 647 666 681 633 C 715 599 741 560 761 514 C 781 468 791 420 791 370 C 791 319 781 271 761 225 C 741 179 715 140 681 107 C 647 73 608 47 562 27 C 516 7 468 -2 418 -2 Z M 418 72 C 458 72 497 79 533 95 C 569 111 600 132 627 159 C 653 186 674 218 690 254 C 706 290 714 328 714 369 C 714 409 706 448 690 484 C 674 520 653 552 627 579 C 600 606 569 627 533 643 C 497 659 458 667 418 667 C 377 667 339 659 303 643 C 267 627 235 606 209 579 C 182 552 161 520 145 484 C 129 448 122 409 122 369 C 122 328 129 290 145 254 C 161 218 182 186 209 159 C 235 132 267 111 303 95 C 339 79 377 72 418 72 Z M 593 248 C 577 222 554 201 525 184 C 496 166 460 158 416 158 C 389 158 363 162 339 171 C 314 180 292 193 274 211 C 255 229 240 251 229 278 C 218 304 213 335 213 371 C 213 406 218 438 229 466 C 239 494 254 517 272 536 C 290 554 311 568 335 578 C 359 588 385 593 413 593 C 459 593 496 584 525 568 C 553 552 575 531 590 507 L 503 444 C 494 457 483 468 470 477 C 457 485 440 490 418 490 C 390 490 368 478 351 456 C 333 433 325 404 325 369 C 325 332 334 304 353 284 C 371 264 393 254 418 254 C 438 254 456 258 472 268 C 487 277 500 289 510 305 L 593 248 Z" unicode="©" />
<glyph horiz-adv-x="469" d="M 423 314 L 315 314 L 315 364 C 301 345 282 331 258 322 C 233 312 205 308 175 308 C 130 308 95 320 71 344 C 46 368 34 400 34 442 C 34 486 52 520 88 544 C 124 568 176 581 243 584 L 312 588 L 312 595 C 312 609 305 621 293 630 C 281 638 261 643 235 643 C 211 643 188 639 164 631 C 140 623 118 613 97 600 L 55 681 C 77 698 106 713 140 725 C 174 737 213 743 255 743 C 308 743 349 731 379 707 C 408 683 423 644 423 591 L 423 314 Z M 313 444 L 313 508 L 237 505 C 211 504 191 499 175 491 C 159 482 152 468 152 448 C 152 433 158 421 170 413 C 182 404 197 400 216 400 C 236 400 254 403 271 411 C 288 419 302 430 313 444 Z M 431 179 L 42 179 L 42 273 L 431 273 L 431 179 Z" unicode="ª" />
<glyph horiz-adv-x="492" d="M 229 68 L 25 248 L 25 333 L 229 510 L 229 370 L 144 288 L 229 212 L 229 68 Z M 463 68 L 258 248 L 258 333 L 463 510 L 463 370 L 379 288 L 463 212 L 463 68 Z" unicode="«" />
<glyph horiz-adv-x="493" d="M 449 412 L 449 134 L 334 134 L 334 296 L 28 296 L 28 412 L 449 412 Z" unicode="¬" />
<glyph horiz-adv-x="837" d="M 418 -2 C 367 -2 319 7 273 27 C 227 47 188 73 155 107 C 121 140 95 179 75 225 C 55 271 46 319 46 370 C 46 420 55 468 75 514 C 95 560 121 599 155 633 C 188 666 227 692 273 712 C 319 732 367 742 418 742 C 468 742 516 732 562 712 C 608 692 647 666 681 633 C 715 599 741 560 761 514 C 781 468 791 420 791 370 C 791 319 781 271 761 225 C 741 179 715 140 681 107 C 647 73 608 47 562 27 C 516 7 468 -2 418 -2 Z M 418 72 C 458 72 497 79 533 95 C 569 110 600 131 627 157 C 653 183 674 215 690 251 C 706 287 714 327 714 369 C 714 411 706 450 690 487 C 674 523 653 555 627 581 C 600 607 569 628 533 644 C 497 659 458 667 418 667 C 377 667 339 659 303 643 C 267 627 235 606 209 580 C 182 553 161 521 145 485 C 129 449 122 410 122 369 C 122 327 129 288 145 252 C 161 216 182 184 209 158 C 235 131 267 110 303 95 C 339 79 377 72 418 72 Z M 269 163 L 269 594 L 441 594 C 459 594 476 591 494 587 C 511 582 527 575 541 565 C 555 555 566 542 574 527 C 582 511 587 493 587 472 C 587 434 577 405 558 387 C 538 368 518 357 498 354 L 497 350 L 629 163 L 515 163 L 410 322 L 368 322 L 368 163 L 269 163 Z M 368 403 L 436 403 C 449 403 461 407 472 417 C 483 426 489 440 489 460 C 489 480 482 493 470 501 C 458 509 444 513 429 513 L 368 513 L 368 403 Z" unicode="®" />
<glyph horiz-adv-x="500" d="M 390 563 L 110 563 L 110 668 L 390 668 L 390 563 Z" unicode="¯" />
<glyph horiz-adv-x="432" d="M 216 370 C 190 370 166 374 143 384 C 120 394 100 407 84 424 C 67 440 54 460 44 483 C 34 506 30 530 30 556 C 30 581 34 605 44 628 C 54 651 67 671 84 688 C 100 704 120 717 143 727 C 166 737 190 742 216 742 C 241 742 265 737 288 727 C 311 717 331 704 348 688 C 364 671 377 651 387 628 C 397 605 402 581 402 556 C 402 530 397 506 387 483 C 377 460 364 440 348 424 C 331 407 311 394 288 384 C 265 374 241 370 216 370 Z M 216 466 C 240 466 262 474 280 492 C 298 510 308 531 308 556 C 308 580 298 602 280 620 C 262 638 240 647 216 647 C 191 647 169 638 151 620 C 133 602 124 580 124 556 C 124 531 133 510 151 492 C 169 474 191 466 216 466 Z" unicode="°" />
<glyph horiz-adv-x="492" d="M 470 118 L 470 16 L 24 16 L 24 118 L 189 118 L 189 278 L 20 278 L 20 383 L 189 383 L 189 557 L 305 557 L 305 383 L 472 383 L 472 278 L 305 278 L 305 118 L 470 118 Z" unicode="±" />
<glyph horiz-adv-x="346" d="M 323 372 L 19 372 L 19 406 L 177 568 C 183 574 189 581 193 589 C 197 596 199 605 199 616 C 199 625 195 633 189 641 C 183 649 173 653 159 653 C 143 653 132 648 126 638 C 120 628 116 616 116 604 L 15 604 C 15 644 29 676 57 702 C 85 728 124 741 173 741 C 219 741 255 731 279 711 C 303 691 315 667 315 639 C 315 612 310 590 300 573 C 290 556 280 542 269 530 L 199 459 L 323 459 L 323 372 Z" unicode="²" />
<glyph horiz-adv-x="346" d="M 233 569 C 257 564 277 553 292 537 C 307 520 315 500 315 477 C 315 465 312 453 308 440 C 303 426 295 414 283 403 C 271 391 256 382 236 374 C 216 366 191 363 161 363 C 116 363 82 368 58 379 C 34 389 16 400 4 410 L 55 467 C 65 460 77 454 92 449 C 106 443 124 441 145 441 C 171 441 190 445 200 454 C 210 463 216 475 216 490 C 216 504 208 514 194 519 C 180 523 163 526 144 526 L 75 526 L 75 600 L 140 600 C 156 600 170 602 181 608 C 192 613 198 621 198 633 C 198 643 193 651 185 656 C 176 660 164 663 148 663 C 130 663 114 660 99 654 C 84 648 72 641 64 634 L 16 689 C 26 700 43 712 67 724 C 90 736 123 742 165 742 C 204 742 236 734 262 718 C 287 702 300 679 300 649 C 300 628 293 611 279 597 C 265 583 249 573 233 569 Z" unicode="³" />
<glyph horiz-adv-x="500" d="M 125 555 L 224 719 L 387 719 L 262 555 L 125 555 Z" unicode="´" />
<glyph horiz-adv-x="590" d="M 60 -114 L 60 502 L 198 502 L 198 177 C 198 155 206 138 223 124 C 240 110 262 103 288 103 C 315 103 339 111 359 129 C 379 146 389 169 389 197 L 389 502 L 526 502 L 526 0 L 400 0 L 400 78 C 387 56 368 37 342 21 C 316 5 288 -3 260 -5 C 244 -5 230 -2 216 3 C 202 8 193 16 187 27 L 187 -114 L 60 -114 Z" unicode="µ" />
<glyph horiz-adv-x="668" d="M 613 -180 L 522 -179 L 522 621 L 444 621 L 444 -179 L 354 -179 L 354 257 L 256 257 C 225 257 196 263 168 276 C 140 288 115 305 93 326 C 71 347 54 372 41 400 C 28 428 22 458 22 490 C 22 524 28 555 40 585 C 52 614 69 639 91 661 C 113 682 140 699 171 711 C 202 723 237 730 275 730 L 613 730 L 613 -180 Z M 355 371 L 355 616 L 310 616 C 273 616 244 604 224 581 C 204 558 194 529 194 493 C 194 459 204 431 224 407 C 244 383 270 371 303 371 L 355 371 Z" unicode="¶" />
<glyph horiz-adv-x="287" d="M 213 254 L 74 254 L 74 412 L 213 412 L 213 254 Z" unicode="·" />
<glyph horiz-adv-x="500" d="M 257 -189 C 231 -189 206 -186 181 -180 C 156 -174 137 -166 123 -157 L 142 -101 C 150 -105 160 -109 174 -114 C 188 -118 202 -121 218 -121 C 227 -121 235 -118 243 -114 C 251 -110 255 -104 255 -97 C 255 -88 251 -82 245 -78 C 238 -74 231 -73 223 -73 C 217 -73 212 -73 208 -74 C 203 -75 198 -76 194 -78 L 176 -58 L 237 14 L 315 14 L 270 -42 C 300 -38 326 -43 346 -56 C 366 -68 376 -87 376 -111 C 376 -137 364 -156 340 -169 C 316 -182 288 -189 257 -189 Z" unicode="¸" />
<glyph horiz-adv-x="320" d="M 127 372 L 127 614 C 123 608 117 604 109 600 C 101 596 93 592 85 589 C 76 586 67 584 59 582 C 51 580 44 578 40 578 L 40 678 C 66 680 88 685 106 695 C 124 704 145 719 168 739 L 242 739 L 242 372 L 127 372 Z" unicode="¹" />
<glyph horiz-adv-x="469" d="M 231 305 C 205 305 179 309 155 319 C 130 328 108 342 89 360 C 70 378 55 401 43 428 C 31 455 26 486 26 521 C 26 552 31 581 43 608 C 54 634 69 657 88 677 C 107 697 129 712 154 723 C 179 734 205 740 232 740 C 261 740 288 735 314 726 C 340 716 362 703 381 685 C 399 667 414 646 425 620 C 436 594 442 564 442 532 C 442 498 436 467 425 439 C 413 411 398 387 379 367 C 359 347 337 332 311 321 C 285 310 259 305 231 305 Z M 231 407 C 261 407 284 418 302 440 C 320 462 329 492 329 530 C 329 564 320 590 304 610 C 288 630 265 640 236 640 C 206 640 183 629 166 607 C 148 585 140 554 140 515 C 140 481 148 454 165 435 C 181 416 203 407 231 407 Z M 40 179 L 40 273 L 429 273 L 429 179 L 40 179 Z" unicode="º" />
<glyph horiz-adv-x="493" d="M 29 510 L 234 330 L 234 245 L 29 68 L 29 208 L 113 290 L 29 366 L 29 510 Z M 264 510 L 468 330 L 468 245 L 264 68 L 264 208 L 349 290 L 264 366 L 264 510 Z" unicode="»" />
<glyph horiz-adv-x="706" d="M 9 0 L 9 0 Z M 96 372 L 96 614 C 92 608 86 604 78 600 C 70 596 62 592 54 589 C 45 586 36 584 28 582 C 20 580 13 578 9 578 L 9 678 C 35 680 57 685 75 695 C 93 704 114 719 137 739 L 211 739 L 211 372 L 96 372 Z M 589 730 L 242 0 L 134 0 L 481 730 L 589 730 Z M 392 81 L 392 150 L 571 363 L 643 363 L 643 154 L 697 154 L 697 81 L 643 81 L 643 1 L 544 1 L 544 81 L 392 81 Z M 476 146 L 546 146 L 546 232 L 476 146 Z" unicode="¼" />
<glyph horiz-adv-x="781" d="M 9 0 L 9 0 Z M 96 372 L 96 614 C 92 608 86 604 78 600 C 70 596 62 592 54 589 C 45 586 36 584 28 582 C 20 580 13 578 9 578 L 9 678 C 35 680 57 685 75 695 C 93 704 114 719 137 739 L 211 739 L 211 372 L 96 372 Z M 589 730 L 242 0 L 134 0 L 481 730 L 589 730 Z M 762 0 L 458 0 L 458 34 L 616 196 C 622 202 628 209 632 217 C 636 224 638 233 638 244 C 638 253 634 261 628 269 C 622 277 612 281 598 281 C 582 281 571 276 565 266 C 559 256 555 244 555 232 L 454 232 C 454 272 468 304 496 330 C 524 356 563 369 612 369 C 658 369 694 359 718 339 C 742 319 754 295 754 267 C 754 240 749 218 739 201 C 729 184 719 170 708 158 L 638 87 L 762 87 L 762 0 Z" unicode="½" />
<glyph horiz-adv-x="759" d="M 9 0 L 9 0 Z M 642 730 L 295 0 L 187 0 L 534 730 L 642 730 Z M 445 81 L 445 150 L 624 363 L 696 363 L 696 154 L 750 154 L 750 81 L 696 81 L 696 1 L 597 1 L 597 81 L 445 81 Z M 529 146 L 599 146 L 599 232 L 529 146 Z M 238 569 C 262 564 282 553 297 537 C 312 520 320 500 320 477 C 320 465 317 453 313 440 C 308 426 300 414 288 403 C 276 391 261 382 241 374 C 221 366 196 363 166 363 C 121 363 87 368 63 379 C 39 389 21 400 9 410 L 60 467 C 70 460 82 454 97 449 C 111 443 129 441 150 441 C 176 441 195 445 205 454 C 215 463 221 475 221 490 C 221 504 213 514 199 519 C 185 523 168 526 149 526 L 80 526 L 80 600 L 145 600 C 161 600 175 602 186 608 C 197 613 203 621 203 633 C 203 643 198 651 190 656 C 181 660 169 663 153 663 C 135 663 119 660 104 654 C 89 648 77 641 69 634 L 21 689 C 31 700 48 712 72 724 C 95 736 128 742 170 742 C 209 742 241 734 267 718 C 292 702 305 679 305 649 C 305 628 298 611 284 597 C 270 583 254 573 238 569 Z" unicode="¾" />
<glyph horiz-adv-x="472" d="M 175 436 L 175 579 L 330 579 L 330 436 L 175 436 Z M 240 -156 C 173 -156 119 -139 77 -106 C 35 -72 15 -28 15 28 C 15 54 18 78 25 98 C 32 118 41 135 52 151 C 63 167 75 181 89 194 C 102 206 115 218 128 229 C 150 245 165 265 173 287 C 181 309 185 331 186 354 L 324 354 C 324 312 318 277 307 251 C 296 225 276 199 246 175 C 222 155 202 136 186 118 C 170 100 162 77 162 49 C 162 23 171 3 190 -11 C 209 -25 232 -33 260 -33 C 285 -33 308 -26 328 -14 C 348 -1 365 13 378 30 L 466 -55 C 445 -83 415 -106 376 -126 C 337 -146 292 -156 240 -156 Z" unicode="¿" />
<glyph horiz-adv-x="619" d="M 0 0 L 0 0 Z M 622 0 L 468 0 L 419 140 L 190 140 L 143 0 L -3 0 L 264 733 L 361 733 L 622 0 Z M 390 252 L 304 498 L 220 252 L 390 252 Z M 308 785 L 308 785 Z M 439 785 L 302 785 L 176 949 L 339 949 L 439 785 Z" unicode="À" />
<glyph horiz-adv-x="619" d="M 0 0 L 0 0 Z M 622 0 L 468 0 L 419 140 L 190 140 L 143 0 L -3 0 L 264 733 L 361 733 L 622 0 Z M 390 252 L 304 498 L 220 252 L 390 252 Z M 308 787 L 308 787 Z M 177 787 L 276 951 L 439 951 L 314 787 L 177 787 Z" unicode="Á" />
<glyph horiz-adv-x="619" d="M 0 0 L 0 0 Z M 622 0 L 468 0 L 419 140 L 190 140 L 143 0 L -3 0 L 264 733 L 361 733 L 622 0 Z M 390 252 L 304 498 L 220 252 L 390 252 Z M 308 785 L 308 785 Z M 490 785 L 368 785 L 308 871 L 247 785 L 127 785 L 242 959 L 375 959 L 490 785 Z" unicode="Â" />
<glyph horiz-adv-x="619" d="M 0 0 L 0 0 Z M 622 0 L 468 0 L 419 140 L 190 140 L 143 0 L -3 0 L 264 733 L 361 733 L 622 0 Z M 390 252 L 304 498 L 220 252 L 390 252 Z M 308 788 L 308 788 Z M 382 941 L 488 941 C 488 889 479 850 463 825 C 447 800 425 788 399 788 C 380 788 364 791 350 797 C 336 803 324 809 314 815 C 305 820 296 825 288 831 C 279 836 271 839 263 839 C 254 839 247 834 242 826 C 237 818 235 806 235 791 L 130 791 C 130 843 140 881 162 907 C 183 932 205 945 229 945 C 247 945 262 941 274 935 C 286 929 298 922 309 916 C 317 910 324 905 332 901 C 339 896 346 894 353 894 C 359 894 366 898 372 906 C 378 914 382 925 382 941 Z" unicode="Ã" />
<glyph horiz-adv-x="619" d="M 0 0 L 0 0 Z M 622 0 L 468 0 L 419 140 L 190 140 L 143 0 L -3 0 L 264 733 L 361 733 L 622 0 Z M 390 252 L 304 498 L 220 252 L 390 252 Z M 308 785 L 308 785 Z M 460 785 L 345 785 L 345 947 L 460 947 L 460 785 Z M 271 785 L 156 785 L 156 947 L 271 947 L 271 785 Z" unicode="Ä" />
<glyph horiz-adv-x="619" d="M 0 0 L 0 0 Z M 622 0 L 468 0 L 419 140 L 190 140 L 143 0 L -3 0 L 264 733 L 361 733 L 622 0 Z M 390 252 L 304 498 L 220 252 L 390 252 Z M 308 779 L 308 779 Z M 308 779 C 274 779 245 791 221 815 C 197 839 186 868 186 902 C 186 935 197 964 221 988 C 245 1012 274 1024 308 1024 C 342 1024 371 1012 395 988 C 419 964 432 935 432 902 C 432 868 419 839 395 815 C 371 791 342 779 308 779 Z M 309 852 C 322 852 333 856 343 866 C 352 875 357 887 357 901 C 357 915 352 926 343 936 C 333 946 322 951 309 951 C 295 951 284 946 274 936 C 264 926 260 915 260 901 C 260 887 264 875 274 866 C 284 856 295 852 309 852 Z" unicode="Å" />
<glyph horiz-adv-x="918" d="M 884 0 L 461 0 L 461 200 L 241 200 L 127 0 L -26 0 L 377 730 L 864 730 L 864 604 L 597 604 L 597 422 L 848 422 L 848 300 L 597 300 L 597 126 L 884 126 L 884 0 Z M 461 317 L 461 625 L 298 317 L 461 317 Z" unicode="Æ" />
<glyph horiz-adv-x="650" d="M 37 0 L 37 0 Z M 361 -10 C 315 -10 272 -1 232 15 C 192 31 157 56 129 88 C 100 120 77 159 61 206 C 45 252 37 305 37 365 C 37 421 45 472 61 518 C 77 564 99 603 127 636 C 155 669 190 695 230 713 C 270 731 315 740 363 740 C 429 740 483 728 525 705 C 567 681 601 648 627 606 L 519 528 C 504 550 484 570 460 586 C 435 602 404 610 367 610 C 309 610 264 589 234 547 C 203 505 188 445 188 366 C 188 320 193 282 204 250 C 214 218 228 192 246 172 C 263 152 283 138 306 130 C 328 121 352 117 376 117 C 414 117 446 125 472 142 C 498 159 519 181 536 209 L 638 141 C 612 95 576 59 530 31 C 483 3 427 -10 361 -10 Z M 351 -2 L 351 -2 Z M 358 -191 C 332 -191 307 -188 282 -182 C 257 -176 238 -168 224 -159 L 243 -103 C 251 -107 261 -111 275 -116 C 289 -120 303 -123 319 -123 C 328 -123 336 -120 344 -116 C 352 -112 356 -106 356 -99 C 356 -90 352 -84 346 -80 C 339 -76 332 -75 324 -75 C 318 -75 313 -75 309 -76 C 304 -77 299 -78 295 -80 L 277 -60 L 338 12 L 416 12 L 371 -44 C 401 -40 427 -45 447 -58 C 467 -70 477 -89 477 -113 C 477 -139 465 -158 441 -171 C 417 -184 389 -191 358 -191 Z" unicode="Ç" />
<glyph horiz-adv-x="541" d="M 73 0 L 73 0 Z M 506 0 L 73 0 L 73 730 L 487 730 L 487 603 L 220 603 L 220 424 L 470 424 L 470 300 L 220 300 L 220 127 L 506 127 L 506 0 Z M 284 785 L 284 785 Z M 415 785 L 278 785 L 152 949 L 315 949 L 415 785 Z" unicode="È" />
<glyph horiz-adv-x="541" d="M 73 0 L 73 0 Z M 506 0 L 73 0 L 73 730 L 487 730 L 487 603 L 220 603 L 220 424 L 470 424 L 470 300 L 220 300 L 220 127 L 506 127 L 506 0 Z M 284 787 L 284 787 Z M 153 787 L 252 951 L 415 951 L 290 787 L 153 787 Z" unicode="É" />
<glyph horiz-adv-x="541" d="M 73 0 L 73 0 Z M 506 0 L 73 0 L 73 730 L 487 730 L 487 603 L 220 603 L 220 424 L 470 424 L 470 300 L 220 300 L 220 127 L 506 127 L 506 0 Z M 284 785 L 284 785 Z M 466 785 L 344 785 L 284 871 L 223 785 L 103 785 L 218 959 L 351 959 L 466 785 Z" unicode="Ê" />
<glyph horiz-adv-x="541" d="M 73 0 L 73 0 Z M 506 0 L 73 0 L 73 730 L 487 730 L 487 603 L 220 603 L 220 424 L 470 424 L 470 300 L 220 300 L 220 127 L 506 127 L 506 0 Z M 284 785 L 284 785 Z M 436 785 L 321 785 L 321 947 L 436 947 L 436 785 Z M 247 785 L 132 785 L 132 947 L 247 947 L 247 785 Z" unicode="Ë" />
<glyph horiz-adv-x="304" d="M 20 0 L 20 0 Z M 227 0 L 77 0 L 77 730 L 227 730 L 227 0 Z M 152 785 L 152 785 Z M 283 785 L 146 785 L 20 949 L 183 949 L 283 785 Z" unicode="Ì" />
<glyph horiz-adv-x="304" d="M 21 0 L 21 0 Z M 227 0 L 77 0 L 77 730 L 227 730 L 227 0 Z M 152 787 L 152 787 Z M 21 787 L 120 951 L 283 951 L 158 787 L 21 787 Z" unicode="Í" />
<glyph horiz-adv-x="304" d="M 0 0 L 0 0 Z M 227 0 L 77 0 L 77 730 L 227 730 L 227 0 Z M 152 785 L 152 785 Z M 334 785 L 212 785 L 152 871 L 91 785 L -29 785 L 86 959 L 219 959 L 334 785 Z" unicode="Î" />
<glyph horiz-adv-x="304" d="M 0 0 L 0 0 Z M 227 0 L 77 0 L 77 730 L 227 730 L 227 0 Z M 152 785 L 152 785 Z M 304 785 L 189 785 L 189 947 L 304 947 L 304 785 Z M 115 785 L 0 785 L 0 947 L 115 947 L 115 785 Z" unicode="Ï" />
<glyph horiz-adv-x="690" d="M 652 365 C 652 314 644 266 629 222 C 613 178 590 139 560 106 C 529 73 491 47 446 28 C 400 9 348 0 288 0 L 72 0 L 72 302 L 26 302 L 26 412 L 72 412 L 72 730 L 303 730 C 359 730 409 721 453 703 C 497 685 533 661 563 629 C 592 597 614 559 629 514 C 644 469 652 419 652 365 Z M 218 118 L 290 118 C 328 118 360 124 387 137 C 413 149 435 167 451 189 C 467 211 479 237 487 267 C 495 297 499 329 499 363 C 499 443 482 505 448 548 C 414 590 365 612 303 612 L 218 612 L 218 412 L 345 412 L 345 302 L 218 302 L 218 118 Z" unicode="Ð" />
<glyph horiz-adv-x="699" d="M 73 0 L 73 0 Z M 626 0 L 523 0 L 213 447 L 213 0 L 73 0 L 73 730 L 183 730 L 489 290 L 489 730 L 626 730 L 626 0 Z M 350 788 L 350 788 Z M 424 941 L 530 941 C 530 889 521 850 505 825 C 489 800 467 788 441 788 C 422 788 406 791 392 797 C 378 803 366 809 356 815 C 347 820 338 825 330 831 C 321 836 313 839 305 839 C 296 839 289 834 284 826 C 279 818 277 806 277 791 L 172 791 C 172 843 182 881 204 907 C 225 932 247 945 271 945 C 289 945 304 941 316 935 C 328 929 340 922 351 916 C 359 910 366 905 374 901 C 381 896 388 894 395 894 C 401 894 408 898 414 906 C 420 914 424 925 424 941 Z" unicode="Ñ" />
<glyph horiz-adv-x="744" d="M 37 0 L 37 0 Z M 375 -10 C 322 -10 274 0 232 17 C 190 35 154 61 126 94 C 97 127 75 167 60 214 C 44 261 37 313 37 370 C 37 424 45 474 62 520 C 78 566 101 605 131 637 C 160 669 195 695 236 713 C 276 731 320 740 368 740 C 418 740 465 731 507 714 C 549 696 584 672 614 640 C 643 608 666 568 682 522 C 698 476 707 424 707 367 C 707 309 698 257 681 211 C 663 164 640 124 610 92 C 580 59 545 34 505 16 C 464 -1 421 -10 375 -10 Z M 375 116 C 428 116 471 136 505 178 C 538 220 555 283 555 369 C 555 447 537 506 503 548 C 468 590 423 611 368 611 C 314 611 271 591 238 551 C 205 511 189 450 189 368 C 189 282 206 219 241 178 C 276 136 321 116 375 116 Z M 370 785 L 370 785 Z M 501 785 L 364 785 L 238 949 L 401 949 L 501 785 Z" unicode="Ò" />
<glyph horiz-adv-x="744" d="M 37 0 L 37 0 Z M 375 -10 C 322 -10 274 0 232 17 C 190 35 154 61 126 94 C 97 127 75 167 60 214 C 44 261 37 313 37 370 C 37 424 45 474 62 520 C 78 566 101 605 131 637 C 160 669 195 695 236 713 C 276 731 320 740 368 740 C 418 740 465 731 507 714 C 549 696 584 672 614 640 C 643 608 666 568 682 522 C 698 476 707 424 707 367 C 707 309 698 257 681 211 C 663 164 640 124 610 92 C 580 59 545 34 505 16 C 464 -1 421 -10 375 -10 Z M 375 116 C 428 116 471 136 505 178 C 538 220 555 283 555 369 C 555 447 537 506 503 548 C 468 590 423 611 368 611 C 314 611 271 591 238 551 C 205 511 189 450 189 368 C 189 282 206 219 241 178 C 276 136 321 116 375 116 Z M 370 787 L 370 787 Z M 239 787 L 338 951 L 501 951 L 376 787 L 239 787 Z" unicode="Ó" />
<glyph horiz-adv-x="744" d="M 37 0 L 37 0 Z M 375 -10 C 322 -10 274 0 232 17 C 190 35 154 61 126 94 C 97 127 75 167 60 214 C 44 261 37 313 37 370 C 37 424 45 474 62 520 C 78 566 101 605 131 637 C 160 669 195 695 236 713 C 276 731 320 740 368 740 C 418 740 465 731 507 714 C 549 696 584 672 614 640 C 643 608 666 568 682 522 C 698 476 707 424 707 367 C 707 309 698 257 681 211 C 663 164 640 124 610 92 C 580 59 545 34 505 16 C 464 -1 421 -10 375 -10 Z M 375 116 C 428 116 471 136 505 178 C 538 220 555 283 555 369 C 555 447 537 506 503 548 C 468 590 423 611 368 611 C 314 611 271 591 238 551 C 205 511 189 450 189 368 C 189 282 206 219 241 178 C 276 136 321 116 375 116 Z M 370 785 L 370 785 Z M 552 785 L 430 785 L 370 871 L 309 785 L 189 785 L 304 959 L 437 959 L 552 785 Z" unicode="Ô" />
<glyph horiz-adv-x="744" d="M 37 0 L 37 0 Z M 375 -10 C 322 -10 274 0 232 17 C 190 35 154 61 126 94 C 97 127 75 167 60 214 C 44 261 37 313 37 370 C 37 424 45 474 62 520 C 78 566 101 605 131 637 C 160 669 195 695 236 713 C 276 731 320 740 368 740 C 418 740 465 731 507 714 C 549 696 584 672 614 640 C 643 608 666 568 682 522 C 698 476 707 424 707 367 C 707 309 698 257 681 211 C 663 164 640 124 610 92 C 580 59 545 34 505 16 C 464 -1 421 -10 375 -10 Z M 375 116 C 428 116 471 136 505 178 C 538 220 555 283 555 369 C 555 447 537 506 503 548 C 468 590 423 611 368 611 C 314 611 271 591 238 551 C 205 511 189 450 189 368 C 189 282 206 219 241 178 C 276 136 321 116 375 116 Z M 370 788 L 370 788 Z M 444 941 L 550 941 C 550 889 541 850 525 825 C 509 800 487 788 461 788 C 442 788 426 791 412 797 C 398 803 386 809 376 815 C 367 820 358 825 350 831 C 341 836 333 839 325 839 C 316 839 309 834 304 826 C 299 818 297 806 297 791 L 192 791 C 192 843 202 881 224 907 C 245 932 267 945 291 945 C 309 945 324 941 336 935 C 348 929 360 922 371 916 C 379 910 386 905 394 901 C 401 896 408 894 415 894 C 421 894 428 898 434 906 C 440 914 444 925 444 941 Z" unicode="Õ" />
<glyph horiz-adv-x="744" d="M 37 0 L 37 0 Z M 375 -10 C 322 -10 274 0 232 17 C 190 35 154 61 126 94 C 97 127 75 167 60 214 C 44 261 37 313 37 370 C 37 424 45 474 62 520 C 78 566 101 605 131 637 C 160 669 195 695 236 713 C 276 731 320 740 368 740 C 418 740 465 731 507 714 C 549 696 584 672 614 640 C 643 608 666 568 682 522 C 698 476 707 424 707 367 C 707 309 698 257 681 211 C 663 164 640 124 610 92 C 580 59 545 34 505 16 C 464 -1 421 -10 375 -10 Z M 375 116 C 428 116 471 136 505 178 C 538 220 555 283 555 369 C 555 447 537 506 503 548 C 468 590 423 611 368 611 C 314 611 271 591 238 551 C 205 511 189 450 189 368 C 189 282 206 219 241 178 C 276 136 321 116 375 116 Z M 370 785 L 370 785 Z M 522 785 L 407 785 L 407 947 L 522 947 L 522 785 Z M 333 785 L 218 785 L 218 947 L 333 947 L 333 785 Z" unicode="Ö" />
<glyph horiz-adv-x="493" d="M 118 126 L 43 202 L 171 330 L 44 456 L 119 533 L 247 406 L 375 533 L 450 456 L 322 330 L 451 202 L 375 123 L 247 255 L 118 126 Z" unicode="×" />
<glyph horiz-adv-x="744" d="M 707 367 C 707 309 698 257 681 211 C 663 164 640 124 610 92 C 580 59 545 34 505 16 C 464 -1 421 -10 375 -10 C 330 -10 289 -3 252 9 C 214 22 182 41 154 66 L 92 -5 L 35 44 L 104 123 C 82 155 65 191 54 233 C 42 275 37 320 37 370 C 37 424 45 474 62 520 C 78 566 101 605 131 637 C 160 669 195 695 236 713 C 276 731 320 740 368 740 C 411 740 451 733 487 721 C 523 709 556 691 585 668 L 658 751 L 714 703 L 636 614 C 658 583 676 547 688 505 C 700 463 707 417 707 367 Z M 189 368 C 189 343 190 320 194 298 C 197 276 202 257 208 240 L 491 562 C 475 578 457 590 436 598 C 415 606 392 611 368 611 C 314 611 271 591 238 551 C 205 511 189 450 189 368 Z M 555 369 C 555 393 553 416 549 438 C 545 460 539 479 533 497 L 247 171 C 263 152 282 138 304 129 C 326 120 349 116 375 116 C 428 116 471 136 505 178 C 538 220 555 283 555 369 Z" unicode="Ø" />
<glyph horiz-adv-x="689" d="M 68 0 L 68 0 Z M 621 730 L 621 253 C 621 210 613 172 598 139 C 582 106 562 79 537 57 C 511 35 482 18 448 7 C 414 -4 378 -10 341 -10 C 304 -10 269 -4 236 6 C 203 17 174 33 149 55 C 124 77 104 104 90 137 C 75 170 68 209 68 253 L 68 730 L 215 730 L 215 250 C 215 208 227 176 251 154 C 275 131 306 120 342 120 C 378 120 408 131 434 153 C 459 175 472 207 472 250 L 472 730 L 621 730 Z M 343 785 L 343 785 Z M 474 785 L 337 785 L 211 949 L 374 949 L 474 785 Z" unicode="Ù" />
<glyph horiz-adv-x="689" d="M 68 0 L 68 0 Z M 621 730 L 621 253 C 621 210 613 172 598 139 C 582 106 562 79 537 57 C 511 35 482 18 448 7 C 414 -4 378 -10 341 -10 C 304 -10 269 -4 236 6 C 203 17 174 33 149 55 C 124 77 104 104 90 137 C 75 170 68 209 68 253 L 68 730 L 215 730 L 215 250 C 215 208 227 176 251 154 C 275 131 306 120 342 120 C 378 120 408 131 434 153 C 459 175 472 207 472 250 L 472 730 L 621 730 Z M 343 787 L 343 787 Z M 212 787 L 311 951 L 474 951 L 349 787 L 212 787 Z" unicode="Ú" />
<glyph horiz-adv-x="689" d="M 68 0 L 68 0 Z M 621 730 L 621 253 C 621 210 613 172 598 139 C 582 106 562 79 537 57 C 511 35 482 18 448 7 C 414 -4 378 -10 341 -10 C 304 -10 269 -4 236 6 C 203 17 174 33 149 55 C 124 77 104 104 90 137 C 75 170 68 209 68 253 L 68 730 L 215 730 L 215 250 C 215 208 227 176 251 154 C 275 131 306 120 342 120 C 378 120 408 131 434 153 C 459 175 472 207 472 250 L 472 730 L 621 730 Z M 343 785 L 343 785 Z M 525 785 L 403 785 L 343 871 L 282 785 L 162 785 L 277 959 L 410 959 L 525 785 Z" unicode="Û" />
<glyph horiz-adv-x="689" d="M 68 0 L 68 0 Z M 621 730 L 621 253 C 621 210 613 172 598 139 C 582 106 562 79 537 57 C 511 35 482 18 448 7 C 414 -4 378 -10 341 -10 C 304 -10 269 -4 236 6 C 203 17 174 33 149 55 C 124 77 104 104 90 137 C 75 170 68 209 68 253 L 68 730 L 215 730 L 215 250 C 215 208 227 176 251 154 C 275 131 306 120 342 120 C 378 120 408 131 434 153 C 459 175 472 207 472 250 L 472 730 L 621 730 Z M 343 785 L 343 785 Z M 495 785 L 380 785 L 380 947 L 495 947 L 495 785 Z M 306 785 L 191 785 L 191 947 L 306 947 L 306 785 Z" unicode="Ü" />
<glyph horiz-adv-x="616" d="M 0 0 L 0 0 Z M 622 730 L 380 305 L 380 0 L 230 0 L 230 310 L -6 730 L 157 730 L 312 447 L 470 730 L 622 730 Z M 312 787 L 312 787 Z M 181 787 L 280 951 L 443 951 L 318 787 L 181 787 Z" unicode="Ý" />
<glyph horiz-adv-x="575" d="M 73 0 L 73 730 L 223 730 L 223 611 L 327 611 C 395 611 451 590 493 548 C 535 506 556 451 556 382 C 556 310 534 253 490 210 C 446 166 390 145 321 145 L 223 145 L 223 0 L 73 0 Z M 220 263 L 309 263 C 339 263 364 273 382 294 C 400 315 409 344 409 382 C 409 418 398 445 378 463 C 358 481 333 491 304 491 L 220 491 L 220 263 Z" unicode="Þ" />
<glyph horiz-adv-x="662" d="M 462 -10 C 417 -10 377 -3 341 8 C 305 20 276 37 254 58 L 312 149 C 332 134 356 122 382 114 C 408 105 431 101 452 101 C 470 101 485 105 495 113 C 505 121 511 132 511 146 C 511 160 503 172 488 182 C 473 192 449 202 417 214 C 365 230 327 250 303 274 C 279 298 268 331 268 374 C 268 408 277 436 297 458 C 316 480 337 494 360 502 C 364 504 369 509 375 517 C 381 525 384 540 385 563 C 386 598 378 624 361 642 C 343 660 321 669 295 669 C 269 669 247 661 231 645 C 215 629 207 604 207 568 L 207 0 L 67 0 L 67 585 C 67 617 72 646 83 671 C 94 695 109 716 129 732 C 149 748 172 761 199 769 C 226 777 255 782 287 782 C 319 782 348 777 376 768 C 404 759 428 746 449 730 C 469 713 485 692 497 668 C 509 644 515 616 515 586 C 515 542 507 507 492 483 C 477 458 462 442 446 435 C 430 430 416 424 403 417 C 390 409 382 399 380 387 C 380 372 389 359 409 348 C 429 337 457 325 495 312 C 542 295 578 274 604 250 C 629 226 642 192 642 149 C 642 123 637 100 627 80 C 617 60 603 43 587 30 C 571 16 552 6 530 0 C 508 -6 485 -10 462 -10 Z" unicode="ß" />
<glyph horiz-adv-x="506" d="M 21 0 L 21 0 Z M 457 0 L 329 0 L 329 53 C 313 33 293 18 269 8 C 245 -2 215 -8 179 -8 C 127 -8 88 6 61 35 C 34 64 21 101 21 146 C 21 202 41 244 81 272 C 121 300 177 316 247 319 L 324 323 L 324 336 C 324 356 317 373 304 385 C 291 397 270 403 242 403 C 214 403 187 398 163 389 C 138 379 117 369 99 359 L 53 448 C 74 464 102 479 138 491 C 173 503 215 510 265 510 C 322 510 368 496 404 469 C 439 441 457 398 457 340 L 457 0 Z M 327 139 L 327 233 L 255 230 C 225 229 202 222 184 210 C 166 198 158 180 158 156 C 158 136 164 120 177 110 C 190 100 206 95 226 95 C 248 95 268 99 286 108 C 303 117 317 127 327 139 Z M 249 553 L 249 553 Z M 380 553 L 243 553 L 117 717 L 280 717 L 380 553 Z" unicode="à" />
<glyph horiz-adv-x="506" d="M 21 0 L 21 0 Z M 457 0 L 329 0 L 329 53 C 313 33 293 18 269 8 C 245 -2 215 -8 179 -8 C 127 -8 88 6 61 35 C 34 64 21 101 21 146 C 21 202 41 244 81 272 C 121 300 177 316 247 319 L 324 323 L 324 336 C 324 356 317 373 304 385 C 291 397 270 403 242 403 C 214 403 187 398 163 389 C 138 379 117 369 99 359 L 53 448 C 74 464 102 479 138 491 C 173 503 215 510 265 510 C 322 510 368 496 404 469 C 439 441 457 398 457 340 L 457 0 Z M 327 139 L 327 233 L 255 230 C 225 229 202 222 184 210 C 166 198 158 180 158 156 C 158 136 164 120 177 110 C 190 100 206 95 226 95 C 248 95 268 99 286 108 C 303 117 317 127 327 139 Z M 249 555 L 249 555 Z M 118 555 L 217 719 L 380 719 L 255 555 L 118 555 Z" unicode="á" />
<glyph horiz-adv-x="506" d="M 21 0 L 21 0 Z M 457 0 L 329 0 L 329 53 C 313 33 293 18 269 8 C 245 -2 215 -8 179 -8 C 127 -8 88 6 61 35 C 34 64 21 101 21 146 C 21 202 41 244 81 272 C 121 300 177 316 247 319 L 324 323 L 324 336 C 324 356 317 373 304 385 C 291 397 270 403 242 403 C 214 403 187 398 163 389 C 138 379 117 369 99 359 L 53 448 C 74 464 102 479 138 491 C 173 503 215 510 265 510 C 322 510 368 496 404 469 C 439 441 457 398 457 340 L 457 0 Z M 327 139 L 327 233 L 255 230 C 225 229 202 222 184 210 C 166 198 158 180 158 156 C 158 136 164 120 177 110 C 190 100 206 95 226 95 C 248 95 268 99 286 108 C 303 117 317 127 327 139 Z M 249 553 L 249 553 Z M 431 553 L 309 553 L 249 639 L 188 553 L 68 553 L 183 727 L 316 727 L 431 553 Z" unicode="â" />
<glyph horiz-adv-x="506" d="M 21 0 L 21 0 Z M 457 0 L 329 0 L 329 53 C 313 33 293 18 269 8 C 245 -2 215 -8 179 -8 C 127 -8 88 6 61 35 C 34 64 21 101 21 146 C 21 202 41 244 81 272 C 121 300 177 316 247 319 L 324 323 L 324 336 C 324 356 317 373 304 385 C 291 397 270 403 242 403 C 214 403 187 398 163 389 C 138 379 117 369 99 359 L 53 448 C 74 464 102 479 138 491 C 173 503 215 510 265 510 C 322 510 368 496 404 469 C 439 441 457 398 457 340 L 457 0 Z M 327 139 L 327 233 L 255 230 C 225 229 202 222 184 210 C 166 198 158 180 158 156 C 158 136 164 120 177 110 C 190 100 206 95 226 95 C 248 95 268 99 286 108 C 303 117 317 127 327 139 Z M 249 556 L 249 556 Z M 323 709 L 429 709 C 429 657 420 618 404 593 C 388 568 366 556 340 556 C 321 556 305 559 291 565 C 277 571 265 577 255 583 C 246 588 237 593 229 599 C 220 604 212 607 204 607 C 195 607 188 602 183 594 C 178 586 176 574 176 559 L 71 559 C 71 611 81 649 103 675 C 124 700 146 713 170 713 C 188 713 203 709 215 703 C 227 697 239 690 250 684 C 258 678 265 673 273 669 C 280 664 287 662 294 662 C 300 662 307 666 313 674 C 319 682 323 693 323 709 Z" unicode="ã" />
<glyph horiz-adv-x="506" d="M 21 0 L 21 0 Z M 457 0 L 329 0 L 329 53 C 313 33 293 18 269 8 C 245 -2 215 -8 179 -8 C 127 -8 88 6 61 35 C 34 64 21 101 21 146 C 21 202 41 244 81 272 C 121 300 177 316 247 319 L 324 323 L 324 336 C 324 356 317 373 304 385 C 291 397 270 403 242 403 C 214 403 187 398 163 389 C 138 379 117 369 99 359 L 53 448 C 74 464 102 479 138 491 C 173 503 215 510 265 510 C 322 510 368 496 404 469 C 439 441 457 398 457 340 L 457 0 Z M 327 139 L 327 233 L 255 230 C 225 229 202 222 184 210 C 166 198 158 180 158 156 C 158 136 164 120 177 110 C 190 100 206 95 226 95 C 248 95 268 99 286 108 C 303 117 317 127 327 139 Z M 249 553 L 249 553 Z M 401 553 L 286 553 L 286 715 L 401 715 L 401 553 Z M 212 553 L 97 553 L 97 715 L 212 715 L 212 553 Z" unicode="ä" />
<glyph horiz-adv-x="506" d="M 21 0 L 21 0 Z M 457 0 L 329 0 L 329 53 C 313 33 293 18 269 8 C 245 -2 215 -8 179 -8 C 127 -8 88 6 61 35 C 34 64 21 101 21 146 C 21 202 41 244 81 272 C 121 300 177 316 247 319 L 324 323 L 324 336 C 324 356 317 373 304 385 C 291 397 270 403 242 403 C 214 403 187 398 163 389 C 138 379 117 369 99 359 L 53 448 C 74 464 102 479 138 491 C 173 503 215 510 265 510 C 322 510 368 496 404 469 C 439 441 457 398 457 340 L 457 0 Z M 327 139 L 327 233 L 255 230 C 225 229 202 222 184 210 C 166 198 158 180 158 156 C 158 136 164 120 177 110 C 190 100 206 95 226 95 C 248 95 268 99 286 108 C 303 117 317 127 327 139 Z M 249 547 L 249 547 Z M 249 547 C 215 547 186 559 162 583 C 138 607 127 636 127 670 C 127 703 138 732 162 756 C 186 780 215 792 249 792 C 283 792 312 780 336 756 C 360 732 373 703 373 670 C 373 636 360 607 336 583 C 312 559 283 547 249 547 Z M 250 620 C 263 620 274 624 284 634 C 293 643 298 655 298 669 C 298 683 293 694 284 704 C 274 714 263 719 250 719 C 236 719 225 714 215 704 C 205 694 201 683 201 669 C 201 655 205 643 215 634 C 225 624 236 620 250 620 Z" unicode="å" />
<glyph horiz-adv-x="813" d="M 565 -9 C 517 -9 477 0 445 18 C 413 36 391 58 379 82 C 363 57 337 36 303 18 C 269 0 230 -8 186 -8 C 136 -8 96 6 67 35 C 38 63 24 100 24 146 C 24 201 44 243 84 271 C 124 299 180 315 251 319 L 330 323 L 330 334 C 330 356 322 373 307 385 C 292 397 271 403 244 403 C 216 403 189 398 164 388 C 139 378 118 368 101 357 L 55 447 C 77 463 105 478 139 490 C 172 502 209 509 251 509 C 289 509 322 502 349 490 C 375 477 394 461 405 442 C 417 458 437 473 464 487 C 491 500 524 507 563 507 C 634 507 690 481 730 429 C 770 377 791 304 791 211 L 457 211 C 457 179 468 152 488 131 C 508 110 537 100 575 100 C 607 100 633 105 652 116 C 671 127 687 139 700 153 L 769 76 C 748 52 722 32 691 16 C 659 0 617 -9 565 -9 Z M 458 300 L 656 300 C 655 328 646 352 628 372 C 610 392 587 402 558 402 C 528 402 505 392 488 373 C 470 353 460 329 458 300 Z M 230 95 C 255 95 277 101 295 115 C 313 128 325 143 333 160 L 333 233 L 258 230 C 229 228 206 222 188 211 C 170 200 162 182 162 158 C 162 136 168 120 182 110 C 195 100 211 95 230 95 Z" unicode="æ" />
<glyph horiz-adv-x="484" d="M 27 0 L 27 0 Z M 381 165 L 473 97 C 455 69 431 44 399 23 C 367 1 324 -9 268 -9 C 196 -9 137 14 93 62 C 49 109 27 171 27 249 C 27 286 33 320 45 352 C 57 384 73 411 95 434 C 117 457 143 475 173 488 C 203 501 237 508 273 508 C 327 508 371 496 404 472 C 436 448 459 422 473 394 L 371 331 C 362 349 350 363 335 375 C 320 386 301 392 277 392 C 245 392 219 379 200 353 C 181 327 172 293 172 251 C 172 201 182 164 203 140 C 223 116 250 105 283 105 C 309 105 329 111 345 124 C 360 136 372 150 381 165 Z M 260 -2 L 260 -2 Z M 267 -191 C 241 -191 216 -188 191 -182 C 166 -176 147 -168 133 -159 L 152 -103 C 160 -107 170 -111 184 -116 C 198 -120 212 -123 228 -123 C 237 -123 245 -120 253 -116 C 261 -112 265 -106 265 -99 C 265 -90 261 -84 255 -80 C 248 -76 241 -75 233 -75 C 227 -75 222 -75 218 -76 C 213 -77 208 -78 204 -80 L 186 -60 L 247 12 L 325 12 L 280 -44 C 310 -40 336 -45 356 -58 C 376 -70 386 -89 386 -113 C 386 -139 374 -158 350 -171 C 326 -184 298 -191 267 -191 Z" unicode="ç" />
<glyph horiz-adv-x="523" d="M 28 0 L 28 0 Z M 273 -9 C 237 -9 204 -3 174 8 C 144 19 118 35 96 57 C 74 79 58 105 46 137 C 34 169 28 205 28 245 C 28 283 34 319 46 351 C 58 383 74 411 96 435 C 117 458 142 476 172 489 C 202 501 234 508 269 508 C 341 508 398 482 439 430 C 480 378 501 305 501 210 L 164 210 C 164 179 175 153 195 132 C 215 110 245 100 283 100 C 315 100 341 105 361 116 C 381 127 397 139 410 153 L 479 76 C 458 53 432 33 401 16 C 369 0 327 -9 273 -9 Z M 164 301 L 366 301 C 364 331 355 355 337 374 C 319 392 296 402 268 402 C 238 402 214 392 196 373 C 177 353 166 329 164 301 Z M 266 553 L 266 553 Z M 397 553 L 260 553 L 134 717 L 297 717 L 397 553 Z" unicode="è" />
<glyph horiz-adv-x="523" d="M 28 0 L 28 0 Z M 273 -9 C 237 -9 204 -3 174 8 C 144 19 118 35 96 57 C 74 79 58 105 46 137 C 34 169 28 205 28 245 C 28 283 34 319 46 351 C 58 383 74 411 96 435 C 117 458 142 476 172 489 C 202 501 234 508 269 508 C 341 508 398 482 439 430 C 480 378 501 305 501 210 L 164 210 C 164 179 175 153 195 132 C 215 110 245 100 283 100 C 315 100 341 105 361 116 C 381 127 397 139 410 153 L 479 76 C 458 53 432 33 401 16 C 369 0 327 -9 273 -9 Z M 164 301 L 366 301 C 364 331 355 355 337 374 C 319 392 296 402 268 402 C 238 402 214 392 196 373 C 177 353 166 329 164 301 Z M 266 555 L 266 555 Z M 135 555 L 234 719 L 397 719 L 272 555 L 135 555 Z" unicode="é" />
<glyph horiz-adv-x="523" d="M 28 0 L 28 0 Z M 273 -9 C 237 -9 204 -3 174 8 C 144 19 118 35 96 57 C 74 79 58 105 46 137 C 34 169 28 205 28 245 C 28 283 34 319 46 351 C 58 383 74 411 96 435 C 117 458 142 476 172 489 C 202 501 234 508 269 508 C 341 508 398 482 439 430 C 480 378 501 305 501 210 L 164 210 C 164 179 175 153 195 132 C 215 110 245 100 283 100 C 315 100 341 105 361 116 C 381 127 397 139 410 153 L 479 76 C 458 53 432 33 401 16 C 369 0 327 -9 273 -9 Z M 164 301 L 366 301 C 364 331 355 355 337 374 C 319 392 296 402 268 402 C 238 402 214 392 196 373 C 177 353 166 329 164 301 Z M 266 553 L 266 553 Z M 448 553 L 326 553 L 266 639 L 205 553 L 85 553 L 200 727 L 333 727 L 448 553 Z" unicode="ê" />
<glyph horiz-adv-x="523" d="M 28 0 L 28 0 Z M 273 -9 C 237 -9 204 -3 174 8 C 144 19 118 35 96 57 C 74 79 58 105 46 137 C 34 169 28 205 28 245 C 28 283 34 319 46 351 C 58 383 74 411 96 435 C 117 458 142 476 172 489 C 202 501 234 508 269 508 C 341 508 398 482 439 430 C 480 378 501 305 501 210 L 164 210 C 164 179 175 153 195 132 C 215 110 245 100 283 100 C 315 100 341 105 361 116 C 381 127 397 139 410 153 L 479 76 C 458 53 432 33 401 16 C 369 0 327 -9 273 -9 Z M 164 301 L 366 301 C 364 331 355 355 337 374 C 319 392 296 402 268 402 C 238 402 214 392 196 373 C 177 353 166 329 164 301 Z M 266 553 L 266 553 Z M 418 553 L 303 553 L 303 715 L 418 715 L 418 553 Z M 229 553 L 114 553 L 114 715 L 229 715 L 229 553 Z" unicode="ë" />
<glyph horiz-adv-x="255" d="M 0 0 L 0 0 Z M 197 0 L 58 0 L 58 498 L 197 498 L 197 0 Z M 127 553 L 127 553 Z M 258 553 L 121 553 L -5 717 L 158 717 L 258 553 Z" unicode="ì" />
<glyph horiz-adv-x="255" d="M 0 0 L 0 0 Z M 197 0 L 58 0 L 58 498 L 197 498 L 197 0 Z M 127 555 L 127 555 Z M -4 555 L 95 719 L 258 719 L 133 555 L -4 555 Z" unicode="í" />
<glyph horiz-adv-x="255" d="M 0 0 L 0 0 Z M 197 0 L 58 0 L 58 498 L 197 498 L 197 0 Z M 127 553 L 127 553 Z M 309 553 L 187 553 L 127 639 L 66 553 L -54 553 L 61 727 L 194 727 L 309 553 Z" unicode="î" />
<glyph horiz-adv-x="255" d="M 0 0 L 0 0 Z M 197 0 L 58 0 L 58 498 L 197 498 L 197 0 Z M 127 553 L 127 553 Z M 279 553 L 164 553 L 164 715 L 279 715 L 279 553 Z M 90 553 L -25 553 L -25 715 L 90 715 L 90 553 Z" unicode="ï" />
<glyph horiz-adv-x="557" d="M 522 287 C 522 245 516 207 506 171 C 495 135 479 103 459 77 C 438 50 412 29 381 13 C 350 -2 314 -10 273 -10 C 237 -10 205 -4 175 7 C 145 18 119 34 97 56 C 75 78 58 104 46 136 C 34 167 28 202 28 242 C 28 280 34 314 47 346 C 60 377 77 403 99 425 C 120 447 144 463 171 475 C 198 487 226 493 254 493 C 282 493 308 487 332 477 C 355 466 373 453 386 438 C 382 468 374 498 362 526 C 350 554 337 581 323 606 L 206 569 L 181 642 L 276 672 C 263 686 250 700 238 712 C 226 724 215 733 206 741 L 323 783 C 333 775 344 764 356 752 C 368 739 380 724 393 708 L 466 731 L 490 658 L 435 641 C 458 598 478 547 496 488 C 513 428 522 361 522 287 Z M 274 100 C 310 100 337 112 355 137 C 373 161 383 198 383 246 C 383 296 373 332 355 355 C 337 377 311 389 277 389 C 243 389 217 376 198 351 C 179 325 170 290 170 245 C 170 197 179 161 199 137 C 218 112 243 100 274 100 Z" unicode="ð" />
<glyph horiz-adv-x="545" d="M 54 0 L 54 0 Z M 495 0 L 356 0 L 356 327 C 356 347 349 363 336 375 C 322 387 305 393 283 393 C 259 393 238 386 220 372 C 202 358 193 336 193 308 L 193 0 L 54 0 L 54 498 L 181 498 L 181 422 C 191 446 210 467 237 483 C 264 499 296 508 334 508 C 380 508 419 495 449 469 C 479 443 495 408 495 364 L 495 0 Z M 282 556 L 282 556 Z M 356 709 L 462 709 C 462 657 453 618 437 593 C 421 568 399 556 373 556 C 354 556 338 559 324 565 C 310 571 298 577 288 583 C 279 588 270 593 262 599 C 253 604 245 607 237 607 C 228 607 221 602 216 594 C 211 586 209 574 209 559 L 104 559 C 104 611 114 649 136 675 C 157 700 179 713 203 713 C 221 713 236 709 248 703 C 260 697 272 690 283 684 C 291 678 298 673 306 669 C 313 664 320 662 327 662 C 333 662 340 666 346 674 C 352 682 356 693 356 709 Z" unicode="ñ" />
<glyph horiz-adv-x="550" d="M 27 0 L 27 0 Z M 272 -9 C 240 -9 210 -3 180 7 C 150 18 124 34 102 56 C 79 77 61 104 47 136 C 33 168 27 206 27 248 C 27 286 33 321 46 353 C 59 385 77 412 99 435 C 121 458 146 476 176 489 C 206 501 237 508 270 508 C 305 508 338 502 369 491 C 399 480 426 464 449 443 C 471 422 489 396 503 366 C 516 335 523 300 523 262 C 523 220 516 183 503 150 C 490 116 472 88 450 64 C 427 40 400 22 370 10 C 339 -2 306 -9 272 -9 Z M 275 102 C 307 102 333 114 351 140 C 369 165 379 203 379 255 C 379 302 369 337 350 360 C 331 383 305 395 271 395 C 240 395 216 383 198 359 C 180 335 172 298 172 249 C 172 196 181 158 200 136 C 219 113 244 102 275 102 Z M 273 553 L 273 553 Z M 404 553 L 267 553 L 141 717 L 304 717 L 404 553 Z" unicode="ò" />
<glyph horiz-adv-x="550" d="M 27 0 L 27 0 Z M 272 -9 C 240 -9 210 -3 180 7 C 150 18 124 34 102 56 C 79 77 61 104 47 136 C 33 168 27 206 27 248 C 27 286 33 321 46 353 C 59 385 77 412 99 435 C 121 458 146 476 176 489 C 206 501 237 508 270 508 C 305 508 338 502 369 491 C 399 480 426 464 449 443 C 471 422 489 396 503 366 C 516 335 523 300 523 262 C 523 220 516 183 503 150 C 490 116 472 88 450 64 C 427 40 400 22 370 10 C 339 -2 306 -9 272 -9 Z M 275 102 C 307 102 333 114 351 140 C 369 165 379 203 379 255 C 379 302 369 337 350 360 C 331 383 305 395 271 395 C 240 395 216 383 198 359 C 180 335 172 298 172 249 C 172 196 181 158 200 136 C 219 113 244 102 275 102 Z M 273 555 L 273 555 Z M 142 555 L 241 719 L 404 719 L 279 555 L 142 555 Z" unicode="ó" />
<glyph horiz-adv-x="550" d="M 27 0 L 27 0 Z M 272 -9 C 240 -9 210 -3 180 7 C 150 18 124 34 102 56 C 79 77 61 104 47 136 C 33 168 27 206 27 248 C 27 286 33 321 46 353 C 59 385 77 412 99 435 C 121 458 146 476 176 489 C 206 501 237 508 270 508 C 305 508 338 502 369 491 C 399 480 426 464 449 443 C 471 422 489 396 503 366 C 516 335 523 300 523 262 C 523 220 516 183 503 150 C 490 116 472 88 450 64 C 427 40 400 22 370 10 C 339 -2 306 -9 272 -9 Z M 275 102 C 307 102 333 114 351 140 C 369 165 379 203 379 255 C 379 302 369 337 350 360 C 331 383 305 395 271 395 C 240 395 216 383 198 359 C 180 335 172 298 172 249 C 172 196 181 158 200 136 C 219 113 244 102 275 102 Z M 273 553 L 273 553 Z M 455 553 L 333 553 L 273 639 L 212 553 L 92 553 L 207 727 L 340 727 L 455 553 Z" unicode="ô" />
<glyph horiz-adv-x="550" d="M 27 0 L 27 0 Z M 272 -9 C 240 -9 210 -3 180 7 C 150 18 124 34 102 56 C 79 77 61 104 47 136 C 33 168 27 206 27 248 C 27 286 33 321 46 353 C 59 385 77 412 99 435 C 121 458 146 476 176 489 C 206 501 237 508 270 508 C 305 508 338 502 369 491 C 399 480 426 464 449 443 C 471 422 489 396 503 366 C 516 335 523 300 523 262 C 523 220 516 183 503 150 C 490 116 472 88 450 64 C 427 40 400 22 370 10 C 339 -2 306 -9 272 -9 Z M 275 102 C 307 102 333 114 351 140 C 369 165 379 203 379 255 C 379 302 369 337 350 360 C 331 383 305 395 271 395 C 240 395 216 383 198 359 C 180 335 172 298 172 249 C 172 196 181 158 200 136 C 219 113 244 102 275 102 Z M 273 556 L 273 556 Z M 347 709 L 453 709 C 453 657 444 618 428 593 C 412 568 390 556 364 556 C 345 556 329 559 315 565 C 301 571 289 577 279 583 C 270 588 261 593 253 599 C 244 604 236 607 228 607 C 219 607 212 602 207 594 C 202 586 200 574 200 559 L 95 559 C 95 611 105 649 127 675 C 148 700 170 713 194 713 C 212 713 227 709 239 703 C 251 697 263 690 274 684 C 282 678 289 673 297 669 C 304 664 311 662 318 662 C 324 662 331 666 337 674 C 343 682 347 693 347 709 Z" unicode="õ" />
<glyph horiz-adv-x="550" d="M 27 0 L 27 0 Z M 272 -9 C 240 -9 210 -3 180 7 C 150 18 124 34 102 56 C 79 77 61 104 47 136 C 33 168 27 206 27 248 C 27 286 33 321 46 353 C 59 385 77 412 99 435 C 121 458 146 476 176 489 C 206 501 237 508 270 508 C 305 508 338 502 369 491 C 399 480 426 464 449 443 C 471 422 489 396 503 366 C 516 335 523 300 523 262 C 523 220 516 183 503 150 C 490 116 472 88 450 64 C 427 40 400 22 370 10 C 339 -2 306 -9 272 -9 Z M 275 102 C 307 102 333 114 351 140 C 369 165 379 203 379 255 C 379 302 369 337 350 360 C 331 383 305 395 271 395 C 240 395 216 383 198 359 C 180 335 172 298 172 249 C 172 196 181 158 200 136 C 219 113 244 102 275 102 Z M 273 553 L 273 553 Z M 425 553 L 310 553 L 310 715 L 425 715 L 425 553 Z M 236 553 L 121 553 L 121 715 L 236 715 L 236 553 Z" unicode="ö" />
<glyph horiz-adv-x="492" d="M 182 449 L 182 579 L 311 579 L 311 449 L 182 449 Z M 21 271 L 21 389 L 472 389 L 472 271 L 21 271 Z M 182 81 L 182 211 L 311 211 L 311 81 L 182 81 Z" unicode="÷" />
<glyph horiz-adv-x="550" d="M 272 -9 C 245 -9 219 -5 193 3 C 167 11 143 23 123 39 L 76 -13 L 30 29 L 78 82 C 62 102 50 127 41 155 C 31 183 27 214 27 248 C 27 286 33 321 46 353 C 59 385 77 412 99 435 C 121 458 146 476 176 489 C 206 501 237 508 270 508 C 298 508 326 504 352 497 C 378 489 402 478 423 464 L 472 518 L 517 477 L 469 423 C 485 403 498 379 508 352 C 518 324 523 294 523 262 C 523 220 516 183 503 150 C 490 116 472 88 450 64 C 427 40 400 22 370 10 C 339 -2 306 -9 272 -9 Z M 172 249 C 172 238 172 228 173 218 C 174 208 175 200 177 192 L 340 372 C 331 379 321 385 309 389 C 297 393 285 395 271 395 C 240 395 216 383 198 359 C 180 335 172 298 172 249 Z M 379 255 C 379 266 378 277 377 287 C 376 297 374 307 372 316 L 205 130 C 213 120 224 113 236 109 C 248 104 261 102 275 102 C 307 102 333 114 351 140 C 369 165 379 203 379 255 Z" unicode="ø" />
<glyph horiz-adv-x="545" d="M 50 0 L 50 0 Z M 50 498 L 188 498 L 188 176 C 188 150 195 131 210 119 C 224 107 243 101 267 101 C 291 101 312 108 328 123 C 344 137 352 159 352 188 L 352 498 L 490 498 L 490 0 L 361 0 L 361 73 C 350 49 331 30 304 14 C 277 -1 246 -9 210 -9 C 166 -9 128 3 97 29 C 65 55 50 93 50 143 L 50 498 Z M 271 553 L 271 553 Z M 402 553 L 265 553 L 139 717 L 302 717 L 402 553 Z" unicode="ù" />
<glyph horiz-adv-x="545" d="M 50 0 L 50 0 Z M 50 498 L 188 498 L 188 176 C 188 150 195 131 210 119 C 224 107 243 101 267 101 C 291 101 312 108 328 123 C 344 137 352 159 352 188 L 352 498 L 490 498 L 490 0 L 361 0 L 361 73 C 350 49 331 30 304 14 C 277 -1 246 -9 210 -9 C 166 -9 128 3 97 29 C 65 55 50 93 50 143 L 50 498 Z M 271 555 L 271 555 Z M 140 555 L 239 719 L 402 719 L 277 555 L 140 555 Z" unicode="ú" />
<glyph horiz-adv-x="545" d="M 50 0 L 50 0 Z M 50 498 L 188 498 L 188 176 C 188 150 195 131 210 119 C 224 107 243 101 267 101 C 291 101 312 108 328 123 C 344 137 352 159 352 188 L 352 498 L 490 498 L 490 0 L 361 0 L 361 73 C 350 49 331 30 304 14 C 277 -1 246 -9 210 -9 C 166 -9 128 3 97 29 C 65 55 50 93 50 143 L 50 498 Z M 271 553 L 271 553 Z M 453 553 L 331 553 L 271 639 L 210 553 L 90 553 L 205 727 L 338 727 L 453 553 Z" unicode="û" />
<glyph horiz-adv-x="545" d="M 50 0 L 50 0 Z M 50 498 L 188 498 L 188 176 C 188 150 195 131 210 119 C 224 107 243 101 267 101 C 291 101 312 108 328 123 C 344 137 352 159 352 188 L 352 498 L 490 498 L 490 0 L 361 0 L 361 73 C 350 49 331 30 304 14 C 277 -1 246 -9 210 -9 C 166 -9 128 3 97 29 C 65 55 50 93 50 143 L 50 498 Z M 271 553 L 271 553 Z M 423 553 L 308 553 L 308 715 L 423 715 L 423 553 Z M 234 553 L 119 553 L 119 715 L 234 715 L 234 553 Z" unicode="ü" />
<glyph horiz-adv-x="493" d="M 0 0 L 0 0 Z M 499 498 L 256 -83 C 236 -127 210 -157 177 -174 C 143 -191 110 -200 78 -200 C 58 -200 42 -197 28 -193 C 14 -189 4 -185 -2 -183 L 36 -74 C 38 -76 44 -78 53 -81 C 61 -83 70 -85 79 -85 C 94 -85 107 -80 118 -70 C 128 -60 138 -45 148 -25 L 180 49 L -6 498 L 141 498 L 251 207 L 363 498 L 499 498 Z M 250 555 L 250 555 Z M 119 555 L 218 719 L 381 719 L 256 555 L 119 555 Z" unicode="ý" />
<glyph horiz-adv-x="558" d="M 54 -199 L 54 773 L 187 773 L 187 422 C 194 442 211 462 237 480 C 263 498 295 507 335 507 C 393 507 440 484 476 440 C 512 396 530 337 530 264 C 530 221 524 183 514 150 C 503 116 488 88 470 66 C 452 43 430 26 406 14 C 381 2 355 -4 327 -4 C 294 -4 265 2 241 15 C 216 28 199 44 189 63 L 189 -199 L 54 -199 Z M 287 100 C 315 100 339 112 358 136 C 376 160 386 198 386 248 C 386 294 377 330 361 356 C 345 382 320 396 287 396 C 257 396 232 384 213 362 C 194 339 185 300 185 244 C 185 188 194 150 214 130 C 233 110 257 100 287 100 Z" unicode="þ" />
<glyph horiz-adv-x="493" d="M 0 0 L 0 0 Z M 499 498 L 256 -83 C 236 -127 210 -157 177 -174 C 143 -191 110 -200 78 -200 C 58 -200 42 -197 28 -193 C 14 -189 4 -185 -2 -183 L 36 -74 C 38 -76 44 -78 53 -81 C 61 -83 70 -85 79 -85 C 94 -85 107 -80 118 -70 C 128 -60 138 -45 148 -25 L 180 49 L -6 498 L 141 498 L 251 207 L 363 498 L 499 498 Z M 250 553 L 250 553 Z M 402 553 L 287 553 L 287 715 L 402 715 L 402 553 Z M 213 553 L 98 553 L 98 715 L 213 715 L 213 553 Z" unicode="ÿ" />
<glyph horiz-adv-x="619" d="M 0 0 L 0 0 Z M 622 0 L 468 0 L 419 140 L 190 140 L 143 0 L -3 0 L 264 733 L 361 733 L 622 0 Z M 390 252 L 304 498 L 220 252 L 390 252 Z M 308 795 L 308 795 Z M 448 795 L 168 795 L 168 900 L 448 900 L 448 795 Z" unicode="Ā" />
<glyph horiz-adv-x="506" d="M 21 0 L 21 0 Z M 457 0 L 329 0 L 329 53 C 313 33 293 18 269 8 C 245 -2 215 -8 179 -8 C 127 -8 88 6 61 35 C 34 64 21 101 21 146 C 21 202 41 244 81 272 C 121 300 177 316 247 319 L 324 323 L 324 336 C 324 356 317 373 304 385 C 291 397 270 403 242 403 C 214 403 187 398 163 389 C 138 379 117 369 99 359 L 53 448 C 74 464 102 479 138 491 C 173 503 215 510 265 510 C 322 510 368 496 404 469 C 439 441 457 398 457 340 L 457 0 Z M 327 139 L 327 233 L 255 230 C 225 229 202 222 184 210 C 166 198 158 180 158 156 C 158 136 164 120 177 110 C 190 100 206 95 226 95 C 248 95 268 99 286 108 C 303 117 317 127 327 139 Z M 249 563 L 249 563 Z M 389 563 L 109 563 L 109 668 L 389 668 L 389 563 Z" unicode="ā" />
<glyph horiz-adv-x="619" d="M 0 0 L 0 0 Z M 622 0 L 468 0 L 419 140 L 190 140 L 143 0 L -3 0 L 264 733 L 361 733 L 622 0 Z M 390 252 L 304 498 L 220 252 L 390 252 Z M 308 785 L 308 785 Z M 361 947 L 476 947 C 471 891 453 850 423 824 C 392 798 354 785 308 785 C 262 785 223 798 193 824 C 163 850 145 891 141 947 L 255 947 C 256 921 261 902 269 888 C 277 874 290 868 308 868 C 326 868 339 874 347 887 C 355 900 360 920 361 947 Z" unicode="Ă" />
<glyph horiz-adv-x="506" d="M 21 0 L 21 0 Z M 457 0 L 329 0 L 329 53 C 313 33 293 18 269 8 C 245 -2 215 -8 179 -8 C 127 -8 88 6 61 35 C 34 64 21 101 21 146 C 21 202 41 244 81 272 C 121 300 177 316 247 319 L 324 323 L 324 336 C 324 356 317 373 304 385 C 291 397 270 403 242 403 C 214 403 187 398 163 389 C 138 379 117 369 99 359 L 53 448 C 74 464 102 479 138 491 C 173 503 215 510 265 510 C 322 510 368 496 404 469 C 439 441 457 398 457 340 L 457 0 Z M 327 139 L 327 233 L 255 230 C 225 229 202 222 184 210 C 166 198 158 180 158 156 C 158 136 164 120 177 110 C 190 100 206 95 226 95 C 248 95 268 99 286 108 C 303 117 317 127 327 139 Z M 249 553 L 249 553 Z M 302 715 L 417 715 C 412 659 394 618 364 592 C 333 566 295 553 249 553 C 203 553 164 566 134 592 C 104 618 86 659 82 715 L 196 715 C 197 689 202 670 210 656 C 218 642 231 636 249 636 C 267 636 280 642 288 655 C 296 668 301 688 302 715 Z" unicode="ă" />
<glyph horiz-adv-x="619" d="M 0 0 L 0 0 Z M 622 0 L 468 0 L 419 140 L 190 140 L 143 0 L -3 0 L 264 733 L 361 733 L 622 0 Z M 390 252 L 304 498 L 220 252 L 390 252 Z M 486 -5 L 486 -5 Z M 584 -72 L 621 -130 C 599 -153 575 -170 550 -182 C 524 -193 496 -199 465 -199 C 429 -199 401 -191 381 -176 C 361 -161 352 -142 352 -120 C 352 -95 363 -72 385 -50 C 407 -28 437 -9 476 7 L 538 7 C 516 -3 499 -15 487 -28 C 475 -40 469 -52 469 -64 C 469 -74 473 -83 481 -89 C 489 -95 499 -98 512 -98 C 526 -98 540 -95 552 -90 C 564 -85 575 -79 584 -72 Z" unicode="Ą" />
<glyph horiz-adv-x="506" d="M 21 0 L 21 0 Z M 457 0 L 329 0 L 329 53 C 313 33 293 18 269 8 C 245 -2 215 -8 179 -8 C 127 -8 88 6 61 35 C 34 64 21 101 21 146 C 21 202 41 244 81 272 C 121 300 177 316 247 319 L 324 323 L 324 336 C 324 356 317 373 304 385 C 291 397 270 403 242 403 C 214 403 187 398 163 389 C 138 379 117 369 99 359 L 53 448 C 74 464 102 479 138 491 C 173 503 215 510 265 510 C 322 510 368 496 404 469 C 439 441 457 398 457 340 L 457 0 Z M 327 139 L 327 233 L 255 230 C 225 229 202 222 184 210 C 166 198 158 180 158 156 C 158 136 164 120 177 110 C 190 100 206 95 226 95 C 248 95 268 99 286 108 C 303 117 317 127 327 139 Z M 351 -5 L 351 -5 Z M 449 -72 L 486 -130 C 464 -153 440 -170 415 -182 C 389 -193 361 -199 330 -199 C 294 -199 266 -191 246 -176 C 226 -161 217 -142 217 -120 C 217 -95 228 -72 250 -50 C 272 -28 302 -9 341 7 L 403 7 C 381 -3 364 -15 352 -28 C 340 -40 334 -52 334 -64 C 334 -74 338 -83 346 -89 C 354 -95 364 -98 377 -98 C 391 -98 405 -95 417 -90 C 429 -85 440 -79 449 -72 Z" unicode="ą" />
<glyph horiz-adv-x="650" d="M 37 0 L 37 0 Z M 361 -10 C 315 -10 272 -1 232 15 C 192 31 157 56 129 88 C 100 120 77 159 61 206 C 45 252 37 305 37 365 C 37 421 45 472 61 518 C 77 564 99 603 127 636 C 155 669 190 695 230 713 C 270 731 315 740 363 740 C 429 740 483 728 525 705 C 567 681 601 648 627 606 L 519 528 C 504 550 484 570 460 586 C 435 602 404 610 367 610 C 309 610 264 589 234 547 C 203 505 188 445 188 366 C 188 320 193 282 204 250 C 214 218 228 192 246 172 C 263 152 283 138 306 130 C 328 121 352 117 376 117 C 414 117 446 125 472 142 C 498 159 519 181 536 209 L 638 141 C 612 95 576 59 530 31 C 483 3 427 -10 361 -10 Z M 365 787 L 365 787 Z M 234 787 L 333 951 L 496 951 L 371 787 L 234 787 Z" unicode="Ć" />
<glyph horiz-adv-x="484" d="M 27 0 L 27 0 Z M 381 165 L 473 97 C 455 69 431 44 399 23 C 367 1 324 -9 268 -9 C 196 -9 137 14 93 62 C 49 109 27 171 27 249 C 27 286 33 320 45 352 C 57 384 73 411 95 434 C 117 457 143 475 173 488 C 203 501 237 508 273 508 C 327 508 371 496 404 472 C 436 448 459 422 473 394 L 371 331 C 362 349 350 363 335 375 C 320 386 301 392 277 392 C 245 392 219 379 200 353 C 181 327 172 293 172 251 C 172 201 182 164 203 140 C 223 116 250 105 283 105 C 309 105 329 111 345 124 C 360 136 372 150 381 165 Z M 264 555 L 264 555 Z M 133 555 L 232 719 L 395 719 L 270 555 L 133 555 Z" unicode="ć" />
<glyph horiz-adv-x="650" d="M 37 0 L 37 0 Z M 361 -10 C 315 -10 272 -1 232 15 C 192 31 157 56 129 88 C 100 120 77 159 61 206 C 45 252 37 305 37 365 C 37 421 45 472 61 518 C 77 564 99 603 127 636 C 155 669 190 695 230 713 C 270 731 315 740 363 740 C 429 740 483 728 525 705 C 567 681 601 648 627 606 L 519 528 C 504 550 484 570 460 586 C 435 602 404 610 367 610 C 309 610 264 589 234 547 C 203 505 188 445 188 366 C 188 320 193 282 204 250 C 214 218 228 192 246 172 C 263 152 283 138 306 130 C 328 121 352 117 376 117 C 414 117 446 125 472 142 C 498 159 519 181 536 209 L 638 141 C 612 95 576 59 530 31 C 483 3 427 -10 361 -10 Z M 365 785 L 365 785 Z M 547 785 L 425 785 L 365 871 L 304 785 L 184 785 L 299 959 L 432 959 L 547 785 Z" unicode="Ĉ" />
<glyph horiz-adv-x="484" d="M 27 0 L 27 0 Z M 381 165 L 473 97 C 455 69 431 44 399 23 C 367 1 324 -9 268 -9 C 196 -9 137 14 93 62 C 49 109 27 171 27 249 C 27 286 33 320 45 352 C 57 384 73 411 95 434 C 117 457 143 475 173 488 C 203 501 237 508 273 508 C 327 508 371 496 404 472 C 436 448 459 422 473 394 L 371 331 C 362 349 350 363 335 375 C 320 386 301 392 277 392 C 245 392 219 379 200 353 C 181 327 172 293 172 251 C 172 201 182 164 203 140 C 223 116 250 105 283 105 C 309 105 329 111 345 124 C 360 136 372 150 381 165 Z M 264 553 L 264 553 Z M 446 553 L 324 553 L 264 639 L 203 553 L 83 553 L 198 727 L 331 727 L 446 553 Z" unicode="ĉ" />
<glyph horiz-adv-x="650" d="M 37 0 L 37 0 Z M 361 -10 C 315 -10 272 -1 232 15 C 192 31 157 56 129 88 C 100 120 77 159 61 206 C 45 252 37 305 37 365 C 37 421 45 472 61 518 C 77 564 99 603 127 636 C 155 669 190 695 230 713 C 270 731 315 740 363 740 C 429 740 483 728 525 705 C 567 681 601 648 627 606 L 519 528 C 504 550 484 570 460 586 C 435 602 404 610 367 610 C 309 610 264 589 234 547 C 203 505 188 445 188 366 C 188 320 193 282 204 250 C 214 218 228 192 246 172 C 263 152 283 138 306 130 C 328 121 352 117 376 117 C 414 117 446 125 472 142 C 498 159 519 181 536 209 L 638 141 C 612 95 576 59 530 31 C 483 3 427 -10 361 -10 Z M 365 788 L 365 788 Z M 428 788 L 303 788 L 303 944 L 428 944 L 428 788 Z" unicode="Ċ" />
<glyph horiz-adv-x="484" d="M 27 0 L 27 0 Z M 381 165 L 473 97 C 455 69 431 44 399 23 C 367 1 324 -9 268 -9 C 196 -9 137 14 93 62 C 49 109 27 171 27 249 C 27 286 33 320 45 352 C 57 384 73 411 95 434 C 117 457 143 475 173 488 C 203 501 237 508 273 508 C 327 508 371 496 404 472 C 436 448 459 422 473 394 L 371 331 C 362 349 350 363 335 375 C 320 386 301 392 277 392 C 245 392 219 379 200 353 C 181 327 172 293 172 251 C 172 201 182 164 203 140 C 223 116 250 105 283 105 C 309 105 329 111 345 124 C 360 136 372 150 381 165 Z M 264 556 L 264 556 Z M 327 556 L 202 556 L 202 712 L 327 712 L 327 556 Z" unicode="ċ" />
<glyph horiz-adv-x="650" d="M 37 0 L 37 0 Z M 361 -10 C 315 -10 272 -1 232 15 C 192 31 157 56 129 88 C 100 120 77 159 61 206 C 45 252 37 305 37 365 C 37 421 45 472 61 518 C 77 564 99 603 127 636 C 155 669 190 695 230 713 C 270 731 315 740 363 740 C 429 740 483 728 525 705 C 567 681 601 648 627 606 L 519 528 C 504 550 484 570 460 586 C 435 602 404 610 367 610 C 309 610 264 589 234 547 C 203 505 188 445 188 366 C 188 320 193 282 204 250 C 214 218 228 192 246 172 C 263 152 283 138 306 130 C 328 121 352 117 376 117 C 414 117 446 125 472 142 C 498 159 519 181 536 209 L 638 141 C 612 95 576 59 530 31 C 483 3 427 -10 361 -10 Z M 365 785 L 365 785 Z M 184 959 L 306 959 L 366 873 L 427 959 L 547 959 L 432 785 L 299 785 L 184 959 Z" unicode="Č" />
<glyph horiz-adv-x="484" d="M 27 0 L 27 0 Z M 381 165 L 473 97 C 455 69 431 44 399 23 C 367 1 324 -9 268 -9 C 196 -9 137 14 93 62 C 49 109 27 171 27 249 C 27 286 33 320 45 352 C 57 384 73 411 95 434 C 117 457 143 475 173 488 C 203 501 237 508 273 508 C 327 508 371 496 404 472 C 436 448 459 422 473 394 L 371 331 C 362 349 350 363 335 375 C 320 386 301 392 277 392 C 245 392 219 379 200 353 C 181 327 172 293 172 251 C 172 201 182 164 203 140 C 223 116 250 105 283 105 C 309 105 329 111 345 124 C 360 136 372 150 381 165 Z M 264 553 L 264 553 Z M 83 727 L 205 727 L 265 641 L 326 727 L 446 727 L 331 553 L 198 553 L 83 727 Z" unicode="č" />
<glyph horiz-adv-x="690" d="M 73 0 L 73 0 Z M 73 0 L 73 730 L 303 730 C 359 730 409 721 453 704 C 497 686 533 662 563 630 C 593 598 615 560 630 516 C 645 472 653 423 653 369 C 653 317 645 269 629 224 C 613 178 590 139 560 106 C 530 73 492 47 446 28 C 400 9 348 0 288 0 L 73 0 Z M 222 121 L 291 121 C 327 121 358 127 384 139 C 410 151 432 169 449 191 C 465 213 478 239 486 269 C 494 299 498 331 498 367 C 498 444 481 503 447 545 C 413 587 364 608 302 608 L 222 608 L 222 121 Z M 327 785 L 327 785 Z M 146 959 L 268 959 L 328 873 L 389 959 L 509 959 L 394 785 L 261 785 L 146 959 Z" unicode="Ď" />
<glyph horiz-adv-x="567" d="M 28 0 L 28 0 Z M 237 -7 C 177 -7 127 16 87 62 C 47 108 28 169 28 245 C 28 283 33 318 45 350 C 56 382 71 410 91 433 C 111 456 134 474 160 487 C 186 499 214 506 244 506 C 272 506 298 499 322 486 C 346 472 363 457 373 439 L 373 773 L 505 773 L 505 0 L 379 0 L 379 69 C 371 52 355 35 330 18 C 305 1 274 -7 237 -7 Z M 274 99 C 305 99 329 112 347 138 C 365 164 374 202 374 252 C 374 304 364 341 345 363 C 325 385 301 396 273 396 C 241 396 217 383 199 358 C 181 333 172 297 172 249 C 172 201 180 164 198 138 C 216 112 241 99 274 99 Z M 674 610 L 668 451 L 550 451 L 544 610 L 544 730 L 674 730 L 674 610 Z" unicode="ď" />
<glyph horiz-adv-x="684" d="M 26 0 L 26 0 Z M 652 365 C 652 314 644 266 629 222 C 613 178 590 139 560 106 C 529 73 491 47 446 28 C 400 9 348 0 288 0 L 72 0 L 72 302 L 26 302 L 26 412 L 72 412 L 72 730 L 303 730 C 359 730 409 721 453 703 C 497 685 533 661 563 629 C 592 597 614 559 629 514 C 644 469 652 419 652 365 Z M 218 118 L 290 118 C 328 118 360 124 387 137 C 413 149 435 167 451 189 C 467 211 479 237 487 267 C 495 297 499 329 499 363 C 499 443 482 505 448 548 C 414 590 365 612 303 612 L 218 612 L 218 412 L 345 412 L 345 302 L 218 302 L 218 118 Z" unicode="Đ" />
<glyph horiz-adv-x="559" d="M 379 69 C 371 52 355 35 330 18 C 305 1 274 -7 237 -7 C 177 -7 127 16 87 62 C 47 108 28 169 28 245 C 28 283 33 318 45 350 C 56 382 71 410 91 433 C 111 456 134 474 160 487 C 186 499 214 506 244 506 C 272 506 298 499 322 486 C 346 472 363 457 373 439 L 373 580 L 253 580 L 253 679 L 373 679 L 373 773 L 505 773 L 505 679 L 553 679 L 553 580 L 505 580 L 505 0 L 379 0 L 379 69 Z M 274 99 C 305 99 329 112 347 138 C 365 164 374 202 374 252 C 374 304 364 341 345 363 C 325 385 301 396 273 396 C 241 396 217 383 199 358 C 181 333 172 297 172 249 C 172 201 180 164 198 138 C 216 112 241 99 274 99 Z" unicode="đ" />
<glyph horiz-adv-x="541" d="M 73 0 L 73 0 Z M 506 0 L 73 0 L 73 730 L 487 730 L 487 603 L 220 603 L 220 424 L 470 424 L 470 300 L 220 300 L 220 127 L 506 127 L 506 0 Z M 284 795 L 284 795 Z M 424 795 L 144 795 L 144 900 L 424 900 L 424 795 Z" unicode="Ē" />
<glyph horiz-adv-x="523" d="M 28 0 L 28 0 Z M 273 -9 C 237 -9 204 -3 174 8 C 144 19 118 35 96 57 C 74 79 58 105 46 137 C 34 169 28 205 28 245 C 28 283 34 319 46 351 C 58 383 74 411 96 435 C 117 458 142 476 172 489 C 202 501 234 508 269 508 C 341 508 398 482 439 430 C 480 378 501 305 501 210 L 164 210 C 164 179 175 153 195 132 C 215 110 245 100 283 100 C 315 100 341 105 361 116 C 381 127 397 139 410 153 L 479 76 C 458 53 432 33 401 16 C 369 0 327 -9 273 -9 Z M 164 301 L 366 301 C 364 331 355 355 337 374 C 319 392 296 402 268 402 C 238 402 214 392 196 373 C 177 353 166 329 164 301 Z M 266 563 L 266 563 Z M 406 563 L 126 563 L 126 668 L 406 668 L 406 563 Z" unicode="ē" />
<glyph horiz-adv-x="541" d="M 73 0 L 73 0 Z M 506 0 L 73 0 L 73 730 L 487 730 L 487 603 L 220 603 L 220 424 L 470 424 L 470 300 L 220 300 L 220 127 L 506 127 L 506 0 Z M 284 785 L 284 785 Z M 337 947 L 452 947 C 447 891 429 850 399 824 C 368 798 330 785 284 785 C 238 785 199 798 169 824 C 139 850 121 891 117 947 L 231 947 C 232 921 237 902 245 888 C 253 874 266 868 284 868 C 302 868 315 874 323 887 C 331 900 336 920 337 947 Z" unicode="Ĕ" />
<glyph horiz-adv-x="523" d="M 28 0 L 28 0 Z M 273 -9 C 237 -9 204 -3 174 8 C 144 19 118 35 96 57 C 74 79 58 105 46 137 C 34 169 28 205 28 245 C 28 283 34 319 46 351 C 58 383 74 411 96 435 C 117 458 142 476 172 489 C 202 501 234 508 269 508 C 341 508 398 482 439 430 C 480 378 501 305 501 210 L 164 210 C 164 179 175 153 195 132 C 215 110 245 100 283 100 C 315 100 341 105 361 116 C 381 127 397 139 410 153 L 479 76 C 458 53 432 33 401 16 C 369 0 327 -9 273 -9 Z M 164 301 L 366 301 C 364 331 355 355 337 374 C 319 392 296 402 268 402 C 238 402 214 392 196 373 C 177 353 166 329 164 301 Z M 266 553 L 266 553 Z M 319 715 L 434 715 C 429 659 411 618 381 592 C 350 566 312 553 266 553 C 220 553 181 566 151 592 C 121 618 103 659 99 715 L 213 715 C 214 689 219 670 227 656 C 235 642 248 636 266 636 C 284 636 297 642 305 655 C 313 668 318 688 319 715 Z" unicode="ĕ" />
<glyph horiz-adv-x="541" d="M 73 0 L 73 0 Z M 506 0 L 73 0 L 73 730 L 487 730 L 487 603 L 220 603 L 220 424 L 470 424 L 470 300 L 220 300 L 220 127 L 506 127 L 506 0 Z M 284 788 L 284 788 Z M 347 788 L 222 788 L 222 944 L 347 944 L 347 788 Z" unicode="Ė" />
<glyph horiz-adv-x="523" d="M 28 0 L 28 0 Z M 273 -9 C 237 -9 204 -3 174 8 C 144 19 118 35 96 57 C 74 79 58 105 46 137 C 34 169 28 205 28 245 C 28 283 34 319 46 351 C 58 383 74 411 96 435 C 117 458 142 476 172 489 C 202 501 234 508 269 508 C 341 508 398 482 439 430 C 480 378 501 305 501 210 L 164 210 C 164 179 175 153 195 132 C 215 110 245 100 283 100 C 315 100 341 105 361 116 C 381 127 397 139 410 153 L 479 76 C 458 53 432 33 401 16 C 369 0 327 -9 273 -9 Z M 164 301 L 366 301 C 364 331 355 355 337 374 C 319 392 296 402 268 402 C 238 402 214 392 196 373 C 177 353 166 329 164 301 Z M 266 556 L 266 556 Z M 329 556 L 204 556 L 204 712 L 329 712 L 329 556 Z" unicode="ė" />
<glyph horiz-adv-x="541" d="M 73 0 L 73 0 Z M 506 0 L 73 0 L 73 730 L 487 730 L 487 603 L 220 603 L 220 424 L 470 424 L 470 300 L 220 300 L 220 127 L 506 127 L 506 0 Z M 454 -5 L 454 -5 Z M 552 -72 L 589 -130 C 567 -153 543 -170 518 -182 C 492 -193 464 -199 433 -199 C 397 -199 369 -191 349 -176 C 329 -161 320 -142 320 -120 C 320 -95 331 -72 353 -50 C 375 -28 405 -9 444 7 L 506 7 C 484 -3 467 -15 455 -28 C 443 -40 437 -52 437 -64 C 437 -74 441 -83 449 -89 C 457 -95 467 -98 480 -98 C 494 -98 508 -95 520 -90 C 532 -85 543 -79 552 -72 Z" unicode="Ę" />
<glyph horiz-adv-x="523" d="M 28 0 L 28 0 Z M 273 -9 C 237 -9 204 -3 174 8 C 144 19 118 35 96 57 C 74 79 58 105 46 137 C 34 169 28 205 28 245 C 28 283 34 319 46 351 C 58 383 74 411 96 435 C 117 458 142 476 172 489 C 202 501 234 508 269 508 C 341 508 398 482 439 430 C 480 378 501 305 501 210 L 164 210 C 164 179 175 153 195 132 C 215 110 245 100 283 100 C 315 100 341 105 361 116 C 381 127 397 139 410 153 L 479 76 C 458 53 432 33 401 16 C 369 0 327 -9 273 -9 Z M 164 301 L 366 301 C 364 331 355 355 337 374 C 319 392 296 402 268 402 C 238 402 214 392 196 373 C 177 353 166 329 164 301 Z M 325 -5 L 325 -5 Z M 423 -72 L 460 -130 C 438 -153 414 -170 389 -182 C 363 -193 335 -199 304 -199 C 268 -199 240 -191 220 -176 C 200 -161 191 -142 191 -120 C 191 -95 202 -72 224 -50 C 246 -28 276 -9 315 7 L 377 7 C 355 -3 338 -15 326 -28 C 314 -40 308 -52 308 -64 C 308 -74 312 -83 320 -89 C 328 -95 338 -98 351 -98 C 365 -98 379 -95 391 -90 C 403 -85 414 -79 423 -72 Z" unicode="ę" />
<glyph horiz-adv-x="541" d="M 73 0 L 73 0 Z M 506 0 L 73 0 L 73 730 L 487 730 L 487 603 L 220 603 L 220 424 L 470 424 L 470 300 L 220 300 L 220 127 L 506 127 L 506 0 Z M 284 785 L 284 785 Z M 103 959 L 225 959 L 285 873 L 346 959 L 466 959 L 351 785 L 218 785 L 103 959 Z" unicode="Ě" />
<glyph horiz-adv-x="523" d="M 28 0 L 28 0 Z M 273 -9 C 237 -9 204 -3 174 8 C 144 19 118 35 96 57 C 74 79 58 105 46 137 C 34 169 28 205 28 245 C 28 283 34 319 46 351 C 58 383 74 411 96 435 C 117 458 142 476 172 489 C 202 501 234 508 269 508 C 341 508 398 482 439 430 C 480 378 501 305 501 210 L 164 210 C 164 179 175 153 195 132 C 215 110 245 100 283 100 C 315 100 341 105 361 116 C 381 127 397 139 410 153 L 479 76 C 458 53 432 33 401 16 C 369 0 327 -9 273 -9 Z M 164 301 L 366 301 C 364 331 355 355 337 374 C 319 392 296 402 268 402 C 238 402 214 392 196 373 C 177 353 166 329 164 301 Z M 266 553 L 266 553 Z M 85 727 L 207 727 L 267 641 L 328 727 L 448 727 L 333 553 L 200 553 L 85 727 Z" unicode="ě" />
<glyph horiz-adv-x="695" d="M 37 0 L 37 0 Z M 372 385 L 658 385 L 658 139 C 633 96 596 60 547 32 C 497 4 438 -10 369 -10 C 321 -10 277 -1 236 16 C 195 33 160 58 131 90 C 101 122 78 161 62 208 C 45 254 37 307 37 365 C 37 422 45 474 62 521 C 79 567 102 607 132 639 C 162 671 197 696 238 714 C 278 731 322 740 369 740 C 438 740 492 727 532 702 C 571 676 600 648 618 618 L 516 537 C 502 555 484 571 462 587 C 439 602 408 610 368 610 C 314 610 271 589 237 548 C 203 507 187 446 187 366 C 187 284 204 220 239 176 C 274 132 320 110 376 110 C 412 110 443 116 470 129 C 496 142 515 160 527 182 L 527 264 L 372 264 L 372 385 Z M 368 785 L 368 785 Z M 550 785 L 428 785 L 368 871 L 307 785 L 187 785 L 302 959 L 435 959 L 550 785 Z" unicode="Ĝ" />
<glyph horiz-adv-x="558" d="M 28 0 L 28 0 Z M 235 8 C 205 8 178 13 152 25 C 126 37 104 53 86 74 C 68 95 53 121 43 151 C 33 181 28 215 28 253 C 28 331 47 393 87 439 C 127 484 177 507 237 507 C 269 507 298 499 324 485 C 349 471 367 454 377 435 L 377 498 L 504 498 L 504 42 C 504 1 497 -33 483 -63 C 469 -93 450 -117 427 -137 C 403 -156 376 -170 346 -180 C 316 -189 285 -194 253 -194 C 199 -194 155 -188 123 -176 C 91 -164 67 -153 52 -143 L 102 -45 C 116 -55 134 -64 158 -73 C 182 -81 209 -86 241 -86 C 279 -86 310 -75 334 -55 C 358 -35 371 -6 371 32 L 371 87 C 362 68 346 50 322 33 C 298 16 269 8 235 8 Z M 275 112 C 303 112 327 123 346 147 C 364 171 374 207 374 257 C 374 301 365 335 347 359 C 329 383 304 396 273 396 C 242 396 217 383 199 359 C 181 334 172 298 172 251 C 172 205 181 170 199 147 C 217 123 242 112 275 112 Z M 263 553 L 263 553 Z M 445 553 L 323 553 L 263 639 L 202 553 L 82 553 L 197 727 L 330 727 L 445 553 Z" unicode="ĝ" />
<glyph horiz-adv-x="695" d="M 37 0 L 37 0 Z M 372 385 L 658 385 L 658 139 C 633 96 596 60 547 32 C 497 4 438 -10 369 -10 C 321 -10 277 -1 236 16 C 195 33 160 58 131 90 C 101 122 78 161 62 208 C 45 254 37 307 37 365 C 37 422 45 474 62 521 C 79 567 102 607 132 639 C 162 671 197 696 238 714 C 278 731 322 740 369 740 C 438 740 492 727 532 702 C 571 676 600 648 618 618 L 516 537 C 502 555 484 571 462 587 C 439 602 408 610 368 610 C 314 610 271 589 237 548 C 203 507 187 446 187 366 C 187 284 204 220 239 176 C 274 132 320 110 376 110 C 412 110 443 116 470 129 C 496 142 515 160 527 182 L 527 264 L 372 264 L 372 385 Z M 368 785 L 368 785 Z M 421 947 L 536 947 C 531 891 513 850 483 824 C 452 798 414 785 368 785 C 322 785 283 798 253 824 C 223 850 205 891 201 947 L 315 947 C 316 921 321 902 329 888 C 337 874 350 868 368 868 C 386 868 399 874 407 887 C 415 900 420 920 421 947 Z" unicode="Ğ" />
<glyph horiz-adv-x="558" d="M 28 0 L 28 0 Z M 235 8 C 205 8 178 13 152 25 C 126 37 104 53 86 74 C 68 95 53 121 43 151 C 33 181 28 215 28 253 C 28 331 47 393 87 439 C 127 484 177 507 237 507 C 269 507 298 499 324 485 C 349 471 367 454 377 435 L 377 498 L 504 498 L 504 42 C 504 1 497 -33 483 -63 C 469 -93 450 -117 427 -137 C 403 -156 376 -170 346 -180 C 316 -189 285 -194 253 -194 C 199 -194 155 -188 123 -176 C 91 -164 67 -153 52 -143 L 102 -45 C 116 -55 134 -64 158 -73 C 182 -81 209 -86 241 -86 C 279 -86 310 -75 334 -55 C 358 -35 371 -6 371 32 L 371 87 C 362 68 346 50 322 33 C 298 16 269 8 235 8 Z M 275 112 C 303 112 327 123 346 147 C 364 171 374 207 374 257 C 374 301 365 335 347 359 C 329 383 304 396 273 396 C 242 396 217 383 199 359 C 181 334 172 298 172 251 C 172 205 181 170 199 147 C 217 123 242 112 275 112 Z M 263 553 L 263 553 Z M 316 715 L 431 715 C 426 659 408 618 378 592 C 347 566 309 553 263 553 C 217 553 178 566 148 592 C 118 618 100 659 96 715 L 210 715 C 211 689 216 670 224 656 C 232 642 245 636 263 636 C 281 636 294 642 302 655 C 310 668 315 688 316 715 Z" unicode="ğ" />
<glyph horiz-adv-x="695" d="M 37 0 L 37 0 Z M 372 385 L 658 385 L 658 139 C 633 96 596 60 547 32 C 497 4 438 -10 369 -10 C 321 -10 277 -1 236 16 C 195 33 160 58 131 90 C 101 122 78 161 62 208 C 45 254 37 307 37 365 C 37 422 45 474 62 521 C 79 567 102 607 132 639 C 162 671 197 696 238 714 C 278 731 322 740 369 740 C 438 740 492 727 532 702 C 571 676 600 648 618 618 L 516 537 C 502 555 484 571 462 587 C 439 602 408 610 368 610 C 314 610 271 589 237 548 C 203 507 187 446 187 366 C 187 284 204 220 239 176 C 274 132 320 110 376 110 C 412 110 443 116 470 129 C 496 142 515 160 527 182 L 527 264 L 372 264 L 372 385 Z M 368 788 L 368 788 Z M 431 788 L 306 788 L 306 944 L 431 944 L 431 788 Z" unicode="Ġ" />
<glyph horiz-adv-x="558" d="M 28 0 L 28 0 Z M 235 8 C 205 8 178 13 152 25 C 126 37 104 53 86 74 C 68 95 53 121 43 151 C 33 181 28 215 28 253 C 28 331 47 393 87 439 C 127 484 177 507 237 507 C 269 507 298 499 324 485 C 349 471 367 454 377 435 L 377 498 L 504 498 L 504 42 C 504 1 497 -33 483 -63 C 469 -93 450 -117 427 -137 C 403 -156 376 -170 346 -180 C 316 -189 285 -194 253 -194 C 199 -194 155 -188 123 -176 C 91 -164 67 -153 52 -143 L 102 -45 C 116 -55 134 -64 158 -73 C 182 -81 209 -86 241 -86 C 279 -86 310 -75 334 -55 C 358 -35 371 -6 371 32 L 371 87 C 362 68 346 50 322 33 C 298 16 269 8 235 8 Z M 275 112 C 303 112 327 123 346 147 C 364 171 374 207 374 257 C 374 301 365 335 347 359 C 329 383 304 396 273 396 C 242 396 217 383 199 359 C 181 334 172 298 172 251 C 172 205 181 170 199 147 C 217 123 242 112 275 112 Z M 263 556 L 263 556 Z M 326 556 L 201 556 L 201 712 L 326 712 L 326 556 Z" unicode="ġ" />
<glyph horiz-adv-x="695" d="M 37 0 L 37 0 Z M 372 385 L 658 385 L 658 139 C 633 96 596 60 547 32 C 497 4 438 -10 369 -10 C 321 -10 277 -1 236 16 C 195 33 160 58 131 90 C 101 122 78 161 62 208 C 45 254 37 307 37 365 C 37 422 45 474 62 521 C 79 567 102 607 132 639 C 162 671 197 696 238 714 C 278 731 322 740 369 740 C 438 740 492 727 532 702 C 571 676 600 648 618 618 L 516 537 C 502 555 484 571 462 587 C 439 602 408 610 368 610 C 314 610 271 589 237 548 C 203 507 187 446 187 366 C 187 284 204 220 239 176 C 274 132 320 110 376 110 C 412 110 443 116 470 129 C 496 142 515 160 527 182 L 527 264 L 372 264 L 372 385 Z" unicode="Ģ" />
<glyph horiz-adv-x="558" d="M 28 0 L 28 0 Z M 235 8 C 205 8 178 13 152 25 C 126 37 104 53 86 74 C 68 95 53 121 43 151 C 33 181 28 215 28 253 C 28 331 47 393 87 439 C 127 484 177 507 237 507 C 269 507 298 499 324 485 C 349 471 367 454 377 435 L 377 498 L 504 498 L 504 42 C 504 1 497 -33 483 -63 C 469 -93 450 -117 427 -137 C 403 -156 376 -170 346 -180 C 316 -189 285 -194 253 -194 C 199 -194 155 -188 123 -176 C 91 -164 67 -153 52 -143 L 102 -45 C 116 -55 134 -64 158 -73 C 182 -81 209 -86 241 -86 C 279 -86 310 -75 334 -55 C 358 -35 371 -6 371 32 L 371 87 C 362 68 346 50 322 33 C 298 16 269 8 235 8 Z M 275 112 C 303 112 327 123 346 147 C 364 171 374 207 374 257 C 374 301 365 335 347 359 C 329 383 304 396 273 396 C 242 396 217 383 199 359 C 181 334 172 298 172 251 C 172 205 181 170 199 147 C 217 123 242 112 275 112 Z" unicode="ģ" />
<glyph horiz-adv-x="698" d="M 73 0 L 73 0 Z M 625 0 L 475 0 L 475 295 L 223 295 L 223 0 L 73 0 L 73 730 L 223 730 L 223 424 L 475 424 L 475 730 L 625 730 L 625 0 Z M 348 785 L 348 785 Z M 530 785 L 408 785 L 348 871 L 287 785 L 167 785 L 282 959 L 415 959 L 530 785 Z" unicode="Ĥ" />
<glyph horiz-adv-x="545" d="M 54 0 L 54 0 Z M 495 0 L 357 0 L 357 326 C 357 346 350 363 337 375 C 323 387 305 393 283 393 C 259 393 238 386 220 372 C 202 358 193 338 193 311 L 193 0 L 54 0 L 54 773 L 183 773 L 183 427 C 191 449 208 468 234 484 C 260 500 293 508 334 508 C 380 508 418 495 449 470 C 479 444 495 408 495 361 L 495 0 Z M 291 828 L 291 828 Z M 473 828 L 351 828 L 291 914 L 230 828 L 110 828 L 225 1002 L 358 1002 L 473 828 Z" unicode="ĥ" />
<glyph horiz-adv-x="698" d="M 223 295 L 223 0 L 73 0 L 73 535 L 8 535 L 8 633 L 73 633 L 73 730 L 223 730 L 223 633 L 475 633 L 475 730 L 625 730 L 625 633 L 690 633 L 690 535 L 625 535 L 625 0 L 475 0 L 475 295 L 223 295 Z M 223 424 L 475 424 L 475 535 L 223 535 L 223 424 Z" unicode="Ħ" />
<glyph horiz-adv-x="545" d="M 193 311 L 193 0 L 54 0 L 54 580 L 8 580 L 8 679 L 54 679 L 54 773 L 183 773 L 183 679 L 309 679 L 309 580 L 183 580 L 183 427 C 191 449 208 468 234 484 C 260 500 293 508 334 508 C 380 508 418 495 449 470 C 479 444 495 408 495 361 L 495 0 L 357 0 L 357 326 C 357 346 350 363 337 375 C 323 387 305 393 283 393 C 259 393 238 386 220 372 C 202 358 193 338 193 311 Z" unicode="ħ" />
<glyph horiz-adv-x="304" d="M 0 0 L 0 0 Z M 227 0 L 77 0 L 77 730 L 227 730 L 227 0 Z M 152 788 L 152 788 Z M 226 941 L 332 941 C 332 889 323 850 307 825 C 291 800 269 788 243 788 C 224 788 208 791 194 797 C 180 803 168 809 158 815 C 149 820 140 825 132 831 C 123 836 115 839 107 839 C 98 839 91 834 86 826 C 81 818 79 806 79 791 L -26 791 C -26 843 -15 881 6 907 C 27 932 49 945 73 945 C 91 945 106 941 118 935 C 130 929 142 922 153 916 C 161 910 168 905 176 901 C 183 896 190 894 197 894 C 203 894 210 898 216 906 C 222 914 226 925 226 941 Z" unicode="Ĩ" />
<glyph horiz-adv-x="255" d="M 0 0 L 0 0 Z M 197 0 L 58 0 L 58 498 L 197 498 L 197 0 Z M 127 556 L 127 556 Z M 201 709 L 307 709 C 307 657 298 618 282 593 C 266 568 244 556 218 556 C 199 556 183 559 169 565 C 155 571 143 577 133 583 C 124 588 115 593 107 599 C 98 604 90 607 82 607 C 73 607 66 602 61 594 C 56 586 54 574 54 559 L -51 559 C -51 611 -40 649 -19 675 C 2 700 24 713 48 713 C 66 713 81 709 93 703 C 105 697 117 690 128 684 C 136 678 143 673 151 669 C 158 664 165 662 172 662 C 178 662 185 666 191 674 C 197 682 201 693 201 709 Z" unicode="ĩ" />
<glyph horiz-adv-x="304" d="M 12 0 L 12 0 Z M 227 0 L 77 0 L 77 730 L 227 730 L 227 0 Z M 152 795 L 152 795 Z M 292 795 L 12 795 L 12 900 L 292 900 L 292 795 Z" unicode="Ī" />
<glyph horiz-adv-x="255" d="M 0 0 L 0 0 Z M 197 0 L 58 0 L 58 498 L 197 498 L 197 0 Z M 127 563 L 127 563 Z M 267 563 L -13 563 L -13 668 L 267 668 L 267 563 Z" unicode="ī" />
<glyph horiz-adv-x="304" d="M 0 0 L 0 0 Z M 227 0 L 77 0 L 77 730 L 227 730 L 227 0 Z M 152 785 L 152 785 Z M 205 947 L 320 947 C 315 891 297 850 267 824 C 236 798 198 785 152 785 C 106 785 67 798 37 824 C 7 850 -10 891 -15 947 L 99 947 C 100 921 105 902 113 888 C 121 874 134 868 152 868 C 170 868 183 874 191 887 C 199 900 204 920 205 947 Z" unicode="Ĭ" />
<glyph horiz-adv-x="255" d="M 0 0 L 0 0 Z M 197 0 L 58 0 L 58 498 L 197 498 L 197 0 Z M 127 553 L 127 553 Z M 180 715 L 295 715 C 290 659 272 618 242 592 C 211 566 173 553 127 553 C 81 553 42 566 12 592 C -17 618 -35 659 -40 715 L 74 715 C 75 689 80 670 88 656 C 96 642 109 636 127 636 C 145 636 158 642 166 655 C 174 668 179 688 180 715 Z" unicode="ĭ" />
<glyph horiz-adv-x="304" d="M 0 0 L 0 0 Z M 227 0 L 77 0 L 77 730 L 227 730 L 227 0 Z M 99 -6 L 99 -6 Z M 197 -73 L 234 -131 C 212 -154 188 -171 163 -183 C 137 -194 109 -200 78 -200 C 42 -200 14 -192 -5 -177 C -25 -162 -35 -143 -35 -121 C -35 -96 -24 -73 -2 -51 C 20 -29 50 -10 89 6 L 151 6 C 129 -4 112 -16 100 -29 C 88 -41 82 -53 82 -65 C 82 -75 86 -84 94 -90 C 102 -96 112 -99 125 -99 C 139 -99 153 -96 165 -91 C 177 -86 188 -80 197 -73 Z" unicode="Į" />
<glyph horiz-adv-x="255" d="M 0 0 L 0 0 Z M 56 574 L 56 703 L 199 703 L 199 574 L 56 574 Z M 58 0 L 58 498 L 197 498 L 197 0 L 58 0 Z M 82 -5 L 82 -5 Z M 180 -72 L 217 -130 C 195 -153 171 -170 146 -182 C 120 -193 92 -199 61 -199 C 25 -199 -2 -191 -22 -176 C -42 -161 -52 -142 -52 -120 C -52 -95 -41 -72 -19 -50 C 3 -28 33 -9 72 7 L 134 7 C 112 -3 95 -15 83 -28 C 71 -40 65 -52 65 -64 C 65 -74 69 -83 77 -89 C 85 -95 95 -98 108 -98 C 122 -98 136 -95 148 -90 C 160 -85 171 -79 180 -72 Z" unicode="į" />
<glyph horiz-adv-x="304" d="M 77 0 L 77 0 Z M 227 0 L 77 0 L 77 730 L 227 730 L 227 0 Z M 152 788 L 152 788 Z M 215 788 L 90 788 L 90 944 L 215 944 L 215 788 Z" unicode="İ" />
<glyph horiz-adv-x="255" d="M 197 0 L 58 0 L 58 498 L 197 498 L 197 0 Z" unicode="ı" />
<glyph horiz-adv-x="636" d="M 77 0 L 77 0 Z M 227 0 L 77 0 L 77 730 L 227 730 L 227 0 Z M 570 730 L 570 196 C 570 166 565 139 556 114 C 546 88 533 66 515 48 C 497 30 476 15 451 5 C 425 -5 396 -11 364 -11 C 345 -11 325 -9 305 -7 C 285 -4 268 0 256 7 L 280 130 C 286 127 295 125 308 123 C 321 121 332 121 342 121 C 368 121 389 129 403 146 C 417 162 424 183 424 207 L 424 730 L 570 730 Z" unicode="Ĳ" />
<glyph horiz-adv-x="487" d="M 56 0 L 56 0 Z M 56 574 L 56 703 L 199 703 L 199 574 L 56 574 Z M 58 0 L 58 498 L 197 498 L 197 0 L 58 0 Z M 439 574 L 297 574 L 297 703 L 439 703 L 439 574 Z M 437 498 L 437 -38 C 437 -84 423 -122 395 -153 C 367 -183 328 -198 278 -198 C 260 -198 240 -196 219 -192 C 198 -188 182 -183 170 -178 L 190 -75 C 196 -77 204 -80 214 -82 C 224 -84 235 -86 247 -86 C 263 -86 276 -79 285 -67 C 294 -54 299 -38 299 -19 L 299 498 L 437 498 Z" unicode="ĳ" />
<glyph horiz-adv-x="383" d="M 4 0 L 4 0 Z M 318 730 L 318 196 C 318 166 313 139 304 114 C 294 88 281 66 263 48 C 245 30 224 15 199 5 C 173 -5 144 -11 112 -11 C 93 -11 73 -9 53 -7 C 33 -4 16 0 4 7 L 28 130 C 34 127 43 125 56 123 C 69 121 80 121 90 121 C 116 121 137 129 151 146 C 165 162 172 183 172 207 L 172 730 L 318 730 Z M 240 785 L 240 785 Z M 422 785 L 300 785 L 240 871 L 179 785 L 59 785 L 174 959 L 307 959 L 422 785 Z" unicode="Ĵ" />
<glyph horiz-adv-x="261" d="M 0 0 L 0 0 Z M 209 498 L 209 -38 C 209 -84 195 -122 167 -153 C 139 -183 100 -198 50 -198 C 32 -198 12 -196 -8 -192 C -29 -188 -46 -183 -58 -178 L -38 -75 C -32 -77 -24 -80 -14 -82 C -4 -84 7 -86 19 -86 C 35 -86 48 -79 57 -67 C 66 -54 71 -38 71 -19 L 71 498 L 209 498 Z M 138 553 L 138 553 Z M 320 553 L 198 553 L 138 639 L 77 553 L -43 553 L 72 727 L 205 727 L 320 553 Z" unicode="ĵ" />
<glyph horiz-adv-x="651" d="M 73 0 L 73 0 Z M 658 0 L 476 0 L 270 288 L 222 231 L 222 0 L 73 0 L 73 730 L 222 730 L 222 413 L 463 730 L 629 730 L 370 399 L 658 0 Z M 329 -64 L 329 -64 Z M 439 -64 C 438 -91 433 -120 425 -150 C 417 -180 407 -208 396 -234 C 384 -260 372 -282 359 -302 C 346 -322 334 -335 323 -343 L 219 -297 C 226 -288 234 -275 243 -258 C 251 -241 259 -222 267 -201 C 274 -180 280 -158 286 -134 C 291 -110 295 -86 297 -64 L 439 -64 Z" unicode="Ķ" />
<glyph horiz-adv-x="519" d="M 55 0 L 55 0 Z M 541 1 L 384 0 L 247 193 L 191 129 L 191 0 L 55 0 L 55 773 L 188 773 L 188 275 L 365 498 L 512 498 L 340 286 L 541 1 Z M 262 -64 L 262 -64 Z M 372 -64 C 371 -91 366 -120 358 -150 C 350 -180 340 -208 329 -234 C 317 -260 305 -282 292 -302 C 279 -322 267 -335 256 -343 L 152 -297 C 159 -288 167 -275 176 -258 C 184 -241 192 -222 200 -201 C 207 -180 213 -158 219 -134 C 224 -110 228 -86 230 -64 L 372 -64 Z" unicode="ķ" />
<glyph horiz-adv-x="519" d="M 541 1 L 384 0 L 247 193 L 191 129 L 191 0 L 55 0 L 55 498 L 188 498 L 188 275 L 365 498 L 512 498 L 340 286 L 541 1 Z" unicode="ĸ" />
<glyph horiz-adv-x="482" d="M 73 0 L 73 0 Z M 473 0 L 73 0 L 73 730 L 223 730 L 223 127 L 473 127 L 473 0 Z M 292 787 L 292 787 Z M 161 787 L 260 951 L 423 951 L 298 787 L 161 787 Z" unicode="Ĺ" />
<glyph horiz-adv-x="247" d="M 54 0 L 54 0 Z M 188 830 L 188 830 Z M 57 830 L 156 994 L 319 994 L 194 830 L 57 830 Z M 193 773 L 193 0 L 54 0 L 54 773 L 193 773 Z" unicode="ĺ" />
<glyph horiz-adv-x="482" d="M 73 0 L 73 0 Z M 473 0 L 73 0 L 73 730 L 223 730 L 223 127 L 473 127 L 473 0 Z M 261 -64 L 261 -64 Z M 371 -64 C 370 -91 365 -120 357 -150 C 349 -180 339 -208 328 -234 C 316 -260 304 -282 291 -302 C 278 -322 266 -335 255 -343 L 151 -297 C 158 -288 166 -275 175 -258 C 183 -241 191 -222 199 -201 C 206 -180 212 -158 218 -134 C 223 -110 227 -86 229 -64 L 371 -64 Z" unicode="Ļ" />
<glyph horiz-adv-x="247" d="M 0 0 L 0 0 Z M 193 773 L 193 0 L 54 0 L 54 773 L 193 773 Z M 98 -64 L 98 -64 Z M 208 -64 C 207 -91 202 -120 194 -150 C 186 -180 176 -208 165 -234 C 153 -260 141 -282 128 -302 C 115 -322 103 -335 92 -343 L -12 -297 C -4 -288 3 -275 12 -258 C 20 -241 28 -222 36 -201 C 43 -180 49 -158 55 -134 C 60 -110 64 -86 66 -64 L 208 -64 Z" unicode="ļ" />
<glyph horiz-adv-x="482" d="M 73 0 L 73 0 Z M 473 0 L 73 0 L 73 730 L 223 730 L 223 127 L 473 127 L 473 0 Z M 494 610 L 488 451 L 370 451 L 364 610 L 364 730 L 494 730 L 494 610 Z" unicode="Ľ" />
<glyph horiz-adv-x="247" d="M 54 0 L 54 0 Z M 193 773 L 193 0 L 54 0 L 54 773 L 193 773 Z M 364 609 L 358 450 L 240 450 L 234 609 L 234 729 L 364 729 L 364 609 Z" unicode="ľ" />
<glyph horiz-adv-x="482" d="M 73 0 L 73 0 Z M 473 0 L 73 0 L 73 730 L 223 730 L 223 127 L 473 127 L 473 0 Z M 367 285 L 367 285 Z M 430 285 L 305 285 L 305 441 L 430 441 L 430 285 Z" unicode="Ŀ" />
<glyph horiz-adv-x="247" d="M 54 0 L 54 0 Z M 193 773 L 193 0 L 54 0 L 54 773 L 193 773 Z M 297 206 L 297 206 Z M 360 206 L 235 206 L 235 362 L 360 362 L 360 206 Z" unicode="ŀ" />
<glyph horiz-adv-x="482" d="M 465 124 L 465 0 L 73 0 L 73 251 L 33 234 L -15 337 L 73 374 L 73 730 L 223 730 L 223 438 L 354 493 L 400 390 L 223 315 L 223 124 L 465 124 Z" unicode="Ł" />
<glyph horiz-adv-x="247" d="M 278 354 L 198 315 L 198 0 L 60 0 L 60 248 L 20 229 L -18 316 L 60 354 L 60 773 L 198 773 L 198 421 L 240 441 L 278 354 Z" unicode="ł" />
<glyph horiz-adv-x="699" d="M 73 0 L 73 0 Z M 626 0 L 523 0 L 213 447 L 213 0 L 73 0 L 73 730 L 183 730 L 489 290 L 489 730 L 626 730 L 626 0 Z M 350 787 L 350 787 Z M 219 787 L 318 951 L 481 951 L 356 787 L 219 787 Z" unicode="Ń" />
<glyph horiz-adv-x="545" d="M 54 0 L 54 0 Z M 495 0 L 356 0 L 356 327 C 356 347 349 363 336 375 C 322 387 305 393 283 393 C 259 393 238 386 220 372 C 202 358 193 336 193 308 L 193 0 L 54 0 L 54 498 L 181 498 L 181 422 C 191 446 210 467 237 483 C 264 499 296 508 334 508 C 380 508 419 495 449 469 C 479 443 495 408 495 364 L 495 0 Z M 282 555 L 282 555 Z M 151 555 L 250 719 L 413 719 L 288 555 L 151 555 Z" unicode="ń" />
<glyph horiz-adv-x="699" d="M 73 0 L 73 0 Z M 626 0 L 523 0 L 213 447 L 213 0 L 73 0 L 73 730 L 183 730 L 489 290 L 489 730 L 626 730 L 626 0 Z M 336 -64 L 336 -64 Z M 446 -64 C 445 -91 440 -120 432 -150 C 424 -180 414 -208 403 -234 C 391 -260 379 -282 366 -302 C 353 -322 341 -335 330 -343 L 226 -297 C 233 -288 241 -275 250 -258 C 258 -241 266 -222 274 -201 C 281 -180 287 -158 293 -134 C 298 -110 302 -86 304 -64 L 446 -64 Z" unicode="Ņ" />
<glyph horiz-adv-x="545" d="M 54 0 L 54 0 Z M 495 0 L 356 0 L 356 327 C 356 347 349 363 336 375 C 322 387 305 393 283 393 C 259 393 238 386 220 372 C 202 358 193 336 193 308 L 193 0 L 54 0 L 54 498 L 181 498 L 181 422 C 191 446 210 467 237 483 C 264 499 296 508 334 508 C 380 508 419 495 449 469 C 479 443 495 408 495 364 L 495 0 Z M 256 -64 L 256 -64 Z M 366 -64 C 365 -91 360 -120 352 -150 C 344 -180 334 -208 323 -234 C 311 -260 299 -282 286 -302 C 273 -322 261 -335 250 -343 L 146 -297 C 153 -288 161 -275 170 -258 C 178 -241 186 -222 194 -201 C 201 -180 207 -158 213 -134 C 218 -110 222 -86 224 -64 L 366 -64 Z" unicode="ņ" />
<glyph horiz-adv-x="699" d="M 73 0 L 73 0 Z M 626 0 L 523 0 L 213 447 L 213 0 L 73 0 L 73 730 L 183 730 L 489 290 L 489 730 L 626 730 L 626 0 Z M 350 785 L 350 785 Z M 169 959 L 291 959 L 351 873 L 412 959 L 532 959 L 417 785 L 284 785 L 169 959 Z" unicode="Ň" />
<glyph horiz-adv-x="545" d="M 54 0 L 54 0 Z M 495 0 L 356 0 L 356 327 C 356 347 349 363 336 375 C 322 387 305 393 283 393 C 259 393 238 386 220 372 C 202 358 193 336 193 308 L 193 0 L 54 0 L 54 498 L 181 498 L 181 422 C 191 446 210 467 237 483 C 264 499 296 508 334 508 C 380 508 419 495 449 469 C 479 443 495 408 495 364 L 495 0 Z M 282 553 L 282 553 Z M 101 727 L 223 727 L 283 641 L 344 727 L 464 727 L 349 553 L 216 553 L 101 727 Z" unicode="ň" />
<glyph horiz-adv-x="701" d="M 489 730 L 626 730 L 626 0 L 626 0 C 624 -58 607 -106 573 -143 C 539 -180 493 -199 435 -199 C 414 -199 393 -197 372 -194 C 350 -190 333 -185 321 -179 L 343 -56 C 350 -59 361 -62 375 -65 C 389 -67 403 -69 415 -69 C 437 -69 455 -60 468 -43 C 481 -26 488 -5 488 19 L 488 50 L 213 447 L 213 0 L 73 0 L 73 730 L 183 730 L 488 291 L 488 417 L 489 417 L 489 730 Z" unicode="Ŋ" />
<glyph horiz-adv-x="545" d="M 334 508 C 380 508 419 495 449 469 C 479 443 495 408 495 364 L 495 -32 C 495 -80 480 -121 451 -153 C 422 -185 382 -201 330 -201 C 313 -201 294 -199 273 -196 C 251 -192 234 -188 222 -182 L 240 -77 C 246 -79 255 -82 265 -84 C 275 -86 287 -87 299 -87 C 317 -87 331 -80 341 -66 C 351 -52 356 -34 356 -12 L 356 327 C 356 347 349 363 336 375 C 322 387 305 393 283 393 C 259 393 238 386 220 372 C 202 358 193 336 193 308 L 193 0 L 54 0 L 54 498 L 181 498 L 181 422 C 191 446 210 467 237 483 C 264 499 296 508 334 508 Z" unicode="ŋ" />
<glyph horiz-adv-x="744" d="M 37 0 L 37 0 Z M 375 -10 C 322 -10 274 0 232 17 C 190 35 154 61 126 94 C 97 127 75 167 60 214 C 44 261 37 313 37 370 C 37 424 45 474 62 520 C 78 566 101 605 131 637 C 160 669 195 695 236 713 C 276 731 320 740 368 740 C 418 740 465 731 507 714 C 549 696 584 672 614 640 C 643 608 666 568 682 522 C 698 476 707 424 707 367 C 707 309 698 257 681 211 C 663 164 640 124 610 92 C 580 59 545 34 505 16 C 464 -1 421 -10 375 -10 Z M 375 116 C 428 116 471 136 505 178 C 538 220 555 283 555 369 C 555 447 537 506 503 548 C 468 590 423 611 368 611 C 314 611 271 591 238 551 C 205 511 189 450 189 368 C 189 282 206 219 241 178 C 276 136 321 116 375 116 Z M 370 795 L 370 795 Z M 510 795 L 230 795 L 230 900 L 510 900 L 510 795 Z" unicode="Ō" />
<glyph horiz-adv-x="550" d="M 27 0 L 27 0 Z M 272 -9 C 240 -9 210 -3 180 7 C 150 18 124 34 102 56 C 79 77 61 104 47 136 C 33 168 27 206 27 248 C 27 286 33 321 46 353 C 59 385 77 412 99 435 C 121 458 146 476 176 489 C 206 501 237 508 270 508 C 305 508 338 502 369 491 C 399 480 426 464 449 443 C 471 422 489 396 503 366 C 516 335 523 300 523 262 C 523 220 516 183 503 150 C 490 116 472 88 450 64 C 427 40 400 22 370 10 C 339 -2 306 -9 272 -9 Z M 275 102 C 307 102 333 114 351 140 C 369 165 379 203 379 255 C 379 302 369 337 350 360 C 331 383 305 395 271 395 C 240 395 216 383 198 359 C 180 335 172 298 172 249 C 172 196 181 158 200 136 C 219 113 244 102 275 102 Z M 273 563 L 273 563 Z M 413 563 L 133 563 L 133 668 L 413 668 L 413 563 Z" unicode="ō" />
<glyph horiz-adv-x="744" d="M 37 0 L 37 0 Z M 375 -10 C 322 -10 274 0 232 17 C 190 35 154 61 126 94 C 97 127 75 167 60 214 C 44 261 37 313 37 370 C 37 424 45 474 62 520 C 78 566 101 605 131 637 C 160 669 195 695 236 713 C 276 731 320 740 368 740 C 418 740 465 731 507 714 C 549 696 584 672 614 640 C 643 608 666 568 682 522 C 698 476 707 424 707 367 C 707 309 698 257 681 211 C 663 164 640 124 610 92 C 580 59 545 34 505 16 C 464 -1 421 -10 375 -10 Z M 375 116 C 428 116 471 136 505 178 C 538 220 555 283 555 369 C 555 447 537 506 503 548 C 468 590 423 611 368 611 C 314 611 271 591 238 551 C 205 511 189 450 189 368 C 189 282 206 219 241 178 C 276 136 321 116 375 116 Z M 370 785 L 370 785 Z M 423 947 L 538 947 C 533 891 515 850 485 824 C 454 798 416 785 370 785 C 324 785 285 798 255 824 C 225 850 207 891 203 947 L 317 947 C 318 921 323 902 331 888 C 339 874 352 868 370 868 C 388 868 401 874 409 887 C 417 900 422 920 423 947 Z" unicode="Ŏ" />
<glyph horiz-adv-x="550" d="M 27 0 L 27 0 Z M 272 -9 C 240 -9 210 -3 180 7 C 150 18 124 34 102 56 C 79 77 61 104 47 136 C 33 168 27 206 27 248 C 27 286 33 321 46 353 C 59 385 77 412 99 435 C 121 458 146 476 176 489 C 206 501 237 508 270 508 C 305 508 338 502 369 491 C 399 480 426 464 449 443 C 471 422 489 396 503 366 C 516 335 523 300 523 262 C 523 220 516 183 503 150 C 490 116 472 88 450 64 C 427 40 400 22 370 10 C 339 -2 306 -9 272 -9 Z M 275 102 C 307 102 333 114 351 140 C 369 165 379 203 379 255 C 379 302 369 337 350 360 C 331 383 305 395 271 395 C 240 395 216 383 198 359 C 180 335 172 298 172 249 C 172 196 181 158 200 136 C 219 113 244 102 275 102 Z M 273 553 L 273 553 Z M 326 715 L 441 715 C 436 659 418 618 388 592 C 357 566 319 553 273 553 C 227 553 188 566 158 592 C 128 618 110 659 106 715 L 220 715 C 221 689 226 670 234 656 C 242 642 255 636 273 636 C 291 636 304 642 312 655 C 320 668 325 688 326 715 Z" unicode="ŏ" />
<glyph horiz-adv-x="744" d="M 37 0 L 37 0 Z M 375 -10 C 322 -10 274 0 232 17 C 190 35 154 61 126 94 C 97 127 75 167 60 214 C 44 261 37 313 37 370 C 37 424 45 474 62 520 C 78 566 101 605 131 637 C 160 669 195 695 236 713 C 276 731 320 740 368 740 C 418 740 465 731 507 714 C 549 696 584 672 614 640 C 643 608 666 568 682 522 C 698 476 707 424 707 367 C 707 309 698 257 681 211 C 663 164 640 124 610 92 C 580 59 545 34 505 16 C 464 -1 421 -10 375 -10 Z M 375 116 C 428 116 471 136 505 178 C 538 220 555 283 555 369 C 555 447 537 506 503 548 C 468 590 423 611 368 611 C 314 611 271 591 238 551 C 205 511 189 450 189 368 C 189 282 206 219 241 178 C 276 136 321 116 375 116 Z M 370 785 L 370 785 Z M 149 785 L 236 942 L 382 942 L 269 785 L 149 785 Z M 358 785 L 446 942 L 592 942 L 479 785 L 358 785 Z" unicode="Ő" />
<glyph horiz-adv-x="550" d="M 27 0 L 27 0 Z M 272 -9 C 240 -9 210 -3 180 7 C 150 18 124 34 102 56 C 79 77 61 104 47 136 C 33 168 27 206 27 248 C 27 286 33 321 46 353 C 59 385 77 412 99 435 C 121 458 146 476 176 489 C 206 501 237 508 270 508 C 305 508 338 502 369 491 C 399 480 426 464 449 443 C 471 422 489 396 503 366 C 516 335 523 300 523 262 C 523 220 516 183 503 150 C 490 116 472 88 450 64 C 427 40 400 22 370 10 C 339 -2 306 -9 272 -9 Z M 275 102 C 307 102 333 114 351 140 C 369 165 379 203 379 255 C 379 302 369 337 350 360 C 331 383 305 395 271 395 C 240 395 216 383 198 359 C 180 335 172 298 172 249 C 172 196 181 158 200 136 C 219 113 244 102 275 102 Z M 273 553 L 273 553 Z M 52 553 L 139 710 L 285 710 L 172 553 L 52 553 Z M 261 553 L 349 710 L 495 710 L 382 553 L 261 553 Z" unicode="ő" />
<glyph horiz-adv-x="1015" d="M 351 -10 C 302 -10 258 -1 219 17 C 180 35 147 60 120 93 C 93 126 72 166 58 213 C 44 260 37 312 37 370 C 37 424 45 473 62 519 C 78 565 101 604 130 636 C 158 668 192 694 231 712 C 270 730 312 740 358 740 C 378 740 398 737 418 732 C 438 727 456 720 474 712 C 491 704 506 694 520 682 C 534 670 544 658 551 645 L 551 730 L 960 730 L 960 604 L 692 604 L 692 422 L 944 422 L 944 300 L 692 300 L 692 126 L 980 126 L 980 0 L 551 0 L 551 99 C 537 69 512 44 476 22 C 440 0 399 -10 351 -10 Z M 371 110 C 423 110 466 130 500 172 C 533 214 550 279 550 369 C 550 411 545 448 535 480 C 525 511 511 537 495 557 C 478 577 459 592 437 602 C 415 612 393 617 370 617 C 317 617 274 597 240 557 C 206 517 190 453 190 366 C 190 276 207 211 241 171 C 275 130 318 110 371 110 Z" unicode="Œ" />
<glyph horiz-adv-x="870" d="M 269 -9 C 237 -9 206 -3 177 8 C 147 19 122 35 100 57 C 78 79 60 106 47 138 C 33 170 27 206 27 248 C 27 286 33 321 46 353 C 59 385 77 412 99 435 C 121 458 146 476 176 489 C 206 501 237 508 270 508 C 320 508 359 497 389 477 C 418 457 438 436 448 414 C 452 424 459 434 469 445 C 479 456 491 466 506 476 C 520 485 537 493 556 499 C 575 505 596 508 618 508 C 691 508 748 481 788 429 C 828 377 848 304 849 211 L 513 211 C 513 180 524 154 545 132 C 566 110 595 99 632 99 C 662 99 688 104 708 115 C 728 126 744 138 758 152 L 827 75 C 806 52 780 32 750 16 C 720 0 678 -9 625 -9 C 579 -9 540 0 508 20 C 476 40 455 61 445 83 C 434 62 413 41 383 21 C 353 1 315 -9 269 -9 Z M 514 301 L 714 301 C 712 331 703 355 685 374 C 667 392 644 402 615 402 C 586 402 563 392 545 373 C 527 353 516 329 514 301 Z M 276 102 C 308 102 333 114 352 139 C 370 163 380 202 380 256 C 380 303 370 338 350 361 C 330 383 304 395 272 395 C 241 395 217 383 199 359 C 181 335 172 298 172 248 C 172 196 181 158 201 136 C 220 113 245 102 276 102 Z" unicode="œ" />
<glyph horiz-adv-x="600" d="M 73 0 L 73 0 Z M 73 0 L 73 730 L 313 730 C 343 730 371 725 397 717 C 423 708 446 695 466 678 C 486 661 501 640 513 614 C 524 588 530 559 530 526 C 530 496 526 470 518 447 C 510 423 499 403 487 387 C 474 371 459 357 443 347 C 426 337 409 330 392 327 L 390 322 L 598 0 L 432 0 L 259 279 L 218 279 L 218 0 L 73 0 Z M 216 401 L 286 401 C 312 401 335 410 354 428 C 373 446 383 473 383 508 C 383 542 373 567 354 585 C 335 602 313 611 289 611 L 216 611 L 216 401 Z M 292 787 L 292 787 Z M 161 787 L 260 951 L 423 951 L 298 787 L 161 787 Z" unicode="Ŕ" />
<glyph horiz-adv-x="412" d="M 54 0 L 54 0 Z M 417 477 L 361 357 C 348 368 335 376 322 380 C 309 384 296 387 283 387 C 261 387 241 378 222 362 C 202 346 193 321 193 288 L 193 0 L 54 0 L 54 498 L 183 498 L 183 417 C 189 437 205 458 230 478 C 254 498 285 508 321 508 C 342 508 361 505 377 499 C 393 493 407 485 417 477 Z M 240 555 L 240 555 Z M 109 555 L 208 719 L 371 719 L 246 555 L 109 555 Z" unicode="ŕ" />
<glyph horiz-adv-x="600" d="M 73 0 L 73 0 Z M 73 0 L 73 730 L 313 730 C 343 730 371 725 397 717 C 423 708 446 695 466 678 C 486 661 501 640 513 614 C 524 588 530 559 530 526 C 530 496 526 470 518 447 C 510 423 499 403 487 387 C 474 371 459 357 443 347 C 426 337 409 330 392 327 L 390 322 L 598 0 L 432 0 L 259 279 L 218 279 L 218 0 L 73 0 Z M 216 401 L 286 401 C 312 401 335 410 354 428 C 373 446 383 473 383 508 C 383 542 373 567 354 585 C 335 602 313 611 289 611 L 216 611 L 216 401 Z M 297 -64 L 297 -64 Z M 407 -64 C 406 -91 401 -120 393 -150 C 385 -180 375 -208 364 -234 C 352 -260 340 -282 327 -302 C 314 -322 302 -335 291 -343 L 187 -297 C 194 -288 202 -275 211 -258 C 219 -241 227 -222 235 -201 C 242 -180 248 -158 254 -134 C 259 -110 263 -86 265 -64 L 407 -64 Z" unicode="Ŗ" />
<glyph horiz-adv-x="412" d="M 54 0 L 54 0 Z M 417 477 L 361 357 C 348 368 335 376 322 380 C 309 384 296 387 283 387 C 261 387 241 378 222 362 C 202 346 193 321 193 288 L 193 0 L 54 0 L 54 498 L 183 498 L 183 417 C 189 437 205 458 230 478 C 254 498 285 508 321 508 C 342 508 361 505 377 499 C 393 493 407 485 417 477 Z M 219 -64 L 219 -64 Z M 329 -64 C 328 -91 323 -120 315 -150 C 307 -180 297 -208 286 -234 C 274 -260 262 -282 249 -302 C 236 -322 224 -335 213 -343 L 109 -297 C 116 -288 124 -275 133 -258 C 141 -241 149 -222 157 -201 C 164 -180 170 -158 176 -134 C 181 -110 185 -86 187 -64 L 329 -64 Z" unicode="ŗ" />
<glyph horiz-adv-x="600" d="M 73 0 L 73 0 Z M 73 0 L 73 730 L 313 730 C 343 730 371 725 397 717 C 423 708 446 695 466 678 C 486 661 501 640 513 614 C 524 588 530 559 530 526 C 530 496 526 470 518 447 C 510 423 499 403 487 387 C 474 371 459 357 443 347 C 426 337 409 330 392 327 L 390 322 L 598 0 L 432 0 L 259 279 L 218 279 L 218 0 L 73 0 Z M 216 401 L 286 401 C 312 401 335 410 354 428 C 373 446 383 473 383 508 C 383 542 373 567 354 585 C 335 602 313 611 289 611 L 216 611 L 216 401 Z M 292 785 L 292 785 Z M 111 959 L 233 959 L 293 873 L 354 959 L 474 959 L 359 785 L 226 785 L 111 959 Z" unicode="Ř" />
<glyph horiz-adv-x="412" d="M 54 0 L 54 0 Z M 417 477 L 361 357 C 348 368 335 376 322 380 C 309 384 296 387 283 387 C 261 387 241 378 222 362 C 202 346 193 321 193 288 L 193 0 L 54 0 L 54 498 L 183 498 L 183 417 C 189 437 205 458 230 478 C 254 498 285 508 321 508 C 342 508 361 505 377 499 C 393 493 407 485 417 477 Z M 240 553 L 240 553 Z M 59 727 L 181 727 L 241 641 L 302 727 L 422 727 L 307 553 L 174 553 L 59 727 Z" unicode="ř" />
<glyph horiz-adv-x="529" d="M 19 0 L 19 0 Z M 269 -10 C 215 -10 167 -2 125 12 C 83 26 48 49 19 80 L 101 183 C 117 162 140 144 170 130 C 199 116 230 109 263 109 C 289 109 312 116 330 130 C 348 144 358 164 358 189 C 358 214 348 235 330 252 C 311 269 280 288 238 309 C 180 335 133 366 97 400 C 61 434 44 484 44 549 C 44 577 49 603 61 627 C 72 651 87 671 107 688 C 127 704 150 717 178 726 C 206 735 236 740 269 740 C 317 740 357 732 391 718 C 425 704 453 687 476 668 L 404 562 C 385 576 364 589 342 600 C 320 610 296 616 272 616 C 246 616 226 609 210 596 C 194 583 186 566 186 546 C 186 523 195 504 214 488 C 232 472 267 452 319 428 C 381 399 426 368 456 334 C 485 300 500 254 500 196 C 500 162 493 133 480 107 C 467 81 450 59 429 42 C 408 25 384 12 356 3 C 328 -5 299 -10 269 -10 Z M 265 787 L 265 787 Z M 134 787 L 233 951 L 396 951 L 271 787 L 134 787 Z" unicode="Ś" />
<glyph horiz-adv-x="428" d="M 21 0 L 21 0 Z M 228 -10 C 184 -10 144 -3 108 8 C 72 20 43 36 21 56 L 81 145 C 99 130 122 118 148 109 C 174 100 198 96 220 96 C 236 96 250 100 261 108 C 271 116 277 126 277 140 C 277 153 269 165 253 175 C 237 185 213 195 181 206 C 137 220 103 239 77 264 C 51 288 38 322 38 365 C 38 405 55 439 89 467 C 123 494 165 508 217 508 C 259 508 295 502 326 491 C 356 480 379 468 395 456 L 344 361 C 327 371 308 381 288 390 C 267 398 246 403 226 403 C 210 403 195 400 183 394 C 171 388 165 379 165 367 C 165 354 171 344 184 336 C 196 328 222 318 260 304 C 306 287 341 267 367 244 C 392 221 405 188 405 145 C 405 120 400 98 390 79 C 380 59 368 43 352 30 C 336 16 317 6 295 0 C 273 -6 251 -10 228 -10 Z M 220 555 L 220 555 Z M 89 555 L 188 719 L 351 719 L 226 555 L 89 555 Z" unicode="ś" />
<glyph horiz-adv-x="529" d="M 19 0 L 19 0 Z M 269 -10 C 215 -10 167 -2 125 12 C 83 26 48 49 19 80 L 101 183 C 117 162 140 144 170 130 C 199 116 230 109 263 109 C 289 109 312 116 330 130 C 348 144 358 164 358 189 C 358 214 348 235 330 252 C 311 269 280 288 238 309 C 180 335 133 366 97 400 C 61 434 44 484 44 549 C 44 577 49 603 61 627 C 72 651 87 671 107 688 C 127 704 150 717 178 726 C 206 735 236 740 269 740 C 317 740 357 732 391 718 C 425 704 453 687 476 668 L 404 562 C 385 576 364 589 342 600 C 320 610 296 616 272 616 C 246 616 226 609 210 596 C 194 583 186 566 186 546 C 186 523 195 504 214 488 C 232 472 267 452 319 428 C 381 399 426 368 456 334 C 485 300 500 254 500 196 C 500 162 493 133 480 107 C 467 81 450 59 429 42 C 408 25 384 12 356 3 C 328 -5 299 -10 269 -10 Z M 265 785 L 265 785 Z M 447 785 L 325 785 L 265 871 L 204 785 L 84 785 L 199 959 L 332 959 L 447 785 Z" unicode="Ŝ" />
<glyph horiz-adv-x="428" d="M 21 0 L 21 0 Z M 228 -10 C 184 -10 144 -3 108 8 C 72 20 43 36 21 56 L 81 145 C 99 130 122 118 148 109 C 174 100 198 96 220 96 C 236 96 250 100 261 108 C 271 116 277 126 277 140 C 277 153 269 165 253 175 C 237 185 213 195 181 206 C 137 220 103 239 77 264 C 51 288 38 322 38 365 C 38 405 55 439 89 467 C 123 494 165 508 217 508 C 259 508 295 502 326 491 C 356 480 379 468 395 456 L 344 361 C 327 371 308 381 288 390 C 267 398 246 403 226 403 C 210 403 195 400 183 394 C 171 388 165 379 165 367 C 165 354 171 344 184 336 C 196 328 222 318 260 304 C 306 287 341 267 367 244 C 392 221 405 188 405 145 C 405 120 400 98 390 79 C 380 59 368 43 352 30 C 336 16 317 6 295 0 C 273 -6 251 -10 228 -10 Z M 220 553 L 220 553 Z M 402 553 L 280 553 L 220 639 L 159 553 L 39 553 L 154 727 L 287 727 L 402 553 Z" unicode="ŝ" />
<glyph horiz-adv-x="529" d="M 19 0 L 19 0 Z M 269 -10 C 215 -10 167 -2 125 12 C 83 26 48 49 19 80 L 101 183 C 117 162 140 144 170 130 C 199 116 230 109 263 109 C 289 109 312 116 330 130 C 348 144 358 164 358 189 C 358 214 348 235 330 252 C 311 269 280 288 238 309 C 180 335 133 366 97 400 C 61 434 44 484 44 549 C 44 577 49 603 61 627 C 72 651 87 671 107 688 C 127 704 150 717 178 726 C 206 735 236 740 269 740 C 317 740 357 732 391 718 C 425 704 453 687 476 668 L 404 562 C 385 576 364 589 342 600 C 320 610 296 616 272 616 C 246 616 226 609 210 596 C 194 583 186 566 186 546 C 186 523 195 504 214 488 C 232 472 267 452 319 428 C 381 399 426 368 456 334 C 485 300 500 254 500 196 C 500 162 493 133 480 107 C 467 81 450 59 429 42 C 408 25 384 12 356 3 C 328 -5 299 -10 269 -10 Z M 249 -2 L 249 -2 Z M 256 -191 C 230 -191 205 -188 180 -182 C 155 -176 136 -168 122 -159 L 141 -103 C 149 -107 159 -111 173 -116 C 187 -120 201 -123 217 -123 C 226 -123 234 -120 242 -116 C 250 -112 254 -106 254 -99 C 254 -90 250 -84 244 -80 C 237 -76 230 -75 222 -75 C 216 -75 211 -75 207 -76 C 202 -77 197 -78 193 -80 L 175 -60 L 236 12 L 314 12 L 269 -44 C 299 -40 325 -45 345 -58 C 365 -70 375 -89 375 -113 C 375 -139 363 -158 339 -171 C 315 -184 287 -191 256 -191 Z" unicode="Ş" />
<glyph horiz-adv-x="428" d="M 21 0 L 21 0 Z M 228 -10 C 184 -10 144 -3 108 8 C 72 20 43 36 21 56 L 81 145 C 99 130 122 118 148 109 C 174 100 198 96 220 96 C 236 96 250 100 261 108 C 271 116 277 126 277 140 C 277 153 269 165 253 175 C 237 185 213 195 181 206 C 137 220 103 239 77 264 C 51 288 38 322 38 365 C 38 405 55 439 89 467 C 123 494 165 508 217 508 C 259 508 295 502 326 491 C 356 480 379 468 395 456 L 344 361 C 327 371 308 381 288 390 C 267 398 246 403 226 403 C 210 403 195 400 183 394 C 171 388 165 379 165 367 C 165 354 171 344 184 336 C 196 328 222 318 260 304 C 306 287 341 267 367 244 C 392 221 405 188 405 145 C 405 120 400 98 390 79 C 380 59 368 43 352 30 C 336 16 317 6 295 0 C 273 -6 251 -10 228 -10 Z M 206 0 L 206 0 Z M 213 -189 C 187 -189 162 -186 137 -180 C 112 -174 93 -166 79 -157 L 98 -101 C 106 -105 116 -109 130 -114 C 144 -118 158 -121 174 -121 C 183 -121 191 -118 199 -114 C 207 -110 211 -104 211 -97 C 211 -88 207 -82 201 -78 C 194 -74 187 -73 179 -73 C 173 -73 168 -73 164 -74 C 159 -75 154 -76 150 -78 L 132 -58 L 193 14 L 271 14 L 226 -42 C 256 -38 282 -43 302 -56 C 322 -68 332 -87 332 -111 C 332 -137 320 -156 296 -169 C 272 -182 244 -189 213 -189 Z" unicode="ş" />
<glyph horiz-adv-x="529" d="M 19 0 L 19 0 Z M 269 -10 C 215 -10 167 -2 125 12 C 83 26 48 49 19 80 L 101 183 C 117 162 140 144 170 130 C 199 116 230 109 263 109 C 289 109 312 116 330 130 C 348 144 358 164 358 189 C 358 214 348 235 330 252 C 311 269 280 288 238 309 C 180 335 133 366 97 400 C 61 434 44 484 44 549 C 44 577 49 603 61 627 C 72 651 87 671 107 688 C 127 704 150 717 178 726 C 206 735 236 740 269 740 C 317 740 357 732 391 718 C 425 704 453 687 476 668 L 404 562 C 385 576 364 589 342 600 C 320 610 296 616 272 616 C 246 616 226 609 210 596 C 194 583 186 566 186 546 C 186 523 195 504 214 488 C 232 472 267 452 319 428 C 381 399 426 368 456 334 C 485 300 500 254 500 196 C 500 162 493 133 480 107 C 467 81 450 59 429 42 C 408 25 384 12 356 3 C 328 -5 299 -10 269 -10 Z M 265 785 L 265 785 Z M 84 959 L 206 959 L 266 873 L 327 959 L 447 959 L 332 785 L 199 785 L 84 959 Z" unicode="Š" />
<glyph horiz-adv-x="428" d="M 21 0 L 21 0 Z M 228 -10 C 184 -10 144 -3 108 8 C 72 20 43 36 21 56 L 81 145 C 99 130 122 118 148 109 C 174 100 198 96 220 96 C 236 96 250 100 261 108 C 271 116 277 126 277 140 C 277 153 269 165 253 175 C 237 185 213 195 181 206 C 137 220 103 239 77 264 C 51 288 38 322 38 365 C 38 405 55 439 89 467 C 123 494 165 508 217 508 C 259 508 295 502 326 491 C 356 480 379 468 395 456 L 344 361 C 327 371 308 381 288 390 C 267 398 246 403 226 403 C 210 403 195 400 183 394 C 171 388 165 379 165 367 C 165 354 171 344 184 336 C 196 328 222 318 260 304 C 306 287 341 267 367 244 C 392 221 405 188 405 145 C 405 120 400 98 390 79 C 380 59 368 43 352 30 C 336 16 317 6 295 0 C 273 -6 251 -10 228 -10 Z M 220 553 L 220 553 Z M 39 727 L 161 727 L 221 641 L 282 727 L 402 727 L 287 553 L 154 553 L 39 727 Z" unicode="š" />
<glyph horiz-adv-x="515" d="M 8 0 L 8 0 Z M 507 602 L 331 602 L 331 0 L 181 0 L 181 602 L 8 602 L 8 730 L 507 730 L 507 602 Z M 257 785 L 257 785 Z M 76 959 L 198 959 L 258 873 L 319 959 L 439 959 L 324 785 L 191 785 L 76 959 Z" unicode="Ť" />
<glyph horiz-adv-x="322" d="M 7 0 L 7 0 Z M 300 122 L 317 14 C 309 8 297 4 281 0 C 265 -4 247 -6 229 -6 C 209 -6 189 -3 169 3 C 149 9 132 18 116 31 C 100 43 87 60 77 80 C 67 100 63 125 63 154 L 63 384 L 7 384 L 7 498 L 65 498 L 65 625 L 200 639 L 200 498 L 297 498 L 297 384 L 201 384 L 201 170 C 201 149 205 134 214 125 C 223 116 237 112 255 112 C 263 112 272 113 281 115 C 289 117 296 120 300 122 Z M 435 610 L 429 451 L 311 451 L 305 610 L 305 730 L 435 730 L 435 610 Z" unicode="ť" />
<glyph horiz-adv-x="515" d="M 452 398 L 331 398 L 331 0 L 181 0 L 181 398 L 61 398 L 61 500 L 181 500 L 181 602 L 8 602 L 8 730 L 507 730 L 507 602 L 331 602 L 331 500 L 452 500 L 452 398 Z" unicode="Ŧ" />
<glyph horiz-adv-x="322" d="M 317 14 C 309 8 297 4 281 0 C 265 -4 247 -6 229 -6 C 209 -6 189 -3 169 3 C 149 9 132 18 116 31 C 100 43 87 60 77 80 C 67 100 63 125 63 154 L 63 242 L 17 242 L 17 332 L 63 332 L 63 384 L 7 384 L 7 498 L 65 498 L 65 625 L 200 639 L 200 498 L 297 498 L 297 384 L 201 384 L 201 332 L 278 332 L 278 242 L 201 242 L 201 170 C 201 149 205 134 214 125 C 223 116 237 112 255 112 C 263 112 272 113 281 115 C 289 117 296 120 300 122 L 317 14 Z" unicode="ŧ" />
<glyph horiz-adv-x="689" d="M 68 0 L 68 0 Z M 621 730 L 621 253 C 621 210 613 172 598 139 C 582 106 562 79 537 57 C 511 35 482 18 448 7 C 414 -4 378 -10 341 -10 C 304 -10 269 -4 236 6 C 203 17 174 33 149 55 C 124 77 104 104 90 137 C 75 170 68 209 68 253 L 68 730 L 215 730 L 215 250 C 215 208 227 176 251 154 C 275 131 306 120 342 120 C 378 120 408 131 434 153 C 459 175 472 207 472 250 L 472 730 L 621 730 Z M 343 788 L 343 788 Z M 417 941 L 523 941 C 523 889 514 850 498 825 C 482 800 460 788 434 788 C 415 788 399 791 385 797 C 371 803 359 809 349 815 C 340 820 331 825 323 831 C 314 836 306 839 298 839 C 289 839 282 834 277 826 C 272 818 270 806 270 791 L 165 791 C 165 843 175 881 197 907 C 218 932 240 945 264 945 C 282 945 297 941 309 935 C 321 929 333 922 344 916 C 352 910 359 905 367 901 C 374 896 381 894 388 894 C 394 894 401 898 407 906 C 413 914 417 925 417 941 Z" unicode="Ũ" />
<glyph horiz-adv-x="545" d="M 50 0 L 50 0 Z M 50 498 L 188 498 L 188 176 C 188 150 195 131 210 119 C 224 107 243 101 267 101 C 291 101 312 108 328 123 C 344 137 352 159 352 188 L 352 498 L 490 498 L 490 0 L 361 0 L 361 73 C 350 49 331 30 304 14 C 277 -1 246 -9 210 -9 C 166 -9 128 3 97 29 C 65 55 50 93 50 143 L 50 498 Z M 271 556 L 271 556 Z M 345 709 L 451 709 C 451 657 442 618 426 593 C 410 568 388 556 362 556 C 343 556 327 559 313 565 C 299 571 287 577 277 583 C 268 588 259 593 251 599 C 242 604 234 607 226 607 C 217 607 210 602 205 594 C 200 586 198 574 198 559 L 93 559 C 93 611 103 649 125 675 C 146 700 168 713 192 713 C 210 713 225 709 237 703 C 249 697 261 690 272 684 C 280 678 287 673 295 669 C 302 664 309 662 316 662 C 322 662 329 666 335 674 C 341 682 345 693 345 709 Z" unicode="ũ" />
<glyph horiz-adv-x="689" d="M 68 0 L 68 0 Z M 621 730 L 621 253 C 621 210 613 172 598 139 C 582 106 562 79 537 57 C 511 35 482 18 448 7 C 414 -4 378 -10 341 -10 C 304 -10 269 -4 236 6 C 203 17 174 33 149 55 C 124 77 104 104 90 137 C 75 170 68 209 68 253 L 68 730 L 215 730 L 215 250 C 215 208 227 176 251 154 C 275 131 306 120 342 120 C 378 120 408 131 434 153 C 459 175 472 207 472 250 L 472 730 L 621 730 Z M 343 795 L 343 795 Z M 483 795 L 203 795 L 203 900 L 483 900 L 483 795 Z" unicode="Ū" />
<glyph horiz-adv-x="545" d="M 50 0 L 50 0 Z M 50 498 L 188 498 L 188 176 C 188 150 195 131 210 119 C 224 107 243 101 267 101 C 291 101 312 108 328 123 C 344 137 352 159 352 188 L 352 498 L 490 498 L 490 0 L 361 0 L 361 73 C 350 49 331 30 304 14 C 277 -1 246 -9 210 -9 C 166 -9 128 3 97 29 C 65 55 50 93 50 143 L 50 498 Z M 271 563 L 271 563 Z M 411 563 L 131 563 L 131 668 L 411 668 L 411 563 Z" unicode="ū" />
<glyph horiz-adv-x="689" d="M 68 0 L 68 0 Z M 621 730 L 621 253 C 621 210 613 172 598 139 C 582 106 562 79 537 57 C 511 35 482 18 448 7 C 414 -4 378 -10 341 -10 C 304 -10 269 -4 236 6 C 203 17 174 33 149 55 C 124 77 104 104 90 137 C 75 170 68 209 68 253 L 68 730 L 215 730 L 215 250 C 215 208 227 176 251 154 C 275 131 306 120 342 120 C 378 120 408 131 434 153 C 459 175 472 207 472 250 L 472 730 L 621 730 Z M 343 785 L 343 785 Z M 396 947 L 511 947 C 506 891 488 850 458 824 C 427 798 389 785 343 785 C 297 785 258 798 228 824 C 198 850 180 891 176 947 L 290 947 C 291 921 296 902 304 888 C 312 874 325 868 343 868 C 361 868 374 874 382 887 C 390 900 395 920 396 947 Z" unicode="Ŭ" />
<glyph horiz-adv-x="545" d="M 50 0 L 50 0 Z M 50 498 L 188 498 L 188 176 C 188 150 195 131 210 119 C 224 107 243 101 267 101 C 291 101 312 108 328 123 C 344 137 352 159 352 188 L 352 498 L 490 498 L 490 0 L 361 0 L 361 73 C 350 49 331 30 304 14 C 277 -1 246 -9 210 -9 C 166 -9 128 3 97 29 C 65 55 50 93 50 143 L 50 498 Z M 271 553 L 271 553 Z M 324 715 L 439 715 C 434 659 416 618 386 592 C 355 566 317 553 271 553 C 225 553 186 566 156 592 C 126 618 108 659 104 715 L 218 715 C 219 689 224 670 232 656 C 240 642 253 636 271 636 C 289 636 302 642 310 655 C 318 668 323 688 324 715 Z" unicode="ŭ" />
<glyph horiz-adv-x="689" d="M 68 0 L 68 0 Z M 621 730 L 621 253 C 621 210 613 172 598 139 C 582 106 562 79 537 57 C 511 35 482 18 448 7 C 414 -4 378 -10 341 -10 C 304 -10 269 -4 236 6 C 203 17 174 33 149 55 C 124 77 104 104 90 137 C 75 170 68 209 68 253 L 68 730 L 215 730 L 215 250 C 215 208 227 176 251 154 C 275 131 306 120 342 120 C 378 120 408 131 434 153 C 459 175 472 207 472 250 L 472 730 L 621 730 Z M 343 779 L 343 779 Z M 343 779 C 309 779 280 791 256 815 C 232 839 221 868 221 902 C 221 935 232 964 256 988 C 280 1012 309 1024 343 1024 C 377 1024 406 1012 430 988 C 454 964 467 935 467 902 C 467 868 454 839 430 815 C 406 791 377 779 343 779 Z M 344 852 C 357 852 368 856 378 866 C 387 875 392 887 392 901 C 392 915 387 926 378 936 C 368 946 357 951 344 951 C 330 951 319 946 309 936 C 299 926 295 915 295 901 C 295 887 299 875 309 866 C 319 856 330 852 344 852 Z" unicode="Ů" />
<glyph horiz-adv-x="545" d="M 50 0 L 50 0 Z M 50 498 L 188 498 L 188 176 C 188 150 195 131 210 119 C 224 107 243 101 267 101 C 291 101 312 108 328 123 C 344 137 352 159 352 188 L 352 498 L 490 498 L 490 0 L 361 0 L 361 73 C 350 49 331 30 304 14 C 277 -1 246 -9 210 -9 C 166 -9 128 3 97 29 C 65 55 50 93 50 143 L 50 498 Z M 271 547 L 271 547 Z M 271 547 C 237 547 208 559 184 583 C 160 607 149 636 149 670 C 149 703 160 732 184 756 C 208 780 237 792 271 792 C 305 792 334 780 358 756 C 382 732 395 703 395 670 C 395 636 382 607 358 583 C 334 559 305 547 271 547 Z M 272 620 C 285 620 296 624 306 634 C 315 643 320 655 320 669 C 320 683 315 694 306 704 C 296 714 285 719 272 719 C 258 719 247 714 237 704 C 227 694 223 683 223 669 C 223 655 227 643 237 634 C 247 624 258 620 272 620 Z" unicode="ů" />
<glyph horiz-adv-x="689" d="M 68 0 L 68 0 Z M 621 730 L 621 253 C 621 210 613 172 598 139 C 582 106 562 79 537 57 C 511 35 482 18 448 7 C 414 -4 378 -10 341 -10 C 304 -10 269 -4 236 6 C 203 17 174 33 149 55 C 124 77 104 104 90 137 C 75 170 68 209 68 253 L 68 730 L 215 730 L 215 250 C 215 208 227 176 251 154 C 275 131 306 120 342 120 C 378 120 408 131 434 153 C 459 175 472 207 472 250 L 472 730 L 621 730 Z M 343 785 L 343 785 Z M 122 785 L 209 942 L 355 942 L 242 785 L 122 785 Z M 331 785 L 419 942 L 565 942 L 452 785 L 331 785 Z" unicode="Ű" />
<glyph horiz-adv-x="545" d="M 50 0 L 50 0 Z M 50 498 L 188 498 L 188 176 C 188 150 195 131 210 119 C 224 107 243 101 267 101 C 291 101 312 108 328 123 C 344 137 352 159 352 188 L 352 498 L 490 498 L 490 0 L 361 0 L 361 73 C 350 49 331 30 304 14 C 277 -1 246 -9 210 -9 C 166 -9 128 3 97 29 C 65 55 50 93 50 143 L 50 498 Z M 271 553 L 271 553 Z M 50 553 L 137 710 L 283 710 L 170 553 L 50 553 Z M 259 553 L 347 710 L 493 710 L 380 553 L 259 553 Z" unicode="ű" />
<glyph horiz-adv-x="689" d="M 68 0 L 68 0 Z M 621 730 L 621 253 C 621 210 613 172 598 139 C 582 106 562 79 537 57 C 511 35 482 18 448 7 C 414 -4 378 -10 341 -10 C 304 -10 269 -4 236 6 C 203 17 174 33 149 55 C 124 77 104 104 90 137 C 75 170 68 209 68 253 L 68 730 L 215 730 L 215 250 C 215 208 227 176 251 154 C 275 131 306 120 342 120 C 378 120 408 131 434 153 C 459 175 472 207 472 250 L 472 730 L 621 730 Z M 393 -5 L 393 -5 Z M 491 -72 L 528 -130 C 506 -153 482 -170 457 -182 C 431 -193 403 -199 372 -199 C 336 -199 308 -191 288 -176 C 268 -161 259 -142 259 -120 C 259 -95 270 -72 292 -50 C 314 -28 344 -9 383 7 L 445 7 C 423 -3 406 -15 394 -28 C 382 -40 376 -52 376 -64 C 376 -74 380 -83 388 -89 C 396 -95 406 -98 419 -98 C 433 -98 447 -95 459 -90 C 471 -85 482 -79 491 -72 Z" unicode="Ų" />
<glyph horiz-adv-x="545" d="M 50 0 L 50 0 Z M 50 498 L 188 498 L 188 176 C 188 150 195 131 210 119 C 224 107 243 101 267 101 C 291 101 312 108 328 123 C 344 137 352 159 352 188 L 352 498 L 490 498 L 490 0 L 361 0 L 361 73 C 350 49 331 30 304 14 C 277 -1 246 -9 210 -9 C 166 -9 128 3 97 29 C 65 55 50 93 50 143 L 50 498 Z M 385 -5 L 385 -5 Z M 483 -72 L 520 -130 C 498 -153 474 -170 449 -182 C 423 -193 395 -199 364 -199 C 328 -199 300 -191 280 -176 C 260 -161 251 -142 251 -120 C 251 -95 262 -72 284 -50 C 306 -28 336 -9 375 7 L 437 7 C 415 -3 398 -15 386 -28 C 374 -40 368 -52 368 -64 C 368 -74 372 -83 380 -89 C 388 -95 398 -98 411 -98 C 425 -98 439 -95 451 -90 C 463 -85 474 -79 483 -72 Z" unicode="ų" />
<glyph horiz-adv-x="863" d="M 1 0 L 1 0 Z M 856 730 L 652 -5 L 567 -5 L 430 465 L 287 -5 L 201 -5 L 1 730 L 149 730 L 265 278 L 392 730 L 480 730 L 607 277 L 722 730 L 856 730 Z M 434 785 L 434 785 Z M 616 785 L 494 785 L 434 871 L 373 785 L 253 785 L 368 959 L 501 959 L 616 785 Z" unicode="Ŵ" />
<glyph horiz-adv-x="690" d="M 0 0 L 0 0 Z M 444 -3 L 348 265 L 247 -3 L 160 -3 L 0 498 L 138 498 L 224 199 L 313 455 L 396 455 L 481 200 L 568 498 L 690 498 L 529 -3 L 444 -3 Z M 351 553 L 351 553 Z M 533 553 L 411 553 L 351 639 L 290 553 L 170 553 L 285 727 L 418 727 L 533 553 Z" unicode="ŵ" />
<glyph horiz-adv-x="605" d="M 0 0 L 0 0 Z M 622 730 L 380 305 L 380 0 L 230 0 L 230 310 L -6 730 L 157 730 L 312 447 L 470 730 L 622 730 Z M 312 785 L 312 785 Z M 494 785 L 372 785 L 312 871 L 251 785 L 131 785 L 246 959 L 379 959 L 494 785 Z" unicode="Ŷ" />
<glyph horiz-adv-x="493" d="M 0 0 L 0 0 Z M 499 498 L 256 -83 C 236 -127 210 -157 177 -174 C 143 -191 110 -200 78 -200 C 58 -200 42 -197 28 -193 C 14 -189 4 -185 -2 -183 L 36 -74 C 38 -76 44 -78 53 -81 C 61 -83 70 -85 79 -85 C 94 -85 107 -80 118 -70 C 128 -60 138 -45 148 -25 L 180 49 L -6 498 L 141 498 L 251 207 L 363 498 L 499 498 Z M 250 553 L 250 553 Z M 432 553 L 310 553 L 250 639 L 189 553 L 69 553 L 184 727 L 317 727 L 432 553 Z" unicode="ŷ" />
<glyph horiz-adv-x="616" d="M 0 0 L 0 0 Z M 622 730 L 380 305 L 380 0 L 230 0 L 230 310 L -6 730 L 157 730 L 312 447 L 470 730 L 622 730 Z M 312 785 L 312 785 Z M 464 785 L 349 785 L 349 947 L 464 947 L 464 785 Z M 275 785 L 160 785 L 160 947 L 275 947 L 275 785 Z" unicode="Ÿ" />
<glyph horiz-adv-x="541" d="M 15 0 L 15 0 Z M 517 730 L 517 666 L 206 126 L 528 126 L 528 0 L 15 0 L 15 61 L 324 603 L 36 603 L 36 730 L 517 730 Z M 276 787 L 276 787 Z M 145 787 L 244 951 L 407 951 L 282 787 L 145 787 Z" unicode="Ź" />
<glyph horiz-adv-x="423" d="M 12 0 L 12 0 Z M 404 498 L 404 436 L 200 115 L 413 115 L 413 0 L 12 0 L 12 50 L 224 383 L 22 383 L 22 498 L 404 498 Z M 216 555 L 216 555 Z M 85 555 L 184 719 L 347 719 L 222 555 L 85 555 Z" unicode="ź" />
<glyph horiz-adv-x="541" d="M 15 0 L 15 0 Z M 517 730 L 517 666 L 206 126 L 528 126 L 528 0 L 15 0 L 15 61 L 324 603 L 36 603 L 36 730 L 517 730 Z M 276 788 L 276 788 Z M 339 788 L 214 788 L 214 944 L 339 944 L 339 788 Z" unicode="Ż" />
<glyph horiz-adv-x="423" d="M 12 0 L 12 0 Z M 404 498 L 404 436 L 200 115 L 413 115 L 413 0 L 12 0 L 12 50 L 224 383 L 22 383 L 22 498 L 404 498 Z M 216 556 L 216 556 Z M 279 556 L 154 556 L 154 712 L 279 712 L 279 556 Z" unicode="ż" />
<glyph horiz-adv-x="549" d="M 15 0 L 15 0 Z M 517 730 L 517 666 L 206 126 L 528 126 L 528 0 L 15 0 L 15 61 L 324 603 L 36 603 L 36 730 L 517 730 Z M 276 785 L 276 785 Z M 95 959 L 217 959 L 277 873 L 338 959 L 458 959 L 343 785 L 210 785 L 95 959 Z" unicode="Ž" />
<glyph horiz-adv-x="423" d="M 12 0 L 12 0 Z M 404 498 L 404 436 L 200 115 L 413 115 L 413 0 L 12 0 L 12 50 L 224 383 L 22 383 L 22 498 L 404 498 Z" unicode="ž" />
<glyph horiz-adv-x="386" d="M 213 -47 C 211 -63 207 -78 200 -94 C 193 -110 184 -124 172 -137 C 160 -149 147 -159 131 -167 C 115 -175 97 -179 77 -179 C 54 -179 33 -177 13 -173 C -7 -169 -22 -164 -33 -159 L -20 -60 C -15 -60 -8 -62 1 -64 C 11 -66 20 -68 29 -68 C 47 -68 62 -61 74 -49 C 86 -37 93 -19 96 4 L 124 317 L 31 317 L 31 426 L 133 426 L 150 615 C 152 636 157 655 167 671 C 176 687 187 701 201 712 C 214 723 229 731 245 737 C 261 742 276 745 291 745 C 306 745 322 744 339 743 C 355 742 365 741 368 741 L 359 622 C 357 622 353 623 347 624 C 341 624 335 625 329 625 C 310 625 295 618 283 606 C 271 593 265 573 263 547 L 253 426 L 353 426 L 353 317 L 244 317 L 213 -47 Z" unicode="ƒ" />
<glyph horiz-adv-x="529" d="M 19 0 L 19 0 Z M 269 -10 C 215 -10 167 -2 125 12 C 83 26 48 49 19 80 L 101 183 C 117 162 140 144 170 130 C 199 116 230 109 263 109 C 289 109 312 116 330 130 C 348 144 358 164 358 189 C 358 214 348 235 330 252 C 311 269 280 288 238 309 C 180 335 133 366 97 400 C 61 434 44 484 44 549 C 44 577 49 603 61 627 C 72 651 87 671 107 688 C 127 704 150 717 178 726 C 206 735 236 740 269 740 C 317 740 357 732 391 718 C 425 704 453 687 476 668 L 404 562 C 385 576 364 589 342 600 C 320 610 296 616 272 616 C 246 616 226 609 210 596 C 194 583 186 566 186 546 C 186 523 195 504 214 488 C 232 472 267 452 319 428 C 381 399 426 368 456 334 C 485 300 500 254 500 196 C 500 162 493 133 480 107 C 467 81 450 59 429 42 C 408 25 384 12 356 3 C 328 -5 299 -10 269 -10 Z M 249 -66 L 249 -66 Z M 359 -66 C 358 -93 353 -122 345 -152 C 337 -182 327 -210 316 -236 C 304 -262 292 -284 279 -304 C 266 -324 254 -337 243 -345 L 139 -299 C 146 -290 154 -277 163 -260 C 171 -243 179 -224 187 -203 C 194 -182 200 -160 206 -136 C 211 -112 215 -88 217 -66 L 359 -66 Z" unicode="Ș" />
<glyph horiz-adv-x="428" d="M 21 0 L 21 0 Z M 228 -10 C 184 -10 144 -3 108 8 C 72 20 43 36 21 56 L 81 145 C 99 130 122 118 148 109 C 174 100 198 96 220 96 C 236 96 250 100 261 108 C 271 116 277 126 277 140 C 277 153 269 165 253 175 C 237 185 213 195 181 206 C 137 220 103 239 77 264 C 51 288 38 322 38 365 C 38 405 55 439 89 467 C 123 494 165 508 217 508 C 259 508 295 502 326 491 C 356 480 379 468 395 456 L 344 361 C 327 371 308 381 288 390 C 267 398 246 403 226 403 C 210 403 195 400 183 394 C 171 388 165 379 165 367 C 165 354 171 344 184 336 C 196 328 222 318 260 304 C 306 287 341 267 367 244 C 392 221 405 188 405 145 C 405 120 400 98 390 79 C 380 59 368 43 352 30 C 336 16 317 6 295 0 C 273 -6 251 -10 228 -10 Z M 206 -64 L 206 -64 Z M 316 -64 C 315 -91 310 -120 302 -150 C 294 -180 284 -208 273 -234 C 261 -260 249 -282 236 -302 C 223 -322 211 -335 200 -343 L 96 -297 C 103 -288 111 -275 120 -258 C 128 -241 136 -222 144 -201 C 151 -180 157 -158 163 -134 C 168 -110 172 -86 174 -64 L 316 -64 Z" unicode="ș" />
<glyph horiz-adv-x="515" d="M 8 0 L 8 0 Z M 507 602 L 331 602 L 331 0 L 181 0 L 181 602 L 8 602 L 8 730 L 507 730 L 507 602 Z M 232 -64 L 232 -64 Z M 342 -64 C 341 -91 336 -120 328 -150 C 320 -180 310 -208 299 -234 C 287 -260 275 -282 262 -302 C 249 -322 237 -335 226 -343 L 122 -297 C 129 -288 137 -275 146 -258 C 154 -241 162 -222 170 -201 C 177 -180 183 -158 189 -134 C 194 -110 198 -86 200 -64 L 342 -64 Z" unicode="Ț" />
<glyph horiz-adv-x="322" d="M 7 0 L 7 0 Z M 300 122 L 317 14 C 309 8 297 4 281 0 C 265 -4 247 -6 229 -6 C 209 -6 189 -3 169 3 C 149 9 132 18 116 31 C 100 43 87 60 77 80 C 67 100 63 125 63 154 L 63 384 L 7 384 L 7 498 L 65 498 L 65 625 L 200 639 L 200 498 L 297 498 L 297 384 L 201 384 L 201 170 C 201 149 205 134 214 125 C 223 116 237 112 255 112 C 263 112 272 113 281 115 C 289 117 296 120 300 122 Z M 158 -64 L 158 -64 Z M 268 -64 C 267 -91 262 -120 254 -150 C 246 -180 236 -208 225 -234 C 213 -260 201 -282 188 -302 C 175 -322 163 -335 152 -343 L 48 -297 C 55 -288 63 -275 72 -258 C 80 -241 88 -222 96 -201 C 103 -180 109 -158 115 -134 C 120 -110 124 -86 126 -64 L 268 -64 Z" unicode="ț" />
<glyph horiz-adv-x="261" d="M 209 498 L 209 -38 C 209 -84 195 -122 167 -153 C 139 -183 100 -198 50 -198 C 32 -198 12 -196 -8 -192 C -29 -188 -46 -183 -58 -178 L -38 -75 C -32 -77 -24 -80 -14 -82 C -4 -84 7 -86 19 -86 C 35 -86 48 -79 57 -67 C 66 -54 71 -38 71 -19 L 71 498 L 209 498 Z" unicode="ȷ" />
<glyph horiz-adv-x="500" d="M 432 553 L 310 553 L 250 639 L 189 553 L 69 553 L 184 727 L 317 727 L 432 553 Z" unicode="ˆ" />
<glyph horiz-adv-x="500" d="M 69 727 L 191 727 L 251 641 L 312 727 L 432 727 L 317 553 L 184 553 L 69 727 Z" unicode="ˇ" />
<glyph horiz-adv-x="500" d="M 303 715 L 418 715 C 413 659 395 618 365 592 C 334 566 296 553 250 553 C 204 553 165 566 135 592 C 105 618 87 659 83 715 L 197 715 C 198 689 203 670 211 656 C 219 642 232 636 250 636 C 268 636 281 642 289 655 C 297 668 302 688 303 715 Z" unicode="˘" />
<glyph horiz-adv-x="500" d="M 313 556 L 188 556 L 188 712 L 313 712 L 313 556 Z" unicode="˙" />
<glyph horiz-adv-x="505" d="M 252 547 C 218 547 189 559 165 583 C 141 607 130 636 130 670 C 130 703 141 732 165 756 C 189 780 218 792 252 792 C 286 792 315 780 339 756 C 363 732 376 703 376 670 C 376 636 363 607 339 583 C 315 559 286 547 252 547 Z M 253 620 C 266 620 277 624 287 634 C 296 643 301 655 301 669 C 301 683 296 694 287 704 C 277 714 266 719 253 719 C 239 719 228 714 218 704 C 208 694 204 683 204 669 C 204 655 208 643 218 634 C 228 624 239 620 253 620 Z" unicode="˚" />
<glyph horiz-adv-x="500" d="M 359 -67 L 396 -125 C 374 -148 350 -165 325 -177 C 299 -188 271 -194 240 -194 C 204 -194 176 -186 156 -171 C 136 -156 127 -137 127 -115 C 127 -90 138 -67 160 -45 C 182 -23 212 -4 251 12 L 313 12 C 291 1 274 -10 262 -23 C 250 -35 244 -47 244 -59 C 244 -69 248 -78 256 -84 C 264 -90 274 -93 287 -93 C 301 -93 315 -90 327 -85 C 339 -80 350 -74 359 -67 Z" unicode="˛" />
<glyph horiz-adv-x="500" d="M 329 709 L 435 709 C 435 657 426 618 410 593 C 394 568 372 556 346 556 C 327 556 311 559 297 565 C 283 571 271 577 261 583 C 252 588 243 593 235 599 C 226 604 218 607 210 607 C 201 607 194 602 189 594 C 184 586 182 574 182 559 L 77 559 C 77 611 87 649 109 675 C 130 700 152 713 176 713 C 194 713 209 709 221 703 C 233 697 245 690 256 684 C 264 678 271 673 279 669 C 286 664 293 662 300 662 C 306 662 313 666 319 674 C 325 682 329 693 329 709 Z" unicode="˜" />
<glyph horiz-adv-x="500" d="M 50 553 L 137 710 L 283 710 L 170 553 L 50 553 Z M 259 553 L 347 710 L 493 710 L 380 553 L 259 553 Z" unicode="˝" />
<glyph horiz-adv-x="0" d="M 0 553 L 0 553 Z M 131 553 L -6 553 L -132 717 L 31 717 L 131 553 Z" unicode="̀" />
<glyph horiz-adv-x="0" d="M 0 555 L 0 555 Z M -131 555 L -32 719 L 131 719 L 6 555 L -131 555 Z" unicode="́" />
<glyph horiz-adv-x="0" d="M 0 553 L 0 553 Z M 182 553 L 60 553 L 0 639 L -61 553 L -181 553 L -66 727 L 67 727 L 182 553 Z" unicode="̂" />
<glyph horiz-adv-x="0" d="M 0 556 L 0 556 Z M 74 709 L 180 709 C 180 657 171 618 155 593 C 139 568 117 556 91 556 C 72 556 56 559 42 565 C 28 571 16 577 6 583 C -2 588 -11 593 -20 599 C -28 604 -37 607 -45 607 C -53 607 -60 602 -65 594 C -70 586 -73 574 -73 559 L -178 559 C -178 611 -167 649 -146 675 C -124 700 -102 713 -79 713 C -61 713 -45 709 -33 703 C -21 697 -9 690 1 684 C 9 678 16 673 24 669 C 31 664 38 662 45 662 C 51 662 58 666 64 674 C 70 682 74 693 74 709 Z" unicode="̃" />
<glyph horiz-adv-x="0" d="M 0 563 L 0 563 Z M 140 563 L -140 563 L -140 668 L 140 668 L 140 563 Z" unicode="̄" />
<glyph horiz-adv-x="0" d="M 0 553 L 0 553 Z M 53 715 L 168 715 C 163 659 145 618 115 592 C 84 566 46 553 0 553 C -46 553 -84 566 -114 592 C -144 618 -162 659 -167 715 L -53 715 C -51 689 -47 670 -39 656 C -31 642 -18 636 0 636 C 18 636 31 642 39 655 C 47 668 52 688 53 715 Z" unicode="̆" />
<glyph horiz-adv-x="0" d="M 0 556 L 0 556 Z M 63 556 L -62 556 L -62 712 L 63 712 L 63 556 Z" unicode="̇" />
<glyph horiz-adv-x="0" d="M 0 553 L 0 553 Z M 152 553 L 37 553 L 37 715 L 152 715 L 152 553 Z M -37 553 L -152 553 L -152 715 L -37 715 L -37 553 Z" unicode="̈" />
<glyph horiz-adv-x="0" d="M 0 547 L 0 547 Z M 0 547 C -34 547 -62 559 -86 583 C -110 607 -122 636 -122 670 C -122 703 -110 732 -86 756 C -62 780 -34 792 0 792 C 34 792 63 780 87 756 C 111 732 124 703 124 670 C 124 636 111 607 87 583 C 63 559 34 547 0 547 Z M 1 620 C 14 620 25 624 35 634 C 44 643 49 655 49 669 C 49 683 44 694 35 704 C 25 714 14 719 1 719 C -12 719 -23 714 -33 704 C -43 694 -48 683 -48 669 C -48 655 -43 643 -33 634 C -23 624 -12 620 1 620 Z" unicode="̊" />
<glyph horiz-adv-x="0" d="M 0 553 L 0 553 Z M -221 553 L -134 710 L 12 710 L -101 553 L -221 553 Z M -12 553 L 76 710 L 222 710 L 109 553 L -12 553 Z" unicode="̋" />
<glyph horiz-adv-x="0" d="M 0 553 L 0 553 Z M -181 727 L -59 727 L 1 641 L 62 727 L 182 727 L 67 553 L -66 553 L -181 727 Z" unicode="̌" />
<glyph horiz-adv-x="0" d="M 0 -64 L 0 -64 Z M 110 -64 C 109 -91 104 -120 96 -150 C 88 -180 78 -208 67 -234 C 55 -260 43 -282 30 -302 C 17 -322 5 -335 -6 -343 L -110 -297 C -102 -288 -94 -275 -86 -258 C -77 -241 -69 -222 -62 -201 C -54 -180 -48 -158 -43 -134 C -37 -110 -34 -86 -32 -64 L 110 -64 Z" unicode="̦" />
<glyph horiz-adv-x="0" d="M 0 0 L 0 0 Z M 7 -189 C -18 -189 -43 -186 -68 -180 C -93 -174 -113 -166 -127 -157 L -108 -101 C -100 -105 -89 -109 -75 -114 C -61 -118 -47 -121 -32 -121 C -22 -121 -14 -118 -6 -114 C 1 -110 5 -104 5 -97 C 5 -88 1 -82 -5 -78 C -11 -74 -19 -73 -27 -73 C -32 -73 -37 -73 -42 -74 C -46 -75 -51 -76 -56 -78 L -74 -58 L -13 14 L 65 14 L 20 -42 C 50 -38 76 -43 96 -56 C 116 -68 126 -87 126 -111 C 126 -137 114 -156 90 -169 C 66 -182 38 -189 7 -189 Z" unicode="̧" />
<glyph horiz-adv-x="0" d="M 0 0 L 0 0 Z M 98 -67 L 135 -125 C 113 -148 89 -165 64 -177 C 38 -188 10 -194 -21 -194 C -57 -194 -84 -186 -104 -171 C -124 -156 -134 -137 -134 -115 C -134 -90 -123 -67 -101 -45 C -79 -23 -48 -4 -10 12 L 52 12 C 30 1 13 -10 1 -23 C -10 -35 -17 -47 -17 -59 C -17 -69 -13 -78 -5 -84 C 3 -90 13 -93 26 -93 C 40 -93 54 -90 66 -85 C 78 -80 89 -74 98 -67 Z" unicode="̨" />
<glyph horiz-adv-x="555" d="M 0 0 L 0 0 Z M 632 0 L -2 0 L 293 731 L 339 731 L 632 0 Z M 448 108 L 311 476 L 175 108 L 448 108 Z" unicode="Δ" />
<glyph horiz-adv-x="699" d="" unicode="Ω" />
<glyph horiz-adv-x="581" d="M 60 0 L 60 0 Z M 60 -114 L 60 502 L 198 502 L 198 177 C 198 155 206 138 223 124 C 240 110 262 103 288 103 C 315 103 339 111 359 129 C 379 146 389 169 389 197 L 389 502 L 526 502 L 526 0 L 400 0 L 400 78 C 387 56 368 37 342 21 C 316 5 288 -3 260 -5 C 244 -5 230 -2 216 3 C 202 8 193 16 187 27 L 187 -114 L 60 -114 Z" unicode="μ" />
<glyph horiz-adv-x="612" d="M 215 419 L 215 0 L 78 0 L 78 419 L 15 419 L 15 526 L 597 526 L 597 419 L 532 419 L 532 0 L 395 0 L 395 419 L 215 419 Z" unicode="π" />
<glyph horiz-adv-x="863" d="M 1 0 L 1 0 Z M 856 730 L 652 -5 L 567 -5 L 430 465 L 287 -5 L 201 -5 L 1 730 L 149 730 L 265 278 L 392 730 L 480 730 L 607 277 L 722 730 L 856 730 Z M 434 785 L 434 785 Z M 565 785 L 428 785 L 302 949 L 465 949 L 565 785 Z" unicode="Ẁ" />
<glyph horiz-adv-x="690" d="M 0 0 L 0 0 Z M 444 -3 L 348 265 L 247 -3 L 160 -3 L 0 498 L 138 498 L 224 199 L 313 455 L 396 455 L 481 200 L 568 498 L 690 498 L 529 -3 L 444 -3 Z M 351 553 L 351 553 Z M 482 553 L 345 553 L 219 717 L 382 717 L 482 553 Z" unicode="ẁ" />
<glyph horiz-adv-x="863" d="M 1 0 L 1 0 Z M 856 730 L 652 -5 L 567 -5 L 430 465 L 287 -5 L 201 -5 L 1 730 L 149 730 L 265 278 L 392 730 L 480 730 L 607 277 L 722 730 L 856 730 Z M 434 787 L 434 787 Z M 303 787 L 402 951 L 565 951 L 440 787 L 303 787 Z" unicode="Ẃ" />
<glyph horiz-adv-x="690" d="M 0 0 L 0 0 Z M 444 -3 L 348 265 L 247 -3 L 160 -3 L 0 498 L 138 498 L 224 199 L 313 455 L 396 455 L 481 200 L 568 498 L 690 498 L 529 -3 L 444 -3 Z M 351 555 L 351 555 Z M 220 555 L 319 719 L 482 719 L 357 555 L 220 555 Z" unicode="ẃ" />
<glyph horiz-adv-x="863" d="M 1 0 L 1 0 Z M 856 730 L 652 -5 L 567 -5 L 430 465 L 287 -5 L 201 -5 L 1 730 L 149 730 L 265 278 L 392 730 L 480 730 L 607 277 L 722 730 L 856 730 Z M 434 785 L 434 785 Z M 586 785 L 471 785 L 471 947 L 586 947 L 586 785 Z M 397 785 L 282 785 L 282 947 L 397 947 L 397 785 Z" unicode="Ẅ" />
<glyph horiz-adv-x="690" d="M 0 0 L 0 0 Z M 444 -3 L 348 265 L 247 -3 L 160 -3 L 0 498 L 138 498 L 224 199 L 313 455 L 396 455 L 481 200 L 568 498 L 690 498 L 529 -3 L 444 -3 Z M 351 553 L 351 553 Z M 503 553 L 388 553 L 388 715 L 503 715 L 503 553 Z M 314 553 L 199 553 L 199 715 L 314 715 L 314 553 Z" unicode="ẅ" />
<glyph horiz-adv-x="605" d="M 0 0 L 0 0 Z M 622 730 L 380 305 L 380 0 L 230 0 L 230 310 L -6 730 L 157 730 L 312 447 L 470 730 L 622 730 Z M 312 785 L 312 785 Z M 443 785 L 306 785 L 180 949 L 343 949 L 443 785 Z" unicode="Ỳ" />
<glyph horiz-adv-x="493" d="M 0 0 L 0 0 Z M 499 498 L 256 -83 C 236 -127 210 -157 177 -174 C 143 -191 110 -200 78 -200 C 58 -200 42 -197 28 -193 C 14 -189 4 -185 -2 -183 L 36 -74 C 38 -76 44 -78 53 -81 C 61 -83 70 -85 79 -85 C 94 -85 107 -80 118 -70 C 128 -60 138 -45 148 -25 L 180 49 L -6 498 L 141 498 L 251 207 L 363 498 L 499 498 Z M 250 553 L 250 553 Z M 381 553 L 244 553 L 118 717 L 281 717 L 381 553 Z" unicode="ỳ" />
<glyph horiz-adv-x="460" d="M 423 208 L 38 208 L 38 328 L 423 328 L 423 208 Z" unicode="–" />
<glyph horiz-adv-x="645" d="M 608 208 L 38 208 L 38 328 L 608 328 L 608 208 Z" unicode="—" />
<glyph horiz-adv-x="300" d="M 33 507 L 33 514 C 33 552 43 590 63 629 C 83 668 112 704 148 737 L 285 731 C 275 723 264 712 252 698 C 239 684 227 667 216 649 C 205 630 196 609 188 586 C 180 563 177 539 177 515 L 177 507 L 33 507 Z" unicode="‘" />
<glyph horiz-adv-x="300" d="M 267 737 L 267 730 C 267 692 256 653 236 615 C 215 577 187 541 152 507 L 15 513 C 24 521 35 533 48 548 C 60 562 72 579 83 597 C 94 615 103 636 111 658 C 119 680 123 704 123 729 L 123 737 L 267 737 Z" unicode="’" />
<glyph horiz-adv-x="300" d="M 267 118 L 267 111 C 267 73 256 34 236 -3 C 215 -41 187 -78 152 -112 L 14 -106 C 23 -97 34 -85 47 -71 C 59 -56 71 -39 83 -21 C 94 -3 103 17 111 39 C 119 61 123 85 123 110 L 123 118 L 267 118 Z" unicode="‚" />
<glyph horiz-adv-x="488" d="M 238 507 L 238 514 C 238 551 248 588 268 626 C 288 663 316 700 353 737 L 476 731 C 466 722 454 710 442 696 C 430 682 418 665 407 647 C 395 628 386 607 378 585 C 370 563 367 539 367 515 L 367 507 L 238 507 Z M 33 507 L 33 514 C 33 551 43 588 64 626 C 85 663 113 700 147 737 L 271 731 C 262 722 251 710 239 696 C 226 682 214 665 202 647 C 190 628 181 607 173 585 C 165 563 161 539 161 515 L 161 507 L 33 507 Z" unicode="“" />
<glyph horiz-adv-x="488" d="M 251 737 L 251 730 C 251 692 241 654 222 617 C 203 579 175 543 138 507 L 15 513 C 25 523 37 535 50 550 C 62 564 74 581 85 599 C 95 617 104 637 112 659 C 119 681 123 704 123 729 L 123 737 L 251 737 Z M 455 737 L 455 730 C 455 692 445 654 425 616 C 405 578 378 542 342 507 L 218 513 C 228 523 240 535 253 550 C 265 564 277 581 288 599 C 299 617 308 637 315 659 C 322 681 326 704 326 729 L 326 737 L 455 737 Z" unicode="”" />
<glyph horiz-adv-x="488" d="M 251 123 L 251 116 C 251 78 241 40 222 3 C 203 -34 175 -71 138 -107 L 14 -101 C 24 -91 36 -78 49 -64 C 61 -50 73 -33 84 -15 C 95 2 104 23 111 45 C 118 67 122 90 122 115 L 122 123 L 251 123 Z M 455 123 L 455 116 C 455 78 445 40 425 2 C 405 -35 378 -71 342 -107 L 219 -101 C 229 -91 241 -78 254 -64 C 266 -49 278 -33 289 -15 C 300 3 309 23 316 45 C 323 67 327 90 327 115 L 327 123 L 455 123 Z" unicode="„" />
<glyph horiz-adv-x="524" d="M 502 352 L 331 352 L 331 -179 L 187 -179 L 187 352 L 22 352 L 22 471 L 187 471 L 187 730 L 331 730 L 331 471 L 502 471 L 502 352 Z" unicode="†" />
<glyph horiz-adv-x="528" d="M 190 -179 L 190 83 L 31 83 L 31 202 L 190 202 L 190 366 L 31 366 L 31 485 L 190 485 L 190 730 L 333 730 L 333 485 L 497 485 L 497 366 L 333 366 L 333 202 L 497 202 L 497 83 L 333 83 L 333 -179 L 190 -179 Z" unicode="‡" />
<glyph horiz-adv-x="382" d="M 191 504 C 225 504 255 491 279 467 C 303 443 316 413 316 379 C 316 345 303 315 279 291 C 255 267 225 255 191 255 C 156 255 127 267 103 291 C 79 315 67 345 67 379 C 67 413 79 443 103 467 C 127 491 156 504 191 504 Z" unicode="•" />
<glyph horiz-adv-x="758" d="M 57 0 L 57 151 L 196 151 L 196 0 L 57 0 Z M 309 0 L 309 151 L 449 151 L 449 0 L 309 0 Z M 561 0 L 561 151 L 701 151 L 701 0 L 561 0 Z" unicode="…" />
<glyph horiz-adv-x="1181" d="M 202 353 C 181 353 160 357 140 366 C 120 374 102 387 86 403 C 70 419 58 440 48 464 C 38 488 34 515 34 546 C 34 572 38 597 47 621 C 55 644 67 664 82 682 C 97 699 115 713 135 723 C 155 733 176 739 199 739 C 223 739 246 733 267 723 C 287 713 305 699 320 682 C 335 664 347 644 355 621 C 363 598 368 574 368 549 C 368 521 363 496 355 472 C 346 448 334 428 319 410 C 304 392 286 378 266 368 C 246 358 224 353 202 353 Z M 131 0 L 576 730 L 667 730 L 222 0 L 131 0 Z M 147 546 C 147 517 151 494 160 477 C 169 459 183 451 201 451 C 221 451 235 459 243 477 C 251 495 256 518 256 546 C 256 573 252 595 244 613 C 236 631 222 640 202 640 C 183 640 169 631 160 613 C 151 595 147 573 147 546 Z M 609 -3 C 588 -3 567 1 547 10 C 527 18 509 31 493 47 C 477 63 465 83 455 107 C 445 131 441 158 441 189 C 441 215 445 240 454 264 C 462 288 474 308 489 326 C 504 343 522 357 543 367 C 563 377 586 383 610 383 C 634 383 657 377 678 367 C 698 357 716 343 731 326 C 745 308 757 288 765 265 C 773 241 777 217 777 192 C 777 165 772 140 764 116 C 756 92 744 71 729 54 C 714 36 696 22 676 12 C 655 2 633 -3 609 -3 Z M 979 -3 C 957 -3 937 1 917 10 C 897 18 879 31 863 47 C 847 63 835 83 825 107 C 815 131 811 158 811 189 C 811 215 815 240 824 264 C 832 288 844 308 859 326 C 873 343 891 357 912 367 C 932 377 955 383 979 383 C 1003 383 1026 377 1047 367 C 1067 357 1085 343 1100 326 C 1115 308 1127 288 1135 265 C 1143 241 1147 217 1147 192 C 1147 165 1142 140 1134 116 C 1126 92 1114 71 1099 54 C 1084 36 1066 22 1046 12 C 1025 2 1003 -3 979 -3 Z M 608 96 C 628 96 642 104 652 121 C 661 137 666 160 666 189 C 666 217 661 240 652 258 C 642 275 628 284 609 284 C 592 284 579 275 569 258 C 559 240 555 217 555 189 C 555 159 559 136 569 120 C 578 104 591 96 608 96 Z M 978 96 C 997 96 1011 104 1021 121 C 1030 137 1035 160 1035 189 C 1035 217 1030 240 1022 258 C 1013 275 999 284 979 284 C 961 284 948 275 938 258 C 928 240 924 217 924 189 C 924 159 928 136 938 120 C 948 104 961 96 978 96 Z" unicode="‰" />
<glyph horiz-adv-x="257" d="M 229 75 L 25 248 L 25 332 L 229 502 L 229 366 L 144 287 L 229 214 L 229 75 Z" unicode="‹" />
<glyph horiz-adv-x="258" d="M 28 503 L 233 330 L 233 247 L 28 77 L 28 212 L 112 291 L 28 363 L 28 503 Z" unicode="›" />
<glyph horiz-adv-x="145" d="M 310 730 L -37 0 L -145 0 L 202 730 L 310 730 Z" unicode="⁄" />
<glyph horiz-adv-x="332" d="M 13 453 L 13 522 L 192 735 L 264 735 L 264 526 L 318 526 L 318 453 L 264 453 L 264 373 L 165 373 L 165 453 L 13 453 Z M 97 518 L 167 518 L 167 604 L 97 518 Z" unicode="⁴" />
<glyph horiz-adv-x="537" d="M 532 113 C 513 75 484 44 446 22 C 407 0 365 -12 319 -12 C 257 -12 205 11 164 57 C 122 103 95 166 82 246 L 27 246 L 27 332 L 73 332 C 73 336 73 341 73 346 C 73 350 73 355 73 360 C 73 364 73 369 73 373 C 73 377 73 381 73 386 L 27 386 L 27 473 L 81 473 C 87 513 96 549 108 582 C 120 615 136 643 156 667 C 176 691 199 709 226 722 C 253 735 284 742 318 742 C 378 742 424 729 457 705 C 490 681 513 653 527 623 L 421 565 C 411 583 398 598 382 610 C 366 622 345 628 319 628 C 290 628 266 615 247 591 C 228 566 215 527 209 473 L 476 473 L 476 386 L 203 386 C 203 382 203 378 203 374 C 203 370 203 366 203 362 C 203 357 203 352 203 347 C 203 341 203 336 203 332 L 476 332 L 476 246 L 212 246 C 220 195 235 158 255 135 C 275 112 298 101 324 101 C 350 101 371 108 389 124 C 407 140 420 158 430 179 L 532 113 Z" unicode="€" />
<glyph horiz-adv-x="948" d="M 902 303 L 779 303 L 779 529 L 657 357 L 641 357 L 521 527 L 521 303 L 402 303 L 402 730 L 502 730 L 650 523 L 798 730 L 902 730 L 902 303 Z M 373 594 L 265 594 L 265 303 L 125 303 L 125 594 L 13 594 L 13 730 L 373 730 L 373 594 Z" unicode="™" />
<glyph horiz-adv-x="774" d="M 35 0 L 35 127 L 236 127 L 236 173 C 206 181 178 194 152 212 C 126 229 104 250 86 274 C 67 298 52 325 42 355 C 31 385 26 417 26 451 C 26 491 34 530 50 566 C 66 602 90 634 120 661 C 150 688 188 709 232 725 C 276 741 327 749 383 749 C 441 749 492 741 538 725 C 583 709 621 688 652 661 C 683 634 707 602 723 566 C 739 530 748 492 748 452 C 748 382 730 323 696 275 C 661 226 608 192 537 173 L 537 127 L 738 127 L 738 0 L 433 0 L 433 246 C 485 260 525 285 553 321 C 581 357 595 397 595 443 C 595 470 589 495 578 518 C 567 541 552 561 533 578 C 514 594 492 607 466 617 C 440 626 413 631 384 631 C 355 631 328 626 303 617 C 278 607 256 594 238 578 C 220 561 205 541 195 518 C 184 494 179 469 179 441 C 179 397 192 357 219 323 C 246 288 287 262 341 246 L 341 0 L 35 0 Z" unicode="Ω" />
<glyph horiz-adv-x="569" d="M 528 296 C 528 239 521 191 507 152 C 493 112 475 81 452 57 C 429 33 402 15 372 5 C 341 -5 309 -11 276 -11 C 246 -11 216 -5 186 4 C 156 14 130 29 107 49 C 84 69 65 93 51 123 C 36 153 29 187 29 225 C 29 259 35 292 47 322 C 59 352 76 377 97 399 C 118 420 143 437 171 449 C 199 461 228 468 259 468 C 292 468 321 461 346 448 C 370 434 390 417 404 397 C 397 450 385 496 367 536 C 349 575 327 607 303 633 C 278 659 251 678 221 692 C 191 705 160 713 130 715 L 195 802 C 228 802 264 792 303 773 C 342 754 378 724 411 684 C 444 644 472 591 494 527 C 516 463 528 386 528 296 Z M 277 93 C 311 93 337 105 357 129 C 376 153 386 190 386 239 C 386 279 376 310 358 333 C 340 356 313 368 279 368 C 247 368 221 356 202 333 C 183 309 174 275 174 229 C 174 181 183 147 202 125 C 220 103 245 93 277 93 Z" unicode="∂" />
<glyph horiz-adv-x="627" d="M 632 0 L -2 0 L 293 731 L 339 731 L 632 0 Z M 448 108 L 311 476 L 175 108 L 448 108 Z" unicode="∆" />
<glyph horiz-adv-x="689" d="M 254 607 L 254 0 L 111 0 L 111 607 L 15 607 L 15 730 L 674 730 L 674 607 L 585 607 L 585 0 L 442 0 L 442 607 L 254 607 Z" unicode="∏" />
<glyph horiz-adv-x="600" d="M 233 605 L 444 307 L 199 -54 L 556 -54 L 556 -179 L -31 -179 L 303 306 L -1 730 L 535 730 L 535 605 L 233 605 Z" unicode="∑" />
<glyph horiz-adv-x="510" d="M 473 276 L 38 276 L 38 387 L 473 387 L 473 276 Z" unicode="−" />
<glyph horiz-adv-x="510" d="M 512 730 L 198 0 L 186 0 L 9 336 L 105 412 L 209 197 L 426 730 L 512 730 Z" unicode="√" />
<glyph horiz-adv-x="358" d="M 97 3 L 152 615 C 154 636 159 655 168 671 C 177 687 188 701 201 712 C 214 723 229 731 245 737 C 261 742 276 745 291 745 C 306 745 322 744 339 743 C 355 742 365 741 368 741 L 359 622 C 357 622 353 623 347 624 C 341 624 335 625 329 625 C 310 625 295 618 283 606 C 271 593 265 573 263 547 L 213 -47 C 211 -63 207 -79 200 -95 C 193 -111 184 -125 172 -137 C 160 -149 147 -159 131 -167 C 115 -175 97 -179 77 -179 C 54 -179 33 -176 13 -172 C -7 -168 -22 -163 -33 -157 L -19 -59 C -15 -59 -8 -61 1 -64 C 11 -66 20 -68 29 -68 C 47 -68 63 -62 75 -50 C 87 -38 95 -20 97 3 Z" unicode="∫" />
<glyph horiz-adv-x="485" d="M 351 515 L 455 515 C 454 491 451 468 447 447 C 442 425 435 407 427 391 C 418 375 407 362 394 353 C 380 343 364 339 346 339 C 323 339 303 342 285 350 C 267 357 253 366 241 376 C 229 384 218 392 207 399 C 195 405 184 409 172 409 C 161 409 151 402 141 388 C 131 374 126 358 126 342 L 28 342 C 28 394 37 436 56 468 C 75 500 103 516 140 516 C 162 516 182 511 200 502 C 218 492 232 483 244 475 C 255 467 266 460 277 454 C 288 448 299 445 309 445 C 325 445 336 451 342 464 C 348 477 351 494 351 515 Z M 352 324 L 455 324 C 454 300 451 277 446 256 C 441 234 434 216 425 200 C 416 184 405 172 391 163 C 377 153 361 149 343 149 C 319 149 299 152 282 160 C 264 167 250 175 239 185 C 228 193 217 201 206 207 C 194 213 183 217 172 217 C 161 217 151 210 141 197 C 131 183 127 168 127 152 L 28 152 C 28 204 37 246 57 278 C 76 310 105 326 143 326 C 165 326 186 321 204 311 C 222 301 236 291 248 283 C 259 274 270 267 281 261 C 291 255 302 253 312 253 C 327 253 337 259 343 273 C 349 286 352 303 352 324 Z" unicode="≈" />
<glyph horiz-adv-x="492" d="M 450 156 L 229 156 L 183 49 L 104 81 L 136 156 L 63 156 L 63 272 L 186 272 L 232 379 L 63 379 L 63 495 L 282 495 L 333 613 L 412 581 L 375 495 L 450 495 L 450 379 L 325 379 L 279 272 L 450 272 L 450 156 Z" unicode="≠" />
<glyph horiz-adv-x="493" d="M 195 327 L 429 204 L 429 10 L 58 10 L 58 104 L 391 104 L 59 281 L 59 366 L 429 569 L 429 449 L 195 327 Z" unicode="≤" />
<glyph horiz-adv-x="492" d="M 429 10 L 58 10 L 58 203 L 292 327 L 58 449 L 58 569 L 428 366 L 428 281 L 96 104 L 429 104 L 429 10 Z" unicode="≥" />
<glyph horiz-adv-x="552" d="M 525 326 L 282 -33 L 270 -33 L 27 326 L 27 337 L 270 695 L 282 695 L 525 337 L 525 326 Z M 397 327 L 397 336 L 280 513 L 272 513 L 155 336 L 155 327 L 272 149 L 280 149 L 397 327 Z" unicode="◊" />
<glyph horiz-adv-x="730" d="M 448 654 L 282 654 L 282 730 L 448 730 L 448 654 Z M 452 278 L 278 278 L 278 452 L 452 452 L 452 278 Z M 659 282 L 581 282 L 581 448 L 659 448 L 659 282 Z M 149 282 L 71 282 L 71 448 L 149 448 L 149 282 Z M 448 0 L 282 0 L 282 77 L 448 77 L 448 0 Z" unicode="" />
<glyph horiz-adv-x="569" d="M 327 386 L 223 386 L 223 0 L 86 0 L 86 386 L 10 386 L 10 494 L 86 494 L 86 574 C 86 608 91 637 102 663 C 112 688 126 709 144 726 C 161 742 181 755 204 763 C 226 771 249 776 273 776 C 290 776 308 774 327 770 C 345 766 359 762 367 758 L 344 651 C 339 653 332 655 323 657 C 313 659 304 660 295 660 C 276 660 259 652 244 638 C 229 624 222 602 222 574 L 222 494 L 327 494 L 327 386 Z M 516 570 L 374 570 L 374 694 L 516 694 L 516 570 Z M 515 0 L 377 0 L 377 494 L 515 494 L 515 0 Z" unicode="ﬁ" />
<glyph horiz-adv-x="564" d="M 328 388 L 223 388 L 223 0 L 86 0 L 86 388 L 9 388 L 9 498 L 86 498 L 86 574 C 86 608 91 637 102 663 C 112 688 126 709 144 726 C 161 743 181 756 204 764 C 226 772 249 777 273 777 C 290 777 308 775 327 772 C 345 768 359 764 367 760 L 347 650 C 342 652 335 655 326 658 C 316 660 306 662 296 662 C 277 662 260 654 245 639 C 229 624 222 602 222 574 L 222 498 L 328 498 L 328 388 Z M 509 773 L 509 0 L 371 0 L 371 773 L 509 773 Z" unicode="ﬂ" />
</font>
</defs>
</svg>
