<?xml version="1.0" encoding="utf-8" ?><svg version="1.1" xmlns = 'http://www.w3.org/2000/svg'><defs><font id='web' horiz-adv-x="1000">
<font-face font-family="web" descent="-200" cap-height="730" units-per-em="1000" bbox="-175,-315,1134,1013" x-height="436" ascent="800" />
<missing-glyph horiz-adv-x="500" d="" /><glyph horiz-adv-x="210" d="" unicode=" " />
<glyph horiz-adv-x="265" d="M 180 435 L 155 198 L 116 198 L 92 435 L 92 730 L 180 730 L 180 435 Z M 177 0 L 96 0 L 96 97 L 177 97 L 177 0 Z" unicode="!" />
<glyph horiz-adv-x="396" d="M 326 624 L 320 493 L 259 493 L 255 623 L 255 730 L 326 730 L 326 624 Z M 141 623 L 137 493 L 75 493 L 71 623 L 71 730 L 141 730 L 141 623 Z" unicode="&#x22;" />
<glyph horiz-adv-x="621" d="M 568 230 L 429 230 L 409 0 L 361 1 L 381 230 L 223 230 L 203 0 L 155 1 L 175 230 L 35 230 L 35 294 L 181 294 L 193 432 L 54 432 L 54 497 L 199 497 L 219 729 L 267 729 L 247 497 L 405 497 L 425 729 L 473 729 L 453 497 L 586 497 L 586 432 L 447 432 L 435 294 L 568 294 L 568 230 Z M 229 294 L 387 294 L 399 432 L 241 432 L 229 294 Z" unicode="#" />
<glyph horiz-adv-x="513" d="M 473 186 C 473 136 455 94 419 60 C 383 26 338 6 282 2 L 282 -120 L 227 -120 L 227 2 C 185 5 147 14 113 30 C 79 46 51 64 31 86 L 70 145 C 88 127 111 111 139 98 C 167 84 197 75 227 71 L 227 350 C 161 378 115 408 88 440 C 60 471 47 510 47 557 C 47 603 63 642 97 674 C 130 706 173 724 227 729 L 227 789 L 282 789 L 282 729 C 312 726 342 719 371 707 C 400 695 427 677 452 655 L 408 599 C 390 617 370 631 348 641 C 326 651 304 657 282 661 L 282 404 L 285 403 C 355 370 404 338 432 307 C 459 276 473 236 473 186 Z M 118 558 C 117 530 125 507 141 489 C 157 471 185 451 227 431 L 227 663 C 194 660 168 649 148 631 C 128 612 118 588 118 558 Z M 404 187 C 404 215 396 239 381 259 C 365 279 332 301 282 325 L 282 69 C 316 71 344 83 368 105 C 392 127 404 154 404 187 Z" unicode="$" />
<glyph horiz-adv-x="753" d="M 197 364 C 179 364 160 367 142 375 C 124 383 107 394 93 410 C 79 426 67 445 58 469 C 48 493 44 520 44 552 C 44 577 48 601 56 624 C 64 647 75 667 89 685 C 103 702 119 716 138 726 C 156 736 176 741 197 741 C 220 741 241 736 260 726 C 279 716 295 702 309 686 C 322 669 332 649 340 627 C 347 604 351 580 351 555 C 351 528 347 503 339 480 C 331 456 321 436 307 419 C 293 401 276 388 258 378 C 239 368 219 364 197 364 Z M 191 0 L 135 0 L 553 730 L 609 730 L 191 0 Z M 196 420 C 224 420 246 432 262 457 C 277 481 285 513 285 551 C 285 588 278 619 264 645 C 250 670 228 683 199 683 C 171 683 150 670 135 645 C 119 619 112 588 112 551 C 112 510 120 478 137 455 C 153 431 173 420 196 420 Z M 556 -3 C 538 -3 519 0 501 8 C 483 16 467 27 453 43 C 439 59 427 78 418 102 C 409 126 405 153 405 185 C 405 211 408 235 416 258 C 424 281 434 301 448 318 C 462 335 478 349 497 359 C 516 369 537 374 559 374 C 582 374 603 369 622 359 C 641 349 657 335 671 319 C 684 302 694 282 701 260 C 708 237 712 213 712 188 C 712 161 708 136 700 113 C 692 89 682 69 668 52 C 654 34 638 21 619 11 C 599 1 578 -3 556 -3 Z M 557 55 C 585 55 607 67 623 91 C 638 115 646 146 646 185 C 646 223 638 254 624 279 C 609 304 587 317 559 317 C 533 317 512 304 496 279 C 480 254 473 223 473 185 C 473 143 481 110 498 88 C 514 66 534 55 557 55 Z" unicode="%" />
<glyph horiz-adv-x="687" d="M 615 -3 L 526 86 C 489 55 450 32 409 16 C 367 0 324 -8 279 -8 C 243 -8 210 -3 180 4 C 150 12 124 24 102 40 C 80 55 62 74 50 97 C 38 120 32 146 32 175 C 32 203 36 228 46 250 C 56 272 69 291 86 308 C 102 325 122 341 144 355 C 166 369 189 383 214 398 L 189 423 C 170 442 152 465 136 493 C 119 520 111 551 111 587 C 111 606 115 625 125 643 C 134 661 147 677 163 691 C 179 705 199 716 221 724 C 243 732 267 737 293 737 C 345 737 387 721 419 691 C 451 661 467 626 467 586 C 467 544 453 509 427 479 C 400 449 363 420 317 390 L 532 181 C 546 195 559 211 572 228 C 585 244 598 262 611 281 L 664 243 C 650 223 636 204 622 186 C 608 168 593 151 579 136 L 666 52 L 615 -3 Z M 247 457 L 272 433 C 311 458 342 482 364 506 C 386 529 397 555 397 583 C 397 609 388 633 370 653 C 352 673 326 684 292 684 C 261 684 235 673 215 653 C 195 632 185 610 185 587 C 185 563 190 540 202 518 C 213 496 228 475 247 457 Z M 116 175 C 116 137 132 108 164 86 C 196 64 234 53 279 53 C 315 53 350 60 384 74 C 418 88 450 107 480 132 L 259 353 C 215 326 180 300 154 274 C 128 248 116 215 116 175 Z" unicode="&#x26;" />
<glyph horiz-adv-x="212" d="M 141 622 L 137 490 L 75 490 L 71 622 L 71 730 L 141 730 L 141 622 Z" unicode="'" />
<glyph horiz-adv-x="307" d="M 295 -106 L 295 -179 C 257 -158 222 -131 190 -98 C 157 -65 129 -28 105 12 C 81 53 62 98 48 146 C 34 194 27 243 27 293 C 27 346 34 396 49 444 C 63 492 83 535 108 574 C 132 613 161 648 193 678 C 225 708 259 731 295 749 L 295 677 C 271 661 247 641 225 617 C 203 593 183 564 166 532 C 149 500 135 463 125 423 C 115 383 110 339 110 292 C 110 251 114 211 123 171 C 131 131 144 94 160 60 C 176 25 195 -6 218 -35 C 241 -63 267 -87 295 -106 Z" unicode="(" />
<glyph horiz-adv-x="307" d="M 12 676 L 12 749 C 44 733 77 710 109 682 C 141 653 170 619 195 579 C 220 539 240 494 256 444 C 272 394 280 340 280 282 C 280 228 272 178 257 130 C 241 82 221 38 196 -1 C 171 -40 142 -75 110 -105 C 78 -135 45 -160 12 -179 L 12 -103 C 37 -85 61 -64 85 -38 C 109 -12 129 17 147 50 C 165 83 179 119 190 158 C 200 197 206 238 206 282 C 206 332 200 378 189 421 C 177 463 162 501 144 534 C 126 567 105 596 82 620 C 58 644 35 662 12 676 Z" unicode=")" />
<glyph horiz-adv-x="396" d="M 357 592 L 229 557 L 321 463 L 272 421 L 199 536 L 126 421 L 75 462 L 170 557 L 38 590 L 68 654 L 181 592 L 166 730 L 233 730 L 217 592 L 333 652 L 357 592 Z" unicode="*" />
<glyph horiz-adv-x="511" d="M 475 302 L 286 302 L 286 118 L 225 118 L 225 302 L 36 302 L 36 360 L 225 360 L 225 544 L 286 544 L 286 360 L 475 360 L 475 302 Z" unicode="+" />
<glyph horiz-adv-x="226" d="M 187 95 C 180 52 165 8 143 -36 C 120 -80 94 -117 66 -145 L 11 -119 C 27 -100 45 -70 66 -30 C 86 9 101 51 109 95 L 187 95 Z" unicode="," />
<glyph horiz-adv-x="335" d="M 290 229 L 46 229 L 46 296 L 290 296 L 290 229 Z" unicode="-" />
<glyph horiz-adv-x="227" d="M 155 0 L 73 0 L 73 115 L 155 115 L 155 0 Z" unicode="." />
<glyph horiz-adv-x="312" d="M 307 730 L 75 0 L 5 0 L 239 730 L 307 730 Z" unicode="/" />
<glyph horiz-adv-x="576" d="M 285 -12 C 247 -12 212 -3 182 15 C 152 33 126 58 105 90 C 84 122 68 162 57 208 C 45 254 40 305 40 361 C 40 411 45 460 55 506 C 65 552 80 592 101 627 C 121 662 147 690 179 711 C 211 731 248 742 290 742 C 333 742 370 731 402 711 C 433 691 458 664 478 630 C 498 596 512 556 522 511 C 531 465 536 418 536 368 C 536 314 531 264 521 218 C 511 172 495 132 475 98 C 454 64 428 37 396 17 C 364 -2 327 -12 285 -12 Z M 285 55 C 315 55 342 63 364 79 C 386 95 404 116 418 144 C 432 171 442 203 449 240 C 455 277 459 317 459 359 C 459 402 456 443 450 481 C 444 519 434 553 420 581 C 406 609 389 632 367 649 C 345 665 319 674 288 674 C 258 674 233 666 212 650 C 190 634 173 612 159 584 C 145 556 134 522 127 484 C 120 446 117 405 117 361 C 117 317 120 277 127 240 C 134 202 145 170 159 143 C 173 115 190 94 211 78 C 232 62 257 55 285 55 Z" unicode="0" />
<glyph horiz-adv-x="364" d="M 271 0 L 194 0 L 194 614 C 180 596 158 578 130 561 C 101 544 74 534 50 532 L 50 607 C 82 609 112 622 140 645 C 168 668 194 697 219 731 L 271 731 L 271 0 Z" unicode="1" />
<glyph horiz-adv-x="553" d="M 517 0 L 34 0 L 34 20 L 355 365 C 377 389 396 415 411 443 C 426 471 434 501 434 533 C 434 575 418 608 388 633 C 358 658 320 671 274 671 C 222 671 182 656 153 626 C 123 596 109 554 109 502 L 38 502 C 38 579 60 638 104 680 C 148 721 206 742 278 742 C 311 742 342 737 370 729 C 398 720 423 707 444 691 C 464 674 480 653 492 628 C 504 603 510 574 510 542 C 510 490 499 447 477 412 C 455 377 433 347 410 323 L 160 67 L 517 67 L 517 0 Z" unicode="2" />
<glyph horiz-adv-x="547" d="M 258 -12 C 197 -12 146 -3 105 13 C 64 30 32 49 8 70 L 47 127 C 67 110 94 94 128 79 C 162 63 204 56 254 56 C 316 56 364 71 398 103 C 432 135 449 173 449 219 C 449 261 432 294 398 320 C 364 346 321 359 269 359 L 149 359 L 150 427 L 270 427 C 316 427 354 439 382 465 C 410 491 424 520 424 553 C 424 584 411 612 385 637 C 359 662 321 675 273 675 C 223 675 183 664 154 644 C 124 624 101 600 83 574 L 36 624 C 44 637 56 651 70 665 C 84 679 100 691 120 703 C 140 714 163 723 190 731 C 216 738 247 742 281 742 C 348 742 401 725 440 692 C 479 658 499 616 499 564 C 499 542 495 522 487 504 C 479 485 470 468 458 454 C 446 440 431 428 415 418 C 399 408 382 400 366 396 C 409 386 446 365 476 334 C 506 303 522 263 522 215 C 522 187 516 160 506 133 C 496 105 480 81 459 60 C 437 38 410 21 377 8 C 343 -5 304 -12 258 -12 Z" unicode="3" />
<glyph horiz-adv-x="577" d="M 566 191 L 439 191 L 439 0 L 367 0 L 367 191 L 19 191 L 19 239 L 389 744 L 439 744 L 439 256 L 566 256 L 566 191 Z M 369 256 L 369 617 L 103 256 L 369 256 Z" unicode="4" />
<glyph horiz-adv-x="567" d="M 273 -12 C 218 -12 170 -2 129 15 C 87 33 55 55 33 79 L 71 134 C 93 111 120 92 153 77 C 185 62 225 55 271 55 C 329 55 374 74 408 112 C 442 150 459 198 459 256 C 459 310 443 353 411 385 C 379 417 339 433 289 433 C 253 433 219 425 189 409 C 158 393 135 370 119 340 L 68 354 L 97 730 L 483 730 L 483 659 L 154 659 L 135 409 C 149 436 173 458 205 474 C 237 490 272 498 310 498 C 377 498 432 476 474 432 C 516 388 537 331 537 260 C 537 221 530 185 518 152 C 506 118 488 89 466 65 C 444 41 416 22 383 8 C 350 -5 313 -12 273 -12 Z" unicode="5" />
<glyph horiz-adv-x="546" d="M 285 -12 C 247 -12 213 -5 183 7 C 152 19 126 37 104 59 C 82 81 66 107 54 138 C 42 169 37 203 37 240 C 37 277 42 314 54 351 C 65 387 81 424 101 460 C 121 496 145 533 173 570 C 201 607 232 645 266 683 L 322 746 L 378 702 L 336 654 C 284 595 238 539 199 487 C 160 434 136 390 128 354 C 139 377 159 399 188 421 C 216 442 253 453 299 453 C 335 453 367 446 395 434 C 423 422 446 405 465 385 C 483 364 498 339 508 311 C 518 283 523 253 523 221 C 523 189 517 159 506 131 C 494 103 478 78 458 57 C 437 36 412 19 383 7 C 353 -5 321 -12 285 -12 Z M 288 54 C 312 54 335 58 355 67 C 375 76 392 88 406 103 C 420 117 430 135 438 155 C 446 175 450 196 450 218 C 450 241 446 263 439 284 C 432 304 422 322 408 337 C 394 352 377 364 357 373 C 337 382 313 387 287 387 C 265 387 244 383 224 376 C 204 368 186 358 170 344 C 154 330 141 313 131 293 C 121 273 117 250 117 225 C 117 175 132 134 162 102 C 192 70 234 54 288 54 Z" unicode="6" />
<glyph horiz-adv-x="491" d="M 490 730 L 495 709 L 136 -6 L 69 24 L 391 659 L 16 659 L 16 730 L 490 730 Z" unicode="7" />
<glyph horiz-adv-x="593" d="M 398 385 C 416 381 434 374 453 364 C 471 354 488 342 503 327 C 517 312 529 294 539 272 C 548 250 553 225 553 197 C 553 167 547 140 535 114 C 523 88 507 66 485 48 C 463 29 437 14 405 4 C 373 -6 338 -12 298 -12 C 218 -12 156 6 112 44 C 67 82 45 132 45 195 C 45 223 50 249 60 272 C 70 294 84 313 100 329 C 116 345 133 357 151 366 C 169 375 187 381 203 383 C 190 387 176 393 160 401 C 144 409 129 420 115 434 C 101 448 89 464 80 484 C 70 503 66 525 66 551 C 66 580 72 606 84 630 C 96 654 113 674 134 690 C 154 706 179 719 207 728 C 235 737 266 742 298 742 C 370 742 427 724 469 689 C 510 653 531 609 532 555 C 532 531 527 509 519 490 C 511 471 500 454 488 440 C 475 426 461 414 445 405 C 429 395 413 389 398 385 Z M 298 411 C 347 411 386 423 414 448 C 442 473 457 504 457 541 C 457 584 442 617 413 641 C 384 664 346 676 298 676 C 252 676 214 663 183 638 C 152 613 137 581 137 541 C 137 501 152 470 184 446 C 216 422 254 411 298 411 Z M 298 51 C 354 51 399 65 432 93 C 465 121 482 158 482 204 C 482 249 465 284 432 309 C 398 334 354 347 298 347 C 244 347 200 334 166 310 C 132 285 115 249 115 202 C 115 157 131 121 164 93 C 197 65 242 51 298 51 Z" unicode="8" />
<glyph horiz-adv-x="546" d="M 222 -12 L 170 38 L 224 89 C 246 110 269 133 291 159 C 313 184 332 210 350 236 C 368 262 383 287 395 313 C 407 338 415 361 419 383 C 406 357 384 333 352 312 C 320 291 284 281 244 281 C 208 281 177 287 150 299 C 122 311 99 328 81 349 C 62 370 48 395 38 423 C 28 451 23 482 23 514 C 23 545 28 575 40 603 C 51 631 67 655 88 676 C 109 697 134 714 164 727 C 194 739 227 746 264 746 C 298 746 330 740 360 728 C 390 716 416 699 438 678 C 460 656 477 630 490 599 C 502 568 509 534 509 496 C 509 454 503 412 492 372 C 480 332 465 293 446 257 C 426 220 404 185 378 152 C 352 119 324 88 296 60 L 222 -12 Z M 258 348 C 306 348 346 363 380 394 C 414 425 431 464 431 511 C 431 536 426 559 417 580 C 408 601 396 619 381 633 C 365 647 348 659 328 667 C 308 675 286 679 264 679 C 238 679 215 674 195 666 C 175 657 157 645 143 631 C 129 616 118 599 110 579 C 102 559 99 538 99 516 C 99 468 112 428 139 396 C 166 364 206 348 258 348 Z" unicode="9" />
<glyph horiz-adv-x="234" d="M 157 321 L 78 321 L 78 436 L 157 436 L 157 321 Z M 157 0 L 78 0 L 78 115 L 157 115 L 157 0 Z" unicode=":" />
<glyph horiz-adv-x="234" d="M 162 321 L 83 321 L 83 436 L 162 436 L 162 321 Z M 168 95 C 160 49 146 5 125 -38 C 103 -81 78 -117 50 -145 L -6 -119 C 2 -109 11 -97 21 -82 C 31 -66 41 -49 50 -30 C 59 -11 67 8 75 30 C 83 52 88 73 92 95 L 168 95 Z" unicode=";" />
<glyph horiz-adv-x="401" d="M 352 89 L 47 302 L 47 346 L 352 559 L 352 481 L 130 325 L 352 168 L 352 89 Z" unicode="&#x3C;" />
<glyph horiz-adv-x="507" d="M 450 392 L 58 392 L 58 456 L 450 456 L 450 392 Z M 450 182 L 58 182 L 58 247 L 450 247 L 450 182 Z" unicode="=" />
<glyph horiz-adv-x="401" d="M 352 302 L 47 89 L 47 168 L 271 325 L 47 482 L 47 559 L 352 346 L 352 302 Z" unicode="&#x3E;" />
<glyph horiz-adv-x="453" d="M 173 194 C 173 238 179 275 191 305 C 203 335 222 363 248 391 C 258 401 269 412 281 424 C 293 436 305 448 315 462 C 325 475 334 490 341 506 C 348 522 352 540 352 560 C 352 595 338 623 312 643 C 286 663 254 674 216 674 C 183 674 153 666 127 651 C 100 635 78 616 62 594 L 14 641 C 40 674 72 699 111 716 C 149 733 189 742 230 742 C 290 742 339 726 376 694 C 412 662 431 619 431 566 C 431 540 427 518 419 498 C 411 478 400 459 388 443 C 376 426 362 410 348 396 C 333 382 319 368 305 354 C 281 333 266 308 259 278 C 252 248 248 220 248 194 L 173 194 Z M 169 0 L 169 92 L 254 92 L 254 0 L 169 0 Z" unicode="?" />
<glyph horiz-adv-x="844" d="M 413 -33 C 359 -33 309 -23 263 -3 C 217 17 178 44 145 78 C 111 112 85 152 67 198 C 48 244 39 294 39 346 C 39 398 48 447 67 493 C 86 539 112 580 146 614 C 179 648 219 674 266 694 C 312 714 363 724 417 724 C 473 724 524 715 571 698 C 617 680 657 656 690 626 C 723 595 749 558 767 516 C 785 473 795 427 795 377 C 795 332 789 294 779 263 C 768 231 755 206 739 187 C 723 167 706 153 687 145 C 667 136 649 132 633 132 C 602 132 578 139 560 154 C 542 169 531 188 527 210 C 518 193 499 176 469 158 C 439 140 406 132 369 132 C 319 132 281 144 256 169 C 231 193 219 224 219 260 C 219 304 237 338 273 363 C 309 387 355 400 411 400 L 519 400 L 519 413 C 519 453 509 480 489 494 C 469 508 443 516 413 516 C 387 516 362 512 340 506 C 318 500 299 493 284 487 L 262 539 C 281 548 304 556 331 562 C 357 568 384 572 411 572 C 467 572 509 558 538 530 C 566 502 581 459 581 401 L 581 246 C 581 230 585 215 593 202 C 601 189 615 183 637 183 C 646 183 657 185 669 191 C 681 196 692 205 702 219 C 712 233 721 252 729 277 C 736 301 740 333 740 372 C 740 414 732 454 717 491 C 701 528 680 560 652 586 C 624 612 590 633 550 649 C 510 664 465 672 417 672 C 371 672 328 663 288 646 C 248 629 214 606 186 577 C 158 547 135 513 119 473 C 103 433 95 391 95 346 C 95 301 103 259 119 219 C 135 179 158 145 186 115 C 214 85 248 62 288 45 C 327 27 370 19 416 19 C 436 19 458 21 480 25 C 502 29 525 36 549 48 L 569 1 C 541 -11 515 -20 489 -25 C 463 -30 437 -33 413 -33 Z M 382 187 C 397 187 412 189 428 193 C 443 197 457 202 470 208 C 482 214 493 221 502 229 C 510 237 516 244 519 252 L 519 348 L 412 348 C 370 348 339 340 319 326 C 299 312 289 291 289 265 C 289 242 297 223 313 209 C 329 194 352 187 382 187 Z" unicode="@" />
<glyph horiz-adv-x="649" d="M 645 0 L 562 0 L 475 216 L 170 216 L 85 0 L 4 0 L 303 734 L 349 734 L 645 0 Z M 450 285 L 322 600 L 196 285 L 450 285 Z" unicode="A" />
<glyph horiz-adv-x="592" d="M 99 0 L 99 730 L 307 730 C 367 730 416 714 454 683 C 492 652 511 611 511 560 C 511 508 497 466 471 434 C 445 402 411 383 371 376 C 391 374 412 369 434 361 C 455 353 474 343 491 329 C 507 315 521 298 531 277 C 541 256 547 232 547 205 C 547 143 525 93 483 56 C 440 18 383 0 312 0 L 99 0 Z M 177 403 L 288 403 C 314 403 336 406 354 414 C 372 422 387 432 398 445 C 409 457 417 472 422 488 C 427 504 430 521 430 538 C 430 574 417 603 392 625 C 367 647 334 658 293 658 L 177 658 L 177 403 Z M 177 70 L 317 70 C 369 70 407 83 431 110 C 455 137 467 170 467 208 C 467 247 452 278 422 301 C 392 323 356 335 312 335 L 177 335 L 177 70 Z" unicode="B" />
<glyph horiz-adv-x="713" d="M 410 -12 C 361 -12 315 -3 271 13 C 227 30 188 55 156 87 C 123 119 97 159 78 206 C 58 253 49 306 49 365 C 49 418 58 468 76 514 C 94 560 119 600 151 634 C 183 667 221 693 266 713 C 310 732 359 742 412 742 C 478 742 533 732 577 713 C 621 694 659 669 689 637 L 640 571 C 617 597 587 620 550 638 C 512 656 467 666 414 666 C 370 666 330 658 295 643 C 260 627 231 606 207 579 C 183 552 164 520 151 483 C 138 445 132 405 132 361 C 132 311 140 268 156 231 C 172 193 193 162 219 137 C 245 112 275 93 309 80 C 343 67 378 61 414 61 C 470 61 518 72 558 94 C 598 116 632 142 658 173 L 704 121 C 672 83 631 51 581 26 C 531 0 474 -12 410 -12 Z" unicode="C" />
<glyph horiz-adv-x="744" d="M 99 0 L 99 730 L 306 730 C 366 730 420 721 468 705 C 516 688 557 664 591 634 C 624 604 650 567 668 524 C 686 480 695 432 695 380 C 695 326 686 275 669 229 C 651 183 626 143 592 109 C 558 75 516 48 466 29 C 416 9 358 0 292 0 L 99 0 Z M 179 71 L 289 71 C 343 71 390 78 431 94 C 471 110 505 131 531 159 C 557 186 577 218 591 256 C 604 293 611 333 611 377 C 611 461 583 528 528 580 C 472 631 397 657 303 657 L 179 657 L 179 71 Z" unicode="D" />
<glyph horiz-adv-x="577" d="M 521 0 L 99 0 L 99 730 L 502 730 L 502 658 L 178 658 L 178 397 L 488 397 L 488 325 L 178 325 L 178 72 L 521 72 L 521 0 Z" unicode="E" />
<glyph horiz-adv-x="504" d="M 462 658 L 178 658 L 178 400 L 447 400 L 447 328 L 178 328 L 178 0 L 99 0 L 99 730 L 462 730 L 462 658 Z" unicode="F" />
<glyph horiz-adv-x="777" d="M 427 361 L 727 361 L 727 151 C 699 101 658 61 604 32 C 550 2 488 -12 417 -12 C 365 -12 317 -2 272 16 C 227 35 188 61 155 95 C 122 128 96 168 77 214 C 58 260 49 311 49 365 C 49 422 59 474 79 521 C 99 567 125 607 159 640 C 193 672 232 697 277 715 C 322 733 370 742 420 742 C 491 742 547 731 588 709 C 628 687 660 664 683 640 L 630 586 C 609 606 582 624 548 641 C 514 657 470 666 417 666 C 376 666 338 658 303 644 C 268 629 238 608 213 582 C 187 555 167 523 153 486 C 138 449 131 408 131 364 C 131 322 138 283 153 246 C 167 208 187 176 213 148 C 239 120 269 98 305 82 C 341 66 379 58 421 58 C 473 58 520 68 562 90 C 604 111 636 140 656 176 L 656 286 L 427 286 L 427 361 Z" unicode="G" />
<glyph horiz-adv-x="759" d="M 661 0 L 581 0 L 581 323 L 179 323 L 179 0 L 99 0 L 99 730 L 179 730 L 179 398 L 581 398 L 581 730 L 661 730 L 661 0 Z" unicode="H" />
<glyph horiz-adv-x="287" d="M 184 0 L 104 0 L 104 730 L 184 730 L 184 0 Z" unicode="I" />
<glyph horiz-adv-x="379" d="M 309 730 L 309 191 C 309 164 304 138 296 114 C 288 89 275 67 259 49 C 242 30 221 15 196 4 C 170 -6 141 -12 107 -12 C 90 -12 74 -11 59 -9 C 44 -7 32 -5 23 -3 L 24 69 C 30 66 42 64 59 62 C 75 60 90 59 102 59 C 144 59 177 71 201 95 C 224 119 236 149 236 183 L 236 730 L 309 730 Z" unicode="J" />
<glyph horiz-adv-x="683" d="M 671 0 L 566 0 L 279 333 L 179 216 L 179 0 L 99 0 L 99 730 L 179 730 L 179 319 L 526 730 L 625 730 L 331 393 L 671 0 Z" unicode="K" />
<glyph horiz-adv-x="495" d="M 486 0 L 99 0 L 99 730 L 179 730 L 179 72 L 486 72 L 486 0 Z" unicode="L" />
<glyph horiz-adv-x="907" d="M 808 0 L 731 0 L 731 571 L 467 187 L 437 187 L 175 567 L 175 0 L 99 0 L 99 730 L 149 730 L 455 292 L 758 730 L 808 730 L 808 0 Z" unicode="M" />
<glyph horiz-adv-x="783" d="M 684 0 L 628 0 L 175 583 L 175 0 L 99 0 L 99 730 L 159 730 L 607 148 L 607 730 L 684 730 L 684 0 Z" unicode="N" />
<glyph horiz-adv-x="845" d="M 426 -12 C 370 -12 318 -2 272 16 C 226 35 186 61 153 95 C 120 129 94 169 76 216 C 58 263 49 314 49 370 C 49 422 58 470 77 516 C 96 562 122 601 155 635 C 188 668 227 694 273 713 C 318 732 366 742 418 742 C 474 742 525 732 572 714 C 618 696 658 670 691 637 C 724 604 750 564 769 518 C 787 472 797 421 797 367 C 797 312 787 261 767 215 C 747 168 721 128 687 95 C 653 61 614 35 569 16 C 524 -2 476 -12 426 -12 Z M 425 62 C 465 62 502 69 538 84 C 573 98 604 119 630 146 C 656 173 676 206 691 244 C 706 282 714 325 714 371 C 714 413 706 453 692 489 C 677 525 657 557 631 583 C 605 609 574 629 538 644 C 502 658 463 666 421 666 C 379 666 340 659 305 645 C 269 631 239 611 213 585 C 187 559 167 528 153 491 C 139 453 132 412 132 366 C 132 318 139 276 155 238 C 171 200 192 169 218 143 C 244 117 275 97 311 83 C 347 69 385 62 425 62 Z" unicode="O" />
<glyph horiz-adv-x="586" d="M 99 0 L 99 730 L 328 730 C 394 730 448 711 490 675 C 532 639 554 588 554 522 C 554 490 548 461 538 434 C 528 407 513 384 494 364 C 475 344 452 329 425 318 C 398 306 368 301 335 301 L 179 301 L 179 0 L 99 0 Z M 179 374 L 319 374 C 369 374 407 387 433 415 C 459 443 473 478 473 522 C 473 566 457 600 426 623 C 394 645 356 657 310 657 L 179 657 L 179 374 Z" unicode="P" />
<glyph horiz-adv-x="832" d="M 707 -82 L 707 -159 C 643 -158 585 -144 535 -116 C 484 -88 447 -53 424 -9 C 368 -9 317 0 271 19 C 225 38 185 64 153 98 C 120 131 94 171 76 217 C 58 263 49 314 49 370 C 49 422 58 470 77 516 C 96 562 122 601 156 635 C 189 668 228 694 273 713 C 318 732 367 742 419 742 C 474 742 525 732 572 714 C 618 696 658 670 691 637 C 724 604 750 564 769 518 C 787 471 797 420 797 365 C 797 320 790 278 776 238 C 762 198 743 162 719 131 C 694 99 665 72 631 50 C 597 28 559 12 519 2 C 538 -24 565 -44 599 -59 C 633 -73 669 -81 707 -82 Z M 425 64 C 465 64 502 71 538 86 C 573 100 604 121 630 148 C 656 174 676 207 691 245 C 706 283 714 326 714 372 C 714 415 706 455 691 491 C 676 527 656 558 630 584 C 604 610 573 630 537 644 C 501 658 462 666 421 666 C 379 666 340 659 305 645 C 269 631 239 611 213 585 C 187 559 167 528 153 491 C 139 453 132 412 132 366 C 132 319 139 277 155 240 C 171 202 192 171 218 145 C 244 119 275 99 311 85 C 347 71 385 64 425 64 Z" unicode="Q" />
<glyph horiz-adv-x="605" d="M 99 0 L 99 730 L 299 730 C 361 730 411 712 449 677 C 487 641 506 594 506 534 C 506 501 501 472 491 447 C 481 422 469 401 453 385 C 437 368 419 355 399 346 C 378 336 357 331 336 329 L 332 327 L 565 0 L 472 0 L 253 310 L 178 310 L 178 0 L 99 0 Z M 178 379 L 277 379 C 321 379 356 391 384 417 C 412 442 426 478 426 524 C 426 562 413 593 388 619 C 362 644 328 657 284 657 L 178 657 L 178 379 Z" unicode="R" />
<glyph horiz-adv-x="497" d="M 260 -12 C 210 -12 166 -4 126 12 C 86 28 53 50 27 79 L 73 141 C 93 115 120 96 154 82 C 188 68 222 61 256 61 C 295 61 328 72 354 94 C 380 116 393 146 393 182 C 393 212 381 239 359 263 C 337 286 298 310 244 334 C 182 360 135 390 101 423 C 67 456 50 503 50 563 C 50 615 68 657 104 691 C 140 725 187 742 247 742 C 286 742 322 735 354 723 C 386 711 415 694 442 672 L 403 608 C 381 626 358 641 333 652 C 307 663 281 669 253 669 C 213 669 182 658 160 637 C 138 615 127 590 127 561 C 127 527 138 499 160 478 C 182 456 225 432 289 405 C 355 376 402 344 429 310 C 456 276 470 233 470 183 C 470 153 464 125 453 101 C 441 77 426 56 407 40 C 388 23 366 10 340 1 C 314 -7 288 -12 260 -12 Z" unicode="S" />
<glyph horiz-adv-x="523" d="M 513 658 L 299 658 L 299 0 L 219 0 L 219 658 L 10 658 L 10 730 L 513 730 L 513 658 Z" unicode="T" />
<glyph horiz-adv-x="737" d="M 647 730 L 647 266 C 647 222 639 183 625 149 C 611 114 591 85 566 61 C 541 37 512 19 478 7 C 444 -5 407 -12 368 -12 C 329 -12 293 -6 259 6 C 225 18 195 35 170 59 C 145 83 125 112 111 147 C 97 181 90 221 90 266 L 90 730 L 168 730 L 168 257 C 168 228 173 202 183 178 C 193 154 208 133 226 116 C 244 99 265 86 289 76 C 313 66 338 62 366 62 C 393 62 419 66 444 75 C 469 84 491 97 509 114 C 527 131 542 152 553 176 C 563 200 569 227 569 257 L 569 730 L 647 730 Z" unicode="U" />
<glyph horiz-adv-x="652" d="M 650 730 L 346 -7 L 299 -7 L 4 730 L 87 730 L 326 128 L 568 730 L 650 730 Z" unicode="V" />
<glyph horiz-adv-x="919" d="M 912 730 L 687 -9 L 643 -9 L 461 584 L 272 -9 L 229 -9 L 8 730 L 87 730 L 255 153 L 442 730 L 486 730 L 667 153 L 837 730 L 912 730 Z" unicode="W" />
<glyph horiz-adv-x="597" d="M 495 0 L 298 311 L 99 0 L 12 0 L 255 379 L 33 730 L 122 730 L 300 449 L 480 730 L 567 730 L 343 381 L 585 0 L 495 0 Z" unicode="X" />
<glyph horiz-adv-x="639" d="M 636 730 L 357 329 L 357 0 L 277 0 L 277 332 L 3 730 L 93 730 L 321 403 L 549 730 L 636 730 Z" unicode="Y" />
<glyph horiz-adv-x="586" d="M 546 730 L 546 696 L 128 72 L 560 72 L 560 0 L 17 0 L 17 32 L 432 658 L 53 658 L 53 730 L 546 730 Z" unicode="Z" />
<glyph horiz-adv-x="285" d="M 240 -179 L 68 -179 L 68 730 L 240 730 L 240 666 L 139 666 L 139 -115 L 240 -115 L 240 -179 Z" unicode="[" />
<glyph horiz-adv-x="312" d="M 5 730 L 72 730 L 307 0 L 239 0 L 5 730 Z" unicode="\" />
<glyph horiz-adv-x="285" d="M 217 -179 L 45 -179 L 45 -115 L 146 -115 L 146 666 L 45 666 L 45 730 L 217 730 L 217 -179 Z" unicode="]" />
<glyph horiz-adv-x="508" d="M 431 369 L 365 369 L 252 649 L 146 369 L 82 369 L 221 730 L 285 730 L 431 369 Z" unicode="^" />
<glyph horiz-adv-x="500" d="M 500 -158 L 0 -158 L 0 -90 L 500 -90 L 500 -158 Z" unicode="_" />
<glyph horiz-adv-x="500" d="M 340 498 L 264 498 L 145 663 L 232 663 L 340 498 Z" unicode="`" />
<glyph horiz-adv-x="475" d="M 417 0 L 347 0 L 347 61 C 334 44 314 28 287 12 C 259 -4 227 -12 189 -12 C 134 -12 92 1 64 27 C 36 53 22 88 22 131 C 22 175 39 211 75 237 C 110 263 160 277 224 280 L 344 287 L 344 299 C 344 329 333 352 313 367 C 293 381 266 389 234 389 C 203 389 175 383 149 373 C 123 363 104 353 92 344 L 60 396 C 74 408 97 419 128 431 C 159 442 197 448 241 448 C 289 448 331 436 365 412 C 399 388 417 349 417 297 L 417 0 Z M 346 110 L 346 231 L 229 225 C 187 223 154 214 131 198 C 107 182 96 161 96 134 C 96 106 105 85 125 71 C 144 57 169 50 201 50 C 233 50 263 56 290 70 C 317 84 336 97 346 110 Z" unicode="a" />
<glyph horiz-adv-x="539" d="M 308 -7 C 262 -7 224 3 194 25 C 164 47 145 71 137 98 L 137 0 L 67 0 L 67 730 L 139 730 L 139 340 C 143 352 150 365 160 378 C 170 391 182 403 196 413 C 210 423 226 432 245 439 C 263 445 284 449 306 449 C 337 449 365 443 391 431 C 416 419 437 404 455 384 C 472 364 485 341 495 314 C 504 286 509 257 509 227 C 509 191 503 159 493 131 C 482 102 468 77 450 57 C 432 37 410 21 386 10 C 361 -1 335 -7 308 -7 Z M 289 50 C 331 50 365 65 392 96 C 419 126 433 168 433 220 C 433 268 420 308 395 341 C 369 373 333 390 285 390 C 266 390 248 386 230 378 C 212 370 197 358 184 343 C 170 328 159 310 151 288 C 143 266 139 242 139 216 C 139 190 143 166 152 146 C 160 125 171 108 185 94 C 199 80 215 69 233 61 C 251 53 270 50 289 50 Z" unicode="b" />
<glyph horiz-adv-x="462" d="M 391 130 L 453 95 C 445 82 436 69 425 57 C 413 44 400 33 384 23 C 368 13 349 4 328 -1 C 306 -7 282 -11 255 -11 C 221 -11 190 -5 162 6 C 134 18 110 34 90 55 C 70 75 55 99 45 127 C 34 155 29 185 29 217 C 29 249 34 280 46 308 C 58 336 74 361 94 382 C 114 402 139 419 167 431 C 195 443 225 449 258 449 C 310 449 352 437 385 415 C 417 393 441 369 455 344 L 386 310 C 373 330 356 348 336 362 C 315 376 289 383 257 383 C 235 383 214 378 196 370 C 177 361 161 349 148 334 C 135 319 125 302 117 282 C 109 262 106 240 106 218 C 106 172 119 133 147 102 C 175 70 212 55 258 55 C 296 55 325 63 345 81 C 365 98 381 114 391 130 Z" unicode="c" />
<glyph horiz-adv-x="537" d="M 237 -8 C 205 -8 177 -2 151 9 C 125 21 103 36 85 56 C 67 76 53 99 43 125 C 33 151 29 179 29 209 C 29 244 34 276 45 306 C 56 336 71 361 90 382 C 108 403 130 419 156 431 C 181 443 208 449 238 449 C 279 449 313 439 341 419 C 368 399 387 378 397 355 L 397 730 L 470 730 L 470 0 L 400 0 L 400 101 C 390 73 372 48 344 26 C 316 3 280 -8 237 -8 Z M 256 50 C 274 50 292 54 310 62 C 328 70 343 82 357 97 C 370 112 381 130 389 152 C 397 173 401 197 401 223 C 401 250 396 274 388 295 C 379 316 368 333 354 347 C 340 361 324 371 306 378 C 288 385 269 389 251 389 C 209 389 174 373 147 341 C 119 309 106 269 106 219 C 106 196 109 174 116 154 C 122 133 132 115 145 100 C 157 84 173 72 192 63 C 210 54 232 50 256 50 Z" unicode="d" />
<glyph horiz-adv-x="497" d="M 267 -11 C 233 -11 201 -5 172 4 C 143 14 118 29 97 49 C 76 68 60 92 48 120 C 36 148 30 179 30 215 C 30 247 35 278 46 306 C 57 334 73 359 93 380 C 113 401 138 418 166 430 C 194 442 225 449 259 449 C 325 449 378 427 419 383 C 460 339 481 277 481 198 L 99 198 C 100 153 116 117 146 90 C 176 63 217 50 267 50 C 309 50 341 56 363 69 C 385 82 402 96 415 111 L 460 68 C 441 47 418 29 391 13 C 363 -3 322 -11 267 -11 Z M 101 256 L 410 256 C 408 290 394 320 367 347 C 339 374 303 388 257 388 C 211 388 175 374 147 348 C 119 321 104 290 101 256 Z" unicode="e" />
<glyph horiz-adv-x="302" d="M 298 370 L 186 370 L 186 0 L 113 0 L 113 370 L 20 370 L 20 436 L 113 436 L 113 572 C 113 599 117 623 125 644 C 133 664 143 681 157 695 C 170 708 185 718 202 725 C 219 731 237 735 255 735 C 265 735 275 734 285 733 C 295 731 303 730 309 728 L 307 655 C 303 656 297 657 291 659 C 284 660 276 661 268 661 C 247 661 228 653 211 637 C 194 621 186 598 186 570 L 186 436 L 298 436 L 298 370 Z" unicode="f" />
<glyph horiz-adv-x="537" d="M 235 -5 C 203 -5 175 0 149 12 C 123 23 102 39 84 59 C 66 79 53 102 43 130 C 33 158 29 187 29 219 C 29 286 48 341 88 384 C 127 427 177 449 237 449 C 277 449 312 439 341 419 C 370 399 390 377 400 353 L 400 436 L 470 436 L 470 31 C 470 -7 464 -41 452 -69 C 440 -97 424 -121 404 -139 C 384 -157 360 -171 333 -180 C 305 -188 277 -193 247 -193 C 203 -193 168 -189 143 -181 C 117 -173 98 -164 84 -156 L 112 -98 C 122 -104 137 -112 158 -121 C 178 -129 206 -134 240 -134 C 260 -134 280 -131 299 -125 C 318 -119 335 -110 349 -98 C 363 -86 375 -71 384 -53 C 392 -35 397 -13 397 11 L 397 98 C 388 71 369 47 340 26 C 310 5 275 -5 235 -5 Z M 256 50 C 294 50 328 66 357 98 C 386 130 401 172 401 223 C 401 273 386 313 356 344 C 326 374 290 390 248 390 C 209 390 176 374 148 342 C 120 310 106 270 106 220 C 106 172 119 131 146 99 C 172 66 209 50 256 50 Z" unicode="g" />
<glyph horiz-adv-x="521" d="M 459 0 L 385 0 L 385 283 C 385 317 374 343 354 362 C 334 380 307 390 273 390 C 256 390 239 387 223 381 C 207 375 193 367 181 356 C 169 345 159 331 151 314 C 143 297 140 277 140 255 L 140 0 L 67 0 L 67 730 L 136 730 L 136 343 C 144 371 163 396 191 417 C 219 438 256 449 300 449 C 348 449 386 435 415 408 C 444 381 459 344 459 296 L 459 0 Z" unicode="h" />
<glyph horiz-adv-x="219" d="M 70 544 L 70 625 L 149 625 L 149 544 L 70 544 Z M 73 0 L 73 436 L 146 436 L 146 0 L 73 0 Z" unicode="i" />
<glyph horiz-adv-x="209" d="M 145 544 L 66 544 L 66 625 L 145 625 L 145 544 Z M 142 436 L 142 -72 C 142 -108 130 -139 107 -165 C 84 -190 55 -202 19 -202 C 12 -202 3 -201 -7 -200 C -17 -198 -25 -197 -31 -196 L -28 -135 C -25 -135 -20 -136 -14 -137 C -8 -137 -2 -138 3 -138 C 19 -138 34 -131 48 -119 C 62 -106 69 -87 69 -62 L 69 436 L 142 436 Z" unicode="j" />
<glyph horiz-adv-x="475" d="M 487 0 L 398 0 L 230 206 L 140 111 L 140 0 L 67 0 L 67 730 L 136 730 L 136 190 L 359 436 L 445 436 L 277 256 L 487 0 Z" unicode="k" />
<glyph horiz-adv-x="214" d="M 144 730 L 144 0 L 70 0 L 70 730 L 144 730 Z" unicode="l" />
<glyph horiz-adv-x="835" d="M 67 0 L 67 436 L 138 436 L 138 348 C 146 375 164 399 193 419 C 222 439 258 449 301 449 C 339 449 370 439 396 421 C 422 402 437 377 443 347 L 446 347 C 454 377 474 402 504 421 C 534 439 570 449 612 449 C 662 449 701 435 730 407 C 759 379 774 343 774 297 L 774 0 L 701 0 L 701 283 C 701 315 691 341 671 361 C 651 380 624 390 589 390 C 573 390 557 387 541 382 C 525 376 510 368 498 357 C 486 346 476 332 468 315 C 460 297 457 277 457 254 L 457 0 L 384 0 L 384 283 C 384 315 374 341 354 361 C 334 380 307 390 272 390 C 236 390 205 378 179 355 C 153 331 140 297 140 253 L 140 0 L 67 0 Z" unicode="m" />
<glyph horiz-adv-x="520" d="M 459 0 L 385 0 L 385 284 C 385 316 375 342 355 361 C 335 380 308 390 272 390 C 238 390 207 378 180 356 C 153 334 140 299 140 251 L 140 0 L 67 0 L 67 436 L 138 436 L 138 349 C 148 377 167 401 197 420 C 226 439 260 449 298 449 C 347 449 386 435 415 407 C 444 379 459 343 459 297 L 459 0 Z" unicode="n" />
<glyph horiz-adv-x="526" d="M 259 -11 C 229 -11 201 -5 173 5 C 145 15 121 30 100 50 C 78 70 61 94 48 122 C 35 150 29 182 29 217 C 29 248 35 278 47 306 C 59 334 76 358 96 379 C 116 400 141 417 169 430 C 197 442 226 449 257 449 C 289 449 319 443 349 433 C 378 422 403 407 425 388 C 447 368 464 345 477 318 C 490 291 497 261 497 229 C 497 195 490 163 478 134 C 466 104 449 79 428 58 C 406 36 381 19 352 7 C 323 -4 292 -11 259 -11 Z M 261 53 C 307 53 345 69 375 101 C 405 133 420 173 420 223 C 420 267 405 306 375 338 C 345 370 305 386 255 386 C 213 386 178 370 149 339 C 120 307 106 268 106 220 C 106 168 121 127 151 97 C 181 67 218 53 261 53 Z" unicode="o" />
<glyph horiz-adv-x="539" d="M 67 -200 L 67 436 L 136 436 L 136 337 C 144 363 164 388 194 412 C 224 436 263 448 309 448 C 339 448 367 442 392 431 C 416 419 437 404 455 384 C 472 364 485 340 495 312 C 504 284 509 255 509 224 C 509 188 503 155 492 127 C 480 98 465 74 447 54 C 428 34 407 19 383 9 C 359 -1 336 -7 312 -7 C 268 -7 230 3 199 24 C 167 45 147 68 139 94 L 139 -200 L 67 -200 Z M 294 50 C 332 50 365 65 392 95 C 419 125 433 167 433 219 C 433 267 420 307 395 340 C 369 373 333 390 285 390 C 245 390 211 374 182 343 C 153 312 139 269 139 214 C 139 187 143 163 152 143 C 160 122 172 105 186 91 C 200 77 217 67 236 60 C 254 53 274 50 294 50 Z" unicode="p" />
<glyph horiz-adv-x="537" d="M 398 -200 L 398 97 C 387 70 368 46 340 24 C 312 2 277 -8 237 -8 C 205 -8 177 -2 151 9 C 125 20 104 36 86 56 C 68 76 54 99 44 127 C 34 154 30 183 30 215 C 30 249 35 280 46 309 C 57 337 72 362 91 383 C 110 403 132 419 157 431 C 182 443 209 449 237 449 C 279 449 314 439 342 419 C 370 399 388 377 398 353 L 398 436 L 470 436 L 470 -200 L 398 -200 Z M 255 50 C 272 50 289 54 307 62 C 325 70 340 81 354 96 C 368 111 379 129 388 151 C 396 173 401 197 401 224 C 401 250 396 274 388 295 C 380 315 369 333 355 347 C 341 361 326 371 308 378 C 290 385 271 389 252 389 C 208 389 172 373 146 343 C 120 312 107 273 107 225 C 107 176 119 135 145 101 C 170 67 207 50 255 50 Z" unicode="q" />
<glyph horiz-adv-x="377" d="M 373 418 L 344 356 C 329 367 314 375 299 379 C 284 383 270 385 256 385 C 227 385 200 373 176 349 C 152 325 140 292 140 251 L 140 0 L 67 0 L 67 436 L 138 436 L 138 347 C 140 357 145 368 153 380 C 160 392 170 403 182 413 C 194 423 208 431 224 438 C 240 444 258 448 278 448 C 297 448 315 445 332 440 C 348 434 362 427 373 418 Z" unicode="r" />
<glyph horiz-adv-x="379" d="M 200 -12 C 160 -12 127 -6 99 3 C 71 13 48 28 30 46 L 68 97 C 82 83 101 71 123 63 C 145 55 171 51 199 51 C 221 51 240 56 256 68 C 271 80 279 96 279 117 C 279 133 271 148 255 160 C 239 172 211 184 173 196 C 128 208 95 225 73 245 C 51 265 41 292 41 325 C 41 361 55 391 83 414 C 111 436 147 448 189 448 C 221 448 249 443 274 433 C 299 423 319 413 333 401 L 297 352 C 285 360 270 368 251 376 C 231 384 210 388 188 388 C 168 388 150 383 134 375 C 117 366 109 353 109 336 C 109 321 114 309 124 299 C 134 289 160 278 201 266 C 251 250 287 231 311 211 C 335 190 347 161 347 124 C 347 82 333 48 305 24 C 277 0 242 -12 200 -12 Z" unicode="s" />
<glyph horiz-adv-x="246" d="M 235 60 L 235 -2 C 233 -3 227 -4 219 -5 C 210 -5 201 -6 192 -6 C 178 -6 163 -4 149 -1 C 135 1 122 6 111 14 C 99 22 90 32 83 46 C 76 59 73 76 73 97 L 73 370 L 9 370 L 9 436 L 73 436 L 73 533 L 146 543 L 146 436 L 231 436 L 231 370 L 146 370 L 146 111 C 146 90 151 76 163 68 C 174 60 189 57 208 57 C 211 57 216 57 223 58 C 230 58 234 59 235 60 Z" unicode="t" />
<glyph horiz-adv-x="520" d="M 62 436 L 135 436 L 135 153 C 135 120 145 94 165 76 C 185 58 213 49 248 49 C 282 49 313 60 340 82 C 366 104 380 137 380 183 L 380 436 L 453 436 L 453 0 L 381 0 L 381 91 C 369 61 348 36 319 18 C 290 0 256 -10 218 -10 C 172 -10 135 3 106 31 C 76 58 62 96 62 144 L 62 436 Z" unicode="u" />
<glyph horiz-adv-x="460" d="M 461 436 L 246 -3 L 206 -3 L -2 436 L 79 436 L 231 103 L 385 436 L 461 436 Z" unicode="v" />
<glyph horiz-adv-x="663" d="M 457 -3 L 334 301 L 206 -3 L 164 -3 L 8 436 L 85 436 L 194 107 L 316 401 L 357 401 L 475 107 L 585 436 L 655 436 L 499 -3 L 457 -3 Z" unicode="w" />
<glyph horiz-adv-x="415" d="M 321 0 L 205 171 L 85 0 L 7 0 L 167 228 L 27 436 L 111 436 L 210 289 L 313 436 L 391 436 L 248 233 L 405 0 L 321 0 Z" unicode="x" />
<glyph horiz-adv-x="464" d="M 462 436 L 207 -91 C 185 -137 161 -166 135 -180 C 109 -193 86 -200 65 -200 C 52 -200 41 -198 31 -196 C 21 -193 13 -191 9 -190 L 29 -121 C 31 -122 36 -124 44 -126 C 52 -128 59 -130 67 -130 C 82 -130 96 -124 110 -114 C 123 -104 137 -84 152 -56 L 193 29 L -1 436 L 80 436 L 231 100 L 386 436 L 462 436 Z" unicode="y" />
<glyph horiz-adv-x="381" d="M 362 436 L 362 401 L 123 65 L 368 65 L 368 0 L 12 0 L 12 22 L 257 371 L 26 371 L 26 436 L 362 436 Z" unicode="z" />
<glyph horiz-adv-x="307" d="M 276 -179 C 216 -177 167 -162 128 -134 C 89 -105 70 -70 70 -30 C 70 -5 73 17 79 37 C 85 57 91 75 99 91 C 106 107 113 122 120 137 C 126 151 130 166 130 181 C 130 199 121 217 103 233 C 85 249 59 257 27 258 L 27 313 C 59 313 85 322 104 339 C 122 355 132 374 132 395 C 132 403 128 414 122 430 C 115 446 107 463 99 481 C 90 499 83 516 78 534 C 73 552 71 570 71 589 C 71 609 76 629 86 648 C 96 667 110 684 128 699 C 146 713 168 725 193 734 C 218 743 246 748 276 749 L 276 694 C 240 693 209 682 184 661 C 159 639 147 614 147 584 C 147 572 148 559 152 545 C 156 531 161 516 168 502 C 177 483 185 465 193 448 C 201 430 205 414 205 400 C 205 372 196 347 178 326 C 160 305 134 291 98 285 C 135 278 162 264 179 243 C 196 221 205 198 205 173 C 205 153 201 136 194 121 C 187 106 180 91 172 77 C 164 62 158 47 153 31 C 148 15 146 0 146 -14 C 146 -40 158 -65 182 -88 C 206 -110 238 -122 276 -124 L 276 -179 Z" unicode="{" />
<glyph horiz-adv-x="255" d="M 163 -179 L 93 -179 L 93 730 L 163 730 L 163 -179 Z" unicode="|" />
<glyph horiz-adv-x="307" d="M 31 -179 L 31 -124 C 69 -122 101 -110 125 -88 C 149 -65 161 -40 161 -14 C 161 0 158 15 154 31 C 149 47 143 62 135 77 C 127 91 120 106 113 121 C 105 136 102 153 102 173 C 102 198 110 221 128 243 C 145 264 172 278 210 285 C 173 291 146 305 128 326 C 110 347 102 372 102 400 C 102 414 105 430 113 448 C 121 465 129 483 139 502 C 145 516 151 531 155 545 C 159 559 161 572 161 584 C 161 614 148 639 123 661 C 98 682 67 693 31 694 L 31 749 C 61 748 88 743 114 734 C 139 725 161 713 179 699 C 197 684 211 667 221 648 C 231 629 237 609 237 589 C 237 570 234 552 229 534 C 223 516 216 499 208 481 C 199 463 191 446 185 430 C 179 414 176 403 176 395 C 176 374 185 355 204 339 C 222 322 248 313 281 313 L 281 258 C 248 257 223 249 205 233 C 187 217 178 199 178 181 C 178 166 181 151 187 137 C 193 122 200 107 208 91 C 215 75 222 57 228 37 C 234 17 237 -5 237 -30 C 237 -70 217 -105 179 -134 C 140 -162 91 -177 31 -179 Z" unicode="}" />
<glyph horiz-adv-x="500" d="M 398 435 L 462 435 C 462 377 453 334 436 308 C 419 282 393 269 358 269 C 335 269 315 274 298 284 C 281 294 266 305 253 317 C 238 329 223 339 209 349 C 194 358 179 363 164 363 C 148 363 134 355 121 340 C 108 324 102 302 102 272 L 38 272 C 38 328 48 370 68 398 C 88 425 112 439 139 439 C 165 439 187 434 206 424 C 225 414 243 402 261 388 C 273 377 287 367 301 357 C 315 347 331 343 349 343 C 368 343 381 350 388 364 C 394 378 398 402 398 435 Z" unicode="~" />
<glyph horiz-adv-x="293" d="M 106 591 L 188 591 L 188 493 L 106 493 L 106 591 Z M 103 156 L 128 393 L 167 393 L 191 156 L 191 -126 L 103 -126 L 103 156 Z" unicode="¡" />
<glyph horiz-adv-x="571" d="M 549 199 C 540 186 529 173 517 159 C 505 145 490 132 474 121 C 458 109 439 99 417 91 C 395 83 371 78 344 76 L 344 -25 L 281 -25 L 281 77 C 246 81 214 90 186 105 C 157 120 132 139 112 163 C 92 186 76 213 65 244 C 53 274 48 307 48 343 C 48 378 53 411 65 443 C 77 474 93 502 113 526 C 133 550 158 569 187 585 C 215 601 247 611 281 616 L 281 711 L 344 711 L 344 618 C 396 614 439 599 474 573 C 508 547 533 518 548 488 L 487 460 C 473 482 454 503 430 521 C 406 539 378 550 344 554 L 344 139 C 385 143 417 155 440 176 C 463 197 481 218 494 238 L 549 199 Z M 121 346 C 121 294 135 249 164 211 C 193 173 232 149 281 141 L 281 553 C 257 548 235 539 215 527 C 195 514 179 498 165 480 C 151 462 140 441 132 418 C 124 395 121 371 121 346 Z" unicode="¢" />
<glyph horiz-adv-x="585" d="M 576 67 L 576 0 L 17 0 L 17 46 C 23 48 32 51 46 53 C 60 55 79 59 104 64 C 116 66 129 69 143 75 C 156 80 168 87 179 96 C 189 105 198 116 205 128 C 211 140 215 155 215 172 C 215 180 213 189 211 198 C 209 206 206 215 203 224 L 28 224 L 28 279 L 173 279 C 166 290 159 302 151 315 C 143 327 135 340 128 354 L 28 354 L 28 409 L 99 409 C 90 429 83 450 77 472 C 71 494 69 517 69 542 C 69 580 76 611 90 637 C 104 663 122 683 146 699 C 169 714 196 725 227 732 C 257 738 289 742 322 742 C 378 742 428 732 474 714 C 519 695 552 677 573 661 L 529 597 C 510 611 482 627 445 644 C 407 661 367 670 323 670 C 300 670 278 667 257 663 C 236 659 217 651 201 641 C 185 630 172 615 162 597 C 152 579 148 556 148 529 C 148 508 151 487 158 467 C 164 447 173 427 183 409 L 488 409 L 488 354 L 215 354 C 223 341 230 328 238 316 C 246 303 253 291 259 279 L 488 279 L 488 224 L 280 224 C 280 220 281 217 281 213 C 281 209 282 206 282 203 C 282 182 278 164 271 148 C 263 132 254 119 244 108 C 233 97 221 88 208 81 C 195 74 183 69 173 67 L 576 67 Z" unicode="£" />
<glyph horiz-adv-x="502" d="M 439 185 L 405 151 L 345 214 C 331 205 316 198 300 194 C 284 189 267 187 250 187 C 232 187 216 189 200 194 C 184 198 169 205 155 214 L 94 151 L 59 187 L 116 247 C 103 261 93 278 86 296 C 78 314 75 333 75 354 C 75 374 78 394 86 412 C 94 430 104 447 117 462 L 58 522 L 93 556 L 153 493 C 167 501 182 508 198 513 C 214 518 232 521 250 521 C 268 521 285 518 302 513 C 318 507 334 500 348 492 L 410 557 L 444 522 L 385 460 C 397 446 407 429 414 411 C 421 393 425 374 425 354 C 425 333 421 313 413 294 C 405 275 395 258 382 244 L 439 185 Z M 250 242 C 282 242 310 253 334 275 C 358 297 370 324 370 354 C 370 384 358 411 334 433 C 310 455 282 466 250 466 C 216 466 188 455 165 433 C 142 411 131 384 131 354 C 131 324 142 297 165 275 C 188 253 216 242 250 242 Z" unicode="¤" />
<glyph horiz-adv-x="637" d="M 552 156 L 353 156 L 353 0 L 273 0 L 273 156 L 82 156 L 82 214 L 273 214 L 273 278 L 82 278 L 82 337 L 273 337 L 273 346 L 39 730 L 128 730 L 317 416 L 507 730 L 592 730 L 353 342 L 353 337 L 552 337 L 552 278 L 353 278 L 353 214 L 552 214 L 552 156 Z" unicode="¥" />
<glyph horiz-adv-x="269" d="M 103 351 L 103 730 L 167 730 L 167 351 L 103 351 Z M 167 200 L 167 -179 L 103 -179 L 103 200 L 167 200 Z" unicode="¦" />
<glyph horiz-adv-x="676" d="M 357 -180 C 299 -180 244 -173 194 -160 C 144 -146 102 -128 68 -106 L 101 -43 C 133 -64 172 -82 218 -96 C 264 -110 310 -118 354 -118 C 394 -118 429 -108 457 -90 C 485 -72 499 -46 499 -13 C 499 17 488 41 466 57 C 444 73 417 87 384 100 L 240 159 C 210 171 184 182 161 193 C 138 203 119 215 104 228 C 88 240 77 255 69 271 C 61 287 57 307 57 331 C 57 362 65 387 81 407 C 97 427 117 443 140 456 C 120 466 105 482 95 502 C 85 522 81 546 81 576 C 81 602 87 626 99 647 C 111 667 128 685 150 699 C 172 713 198 723 228 731 C 258 738 290 742 324 742 C 386 742 436 733 476 716 C 516 699 550 681 580 661 L 547 604 C 514 624 480 642 446 658 C 411 674 370 682 322 682 C 277 682 239 672 207 654 C 175 635 160 609 160 576 C 160 554 166 535 180 521 C 194 506 215 493 244 483 L 436 409 C 494 387 539 365 570 341 C 601 317 617 284 617 241 C 617 222 613 205 606 191 C 599 177 590 165 579 155 C 567 145 554 136 540 130 C 526 123 511 118 497 116 C 504 112 512 106 522 99 C 532 92 541 83 549 73 C 557 62 565 49 571 35 C 577 21 580 5 580 -13 C 580 -39 574 -63 562 -84 C 550 -104 535 -122 515 -136 C 495 -150 471 -161 444 -169 C 417 -176 388 -180 357 -180 Z M 442 155 C 465 156 487 163 508 175 C 529 187 540 207 540 234 C 540 258 528 279 505 297 C 482 315 445 333 394 352 L 206 425 C 185 415 168 404 154 391 C 140 378 133 360 133 337 C 133 309 145 287 169 271 C 193 255 231 237 282 217 L 442 155 Z" unicode="§" />
<glyph horiz-adv-x="500" d="M 372 500 L 309 500 L 309 656 L 372 656 L 372 500 Z M 191 500 L 128 500 L 128 656 L 191 656 L 191 500 Z" unicode="¨" />
<glyph horiz-adv-x="833" d="M 416 0 C 365 0 317 9 272 29 C 226 49 187 75 154 109 C 120 142 94 181 74 227 C 54 272 45 320 45 371 C 45 421 54 469 74 515 C 94 560 120 599 154 633 C 187 666 226 692 272 712 C 317 732 365 742 416 742 C 466 742 514 732 560 712 C 606 692 645 666 679 633 C 712 599 738 560 758 515 C 778 469 788 421 788 371 C 788 320 778 272 758 227 C 738 181 712 142 679 109 C 645 75 606 49 560 29 C 514 9 466 0 416 0 Z M 416 50 C 459 50 500 58 539 75 C 578 92 612 115 641 144 C 669 172 692 206 709 245 C 726 284 735 326 735 370 C 735 414 726 455 709 494 C 692 533 669 567 641 596 C 612 625 578 648 539 665 C 500 682 459 691 416 691 C 372 691 330 682 291 665 C 252 648 218 625 190 596 C 161 567 138 533 122 494 C 105 455 97 414 97 370 C 97 326 105 284 122 245 C 138 206 161 172 190 144 C 218 115 252 92 291 75 C 330 58 372 50 416 50 Z M 589 240 C 572 215 549 194 520 178 C 491 162 456 154 416 154 C 389 154 363 158 339 168 C 314 178 292 192 273 210 C 254 228 239 251 227 279 C 215 306 210 337 210 372 C 210 405 215 436 225 464 C 235 492 250 515 268 535 C 286 555 307 570 332 581 C 356 592 383 598 411 598 C 455 598 490 590 518 576 C 545 561 567 542 583 520 L 530 482 C 518 496 503 509 485 520 C 467 530 443 536 413 536 C 374 536 342 520 316 488 C 290 456 277 417 277 370 C 277 344 281 322 289 302 C 297 282 307 266 320 253 C 333 239 348 229 365 222 C 382 215 399 212 417 212 C 443 212 467 217 487 229 C 507 241 524 256 537 274 L 589 240 Z" unicode="©" />
<glyph horiz-adv-x="439" d="M 396 330 L 337 330 L 337 390 C 321 369 300 353 272 342 C 244 330 214 325 182 325 C 138 325 102 336 76 358 C 50 380 37 410 37 449 C 37 492 54 525 88 548 C 122 570 168 583 225 587 L 333 594 L 333 602 C 333 628 323 649 304 663 C 284 677 258 684 226 684 C 199 684 174 679 151 671 C 128 662 108 652 90 641 L 67 692 C 87 706 112 718 141 728 C 169 738 202 743 238 743 C 285 743 323 731 352 709 C 381 687 396 651 396 603 L 396 330 Z M 335 436 L 335 546 L 220 538 C 186 536 157 529 135 517 C 112 505 101 484 101 455 C 101 431 110 412 129 398 C 148 384 173 378 204 378 C 228 378 253 383 278 393 C 302 403 321 418 335 436 Z M 409 218 L 42 218 L 42 279 L 409 279 L 409 218 Z" unicode="ª" />
<glyph horiz-adv-x="441" d="M 201 87 L 29 252 L 29 308 L 201 472 L 201 393 L 93 279 L 201 169 L 201 87 Z M 411 87 L 238 252 L 238 308 L 411 472 L 411 393 L 304 279 L 411 170 L 411 87 Z" unicode="«" />
<glyph horiz-adv-x="500" d="M 450 375 L 450 132 L 387 132 L 387 310 L 32 310 L 32 375 L 450 375 Z" unicode="¬" />
<glyph horiz-adv-x="833" d="M 416 0 C 365 0 317 9 272 29 C 226 49 187 75 154 109 C 120 142 94 181 74 227 C 54 272 45 320 45 371 C 45 421 54 469 74 515 C 94 560 120 599 154 633 C 187 666 226 692 272 712 C 317 732 365 742 416 742 C 466 742 514 732 560 712 C 606 692 645 666 679 633 C 712 599 738 560 758 515 C 778 469 788 421 788 371 C 788 320 778 272 758 227 C 738 181 712 142 679 109 C 645 75 606 49 560 29 C 514 9 466 0 416 0 Z M 416 50 C 460 50 501 58 540 75 C 578 91 612 114 641 142 C 670 170 693 204 710 244 C 726 283 735 325 735 370 C 735 415 726 457 710 497 C 693 536 670 570 641 599 C 612 627 578 650 540 667 C 501 683 460 692 416 692 C 372 692 330 683 292 667 C 253 650 219 627 190 598 C 161 569 138 535 122 496 C 105 456 97 414 97 370 C 97 326 105 284 122 245 C 138 205 161 171 190 143 C 219 114 253 91 292 75 C 330 58 372 50 416 50 Z M 279 163 L 279 598 L 434 598 C 452 598 469 595 487 591 C 504 586 519 579 533 569 C 547 559 558 547 566 532 C 574 517 579 499 579 478 C 579 440 568 411 546 393 C 524 374 502 363 478 360 L 477 356 L 612 163 L 541 163 L 422 337 L 341 337 L 341 163 L 279 163 Z M 341 390 L 439 390 C 457 390 475 396 492 410 C 508 424 517 444 517 471 C 517 497 509 516 492 527 C 474 537 453 543 428 543 L 341 543 L 341 390 Z" unicode="®" />
<glyph horiz-adv-x="500" d="M 377 527 L 123 527 L 123 582 L 377 582 L 377 527 Z" unicode="¯" />
<glyph horiz-adv-x="436" d="M 218 366 C 192 366 167 371 144 381 C 121 391 101 404 85 421 C 68 437 55 457 45 480 C 35 503 30 528 30 554 C 30 580 35 604 45 627 C 55 650 68 670 85 687 C 101 703 121 717 144 727 C 167 737 192 742 218 742 C 244 742 268 737 291 727 C 314 717 334 703 351 687 C 367 670 381 650 391 627 C 401 604 406 580 406 554 C 406 528 401 503 391 480 C 381 457 367 437 351 421 C 334 404 314 391 291 381 C 268 371 244 366 218 366 Z M 218 425 C 253 425 283 437 309 463 C 335 488 348 518 348 554 C 348 589 335 619 309 645 C 283 671 253 684 218 684 C 182 684 152 671 126 645 C 100 619 88 589 88 554 C 88 518 100 488 126 463 C 152 437 182 425 218 425 Z" unicode="°" />
<glyph horiz-adv-x="500" d="M 473 302 L 282 302 L 282 115 L 218 115 L 218 302 L 27 302 L 27 360 L 218 360 L 218 547 L 282 547 L 282 360 L 473 360 L 473 302 Z M 467 28 L 35 28 L 35 81 L 467 81 L 467 28 Z" unicode="±" />
<glyph horiz-adv-x="341" d="M 307 372 L 28 372 L 28 396 L 194 551 C 202 558 210 567 218 579 C 226 591 230 605 230 621 C 230 637 223 652 211 666 C 199 679 181 686 157 686 C 129 686 110 677 98 661 C 86 645 80 626 80 606 L 21 606 C 21 641 33 672 57 700 C 81 727 117 741 163 741 C 207 741 240 730 262 709 C 284 688 296 663 296 635 C 296 608 290 586 280 568 C 270 550 259 535 248 525 L 136 426 L 307 426 L 307 372 Z" unicode="²" />
<glyph horiz-adv-x="346" d="M 223 569 C 252 565 275 554 291 537 C 307 520 315 500 315 477 C 315 464 312 451 307 438 C 302 424 294 412 282 401 C 270 390 255 381 235 374 C 215 367 190 364 161 364 C 121 364 89 368 67 378 C 44 387 26 397 12 407 L 48 444 C 60 436 75 430 93 424 C 111 418 133 415 159 415 C 193 415 217 421 233 435 C 248 449 256 466 256 486 C 256 508 246 522 228 530 C 210 537 189 541 167 541 L 95 541 L 95 588 L 162 588 C 185 588 204 592 218 602 C 232 611 239 624 239 641 C 239 655 232 667 220 676 C 207 685 188 690 162 690 C 139 690 119 685 101 677 C 83 668 70 658 61 646 L 25 681 C 37 695 55 709 77 722 C 99 735 131 742 171 742 C 212 742 244 733 266 716 C 288 698 300 677 300 652 C 300 630 292 612 277 598 C 262 583 244 573 223 569 Z" unicode="³" />
<glyph horiz-adv-x="500" d="M 162 498 L 268 663 L 356 663 L 236 498 L 162 498 Z" unicode="´" />
<glyph horiz-adv-x="566" d="M 75 -112 L 75 436 L 148 436 L 148 153 C 148 120 158 94 179 76 C 199 58 227 49 261 49 C 296 49 327 60 353 82 C 379 104 393 137 393 183 L 393 436 L 466 436 L 466 0 L 399 0 L 399 101 C 388 70 369 44 343 23 C 316 2 284 -8 248 -9 C 222 -9 199 -3 181 7 C 163 17 150 32 143 52 L 143 -112 L 75 -112 Z" unicode="µ" />
<glyph horiz-adv-x="677" d="M 600 -179 L 549 -179 L 549 671 L 423 671 L 423 -179 L 372 -179 L 372 247 L 263 247 C 232 247 202 253 173 266 C 144 279 119 296 97 318 C 75 339 57 364 44 393 C 30 422 24 453 24 485 C 24 519 30 552 43 582 C 55 612 73 637 95 659 C 117 681 145 698 177 711 C 209 723 244 730 283 730 L 600 730 L 600 -179 Z M 373 309 L 373 668 L 299 668 C 242 668 200 650 174 616 C 147 582 134 539 134 487 C 134 463 137 440 144 418 C 150 396 160 378 173 362 C 186 346 202 333 221 323 C 240 313 262 309 287 309 L 373 309 Z" unicode="¶" />
<glyph horiz-adv-x="241" d="M 159 282 L 83 282 L 83 401 L 159 401 L 159 282 Z" unicode="·" />
<glyph horiz-adv-x="500" d="M 255 -186 C 231 -186 207 -183 183 -177 C 159 -171 140 -163 126 -154 L 135 -119 C 145 -125 159 -131 176 -137 C 192 -143 211 -146 232 -146 C 248 -146 263 -142 276 -134 C 288 -126 295 -117 295 -105 C 295 -90 289 -80 278 -74 C 266 -68 254 -66 242 -66 C 233 -66 225 -66 219 -68 C 213 -69 206 -71 198 -74 L 184 -60 L 244 10 L 291 10 L 241 -52 C 275 -43 305 -45 330 -58 C 354 -70 367 -89 367 -113 C 367 -137 355 -156 333 -168 C 311 -180 285 -186 255 -186 Z" unicode="¸" />
<glyph horiz-adv-x="318" d="M 146 372 L 146 662 C 139 650 126 639 106 630 C 86 621 68 615 53 613 L 52 678 C 76 681 97 688 115 699 C 133 710 150 724 168 741 L 215 741 L 215 372 L 146 372 Z" unicode="¹" />
<glyph horiz-adv-x="447" d="M 220 324 C 194 324 169 328 145 338 C 121 348 99 361 81 379 C 63 396 48 417 37 443 C 26 469 21 498 21 530 C 21 558 26 584 37 610 C 47 636 62 658 80 677 C 98 696 119 711 144 723 C 168 735 195 741 223 741 C 251 741 278 736 303 726 C 327 716 349 702 367 684 C 385 666 400 645 410 620 C 420 595 426 568 426 539 C 426 508 420 479 410 453 C 399 427 384 404 366 385 C 348 366 326 351 301 340 C 275 329 248 324 220 324 Z M 222 384 C 262 384 295 398 321 427 C 347 455 360 492 360 536 C 360 577 347 612 323 640 C 298 668 264 683 222 683 C 182 683 150 668 125 639 C 99 610 87 574 87 530 C 87 486 100 451 126 424 C 152 397 184 384 222 384 Z M 38 218 L 38 279 L 404 279 L 404 218 L 38 218 Z" unicode="º" />
<glyph horiz-adv-x="441" d="M 30 472 L 203 306 L 203 251 L 30 87 L 30 165 L 138 280 L 30 389 L 30 472 Z M 240 472 L 413 306 L 413 251 L 240 87 L 240 165 L 348 280 L 240 389 L 240 472 Z" unicode="»" />
<glyph horiz-adv-x="696" d="M 12 0 L 12 0 Z M 106 372 L 106 662 C 99 650 86 639 66 630 C 46 621 28 615 13 613 L 12 678 C 36 681 57 688 75 699 C 93 710 110 724 128 741 L 175 741 L 175 372 L 106 372 Z M 570 730 L 190 0 L 125 0 L 505 730 L 570 730 Z M 385 86 L 385 131 L 577 367 L 620 367 L 620 135 L 684 135 L 684 86 L 620 86 L 620 1 L 558 1 L 558 86 L 385 86 Z M 437 126 L 560 126 L 560 281 L 437 126 Z" unicode="¼" />
<glyph horiz-adv-x="760" d="M 12 0 L 12 0 Z M 106 372 L 106 662 C 99 650 86 639 66 630 C 46 621 28 615 13 613 L 12 678 C 36 681 57 688 75 699 C 93 710 110 724 128 741 L 175 741 L 175 372 L 106 372 Z M 570 730 L 190 0 L 125 0 L 505 730 L 570 730 Z M 737 0 L 458 0 L 458 24 L 624 179 C 632 186 640 195 648 207 C 656 219 660 233 660 249 C 660 265 653 280 641 294 C 629 307 611 314 587 314 C 559 314 540 305 528 289 C 516 273 510 254 510 234 L 451 234 C 451 269 463 300 487 328 C 511 355 547 369 593 369 C 637 369 670 358 692 337 C 714 316 726 291 726 263 C 726 236 720 214 710 196 C 700 178 689 163 678 153 L 566 54 L 737 54 L 737 0 Z" unicode="½" />
<glyph horiz-adv-x="759" d="M 12 0 L 12 0 Z M 633 730 L 253 0 L 188 0 L 568 730 L 633 730 Z M 448 86 L 448 131 L 640 367 L 683 367 L 683 135 L 747 135 L 747 86 L 683 86 L 683 1 L 621 1 L 621 86 L 448 86 Z M 500 126 L 623 126 L 623 281 L 500 126 Z M 223 569 C 252 565 275 554 291 537 C 307 520 315 500 315 477 C 315 464 312 451 307 438 C 302 424 294 412 282 401 C 270 390 255 381 235 374 C 215 367 190 364 161 364 C 121 364 89 368 67 378 C 44 387 26 397 12 407 L 48 444 C 60 436 75 430 93 424 C 111 418 133 415 159 415 C 193 415 217 421 233 435 C 248 449 256 466 256 486 C 256 508 246 522 228 530 C 210 537 189 541 167 541 L 95 541 L 95 588 L 162 588 C 185 588 204 592 218 602 C 232 611 239 624 239 641 C 239 655 232 667 220 676 C 207 685 188 690 162 690 C 139 690 119 685 101 677 C 83 668 70 658 61 646 L 25 681 C 37 695 55 709 77 722 C 99 735 131 742 171 742 C 212 742 244 733 266 716 C 288 698 300 677 300 652 C 300 630 292 612 277 598 C 262 583 244 573 223 569 Z" unicode="¾" />
<glyph horiz-adv-x="464" d="M 210 503 L 210 591 L 295 591 L 295 503 L 210 503 Z M 232 -141 C 202 -141 174 -137 148 -130 C 122 -122 99 -111 80 -97 C 60 -83 45 -65 34 -44 C 23 -22 18 1 18 29 C 18 55 22 78 31 98 C 39 118 50 135 63 151 C 76 166 90 180 106 192 C 121 204 135 214 148 224 C 178 246 196 273 204 305 C 212 336 216 367 217 399 L 291 399 C 291 347 286 307 276 279 C 266 250 245 223 213 197 C 200 187 187 176 173 166 C 159 156 146 144 135 132 C 124 120 115 106 108 91 C 100 75 97 58 97 38 C 97 2 110 -25 138 -46 C 165 -66 199 -77 239 -77 C 273 -77 305 -69 333 -53 C 361 -37 384 -19 403 3 L 453 -42 C 430 -69 400 -92 363 -112 C 325 -131 282 -141 232 -141 Z" unicode="¿" />
<glyph horiz-adv-x="649" d="M 4 0 L 4 0 Z M 645 0 L 562 0 L 475 216 L 170 216 L 85 0 L 4 0 L 303 734 L 349 734 L 645 0 Z M 450 285 L 322 600 L 196 285 L 450 285 Z M 325 792 L 325 792 Z M 423 792 L 347 792 L 228 957 L 315 957 L 423 792 Z" unicode="À" />
<glyph horiz-adv-x="649" d="M 4 0 L 4 0 Z M 645 0 L 562 0 L 475 216 L 170 216 L 85 0 L 4 0 L 303 734 L 349 734 L 645 0 Z M 450 285 L 322 600 L 196 285 L 450 285 Z M 325 792 L 325 792 Z M 229 792 L 335 957 L 423 957 L 303 792 L 229 792 Z" unicode="Á" />
<glyph horiz-adv-x="649" d="M 4 0 L 4 0 Z M 645 0 L 562 0 L 475 216 L 170 216 L 85 0 L 4 0 L 303 734 L 349 734 L 645 0 Z M 450 285 L 322 600 L 196 285 L 450 285 Z M 325 793 L 325 793 Z M 486 793 L 416 793 L 325 911 L 232 793 L 164 793 L 287 964 L 363 964 L 486 793 Z" unicode="Â" />
<glyph horiz-adv-x="649" d="M 4 0 L 4 0 Z M 645 0 L 562 0 L 475 216 L 170 216 L 85 0 L 4 0 L 303 734 L 349 734 L 645 0 Z M 450 285 L 322 600 L 196 285 L 450 285 Z M 325 801 L 325 801 Z M 427 932 L 483 932 C 483 887 476 854 464 833 C 451 811 434 801 414 801 C 395 801 378 805 364 813 C 349 821 337 828 327 836 C 316 844 306 851 296 858 C 286 865 277 869 267 869 C 256 869 247 863 240 851 C 232 839 228 824 228 805 L 172 805 C 172 849 180 881 198 903 C 215 925 233 936 253 936 C 269 936 284 932 296 924 C 308 916 320 907 333 898 C 342 890 352 883 362 876 C 372 868 382 865 392 865 C 401 865 409 871 416 883 C 423 895 427 911 427 932 Z" unicode="Ã" />
<glyph horiz-adv-x="649" d="M 4 0 L 4 0 Z M 645 0 L 562 0 L 475 216 L 170 216 L 85 0 L 4 0 L 303 734 L 349 734 L 645 0 Z M 450 285 L 322 600 L 196 285 L 450 285 Z M 325 794 L 325 794 Z M 445 794 L 382 794 L 382 950 L 445 950 L 445 794 Z M 264 794 L 201 794 L 201 950 L 264 950 L 264 794 Z" unicode="Ä" />
<glyph horiz-adv-x="649" d="M 4 0 L 4 0 Z M 645 0 L 562 0 L 475 216 L 170 216 L 85 0 L 4 0 L 303 734 L 349 734 L 645 0 Z M 450 285 L 322 600 L 196 285 L 450 285 Z M 325 790 L 325 790 Z M 325 790 C 294 790 268 801 246 823 C 224 845 214 871 214 902 C 214 932 224 958 246 980 C 268 1002 294 1013 325 1013 C 356 1013 382 1002 404 980 C 426 958 437 932 437 902 C 437 871 426 845 404 823 C 382 801 356 790 325 790 Z M 325 834 C 343 834 359 840 372 854 C 384 867 391 883 391 902 C 391 920 384 936 372 949 C 359 962 343 969 325 969 C 306 969 290 962 278 949 C 265 936 259 920 259 902 C 259 883 265 867 278 854 C 290 840 306 834 325 834 Z" unicode="Å" />
<glyph horiz-adv-x="962" d="M 905 0 L 484 0 L 484 257 L 235 257 L 73 0 L -13 0 L 450 730 L 886 730 L 886 658 L 563 658 L 563 397 L 873 397 L 873 325 L 563 325 L 563 72 L 905 72 L 905 0 Z M 484 325 L 484 652 L 278 325 L 484 325 Z" unicode="Æ" />
<glyph horiz-adv-x="713" d="M 49 0 L 49 0 Z M 410 -12 C 361 -12 315 -3 271 13 C 227 30 188 55 156 87 C 123 119 97 159 78 206 C 58 253 49 306 49 365 C 49 418 58 468 76 514 C 94 560 119 600 151 634 C 183 667 221 693 266 713 C 310 732 359 742 412 742 C 478 742 533 732 577 713 C 621 694 659 669 689 637 L 640 571 C 617 597 587 620 550 638 C 512 656 467 666 414 666 C 370 666 330 658 295 643 C 260 627 231 606 207 579 C 183 552 164 520 151 483 C 138 445 132 405 132 361 C 132 311 140 268 156 231 C 172 193 193 162 219 137 C 245 112 275 93 309 80 C 343 67 378 61 414 61 C 470 61 518 72 558 94 C 598 116 632 142 658 173 L 704 121 C 672 83 631 51 581 26 C 531 0 474 -12 410 -12 Z M 391 -3 L 391 -3 Z M 400 -189 C 376 -189 352 -186 328 -180 C 304 -174 285 -166 271 -157 L 280 -122 C 290 -128 304 -134 321 -140 C 337 -146 356 -149 377 -149 C 393 -149 408 -145 421 -137 C 433 -129 440 -120 440 -108 C 440 -93 434 -83 423 -77 C 411 -71 399 -69 387 -69 C 378 -69 370 -69 364 -71 C 358 -72 351 -74 343 -77 L 329 -63 L 389 7 L 436 7 L 386 -55 C 420 -46 450 -48 475 -61 C 499 -73 512 -92 512 -116 C 512 -140 500 -159 478 -171 C 456 -183 430 -189 400 -189 Z" unicode="Ç" />
<glyph horiz-adv-x="577" d="M 99 0 L 99 0 Z M 521 0 L 99 0 L 99 730 L 502 730 L 502 658 L 178 658 L 178 397 L 488 397 L 488 325 L 178 325 L 178 72 L 521 72 L 521 0 Z M 302 792 L 302 792 Z M 400 792 L 324 792 L 205 957 L 292 957 L 400 792 Z" unicode="È" />
<glyph horiz-adv-x="577" d="M 99 0 L 99 0 Z M 521 0 L 99 0 L 99 730 L 502 730 L 502 658 L 178 658 L 178 397 L 488 397 L 488 325 L 178 325 L 178 72 L 521 72 L 521 0 Z M 302 792 L 302 792 Z M 206 792 L 312 957 L 400 957 L 280 792 L 206 792 Z" unicode="É" />
<glyph horiz-adv-x="577" d="M 99 0 L 99 0 Z M 521 0 L 99 0 L 99 730 L 502 730 L 502 658 L 178 658 L 178 397 L 488 397 L 488 325 L 178 325 L 178 72 L 521 72 L 521 0 Z M 302 793 L 302 793 Z M 463 793 L 393 793 L 302 911 L 209 793 L 141 793 L 264 964 L 340 964 L 463 793 Z" unicode="Ê" />
<glyph horiz-adv-x="577" d="M 99 0 L 99 0 Z M 521 0 L 99 0 L 99 730 L 502 730 L 502 658 L 178 658 L 178 397 L 488 397 L 488 325 L 178 325 L 178 72 L 521 72 L 521 0 Z M 302 794 L 302 794 Z M 422 794 L 359 794 L 359 950 L 422 950 L 422 794 Z M 241 794 L 178 794 L 178 950 L 241 950 L 241 794 Z" unicode="Ë" />
<glyph horiz-adv-x="287" d="M 46 0 L 46 0 Z M 184 0 L 104 0 L 104 730 L 184 730 L 184 0 Z M 143 792 L 143 792 Z M 241 792 L 165 792 L 46 957 L 133 957 L 241 792 Z" unicode="Ì" />
<glyph horiz-adv-x="287" d="M 47 0 L 47 0 Z M 184 0 L 104 0 L 104 730 L 184 730 L 184 0 Z M 143 792 L 143 792 Z M 47 792 L 153 957 L 241 957 L 121 792 L 47 792 Z" unicode="Í" />
<glyph horiz-adv-x="287" d="M 0 0 L 0 0 Z M 184 0 L 104 0 L 104 730 L 184 730 L 184 0 Z M 143 793 L 143 793 Z M 304 793 L 234 793 L 143 911 L 50 793 L -18 793 L 105 964 L 181 964 L 304 793 Z" unicode="Î" />
<glyph horiz-adv-x="287" d="M 19 0 L 19 0 Z M 184 0 L 104 0 L 104 730 L 184 730 L 184 0 Z M 143 794 L 143 794 Z M 263 794 L 200 794 L 200 950 L 263 950 L 263 794 Z M 82 794 L 19 794 L 19 950 L 82 950 L 82 794 Z" unicode="Ï" />
<glyph horiz-adv-x="744" d="M 695 367 C 695 316 686 268 669 224 C 651 179 626 140 592 107 C 558 74 516 48 466 29 C 416 9 358 0 292 0 L 99 0 L 99 324 L 35 324 L 35 391 L 99 391 L 99 730 L 306 730 C 367 730 422 721 470 704 C 518 687 559 663 592 632 C 625 600 650 562 668 517 C 686 472 695 422 695 367 Z M 179 71 L 284 71 C 342 71 391 79 433 95 C 475 111 509 133 535 160 C 561 187 580 218 592 254 C 604 290 611 326 611 364 C 611 455 583 527 529 579 C 474 631 400 657 306 657 L 179 657 L 179 391 L 375 391 L 375 324 L 179 324 L 179 71 Z" unicode="Ð" />
<glyph horiz-adv-x="783" d="M 99 0 L 99 0 Z M 684 0 L 628 0 L 175 583 L 175 0 L 99 0 L 99 730 L 159 730 L 607 148 L 607 730 L 684 730 L 684 0 Z M 394 801 L 394 801 Z M 496 932 L 552 932 C 552 887 545 854 533 833 C 520 811 503 801 483 801 C 464 801 447 805 433 813 C 418 821 406 828 396 836 C 385 844 375 851 365 858 C 355 865 346 869 336 869 C 325 869 316 863 309 851 C 301 839 297 824 297 805 L 241 805 C 241 849 249 881 267 903 C 284 925 302 936 322 936 C 338 936 353 932 365 924 C 377 916 389 907 402 898 C 411 890 421 883 431 876 C 441 868 451 865 461 865 C 470 865 478 871 485 883 C 492 895 496 911 496 932 Z" unicode="Ñ" />
<glyph horiz-adv-x="845" d="M 49 0 L 49 0 Z M 426 -12 C 370 -12 318 -2 272 16 C 226 35 186 61 153 95 C 120 129 94 169 76 216 C 58 263 49 314 49 370 C 49 422 58 470 77 516 C 96 562 122 601 155 635 C 188 668 227 694 273 713 C 318 732 366 742 418 742 C 474 742 525 732 572 714 C 618 696 658 670 691 637 C 724 604 750 564 769 518 C 787 472 797 421 797 367 C 797 312 787 261 767 215 C 747 168 721 128 687 95 C 653 61 614 35 569 16 C 524 -2 476 -12 426 -12 Z M 425 62 C 465 62 502 69 538 84 C 573 98 604 119 630 146 C 656 173 676 206 691 244 C 706 282 714 325 714 371 C 714 413 706 453 692 489 C 677 525 657 557 631 583 C 605 609 574 629 538 644 C 502 658 463 666 421 666 C 379 666 340 659 305 645 C 269 631 239 611 213 585 C 187 559 167 528 153 491 C 139 453 132 412 132 366 C 132 318 139 276 155 238 C 171 200 192 169 218 143 C 244 117 275 97 311 83 C 347 69 385 62 425 62 Z M 421 792 L 421 792 Z M 519 792 L 443 792 L 324 957 L 411 957 L 519 792 Z" unicode="Ò" />
<glyph horiz-adv-x="845" d="M 49 0 L 49 0 Z M 426 -12 C 370 -12 318 -2 272 16 C 226 35 186 61 153 95 C 120 129 94 169 76 216 C 58 263 49 314 49 370 C 49 422 58 470 77 516 C 96 562 122 601 155 635 C 188 668 227 694 273 713 C 318 732 366 742 418 742 C 474 742 525 732 572 714 C 618 696 658 670 691 637 C 724 604 750 564 769 518 C 787 472 797 421 797 367 C 797 312 787 261 767 215 C 747 168 721 128 687 95 C 653 61 614 35 569 16 C 524 -2 476 -12 426 -12 Z M 425 62 C 465 62 502 69 538 84 C 573 98 604 119 630 146 C 656 173 676 206 691 244 C 706 282 714 325 714 371 C 714 413 706 453 692 489 C 677 525 657 557 631 583 C 605 609 574 629 538 644 C 502 658 463 666 421 666 C 379 666 340 659 305 645 C 269 631 239 611 213 585 C 187 559 167 528 153 491 C 139 453 132 412 132 366 C 132 318 139 276 155 238 C 171 200 192 169 218 143 C 244 117 275 97 311 83 C 347 69 385 62 425 62 Z M 421 792 L 421 792 Z M 325 792 L 431 957 L 519 957 L 399 792 L 325 792 Z" unicode="Ó" />
<glyph horiz-adv-x="845" d="M 49 0 L 49 0 Z M 426 -12 C 370 -12 318 -2 272 16 C 226 35 186 61 153 95 C 120 129 94 169 76 216 C 58 263 49 314 49 370 C 49 422 58 470 77 516 C 96 562 122 601 155 635 C 188 668 227 694 273 713 C 318 732 366 742 418 742 C 474 742 525 732 572 714 C 618 696 658 670 691 637 C 724 604 750 564 769 518 C 787 472 797 421 797 367 C 797 312 787 261 767 215 C 747 168 721 128 687 95 C 653 61 614 35 569 16 C 524 -2 476 -12 426 -12 Z M 425 62 C 465 62 502 69 538 84 C 573 98 604 119 630 146 C 656 173 676 206 691 244 C 706 282 714 325 714 371 C 714 413 706 453 692 489 C 677 525 657 557 631 583 C 605 609 574 629 538 644 C 502 658 463 666 421 666 C 379 666 340 659 305 645 C 269 631 239 611 213 585 C 187 559 167 528 153 491 C 139 453 132 412 132 366 C 132 318 139 276 155 238 C 171 200 192 169 218 143 C 244 117 275 97 311 83 C 347 69 385 62 425 62 Z M 421 793 L 421 793 Z M 582 793 L 512 793 L 421 911 L 328 793 L 260 793 L 383 964 L 459 964 L 582 793 Z" unicode="Ô" />
<glyph horiz-adv-x="845" d="M 49 0 L 49 0 Z M 426 -12 C 370 -12 318 -2 272 16 C 226 35 186 61 153 95 C 120 129 94 169 76 216 C 58 263 49 314 49 370 C 49 422 58 470 77 516 C 96 562 122 601 155 635 C 188 668 227 694 273 713 C 318 732 366 742 418 742 C 474 742 525 732 572 714 C 618 696 658 670 691 637 C 724 604 750 564 769 518 C 787 472 797 421 797 367 C 797 312 787 261 767 215 C 747 168 721 128 687 95 C 653 61 614 35 569 16 C 524 -2 476 -12 426 -12 Z M 425 62 C 465 62 502 69 538 84 C 573 98 604 119 630 146 C 656 173 676 206 691 244 C 706 282 714 325 714 371 C 714 413 706 453 692 489 C 677 525 657 557 631 583 C 605 609 574 629 538 644 C 502 658 463 666 421 666 C 379 666 340 659 305 645 C 269 631 239 611 213 585 C 187 559 167 528 153 491 C 139 453 132 412 132 366 C 132 318 139 276 155 238 C 171 200 192 169 218 143 C 244 117 275 97 311 83 C 347 69 385 62 425 62 Z M 421 801 L 421 801 Z M 523 932 L 579 932 C 579 887 572 854 560 833 C 547 811 530 801 510 801 C 491 801 474 805 460 813 C 445 821 433 828 423 836 C 412 844 402 851 392 858 C 382 865 373 869 363 869 C 352 869 343 863 336 851 C 328 839 324 824 324 805 L 268 805 C 268 849 276 881 294 903 C 311 925 329 936 349 936 C 365 936 380 932 392 924 C 404 916 416 907 429 898 C 438 890 448 883 458 876 C 468 868 478 865 488 865 C 497 865 505 871 512 883 C 519 895 523 911 523 932 Z" unicode="Õ" />
<glyph horiz-adv-x="845" d="M 49 0 L 49 0 Z M 426 -12 C 370 -12 318 -2 272 16 C 226 35 186 61 153 95 C 120 129 94 169 76 216 C 58 263 49 314 49 370 C 49 422 58 470 77 516 C 96 562 122 601 155 635 C 188 668 227 694 273 713 C 318 732 366 742 418 742 C 474 742 525 732 572 714 C 618 696 658 670 691 637 C 724 604 750 564 769 518 C 787 472 797 421 797 367 C 797 312 787 261 767 215 C 747 168 721 128 687 95 C 653 61 614 35 569 16 C 524 -2 476 -12 426 -12 Z M 425 62 C 465 62 502 69 538 84 C 573 98 604 119 630 146 C 656 173 676 206 691 244 C 706 282 714 325 714 371 C 714 413 706 453 692 489 C 677 525 657 557 631 583 C 605 609 574 629 538 644 C 502 658 463 666 421 666 C 379 666 340 659 305 645 C 269 631 239 611 213 585 C 187 559 167 528 153 491 C 139 453 132 412 132 366 C 132 318 139 276 155 238 C 171 200 192 169 218 143 C 244 117 275 97 311 83 C 347 69 385 62 425 62 Z M 421 794 L 421 794 Z M 541 794 L 478 794 L 478 950 L 541 950 L 541 794 Z M 360 794 L 297 794 L 297 950 L 360 950 L 360 794 Z" unicode="Ö" />
<glyph horiz-adv-x="501" d="M 111 150 L 69 192 L 208 331 L 70 469 L 112 512 L 251 373 L 390 512 L 431 469 L 292 331 L 432 192 L 390 148 L 251 289 L 111 150 Z" unicode="×" />
<glyph horiz-adv-x="845" d="M 797 367 C 797 312 787 261 767 215 C 747 168 721 128 687 95 C 653 61 614 35 569 16 C 524 -2 476 -12 426 -12 C 375 -12 328 -4 285 11 C 242 27 204 49 172 78 L 101 7 L 60 47 L 132 119 C 105 151 84 189 70 232 C 56 274 49 320 49 370 C 49 422 58 470 77 516 C 96 562 122 601 155 635 C 188 668 227 694 273 713 C 318 732 366 742 418 742 C 468 742 514 734 557 719 C 599 704 637 683 669 657 L 753 741 L 794 701 L 710 617 C 737 585 758 547 774 505 C 789 463 797 417 797 367 Z M 132 366 C 132 328 137 293 147 261 C 157 229 171 201 190 177 L 612 600 C 587 620 558 636 526 648 C 493 660 458 666 421 666 C 379 666 340 659 305 645 C 269 631 239 611 213 585 C 187 559 167 528 153 491 C 139 453 132 412 132 366 Z M 714 371 C 714 407 708 442 697 474 C 686 506 671 534 652 559 L 228 134 C 254 110 284 92 318 80 C 352 68 387 62 425 62 C 465 62 502 69 538 84 C 573 98 604 119 630 146 C 656 173 676 206 691 244 C 706 282 714 325 714 371 Z" unicode="Ø" />
<glyph horiz-adv-x="737" d="M 90 0 L 90 0 Z M 647 730 L 647 266 C 647 222 639 183 625 149 C 611 114 591 85 566 61 C 541 37 512 19 478 7 C 444 -5 407 -12 368 -12 C 329 -12 293 -6 259 6 C 225 18 195 35 170 59 C 145 83 125 112 111 147 C 97 181 90 221 90 266 L 90 730 L 168 730 L 168 257 C 168 228 173 202 183 178 C 193 154 208 133 226 116 C 244 99 265 86 289 76 C 313 66 338 62 366 62 C 393 62 419 66 444 75 C 469 84 491 97 509 114 C 527 131 542 152 553 176 C 563 200 569 227 569 257 L 569 730 L 647 730 Z M 368 792 L 368 792 Z M 466 792 L 390 792 L 271 957 L 358 957 L 466 792 Z" unicode="Ù" />
<glyph horiz-adv-x="737" d="M 90 0 L 90 0 Z M 647 730 L 647 266 C 647 222 639 183 625 149 C 611 114 591 85 566 61 C 541 37 512 19 478 7 C 444 -5 407 -12 368 -12 C 329 -12 293 -6 259 6 C 225 18 195 35 170 59 C 145 83 125 112 111 147 C 97 181 90 221 90 266 L 90 730 L 168 730 L 168 257 C 168 228 173 202 183 178 C 193 154 208 133 226 116 C 244 99 265 86 289 76 C 313 66 338 62 366 62 C 393 62 419 66 444 75 C 469 84 491 97 509 114 C 527 131 542 152 553 176 C 563 200 569 227 569 257 L 569 730 L 647 730 Z M 368 792 L 368 792 Z M 272 792 L 378 957 L 466 957 L 346 792 L 272 792 Z" unicode="Ú" />
<glyph horiz-adv-x="737" d="M 90 0 L 90 0 Z M 647 730 L 647 266 C 647 222 639 183 625 149 C 611 114 591 85 566 61 C 541 37 512 19 478 7 C 444 -5 407 -12 368 -12 C 329 -12 293 -6 259 6 C 225 18 195 35 170 59 C 145 83 125 112 111 147 C 97 181 90 221 90 266 L 90 730 L 168 730 L 168 257 C 168 228 173 202 183 178 C 193 154 208 133 226 116 C 244 99 265 86 289 76 C 313 66 338 62 366 62 C 393 62 419 66 444 75 C 469 84 491 97 509 114 C 527 131 542 152 553 176 C 563 200 569 227 569 257 L 569 730 L 647 730 Z M 368 793 L 368 793 Z M 529 793 L 459 793 L 368 911 L 275 793 L 207 793 L 330 964 L 406 964 L 529 793 Z" unicode="Û" />
<glyph horiz-adv-x="737" d="M 90 0 L 90 0 Z M 647 730 L 647 266 C 647 222 639 183 625 149 C 611 114 591 85 566 61 C 541 37 512 19 478 7 C 444 -5 407 -12 368 -12 C 329 -12 293 -6 259 6 C 225 18 195 35 170 59 C 145 83 125 112 111 147 C 97 181 90 221 90 266 L 90 730 L 168 730 L 168 257 C 168 228 173 202 183 178 C 193 154 208 133 226 116 C 244 99 265 86 289 76 C 313 66 338 62 366 62 C 393 62 419 66 444 75 C 469 84 491 97 509 114 C 527 131 542 152 553 176 C 563 200 569 227 569 257 L 569 730 L 647 730 Z M 368 794 L 368 794 Z M 488 794 L 425 794 L 425 950 L 488 950 L 488 794 Z M 307 794 L 244 794 L 244 950 L 307 950 L 307 794 Z" unicode="Ü" />
<glyph horiz-adv-x="639" d="M 3 0 L 3 0 Z M 636 730 L 357 329 L 357 0 L 277 0 L 277 332 L 3 730 L 93 730 L 321 403 L 549 730 L 636 730 Z M 319 792 L 319 792 Z M 223 792 L 329 957 L 417 957 L 297 792 L 223 792 Z" unicode="Ý" />
<glyph horiz-adv-x="588" d="M 99 0 L 99 730 L 179 730 L 179 591 L 327 591 C 400 591 456 571 496 531 C 536 491 556 440 556 378 C 556 346 550 317 540 291 C 529 264 514 241 494 222 C 474 202 451 187 424 176 C 396 165 366 160 334 160 L 179 160 L 179 0 L 99 0 Z M 179 232 L 320 232 C 368 232 405 245 433 272 C 461 298 475 335 475 381 C 475 426 459 460 427 483 C 395 506 357 518 311 518 L 179 518 L 179 232 Z" unicode="Þ" />
<glyph horiz-adv-x="613" d="M 431 -12 C 393 -12 360 -6 333 3 C 306 13 283 28 264 46 L 302 97 C 315 83 333 72 357 64 C 380 55 404 51 430 51 C 452 51 472 56 488 67 C 504 77 513 93 513 114 C 513 132 505 147 489 159 C 473 171 445 183 404 196 C 352 212 317 231 299 255 C 281 279 273 306 273 337 C 273 367 283 392 303 412 C 323 432 346 443 372 445 C 375 447 379 449 384 453 C 388 456 393 462 397 470 C 401 478 405 489 408 503 C 411 517 413 535 413 558 C 413 599 401 631 378 653 C 354 675 325 687 289 687 C 255 687 227 676 203 655 C 179 634 167 605 167 568 L 167 0 L 92 0 L 92 571 C 92 597 97 622 108 644 C 118 666 133 684 151 700 C 169 715 189 727 213 735 C 237 743 261 748 287 748 C 343 748 390 731 428 698 C 465 665 484 618 484 556 C 484 506 475 469 458 445 C 441 420 425 404 411 398 C 392 397 375 392 361 382 C 346 372 339 359 339 341 C 339 326 346 312 360 299 C 374 286 401 274 440 263 C 489 248 525 230 547 209 C 569 187 581 158 581 121 C 581 77 566 44 536 22 C 506 0 471 -12 431 -12 Z" unicode="ß" />
<glyph horiz-adv-x="475" d="M 22 0 L 22 0 Z M 417 0 L 347 0 L 347 61 C 334 44 314 28 287 12 C 259 -4 227 -12 189 -12 C 134 -12 92 1 64 27 C 36 53 22 88 22 131 C 22 175 39 211 75 237 C 110 263 160 277 224 280 L 344 287 L 344 299 C 344 329 333 352 313 367 C 293 381 266 389 234 389 C 203 389 175 383 149 373 C 123 363 104 353 92 344 L 60 396 C 74 408 97 419 128 431 C 159 442 197 448 241 448 C 289 448 331 436 365 412 C 399 388 417 349 417 297 L 417 0 Z M 346 110 L 346 231 L 229 225 C 187 223 154 214 131 198 C 107 182 96 161 96 134 C 96 106 105 85 125 71 C 144 57 169 50 201 50 C 233 50 263 56 290 70 C 317 84 336 97 346 110 Z M 230 498 L 230 498 Z M 328 498 L 252 498 L 133 663 L 220 663 L 328 498 Z" unicode="à" />
<glyph horiz-adv-x="475" d="M 22 0 L 22 0 Z M 417 0 L 347 0 L 347 61 C 334 44 314 28 287 12 C 259 -4 227 -12 189 -12 C 134 -12 92 1 64 27 C 36 53 22 88 22 131 C 22 175 39 211 75 237 C 110 263 160 277 224 280 L 344 287 L 344 299 C 344 329 333 352 313 367 C 293 381 266 389 234 389 C 203 389 175 383 149 373 C 123 363 104 353 92 344 L 60 396 C 74 408 97 419 128 431 C 159 442 197 448 241 448 C 289 448 331 436 365 412 C 399 388 417 349 417 297 L 417 0 Z M 346 110 L 346 231 L 229 225 C 187 223 154 214 131 198 C 107 182 96 161 96 134 C 96 106 105 85 125 71 C 144 57 169 50 201 50 C 233 50 263 56 290 70 C 317 84 336 97 346 110 Z M 230 498 L 230 498 Z M 134 498 L 240 663 L 328 663 L 208 498 L 134 498 Z" unicode="á" />
<glyph horiz-adv-x="475" d="M 22 0 L 22 0 Z M 417 0 L 347 0 L 347 61 C 334 44 314 28 287 12 C 259 -4 227 -12 189 -12 C 134 -12 92 1 64 27 C 36 53 22 88 22 131 C 22 175 39 211 75 237 C 110 263 160 277 224 280 L 344 287 L 344 299 C 344 329 333 352 313 367 C 293 381 266 389 234 389 C 203 389 175 383 149 373 C 123 363 104 353 92 344 L 60 396 C 74 408 97 419 128 431 C 159 442 197 448 241 448 C 289 448 331 436 365 412 C 399 388 417 349 417 297 L 417 0 Z M 346 110 L 346 231 L 229 225 C 187 223 154 214 131 198 C 107 182 96 161 96 134 C 96 106 105 85 125 71 C 144 57 169 50 201 50 C 233 50 263 56 290 70 C 317 84 336 97 346 110 Z M 230 499 L 230 499 Z M 391 499 L 321 499 L 230 617 L 137 499 L 69 499 L 192 670 L 268 670 L 391 499 Z" unicode="â" />
<glyph horiz-adv-x="475" d="M 22 0 L 22 0 Z M 417 0 L 347 0 L 347 61 C 334 44 314 28 287 12 C 259 -4 227 -12 189 -12 C 134 -12 92 1 64 27 C 36 53 22 88 22 131 C 22 175 39 211 75 237 C 110 263 160 277 224 280 L 344 287 L 344 299 C 344 329 333 352 313 367 C 293 381 266 389 234 389 C 203 389 175 383 149 373 C 123 363 104 353 92 344 L 60 396 C 74 408 97 419 128 431 C 159 442 197 448 241 448 C 289 448 331 436 365 412 C 399 388 417 349 417 297 L 417 0 Z M 346 110 L 346 231 L 229 225 C 187 223 154 214 131 198 C 107 182 96 161 96 134 C 96 106 105 85 125 71 C 144 57 169 50 201 50 C 233 50 263 56 290 70 C 317 84 336 97 346 110 Z M 230 507 L 230 507 Z M 332 638 L 388 638 C 388 593 381 560 369 539 C 356 517 339 507 319 507 C 300 507 283 511 269 519 C 254 527 242 534 232 542 C 221 550 211 557 201 564 C 191 571 182 575 172 575 C 161 575 152 569 145 557 C 137 545 133 530 133 511 L 77 511 C 77 555 85 587 103 609 C 120 631 138 642 158 642 C 174 642 189 638 201 630 C 213 622 225 613 238 604 C 247 596 257 589 267 582 C 277 574 287 571 297 571 C 306 571 314 577 321 589 C 328 601 332 617 332 638 Z" unicode="ã" />
<glyph horiz-adv-x="475" d="M 22 0 L 22 0 Z M 417 0 L 347 0 L 347 61 C 334 44 314 28 287 12 C 259 -4 227 -12 189 -12 C 134 -12 92 1 64 27 C 36 53 22 88 22 131 C 22 175 39 211 75 237 C 110 263 160 277 224 280 L 344 287 L 344 299 C 344 329 333 352 313 367 C 293 381 266 389 234 389 C 203 389 175 383 149 373 C 123 363 104 353 92 344 L 60 396 C 74 408 97 419 128 431 C 159 442 197 448 241 448 C 289 448 331 436 365 412 C 399 388 417 349 417 297 L 417 0 Z M 346 110 L 346 231 L 229 225 C 187 223 154 214 131 198 C 107 182 96 161 96 134 C 96 106 105 85 125 71 C 144 57 169 50 201 50 C 233 50 263 56 290 70 C 317 84 336 97 346 110 Z M 230 500 L 230 500 Z M 350 500 L 287 500 L 287 656 L 350 656 L 350 500 Z M 169 500 L 106 500 L 106 656 L 169 656 L 169 500 Z" unicode="ä" />
<glyph horiz-adv-x="475" d="M 22 0 L 22 0 Z M 417 0 L 347 0 L 347 61 C 334 44 314 28 287 12 C 259 -4 227 -12 189 -12 C 134 -12 92 1 64 27 C 36 53 22 88 22 131 C 22 175 39 211 75 237 C 110 263 160 277 224 280 L 344 287 L 344 299 C 344 329 333 352 313 367 C 293 381 266 389 234 389 C 203 389 175 383 149 373 C 123 363 104 353 92 344 L 60 396 C 74 408 97 419 128 431 C 159 442 197 448 241 448 C 289 448 331 436 365 412 C 399 388 417 349 417 297 L 417 0 Z M 346 110 L 346 231 L 229 225 C 187 223 154 214 131 198 C 107 182 96 161 96 134 C 96 106 105 85 125 71 C 144 57 169 50 201 50 C 233 50 263 56 290 70 C 317 84 336 97 346 110 Z M 230 496 L 230 496 Z M 230 496 C 199 496 173 507 151 529 C 129 551 119 577 119 608 C 119 638 129 664 151 686 C 173 708 199 719 230 719 C 261 719 287 708 309 686 C 331 664 342 638 342 608 C 342 577 331 551 309 529 C 287 507 261 496 230 496 Z M 230 540 C 248 540 264 546 277 560 C 289 573 296 589 296 608 C 296 626 289 642 277 655 C 264 668 248 675 230 675 C 211 675 195 668 183 655 C 170 642 164 626 164 608 C 164 589 170 573 183 560 C 195 546 211 540 230 540 Z" unicode="å" />
<glyph horiz-adv-x="813" d="M 585 -11 C 529 -11 485 0 453 21 C 421 43 399 68 385 96 C 374 68 351 43 315 21 C 279 0 236 -12 184 -12 C 135 -12 96 0 66 26 C 36 51 22 86 22 131 C 22 175 39 211 74 237 C 109 263 159 277 225 280 L 351 287 L 351 299 C 351 329 338 352 314 367 C 290 381 262 389 231 389 C 200 389 172 383 146 373 C 120 363 102 353 92 344 L 60 396 C 76 409 100 421 132 432 C 164 442 199 448 237 448 C 278 448 314 439 344 422 C 374 404 393 382 400 356 C 411 378 431 399 459 419 C 487 439 528 449 580 449 C 646 449 698 425 737 379 C 776 333 796 272 796 198 L 422 198 C 424 152 439 115 467 89 C 494 63 532 50 582 50 C 625 50 657 56 677 69 C 697 81 715 95 730 111 L 776 68 C 756 44 731 25 703 11 C 674 -3 635 -11 585 -11 Z M 425 256 L 726 256 C 726 272 722 289 715 305 C 707 321 697 335 684 347 C 670 359 654 369 635 377 C 615 384 594 388 571 388 C 547 388 527 384 509 377 C 491 369 477 359 465 347 C 453 335 443 321 437 305 C 430 289 426 272 425 256 Z M 200 50 C 242 50 276 60 304 81 C 332 101 348 125 354 151 L 354 231 L 229 225 C 189 223 156 214 132 199 C 108 184 96 163 96 135 C 96 105 106 84 126 70 C 146 56 171 50 200 50 Z" unicode="æ" />
<glyph horiz-adv-x="462" d="M 29 0 L 29 0 Z M 391 130 L 453 95 C 445 82 436 69 425 57 C 413 44 400 33 384 23 C 368 13 349 4 328 -1 C 306 -7 282 -11 255 -11 C 221 -11 190 -5 162 6 C 134 18 110 34 90 55 C 70 75 55 99 45 127 C 34 155 29 185 29 217 C 29 249 34 280 46 308 C 58 336 74 361 94 382 C 114 402 139 419 167 431 C 195 443 225 449 258 449 C 310 449 352 437 385 415 C 417 393 441 369 455 344 L 386 310 C 373 330 356 348 336 362 C 315 376 289 383 257 383 C 235 383 214 378 196 370 C 177 361 161 349 148 334 C 135 319 125 302 117 282 C 109 262 106 240 106 218 C 106 172 119 133 147 102 C 175 70 212 55 258 55 C 296 55 325 63 345 81 C 365 98 381 114 391 130 Z M 247 -3 L 247 -3 Z M 256 -189 C 232 -189 208 -186 184 -180 C 160 -174 141 -166 127 -157 L 136 -122 C 146 -128 160 -134 177 -140 C 193 -146 212 -149 233 -149 C 249 -149 264 -145 277 -137 C 289 -129 296 -120 296 -108 C 296 -93 290 -83 279 -77 C 267 -71 255 -69 243 -69 C 234 -69 226 -69 220 -71 C 214 -72 207 -74 199 -77 L 185 -63 L 245 7 L 292 7 L 242 -55 C 276 -46 306 -48 331 -61 C 355 -73 368 -92 368 -116 C 368 -140 356 -159 334 -171 C 312 -183 286 -189 256 -189 Z" unicode="ç" />
<glyph horiz-adv-x="497" d="M 30 0 L 30 0 Z M 267 -11 C 233 -11 201 -5 172 4 C 143 14 118 29 97 49 C 76 68 60 92 48 120 C 36 148 30 179 30 215 C 30 247 35 278 46 306 C 57 334 73 359 93 380 C 113 401 138 418 166 430 C 194 442 225 449 259 449 C 325 449 378 427 419 383 C 460 339 481 277 481 198 L 99 198 C 100 153 116 117 146 90 C 176 63 217 50 267 50 C 309 50 341 56 363 69 C 385 82 402 96 415 111 L 460 68 C 441 47 418 29 391 13 C 363 -3 322 -11 267 -11 Z M 101 256 L 410 256 C 408 290 394 320 367 347 C 339 374 303 388 257 388 C 211 388 175 374 147 348 C 119 321 104 290 101 256 Z M 256 498 L 256 498 Z M 354 498 L 278 498 L 159 663 L 246 663 L 354 498 Z" unicode="è" />
<glyph horiz-adv-x="497" d="M 30 0 L 30 0 Z M 267 -11 C 233 -11 201 -5 172 4 C 143 14 118 29 97 49 C 76 68 60 92 48 120 C 36 148 30 179 30 215 C 30 247 35 278 46 306 C 57 334 73 359 93 380 C 113 401 138 418 166 430 C 194 442 225 449 259 449 C 325 449 378 427 419 383 C 460 339 481 277 481 198 L 99 198 C 100 153 116 117 146 90 C 176 63 217 50 267 50 C 309 50 341 56 363 69 C 385 82 402 96 415 111 L 460 68 C 441 47 418 29 391 13 C 363 -3 322 -11 267 -11 Z M 101 256 L 410 256 C 408 290 394 320 367 347 C 339 374 303 388 257 388 C 211 388 175 374 147 348 C 119 321 104 290 101 256 Z M 256 498 L 256 498 Z M 160 498 L 266 663 L 354 663 L 234 498 L 160 498 Z" unicode="é" />
<glyph horiz-adv-x="497" d="M 30 0 L 30 0 Z M 267 -11 C 233 -11 201 -5 172 4 C 143 14 118 29 97 49 C 76 68 60 92 48 120 C 36 148 30 179 30 215 C 30 247 35 278 46 306 C 57 334 73 359 93 380 C 113 401 138 418 166 430 C 194 442 225 449 259 449 C 325 449 378 427 419 383 C 460 339 481 277 481 198 L 99 198 C 100 153 116 117 146 90 C 176 63 217 50 267 50 C 309 50 341 56 363 69 C 385 82 402 96 415 111 L 460 68 C 441 47 418 29 391 13 C 363 -3 322 -11 267 -11 Z M 101 256 L 410 256 C 408 290 394 320 367 347 C 339 374 303 388 257 388 C 211 388 175 374 147 348 C 119 321 104 290 101 256 Z M 256 499 L 256 499 Z M 417 499 L 347 499 L 256 617 L 163 499 L 95 499 L 218 670 L 294 670 L 417 499 Z" unicode="ê" />
<glyph horiz-adv-x="497" d="M 30 0 L 30 0 Z M 267 -11 C 233 -11 201 -5 172 4 C 143 14 118 29 97 49 C 76 68 60 92 48 120 C 36 148 30 179 30 215 C 30 247 35 278 46 306 C 57 334 73 359 93 380 C 113 401 138 418 166 430 C 194 442 225 449 259 449 C 325 449 378 427 419 383 C 460 339 481 277 481 198 L 99 198 C 100 153 116 117 146 90 C 176 63 217 50 267 50 C 309 50 341 56 363 69 C 385 82 402 96 415 111 L 460 68 C 441 47 418 29 391 13 C 363 -3 322 -11 267 -11 Z M 101 256 L 410 256 C 408 290 394 320 367 347 C 339 374 303 388 257 388 C 211 388 175 374 147 348 C 119 321 104 290 101 256 Z M 256 500 L 256 500 Z M 376 500 L 313 500 L 313 656 L 376 656 L 376 500 Z M 195 500 L 132 500 L 132 656 L 195 656 L 195 500 Z" unicode="ë" />
<glyph horiz-adv-x="219" d="M 11 0 L 11 0 Z M 146 0 L 73 0 L 73 436 L 146 436 L 146 0 Z M 108 498 L 108 498 Z M 206 498 L 130 498 L 11 663 L 98 663 L 206 498 Z" unicode="ì" />
<glyph horiz-adv-x="219" d="M 12 0 L 12 0 Z M 146 0 L 73 0 L 73 436 L 146 436 L 146 0 Z M 108 498 L 108 498 Z M 12 498 L 118 663 L 206 663 L 86 498 L 12 498 Z" unicode="í" />
<glyph horiz-adv-x="219" d="M 0 0 L 0 0 Z M 146 0 L 73 0 L 73 436 L 146 436 L 146 0 Z M 108 499 L 108 499 Z M 269 499 L 199 499 L 108 617 L 15 499 L -53 499 L 70 670 L 146 670 L 269 499 Z" unicode="î" />
<glyph horiz-adv-x="219" d="M 0 0 L 0 0 Z M 146 0 L 73 0 L 73 436 L 146 436 L 146 0 Z M 108 500 L 108 500 Z M 228 500 L 165 500 L 165 656 L 228 656 L 228 500 Z M 47 500 L -16 500 L -16 656 L 47 656 L 47 500 Z" unicode="ï" />
<glyph horiz-adv-x="541" d="M 506 238 C 506 204 500 171 489 141 C 477 111 461 84 441 62 C 420 40 394 22 364 9 C 334 -4 300 -11 263 -11 C 231 -11 200 -5 172 6 C 144 17 119 33 98 53 C 77 73 60 97 48 126 C 36 154 30 186 30 220 C 30 251 36 280 49 308 C 61 336 78 360 100 380 C 121 400 146 417 174 429 C 202 441 231 447 262 447 C 283 447 303 444 321 438 C 339 432 356 424 370 416 C 384 407 396 397 406 387 C 416 377 423 367 428 359 C 423 406 412 448 396 485 C 379 521 360 553 339 580 L 188 542 L 172 592 L 300 623 C 273 648 247 667 223 681 C 199 695 180 704 168 709 L 230 741 C 246 733 267 721 293 705 C 318 689 343 667 369 640 L 450 660 L 465 611 L 406 596 C 433 558 456 509 476 451 C 496 392 506 321 506 238 Z M 262 52 C 287 52 310 56 331 65 C 351 74 369 86 383 101 C 397 116 409 134 417 155 C 425 175 429 197 429 220 C 429 266 414 305 386 337 C 357 369 318 385 270 385 C 247 385 225 380 205 371 C 185 362 167 350 153 336 C 138 321 126 304 118 284 C 109 264 105 243 105 221 C 105 171 120 131 151 99 C 182 67 219 52 262 52 Z" unicode="ð" />
<glyph horiz-adv-x="520" d="M 67 0 L 67 0 Z M 459 0 L 385 0 L 385 284 C 385 316 375 342 355 361 C 335 380 308 390 272 390 C 238 390 207 378 180 356 C 153 334 140 299 140 251 L 140 0 L 67 0 L 67 436 L 138 436 L 138 349 C 148 377 167 401 197 420 C 226 439 260 449 298 449 C 347 449 386 435 415 407 C 444 379 459 343 459 297 L 459 0 Z M 260 507 L 260 507 Z M 362 638 L 418 638 C 418 593 411 560 399 539 C 386 517 369 507 349 507 C 330 507 313 511 299 519 C 284 527 272 534 262 542 C 251 550 241 557 231 564 C 221 571 212 575 202 575 C 191 575 182 569 175 557 C 167 545 163 530 163 511 L 107 511 C 107 555 115 587 133 609 C 150 631 168 642 188 642 C 204 642 219 638 231 630 C 243 622 255 613 268 604 C 277 596 287 589 297 582 C 307 574 317 571 327 571 C 336 571 344 577 351 589 C 358 601 362 617 362 638 Z" unicode="ñ" />
<glyph horiz-adv-x="526" d="M 29 0 L 29 0 Z M 259 -11 C 229 -11 201 -5 173 5 C 145 15 121 30 100 50 C 78 70 61 94 48 122 C 35 150 29 182 29 217 C 29 248 35 278 47 306 C 59 334 76 358 96 379 C 116 400 141 417 169 430 C 197 442 226 449 257 449 C 289 449 319 443 349 433 C 378 422 403 407 425 388 C 447 368 464 345 477 318 C 490 291 497 261 497 229 C 497 195 490 163 478 134 C 466 104 449 79 428 58 C 406 36 381 19 352 7 C 323 -4 292 -11 259 -11 Z M 261 53 C 307 53 345 69 375 101 C 405 133 420 173 420 223 C 420 267 405 306 375 338 C 345 370 305 386 255 386 C 213 386 178 370 149 339 C 120 307 106 268 106 220 C 106 168 121 127 151 97 C 181 67 218 53 261 53 Z M 257 498 L 257 498 Z M 355 498 L 279 498 L 160 663 L 247 663 L 355 498 Z" unicode="ò" />
<glyph horiz-adv-x="526" d="M 29 0 L 29 0 Z M 259 -11 C 229 -11 201 -5 173 5 C 145 15 121 30 100 50 C 78 70 61 94 48 122 C 35 150 29 182 29 217 C 29 248 35 278 47 306 C 59 334 76 358 96 379 C 116 400 141 417 169 430 C 197 442 226 449 257 449 C 289 449 319 443 349 433 C 378 422 403 407 425 388 C 447 368 464 345 477 318 C 490 291 497 261 497 229 C 497 195 490 163 478 134 C 466 104 449 79 428 58 C 406 36 381 19 352 7 C 323 -4 292 -11 259 -11 Z M 261 53 C 307 53 345 69 375 101 C 405 133 420 173 420 223 C 420 267 405 306 375 338 C 345 370 305 386 255 386 C 213 386 178 370 149 339 C 120 307 106 268 106 220 C 106 168 121 127 151 97 C 181 67 218 53 261 53 Z M 257 498 L 257 498 Z M 161 498 L 267 663 L 355 663 L 235 498 L 161 498 Z" unicode="ó" />
<glyph horiz-adv-x="526" d="M 29 0 L 29 0 Z M 259 -11 C 229 -11 201 -5 173 5 C 145 15 121 30 100 50 C 78 70 61 94 48 122 C 35 150 29 182 29 217 C 29 248 35 278 47 306 C 59 334 76 358 96 379 C 116 400 141 417 169 430 C 197 442 226 449 257 449 C 289 449 319 443 349 433 C 378 422 403 407 425 388 C 447 368 464 345 477 318 C 490 291 497 261 497 229 C 497 195 490 163 478 134 C 466 104 449 79 428 58 C 406 36 381 19 352 7 C 323 -4 292 -11 259 -11 Z M 261 53 C 307 53 345 69 375 101 C 405 133 420 173 420 223 C 420 267 405 306 375 338 C 345 370 305 386 255 386 C 213 386 178 370 149 339 C 120 307 106 268 106 220 C 106 168 121 127 151 97 C 181 67 218 53 261 53 Z M 257 499 L 257 499 Z M 418 499 L 348 499 L 257 617 L 164 499 L 96 499 L 219 670 L 295 670 L 418 499 Z" unicode="ô" />
<glyph horiz-adv-x="526" d="M 29 0 L 29 0 Z M 259 -11 C 229 -11 201 -5 173 5 C 145 15 121 30 100 50 C 78 70 61 94 48 122 C 35 150 29 182 29 217 C 29 248 35 278 47 306 C 59 334 76 358 96 379 C 116 400 141 417 169 430 C 197 442 226 449 257 449 C 289 449 319 443 349 433 C 378 422 403 407 425 388 C 447 368 464 345 477 318 C 490 291 497 261 497 229 C 497 195 490 163 478 134 C 466 104 449 79 428 58 C 406 36 381 19 352 7 C 323 -4 292 -11 259 -11 Z M 261 53 C 307 53 345 69 375 101 C 405 133 420 173 420 223 C 420 267 405 306 375 338 C 345 370 305 386 255 386 C 213 386 178 370 149 339 C 120 307 106 268 106 220 C 106 168 121 127 151 97 C 181 67 218 53 261 53 Z M 257 507 L 257 507 Z M 359 638 L 415 638 C 415 593 408 560 396 539 C 383 517 366 507 346 507 C 327 507 310 511 296 519 C 281 527 269 534 259 542 C 248 550 238 557 228 564 C 218 571 209 575 199 575 C 188 575 179 569 172 557 C 164 545 160 530 160 511 L 104 511 C 104 555 112 587 130 609 C 147 631 165 642 185 642 C 201 642 216 638 228 630 C 240 622 252 613 265 604 C 274 596 284 589 294 582 C 304 574 314 571 324 571 C 333 571 341 577 348 589 C 355 601 359 617 359 638 Z" unicode="õ" />
<glyph horiz-adv-x="526" d="M 29 0 L 29 0 Z M 259 -11 C 229 -11 201 -5 173 5 C 145 15 121 30 100 50 C 78 70 61 94 48 122 C 35 150 29 182 29 217 C 29 248 35 278 47 306 C 59 334 76 358 96 379 C 116 400 141 417 169 430 C 197 442 226 449 257 449 C 289 449 319 443 349 433 C 378 422 403 407 425 388 C 447 368 464 345 477 318 C 490 291 497 261 497 229 C 497 195 490 163 478 134 C 466 104 449 79 428 58 C 406 36 381 19 352 7 C 323 -4 292 -11 259 -11 Z M 261 53 C 307 53 345 69 375 101 C 405 133 420 173 420 223 C 420 267 405 306 375 338 C 345 370 305 386 255 386 C 213 386 178 370 149 339 C 120 307 106 268 106 220 C 106 168 121 127 151 97 C 181 67 218 53 261 53 Z M 257 500 L 257 500 Z M 377 500 L 314 500 L 314 656 L 377 656 L 377 500 Z M 196 500 L 133 500 L 133 656 L 196 656 L 196 500 Z" unicode="ö" />
<glyph horiz-adv-x="500" d="M 215 447 L 215 558 L 285 558 L 285 447 L 215 447 Z M 27 299 L 27 363 L 473 363 L 473 299 L 27 299 Z M 215 103 L 215 213 L 285 213 L 285 103 L 215 103 Z" unicode="÷" />
<glyph horiz-adv-x="526" d="M 497 229 C 497 195 490 163 478 134 C 466 104 449 79 428 58 C 406 36 381 19 352 7 C 323 -4 292 -11 259 -11 C 232 -11 206 -6 181 2 C 155 11 132 24 112 41 L 68 -3 L 38 29 L 81 71 C 65 89 52 111 43 136 C 33 161 29 188 29 217 C 29 248 35 278 47 306 C 59 334 76 358 96 379 C 116 400 141 417 169 430 C 197 442 226 449 257 449 C 285 449 313 444 340 436 C 366 427 390 415 411 399 L 454 442 L 484 410 L 443 370 C 459 351 472 330 482 306 C 492 282 497 257 497 229 Z M 106 220 C 106 200 108 182 113 166 C 117 149 124 134 132 122 L 362 351 C 348 361 332 370 314 376 C 296 382 276 386 255 386 C 213 386 178 370 149 339 C 120 307 106 268 106 220 Z M 420 223 C 420 241 417 258 412 274 C 407 290 400 305 392 318 L 161 89 C 174 77 189 68 207 62 C 224 56 242 53 261 53 C 307 53 345 69 375 101 C 405 133 420 173 420 223 Z" unicode="ø" />
<glyph horiz-adv-x="520" d="M 62 0 L 62 0 Z M 62 436 L 135 436 L 135 153 C 135 120 145 94 165 76 C 185 58 213 49 248 49 C 282 49 313 60 340 82 C 366 104 380 137 380 183 L 380 436 L 453 436 L 453 0 L 381 0 L 381 91 C 369 61 348 36 319 18 C 290 0 256 -10 218 -10 C 172 -10 135 3 106 31 C 76 58 62 96 62 144 L 62 436 Z M 257 498 L 257 498 Z M 355 498 L 279 498 L 160 663 L 247 663 L 355 498 Z" unicode="ù" />
<glyph horiz-adv-x="520" d="M 62 0 L 62 0 Z M 62 436 L 135 436 L 135 153 C 135 120 145 94 165 76 C 185 58 213 49 248 49 C 282 49 313 60 340 82 C 366 104 380 137 380 183 L 380 436 L 453 436 L 453 0 L 381 0 L 381 91 C 369 61 348 36 319 18 C 290 0 256 -10 218 -10 C 172 -10 135 3 106 31 C 76 58 62 96 62 144 L 62 436 Z M 257 498 L 257 498 Z M 161 498 L 267 663 L 355 663 L 235 498 L 161 498 Z" unicode="ú" />
<glyph horiz-adv-x="520" d="M 62 0 L 62 0 Z M 62 436 L 135 436 L 135 153 C 135 120 145 94 165 76 C 185 58 213 49 248 49 C 282 49 313 60 340 82 C 366 104 380 137 380 183 L 380 436 L 453 436 L 453 0 L 381 0 L 381 91 C 369 61 348 36 319 18 C 290 0 256 -10 218 -10 C 172 -10 135 3 106 31 C 76 58 62 96 62 144 L 62 436 Z M 257 499 L 257 499 Z M 418 499 L 348 499 L 257 617 L 164 499 L 96 499 L 219 670 L 295 670 L 418 499 Z" unicode="û" />
<glyph horiz-adv-x="520" d="M 62 0 L 62 0 Z M 62 436 L 135 436 L 135 153 C 135 120 145 94 165 76 C 185 58 213 49 248 49 C 282 49 313 60 340 82 C 366 104 380 137 380 183 L 380 436 L 453 436 L 453 0 L 381 0 L 381 91 C 369 61 348 36 319 18 C 290 0 256 -10 218 -10 C 172 -10 135 3 106 31 C 76 58 62 96 62 144 L 62 436 Z M 257 500 L 257 500 Z M 377 500 L 314 500 L 314 656 L 377 656 L 377 500 Z M 196 500 L 133 500 L 133 656 L 196 656 L 196 500 Z" unicode="ü" />
<glyph horiz-adv-x="464" d="M 0 0 L 0 0 Z M 462 436 L 207 -91 C 185 -137 161 -166 135 -180 C 109 -193 86 -200 65 -200 C 52 -200 41 -198 31 -196 C 21 -193 13 -191 9 -190 L 29 -121 C 31 -122 36 -124 44 -126 C 52 -128 59 -130 67 -130 C 82 -130 96 -124 110 -114 C 123 -104 137 -84 152 -56 L 193 29 L -1 436 L 80 436 L 231 100 L 386 436 L 462 436 Z M 233 498 L 233 498 Z M 137 498 L 243 663 L 331 663 L 211 498 L 137 498 Z" unicode="ý" />
<glyph horiz-adv-x="539" d="M 67 -200 L 67 730 L 137 730 L 137 335 C 140 349 146 362 156 376 C 166 389 178 401 193 412 C 207 422 224 431 244 438 C 264 444 285 448 308 448 C 338 448 366 442 391 431 C 416 419 437 404 455 384 C 472 364 485 340 495 313 C 504 286 509 257 509 227 C 509 191 503 158 492 129 C 480 99 466 75 448 55 C 430 35 409 19 385 9 C 361 -1 336 -7 312 -7 C 268 -7 230 3 199 24 C 167 45 147 68 139 94 L 139 -200 L 67 -200 Z M 292 50 C 332 50 365 65 392 95 C 419 125 433 166 433 218 C 433 266 420 306 395 340 C 369 373 333 390 285 390 C 245 390 211 374 182 343 C 153 312 139 269 139 213 C 139 186 143 162 152 142 C 160 122 172 105 186 91 C 200 77 217 67 235 60 C 253 53 272 50 292 50 Z" unicode="þ" />
<glyph horiz-adv-x="464" d="M 0 0 L 0 0 Z M 462 436 L 207 -91 C 185 -137 161 -166 135 -180 C 109 -193 86 -200 65 -200 C 52 -200 41 -198 31 -196 C 21 -193 13 -191 9 -190 L 29 -121 C 31 -122 36 -124 44 -126 C 52 -128 59 -130 67 -130 C 82 -130 96 -124 110 -114 C 123 -104 137 -84 152 -56 L 193 29 L -1 436 L 80 436 L 231 100 L 386 436 L 462 436 Z M 233 500 L 233 500 Z M 353 500 L 290 500 L 290 656 L 353 656 L 353 500 Z M 172 500 L 109 500 L 109 656 L 172 656 L 172 500 Z" unicode="ÿ" />
<glyph horiz-adv-x="649" d="M 4 0 L 4 0 Z M 645 0 L 562 0 L 475 216 L 170 216 L 85 0 L 4 0 L 303 734 L 349 734 L 645 0 Z M 450 285 L 322 600 L 196 285 L 450 285 Z M 325 821 L 325 821 Z M 452 821 L 198 821 L 198 876 L 452 876 L 452 821 Z" unicode="Ā" />
<glyph horiz-adv-x="475" d="M 22 0 L 22 0 Z M 417 0 L 347 0 L 347 61 C 334 44 314 28 287 12 C 259 -4 227 -12 189 -12 C 134 -12 92 1 64 27 C 36 53 22 88 22 131 C 22 175 39 211 75 237 C 110 263 160 277 224 280 L 344 287 L 344 299 C 344 329 333 352 313 367 C 293 381 266 389 234 389 C 203 389 175 383 149 373 C 123 363 104 353 92 344 L 60 396 C 74 408 97 419 128 431 C 159 442 197 448 241 448 C 289 448 331 436 365 412 C 399 388 417 349 417 297 L 417 0 Z M 346 110 L 346 231 L 229 225 C 187 223 154 214 131 198 C 107 182 96 161 96 134 C 96 106 105 85 125 71 C 144 57 169 50 201 50 C 233 50 263 56 290 70 C 317 84 336 97 346 110 Z M 230 527 L 230 527 Z M 357 527 L 103 527 L 103 582 L 357 582 L 357 527 Z" unicode="ā" />
<glyph horiz-adv-x="649" d="M 4 0 L 4 0 Z M 645 0 L 562 0 L 475 216 L 170 216 L 85 0 L 4 0 L 303 734 L 349 734 L 645 0 Z M 450 285 L 322 600 L 196 285 L 450 285 Z M 325 799 L 325 799 Z M 414 956 L 477 956 C 473 901 457 861 429 836 C 401 811 366 799 325 799 C 283 799 249 811 221 836 C 193 861 177 901 173 956 L 236 956 C 238 922 246 895 260 873 C 274 851 295 841 325 841 C 354 841 376 851 390 872 C 404 892 412 920 414 956 Z" unicode="Ă" />
<glyph horiz-adv-x="475" d="M 22 0 L 22 0 Z M 417 0 L 347 0 L 347 61 C 334 44 314 28 287 12 C 259 -4 227 -12 189 -12 C 134 -12 92 1 64 27 C 36 53 22 88 22 131 C 22 175 39 211 75 237 C 110 263 160 277 224 280 L 344 287 L 344 299 C 344 329 333 352 313 367 C 293 381 266 389 234 389 C 203 389 175 383 149 373 C 123 363 104 353 92 344 L 60 396 C 74 408 97 419 128 431 C 159 442 197 448 241 448 C 289 448 331 436 365 412 C 399 388 417 349 417 297 L 417 0 Z M 346 110 L 346 231 L 229 225 C 187 223 154 214 131 198 C 107 182 96 161 96 134 C 96 106 105 85 125 71 C 144 57 169 50 201 50 C 233 50 263 56 290 70 C 317 84 336 97 346 110 Z M 230 505 L 230 505 Z M 319 662 L 382 662 C 378 607 362 567 334 542 C 306 517 271 505 230 505 C 188 505 154 517 126 542 C 98 567 82 607 78 662 L 141 662 C 143 628 151 601 165 579 C 179 557 200 547 230 547 C 259 547 281 557 295 578 C 309 598 317 626 319 662 Z" unicode="ă" />
<glyph horiz-adv-x="649" d="M 4 0 L 4 0 Z M 645 0 L 562 0 L 475 216 L 170 216 L 85 0 L 4 0 L 303 734 L 349 734 L 645 0 Z M 450 285 L 322 600 L 196 285 L 450 285 Z M 545 -9 L 545 -9 Z M 653 -105 L 674 -136 C 655 -155 633 -170 608 -181 C 582 -191 554 -197 524 -197 C 490 -197 464 -189 444 -175 C 424 -160 415 -142 415 -120 C 415 -95 427 -72 453 -51 C 478 -29 514 -11 560 5 L 587 4 C 554 -10 528 -26 508 -42 C 488 -58 479 -74 479 -91 C 479 -107 485 -119 498 -128 C 511 -136 527 -141 547 -141 C 569 -141 590 -137 608 -131 C 626 -124 641 -115 653 -105 Z" unicode="Ą" />
<glyph horiz-adv-x="475" d="M 22 0 L 22 0 Z M 417 0 L 347 0 L 347 61 C 334 44 314 28 287 12 C 259 -4 227 -12 189 -12 C 134 -12 92 1 64 27 C 36 53 22 88 22 131 C 22 175 39 211 75 237 C 110 263 160 277 224 280 L 344 287 L 344 299 C 344 329 333 352 313 367 C 293 381 266 389 234 389 C 203 389 175 383 149 373 C 123 363 104 353 92 344 L 60 396 C 74 408 97 419 128 431 C 159 442 197 448 241 448 C 289 448 331 436 365 412 C 399 388 417 349 417 297 L 417 0 Z M 346 110 L 346 231 L 229 225 C 187 223 154 214 131 198 C 107 182 96 161 96 134 C 96 106 105 85 125 71 C 144 57 169 50 201 50 C 233 50 263 56 290 70 C 317 84 336 97 346 110 Z M 343 -9 L 343 -9 Z M 451 -105 L 472 -136 C 453 -155 431 -170 406 -181 C 380 -191 352 -197 322 -197 C 288 -197 262 -189 242 -175 C 222 -160 213 -142 213 -120 C 213 -95 225 -72 251 -51 C 276 -29 312 -11 358 5 L 385 4 C 352 -10 326 -26 306 -42 C 286 -58 277 -74 277 -91 C 277 -107 283 -119 296 -128 C 309 -136 325 -141 345 -141 C 367 -141 388 -137 406 -131 C 424 -124 439 -115 451 -105 Z" unicode="ą" />
<glyph horiz-adv-x="713" d="M 49 0 L 49 0 Z M 410 -12 C 361 -12 315 -3 271 13 C 227 30 188 55 156 87 C 123 119 97 159 78 206 C 58 253 49 306 49 365 C 49 418 58 468 76 514 C 94 560 119 600 151 634 C 183 667 221 693 266 713 C 310 732 359 742 412 742 C 478 742 533 732 577 713 C 621 694 659 669 689 637 L 640 571 C 617 597 587 620 550 638 C 512 656 467 666 414 666 C 370 666 330 658 295 643 C 260 627 231 606 207 579 C 183 552 164 520 151 483 C 138 445 132 405 132 361 C 132 311 140 268 156 231 C 172 193 193 162 219 137 C 245 112 275 93 309 80 C 343 67 378 61 414 61 C 470 61 518 72 558 94 C 598 116 632 142 658 173 L 704 121 C 672 83 631 51 581 26 C 531 0 474 -12 410 -12 Z M 412 792 L 412 792 Z M 316 792 L 422 957 L 510 957 L 390 792 L 316 792 Z" unicode="Ć" />
<glyph horiz-adv-x="462" d="M 29 0 L 29 0 Z M 391 130 L 453 95 C 445 82 436 69 425 57 C 413 44 400 33 384 23 C 368 13 349 4 328 -1 C 306 -7 282 -11 255 -11 C 221 -11 190 -5 162 6 C 134 18 110 34 90 55 C 70 75 55 99 45 127 C 34 155 29 185 29 217 C 29 249 34 280 46 308 C 58 336 74 361 94 382 C 114 402 139 419 167 431 C 195 443 225 449 258 449 C 310 449 352 437 385 415 C 417 393 441 369 455 344 L 386 310 C 373 330 356 348 336 362 C 315 376 289 383 257 383 C 235 383 214 378 196 370 C 177 361 161 349 148 334 C 135 319 125 302 117 282 C 109 262 106 240 106 218 C 106 172 119 133 147 102 C 175 70 212 55 258 55 C 296 55 325 63 345 81 C 365 98 381 114 391 130 Z M 247 498 L 247 498 Z M 151 498 L 257 663 L 345 663 L 225 498 L 151 498 Z" unicode="ć" />
<glyph horiz-adv-x="713" d="M 49 0 L 49 0 Z M 410 -12 C 361 -12 315 -3 271 13 C 227 30 188 55 156 87 C 123 119 97 159 78 206 C 58 253 49 306 49 365 C 49 418 58 468 76 514 C 94 560 119 600 151 634 C 183 667 221 693 266 713 C 310 732 359 742 412 742 C 478 742 533 732 577 713 C 621 694 659 669 689 637 L 640 571 C 617 597 587 620 550 638 C 512 656 467 666 414 666 C 370 666 330 658 295 643 C 260 627 231 606 207 579 C 183 552 164 520 151 483 C 138 445 132 405 132 361 C 132 311 140 268 156 231 C 172 193 193 162 219 137 C 245 112 275 93 309 80 C 343 67 378 61 414 61 C 470 61 518 72 558 94 C 598 116 632 142 658 173 L 704 121 C 672 83 631 51 581 26 C 531 0 474 -12 410 -12 Z M 412 793 L 412 793 Z M 573 793 L 503 793 L 412 911 L 319 793 L 251 793 L 374 964 L 450 964 L 573 793 Z" unicode="Ĉ" />
<glyph horiz-adv-x="462" d="M 29 0 L 29 0 Z M 391 130 L 453 95 C 445 82 436 69 425 57 C 413 44 400 33 384 23 C 368 13 349 4 328 -1 C 306 -7 282 -11 255 -11 C 221 -11 190 -5 162 6 C 134 18 110 34 90 55 C 70 75 55 99 45 127 C 34 155 29 185 29 217 C 29 249 34 280 46 308 C 58 336 74 361 94 382 C 114 402 139 419 167 431 C 195 443 225 449 258 449 C 310 449 352 437 385 415 C 417 393 441 369 455 344 L 386 310 C 373 330 356 348 336 362 C 315 376 289 383 257 383 C 235 383 214 378 196 370 C 177 361 161 349 148 334 C 135 319 125 302 117 282 C 109 262 106 240 106 218 C 106 172 119 133 147 102 C 175 70 212 55 258 55 C 296 55 325 63 345 81 C 365 98 381 114 391 130 Z M 247 499 L 247 499 Z M 408 499 L 338 499 L 247 617 L 154 499 L 86 499 L 209 670 L 285 670 L 408 499 Z" unicode="ĉ" />
<glyph horiz-adv-x="713" d="M 49 0 L 49 0 Z M 410 -12 C 361 -12 315 -3 271 13 C 227 30 188 55 156 87 C 123 119 97 159 78 206 C 58 253 49 306 49 365 C 49 418 58 468 76 514 C 94 560 119 600 151 634 C 183 667 221 693 266 713 C 310 732 359 742 412 742 C 478 742 533 732 577 713 C 621 694 659 669 689 637 L 640 571 C 617 597 587 620 550 638 C 512 656 467 666 414 666 C 370 666 330 658 295 643 C 260 627 231 606 207 579 C 183 552 164 520 151 483 C 138 445 132 405 132 361 C 132 311 140 268 156 231 C 172 193 193 162 219 137 C 245 112 275 93 309 80 C 343 67 378 61 414 61 C 470 61 518 72 558 94 C 598 116 632 142 658 173 L 704 121 C 672 83 631 51 581 26 C 531 0 474 -12 410 -12 Z M 412 794 L 412 794 Z M 447 794 L 378 794 L 378 957 L 447 957 L 447 794 Z" unicode="Ċ" />
<glyph horiz-adv-x="462" d="M 29 0 L 29 0 Z M 391 130 L 453 95 C 445 82 436 69 425 57 C 413 44 400 33 384 23 C 368 13 349 4 328 -1 C 306 -7 282 -11 255 -11 C 221 -11 190 -5 162 6 C 134 18 110 34 90 55 C 70 75 55 99 45 127 C 34 155 29 185 29 217 C 29 249 34 280 46 308 C 58 336 74 361 94 382 C 114 402 139 419 167 431 C 195 443 225 449 258 449 C 310 449 352 437 385 415 C 417 393 441 369 455 344 L 386 310 C 373 330 356 348 336 362 C 315 376 289 383 257 383 C 235 383 214 378 196 370 C 177 361 161 349 148 334 C 135 319 125 302 117 282 C 109 262 106 240 106 218 C 106 172 119 133 147 102 C 175 70 212 55 258 55 C 296 55 325 63 345 81 C 365 98 381 114 391 130 Z M 247 500 L 247 500 Z M 282 500 L 213 500 L 213 663 L 282 663 L 282 500 Z" unicode="ċ" />
<glyph horiz-adv-x="713" d="M 49 0 L 49 0 Z M 410 -12 C 361 -12 315 -3 271 13 C 227 30 188 55 156 87 C 123 119 97 159 78 206 C 58 253 49 306 49 365 C 49 418 58 468 76 514 C 94 560 119 600 151 634 C 183 667 221 693 266 713 C 310 732 359 742 412 742 C 478 742 533 732 577 713 C 621 694 659 669 689 637 L 640 571 C 617 597 587 620 550 638 C 512 656 467 666 414 666 C 370 666 330 658 295 643 C 260 627 231 606 207 579 C 183 552 164 520 151 483 C 138 445 132 405 132 361 C 132 311 140 268 156 231 C 172 193 193 162 219 137 C 245 112 275 93 309 80 C 343 67 378 61 414 61 C 470 61 518 72 558 94 C 598 116 632 142 658 173 L 704 121 C 672 83 631 51 581 26 C 531 0 474 -12 410 -12 Z M 412 793 L 412 793 Z M 251 964 L 321 964 L 413 846 L 505 964 L 573 964 L 450 793 L 374 793 L 251 964 Z" unicode="Č" />
<glyph horiz-adv-x="462" d="M 29 0 L 29 0 Z M 391 130 L 453 95 C 445 82 436 69 425 57 C 413 44 400 33 384 23 C 368 13 349 4 328 -1 C 306 -7 282 -11 255 -11 C 221 -11 190 -5 162 6 C 134 18 110 34 90 55 C 70 75 55 99 45 127 C 34 155 29 185 29 217 C 29 249 34 280 46 308 C 58 336 74 361 94 382 C 114 402 139 419 167 431 C 195 443 225 449 258 449 C 310 449 352 437 385 415 C 417 393 441 369 455 344 L 386 310 C 373 330 356 348 336 362 C 315 376 289 383 257 383 C 235 383 214 378 196 370 C 177 361 161 349 148 334 C 135 319 125 302 117 282 C 109 262 106 240 106 218 C 106 172 119 133 147 102 C 175 70 212 55 258 55 C 296 55 325 63 345 81 C 365 98 381 114 391 130 Z M 247 499 L 247 499 Z M 86 670 L 156 670 L 248 552 L 340 670 L 408 670 L 285 499 L 209 499 L 86 670 Z" unicode="č" />
<glyph horiz-adv-x="744" d="M 99 0 L 99 0 Z M 99 0 L 99 730 L 306 730 C 366 730 420 721 468 705 C 516 688 557 664 591 634 C 624 604 650 567 668 524 C 686 480 695 432 695 380 C 695 326 686 275 669 229 C 651 183 626 143 592 109 C 558 75 516 48 466 29 C 416 9 358 0 292 0 L 99 0 Z M 179 71 L 289 71 C 343 71 390 78 431 94 C 471 110 505 131 531 159 C 557 186 577 218 591 256 C 604 293 611 333 611 377 C 611 461 583 528 528 580 C 472 631 397 657 303 657 L 179 657 L 179 71 Z M 343 793 L 343 793 Z M 182 964 L 252 964 L 344 846 L 436 964 L 504 964 L 381 793 L 305 793 L 182 964 Z" unicode="Ď" />
<glyph horiz-adv-x="537" d="M 29 0 L 29 0 Z M 237 -8 C 205 -8 177 -2 151 9 C 125 21 103 36 85 56 C 67 76 53 99 43 125 C 33 151 29 179 29 209 C 29 244 34 276 45 306 C 56 336 71 361 90 382 C 108 403 130 419 156 431 C 181 443 208 449 238 449 C 279 449 313 439 341 419 C 368 399 387 378 397 355 L 397 730 L 470 730 L 470 0 L 400 0 L 400 101 C 390 73 372 48 344 26 C 316 3 280 -8 237 -8 Z M 256 50 C 274 50 292 54 310 62 C 328 70 343 82 357 97 C 370 112 381 130 389 152 C 397 173 401 197 401 223 C 401 250 396 274 388 295 C 379 316 368 333 354 347 C 340 361 324 371 306 378 C 288 385 269 389 251 389 C 209 389 174 373 147 341 C 119 309 106 269 106 219 C 106 196 109 174 116 154 C 122 133 132 115 145 100 C 157 84 173 72 192 63 C 210 54 232 50 256 50 Z M 607 622 L 603 490 L 541 490 L 537 622 L 537 730 L 607 730 L 607 622 Z" unicode="ď" />
<glyph horiz-adv-x="744" d="M 35 0 L 35 0 Z M 695 367 C 695 316 686 268 669 224 C 651 179 626 140 592 107 C 558 74 516 48 466 29 C 416 9 358 0 292 0 L 99 0 L 99 324 L 35 324 L 35 391 L 99 391 L 99 730 L 306 730 C 367 730 422 721 470 704 C 518 687 559 663 592 632 C 625 600 650 562 668 517 C 686 472 695 422 695 367 Z M 179 71 L 284 71 C 342 71 391 79 433 95 C 475 111 509 133 535 160 C 561 187 580 218 592 254 C 604 290 611 326 611 364 C 611 455 583 527 529 579 C 474 631 400 657 306 657 L 179 657 L 179 391 L 375 391 L 375 324 L 179 324 L 179 71 Z" unicode="Đ" />
<glyph horiz-adv-x="537" d="M 400 101 C 390 73 372 48 344 26 C 316 3 280 -8 237 -8 C 205 -8 177 -2 151 9 C 125 21 103 36 85 56 C 67 76 53 99 43 125 C 33 151 29 179 29 209 C 29 244 34 276 45 306 C 56 336 71 361 90 382 C 108 403 130 419 156 431 C 181 443 208 449 238 449 C 279 449 313 439 341 419 C 368 399 387 378 397 355 L 397 555 L 277 555 L 277 619 L 397 619 L 397 730 L 470 730 L 470 619 L 530 619 L 530 555 L 470 555 L 470 0 L 400 0 L 400 101 Z M 256 50 C 274 50 292 54 310 62 C 328 70 343 82 357 97 C 370 112 381 130 389 152 C 397 173 401 197 401 223 C 401 250 396 274 388 295 C 379 316 368 333 354 347 C 340 361 324 371 306 378 C 288 385 269 389 251 389 C 209 389 174 373 147 341 C 119 309 106 269 106 219 C 106 196 109 174 116 154 C 122 133 132 115 145 100 C 157 84 173 72 192 63 C 210 54 232 50 256 50 Z" unicode="đ" />
<glyph horiz-adv-x="577" d="M 99 0 L 99 0 Z M 521 0 L 99 0 L 99 730 L 502 730 L 502 658 L 178 658 L 178 397 L 488 397 L 488 325 L 178 325 L 178 72 L 521 72 L 521 0 Z M 302 821 L 302 821 Z M 429 821 L 175 821 L 175 876 L 429 876 L 429 821 Z" unicode="Ē" />
<glyph horiz-adv-x="497" d="M 30 0 L 30 0 Z M 267 -11 C 233 -11 201 -5 172 4 C 143 14 118 29 97 49 C 76 68 60 92 48 120 C 36 148 30 179 30 215 C 30 247 35 278 46 306 C 57 334 73 359 93 380 C 113 401 138 418 166 430 C 194 442 225 449 259 449 C 325 449 378 427 419 383 C 460 339 481 277 481 198 L 99 198 C 100 153 116 117 146 90 C 176 63 217 50 267 50 C 309 50 341 56 363 69 C 385 82 402 96 415 111 L 460 68 C 441 47 418 29 391 13 C 363 -3 322 -11 267 -11 Z M 101 256 L 410 256 C 408 290 394 320 367 347 C 339 374 303 388 257 388 C 211 388 175 374 147 348 C 119 321 104 290 101 256 Z M 256 527 L 256 527 Z M 383 527 L 129 527 L 129 582 L 383 582 L 383 527 Z" unicode="ē" />
<glyph horiz-adv-x="577" d="M 99 0 L 99 0 Z M 521 0 L 99 0 L 99 730 L 502 730 L 502 658 L 178 658 L 178 397 L 488 397 L 488 325 L 178 325 L 178 72 L 521 72 L 521 0 Z M 302 799 L 302 799 Z M 391 956 L 454 956 C 450 901 434 861 406 836 C 378 811 343 799 302 799 C 260 799 226 811 198 836 C 170 861 154 901 150 956 L 213 956 C 215 922 223 895 237 873 C 251 851 272 841 302 841 C 331 841 353 851 367 872 C 381 892 389 920 391 956 Z" unicode="Ĕ" />
<glyph horiz-adv-x="497" d="M 30 0 L 30 0 Z M 267 -11 C 233 -11 201 -5 172 4 C 143 14 118 29 97 49 C 76 68 60 92 48 120 C 36 148 30 179 30 215 C 30 247 35 278 46 306 C 57 334 73 359 93 380 C 113 401 138 418 166 430 C 194 442 225 449 259 449 C 325 449 378 427 419 383 C 460 339 481 277 481 198 L 99 198 C 100 153 116 117 146 90 C 176 63 217 50 267 50 C 309 50 341 56 363 69 C 385 82 402 96 415 111 L 460 68 C 441 47 418 29 391 13 C 363 -3 322 -11 267 -11 Z M 101 256 L 410 256 C 408 290 394 320 367 347 C 339 374 303 388 257 388 C 211 388 175 374 147 348 C 119 321 104 290 101 256 Z M 256 505 L 256 505 Z M 345 662 L 408 662 C 404 607 388 567 360 542 C 332 517 297 505 256 505 C 214 505 180 517 152 542 C 124 567 108 607 104 662 L 167 662 C 169 628 177 601 191 579 C 205 557 226 547 256 547 C 285 547 307 557 321 578 C 335 598 343 626 345 662 Z" unicode="ĕ" />
<glyph horiz-adv-x="577" d="M 99 0 L 99 0 Z M 521 0 L 99 0 L 99 730 L 502 730 L 502 658 L 178 658 L 178 397 L 488 397 L 488 325 L 178 325 L 178 72 L 521 72 L 521 0 Z M 302 794 L 302 794 Z M 337 794 L 268 794 L 268 957 L 337 957 L 337 794 Z" unicode="Ė" />
<glyph horiz-adv-x="497" d="M 30 0 L 30 0 Z M 267 -11 C 233 -11 201 -5 172 4 C 143 14 118 29 97 49 C 76 68 60 92 48 120 C 36 148 30 179 30 215 C 30 247 35 278 46 306 C 57 334 73 359 93 380 C 113 401 138 418 166 430 C 194 442 225 449 259 449 C 325 449 378 427 419 383 C 460 339 481 277 481 198 L 99 198 C 100 153 116 117 146 90 C 176 63 217 50 267 50 C 309 50 341 56 363 69 C 385 82 402 96 415 111 L 460 68 C 441 47 418 29 391 13 C 363 -3 322 -11 267 -11 Z M 101 256 L 410 256 C 408 290 394 320 367 347 C 339 374 303 388 257 388 C 211 388 175 374 147 348 C 119 321 104 290 101 256 Z M 256 500 L 256 500 Z M 291 500 L 222 500 L 222 663 L 291 663 L 291 500 Z" unicode="ė" />
<glyph horiz-adv-x="577" d="M 99 0 L 99 0 Z M 521 0 L 99 0 L 99 730 L 502 730 L 502 658 L 178 658 L 178 397 L 488 397 L 488 325 L 178 325 L 178 72 L 521 72 L 521 0 Z M 478 -9 L 478 -9 Z M 586 -105 L 607 -136 C 588 -155 566 -170 541 -181 C 515 -191 487 -197 457 -197 C 423 -197 397 -189 377 -175 C 357 -160 348 -142 348 -120 C 348 -95 360 -72 386 -51 C 411 -29 447 -11 493 5 L 520 4 C 487 -10 461 -26 441 -42 C 421 -58 412 -74 412 -91 C 412 -107 418 -119 431 -128 C 444 -136 460 -141 480 -141 C 502 -141 523 -137 541 -131 C 559 -124 574 -115 586 -105 Z" unicode="Ę" />
<glyph horiz-adv-x="497" d="M 30 0 L 30 0 Z M 267 -11 C 233 -11 201 -5 172 4 C 143 14 118 29 97 49 C 76 68 60 92 48 120 C 36 148 30 179 30 215 C 30 247 35 278 46 306 C 57 334 73 359 93 380 C 113 401 138 418 166 430 C 194 442 225 449 259 449 C 325 449 378 427 419 383 C 460 339 481 277 481 198 L 99 198 C 100 153 116 117 146 90 C 176 63 217 50 267 50 C 309 50 341 56 363 69 C 385 82 402 96 415 111 L 460 68 C 441 47 418 29 391 13 C 363 -3 322 -11 267 -11 Z M 101 256 L 410 256 C 408 290 394 320 367 347 C 339 374 303 388 257 388 C 211 388 175 374 147 348 C 119 321 104 290 101 256 Z M 324 -9 L 324 -9 Z M 432 -105 L 453 -136 C 434 -155 412 -170 387 -181 C 361 -191 333 -197 303 -197 C 269 -197 243 -189 223 -175 C 203 -160 194 -142 194 -120 C 194 -95 206 -72 232 -51 C 257 -29 293 -11 339 5 L 366 4 C 333 -10 307 -26 287 -42 C 267 -58 258 -74 258 -91 C 258 -107 264 -119 277 -128 C 290 -136 306 -141 326 -141 C 348 -141 369 -137 387 -131 C 405 -124 420 -115 432 -105 Z" unicode="ę" />
<glyph horiz-adv-x="577" d="M 99 0 L 99 0 Z M 521 0 L 99 0 L 99 730 L 502 730 L 502 658 L 178 658 L 178 397 L 488 397 L 488 325 L 178 325 L 178 72 L 521 72 L 521 0 Z M 302 793 L 302 793 Z M 141 964 L 211 964 L 303 846 L 395 964 L 463 964 L 340 793 L 264 793 L 141 964 Z" unicode="Ě" />
<glyph horiz-adv-x="497" d="M 30 0 L 30 0 Z M 267 -11 C 233 -11 201 -5 172 4 C 143 14 118 29 97 49 C 76 68 60 92 48 120 C 36 148 30 179 30 215 C 30 247 35 278 46 306 C 57 334 73 359 93 380 C 113 401 138 418 166 430 C 194 442 225 449 259 449 C 325 449 378 427 419 383 C 460 339 481 277 481 198 L 99 198 C 100 153 116 117 146 90 C 176 63 217 50 267 50 C 309 50 341 56 363 69 C 385 82 402 96 415 111 L 460 68 C 441 47 418 29 391 13 C 363 -3 322 -11 267 -11 Z M 101 256 L 410 256 C 408 290 394 320 367 347 C 339 374 303 388 257 388 C 211 388 175 374 147 348 C 119 321 104 290 101 256 Z M 256 499 L 256 499 Z M 95 670 L 165 670 L 257 552 L 349 670 L 417 670 L 294 499 L 218 499 L 95 670 Z" unicode="ě" />
<glyph horiz-adv-x="777" d="M 49 0 L 49 0 Z M 427 361 L 727 361 L 727 151 C 699 101 658 61 604 32 C 550 2 488 -12 417 -12 C 365 -12 317 -2 272 16 C 227 35 188 61 155 95 C 122 128 96 168 77 214 C 58 260 49 311 49 365 C 49 422 59 474 79 521 C 99 567 125 607 159 640 C 193 672 232 697 277 715 C 322 733 370 742 420 742 C 491 742 547 731 588 709 C 628 687 660 664 683 640 L 630 586 C 609 606 582 624 548 641 C 514 657 470 666 417 666 C 376 666 338 658 303 644 C 268 629 238 608 213 582 C 187 555 167 523 153 486 C 138 449 131 408 131 364 C 131 322 138 283 153 246 C 167 208 187 176 213 148 C 239 120 269 98 305 82 C 341 66 379 58 421 58 C 473 58 520 68 562 90 C 604 111 636 140 656 176 L 656 286 L 427 286 L 427 361 Z M 419 793 L 419 793 Z M 580 793 L 510 793 L 419 911 L 326 793 L 258 793 L 381 964 L 457 964 L 580 793 Z" unicode="Ĝ" />
<glyph horiz-adv-x="537" d="M 29 0 L 29 0 Z M 235 -5 C 203 -5 175 0 149 12 C 123 23 102 39 84 59 C 66 79 53 102 43 130 C 33 158 29 187 29 219 C 29 286 48 341 88 384 C 127 427 177 449 237 449 C 277 449 312 439 341 419 C 370 399 390 377 400 353 L 400 436 L 470 436 L 470 31 C 470 -7 464 -41 452 -69 C 440 -97 424 -121 404 -139 C 384 -157 360 -171 333 -180 C 305 -188 277 -193 247 -193 C 203 -193 168 -189 143 -181 C 117 -173 98 -164 84 -156 L 112 -98 C 122 -104 137 -112 158 -121 C 178 -129 206 -134 240 -134 C 260 -134 280 -131 299 -125 C 318 -119 335 -110 349 -98 C 363 -86 375 -71 384 -53 C 392 -35 397 -13 397 11 L 397 98 C 388 71 369 47 340 26 C 310 5 275 -5 235 -5 Z M 256 50 C 294 50 328 66 357 98 C 386 130 401 172 401 223 C 401 273 386 313 356 344 C 326 374 290 390 248 390 C 209 390 176 374 148 342 C 120 310 106 270 106 220 C 106 172 119 131 146 99 C 172 66 209 50 256 50 Z M 243 499 L 243 499 Z M 404 499 L 334 499 L 243 617 L 150 499 L 82 499 L 205 670 L 281 670 L 404 499 Z" unicode="ĝ" />
<glyph horiz-adv-x="777" d="M 49 0 L 49 0 Z M 427 361 L 727 361 L 727 151 C 699 101 658 61 604 32 C 550 2 488 -12 417 -12 C 365 -12 317 -2 272 16 C 227 35 188 61 155 95 C 122 128 96 168 77 214 C 58 260 49 311 49 365 C 49 422 59 474 79 521 C 99 567 125 607 159 640 C 193 672 232 697 277 715 C 322 733 370 742 420 742 C 491 742 547 731 588 709 C 628 687 660 664 683 640 L 630 586 C 609 606 582 624 548 641 C 514 657 470 666 417 666 C 376 666 338 658 303 644 C 268 629 238 608 213 582 C 187 555 167 523 153 486 C 138 449 131 408 131 364 C 131 322 138 283 153 246 C 167 208 187 176 213 148 C 239 120 269 98 305 82 C 341 66 379 58 421 58 C 473 58 520 68 562 90 C 604 111 636 140 656 176 L 656 286 L 427 286 L 427 361 Z M 419 799 L 419 799 Z M 508 956 L 571 956 C 567 901 551 861 523 836 C 495 811 460 799 419 799 C 377 799 343 811 315 836 C 287 861 271 901 267 956 L 330 956 C 332 922 340 895 354 873 C 368 851 389 841 419 841 C 448 841 470 851 484 872 C 498 892 506 920 508 956 Z" unicode="Ğ" />
<glyph horiz-adv-x="537" d="M 29 0 L 29 0 Z M 235 -5 C 203 -5 175 0 149 12 C 123 23 102 39 84 59 C 66 79 53 102 43 130 C 33 158 29 187 29 219 C 29 286 48 341 88 384 C 127 427 177 449 237 449 C 277 449 312 439 341 419 C 370 399 390 377 400 353 L 400 436 L 470 436 L 470 31 C 470 -7 464 -41 452 -69 C 440 -97 424 -121 404 -139 C 384 -157 360 -171 333 -180 C 305 -188 277 -193 247 -193 C 203 -193 168 -189 143 -181 C 117 -173 98 -164 84 -156 L 112 -98 C 122 -104 137 -112 158 -121 C 178 -129 206 -134 240 -134 C 260 -134 280 -131 299 -125 C 318 -119 335 -110 349 -98 C 363 -86 375 -71 384 -53 C 392 -35 397 -13 397 11 L 397 98 C 388 71 369 47 340 26 C 310 5 275 -5 235 -5 Z M 256 50 C 294 50 328 66 357 98 C 386 130 401 172 401 223 C 401 273 386 313 356 344 C 326 374 290 390 248 390 C 209 390 176 374 148 342 C 120 310 106 270 106 220 C 106 172 119 131 146 99 C 172 66 209 50 256 50 Z M 243 505 L 243 505 Z M 332 662 L 395 662 C 391 607 375 567 347 542 C 319 517 284 505 243 505 C 201 505 167 517 139 542 C 111 567 95 607 91 662 L 154 662 C 156 628 164 601 178 579 C 192 557 213 547 243 547 C 272 547 294 557 308 578 C 322 598 330 626 332 662 Z" unicode="ğ" />
<glyph horiz-adv-x="777" d="M 49 0 L 49 0 Z M 427 361 L 727 361 L 727 151 C 699 101 658 61 604 32 C 550 2 488 -12 417 -12 C 365 -12 317 -2 272 16 C 227 35 188 61 155 95 C 122 128 96 168 77 214 C 58 260 49 311 49 365 C 49 422 59 474 79 521 C 99 567 125 607 159 640 C 193 672 232 697 277 715 C 322 733 370 742 420 742 C 491 742 547 731 588 709 C 628 687 660 664 683 640 L 630 586 C 609 606 582 624 548 641 C 514 657 470 666 417 666 C 376 666 338 658 303 644 C 268 629 238 608 213 582 C 187 555 167 523 153 486 C 138 449 131 408 131 364 C 131 322 138 283 153 246 C 167 208 187 176 213 148 C 239 120 269 98 305 82 C 341 66 379 58 421 58 C 473 58 520 68 562 90 C 604 111 636 140 656 176 L 656 286 L 427 286 L 427 361 Z M 419 794 L 419 794 Z M 454 794 L 385 794 L 385 957 L 454 957 L 454 794 Z" unicode="Ġ" />
<glyph horiz-adv-x="537" d="M 29 0 L 29 0 Z M 235 -5 C 203 -5 175 0 149 12 C 123 23 102 39 84 59 C 66 79 53 102 43 130 C 33 158 29 187 29 219 C 29 286 48 341 88 384 C 127 427 177 449 237 449 C 277 449 312 439 341 419 C 370 399 390 377 400 353 L 400 436 L 470 436 L 470 31 C 470 -7 464 -41 452 -69 C 440 -97 424 -121 404 -139 C 384 -157 360 -171 333 -180 C 305 -188 277 -193 247 -193 C 203 -193 168 -189 143 -181 C 117 -173 98 -164 84 -156 L 112 -98 C 122 -104 137 -112 158 -121 C 178 -129 206 -134 240 -134 C 260 -134 280 -131 299 -125 C 318 -119 335 -110 349 -98 C 363 -86 375 -71 384 -53 C 392 -35 397 -13 397 11 L 397 98 C 388 71 369 47 340 26 C 310 5 275 -5 235 -5 Z M 256 50 C 294 50 328 66 357 98 C 386 130 401 172 401 223 C 401 273 386 313 356 344 C 326 374 290 390 248 390 C 209 390 176 374 148 342 C 120 310 106 270 106 220 C 106 172 119 131 146 99 C 172 66 209 50 256 50 Z M 243 500 L 243 500 Z M 278 500 L 209 500 L 209 663 L 278 663 L 278 500 Z" unicode="ġ" />
<glyph horiz-adv-x="777" d="M 49 0 L 49 0 Z M 427 361 L 727 361 L 727 151 C 699 101 658 61 604 32 C 550 2 488 -12 417 -12 C 365 -12 317 -2 272 16 C 227 35 188 61 155 95 C 122 128 96 168 77 214 C 58 260 49 311 49 365 C 49 422 59 474 79 521 C 99 567 125 607 159 640 C 193 672 232 697 277 715 C 322 733 370 742 420 742 C 491 742 547 731 588 709 C 628 687 660 664 683 640 L 630 586 C 609 606 582 624 548 641 C 514 657 470 666 417 666 C 376 666 338 658 303 644 C 268 629 238 608 213 582 C 187 555 167 523 153 486 C 138 449 131 408 131 364 C 131 322 138 283 153 246 C 167 208 187 176 213 148 C 239 120 269 98 305 82 C 341 66 379 58 421 58 C 473 58 520 68 562 90 C 604 111 636 140 656 176 L 656 286 L 427 286 L 427 361 Z" unicode="Ģ" />
<glyph horiz-adv-x="537" d="M 29 0 L 29 0 Z M 235 -5 C 203 -5 175 0 149 12 C 123 23 102 39 84 59 C 66 79 53 102 43 130 C 33 158 29 187 29 219 C 29 286 48 341 88 384 C 127 427 177 449 237 449 C 277 449 312 439 341 419 C 370 399 390 377 400 353 L 400 436 L 470 436 L 470 31 C 470 -7 464 -41 452 -69 C 440 -97 424 -121 404 -139 C 384 -157 360 -171 333 -180 C 305 -188 277 -193 247 -193 C 203 -193 168 -189 143 -181 C 117 -173 98 -164 84 -156 L 112 -98 C 122 -104 137 -112 158 -121 C 178 -129 206 -134 240 -134 C 260 -134 280 -131 299 -125 C 318 -119 335 -110 349 -98 C 363 -86 375 -71 384 -53 C 392 -35 397 -13 397 11 L 397 98 C 388 71 369 47 340 26 C 310 5 275 -5 235 -5 Z M 256 50 C 294 50 328 66 357 98 C 386 130 401 172 401 223 C 401 273 386 313 356 344 C 326 374 290 390 248 390 C 209 390 176 374 148 342 C 120 310 106 270 106 220 C 106 172 119 131 146 99 C 172 66 209 50 256 50 Z" unicode="ģ" />
<glyph horiz-adv-x="759" d="M 99 0 L 99 0 Z M 661 0 L 581 0 L 581 323 L 179 323 L 179 0 L 99 0 L 99 730 L 179 730 L 179 398 L 581 398 L 581 730 L 661 730 L 661 0 Z M 379 793 L 379 793 Z M 540 793 L 470 793 L 379 911 L 286 793 L 218 793 L 341 964 L 417 964 L 540 793 Z" unicode="Ĥ" />
<glyph horiz-adv-x="521" d="M 67 0 L 67 0 Z M 459 0 L 385 0 L 385 283 C 385 317 374 343 354 362 C 334 380 307 390 273 390 C 256 390 239 387 223 381 C 207 375 193 367 181 356 C 169 345 159 331 151 314 C 143 297 140 277 140 255 L 140 0 L 67 0 L 67 730 L 136 730 L 136 343 C 144 371 163 396 191 417 C 219 438 256 449 300 449 C 348 449 386 435 415 408 C 444 381 459 344 459 296 L 459 0 Z M 262 793 L 262 793 Z M 423 793 L 353 793 L 262 911 L 169 793 L 101 793 L 224 964 L 300 964 L 423 793 Z" unicode="ĥ" />
<glyph horiz-adv-x="759" d="M 179 323 L 179 0 L 99 0 L 99 557 L 13 557 L 13 619 L 99 619 L 99 730 L 179 730 L 179 619 L 581 619 L 581 730 L 661 730 L 661 619 L 746 619 L 746 557 L 661 557 L 661 0 L 581 0 L 581 323 L 179 323 Z M 179 398 L 581 398 L 581 557 L 179 557 L 179 398 Z" unicode="Ħ" />
<glyph horiz-adv-x="521" d="M 140 255 L 140 0 L 67 0 L 67 557 L 7 557 L 7 619 L 67 619 L 67 730 L 136 730 L 136 619 L 266 619 L 266 557 L 136 557 L 136 343 C 144 371 163 396 191 417 C 219 438 256 449 300 449 C 348 449 386 435 415 408 C 444 381 459 344 459 296 L 459 0 L 385 0 L 385 283 C 385 317 374 343 354 362 C 334 380 307 390 273 390 C 256 390 239 387 223 381 C 207 375 193 367 181 356 C 169 345 159 331 151 314 C 143 297 140 277 140 255 Z" unicode="ħ" />
<glyph horiz-adv-x="287" d="M 0 0 L 0 0 Z M 184 0 L 104 0 L 104 730 L 184 730 L 184 0 Z M 143 801 L 143 801 Z M 245 932 L 301 932 C 301 887 294 854 282 833 C 269 811 252 801 232 801 C 213 801 196 805 182 813 C 167 821 155 828 145 836 C 134 844 124 851 114 858 C 104 865 95 869 85 869 C 74 869 65 863 58 851 C 50 839 46 824 46 805 L -10 805 C -10 849 -1 881 16 903 C 33 925 51 936 71 936 C 87 936 102 932 114 924 C 126 916 138 907 151 898 C 160 890 170 883 180 876 C 190 868 200 865 210 865 C 219 865 227 871 234 883 C 241 895 245 911 245 932 Z" unicode="Ĩ" />
<glyph horiz-adv-x="219" d="M 0 0 L 0 0 Z M 146 0 L 73 0 L 73 436 L 146 436 L 146 0 Z M 108 507 L 108 507 Z M 210 638 L 266 638 C 266 593 259 560 247 539 C 234 517 217 507 197 507 C 178 507 161 511 147 519 C 132 527 120 534 110 542 C 99 550 89 557 79 564 C 69 571 60 575 50 575 C 39 575 30 569 23 557 C 15 545 11 530 11 511 L -45 511 C -45 555 -36 587 -19 609 C -1 631 16 642 36 642 C 52 642 67 638 79 630 C 91 622 103 613 116 604 C 125 596 135 589 145 582 C 155 574 165 571 175 571 C 184 571 192 577 199 589 C 206 601 210 617 210 638 Z" unicode="ĩ" />
<glyph horiz-adv-x="287" d="M 16 0 L 16 0 Z M 184 0 L 104 0 L 104 730 L 184 730 L 184 0 Z M 143 821 L 143 821 Z M 270 821 L 16 821 L 16 876 L 270 876 L 270 821 Z" unicode="Ī" />
<glyph horiz-adv-x="219" d="M 0 0 L 0 0 Z M 146 0 L 73 0 L 73 436 L 146 436 L 146 0 Z M 108 527 L 108 527 Z M 235 527 L -19 527 L -19 582 L 235 582 L 235 527 Z" unicode="ī" />
<glyph horiz-adv-x="287" d="M 0 0 L 0 0 Z M 184 0 L 104 0 L 104 730 L 184 730 L 184 0 Z M 143 799 L 143 799 Z M 232 956 L 295 956 C 291 901 275 861 247 836 C 219 811 184 799 143 799 C 101 799 67 811 39 836 C 11 861 -5 901 -9 956 L 54 956 C 56 922 64 895 78 873 C 92 851 113 841 143 841 C 172 841 194 851 208 872 C 222 892 230 920 232 956 Z" unicode="Ĭ" />
<glyph horiz-adv-x="219" d="M 0 0 L 0 0 Z M 146 0 L 73 0 L 73 436 L 146 436 L 146 0 Z M 108 505 L 108 505 Z M 197 662 L 260 662 C 256 607 240 567 212 542 C 184 517 149 505 108 505 C 66 505 32 517 4 542 C -24 567 -40 607 -44 662 L 19 662 C 21 628 29 601 43 579 C 57 557 78 547 108 547 C 137 547 159 557 173 578 C 187 598 195 626 197 662 Z" unicode="ĭ" />
<glyph horiz-adv-x="287" d="M 0 0 L 0 0 Z M 184 0 L 104 0 L 104 730 L 184 730 L 184 0 Z M 91 -12 L 91 -12 Z M 199 -108 L 220 -139 C 201 -158 179 -173 154 -184 C 128 -194 100 -200 70 -200 C 36 -200 10 -192 -9 -178 C -29 -163 -39 -145 -39 -123 C -39 -98 -26 -75 -1 -54 C 24 -32 60 -14 106 2 L 133 1 C 100 -13 74 -29 54 -45 C 34 -61 25 -77 25 -94 C 25 -110 31 -122 44 -131 C 57 -139 73 -144 93 -144 C 115 -144 136 -140 154 -134 C 172 -127 187 -118 199 -108 Z" unicode="Į" />
<glyph horiz-adv-x="219" d="M 0 0 L 0 0 Z M 70 544 L 70 625 L 149 625 L 149 544 L 70 544 Z M 73 0 L 73 436 L 146 436 L 146 0 L 73 0 Z M 69 -9 L 69 -9 Z M 177 -105 L 198 -136 C 179 -155 157 -170 132 -181 C 106 -191 78 -197 48 -197 C 14 -197 -11 -189 -31 -175 C -51 -160 -61 -142 -61 -120 C -61 -95 -48 -72 -23 -51 C 2 -29 38 -11 84 5 L 111 4 C 78 -10 52 -26 32 -42 C 12 -58 3 -74 3 -91 C 3 -107 9 -119 22 -128 C 35 -136 51 -141 71 -141 C 93 -141 114 -137 132 -131 C 150 -124 165 -115 177 -105 Z" unicode="į" />
<glyph horiz-adv-x="287" d="M 104 0 L 104 0 Z M 184 0 L 104 0 L 104 730 L 184 730 L 184 0 Z M 143 794 L 143 794 Z M 178 794 L 109 794 L 109 957 L 178 957 L 178 794 Z" unicode="İ" />
<glyph horiz-adv-x="219" d="M 146 0 L 73 0 L 73 436 L 146 436 L 146 0 Z" unicode="ı" />
<glyph horiz-adv-x="602" d="M 104 0 L 104 0 Z M 184 0 L 104 0 L 104 730 L 184 730 L 184 0 Z M 522 730 L 522 191 C 522 164 517 138 509 114 C 501 89 488 67 472 49 C 455 30 434 15 409 4 C 383 -6 354 -12 320 -12 C 303 -12 287 -11 272 -9 C 257 -7 245 -5 236 -3 L 237 69 C 243 66 255 64 272 62 C 288 60 303 59 315 59 C 357 59 390 71 414 95 C 437 119 449 149 449 183 L 449 730 L 522 730 Z" unicode="Ĳ" />
<glyph horiz-adv-x="405" d="M 70 0 L 70 0 Z M 70 544 L 70 625 L 149 625 L 149 544 L 70 544 Z M 73 0 L 73 436 L 146 436 L 146 0 L 73 0 Z M 349 544 L 270 544 L 270 625 L 349 625 L 349 544 Z M 346 436 L 346 -72 C 346 -108 334 -139 311 -165 C 288 -190 259 -202 223 -202 C 216 -202 207 -201 197 -200 C 186 -198 178 -197 173 -196 L 176 -135 C 178 -135 183 -136 189 -137 C 195 -137 201 -138 207 -138 C 223 -138 238 -131 252 -119 C 266 -106 273 -87 273 -62 L 273 436 L 346 436 Z" unicode="ĳ" />
<glyph horiz-adv-x="379" d="M 23 0 L 23 0 Z M 309 730 L 309 191 C 309 164 304 138 296 114 C 288 89 275 67 259 49 C 242 30 221 15 196 4 C 170 -6 141 -12 107 -12 C 90 -12 74 -11 59 -9 C 44 -7 32 -5 23 -3 L 24 69 C 30 66 42 64 59 62 C 75 60 90 59 102 59 C 144 59 177 71 201 95 C 224 119 236 149 236 183 L 236 730 L 309 730 Z M 273 793 L 273 793 Z M 434 793 L 364 793 L 273 911 L 180 793 L 112 793 L 235 964 L 311 964 L 434 793 Z" unicode="Ĵ" />
<glyph horiz-adv-x="209" d="M 0 0 L 0 0 Z M 142 436 L 142 -72 C 142 -108 130 -139 107 -165 C 84 -190 55 -202 19 -202 C 12 -202 3 -201 -7 -200 C -17 -198 -25 -197 -31 -196 L -28 -135 C -25 -135 -20 -136 -14 -137 C -8 -137 -2 -138 3 -138 C 19 -138 34 -131 48 -119 C 62 -106 69 -87 69 -62 L 69 436 L 142 436 Z M 105 499 L 105 499 Z M 266 499 L 196 499 L 105 617 L 12 499 L -56 499 L 67 670 L 143 670 L 266 499 Z" unicode="ĵ" />
<glyph horiz-adv-x="683" d="M 99 0 L 99 0 Z M 671 0 L 566 0 L 279 333 L 179 216 L 179 0 L 99 0 L 99 730 L 179 730 L 179 319 L 526 730 L 625 730 L 331 393 L 671 0 Z M 344 -72 L 344 -72 Z M 432 -72 C 425 -114 410 -158 388 -203 C 365 -247 339 -284 311 -312 L 256 -286 C 272 -267 290 -237 311 -197 C 331 -157 346 -115 354 -72 L 432 -72 Z" unicode="Ķ" />
<glyph horiz-adv-x="475" d="M 67 0 L 67 0 Z M 487 0 L 398 0 L 230 206 L 140 111 L 140 0 L 67 0 L 67 730 L 136 730 L 136 190 L 359 436 L 445 436 L 277 256 L 487 0 Z M 238 -72 L 238 -72 Z M 326 -72 C 319 -114 304 -158 282 -203 C 259 -247 233 -284 205 -312 L 150 -286 C 166 -267 184 -237 205 -197 C 225 -157 240 -115 248 -72 L 326 -72 Z" unicode="ķ" />
<glyph horiz-adv-x="475" d="M 487 0 L 398 0 L 230 206 L 140 111 L 140 0 L 67 0 L 67 436 L 136 436 L 136 190 L 359 436 L 445 436 L 277 256 L 487 0 Z" unicode="ĸ" />
<glyph horiz-adv-x="495" d="M 99 0 L 99 0 Z M 486 0 L 99 0 L 99 730 L 179 730 L 179 72 L 486 72 L 486 0 Z M 296 792 L 296 792 Z M 200 792 L 306 957 L 394 957 L 274 792 L 200 792 Z" unicode="Ĺ" />
<glyph horiz-adv-x="214" d="M 70 0 L 70 0 Z M 167 792 L 167 792 Z M 71 792 L 177 957 L 265 957 L 145 792 L 71 792 Z M 144 730 L 144 0 L 70 0 L 70 730 L 144 730 Z" unicode="ĺ" />
<glyph horiz-adv-x="495" d="M 99 0 L 99 0 Z M 486 0 L 99 0 L 99 730 L 179 730 L 179 72 L 486 72 L 486 0 Z M 266 -72 L 266 -72 Z M 354 -72 C 347 -114 332 -158 310 -203 C 287 -247 261 -284 233 -312 L 178 -286 C 194 -267 212 -237 233 -197 C 253 -157 268 -115 276 -72 L 354 -72 Z" unicode="Ļ" />
<glyph horiz-adv-x="214" d="M 0 0 L 0 0 Z M 144 730 L 144 0 L 70 0 L 70 730 L 144 730 Z M 72 -72 L 72 -72 Z M 160 -72 C 153 -114 138 -158 116 -203 C 93 -247 67 -284 39 -312 L -16 -286 C 0 -267 18 -237 39 -197 C 59 -157 74 -115 82 -72 L 160 -72 Z" unicode="ļ" />
<glyph horiz-adv-x="495" d="M 99 0 L 99 0 Z M 486 0 L 99 0 L 99 730 L 179 730 L 179 72 L 486 72 L 486 0 Z M 471 622 L 467 490 L 405 490 L 401 622 L 401 730 L 471 730 L 471 622 Z" unicode="Ľ" />
<glyph horiz-adv-x="214" d="M 70 0 L 70 0 Z M 283 622 L 279 490 L 217 490 L 213 622 L 213 730 L 283 730 L 283 622 Z M 144 730 L 144 0 L 70 0 L 70 730 L 144 730 Z" unicode="ľ" />
<glyph horiz-adv-x="495" d="M 99 0 L 99 0 Z M 486 0 L 99 0 L 99 730 L 179 730 L 179 72 L 486 72 L 486 0 Z M 359 281 L 359 281 Z M 394 281 L 325 281 L 325 444 L 394 444 L 394 281 Z" unicode="Ŀ" />
<glyph horiz-adv-x="214" d="M 70 0 L 70 0 Z M 144 730 L 144 0 L 70 0 L 70 730 L 144 730 Z M 259 193 L 259 193 Z M 294 193 L 225 193 L 225 356 L 294 356 L 294 193 Z" unicode="ŀ" />
<glyph horiz-adv-x="495" d="M 486 72 L 486 0 L 99 0 L 99 278 L 34 251 L 6 307 L 99 345 L 99 730 L 179 730 L 179 377 L 358 449 L 384 394 L 179 310 L 179 72 L 486 72 Z" unicode="Ł" />
<glyph horiz-adv-x="214" d="M 218 346 L 144 311 L 144 0 L 70 0 L 70 276 L 19 252 L -5 309 L 70 344 L 70 730 L 144 730 L 144 378 L 195 402 L 218 346 Z" unicode="ł" />
<glyph horiz-adv-x="783" d="M 99 0 L 99 0 Z M 684 0 L 628 0 L 175 583 L 175 0 L 99 0 L 99 730 L 159 730 L 607 148 L 607 730 L 684 730 L 684 0 Z M 394 792 L 394 792 Z M 298 792 L 404 957 L 492 957 L 372 792 L 298 792 Z" unicode="Ń" />
<glyph horiz-adv-x="520" d="M 67 0 L 67 0 Z M 459 0 L 385 0 L 385 284 C 385 316 375 342 355 361 C 335 380 308 390 272 390 C 238 390 207 378 180 356 C 153 334 140 299 140 251 L 140 0 L 67 0 L 67 436 L 138 436 L 138 349 C 148 377 167 401 197 420 C 226 439 260 449 298 449 C 347 449 386 435 415 407 C 444 379 459 343 459 297 L 459 0 Z M 260 498 L 260 498 Z M 164 498 L 270 663 L 358 663 L 238 498 L 164 498 Z" unicode="ń" />
<glyph horiz-adv-x="783" d="M 99 0 L 99 0 Z M 684 0 L 628 0 L 175 583 L 175 0 L 99 0 L 99 730 L 159 730 L 607 148 L 607 730 L 684 730 L 684 0 Z M 364 -72 L 364 -72 Z M 452 -72 C 445 -114 430 -158 408 -203 C 385 -247 359 -284 331 -312 L 276 -286 C 292 -267 310 -237 331 -197 C 351 -157 366 -115 374 -72 L 452 -72 Z" unicode="Ņ" />
<glyph horiz-adv-x="520" d="M 67 0 L 67 0 Z M 459 0 L 385 0 L 385 284 C 385 316 375 342 355 361 C 335 380 308 390 272 390 C 238 390 207 378 180 356 C 153 334 140 299 140 251 L 140 0 L 67 0 L 67 436 L 138 436 L 138 349 C 148 377 167 401 197 420 C 226 439 260 449 298 449 C 347 449 386 435 415 407 C 444 379 459 343 459 297 L 459 0 Z M 224 -72 L 224 -72 Z M 312 -72 C 305 -114 290 -158 268 -203 C 245 -247 219 -284 191 -312 L 136 -286 C 152 -267 170 -237 191 -197 C 211 -157 226 -115 234 -72 L 312 -72 Z" unicode="ņ" />
<glyph horiz-adv-x="783" d="M 99 0 L 99 0 Z M 684 0 L 628 0 L 175 583 L 175 0 L 99 0 L 99 730 L 159 730 L 607 148 L 607 730 L 684 730 L 684 0 Z M 394 793 L 394 793 Z M 233 964 L 303 964 L 395 846 L 487 964 L 555 964 L 432 793 L 356 793 L 233 964 Z" unicode="Ň" />
<glyph horiz-adv-x="520" d="M 67 0 L 67 0 Z M 459 0 L 385 0 L 385 284 C 385 316 375 342 355 361 C 335 380 308 390 272 390 C 238 390 207 378 180 356 C 153 334 140 299 140 251 L 140 0 L 67 0 L 67 436 L 138 436 L 138 349 C 148 377 167 401 197 420 C 226 439 260 449 298 449 C 347 449 386 435 415 407 C 444 379 459 343 459 297 L 459 0 Z M 260 499 L 260 499 Z M 99 670 L 169 670 L 261 552 L 353 670 L 421 670 L 298 499 L 222 499 L 99 670 Z" unicode="ň" />
<glyph horiz-adv-x="790" d="M 607 730 L 684 730 L 684 0 L 684 0 C 684 -26 679 -52 671 -76 C 662 -100 649 -121 633 -139 C 616 -157 595 -172 570 -183 C 544 -194 515 -200 482 -200 C 465 -200 449 -199 434 -197 C 419 -195 407 -193 398 -191 L 399 -119 C 405 -121 417 -124 434 -126 C 450 -128 465 -129 477 -129 C 519 -129 552 -116 576 -92 C 599 -68 611 -39 611 -5 L 611 22 L 175 583 L 175 0 L 99 0 L 99 730 L 159 730 L 607 148 L 607 730 Z" unicode="Ŋ" />
<glyph horiz-adv-x="520" d="M 298 449 C 347 449 386 435 415 407 C 444 379 459 343 459 297 L 459 -72 C 459 -108 447 -139 424 -165 C 401 -190 371 -202 335 -202 C 328 -202 319 -201 309 -200 C 298 -198 290 -197 286 -196 L 288 -135 C 290 -135 295 -136 301 -137 C 307 -137 313 -138 319 -138 C 335 -138 350 -131 364 -119 C 378 -106 385 -87 385 -62 L 385 284 C 385 316 375 342 355 361 C 335 380 308 390 272 390 C 238 390 207 378 180 356 C 153 334 140 299 140 251 L 140 0 L 67 0 L 67 436 L 138 436 L 138 349 C 148 377 167 401 197 420 C 226 439 260 449 298 449 Z" unicode="ŋ" />
<glyph horiz-adv-x="845" d="M 49 0 L 49 0 Z M 426 -12 C 370 -12 318 -2 272 16 C 226 35 186 61 153 95 C 120 129 94 169 76 216 C 58 263 49 314 49 370 C 49 422 58 470 77 516 C 96 562 122 601 155 635 C 188 668 227 694 273 713 C 318 732 366 742 418 742 C 474 742 525 732 572 714 C 618 696 658 670 691 637 C 724 604 750 564 769 518 C 787 472 797 421 797 367 C 797 312 787 261 767 215 C 747 168 721 128 687 95 C 653 61 614 35 569 16 C 524 -2 476 -12 426 -12 Z M 425 62 C 465 62 502 69 538 84 C 573 98 604 119 630 146 C 656 173 676 206 691 244 C 706 282 714 325 714 371 C 714 413 706 453 692 489 C 677 525 657 557 631 583 C 605 609 574 629 538 644 C 502 658 463 666 421 666 C 379 666 340 659 305 645 C 269 631 239 611 213 585 C 187 559 167 528 153 491 C 139 453 132 412 132 366 C 132 318 139 276 155 238 C 171 200 192 169 218 143 C 244 117 275 97 311 83 C 347 69 385 62 425 62 Z M 421 821 L 421 821 Z M 548 821 L 294 821 L 294 876 L 548 876 L 548 821 Z" unicode="Ō" />
<glyph horiz-adv-x="526" d="M 29 0 L 29 0 Z M 259 -11 C 229 -11 201 -5 173 5 C 145 15 121 30 100 50 C 78 70 61 94 48 122 C 35 150 29 182 29 217 C 29 248 35 278 47 306 C 59 334 76 358 96 379 C 116 400 141 417 169 430 C 197 442 226 449 257 449 C 289 449 319 443 349 433 C 378 422 403 407 425 388 C 447 368 464 345 477 318 C 490 291 497 261 497 229 C 497 195 490 163 478 134 C 466 104 449 79 428 58 C 406 36 381 19 352 7 C 323 -4 292 -11 259 -11 Z M 261 53 C 307 53 345 69 375 101 C 405 133 420 173 420 223 C 420 267 405 306 375 338 C 345 370 305 386 255 386 C 213 386 178 370 149 339 C 120 307 106 268 106 220 C 106 168 121 127 151 97 C 181 67 218 53 261 53 Z M 257 527 L 257 527 Z M 384 527 L 130 527 L 130 582 L 384 582 L 384 527 Z" unicode="ō" />
<glyph horiz-adv-x="845" d="M 49 0 L 49 0 Z M 426 -12 C 370 -12 318 -2 272 16 C 226 35 186 61 153 95 C 120 129 94 169 76 216 C 58 263 49 314 49 370 C 49 422 58 470 77 516 C 96 562 122 601 155 635 C 188 668 227 694 273 713 C 318 732 366 742 418 742 C 474 742 525 732 572 714 C 618 696 658 670 691 637 C 724 604 750 564 769 518 C 787 472 797 421 797 367 C 797 312 787 261 767 215 C 747 168 721 128 687 95 C 653 61 614 35 569 16 C 524 -2 476 -12 426 -12 Z M 425 62 C 465 62 502 69 538 84 C 573 98 604 119 630 146 C 656 173 676 206 691 244 C 706 282 714 325 714 371 C 714 413 706 453 692 489 C 677 525 657 557 631 583 C 605 609 574 629 538 644 C 502 658 463 666 421 666 C 379 666 340 659 305 645 C 269 631 239 611 213 585 C 187 559 167 528 153 491 C 139 453 132 412 132 366 C 132 318 139 276 155 238 C 171 200 192 169 218 143 C 244 117 275 97 311 83 C 347 69 385 62 425 62 Z M 421 799 L 421 799 Z M 510 956 L 573 956 C 569 901 553 861 525 836 C 497 811 462 799 421 799 C 379 799 345 811 317 836 C 289 861 273 901 269 956 L 332 956 C 334 922 342 895 356 873 C 370 851 391 841 421 841 C 450 841 472 851 486 872 C 500 892 508 920 510 956 Z" unicode="Ŏ" />
<glyph horiz-adv-x="526" d="M 29 0 L 29 0 Z M 259 -11 C 229 -11 201 -5 173 5 C 145 15 121 30 100 50 C 78 70 61 94 48 122 C 35 150 29 182 29 217 C 29 248 35 278 47 306 C 59 334 76 358 96 379 C 116 400 141 417 169 430 C 197 442 226 449 257 449 C 289 449 319 443 349 433 C 378 422 403 407 425 388 C 447 368 464 345 477 318 C 490 291 497 261 497 229 C 497 195 490 163 478 134 C 466 104 449 79 428 58 C 406 36 381 19 352 7 C 323 -4 292 -11 259 -11 Z M 261 53 C 307 53 345 69 375 101 C 405 133 420 173 420 223 C 420 267 405 306 375 338 C 345 370 305 386 255 386 C 213 386 178 370 149 339 C 120 307 106 268 106 220 C 106 168 121 127 151 97 C 181 67 218 53 261 53 Z M 257 505 L 257 505 Z M 346 662 L 409 662 C 405 607 389 567 361 542 C 333 517 298 505 257 505 C 215 505 181 517 153 542 C 125 567 109 607 105 662 L 168 662 C 170 628 178 601 192 579 C 206 557 227 547 257 547 C 286 547 308 557 322 578 C 336 598 344 626 346 662 Z" unicode="ŏ" />
<glyph horiz-adv-x="845" d="M 49 0 L 49 0 Z M 426 -12 C 370 -12 318 -2 272 16 C 226 35 186 61 153 95 C 120 129 94 169 76 216 C 58 263 49 314 49 370 C 49 422 58 470 77 516 C 96 562 122 601 155 635 C 188 668 227 694 273 713 C 318 732 366 742 418 742 C 474 742 525 732 572 714 C 618 696 658 670 691 637 C 724 604 750 564 769 518 C 787 472 797 421 797 367 C 797 312 787 261 767 215 C 747 168 721 128 687 95 C 653 61 614 35 569 16 C 524 -2 476 -12 426 -12 Z M 425 62 C 465 62 502 69 538 84 C 573 98 604 119 630 146 C 656 173 676 206 691 244 C 706 282 714 325 714 371 C 714 413 706 453 692 489 C 677 525 657 557 631 583 C 605 609 574 629 538 644 C 502 658 463 666 421 666 C 379 666 340 659 305 645 C 269 631 239 611 213 585 C 187 559 167 528 153 491 C 139 453 132 412 132 366 C 132 318 139 276 155 238 C 171 200 192 169 218 143 C 244 117 275 97 311 83 C 347 69 385 62 425 62 Z M 421 792 L 421 792 Z M 246 792 L 340 942 L 420 942 L 313 792 L 246 792 Z M 422 792 L 517 942 L 596 942 L 489 792 L 422 792 Z" unicode="Ő" />
<glyph horiz-adv-x="526" d="M 29 0 L 29 0 Z M 259 -11 C 229 -11 201 -5 173 5 C 145 15 121 30 100 50 C 78 70 61 94 48 122 C 35 150 29 182 29 217 C 29 248 35 278 47 306 C 59 334 76 358 96 379 C 116 400 141 417 169 430 C 197 442 226 449 257 449 C 289 449 319 443 349 433 C 378 422 403 407 425 388 C 447 368 464 345 477 318 C 490 291 497 261 497 229 C 497 195 490 163 478 134 C 466 104 449 79 428 58 C 406 36 381 19 352 7 C 323 -4 292 -11 259 -11 Z M 261 53 C 307 53 345 69 375 101 C 405 133 420 173 420 223 C 420 267 405 306 375 338 C 345 370 305 386 255 386 C 213 386 178 370 149 339 C 120 307 106 268 106 220 C 106 168 121 127 151 97 C 181 67 218 53 261 53 Z M 257 498 L 257 498 Z M 82 498 L 176 648 L 256 648 L 149 498 L 82 498 Z M 258 498 L 353 648 L 432 648 L 325 498 L 258 498 Z" unicode="ő" />
<glyph horiz-adv-x="1190" d="M 415 -12 C 361 -12 312 -2 267 16 C 222 35 183 61 151 95 C 119 128 94 168 76 215 C 58 262 49 313 49 368 C 49 420 58 470 77 516 C 96 562 122 601 155 635 C 188 668 227 694 273 713 C 318 732 366 742 418 742 C 447 742 477 737 508 729 C 539 721 568 709 595 694 C 621 678 645 660 666 639 C 687 618 702 595 712 570 L 712 730 L 1114 730 L 1114 658 L 790 658 L 790 397 L 1101 397 L 1101 325 L 790 325 L 790 72 L 1134 72 L 1134 0 L 712 0 L 712 172 C 693 119 658 75 606 40 C 554 5 491 -12 415 -12 Z M 424 62 C 463 62 500 68 536 82 C 571 96 602 116 628 142 C 654 168 675 200 691 238 C 706 276 714 320 714 370 C 714 419 704 462 686 500 C 667 538 643 569 615 594 C 586 618 554 637 520 649 C 485 661 452 668 421 668 C 380 668 342 660 306 646 C 270 632 240 612 214 586 C 188 560 168 528 153 491 C 138 453 131 412 131 367 C 131 319 138 277 154 239 C 170 201 191 169 218 143 C 244 117 275 97 311 83 C 347 69 384 62 424 62 Z" unicode="Œ" />
<glyph horiz-adv-x="893" d="M 262 -11 C 229 -11 198 -5 170 6 C 142 17 117 33 96 53 C 75 73 59 98 47 126 C 35 154 29 184 29 217 C 29 248 35 278 47 306 C 59 334 75 359 95 380 C 115 401 140 418 169 430 C 197 442 228 449 261 449 C 315 449 360 436 394 412 C 428 387 450 358 461 326 C 466 340 474 354 486 369 C 497 383 511 397 527 409 C 543 421 561 430 583 438 C 605 445 629 449 655 449 C 725 449 779 425 818 379 C 857 332 877 272 877 198 L 495 198 C 497 154 514 119 545 91 C 576 63 615 50 663 50 C 706 50 738 56 758 69 C 778 82 796 96 811 111 L 856 68 C 837 47 814 29 787 13 C 760 -3 719 -11 663 -11 C 605 -11 559 1 525 27 C 491 53 469 81 461 112 C 456 98 448 84 438 70 C 427 56 413 43 397 31 C 380 19 360 9 338 1 C 315 -7 290 -11 262 -11 Z M 497 256 L 806 256 C 804 290 790 321 763 348 C 735 374 699 388 653 388 C 607 388 571 374 544 348 C 517 322 501 291 497 256 Z M 261 53 C 307 53 346 68 376 99 C 406 130 421 171 421 223 C 421 269 405 308 375 339 C 345 370 306 386 259 386 C 215 386 178 370 149 338 C 120 306 106 266 106 220 C 106 168 120 128 150 98 C 180 68 217 53 261 53 Z" unicode="œ" />
<glyph horiz-adv-x="605" d="M 99 0 L 99 0 Z M 99 0 L 99 730 L 299 730 C 361 730 411 712 449 677 C 487 641 506 594 506 534 C 506 501 501 472 491 447 C 481 422 469 401 453 385 C 437 368 419 355 399 346 C 378 336 357 331 336 329 L 332 327 L 565 0 L 472 0 L 253 310 L 178 310 L 178 0 L 99 0 Z M 178 379 L 277 379 C 321 379 356 391 384 417 C 412 442 426 478 426 524 C 426 562 413 593 388 619 C 362 644 328 657 284 657 L 178 657 L 178 379 Z M 289 792 L 289 792 Z M 193 792 L 299 957 L 387 957 L 267 792 L 193 792 Z" unicode="Ŕ" />
<glyph horiz-adv-x="377" d="M 67 0 L 67 0 Z M 373 418 L 344 356 C 329 367 314 375 299 379 C 284 383 270 385 256 385 C 227 385 200 373 176 349 C 152 325 140 292 140 251 L 140 0 L 67 0 L 67 436 L 138 436 L 138 347 C 140 357 145 368 153 380 C 160 392 170 403 182 413 C 194 423 208 431 224 438 C 240 444 258 448 278 448 C 297 448 315 445 332 440 C 348 434 362 427 373 418 Z M 219 498 L 219 498 Z M 123 498 L 229 663 L 317 663 L 197 498 L 123 498 Z" unicode="ŕ" />
<glyph horiz-adv-x="605" d="M 99 0 L 99 0 Z M 99 0 L 99 730 L 299 730 C 361 730 411 712 449 677 C 487 641 506 594 506 534 C 506 501 501 472 491 447 C 481 422 469 401 453 385 C 437 368 419 355 399 346 C 378 336 357 331 336 329 L 332 327 L 565 0 L 472 0 L 253 310 L 178 310 L 178 0 L 99 0 Z M 178 379 L 277 379 C 321 379 356 391 384 417 C 412 442 426 478 426 524 C 426 562 413 593 388 619 C 362 644 328 657 284 657 L 178 657 L 178 379 Z M 289 -72 L 289 -72 Z M 377 -72 C 370 -114 355 -158 333 -203 C 310 -247 284 -284 256 -312 L 201 -286 C 217 -267 235 -237 256 -197 C 276 -157 291 -115 299 -72 L 377 -72 Z" unicode="Ŗ" />
<glyph horiz-adv-x="377" d="M 67 0 L 67 0 Z M 373 418 L 344 356 C 329 367 314 375 299 379 C 284 383 270 385 256 385 C 227 385 200 373 176 349 C 152 325 140 292 140 251 L 140 0 L 67 0 L 67 436 L 138 436 L 138 347 C 140 357 145 368 153 380 C 160 392 170 403 182 413 C 194 423 208 431 224 438 C 240 444 258 448 278 448 C 297 448 315 445 332 440 C 348 434 362 427 373 418 Z M 183 -72 L 183 -72 Z M 271 -72 C 264 -114 249 -158 227 -203 C 204 -247 178 -284 150 -312 L 95 -286 C 111 -267 129 -237 150 -197 C 170 -157 185 -115 193 -72 L 271 -72 Z" unicode="ŗ" />
<glyph horiz-adv-x="605" d="M 99 0 L 99 0 Z M 99 0 L 99 730 L 299 730 C 361 730 411 712 449 677 C 487 641 506 594 506 534 C 506 501 501 472 491 447 C 481 422 469 401 453 385 C 437 368 419 355 399 346 C 378 336 357 331 336 329 L 332 327 L 565 0 L 472 0 L 253 310 L 178 310 L 178 0 L 99 0 Z M 178 379 L 277 379 C 321 379 356 391 384 417 C 412 442 426 478 426 524 C 426 562 413 593 388 619 C 362 644 328 657 284 657 L 178 657 L 178 379 Z M 289 793 L 289 793 Z M 128 964 L 198 964 L 290 846 L 382 964 L 450 964 L 327 793 L 251 793 L 128 964 Z" unicode="Ř" />
<glyph horiz-adv-x="377" d="M 58 0 L 58 0 Z M 373 418 L 344 356 C 329 367 314 375 299 379 C 284 383 270 385 256 385 C 227 385 200 373 176 349 C 152 325 140 292 140 251 L 140 0 L 67 0 L 67 436 L 138 436 L 138 347 C 140 357 145 368 153 380 C 160 392 170 403 182 413 C 194 423 208 431 224 438 C 240 444 258 448 278 448 C 297 448 315 445 332 440 C 348 434 362 427 373 418 Z M 219 499 L 219 499 Z M 58 670 L 128 670 L 220 552 L 312 670 L 380 670 L 257 499 L 181 499 L 58 670 Z" unicode="ř" />
<glyph horiz-adv-x="497" d="M 27 0 L 27 0 Z M 260 -12 C 210 -12 166 -4 126 12 C 86 28 53 50 27 79 L 73 141 C 93 115 120 96 154 82 C 188 68 222 61 256 61 C 295 61 328 72 354 94 C 380 116 393 146 393 182 C 393 212 381 239 359 263 C 337 286 298 310 244 334 C 182 360 135 390 101 423 C 67 456 50 503 50 563 C 50 615 68 657 104 691 C 140 725 187 742 247 742 C 286 742 322 735 354 723 C 386 711 415 694 442 672 L 403 608 C 381 626 358 641 333 652 C 307 663 281 669 253 669 C 213 669 182 658 160 637 C 138 615 127 590 127 561 C 127 527 138 499 160 478 C 182 456 225 432 289 405 C 355 376 402 344 429 310 C 456 276 470 233 470 183 C 470 153 464 125 453 101 C 441 77 426 56 407 40 C 388 23 366 10 340 1 C 314 -7 288 -12 260 -12 Z M 248 792 L 248 792 Z M 152 792 L 258 957 L 346 957 L 226 792 L 152 792 Z" unicode="Ś" />
<glyph horiz-adv-x="379" d="M 30 0 L 30 0 Z M 200 -12 C 160 -12 127 -6 99 3 C 71 13 48 28 30 46 L 68 97 C 82 83 101 71 123 63 C 145 55 171 51 199 51 C 221 51 240 56 256 68 C 271 80 279 96 279 117 C 279 133 271 148 255 160 C 239 172 211 184 173 196 C 128 208 95 225 73 245 C 51 265 41 292 41 325 C 41 361 55 391 83 414 C 111 436 147 448 189 448 C 221 448 249 443 274 433 C 299 423 319 413 333 401 L 297 352 C 285 360 270 368 251 376 C 231 384 210 388 188 388 C 168 388 150 383 134 375 C 117 366 109 353 109 336 C 109 321 114 309 124 299 C 134 289 160 278 201 266 C 251 250 287 231 311 211 C 335 190 347 161 347 124 C 347 82 333 48 305 24 C 277 0 242 -12 200 -12 Z M 192 498 L 192 498 Z M 96 498 L 202 663 L 290 663 L 170 498 L 96 498 Z" unicode="ś" />
<glyph horiz-adv-x="497" d="M 27 0 L 27 0 Z M 260 -12 C 210 -12 166 -4 126 12 C 86 28 53 50 27 79 L 73 141 C 93 115 120 96 154 82 C 188 68 222 61 256 61 C 295 61 328 72 354 94 C 380 116 393 146 393 182 C 393 212 381 239 359 263 C 337 286 298 310 244 334 C 182 360 135 390 101 423 C 67 456 50 503 50 563 C 50 615 68 657 104 691 C 140 725 187 742 247 742 C 286 742 322 735 354 723 C 386 711 415 694 442 672 L 403 608 C 381 626 358 641 333 652 C 307 663 281 669 253 669 C 213 669 182 658 160 637 C 138 615 127 590 127 561 C 127 527 138 499 160 478 C 182 456 225 432 289 405 C 355 376 402 344 429 310 C 456 276 470 233 470 183 C 470 153 464 125 453 101 C 441 77 426 56 407 40 C 388 23 366 10 340 1 C 314 -7 288 -12 260 -12 Z M 248 793 L 248 793 Z M 409 793 L 339 793 L 248 911 L 155 793 L 87 793 L 210 964 L 286 964 L 409 793 Z" unicode="Ŝ" />
<glyph horiz-adv-x="379" d="M 30 0 L 30 0 Z M 200 -12 C 160 -12 127 -6 99 3 C 71 13 48 28 30 46 L 68 97 C 82 83 101 71 123 63 C 145 55 171 51 199 51 C 221 51 240 56 256 68 C 271 80 279 96 279 117 C 279 133 271 148 255 160 C 239 172 211 184 173 196 C 128 208 95 225 73 245 C 51 265 41 292 41 325 C 41 361 55 391 83 414 C 111 436 147 448 189 448 C 221 448 249 443 274 433 C 299 423 319 413 333 401 L 297 352 C 285 360 270 368 251 376 C 231 384 210 388 188 388 C 168 388 150 383 134 375 C 117 366 109 353 109 336 C 109 321 114 309 124 299 C 134 289 160 278 201 266 C 251 250 287 231 311 211 C 335 190 347 161 347 124 C 347 82 333 48 305 24 C 277 0 242 -12 200 -12 Z M 192 499 L 192 499 Z M 353 499 L 283 499 L 192 617 L 99 499 L 31 499 L 154 670 L 230 670 L 353 499 Z" unicode="ŝ" />
<glyph horiz-adv-x="497" d="M 27 0 L 27 0 Z M 260 -12 C 210 -12 166 -4 126 12 C 86 28 53 50 27 79 L 73 141 C 93 115 120 96 154 82 C 188 68 222 61 256 61 C 295 61 328 72 354 94 C 380 116 393 146 393 182 C 393 212 381 239 359 263 C 337 286 298 310 244 334 C 182 360 135 390 101 423 C 67 456 50 503 50 563 C 50 615 68 657 104 691 C 140 725 187 742 247 742 C 286 742 322 735 354 723 C 386 711 415 694 442 672 L 403 608 C 381 626 358 641 333 652 C 307 663 281 669 253 669 C 213 669 182 658 160 637 C 138 615 127 590 127 561 C 127 527 138 499 160 478 C 182 456 225 432 289 405 C 355 376 402 344 429 310 C 456 276 470 233 470 183 C 470 153 464 125 453 101 C 441 77 426 56 407 40 C 388 23 366 10 340 1 C 314 -7 288 -12 260 -12 Z M 233 -3 L 233 -3 Z M 242 -189 C 218 -189 194 -186 170 -180 C 146 -174 127 -166 113 -157 L 122 -122 C 132 -128 146 -134 163 -140 C 179 -146 198 -149 219 -149 C 235 -149 250 -145 263 -137 C 275 -129 282 -120 282 -108 C 282 -93 276 -83 265 -77 C 253 -71 241 -69 229 -69 C 220 -69 212 -69 206 -71 C 200 -72 193 -74 185 -77 L 171 -63 L 231 7 L 278 7 L 228 -55 C 262 -46 292 -48 317 -61 C 341 -73 354 -92 354 -116 C 354 -140 342 -159 320 -171 C 298 -183 272 -189 242 -189 Z" unicode="Ş" />
<glyph horiz-adv-x="379" d="M 30 0 L 30 0 Z M 200 -12 C 160 -12 127 -6 99 3 C 71 13 48 28 30 46 L 68 97 C 82 83 101 71 123 63 C 145 55 171 51 199 51 C 221 51 240 56 256 68 C 271 80 279 96 279 117 C 279 133 271 148 255 160 C 239 172 211 184 173 196 C 128 208 95 225 73 245 C 51 265 41 292 41 325 C 41 361 55 391 83 414 C 111 436 147 448 189 448 C 221 448 249 443 274 433 C 299 423 319 413 333 401 L 297 352 C 285 360 270 368 251 376 C 231 384 210 388 188 388 C 168 388 150 383 134 375 C 117 366 109 353 109 336 C 109 321 114 309 124 299 C 134 289 160 278 201 266 C 251 250 287 231 311 211 C 335 190 347 161 347 124 C 347 82 333 48 305 24 C 277 0 242 -12 200 -12 Z M 179 -3 L 179 -3 Z M 188 -189 C 164 -189 140 -186 116 -180 C 92 -174 73 -166 59 -157 L 68 -122 C 78 -128 92 -134 109 -140 C 125 -146 144 -149 165 -149 C 181 -149 196 -145 209 -137 C 221 -129 228 -120 228 -108 C 228 -93 222 -83 211 -77 C 199 -71 187 -69 175 -69 C 166 -69 158 -69 152 -71 C 146 -72 139 -74 131 -77 L 117 -63 L 177 7 L 224 7 L 174 -55 C 208 -46 238 -48 263 -61 C 287 -73 300 -92 300 -116 C 300 -140 288 -159 266 -171 C 244 -183 218 -189 188 -189 Z" unicode="ş" />
<glyph horiz-adv-x="497" d="M 27 0 L 27 0 Z M 260 -12 C 210 -12 166 -4 126 12 C 86 28 53 50 27 79 L 73 141 C 93 115 120 96 154 82 C 188 68 222 61 256 61 C 295 61 328 72 354 94 C 380 116 393 146 393 182 C 393 212 381 239 359 263 C 337 286 298 310 244 334 C 182 360 135 390 101 423 C 67 456 50 503 50 563 C 50 615 68 657 104 691 C 140 725 187 742 247 742 C 286 742 322 735 354 723 C 386 711 415 694 442 672 L 403 608 C 381 626 358 641 333 652 C 307 663 281 669 253 669 C 213 669 182 658 160 637 C 138 615 127 590 127 561 C 127 527 138 499 160 478 C 182 456 225 432 289 405 C 355 376 402 344 429 310 C 456 276 470 233 470 183 C 470 153 464 125 453 101 C 441 77 426 56 407 40 C 388 23 366 10 340 1 C 314 -7 288 -12 260 -12 Z M 248 793 L 248 793 Z M 87 964 L 157 964 L 249 846 L 341 964 L 409 964 L 286 793 L 210 793 L 87 964 Z" unicode="Š" />
<glyph horiz-adv-x="379" d="M 30 0 L 30 0 Z M 200 -12 C 160 -12 127 -6 99 3 C 71 13 48 28 30 46 L 68 97 C 82 83 101 71 123 63 C 145 55 171 51 199 51 C 221 51 240 56 256 68 C 271 80 279 96 279 117 C 279 133 271 148 255 160 C 239 172 211 184 173 196 C 128 208 95 225 73 245 C 51 265 41 292 41 325 C 41 361 55 391 83 414 C 111 436 147 448 189 448 C 221 448 249 443 274 433 C 299 423 319 413 333 401 L 297 352 C 285 360 270 368 251 376 C 231 384 210 388 188 388 C 168 388 150 383 134 375 C 117 366 109 353 109 336 C 109 321 114 309 124 299 C 134 289 160 278 201 266 C 251 250 287 231 311 211 C 335 190 347 161 347 124 C 347 82 333 48 305 24 C 277 0 242 -12 200 -12 Z M 192 499 L 192 499 Z M 31 670 L 101 670 L 193 552 L 285 670 L 353 670 L 230 499 L 154 499 L 31 670 Z" unicode="š" />
<glyph horiz-adv-x="523" d="M 10 0 L 10 0 Z M 513 658 L 299 658 L 299 0 L 219 0 L 219 658 L 10 658 L 10 730 L 513 730 L 513 658 Z M 259 793 L 259 793 Z M 98 964 L 168 964 L 260 846 L 352 964 L 420 964 L 297 793 L 221 793 L 98 964 Z" unicode="Ť" />
<glyph horiz-adv-x="246" d="M 9 0 L 9 0 Z M 235 60 L 235 -2 C 233 -3 227 -4 219 -5 C 210 -5 201 -6 192 -6 C 178 -6 163 -4 149 -1 C 135 1 122 6 111 14 C 99 22 90 32 83 46 C 76 59 73 76 73 97 L 73 370 L 9 370 L 9 436 L 73 436 L 73 533 L 146 543 L 146 436 L 231 436 L 231 370 L 146 370 L 146 111 C 146 90 151 76 163 68 C 174 60 189 57 208 57 C 211 57 216 57 223 58 C 230 58 234 59 235 60 Z M 307 622 L 303 490 L 241 490 L 237 622 L 237 730 L 307 730 L 307 622 Z" unicode="ť" />
<glyph horiz-adv-x="523" d="M 427 479 L 299 479 L 299 0 L 219 0 L 219 479 L 83 479 L 83 542 L 219 542 L 219 658 L 10 658 L 10 730 L 513 730 L 513 658 L 299 658 L 299 542 L 427 542 L 427 479 Z" unicode="Ŧ" />
<glyph horiz-adv-x="246" d="M 235 -2 C 233 -3 227 -4 219 -5 C 210 -5 201 -6 192 -6 C 178 -6 163 -4 149 -1 C 135 1 122 6 111 14 C 99 22 90 32 83 46 C 76 59 73 76 73 97 L 73 239 L 19 239 L 19 302 L 73 302 L 73 370 L 9 370 L 9 436 L 73 436 L 73 533 L 146 543 L 146 436 L 231 436 L 231 370 L 146 370 L 146 302 L 221 302 L 221 239 L 146 239 L 146 111 C 146 90 151 76 163 68 C 174 60 189 57 208 57 C 211 57 216 57 223 58 C 230 58 234 59 235 60 L 235 -2 Z" unicode="ŧ" />
<glyph horiz-adv-x="737" d="M 90 0 L 90 0 Z M 647 730 L 647 266 C 647 222 639 183 625 149 C 611 114 591 85 566 61 C 541 37 512 19 478 7 C 444 -5 407 -12 368 -12 C 329 -12 293 -6 259 6 C 225 18 195 35 170 59 C 145 83 125 112 111 147 C 97 181 90 221 90 266 L 90 730 L 168 730 L 168 257 C 168 228 173 202 183 178 C 193 154 208 133 226 116 C 244 99 265 86 289 76 C 313 66 338 62 366 62 C 393 62 419 66 444 75 C 469 84 491 97 509 114 C 527 131 542 152 553 176 C 563 200 569 227 569 257 L 569 730 L 647 730 Z M 368 801 L 368 801 Z M 470 932 L 526 932 C 526 887 519 854 507 833 C 494 811 477 801 457 801 C 438 801 421 805 407 813 C 392 821 380 828 370 836 C 359 844 349 851 339 858 C 329 865 320 869 310 869 C 299 869 290 863 283 851 C 275 839 271 824 271 805 L 215 805 C 215 849 223 881 241 903 C 258 925 276 936 296 936 C 312 936 327 932 339 924 C 351 916 363 907 376 898 C 385 890 395 883 405 876 C 415 868 425 865 435 865 C 444 865 452 871 459 883 C 466 895 470 911 470 932 Z" unicode="Ũ" />
<glyph horiz-adv-x="520" d="M 62 0 L 62 0 Z M 62 436 L 135 436 L 135 153 C 135 120 145 94 165 76 C 185 58 213 49 248 49 C 282 49 313 60 340 82 C 366 104 380 137 380 183 L 380 436 L 453 436 L 453 0 L 381 0 L 381 91 C 369 61 348 36 319 18 C 290 0 256 -10 218 -10 C 172 -10 135 3 106 31 C 76 58 62 96 62 144 L 62 436 Z M 257 507 L 257 507 Z M 359 638 L 415 638 C 415 593 408 560 396 539 C 383 517 366 507 346 507 C 327 507 310 511 296 519 C 281 527 269 534 259 542 C 248 550 238 557 228 564 C 218 571 209 575 199 575 C 188 575 179 569 172 557 C 164 545 160 530 160 511 L 104 511 C 104 555 112 587 130 609 C 147 631 165 642 185 642 C 201 642 216 638 228 630 C 240 622 252 613 265 604 C 274 596 284 589 294 582 C 304 574 314 571 324 571 C 333 571 341 577 348 589 C 355 601 359 617 359 638 Z" unicode="ũ" />
<glyph horiz-adv-x="737" d="M 90 0 L 90 0 Z M 647 730 L 647 266 C 647 222 639 183 625 149 C 611 114 591 85 566 61 C 541 37 512 19 478 7 C 444 -5 407 -12 368 -12 C 329 -12 293 -6 259 6 C 225 18 195 35 170 59 C 145 83 125 112 111 147 C 97 181 90 221 90 266 L 90 730 L 168 730 L 168 257 C 168 228 173 202 183 178 C 193 154 208 133 226 116 C 244 99 265 86 289 76 C 313 66 338 62 366 62 C 393 62 419 66 444 75 C 469 84 491 97 509 114 C 527 131 542 152 553 176 C 563 200 569 227 569 257 L 569 730 L 647 730 Z M 368 821 L 368 821 Z M 495 821 L 241 821 L 241 876 L 495 876 L 495 821 Z" unicode="Ū" />
<glyph horiz-adv-x="520" d="M 62 0 L 62 0 Z M 62 436 L 135 436 L 135 153 C 135 120 145 94 165 76 C 185 58 213 49 248 49 C 282 49 313 60 340 82 C 366 104 380 137 380 183 L 380 436 L 453 436 L 453 0 L 381 0 L 381 91 C 369 61 348 36 319 18 C 290 0 256 -10 218 -10 C 172 -10 135 3 106 31 C 76 58 62 96 62 144 L 62 436 Z M 257 527 L 257 527 Z M 384 527 L 130 527 L 130 582 L 384 582 L 384 527 Z" unicode="ū" />
<glyph horiz-adv-x="737" d="M 90 0 L 90 0 Z M 647 730 L 647 266 C 647 222 639 183 625 149 C 611 114 591 85 566 61 C 541 37 512 19 478 7 C 444 -5 407 -12 368 -12 C 329 -12 293 -6 259 6 C 225 18 195 35 170 59 C 145 83 125 112 111 147 C 97 181 90 221 90 266 L 90 730 L 168 730 L 168 257 C 168 228 173 202 183 178 C 193 154 208 133 226 116 C 244 99 265 86 289 76 C 313 66 338 62 366 62 C 393 62 419 66 444 75 C 469 84 491 97 509 114 C 527 131 542 152 553 176 C 563 200 569 227 569 257 L 569 730 L 647 730 Z M 368 799 L 368 799 Z M 457 956 L 520 956 C 516 901 500 861 472 836 C 444 811 409 799 368 799 C 326 799 292 811 264 836 C 236 861 220 901 216 956 L 279 956 C 281 922 289 895 303 873 C 317 851 338 841 368 841 C 397 841 419 851 433 872 C 447 892 455 920 457 956 Z" unicode="Ŭ" />
<glyph horiz-adv-x="520" d="M 62 0 L 62 0 Z M 62 436 L 135 436 L 135 153 C 135 120 145 94 165 76 C 185 58 213 49 248 49 C 282 49 313 60 340 82 C 366 104 380 137 380 183 L 380 436 L 453 436 L 453 0 L 381 0 L 381 91 C 369 61 348 36 319 18 C 290 0 256 -10 218 -10 C 172 -10 135 3 106 31 C 76 58 62 96 62 144 L 62 436 Z M 257 505 L 257 505 Z M 346 662 L 409 662 C 405 607 389 567 361 542 C 333 517 298 505 257 505 C 215 505 181 517 153 542 C 125 567 109 607 105 662 L 168 662 C 170 628 178 601 192 579 C 206 557 227 547 257 547 C 286 547 308 557 322 578 C 336 598 344 626 346 662 Z" unicode="ŭ" />
<glyph horiz-adv-x="737" d="M 90 0 L 90 0 Z M 647 730 L 647 266 C 647 222 639 183 625 149 C 611 114 591 85 566 61 C 541 37 512 19 478 7 C 444 -5 407 -12 368 -12 C 329 -12 293 -6 259 6 C 225 18 195 35 170 59 C 145 83 125 112 111 147 C 97 181 90 221 90 266 L 90 730 L 168 730 L 168 257 C 168 228 173 202 183 178 C 193 154 208 133 226 116 C 244 99 265 86 289 76 C 313 66 338 62 366 62 C 393 62 419 66 444 75 C 469 84 491 97 509 114 C 527 131 542 152 553 176 C 563 200 569 227 569 257 L 569 730 L 647 730 Z M 368 790 L 368 790 Z M 368 790 C 337 790 311 801 289 823 C 267 845 257 871 257 902 C 257 932 267 958 289 980 C 311 1002 337 1013 368 1013 C 399 1013 425 1002 447 980 C 469 958 480 932 480 902 C 480 871 469 845 447 823 C 425 801 399 790 368 790 Z M 368 834 C 386 834 402 840 415 854 C 427 867 434 883 434 902 C 434 920 427 936 415 949 C 402 962 386 969 368 969 C 349 969 333 962 321 949 C 308 936 302 920 302 902 C 302 883 308 867 321 854 C 333 840 349 834 368 834 Z" unicode="Ů" />
<glyph horiz-adv-x="520" d="M 62 0 L 62 0 Z M 62 436 L 135 436 L 135 153 C 135 120 145 94 165 76 C 185 58 213 49 248 49 C 282 49 313 60 340 82 C 366 104 380 137 380 183 L 380 436 L 453 436 L 453 0 L 381 0 L 381 91 C 369 61 348 36 319 18 C 290 0 256 -10 218 -10 C 172 -10 135 3 106 31 C 76 58 62 96 62 144 L 62 436 Z M 257 496 L 257 496 Z M 257 496 C 226 496 200 507 178 529 C 156 551 146 577 146 608 C 146 638 156 664 178 686 C 200 708 226 719 257 719 C 288 719 314 708 336 686 C 358 664 369 638 369 608 C 369 577 358 551 336 529 C 314 507 288 496 257 496 Z M 257 540 C 275 540 291 546 304 560 C 316 573 323 589 323 608 C 323 626 316 642 304 655 C 291 668 275 675 257 675 C 238 675 222 668 210 655 C 197 642 191 626 191 608 C 191 589 197 573 210 560 C 222 546 238 540 257 540 Z" unicode="ů" />
<glyph horiz-adv-x="737" d="M 90 0 L 90 0 Z M 647 730 L 647 266 C 647 222 639 183 625 149 C 611 114 591 85 566 61 C 541 37 512 19 478 7 C 444 -5 407 -12 368 -12 C 329 -12 293 -6 259 6 C 225 18 195 35 170 59 C 145 83 125 112 111 147 C 97 181 90 221 90 266 L 90 730 L 168 730 L 168 257 C 168 228 173 202 183 178 C 193 154 208 133 226 116 C 244 99 265 86 289 76 C 313 66 338 62 366 62 C 393 62 419 66 444 75 C 469 84 491 97 509 114 C 527 131 542 152 553 176 C 563 200 569 227 569 257 L 569 730 L 647 730 Z M 368 792 L 368 792 Z M 193 792 L 287 942 L 367 942 L 260 792 L 193 792 Z M 369 792 L 464 942 L 543 942 L 436 792 L 369 792 Z" unicode="Ű" />
<glyph horiz-adv-x="520" d="M 62 0 L 62 0 Z M 62 436 L 135 436 L 135 153 C 135 120 145 94 165 76 C 185 58 213 49 248 49 C 282 49 313 60 340 82 C 366 104 380 137 380 183 L 380 436 L 453 436 L 453 0 L 381 0 L 381 91 C 369 61 348 36 319 18 C 290 0 256 -10 218 -10 C 172 -10 135 3 106 31 C 76 58 62 96 62 144 L 62 436 Z M 257 498 L 257 498 Z M 82 498 L 176 648 L 256 648 L 149 498 L 82 498 Z M 258 498 L 353 648 L 432 648 L 325 498 L 258 498 Z" unicode="ű" />
<glyph horiz-adv-x="737" d="M 90 0 L 90 0 Z M 647 730 L 647 266 C 647 222 639 183 625 149 C 611 114 591 85 566 61 C 541 37 512 19 478 7 C 444 -5 407 -12 368 -12 C 329 -12 293 -6 259 6 C 225 18 195 35 170 59 C 145 83 125 112 111 147 C 97 181 90 221 90 266 L 90 730 L 168 730 L 168 257 C 168 228 173 202 183 178 C 193 154 208 133 226 116 C 244 99 265 86 289 76 C 313 66 338 62 366 62 C 393 62 419 66 444 75 C 469 84 491 97 509 114 C 527 131 542 152 553 176 C 563 200 569 227 569 257 L 569 730 L 647 730 Z M 424 -9 L 424 -9 Z M 532 -105 L 553 -136 C 534 -155 512 -170 487 -181 C 461 -191 433 -197 403 -197 C 369 -197 343 -189 323 -175 C 303 -160 294 -142 294 -120 C 294 -95 306 -72 332 -51 C 357 -29 393 -11 439 5 L 466 4 C 433 -10 407 -26 387 -42 C 367 -58 358 -74 358 -91 C 358 -107 364 -119 377 -128 C 390 -136 406 -141 426 -141 C 448 -141 469 -137 487 -131 C 505 -124 520 -115 532 -105 Z" unicode="Ų" />
<glyph horiz-adv-x="520" d="M 62 0 L 62 0 Z M 62 436 L 135 436 L 135 153 C 135 120 145 94 165 76 C 185 58 213 49 248 49 C 282 49 313 60 340 82 C 366 104 380 137 380 183 L 380 436 L 453 436 L 453 0 L 381 0 L 381 91 C 369 61 348 36 319 18 C 290 0 256 -10 218 -10 C 172 -10 135 3 106 31 C 76 58 62 96 62 144 L 62 436 Z M 375 -9 L 375 -9 Z M 483 -105 L 504 -136 C 485 -155 463 -170 438 -181 C 412 -191 384 -197 354 -197 C 320 -197 294 -189 274 -175 C 254 -160 245 -142 245 -120 C 245 -95 257 -72 283 -51 C 308 -29 344 -11 390 5 L 417 4 C 384 -10 358 -26 338 -42 C 318 -58 309 -74 309 -91 C 309 -107 315 -119 328 -128 C 341 -136 357 -141 377 -141 C 399 -141 420 -137 438 -131 C 456 -124 471 -115 483 -105 Z" unicode="ų" />
<glyph horiz-adv-x="919" d="M 8 0 L 8 0 Z M 912 730 L 687 -9 L 643 -9 L 461 584 L 272 -9 L 229 -9 L 8 730 L 87 730 L 255 153 L 442 730 L 486 730 L 667 153 L 837 730 L 912 730 Z M 464 793 L 464 793 Z M 625 793 L 555 793 L 464 911 L 371 793 L 303 793 L 426 964 L 502 964 L 625 793 Z" unicode="Ŵ" />
<glyph horiz-adv-x="663" d="M 8 0 L 8 0 Z M 457 -3 L 334 301 L 206 -3 L 164 -3 L 8 436 L 85 436 L 194 107 L 316 401 L 357 401 L 475 107 L 585 436 L 655 436 L 499 -3 L 457 -3 Z M 333 499 L 333 499 Z M 494 499 L 424 499 L 333 617 L 240 499 L 172 499 L 295 670 L 371 670 L 494 499 Z" unicode="ŵ" />
<glyph horiz-adv-x="605" d="M 3 0 L 3 0 Z M 636 730 L 357 329 L 357 0 L 277 0 L 277 332 L 3 730 L 93 730 L 321 403 L 549 730 L 636 730 Z M 319 793 L 319 793 Z M 480 793 L 410 793 L 319 911 L 226 793 L 158 793 L 281 964 L 357 964 L 480 793 Z" unicode="Ŷ" />
<glyph horiz-adv-x="464" d="M 0 0 L 0 0 Z M 462 436 L 207 -91 C 185 -137 161 -166 135 -180 C 109 -193 86 -200 65 -200 C 52 -200 41 -198 31 -196 C 21 -193 13 -191 9 -190 L 29 -121 C 31 -122 36 -124 44 -126 C 52 -128 59 -130 67 -130 C 82 -130 96 -124 110 -114 C 123 -104 137 -84 152 -56 L 193 29 L -1 436 L 80 436 L 231 100 L 386 436 L 462 436 Z M 233 499 L 233 499 Z M 394 499 L 324 499 L 233 617 L 140 499 L 72 499 L 195 670 L 271 670 L 394 499 Z" unicode="ŷ" />
<glyph horiz-adv-x="639" d="M 3 0 L 3 0 Z M 636 730 L 357 329 L 357 0 L 277 0 L 277 332 L 3 730 L 93 730 L 321 403 L 549 730 L 636 730 Z M 319 794 L 319 794 Z M 439 794 L 376 794 L 376 950 L 439 950 L 439 794 Z M 258 794 L 195 794 L 195 950 L 258 950 L 258 794 Z" unicode="Ÿ" />
<glyph horiz-adv-x="560" d="M 17 0 L 17 0 Z M 546 730 L 546 696 L 128 72 L 560 72 L 560 0 L 17 0 L 17 32 L 432 658 L 53 658 L 53 730 L 546 730 Z M 294 792 L 294 792 Z M 198 792 L 304 957 L 392 957 L 272 792 L 198 792 Z" unicode="Ź" />
<glyph horiz-adv-x="381" d="M 12 0 L 12 0 Z M 362 436 L 362 401 L 123 65 L 368 65 L 368 0 L 12 0 L 12 22 L 257 371 L 26 371 L 26 436 L 362 436 Z M 195 498 L 195 498 Z M 99 498 L 205 663 L 293 663 L 173 498 L 99 498 Z" unicode="ź" />
<glyph horiz-adv-x="560" d="M 17 0 L 17 0 Z M 546 730 L 546 696 L 128 72 L 560 72 L 560 0 L 17 0 L 17 32 L 432 658 L 53 658 L 53 730 L 546 730 Z M 294 794 L 294 794 Z M 329 794 L 260 794 L 260 957 L 329 957 L 329 794 Z" unicode="Ż" />
<glyph horiz-adv-x="381" d="M 12 0 L 12 0 Z M 362 436 L 362 401 L 123 65 L 368 65 L 368 0 L 12 0 L 12 22 L 257 371 L 26 371 L 26 436 L 362 436 Z M 195 500 L 195 500 Z M 230 500 L 161 500 L 161 663 L 230 663 L 230 500 Z" unicode="ż" />
<glyph horiz-adv-x="586" d="M 17 0 L 17 0 Z M 546 730 L 546 696 L 128 72 L 560 72 L 560 0 L 17 0 L 17 32 L 432 658 L 53 658 L 53 730 L 546 730 Z M 294 793 L 294 793 Z M 133 964 L 203 964 L 295 846 L 387 964 L 455 964 L 332 793 L 256 793 L 133 964 Z" unicode="Ž" />
<glyph horiz-adv-x="381" d="M 12 0 L 12 0 Z M 362 436 L 362 401 L 123 65 L 368 65 L 368 0 L 12 0 L 12 22 L 257 371 L 26 371 L 26 436 L 362 436 Z M 195 499 L 195 499 Z M 34 670 L 104 670 L 196 552 L 288 670 L 356 670 L 233 499 L 157 499 L 34 670 Z" unicode="ž" />
<glyph horiz-adv-x="348" d="M 173 -65 C 170 -97 157 -124 134 -146 C 111 -168 83 -179 51 -179 C 34 -179 18 -177 4 -175 C -10 -173 -21 -170 -29 -167 L -22 -113 C -17 -113 -10 -114 0 -116 C 9 -118 18 -119 27 -119 C 47 -119 65 -112 79 -98 C 93 -84 102 -64 105 -39 L 138 336 L 47 336 L 47 400 L 144 400 L 165 633 C 166 650 170 665 178 679 C 186 692 195 703 206 712 C 216 720 228 727 241 732 C 254 736 267 739 279 739 C 291 739 303 738 314 737 C 325 736 332 735 335 735 L 329 670 C 327 670 323 671 317 672 C 311 672 305 673 299 673 C 280 673 264 666 252 654 C 240 641 232 621 230 595 L 213 400 L 319 400 L 319 336 L 208 336 L 173 -65 Z" unicode="ƒ" />
<glyph horiz-adv-x="497" d="M 27 0 L 27 0 Z M 260 -12 C 210 -12 166 -4 126 12 C 86 28 53 50 27 79 L 73 141 C 93 115 120 96 154 82 C 188 68 222 61 256 61 C 295 61 328 72 354 94 C 380 116 393 146 393 182 C 393 212 381 239 359 263 C 337 286 298 310 244 334 C 182 360 135 390 101 423 C 67 456 50 503 50 563 C 50 615 68 657 104 691 C 140 725 187 742 247 742 C 286 742 322 735 354 723 C 386 711 415 694 442 672 L 403 608 C 381 626 358 641 333 652 C 307 663 281 669 253 669 C 213 669 182 658 160 637 C 138 615 127 590 127 561 C 127 527 138 499 160 478 C 182 456 225 432 289 405 C 355 376 402 344 429 310 C 456 276 470 233 470 183 C 470 153 464 125 453 101 C 441 77 426 56 407 40 C 388 23 366 10 340 1 C 314 -7 288 -12 260 -12 Z M 233 -75 L 233 -75 Z M 321 -75 C 314 -117 299 -161 277 -206 C 254 -250 228 -287 200 -315 L 145 -289 C 161 -270 179 -240 200 -200 C 220 -160 235 -118 243 -75 L 321 -75 Z" unicode="Ș" />
<glyph horiz-adv-x="379" d="M 30 0 L 30 0 Z M 200 -12 C 160 -12 127 -6 99 3 C 71 13 48 28 30 46 L 68 97 C 82 83 101 71 123 63 C 145 55 171 51 199 51 C 221 51 240 56 256 68 C 271 80 279 96 279 117 C 279 133 271 148 255 160 C 239 172 211 184 173 196 C 128 208 95 225 73 245 C 51 265 41 292 41 325 C 41 361 55 391 83 414 C 111 436 147 448 189 448 C 221 448 249 443 274 433 C 299 423 319 413 333 401 L 297 352 C 285 360 270 368 251 376 C 231 384 210 388 188 388 C 168 388 150 383 134 375 C 117 366 109 353 109 336 C 109 321 114 309 124 299 C 134 289 160 278 201 266 C 251 250 287 231 311 211 C 335 190 347 161 347 124 C 347 82 333 48 305 24 C 277 0 242 -12 200 -12 Z M 179 -75 L 179 -75 Z M 267 -75 C 260 -117 245 -161 223 -206 C 200 -250 174 -287 146 -315 L 91 -289 C 107 -270 125 -240 146 -200 C 166 -160 181 -118 189 -75 L 267 -75 Z" unicode="ș" />
<glyph horiz-adv-x="523" d="M 10 0 L 10 0 Z M 513 658 L 299 658 L 299 0 L 219 0 L 219 658 L 10 658 L 10 730 L 513 730 L 513 658 Z M 233 -72 L 233 -72 Z M 321 -72 C 314 -114 299 -158 277 -203 C 254 -247 228 -284 200 -312 L 145 -286 C 161 -267 179 -237 200 -197 C 220 -157 235 -115 243 -72 L 321 -72 Z" unicode="Ț" />
<glyph horiz-adv-x="246" d="M 9 0 L 9 0 Z M 235 60 L 235 -2 C 233 -3 227 -4 219 -5 C 210 -5 201 -6 192 -6 C 178 -6 163 -4 149 -1 C 135 1 122 6 111 14 C 99 22 90 32 83 46 C 76 59 73 76 73 97 L 73 370 L 9 370 L 9 436 L 73 436 L 73 533 L 146 543 L 146 436 L 231 436 L 231 370 L 146 370 L 146 111 C 146 90 151 76 163 68 C 174 60 189 57 208 57 C 211 57 216 57 223 58 C 230 58 234 59 235 60 Z M 121 -72 L 121 -72 Z M 209 -72 C 202 -114 187 -158 165 -203 C 142 -247 116 -284 88 -312 L 33 -286 C 49 -267 67 -237 88 -197 C 108 -157 123 -115 131 -72 L 209 -72 Z" unicode="ț" />
<glyph horiz-adv-x="209" d="M 142 436 L 142 -72 C 142 -108 130 -139 107 -165 C 84 -190 55 -202 19 -202 C 12 -202 3 -201 -7 -200 C -17 -198 -25 -197 -31 -196 L -28 -135 C -25 -135 -20 -136 -14 -137 C -8 -137 -2 -138 3 -138 C 19 -138 34 -131 48 -119 C 62 -106 69 -87 69 -62 L 69 436 L 142 436 Z" unicode="ȷ" />
<glyph horiz-adv-x="500" d="M 411 499 L 341 499 L 250 617 L 157 499 L 89 499 L 212 670 L 288 670 L 411 499 Z" unicode="ˆ" />
<glyph horiz-adv-x="500" d="M 89 670 L 159 670 L 251 552 L 343 670 L 411 670 L 288 499 L 212 499 L 89 670 Z" unicode="ˇ" />
<glyph horiz-adv-x="500" d="M 339 662 L 402 662 C 398 607 382 567 354 542 C 326 517 291 505 250 505 C 208 505 174 517 146 542 C 118 567 102 607 98 662 L 161 662 C 163 628 171 601 185 579 C 199 557 220 547 250 547 C 279 547 301 557 315 578 C 329 598 337 626 339 662 Z" unicode="˘" />
<glyph horiz-adv-x="500" d="M 285 500 L 216 500 L 216 663 L 285 663 L 285 500 Z" unicode="˙" />
<glyph horiz-adv-x="500" d="M 250 496 C 219 496 193 507 171 529 C 149 551 139 577 139 608 C 139 638 149 664 171 686 C 193 708 219 719 250 719 C 281 719 307 708 329 686 C 351 664 362 638 362 608 C 362 577 351 551 329 529 C 307 507 281 496 250 496 Z M 250 540 C 268 540 284 546 297 560 C 309 573 316 589 316 608 C 316 626 309 642 297 655 C 284 668 268 675 250 675 C 231 675 215 668 203 655 C 190 642 184 626 184 608 C 184 589 190 573 203 560 C 215 546 231 540 250 540 Z" unicode="˚" />
<glyph horiz-adv-x="500" d="M 363 -96 L 384 -127 C 365 -146 343 -161 318 -172 C 292 -182 264 -188 234 -188 C 200 -188 174 -180 154 -166 C 134 -151 125 -133 125 -111 C 125 -86 137 -63 163 -42 C 188 -20 224 -2 270 14 L 297 13 C 264 -1 238 -17 218 -33 C 198 -49 189 -65 189 -82 C 189 -98 195 -110 208 -119 C 221 -127 237 -132 257 -132 C 279 -132 300 -128 318 -122 C 336 -115 351 -106 363 -96 Z" unicode="˛" />
<glyph horiz-adv-x="500" d="M 352 638 L 408 638 C 408 593 401 560 389 539 C 376 517 359 507 339 507 C 320 507 303 511 289 519 C 274 527 262 534 252 542 C 241 550 231 557 221 564 C 211 571 202 575 192 575 C 181 575 172 569 165 557 C 157 545 153 530 153 511 L 97 511 C 97 555 105 587 123 609 C 140 631 158 642 178 642 C 194 642 209 638 221 630 C 233 622 245 613 258 604 C 267 596 277 589 287 582 C 297 574 307 571 317 571 C 326 571 334 577 341 589 C 348 601 352 617 352 638 Z" unicode="˜" />
<glyph horiz-adv-x="500" d="M 85 498 L 179 648 L 259 648 L 152 498 L 85 498 Z M 261 498 L 356 648 L 435 648 L 328 498 L 261 498 Z" unicode="˝" />
<glyph horiz-adv-x="0" d="M 0 498 L 0 498 Z M 98 498 L 22 498 L -97 663 L -10 663 L 98 498 Z" unicode="̀" />
<glyph horiz-adv-x="0" d="M 0 498 L 0 498 Z M -96 498 L 10 663 L 98 663 L -22 498 L -96 498 Z" unicode="́" />
<glyph horiz-adv-x="0" d="M 0 499 L 0 499 Z M 161 499 L 91 499 L 0 617 L -93 499 L -161 499 L -38 670 L 38 670 L 161 499 Z" unicode="̂" />
<glyph horiz-adv-x="0" d="M 0 507 L 0 507 Z M 102 638 L 158 638 C 158 593 151 560 139 539 C 126 517 109 507 89 507 C 70 507 53 511 39 519 C 24 527 12 534 2 542 C -8 550 -18 557 -28 564 C -38 571 -48 575 -58 575 C -68 575 -77 569 -85 557 C -92 545 -96 530 -97 511 L -153 511 C -153 555 -144 587 -127 609 C -109 631 -91 642 -72 642 C -55 642 -41 638 -29 630 C -17 622 -4 613 8 604 C 17 596 27 589 37 582 C 47 574 57 571 67 571 C 76 571 84 577 91 589 C 98 601 102 617 102 638 Z" unicode="̃" />
<glyph horiz-adv-x="0" d="M 0 527 L 0 527 Z M 127 527 L -127 527 L -127 582 L 127 582 L 127 527 Z" unicode="̄" />
<glyph horiz-adv-x="0" d="M 0 505 L 0 505 Z M 89 662 L 152 662 C 148 607 132 567 104 542 C 76 517 41 505 0 505 C -41 505 -76 517 -104 542 C -132 567 -148 607 -152 662 L -89 662 C -87 628 -79 601 -65 579 C -51 557 -29 547 0 547 C 29 547 51 557 65 578 C 79 598 87 626 89 662 Z" unicode="̆" />
<glyph horiz-adv-x="0" d="M 0 500 L 0 500 Z M 35 500 L -34 500 L -34 663 L 35 663 L 35 500 Z" unicode="̇" />
<glyph horiz-adv-x="0" d="M 0 500 L 0 500 Z M 120 500 L 57 500 L 57 656 L 120 656 L 120 500 Z M -61 500 L -124 500 L -124 656 L -61 656 L -61 500 Z" unicode="̈" />
<glyph horiz-adv-x="0" d="M 0 496 L 0 496 Z M 0 496 C -30 496 -56 507 -78 529 C -100 551 -111 577 -111 608 C -111 638 -100 664 -78 686 C -56 708 -30 719 0 719 C 31 719 57 708 79 686 C 101 664 112 638 112 608 C 112 577 101 551 79 529 C 57 507 31 496 0 496 Z M 0 540 C 18 540 34 546 47 560 C 59 573 66 589 66 608 C 66 626 59 642 47 655 C 34 668 18 675 0 675 C -18 675 -34 668 -47 655 C -59 642 -66 626 -66 608 C -66 589 -59 573 -47 560 C -34 546 -18 540 0 540 Z" unicode="̊" />
<glyph horiz-adv-x="0" d="M 0 498 L 0 498 Z M -175 498 L -81 648 L -1 648 L -108 498 L -175 498 Z M 1 498 L 96 648 L 175 648 L 68 498 L 1 498 Z" unicode="̋" />
<glyph horiz-adv-x="0" d="M 0 499 L 0 499 Z M -161 670 L -91 670 L 1 552 L 93 670 L 161 670 L 38 499 L -38 499 L -161 670 Z" unicode="̌" />
<glyph horiz-adv-x="0" d="M 0 -72 L 0 -72 Z M 88 -72 C 81 -114 66 -158 44 -203 C 21 -247 -4 -284 -33 -312 L -88 -286 C -72 -267 -53 -237 -33 -197 C -12 -157 2 -115 10 -72 L 88 -72 Z" unicode="̦" />
<glyph horiz-adv-x="0" d="M 0 0 L 0 0 Z M 9 -186 C -14 -186 -38 -183 -62 -177 C -86 -171 -106 -163 -120 -154 L -111 -119 C -100 -125 -86 -131 -70 -137 C -53 -143 -34 -146 -14 -146 C 2 -146 17 -142 30 -134 C 42 -126 49 -117 49 -105 C 49 -90 43 -80 32 -74 C 20 -68 8 -66 -4 -66 C -12 -66 -20 -66 -26 -68 C -32 -69 -40 -71 -48 -74 L -62 -60 L -2 10 L 45 10 L -5 -52 C 29 -43 59 -45 84 -58 C 108 -70 121 -89 121 -113 C 121 -137 109 -156 87 -168 C 65 -180 39 -186 9 -186 Z" unicode="̧" />
<glyph horiz-adv-x="0" d="M 0 0 L 0 0 Z M 108 -96 L 129 -127 C 110 -146 88 -161 63 -172 C 37 -182 9 -188 -21 -188 C -54 -188 -80 -180 -100 -166 C -120 -151 -130 -133 -130 -111 C -130 -86 -117 -63 -92 -42 C -66 -20 -31 -2 15 14 L 42 13 C 9 -1 -16 -17 -36 -33 C -56 -49 -66 -65 -66 -82 C -66 -98 -59 -110 -46 -119 C -33 -127 -17 -132 2 -132 C 24 -132 45 -128 63 -122 C 81 -115 96 -106 108 -96 Z" unicode="̨" />
<glyph horiz-adv-x="563" d="M 2 0 L 2 0 Z M 638 0 L 2 0 L 307 730 L 334 730 L 638 0 Z M 533 63 L 318 585 L 103 63 L 533 63 Z" unicode="Δ" />
<glyph horiz-adv-x="724" d="M 49 0 L 49 0 Z M 58 0 L 58 69 L 268 69 L 268 150 C 200 178 147 219 108 272 C 68 325 49 382 49 443 C 49 485 57 524 73 561 C 89 598 111 630 140 657 C 168 684 203 705 244 721 C 285 737 330 745 380 745 C 432 745 479 737 521 721 C 563 705 598 683 628 656 C 657 629 679 597 695 560 C 711 523 719 484 719 442 C 719 381 700 324 663 272 C 625 219 571 178 500 150 L 500 69 L 709 69 L 709 0 L 432 0 L 432 186 C 495 210 545 246 582 292 C 619 338 638 387 638 439 C 638 474 631 507 618 537 C 605 567 587 592 565 614 C 542 636 515 653 483 665 C 451 677 417 683 381 683 C 345 683 311 676 280 664 C 249 652 223 635 201 614 C 179 592 161 566 149 536 C 136 506 130 473 130 437 C 130 386 148 338 185 292 C 221 246 272 211 336 186 L 336 0 L 58 0 Z" unicode="Ω" />
<glyph horiz-adv-x="593" d="M 75 0 L 75 0 Z M 75 -112 L 75 436 L 148 436 L 148 153 C 148 120 158 94 179 76 C 199 58 227 49 261 49 C 296 49 327 60 353 82 C 379 104 393 137 393 183 L 393 436 L 466 436 L 466 0 L 399 0 L 399 101 C 388 70 369 44 343 23 C 316 2 284 -8 248 -9 C 222 -9 199 -3 181 7 C 163 17 150 32 143 52 L 143 -112 L 75 -112 Z" unicode="μ" />
<glyph horiz-adv-x="616" d="M 170 451 L 170 0 L 97 0 L 97 451 L 15 451 L 15 509 L 601 509 L 601 451 L 514 451 L 514 0 L 440 0 L 440 451 L 170 451 Z" unicode="π" />
<glyph horiz-adv-x="919" d="M 8 0 L 8 0 Z M 912 730 L 687 -9 L 643 -9 L 461 584 L 272 -9 L 229 -9 L 8 730 L 87 730 L 255 153 L 442 730 L 486 730 L 667 153 L 837 730 L 912 730 Z M 464 792 L 464 792 Z M 562 792 L 486 792 L 367 957 L 454 957 L 562 792 Z" unicode="Ẁ" />
<glyph horiz-adv-x="663" d="M 8 0 L 8 0 Z M 457 -3 L 334 301 L 206 -3 L 164 -3 L 8 436 L 85 436 L 194 107 L 316 401 L 357 401 L 475 107 L 585 436 L 655 436 L 499 -3 L 457 -3 Z M 333 498 L 333 498 Z M 431 498 L 355 498 L 236 663 L 323 663 L 431 498 Z" unicode="ẁ" />
<glyph horiz-adv-x="919" d="M 8 0 L 8 0 Z M 912 730 L 687 -9 L 643 -9 L 461 584 L 272 -9 L 229 -9 L 8 730 L 87 730 L 255 153 L 442 730 L 486 730 L 667 153 L 837 730 L 912 730 Z M 464 792 L 464 792 Z M 368 792 L 474 957 L 562 957 L 442 792 L 368 792 Z" unicode="Ẃ" />
<glyph horiz-adv-x="663" d="M 8 0 L 8 0 Z M 457 -3 L 334 301 L 206 -3 L 164 -3 L 8 436 L 85 436 L 194 107 L 316 401 L 357 401 L 475 107 L 585 436 L 655 436 L 499 -3 L 457 -3 Z M 333 498 L 333 498 Z M 237 498 L 343 663 L 431 663 L 311 498 L 237 498 Z" unicode="ẃ" />
<glyph horiz-adv-x="919" d="M 8 0 L 8 0 Z M 912 730 L 687 -9 L 643 -9 L 461 584 L 272 -9 L 229 -9 L 8 730 L 87 730 L 255 153 L 442 730 L 486 730 L 667 153 L 837 730 L 912 730 Z M 464 794 L 464 794 Z M 584 794 L 521 794 L 521 950 L 584 950 L 584 794 Z M 403 794 L 340 794 L 340 950 L 403 950 L 403 794 Z" unicode="Ẅ" />
<glyph horiz-adv-x="663" d="M 8 0 L 8 0 Z M 457 -3 L 334 301 L 206 -3 L 164 -3 L 8 436 L 85 436 L 194 107 L 316 401 L 357 401 L 475 107 L 585 436 L 655 436 L 499 -3 L 457 -3 Z M 333 500 L 333 500 Z M 453 500 L 390 500 L 390 656 L 453 656 L 453 500 Z M 272 500 L 209 500 L 209 656 L 272 656 L 272 500 Z" unicode="ẅ" />
<glyph horiz-adv-x="605" d="M 3 0 L 3 0 Z M 636 730 L 357 329 L 357 0 L 277 0 L 277 332 L 3 730 L 93 730 L 321 403 L 549 730 L 636 730 Z M 319 792 L 319 792 Z M 417 792 L 341 792 L 222 957 L 309 957 L 417 792 Z" unicode="Ỳ" />
<glyph horiz-adv-x="464" d="M 0 0 L 0 0 Z M 462 436 L 207 -91 C 185 -137 161 -166 135 -180 C 109 -193 86 -200 65 -200 C 52 -200 41 -198 31 -196 C 21 -193 13 -191 9 -190 L 29 -121 C 31 -122 36 -124 44 -126 C 52 -128 59 -130 67 -130 C 82 -130 96 -124 110 -114 C 123 -104 137 -84 152 -56 L 193 29 L -1 436 L 80 436 L 231 100 L 386 436 L 462 436 Z M 233 498 L 233 498 Z M 331 498 L 255 498 L 136 663 L 223 663 L 331 498 Z" unicode="ỳ" />
<glyph horiz-adv-x="460" d="M 419 230 L 42 230 L 42 295 L 419 295 L 419 230 Z" unicode="–" />
<glyph horiz-adv-x="645" d="M 604 230 L 42 230 L 42 295 L 604 295 L 604 230 Z" unicode="—" />
<glyph horiz-adv-x="254" d="M 35 507 L 35 514 C 35 550 46 589 70 629 C 93 669 124 705 164 737 L 237 731 C 227 725 215 715 201 701 C 187 687 173 670 161 651 C 148 631 137 610 128 587 C 119 563 115 539 115 515 L 115 507 L 35 507 Z" unicode="‘" />
<glyph horiz-adv-x="254" d="M 219 737 L 219 730 C 219 693 207 655 183 616 C 159 577 128 541 90 507 L 17 513 C 27 521 39 532 53 546 C 67 560 80 577 93 596 C 105 614 116 635 125 658 C 134 680 139 704 139 729 L 139 737 L 219 737 Z" unicode="’" />
<glyph horiz-adv-x="254" d="M 219 110 L 219 103 C 219 66 207 28 183 -10 C 159 -49 128 -86 90 -120 L 17 -114 C 27 -106 39 -94 53 -80 C 67 -66 80 -49 93 -31 C 105 -12 116 8 125 31 C 134 53 139 77 139 102 L 139 110 L 219 110 Z" unicode="‚" />
<glyph horiz-adv-x="425" d="M 216 507 L 216 514 C 216 550 226 587 247 625 C 267 663 298 700 338 737 L 409 731 C 399 722 387 710 374 696 C 360 682 347 665 335 647 C 323 628 312 607 304 585 C 295 563 291 539 291 515 L 291 507 L 216 507 Z M 35 507 L 35 514 C 35 550 46 587 68 625 C 90 663 119 700 157 737 L 227 731 C 218 723 207 711 194 697 C 180 683 167 666 155 648 C 143 629 132 608 123 586 C 114 563 110 539 110 515 L 110 507 L 35 507 Z" unicode="“" />
<glyph horiz-adv-x="425" d="M 209 737 L 209 730 C 209 693 199 656 179 618 C 159 580 129 543 87 507 L 17 513 C 28 522 40 534 54 549 C 68 563 80 580 92 598 C 104 616 114 637 122 659 C 130 681 134 704 134 729 L 134 737 L 209 737 Z M 391 737 L 391 730 C 391 693 380 655 359 617 C 338 579 308 542 268 507 L 198 513 C 210 523 222 535 236 549 C 250 563 262 580 274 598 C 286 616 295 637 303 659 C 311 681 315 704 315 729 L 315 737 L 391 737 Z" unicode="”" />
<glyph horiz-adv-x="425" d="M 209 113 L 209 106 C 209 69 199 32 179 -5 C 159 -43 129 -80 87 -117 L 17 -111 C 28 -101 40 -89 54 -75 C 68 -60 80 -43 92 -25 C 104 -7 114 13 122 35 C 130 57 134 80 134 105 L 134 113 L 209 113 Z M 391 113 L 391 106 C 391 69 380 31 359 -6 C 338 -44 308 -81 268 -117 L 198 -111 C 210 -101 222 -88 236 -74 C 250 -60 262 -43 274 -25 C 286 -7 295 13 303 35 C 311 57 315 80 315 105 L 315 113 L 391 113 Z" unicode="„" />
<glyph horiz-adv-x="565" d="M 540 397 L 318 397 L 318 -179 L 241 -179 L 241 397 L 25 397 L 25 470 L 241 470 L 241 730 L 318 730 L 318 470 L 540 470 L 540 397 Z" unicode="†" />
<glyph horiz-adv-x="565" d="M 242 -179 L 242 118 L 28 118 L 28 191 L 242 191 L 242 385 L 28 385 L 28 458 L 242 458 L 242 730 L 318 730 L 318 458 L 537 458 L 537 385 L 318 385 L 318 191 L 537 191 L 537 118 L 318 118 L 318 -179 L 242 -179 Z" unicode="‡" />
<glyph horiz-adv-x="382" d="M 191 450 C 211 450 227 443 241 429 C 255 415 262 399 262 379 C 262 359 255 343 241 329 C 227 315 211 309 191 309 C 171 309 154 315 141 329 C 127 343 121 359 121 379 C 121 399 127 415 141 429 C 154 443 171 450 191 450 Z" unicode="•" />
<glyph horiz-adv-x="681" d="M 76 0 L 76 115 L 152 115 L 152 0 L 76 0 Z M 303 0 L 303 115 L 379 115 L 379 0 L 303 0 Z M 529 0 L 529 115 L 605 115 L 605 0 L 529 0 Z" unicode="…" />
<glyph horiz-adv-x="1098" d="M 197 364 C 179 364 160 367 142 375 C 124 383 107 394 93 410 C 79 426 67 445 58 469 C 48 493 44 520 44 552 C 44 577 48 601 56 624 C 64 647 75 667 89 685 C 103 702 119 716 138 726 C 156 736 176 741 197 741 C 220 741 241 736 260 726 C 279 716 295 702 309 686 C 322 669 332 649 340 627 C 347 604 351 580 351 555 C 351 528 347 503 339 480 C 331 456 321 436 307 419 C 293 401 276 388 258 378 C 239 368 219 364 197 364 Z M 135 0 L 553 730 L 608 730 L 190 0 L 135 0 Z M 112 551 C 112 510 120 478 137 455 C 153 431 173 420 196 420 C 224 420 246 432 262 457 C 277 481 285 513 285 551 C 285 588 278 619 264 645 C 250 670 228 683 199 683 C 171 683 150 670 135 645 C 119 619 112 588 112 551 Z M 556 -3 C 538 -3 519 0 501 8 C 483 16 467 27 453 43 C 439 59 427 78 418 102 C 409 126 405 153 405 185 C 405 211 408 235 416 258 C 424 281 434 301 448 318 C 462 335 478 349 497 359 C 516 369 537 374 559 374 C 582 374 603 369 622 359 C 641 349 657 335 671 319 C 684 302 694 282 701 260 C 708 237 712 213 712 188 C 712 161 708 136 700 113 C 692 89 682 69 668 52 C 654 34 638 21 619 11 C 599 1 578 -3 556 -3 Z M 899 -3 C 881 -3 862 0 844 8 C 826 16 809 27 795 43 C 781 59 769 78 760 102 C 751 126 747 153 747 185 C 747 211 751 235 759 258 C 767 281 777 301 791 318 C 805 335 821 349 840 359 C 859 369 880 374 902 374 C 925 374 946 369 965 359 C 983 349 999 335 1013 319 C 1026 302 1036 282 1043 260 C 1050 237 1054 213 1054 188 C 1054 161 1050 136 1042 113 C 1034 89 1024 69 1010 52 C 996 34 980 21 961 11 C 942 1 921 -3 899 -3 Z M 557 55 C 585 55 607 67 623 91 C 638 115 646 146 646 185 C 646 223 638 254 624 279 C 609 304 587 317 559 317 C 533 317 512 304 496 279 C 480 254 473 223 473 185 C 473 143 481 110 498 88 C 514 66 534 55 557 55 Z M 900 55 C 928 55 949 67 965 91 C 981 115 989 146 989 185 C 989 223 981 254 967 279 C 952 304 930 317 902 317 C 875 317 854 304 838 279 C 822 254 815 223 815 185 C 815 143 823 110 840 88 C 857 66 877 55 900 55 Z" unicode="‰" />
<glyph horiz-adv-x="231" d="M 201 87 L 29 252 L 29 308 L 201 472 L 201 392 L 93 279 L 201 169 L 201 87 Z" unicode="‹" />
<glyph horiz-adv-x="232" d="M 30 472 L 203 306 L 203 251 L 30 87 L 30 166 L 138 280 L 30 389 L 30 472 Z" unicode="›" />
<glyph horiz-adv-x="145" d="M 300 730 L -80 0 L -145 0 L 235 730 L 300 730 Z" unicode="⁄" />
<glyph horiz-adv-x="325" d="M 15 458 L 15 503 L 207 739 L 250 739 L 250 507 L 314 507 L 314 458 L 250 458 L 250 373 L 188 373 L 188 458 L 15 458 Z M 67 498 L 190 498 L 190 653 L 67 498 Z" unicode="⁴" />
<glyph horiz-adv-x="568" d="M 564 117 C 543 79 513 48 474 24 C 434 0 391 -12 343 -12 C 281 -12 226 12 179 62 C 132 111 102 178 88 264 L 41 264 L 41 324 L 81 324 C 80 330 80 336 80 342 C 80 348 80 355 80 362 C 80 366 80 371 80 376 C 80 381 80 386 81 391 L 41 391 L 41 451 L 86 451 C 92 493 102 531 116 567 C 130 603 147 633 169 659 C 191 685 216 705 245 720 C 274 734 306 742 342 742 C 398 742 442 730 476 708 C 510 685 535 658 553 627 L 494 595 C 479 621 459 642 435 658 C 411 674 380 683 342 683 C 292 683 251 662 219 622 C 186 581 165 524 156 451 L 489 451 L 489 391 L 152 391 C 151 386 151 381 151 377 C 151 372 151 367 151 363 C 151 356 151 349 151 343 C 151 337 151 330 152 324 L 489 324 L 489 264 L 159 264 C 171 194 195 141 230 103 C 264 65 302 47 344 47 C 382 47 414 57 442 78 C 469 99 491 124 507 152 L 564 117 Z" unicode="€" />
<glyph horiz-adv-x="869" d="M 810 305 L 743 305 L 743 620 L 603 415 L 581 415 L 442 619 L 442 305 L 377 305 L 377 730 L 445 730 L 592 514 L 739 730 L 810 730 L 810 305 Z M 348 659 L 218 659 L 218 305 L 148 305 L 148 659 L 23 659 L 23 730 L 348 730 L 348 659 Z" unicode="™" />
<glyph horiz-adv-x="768" d="M 58 0 L 58 69 L 268 69 L 268 150 C 200 178 147 219 108 272 C 68 325 49 382 49 443 C 49 485 57 524 73 561 C 89 598 111 630 140 657 C 168 684 203 705 244 721 C 285 737 330 745 380 745 C 432 745 479 737 521 721 C 563 705 598 683 628 656 C 657 629 679 597 695 560 C 711 523 719 484 719 442 C 719 381 700 324 663 272 C 625 219 571 178 500 150 L 500 69 L 709 69 L 709 0 L 432 0 L 432 186 C 495 210 545 246 582 292 C 619 338 638 387 638 439 C 638 474 631 507 618 537 C 605 567 587 592 565 614 C 542 636 515 653 483 665 C 451 677 417 683 381 683 C 345 683 311 676 280 664 C 249 652 223 635 201 614 C 179 592 161 566 149 536 C 136 506 130 473 130 437 C 130 386 148 338 185 292 C 221 246 272 211 336 186 L 336 0 L 58 0 Z" unicode="Ω" />
<glyph horiz-adv-x="550" d="M 505 266 C 505 219 498 178 486 143 C 473 108 456 79 434 57 C 412 34 387 17 358 6 C 328 -5 297 -11 264 -11 C 234 -11 205 -5 177 5 C 149 15 124 30 102 50 C 80 70 63 94 50 122 C 36 150 30 181 30 216 C 30 247 35 277 47 305 C 59 333 75 358 95 380 C 115 402 140 419 168 432 C 196 444 226 451 258 451 C 302 451 340 439 372 417 C 404 395 428 367 442 335 C 436 410 423 474 402 528 C 380 581 355 624 325 658 C 295 692 263 717 228 733 C 193 749 160 758 129 759 L 164 802 C 196 802 233 792 273 774 C 313 755 350 725 384 683 C 418 641 446 585 470 517 C 493 448 505 364 505 266 Z M 266 42 C 314 42 353 59 383 93 C 413 127 429 172 429 228 C 429 251 425 273 417 294 C 409 314 399 332 385 347 C 371 362 353 374 333 383 C 313 392 290 397 265 397 C 219 397 182 380 152 346 C 122 312 107 270 107 220 C 107 164 122 121 152 89 C 182 57 220 42 266 42 Z" unicode="∂" />
<glyph horiz-adv-x="639" d="M 638 0 L 2 0 L 307 730 L 334 730 L 638 0 Z M 533 63 L 318 585 L 103 63 L 533 63 Z" unicode="∆" />
<glyph horiz-adv-x="700" d="M 213 663 L 213 0 L 137 0 L 137 663 L 15 663 L 15 730 L 685 730 L 685 663 L 568 663 L 568 0 L 491 0 L 491 663 L 213 663 Z" unicode="∏" />
<glyph horiz-adv-x="618" d="M 147 663 L 410 307 L 115 -112 L 572 -112 L 572 -179 L -9 -179 L 335 306 L 21 730 L 551 730 L 551 663 L 147 663 Z" unicode="∑" />
<glyph horiz-adv-x="511" d="M 470 301 L 42 301 L 42 361 L 470 361 L 470 301 Z" unicode="−" />
<glyph horiz-adv-x="510" d="M 498 730 L 198 0 L 186 0 L 15 326 L 69 364 L 201 103 L 450 730 L 498 730 Z" unicode="√" />
<glyph horiz-adv-x="331" d="M 110 -39 L 170 633 C 172 667 185 693 208 711 C 231 729 255 739 279 739 C 291 739 303 738 314 737 C 325 736 332 735 335 735 L 329 670 C 327 670 323 671 317 672 C 311 672 305 673 299 673 C 280 673 264 666 252 654 C 240 641 232 621 230 595 L 173 -65 C 170 -97 157 -124 134 -146 C 111 -168 83 -179 51 -179 C 34 -179 18 -177 4 -174 C -10 -170 -21 -167 -29 -163 L -21 -110 C -17 -111 -10 -113 0 -115 C 9 -117 18 -119 27 -119 C 47 -119 66 -112 82 -98 C 98 -84 107 -64 110 -39 Z" unicode="∫" />
<glyph horiz-adv-x="500" d="M 382 493 L 448 493 C 447 444 440 406 426 378 C 412 350 390 337 358 337 C 337 337 318 341 300 351 C 282 360 266 371 254 383 C 240 395 225 405 209 414 C 193 423 177 428 163 428 C 148 428 133 420 119 404 C 105 388 98 367 98 340 L 41 340 C 41 388 50 425 70 453 C 90 480 114 494 144 494 C 165 494 184 489 200 479 C 216 469 231 458 244 448 C 256 438 269 429 284 421 C 298 413 313 409 328 409 C 346 409 360 415 369 429 C 377 442 382 463 382 493 Z M 384 322 L 448 322 C 447 273 438 235 422 207 C 406 179 381 165 349 165 C 326 165 307 169 291 179 C 275 189 260 199 248 211 C 235 222 221 232 206 241 C 190 249 176 254 162 254 C 148 254 135 246 121 231 C 107 216 100 195 100 168 L 41 168 C 41 216 51 254 71 282 C 91 310 117 324 149 324 C 171 324 191 318 208 308 C 225 298 240 287 252 276 C 263 265 276 256 290 248 C 304 240 318 236 332 236 C 350 236 363 242 371 256 C 379 270 384 292 384 322 Z" unicode="≈" />
<glyph horiz-adv-x="500" d="M 457 182 L 221 182 L 168 74 L 119 96 L 161 182 L 65 182 L 65 247 L 193 247 L 263 392 L 65 392 L 65 455 L 294 455 L 346 562 L 395 540 L 354 455 L 457 455 L 457 392 L 323 392 L 252 247 L 457 247 L 457 182 Z" unicode="≠" />
<glyph horiz-adv-x="500" d="M 62 300 L 62 350 L 433 554 L 433 483 L 134 327 L 433 168 L 433 97 L 62 300 Z M 61 77 L 433 77 L 433 20 L 61 20 L 61 77 Z" unicode="≤" />
<glyph horiz-adv-x="500" d="M 432 300 L 61 97 L 61 168 L 360 327 L 61 483 L 61 554 L 432 350 L 432 300 Z M 433 77 L 433 20 L 61 20 L 61 77 L 433 77 Z" unicode="≥" />
<glyph horiz-adv-x="526" d="M 495 326 L 268 -9 L 258 -9 L 31 326 L 31 337 L 258 671 L 268 671 L 495 337 L 495 326 Z M 425 327 L 425 336 L 268 573 L 259 573 L 101 336 L 101 327 L 259 89 L 268 89 L 425 327 Z" unicode="◊" />
<glyph horiz-adv-x="730" d="M 448 688 L 282 688 L 282 730 L 448 730 L 448 688 Z M 659 282 L 615 282 L 615 448 L 659 448 L 659 282 Z M 115 282 L 71 282 L 71 448 L 115 448 L 115 282 Z M 418 312 L 312 312 L 312 418 L 418 418 L 418 312 Z M 448 0 L 282 0 L 282 43 L 448 43 L 448 0 Z" unicode="" />
<glyph horiz-adv-x="536" d="M 313 379 L 193 379 L 193 0 L 119 0 L 119 379 L 20 379 L 20 436 L 119 436 L 119 535 C 119 574 124 608 136 636 C 148 664 163 688 181 706 C 199 724 220 737 243 746 C 265 754 288 759 311 759 C 325 759 339 758 351 756 C 363 754 372 751 380 748 L 379 686 C 373 688 365 690 355 692 C 345 694 334 695 322 695 C 307 695 292 691 277 684 C 261 677 247 667 235 655 C 223 642 213 627 205 609 C 197 591 193 571 193 549 L 193 436 L 313 436 L 313 379 Z M 468 544 L 391 544 L 391 625 L 468 625 L 468 544 Z M 466 0 L 393 0 L 393 436 L 466 436 L 466 0 Z" unicode="ﬁ" />
<glyph horiz-adv-x="531" d="M 313 379 L 193 379 L 193 0 L 119 0 L 119 379 L 20 379 L 20 436 L 119 436 L 119 508 C 119 547 124 581 136 610 C 148 638 163 662 181 681 C 199 699 220 713 243 723 C 265 732 288 737 311 737 C 325 737 339 736 351 734 C 363 732 372 729 380 726 L 379 664 C 373 666 365 668 355 670 C 345 672 334 673 322 673 C 307 673 292 669 277 662 C 261 654 247 644 235 631 C 223 617 213 601 205 583 C 197 564 193 544 193 522 L 193 436 L 313 436 L 313 379 Z M 461 730 L 461 0 L 387 0 L 387 730 L 461 730 Z" unicode="ﬂ" />
</font>
</defs>
</svg>
