<?xml version="1.0" encoding="utf-8" ?><svg version="1.1" xmlns = 'http://www.w3.org/2000/svg'><defs><font id='web' horiz-adv-x="1000">
<font-face font-family="web" descent="-200" cap-height="730" units-per-em="1000" bbox="-197,-363,1234,1029" x-height="544" ascent="800" />
<missing-glyph horiz-adv-x="500" d="" /><glyph horiz-adv-x="280" d="" unicode=" " />
<glyph horiz-adv-x="310" d="M 216 435 L 181 216 L 128 216 L 94 435 L 94 730 L 216 730 L 216 435 Z M 211 0 L 99 0 L 99 112 L 211 112 L 211 0 Z" unicode="!" />
<glyph horiz-adv-x="440" d="M 369 605 L 362 456 L 277 456 L 272 604 L 272 730 L 369 730 L 369 605 Z M 167 604 L 162 456 L 76 456 L 71 604 L 71 730 L 167 730 L 167 604 Z" unicode="&#x22;" />
<glyph horiz-adv-x="657" d="M 596 214 L 462 214 L 443 0 L 379 1 L 398 214 L 233 214 L 214 0 L 150 1 L 169 214 L 33 214 L 33 293 L 176 293 L 188 434 L 61 434 L 61 513 L 195 513 L 214 730 L 278 729 L 259 513 L 424 513 L 443 730 L 507 729 L 488 513 L 624 513 L 624 434 L 481 434 L 469 293 L 596 293 L 596 214 Z M 240 293 L 405 293 L 417 434 L 252 434 L 240 293 Z" unicode="#" />
<glyph horiz-adv-x="561" d="M 522 189 C 522 161 516 137 505 115 C 493 93 478 74 459 58 C 439 42 416 29 390 19 C 364 9 336 4 307 2 L 307 -120 L 244 -120 L 244 3 C 197 6 155 15 117 31 C 79 46 50 64 30 84 L 67 169 C 86 149 112 132 145 117 C 178 101 211 91 244 86 L 244 336 C 170 368 118 399 88 431 C 57 462 42 502 42 551 C 42 602 61 644 99 676 C 137 708 185 726 244 729 L 244 789 L 307 789 L 307 728 C 349 724 387 716 419 703 C 451 689 478 673 499 653 L 450 581 C 432 597 410 611 386 623 C 361 634 335 641 307 645 L 307 411 L 311 409 C 344 394 374 379 400 365 C 426 351 449 335 467 319 C 485 302 498 283 508 262 C 517 241 522 217 522 189 Z M 142 550 C 142 526 149 506 163 491 C 177 476 204 459 244 440 L 244 645 C 214 641 190 630 171 614 C 151 598 142 576 142 550 Z M 420 184 C 420 208 412 229 398 247 C 384 265 353 285 307 308 L 307 84 C 343 86 370 97 390 115 C 410 133 420 156 420 184 Z" unicode="$" />
<glyph horiz-adv-x="900" d="M 220 344 C 196 344 173 348 151 358 C 129 368 109 381 93 398 C 77 415 64 436 54 461 C 44 485 40 512 40 542 C 40 568 44 593 53 617 C 62 641 74 662 90 680 C 106 698 125 713 147 724 C 169 734 192 740 218 740 C 244 740 268 734 290 724 C 312 713 330 699 346 681 C 361 663 373 643 382 619 C 390 595 395 571 395 545 C 395 517 390 491 382 467 C 373 442 361 421 346 403 C 330 385 312 370 290 360 C 268 349 245 344 220 344 Z M 232 0 L 129 0 L 651 730 L 755 730 L 232 0 Z M 217 424 C 243 424 264 434 280 456 C 295 477 303 506 303 542 C 303 576 296 604 282 626 C 268 648 247 659 219 659 C 192 659 171 648 155 626 C 139 604 132 576 132 542 C 132 504 140 474 157 454 C 173 434 193 424 217 424 Z M 683 -3 C 659 -3 636 1 614 11 C 592 21 574 34 558 51 C 542 68 529 89 519 114 C 509 138 505 165 505 195 C 505 221 509 246 518 270 C 527 294 539 315 555 333 C 571 351 589 366 611 377 C 632 387 655 393 681 393 C 707 393 731 387 753 377 C 775 366 793 352 809 334 C 825 316 837 296 846 272 C 854 248 859 224 859 198 C 859 170 854 144 846 120 C 837 96 825 74 809 56 C 793 38 775 23 753 13 C 731 2 708 -3 683 -3 Z M 680 78 C 707 78 728 88 743 110 C 758 131 766 159 766 195 C 766 229 759 258 745 280 C 731 302 710 313 682 313 C 655 313 634 302 619 280 C 604 258 597 230 597 195 C 597 157 605 128 621 108 C 637 88 657 78 680 78 Z" unicode="%" />
<glyph horiz-adv-x="752" d="M 673 -4 L 574 75 C 540 49 500 28 456 14 C 411 0 359 -8 299 -8 C 219 -8 155 8 107 40 C 58 72 34 117 34 175 C 34 199 38 221 48 241 C 58 261 70 279 86 295 C 101 311 119 325 139 339 C 159 352 179 365 200 378 L 198 379 C 188 387 177 397 166 409 C 154 421 144 434 134 450 C 124 465 115 482 109 502 C 102 522 99 543 99 567 C 99 591 105 613 117 634 C 129 655 145 673 165 688 C 185 703 207 715 232 724 C 257 732 282 737 308 737 C 338 737 366 732 391 723 C 415 714 436 702 453 687 C 469 671 482 653 491 633 C 499 612 504 590 504 568 C 504 526 490 492 462 466 C 434 440 398 413 354 385 L 563 218 C 573 230 584 244 595 259 C 605 273 616 289 626 305 L 723 255 C 711 236 699 218 687 200 C 675 182 662 165 650 149 L 729 86 L 673 -4 Z M 274 449 L 292 435 C 326 457 352 478 372 497 C 392 516 402 537 402 561 C 402 585 393 606 376 624 C 359 642 335 651 304 651 C 275 651 251 642 232 624 C 213 606 204 586 204 564 C 204 542 211 521 225 501 C 239 481 255 464 274 449 Z M 147 185 C 147 151 162 125 193 107 C 223 89 261 80 305 80 C 339 80 371 85 402 97 C 432 108 461 124 488 145 L 262 328 C 225 304 197 282 177 262 C 157 241 147 215 147 185 Z" unicode="&#x26;" />
<glyph horiz-adv-x="238" d="M 167 599 L 162 446 L 76 446 L 71 599 L 71 730 L 167 730 L 167 599 Z" unicode="'" />
<glyph horiz-adv-x="355" d="M 337 -101 L 337 -189 C 293 -170 253 -144 216 -112 C 179 -80 147 -43 121 -1 C 94 40 73 86 58 136 C 42 186 35 239 35 293 C 35 349 43 402 60 452 C 76 501 98 545 126 584 C 154 622 186 656 223 684 C 259 712 297 734 337 749 L 337 673 C 314 659 292 641 271 619 C 249 597 230 571 214 540 C 198 509 185 473 175 432 C 165 391 160 345 160 293 C 160 203 176 125 208 57 C 240 -11 283 -63 337 -101 Z" unicode="(" />
<glyph horiz-adv-x="355" d="M 18 674 L 18 749 C 55 735 92 715 128 688 C 164 660 197 627 225 587 C 253 547 276 502 294 451 C 311 400 320 345 320 285 C 320 228 311 174 295 124 C 279 74 257 28 230 -12 C 202 -52 170 -88 133 -118 C 96 -148 58 -172 18 -189 L 18 -100 C 41 -83 63 -62 85 -37 C 107 -12 126 15 142 47 C 158 79 170 115 180 155 C 190 195 195 238 195 285 C 195 339 189 388 179 431 C 168 473 154 510 138 542 C 121 574 102 600 81 622 C 59 644 38 661 18 674 Z" unicode=")" />
<glyph horiz-adv-x="436" d="M 399 565 L 268 532 L 367 444 L 294 380 L 220 497 L 146 380 L 76 443 L 172 534 L 37 566 L 73 652 L 190 585 L 167 730 L 272 730 L 249 585 L 368 651 L 399 565 Z" unicode="*" />
<glyph horiz-adv-x="500" d="M 476 287 L 294 287 L 294 111 L 207 111 L 207 287 L 24 287 L 24 375 L 207 375 L 207 551 L 294 551 L 294 375 L 476 375 L 476 287 Z" unicode="+" />
<glyph horiz-adv-x="261" d="M 218 125 C 215 94 210 64 202 35 C 194 6 184 -20 173 -44 C 162 -68 150 -90 137 -109 C 123 -128 110 -143 97 -155 L 20 -120 C 27 -112 35 -99 45 -82 C 54 -64 63 -45 72 -23 C 80 -1 88 23 96 49 C 103 75 108 100 111 125 L 218 125 Z" unicode="," />
<glyph horiz-adv-x="362" d="M 317 222 L 45 222 L 45 314 L 317 314 L 317 222 Z" unicode="-" />
<glyph horiz-adv-x="262" d="M 182 0 L 80 0 L 80 140 L 182 140 L 182 0 Z" unicode="." />
<glyph horiz-adv-x="328" d="M 327 730 L 96 0 L 2 0 L 235 730 L 327 730 Z" unicode="/" />
<glyph horiz-adv-x="609" d="M 301 -12 C 223 -12 160 21 112 87 C 64 153 40 245 40 361 C 40 412 45 461 57 507 C 68 553 85 594 107 629 C 129 663 156 691 190 711 C 224 731 263 742 307 742 C 352 742 391 732 425 713 C 458 693 485 667 506 633 C 527 599 543 560 553 515 C 563 469 569 421 569 369 C 569 313 563 262 552 216 C 541 169 525 129 503 95 C 481 61 453 35 419 16 C 385 -2 346 -12 301 -12 Z M 302 82 C 356 82 396 107 422 158 C 448 208 461 275 461 359 C 461 401 458 440 452 476 C 446 512 436 542 424 568 C 411 594 395 614 375 628 C 355 642 331 649 304 649 C 252 649 213 623 187 571 C 161 519 148 450 148 362 C 148 275 161 207 187 157 C 213 107 252 82 302 82 Z" unicode="0" />
<glyph horiz-adv-x="394" d="M 303 0 L 198 0 L 198 593 C 183 575 160 557 130 540 C 100 522 70 513 42 511 L 42 609 C 76 611 110 623 144 647 C 178 671 207 699 233 731 L 303 731 L 303 0 Z" unicode="1" />
<glyph horiz-adv-x="574" d="M 550 0 L 29 0 L 29 42 L 345 363 C 365 383 384 408 402 436 C 419 464 428 496 428 530 C 428 565 414 594 387 616 C 359 638 324 650 281 650 C 235 650 199 636 173 608 C 147 580 134 545 134 503 L 36 503 C 38 576 63 634 109 677 C 155 720 218 742 299 742 C 369 742 426 723 470 686 C 514 649 536 601 536 543 C 536 488 524 443 502 407 C 480 371 456 341 431 316 L 211 96 L 550 96 L 550 0 Z" unicode="2" />
<glyph horiz-adv-x="571" d="M 285 -12 C 217 -12 161 -3 115 13 C 69 30 34 50 10 72 L 67 158 C 86 141 113 124 147 106 C 181 88 222 80 270 80 C 323 80 365 93 395 120 C 425 147 440 181 440 222 C 440 260 425 289 397 311 C 369 332 331 343 285 343 L 146 343 L 146 432 L 280 432 C 320 432 353 443 378 465 C 403 487 416 512 416 541 C 416 567 404 592 380 615 C 356 638 324 650 282 650 C 236 650 198 640 170 621 C 141 602 118 581 100 558 L 39 631 C 59 659 91 685 133 708 C 175 730 226 742 286 742 C 356 742 413 725 457 693 C 500 660 522 616 522 561 C 522 519 508 482 481 452 C 453 421 420 401 380 392 C 426 384 466 365 498 334 C 530 302 546 263 546 215 C 546 185 539 156 527 128 C 515 100 497 76 475 56 C 453 35 425 18 393 6 C 361 -5 325 -12 285 -12 Z" unicode="3" />
<glyph horiz-adv-x="587" d="M 583 186 L 461 186 L 461 0 L 363 0 L 363 186 L 13 186 L 13 264 L 380 741 L 461 741 L 461 272 L 583 272 L 583 186 Z M 364 272 L 364 587 L 127 272 L 364 272 Z" unicode="4" />
<glyph horiz-adv-x="587" d="M 280 -12 C 221 -12 170 -2 126 16 C 82 35 48 56 26 79 L 83 161 C 99 143 124 125 158 107 C 192 89 231 80 275 80 C 325 80 366 95 396 127 C 426 159 441 201 441 253 C 441 301 426 339 398 367 C 370 395 335 409 293 409 C 258 409 227 402 200 388 C 172 374 152 355 138 330 L 69 347 L 100 730 L 491 730 L 491 634 L 177 634 L 164 432 C 174 446 194 461 223 475 C 251 489 283 496 317 496 C 386 496 442 474 485 430 C 528 386 550 329 550 258 C 550 219 543 183 531 150 C 518 117 500 89 477 65 C 453 41 425 22 392 8 C 358 -5 321 -12 280 -12 Z" unicode="5" />
<glyph horiz-adv-x="595" d="M 307 -12 C 268 -12 232 -5 199 7 C 166 20 138 38 114 62 C 90 85 71 114 57 148 C 43 182 37 220 37 262 C 37 308 44 351 58 393 C 72 434 91 473 115 510 C 139 546 167 581 200 614 C 232 647 267 678 304 707 L 373 761 L 434 685 L 375 639 C 319 595 271 551 231 507 C 191 463 167 426 159 395 C 169 414 190 432 221 450 C 251 468 286 477 325 477 C 395 477 452 455 497 411 C 541 367 564 309 564 238 C 564 202 557 169 544 139 C 530 108 512 81 489 59 C 466 37 439 19 408 7 C 376 -5 343 -12 307 -12 Z M 302 80 C 325 80 346 84 366 92 C 385 100 401 112 415 126 C 428 140 438 157 446 176 C 453 194 457 214 457 235 C 457 277 443 313 416 344 C 389 375 351 391 301 391 C 279 391 259 387 240 380 C 220 372 203 362 189 349 C 174 335 162 319 153 301 C 144 282 140 261 140 239 C 140 195 154 157 183 126 C 211 95 251 80 302 80 Z" unicode="6" />
<glyph horiz-adv-x="514" d="M 496 730 L 514 680 L 166 -9 L 75 36 L 382 632 L 15 632 L 15 730 L 496 730 Z" unicode="7" />
<glyph horiz-adv-x="615" d="M 412 387 C 459 377 498 356 528 322 C 558 288 573 245 573 195 C 573 165 566 138 554 113 C 542 87 524 65 501 47 C 478 29 450 14 417 4 C 384 -6 347 -12 306 -12 C 225 -12 161 7 114 46 C 66 85 43 135 43 195 C 43 220 47 244 56 266 C 65 288 77 308 92 325 C 106 341 123 355 143 366 C 162 376 182 383 203 386 C 166 395 134 414 107 444 C 79 474 66 509 66 549 C 66 577 72 603 84 627 C 96 651 112 671 134 688 C 155 705 180 718 210 728 C 239 737 271 742 306 742 C 378 742 437 724 482 690 C 526 656 549 611 549 555 C 549 516 535 481 509 449 C 482 417 450 396 412 387 Z M 306 420 C 349 420 384 431 411 453 C 437 475 451 502 451 535 C 451 571 437 599 410 621 C 382 643 348 654 306 654 C 266 654 232 643 204 621 C 176 599 163 571 163 535 C 163 501 176 473 204 452 C 232 430 266 420 306 420 Z M 307 76 C 356 76 396 88 426 113 C 456 137 471 170 471 210 C 471 250 455 280 425 301 C 394 322 355 333 307 333 C 259 333 220 322 190 301 C 159 280 144 249 144 208 C 144 169 159 137 189 113 C 219 88 259 76 307 76 Z" unicode="8" />
<glyph horiz-adv-x="595" d="M 238 -21 L 183 54 L 263 118 C 303 150 340 188 374 231 C 407 273 430 313 443 349 C 437 338 427 327 415 317 C 403 306 389 296 373 288 C 357 280 339 273 321 268 C 303 262 285 260 268 260 C 233 260 201 265 172 276 C 142 287 117 303 96 323 C 75 343 59 369 47 399 C 35 429 30 462 30 500 C 30 533 36 564 50 594 C 63 624 81 650 105 672 C 128 694 156 711 188 724 C 220 736 254 743 291 743 C 328 743 363 736 396 724 C 428 712 456 694 480 671 C 504 647 522 619 536 585 C 550 551 557 512 557 470 C 557 420 549 374 535 330 C 521 286 502 246 479 210 C 456 173 429 140 399 110 C 369 80 338 54 306 32 L 238 -21 Z M 291 340 C 338 340 377 355 408 385 C 439 415 455 451 455 493 C 455 541 439 580 408 610 C 376 640 339 655 295 655 C 271 655 249 650 229 642 C 209 633 193 622 179 608 C 165 594 155 577 148 558 C 140 538 137 518 137 498 C 137 476 140 456 147 437 C 153 418 163 401 176 387 C 189 373 205 361 225 353 C 244 344 266 340 291 340 Z" unicode="9" />
<glyph horiz-adv-x="251" d="M 177 409 L 74 409 L 74 544 L 177 544 L 177 409 Z M 177 0 L 74 0 L 74 136 L 177 136 L 177 0 Z" unicode=":" />
<glyph horiz-adv-x="250" d="M 183 409 L 81 409 L 81 544 L 183 544 L 183 409 Z M 189 106 C 186 82 181 57 173 32 C 165 7 156 -16 146 -39 C 135 -61 123 -82 111 -100 C 98 -118 85 -133 72 -145 L -4 -110 C 4 -100 13 -88 23 -72 C 33 -56 42 -39 51 -20 C 59 0 67 19 74 41 C 81 63 86 84 88 106 L 189 106 Z" unicode=";" />
<glyph horiz-adv-x="422" d="M 370 97 L 42 286 L 42 374 L 370 559 L 370 466 L 146 333 L 370 193 L 370 97 Z" unicode="&#x3C;" />
<glyph horiz-adv-x="500" d="M 451 386 L 49 386 L 49 474 L 451 474 L 451 386 Z M 451 171 L 49 171 L 49 259 L 451 259 L 451 171 Z" unicode="=" />
<glyph horiz-adv-x="422" d="M 381 286 L 52 97 L 52 193 L 277 333 L 52 467 L 52 559 L 381 374 L 381 286 Z" unicode="&#x3E;" />
<glyph horiz-adv-x="483" d="M 164 206 C 164 254 169 293 179 322 C 189 351 211 378 245 403 C 271 423 296 443 318 465 C 340 486 352 514 352 549 C 352 579 339 604 315 622 C 291 640 261 649 225 649 C 193 649 164 641 138 627 C 112 613 91 596 76 576 L 8 643 C 28 669 58 692 97 712 C 135 732 182 742 236 742 C 267 742 296 737 324 729 C 351 721 375 709 395 694 C 415 679 430 660 442 638 C 454 616 460 591 460 563 C 460 536 455 512 447 492 C 439 472 428 454 416 439 C 404 423 390 410 376 398 C 361 386 347 376 335 367 C 306 346 288 321 280 292 C 272 263 267 234 267 206 L 164 206 Z M 161 0 L 161 129 L 275 129 L 275 0 L 161 0 Z" unicode="?" />
<glyph horiz-adv-x="894" d="M 441 -27 C 386 -27 335 -17 287 3 C 239 23 198 50 164 85 C 129 119 102 160 82 207 C 62 254 52 304 52 358 C 52 413 61 464 81 511 C 100 558 127 599 162 633 C 196 667 238 693 287 713 C 335 732 389 742 447 742 C 507 742 561 733 610 717 C 658 700 700 676 734 646 C 768 616 794 579 813 537 C 831 494 841 447 841 395 C 841 350 836 312 826 280 C 816 248 804 223 788 203 C 772 183 755 168 735 159 C 715 150 695 146 675 146 C 638 146 609 152 589 165 C 568 177 554 193 548 213 C 539 196 521 181 493 168 C 465 154 430 148 389 148 C 341 148 303 160 277 184 C 250 208 237 238 237 274 C 237 314 254 347 289 374 C 323 400 376 414 447 414 L 540 414 L 540 421 C 540 448 530 468 511 480 C 491 492 466 498 436 498 C 412 498 389 495 368 490 C 347 485 329 479 315 473 L 283 549 C 299 557 323 564 353 572 C 383 579 412 583 440 583 C 495 583 540 569 574 543 C 608 517 626 474 626 414 L 626 276 C 626 262 630 249 638 236 C 646 222 662 216 684 216 C 693 216 703 218 713 223 C 723 227 733 236 741 248 C 749 260 756 278 762 300 C 768 322 771 351 771 386 C 771 426 763 464 749 500 C 734 536 713 567 686 594 C 658 620 624 641 584 657 C 544 673 498 681 447 681 C 397 681 353 673 313 657 C 273 641 238 618 210 590 C 182 561 160 527 145 488 C 129 449 122 407 122 361 C 122 315 130 273 147 233 C 163 193 186 159 215 130 C 243 101 277 78 317 61 C 356 44 398 36 443 36 C 467 36 493 39 520 45 C 547 51 572 59 595 71 L 622 11 C 595 -1 566 -11 535 -17 C 503 -23 472 -27 441 -27 Z M 430 224 C 454 224 477 228 497 238 C 517 247 532 256 540 266 L 540 348 L 456 348 C 417 348 388 342 369 332 C 350 321 341 306 341 286 C 341 264 348 249 362 239 C 376 229 399 224 430 224 Z" unicode="@" />
<glyph horiz-adv-x="660" d="M 660 0 L 543 0 L 470 181 L 178 181 L 110 0 L 0 0 L 296 733 L 369 733 L 660 0 Z M 445 265 L 324 571 L 204 265 L 445 265 Z" unicode="A" />
<glyph horiz-adv-x="626" d="M 94 0 L 94 730 L 328 730 C 394 730 446 714 484 683 C 522 652 541 609 541 553 C 541 507 528 468 503 437 C 478 406 445 387 404 379 C 424 377 445 372 466 364 C 487 356 506 345 523 331 C 539 317 553 299 564 277 C 574 255 580 228 580 198 C 580 168 573 140 561 116 C 549 91 532 70 511 53 C 489 36 463 23 433 14 C 403 4 370 0 334 0 L 94 0 Z M 196 412 L 305 412 C 328 412 348 415 364 423 C 380 430 394 439 404 451 C 414 463 421 476 426 491 C 430 506 433 521 433 536 C 433 567 421 592 398 612 C 374 632 343 642 303 642 L 196 642 L 196 412 Z M 198 88 L 331 88 C 378 88 412 100 434 125 C 455 150 466 179 466 213 C 466 244 453 270 428 292 C 403 313 371 324 331 324 L 198 324 L 198 88 Z" unicode="B" />
<glyph horiz-adv-x="747" d="M 407 -12 C 358 -12 312 -3 268 14 C 224 32 186 57 153 89 C 120 121 94 161 75 208 C 55 254 46 307 46 365 C 46 420 55 471 73 518 C 91 564 117 604 149 637 C 181 670 219 696 263 714 C 307 732 356 742 408 742 C 474 742 531 732 579 712 C 627 692 668 661 701 619 L 617 550 C 594 576 566 598 534 615 C 501 632 460 641 410 641 C 332 641 270 616 225 567 C 179 517 157 452 157 370 C 157 323 164 282 179 247 C 194 211 214 182 238 158 C 262 134 290 117 322 105 C 354 93 386 87 420 87 C 470 87 512 97 548 117 C 583 137 612 163 635 196 L 717 137 C 689 96 649 61 596 32 C 543 2 480 -12 407 -12 Z" unicode="C" />
<glyph horiz-adv-x="752" d="M 94 0 L 94 730 L 321 730 C 381 730 435 721 483 704 C 531 687 571 663 604 633 C 636 602 661 565 679 521 C 696 477 705 429 705 377 C 705 324 696 274 679 228 C 661 182 636 142 603 108 C 569 74 528 48 478 29 C 428 9 370 0 305 0 L 94 0 Z M 204 89 L 303 89 C 351 89 394 96 430 111 C 466 126 496 147 520 173 C 543 199 560 229 572 264 C 584 299 590 336 590 376 C 590 455 565 519 517 568 C 469 617 402 642 317 642 L 204 642 L 204 89 Z" unicode="D" />
<glyph horiz-adv-x="593" d="M 537 0 L 94 0 L 94 730 L 518 730 L 518 634 L 202 634 L 202 412 L 502 412 L 502 318 L 202 318 L 202 96 L 537 96 L 537 0 Z" unicode="E" />
<glyph horiz-adv-x="537" d="M 493 634 L 204 634 L 204 414 L 478 414 L 478 320 L 204 320 L 204 0 L 94 0 L 94 730 L 493 730 L 493 634 Z" unicode="F" />
<glyph horiz-adv-x="795" d="M 424 370 L 743 370 L 743 154 C 713 104 670 63 612 33 C 554 3 489 -12 419 -12 C 367 -12 318 -3 272 15 C 226 33 187 58 154 91 C 120 123 94 163 75 210 C 55 256 46 308 46 365 C 46 423 55 475 75 522 C 95 568 122 608 156 640 C 190 672 229 697 275 715 C 320 733 368 742 419 742 C 489 742 547 730 593 708 C 638 685 672 661 696 635 L 625 554 C 604 576 578 596 546 614 C 514 632 470 641 416 641 C 380 641 346 635 314 623 C 282 611 255 593 232 571 C 208 548 190 520 176 486 C 162 452 156 413 156 370 C 156 326 163 286 177 250 C 191 214 209 183 233 158 C 257 133 285 114 318 100 C 350 86 385 80 422 80 C 471 80 516 89 556 108 C 596 127 625 154 643 190 L 643 276 L 424 276 L 424 370 Z" unicode="G" />
<glyph horiz-adv-x="768" d="M 674 0 L 564 0 L 564 312 L 204 312 L 204 0 L 94 0 L 94 730 L 204 730 L 204 408 L 564 408 L 564 730 L 674 730 L 674 0 Z" unicode="H" />
<glyph horiz-adv-x="306" d="M 208 0 L 98 0 L 98 730 L 208 730 L 208 0 Z" unicode="I" />
<glyph horiz-adv-x="437" d="M 346 730 L 346 196 C 346 168 341 141 331 116 C 321 90 308 68 290 50 C 272 31 249 16 222 5 C 195 -6 165 -12 131 -12 C 112 -12 91 -10 67 -7 C 43 -3 24 2 11 11 L 52 97 C 58 93 67 90 79 88 C 91 86 103 85 116 85 C 154 85 183 96 204 118 C 225 140 236 167 236 198 L 236 730 L 346 730 Z" unicode="J" />
<glyph horiz-adv-x="681" d="M 668 0 L 534 0 L 302 331 L 203 209 L 203 0 L 94 0 L 94 730 L 203 730 L 203 337 L 509 730 L 630 730 L 380 411 L 668 0 Z" unicode="K" />
<glyph horiz-adv-x="540" d="M 528 0 L 94 0 L 94 730 L 204 730 L 204 96 L 528 96 L 528 0 Z" unicode="L" />
<glyph horiz-adv-x="924" d="M 830 0 L 728 0 L 728 512 L 486 155 L 440 155 L 194 512 L 194 0 L 94 0 L 94 730 L 169 730 L 467 284 L 754 730 L 830 730 L 830 0 Z" unicode="M" />
<glyph horiz-adv-x="791" d="M 697 0 L 619 0 L 196 540 L 196 0 L 94 0 L 94 730 L 178 730 L 597 196 L 597 730 L 697 730 L 697 0 Z" unicode="N" />
<glyph horiz-adv-x="841" d="M 423 -12 C 367 -12 316 -2 270 17 C 224 37 184 64 151 98 C 118 132 92 172 74 219 C 55 265 46 316 46 370 C 46 424 55 473 75 519 C 94 565 120 604 153 637 C 186 670 225 696 270 714 C 315 732 363 742 415 742 C 470 742 521 732 568 714 C 614 695 654 669 688 636 C 721 603 747 564 766 518 C 784 472 794 422 794 368 C 794 312 784 260 764 214 C 744 167 718 127 684 94 C 650 60 611 34 566 16 C 520 -2 473 -12 423 -12 Z M 431 83 C 467 83 500 89 531 102 C 562 114 589 132 612 156 C 634 180 652 209 665 244 C 678 279 685 319 685 363 C 685 404 678 442 664 476 C 650 510 630 540 606 565 C 581 589 552 608 518 622 C 484 636 448 643 409 643 C 373 643 339 636 308 624 C 277 612 250 594 228 571 C 205 547 187 519 175 486 C 162 452 156 415 156 373 C 156 329 163 289 178 253 C 192 217 212 186 237 161 C 262 136 291 117 325 103 C 358 89 393 83 431 83 Z" unicode="O" />
<glyph horiz-adv-x="619" d="M 94 0 L 94 730 L 354 730 C 388 730 419 725 448 715 C 476 705 501 691 522 673 C 543 654 559 631 571 604 C 583 577 589 547 589 513 C 589 446 567 391 524 349 C 481 307 425 286 356 286 L 204 286 L 204 0 L 94 0 Z M 202 375 L 341 375 C 385 375 418 388 442 414 C 466 440 478 473 478 514 C 478 556 464 587 436 609 C 408 631 373 642 333 642 L 202 642 L 202 375 Z" unicode="P" />
<glyph horiz-adv-x="841" d="M 706 -101 L 706 -199 C 637 -197 574 -181 518 -150 C 462 -119 419 -71 391 -7 C 338 -3 290 8 248 28 C 205 48 169 74 139 107 C 109 140 86 179 70 224 C 54 268 46 317 46 370 C 46 422 55 470 74 516 C 92 562 118 601 151 635 C 183 668 222 694 268 713 C 313 732 362 742 416 742 C 471 742 522 733 568 715 C 614 697 654 671 688 638 C 721 605 747 565 766 519 C 784 473 794 421 794 365 C 794 319 787 276 773 236 C 759 196 739 160 714 128 C 689 96 659 70 624 48 C 589 26 551 10 509 1 C 530 -37 558 -64 594 -78 C 629 -92 666 -99 706 -101 Z M 469 194 C 469 173 469 154 471 136 C 473 118 475 102 478 87 C 538 97 587 126 626 174 C 664 221 684 283 684 361 C 684 405 676 445 661 481 C 646 516 626 545 601 569 C 576 593 547 611 514 624 C 480 636 445 643 409 643 C 373 643 339 636 308 624 C 276 612 249 594 227 572 C 205 549 187 521 175 488 C 162 454 156 417 156 375 C 156 335 161 300 172 268 C 183 236 198 208 217 184 C 235 160 257 140 282 124 C 307 108 334 97 362 91 C 359 106 357 122 355 140 C 353 157 353 175 353 194 L 469 194 Z" unicode="Q" />
<glyph horiz-adv-x="625" d="M 94 0 L 94 730 L 326 730 C 356 730 385 725 412 716 C 438 707 461 694 481 678 C 501 661 516 640 527 616 C 538 592 544 564 544 534 C 544 503 539 476 530 452 C 520 428 508 407 493 390 C 478 373 461 359 442 349 C 422 339 402 332 382 329 L 380 325 L 603 0 L 473 0 L 275 302 L 203 302 L 203 0 L 94 0 Z M 201 391 L 299 391 C 336 391 368 402 394 424 C 420 446 433 478 433 520 C 433 558 421 587 397 609 C 373 631 343 642 306 642 L 201 642 L 201 391 Z" unicode="R" />
<glyph horiz-adv-x="609" d="M 309 -12 C 247 -12 194 -3 150 13 C 106 29 70 51 42 78 L 114 163 C 133 139 161 120 197 104 C 233 88 272 80 312 80 C 348 80 378 89 404 107 C 430 125 443 148 443 177 C 443 207 431 232 409 254 C 386 275 346 297 288 321 C 246 337 210 353 181 368 C 152 383 129 399 112 417 C 95 434 83 454 76 476 C 68 498 65 524 65 554 C 65 611 86 657 129 691 C 171 725 227 742 297 742 C 350 742 395 733 432 717 C 469 700 500 681 525 661 L 463 571 C 437 591 410 608 380 621 C 350 634 320 641 288 641 C 254 641 226 633 204 618 C 182 602 172 581 172 554 C 172 523 185 498 211 478 C 237 458 281 436 343 411 C 420 380 474 349 505 317 C 536 285 552 241 552 187 C 552 156 545 128 532 104 C 519 79 502 58 480 41 C 458 23 432 10 402 1 C 372 -7 341 -12 309 -12 Z" unicode="S" />
<glyph horiz-adv-x="559" d="M 549 634 L 332 634 L 332 0 L 222 0 L 222 634 L 10 634 L 10 730 L 549 730 L 549 634 Z" unicode="T" />
<glyph horiz-adv-x="765" d="M 676 730 L 676 266 C 676 222 668 183 652 149 C 636 114 615 85 589 61 C 563 37 532 19 496 7 C 460 -5 422 -12 382 -12 C 342 -12 305 -6 269 6 C 233 18 202 35 176 59 C 150 83 129 112 113 147 C 97 181 90 221 90 266 L 90 730 L 197 730 L 197 269 C 197 241 201 215 211 193 C 221 170 234 151 251 135 C 267 119 287 107 309 99 C 331 91 355 87 380 87 C 405 87 429 91 452 99 C 475 107 495 118 512 134 C 529 149 543 168 553 191 C 563 213 568 239 568 269 L 568 730 L 676 730 Z" unicode="U" />
<glyph horiz-adv-x="675" d="M 675 730 L 370 -5 L 297 -5 L 0 730 L 121 730 L 335 175 L 560 730 L 675 730 Z" unicode="V" />
<glyph horiz-adv-x="939" d="M 928 730 L 705 -5 L 639 -5 L 472 531 L 295 -5 L 229 -5 L 11 730 L 124 730 L 274 212 L 442 730 L 507 730 L 676 208 L 826 730 L 928 730 Z" unicode="W" />
<glyph horiz-adv-x="635" d="M 498 0 L 316 284 L 133 0 L 16 0 L 257 375 L 29 730 L 154 730 L 320 472 L 486 730 L 603 730 L 378 381 L 623 0 L 498 0 Z" unicode="X" />
<glyph horiz-adv-x="671" d="M 671 730 L 388 306 L 388 0 L 278 0 L 278 310 L 0 730 L 123 730 L 338 407 L 555 730 L 671 730 Z" unicode="Y" />
<glyph horiz-adv-x="593" d="M 561 730 L 561 683 L 168 96 L 573 96 L 573 0 L 20 0 L 20 45 L 408 633 L 49 633 L 49 730 L 561 730 Z" unicode="Z" />
<glyph horiz-adv-x="354" d="M 316 -179 L 100 -179 L 100 730 L 316 730 L 316 651 L 198 651 L 198 -97 L 316 -97 L 316 -179 Z" unicode="[" />
<glyph horiz-adv-x="328" d="M 2 730 L 93 730 L 327 0 L 234 0 L 2 730 Z" unicode="\" />
<glyph horiz-adv-x="341" d="M 243 -179 L 38 -179 L 38 -101 L 147 -101 L 147 652 L 38 652 L 38 730 L 243 730 L 243 -179 Z" unicode="]" />
<glyph horiz-adv-x="515" d="M 445 369 L 356 369 L 255 621 L 158 369 L 71 369 L 212 730 L 299 730 L 445 369 Z" unicode="^" />
<glyph horiz-adv-x="500" d="M 500 -160 L 0 -160 L 0 -78 L 500 -78 L 500 -160 Z" unicode="_" />
<glyph horiz-adv-x="500" d="M 356 592 L 253 592 L 130 755 L 250 755 L 356 592 Z" unicode="`" />
<glyph horiz-adv-x="601" d="M 530 0 L 429 0 L 429 73 C 409 47 382 27 348 13 C 314 0 275 -8 229 -8 C 170 -8 124 6 91 35 C 57 63 41 102 41 150 C 41 211 64 258 112 291 C 159 324 224 343 307 348 L 428 355 L 428 362 C 428 398 417 425 395 443 C 373 460 343 469 303 469 C 269 469 236 463 205 451 C 173 439 144 424 117 408 L 74 483 C 102 503 137 521 178 536 C 219 550 265 558 316 558 C 382 558 435 542 473 511 C 511 480 530 430 530 362 L 530 0 Z M 430 148 L 430 276 L 295 270 C 252 267 217 257 190 240 C 162 222 149 196 149 162 C 149 134 159 112 181 96 C 203 80 231 72 266 72 C 298 72 330 79 360 93 C 390 107 413 126 430 148 Z" unicode="a" />
<glyph horiz-adv-x="667" d="M 380 -7 C 325 -7 281 5 249 31 C 217 57 195 87 185 122 L 185 0 L 86 0 L 86 800 L 180 800 L 180 416 C 190 455 213 488 247 514 C 281 540 327 554 383 554 C 418 554 450 547 480 535 C 510 522 535 504 557 481 C 578 457 595 429 607 396 C 619 362 625 325 625 284 C 625 238 618 197 605 161 C 591 125 574 94 552 69 C 530 44 504 25 474 12 C 444 0 412 -7 380 -7 Z M 354 80 C 378 80 401 85 421 95 C 441 105 459 118 473 136 C 487 154 499 175 507 199 C 515 223 519 248 519 276 C 519 332 504 378 476 414 C 448 450 407 468 353 468 C 305 468 264 451 232 419 C 199 387 183 337 183 270 C 183 209 198 162 230 129 C 261 96 302 80 354 80 Z" unicode="b" />
<glyph horiz-adv-x="593" d="M 485 175 L 565 120 C 555 104 542 88 528 72 C 514 56 497 42 478 30 C 458 18 436 8 410 0 C 384 -7 355 -11 322 -11 C 282 -11 244 -4 210 9 C 175 22 145 41 121 66 C 96 90 77 120 63 155 C 49 189 42 228 42 271 C 42 312 49 350 63 385 C 77 420 97 450 123 475 C 148 500 178 520 213 534 C 247 548 285 556 326 556 C 359 556 389 551 415 543 C 441 535 464 524 484 510 C 503 496 519 481 532 463 C 544 445 554 428 561 411 L 472 371 C 460 395 443 416 419 435 C 395 454 363 464 322 464 C 296 464 272 459 251 449 C 229 439 211 425 196 408 C 181 391 169 371 161 348 C 153 324 149 299 149 273 C 149 216 164 170 196 135 C 228 99 271 82 325 82 C 369 82 404 92 428 112 C 452 132 471 153 485 175 Z" unicode="c" />
<glyph horiz-adv-x="668" d="M 294 -11 C 258 -11 224 -4 193 8 C 162 21 135 40 113 64 C 91 88 73 118 61 154 C 48 189 42 229 42 274 C 42 314 49 351 63 386 C 77 420 95 450 119 475 C 142 500 169 520 201 534 C 233 548 266 556 302 556 C 342 556 379 544 413 521 C 447 498 471 471 483 441 L 483 800 L 582 800 L 582 0 L 488 0 L 488 122 C 484 108 476 94 465 78 C 453 62 439 48 422 35 C 405 22 386 11 364 2 C 342 -6 319 -11 294 -11 Z M 314 76 C 366 76 407 94 437 132 C 467 170 483 218 483 276 C 483 308 478 336 469 360 C 460 384 448 405 433 421 C 418 437 401 449 381 457 C 361 465 340 469 318 469 C 266 469 224 451 194 415 C 164 379 149 331 149 273 C 149 217 163 170 192 132 C 221 94 262 76 314 76 Z" unicode="d" />
<glyph horiz-adv-x="634" d="M 327 -11 C 285 -11 247 -4 212 8 C 177 20 147 39 122 63 C 97 87 77 116 63 151 C 49 186 42 226 42 271 C 42 311 49 348 63 383 C 77 417 97 447 122 473 C 146 499 176 519 210 534 C 244 548 282 556 322 556 C 403 556 468 528 517 472 C 566 416 591 337 592 237 L 146 237 C 147 216 152 196 160 178 C 168 159 180 142 195 128 C 210 114 228 102 250 94 C 272 86 296 82 323 82 C 367 82 403 89 431 104 C 458 119 481 137 499 158 L 563 86 C 537 58 506 34 470 16 C 434 -1 386 -11 327 -11 Z M 145 315 L 485 315 C 483 359 467 395 436 424 C 405 453 366 468 318 468 C 294 468 271 463 251 455 C 231 447 213 436 198 422 C 183 408 171 391 162 373 C 152 354 147 335 145 315 Z" unicode="e" />
<glyph horiz-adv-x="373" d="M 353 456 L 217 456 L 217 0 L 113 0 L 113 456 L 12 456 L 12 544 L 113 544 L 113 633 C 113 659 117 682 126 703 C 134 724 146 742 160 757 C 174 771 191 783 211 791 C 230 799 250 803 271 803 C 296 803 319 800 339 794 C 359 788 375 782 388 774 L 360 690 C 351 694 340 697 326 701 C 312 704 299 706 287 706 C 266 706 249 696 236 677 C 223 658 217 636 217 611 L 217 544 L 353 544 L 353 456 Z" unicode="f" />
<glyph horiz-adv-x="663" d="M 292 6 C 256 6 222 12 192 26 C 161 39 135 57 113 81 C 91 105 73 133 61 167 C 49 200 43 237 43 277 C 43 318 49 356 61 390 C 73 424 91 454 113 478 C 135 502 161 520 193 534 C 224 547 258 554 296 554 C 342 554 382 542 417 520 C 452 497 476 468 488 433 L 488 544 L 582 544 L 582 76 C 582 28 573 -13 555 -49 C 537 -84 514 -113 486 -135 C 458 -157 426 -174 391 -185 C 355 -196 321 -202 287 -202 C 228 -202 183 -196 151 -186 C 119 -175 95 -165 79 -155 L 126 -69 C 138 -77 158 -87 185 -98 C 212 -108 243 -114 279 -114 C 307 -114 334 -110 359 -102 C 383 -94 405 -82 423 -66 C 441 -50 456 -31 467 -8 C 477 15 483 42 483 73 L 483 142 C 477 127 469 112 458 96 C 447 80 433 65 417 52 C 401 38 382 27 361 19 C 340 10 317 6 292 6 Z M 319 91 C 339 91 358 95 378 103 C 398 111 415 122 431 138 C 446 154 458 174 468 198 C 478 222 483 250 483 283 C 483 338 467 382 437 414 C 407 446 368 462 321 462 C 269 462 228 444 197 410 C 165 375 150 328 150 270 C 150 212 165 167 195 137 C 225 106 266 91 319 91 Z" unicode="g" />
<glyph horiz-adv-x="643" d="M 564 0 L 462 0 L 462 366 C 462 397 450 422 426 440 C 402 458 374 467 340 467 C 322 467 304 464 286 459 C 268 453 251 445 237 435 C 223 424 211 411 202 395 C 193 379 189 360 189 339 L 189 0 L 86 0 L 86 800 L 180 800 L 180 442 C 188 474 210 501 246 523 C 282 545 325 556 375 556 C 399 556 423 552 446 545 C 469 538 489 528 507 515 C 524 501 538 485 548 465 C 558 445 564 422 564 397 L 564 0 Z" unicode="h" />
<glyph horiz-adv-x="280" d="M 86 660 L 86 774 L 194 774 L 194 660 L 86 660 Z M 88 0 L 88 544 L 192 544 L 192 0 L 88 0 Z" unicode="i" />
<glyph horiz-adv-x="330" d="M 252 660 L 145 660 L 145 774 L 252 774 L 252 660 Z M 250 544 L 250 1 C 250 -32 245 -61 236 -87 C 227 -113 215 -134 200 -151 C 184 -167 166 -180 146 -189 C 126 -197 104 -202 82 -202 C 55 -202 28 -199 2 -193 C -23 -187 -46 -178 -65 -168 L -32 -85 C -19 -92 -4 -98 12 -103 C 29 -107 49 -110 71 -110 C 92 -110 110 -99 125 -77 C 139 -55 147 -27 147 6 L 147 544 L 250 544 Z" unicode="j" />
<glyph horiz-adv-x="587" d="M 610 3 L 492 -1 L 291 248 L 189 142 L 189 0 L 86 0 L 86 800 L 189 800 L 189 252 L 451 544 L 562 544 L 361 321 L 610 3 Z" unicode="k" />
<glyph horiz-adv-x="318" d="M 79 130 L 79 800 L 182 800 L 182 163 C 182 139 188 121 201 107 C 213 93 231 86 255 86 C 263 86 273 86 283 87 C 293 88 301 90 306 92 L 308 2 C 301 0 290 -1 275 -3 C 260 -5 246 -6 233 -6 C 213 -6 194 -3 176 2 C 157 7 140 15 126 27 C 112 38 100 52 92 69 C 83 86 79 106 79 130 Z" unicode="l" />
<glyph horiz-adv-x="1009" d="M 86 0 L 86 544 L 178 544 L 178 433 C 184 451 193 468 207 484 C 220 499 235 512 253 523 C 271 533 290 541 311 547 C 332 553 353 556 375 556 C 417 556 454 545 488 524 C 522 503 542 473 548 435 L 553 435 C 557 453 565 469 577 484 C 589 499 603 512 620 522 C 637 532 656 541 676 547 C 696 553 717 556 739 556 C 793 556 838 542 875 514 C 911 486 930 447 930 397 L 930 0 L 827 0 L 827 367 C 827 401 815 426 791 442 C 767 458 739 467 706 467 C 689 467 672 464 655 458 C 637 452 622 444 608 434 C 594 423 582 409 573 393 C 564 377 560 358 560 338 L 560 0 L 457 0 L 457 372 C 457 400 445 422 422 440 C 398 458 369 467 335 467 C 317 467 299 464 282 458 C 264 452 249 444 235 433 C 221 421 209 407 201 391 C 193 374 189 355 189 334 L 189 0 L 86 0 Z" unicode="m" />
<glyph horiz-adv-x="643" d="M 564 0 L 461 0 L 461 370 C 461 400 449 424 425 441 C 401 458 373 467 342 467 C 324 467 307 464 289 459 C 271 453 254 445 240 435 C 225 424 213 410 203 394 C 193 378 189 359 189 337 L 189 0 L 86 0 L 86 544 L 175 544 L 175 428 C 187 466 211 496 248 520 C 284 544 327 556 376 556 C 400 556 424 552 447 545 C 469 537 489 527 507 514 C 524 500 538 484 548 465 C 558 446 564 425 564 402 L 564 0 Z" unicode="n" />
<glyph horiz-adv-x="655" d="M 323 -11 C 287 -11 252 -4 218 8 C 184 20 154 39 128 63 C 102 87 81 116 65 151 C 49 186 42 226 42 270 C 42 310 49 348 65 383 C 80 418 100 448 126 474 C 152 499 182 519 216 534 C 250 548 287 556 325 556 C 365 556 402 549 438 537 C 473 524 503 506 529 482 C 555 458 575 430 590 397 C 605 363 613 326 613 285 C 613 241 605 201 590 165 C 574 129 553 98 527 72 C 501 46 470 25 435 11 C 399 -3 362 -11 323 -11 Z M 329 81 C 381 81 424 100 457 138 C 489 176 506 223 506 280 C 506 332 489 375 455 410 C 421 445 377 463 322 463 C 270 463 229 444 197 407 C 165 370 150 324 150 268 C 150 210 167 164 202 131 C 236 97 279 81 329 81 Z" unicode="o" />
<glyph horiz-adv-x="668" d="M 86 -195 L 86 544 L 180 544 L 180 411 C 190 452 213 486 248 513 C 282 540 326 554 380 554 C 452 554 511 529 557 481 C 603 433 626 366 626 280 C 626 236 619 196 607 160 C 594 124 577 94 555 70 C 533 46 506 27 476 14 C 446 0 413 -6 378 -6 C 330 -6 289 5 256 29 C 222 53 200 82 189 117 L 189 -195 L 86 -195 Z M 355 81 C 401 81 439 99 471 136 C 503 172 519 220 519 278 C 519 332 505 377 477 413 C 449 449 409 468 356 468 C 306 468 264 451 232 419 C 199 387 183 338 183 272 C 183 205 199 156 232 126 C 265 96 306 81 355 81 Z" unicode="p" />
<glyph horiz-adv-x="667" d="M 478 -195 L 478 118 C 471 103 462 88 450 73 C 438 58 425 44 409 32 C 393 20 374 10 354 2 C 333 -6 310 -10 286 -10 C 250 -10 218 -3 188 9 C 158 22 132 40 110 64 C 88 88 72 116 60 150 C 48 184 42 221 42 261 C 42 305 48 346 62 382 C 76 418 94 448 118 474 C 141 499 168 518 200 532 C 232 546 265 553 301 553 C 325 553 347 549 369 541 C 390 533 409 522 425 510 C 441 498 454 484 466 468 C 477 452 485 437 489 423 L 489 544 L 581 544 L 581 -195 L 478 -195 Z M 317 76 C 364 76 403 93 435 129 C 467 165 483 214 483 276 C 483 340 466 388 434 420 C 402 452 362 468 315 468 C 263 468 222 450 193 414 C 163 378 149 331 149 271 C 149 213 164 166 194 130 C 224 94 265 76 317 76 Z" unicode="q" />
<glyph horiz-adv-x="478" d="M 484 526 L 429 432 C 420 441 407 449 391 455 C 375 461 356 464 335 464 C 317 464 299 460 281 453 C 263 445 248 435 234 423 C 220 410 209 395 201 377 C 193 359 189 339 189 318 L 189 0 L 86 0 L 86 544 L 179 544 L 179 420 C 183 437 190 454 202 470 C 213 486 227 501 244 514 C 260 526 280 536 302 544 C 324 552 348 556 374 556 C 398 556 420 553 439 547 C 458 541 473 534 484 526 Z" unicode="r" />
<glyph horiz-adv-x="514" d="M 278 -11 C 226 -11 180 -4 140 8 C 100 21 67 38 41 59 L 86 129 C 110 113 140 99 174 88 C 208 76 241 71 273 71 C 301 71 324 78 343 93 C 362 107 372 126 372 148 C 372 166 362 183 343 198 C 323 213 287 228 233 243 C 169 260 124 283 100 312 C 76 340 64 373 64 411 C 64 433 69 453 79 471 C 89 489 102 504 120 517 C 138 529 159 539 183 546 C 207 552 233 556 261 556 C 315 556 358 549 391 536 C 423 522 448 510 465 498 L 427 420 C 403 434 379 447 353 458 C 327 468 299 474 269 474 C 242 474 219 468 199 456 C 179 444 169 428 169 409 C 169 399 170 390 173 383 C 176 375 182 368 191 361 C 200 354 213 347 230 340 C 247 333 270 326 298 318 C 360 299 406 277 434 251 C 462 225 477 192 477 151 C 477 126 471 104 461 84 C 451 64 437 47 419 33 C 401 19 379 8 355 0 C 331 -7 305 -11 278 -11 Z" unicode="s" />
<glyph horiz-adv-x="391" d="M 360 108 L 377 25 C 364 15 346 7 323 2 C 300 -3 277 -6 255 -6 C 210 -6 172 7 142 34 C 111 60 96 103 96 161 L 96 459 L 13 459 L 13 544 L 96 544 L 96 686 L 198 699 L 198 544 L 352 544 L 352 459 L 198 459 L 198 166 C 198 140 204 120 216 106 C 228 91 245 84 268 84 C 287 84 305 87 322 93 C 338 99 351 104 360 108 Z" unicode="t" />
<glyph horiz-adv-x="643" d="M 79 544 L 182 544 L 182 202 C 182 156 194 123 220 104 C 246 84 278 75 316 75 C 354 75 386 87 413 111 C 440 135 454 166 454 206 L 454 544 L 557 544 L 557 0 L 464 0 L 464 108 C 455 77 434 49 401 25 C 368 0 326 -12 275 -12 C 248 -12 223 -8 199 -1 C 175 6 154 17 136 31 C 118 45 104 64 94 86 C 84 108 79 133 79 163 L 79 544 Z" unicode="u" />
<glyph horiz-adv-x="551" d="M 557 544 L 306 -3 L 240 -3 L -7 544 L 108 544 L 278 156 L 449 544 L 557 544 Z" unicode="v" />
<glyph horiz-adv-x="780" d="M 526 -3 L 398 328 L 254 -3 L 193 -3 L 3 544 L 111 544 L 239 156 L 370 480 L 435 480 L 554 159 L 679 544 L 778 544 L 587 -3 L 526 -3 Z" unicode="w" />
<glyph horiz-adv-x="497" d="M 389 0 L 246 206 L 101 0 L -1 0 L 196 280 L 13 544 L 123 544 L 251 358 L 382 544 L 484 544 L 302 285 L 498 0 L 389 0 Z" unicode="x" />
<glyph horiz-adv-x="558" d="M 563 544 L 274 -74 C 251 -122 222 -155 188 -173 C 154 -191 121 -200 90 -200 C 72 -200 58 -198 46 -194 C 34 -190 25 -187 20 -185 L 54 -94 C 57 -96 63 -98 71 -100 C 79 -102 87 -104 97 -104 C 114 -104 130 -98 145 -86 C 159 -74 174 -55 189 -28 L 223 39 L -5 544 L 106 544 L 279 154 L 455 544 L 563 544 Z" unicode="y" />
<glyph horiz-adv-x="490" d="M 457 544 L 457 497 L 169 91 L 480 91 L 480 0 L 19 0 L 19 46 L 307 453 L 32 453 L 32 544 L 457 544 Z" unicode="z" />
<glyph horiz-adv-x="276" d="M 274 -179 C 206 -178 151 -162 108 -132 C 65 -102 44 -65 44 -23 C 43 3 45 26 51 48 C 57 69 63 87 70 102 C 76 118 83 133 90 147 C 96 161 100 174 100 187 C 100 201 91 215 74 228 C 56 241 32 248 2 248 L 2 323 C 32 323 57 330 75 344 C 93 358 103 374 103 392 C 103 394 99 403 93 419 C 86 435 78 452 70 471 C 61 489 54 508 50 526 C 46 544 44 561 44 578 C 44 599 49 620 61 640 C 72 660 88 678 108 694 C 128 710 152 723 180 733 C 208 743 240 748 274 749 L 274 675 C 236 674 205 663 183 643 C 160 623 149 599 149 571 C 149 562 150 551 152 538 C 154 524 158 511 165 498 C 175 477 184 458 192 441 C 200 424 204 410 204 399 C 203 373 194 349 178 329 C 162 308 135 293 98 285 C 136 276 163 261 179 240 C 195 219 203 198 204 176 C 204 157 200 141 193 127 C 185 113 178 99 170 86 C 162 72 157 57 153 41 C 149 25 148 11 148 -1 C 148 -12 150 -24 156 -36 C 162 -48 170 -59 181 -69 C 191 -79 204 -88 220 -95 C 236 -101 254 -105 274 -105 L 274 -179 Z" unicode="{" />
<glyph horiz-adv-x="261" d="M 178 -179 L 83 -179 L 83 730 L 178 730 L 178 -179 Z" unicode="|" />
<glyph horiz-adv-x="276" d="M 2 -179 L 2 -105 C 22 -105 39 -101 55 -95 C 71 -88 84 -79 95 -69 C 105 -59 113 -48 119 -36 C 125 -24 128 -12 128 -1 C 128 11 126 25 122 41 C 118 57 113 72 106 86 C 98 99 90 113 83 127 C 75 141 72 157 73 176 C 73 198 81 219 97 240 C 113 261 140 276 178 285 C 140 293 113 308 97 329 C 81 349 72 373 72 399 C 72 410 76 424 84 441 C 92 458 101 477 111 498 C 117 511 122 524 124 538 C 126 551 127 562 127 571 C 127 598 115 622 93 643 C 70 663 40 674 2 675 L 2 749 C 36 748 67 743 95 733 C 123 723 148 710 168 694 C 188 678 203 660 215 640 C 226 620 232 599 232 578 C 232 561 229 544 225 526 C 221 508 214 489 206 471 C 197 452 189 435 183 419 C 176 403 173 394 173 392 C 173 374 182 358 200 344 C 218 330 243 323 274 323 L 274 248 C 244 248 220 241 202 228 C 184 215 176 201 176 187 C 176 174 179 161 186 147 C 192 133 199 118 206 102 C 212 87 218 69 224 48 C 230 26 233 3 233 -23 C 232 -65 210 -102 168 -132 C 125 -162 70 -178 2 -179 Z" unicode="}" />
<glyph horiz-adv-x="500" d="M 382 442 L 470 442 C 470 380 460 335 442 306 C 423 277 395 263 358 263 C 334 263 313 267 296 276 C 278 284 263 294 251 304 C 237 314 224 322 210 330 C 196 338 182 342 168 342 C 154 342 143 335 133 322 C 123 309 118 290 118 266 L 31 266 C 31 328 40 373 60 403 C 80 432 103 447 131 447 C 158 447 182 442 202 434 C 222 426 241 415 259 403 C 271 393 284 384 298 376 C 311 368 326 364 343 364 C 360 364 371 370 375 384 C 379 397 382 416 382 442 Z" unicode="~" />
<glyph horiz-adv-x="310" d="M 99 609 L 211 609 L 211 498 L 99 498 L 99 609 Z M 94 174 L 130 394 L 183 394 L 216 174 L 216 -121 L 94 -121 L 94 174 Z" unicode="¡" />
<glyph horiz-adv-x="577" d="M 560 224 C 541 196 515 170 483 144 C 450 118 406 103 351 99 L 351 -11 L 272 -11 L 272 102 C 206 112 152 140 110 188 C 68 236 47 296 47 370 C 47 441 68 502 110 552 C 152 602 206 633 272 644 L 272 749 L 351 749 L 351 648 C 405 643 449 627 484 600 C 519 573 544 543 559 510 L 475 472 C 463 492 446 511 426 528 C 405 545 380 556 351 561 L 351 187 C 387 191 415 202 436 221 C 456 239 473 258 485 277 L 560 224 Z M 148 374 C 148 328 159 288 181 256 C 203 224 234 202 272 192 L 272 556 C 234 545 203 523 181 489 C 159 455 148 417 148 374 Z" unicode="¢" />
<glyph horiz-adv-x="612" d="M 597 79 L 597 0 L 34 0 L 34 61 C 40 64 48 67 60 70 C 72 72 87 76 107 80 C 121 82 136 87 151 93 C 165 99 178 106 190 116 C 202 125 211 136 219 150 C 226 163 230 178 230 196 C 230 198 230 200 230 202 C 230 204 229 206 229 208 L 49 208 L 49 280 L 195 280 C 187 292 178 306 168 321 C 158 336 148 352 139 368 L 49 368 L 49 440 L 105 440 C 99 456 95 472 91 490 C 87 508 86 526 86 545 C 86 581 93 612 107 638 C 121 663 139 683 163 699 C 186 714 213 725 244 732 C 274 738 306 742 340 742 C 396 742 447 733 494 715 C 540 697 574 679 595 663 L 544 588 C 525 600 497 613 461 628 C 425 642 386 650 344 650 C 324 650 306 648 288 644 C 270 640 254 633 240 623 C 226 613 215 601 207 585 C 199 569 195 549 195 526 C 195 511 197 496 201 482 C 205 468 210 454 216 440 L 515 440 L 515 368 L 256 368 C 265 353 274 338 283 323 C 291 308 299 294 306 280 L 515 280 L 515 208 L 322 208 C 320 187 316 169 308 154 C 300 139 290 126 279 116 C 267 106 255 98 243 92 C 230 86 218 81 208 79 L 597 79 Z" unicode="£" />
<glyph horiz-adv-x="501" d="M 441 194 L 395 148 L 340 206 C 326 199 312 193 297 189 C 281 185 265 183 249 183 C 232 183 216 185 201 189 C 185 193 171 199 159 206 L 103 148 L 55 196 L 108 251 C 96 265 87 280 81 298 C 75 316 72 334 72 354 C 72 373 75 391 82 409 C 88 427 97 443 108 458 L 55 513 L 101 559 L 158 501 C 170 508 184 514 200 518 C 216 522 232 525 249 525 C 265 525 282 522 298 518 C 314 514 328 508 342 500 L 400 560 L 446 513 L 392 457 C 402 442 411 426 417 409 C 423 391 427 373 427 354 C 427 334 423 315 417 297 C 410 279 401 262 389 248 L 441 194 Z M 249 257 C 277 257 301 266 321 286 C 341 306 352 328 352 354 C 352 380 341 402 321 422 C 301 441 277 451 249 451 C 220 451 196 441 176 422 C 156 402 147 380 147 354 C 147 328 156 306 176 286 C 196 266 220 257 249 257 Z" unicode="¤" />
<glyph horiz-adv-x="665" d="M 574 120 L 385 120 L 385 0 L 275 0 L 275 120 L 86 120 L 86 192 L 275 192 L 275 251 L 85 251 L 85 323 L 274 323 L 28 730 L 151 730 L 336 412 L 521 730 L 637 730 L 389 323 L 573 323 L 573 251 L 385 251 L 385 192 L 574 192 L 574 120 Z" unicode="¥" />
<glyph horiz-adv-x="282" d="M 97 351 L 97 730 L 185 730 L 185 351 L 97 351 Z M 185 200 L 185 -179 L 97 -179 L 97 200 L 185 200 Z" unicode="¦" />
<glyph horiz-adv-x="675" d="M 356 -181 C 297 -181 242 -174 192 -161 C 141 -147 99 -129 65 -107 L 109 -22 C 141 -43 180 -61 225 -75 C 270 -89 312 -97 351 -97 C 386 -97 415 -89 438 -73 C 461 -57 473 -34 473 -6 C 473 20 463 40 443 54 C 423 68 396 81 364 94 L 244 143 C 212 155 185 167 161 178 C 137 189 116 201 100 214 C 84 227 71 242 63 260 C 55 277 51 298 51 323 C 51 353 58 379 74 399 C 90 419 109 437 132 451 C 112 463 98 479 89 499 C 80 519 76 543 76 573 C 76 599 82 623 95 644 C 107 665 125 683 147 697 C 169 711 196 722 227 730 C 257 738 291 742 327 742 C 390 742 442 733 482 717 C 522 700 556 682 584 664 L 539 586 C 508 605 476 622 442 638 C 408 653 368 661 324 661 C 284 661 250 653 224 637 C 197 621 184 600 184 573 C 184 553 191 537 206 524 C 220 510 242 498 272 488 L 433 427 C 495 405 542 381 575 357 C 607 332 624 296 624 250 C 624 213 612 184 588 162 C 564 140 536 126 506 119 C 521 110 538 95 556 75 C 574 54 583 27 583 -7 C 583 -34 577 -58 565 -80 C 553 -102 538 -120 518 -135 C 498 -149 474 -161 446 -169 C 418 -177 388 -181 356 -181 Z M 432 171 C 453 173 473 179 491 190 C 509 201 518 218 518 241 C 518 263 507 281 486 297 C 464 313 427 330 373 349 L 222 408 C 203 400 187 390 175 379 C 162 368 156 352 156 332 C 156 307 167 287 189 271 C 211 255 249 238 303 221 L 432 171 Z" unicode="§" />
<glyph horiz-adv-x="500" d="M 387 593 L 301 593 L 301 752 L 387 752 L 387 593 Z M 199 593 L 113 593 L 113 752 L 199 752 L 199 593 Z" unicode="¨" />
<glyph horiz-adv-x="855" d="M 427 -12 C 375 -12 326 -2 280 18 C 234 38 194 64 160 98 C 126 132 100 172 80 218 C 60 264 50 313 50 365 C 50 417 60 466 80 512 C 100 558 126 597 160 631 C 194 665 234 692 280 712 C 326 732 375 742 427 742 C 479 742 528 732 574 712 C 620 692 659 665 693 631 C 727 597 754 558 774 512 C 794 466 804 417 804 365 C 804 313 794 264 774 218 C 754 172 727 132 693 98 C 659 64 620 38 574 18 C 528 -2 479 -12 427 -12 Z M 428 53 C 470 53 510 61 548 77 C 586 93 619 116 647 144 C 675 172 697 205 713 243 C 729 281 737 321 737 364 C 737 406 729 447 713 485 C 697 523 675 557 647 585 C 619 613 586 635 548 652 C 510 668 470 677 428 677 C 385 677 345 668 307 652 C 269 635 237 613 209 585 C 181 557 158 523 142 485 C 126 447 118 406 118 364 C 118 321 126 281 142 243 C 158 205 181 172 209 144 C 237 116 269 93 307 77 C 345 61 385 53 428 53 Z M 600 236 C 584 211 561 190 533 174 C 504 157 469 149 427 149 C 401 149 375 153 351 163 C 327 172 305 186 287 204 C 268 222 253 244 242 271 C 230 298 225 329 225 365 C 225 399 230 430 240 458 C 250 486 264 509 282 529 C 300 548 321 563 345 573 C 369 583 395 589 423 589 C 467 589 503 581 531 566 C 559 551 580 532 596 508 L 523 455 C 513 469 501 480 486 490 C 470 499 450 504 426 504 C 394 504 368 490 348 463 C 327 436 317 402 317 362 C 317 320 328 287 351 263 C 373 239 399 228 428 228 C 450 228 470 233 488 243 C 505 253 519 267 530 283 L 600 236 Z" unicode="©" />
<glyph horiz-adv-x="524" d="M 464 270 L 379 270 L 379 332 C 361 309 337 292 306 280 C 274 268 241 263 205 263 C 153 263 113 276 84 302 C 54 328 40 363 40 408 C 40 458 60 496 100 523 C 140 550 196 566 267 570 L 380 576 L 380 581 C 380 603 370 621 350 635 C 330 649 303 656 268 656 C 238 656 209 651 181 641 C 153 631 127 618 104 604 L 70 680 C 94 697 124 712 160 724 C 195 736 235 743 280 743 C 336 743 381 730 414 704 C 447 678 464 637 464 579 L 464 270 Z M 377 406 L 377 502 L 260 496 C 223 494 193 488 170 477 C 146 466 135 447 135 419 C 135 396 144 378 163 366 C 181 353 206 347 237 347 C 264 347 290 352 316 362 C 342 372 362 387 377 406 Z M 479 122 L 47 122 L 47 210 L 479 210 L 479 122 Z" unicode="ª" />
<glyph horiz-adv-x="467" d="M 213 94 L 27 278 L 27 340 L 213 521 L 213 414 L 115 309 L 213 206 L 213 94 Z M 436 94 L 249 278 L 249 340 L 436 521 L 436 414 L 338 309 L 436 206 L 436 94 Z" unicode="«" />
<glyph horiz-adv-x="500" d="M 452 392 L 452 130 L 366 130 L 366 303 L 30 303 L 30 392 L 452 392 Z" unicode="¬" />
<glyph horiz-adv-x="854" d="M 427 -12 C 375 -12 326 -2 280 18 C 234 38 194 64 160 98 C 126 132 100 172 80 218 C 60 264 50 313 50 365 C 50 417 60 466 80 512 C 100 558 126 597 160 631 C 194 665 234 692 280 712 C 326 732 375 742 427 742 C 479 742 528 732 574 712 C 620 692 659 665 693 631 C 727 597 754 558 774 512 C 794 466 804 417 804 365 C 804 313 794 264 774 218 C 754 172 727 132 693 98 C 659 64 620 38 574 18 C 528 -2 479 -12 427 -12 Z M 427 53 C 469 53 509 61 547 77 C 585 93 618 116 646 144 C 674 172 696 205 712 243 C 728 281 737 321 737 365 C 737 407 728 448 712 486 C 696 524 674 557 646 585 C 618 613 585 636 547 652 C 509 668 469 677 427 677 C 385 677 345 668 307 652 C 269 636 236 613 208 585 C 180 557 157 524 141 486 C 125 448 117 407 117 365 C 117 321 125 281 141 243 C 157 205 180 172 208 144 C 236 116 269 93 307 77 C 345 61 385 53 427 53 Z M 280 157 L 280 591 L 449 591 C 467 591 484 588 501 584 C 518 579 533 572 546 562 C 559 552 570 540 578 525 C 586 509 590 491 590 470 C 590 432 580 402 562 382 C 544 361 523 349 499 346 L 498 342 L 634 157 L 539 157 L 421 330 L 362 330 L 362 157 L 280 157 Z M 361 400 L 453 400 C 471 400 486 406 497 418 C 507 430 513 445 513 464 C 513 482 506 497 493 507 C 480 517 464 522 444 522 L 361 522 L 361 400 Z" unicode="®" />
<glyph horiz-adv-x="500" d="M 384 602 L 116 602 L 116 690 L 384 690 L 384 602 Z" unicode="¯" />
<glyph horiz-adv-x="436" d="M 218 366 C 192 366 167 371 144 381 C 121 391 101 404 85 421 C 68 437 55 457 45 480 C 35 503 30 528 30 554 C 30 580 35 604 45 627 C 55 650 68 670 85 687 C 101 703 121 717 144 727 C 167 737 192 742 218 742 C 244 742 268 737 291 727 C 314 717 334 703 351 687 C 367 670 381 650 391 627 C 401 604 406 580 406 554 C 406 528 401 503 391 480 C 381 457 367 437 351 421 C 334 404 314 391 291 381 C 268 371 244 366 218 366 Z M 218 450 C 246 450 271 460 292 481 C 313 501 324 526 324 554 C 324 582 313 607 292 628 C 271 648 246 659 218 659 C 189 659 164 648 143 628 C 122 607 112 582 112 554 C 112 526 122 501 143 481 C 164 460 189 450 218 450 Z" unicode="°" />
<glyph horiz-adv-x="500" d="M 476 292 L 294 292 L 294 111 L 207 111 L 207 292 L 24 292 L 24 370 L 207 370 L 207 551 L 294 551 L 294 370 L 476 370 L 476 292 Z M 471 23 L 31 23 L 31 101 L 471 101 L 471 23 Z" unicode="±" />
<glyph horiz-adv-x="320" d="M 301 372 L 19 372 L 19 405 L 173 563 C 179 569 184 576 190 585 C 196 594 199 605 199 618 C 199 630 194 641 186 651 C 178 661 165 666 148 666 C 127 666 113 659 105 647 C 97 635 92 620 92 604 L 13 604 C 13 642 25 674 51 701 C 76 727 111 741 157 741 C 201 741 234 730 256 710 C 278 690 289 665 289 637 C 289 610 284 588 275 570 C 266 552 256 538 245 528 L 163 445 L 301 445 L 301 372 Z" unicode="²" />
<glyph horiz-adv-x="346" d="M 227 569 C 254 564 275 553 291 537 C 307 520 315 500 315 477 C 315 465 312 452 308 439 C 303 425 295 413 283 402 C 271 391 255 382 235 375 C 215 367 191 364 161 364 C 119 364 86 369 63 379 C 39 389 21 399 9 409 L 57 459 C 67 452 81 446 97 440 C 113 434 133 432 156 432 C 185 432 205 437 217 448 C 229 459 235 473 235 490 C 235 507 227 518 212 524 C 197 529 179 532 159 532 L 86 532 L 86 595 L 153 595 C 172 595 188 598 200 605 C 212 611 218 621 218 634 C 218 646 212 655 202 661 C 192 667 176 671 156 671 C 138 671 121 667 105 660 C 89 653 76 645 68 637 L 20 685 C 33 699 51 712 73 724 C 95 736 127 742 168 742 C 208 742 240 733 264 717 C 288 700 300 678 300 651 C 300 629 292 611 278 597 C 263 583 246 573 227 569 Z" unicode="³" />
<glyph horiz-adv-x="500" d="M 146 602 L 250 764 L 371 764 L 248 602 L 146 602 Z" unicode="´" />
<glyph horiz-adv-x="626" d="M 79 -199 L 79 544 L 179 544 L 179 175 C 179 147 191 123 215 103 C 239 83 269 73 305 73 C 321 73 337 76 353 83 C 369 89 384 99 398 111 C 411 123 422 138 430 156 C 438 174 443 194 443 216 L 443 544 L 543 544 L 543 0 L 450 0 L 450 95 C 444 81 436 69 424 57 C 412 45 398 34 383 25 C 367 16 351 9 333 3 C 315 -2 298 -5 281 -6 C 258 -6 236 -1 216 7 C 195 16 180 29 172 46 L 172 -199 L 79 -199 Z" unicode="µ" />
<glyph horiz-adv-x="700" d="M 624 -179 L 555 -179 L 555 650 L 447 650 L 447 -179 L 378 -179 L 378 247 L 269 247 C 238 247 208 253 179 266 C 150 279 125 296 103 318 C 81 339 63 364 50 393 C 36 422 30 453 30 485 C 30 519 36 552 49 582 C 61 612 79 637 101 659 C 123 681 151 698 183 711 C 215 723 250 730 289 730 L 624 730 L 624 -179 Z M 379 331 L 379 646 L 324 646 C 282 646 248 631 222 601 C 195 571 182 533 182 488 C 182 466 185 446 192 427 C 199 408 209 391 221 377 C 233 363 248 351 264 343 C 280 335 298 331 316 331 L 379 331 Z" unicode="¶" />
<glyph horiz-adv-x="262" d="M 182 280 L 80 280 L 80 420 L 182 420 L 182 280 Z" unicode="·" />
<glyph horiz-adv-x="500" d="M 257 -189 C 232 -189 207 -186 181 -180 C 155 -174 136 -166 122 -157 L 137 -112 C 146 -117 158 -122 173 -127 C 188 -132 205 -135 223 -135 C 237 -135 249 -131 260 -125 C 270 -119 276 -111 276 -101 C 276 -89 271 -80 262 -76 C 252 -71 242 -69 232 -69 C 224 -69 217 -69 212 -70 C 206 -71 200 -73 194 -75 L 181 -61 L 242 14 L 303 14 L 253 -49 C 287 -42 315 -45 339 -58 C 362 -70 374 -89 374 -114 C 374 -139 362 -158 338 -170 C 314 -182 287 -189 257 -189 Z" unicode="¸" />
<glyph horiz-adv-x="328" d="M 136 372 L 136 631 C 128 620 115 611 95 603 C 75 595 59 590 47 588 L 47 678 C 71 680 93 687 111 697 C 129 707 148 722 168 740 L 230 740 L 230 372 L 136 372 Z" unicode="¹" />
<glyph horiz-adv-x="545" d="M 268 259 C 238 259 209 264 181 275 C 153 285 128 301 107 321 C 85 341 68 366 55 396 C 42 426 36 459 36 497 C 36 530 42 561 55 591 C 67 621 84 646 106 668 C 127 690 152 707 181 720 C 209 732 239 739 271 739 C 304 739 335 733 364 722 C 393 711 418 696 439 676 C 460 656 477 631 489 603 C 501 574 508 542 508 508 C 508 472 501 438 489 408 C 476 377 459 351 437 329 C 415 307 390 289 361 277 C 331 265 300 259 268 259 Z M 269 347 C 311 347 346 362 374 392 C 401 422 415 460 415 507 C 415 551 402 587 376 615 C 350 643 315 657 271 657 C 229 657 195 642 169 612 C 143 582 130 544 130 496 C 130 450 143 414 169 387 C 195 360 229 347 269 347 Z M 55 122 L 55 210 L 487 210 L 487 122 L 55 122 Z" unicode="º" />
<glyph horiz-adv-x="472" d="M 31 521 L 219 338 L 219 275 L 31 94 L 31 202 L 129 306 L 31 409 L 31 521 Z M 258 521 L 445 338 L 445 275 L 258 94 L 258 202 L 357 306 L 258 410 L 258 521 Z" unicode="»" />
<glyph horiz-adv-x="680" d="M 1 0 L 1 0 Z M 90 372 L 90 631 C 82 620 69 611 49 603 C 29 595 13 590 1 588 L 1 678 C 25 680 47 687 65 697 C 83 707 102 722 122 740 L 184 740 L 184 372 L 90 372 Z M 568 730 L 207 0 L 119 0 L 480 730 L 568 730 Z M 378 81 L 378 142 L 562 365 L 620 365 L 620 146 L 680 146 L 680 81 L 620 81 L 620 1 L 537 1 L 537 81 L 378 81 Z M 446 134 L 539 134 L 539 248 L 446 134 Z" unicode="¼" />
<glyph horiz-adv-x="734" d="M 1 0 L 1 0 Z M 90 372 L 90 631 C 82 620 69 611 49 603 C 29 595 13 590 1 588 L 1 678 C 25 680 47 687 65 697 C 83 707 102 722 122 740 L 184 740 L 184 372 L 90 372 Z M 568 730 L 207 0 L 119 0 L 480 730 L 568 730 Z M 725 0 L 443 0 L 443 33 L 597 191 C 603 197 608 204 614 213 C 620 222 623 233 623 246 C 623 258 618 269 610 279 C 602 289 589 294 572 294 C 551 294 537 287 529 275 C 521 263 516 248 516 232 L 437 232 C 437 270 449 302 475 329 C 500 355 535 369 581 369 C 625 369 658 358 680 338 C 702 318 713 293 713 265 C 713 238 708 216 699 198 C 690 180 680 166 669 156 L 587 73 L 725 73 L 725 0 Z" unicode="½" />
<glyph horiz-adv-x="739" d="M 1 0 L 1 0 Z M 626 730 L 265 0 L 177 0 L 538 730 L 626 730 Z M 436 81 L 436 142 L 620 365 L 678 365 L 678 146 L 738 146 L 738 81 L 678 81 L 678 1 L 595 1 L 595 81 L 436 81 Z M 504 134 L 597 134 L 597 248 L 504 134 Z M 219 569 C 246 564 267 553 283 537 C 299 520 307 500 307 477 C 307 465 304 452 300 439 C 295 425 287 413 275 402 C 263 391 247 382 227 375 C 207 367 183 364 153 364 C 111 364 78 369 55 379 C 31 389 13 399 1 409 L 49 459 C 59 452 73 446 89 440 C 105 434 125 432 148 432 C 177 432 197 437 209 448 C 221 459 227 473 227 490 C 227 507 219 518 204 524 C 189 529 171 532 151 532 L 78 532 L 78 595 L 145 595 C 164 595 180 598 192 605 C 204 611 210 621 210 634 C 210 646 204 655 194 661 C 184 667 168 671 148 671 C 130 671 113 667 97 660 C 81 653 68 645 60 637 L 12 685 C 25 699 43 712 65 724 C 87 736 119 742 160 742 C 200 742 232 733 256 717 C 280 700 292 678 292 651 C 292 629 284 611 270 597 C 255 583 238 573 219 569 Z" unicode="¾" />
<glyph horiz-adv-x="482" d="M 206 480 L 206 609 L 321 609 L 321 480 L 206 480 Z M 246 -133 C 214 -133 185 -128 158 -120 C 130 -112 107 -100 87 -85 C 67 -69 51 -50 39 -28 C 27 -6 22 19 22 47 C 22 73 26 97 34 117 C 42 137 53 155 65 171 C 77 186 91 199 106 211 C 120 223 134 233 147 242 C 175 262 194 287 202 316 C 210 345 214 374 215 403 L 317 403 C 317 354 311 315 301 286 C 291 257 269 230 237 206 C 210 186 185 166 163 145 C 141 123 130 95 130 61 C 130 30 142 5 166 -12 C 190 -30 221 -40 257 -40 C 289 -40 317 -32 343 -18 C 369 -4 390 13 406 33 L 474 -34 C 453 -59 423 -82 385 -102 C 346 -122 300 -133 246 -133 Z" unicode="¿" />
<glyph horiz-adv-x="660" d="M 0 0 L 0 0 Z M 660 0 L 543 0 L 470 181 L 178 181 L 110 0 L 0 0 L 296 733 L 369 733 L 660 0 Z M 445 265 L 324 571 L 204 265 L 445 265 Z M 324 778 L 324 778 Z M 437 778 L 334 778 L 211 941 L 331 941 L 437 778 Z" unicode="À" />
<glyph horiz-adv-x="660" d="M 0 0 L 0 0 Z M 660 0 L 543 0 L 470 181 L 178 181 L 110 0 L 0 0 L 296 733 L 369 733 L 660 0 Z M 445 265 L 324 571 L 204 265 L 445 265 Z M 324 788 L 324 788 Z M 212 788 L 316 950 L 437 950 L 314 788 L 212 788 Z" unicode="Á" />
<glyph horiz-adv-x="660" d="M 0 0 L 0 0 Z M 660 0 L 543 0 L 470 181 L 178 181 L 110 0 L 0 0 L 296 733 L 369 733 L 660 0 Z M 445 265 L 324 571 L 204 265 L 445 265 Z M 324 779 L 324 779 Z M 500 779 L 405 779 L 324 890 L 242 779 L 149 779 L 272 951 L 377 951 L 500 779 Z" unicode="Â" />
<glyph horiz-adv-x="660" d="M 0 0 L 0 0 Z M 660 0 L 543 0 L 470 181 L 178 181 L 110 0 L 0 0 L 296 733 L 369 733 L 660 0 Z M 445 265 L 324 571 L 204 265 L 445 265 Z M 324 785 L 324 785 Z M 421 925 L 503 925 C 503 877 495 841 480 819 C 465 796 444 785 418 785 C 399 785 382 788 368 796 C 354 803 340 811 328 821 C 317 829 306 837 295 845 C 284 853 273 857 263 857 C 252 857 243 851 236 840 C 229 829 225 812 225 789 L 144 789 C 144 836 154 871 174 894 C 194 917 216 929 239 929 C 257 929 272 925 286 917 C 299 909 312 901 324 891 C 334 882 344 874 354 868 C 364 862 373 859 383 859 C 393 859 402 864 409 875 C 416 886 420 903 421 925 Z" unicode="Ã" />
<glyph horiz-adv-x="660" d="M 0 0 L 0 0 Z M 660 0 L 543 0 L 470 181 L 178 181 L 110 0 L 0 0 L 296 733 L 369 733 L 660 0 Z M 445 265 L 324 571 L 204 265 L 445 265 Z M 324 779 L 324 779 Z M 461 779 L 375 779 L 375 938 L 461 938 L 461 779 Z M 273 779 L 187 779 L 187 938 L 273 938 L 273 779 Z" unicode="Ä" />
<glyph horiz-adv-x="660" d="M 0 0 L 0 0 Z M 660 0 L 543 0 L 470 181 L 178 181 L 110 0 L 0 0 L 296 733 L 369 733 L 660 0 Z M 445 265 L 324 571 L 204 265 L 445 265 Z M 324 779 L 324 779 Z M 324 779 C 290 779 260 791 236 816 C 212 840 200 870 200 905 C 200 939 212 968 236 992 C 260 1016 290 1029 324 1029 C 359 1029 389 1016 413 992 C 437 968 449 939 449 905 C 449 870 437 840 413 816 C 389 791 359 779 324 779 Z M 324 845 C 340 845 354 850 365 862 C 376 874 382 888 382 905 C 382 921 376 934 365 946 C 354 958 340 964 324 964 C 308 964 294 958 283 946 C 271 934 266 921 266 905 C 266 888 271 874 283 862 C 294 850 308 845 324 845 Z" unicode="Å" />
<glyph horiz-adv-x="980" d="M 929 0 L 490 0 L 490 242 L 246 242 L 94 0 L -23 0 L 438 730 L 910 730 L 910 634 L 594 634 L 594 411 L 894 411 L 894 319 L 594 319 L 594 96 L 929 96 L 929 0 Z M 490 334 L 490 653 L 297 334 L 490 334 Z" unicode="Æ" />
<glyph horiz-adv-x="747" d="M 46 0 L 46 0 Z M 407 -12 C 358 -12 312 -3 268 14 C 224 32 186 57 153 89 C 120 121 94 161 75 208 C 55 254 46 307 46 365 C 46 420 55 471 73 518 C 91 564 117 604 149 637 C 181 670 219 696 263 714 C 307 732 356 742 408 742 C 474 742 531 732 579 712 C 627 692 668 661 701 619 L 617 550 C 594 576 566 598 534 615 C 501 632 460 641 410 641 C 332 641 270 616 225 567 C 179 517 157 452 157 370 C 157 323 164 282 179 247 C 194 211 214 182 238 158 C 262 134 290 117 322 105 C 354 93 386 87 420 87 C 470 87 512 97 548 117 C 583 137 612 163 635 196 L 717 137 C 689 96 649 61 596 32 C 543 2 480 -12 407 -12 Z M 407 -10 L 407 -10 Z M 416 -199 C 391 -199 366 -196 340 -190 C 314 -184 295 -176 281 -167 L 296 -122 C 305 -127 317 -132 332 -137 C 347 -142 364 -145 382 -145 C 396 -145 408 -141 419 -135 C 429 -129 435 -121 435 -111 C 435 -99 430 -90 421 -86 C 411 -81 401 -79 391 -79 C 383 -79 376 -79 371 -80 C 365 -81 359 -83 353 -85 L 340 -71 L 401 4 L 462 4 L 412 -59 C 446 -52 474 -55 498 -68 C 521 -80 533 -99 533 -124 C 533 -149 521 -168 497 -180 C 473 -192 446 -199 416 -199 Z" unicode="Ç" />
<glyph horiz-adv-x="593" d="M 94 0 L 94 0 Z M 537 0 L 94 0 L 94 730 L 518 730 L 518 634 L 202 634 L 202 412 L 502 412 L 502 318 L 202 318 L 202 96 L 537 96 L 537 0 Z M 315 778 L 315 778 Z M 428 778 L 325 778 L 202 941 L 322 941 L 428 778 Z" unicode="È" />
<glyph horiz-adv-x="593" d="M 94 0 L 94 0 Z M 537 0 L 94 0 L 94 730 L 518 730 L 518 634 L 202 634 L 202 412 L 502 412 L 502 318 L 202 318 L 202 96 L 537 96 L 537 0 Z M 315 788 L 315 788 Z M 203 788 L 307 950 L 428 950 L 305 788 L 203 788 Z" unicode="É" />
<glyph horiz-adv-x="593" d="M 94 0 L 94 0 Z M 537 0 L 94 0 L 94 730 L 518 730 L 518 634 L 202 634 L 202 412 L 502 412 L 502 318 L 202 318 L 202 96 L 537 96 L 537 0 Z M 315 779 L 315 779 Z M 491 779 L 396 779 L 315 890 L 233 779 L 140 779 L 263 951 L 368 951 L 491 779 Z" unicode="Ê" />
<glyph horiz-adv-x="593" d="M 94 0 L 94 0 Z M 537 0 L 94 0 L 94 730 L 518 730 L 518 634 L 202 634 L 202 412 L 502 412 L 502 318 L 202 318 L 202 96 L 537 96 L 537 0 Z M 315 779 L 315 779 Z M 452 779 L 366 779 L 366 938 L 452 938 L 452 779 Z M 264 779 L 178 779 L 178 938 L 264 938 L 264 779 Z" unicode="Ë" />
<glyph horiz-adv-x="306" d="M 39 0 L 39 0 Z M 208 0 L 98 0 L 98 730 L 208 730 L 208 0 Z M 152 778 L 152 778 Z M 265 778 L 162 778 L 39 941 L 159 941 L 265 778 Z" unicode="Ì" />
<glyph horiz-adv-x="306" d="M 40 0 L 40 0 Z M 208 0 L 98 0 L 98 730 L 208 730 L 208 0 Z M 152 788 L 152 788 Z M 40 788 L 144 950 L 265 950 L 142 788 L 40 788 Z" unicode="Í" />
<glyph horiz-adv-x="306" d="M 0 0 L 0 0 Z M 208 0 L 98 0 L 98 730 L 208 730 L 208 0 Z M 152 779 L 152 779 Z M 328 779 L 233 779 L 152 890 L 70 779 L -23 779 L 100 951 L 205 951 L 328 779 Z" unicode="Î" />
<glyph horiz-adv-x="306" d="M 15 0 L 15 0 Z M 208 0 L 98 0 L 98 730 L 208 730 L 208 0 Z M 152 779 L 152 779 Z M 289 779 L 203 779 L 203 938 L 289 938 L 289 779 Z M 101 779 L 15 779 L 15 938 L 101 938 L 101 779 Z" unicode="Ï" />
<glyph horiz-adv-x="752" d="M 705 367 C 705 316 696 268 679 224 C 661 179 636 140 603 107 C 569 74 528 48 478 29 C 428 9 370 0 305 0 L 94 0 L 94 318 L 35 318 L 35 396 L 94 396 L 94 730 L 321 730 C 381 730 435 721 483 704 C 531 686 571 662 604 631 C 636 599 661 561 679 516 C 696 471 705 421 705 367 Z M 199 83 L 297 83 C 350 83 395 91 433 107 C 471 123 501 144 525 170 C 548 196 565 226 576 260 C 586 294 592 329 592 365 C 592 452 567 521 519 571 C 471 621 404 647 319 647 L 199 647 L 199 396 L 374 396 L 374 318 L 199 318 L 199 83 Z" unicode="Ð" />
<glyph horiz-adv-x="791" d="M 94 0 L 94 0 Z M 697 0 L 619 0 L 196 540 L 196 0 L 94 0 L 94 730 L 178 730 L 597 196 L 597 730 L 697 730 L 697 0 Z M 395 785 L 395 785 Z M 492 925 L 574 925 C 574 877 566 841 551 819 C 536 796 515 785 489 785 C 470 785 453 788 439 796 C 425 803 411 811 399 821 C 388 829 377 837 366 845 C 355 853 344 857 334 857 C 323 857 314 851 307 840 C 300 829 296 812 296 789 L 215 789 C 215 836 225 871 245 894 C 265 917 287 929 310 929 C 328 929 343 925 357 917 C 370 909 383 901 395 891 C 405 882 415 874 425 868 C 435 862 444 859 454 859 C 464 859 473 864 480 875 C 487 886 491 903 492 925 Z" unicode="Ñ" />
<glyph horiz-adv-x="841" d="M 46 0 L 46 0 Z M 423 -12 C 367 -12 316 -2 270 17 C 224 37 184 64 151 98 C 118 132 92 172 74 219 C 55 265 46 316 46 370 C 46 424 55 473 75 519 C 94 565 120 604 153 637 C 186 670 225 696 270 714 C 315 732 363 742 415 742 C 470 742 521 732 568 714 C 614 695 654 669 688 636 C 721 603 747 564 766 518 C 784 472 794 422 794 368 C 794 312 784 260 764 214 C 744 167 718 127 684 94 C 650 60 611 34 566 16 C 520 -2 473 -12 423 -12 Z M 431 83 C 467 83 500 89 531 102 C 562 114 589 132 612 156 C 634 180 652 209 665 244 C 678 279 685 319 685 363 C 685 404 678 442 664 476 C 650 510 630 540 606 565 C 581 589 552 608 518 622 C 484 636 448 643 409 643 C 373 643 339 636 308 624 C 277 612 250 594 228 571 C 205 547 187 519 175 486 C 162 452 156 415 156 373 C 156 329 163 289 178 253 C 192 217 212 186 237 161 C 262 136 291 117 325 103 C 358 89 393 83 431 83 Z M 414 778 L 414 778 Z M 527 778 L 424 778 L 301 941 L 421 941 L 527 778 Z" unicode="Ò" />
<glyph horiz-adv-x="841" d="M 46 0 L 46 0 Z M 423 -12 C 367 -12 316 -2 270 17 C 224 37 184 64 151 98 C 118 132 92 172 74 219 C 55 265 46 316 46 370 C 46 424 55 473 75 519 C 94 565 120 604 153 637 C 186 670 225 696 270 714 C 315 732 363 742 415 742 C 470 742 521 732 568 714 C 614 695 654 669 688 636 C 721 603 747 564 766 518 C 784 472 794 422 794 368 C 794 312 784 260 764 214 C 744 167 718 127 684 94 C 650 60 611 34 566 16 C 520 -2 473 -12 423 -12 Z M 431 83 C 467 83 500 89 531 102 C 562 114 589 132 612 156 C 634 180 652 209 665 244 C 678 279 685 319 685 363 C 685 404 678 442 664 476 C 650 510 630 540 606 565 C 581 589 552 608 518 622 C 484 636 448 643 409 643 C 373 643 339 636 308 624 C 277 612 250 594 228 571 C 205 547 187 519 175 486 C 162 452 156 415 156 373 C 156 329 163 289 178 253 C 192 217 212 186 237 161 C 262 136 291 117 325 103 C 358 89 393 83 431 83 Z M 414 788 L 414 788 Z M 302 788 L 406 950 L 527 950 L 404 788 L 302 788 Z" unicode="Ó" />
<glyph horiz-adv-x="841" d="M 46 0 L 46 0 Z M 423 -12 C 367 -12 316 -2 270 17 C 224 37 184 64 151 98 C 118 132 92 172 74 219 C 55 265 46 316 46 370 C 46 424 55 473 75 519 C 94 565 120 604 153 637 C 186 670 225 696 270 714 C 315 732 363 742 415 742 C 470 742 521 732 568 714 C 614 695 654 669 688 636 C 721 603 747 564 766 518 C 784 472 794 422 794 368 C 794 312 784 260 764 214 C 744 167 718 127 684 94 C 650 60 611 34 566 16 C 520 -2 473 -12 423 -12 Z M 431 83 C 467 83 500 89 531 102 C 562 114 589 132 612 156 C 634 180 652 209 665 244 C 678 279 685 319 685 363 C 685 404 678 442 664 476 C 650 510 630 540 606 565 C 581 589 552 608 518 622 C 484 636 448 643 409 643 C 373 643 339 636 308 624 C 277 612 250 594 228 571 C 205 547 187 519 175 486 C 162 452 156 415 156 373 C 156 329 163 289 178 253 C 192 217 212 186 237 161 C 262 136 291 117 325 103 C 358 89 393 83 431 83 Z M 414 779 L 414 779 Z M 590 779 L 495 779 L 414 890 L 332 779 L 239 779 L 362 951 L 467 951 L 590 779 Z" unicode="Ô" />
<glyph horiz-adv-x="841" d="M 46 0 L 46 0 Z M 423 -12 C 367 -12 316 -2 270 17 C 224 37 184 64 151 98 C 118 132 92 172 74 219 C 55 265 46 316 46 370 C 46 424 55 473 75 519 C 94 565 120 604 153 637 C 186 670 225 696 270 714 C 315 732 363 742 415 742 C 470 742 521 732 568 714 C 614 695 654 669 688 636 C 721 603 747 564 766 518 C 784 472 794 422 794 368 C 794 312 784 260 764 214 C 744 167 718 127 684 94 C 650 60 611 34 566 16 C 520 -2 473 -12 423 -12 Z M 431 83 C 467 83 500 89 531 102 C 562 114 589 132 612 156 C 634 180 652 209 665 244 C 678 279 685 319 685 363 C 685 404 678 442 664 476 C 650 510 630 540 606 565 C 581 589 552 608 518 622 C 484 636 448 643 409 643 C 373 643 339 636 308 624 C 277 612 250 594 228 571 C 205 547 187 519 175 486 C 162 452 156 415 156 373 C 156 329 163 289 178 253 C 192 217 212 186 237 161 C 262 136 291 117 325 103 C 358 89 393 83 431 83 Z M 414 785 L 414 785 Z M 511 925 L 593 925 C 593 877 585 841 570 819 C 555 796 534 785 508 785 C 489 785 472 788 458 796 C 444 803 430 811 418 821 C 407 829 396 837 385 845 C 374 853 363 857 353 857 C 342 857 333 851 326 840 C 319 829 315 812 315 789 L 234 789 C 234 836 244 871 264 894 C 284 917 306 929 329 929 C 347 929 362 925 376 917 C 389 909 402 901 414 891 C 424 882 434 874 444 868 C 454 862 463 859 473 859 C 483 859 492 864 499 875 C 506 886 510 903 511 925 Z" unicode="Õ" />
<glyph horiz-adv-x="841" d="M 46 0 L 46 0 Z M 423 -12 C 367 -12 316 -2 270 17 C 224 37 184 64 151 98 C 118 132 92 172 74 219 C 55 265 46 316 46 370 C 46 424 55 473 75 519 C 94 565 120 604 153 637 C 186 670 225 696 270 714 C 315 732 363 742 415 742 C 470 742 521 732 568 714 C 614 695 654 669 688 636 C 721 603 747 564 766 518 C 784 472 794 422 794 368 C 794 312 784 260 764 214 C 744 167 718 127 684 94 C 650 60 611 34 566 16 C 520 -2 473 -12 423 -12 Z M 431 83 C 467 83 500 89 531 102 C 562 114 589 132 612 156 C 634 180 652 209 665 244 C 678 279 685 319 685 363 C 685 404 678 442 664 476 C 650 510 630 540 606 565 C 581 589 552 608 518 622 C 484 636 448 643 409 643 C 373 643 339 636 308 624 C 277 612 250 594 228 571 C 205 547 187 519 175 486 C 162 452 156 415 156 373 C 156 329 163 289 178 253 C 192 217 212 186 237 161 C 262 136 291 117 325 103 C 358 89 393 83 431 83 Z M 414 779 L 414 779 Z M 551 779 L 465 779 L 465 938 L 551 938 L 551 779 Z M 363 779 L 277 779 L 277 938 L 363 938 L 363 779 Z" unicode="Ö" />
<glyph horiz-adv-x="500" d="M 114 139 L 58 196 L 193 331 L 59 465 L 115 522 L 250 388 L 385 522 L 441 465 L 307 331 L 442 196 L 385 137 L 250 274 L 114 139 Z" unicode="×" />
<glyph horiz-adv-x="841" d="M 794 368 C 794 312 784 260 764 214 C 744 167 718 127 684 94 C 650 60 611 34 566 16 C 520 -2 473 -12 423 -12 C 376 -12 332 -4 292 9 C 251 23 215 43 183 68 L 111 -4 L 53 52 L 127 126 C 101 158 81 195 67 237 C 53 279 46 323 46 370 C 46 424 55 473 75 519 C 94 565 120 604 153 637 C 186 670 225 696 270 714 C 315 732 363 742 415 742 C 463 742 508 734 550 720 C 592 706 629 686 661 661 L 746 746 L 804 690 L 718 603 C 742 572 760 537 774 497 C 787 457 794 414 794 368 Z M 156 373 C 156 339 160 308 169 280 C 177 251 189 225 204 203 L 584 584 C 560 602 534 617 504 627 C 474 637 443 643 409 643 C 373 643 339 636 308 624 C 277 612 250 594 228 571 C 205 547 187 519 175 486 C 162 452 156 415 156 373 Z M 685 363 C 685 393 681 422 673 450 C 665 477 653 502 639 525 L 258 143 C 281 123 307 108 337 98 C 367 88 398 83 431 83 C 467 83 500 89 531 102 C 562 114 589 132 612 156 C 634 180 652 209 665 244 C 678 279 685 319 685 363 Z" unicode="Ø" />
<glyph horiz-adv-x="765" d="M 90 0 L 90 0 Z M 676 730 L 676 266 C 676 222 668 183 652 149 C 636 114 615 85 589 61 C 563 37 532 19 496 7 C 460 -5 422 -12 382 -12 C 342 -12 305 -6 269 6 C 233 18 202 35 176 59 C 150 83 129 112 113 147 C 97 181 90 221 90 266 L 90 730 L 197 730 L 197 269 C 197 241 201 215 211 193 C 221 170 234 151 251 135 C 267 119 287 107 309 99 C 331 91 355 87 380 87 C 405 87 429 91 452 99 C 475 107 495 118 512 134 C 529 149 543 168 553 191 C 563 213 568 239 568 269 L 568 730 L 676 730 Z M 382 778 L 382 778 Z M 495 778 L 392 778 L 269 941 L 389 941 L 495 778 Z" unicode="Ù" />
<glyph horiz-adv-x="765" d="M 90 0 L 90 0 Z M 676 730 L 676 266 C 676 222 668 183 652 149 C 636 114 615 85 589 61 C 563 37 532 19 496 7 C 460 -5 422 -12 382 -12 C 342 -12 305 -6 269 6 C 233 18 202 35 176 59 C 150 83 129 112 113 147 C 97 181 90 221 90 266 L 90 730 L 197 730 L 197 269 C 197 241 201 215 211 193 C 221 170 234 151 251 135 C 267 119 287 107 309 99 C 331 91 355 87 380 87 C 405 87 429 91 452 99 C 475 107 495 118 512 134 C 529 149 543 168 553 191 C 563 213 568 239 568 269 L 568 730 L 676 730 Z M 382 788 L 382 788 Z M 270 788 L 374 950 L 495 950 L 372 788 L 270 788 Z" unicode="Ú" />
<glyph horiz-adv-x="765" d="M 90 0 L 90 0 Z M 676 730 L 676 266 C 676 222 668 183 652 149 C 636 114 615 85 589 61 C 563 37 532 19 496 7 C 460 -5 422 -12 382 -12 C 342 -12 305 -6 269 6 C 233 18 202 35 176 59 C 150 83 129 112 113 147 C 97 181 90 221 90 266 L 90 730 L 197 730 L 197 269 C 197 241 201 215 211 193 C 221 170 234 151 251 135 C 267 119 287 107 309 99 C 331 91 355 87 380 87 C 405 87 429 91 452 99 C 475 107 495 118 512 134 C 529 149 543 168 553 191 C 563 213 568 239 568 269 L 568 730 L 676 730 Z M 382 779 L 382 779 Z M 558 779 L 463 779 L 382 890 L 300 779 L 207 779 L 330 951 L 435 951 L 558 779 Z" unicode="Û" />
<glyph horiz-adv-x="765" d="M 90 0 L 90 0 Z M 676 730 L 676 266 C 676 222 668 183 652 149 C 636 114 615 85 589 61 C 563 37 532 19 496 7 C 460 -5 422 -12 382 -12 C 342 -12 305 -6 269 6 C 233 18 202 35 176 59 C 150 83 129 112 113 147 C 97 181 90 221 90 266 L 90 730 L 197 730 L 197 269 C 197 241 201 215 211 193 C 221 170 234 151 251 135 C 267 119 287 107 309 99 C 331 91 355 87 380 87 C 405 87 429 91 452 99 C 475 107 495 118 512 134 C 529 149 543 168 553 191 C 563 213 568 239 568 269 L 568 730 L 676 730 Z M 382 779 L 382 779 Z M 519 779 L 433 779 L 433 938 L 519 938 L 519 779 Z M 331 779 L 245 779 L 245 938 L 331 938 L 331 779 Z" unicode="Ü" />
<glyph horiz-adv-x="671" d="M 0 0 L 0 0 Z M 671 730 L 388 306 L 388 0 L 278 0 L 278 310 L 0 730 L 123 730 L 338 407 L 555 730 L 671 730 Z M 338 788 L 338 788 Z M 226 788 L 330 950 L 451 950 L 328 788 L 226 788 Z" unicode="Ý" />
<glyph horiz-adv-x="613" d="M 94 0 L 94 730 L 204 730 L 204 604 L 354 604 C 427 604 484 583 526 542 C 568 501 589 448 589 384 C 589 351 583 321 572 293 C 560 265 544 242 524 222 C 504 202 479 187 450 176 C 421 164 390 159 356 159 L 204 159 L 204 0 L 94 0 Z M 201 243 L 341 243 C 383 243 416 255 441 281 C 465 306 478 341 478 386 C 478 430 464 463 436 485 C 408 507 373 518 333 518 L 201 518 L 201 243 Z" unicode="Þ" />
<glyph horiz-adv-x="709" d="M 481 -11 C 431 -11 386 -4 347 8 C 308 20 275 37 249 59 L 293 129 C 318 111 347 97 380 87 C 413 76 445 71 476 71 C 504 71 528 78 546 92 C 564 106 573 125 573 148 C 573 166 564 183 547 198 C 529 212 496 227 446 241 C 379 259 332 279 305 301 C 278 323 265 356 265 401 C 265 420 268 437 275 452 C 282 466 291 479 302 490 C 313 500 326 509 340 515 C 354 521 369 526 384 529 C 388 533 393 539 399 549 C 405 558 409 573 410 595 C 410 637 398 669 375 691 C 352 713 325 724 295 724 C 265 724 239 715 219 698 C 199 680 189 653 189 617 L 189 0 L 86 0 L 86 633 C 86 661 91 686 101 708 C 111 730 126 748 144 763 C 162 777 183 788 208 796 C 232 803 258 807 286 807 C 315 807 343 802 370 794 C 397 786 421 774 441 758 C 461 742 477 723 489 701 C 501 678 507 653 507 626 C 507 588 501 558 491 536 C 480 514 470 499 460 490 C 435 485 411 476 389 463 C 367 449 354 433 350 414 C 350 392 361 375 385 361 C 409 347 447 332 499 318 C 562 299 608 277 637 252 C 666 226 681 193 681 152 C 681 126 675 104 665 84 C 655 64 641 47 623 33 C 605 19 583 8 559 0 C 535 -7 509 -11 481 -11 Z" unicode="ß" />
<glyph horiz-adv-x="601" d="M 41 0 L 41 0 Z M 530 0 L 429 0 L 429 73 C 409 47 382 27 348 13 C 314 0 275 -8 229 -8 C 170 -8 124 6 91 35 C 57 63 41 102 41 150 C 41 211 64 258 112 291 C 159 324 224 343 307 348 L 428 355 L 428 362 C 428 398 417 425 395 443 C 373 460 343 469 303 469 C 269 469 236 463 205 451 C 173 439 144 424 117 408 L 74 483 C 102 503 137 521 178 536 C 219 550 265 558 316 558 C 382 558 435 542 473 511 C 511 480 530 430 530 362 L 530 0 Z M 430 148 L 430 276 L 295 270 C 252 267 217 257 190 240 C 162 222 149 196 149 162 C 149 134 159 112 181 96 C 203 80 231 72 266 72 C 298 72 330 79 360 93 C 390 107 413 126 430 148 Z M 296 592 L 296 592 Z M 409 592 L 306 592 L 183 755 L 303 755 L 409 592 Z" unicode="à" />
<glyph horiz-adv-x="601" d="M 41 0 L 41 0 Z M 530 0 L 429 0 L 429 73 C 409 47 382 27 348 13 C 314 0 275 -8 229 -8 C 170 -8 124 6 91 35 C 57 63 41 102 41 150 C 41 211 64 258 112 291 C 159 324 224 343 307 348 L 428 355 L 428 362 C 428 398 417 425 395 443 C 373 460 343 469 303 469 C 269 469 236 463 205 451 C 173 439 144 424 117 408 L 74 483 C 102 503 137 521 178 536 C 219 550 265 558 316 558 C 382 558 435 542 473 511 C 511 480 530 430 530 362 L 530 0 Z M 430 148 L 430 276 L 295 270 C 252 267 217 257 190 240 C 162 222 149 196 149 162 C 149 134 159 112 181 96 C 203 80 231 72 266 72 C 298 72 330 79 360 93 C 390 107 413 126 430 148 Z M 296 602 L 296 602 Z M 184 602 L 288 764 L 409 764 L 286 602 L 184 602 Z" unicode="á" />
<glyph horiz-adv-x="601" d="M 41 0 L 41 0 Z M 530 0 L 429 0 L 429 73 C 409 47 382 27 348 13 C 314 0 275 -8 229 -8 C 170 -8 124 6 91 35 C 57 63 41 102 41 150 C 41 211 64 258 112 291 C 159 324 224 343 307 348 L 428 355 L 428 362 C 428 398 417 425 395 443 C 373 460 343 469 303 469 C 269 469 236 463 205 451 C 173 439 144 424 117 408 L 74 483 C 102 503 137 521 178 536 C 219 550 265 558 316 558 C 382 558 435 542 473 511 C 511 480 530 430 530 362 L 530 0 Z M 430 148 L 430 276 L 295 270 C 252 267 217 257 190 240 C 162 222 149 196 149 162 C 149 134 159 112 181 96 C 203 80 231 72 266 72 C 298 72 330 79 360 93 C 390 107 413 126 430 148 Z M 296 593 L 296 593 Z M 472 593 L 377 593 L 296 704 L 214 593 L 121 593 L 244 765 L 349 765 L 472 593 Z" unicode="â" />
<glyph horiz-adv-x="601" d="M 41 0 L 41 0 Z M 530 0 L 429 0 L 429 73 C 409 47 382 27 348 13 C 314 0 275 -8 229 -8 C 170 -8 124 6 91 35 C 57 63 41 102 41 150 C 41 211 64 258 112 291 C 159 324 224 343 307 348 L 428 355 L 428 362 C 428 398 417 425 395 443 C 373 460 343 469 303 469 C 269 469 236 463 205 451 C 173 439 144 424 117 408 L 74 483 C 102 503 137 521 178 536 C 219 550 265 558 316 558 C 382 558 435 542 473 511 C 511 480 530 430 530 362 L 530 0 Z M 430 148 L 430 276 L 295 270 C 252 267 217 257 190 240 C 162 222 149 196 149 162 C 149 134 159 112 181 96 C 203 80 231 72 266 72 C 298 72 330 79 360 93 C 390 107 413 126 430 148 Z M 296 599 L 296 599 Z M 393 739 L 475 739 C 475 691 467 655 452 633 C 437 610 416 599 390 599 C 371 599 354 602 340 610 C 326 617 312 625 300 635 C 289 643 278 651 267 659 C 256 667 245 671 235 671 C 224 671 215 665 208 654 C 201 643 197 626 197 603 L 116 603 C 116 650 126 685 146 708 C 166 731 188 743 211 743 C 229 743 244 739 258 731 C 271 723 284 715 296 705 C 306 696 316 688 326 682 C 336 676 345 673 355 673 C 365 673 374 678 381 689 C 388 700 392 717 393 739 Z" unicode="ã" />
<glyph horiz-adv-x="601" d="M 41 0 L 41 0 Z M 530 0 L 429 0 L 429 73 C 409 47 382 27 348 13 C 314 0 275 -8 229 -8 C 170 -8 124 6 91 35 C 57 63 41 102 41 150 C 41 211 64 258 112 291 C 159 324 224 343 307 348 L 428 355 L 428 362 C 428 398 417 425 395 443 C 373 460 343 469 303 469 C 269 469 236 463 205 451 C 173 439 144 424 117 408 L 74 483 C 102 503 137 521 178 536 C 219 550 265 558 316 558 C 382 558 435 542 473 511 C 511 480 530 430 530 362 L 530 0 Z M 430 148 L 430 276 L 295 270 C 252 267 217 257 190 240 C 162 222 149 196 149 162 C 149 134 159 112 181 96 C 203 80 231 72 266 72 C 298 72 330 79 360 93 C 390 107 413 126 430 148 Z M 296 593 L 296 593 Z M 433 593 L 347 593 L 347 752 L 433 752 L 433 593 Z M 245 593 L 159 593 L 159 752 L 245 752 L 245 593 Z" unicode="ä" />
<glyph horiz-adv-x="601" d="M 41 0 L 41 0 Z M 530 0 L 429 0 L 429 73 C 409 47 382 27 348 13 C 314 0 275 -8 229 -8 C 170 -8 124 6 91 35 C 57 63 41 102 41 150 C 41 211 64 258 112 291 C 159 324 224 343 307 348 L 428 355 L 428 362 C 428 398 417 425 395 443 C 373 460 343 469 303 469 C 269 469 236 463 205 451 C 173 439 144 424 117 408 L 74 483 C 102 503 137 521 178 536 C 219 550 265 558 316 558 C 382 558 435 542 473 511 C 511 480 530 430 530 362 L 530 0 Z M 430 148 L 430 276 L 295 270 C 252 267 217 257 190 240 C 162 222 149 196 149 162 C 149 134 159 112 181 96 C 203 80 231 72 266 72 C 298 72 330 79 360 93 C 390 107 413 126 430 148 Z M 296 593 L 296 593 Z M 296 593 C 262 593 232 605 208 630 C 184 654 172 684 172 719 C 172 753 184 782 208 806 C 232 830 262 843 296 843 C 331 843 361 830 385 806 C 409 782 421 753 421 719 C 421 684 409 654 385 630 C 361 605 331 593 296 593 Z M 296 659 C 312 659 326 664 337 676 C 348 688 354 702 354 719 C 354 735 348 748 337 760 C 326 772 312 778 296 778 C 280 778 266 772 255 760 C 243 748 238 735 238 719 C 238 702 243 688 255 676 C 266 664 280 659 296 659 Z" unicode="å" />
<glyph horiz-adv-x="1021" d="M 715 -11 C 684 -11 655 -7 629 0 C 603 8 579 18 559 30 C 538 42 521 56 507 72 C 493 87 483 102 478 117 C 461 85 433 56 393 30 C 353 4 301 -8 238 -8 C 182 -8 137 6 104 35 C 70 63 54 102 54 150 C 54 212 77 258 125 290 C 173 322 238 340 320 346 L 442 354 L 442 362 C 442 395 431 421 409 440 C 387 459 356 469 316 469 C 282 469 249 462 217 450 C 185 438 155 423 128 407 L 87 483 C 115 503 149 521 187 536 C 225 550 265 558 309 558 C 363 558 405 548 436 528 C 466 508 488 482 501 450 C 507 460 516 472 528 484 C 540 496 554 508 572 519 C 590 529 610 538 633 545 C 656 552 682 556 710 556 C 791 556 856 528 905 472 C 954 416 979 338 980 239 L 534 239 C 534 195 551 157 585 127 C 619 97 661 82 713 82 C 763 82 800 90 825 107 C 850 124 870 141 886 159 L 950 86 C 924 58 893 34 857 16 C 821 -1 773 -11 715 -11 Z M 535 314 L 873 314 C 871 356 856 392 826 422 C 796 452 756 468 706 468 C 658 468 618 452 587 422 C 555 392 538 356 535 314 Z M 274 72 C 294 72 312 75 329 82 C 346 89 362 98 376 109 C 390 120 403 132 415 145 C 426 158 436 171 444 183 L 444 275 L 308 267 C 266 264 231 256 203 243 C 175 229 162 204 162 166 C 162 135 172 112 193 96 C 214 80 241 72 274 72 Z" unicode="æ" />
<glyph horiz-adv-x="593" d="M 42 0 L 42 0 Z M 485 175 L 565 120 C 555 104 542 88 528 72 C 514 56 497 42 478 30 C 458 18 436 8 410 0 C 384 -7 355 -11 322 -11 C 282 -11 244 -4 210 9 C 175 22 145 41 121 66 C 96 90 77 120 63 155 C 49 189 42 228 42 271 C 42 312 49 350 63 385 C 77 420 97 450 123 475 C 148 500 178 520 213 534 C 247 548 285 556 326 556 C 359 556 389 551 415 543 C 441 535 464 524 484 510 C 503 496 519 481 532 463 C 544 445 554 428 561 411 L 472 371 C 460 395 443 416 419 435 C 395 454 363 464 322 464 C 296 464 272 459 251 449 C 229 439 211 425 196 408 C 181 391 169 371 161 348 C 153 324 149 299 149 273 C 149 216 164 170 196 135 C 228 99 271 82 325 82 C 369 82 404 92 428 112 C 452 132 471 153 485 175 Z M 318 -10 L 318 -10 Z M 327 -199 C 302 -199 277 -196 251 -190 C 225 -184 206 -176 192 -167 L 207 -122 C 216 -127 228 -132 243 -137 C 258 -142 275 -145 293 -145 C 307 -145 319 -141 330 -135 C 340 -129 346 -121 346 -111 C 346 -99 341 -90 332 -86 C 322 -81 312 -79 302 -79 C 294 -79 287 -79 282 -80 C 276 -81 270 -83 264 -85 L 251 -71 L 312 4 L 373 4 L 323 -59 C 357 -52 385 -55 409 -68 C 432 -80 444 -99 444 -124 C 444 -149 432 -168 408 -180 C 384 -192 357 -199 327 -199 Z" unicode="ç" />
<glyph horiz-adv-x="634" d="M 42 0 L 42 0 Z M 327 -11 C 285 -11 247 -4 212 8 C 177 20 147 39 122 63 C 97 87 77 116 63 151 C 49 186 42 226 42 271 C 42 311 49 348 63 383 C 77 417 97 447 122 473 C 146 499 176 519 210 534 C 244 548 282 556 322 556 C 403 556 468 528 517 472 C 566 416 591 337 592 237 L 146 237 C 147 216 152 196 160 178 C 168 159 180 142 195 128 C 210 114 228 102 250 94 C 272 86 296 82 323 82 C 367 82 403 89 431 104 C 458 119 481 137 499 158 L 563 86 C 537 58 506 34 470 16 C 434 -1 386 -11 327 -11 Z M 145 315 L 485 315 C 483 359 467 395 436 424 C 405 453 366 468 318 468 C 294 468 271 463 251 455 C 231 447 213 436 198 422 C 183 408 171 391 162 373 C 152 354 147 335 145 315 Z M 319 592 L 319 592 Z M 432 592 L 329 592 L 206 755 L 326 755 L 432 592 Z" unicode="è" />
<glyph horiz-adv-x="634" d="M 42 0 L 42 0 Z M 327 -11 C 285 -11 247 -4 212 8 C 177 20 147 39 122 63 C 97 87 77 116 63 151 C 49 186 42 226 42 271 C 42 311 49 348 63 383 C 77 417 97 447 122 473 C 146 499 176 519 210 534 C 244 548 282 556 322 556 C 403 556 468 528 517 472 C 566 416 591 337 592 237 L 146 237 C 147 216 152 196 160 178 C 168 159 180 142 195 128 C 210 114 228 102 250 94 C 272 86 296 82 323 82 C 367 82 403 89 431 104 C 458 119 481 137 499 158 L 563 86 C 537 58 506 34 470 16 C 434 -1 386 -11 327 -11 Z M 145 315 L 485 315 C 483 359 467 395 436 424 C 405 453 366 468 318 468 C 294 468 271 463 251 455 C 231 447 213 436 198 422 C 183 408 171 391 162 373 C 152 354 147 335 145 315 Z M 319 602 L 319 602 Z M 207 602 L 311 764 L 432 764 L 309 602 L 207 602 Z" unicode="é" />
<glyph horiz-adv-x="634" d="M 42 0 L 42 0 Z M 327 -11 C 285 -11 247 -4 212 8 C 177 20 147 39 122 63 C 97 87 77 116 63 151 C 49 186 42 226 42 271 C 42 311 49 348 63 383 C 77 417 97 447 122 473 C 146 499 176 519 210 534 C 244 548 282 556 322 556 C 403 556 468 528 517 472 C 566 416 591 337 592 237 L 146 237 C 147 216 152 196 160 178 C 168 159 180 142 195 128 C 210 114 228 102 250 94 C 272 86 296 82 323 82 C 367 82 403 89 431 104 C 458 119 481 137 499 158 L 563 86 C 537 58 506 34 470 16 C 434 -1 386 -11 327 -11 Z M 145 315 L 485 315 C 483 359 467 395 436 424 C 405 453 366 468 318 468 C 294 468 271 463 251 455 C 231 447 213 436 198 422 C 183 408 171 391 162 373 C 152 354 147 335 145 315 Z M 319 593 L 319 593 Z M 495 593 L 400 593 L 319 704 L 237 593 L 144 593 L 267 765 L 372 765 L 495 593 Z" unicode="ê" />
<glyph horiz-adv-x="634" d="M 42 0 L 42 0 Z M 327 -11 C 285 -11 247 -4 212 8 C 177 20 147 39 122 63 C 97 87 77 116 63 151 C 49 186 42 226 42 271 C 42 311 49 348 63 383 C 77 417 97 447 122 473 C 146 499 176 519 210 534 C 244 548 282 556 322 556 C 403 556 468 528 517 472 C 566 416 591 337 592 237 L 146 237 C 147 216 152 196 160 178 C 168 159 180 142 195 128 C 210 114 228 102 250 94 C 272 86 296 82 323 82 C 367 82 403 89 431 104 C 458 119 481 137 499 158 L 563 86 C 537 58 506 34 470 16 C 434 -1 386 -11 327 -11 Z M 145 315 L 485 315 C 483 359 467 395 436 424 C 405 453 366 468 318 468 C 294 468 271 463 251 455 C 231 447 213 436 198 422 C 183 408 171 391 162 373 C 152 354 147 335 145 315 Z M 319 593 L 319 593 Z M 456 593 L 370 593 L 370 752 L 456 752 L 456 593 Z M 268 593 L 182 593 L 182 752 L 268 752 L 268 593 Z" unicode="ë" />
<glyph horiz-adv-x="280" d="M 27 0 L 27 0 Z M 192 0 L 88 0 L 88 544 L 192 544 L 192 0 Z M 140 592 L 140 592 Z M 253 592 L 150 592 L 27 755 L 147 755 L 253 592 Z" unicode="ì" />
<glyph horiz-adv-x="280" d="M 28 0 L 28 0 Z M 192 0 L 88 0 L 88 544 L 192 544 L 192 0 Z M 140 602 L 140 602 Z M 28 602 L 132 764 L 253 764 L 130 602 L 28 602 Z" unicode="í" />
<glyph horiz-adv-x="280" d="M 0 0 L 0 0 Z M 192 0 L 88 0 L 88 544 L 192 544 L 192 0 Z M 140 593 L 140 593 Z M 316 593 L 221 593 L 140 704 L 58 593 L -35 593 L 88 765 L 193 765 L 316 593 Z" unicode="î" />
<glyph horiz-adv-x="280" d="M 3 0 L 3 0 Z M 192 0 L 88 0 L 88 544 L 192 544 L 192 0 Z M 140 593 L 140 593 Z M 277 593 L 191 593 L 191 752 L 277 752 L 277 593 Z M 89 593 L 3 593 L 3 752 L 89 752 L 89 593 Z" unicode="ï" />
<glyph horiz-adv-x="652" d="M 604 302 C 604 258 597 216 585 178 C 573 140 555 107 531 79 C 507 51 477 29 442 13 C 406 -2 366 -11 321 -11 C 281 -11 245 -4 211 8 C 177 20 147 38 123 62 C 98 85 78 113 64 147 C 50 180 43 217 43 259 C 43 296 50 331 64 365 C 78 399 97 428 121 453 C 145 478 172 498 204 513 C 236 527 269 535 303 535 C 345 535 383 524 419 504 C 454 483 479 457 495 427 C 489 478 479 523 463 562 C 447 601 428 634 408 662 L 266 605 L 248 652 L 373 701 C 354 719 335 733 316 745 C 297 756 279 765 263 771 L 360 801 C 372 797 387 789 404 778 C 420 766 437 752 454 734 L 536 766 L 552 719 L 488 693 C 518 651 545 598 569 533 C 592 467 604 390 604 302 Z M 325 76 C 381 76 425 94 457 130 C 489 166 505 213 505 271 C 505 325 489 369 457 403 C 425 437 382 454 326 454 C 273 454 230 436 198 400 C 166 364 150 319 150 266 C 150 210 166 164 200 129 C 233 93 275 76 325 76 Z" unicode="ð" />
<glyph horiz-adv-x="643" d="M 86 0 L 86 0 Z M 564 0 L 461 0 L 461 370 C 461 400 449 424 425 441 C 401 458 373 467 342 467 C 324 467 307 464 289 459 C 271 453 254 445 240 435 C 225 424 213 410 203 394 C 193 378 189 359 189 337 L 189 0 L 86 0 L 86 544 L 175 544 L 175 428 C 187 466 211 496 248 520 C 284 544 327 556 376 556 C 400 556 424 552 447 545 C 469 537 489 527 507 514 C 524 500 538 484 548 465 C 558 446 564 425 564 402 L 564 0 Z M 342 599 L 342 599 Z M 439 739 L 521 739 C 521 691 513 655 498 633 C 483 610 462 599 436 599 C 417 599 400 602 386 610 C 372 617 358 625 346 635 C 335 643 324 651 313 659 C 302 667 291 671 281 671 C 270 671 261 665 254 654 C 247 643 243 626 243 603 L 162 603 C 162 650 172 685 192 708 C 212 731 234 743 257 743 C 275 743 290 739 304 731 C 317 723 330 715 342 705 C 352 696 362 688 372 682 C 382 676 391 673 401 673 C 411 673 420 678 427 689 C 434 700 438 717 439 739 Z" unicode="ñ" />
<glyph horiz-adv-x="655" d="M 42 0 L 42 0 Z M 323 -11 C 287 -11 252 -4 218 8 C 184 20 154 39 128 63 C 102 87 81 116 65 151 C 49 186 42 226 42 270 C 42 310 49 348 65 383 C 80 418 100 448 126 474 C 152 499 182 519 216 534 C 250 548 287 556 325 556 C 365 556 402 549 438 537 C 473 524 503 506 529 482 C 555 458 575 430 590 397 C 605 363 613 326 613 285 C 613 241 605 201 590 165 C 574 129 553 98 527 72 C 501 46 470 25 435 11 C 399 -3 362 -11 323 -11 Z M 329 81 C 381 81 424 100 457 138 C 489 176 506 223 506 280 C 506 332 489 375 455 410 C 421 445 377 463 322 463 C 270 463 229 444 197 407 C 165 370 150 324 150 268 C 150 210 167 164 202 131 C 236 97 279 81 329 81 Z M 325 592 L 325 592 Z M 438 592 L 335 592 L 212 755 L 332 755 L 438 592 Z" unicode="ò" />
<glyph horiz-adv-x="655" d="M 42 0 L 42 0 Z M 323 -11 C 287 -11 252 -4 218 8 C 184 20 154 39 128 63 C 102 87 81 116 65 151 C 49 186 42 226 42 270 C 42 310 49 348 65 383 C 80 418 100 448 126 474 C 152 499 182 519 216 534 C 250 548 287 556 325 556 C 365 556 402 549 438 537 C 473 524 503 506 529 482 C 555 458 575 430 590 397 C 605 363 613 326 613 285 C 613 241 605 201 590 165 C 574 129 553 98 527 72 C 501 46 470 25 435 11 C 399 -3 362 -11 323 -11 Z M 329 81 C 381 81 424 100 457 138 C 489 176 506 223 506 280 C 506 332 489 375 455 410 C 421 445 377 463 322 463 C 270 463 229 444 197 407 C 165 370 150 324 150 268 C 150 210 167 164 202 131 C 236 97 279 81 329 81 Z M 325 602 L 325 602 Z M 213 602 L 317 764 L 438 764 L 315 602 L 213 602 Z" unicode="ó" />
<glyph horiz-adv-x="655" d="M 42 0 L 42 0 Z M 323 -11 C 287 -11 252 -4 218 8 C 184 20 154 39 128 63 C 102 87 81 116 65 151 C 49 186 42 226 42 270 C 42 310 49 348 65 383 C 80 418 100 448 126 474 C 152 499 182 519 216 534 C 250 548 287 556 325 556 C 365 556 402 549 438 537 C 473 524 503 506 529 482 C 555 458 575 430 590 397 C 605 363 613 326 613 285 C 613 241 605 201 590 165 C 574 129 553 98 527 72 C 501 46 470 25 435 11 C 399 -3 362 -11 323 -11 Z M 329 81 C 381 81 424 100 457 138 C 489 176 506 223 506 280 C 506 332 489 375 455 410 C 421 445 377 463 322 463 C 270 463 229 444 197 407 C 165 370 150 324 150 268 C 150 210 167 164 202 131 C 236 97 279 81 329 81 Z M 325 593 L 325 593 Z M 501 593 L 406 593 L 325 704 L 243 593 L 150 593 L 273 765 L 378 765 L 501 593 Z" unicode="ô" />
<glyph horiz-adv-x="655" d="M 42 0 L 42 0 Z M 323 -11 C 287 -11 252 -4 218 8 C 184 20 154 39 128 63 C 102 87 81 116 65 151 C 49 186 42 226 42 270 C 42 310 49 348 65 383 C 80 418 100 448 126 474 C 152 499 182 519 216 534 C 250 548 287 556 325 556 C 365 556 402 549 438 537 C 473 524 503 506 529 482 C 555 458 575 430 590 397 C 605 363 613 326 613 285 C 613 241 605 201 590 165 C 574 129 553 98 527 72 C 501 46 470 25 435 11 C 399 -3 362 -11 323 -11 Z M 329 81 C 381 81 424 100 457 138 C 489 176 506 223 506 280 C 506 332 489 375 455 410 C 421 445 377 463 322 463 C 270 463 229 444 197 407 C 165 370 150 324 150 268 C 150 210 167 164 202 131 C 236 97 279 81 329 81 Z M 325 599 L 325 599 Z M 422 739 L 504 739 C 504 691 496 655 481 633 C 466 610 445 599 419 599 C 400 599 383 602 369 610 C 355 617 341 625 329 635 C 318 643 307 651 296 659 C 285 667 274 671 264 671 C 253 671 244 665 237 654 C 230 643 226 626 226 603 L 145 603 C 145 650 155 685 175 708 C 195 731 217 743 240 743 C 258 743 273 739 287 731 C 300 723 313 715 325 705 C 335 696 345 688 355 682 C 365 676 374 673 384 673 C 394 673 403 678 410 689 C 417 700 421 717 422 739 Z" unicode="õ" />
<glyph horiz-adv-x="655" d="M 42 0 L 42 0 Z M 323 -11 C 287 -11 252 -4 218 8 C 184 20 154 39 128 63 C 102 87 81 116 65 151 C 49 186 42 226 42 270 C 42 310 49 348 65 383 C 80 418 100 448 126 474 C 152 499 182 519 216 534 C 250 548 287 556 325 556 C 365 556 402 549 438 537 C 473 524 503 506 529 482 C 555 458 575 430 590 397 C 605 363 613 326 613 285 C 613 241 605 201 590 165 C 574 129 553 98 527 72 C 501 46 470 25 435 11 C 399 -3 362 -11 323 -11 Z M 329 81 C 381 81 424 100 457 138 C 489 176 506 223 506 280 C 506 332 489 375 455 410 C 421 445 377 463 322 463 C 270 463 229 444 197 407 C 165 370 150 324 150 268 C 150 210 167 164 202 131 C 236 97 279 81 329 81 Z M 325 593 L 325 593 Z M 462 593 L 376 593 L 376 752 L 462 752 L 462 593 Z M 274 593 L 188 593 L 188 752 L 274 752 L 274 593 Z" unicode="ö" />
<glyph horiz-adv-x="500" d="M 202 448 L 202 567 L 298 567 L 298 448 L 202 448 Z M 24 287 L 24 374 L 476 374 L 476 287 L 24 287 Z M 202 94 L 202 212 L 298 212 L 298 94 L 202 94 Z" unicode="÷" />
<glyph horiz-adv-x="655" d="M 323 -11 C 290 -11 258 -6 228 4 C 198 14 170 28 146 47 L 80 -19 L 22 36 L 91 105 C 75 127 63 151 55 179 C 46 207 42 237 42 270 C 42 310 49 348 65 383 C 80 418 100 448 126 474 C 152 499 182 519 216 534 C 250 548 287 556 325 556 C 357 556 387 551 416 543 C 445 535 472 523 496 508 L 562 574 L 618 520 L 554 456 C 572 433 587 407 597 379 C 607 350 613 319 613 285 C 613 241 605 201 590 165 C 574 129 553 98 527 72 C 501 46 470 25 435 11 C 399 -3 362 -11 323 -11 Z M 150 268 C 150 251 151 235 154 221 C 157 207 161 193 167 181 L 424 436 C 410 444 394 451 377 456 C 359 460 341 463 322 463 C 270 463 229 444 197 407 C 165 370 150 324 150 268 Z M 506 280 C 506 298 503 316 499 333 C 494 350 487 366 479 381 L 216 118 C 231 106 248 96 268 90 C 287 84 307 81 329 81 C 381 81 424 100 457 138 C 489 176 506 223 506 280 Z" unicode="ø" />
<glyph horiz-adv-x="643" d="M 79 0 L 79 0 Z M 79 544 L 182 544 L 182 202 C 182 156 194 123 220 104 C 246 84 278 75 316 75 C 354 75 386 87 413 111 C 440 135 454 166 454 206 L 454 544 L 557 544 L 557 0 L 464 0 L 464 108 C 455 77 434 49 401 25 C 368 0 326 -12 275 -12 C 248 -12 223 -8 199 -1 C 175 6 154 17 136 31 C 118 45 104 64 94 86 C 84 108 79 133 79 163 L 79 544 Z M 318 592 L 318 592 Z M 431 592 L 328 592 L 205 755 L 325 755 L 431 592 Z" unicode="ù" />
<glyph horiz-adv-x="643" d="M 79 0 L 79 0 Z M 79 544 L 182 544 L 182 202 C 182 156 194 123 220 104 C 246 84 278 75 316 75 C 354 75 386 87 413 111 C 440 135 454 166 454 206 L 454 544 L 557 544 L 557 0 L 464 0 L 464 108 C 455 77 434 49 401 25 C 368 0 326 -12 275 -12 C 248 -12 223 -8 199 -1 C 175 6 154 17 136 31 C 118 45 104 64 94 86 C 84 108 79 133 79 163 L 79 544 Z M 318 602 L 318 602 Z M 206 602 L 310 764 L 431 764 L 308 602 L 206 602 Z" unicode="ú" />
<glyph horiz-adv-x="643" d="M 79 0 L 79 0 Z M 79 544 L 182 544 L 182 202 C 182 156 194 123 220 104 C 246 84 278 75 316 75 C 354 75 386 87 413 111 C 440 135 454 166 454 206 L 454 544 L 557 544 L 557 0 L 464 0 L 464 108 C 455 77 434 49 401 25 C 368 0 326 -12 275 -12 C 248 -12 223 -8 199 -1 C 175 6 154 17 136 31 C 118 45 104 64 94 86 C 84 108 79 133 79 163 L 79 544 Z M 318 593 L 318 593 Z M 494 593 L 399 593 L 318 704 L 236 593 L 143 593 L 266 765 L 371 765 L 494 593 Z" unicode="û" />
<glyph horiz-adv-x="643" d="M 79 0 L 79 0 Z M 79 544 L 182 544 L 182 202 C 182 156 194 123 220 104 C 246 84 278 75 316 75 C 354 75 386 87 413 111 C 440 135 454 166 454 206 L 454 544 L 557 544 L 557 0 L 464 0 L 464 108 C 455 77 434 49 401 25 C 368 0 326 -12 275 -12 C 248 -12 223 -8 199 -1 C 175 6 154 17 136 31 C 118 45 104 64 94 86 C 84 108 79 133 79 163 L 79 544 Z M 318 593 L 318 593 Z M 455 593 L 369 593 L 369 752 L 455 752 L 455 593 Z M 267 593 L 181 593 L 181 752 L 267 752 L 267 593 Z" unicode="ü" />
<glyph horiz-adv-x="558" d="M 0 0 L 0 0 Z M 563 544 L 274 -74 C 251 -122 222 -155 188 -173 C 154 -191 121 -200 90 -200 C 72 -200 58 -198 46 -194 C 34 -190 25 -187 20 -185 L 54 -94 C 57 -96 63 -98 71 -100 C 79 -102 87 -104 97 -104 C 114 -104 130 -98 145 -86 C 159 -74 174 -55 189 -28 L 223 39 L -5 544 L 106 544 L 279 154 L 455 544 L 563 544 Z M 279 602 L 279 602 Z M 167 602 L 271 764 L 392 764 L 269 602 L 167 602 Z" unicode="ý" />
<glyph horiz-adv-x="668" d="M 86 -195 L 86 800 L 188 800 L 188 425 C 192 441 200 457 211 473 C 221 489 235 503 251 515 C 267 527 287 536 310 544 C 332 551 358 555 386 555 C 420 555 452 548 482 536 C 512 524 537 506 558 482 C 579 458 596 430 608 396 C 620 362 626 323 626 280 C 626 236 619 196 607 160 C 594 124 577 94 555 70 C 533 46 506 27 476 14 C 446 0 413 -6 378 -6 C 330 -6 289 5 256 29 C 222 53 200 82 189 117 L 189 -195 L 86 -195 Z M 355 81 C 401 81 439 99 471 136 C 503 172 519 220 519 278 C 519 332 505 377 477 413 C 449 449 409 468 356 468 C 306 468 264 451 232 419 C 199 387 183 338 183 272 C 183 205 199 156 232 126 C 265 96 306 81 355 81 Z" unicode="þ" />
<glyph horiz-adv-x="558" d="M 0 0 L 0 0 Z M 563 544 L 274 -74 C 251 -122 222 -155 188 -173 C 154 -191 121 -200 90 -200 C 72 -200 58 -198 46 -194 C 34 -190 25 -187 20 -185 L 54 -94 C 57 -96 63 -98 71 -100 C 79 -102 87 -104 97 -104 C 114 -104 130 -98 145 -86 C 159 -74 174 -55 189 -28 L 223 39 L -5 544 L 106 544 L 279 154 L 455 544 L 563 544 Z M 279 593 L 279 593 Z M 416 593 L 330 593 L 330 752 L 416 752 L 416 593 Z M 228 593 L 142 593 L 142 752 L 228 752 L 228 593 Z" unicode="ÿ" />
<glyph horiz-adv-x="660" d="M 0 0 L 0 0 Z M 660 0 L 543 0 L 470 181 L 178 181 L 110 0 L 0 0 L 296 733 L 369 733 L 660 0 Z M 445 265 L 324 571 L 204 265 L 445 265 Z M 324 788 L 324 788 Z M 458 788 L 190 788 L 190 876 L 458 876 L 458 788 Z" unicode="Ā" />
<glyph horiz-adv-x="601" d="M 41 0 L 41 0 Z M 530 0 L 429 0 L 429 73 C 409 47 382 27 348 13 C 314 0 275 -8 229 -8 C 170 -8 124 6 91 35 C 57 63 41 102 41 150 C 41 211 64 258 112 291 C 159 324 224 343 307 348 L 428 355 L 428 362 C 428 398 417 425 395 443 C 373 460 343 469 303 469 C 269 469 236 463 205 451 C 173 439 144 424 117 408 L 74 483 C 102 503 137 521 178 536 C 219 550 265 558 316 558 C 382 558 435 542 473 511 C 511 480 530 430 530 362 L 530 0 Z M 430 148 L 430 276 L 295 270 C 252 267 217 257 190 240 C 162 222 149 196 149 162 C 149 134 159 112 181 96 C 203 80 231 72 266 72 C 298 72 330 79 360 93 C 390 107 413 126 430 148 Z M 296 602 L 296 602 Z M 430 602 L 162 602 L 162 690 L 430 690 L 430 602 Z" unicode="ā" />
<glyph horiz-adv-x="660" d="M 0 0 L 0 0 Z M 660 0 L 543 0 L 470 181 L 178 181 L 110 0 L 0 0 L 296 733 L 369 733 L 660 0 Z M 445 265 L 324 571 L 204 265 L 445 265 Z M 324 783 L 324 783 Z M 400 941 L 485 941 C 481 886 464 846 434 821 C 404 795 368 783 324 783 C 280 783 243 795 213 821 C 183 846 167 886 163 941 L 248 941 C 250 914 257 892 269 876 C 281 860 299 852 324 852 C 348 852 367 859 379 875 C 391 891 398 913 400 941 Z" unicode="Ă" />
<glyph horiz-adv-x="601" d="M 41 0 L 41 0 Z M 530 0 L 429 0 L 429 73 C 409 47 382 27 348 13 C 314 0 275 -8 229 -8 C 170 -8 124 6 91 35 C 57 63 41 102 41 150 C 41 211 64 258 112 291 C 159 324 224 343 307 348 L 428 355 L 428 362 C 428 398 417 425 395 443 C 373 460 343 469 303 469 C 269 469 236 463 205 451 C 173 439 144 424 117 408 L 74 483 C 102 503 137 521 178 536 C 219 550 265 558 316 558 C 382 558 435 542 473 511 C 511 480 530 430 530 362 L 530 0 Z M 430 148 L 430 276 L 295 270 C 252 267 217 257 190 240 C 162 222 149 196 149 162 C 149 134 159 112 181 96 C 203 80 231 72 266 72 C 298 72 330 79 360 93 C 390 107 413 126 430 148 Z M 296 597 L 296 597 Z M 372 755 L 457 755 C 453 700 436 660 406 635 C 376 609 340 597 296 597 C 252 597 215 609 185 635 C 155 660 139 700 135 755 L 220 755 C 222 728 229 706 241 690 C 253 674 271 666 296 666 C 320 666 339 673 351 689 C 363 705 370 727 372 755 Z" unicode="ă" />
<glyph horiz-adv-x="660" d="M 0 0 L 0 0 Z M 660 0 L 543 0 L 470 181 L 178 181 L 110 0 L 0 0 L 296 733 L 369 733 L 660 0 Z M 445 265 L 324 571 L 204 265 L 445 265 Z M 579 -6 L 579 -6 Z M 684 -90 L 713 -132 C 692 -153 669 -169 644 -180 C 618 -191 590 -197 560 -197 C 525 -197 498 -189 478 -175 C 458 -160 448 -141 448 -119 C 448 -96 456 -74 474 -54 C 491 -33 514 -15 544 0 L 614 0 C 589 -12 570 -25 556 -39 C 542 -53 535 -66 535 -79 C 535 -91 540 -102 551 -110 C 562 -118 576 -122 593 -122 C 612 -122 629 -119 645 -113 C 661 -107 674 -99 684 -90 Z" unicode="Ą" />
<glyph horiz-adv-x="601" d="M 41 0 L 41 0 Z M 530 0 L 429 0 L 429 73 C 409 47 382 27 348 13 C 314 0 275 -8 229 -8 C 170 -8 124 6 91 35 C 57 63 41 102 41 150 C 41 211 64 258 112 291 C 159 324 224 343 307 348 L 428 355 L 428 362 C 428 398 417 425 395 443 C 373 460 343 469 303 469 C 269 469 236 463 205 451 C 173 439 144 424 117 408 L 74 483 C 102 503 137 521 178 536 C 219 550 265 558 316 558 C 382 558 435 542 473 511 C 511 480 530 430 530 362 L 530 0 Z M 430 148 L 430 276 L 295 270 C 252 267 217 257 190 240 C 162 222 149 196 149 162 C 149 134 159 112 181 96 C 203 80 231 72 266 72 C 298 72 330 79 360 93 C 390 107 413 126 430 148 Z M 465 -6 L 465 -6 Z M 570 -90 L 599 -132 C 578 -153 555 -169 530 -180 C 504 -191 476 -197 446 -197 C 411 -197 384 -189 364 -175 C 344 -160 334 -141 334 -119 C 334 -96 342 -74 360 -54 C 377 -33 400 -15 430 0 L 500 0 C 475 -12 456 -25 442 -39 C 428 -53 421 -66 421 -79 C 421 -91 426 -102 437 -110 C 448 -118 462 -122 479 -122 C 498 -122 515 -119 531 -113 C 547 -107 560 -99 570 -90 Z" unicode="ą" />
<glyph horiz-adv-x="747" d="M 46 0 L 46 0 Z M 407 -12 C 358 -12 312 -3 268 14 C 224 32 186 57 153 89 C 120 121 94 161 75 208 C 55 254 46 307 46 365 C 46 420 55 471 73 518 C 91 564 117 604 149 637 C 181 670 219 696 263 714 C 307 732 356 742 408 742 C 474 742 531 732 579 712 C 627 692 668 661 701 619 L 617 550 C 594 576 566 598 534 615 C 501 632 460 641 410 641 C 332 641 270 616 225 567 C 179 517 157 452 157 370 C 157 323 164 282 179 247 C 194 211 214 182 238 158 C 262 134 290 117 322 105 C 354 93 386 87 420 87 C 470 87 512 97 548 117 C 583 137 612 163 635 196 L 717 137 C 689 96 649 61 596 32 C 543 2 480 -12 407 -12 Z M 408 788 L 408 788 Z M 296 788 L 400 950 L 521 950 L 398 788 L 296 788 Z" unicode="Ć" />
<glyph horiz-adv-x="593" d="M 42 0 L 42 0 Z M 485 175 L 565 120 C 555 104 542 88 528 72 C 514 56 497 42 478 30 C 458 18 436 8 410 0 C 384 -7 355 -11 322 -11 C 282 -11 244 -4 210 9 C 175 22 145 41 121 66 C 96 90 77 120 63 155 C 49 189 42 228 42 271 C 42 312 49 350 63 385 C 77 420 97 450 123 475 C 148 500 178 520 213 534 C 247 548 285 556 326 556 C 359 556 389 551 415 543 C 441 535 464 524 484 510 C 503 496 519 481 532 463 C 544 445 554 428 561 411 L 472 371 C 460 395 443 416 419 435 C 395 454 363 464 322 464 C 296 464 272 459 251 449 C 229 439 211 425 196 408 C 181 391 169 371 161 348 C 153 324 149 299 149 273 C 149 216 164 170 196 135 C 228 99 271 82 325 82 C 369 82 404 92 428 112 C 452 132 471 153 485 175 Z M 325 602 L 325 602 Z M 213 602 L 317 764 L 438 764 L 315 602 L 213 602 Z" unicode="ć" />
<glyph horiz-adv-x="747" d="M 46 0 L 46 0 Z M 407 -12 C 358 -12 312 -3 268 14 C 224 32 186 57 153 89 C 120 121 94 161 75 208 C 55 254 46 307 46 365 C 46 420 55 471 73 518 C 91 564 117 604 149 637 C 181 670 219 696 263 714 C 307 732 356 742 408 742 C 474 742 531 732 579 712 C 627 692 668 661 701 619 L 617 550 C 594 576 566 598 534 615 C 501 632 460 641 410 641 C 332 641 270 616 225 567 C 179 517 157 452 157 370 C 157 323 164 282 179 247 C 194 211 214 182 238 158 C 262 134 290 117 322 105 C 354 93 386 87 420 87 C 470 87 512 97 548 117 C 583 137 612 163 635 196 L 717 137 C 689 96 649 61 596 32 C 543 2 480 -12 407 -12 Z M 408 779 L 408 779 Z M 584 779 L 489 779 L 408 890 L 326 779 L 233 779 L 356 951 L 461 951 L 584 779 Z" unicode="Ĉ" />
<glyph horiz-adv-x="593" d="M 42 0 L 42 0 Z M 485 175 L 565 120 C 555 104 542 88 528 72 C 514 56 497 42 478 30 C 458 18 436 8 410 0 C 384 -7 355 -11 322 -11 C 282 -11 244 -4 210 9 C 175 22 145 41 121 66 C 96 90 77 120 63 155 C 49 189 42 228 42 271 C 42 312 49 350 63 385 C 77 420 97 450 123 475 C 148 500 178 520 213 534 C 247 548 285 556 326 556 C 359 556 389 551 415 543 C 441 535 464 524 484 510 C 503 496 519 481 532 463 C 544 445 554 428 561 411 L 472 371 C 460 395 443 416 419 435 C 395 454 363 464 322 464 C 296 464 272 459 251 449 C 229 439 211 425 196 408 C 181 391 169 371 161 348 C 153 324 149 299 149 273 C 149 216 164 170 196 135 C 228 99 271 82 325 82 C 369 82 404 92 428 112 C 452 132 471 153 485 175 Z M 325 593 L 325 593 Z M 501 593 L 406 593 L 325 704 L 243 593 L 150 593 L 273 765 L 378 765 L 501 593 Z" unicode="ĉ" />
<glyph horiz-adv-x="747" d="M 46 0 L 46 0 Z M 407 -12 C 358 -12 312 -3 268 14 C 224 32 186 57 153 89 C 120 121 94 161 75 208 C 55 254 46 307 46 365 C 46 420 55 471 73 518 C 91 564 117 604 149 637 C 181 670 219 696 263 714 C 307 732 356 742 408 742 C 474 742 531 732 579 712 C 627 692 668 661 701 619 L 617 550 C 594 576 566 598 534 615 C 501 632 460 641 410 641 C 332 641 270 616 225 567 C 179 517 157 452 157 370 C 157 323 164 282 179 247 C 194 211 214 182 238 158 C 262 134 290 117 322 105 C 354 93 386 87 420 87 C 470 87 512 97 548 117 C 583 137 612 163 635 196 L 717 137 C 689 96 649 61 596 32 C 543 2 480 -12 407 -12 Z M 408 779 L 408 779 Z M 455 779 L 362 779 L 362 943 L 455 943 L 455 779 Z" unicode="Ċ" />
<glyph horiz-adv-x="593" d="M 42 0 L 42 0 Z M 485 175 L 565 120 C 555 104 542 88 528 72 C 514 56 497 42 478 30 C 458 18 436 8 410 0 C 384 -7 355 -11 322 -11 C 282 -11 244 -4 210 9 C 175 22 145 41 121 66 C 96 90 77 120 63 155 C 49 189 42 228 42 271 C 42 312 49 350 63 385 C 77 420 97 450 123 475 C 148 500 178 520 213 534 C 247 548 285 556 326 556 C 359 556 389 551 415 543 C 441 535 464 524 484 510 C 503 496 519 481 532 463 C 544 445 554 428 561 411 L 472 371 C 460 395 443 416 419 435 C 395 454 363 464 322 464 C 296 464 272 459 251 449 C 229 439 211 425 196 408 C 181 391 169 371 161 348 C 153 324 149 299 149 273 C 149 216 164 170 196 135 C 228 99 271 82 325 82 C 369 82 404 92 428 112 C 452 132 471 153 485 175 Z M 325 593 L 325 593 Z M 372 593 L 279 593 L 279 757 L 372 757 L 372 593 Z" unicode="ċ" />
<glyph horiz-adv-x="747" d="M 46 0 L 46 0 Z M 407 -12 C 358 -12 312 -3 268 14 C 224 32 186 57 153 89 C 120 121 94 161 75 208 C 55 254 46 307 46 365 C 46 420 55 471 73 518 C 91 564 117 604 149 637 C 181 670 219 696 263 714 C 307 732 356 742 408 742 C 474 742 531 732 579 712 C 627 692 668 661 701 619 L 617 550 C 594 576 566 598 534 615 C 501 632 460 641 410 641 C 332 641 270 616 225 567 C 179 517 157 452 157 370 C 157 323 164 282 179 247 C 194 211 214 182 238 158 C 262 134 290 117 322 105 C 354 93 386 87 420 87 C 470 87 512 97 548 117 C 583 137 612 163 635 196 L 717 137 C 689 96 649 61 596 32 C 543 2 480 -12 407 -12 Z M 408 779 L 408 779 Z M 233 951 L 328 951 L 409 841 L 491 951 L 584 951 L 461 779 L 356 779 L 233 951 Z" unicode="Č" />
<glyph horiz-adv-x="593" d="M 42 0 L 42 0 Z M 485 175 L 565 120 C 555 104 542 88 528 72 C 514 56 497 42 478 30 C 458 18 436 8 410 0 C 384 -7 355 -11 322 -11 C 282 -11 244 -4 210 9 C 175 22 145 41 121 66 C 96 90 77 120 63 155 C 49 189 42 228 42 271 C 42 312 49 350 63 385 C 77 420 97 450 123 475 C 148 500 178 520 213 534 C 247 548 285 556 326 556 C 359 556 389 551 415 543 C 441 535 464 524 484 510 C 503 496 519 481 532 463 C 544 445 554 428 561 411 L 472 371 C 460 395 443 416 419 435 C 395 454 363 464 322 464 C 296 464 272 459 251 449 C 229 439 211 425 196 408 C 181 391 169 371 161 348 C 153 324 149 299 149 273 C 149 216 164 170 196 135 C 228 99 271 82 325 82 C 369 82 404 92 428 112 C 452 132 471 153 485 175 Z M 325 593 L 325 593 Z M 150 765 L 245 765 L 326 655 L 408 765 L 501 765 L 378 593 L 273 593 L 150 765 Z" unicode="č" />
<glyph horiz-adv-x="752" d="M 94 0 L 94 0 Z M 94 0 L 94 730 L 321 730 C 381 730 435 721 483 704 C 531 687 571 663 604 633 C 636 602 661 565 679 521 C 696 477 705 429 705 377 C 705 324 696 274 679 228 C 661 182 636 142 603 108 C 569 74 528 48 478 29 C 428 9 370 0 305 0 L 94 0 Z M 204 89 L 303 89 C 351 89 394 96 430 111 C 466 126 496 147 520 173 C 543 199 560 229 572 264 C 584 299 590 336 590 376 C 590 455 565 519 517 568 C 469 617 402 642 317 642 L 204 642 L 204 89 Z M 367 779 L 367 779 Z M 192 951 L 287 951 L 368 841 L 450 951 L 543 951 L 420 779 L 315 779 L 192 951 Z" unicode="Ď" />
<glyph horiz-adv-x="668" d="M 42 0 L 42 0 Z M 294 -11 C 258 -11 224 -4 193 8 C 162 21 135 40 113 64 C 91 88 73 118 61 154 C 48 189 42 229 42 274 C 42 314 49 351 63 386 C 77 420 95 450 119 475 C 142 500 169 520 201 534 C 233 548 266 556 302 556 C 342 556 379 544 413 521 C 447 498 471 471 483 441 L 483 800 L 582 800 L 582 0 L 488 0 L 488 122 C 484 108 476 94 465 78 C 453 62 439 48 422 35 C 405 22 386 11 364 2 C 342 -6 319 -11 294 -11 Z M 314 76 C 366 76 407 94 437 132 C 467 170 483 218 483 276 C 483 308 478 336 469 360 C 460 384 448 405 433 421 C 418 437 401 449 381 457 C 361 465 340 469 318 469 C 266 469 224 451 194 415 C 164 379 149 331 149 273 C 149 217 163 170 192 132 C 221 94 262 76 314 76 Z M 717 599 L 712 446 L 626 446 L 621 599 L 621 730 L 717 730 L 717 599 Z" unicode="ď" />
<glyph horiz-adv-x="752" d="M 35 0 L 35 0 Z M 705 367 C 705 316 696 268 679 224 C 661 179 636 140 603 107 C 569 74 528 48 478 29 C 428 9 370 0 305 0 L 94 0 L 94 318 L 35 318 L 35 396 L 94 396 L 94 730 L 321 730 C 381 730 435 721 483 704 C 531 686 571 662 604 631 C 636 599 661 561 679 516 C 696 471 705 421 705 367 Z M 199 83 L 297 83 C 350 83 395 91 433 107 C 471 123 501 144 525 170 C 548 196 565 226 576 260 C 586 294 592 329 592 365 C 592 452 567 521 519 571 C 471 621 404 647 319 647 L 199 647 L 199 396 L 374 396 L 374 318 L 199 318 L 199 83 Z" unicode="Đ" />
<glyph horiz-adv-x="668" d="M 488 122 C 484 108 476 94 465 78 C 453 62 439 48 422 35 C 405 22 386 11 364 2 C 342 -6 319 -11 294 -11 C 258 -11 224 -4 193 8 C 162 21 135 40 113 64 C 91 88 73 118 61 154 C 48 189 42 229 42 274 C 42 314 49 351 63 386 C 77 420 95 450 119 475 C 142 500 169 520 201 534 C 233 548 266 556 302 556 C 342 556 379 544 413 521 C 447 498 471 471 483 441 L 483 618 L 307 618 L 307 706 L 483 706 L 483 800 L 582 800 L 582 706 L 659 706 L 659 618 L 582 618 L 582 0 L 488 0 L 488 122 Z M 314 76 C 366 76 407 94 437 132 C 467 170 483 218 483 276 C 483 308 478 336 469 360 C 460 384 448 405 433 421 C 418 437 401 449 381 457 C 361 465 340 469 318 469 C 266 469 224 451 194 415 C 164 379 149 331 149 273 C 149 217 163 170 192 132 C 221 94 262 76 314 76 Z" unicode="đ" />
<glyph horiz-adv-x="593" d="M 94 0 L 94 0 Z M 537 0 L 94 0 L 94 730 L 518 730 L 518 634 L 202 634 L 202 412 L 502 412 L 502 318 L 202 318 L 202 96 L 537 96 L 537 0 Z M 315 788 L 315 788 Z M 449 788 L 181 788 L 181 876 L 449 876 L 449 788 Z" unicode="Ē" />
<glyph horiz-adv-x="634" d="M 42 0 L 42 0 Z M 327 -11 C 285 -11 247 -4 212 8 C 177 20 147 39 122 63 C 97 87 77 116 63 151 C 49 186 42 226 42 271 C 42 311 49 348 63 383 C 77 417 97 447 122 473 C 146 499 176 519 210 534 C 244 548 282 556 322 556 C 403 556 468 528 517 472 C 566 416 591 337 592 237 L 146 237 C 147 216 152 196 160 178 C 168 159 180 142 195 128 C 210 114 228 102 250 94 C 272 86 296 82 323 82 C 367 82 403 89 431 104 C 458 119 481 137 499 158 L 563 86 C 537 58 506 34 470 16 C 434 -1 386 -11 327 -11 Z M 145 315 L 485 315 C 483 359 467 395 436 424 C 405 453 366 468 318 468 C 294 468 271 463 251 455 C 231 447 213 436 198 422 C 183 408 171 391 162 373 C 152 354 147 335 145 315 Z M 319 602 L 319 602 Z M 453 602 L 185 602 L 185 690 L 453 690 L 453 602 Z" unicode="ē" />
<glyph horiz-adv-x="593" d="M 94 0 L 94 0 Z M 537 0 L 94 0 L 94 730 L 518 730 L 518 634 L 202 634 L 202 412 L 502 412 L 502 318 L 202 318 L 202 96 L 537 96 L 537 0 Z M 315 783 L 315 783 Z M 391 941 L 476 941 C 472 886 455 846 425 821 C 395 795 359 783 315 783 C 271 783 234 795 204 821 C 174 846 158 886 154 941 L 239 941 C 241 914 248 892 260 876 C 272 860 290 852 315 852 C 339 852 358 859 370 875 C 382 891 389 913 391 941 Z" unicode="Ĕ" />
<glyph horiz-adv-x="634" d="M 42 0 L 42 0 Z M 327 -11 C 285 -11 247 -4 212 8 C 177 20 147 39 122 63 C 97 87 77 116 63 151 C 49 186 42 226 42 271 C 42 311 49 348 63 383 C 77 417 97 447 122 473 C 146 499 176 519 210 534 C 244 548 282 556 322 556 C 403 556 468 528 517 472 C 566 416 591 337 592 237 L 146 237 C 147 216 152 196 160 178 C 168 159 180 142 195 128 C 210 114 228 102 250 94 C 272 86 296 82 323 82 C 367 82 403 89 431 104 C 458 119 481 137 499 158 L 563 86 C 537 58 506 34 470 16 C 434 -1 386 -11 327 -11 Z M 145 315 L 485 315 C 483 359 467 395 436 424 C 405 453 366 468 318 468 C 294 468 271 463 251 455 C 231 447 213 436 198 422 C 183 408 171 391 162 373 C 152 354 147 335 145 315 Z M 319 597 L 319 597 Z M 395 755 L 480 755 C 476 700 459 660 429 635 C 399 609 363 597 319 597 C 275 597 238 609 208 635 C 178 660 162 700 158 755 L 243 755 C 245 728 252 706 264 690 C 276 674 294 666 319 666 C 343 666 362 673 374 689 C 386 705 393 727 395 755 Z" unicode="ĕ" />
<glyph horiz-adv-x="593" d="M 94 0 L 94 0 Z M 537 0 L 94 0 L 94 730 L 518 730 L 518 634 L 202 634 L 202 412 L 502 412 L 502 318 L 202 318 L 202 96 L 537 96 L 537 0 Z M 315 779 L 315 779 Z M 362 779 L 269 779 L 269 943 L 362 943 L 362 779 Z" unicode="Ė" />
<glyph horiz-adv-x="634" d="M 42 0 L 42 0 Z M 327 -11 C 285 -11 247 -4 212 8 C 177 20 147 39 122 63 C 97 87 77 116 63 151 C 49 186 42 226 42 271 C 42 311 49 348 63 383 C 77 417 97 447 122 473 C 146 499 176 519 210 534 C 244 548 282 556 322 556 C 403 556 468 528 517 472 C 566 416 591 337 592 237 L 146 237 C 147 216 152 196 160 178 C 168 159 180 142 195 128 C 210 114 228 102 250 94 C 272 86 296 82 323 82 C 367 82 403 89 431 104 C 458 119 481 137 499 158 L 563 86 C 537 58 506 34 470 16 C 434 -1 386 -11 327 -11 Z M 145 315 L 485 315 C 483 359 467 395 436 424 C 405 453 366 468 318 468 C 294 468 271 463 251 455 C 231 447 213 436 198 422 C 183 408 171 391 162 373 C 152 354 147 335 145 315 Z M 319 593 L 319 593 Z M 366 593 L 273 593 L 273 757 L 366 757 L 366 593 Z" unicode="ė" />
<glyph horiz-adv-x="593" d="M 94 0 L 94 0 Z M 537 0 L 94 0 L 94 730 L 518 730 L 518 634 L 202 634 L 202 412 L 502 412 L 502 318 L 202 318 L 202 96 L 537 96 L 537 0 Z M 502 -6 L 502 -6 Z M 607 -90 L 636 -132 C 615 -153 592 -169 567 -180 C 541 -191 513 -197 483 -197 C 448 -197 421 -189 401 -175 C 381 -160 371 -141 371 -119 C 371 -96 379 -74 397 -54 C 414 -33 437 -15 467 0 L 537 0 C 512 -12 493 -25 479 -39 C 465 -53 458 -66 458 -79 C 458 -91 463 -102 474 -110 C 485 -118 499 -122 516 -122 C 535 -122 552 -119 568 -113 C 584 -107 597 -99 607 -90 Z" unicode="Ę" />
<glyph horiz-adv-x="634" d="M 42 0 L 42 0 Z M 327 -11 C 285 -11 247 -4 212 8 C 177 20 147 39 122 63 C 97 87 77 116 63 151 C 49 186 42 226 42 271 C 42 311 49 348 63 383 C 77 417 97 447 122 473 C 146 499 176 519 210 534 C 244 548 282 556 322 556 C 403 556 468 528 517 472 C 566 416 591 337 592 237 L 146 237 C 147 216 152 196 160 178 C 168 159 180 142 195 128 C 210 114 228 102 250 94 C 272 86 296 82 323 82 C 367 82 403 89 431 104 C 458 119 481 137 499 158 L 563 86 C 537 58 506 34 470 16 C 434 -1 386 -11 327 -11 Z M 145 315 L 485 315 C 483 359 467 395 436 424 C 405 453 366 468 318 468 C 294 468 271 463 251 455 C 231 447 213 436 198 422 C 183 408 171 391 162 373 C 152 354 147 335 145 315 Z M 388 -6 L 388 -6 Z M 493 -90 L 522 -132 C 501 -153 478 -169 453 -180 C 427 -191 399 -197 369 -197 C 334 -197 307 -189 287 -175 C 267 -160 257 -141 257 -119 C 257 -96 265 -74 283 -54 C 300 -33 323 -15 353 0 L 423 0 C 398 -12 379 -25 365 -39 C 351 -53 344 -66 344 -79 C 344 -91 349 -102 360 -110 C 371 -118 385 -122 402 -122 C 421 -122 438 -119 454 -113 C 470 -107 483 -99 493 -90 Z" unicode="ę" />
<glyph horiz-adv-x="593" d="M 94 0 L 94 0 Z M 537 0 L 94 0 L 94 730 L 518 730 L 518 634 L 202 634 L 202 412 L 502 412 L 502 318 L 202 318 L 202 96 L 537 96 L 537 0 Z M 315 779 L 315 779 Z M 140 951 L 235 951 L 316 841 L 398 951 L 491 951 L 368 779 L 263 779 L 140 951 Z" unicode="Ě" />
<glyph horiz-adv-x="634" d="M 42 0 L 42 0 Z M 327 -11 C 285 -11 247 -4 212 8 C 177 20 147 39 122 63 C 97 87 77 116 63 151 C 49 186 42 226 42 271 C 42 311 49 348 63 383 C 77 417 97 447 122 473 C 146 499 176 519 210 534 C 244 548 282 556 322 556 C 403 556 468 528 517 472 C 566 416 591 337 592 237 L 146 237 C 147 216 152 196 160 178 C 168 159 180 142 195 128 C 210 114 228 102 250 94 C 272 86 296 82 323 82 C 367 82 403 89 431 104 C 458 119 481 137 499 158 L 563 86 C 537 58 506 34 470 16 C 434 -1 386 -11 327 -11 Z M 145 315 L 485 315 C 483 359 467 395 436 424 C 405 453 366 468 318 468 C 294 468 271 463 251 455 C 231 447 213 436 198 422 C 183 408 171 391 162 373 C 152 354 147 335 145 315 Z M 319 593 L 319 593 Z M 144 765 L 239 765 L 320 655 L 402 765 L 495 765 L 372 593 L 267 593 L 144 765 Z" unicode="ě" />
<glyph horiz-adv-x="795" d="M 46 0 L 46 0 Z M 424 370 L 743 370 L 743 154 C 713 104 670 63 612 33 C 554 3 489 -12 419 -12 C 367 -12 318 -3 272 15 C 226 33 187 58 154 91 C 120 123 94 163 75 210 C 55 256 46 308 46 365 C 46 423 55 475 75 522 C 95 568 122 608 156 640 C 190 672 229 697 275 715 C 320 733 368 742 419 742 C 489 742 547 730 593 708 C 638 685 672 661 696 635 L 625 554 C 604 576 578 596 546 614 C 514 632 470 641 416 641 C 380 641 346 635 314 623 C 282 611 255 593 232 571 C 208 548 190 520 176 486 C 162 452 156 413 156 370 C 156 326 163 286 177 250 C 191 214 209 183 233 158 C 257 133 285 114 318 100 C 350 86 385 80 422 80 C 471 80 516 89 556 108 C 596 127 625 154 643 190 L 643 276 L 424 276 L 424 370 Z M 420 779 L 420 779 Z M 596 779 L 501 779 L 420 890 L 338 779 L 245 779 L 368 951 L 473 951 L 596 779 Z" unicode="Ĝ" />
<glyph horiz-adv-x="663" d="M 43 0 L 43 0 Z M 292 6 C 256 6 222 12 192 26 C 161 39 135 57 113 81 C 91 105 73 133 61 167 C 49 200 43 237 43 277 C 43 318 49 356 61 390 C 73 424 91 454 113 478 C 135 502 161 520 193 534 C 224 547 258 554 296 554 C 342 554 382 542 417 520 C 452 497 476 468 488 433 L 488 544 L 582 544 L 582 76 C 582 28 573 -13 555 -49 C 537 -84 514 -113 486 -135 C 458 -157 426 -174 391 -185 C 355 -196 321 -202 287 -202 C 228 -202 183 -196 151 -186 C 119 -175 95 -165 79 -155 L 126 -69 C 138 -77 158 -87 185 -98 C 212 -108 243 -114 279 -114 C 307 -114 334 -110 359 -102 C 383 -94 405 -82 423 -66 C 441 -50 456 -31 467 -8 C 477 15 483 42 483 73 L 483 142 C 477 127 469 112 458 96 C 447 80 433 65 417 52 C 401 38 382 27 361 19 C 340 10 317 6 292 6 Z M 319 91 C 339 91 358 95 378 103 C 398 111 415 122 431 138 C 446 154 458 174 468 198 C 478 222 483 250 483 283 C 483 338 467 382 437 414 C 407 446 368 462 321 462 C 269 462 228 444 197 410 C 165 375 150 328 150 270 C 150 212 165 167 195 137 C 225 106 266 91 319 91 Z M 311 593 L 311 593 Z M 487 593 L 392 593 L 311 704 L 229 593 L 136 593 L 259 765 L 364 765 L 487 593 Z" unicode="ĝ" />
<glyph horiz-adv-x="795" d="M 46 0 L 46 0 Z M 424 370 L 743 370 L 743 154 C 713 104 670 63 612 33 C 554 3 489 -12 419 -12 C 367 -12 318 -3 272 15 C 226 33 187 58 154 91 C 120 123 94 163 75 210 C 55 256 46 308 46 365 C 46 423 55 475 75 522 C 95 568 122 608 156 640 C 190 672 229 697 275 715 C 320 733 368 742 419 742 C 489 742 547 730 593 708 C 638 685 672 661 696 635 L 625 554 C 604 576 578 596 546 614 C 514 632 470 641 416 641 C 380 641 346 635 314 623 C 282 611 255 593 232 571 C 208 548 190 520 176 486 C 162 452 156 413 156 370 C 156 326 163 286 177 250 C 191 214 209 183 233 158 C 257 133 285 114 318 100 C 350 86 385 80 422 80 C 471 80 516 89 556 108 C 596 127 625 154 643 190 L 643 276 L 424 276 L 424 370 Z M 420 783 L 420 783 Z M 496 941 L 581 941 C 577 886 560 846 530 821 C 500 795 464 783 420 783 C 376 783 339 795 309 821 C 279 846 263 886 259 941 L 344 941 C 346 914 353 892 365 876 C 377 860 395 852 420 852 C 444 852 463 859 475 875 C 487 891 494 913 496 941 Z" unicode="Ğ" />
<glyph horiz-adv-x="663" d="M 43 0 L 43 0 Z M 292 6 C 256 6 222 12 192 26 C 161 39 135 57 113 81 C 91 105 73 133 61 167 C 49 200 43 237 43 277 C 43 318 49 356 61 390 C 73 424 91 454 113 478 C 135 502 161 520 193 534 C 224 547 258 554 296 554 C 342 554 382 542 417 520 C 452 497 476 468 488 433 L 488 544 L 582 544 L 582 76 C 582 28 573 -13 555 -49 C 537 -84 514 -113 486 -135 C 458 -157 426 -174 391 -185 C 355 -196 321 -202 287 -202 C 228 -202 183 -196 151 -186 C 119 -175 95 -165 79 -155 L 126 -69 C 138 -77 158 -87 185 -98 C 212 -108 243 -114 279 -114 C 307 -114 334 -110 359 -102 C 383 -94 405 -82 423 -66 C 441 -50 456 -31 467 -8 C 477 15 483 42 483 73 L 483 142 C 477 127 469 112 458 96 C 447 80 433 65 417 52 C 401 38 382 27 361 19 C 340 10 317 6 292 6 Z M 319 91 C 339 91 358 95 378 103 C 398 111 415 122 431 138 C 446 154 458 174 468 198 C 478 222 483 250 483 283 C 483 338 467 382 437 414 C 407 446 368 462 321 462 C 269 462 228 444 197 410 C 165 375 150 328 150 270 C 150 212 165 167 195 137 C 225 106 266 91 319 91 Z M 311 597 L 311 597 Z M 387 755 L 472 755 C 468 700 451 660 421 635 C 391 609 355 597 311 597 C 267 597 230 609 200 635 C 170 660 154 700 150 755 L 235 755 C 237 728 244 706 256 690 C 268 674 286 666 311 666 C 335 666 354 673 366 689 C 378 705 385 727 387 755 Z" unicode="ğ" />
<glyph horiz-adv-x="795" d="M 46 0 L 46 0 Z M 424 370 L 743 370 L 743 154 C 713 104 670 63 612 33 C 554 3 489 -12 419 -12 C 367 -12 318 -3 272 15 C 226 33 187 58 154 91 C 120 123 94 163 75 210 C 55 256 46 308 46 365 C 46 423 55 475 75 522 C 95 568 122 608 156 640 C 190 672 229 697 275 715 C 320 733 368 742 419 742 C 489 742 547 730 593 708 C 638 685 672 661 696 635 L 625 554 C 604 576 578 596 546 614 C 514 632 470 641 416 641 C 380 641 346 635 314 623 C 282 611 255 593 232 571 C 208 548 190 520 176 486 C 162 452 156 413 156 370 C 156 326 163 286 177 250 C 191 214 209 183 233 158 C 257 133 285 114 318 100 C 350 86 385 80 422 80 C 471 80 516 89 556 108 C 596 127 625 154 643 190 L 643 276 L 424 276 L 424 370 Z M 420 779 L 420 779 Z M 467 779 L 374 779 L 374 943 L 467 943 L 467 779 Z" unicode="Ġ" />
<glyph horiz-adv-x="663" d="M 43 0 L 43 0 Z M 292 6 C 256 6 222 12 192 26 C 161 39 135 57 113 81 C 91 105 73 133 61 167 C 49 200 43 237 43 277 C 43 318 49 356 61 390 C 73 424 91 454 113 478 C 135 502 161 520 193 534 C 224 547 258 554 296 554 C 342 554 382 542 417 520 C 452 497 476 468 488 433 L 488 544 L 582 544 L 582 76 C 582 28 573 -13 555 -49 C 537 -84 514 -113 486 -135 C 458 -157 426 -174 391 -185 C 355 -196 321 -202 287 -202 C 228 -202 183 -196 151 -186 C 119 -175 95 -165 79 -155 L 126 -69 C 138 -77 158 -87 185 -98 C 212 -108 243 -114 279 -114 C 307 -114 334 -110 359 -102 C 383 -94 405 -82 423 -66 C 441 -50 456 -31 467 -8 C 477 15 483 42 483 73 L 483 142 C 477 127 469 112 458 96 C 447 80 433 65 417 52 C 401 38 382 27 361 19 C 340 10 317 6 292 6 Z M 319 91 C 339 91 358 95 378 103 C 398 111 415 122 431 138 C 446 154 458 174 468 198 C 478 222 483 250 483 283 C 483 338 467 382 437 414 C 407 446 368 462 321 462 C 269 462 228 444 197 410 C 165 375 150 328 150 270 C 150 212 165 167 195 137 C 225 106 266 91 319 91 Z M 311 593 L 311 593 Z M 358 593 L 265 593 L 265 757 L 358 757 L 358 593 Z" unicode="ġ" />
<glyph horiz-adv-x="795" d="M 46 0 L 46 0 Z M 424 370 L 743 370 L 743 154 C 713 104 670 63 612 33 C 554 3 489 -12 419 -12 C 367 -12 318 -3 272 15 C 226 33 187 58 154 91 C 120 123 94 163 75 210 C 55 256 46 308 46 365 C 46 423 55 475 75 522 C 95 568 122 608 156 640 C 190 672 229 697 275 715 C 320 733 368 742 419 742 C 489 742 547 730 593 708 C 638 685 672 661 696 635 L 625 554 C 604 576 578 596 546 614 C 514 632 470 641 416 641 C 380 641 346 635 314 623 C 282 611 255 593 232 571 C 208 548 190 520 176 486 C 162 452 156 413 156 370 C 156 326 163 286 177 250 C 191 214 209 183 233 158 C 257 133 285 114 318 100 C 350 86 385 80 422 80 C 471 80 516 89 556 108 C 596 127 625 154 643 190 L 643 276 L 424 276 L 424 370 Z" unicode="Ģ" />
<glyph horiz-adv-x="663" d="M 43 0 L 43 0 Z M 292 6 C 256 6 222 12 192 26 C 161 39 135 57 113 81 C 91 105 73 133 61 167 C 49 200 43 237 43 277 C 43 318 49 356 61 390 C 73 424 91 454 113 478 C 135 502 161 520 193 534 C 224 547 258 554 296 554 C 342 554 382 542 417 520 C 452 497 476 468 488 433 L 488 544 L 582 544 L 582 76 C 582 28 573 -13 555 -49 C 537 -84 514 -113 486 -135 C 458 -157 426 -174 391 -185 C 355 -196 321 -202 287 -202 C 228 -202 183 -196 151 -186 C 119 -175 95 -165 79 -155 L 126 -69 C 138 -77 158 -87 185 -98 C 212 -108 243 -114 279 -114 C 307 -114 334 -110 359 -102 C 383 -94 405 -82 423 -66 C 441 -50 456 -31 467 -8 C 477 15 483 42 483 73 L 483 142 C 477 127 469 112 458 96 C 447 80 433 65 417 52 C 401 38 382 27 361 19 C 340 10 317 6 292 6 Z M 319 91 C 339 91 358 95 378 103 C 398 111 415 122 431 138 C 446 154 458 174 468 198 C 478 222 483 250 483 283 C 483 338 467 382 437 414 C 407 446 368 462 321 462 C 269 462 228 444 197 410 C 165 375 150 328 150 270 C 150 212 165 167 195 137 C 225 106 266 91 319 91 Z" unicode="ģ" />
<glyph horiz-adv-x="768" d="M 94 0 L 94 0 Z M 674 0 L 564 0 L 564 312 L 204 312 L 204 0 L 94 0 L 94 730 L 204 730 L 204 408 L 564 408 L 564 730 L 674 730 L 674 0 Z M 383 779 L 383 779 Z M 559 779 L 464 779 L 383 890 L 301 779 L 208 779 L 331 951 L 436 951 L 559 779 Z" unicode="Ĥ" />
<glyph horiz-adv-x="643" d="M 86 0 L 86 0 Z M 564 0 L 462 0 L 462 366 C 462 397 450 422 426 440 C 402 458 374 467 340 467 C 322 467 304 464 286 459 C 268 453 251 445 237 435 C 223 424 211 411 202 395 C 193 379 189 360 189 339 L 189 0 L 86 0 L 86 800 L 180 800 L 180 442 C 188 474 210 501 246 523 C 282 545 325 556 375 556 C 399 556 423 552 446 545 C 469 538 489 528 507 515 C 524 501 538 485 548 465 C 558 445 564 422 564 397 L 564 0 Z M 370 849 L 370 849 Z M 546 849 L 451 849 L 370 960 L 288 849 L 195 849 L 318 1021 L 423 1021 L 546 849 Z" unicode="ĥ" />
<glyph horiz-adv-x="768" d="M 204 312 L 204 0 L 94 0 L 94 538 L 10 538 L 10 626 L 94 626 L 94 730 L 204 730 L 204 626 L 564 626 L 564 730 L 674 730 L 674 626 L 760 626 L 760 538 L 674 538 L 674 0 L 564 0 L 564 312 L 204 312 Z M 204 408 L 564 408 L 564 538 L 204 538 L 204 408 Z" unicode="Ħ" />
<glyph horiz-adv-x="643" d="M 189 339 L 189 0 L 86 0 L 86 618 L 10 618 L 10 706 L 86 706 L 86 800 L 180 800 L 180 706 L 361 706 L 361 618 L 180 618 L 180 442 C 188 474 210 501 246 523 C 282 545 325 556 375 556 C 399 556 423 552 446 545 C 469 538 489 528 507 515 C 524 501 538 485 548 465 C 558 445 564 422 564 397 L 564 0 L 462 0 L 462 366 C 462 397 450 422 426 440 C 402 458 374 467 340 467 C 322 467 304 464 286 459 C 268 453 251 445 237 435 C 223 424 211 411 202 395 C 193 379 189 360 189 339 Z" unicode="ħ" />
<glyph horiz-adv-x="306" d="M 0 0 L 0 0 Z M 208 0 L 98 0 L 98 730 L 208 730 L 208 0 Z M 152 785 L 152 785 Z M 249 925 L 331 925 C 331 877 323 841 308 819 C 293 796 272 785 246 785 C 227 785 210 788 196 796 C 182 803 168 811 156 821 C 145 829 134 837 123 845 C 112 853 101 857 91 857 C 80 857 71 851 64 840 C 57 829 53 812 53 789 L -28 789 C -28 836 -17 871 2 894 C 22 917 44 929 67 929 C 85 929 100 925 114 917 C 127 909 140 901 152 891 C 162 882 172 874 182 868 C 192 862 201 859 211 859 C 221 859 230 864 237 875 C 244 886 248 903 249 925 Z" unicode="Ĩ" />
<glyph horiz-adv-x="280" d="M 0 0 L 0 0 Z M 192 0 L 88 0 L 88 544 L 192 544 L 192 0 Z M 140 599 L 140 599 Z M 237 739 L 319 739 C 319 691 311 655 296 633 C 281 610 260 599 234 599 C 215 599 198 602 184 610 C 170 617 156 625 144 635 C 133 643 122 651 111 659 C 100 667 89 671 79 671 C 68 671 59 665 52 654 C 45 643 41 626 41 603 L -40 603 C -40 650 -29 685 -9 708 C 10 731 32 743 55 743 C 73 743 88 739 102 731 C 115 723 128 715 140 705 C 150 696 160 688 170 682 C 180 676 189 673 199 673 C 209 673 218 678 225 689 C 232 700 236 717 237 739 Z" unicode="ĩ" />
<glyph horiz-adv-x="306" d="M 18 0 L 18 0 Z M 208 0 L 98 0 L 98 730 L 208 730 L 208 0 Z M 152 788 L 152 788 Z M 286 788 L 18 788 L 18 876 L 286 876 L 286 788 Z" unicode="Ī" />
<glyph horiz-adv-x="280" d="M 6 0 L 6 0 Z M 192 0 L 88 0 L 88 544 L 192 544 L 192 0 Z M 140 602 L 140 602 Z M 274 602 L 6 602 L 6 690 L 274 690 L 274 602 Z" unicode="ī" />
<glyph horiz-adv-x="306" d="M 0 0 L 0 0 Z M 208 0 L 98 0 L 98 730 L 208 730 L 208 0 Z M 152 783 L 152 783 Z M 228 941 L 313 941 C 309 886 292 846 262 821 C 232 795 196 783 152 783 C 108 783 71 795 41 821 C 11 846 -5 886 -9 941 L 76 941 C 78 914 85 892 97 876 C 109 860 127 852 152 852 C 176 852 195 859 207 875 C 219 891 226 913 228 941 Z" unicode="Ĭ" />
<glyph horiz-adv-x="280" d="M 0 0 L 0 0 Z M 192 0 L 88 0 L 88 544 L 192 544 L 192 0 Z M 140 597 L 140 597 Z M 216 755 L 301 755 C 297 700 280 660 250 635 C 220 609 184 597 140 597 C 96 597 59 609 29 635 C 0 660 -17 700 -21 755 L 64 755 C 66 728 73 706 85 690 C 97 674 115 666 140 666 C 164 666 183 673 195 689 C 207 705 214 727 216 755 Z" unicode="ĭ" />
<glyph horiz-adv-x="306" d="M 3 0 L 3 0 Z M 208 0 L 98 0 L 98 730 L 208 730 L 208 0 Z M 134 -6 L 134 -6 Z M 239 -90 L 268 -132 C 247 -153 224 -169 199 -180 C 173 -191 145 -197 115 -197 C 80 -197 53 -189 33 -175 C 13 -160 3 -141 3 -119 C 3 -96 11 -74 29 -54 C 46 -33 69 -15 99 0 L 169 0 C 144 -12 125 -25 111 -39 C 97 -53 90 -66 90 -79 C 90 -91 95 -102 106 -110 C 117 -118 131 -122 148 -122 C 167 -122 184 -119 200 -113 C 216 -107 229 -99 239 -90 Z" unicode="Į" />
<glyph horiz-adv-x="280" d="M 0 0 L 0 0 Z M 86 660 L 86 774 L 194 774 L 194 660 L 86 660 Z M 88 0 L 88 544 L 192 544 L 192 0 L 88 0 Z M 124 -6 L 124 -6 Z M 229 -90 L 258 -132 C 237 -153 214 -169 189 -180 C 163 -191 135 -197 105 -197 C 70 -197 43 -189 23 -175 C 3 -160 -7 -141 -7 -119 C -7 -96 1 -74 19 -54 C 36 -33 59 -15 89 0 L 159 0 C 134 -12 115 -25 101 -39 C 87 -53 80 -66 80 -79 C 80 -91 85 -102 96 -110 C 107 -118 121 -122 138 -122 C 157 -122 174 -119 190 -113 C 206 -107 219 -99 229 -90 Z" unicode="į" />
<glyph horiz-adv-x="306" d="M 98 0 L 98 0 Z M 208 0 L 98 0 L 98 730 L 208 730 L 208 0 Z M 152 779 L 152 779 Z M 199 779 L 106 779 L 106 943 L 199 943 L 199 779 Z" unicode="İ" />
<glyph horiz-adv-x="280" d="M 192 0 L 88 0 L 88 544 L 192 544 L 192 0 Z" unicode="ı" />
<glyph horiz-adv-x="657" d="M 98 0 L 98 0 Z M 208 0 L 98 0 L 98 730 L 208 730 L 208 0 Z M 566 730 L 566 196 C 566 168 561 141 551 116 C 541 90 528 68 510 50 C 492 31 469 16 442 5 C 415 -6 385 -12 351 -12 C 332 -12 311 -10 287 -7 C 263 -3 244 2 231 11 L 272 97 C 278 93 287 90 299 88 C 311 86 323 85 336 85 C 374 85 403 96 424 118 C 445 140 456 167 456 198 L 456 730 L 566 730 Z" unicode="Ĳ" />
<glyph horiz-adv-x="529" d="M 86 0 L 86 0 Z M 86 660 L 86 774 L 194 774 L 194 660 L 86 660 Z M 88 0 L 88 544 L 192 544 L 192 0 L 88 0 Z M 451 660 L 344 660 L 344 774 L 451 774 L 451 660 Z M 449 544 L 449 1 C 449 -32 444 -61 435 -87 C 426 -113 414 -134 399 -151 C 383 -167 365 -180 345 -189 C 325 -197 303 -202 281 -202 C 254 -202 227 -199 201 -193 C 175 -187 152 -178 134 -168 L 167 -85 C 179 -92 194 -98 211 -103 C 228 -107 248 -110 270 -110 C 291 -110 309 -99 324 -77 C 338 -55 346 -27 346 6 L 346 544 L 449 544 Z" unicode="ĳ" />
<glyph horiz-adv-x="437" d="M 11 0 L 11 0 Z M 346 730 L 346 196 C 346 168 341 141 331 116 C 321 90 308 68 290 50 C 272 31 249 16 222 5 C 195 -6 165 -12 131 -12 C 112 -12 91 -10 67 -7 C 43 -3 24 2 11 11 L 52 97 C 58 93 67 90 79 88 C 91 86 103 85 116 85 C 154 85 183 96 204 118 C 225 140 236 167 236 198 L 236 730 L 346 730 Z M 289 779 L 289 779 Z M 465 779 L 370 779 L 289 890 L 207 779 L 114 779 L 237 951 L 342 951 L 465 779 Z" unicode="Ĵ" />
<glyph horiz-adv-x="330" d="M 0 0 L 0 0 Z M 250 544 L 250 1 C 250 -32 245 -61 236 -87 C 227 -113 215 -134 200 -151 C 184 -167 166 -180 146 -189 C 126 -197 104 -202 82 -202 C 55 -202 28 -199 2 -193 C -23 -187 -46 -178 -65 -168 L -32 -85 C -19 -92 -4 -98 12 -103 C 29 -107 49 -110 71 -110 C 92 -110 110 -99 125 -77 C 139 -55 147 -27 147 6 L 147 544 L 250 544 Z M 192 593 L 192 593 Z M 368 593 L 273 593 L 192 704 L 110 593 L 17 593 L 140 765 L 245 765 L 368 593 Z" unicode="ĵ" />
<glyph horiz-adv-x="681" d="M 94 0 L 94 0 Z M 668 0 L 534 0 L 302 331 L 203 209 L 203 0 L 94 0 L 94 730 L 203 730 L 203 337 L 509 730 L 630 730 L 380 411 L 668 0 Z M 333 -74 L 333 -74 Z M 433 -74 C 430 -104 425 -134 417 -163 C 409 -192 399 -219 388 -243 C 377 -267 365 -289 352 -308 C 338 -327 325 -342 312 -354 L 235 -319 C 242 -311 250 -298 260 -281 C 269 -263 278 -244 287 -222 C 295 -200 303 -176 311 -150 C 318 -124 323 -98 326 -74 L 433 -74 Z" unicode="Ķ" />
<glyph horiz-adv-x="587" d="M 86 0 L 86 0 Z M 610 3 L 492 -1 L 291 248 L 189 142 L 189 0 L 86 0 L 86 800 L 189 800 L 189 252 L 451 544 L 562 544 L 361 321 L 610 3 Z M 299 -74 L 299 -74 Z M 399 -74 C 396 -104 391 -134 383 -163 C 375 -192 365 -219 354 -243 C 343 -267 331 -289 318 -308 C 304 -327 291 -342 278 -354 L 201 -319 C 208 -311 216 -298 226 -281 C 235 -263 244 -244 253 -222 C 261 -200 269 -176 277 -150 C 284 -124 289 -98 292 -74 L 399 -74 Z" unicode="ķ" />
<glyph horiz-adv-x="587" d="M 610 3 L 492 -1 L 291 248 L 189 142 L 189 0 L 86 0 L 86 544 L 189 544 L 189 252 L 451 544 L 562 544 L 361 321 L 610 3 Z" unicode="ĸ" />
<glyph horiz-adv-x="540" d="M 94 0 L 94 0 Z M 528 0 L 94 0 L 94 730 L 204 730 L 204 96 L 528 96 L 528 0 Z M 357 788 L 357 788 Z M 245 788 L 349 950 L 470 950 L 347 788 L 245 788 Z" unicode="Ĺ" />
<glyph horiz-adv-x="318" d="M 79 0 L 79 0 Z M 79 130 L 79 800 L 182 800 L 182 163 C 182 139 188 121 201 107 C 213 93 231 86 255 86 C 263 86 273 86 283 87 C 293 88 301 90 306 92 L 308 2 C 301 0 290 -1 275 -3 C 260 -5 246 -6 233 -6 C 213 -6 194 -3 176 2 C 157 7 140 15 126 27 C 112 38 100 52 92 69 C 83 86 79 106 79 130 Z M 201 858 L 201 858 Z M 89 858 L 193 1020 L 314 1020 L 191 858 L 89 858 Z" unicode="ĺ" />
<glyph horiz-adv-x="540" d="M 94 0 L 94 0 Z M 528 0 L 94 0 L 94 730 L 204 730 L 204 96 L 528 96 L 528 0 Z M 289 -74 L 289 -74 Z M 389 -74 C 386 -104 381 -134 373 -163 C 365 -192 355 -219 344 -243 C 333 -267 321 -289 308 -308 C 294 -327 281 -342 268 -354 L 191 -319 C 198 -311 206 -298 216 -281 C 225 -263 234 -244 243 -222 C 251 -200 259 -176 267 -150 C 274 -124 279 -98 282 -74 L 389 -74 Z" unicode="Ļ" />
<glyph horiz-adv-x="318" d="M 47 0 L 47 0 Z M 79 130 L 79 800 L 182 800 L 182 163 C 182 139 188 121 201 107 C 213 93 231 86 255 86 C 263 86 273 86 283 87 C 293 88 301 90 306 92 L 308 2 C 301 0 290 -1 275 -3 C 260 -5 246 -6 233 -6 C 213 -6 194 -3 176 2 C 157 7 140 15 126 27 C 112 38 100 52 92 69 C 83 86 79 106 79 130 Z M 145 -74 L 145 -74 Z M 245 -74 C 242 -104 237 -134 229 -163 C 221 -192 211 -219 200 -243 C 189 -267 177 -289 164 -308 C 150 -327 137 -342 124 -354 L 47 -319 C 54 -311 62 -298 72 -281 C 81 -263 90 -244 99 -222 C 107 -200 115 -176 123 -150 C 130 -124 135 -98 138 -74 L 245 -74 Z" unicode="ļ" />
<glyph horiz-adv-x="540" d="M 94 0 L 94 0 Z M 528 0 L 94 0 L 94 730 L 204 730 L 204 96 L 528 96 L 528 0 Z M 563 599 L 558 446 L 472 446 L 467 599 L 467 730 L 563 730 L 563 599 Z" unicode="Ľ" />
<glyph horiz-adv-x="318" d="M 79 0 L 79 0 Z M 79 130 L 79 800 L 182 800 L 182 163 C 182 139 188 121 201 107 C 213 93 231 86 255 86 C 263 86 273 86 283 87 C 293 88 301 90 306 92 L 308 2 C 301 0 290 -1 275 -3 C 260 -5 246 -6 233 -6 C 213 -6 194 -3 176 2 C 157 7 140 15 126 27 C 112 38 100 52 92 69 C 83 86 79 106 79 130 Z M 340 599 L 335 446 L 249 446 L 244 599 L 244 730 L 340 730 L 340 599 Z" unicode="ľ" />
<glyph horiz-adv-x="540" d="M 94 0 L 94 0 Z M 528 0 L 94 0 L 94 730 L 204 730 L 204 96 L 528 96 L 528 0 Z M 360 282 L 360 282 Z M 407 282 L 314 282 L 314 446 L 407 446 L 407 282 Z" unicode="Ŀ" />
<glyph horiz-adv-x="318" d="M 79 0 L 79 0 Z M 79 130 L 79 800 L 182 800 L 182 163 C 182 139 188 121 201 107 C 213 93 231 86 255 86 C 263 86 273 86 283 87 C 293 88 301 90 306 92 L 308 2 C 301 0 290 -1 275 -3 C 260 -5 246 -6 233 -6 C 213 -6 194 -3 176 2 C 157 7 140 15 126 27 C 112 38 100 52 92 69 C 83 86 79 106 79 130 Z M 294 231 L 294 231 Z M 341 231 L 248 231 L 248 395 L 341 395 L 341 231 Z" unicode="ŀ" />
<glyph horiz-adv-x="540" d="M 495 90 L 495 0 L 94 0 L 94 267 L 37 244 L 0 320 L 94 358 L 94 730 L 204 730 L 204 403 L 384 477 L 418 401 L 204 313 L 204 90 L 495 90 Z" unicode="Ł" />
<glyph horiz-adv-x="318" d="M 308 2 C 301 0 290 -1 275 -3 C 260 -5 246 -6 233 -6 C 213 -6 194 -3 176 2 C 157 7 140 15 126 27 C 112 38 100 52 92 69 C 83 86 79 106 79 130 L 79 272 L 24 246 L -2 306 L 79 345 L 79 800 L 182 800 L 182 395 L 274 439 L 301 378 L 182 321 L 182 163 C 182 139 188 121 201 107 C 213 93 231 86 255 86 C 263 86 273 86 283 87 C 293 88 301 90 306 92 L 308 2 Z" unicode="ł" />
<glyph horiz-adv-x="791" d="M 94 0 L 94 0 Z M 697 0 L 619 0 L 196 540 L 196 0 L 94 0 L 94 730 L 178 730 L 597 196 L 597 730 L 697 730 L 697 0 Z M 395 788 L 395 788 Z M 283 788 L 387 950 L 508 950 L 385 788 L 283 788 Z" unicode="Ń" />
<glyph horiz-adv-x="643" d="M 86 0 L 86 0 Z M 564 0 L 461 0 L 461 370 C 461 400 449 424 425 441 C 401 458 373 467 342 467 C 324 467 307 464 289 459 C 271 453 254 445 240 435 C 225 424 213 410 203 394 C 193 378 189 359 189 337 L 189 0 L 86 0 L 86 544 L 175 544 L 175 428 C 187 466 211 496 248 520 C 284 544 327 556 376 556 C 400 556 424 552 447 545 C 469 537 489 527 507 514 C 524 500 538 484 548 465 C 558 446 564 425 564 402 L 564 0 Z M 342 602 L 342 602 Z M 230 602 L 334 764 L 455 764 L 332 602 L 230 602 Z" unicode="ń" />
<glyph horiz-adv-x="791" d="M 94 0 L 94 0 Z M 697 0 L 619 0 L 196 540 L 196 0 L 94 0 L 94 730 L 178 730 L 597 196 L 597 730 L 697 730 L 697 0 Z M 371 -74 L 371 -74 Z M 471 -74 C 468 -104 463 -134 455 -163 C 447 -192 437 -219 426 -243 C 415 -267 403 -289 390 -308 C 376 -327 363 -342 350 -354 L 273 -319 C 280 -311 288 -298 298 -281 C 307 -263 316 -244 325 -222 C 333 -200 341 -176 349 -150 C 356 -124 361 -98 364 -74 L 471 -74 Z" unicode="Ņ" />
<glyph horiz-adv-x="643" d="M 86 0 L 86 0 Z M 564 0 L 461 0 L 461 370 C 461 400 449 424 425 441 C 401 458 373 467 342 467 C 324 467 307 464 289 459 C 271 453 254 445 240 435 C 225 424 213 410 203 394 C 193 378 189 359 189 337 L 189 0 L 86 0 L 86 544 L 175 544 L 175 428 C 187 466 211 496 248 520 C 284 544 327 556 376 556 C 400 556 424 552 447 545 C 469 537 489 527 507 514 C 524 500 538 484 548 465 C 558 446 564 425 564 402 L 564 0 Z M 300 -74 L 300 -74 Z M 400 -74 C 397 -104 392 -134 384 -163 C 376 -192 366 -219 355 -243 C 344 -267 332 -289 319 -308 C 305 -327 292 -342 279 -354 L 202 -319 C 209 -311 217 -298 227 -281 C 236 -263 245 -244 254 -222 C 262 -200 270 -176 278 -150 C 285 -124 290 -98 293 -74 L 400 -74 Z" unicode="ņ" />
<glyph horiz-adv-x="791" d="M 94 0 L 94 0 Z M 697 0 L 619 0 L 196 540 L 196 0 L 94 0 L 94 730 L 178 730 L 597 196 L 597 730 L 697 730 L 697 0 Z M 395 779 L 395 779 Z M 220 951 L 315 951 L 396 841 L 478 951 L 571 951 L 448 779 L 343 779 L 220 951 Z" unicode="Ň" />
<glyph horiz-adv-x="643" d="M 86 0 L 86 0 Z M 564 0 L 461 0 L 461 370 C 461 400 449 424 425 441 C 401 458 373 467 342 467 C 324 467 307 464 289 459 C 271 453 254 445 240 435 C 225 424 213 410 203 394 C 193 378 189 359 189 337 L 189 0 L 86 0 L 86 544 L 175 544 L 175 428 C 187 466 211 496 248 520 C 284 544 327 556 376 556 C 400 556 424 552 447 545 C 469 537 489 527 507 514 C 524 500 538 484 548 465 C 558 446 564 425 564 402 L 564 0 Z M 342 593 L 342 593 Z M 167 765 L 262 765 L 343 655 L 425 765 L 518 765 L 395 593 L 290 593 L 167 765 Z" unicode="ň" />
<glyph horiz-adv-x="791" d="M 597 730 L 697 730 L 697 0 L 697 0 C 696 -66 679 -116 647 -150 C 614 -184 574 -202 527 -202 C 500 -202 473 -199 446 -193 C 419 -187 396 -178 378 -167 L 410 -85 C 423 -91 438 -97 456 -102 C 474 -107 494 -110 517 -110 C 539 -110 558 -98 574 -75 C 589 -52 597 -24 597 10 L 597 28 L 196 540 L 196 0 L 94 0 L 94 730 L 178 730 L 597 196 L 597 730 Z" unicode="Ŋ" />
<glyph horiz-adv-x="643" d="M 376 556 C 400 556 424 552 447 545 C 469 537 489 527 507 514 C 524 500 538 484 548 465 C 558 446 564 425 564 402 L 564 0 L 564 0 C 564 -33 559 -62 550 -88 C 541 -114 529 -135 514 -152 C 498 -168 480 -181 460 -189 C 440 -197 418 -202 396 -202 C 369 -202 342 -199 316 -193 C 290 -187 268 -178 250 -168 L 282 -85 C 294 -92 309 -98 327 -103 C 344 -107 364 -110 386 -110 C 406 -110 424 -99 439 -77 C 453 -55 461 -27 461 6 L 461 370 C 461 400 449 424 425 441 C 401 458 373 467 342 467 C 324 467 307 464 289 459 C 271 453 254 445 240 435 C 225 424 213 410 203 394 C 193 378 189 359 189 337 L 189 0 L 86 0 L 86 544 L 175 544 L 175 428 C 187 466 211 496 248 520 C 284 544 327 556 376 556 Z" unicode="ŋ" />
<glyph horiz-adv-x="841" d="M 46 0 L 46 0 Z M 423 -12 C 367 -12 316 -2 270 17 C 224 37 184 64 151 98 C 118 132 92 172 74 219 C 55 265 46 316 46 370 C 46 424 55 473 75 519 C 94 565 120 604 153 637 C 186 670 225 696 270 714 C 315 732 363 742 415 742 C 470 742 521 732 568 714 C 614 695 654 669 688 636 C 721 603 747 564 766 518 C 784 472 794 422 794 368 C 794 312 784 260 764 214 C 744 167 718 127 684 94 C 650 60 611 34 566 16 C 520 -2 473 -12 423 -12 Z M 431 83 C 467 83 500 89 531 102 C 562 114 589 132 612 156 C 634 180 652 209 665 244 C 678 279 685 319 685 363 C 685 404 678 442 664 476 C 650 510 630 540 606 565 C 581 589 552 608 518 622 C 484 636 448 643 409 643 C 373 643 339 636 308 624 C 277 612 250 594 228 571 C 205 547 187 519 175 486 C 162 452 156 415 156 373 C 156 329 163 289 178 253 C 192 217 212 186 237 161 C 262 136 291 117 325 103 C 358 89 393 83 431 83 Z M 414 788 L 414 788 Z M 548 788 L 280 788 L 280 876 L 548 876 L 548 788 Z" unicode="Ō" />
<glyph horiz-adv-x="655" d="M 42 0 L 42 0 Z M 323 -11 C 287 -11 252 -4 218 8 C 184 20 154 39 128 63 C 102 87 81 116 65 151 C 49 186 42 226 42 270 C 42 310 49 348 65 383 C 80 418 100 448 126 474 C 152 499 182 519 216 534 C 250 548 287 556 325 556 C 365 556 402 549 438 537 C 473 524 503 506 529 482 C 555 458 575 430 590 397 C 605 363 613 326 613 285 C 613 241 605 201 590 165 C 574 129 553 98 527 72 C 501 46 470 25 435 11 C 399 -3 362 -11 323 -11 Z M 329 81 C 381 81 424 100 457 138 C 489 176 506 223 506 280 C 506 332 489 375 455 410 C 421 445 377 463 322 463 C 270 463 229 444 197 407 C 165 370 150 324 150 268 C 150 210 167 164 202 131 C 236 97 279 81 329 81 Z M 325 602 L 325 602 Z M 459 602 L 191 602 L 191 690 L 459 690 L 459 602 Z" unicode="ō" />
<glyph horiz-adv-x="841" d="M 46 0 L 46 0 Z M 423 -12 C 367 -12 316 -2 270 17 C 224 37 184 64 151 98 C 118 132 92 172 74 219 C 55 265 46 316 46 370 C 46 424 55 473 75 519 C 94 565 120 604 153 637 C 186 670 225 696 270 714 C 315 732 363 742 415 742 C 470 742 521 732 568 714 C 614 695 654 669 688 636 C 721 603 747 564 766 518 C 784 472 794 422 794 368 C 794 312 784 260 764 214 C 744 167 718 127 684 94 C 650 60 611 34 566 16 C 520 -2 473 -12 423 -12 Z M 431 83 C 467 83 500 89 531 102 C 562 114 589 132 612 156 C 634 180 652 209 665 244 C 678 279 685 319 685 363 C 685 404 678 442 664 476 C 650 510 630 540 606 565 C 581 589 552 608 518 622 C 484 636 448 643 409 643 C 373 643 339 636 308 624 C 277 612 250 594 228 571 C 205 547 187 519 175 486 C 162 452 156 415 156 373 C 156 329 163 289 178 253 C 192 217 212 186 237 161 C 262 136 291 117 325 103 C 358 89 393 83 431 83 Z M 414 783 L 414 783 Z M 490 941 L 575 941 C 571 886 554 846 524 821 C 494 795 458 783 414 783 C 370 783 333 795 303 821 C 273 846 257 886 253 941 L 338 941 C 340 914 347 892 359 876 C 371 860 389 852 414 852 C 438 852 457 859 469 875 C 481 891 488 913 490 941 Z" unicode="Ŏ" />
<glyph horiz-adv-x="655" d="M 42 0 L 42 0 Z M 323 -11 C 287 -11 252 -4 218 8 C 184 20 154 39 128 63 C 102 87 81 116 65 151 C 49 186 42 226 42 270 C 42 310 49 348 65 383 C 80 418 100 448 126 474 C 152 499 182 519 216 534 C 250 548 287 556 325 556 C 365 556 402 549 438 537 C 473 524 503 506 529 482 C 555 458 575 430 590 397 C 605 363 613 326 613 285 C 613 241 605 201 590 165 C 574 129 553 98 527 72 C 501 46 470 25 435 11 C 399 -3 362 -11 323 -11 Z M 329 81 C 381 81 424 100 457 138 C 489 176 506 223 506 280 C 506 332 489 375 455 410 C 421 445 377 463 322 463 C 270 463 229 444 197 407 C 165 370 150 324 150 268 C 150 210 167 164 202 131 C 236 97 279 81 329 81 Z M 325 597 L 325 597 Z M 401 755 L 486 755 C 482 700 465 660 435 635 C 405 609 369 597 325 597 C 281 597 244 609 214 635 C 184 660 168 700 164 755 L 249 755 C 251 728 258 706 270 690 C 282 674 300 666 325 666 C 349 666 368 673 380 689 C 392 705 399 727 401 755 Z" unicode="ŏ" />
<glyph horiz-adv-x="841" d="M 46 0 L 46 0 Z M 423 -12 C 367 -12 316 -2 270 17 C 224 37 184 64 151 98 C 118 132 92 172 74 219 C 55 265 46 316 46 370 C 46 424 55 473 75 519 C 94 565 120 604 153 637 C 186 670 225 696 270 714 C 315 732 363 742 415 742 C 470 742 521 732 568 714 C 614 695 654 669 688 636 C 721 603 747 564 766 518 C 784 472 794 422 794 368 C 794 312 784 260 764 214 C 744 167 718 127 684 94 C 650 60 611 34 566 16 C 520 -2 473 -12 423 -12 Z M 431 83 C 467 83 500 89 531 102 C 562 114 589 132 612 156 C 634 180 652 209 665 244 C 678 279 685 319 685 363 C 685 404 678 442 664 476 C 650 510 630 540 606 565 C 581 589 552 608 518 622 C 484 636 448 643 409 643 C 373 643 339 636 308 624 C 277 612 250 594 228 571 C 205 547 187 519 175 486 C 162 452 156 415 156 373 C 156 329 163 289 178 253 C 192 217 212 186 237 161 C 262 136 291 117 325 103 C 358 89 393 83 431 83 Z M 414 778 L 414 778 Z M 217 778 L 312 929 L 420 929 L 307 778 L 217 778 Z M 409 778 L 504 929 L 613 929 L 499 778 L 409 778 Z" unicode="Ő" />
<glyph horiz-adv-x="655" d="M 42 0 L 42 0 Z M 323 -11 C 287 -11 252 -4 218 8 C 184 20 154 39 128 63 C 102 87 81 116 65 151 C 49 186 42 226 42 270 C 42 310 49 348 65 383 C 80 418 100 448 126 474 C 152 499 182 519 216 534 C 250 548 287 556 325 556 C 365 556 402 549 438 537 C 473 524 503 506 529 482 C 555 458 575 430 590 397 C 605 363 613 326 613 285 C 613 241 605 201 590 165 C 574 129 553 98 527 72 C 501 46 470 25 435 11 C 399 -3 362 -11 323 -11 Z M 329 81 C 381 81 424 100 457 138 C 489 176 506 223 506 280 C 506 332 489 375 455 410 C 421 445 377 463 322 463 C 270 463 229 444 197 407 C 165 370 150 324 150 268 C 150 210 167 164 202 131 C 236 97 279 81 329 81 Z M 325 592 L 325 592 Z M 128 592 L 223 743 L 331 743 L 218 592 L 128 592 Z M 320 592 L 415 743 L 524 743 L 410 592 L 320 592 Z" unicode="ő" />
<glyph horiz-adv-x="1177" d="M 409 -12 C 355 -12 305 -2 261 16 C 216 35 178 61 146 95 C 114 129 90 169 72 216 C 54 262 46 313 46 369 C 46 421 55 470 75 516 C 94 562 120 601 153 635 C 186 668 225 694 270 713 C 315 732 363 742 415 742 C 441 742 467 738 495 730 C 523 722 549 711 573 697 C 597 683 618 667 638 647 C 657 627 671 606 680 584 L 680 730 L 1101 730 L 1101 633 L 782 633 L 782 411 L 1086 411 L 1086 319 L 782 319 L 782 96 L 1121 96 L 1121 0 L 680 0 L 680 163 C 662 113 629 72 581 38 C 533 4 476 -12 409 -12 Z M 421 80 C 457 80 490 86 522 98 C 554 110 581 129 605 153 C 628 177 646 207 660 243 C 674 279 681 320 681 367 C 681 413 672 453 656 488 C 640 522 619 551 594 574 C 568 597 540 614 509 626 C 478 638 448 644 419 644 C 382 644 348 637 316 625 C 284 612 257 594 234 570 C 210 546 192 516 179 482 C 165 447 159 408 159 364 C 159 318 166 278 180 243 C 194 207 212 178 236 154 C 259 130 287 111 319 99 C 351 86 385 80 421 80 Z" unicode="Œ" />
<glyph horiz-adv-x="1094" d="M 323 -11 C 287 -11 252 -4 218 8 C 184 20 154 39 128 63 C 102 87 81 116 65 151 C 49 186 42 226 42 270 C 42 309 49 346 65 381 C 80 416 100 446 126 472 C 152 498 182 518 216 533 C 250 548 287 556 325 556 C 359 556 390 551 416 541 C 442 531 465 518 483 504 C 501 490 516 474 527 458 C 538 441 546 426 551 412 C 553 424 561 439 574 456 C 587 472 604 488 624 503 C 644 517 668 530 695 540 C 722 550 751 556 782 556 C 863 556 928 528 977 472 C 1026 416 1051 339 1052 240 L 607 240 C 607 194 624 156 658 126 C 692 96 735 81 786 81 C 830 81 865 88 892 104 C 918 119 941 137 959 158 L 1023 86 C 997 58 966 34 930 16 C 894 -1 846 -11 788 -11 C 758 -11 730 -6 704 2 C 677 11 653 22 632 36 C 610 50 592 65 578 82 C 563 98 553 114 549 130 C 545 116 536 100 524 84 C 512 68 496 52 477 38 C 457 24 434 12 408 3 C 382 -6 353 -11 323 -11 Z M 608 315 L 945 315 C 943 360 927 397 897 425 C 866 453 827 468 779 468 C 731 468 691 452 660 422 C 629 392 612 356 608 315 Z M 329 81 C 381 81 423 99 456 136 C 489 173 506 221 506 280 C 506 332 489 375 455 410 C 421 445 377 463 322 463 C 270 463 229 444 197 408 C 165 371 150 324 150 268 C 150 210 167 164 202 131 C 236 97 279 81 329 81 Z" unicode="œ" />
<glyph horiz-adv-x="625" d="M 94 0 L 94 0 Z M 94 0 L 94 730 L 326 730 C 356 730 385 725 412 716 C 438 707 461 694 481 678 C 501 661 516 640 527 616 C 538 592 544 564 544 534 C 544 503 539 476 530 452 C 520 428 508 407 493 390 C 478 373 461 359 442 349 C 422 339 402 332 382 329 L 380 325 L 603 0 L 473 0 L 275 302 L 203 302 L 203 0 L 94 0 Z M 201 391 L 299 391 C 336 391 368 402 394 424 C 420 446 433 478 433 520 C 433 558 421 587 397 609 C 373 631 343 642 306 642 L 201 642 L 201 391 Z M 311 788 L 311 788 Z M 199 788 L 303 950 L 424 950 L 301 788 L 199 788 Z" unicode="Ŕ" />
<glyph horiz-adv-x="478" d="M 86 0 L 86 0 Z M 484 526 L 429 432 C 420 441 407 449 391 455 C 375 461 356 464 335 464 C 317 464 299 460 281 453 C 263 445 248 435 234 423 C 220 410 209 395 201 377 C 193 359 189 339 189 318 L 189 0 L 86 0 L 86 544 L 179 544 L 179 420 C 183 437 190 454 202 470 C 213 486 227 501 244 514 C 260 526 280 536 302 544 C 324 552 348 556 374 556 C 398 556 420 553 439 547 C 458 541 473 534 484 526 Z M 292 602 L 292 602 Z M 180 602 L 284 764 L 405 764 L 282 602 L 180 602 Z" unicode="ŕ" />
<glyph horiz-adv-x="625" d="M 94 0 L 94 0 Z M 94 0 L 94 730 L 326 730 C 356 730 385 725 412 716 C 438 707 461 694 481 678 C 501 661 516 640 527 616 C 538 592 544 564 544 534 C 544 503 539 476 530 452 C 520 428 508 407 493 390 C 478 373 461 359 442 349 C 422 339 402 332 382 329 L 380 325 L 603 0 L 473 0 L 275 302 L 203 302 L 203 0 L 94 0 Z M 201 391 L 299 391 C 336 391 368 402 394 424 C 420 446 433 478 433 520 C 433 558 421 587 397 609 C 373 631 343 642 306 642 L 201 642 L 201 391 Z M 295 -74 L 295 -74 Z M 395 -74 C 392 -104 387 -134 379 -163 C 371 -192 361 -219 350 -243 C 339 -267 327 -289 314 -308 C 300 -327 287 -342 274 -354 L 197 -319 C 204 -311 212 -298 222 -281 C 231 -263 240 -244 249 -222 C 257 -200 265 -176 273 -150 C 280 -124 285 -98 288 -74 L 395 -74 Z" unicode="Ŗ" />
<glyph horiz-adv-x="478" d="M 86 0 L 86 0 Z M 484 526 L 429 432 C 420 441 407 449 391 455 C 375 461 356 464 335 464 C 317 464 299 460 281 453 C 263 445 248 435 234 423 C 220 410 209 395 201 377 C 193 359 189 339 189 318 L 189 0 L 86 0 L 86 544 L 179 544 L 179 420 C 183 437 190 454 202 470 C 213 486 227 501 244 514 C 260 526 280 536 302 544 C 324 552 348 556 374 556 C 398 556 420 553 439 547 C 458 541 473 534 484 526 Z M 266 -74 L 266 -74 Z M 366 -74 C 363 -104 358 -134 350 -163 C 342 -192 332 -219 321 -243 C 310 -267 298 -289 285 -308 C 271 -327 258 -342 245 -354 L 168 -319 C 175 -311 183 -298 193 -281 C 202 -263 211 -244 220 -222 C 228 -200 236 -176 244 -150 C 251 -124 256 -98 259 -74 L 366 -74 Z" unicode="ŗ" />
<glyph horiz-adv-x="625" d="M 94 0 L 94 0 Z M 94 0 L 94 730 L 326 730 C 356 730 385 725 412 716 C 438 707 461 694 481 678 C 501 661 516 640 527 616 C 538 592 544 564 544 534 C 544 503 539 476 530 452 C 520 428 508 407 493 390 C 478 373 461 359 442 349 C 422 339 402 332 382 329 L 380 325 L 603 0 L 473 0 L 275 302 L 203 302 L 203 0 L 94 0 Z M 201 391 L 299 391 C 336 391 368 402 394 424 C 420 446 433 478 433 520 C 433 558 421 587 397 609 C 373 631 343 642 306 642 L 201 642 L 201 391 Z M 311 779 L 311 779 Z M 136 951 L 231 951 L 312 841 L 394 951 L 487 951 L 364 779 L 259 779 L 136 951 Z" unicode="Ř" />
<glyph horiz-adv-x="478" d="M 86 0 L 86 0 Z M 484 526 L 429 432 C 420 441 407 449 391 455 C 375 461 356 464 335 464 C 317 464 299 460 281 453 C 263 445 248 435 234 423 C 220 410 209 395 201 377 C 193 359 189 339 189 318 L 189 0 L 86 0 L 86 544 L 179 544 L 179 420 C 183 437 190 454 202 470 C 213 486 227 501 244 514 C 260 526 280 536 302 544 C 324 552 348 556 374 556 C 398 556 420 553 439 547 C 458 541 473 534 484 526 Z M 292 593 L 292 593 Z M 117 765 L 212 765 L 293 655 L 375 765 L 468 765 L 345 593 L 240 593 L 117 765 Z" unicode="ř" />
<glyph horiz-adv-x="609" d="M 42 0 L 42 0 Z M 309 -12 C 247 -12 194 -3 150 13 C 106 29 70 51 42 78 L 114 163 C 133 139 161 120 197 104 C 233 88 272 80 312 80 C 348 80 378 89 404 107 C 430 125 443 148 443 177 C 443 207 431 232 409 254 C 386 275 346 297 288 321 C 246 337 210 353 181 368 C 152 383 129 399 112 417 C 95 434 83 454 76 476 C 68 498 65 524 65 554 C 65 611 86 657 129 691 C 171 725 227 742 297 742 C 350 742 395 733 432 717 C 469 700 500 681 525 661 L 463 571 C 437 591 410 608 380 621 C 350 634 320 641 288 641 C 254 641 226 633 204 618 C 182 602 172 581 172 554 C 172 523 185 498 211 478 C 237 458 281 436 343 411 C 420 380 474 349 505 317 C 536 285 552 241 552 187 C 552 156 545 128 532 104 C 519 79 502 58 480 41 C 458 23 432 10 402 1 C 372 -7 341 -12 309 -12 Z M 296 788 L 296 788 Z M 184 788 L 288 950 L 409 950 L 286 788 L 184 788 Z" unicode="Ś" />
<glyph horiz-adv-x="514" d="M 41 0 L 41 0 Z M 278 -11 C 226 -11 180 -4 140 8 C 100 21 67 38 41 59 L 86 129 C 110 113 140 99 174 88 C 208 76 241 71 273 71 C 301 71 324 78 343 93 C 362 107 372 126 372 148 C 372 166 362 183 343 198 C 323 213 287 228 233 243 C 169 260 124 283 100 312 C 76 340 64 373 64 411 C 64 433 69 453 79 471 C 89 489 102 504 120 517 C 138 529 159 539 183 546 C 207 552 233 556 261 556 C 315 556 358 549 391 536 C 423 522 448 510 465 498 L 427 420 C 403 434 379 447 353 458 C 327 468 299 474 269 474 C 242 474 219 468 199 456 C 179 444 169 428 169 409 C 169 399 170 390 173 383 C 176 375 182 368 191 361 C 200 354 213 347 230 340 C 247 333 270 326 298 318 C 360 299 406 277 434 251 C 462 225 477 192 477 151 C 477 126 471 104 461 84 C 451 64 437 47 419 33 C 401 19 379 8 355 0 C 331 -7 305 -11 278 -11 Z M 264 602 L 264 602 Z M 152 602 L 256 764 L 377 764 L 254 602 L 152 602 Z" unicode="ś" />
<glyph horiz-adv-x="609" d="M 42 0 L 42 0 Z M 309 -12 C 247 -12 194 -3 150 13 C 106 29 70 51 42 78 L 114 163 C 133 139 161 120 197 104 C 233 88 272 80 312 80 C 348 80 378 89 404 107 C 430 125 443 148 443 177 C 443 207 431 232 409 254 C 386 275 346 297 288 321 C 246 337 210 353 181 368 C 152 383 129 399 112 417 C 95 434 83 454 76 476 C 68 498 65 524 65 554 C 65 611 86 657 129 691 C 171 725 227 742 297 742 C 350 742 395 733 432 717 C 469 700 500 681 525 661 L 463 571 C 437 591 410 608 380 621 C 350 634 320 641 288 641 C 254 641 226 633 204 618 C 182 602 172 581 172 554 C 172 523 185 498 211 478 C 237 458 281 436 343 411 C 420 380 474 349 505 317 C 536 285 552 241 552 187 C 552 156 545 128 532 104 C 519 79 502 58 480 41 C 458 23 432 10 402 1 C 372 -7 341 -12 309 -12 Z M 296 779 L 296 779 Z M 472 779 L 377 779 L 296 890 L 214 779 L 121 779 L 244 951 L 349 951 L 472 779 Z" unicode="Ŝ" />
<glyph horiz-adv-x="514" d="M 41 0 L 41 0 Z M 278 -11 C 226 -11 180 -4 140 8 C 100 21 67 38 41 59 L 86 129 C 110 113 140 99 174 88 C 208 76 241 71 273 71 C 301 71 324 78 343 93 C 362 107 372 126 372 148 C 372 166 362 183 343 198 C 323 213 287 228 233 243 C 169 260 124 283 100 312 C 76 340 64 373 64 411 C 64 433 69 453 79 471 C 89 489 102 504 120 517 C 138 529 159 539 183 546 C 207 552 233 556 261 556 C 315 556 358 549 391 536 C 423 522 448 510 465 498 L 427 420 C 403 434 379 447 353 458 C 327 468 299 474 269 474 C 242 474 219 468 199 456 C 179 444 169 428 169 409 C 169 399 170 390 173 383 C 176 375 182 368 191 361 C 200 354 213 347 230 340 C 247 333 270 326 298 318 C 360 299 406 277 434 251 C 462 225 477 192 477 151 C 477 126 471 104 461 84 C 451 64 437 47 419 33 C 401 19 379 8 355 0 C 331 -7 305 -11 278 -11 Z M 264 593 L 264 593 Z M 440 593 L 345 593 L 264 704 L 182 593 L 89 593 L 212 765 L 317 765 L 440 593 Z" unicode="ŝ" />
<glyph horiz-adv-x="609" d="M 42 0 L 42 0 Z M 309 -12 C 247 -12 194 -3 150 13 C 106 29 70 51 42 78 L 114 163 C 133 139 161 120 197 104 C 233 88 272 80 312 80 C 348 80 378 89 404 107 C 430 125 443 148 443 177 C 443 207 431 232 409 254 C 386 275 346 297 288 321 C 246 337 210 353 181 368 C 152 383 129 399 112 417 C 95 434 83 454 76 476 C 68 498 65 524 65 554 C 65 611 86 657 129 691 C 171 725 227 742 297 742 C 350 742 395 733 432 717 C 469 700 500 681 525 661 L 463 571 C 437 591 410 608 380 621 C 350 634 320 641 288 641 C 254 641 226 633 204 618 C 182 602 172 581 172 554 C 172 523 185 498 211 478 C 237 458 281 436 343 411 C 420 380 474 349 505 317 C 536 285 552 241 552 187 C 552 156 545 128 532 104 C 519 79 502 58 480 41 C 458 23 432 10 402 1 C 372 -7 341 -12 309 -12 Z M 299 -9 L 299 -9 Z M 308 -198 C 283 -198 258 -195 232 -189 C 206 -183 187 -175 173 -166 L 188 -121 C 197 -126 209 -131 224 -136 C 239 -141 256 -144 274 -144 C 288 -144 300 -140 311 -134 C 321 -128 327 -120 327 -110 C 327 -98 322 -89 313 -85 C 303 -80 293 -78 283 -78 C 275 -78 268 -78 263 -79 C 257 -80 251 -82 245 -84 L 232 -70 L 293 5 L 354 5 L 304 -58 C 338 -51 366 -54 390 -67 C 413 -79 425 -98 425 -123 C 425 -148 413 -167 389 -179 C 365 -191 338 -198 308 -198 Z" unicode="Ş" />
<glyph horiz-adv-x="514" d="M 41 0 L 41 0 Z M 278 -11 C 226 -11 180 -4 140 8 C 100 21 67 38 41 59 L 86 129 C 110 113 140 99 174 88 C 208 76 241 71 273 71 C 301 71 324 78 343 93 C 362 107 372 126 372 148 C 372 166 362 183 343 198 C 323 213 287 228 233 243 C 169 260 124 283 100 312 C 76 340 64 373 64 411 C 64 433 69 453 79 471 C 89 489 102 504 120 517 C 138 529 159 539 183 546 C 207 552 233 556 261 556 C 315 556 358 549 391 536 C 423 522 448 510 465 498 L 427 420 C 403 434 379 447 353 458 C 327 468 299 474 269 474 C 242 474 219 468 199 456 C 179 444 169 428 169 409 C 169 399 170 390 173 383 C 176 375 182 368 191 361 C 200 354 213 347 230 340 C 247 333 270 326 298 318 C 360 299 406 277 434 251 C 462 225 477 192 477 151 C 477 126 471 104 461 84 C 451 64 437 47 419 33 C 401 19 379 8 355 0 C 331 -7 305 -11 278 -11 Z M 254 -1 L 254 -1 Z M 263 -190 C 238 -190 213 -187 187 -181 C 161 -175 142 -167 128 -158 L 143 -113 C 152 -118 164 -123 179 -128 C 194 -133 211 -136 229 -136 C 243 -136 255 -132 266 -126 C 276 -120 282 -112 282 -102 C 282 -90 277 -81 268 -77 C 258 -72 248 -70 238 -70 C 230 -70 223 -70 218 -71 C 212 -72 206 -74 200 -76 L 187 -62 L 248 13 L 309 13 L 259 -50 C 293 -43 321 -46 345 -59 C 368 -71 380 -90 380 -115 C 380 -140 368 -159 344 -171 C 320 -183 293 -190 263 -190 Z" unicode="ş" />
<glyph horiz-adv-x="609" d="M 42 0 L 42 0 Z M 309 -12 C 247 -12 194 -3 150 13 C 106 29 70 51 42 78 L 114 163 C 133 139 161 120 197 104 C 233 88 272 80 312 80 C 348 80 378 89 404 107 C 430 125 443 148 443 177 C 443 207 431 232 409 254 C 386 275 346 297 288 321 C 246 337 210 353 181 368 C 152 383 129 399 112 417 C 95 434 83 454 76 476 C 68 498 65 524 65 554 C 65 611 86 657 129 691 C 171 725 227 742 297 742 C 350 742 395 733 432 717 C 469 700 500 681 525 661 L 463 571 C 437 591 410 608 380 621 C 350 634 320 641 288 641 C 254 641 226 633 204 618 C 182 602 172 581 172 554 C 172 523 185 498 211 478 C 237 458 281 436 343 411 C 420 380 474 349 505 317 C 536 285 552 241 552 187 C 552 156 545 128 532 104 C 519 79 502 58 480 41 C 458 23 432 10 402 1 C 372 -7 341 -12 309 -12 Z M 296 779 L 296 779 Z M 121 951 L 216 951 L 297 841 L 379 951 L 472 951 L 349 779 L 244 779 L 121 951 Z" unicode="Š" />
<glyph horiz-adv-x="514" d="M 41 0 L 41 0 Z M 278 -11 C 226 -11 180 -4 140 8 C 100 21 67 38 41 59 L 86 129 C 110 113 140 99 174 88 C 208 76 241 71 273 71 C 301 71 324 78 343 93 C 362 107 372 126 372 148 C 372 166 362 183 343 198 C 323 213 287 228 233 243 C 169 260 124 283 100 312 C 76 340 64 373 64 411 C 64 433 69 453 79 471 C 89 489 102 504 120 517 C 138 529 159 539 183 546 C 207 552 233 556 261 556 C 315 556 358 549 391 536 C 423 522 448 510 465 498 L 427 420 C 403 434 379 447 353 458 C 327 468 299 474 269 474 C 242 474 219 468 199 456 C 179 444 169 428 169 409 C 169 399 170 390 173 383 C 176 375 182 368 191 361 C 200 354 213 347 230 340 C 247 333 270 326 298 318 C 360 299 406 277 434 251 C 462 225 477 192 477 151 C 477 126 471 104 461 84 C 451 64 437 47 419 33 C 401 19 379 8 355 0 C 331 -7 305 -11 278 -11 Z M 264 593 L 264 593 Z M 89 765 L 184 765 L 265 655 L 347 765 L 440 765 L 317 593 L 212 593 L 89 765 Z" unicode="š" />
<glyph horiz-adv-x="559" d="M 10 0 L 10 0 Z M 549 634 L 332 634 L 332 0 L 222 0 L 222 634 L 10 634 L 10 730 L 549 730 L 549 634 Z M 279 779 L 279 779 Z M 104 951 L 199 951 L 280 841 L 362 951 L 455 951 L 332 779 L 227 779 L 104 951 Z" unicode="Ť" />
<glyph horiz-adv-x="391" d="M 13 0 L 13 0 Z M 360 108 L 377 25 C 364 15 346 7 323 2 C 300 -3 277 -6 255 -6 C 210 -6 172 7 142 34 C 111 60 96 103 96 161 L 96 459 L 13 459 L 13 544 L 96 544 L 96 686 L 198 699 L 198 544 L 352 544 L 352 459 L 198 459 L 198 166 C 198 140 204 120 216 106 C 228 91 245 84 268 84 C 287 84 305 87 322 93 C 338 99 351 104 360 108 Z M 467 599 L 462 446 L 376 446 L 371 599 L 371 730 L 467 730 L 467 599 Z" unicode="ť" />
<glyph horiz-adv-x="559" d="M 470 425 L 332 425 L 332 0 L 222 0 L 222 425 L 89 425 L 89 513 L 222 513 L 222 634 L 10 634 L 10 730 L 549 730 L 549 634 L 332 634 L 332 513 L 470 513 L 470 425 Z" unicode="Ŧ" />
<glyph horiz-adv-x="391" d="M 377 25 C 364 15 346 7 323 2 C 300 -3 277 -6 255 -6 C 210 -6 172 7 142 34 C 111 60 96 103 96 161 L 96 290 L 19 290 L 19 378 L 96 378 L 96 459 L 13 459 L 13 544 L 96 544 L 96 686 L 198 699 L 198 544 L 352 544 L 352 459 L 198 459 L 198 378 L 325 378 L 325 290 L 198 290 L 198 166 C 198 140 204 120 216 106 C 228 91 245 84 268 84 C 287 84 305 87 322 93 C 338 99 351 104 360 108 L 377 25 Z" unicode="ŧ" />
<glyph horiz-adv-x="765" d="M 90 0 L 90 0 Z M 676 730 L 676 266 C 676 222 668 183 652 149 C 636 114 615 85 589 61 C 563 37 532 19 496 7 C 460 -5 422 -12 382 -12 C 342 -12 305 -6 269 6 C 233 18 202 35 176 59 C 150 83 129 112 113 147 C 97 181 90 221 90 266 L 90 730 L 197 730 L 197 269 C 197 241 201 215 211 193 C 221 170 234 151 251 135 C 267 119 287 107 309 99 C 331 91 355 87 380 87 C 405 87 429 91 452 99 C 475 107 495 118 512 134 C 529 149 543 168 553 191 C 563 213 568 239 568 269 L 568 730 L 676 730 Z M 382 785 L 382 785 Z M 479 925 L 561 925 C 561 877 553 841 538 819 C 523 796 502 785 476 785 C 457 785 440 788 426 796 C 412 803 398 811 386 821 C 375 829 364 837 353 845 C 342 853 331 857 321 857 C 310 857 301 851 294 840 C 287 829 283 812 283 789 L 202 789 C 202 836 212 871 232 894 C 252 917 274 929 297 929 C 315 929 330 925 344 917 C 357 909 370 901 382 891 C 392 882 402 874 412 868 C 422 862 431 859 441 859 C 451 859 460 864 467 875 C 474 886 478 903 479 925 Z" unicode="Ũ" />
<glyph horiz-adv-x="643" d="M 79 0 L 79 0 Z M 79 544 L 182 544 L 182 202 C 182 156 194 123 220 104 C 246 84 278 75 316 75 C 354 75 386 87 413 111 C 440 135 454 166 454 206 L 454 544 L 557 544 L 557 0 L 464 0 L 464 108 C 455 77 434 49 401 25 C 368 0 326 -12 275 -12 C 248 -12 223 -8 199 -1 C 175 6 154 17 136 31 C 118 45 104 64 94 86 C 84 108 79 133 79 163 L 79 544 Z M 318 599 L 318 599 Z M 415 739 L 497 739 C 497 691 489 655 474 633 C 459 610 438 599 412 599 C 393 599 376 602 362 610 C 348 617 334 625 322 635 C 311 643 300 651 289 659 C 278 667 267 671 257 671 C 246 671 237 665 230 654 C 223 643 219 626 219 603 L 138 603 C 138 650 148 685 168 708 C 188 731 210 743 233 743 C 251 743 266 739 280 731 C 293 723 306 715 318 705 C 328 696 338 688 348 682 C 358 676 367 673 377 673 C 387 673 396 678 403 689 C 410 700 414 717 415 739 Z" unicode="ũ" />
<glyph horiz-adv-x="765" d="M 90 0 L 90 0 Z M 676 730 L 676 266 C 676 222 668 183 652 149 C 636 114 615 85 589 61 C 563 37 532 19 496 7 C 460 -5 422 -12 382 -12 C 342 -12 305 -6 269 6 C 233 18 202 35 176 59 C 150 83 129 112 113 147 C 97 181 90 221 90 266 L 90 730 L 197 730 L 197 269 C 197 241 201 215 211 193 C 221 170 234 151 251 135 C 267 119 287 107 309 99 C 331 91 355 87 380 87 C 405 87 429 91 452 99 C 475 107 495 118 512 134 C 529 149 543 168 553 191 C 563 213 568 239 568 269 L 568 730 L 676 730 Z M 382 788 L 382 788 Z M 516 788 L 248 788 L 248 876 L 516 876 L 516 788 Z" unicode="Ū" />
<glyph horiz-adv-x="643" d="M 79 0 L 79 0 Z M 79 544 L 182 544 L 182 202 C 182 156 194 123 220 104 C 246 84 278 75 316 75 C 354 75 386 87 413 111 C 440 135 454 166 454 206 L 454 544 L 557 544 L 557 0 L 464 0 L 464 108 C 455 77 434 49 401 25 C 368 0 326 -12 275 -12 C 248 -12 223 -8 199 -1 C 175 6 154 17 136 31 C 118 45 104 64 94 86 C 84 108 79 133 79 163 L 79 544 Z M 318 602 L 318 602 Z M 452 602 L 184 602 L 184 690 L 452 690 L 452 602 Z" unicode="ū" />
<glyph horiz-adv-x="765" d="M 90 0 L 90 0 Z M 676 730 L 676 266 C 676 222 668 183 652 149 C 636 114 615 85 589 61 C 563 37 532 19 496 7 C 460 -5 422 -12 382 -12 C 342 -12 305 -6 269 6 C 233 18 202 35 176 59 C 150 83 129 112 113 147 C 97 181 90 221 90 266 L 90 730 L 197 730 L 197 269 C 197 241 201 215 211 193 C 221 170 234 151 251 135 C 267 119 287 107 309 99 C 331 91 355 87 380 87 C 405 87 429 91 452 99 C 475 107 495 118 512 134 C 529 149 543 168 553 191 C 563 213 568 239 568 269 L 568 730 L 676 730 Z M 382 783 L 382 783 Z M 458 941 L 543 941 C 539 886 522 846 492 821 C 462 795 426 783 382 783 C 338 783 301 795 271 821 C 241 846 225 886 221 941 L 306 941 C 308 914 315 892 327 876 C 339 860 357 852 382 852 C 406 852 425 859 437 875 C 449 891 456 913 458 941 Z" unicode="Ŭ" />
<glyph horiz-adv-x="643" d="M 79 0 L 79 0 Z M 79 544 L 182 544 L 182 202 C 182 156 194 123 220 104 C 246 84 278 75 316 75 C 354 75 386 87 413 111 C 440 135 454 166 454 206 L 454 544 L 557 544 L 557 0 L 464 0 L 464 108 C 455 77 434 49 401 25 C 368 0 326 -12 275 -12 C 248 -12 223 -8 199 -1 C 175 6 154 17 136 31 C 118 45 104 64 94 86 C 84 108 79 133 79 163 L 79 544 Z M 318 597 L 318 597 Z M 394 755 L 479 755 C 475 700 458 660 428 635 C 398 609 362 597 318 597 C 274 597 237 609 207 635 C 177 660 161 700 157 755 L 242 755 C 244 728 251 706 263 690 C 275 674 293 666 318 666 C 342 666 361 673 373 689 C 385 705 392 727 394 755 Z" unicode="ŭ" />
<glyph horiz-adv-x="765" d="M 90 0 L 90 0 Z M 676 730 L 676 266 C 676 222 668 183 652 149 C 636 114 615 85 589 61 C 563 37 532 19 496 7 C 460 -5 422 -12 382 -12 C 342 -12 305 -6 269 6 C 233 18 202 35 176 59 C 150 83 129 112 113 147 C 97 181 90 221 90 266 L 90 730 L 197 730 L 197 269 C 197 241 201 215 211 193 C 221 170 234 151 251 135 C 267 119 287 107 309 99 C 331 91 355 87 380 87 C 405 87 429 91 452 99 C 475 107 495 118 512 134 C 529 149 543 168 553 191 C 563 213 568 239 568 269 L 568 730 L 676 730 Z M 382 779 L 382 779 Z M 382 779 C 348 779 318 791 294 816 C 270 840 258 870 258 905 C 258 939 270 968 294 992 C 318 1016 348 1029 382 1029 C 417 1029 447 1016 471 992 C 495 968 507 939 507 905 C 507 870 495 840 471 816 C 447 791 417 779 382 779 Z M 382 845 C 398 845 412 850 423 862 C 434 874 440 888 440 905 C 440 921 434 934 423 946 C 412 958 398 964 382 964 C 366 964 352 958 341 946 C 329 934 324 921 324 905 C 324 888 329 874 341 862 C 352 850 366 845 382 845 Z" unicode="Ů" />
<glyph horiz-adv-x="643" d="M 79 0 L 79 0 Z M 79 544 L 182 544 L 182 202 C 182 156 194 123 220 104 C 246 84 278 75 316 75 C 354 75 386 87 413 111 C 440 135 454 166 454 206 L 454 544 L 557 544 L 557 0 L 464 0 L 464 108 C 455 77 434 49 401 25 C 368 0 326 -12 275 -12 C 248 -12 223 -8 199 -1 C 175 6 154 17 136 31 C 118 45 104 64 94 86 C 84 108 79 133 79 163 L 79 544 Z M 318 593 L 318 593 Z M 318 593 C 284 593 254 605 230 630 C 206 654 194 684 194 719 C 194 753 206 782 230 806 C 254 830 284 843 318 843 C 353 843 383 830 407 806 C 431 782 443 753 443 719 C 443 684 431 654 407 630 C 383 605 353 593 318 593 Z M 318 659 C 334 659 348 664 359 676 C 370 688 376 702 376 719 C 376 735 370 748 359 760 C 348 772 334 778 318 778 C 302 778 288 772 277 760 C 265 748 260 735 260 719 C 260 702 265 688 277 676 C 288 664 302 659 318 659 Z" unicode="ů" />
<glyph horiz-adv-x="765" d="M 90 0 L 90 0 Z M 676 730 L 676 266 C 676 222 668 183 652 149 C 636 114 615 85 589 61 C 563 37 532 19 496 7 C 460 -5 422 -12 382 -12 C 342 -12 305 -6 269 6 C 233 18 202 35 176 59 C 150 83 129 112 113 147 C 97 181 90 221 90 266 L 90 730 L 197 730 L 197 269 C 197 241 201 215 211 193 C 221 170 234 151 251 135 C 267 119 287 107 309 99 C 331 91 355 87 380 87 C 405 87 429 91 452 99 C 475 107 495 118 512 134 C 529 149 543 168 553 191 C 563 213 568 239 568 269 L 568 730 L 676 730 Z M 382 778 L 382 778 Z M 185 778 L 280 929 L 388 929 L 275 778 L 185 778 Z M 377 778 L 472 929 L 581 929 L 467 778 L 377 778 Z" unicode="Ű" />
<glyph horiz-adv-x="643" d="M 79 0 L 79 0 Z M 79 544 L 182 544 L 182 202 C 182 156 194 123 220 104 C 246 84 278 75 316 75 C 354 75 386 87 413 111 C 440 135 454 166 454 206 L 454 544 L 557 544 L 557 0 L 464 0 L 464 108 C 455 77 434 49 401 25 C 368 0 326 -12 275 -12 C 248 -12 223 -8 199 -1 C 175 6 154 17 136 31 C 118 45 104 64 94 86 C 84 108 79 133 79 163 L 79 544 Z M 318 592 L 318 592 Z M 121 592 L 216 743 L 324 743 L 211 592 L 121 592 Z M 313 592 L 408 743 L 517 743 L 403 592 L 313 592 Z" unicode="ű" />
<glyph horiz-adv-x="765" d="M 90 0 L 90 0 Z M 676 730 L 676 266 C 676 222 668 183 652 149 C 636 114 615 85 589 61 C 563 37 532 19 496 7 C 460 -5 422 -12 382 -12 C 342 -12 305 -6 269 6 C 233 18 202 35 176 59 C 150 83 129 112 113 147 C 97 181 90 221 90 266 L 90 730 L 197 730 L 197 269 C 197 241 201 215 211 193 C 221 170 234 151 251 135 C 267 119 287 107 309 99 C 331 91 355 87 380 87 C 405 87 429 91 452 99 C 475 107 495 118 512 134 C 529 149 543 168 553 191 C 563 213 568 239 568 269 L 568 730 L 676 730 Z M 433 -7 L 433 -7 Z M 538 -91 L 567 -133 C 546 -154 523 -170 498 -181 C 472 -192 444 -198 414 -198 C 379 -198 352 -190 332 -176 C 312 -161 302 -142 302 -120 C 302 -97 310 -75 328 -55 C 345 -34 368 -16 398 -1 L 468 -1 C 443 -13 424 -26 410 -40 C 396 -54 389 -67 389 -80 C 389 -92 394 -103 405 -111 C 416 -119 430 -123 447 -123 C 466 -123 483 -120 499 -114 C 515 -108 528 -100 538 -91 Z" unicode="Ų" />
<glyph horiz-adv-x="643" d="M 79 0 L 79 0 Z M 79 544 L 182 544 L 182 202 C 182 156 194 123 220 104 C 246 84 278 75 316 75 C 354 75 386 87 413 111 C 440 135 454 166 454 206 L 454 544 L 557 544 L 557 0 L 464 0 L 464 108 C 455 77 434 49 401 25 C 368 0 326 -12 275 -12 C 248 -12 223 -8 199 -1 C 175 6 154 17 136 31 C 118 45 104 64 94 86 C 84 108 79 133 79 163 L 79 544 Z M 500 -6 L 500 -6 Z M 605 -90 L 634 -132 C 613 -153 590 -169 565 -180 C 539 -191 511 -197 481 -197 C 446 -197 419 -189 399 -175 C 379 -160 369 -141 369 -119 C 369 -96 377 -74 395 -54 C 412 -33 435 -15 465 0 L 535 0 C 510 -12 491 -25 477 -39 C 463 -53 456 -66 456 -79 C 456 -91 461 -102 472 -110 C 483 -118 497 -122 514 -122 C 533 -122 550 -119 566 -113 C 582 -107 595 -99 605 -90 Z" unicode="ų" />
<glyph horiz-adv-x="939" d="M 11 0 L 11 0 Z M 928 730 L 705 -5 L 639 -5 L 472 531 L 295 -5 L 229 -5 L 11 730 L 124 730 L 274 212 L 442 730 L 507 730 L 676 208 L 826 730 L 928 730 Z M 469 779 L 469 779 Z M 645 779 L 550 779 L 469 890 L 387 779 L 294 779 L 417 951 L 522 951 L 645 779 Z" unicode="Ŵ" />
<glyph horiz-adv-x="780" d="M 3 0 L 3 0 Z M 526 -3 L 398 328 L 254 -3 L 193 -3 L 3 544 L 111 544 L 239 156 L 370 480 L 435 480 L 554 159 L 679 544 L 778 544 L 587 -3 L 526 -3 Z M 399 593 L 399 593 Z M 575 593 L 480 593 L 399 704 L 317 593 L 224 593 L 347 765 L 452 765 L 575 593 Z" unicode="ŵ" />
<glyph horiz-adv-x="671" d="M 0 0 L 0 0 Z M 671 730 L 388 306 L 388 0 L 278 0 L 278 310 L 0 730 L 123 730 L 338 407 L 555 730 L 671 730 Z M 338 779 L 338 779 Z M 514 779 L 419 779 L 338 890 L 256 779 L 163 779 L 286 951 L 391 951 L 514 779 Z" unicode="Ŷ" />
<glyph horiz-adv-x="558" d="M 0 0 L 0 0 Z M 563 544 L 274 -74 C 251 -122 222 -155 188 -173 C 154 -191 121 -200 90 -200 C 72 -200 58 -198 46 -194 C 34 -190 25 -187 20 -185 L 54 -94 C 57 -96 63 -98 71 -100 C 79 -102 87 -104 97 -104 C 114 -104 130 -98 145 -86 C 159 -74 174 -55 189 -28 L 223 39 L -5 544 L 106 544 L 279 154 L 455 544 L 563 544 Z M 279 593 L 279 593 Z M 455 593 L 360 593 L 279 704 L 197 593 L 104 593 L 227 765 L 332 765 L 455 593 Z" unicode="ŷ" />
<glyph horiz-adv-x="671" d="M 0 0 L 0 0 Z M 671 730 L 388 306 L 388 0 L 278 0 L 278 310 L 0 730 L 123 730 L 338 407 L 555 730 L 671 730 Z M 338 779 L 338 779 Z M 475 779 L 389 779 L 389 938 L 475 938 L 475 779 Z M 287 779 L 201 779 L 201 938 L 287 938 L 287 779 Z" unicode="Ÿ" />
<glyph horiz-adv-x="593" d="M 20 0 L 20 0 Z M 561 730 L 561 683 L 168 96 L 573 96 L 573 0 L 20 0 L 20 45 L 408 633 L 49 633 L 49 730 L 561 730 Z M 296 788 L 296 788 Z M 184 788 L 288 950 L 409 950 L 286 788 L 184 788 Z" unicode="Ź" />
<glyph horiz-adv-x="490" d="M 19 0 L 19 0 Z M 457 544 L 457 497 L 169 91 L 480 91 L 480 0 L 19 0 L 19 46 L 307 453 L 32 453 L 32 544 L 457 544 Z M 250 602 L 250 602 Z M 138 602 L 242 764 L 363 764 L 240 602 L 138 602 Z" unicode="ź" />
<glyph horiz-adv-x="593" d="M 20 0 L 20 0 Z M 561 730 L 561 683 L 168 96 L 573 96 L 573 0 L 20 0 L 20 45 L 408 633 L 49 633 L 49 730 L 561 730 Z M 296 779 L 296 779 Z M 343 779 L 250 779 L 250 943 L 343 943 L 343 779 Z" unicode="Ż" />
<glyph horiz-adv-x="490" d="M 19 0 L 19 0 Z M 457 544 L 457 497 L 169 91 L 480 91 L 480 0 L 19 0 L 19 46 L 307 453 L 32 453 L 32 544 L 457 544 Z M 250 593 L 250 593 Z M 297 593 L 204 593 L 204 757 L 297 757 L 297 593 Z" unicode="ż" />
<glyph horiz-adv-x="593" d="M 20 0 L 20 0 Z M 561 730 L 561 683 L 168 96 L 573 96 L 573 0 L 20 0 L 20 45 L 408 633 L 49 633 L 49 730 L 561 730 Z M 296 779 L 296 779 Z M 121 951 L 216 951 L 297 841 L 379 951 L 472 951 L 349 779 L 244 779 L 121 951 Z" unicode="Ž" />
<glyph horiz-adv-x="490" d="M 19 0 L 19 0 Z M 457 544 L 457 497 L 169 91 L 480 91 L 480 0 L 19 0 L 19 46 L 307 453 L 32 453 L 32 544 L 457 544 Z M 250 593 L 250 593 Z M 75 765 L 170 765 L 251 655 L 333 765 L 426 765 L 303 593 L 198 593 L 75 765 Z" unicode="ž" />
<glyph horiz-adv-x="381" d="M 190 -57 C 187 -89 174 -117 151 -142 C 127 -166 98 -179 62 -179 C 43 -179 25 -177 8 -174 C -9 -171 -22 -168 -31 -164 L -21 -91 C -16 -91 -9 -93 0 -95 C 10 -97 19 -98 28 -98 C 47 -98 64 -91 79 -78 C 93 -64 102 -45 105 -21 L 136 333 L 40 333 L 40 411 L 143 411 L 162 625 C 164 644 169 661 177 676 C 185 690 194 702 206 712 C 217 722 229 729 243 734 C 257 739 270 742 284 742 C 298 742 311 741 325 740 C 339 739 347 738 350 738 L 342 649 C 340 649 336 650 330 651 C 324 651 318 652 312 652 C 293 652 278 645 266 633 C 254 620 247 600 245 574 L 231 411 L 334 411 L 334 333 L 224 333 L 190 -57 Z" unicode="ƒ" />
<glyph horiz-adv-x="609" d="M 42 0 L 42 0 Z M 309 -12 C 247 -12 194 -3 150 13 C 106 29 70 51 42 78 L 114 163 C 133 139 161 120 197 104 C 233 88 272 80 312 80 C 348 80 378 89 404 107 C 430 125 443 148 443 177 C 443 207 431 232 409 254 C 386 275 346 297 288 321 C 246 337 210 353 181 368 C 152 383 129 399 112 417 C 95 434 83 454 76 476 C 68 498 65 524 65 554 C 65 611 86 657 129 691 C 171 725 227 742 297 742 C 350 742 395 733 432 717 C 469 700 500 681 525 661 L 463 571 C 437 591 410 608 380 621 C 350 634 320 641 288 641 C 254 641 226 633 204 618 C 182 602 172 581 172 554 C 172 523 185 498 211 478 C 237 458 281 436 343 411 C 420 380 474 349 505 317 C 536 285 552 241 552 187 C 552 156 545 128 532 104 C 519 79 502 58 480 41 C 458 23 432 10 402 1 C 372 -7 341 -12 309 -12 Z M 299 -83 L 299 -83 Z M 399 -83 C 396 -113 391 -143 383 -172 C 375 -201 365 -228 354 -252 C 343 -276 331 -298 318 -317 C 304 -336 291 -351 278 -363 L 201 -328 C 208 -320 216 -307 226 -290 C 235 -272 244 -253 253 -231 C 261 -209 269 -185 277 -159 C 284 -133 289 -107 292 -83 L 399 -83 Z" unicode="Ș" />
<glyph horiz-adv-x="514" d="M 41 0 L 41 0 Z M 278 -11 C 226 -11 180 -4 140 8 C 100 21 67 38 41 59 L 86 129 C 110 113 140 99 174 88 C 208 76 241 71 273 71 C 301 71 324 78 343 93 C 362 107 372 126 372 148 C 372 166 362 183 343 198 C 323 213 287 228 233 243 C 169 260 124 283 100 312 C 76 340 64 373 64 411 C 64 433 69 453 79 471 C 89 489 102 504 120 517 C 138 529 159 539 183 546 C 207 552 233 556 261 556 C 315 556 358 549 391 536 C 423 522 448 510 465 498 L 427 420 C 403 434 379 447 353 458 C 327 468 299 474 269 474 C 242 474 219 468 199 456 C 179 444 169 428 169 409 C 169 399 170 390 173 383 C 176 375 182 368 191 361 C 200 354 213 347 230 340 C 247 333 270 326 298 318 C 360 299 406 277 434 251 C 462 225 477 192 477 151 C 477 126 471 104 461 84 C 451 64 437 47 419 33 C 401 19 379 8 355 0 C 331 -7 305 -11 278 -11 Z M 254 -75 L 254 -75 Z M 354 -75 C 351 -105 346 -135 338 -164 C 330 -193 320 -220 309 -244 C 298 -268 286 -290 273 -309 C 259 -328 246 -343 233 -355 L 156 -320 C 163 -312 171 -299 181 -282 C 190 -264 199 -245 208 -223 C 216 -201 224 -177 232 -151 C 239 -125 244 -99 247 -75 L 354 -75 Z" unicode="ș" />
<glyph horiz-adv-x="559" d="M 10 0 L 10 0 Z M 549 634 L 332 634 L 332 0 L 222 0 L 222 634 L 10 634 L 10 730 L 549 730 L 549 634 Z M 241 -74 L 241 -74 Z M 341 -74 C 338 -104 333 -134 325 -163 C 317 -192 307 -219 296 -243 C 285 -267 273 -289 260 -308 C 246 -327 233 -342 220 -354 L 143 -319 C 150 -311 158 -298 168 -281 C 177 -263 186 -244 195 -222 C 203 -200 211 -176 219 -150 C 226 -124 231 -98 234 -74 L 341 -74 Z" unicode="Ț" />
<glyph horiz-adv-x="391" d="M 13 0 L 13 0 Z M 360 108 L 377 25 C 364 15 346 7 323 2 C 300 -3 277 -6 255 -6 C 210 -6 172 7 142 34 C 111 60 96 103 96 161 L 96 459 L 13 459 L 13 544 L 96 544 L 96 686 L 198 699 L 198 544 L 352 544 L 352 459 L 198 459 L 198 166 C 198 140 204 120 216 106 C 228 91 245 84 268 84 C 287 84 305 87 322 93 C 338 99 351 104 360 108 Z M 179 -74 L 179 -74 Z M 279 -74 C 276 -104 271 -134 263 -163 C 255 -192 245 -219 234 -243 C 223 -267 211 -289 198 -308 C 184 -327 171 -342 158 -354 L 81 -319 C 88 -311 96 -298 106 -281 C 115 -263 124 -244 133 -222 C 141 -200 149 -176 157 -150 C 164 -124 169 -98 172 -74 L 279 -74 Z" unicode="ț" />
<glyph horiz-adv-x="330" d="M 250 544 L 250 1 C 250 -32 245 -61 236 -87 C 227 -113 215 -134 200 -151 C 184 -167 166 -180 146 -189 C 126 -197 104 -202 82 -202 C 55 -202 28 -199 2 -193 C -23 -187 -46 -178 -65 -168 L -32 -85 C -19 -92 -4 -98 12 -103 C 29 -107 49 -110 71 -110 C 92 -110 110 -99 125 -77 C 139 -55 147 -27 147 6 L 147 544 L 250 544 Z" unicode="ȷ" />
<glyph horiz-adv-x="500" d="M 426 593 L 331 593 L 250 704 L 168 593 L 75 593 L 198 765 L 303 765 L 426 593 Z" unicode="ˆ" />
<glyph horiz-adv-x="500" d="M 75 765 L 170 765 L 251 655 L 333 765 L 426 765 L 303 593 L 198 593 L 75 765 Z" unicode="ˇ" />
<glyph horiz-adv-x="500" d="M 326 755 L 411 755 C 407 700 390 660 360 635 C 330 609 294 597 250 597 C 206 597 169 609 139 635 C 109 660 93 700 89 755 L 174 755 C 176 728 183 706 195 690 C 207 674 225 666 250 666 C 274 666 293 673 305 689 C 317 705 324 727 326 755 Z" unicode="˘" />
<glyph horiz-adv-x="500" d="M 297 593 L 204 593 L 204 757 L 297 757 L 297 593 Z" unicode="˙" />
<glyph horiz-adv-x="520" d="M 260 593 C 226 593 196 605 172 630 C 148 654 136 684 136 719 C 136 753 148 782 172 806 C 196 830 226 843 260 843 C 295 843 325 830 349 806 C 373 782 385 753 385 719 C 385 684 373 654 349 630 C 325 605 295 593 260 593 Z M 260 659 C 276 659 290 664 301 676 C 312 688 318 702 318 719 C 318 735 312 748 301 760 C 290 772 276 778 260 778 C 244 778 230 772 219 760 C 207 748 202 735 202 719 C 202 702 207 688 219 676 C 230 664 244 659 260 659 Z" unicode="˚" />
<glyph horiz-adv-x="500" d="M 361 -84 L 390 -126 C 369 -147 346 -163 321 -174 C 295 -185 267 -191 237 -191 C 202 -191 175 -183 155 -169 C 135 -154 125 -135 125 -113 C 125 -90 133 -68 151 -48 C 168 -27 191 -9 221 6 L 291 6 C 266 -6 247 -19 233 -33 C 219 -47 212 -60 212 -73 C 212 -85 217 -96 228 -104 C 239 -112 253 -116 270 -116 C 289 -116 306 -113 322 -107 C 338 -101 351 -93 361 -84 Z" unicode="˛" />
<glyph horiz-adv-x="500" d="M 351 739 L 433 739 C 433 691 425 655 410 633 C 395 610 374 599 348 599 C 329 599 312 602 298 610 C 284 617 270 625 258 635 C 247 643 236 651 225 659 C 214 667 203 671 193 671 C 182 671 173 665 166 654 C 159 643 155 626 155 603 L 74 603 C 74 650 84 685 104 708 C 124 731 146 743 169 743 C 187 743 202 739 216 731 C 229 723 242 715 254 705 C 264 696 274 688 284 682 C 294 676 303 673 313 673 C 323 673 332 678 339 689 C 346 700 350 717 351 739 Z" unicode="˜" />
<glyph horiz-adv-x="500" d="M 66 592 L 161 743 L 269 743 L 156 592 L 66 592 Z M 258 592 L 353 743 L 462 743 L 348 592 L 258 592 Z" unicode="˝" />
<glyph horiz-adv-x="0" d="M 0 592 L 0 592 Z M 113 592 L 10 592 L -113 755 L 7 755 L 113 592 Z" unicode="̀" />
<glyph horiz-adv-x="0" d="M 0 602 L 0 602 Z M -112 602 L -8 764 L 113 764 L -10 602 L -112 602 Z" unicode="́" />
<glyph horiz-adv-x="0" d="M 0 593 L 0 593 Z M 176 593 L 81 593 L 0 704 L -82 593 L -175 593 L -52 765 L 53 765 L 176 593 Z" unicode="̂" />
<glyph horiz-adv-x="0" d="M 0 599 L 0 599 Z M 97 739 L 179 739 C 179 691 171 655 156 633 C 141 610 120 599 94 599 C 75 599 58 602 44 610 C 30 617 16 625 4 635 C -6 643 -17 651 -28 659 C -39 667 -50 671 -61 671 C -71 671 -80 665 -87 654 C -94 643 -98 626 -99 603 L -180 603 C -180 650 -169 685 -149 708 C -129 731 -107 743 -85 743 C -67 743 -51 739 -38 731 C -24 723 -12 715 0 705 C 10 696 20 688 30 682 C 40 676 49 673 59 673 C 69 673 78 678 85 689 C 92 700 96 717 97 739 Z" unicode="̃" />
<glyph horiz-adv-x="0" d="M 0 602 L 0 602 Z M 134 602 L -134 602 L -134 690 L 134 690 L 134 602 Z" unicode="̄" />
<glyph horiz-adv-x="0" d="M 0 597 L 0 597 Z M 76 755 L 161 755 C 157 700 140 660 110 635 C 80 609 44 597 0 597 C -44 597 -80 609 -110 635 C -140 660 -157 700 -161 755 L -76 755 C -74 728 -67 706 -55 690 C -43 674 -24 666 0 666 C 24 666 43 673 55 689 C 67 705 74 727 76 755 Z" unicode="̆" />
<glyph horiz-adv-x="0" d="M 0 593 L 0 593 Z M 47 593 L -46 593 L -46 757 L 47 757 L 47 593 Z" unicode="̇" />
<glyph horiz-adv-x="0" d="M 0 593 L 0 593 Z M 137 593 L 51 593 L 51 752 L 137 752 L 137 593 Z M -51 593 L -137 593 L -137 752 L -51 752 L -51 593 Z" unicode="̈" />
<glyph horiz-adv-x="0" d="M 0 593 L 0 593 Z M 0 593 C -34 593 -63 605 -87 630 C -111 654 -124 684 -124 719 C -124 753 -111 782 -87 806 C -63 830 -34 843 0 843 C 35 843 65 830 89 806 C 113 782 125 753 125 719 C 125 684 113 654 89 630 C 65 605 35 593 0 593 Z M 0 659 C 16 659 30 664 41 676 C 52 688 58 702 58 719 C 58 735 52 748 41 760 C 30 772 16 778 0 778 C -16 778 -29 772 -41 760 C -52 748 -58 735 -58 719 C -58 702 -52 688 -41 676 C -29 664 -16 659 0 659 Z" unicode="̊" />
<glyph horiz-adv-x="0" d="M 0 592 L 0 592 Z M -197 592 L -102 743 L 6 743 L -107 592 L -197 592 Z M -5 592 L 90 743 L 199 743 L 85 592 L -5 592 Z" unicode="̋" />
<glyph horiz-adv-x="0" d="M 0 593 L 0 593 Z M -175 765 L -80 765 L 1 655 L 83 765 L 176 765 L 53 593 L -52 593 L -175 765 Z" unicode="̌" />
<glyph horiz-adv-x="0" d="M 0 -74 L 0 -74 Z M 100 -74 C 97 -104 92 -134 84 -163 C 76 -192 66 -219 55 -243 C 44 -267 32 -289 19 -308 C 5 -327 -7 -342 -21 -354 L -98 -319 C -90 -311 -82 -298 -73 -281 C -63 -263 -54 -244 -46 -222 C -37 -200 -29 -176 -22 -150 C -14 -124 -9 -98 -7 -74 L 100 -74 Z" unicode="̦" />
<glyph horiz-adv-x="0" d="M 0 0 L 0 0 Z M 9 -189 C -15 -189 -40 -186 -66 -180 C -92 -174 -112 -166 -126 -157 L -111 -112 C -101 -117 -89 -122 -74 -127 C -59 -132 -43 -135 -25 -135 C -11 -135 1 -131 12 -125 C 22 -119 28 -111 28 -101 C 28 -89 23 -80 14 -76 C 4 -71 -5 -69 -16 -69 C -24 -69 -30 -69 -36 -70 C -41 -71 -47 -73 -54 -75 L -67 -61 L -6 14 L 55 14 L 5 -49 C 39 -42 67 -45 91 -58 C 114 -70 126 -89 126 -114 C 126 -139 114 -158 90 -170 C 66 -182 39 -189 9 -189 Z" unicode="̧" />
<glyph horiz-adv-x="0" d="M 0 0 L 0 0 Z M 105 -84 L 134 -126 C 113 -147 90 -163 65 -174 C 39 -185 11 -191 -19 -191 C -53 -191 -81 -183 -101 -169 C -121 -154 -131 -135 -131 -113 C -131 -90 -122 -68 -105 -48 C -87 -27 -64 -9 -35 6 L 35 6 C 10 -6 -9 -19 -23 -33 C -37 -47 -44 -60 -44 -73 C -44 -85 -38 -96 -27 -104 C -16 -112 -2 -116 14 -116 C 33 -116 50 -113 66 -107 C 82 -101 95 -93 105 -84 Z" unicode="̨" />
<glyph horiz-adv-x="566" d="M 0 0 L 0 0 Z M 661 0 L 0 0 L 297 733 L 370 733 L 661 0 Z M 511 86 L 325 572 L 142 86 L 511 86 Z" unicode="Δ" />
<glyph horiz-adv-x="724" d="M 34 0 L 34 0 Z M 43 0 L 43 94 L 259 94 L 259 157 C 227 167 197 182 169 201 C 141 220 118 242 98 267 C 78 292 62 320 51 350 C 39 380 34 412 34 446 C 34 488 42 527 58 564 C 74 600 96 632 126 659 C 156 686 192 707 235 723 C 277 739 325 747 377 747 C 431 747 479 739 523 723 C 567 707 604 685 634 658 C 664 631 687 599 703 563 C 719 526 728 487 728 446 C 728 378 708 319 669 268 C 629 217 574 180 502 157 L 502 94 L 718 94 L 718 0 L 428 0 L 428 212 C 486 232 532 263 566 305 C 599 346 616 391 616 441 C 616 473 609 502 597 529 C 585 556 568 579 547 599 C 526 618 501 633 472 644 C 442 655 411 661 378 661 C 345 661 314 655 286 644 C 257 633 232 618 212 598 C 192 578 176 555 164 528 C 152 501 146 471 146 439 C 146 391 162 346 195 306 C 227 266 274 234 334 212 L 334 0 L 43 0 Z" unicode="Ω" />
<glyph horiz-adv-x="588" d="M 79 0 L 79 0 Z M 79 -199 L 79 544 L 179 544 L 179 175 C 179 147 191 123 215 103 C 239 83 269 73 305 73 C 321 73 337 76 353 83 C 369 89 384 99 398 111 C 411 123 422 138 430 156 C 438 174 443 194 443 216 L 443 544 L 543 544 L 543 0 L 450 0 L 450 95 C 444 81 436 69 424 57 C 412 45 398 34 383 25 C 367 16 351 9 333 3 C 315 -2 298 -5 281 -6 C 258 -6 236 -1 216 7 C 195 16 180 29 172 46 L 172 -199 L 79 -199 Z" unicode="μ" />
<glyph horiz-adv-x="636" d="M 191 466 L 191 0 L 91 0 L 91 466 L 15 466 L 15 544 L 621 544 L 621 466 L 541 466 L 541 0 L 440 0 L 440 466 L 191 466 Z" unicode="π" />
<glyph horiz-adv-x="939" d="M 11 0 L 11 0 Z M 928 730 L 705 -5 L 639 -5 L 472 531 L 295 -5 L 229 -5 L 11 730 L 124 730 L 274 212 L 442 730 L 507 730 L 676 208 L 826 730 L 928 730 Z M 469 778 L 469 778 Z M 582 778 L 479 778 L 356 941 L 476 941 L 582 778 Z" unicode="Ẁ" />
<glyph horiz-adv-x="780" d="M 3 0 L 3 0 Z M 526 -3 L 398 328 L 254 -3 L 193 -3 L 3 544 L 111 544 L 239 156 L 370 480 L 435 480 L 554 159 L 679 544 L 778 544 L 587 -3 L 526 -3 Z M 399 592 L 399 592 Z M 512 592 L 409 592 L 286 755 L 406 755 L 512 592 Z" unicode="ẁ" />
<glyph horiz-adv-x="939" d="M 11 0 L 11 0 Z M 928 730 L 705 -5 L 639 -5 L 472 531 L 295 -5 L 229 -5 L 11 730 L 124 730 L 274 212 L 442 730 L 507 730 L 676 208 L 826 730 L 928 730 Z M 469 788 L 469 788 Z M 357 788 L 461 950 L 582 950 L 459 788 L 357 788 Z" unicode="Ẃ" />
<glyph horiz-adv-x="780" d="M 3 0 L 3 0 Z M 526 -3 L 398 328 L 254 -3 L 193 -3 L 3 544 L 111 544 L 239 156 L 370 480 L 435 480 L 554 159 L 679 544 L 778 544 L 587 -3 L 526 -3 Z M 399 602 L 399 602 Z M 287 602 L 391 764 L 512 764 L 389 602 L 287 602 Z" unicode="ẃ" />
<glyph horiz-adv-x="939" d="M 11 0 L 11 0 Z M 928 730 L 705 -5 L 639 -5 L 472 531 L 295 -5 L 229 -5 L 11 730 L 124 730 L 274 212 L 442 730 L 507 730 L 676 208 L 826 730 L 928 730 Z M 469 779 L 469 779 Z M 606 779 L 520 779 L 520 938 L 606 938 L 606 779 Z M 418 779 L 332 779 L 332 938 L 418 938 L 418 779 Z" unicode="Ẅ" />
<glyph horiz-adv-x="780" d="M 3 0 L 3 0 Z M 526 -3 L 398 328 L 254 -3 L 193 -3 L 3 544 L 111 544 L 239 156 L 370 480 L 435 480 L 554 159 L 679 544 L 778 544 L 587 -3 L 526 -3 Z M 399 593 L 399 593 Z M 536 593 L 450 593 L 450 752 L 536 752 L 536 593 Z M 348 593 L 262 593 L 262 752 L 348 752 L 348 593 Z" unicode="ẅ" />
<glyph horiz-adv-x="671" d="M 0 0 L 0 0 Z M 671 730 L 388 306 L 388 0 L 278 0 L 278 310 L 0 730 L 123 730 L 338 407 L 555 730 L 671 730 Z M 338 778 L 338 778 Z M 451 778 L 348 778 L 225 941 L 345 941 L 451 778 Z" unicode="Ỳ" />
<glyph horiz-adv-x="558" d="M 0 0 L 0 0 Z M 563 544 L 274 -74 C 251 -122 222 -155 188 -173 C 154 -191 121 -200 90 -200 C 72 -200 58 -198 46 -194 C 34 -190 25 -187 20 -185 L 54 -94 C 57 -96 63 -98 71 -100 C 79 -102 87 -104 97 -104 C 114 -104 130 -98 145 -86 C 159 -74 174 -55 189 -28 L 223 39 L -5 544 L 106 544 L 279 154 L 455 544 L 563 544 Z M 279 592 L 279 592 Z M 392 592 L 289 592 L 166 755 L 286 755 L 392 592 Z" unicode="ỳ" />
<glyph horiz-adv-x="461" d="M 421 225 L 40 225 L 40 313 L 421 313 L 421 225 Z" unicode="–" />
<glyph horiz-adv-x="646" d="M 606 225 L 40 225 L 40 313 L 606 313 L 606 225 Z" unicode="—" />
<glyph horiz-adv-x="280" d="M 33 507 L 33 514 C 33 550 44 589 68 629 C 91 669 122 705 162 737 L 264 731 C 254 725 242 715 228 701 C 214 687 200 670 188 651 C 175 631 164 610 155 587 C 146 563 142 539 142 515 L 142 507 L 33 507 Z" unicode="‘" />
<glyph horiz-adv-x="280" d="M 246 737 L 246 730 C 246 693 234 655 210 616 C 186 577 155 541 117 507 L 15 513 C 25 521 37 532 51 546 C 65 560 78 577 91 596 C 103 614 114 635 123 658 C 132 680 137 704 137 729 L 137 737 L 246 737 Z" unicode="’" />
<glyph horiz-adv-x="280" d="M 246 113 L 246 106 C 246 69 234 31 210 -7 C 186 -46 155 -83 117 -117 L 15 -111 C 25 -103 37 -91 51 -77 C 65 -63 78 -46 91 -28 C 103 -9 114 11 123 34 C 132 56 137 80 137 105 L 137 113 L 246 113 Z" unicode="‚" />
<glyph horiz-adv-x="461" d="M 229 507 L 229 514 C 229 550 240 587 263 625 C 286 663 318 700 358 737 L 446 731 C 436 722 424 710 410 696 C 396 682 382 665 369 647 C 356 628 345 607 336 585 C 326 563 322 539 322 515 L 322 507 L 229 507 Z M 33 507 L 33 514 C 33 550 45 587 69 625 C 93 663 124 700 162 737 L 250 731 C 241 723 230 711 216 697 C 202 683 188 666 175 648 C 161 629 150 608 140 586 C 130 563 126 539 126 515 L 126 507 L 33 507 Z" unicode="“" />
<glyph horiz-adv-x="461" d="M 232 737 L 232 730 C 232 693 221 656 199 618 C 177 580 145 543 103 507 L 15 513 C 26 522 39 534 53 549 C 67 563 81 580 94 598 C 106 616 117 637 126 659 C 134 681 139 704 139 729 L 139 737 L 232 737 Z M 428 737 L 428 730 C 428 693 416 655 393 617 C 370 579 339 542 299 507 L 211 513 C 223 523 236 535 250 549 C 264 563 278 580 290 598 C 302 616 313 637 322 659 C 330 681 335 704 335 729 L 335 737 L 428 737 Z" unicode="”" />
<glyph horiz-adv-x="461" d="M 232 118 L 232 111 C 232 74 221 37 199 0 C 177 -38 145 -75 103 -112 L 15 -106 C 26 -96 39 -84 53 -70 C 67 -55 81 -38 94 -20 C 106 -2 117 18 126 40 C 134 62 139 85 139 110 L 139 118 L 232 118 Z M 428 118 L 428 111 C 428 74 416 36 393 -1 C 370 -39 339 -76 299 -112 L 211 -106 C 223 -96 236 -83 250 -69 C 264 -55 278 -38 290 -20 C 302 -2 313 18 322 40 C 330 62 335 85 335 110 L 335 118 L 428 118 Z" unicode="„" />
<glyph horiz-adv-x="565" d="M 540 389 L 333 389 L 333 -179 L 226 -179 L 226 389 L 25 389 L 25 470 L 226 470 L 226 730 L 333 730 L 333 470 L 540 470 L 540 389 Z" unicode="†" />
<glyph horiz-adv-x="565" d="M 227 -179 L 227 114 L 30 114 L 30 195 L 227 195 L 227 388 L 30 388 L 30 469 L 227 469 L 227 730 L 333 730 L 333 469 L 535 469 L 535 388 L 333 388 L 333 195 L 535 195 L 535 114 L 333 114 L 333 -179 L 227 -179 Z" unicode="‡" />
<glyph horiz-adv-x="383" d="M 191 473 C 217 473 240 464 258 446 C 276 428 285 405 285 379 C 285 353 276 331 258 313 C 240 295 217 286 191 286 C 164 286 142 295 124 313 C 106 331 98 353 98 379 C 98 405 106 428 124 446 C 142 464 164 473 191 473 Z" unicode="•" />
<glyph horiz-adv-x="721" d="M 69 0 L 69 136 L 172 136 L 172 0 L 69 0 Z M 309 0 L 309 136 L 412 136 L 412 0 L 309 0 Z M 550 0 L 550 136 L 652 136 L 652 0 L 550 0 Z" unicode="…" />
<glyph horiz-adv-x="1274" d="M 220 344 C 196 344 173 348 151 358 C 129 368 109 381 93 398 C 77 415 64 436 54 461 C 44 485 40 512 40 542 C 40 568 44 593 53 617 C 62 641 74 662 90 680 C 106 698 125 713 147 724 C 169 734 192 740 218 740 C 244 740 268 734 290 724 C 312 713 330 699 346 681 C 361 663 373 643 382 619 C 390 595 395 571 395 545 C 395 517 390 491 382 467 C 373 442 361 421 346 403 C 330 385 312 370 290 360 C 268 349 245 344 220 344 Z M 131 0 L 646 730 L 751 730 L 234 0 L 131 0 Z M 133 542 C 133 504 141 474 158 454 C 174 434 194 424 217 424 C 243 424 264 434 279 456 C 294 477 302 506 302 542 C 302 576 295 604 281 626 C 267 648 247 659 219 659 C 192 659 171 648 156 626 C 140 604 133 576 133 542 Z M 667 -3 C 643 -3 620 1 598 11 C 576 21 558 34 542 51 C 526 68 513 89 503 114 C 493 138 489 165 489 195 C 489 221 493 246 502 270 C 511 294 523 315 539 333 C 555 351 573 366 595 377 C 616 387 639 393 665 393 C 691 393 715 387 737 377 C 759 366 777 352 793 334 C 809 316 821 296 830 272 C 838 248 843 224 843 198 C 843 170 838 144 830 120 C 821 96 809 74 793 56 C 777 38 759 23 737 13 C 715 2 692 -3 667 -3 Z M 1058 -3 C 1034 -3 1011 1 989 11 C 967 21 948 34 932 51 C 916 68 903 89 893 114 C 883 138 879 165 879 195 C 879 221 883 246 892 270 C 901 294 913 315 929 333 C 945 351 964 366 986 377 C 1008 387 1031 393 1057 393 C 1083 393 1107 387 1129 377 C 1151 366 1169 352 1185 334 C 1200 316 1212 296 1221 272 C 1229 248 1234 224 1234 198 C 1234 170 1229 144 1221 120 C 1212 96 1200 74 1184 56 C 1168 38 1150 23 1128 13 C 1106 2 1083 -3 1058 -3 Z M 664 78 C 692 78 713 88 728 110 C 743 131 751 159 751 195 C 751 229 744 258 730 280 C 716 302 694 313 666 313 C 639 313 618 302 604 280 C 589 258 582 230 582 195 C 582 157 590 128 606 108 C 622 88 641 78 664 78 Z M 1055 78 C 1082 78 1103 88 1118 110 C 1133 131 1141 159 1141 195 C 1141 229 1134 258 1120 280 C 1106 302 1086 313 1058 313 C 1031 313 1010 302 995 280 C 979 258 972 230 972 195 C 972 157 980 128 996 108 C 1012 88 1032 78 1055 78 Z" unicode="‰" />
<glyph horiz-adv-x="242" d="M 213 110 L 27 279 L 27 337 L 213 504 L 213 404 L 115 305 L 213 212 L 213 110 Z" unicode="‹" />
<glyph horiz-adv-x="243" d="M 29 505 L 216 336 L 216 279 L 29 112 L 29 211 L 127 309 L 29 403 L 29 505 Z" unicode="›" />
<glyph horiz-adv-x="145" d="M 304 730 L -57 0 L -145 0 L 216 730 L 304 730 Z" unicode="⁄" />
<glyph horiz-adv-x="328" d="M 14 453 L 14 514 L 198 737 L 256 737 L 256 518 L 316 518 L 316 453 L 256 453 L 256 373 L 173 373 L 173 453 L 14 453 Z M 82 506 L 175 506 L 175 620 L 82 506 Z" unicode="⁴" />
<glyph horiz-adv-x="566" d="M 563 115 C 542 77 512 47 472 23 C 432 0 388 -12 340 -12 C 278 -12 224 10 180 56 C 135 101 105 163 89 242 L 36 242 L 36 314 L 80 314 C 79 321 78 329 78 337 C 78 345 78 353 78 361 C 78 368 78 375 78 383 C 78 391 78 398 79 406 L 36 406 L 36 478 L 88 478 C 94 516 105 552 119 584 C 133 616 150 644 171 668 C 192 691 217 709 245 722 C 273 735 305 742 339 742 C 398 742 445 730 479 706 C 513 682 538 655 555 625 L 473 583 C 460 605 443 624 422 639 C 400 653 373 661 339 661 C 299 661 265 645 238 614 C 211 583 193 538 183 478 L 492 478 L 492 406 L 175 406 C 174 399 174 392 174 385 C 174 377 174 370 174 363 C 174 354 174 346 174 338 C 174 330 175 322 176 314 L 492 314 L 492 242 L 186 242 C 198 185 219 142 247 113 C 275 83 307 69 341 69 C 375 69 404 78 428 97 C 452 116 471 138 485 163 L 563 115 Z" unicode="€" />
<glyph horiz-adv-x="937" d="M 881 292 L 788 292 L 788 581 L 644 390 L 636 390 L 493 580 L 493 292 L 403 292 L 403 730 L 467 730 L 641 507 L 812 730 L 881 730 L 881 292 Z M 374 625 L 247 625 L 247 292 L 142 292 L 142 625 L 18 625 L 18 730 L 374 730 L 374 625 Z" unicode="™" />
<glyph horiz-adv-x="762" d="M 43 0 L 43 94 L 259 94 L 259 157 C 227 167 197 182 169 201 C 141 220 118 242 98 267 C 78 292 62 320 51 350 C 39 380 34 412 34 446 C 34 488 42 527 58 564 C 74 600 96 632 126 659 C 156 686 192 707 235 723 C 277 739 325 747 377 747 C 431 747 479 739 523 723 C 567 707 604 685 634 658 C 664 631 687 599 703 563 C 719 526 728 487 728 446 C 728 378 708 319 669 268 C 629 217 574 180 502 157 L 502 94 L 718 94 L 718 0 L 428 0 L 428 212 C 486 232 532 263 566 305 C 599 346 616 391 616 441 C 616 473 609 502 597 529 C 585 556 568 579 547 599 C 526 618 501 633 472 644 C 442 655 411 661 378 661 C 345 661 314 655 286 644 C 257 633 232 618 212 598 C 192 578 176 555 164 528 C 152 501 146 471 146 439 C 146 391 162 346 195 306 C 227 266 274 234 334 212 L 334 0 L 43 0 Z" unicode="Ω" />
<glyph horiz-adv-x="598" d="M 557 296 C 557 242 550 195 536 157 C 522 118 503 86 479 61 C 455 36 428 18 396 6 C 364 -5 330 -11 294 -11 C 262 -11 230 -5 200 6 C 169 17 142 33 118 54 C 94 74 75 100 61 130 C 46 160 39 195 39 233 C 39 267 45 299 58 330 C 70 360 88 387 110 410 C 132 433 158 451 188 465 C 218 479 250 486 284 486 C 329 486 368 475 401 454 C 434 433 458 407 473 376 C 465 441 451 497 431 543 C 411 589 387 626 359 656 C 331 685 301 707 268 721 C 235 735 202 742 170 744 L 217 802 C 250 802 287 792 327 774 C 367 756 403 726 437 686 C 471 646 499 593 522 529 C 545 465 557 387 557 296 Z M 296 61 C 342 61 379 77 408 110 C 437 143 452 188 452 246 C 452 292 438 331 410 363 C 382 395 344 412 296 412 C 252 412 215 395 187 363 C 158 330 144 288 144 236 C 144 180 158 136 187 106 C 215 76 252 61 296 61 Z" unicode="∂" />
<glyph horiz-adv-x="661" d="M 661 0 L 0 0 L 297 733 L 370 733 L 661 0 Z M 511 86 L 325 572 L 142 86 L 511 86 Z" unicode="∆" />
<glyph horiz-adv-x="700" d="M 232 639 L 232 0 L 127 0 L 127 639 L 15 639 L 15 730 L 685 730 L 685 639 L 579 639 L 579 0 L 474 0 L 474 639 L 232 639 Z" unicode="∏" />
<glyph horiz-adv-x="618" d="M 193 633 L 428 307 L 159 -82 L 571 -82 L 571 -179 L -18 -179 L 316 306 L 12 730 L 550 730 L 550 633 L 193 633 Z" unicode="∑" />
<glyph horiz-adv-x="516" d="M 476 289 L 40 289 L 40 376 L 476 376 L 476 289 Z" unicode="−" />
<glyph horiz-adv-x="510" d="M 504 730 L 198 0 L 186 0 L 12 330 L 84 385 L 204 143 L 440 730 L 504 730 Z" unicode="√" />
<glyph horiz-adv-x="342" d="M 105 -21 L 162 625 C 164 644 169 661 177 676 C 185 690 194 702 206 712 C 217 722 229 729 243 734 C 257 739 270 742 284 742 C 298 742 311 741 325 740 C 339 739 347 738 350 738 L 342 649 C 340 649 336 650 330 651 C 324 651 318 652 312 652 C 293 652 278 645 266 633 C 254 620 247 600 245 574 L 190 -57 C 187 -89 174 -117 151 -142 C 127 -167 98 -179 62 -179 C 42 -179 24 -177 7 -173 C -9 -169 -22 -164 -31 -160 L -20 -89 C -16 -89 -9 -91 0 -94 C 10 -96 19 -98 28 -98 C 47 -98 64 -91 79 -78 C 93 -64 102 -45 105 -21 Z" unicode="∫" />
<glyph horiz-adv-x="500" d="M 388 502 L 461 502 C 459 454 450 414 433 384 C 416 353 390 338 354 338 C 331 338 311 342 294 352 C 277 361 262 372 249 385 C 236 397 223 407 211 416 C 198 425 184 430 170 430 C 156 430 143 421 130 405 C 117 388 111 367 111 341 L 39 341 C 39 391 49 430 69 460 C 89 489 116 504 152 504 C 175 504 196 498 214 486 C 232 474 247 463 260 451 C 272 440 285 430 298 422 C 310 413 323 409 336 409 C 354 409 368 416 376 432 C 384 448 388 471 388 502 Z M 388 323 L 461 323 C 459 275 450 235 433 204 C 416 173 390 158 354 158 C 331 158 311 162 294 172 C 277 182 262 193 249 205 C 236 217 223 228 211 237 C 198 245 184 250 170 250 C 156 250 143 241 130 225 C 117 208 111 187 111 161 L 39 161 C 39 211 49 250 69 280 C 89 310 116 325 152 325 C 175 325 196 319 214 307 C 232 295 247 283 260 271 C 272 260 285 250 298 242 C 310 233 323 229 336 229 C 354 229 368 237 376 253 C 384 269 388 292 388 323 Z" unicode="≈" />
<glyph horiz-adv-x="500" d="M 457 171 L 220 171 L 170 65 L 117 89 L 156 171 L 65 171 L 65 258 L 196 258 L 256 386 L 65 386 L 65 472 L 297 472 L 349 583 L 402 559 L 361 472 L 457 472 L 457 386 L 321 386 L 261 258 L 457 258 L 457 171 Z" unicode="≠" />
<glyph horiz-adv-x="500" d="M 62 292 L 62 357 L 433 561 L 433 475 L 161 327 L 433 176 L 433 90 L 62 292 Z M 61 88 L 433 88 L 433 21 L 61 21 L 61 88 Z" unicode="≤" />
<glyph horiz-adv-x="500" d="M 432 292 L 61 90 L 61 176 L 333 327 L 61 475 L 61 561 L 432 357 L 432 292 Z M 433 88 L 433 21 L 61 21 L 61 88 L 433 88 Z" unicode="≥" />
<glyph horiz-adv-x="537" d="M 508 326 L 274 -19 L 263 -19 L 29 326 L 29 337 L 263 681 L 274 681 L 508 337 L 508 326 Z M 413 327 L 413 336 L 273 547 L 265 547 L 124 336 L 124 327 L 265 115 L 273 115 L 413 327 Z" unicode="◊" />
<glyph horiz-adv-x="730" d="M 448 673 L 282 673 L 282 730 L 448 730 L 448 673 Z M 659 282 L 600 282 L 600 448 L 659 448 L 659 282 Z M 130 282 L 71 282 L 71 448 L 130 448 L 130 282 Z M 433 297 L 297 297 L 297 433 L 433 433 L 433 297 Z M 448 0 L 282 0 L 282 58 L 448 58 L 448 0 Z" unicode="" />
<glyph horiz-adv-x="674" d="M 399 456 L 228 456 L 228 0 L 127 0 L 127 456 L 15 456 L 15 544 L 127 544 L 127 596 C 127 632 132 663 143 689 C 154 715 169 736 187 753 C 205 769 226 782 249 790 C 272 798 296 802 320 802 C 334 802 351 800 370 796 C 388 792 402 788 411 784 L 380 691 C 374 693 365 696 355 699 C 345 701 335 703 325 703 C 315 703 304 701 292 698 C 280 694 270 689 260 681 C 250 673 242 662 236 649 C 230 635 227 619 227 600 L 227 544 L 399 544 L 399 456 Z M 590 651 L 481 651 L 481 746 L 590 746 L 590 651 Z M 588 0 L 483 0 L 483 544 L 588 544 L 588 0 Z" unicode="ﬁ" />
<glyph horiz-adv-x="692" d="M 396 456 L 225 456 L 225 0 L 124 0 L 124 456 L 12 456 L 12 544 L 124 544 L 124 596 C 124 632 129 663 140 689 C 151 715 166 736 184 753 C 202 769 223 782 246 790 C 269 798 293 802 317 802 C 331 802 348 800 367 796 C 385 792 399 788 408 784 L 377 691 C 371 693 362 696 352 699 C 342 701 332 703 322 703 C 312 703 301 701 289 698 C 277 694 267 689 257 681 C 247 673 239 662 233 649 C 227 635 224 619 224 600 L 224 544 L 396 544 L 396 456 Z M 453 130 L 453 800 L 557 800 L 557 163 C 557 139 563 121 575 107 C 587 93 605 86 629 86 C 637 86 647 86 657 87 C 667 88 675 90 680 92 L 682 2 C 675 0 664 -1 649 -3 C 634 -5 620 -6 607 -6 C 587 -6 568 -3 550 2 C 531 7 514 15 500 27 C 486 38 474 52 466 69 C 457 86 453 106 453 130 Z" unicode="ﬂ" />
</font>
</defs>
</svg>
