<?xml version="1.0" encoding="utf-8" ?><svg version="1.1" xmlns = 'http://www.w3.org/2000/svg'><defs><font id='web' horiz-adv-x="1000">
<font-face font-family="web" descent="-200" cap-height="730" units-per-em="1000" bbox="-149,-325,992,1030" x-height="529" ascent="800" />
<missing-glyph horiz-adv-x="500" d="" /><glyph horiz-adv-x="197" d="" unicode=" " />
<glyph horiz-adv-x="266" d="M 170 431 L 148 188 L 118 188 L 97 431 L 97 730 L 170 730 L 170 431 Z M 167 0 L 99 0 L 99 81 L 167 81 L 167 0 Z" unicode="!" />
<glyph horiz-adv-x="337" d="M 276 620 L 271 490 L 220 490 L 216 619 L 216 730 L 276 730 L 276 620 Z M 120 619 L 117 490 L 64 490 L 61 619 L 61 730 L 120 730 L 120 619 Z" unicode="&#x22;" />
<glyph horiz-adv-x="569" d="M 519 235 L 392 235 L 371 0 L 328 1 L 349 235 L 198 235 L 177 0 L 134 1 L 155 235 L 30 235 L 30 290 L 159 290 L 172 436 L 50 436 L 50 491 L 177 491 L 198 730 L 241 729 L 220 491 L 371 491 L 392 730 L 435 729 L 414 491 L 540 491 L 540 436 L 409 436 L 396 290 L 519 290 L 519 235 Z M 202 290 L 353 290 L 366 436 L 215 436 L 202 290 Z" unicode="#" />
<glyph horiz-adv-x="472" d="M 432 182 C 432 155 427 131 418 110 C 408 88 396 70 380 54 C 364 38 346 26 324 17 C 302 7 280 2 256 0 L 256 -124 L 217 -124 L 217 0 C 177 2 142 10 110 25 C 78 40 51 61 29 87 L 60 138 C 78 113 101 93 130 79 C 159 65 188 57 217 55 L 217 351 C 157 381 113 411 86 441 C 59 471 46 511 46 562 C 46 610 62 649 94 680 C 126 711 167 728 217 731 L 217 791 L 256 791 L 256 730 C 289 727 319 720 345 709 C 371 697 395 681 415 661 L 381 616 C 364 634 345 647 323 657 C 301 666 278 672 256 675 L 256 397 L 261 395 C 324 363 368 331 394 300 C 419 268 432 229 432 182 Z M 109 558 C 109 527 117 502 132 482 C 147 462 175 440 217 418 L 217 675 C 187 672 162 660 141 640 C 119 619 109 592 109 558 Z M 369 182 C 369 212 361 238 345 260 C 329 282 300 305 256 330 L 256 56 C 286 60 312 73 335 94 C 357 114 369 144 369 182 Z" unicode="$" />
<glyph horiz-adv-x="724" d="M 180 360 C 162 360 145 364 129 372 C 112 380 97 392 85 408 C 72 424 62 443 54 467 C 46 491 42 518 42 550 C 42 576 45 601 52 625 C 58 648 68 668 80 685 C 92 702 107 716 124 726 C 141 736 160 741 180 741 C 201 741 220 736 238 726 C 255 716 270 702 282 685 C 294 668 303 648 310 625 C 316 602 320 578 320 553 C 320 526 316 501 310 477 C 303 453 293 433 281 416 C 269 398 254 385 237 375 C 219 365 200 360 180 360 Z M 153 0 L 96 0 L 556 730 L 613 730 L 153 0 Z M 179 410 C 195 410 208 413 219 421 C 230 429 239 439 246 452 C 253 465 258 480 262 497 C 265 514 267 532 267 550 C 267 567 265 584 262 601 C 259 618 254 633 247 646 C 240 659 231 670 221 678 C 210 686 197 690 182 690 C 166 690 153 686 142 678 C 131 670 122 660 115 647 C 107 634 102 619 99 602 C 95 585 94 568 94 550 C 94 512 101 479 115 451 C 129 423 150 410 179 410 Z M 542 -3 C 524 -3 507 1 490 9 C 473 17 458 29 445 45 C 432 61 422 81 414 105 C 406 129 402 156 402 187 C 402 213 405 238 412 262 C 419 285 429 305 441 322 C 453 339 467 353 485 363 C 503 373 522 378 543 378 C 564 378 583 373 601 363 C 619 353 634 339 646 322 C 658 305 667 285 673 262 C 679 239 683 215 683 190 C 683 163 679 138 672 114 C 665 90 656 70 644 53 C 632 35 617 22 599 12 C 581 2 562 -3 542 -3 Z M 540 48 C 571 48 594 62 608 90 C 622 118 629 151 629 187 C 629 205 627 222 624 239 C 620 256 615 271 609 284 C 602 297 593 308 582 316 C 571 324 558 328 543 328 C 528 328 515 324 504 316 C 493 308 484 298 477 285 C 469 272 464 257 460 240 C 456 223 455 205 455 187 C 455 149 462 116 477 89 C 491 61 512 48 540 48 Z" unicode="%" />
<glyph horiz-adv-x="662" d="M 602 -4 L 516 82 C 482 53 444 31 404 15 C 363 0 317 -8 267 -8 C 199 -8 143 7 100 39 C 56 70 35 114 35 171 C 35 228 51 272 84 303 C 116 334 156 364 203 393 L 178 418 C 160 436 143 459 127 486 C 111 513 103 546 103 584 C 103 604 107 623 115 642 C 123 660 135 677 150 691 C 165 705 183 716 204 724 C 224 732 247 737 272 737 C 324 737 366 722 397 693 C 427 663 443 628 443 588 C 443 546 429 509 403 479 C 377 449 341 419 296 389 L 515 173 C 527 186 538 201 550 217 C 561 233 572 249 584 267 L 640 231 C 627 211 614 193 601 175 C 588 157 575 141 562 127 L 645 45 L 602 -4 Z M 227 457 L 258 427 C 297 451 327 475 348 499 C 369 522 380 547 380 574 C 380 602 370 627 352 648 C 333 668 307 679 273 679 C 242 679 217 668 198 646 C 178 624 169 600 169 574 C 169 551 174 530 185 511 C 195 492 209 474 227 457 Z M 107 180 C 107 140 123 109 156 85 C 188 61 228 50 274 50 C 311 50 346 56 378 70 C 410 83 441 102 470 127 L 242 355 C 202 329 169 304 144 278 C 119 252 107 220 107 180 Z" unicode="&#x26;" />
<glyph horiz-adv-x="182" d="M 122 617 L 118 486 L 64 486 L 60 617 L 60 730 L 122 730 L 122 617 Z" unicode="'" />
<glyph horiz-adv-x="300" d="M 279 -122 L 279 -181 C 244 -162 211 -137 181 -106 C 150 -74 123 -38 101 2 C 78 42 60 87 47 137 C 33 186 27 238 27 293 C 27 345 33 394 46 442 C 59 490 77 533 99 572 C 121 611 148 646 179 676 C 210 706 243 731 279 749 L 279 693 C 223 657 179 603 147 533 C 114 462 97 382 97 293 C 97 251 100 209 108 169 C 115 128 126 90 142 54 C 157 18 176 -14 199 -44 C 221 -74 248 -100 279 -122 Z" unicode="(" />
<glyph horiz-adv-x="300" d="M 21 693 L 21 749 C 54 733 86 710 117 681 C 147 651 174 617 197 577 C 220 537 238 492 252 442 C 266 392 273 338 273 282 C 273 230 266 180 253 132 C 240 84 222 40 200 0 C 177 -39 150 -74 120 -106 C 89 -137 56 -162 21 -181 L 21 -120 C 49 -100 75 -76 97 -48 C 119 -19 138 12 154 47 C 170 81 182 119 190 159 C 198 199 203 240 203 282 C 203 375 187 458 154 530 C 121 602 77 657 21 693 Z" unicode=")" />
<glyph horiz-adv-x="396" d="M 364 587 L 228 554 L 324 455 L 274 414 L 199 533 L 125 415 L 73 454 L 170 555 L 36 589 L 64 650 L 181 588 L 166 730 L 232 730 L 217 588 L 339 644 L 364 587 Z" unicode="*" />
<glyph horiz-adv-x="488" d="M 460 304 L 271 304 L 271 122 L 217 122 L 217 304 L 28 304 L 28 358 L 217 358 L 217 540 L 271 540 L 271 358 L 460 358 L 460 304 Z" unicode="+" />
<glyph horiz-adv-x="202" d="M 160 98 C 156 52 145 7 127 -37 C 108 -81 86 -117 61 -147 L 11 -124 C 19 -112 27 -98 36 -82 C 45 -65 53 -47 61 -27 C 68 -7 74 12 80 34 C 85 56 89 77 91 98 L 160 98 Z" unicode="," />
<glyph horiz-adv-x="319" d="M 279 231 L 40 231 L 40 290 L 279 290 L 279 231 Z" unicode="-" />
<glyph horiz-adv-x="203" d="M 135 0 L 68 0 L 68 114 L 135 114 L 135 0 Z" unicode="." />
<glyph horiz-adv-x="299" d="M 293 730 L 68 0 L 7 0 L 233 730 L 293 730 Z" unicode="/" />
<glyph horiz-adv-x="490" d="M 242 -9 C 182 -9 132 20 94 80 C 56 140 37 233 37 360 C 37 416 41 467 50 514 C 58 560 71 600 88 634 C 105 667 127 693 153 712 C 179 730 210 740 246 740 C 282 740 314 730 340 712 C 366 694 387 668 404 636 C 420 603 432 564 440 519 C 448 473 452 424 452 370 C 452 252 434 159 399 92 C 363 24 311 -9 242 -9 Z M 242 48 C 290 48 326 75 350 129 C 374 183 386 261 386 363 C 386 461 375 538 354 596 C 333 654 297 683 245 683 C 195 683 158 655 136 599 C 114 543 103 464 103 364 C 103 257 115 178 139 126 C 163 74 198 48 242 48 Z" unicode="0" />
<glyph horiz-adv-x="313" d="M 232 0 L 165 0 L 165 635 C 154 614 136 593 111 573 C 86 553 62 541 38 538 L 38 605 C 50 606 62 611 76 619 C 90 627 103 637 116 649 C 129 661 141 674 152 688 C 163 702 172 717 179 731 L 232 731 L 232 0 Z" unicode="1" />
<glyph horiz-adv-x="468" d="M 436 0 L 30 0 L 30 17 L 288 344 C 307 370 324 399 339 432 C 354 465 362 503 362 545 C 362 591 349 626 324 648 C 299 670 268 682 232 682 C 187 682 153 666 131 636 C 108 606 97 565 97 515 L 36 515 C 36 590 55 646 91 683 C 127 720 175 739 235 739 C 290 739 336 723 372 691 C 408 659 427 614 427 554 C 427 499 418 454 402 418 C 386 382 367 351 347 325 L 137 61 L 436 61 L 436 0 Z" unicode="2" />
<glyph horiz-adv-x="469" d="M 216 -9 C 162 -9 119 -1 85 14 C 51 29 24 46 6 65 L 35 117 C 51 100 74 84 102 69 C 130 54 166 47 209 47 C 263 47 304 63 333 97 C 362 130 377 171 377 219 C 377 243 372 264 364 283 C 356 301 345 317 331 330 C 317 342 300 352 282 359 C 264 365 244 369 224 369 L 126 369 L 126 425 L 220 425 C 258 425 289 437 314 462 C 339 487 352 520 352 560 C 352 594 340 623 317 647 C 294 671 262 683 222 683 C 184 683 151 675 125 659 C 99 643 77 621 60 595 L 22 637 C 40 666 67 690 101 710 C 135 730 179 740 231 740 C 287 740 332 724 366 694 C 399 664 416 623 416 573 C 416 525 403 487 377 457 C 351 427 322 409 288 401 C 307 397 326 391 344 381 C 362 371 379 359 393 344 C 407 329 418 311 427 290 C 435 269 440 245 440 219 C 440 189 435 161 426 134 C 416 106 402 82 384 61 C 365 40 342 23 314 10 C 286 -2 253 -9 216 -9 Z" unicode="3" />
<glyph horiz-adv-x="466" d="M 464 190 L 367 190 L 367 0 L 308 0 L 308 190 L 10 190 L 9 236 L 323 741 L 367 741 L 367 247 L 464 247 L 464 190 Z M 309 243 L 309 627 L 75 243 L 309 243 Z" unicode="4" />
<glyph horiz-adv-x="471" d="M 226 -9 C 182 -9 141 -1 104 15 C 67 31 39 51 19 76 L 53 126 C 69 105 92 87 120 71 C 148 55 181 48 219 48 C 266 48 304 66 332 103 C 360 139 375 189 375 251 C 375 307 362 351 336 382 C 310 412 277 428 237 428 C 200 428 170 420 148 404 C 125 388 108 366 96 339 L 51 353 L 77 730 L 401 730 L 400 669 L 125 669 L 107 403 C 117 423 134 441 158 458 C 182 474 215 483 255 483 C 309 483 353 463 388 424 C 423 385 441 329 441 256 C 441 214 435 176 425 143 C 414 110 399 82 380 60 C 360 38 337 21 311 9 C 285 -3 256 -9 226 -9 Z" unicode="5" />
<glyph horiz-adv-x="463" d="M 240 -11 C 211 -11 184 -5 158 5 C 132 15 110 31 92 51 C 74 71 59 95 48 125 C 37 155 32 188 32 226 C 32 298 50 371 86 445 C 122 519 171 594 234 668 L 300 747 L 346 710 L 296 651 C 246 591 202 532 166 475 C 130 417 108 370 102 334 C 112 361 131 385 159 406 C 186 426 219 437 257 437 C 285 437 311 431 333 420 C 355 408 374 393 390 373 C 406 353 418 330 426 304 C 434 277 439 248 439 217 C 439 184 434 154 424 126 C 414 98 401 74 383 54 C 365 34 344 18 320 6 C 296 -5 269 -11 240 -11 Z M 239 46 C 281 46 314 62 338 94 C 362 126 375 166 375 214 C 375 262 363 302 340 334 C 316 365 283 381 240 381 C 202 381 168 366 140 338 C 111 310 97 270 97 218 C 97 164 110 122 137 92 C 163 61 197 46 239 46 Z" unicode="6" />
<glyph horiz-adv-x="396" d="M 393 730 L 397 698 L 107 -4 L 47 19 L 324 668 L 11 668 L 11 730 L 393 730 Z" unicode="7" />
<glyph horiz-adv-x="488" d="M 315 388 C 332 384 349 378 367 369 C 384 359 399 347 413 332 C 427 317 438 299 446 277 C 454 255 459 230 459 202 C 459 138 440 86 402 48 C 364 10 312 -9 246 -9 C 179 -9 126 9 87 47 C 48 84 29 133 29 195 C 29 225 33 251 43 274 C 52 297 64 317 79 333 C 93 349 109 362 127 371 C 144 380 161 386 177 388 C 162 392 147 398 132 406 C 116 414 102 425 90 439 C 78 453 68 469 60 489 C 52 508 49 530 49 556 C 49 584 54 609 64 632 C 74 654 88 673 106 689 C 123 705 144 717 168 726 C 192 734 217 739 244 739 C 302 739 349 722 385 690 C 421 657 439 614 439 562 C 439 537 435 515 428 495 C 420 475 411 458 399 444 C 387 429 374 417 359 408 C 344 398 329 392 315 388 Z M 245 407 C 283 407 315 419 341 443 C 367 467 380 501 380 545 C 380 587 367 620 341 646 C 315 671 283 684 245 684 C 207 684 174 671 148 647 C 121 623 108 589 108 546 C 108 522 112 501 120 483 C 128 465 138 451 151 440 C 164 428 179 420 195 415 C 211 409 228 407 245 407 Z M 246 46 C 290 46 326 59 354 87 C 381 115 395 154 395 204 C 395 252 380 289 350 315 C 320 340 286 353 246 353 C 204 353 168 340 138 316 C 108 291 94 253 94 201 C 94 153 108 115 138 87 C 168 59 204 46 246 46 Z" unicode="8" />
<glyph horiz-adv-x="463" d="M 177 -14 L 132 25 L 180 73 C 200 95 221 121 241 151 C 261 180 279 210 296 241 C 313 271 328 301 341 330 C 353 359 362 384 367 406 C 354 378 332 354 302 332 C 272 310 239 300 204 300 C 176 300 150 305 128 316 C 106 327 87 342 72 362 C 56 382 44 405 36 432 C 28 459 24 489 24 521 C 24 552 29 581 39 608 C 49 634 62 657 80 677 C 98 696 119 711 144 722 C 169 733 196 739 226 739 C 254 739 280 734 305 724 C 330 714 352 699 371 680 C 389 660 404 636 415 607 C 425 578 431 545 431 508 C 431 464 425 421 414 377 C 402 333 387 292 369 253 C 350 213 329 176 305 142 C 281 107 258 76 234 50 L 177 -14 Z M 221 356 C 239 356 257 359 275 366 C 293 373 308 383 322 397 C 335 410 346 426 354 446 C 362 466 366 488 366 514 C 366 569 352 611 324 640 C 296 668 264 683 226 683 C 183 683 149 668 125 638 C 100 608 88 569 88 521 C 88 471 99 431 122 401 C 145 371 178 356 221 356 Z" unicode="9" />
<glyph horiz-adv-x="202" d="M 135 419 L 68 419 L 68 529 L 135 529 L 135 419 Z M 135 0 L 68 0 L 68 111 L 135 111 L 135 0 Z" unicode=":" />
<glyph horiz-adv-x="202" d="M 140 419 L 73 419 L 73 529 L 140 529 L 140 419 Z M 145 93 C 141 48 130 4 112 -37 C 94 -79 73 -115 48 -145 L -2 -122 C 14 -99 31 -67 49 -27 C 66 12 76 53 79 93 L 145 93 Z" unicode=";" />
<glyph horiz-adv-x="381" d="M 336 101 L 37 302 L 37 349 L 336 548 L 336 486 L 101 326 L 336 164 L 336 101 Z" unicode="&#x3C;" />
<glyph horiz-adv-x="498" d="M 442 394 L 56 394 L 56 450 L 442 450 L 442 394 Z M 442 186 L 56 186 L 56 243 L 442 243 L 442 186 Z" unicode="=" />
<glyph horiz-adv-x="381" d="M 342 302 L 42 101 L 42 163 L 276 326 L 42 486 L 42 548 L 342 349 L 342 302 Z" unicode="&#x3E;" />
<glyph horiz-adv-x="438" d="M 167 188 C 167 236 172 275 182 306 C 192 336 211 365 237 392 C 247 402 258 413 270 425 C 282 437 292 449 302 463 C 312 477 320 492 327 509 C 333 525 337 544 337 565 C 337 601 325 629 301 650 C 277 670 248 681 212 681 C 180 681 152 673 128 658 C 103 642 82 623 65 600 L 23 642 C 45 672 74 697 108 715 C 142 733 180 742 221 742 C 275 742 320 727 354 698 C 388 668 406 627 406 573 C 406 547 402 524 394 504 C 386 483 377 464 365 447 C 353 430 341 415 327 401 C 313 387 300 374 288 362 C 264 339 248 311 242 279 C 235 247 231 216 231 188 L 167 188 Z M 164 0 L 164 98 L 236 98 L 236 0 L 164 0 Z" unicode="?" />
<glyph horiz-adv-x="837" d="M 416 -29 C 362 -29 313 -19 267 1 C 221 21 181 48 148 82 C 115 116 89 156 70 202 C 51 248 42 298 42 350 C 42 402 51 452 70 498 C 89 544 115 584 149 618 C 182 652 222 678 268 698 C 314 718 365 728 419 728 C 475 728 526 719 573 702 C 619 684 659 660 692 630 C 725 599 751 562 769 520 C 787 477 796 431 796 381 C 796 337 791 300 781 269 C 771 237 759 212 744 192 C 728 172 711 158 692 149 C 672 140 653 136 634 136 C 602 136 578 143 562 159 C 545 174 535 192 533 214 C 525 197 506 180 475 163 C 443 145 408 137 370 137 C 322 137 286 148 260 172 C 234 195 221 226 221 264 C 221 308 238 342 272 366 C 306 390 353 402 411 402 L 521 402 L 521 418 C 521 459 509 487 487 503 C 465 519 439 527 410 527 C 385 527 361 524 339 518 C 317 512 298 506 283 500 L 265 543 C 283 552 306 560 332 566 C 358 572 385 576 412 576 C 468 576 509 561 535 533 C 561 504 574 461 574 405 L 574 249 C 574 232 579 217 589 203 C 599 189 616 182 639 183 C 649 183 661 185 675 190 C 688 195 700 205 711 219 C 722 233 731 253 739 278 C 747 303 751 336 751 376 C 751 420 743 461 727 499 C 711 537 689 569 661 597 C 632 625 597 647 556 663 C 515 679 470 687 420 687 C 372 687 327 678 286 660 C 245 642 210 618 180 588 C 150 558 127 522 111 481 C 94 440 86 396 86 350 C 86 304 94 260 111 219 C 128 177 151 141 181 111 C 210 81 245 57 285 39 C 325 21 369 12 417 12 C 438 12 460 14 483 18 C 505 22 529 30 555 43 L 572 5 C 544 -7 518 -16 492 -21 C 466 -26 440 -29 416 -29 Z M 388 183 C 402 183 417 185 432 189 C 447 193 461 199 473 206 C 485 212 496 220 505 228 C 514 236 520 244 522 252 L 522 361 L 417 361 C 372 361 338 353 314 337 C 290 321 279 297 279 267 C 279 242 288 222 306 206 C 324 190 352 183 388 183 Z" unicode="@" />
<glyph horiz-adv-x="526" d="M 521 0 L 452 0 L 384 210 L 136 210 L 71 0 L 4 0 L 239 734 L 286 734 L 521 0 Z M 373 262 L 259 622 L 148 262 L 373 262 Z" unicode="A" />
<glyph horiz-adv-x="490" d="M 80 0 L 80 730 L 244 730 C 298 730 341 714 374 683 C 407 652 424 610 424 556 C 424 504 411 463 385 432 C 359 401 329 383 293 377 C 311 375 330 371 350 363 C 370 355 387 344 403 330 C 418 315 431 297 441 275 C 451 253 456 228 456 200 C 456 142 438 94 403 56 C 368 18 321 0 263 0 L 80 0 Z M 146 397 L 231 397 C 253 397 273 401 289 409 C 305 417 319 428 329 442 C 339 456 347 471 352 489 C 356 507 359 525 359 544 C 359 584 347 615 324 639 C 301 662 269 674 228 674 L 146 674 L 146 397 Z M 147 56 L 252 56 C 298 56 332 70 354 100 C 376 129 387 164 387 204 C 387 248 373 282 345 306 C 317 330 283 342 243 342 L 147 342 L 147 56 Z" unicode="B" />
<glyph horiz-adv-x="594" d="M 324 -9 C 285 -9 248 -1 214 15 C 180 31 150 54 125 86 C 99 117 79 156 65 203 C 50 250 43 304 43 365 C 43 481 68 572 119 639 C 169 705 238 739 324 739 C 382 739 429 726 465 701 C 501 675 528 642 548 602 L 488 573 C 472 603 451 628 426 648 C 400 668 366 678 324 678 C 259 678 208 651 170 599 C 132 546 113 468 113 364 C 113 310 119 263 131 224 C 143 184 160 152 180 127 C 200 101 223 82 249 70 C 275 58 301 52 329 52 C 373 52 410 63 438 85 C 466 107 489 137 506 173 L 562 143 C 541 97 511 60 471 32 C 431 4 382 -9 324 -9 Z" unicode="C" />
<glyph horiz-adv-x="606" d="M 80 0 L 80 730 L 246 730 C 296 730 340 721 380 704 C 419 687 452 663 479 633 C 506 602 527 565 541 521 C 555 477 563 428 563 374 C 563 321 556 272 542 226 C 528 180 508 141 481 108 C 454 74 420 48 379 29 C 338 9 291 0 237 0 L 80 0 Z M 149 58 L 234 58 C 279 58 318 65 350 81 C 382 97 409 118 430 146 C 450 174 466 207 476 246 C 486 284 491 327 491 373 C 491 468 469 542 425 594 C 381 646 322 672 246 672 L 149 672 L 149 58 Z" unicode="D" />
<glyph horiz-adv-x="451" d="M 419 0 L 80 0 L 80 730 L 402 730 L 402 669 L 148 669 L 148 393 L 393 393 L 393 334 L 148 334 L 148 61 L 419 61 L 419 0 Z" unicode="E" />
<glyph horiz-adv-x="408" d="M 382 669 L 150 669 L 150 399 L 370 399 L 370 340 L 150 340 L 150 0 L 80 0 L 80 730 L 382 730 L 382 669 Z" unicode="F" />
<glyph horiz-adv-x="630" d="M 332 352 L 583 352 L 583 129 C 560 86 527 52 484 28 C 440 3 390 -9 333 -9 C 293 -9 255 0 220 17 C 184 34 154 59 128 91 C 102 123 81 163 66 209 C 50 255 43 307 43 365 C 43 421 50 473 65 519 C 79 565 99 605 125 637 C 151 669 181 693 217 711 C 253 729 292 738 334 738 C 392 738 438 726 473 703 C 508 680 535 653 555 621 L 503 579 C 486 605 464 628 438 647 C 411 666 377 676 336 676 C 271 676 218 649 176 596 C 134 542 113 465 113 363 C 113 313 118 268 130 229 C 142 190 158 157 178 130 C 198 103 221 83 248 69 C 274 55 303 48 334 48 C 376 48 413 56 446 73 C 478 90 503 115 520 148 L 520 293 L 332 293 L 332 352 Z" unicode="G" />
<glyph horiz-adv-x="611" d="M 531 0 L 461 0 L 461 332 L 150 332 L 150 0 L 80 0 L 80 730 L 150 730 L 150 390 L 461 390 L 461 730 L 531 730 L 531 0 Z" unicode="H" />
<glyph horiz-adv-x="238" d="M 155 0 L 84 0 L 84 730 L 155 730 L 155 0 Z" unicode="I" />
<glyph horiz-adv-x="330" d="M 254 730 L 254 185 C 254 158 250 133 242 109 C 234 85 223 65 209 47 C 194 29 176 16 154 6 C 132 -4 108 -9 80 -9 C 67 -9 53 -7 37 -5 C 21 -2 8 1 0 6 L 18 64 C 23 61 31 58 41 56 C 51 54 62 53 73 53 C 108 53 135 66 155 93 C 174 120 184 152 184 190 L 184 730 L 254 730 Z" unicode="J" />
<glyph horiz-adv-x="534" d="M 532 0 L 452 0 L 218 344 L 150 258 L 150 0 L 80 0 L 80 730 L 150 730 L 150 348 L 429 730 L 502 730 L 262 402 L 532 0 Z" unicode="K" />
<glyph horiz-adv-x="408" d="M 400 0 L 80 0 L 80 730 L 150 730 L 150 61 L 400 61 L 400 0 Z" unicode="L" />
<glyph horiz-adv-x="727" d="M 647 0 L 581 0 L 581 590 L 381 207 L 349 207 L 145 590 L 145 0 L 80 0 L 80 730 L 141 730 L 366 298 L 589 730 L 647 730 L 647 0 Z" unicode="M" />
<glyph horiz-adv-x="622" d="M 542 0 L 491 0 L 146 580 L 146 0 L 80 0 L 80 730 L 132 730 L 478 148 L 478 730 L 542 730 L 542 0 Z" unicode="N" />
<glyph horiz-adv-x="666" d="M 336 -9 C 292 -9 252 0 216 17 C 180 34 149 59 124 91 C 98 123 78 163 64 211 C 50 258 43 311 43 371 C 43 427 50 477 64 523 C 78 569 98 607 123 639 C 148 671 178 695 214 713 C 249 730 288 739 330 739 C 419 739 490 705 543 639 C 596 572 623 481 623 366 C 623 308 615 256 601 210 C 586 164 566 124 540 92 C 514 60 484 35 449 17 C 414 0 376 -9 336 -9 Z M 336 48 C 367 48 396 55 422 69 C 448 83 471 103 491 130 C 510 157 525 191 536 231 C 546 271 552 318 552 370 C 552 467 531 543 490 598 C 448 653 395 681 329 681 C 265 681 213 654 173 600 C 133 546 114 468 114 366 C 114 314 119 268 131 228 C 142 188 158 154 178 128 C 198 102 221 82 248 68 C 275 54 304 48 336 48 Z" unicode="O" />
<glyph horiz-adv-x="483" d="M 80 0 L 80 730 L 263 730 C 290 730 316 725 340 716 C 364 707 384 694 402 677 C 420 660 434 639 444 614 C 454 589 460 560 460 528 C 460 462 441 410 405 372 C 369 333 323 314 267 314 L 150 314 L 150 0 L 80 0 Z M 149 371 L 251 371 C 295 371 329 384 353 412 C 377 440 390 479 390 529 C 390 577 376 612 348 636 C 320 660 286 672 248 672 L 149 672 L 149 371 Z" unicode="P" />
<glyph horiz-adv-x="666" d="M 571 -97 L 571 -162 C 530 -157 489 -141 447 -113 C 405 -85 370 -50 344 -7 C 342 -7 341 -7 340 -7 C 338 -7 337 -7 336 -7 C 292 -7 252 1 216 18 C 180 35 149 60 124 92 C 98 124 78 164 64 211 C 50 258 43 311 43 371 C 43 427 50 477 64 523 C 78 568 97 607 123 639 C 148 671 178 695 214 713 C 249 730 288 739 330 739 C 419 739 490 705 543 639 C 596 573 623 482 623 367 C 623 271 603 192 565 129 C 526 65 476 24 414 5 C 436 -25 462 -48 492 -66 C 521 -83 547 -93 571 -97 Z M 114 368 C 114 318 119 274 129 236 C 139 197 154 164 172 138 C 190 111 211 90 236 75 C 260 60 287 51 316 49 C 309 66 304 84 300 103 C 296 122 295 142 295 163 L 357 163 C 357 142 360 123 365 105 C 370 87 376 70 384 54 C 434 66 474 100 506 154 C 537 208 553 279 553 369 C 553 419 547 464 536 503 C 524 542 509 575 489 601 C 469 627 445 646 417 660 C 389 674 360 681 329 681 C 265 681 213 654 173 601 C 133 547 114 470 114 368 Z" unicode="Q" />
<glyph horiz-adv-x="498" d="M 80 0 L 80 730 L 236 730 C 290 730 336 713 372 680 C 408 646 427 598 427 535 C 427 477 412 430 382 396 C 352 361 317 342 275 339 L 271 336 L 482 0 L 406 0 L 207 322 L 146 322 L 146 0 L 80 0 Z M 146 380 L 222 380 C 262 380 295 393 321 419 C 347 445 360 481 360 528 C 360 576 347 612 321 636 C 295 660 264 673 226 673 L 146 673 L 146 380 Z" unicode="R" />
<glyph horiz-adv-x="460" d="M 232 -9 C 190 -9 152 -1 119 13 C 85 27 57 50 34 80 L 80 126 C 97 99 120 79 148 66 C 176 53 203 47 231 47 C 263 47 292 58 316 80 C 340 102 353 132 353 170 C 353 206 343 237 324 263 C 304 288 269 315 217 344 C 159 375 117 406 91 438 C 65 469 52 512 52 567 C 52 619 69 660 103 692 C 137 723 179 739 229 739 C 269 739 303 731 331 717 C 359 703 381 686 399 668 L 357 621 C 341 637 321 651 299 662 C 277 673 253 679 227 679 C 196 679 170 669 149 649 C 127 629 117 601 117 565 C 117 529 127 499 147 477 C 167 454 205 428 259 399 C 320 366 362 333 384 299 C 406 265 417 225 417 177 C 417 147 412 121 402 98 C 392 75 378 56 361 40 C 344 24 324 11 302 3 C 280 -4 256 -9 232 -9 Z" unicode="S" />
<glyph horiz-adv-x="420" d="M 412 669 L 244 669 L 244 0 L 174 0 L 174 669 L 8 669 L 8 730 L 412 730 L 412 669 Z" unicode="T" />
<glyph horiz-adv-x="607" d="M 532 730 L 532 230 C 532 188 525 153 513 123 C 501 93 484 68 463 48 C 442 28 418 14 390 5 C 362 -4 332 -9 301 -9 C 270 -9 241 -4 214 4 C 186 13 162 27 142 46 C 122 65 106 90 94 121 C 82 151 76 188 76 230 L 76 730 L 145 730 L 145 230 C 145 169 160 124 191 95 C 221 66 258 52 302 52 C 345 52 382 65 413 93 C 444 121 460 166 460 230 L 460 730 L 532 730 Z" unicode="U" />
<glyph horiz-adv-x="522" d="M 517 730 L 282 -5 L 231 -5 L 4 730 L 74 730 L 259 113 L 450 730 L 517 730 Z" unicode="V" />
<glyph horiz-adv-x="762" d="M 743 730 L 569 -4 L 522 -4 L 378 606 L 230 -4 L 183 -4 L 12 730 L 80 730 L 215 127 L 355 730 L 405 730 L 546 127 L 681 730 L 743 730 Z" unicode="W" />
<glyph horiz-adv-x="487" d="M 402 0 L 242 313 L 80 0 L 12 0 L 208 380 L 29 730 L 102 730 L 245 451 L 389 730 L 457 730 L 279 384 L 475 0 L 402 0 Z" unicode="X" />
<glyph horiz-adv-x="515" d="M 513 730 L 290 322 L 290 0 L 220 0 L 220 324 L 2 730 L 82 730 L 259 391 L 444 730 L 513 730 Z" unicode="Y" />
<glyph horiz-adv-x="470" d="M 439 730 L 439 696 L 105 59 L 452 59 L 452 0 L 18 0 L 18 32 L 350 670 L 52 670 L 52 730 L 439 730 Z" unicode="Z" />
<glyph horiz-adv-x="245" d="M 214 -179 L 67 -179 L 67 730 L 214 730 L 214 674 L 129 674 L 129 -122 L 214 -122 L 214 -179 Z" unicode="[" />
<glyph horiz-adv-x="299" d="M 7 730 L 65 730 L 293 0 L 233 0 L 7 730 Z" unicode="\" />
<glyph horiz-adv-x="237" d="M 178 -179 L 33 -179 L 33 -123 L 115 -123 L 115 674 L 33 674 L 33 730 L 178 730 L 178 -179 Z" unicode="]" />
<glyph horiz-adv-x="456" d="M 412 369 L 354 369 L 225 663 L 101 369 L 45 369 L 197 730 L 254 730 L 412 369 Z" unicode="^" />
<glyph horiz-adv-x="451" d="M 451 -148 L 0 -148 L 0 -94 L 451 -94 L 451 -148 Z" unicode="_" />
<glyph horiz-adv-x="500" d="M 327 588 L 263 588 L 163 757 L 237 757 L 327 588 Z" unicode="`" />
<glyph horiz-adv-x="431" d="M 375 0 L 317 0 L 317 65 C 301 43 281 26 258 13 C 234 0 205 -6 171 -6 C 131 -6 97 7 71 34 C 44 61 31 100 31 152 C 31 208 48 250 83 277 C 117 304 160 320 210 324 L 313 332 L 313 375 C 313 411 304 437 286 455 C 268 472 243 481 211 481 C 184 481 160 476 139 466 C 117 456 100 445 87 433 L 64 485 C 80 499 102 512 128 522 C 154 532 186 538 222 538 C 268 538 305 525 333 500 C 361 474 375 437 375 387 L 375 0 Z M 314 111 L 314 286 L 218 278 C 184 275 155 264 131 244 C 107 224 96 194 96 152 C 96 116 105 89 125 71 C 145 53 168 44 195 44 C 220 44 243 50 264 63 C 285 75 302 91 314 111 Z" unicode="a" />
<glyph horiz-adv-x="478" d="M 270 -5 C 232 -5 200 5 174 27 C 148 49 131 76 122 109 L 122 0 L 62 0 L 62 800 L 123 800 L 123 401 C 131 435 148 466 174 494 C 199 521 233 535 275 535 C 327 535 368 511 400 463 C 431 415 447 353 447 276 C 447 189 430 120 396 70 C 362 20 320 -5 270 -5 Z M 251 49 C 289 49 320 68 344 107 C 368 146 380 200 380 269 C 380 333 368 384 346 422 C 323 459 291 478 251 478 C 217 478 187 461 161 427 C 135 393 122 335 122 255 C 122 175 135 121 161 92 C 187 63 217 49 251 49 Z" unicode="b" />
<glyph horiz-adv-x="420" d="M 361 130 L 400 93 C 393 81 385 70 376 58 C 366 46 355 35 343 25 C 330 15 315 8 298 2 C 280 -4 261 -7 239 -7 C 206 -7 177 0 151 13 C 125 26 104 44 86 68 C 68 92 55 120 45 154 C 35 187 31 223 31 263 C 31 299 35 334 45 368 C 54 401 67 430 85 454 C 103 478 124 498 150 513 C 176 527 205 535 238 535 C 260 535 280 531 298 525 C 316 519 331 510 345 500 C 358 490 369 478 379 465 C 388 452 395 439 401 427 L 351 396 C 341 416 328 435 310 452 C 292 469 268 478 237 478 C 215 478 196 472 179 461 C 161 450 147 435 135 416 C 123 397 113 375 107 349 C 101 323 98 295 98 265 C 98 197 111 145 138 107 C 164 69 200 50 244 50 C 278 50 303 59 321 77 C 338 95 351 113 361 130 Z" unicode="c" />
<glyph horiz-adv-x="489" d="M 215 -7 C 187 -7 161 0 139 13 C 116 26 97 45 81 69 C 65 93 52 121 44 154 C 35 187 31 223 31 262 C 31 302 35 339 45 373 C 54 407 67 435 84 459 C 100 483 120 501 143 515 C 165 528 190 535 217 535 C 254 535 286 521 312 495 C 338 468 356 437 365 401 L 365 800 L 426 800 L 426 0 L 368 0 L 368 123 C 364 108 359 93 351 78 C 343 62 332 48 320 36 C 307 23 292 13 274 5 C 256 -3 237 -7 215 -7 Z M 232 48 C 272 48 304 67 329 106 C 353 145 366 199 366 269 C 366 340 352 393 325 427 C 297 461 267 478 233 478 C 193 478 160 459 135 422 C 110 384 98 332 98 265 C 98 199 109 146 133 107 C 157 67 190 48 232 48 Z" unicode="d" />
<glyph horiz-adv-x="455" d="M 235 -7 C 174 -7 125 17 87 67 C 49 116 31 181 31 263 C 31 302 36 338 46 372 C 56 406 70 435 88 459 C 106 483 127 501 151 515 C 175 528 202 535 231 535 C 291 535 338 509 373 457 C 408 405 426 336 426 250 L 96 250 C 96 192 109 145 135 107 C 160 69 195 50 241 50 C 275 50 302 57 323 73 C 344 88 361 105 375 123 L 408 85 C 391 62 369 41 342 22 C 314 2 279 -7 235 -7 Z M 94 296 L 362 296 C 361 351 348 396 324 430 C 300 464 269 481 231 481 C 193 481 161 463 136 429 C 111 395 97 350 94 296 Z" unicode="e" />
<glyph horiz-adv-x="247" d="M 239 472 L 150 472 L 150 0 L 86 0 L 86 472 L 16 472 L 16 529 L 86 529 L 86 674 C 86 694 89 713 96 729 C 102 745 111 758 122 769 C 133 780 145 788 159 794 C 173 800 187 803 201 803 C 211 803 223 801 236 798 C 249 794 260 790 269 785 L 251 733 C 247 735 241 737 233 739 C 225 741 216 743 208 743 C 192 743 178 736 167 722 C 155 708 150 688 150 662 L 150 529 L 239 529 L 239 472 Z" unicode="f" />
<glyph horiz-adv-x="485" d="M 215 4 C 160 4 116 28 82 76 C 48 124 32 188 32 267 C 32 348 49 413 84 462 C 118 510 162 535 215 535 C 253 535 285 522 312 497 C 339 472 357 443 367 409 L 367 529 L 425 529 L 425 29 C 425 -10 418 -44 406 -73 C 394 -101 377 -125 357 -144 C 337 -162 314 -176 289 -185 C 263 -194 238 -199 212 -199 C 175 -199 146 -195 125 -189 C 103 -183 87 -176 76 -170 L 100 -118 C 110 -123 124 -128 142 -134 C 159 -139 181 -142 208 -142 C 228 -142 248 -138 267 -130 C 285 -122 302 -111 316 -97 C 330 -82 342 -64 350 -42 C 358 -20 363 5 363 35 L 363 141 C 359 124 352 107 344 91 C 335 75 324 60 312 47 C 300 34 285 24 269 16 C 252 8 234 4 215 4 Z M 233 59 C 267 59 297 76 324 111 C 351 146 365 201 365 275 C 365 309 361 338 353 364 C 345 389 336 410 324 427 C 312 443 297 456 281 464 C 265 472 248 477 232 477 C 192 477 159 458 135 421 C 111 384 99 333 99 267 C 99 203 110 152 134 115 C 157 77 190 59 233 59 Z" unicode="g" />
<glyph horiz-adv-x="468" d="M 409 0 L 344 0 L 344 387 C 344 418 334 441 316 457 C 297 473 273 481 245 481 C 215 481 188 471 164 453 C 139 434 127 403 127 360 L 127 0 L 62 0 L 62 800 L 123 800 L 123 443 C 129 469 145 491 170 509 C 195 527 227 536 266 536 C 306 536 339 525 367 504 C 395 482 409 449 409 403 L 409 0 Z" unicode="h" />
<glyph horiz-adv-x="194" d="M 62 634 L 62 705 L 132 705 L 132 634 L 62 634 Z M 65 0 L 65 529 L 129 529 L 129 0 L 65 0 Z" unicode="i" />
<glyph horiz-adv-x="205" d="M 145 634 L 77 634 L 77 705 L 145 705 L 145 634 Z M 143 529 L 143 -56 C 143 -91 133 -118 113 -138 C 93 -158 70 -168 42 -168 C 27 -168 13 -165 0 -161 C -13 -157 -22 -152 -27 -148 L -6 -103 C -2 -105 3 -107 10 -109 C 16 -111 24 -112 33 -112 C 45 -112 56 -106 65 -96 C 74 -86 79 -71 79 -53 L 79 529 L 143 529 Z" unicode="j" />
<glyph horiz-adv-x="416" d="M 427 1 L 356 0 L 204 250 L 127 149 L 127 0 L 62 0 L 62 800 L 125 800 L 125 226 L 331 529 L 400 529 L 246 302 L 427 1 Z" unicode="k" />
<glyph horiz-adv-x="211" d="M 60 89 L 60 800 L 125 800 L 125 104 C 125 86 128 74 136 66 C 144 58 155 54 169 54 C 174 54 179 54 185 55 C 191 55 195 56 199 58 L 206 4 C 200 1 193 0 184 -2 C 174 -4 164 -5 154 -5 C 128 -5 105 2 87 18 C 69 34 60 57 60 89 Z" unicode="l" />
<glyph horiz-adv-x="742" d="M 62 0 L 62 529 L 118 529 L 118 434 C 126 466 144 491 172 509 C 199 527 230 536 266 536 C 302 536 332 526 356 508 C 380 490 394 464 397 432 L 400 432 C 406 463 423 488 449 507 C 475 526 507 536 543 536 C 582 536 615 525 642 504 C 668 482 682 449 682 404 L 682 0 L 618 0 L 618 380 C 618 415 608 441 589 457 C 569 473 545 481 517 481 C 503 481 489 478 476 474 C 462 470 450 463 440 453 C 429 443 420 430 414 415 C 407 399 404 381 404 359 L 404 0 L 340 0 L 340 383 C 340 418 330 443 310 458 C 290 473 267 481 241 481 C 227 481 213 478 199 474 C 185 470 173 463 162 453 C 151 443 142 431 136 415 C 129 399 126 379 126 357 L 126 0 L 62 0 Z" unicode="m" />
<glyph horiz-adv-x="468" d="M 409 0 L 344 0 L 344 389 C 344 418 334 440 316 456 C 297 472 274 480 247 480 C 232 480 217 477 203 473 C 189 469 176 462 165 453 C 153 443 144 431 137 416 C 130 400 127 382 127 360 L 127 0 L 62 0 L 62 529 L 118 529 L 118 437 C 126 466 144 490 171 508 C 198 526 231 536 269 536 C 307 536 340 525 368 503 C 395 481 409 450 409 410 L 409 0 Z" unicode="n" />
<glyph horiz-adv-x="467" d="M 234 -7 C 205 -7 178 -1 154 11 C 129 23 108 40 90 63 C 72 85 57 113 47 147 C 36 181 31 219 31 262 C 31 302 36 339 46 373 C 56 407 69 436 87 460 C 105 484 126 502 150 516 C 174 529 201 536 230 536 C 290 536 340 512 378 465 C 416 418 436 355 436 276 C 436 234 431 195 421 161 C 411 126 397 96 380 71 C 362 46 341 27 316 13 C 291 0 264 -7 234 -7 Z M 235 50 C 276 50 309 69 333 108 C 357 147 369 200 369 268 C 369 335 356 387 332 423 C 307 459 273 478 230 478 C 190 478 158 459 134 422 C 110 384 98 332 98 266 C 98 193 110 139 136 103 C 162 67 195 50 235 50 Z" unicode="o" />
<glyph horiz-adv-x="478" d="M 62 -198 L 62 529 L 118 529 L 118 396 C 126 433 143 465 170 493 C 196 521 231 535 273 535 C 301 535 326 528 348 516 C 370 503 388 485 403 463 C 417 440 428 413 436 381 C 443 349 447 315 447 278 C 447 190 430 121 397 71 C 364 20 322 -5 270 -5 C 231 -5 199 5 174 26 C 149 47 133 73 125 103 L 125 -198 L 62 -198 Z M 250 49 C 288 49 319 68 343 106 C 367 144 380 197 380 266 C 380 328 369 378 348 418 C 327 457 295 477 252 477 C 217 477 186 460 160 428 C 134 395 121 338 121 256 C 121 178 133 124 159 94 C 184 64 214 49 250 49 Z" unicode="p" />
<glyph horiz-adv-x="489" d="M 364 -198 L 364 129 C 360 113 353 97 345 81 C 336 65 325 50 313 37 C 300 24 285 14 268 6 C 250 -2 231 -6 210 -6 C 183 -6 158 0 136 13 C 114 26 95 44 80 67 C 64 90 52 118 44 151 C 35 183 31 219 31 257 C 31 345 49 413 85 462 C 121 510 165 535 217 535 C 257 535 291 521 317 493 C 343 465 361 434 369 398 L 369 529 L 426 529 L 426 -198 L 364 -198 Z M 231 48 C 269 48 301 66 327 104 C 353 141 366 196 366 268 C 366 337 352 389 326 425 C 300 460 268 478 231 478 C 191 478 158 459 134 422 C 110 384 98 331 98 263 C 98 200 110 148 134 108 C 158 68 190 48 231 48 Z" unicode="q" />
<glyph horiz-adv-x="337" d="M 340 507 L 313 451 C 304 460 294 467 282 471 C 270 475 257 478 241 478 C 228 478 215 475 201 470 C 187 464 175 456 164 446 C 153 435 144 421 137 404 C 130 386 127 366 127 342 L 127 0 L 62 0 L 62 529 L 124 529 L 124 430 C 130 458 146 483 170 504 C 194 525 222 536 255 536 C 273 536 290 533 305 527 C 320 521 332 515 340 507 Z" unicode="r" />
<glyph horiz-adv-x="357" d="M 188 -7 C 152 -7 120 0 92 12 C 64 25 42 42 26 64 L 60 109 C 74 90 92 75 113 64 C 133 53 156 48 181 48 C 203 48 224 55 242 71 C 260 86 269 107 269 135 C 269 159 260 180 243 197 C 226 214 199 232 161 252 C 118 272 88 294 70 318 C 52 341 43 371 43 408 C 43 444 56 475 83 499 C 109 523 142 536 181 536 C 213 536 241 530 264 520 C 286 510 304 499 317 487 L 292 434 C 280 444 264 455 246 465 C 228 475 208 480 186 480 C 163 480 143 473 126 460 C 109 447 101 429 101 407 C 101 385 107 367 121 354 C 135 340 162 323 202 303 C 247 279 279 254 299 230 C 318 205 328 173 328 134 C 328 110 324 90 316 72 C 308 54 297 40 284 28 C 270 16 255 8 239 2 C 222 -4 205 -7 188 -7 Z" unicode="s" />
<glyph horiz-adv-x="250" d="M 229 68 L 241 15 C 235 10 226 6 214 2 C 202 -2 187 -4 171 -4 C 145 -4 122 5 102 23 C 82 41 73 69 73 107 L 73 473 L 13 473 L 13 529 L 74 529 L 74 642 L 137 652 L 137 529 L 230 529 L 230 473 L 138 473 L 138 111 C 138 94 142 81 151 71 C 159 61 171 56 186 56 C 194 56 203 57 211 60 C 219 62 225 65 229 68 Z" unicode="t" />
<glyph horiz-adv-x="468" d="M 59 529 L 124 529 L 124 159 C 124 119 134 90 154 73 C 174 55 199 47 230 47 C 258 47 284 57 307 77 C 329 97 341 129 341 173 L 341 529 L 406 529 L 406 0 L 348 0 L 348 93 C 340 66 324 43 299 23 C 273 3 242 -7 204 -7 C 164 -7 130 4 102 28 C 73 51 59 87 59 137 L 59 529 Z" unicode="u" />
<glyph horiz-adv-x="382" d="M 384 529 L 215 -2 L 166 -2 L -2 529 L 65 529 L 193 110 L 322 529 L 384 529 Z" unicode="v" />
<glyph horiz-adv-x="599" d="M 405 -2 L 303 355 L 193 -2 L 146 -2 L 4 529 L 66 529 L 177 102 L 280 451 L 328 451 L 425 103 L 537 529 L 595 529 L 451 -2 L 405 -2 Z" unicode="w" />
<glyph horiz-adv-x="369" d="M 299 0 L 183 218 L 64 0 L 5 0 L 153 274 L 17 529 L 84 529 L 187 336 L 291 529 L 352 529 L 216 280 L 365 0 L 299 0 Z" unicode="x" />
<glyph horiz-adv-x="385" d="M 386 529 L 182 -97 C 169 -133 151 -159 129 -175 C 106 -191 83 -200 61 -200 C 42 -200 27 -198 15 -194 C 3 -190 -5 -186 -10 -184 L 14 -132 C 16 -134 22 -137 31 -139 C 39 -141 48 -143 57 -143 C 70 -143 83 -137 97 -126 C 110 -114 121 -97 130 -73 L 163 35 L -1 529 L 65 529 L 195 119 L 324 529 L 386 529 Z" unicode="y" />
<glyph horiz-adv-x="358" d="M 334 529 L 334 500 L 98 56 L 347 56 L 347 0 L 15 0 L 15 26 L 253 472 L 28 472 L 28 529 L 334 529 Z" unicode="z" />
<glyph horiz-adv-x="264" d="M 245 -179 C 219 -177 195 -171 173 -163 C 150 -154 130 -143 114 -129 C 97 -115 84 -99 74 -81 C 64 -63 58 -43 58 -23 C 58 0 60 20 65 39 C 70 58 76 75 83 91 C 89 105 94 120 100 134 C 106 148 108 163 108 177 C 107 197 98 216 82 234 C 66 251 44 260 18 261 L 18 310 C 44 310 66 319 83 337 C 100 355 109 375 110 399 C 110 407 107 418 101 433 C 95 448 89 464 83 481 C 75 498 69 515 65 532 C 60 549 58 566 59 584 C 59 626 77 663 113 695 C 149 727 193 745 245 749 L 245 701 C 213 697 185 684 161 661 C 137 638 125 611 125 579 C 125 568 126 556 129 542 C 132 528 137 515 143 501 C 151 483 158 465 165 449 C 171 433 174 418 174 404 C 173 374 165 349 149 327 C 133 305 109 291 77 285 C 109 279 133 265 149 243 C 165 221 173 197 174 171 C 174 152 171 135 165 121 C 159 106 153 91 147 77 C 140 63 134 48 130 34 C 126 19 124 5 125 -9 C 126 -37 138 -64 161 -89 C 184 -113 212 -127 245 -130 L 245 -179 Z" unicode="{" />
<glyph horiz-adv-x="232" d="M 147 -179 L 85 -179 L 85 730 L 147 730 L 147 -179 Z" unicode="|" />
<glyph horiz-adv-x="264" d="M 19 -179 L 19 -130 C 51 -127 79 -113 102 -89 C 125 -64 137 -37 139 -9 C 139 5 137 19 133 34 C 129 48 123 63 117 77 C 110 91 104 106 98 121 C 92 135 90 152 90 171 C 90 197 99 221 115 243 C 131 265 154 279 186 285 C 154 291 131 305 115 327 C 99 349 90 374 90 404 C 89 418 92 433 99 449 C 105 465 113 483 121 501 C 127 515 131 528 134 542 C 137 556 139 568 139 579 C 138 611 126 638 102 661 C 78 684 51 697 19 701 L 19 749 C 71 745 114 727 150 695 C 186 663 204 626 205 584 C 205 566 203 549 199 532 C 194 514 188 497 181 481 C 174 464 168 448 162 433 C 156 418 154 407 154 399 C 154 375 163 355 180 337 C 197 319 219 310 246 310 L 246 261 C 219 260 197 251 181 234 C 165 216 156 197 156 177 C 155 163 157 148 163 134 C 169 120 175 105 181 91 C 187 75 193 58 198 39 C 203 20 206 0 206 -23 C 205 -43 200 -63 190 -81 C 180 -99 166 -115 150 -129 C 133 -143 113 -154 91 -163 C 68 -171 44 -177 19 -179 Z" unicode="}" />
<glyph horiz-adv-x="462" d="M 374 435 L 428 435 C 427 383 419 344 405 318 C 391 291 367 278 333 278 C 310 278 290 283 273 294 C 256 305 241 317 229 330 C 215 343 201 355 189 365 C 177 375 163 381 149 381 C 134 381 120 372 107 355 C 94 338 88 313 88 281 L 35 281 C 35 331 44 369 63 396 C 81 423 106 437 136 437 C 160 437 180 431 198 420 C 216 408 232 396 247 382 C 259 370 271 359 283 349 C 294 339 308 334 324 334 C 343 334 356 341 363 357 C 370 373 374 399 374 435 Z" unicode="~" />
<glyph horiz-adv-x="266" d="M 99 617 L 167 617 L 167 537 L 99 537 L 99 617 Z M 97 190 L 119 433 L 149 433 L 170 190 L 170 -105 L 97 -105 L 97 190 Z" unicode="¡" />
<glyph horiz-adv-x="416" d="M 397 193 C 384 174 367 155 346 136 C 325 117 294 106 252 104 L 252 -4 L 209 -4 L 209 104 C 153 110 110 135 79 178 C 47 221 32 275 32 339 C 32 369 36 397 44 425 C 52 452 63 476 79 498 C 94 519 113 537 135 551 C 157 565 181 574 209 578 L 209 684 L 252 684 L 252 579 C 290 576 321 565 345 547 C 369 528 388 508 400 488 L 366 450 C 354 466 340 482 322 498 C 304 513 281 522 252 524 L 252 158 C 284 159 309 168 327 184 C 344 200 357 216 366 231 L 397 193 Z M 98 343 C 98 295 108 255 128 223 C 148 191 175 170 209 162 L 209 520 C 173 511 146 490 127 458 C 107 425 98 387 98 343 Z" unicode="¢" />
<glyph horiz-adv-x="502" d="M 489 51 L 489 0 L 24 0 L 24 40 C 29 42 37 45 47 47 C 57 49 70 51 86 55 C 97 57 109 61 121 67 C 133 73 145 80 155 90 C 165 100 174 112 181 126 C 187 140 191 156 191 176 C 191 184 190 192 188 200 C 186 208 183 217 180 226 L 34 226 L 34 274 L 159 274 C 152 287 145 301 137 316 C 129 330 121 345 114 361 L 34 361 L 34 408 L 95 408 C 87 428 81 449 76 471 C 71 493 69 517 69 542 C 69 580 75 612 87 638 C 99 664 114 684 134 700 C 154 715 176 726 202 732 C 228 738 254 742 281 742 C 302 742 323 739 344 734 C 364 728 383 722 401 714 C 419 706 435 697 449 687 C 463 677 474 668 482 660 L 450 613 C 435 626 413 641 384 658 C 354 674 322 683 286 683 C 267 683 249 680 231 676 C 213 671 198 663 184 651 C 170 639 159 624 151 604 C 142 584 138 559 138 530 C 138 508 140 487 146 467 C 151 447 158 427 166 408 L 424 408 L 424 361 L 187 361 C 194 346 201 331 209 317 C 216 302 223 288 229 274 L 424 274 L 424 226 L 246 226 C 247 219 248 213 249 207 C 250 201 251 195 251 189 C 251 166 247 146 239 130 C 231 114 222 100 212 89 C 201 78 190 70 178 64 C 166 58 157 53 149 51 L 489 51 Z" unicode="£" />
<glyph horiz-adv-x="502" d="M 442 180 L 410 148 L 344 215 C 330 207 316 200 300 196 C 284 191 267 189 250 189 C 232 189 215 191 199 196 C 183 200 168 207 154 216 L 88 148 L 55 181 L 118 246 C 105 260 95 277 87 295 C 79 313 76 333 76 354 C 76 374 79 394 87 412 C 95 430 105 447 119 462 L 55 528 L 87 559 L 153 491 C 167 499 182 506 198 511 C 214 516 232 519 250 519 C 268 519 285 516 302 511 C 318 505 334 498 348 490 L 416 560 L 448 527 L 383 461 C 395 446 405 430 413 412 C 420 394 424 374 424 354 C 424 333 420 313 412 294 C 404 275 393 258 380 244 L 442 180 Z M 250 237 C 284 237 313 248 338 272 C 362 295 375 322 375 354 C 375 385 362 412 338 436 C 313 459 284 471 250 471 C 215 471 185 459 161 436 C 137 412 125 385 125 354 C 125 322 137 295 161 272 C 185 248 215 237 250 237 Z" unicode="¤" />
<glyph horiz-adv-x="511" d="M 458 166 L 289 166 L 289 0 L 219 0 L 219 166 L 52 166 L 52 214 L 219 214 L 219 283 L 52 283 L 52 331 L 219 331 L 219 338 L 20 730 L 92 730 L 256 402 L 423 730 L 491 730 L 289 336 L 289 331 L 458 331 L 458 283 L 289 283 L 289 214 L 458 214 L 458 166 Z" unicode="¥" />
<glyph horiz-adv-x="251" d="M 97 351 L 97 730 L 154 730 L 154 351 L 97 351 Z M 154 200 L 154 -179 L 97 -179 L 97 200 L 154 200 Z" unicode="¦" />
<glyph horiz-adv-x="568" d="M 301 -180 C 252 -180 206 -173 162 -159 C 118 -145 82 -127 52 -105 L 77 -50 C 104 -71 137 -89 177 -104 C 217 -118 256 -126 294 -126 C 330 -126 360 -116 385 -96 C 409 -76 422 -49 422 -15 C 422 17 413 41 395 58 C 377 74 354 89 326 102 L 198 164 C 172 176 150 187 130 198 C 110 208 94 220 81 232 C 68 244 58 259 52 275 C 45 291 42 311 42 334 C 42 365 49 390 64 410 C 78 429 95 445 115 458 C 97 468 84 483 75 503 C 66 523 62 548 62 578 C 62 604 67 627 78 648 C 89 668 104 685 123 699 C 141 713 163 723 189 731 C 215 738 242 742 272 742 C 326 742 370 733 404 717 C 438 700 468 681 493 661 L 462 610 C 435 631 407 650 378 666 C 348 682 313 690 271 690 C 232 690 199 679 171 659 C 143 639 130 612 130 578 C 130 554 136 535 148 519 C 160 503 180 489 206 479 L 373 400 C 421 379 457 357 483 334 C 508 310 521 278 521 238 C 521 204 510 177 488 157 C 466 137 442 124 418 120 C 424 116 431 111 440 104 C 448 96 456 87 464 76 C 472 65 478 52 484 37 C 490 21 493 4 493 -14 C 493 -40 488 -63 478 -84 C 468 -104 454 -122 437 -136 C 420 -150 400 -160 376 -168 C 352 -176 327 -180 301 -180 Z M 367 152 C 387 154 405 161 423 174 C 440 186 449 206 449 234 C 449 258 439 280 421 299 C 402 317 373 335 333 352 L 169 430 C 152 419 138 407 127 394 C 115 381 110 363 110 339 C 110 310 119 287 139 270 C 158 252 188 235 229 218 L 367 152 Z" unicode="§" />
<glyph horiz-adv-x="500" d="M 353 589 L 300 589 L 300 745 L 353 745 L 353 589 Z M 200 589 L 147 589 L 147 745 L 200 745 L 200 589 Z" unicode="¨" />
<glyph horiz-adv-x="816" d="M 408 21 C 358 21 312 30 268 49 C 224 68 185 94 153 127 C 121 159 95 198 76 242 C 57 286 48 332 48 382 C 48 431 57 478 76 522 C 95 566 121 604 153 636 C 185 668 224 694 268 713 C 312 732 358 742 408 742 C 457 742 504 732 548 713 C 592 694 630 668 662 636 C 694 604 720 566 739 522 C 758 478 768 431 768 382 C 768 332 758 286 739 242 C 720 198 694 159 662 127 C 630 94 592 68 548 49 C 504 30 457 21 408 21 Z M 408 64 C 451 64 492 72 531 89 C 569 105 603 128 631 157 C 659 185 682 219 699 258 C 715 296 724 337 724 381 C 724 424 715 465 699 504 C 682 542 659 576 631 605 C 603 633 569 656 531 673 C 492 690 451 699 408 699 C 364 699 323 690 285 673 C 246 656 212 633 184 605 C 156 576 133 542 117 504 C 100 465 92 424 92 381 C 92 337 100 296 117 258 C 133 219 156 185 184 157 C 212 128 246 105 285 89 C 323 72 364 64 408 64 Z M 569 246 C 554 222 533 201 506 185 C 479 169 447 161 409 161 C 384 161 360 165 337 175 C 313 185 293 199 275 217 C 257 235 243 258 233 286 C 222 313 217 344 217 379 C 217 445 235 499 271 541 C 307 583 351 604 404 604 C 444 604 477 597 503 583 C 529 569 549 550 564 528 L 521 495 C 509 511 494 525 476 536 C 458 546 434 552 405 552 C 367 552 335 535 309 502 C 283 468 271 427 271 378 C 271 351 275 327 283 306 C 291 285 301 268 314 254 C 327 240 342 229 359 221 C 375 213 392 210 410 210 C 435 210 458 216 478 228 C 498 240 515 256 528 275 L 569 246 Z" unicode="©" />
<glyph horiz-adv-x="431" d="M 379 310 L 326 310 L 326 373 C 311 351 290 333 263 321 C 236 309 207 303 177 303 C 135 303 101 314 77 337 C 52 360 40 392 40 433 C 40 478 56 512 88 536 C 120 559 162 572 214 575 L 325 583 L 325 593 C 325 626 315 650 297 666 C 278 682 252 690 220 690 C 194 690 170 685 148 677 C 125 668 105 657 89 645 L 68 687 C 86 701 109 714 137 725 C 165 735 196 741 230 741 C 274 741 310 729 338 706 C 365 682 379 645 379 594 L 379 310 Z M 325 414 L 325 537 L 210 530 C 177 528 150 519 128 505 C 106 490 95 467 95 435 C 95 409 104 388 123 374 C 141 359 165 352 194 352 C 219 352 244 357 268 368 C 292 379 311 394 325 414 Z M 385 201 L 46 201 L 46 255 L 385 255 L 385 201 Z" unicode="ª" />
<glyph horiz-adv-x="410" d="M 197 116 L 29 283 L 29 322 L 197 488 L 197 422 L 86 302 L 197 185 L 197 116 Z M 379 116 L 211 283 L 211 322 L 379 488 L 379 422 L 268 302 L 379 185 L 379 116 Z" unicode="«" />
<glyph horiz-adv-x="487" d="M 442 370 L 442 142 L 388 142 L 388 316 L 32 316 L 32 370 L 442 370 Z" unicode="¬" />
<glyph horiz-adv-x="815" d="M 408 21 C 358 21 312 30 268 49 C 224 68 185 94 153 127 C 120 159 94 198 75 242 C 56 286 47 332 47 382 C 47 431 56 478 75 522 C 94 566 120 604 153 636 C 185 668 224 694 268 713 C 312 732 358 742 408 742 C 457 742 504 732 548 713 C 592 694 630 668 662 636 C 694 604 720 566 739 522 C 758 478 768 431 768 382 C 768 332 758 286 739 242 C 720 198 694 159 662 127 C 630 94 592 68 548 49 C 504 30 457 21 408 21 Z M 408 64 C 451 64 492 72 531 88 C 569 104 603 127 631 155 C 659 183 682 217 699 256 C 715 295 724 337 724 381 C 724 425 715 467 699 506 C 682 544 659 578 631 607 C 603 635 569 658 531 674 C 492 690 451 699 408 699 C 364 699 323 690 285 674 C 246 657 212 634 184 606 C 155 578 132 544 116 505 C 99 466 91 425 91 381 C 91 337 99 295 116 257 C 132 218 155 184 184 156 C 212 128 246 105 285 89 C 323 72 364 64 408 64 Z M 282 175 L 282 606 L 423 606 C 440 606 457 603 474 599 C 491 594 506 587 519 578 C 531 568 542 556 550 542 C 558 527 562 509 562 489 C 562 451 551 422 529 402 C 507 382 484 370 458 367 L 458 363 L 593 175 L 538 175 L 409 356 L 329 356 L 329 175 L 282 175 Z M 328 397 L 429 397 C 449 397 469 404 487 419 C 505 433 515 455 515 483 C 515 511 506 531 486 543 C 466 555 443 562 417 562 L 328 562 L 328 397 Z" unicode="®" />
<glyph horiz-adv-x="500" d="M 368 612 L 132 612 L 132 667 L 368 667 L 368 612 Z" unicode="¯" />
<glyph horiz-adv-x="411" d="M 205 391 C 181 391 158 395 137 405 C 115 414 97 426 81 442 C 65 458 53 476 44 498 C 34 520 30 543 30 567 C 30 591 34 613 44 635 C 53 656 65 674 81 690 C 97 706 115 718 137 728 C 158 737 181 742 205 742 C 229 742 252 737 274 728 C 295 718 313 706 329 690 C 345 674 357 656 367 635 C 376 613 381 591 381 567 C 381 543 376 520 367 498 C 357 476 345 458 329 442 C 313 426 295 414 274 405 C 252 395 229 391 205 391 Z M 205 442 C 239 442 268 454 293 479 C 318 503 331 533 331 567 C 331 601 318 630 293 655 C 268 679 239 692 205 692 C 171 692 141 679 117 655 C 92 630 80 601 80 567 C 80 533 92 503 117 479 C 141 454 171 442 205 442 Z" unicode="°" />
<glyph horiz-adv-x="487" d="M 460 304 L 270 304 L 270 116 L 218 116 L 218 304 L 28 304 L 28 355 L 218 355 L 218 546 L 270 546 L 270 355 L 460 355 L 460 304 Z M 453 30 L 36 30 L 36 81 L 453 81 L 453 30 Z" unicode="±" />
<glyph horiz-adv-x="334" d="M 304 372 L 26 372 L 26 393 L 196 547 C 204 555 213 565 222 578 C 231 590 236 605 236 623 C 236 641 229 657 215 671 C 201 685 181 692 155 692 C 125 692 104 683 91 666 C 78 649 71 629 71 607 L 19 607 C 19 641 31 672 55 700 C 79 727 114 741 160 741 C 204 741 237 730 260 709 C 282 688 294 663 294 634 C 294 607 288 585 278 567 C 267 549 256 535 244 525 L 122 420 L 304 420 L 304 372 Z" unicode="²" />
<glyph horiz-adv-x="346" d="M 222 569 C 252 565 275 554 291 537 C 307 520 315 500 315 477 C 315 464 312 451 307 438 C 302 424 294 412 282 401 C 270 390 254 381 234 374 C 214 367 190 364 161 364 C 121 364 90 368 68 378 C 45 387 27 397 13 407 L 45 440 C 57 432 73 424 92 418 C 111 412 134 409 160 409 C 196 409 222 416 238 431 C 254 445 263 463 263 484 C 263 507 253 523 234 531 C 214 539 193 544 169 544 L 98 544 L 98 586 L 165 586 C 189 586 209 590 224 600 C 238 610 246 624 246 643 C 246 658 239 671 226 681 C 212 691 192 696 164 696 C 139 696 118 691 100 682 C 82 672 68 661 58 649 L 26 679 C 38 695 56 709 78 722 C 100 735 131 742 171 742 C 213 742 245 733 267 716 C 289 698 300 677 300 653 C 300 631 292 612 277 598 C 262 583 244 573 222 569 Z" unicode="³" />
<glyph horiz-adv-x="500" d="M 174 590 L 263 759 L 337 759 L 237 590 L 174 590 Z" unicode="´" />
<glyph horiz-adv-x="602" d="M 80 -133 L 80 529 L 144 529 L 144 159 C 144 142 148 126 156 112 C 164 98 174 85 188 75 C 201 65 216 57 234 51 C 252 45 270 43 289 43 C 307 43 325 46 345 52 C 365 58 382 67 398 79 C 414 91 427 107 437 126 C 447 144 453 166 453 191 L 453 529 L 517 529 L 517 0 L 457 0 L 457 111 C 452 95 444 80 432 66 C 420 52 405 39 389 28 C 373 17 355 8 335 2 C 315 -4 296 -8 276 -8 C 247 -8 219 -1 193 11 C 167 24 149 42 140 65 L 140 -133 L 80 -133 Z" unicode="µ" />
<glyph horiz-adv-x="578" d="M 522 -180 L 472 -179 L 472 678 L 368 678 L 368 -179 L 318 -179 L 318 290 L 244 290 C 216 290 188 295 162 307 C 136 319 112 334 92 354 C 72 374 56 397 44 423 C 32 449 26 477 26 507 C 26 538 31 567 43 595 C 54 622 70 646 91 666 C 111 686 136 701 165 713 C 194 724 226 730 262 730 L 522 730 L 522 -180 Z M 319 344 L 319 676 L 281 676 C 229 676 187 660 155 628 C 122 596 106 557 106 509 C 106 487 110 466 119 446 C 127 426 139 408 154 393 C 169 378 187 366 207 357 C 227 348 248 344 270 344 L 319 344 Z" unicode="¶" />
<glyph horiz-adv-x="235" d="M 151 296 L 85 296 L 85 412 L 151 412 L 151 296 Z" unicode="·" />
<glyph horiz-adv-x="500" d="M 252 -182 C 231 -182 211 -179 191 -173 C 171 -167 154 -159 142 -149 L 156 -121 C 164 -127 176 -134 191 -140 C 205 -146 222 -149 240 -149 C 255 -149 268 -145 280 -137 C 291 -129 297 -119 297 -107 C 297 -92 291 -81 281 -75 C 271 -69 260 -66 248 -66 C 239 -66 232 -66 226 -68 C 220 -69 213 -71 207 -74 L 197 -61 L 249 9 L 284 9 L 241 -51 C 271 -44 296 -46 317 -57 C 338 -68 349 -85 349 -109 C 349 -131 339 -149 320 -162 C 301 -175 278 -182 252 -182 Z" unicode="¸" />
<glyph horiz-adv-x="320" d="M 152 372 L 152 674 C 144 662 130 650 110 640 C 90 630 71 623 55 621 L 53 678 C 77 682 98 689 116 700 C 134 710 151 724 168 741 L 211 741 L 211 372 L 152 372 Z" unicode="¹" />
<glyph horiz-adv-x="423" d="M 208 302 C 184 302 162 307 140 317 C 118 327 98 342 82 360 C 65 378 52 401 42 428 C 32 455 27 485 27 518 C 27 546 31 574 41 601 C 51 628 64 652 81 672 C 97 692 117 708 139 720 C 161 732 185 739 211 739 C 263 739 307 719 343 679 C 379 639 397 589 397 528 C 397 496 392 467 382 439 C 372 411 359 387 342 367 C 325 347 305 331 282 319 C 259 307 234 302 208 302 Z M 211 351 C 249 351 281 367 305 400 C 329 433 341 474 341 523 C 341 569 329 608 307 640 C 284 672 252 689 211 689 C 173 689 142 672 118 639 C 94 605 83 565 83 517 C 83 468 95 428 119 397 C 143 366 174 351 211 351 Z M 47 201 L 47 255 L 375 255 L 375 201 L 47 201 Z" unicode="º" />
<glyph horiz-adv-x="412" d="M 31 488 L 199 320 L 199 282 L 31 116 L 31 181 L 142 302 L 31 419 L 31 488 Z M 215 488 L 383 320 L 383 282 L 215 116 L 215 181 L 326 302 L 215 419 L 215 488 Z" unicode="»" />
<glyph horiz-adv-x="690" d="M 9 0 L 9 0 Z M 108 372 L 108 674 C 100 662 86 650 66 640 C 46 630 27 623 11 621 L 9 678 C 33 682 54 689 72 700 C 90 710 107 724 124 741 L 167 741 L 167 372 L 108 372 Z M 565 730 L 177 0 L 121 0 L 509 730 L 565 730 Z M 382 88 L 382 128 L 575 368 L 614 368 L 614 131 L 679 131 L 679 88 L 614 88 L 614 1 L 560 1 L 560 88 L 382 88 Z M 435 127 L 561 127 L 561 288 L 435 127 Z" unicode="¼" />
<glyph horiz-adv-x="748" d="M 9 0 L 9 0 Z M 108 372 L 108 674 C 100 662 86 650 66 640 C 46 630 27 623 11 621 L 9 678 C 33 682 54 689 72 700 C 90 710 107 724 124 741 L 167 741 L 167 372 L 108 372 Z M 565 730 L 177 0 L 121 0 L 509 730 L 565 730 Z M 730 0 L 452 0 L 452 21 L 622 175 C 630 183 639 193 648 206 C 657 218 662 233 662 251 C 662 269 655 285 641 299 C 627 313 607 320 581 320 C 551 320 530 311 517 294 C 504 277 497 257 497 235 L 445 235 C 445 269 457 300 481 328 C 505 355 540 369 586 369 C 630 369 663 358 686 337 C 708 316 720 291 720 262 C 720 235 714 213 704 195 C 693 177 682 163 670 153 L 548 48 L 730 48 L 730 0 Z" unicode="½" />
<glyph horiz-adv-x="754" d="M 10 0 L 10 0 Z M 630 730 L 242 0 L 186 0 L 574 730 L 630 730 Z M 447 88 L 447 128 L 640 368 L 679 368 L 679 131 L 744 131 L 744 88 L 679 88 L 679 1 L 625 1 L 625 88 L 447 88 Z M 500 127 L 626 127 L 626 288 L 500 127 Z M 219 569 C 249 565 272 554 288 537 C 304 520 312 500 312 477 C 312 464 309 451 304 438 C 299 424 291 412 279 401 C 267 390 251 381 231 374 C 211 367 187 364 158 364 C 118 364 87 368 65 378 C 42 387 24 397 10 407 L 42 440 C 54 432 70 424 89 418 C 108 412 131 409 157 409 C 193 409 219 416 235 431 C 251 445 260 463 260 484 C 260 507 250 523 231 531 C 211 539 190 544 166 544 L 95 544 L 95 586 L 162 586 C 186 586 206 590 221 600 C 235 610 243 624 243 643 C 243 658 236 671 223 681 C 209 691 189 696 161 696 C 136 696 115 691 97 682 C 79 672 65 661 55 649 L 23 679 C 35 695 53 709 75 722 C 97 735 128 742 168 742 C 210 742 242 733 264 716 C 286 698 297 677 297 653 C 297 631 289 612 274 598 C 259 583 241 573 219 569 Z" unicode="¾" />
<glyph horiz-adv-x="438" d="M 201 520 L 201 617 L 273 617 L 273 520 L 201 520 Z M 217 -125 C 162 -125 117 -110 83 -80 C 48 -50 31 -9 31 45 C 31 70 34 93 42 114 C 50 134 59 153 71 170 C 83 187 95 203 109 217 C 123 231 136 244 149 256 C 173 278 188 305 195 338 C 201 370 205 401 206 430 L 270 430 C 270 381 264 342 254 312 C 244 282 226 253 200 227 C 190 216 179 205 167 194 C 155 182 144 170 134 156 C 124 142 116 127 110 111 C 103 94 100 75 100 55 C 100 19 112 -9 136 -31 C 160 -53 190 -64 226 -64 C 256 -64 284 -56 309 -41 C 333 -25 354 -6 371 16 L 413 -24 C 390 -55 362 -80 328 -98 C 294 -116 257 -125 217 -125 Z" unicode="¿" />
<glyph horiz-adv-x="526" d="M 4 0 L 4 0 Z M 521 0 L 452 0 L 384 210 L 136 210 L 71 0 L 4 0 L 239 734 L 286 734 L 521 0 Z M 373 262 L 259 622 L 148 262 L 373 262 Z M 262 789 L 262 789 Z M 344 789 L 280 789 L 180 958 L 254 958 L 344 789 Z" unicode="À" />
<glyph horiz-adv-x="526" d="M 4 0 L 4 0 Z M 521 0 L 452 0 L 384 210 L 136 210 L 71 0 L 4 0 L 239 734 L 286 734 L 521 0 Z M 373 262 L 259 622 L 148 262 L 373 262 Z M 262 791 L 262 791 Z M 181 791 L 270 960 L 344 960 L 244 791 L 181 791 Z" unicode="Á" />
<glyph horiz-adv-x="526" d="M 4 0 L 4 0 Z M 521 0 L 452 0 L 384 210 L 136 210 L 71 0 L 4 0 L 239 734 L 286 734 L 521 0 Z M 373 262 L 259 622 L 148 262 L 373 262 Z M 262 790 L 262 790 Z M 397 790 L 338 790 L 262 913 L 184 790 L 128 790 L 233 960 L 292 960 L 397 790 Z" unicode="Â" />
<glyph horiz-adv-x="526" d="M 4 0 L 4 0 Z M 521 0 L 452 0 L 384 210 L 136 210 L 71 0 L 4 0 L 239 734 L 286 734 L 521 0 Z M 373 262 L 259 622 L 148 262 L 373 262 Z M 262 798 L 262 798 Z M 361 926 L 411 926 C 411 882 405 849 393 829 C 381 808 365 798 345 798 C 327 798 312 802 298 811 C 284 820 273 829 263 838 C 252 846 242 855 232 863 C 222 871 212 876 202 876 C 191 876 182 869 174 857 C 166 844 163 826 163 803 L 113 803 C 113 845 121 877 137 898 C 153 919 170 930 189 930 C 204 930 218 925 230 917 C 242 908 255 898 267 888 C 276 879 285 871 295 864 C 305 856 315 853 325 853 C 335 853 343 859 350 872 C 357 884 361 902 361 926 Z" unicode="Ã" />
<glyph horiz-adv-x="526" d="M 4 0 L 4 0 Z M 521 0 L 452 0 L 384 210 L 136 210 L 71 0 L 4 0 L 239 734 L 286 734 L 521 0 Z M 373 262 L 259 622 L 148 262 L 373 262 Z M 262 790 L 262 790 Z M 365 790 L 312 790 L 312 946 L 365 946 L 365 790 Z M 212 790 L 159 790 L 159 946 L 212 946 L 212 790 Z" unicode="Ä" />
<glyph horiz-adv-x="526" d="M 4 0 L 4 0 Z M 521 0 L 452 0 L 384 210 L 136 210 L 71 0 L 4 0 L 239 734 L 286 734 L 521 0 Z M 373 262 L 259 622 L 148 262 L 373 262 Z M 262 779 L 262 779 Z M 262 779 C 229 779 201 790 179 813 C 157 835 146 863 146 896 C 146 928 157 956 179 978 C 201 1000 229 1012 262 1012 C 294 1012 322 1000 345 978 C 367 956 379 928 379 896 C 379 863 367 835 345 813 C 322 790 294 779 262 779 Z M 262 819 C 283 819 301 826 315 841 C 329 856 337 874 337 896 C 337 916 329 934 315 950 C 301 965 283 973 262 973 C 241 973 223 965 209 950 C 194 934 187 916 187 896 C 187 874 194 856 209 841 C 223 826 241 819 262 819 Z" unicode="Å" />
<glyph horiz-adv-x="787" d="M 754 0 L 417 0 L 417 243 L 196 243 L 66 0 L -4 0 L 381 730 L 737 730 L 737 669 L 483 669 L 483 393 L 728 393 L 728 335 L 483 335 L 483 61 L 754 61 L 754 0 Z M 417 299 L 418 680 L 222 299 L 417 299 Z" unicode="Æ" />
<glyph horiz-adv-x="594" d="M 43 0 L 43 0 Z M 324 -9 C 285 -9 248 -1 214 15 C 180 31 150 54 125 86 C 99 117 79 156 65 203 C 50 250 43 304 43 365 C 43 481 68 572 119 639 C 169 705 238 739 324 739 C 382 739 429 726 465 701 C 501 675 528 642 548 602 L 488 573 C 472 603 451 628 426 648 C 400 668 366 678 324 678 C 259 678 208 651 170 599 C 132 546 113 468 113 364 C 113 310 119 263 131 224 C 143 184 160 152 180 127 C 200 101 223 82 249 70 C 275 58 301 52 329 52 C 373 52 410 63 438 85 C 466 107 489 137 506 173 L 562 143 C 541 97 511 60 471 32 C 431 4 382 -9 324 -9 Z M 317 -4 L 317 -4 Z M 324 -186 C 303 -186 283 -183 263 -177 C 243 -171 226 -163 214 -153 L 228 -125 C 236 -131 248 -138 263 -144 C 277 -150 294 -153 312 -153 C 327 -153 340 -149 352 -141 C 363 -133 369 -123 369 -111 C 369 -96 363 -85 353 -79 C 343 -73 332 -70 320 -70 C 311 -70 304 -70 298 -72 C 292 -73 285 -75 279 -78 L 269 -65 L 321 5 L 356 5 L 313 -55 C 343 -48 368 -50 389 -61 C 410 -72 421 -89 421 -113 C 421 -135 411 -153 392 -166 C 373 -179 350 -186 324 -186 Z" unicode="Ç" />
<glyph horiz-adv-x="451" d="M 80 0 L 80 0 Z M 419 0 L 80 0 L 80 730 L 402 730 L 402 669 L 148 669 L 148 393 L 393 393 L 393 334 L 148 334 L 148 61 L 419 61 L 419 0 Z M 245 789 L 245 789 Z M 327 789 L 263 789 L 163 958 L 237 958 L 327 789 Z" unicode="È" />
<glyph horiz-adv-x="451" d="M 80 0 L 80 0 Z M 419 0 L 80 0 L 80 730 L 402 730 L 402 669 L 148 669 L 148 393 L 393 393 L 393 334 L 148 334 L 148 61 L 419 61 L 419 0 Z M 245 791 L 245 791 Z M 164 791 L 253 960 L 327 960 L 227 791 L 164 791 Z" unicode="É" />
<glyph horiz-adv-x="451" d="M 80 0 L 80 0 Z M 419 0 L 80 0 L 80 730 L 402 730 L 402 669 L 148 669 L 148 393 L 393 393 L 393 334 L 148 334 L 148 61 L 419 61 L 419 0 Z M 245 790 L 245 790 Z M 380 790 L 321 790 L 245 913 L 167 790 L 111 790 L 216 960 L 275 960 L 380 790 Z" unicode="Ê" />
<glyph horiz-adv-x="451" d="M 80 0 L 80 0 Z M 419 0 L 80 0 L 80 730 L 402 730 L 402 669 L 148 669 L 148 393 L 393 393 L 393 334 L 148 334 L 148 61 L 419 61 L 419 0 Z M 245 790 L 245 790 Z M 348 790 L 295 790 L 295 946 L 348 946 L 348 790 Z M 195 790 L 142 790 L 142 946 L 195 946 L 195 790 Z" unicode="Ë" />
<glyph horiz-adv-x="238" d="M 37 0 L 37 0 Z M 155 0 L 84 0 L 84 730 L 155 730 L 155 0 Z M 119 789 L 119 789 Z M 201 789 L 137 789 L 37 958 L 111 958 L 201 789 Z" unicode="Ì" />
<glyph horiz-adv-x="238" d="M 38 0 L 38 0 Z M 155 0 L 84 0 L 84 730 L 155 730 L 155 0 Z M 119 791 L 119 791 Z M 38 791 L 127 960 L 201 960 L 101 791 L 38 791 Z" unicode="Í" />
<glyph horiz-adv-x="238" d="M 0 0 L 0 0 Z M 155 0 L 84 0 L 84 730 L 155 730 L 155 0 Z M 119 790 L 119 790 Z M 254 790 L 195 790 L 119 913 L 41 790 L -15 790 L 90 960 L 149 960 L 254 790 Z" unicode="Î" />
<glyph horiz-adv-x="238" d="M 16 0 L 16 0 Z M 155 0 L 84 0 L 84 730 L 155 730 L 155 0 Z M 119 790 L 119 790 Z M 222 790 L 169 790 L 169 946 L 222 946 L 222 790 Z M 69 790 L 16 790 L 16 946 L 69 946 L 69 790 Z" unicode="Ï" />
<glyph horiz-adv-x="606" d="M 563 365 C 563 314 556 266 542 222 C 528 178 508 139 481 106 C 454 73 420 47 379 28 C 338 9 291 0 237 0 L 80 0 L 80 334 L 27 334 L 27 388 L 80 388 L 80 730 L 246 730 C 296 730 340 721 380 704 C 419 687 452 663 479 631 C 506 599 527 561 541 516 C 555 471 563 421 563 365 Z M 148 54 L 231 54 C 278 54 318 62 351 78 C 384 94 411 115 432 143 C 452 171 467 203 477 241 C 486 279 491 319 491 363 C 491 463 469 541 426 595 C 382 649 322 676 246 676 L 148 676 L 148 388 L 311 388 L 311 334 L 148 334 L 148 54 Z" unicode="Ð" />
<glyph horiz-adv-x="622" d="M 80 0 L 80 0 Z M 542 0 L 491 0 L 146 580 L 146 0 L 80 0 L 80 730 L 132 730 L 478 148 L 478 730 L 542 730 L 542 0 Z M 311 798 L 311 798 Z M 410 926 L 460 926 C 460 882 454 849 442 829 C 430 808 414 798 394 798 C 376 798 361 802 347 811 C 333 820 322 829 312 838 C 301 846 291 855 281 863 C 271 871 261 876 251 876 C 240 876 231 869 223 857 C 215 844 212 826 212 803 L 162 803 C 162 845 170 877 186 898 C 202 919 219 930 238 930 C 253 930 267 925 279 917 C 291 908 304 898 316 888 C 325 879 334 871 344 864 C 354 856 364 853 374 853 C 384 853 392 859 399 872 C 406 884 410 902 410 926 Z" unicode="Ñ" />
<glyph horiz-adv-x="666" d="M 43 0 L 43 0 Z M 336 -9 C 292 -9 252 0 216 17 C 180 34 149 59 124 91 C 98 123 78 163 64 211 C 50 258 43 311 43 371 C 43 427 50 477 64 523 C 78 569 98 607 123 639 C 148 671 178 695 214 713 C 249 730 288 739 330 739 C 419 739 490 705 543 639 C 596 572 623 481 623 366 C 623 308 615 256 601 210 C 586 164 566 124 540 92 C 514 60 484 35 449 17 C 414 0 376 -9 336 -9 Z M 336 48 C 367 48 396 55 422 69 C 448 83 471 103 491 130 C 510 157 525 191 536 231 C 546 271 552 318 552 370 C 552 467 531 543 490 598 C 448 653 395 681 329 681 C 265 681 213 654 173 600 C 133 546 114 468 114 366 C 114 314 119 268 131 228 C 142 188 158 154 178 128 C 198 102 221 82 248 68 C 275 54 304 48 336 48 Z M 331 789 L 331 789 Z M 413 789 L 349 789 L 249 958 L 323 958 L 413 789 Z" unicode="Ò" />
<glyph horiz-adv-x="666" d="M 43 0 L 43 0 Z M 336 -9 C 292 -9 252 0 216 17 C 180 34 149 59 124 91 C 98 123 78 163 64 211 C 50 258 43 311 43 371 C 43 427 50 477 64 523 C 78 569 98 607 123 639 C 148 671 178 695 214 713 C 249 730 288 739 330 739 C 419 739 490 705 543 639 C 596 572 623 481 623 366 C 623 308 615 256 601 210 C 586 164 566 124 540 92 C 514 60 484 35 449 17 C 414 0 376 -9 336 -9 Z M 336 48 C 367 48 396 55 422 69 C 448 83 471 103 491 130 C 510 157 525 191 536 231 C 546 271 552 318 552 370 C 552 467 531 543 490 598 C 448 653 395 681 329 681 C 265 681 213 654 173 600 C 133 546 114 468 114 366 C 114 314 119 268 131 228 C 142 188 158 154 178 128 C 198 102 221 82 248 68 C 275 54 304 48 336 48 Z M 331 791 L 331 791 Z M 250 791 L 339 960 L 413 960 L 313 791 L 250 791 Z" unicode="Ó" />
<glyph horiz-adv-x="666" d="M 43 0 L 43 0 Z M 336 -9 C 292 -9 252 0 216 17 C 180 34 149 59 124 91 C 98 123 78 163 64 211 C 50 258 43 311 43 371 C 43 427 50 477 64 523 C 78 569 98 607 123 639 C 148 671 178 695 214 713 C 249 730 288 739 330 739 C 419 739 490 705 543 639 C 596 572 623 481 623 366 C 623 308 615 256 601 210 C 586 164 566 124 540 92 C 514 60 484 35 449 17 C 414 0 376 -9 336 -9 Z M 336 48 C 367 48 396 55 422 69 C 448 83 471 103 491 130 C 510 157 525 191 536 231 C 546 271 552 318 552 370 C 552 467 531 543 490 598 C 448 653 395 681 329 681 C 265 681 213 654 173 600 C 133 546 114 468 114 366 C 114 314 119 268 131 228 C 142 188 158 154 178 128 C 198 102 221 82 248 68 C 275 54 304 48 336 48 Z M 331 790 L 331 790 Z M 466 790 L 407 790 L 331 913 L 253 790 L 197 790 L 302 960 L 361 960 L 466 790 Z" unicode="Ô" />
<glyph horiz-adv-x="666" d="M 43 0 L 43 0 Z M 336 -9 C 292 -9 252 0 216 17 C 180 34 149 59 124 91 C 98 123 78 163 64 211 C 50 258 43 311 43 371 C 43 427 50 477 64 523 C 78 569 98 607 123 639 C 148 671 178 695 214 713 C 249 730 288 739 330 739 C 419 739 490 705 543 639 C 596 572 623 481 623 366 C 623 308 615 256 601 210 C 586 164 566 124 540 92 C 514 60 484 35 449 17 C 414 0 376 -9 336 -9 Z M 336 48 C 367 48 396 55 422 69 C 448 83 471 103 491 130 C 510 157 525 191 536 231 C 546 271 552 318 552 370 C 552 467 531 543 490 598 C 448 653 395 681 329 681 C 265 681 213 654 173 600 C 133 546 114 468 114 366 C 114 314 119 268 131 228 C 142 188 158 154 178 128 C 198 102 221 82 248 68 C 275 54 304 48 336 48 Z M 331 798 L 331 798 Z M 430 926 L 480 926 C 480 882 474 849 462 829 C 450 808 434 798 414 798 C 396 798 381 802 367 811 C 353 820 342 829 332 838 C 321 846 311 855 301 863 C 291 871 281 876 271 876 C 260 876 251 869 243 857 C 235 844 232 826 232 803 L 182 803 C 182 845 190 877 206 898 C 222 919 239 930 258 930 C 273 930 287 925 299 917 C 311 908 324 898 336 888 C 345 879 354 871 364 864 C 374 856 384 853 394 853 C 404 853 412 859 419 872 C 426 884 430 902 430 926 Z" unicode="Õ" />
<glyph horiz-adv-x="666" d="M 43 0 L 43 0 Z M 336 -9 C 292 -9 252 0 216 17 C 180 34 149 59 124 91 C 98 123 78 163 64 211 C 50 258 43 311 43 371 C 43 427 50 477 64 523 C 78 569 98 607 123 639 C 148 671 178 695 214 713 C 249 730 288 739 330 739 C 419 739 490 705 543 639 C 596 572 623 481 623 366 C 623 308 615 256 601 210 C 586 164 566 124 540 92 C 514 60 484 35 449 17 C 414 0 376 -9 336 -9 Z M 336 48 C 367 48 396 55 422 69 C 448 83 471 103 491 130 C 510 157 525 191 536 231 C 546 271 552 318 552 370 C 552 467 531 543 490 598 C 448 653 395 681 329 681 C 265 681 213 654 173 600 C 133 546 114 468 114 366 C 114 314 119 268 131 228 C 142 188 158 154 178 128 C 198 102 221 82 248 68 C 275 54 304 48 336 48 Z M 331 790 L 331 790 Z M 434 790 L 381 790 L 381 946 L 434 946 L 434 790 Z M 281 790 L 228 790 L 228 946 L 281 946 L 281 790 Z" unicode="Ö" />
<glyph horiz-adv-x="487" d="M 105 156 L 70 191 L 209 329 L 71 467 L 105 503 L 244 365 L 382 503 L 417 467 L 279 329 L 417 191 L 382 155 L 244 295 L 105 156 Z" unicode="×" />
<glyph horiz-adv-x="666" d="M 623 366 C 623 308 615 256 601 210 C 586 164 566 124 540 92 C 514 60 484 35 449 17 C 414 0 376 -9 336 -9 C 296 -9 258 -1 224 13 C 190 28 160 50 135 78 L 74 0 L 36 29 L 106 118 C 86 149 70 186 59 229 C 48 271 43 319 43 371 C 43 427 50 477 64 523 C 78 569 98 607 123 639 C 148 671 178 695 214 713 C 249 730 288 739 330 739 C 370 739 406 732 440 718 C 474 704 503 684 528 658 L 595 743 L 634 714 L 559 619 C 579 587 595 550 606 508 C 617 465 623 418 623 366 Z M 114 366 C 114 328 117 292 123 260 C 129 228 138 199 150 175 L 486 604 C 466 628 443 647 417 661 C 390 674 361 681 329 681 C 265 681 213 654 173 600 C 133 546 114 468 114 366 Z M 552 370 C 552 408 548 443 542 475 C 535 507 525 535 513 560 L 177 131 C 197 103 220 83 248 69 C 275 55 304 48 336 48 C 367 48 396 55 422 69 C 448 83 471 103 491 130 C 510 157 525 191 536 231 C 546 271 552 318 552 370 Z" unicode="Ø" />
<glyph horiz-adv-x="607" d="M 76 0 L 76 0 Z M 532 730 L 532 230 C 532 188 525 153 513 123 C 501 93 484 68 463 48 C 442 28 418 14 390 5 C 362 -4 332 -9 301 -9 C 270 -9 241 -4 214 4 C 186 13 162 27 142 46 C 122 65 106 90 94 121 C 82 151 76 188 76 230 L 76 730 L 145 730 L 145 230 C 145 169 160 124 191 95 C 221 66 258 52 302 52 C 345 52 382 65 413 93 C 444 121 460 166 460 230 L 460 730 L 532 730 Z M 303 789 L 303 789 Z M 385 789 L 321 789 L 221 958 L 295 958 L 385 789 Z" unicode="Ù" />
<glyph horiz-adv-x="607" d="M 76 0 L 76 0 Z M 532 730 L 532 230 C 532 188 525 153 513 123 C 501 93 484 68 463 48 C 442 28 418 14 390 5 C 362 -4 332 -9 301 -9 C 270 -9 241 -4 214 4 C 186 13 162 27 142 46 C 122 65 106 90 94 121 C 82 151 76 188 76 230 L 76 730 L 145 730 L 145 230 C 145 169 160 124 191 95 C 221 66 258 52 302 52 C 345 52 382 65 413 93 C 444 121 460 166 460 230 L 460 730 L 532 730 Z M 303 791 L 303 791 Z M 222 791 L 311 960 L 385 960 L 285 791 L 222 791 Z" unicode="Ú" />
<glyph horiz-adv-x="607" d="M 76 0 L 76 0 Z M 532 730 L 532 230 C 532 188 525 153 513 123 C 501 93 484 68 463 48 C 442 28 418 14 390 5 C 362 -4 332 -9 301 -9 C 270 -9 241 -4 214 4 C 186 13 162 27 142 46 C 122 65 106 90 94 121 C 82 151 76 188 76 230 L 76 730 L 145 730 L 145 230 C 145 169 160 124 191 95 C 221 66 258 52 302 52 C 345 52 382 65 413 93 C 444 121 460 166 460 230 L 460 730 L 532 730 Z M 303 790 L 303 790 Z M 438 790 L 379 790 L 303 913 L 225 790 L 169 790 L 274 960 L 333 960 L 438 790 Z" unicode="Û" />
<glyph horiz-adv-x="607" d="M 76 0 L 76 0 Z M 532 730 L 532 230 C 532 188 525 153 513 123 C 501 93 484 68 463 48 C 442 28 418 14 390 5 C 362 -4 332 -9 301 -9 C 270 -9 241 -4 214 4 C 186 13 162 27 142 46 C 122 65 106 90 94 121 C 82 151 76 188 76 230 L 76 730 L 145 730 L 145 230 C 145 169 160 124 191 95 C 221 66 258 52 302 52 C 345 52 382 65 413 93 C 444 121 460 166 460 230 L 460 730 L 532 730 Z M 303 790 L 303 790 Z M 406 790 L 353 790 L 353 946 L 406 946 L 406 790 Z M 253 790 L 200 790 L 200 946 L 253 946 L 253 790 Z" unicode="Ü" />
<glyph horiz-adv-x="515" d="M 2 0 L 2 0 Z M 513 730 L 290 322 L 290 0 L 220 0 L 220 324 L 2 730 L 82 730 L 259 391 L 444 730 L 513 730 Z M 260 791 L 260 791 Z M 179 791 L 268 960 L 342 960 L 242 791 L 179 791 Z" unicode="Ý" />
<glyph horiz-adv-x="482" d="M 80 0 L 80 730 L 150 730 L 150 594 L 260 594 C 318 594 365 575 403 539 C 441 503 460 452 460 387 C 460 319 441 266 403 228 C 365 189 318 170 261 170 L 150 170 L 150 0 L 80 0 Z M 148 225 L 253 225 C 295 225 329 239 355 267 C 381 295 394 336 394 389 C 394 438 379 475 351 500 C 322 525 289 538 251 538 L 148 538 L 148 225 Z" unicode="Þ" />
<glyph horiz-adv-x="517" d="M 353 -7 C 318 -7 287 0 260 12 C 233 25 211 43 195 65 L 228 108 C 243 89 261 74 282 64 C 302 53 324 48 348 48 C 370 48 390 55 408 71 C 426 87 435 108 435 136 C 435 160 426 181 409 199 C 391 216 363 235 325 256 C 283 277 252 297 234 317 C 215 337 206 365 206 403 C 206 438 216 466 238 487 C 260 508 284 521 312 525 C 318 528 325 538 333 554 C 341 570 345 596 346 630 C 346 673 335 704 313 722 C 291 740 267 749 241 749 C 211 749 187 739 168 719 C 149 699 140 670 140 632 L 140 0 L 74 0 L 74 636 C 74 689 89 730 120 759 C 150 788 190 803 238 803 C 284 803 323 788 356 759 C 388 730 405 688 405 632 C 405 588 399 553 387 528 C 375 503 363 488 351 484 C 329 483 308 476 290 463 C 271 449 261 431 261 407 C 261 384 269 366 286 353 C 302 339 331 322 371 301 C 415 278 446 254 466 230 C 485 205 495 173 495 134 C 495 110 490 90 482 72 C 474 54 463 40 450 28 C 436 16 421 8 404 2 C 387 -4 370 -7 353 -7 Z" unicode="ß" />
<glyph horiz-adv-x="431" d="M 31 0 L 31 0 Z M 375 0 L 317 0 L 317 65 C 301 43 281 26 258 13 C 234 0 205 -6 171 -6 C 131 -6 97 7 71 34 C 44 61 31 100 31 152 C 31 208 48 250 83 277 C 117 304 160 320 210 324 L 313 332 L 313 375 C 313 411 304 437 286 455 C 268 472 243 481 211 481 C 184 481 160 476 139 466 C 117 456 100 445 87 433 L 64 485 C 80 499 102 512 128 522 C 154 532 186 538 222 538 C 268 538 305 525 333 500 C 361 474 375 437 375 387 L 375 0 Z M 314 111 L 314 286 L 218 278 C 184 275 155 264 131 244 C 107 224 96 194 96 152 C 96 116 105 89 125 71 C 145 53 168 44 195 44 C 220 44 243 50 264 63 C 285 75 302 91 314 111 Z M 212 588 L 212 588 Z M 294 588 L 230 588 L 130 757 L 204 757 L 294 588 Z" unicode="à" />
<glyph horiz-adv-x="431" d="M 31 0 L 31 0 Z M 375 0 L 317 0 L 317 65 C 301 43 281 26 258 13 C 234 0 205 -6 171 -6 C 131 -6 97 7 71 34 C 44 61 31 100 31 152 C 31 208 48 250 83 277 C 117 304 160 320 210 324 L 313 332 L 313 375 C 313 411 304 437 286 455 C 268 472 243 481 211 481 C 184 481 160 476 139 466 C 117 456 100 445 87 433 L 64 485 C 80 499 102 512 128 522 C 154 532 186 538 222 538 C 268 538 305 525 333 500 C 361 474 375 437 375 387 L 375 0 Z M 314 111 L 314 286 L 218 278 C 184 275 155 264 131 244 C 107 224 96 194 96 152 C 96 116 105 89 125 71 C 145 53 168 44 195 44 C 220 44 243 50 264 63 C 285 75 302 91 314 111 Z M 212 590 L 212 590 Z M 131 590 L 220 759 L 294 759 L 194 590 L 131 590 Z" unicode="á" />
<glyph horiz-adv-x="431" d="M 31 0 L 31 0 Z M 375 0 L 317 0 L 317 65 C 301 43 281 26 258 13 C 234 0 205 -6 171 -6 C 131 -6 97 7 71 34 C 44 61 31 100 31 152 C 31 208 48 250 83 277 C 117 304 160 320 210 324 L 313 332 L 313 375 C 313 411 304 437 286 455 C 268 472 243 481 211 481 C 184 481 160 476 139 466 C 117 456 100 445 87 433 L 64 485 C 80 499 102 512 128 522 C 154 532 186 538 222 538 C 268 538 305 525 333 500 C 361 474 375 437 375 387 L 375 0 Z M 314 111 L 314 286 L 218 278 C 184 275 155 264 131 244 C 107 224 96 194 96 152 C 96 116 105 89 125 71 C 145 53 168 44 195 44 C 220 44 243 50 264 63 C 285 75 302 91 314 111 Z M 212 589 L 212 589 Z M 347 589 L 288 589 L 212 712 L 134 589 L 78 589 L 183 759 L 242 759 L 347 589 Z" unicode="â" />
<glyph horiz-adv-x="431" d="M 31 0 L 31 0 Z M 375 0 L 317 0 L 317 65 C 301 43 281 26 258 13 C 234 0 205 -6 171 -6 C 131 -6 97 7 71 34 C 44 61 31 100 31 152 C 31 208 48 250 83 277 C 117 304 160 320 210 324 L 313 332 L 313 375 C 313 411 304 437 286 455 C 268 472 243 481 211 481 C 184 481 160 476 139 466 C 117 456 100 445 87 433 L 64 485 C 80 499 102 512 128 522 C 154 532 186 538 222 538 C 268 538 305 525 333 500 C 361 474 375 437 375 387 L 375 0 Z M 314 111 L 314 286 L 218 278 C 184 275 155 264 131 244 C 107 224 96 194 96 152 C 96 116 105 89 125 71 C 145 53 168 44 195 44 C 220 44 243 50 264 63 C 285 75 302 91 314 111 Z M 212 597 L 212 597 Z M 311 725 L 361 725 C 361 681 355 648 343 628 C 331 607 315 597 295 597 C 277 597 262 601 248 610 C 234 619 223 628 213 637 C 202 645 192 654 182 662 C 172 670 162 675 152 675 C 141 675 132 668 124 656 C 116 643 113 625 113 602 L 63 602 C 63 644 71 676 87 697 C 103 718 120 729 139 729 C 154 729 168 724 180 716 C 192 707 205 697 217 687 C 226 678 235 670 245 663 C 255 655 265 652 275 652 C 285 652 293 658 300 671 C 307 683 311 701 311 725 Z" unicode="ã" />
<glyph horiz-adv-x="431" d="M 31 0 L 31 0 Z M 375 0 L 317 0 L 317 65 C 301 43 281 26 258 13 C 234 0 205 -6 171 -6 C 131 -6 97 7 71 34 C 44 61 31 100 31 152 C 31 208 48 250 83 277 C 117 304 160 320 210 324 L 313 332 L 313 375 C 313 411 304 437 286 455 C 268 472 243 481 211 481 C 184 481 160 476 139 466 C 117 456 100 445 87 433 L 64 485 C 80 499 102 512 128 522 C 154 532 186 538 222 538 C 268 538 305 525 333 500 C 361 474 375 437 375 387 L 375 0 Z M 314 111 L 314 286 L 218 278 C 184 275 155 264 131 244 C 107 224 96 194 96 152 C 96 116 105 89 125 71 C 145 53 168 44 195 44 C 220 44 243 50 264 63 C 285 75 302 91 314 111 Z M 212 589 L 212 589 Z M 315 589 L 262 589 L 262 745 L 315 745 L 315 589 Z M 162 589 L 109 589 L 109 745 L 162 745 L 162 589 Z" unicode="ä" />
<glyph horiz-adv-x="431" d="M 31 0 L 31 0 Z M 375 0 L 317 0 L 317 65 C 301 43 281 26 258 13 C 234 0 205 -6 171 -6 C 131 -6 97 7 71 34 C 44 61 31 100 31 152 C 31 208 48 250 83 277 C 117 304 160 320 210 324 L 313 332 L 313 375 C 313 411 304 437 286 455 C 268 472 243 481 211 481 C 184 481 160 476 139 466 C 117 456 100 445 87 433 L 64 485 C 80 499 102 512 128 522 C 154 532 186 538 222 538 C 268 538 305 525 333 500 C 361 474 375 437 375 387 L 375 0 Z M 314 111 L 314 286 L 218 278 C 184 275 155 264 131 244 C 107 224 96 194 96 152 C 96 116 105 89 125 71 C 145 53 168 44 195 44 C 220 44 243 50 264 63 C 285 75 302 91 314 111 Z M 212 578 L 212 578 Z M 212 578 C 179 578 151 589 129 612 C 107 634 96 662 96 695 C 96 727 107 755 129 777 C 151 799 179 811 212 811 C 244 811 272 799 295 777 C 317 755 329 727 329 695 C 329 662 317 634 295 612 C 272 589 244 578 212 578 Z M 212 618 C 233 618 251 625 265 640 C 279 655 287 673 287 695 C 287 715 279 733 265 749 C 251 764 233 772 212 772 C 191 772 173 764 159 749 C 144 733 137 715 137 695 C 137 673 144 655 159 640 C 173 625 191 618 212 618 Z" unicode="å" />
<glyph horiz-adv-x="735" d="M 512 -7 C 488 -7 466 -3 447 5 C 427 13 411 23 397 35 C 383 47 371 61 362 76 C 352 91 346 106 342 120 C 333 80 313 49 282 27 C 250 5 214 -6 174 -6 C 136 -6 104 7 76 35 C 48 62 34 101 34 151 C 34 209 51 251 86 278 C 120 304 163 319 213 323 L 316 331 L 316 352 C 316 399 306 432 288 452 C 269 471 244 481 212 481 C 185 481 161 475 140 465 C 119 455 102 444 89 434 L 67 485 C 85 499 106 512 130 522 C 154 532 183 538 217 538 C 254 538 285 528 310 509 C 334 489 349 458 354 414 C 358 428 364 442 372 456 C 380 470 391 483 404 495 C 417 507 432 516 450 524 C 468 531 488 535 511 535 C 570 535 617 509 653 457 C 688 405 706 337 706 251 L 375 251 C 375 192 389 144 415 106 C 441 68 475 50 519 50 C 556 50 585 58 605 74 C 625 90 641 106 655 123 L 689 85 C 672 61 650 40 622 21 C 594 2 558 -7 512 -7 Z M 375 296 L 642 296 C 642 349 630 393 606 428 C 582 463 550 481 510 481 C 472 481 441 463 416 429 C 391 395 377 350 375 296 Z M 195 44 C 223 44 249 54 273 75 C 297 95 311 124 317 160 L 317 284 L 220 277 C 186 274 158 263 134 245 C 110 227 98 196 98 153 C 98 115 107 88 127 70 C 147 52 169 44 195 44 Z" unicode="æ" />
<glyph horiz-adv-x="420" d="M 31 0 L 31 0 Z M 361 130 L 400 93 C 393 81 385 70 376 58 C 366 46 355 35 343 25 C 330 15 315 8 298 2 C 280 -4 261 -7 239 -7 C 206 -7 177 0 151 13 C 125 26 104 44 86 68 C 68 92 55 120 45 154 C 35 187 31 223 31 263 C 31 299 35 334 45 368 C 54 401 67 430 85 454 C 103 478 124 498 150 513 C 176 527 205 535 238 535 C 260 535 280 531 298 525 C 316 519 331 510 345 500 C 358 490 369 478 379 465 C 388 452 395 439 401 427 L 351 396 C 341 416 328 435 310 452 C 292 469 268 478 237 478 C 215 478 196 472 179 461 C 161 450 147 435 135 416 C 123 397 113 375 107 349 C 101 323 98 295 98 265 C 98 197 111 145 138 107 C 164 69 200 50 244 50 C 278 50 303 59 321 77 C 338 95 351 113 361 130 Z M 225 -4 L 225 -4 Z M 232 -186 C 211 -186 191 -183 171 -177 C 151 -171 134 -163 122 -153 L 136 -125 C 144 -131 156 -138 171 -144 C 185 -150 202 -153 220 -153 C 235 -153 248 -149 260 -141 C 271 -133 277 -123 277 -111 C 277 -96 271 -85 261 -79 C 251 -73 240 -70 228 -70 C 219 -70 212 -70 206 -72 C 200 -73 193 -75 187 -78 L 177 -65 L 229 5 L 264 5 L 221 -55 C 251 -48 276 -50 297 -61 C 318 -72 329 -89 329 -113 C 329 -135 319 -153 300 -166 C 281 -179 258 -186 232 -186 Z" unicode="ç" />
<glyph horiz-adv-x="455" d="M 31 0 L 31 0 Z M 235 -7 C 174 -7 125 17 87 67 C 49 116 31 181 31 263 C 31 302 36 338 46 372 C 56 406 70 435 88 459 C 106 483 127 501 151 515 C 175 528 202 535 231 535 C 291 535 338 509 373 457 C 408 405 426 336 426 250 L 96 250 C 96 192 109 145 135 107 C 160 69 195 50 241 50 C 275 50 302 57 323 73 C 344 88 361 105 375 123 L 408 85 C 391 62 369 41 342 22 C 314 2 279 -7 235 -7 Z M 94 296 L 362 296 C 361 351 348 396 324 430 C 300 464 269 481 231 481 C 193 481 161 463 136 429 C 111 395 97 350 94 296 Z M 231 588 L 231 588 Z M 313 588 L 249 588 L 149 757 L 223 757 L 313 588 Z" unicode="è" />
<glyph horiz-adv-x="455" d="M 31 0 L 31 0 Z M 235 -7 C 174 -7 125 17 87 67 C 49 116 31 181 31 263 C 31 302 36 338 46 372 C 56 406 70 435 88 459 C 106 483 127 501 151 515 C 175 528 202 535 231 535 C 291 535 338 509 373 457 C 408 405 426 336 426 250 L 96 250 C 96 192 109 145 135 107 C 160 69 195 50 241 50 C 275 50 302 57 323 73 C 344 88 361 105 375 123 L 408 85 C 391 62 369 41 342 22 C 314 2 279 -7 235 -7 Z M 94 296 L 362 296 C 361 351 348 396 324 430 C 300 464 269 481 231 481 C 193 481 161 463 136 429 C 111 395 97 350 94 296 Z M 231 590 L 231 590 Z M 150 590 L 239 759 L 313 759 L 213 590 L 150 590 Z" unicode="é" />
<glyph horiz-adv-x="455" d="M 31 0 L 31 0 Z M 235 -7 C 174 -7 125 17 87 67 C 49 116 31 181 31 263 C 31 302 36 338 46 372 C 56 406 70 435 88 459 C 106 483 127 501 151 515 C 175 528 202 535 231 535 C 291 535 338 509 373 457 C 408 405 426 336 426 250 L 96 250 C 96 192 109 145 135 107 C 160 69 195 50 241 50 C 275 50 302 57 323 73 C 344 88 361 105 375 123 L 408 85 C 391 62 369 41 342 22 C 314 2 279 -7 235 -7 Z M 94 296 L 362 296 C 361 351 348 396 324 430 C 300 464 269 481 231 481 C 193 481 161 463 136 429 C 111 395 97 350 94 296 Z M 231 589 L 231 589 Z M 366 589 L 307 589 L 231 712 L 153 589 L 97 589 L 202 759 L 261 759 L 366 589 Z" unicode="ê" />
<glyph horiz-adv-x="455" d="M 31 0 L 31 0 Z M 235 -7 C 174 -7 125 17 87 67 C 49 116 31 181 31 263 C 31 302 36 338 46 372 C 56 406 70 435 88 459 C 106 483 127 501 151 515 C 175 528 202 535 231 535 C 291 535 338 509 373 457 C 408 405 426 336 426 250 L 96 250 C 96 192 109 145 135 107 C 160 69 195 50 241 50 C 275 50 302 57 323 73 C 344 88 361 105 375 123 L 408 85 C 391 62 369 41 342 22 C 314 2 279 -7 235 -7 Z M 94 296 L 362 296 C 361 351 348 396 324 430 C 300 464 269 481 231 481 C 193 481 161 463 136 429 C 111 395 97 350 94 296 Z M 231 589 L 231 589 Z M 334 589 L 281 589 L 281 745 L 334 745 L 334 589 Z M 181 589 L 128 589 L 128 745 L 181 745 L 181 589 Z" unicode="ë" />
<glyph horiz-adv-x="194" d="M 15 0 L 15 0 Z M 129 0 L 65 0 L 65 529 L 129 529 L 129 0 Z M 97 588 L 97 588 Z M 179 588 L 115 588 L 15 757 L 89 757 L 179 588 Z" unicode="ì" />
<glyph horiz-adv-x="194" d="M 16 0 L 16 0 Z M 129 0 L 65 0 L 65 529 L 129 529 L 129 0 Z M 97 590 L 97 590 Z M 16 590 L 105 759 L 179 759 L 79 590 L 16 590 Z" unicode="í" />
<glyph horiz-adv-x="194" d="M 0 0 L 0 0 Z M 129 0 L 65 0 L 65 529 L 129 529 L 129 0 Z M 97 589 L 97 589 Z M 232 589 L 173 589 L 97 712 L 19 589 L -37 589 L 68 759 L 127 759 L 232 589 Z" unicode="î" />
<glyph horiz-adv-x="194" d="M 0 0 L 0 0 Z M 129 0 L 65 0 L 65 529 L 129 529 L 129 0 Z M 97 589 L 97 589 Z M 200 589 L 147 589 L 147 745 L 200 745 L 200 589 Z M 47 589 L -6 589 L -6 745 L 47 745 L 47 589 Z" unicode="ï" />
<glyph horiz-adv-x="473" d="M 435 295 C 435 251 430 210 421 173 C 412 135 399 103 382 77 C 365 50 344 29 319 14 C 294 0 266 -8 234 -8 C 176 -8 127 15 89 62 C 51 109 32 173 32 255 C 32 295 37 332 47 365 C 57 398 70 426 88 450 C 105 473 125 491 148 504 C 171 516 195 523 221 523 C 256 523 286 513 312 494 C 337 474 356 449 368 418 C 363 468 354 513 341 553 C 327 593 312 627 296 656 L 187 603 L 174 644 L 273 692 C 254 717 236 737 218 752 C 200 766 185 776 173 780 L 223 802 C 233 798 247 789 265 775 C 283 761 301 740 320 714 L 386 746 L 399 705 L 344 678 C 368 637 389 585 407 521 C 425 457 435 382 435 295 Z M 234 48 C 276 48 309 67 333 105 C 357 143 369 195 369 261 C 369 327 357 378 333 415 C 309 452 275 471 231 471 C 191 471 158 451 134 413 C 110 374 98 323 98 259 C 98 191 110 138 136 102 C 161 66 194 48 234 48 Z" unicode="ð" />
<glyph horiz-adv-x="468" d="M 62 0 L 62 0 Z M 409 0 L 344 0 L 344 389 C 344 418 334 440 316 456 C 297 472 274 480 247 480 C 232 480 217 477 203 473 C 189 469 176 462 165 453 C 153 443 144 431 137 416 C 130 400 127 382 127 360 L 127 0 L 62 0 L 62 529 L 118 529 L 118 437 C 126 466 144 490 171 508 C 198 526 231 536 269 536 C 307 536 340 525 368 503 C 395 481 409 450 409 410 L 409 0 Z M 240 597 L 240 597 Z M 339 725 L 389 725 C 389 681 383 648 371 628 C 359 607 343 597 323 597 C 305 597 290 601 276 610 C 262 619 251 628 241 637 C 230 645 220 654 210 662 C 200 670 190 675 180 675 C 169 675 160 668 152 656 C 144 643 141 625 141 602 L 91 602 C 91 644 99 676 115 697 C 131 718 148 729 167 729 C 182 729 196 724 208 716 C 220 707 233 697 245 687 C 254 678 263 670 273 663 C 283 655 293 652 303 652 C 313 652 321 658 328 671 C 335 683 339 701 339 725 Z" unicode="ñ" />
<glyph horiz-adv-x="467" d="M 31 0 L 31 0 Z M 234 -7 C 205 -7 178 -1 154 11 C 129 23 108 40 90 63 C 72 85 57 113 47 147 C 36 181 31 219 31 262 C 31 302 36 339 46 373 C 56 407 69 436 87 460 C 105 484 126 502 150 516 C 174 529 201 536 230 536 C 290 536 340 512 378 465 C 416 418 436 355 436 276 C 436 234 431 195 421 161 C 411 126 397 96 380 71 C 362 46 341 27 316 13 C 291 0 264 -7 234 -7 Z M 235 50 C 276 50 309 69 333 108 C 357 147 369 200 369 268 C 369 335 356 387 332 423 C 307 459 273 478 230 478 C 190 478 158 459 134 422 C 110 384 98 332 98 266 C 98 193 110 139 136 103 C 162 67 195 50 235 50 Z M 233 588 L 233 588 Z M 315 588 L 251 588 L 151 757 L 225 757 L 315 588 Z" unicode="ò" />
<glyph horiz-adv-x="467" d="M 31 0 L 31 0 Z M 234 -7 C 205 -7 178 -1 154 11 C 129 23 108 40 90 63 C 72 85 57 113 47 147 C 36 181 31 219 31 262 C 31 302 36 339 46 373 C 56 407 69 436 87 460 C 105 484 126 502 150 516 C 174 529 201 536 230 536 C 290 536 340 512 378 465 C 416 418 436 355 436 276 C 436 234 431 195 421 161 C 411 126 397 96 380 71 C 362 46 341 27 316 13 C 291 0 264 -7 234 -7 Z M 235 50 C 276 50 309 69 333 108 C 357 147 369 200 369 268 C 369 335 356 387 332 423 C 307 459 273 478 230 478 C 190 478 158 459 134 422 C 110 384 98 332 98 266 C 98 193 110 139 136 103 C 162 67 195 50 235 50 Z M 233 590 L 233 590 Z M 152 590 L 241 759 L 315 759 L 215 590 L 152 590 Z" unicode="ó" />
<glyph horiz-adv-x="467" d="M 31 0 L 31 0 Z M 234 -7 C 205 -7 178 -1 154 11 C 129 23 108 40 90 63 C 72 85 57 113 47 147 C 36 181 31 219 31 262 C 31 302 36 339 46 373 C 56 407 69 436 87 460 C 105 484 126 502 150 516 C 174 529 201 536 230 536 C 290 536 340 512 378 465 C 416 418 436 355 436 276 C 436 234 431 195 421 161 C 411 126 397 96 380 71 C 362 46 341 27 316 13 C 291 0 264 -7 234 -7 Z M 235 50 C 276 50 309 69 333 108 C 357 147 369 200 369 268 C 369 335 356 387 332 423 C 307 459 273 478 230 478 C 190 478 158 459 134 422 C 110 384 98 332 98 266 C 98 193 110 139 136 103 C 162 67 195 50 235 50 Z M 233 589 L 233 589 Z M 368 589 L 309 589 L 233 712 L 155 589 L 99 589 L 204 759 L 263 759 L 368 589 Z" unicode="ô" />
<glyph horiz-adv-x="467" d="M 31 0 L 31 0 Z M 234 -7 C 205 -7 178 -1 154 11 C 129 23 108 40 90 63 C 72 85 57 113 47 147 C 36 181 31 219 31 262 C 31 302 36 339 46 373 C 56 407 69 436 87 460 C 105 484 126 502 150 516 C 174 529 201 536 230 536 C 290 536 340 512 378 465 C 416 418 436 355 436 276 C 436 234 431 195 421 161 C 411 126 397 96 380 71 C 362 46 341 27 316 13 C 291 0 264 -7 234 -7 Z M 235 50 C 276 50 309 69 333 108 C 357 147 369 200 369 268 C 369 335 356 387 332 423 C 307 459 273 478 230 478 C 190 478 158 459 134 422 C 110 384 98 332 98 266 C 98 193 110 139 136 103 C 162 67 195 50 235 50 Z M 233 597 L 233 597 Z M 332 725 L 382 725 C 382 681 376 648 364 628 C 352 607 336 597 316 597 C 298 597 283 601 269 610 C 255 619 244 628 234 637 C 223 645 213 654 203 662 C 193 670 183 675 173 675 C 162 675 153 668 145 656 C 137 643 134 625 134 602 L 84 602 C 84 644 92 676 108 697 C 124 718 141 729 160 729 C 175 729 189 724 201 716 C 213 707 226 697 238 687 C 247 678 256 670 266 663 C 276 655 286 652 296 652 C 306 652 314 658 321 671 C 328 683 332 701 332 725 Z" unicode="õ" />
<glyph horiz-adv-x="467" d="M 31 0 L 31 0 Z M 234 -7 C 205 -7 178 -1 154 11 C 129 23 108 40 90 63 C 72 85 57 113 47 147 C 36 181 31 219 31 262 C 31 302 36 339 46 373 C 56 407 69 436 87 460 C 105 484 126 502 150 516 C 174 529 201 536 230 536 C 290 536 340 512 378 465 C 416 418 436 355 436 276 C 436 234 431 195 421 161 C 411 126 397 96 380 71 C 362 46 341 27 316 13 C 291 0 264 -7 234 -7 Z M 235 50 C 276 50 309 69 333 108 C 357 147 369 200 369 268 C 369 335 356 387 332 423 C 307 459 273 478 230 478 C 190 478 158 459 134 422 C 110 384 98 332 98 266 C 98 193 110 139 136 103 C 162 67 195 50 235 50 Z M 233 589 L 233 589 Z M 336 589 L 283 589 L 283 745 L 336 745 L 336 589 Z M 183 589 L 130 589 L 130 745 L 183 745 L 183 589 Z" unicode="ö" />
<glyph horiz-adv-x="487" d="M 212 447 L 212 555 L 275 555 L 275 447 L 212 447 Z M 28 303 L 28 359 L 459 359 L 459 303 L 28 303 Z M 212 106 L 212 214 L 275 214 L 275 106 L 212 106 Z" unicode="÷" />
<glyph horiz-adv-x="467" d="M 436 276 C 436 234 431 195 421 161 C 411 126 397 96 380 71 C 362 46 341 27 316 13 C 291 0 264 -7 234 -7 C 208 -7 184 -2 162 7 C 139 16 119 30 102 49 L 65 -2 L 33 23 L 76 83 C 62 105 51 131 43 161 C 35 191 31 225 31 262 C 31 302 36 339 46 373 C 56 407 69 436 87 460 C 105 484 126 502 150 516 C 174 529 201 536 230 536 C 256 536 280 531 303 522 C 325 513 345 500 362 484 L 399 535 L 432 511 L 389 451 C 403 429 415 403 423 374 C 431 344 436 312 436 276 Z M 98 266 C 98 240 99 217 103 197 C 106 176 111 157 117 141 L 326 432 C 314 446 300 458 284 466 C 268 474 250 478 230 478 C 190 478 158 459 134 422 C 110 384 98 332 98 266 Z M 369 268 C 369 293 367 316 363 337 C 359 358 354 377 348 394 L 138 101 C 150 84 165 71 181 63 C 197 54 215 50 235 50 C 276 50 309 69 333 108 C 357 147 369 200 369 268 Z" unicode="ø" />
<glyph horiz-adv-x="468" d="M 59 0 L 59 0 Z M 59 529 L 124 529 L 124 159 C 124 119 134 90 154 73 C 174 55 199 47 230 47 C 258 47 284 57 307 77 C 329 97 341 129 341 173 L 341 529 L 406 529 L 406 0 L 348 0 L 348 93 C 340 66 324 43 299 23 C 273 3 242 -7 204 -7 C 164 -7 130 4 102 28 C 73 51 59 87 59 137 L 59 529 Z M 233 588 L 233 588 Z M 315 588 L 251 588 L 151 757 L 225 757 L 315 588 Z" unicode="ù" />
<glyph horiz-adv-x="468" d="M 59 0 L 59 0 Z M 59 529 L 124 529 L 124 159 C 124 119 134 90 154 73 C 174 55 199 47 230 47 C 258 47 284 57 307 77 C 329 97 341 129 341 173 L 341 529 L 406 529 L 406 0 L 348 0 L 348 93 C 340 66 324 43 299 23 C 273 3 242 -7 204 -7 C 164 -7 130 4 102 28 C 73 51 59 87 59 137 L 59 529 Z M 233 590 L 233 590 Z M 152 590 L 241 759 L 315 759 L 215 590 L 152 590 Z" unicode="ú" />
<glyph horiz-adv-x="468" d="M 59 0 L 59 0 Z M 59 529 L 124 529 L 124 159 C 124 119 134 90 154 73 C 174 55 199 47 230 47 C 258 47 284 57 307 77 C 329 97 341 129 341 173 L 341 529 L 406 529 L 406 0 L 348 0 L 348 93 C 340 66 324 43 299 23 C 273 3 242 -7 204 -7 C 164 -7 130 4 102 28 C 73 51 59 87 59 137 L 59 529 Z M 233 589 L 233 589 Z M 368 589 L 309 589 L 233 712 L 155 589 L 99 589 L 204 759 L 263 759 L 368 589 Z" unicode="û" />
<glyph horiz-adv-x="468" d="M 59 0 L 59 0 Z M 59 529 L 124 529 L 124 159 C 124 119 134 90 154 73 C 174 55 199 47 230 47 C 258 47 284 57 307 77 C 329 97 341 129 341 173 L 341 529 L 406 529 L 406 0 L 348 0 L 348 93 C 340 66 324 43 299 23 C 273 3 242 -7 204 -7 C 164 -7 130 4 102 28 C 73 51 59 87 59 137 L 59 529 Z M 233 589 L 233 589 Z M 336 589 L 283 589 L 283 745 L 336 745 L 336 589 Z M 183 589 L 130 589 L 130 745 L 183 745 L 183 589 Z" unicode="ü" />
<glyph horiz-adv-x="385" d="M 0 0 L 0 0 Z M 386 529 L 182 -97 C 169 -133 151 -159 129 -175 C 106 -191 83 -200 61 -200 C 42 -200 27 -198 15 -194 C 3 -190 -5 -186 -10 -184 L 14 -132 C 16 -134 22 -137 31 -139 C 39 -141 48 -143 57 -143 C 70 -143 83 -137 97 -126 C 110 -114 121 -97 130 -73 L 163 35 L -1 529 L 65 529 L 195 119 L 324 529 L 386 529 Z M 196 590 L 196 590 Z M 115 590 L 204 759 L 278 759 L 178 590 L 115 590 Z" unicode="ý" />
<glyph horiz-adv-x="478" d="M 62 -198 L 62 800 L 124 800 L 124 406 C 131 441 148 471 174 497 C 200 522 233 535 274 535 C 302 535 326 528 348 516 C 370 503 388 485 403 463 C 417 440 428 413 436 381 C 443 349 447 314 447 277 C 447 189 430 120 397 70 C 364 20 321 -5 268 -5 C 230 -5 198 5 174 27 C 149 48 133 74 125 105 L 125 -198 L 62 -198 Z M 248 48 C 287 48 319 67 343 105 C 367 143 380 196 380 264 C 380 326 369 377 348 417 C 327 457 295 477 252 477 C 217 477 186 460 160 428 C 134 396 121 338 121 256 C 121 178 133 123 158 93 C 183 63 213 48 248 48 Z" unicode="þ" />
<glyph horiz-adv-x="385" d="M 0 0 L 0 0 Z M 386 529 L 182 -97 C 169 -133 151 -159 129 -175 C 106 -191 83 -200 61 -200 C 42 -200 27 -198 15 -194 C 3 -190 -5 -186 -10 -184 L 14 -132 C 16 -134 22 -137 31 -139 C 39 -141 48 -143 57 -143 C 70 -143 83 -137 97 -126 C 110 -114 121 -97 130 -73 L 163 35 L -1 529 L 65 529 L 195 119 L 324 529 L 386 529 Z M 196 589 L 196 589 Z M 299 589 L 246 589 L 246 745 L 299 745 L 299 589 Z M 146 589 L 93 589 L 93 745 L 146 745 L 146 589 Z" unicode="ÿ" />
<glyph horiz-adv-x="526" d="M 4 0 L 4 0 Z M 521 0 L 452 0 L 384 210 L 136 210 L 71 0 L 4 0 L 239 734 L 286 734 L 521 0 Z M 373 262 L 259 622 L 148 262 L 373 262 Z M 262 813 L 262 813 Z M 380 813 L 144 813 L 144 868 L 380 868 L 380 813 Z" unicode="Ā" />
<glyph horiz-adv-x="431" d="M 31 0 L 31 0 Z M 375 0 L 317 0 L 317 65 C 301 43 281 26 258 13 C 234 0 205 -6 171 -6 C 131 -6 97 7 71 34 C 44 61 31 100 31 152 C 31 208 48 250 83 277 C 117 304 160 320 210 324 L 313 332 L 313 375 C 313 411 304 437 286 455 C 268 472 243 481 211 481 C 184 481 160 476 139 466 C 117 456 100 445 87 433 L 64 485 C 80 499 102 512 128 522 C 154 532 186 538 222 538 C 268 538 305 525 333 500 C 361 474 375 437 375 387 L 375 0 Z M 314 111 L 314 286 L 218 278 C 184 275 155 264 131 244 C 107 224 96 194 96 152 C 96 116 105 89 125 71 C 145 53 168 44 195 44 C 220 44 243 50 264 63 C 285 75 302 91 314 111 Z M 212 612 L 212 612 Z M 330 612 L 94 612 L 94 667 L 330 667 L 330 612 Z" unicode="ā" />
<glyph horiz-adv-x="526" d="M 4 0 L 4 0 Z M 521 0 L 452 0 L 384 210 L 136 210 L 71 0 L 4 0 L 239 734 L 286 734 L 521 0 Z M 373 262 L 259 622 L 148 262 L 373 262 Z M 262 797 L 262 797 Z M 336 952 L 391 952 C 387 898 374 858 350 834 C 326 809 297 797 262 797 C 226 797 197 809 174 834 C 150 858 137 898 134 952 L 188 952 C 190 921 197 896 208 876 C 219 856 237 846 262 846 C 286 846 304 855 316 875 C 327 894 334 920 336 952 Z" unicode="Ă" />
<glyph horiz-adv-x="431" d="M 31 0 L 31 0 Z M 375 0 L 317 0 L 317 65 C 301 43 281 26 258 13 C 234 0 205 -6 171 -6 C 131 -6 97 7 71 34 C 44 61 31 100 31 152 C 31 208 48 250 83 277 C 117 304 160 320 210 324 L 313 332 L 313 375 C 313 411 304 437 286 455 C 268 472 243 481 211 481 C 184 481 160 476 139 466 C 117 456 100 445 87 433 L 64 485 C 80 499 102 512 128 522 C 154 532 186 538 222 538 C 268 538 305 525 333 500 C 361 474 375 437 375 387 L 375 0 Z M 314 111 L 314 286 L 218 278 C 184 275 155 264 131 244 C 107 224 96 194 96 152 C 96 116 105 89 125 71 C 145 53 168 44 195 44 C 220 44 243 50 264 63 C 285 75 302 91 314 111 Z M 212 596 L 212 596 Z M 286 751 L 341 751 C 337 697 324 657 300 633 C 276 608 247 596 212 596 C 176 596 147 608 124 633 C 100 657 87 697 84 751 L 138 751 C 140 720 147 695 158 675 C 169 655 187 645 212 645 C 236 645 254 654 266 674 C 277 693 284 719 286 751 Z" unicode="ă" />
<glyph horiz-adv-x="526" d="M 4 0 L 4 0 Z M 521 0 L 452 0 L 384 210 L 136 210 L 71 0 L 4 0 L 239 734 L 286 734 L 521 0 Z M 373 262 L 259 622 L 148 262 L 373 262 Z M 448 -9 L 448 -9 Z M 551 -109 L 570 -136 C 551 -155 530 -170 507 -180 C 484 -190 458 -196 430 -196 C 399 -196 375 -188 358 -174 C 340 -160 332 -141 332 -119 C 332 -95 342 -73 363 -52 C 383 -30 415 -12 458 4 L 489 2 C 455 -12 429 -27 412 -43 C 395 -59 387 -76 387 -94 C 387 -110 392 -123 404 -133 C 416 -142 431 -147 450 -147 C 470 -147 489 -143 507 -136 C 524 -129 539 -120 551 -109 Z" unicode="Ą" />
<glyph horiz-adv-x="431" d="M 31 0 L 31 0 Z M 375 0 L 317 0 L 317 65 C 301 43 281 26 258 13 C 234 0 205 -6 171 -6 C 131 -6 97 7 71 34 C 44 61 31 100 31 152 C 31 208 48 250 83 277 C 117 304 160 320 210 324 L 313 332 L 313 375 C 313 411 304 437 286 455 C 268 472 243 481 211 481 C 184 481 160 476 139 466 C 117 456 100 445 87 433 L 64 485 C 80 499 102 512 128 522 C 154 532 186 538 222 538 C 268 538 305 525 333 500 C 361 474 375 437 375 387 L 375 0 Z M 314 111 L 314 286 L 218 278 C 184 275 155 264 131 244 C 107 224 96 194 96 152 C 96 116 105 89 125 71 C 145 53 168 44 195 44 C 220 44 243 50 264 63 C 285 75 302 91 314 111 Z M 313 -9 L 313 -9 Z M 416 -109 L 435 -136 C 416 -155 395 -170 372 -180 C 349 -190 323 -196 295 -196 C 264 -196 240 -188 223 -174 C 205 -160 197 -141 197 -119 C 197 -95 207 -73 228 -52 C 248 -30 280 -12 323 4 L 354 2 C 320 -12 294 -27 277 -43 C 260 -59 252 -76 252 -94 C 252 -110 257 -123 269 -133 C 281 -142 296 -147 315 -147 C 335 -147 354 -143 372 -136 C 389 -129 404 -120 416 -109 Z" unicode="ą" />
<glyph horiz-adv-x="594" d="M 43 0 L 43 0 Z M 324 -9 C 285 -9 248 -1 214 15 C 180 31 150 54 125 86 C 99 117 79 156 65 203 C 50 250 43 304 43 365 C 43 481 68 572 119 639 C 169 705 238 739 324 739 C 382 739 429 726 465 701 C 501 675 528 642 548 602 L 488 573 C 472 603 451 628 426 648 C 400 668 366 678 324 678 C 259 678 208 651 170 599 C 132 546 113 468 113 364 C 113 310 119 263 131 224 C 143 184 160 152 180 127 C 200 101 223 82 249 70 C 275 58 301 52 329 52 C 373 52 410 63 438 85 C 466 107 489 137 506 173 L 562 143 C 541 97 511 60 471 32 C 431 4 382 -9 324 -9 Z M 324 791 L 324 791 Z M 243 791 L 332 960 L 406 960 L 306 791 L 243 791 Z" unicode="Ć" />
<glyph horiz-adv-x="420" d="M 31 0 L 31 0 Z M 361 130 L 400 93 C 393 81 385 70 376 58 C 366 46 355 35 343 25 C 330 15 315 8 298 2 C 280 -4 261 -7 239 -7 C 206 -7 177 0 151 13 C 125 26 104 44 86 68 C 68 92 55 120 45 154 C 35 187 31 223 31 263 C 31 299 35 334 45 368 C 54 401 67 430 85 454 C 103 478 124 498 150 513 C 176 527 205 535 238 535 C 260 535 280 531 298 525 C 316 519 331 510 345 500 C 358 490 369 478 379 465 C 388 452 395 439 401 427 L 351 396 C 341 416 328 435 310 452 C 292 469 268 478 237 478 C 215 478 196 472 179 461 C 161 450 147 435 135 416 C 123 397 113 375 107 349 C 101 323 98 295 98 265 C 98 197 111 145 138 107 C 164 69 200 50 244 50 C 278 50 303 59 321 77 C 338 95 351 113 361 130 Z M 235 590 L 235 590 Z M 154 590 L 243 759 L 317 759 L 217 590 L 154 590 Z" unicode="ć" />
<glyph horiz-adv-x="594" d="M 43 0 L 43 0 Z M 324 -9 C 285 -9 248 -1 214 15 C 180 31 150 54 125 86 C 99 117 79 156 65 203 C 50 250 43 304 43 365 C 43 481 68 572 119 639 C 169 705 238 739 324 739 C 382 739 429 726 465 701 C 501 675 528 642 548 602 L 488 573 C 472 603 451 628 426 648 C 400 668 366 678 324 678 C 259 678 208 651 170 599 C 132 546 113 468 113 364 C 113 310 119 263 131 224 C 143 184 160 152 180 127 C 200 101 223 82 249 70 C 275 58 301 52 329 52 C 373 52 410 63 438 85 C 466 107 489 137 506 173 L 562 143 C 541 97 511 60 471 32 C 431 4 382 -9 324 -9 Z M 324 790 L 324 790 Z M 459 790 L 400 790 L 324 913 L 246 790 L 190 790 L 295 960 L 354 960 L 459 790 Z" unicode="Ĉ" />
<glyph horiz-adv-x="420" d="M 31 0 L 31 0 Z M 361 130 L 400 93 C 393 81 385 70 376 58 C 366 46 355 35 343 25 C 330 15 315 8 298 2 C 280 -4 261 -7 239 -7 C 206 -7 177 0 151 13 C 125 26 104 44 86 68 C 68 92 55 120 45 154 C 35 187 31 223 31 263 C 31 299 35 334 45 368 C 54 401 67 430 85 454 C 103 478 124 498 150 513 C 176 527 205 535 238 535 C 260 535 280 531 298 525 C 316 519 331 510 345 500 C 358 490 369 478 379 465 C 388 452 395 439 401 427 L 351 396 C 341 416 328 435 310 452 C 292 469 268 478 237 478 C 215 478 196 472 179 461 C 161 450 147 435 135 416 C 123 397 113 375 107 349 C 101 323 98 295 98 265 C 98 197 111 145 138 107 C 164 69 200 50 244 50 C 278 50 303 59 321 77 C 338 95 351 113 361 130 Z M 235 589 L 235 589 Z M 370 589 L 311 589 L 235 712 L 157 589 L 101 589 L 206 759 L 265 759 L 370 589 Z" unicode="ĉ" />
<glyph horiz-adv-x="594" d="M 43 0 L 43 0 Z M 324 -9 C 285 -9 248 -1 214 15 C 180 31 150 54 125 86 C 99 117 79 156 65 203 C 50 250 43 304 43 365 C 43 481 68 572 119 639 C 169 705 238 739 324 739 C 382 739 429 726 465 701 C 501 675 528 642 548 602 L 488 573 C 472 603 451 628 426 648 C 400 668 366 678 324 678 C 259 678 208 651 170 599 C 132 546 113 468 113 364 C 113 310 119 263 131 224 C 143 184 160 152 180 127 C 200 101 223 82 249 70 C 275 58 301 52 329 52 C 373 52 410 63 438 85 C 466 107 489 137 506 173 L 562 143 C 541 97 511 60 471 32 C 431 4 382 -9 324 -9 Z M 324 794 L 324 794 Z M 354 795 L 294 794 L 294 919 L 354 919 L 354 795 Z" unicode="Ċ" />
<glyph horiz-adv-x="420" d="M 31 0 L 31 0 Z M 361 130 L 400 93 C 393 81 385 70 376 58 C 366 46 355 35 343 25 C 330 15 315 8 298 2 C 280 -4 261 -7 239 -7 C 206 -7 177 0 151 13 C 125 26 104 44 86 68 C 68 92 55 120 45 154 C 35 187 31 223 31 263 C 31 299 35 334 45 368 C 54 401 67 430 85 454 C 103 478 124 498 150 513 C 176 527 205 535 238 535 C 260 535 280 531 298 525 C 316 519 331 510 345 500 C 358 490 369 478 379 465 C 388 452 395 439 401 427 L 351 396 C 341 416 328 435 310 452 C 292 469 268 478 237 478 C 215 478 196 472 179 461 C 161 450 147 435 135 416 C 123 397 113 375 107 349 C 101 323 98 295 98 265 C 98 197 111 145 138 107 C 164 69 200 50 244 50 C 278 50 303 59 321 77 C 338 95 351 113 361 130 Z M 235 593 L 235 593 Z M 265 594 L 205 593 L 205 718 L 265 718 L 265 594 Z" unicode="ċ" />
<glyph horiz-adv-x="594" d="M 43 0 L 43 0 Z M 324 -9 C 285 -9 248 -1 214 15 C 180 31 150 54 125 86 C 99 117 79 156 65 203 C 50 250 43 304 43 365 C 43 481 68 572 119 639 C 169 705 238 739 324 739 C 382 739 429 726 465 701 C 501 675 528 642 548 602 L 488 573 C 472 603 451 628 426 648 C 400 668 366 678 324 678 C 259 678 208 651 170 599 C 132 546 113 468 113 364 C 113 310 119 263 131 224 C 143 184 160 152 180 127 C 200 101 223 82 249 70 C 275 58 301 52 329 52 C 373 52 410 63 438 85 C 466 107 489 137 506 173 L 562 143 C 541 97 511 60 471 32 C 431 4 382 -9 324 -9 Z M 324 790 L 324 790 Z M 190 960 L 248 960 L 325 836 L 402 960 L 459 960 L 354 790 L 295 790 L 190 960 Z" unicode="Č" />
<glyph horiz-adv-x="420" d="M 31 0 L 31 0 Z M 361 130 L 400 93 C 393 81 385 70 376 58 C 366 46 355 35 343 25 C 330 15 315 8 298 2 C 280 -4 261 -7 239 -7 C 206 -7 177 0 151 13 C 125 26 104 44 86 68 C 68 92 55 120 45 154 C 35 187 31 223 31 263 C 31 299 35 334 45 368 C 54 401 67 430 85 454 C 103 478 124 498 150 513 C 176 527 205 535 238 535 C 260 535 280 531 298 525 C 316 519 331 510 345 500 C 358 490 369 478 379 465 C 388 452 395 439 401 427 L 351 396 C 341 416 328 435 310 452 C 292 469 268 478 237 478 C 215 478 196 472 179 461 C 161 450 147 435 135 416 C 123 397 113 375 107 349 C 101 323 98 295 98 265 C 98 197 111 145 138 107 C 164 69 200 50 244 50 C 278 50 303 59 321 77 C 338 95 351 113 361 130 Z M 235 589 L 235 589 Z M 101 759 L 159 759 L 236 635 L 313 759 L 370 759 L 265 589 L 206 589 L 101 759 Z" unicode="č" />
<glyph horiz-adv-x="606" d="M 80 0 L 80 0 Z M 80 0 L 80 730 L 246 730 C 296 730 340 721 380 704 C 419 687 452 663 479 633 C 506 602 527 565 541 521 C 555 477 563 428 563 374 C 563 321 556 272 542 226 C 528 180 508 141 481 108 C 454 74 420 48 379 29 C 338 9 291 0 237 0 L 80 0 Z M 149 58 L 234 58 C 279 58 318 65 350 81 C 382 97 409 118 430 146 C 450 174 466 207 476 246 C 486 284 491 327 491 373 C 491 468 469 542 425 594 C 381 646 322 672 246 672 L 149 672 L 149 58 Z M 284 790 L 284 790 Z M 150 960 L 208 960 L 285 836 L 362 960 L 419 960 L 314 790 L 255 790 L 150 960 Z" unicode="Ď" />
<glyph horiz-adv-x="489" d="M 31 0 L 31 0 Z M 215 -7 C 187 -7 161 0 139 13 C 116 26 97 45 81 69 C 65 93 52 121 44 154 C 35 187 31 223 31 262 C 31 302 35 339 45 373 C 54 407 67 435 84 459 C 100 483 120 501 143 515 C 165 528 190 535 217 535 C 254 535 286 521 312 495 C 338 468 356 437 365 401 L 365 800 L 426 800 L 426 0 L 368 0 L 368 123 C 364 108 359 93 351 78 C 343 62 332 48 320 36 C 307 23 292 13 274 5 C 256 -3 237 -7 215 -7 Z M 232 48 C 272 48 304 67 329 106 C 353 145 366 199 366 269 C 366 340 352 393 325 427 C 297 461 267 478 233 478 C 193 478 160 459 135 422 C 110 384 98 332 98 265 C 98 199 109 146 133 107 C 157 67 190 48 232 48 Z M 543 617 L 539 486 L 485 486 L 481 617 L 481 730 L 543 730 L 543 617 Z" unicode="ď" />
<glyph horiz-adv-x="606" d="M 27 0 L 27 0 Z M 563 365 C 563 314 556 266 542 222 C 528 178 508 139 481 106 C 454 73 420 47 379 28 C 338 9 291 0 237 0 L 80 0 L 80 334 L 27 334 L 27 388 L 80 388 L 80 730 L 246 730 C 296 730 340 721 380 704 C 419 687 452 663 479 631 C 506 599 527 561 541 516 C 555 471 563 421 563 365 Z M 148 54 L 231 54 C 278 54 318 62 351 78 C 384 94 411 115 432 143 C 452 171 467 203 477 241 C 486 279 491 319 491 363 C 491 463 469 541 426 595 C 382 649 322 676 246 676 L 148 676 L 148 388 L 311 388 L 311 334 L 148 334 L 148 54 Z" unicode="Đ" />
<glyph horiz-adv-x="489" d="M 368 123 C 364 108 359 93 351 78 C 343 62 332 48 320 36 C 307 23 292 13 274 5 C 256 -3 237 -7 215 -7 C 187 -7 161 0 139 13 C 116 26 97 45 81 69 C 65 93 52 121 44 154 C 35 187 31 223 31 262 C 31 302 35 339 45 373 C 54 407 67 435 84 459 C 100 483 120 501 143 515 C 165 528 190 535 217 535 C 254 535 286 521 312 495 C 338 468 356 437 365 401 L 365 637 L 238 637 L 238 693 L 365 693 L 365 800 L 426 800 L 426 693 L 487 693 L 487 637 L 426 637 L 426 0 L 368 0 L 368 123 Z M 232 48 C 272 48 304 67 329 106 C 353 145 366 199 366 269 C 366 340 352 393 325 427 C 297 461 267 478 233 478 C 193 478 160 459 135 422 C 110 384 98 332 98 265 C 98 199 109 146 133 107 C 157 67 190 48 232 48 Z" unicode="đ" />
<glyph horiz-adv-x="451" d="M 80 0 L 80 0 Z M 419 0 L 80 0 L 80 730 L 402 730 L 402 669 L 148 669 L 148 393 L 393 393 L 393 334 L 148 334 L 148 61 L 419 61 L 419 0 Z M 245 813 L 245 813 Z M 363 813 L 127 813 L 127 868 L 363 868 L 363 813 Z" unicode="Ē" />
<glyph horiz-adv-x="455" d="M 31 0 L 31 0 Z M 235 -7 C 174 -7 125 17 87 67 C 49 116 31 181 31 263 C 31 302 36 338 46 372 C 56 406 70 435 88 459 C 106 483 127 501 151 515 C 175 528 202 535 231 535 C 291 535 338 509 373 457 C 408 405 426 336 426 250 L 96 250 C 96 192 109 145 135 107 C 160 69 195 50 241 50 C 275 50 302 57 323 73 C 344 88 361 105 375 123 L 408 85 C 391 62 369 41 342 22 C 314 2 279 -7 235 -7 Z M 94 296 L 362 296 C 361 351 348 396 324 430 C 300 464 269 481 231 481 C 193 481 161 463 136 429 C 111 395 97 350 94 296 Z M 231 612 L 231 612 Z M 349 612 L 113 612 L 113 667 L 349 667 L 349 612 Z" unicode="ē" />
<glyph horiz-adv-x="451" d="M 80 0 L 80 0 Z M 419 0 L 80 0 L 80 730 L 402 730 L 402 669 L 148 669 L 148 393 L 393 393 L 393 334 L 148 334 L 148 61 L 419 61 L 419 0 Z M 245 797 L 245 797 Z M 319 952 L 374 952 C 370 898 357 858 333 834 C 309 809 280 797 245 797 C 209 797 180 809 157 834 C 133 858 120 898 117 952 L 171 952 C 173 921 180 896 191 876 C 202 856 220 846 245 846 C 269 846 287 855 299 875 C 310 894 317 920 319 952 Z" unicode="Ĕ" />
<glyph horiz-adv-x="455" d="M 31 0 L 31 0 Z M 235 -7 C 174 -7 125 17 87 67 C 49 116 31 181 31 263 C 31 302 36 338 46 372 C 56 406 70 435 88 459 C 106 483 127 501 151 515 C 175 528 202 535 231 535 C 291 535 338 509 373 457 C 408 405 426 336 426 250 L 96 250 C 96 192 109 145 135 107 C 160 69 195 50 241 50 C 275 50 302 57 323 73 C 344 88 361 105 375 123 L 408 85 C 391 62 369 41 342 22 C 314 2 279 -7 235 -7 Z M 94 296 L 362 296 C 361 351 348 396 324 430 C 300 464 269 481 231 481 C 193 481 161 463 136 429 C 111 395 97 350 94 296 Z M 231 596 L 231 596 Z M 305 751 L 360 751 C 356 697 343 657 319 633 C 295 608 266 596 231 596 C 195 596 166 608 143 633 C 119 657 106 697 103 751 L 157 751 C 159 720 166 695 177 675 C 188 655 206 645 231 645 C 255 645 273 654 285 674 C 296 693 303 719 305 751 Z" unicode="ĕ" />
<glyph horiz-adv-x="451" d="M 80 0 L 80 0 Z M 419 0 L 80 0 L 80 730 L 402 730 L 402 669 L 148 669 L 148 393 L 393 393 L 393 334 L 148 334 L 148 61 L 419 61 L 419 0 Z M 245 794 L 245 794 Z M 275 795 L 215 794 L 215 919 L 275 919 L 275 795 Z" unicode="Ė" />
<glyph horiz-adv-x="455" d="M 31 0 L 31 0 Z M 235 -7 C 174 -7 125 17 87 67 C 49 116 31 181 31 263 C 31 302 36 338 46 372 C 56 406 70 435 88 459 C 106 483 127 501 151 515 C 175 528 202 535 231 535 C 291 535 338 509 373 457 C 408 405 426 336 426 250 L 96 250 C 96 192 109 145 135 107 C 160 69 195 50 241 50 C 275 50 302 57 323 73 C 344 88 361 105 375 123 L 408 85 C 391 62 369 41 342 22 C 314 2 279 -7 235 -7 Z M 94 296 L 362 296 C 361 351 348 396 324 430 C 300 464 269 481 231 481 C 193 481 161 463 136 429 C 111 395 97 350 94 296 Z M 231 593 L 231 593 Z M 261 594 L 201 593 L 201 718 L 261 718 L 261 594 Z" unicode="ė" />
<glyph horiz-adv-x="451" d="M 80 0 L 80 0 Z M 419 0 L 80 0 L 80 730 L 402 730 L 402 669 L 148 669 L 148 393 L 393 393 L 393 334 L 148 334 L 148 61 L 419 61 L 419 0 Z M 378 -9 L 378 -9 Z M 481 -109 L 500 -136 C 481 -155 460 -170 437 -180 C 414 -190 388 -196 360 -196 C 329 -196 305 -188 288 -174 C 270 -160 262 -141 262 -119 C 262 -95 272 -73 293 -52 C 313 -30 345 -12 388 4 L 419 2 C 385 -12 359 -27 342 -43 C 325 -59 317 -76 317 -94 C 317 -110 322 -123 334 -133 C 346 -142 361 -147 380 -147 C 400 -147 419 -143 437 -136 C 454 -129 469 -120 481 -109 Z" unicode="Ę" />
<glyph horiz-adv-x="455" d="M 31 0 L 31 0 Z M 235 -7 C 174 -7 125 17 87 67 C 49 116 31 181 31 263 C 31 302 36 338 46 372 C 56 406 70 435 88 459 C 106 483 127 501 151 515 C 175 528 202 535 231 535 C 291 535 338 509 373 457 C 408 405 426 336 426 250 L 96 250 C 96 192 109 145 135 107 C 160 69 195 50 241 50 C 275 50 302 57 323 73 C 344 88 361 105 375 123 L 408 85 C 391 62 369 41 342 22 C 314 2 279 -7 235 -7 Z M 94 296 L 362 296 C 361 351 348 396 324 430 C 300 464 269 481 231 481 C 193 481 161 463 136 429 C 111 395 97 350 94 296 Z M 256 -9 L 256 -9 Z M 359 -109 L 378 -136 C 359 -155 338 -170 315 -180 C 292 -190 266 -196 238 -196 C 207 -196 183 -188 166 -174 C 148 -160 140 -141 140 -119 C 140 -95 150 -73 171 -52 C 191 -30 223 -12 266 4 L 297 2 C 263 -12 237 -27 220 -43 C 203 -59 195 -76 195 -94 C 195 -110 200 -123 212 -133 C 224 -142 239 -147 258 -147 C 278 -147 297 -143 315 -136 C 332 -129 347 -120 359 -109 Z" unicode="ę" />
<glyph horiz-adv-x="451" d="M 80 0 L 80 0 Z M 419 0 L 80 0 L 80 730 L 402 730 L 402 669 L 148 669 L 148 393 L 393 393 L 393 334 L 148 334 L 148 61 L 419 61 L 419 0 Z M 245 790 L 245 790 Z M 111 960 L 169 960 L 246 836 L 323 960 L 380 960 L 275 790 L 216 790 L 111 960 Z" unicode="Ě" />
<glyph horiz-adv-x="455" d="M 31 0 L 31 0 Z M 235 -7 C 174 -7 125 17 87 67 C 49 116 31 181 31 263 C 31 302 36 338 46 372 C 56 406 70 435 88 459 C 106 483 127 501 151 515 C 175 528 202 535 231 535 C 291 535 338 509 373 457 C 408 405 426 336 426 250 L 96 250 C 96 192 109 145 135 107 C 160 69 195 50 241 50 C 275 50 302 57 323 73 C 344 88 361 105 375 123 L 408 85 C 391 62 369 41 342 22 C 314 2 279 -7 235 -7 Z M 94 296 L 362 296 C 361 351 348 396 324 430 C 300 464 269 481 231 481 C 193 481 161 463 136 429 C 111 395 97 350 94 296 Z M 231 589 L 231 589 Z M 97 759 L 155 759 L 232 635 L 309 759 L 366 759 L 261 589 L 202 589 L 97 759 Z" unicode="ě" />
<glyph horiz-adv-x="630" d="M 43 0 L 43 0 Z M 332 352 L 583 352 L 583 129 C 560 86 527 52 484 28 C 440 3 390 -9 333 -9 C 293 -9 255 0 220 17 C 184 34 154 59 128 91 C 102 123 81 163 66 209 C 50 255 43 307 43 365 C 43 421 50 473 65 519 C 79 565 99 605 125 637 C 151 669 181 693 217 711 C 253 729 292 738 334 738 C 392 738 438 726 473 703 C 508 680 535 653 555 621 L 503 579 C 486 605 464 628 438 647 C 411 666 377 676 336 676 C 271 676 218 649 176 596 C 134 542 113 465 113 363 C 113 313 118 268 130 229 C 142 190 158 157 178 130 C 198 103 221 83 248 69 C 274 55 303 48 334 48 C 376 48 413 56 446 73 C 478 90 503 115 520 148 L 520 293 L 332 293 L 332 352 Z M 330 790 L 330 790 Z M 465 790 L 406 790 L 330 913 L 252 790 L 196 790 L 301 960 L 360 960 L 465 790 Z" unicode="Ĝ" />
<glyph horiz-adv-x="485" d="M 32 0 L 32 0 Z M 215 4 C 160 4 116 28 82 76 C 48 124 32 188 32 267 C 32 348 49 413 84 462 C 118 510 162 535 215 535 C 253 535 285 522 312 497 C 339 472 357 443 367 409 L 367 529 L 425 529 L 425 29 C 425 -10 418 -44 406 -73 C 394 -101 377 -125 357 -144 C 337 -162 314 -176 289 -185 C 263 -194 238 -199 212 -199 C 175 -199 146 -195 125 -189 C 103 -183 87 -176 76 -170 L 100 -118 C 110 -123 124 -128 142 -134 C 159 -139 181 -142 208 -142 C 228 -142 248 -138 267 -130 C 285 -122 302 -111 316 -97 C 330 -82 342 -64 350 -42 C 358 -20 363 5 363 35 L 363 141 C 359 124 352 107 344 91 C 335 75 324 60 312 47 C 300 34 285 24 269 16 C 252 8 234 4 215 4 Z M 233 59 C 267 59 297 76 324 111 C 351 146 365 201 365 275 C 365 309 361 338 353 364 C 345 389 336 410 324 427 C 312 443 297 456 281 464 C 265 472 248 477 232 477 C 192 477 159 458 135 421 C 111 384 99 333 99 267 C 99 203 110 152 134 115 C 157 77 190 59 233 59 Z M 233 589 L 233 589 Z M 368 589 L 309 589 L 233 712 L 155 589 L 99 589 L 204 759 L 263 759 L 368 589 Z" unicode="ĝ" />
<glyph horiz-adv-x="630" d="M 43 0 L 43 0 Z M 332 352 L 583 352 L 583 129 C 560 86 527 52 484 28 C 440 3 390 -9 333 -9 C 293 -9 255 0 220 17 C 184 34 154 59 128 91 C 102 123 81 163 66 209 C 50 255 43 307 43 365 C 43 421 50 473 65 519 C 79 565 99 605 125 637 C 151 669 181 693 217 711 C 253 729 292 738 334 738 C 392 738 438 726 473 703 C 508 680 535 653 555 621 L 503 579 C 486 605 464 628 438 647 C 411 666 377 676 336 676 C 271 676 218 649 176 596 C 134 542 113 465 113 363 C 113 313 118 268 130 229 C 142 190 158 157 178 130 C 198 103 221 83 248 69 C 274 55 303 48 334 48 C 376 48 413 56 446 73 C 478 90 503 115 520 148 L 520 293 L 332 293 L 332 352 Z M 330 797 L 330 797 Z M 404 952 L 459 952 C 455 898 442 858 418 834 C 394 809 365 797 330 797 C 294 797 265 809 242 834 C 218 858 205 898 202 952 L 256 952 C 258 921 265 896 276 876 C 287 856 305 846 330 846 C 354 846 372 855 384 875 C 395 894 402 920 404 952 Z" unicode="Ğ" />
<glyph horiz-adv-x="485" d="M 32 0 L 32 0 Z M 215 4 C 160 4 116 28 82 76 C 48 124 32 188 32 267 C 32 348 49 413 84 462 C 118 510 162 535 215 535 C 253 535 285 522 312 497 C 339 472 357 443 367 409 L 367 529 L 425 529 L 425 29 C 425 -10 418 -44 406 -73 C 394 -101 377 -125 357 -144 C 337 -162 314 -176 289 -185 C 263 -194 238 -199 212 -199 C 175 -199 146 -195 125 -189 C 103 -183 87 -176 76 -170 L 100 -118 C 110 -123 124 -128 142 -134 C 159 -139 181 -142 208 -142 C 228 -142 248 -138 267 -130 C 285 -122 302 -111 316 -97 C 330 -82 342 -64 350 -42 C 358 -20 363 5 363 35 L 363 141 C 359 124 352 107 344 91 C 335 75 324 60 312 47 C 300 34 285 24 269 16 C 252 8 234 4 215 4 Z M 233 59 C 267 59 297 76 324 111 C 351 146 365 201 365 275 C 365 309 361 338 353 364 C 345 389 336 410 324 427 C 312 443 297 456 281 464 C 265 472 248 477 232 477 C 192 477 159 458 135 421 C 111 384 99 333 99 267 C 99 203 110 152 134 115 C 157 77 190 59 233 59 Z M 233 596 L 233 596 Z M 307 751 L 362 751 C 358 697 345 657 321 633 C 297 608 268 596 233 596 C 197 596 168 608 145 633 C 121 657 108 697 105 751 L 159 751 C 161 720 168 695 179 675 C 190 655 208 645 233 645 C 257 645 275 654 287 674 C 298 693 305 719 307 751 Z" unicode="ğ" />
<glyph horiz-adv-x="630" d="M 43 0 L 43 0 Z M 332 352 L 583 352 L 583 129 C 560 86 527 52 484 28 C 440 3 390 -9 333 -9 C 293 -9 255 0 220 17 C 184 34 154 59 128 91 C 102 123 81 163 66 209 C 50 255 43 307 43 365 C 43 421 50 473 65 519 C 79 565 99 605 125 637 C 151 669 181 693 217 711 C 253 729 292 738 334 738 C 392 738 438 726 473 703 C 508 680 535 653 555 621 L 503 579 C 486 605 464 628 438 647 C 411 666 377 676 336 676 C 271 676 218 649 176 596 C 134 542 113 465 113 363 C 113 313 118 268 130 229 C 142 190 158 157 178 130 C 198 103 221 83 248 69 C 274 55 303 48 334 48 C 376 48 413 56 446 73 C 478 90 503 115 520 148 L 520 293 L 332 293 L 332 352 Z M 330 794 L 330 794 Z M 360 795 L 300 794 L 300 919 L 360 919 L 360 795 Z" unicode="Ġ" />
<glyph horiz-adv-x="485" d="M 32 0 L 32 0 Z M 215 4 C 160 4 116 28 82 76 C 48 124 32 188 32 267 C 32 348 49 413 84 462 C 118 510 162 535 215 535 C 253 535 285 522 312 497 C 339 472 357 443 367 409 L 367 529 L 425 529 L 425 29 C 425 -10 418 -44 406 -73 C 394 -101 377 -125 357 -144 C 337 -162 314 -176 289 -185 C 263 -194 238 -199 212 -199 C 175 -199 146 -195 125 -189 C 103 -183 87 -176 76 -170 L 100 -118 C 110 -123 124 -128 142 -134 C 159 -139 181 -142 208 -142 C 228 -142 248 -138 267 -130 C 285 -122 302 -111 316 -97 C 330 -82 342 -64 350 -42 C 358 -20 363 5 363 35 L 363 141 C 359 124 352 107 344 91 C 335 75 324 60 312 47 C 300 34 285 24 269 16 C 252 8 234 4 215 4 Z M 233 59 C 267 59 297 76 324 111 C 351 146 365 201 365 275 C 365 309 361 338 353 364 C 345 389 336 410 324 427 C 312 443 297 456 281 464 C 265 472 248 477 232 477 C 192 477 159 458 135 421 C 111 384 99 333 99 267 C 99 203 110 152 134 115 C 157 77 190 59 233 59 Z M 233 593 L 233 593 Z M 263 594 L 203 593 L 203 718 L 263 718 L 263 594 Z" unicode="ġ" />
<glyph horiz-adv-x="630" d="M 43 0 L 43 0 Z M 332 352 L 583 352 L 583 129 C 560 86 527 52 484 28 C 440 3 390 -9 333 -9 C 293 -9 255 0 220 17 C 184 34 154 59 128 91 C 102 123 81 163 66 209 C 50 255 43 307 43 365 C 43 421 50 473 65 519 C 79 565 99 605 125 637 C 151 669 181 693 217 711 C 253 729 292 738 334 738 C 392 738 438 726 473 703 C 508 680 535 653 555 621 L 503 579 C 486 605 464 628 438 647 C 411 666 377 676 336 676 C 271 676 218 649 176 596 C 134 542 113 465 113 363 C 113 313 118 268 130 229 C 142 190 158 157 178 130 C 198 103 221 83 248 69 C 274 55 303 48 334 48 C 376 48 413 56 446 73 C 478 90 503 115 520 148 L 520 293 L 332 293 L 332 352 Z" unicode="Ģ" />
<glyph horiz-adv-x="485" d="M 32 0 L 32 0 Z M 215 4 C 160 4 116 28 82 76 C 48 124 32 188 32 267 C 32 348 49 413 84 462 C 118 510 162 535 215 535 C 253 535 285 522 312 497 C 339 472 357 443 367 409 L 367 529 L 425 529 L 425 29 C 425 -10 418 -44 406 -73 C 394 -101 377 -125 357 -144 C 337 -162 314 -176 289 -185 C 263 -194 238 -199 212 -199 C 175 -199 146 -195 125 -189 C 103 -183 87 -176 76 -170 L 100 -118 C 110 -123 124 -128 142 -134 C 159 -139 181 -142 208 -142 C 228 -142 248 -138 267 -130 C 285 -122 302 -111 316 -97 C 330 -82 342 -64 350 -42 C 358 -20 363 5 363 35 L 363 141 C 359 124 352 107 344 91 C 335 75 324 60 312 47 C 300 34 285 24 269 16 C 252 8 234 4 215 4 Z M 233 59 C 267 59 297 76 324 111 C 351 146 365 201 365 275 C 365 309 361 338 353 364 C 345 389 336 410 324 427 C 312 443 297 456 281 464 C 265 472 248 477 232 477 C 192 477 159 458 135 421 C 111 384 99 333 99 267 C 99 203 110 152 134 115 C 157 77 190 59 233 59 Z" unicode="ģ" />
<glyph horiz-adv-x="611" d="M 80 0 L 80 0 Z M 531 0 L 461 0 L 461 332 L 150 332 L 150 0 L 80 0 L 80 730 L 150 730 L 150 390 L 461 390 L 461 730 L 531 730 L 531 0 Z M 304 790 L 304 790 Z M 439 790 L 380 790 L 304 913 L 226 790 L 170 790 L 275 960 L 334 960 L 439 790 Z" unicode="Ĥ" />
<glyph horiz-adv-x="468" d="M 62 0 L 62 0 Z M 409 0 L 344 0 L 344 387 C 344 418 334 441 316 457 C 297 473 273 481 245 481 C 215 481 188 471 164 453 C 139 434 127 403 127 360 L 127 0 L 62 0 L 62 800 L 123 800 L 123 443 C 129 469 145 491 170 509 C 195 527 227 536 266 536 C 306 536 339 525 367 504 C 395 482 409 449 409 403 L 409 0 Z M 251 860 L 251 860 Z M 386 860 L 327 860 L 251 983 L 173 860 L 117 860 L 222 1030 L 281 1030 L 386 860 Z" unicode="ĥ" />
<glyph horiz-adv-x="611" d="M 150 332 L 150 0 L 80 0 L 80 553 L 6 553 L 6 609 L 80 609 L 80 730 L 150 730 L 150 609 L 461 609 L 461 730 L 531 730 L 531 609 L 605 609 L 605 553 L 531 553 L 531 0 L 461 0 L 461 332 L 150 332 Z M 150 390 L 461 390 L 461 553 L 150 553 L 150 390 Z" unicode="Ħ" />
<glyph horiz-adv-x="468" d="M 127 360 L 127 0 L 62 0 L 62 637 L 8 637 L 8 693 L 62 693 L 62 800 L 123 800 L 123 693 L 254 693 L 254 637 L 123 637 L 123 443 C 129 469 145 491 170 509 C 195 527 227 536 266 536 C 306 536 339 525 367 504 C 395 482 409 449 409 403 L 409 0 L 344 0 L 344 387 C 344 418 334 441 316 457 C 297 473 273 481 245 481 C 215 481 188 471 164 453 C 139 434 127 403 127 360 Z" unicode="ħ" />
<glyph horiz-adv-x="238" d="M 0 0 L 0 0 Z M 155 0 L 84 0 L 84 730 L 155 730 L 155 0 Z M 119 798 L 119 798 Z M 218 926 L 268 926 C 268 882 262 849 250 829 C 238 808 222 798 202 798 C 184 798 169 802 155 811 C 141 820 130 829 120 838 C 109 846 99 855 89 863 C 79 871 69 876 59 876 C 48 876 39 869 31 857 C 23 844 20 826 20 803 L -30 803 C -30 845 -22 877 -6 898 C 10 919 27 930 46 930 C 61 930 75 925 87 917 C 99 908 112 898 124 888 C 133 879 142 871 152 864 C 162 856 172 853 182 853 C 192 853 200 859 207 872 C 214 884 218 902 218 926 Z" unicode="Ĩ" />
<glyph horiz-adv-x="194" d="M 0 0 L 0 0 Z M 129 0 L 65 0 L 65 529 L 129 529 L 129 0 Z M 97 597 L 97 597 Z M 196 725 L 246 725 C 246 681 240 648 228 628 C 216 607 200 597 180 597 C 162 597 147 601 133 610 C 119 619 108 628 98 637 C 87 645 77 654 67 662 C 57 670 47 675 37 675 C 26 675 17 668 9 656 C 1 643 -2 625 -2 602 L -52 602 C -52 644 -44 676 -28 697 C -12 718 5 729 24 729 C 39 729 53 724 65 716 C 77 707 90 697 102 687 C 111 678 120 670 130 663 C 140 655 150 652 160 652 C 170 652 178 658 185 671 C 192 683 196 701 196 725 Z" unicode="ĩ" />
<glyph horiz-adv-x="238" d="M 1 0 L 1 0 Z M 155 0 L 84 0 L 84 730 L 155 730 L 155 0 Z M 119 813 L 119 813 Z M 237 813 L 1 813 L 1 868 L 237 868 L 237 813 Z" unicode="Ī" />
<glyph horiz-adv-x="194" d="M 0 0 L 0 0 Z M 129 0 L 65 0 L 65 529 L 129 529 L 129 0 Z M 97 612 L 97 612 Z M 215 612 L -21 612 L -21 667 L 215 667 L 215 612 Z" unicode="ī" />
<glyph horiz-adv-x="238" d="M 0 0 L 0 0 Z M 155 0 L 84 0 L 84 730 L 155 730 L 155 0 Z M 119 797 L 119 797 Z M 193 952 L 248 952 C 244 898 231 858 207 834 C 183 809 154 797 119 797 C 83 797 54 809 31 834 C 7 858 -5 898 -9 952 L 45 952 C 47 921 54 896 65 876 C 76 856 94 846 119 846 C 143 846 161 855 173 875 C 184 894 191 920 193 952 Z" unicode="Ĭ" />
<glyph horiz-adv-x="194" d="M 0 0 L 0 0 Z M 129 0 L 65 0 L 65 529 L 129 529 L 129 0 Z M 97 596 L 97 596 Z M 171 751 L 226 751 C 222 697 209 657 185 633 C 161 608 132 596 97 596 C 61 596 32 608 9 633 C -14 657 -27 697 -31 751 L 23 751 C 25 720 32 695 43 675 C 54 655 72 645 97 645 C 121 645 139 654 151 674 C 162 693 169 719 171 751 Z" unicode="ĭ" />
<glyph horiz-adv-x="238" d="M 0 0 L 0 0 Z M 155 0 L 84 0 L 84 730 L 155 730 L 155 0 Z M 82 -9 L 82 -9 Z M 185 -109 L 204 -136 C 185 -155 164 -170 141 -180 C 118 -190 92 -196 64 -196 C 33 -196 9 -188 -8 -174 C -25 -160 -34 -141 -34 -119 C -34 -95 -23 -73 -3 -52 C 17 -30 49 -12 92 4 L 123 2 C 89 -12 63 -27 46 -43 C 29 -59 21 -76 21 -94 C 21 -110 26 -123 38 -133 C 50 -142 65 -147 84 -147 C 104 -147 123 -143 141 -136 C 158 -129 173 -120 185 -109 Z" unicode="Į" />
<glyph horiz-adv-x="194" d="M 0 0 L 0 0 Z M 62 634 L 62 705 L 132 705 L 132 634 L 62 634 Z M 65 0 L 65 529 L 129 529 L 129 0 L 65 0 Z M 57 -9 L 57 -9 Z M 160 -109 L 179 -136 C 160 -155 139 -170 116 -180 C 93 -190 67 -196 39 -196 C 8 -196 -15 -188 -33 -174 C -50 -160 -59 -141 -59 -119 C -59 -95 -48 -73 -28 -52 C -7 -30 24 -12 67 4 L 98 2 C 64 -12 38 -27 21 -43 C 4 -59 -4 -76 -4 -94 C -4 -110 1 -123 13 -133 C 25 -142 40 -147 59 -147 C 79 -147 98 -143 116 -136 C 133 -129 148 -120 160 -109 Z" unicode="į" />
<glyph horiz-adv-x="238" d="M 84 0 L 84 0 Z M 155 0 L 84 0 L 84 730 L 155 730 L 155 0 Z M 119 794 L 119 794 Z M 149 795 L 89 794 L 89 919 L 149 919 L 149 795 Z" unicode="İ" />
<glyph horiz-adv-x="194" d="M 129 0 L 65 0 L 65 529 L 129 529 L 129 0 Z" unicode="ı" />
<glyph horiz-adv-x="528" d="M 84 0 L 84 0 Z M 155 0 L 84 0 L 84 730 L 155 730 L 155 0 Z M 457 730 L 457 185 C 457 158 453 133 445 109 C 437 85 426 65 412 47 C 397 29 379 16 357 6 C 335 -4 311 -9 283 -9 C 270 -9 256 -7 240 -5 C 224 -2 211 1 203 6 L 221 64 C 226 61 234 58 244 56 C 254 54 265 53 276 53 C 311 53 338 66 358 93 C 377 120 387 152 387 190 L 387 730 L 457 730 Z" unicode="Ĳ" />
<glyph horiz-adv-x="379" d="M 62 0 L 62 0 Z M 62 634 L 62 705 L 132 705 L 132 634 L 62 634 Z M 65 0 L 65 529 L 129 529 L 129 0 L 65 0 Z M 319 634 L 251 634 L 251 705 L 319 705 L 319 634 Z M 317 529 L 317 -56 C 317 -91 307 -118 287 -138 C 267 -158 244 -168 216 -168 C 201 -168 187 -165 174 -161 C 160 -157 151 -152 147 -148 L 168 -103 C 172 -105 177 -107 184 -109 C 190 -111 198 -112 207 -112 C 219 -112 230 -106 239 -96 C 248 -86 253 -71 253 -53 L 253 529 L 317 529 Z" unicode="ĳ" />
<glyph horiz-adv-x="330" d="M 0 0 L 0 0 Z M 254 730 L 254 185 C 254 158 250 133 242 109 C 234 85 223 65 209 47 C 194 29 176 16 154 6 C 132 -4 108 -9 80 -9 C 67 -9 53 -7 37 -5 C 21 -2 8 1 0 6 L 18 64 C 23 61 31 58 41 56 C 51 54 62 53 73 53 C 108 53 135 66 155 93 C 174 120 184 152 184 190 L 184 730 L 254 730 Z M 218 790 L 218 790 Z M 353 790 L 294 790 L 218 913 L 140 790 L 84 790 L 189 960 L 248 960 L 353 790 Z" unicode="Ĵ" />
<glyph horiz-adv-x="205" d="M 0 0 L 0 0 Z M 143 529 L 143 -59 C 143 -100 131 -132 107 -155 C 83 -177 55 -189 25 -189 C 11 -189 -2 -186 -15 -182 C -28 -178 -37 -173 -43 -169 L -22 -124 C -18 -126 -12 -128 -6 -130 C 0 -132 8 -133 17 -133 C 31 -133 45 -126 59 -112 C 72 -98 79 -79 79 -54 L 79 529 L 143 529 Z M 110 589 L 110 589 Z M 245 589 L 186 589 L 110 712 L 32 589 L -24 589 L 81 759 L 140 759 L 245 589 Z" unicode="ĵ" />
<glyph horiz-adv-x="534" d="M 80 0 L 80 0 Z M 532 0 L 452 0 L 218 344 L 150 258 L 150 0 L 80 0 L 80 730 L 150 730 L 150 348 L 429 730 L 502 730 L 262 402 L 532 0 Z M 271 -77 L 271 -77 Z M 346 -77 C 342 -123 331 -168 313 -212 C 294 -256 272 -292 247 -322 L 197 -299 C 205 -287 213 -273 222 -257 C 231 -240 239 -222 247 -202 C 254 -182 260 -162 266 -140 C 271 -118 275 -97 277 -77 L 346 -77 Z" unicode="Ķ" />
<glyph horiz-adv-x="416" d="M 62 0 L 62 0 Z M 427 1 L 356 0 L 204 250 L 127 149 L 127 0 L 62 0 L 62 800 L 125 800 L 125 226 L 331 529 L 400 529 L 246 302 L 427 1 Z M 216 -77 L 216 -77 Z M 291 -77 C 287 -123 276 -168 258 -212 C 239 -256 217 -292 192 -322 L 142 -299 C 150 -287 158 -273 167 -257 C 176 -240 184 -222 192 -202 C 199 -182 205 -162 211 -140 C 216 -118 220 -97 222 -77 L 291 -77 Z" unicode="ķ" />
<glyph horiz-adv-x="416" d="M 427 1 L 356 0 L 204 250 L 127 149 L 127 0 L 62 0 L 62 529 L 125 529 L 125 226 L 331 529 L 400 529 L 246 302 L 427 1 Z" unicode="ĸ" />
<glyph horiz-adv-x="408" d="M 80 0 L 80 0 Z M 400 0 L 80 0 L 80 730 L 150 730 L 150 61 L 400 61 L 400 0 Z M 267 791 L 267 791 Z M 186 791 L 275 960 L 349 960 L 249 791 L 186 791 Z" unicode="Ĺ" />
<glyph horiz-adv-x="211" d="M 60 0 L 60 0 Z M 60 89 L 60 800 L 125 800 L 125 104 C 125 86 128 74 136 66 C 144 58 155 54 169 54 C 174 54 179 54 185 55 C 191 55 195 56 199 58 L 206 4 C 200 1 193 0 184 -2 C 174 -4 164 -5 154 -5 C 128 -5 105 2 87 18 C 69 34 60 57 60 89 Z M 146 861 L 146 861 Z M 65 861 L 154 1030 L 228 1030 L 128 861 L 65 861 Z" unicode="ĺ" />
<glyph horiz-adv-x="408" d="M 80 0 L 80 0 Z M 400 0 L 80 0 L 80 730 L 150 730 L 150 61 L 400 61 L 400 0 Z M 227 -77 L 227 -77 Z M 302 -77 C 298 -123 287 -168 269 -212 C 250 -256 228 -292 203 -322 L 153 -299 C 161 -287 169 -273 178 -257 C 187 -240 195 -222 203 -202 C 210 -182 216 -162 222 -140 C 227 -118 231 -97 233 -77 L 302 -77 Z" unicode="Ļ" />
<glyph horiz-adv-x="211" d="M 28 0 L 28 0 Z M 60 89 L 60 800 L 125 800 L 125 104 C 125 86 128 74 136 66 C 144 58 155 54 169 54 C 174 54 179 54 185 55 C 191 55 195 56 199 58 L 206 4 C 200 1 193 0 184 -2 C 174 -4 164 -5 154 -5 C 128 -5 105 2 87 18 C 69 34 60 57 60 89 Z M 102 -77 L 102 -77 Z M 177 -77 C 173 -123 162 -168 144 -212 C 125 -256 103 -292 78 -322 L 28 -299 C 36 -287 44 -273 53 -257 C 62 -240 70 -222 78 -202 C 85 -182 91 -162 97 -140 C 102 -118 106 -97 108 -77 L 177 -77 Z" unicode="ļ" />
<glyph horiz-adv-x="408" d="M 80 0 L 80 0 Z M 400 0 L 80 0 L 80 730 L 150 730 L 150 61 L 400 61 L 400 0 Z M 430 617 L 426 486 L 372 486 L 368 617 L 368 730 L 430 730 L 430 617 Z" unicode="Ľ" />
<glyph horiz-adv-x="211" d="M 60 0 L 60 0 Z M 60 89 L 60 800 L 125 800 L 125 104 C 125 86 128 74 136 66 C 144 58 155 54 169 54 C 174 54 179 54 185 55 C 191 55 195 56 199 58 L 206 4 C 200 1 193 0 184 -2 C 174 -4 164 -5 154 -5 C 128 -5 105 2 87 18 C 69 34 60 57 60 89 Z M 242 617 L 238 486 L 184 486 L 180 617 L 180 730 L 242 730 L 242 617 Z" unicode="ľ" />
<glyph horiz-adv-x="408" d="M 80 0 L 80 0 Z M 400 0 L 80 0 L 80 730 L 150 730 L 150 61 L 400 61 L 400 0 Z M 295 285 L 295 285 Z M 325 286 L 265 285 L 265 410 L 325 410 L 325 286 Z" unicode="Ŀ" />
<glyph horiz-adv-x="211" d="M 60 0 L 60 0 Z M 60 89 L 60 800 L 125 800 L 125 104 C 125 86 128 74 136 66 C 144 58 155 54 169 54 C 174 54 179 54 185 55 C 191 55 195 56 199 58 L 206 4 C 200 1 193 0 184 -2 C 174 -4 164 -5 154 -5 C 128 -5 105 2 87 18 C 69 34 60 57 60 89 Z M 212 239 L 212 239 Z M 242 240 L 182 239 L 182 364 L 242 364 L 242 240 Z" unicode="ŀ" />
<glyph horiz-adv-x="408" d="M 393 57 L 393 0 L 80 0 L 80 274 L 26 251 L 1 303 L 80 336 L 80 730 L 150 730 L 150 365 L 317 435 L 340 383 L 150 303 L 150 57 L 393 57 Z" unicode="Ł" />
<glyph horiz-adv-x="211" d="M 211 4 C 206 1 199 0 190 -2 C 180 -4 171 -5 161 -5 C 135 -5 113 2 95 18 C 77 34 68 57 68 89 L 68 277 L 17 253 L -3 300 L 68 333 L 68 800 L 133 800 L 133 363 L 203 396 L 223 349 L 133 307 L 133 106 C 133 88 136 74 144 66 C 151 58 161 54 175 54 C 180 54 185 54 191 55 C 196 55 200 56 204 58 L 211 4 Z" unicode="ł" />
<glyph horiz-adv-x="622" d="M 80 0 L 80 0 Z M 542 0 L 491 0 L 146 580 L 146 0 L 80 0 L 80 730 L 132 730 L 478 148 L 478 730 L 542 730 L 542 0 Z M 311 791 L 311 791 Z M 230 791 L 319 960 L 393 960 L 293 791 L 230 791 Z" unicode="Ń" />
<glyph horiz-adv-x="468" d="M 62 0 L 62 0 Z M 409 0 L 344 0 L 344 389 C 344 418 334 440 316 456 C 297 472 274 480 247 480 C 232 480 217 477 203 473 C 189 469 176 462 165 453 C 153 443 144 431 137 416 C 130 400 127 382 127 360 L 127 0 L 62 0 L 62 529 L 118 529 L 118 437 C 126 466 144 490 171 508 C 198 526 231 536 269 536 C 307 536 340 525 368 503 C 395 481 409 450 409 410 L 409 0 Z M 240 590 L 240 590 Z M 159 590 L 248 759 L 322 759 L 222 590 L 159 590 Z" unicode="ń" />
<glyph horiz-adv-x="622" d="M 80 0 L 80 0 Z M 542 0 L 491 0 L 146 580 L 146 0 L 80 0 L 80 730 L 132 730 L 478 148 L 478 730 L 542 730 L 542 0 Z M 298 -77 L 298 -77 Z M 373 -77 C 369 -123 358 -168 340 -212 C 321 -256 299 -292 274 -322 L 224 -299 C 232 -287 240 -273 249 -257 C 258 -240 266 -222 274 -202 C 281 -182 287 -162 293 -140 C 298 -118 302 -97 304 -77 L 373 -77 Z" unicode="Ņ" />
<glyph horiz-adv-x="468" d="M 62 0 L 62 0 Z M 409 0 L 344 0 L 344 389 C 344 418 334 440 316 456 C 297 472 274 480 247 480 C 232 480 217 477 203 473 C 189 469 176 462 165 453 C 153 443 144 431 137 416 C 130 400 127 382 127 360 L 127 0 L 62 0 L 62 529 L 118 529 L 118 437 C 126 466 144 490 171 508 C 198 526 231 536 269 536 C 307 536 340 525 368 503 C 395 481 409 450 409 410 L 409 0 Z M 215 -77 L 215 -77 Z M 290 -77 C 286 -123 275 -168 257 -212 C 238 -256 216 -292 191 -322 L 141 -299 C 149 -287 157 -273 166 -257 C 175 -240 183 -222 191 -202 C 198 -182 204 -162 210 -140 C 215 -118 219 -97 221 -77 L 290 -77 Z" unicode="ņ" />
<glyph horiz-adv-x="622" d="M 80 0 L 80 0 Z M 542 0 L 491 0 L 146 580 L 146 0 L 80 0 L 80 730 L 132 730 L 478 148 L 478 730 L 542 730 L 542 0 Z M 311 790 L 311 790 Z M 177 960 L 235 960 L 312 836 L 389 960 L 446 960 L 341 790 L 282 790 L 177 960 Z" unicode="Ň" />
<glyph horiz-adv-x="468" d="M 62 0 L 62 0 Z M 409 0 L 344 0 L 344 389 C 344 418 334 440 316 456 C 297 472 274 480 247 480 C 232 480 217 477 203 473 C 189 469 176 462 165 453 C 153 443 144 431 137 416 C 130 400 127 382 127 360 L 127 0 L 62 0 L 62 529 L 118 529 L 118 437 C 126 466 144 490 171 508 C 198 526 231 536 269 536 C 307 536 340 525 368 503 C 395 481 409 450 409 410 L 409 0 Z M 240 589 L 240 589 Z M 106 759 L 164 759 L 241 635 L 318 759 L 375 759 L 270 589 L 211 589 L 106 759 Z" unicode="ň" />
<glyph horiz-adv-x="622" d="M 478 730 L 542 730 L 542 -4 C 542 -60 527 -106 498 -142 C 469 -178 429 -197 377 -197 C 362 -197 346 -195 330 -193 C 314 -190 301 -186 292 -180 L 308 -123 C 314 -126 323 -129 335 -132 C 346 -134 358 -136 371 -136 C 403 -136 429 -122 449 -95 C 468 -68 478 -36 478 2 L 478 22 L 146 580 L 146 0 L 80 0 L 80 730 L 132 730 L 478 148 L 478 730 Z" unicode="Ŋ" />
<glyph horiz-adv-x="468" d="M 269 536 C 307 536 340 525 368 503 C 395 481 409 450 409 410 L 409 -39 C 409 -89 395 -128 369 -157 C 342 -185 309 -200 271 -200 C 259 -200 247 -198 234 -195 C 221 -192 211 -188 204 -184 L 220 -129 C 224 -131 231 -133 239 -135 C 247 -137 256 -138 265 -138 C 285 -138 304 -128 320 -109 C 336 -89 344 -63 344 -30 L 344 389 C 344 418 334 440 316 456 C 297 472 274 480 247 480 C 232 480 217 477 203 473 C 189 469 176 462 165 453 C 153 443 144 431 137 416 C 130 400 127 382 127 360 L 127 0 L 62 0 L 62 529 L 118 529 L 118 437 C 126 466 144 490 171 508 C 198 526 231 536 269 536 Z" unicode="ŋ" />
<glyph horiz-adv-x="666" d="M 43 0 L 43 0 Z M 336 -9 C 292 -9 252 0 216 17 C 180 34 149 59 124 91 C 98 123 78 163 64 211 C 50 258 43 311 43 371 C 43 427 50 477 64 523 C 78 569 98 607 123 639 C 148 671 178 695 214 713 C 249 730 288 739 330 739 C 419 739 490 705 543 639 C 596 572 623 481 623 366 C 623 308 615 256 601 210 C 586 164 566 124 540 92 C 514 60 484 35 449 17 C 414 0 376 -9 336 -9 Z M 336 48 C 367 48 396 55 422 69 C 448 83 471 103 491 130 C 510 157 525 191 536 231 C 546 271 552 318 552 370 C 552 467 531 543 490 598 C 448 653 395 681 329 681 C 265 681 213 654 173 600 C 133 546 114 468 114 366 C 114 314 119 268 131 228 C 142 188 158 154 178 128 C 198 102 221 82 248 68 C 275 54 304 48 336 48 Z M 331 813 L 331 813 Z M 449 813 L 213 813 L 213 868 L 449 868 L 449 813 Z" unicode="Ō" />
<glyph horiz-adv-x="467" d="M 31 0 L 31 0 Z M 234 -7 C 205 -7 178 -1 154 11 C 129 23 108 40 90 63 C 72 85 57 113 47 147 C 36 181 31 219 31 262 C 31 302 36 339 46 373 C 56 407 69 436 87 460 C 105 484 126 502 150 516 C 174 529 201 536 230 536 C 290 536 340 512 378 465 C 416 418 436 355 436 276 C 436 234 431 195 421 161 C 411 126 397 96 380 71 C 362 46 341 27 316 13 C 291 0 264 -7 234 -7 Z M 235 50 C 276 50 309 69 333 108 C 357 147 369 200 369 268 C 369 335 356 387 332 423 C 307 459 273 478 230 478 C 190 478 158 459 134 422 C 110 384 98 332 98 266 C 98 193 110 139 136 103 C 162 67 195 50 235 50 Z M 233 612 L 233 612 Z M 351 612 L 115 612 L 115 667 L 351 667 L 351 612 Z" unicode="ō" />
<glyph horiz-adv-x="666" d="M 43 0 L 43 0 Z M 336 -9 C 292 -9 252 0 216 17 C 180 34 149 59 124 91 C 98 123 78 163 64 211 C 50 258 43 311 43 371 C 43 427 50 477 64 523 C 78 569 98 607 123 639 C 148 671 178 695 214 713 C 249 730 288 739 330 739 C 419 739 490 705 543 639 C 596 572 623 481 623 366 C 623 308 615 256 601 210 C 586 164 566 124 540 92 C 514 60 484 35 449 17 C 414 0 376 -9 336 -9 Z M 336 48 C 367 48 396 55 422 69 C 448 83 471 103 491 130 C 510 157 525 191 536 231 C 546 271 552 318 552 370 C 552 467 531 543 490 598 C 448 653 395 681 329 681 C 265 681 213 654 173 600 C 133 546 114 468 114 366 C 114 314 119 268 131 228 C 142 188 158 154 178 128 C 198 102 221 82 248 68 C 275 54 304 48 336 48 Z M 331 797 L 331 797 Z M 405 952 L 460 952 C 456 898 443 858 419 834 C 395 809 366 797 331 797 C 295 797 266 809 243 834 C 219 858 206 898 203 952 L 257 952 C 259 921 266 896 277 876 C 288 856 306 846 331 846 C 355 846 373 855 385 875 C 396 894 403 920 405 952 Z" unicode="Ŏ" />
<glyph horiz-adv-x="467" d="M 31 0 L 31 0 Z M 234 -7 C 205 -7 178 -1 154 11 C 129 23 108 40 90 63 C 72 85 57 113 47 147 C 36 181 31 219 31 262 C 31 302 36 339 46 373 C 56 407 69 436 87 460 C 105 484 126 502 150 516 C 174 529 201 536 230 536 C 290 536 340 512 378 465 C 416 418 436 355 436 276 C 436 234 431 195 421 161 C 411 126 397 96 380 71 C 362 46 341 27 316 13 C 291 0 264 -7 234 -7 Z M 235 50 C 276 50 309 69 333 108 C 357 147 369 200 369 268 C 369 335 356 387 332 423 C 307 459 273 478 230 478 C 190 478 158 459 134 422 C 110 384 98 332 98 266 C 98 193 110 139 136 103 C 162 67 195 50 235 50 Z M 233 596 L 233 596 Z M 307 751 L 362 751 C 358 697 345 657 321 633 C 297 608 268 596 233 596 C 197 596 168 608 145 633 C 121 657 108 697 105 751 L 159 751 C 161 720 168 695 179 675 C 190 655 208 645 233 645 C 257 645 275 654 287 674 C 298 693 305 719 307 751 Z" unicode="ŏ" />
<glyph horiz-adv-x="666" d="M 43 0 L 43 0 Z M 336 -9 C 292 -9 252 0 216 17 C 180 34 149 59 124 91 C 98 123 78 163 64 211 C 50 258 43 311 43 371 C 43 427 50 477 64 523 C 78 569 98 607 123 639 C 148 671 178 695 214 713 C 249 730 288 739 330 739 C 419 739 490 705 543 639 C 596 572 623 481 623 366 C 623 308 615 256 601 210 C 586 164 566 124 540 92 C 514 60 484 35 449 17 C 414 0 376 -9 336 -9 Z M 336 48 C 367 48 396 55 422 69 C 448 83 471 103 491 130 C 510 157 525 191 536 231 C 546 271 552 318 552 370 C 552 467 531 543 490 598 C 448 653 395 681 329 681 C 265 681 213 654 173 600 C 133 546 114 468 114 366 C 114 314 119 268 131 228 C 142 188 158 154 178 128 C 198 102 221 82 248 68 C 275 54 304 48 336 48 Z M 331 789 L 331 789 Z M 183 789 L 254 942 L 324 942 L 241 789 L 183 789 Z M 339 789 L 411 942 L 480 942 L 398 789 L 339 789 Z" unicode="Ő" />
<glyph horiz-adv-x="467" d="M 31 0 L 31 0 Z M 234 -7 C 205 -7 178 -1 154 11 C 129 23 108 40 90 63 C 72 85 57 113 47 147 C 36 181 31 219 31 262 C 31 302 36 339 46 373 C 56 407 69 436 87 460 C 105 484 126 502 150 516 C 174 529 201 536 230 536 C 290 536 340 512 378 465 C 416 418 436 355 436 276 C 436 234 431 195 421 161 C 411 126 397 96 380 71 C 362 46 341 27 316 13 C 291 0 264 -7 234 -7 Z M 235 50 C 276 50 309 69 333 108 C 357 147 369 200 369 268 C 369 335 356 387 332 423 C 307 459 273 478 230 478 C 190 478 158 459 134 422 C 110 384 98 332 98 266 C 98 193 110 139 136 103 C 162 67 195 50 235 50 Z M 233 588 L 233 588 Z M 85 588 L 156 741 L 226 741 L 143 588 L 85 588 Z M 241 588 L 313 741 L 382 741 L 300 588 L 241 588 Z" unicode="ő" />
<glyph horiz-adv-x="908" d="M 317 -9 C 277 -9 240 0 206 17 C 172 34 144 59 120 91 C 96 123 77 163 63 210 C 49 257 43 310 43 370 C 43 426 49 476 63 522 C 77 568 96 607 120 639 C 144 671 172 695 206 713 C 239 730 275 739 315 739 C 343 739 370 734 394 724 C 418 714 440 701 459 685 C 477 669 493 650 506 628 C 519 606 529 583 535 559 L 535 730 L 857 730 L 857 669 L 602 669 L 602 393 L 848 393 L 848 335 L 602 335 L 602 61 L 874 61 L 874 0 L 535 0 L 535 181 C 529 156 521 132 509 110 C 497 87 481 67 463 49 C 445 31 423 17 399 7 C 374 -3 347 -9 317 -9 Z M 327 45 C 357 45 384 52 410 66 C 436 80 458 100 477 127 C 495 154 510 188 521 229 C 531 270 537 317 537 371 C 537 422 531 467 519 507 C 507 546 491 579 471 605 C 451 631 429 650 403 664 C 377 677 350 684 323 684 C 261 684 210 656 172 602 C 133 547 114 468 114 365 C 114 312 119 266 130 226 C 141 186 156 152 175 126 C 194 99 217 79 243 65 C 269 51 297 45 327 45 Z" unicode="Œ" />
<glyph horiz-adv-x="790" d="M 234 -7 C 205 -7 178 -1 154 11 C 129 23 108 40 90 63 C 72 85 57 113 47 147 C 36 181 31 219 31 262 C 31 302 36 339 46 373 C 56 407 69 436 87 460 C 105 484 126 502 150 516 C 174 529 201 536 230 536 C 255 536 278 531 298 522 C 318 512 336 500 350 484 C 364 468 376 450 385 430 C 393 409 399 388 401 366 C 402 386 407 407 416 427 C 425 447 437 466 452 482 C 466 498 484 510 504 520 C 524 530 545 535 569 535 C 627 535 673 509 708 458 C 743 407 761 338 761 250 L 431 250 C 431 192 444 144 470 106 C 496 68 531 50 575 50 C 609 50 636 57 658 72 C 680 86 697 103 711 122 L 745 83 C 728 60 706 39 679 21 C 651 2 616 -7 573 -7 C 547 -7 524 -2 504 6 C 483 15 465 27 451 43 C 436 58 424 76 415 96 C 406 116 401 136 399 158 C 396 137 390 117 382 97 C 374 77 363 59 349 44 C 335 28 318 16 299 7 C 279 -2 258 -7 234 -7 Z M 430 296 L 698 296 C 697 351 684 396 660 430 C 635 464 604 481 566 481 C 528 481 496 463 472 429 C 447 394 433 350 430 296 Z M 235 50 C 276 50 309 69 333 107 C 357 145 369 199 369 268 C 369 334 356 386 332 423 C 307 459 273 478 230 478 C 190 478 158 459 134 422 C 110 384 98 332 98 266 C 98 193 110 139 136 103 C 162 67 195 50 235 50 Z" unicode="œ" />
<glyph horiz-adv-x="498" d="M 80 0 L 80 0 Z M 80 0 L 80 730 L 236 730 C 290 730 336 713 372 680 C 408 646 427 598 427 535 C 427 477 412 430 382 396 C 352 361 317 342 275 339 L 271 336 L 482 0 L 406 0 L 207 322 L 146 322 L 146 0 L 80 0 Z M 146 380 L 222 380 C 262 380 295 393 321 419 C 347 445 360 481 360 528 C 360 576 347 612 321 636 C 295 660 264 673 226 673 L 146 673 L 146 380 Z M 241 791 L 241 791 Z M 160 791 L 249 960 L 323 960 L 223 791 L 160 791 Z" unicode="Ŕ" />
<glyph horiz-adv-x="337" d="M 62 0 L 62 0 Z M 340 507 L 313 451 C 304 460 294 467 282 471 C 270 475 257 478 241 478 C 228 478 215 475 201 470 C 187 464 175 456 164 446 C 153 435 144 421 137 404 C 130 386 127 366 127 342 L 127 0 L 62 0 L 62 529 L 124 529 L 124 430 C 130 458 146 483 170 504 C 194 525 222 536 255 536 C 273 536 290 533 305 527 C 320 521 332 515 340 507 Z M 206 590 L 206 590 Z M 125 590 L 214 759 L 288 759 L 188 590 L 125 590 Z" unicode="ŕ" />
<glyph horiz-adv-x="498" d="M 80 0 L 80 0 Z M 80 0 L 80 730 L 236 730 C 290 730 336 713 372 680 C 408 646 427 598 427 535 C 427 477 412 430 382 396 C 352 361 317 342 275 339 L 271 336 L 482 0 L 406 0 L 207 322 L 146 322 L 146 0 L 80 0 Z M 146 380 L 222 380 C 262 380 295 393 321 419 C 347 445 360 481 360 528 C 360 576 347 612 321 636 C 295 660 264 673 226 673 L 146 673 L 146 380 Z M 242 -77 L 242 -77 Z M 317 -77 C 313 -123 302 -168 284 -212 C 265 -256 243 -292 218 -322 L 168 -299 C 176 -287 184 -273 193 -257 C 202 -240 210 -222 218 -202 C 225 -182 231 -162 237 -140 C 242 -118 246 -97 248 -77 L 317 -77 Z" unicode="Ŗ" />
<glyph horiz-adv-x="337" d="M 62 0 L 62 0 Z M 340 507 L 313 451 C 304 460 294 467 282 471 C 270 475 257 478 241 478 C 228 478 215 475 201 470 C 187 464 175 456 164 446 C 153 435 144 421 137 404 C 130 386 127 366 127 342 L 127 0 L 62 0 L 62 529 L 124 529 L 124 430 C 130 458 146 483 170 504 C 194 525 222 536 255 536 C 273 536 290 533 305 527 C 320 521 332 515 340 507 Z M 181 -77 L 181 -77 Z M 256 -77 C 252 -123 241 -168 223 -212 C 204 -256 182 -292 157 -322 L 107 -299 C 115 -287 123 -273 132 -257 C 141 -240 149 -222 157 -202 C 164 -182 170 -162 176 -140 C 181 -118 185 -97 187 -77 L 256 -77 Z" unicode="ŗ" />
<glyph horiz-adv-x="498" d="M 80 0 L 80 0 Z M 80 0 L 80 730 L 236 730 C 290 730 336 713 372 680 C 408 646 427 598 427 535 C 427 477 412 430 382 396 C 352 361 317 342 275 339 L 271 336 L 482 0 L 406 0 L 207 322 L 146 322 L 146 0 L 80 0 Z M 146 380 L 222 380 C 262 380 295 393 321 419 C 347 445 360 481 360 528 C 360 576 347 612 321 636 C 295 660 264 673 226 673 L 146 673 L 146 380 Z M 241 790 L 241 790 Z M 107 960 L 165 960 L 242 836 L 319 960 L 376 960 L 271 790 L 212 790 L 107 960 Z" unicode="Ř" />
<glyph horiz-adv-x="337" d="M 62 0 L 62 0 Z M 340 507 L 313 451 C 304 460 294 467 282 471 C 270 475 257 478 241 478 C 228 478 215 475 201 470 C 187 464 175 456 164 446 C 153 435 144 421 137 404 C 130 386 127 366 127 342 L 127 0 L 62 0 L 62 529 L 124 529 L 124 430 C 130 458 146 483 170 504 C 194 525 222 536 255 536 C 273 536 290 533 305 527 C 320 521 332 515 340 507 Z M 206 589 L 206 589 Z M 72 759 L 130 759 L 207 635 L 284 759 L 341 759 L 236 589 L 177 589 L 72 759 Z" unicode="ř" />
<glyph horiz-adv-x="460" d="M 34 0 L 34 0 Z M 232 -9 C 190 -9 152 -1 119 13 C 85 27 57 50 34 80 L 80 126 C 97 99 120 79 148 66 C 176 53 203 47 231 47 C 263 47 292 58 316 80 C 340 102 353 132 353 170 C 353 206 343 237 324 263 C 304 288 269 315 217 344 C 159 375 117 406 91 438 C 65 469 52 512 52 567 C 52 619 69 660 103 692 C 137 723 179 739 229 739 C 269 739 303 731 331 717 C 359 703 381 686 399 668 L 357 621 C 341 637 321 651 299 662 C 277 673 253 679 227 679 C 196 679 170 669 149 649 C 127 629 117 601 117 565 C 117 529 127 499 147 477 C 167 454 205 428 259 399 C 320 366 362 333 384 299 C 406 265 417 225 417 177 C 417 147 412 121 402 98 C 392 75 378 56 361 40 C 344 24 324 11 302 3 C 280 -4 256 -9 232 -9 Z M 230 791 L 230 791 Z M 149 791 L 238 960 L 312 960 L 212 791 L 149 791 Z" unicode="Ś" />
<glyph horiz-adv-x="357" d="M 26 0 L 26 0 Z M 188 -7 C 152 -7 120 0 92 12 C 64 25 42 42 26 64 L 60 109 C 74 90 92 75 113 64 C 133 53 156 48 181 48 C 203 48 224 55 242 71 C 260 86 269 107 269 135 C 269 159 260 180 243 197 C 226 214 199 232 161 252 C 118 272 88 294 70 318 C 52 341 43 371 43 408 C 43 444 56 475 83 499 C 109 523 142 536 181 536 C 213 536 241 530 264 520 C 286 510 304 499 317 487 L 292 434 C 280 444 264 455 246 465 C 228 475 208 480 186 480 C 163 480 143 473 126 460 C 109 447 101 429 101 407 C 101 385 107 367 121 354 C 135 340 162 323 202 303 C 247 279 279 254 299 230 C 318 205 328 173 328 134 C 328 110 324 90 316 72 C 308 54 297 40 284 28 C 270 16 255 8 239 2 C 222 -4 205 -7 188 -7 Z M 181 590 L 181 590 Z M 100 590 L 189 759 L 263 759 L 163 590 L 100 590 Z" unicode="ś" />
<glyph horiz-adv-x="460" d="M 34 0 L 34 0 Z M 232 -9 C 190 -9 152 -1 119 13 C 85 27 57 50 34 80 L 80 126 C 97 99 120 79 148 66 C 176 53 203 47 231 47 C 263 47 292 58 316 80 C 340 102 353 132 353 170 C 353 206 343 237 324 263 C 304 288 269 315 217 344 C 159 375 117 406 91 438 C 65 469 52 512 52 567 C 52 619 69 660 103 692 C 137 723 179 739 229 739 C 269 739 303 731 331 717 C 359 703 381 686 399 668 L 357 621 C 341 637 321 651 299 662 C 277 673 253 679 227 679 C 196 679 170 669 149 649 C 127 629 117 601 117 565 C 117 529 127 499 147 477 C 167 454 205 428 259 399 C 320 366 362 333 384 299 C 406 265 417 225 417 177 C 417 147 412 121 402 98 C 392 75 378 56 361 40 C 344 24 324 11 302 3 C 280 -4 256 -9 232 -9 Z M 230 790 L 230 790 Z M 365 790 L 306 790 L 230 913 L 152 790 L 96 790 L 201 960 L 260 960 L 365 790 Z" unicode="Ŝ" />
<glyph horiz-adv-x="357" d="M 26 0 L 26 0 Z M 188 -7 C 152 -7 120 0 92 12 C 64 25 42 42 26 64 L 60 109 C 74 90 92 75 113 64 C 133 53 156 48 181 48 C 203 48 224 55 242 71 C 260 86 269 107 269 135 C 269 159 260 180 243 197 C 226 214 199 232 161 252 C 118 272 88 294 70 318 C 52 341 43 371 43 408 C 43 444 56 475 83 499 C 109 523 142 536 181 536 C 213 536 241 530 264 520 C 286 510 304 499 317 487 L 292 434 C 280 444 264 455 246 465 C 228 475 208 480 186 480 C 163 480 143 473 126 460 C 109 447 101 429 101 407 C 101 385 107 367 121 354 C 135 340 162 323 202 303 C 247 279 279 254 299 230 C 318 205 328 173 328 134 C 328 110 324 90 316 72 C 308 54 297 40 284 28 C 270 16 255 8 239 2 C 222 -4 205 -7 188 -7 Z M 181 589 L 181 589 Z M 316 589 L 257 589 L 181 712 L 103 589 L 47 589 L 152 759 L 211 759 L 316 589 Z" unicode="ŝ" />
<glyph horiz-adv-x="460" d="M 34 0 L 34 0 Z M 232 -9 C 190 -9 152 -1 119 13 C 85 27 57 50 34 80 L 80 126 C 97 99 120 79 148 66 C 176 53 203 47 231 47 C 263 47 292 58 316 80 C 340 102 353 132 353 170 C 353 206 343 237 324 263 C 304 288 269 315 217 344 C 159 375 117 406 91 438 C 65 469 52 512 52 567 C 52 619 69 660 103 692 C 137 723 179 739 229 739 C 269 739 303 731 331 717 C 359 703 381 686 399 668 L 357 621 C 341 637 321 651 299 662 C 277 673 253 679 227 679 C 196 679 170 669 149 649 C 127 629 117 601 117 565 C 117 529 127 499 147 477 C 167 454 205 428 259 399 C 320 366 362 333 384 299 C 406 265 417 225 417 177 C 417 147 412 121 402 98 C 392 75 378 56 361 40 C 344 24 324 11 302 3 C 280 -4 256 -9 232 -9 Z M 219 -3 L 219 -3 Z M 226 -185 C 205 -185 185 -182 165 -176 C 145 -170 128 -162 116 -152 L 130 -124 C 138 -130 150 -137 165 -143 C 179 -149 196 -152 214 -152 C 229 -152 242 -148 254 -140 C 265 -132 271 -122 271 -110 C 271 -95 265 -84 255 -78 C 245 -72 234 -69 222 -69 C 213 -69 206 -69 200 -71 C 194 -72 187 -74 181 -77 L 171 -64 L 223 6 L 258 6 L 215 -54 C 245 -47 270 -49 291 -60 C 312 -71 323 -88 323 -112 C 323 -134 313 -152 294 -165 C 275 -178 252 -185 226 -185 Z" unicode="Ş" />
<glyph horiz-adv-x="357" d="M 26 0 L 26 0 Z M 188 -7 C 152 -7 120 0 92 12 C 64 25 42 42 26 64 L 60 109 C 74 90 92 75 113 64 C 133 53 156 48 181 48 C 203 48 224 55 242 71 C 260 86 269 107 269 135 C 269 159 260 180 243 197 C 226 214 199 232 161 252 C 118 272 88 294 70 318 C 52 341 43 371 43 408 C 43 444 56 475 83 499 C 109 523 142 536 181 536 C 213 536 241 530 264 520 C 286 510 304 499 317 487 L 292 434 C 280 444 264 455 246 465 C 228 475 208 480 186 480 C 163 480 143 473 126 460 C 109 447 101 429 101 407 C 101 385 107 367 121 354 C 135 340 162 323 202 303 C 247 279 279 254 299 230 C 318 205 328 173 328 134 C 328 110 324 90 316 72 C 308 54 297 40 284 28 C 270 16 255 8 239 2 C 222 -4 205 -7 188 -7 Z M 172 -2 L 172 -2 Z M 179 -184 C 158 -184 138 -181 118 -175 C 98 -169 81 -161 69 -151 L 83 -123 C 91 -129 103 -136 118 -142 C 132 -148 149 -151 167 -151 C 182 -151 195 -147 207 -139 C 218 -131 224 -121 224 -109 C 224 -94 218 -83 208 -77 C 198 -71 187 -68 175 -68 C 166 -68 159 -68 153 -70 C 147 -71 140 -73 134 -76 L 124 -63 L 176 7 L 211 7 L 168 -53 C 198 -46 223 -48 244 -59 C 265 -70 276 -87 276 -111 C 276 -133 266 -151 247 -164 C 228 -177 205 -184 179 -184 Z" unicode="ş" />
<glyph horiz-adv-x="460" d="M 34 0 L 34 0 Z M 232 -9 C 190 -9 152 -1 119 13 C 85 27 57 50 34 80 L 80 126 C 97 99 120 79 148 66 C 176 53 203 47 231 47 C 263 47 292 58 316 80 C 340 102 353 132 353 170 C 353 206 343 237 324 263 C 304 288 269 315 217 344 C 159 375 117 406 91 438 C 65 469 52 512 52 567 C 52 619 69 660 103 692 C 137 723 179 739 229 739 C 269 739 303 731 331 717 C 359 703 381 686 399 668 L 357 621 C 341 637 321 651 299 662 C 277 673 253 679 227 679 C 196 679 170 669 149 649 C 127 629 117 601 117 565 C 117 529 127 499 147 477 C 167 454 205 428 259 399 C 320 366 362 333 384 299 C 406 265 417 225 417 177 C 417 147 412 121 402 98 C 392 75 378 56 361 40 C 344 24 324 11 302 3 C 280 -4 256 -9 232 -9 Z M 230 790 L 230 790 Z M 96 960 L 154 960 L 231 836 L 308 960 L 365 960 L 260 790 L 201 790 L 96 960 Z" unicode="Š" />
<glyph horiz-adv-x="357" d="M 26 0 L 26 0 Z M 188 -7 C 152 -7 120 0 92 12 C 64 25 42 42 26 64 L 60 109 C 74 90 92 75 113 64 C 133 53 156 48 181 48 C 203 48 224 55 242 71 C 260 86 269 107 269 135 C 269 159 260 180 243 197 C 226 214 199 232 161 252 C 118 272 88 294 70 318 C 52 341 43 371 43 408 C 43 444 56 475 83 499 C 109 523 142 536 181 536 C 213 536 241 530 264 520 C 286 510 304 499 317 487 L 292 434 C 280 444 264 455 246 465 C 228 475 208 480 186 480 C 163 480 143 473 126 460 C 109 447 101 429 101 407 C 101 385 107 367 121 354 C 135 340 162 323 202 303 C 247 279 279 254 299 230 C 318 205 328 173 328 134 C 328 110 324 90 316 72 C 308 54 297 40 284 28 C 270 16 255 8 239 2 C 222 -4 205 -7 188 -7 Z M 181 589 L 181 589 Z M 47 759 L 105 759 L 182 635 L 259 759 L 316 759 L 211 589 L 152 589 L 47 759 Z" unicode="š" />
<glyph horiz-adv-x="420" d="M 8 0 L 8 0 Z M 412 669 L 244 669 L 244 0 L 174 0 L 174 669 L 8 669 L 8 730 L 412 730 L 412 669 Z M 209 790 L 209 790 Z M 75 960 L 133 960 L 210 836 L 287 960 L 344 960 L 239 790 L 180 790 L 75 960 Z" unicode="Ť" />
<glyph horiz-adv-x="250" d="M 13 0 L 13 0 Z M 229 68 L 241 15 C 235 10 226 6 214 2 C 202 -2 187 -4 171 -4 C 145 -4 122 5 102 23 C 82 41 73 69 73 107 L 73 473 L 13 473 L 13 529 L 74 529 L 74 642 L 137 652 L 137 529 L 230 529 L 230 473 L 138 473 L 138 111 C 138 94 142 81 151 71 C 159 61 171 56 186 56 C 194 56 203 57 211 60 C 219 62 225 65 229 68 Z M 319 617 L 315 486 L 261 486 L 257 617 L 257 730 L 319 730 L 319 617 Z" unicode="ť" />
<glyph horiz-adv-x="420" d="M 374 481 L 244 481 L 244 0 L 174 0 L 174 481 L 44 481 L 44 537 L 174 537 L 174 669 L 8 669 L 8 730 L 412 730 L 412 669 L 244 669 L 244 537 L 374 537 L 374 481 Z" unicode="Ŧ" />
<glyph horiz-adv-x="250" d="M 241 15 C 235 10 226 6 214 2 C 202 -2 187 -4 171 -4 C 145 -4 122 5 102 23 C 82 41 73 69 73 107 L 73 320 L 21 320 L 21 376 L 73 376 L 73 473 L 13 473 L 13 529 L 74 529 L 74 642 L 137 652 L 137 529 L 230 529 L 230 473 L 138 473 L 138 376 L 212 376 L 212 320 L 138 320 L 138 111 C 138 94 142 81 151 71 C 159 61 171 56 186 56 C 194 56 203 57 211 60 C 219 62 225 65 229 68 L 241 15 Z" unicode="ŧ" />
<glyph horiz-adv-x="607" d="M 76 0 L 76 0 Z M 532 730 L 532 230 C 532 188 525 153 513 123 C 501 93 484 68 463 48 C 442 28 418 14 390 5 C 362 -4 332 -9 301 -9 C 270 -9 241 -4 214 4 C 186 13 162 27 142 46 C 122 65 106 90 94 121 C 82 151 76 188 76 230 L 76 730 L 145 730 L 145 230 C 145 169 160 124 191 95 C 221 66 258 52 302 52 C 345 52 382 65 413 93 C 444 121 460 166 460 230 L 460 730 L 532 730 Z M 303 798 L 303 798 Z M 402 926 L 452 926 C 452 882 446 849 434 829 C 422 808 406 798 386 798 C 368 798 353 802 339 811 C 325 820 314 829 304 838 C 293 846 283 855 273 863 C 263 871 253 876 243 876 C 232 876 223 869 215 857 C 207 844 204 826 204 803 L 154 803 C 154 845 162 877 178 898 C 194 919 211 930 230 930 C 245 930 259 925 271 917 C 283 908 296 898 308 888 C 317 879 326 871 336 864 C 346 856 356 853 366 853 C 376 853 384 859 391 872 C 398 884 402 902 402 926 Z" unicode="Ũ" />
<glyph horiz-adv-x="468" d="M 59 0 L 59 0 Z M 59 529 L 124 529 L 124 159 C 124 119 134 90 154 73 C 174 55 199 47 230 47 C 258 47 284 57 307 77 C 329 97 341 129 341 173 L 341 529 L 406 529 L 406 0 L 348 0 L 348 93 C 340 66 324 43 299 23 C 273 3 242 -7 204 -7 C 164 -7 130 4 102 28 C 73 51 59 87 59 137 L 59 529 Z M 233 597 L 233 597 Z M 332 725 L 382 725 C 382 681 376 648 364 628 C 352 607 336 597 316 597 C 298 597 283 601 269 610 C 255 619 244 628 234 637 C 223 645 213 654 203 662 C 193 670 183 675 173 675 C 162 675 153 668 145 656 C 137 643 134 625 134 602 L 84 602 C 84 644 92 676 108 697 C 124 718 141 729 160 729 C 175 729 189 724 201 716 C 213 707 226 697 238 687 C 247 678 256 670 266 663 C 276 655 286 652 296 652 C 306 652 314 658 321 671 C 328 683 332 701 332 725 Z" unicode="ũ" />
<glyph horiz-adv-x="607" d="M 76 0 L 76 0 Z M 532 730 L 532 230 C 532 188 525 153 513 123 C 501 93 484 68 463 48 C 442 28 418 14 390 5 C 362 -4 332 -9 301 -9 C 270 -9 241 -4 214 4 C 186 13 162 27 142 46 C 122 65 106 90 94 121 C 82 151 76 188 76 230 L 76 730 L 145 730 L 145 230 C 145 169 160 124 191 95 C 221 66 258 52 302 52 C 345 52 382 65 413 93 C 444 121 460 166 460 230 L 460 730 L 532 730 Z M 303 813 L 303 813 Z M 421 813 L 185 813 L 185 868 L 421 868 L 421 813 Z" unicode="Ū" />
<glyph horiz-adv-x="468" d="M 59 0 L 59 0 Z M 59 529 L 124 529 L 124 159 C 124 119 134 90 154 73 C 174 55 199 47 230 47 C 258 47 284 57 307 77 C 329 97 341 129 341 173 L 341 529 L 406 529 L 406 0 L 348 0 L 348 93 C 340 66 324 43 299 23 C 273 3 242 -7 204 -7 C 164 -7 130 4 102 28 C 73 51 59 87 59 137 L 59 529 Z M 233 612 L 233 612 Z M 351 612 L 115 612 L 115 667 L 351 667 L 351 612 Z" unicode="ū" />
<glyph horiz-adv-x="607" d="M 76 0 L 76 0 Z M 532 730 L 532 230 C 532 188 525 153 513 123 C 501 93 484 68 463 48 C 442 28 418 14 390 5 C 362 -4 332 -9 301 -9 C 270 -9 241 -4 214 4 C 186 13 162 27 142 46 C 122 65 106 90 94 121 C 82 151 76 188 76 230 L 76 730 L 145 730 L 145 230 C 145 169 160 124 191 95 C 221 66 258 52 302 52 C 345 52 382 65 413 93 C 444 121 460 166 460 230 L 460 730 L 532 730 Z M 303 797 L 303 797 Z M 377 952 L 432 952 C 428 898 415 858 391 834 C 367 809 338 797 303 797 C 267 797 238 809 215 834 C 191 858 178 898 175 952 L 229 952 C 231 921 238 896 249 876 C 260 856 278 846 303 846 C 327 846 345 855 357 875 C 368 894 375 920 377 952 Z" unicode="Ŭ" />
<glyph horiz-adv-x="468" d="M 59 0 L 59 0 Z M 59 529 L 124 529 L 124 159 C 124 119 134 90 154 73 C 174 55 199 47 230 47 C 258 47 284 57 307 77 C 329 97 341 129 341 173 L 341 529 L 406 529 L 406 0 L 348 0 L 348 93 C 340 66 324 43 299 23 C 273 3 242 -7 204 -7 C 164 -7 130 4 102 28 C 73 51 59 87 59 137 L 59 529 Z M 233 596 L 233 596 Z M 307 751 L 362 751 C 358 697 345 657 321 633 C 297 608 268 596 233 596 C 197 596 168 608 145 633 C 121 657 108 697 105 751 L 159 751 C 161 720 168 695 179 675 C 190 655 208 645 233 645 C 257 645 275 654 287 674 C 298 693 305 719 307 751 Z" unicode="ŭ" />
<glyph horiz-adv-x="607" d="M 76 0 L 76 0 Z M 532 730 L 532 230 C 532 188 525 153 513 123 C 501 93 484 68 463 48 C 442 28 418 14 390 5 C 362 -4 332 -9 301 -9 C 270 -9 241 -4 214 4 C 186 13 162 27 142 46 C 122 65 106 90 94 121 C 82 151 76 188 76 230 L 76 730 L 145 730 L 145 230 C 145 169 160 124 191 95 C 221 66 258 52 302 52 C 345 52 382 65 413 93 C 444 121 460 166 460 230 L 460 730 L 532 730 Z M 303 779 L 303 779 Z M 303 779 C 270 779 242 790 220 813 C 198 835 187 863 187 896 C 187 928 198 956 220 978 C 242 1000 270 1012 303 1012 C 335 1012 363 1000 386 978 C 408 956 420 928 420 896 C 420 863 408 835 386 813 C 363 790 335 779 303 779 Z M 303 819 C 324 819 342 826 356 841 C 370 856 378 874 378 896 C 378 916 370 934 356 950 C 342 965 324 973 303 973 C 282 973 264 965 250 950 C 235 934 228 916 228 896 C 228 874 235 856 250 841 C 264 826 282 819 303 819 Z" unicode="Ů" />
<glyph horiz-adv-x="468" d="M 59 0 L 59 0 Z M 59 529 L 124 529 L 124 159 C 124 119 134 90 154 73 C 174 55 199 47 230 47 C 258 47 284 57 307 77 C 329 97 341 129 341 173 L 341 529 L 406 529 L 406 0 L 348 0 L 348 93 C 340 66 324 43 299 23 C 273 3 242 -7 204 -7 C 164 -7 130 4 102 28 C 73 51 59 87 59 137 L 59 529 Z M 233 578 L 233 578 Z M 233 578 C 200 578 172 589 150 612 C 128 634 117 662 117 695 C 117 727 128 755 150 777 C 172 799 200 811 233 811 C 265 811 293 799 316 777 C 338 755 350 727 350 695 C 350 662 338 634 316 612 C 293 589 265 578 233 578 Z M 233 618 C 254 618 272 625 286 640 C 300 655 308 673 308 695 C 308 715 300 733 286 749 C 272 764 254 772 233 772 C 212 772 194 764 180 749 C 165 733 158 715 158 695 C 158 673 165 655 180 640 C 194 625 212 618 233 618 Z" unicode="ů" />
<glyph horiz-adv-x="607" d="M 76 0 L 76 0 Z M 532 730 L 532 230 C 532 188 525 153 513 123 C 501 93 484 68 463 48 C 442 28 418 14 390 5 C 362 -4 332 -9 301 -9 C 270 -9 241 -4 214 4 C 186 13 162 27 142 46 C 122 65 106 90 94 121 C 82 151 76 188 76 230 L 76 730 L 145 730 L 145 230 C 145 169 160 124 191 95 C 221 66 258 52 302 52 C 345 52 382 65 413 93 C 444 121 460 166 460 230 L 460 730 L 532 730 Z M 303 789 L 303 789 Z M 155 789 L 226 942 L 296 942 L 213 789 L 155 789 Z M 311 789 L 383 942 L 452 942 L 370 789 L 311 789 Z" unicode="Ű" />
<glyph horiz-adv-x="468" d="M 59 0 L 59 0 Z M 59 529 L 124 529 L 124 159 C 124 119 134 90 154 73 C 174 55 199 47 230 47 C 258 47 284 57 307 77 C 329 97 341 129 341 173 L 341 529 L 406 529 L 406 0 L 348 0 L 348 93 C 340 66 324 43 299 23 C 273 3 242 -7 204 -7 C 164 -7 130 4 102 28 C 73 51 59 87 59 137 L 59 529 Z M 233 588 L 233 588 Z M 85 588 L 156 741 L 226 741 L 143 588 L 85 588 Z M 241 588 L 313 741 L 382 741 L 300 588 L 241 588 Z" unicode="ű" />
<glyph horiz-adv-x="607" d="M 76 0 L 76 0 Z M 532 730 L 532 230 C 532 188 525 153 513 123 C 501 93 484 68 463 48 C 442 28 418 14 390 5 C 362 -4 332 -9 301 -9 C 270 -9 241 -4 214 4 C 186 13 162 27 142 46 C 122 65 106 90 94 121 C 82 151 76 188 76 230 L 76 730 L 145 730 L 145 230 C 145 169 160 124 191 95 C 221 66 258 52 302 52 C 345 52 382 65 413 93 C 444 121 460 166 460 230 L 460 730 L 532 730 Z M 336 -10 L 336 -10 Z M 439 -110 L 458 -137 C 439 -156 418 -171 395 -181 C 372 -191 346 -197 318 -197 C 287 -197 263 -189 246 -175 C 228 -161 220 -142 220 -120 C 220 -96 230 -74 251 -53 C 271 -31 303 -13 346 3 L 377 1 C 343 -13 317 -28 300 -44 C 283 -60 275 -77 275 -95 C 275 -111 280 -124 292 -134 C 304 -143 319 -148 338 -148 C 358 -148 377 -144 395 -137 C 412 -130 427 -121 439 -110 Z" unicode="Ų" />
<glyph horiz-adv-x="468" d="M 59 0 L 59 0 Z M 59 529 L 124 529 L 124 159 C 124 119 134 90 154 73 C 174 55 199 47 230 47 C 258 47 284 57 307 77 C 329 97 341 129 341 173 L 341 529 L 406 529 L 406 0 L 348 0 L 348 93 C 340 66 324 43 299 23 C 273 3 242 -7 204 -7 C 164 -7 130 4 102 28 C 73 51 59 87 59 137 L 59 529 Z M 338 -9 L 338 -9 Z M 441 -109 L 460 -136 C 441 -155 420 -170 397 -180 C 374 -190 348 -196 320 -196 C 289 -196 265 -188 248 -174 C 230 -160 222 -141 222 -119 C 222 -95 232 -73 253 -52 C 273 -30 305 -12 348 4 L 379 2 C 345 -12 319 -27 302 -43 C 285 -59 277 -76 277 -94 C 277 -110 282 -123 294 -133 C 306 -142 321 -147 340 -147 C 360 -147 379 -143 397 -136 C 414 -129 429 -120 441 -109 Z" unicode="ų" />
<glyph horiz-adv-x="762" d="M 12 0 L 12 0 Z M 743 730 L 569 -4 L 522 -4 L 378 606 L 230 -4 L 183 -4 L 12 730 L 80 730 L 215 127 L 355 730 L 405 730 L 546 127 L 681 730 L 743 730 Z M 381 790 L 381 790 Z M 516 790 L 457 790 L 381 913 L 303 790 L 247 790 L 352 960 L 411 960 L 516 790 Z" unicode="Ŵ" />
<glyph horiz-adv-x="599" d="M 4 0 L 4 0 Z M 405 -2 L 303 355 L 193 -2 L 146 -2 L 4 529 L 66 529 L 177 102 L 280 451 L 328 451 L 425 103 L 537 529 L 595 529 L 451 -2 L 405 -2 Z M 301 589 L 301 589 Z M 436 589 L 377 589 L 301 712 L 223 589 L 167 589 L 272 759 L 331 759 L 436 589 Z" unicode="ŵ" />
<glyph horiz-adv-x="515" d="M 2 0 L 2 0 Z M 513 730 L 290 322 L 290 0 L 220 0 L 220 324 L 2 730 L 82 730 L 259 391 L 444 730 L 513 730 Z M 260 790 L 260 790 Z M 395 790 L 336 790 L 260 913 L 182 790 L 126 790 L 231 960 L 290 960 L 395 790 Z" unicode="Ŷ" />
<glyph horiz-adv-x="385" d="M 0 0 L 0 0 Z M 386 529 L 182 -97 C 169 -133 151 -159 129 -175 C 106 -191 83 -200 61 -200 C 42 -200 27 -198 15 -194 C 3 -190 -5 -186 -10 -184 L 14 -132 C 16 -134 22 -137 31 -139 C 39 -141 48 -143 57 -143 C 70 -143 83 -137 97 -126 C 110 -114 121 -97 130 -73 L 163 35 L -1 529 L 65 529 L 195 119 L 324 529 L 386 529 Z M 196 589 L 196 589 Z M 331 589 L 272 589 L 196 712 L 118 589 L 62 589 L 167 759 L 226 759 L 331 589 Z" unicode="ŷ" />
<glyph horiz-adv-x="515" d="M 2 0 L 2 0 Z M 513 730 L 290 322 L 290 0 L 220 0 L 220 324 L 2 730 L 82 730 L 259 391 L 444 730 L 513 730 Z M 260 790 L 260 790 Z M 363 790 L 310 790 L 310 946 L 363 946 L 363 790 Z M 210 790 L 157 790 L 157 946 L 210 946 L 210 790 Z" unicode="Ÿ" />
<glyph horiz-adv-x="470" d="M 18 0 L 18 0 Z M 439 730 L 439 696 L 105 59 L 452 59 L 452 0 L 18 0 L 18 32 L 350 670 L 52 670 L 52 730 L 439 730 Z M 243 791 L 243 791 Z M 162 791 L 251 960 L 325 960 L 225 791 L 162 791 Z" unicode="Ź" />
<glyph horiz-adv-x="358" d="M 15 0 L 15 0 Z M 334 529 L 334 500 L 98 56 L 347 56 L 347 0 L 15 0 L 15 26 L 253 472 L 28 472 L 28 529 L 334 529 Z M 187 590 L 187 590 Z M 106 590 L 195 759 L 269 759 L 169 590 L 106 590 Z" unicode="ź" />
<glyph horiz-adv-x="470" d="M 18 0 L 18 0 Z M 439 730 L 439 696 L 105 59 L 452 59 L 452 0 L 18 0 L 18 32 L 350 670 L 52 670 L 52 730 L 439 730 Z M 243 794 L 243 794 Z M 273 795 L 213 794 L 213 919 L 273 919 L 273 795 Z" unicode="Ż" />
<glyph horiz-adv-x="358" d="M 15 0 L 15 0 Z M 334 529 L 334 500 L 98 56 L 347 56 L 347 0 L 15 0 L 15 26 L 253 472 L 28 472 L 28 529 L 334 529 Z M 187 593 L 187 593 Z M 217 594 L 157 593 L 157 718 L 217 718 L 217 594 Z" unicode="ż" />
<glyph horiz-adv-x="470" d="M 18 0 L 18 0 Z M 439 730 L 439 696 L 105 59 L 452 59 L 452 0 L 18 0 L 18 32 L 350 670 L 52 670 L 52 730 L 439 730 Z M 243 790 L 243 790 Z M 109 960 L 167 960 L 244 836 L 321 960 L 378 960 L 273 790 L 214 790 L 109 960 Z" unicode="Ž" />
<glyph horiz-adv-x="358" d="M 15 0 L 15 0 Z M 334 529 L 334 500 L 98 56 L 347 56 L 347 0 L 15 0 L 15 26 L 253 472 L 28 472 L 28 529 L 334 529 Z M 187 589 L 187 589 Z M 53 759 L 111 759 L 188 635 L 265 759 L 322 759 L 217 589 L 158 589 L 53 759 Z" unicode="ž" />
<glyph horiz-adv-x="351" d="M 167 -68 C 164 -100 151 -126 129 -147 C 106 -168 79 -179 47 -179 C 31 -179 16 -177 2 -175 C -11 -173 -22 -170 -29 -168 L -22 -121 C -17 -121 -10 -122 -1 -124 C 8 -126 17 -127 26 -127 C 46 -127 65 -119 82 -105 C 99 -91 109 -71 112 -45 L 146 338 L 50 338 L 50 396 L 152 396 L 173 635 C 175 668 188 693 210 711 C 232 729 254 738 277 738 C 289 738 300 737 311 736 C 321 735 328 734 331 734 L 325 676 C 323 676 319 677 313 678 C 307 678 301 679 295 679 C 276 679 260 672 248 660 C 235 647 228 627 226 601 L 208 396 L 314 396 L 314 338 L 203 338 L 167 -68 Z" unicode="ƒ" />
<glyph horiz-adv-x="460" d="M 34 0 L 34 0 Z M 232 -9 C 190 -9 152 -1 119 13 C 85 27 57 50 34 80 L 80 126 C 97 99 120 79 148 66 C 176 53 203 47 231 47 C 263 47 292 58 316 80 C 340 102 353 132 353 170 C 353 206 343 237 324 263 C 304 288 269 315 217 344 C 159 375 117 406 91 438 C 65 469 52 512 52 567 C 52 619 69 660 103 692 C 137 723 179 739 229 739 C 269 739 303 731 331 717 C 359 703 381 686 399 668 L 357 621 C 341 637 321 651 299 662 C 277 673 253 679 227 679 C 196 679 170 669 149 649 C 127 629 117 601 117 565 C 117 529 127 499 147 477 C 167 454 205 428 259 399 C 320 366 362 333 384 299 C 406 265 417 225 417 177 C 417 147 412 121 402 98 C 392 75 378 56 361 40 C 344 24 324 11 302 3 C 280 -4 256 -9 232 -9 Z M 219 -80 L 219 -80 Z M 294 -80 C 290 -126 279 -171 261 -215 C 242 -259 220 -295 195 -325 L 145 -302 C 153 -290 161 -276 170 -260 C 179 -243 187 -225 195 -205 C 202 -185 208 -165 214 -143 C 219 -121 223 -100 225 -80 L 294 -80 Z" unicode="Ș" />
<glyph horiz-adv-x="357" d="M 26 0 L 26 0 Z M 188 -7 C 152 -7 120 0 92 12 C 64 25 42 42 26 64 L 60 109 C 74 90 92 75 113 64 C 133 53 156 48 181 48 C 203 48 224 55 242 71 C 260 86 269 107 269 135 C 269 159 260 180 243 197 C 226 214 199 232 161 252 C 118 272 88 294 70 318 C 52 341 43 371 43 408 C 43 444 56 475 83 499 C 109 523 142 536 181 536 C 213 536 241 530 264 520 C 286 510 304 499 317 487 L 292 434 C 280 444 264 455 246 465 C 228 475 208 480 186 480 C 163 480 143 473 126 460 C 109 447 101 429 101 407 C 101 385 107 367 121 354 C 135 340 162 323 202 303 C 247 279 279 254 299 230 C 318 205 328 173 328 134 C 328 110 324 90 316 72 C 308 54 297 40 284 28 C 270 16 255 8 239 2 C 222 -4 205 -7 188 -7 Z M 172 -79 L 172 -79 Z M 247 -79 C 243 -125 232 -170 214 -214 C 195 -258 173 -294 148 -324 L 98 -301 C 106 -289 114 -275 123 -259 C 132 -242 140 -224 148 -204 C 155 -184 161 -164 167 -142 C 172 -120 176 -99 178 -79 L 247 -79 Z" unicode="ș" />
<glyph horiz-adv-x="420" d="M 8 0 L 8 0 Z M 412 669 L 244 669 L 244 0 L 174 0 L 174 669 L 8 669 L 8 730 L 412 730 L 412 669 Z M 182 -77 L 182 -77 Z M 257 -77 C 253 -123 242 -168 224 -212 C 205 -256 183 -292 158 -322 L 108 -299 C 116 -287 124 -273 133 -257 C 142 -240 150 -222 158 -202 C 165 -182 171 -162 177 -140 C 182 -118 186 -97 188 -77 L 257 -77 Z" unicode="Ț" />
<glyph horiz-adv-x="250" d="M 13 0 L 13 0 Z M 229 68 L 241 15 C 235 10 226 6 214 2 C 202 -2 187 -4 171 -4 C 145 -4 122 5 102 23 C 82 41 73 69 73 107 L 73 473 L 13 473 L 13 529 L 74 529 L 74 642 L 137 652 L 137 529 L 230 529 L 230 473 L 138 473 L 138 111 C 138 94 142 81 151 71 C 159 61 171 56 186 56 C 194 56 203 57 211 60 C 219 62 225 65 229 68 Z M 120 -77 L 120 -77 Z M 195 -77 C 191 -123 180 -168 162 -212 C 143 -256 121 -292 96 -322 L 46 -299 C 54 -287 62 -273 71 -257 C 80 -240 88 -222 96 -202 C 103 -182 109 -162 115 -140 C 120 -118 124 -97 126 -77 L 195 -77 Z" unicode="ț" />
<glyph horiz-adv-x="205" d="M 143 529 L 143 -59 C 143 -100 131 -132 107 -155 C 83 -177 55 -189 25 -189 C 11 -189 -2 -186 -15 -182 C -28 -178 -37 -173 -43 -169 L -22 -124 C -18 -126 -12 -128 -6 -130 C 0 -132 8 -133 17 -133 C 31 -133 45 -126 59 -112 C 72 -98 79 -79 79 -54 L 79 529 L 143 529 Z" unicode="ȷ" />
<glyph horiz-adv-x="500" d="M 385 589 L 326 589 L 250 712 L 172 589 L 116 589 L 221 759 L 280 759 L 385 589 Z" unicode="ˆ" />
<glyph horiz-adv-x="500" d="M 116 759 L 174 759 L 251 635 L 328 759 L 385 759 L 280 589 L 221 589 L 116 759 Z" unicode="ˇ" />
<glyph horiz-adv-x="500" d="M 324 751 L 379 751 C 375 697 362 657 338 633 C 314 608 285 596 250 596 C 214 596 185 608 162 633 C 138 657 125 697 122 751 L 176 751 C 178 720 185 695 196 675 C 207 655 225 645 250 645 C 274 645 292 654 304 674 C 315 693 322 719 324 751 Z" unicode="˘" />
<glyph horiz-adv-x="500" d="M 280 594 L 220 593 L 220 718 L 280 718 L 280 594 Z" unicode="˙" />
<glyph horiz-adv-x="504" d="M 252 578 C 219 578 191 589 169 612 C 147 634 136 662 136 695 C 136 727 147 755 169 777 C 191 799 219 811 252 811 C 284 811 312 799 335 777 C 357 755 369 727 369 695 C 369 662 357 634 335 612 C 312 589 284 578 252 578 Z M 252 618 C 273 618 291 625 305 640 C 319 655 327 673 327 695 C 327 715 319 733 305 749 C 291 764 273 772 252 772 C 231 772 213 764 199 749 C 184 733 177 715 177 695 C 177 673 184 655 199 640 C 213 625 231 618 252 618 Z" unicode="˚" />
<glyph horiz-adv-x="500" d="M 354 -100 L 373 -127 C 354 -146 333 -161 310 -171 C 287 -181 261 -187 233 -187 C 202 -187 178 -179 161 -165 C 143 -151 135 -132 135 -110 C 135 -86 145 -64 166 -43 C 186 -21 218 -3 261 13 L 292 11 C 258 -3 232 -18 215 -34 C 198 -50 190 -67 190 -85 C 190 -101 195 -114 207 -124 C 219 -133 234 -138 253 -138 C 273 -138 292 -134 310 -127 C 327 -120 342 -111 354 -100 Z" unicode="˛" />
<glyph horiz-adv-x="500" d="M 351 725 L 401 725 C 401 681 395 648 383 628 C 371 607 355 597 335 597 C 317 597 302 601 288 610 C 274 619 263 628 253 637 C 242 645 232 654 222 662 C 212 670 202 675 192 675 C 181 675 172 668 164 656 C 156 643 153 625 153 602 L 103 602 C 103 644 111 676 127 697 C 143 718 160 729 179 729 C 194 729 208 724 220 716 C 232 707 245 697 257 687 C 266 678 275 670 285 663 C 295 655 305 652 315 652 C 325 652 333 658 340 671 C 347 683 351 701 351 725 Z" unicode="˜" />
<glyph horiz-adv-x="500" d="M 114 588 L 185 741 L 255 741 L 172 588 L 114 588 Z M 270 588 L 342 741 L 411 741 L 329 588 L 270 588 Z" unicode="˝" />
<glyph horiz-adv-x="0" d="M 0 588 L 0 588 Z M 82 588 L 18 588 L -82 757 L -8 757 L 82 588 Z" unicode="̀" />
<glyph horiz-adv-x="0" d="M 0 590 L 0 590 Z M -81 590 L 8 759 L 82 759 L -18 590 L -81 590 Z" unicode="́" />
<glyph horiz-adv-x="0" d="M 0 589 L 0 589 Z M 135 589 L 76 589 L 0 712 L -78 589 L -134 589 L -29 759 L 30 759 L 135 589 Z" unicode="̂" />
<glyph horiz-adv-x="0" d="M 0 597 L 0 597 Z M 99 725 L 149 725 C 149 681 143 648 131 628 C 119 607 103 597 83 597 C 65 597 50 601 36 610 C 22 619 11 628 1 637 C -9 645 -20 654 -30 662 C -40 670 -50 675 -60 675 C -70 675 -79 668 -87 656 C -95 643 -99 625 -99 602 L -149 602 C -149 644 -141 676 -125 697 C -109 718 -91 729 -73 729 C -57 729 -43 724 -31 716 C -19 707 -7 697 5 687 C 14 678 23 670 33 663 C 43 655 53 652 63 652 C 73 652 81 658 88 671 C 95 683 99 701 99 725 Z" unicode="̃" />
<glyph horiz-adv-x="0" d="M 0 612 L 0 612 Z M 118 612 L -118 612 L -118 667 L 118 667 L 118 612 Z" unicode="̄" />
<glyph horiz-adv-x="0" d="M 0 596 L 0 596 Z M 74 751 L 129 751 C 125 697 112 657 88 633 C 64 608 35 596 0 596 C -35 596 -64 608 -88 633 C -111 657 -124 697 -128 751 L -74 751 C -71 720 -64 695 -53 675 C -42 655 -24 645 0 645 C 24 645 42 654 54 674 C 65 693 72 719 74 751 Z" unicode="̆" />
<glyph horiz-adv-x="0" d="M 0 593 L 0 593 Z M 30 594 L -30 593 L -30 718 L 30 718 L 30 594 Z" unicode="̇" />
<glyph horiz-adv-x="0" d="M 0 589 L 0 589 Z M 103 589 L 50 589 L 50 745 L 103 745 L 103 589 Z M -50 589 L -103 589 L -103 745 L -50 745 L -50 589 Z" unicode="̈" />
<glyph horiz-adv-x="0" d="M 0 578 L 0 578 Z M 0 578 C -32 578 -60 589 -82 612 C -104 634 -116 662 -116 695 C -116 727 -104 755 -82 777 C -60 799 -32 811 0 811 C 32 811 60 799 83 777 C 105 755 117 727 117 695 C 117 662 105 634 83 612 C 60 589 32 578 0 578 Z M 0 618 C 21 618 39 625 53 640 C 67 655 75 673 75 695 C 75 715 67 733 53 749 C 39 764 21 772 0 772 C -20 772 -38 764 -53 749 C -67 733 -75 715 -75 695 C -75 673 -67 655 -53 640 C -38 625 -20 618 0 618 Z" unicode="̊" />
<glyph horiz-adv-x="0" d="M 0 588 L 0 588 Z M -148 588 L -77 741 L -7 741 L -90 588 L -148 588 Z M 8 588 L 80 741 L 149 741 L 67 588 L 8 588 Z" unicode="̋" />
<glyph horiz-adv-x="0" d="M 0 589 L 0 589 Z M -134 759 L -76 759 L 1 635 L 78 759 L 135 759 L 30 589 L -29 589 L -134 759 Z" unicode="̌" />
<glyph horiz-adv-x="0" d="M 0 -77 L 0 -77 Z M 75 -77 C 71 -123 60 -168 42 -212 C 23 -256 1 -292 -24 -322 L -74 -299 C -66 -287 -57 -273 -48 -257 C -39 -240 -31 -222 -24 -202 C -16 -182 -10 -162 -5 -140 C 0 -118 4 -97 6 -77 L 75 -77 Z" unicode="̦" />
<glyph horiz-adv-x="0" d="M 0 0 L 0 0 Z M 7 -182 C -13 -182 -34 -179 -54 -173 C -74 -167 -90 -159 -103 -149 L -89 -121 C -80 -127 -68 -134 -54 -140 C -39 -146 -23 -149 -5 -149 C 10 -149 23 -145 35 -137 C 46 -129 52 -119 52 -107 C 52 -92 46 -81 36 -75 C 26 -69 15 -66 3 -66 C -5 -66 -13 -66 -19 -68 C -25 -69 -31 -71 -38 -74 L -48 -61 L 4 9 L 39 9 L -4 -51 C 26 -44 51 -46 72 -57 C 93 -68 104 -85 104 -109 C 104 -131 94 -149 75 -162 C 56 -175 33 -182 7 -182 Z" unicode="̧" />
<glyph horiz-adv-x="0" d="M 0 0 L 0 0 Z M 103 -100 L 122 -127 C 103 -146 82 -161 59 -171 C 36 -181 10 -187 -18 -187 C -48 -187 -72 -179 -90 -165 C -107 -151 -116 -132 -116 -110 C -116 -86 -105 -64 -85 -43 C -64 -21 -32 -3 10 13 L 41 11 C 7 -3 -18 -18 -35 -34 C -52 -50 -61 -67 -61 -85 C -61 -101 -55 -114 -43 -124 C -31 -133 -16 -138 2 -138 C 22 -138 41 -134 59 -127 C 76 -120 91 -111 103 -100 Z" unicode="̨" />
<glyph horiz-adv-x="573" d="M 2 0 L 2 0 Z M 566 0 L 2 0 L 269 731 L 301 731 L 566 0 Z M 479 52 L 282 621 L 87 52 L 479 52 Z" unicode="Δ" />
<glyph horiz-adv-x="724" d="M 33 0 L 33 0 Z M 42 0 L 42 60 L 258 60 L 258 142 C 223 152 192 168 164 189 C 136 209 112 233 93 259 C 73 285 58 314 48 345 C 38 376 33 408 33 441 C 33 483 40 523 55 560 C 69 597 90 629 118 657 C 146 684 179 705 219 721 C 258 737 302 745 351 745 C 401 745 447 737 488 721 C 528 705 562 683 590 656 C 618 628 639 596 654 559 C 668 522 676 483 676 441 C 676 408 671 376 661 345 C 651 314 637 285 618 259 C 599 233 576 209 548 189 C 520 169 487 153 451 142 L 451 60 L 666 60 L 666 0 L 403 0 L 403 178 C 435 188 463 202 489 221 C 514 239 535 260 552 283 C 569 306 582 331 591 358 C 600 384 605 411 605 438 C 605 474 598 508 586 539 C 574 570 557 597 535 619 C 513 641 486 658 455 671 C 423 683 389 690 351 690 C 313 690 279 683 249 671 C 219 658 193 640 171 618 C 149 596 133 569 121 538 C 109 507 104 473 104 436 C 104 410 108 384 117 358 C 125 332 138 307 155 284 C 172 261 193 240 219 222 C 244 203 273 188 306 178 L 306 0 L 42 0 Z" unicode="Ω" />
<glyph horiz-adv-x="594" d="M 80 0 L 80 0 Z M 80 -133 L 80 529 L 144 529 L 144 159 C 144 142 148 126 156 112 C 164 98 174 85 188 75 C 201 65 216 57 234 51 C 252 45 270 43 289 43 C 307 43 325 46 345 52 C 365 58 382 67 398 79 C 414 91 427 107 437 126 C 447 144 453 166 453 191 L 453 529 L 517 529 L 517 0 L 457 0 L 457 111 C 452 95 444 80 432 66 C 420 52 405 39 389 28 C 373 17 355 8 335 2 C 315 -4 296 -8 276 -8 C 247 -8 219 -1 193 11 C 167 24 149 42 140 65 L 140 -133 L 80 -133 Z" unicode="μ" />
<glyph horiz-adv-x="543" d="M 156 478 L 156 0 L 92 0 L 92 478 L 15 478 L 15 529 L 528 529 L 528 478 L 445 478 L 445 0 L 380 0 L 380 478 L 156 478 Z" unicode="π" />
<glyph horiz-adv-x="762" d="M 12 0 L 12 0 Z M 743 730 L 569 -4 L 522 -4 L 378 606 L 230 -4 L 183 -4 L 12 730 L 80 730 L 215 127 L 355 730 L 405 730 L 546 127 L 681 730 L 743 730 Z M 381 789 L 381 789 Z M 463 789 L 399 789 L 299 958 L 373 958 L 463 789 Z" unicode="Ẁ" />
<glyph horiz-adv-x="599" d="M 4 0 L 4 0 Z M 405 -2 L 303 355 L 193 -2 L 146 -2 L 4 529 L 66 529 L 177 102 L 280 451 L 328 451 L 425 103 L 537 529 L 595 529 L 451 -2 L 405 -2 Z M 301 588 L 301 588 Z M 383 588 L 319 588 L 219 757 L 293 757 L 383 588 Z" unicode="ẁ" />
<glyph horiz-adv-x="762" d="M 12 0 L 12 0 Z M 743 730 L 569 -4 L 522 -4 L 378 606 L 230 -4 L 183 -4 L 12 730 L 80 730 L 215 127 L 355 730 L 405 730 L 546 127 L 681 730 L 743 730 Z M 381 791 L 381 791 Z M 300 791 L 389 960 L 463 960 L 363 791 L 300 791 Z" unicode="Ẃ" />
<glyph horiz-adv-x="599" d="M 4 0 L 4 0 Z M 405 -2 L 303 355 L 193 -2 L 146 -2 L 4 529 L 66 529 L 177 102 L 280 451 L 328 451 L 425 103 L 537 529 L 595 529 L 451 -2 L 405 -2 Z M 301 590 L 301 590 Z M 220 590 L 309 759 L 383 759 L 283 590 L 220 590 Z" unicode="ẃ" />
<glyph horiz-adv-x="762" d="M 12 0 L 12 0 Z M 743 730 L 569 -4 L 522 -4 L 378 606 L 230 -4 L 183 -4 L 12 730 L 80 730 L 215 127 L 355 730 L 405 730 L 546 127 L 681 730 L 743 730 Z M 381 790 L 381 790 Z M 484 790 L 431 790 L 431 946 L 484 946 L 484 790 Z M 331 790 L 278 790 L 278 946 L 331 946 L 331 790 Z" unicode="Ẅ" />
<glyph horiz-adv-x="599" d="M 4 0 L 4 0 Z M 405 -2 L 303 355 L 193 -2 L 146 -2 L 4 529 L 66 529 L 177 102 L 280 451 L 328 451 L 425 103 L 537 529 L 595 529 L 451 -2 L 405 -2 Z M 301 589 L 301 589 Z M 404 589 L 351 589 L 351 745 L 404 745 L 404 589 Z M 251 589 L 198 589 L 198 745 L 251 745 L 251 589 Z" unicode="ẅ" />
<glyph horiz-adv-x="515" d="M 2 0 L 2 0 Z M 513 730 L 290 322 L 290 0 L 220 0 L 220 324 L 2 730 L 82 730 L 259 391 L 444 730 L 513 730 Z M 260 789 L 260 789 Z M 342 789 L 278 789 L 178 958 L 252 958 L 342 789 Z" unicode="Ỳ" />
<glyph horiz-adv-x="385" d="M 0 0 L 0 0 Z M 386 529 L 182 -97 C 169 -133 151 -159 129 -175 C 106 -191 83 -200 61 -200 C 42 -200 27 -198 15 -194 C 3 -190 -5 -186 -10 -184 L 14 -132 C 16 -134 22 -137 31 -139 C 39 -141 48 -143 57 -143 C 70 -143 83 -137 97 -126 C 110 -114 121 -97 130 -73 L 163 35 L -1 529 L 65 529 L 195 119 L 324 529 L 386 529 Z M 196 588 L 196 588 Z M 278 588 L 214 588 L 114 757 L 188 757 L 278 588 Z" unicode="ỳ" />
<glyph horiz-adv-x="460" d="M 418 233 L 42 233 L 42 289 L 418 289 L 418 233 Z" unicode="–" />
<glyph horiz-adv-x="645" d="M 603 233 L 42 233 L 42 289 L 603 289 L 603 233 Z" unicode="—" />
<glyph horiz-adv-x="218" d="M 41 507 L 41 514 C 41 556 48 595 64 632 C 79 669 102 704 134 737 L 195 731 C 175 709 155 680 137 644 C 118 608 109 565 109 515 L 109 507 L 41 507 Z" unicode="‘" />
<glyph horiz-adv-x="218" d="M 177 737 L 177 730 C 177 688 169 648 154 612 C 138 575 115 540 84 507 L 23 513 C 43 536 62 565 81 601 C 99 637 109 679 109 729 L 109 737 L 177 737 Z" unicode="’" />
<glyph horiz-adv-x="219" d="M 176 108 L 176 101 C 176 59 168 19 153 -17 C 137 -53 114 -88 83 -122 L 22 -116 C 42 -92 61 -63 80 -27 C 98 8 108 50 108 100 L 108 108 L 176 108 Z" unicode="‚" />
<glyph horiz-adv-x="362" d="M 193 507 L 193 514 C 193 553 201 591 217 627 C 233 663 259 700 293 737 L 351 731 C 342 721 332 708 321 694 C 310 680 300 663 290 645 C 280 627 272 607 266 585 C 260 563 257 539 257 515 L 257 507 L 193 507 Z M 42 507 L 42 514 C 42 553 50 591 67 627 C 83 663 108 700 141 737 L 200 731 C 191 721 181 708 170 694 C 159 680 149 663 140 645 C 130 627 122 607 116 585 C 109 563 106 539 106 515 L 106 507 L 42 507 Z" unicode="“" />
<glyph horiz-adv-x="362" d="M 174 737 L 174 730 C 174 688 166 648 152 612 C 137 576 113 541 81 507 L 22 513 C 42 537 62 566 81 602 C 100 637 110 679 110 729 L 110 737 L 174 737 Z M 320 737 L 320 730 C 320 688 312 648 297 612 C 281 576 258 541 227 507 L 168 513 C 189 537 209 567 228 602 C 246 637 256 679 256 729 L 256 737 L 320 737 Z" unicode="”" />
<glyph horiz-adv-x="365" d="M 173 109 L 173 102 C 173 60 165 20 151 -15 C 136 -51 113 -87 81 -121 L 22 -115 C 42 -91 62 -61 81 -26 C 99 9 109 51 109 101 L 109 109 L 173 109 Z M 322 109 L 322 102 C 322 60 314 20 299 -15 C 284 -51 261 -87 230 -121 L 171 -115 C 192 -90 212 -60 230 -25 C 248 9 258 51 258 101 L 258 109 L 322 109 Z" unicode="„" />
<glyph horiz-adv-x="450" d="M 429 411 L 256 411 L 256 -179 L 188 -179 L 188 411 L 21 411 L 21 472 L 188 472 L 188 730 L 256 730 L 256 472 L 429 472 L 429 411 Z" unicode="†" />
<glyph horiz-adv-x="454" d="M 191 -179 L 191 133 L 26 133 L 26 194 L 191 194 L 191 398 L 26 398 L 26 458 L 191 458 L 191 730 L 258 730 L 258 458 L 428 458 L 428 398 L 258 398 L 258 194 L 428 194 L 428 133 L 258 133 L 258 -179 L 191 -179 Z" unicode="‡" />
<glyph horiz-adv-x="382" d="M 191 442 C 208 442 223 435 235 423 C 247 411 254 396 254 379 C 254 361 247 347 235 335 C 223 323 208 317 191 317 C 173 317 159 323 147 335 C 135 347 129 361 129 379 C 129 396 135 411 147 423 C 159 435 173 442 191 442 Z" unicode="•" />
<glyph horiz-adv-x="597" d="M 66 0 L 66 113 L 133 113 L 133 0 L 66 0 Z M 265 0 L 265 113 L 332 113 L 332 0 L 265 0 Z M 464 0 L 464 113 L 530 113 L 530 0 L 464 0 Z" unicode="…" />
<glyph horiz-adv-x="1033" d="M 180 360 C 162 360 145 364 129 372 C 112 380 97 392 85 408 C 72 424 62 443 54 467 C 46 491 42 518 42 550 C 42 576 45 601 52 625 C 58 648 68 668 80 685 C 92 702 107 716 124 726 C 141 736 160 741 180 741 C 201 741 220 736 238 726 C 255 716 270 702 282 685 C 294 668 303 648 310 625 C 316 602 320 578 320 553 C 320 526 316 501 310 477 C 303 453 293 433 281 416 C 269 398 254 385 237 375 C 219 365 200 360 180 360 Z M 100 0 L 545 730 L 601 730 L 157 0 L 100 0 Z M 94 550 C 94 512 101 479 115 451 C 129 423 150 410 179 410 C 195 410 208 413 219 421 C 230 429 239 439 246 452 C 253 465 258 480 262 497 C 265 514 267 532 267 550 C 267 567 265 584 262 601 C 259 618 254 633 247 646 C 240 659 231 670 221 678 C 210 686 197 690 182 690 C 166 690 153 686 142 678 C 131 670 122 660 115 647 C 107 634 102 619 99 602 C 95 585 94 568 94 550 Z M 534 -3 C 516 -3 499 1 483 9 C 466 17 451 29 438 45 C 425 61 415 81 407 105 C 399 129 395 156 395 187 C 395 213 398 238 405 262 C 412 285 422 305 434 322 C 446 339 460 353 478 363 C 496 373 515 378 536 378 C 557 378 576 373 594 363 C 612 353 627 339 639 322 C 651 305 660 285 666 262 C 672 239 676 215 676 190 C 676 163 672 138 665 114 C 658 90 648 70 636 53 C 624 35 609 22 592 12 C 574 2 555 -3 534 -3 Z M 850 -3 C 832 -3 815 1 798 9 C 781 17 766 29 754 45 C 741 61 731 81 723 105 C 715 129 711 156 711 187 C 711 213 714 238 721 262 C 728 285 738 305 750 322 C 762 339 776 353 794 363 C 812 373 831 378 852 378 C 873 378 892 373 910 363 C 928 353 943 339 955 322 C 967 305 976 285 982 262 C 988 239 992 215 992 190 C 992 163 988 138 981 114 C 974 90 964 70 952 53 C 940 35 925 22 908 12 C 890 2 871 -3 850 -3 Z M 533 48 C 564 48 587 62 601 90 C 615 118 622 151 622 187 C 622 205 620 222 617 239 C 613 256 608 271 601 284 C 594 297 585 308 574 316 C 563 324 550 328 536 328 C 521 328 508 324 497 316 C 486 308 477 298 470 285 C 462 272 457 257 453 240 C 449 223 448 205 448 187 C 448 149 455 116 470 89 C 484 61 505 48 533 48 Z M 849 48 C 880 48 903 62 917 90 C 931 118 938 151 938 187 C 938 205 936 222 933 239 C 929 256 924 271 917 284 C 910 297 901 308 890 316 C 879 324 866 328 852 328 C 837 328 824 324 813 316 C 802 308 793 298 786 285 C 778 272 773 257 769 240 C 765 223 764 205 764 187 C 764 149 771 116 785 89 C 799 61 821 48 849 48 Z" unicode="‰" />
<glyph horiz-adv-x="227" d="M 197 119 L 29 284 L 29 321 L 197 484 L 197 420 L 86 301 L 197 186 L 197 119 Z" unicode="‹" />
<glyph horiz-adv-x="228" d="M 30 485 L 199 320 L 199 283 L 30 120 L 30 183 L 141 303 L 30 418 L 30 485 Z" unicode="›" />
<glyph horiz-adv-x="145" d="M 299 730 L -89 0 L -145 0 L 243 730 L 299 730 Z" unicode="⁄" />
<glyph horiz-adv-x="324" d="M 16 460 L 16 500 L 209 740 L 248 740 L 248 503 L 313 503 L 313 460 L 248 460 L 248 373 L 194 373 L 194 460 L 16 460 Z M 69 499 L 195 499 L 195 660 L 69 499 Z" unicode="⁴" />
<glyph horiz-adv-x="499" d="M 482 118 C 464 80 439 49 406 25 C 372 0 336 -12 296 -12 C 242 -12 194 13 153 63 C 112 113 86 183 76 274 L 33 274 L 33 321 L 72 321 C 71 327 71 334 71 342 C 71 349 71 356 71 363 C 71 369 71 376 71 383 C 71 390 71 397 72 404 L 33 404 L 33 451 L 76 451 C 80 494 89 534 101 570 C 113 606 129 636 148 662 C 166 687 188 707 213 721 C 237 735 265 742 295 742 C 342 742 380 730 408 708 C 436 686 458 659 473 627 L 425 599 C 412 625 396 646 376 662 C 356 677 329 685 297 685 C 256 685 221 664 193 623 C 165 581 146 524 138 451 L 439 451 L 439 404 L 134 404 C 133 397 133 390 133 382 C 133 374 133 367 133 360 C 133 353 133 346 133 340 C 133 334 133 327 134 321 L 439 321 L 439 274 L 138 274 C 147 198 167 141 198 102 C 229 62 263 43 299 43 C 331 43 358 53 381 74 C 403 94 422 119 436 148 L 482 118 Z" unicode="€" />
<glyph horiz-adv-x="801" d="M 748 330 L 692 330 L 692 633 L 554 423 L 541 423 L 405 632 L 405 330 L 350 330 L 350 730 L 399 730 L 549 502 L 702 730 L 748 730 L 748 330 Z M 321 667 L 206 667 L 206 330 L 139 330 L 139 667 L 25 667 L 25 730 L 321 730 L 321 667 Z" unicode="™" />
<glyph horiz-adv-x="709" d="M 42 0 L 42 60 L 258 60 L 258 142 C 223 152 192 168 164 189 C 136 209 112 233 93 259 C 73 285 58 314 48 345 C 38 376 33 408 33 441 C 33 483 40 523 55 560 C 69 597 90 629 118 657 C 146 684 179 705 219 721 C 258 737 302 745 351 745 C 401 745 447 737 488 721 C 528 705 562 683 590 656 C 618 628 639 596 654 559 C 668 522 676 483 676 441 C 676 408 671 376 661 345 C 651 314 637 285 618 259 C 599 233 576 209 548 189 C 520 169 487 153 451 142 L 451 60 L 666 60 L 666 0 L 403 0 L 403 178 C 435 188 463 202 489 221 C 514 239 535 260 552 283 C 569 306 582 331 591 358 C 600 384 605 411 605 438 C 605 474 598 508 586 539 C 574 570 557 597 535 619 C 513 641 486 658 455 671 C 423 683 389 690 351 690 C 313 690 279 683 249 671 C 219 658 193 640 171 618 C 149 596 133 569 121 538 C 109 507 104 473 104 436 C 104 410 108 384 117 358 C 125 332 138 307 155 284 C 172 261 193 240 219 222 C 244 203 273 188 306 178 L 306 0 L 42 0 Z" unicode="Ω" />
<glyph horiz-adv-x="480" d="M 440 274 C 440 226 434 185 424 149 C 414 113 399 84 381 61 C 363 38 341 21 317 9 C 292 -2 265 -8 237 -8 C 210 -8 184 -2 160 7 C 135 17 113 32 95 52 C 76 72 61 96 50 125 C 39 154 34 187 34 224 C 34 258 39 289 49 319 C 59 348 72 373 89 394 C 106 415 126 432 150 444 C 174 456 199 462 227 462 C 265 462 297 452 323 433 C 349 414 368 389 381 357 C 374 428 361 489 342 539 C 323 589 302 630 278 662 C 254 694 229 717 203 732 C 177 746 153 754 133 755 L 164 802 C 185 802 211 792 243 773 C 275 753 305 723 334 681 C 363 639 388 585 409 518 C 429 450 440 369 440 274 Z M 236 44 C 278 44 311 61 336 95 C 360 129 373 175 373 232 C 373 284 361 326 337 359 C 313 392 279 409 235 409 C 195 409 162 392 138 358 C 113 324 101 281 101 227 C 101 168 113 123 138 91 C 163 59 196 44 236 44 Z" unicode="∂" />
<glyph horiz-adv-x="569" d="M 566 0 L 2 0 L 269 731 L 301 731 L 566 0 Z M 479 52 L 282 621 L 87 52 L 479 52 Z" unicode="∆" />
<glyph horiz-adv-x="652" d="M 198 671 L 198 0 L 130 0 L 130 671 L 15 671 L 15 730 L 637 730 L 637 671 L 526 671 L 526 0 L 459 0 L 459 671 L 198 671 Z" unicode="∏" />
<glyph horiz-adv-x="547" d="M 137 670 L 371 307 L 105 -119 L 515 -119 L 515 -179 L -5 -179 L 303 306 L 24 730 L 494 730 L 494 670 L 137 670 Z" unicode="∑" />
<glyph horiz-adv-x="491" d="M 449 304 L 42 304 L 42 359 L 449 359 L 449 304 Z" unicode="−" />
<glyph horiz-adv-x="510" d="M 496 730 L 198 0 L 186 0 L 15 325 L 63 357 L 200 90 L 453 730 L 496 730 Z" unicode="√" />
<glyph horiz-adv-x="327" d="M 112 -45 L 173 635 C 175 668 188 693 210 711 C 232 729 254 738 277 738 C 289 738 300 737 311 736 C 321 735 328 734 331 734 L 325 676 C 323 676 319 677 313 678 C 307 678 301 679 295 679 C 276 679 260 672 248 660 C 235 648 228 628 226 601 L 167 -68 C 164 -100 151 -126 129 -148 C 106 -169 79 -179 47 -179 C 31 -179 16 -177 2 -174 C -11 -170 -21 -167 -28 -164 L -21 -118 C -17 -118 -10 -120 -1 -123 C 8 -125 17 -127 26 -127 C 46 -127 65 -119 82 -105 C 99 -91 109 -71 112 -45 Z" unicode="∫" />
<glyph horiz-adv-x="487" d="M 399 490 L 447 490 C 446 441 438 403 423 376 C 407 349 383 336 351 336 C 329 336 309 341 291 352 C 273 363 258 375 244 388 C 230 402 216 414 202 424 C 188 434 173 440 157 440 C 141 440 126 431 110 414 C 94 396 87 371 87 339 L 40 339 C 40 387 50 424 70 451 C 90 478 116 492 147 492 C 169 492 190 486 208 474 C 226 462 242 449 257 435 C 269 423 282 411 295 401 C 308 391 323 386 339 386 C 359 386 374 394 384 410 C 394 426 399 453 399 490 Z M 399 321 L 447 321 C 446 272 438 234 423 208 C 407 181 383 168 351 168 C 329 168 309 173 291 183 C 273 193 258 206 244 220 C 230 234 216 246 203 256 C 189 266 174 271 158 271 C 142 271 126 262 110 245 C 94 228 87 203 87 171 L 40 171 C 40 219 50 256 70 283 C 90 309 116 323 147 323 C 169 323 189 316 207 304 C 225 292 241 278 256 264 C 268 252 281 241 295 231 C 308 221 323 217 339 217 C 359 217 374 225 384 241 C 394 257 399 283 399 321 Z" unicode="≈" />
<glyph horiz-adv-x="487" d="M 444 187 L 215 187 L 165 79 L 124 93 L 167 187 L 61 187 L 61 241 L 192 241 L 262 395 L 61 395 L 61 449 L 287 449 L 333 550 L 374 535 L 335 449 L 444 449 L 444 395 L 310 395 L 239 241 L 444 241 L 444 187 Z" unicode="≠" />
<glyph horiz-adv-x="487" d="M 57 303 L 57 348 L 427 549 L 427 492 L 120 327 L 426 162 L 426 106 L 57 303 Z M 56 77 L 426 77 L 426 29 L 56 29 L 56 77 Z" unicode="≤" />
<glyph horiz-adv-x="487" d="M 425 303 L 56 106 L 56 162 L 362 327 L 56 492 L 56 549 L 425 348 L 425 303 Z M 426 77 L 426 29 L 56 29 L 56 77 L 426 77 Z" unicode="≥" />
<glyph horiz-adv-x="522" d="M 491 326 L 266 -6 L 256 -6 L 31 326 L 31 337 L 256 668 L 266 668 L 491 337 L 491 326 Z M 429 327 L 429 336 L 266 582 L 257 582 L 94 336 L 94 327 L 257 80 L 266 80 L 429 327 Z" unicode="◊" />
<glyph horiz-adv-x="730" d="M 448 692 L 282 692 L 282 730 L 448 730 L 448 692 Z M 659 282 L 619 282 L 619 448 L 659 448 L 659 282 Z M 111 282 L 71 282 L 71 448 L 111 448 L 111 282 Z M 414 316 L 316 316 L 316 414 L 414 414 L 414 316 Z M 448 0 L 282 0 L 282 39 L 448 39 L 448 0 Z" unicode="" />
<glyph horiz-adv-x="478" d="M 265 464 L 155 464 L 155 0 L 91 0 L 91 464 L 20 464 L 20 516 L 91 516 L 91 632 C 91 659 95 683 104 705 C 112 726 123 744 137 758 C 151 772 166 783 183 791 C 199 798 216 802 233 802 C 250 802 267 800 283 796 C 299 792 311 788 318 784 L 301 734 C 296 736 287 739 275 742 C 263 745 251 747 241 747 C 222 747 203 737 183 718 C 163 699 154 670 154 631 L 154 516 L 265 516 L 265 464 Z M 415 642 L 346 642 L 346 708 L 415 708 L 415 642 Z M 413 0 L 348 0 L 348 516 L 413 516 L 413 0 Z" unicode="ﬁ" />
<glyph horiz-adv-x="493" d="M 267 472 L 155 472 L 155 0 L 90 0 L 90 472 L 16 472 L 16 529 L 90 529 L 90 632 C 90 659 94 683 103 705 C 111 726 122 744 136 758 C 150 772 165 783 182 791 C 199 798 216 802 233 802 C 249 802 266 800 282 796 C 298 792 310 788 318 784 L 301 734 C 295 736 287 739 275 742 C 263 745 251 747 241 747 C 221 747 202 737 183 718 C 163 699 154 670 154 631 L 154 529 L 267 529 L 267 472 Z M 342 89 L 342 800 L 406 800 L 406 104 C 406 86 410 74 418 66 C 426 58 437 54 451 54 C 456 54 461 54 467 55 C 473 55 477 56 480 58 L 487 4 C 482 1 475 0 466 -2 C 456 -4 446 -5 436 -5 C 410 -5 387 2 369 18 C 351 34 342 57 342 89 Z" unicode="ﬂ" />
</font>
</defs>
</svg>
