<?xml version="1.0" encoding="utf-8" ?><svg version="1.1" xmlns = 'http://www.w3.org/2000/svg'><defs><font id='web' horiz-adv-x="1000">
<font-face font-family="web" descent="-200" cap-height="730" units-per-em="1000" bbox="-226,-335,1010,1034" x-height="567" ascent="800" />
<missing-glyph horiz-adv-x="500" d="" /><glyph horiz-adv-x="191" d="" unicode=" " />
<glyph horiz-adv-x="263" d="M 218 420 L 164 236 L 97 236 L 45 420 L 45 730 L 218 730 L 218 420 Z M 209 0 L 54 0 L 54 156 L 209 156 L 209 0 Z" unicode="!" />
<glyph horiz-adv-x="402" d="M 365 624 L 356 467 L 232 467 L 226 623 L 226 730 L 365 730 L 365 624 Z M 176 623 L 170 467 L 44 467 L 37 623 L 37 730 L 176 730 L 176 623 Z" unicode="&#x22;" />
<glyph horiz-adv-x="565" d="M 307 0 L 323 181 L 211 181 L 195 0 L 98 0 L 114 181 L 33 181 L 33 319 L 126 319 L 134 408 L 50 408 L 50 546 L 146 546 L 162 730 L 259 730 L 243 546 L 355 546 L 371 730 L 467 730 L 451 546 L 533 546 L 533 408 L 439 408 L 431 319 L 516 319 L 516 181 L 419 181 L 403 0 L 307 0 Z M 223 319 L 335 319 L 343 408 L 231 408 L 223 319 Z" unicode="#" />
<glyph horiz-adv-x="482" d="M 452 196 C 452 167 447 141 438 119 C 429 96 417 76 402 60 C 386 44 368 30 348 20 C 328 10 306 3 284 -1 L 284 -135 L 206 -135 L 206 -4 C 168 -2 132 5 100 18 C 68 30 38 53 10 85 L 88 181 C 102 161 120 145 143 134 C 166 122 189 117 211 117 C 233 117 255 123 275 136 C 295 149 305 170 305 199 C 305 225 296 245 279 261 C 262 277 232 297 189 323 C 169 335 149 348 131 362 C 112 376 95 391 81 409 C 67 426 55 446 47 469 C 39 492 35 519 35 549 C 35 599 51 640 84 672 C 117 704 158 724 206 732 L 206 795 L 284 795 L 284 733 C 320 729 350 721 375 708 C 399 695 420 680 436 664 L 355 569 C 342 581 327 592 310 600 C 293 608 276 612 260 612 C 242 612 224 605 208 592 C 192 579 184 562 185 541 C 185 520 192 502 205 487 C 217 472 247 452 293 426 C 347 395 387 363 413 331 C 439 299 452 254 452 196 Z" unicode="$" />
<glyph horiz-adv-x="739" d="M 178 361 C 160 361 142 364 124 372 C 105 380 88 391 74 407 C 59 423 47 442 38 466 C 28 490 24 517 24 549 C 24 602 38 647 68 683 C 98 719 133 738 173 738 C 195 738 216 733 236 723 C 256 713 273 699 287 683 C 301 666 313 646 321 624 C 329 601 334 577 334 552 C 334 525 329 500 321 477 C 312 453 300 433 286 416 C 272 398 255 385 236 375 C 217 365 198 361 178 361 Z M 186 0 L 102 0 L 531 730 L 614 730 L 186 0 Z M 178 468 C 195 468 206 476 212 492 C 218 508 221 527 221 550 C 221 572 218 591 212 607 C 206 623 195 631 179 631 C 162 631 151 623 145 607 C 139 591 136 572 136 550 C 136 528 138 508 144 492 C 150 476 161 468 178 468 Z M 556 -4 C 537 -4 519 0 501 7 C 483 15 466 26 452 42 C 438 58 426 77 417 101 C 408 125 404 152 404 184 C 404 237 418 282 447 318 C 476 354 513 373 558 373 C 581 373 602 368 622 358 C 641 348 657 334 671 318 C 685 301 695 281 703 259 C 711 236 715 212 715 187 C 715 160 711 135 703 112 C 695 88 683 68 669 51 C 655 33 638 20 619 10 C 599 0 578 -4 556 -4 Z M 558 104 C 574 104 585 111 592 126 C 598 140 602 160 602 184 C 602 208 598 228 591 244 C 584 259 573 267 558 267 C 544 267 533 259 526 244 C 519 228 516 208 516 184 C 516 160 519 141 525 126 C 531 111 542 104 558 104 Z" unicode="%" />
<glyph horiz-adv-x="634" d="M 539 -5 L 479 61 C 450 37 418 20 382 9 C 346 -2 306 -8 262 -8 C 180 -8 119 10 78 47 C 36 83 16 134 16 198 C 16 256 30 300 58 332 C 86 363 120 391 162 415 C 146 433 129 455 113 481 C 97 507 89 539 89 575 C 89 595 92 614 100 634 C 108 654 119 671 135 686 C 150 701 169 713 193 723 C 217 732 245 737 277 737 C 335 737 382 722 420 693 C 457 663 476 629 476 589 C 476 549 465 513 444 482 C 422 450 393 421 355 393 L 479 258 C 485 270 492 283 500 297 C 507 311 514 325 521 340 L 627 264 C 617 245 608 227 598 210 C 588 192 579 176 569 162 L 634 91 L 539 -5 Z M 234 561 C 234 548 237 535 244 523 C 250 510 260 496 274 480 C 296 496 311 512 318 526 C 325 540 329 553 329 567 C 329 580 325 593 318 605 C 311 617 299 623 281 623 C 264 623 252 616 245 602 C 237 588 234 575 234 561 Z M 187 214 C 187 186 197 163 219 145 C 241 127 264 118 290 118 C 309 118 327 121 345 127 C 363 133 379 142 395 155 L 247 321 C 228 306 213 290 203 273 C 192 255 187 236 187 214 Z" unicode="&#x26;" />
<glyph horiz-adv-x="218" d="M 182 619 L 176 460 L 42 460 L 36 619 L 36 730 L 182 730 L 182 619 Z" unicode="'" />
<glyph horiz-adv-x="308" d="M 293 -65 L 293 -179 C 259 -165 226 -144 193 -118 C 160 -92 131 -59 105 -20 C 79 18 57 64 41 117 C 25 169 17 228 17 293 C 17 355 24 412 39 464 C 53 515 73 560 98 598 C 123 636 152 667 186 693 C 220 718 255 737 293 749 L 293 639 C 256 618 227 581 206 529 C 184 476 173 397 173 293 C 173 201 182 126 201 68 C 220 10 251 -33 293 -65 Z" unicode="(" />
<glyph horiz-adv-x="308" d="M 15 638 L 15 749 C 51 737 86 719 120 694 C 154 668 183 637 208 599 C 233 561 253 516 268 464 C 283 412 291 353 291 289 C 291 225 283 168 267 117 C 251 65 230 20 204 -18 C 178 -57 149 -90 116 -117 C 82 -143 49 -164 15 -179 L 15 -64 C 55 -33 85 10 105 67 C 124 123 134 197 134 289 C 134 394 124 473 103 527 C 82 580 53 617 15 638 Z" unicode=")" />
<glyph horiz-adv-x="370" d="M 357 576 L 246 547 L 328 472 L 249 408 L 188 504 L 128 409 L 46 471 L 130 548 L 15 569 L 61 675 L 152 617 L 133 730 L 242 730 L 223 617 L 317 671 L 357 576 Z" unicode="*" />
<glyph horiz-adv-x="449" d="M 433 271 L 287 271 L 287 125 L 162 125 L 162 271 L 16 271 L 16 392 L 162 392 L 162 537 L 287 537 L 287 392 L 433 392 L 433 271 Z" unicode="+" />
<glyph horiz-adv-x="253" d="M 227 128 C 227 103 224 76 216 47 C 208 17 198 -10 187 -36 C 175 -62 163 -86 150 -106 C 137 -126 126 -139 117 -145 L -1 -93 C 6 -83 14 -70 22 -54 C 30 -38 37 -20 43 0 C 49 20 55 41 59 63 C 63 85 66 107 67 128 L 227 128 Z" unicode="," />
<glyph horiz-adv-x="322" d="M 296 209 L 26 209 L 26 350 L 296 350 L 296 209 Z" unicode="-" />
<glyph horiz-adv-x="255" d="M 206 0 L 49 0 L 49 160 L 206 160 L 206 0 Z" unicode="." />
<glyph horiz-adv-x="329" d="M 336 730 L 137 0 L -6 0 L 195 730 L 336 730 Z" unicode="/" />
<glyph horiz-adv-x="469" d="M 231 -6 C 201 -6 174 0 148 11 C 122 23 99 43 81 71 C 62 99 47 137 36 185 C 25 232 20 291 20 362 C 20 420 24 472 33 519 C 41 565 54 605 72 637 C 90 669 112 693 140 711 C 167 728 199 737 235 737 C 310 737 364 704 398 640 C 431 576 448 486 448 372 C 448 247 430 153 394 89 C 358 25 303 -6 231 -6 Z M 233 111 C 244 111 253 114 261 122 C 269 130 275 143 280 161 C 284 179 288 205 290 237 C 292 269 293 310 293 359 C 293 408 292 449 290 482 C 288 515 285 541 281 561 C 277 581 271 595 263 603 C 255 611 246 615 234 615 C 222 615 213 611 206 604 C 198 597 192 584 188 566 C 184 547 181 521 179 488 C 177 455 176 413 176 362 C 176 310 177 268 179 236 C 181 203 185 177 189 159 C 193 141 199 128 207 121 C 214 114 223 111 233 111 Z" unicode="0" />
<glyph horiz-adv-x="324" d="M 281 0 L 119 0 L 119 523 C 105 505 89 489 70 477 C 50 465 33 458 19 457 L 19 608 C 28 608 39 612 51 620 C 63 628 75 639 87 651 C 99 663 110 677 120 692 C 130 706 137 721 143 735 L 281 735 L 281 0 Z" unicode="1" />
<glyph horiz-adv-x="445" d="M 422 0 L 10 0 L 10 29 L 211 359 C 231 392 246 423 255 453 C 264 483 269 513 269 543 C 269 567 264 585 254 596 C 244 607 230 613 212 613 C 191 613 176 605 167 589 C 157 573 153 549 153 519 L 16 519 C 16 591 33 646 68 682 C 103 718 151 736 211 736 C 271 736 321 720 359 688 C 397 656 417 612 417 558 C 417 500 410 454 397 420 C 383 386 367 353 349 323 L 231 135 L 422 135 L 422 0 Z" unicode="2" />
<glyph horiz-adv-x="443" d="M 196 -6 C 146 -6 104 0 71 13 C 37 26 11 42 -8 60 L 45 159 C 59 146 76 135 97 125 C 118 115 143 111 172 111 C 208 111 235 122 253 146 C 271 169 280 197 280 229 C 280 266 269 292 247 306 C 225 320 201 328 176 328 L 112 328 L 112 457 L 181 457 C 205 457 226 463 242 477 C 258 491 266 511 266 539 C 266 560 259 578 246 594 C 233 610 212 618 184 618 C 158 618 135 612 116 602 C 97 591 81 578 67 564 L 7 648 C 13 656 23 665 35 675 C 47 685 62 695 80 704 C 97 713 117 721 140 727 C 162 733 187 737 215 737 C 273 737 319 721 353 691 C 387 660 405 620 405 572 C 405 524 392 485 367 456 C 342 426 314 407 282 399 C 321 391 355 371 384 340 C 412 309 427 269 427 221 C 427 195 423 169 415 143 C 407 116 395 92 377 70 C 359 48 336 29 306 15 C 276 1 240 -6 196 -6 Z" unicode="3" />
<glyph horiz-adv-x="453" d="M 449 171 L 388 171 L 388 0 L 253 0 L 253 171 L 2 171 L 2 268 L 290 735 L 389 735 L 388 301 L 449 301 L 449 171 Z M 258 291 L 258 495 L 138 291 L 258 291 Z" unicode="4" />
<glyph horiz-adv-x="442" d="M 218 -6 C 171 -6 127 2 87 20 C 47 38 17 57 -2 79 L 68 186 C 80 173 96 160 115 146 C 134 132 158 126 187 126 C 217 126 240 136 254 158 C 268 180 275 209 275 247 C 275 281 269 307 258 325 C 246 343 230 352 209 352 C 185 352 168 347 158 338 C 147 328 138 316 132 301 L 26 328 L 59 730 L 393 730 L 393 595 L 168 595 L 155 430 C 161 438 172 447 187 457 C 201 467 225 472 259 472 C 309 472 350 454 382 420 C 414 386 430 331 430 256 C 430 210 424 171 412 138 C 400 105 384 78 364 57 C 344 35 322 19 296 9 C 270 0 244 -6 218 -6 Z" unicode="5" />
<glyph horiz-adv-x="463" d="M 245 -7 C 217 -7 190 -2 163 8 C 136 18 112 33 91 53 C 69 73 52 99 39 130 C 25 160 19 196 19 238 C 19 310 34 377 64 439 C 94 501 134 566 184 634 L 266 748 L 379 687 L 340 623 C 322 593 303 567 285 543 C 266 519 249 498 233 479 C 217 460 202 443 190 427 C 178 411 168 396 162 383 C 175 403 194 420 218 434 C 242 448 265 455 288 455 C 333 455 371 434 403 394 C 435 353 451 299 451 233 C 451 197 445 165 434 135 C 423 105 408 80 390 59 C 371 38 349 22 324 10 C 299 -1 273 -7 245 -7 Z M 239 108 C 257 108 272 117 284 135 C 295 153 301 183 301 226 C 301 271 295 302 283 319 C 271 335 257 344 239 344 C 221 344 205 335 193 318 C 181 300 175 271 175 231 C 175 181 181 148 194 132 C 206 116 221 108 239 108 Z" unicode="6" />
<glyph horiz-adv-x="385" d="M 389 730 L 389 633 L 148 -12 L 15 40 L 236 595 L 12 595 L 12 730 L 389 730 Z" unicode="7" />
<glyph horiz-adv-x="464" d="M 332 396 C 344 392 358 385 372 377 C 386 369 399 357 411 343 C 422 328 431 309 439 287 C 447 265 451 238 451 207 C 451 139 431 87 391 50 C 351 12 299 -6 233 -6 C 167 -6 114 12 74 49 C 34 86 14 138 14 204 C 14 235 18 262 26 285 C 34 307 44 326 56 342 C 68 357 81 369 95 378 C 109 386 121 393 133 398 C 110 407 88 423 68 447 C 47 471 37 508 37 558 C 37 587 42 613 52 635 C 62 657 76 676 94 691 C 112 705 132 716 156 724 C 180 732 205 736 232 736 C 289 736 336 720 372 689 C 408 657 427 616 427 565 C 427 540 424 518 418 500 C 412 482 404 466 395 452 C 385 438 375 427 364 418 C 353 409 342 402 332 396 Z M 232 430 C 250 430 264 436 275 449 C 285 462 291 487 291 524 C 291 558 285 582 275 597 C 264 611 250 619 232 619 C 214 619 199 612 188 599 C 177 585 172 561 172 525 C 172 485 178 459 190 447 C 202 435 216 430 232 430 Z M 234 111 C 253 111 268 118 280 132 C 291 146 297 172 297 212 C 297 248 291 274 279 289 C 267 304 252 312 234 312 C 213 312 197 305 185 291 C 173 277 168 250 168 211 C 168 175 174 149 187 134 C 199 118 215 111 234 111 Z" unicode="8" />
<glyph horiz-adv-x="453" d="M 198 -15 L 84 53 L 120 107 C 134 127 149 148 167 171 C 185 194 202 216 219 238 C 235 260 251 280 265 300 C 279 319 291 335 299 349 C 285 330 266 315 240 303 C 214 291 189 285 167 285 C 122 285 85 305 56 347 C 26 388 12 441 12 507 C 12 541 17 572 28 600 C 39 628 54 653 73 673 C 92 693 114 708 140 719 C 165 730 192 736 220 736 C 246 736 272 731 298 721 C 324 711 347 697 367 678 C 387 658 403 634 415 604 C 427 574 434 540 434 500 C 434 420 418 347 386 282 C 354 216 316 152 270 88 L 198 -15 Z M 216 405 C 232 405 246 411 259 424 C 271 437 278 464 278 504 C 278 548 272 578 260 592 C 248 606 234 614 217 614 C 198 614 183 606 173 590 C 162 574 157 547 157 509 C 157 466 162 438 172 425 C 182 411 197 405 216 405 Z" unicode="9" />
<glyph horiz-adv-x="244" d="M 201 415 L 43 415 L 43 567 L 201 567 L 201 415 Z M 201 0 L 43 0 L 43 153 L 201 153 L 201 0 Z" unicode=":" />
<glyph horiz-adv-x="249" d="M 209 415 L 54 415 L 54 567 L 209 567 L 209 415 Z M 210 120 C 209 93 205 65 198 36 C 191 7 182 -19 172 -44 C 162 -69 151 -91 139 -109 C 127 -127 117 -139 107 -145 L -11 -93 C -3 -83 4 -71 13 -55 C 21 -39 29 -22 36 -3 C 43 15 49 35 53 57 C 57 78 58 99 58 120 L 210 120 Z" unicode=";" />
<glyph horiz-adv-x="413" d="M 364 102 L 25 271 L 25 378 L 364 545 L 364 408 L 174 326 L 364 243 L 364 102 Z" unicode="&#x3C;" />
<glyph horiz-adv-x="453" d="M 408 374 L 46 374 L 46 509 L 408 509 L 408 374 Z M 408 148 L 46 148 L 46 282 L 408 282 L 408 148 Z" unicode="=" />
<glyph horiz-adv-x="413" d="M 380 271 L 40 102 L 40 242 L 223 326 L 40 408 L 40 545 L 380 378 L 380 271 Z" unicode="&#x3E;" />
<glyph horiz-adv-x="442" d="M 134 238 C 134 267 140 295 152 321 C 164 347 180 373 201 400 C 217 421 230 442 241 464 C 251 486 257 509 257 534 C 257 556 250 573 237 585 C 223 597 207 603 189 603 C 169 603 152 597 138 586 C 124 575 111 562 101 546 L 10 638 C 36 674 68 700 106 717 C 144 733 182 742 221 742 C 290 742 341 724 374 689 C 406 653 423 609 423 557 C 423 506 412 463 392 429 C 372 394 349 359 323 325 C 311 311 302 297 296 281 C 289 265 285 250 284 238 L 134 238 Z M 127 0 L 127 161 L 298 161 L 298 0 L 127 0 Z" unicode="?" />
<glyph horiz-adv-x="772" d="M 380 -67 C 324 -67 273 -57 229 -37 C 184 -17 146 9 116 43 C 86 77 63 117 47 163 C 31 209 23 258 23 310 C 23 362 31 411 48 457 C 65 503 89 542 121 576 C 152 610 190 637 236 657 C 281 677 332 687 388 687 C 444 687 495 679 540 663 C 584 647 622 624 653 594 C 684 564 708 527 724 484 C 740 441 749 393 749 340 C 749 296 743 259 732 228 C 721 197 707 172 691 152 C 675 132 657 118 637 109 C 617 100 599 96 582 96 C 555 96 533 101 515 113 C 497 124 484 140 476 162 C 462 145 444 130 424 116 C 403 102 375 96 339 96 C 289 96 253 108 230 134 C 206 160 195 194 195 238 C 195 262 201 283 213 301 C 225 319 241 333 260 345 C 279 356 300 364 323 370 C 345 376 367 379 388 379 L 452 379 L 452 389 C 452 406 447 420 437 431 C 427 441 408 447 382 447 C 359 447 338 443 320 437 C 302 431 288 425 278 421 L 240 504 C 258 513 280 521 304 527 C 328 533 358 536 392 536 C 443 536 484 524 514 500 C 544 476 559 432 559 369 L 559 225 C 559 215 562 208 570 202 C 577 196 586 193 598 193 C 612 193 627 203 641 223 C 655 243 663 281 663 337 C 663 420 639 486 591 534 C 543 582 475 606 387 606 C 343 606 303 598 269 582 C 234 566 205 545 182 519 C 158 492 140 461 128 425 C 115 389 109 350 109 309 C 109 268 115 229 127 193 C 139 156 156 124 179 97 C 202 69 231 48 265 32 C 299 16 338 8 382 8 C 402 8 420 9 436 13 C 452 16 471 23 494 34 L 523 -34 C 495 -46 471 -55 450 -60 C 428 -64 405 -67 380 -67 Z M 377 185 C 397 185 413 189 425 198 C 437 206 445 215 451 224 L 451 308 L 386 308 C 367 308 350 302 336 292 C 322 282 315 267 315 248 C 315 227 319 211 329 201 C 339 190 355 185 377 185 Z" unicode="@" />
<glyph horiz-adv-x="510" d="M 515 0 L 354 0 L 323 125 L 179 125 L 151 0 L -5 0 L 197 733 L 315 733 L 515 0 Z M 308 245 L 250 466 L 197 245 L 308 245 Z" unicode="A" />
<glyph horiz-adv-x="498" d="M 41 0 L 41 730 L 277 730 C 328 730 370 714 404 684 C 438 654 455 613 455 561 C 455 509 442 469 416 442 C 390 414 359 397 325 391 C 343 389 361 383 380 375 C 399 367 416 355 432 341 C 447 326 460 308 470 286 C 480 264 485 238 485 209 C 485 176 479 147 469 121 C 459 95 445 73 427 55 C 409 37 387 24 363 14 C 338 4 312 0 285 0 L 41 0 Z M 203 430 L 238 430 C 264 430 281 439 290 459 C 299 478 304 499 304 522 C 304 552 298 573 287 586 C 275 599 256 606 230 606 L 203 606 L 203 430 Z M 203 121 L 251 121 C 278 121 297 129 308 147 C 319 165 325 187 325 215 C 325 251 318 276 304 292 C 290 308 268 316 240 316 L 203 316 L 203 121 Z" unicode="B" />
<glyph horiz-adv-x="525" d="M 277 -6 C 199 -6 138 25 92 87 C 46 149 23 242 23 366 C 23 422 28 474 39 520 C 49 566 65 605 87 637 C 108 669 135 693 167 710 C 199 727 237 736 280 736 C 347 736 398 719 432 685 C 466 651 489 603 500 541 L 358 512 C 351 540 342 562 332 579 C 322 596 306 605 284 605 C 270 605 257 601 245 595 C 233 588 224 576 216 558 C 208 540 202 515 198 484 C 194 452 192 412 192 363 C 192 313 195 273 201 242 C 207 210 214 186 224 169 C 234 152 245 140 258 134 C 270 128 283 125 297 125 C 321 125 340 132 352 148 C 364 163 374 185 382 214 L 508 175 C 490 113 461 67 422 38 C 382 8 334 -6 277 -6 Z" unicode="C" />
<glyph horiz-adv-x="555" d="M 41 0 L 41 730 L 236 730 C 284 730 326 720 363 702 C 400 684 431 658 455 626 C 479 594 498 555 511 509 C 523 463 530 413 530 359 C 530 308 523 261 511 217 C 499 173 480 135 455 103 C 430 71 399 45 361 27 C 323 9 278 0 228 0 L 41 0 Z M 210 135 L 240 135 C 284 135 314 153 332 190 C 350 226 359 282 359 358 C 359 446 348 508 327 543 C 306 577 278 595 242 595 L 210 595 L 210 135 Z" unicode="D" />
<glyph horiz-adv-x="423" d="M 413 0 L 41 0 L 41 730 L 392 730 L 392 588 L 207 588 L 207 433 L 380 433 L 380 292 L 207 292 L 207 142 L 413 142 L 413 0 Z" unicode="E" />
<glyph horiz-adv-x="386" d="M 377 588 L 212 588 L 212 434 L 366 434 L 366 293 L 212 293 L 212 0 L 42 0 L 42 730 L 377 730 L 377 588 Z" unicode="F" />
<glyph horiz-adv-x="533" d="M 282 390 L 507 390 L 507 117 C 491 83 463 53 425 29 C 387 5 337 -7 277 -7 C 242 -7 209 0 178 16 C 147 32 120 55 97 86 C 74 117 56 156 43 203 C 29 249 23 303 23 364 C 23 420 28 472 40 518 C 52 564 68 603 90 635 C 111 667 137 691 169 709 C 200 726 235 735 274 735 C 334 735 382 721 418 695 C 453 668 477 626 491 570 L 357 526 C 351 548 343 567 332 582 C 320 597 305 605 285 605 C 256 605 233 587 217 552 C 200 517 192 454 192 364 C 192 316 194 276 199 244 C 204 212 211 187 219 169 C 227 151 237 138 249 130 C 261 122 274 119 288 119 C 306 119 322 122 336 129 C 350 135 359 145 365 159 L 365 271 L 282 271 L 282 390 Z" unicode="G" />
<glyph horiz-adv-x="550" d="M 509 0 L 339 0 L 339 291 L 211 291 L 211 0 L 41 0 L 41 730 L 211 730 L 211 430 L 339 430 L 339 730 L 509 730 L 509 0 Z" unicode="H" />
<glyph horiz-adv-x="262" d="M 217 0 L 45 0 L 45 730 L 217 730 L 217 0 Z" unicode="I" />
<glyph horiz-adv-x="333" d="M 294 730 L 294 181 C 294 125 277 79 243 44 C 209 8 164 -9 108 -9 C 93 -9 75 -7 55 -3 C 34 0 13 7 -9 17 L 28 151 C 31 149 37 146 45 144 C 53 142 62 141 71 141 C 87 141 99 148 109 162 C 119 176 124 196 124 221 L 124 730 L 294 730 Z" unicode="J" />
<glyph horiz-adv-x="550" d="M 560 0 L 373 0 L 229 259 L 212 239 L 212 0 L 41 0 L 41 730 L 212 730 L 212 471 L 370 730 L 543 730 L 330 410 L 560 0 Z" unicode="K" />
<glyph horiz-adv-x="376" d="M 368 0 L 41 0 L 41 730 L 211 730 L 211 142 L 368 142 L 368 0 Z" unicode="L" />
<glyph horiz-adv-x="666" d="M 624 0 L 464 0 L 464 381 L 370 126 L 297 126 L 201 381 L 201 0 L 41 0 L 41 730 L 196 730 L 335 370 L 481 730 L 624 730 L 624 0 Z" unicode="M" />
<glyph horiz-adv-x="538" d="M 496 0 L 379 0 L 200 368 L 200 0 L 41 0 L 41 730 L 162 730 L 346 364 L 344 730 L 496 730 L 496 0 Z" unicode="N" />
<glyph horiz-adv-x="565" d="M 285 -6 C 194 -6 128 26 86 91 C 44 156 23 249 23 370 C 23 483 45 572 89 638 C 133 703 197 736 280 736 C 368 736 433 704 477 641 C 520 578 542 486 542 365 C 542 250 519 159 474 93 C 428 27 365 -6 285 -6 Z M 282 123 C 314 123 336 141 350 178 C 363 215 370 280 370 372 C 370 457 362 517 348 553 C 334 589 311 607 281 607 C 249 607 226 589 214 554 C 202 519 196 456 196 366 C 196 273 202 209 216 175 C 229 140 251 123 282 123 Z" unicode="O" />
<glyph horiz-adv-x="495" d="M 41 0 L 41 730 L 278 730 C 306 730 332 724 357 713 C 381 702 403 687 422 667 C 440 647 455 624 466 597 C 476 569 482 539 482 507 C 482 439 462 384 424 341 C 385 297 336 276 276 276 L 211 276 L 211 0 L 41 0 Z M 211 396 L 244 396 C 270 396 290 405 302 423 C 314 441 321 469 321 507 C 321 541 313 566 299 583 C 285 600 266 609 242 609 L 211 609 L 211 396 Z" unicode="P" />
<glyph horiz-adv-x="565" d="M 517 -22 L 517 -164 C 465 -155 422 -135 387 -105 C 351 -74 323 -40 303 -2 C 300 -2 297 -3 294 -3 C 290 -3 287 -3 285 -3 C 197 -3 132 29 88 93 C 44 157 23 249 23 370 C 23 483 45 572 91 638 C 137 703 200 736 280 736 C 366 736 431 704 475 641 C 519 578 542 486 542 365 C 542 287 531 221 509 165 C 487 109 456 66 417 38 C 431 20 447 7 465 -3 C 483 -13 500 -19 517 -22 Z M 282 122 C 314 122 336 141 350 181 C 364 220 371 283 371 371 C 371 417 369 456 365 487 C 361 517 355 541 348 559 C 340 577 331 589 320 596 C 308 603 296 607 282 607 C 266 607 252 603 241 596 C 230 588 221 576 214 558 C 207 540 202 515 199 484 C 196 452 195 413 195 366 C 195 278 201 216 214 178 C 227 140 250 122 282 122 Z" unicode="Q" />
<glyph horiz-adv-x="495" d="M 41 0 L 41 730 L 255 730 C 313 730 361 713 398 679 C 435 645 454 594 454 525 C 454 477 444 436 425 402 C 406 368 383 346 356 338 L 350 332 L 500 0 L 333 0 L 219 270 L 198 270 L 198 0 L 41 0 Z M 198 400 L 234 400 C 254 400 271 409 285 428 C 299 446 306 472 306 505 C 306 542 299 568 286 584 C 272 600 257 608 240 608 L 198 608 L 198 400 Z" unicode="R" />
<glyph horiz-adv-x="454" d="M 225 -6 C 181 -6 141 0 106 11 C 70 23 37 47 6 83 L 94 174 C 106 155 123 140 144 130 C 165 119 186 114 206 114 C 227 114 246 120 263 134 C 280 148 289 167 289 193 C 289 220 280 241 264 257 C 247 272 218 293 178 319 C 158 331 140 344 122 358 C 104 372 89 389 75 407 C 61 425 51 446 43 470 C 35 494 31 521 31 551 C 31 579 36 605 48 628 C 59 650 74 670 93 686 C 112 702 134 714 160 723 C 185 731 212 736 241 736 C 287 736 324 728 353 714 C 382 700 405 684 421 666 L 334 572 C 324 582 311 591 296 599 C 281 607 266 611 250 611 C 233 611 217 605 203 593 C 188 581 181 565 182 545 C 182 525 189 508 201 493 C 213 478 241 457 285 431 C 337 400 375 367 399 333 C 423 299 436 253 436 195 C 436 160 429 130 417 105 C 405 79 389 58 369 42 C 349 26 327 14 302 6 C 276 -2 251 -6 225 -6 Z" unicode="S" />
<glyph horiz-adv-x="401" d="M 397 588 L 287 588 L 287 0 L 117 0 L 117 588 L 4 588 L 4 730 L 397 730 L 397 588 Z" unicode="T" />
<glyph horiz-adv-x="550" d="M 511 730 L 511 231 C 511 189 504 152 490 122 C 476 92 457 67 434 48 C 411 29 385 15 355 6 C 325 -2 295 -7 265 -7 C 235 -7 206 -2 179 5 C 151 13 127 27 107 46 C 86 64 69 89 57 120 C 45 150 39 187 39 231 L 39 730 L 208 730 L 208 223 C 208 192 213 170 224 158 C 235 145 250 139 269 139 C 287 139 303 145 315 157 C 327 169 333 191 333 223 L 333 730 L 511 730 Z" unicode="U" />
<glyph horiz-adv-x="473" d="M 478 730 L 298 -3 L 176 -3 L -5 730 L 157 730 L 241 294 L 323 730 L 478 730 Z" unicode="V" />
<glyph horiz-adv-x="708" d="M 702 730 L 554 -3 L 441 -3 L 351 412 L 258 -3 L 144 -3 L -3 730 L 156 730 L 225 300 L 298 729 L 418 729 L 489 301 L 560 730 L 702 730 Z" unicode="W" />
<glyph horiz-adv-x="482" d="M 315 0 L 232 195 L 147 0 L -4 0 L 158 370 L 6 730 L 172 730 L 243 563 L 316 730 L 466 730 L 316 388 L 480 0 L 315 0 Z" unicode="X" />
<glyph horiz-adv-x="487" d="M 499 730 L 326 297 L 326 0 L 156 0 L 156 301 L -12 730 L 162 730 L 247 464 L 345 730 L 499 730 Z" unicode="Y" />
<glyph horiz-adv-x="436" d="M 412 730 L 412 644 L 204 139 L 423 139 L 423 0 L 13 0 L 13 82 L 227 591 L 35 591 L 35 730 L 412 730 Z" unicode="Z" />
<glyph horiz-adv-x="274" d="M 262 -179 L 45 -179 L 45 730 L 262 730 L 262 599 L 194 599 L 194 -48 L 262 -48 L 262 -179 Z" unicode="[" />
<glyph horiz-adv-x="329" d="M -6 730 L 133 730 L 336 0 L 193 0 L -6 730 Z" unicode="\" />
<glyph horiz-adv-x="278" d="M 235 -179 L 18 -179 L 18 -48 L 86 -48 L 86 599 L 18 599 L 18 730 L 235 730 L 235 -179 Z" unicode="]" />
<glyph horiz-adv-x="438" d="M 423 369 L 289 369 L 219 567 L 148 369 L 15 369 L 153 730 L 286 730 L 423 369 Z" unicode="^" />
<glyph horiz-adv-x="422" d="M 422 -179 L 0 -179 L 0 -53 L 422 -53 L 422 -179 Z" unicode="_" />
<glyph horiz-adv-x="500" d="M 385 626 L 236 626 L 111 801 L 289 801 L 385 626 Z" unicode="`" />
<glyph horiz-adv-x="420" d="M 391 0 L 255 0 L 255 45 C 239 25 222 12 204 5 C 186 -2 164 -6 140 -6 C 100 -6 70 11 48 46 C 26 81 16 125 16 178 C 16 241 31 287 63 316 C 94 344 134 359 182 361 L 246 364 L 246 399 C 246 419 240 434 230 445 C 219 455 203 461 181 461 C 159 461 139 457 122 450 C 105 443 92 436 84 430 L 44 535 C 60 545 83 555 111 565 C 139 574 177 579 223 579 C 273 579 313 564 344 536 C 375 507 391 468 391 418 L 391 0 Z M 248 128 L 248 272 L 214 270 C 198 269 186 261 176 246 C 166 231 161 208 161 178 C 161 149 165 129 175 118 C 184 107 193 102 203 102 C 214 102 223 104 230 109 C 237 114 243 120 248 128 Z" unicode="a" />
<glyph horiz-adv-x="462" d="M 285 -4 C 258 -4 235 1 217 11 C 198 21 184 33 175 47 L 175 0 L 32 0 L 32 800 L 179 800 L 179 484 C 186 507 199 527 218 544 C 237 561 263 570 296 570 C 342 570 378 544 404 494 C 430 443 444 376 444 294 C 444 198 428 125 397 73 C 366 21 329 -4 285 -4 Z M 227 104 C 243 104 256 116 266 140 C 276 164 281 210 281 280 C 281 345 276 389 267 411 C 257 433 244 445 228 445 C 221 445 215 443 209 439 C 203 435 197 427 192 415 C 187 403 183 385 180 362 C 177 339 176 309 176 271 C 176 235 177 207 180 185 C 182 163 186 146 191 134 C 195 122 201 114 207 110 C 213 106 220 104 227 104 Z" unicode="b" />
<glyph horiz-adv-x="381" d="M 324 145 L 374 58 C 358 41 339 26 318 13 C 296 0 265 -6 223 -6 C 189 -6 160 1 134 16 C 108 31 87 52 69 78 C 51 104 38 134 29 170 C 20 205 16 243 16 283 C 16 321 20 358 29 393 C 38 428 51 459 69 485 C 87 511 109 532 136 548 C 162 564 193 572 228 572 C 265 572 296 565 320 551 C 344 537 362 521 375 504 L 313 416 C 304 426 294 434 284 439 C 273 444 261 447 247 447 C 226 447 209 434 197 410 C 185 386 179 347 179 294 C 179 224 188 177 206 153 C 224 129 243 117 262 117 C 274 117 286 119 297 125 C 307 131 316 137 324 145 Z" unicode="c" />
<glyph horiz-adv-x="470" d="M 188 -6 C 162 -6 139 1 118 15 C 97 29 79 48 65 73 C 50 97 38 127 30 162 C 22 196 18 234 18 275 C 18 365 34 437 66 489 C 98 541 138 568 187 568 C 211 568 233 561 253 549 C 272 537 285 522 292 504 L 292 800 L 438 800 L 438 0 L 300 0 L 300 53 C 294 38 280 24 259 12 C 238 0 214 -6 188 -6 Z M 242 103 C 258 103 271 115 281 141 C 290 166 295 214 295 286 C 295 322 293 350 291 372 C 288 394 284 410 279 422 C 274 433 268 440 261 444 C 254 448 247 450 239 450 C 230 450 222 447 216 443 C 209 438 203 429 199 417 C 195 405 191 388 189 366 C 187 344 186 315 186 281 C 186 245 187 215 189 192 C 191 168 195 150 200 137 C 204 124 210 115 217 110 C 224 105 232 103 242 103 Z" unicode="d" />
<glyph horiz-adv-x="437" d="M 222 -6 C 161 -6 111 19 73 69 C 35 119 16 189 16 278 C 16 372 35 444 73 495 C 111 545 159 571 217 571 C 284 571 335 544 370 492 C 405 439 423 358 423 248 L 171 248 C 171 211 179 179 196 153 C 213 126 238 113 271 113 C 291 113 310 118 328 130 C 345 141 359 152 370 163 L 417 89 C 409 79 398 68 386 57 C 373 46 358 36 342 27 C 326 17 307 9 287 3 C 267 -2 245 -6 222 -6 Z M 167 344 L 280 344 C 280 384 274 414 264 432 C 254 450 241 459 227 459 C 211 459 197 449 185 431 C 173 413 167 384 167 344 Z" unicode="e" />
<glyph horiz-adv-x="260" d="M 264 444 L 207 444 L 207 0 L 52 0 L 52 444 L 3 444 L 3 567 L 52 567 L 52 649 C 52 671 57 692 68 711 C 78 729 92 745 108 759 C 124 772 142 782 162 790 C 182 797 201 801 220 801 C 228 801 241 799 259 795 C 276 791 291 785 305 776 L 265 670 C 264 670 261 671 257 673 C 252 675 245 676 237 676 C 224 676 215 671 211 663 C 206 654 204 640 204 622 L 204 567 L 264 567 L 264 444 Z" unicode="f" />
<glyph horiz-adv-x="469" d="M 186 24 C 163 24 141 30 121 42 C 101 54 83 71 68 94 C 52 117 40 145 31 179 C 22 213 18 251 18 295 C 18 340 22 380 32 415 C 41 449 53 478 69 501 C 85 524 103 542 123 554 C 143 566 164 572 186 572 C 212 572 235 565 254 552 C 272 538 286 523 295 506 L 295 567 L 436 567 L 436 18 C 436 -20 429 -52 416 -79 C 403 -105 386 -127 365 -144 C 344 -161 320 -173 294 -181 C 267 -189 240 -193 214 -193 C 174 -193 139 -188 111 -180 C 83 -171 62 -161 50 -151 L 92 -51 C 107 -57 122 -63 138 -67 C 154 -71 173 -74 196 -74 C 222 -74 245 -64 263 -46 C 281 -27 291 0 291 37 L 291 92 C 283 73 269 57 250 44 C 231 30 210 24 186 24 Z M 238 139 C 247 139 255 141 262 145 C 269 149 275 157 280 169 C 285 181 289 197 291 218 C 293 239 295 266 295 300 C 295 331 293 357 290 377 C 287 397 283 413 278 425 C 272 436 266 444 259 448 C 252 452 245 454 237 454 C 219 454 206 443 196 421 C 186 399 181 358 181 299 C 181 239 185 197 195 174 C 205 150 219 139 238 139 Z" unicode="g" />
<glyph horiz-adv-x="459" d="M 430 0 L 275 0 L 275 406 C 275 420 271 431 263 439 C 255 446 246 450 234 450 C 221 450 210 446 201 438 C 191 430 187 417 187 399 L 187 0 L 32 0 L 32 800 L 178 800 L 178 517 C 184 532 197 545 217 556 C 236 566 261 572 293 572 C 333 572 365 562 391 543 C 417 523 430 491 430 446 L 430 0 Z" unicode="h" />
<glyph horiz-adv-x="223" d="M 32 626 L 32 746 L 191 746 L 191 626 L 32 626 Z M 34 0 L 34 567 L 189 567 L 189 0 L 34 0 Z" unicode="i" />
<glyph horiz-adv-x="231" d="M 199 626 L 41 626 L 41 746 L 199 746 L 199 626 Z M 197 567 L 197 -49 C 197 -85 183 -116 157 -144 C 131 -172 96 -186 52 -186 C 32 -186 13 -183 -4 -178 C -22 -172 -34 -167 -39 -163 L -9 -59 C -6 -59 -2 -60 1 -62 C 5 -63 11 -64 17 -64 C 24 -64 30 -61 35 -55 C 40 -49 43 -41 43 -32 L 43 567 L 197 567 Z" unicode="j" />
<glyph horiz-adv-x="442" d="M 453 0 L 290 0 L 210 191 L 186 152 L 186 0 L 32 0 L 32 800 L 178 800 L 178 347 L 289 567 L 445 567 L 317 323 L 453 0 Z" unicode="k" />
<glyph horiz-adv-x="251" d="M 31 155 L 31 800 L 185 800 L 185 171 C 185 151 187 137 192 129 C 197 120 205 116 217 116 C 220 116 223 116 226 117 C 228 117 231 118 233 119 L 249 12 C 241 7 231 3 219 0 C 207 -3 192 -5 174 -5 C 136 -5 102 9 74 37 C 45 65 31 104 31 155 Z" unicode="l" />
<glyph horiz-adv-x="693" d="M 32 0 L 32 567 L 171 567 L 171 493 C 178 522 195 543 222 555 C 248 567 276 573 305 573 C 335 573 360 566 378 554 C 396 541 408 521 412 494 L 416 494 C 424 518 440 538 463 552 C 486 566 516 573 552 573 C 582 573 609 564 631 546 C 653 528 664 497 664 454 L 664 0 L 510 0 L 510 400 C 510 420 506 434 498 441 C 490 448 479 452 467 452 C 455 452 444 448 436 440 C 427 432 423 416 423 394 L 423 0 L 271 0 L 271 404 C 271 424 267 437 259 443 C 251 449 242 452 230 452 C 218 452 208 448 198 441 C 188 434 184 419 184 397 L 184 0 L 32 0 Z" unicode="m" />
<glyph horiz-adv-x="458" d="M 428 0 L 273 0 L 273 410 C 273 422 269 432 261 440 C 253 447 244 451 233 451 C 220 451 209 447 200 439 C 191 431 187 418 187 400 L 187 0 L 32 0 L 32 567 L 173 567 L 173 503 C 181 523 196 539 218 552 C 240 565 268 572 302 572 C 340 572 370 562 393 544 C 416 525 428 494 428 450 L 428 0 Z" unicode="n" />
<glyph horiz-adv-x="459" d="M 228 -6 C 198 -6 170 0 144 11 C 118 23 95 40 77 64 C 58 87 43 117 32 154 C 21 190 16 233 16 283 C 16 373 35 443 74 495 C 112 546 162 572 224 572 C 289 572 342 549 382 504 C 422 459 443 391 443 300 C 443 202 423 127 385 74 C 346 20 294 -6 228 -6 Z M 230 107 C 239 107 247 109 254 114 C 260 119 266 128 270 142 C 274 155 276 174 278 198 C 280 222 281 252 281 290 C 281 324 280 353 278 375 C 276 397 272 414 268 426 C 264 438 258 447 252 451 C 245 455 237 458 228 458 C 219 458 211 455 205 451 C 199 447 194 438 190 426 C 186 414 183 397 181 375 C 179 353 178 324 178 290 C 178 251 179 220 181 196 C 183 172 187 153 191 140 C 195 126 201 117 207 113 C 213 109 221 107 230 107 Z" unicode="o" />
<glyph horiz-adv-x="461" d="M 32 -200 L 32 567 L 170 567 L 170 478 C 176 502 191 524 214 543 C 236 562 263 572 294 572 C 320 572 342 565 361 552 C 380 539 396 521 408 498 C 420 475 428 447 434 415 C 440 382 443 347 443 309 C 443 208 429 131 402 77 C 375 23 337 -4 287 -4 C 263 -4 242 0 223 9 C 203 17 188 30 178 47 L 178 -200 L 32 -200 Z M 224 106 C 232 106 239 108 246 113 C 252 117 258 126 263 138 C 268 150 272 167 275 189 C 277 211 279 239 279 273 C 279 337 274 382 265 408 C 256 433 243 446 225 446 C 218 446 211 444 205 440 C 199 436 193 427 188 415 C 183 403 179 385 177 361 C 174 337 173 306 173 267 C 173 231 174 203 177 182 C 179 160 183 144 187 133 C 191 121 197 114 203 111 C 209 107 216 106 224 106 Z" unicode="p" />
<glyph horiz-adv-x="469" d="M 292 -200 L 292 73 C 284 49 269 31 247 17 C 225 3 200 -3 174 -3 C 128 -3 90 20 61 67 C 32 114 18 182 18 272 C 18 326 22 372 31 410 C 39 448 51 479 66 503 C 81 527 99 544 119 555 C 139 566 161 572 184 572 C 212 572 236 564 257 548 C 278 532 293 513 303 492 L 303 567 L 438 567 L 438 -200 L 292 -200 Z M 238 103 C 246 103 254 105 261 109 C 268 113 274 122 279 136 C 283 149 287 168 289 192 C 291 216 293 247 293 286 C 293 353 287 398 277 422 C 267 446 252 458 234 458 C 226 458 218 455 212 450 C 205 445 199 436 194 423 C 189 409 185 391 183 368 C 180 344 179 314 179 278 C 179 220 184 176 194 147 C 204 117 219 103 238 103 Z" unicode="q" />
<glyph horiz-adv-x="340" d="M 349 547 L 304 410 C 294 416 286 421 278 425 C 270 428 260 430 250 430 C 236 430 222 424 208 412 C 194 400 188 377 188 343 L 188 0 L 32 0 L 32 567 L 172 567 L 172 490 C 178 512 191 532 209 548 C 227 564 248 572 270 572 C 288 572 304 569 318 563 C 331 557 341 552 349 547 Z" unicode="r" />
<glyph horiz-adv-x="358" d="M 181 -6 C 143 -6 108 1 77 17 C 46 32 23 51 7 74 L 69 164 C 81 147 96 134 114 125 C 131 116 146 112 160 112 C 174 112 185 115 195 123 C 205 131 210 142 210 157 C 210 173 202 186 188 198 C 173 210 154 222 132 236 C 105 252 80 274 58 300 C 36 326 25 364 25 415 C 25 435 28 455 36 475 C 44 494 54 511 68 526 C 82 540 98 552 118 561 C 137 569 158 574 181 574 C 213 574 242 568 269 558 C 295 548 317 536 333 522 L 284 417 C 274 425 260 434 242 442 C 224 450 209 454 196 454 C 184 454 173 451 164 445 C 155 439 151 430 151 418 C 151 404 158 392 173 382 C 187 371 208 357 236 340 C 273 316 300 290 316 263 C 332 235 341 199 341 154 C 341 124 335 99 325 79 C 314 59 301 42 285 30 C 269 17 251 8 233 2 C 214 -3 197 -6 181 -6 Z" unicode="s" />
<glyph horiz-adv-x="294" d="M 261 132 L 294 31 C 285 22 273 14 259 6 C 244 -1 224 -5 200 -5 C 183 -5 166 -1 148 5 C 130 11 113 21 99 35 C 85 48 73 64 64 84 C 54 104 50 127 50 153 L 50 444 L 6 444 L 6 567 L 54 567 L 54 693 L 199 699 L 199 567 L 268 567 L 268 444 L 204 444 L 204 154 C 204 144 206 136 211 131 C 216 126 223 124 232 124 C 237 124 242 124 248 126 C 253 128 257 130 261 132 Z" unicode="t" />
<glyph horiz-adv-x="459" d="M 30 567 L 184 567 L 184 156 C 184 138 188 126 196 118 C 204 110 215 106 227 106 C 239 106 249 110 258 120 C 267 130 272 147 272 172 L 272 567 L 427 567 L 427 0 L 281 0 L 281 61 C 273 42 257 26 233 13 C 209 0 184 -7 158 -7 C 124 -7 95 3 69 25 C 43 46 30 79 30 124 L 30 567 Z" unicode="u" />
<glyph horiz-adv-x="401" d="M 406 567 L 261 -3 L 140 -3 L -5 567 L 149 567 L 211 271 L 274 567 L 406 567 Z" unicode="v" />
<glyph horiz-adv-x="597" d="M 359 -3 L 300 237 L 238 -3 L 122 -3 L 0 567 L 145 567 L 206 226 L 254 460 L 353 460 L 402 227 L 465 567 L 598 567 L 474 -3 L 359 -3 Z" unicode="w" />
<glyph horiz-adv-x="402" d="M 241 0 L 189 125 L 131 0 L 6 0 L 129 270 L 6 567 L 157 567 L 209 445 L 264 567 L 396 567 L 271 299 L 398 0 L 241 0 Z" unicode="x" />
<glyph horiz-adv-x="405" d="M 410 567 L 235 -90 C 225 -126 204 -153 174 -172 C 144 -190 110 -200 74 -200 C 51 -200 31 -197 15 -192 C 0 -186 -12 -181 -18 -177 L 21 -76 C 23 -78 29 -81 37 -84 C 45 -86 52 -88 60 -88 C 73 -88 84 -82 94 -72 C 103 -62 110 -46 115 -26 L 132 48 L -5 567 L 151 567 L 212 262 L 272 567 L 410 567 Z" unicode="y" />
<glyph horiz-adv-x="368" d="M 352 567 L 352 504 L 192 122 L 357 122 L 357 0 L 11 0 L 11 48 L 177 444 L 22 444 L 22 567 L 352 567 Z" unicode="z" />
<glyph horiz-adv-x="288" d="M 273 -179 C 237 -179 204 -174 175 -165 C 146 -155 121 -143 101 -128 C 81 -113 65 -96 54 -78 C 43 -59 38 -40 38 -22 C 38 -1 40 18 44 37 C 48 55 53 72 58 88 C 62 102 67 116 71 129 C 75 142 78 154 78 165 C 78 181 72 196 61 210 C 49 223 33 230 12 230 L 12 340 C 33 340 49 346 61 360 C 73 374 79 390 79 409 C 79 415 76 426 72 441 C 68 455 63 471 57 488 C 51 504 47 521 44 537 C 40 553 39 569 39 584 C 39 602 44 621 55 641 C 65 661 81 678 101 694 C 121 710 146 723 175 733 C 204 743 237 749 273 749 L 273 627 C 253 627 233 620 214 607 C 194 594 185 576 185 554 C 185 545 185 535 187 524 C 188 512 191 501 195 490 C 200 474 205 458 210 444 C 214 430 217 417 217 406 C 217 380 210 356 198 333 C 185 310 165 294 137 285 C 165 275 186 259 198 236 C 210 212 217 189 217 166 C 217 151 215 137 211 125 C 207 113 202 101 198 89 C 193 77 189 64 187 51 C 185 38 184 26 184 16 C 184 -4 193 -21 212 -35 C 231 -49 251 -57 273 -57 L 273 -179 Z" unicode="{" />
<glyph horiz-adv-x="241" d="M 195 -179 L 47 -179 L 47 730 L 195 730 L 195 -179 Z" unicode="|" />
<glyph horiz-adv-x="288" d="M 16 -179 L 16 -57 C 36 -57 56 -49 75 -35 C 94 -21 104 -4 104 16 C 104 26 102 38 100 51 C 98 64 94 77 90 89 C 86 101 81 113 77 125 C 73 137 71 151 71 166 C 71 189 77 212 89 236 C 101 259 122 275 150 285 C 122 294 102 310 90 333 C 77 356 71 380 71 406 C 71 417 73 430 78 444 C 82 458 88 474 94 490 C 97 501 99 512 101 524 C 103 535 104 545 104 554 C 104 576 94 594 74 607 C 54 620 35 627 16 627 L 16 749 C 52 749 84 743 113 733 C 142 723 167 710 187 694 C 207 678 222 661 233 641 C 244 621 250 602 250 584 C 250 569 248 553 245 537 C 241 521 237 504 231 488 C 225 471 220 455 216 441 C 211 426 209 415 209 409 C 209 390 215 374 227 360 C 239 346 255 340 277 340 L 277 230 C 255 230 239 223 227 210 C 215 196 210 181 210 165 C 210 154 212 142 216 129 C 220 116 225 102 230 88 C 235 72 240 55 244 37 C 248 18 250 -1 250 -22 C 250 -40 244 -59 233 -78 C 222 -96 207 -113 187 -128 C 167 -143 142 -155 113 -165 C 84 -174 52 -179 16 -179 Z" unicode="}" />
<glyph horiz-adv-x="466" d="M 333 463 L 449 463 C 447 439 444 416 439 394 C 434 372 427 352 418 336 C 408 320 396 307 382 297 C 368 287 351 282 332 282 C 307 282 285 285 266 292 C 247 299 232 307 222 317 C 211 325 202 333 194 340 C 186 346 176 350 166 350 C 156 350 148 342 141 328 C 133 314 130 299 130 285 L 17 285 C 17 337 26 380 45 414 C 63 448 93 465 135 465 C 159 465 180 459 200 449 C 219 439 234 429 245 421 C 256 413 266 407 274 401 C 282 395 290 393 299 393 C 313 393 323 399 327 413 C 331 427 333 443 333 463 Z" unicode="~" />
<glyph horiz-adv-x="263" d="M 54 596 L 209 596 L 209 441 L 54 441 L 54 596 Z M 45 190 L 100 373 L 167 373 L 218 190 L 218 -103 L 45 -103 L 45 190 Z" unicode="¡" />
<glyph horiz-adv-x="382" d="M 372 86 C 360 75 345 64 328 53 C 310 42 286 35 255 32 L 255 -74 L 181 -74 L 181 32 C 126 40 84 64 56 106 C 27 148 13 197 13 253 C 13 279 16 305 23 330 C 30 354 41 376 55 396 C 69 416 86 432 108 446 C 129 460 153 469 181 474 L 181 574 L 255 574 L 255 475 C 282 472 304 466 322 458 C 340 449 355 439 368 429 L 322 324 C 310 332 299 337 287 341 C 275 345 261 347 247 347 C 225 347 207 339 195 324 C 182 309 176 286 176 254 C 176 213 185 185 203 171 C 221 157 240 150 260 150 C 274 150 287 152 299 156 C 311 160 321 166 330 173 L 372 86 Z" unicode="¢" />
<glyph horiz-adv-x="499" d="M 478 119 L 478 0 L 12 0 L 12 93 C 17 97 26 101 38 105 C 50 109 66 113 86 117 C 113 121 134 131 149 147 C 163 163 172 182 175 206 L 36 206 L 36 299 L 148 299 C 144 305 140 312 136 320 C 132 327 127 334 123 342 L 36 342 L 36 435 L 80 435 C 74 451 70 469 66 489 C 62 508 61 528 61 549 C 61 583 67 613 80 638 C 92 662 109 682 129 698 C 149 713 172 724 198 731 C 224 738 251 742 278 742 C 294 742 312 739 330 735 C 348 730 366 724 383 717 C 399 709 414 701 428 692 C 441 683 451 674 457 666 L 403 550 C 393 560 379 570 360 582 C 341 594 321 600 301 600 C 286 600 270 593 254 580 C 237 567 229 546 229 518 C 229 504 231 491 235 477 C 239 463 244 449 251 435 L 439 435 L 439 342 L 296 342 C 299 335 302 328 305 320 C 307 312 310 305 312 299 L 439 299 L 439 206 L 311 206 C 305 182 295 163 283 150 C 271 136 258 126 246 119 L 478 119 Z" unicode="£" />
<glyph horiz-adv-x="502" d="M 250 174 C 233 174 217 176 202 180 C 186 184 172 190 159 198 L 100 137 L 46 191 L 102 248 C 91 262 82 279 76 297 C 70 315 67 334 67 354 C 67 374 70 393 76 411 C 82 429 91 446 103 461 L 47 518 L 100 571 L 159 510 C 172 517 186 523 202 527 C 217 531 233 534 250 534 C 266 534 283 531 299 527 C 315 523 329 517 343 509 L 403 571 L 456 517 L 399 459 C 409 444 418 428 424 410 C 430 392 433 373 433 354 C 433 334 429 315 423 297 C 417 279 408 262 398 248 L 454 191 L 401 138 L 342 198 C 328 190 314 184 298 180 C 282 176 266 174 250 174 Z M 250 273 C 272 273 292 281 309 297 C 326 313 335 332 335 354 C 335 376 326 395 309 411 C 292 427 272 435 250 435 C 227 435 207 427 190 411 C 173 395 165 376 165 354 C 165 332 173 313 190 297 C 207 281 227 273 250 273 Z" unicode="¤" />
<glyph horiz-adv-x="485" d="M 456 100 L 326 100 L 326 0 L 156 0 L 156 100 L 31 100 L 31 193 L 156 193 L 156 238 L 31 238 L 31 331 L 146 331 L -10 730 L 154 730 L 245 464 L 344 730 L 495 730 L 337 331 L 456 331 L 456 238 L 326 238 L 326 193 L 456 193 L 456 100 Z" unicode="¥" />
<glyph horiz-adv-x="296" d="M 81 351 L 81 730 L 215 730 L 215 351 L 81 351 Z M 215 200 L 215 -179 L 81 -179 L 81 200 L 215 200 Z" unicode="¦" />
<glyph horiz-adv-x="585" d="M 315 -182 C 261 -182 212 -175 166 -162 C 120 -148 80 -131 48 -109 L 99 19 C 130 -1 163 -19 198 -33 C 233 -47 264 -54 291 -54 C 312 -54 328 -48 339 -37 C 349 -26 355 -11 355 7 C 355 24 349 37 338 47 C 327 57 307 68 278 81 L 218 111 C 185 125 157 137 133 149 C 109 161 89 174 74 188 C 59 202 48 219 41 238 C 33 256 30 280 30 308 C 30 338 36 363 50 385 C 63 406 80 424 101 440 C 84 454 72 472 64 492 C 56 512 53 537 53 565 C 53 593 59 618 71 640 C 83 662 100 680 122 695 C 144 710 170 722 200 730 C 230 738 262 742 296 742 C 354 742 401 733 438 717 C 474 701 503 684 524 668 L 450 549 C 425 567 401 584 377 598 C 353 612 325 620 293 620 C 267 620 248 615 234 605 C 220 595 214 582 214 565 C 214 549 222 536 240 525 C 257 513 283 501 317 488 L 389 453 C 443 431 483 407 510 382 C 537 357 551 322 551 276 C 551 241 541 212 522 190 C 502 168 479 153 452 147 C 468 136 485 119 501 95 C 517 71 526 42 526 10 C 526 -19 520 -46 509 -70 C 498 -94 483 -114 465 -130 C 446 -146 424 -159 398 -168 C 372 -177 344 -182 315 -182 Z M 331 216 C 343 218 353 223 361 231 C 369 239 373 250 373 265 C 373 281 367 295 356 307 C 345 319 322 331 286 343 L 227 372 C 216 367 207 361 201 353 C 195 345 192 335 192 321 C 192 303 198 289 210 278 C 222 266 247 254 285 240 L 331 216 Z" unicode="§" />
<glyph horiz-adv-x="500" d="M 399 626 L 274 626 L 274 790 L 399 790 L 399 626 Z M 226 626 L 101 626 L 101 790 L 226 790 L 226 626 Z" unicode="¨" />
<glyph horiz-adv-x="827" d="M 414 5 C 363 5 315 14 270 34 C 225 53 186 79 153 113 C 119 146 93 185 74 230 C 54 275 45 323 45 374 C 45 424 54 472 74 517 C 93 561 119 600 153 634 C 186 667 225 693 270 713 C 315 732 363 742 414 742 C 464 742 512 732 557 713 C 601 693 640 667 674 634 C 707 600 733 561 753 517 C 772 472 782 424 782 374 C 782 323 772 275 753 230 C 733 185 707 146 674 113 C 640 79 601 53 557 34 C 512 14 464 5 414 5 Z M 414 82 C 454 82 491 89 527 105 C 562 120 593 141 619 167 C 645 193 666 224 682 260 C 697 295 705 333 705 373 C 705 413 697 450 682 486 C 666 521 645 552 619 579 C 593 605 562 626 527 642 C 491 657 454 665 414 665 C 374 665 336 657 300 642 C 264 626 233 605 207 579 C 181 552 160 521 145 486 C 129 450 122 413 122 373 C 122 333 129 295 145 260 C 160 224 181 193 207 167 C 233 141 264 120 300 105 C 336 89 374 82 414 82 Z M 586 253 C 570 227 548 206 520 188 C 492 170 455 162 410 162 C 383 162 358 166 334 175 C 310 183 289 196 271 214 C 253 231 238 253 227 279 C 216 305 211 336 211 371 C 211 407 216 439 226 467 C 236 495 251 518 269 536 C 287 554 308 568 332 578 C 356 587 381 592 408 592 C 454 592 491 583 520 567 C 548 550 570 529 585 504 L 495 437 C 486 450 475 461 463 470 C 450 479 433 484 413 484 C 388 484 368 473 352 453 C 336 433 328 406 328 372 C 328 336 336 309 354 291 C 371 273 391 264 414 264 C 434 264 451 268 465 278 C 479 287 491 299 501 313 L 586 253 Z" unicode="©" />
<glyph horiz-adv-x="429" d="M 391 339 L 276 339 L 276 384 C 264 367 248 354 227 346 C 206 338 182 334 156 334 C 116 334 85 345 64 368 C 42 390 32 421 32 461 C 32 503 48 534 81 556 C 113 577 160 588 221 590 L 271 594 L 271 603 C 271 615 266 625 257 632 C 247 638 232 642 212 642 C 192 642 171 639 150 633 C 129 627 109 618 90 606 L 48 681 C 68 698 95 712 128 724 C 160 736 197 742 237 742 C 287 742 325 730 351 708 C 377 685 391 648 391 597 L 391 339 Z M 274 463 L 274 515 L 218 513 C 199 512 184 507 172 499 C 160 491 155 478 155 462 C 155 450 159 441 167 435 C 175 428 186 425 199 425 C 215 425 229 428 242 435 C 254 441 265 451 274 463 Z M 391 210 L 40 210 L 40 305 L 391 305 L 391 210 Z" unicode="ª" />
<glyph horiz-adv-x="500" d="M 237 96 L 24 271 L 24 360 L 237 532 L 237 382 L 159 312 L 237 251 L 237 96 Z M 473 96 L 258 271 L 258 360 L 473 532 L 473 382 L 395 312 L 473 252 L 473 96 Z" unicode="«" />
<glyph horiz-adv-x="452" d="M 424 426 L 424 165 L 300 165 L 300 305 L 27 305 L 27 426 L 424 426 Z" unicode="¬" />
<glyph horiz-adv-x="827" d="M 414 5 C 363 5 315 14 270 34 C 225 53 186 79 153 113 C 119 146 93 185 74 230 C 54 275 45 323 45 374 C 45 424 54 472 74 517 C 93 561 119 600 153 634 C 186 667 225 693 270 713 C 315 732 363 742 414 742 C 464 742 512 732 557 713 C 601 693 640 667 674 634 C 707 600 733 561 753 517 C 772 472 782 424 782 374 C 782 323 772 275 753 230 C 733 185 707 146 674 113 C 640 79 601 53 557 34 C 512 14 464 5 414 5 Z M 414 82 C 454 82 491 89 527 103 C 562 117 593 136 619 161 C 645 186 666 217 682 253 C 697 289 705 329 705 373 C 705 416 697 456 682 492 C 666 528 645 558 619 584 C 593 610 562 630 527 644 C 491 658 454 665 414 665 C 374 665 336 657 300 643 C 264 628 233 608 207 582 C 181 556 160 525 145 489 C 129 453 122 415 122 373 C 122 331 129 292 145 256 C 160 220 181 190 207 164 C 233 138 264 118 300 104 C 336 89 374 82 414 82 Z M 264 168 L 264 593 L 437 593 C 455 593 472 590 490 585 C 507 580 522 573 536 563 C 550 553 561 541 569 526 C 577 510 582 492 582 472 C 582 435 572 407 552 388 C 532 369 512 358 492 355 L 492 351 L 625 168 L 509 168 L 401 322 L 365 322 L 365 168 L 264 168 Z M 364 402 L 427 402 C 438 402 450 406 462 415 C 474 423 480 438 480 458 C 480 478 473 492 461 500 C 448 508 435 512 421 512 L 364 512 L 364 402 Z" unicode="®" />
<glyph horiz-adv-x="500" d="M 388 632 L 112 632 L 112 750 L 388 750 L 388 632 Z" unicode="¯" />
<glyph horiz-adv-x="424" d="M 212 379 C 186 379 163 383 141 393 C 119 403 99 416 83 432 C 67 448 54 468 44 490 C 34 512 30 535 30 561 C 30 585 34 609 44 631 C 54 653 67 673 83 689 C 99 705 119 717 141 727 C 163 737 186 742 212 742 C 236 742 260 737 282 727 C 304 717 324 705 340 689 C 356 673 369 653 379 631 C 389 609 394 585 394 561 C 394 535 389 512 379 490 C 369 468 356 448 340 432 C 324 416 304 403 282 393 C 260 383 236 379 212 379 Z M 212 478 C 234 478 253 486 270 502 C 287 518 296 538 296 561 C 296 583 287 602 270 618 C 253 634 234 643 212 643 C 189 643 169 634 152 618 C 135 602 127 583 127 561 C 127 538 135 518 152 502 C 169 486 189 478 212 478 Z" unicode="°" />
<glyph horiz-adv-x="448" d="M 433 122 L 433 13 L 21 13 L 21 122 L 167 122 L 167 275 L 18 275 L 18 384 L 167 384 L 167 560 L 286 560 L 286 384 L 435 384 L 435 275 L 286 275 L 286 122 L 433 122 Z" unicode="±" />
<glyph horiz-adv-x="354" d="M 333 372 L 18 372 L 18 406 L 179 570 C 185 577 190 584 194 591 C 197 597 199 605 199 615 C 199 623 196 631 190 637 C 184 643 176 647 164 647 C 149 647 139 642 134 634 C 128 625 126 615 126 605 L 14 605 C 14 646 29 679 59 704 C 89 728 130 741 180 741 C 228 741 265 731 290 712 C 314 692 327 669 327 641 C 327 614 322 592 312 575 C 302 558 291 544 280 532 L 214 465 L 333 465 L 333 372 Z" unicode="²" />
<glyph horiz-adv-x="346" d="M 235 568 C 259 563 278 552 293 536 C 308 519 316 499 316 476 C 316 465 313 453 309 440 C 304 426 296 414 285 403 C 273 391 257 382 237 374 C 217 366 191 363 161 363 C 115 363 79 368 55 379 C 31 390 13 401 2 411 L 53 470 C 62 463 73 457 87 452 C 101 446 118 444 139 444 C 163 444 181 448 191 456 C 201 464 206 475 206 489 C 206 503 199 513 185 517 C 171 521 154 524 136 524 L 69 524 L 69 603 L 134 603 C 148 603 161 605 172 610 C 182 615 188 623 188 634 C 188 643 184 650 176 654 C 168 658 158 660 145 660 C 126 660 110 657 96 651 C 82 645 70 639 61 632 L 14 690 C 24 700 40 712 64 724 C 88 736 121 742 163 742 C 201 742 234 734 261 718 C 287 702 301 678 301 648 C 301 627 294 610 280 596 C 266 582 251 572 235 568 Z" unicode="³" />
<glyph horiz-adv-x="500" d="M 114 626 L 210 801 L 389 801 L 264 626 L 114 626 Z" unicode="´" />
<glyph horiz-adv-x="578" d="M 49 -86 L 49 567 L 205 567 L 205 178 C 205 160 212 145 228 134 C 243 123 261 118 281 118 C 305 118 326 123 343 135 C 359 147 368 162 368 181 L 368 567 L 523 567 L 523 0 L 381 0 L 381 70 C 371 53 353 36 328 20 C 303 4 277 -4 249 -4 C 237 -4 225 -1 214 3 C 202 7 195 14 192 22 L 192 -86 L 49 -86 Z" unicode="µ" />
<glyph horiz-adv-x="619" d="M 577 -182 L 479 -179 L 479 607 L 425 607 L 425 -179 L 326 -179 L 326 268 L 247 268 C 217 268 189 274 161 286 C 133 298 109 315 88 336 C 67 356 50 380 38 408 C 25 436 19 465 19 496 C 19 529 25 560 37 589 C 49 617 65 642 87 663 C 108 683 134 700 165 712 C 195 724 229 730 266 730 L 577 730 L 577 -182 Z M 327 397 L 327 601 L 304 601 C 271 601 244 591 224 572 C 204 553 194 529 194 499 C 194 471 204 447 224 427 C 244 407 269 397 298 397 L 327 397 Z" unicode="¶" />
<glyph horiz-adv-x="300" d="M 229 256 L 72 256 L 72 424 L 229 424 L 229 256 Z" unicode="·" />
<glyph horiz-adv-x="500" d="M 252 -179 C 229 -179 208 -176 189 -170 C 169 -164 153 -156 140 -147 L 168 -94 C 174 -98 182 -103 193 -109 C 204 -114 216 -117 229 -117 C 235 -117 241 -115 247 -112 C 252 -109 255 -104 255 -98 C 255 -91 252 -86 247 -83 C 242 -80 237 -79 232 -79 C 227 -79 222 -79 218 -80 C 214 -80 210 -81 208 -83 L 190 -60 L 248 14 L 320 14 L 280 -36 C 303 -36 322 -42 337 -52 C 352 -62 360 -78 360 -100 C 360 -124 349 -144 328 -158 C 307 -172 282 -179 252 -179 Z" unicode="¸" />
<glyph horiz-adv-x="318" d="M 125 372 L 125 608 C 121 603 115 599 107 595 C 99 591 90 587 81 585 C 72 582 63 580 55 578 C 47 576 41 575 37 575 L 37 679 C 63 679 85 684 104 693 C 122 702 144 717 169 738 L 247 738 L 247 372 L 125 372 Z" unicode="¹" />
<glyph horiz-adv-x="402" d="M 197 332 C 175 332 153 336 133 345 C 112 353 93 366 77 383 C 61 400 48 421 38 447 C 28 472 24 501 24 535 C 24 564 28 591 38 617 C 48 642 61 664 77 682 C 93 700 112 714 133 724 C 154 734 176 740 198 740 C 222 740 246 735 268 727 C 290 718 309 705 325 689 C 341 672 354 651 364 627 C 373 603 378 575 378 545 C 378 513 373 483 363 457 C 353 431 339 408 323 390 C 306 371 287 357 265 347 C 243 337 220 332 197 332 Z M 200 431 C 220 431 236 441 247 461 C 257 481 263 508 263 542 C 263 572 258 596 249 612 C 239 628 225 636 205 636 C 183 636 167 626 156 608 C 144 589 139 562 139 526 C 139 496 144 472 154 456 C 164 439 180 431 200 431 Z M 32 210 L 32 305 L 371 305 L 371 210 L 32 210 Z" unicode="º" />
<glyph horiz-adv-x="500" d="M 27 535 L 242 360 L 242 271 L 27 99 L 27 250 L 105 319 L 27 380 L 27 535 Z M 263 535 L 476 360 L 476 271 L 263 99 L 263 250 L 341 319 L 263 381 L 263 535 Z" unicode="»" />
<glyph horiz-adv-x="716" d="M 12 0 L 12 0 Z M 100 372 L 100 608 C 96 603 90 599 82 595 C 74 591 65 587 56 585 C 47 582 38 580 30 578 C 22 576 16 575 12 575 L 12 679 C 38 679 60 684 79 693 C 97 702 119 717 144 738 L 222 738 L 222 372 L 100 372 Z M 598 730 L 256 0 L 140 0 L 482 730 L 598 730 Z M 397 81 L 397 153 L 575 362 L 653 362 L 653 158 L 704 158 L 704 81 L 653 81 L 653 1 L 547 1 L 547 81 L 397 81 Z M 491 153 L 550 153 L 550 225 L 491 153 Z" unicode="¼" />
<glyph horiz-adv-x="798" d="M 12 0 L 12 0 Z M 100 372 L 100 608 C 96 603 90 599 82 595 C 74 591 65 587 56 585 C 47 582 38 580 30 578 C 22 576 16 575 12 575 L 12 679 C 38 679 60 684 79 693 C 97 702 119 717 144 738 L 222 738 L 222 372 L 100 372 Z M 598 730 L 256 0 L 140 0 L 482 730 L 598 730 Z M 778 0 L 463 0 L 463 34 L 624 198 C 630 205 635 212 639 219 C 642 225 644 233 644 243 C 644 251 641 259 635 265 C 629 271 621 275 609 275 C 594 275 584 270 579 262 C 573 253 571 243 571 233 L 459 233 C 459 274 474 307 504 332 C 534 356 575 369 625 369 C 673 369 710 359 735 340 C 759 320 772 297 772 269 C 772 242 767 220 757 203 C 747 186 736 172 725 160 L 659 93 L 778 93 L 778 0 Z" unicode="½" />
<glyph horiz-adv-x="766" d="M 12 0 L 12 0 Z M 648 730 L 306 0 L 190 0 L 532 730 L 648 730 Z M 447 81 L 447 153 L 625 362 L 703 362 L 703 158 L 754 158 L 754 81 L 703 81 L 703 1 L 597 1 L 597 81 L 447 81 Z M 541 153 L 600 153 L 600 225 L 541 153 Z M 245 568 C 269 563 288 552 303 536 C 318 519 326 499 326 476 C 326 465 323 453 319 440 C 314 426 306 414 295 403 C 283 391 267 382 247 374 C 227 366 201 363 171 363 C 125 363 89 368 65 379 C 41 390 23 401 12 411 L 63 470 C 72 463 83 457 97 452 C 111 446 128 444 149 444 C 173 444 191 448 201 456 C 211 464 216 475 216 489 C 216 503 209 513 195 517 C 181 521 164 524 146 524 L 79 524 L 79 603 L 144 603 C 158 603 171 605 182 610 C 192 615 198 623 198 634 C 198 643 194 650 186 654 C 178 658 168 660 155 660 C 136 660 120 657 106 651 C 92 645 80 639 71 632 L 24 690 C 34 700 50 712 74 724 C 98 736 131 742 173 742 C 211 742 244 734 271 718 C 297 702 311 678 311 648 C 311 627 304 610 290 596 C 276 582 261 572 245 568 Z" unicode="¾" />
<glyph horiz-adv-x="442" d="M 144 436 L 144 596 L 314 596 L 314 436 L 144 436 Z M 221 -146 C 151 -146 100 -128 67 -93 C 34 -57 18 -13 18 40 C 18 90 28 133 48 168 C 68 202 92 237 118 272 C 130 285 139 300 146 316 C 152 332 156 346 157 359 L 308 359 C 308 329 302 302 290 276 C 278 250 261 224 241 198 C 225 176 211 155 201 134 C 190 113 185 90 185 66 C 185 43 191 25 205 12 C 219 0 235 -7 254 -7 C 273 -7 290 -1 304 9 C 318 20 329 33 338 49 L 432 -42 C 405 -78 373 -104 335 -121 C 297 -137 259 -146 221 -146 Z" unicode="¿" />
<glyph horiz-adv-x="510" d="M 0 0 L 0 0 Z M 515 0 L 354 0 L 323 125 L 179 125 L 151 0 L -5 0 L 197 733 L 315 733 L 515 0 Z M 308 245 L 250 466 L 197 245 L 308 245 Z M 257 789 L 257 789 Z M 394 789 L 245 789 L 120 964 L 298 964 L 394 789 Z" unicode="À" />
<glyph horiz-adv-x="510" d="M 0 0 L 0 0 Z M 515 0 L 354 0 L 323 125 L 179 125 L 151 0 L -5 0 L 197 733 L 315 733 L 515 0 Z M 308 245 L 250 466 L 197 245 L 308 245 Z M 257 789 L 257 789 Z M 120 789 L 216 964 L 395 964 L 270 789 L 120 789 Z" unicode="Á" />
<glyph horiz-adv-x="510" d="M 0 0 L 0 0 Z M 515 0 L 354 0 L 323 125 L 179 125 L 151 0 L -5 0 L 197 733 L 315 733 L 515 0 Z M 308 245 L 250 466 L 197 245 L 308 245 Z M 257 789 L 257 789 Z M 423 789 L 297 789 L 256 859 L 215 789 L 91 789 L 192 964 L 322 964 L 423 789 Z" unicode="Â" />
<glyph horiz-adv-x="510" d="M 0 0 L 0 0 Z M 515 0 L 354 0 L 323 125 L 179 125 L 151 0 L -5 0 L 197 733 L 315 733 L 515 0 Z M 308 245 L 250 466 L 197 245 L 308 245 Z M 257 791 L 257 791 Z M 323 950 L 437 950 C 437 896 428 856 412 830 C 395 804 374 791 348 791 C 327 791 309 793 295 799 C 281 805 270 810 262 815 C 253 819 245 824 237 828 C 229 832 222 834 216 834 C 209 834 203 830 198 823 C 193 815 190 806 190 794 L 78 794 C 78 847 88 887 109 913 C 129 939 152 953 176 953 C 195 953 211 950 223 945 C 235 939 246 934 256 929 C 263 924 270 920 276 917 C 282 914 289 913 295 913 C 300 913 306 916 312 922 C 318 928 322 937 323 950 Z" unicode="Ã" />
<glyph horiz-adv-x="510" d="M 0 0 L 0 0 Z M 515 0 L 354 0 L 323 125 L 179 125 L 151 0 L -5 0 L 197 733 L 315 733 L 515 0 Z M 308 245 L 250 466 L 197 245 L 308 245 Z M 257 789 L 257 789 Z M 406 789 L 281 789 L 281 953 L 406 953 L 406 789 Z M 233 789 L 108 789 L 108 953 L 233 953 L 233 789 Z" unicode="Ä" />
<glyph horiz-adv-x="510" d="M 0 0 L 0 0 Z M 515 0 L 354 0 L 323 125 L 179 125 L 151 0 L -5 0 L 197 733 L 315 733 L 515 0 Z M 308 245 L 250 466 L 197 245 L 308 245 Z M 257 773 L 257 773 Z M 257 773 C 221 773 191 785 167 810 C 142 834 130 864 130 900 C 130 934 142 964 167 989 C 191 1013 221 1026 257 1026 C 292 1026 322 1013 347 989 C 371 964 384 934 384 900 C 384 864 371 834 347 810 C 322 785 292 773 257 773 Z M 257 851 C 271 851 282 855 291 865 C 300 874 305 885 305 899 C 305 912 300 923 291 933 C 282 943 271 948 257 948 C 244 948 233 943 224 933 C 214 923 210 912 210 899 C 210 885 214 874 224 865 C 233 855 244 851 257 851 Z" unicode="Å" />
<glyph horiz-adv-x="738" d="M 727 0 L 366 0 L 366 132 L 200 132 L 151 0 L -5 0 L 259 730 L 706 730 L 706 588 L 522 588 L 522 433 L 695 433 L 695 292 L 522 292 L 522 142 L 727 142 L 727 0 Z M 366 257 L 366 623 L 238 257 L 366 257 Z" unicode="Æ" />
<glyph horiz-adv-x="525" d="M 23 0 L 23 0 Z M 277 -6 C 199 -6 138 25 92 87 C 46 149 23 242 23 366 C 23 422 28 474 39 520 C 49 566 65 605 87 637 C 108 669 135 693 167 710 C 199 727 237 736 280 736 C 347 736 398 719 432 685 C 466 651 489 603 500 541 L 358 512 C 351 540 342 562 332 579 C 322 596 306 605 284 605 C 270 605 257 601 245 595 C 233 588 224 576 216 558 C 208 540 202 515 198 484 C 194 452 192 412 192 363 C 192 313 195 273 201 242 C 207 210 214 186 224 169 C 234 152 245 140 258 134 C 270 128 283 125 297 125 C 321 125 340 132 352 148 C 364 163 374 185 382 214 L 508 175 C 490 113 461 67 422 38 C 382 8 334 -6 277 -6 Z M 267 0 L 267 0 Z M 269 -179 C 246 -179 225 -176 206 -170 C 186 -164 170 -156 157 -147 L 185 -94 C 191 -98 199 -103 210 -109 C 221 -114 233 -117 246 -117 C 252 -117 258 -115 264 -112 C 269 -109 272 -104 272 -98 C 272 -91 269 -86 264 -83 C 259 -80 254 -79 249 -79 C 244 -79 239 -79 235 -80 C 231 -80 227 -81 225 -83 L 207 -60 L 265 14 L 337 14 L 297 -36 C 320 -36 339 -42 354 -52 C 369 -62 377 -78 377 -100 C 377 -124 366 -144 345 -158 C 324 -172 299 -179 269 -179 Z" unicode="Ç" />
<glyph horiz-adv-x="423" d="M 41 0 L 41 0 Z M 413 0 L 41 0 L 41 730 L 392 730 L 392 588 L 207 588 L 207 433 L 380 433 L 380 292 L 207 292 L 207 142 L 413 142 L 413 0 Z M 217 789 L 217 789 Z M 354 789 L 205 789 L 80 964 L 258 964 L 354 789 Z" unicode="È" />
<glyph horiz-adv-x="423" d="M 41 0 L 41 0 Z M 413 0 L 41 0 L 41 730 L 392 730 L 392 588 L 207 588 L 207 433 L 380 433 L 380 292 L 207 292 L 207 142 L 413 142 L 413 0 Z M 217 789 L 217 789 Z M 80 789 L 176 964 L 355 964 L 230 789 L 80 789 Z" unicode="É" />
<glyph horiz-adv-x="423" d="M 41 0 L 41 0 Z M 413 0 L 41 0 L 41 730 L 392 730 L 392 588 L 207 588 L 207 433 L 380 433 L 380 292 L 207 292 L 207 142 L 413 142 L 413 0 Z M 217 789 L 217 789 Z M 383 789 L 257 789 L 216 859 L 175 789 L 51 789 L 152 964 L 282 964 L 383 789 Z" unicode="Ê" />
<glyph horiz-adv-x="423" d="M 41 0 L 41 0 Z M 413 0 L 41 0 L 41 730 L 392 730 L 392 588 L 207 588 L 207 433 L 380 433 L 380 292 L 207 292 L 207 142 L 413 142 L 413 0 Z M 217 789 L 217 789 Z M 366 789 L 241 789 L 241 953 L 366 953 L 366 789 Z M 193 789 L 68 789 L 68 953 L 193 953 L 193 789 Z" unicode="Ë" />
<glyph horiz-adv-x="262" d="M 0 0 L 0 0 Z M 217 0 L 45 0 L 45 730 L 217 730 L 217 0 Z M 131 789 L 131 789 Z M 268 789 L 119 789 L -6 964 L 172 964 L 268 789 Z" unicode="Ì" />
<glyph horiz-adv-x="262" d="M 0 0 L 0 0 Z M 217 0 L 45 0 L 45 730 L 217 730 L 217 0 Z M 131 789 L 131 789 Z M -6 789 L 90 964 L 269 964 L 144 789 L -6 789 Z" unicode="Í" />
<glyph horiz-adv-x="262" d="M 0 0 L 0 0 Z M 217 0 L 45 0 L 45 730 L 217 730 L 217 0 Z M 131 789 L 131 789 Z M 297 789 L 171 789 L 130 859 L 89 789 L -35 789 L 66 964 L 196 964 L 297 789 Z" unicode="Î" />
<glyph horiz-adv-x="262" d="M 0 0 L 0 0 Z M 217 0 L 45 0 L 45 730 L 217 730 L 217 0 Z M 131 789 L 131 789 Z M 280 789 L 155 789 L 155 953 L 280 953 L 280 789 Z M 107 789 L -18 789 L -18 953 L 107 953 L 107 789 Z" unicode="Ï" />
<glyph horiz-adv-x="555" d="M 524 359 C 524 308 517 261 505 217 C 493 173 474 135 449 103 C 424 71 392 45 354 27 C 316 9 271 0 221 0 L 35 0 L 35 295 L 5 295 L 5 419 L 35 419 L 35 730 L 230 730 C 278 730 320 720 357 702 C 394 684 425 658 449 626 C 473 594 492 555 505 509 C 517 463 524 413 524 359 Z M 204 131 L 234 131 C 278 131 308 149 326 187 C 344 224 353 281 353 357 C 353 447 342 509 321 545 C 300 581 272 599 236 599 L 204 599 L 204 419 L 280 419 L 280 295 L 204 295 L 204 131 Z" unicode="Ð" />
<glyph horiz-adv-x="538" d="M 41 0 L 41 0 Z M 496 0 L 379 0 L 200 368 L 200 0 L 41 0 L 41 730 L 162 730 L 346 364 L 344 730 L 496 730 L 496 0 Z M 271 791 L 271 791 Z M 337 950 L 451 950 C 451 896 442 856 426 830 C 409 804 388 791 362 791 C 341 791 323 793 309 799 C 295 805 284 810 276 815 C 267 819 259 824 251 828 C 243 832 236 834 230 834 C 223 834 217 830 212 823 C 207 815 204 806 204 794 L 92 794 C 92 847 102 887 123 913 C 143 939 166 953 190 953 C 209 953 225 950 237 945 C 249 939 260 934 270 929 C 277 924 284 920 290 917 C 296 914 303 913 309 913 C 314 913 320 916 326 922 C 332 928 336 937 337 950 Z" unicode="Ñ" />
<glyph horiz-adv-x="565" d="M 23 0 L 23 0 Z M 285 -6 C 194 -6 128 26 86 91 C 44 156 23 249 23 370 C 23 483 45 572 89 638 C 133 703 197 736 280 736 C 368 736 433 704 477 641 C 520 578 542 486 542 365 C 542 250 519 159 474 93 C 428 27 365 -6 285 -6 Z M 282 123 C 314 123 336 141 350 178 C 363 215 370 280 370 372 C 370 457 362 517 348 553 C 334 589 311 607 281 607 C 249 607 226 589 214 554 C 202 519 196 456 196 366 C 196 273 202 209 216 175 C 229 140 251 123 282 123 Z M 282 789 L 282 789 Z M 419 789 L 270 789 L 145 964 L 323 964 L 419 789 Z" unicode="Ò" />
<glyph horiz-adv-x="565" d="M 23 0 L 23 0 Z M 285 -6 C 194 -6 128 26 86 91 C 44 156 23 249 23 370 C 23 483 45 572 89 638 C 133 703 197 736 280 736 C 368 736 433 704 477 641 C 520 578 542 486 542 365 C 542 250 519 159 474 93 C 428 27 365 -6 285 -6 Z M 282 123 C 314 123 336 141 350 178 C 363 215 370 280 370 372 C 370 457 362 517 348 553 C 334 589 311 607 281 607 C 249 607 226 589 214 554 C 202 519 196 456 196 366 C 196 273 202 209 216 175 C 229 140 251 123 282 123 Z M 282 789 L 282 789 Z M 145 789 L 241 964 L 420 964 L 295 789 L 145 789 Z" unicode="Ó" />
<glyph horiz-adv-x="565" d="M 23 0 L 23 0 Z M 285 -6 C 194 -6 128 26 86 91 C 44 156 23 249 23 370 C 23 483 45 572 89 638 C 133 703 197 736 280 736 C 368 736 433 704 477 641 C 520 578 542 486 542 365 C 542 250 519 159 474 93 C 428 27 365 -6 285 -6 Z M 282 123 C 314 123 336 141 350 178 C 363 215 370 280 370 372 C 370 457 362 517 348 553 C 334 589 311 607 281 607 C 249 607 226 589 214 554 C 202 519 196 456 196 366 C 196 273 202 209 216 175 C 229 140 251 123 282 123 Z M 282 789 L 282 789 Z M 448 789 L 322 789 L 281 859 L 240 789 L 116 789 L 217 964 L 347 964 L 448 789 Z" unicode="Ô" />
<glyph horiz-adv-x="565" d="M 23 0 L 23 0 Z M 285 -6 C 194 -6 128 26 86 91 C 44 156 23 249 23 370 C 23 483 45 572 89 638 C 133 703 197 736 280 736 C 368 736 433 704 477 641 C 520 578 542 486 542 365 C 542 250 519 159 474 93 C 428 27 365 -6 285 -6 Z M 282 123 C 314 123 336 141 350 178 C 363 215 370 280 370 372 C 370 457 362 517 348 553 C 334 589 311 607 281 607 C 249 607 226 589 214 554 C 202 519 196 456 196 366 C 196 273 202 209 216 175 C 229 140 251 123 282 123 Z M 282 791 L 282 791 Z M 348 950 L 462 950 C 462 896 453 856 437 830 C 420 804 399 791 373 791 C 352 791 334 793 320 799 C 306 805 295 810 287 815 C 278 819 270 824 262 828 C 254 832 247 834 241 834 C 234 834 228 830 223 823 C 218 815 215 806 215 794 L 103 794 C 103 847 113 887 134 913 C 154 939 177 953 201 953 C 220 953 236 950 248 945 C 260 939 271 934 281 929 C 288 924 295 920 301 917 C 307 914 314 913 320 913 C 325 913 331 916 337 922 C 343 928 347 937 348 950 Z" unicode="Õ" />
<glyph horiz-adv-x="565" d="M 23 0 L 23 0 Z M 285 -6 C 194 -6 128 26 86 91 C 44 156 23 249 23 370 C 23 483 45 572 89 638 C 133 703 197 736 280 736 C 368 736 433 704 477 641 C 520 578 542 486 542 365 C 542 250 519 159 474 93 C 428 27 365 -6 285 -6 Z M 282 123 C 314 123 336 141 350 178 C 363 215 370 280 370 372 C 370 457 362 517 348 553 C 334 589 311 607 281 607 C 249 607 226 589 214 554 C 202 519 196 456 196 366 C 196 273 202 209 216 175 C 229 140 251 123 282 123 Z M 282 789 L 282 789 Z M 431 789 L 306 789 L 306 953 L 431 953 L 431 789 Z M 258 789 L 133 789 L 133 953 L 258 953 L 258 789 Z" unicode="Ö" />
<glyph horiz-adv-x="448" d="M 106 127 L 26 206 L 145 324 L 28 441 L 107 522 L 224 405 L 342 522 L 422 441 L 303 324 L 422 207 L 343 124 L 224 246 L 106 127 Z" unicode="×" />
<glyph horiz-adv-x="565" d="M 285 -6 C 249 -6 218 0 190 9 C 162 19 137 34 117 54 L 72 -15 L 9 25 L 70 119 C 54 149 42 186 34 228 C 26 270 23 318 23 370 C 23 483 45 572 89 638 C 133 703 197 736 280 736 C 312 736 342 731 368 723 C 394 714 418 701 438 685 L 488 762 L 550 722 L 488 626 C 506 595 519 558 528 514 C 537 470 542 421 542 365 C 542 250 519 159 474 93 C 428 27 365 -6 285 -6 Z M 196 366 C 196 356 196 347 196 339 C 196 330 196 322 197 314 L 350 550 C 342 570 333 584 322 593 C 310 602 297 607 281 607 C 249 607 226 589 214 554 C 202 519 196 456 196 366 Z M 370 372 C 370 384 369 396 369 408 C 369 420 368 431 368 442 L 209 197 C 215 170 225 151 237 140 C 249 128 264 123 282 123 C 314 123 336 141 350 178 C 363 215 370 280 370 372 Z" unicode="Ø" />
<glyph horiz-adv-x="550" d="M 39 0 L 39 0 Z M 511 730 L 511 231 C 511 189 504 152 490 122 C 476 92 457 67 434 48 C 411 29 385 15 355 6 C 325 -2 295 -7 265 -7 C 235 -7 206 -2 179 5 C 151 13 127 27 107 46 C 86 64 69 89 57 120 C 45 150 39 187 39 231 L 39 730 L 208 730 L 208 223 C 208 192 213 170 224 158 C 235 145 250 139 269 139 C 287 139 303 145 315 157 C 327 169 333 191 333 223 L 333 730 L 511 730 Z M 273 789 L 273 789 Z M 410 789 L 261 789 L 136 964 L 314 964 L 410 789 Z" unicode="Ù" />
<glyph horiz-adv-x="550" d="M 39 0 L 39 0 Z M 511 730 L 511 231 C 511 189 504 152 490 122 C 476 92 457 67 434 48 C 411 29 385 15 355 6 C 325 -2 295 -7 265 -7 C 235 -7 206 -2 179 5 C 151 13 127 27 107 46 C 86 64 69 89 57 120 C 45 150 39 187 39 231 L 39 730 L 208 730 L 208 223 C 208 192 213 170 224 158 C 235 145 250 139 269 139 C 287 139 303 145 315 157 C 327 169 333 191 333 223 L 333 730 L 511 730 Z M 273 789 L 273 789 Z M 136 789 L 232 964 L 411 964 L 286 789 L 136 789 Z" unicode="Ú" />
<glyph horiz-adv-x="550" d="M 39 0 L 39 0 Z M 511 730 L 511 231 C 511 189 504 152 490 122 C 476 92 457 67 434 48 C 411 29 385 15 355 6 C 325 -2 295 -7 265 -7 C 235 -7 206 -2 179 5 C 151 13 127 27 107 46 C 86 64 69 89 57 120 C 45 150 39 187 39 231 L 39 730 L 208 730 L 208 223 C 208 192 213 170 224 158 C 235 145 250 139 269 139 C 287 139 303 145 315 157 C 327 169 333 191 333 223 L 333 730 L 511 730 Z M 273 789 L 273 789 Z M 439 789 L 313 789 L 272 859 L 231 789 L 107 789 L 208 964 L 338 964 L 439 789 Z" unicode="Û" />
<glyph horiz-adv-x="550" d="M 39 0 L 39 0 Z M 511 730 L 511 231 C 511 189 504 152 490 122 C 476 92 457 67 434 48 C 411 29 385 15 355 6 C 325 -2 295 -7 265 -7 C 235 -7 206 -2 179 5 C 151 13 127 27 107 46 C 86 64 69 89 57 120 C 45 150 39 187 39 231 L 39 730 L 208 730 L 208 223 C 208 192 213 170 224 158 C 235 145 250 139 269 139 C 287 139 303 145 315 157 C 327 169 333 191 333 223 L 333 730 L 511 730 Z M 273 789 L 273 789 Z M 422 789 L 297 789 L 297 953 L 422 953 L 422 789 Z M 249 789 L 124 789 L 124 953 L 249 953 L 249 789 Z" unicode="Ü" />
<glyph horiz-adv-x="487" d="M 0 0 L 0 0 Z M 499 730 L 326 297 L 326 0 L 156 0 L 156 301 L -12 730 L 162 730 L 247 464 L 345 730 L 499 730 Z M 247 789 L 247 789 Z M 110 789 L 206 964 L 385 964 L 260 789 L 110 789 Z" unicode="Ý" />
<glyph horiz-adv-x="488" d="M 41 0 L 41 730 L 211 730 L 211 618 L 264 618 C 294 618 321 612 347 602 C 373 591 395 575 414 555 C 432 535 447 510 458 481 C 468 452 474 420 474 384 C 474 310 453 251 411 208 C 369 164 317 143 253 143 L 211 143 L 211 0 L 41 0 Z M 207 274 L 250 274 C 270 274 287 283 299 303 C 311 322 317 349 317 383 C 317 416 310 441 297 458 C 283 475 267 484 249 484 L 207 484 L 207 274 Z" unicode="Þ" />
<glyph horiz-adv-x="567" d="M 400 -6 C 362 -6 327 1 297 17 C 267 32 244 51 228 74 L 290 164 C 303 147 317 134 333 125 C 348 116 362 112 376 112 C 387 112 397 116 406 125 C 414 133 419 144 419 158 C 419 176 411 192 395 204 C 379 216 362 230 343 244 C 319 261 296 281 276 304 C 256 327 246 363 246 412 C 246 444 253 472 268 497 C 283 521 302 540 325 553 C 329 555 334 559 339 567 C 343 574 347 585 350 599 C 350 625 341 644 325 656 C 309 667 291 673 273 673 C 252 673 234 665 219 651 C 204 636 197 611 197 575 L 197 0 L 40 0 L 40 587 C 40 658 60 712 101 748 C 141 784 197 802 267 802 C 333 802 386 783 426 745 C 466 707 487 656 487 592 C 487 552 479 520 464 497 C 449 473 433 459 417 455 C 406 454 396 451 386 446 C 376 440 371 431 371 418 C 371 402 378 389 393 378 C 407 366 428 351 454 333 C 484 310 507 285 525 258 C 542 230 551 196 551 154 C 551 124 546 99 536 79 C 526 59 514 42 499 30 C 484 17 468 8 450 2 C 432 -3 416 -6 400 -6 Z" unicode="ß" />
<glyph horiz-adv-x="420" d="M 16 0 L 16 0 Z M 391 0 L 255 0 L 255 45 C 239 25 222 12 204 5 C 186 -2 164 -6 140 -6 C 100 -6 70 11 48 46 C 26 81 16 125 16 178 C 16 241 31 287 63 316 C 94 344 134 359 182 361 L 246 364 L 246 399 C 246 419 240 434 230 445 C 219 455 203 461 181 461 C 159 461 139 457 122 450 C 105 443 92 436 84 430 L 44 535 C 60 545 83 555 111 565 C 139 574 177 579 223 579 C 273 579 313 564 344 536 C 375 507 391 468 391 418 L 391 0 Z M 248 128 L 248 272 L 214 270 C 198 269 186 261 176 246 C 166 231 161 208 161 178 C 161 149 165 129 175 118 C 184 107 193 102 203 102 C 214 102 223 104 230 109 C 237 114 243 120 248 128 Z M 213 626 L 213 626 Z M 350 626 L 201 626 L 76 801 L 254 801 L 350 626 Z" unicode="à" />
<glyph horiz-adv-x="420" d="M 16 0 L 16 0 Z M 391 0 L 255 0 L 255 45 C 239 25 222 12 204 5 C 186 -2 164 -6 140 -6 C 100 -6 70 11 48 46 C 26 81 16 125 16 178 C 16 241 31 287 63 316 C 94 344 134 359 182 361 L 246 364 L 246 399 C 246 419 240 434 230 445 C 219 455 203 461 181 461 C 159 461 139 457 122 450 C 105 443 92 436 84 430 L 44 535 C 60 545 83 555 111 565 C 139 574 177 579 223 579 C 273 579 313 564 344 536 C 375 507 391 468 391 418 L 391 0 Z M 248 128 L 248 272 L 214 270 C 198 269 186 261 176 246 C 166 231 161 208 161 178 C 161 149 165 129 175 118 C 184 107 193 102 203 102 C 214 102 223 104 230 109 C 237 114 243 120 248 128 Z M 213 626 L 213 626 Z M 76 626 L 172 801 L 351 801 L 226 626 L 76 626 Z" unicode="á" />
<glyph horiz-adv-x="420" d="M 16 0 L 16 0 Z M 391 0 L 255 0 L 255 45 C 239 25 222 12 204 5 C 186 -2 164 -6 140 -6 C 100 -6 70 11 48 46 C 26 81 16 125 16 178 C 16 241 31 287 63 316 C 94 344 134 359 182 361 L 246 364 L 246 399 C 246 419 240 434 230 445 C 219 455 203 461 181 461 C 159 461 139 457 122 450 C 105 443 92 436 84 430 L 44 535 C 60 545 83 555 111 565 C 139 574 177 579 223 579 C 273 579 313 564 344 536 C 375 507 391 468 391 418 L 391 0 Z M 248 128 L 248 272 L 214 270 C 198 269 186 261 176 246 C 166 231 161 208 161 178 C 161 149 165 129 175 118 C 184 107 193 102 203 102 C 214 102 223 104 230 109 C 237 114 243 120 248 128 Z M 213 626 L 213 626 Z M 379 626 L 253 626 L 212 696 L 171 626 L 47 626 L 148 801 L 278 801 L 379 626 Z" unicode="â" />
<glyph horiz-adv-x="420" d="M 16 0 L 16 0 Z M 391 0 L 255 0 L 255 45 C 239 25 222 12 204 5 C 186 -2 164 -6 140 -6 C 100 -6 70 11 48 46 C 26 81 16 125 16 178 C 16 241 31 287 63 316 C 94 344 134 359 182 361 L 246 364 L 246 399 C 246 419 240 434 230 445 C 219 455 203 461 181 461 C 159 461 139 457 122 450 C 105 443 92 436 84 430 L 44 535 C 60 545 83 555 111 565 C 139 574 177 579 223 579 C 273 579 313 564 344 536 C 375 507 391 468 391 418 L 391 0 Z M 248 128 L 248 272 L 214 270 C 198 269 186 261 176 246 C 166 231 161 208 161 178 C 161 149 165 129 175 118 C 184 107 193 102 203 102 C 214 102 223 104 230 109 C 237 114 243 120 248 128 Z M 213 628 L 213 628 Z M 279 787 L 393 787 C 393 733 384 693 368 667 C 351 641 330 628 304 628 C 283 628 265 630 251 636 C 237 642 226 647 218 652 C 209 656 201 661 193 665 C 185 669 178 671 172 671 C 165 671 159 667 154 660 C 149 652 146 643 146 631 L 34 631 C 34 684 44 724 65 750 C 85 776 108 790 132 790 C 151 790 167 787 179 782 C 191 776 202 771 212 766 C 219 761 226 757 232 754 C 238 751 245 750 251 750 C 256 750 262 753 268 759 C 274 765 278 774 279 787 Z" unicode="ã" />
<glyph horiz-adv-x="420" d="M 16 0 L 16 0 Z M 391 0 L 255 0 L 255 45 C 239 25 222 12 204 5 C 186 -2 164 -6 140 -6 C 100 -6 70 11 48 46 C 26 81 16 125 16 178 C 16 241 31 287 63 316 C 94 344 134 359 182 361 L 246 364 L 246 399 C 246 419 240 434 230 445 C 219 455 203 461 181 461 C 159 461 139 457 122 450 C 105 443 92 436 84 430 L 44 535 C 60 545 83 555 111 565 C 139 574 177 579 223 579 C 273 579 313 564 344 536 C 375 507 391 468 391 418 L 391 0 Z M 248 128 L 248 272 L 214 270 C 198 269 186 261 176 246 C 166 231 161 208 161 178 C 161 149 165 129 175 118 C 184 107 193 102 203 102 C 214 102 223 104 230 109 C 237 114 243 120 248 128 Z M 213 626 L 213 626 Z M 362 626 L 237 626 L 237 790 L 362 790 L 362 626 Z M 189 626 L 64 626 L 64 790 L 189 790 L 189 626 Z" unicode="ä" />
<glyph horiz-adv-x="420" d="M 16 0 L 16 0 Z M 391 0 L 255 0 L 255 45 C 239 25 222 12 204 5 C 186 -2 164 -6 140 -6 C 100 -6 70 11 48 46 C 26 81 16 125 16 178 C 16 241 31 287 63 316 C 94 344 134 359 182 361 L 246 364 L 246 399 C 246 419 240 434 230 445 C 219 455 203 461 181 461 C 159 461 139 457 122 450 C 105 443 92 436 84 430 L 44 535 C 60 545 83 555 111 565 C 139 574 177 579 223 579 C 273 579 313 564 344 536 C 375 507 391 468 391 418 L 391 0 Z M 248 128 L 248 272 L 214 270 C 198 269 186 261 176 246 C 166 231 161 208 161 178 C 161 149 165 129 175 118 C 184 107 193 102 203 102 C 214 102 223 104 230 109 C 237 114 243 120 248 128 Z M 213 610 L 213 610 Z M 213 610 C 177 610 147 622 123 647 C 98 671 86 701 86 737 C 86 771 98 801 123 826 C 147 850 177 863 213 863 C 248 863 278 850 303 826 C 327 801 340 771 340 737 C 340 701 327 671 303 647 C 278 622 248 610 213 610 Z M 213 688 C 227 688 238 692 247 702 C 256 711 261 722 261 736 C 261 749 256 760 247 770 C 238 780 227 785 213 785 C 200 785 189 780 180 770 C 170 760 166 749 166 736 C 166 722 170 711 180 702 C 189 692 200 688 213 688 Z" unicode="å" />
<glyph horiz-adv-x="648" d="M 438 -6 C 402 -6 374 2 353 19 C 331 35 315 52 304 69 C 291 46 272 28 246 14 C 220 0 191 -6 157 -6 C 119 -6 86 11 58 46 C 30 81 16 125 16 177 C 16 240 31 286 63 315 C 94 344 134 359 182 361 L 246 363 L 246 392 C 246 416 240 434 229 445 C 218 456 201 462 179 462 C 157 462 136 456 118 445 C 100 434 87 426 79 421 L 40 524 C 56 536 76 547 101 557 C 126 567 161 572 205 572 C 231 572 256 567 278 557 C 300 547 314 535 320 521 C 329 534 344 545 365 555 C 385 565 409 570 435 570 C 500 570 550 544 584 492 C 618 440 635 359 635 249 L 390 249 C 390 211 397 179 411 153 C 425 126 449 113 481 113 C 501 113 520 118 537 129 C 554 140 569 151 582 162 L 629 89 C 621 79 611 68 599 57 C 587 45 573 35 557 26 C 541 17 524 9 504 3 C 484 -2 462 -6 438 -6 Z M 387 344 L 491 344 C 491 384 486 413 478 431 C 470 449 458 459 443 459 C 428 459 415 449 404 431 C 393 412 387 383 387 344 Z M 203 102 C 214 102 224 105 232 111 C 240 117 245 128 248 142 L 248 271 L 214 269 C 198 268 186 260 176 246 C 166 231 161 208 161 178 C 161 149 165 129 175 118 C 184 107 193 102 203 102 Z" unicode="æ" />
<glyph horiz-adv-x="381" d="M 16 0 L 16 0 Z M 324 145 L 374 58 C 358 41 339 26 318 13 C 296 0 265 -6 223 -6 C 189 -6 160 1 134 16 C 108 31 87 52 69 78 C 51 104 38 134 29 170 C 20 205 16 243 16 283 C 16 321 20 358 29 393 C 38 428 51 459 69 485 C 87 511 109 532 136 548 C 162 564 193 572 228 572 C 265 572 296 565 320 551 C 344 537 362 521 375 504 L 313 416 C 304 426 294 434 284 439 C 273 444 261 447 247 447 C 226 447 209 434 197 410 C 185 386 179 347 179 294 C 179 224 188 177 206 153 C 224 129 243 117 262 117 C 274 117 286 119 297 125 C 307 131 316 137 324 145 Z M 207 0 L 207 0 Z M 209 -179 C 186 -179 165 -176 146 -170 C 126 -164 110 -156 97 -147 L 125 -94 C 131 -98 139 -103 150 -109 C 161 -114 173 -117 186 -117 C 192 -117 198 -115 204 -112 C 209 -109 212 -104 212 -98 C 212 -91 209 -86 204 -83 C 199 -80 194 -79 189 -79 C 184 -79 179 -79 175 -80 C 171 -80 167 -81 165 -83 L 147 -60 L 205 14 L 277 14 L 237 -36 C 260 -36 279 -42 294 -52 C 309 -62 317 -78 317 -100 C 317 -124 306 -144 285 -158 C 264 -172 239 -179 209 -179 Z" unicode="ç" />
<glyph horiz-adv-x="437" d="M 16 0 L 16 0 Z M 222 -6 C 161 -6 111 19 73 69 C 35 119 16 189 16 278 C 16 372 35 444 73 495 C 111 545 159 571 217 571 C 284 571 335 544 370 492 C 405 439 423 358 423 248 L 171 248 C 171 211 179 179 196 153 C 213 126 238 113 271 113 C 291 113 310 118 328 130 C 345 141 359 152 370 163 L 417 89 C 409 79 398 68 386 57 C 373 46 358 36 342 27 C 326 17 307 9 287 3 C 267 -2 245 -6 222 -6 Z M 167 344 L 280 344 C 280 384 274 414 264 432 C 254 450 241 459 227 459 C 211 459 197 449 185 431 C 173 413 167 384 167 344 Z M 223 626 L 223 626 Z M 360 626 L 211 626 L 86 801 L 264 801 L 360 626 Z" unicode="è" />
<glyph horiz-adv-x="437" d="M 16 0 L 16 0 Z M 222 -6 C 161 -6 111 19 73 69 C 35 119 16 189 16 278 C 16 372 35 444 73 495 C 111 545 159 571 217 571 C 284 571 335 544 370 492 C 405 439 423 358 423 248 L 171 248 C 171 211 179 179 196 153 C 213 126 238 113 271 113 C 291 113 310 118 328 130 C 345 141 359 152 370 163 L 417 89 C 409 79 398 68 386 57 C 373 46 358 36 342 27 C 326 17 307 9 287 3 C 267 -2 245 -6 222 -6 Z M 167 344 L 280 344 C 280 384 274 414 264 432 C 254 450 241 459 227 459 C 211 459 197 449 185 431 C 173 413 167 384 167 344 Z M 223 626 L 223 626 Z M 86 626 L 182 801 L 361 801 L 236 626 L 86 626 Z" unicode="é" />
<glyph horiz-adv-x="437" d="M 16 0 L 16 0 Z M 222 -6 C 161 -6 111 19 73 69 C 35 119 16 189 16 278 C 16 372 35 444 73 495 C 111 545 159 571 217 571 C 284 571 335 544 370 492 C 405 439 423 358 423 248 L 171 248 C 171 211 179 179 196 153 C 213 126 238 113 271 113 C 291 113 310 118 328 130 C 345 141 359 152 370 163 L 417 89 C 409 79 398 68 386 57 C 373 46 358 36 342 27 C 326 17 307 9 287 3 C 267 -2 245 -6 222 -6 Z M 167 344 L 280 344 C 280 384 274 414 264 432 C 254 450 241 459 227 459 C 211 459 197 449 185 431 C 173 413 167 384 167 344 Z M 223 626 L 223 626 Z M 389 626 L 263 626 L 222 696 L 181 626 L 57 626 L 158 801 L 288 801 L 389 626 Z" unicode="ê" />
<glyph horiz-adv-x="437" d="M 16 0 L 16 0 Z M 222 -6 C 161 -6 111 19 73 69 C 35 119 16 189 16 278 C 16 372 35 444 73 495 C 111 545 159 571 217 571 C 284 571 335 544 370 492 C 405 439 423 358 423 248 L 171 248 C 171 211 179 179 196 153 C 213 126 238 113 271 113 C 291 113 310 118 328 130 C 345 141 359 152 370 163 L 417 89 C 409 79 398 68 386 57 C 373 46 358 36 342 27 C 326 17 307 9 287 3 C 267 -2 245 -6 222 -6 Z M 167 344 L 280 344 C 280 384 274 414 264 432 C 254 450 241 459 227 459 C 211 459 197 449 185 431 C 173 413 167 384 167 344 Z M 223 626 L 223 626 Z M 372 626 L 247 626 L 247 790 L 372 790 L 372 626 Z M 199 626 L 74 626 L 74 790 L 199 790 L 199 626 Z" unicode="ë" />
<glyph horiz-adv-x="223" d="M 0 0 L 0 0 Z M 189 0 L 34 0 L 34 567 L 189 567 L 189 0 Z M 110 626 L 110 626 Z M 247 626 L 98 626 L -27 801 L 151 801 L 247 626 Z" unicode="ì" />
<glyph horiz-adv-x="223" d="M 0 0 L 0 0 Z M 189 0 L 34 0 L 34 567 L 189 567 L 189 0 Z M 110 626 L 110 626 Z M -27 626 L 69 801 L 248 801 L 123 626 L -27 626 Z" unicode="í" />
<glyph horiz-adv-x="223" d="M 0 0 L 0 0 Z M 189 0 L 34 0 L 34 567 L 189 567 L 189 0 Z M 110 626 L 110 626 Z M 276 626 L 150 626 L 109 696 L 68 626 L -56 626 L 45 801 L 175 801 L 276 626 Z" unicode="î" />
<glyph horiz-adv-x="223" d="M 0 0 L 0 0 Z M 189 0 L 34 0 L 34 567 L 189 567 L 189 0 Z M 110 626 L 110 626 Z M 259 626 L 134 626 L 134 790 L 259 790 L 259 626 Z M 86 626 L -39 626 L -39 790 L 86 790 L 86 626 Z" unicode="ï" />
<glyph horiz-adv-x="462" d="M 437 319 C 437 274 432 232 424 192 C 416 152 403 117 386 87 C 368 57 346 33 320 16 C 294 -1 263 -10 227 -10 C 165 -10 114 14 75 62 C 36 110 17 178 17 266 C 17 314 22 356 33 391 C 43 426 57 455 75 478 C 92 500 112 517 134 528 C 156 538 178 544 201 544 C 222 544 241 540 258 533 C 275 525 289 515 300 503 C 297 521 293 539 288 557 C 283 575 277 592 271 609 L 199 585 L 175 668 L 236 688 C 229 702 222 714 215 726 C 207 738 201 748 196 756 L 308 801 C 312 794 318 784 326 771 C 333 758 341 742 350 724 L 410 744 L 434 663 L 382 646 C 396 604 409 555 420 499 C 431 443 437 383 437 319 Z M 224 108 C 242 108 255 119 263 141 C 271 163 276 208 276 276 C 276 313 274 343 272 367 C 270 390 266 408 262 420 C 258 432 252 441 246 445 C 239 449 232 452 224 452 C 207 452 194 439 186 413 C 178 387 174 342 174 278 C 174 212 178 167 186 143 C 194 119 207 108 224 108 Z" unicode="ð" />
<glyph horiz-adv-x="458" d="M 32 0 L 32 0 Z M 428 0 L 273 0 L 273 410 C 273 422 269 432 261 440 C 253 447 244 451 233 451 C 220 451 209 447 200 439 C 191 431 187 418 187 400 L 187 0 L 32 0 L 32 567 L 173 567 L 173 503 C 181 523 196 539 218 552 C 240 565 268 572 302 572 C 340 572 370 562 393 544 C 416 525 428 494 428 450 L 428 0 Z M 231 628 L 231 628 Z M 297 787 L 411 787 C 411 733 402 693 386 667 C 369 641 348 628 322 628 C 301 628 283 630 269 636 C 255 642 244 647 236 652 C 227 656 219 661 211 665 C 203 669 196 671 190 671 C 183 671 177 667 172 660 C 167 652 164 643 164 631 L 52 631 C 52 684 62 724 83 750 C 103 776 126 790 150 790 C 169 790 185 787 197 782 C 209 776 220 771 230 766 C 237 761 244 757 250 754 C 256 751 263 750 269 750 C 274 750 280 753 286 759 C 292 765 296 774 297 787 Z" unicode="ñ" />
<glyph horiz-adv-x="459" d="M 16 0 L 16 0 Z M 228 -6 C 198 -6 170 0 144 11 C 118 23 95 40 77 64 C 58 87 43 117 32 154 C 21 190 16 233 16 283 C 16 373 35 443 74 495 C 112 546 162 572 224 572 C 289 572 342 549 382 504 C 422 459 443 391 443 300 C 443 202 423 127 385 74 C 346 20 294 -6 228 -6 Z M 230 107 C 239 107 247 109 254 114 C 260 119 266 128 270 142 C 274 155 276 174 278 198 C 280 222 281 252 281 290 C 281 324 280 353 278 375 C 276 397 272 414 268 426 C 264 438 258 447 252 451 C 245 455 237 458 228 458 C 219 458 211 455 205 451 C 199 447 194 438 190 426 C 186 414 183 397 181 375 C 179 353 178 324 178 290 C 178 251 179 220 181 196 C 183 172 187 153 191 140 C 195 126 201 117 207 113 C 213 109 221 107 230 107 Z M 230 626 L 230 626 Z M 367 626 L 218 626 L 93 801 L 271 801 L 367 626 Z" unicode="ò" />
<glyph horiz-adv-x="459" d="M 16 0 L 16 0 Z M 228 -6 C 198 -6 170 0 144 11 C 118 23 95 40 77 64 C 58 87 43 117 32 154 C 21 190 16 233 16 283 C 16 373 35 443 74 495 C 112 546 162 572 224 572 C 289 572 342 549 382 504 C 422 459 443 391 443 300 C 443 202 423 127 385 74 C 346 20 294 -6 228 -6 Z M 230 107 C 239 107 247 109 254 114 C 260 119 266 128 270 142 C 274 155 276 174 278 198 C 280 222 281 252 281 290 C 281 324 280 353 278 375 C 276 397 272 414 268 426 C 264 438 258 447 252 451 C 245 455 237 458 228 458 C 219 458 211 455 205 451 C 199 447 194 438 190 426 C 186 414 183 397 181 375 C 179 353 178 324 178 290 C 178 251 179 220 181 196 C 183 172 187 153 191 140 C 195 126 201 117 207 113 C 213 109 221 107 230 107 Z M 230 626 L 230 626 Z M 93 626 L 189 801 L 368 801 L 243 626 L 93 626 Z" unicode="ó" />
<glyph horiz-adv-x="459" d="M 16 0 L 16 0 Z M 228 -6 C 198 -6 170 0 144 11 C 118 23 95 40 77 64 C 58 87 43 117 32 154 C 21 190 16 233 16 283 C 16 373 35 443 74 495 C 112 546 162 572 224 572 C 289 572 342 549 382 504 C 422 459 443 391 443 300 C 443 202 423 127 385 74 C 346 20 294 -6 228 -6 Z M 230 107 C 239 107 247 109 254 114 C 260 119 266 128 270 142 C 274 155 276 174 278 198 C 280 222 281 252 281 290 C 281 324 280 353 278 375 C 276 397 272 414 268 426 C 264 438 258 447 252 451 C 245 455 237 458 228 458 C 219 458 211 455 205 451 C 199 447 194 438 190 426 C 186 414 183 397 181 375 C 179 353 178 324 178 290 C 178 251 179 220 181 196 C 183 172 187 153 191 140 C 195 126 201 117 207 113 C 213 109 221 107 230 107 Z M 230 626 L 230 626 Z M 396 626 L 270 626 L 229 696 L 188 626 L 64 626 L 165 801 L 295 801 L 396 626 Z" unicode="ô" />
<glyph horiz-adv-x="459" d="M 16 0 L 16 0 Z M 228 -6 C 198 -6 170 0 144 11 C 118 23 95 40 77 64 C 58 87 43 117 32 154 C 21 190 16 233 16 283 C 16 373 35 443 74 495 C 112 546 162 572 224 572 C 289 572 342 549 382 504 C 422 459 443 391 443 300 C 443 202 423 127 385 74 C 346 20 294 -6 228 -6 Z M 230 107 C 239 107 247 109 254 114 C 260 119 266 128 270 142 C 274 155 276 174 278 198 C 280 222 281 252 281 290 C 281 324 280 353 278 375 C 276 397 272 414 268 426 C 264 438 258 447 252 451 C 245 455 237 458 228 458 C 219 458 211 455 205 451 C 199 447 194 438 190 426 C 186 414 183 397 181 375 C 179 353 178 324 178 290 C 178 251 179 220 181 196 C 183 172 187 153 191 140 C 195 126 201 117 207 113 C 213 109 221 107 230 107 Z M 230 628 L 230 628 Z M 296 787 L 410 787 C 410 733 401 693 385 667 C 368 641 347 628 321 628 C 300 628 282 630 268 636 C 254 642 243 647 235 652 C 226 656 218 661 210 665 C 202 669 195 671 189 671 C 182 671 176 667 171 660 C 166 652 163 643 163 631 L 51 631 C 51 684 61 724 82 750 C 102 776 125 790 149 790 C 168 790 184 787 196 782 C 208 776 219 771 229 766 C 236 761 243 757 249 754 C 255 751 262 750 268 750 C 273 750 279 753 285 759 C 291 765 295 774 296 787 Z" unicode="õ" />
<glyph horiz-adv-x="459" d="M 16 0 L 16 0 Z M 228 -6 C 198 -6 170 0 144 11 C 118 23 95 40 77 64 C 58 87 43 117 32 154 C 21 190 16 233 16 283 C 16 373 35 443 74 495 C 112 546 162 572 224 572 C 289 572 342 549 382 504 C 422 459 443 391 443 300 C 443 202 423 127 385 74 C 346 20 294 -6 228 -6 Z M 230 107 C 239 107 247 109 254 114 C 260 119 266 128 270 142 C 274 155 276 174 278 198 C 280 222 281 252 281 290 C 281 324 280 353 278 375 C 276 397 272 414 268 426 C 264 438 258 447 252 451 C 245 455 237 458 228 458 C 219 458 211 455 205 451 C 199 447 194 438 190 426 C 186 414 183 397 181 375 C 179 353 178 324 178 290 C 178 251 179 220 181 196 C 183 172 187 153 191 140 C 195 126 201 117 207 113 C 213 109 221 107 230 107 Z M 230 626 L 230 626 Z M 379 626 L 254 626 L 254 790 L 379 790 L 379 626 Z M 206 626 L 81 626 L 81 790 L 206 790 L 206 626 Z" unicode="ö" />
<glyph horiz-adv-x="448" d="M 151 449 L 151 585 L 297 585 L 297 449 L 151 449 Z M 19 264 L 19 397 L 429 397 L 429 264 L 19 264 Z M 151 74 L 151 210 L 297 210 L 297 74 L 151 74 Z" unicode="÷" />
<glyph horiz-adv-x="459" d="M 228 -6 C 204 -6 182 -2 161 4 C 139 11 120 22 104 36 L 74 -12 L 23 18 L 63 83 C 48 106 36 134 28 168 C 20 201 16 239 16 283 C 16 373 35 443 74 495 C 112 546 162 572 224 572 C 246 572 268 569 288 563 C 308 557 327 549 344 539 L 374 588 L 425 558 L 388 498 C 405 475 418 447 428 414 C 438 381 443 343 443 300 C 443 202 423 127 385 74 C 346 20 294 -6 228 -6 Z M 178 290 C 178 290 178 289 178 287 C 178 285 178 280 178 270 L 271 420 C 266 434 260 444 254 450 C 247 455 238 458 228 458 C 219 458 211 455 205 451 C 199 447 194 438 190 426 C 186 414 183 397 181 375 C 179 353 178 324 178 290 Z M 281 290 C 281 296 281 301 281 307 C 281 313 281 318 281 324 L 185 168 C 189 143 194 127 202 119 C 210 111 219 107 230 107 C 239 107 247 109 254 114 C 260 119 266 128 270 142 C 274 155 276 174 278 198 C 280 222 281 252 281 290 Z" unicode="ø" />
<glyph horiz-adv-x="459" d="M 30 0 L 30 0 Z M 30 567 L 184 567 L 184 156 C 184 138 188 126 196 118 C 204 110 215 106 227 106 C 239 106 249 110 258 120 C 267 130 272 147 272 172 L 272 567 L 427 567 L 427 0 L 281 0 L 281 61 C 273 42 257 26 233 13 C 209 0 184 -7 158 -7 C 124 -7 95 3 69 25 C 43 46 30 79 30 124 L 30 567 Z M 228 626 L 228 626 Z M 365 626 L 216 626 L 91 801 L 269 801 L 365 626 Z" unicode="ù" />
<glyph horiz-adv-x="459" d="M 30 0 L 30 0 Z M 30 567 L 184 567 L 184 156 C 184 138 188 126 196 118 C 204 110 215 106 227 106 C 239 106 249 110 258 120 C 267 130 272 147 272 172 L 272 567 L 427 567 L 427 0 L 281 0 L 281 61 C 273 42 257 26 233 13 C 209 0 184 -7 158 -7 C 124 -7 95 3 69 25 C 43 46 30 79 30 124 L 30 567 Z M 228 626 L 228 626 Z M 91 626 L 187 801 L 366 801 L 241 626 L 91 626 Z" unicode="ú" />
<glyph horiz-adv-x="459" d="M 30 0 L 30 0 Z M 30 567 L 184 567 L 184 156 C 184 138 188 126 196 118 C 204 110 215 106 227 106 C 239 106 249 110 258 120 C 267 130 272 147 272 172 L 272 567 L 427 567 L 427 0 L 281 0 L 281 61 C 273 42 257 26 233 13 C 209 0 184 -7 158 -7 C 124 -7 95 3 69 25 C 43 46 30 79 30 124 L 30 567 Z M 228 626 L 228 626 Z M 394 626 L 268 626 L 227 696 L 186 626 L 62 626 L 163 801 L 293 801 L 394 626 Z" unicode="û" />
<glyph horiz-adv-x="459" d="M 30 0 L 30 0 Z M 30 567 L 184 567 L 184 156 C 184 138 188 126 196 118 C 204 110 215 106 227 106 C 239 106 249 110 258 120 C 267 130 272 147 272 172 L 272 567 L 427 567 L 427 0 L 281 0 L 281 61 C 273 42 257 26 233 13 C 209 0 184 -7 158 -7 C 124 -7 95 3 69 25 C 43 46 30 79 30 124 L 30 567 Z M 228 626 L 228 626 Z M 377 626 L 252 626 L 252 790 L 377 790 L 377 626 Z M 204 626 L 79 626 L 79 790 L 204 790 L 204 626 Z" unicode="ü" />
<glyph horiz-adv-x="405" d="M 0 0 L 0 0 Z M 410 567 L 235 -90 C 225 -126 204 -153 174 -172 C 144 -190 110 -200 74 -200 C 51 -200 31 -197 15 -192 C 0 -186 -12 -181 -18 -177 L 21 -76 C 23 -78 29 -81 37 -84 C 45 -86 52 -88 60 -88 C 73 -88 84 -82 94 -72 C 103 -62 110 -46 115 -26 L 132 48 L -5 567 L 151 567 L 212 262 L 272 567 L 410 567 Z M 208 626 L 208 626 Z M 71 626 L 167 801 L 346 801 L 221 626 L 71 626 Z" unicode="ý" />
<glyph horiz-adv-x="464" d="M 32 -200 L 32 800 L 175 800 L 175 487 C 181 511 196 532 218 548 C 240 564 264 572 291 572 C 317 572 339 565 359 552 C 379 539 395 521 408 498 C 420 474 430 446 436 414 C 442 382 446 347 446 309 C 446 208 431 131 402 77 C 373 23 334 -4 284 -4 C 262 -4 240 0 220 9 C 200 17 186 30 178 48 L 178 -200 L 32 -200 Z M 225 105 C 233 105 241 107 248 112 C 255 116 261 125 266 137 C 270 149 274 167 277 189 C 279 211 281 239 281 273 C 281 338 276 383 268 408 C 259 433 245 446 226 446 C 218 446 211 444 205 440 C 198 436 192 427 188 415 C 183 403 179 385 177 361 C 174 337 173 306 173 267 C 173 231 174 203 176 181 C 178 159 182 143 187 132 C 191 120 197 113 203 110 C 209 106 217 105 225 105 Z" unicode="þ" />
<glyph horiz-adv-x="405" d="M 0 0 L 0 0 Z M 410 567 L 235 -90 C 225 -126 204 -153 174 -172 C 144 -190 110 -200 74 -200 C 51 -200 31 -197 15 -192 C 0 -186 -12 -181 -18 -177 L 21 -76 C 23 -78 29 -81 37 -84 C 45 -86 52 -88 60 -88 C 73 -88 84 -82 94 -72 C 103 -62 110 -46 115 -26 L 132 48 L -5 567 L 151 567 L 212 262 L 272 567 L 410 567 Z M 208 626 L 208 626 Z M 357 626 L 232 626 L 232 790 L 357 790 L 357 626 Z M 184 626 L 59 626 L 59 790 L 184 790 L 184 626 Z" unicode="ÿ" />
<glyph horiz-adv-x="510" d="M 0 0 L 0 0 Z M 515 0 L 354 0 L 323 125 L 179 125 L 151 0 L -5 0 L 197 733 L 315 733 L 515 0 Z M 308 245 L 250 466 L 197 245 L 308 245 Z M 257 795 L 257 795 Z M 395 795 L 119 795 L 119 913 L 395 913 L 395 795 Z" unicode="Ā" />
<glyph horiz-adv-x="420" d="M 16 0 L 16 0 Z M 391 0 L 255 0 L 255 45 C 239 25 222 12 204 5 C 186 -2 164 -6 140 -6 C 100 -6 70 11 48 46 C 26 81 16 125 16 178 C 16 241 31 287 63 316 C 94 344 134 359 182 361 L 246 364 L 246 399 C 246 419 240 434 230 445 C 219 455 203 461 181 461 C 159 461 139 457 122 450 C 105 443 92 436 84 430 L 44 535 C 60 545 83 555 111 565 C 139 574 177 579 223 579 C 273 579 313 564 344 536 C 375 507 391 468 391 418 L 391 0 Z M 248 128 L 248 272 L 214 270 C 198 269 186 261 176 246 C 166 231 161 208 161 178 C 161 149 165 129 175 118 C 184 107 193 102 203 102 C 214 102 223 104 230 109 C 237 114 243 120 248 128 Z M 213 632 L 213 632 Z M 351 632 L 75 632 L 75 750 L 351 750 L 351 632 Z" unicode="ā" />
<glyph horiz-adv-x="510" d="M 0 0 L 0 0 Z M 515 0 L 354 0 L 323 125 L 179 125 L 151 0 L -5 0 L 197 733 L 315 733 L 515 0 Z M 308 245 L 250 466 L 197 245 L 308 245 Z M 257 788 L 257 788 Z M 294 951 L 421 951 C 416 895 399 853 370 827 C 340 801 303 788 257 788 C 211 788 173 801 144 827 C 114 853 98 895 94 951 L 221 951 C 221 929 224 912 229 901 C 233 889 243 884 257 884 C 271 884 280 889 285 900 C 290 911 293 928 294 951 Z" unicode="Ă" />
<glyph horiz-adv-x="420" d="M 16 0 L 16 0 Z M 391 0 L 255 0 L 255 45 C 239 25 222 12 204 5 C 186 -2 164 -6 140 -6 C 100 -6 70 11 48 46 C 26 81 16 125 16 178 C 16 241 31 287 63 316 C 94 344 134 359 182 361 L 246 364 L 246 399 C 246 419 240 434 230 445 C 219 455 203 461 181 461 C 159 461 139 457 122 450 C 105 443 92 436 84 430 L 44 535 C 60 545 83 555 111 565 C 139 574 177 579 223 579 C 273 579 313 564 344 536 C 375 507 391 468 391 418 L 391 0 Z M 248 128 L 248 272 L 214 270 C 198 269 186 261 176 246 C 166 231 161 208 161 178 C 161 149 165 129 175 118 C 184 107 193 102 203 102 C 214 102 223 104 230 109 C 237 114 243 120 248 128 Z M 213 625 L 213 625 Z M 250 788 L 377 788 C 372 732 355 690 326 664 C 296 638 259 625 213 625 C 167 625 129 638 100 664 C 70 690 54 732 50 788 L 177 788 C 177 766 180 749 185 738 C 189 726 199 721 213 721 C 227 721 236 726 241 737 C 246 748 249 765 250 788 Z" unicode="ă" />
<glyph horiz-adv-x="510" d="M 0 0 L 0 0 Z M 515 0 L 354 0 L 323 125 L 179 125 L 151 0 L -5 0 L 197 733 L 315 733 L 515 0 Z M 308 245 L 250 466 L 197 245 L 308 245 Z M 375 -4 L 375 -4 Z M 468 -63 L 508 -128 C 485 -152 461 -170 437 -182 C 412 -194 384 -200 353 -200 C 317 -200 289 -192 270 -177 C 251 -161 242 -142 242 -120 C 242 -94 253 -70 277 -48 C 301 -25 334 -6 378 10 L 432 10 C 411 0 396 -10 387 -22 C 378 -34 374 -45 374 -56 C 374 -65 377 -72 383 -78 C 389 -83 397 -86 407 -86 C 419 -86 431 -83 441 -79 C 451 -75 460 -69 468 -63 Z" unicode="Ą" />
<glyph horiz-adv-x="420" d="M 16 0 L 16 0 Z M 391 0 L 255 0 L 255 45 C 239 25 222 12 204 5 C 186 -2 164 -6 140 -6 C 100 -6 70 11 48 46 C 26 81 16 125 16 178 C 16 241 31 287 63 316 C 94 344 134 359 182 361 L 246 364 L 246 399 C 246 419 240 434 230 445 C 219 455 203 461 181 461 C 159 461 139 457 122 450 C 105 443 92 436 84 430 L 44 535 C 60 545 83 555 111 565 C 139 574 177 579 223 579 C 273 579 313 564 344 536 C 375 507 391 468 391 418 L 391 0 Z M 248 128 L 248 272 L 214 270 C 198 269 186 261 176 246 C 166 231 161 208 161 178 C 161 149 165 129 175 118 C 184 107 193 102 203 102 C 214 102 223 104 230 109 C 237 114 243 120 248 128 Z M 276 -4 L 276 -4 Z M 369 -63 L 409 -128 C 386 -152 362 -170 338 -182 C 313 -194 285 -200 254 -200 C 218 -200 190 -192 171 -177 C 152 -161 143 -142 143 -120 C 143 -94 154 -70 178 -48 C 202 -25 235 -6 279 10 L 333 10 C 312 0 297 -10 288 -22 C 279 -34 275 -45 275 -56 C 275 -65 278 -72 284 -78 C 290 -83 298 -86 308 -86 C 320 -86 332 -83 342 -79 C 352 -75 361 -69 369 -63 Z" unicode="ą" />
<glyph horiz-adv-x="525" d="M 23 0 L 23 0 Z M 277 -6 C 199 -6 138 25 92 87 C 46 149 23 242 23 366 C 23 422 28 474 39 520 C 49 566 65 605 87 637 C 108 669 135 693 167 710 C 199 727 237 736 280 736 C 347 736 398 719 432 685 C 466 651 489 603 500 541 L 358 512 C 351 540 342 562 332 579 C 322 596 306 605 284 605 C 270 605 257 601 245 595 C 233 588 224 576 216 558 C 208 540 202 515 198 484 C 194 452 192 412 192 363 C 192 313 195 273 201 242 C 207 210 214 186 224 169 C 234 152 245 140 258 134 C 270 128 283 125 297 125 C 321 125 340 132 352 148 C 364 163 374 185 382 214 L 508 175 C 490 113 461 67 422 38 C 382 8 334 -6 277 -6 Z M 288 789 L 288 789 Z M 151 789 L 247 964 L 426 964 L 301 789 L 151 789 Z" unicode="Ć" />
<glyph horiz-adv-x="381" d="M 16 0 L 16 0 Z M 324 145 L 374 58 C 358 41 339 26 318 13 C 296 0 265 -6 223 -6 C 189 -6 160 1 134 16 C 108 31 87 52 69 78 C 51 104 38 134 29 170 C 20 205 16 243 16 283 C 16 321 20 358 29 393 C 38 428 51 459 69 485 C 87 511 109 532 136 548 C 162 564 193 572 228 572 C 265 572 296 565 320 551 C 344 537 362 521 375 504 L 313 416 C 304 426 294 434 284 439 C 273 444 261 447 247 447 C 226 447 209 434 197 410 C 185 386 179 347 179 294 C 179 224 188 177 206 153 C 224 129 243 117 262 117 C 274 117 286 119 297 125 C 307 131 316 137 324 145 Z M 218 626 L 218 626 Z M 81 626 L 177 801 L 356 801 L 231 626 L 81 626 Z" unicode="ć" />
<glyph horiz-adv-x="525" d="M 23 0 L 23 0 Z M 277 -6 C 199 -6 138 25 92 87 C 46 149 23 242 23 366 C 23 422 28 474 39 520 C 49 566 65 605 87 637 C 108 669 135 693 167 710 C 199 727 237 736 280 736 C 347 736 398 719 432 685 C 466 651 489 603 500 541 L 358 512 C 351 540 342 562 332 579 C 322 596 306 605 284 605 C 270 605 257 601 245 595 C 233 588 224 576 216 558 C 208 540 202 515 198 484 C 194 452 192 412 192 363 C 192 313 195 273 201 242 C 207 210 214 186 224 169 C 234 152 245 140 258 134 C 270 128 283 125 297 125 C 321 125 340 132 352 148 C 364 163 374 185 382 214 L 508 175 C 490 113 461 67 422 38 C 382 8 334 -6 277 -6 Z M 288 789 L 288 789 Z M 454 789 L 328 789 L 287 859 L 246 789 L 122 789 L 223 964 L 353 964 L 454 789 Z" unicode="Ĉ" />
<glyph horiz-adv-x="381" d="M 16 0 L 16 0 Z M 324 145 L 374 58 C 358 41 339 26 318 13 C 296 0 265 -6 223 -6 C 189 -6 160 1 134 16 C 108 31 87 52 69 78 C 51 104 38 134 29 170 C 20 205 16 243 16 283 C 16 321 20 358 29 393 C 38 428 51 459 69 485 C 87 511 109 532 136 548 C 162 564 193 572 228 572 C 265 572 296 565 320 551 C 344 537 362 521 375 504 L 313 416 C 304 426 294 434 284 439 C 273 444 261 447 247 447 C 226 447 209 434 197 410 C 185 386 179 347 179 294 C 179 224 188 177 206 153 C 224 129 243 117 262 117 C 274 117 286 119 297 125 C 307 131 316 137 324 145 Z M 218 626 L 218 626 Z M 384 626 L 258 626 L 217 696 L 176 626 L 52 626 L 153 801 L 283 801 L 384 626 Z" unicode="ĉ" />
<glyph horiz-adv-x="525" d="M 23 0 L 23 0 Z M 277 -6 C 199 -6 138 25 92 87 C 46 149 23 242 23 366 C 23 422 28 474 39 520 C 49 566 65 605 87 637 C 108 669 135 693 167 710 C 199 727 237 736 280 736 C 347 736 398 719 432 685 C 466 651 489 603 500 541 L 358 512 C 351 540 342 562 332 579 C 322 596 306 605 284 605 C 270 605 257 601 245 595 C 233 588 224 576 216 558 C 208 540 202 515 198 484 C 194 452 192 412 192 363 C 192 313 195 273 201 242 C 207 210 214 186 224 169 C 234 152 245 140 258 134 C 270 128 283 125 297 125 C 321 125 340 132 352 148 C 364 163 374 185 382 214 L 508 175 C 490 113 461 67 422 38 C 382 8 334 -6 277 -6 Z M 288 791 L 288 791 Z M 359 791 L 218 791 L 218 937 L 359 937 L 359 791 Z" unicode="Ċ" />
<glyph horiz-adv-x="381" d="M 16 0 L 16 0 Z M 324 145 L 374 58 C 358 41 339 26 318 13 C 296 0 265 -6 223 -6 C 189 -6 160 1 134 16 C 108 31 87 52 69 78 C 51 104 38 134 29 170 C 20 205 16 243 16 283 C 16 321 20 358 29 393 C 38 428 51 459 69 485 C 87 511 109 532 136 548 C 162 564 193 572 228 572 C 265 572 296 565 320 551 C 344 537 362 521 375 504 L 313 416 C 304 426 294 434 284 439 C 273 444 261 447 247 447 C 226 447 209 434 197 410 C 185 386 179 347 179 294 C 179 224 188 177 206 153 C 224 129 243 117 262 117 C 274 117 286 119 297 125 C 307 131 316 137 324 145 Z M 218 628 L 218 628 Z M 289 628 L 148 628 L 148 774 L 289 774 L 289 628 Z" unicode="ċ" />
<glyph horiz-adv-x="525" d="M 23 0 L 23 0 Z M 277 -6 C 199 -6 138 25 92 87 C 46 149 23 242 23 366 C 23 422 28 474 39 520 C 49 566 65 605 87 637 C 108 669 135 693 167 710 C 199 727 237 736 280 736 C 347 736 398 719 432 685 C 466 651 489 603 500 541 L 358 512 C 351 540 342 562 332 579 C 322 596 306 605 284 605 C 270 605 257 601 245 595 C 233 588 224 576 216 558 C 208 540 202 515 198 484 C 194 452 192 412 192 363 C 192 313 195 273 201 242 C 207 210 214 186 224 169 C 234 152 245 140 258 134 C 270 128 283 125 297 125 C 321 125 340 132 352 148 C 364 163 374 185 382 214 L 508 175 C 490 113 461 67 422 38 C 382 8 334 -6 277 -6 Z M 288 789 L 288 789 Z M 122 964 L 248 964 L 289 895 L 330 964 L 454 964 L 353 789 L 223 789 L 122 964 Z" unicode="Č" />
<glyph horiz-adv-x="381" d="M 16 0 L 16 0 Z M 324 145 L 374 58 C 358 41 339 26 318 13 C 296 0 265 -6 223 -6 C 189 -6 160 1 134 16 C 108 31 87 52 69 78 C 51 104 38 134 29 170 C 20 205 16 243 16 283 C 16 321 20 358 29 393 C 38 428 51 459 69 485 C 87 511 109 532 136 548 C 162 564 193 572 228 572 C 265 572 296 565 320 551 C 344 537 362 521 375 504 L 313 416 C 304 426 294 434 284 439 C 273 444 261 447 247 447 C 226 447 209 434 197 410 C 185 386 179 347 179 294 C 179 224 188 177 206 153 C 224 129 243 117 262 117 C 274 117 286 119 297 125 C 307 131 316 137 324 145 Z M 218 626 L 218 626 Z M 52 801 L 178 801 L 219 732 L 260 801 L 384 801 L 283 626 L 153 626 L 52 801 Z" unicode="č" />
<glyph horiz-adv-x="555" d="M 41 0 L 41 0 Z M 41 0 L 41 730 L 236 730 C 284 730 326 720 363 702 C 400 684 431 658 455 626 C 479 594 498 555 511 509 C 523 463 530 413 530 359 C 530 308 523 261 511 217 C 499 173 480 135 455 103 C 430 71 399 45 361 27 C 323 9 278 0 228 0 L 41 0 Z M 210 135 L 240 135 C 284 135 314 153 332 190 C 350 226 359 282 359 358 C 359 446 348 508 327 543 C 306 577 278 595 242 595 L 210 595 L 210 135 Z M 258 789 L 258 789 Z M 92 964 L 218 964 L 259 895 L 300 964 L 424 964 L 323 789 L 193 789 L 92 964 Z" unicode="Ď" />
<glyph horiz-adv-x="470" d="M 18 0 L 18 0 Z M 188 -6 C 162 -6 139 1 118 15 C 97 29 79 48 65 73 C 50 97 38 127 30 162 C 22 196 18 234 18 275 C 18 365 34 437 66 489 C 98 541 138 568 187 568 C 211 568 233 561 253 549 C 272 537 285 522 292 504 L 292 800 L 438 800 L 438 0 L 300 0 L 300 53 C 294 38 280 24 259 12 C 238 0 214 -6 188 -6 Z M 242 103 C 258 103 271 115 281 141 C 290 166 295 214 295 286 C 295 322 293 350 291 372 C 288 394 284 410 279 422 C 274 433 268 440 261 444 C 254 448 247 450 239 450 C 230 450 222 447 216 443 C 209 438 203 429 199 417 C 195 405 191 388 189 366 C 187 344 186 315 186 281 C 186 245 187 215 189 192 C 191 168 195 150 200 137 C 204 124 210 115 217 110 C 224 105 232 103 242 103 Z M 616 619 L 610 460 L 476 460 L 470 619 L 470 730 L 616 730 L 616 619 Z" unicode="ď" />
<glyph horiz-adv-x="555" d="M 5 0 L 5 0 Z M 524 359 C 524 308 517 261 505 217 C 493 173 474 135 449 103 C 424 71 392 45 354 27 C 316 9 271 0 221 0 L 35 0 L 35 295 L 5 295 L 5 419 L 35 419 L 35 730 L 230 730 C 278 730 320 720 357 702 C 394 684 425 658 449 626 C 473 594 492 555 505 509 C 517 463 524 413 524 359 Z M 204 131 L 234 131 C 278 131 308 149 326 187 C 344 224 353 281 353 357 C 353 447 342 509 321 545 C 300 581 272 599 236 599 L 204 599 L 204 419 L 280 419 L 280 295 L 204 295 L 204 131 Z" unicode="Đ" />
<glyph horiz-adv-x="470" d="M 300 53 C 294 38 280 24 259 12 C 238 0 214 -6 188 -6 C 162 -6 139 1 118 15 C 97 29 79 48 65 73 C 50 97 38 127 30 162 C 22 196 18 234 18 275 C 18 365 34 437 66 489 C 98 541 138 568 187 568 C 211 568 233 561 253 549 C 272 537 285 522 292 504 L 292 616 L 222 616 L 222 720 L 292 720 L 292 800 L 438 800 L 438 720 L 470 720 L 470 616 L 438 616 L 438 0 L 300 0 L 300 53 Z M 242 103 C 258 103 271 115 281 141 C 290 166 295 214 295 286 C 295 322 293 350 291 372 C 288 394 284 410 279 422 C 274 433 268 440 261 444 C 254 448 247 450 239 450 C 230 450 222 447 216 443 C 209 438 203 429 199 417 C 195 405 191 388 189 366 C 187 344 186 315 186 281 C 186 245 187 215 189 192 C 191 168 195 150 200 137 C 204 124 210 115 217 110 C 224 105 232 103 242 103 Z" unicode="đ" />
<glyph horiz-adv-x="423" d="M 41 0 L 41 0 Z M 413 0 L 41 0 L 41 730 L 392 730 L 392 588 L 207 588 L 207 433 L 380 433 L 380 292 L 207 292 L 207 142 L 413 142 L 413 0 Z M 217 795 L 217 795 Z M 355 795 L 79 795 L 79 913 L 355 913 L 355 795 Z" unicode="Ē" />
<glyph horiz-adv-x="437" d="M 16 0 L 16 0 Z M 222 -6 C 161 -6 111 19 73 69 C 35 119 16 189 16 278 C 16 372 35 444 73 495 C 111 545 159 571 217 571 C 284 571 335 544 370 492 C 405 439 423 358 423 248 L 171 248 C 171 211 179 179 196 153 C 213 126 238 113 271 113 C 291 113 310 118 328 130 C 345 141 359 152 370 163 L 417 89 C 409 79 398 68 386 57 C 373 46 358 36 342 27 C 326 17 307 9 287 3 C 267 -2 245 -6 222 -6 Z M 167 344 L 280 344 C 280 384 274 414 264 432 C 254 450 241 459 227 459 C 211 459 197 449 185 431 C 173 413 167 384 167 344 Z M 223 632 L 223 632 Z M 361 632 L 85 632 L 85 750 L 361 750 L 361 632 Z" unicode="ē" />
<glyph horiz-adv-x="423" d="M 41 0 L 41 0 Z M 413 0 L 41 0 L 41 730 L 392 730 L 392 588 L 207 588 L 207 433 L 380 433 L 380 292 L 207 292 L 207 142 L 413 142 L 413 0 Z M 217 788 L 217 788 Z M 254 951 L 381 951 C 376 895 359 853 330 827 C 300 801 263 788 217 788 C 171 788 133 801 104 827 C 74 853 58 895 54 951 L 181 951 C 181 929 184 912 189 901 C 193 889 203 884 217 884 C 231 884 240 889 245 900 C 250 911 253 928 254 951 Z" unicode="Ĕ" />
<glyph horiz-adv-x="437" d="M 16 0 L 16 0 Z M 222 -6 C 161 -6 111 19 73 69 C 35 119 16 189 16 278 C 16 372 35 444 73 495 C 111 545 159 571 217 571 C 284 571 335 544 370 492 C 405 439 423 358 423 248 L 171 248 C 171 211 179 179 196 153 C 213 126 238 113 271 113 C 291 113 310 118 328 130 C 345 141 359 152 370 163 L 417 89 C 409 79 398 68 386 57 C 373 46 358 36 342 27 C 326 17 307 9 287 3 C 267 -2 245 -6 222 -6 Z M 167 344 L 280 344 C 280 384 274 414 264 432 C 254 450 241 459 227 459 C 211 459 197 449 185 431 C 173 413 167 384 167 344 Z M 223 625 L 223 625 Z M 260 788 L 387 788 C 382 732 365 690 336 664 C 306 638 269 625 223 625 C 177 625 139 638 110 664 C 80 690 64 732 60 788 L 187 788 C 187 766 190 749 195 738 C 199 726 209 721 223 721 C 237 721 246 726 251 737 C 256 748 259 765 260 788 Z" unicode="ĕ" />
<glyph horiz-adv-x="423" d="M 41 0 L 41 0 Z M 413 0 L 41 0 L 41 730 L 392 730 L 392 588 L 207 588 L 207 433 L 380 433 L 380 292 L 207 292 L 207 142 L 413 142 L 413 0 Z M 217 791 L 217 791 Z M 288 791 L 147 791 L 147 937 L 288 937 L 288 791 Z" unicode="Ė" />
<glyph horiz-adv-x="437" d="M 16 0 L 16 0 Z M 222 -6 C 161 -6 111 19 73 69 C 35 119 16 189 16 278 C 16 372 35 444 73 495 C 111 545 159 571 217 571 C 284 571 335 544 370 492 C 405 439 423 358 423 248 L 171 248 C 171 211 179 179 196 153 C 213 126 238 113 271 113 C 291 113 310 118 328 130 C 345 141 359 152 370 163 L 417 89 C 409 79 398 68 386 57 C 373 46 358 36 342 27 C 326 17 307 9 287 3 C 267 -2 245 -6 222 -6 Z M 167 344 L 280 344 C 280 384 274 414 264 432 C 254 450 241 459 227 459 C 211 459 197 449 185 431 C 173 413 167 384 167 344 Z M 223 628 L 223 628 Z M 294 628 L 153 628 L 153 774 L 294 774 L 294 628 Z" unicode="ė" />
<glyph horiz-adv-x="423" d="M 41 0 L 41 0 Z M 413 0 L 41 0 L 41 730 L 392 730 L 392 588 L 207 588 L 207 433 L 380 433 L 380 292 L 207 292 L 207 142 L 413 142 L 413 0 Z M 355 -4 L 355 -4 Z M 448 -63 L 488 -128 C 465 -152 441 -170 417 -182 C 392 -194 364 -200 333 -200 C 297 -200 269 -192 250 -177 C 231 -161 222 -142 222 -120 C 222 -94 233 -70 257 -48 C 281 -25 314 -6 358 10 L 412 10 C 391 0 376 -10 367 -22 C 358 -34 354 -45 354 -56 C 354 -65 357 -72 363 -78 C 369 -83 377 -86 387 -86 C 399 -86 411 -83 421 -79 C 431 -75 440 -69 448 -63 Z" unicode="Ę" />
<glyph horiz-adv-x="437" d="M 16 0 L 16 0 Z M 222 -6 C 161 -6 111 19 73 69 C 35 119 16 189 16 278 C 16 372 35 444 73 495 C 111 545 159 571 217 571 C 284 571 335 544 370 492 C 405 439 423 358 423 248 L 171 248 C 171 211 179 179 196 153 C 213 126 238 113 271 113 C 291 113 310 118 328 130 C 345 141 359 152 370 163 L 417 89 C 409 79 398 68 386 57 C 373 46 358 36 342 27 C 326 17 307 9 287 3 C 267 -2 245 -6 222 -6 Z M 167 344 L 280 344 C 280 384 274 414 264 432 C 254 450 241 459 227 459 C 211 459 197 449 185 431 C 173 413 167 384 167 344 Z M 248 -4 L 248 -4 Z M 341 -63 L 381 -128 C 358 -152 334 -170 310 -182 C 285 -194 257 -200 226 -200 C 190 -200 162 -192 143 -177 C 124 -161 115 -142 115 -120 C 115 -94 126 -70 150 -48 C 174 -25 207 -6 251 10 L 305 10 C 284 0 269 -10 260 -22 C 251 -34 247 -45 247 -56 C 247 -65 250 -72 256 -78 C 262 -83 270 -86 280 -86 C 292 -86 304 -83 314 -79 C 324 -75 333 -69 341 -63 Z" unicode="ę" />
<glyph horiz-adv-x="423" d="M 41 0 L 41 0 Z M 413 0 L 41 0 L 41 730 L 392 730 L 392 588 L 207 588 L 207 433 L 380 433 L 380 292 L 207 292 L 207 142 L 413 142 L 413 0 Z M 217 789 L 217 789 Z M 51 964 L 177 964 L 218 895 L 259 964 L 383 964 L 282 789 L 152 789 L 51 964 Z" unicode="Ě" />
<glyph horiz-adv-x="437" d="M 16 0 L 16 0 Z M 222 -6 C 161 -6 111 19 73 69 C 35 119 16 189 16 278 C 16 372 35 444 73 495 C 111 545 159 571 217 571 C 284 571 335 544 370 492 C 405 439 423 358 423 248 L 171 248 C 171 211 179 179 196 153 C 213 126 238 113 271 113 C 291 113 310 118 328 130 C 345 141 359 152 370 163 L 417 89 C 409 79 398 68 386 57 C 373 46 358 36 342 27 C 326 17 307 9 287 3 C 267 -2 245 -6 222 -6 Z M 167 344 L 280 344 C 280 384 274 414 264 432 C 254 450 241 459 227 459 C 211 459 197 449 185 431 C 173 413 167 384 167 344 Z M 223 626 L 223 626 Z M 57 801 L 183 801 L 224 732 L 265 801 L 389 801 L 288 626 L 158 626 L 57 801 Z" unicode="ě" />
<glyph horiz-adv-x="533" d="M 23 0 L 23 0 Z M 282 390 L 507 390 L 507 117 C 491 83 463 53 425 29 C 387 5 337 -7 277 -7 C 242 -7 209 0 178 16 C 147 32 120 55 97 86 C 74 117 56 156 43 203 C 29 249 23 303 23 364 C 23 420 28 472 40 518 C 52 564 68 603 90 635 C 111 667 137 691 169 709 C 200 726 235 735 274 735 C 334 735 382 721 418 695 C 453 668 477 626 491 570 L 357 526 C 351 548 343 567 332 582 C 320 597 305 605 285 605 C 256 605 233 587 217 552 C 200 517 192 454 192 364 C 192 316 194 276 199 244 C 204 212 211 187 219 169 C 227 151 237 138 249 130 C 261 122 274 119 288 119 C 306 119 322 122 336 129 C 350 135 359 145 365 159 L 365 271 L 282 271 L 282 390 Z M 281 789 L 281 789 Z M 447 789 L 321 789 L 280 859 L 239 789 L 115 789 L 216 964 L 346 964 L 447 789 Z" unicode="Ĝ" />
<glyph horiz-adv-x="469" d="M 18 0 L 18 0 Z M 186 24 C 163 24 141 30 121 42 C 101 54 83 71 68 94 C 52 117 40 145 31 179 C 22 213 18 251 18 295 C 18 340 22 380 32 415 C 41 449 53 478 69 501 C 85 524 103 542 123 554 C 143 566 164 572 186 572 C 212 572 235 565 254 552 C 272 538 286 523 295 506 L 295 567 L 436 567 L 436 18 C 436 -20 429 -52 416 -79 C 403 -105 386 -127 365 -144 C 344 -161 320 -173 294 -181 C 267 -189 240 -193 214 -193 C 174 -193 139 -188 111 -180 C 83 -171 62 -161 50 -151 L 92 -51 C 107 -57 122 -63 138 -67 C 154 -71 173 -74 196 -74 C 222 -74 245 -64 263 -46 C 281 -27 291 0 291 37 L 291 92 C 283 73 269 57 250 44 C 231 30 210 24 186 24 Z M 238 139 C 247 139 255 141 262 145 C 269 149 275 157 280 169 C 285 181 289 197 291 218 C 293 239 295 266 295 300 C 295 331 293 357 290 377 C 287 397 283 413 278 425 C 272 436 266 444 259 448 C 252 452 245 454 237 454 C 219 454 206 443 196 421 C 186 399 181 358 181 299 C 181 239 185 197 195 174 C 205 150 219 139 238 139 Z M 228 626 L 228 626 Z M 394 626 L 268 626 L 227 696 L 186 626 L 62 626 L 163 801 L 293 801 L 394 626 Z" unicode="ĝ" />
<glyph horiz-adv-x="533" d="M 23 0 L 23 0 Z M 282 390 L 507 390 L 507 117 C 491 83 463 53 425 29 C 387 5 337 -7 277 -7 C 242 -7 209 0 178 16 C 147 32 120 55 97 86 C 74 117 56 156 43 203 C 29 249 23 303 23 364 C 23 420 28 472 40 518 C 52 564 68 603 90 635 C 111 667 137 691 169 709 C 200 726 235 735 274 735 C 334 735 382 721 418 695 C 453 668 477 626 491 570 L 357 526 C 351 548 343 567 332 582 C 320 597 305 605 285 605 C 256 605 233 587 217 552 C 200 517 192 454 192 364 C 192 316 194 276 199 244 C 204 212 211 187 219 169 C 227 151 237 138 249 130 C 261 122 274 119 288 119 C 306 119 322 122 336 129 C 350 135 359 145 365 159 L 365 271 L 282 271 L 282 390 Z M 281 788 L 281 788 Z M 318 951 L 445 951 C 440 895 423 853 394 827 C 364 801 327 788 281 788 C 235 788 197 801 168 827 C 138 853 122 895 118 951 L 245 951 C 245 929 248 912 253 901 C 257 889 267 884 281 884 C 295 884 304 889 309 900 C 314 911 317 928 318 951 Z" unicode="Ğ" />
<glyph horiz-adv-x="469" d="M 18 0 L 18 0 Z M 186 24 C 163 24 141 30 121 42 C 101 54 83 71 68 94 C 52 117 40 145 31 179 C 22 213 18 251 18 295 C 18 340 22 380 32 415 C 41 449 53 478 69 501 C 85 524 103 542 123 554 C 143 566 164 572 186 572 C 212 572 235 565 254 552 C 272 538 286 523 295 506 L 295 567 L 436 567 L 436 18 C 436 -20 429 -52 416 -79 C 403 -105 386 -127 365 -144 C 344 -161 320 -173 294 -181 C 267 -189 240 -193 214 -193 C 174 -193 139 -188 111 -180 C 83 -171 62 -161 50 -151 L 92 -51 C 107 -57 122 -63 138 -67 C 154 -71 173 -74 196 -74 C 222 -74 245 -64 263 -46 C 281 -27 291 0 291 37 L 291 92 C 283 73 269 57 250 44 C 231 30 210 24 186 24 Z M 238 139 C 247 139 255 141 262 145 C 269 149 275 157 280 169 C 285 181 289 197 291 218 C 293 239 295 266 295 300 C 295 331 293 357 290 377 C 287 397 283 413 278 425 C 272 436 266 444 259 448 C 252 452 245 454 237 454 C 219 454 206 443 196 421 C 186 399 181 358 181 299 C 181 239 185 197 195 174 C 205 150 219 139 238 139 Z M 228 625 L 228 625 Z M 265 788 L 392 788 C 387 732 370 690 341 664 C 311 638 274 625 228 625 C 182 625 144 638 115 664 C 85 690 69 732 65 788 L 192 788 C 192 766 195 749 200 738 C 204 726 214 721 228 721 C 242 721 251 726 256 737 C 261 748 264 765 265 788 Z" unicode="ğ" />
<glyph horiz-adv-x="533" d="M 23 0 L 23 0 Z M 282 390 L 507 390 L 507 117 C 491 83 463 53 425 29 C 387 5 337 -7 277 -7 C 242 -7 209 0 178 16 C 147 32 120 55 97 86 C 74 117 56 156 43 203 C 29 249 23 303 23 364 C 23 420 28 472 40 518 C 52 564 68 603 90 635 C 111 667 137 691 169 709 C 200 726 235 735 274 735 C 334 735 382 721 418 695 C 453 668 477 626 491 570 L 357 526 C 351 548 343 567 332 582 C 320 597 305 605 285 605 C 256 605 233 587 217 552 C 200 517 192 454 192 364 C 192 316 194 276 199 244 C 204 212 211 187 219 169 C 227 151 237 138 249 130 C 261 122 274 119 288 119 C 306 119 322 122 336 129 C 350 135 359 145 365 159 L 365 271 L 282 271 L 282 390 Z M 281 791 L 281 791 Z M 352 791 L 211 791 L 211 937 L 352 937 L 352 791 Z" unicode="Ġ" />
<glyph horiz-adv-x="469" d="M 18 0 L 18 0 Z M 186 24 C 163 24 141 30 121 42 C 101 54 83 71 68 94 C 52 117 40 145 31 179 C 22 213 18 251 18 295 C 18 340 22 380 32 415 C 41 449 53 478 69 501 C 85 524 103 542 123 554 C 143 566 164 572 186 572 C 212 572 235 565 254 552 C 272 538 286 523 295 506 L 295 567 L 436 567 L 436 18 C 436 -20 429 -52 416 -79 C 403 -105 386 -127 365 -144 C 344 -161 320 -173 294 -181 C 267 -189 240 -193 214 -193 C 174 -193 139 -188 111 -180 C 83 -171 62 -161 50 -151 L 92 -51 C 107 -57 122 -63 138 -67 C 154 -71 173 -74 196 -74 C 222 -74 245 -64 263 -46 C 281 -27 291 0 291 37 L 291 92 C 283 73 269 57 250 44 C 231 30 210 24 186 24 Z M 238 139 C 247 139 255 141 262 145 C 269 149 275 157 280 169 C 285 181 289 197 291 218 C 293 239 295 266 295 300 C 295 331 293 357 290 377 C 287 397 283 413 278 425 C 272 436 266 444 259 448 C 252 452 245 454 237 454 C 219 454 206 443 196 421 C 186 399 181 358 181 299 C 181 239 185 197 195 174 C 205 150 219 139 238 139 Z M 228 628 L 228 628 Z M 299 628 L 158 628 L 158 774 L 299 774 L 299 628 Z" unicode="ġ" />
<glyph horiz-adv-x="533" d="M 23 0 L 23 0 Z M 282 390 L 507 390 L 507 117 C 491 83 463 53 425 29 C 387 5 337 -7 277 -7 C 242 -7 209 0 178 16 C 147 32 120 55 97 86 C 74 117 56 156 43 203 C 29 249 23 303 23 364 C 23 420 28 472 40 518 C 52 564 68 603 90 635 C 111 667 137 691 169 709 C 200 726 235 735 274 735 C 334 735 382 721 418 695 C 453 668 477 626 491 570 L 357 526 C 351 548 343 567 332 582 C 320 597 305 605 285 605 C 256 605 233 587 217 552 C 200 517 192 454 192 364 C 192 316 194 276 199 244 C 204 212 211 187 219 169 C 227 151 237 138 249 130 C 261 122 274 119 288 119 C 306 119 322 122 336 129 C 350 135 359 145 365 159 L 365 271 L 282 271 L 282 390 Z M 270 -62 L 270 -62 Z M 384 -62 C 384 -86 381 -113 373 -143 C 365 -172 355 -200 344 -226 C 332 -252 320 -276 307 -296 C 294 -316 283 -329 274 -335 L 156 -283 C 163 -273 171 -260 179 -244 C 187 -228 194 -210 200 -190 C 206 -170 212 -148 216 -126 C 220 -104 223 -82 224 -62 L 384 -62 Z" unicode="Ģ" />
<glyph horiz-adv-x="469" d="M 18 0 L 18 0 Z M 186 24 C 163 24 141 30 121 42 C 101 54 83 71 68 94 C 52 117 40 145 31 179 C 22 213 18 251 18 295 C 18 340 22 380 32 415 C 41 449 53 478 69 501 C 85 524 103 542 123 554 C 143 566 164 572 186 572 C 212 572 235 565 254 552 C 272 538 286 523 295 506 L 295 567 L 436 567 L 436 18 C 436 -20 429 -52 416 -79 C 403 -105 386 -127 365 -144 C 344 -161 320 -173 294 -181 C 267 -189 240 -193 214 -193 C 174 -193 139 -188 111 -180 C 83 -171 62 -161 50 -151 L 92 -51 C 107 -57 122 -63 138 -67 C 154 -71 173 -74 196 -74 C 222 -74 245 -64 263 -46 C 281 -27 291 0 291 37 L 291 92 C 283 73 269 57 250 44 C 231 30 210 24 186 24 Z M 238 139 C 247 139 255 141 262 145 C 269 149 275 157 280 169 C 285 181 289 197 291 218 C 293 239 295 266 295 300 C 295 331 293 357 290 377 C 287 397 283 413 278 425 C 272 436 266 444 259 448 C 252 452 245 454 237 454 C 219 454 206 443 196 421 C 186 399 181 358 181 299 C 181 239 185 197 195 174 C 205 150 219 139 238 139 Z" unicode="ģ" />
<glyph horiz-adv-x="550" d="M 41 0 L 41 0 Z M 509 0 L 339 0 L 339 291 L 211 291 L 211 0 L 41 0 L 41 730 L 211 730 L 211 430 L 339 430 L 339 730 L 509 730 L 509 0 Z M 273 789 L 273 789 Z M 439 789 L 313 789 L 272 859 L 231 789 L 107 789 L 208 964 L 338 964 L 439 789 Z" unicode="Ĥ" />
<glyph horiz-adv-x="459" d="M 32 0 L 32 0 Z M 430 0 L 275 0 L 275 406 C 275 420 271 431 263 439 C 255 446 246 450 234 450 C 221 450 210 446 201 438 C 191 430 187 417 187 399 L 187 0 L 32 0 L 32 800 L 178 800 L 178 517 C 184 532 197 545 217 556 C 236 566 261 572 293 572 C 333 572 365 562 391 543 C 417 523 430 491 430 446 L 430 0 Z M 233 859 L 233 859 Z M 399 859 L 273 859 L 232 929 L 191 859 L 67 859 L 168 1034 L 298 1034 L 399 859 Z" unicode="ĥ" />
<glyph horiz-adv-x="550" d="M 211 291 L 211 0 L 41 0 L 41 530 L 0 530 L 0 633 L 41 633 L 41 730 L 211 730 L 211 633 L 339 633 L 339 730 L 509 730 L 509 633 L 550 633 L 550 530 L 509 530 L 509 0 L 339 0 L 339 291 L 211 291 Z M 211 430 L 339 430 L 339 530 L 211 530 L 211 430 Z" unicode="Ħ" />
<glyph horiz-adv-x="459" d="M 187 399 L 187 0 L 32 0 L 32 616 L 4 616 L 4 720 L 32 720 L 32 800 L 178 800 L 178 720 L 252 720 L 252 616 L 178 616 L 178 517 C 184 532 197 545 217 556 C 236 566 261 572 293 572 C 333 572 365 562 391 543 C 417 523 430 491 430 446 L 430 0 L 275 0 L 275 406 C 275 420 271 431 263 439 C 255 446 246 450 234 450 C 221 450 210 446 201 438 C 191 430 187 417 187 399 Z" unicode="ħ" />
<glyph horiz-adv-x="262" d="M 0 0 L 0 0 Z M 217 0 L 45 0 L 45 730 L 217 730 L 217 0 Z M 131 791 L 131 791 Z M 197 950 L 311 950 C 311 896 302 856 286 830 C 269 804 248 791 222 791 C 201 791 183 793 169 799 C 155 805 144 810 136 815 C 127 819 119 824 111 828 C 103 832 96 834 90 834 C 83 834 77 830 72 823 C 67 815 64 806 64 794 L -48 794 C -48 847 -37 887 -17 913 C 3 939 26 953 50 953 C 69 953 85 950 97 945 C 109 939 120 934 130 929 C 137 924 144 920 150 917 C 156 914 163 913 169 913 C 174 913 180 916 186 922 C 192 928 196 937 197 950 Z" unicode="Ĩ" />
<glyph horiz-adv-x="223" d="M 0 0 L 0 0 Z M 189 0 L 34 0 L 34 567 L 189 567 L 189 0 Z M 110 628 L 110 628 Z M 176 787 L 290 787 C 290 733 281 693 265 667 C 248 641 227 628 201 628 C 180 628 162 630 148 636 C 134 642 123 647 115 652 C 106 656 98 661 90 665 C 82 669 75 671 69 671 C 62 671 56 667 51 660 C 46 652 43 643 43 631 L -69 631 C -69 684 -58 724 -38 750 C -17 776 5 790 29 790 C 48 790 64 787 76 782 C 88 776 99 771 109 766 C 116 761 123 757 129 754 C 135 751 142 750 148 750 C 153 750 159 753 165 759 C 171 765 175 774 176 787 Z" unicode="ĩ" />
<glyph horiz-adv-x="262" d="M 0 0 L 0 0 Z M 217 0 L 45 0 L 45 730 L 217 730 L 217 0 Z M 131 795 L 131 795 Z M 269 795 L -7 795 L -7 913 L 269 913 L 269 795 Z" unicode="Ī" />
<glyph horiz-adv-x="223" d="M 0 0 L 0 0 Z M 189 0 L 34 0 L 34 567 L 189 567 L 189 0 Z M 110 632 L 110 632 Z M 248 632 L -28 632 L -28 750 L 248 750 L 248 632 Z" unicode="ī" />
<glyph horiz-adv-x="262" d="M 0 0 L 0 0 Z M 217 0 L 45 0 L 45 730 L 217 730 L 217 0 Z M 131 788 L 131 788 Z M 168 951 L 295 951 C 290 895 273 853 244 827 C 214 801 177 788 131 788 C 85 788 47 801 18 827 C -11 853 -28 895 -32 951 L 95 951 C 95 929 98 912 103 901 C 107 889 117 884 131 884 C 145 884 154 889 159 900 C 164 911 167 928 168 951 Z" unicode="Ĭ" />
<glyph horiz-adv-x="223" d="M 0 0 L 0 0 Z M 189 0 L 34 0 L 34 567 L 189 567 L 189 0 Z M 110 625 L 110 625 Z M 147 788 L 274 788 C 269 732 252 690 223 664 C 193 638 156 625 110 625 C 64 625 26 638 -3 664 C -32 690 -49 732 -53 788 L 74 788 C 74 766 77 749 82 738 C 86 726 96 721 110 721 C 124 721 133 726 138 737 C 143 748 146 765 147 788 Z" unicode="ĭ" />
<glyph horiz-adv-x="262" d="M 0 0 L 0 0 Z M 217 0 L 45 0 L 45 730 L 217 730 L 217 0 Z M 67 -4 L 67 -4 Z M 160 -63 L 200 -128 C 177 -152 153 -170 129 -182 C 104 -194 76 -200 45 -200 C 9 -200 -18 -192 -37 -177 C -56 -161 -66 -142 -66 -120 C -66 -94 -54 -70 -30 -48 C -6 -25 26 -6 70 10 L 124 10 C 103 0 88 -10 79 -22 C 70 -34 66 -45 66 -56 C 66 -65 69 -72 75 -78 C 81 -83 89 -86 99 -86 C 111 -86 123 -83 133 -79 C 143 -75 152 -69 160 -63 Z" unicode="Į" />
<glyph horiz-adv-x="223" d="M 0 0 L 0 0 Z M 32 626 L 32 746 L 191 746 L 191 626 L 32 626 Z M 34 0 L 34 567 L 189 567 L 189 0 L 34 0 Z M 48 -4 L 48 -4 Z M 141 -63 L 181 -128 C 158 -152 134 -170 110 -182 C 85 -194 57 -200 26 -200 C -10 -200 -37 -192 -56 -177 C -75 -161 -85 -142 -85 -120 C -85 -94 -73 -70 -49 -48 C -25 -25 7 -6 51 10 L 105 10 C 84 0 69 -10 60 -22 C 51 -34 47 -45 47 -56 C 47 -65 50 -72 56 -78 C 62 -83 70 -86 80 -86 C 92 -86 104 -83 114 -79 C 124 -75 133 -69 141 -63 Z" unicode="į" />
<glyph horiz-adv-x="262" d="M 45 0 L 45 0 Z M 217 0 L 45 0 L 45 730 L 217 730 L 217 0 Z M 131 791 L 131 791 Z M 202 791 L 61 791 L 61 937 L 202 937 L 202 791 Z" unicode="İ" />
<glyph horiz-adv-x="223" d="M 189 0 L 34 0 L 34 567 L 189 567 L 189 0 Z" unicode="ı" />
<glyph horiz-adv-x="572" d="M 45 0 L 45 0 Z M 217 0 L 45 0 L 45 730 L 217 730 L 217 0 Z M 540 730 L 540 181 C 540 125 523 79 489 44 C 455 8 410 -9 354 -9 C 339 -9 321 -7 301 -3 C 280 0 259 7 237 17 L 274 151 C 277 149 283 146 291 144 C 299 142 308 141 317 141 C 333 141 345 148 355 162 C 365 176 370 196 370 221 L 370 730 L 540 730 Z" unicode="Ĳ" />
<glyph horiz-adv-x="443" d="M 32 0 L 32 0 Z M 32 626 L 32 746 L 191 746 L 191 626 L 32 626 Z M 34 0 L 34 567 L 189 567 L 189 0 L 34 0 Z M 411 626 L 253 626 L 253 746 L 411 746 L 411 626 Z M 409 567 L 409 -49 C 409 -85 395 -116 369 -144 C 343 -172 308 -186 264 -186 C 244 -186 225 -183 207 -178 C 189 -172 177 -167 173 -163 L 203 -59 C 205 -59 209 -60 213 -62 C 217 -63 223 -64 229 -64 C 236 -64 242 -61 247 -55 C 252 -49 255 -41 255 -32 L 255 567 L 409 567 Z" unicode="ĳ" />
<glyph horiz-adv-x="333" d="M 0 0 L 0 0 Z M 294 730 L 294 181 C 294 125 277 79 243 44 C 209 8 164 -9 108 -9 C 93 -9 75 -7 55 -3 C 34 0 13 7 -9 17 L 28 151 C 31 149 37 146 45 144 C 53 142 62 141 71 141 C 87 141 99 148 109 162 C 119 176 124 196 124 221 L 124 730 L 294 730 Z M 211 789 L 211 789 Z M 377 789 L 251 789 L 210 859 L 169 789 L 45 789 L 146 964 L 276 964 L 377 789 Z" unicode="Ĵ" />
<glyph horiz-adv-x="231" d="M 0 0 L 0 0 Z M 197 567 L 197 -49 C 197 -85 183 -116 157 -144 C 131 -172 96 -186 52 -186 C 32 -186 13 -183 -4 -178 C -22 -172 -34 -167 -39 -163 L -9 -59 C -6 -59 -2 -60 1 -62 C 5 -63 11 -64 17 -64 C 24 -64 30 -61 35 -55 C 40 -49 43 -41 43 -32 L 43 567 L 197 567 Z M 120 626 L 120 626 Z M 286 626 L 160 626 L 119 696 L 78 626 L -46 626 L 55 801 L 185 801 L 286 626 Z" unicode="ĵ" />
<glyph horiz-adv-x="550" d="M 41 0 L 41 0 Z M 560 0 L 373 0 L 229 259 L 212 239 L 212 0 L 41 0 L 41 730 L 212 730 L 212 471 L 370 730 L 543 730 L 330 410 L 560 0 Z M 282 -62 L 282 -62 Z M 396 -62 C 396 -86 393 -113 385 -143 C 377 -172 367 -200 356 -226 C 344 -252 332 -276 319 -296 C 306 -316 295 -329 286 -335 L 168 -283 C 175 -273 183 -260 191 -244 C 199 -228 206 -210 212 -190 C 218 -170 224 -148 228 -126 C 232 -104 235 -82 236 -62 L 396 -62 Z" unicode="Ķ" />
<glyph horiz-adv-x="442" d="M 32 0 L 32 0 Z M 453 0 L 290 0 L 210 191 L 186 152 L 186 0 L 32 0 L 32 800 L 178 800 L 178 347 L 289 567 L 445 567 L 317 323 L 453 0 Z M 216 -62 L 216 -62 Z M 330 -62 C 330 -86 327 -113 319 -143 C 311 -172 301 -200 290 -226 C 278 -252 266 -276 253 -296 C 240 -316 229 -329 220 -335 L 102 -283 C 109 -273 117 -260 125 -244 C 133 -228 140 -210 146 -190 C 152 -170 158 -148 162 -126 C 166 -104 169 -82 170 -62 L 330 -62 Z" unicode="ķ" />
<glyph horiz-adv-x="442" d="M 453 0 L 290 0 L 210 191 L 186 152 L 186 0 L 32 0 L 32 567 L 178 567 L 178 347 L 289 567 L 445 567 L 317 323 L 453 0 Z" unicode="ĸ" />
<glyph horiz-adv-x="376" d="M 41 0 L 41 0 Z M 368 0 L 41 0 L 41 730 L 211 730 L 211 142 L 368 142 L 368 0 Z M 235 789 L 235 789 Z M 98 789 L 194 964 L 373 964 L 248 789 L 98 789 Z" unicode="Ĺ" />
<glyph horiz-adv-x="251" d="M 31 0 L 31 0 Z M 31 155 L 31 800 L 185 800 L 185 171 C 185 151 187 137 192 129 C 197 120 205 116 217 116 C 220 116 223 116 226 117 C 228 117 231 118 233 119 L 249 12 C 241 7 231 3 219 0 C 207 -3 192 -5 174 -5 C 136 -5 102 9 74 37 C 45 65 31 104 31 155 Z M 178 859 L 178 859 Z M 41 859 L 137 1034 L 316 1034 L 191 859 L 41 859 Z" unicode="ĺ" />
<glyph horiz-adv-x="376" d="M 41 0 L 41 0 Z M 368 0 L 41 0 L 41 730 L 211 730 L 211 142 L 368 142 L 368 0 Z M 204 -62 L 204 -62 Z M 318 -62 C 318 -86 315 -113 307 -143 C 299 -172 289 -200 278 -226 C 266 -252 254 -276 241 -296 C 228 -316 217 -329 208 -335 L 90 -283 C 97 -273 105 -260 113 -244 C 121 -228 128 -210 134 -190 C 140 -170 146 -148 150 -126 C 154 -104 157 -82 158 -62 L 318 -62 Z" unicode="Ļ" />
<glyph horiz-adv-x="251" d="M 13 0 L 13 0 Z M 31 155 L 31 800 L 185 800 L 185 171 C 185 151 187 137 192 129 C 197 120 205 116 217 116 C 220 116 223 116 226 117 C 228 117 231 118 233 119 L 249 12 C 241 7 231 3 219 0 C 207 -3 192 -5 174 -5 C 136 -5 102 9 74 37 C 45 65 31 104 31 155 Z M 127 -62 L 127 -62 Z M 241 -62 C 241 -86 238 -113 230 -143 C 222 -172 212 -200 201 -226 C 189 -252 177 -276 164 -296 C 151 -316 140 -329 131 -335 L 13 -283 C 20 -273 28 -260 36 -244 C 44 -228 51 -210 57 -190 C 63 -170 69 -148 73 -126 C 77 -104 80 -82 81 -62 L 241 -62 Z" unicode="ļ" />
<glyph horiz-adv-x="376" d="M 41 0 L 41 0 Z M 368 0 L 41 0 L 41 730 L 211 730 L 211 142 L 368 142 L 368 0 Z M 431 619 L 425 460 L 291 460 L 285 619 L 285 730 L 431 730 L 431 619 Z" unicode="Ľ" />
<glyph horiz-adv-x="251" d="M 31 0 L 31 0 Z M 31 155 L 31 800 L 185 800 L 185 171 C 185 151 187 137 192 129 C 197 120 205 116 217 116 C 220 116 223 116 226 117 C 228 117 231 118 233 119 L 249 12 C 241 7 231 3 219 0 C 207 -3 192 -5 174 -5 C 136 -5 102 9 74 37 C 45 65 31 104 31 155 Z M 362 619 L 356 460 L 222 460 L 216 619 L 216 730 L 362 730 L 362 619 Z" unicode="ľ" />
<glyph horiz-adv-x="376" d="M 41 0 L 41 0 Z M 368 0 L 41 0 L 41 730 L 211 730 L 211 142 L 368 142 L 368 0 Z M 322 291 L 322 291 Z M 393 291 L 252 291 L 252 437 L 393 437 L 393 291 Z" unicode="Ŀ" />
<glyph horiz-adv-x="251" d="M 31 0 L 31 0 Z M 31 155 L 31 800 L 185 800 L 185 171 C 185 151 187 137 192 129 C 197 120 205 116 217 116 C 220 116 223 116 226 117 C 228 117 231 118 233 119 L 249 12 C 241 7 231 3 219 0 C 207 -3 192 -5 174 -5 C 136 -5 102 9 74 37 C 45 65 31 104 31 155 Z M 278 241 L 278 241 Z M 349 241 L 208 241 L 208 387 L 349 387 L 349 241 Z" unicode="ŀ" />
<glyph horiz-adv-x="376" d="M 368 139 L 368 0 L 41 0 L 41 237 L 19 227 L -36 346 L 41 380 L 41 730 L 211 730 L 211 456 L 290 491 L 344 372 L 211 313 L 211 139 L 368 139 Z" unicode="Ł" />
<glyph horiz-adv-x="251" d="M 254 12 C 247 7 237 3 225 0 C 212 -3 197 -5 181 -5 C 143 -5 109 9 81 37 C 53 65 39 104 39 155 L 39 233 L 13 220 L -31 321 L 39 355 L 39 800 L 193 800 L 193 431 L 241 455 L 285 355 L 193 309 L 193 173 C 193 153 195 138 199 129 C 203 120 211 116 222 116 C 224 116 227 116 230 116 C 233 116 235 117 237 118 L 254 12 Z" unicode="ł" />
<glyph horiz-adv-x="538" d="M 41 0 L 41 0 Z M 496 0 L 379 0 L 200 368 L 200 0 L 41 0 L 41 730 L 162 730 L 346 364 L 344 730 L 496 730 L 496 0 Z M 271 789 L 271 789 Z M 134 789 L 230 964 L 409 964 L 284 789 L 134 789 Z" unicode="Ń" />
<glyph horiz-adv-x="458" d="M 32 0 L 32 0 Z M 428 0 L 273 0 L 273 410 C 273 422 269 432 261 440 C 253 447 244 451 233 451 C 220 451 209 447 200 439 C 191 431 187 418 187 400 L 187 0 L 32 0 L 32 567 L 173 567 L 173 503 C 181 523 196 539 218 552 C 240 565 268 572 302 572 C 340 572 370 562 393 544 C 416 525 428 494 428 450 L 428 0 Z M 231 626 L 231 626 Z M 94 626 L 190 801 L 369 801 L 244 626 L 94 626 Z" unicode="ń" />
<glyph horiz-adv-x="538" d="M 41 0 L 41 0 Z M 496 0 L 379 0 L 200 368 L 200 0 L 41 0 L 41 730 L 162 730 L 346 364 L 344 730 L 496 730 L 496 0 Z M 261 -62 L 261 -62 Z M 375 -62 C 375 -86 372 -113 364 -143 C 356 -172 346 -200 335 -226 C 323 -252 311 -276 298 -296 C 285 -316 274 -329 265 -335 L 147 -283 C 154 -273 162 -260 170 -244 C 178 -228 185 -210 191 -190 C 197 -170 203 -148 207 -126 C 211 -104 214 -82 215 -62 L 375 -62 Z" unicode="Ņ" />
<glyph horiz-adv-x="458" d="M 32 0 L 32 0 Z M 428 0 L 273 0 L 273 410 C 273 422 269 432 261 440 C 253 447 244 451 233 451 C 220 451 209 447 200 439 C 191 431 187 418 187 400 L 187 0 L 32 0 L 32 567 L 173 567 L 173 503 C 181 523 196 539 218 552 C 240 565 268 572 302 572 C 340 572 370 562 393 544 C 416 525 428 494 428 450 L 428 0 Z M 218 -62 L 218 -62 Z M 332 -62 C 332 -86 329 -113 321 -143 C 313 -172 303 -200 292 -226 C 280 -252 268 -276 255 -296 C 242 -316 231 -329 222 -335 L 104 -283 C 111 -273 119 -260 127 -244 C 135 -228 142 -210 148 -190 C 154 -170 160 -148 164 -126 C 168 -104 171 -82 172 -62 L 332 -62 Z" unicode="ņ" />
<glyph horiz-adv-x="538" d="M 41 0 L 41 0 Z M 496 0 L 379 0 L 200 368 L 200 0 L 41 0 L 41 730 L 162 730 L 346 364 L 344 730 L 496 730 L 496 0 Z M 271 789 L 271 789 Z M 105 964 L 231 964 L 272 895 L 313 964 L 437 964 L 336 789 L 206 789 L 105 964 Z" unicode="Ň" />
<glyph horiz-adv-x="458" d="M 32 0 L 32 0 Z M 428 0 L 273 0 L 273 410 C 273 422 269 432 261 440 C 253 447 244 451 233 451 C 220 451 209 447 200 439 C 191 431 187 418 187 400 L 187 0 L 32 0 L 32 567 L 173 567 L 173 503 C 181 523 196 539 218 552 C 240 565 268 572 302 572 C 340 572 370 562 393 544 C 416 525 428 494 428 450 L 428 0 Z M 231 626 L 231 626 Z M 65 801 L 191 801 L 232 732 L 273 801 L 397 801 L 296 626 L 166 626 L 65 801 Z" unicode="ň" />
<glyph horiz-adv-x="538" d="M 344 730 L 496 730 L 496 -7 C 496 -63 481 -108 452 -144 C 423 -179 381 -197 325 -197 C 311 -197 293 -195 273 -191 C 252 -187 231 -181 209 -171 L 245 -37 C 249 -39 255 -41 263 -43 C 271 -45 279 -47 288 -47 C 304 -47 317 -39 329 -25 C 341 -11 347 8 347 33 L 347 66 L 200 368 L 200 0 L 41 0 L 41 730 L 162 730 L 346 364 L 344 730 Z" unicode="Ŋ" />
<glyph horiz-adv-x="458" d="M 302 572 C 340 572 370 562 393 544 C 416 525 428 494 428 450 L 428 -23 C 428 -47 424 -69 417 -91 C 409 -113 398 -131 384 -147 C 370 -163 352 -175 331 -185 C 310 -194 286 -199 259 -199 C 242 -199 224 -197 206 -194 C 187 -190 174 -186 168 -182 L 193 -66 C 196 -67 201 -68 207 -69 C 213 -69 219 -70 225 -70 C 239 -70 251 -63 260 -50 C 268 -37 273 -21 273 -1 L 273 410 C 273 422 269 432 261 440 C 253 447 244 451 233 451 C 220 451 209 447 200 439 C 191 431 187 418 187 400 L 187 0 L 32 0 L 32 567 L 173 567 L 173 503 C 181 523 196 539 218 552 C 240 565 268 572 302 572 Z" unicode="ŋ" />
<glyph horiz-adv-x="565" d="M 23 0 L 23 0 Z M 285 -6 C 194 -6 128 26 86 91 C 44 156 23 249 23 370 C 23 483 45 572 89 638 C 133 703 197 736 280 736 C 368 736 433 704 477 641 C 520 578 542 486 542 365 C 542 250 519 159 474 93 C 428 27 365 -6 285 -6 Z M 282 123 C 314 123 336 141 350 178 C 363 215 370 280 370 372 C 370 457 362 517 348 553 C 334 589 311 607 281 607 C 249 607 226 589 214 554 C 202 519 196 456 196 366 C 196 273 202 209 216 175 C 229 140 251 123 282 123 Z M 282 795 L 282 795 Z M 420 795 L 144 795 L 144 913 L 420 913 L 420 795 Z" unicode="Ō" />
<glyph horiz-adv-x="459" d="M 16 0 L 16 0 Z M 228 -6 C 198 -6 170 0 144 11 C 118 23 95 40 77 64 C 58 87 43 117 32 154 C 21 190 16 233 16 283 C 16 373 35 443 74 495 C 112 546 162 572 224 572 C 289 572 342 549 382 504 C 422 459 443 391 443 300 C 443 202 423 127 385 74 C 346 20 294 -6 228 -6 Z M 230 107 C 239 107 247 109 254 114 C 260 119 266 128 270 142 C 274 155 276 174 278 198 C 280 222 281 252 281 290 C 281 324 280 353 278 375 C 276 397 272 414 268 426 C 264 438 258 447 252 451 C 245 455 237 458 228 458 C 219 458 211 455 205 451 C 199 447 194 438 190 426 C 186 414 183 397 181 375 C 179 353 178 324 178 290 C 178 251 179 220 181 196 C 183 172 187 153 191 140 C 195 126 201 117 207 113 C 213 109 221 107 230 107 Z M 230 632 L 230 632 Z M 368 632 L 92 632 L 92 750 L 368 750 L 368 632 Z" unicode="ō" />
<glyph horiz-adv-x="565" d="M 23 0 L 23 0 Z M 285 -6 C 194 -6 128 26 86 91 C 44 156 23 249 23 370 C 23 483 45 572 89 638 C 133 703 197 736 280 736 C 368 736 433 704 477 641 C 520 578 542 486 542 365 C 542 250 519 159 474 93 C 428 27 365 -6 285 -6 Z M 282 123 C 314 123 336 141 350 178 C 363 215 370 280 370 372 C 370 457 362 517 348 553 C 334 589 311 607 281 607 C 249 607 226 589 214 554 C 202 519 196 456 196 366 C 196 273 202 209 216 175 C 229 140 251 123 282 123 Z M 282 788 L 282 788 Z M 319 951 L 446 951 C 441 895 424 853 395 827 C 365 801 328 788 282 788 C 236 788 198 801 169 827 C 139 853 123 895 119 951 L 246 951 C 246 929 249 912 254 901 C 258 889 268 884 282 884 C 296 884 305 889 310 900 C 315 911 318 928 319 951 Z" unicode="Ŏ" />
<glyph horiz-adv-x="459" d="M 16 0 L 16 0 Z M 228 -6 C 198 -6 170 0 144 11 C 118 23 95 40 77 64 C 58 87 43 117 32 154 C 21 190 16 233 16 283 C 16 373 35 443 74 495 C 112 546 162 572 224 572 C 289 572 342 549 382 504 C 422 459 443 391 443 300 C 443 202 423 127 385 74 C 346 20 294 -6 228 -6 Z M 230 107 C 239 107 247 109 254 114 C 260 119 266 128 270 142 C 274 155 276 174 278 198 C 280 222 281 252 281 290 C 281 324 280 353 278 375 C 276 397 272 414 268 426 C 264 438 258 447 252 451 C 245 455 237 458 228 458 C 219 458 211 455 205 451 C 199 447 194 438 190 426 C 186 414 183 397 181 375 C 179 353 178 324 178 290 C 178 251 179 220 181 196 C 183 172 187 153 191 140 C 195 126 201 117 207 113 C 213 109 221 107 230 107 Z M 230 625 L 230 625 Z M 267 788 L 394 788 C 389 732 372 690 343 664 C 313 638 276 625 230 625 C 184 625 146 638 117 664 C 87 690 71 732 67 788 L 194 788 C 194 766 197 749 202 738 C 206 726 216 721 230 721 C 244 721 253 726 258 737 C 263 748 266 765 267 788 Z" unicode="ŏ" />
<glyph horiz-adv-x="565" d="M 23 0 L 23 0 Z M 285 -6 C 194 -6 128 26 86 91 C 44 156 23 249 23 370 C 23 483 45 572 89 638 C 133 703 197 736 280 736 C 368 736 433 704 477 641 C 520 578 542 486 542 365 C 542 250 519 159 474 93 C 428 27 365 -6 285 -6 Z M 282 123 C 314 123 336 141 350 178 C 363 215 370 280 370 372 C 370 457 362 517 348 553 C 334 589 311 607 281 607 C 249 607 226 589 214 554 C 202 519 196 456 196 366 C 196 273 202 209 216 175 C 229 140 251 123 282 123 Z M 282 789 L 282 789 Z M 56 789 L 127 959 L 292 959 L 192 789 L 56 789 Z M 272 789 L 344 959 L 509 959 L 408 789 L 272 789 Z" unicode="Ő" />
<glyph horiz-adv-x="459" d="M 4 0 L 4 0 Z M 228 -6 C 198 -6 170 0 144 11 C 118 23 95 40 77 64 C 58 87 43 117 32 154 C 21 190 16 233 16 283 C 16 373 35 443 74 495 C 112 546 162 572 224 572 C 289 572 342 549 382 504 C 422 459 443 391 443 300 C 443 202 423 127 385 74 C 346 20 294 -6 228 -6 Z M 230 107 C 239 107 247 109 254 114 C 260 119 266 128 270 142 C 274 155 276 174 278 198 C 280 222 281 252 281 290 C 281 324 280 353 278 375 C 276 397 272 414 268 426 C 264 438 258 447 252 451 C 245 455 237 458 228 458 C 219 458 211 455 205 451 C 199 447 194 438 190 426 C 186 414 183 397 181 375 C 179 353 178 324 178 290 C 178 251 179 220 181 196 C 183 172 187 153 191 140 C 195 126 201 117 207 113 C 213 109 221 107 230 107 Z M 230 626 L 230 626 Z M 4 626 L 75 796 L 240 796 L 140 626 L 4 626 Z M 220 626 L 292 796 L 457 796 L 356 626 L 220 626 Z" unicode="ő" />
<glyph horiz-adv-x="743" d="M 253 -6 C 177 -6 120 26 81 91 C 42 156 23 249 23 370 C 23 483 43 572 85 638 C 126 703 181 736 251 736 C 282 736 307 729 325 715 C 343 701 356 687 363 671 L 363 730 L 711 730 L 711 588 L 526 588 L 526 433 L 700 433 L 700 292 L 526 292 L 526 142 L 732 142 L 732 0 L 363 0 L 363 70 C 355 49 342 31 323 16 C 303 1 280 -6 253 -6 Z M 279 119 C 309 119 331 137 344 175 C 356 213 363 278 363 372 C 363 459 356 521 342 557 C 328 593 307 611 278 611 C 246 611 225 593 213 557 C 201 521 195 458 195 366 C 195 272 201 208 214 172 C 227 136 249 119 279 119 Z" unicode="Œ" />
<glyph horiz-adv-x="691" d="M 229 -6 C 199 -6 172 0 146 11 C 120 23 97 40 78 64 C 58 87 43 117 32 154 C 21 190 16 233 16 283 C 16 373 35 443 74 495 C 113 546 163 572 225 572 C 259 572 289 562 315 544 C 341 526 357 506 363 484 C 369 505 383 525 406 543 C 428 561 456 571 488 571 C 548 571 595 545 628 493 C 660 441 677 360 677 248 L 433 248 C 433 211 440 179 455 153 C 469 126 492 113 524 113 C 544 113 563 118 581 129 C 599 139 614 150 626 161 L 673 87 C 665 77 655 66 643 56 C 631 45 617 35 603 26 C 589 16 573 9 556 3 C 538 -3 520 -6 501 -6 C 459 -6 427 2 405 18 C 383 34 368 54 362 76 C 349 54 332 34 312 18 C 291 2 263 -6 229 -6 Z M 429 344 L 534 344 C 534 384 529 413 520 431 C 511 449 499 459 485 459 C 469 459 456 449 446 431 C 435 412 429 383 429 344 Z M 231 107 C 239 107 246 109 253 113 C 259 117 265 126 270 140 C 274 153 278 172 281 196 C 283 220 285 251 285 290 C 285 326 283 355 281 377 C 278 399 274 416 269 428 C 264 440 258 448 252 452 C 245 456 238 458 230 458 C 222 458 214 456 208 452 C 202 448 196 440 192 428 C 188 416 184 399 182 377 C 179 355 178 326 178 290 C 178 250 179 217 182 193 C 184 169 188 150 193 138 C 198 125 204 117 210 113 C 216 109 223 107 231 107 Z" unicode="œ" />
<glyph horiz-adv-x="495" d="M 41 0 L 41 0 Z M 41 0 L 41 730 L 255 730 C 313 730 361 713 398 679 C 435 645 454 594 454 525 C 454 477 444 436 425 402 C 406 368 383 346 356 338 L 350 332 L 500 0 L 333 0 L 219 270 L 198 270 L 198 0 L 41 0 Z M 198 400 L 234 400 C 254 400 271 409 285 428 C 299 446 306 472 306 505 C 306 542 299 568 286 584 C 272 600 257 608 240 608 L 198 608 L 198 400 Z M 237 789 L 237 789 Z M 100 789 L 196 964 L 375 964 L 250 789 L 100 789 Z" unicode="Ŕ" />
<glyph horiz-adv-x="340" d="M 32 0 L 32 0 Z M 349 547 L 304 410 C 294 416 286 421 278 425 C 270 428 260 430 250 430 C 236 430 222 424 208 412 C 194 400 188 377 188 343 L 188 0 L 32 0 L 32 567 L 172 567 L 172 490 C 178 512 191 532 209 548 C 227 564 248 572 270 572 C 288 572 304 569 318 563 C 331 557 341 552 349 547 Z M 199 626 L 199 626 Z M 62 626 L 158 801 L 337 801 L 212 626 L 62 626 Z" unicode="ŕ" />
<glyph horiz-adv-x="495" d="M 41 0 L 41 0 Z M 41 0 L 41 730 L 255 730 C 313 730 361 713 398 679 C 435 645 454 594 454 525 C 454 477 444 436 425 402 C 406 368 383 346 356 338 L 350 332 L 500 0 L 333 0 L 219 270 L 198 270 L 198 0 L 41 0 Z M 198 400 L 234 400 C 254 400 271 409 285 428 C 299 446 306 472 306 505 C 306 542 299 568 286 584 C 272 600 257 608 240 608 L 198 608 L 198 400 Z M 248 -62 L 248 -62 Z M 362 -62 C 362 -86 359 -113 351 -143 C 343 -172 333 -200 322 -226 C 310 -252 298 -276 285 -296 C 272 -316 261 -329 252 -335 L 134 -283 C 141 -273 149 -260 157 -244 C 165 -228 172 -210 178 -190 C 184 -170 190 -148 194 -126 C 198 -104 201 -82 202 -62 L 362 -62 Z" unicode="Ŗ" />
<glyph horiz-adv-x="340" d="M 32 0 L 32 0 Z M 349 547 L 304 410 C 294 416 286 421 278 425 C 270 428 260 430 250 430 C 236 430 222 424 208 412 C 194 400 188 377 188 343 L 188 0 L 32 0 L 32 567 L 172 567 L 172 490 C 178 512 191 532 209 548 C 227 564 248 572 270 572 C 288 572 304 569 318 563 C 331 557 341 552 349 547 Z M 183 -62 L 183 -62 Z M 297 -62 C 297 -86 294 -113 286 -143 C 278 -172 268 -200 257 -226 C 245 -252 233 -276 220 -296 C 207 -316 196 -329 187 -335 L 69 -283 C 76 -273 84 -260 92 -244 C 100 -228 107 -210 113 -190 C 119 -170 125 -148 129 -126 C 133 -104 136 -82 137 -62 L 297 -62 Z" unicode="ŗ" />
<glyph horiz-adv-x="495" d="M 41 0 L 41 0 Z M 41 0 L 41 730 L 255 730 C 313 730 361 713 398 679 C 435 645 454 594 454 525 C 454 477 444 436 425 402 C 406 368 383 346 356 338 L 350 332 L 500 0 L 333 0 L 219 270 L 198 270 L 198 0 L 41 0 Z M 198 400 L 234 400 C 254 400 271 409 285 428 C 299 446 306 472 306 505 C 306 542 299 568 286 584 C 272 600 257 608 240 608 L 198 608 L 198 400 Z M 237 789 L 237 789 Z M 71 964 L 197 964 L 238 895 L 279 964 L 403 964 L 302 789 L 172 789 L 71 964 Z" unicode="Ř" />
<glyph horiz-adv-x="340" d="M 32 0 L 32 0 Z M 349 547 L 304 410 C 294 416 286 421 278 425 C 270 428 260 430 250 430 C 236 430 222 424 208 412 C 194 400 188 377 188 343 L 188 0 L 32 0 L 32 567 L 172 567 L 172 490 C 178 512 191 532 209 548 C 227 564 248 572 270 572 C 288 572 304 569 318 563 C 331 557 341 552 349 547 Z M 199 626 L 199 626 Z M 33 801 L 159 801 L 200 732 L 241 801 L 365 801 L 264 626 L 134 626 L 33 801 Z" unicode="ř" />
<glyph horiz-adv-x="454" d="M 6 0 L 6 0 Z M 225 -6 C 181 -6 141 0 106 11 C 70 23 37 47 6 83 L 94 174 C 106 155 123 140 144 130 C 165 119 186 114 206 114 C 227 114 246 120 263 134 C 280 148 289 167 289 193 C 289 220 280 241 264 257 C 247 272 218 293 178 319 C 158 331 140 344 122 358 C 104 372 89 389 75 407 C 61 425 51 446 43 470 C 35 494 31 521 31 551 C 31 579 36 605 48 628 C 59 650 74 670 93 686 C 112 702 134 714 160 723 C 185 731 212 736 241 736 C 287 736 324 728 353 714 C 382 700 405 684 421 666 L 334 572 C 324 582 311 591 296 599 C 281 607 266 611 250 611 C 233 611 217 605 203 593 C 188 581 181 565 182 545 C 182 525 189 508 201 493 C 213 478 241 457 285 431 C 337 400 375 367 399 333 C 423 299 436 253 436 195 C 436 160 429 130 417 105 C 405 79 389 58 369 42 C 349 26 327 14 302 6 C 276 -2 251 -6 225 -6 Z M 231 789 L 231 789 Z M 94 789 L 190 964 L 369 964 L 244 789 L 94 789 Z" unicode="Ś" />
<glyph horiz-adv-x="358" d="M 7 0 L 7 0 Z M 181 -6 C 143 -6 108 1 77 17 C 46 32 23 51 7 74 L 69 164 C 81 147 96 134 114 125 C 131 116 146 112 160 112 C 174 112 185 115 195 123 C 205 131 210 142 210 157 C 210 173 202 186 188 198 C 173 210 154 222 132 236 C 105 252 80 274 58 300 C 36 326 25 364 25 415 C 25 435 28 455 36 475 C 44 494 54 511 68 526 C 82 540 98 552 118 561 C 137 569 158 574 181 574 C 213 574 242 568 269 558 C 295 548 317 536 333 522 L 284 417 C 274 425 260 434 242 442 C 224 450 209 454 196 454 C 184 454 173 451 164 445 C 155 439 151 430 151 418 C 151 404 158 392 173 382 C 187 371 208 357 236 340 C 273 316 300 290 316 263 C 332 235 341 199 341 154 C 341 124 335 99 325 79 C 314 59 301 42 285 30 C 269 17 251 8 233 2 C 214 -3 197 -6 181 -6 Z M 184 626 L 184 626 Z M 47 626 L 143 801 L 322 801 L 197 626 L 47 626 Z" unicode="ś" />
<glyph horiz-adv-x="454" d="M 6 0 L 6 0 Z M 225 -6 C 181 -6 141 0 106 11 C 70 23 37 47 6 83 L 94 174 C 106 155 123 140 144 130 C 165 119 186 114 206 114 C 227 114 246 120 263 134 C 280 148 289 167 289 193 C 289 220 280 241 264 257 C 247 272 218 293 178 319 C 158 331 140 344 122 358 C 104 372 89 389 75 407 C 61 425 51 446 43 470 C 35 494 31 521 31 551 C 31 579 36 605 48 628 C 59 650 74 670 93 686 C 112 702 134 714 160 723 C 185 731 212 736 241 736 C 287 736 324 728 353 714 C 382 700 405 684 421 666 L 334 572 C 324 582 311 591 296 599 C 281 607 266 611 250 611 C 233 611 217 605 203 593 C 188 581 181 565 182 545 C 182 525 189 508 201 493 C 213 478 241 457 285 431 C 337 400 375 367 399 333 C 423 299 436 253 436 195 C 436 160 429 130 417 105 C 405 79 389 58 369 42 C 349 26 327 14 302 6 C 276 -2 251 -6 225 -6 Z M 231 789 L 231 789 Z M 397 789 L 271 789 L 230 859 L 189 789 L 65 789 L 166 964 L 296 964 L 397 789 Z" unicode="Ŝ" />
<glyph horiz-adv-x="358" d="M 7 0 L 7 0 Z M 181 -6 C 143 -6 108 1 77 17 C 46 32 23 51 7 74 L 69 164 C 81 147 96 134 114 125 C 131 116 146 112 160 112 C 174 112 185 115 195 123 C 205 131 210 142 210 157 C 210 173 202 186 188 198 C 173 210 154 222 132 236 C 105 252 80 274 58 300 C 36 326 25 364 25 415 C 25 435 28 455 36 475 C 44 494 54 511 68 526 C 82 540 98 552 118 561 C 137 569 158 574 181 574 C 213 574 242 568 269 558 C 295 548 317 536 333 522 L 284 417 C 274 425 260 434 242 442 C 224 450 209 454 196 454 C 184 454 173 451 164 445 C 155 439 151 430 151 418 C 151 404 158 392 173 382 C 187 371 208 357 236 340 C 273 316 300 290 316 263 C 332 235 341 199 341 154 C 341 124 335 99 325 79 C 314 59 301 42 285 30 C 269 17 251 8 233 2 C 214 -3 197 -6 181 -6 Z M 184 626 L 184 626 Z M 350 626 L 224 626 L 183 696 L 142 626 L 18 626 L 119 801 L 249 801 L 350 626 Z" unicode="ŝ" />
<glyph horiz-adv-x="454" d="M 6 0 L 6 0 Z M 225 -6 C 181 -6 141 0 106 11 C 70 23 37 47 6 83 L 94 174 C 106 155 123 140 144 130 C 165 119 186 114 206 114 C 227 114 246 120 263 134 C 280 148 289 167 289 193 C 289 220 280 241 264 257 C 247 272 218 293 178 319 C 158 331 140 344 122 358 C 104 372 89 389 75 407 C 61 425 51 446 43 470 C 35 494 31 521 31 551 C 31 579 36 605 48 628 C 59 650 74 670 93 686 C 112 702 134 714 160 723 C 185 731 212 736 241 736 C 287 736 324 728 353 714 C 382 700 405 684 421 666 L 334 572 C 324 582 311 591 296 599 C 281 607 266 611 250 611 C 233 611 217 605 203 593 C 188 581 181 565 182 545 C 182 525 189 508 201 493 C 213 478 241 457 285 431 C 337 400 375 367 399 333 C 423 299 436 253 436 195 C 436 160 429 130 417 105 C 405 79 389 58 369 42 C 349 26 327 14 302 6 C 276 -2 251 -6 225 -6 Z M 202 0 L 202 0 Z M 204 -179 C 181 -179 160 -176 141 -170 C 121 -164 105 -156 92 -147 L 120 -94 C 126 -98 134 -103 145 -109 C 156 -114 168 -117 181 -117 C 187 -117 193 -115 199 -112 C 204 -109 207 -104 207 -98 C 207 -91 204 -86 199 -83 C 194 -80 189 -79 184 -79 C 179 -79 174 -79 170 -80 C 166 -80 162 -81 160 -83 L 142 -60 L 200 14 L 272 14 L 232 -36 C 255 -36 274 -42 289 -52 C 304 -62 312 -78 312 -100 C 312 -124 301 -144 280 -158 C 259 -172 234 -179 204 -179 Z" unicode="Ş" />
<glyph horiz-adv-x="358" d="M 7 0 L 7 0 Z M 181 -6 C 143 -6 108 1 77 17 C 46 32 23 51 7 74 L 69 164 C 81 147 96 134 114 125 C 131 116 146 112 160 112 C 174 112 185 115 195 123 C 205 131 210 142 210 157 C 210 173 202 186 188 198 C 173 210 154 222 132 236 C 105 252 80 274 58 300 C 36 326 25 364 25 415 C 25 435 28 455 36 475 C 44 494 54 511 68 526 C 82 540 98 552 118 561 C 137 569 158 574 181 574 C 213 574 242 568 269 558 C 295 548 317 536 333 522 L 284 417 C 274 425 260 434 242 442 C 224 450 209 454 196 454 C 184 454 173 451 164 445 C 155 439 151 430 151 418 C 151 404 158 392 173 382 C 187 371 208 357 236 340 C 273 316 300 290 316 263 C 332 235 341 199 341 154 C 341 124 335 99 325 79 C 314 59 301 42 285 30 C 269 17 251 8 233 2 C 214 -3 197 -6 181 -6 Z M 162 0 L 162 0 Z M 164 -179 C 141 -179 120 -176 101 -170 C 81 -164 65 -156 52 -147 L 80 -94 C 86 -98 94 -103 105 -109 C 116 -114 128 -117 141 -117 C 147 -117 153 -115 159 -112 C 164 -109 167 -104 167 -98 C 167 -91 164 -86 159 -83 C 154 -80 149 -79 144 -79 C 139 -79 134 -79 130 -80 C 126 -80 122 -81 120 -83 L 102 -60 L 160 14 L 232 14 L 192 -36 C 215 -36 234 -42 249 -52 C 264 -62 272 -78 272 -100 C 272 -124 261 -144 240 -158 C 219 -172 194 -179 164 -179 Z" unicode="ş" />
<glyph horiz-adv-x="454" d="M 6 0 L 6 0 Z M 225 -6 C 181 -6 141 0 106 11 C 70 23 37 47 6 83 L 94 174 C 106 155 123 140 144 130 C 165 119 186 114 206 114 C 227 114 246 120 263 134 C 280 148 289 167 289 193 C 289 220 280 241 264 257 C 247 272 218 293 178 319 C 158 331 140 344 122 358 C 104 372 89 389 75 407 C 61 425 51 446 43 470 C 35 494 31 521 31 551 C 31 579 36 605 48 628 C 59 650 74 670 93 686 C 112 702 134 714 160 723 C 185 731 212 736 241 736 C 287 736 324 728 353 714 C 382 700 405 684 421 666 L 334 572 C 324 582 311 591 296 599 C 281 607 266 611 250 611 C 233 611 217 605 203 593 C 188 581 181 565 182 545 C 182 525 189 508 201 493 C 213 478 241 457 285 431 C 337 400 375 367 399 333 C 423 299 436 253 436 195 C 436 160 429 130 417 105 C 405 79 389 58 369 42 C 349 26 327 14 302 6 C 276 -2 251 -6 225 -6 Z M 231 789 L 231 789 Z M 65 964 L 191 964 L 232 895 L 273 964 L 397 964 L 296 789 L 166 789 L 65 964 Z" unicode="Š" />
<glyph horiz-adv-x="358" d="M 7 0 L 7 0 Z M 181 -6 C 143 -6 108 1 77 17 C 46 32 23 51 7 74 L 69 164 C 81 147 96 134 114 125 C 131 116 146 112 160 112 C 174 112 185 115 195 123 C 205 131 210 142 210 157 C 210 173 202 186 188 198 C 173 210 154 222 132 236 C 105 252 80 274 58 300 C 36 326 25 364 25 415 C 25 435 28 455 36 475 C 44 494 54 511 68 526 C 82 540 98 552 118 561 C 137 569 158 574 181 574 C 213 574 242 568 269 558 C 295 548 317 536 333 522 L 284 417 C 274 425 260 434 242 442 C 224 450 209 454 196 454 C 184 454 173 451 164 445 C 155 439 151 430 151 418 C 151 404 158 392 173 382 C 187 371 208 357 236 340 C 273 316 300 290 316 263 C 332 235 341 199 341 154 C 341 124 335 99 325 79 C 314 59 301 42 285 30 C 269 17 251 8 233 2 C 214 -3 197 -6 181 -6 Z M 184 626 L 184 626 Z M 18 801 L 144 801 L 185 732 L 226 801 L 350 801 L 249 626 L 119 626 L 18 801 Z" unicode="š" />
<glyph horiz-adv-x="401" d="M 4 0 L 4 0 Z M 397 588 L 287 588 L 287 0 L 117 0 L 117 588 L 4 588 L 4 730 L 397 730 L 397 588 Z M 200 789 L 200 789 Z M 34 964 L 160 964 L 201 895 L 242 964 L 366 964 L 265 789 L 135 789 L 34 964 Z" unicode="Ť" />
<glyph horiz-adv-x="294" d="M 6 0 L 6 0 Z M 261 132 L 294 31 C 285 22 273 14 259 6 C 244 -1 224 -5 200 -5 C 183 -5 166 -1 148 5 C 130 11 113 21 99 35 C 85 48 73 64 64 84 C 54 104 50 127 50 153 L 50 444 L 6 444 L 6 567 L 54 567 L 54 693 L 199 699 L 199 567 L 268 567 L 268 444 L 204 444 L 204 154 C 204 144 206 136 211 131 C 216 126 223 124 232 124 C 237 124 242 124 248 126 C 253 128 257 130 261 132 Z M 439 619 L 433 460 L 299 460 L 293 619 L 293 730 L 439 730 L 439 619 Z" unicode="ť" />
<glyph horiz-adv-x="401" d="M 381 369 L 287 369 L 287 0 L 117 0 L 117 369 L 21 369 L 21 504 L 117 504 L 117 588 L 4 588 L 4 730 L 397 730 L 397 588 L 287 588 L 287 504 L 381 504 L 381 369 Z" unicode="Ŧ" />
<glyph horiz-adv-x="294" d="M 294 31 C 285 22 273 14 259 6 C 244 -1 224 -5 200 -5 C 183 -5 166 -1 148 5 C 130 11 113 21 99 35 C 85 48 73 64 64 84 C 54 104 50 127 50 153 L 50 277 L 15 277 L 15 381 L 50 381 L 50 444 L 6 444 L 6 567 L 54 567 L 54 693 L 199 699 L 199 567 L 268 567 L 268 444 L 204 444 L 204 381 L 247 381 L 247 277 L 204 277 L 204 154 C 204 144 206 136 211 131 C 216 126 223 124 232 124 C 237 124 242 124 248 126 C 253 128 257 130 261 132 L 294 31 Z" unicode="ŧ" />
<glyph horiz-adv-x="550" d="M 39 0 L 39 0 Z M 511 730 L 511 231 C 511 189 504 152 490 122 C 476 92 457 67 434 48 C 411 29 385 15 355 6 C 325 -2 295 -7 265 -7 C 235 -7 206 -2 179 5 C 151 13 127 27 107 46 C 86 64 69 89 57 120 C 45 150 39 187 39 231 L 39 730 L 208 730 L 208 223 C 208 192 213 170 224 158 C 235 145 250 139 269 139 C 287 139 303 145 315 157 C 327 169 333 191 333 223 L 333 730 L 511 730 Z M 273 791 L 273 791 Z M 339 950 L 453 950 C 453 896 444 856 428 830 C 411 804 390 791 364 791 C 343 791 325 793 311 799 C 297 805 286 810 278 815 C 269 819 261 824 253 828 C 245 832 238 834 232 834 C 225 834 219 830 214 823 C 209 815 206 806 206 794 L 94 794 C 94 847 104 887 125 913 C 145 939 168 953 192 953 C 211 953 227 950 239 945 C 251 939 262 934 272 929 C 279 924 286 920 292 917 C 298 914 305 913 311 913 C 316 913 322 916 328 922 C 334 928 338 937 339 950 Z" unicode="Ũ" />
<glyph horiz-adv-x="459" d="M 30 0 L 30 0 Z M 30 567 L 184 567 L 184 156 C 184 138 188 126 196 118 C 204 110 215 106 227 106 C 239 106 249 110 258 120 C 267 130 272 147 272 172 L 272 567 L 427 567 L 427 0 L 281 0 L 281 61 C 273 42 257 26 233 13 C 209 0 184 -7 158 -7 C 124 -7 95 3 69 25 C 43 46 30 79 30 124 L 30 567 Z M 228 628 L 228 628 Z M 294 787 L 408 787 C 408 733 399 693 383 667 C 366 641 345 628 319 628 C 298 628 280 630 266 636 C 252 642 241 647 233 652 C 224 656 216 661 208 665 C 200 669 193 671 187 671 C 180 671 174 667 169 660 C 164 652 161 643 161 631 L 49 631 C 49 684 59 724 80 750 C 100 776 123 790 147 790 C 166 790 182 787 194 782 C 206 776 217 771 227 766 C 234 761 241 757 247 754 C 253 751 260 750 266 750 C 271 750 277 753 283 759 C 289 765 293 774 294 787 Z" unicode="ũ" />
<glyph horiz-adv-x="550" d="M 39 0 L 39 0 Z M 511 730 L 511 231 C 511 189 504 152 490 122 C 476 92 457 67 434 48 C 411 29 385 15 355 6 C 325 -2 295 -7 265 -7 C 235 -7 206 -2 179 5 C 151 13 127 27 107 46 C 86 64 69 89 57 120 C 45 150 39 187 39 231 L 39 730 L 208 730 L 208 223 C 208 192 213 170 224 158 C 235 145 250 139 269 139 C 287 139 303 145 315 157 C 327 169 333 191 333 223 L 333 730 L 511 730 Z M 273 795 L 273 795 Z M 411 795 L 135 795 L 135 913 L 411 913 L 411 795 Z" unicode="Ū" />
<glyph horiz-adv-x="459" d="M 30 0 L 30 0 Z M 30 567 L 184 567 L 184 156 C 184 138 188 126 196 118 C 204 110 215 106 227 106 C 239 106 249 110 258 120 C 267 130 272 147 272 172 L 272 567 L 427 567 L 427 0 L 281 0 L 281 61 C 273 42 257 26 233 13 C 209 0 184 -7 158 -7 C 124 -7 95 3 69 25 C 43 46 30 79 30 124 L 30 567 Z M 228 632 L 228 632 Z M 366 632 L 90 632 L 90 750 L 366 750 L 366 632 Z" unicode="ū" />
<glyph horiz-adv-x="550" d="M 39 0 L 39 0 Z M 511 730 L 511 231 C 511 189 504 152 490 122 C 476 92 457 67 434 48 C 411 29 385 15 355 6 C 325 -2 295 -7 265 -7 C 235 -7 206 -2 179 5 C 151 13 127 27 107 46 C 86 64 69 89 57 120 C 45 150 39 187 39 231 L 39 730 L 208 730 L 208 223 C 208 192 213 170 224 158 C 235 145 250 139 269 139 C 287 139 303 145 315 157 C 327 169 333 191 333 223 L 333 730 L 511 730 Z M 273 788 L 273 788 Z M 310 951 L 437 951 C 432 895 415 853 386 827 C 356 801 319 788 273 788 C 227 788 189 801 160 827 C 130 853 114 895 110 951 L 237 951 C 237 929 240 912 245 901 C 249 889 259 884 273 884 C 287 884 296 889 301 900 C 306 911 309 928 310 951 Z" unicode="Ŭ" />
<glyph horiz-adv-x="459" d="M 30 0 L 30 0 Z M 30 567 L 184 567 L 184 156 C 184 138 188 126 196 118 C 204 110 215 106 227 106 C 239 106 249 110 258 120 C 267 130 272 147 272 172 L 272 567 L 427 567 L 427 0 L 281 0 L 281 61 C 273 42 257 26 233 13 C 209 0 184 -7 158 -7 C 124 -7 95 3 69 25 C 43 46 30 79 30 124 L 30 567 Z M 228 625 L 228 625 Z M 265 788 L 392 788 C 387 732 370 690 341 664 C 311 638 274 625 228 625 C 182 625 144 638 115 664 C 85 690 69 732 65 788 L 192 788 C 192 766 195 749 200 738 C 204 726 214 721 228 721 C 242 721 251 726 256 737 C 261 748 264 765 265 788 Z" unicode="ŭ" />
<glyph horiz-adv-x="550" d="M 39 0 L 39 0 Z M 511 730 L 511 231 C 511 189 504 152 490 122 C 476 92 457 67 434 48 C 411 29 385 15 355 6 C 325 -2 295 -7 265 -7 C 235 -7 206 -2 179 5 C 151 13 127 27 107 46 C 86 64 69 89 57 120 C 45 150 39 187 39 231 L 39 730 L 208 730 L 208 223 C 208 192 213 170 224 158 C 235 145 250 139 269 139 C 287 139 303 145 315 157 C 327 169 333 191 333 223 L 333 730 L 511 730 Z M 273 773 L 273 773 Z M 273 773 C 237 773 207 785 183 810 C 158 834 146 864 146 900 C 146 934 158 964 183 989 C 207 1013 237 1026 273 1026 C 308 1026 338 1013 363 989 C 387 964 400 934 400 900 C 400 864 387 834 363 810 C 338 785 308 773 273 773 Z M 273 851 C 287 851 298 855 307 865 C 316 874 321 885 321 899 C 321 912 316 923 307 933 C 298 943 287 948 273 948 C 260 948 249 943 240 933 C 230 923 226 912 226 899 C 226 885 230 874 240 865 C 249 855 260 851 273 851 Z" unicode="Ů" />
<glyph horiz-adv-x="459" d="M 30 0 L 30 0 Z M 30 567 L 184 567 L 184 156 C 184 138 188 126 196 118 C 204 110 215 106 227 106 C 239 106 249 110 258 120 C 267 130 272 147 272 172 L 272 567 L 427 567 L 427 0 L 281 0 L 281 61 C 273 42 257 26 233 13 C 209 0 184 -7 158 -7 C 124 -7 95 3 69 25 C 43 46 30 79 30 124 L 30 567 Z M 228 610 L 228 610 Z M 228 610 C 192 610 162 622 138 647 C 113 671 101 701 101 737 C 101 771 113 801 138 826 C 162 850 192 863 228 863 C 263 863 293 850 318 826 C 342 801 355 771 355 737 C 355 701 342 671 318 647 C 293 622 263 610 228 610 Z M 228 688 C 242 688 253 692 262 702 C 271 711 276 722 276 736 C 276 749 271 760 262 770 C 253 780 242 785 228 785 C 215 785 204 780 195 770 C 185 760 181 749 181 736 C 181 722 185 711 195 702 C 204 692 215 688 228 688 Z" unicode="ů" />
<glyph horiz-adv-x="550" d="M 39 0 L 39 0 Z M 511 730 L 511 231 C 511 189 504 152 490 122 C 476 92 457 67 434 48 C 411 29 385 15 355 6 C 325 -2 295 -7 265 -7 C 235 -7 206 -2 179 5 C 151 13 127 27 107 46 C 86 64 69 89 57 120 C 45 150 39 187 39 231 L 39 730 L 208 730 L 208 223 C 208 192 213 170 224 158 C 235 145 250 139 269 139 C 287 139 303 145 315 157 C 327 169 333 191 333 223 L 333 730 L 511 730 Z M 273 789 L 273 789 Z M 47 789 L 118 959 L 283 959 L 183 789 L 47 789 Z M 263 789 L 335 959 L 500 959 L 399 789 L 263 789 Z" unicode="Ű" />
<glyph horiz-adv-x="459" d="M 2 0 L 2 0 Z M 30 567 L 184 567 L 184 156 C 184 138 188 126 196 118 C 204 110 215 106 227 106 C 239 106 249 110 258 120 C 267 130 272 147 272 172 L 272 567 L 427 567 L 427 0 L 281 0 L 281 61 C 273 42 257 26 233 13 C 209 0 184 -7 158 -7 C 124 -7 95 3 69 25 C 43 46 30 79 30 124 L 30 567 Z M 228 626 L 228 626 Z M 2 626 L 73 796 L 238 796 L 138 626 L 2 626 Z M 218 626 L 290 796 L 455 796 L 354 626 L 218 626 Z" unicode="ű" />
<glyph horiz-adv-x="550" d="M 39 0 L 39 0 Z M 511 730 L 511 231 C 511 189 504 152 490 122 C 476 92 457 67 434 48 C 411 29 385 15 355 6 C 325 -2 295 -7 265 -7 C 235 -7 206 -2 179 5 C 151 13 127 27 107 46 C 86 64 69 89 57 120 C 45 150 39 187 39 231 L 39 730 L 208 730 L 208 223 C 208 192 213 170 224 158 C 235 145 250 139 269 139 C 287 139 303 145 315 157 C 327 169 333 191 333 223 L 333 730 L 511 730 Z M 307 -4 L 307 -4 Z M 400 -63 L 440 -128 C 417 -152 393 -170 369 -182 C 344 -194 316 -200 285 -200 C 249 -200 221 -192 202 -177 C 183 -161 174 -142 174 -120 C 174 -94 185 -70 209 -48 C 233 -25 266 -6 310 10 L 364 10 C 343 0 328 -10 319 -22 C 310 -34 306 -45 306 -56 C 306 -65 309 -72 315 -78 C 321 -83 329 -86 339 -86 C 351 -86 363 -83 373 -79 C 383 -75 392 -69 400 -63 Z" unicode="Ų" />
<glyph horiz-adv-x="459" d="M 30 0 L 30 0 Z M 30 567 L 184 567 L 184 156 C 184 138 188 126 196 118 C 204 110 215 106 227 106 C 239 106 249 110 258 120 C 267 130 272 147 272 172 L 272 567 L 427 567 L 427 0 L 281 0 L 281 61 C 273 42 257 26 233 13 C 209 0 184 -7 158 -7 C 124 -7 95 3 69 25 C 43 46 30 79 30 124 L 30 567 Z M 296 -4 L 296 -4 Z M 389 -63 L 429 -128 C 406 -152 382 -170 358 -182 C 333 -194 305 -200 274 -200 C 238 -200 210 -192 191 -177 C 172 -161 163 -142 163 -120 C 163 -94 174 -70 198 -48 C 222 -25 255 -6 299 10 L 353 10 C 332 0 317 -10 308 -22 C 299 -34 295 -45 295 -56 C 295 -65 298 -72 304 -78 C 310 -83 318 -86 328 -86 C 340 -86 352 -83 362 -79 C 372 -75 381 -69 389 -63 Z" unicode="ų" />
<glyph horiz-adv-x="708" d="M 0 0 L 0 0 Z M 702 730 L 554 -3 L 441 -3 L 351 412 L 258 -3 L 144 -3 L -3 730 L 156 730 L 225 300 L 298 729 L 418 729 L 489 301 L 560 730 L 702 730 Z M 359 789 L 359 789 Z M 525 789 L 399 789 L 358 859 L 317 789 L 193 789 L 294 964 L 424 964 L 525 789 Z" unicode="Ŵ" />
<glyph horiz-adv-x="597" d="M 0 0 L 0 0 Z M 359 -3 L 300 237 L 238 -3 L 122 -3 L 0 567 L 145 567 L 206 226 L 254 460 L 353 460 L 402 227 L 465 567 L 598 567 L 474 -3 L 359 -3 Z M 299 626 L 299 626 Z M 465 626 L 339 626 L 298 696 L 257 626 L 133 626 L 234 801 L 364 801 L 465 626 Z" unicode="ŵ" />
<glyph horiz-adv-x="487" d="M 0 0 L 0 0 Z M 499 730 L 326 297 L 326 0 L 156 0 L 156 301 L -12 730 L 162 730 L 247 464 L 345 730 L 499 730 Z M 247 789 L 247 789 Z M 413 789 L 287 789 L 246 859 L 205 789 L 81 789 L 182 964 L 312 964 L 413 789 Z" unicode="Ŷ" />
<glyph horiz-adv-x="405" d="M 0 0 L 0 0 Z M 410 567 L 235 -90 C 225 -126 204 -153 174 -172 C 144 -190 110 -200 74 -200 C 51 -200 31 -197 15 -192 C 0 -186 -12 -181 -18 -177 L 21 -76 C 23 -78 29 -81 37 -84 C 45 -86 52 -88 60 -88 C 73 -88 84 -82 94 -72 C 103 -62 110 -46 115 -26 L 132 48 L -5 567 L 151 567 L 212 262 L 272 567 L 410 567 Z M 208 626 L 208 626 Z M 374 626 L 248 626 L 207 696 L 166 626 L 42 626 L 143 801 L 273 801 L 374 626 Z" unicode="ŷ" />
<glyph horiz-adv-x="487" d="M 0 0 L 0 0 Z M 499 730 L 326 297 L 326 0 L 156 0 L 156 301 L -12 730 L 162 730 L 247 464 L 345 730 L 499 730 Z M 247 789 L 247 789 Z M 396 789 L 271 789 L 271 953 L 396 953 L 396 789 Z M 223 789 L 98 789 L 98 953 L 223 953 L 223 789 Z" unicode="Ÿ" />
<glyph horiz-adv-x="436" d="M 13 0 L 13 0 Z M 412 730 L 412 644 L 204 139 L 423 139 L 423 0 L 13 0 L 13 82 L 227 591 L 35 591 L 35 730 L 412 730 Z M 230 789 L 230 789 Z M 93 789 L 189 964 L 368 964 L 243 789 L 93 789 Z" unicode="Ź" />
<glyph horiz-adv-x="368" d="M 11 0 L 11 0 Z M 352 567 L 352 504 L 192 122 L 357 122 L 357 0 L 11 0 L 11 48 L 177 444 L 22 444 L 22 567 L 352 567 Z M 190 626 L 190 626 Z M 53 626 L 149 801 L 328 801 L 203 626 L 53 626 Z" unicode="ź" />
<glyph horiz-adv-x="436" d="M 13 0 L 13 0 Z M 412 730 L 412 644 L 204 139 L 423 139 L 423 0 L 13 0 L 13 82 L 227 591 L 35 591 L 35 730 L 412 730 Z M 230 791 L 230 791 Z M 301 791 L 160 791 L 160 937 L 301 937 L 301 791 Z" unicode="Ż" />
<glyph horiz-adv-x="368" d="M 11 0 L 11 0 Z M 352 567 L 352 504 L 192 122 L 357 122 L 357 0 L 11 0 L 11 48 L 177 444 L 22 444 L 22 567 L 352 567 Z M 190 628 L 190 628 Z M 261 628 L 120 628 L 120 774 L 261 774 L 261 628 Z" unicode="ż" />
<glyph horiz-adv-x="436" d="M 13 0 L 13 0 Z M 412 730 L 412 644 L 204 139 L 423 139 L 423 0 L 13 0 L 13 82 L 227 591 L 35 591 L 35 730 L 412 730 Z M 230 789 L 230 789 Z M 64 964 L 190 964 L 231 895 L 272 964 L 396 964 L 295 789 L 165 789 L 64 964 Z" unicode="Ž" />
<glyph horiz-adv-x="368" d="M 11 0 L 11 0 Z M 352 567 L 352 504 L 192 122 L 357 122 L 357 0 L 11 0 L 11 48 L 177 444 L 22 444 L 22 567 L 352 567 Z" unicode="ž" />
<glyph horiz-adv-x="392" d="M 224 -42 C 222 -58 218 -74 211 -90 C 204 -106 195 -121 183 -134 C 171 -147 157 -158 141 -166 C 124 -174 105 -179 84 -179 C 59 -179 36 -176 15 -172 C -6 -168 -22 -162 -34 -156 L -19 -46 C -14 -46 -7 -48 2 -50 C 12 -52 21 -54 30 -54 C 47 -54 61 -48 73 -36 C 84 -24 91 -6 94 16 L 119 306 L 26 306 L 26 433 L 131 433 L 146 610 C 148 632 153 652 163 670 C 173 687 185 701 199 712 C 213 723 228 731 245 737 C 261 743 278 746 294 746 C 310 746 328 745 346 744 C 364 743 374 742 378 742 L 367 609 C 365 609 361 610 355 611 C 349 611 343 612 337 612 C 318 612 303 605 292 593 C 281 580 275 560 273 534 L 264 433 L 363 433 L 363 306 L 254 306 L 224 -42 Z" unicode="ƒ" />
<glyph horiz-adv-x="454" d="M 6 0 L 6 0 Z M 225 -6 C 181 -6 141 0 106 11 C 70 23 37 47 6 83 L 94 174 C 106 155 123 140 144 130 C 165 119 186 114 206 114 C 227 114 246 120 263 134 C 280 148 289 167 289 193 C 289 220 280 241 264 257 C 247 272 218 293 178 319 C 158 331 140 344 122 358 C 104 372 89 389 75 407 C 61 425 51 446 43 470 C 35 494 31 521 31 551 C 31 579 36 605 48 628 C 59 650 74 670 93 686 C 112 702 134 714 160 723 C 185 731 212 736 241 736 C 287 736 324 728 353 714 C 382 700 405 684 421 666 L 334 572 C 324 582 311 591 296 599 C 281 607 266 611 250 611 C 233 611 217 605 203 593 C 188 581 181 565 182 545 C 182 525 189 508 201 493 C 213 478 241 457 285 431 C 337 400 375 367 399 333 C 423 299 436 253 436 195 C 436 160 429 130 417 105 C 405 79 389 58 369 42 C 349 26 327 14 302 6 C 276 -2 251 -6 225 -6 Z M 202 -62 L 202 -62 Z M 316 -62 C 316 -86 313 -113 305 -143 C 297 -172 287 -200 276 -226 C 264 -252 252 -276 239 -296 C 226 -316 215 -329 206 -335 L 88 -283 C 95 -273 103 -260 111 -244 C 119 -228 126 -210 132 -190 C 138 -170 144 -148 148 -126 C 152 -104 155 -82 156 -62 L 316 -62 Z" unicode="Ș" />
<glyph horiz-adv-x="358" d="M 7 0 L 7 0 Z M 181 -6 C 143 -6 108 1 77 17 C 46 32 23 51 7 74 L 69 164 C 81 147 96 134 114 125 C 131 116 146 112 160 112 C 174 112 185 115 195 123 C 205 131 210 142 210 157 C 210 173 202 186 188 198 C 173 210 154 222 132 236 C 105 252 80 274 58 300 C 36 326 25 364 25 415 C 25 435 28 455 36 475 C 44 494 54 511 68 526 C 82 540 98 552 118 561 C 137 569 158 574 181 574 C 213 574 242 568 269 558 C 295 548 317 536 333 522 L 284 417 C 274 425 260 434 242 442 C 224 450 209 454 196 454 C 184 454 173 451 164 445 C 155 439 151 430 151 418 C 151 404 158 392 173 382 C 187 371 208 357 236 340 C 273 316 300 290 316 263 C 332 235 341 199 341 154 C 341 124 335 99 325 79 C 314 59 301 42 285 30 C 269 17 251 8 233 2 C 214 -3 197 -6 181 -6 Z M 162 -62 L 162 -62 Z M 276 -62 C 276 -86 273 -113 265 -143 C 257 -172 247 -200 236 -226 C 224 -252 212 -276 199 -296 C 186 -316 175 -329 166 -335 L 48 -283 C 55 -273 63 -260 71 -244 C 79 -228 86 -210 92 -190 C 98 -170 104 -148 108 -126 C 112 -104 115 -82 116 -62 L 276 -62 Z" unicode="ș" />
<glyph horiz-adv-x="401" d="M 4 0 L 4 0 Z M 397 588 L 287 588 L 287 0 L 117 0 L 117 588 L 4 588 L 4 730 L 397 730 L 397 588 Z M 183 -62 L 183 -62 Z M 297 -62 C 297 -86 294 -113 286 -143 C 278 -172 268 -200 257 -226 C 245 -252 233 -276 220 -296 C 207 -316 196 -329 187 -335 L 69 -283 C 76 -273 84 -260 92 -244 C 100 -228 107 -210 113 -190 C 119 -170 125 -148 129 -126 C 133 -104 136 -82 137 -62 L 297 -62 Z" unicode="Ț" />
<glyph horiz-adv-x="294" d="M 6 0 L 6 0 Z M 261 132 L 294 31 C 285 22 273 14 259 6 C 244 -1 224 -5 200 -5 C 183 -5 166 -1 148 5 C 130 11 113 21 99 35 C 85 48 73 64 64 84 C 54 104 50 127 50 153 L 50 444 L 6 444 L 6 567 L 54 567 L 54 693 L 199 699 L 199 567 L 268 567 L 268 444 L 204 444 L 204 154 C 204 144 206 136 211 131 C 216 126 223 124 232 124 C 237 124 242 124 248 126 C 253 128 257 130 261 132 Z M 144 -62 L 144 -62 Z M 258 -62 C 258 -86 255 -113 247 -143 C 239 -172 229 -200 218 -226 C 206 -252 194 -276 181 -296 C 168 -316 157 -329 148 -335 L 30 -283 C 37 -273 45 -260 53 -244 C 61 -228 68 -210 74 -190 C 80 -170 86 -148 90 -126 C 94 -104 97 -82 98 -62 L 258 -62 Z" unicode="ț" />
<glyph horiz-adv-x="231" d="M 197 567 L 197 -49 C 197 -85 183 -116 157 -144 C 131 -172 96 -186 52 -186 C 32 -186 13 -183 -4 -178 C -22 -172 -34 -167 -39 -163 L -9 -59 C -6 -59 -2 -60 1 -62 C 5 -63 11 -64 17 -64 C 24 -64 30 -61 35 -55 C 40 -49 43 -41 43 -32 L 43 567 L 197 567 Z" unicode="ȷ" />
<glyph horiz-adv-x="500" d="M 416 626 L 290 626 L 249 696 L 208 626 L 84 626 L 185 801 L 315 801 L 416 626 Z" unicode="ˆ" />
<glyph horiz-adv-x="500" d="M 84 801 L 210 801 L 251 732 L 292 801 L 416 801 L 315 626 L 185 626 L 84 801 Z" unicode="ˇ" />
<glyph horiz-adv-x="500" d="M 287 788 L 414 788 C 409 732 392 690 363 664 C 333 638 296 625 250 625 C 204 625 166 638 137 664 C 107 690 91 732 87 788 L 214 788 C 214 766 217 749 222 738 C 226 726 236 721 250 721 C 264 721 273 726 278 737 C 283 748 286 765 287 788 Z" unicode="˘" />
<glyph horiz-adv-x="500" d="M 321 628 L 180 628 L 180 774 L 321 774 L 321 628 Z" unicode="˙" />
<glyph horiz-adv-x="500" d="M 250 610 C 214 610 184 622 160 647 C 135 671 123 701 123 737 C 123 771 135 801 160 826 C 184 850 214 863 250 863 C 285 863 315 850 340 826 C 364 801 377 771 377 737 C 377 701 364 671 340 647 C 315 622 285 610 250 610 Z M 250 688 C 264 688 275 692 284 702 C 293 711 298 722 298 736 C 298 749 293 760 284 770 C 275 780 264 785 250 785 C 237 785 226 780 217 770 C 207 760 203 749 203 736 C 203 722 207 711 217 702 C 226 692 237 688 250 688 Z" unicode="˚" />
<glyph horiz-adv-x="500" d="M 356 -59 L 396 -124 C 373 -148 349 -166 325 -178 C 300 -190 272 -196 241 -196 C 205 -196 177 -188 158 -173 C 139 -157 130 -138 130 -116 C 130 -90 141 -66 165 -44 C 189 -21 222 -2 266 14 L 320 14 C 299 4 284 -6 275 -18 C 266 -30 262 -41 262 -52 C 262 -61 265 -68 271 -74 C 277 -79 285 -82 295 -82 C 307 -82 319 -79 329 -75 C 339 -71 348 -65 356 -59 Z" unicode="˛" />
<glyph horiz-adv-x="500" d="M 323 787 L 437 787 C 437 733 428 693 412 667 C 395 641 374 628 348 628 C 327 628 309 630 295 636 C 281 642 270 647 262 652 C 253 656 245 661 237 665 C 229 669 222 671 216 671 C 209 671 203 667 198 660 C 193 652 190 643 190 631 L 78 631 C 78 684 88 724 109 750 C 129 776 152 790 176 790 C 195 790 211 787 223 782 C 235 776 246 771 256 766 C 263 761 270 757 276 754 C 282 751 289 750 295 750 C 300 750 306 753 312 759 C 318 765 322 774 323 787 Z" unicode="˜" />
<glyph horiz-adv-x="500" d="M 53 626 L 124 796 L 289 796 L 189 626 L 53 626 Z M 269 626 L 341 796 L 506 796 L 405 626 L 269 626 Z" unicode="˝" />
<glyph horiz-adv-x="0" d="M 0 626 L 0 626 Z M 137 626 L -12 626 L -137 801 L 41 801 L 137 626 Z" unicode="̀" />
<glyph horiz-adv-x="0" d="M 0 626 L 0 626 Z M -137 626 L -41 801 L 138 801 L 13 626 L -137 626 Z" unicode="́" />
<glyph horiz-adv-x="0" d="M 0 626 L 0 626 Z M 166 626 L 40 626 L -1 696 L -42 626 L -166 626 L -65 801 L 65 801 L 166 626 Z" unicode="̂" />
<glyph horiz-adv-x="0" d="M 0 628 L 0 628 Z M 66 787 L 180 787 C 180 733 171 693 155 667 C 138 641 117 628 91 628 C 70 628 52 630 38 636 C 24 642 13 647 5 652 C -3 656 -11 661 -19 665 C -27 669 -34 671 -41 671 C -47 671 -53 667 -58 660 C -63 652 -66 643 -67 631 L -179 631 C -179 684 -168 724 -148 750 C -127 776 -105 790 -81 790 C -61 790 -45 787 -33 782 C -21 776 -10 771 -1 766 C 6 761 13 757 19 754 C 25 751 32 750 38 750 C 43 750 49 753 55 759 C 61 765 65 774 66 787 Z" unicode="̃" />
<glyph horiz-adv-x="0" d="M 0 632 L 0 632 Z M 138 632 L -138 632 L -138 750 L 138 750 L 138 632 Z" unicode="̄" />
<glyph horiz-adv-x="0" d="M 0 625 L 0 625 Z M 37 788 L 164 788 C 159 732 142 690 113 664 C 83 638 46 625 0 625 C -46 625 -83 638 -113 664 C -142 690 -159 732 -163 788 L -36 788 C -35 766 -32 749 -28 738 C -23 726 -14 721 0 721 C 14 721 23 726 28 737 C 33 748 36 765 37 788 Z" unicode="̆" />
<glyph horiz-adv-x="0" d="M 0 628 L 0 628 Z M 71 628 L -70 628 L -70 774 L 71 774 L 71 628 Z" unicode="̇" />
<glyph horiz-adv-x="0" d="M 0 626 L 0 626 Z M 149 626 L 24 626 L 24 790 L 149 790 L 149 626 Z M -24 626 L -149 626 L -149 790 L -24 790 L -24 626 Z" unicode="̈" />
<glyph horiz-adv-x="0" d="M 0 610 L 0 610 Z M 0 610 C -35 610 -65 622 -90 647 C -114 671 -127 701 -127 737 C -127 771 -114 801 -90 826 C -65 850 -35 863 0 863 C 35 863 65 850 90 826 C 114 801 127 771 127 737 C 127 701 114 671 90 647 C 65 622 35 610 0 610 Z M 0 688 C 14 688 25 692 34 702 C 43 711 48 722 48 736 C 48 749 43 760 34 770 C 25 780 14 785 0 785 C -12 785 -23 780 -33 770 C -42 760 -47 749 -47 736 C -47 722 -42 711 -33 702 C -23 692 -12 688 0 688 Z" unicode="̊" />
<glyph horiz-adv-x="0" d="M 0 626 L 0 626 Z M -226 626 L -155 796 L 10 796 L -90 626 L -226 626 Z M -10 626 L 62 796 L 227 796 L 126 626 L -10 626 Z" unicode="̋" />
<glyph horiz-adv-x="0" d="M 0 626 L 0 626 Z M -166 801 L -40 801 L 1 732 L 42 801 L 166 801 L 65 626 L -65 626 L -166 801 Z" unicode="̌" />
<glyph horiz-adv-x="0" d="M 0 -62 L 0 -62 Z M 114 -62 C 114 -86 111 -113 103 -143 C 95 -172 85 -200 74 -226 C 62 -252 50 -276 37 -296 C 24 -316 13 -329 4 -335 L -114 -283 C -106 -273 -99 -260 -91 -244 C -83 -228 -75 -210 -69 -190 C -63 -170 -57 -148 -53 -126 C -49 -104 -46 -82 -46 -62 L 114 -62 Z" unicode="̦" />
<glyph horiz-adv-x="0" d="M 0 0 L 0 0 Z M 2 -179 C -20 -179 -41 -176 -61 -170 C -80 -164 -96 -156 -110 -147 L -82 -94 C -76 -98 -67 -103 -56 -109 C -45 -114 -33 -117 -21 -117 C -14 -117 -8 -115 -3 -112 C 2 -109 5 -104 5 -98 C 5 -91 2 -86 -2 -83 C -7 -80 -12 -79 -18 -79 C -22 -79 -27 -79 -31 -80 C -35 -80 -39 -81 -42 -83 L -60 -60 L -2 14 L 70 14 L 30 -36 C 53 -36 72 -42 87 -52 C 102 -62 110 -78 110 -100 C 110 -124 99 -144 78 -158 C 57 -172 32 -179 2 -179 Z" unicode="̧" />
<glyph horiz-adv-x="0" d="M 0 0 L 0 0 Z M 93 -59 L 133 -124 C 110 -148 86 -166 62 -178 C 37 -190 9 -196 -22 -196 C -58 -196 -85 -188 -104 -173 C -123 -157 -133 -138 -133 -116 C -133 -90 -121 -66 -97 -44 C -73 -21 -40 -2 3 14 L 57 14 C 36 4 21 -6 12 -18 C 3 -30 -1 -41 -1 -52 C -1 -61 2 -68 8 -74 C 14 -79 22 -82 32 -82 C 44 -82 56 -79 66 -75 C 76 -71 85 -65 93 -59 Z" unicode="̨" />
<glyph horiz-adv-x="563" d="M 0 0 L 0 0 Z M 609 0 L -3 0 L 284 730 L 323 730 L 609 0 Z M 410 117 L 299 440 L 189 117 L 410 117 Z" unicode="Δ" />
<glyph horiz-adv-x="724" d="M 17 0 L 17 0 Z M 26 0 L 26 144 L 224 144 L 224 179 C 195 185 168 197 143 213 C 118 229 96 248 78 272 C 59 296 44 323 33 354 C 22 384 17 418 17 454 C 17 494 25 532 41 568 C 57 604 80 636 111 663 C 141 689 179 710 224 726 C 269 742 321 750 379 750 C 438 750 491 742 537 726 C 583 710 622 689 654 662 C 685 635 709 604 725 568 C 741 532 750 494 750 454 C 750 382 733 322 699 274 C 665 226 612 194 542 179 L 542 144 L 740 144 L 740 0 L 429 0 L 429 263 C 478 273 515 295 540 329 C 564 362 577 400 577 444 C 577 469 571 492 561 514 C 551 535 537 553 519 568 C 501 583 481 595 457 603 C 433 611 408 616 381 616 C 354 616 329 611 306 603 C 283 595 263 583 246 568 C 229 552 216 534 206 513 C 196 491 191 468 191 442 C 191 400 202 363 226 331 C 249 299 286 276 338 263 L 338 0 L 26 0 Z" unicode="Ω" />
<glyph horiz-adv-x="578" d="M 49 0 L 49 0 Z M 49 -86 L 49 567 L 205 567 L 205 178 C 205 160 212 145 228 134 C 243 123 261 118 281 118 C 305 118 326 123 343 135 C 359 147 368 162 368 181 L 368 567 L 523 567 L 523 0 L 381 0 L 381 70 C 371 53 353 36 328 20 C 303 4 277 -4 249 -4 C 237 -4 225 -1 214 3 C 202 7 195 14 192 22 L 192 -86 L 49 -86 Z" unicode="μ" />
<glyph horiz-adv-x="575" d="M 224 447 L 224 0 L 70 0 L 70 447 L 15 447 L 15 567 L 560 567 L 560 447 L 504 447 L 504 0 L 349 0 L 349 447 L 224 447 Z" unicode="π" />
<glyph horiz-adv-x="708" d="M 0 0 L 0 0 Z M 702 730 L 554 -3 L 441 -3 L 351 412 L 258 -3 L 144 -3 L -3 730 L 156 730 L 225 300 L 298 729 L 418 729 L 489 301 L 560 730 L 702 730 Z M 359 789 L 359 789 Z M 496 789 L 347 789 L 222 964 L 400 964 L 496 789 Z" unicode="Ẁ" />
<glyph horiz-adv-x="597" d="M 0 0 L 0 0 Z M 359 -3 L 300 237 L 238 -3 L 122 -3 L 0 567 L 145 567 L 206 226 L 254 460 L 353 460 L 402 227 L 465 567 L 598 567 L 474 -3 L 359 -3 Z M 299 626 L 299 626 Z M 436 626 L 287 626 L 162 801 L 340 801 L 436 626 Z" unicode="ẁ" />
<glyph horiz-adv-x="708" d="M 0 0 L 0 0 Z M 702 730 L 554 -3 L 441 -3 L 351 412 L 258 -3 L 144 -3 L -3 730 L 156 730 L 225 300 L 298 729 L 418 729 L 489 301 L 560 730 L 702 730 Z M 359 789 L 359 789 Z M 222 789 L 318 964 L 497 964 L 372 789 L 222 789 Z" unicode="Ẃ" />
<glyph horiz-adv-x="597" d="M 0 0 L 0 0 Z M 359 -3 L 300 237 L 238 -3 L 122 -3 L 0 567 L 145 567 L 206 226 L 254 460 L 353 460 L 402 227 L 465 567 L 598 567 L 474 -3 L 359 -3 Z M 299 626 L 299 626 Z M 162 626 L 258 801 L 437 801 L 312 626 L 162 626 Z" unicode="ẃ" />
<glyph horiz-adv-x="708" d="M 0 0 L 0 0 Z M 702 730 L 554 -3 L 441 -3 L 351 412 L 258 -3 L 144 -3 L -3 730 L 156 730 L 225 300 L 298 729 L 418 729 L 489 301 L 560 730 L 702 730 Z M 359 789 L 359 789 Z M 508 789 L 383 789 L 383 953 L 508 953 L 508 789 Z M 335 789 L 210 789 L 210 953 L 335 953 L 335 789 Z" unicode="Ẅ" />
<glyph horiz-adv-x="597" d="M 0 0 L 0 0 Z M 359 -3 L 300 237 L 238 -3 L 122 -3 L 0 567 L 145 567 L 206 226 L 254 460 L 353 460 L 402 227 L 465 567 L 598 567 L 474 -3 L 359 -3 Z M 299 626 L 299 626 Z M 448 626 L 323 626 L 323 790 L 448 790 L 448 626 Z M 275 626 L 150 626 L 150 790 L 275 790 L 275 626 Z" unicode="ẅ" />
<glyph horiz-adv-x="487" d="M 0 0 L 0 0 Z M 499 730 L 326 297 L 326 0 L 156 0 L 156 301 L -12 730 L 162 730 L 247 464 L 345 730 L 499 730 Z M 247 789 L 247 789 Z M 384 789 L 235 789 L 110 964 L 288 964 L 384 789 Z" unicode="Ỳ" />
<glyph horiz-adv-x="405" d="M 0 0 L 0 0 Z M 410 567 L 235 -90 C 225 -126 204 -153 174 -172 C 144 -190 110 -200 74 -200 C 51 -200 31 -197 15 -192 C 0 -186 -12 -181 -18 -177 L 21 -76 C 23 -78 29 -81 37 -84 C 45 -86 52 -88 60 -88 C 73 -88 84 -82 94 -72 C 103 -62 110 -46 115 -26 L 132 48 L -5 567 L 151 567 L 212 262 L 272 567 L 410 567 Z M 208 626 L 208 626 Z M 345 626 L 196 626 L 71 801 L 249 801 L 345 626 Z" unicode="ỳ" />
<glyph horiz-adv-x="460" d="M 424 214 L 37 214 L 37 348 L 424 348 L 424 214 Z" unicode="–" />
<glyph horiz-adv-x="645" d="M 609 214 L 37 214 L 37 348 L 609 348 L 609 214 Z" unicode="—" />
<glyph horiz-adv-x="288" d="M 33 507 L 33 514 C 33 554 40 592 55 629 C 70 666 93 702 124 737 L 272 731 C 263 721 254 709 244 695 C 234 680 225 663 217 645 C 209 627 202 607 196 585 C 190 563 188 539 188 515 L 188 507 L 33 507 Z" unicode="‘" />
<glyph horiz-adv-x="288" d="M 254 737 L 254 730 C 254 690 246 652 231 615 C 216 577 193 541 163 507 L 15 513 C 23 523 33 535 43 549 C 53 563 62 580 70 598 C 78 616 85 637 91 659 C 97 681 100 704 100 729 L 100 737 L 254 737 Z" unicode="’" />
<glyph horiz-adv-x="288" d="M 254 121 L 254 114 C 254 74 246 36 231 -1 C 216 -38 193 -74 163 -109 L 15 -103 C 23 -93 32 -81 42 -67 C 52 -52 61 -35 69 -17 C 77 0 84 21 90 43 C 96 65 99 88 99 113 L 99 121 L 254 121 Z" unicode="‚" />
<glyph horiz-adv-x="473" d="M 233 507 L 233 514 C 233 554 240 592 256 629 C 272 665 294 701 324 737 L 464 731 C 445 711 426 682 407 645 C 388 607 379 564 379 515 L 379 507 L 233 507 Z M 33 507 L 33 514 C 33 554 41 592 57 629 C 73 665 96 701 124 737 L 264 731 C 255 721 246 708 236 694 C 226 680 216 663 208 645 C 200 627 193 607 187 585 C 181 563 179 539 179 515 L 179 507 L 33 507 Z" unicode="“" />
<glyph horiz-adv-x="473" d="M 246 737 L 246 730 C 246 690 238 652 223 615 C 207 578 185 542 156 507 L 15 513 C 34 533 53 561 72 599 C 91 636 101 679 101 729 L 101 737 L 246 737 Z M 440 737 L 440 730 C 440 690 431 652 415 615 C 399 578 377 542 349 507 L 208 513 C 226 532 245 560 265 598 C 284 636 294 679 294 729 L 294 737 L 440 737 Z" unicode="”" />
<glyph horiz-adv-x="475" d="M 246 121 L 246 114 C 246 74 238 36 222 0 C 206 -37 184 -73 155 -109 L 15 -103 C 33 -83 52 -54 71 -17 C 90 20 100 63 100 113 L 100 121 L 246 121 Z M 441 121 L 441 114 C 441 74 432 36 416 0 C 400 -37 378 -73 350 -109 L 209 -103 C 227 -84 246 -56 266 -18 C 285 20 295 63 295 113 L 295 121 L 441 121 Z" unicode="„" />
<glyph horiz-adv-x="454" d="M 438 339 L 306 339 L 306 -179 L 143 -179 L 143 339 L 16 339 L 16 472 L 143 472 L 143 730 L 306 730 L 306 472 L 438 472 L 438 339 Z" unicode="†" />
<glyph horiz-adv-x="469" d="M 150 -179 L 150 74 L 32 74 L 32 208 L 150 208 L 150 362 L 32 362 L 32 496 L 150 496 L 150 730 L 314 730 L 314 496 L 438 496 L 438 362 L 314 362 L 314 208 L 438 208 L 438 74 L 314 74 L 314 -179 L 150 -179 Z" unicode="‡" />
<glyph horiz-adv-x="384" d="M 192 519 C 231 519 264 505 291 478 C 318 451 332 418 332 379 C 332 340 318 307 291 280 C 264 253 231 240 192 240 C 152 240 119 253 92 280 C 65 307 52 340 52 379 C 52 418 65 451 92 478 C 119 505 152 519 192 519 Z" unicode="•" />
<glyph horiz-adv-x="765" d="M 49 0 L 49 160 L 206 160 L 206 0 L 49 0 Z M 304 0 L 304 160 L 461 160 L 461 0 L 304 0 Z M 559 0 L 559 160 L 716 160 L 716 0 L 559 0 Z" unicode="…" />
<glyph horiz-adv-x="1033" d="M 173 361 C 155 361 137 364 119 372 C 101 380 85 391 71 407 C 57 423 45 442 37 466 C 28 490 24 517 24 549 C 24 602 38 647 66 683 C 94 719 128 738 168 738 C 190 738 211 733 230 723 C 249 713 265 699 279 683 C 293 666 303 646 311 624 C 319 601 323 577 323 552 C 323 525 319 500 311 477 C 303 453 292 433 278 416 C 264 398 248 385 230 375 C 212 365 193 361 173 361 Z M 102 0 L 494 730 L 577 730 L 186 0 L 102 0 Z M 136 550 C 136 528 138 508 142 492 C 146 476 156 468 173 468 C 190 468 200 476 204 492 C 208 508 210 527 210 550 C 210 572 208 591 204 607 C 200 623 190 631 174 631 C 157 631 146 623 142 607 C 138 591 136 572 136 550 Z M 524 -4 C 506 -4 487 0 469 7 C 451 15 434 26 420 42 C 406 58 394 77 385 101 C 376 125 372 152 372 184 C 372 237 386 282 416 318 C 445 354 482 373 527 373 C 550 373 571 368 590 358 C 608 348 624 334 638 318 C 651 301 661 281 668 259 C 675 236 679 212 679 187 C 679 160 675 135 667 112 C 659 88 649 68 635 51 C 621 33 605 20 586 10 C 567 0 546 -4 524 -4 Z M 855 -4 C 837 -4 818 0 800 7 C 782 15 765 26 751 42 C 737 58 725 77 716 101 C 707 125 703 152 703 184 C 703 237 717 282 747 318 C 776 354 813 373 858 373 C 880 373 901 368 920 358 C 939 348 955 334 968 318 C 981 301 991 281 999 259 C 1006 236 1010 212 1010 187 C 1010 160 1006 135 998 112 C 990 88 980 68 966 51 C 952 33 936 20 917 10 C 898 0 877 -4 855 -4 Z M 524 104 C 540 104 551 111 557 126 C 563 140 566 160 566 184 C 566 208 563 228 558 244 C 552 259 541 267 525 267 C 511 267 501 259 495 244 C 488 228 485 208 485 184 C 485 160 487 141 493 126 C 499 111 509 104 524 104 Z M 855 104 C 871 104 882 111 888 126 C 894 140 897 160 897 184 C 897 208 894 228 889 244 C 883 259 872 267 856 267 C 842 267 832 259 826 244 C 819 228 816 208 816 184 C 816 160 818 141 824 126 C 830 111 840 104 855 104 Z" unicode="‰" />
<glyph horiz-adv-x="264" d="M 237 96 L 24 271 L 24 360 L 237 532 L 237 382 L 159 312 L 237 251 L 237 96 Z" unicode="‹" />
<glyph horiz-adv-x="265" d="M 27 535 L 242 360 L 242 271 L 27 99 L 27 250 L 105 319 L 27 380 L 27 535 Z" unicode="›" />
<glyph horiz-adv-x="145" d="M 313 730 L -29 0 L -145 0 L 197 730 L 313 730 Z" unicode="⁄" />
<glyph horiz-adv-x="334" d="M 12 453 L 12 525 L 190 734 L 268 734 L 268 530 L 319 530 L 319 453 L 268 453 L 268 373 L 162 373 L 162 453 L 12 453 Z M 106 525 L 165 525 L 165 597 L 106 525 Z" unicode="⁴" />
<glyph horiz-adv-x="489" d="M 479 111 C 463 73 437 43 403 21 C 368 0 330 -12 290 -12 C 232 -12 184 11 147 58 C 109 104 85 170 75 255 L 21 255 L 21 343 L 69 343 C 69 345 69 348 69 351 C 69 353 69 356 69 359 C 69 363 69 368 69 373 C 69 377 69 382 69 387 L 21 387 L 21 475 L 76 475 C 86 556 108 621 143 669 C 178 717 227 742 289 742 C 345 742 387 729 417 704 C 446 679 466 652 477 622 L 369 558 C 361 574 352 587 342 596 C 332 605 316 610 295 610 C 277 610 261 599 248 579 C 235 558 226 523 221 475 L 440 475 L 440 387 L 216 387 C 216 383 216 378 216 374 C 216 369 216 364 216 360 C 216 357 216 354 216 351 C 216 348 216 345 216 343 L 440 343 L 440 255 L 221 255 C 226 201 236 165 251 146 C 265 127 282 118 301 118 C 321 118 336 124 348 137 C 359 150 368 166 375 185 L 479 111 Z" unicode="€" />
<glyph horiz-adv-x="892" d="M 844 311 L 711 311 L 711 503 L 609 340 L 595 340 L 494 503 L 494 311 L 366 311 L 366 730 L 480 730 L 603 524 L 737 730 L 844 730 L 844 311 Z M 337 583 L 262 583 L 262 311 L 99 311 L 99 583 L 18 583 L 18 730 L 337 730 L 337 583 Z" unicode="™" />
<glyph horiz-adv-x="767" d="M 26 0 L 26 144 L 224 144 L 224 179 C 195 185 168 197 143 213 C 118 229 96 248 78 272 C 59 296 44 323 33 354 C 22 384 17 418 17 454 C 17 494 25 532 41 568 C 57 604 80 636 111 663 C 141 689 179 710 224 726 C 269 742 321 750 379 750 C 438 750 491 742 537 726 C 583 710 622 689 654 662 C 685 635 709 604 725 568 C 741 532 750 494 750 454 C 750 382 733 322 699 274 C 665 226 612 194 542 179 L 542 144 L 740 144 L 740 0 L 429 0 L 429 263 C 478 273 515 295 540 329 C 564 362 577 400 577 444 C 577 469 571 492 561 514 C 551 535 537 553 519 568 C 501 583 481 595 457 603 C 433 611 408 616 381 616 C 354 616 329 611 306 603 C 283 595 263 583 246 568 C 229 552 216 534 206 513 C 196 491 191 468 191 442 C 191 400 202 363 226 331 C 249 299 286 276 338 263 L 338 0 L 26 0 Z" unicode="Ω" />
<glyph horiz-adv-x="533" d="M 491 300 C 491 241 484 192 471 152 C 458 112 441 80 420 56 C 398 32 374 15 346 5 C 318 -5 288 -10 258 -10 C 230 -10 202 -5 174 4 C 146 13 122 27 100 46 C 78 64 60 88 46 116 C 32 144 26 178 26 216 C 26 250 31 282 43 311 C 55 340 70 365 89 385 C 108 405 130 420 156 432 C 182 443 208 449 236 449 C 266 449 290 444 310 436 C 330 428 346 416 359 400 C 352 448 341 490 325 527 C 309 564 290 595 268 620 C 246 645 222 664 196 678 C 169 692 142 700 114 702 L 183 801 C 213 801 246 791 282 772 C 318 753 351 723 382 683 C 412 643 438 591 459 527 C 480 463 491 388 491 300 Z M 256 107 C 280 107 299 116 311 134 C 323 152 329 183 329 225 C 329 260 323 286 312 303 C 301 320 283 329 259 329 C 236 329 219 320 207 303 C 195 285 189 257 189 217 C 189 175 194 147 205 131 C 215 115 232 107 256 107 Z" unicode="∂" />
<glyph horiz-adv-x="601" d="M 609 0 L -3 0 L 284 730 L 323 730 L 609 0 Z M 410 117 L 299 440 L 189 117 L 410 117 Z" unicode="∆" />
<glyph horiz-adv-x="676" d="M 264 590 L 264 0 L 102 0 L 102 590 L 15 590 L 15 730 L 661 730 L 661 590 L 583 590 L 583 0 L 421 0 L 421 590 L 264 590 Z" unicode="∏" />
<glyph horiz-adv-x="566" d="M 254 590 L 446 307 L 220 -39 L 540 -39 L 540 -179 L -37 -179 L 290 306 L -8 730 L 519 730 L 519 590 L 254 590 Z" unicode="∑" />
<glyph horiz-adv-x="448" d="M 411 269 L 37 269 L 37 394 L 411 394 L 411 269 Z" unicode="−" />
<glyph horiz-adv-x="510" d="M 515 730 L 198 0 L 186 0 L 8 338 L 115 426 L 211 223 L 419 730 L 515 730 Z" unicode="√" />
<glyph horiz-adv-x="371" d="M 94 16 L 146 610 C 148 632 153 652 163 670 C 173 687 185 701 199 712 C 213 723 228 731 245 737 C 261 743 278 746 294 746 C 310 746 328 745 346 744 C 364 743 374 742 378 742 L 367 609 C 365 609 361 610 355 611 C 349 611 343 612 337 612 C 318 612 303 605 292 593 C 281 580 275 560 273 534 L 224 -42 C 222 -58 218 -74 211 -90 C 204 -106 195 -121 183 -135 C 171 -148 157 -159 141 -167 C 124 -175 105 -179 84 -179 C 59 -179 36 -176 15 -172 C -6 -167 -22 -161 -34 -155 L -18 -45 C -14 -45 -7 -47 2 -50 C 12 -52 21 -54 30 -54 C 47 -54 61 -48 73 -36 C 84 -24 91 -6 94 16 Z" unicode="∫" />
<glyph horiz-adv-x="448" d="M 328 521 L 435 521 C 433 497 430 474 425 452 C 420 430 413 410 404 394 C 395 378 384 365 371 355 C 357 345 341 340 323 340 C 300 340 279 343 261 350 C 243 357 228 365 217 374 C 207 382 197 390 187 396 C 177 402 167 406 157 406 C 147 406 138 399 130 385 C 122 371 118 357 118 343 L 14 343 C 14 395 23 438 41 472 C 59 506 88 523 126 523 C 148 523 169 518 188 508 C 206 498 221 488 232 480 C 243 472 253 465 263 459 C 272 453 281 451 290 451 C 305 451 315 457 320 471 C 325 485 328 501 328 521 Z M 328 325 L 435 325 C 433 301 430 278 425 256 C 420 234 413 214 404 198 C 395 182 384 169 371 159 C 357 149 341 144 323 144 C 300 144 279 147 261 154 C 243 160 228 168 217 178 C 206 186 196 193 188 199 C 179 205 169 208 158 208 C 147 208 138 201 130 189 C 122 176 118 162 118 147 L 14 147 C 14 199 23 242 41 276 C 59 310 88 327 126 327 C 148 327 169 321 187 310 C 205 299 220 289 231 281 C 241 273 252 266 262 261 C 272 256 281 254 290 254 C 305 254 315 260 320 274 C 325 287 328 304 328 325 Z" unicode="≈" />
<glyph horiz-adv-x="448" d="M 406 149 L 223 149 L 189 42 L 97 65 L 124 149 L 48 149 L 48 273 L 163 273 L 198 382 L 48 382 L 48 506 L 237 506 L 272 616 L 364 592 L 337 506 L 406 506 L 406 382 L 297 382 L 263 273 L 406 273 L 406 149 Z" unicode="≠" />
<glyph horiz-adv-x="450" d="M 406 116 L 406 10 L 41 10 L 41 116 L 372 116 L 42 276 L 42 371 L 408 564 L 408 432 L 196 326 L 405 231 L 405 116 L 406 116 Z" unicode="≤" />
<glyph horiz-adv-x="448" d="M 406 116 L 406 10 L 41 10 L 41 116 L 42 116 L 42 231 L 251 326 L 39 432 L 39 564 L 405 371 L 405 276 L 75 116 L 406 116 Z" unicode="≥" />
<glyph horiz-adv-x="559" d="M 533 325 L 285 -40 L 274 -40 L 26 325 L 26 337 L 274 702 L 285 702 L 533 337 L 533 325 Z M 390 327 L 390 335 L 284 495 L 276 495 L 170 335 L 170 327 L 276 167 L 284 167 L 390 327 Z" unicode="◊" />
<glyph horiz-adv-x="730" d="M 448 645 L 282 645 L 282 730 L 448 730 L 448 645 Z M 461 269 L 269 269 L 269 461 L 461 461 L 461 269 Z M 659 282 L 572 282 L 572 448 L 659 448 L 659 282 Z M 158 282 L 71 282 L 71 448 L 158 448 L 158 282 Z M 448 0 L 282 0 L 282 86 L 448 86 L 448 0 Z" unicode="" />
<glyph horiz-adv-x="471" d="M 256 444 L 202 444 L 202 0 L 47 0 L 47 444 L 3 444 L 3 567 L 47 567 L 47 637 C 47 660 51 682 61 702 C 71 722 83 740 98 754 C 113 768 130 780 149 788 C 167 796 186 801 205 801 C 228 801 249 798 269 793 C 288 788 301 782 309 776 L 270 674 C 267 675 262 677 255 679 C 248 681 242 682 236 682 C 224 682 214 676 208 665 C 202 654 199 637 199 615 L 199 567 L 256 567 L 256 444 Z M 440 0 L 284 0 L 284 567 L 440 567 L 440 0 Z" unicode="ﬁ" />
<glyph horiz-adv-x="525" d="M 535 12 C 526 7 514 3 500 0 C 486 -3 468 -5 448 -5 C 404 -5 367 9 337 37 C 307 65 292 104 292 155 L 292 695 L 286 666 C 281 670 275 673 267 677 C 259 680 251 682 241 682 C 229 682 219 676 211 665 C 203 654 199 637 199 615 L 199 567 L 256 567 L 256 444 L 202 444 L 202 0 L 47 0 L 47 444 L 3 444 L 3 567 L 47 567 L 47 637 C 47 660 51 682 61 702 C 71 722 83 740 98 754 C 113 768 130 780 149 788 C 167 796 186 801 205 801 C 222 801 238 799 254 796 C 269 793 282 790 292 786 L 292 800 L 446 800 L 446 171 C 446 151 448 137 454 129 C 460 120 470 116 484 116 C 488 116 491 116 495 117 C 498 117 501 118 503 119 L 535 12 Z" unicode="ﬂ" />
</font>
</defs>
</svg>
