<?xml version="1.0" encoding="utf-8" ?><svg version="1.1" xmlns = 'http://www.w3.org/2000/svg'><defs><font id='web' horiz-adv-x="1000">
<font-face font-family="web" descent="-200" cap-height="730" units-per-em="1000" bbox="-182,-338,1130,1018" x-height="486" ascent="800" />
<missing-glyph horiz-adv-x="500" d="" /><glyph horiz-adv-x="238" d="" unicode=" " />
<glyph horiz-adv-x="283" d="M 193 435 L 165 204 L 121 204 L 94 435 L 94 730 L 193 730 L 193 435 Z M 190 0 L 98 0 L 98 100 L 190 100 L 190 0 Z" unicode="!" />
<glyph horiz-adv-x="412" d="M 341 616 L 335 479 L 266 479 L 262 615 L 262 730 L 341 730 L 341 616 Z M 150 615 L 146 479 L 76 479 L 71 615 L 71 730 L 150 730 L 150 615 Z" unicode="&#x22;" />
<glyph horiz-adv-x="635" d="M 579 224 L 441 224 L 421 0 L 368 1 L 388 224 L 227 224 L 207 0 L 154 1 L 174 224 L 34 224 L 34 293 L 180 293 L 192 433 L 57 433 L 57 502 L 198 502 L 218 730 L 271 729 L 251 502 L 412 502 L 432 730 L 485 729 L 465 502 L 601 502 L 601 433 L 459 433 L 447 293 L 579 293 L 579 224 Z M 233 293 L 394 293 L 406 433 L 245 433 L 233 293 Z" unicode="#" />
<glyph horiz-adv-x="532" d="M 491 187 C 491 135 472 92 434 59 C 396 25 348 6 291 2 L 291 -120 L 234 -120 L 234 2 C 190 5 150 14 115 30 C 79 46 51 64 31 85 L 68 154 C 86 135 111 118 141 104 C 171 89 202 79 234 75 L 234 345 C 165 375 116 405 88 437 C 59 468 45 507 45 555 C 45 603 62 643 97 675 C 132 707 178 725 234 729 L 234 789 L 291 789 L 291 729 C 327 725 360 717 390 705 C 420 693 447 676 470 655 L 425 593 C 407 610 386 624 363 635 C 339 646 315 653 291 656 L 291 406 L 294 405 C 363 373 413 342 444 311 C 475 280 491 239 491 187 Z M 126 555 C 126 528 133 506 149 489 C 164 472 192 453 234 433 L 234 658 C 202 654 176 643 156 625 C 136 607 126 583 126 555 Z M 411 186 C 411 212 403 234 388 254 C 372 274 340 295 291 319 L 291 73 C 326 75 355 87 377 107 C 399 127 411 154 411 186 Z" unicode="$" />
<glyph horiz-adv-x="814" d="M 206 356 C 185 356 165 360 146 369 C 126 377 109 390 94 406 C 78 422 66 442 57 466 C 47 490 43 517 43 548 C 43 574 47 598 55 622 C 63 645 75 665 90 683 C 104 700 121 714 141 724 C 161 734 182 740 205 740 C 229 740 252 734 272 724 C 292 714 309 700 323 683 C 337 666 348 646 356 623 C 364 600 368 576 368 551 C 368 523 364 498 356 474 C 348 450 336 430 322 412 C 308 394 291 381 271 371 C 251 361 229 356 206 356 Z M 203 0 L 129 0 L 600 730 L 674 730 L 203 0 Z M 204 421 C 232 421 254 432 270 456 C 286 479 294 509 294 547 C 294 583 286 614 272 638 C 258 662 236 675 207 675 C 179 675 157 662 142 638 C 126 614 119 583 119 547 C 119 507 127 476 144 454 C 160 432 180 421 204 421 Z M 609 -3 C 588 -3 568 1 549 10 C 529 18 512 31 497 47 C 482 63 470 83 461 107 C 451 131 447 158 447 189 C 447 215 451 239 459 263 C 467 287 479 307 493 325 C 507 342 525 356 545 366 C 565 376 586 382 610 382 C 634 382 657 376 677 366 C 697 356 714 342 728 325 C 742 308 752 288 760 265 C 768 241 772 217 772 192 C 772 165 768 140 760 116 C 752 92 740 71 726 54 C 712 36 695 22 675 12 C 655 2 633 -3 609 -3 Z M 608 63 C 636 63 658 74 674 97 C 690 120 698 151 698 189 C 698 226 690 256 676 280 C 661 304 639 316 610 316 C 583 316 562 304 547 280 C 531 256 524 226 524 189 C 524 148 532 117 549 95 C 565 73 585 63 608 63 Z" unicode="%" />
<glyph horiz-adv-x="712" d="M 638 -4 L 544 82 C 508 53 469 31 427 15 C 385 0 338 -8 287 -8 C 249 -8 215 -3 184 4 C 152 12 125 24 103 40 C 81 55 63 74 51 97 C 39 120 33 146 33 175 C 33 202 38 226 48 247 C 58 267 71 286 87 303 C 103 319 121 334 143 348 C 164 362 186 376 209 390 L 192 406 C 173 424 154 448 135 476 C 115 504 106 539 106 579 C 106 600 111 620 121 639 C 131 658 145 675 163 689 C 181 703 201 715 225 724 C 248 732 272 737 298 737 C 326 737 351 732 373 724 C 395 715 415 703 431 689 C 447 675 459 658 467 639 C 475 620 480 600 480 579 C 480 537 466 502 439 474 C 412 445 376 416 330 388 L 545 194 C 557 208 570 223 582 239 C 594 255 605 271 617 289 L 686 246 C 673 226 660 208 647 190 C 633 172 619 155 605 140 L 689 64 L 638 -4 Z M 256 454 L 279 433 C 317 457 346 480 367 502 C 388 524 399 548 399 574 C 399 600 390 623 373 643 C 355 662 330 672 296 672 C 266 672 240 662 220 642 C 200 622 190 600 190 578 C 190 554 196 532 209 511 C 221 489 237 470 256 454 Z M 127 178 C 127 142 142 113 174 93 C 206 73 244 63 289 63 C 325 63 359 69 392 82 C 424 95 455 113 485 137 L 259 344 C 217 318 185 293 162 269 C 138 245 127 214 127 178 Z" unicode="&#x26;" />
<glyph horiz-adv-x="222" d="M 150 613 L 146 473 L 76 473 L 71 613 L 71 730 L 150 730 L 150 613 Z" unicode="'" />
<glyph horiz-adv-x="325" d="M 311 -106 L 311 -183 C 271 -163 234 -136 200 -104 C 165 -71 135 -34 110 7 C 85 48 65 93 51 142 C 37 191 30 241 30 293 C 30 347 37 398 53 446 C 68 494 89 538 115 577 C 141 616 171 650 205 680 C 239 709 274 732 311 749 L 311 677 C 287 662 264 643 242 619 C 220 595 200 568 184 536 C 167 504 153 468 143 427 C 133 386 128 341 128 293 C 128 250 132 209 141 169 C 149 129 162 91 178 57 C 194 23 213 -8 236 -36 C 258 -64 283 -87 311 -106 Z" unicode="(" />
<glyph horiz-adv-x="325" d="M 14 677 L 14 749 C 48 734 83 712 117 684 C 151 656 181 622 207 582 C 233 542 254 497 270 447 C 286 396 295 341 295 283 C 295 228 287 176 271 128 C 255 79 235 35 209 -4 C 183 -44 153 -79 119 -110 C 85 -140 50 -165 14 -183 L 14 -104 C 39 -86 63 -65 86 -39 C 108 -13 128 15 146 48 C 163 80 177 116 187 156 C 197 196 203 238 203 283 C 203 335 197 382 186 425 C 174 467 160 505 142 538 C 124 571 104 599 82 622 C 59 645 36 663 14 677 Z" unicode=")" />
<glyph horiz-adv-x="412" d="M 373 582 L 244 547 L 339 455 L 281 405 L 207 521 L 134 405 L 76 454 L 171 548 L 38 581 L 70 653 L 185 589 L 167 730 L 248 730 L 229 589 L 347 651 L 373 582 Z" unicode="*" />
<glyph horiz-adv-x="506" d="M 475 297 L 288 297 L 288 115 L 218 115 L 218 297 L 31 297 L 31 365 L 218 365 L 218 547 L 288 547 L 288 365 L 475 365 L 475 297 Z" unicode="+" />
<glyph horiz-adv-x="239" d="M 198 107 C 192 57 177 8 154 -39 C 131 -86 105 -123 77 -149 L 15 -120 C 23 -111 31 -99 41 -83 C 50 -67 59 -48 69 -28 C 78 -8 86 13 94 37 C 101 60 107 83 111 107 L 198 107 Z" unicode="," />
<glyph horiz-adv-x="345" d="M 300 226 L 45 226 L 45 302 L 300 302 L 300 226 Z" unicode="-" />
<glyph horiz-adv-x="240" d="M 164 0 L 76 0 L 76 125 L 164 125 L 164 0 Z" unicode="." />
<glyph horiz-adv-x="318" d="M 314 730 L 82 0 L 4 0 L 238 730 L 314 730 Z" unicode="/" />
<glyph horiz-adv-x="589" d="M 291 -12 C 253 -12 218 -3 187 14 C 155 32 129 57 107 89 C 85 121 69 160 57 206 C 45 252 40 304 40 361 C 40 411 45 460 56 506 C 66 552 82 593 103 628 C 124 662 151 690 183 711 C 215 731 253 742 297 742 C 341 742 379 732 411 712 C 443 692 469 665 489 631 C 509 597 524 558 534 513 C 544 467 549 419 549 369 C 549 315 543 264 533 218 C 523 171 507 131 486 97 C 464 63 437 36 405 17 C 373 -2 335 -12 291 -12 Z M 292 64 C 321 64 346 71 368 86 C 389 101 406 122 420 148 C 434 174 444 205 451 241 C 457 277 461 317 461 359 C 461 402 458 442 452 480 C 446 517 436 549 423 577 C 409 605 392 626 371 642 C 349 658 324 666 294 666 C 266 666 241 658 220 643 C 199 628 182 607 168 580 C 154 553 144 521 138 483 C 131 445 128 405 128 361 C 128 317 131 277 138 241 C 145 204 155 173 169 147 C 183 121 200 100 220 86 C 240 71 264 64 292 64 Z" unicode="0" />
<glyph horiz-adv-x="376" d="M 282 0 L 196 0 L 196 609 C 182 590 160 572 131 555 C 101 537 74 527 48 525 L 48 607 C 80 609 112 622 142 646 C 172 670 200 698 225 731 L 282 731 L 282 0 Z" unicode="1" />
<glyph horiz-adv-x="561" d="M 530 0 L 32 0 L 32 28 L 352 363 C 374 385 393 411 409 440 C 425 468 434 499 434 532 C 434 572 419 604 389 628 C 359 652 322 664 277 664 C 227 664 188 649 160 620 C 132 590 118 551 118 502 L 38 502 C 38 578 61 637 106 679 C 151 721 211 742 286 742 C 320 742 351 737 380 728 C 408 719 433 706 454 689 C 474 672 490 651 502 626 C 514 601 520 573 520 542 C 520 489 509 445 487 410 C 465 374 442 344 418 320 L 178 77 L 530 77 L 530 0 Z" unicode="2" />
<glyph horiz-adv-x="558" d="M 269 -12 C 205 -12 152 -3 109 13 C 66 30 33 49 9 71 L 54 138 C 74 121 102 104 136 88 C 170 72 211 64 261 64 C 319 64 365 79 398 109 C 430 139 447 176 447 220 C 447 260 431 293 399 317 C 367 341 327 353 277 353 L 149 353 L 149 429 L 275 429 C 319 429 355 441 382 465 C 409 489 423 517 423 549 C 423 578 410 605 385 630 C 359 654 324 667 278 667 C 228 667 189 657 160 637 C 130 617 107 594 89 568 L 38 626 C 47 640 59 653 74 667 C 88 681 106 693 126 704 C 146 715 170 724 196 731 C 222 738 251 742 284 742 C 352 742 407 725 448 692 C 488 659 509 616 509 563 C 509 520 495 483 467 453 C 439 423 407 403 371 394 C 415 385 453 365 485 334 C 516 303 532 263 532 215 C 532 186 526 158 515 131 C 504 103 488 79 466 58 C 444 37 416 20 383 7 C 350 -5 312 -12 269 -12 Z" unicode="3" />
<glyph horiz-adv-x="581" d="M 573 190 L 447 190 L 447 0 L 367 0 L 367 190 L 17 190 L 17 249 L 386 743 L 447 743 L 447 261 L 573 261 L 573 190 Z M 368 261 L 368 608 L 111 261 L 368 261 Z" unicode="4" />
<glyph horiz-adv-x="575" d="M 276 -12 C 220 -12 170 -2 128 16 C 86 34 53 55 31 79 L 75 144 C 95 123 121 104 155 88 C 188 71 227 63 273 63 C 329 63 373 81 405 117 C 437 153 454 199 454 255 C 454 307 438 349 408 379 C 377 409 338 425 291 425 C 255 425 222 417 192 402 C 162 387 140 365 126 337 L 69 352 L 99 730 L 486 730 L 486 651 L 162 651 L 145 417 C 158 439 180 458 212 474 C 243 489 277 497 313 497 C 381 497 436 475 478 431 C 520 387 542 330 542 259 C 542 220 535 184 523 151 C 511 117 493 89 470 65 C 447 41 419 22 386 8 C 353 -5 316 -12 276 -12 Z" unicode="5" />
<glyph horiz-adv-x="566" d="M 294 -12 C 256 -12 221 -5 190 7 C 158 19 131 37 109 60 C 86 82 68 110 56 142 C 44 174 38 210 38 248 C 38 289 44 329 56 368 C 68 406 85 444 107 480 C 129 516 155 552 185 588 C 215 623 247 658 282 692 L 343 752 L 400 696 L 351 649 C 297 595 250 544 211 494 C 171 444 147 403 139 369 C 149 391 169 412 199 432 C 229 452 265 463 309 463 C 344 463 376 457 405 445 C 433 433 457 416 477 395 C 497 374 512 349 523 320 C 533 291 539 260 539 227 C 539 194 533 163 521 134 C 509 105 492 80 470 58 C 448 36 423 19 393 7 C 363 -5 330 -12 294 -12 Z M 294 63 C 318 63 340 67 360 76 C 380 84 397 96 411 111 C 425 125 435 143 443 163 C 451 183 455 203 455 225 C 455 247 451 269 444 289 C 437 309 427 326 413 341 C 399 356 383 368 363 377 C 343 385 319 390 293 390 C 271 390 250 386 230 379 C 210 371 192 361 176 347 C 160 333 148 317 139 297 C 129 277 125 255 125 231 C 125 183 139 143 169 111 C 199 79 240 63 294 63 Z" unicode="6" />
<glyph horiz-adv-x="500" d="M 492 730 L 502 698 L 147 -7 L 72 28 L 389 650 L 16 650 L 16 730 L 492 730 Z" unicode="7" />
<glyph horiz-adv-x="603" d="M 403 386 C 423 382 443 374 462 364 C 481 354 498 341 513 325 C 527 309 539 291 548 269 C 556 247 561 223 561 196 C 561 166 555 139 543 114 C 531 88 514 66 492 48 C 470 29 442 14 410 4 C 378 -6 341 -12 301 -12 C 221 -12 159 7 113 45 C 67 83 44 133 44 195 C 44 222 49 247 59 269 C 69 291 81 311 97 327 C 112 343 129 356 149 366 C 168 376 187 382 205 384 C 189 388 173 394 157 404 C 140 413 125 425 112 439 C 98 453 87 469 79 488 C 70 506 66 527 66 550 C 66 579 72 605 84 629 C 96 653 112 673 134 690 C 155 706 180 719 209 728 C 237 737 268 742 301 742 C 373 742 431 724 474 689 C 516 654 538 609 539 555 C 539 533 535 512 527 493 C 519 474 509 457 496 443 C 483 429 468 417 452 407 C 436 397 419 390 403 386 Z M 302 414 C 349 414 387 426 415 450 C 443 474 457 503 457 539 C 457 579 442 611 414 634 C 385 657 348 669 302 669 C 258 669 221 657 191 633 C 161 609 146 577 146 539 C 146 501 161 470 191 448 C 221 425 258 414 302 414 Z M 302 59 C 356 59 399 72 431 99 C 463 126 480 162 480 206 C 480 250 463 283 431 307 C 398 331 355 343 302 343 C 250 343 207 331 174 307 C 141 283 125 249 125 204 C 125 161 141 126 173 99 C 205 72 248 59 302 59 Z" unicode="8" />
<glyph horiz-adv-x="566" d="M 228 -15 L 176 43 L 242 100 C 263 119 284 140 305 163 C 326 186 345 210 362 234 C 378 258 393 281 405 305 C 417 328 426 350 431 371 C 418 346 395 323 362 303 C 329 283 293 273 254 273 C 219 273 187 278 159 290 C 131 302 107 318 88 339 C 68 359 53 384 43 413 C 32 442 27 474 27 508 C 27 540 33 570 45 599 C 57 628 73 653 95 675 C 117 696 143 713 174 726 C 204 738 238 745 275 745 C 310 745 343 739 374 727 C 405 715 432 697 455 675 C 477 653 495 626 508 594 C 521 562 528 526 528 486 C 528 440 521 397 509 355 C 497 313 480 274 459 238 C 438 201 414 167 386 135 C 358 103 330 75 300 49 L 228 -15 Z M 272 343 C 320 343 360 358 393 390 C 425 421 442 459 442 504 C 442 528 437 551 429 572 C 420 592 408 610 393 625 C 378 639 361 651 341 659 C 321 667 299 671 277 671 C 251 671 228 666 208 658 C 188 649 171 637 157 623 C 143 608 132 591 124 571 C 116 551 113 530 113 509 C 113 463 126 423 153 391 C 180 359 220 343 272 343 Z" unicode="9" />
<glyph horiz-adv-x="240" d="M 163 364 L 77 364 L 77 486 L 163 486 L 163 364 Z M 163 0 L 77 0 L 77 123 L 163 123 L 163 0 Z" unicode=":" />
<glyph horiz-adv-x="239" d="M 169 364 L 82 364 L 82 486 L 169 486 L 169 364 Z M 175 99 C 168 53 154 7 132 -38 C 110 -83 85 -119 57 -145 L -5 -116 C 3 -106 12 -94 22 -79 C 32 -63 41 -46 50 -27 C 59 -7 67 12 75 34 C 83 56 88 77 91 99 L 175 99 Z" unicode=";" />
<glyph horiz-adv-x="408" d="M 358 93 L 45 296 L 45 356 L 358 559 L 358 476 L 134 328 L 358 177 L 358 93 Z" unicode="&#x3C;" />
<glyph horiz-adv-x="504" d="M 450 390 L 54 390 L 54 462 L 450 462 L 450 390 Z M 450 179 L 54 179 L 54 251 L 450 251 L 450 179 Z" unicode="=" />
<glyph horiz-adv-x="408" d="M 362 296 L 49 93 L 49 176 L 274 328 L 49 477 L 49 559 L 362 356 L 362 296 Z" unicode="&#x3E;" />
<glyph horiz-adv-x="466" d="M 170 197 C 170 244 175 282 187 312 C 198 341 218 369 248 396 C 259 406 271 417 283 428 C 295 438 307 450 317 463 C 327 475 336 489 343 505 C 349 520 353 537 353 556 C 353 590 340 616 314 636 C 288 656 257 666 220 666 C 187 666 157 658 131 643 C 104 628 82 610 66 588 L 11 642 C 35 672 66 696 105 714 C 143 732 186 742 232 742 C 293 742 343 726 383 694 C 422 662 442 619 442 565 C 442 539 438 516 430 496 C 422 476 411 458 399 442 C 387 426 373 411 358 398 C 343 384 329 372 316 360 C 290 339 273 314 266 284 C 258 254 254 225 254 197 L 170 197 Z M 167 0 L 167 109 L 261 109 L 261 0 L 167 0 Z" unicode="?" />
<glyph horiz-adv-x="866" d="M 426 -30 C 372 -30 321 -20 275 0 C 228 20 188 47 154 81 C 120 115 94 155 75 202 C 55 248 46 298 46 351 C 46 404 55 454 74 501 C 93 547 120 588 154 622 C 188 656 228 682 275 702 C 322 722 374 732 430 732 C 488 732 540 723 588 706 C 635 689 675 665 709 635 C 743 604 769 567 787 525 C 805 482 815 435 815 385 C 815 340 809 302 799 270 C 789 238 776 213 760 194 C 744 174 727 160 708 151 C 688 142 669 138 651 138 C 618 138 592 145 573 159 C 553 173 541 191 537 212 C 529 195 510 179 480 163 C 450 147 416 139 378 139 C 328 139 291 151 265 175 C 239 199 227 230 227 266 C 227 308 244 341 280 367 C 315 393 364 406 426 406 L 529 406 L 529 417 C 529 453 519 477 499 491 C 479 504 454 511 423 511 C 398 511 375 508 353 502 C 331 496 312 489 297 483 L 272 543 C 290 551 314 559 342 566 C 370 573 397 577 424 577 C 480 577 523 563 554 535 C 584 507 600 465 600 407 L 600 258 C 600 243 604 229 612 215 C 620 201 635 195 657 196 C 666 196 676 198 688 203 C 700 208 710 217 720 231 C 730 244 738 262 745 286 C 751 310 755 340 755 378 C 755 420 747 459 732 495 C 717 531 696 563 668 590 C 640 617 606 638 566 654 C 526 669 481 677 431 677 C 383 677 340 668 300 652 C 260 635 225 612 197 583 C 168 554 146 520 130 480 C 114 440 106 398 106 353 C 106 307 114 265 130 225 C 146 185 169 150 198 121 C 226 91 260 68 300 51 C 340 33 382 25 428 25 C 450 25 474 27 498 32 C 522 37 545 45 569 57 L 592 6 C 565 -6 537 -15 509 -21 C 481 -27 453 -30 426 -30 Z M 402 201 C 430 201 457 207 482 220 C 507 232 523 245 529 258 L 529 350 L 431 350 C 389 350 359 343 339 330 C 319 316 309 298 309 274 C 309 251 316 233 332 220 C 348 207 371 201 402 201 Z" unicode="@" />
<glyph horiz-adv-x="653" d="M 650 0 L 555 0 L 473 204 L 173 204 L 93 0 L 3 0 L 301 733 L 356 733 L 650 0 Z M 448 277 L 323 592 L 198 277 L 448 277 Z" unicode="A" />
<glyph horiz-adv-x="604" d="M 97 0 L 97 730 L 313 730 C 377 730 427 714 465 683 C 502 652 521 610 521 556 C 521 507 508 467 482 435 C 456 403 423 384 382 377 C 402 375 423 370 445 363 C 466 355 485 344 502 330 C 518 316 532 298 543 277 C 553 255 559 230 559 201 C 559 140 537 91 493 55 C 449 18 391 0 320 0 L 97 0 Z M 183 405 L 294 405 C 319 405 340 408 358 416 C 376 424 390 434 401 446 C 411 458 419 473 424 489 C 429 505 432 521 432 538 C 432 572 419 599 395 621 C 370 643 337 654 295 654 L 183 654 L 183 405 Z M 184 76 L 321 76 C 371 76 408 89 432 115 C 455 141 467 173 467 210 C 467 246 452 275 424 298 C 396 320 361 332 319 332 L 184 332 L 184 76 Z" unicode="B" />
<glyph horiz-adv-x="730" d="M 409 -12 C 360 -12 314 -3 270 14 C 226 31 188 56 155 88 C 122 120 96 160 77 207 C 57 253 48 306 48 365 C 48 419 57 469 75 515 C 93 561 119 601 151 635 C 183 668 221 694 266 713 C 310 732 359 742 411 742 C 477 742 533 732 579 712 C 625 692 663 665 694 629 L 632 564 C 609 590 580 613 544 631 C 508 649 465 658 413 658 C 371 658 333 650 299 636 C 265 622 236 602 213 576 C 189 550 171 519 159 483 C 146 447 140 407 140 365 C 140 317 147 274 163 237 C 179 200 199 169 225 145 C 250 120 279 101 313 89 C 346 76 380 70 416 70 C 470 70 516 80 555 101 C 593 122 625 149 650 181 L 709 127 C 679 87 639 54 587 28 C 535 1 476 -12 409 -12 Z" unicode="C" />
<glyph horiz-adv-x="747" d="M 97 0 L 97 730 L 311 730 C 371 730 425 721 473 705 C 521 688 562 664 595 634 C 628 604 653 567 671 523 C 689 479 698 431 698 379 C 698 325 689 275 672 229 C 654 183 629 143 596 109 C 562 75 520 48 470 29 C 420 9 362 0 296 0 L 97 0 Z M 187 76 L 293 76 C 345 76 391 83 430 99 C 469 114 501 135 527 162 C 553 189 572 221 585 258 C 597 295 604 335 604 377 C 604 459 577 526 524 577 C 471 627 399 653 307 653 L 187 653 L 187 76 Z" unicode="D" />
<glyph horiz-adv-x="582" d="M 526 0 L 97 0 L 97 730 L 507 730 L 507 650 L 186 650 L 186 402 L 493 402 L 493 323 L 186 323 L 186 80 L 526 80 L 526 0 Z" unicode="E" />
<glyph horiz-adv-x="517" d="M 474 650 L 187 650 L 187 405 L 459 405 L 459 326 L 187 326 L 187 0 L 97 0 L 97 730 L 474 730 L 474 650 Z" unicode="F" />
<glyph horiz-adv-x="785" d="M 426 363 L 734 363 L 734 152 C 705 102 663 62 608 32 C 552 2 489 -12 418 -12 C 366 -12 317 -2 272 15 C 227 33 188 59 155 92 C 121 125 95 165 76 212 C 57 258 48 309 48 365 C 48 422 58 474 78 521 C 98 567 124 607 158 640 C 192 672 231 697 277 715 C 322 733 370 742 420 742 C 491 742 548 730 591 708 C 633 686 666 662 689 638 L 630 574 C 609 595 582 614 548 632 C 514 649 470 658 416 658 C 377 658 341 651 307 637 C 273 623 243 604 219 579 C 194 553 174 523 160 487 C 146 451 139 410 139 366 C 139 323 146 283 161 246 C 175 209 195 177 220 151 C 245 124 275 103 310 88 C 344 72 381 65 421 65 C 473 65 519 75 561 96 C 603 116 633 145 653 181 L 653 283 L 426 283 L 426 363 Z" unicode="G" />
<glyph horiz-adv-x="762" d="M 665 0 L 575 0 L 575 320 L 187 320 L 187 0 L 97 0 L 97 730 L 187 730 L 187 401 L 575 401 L 575 730 L 665 730 L 665 0 Z" unicode="H" />
<glyph horiz-adv-x="293" d="M 192 0 L 102 0 L 102 730 L 192 730 L 192 0 Z" unicode="I" />
<glyph horiz-adv-x="405" d="M 324 730 L 324 192 C 324 165 319 139 311 114 C 302 89 289 67 272 49 C 254 31 232 16 206 5 C 180 -6 150 -12 116 -12 C 99 -12 81 -10 62 -8 C 43 -6 28 -2 18 3 L 36 78 C 42 75 53 72 67 70 C 81 68 95 67 108 67 C 149 67 181 78 203 102 C 225 126 237 154 237 188 L 237 730 L 324 730 Z" unicode="J" />
<glyph horiz-adv-x="679" d="M 665 0 L 552 0 L 290 337 L 187 212 L 187 0 L 97 0 L 97 730 L 187 730 L 187 322 L 518 730 L 623 730 L 351 403 L 665 0 Z" unicode="K" />
<glyph horiz-adv-x="512" d="M 502 0 L 97 0 L 97 730 L 187 730 L 187 80 L 502 80 L 502 0 Z" unicode="L" />
<glyph horiz-adv-x="912" d="M 815 0 L 730 0 L 730 552 L 474 177 L 438 177 L 181 549 L 181 0 L 97 0 L 97 730 L 156 730 L 459 289 L 756 730 L 815 730 L 815 0 Z" unicode="M" />
<glyph horiz-adv-x="786" d="M 689 0 L 626 0 L 182 570 L 182 0 L 97 0 L 97 730 L 166 730 L 605 163 L 605 730 L 689 730 L 689 0 Z" unicode="N" />
<glyph horiz-adv-x="844" d="M 425 -12 C 369 -12 318 -2 272 16 C 225 35 185 62 152 96 C 119 130 93 170 75 217 C 57 264 48 315 48 370 C 48 422 57 471 76 517 C 95 563 121 602 154 635 C 187 668 226 694 272 713 C 317 732 365 742 417 742 C 472 742 523 732 570 714 C 616 695 656 669 690 637 C 723 604 749 564 768 518 C 786 472 796 421 796 367 C 796 311 786 260 766 214 C 746 167 720 127 686 94 C 652 60 613 34 568 16 C 522 -2 475 -12 425 -12 Z M 428 69 C 466 69 503 76 537 90 C 571 104 600 123 625 149 C 649 175 669 206 683 243 C 697 280 705 322 705 368 C 705 410 697 449 683 485 C 668 521 648 551 622 577 C 596 603 566 623 531 637 C 495 651 457 659 416 659 C 376 659 339 652 305 638 C 271 624 242 605 218 580 C 193 555 174 525 160 489 C 146 453 140 413 140 369 C 140 323 147 281 163 244 C 178 206 199 175 225 149 C 251 123 281 104 316 90 C 351 76 388 69 428 69 Z" unicode="O" />
<glyph horiz-adv-x="598" d="M 97 0 L 97 730 L 338 730 C 371 730 402 725 430 716 C 458 706 482 693 502 675 C 522 657 538 634 550 608 C 561 582 567 552 567 519 C 567 487 561 457 551 430 C 540 402 525 379 505 359 C 485 339 462 324 434 313 C 406 301 376 296 343 296 L 187 296 L 187 0 L 97 0 Z M 186 373 L 328 373 C 376 373 412 386 438 414 C 463 442 476 477 476 520 C 476 564 460 597 430 619 C 400 641 363 653 319 653 L 186 653 L 186 373 Z" unicode="P" />
<glyph horiz-adv-x="838" d="M 707 -91 L 707 -174 C 638 -173 577 -157 523 -127 C 469 -96 430 -57 406 -9 C 352 -7 303 3 259 23 C 215 43 177 69 146 102 C 115 135 91 174 74 220 C 56 266 48 316 48 370 C 48 422 57 470 76 516 C 95 562 121 601 154 635 C 186 668 225 694 271 713 C 316 732 365 742 418 742 C 473 742 524 732 570 714 C 616 696 656 670 690 637 C 723 604 749 564 768 518 C 786 472 796 421 796 365 C 796 319 788 276 774 236 C 760 195 740 159 715 127 C 690 95 660 68 625 46 C 589 24 551 8 509 0 C 528 -28 556 -50 592 -66 C 628 -82 667 -90 707 -91 Z M 426 70 C 465 70 502 77 536 91 C 570 105 599 124 624 150 C 648 175 668 206 682 243 C 696 280 704 322 704 368 C 704 412 696 452 681 488 C 666 524 646 554 620 580 C 594 605 563 624 528 638 C 493 652 456 659 416 659 C 376 659 339 652 305 639 C 271 625 242 606 218 581 C 193 556 174 526 160 490 C 146 454 140 414 140 370 C 140 323 147 281 163 244 C 178 206 199 175 225 149 C 251 123 281 104 316 90 C 351 76 388 70 426 70 Z" unicode="Q" />
<glyph horiz-adv-x="611" d="M 97 0 L 97 730 L 309 730 C 371 730 421 712 461 677 C 500 641 520 594 520 534 C 520 502 515 474 505 450 C 495 425 483 404 467 387 C 451 370 434 357 414 347 C 394 337 373 332 352 330 L 349 327 L 578 0 L 472 0 L 261 308 L 186 308 L 186 0 L 97 0 Z M 186 383 L 285 383 C 327 383 361 395 388 419 C 415 443 429 478 429 523 C 429 561 416 592 392 616 C 367 640 334 653 292 653 L 186 653 L 186 383 Z" unicode="R" />
<glyph horiz-adv-x="547" d="M 282 -12 C 227 -12 179 -3 137 12 C 95 28 61 51 35 79 L 91 148 C 111 123 139 103 174 88 C 208 73 244 66 281 66 C 319 66 351 76 377 97 C 403 118 416 145 416 179 C 416 209 404 236 382 259 C 360 282 320 306 264 330 C 193 359 141 390 108 422 C 75 454 59 500 59 560 C 59 614 78 657 116 691 C 154 725 205 742 269 742 C 313 742 353 734 387 720 C 421 706 451 688 477 667 L 429 594 C 406 614 381 630 354 642 C 326 654 298 660 269 660 C 231 660 201 650 179 631 C 157 611 146 587 146 559 C 146 525 158 498 182 478 C 206 457 249 433 312 407 C 383 377 433 345 461 312 C 489 278 504 236 504 184 C 504 153 498 125 486 101 C 474 77 458 56 438 40 C 418 23 394 10 367 1 C 340 -7 312 -12 282 -12 Z" unicode="S" />
<glyph horiz-adv-x="537" d="M 527 650 L 310 650 L 310 0 L 220 0 L 220 650 L 10 650 L 10 730 L 527 730 L 527 650 Z" unicode="T" />
<glyph horiz-adv-x="749" d="M 658 730 L 658 266 C 658 222 650 183 635 149 C 620 114 600 85 575 61 C 549 37 519 19 485 7 C 450 -5 413 -12 374 -12 C 335 -12 298 -6 264 6 C 229 18 199 35 174 59 C 148 83 128 112 113 147 C 98 181 91 221 91 266 L 91 730 L 178 730 L 178 262 C 178 233 183 207 193 183 C 203 159 217 139 235 123 C 253 106 273 93 297 84 C 320 74 345 70 372 70 C 398 70 424 74 448 83 C 472 91 494 104 512 121 C 530 137 544 157 555 181 C 565 205 571 232 571 262 L 571 730 L 658 730 Z" unicode="U" />
<glyph horiz-adv-x="661" d="M 659 730 L 354 -6 L 298 -6 L 3 730 L 99 730 L 329 144 L 566 730 L 659 730 Z" unicode="V" />
<glyph horiz-adv-x="928" d="M 919 730 L 694 -7 L 643 -7 L 466 567 L 281 -7 L 230 -7 L 10 730 L 101 730 L 263 172 L 443 730 L 494 730 L 672 171 L 835 730 L 919 730 Z" unicode="W" />
<glyph horiz-adv-x="612" d="M 498 0 L 305 302 L 111 0 L 14 0 L 257 377 L 32 730 L 134 730 L 308 457 L 484 730 L 580 730 L 356 381 L 599 0 L 498 0 Z" unicode="X" />
<glyph horiz-adv-x="651" d="M 649 730 L 368 320 L 368 0 L 278 0 L 278 324 L 2 730 L 103 730 L 328 403 L 553 730 L 649 730 Z" unicode="Y" />
<glyph horiz-adv-x="588" d="M 551 730 L 551 692 L 142 80 L 565 80 L 565 0 L 18 0 L 18 37 L 425 650 L 52 650 L 52 730 L 551 730 Z" unicode="Z" />
<glyph horiz-adv-x="316" d="M 274 -179 L 86 -179 L 86 730 L 274 730 L 274 662 L 165 662 L 165 -109 L 274 -109 L 274 -179 Z" unicode="[" />
<glyph horiz-adv-x="318" d="M 4 730 L 79 730 L 314 0 L 237 0 L 4 730 Z" unicode="\" />
<glyph horiz-adv-x="306" d="M 226 -179 L 42 -179 L 42 -111 L 147 -111 L 147 662 L 42 662 L 42 730 L 226 730 L 226 -179 Z" unicode="]" />
<glyph horiz-adv-x="511" d="M 436 369 L 362 369 L 253 639 L 150 369 L 78 369 L 218 730 L 289 730 L 436 369 Z" unicode="^" />
<glyph horiz-adv-x="500" d="M 500 -158 L 0 -158 L 0 -86 L 500 -86 L 500 -158 Z" unicode="_" />
<glyph horiz-adv-x="500" d="M 345 542 L 261 542 L 140 706 L 238 706 L 345 542 Z" unicode="`" />
<glyph horiz-adv-x="532" d="M 467 0 L 387 0 L 387 68 C 370 46 346 28 316 13 C 286 -2 250 -10 209 -10 C 153 -10 109 3 78 31 C 47 58 32 94 32 140 C 32 192 52 232 93 261 C 133 290 189 307 261 311 L 385 318 L 385 328 C 385 362 374 387 352 404 C 330 420 302 429 266 429 C 233 429 203 423 175 412 C 147 401 123 389 105 377 L 70 437 C 90 453 118 467 153 480 C 188 492 229 499 275 499 C 331 499 377 485 413 458 C 449 430 467 387 467 327 L 467 0 Z M 386 126 L 386 254 L 259 248 C 217 245 183 235 157 219 C 131 202 118 178 118 146 C 118 118 128 96 149 81 C 169 65 196 58 230 58 C 262 58 293 64 322 78 C 351 92 372 108 386 126 Z" unicode="a" />
<glyph horiz-adv-x="600" d="M 342 -7 C 291 -7 250 4 219 28 C 187 52 167 79 157 111 L 157 0 L 77 0 L 77 765 L 156 765 L 156 373 C 165 405 186 434 218 459 C 250 484 292 497 342 497 C 375 497 405 491 433 479 C 460 467 483 450 503 428 C 522 406 537 381 548 351 C 558 321 564 288 564 253 C 564 213 558 177 546 145 C 534 113 518 85 498 63 C 478 41 454 23 427 11 C 400 0 372 -7 342 -7 Z M 320 60 C 366 60 403 77 433 112 C 462 147 477 192 477 246 C 477 298 463 342 436 377 C 409 412 370 430 318 430 C 296 430 276 426 256 418 C 236 410 219 398 205 382 C 190 366 178 346 170 322 C 161 298 157 271 157 241 C 157 183 173 139 205 107 C 237 75 275 60 320 60 Z" unicode="b" />
<glyph horiz-adv-x="525" d="M 438 149 L 506 107 C 497 93 486 79 474 65 C 461 51 446 38 429 27 C 411 15 391 6 368 0 C 344 -7 318 -11 288 -11 C 250 -11 216 -4 185 8 C 154 20 128 38 106 60 C 84 82 66 109 54 141 C 42 172 36 206 36 242 C 36 278 42 311 55 343 C 68 374 86 401 109 424 C 131 447 158 465 190 479 C 221 492 255 499 291 499 C 320 499 346 495 370 488 C 393 480 413 471 431 460 C 449 448 464 435 476 420 C 488 405 497 390 504 376 L 429 340 C 417 362 399 382 377 399 C 355 415 325 424 289 424 C 264 424 241 419 221 409 C 201 399 183 386 169 370 C 154 354 143 335 135 313 C 127 291 123 267 123 243 C 123 191 138 149 168 115 C 198 81 239 64 290 64 C 332 64 364 73 387 92 C 409 111 426 130 438 149 Z" unicode="c" />
<glyph horiz-adv-x="599" d="M 264 -9 C 230 -9 199 -2 171 9 C 143 21 119 38 99 60 C 79 82 63 108 52 139 C 41 169 36 203 36 239 C 36 276 42 311 54 343 C 66 375 83 402 104 425 C 125 448 150 466 178 479 C 206 492 237 499 269 499 C 311 499 347 488 378 466 C 408 444 429 419 440 391 L 440 765 L 522 765 L 522 0 L 444 0 L 444 114 C 440 100 432 85 422 71 C 412 57 399 44 384 32 C 368 20 350 10 330 2 C 310 -5 288 -9 264 -9 Z M 283 59 C 328 59 366 76 396 112 C 426 147 442 192 442 248 C 442 278 437 304 428 327 C 419 349 407 368 393 384 C 378 399 361 410 342 418 C 323 426 303 430 283 430 C 235 430 196 412 167 378 C 137 344 123 299 123 244 C 123 218 126 193 133 171 C 140 148 150 128 164 112 C 178 96 195 83 215 73 C 235 63 257 59 283 59 Z" unicode="d" />
<glyph horiz-adv-x="563" d="M 296 -11 C 258 -11 224 -5 192 6 C 160 17 133 33 110 55 C 87 77 69 103 56 135 C 43 166 37 202 37 242 C 37 277 43 310 56 342 C 68 373 86 400 108 423 C 130 446 157 464 188 478 C 219 492 253 499 290 499 C 362 499 420 474 466 425 C 511 375 534 306 534 218 L 118 218 C 120 172 136 135 168 106 C 199 76 241 62 295 62 C 339 62 373 69 398 83 C 422 97 442 112 458 130 L 510 76 C 488 52 461 31 429 14 C 397 -2 352 -11 296 -11 Z M 119 282 L 450 282 C 449 322 434 356 404 385 C 374 413 335 428 287 428 C 263 428 241 424 221 416 C 201 408 183 397 169 384 C 155 370 143 355 135 337 C 126 319 121 301 119 282 Z" unicode="e" />
<glyph horiz-adv-x="329" d="M 319 413 L 197 413 L 197 0 L 113 0 L 113 413 L 16 413 L 16 486 L 113 486 L 113 605 C 113 631 117 655 125 676 C 133 696 144 713 158 727 C 172 741 187 751 205 758 C 223 765 241 769 261 769 C 277 769 292 767 306 764 C 319 761 330 757 339 753 L 327 678 C 321 680 313 683 304 685 C 294 687 284 688 274 688 C 253 688 235 679 220 662 C 204 644 197 622 197 594 L 197 486 L 319 486 L 319 413 Z" unicode="f" />
<glyph horiz-adv-x="596" d="M 263 -1 C 229 -1 199 5 171 17 C 143 29 119 46 99 68 C 79 90 64 116 53 146 C 42 176 37 209 37 245 C 37 282 42 316 54 347 C 65 378 81 405 101 427 C 121 449 145 467 173 479 C 201 491 232 498 266 498 C 309 498 347 487 379 465 C 411 443 433 417 444 387 L 444 486 L 522 486 L 522 54 C 522 10 514 -27 499 -59 C 484 -91 465 -117 441 -137 C 417 -157 389 -172 358 -182 C 327 -192 296 -197 264 -197 C 214 -197 175 -192 147 -183 C 119 -173 97 -164 83 -156 L 118 -89 C 128 -96 145 -104 169 -114 C 193 -123 222 -128 256 -128 C 280 -128 304 -124 326 -117 C 348 -110 368 -100 385 -86 C 401 -72 415 -54 425 -32 C 435 -10 440 14 440 43 L 440 121 C 435 106 427 91 417 77 C 406 62 393 49 378 38 C 363 26 346 17 326 10 C 306 2 285 -1 263 -1 Z M 285 65 C 305 65 324 69 343 77 C 362 85 379 97 393 113 C 407 129 419 148 428 172 C 437 195 442 221 442 251 C 442 305 426 347 395 379 C 363 411 326 427 282 427 C 236 427 198 410 168 376 C 138 342 123 298 123 243 C 123 189 137 145 166 113 C 195 81 235 65 285 65 Z" unicode="g" />
<glyph horiz-adv-x="580" d="M 509 0 L 426 0 L 426 323 C 426 356 414 382 391 401 C 368 419 340 429 306 429 C 288 429 271 426 253 420 C 235 414 220 406 206 395 C 192 384 181 370 173 354 C 165 337 161 317 161 295 L 161 0 L 77 0 L 77 765 L 155 765 L 155 388 C 163 418 184 444 216 466 C 248 488 288 499 335 499 C 383 499 424 485 458 458 C 492 430 509 392 509 342 L 509 0 Z" unicode="h" />
<glyph horiz-adv-x="246" d="M 79 600 L 79 693 L 167 693 L 167 600 L 79 600 Z M 81 0 L 81 486 L 165 486 L 165 0 L 81 0 Z" unicode="i" />
<glyph horiz-adv-x="260" d="M 188 600 L 100 600 L 100 693 L 188 693 L 188 600 Z M 186 486 L 186 -43 C 186 -92 172 -131 145 -159 C 118 -187 85 -202 46 -202 C 31 -202 15 -200 -1 -197 C -17 -194 -31 -190 -42 -185 L -27 -116 C -20 -119 -11 -122 -1 -124 C 8 -126 20 -128 32 -128 C 50 -128 67 -119 81 -103 C 95 -87 102 -64 102 -35 L 102 486 L 186 486 Z" unicode="j" />
<glyph horiz-adv-x="527" d="M 543 1 L 445 0 L 259 230 L 161 125 L 161 0 L 77 0 L 77 765 L 159 765 L 159 215 L 403 486 L 497 486 L 314 288 L 543 1 Z" unicode="k" />
<glyph horiz-adv-x="241" d="M 162 765 L 162 0 L 78 0 L 78 765 L 162 765 Z" unicode="l" />
<glyph horiz-adv-x="921" d="M 77 0 L 77 486 L 155 486 L 155 387 C 165 419 187 446 221 467 C 255 488 293 499 335 499 C 375 499 410 488 440 468 C 470 448 487 421 493 387 L 497 387 C 505 419 526 446 560 467 C 594 488 632 499 674 499 C 726 499 768 485 801 457 C 833 429 850 391 850 343 L 850 0 L 767 0 L 767 323 C 767 357 755 383 733 401 C 711 419 682 429 648 429 C 631 429 614 426 597 420 C 580 414 565 406 552 395 C 538 384 527 370 519 353 C 510 336 506 316 506 294 L 506 0 L 422 0 L 422 326 C 422 356 411 381 389 400 C 367 419 338 429 302 429 C 284 429 267 426 250 420 C 233 414 218 405 205 394 C 191 382 181 368 173 351 C 165 334 161 314 161 292 L 161 0 L 77 0 Z" unicode="m" />
<glyph horiz-adv-x="580" d="M 509 0 L 426 0 L 426 326 C 426 358 414 383 391 401 C 368 419 340 429 306 429 C 288 429 271 426 254 421 C 236 415 221 407 207 396 C 193 384 182 370 174 353 C 165 336 161 316 161 293 L 161 0 L 77 0 L 77 486 L 154 486 L 154 386 C 165 418 187 445 220 467 C 253 488 291 499 334 499 C 383 499 424 485 458 457 C 492 429 509 392 509 346 L 509 0 Z" unicode="n" />
<glyph horiz-adv-x="587" d="M 290 -11 C 257 -11 225 -5 195 6 C 164 18 137 34 114 56 C 90 78 71 104 57 136 C 43 167 36 202 36 241 C 36 276 42 309 56 341 C 70 373 88 400 111 423 C 134 446 161 464 192 478 C 223 492 256 499 290 499 C 326 499 359 493 391 481 C 423 469 450 452 474 431 C 498 409 516 384 530 354 C 544 324 551 291 551 255 C 551 217 544 181 530 149 C 516 116 498 88 475 64 C 451 40 424 22 392 9 C 360 -4 326 -11 290 -11 Z M 294 63 C 344 63 384 80 416 116 C 448 151 464 195 464 249 C 464 297 448 339 416 373 C 384 407 341 425 287 425 C 240 425 201 407 170 372 C 138 337 123 294 123 242 C 123 186 139 143 172 111 C 205 79 246 63 294 63 Z" unicode="o" />
<glyph horiz-adv-x="600" d="M 77 -197 L 77 486 L 155 486 L 155 369 C 164 403 185 432 218 458 C 251 484 293 497 343 497 C 409 497 462 474 503 429 C 543 383 564 324 564 251 C 564 211 558 176 546 144 C 534 112 517 84 497 62 C 477 40 453 23 427 11 C 400 -1 372 -7 343 -7 C 296 -7 256 4 224 27 C 191 49 170 76 160 107 L 160 -197 L 77 -197 Z M 323 61 C 367 61 403 78 433 112 C 462 146 477 190 477 246 C 477 298 463 341 436 376 C 409 411 370 429 320 429 C 274 429 236 413 205 381 C 173 349 158 302 158 240 C 158 209 162 182 171 160 C 180 138 192 119 207 105 C 222 90 240 79 260 72 C 280 64 301 61 323 61 Z" unicode="p" />
<glyph horiz-adv-x="599" d="M 439 -197 L 439 111 C 433 97 424 82 414 68 C 404 54 391 41 376 30 C 361 18 344 9 325 2 C 305 -5 284 -9 261 -9 C 227 -9 197 -2 169 9 C 141 21 118 38 98 60 C 78 82 63 108 53 138 C 42 168 37 200 37 236 C 37 274 43 310 55 342 C 67 374 84 402 105 425 C 125 448 150 466 178 479 C 206 491 236 498 268 498 C 290 498 311 494 331 488 C 350 481 367 472 383 461 C 398 450 411 438 421 424 C 431 410 439 397 443 383 L 443 486 L 522 486 L 522 -197 L 439 -197 Z M 284 59 C 304 59 324 63 344 72 C 363 81 380 94 394 110 C 408 126 420 145 429 169 C 437 193 442 219 442 248 C 442 277 437 303 429 326 C 420 348 408 367 394 383 C 379 398 362 409 343 417 C 323 425 303 429 282 429 C 233 429 194 412 166 378 C 137 344 123 300 123 246 C 123 192 137 147 165 112 C 193 76 233 59 284 59 Z" unicode="q" />
<glyph horiz-adv-x="425" d="M 425 469 L 386 395 C 374 405 360 412 344 417 C 328 422 312 425 295 425 C 278 425 262 421 246 414 C 230 407 215 397 203 385 C 190 373 180 358 172 340 C 164 322 161 303 161 283 L 161 0 L 77 0 L 77 486 L 155 486 L 155 379 C 158 393 164 407 174 421 C 184 435 196 448 210 460 C 224 471 241 480 260 487 C 279 494 300 498 323 498 C 345 498 365 495 383 490 C 400 484 414 477 425 469 Z" unicode="r" />
<glyph horiz-adv-x="439" d="M 234 -11 C 189 -11 150 -5 118 6 C 85 17 57 32 35 52 L 75 110 C 93 94 116 82 144 72 C 172 62 201 57 232 57 C 258 57 279 63 297 77 C 314 91 323 108 323 130 C 323 148 314 164 297 178 C 279 192 247 205 201 219 C 147 234 108 254 85 278 C 62 302 51 331 51 366 C 51 405 67 437 100 461 C 132 485 173 498 221 498 C 263 498 298 492 326 481 C 354 469 375 458 391 446 L 355 387 C 338 397 319 407 297 417 C 275 426 250 431 224 431 C 200 431 179 425 161 415 C 142 404 133 389 133 371 C 133 362 134 354 136 348 C 138 341 143 334 151 328 C 159 322 170 316 185 310 C 199 304 219 297 244 290 C 300 273 340 253 366 229 C 392 205 405 174 405 136 C 405 91 388 55 356 29 C 323 2 282 -11 234 -11 Z" unicode="s" />
<glyph horiz-adv-x="312" d="M 290 79 L 297 10 C 290 5 279 1 265 -1 C 251 -4 236 -6 220 -6 C 202 -6 185 -3 169 1 C 153 5 138 13 126 23 C 114 33 104 47 96 64 C 88 80 85 101 85 126 L 85 414 L 12 414 L 12 486 L 85 486 L 85 607 L 169 618 L 169 486 L 285 486 L 285 414 L 169 414 L 169 135 C 169 111 174 93 186 82 C 198 71 214 66 235 66 C 245 66 256 67 267 70 C 277 73 285 76 290 79 Z" unicode="t" />
<glyph horiz-adv-x="580" d="M 71 486 L 154 486 L 154 177 C 154 135 166 105 190 86 C 214 67 244 58 281 58 C 317 58 349 69 377 93 C 405 117 419 150 419 192 L 419 486 L 503 486 L 503 0 L 424 0 L 424 100 C 413 70 392 44 361 22 C 329 0 292 -11 248 -11 C 198 -11 156 3 122 31 C 88 59 71 100 71 155 L 71 486 Z" unicode="u" />
<glyph horiz-adv-x="500" d="M 503 486 L 272 -3 L 222 -3 L -4 486 L 88 486 L 251 121 L 416 486 L 503 486 Z" unicode="v" />
<glyph horiz-adv-x="716" d="M 488 -3 L 363 314 L 227 -3 L 178 -3 L 6 486 L 94 486 L 214 124 L 341 432 L 391 432 L 510 125 L 630 486 L 710 486 L 537 -3 L 488 -3 Z" unicode="w" />
<glyph horiz-adv-x="450" d="M 353 0 L 223 190 L 89 0 L 4 0 L 181 252 L 21 486 L 113 486 L 227 318 L 345 486 L 431 486 L 270 257 L 445 0 L 353 0 Z" unicode="x" />
<glyph horiz-adv-x="506" d="M 507 486 L 235 -85 C 213 -131 187 -162 158 -177 C 129 -192 102 -200 77 -200 C 62 -200 49 -198 39 -195 C 29 -192 21 -190 17 -188 L 41 -112 C 44 -114 49 -116 57 -118 C 65 -120 73 -121 81 -121 C 97 -121 113 -115 127 -105 C 141 -94 155 -74 169 -46 L 208 32 L -3 486 L 88 486 L 252 119 L 420 486 L 507 486 Z" unicode="y" />
<glyph horiz-adv-x="431" d="M 404 486 L 404 447 L 139 74 L 420 74 L 420 0 L 16 0 L 16 31 L 285 412 L 29 412 L 29 486 L 404 486 Z" unicode="z" />
<glyph horiz-adv-x="301" d="M 280 -179 C 218 -176 167 -160 127 -130 C 87 -100 66 -64 66 -21 C 65 3 67 25 72 45 C 77 65 83 82 90 97 C 96 112 103 127 109 141 C 115 155 117 169 117 182 C 117 200 108 216 91 231 C 73 246 49 254 19 254 L 19 316 C 49 316 74 325 92 341 C 110 357 119 375 120 396 C 120 400 117 410 111 426 C 105 441 98 457 90 475 C 82 493 76 510 72 528 C 68 545 66 562 66 579 C 66 600 72 621 82 641 C 92 661 107 678 126 694 C 144 710 167 722 193 732 C 219 742 248 747 280 749 L 280 688 C 242 686 211 674 188 652 C 164 630 152 604 152 574 C 152 564 153 553 155 540 C 157 526 162 513 168 499 C 176 480 184 462 192 446 C 199 429 202 414 202 402 C 201 374 192 349 176 328 C 160 306 134 292 98 285 C 134 278 160 264 176 242 C 192 220 201 197 202 173 C 202 154 198 138 192 124 C 186 110 179 96 173 82 C 166 68 161 53 157 38 C 153 23 151 9 151 -4 C 151 -16 155 -29 161 -42 C 167 -55 175 -67 186 -78 C 197 -89 211 -98 227 -106 C 243 -113 260 -117 280 -118 L 280 -179 Z" unicode="{" />
<glyph horiz-adv-x="257" d="M 168 -179 L 89 -179 L 89 730 L 168 730 L 168 -179 Z" unicode="|" />
<glyph horiz-adv-x="301" d="M 21 -179 L 21 -118 C 40 -117 58 -113 74 -106 C 90 -98 103 -89 114 -78 C 124 -67 133 -55 139 -42 C 145 -29 149 -16 150 -4 C 150 9 148 23 144 38 C 140 53 134 68 128 82 C 121 96 114 110 108 124 C 102 138 99 154 99 173 C 99 197 108 220 124 242 C 140 264 167 278 203 285 C 167 292 140 306 124 328 C 108 349 99 374 99 402 C 98 414 101 429 109 446 C 116 462 124 480 133 499 C 139 513 143 526 145 539 C 147 552 149 564 149 574 C 148 604 136 630 113 652 C 89 674 59 686 21 688 L 21 749 C 53 747 82 742 108 732 C 134 722 156 710 175 694 C 193 678 208 661 218 641 C 228 621 234 600 235 579 C 235 562 232 545 228 528 C 224 510 218 493 211 475 C 203 457 196 441 190 426 C 184 410 181 400 181 396 C 181 375 191 357 209 341 C 227 325 251 316 282 316 L 282 254 C 251 254 227 246 210 231 C 193 216 184 200 184 182 C 183 169 186 155 192 141 C 198 127 204 112 211 97 C 217 82 223 65 228 45 C 233 25 235 3 235 -21 C 234 -64 214 -100 174 -130 C 134 -160 83 -176 21 -179 Z" unicode="}" />
<glyph horiz-adv-x="500" d="M 392 437 L 465 437 C 465 378 456 335 438 308 C 420 280 394 267 358 267 C 335 267 315 271 298 281 C 280 291 265 301 252 312 C 238 323 223 333 209 342 C 195 351 180 356 165 356 C 150 356 137 348 125 334 C 113 319 108 298 108 270 L 36 270 C 36 328 46 371 66 399 C 86 427 109 442 136 442 C 162 442 185 437 205 427 C 224 417 242 406 260 393 C 272 382 286 372 300 363 C 314 354 329 350 347 350 C 365 350 377 357 383 371 C 389 385 392 407 392 437 Z" unicode="~" />
<glyph horiz-adv-x="299" d="M 104 599 L 196 599 L 196 500 L 104 500 L 104 599 Z M 100 164 L 129 396 L 173 396 L 199 164 L 199 -123 L 100 -123 L 100 164 Z" unicode="¡" />
<glyph horiz-adv-x="573" d="M 553 210 C 543 196 532 183 520 169 C 508 155 493 143 477 131 C 460 119 441 109 419 101 C 397 93 373 88 346 86 L 346 -18 L 278 -18 L 278 88 C 210 96 154 125 112 174 C 69 222 48 282 48 354 C 48 389 53 422 65 454 C 76 485 92 513 112 537 C 132 561 157 581 185 597 C 213 613 244 623 278 628 L 278 726 L 346 726 L 346 630 C 398 626 442 610 477 584 C 512 558 537 529 552 498 L 483 466 C 470 488 452 507 429 525 C 406 543 378 554 346 559 L 346 157 C 385 161 416 173 438 193 C 460 213 478 234 491 254 L 553 210 Z M 130 358 C 130 308 143 264 170 228 C 196 192 232 169 278 160 L 278 557 C 234 547 198 523 171 486 C 143 448 130 406 130 358 Z" unicode="¢" />
<glyph horiz-adv-x="598" d="M 586 70 L 586 0 L 26 0 L 26 51 C 32 53 41 56 54 59 C 66 61 84 65 107 69 C 120 71 134 74 148 80 C 162 86 174 93 186 103 C 197 112 206 123 213 136 C 220 149 224 164 224 181 C 224 187 223 193 222 199 C 220 205 219 211 217 218 L 38 218 L 38 279 L 185 279 C 177 291 168 304 160 318 C 151 331 142 345 134 360 L 38 360 L 38 420 L 104 420 C 96 438 90 458 85 478 C 80 498 78 520 78 543 C 78 580 85 611 99 637 C 113 663 131 683 155 699 C 178 714 205 725 236 732 C 266 738 298 742 332 742 C 388 742 438 732 484 714 C 530 696 563 678 584 662 L 538 595 C 519 608 491 623 455 639 C 418 655 378 664 334 664 C 312 664 291 661 271 657 C 251 653 233 645 218 635 C 202 625 190 611 181 593 C 171 575 167 554 167 528 C 167 509 169 491 175 473 C 181 455 188 437 197 420 L 501 420 L 501 360 L 231 360 C 239 346 248 332 256 318 C 264 304 271 291 278 279 L 501 279 L 501 218 L 298 218 C 298 216 299 214 299 212 C 299 210 299 209 299 207 C 299 185 295 167 287 151 C 279 135 270 121 259 110 C 248 99 236 90 223 84 C 209 77 197 72 187 70 L 586 70 Z" unicode="£" />
<glyph horiz-adv-x="502" d="M 440 188 L 402 150 L 343 211 C 329 203 315 196 299 192 C 283 188 266 186 250 186 C 233 186 216 188 200 192 C 184 196 169 203 156 212 L 97 150 L 58 190 L 113 248 C 101 262 91 279 84 297 C 77 315 74 334 74 354 C 74 374 77 394 84 412 C 91 430 101 446 114 461 L 57 519 L 96 557 L 155 495 C 168 503 183 510 199 515 C 215 519 232 522 250 522 C 267 522 284 519 300 515 C 316 510 332 503 346 495 L 407 558 L 445 519 L 387 459 C 399 444 408 428 415 410 C 421 392 425 374 425 354 C 425 333 421 313 414 295 C 406 277 396 260 384 246 L 440 188 Z M 250 247 C 280 247 307 257 330 279 C 352 300 364 325 364 354 C 364 382 352 407 330 429 C 307 450 280 461 250 461 C 218 461 191 450 169 429 C 147 407 136 382 136 354 C 136 325 147 300 169 279 C 191 257 218 247 250 247 Z" unicode="¤" />
<glyph horiz-adv-x="647" d="M 559 144 L 364 144 L 364 0 L 274 0 L 274 144 L 83 144 L 83 206 L 274 206 L 274 269 L 83 269 L 83 331 L 274 331 L 274 336 L 35 730 L 135 730 L 324 413 L 513 730 L 608 730 L 364 332 L 364 331 L 559 331 L 559 269 L 364 269 L 364 206 L 559 206 L 559 144 Z" unicode="¥" />
<glyph horiz-adv-x="274" d="M 101 351 L 101 730 L 173 730 L 173 351 L 101 351 Z M 173 200 L 173 -179 L 101 -179 L 101 200 L 173 200 Z" unicode="¦" />
<glyph horiz-adv-x="676" d="M 356 -181 C 298 -181 243 -174 193 -160 C 143 -146 101 -128 67 -106 L 104 -36 C 136 -57 175 -75 221 -89 C 267 -103 311 -111 353 -111 C 391 -111 424 -102 450 -85 C 476 -67 490 -42 490 -10 C 490 18 479 40 458 56 C 437 71 410 85 378 98 L 241 153 C 211 165 184 177 161 188 C 137 198 118 210 102 223 C 86 235 75 250 67 267 C 59 283 55 304 55 328 C 55 359 63 385 79 405 C 95 425 115 441 138 454 C 117 465 102 481 93 501 C 84 521 80 545 80 575 C 80 601 86 625 98 646 C 110 666 128 684 150 698 C 172 712 198 723 228 731 C 258 738 290 742 325 742 C 387 742 438 733 478 716 C 518 699 552 681 582 662 L 544 598 C 512 618 479 635 445 651 C 411 667 370 675 322 675 C 279 675 243 666 213 648 C 183 630 168 606 168 575 C 168 554 175 536 189 522 C 203 507 224 495 253 485 L 435 415 C 495 393 540 370 572 346 C 604 322 620 288 620 244 C 620 206 607 177 582 157 C 557 137 530 123 500 117 C 507 113 515 107 525 100 C 534 92 543 83 551 73 C 559 63 566 50 572 36 C 578 22 581 6 581 -11 C 581 -37 575 -61 563 -82 C 551 -103 536 -121 516 -136 C 496 -150 472 -161 444 -169 C 416 -177 387 -181 356 -181 Z M 438 160 C 461 162 482 168 502 180 C 522 192 532 210 532 236 C 532 259 520 279 498 297 C 476 314 439 332 387 351 L 211 419 C 191 410 174 399 161 387 C 147 375 141 358 141 336 C 141 309 152 287 176 271 C 199 254 237 236 289 218 L 438 160 Z" unicode="§" />
<glyph horiz-adv-x="500" d="M 377 543 L 306 543 L 306 700 L 377 700 L 377 543 Z M 194 543 L 123 543 L 123 700 L 194 700 L 194 543 Z" unicode="¨" />
<glyph horiz-adv-x="844" d="M 422 -5 C 370 -5 322 4 276 24 C 230 44 191 70 157 104 C 123 138 97 177 77 223 C 57 268 48 316 48 368 C 48 419 57 467 77 513 C 97 559 123 598 157 632 C 191 666 230 692 276 712 C 322 732 370 742 422 742 C 473 742 521 732 567 712 C 613 692 652 666 686 632 C 720 598 746 559 766 513 C 786 467 796 419 796 368 C 796 316 786 268 766 223 C 746 177 720 138 686 104 C 652 70 613 44 567 24 C 521 4 473 -5 422 -5 Z M 422 50 C 465 50 506 58 545 75 C 583 91 617 114 645 143 C 673 171 696 205 713 244 C 729 282 738 323 738 367 C 738 410 729 451 713 490 C 696 529 673 563 645 592 C 617 621 583 644 545 661 C 506 678 465 687 422 687 C 378 687 337 678 299 661 C 260 644 226 621 198 592 C 169 563 146 529 130 490 C 113 451 105 410 105 367 C 105 323 113 282 130 244 C 146 205 169 171 198 143 C 226 114 260 91 299 75 C 337 58 378 50 422 50 Z M 595 238 C 579 213 556 192 527 176 C 498 159 463 151 422 151 C 396 151 370 155 346 165 C 321 175 299 189 280 207 C 261 225 246 248 234 275 C 222 302 217 333 217 369 C 217 403 222 433 232 461 C 242 489 257 512 275 532 C 293 552 314 567 338 578 C 362 588 389 594 417 594 C 461 594 496 586 524 572 C 552 557 574 538 590 515 L 530 472 C 519 486 505 499 488 509 C 470 519 447 524 419 524 C 383 524 353 509 329 479 C 305 449 293 411 293 367 C 293 343 296 321 304 303 C 311 284 321 268 333 256 C 345 243 358 233 374 227 C 390 220 406 217 423 217 C 447 217 469 222 489 233 C 509 244 525 258 537 276 L 595 238 Z" unicode="©" />
<glyph horiz-adv-x="475" d="M 424 305 L 357 305 L 357 366 C 340 344 317 328 288 316 C 258 304 227 299 193 299 C 145 299 108 310 80 334 C 52 357 39 390 39 432 C 39 478 57 513 94 537 C 131 561 181 575 243 579 L 355 586 L 355 593 C 355 619 345 639 325 653 C 305 667 279 674 245 674 C 216 674 189 669 164 660 C 139 651 117 640 97 628 L 70 687 C 92 702 118 715 149 726 C 180 737 216 743 256 743 C 307 743 348 731 378 707 C 408 683 424 645 424 593 L 424 305 Z M 355 422 L 355 529 L 237 522 C 201 520 172 513 149 501 C 125 489 114 468 114 439 C 114 415 123 396 143 383 C 162 369 187 363 218 363 C 244 363 270 368 295 378 C 320 388 340 403 355 422 Z M 439 179 L 45 179 L 45 249 L 439 249 L 439 179 Z" unicode="ª" />
<glyph horiz-adv-x="450" d="M 205 91 L 28 264 L 28 321 L 205 491 L 205 403 L 101 291 L 205 183 L 205 91 Z M 420 91 L 242 264 L 242 321 L 420 491 L 420 403 L 315 291 L 420 184 L 420 91 Z" unicode="«" />
<glyph horiz-adv-x="500" d="M 451 381 L 451 131 L 380 131 L 380 308 L 31 308 L 31 381 L 451 381 Z" unicode="¬" />
<glyph horiz-adv-x="844" d="M 422 -5 C 370 -5 322 4 276 24 C 230 44 191 70 157 104 C 123 138 97 177 77 223 C 57 268 48 316 48 368 C 48 419 57 467 77 513 C 97 559 123 598 157 632 C 191 666 230 692 276 712 C 322 732 370 742 422 742 C 473 742 521 732 567 712 C 613 692 652 666 686 632 C 720 598 746 559 766 513 C 786 467 796 419 796 368 C 796 316 786 268 766 223 C 746 177 720 138 686 104 C 652 70 613 44 567 24 C 521 4 473 -5 422 -5 Z M 422 50 C 465 50 506 58 545 75 C 583 91 617 114 645 142 C 673 170 696 204 713 243 C 729 282 738 324 738 368 C 738 412 729 453 713 492 C 696 531 673 565 645 594 C 617 622 583 645 545 662 C 506 678 465 687 422 687 C 378 687 337 678 299 662 C 260 645 226 622 198 593 C 169 564 146 530 130 492 C 113 453 105 412 105 368 C 105 324 113 282 130 243 C 146 204 169 170 198 142 C 226 114 260 91 299 75 C 337 58 378 50 422 50 Z M 281 160 L 281 595 L 441 595 C 459 595 476 592 494 588 C 511 583 526 576 539 566 C 552 556 563 544 571 529 C 579 514 584 496 584 475 C 584 437 573 408 553 388 C 533 368 511 357 487 354 L 486 350 L 622 160 L 543 160 L 424 335 L 350 335 L 350 160 L 281 160 Z M 349 393 L 446 393 C 464 393 481 399 496 413 C 510 426 518 444 518 468 C 518 492 510 510 494 520 C 478 530 459 536 436 536 L 349 536 L 349 393 Z" unicode="®" />
<glyph horiz-adv-x="500" d="M 379 564 L 121 564 L 121 631 L 379 631 L 379 564 Z" unicode="¯" />
<glyph horiz-adv-x="436" d="M 218 366 C 192 366 167 371 144 381 C 121 391 101 404 85 421 C 68 437 55 457 45 480 C 35 503 30 528 30 554 C 30 580 35 604 45 627 C 55 650 68 670 85 687 C 101 703 121 717 144 727 C 167 737 192 742 218 742 C 244 742 268 737 291 727 C 314 717 334 703 351 687 C 367 670 381 650 391 627 C 401 604 406 580 406 554 C 406 528 401 503 391 480 C 381 457 367 437 351 421 C 334 404 314 391 291 381 C 268 371 244 366 218 366 Z M 218 434 C 250 434 279 445 303 469 C 327 493 340 521 340 554 C 340 586 327 615 303 639 C 279 663 250 675 218 675 C 185 675 156 663 132 639 C 108 615 96 586 96 554 C 96 521 108 493 132 469 C 156 445 185 434 218 434 Z" unicode="°" />
<glyph horiz-adv-x="500" d="M 474 299 L 286 299 L 286 114 L 215 114 L 215 299 L 26 299 L 26 363 L 215 363 L 215 548 L 286 548 L 286 363 L 474 363 L 474 299 Z M 468 26 L 34 26 L 34 88 L 468 88 L 468 26 Z" unicode="±" />
<glyph horiz-adv-x="332" d="M 304 372 L 24 372 L 24 399 L 187 555 C 193 561 200 570 208 581 C 215 592 219 605 219 620 C 219 635 213 649 202 661 C 191 673 175 679 153 679 C 128 679 110 671 100 656 C 89 641 83 624 83 605 L 18 605 C 18 641 30 672 55 700 C 79 727 114 741 160 741 C 204 741 237 730 259 710 C 281 689 293 664 293 635 C 293 608 288 586 278 568 C 268 550 257 536 246 526 L 144 432 L 304 432 L 304 372 Z" unicode="²" />
<glyph horiz-adv-x="346" d="M 225 569 C 253 565 275 554 291 537 C 307 520 315 500 315 477 C 315 464 312 451 307 438 C 302 424 294 412 282 401 C 270 390 255 381 235 374 C 215 367 190 364 161 364 C 120 364 88 368 65 378 C 42 388 24 398 11 408 L 51 449 C 62 442 76 435 94 429 C 112 423 133 420 158 420 C 190 420 214 426 228 439 C 242 452 249 468 249 487 C 249 507 240 521 223 528 C 206 534 186 538 164 538 L 92 538 L 92 591 L 159 591 C 181 591 198 595 212 603 C 225 611 232 623 232 639 C 232 652 226 663 214 671 C 202 679 184 683 160 683 C 139 683 120 679 102 671 C 84 663 71 653 63 643 L 23 682 C 36 696 54 710 76 723 C 98 735 129 742 170 742 C 211 742 243 733 266 716 C 288 699 300 678 300 652 C 300 630 292 611 278 597 C 263 583 245 573 225 569 Z" unicode="³" />
<glyph horiz-adv-x="500" d="M 156 546 L 262 710 L 361 710 L 240 546 L 156 546 Z" unicode="´" />
<glyph horiz-adv-x="591" d="M 77 -147 L 77 486 L 159 486 L 159 162 C 159 131 170 106 194 86 C 217 66 246 57 282 57 C 298 57 315 60 332 66 C 348 72 363 80 377 92 C 390 104 401 118 409 136 C 417 153 421 173 421 196 L 421 486 L 503 486 L 503 0 L 427 0 L 427 100 C 416 70 395 45 365 25 C 334 4 301 -6 265 -8 C 239 -8 216 -2 196 8 C 176 18 161 33 153 52 L 153 -147 L 77 -147 Z" unicode="µ" />
<glyph horiz-adv-x="688" d="M 610 -179 L 552 -179 L 552 664 L 433 664 L 433 -179 L 375 -179 L 375 247 L 266 247 C 235 247 205 253 176 266 C 147 279 122 296 100 318 C 78 339 60 364 47 393 C 33 422 27 453 27 485 C 27 519 33 552 46 582 C 58 612 76 637 98 659 C 120 681 148 698 180 711 C 212 723 247 730 286 730 L 610 730 L 610 -179 Z M 376 316 L 376 661 L 310 661 C 258 661 219 644 192 611 C 165 578 152 537 152 488 C 152 464 155 442 162 422 C 169 401 179 383 192 367 C 205 351 221 339 239 330 C 257 320 277 316 299 316 L 376 316 Z" unicode="¶" />
<glyph horiz-adv-x="248" d="M 166 282 L 82 282 L 82 410 L 166 410 L 166 282 Z" unicode="·" />
<glyph horiz-adv-x="500" d="M 256 -187 C 232 -187 207 -184 183 -178 C 158 -172 139 -164 125 -155 L 136 -117 C 146 -122 159 -127 175 -133 C 191 -139 209 -142 229 -142 C 245 -142 258 -138 270 -131 C 282 -124 288 -115 288 -103 C 288 -90 282 -81 272 -75 C 262 -69 250 -67 238 -67 C 229 -67 222 -67 216 -68 C 210 -69 203 -71 196 -74 L 183 -61 L 243 11 L 295 11 L 245 -51 C 279 -43 309 -45 333 -58 C 357 -70 369 -89 369 -113 C 369 -137 357 -156 335 -168 C 312 -180 286 -187 256 -187 Z" unicode="¸" />
<glyph horiz-adv-x="322" d="M 143 372 L 143 652 C 135 640 122 630 102 622 C 82 613 65 607 51 605 L 50 678 C 74 681 96 688 114 699 C 132 709 150 723 168 740 L 220 740 L 220 372 L 143 372 Z" unicode="¹" />
<glyph horiz-adv-x="492" d="M 243 297 C 215 297 188 302 162 312 C 136 322 114 336 94 355 C 74 373 59 396 47 424 C 35 451 30 482 30 516 C 30 546 35 574 47 602 C 58 629 73 653 93 673 C 112 693 135 710 161 722 C 187 734 215 740 245 740 C 275 740 304 734 331 724 C 357 714 380 699 400 681 C 419 662 434 639 446 613 C 457 587 463 558 463 526 C 463 493 457 463 445 435 C 433 407 418 382 398 362 C 378 342 355 326 329 314 C 302 302 273 297 243 297 Z M 244 367 C 286 367 320 381 347 411 C 373 440 387 478 387 524 C 387 566 374 601 349 630 C 323 659 289 674 245 674 C 204 674 170 659 144 629 C 118 599 105 562 105 516 C 105 471 118 435 144 408 C 170 380 204 367 244 367 Z M 47 179 L 47 249 L 441 249 L 441 179 L 47 179 Z" unicode="º" />
<glyph horiz-adv-x="453" d="M 30 491 L 208 318 L 208 261 L 30 91 L 30 179 L 135 291 L 30 398 L 30 491 Z M 247 491 L 425 318 L 425 261 L 247 91 L 247 179 L 352 291 L 247 399 L 247 491 Z" unicode="»" />
<glyph horiz-adv-x="689" d="M 7 0 L 7 0 Z M 100 372 L 100 652 C 92 640 79 630 59 622 C 39 613 22 607 8 605 L 7 678 C 31 681 53 688 71 699 C 89 709 107 723 125 740 L 177 740 L 177 372 L 100 372 Z M 568 730 L 195 0 L 122 0 L 495 730 L 568 730 Z M 382 84 L 382 135 L 571 366 L 619 366 L 619 138 L 682 138 L 682 84 L 619 84 L 619 1 L 550 1 L 550 84 L 382 84 Z M 439 129 L 552 129 L 552 270 L 439 129 Z" unicode="¼" />
<glyph horiz-adv-x="749" d="M 7 0 L 7 0 Z M 100 372 L 100 652 C 92 640 79 630 59 622 C 39 613 22 607 8 605 L 7 678 C 31 681 53 688 71 699 C 89 709 107 723 125 740 L 177 740 L 177 372 L 100 372 Z M 568 730 L 195 0 L 122 0 L 495 730 L 568 730 Z M 731 0 L 451 0 L 451 27 L 614 183 C 620 189 627 198 635 209 C 642 220 646 233 646 248 C 646 263 640 277 629 289 C 618 301 602 307 580 307 C 555 307 537 299 527 284 C 516 269 510 252 510 233 L 445 233 C 445 269 457 300 482 328 C 506 355 541 369 587 369 C 631 369 664 358 686 338 C 708 317 720 292 720 263 C 720 236 715 214 705 196 C 695 178 684 164 673 154 L 571 60 L 731 60 L 731 0 Z" unicode="½" />
<glyph horiz-adv-x="751" d="M 8 0 L 8 0 Z M 630 730 L 257 0 L 184 0 L 557 730 L 630 730 Z M 444 84 L 444 135 L 633 366 L 681 366 L 681 138 L 744 138 L 744 84 L 681 84 L 681 1 L 612 1 L 612 84 L 444 84 Z M 501 129 L 614 129 L 614 270 L 501 129 Z M 222 569 C 250 565 272 554 288 537 C 304 520 312 500 312 477 C 312 464 309 451 304 438 C 299 424 291 412 279 401 C 267 390 252 381 232 374 C 212 367 187 364 158 364 C 117 364 85 368 62 378 C 39 388 21 398 8 408 L 48 449 C 59 442 73 435 91 429 C 109 423 130 420 155 420 C 187 420 211 426 225 439 C 239 452 246 468 246 487 C 246 507 237 521 220 528 C 203 534 183 538 161 538 L 89 538 L 89 591 L 156 591 C 178 591 195 595 209 603 C 222 611 229 623 229 639 C 229 652 223 663 211 671 C 199 679 181 683 157 683 C 136 683 117 679 99 671 C 81 663 68 653 60 643 L 20 682 C 33 696 51 710 73 723 C 95 735 126 742 167 742 C 208 742 240 733 263 716 C 285 699 297 678 297 652 C 297 630 289 611 275 597 C 260 583 242 573 222 569 Z" unicode="¾" />
<glyph horiz-adv-x="472" d="M 211 493 L 211 599 L 306 599 L 306 493 L 211 493 Z M 239 -137 C 208 -137 179 -133 153 -125 C 127 -117 104 -106 85 -92 C 65 -77 50 -59 39 -37 C 27 -15 22 9 22 37 C 22 63 26 86 34 106 C 42 126 53 143 66 159 C 79 175 93 188 108 200 C 123 212 137 222 150 232 C 179 254 197 280 205 311 C 213 341 217 372 218 403 L 302 403 C 302 352 297 312 287 283 C 277 254 255 227 223 202 C 209 192 196 181 183 171 C 169 161 157 150 146 138 C 135 126 126 113 120 98 C 113 83 110 66 110 48 C 110 14 123 -13 149 -33 C 175 -53 208 -63 247 -63 C 281 -63 311 -55 339 -40 C 366 -24 388 -6 406 15 L 462 -38 C 440 -64 410 -87 372 -107 C 334 -127 290 -137 239 -137 Z" unicode="¿" />
<glyph horiz-adv-x="653" d="M 3 0 L 3 0 Z M 650 0 L 555 0 L 473 204 L 173 204 L 93 0 L 3 0 L 301 733 L 356 733 L 650 0 Z M 448 277 L 323 592 L 198 277 L 448 277 Z M 324 786 L 324 786 Z M 427 786 L 343 786 L 222 950 L 320 950 L 427 786 Z" unicode="À" />
<glyph horiz-adv-x="653" d="M 3 0 L 3 0 Z M 650 0 L 555 0 L 473 204 L 173 204 L 93 0 L 3 0 L 301 733 L 356 733 L 650 0 Z M 448 277 L 323 592 L 198 277 L 448 277 Z M 324 790 L 324 790 Z M 222 790 L 328 954 L 427 954 L 306 790 L 222 790 Z" unicode="Á" />
<glyph horiz-adv-x="653" d="M 3 0 L 3 0 Z M 650 0 L 555 0 L 473 204 L 173 204 L 93 0 L 3 0 L 301 733 L 356 733 L 650 0 Z M 448 277 L 323 592 L 198 277 L 448 277 Z M 324 787 L 324 787 Z M 490 787 L 412 787 L 324 903 L 235 787 L 159 787 L 282 958 L 367 958 L 490 787 Z" unicode="Â" />
<glyph horiz-adv-x="653" d="M 3 0 L 3 0 Z M 650 0 L 555 0 L 473 204 L 173 204 L 93 0 L 3 0 L 301 733 L 356 733 L 650 0 Z M 448 277 L 323 592 L 198 277 L 448 277 Z M 324 794 L 324 794 Z M 426 928 L 491 928 C 491 882 484 848 470 826 C 456 804 438 794 415 794 C 396 794 379 797 365 805 C 351 813 338 821 328 830 C 317 838 306 845 296 853 C 285 861 274 865 264 865 C 253 865 244 859 237 847 C 229 835 225 819 225 798 L 161 798 C 161 843 170 877 188 899 C 206 921 226 932 247 932 C 263 932 278 928 291 920 C 304 912 317 903 329 894 C 339 885 349 877 359 870 C 369 863 379 860 389 860 C 399 860 407 866 414 878 C 421 890 425 906 426 928 Z" unicode="Ã" />
<glyph horiz-adv-x="653" d="M 3 0 L 3 0 Z M 650 0 L 555 0 L 473 204 L 173 204 L 93 0 L 3 0 L 301 733 L 356 733 L 650 0 Z M 448 277 L 323 592 L 198 277 L 448 277 Z M 324 787 L 324 787 Z M 450 787 L 379 787 L 379 944 L 450 944 L 450 787 Z M 267 787 L 196 787 L 196 944 L 267 944 L 267 787 Z" unicode="Ä" />
<glyph horiz-adv-x="653" d="M 3 0 L 3 0 Z M 650 0 L 555 0 L 473 204 L 173 204 L 93 0 L 3 0 L 301 733 L 356 733 L 650 0 Z M 448 277 L 323 592 L 198 277 L 448 277 Z M 324 785 L 324 785 Z M 324 785 C 291 785 263 796 241 819 C 219 841 208 869 208 902 C 208 934 219 962 241 984 C 263 1006 291 1018 324 1018 C 356 1018 384 1006 407 984 C 429 962 441 934 441 902 C 441 869 429 841 407 819 C 384 796 356 785 324 785 Z M 324 837 C 342 837 357 843 369 855 C 381 867 388 883 388 902 C 388 920 381 935 369 948 C 357 960 342 967 324 967 C 306 967 291 960 279 948 C 266 935 260 920 260 902 C 260 883 266 867 279 855 C 291 843 306 837 324 837 Z" unicode="Å" />
<glyph horiz-adv-x="968" d="M 913 0 L 486 0 L 486 252 L 239 252 L 80 0 L -17 0 L 446 730 L 894 730 L 894 650 L 573 650 L 573 401 L 880 401 L 880 323 L 573 323 L 573 80 L 913 80 L 913 0 Z M 486 328 L 486 654 L 284 328 L 486 328 Z" unicode="Æ" />
<glyph horiz-adv-x="730" d="M 48 0 L 48 0 Z M 409 -12 C 360 -12 314 -3 270 14 C 226 31 188 56 155 88 C 122 120 96 160 77 207 C 57 253 48 306 48 365 C 48 419 57 469 75 515 C 93 561 119 601 151 635 C 183 668 221 694 266 713 C 310 732 359 742 411 742 C 477 742 533 732 579 712 C 625 692 663 665 694 629 L 632 564 C 609 590 580 613 544 631 C 508 649 465 658 413 658 C 371 658 333 650 299 636 C 265 622 236 602 213 576 C 189 550 171 519 159 483 C 146 447 140 407 140 365 C 140 317 147 274 163 237 C 179 200 199 169 225 145 C 250 120 279 101 313 89 C 346 76 380 70 416 70 C 470 70 516 80 555 101 C 593 122 625 149 650 181 L 709 127 C 679 87 639 54 587 28 C 535 1 476 -12 409 -12 Z M 398 -6 L 398 -6 Z M 407 -193 C 383 -193 358 -190 334 -184 C 309 -178 290 -170 276 -161 L 287 -123 C 297 -128 310 -133 326 -139 C 342 -145 360 -148 380 -148 C 396 -148 409 -144 421 -137 C 433 -130 439 -121 439 -109 C 439 -96 433 -87 423 -81 C 413 -75 401 -73 389 -73 C 380 -73 373 -73 367 -74 C 361 -75 354 -77 347 -80 L 334 -67 L 394 5 L 446 5 L 396 -57 C 430 -49 460 -51 484 -64 C 508 -76 520 -95 520 -119 C 520 -143 508 -162 486 -174 C 463 -186 437 -193 407 -193 Z" unicode="Ç" />
<glyph horiz-adv-x="582" d="M 97 0 L 97 0 Z M 526 0 L 97 0 L 97 730 L 507 730 L 507 650 L 186 650 L 186 402 L 493 402 L 493 323 L 186 323 L 186 80 L 526 80 L 526 0 Z M 307 786 L 307 786 Z M 410 786 L 326 786 L 205 950 L 303 950 L 410 786 Z" unicode="È" />
<glyph horiz-adv-x="582" d="M 97 0 L 97 0 Z M 526 0 L 97 0 L 97 730 L 507 730 L 507 650 L 186 650 L 186 402 L 493 402 L 493 323 L 186 323 L 186 80 L 526 80 L 526 0 Z M 307 790 L 307 790 Z M 205 790 L 311 954 L 410 954 L 289 790 L 205 790 Z" unicode="É" />
<glyph horiz-adv-x="582" d="M 97 0 L 97 0 Z M 526 0 L 97 0 L 97 730 L 507 730 L 507 650 L 186 650 L 186 402 L 493 402 L 493 323 L 186 323 L 186 80 L 526 80 L 526 0 Z M 307 787 L 307 787 Z M 473 787 L 395 787 L 307 903 L 218 787 L 142 787 L 265 958 L 350 958 L 473 787 Z" unicode="Ê" />
<glyph horiz-adv-x="582" d="M 97 0 L 97 0 Z M 526 0 L 97 0 L 97 730 L 507 730 L 507 650 L 186 650 L 186 402 L 493 402 L 493 323 L 186 323 L 186 80 L 526 80 L 526 0 Z M 307 787 L 307 787 Z M 433 787 L 362 787 L 362 944 L 433 944 L 433 787 Z M 250 787 L 179 787 L 179 944 L 250 944 L 250 787 Z" unicode="Ë" />
<glyph horiz-adv-x="293" d="M 44 0 L 44 0 Z M 192 0 L 102 0 L 102 730 L 192 730 L 192 0 Z M 146 786 L 146 786 Z M 249 786 L 165 786 L 44 950 L 142 950 L 249 786 Z" unicode="Ì" />
<glyph horiz-adv-x="293" d="M 44 0 L 44 0 Z M 192 0 L 102 0 L 102 730 L 192 730 L 192 0 Z M 146 790 L 146 790 Z M 44 790 L 150 954 L 249 954 L 128 790 L 44 790 Z" unicode="Í" />
<glyph horiz-adv-x="293" d="M 0 0 L 0 0 Z M 192 0 L 102 0 L 102 730 L 192 730 L 192 0 Z M 146 787 L 146 787 Z M 312 787 L 234 787 L 146 903 L 57 787 L -19 787 L 104 958 L 189 958 L 312 787 Z" unicode="Î" />
<glyph horiz-adv-x="293" d="M 18 0 L 18 0 Z M 192 0 L 102 0 L 102 730 L 192 730 L 192 0 Z M 146 787 L 146 787 Z M 272 787 L 201 787 L 201 944 L 272 944 L 272 787 Z M 89 787 L 18 787 L 18 944 L 89 944 L 89 787 Z" unicode="Ï" />
<glyph horiz-adv-x="747" d="M 698 367 C 698 316 689 268 672 224 C 654 179 629 140 596 107 C 562 74 520 48 470 29 C 420 9 362 0 296 0 L 97 0 L 97 322 L 35 322 L 35 392 L 97 392 L 97 730 L 311 730 C 371 730 426 721 474 704 C 522 687 563 663 596 632 C 628 600 653 562 671 517 C 689 472 698 422 698 367 Z M 185 74 L 288 74 C 344 74 393 82 433 98 C 473 114 506 136 532 163 C 557 190 575 221 587 256 C 599 291 605 327 605 365 C 605 455 578 525 526 577 C 473 629 401 655 310 655 L 185 655 L 185 392 L 375 392 L 375 322 L 185 322 L 185 74 Z" unicode="Ð" />
<glyph horiz-adv-x="786" d="M 97 0 L 97 0 Z M 689 0 L 626 0 L 182 570 L 182 0 L 97 0 L 97 730 L 166 730 L 605 163 L 605 730 L 689 730 L 689 0 Z M 394 794 L 394 794 Z M 496 928 L 561 928 C 561 882 554 848 540 826 C 526 804 508 794 485 794 C 466 794 449 797 435 805 C 421 813 408 821 398 830 C 387 838 376 845 366 853 C 355 861 344 865 334 865 C 323 865 314 859 307 847 C 299 835 295 819 295 798 L 231 798 C 231 843 240 877 258 899 C 276 921 296 932 317 932 C 333 932 348 928 361 920 C 374 912 387 903 399 894 C 409 885 419 877 429 870 C 439 863 449 860 459 860 C 469 860 477 866 484 878 C 491 890 495 906 496 928 Z" unicode="Ñ" />
<glyph horiz-adv-x="844" d="M 48 0 L 48 0 Z M 425 -12 C 369 -12 318 -2 272 16 C 225 35 185 62 152 96 C 119 130 93 170 75 217 C 57 264 48 315 48 370 C 48 422 57 471 76 517 C 95 563 121 602 154 635 C 187 668 226 694 272 713 C 317 732 365 742 417 742 C 472 742 523 732 570 714 C 616 695 656 669 690 637 C 723 604 749 564 768 518 C 786 472 796 421 796 367 C 796 311 786 260 766 214 C 746 167 720 127 686 94 C 652 60 613 34 568 16 C 522 -2 475 -12 425 -12 Z M 428 69 C 466 69 503 76 537 90 C 571 104 600 123 625 149 C 649 175 669 206 683 243 C 697 280 705 322 705 368 C 705 410 697 449 683 485 C 668 521 648 551 622 577 C 596 603 566 623 531 637 C 495 651 457 659 416 659 C 376 659 339 652 305 638 C 271 624 242 605 218 580 C 193 555 174 525 160 489 C 146 453 140 413 140 369 C 140 323 147 281 163 244 C 178 206 199 175 225 149 C 251 123 281 104 316 90 C 351 76 388 69 428 69 Z M 418 786 L 418 786 Z M 521 786 L 437 786 L 316 950 L 414 950 L 521 786 Z" unicode="Ò" />
<glyph horiz-adv-x="844" d="M 48 0 L 48 0 Z M 425 -12 C 369 -12 318 -2 272 16 C 225 35 185 62 152 96 C 119 130 93 170 75 217 C 57 264 48 315 48 370 C 48 422 57 471 76 517 C 95 563 121 602 154 635 C 187 668 226 694 272 713 C 317 732 365 742 417 742 C 472 742 523 732 570 714 C 616 695 656 669 690 637 C 723 604 749 564 768 518 C 786 472 796 421 796 367 C 796 311 786 260 766 214 C 746 167 720 127 686 94 C 652 60 613 34 568 16 C 522 -2 475 -12 425 -12 Z M 428 69 C 466 69 503 76 537 90 C 571 104 600 123 625 149 C 649 175 669 206 683 243 C 697 280 705 322 705 368 C 705 410 697 449 683 485 C 668 521 648 551 622 577 C 596 603 566 623 531 637 C 495 651 457 659 416 659 C 376 659 339 652 305 638 C 271 624 242 605 218 580 C 193 555 174 525 160 489 C 146 453 140 413 140 369 C 140 323 147 281 163 244 C 178 206 199 175 225 149 C 251 123 281 104 316 90 C 351 76 388 69 428 69 Z M 418 790 L 418 790 Z M 316 790 L 422 954 L 521 954 L 400 790 L 316 790 Z" unicode="Ó" />
<glyph horiz-adv-x="844" d="M 48 0 L 48 0 Z M 425 -12 C 369 -12 318 -2 272 16 C 225 35 185 62 152 96 C 119 130 93 170 75 217 C 57 264 48 315 48 370 C 48 422 57 471 76 517 C 95 563 121 602 154 635 C 187 668 226 694 272 713 C 317 732 365 742 417 742 C 472 742 523 732 570 714 C 616 695 656 669 690 637 C 723 604 749 564 768 518 C 786 472 796 421 796 367 C 796 311 786 260 766 214 C 746 167 720 127 686 94 C 652 60 613 34 568 16 C 522 -2 475 -12 425 -12 Z M 428 69 C 466 69 503 76 537 90 C 571 104 600 123 625 149 C 649 175 669 206 683 243 C 697 280 705 322 705 368 C 705 410 697 449 683 485 C 668 521 648 551 622 577 C 596 603 566 623 531 637 C 495 651 457 659 416 659 C 376 659 339 652 305 638 C 271 624 242 605 218 580 C 193 555 174 525 160 489 C 146 453 140 413 140 369 C 140 323 147 281 163 244 C 178 206 199 175 225 149 C 251 123 281 104 316 90 C 351 76 388 69 428 69 Z M 418 787 L 418 787 Z M 584 787 L 506 787 L 418 903 L 329 787 L 253 787 L 376 958 L 461 958 L 584 787 Z" unicode="Ô" />
<glyph horiz-adv-x="844" d="M 48 0 L 48 0 Z M 425 -12 C 369 -12 318 -2 272 16 C 225 35 185 62 152 96 C 119 130 93 170 75 217 C 57 264 48 315 48 370 C 48 422 57 471 76 517 C 95 563 121 602 154 635 C 187 668 226 694 272 713 C 317 732 365 742 417 742 C 472 742 523 732 570 714 C 616 695 656 669 690 637 C 723 604 749 564 768 518 C 786 472 796 421 796 367 C 796 311 786 260 766 214 C 746 167 720 127 686 94 C 652 60 613 34 568 16 C 522 -2 475 -12 425 -12 Z M 428 69 C 466 69 503 76 537 90 C 571 104 600 123 625 149 C 649 175 669 206 683 243 C 697 280 705 322 705 368 C 705 410 697 449 683 485 C 668 521 648 551 622 577 C 596 603 566 623 531 637 C 495 651 457 659 416 659 C 376 659 339 652 305 638 C 271 624 242 605 218 580 C 193 555 174 525 160 489 C 146 453 140 413 140 369 C 140 323 147 281 163 244 C 178 206 199 175 225 149 C 251 123 281 104 316 90 C 351 76 388 69 428 69 Z M 418 794 L 418 794 Z M 520 928 L 585 928 C 585 882 578 848 564 826 C 550 804 532 794 509 794 C 490 794 473 797 459 805 C 445 813 432 821 422 830 C 411 838 400 845 390 853 C 379 861 368 865 358 865 C 347 865 338 859 331 847 C 323 835 319 819 319 798 L 255 798 C 255 843 264 877 282 899 C 300 921 320 932 341 932 C 357 932 372 928 385 920 C 398 912 411 903 423 894 C 433 885 443 877 453 870 C 463 863 473 860 483 860 C 493 860 501 866 508 878 C 515 890 519 906 520 928 Z" unicode="Õ" />
<glyph horiz-adv-x="844" d="M 48 0 L 48 0 Z M 425 -12 C 369 -12 318 -2 272 16 C 225 35 185 62 152 96 C 119 130 93 170 75 217 C 57 264 48 315 48 370 C 48 422 57 471 76 517 C 95 563 121 602 154 635 C 187 668 226 694 272 713 C 317 732 365 742 417 742 C 472 742 523 732 570 714 C 616 695 656 669 690 637 C 723 604 749 564 768 518 C 786 472 796 421 796 367 C 796 311 786 260 766 214 C 746 167 720 127 686 94 C 652 60 613 34 568 16 C 522 -2 475 -12 425 -12 Z M 428 69 C 466 69 503 76 537 90 C 571 104 600 123 625 149 C 649 175 669 206 683 243 C 697 280 705 322 705 368 C 705 410 697 449 683 485 C 668 521 648 551 622 577 C 596 603 566 623 531 637 C 495 651 457 659 416 659 C 376 659 339 652 305 638 C 271 624 242 605 218 580 C 193 555 174 525 160 489 C 146 453 140 413 140 369 C 140 323 147 281 163 244 C 178 206 199 175 225 149 C 251 123 281 104 316 90 C 351 76 388 69 428 69 Z M 418 787 L 418 787 Z M 544 787 L 473 787 L 473 944 L 544 944 L 544 787 Z M 361 787 L 290 787 L 290 944 L 361 944 L 361 787 Z" unicode="Ö" />
<glyph horiz-adv-x="500" d="M 112 146 L 65 193 L 203 331 L 66 468 L 113 515 L 250 378 L 388 515 L 435 468 L 297 331 L 435 193 L 388 145 L 250 284 L 112 146 Z" unicode="×" />
<glyph horiz-adv-x="844" d="M 796 367 C 796 311 786 260 766 214 C 746 167 720 127 686 94 C 652 60 613 34 568 16 C 522 -2 475 -12 425 -12 C 375 -12 329 -4 287 11 C 245 26 208 47 176 75 L 104 3 L 58 49 L 130 121 C 104 153 83 191 69 234 C 55 276 48 322 48 370 C 48 422 57 471 76 517 C 95 563 121 602 154 635 C 187 668 226 694 272 713 C 317 732 365 742 417 742 C 466 742 512 734 554 720 C 596 705 634 684 666 658 L 751 743 L 797 697 L 713 612 C 739 580 760 543 774 501 C 788 459 796 415 796 367 Z M 140 369 C 140 333 144 299 154 268 C 164 237 177 210 194 186 L 603 595 C 578 615 550 631 518 642 C 486 653 452 659 416 659 C 376 659 339 652 305 638 C 271 624 242 605 218 580 C 193 555 174 525 160 489 C 146 453 140 413 140 369 Z M 705 368 C 705 402 700 435 690 466 C 680 496 666 524 648 548 L 238 137 C 263 115 292 98 325 86 C 357 74 392 69 428 69 C 466 69 503 76 537 90 C 571 104 600 123 625 149 C 649 175 669 206 683 243 C 697 280 705 322 705 368 Z" unicode="Ø" />
<glyph horiz-adv-x="749" d="M 91 0 L 91 0 Z M 658 730 L 658 266 C 658 222 650 183 635 149 C 620 114 600 85 575 61 C 549 37 519 19 485 7 C 450 -5 413 -12 374 -12 C 335 -12 298 -6 264 6 C 229 18 199 35 174 59 C 148 83 128 112 113 147 C 98 181 91 221 91 266 L 91 730 L 178 730 L 178 262 C 178 233 183 207 193 183 C 203 159 217 139 235 123 C 253 106 273 93 297 84 C 320 74 345 70 372 70 C 398 70 424 74 448 83 C 472 91 494 104 512 121 C 530 137 544 157 555 181 C 565 205 571 232 571 262 L 571 730 L 658 730 Z M 374 786 L 374 786 Z M 477 786 L 393 786 L 272 950 L 370 950 L 477 786 Z" unicode="Ù" />
<glyph horiz-adv-x="749" d="M 91 0 L 91 0 Z M 658 730 L 658 266 C 658 222 650 183 635 149 C 620 114 600 85 575 61 C 549 37 519 19 485 7 C 450 -5 413 -12 374 -12 C 335 -12 298 -6 264 6 C 229 18 199 35 174 59 C 148 83 128 112 113 147 C 98 181 91 221 91 266 L 91 730 L 178 730 L 178 262 C 178 233 183 207 193 183 C 203 159 217 139 235 123 C 253 106 273 93 297 84 C 320 74 345 70 372 70 C 398 70 424 74 448 83 C 472 91 494 104 512 121 C 530 137 544 157 555 181 C 565 205 571 232 571 262 L 571 730 L 658 730 Z M 374 790 L 374 790 Z M 272 790 L 378 954 L 477 954 L 356 790 L 272 790 Z" unicode="Ú" />
<glyph horiz-adv-x="749" d="M 91 0 L 91 0 Z M 658 730 L 658 266 C 658 222 650 183 635 149 C 620 114 600 85 575 61 C 549 37 519 19 485 7 C 450 -5 413 -12 374 -12 C 335 -12 298 -6 264 6 C 229 18 199 35 174 59 C 148 83 128 112 113 147 C 98 181 91 221 91 266 L 91 730 L 178 730 L 178 262 C 178 233 183 207 193 183 C 203 159 217 139 235 123 C 253 106 273 93 297 84 C 320 74 345 70 372 70 C 398 70 424 74 448 83 C 472 91 494 104 512 121 C 530 137 544 157 555 181 C 565 205 571 232 571 262 L 571 730 L 658 730 Z M 374 787 L 374 787 Z M 540 787 L 462 787 L 374 903 L 285 787 L 209 787 L 332 958 L 417 958 L 540 787 Z" unicode="Û" />
<glyph horiz-adv-x="749" d="M 91 0 L 91 0 Z M 658 730 L 658 266 C 658 222 650 183 635 149 C 620 114 600 85 575 61 C 549 37 519 19 485 7 C 450 -5 413 -12 374 -12 C 335 -12 298 -6 264 6 C 229 18 199 35 174 59 C 148 83 128 112 113 147 C 98 181 91 221 91 266 L 91 730 L 178 730 L 178 262 C 178 233 183 207 193 183 C 203 159 217 139 235 123 C 253 106 273 93 297 84 C 320 74 345 70 372 70 C 398 70 424 74 448 83 C 472 91 494 104 512 121 C 530 137 544 157 555 181 C 565 205 571 232 571 262 L 571 730 L 658 730 Z M 374 787 L 374 787 Z M 500 787 L 429 787 L 429 944 L 500 944 L 500 787 Z M 317 787 L 246 787 L 246 944 L 317 944 L 317 787 Z" unicode="Ü" />
<glyph horiz-adv-x="651" d="M 2 0 L 2 0 Z M 649 730 L 368 320 L 368 0 L 278 0 L 278 324 L 2 730 L 103 730 L 328 403 L 553 730 L 649 730 Z M 326 790 L 326 790 Z M 224 790 L 330 954 L 429 954 L 308 790 L 224 790 Z" unicode="Ý" />
<glyph horiz-adv-x="597" d="M 97 0 L 97 730 L 187 730 L 187 596 L 337 596 C 410 596 467 575 507 535 C 547 495 568 443 568 381 C 568 349 562 320 551 293 C 540 265 525 242 505 222 C 485 202 462 187 434 176 C 406 165 375 160 342 160 L 187 160 L 187 0 L 97 0 Z M 186 235 L 328 235 C 374 235 410 248 437 275 C 463 301 477 338 477 384 C 477 428 461 462 431 485 C 401 507 363 519 319 519 L 186 519 L 186 235 Z" unicode="Þ" />
<glyph horiz-adv-x="652" d="M 448 -11 C 404 -11 367 -5 335 6 C 303 17 275 32 253 52 L 293 110 C 311 94 334 82 362 72 C 390 62 418 57 446 57 C 472 57 494 63 512 77 C 529 90 538 107 538 129 C 538 148 529 164 513 178 C 496 192 465 205 419 219 C 361 235 320 255 298 278 C 276 301 265 331 265 368 C 265 402 276 429 299 450 C 322 470 348 482 377 486 C 382 489 389 497 398 509 C 406 521 411 544 412 578 C 412 620 400 652 376 674 C 352 696 324 707 290 707 C 257 707 229 697 207 679 C 185 660 174 632 174 595 L 174 0 L 90 0 L 90 603 C 90 630 95 654 106 676 C 116 697 130 715 148 730 C 166 744 186 756 210 764 C 234 772 259 776 285 776 C 313 776 339 771 365 763 C 390 755 412 743 431 727 C 449 711 464 691 475 668 C 486 645 492 619 492 590 C 492 546 484 512 470 488 C 456 464 442 449 430 443 C 407 440 386 433 368 421 C 349 409 339 394 337 376 C 337 357 346 341 365 327 C 384 313 416 300 461 288 C 517 272 557 252 583 228 C 608 204 621 173 621 135 C 621 88 604 52 570 27 C 536 1 496 -11 448 -11 Z" unicode="ß" />
<glyph horiz-adv-x="532" d="M 32 0 L 32 0 Z M 467 0 L 387 0 L 387 68 C 370 46 346 28 316 13 C 286 -2 250 -10 209 -10 C 153 -10 109 3 78 31 C 47 58 32 94 32 140 C 32 192 52 232 93 261 C 133 290 189 307 261 311 L 385 318 L 385 328 C 385 362 374 387 352 404 C 330 420 302 429 266 429 C 233 429 203 423 175 412 C 147 401 123 389 105 377 L 70 437 C 90 453 118 467 153 480 C 188 492 229 499 275 499 C 331 499 377 485 413 458 C 449 430 467 387 467 327 L 467 0 Z M 386 126 L 386 254 L 259 248 C 217 245 183 235 157 219 C 131 202 118 178 118 146 C 118 118 128 96 149 81 C 169 65 196 58 230 58 C 262 58 293 64 322 78 C 351 92 372 108 386 126 Z M 261 542 L 261 542 Z M 364 542 L 280 542 L 159 706 L 257 706 L 364 542 Z" unicode="à" />
<glyph horiz-adv-x="532" d="M 32 0 L 32 0 Z M 467 0 L 387 0 L 387 68 C 370 46 346 28 316 13 C 286 -2 250 -10 209 -10 C 153 -10 109 3 78 31 C 47 58 32 94 32 140 C 32 192 52 232 93 261 C 133 290 189 307 261 311 L 385 318 L 385 328 C 385 362 374 387 352 404 C 330 420 302 429 266 429 C 233 429 203 423 175 412 C 147 401 123 389 105 377 L 70 437 C 90 453 118 467 153 480 C 188 492 229 499 275 499 C 331 499 377 485 413 458 C 449 430 467 387 467 327 L 467 0 Z M 386 126 L 386 254 L 259 248 C 217 245 183 235 157 219 C 131 202 118 178 118 146 C 118 118 128 96 149 81 C 169 65 196 58 230 58 C 262 58 293 64 322 78 C 351 92 372 108 386 126 Z M 261 546 L 261 546 Z M 159 546 L 265 710 L 364 710 L 243 546 L 159 546 Z" unicode="á" />
<glyph horiz-adv-x="532" d="M 32 0 L 32 0 Z M 467 0 L 387 0 L 387 68 C 370 46 346 28 316 13 C 286 -2 250 -10 209 -10 C 153 -10 109 3 78 31 C 47 58 32 94 32 140 C 32 192 52 232 93 261 C 133 290 189 307 261 311 L 385 318 L 385 328 C 385 362 374 387 352 404 C 330 420 302 429 266 429 C 233 429 203 423 175 412 C 147 401 123 389 105 377 L 70 437 C 90 453 118 467 153 480 C 188 492 229 499 275 499 C 331 499 377 485 413 458 C 449 430 467 387 467 327 L 467 0 Z M 386 126 L 386 254 L 259 248 C 217 245 183 235 157 219 C 131 202 118 178 118 146 C 118 118 128 96 149 81 C 169 65 196 58 230 58 C 262 58 293 64 322 78 C 351 92 372 108 386 126 Z M 261 543 L 261 543 Z M 427 543 L 349 543 L 261 659 L 172 543 L 96 543 L 219 714 L 304 714 L 427 543 Z" unicode="â" />
<glyph horiz-adv-x="532" d="M 32 0 L 32 0 Z M 467 0 L 387 0 L 387 68 C 370 46 346 28 316 13 C 286 -2 250 -10 209 -10 C 153 -10 109 3 78 31 C 47 58 32 94 32 140 C 32 192 52 232 93 261 C 133 290 189 307 261 311 L 385 318 L 385 328 C 385 362 374 387 352 404 C 330 420 302 429 266 429 C 233 429 203 423 175 412 C 147 401 123 389 105 377 L 70 437 C 90 453 118 467 153 480 C 188 492 229 499 275 499 C 331 499 377 485 413 458 C 449 430 467 387 467 327 L 467 0 Z M 386 126 L 386 254 L 259 248 C 217 245 183 235 157 219 C 131 202 118 178 118 146 C 118 118 128 96 149 81 C 169 65 196 58 230 58 C 262 58 293 64 322 78 C 351 92 372 108 386 126 Z M 261 550 L 261 550 Z M 363 684 L 428 684 C 428 638 421 604 407 582 C 393 560 375 550 352 550 C 333 550 316 553 302 561 C 288 569 275 577 265 586 C 254 594 243 601 233 609 C 222 617 211 621 201 621 C 190 621 181 615 174 603 C 166 591 162 575 162 554 L 98 554 C 98 599 107 633 125 655 C 143 677 163 688 184 688 C 200 688 215 684 228 676 C 241 668 254 659 266 650 C 276 641 286 633 296 626 C 306 619 316 616 326 616 C 336 616 344 622 351 634 C 358 646 362 662 363 684 Z" unicode="ã" />
<glyph horiz-adv-x="532" d="M 32 0 L 32 0 Z M 467 0 L 387 0 L 387 68 C 370 46 346 28 316 13 C 286 -2 250 -10 209 -10 C 153 -10 109 3 78 31 C 47 58 32 94 32 140 C 32 192 52 232 93 261 C 133 290 189 307 261 311 L 385 318 L 385 328 C 385 362 374 387 352 404 C 330 420 302 429 266 429 C 233 429 203 423 175 412 C 147 401 123 389 105 377 L 70 437 C 90 453 118 467 153 480 C 188 492 229 499 275 499 C 331 499 377 485 413 458 C 449 430 467 387 467 327 L 467 0 Z M 386 126 L 386 254 L 259 248 C 217 245 183 235 157 219 C 131 202 118 178 118 146 C 118 118 128 96 149 81 C 169 65 196 58 230 58 C 262 58 293 64 322 78 C 351 92 372 108 386 126 Z M 261 543 L 261 543 Z M 387 543 L 316 543 L 316 700 L 387 700 L 387 543 Z M 204 543 L 133 543 L 133 700 L 204 700 L 204 543 Z" unicode="ä" />
<glyph horiz-adv-x="532" d="M 32 0 L 32 0 Z M 467 0 L 387 0 L 387 68 C 370 46 346 28 316 13 C 286 -2 250 -10 209 -10 C 153 -10 109 3 78 31 C 47 58 32 94 32 140 C 32 192 52 232 93 261 C 133 290 189 307 261 311 L 385 318 L 385 328 C 385 362 374 387 352 404 C 330 420 302 429 266 429 C 233 429 203 423 175 412 C 147 401 123 389 105 377 L 70 437 C 90 453 118 467 153 480 C 188 492 229 499 275 499 C 331 499 377 485 413 458 C 449 430 467 387 467 327 L 467 0 Z M 386 126 L 386 254 L 259 248 C 217 245 183 235 157 219 C 131 202 118 178 118 146 C 118 118 128 96 149 81 C 169 65 196 58 230 58 C 262 58 293 64 322 78 C 351 92 372 108 386 126 Z M 261 541 L 261 541 Z M 261 541 C 228 541 200 552 178 575 C 156 597 145 625 145 658 C 145 690 156 718 178 740 C 200 762 228 774 261 774 C 293 774 321 762 344 740 C 366 718 378 690 378 658 C 378 625 366 597 344 575 C 321 552 293 541 261 541 Z M 261 593 C 279 593 294 599 306 611 C 318 623 325 639 325 658 C 325 676 318 691 306 704 C 294 716 279 723 261 723 C 243 723 228 716 216 704 C 203 691 197 676 197 658 C 197 639 203 623 216 611 C 228 599 243 593 261 593 Z" unicode="å" />
<glyph horiz-adv-x="913" d="M 647 -11 C 617 -11 590 -7 566 0 C 542 6 520 15 502 27 C 484 38 468 51 456 66 C 443 80 434 95 428 110 C 414 79 389 51 351 27 C 313 2 265 -10 209 -10 C 157 -10 116 3 85 30 C 53 56 38 93 38 140 C 38 193 58 234 99 262 C 139 290 195 306 267 310 L 394 318 L 394 328 C 394 360 382 385 358 403 C 334 420 305 429 270 429 C 237 429 207 423 179 412 C 151 401 127 389 109 377 L 75 437 C 97 453 125 468 159 480 C 193 492 230 499 270 499 C 317 499 356 489 387 470 C 417 450 437 425 446 394 C 452 406 460 418 471 430 C 482 442 496 454 512 464 C 528 474 547 483 569 489 C 591 495 615 499 643 499 C 715 499 773 473 817 423 C 861 372 883 304 884 219 L 472 219 C 474 171 490 132 522 104 C 553 76 594 62 645 62 C 692 62 727 69 750 84 C 773 98 792 114 808 130 L 860 76 C 837 50 809 29 777 13 C 744 -2 701 -11 647 -11 Z M 474 282 L 800 282 C 800 301 796 319 788 337 C 780 355 768 370 754 384 C 740 397 723 408 703 416 C 683 424 660 428 636 428 C 588 428 549 413 521 384 C 492 354 476 320 474 282 Z M 233 58 C 273 58 308 69 337 93 C 366 116 386 141 397 169 L 397 254 L 264 246 C 223 244 189 235 163 221 C 136 206 123 182 123 148 C 123 117 133 94 155 80 C 176 65 202 58 233 58 Z" unicode="æ" />
<glyph horiz-adv-x="525" d="M 36 0 L 36 0 Z M 438 149 L 506 107 C 497 93 486 79 474 65 C 461 51 446 38 429 27 C 411 15 391 6 368 0 C 344 -7 318 -11 288 -11 C 250 -11 216 -4 185 8 C 154 20 128 38 106 60 C 84 82 66 109 54 141 C 42 172 36 206 36 242 C 36 278 42 311 55 343 C 68 374 86 401 109 424 C 131 447 158 465 190 479 C 221 492 255 499 291 499 C 320 499 346 495 370 488 C 393 480 413 471 431 460 C 449 448 464 435 476 420 C 488 405 497 390 504 376 L 429 340 C 417 362 399 382 377 399 C 355 415 325 424 289 424 C 264 424 241 419 221 409 C 201 399 183 386 169 370 C 154 354 143 335 135 313 C 127 291 123 267 123 243 C 123 191 138 149 168 115 C 198 81 239 64 290 64 C 332 64 364 73 387 92 C 409 111 426 130 438 149 Z M 279 -6 L 279 -6 Z M 288 -193 C 264 -193 239 -190 215 -184 C 190 -178 171 -170 157 -161 L 168 -123 C 178 -128 191 -133 207 -139 C 223 -145 241 -148 261 -148 C 277 -148 290 -144 302 -137 C 314 -130 320 -121 320 -109 C 320 -96 314 -87 304 -81 C 294 -75 282 -73 270 -73 C 261 -73 254 -73 248 -74 C 242 -75 235 -77 228 -80 L 215 -67 L 275 5 L 327 5 L 277 -57 C 311 -49 341 -51 365 -64 C 389 -76 401 -95 401 -119 C 401 -143 389 -162 367 -174 C 344 -186 318 -193 288 -193 Z" unicode="ç" />
<glyph horiz-adv-x="563" d="M 37 0 L 37 0 Z M 296 -11 C 258 -11 224 -5 192 6 C 160 17 133 33 110 55 C 87 77 69 103 56 135 C 43 166 37 202 37 242 C 37 277 43 310 56 342 C 68 373 86 400 108 423 C 130 446 157 464 188 478 C 219 492 253 499 290 499 C 362 499 420 474 466 425 C 511 375 534 306 534 218 L 118 218 C 120 172 136 135 168 106 C 199 76 241 62 295 62 C 339 62 373 69 398 83 C 422 97 442 112 458 130 L 510 76 C 488 52 461 31 429 14 C 397 -2 352 -11 296 -11 Z M 119 282 L 450 282 C 449 322 434 356 404 385 C 374 413 335 428 287 428 C 263 428 241 424 221 416 C 201 408 183 397 169 384 C 155 370 143 355 135 337 C 126 319 121 301 119 282 Z M 286 542 L 286 542 Z M 389 542 L 305 542 L 184 706 L 282 706 L 389 542 Z" unicode="è" />
<glyph horiz-adv-x="563" d="M 37 0 L 37 0 Z M 296 -11 C 258 -11 224 -5 192 6 C 160 17 133 33 110 55 C 87 77 69 103 56 135 C 43 166 37 202 37 242 C 37 277 43 310 56 342 C 68 373 86 400 108 423 C 130 446 157 464 188 478 C 219 492 253 499 290 499 C 362 499 420 474 466 425 C 511 375 534 306 534 218 L 118 218 C 120 172 136 135 168 106 C 199 76 241 62 295 62 C 339 62 373 69 398 83 C 422 97 442 112 458 130 L 510 76 C 488 52 461 31 429 14 C 397 -2 352 -11 296 -11 Z M 119 282 L 450 282 C 449 322 434 356 404 385 C 374 413 335 428 287 428 C 263 428 241 424 221 416 C 201 408 183 397 169 384 C 155 370 143 355 135 337 C 126 319 121 301 119 282 Z M 286 546 L 286 546 Z M 184 546 L 290 710 L 389 710 L 268 546 L 184 546 Z" unicode="é" />
<glyph horiz-adv-x="563" d="M 37 0 L 37 0 Z M 296 -11 C 258 -11 224 -5 192 6 C 160 17 133 33 110 55 C 87 77 69 103 56 135 C 43 166 37 202 37 242 C 37 277 43 310 56 342 C 68 373 86 400 108 423 C 130 446 157 464 188 478 C 219 492 253 499 290 499 C 362 499 420 474 466 425 C 511 375 534 306 534 218 L 118 218 C 120 172 136 135 168 106 C 199 76 241 62 295 62 C 339 62 373 69 398 83 C 422 97 442 112 458 130 L 510 76 C 488 52 461 31 429 14 C 397 -2 352 -11 296 -11 Z M 119 282 L 450 282 C 449 322 434 356 404 385 C 374 413 335 428 287 428 C 263 428 241 424 221 416 C 201 408 183 397 169 384 C 155 370 143 355 135 337 C 126 319 121 301 119 282 Z M 286 543 L 286 543 Z M 452 543 L 374 543 L 286 659 L 197 543 L 121 543 L 244 714 L 329 714 L 452 543 Z" unicode="ê" />
<glyph horiz-adv-x="563" d="M 37 0 L 37 0 Z M 296 -11 C 258 -11 224 -5 192 6 C 160 17 133 33 110 55 C 87 77 69 103 56 135 C 43 166 37 202 37 242 C 37 277 43 310 56 342 C 68 373 86 400 108 423 C 130 446 157 464 188 478 C 219 492 253 499 290 499 C 362 499 420 474 466 425 C 511 375 534 306 534 218 L 118 218 C 120 172 136 135 168 106 C 199 76 241 62 295 62 C 339 62 373 69 398 83 C 422 97 442 112 458 130 L 510 76 C 488 52 461 31 429 14 C 397 -2 352 -11 296 -11 Z M 119 282 L 450 282 C 449 322 434 356 404 385 C 374 413 335 428 287 428 C 263 428 241 424 221 416 C 201 408 183 397 169 384 C 155 370 143 355 135 337 C 126 319 121 301 119 282 Z M 286 543 L 286 543 Z M 412 543 L 341 543 L 341 700 L 412 700 L 412 543 Z M 229 543 L 158 543 L 158 700 L 229 700 L 229 543 Z" unicode="ë" />
<glyph horiz-adv-x="246" d="M 20 0 L 20 0 Z M 165 0 L 81 0 L 81 486 L 165 486 L 165 0 Z M 122 542 L 122 542 Z M 225 542 L 141 542 L 20 706 L 118 706 L 225 542 Z" unicode="ì" />
<glyph horiz-adv-x="246" d="M 20 0 L 20 0 Z M 165 0 L 81 0 L 81 486 L 165 486 L 165 0 Z M 122 546 L 122 546 Z M 20 546 L 126 710 L 225 710 L 104 546 L 20 546 Z" unicode="í" />
<glyph horiz-adv-x="246" d="M 0 0 L 0 0 Z M 165 0 L 81 0 L 81 486 L 165 486 L 165 0 Z M 122 543 L 122 543 Z M 288 543 L 210 543 L 122 659 L 33 543 L -43 543 L 80 714 L 165 714 L 288 543 Z" unicode="î" />
<glyph horiz-adv-x="246" d="M 0 0 L 0 0 Z M 165 0 L 81 0 L 81 486 L 165 486 L 165 0 Z M 122 543 L 122 543 Z M 248 543 L 177 543 L 177 700 L 248 700 L 248 543 Z M 65 543 L -6 543 L -6 700 L 65 700 L 65 543 Z" unicode="ï" />
<glyph horiz-adv-x="594" d="M 553 268 C 553 229 547 193 535 159 C 523 125 505 95 483 70 C 461 45 433 25 401 11 C 369 -3 332 -11 291 -11 C 255 -11 222 -5 191 7 C 160 19 133 35 111 57 C 88 79 70 105 57 136 C 43 167 37 201 37 239 C 37 273 43 305 57 335 C 70 365 88 392 111 415 C 133 437 159 455 189 469 C 219 482 250 489 283 489 C 325 489 363 478 396 457 C 428 436 451 413 464 389 C 458 439 447 484 430 523 C 413 561 394 594 373 622 L 227 573 L 210 620 L 336 663 C 313 684 290 701 268 714 C 245 727 226 736 210 741 L 285 772 C 301 766 319 756 341 742 C 363 728 385 709 407 687 L 488 714 L 504 666 L 442 645 C 472 605 498 554 520 492 C 542 430 553 355 553 268 Z M 293 60 C 346 60 389 77 421 113 C 453 148 469 192 469 244 C 469 294 453 336 423 370 C 392 404 350 421 296 421 C 271 421 248 416 227 407 C 205 397 187 384 172 368 C 156 352 144 333 136 311 C 127 289 123 266 123 242 C 123 188 139 145 172 111 C 205 77 245 60 293 60 Z" unicode="ð" />
<glyph horiz-adv-x="580" d="M 77 0 L 77 0 Z M 509 0 L 426 0 L 426 326 C 426 358 414 383 391 401 C 368 419 340 429 306 429 C 288 429 271 426 254 421 C 236 415 221 407 207 396 C 193 384 182 370 174 353 C 165 336 161 316 161 293 L 161 0 L 77 0 L 77 486 L 154 486 L 154 386 C 165 418 187 445 220 467 C 253 488 291 499 334 499 C 383 499 424 485 458 457 C 492 429 509 392 509 346 L 509 0 Z M 299 550 L 299 550 Z M 401 684 L 466 684 C 466 638 459 604 445 582 C 431 560 413 550 390 550 C 371 550 354 553 340 561 C 326 569 313 577 303 586 C 292 594 281 601 271 609 C 260 617 249 621 239 621 C 228 621 219 615 212 603 C 204 591 200 575 200 554 L 136 554 C 136 599 145 633 163 655 C 181 677 201 688 222 688 C 238 688 253 684 266 676 C 279 668 292 659 304 650 C 314 641 324 633 334 626 C 344 619 354 616 364 616 C 374 616 382 622 389 634 C 396 646 400 662 401 684 Z" unicode="ñ" />
<glyph horiz-adv-x="587" d="M 36 0 L 36 0 Z M 290 -11 C 257 -11 225 -5 195 6 C 164 18 137 34 114 56 C 90 78 71 104 57 136 C 43 167 36 202 36 241 C 36 276 42 309 56 341 C 70 373 88 400 111 423 C 134 446 161 464 192 478 C 223 492 256 499 290 499 C 326 499 359 493 391 481 C 423 469 450 452 474 431 C 498 409 516 384 530 354 C 544 324 551 291 551 255 C 551 217 544 181 530 149 C 516 116 498 88 475 64 C 451 40 424 22 392 9 C 360 -4 326 -11 290 -11 Z M 294 63 C 344 63 384 80 416 116 C 448 151 464 195 464 249 C 464 297 448 339 416 373 C 384 407 341 425 287 425 C 240 425 201 407 170 372 C 138 337 123 294 123 242 C 123 186 139 143 172 111 C 205 79 246 63 294 63 Z M 289 542 L 289 542 Z M 392 542 L 308 542 L 187 706 L 285 706 L 392 542 Z" unicode="ò" />
<glyph horiz-adv-x="587" d="M 36 0 L 36 0 Z M 290 -11 C 257 -11 225 -5 195 6 C 164 18 137 34 114 56 C 90 78 71 104 57 136 C 43 167 36 202 36 241 C 36 276 42 309 56 341 C 70 373 88 400 111 423 C 134 446 161 464 192 478 C 223 492 256 499 290 499 C 326 499 359 493 391 481 C 423 469 450 452 474 431 C 498 409 516 384 530 354 C 544 324 551 291 551 255 C 551 217 544 181 530 149 C 516 116 498 88 475 64 C 451 40 424 22 392 9 C 360 -4 326 -11 290 -11 Z M 294 63 C 344 63 384 80 416 116 C 448 151 464 195 464 249 C 464 297 448 339 416 373 C 384 407 341 425 287 425 C 240 425 201 407 170 372 C 138 337 123 294 123 242 C 123 186 139 143 172 111 C 205 79 246 63 294 63 Z M 289 546 L 289 546 Z M 187 546 L 293 710 L 392 710 L 271 546 L 187 546 Z" unicode="ó" />
<glyph horiz-adv-x="587" d="M 36 0 L 36 0 Z M 290 -11 C 257 -11 225 -5 195 6 C 164 18 137 34 114 56 C 90 78 71 104 57 136 C 43 167 36 202 36 241 C 36 276 42 309 56 341 C 70 373 88 400 111 423 C 134 446 161 464 192 478 C 223 492 256 499 290 499 C 326 499 359 493 391 481 C 423 469 450 452 474 431 C 498 409 516 384 530 354 C 544 324 551 291 551 255 C 551 217 544 181 530 149 C 516 116 498 88 475 64 C 451 40 424 22 392 9 C 360 -4 326 -11 290 -11 Z M 294 63 C 344 63 384 80 416 116 C 448 151 464 195 464 249 C 464 297 448 339 416 373 C 384 407 341 425 287 425 C 240 425 201 407 170 372 C 138 337 123 294 123 242 C 123 186 139 143 172 111 C 205 79 246 63 294 63 Z M 289 543 L 289 543 Z M 455 543 L 377 543 L 289 659 L 200 543 L 124 543 L 247 714 L 332 714 L 455 543 Z" unicode="ô" />
<glyph horiz-adv-x="587" d="M 36 0 L 36 0 Z M 290 -11 C 257 -11 225 -5 195 6 C 164 18 137 34 114 56 C 90 78 71 104 57 136 C 43 167 36 202 36 241 C 36 276 42 309 56 341 C 70 373 88 400 111 423 C 134 446 161 464 192 478 C 223 492 256 499 290 499 C 326 499 359 493 391 481 C 423 469 450 452 474 431 C 498 409 516 384 530 354 C 544 324 551 291 551 255 C 551 217 544 181 530 149 C 516 116 498 88 475 64 C 451 40 424 22 392 9 C 360 -4 326 -11 290 -11 Z M 294 63 C 344 63 384 80 416 116 C 448 151 464 195 464 249 C 464 297 448 339 416 373 C 384 407 341 425 287 425 C 240 425 201 407 170 372 C 138 337 123 294 123 242 C 123 186 139 143 172 111 C 205 79 246 63 294 63 Z M 289 550 L 289 550 Z M 391 684 L 456 684 C 456 638 449 604 435 582 C 421 560 403 550 380 550 C 361 550 344 553 330 561 C 316 569 303 577 293 586 C 282 594 271 601 261 609 C 250 617 239 621 229 621 C 218 621 209 615 202 603 C 194 591 190 575 190 554 L 126 554 C 126 599 135 633 153 655 C 171 677 191 688 212 688 C 228 688 243 684 256 676 C 269 668 282 659 294 650 C 304 641 314 633 324 626 C 334 619 344 616 354 616 C 364 616 372 622 379 634 C 386 646 390 662 391 684 Z" unicode="õ" />
<glyph horiz-adv-x="587" d="M 36 0 L 36 0 Z M 290 -11 C 257 -11 225 -5 195 6 C 164 18 137 34 114 56 C 90 78 71 104 57 136 C 43 167 36 202 36 241 C 36 276 42 309 56 341 C 70 373 88 400 111 423 C 134 446 161 464 192 478 C 223 492 256 499 290 499 C 326 499 359 493 391 481 C 423 469 450 452 474 431 C 498 409 516 384 530 354 C 544 324 551 291 551 255 C 551 217 544 181 530 149 C 516 116 498 88 475 64 C 451 40 424 22 392 9 C 360 -4 326 -11 290 -11 Z M 294 63 C 344 63 384 80 416 116 C 448 151 464 195 464 249 C 464 297 448 339 416 373 C 384 407 341 425 287 425 C 240 425 201 407 170 372 C 138 337 123 294 123 242 C 123 186 139 143 172 111 C 205 79 246 63 294 63 Z M 289 543 L 289 543 Z M 415 543 L 344 543 L 344 700 L 415 700 L 415 543 Z M 232 543 L 161 543 L 161 700 L 232 700 L 232 543 Z" unicode="ö" />
<glyph horiz-adv-x="500" d="M 210 448 L 210 561 L 290 561 L 290 448 L 210 448 Z M 26 295 L 26 366 L 474 366 L 474 295 L 26 295 Z M 210 100 L 210 213 L 290 213 L 290 100 L 210 100 Z" unicode="÷" />
<glyph horiz-adv-x="587" d="M 551 255 C 551 217 544 181 530 149 C 516 116 498 88 475 64 C 451 40 424 22 392 9 C 360 -4 326 -11 290 -11 C 260 -11 231 -6 203 3 C 175 13 149 27 127 45 L 72 -9 L 31 31 L 87 86 C 71 106 58 130 49 156 C 40 182 36 210 36 241 C 36 276 42 309 56 341 C 70 373 88 400 111 423 C 134 446 161 464 192 478 C 223 492 256 499 290 499 C 320 499 349 494 377 486 C 405 477 430 465 452 449 L 506 503 L 546 463 L 494 411 C 512 390 526 366 536 340 C 546 314 551 285 551 255 Z M 123 242 C 123 223 125 205 129 189 C 133 173 138 158 146 146 L 395 392 C 380 402 364 410 346 416 C 328 422 308 425 287 425 C 240 425 201 407 170 372 C 138 337 123 294 123 242 Z M 464 249 C 464 267 461 285 456 303 C 450 321 443 337 434 351 L 183 101 C 197 89 214 79 233 73 C 252 66 272 63 294 63 C 344 63 384 80 416 116 C 448 151 464 195 464 249 Z" unicode="ø" />
<glyph horiz-adv-x="580" d="M 71 0 L 71 0 Z M 71 486 L 154 486 L 154 177 C 154 135 166 105 190 86 C 214 67 244 58 281 58 C 317 58 349 69 377 93 C 405 117 419 150 419 192 L 419 486 L 503 486 L 503 0 L 424 0 L 424 100 C 413 70 392 44 361 22 C 329 0 292 -11 248 -11 C 198 -11 156 3 122 31 C 88 59 71 100 71 155 L 71 486 Z M 287 542 L 287 542 Z M 390 542 L 306 542 L 185 706 L 283 706 L 390 542 Z" unicode="ù" />
<glyph horiz-adv-x="580" d="M 71 0 L 71 0 Z M 71 486 L 154 486 L 154 177 C 154 135 166 105 190 86 C 214 67 244 58 281 58 C 317 58 349 69 377 93 C 405 117 419 150 419 192 L 419 486 L 503 486 L 503 0 L 424 0 L 424 100 C 413 70 392 44 361 22 C 329 0 292 -11 248 -11 C 198 -11 156 3 122 31 C 88 59 71 100 71 155 L 71 486 Z M 287 546 L 287 546 Z M 185 546 L 291 710 L 390 710 L 269 546 L 185 546 Z" unicode="ú" />
<glyph horiz-adv-x="580" d="M 71 0 L 71 0 Z M 71 486 L 154 486 L 154 177 C 154 135 166 105 190 86 C 214 67 244 58 281 58 C 317 58 349 69 377 93 C 405 117 419 150 419 192 L 419 486 L 503 486 L 503 0 L 424 0 L 424 100 C 413 70 392 44 361 22 C 329 0 292 -11 248 -11 C 198 -11 156 3 122 31 C 88 59 71 100 71 155 L 71 486 Z M 287 543 L 287 543 Z M 453 543 L 375 543 L 287 659 L 198 543 L 122 543 L 245 714 L 330 714 L 453 543 Z" unicode="û" />
<glyph horiz-adv-x="580" d="M 71 0 L 71 0 Z M 71 486 L 154 486 L 154 177 C 154 135 166 105 190 86 C 214 67 244 58 281 58 C 317 58 349 69 377 93 C 405 117 419 150 419 192 L 419 486 L 503 486 L 503 0 L 424 0 L 424 100 C 413 70 392 44 361 22 C 329 0 292 -11 248 -11 C 198 -11 156 3 122 31 C 88 59 71 100 71 155 L 71 486 Z M 287 543 L 287 543 Z M 413 543 L 342 543 L 342 700 L 413 700 L 413 543 Z M 230 543 L 159 543 L 159 700 L 230 700 L 230 543 Z" unicode="ü" />
<glyph horiz-adv-x="506" d="M 0 0 L 0 0 Z M 507 486 L 235 -85 C 213 -131 187 -162 158 -177 C 129 -192 102 -200 77 -200 C 62 -200 49 -198 39 -195 C 29 -192 21 -190 17 -188 L 41 -112 C 44 -114 49 -116 57 -118 C 65 -120 73 -121 81 -121 C 97 -121 113 -115 127 -105 C 141 -94 155 -74 169 -46 L 208 32 L -3 486 L 88 486 L 252 119 L 420 486 L 507 486 Z M 253 546 L 253 546 Z M 151 546 L 257 710 L 356 710 L 235 546 L 151 546 Z" unicode="ý" />
<glyph horiz-adv-x="600" d="M 77 -197 L 77 765 L 159 765 L 159 374 C 163 389 170 404 180 419 C 190 434 203 447 219 459 C 235 471 253 480 274 487 C 295 494 318 498 344 498 C 410 498 463 475 503 429 C 543 383 564 324 564 252 C 564 212 558 176 546 144 C 534 112 518 84 498 62 C 478 40 454 23 427 11 C 400 -1 372 -7 343 -7 C 295 -7 255 4 223 27 C 191 49 170 76 160 107 L 160 -197 L 77 -197 Z M 322 61 C 366 61 402 78 432 112 C 462 146 477 190 477 246 C 477 298 463 341 436 376 C 409 411 370 429 320 429 C 274 429 236 413 205 381 C 173 349 158 302 158 240 C 158 210 162 183 171 161 C 180 138 192 119 207 105 C 221 90 239 79 259 72 C 279 64 300 61 322 61 Z" unicode="þ" />
<glyph horiz-adv-x="506" d="M 0 0 L 0 0 Z M 507 486 L 235 -85 C 213 -131 187 -162 158 -177 C 129 -192 102 -200 77 -200 C 62 -200 49 -198 39 -195 C 29 -192 21 -190 17 -188 L 41 -112 C 44 -114 49 -116 57 -118 C 65 -120 73 -121 81 -121 C 97 -121 113 -115 127 -105 C 141 -94 155 -74 169 -46 L 208 32 L -3 486 L 88 486 L 252 119 L 420 486 L 507 486 Z M 253 543 L 253 543 Z M 379 543 L 308 543 L 308 700 L 379 700 L 379 543 Z M 196 543 L 125 543 L 125 700 L 196 700 L 196 543 Z" unicode="ÿ" />
<glyph horiz-adv-x="653" d="M 3 0 L 3 0 Z M 650 0 L 555 0 L 473 204 L 173 204 L 93 0 L 3 0 L 301 733 L 356 733 L 650 0 Z M 448 277 L 323 592 L 198 277 L 448 277 Z M 324 808 L 324 808 Z M 453 808 L 195 808 L 195 875 L 453 875 L 453 808 Z" unicode="Ā" />
<glyph horiz-adv-x="532" d="M 32 0 L 32 0 Z M 467 0 L 387 0 L 387 68 C 370 46 346 28 316 13 C 286 -2 250 -10 209 -10 C 153 -10 109 3 78 31 C 47 58 32 94 32 140 C 32 192 52 232 93 261 C 133 290 189 307 261 311 L 385 318 L 385 328 C 385 362 374 387 352 404 C 330 420 302 429 266 429 C 233 429 203 423 175 412 C 147 401 123 389 105 377 L 70 437 C 90 453 118 467 153 480 C 188 492 229 499 275 499 C 331 499 377 485 413 458 C 449 430 467 387 467 327 L 467 0 Z M 386 126 L 386 254 L 259 248 C 217 245 183 235 157 219 C 131 202 118 178 118 146 C 118 118 128 96 149 81 C 169 65 196 58 230 58 C 262 58 293 64 322 78 C 351 92 372 108 386 126 Z M 261 564 L 261 564 Z M 390 564 L 132 564 L 132 631 L 390 631 L 390 564 Z" unicode="ā" />
<glyph horiz-adv-x="653" d="M 3 0 L 3 0 Z M 650 0 L 555 0 L 473 204 L 173 204 L 93 0 L 3 0 L 301 733 L 356 733 L 650 0 Z M 448 277 L 323 592 L 198 277 L 448 277 Z M 324 792 L 324 792 Z M 409 949 L 479 949 C 475 894 458 854 430 829 C 401 804 366 792 324 792 C 282 792 246 804 218 829 C 189 854 173 894 169 949 L 239 949 C 241 918 249 893 262 873 C 275 853 296 844 324 844 C 352 844 372 853 386 872 C 399 890 407 916 409 949 Z" unicode="Ă" />
<glyph horiz-adv-x="532" d="M 32 0 L 32 0 Z M 467 0 L 387 0 L 387 68 C 370 46 346 28 316 13 C 286 -2 250 -10 209 -10 C 153 -10 109 3 78 31 C 47 58 32 94 32 140 C 32 192 52 232 93 261 C 133 290 189 307 261 311 L 385 318 L 385 328 C 385 362 374 387 352 404 C 330 420 302 429 266 429 C 233 429 203 423 175 412 C 147 401 123 389 105 377 L 70 437 C 90 453 118 467 153 480 C 188 492 229 499 275 499 C 331 499 377 485 413 458 C 449 430 467 387 467 327 L 467 0 Z M 386 126 L 386 254 L 259 248 C 217 245 183 235 157 219 C 131 202 118 178 118 146 C 118 118 128 96 149 81 C 169 65 196 58 230 58 C 262 58 293 64 322 78 C 351 92 372 108 386 126 Z M 261 548 L 261 548 Z M 346 705 L 416 705 C 412 650 395 610 367 585 C 338 560 303 548 261 548 C 219 548 183 560 155 585 C 126 610 110 650 106 705 L 176 705 C 178 674 186 649 199 629 C 212 609 233 600 261 600 C 289 600 309 609 323 628 C 336 646 344 672 346 705 Z" unicode="ă" />
<glyph horiz-adv-x="653" d="M 3 0 L 3 0 Z M 650 0 L 555 0 L 473 204 L 173 204 L 93 0 L 3 0 L 301 733 L 356 733 L 650 0 Z M 448 277 L 323 592 L 198 277 L 448 277 Z M 558 -8 L 558 -8 Z M 667 -100 L 691 -135 C 671 -155 649 -170 624 -181 C 598 -191 570 -197 540 -197 C 506 -197 479 -189 459 -175 C 439 -160 430 -142 430 -120 C 430 -96 441 -73 463 -52 C 485 -30 515 -12 555 3 L 599 2 C 569 -12 545 -26 527 -41 C 509 -56 501 -71 501 -87 C 501 -101 507 -113 520 -122 C 532 -130 548 -135 567 -135 C 587 -135 606 -131 624 -125 C 642 -119 656 -110 667 -100 Z" unicode="Ą" />
<glyph horiz-adv-x="532" d="M 32 0 L 32 0 Z M 467 0 L 387 0 L 387 68 C 370 46 346 28 316 13 C 286 -2 250 -10 209 -10 C 153 -10 109 3 78 31 C 47 58 32 94 32 140 C 32 192 52 232 93 261 C 133 290 189 307 261 311 L 385 318 L 385 328 C 385 362 374 387 352 404 C 330 420 302 429 266 429 C 233 429 203 423 175 412 C 147 401 123 389 105 377 L 70 437 C 90 453 118 467 153 480 C 188 492 229 499 275 499 C 331 499 377 485 413 458 C 449 430 467 387 467 327 L 467 0 Z M 386 126 L 386 254 L 259 248 C 217 245 183 235 157 219 C 131 202 118 178 118 146 C 118 118 128 96 149 81 C 169 65 196 58 230 58 C 262 58 293 64 322 78 C 351 92 372 108 386 126 Z M 396 -8 L 396 -8 Z M 505 -100 L 529 -135 C 509 -155 487 -170 462 -181 C 436 -191 408 -197 378 -197 C 344 -197 317 -189 297 -175 C 277 -160 268 -142 268 -120 C 268 -96 279 -73 301 -52 C 323 -30 353 -12 393 3 L 437 2 C 407 -12 383 -26 365 -41 C 347 -56 339 -71 339 -87 C 339 -101 345 -113 358 -122 C 370 -130 386 -135 405 -135 C 425 -135 444 -131 462 -125 C 480 -119 494 -110 505 -100 Z" unicode="ą" />
<glyph horiz-adv-x="730" d="M 48 0 L 48 0 Z M 409 -12 C 360 -12 314 -3 270 14 C 226 31 188 56 155 88 C 122 120 96 160 77 207 C 57 253 48 306 48 365 C 48 419 57 469 75 515 C 93 561 119 601 151 635 C 183 668 221 694 266 713 C 310 732 359 742 411 742 C 477 742 533 732 579 712 C 625 692 663 665 694 629 L 632 564 C 609 590 580 613 544 631 C 508 649 465 658 413 658 C 371 658 333 650 299 636 C 265 622 236 602 213 576 C 189 550 171 519 159 483 C 146 447 140 407 140 365 C 140 317 147 274 163 237 C 179 200 199 169 225 145 C 250 120 279 101 313 89 C 346 76 380 70 416 70 C 470 70 516 80 555 101 C 593 122 625 149 650 181 L 709 127 C 679 87 639 54 587 28 C 535 1 476 -12 409 -12 Z M 410 790 L 410 790 Z M 308 790 L 414 954 L 513 954 L 392 790 L 308 790 Z" unicode="Ć" />
<glyph horiz-adv-x="525" d="M 36 0 L 36 0 Z M 438 149 L 506 107 C 497 93 486 79 474 65 C 461 51 446 38 429 27 C 411 15 391 6 368 0 C 344 -7 318 -11 288 -11 C 250 -11 216 -4 185 8 C 154 20 128 38 106 60 C 84 82 66 109 54 141 C 42 172 36 206 36 242 C 36 278 42 311 55 343 C 68 374 86 401 109 424 C 131 447 158 465 190 479 C 221 492 255 499 291 499 C 320 499 346 495 370 488 C 393 480 413 471 431 460 C 449 448 464 435 476 420 C 488 405 497 390 504 376 L 429 340 C 417 362 399 382 377 399 C 355 415 325 424 289 424 C 264 424 241 419 221 409 C 201 399 183 386 169 370 C 154 354 143 335 135 313 C 127 291 123 267 123 243 C 123 191 138 149 168 115 C 198 81 239 64 290 64 C 332 64 364 73 387 92 C 409 111 426 130 438 149 Z M 284 546 L 284 546 Z M 182 546 L 288 710 L 387 710 L 266 546 L 182 546 Z" unicode="ć" />
<glyph horiz-adv-x="730" d="M 48 0 L 48 0 Z M 409 -12 C 360 -12 314 -3 270 14 C 226 31 188 56 155 88 C 122 120 96 160 77 207 C 57 253 48 306 48 365 C 48 419 57 469 75 515 C 93 561 119 601 151 635 C 183 668 221 694 266 713 C 310 732 359 742 411 742 C 477 742 533 732 579 712 C 625 692 663 665 694 629 L 632 564 C 609 590 580 613 544 631 C 508 649 465 658 413 658 C 371 658 333 650 299 636 C 265 622 236 602 213 576 C 189 550 171 519 159 483 C 146 447 140 407 140 365 C 140 317 147 274 163 237 C 179 200 199 169 225 145 C 250 120 279 101 313 89 C 346 76 380 70 416 70 C 470 70 516 80 555 101 C 593 122 625 149 650 181 L 709 127 C 679 87 639 54 587 28 C 535 1 476 -12 409 -12 Z M 410 787 L 410 787 Z M 576 787 L 498 787 L 410 903 L 321 787 L 245 787 L 368 958 L 453 958 L 576 787 Z" unicode="Ĉ" />
<glyph horiz-adv-x="525" d="M 36 0 L 36 0 Z M 438 149 L 506 107 C 497 93 486 79 474 65 C 461 51 446 38 429 27 C 411 15 391 6 368 0 C 344 -7 318 -11 288 -11 C 250 -11 216 -4 185 8 C 154 20 128 38 106 60 C 84 82 66 109 54 141 C 42 172 36 206 36 242 C 36 278 42 311 55 343 C 68 374 86 401 109 424 C 131 447 158 465 190 479 C 221 492 255 499 291 499 C 320 499 346 495 370 488 C 393 480 413 471 431 460 C 449 448 464 435 476 420 C 488 405 497 390 504 376 L 429 340 C 417 362 399 382 377 399 C 355 415 325 424 289 424 C 264 424 241 419 221 409 C 201 399 183 386 169 370 C 154 354 143 335 135 313 C 127 291 123 267 123 243 C 123 191 138 149 168 115 C 198 81 239 64 290 64 C 332 64 364 73 387 92 C 409 111 426 130 438 149 Z M 284 543 L 284 543 Z M 450 543 L 372 543 L 284 659 L 195 543 L 119 543 L 242 714 L 327 714 L 450 543 Z" unicode="ĉ" />
<glyph horiz-adv-x="730" d="M 48 0 L 48 0 Z M 409 -12 C 360 -12 314 -3 270 14 C 226 31 188 56 155 88 C 122 120 96 160 77 207 C 57 253 48 306 48 365 C 48 419 57 469 75 515 C 93 561 119 601 151 635 C 183 668 221 694 266 713 C 310 732 359 742 411 742 C 477 742 533 732 579 712 C 625 692 663 665 694 629 L 632 564 C 609 590 580 613 544 631 C 508 649 465 658 413 658 C 371 658 333 650 299 636 C 265 622 236 602 213 576 C 189 550 171 519 159 483 C 146 447 140 407 140 365 C 140 317 147 274 163 237 C 179 200 199 169 225 145 C 250 120 279 101 313 89 C 346 76 380 70 416 70 C 470 70 516 80 555 101 C 593 122 625 149 650 181 L 709 127 C 679 87 639 54 587 28 C 535 1 476 -12 409 -12 Z M 410 787 L 410 787 Z M 449 787 L 372 787 L 372 951 L 449 951 L 449 787 Z" unicode="Ċ" />
<glyph horiz-adv-x="525" d="M 36 0 L 36 0 Z M 438 149 L 506 107 C 497 93 486 79 474 65 C 461 51 446 38 429 27 C 411 15 391 6 368 0 C 344 -7 318 -11 288 -11 C 250 -11 216 -4 185 8 C 154 20 128 38 106 60 C 84 82 66 109 54 141 C 42 172 36 206 36 242 C 36 278 42 311 55 343 C 68 374 86 401 109 424 C 131 447 158 465 190 479 C 221 492 255 499 291 499 C 320 499 346 495 370 488 C 393 480 413 471 431 460 C 449 448 464 435 476 420 C 488 405 497 390 504 376 L 429 340 C 417 362 399 382 377 399 C 355 415 325 424 289 424 C 264 424 241 419 221 409 C 201 399 183 386 169 370 C 154 354 143 335 135 313 C 127 291 123 267 123 243 C 123 191 138 149 168 115 C 198 81 239 64 290 64 C 332 64 364 73 387 92 C 409 111 426 130 438 149 Z M 284 543 L 284 543 Z M 323 543 L 246 543 L 246 707 L 323 707 L 323 543 Z" unicode="ċ" />
<glyph horiz-adv-x="730" d="M 48 0 L 48 0 Z M 409 -12 C 360 -12 314 -3 270 14 C 226 31 188 56 155 88 C 122 120 96 160 77 207 C 57 253 48 306 48 365 C 48 419 57 469 75 515 C 93 561 119 601 151 635 C 183 668 221 694 266 713 C 310 732 359 742 411 742 C 477 742 533 732 579 712 C 625 692 663 665 694 629 L 632 564 C 609 590 580 613 544 631 C 508 649 465 658 413 658 C 371 658 333 650 299 636 C 265 622 236 602 213 576 C 189 550 171 519 159 483 C 146 447 140 407 140 365 C 140 317 147 274 163 237 C 179 200 199 169 225 145 C 250 120 279 101 313 89 C 346 76 380 70 416 70 C 470 70 516 80 555 101 C 593 122 625 149 650 181 L 709 127 C 679 87 639 54 587 28 C 535 1 476 -12 409 -12 Z M 410 787 L 410 787 Z M 245 958 L 323 958 L 411 842 L 500 958 L 576 958 L 453 787 L 368 787 L 245 958 Z" unicode="Č" />
<glyph horiz-adv-x="525" d="M 36 0 L 36 0 Z M 438 149 L 506 107 C 497 93 486 79 474 65 C 461 51 446 38 429 27 C 411 15 391 6 368 0 C 344 -7 318 -11 288 -11 C 250 -11 216 -4 185 8 C 154 20 128 38 106 60 C 84 82 66 109 54 141 C 42 172 36 206 36 242 C 36 278 42 311 55 343 C 68 374 86 401 109 424 C 131 447 158 465 190 479 C 221 492 255 499 291 499 C 320 499 346 495 370 488 C 393 480 413 471 431 460 C 449 448 464 435 476 420 C 488 405 497 390 504 376 L 429 340 C 417 362 399 382 377 399 C 355 415 325 424 289 424 C 264 424 241 419 221 409 C 201 399 183 386 169 370 C 154 354 143 335 135 313 C 127 291 123 267 123 243 C 123 191 138 149 168 115 C 198 81 239 64 290 64 C 332 64 364 73 387 92 C 409 111 426 130 438 149 Z M 284 543 L 284 543 Z M 119 714 L 197 714 L 285 598 L 374 714 L 450 714 L 327 543 L 242 543 L 119 714 Z" unicode="č" />
<glyph horiz-adv-x="747" d="M 97 0 L 97 0 Z M 97 0 L 97 730 L 311 730 C 371 730 425 721 473 705 C 521 688 562 664 595 634 C 628 604 653 567 671 523 C 689 479 698 431 698 379 C 698 325 689 275 672 229 C 654 183 629 143 596 109 C 562 75 520 48 470 29 C 420 9 362 0 296 0 L 97 0 Z M 187 76 L 293 76 C 345 76 391 83 430 99 C 469 114 501 135 527 162 C 553 189 572 221 585 258 C 597 295 604 335 604 377 C 604 459 577 526 524 577 C 471 627 399 653 307 653 L 187 653 L 187 76 Z M 352 787 L 352 787 Z M 187 958 L 265 958 L 353 842 L 442 958 L 518 958 L 395 787 L 310 787 L 187 958 Z" unicode="Ď" />
<glyph horiz-adv-x="599" d="M 36 0 L 36 0 Z M 264 -9 C 230 -9 199 -2 171 9 C 143 21 119 38 99 60 C 79 82 63 108 52 139 C 41 169 36 203 36 239 C 36 276 42 311 54 343 C 66 375 83 402 104 425 C 125 448 150 466 178 479 C 206 492 237 499 269 499 C 311 499 347 488 378 466 C 408 444 429 419 440 391 L 440 765 L 522 765 L 522 0 L 444 0 L 444 114 C 440 100 432 85 422 71 C 412 57 399 44 384 32 C 368 20 350 10 330 2 C 310 -5 288 -9 264 -9 Z M 283 59 C 328 59 366 76 396 112 C 426 147 442 192 442 248 C 442 278 437 304 428 327 C 419 349 407 368 393 384 C 378 399 361 410 342 418 C 323 426 303 430 283 430 C 235 430 196 412 167 378 C 137 344 123 299 123 244 C 123 218 126 193 133 171 C 140 148 150 128 164 112 C 178 96 195 83 215 73 C 235 63 257 59 283 59 Z M 658 613 L 654 473 L 584 473 L 579 613 L 579 730 L 658 730 L 658 613 Z" unicode="ď" />
<glyph horiz-adv-x="747" d="M 35 0 L 35 0 Z M 698 367 C 698 316 689 268 672 224 C 654 179 629 140 596 107 C 562 74 520 48 470 29 C 420 9 362 0 296 0 L 97 0 L 97 322 L 35 322 L 35 392 L 97 392 L 97 730 L 311 730 C 371 730 426 721 474 704 C 522 687 563 663 596 632 C 628 600 653 562 671 517 C 689 472 698 422 698 367 Z M 185 74 L 288 74 C 344 74 393 82 433 98 C 473 114 506 136 532 163 C 557 190 575 221 587 256 C 599 291 605 327 605 365 C 605 455 578 525 526 577 C 473 629 401 655 310 655 L 185 655 L 185 392 L 375 392 L 375 322 L 185 322 L 185 74 Z" unicode="Đ" />
<glyph horiz-adv-x="599" d="M 444 114 C 440 100 432 85 422 71 C 412 57 399 44 384 32 C 368 20 350 10 330 2 C 310 -5 288 -9 264 -9 C 230 -9 199 -2 171 9 C 143 21 119 38 99 60 C 79 82 63 108 52 139 C 41 169 36 203 36 239 C 36 276 42 311 54 343 C 66 375 83 402 104 425 C 125 448 150 466 178 479 C 206 492 237 499 269 499 C 311 499 347 488 378 466 C 408 444 429 419 440 391 L 440 590 L 287 590 L 287 662 L 440 662 L 440 765 L 522 765 L 522 662 L 592 662 L 592 590 L 522 590 L 522 0 L 444 0 L 444 114 Z M 283 59 C 328 59 366 76 396 112 C 426 147 442 192 442 248 C 442 278 437 304 428 327 C 419 349 407 368 393 384 C 378 399 361 410 342 418 C 323 426 303 430 283 430 C 235 430 196 412 167 378 C 137 344 123 299 123 244 C 123 218 126 193 133 171 C 140 148 150 128 164 112 C 178 96 195 83 215 73 C 235 63 257 59 283 59 Z" unicode="đ" />
<glyph horiz-adv-x="582" d="M 97 0 L 97 0 Z M 526 0 L 97 0 L 97 730 L 507 730 L 507 650 L 186 650 L 186 402 L 493 402 L 493 323 L 186 323 L 186 80 L 526 80 L 526 0 Z M 307 808 L 307 808 Z M 436 808 L 178 808 L 178 875 L 436 875 L 436 808 Z" unicode="Ē" />
<glyph horiz-adv-x="563" d="M 37 0 L 37 0 Z M 296 -11 C 258 -11 224 -5 192 6 C 160 17 133 33 110 55 C 87 77 69 103 56 135 C 43 166 37 202 37 242 C 37 277 43 310 56 342 C 68 373 86 400 108 423 C 130 446 157 464 188 478 C 219 492 253 499 290 499 C 362 499 420 474 466 425 C 511 375 534 306 534 218 L 118 218 C 120 172 136 135 168 106 C 199 76 241 62 295 62 C 339 62 373 69 398 83 C 422 97 442 112 458 130 L 510 76 C 488 52 461 31 429 14 C 397 -2 352 -11 296 -11 Z M 119 282 L 450 282 C 449 322 434 356 404 385 C 374 413 335 428 287 428 C 263 428 241 424 221 416 C 201 408 183 397 169 384 C 155 370 143 355 135 337 C 126 319 121 301 119 282 Z M 286 564 L 286 564 Z M 415 564 L 157 564 L 157 631 L 415 631 L 415 564 Z" unicode="ē" />
<glyph horiz-adv-x="582" d="M 97 0 L 97 0 Z M 526 0 L 97 0 L 97 730 L 507 730 L 507 650 L 186 650 L 186 402 L 493 402 L 493 323 L 186 323 L 186 80 L 526 80 L 526 0 Z M 307 792 L 307 792 Z M 392 949 L 462 949 C 458 894 441 854 413 829 C 384 804 349 792 307 792 C 265 792 229 804 201 829 C 172 854 156 894 152 949 L 222 949 C 224 918 232 893 245 873 C 258 853 279 844 307 844 C 335 844 355 853 369 872 C 382 890 390 916 392 949 Z" unicode="Ĕ" />
<glyph horiz-adv-x="563" d="M 37 0 L 37 0 Z M 296 -11 C 258 -11 224 -5 192 6 C 160 17 133 33 110 55 C 87 77 69 103 56 135 C 43 166 37 202 37 242 C 37 277 43 310 56 342 C 68 373 86 400 108 423 C 130 446 157 464 188 478 C 219 492 253 499 290 499 C 362 499 420 474 466 425 C 511 375 534 306 534 218 L 118 218 C 120 172 136 135 168 106 C 199 76 241 62 295 62 C 339 62 373 69 398 83 C 422 97 442 112 458 130 L 510 76 C 488 52 461 31 429 14 C 397 -2 352 -11 296 -11 Z M 119 282 L 450 282 C 449 322 434 356 404 385 C 374 413 335 428 287 428 C 263 428 241 424 221 416 C 201 408 183 397 169 384 C 155 370 143 355 135 337 C 126 319 121 301 119 282 Z M 286 548 L 286 548 Z M 371 705 L 441 705 C 437 650 420 610 392 585 C 363 560 328 548 286 548 C 244 548 208 560 180 585 C 151 610 135 650 131 705 L 201 705 C 203 674 211 649 224 629 C 237 609 258 600 286 600 C 314 600 334 609 348 628 C 361 646 369 672 371 705 Z" unicode="ĕ" />
<glyph horiz-adv-x="582" d="M 97 0 L 97 0 Z M 526 0 L 97 0 L 97 730 L 507 730 L 507 650 L 186 650 L 186 402 L 493 402 L 493 323 L 186 323 L 186 80 L 526 80 L 526 0 Z M 307 787 L 307 787 Z M 346 787 L 269 787 L 269 951 L 346 951 L 346 787 Z" unicode="Ė" />
<glyph horiz-adv-x="563" d="M 37 0 L 37 0 Z M 296 -11 C 258 -11 224 -5 192 6 C 160 17 133 33 110 55 C 87 77 69 103 56 135 C 43 166 37 202 37 242 C 37 277 43 310 56 342 C 68 373 86 400 108 423 C 130 446 157 464 188 478 C 219 492 253 499 290 499 C 362 499 420 474 466 425 C 511 375 534 306 534 218 L 118 218 C 120 172 136 135 168 106 C 199 76 241 62 295 62 C 339 62 373 69 398 83 C 422 97 442 112 458 130 L 510 76 C 488 52 461 31 429 14 C 397 -2 352 -11 296 -11 Z M 119 282 L 450 282 C 449 322 434 356 404 385 C 374 413 335 428 287 428 C 263 428 241 424 221 416 C 201 408 183 397 169 384 C 155 370 143 355 135 337 C 126 319 121 301 119 282 Z M 286 543 L 286 543 Z M 325 543 L 248 543 L 248 707 L 325 707 L 325 543 Z" unicode="ė" />
<glyph horiz-adv-x="582" d="M 97 0 L 97 0 Z M 526 0 L 97 0 L 97 730 L 507 730 L 507 650 L 186 650 L 186 402 L 493 402 L 493 323 L 186 323 L 186 80 L 526 80 L 526 0 Z M 485 -8 L 485 -8 Z M 594 -100 L 618 -135 C 598 -155 576 -170 551 -181 C 525 -191 497 -197 467 -197 C 433 -197 406 -189 386 -175 C 366 -160 357 -142 357 -120 C 357 -96 368 -73 390 -52 C 412 -30 442 -12 482 3 L 526 2 C 496 -12 472 -26 454 -41 C 436 -56 428 -71 428 -87 C 428 -101 434 -113 447 -122 C 459 -130 475 -135 494 -135 C 514 -135 533 -131 551 -125 C 569 -119 583 -110 594 -100 Z" unicode="Ę" />
<glyph horiz-adv-x="563" d="M 37 0 L 37 0 Z M 296 -11 C 258 -11 224 -5 192 6 C 160 17 133 33 110 55 C 87 77 69 103 56 135 C 43 166 37 202 37 242 C 37 277 43 310 56 342 C 68 373 86 400 108 423 C 130 446 157 464 188 478 C 219 492 253 499 290 499 C 362 499 420 474 466 425 C 511 375 534 306 534 218 L 118 218 C 120 172 136 135 168 106 C 199 76 241 62 295 62 C 339 62 373 69 398 83 C 422 97 442 112 458 130 L 510 76 C 488 52 461 31 429 14 C 397 -2 352 -11 296 -11 Z M 119 282 L 450 282 C 449 322 434 356 404 385 C 374 413 335 428 287 428 C 263 428 241 424 221 416 C 201 408 183 397 169 384 C 155 370 143 355 135 337 C 126 319 121 301 119 282 Z M 353 -8 L 353 -8 Z M 462 -100 L 486 -135 C 466 -155 444 -170 419 -181 C 393 -191 365 -197 335 -197 C 301 -197 274 -189 254 -175 C 234 -160 225 -142 225 -120 C 225 -96 236 -73 258 -52 C 280 -30 310 -12 350 3 L 394 2 C 364 -12 340 -26 322 -41 C 304 -56 296 -71 296 -87 C 296 -101 302 -113 315 -122 C 327 -130 343 -135 362 -135 C 382 -135 401 -131 419 -125 C 437 -119 451 -110 462 -100 Z" unicode="ę" />
<glyph horiz-adv-x="582" d="M 97 0 L 97 0 Z M 526 0 L 97 0 L 97 730 L 507 730 L 507 650 L 186 650 L 186 402 L 493 402 L 493 323 L 186 323 L 186 80 L 526 80 L 526 0 Z M 307 787 L 307 787 Z M 142 958 L 220 958 L 308 842 L 397 958 L 473 958 L 350 787 L 265 787 L 142 958 Z" unicode="Ě" />
<glyph horiz-adv-x="563" d="M 37 0 L 37 0 Z M 296 -11 C 258 -11 224 -5 192 6 C 160 17 133 33 110 55 C 87 77 69 103 56 135 C 43 166 37 202 37 242 C 37 277 43 310 56 342 C 68 373 86 400 108 423 C 130 446 157 464 188 478 C 219 492 253 499 290 499 C 362 499 420 474 466 425 C 511 375 534 306 534 218 L 118 218 C 120 172 136 135 168 106 C 199 76 241 62 295 62 C 339 62 373 69 398 83 C 422 97 442 112 458 130 L 510 76 C 488 52 461 31 429 14 C 397 -2 352 -11 296 -11 Z M 119 282 L 450 282 C 449 322 434 356 404 385 C 374 413 335 428 287 428 C 263 428 241 424 221 416 C 201 408 183 397 169 384 C 155 370 143 355 135 337 C 126 319 121 301 119 282 Z M 286 543 L 286 543 Z M 121 714 L 199 714 L 287 598 L 376 714 L 452 714 L 329 543 L 244 543 L 121 714 Z" unicode="ě" />
<glyph horiz-adv-x="785" d="M 48 0 L 48 0 Z M 426 363 L 734 363 L 734 152 C 705 102 663 62 608 32 C 552 2 489 -12 418 -12 C 366 -12 317 -2 272 15 C 227 33 188 59 155 92 C 121 125 95 165 76 212 C 57 258 48 309 48 365 C 48 422 58 474 78 521 C 98 567 124 607 158 640 C 192 672 231 697 277 715 C 322 733 370 742 420 742 C 491 742 548 730 591 708 C 633 686 666 662 689 638 L 630 574 C 609 595 582 614 548 632 C 514 649 470 658 416 658 C 377 658 341 651 307 637 C 273 623 243 604 219 579 C 194 553 174 523 160 487 C 146 451 139 410 139 366 C 139 323 146 283 161 246 C 175 209 195 177 220 151 C 245 124 275 103 310 88 C 344 72 381 65 421 65 C 473 65 519 75 561 96 C 603 116 633 145 653 181 L 653 283 L 426 283 L 426 363 Z M 420 787 L 420 787 Z M 586 787 L 508 787 L 420 903 L 331 787 L 255 787 L 378 958 L 463 958 L 586 787 Z" unicode="Ĝ" />
<glyph horiz-adv-x="596" d="M 37 0 L 37 0 Z M 263 -1 C 229 -1 199 5 171 17 C 143 29 119 46 99 68 C 79 90 64 116 53 146 C 42 176 37 209 37 245 C 37 282 42 316 54 347 C 65 378 81 405 101 427 C 121 449 145 467 173 479 C 201 491 232 498 266 498 C 309 498 347 487 379 465 C 411 443 433 417 444 387 L 444 486 L 522 486 L 522 54 C 522 10 514 -27 499 -59 C 484 -91 465 -117 441 -137 C 417 -157 389 -172 358 -182 C 327 -192 296 -197 264 -197 C 214 -197 175 -192 147 -183 C 119 -173 97 -164 83 -156 L 118 -89 C 128 -96 145 -104 169 -114 C 193 -123 222 -128 256 -128 C 280 -128 304 -124 326 -117 C 348 -110 368 -100 385 -86 C 401 -72 415 -54 425 -32 C 435 -10 440 14 440 43 L 440 121 C 435 106 427 91 417 77 C 406 62 393 49 378 38 C 363 26 346 17 326 10 C 306 2 285 -1 263 -1 Z M 285 65 C 305 65 324 69 343 77 C 362 85 379 97 393 113 C 407 129 419 148 428 172 C 437 195 442 221 442 251 C 442 305 426 347 395 379 C 363 411 326 427 282 427 C 236 427 198 410 168 376 C 138 342 123 298 123 243 C 123 189 137 145 166 113 C 195 81 235 65 285 65 Z M 275 543 L 275 543 Z M 441 543 L 363 543 L 275 659 L 186 543 L 110 543 L 233 714 L 318 714 L 441 543 Z" unicode="ĝ" />
<glyph horiz-adv-x="785" d="M 48 0 L 48 0 Z M 426 363 L 734 363 L 734 152 C 705 102 663 62 608 32 C 552 2 489 -12 418 -12 C 366 -12 317 -2 272 15 C 227 33 188 59 155 92 C 121 125 95 165 76 212 C 57 258 48 309 48 365 C 48 422 58 474 78 521 C 98 567 124 607 158 640 C 192 672 231 697 277 715 C 322 733 370 742 420 742 C 491 742 548 730 591 708 C 633 686 666 662 689 638 L 630 574 C 609 595 582 614 548 632 C 514 649 470 658 416 658 C 377 658 341 651 307 637 C 273 623 243 604 219 579 C 194 553 174 523 160 487 C 146 451 139 410 139 366 C 139 323 146 283 161 246 C 175 209 195 177 220 151 C 245 124 275 103 310 88 C 344 72 381 65 421 65 C 473 65 519 75 561 96 C 603 116 633 145 653 181 L 653 283 L 426 283 L 426 363 Z M 420 792 L 420 792 Z M 505 949 L 575 949 C 571 894 554 854 526 829 C 497 804 462 792 420 792 C 378 792 342 804 314 829 C 285 854 269 894 265 949 L 335 949 C 337 918 345 893 358 873 C 371 853 392 844 420 844 C 448 844 468 853 482 872 C 495 890 503 916 505 949 Z" unicode="Ğ" />
<glyph horiz-adv-x="596" d="M 37 0 L 37 0 Z M 263 -1 C 229 -1 199 5 171 17 C 143 29 119 46 99 68 C 79 90 64 116 53 146 C 42 176 37 209 37 245 C 37 282 42 316 54 347 C 65 378 81 405 101 427 C 121 449 145 467 173 479 C 201 491 232 498 266 498 C 309 498 347 487 379 465 C 411 443 433 417 444 387 L 444 486 L 522 486 L 522 54 C 522 10 514 -27 499 -59 C 484 -91 465 -117 441 -137 C 417 -157 389 -172 358 -182 C 327 -192 296 -197 264 -197 C 214 -197 175 -192 147 -183 C 119 -173 97 -164 83 -156 L 118 -89 C 128 -96 145 -104 169 -114 C 193 -123 222 -128 256 -128 C 280 -128 304 -124 326 -117 C 348 -110 368 -100 385 -86 C 401 -72 415 -54 425 -32 C 435 -10 440 14 440 43 L 440 121 C 435 106 427 91 417 77 C 406 62 393 49 378 38 C 363 26 346 17 326 10 C 306 2 285 -1 263 -1 Z M 285 65 C 305 65 324 69 343 77 C 362 85 379 97 393 113 C 407 129 419 148 428 172 C 437 195 442 221 442 251 C 442 305 426 347 395 379 C 363 411 326 427 282 427 C 236 427 198 410 168 376 C 138 342 123 298 123 243 C 123 189 137 145 166 113 C 195 81 235 65 285 65 Z M 275 548 L 275 548 Z M 360 705 L 430 705 C 426 650 409 610 381 585 C 352 560 317 548 275 548 C 233 548 197 560 169 585 C 140 610 124 650 120 705 L 190 705 C 192 674 200 649 213 629 C 226 609 247 600 275 600 C 303 600 323 609 337 628 C 350 646 358 672 360 705 Z" unicode="ğ" />
<glyph horiz-adv-x="785" d="M 48 0 L 48 0 Z M 426 363 L 734 363 L 734 152 C 705 102 663 62 608 32 C 552 2 489 -12 418 -12 C 366 -12 317 -2 272 15 C 227 33 188 59 155 92 C 121 125 95 165 76 212 C 57 258 48 309 48 365 C 48 422 58 474 78 521 C 98 567 124 607 158 640 C 192 672 231 697 277 715 C 322 733 370 742 420 742 C 491 742 548 730 591 708 C 633 686 666 662 689 638 L 630 574 C 609 595 582 614 548 632 C 514 649 470 658 416 658 C 377 658 341 651 307 637 C 273 623 243 604 219 579 C 194 553 174 523 160 487 C 146 451 139 410 139 366 C 139 323 146 283 161 246 C 175 209 195 177 220 151 C 245 124 275 103 310 88 C 344 72 381 65 421 65 C 473 65 519 75 561 96 C 603 116 633 145 653 181 L 653 283 L 426 283 L 426 363 Z M 420 787 L 420 787 Z M 459 787 L 382 787 L 382 951 L 459 951 L 459 787 Z" unicode="Ġ" />
<glyph horiz-adv-x="596" d="M 37 0 L 37 0 Z M 263 -1 C 229 -1 199 5 171 17 C 143 29 119 46 99 68 C 79 90 64 116 53 146 C 42 176 37 209 37 245 C 37 282 42 316 54 347 C 65 378 81 405 101 427 C 121 449 145 467 173 479 C 201 491 232 498 266 498 C 309 498 347 487 379 465 C 411 443 433 417 444 387 L 444 486 L 522 486 L 522 54 C 522 10 514 -27 499 -59 C 484 -91 465 -117 441 -137 C 417 -157 389 -172 358 -182 C 327 -192 296 -197 264 -197 C 214 -197 175 -192 147 -183 C 119 -173 97 -164 83 -156 L 118 -89 C 128 -96 145 -104 169 -114 C 193 -123 222 -128 256 -128 C 280 -128 304 -124 326 -117 C 348 -110 368 -100 385 -86 C 401 -72 415 -54 425 -32 C 435 -10 440 14 440 43 L 440 121 C 435 106 427 91 417 77 C 406 62 393 49 378 38 C 363 26 346 17 326 10 C 306 2 285 -1 263 -1 Z M 285 65 C 305 65 324 69 343 77 C 362 85 379 97 393 113 C 407 129 419 148 428 172 C 437 195 442 221 442 251 C 442 305 426 347 395 379 C 363 411 326 427 282 427 C 236 427 198 410 168 376 C 138 342 123 298 123 243 C 123 189 137 145 166 113 C 195 81 235 65 285 65 Z M 275 543 L 275 543 Z M 314 543 L 237 543 L 237 707 L 314 707 L 314 543 Z" unicode="ġ" />
<glyph horiz-adv-x="785" d="M 48 0 L 48 0 Z M 426 363 L 734 363 L 734 152 C 705 102 663 62 608 32 C 552 2 489 -12 418 -12 C 366 -12 317 -2 272 15 C 227 33 188 59 155 92 C 121 125 95 165 76 212 C 57 258 48 309 48 365 C 48 422 58 474 78 521 C 98 567 124 607 158 640 C 192 672 231 697 277 715 C 322 733 370 742 420 742 C 491 742 548 730 591 708 C 633 686 666 662 689 638 L 630 574 C 609 595 582 614 548 632 C 514 649 470 658 416 658 C 377 658 341 651 307 637 C 273 623 243 604 219 579 C 194 553 174 523 160 487 C 146 451 139 410 139 366 C 139 323 146 283 161 246 C 175 209 195 177 220 151 C 245 124 275 103 310 88 C 344 72 381 65 421 65 C 473 65 519 75 561 96 C 603 116 633 145 653 181 L 653 283 L 426 283 L 426 363 Z" unicode="Ģ" />
<glyph horiz-adv-x="596" d="M 37 0 L 37 0 Z M 263 -1 C 229 -1 199 5 171 17 C 143 29 119 46 99 68 C 79 90 64 116 53 146 C 42 176 37 209 37 245 C 37 282 42 316 54 347 C 65 378 81 405 101 427 C 121 449 145 467 173 479 C 201 491 232 498 266 498 C 309 498 347 487 379 465 C 411 443 433 417 444 387 L 444 486 L 522 486 L 522 54 C 522 10 514 -27 499 -59 C 484 -91 465 -117 441 -137 C 417 -157 389 -172 358 -182 C 327 -192 296 -197 264 -197 C 214 -197 175 -192 147 -183 C 119 -173 97 -164 83 -156 L 118 -89 C 128 -96 145 -104 169 -114 C 193 -123 222 -128 256 -128 C 280 -128 304 -124 326 -117 C 348 -110 368 -100 385 -86 C 401 -72 415 -54 425 -32 C 435 -10 440 14 440 43 L 440 121 C 435 106 427 91 417 77 C 406 62 393 49 378 38 C 363 26 346 17 326 10 C 306 2 285 -1 263 -1 Z M 285 65 C 305 65 324 69 343 77 C 362 85 379 97 393 113 C 407 129 419 148 428 172 C 437 195 442 221 442 251 C 442 305 426 347 395 379 C 363 411 326 427 282 427 C 236 427 198 410 168 376 C 138 342 123 298 123 243 C 123 189 137 145 166 113 C 195 81 235 65 285 65 Z" unicode="ģ" />
<glyph horiz-adv-x="762" d="M 97 0 L 97 0 Z M 665 0 L 575 0 L 575 320 L 187 320 L 187 0 L 97 0 L 97 730 L 187 730 L 187 401 L 575 401 L 575 730 L 665 730 L 665 0 Z M 380 787 L 380 787 Z M 546 787 L 468 787 L 380 903 L 291 787 L 215 787 L 338 958 L 423 958 L 546 787 Z" unicode="Ĥ" />
<glyph horiz-adv-x="580" d="M 77 0 L 77 0 Z M 509 0 L 426 0 L 426 323 C 426 356 414 382 391 401 C 368 419 340 429 306 429 C 288 429 271 426 253 420 C 235 414 220 406 206 395 C 192 384 181 370 173 354 C 165 337 161 317 161 295 L 161 0 L 77 0 L 77 765 L 155 765 L 155 388 C 163 418 184 444 216 466 C 248 488 288 499 335 499 C 383 499 424 485 458 458 C 492 430 509 392 509 342 L 509 0 Z M 313 822 L 313 822 Z M 479 822 L 401 822 L 313 938 L 224 822 L 148 822 L 271 993 L 356 993 L 479 822 Z" unicode="ĥ" />
<glyph horiz-adv-x="762" d="M 187 320 L 187 0 L 97 0 L 97 550 L 11 550 L 11 621 L 97 621 L 97 730 L 187 730 L 187 621 L 575 621 L 575 730 L 665 730 L 665 621 L 752 621 L 752 550 L 665 550 L 665 0 L 575 0 L 575 320 L 187 320 Z M 187 401 L 575 401 L 575 550 L 187 550 L 187 401 Z" unicode="Ħ" />
<glyph horiz-adv-x="580" d="M 161 295 L 161 0 L 77 0 L 77 591 L 8 591 L 8 662 L 77 662 L 77 765 L 155 765 L 155 662 L 316 662 L 316 591 L 155 591 L 155 388 C 163 418 184 444 216 466 C 248 488 288 499 335 499 C 383 499 424 485 458 458 C 492 430 509 392 509 342 L 509 0 L 426 0 L 426 323 C 426 356 414 382 391 401 C 368 419 340 429 306 429 C 288 429 271 426 253 420 C 235 414 220 406 206 395 C 192 384 181 370 173 354 C 165 337 161 317 161 295 Z" unicode="ħ" />
<glyph horiz-adv-x="293" d="M 0 0 L 0 0 Z M 192 0 L 102 0 L 102 730 L 192 730 L 192 0 Z M 146 794 L 146 794 Z M 248 928 L 313 928 C 313 882 306 848 292 826 C 278 804 260 794 237 794 C 218 794 201 797 187 805 C 173 813 160 821 150 830 C 139 838 128 845 118 853 C 107 861 96 865 86 865 C 75 865 66 859 59 847 C 51 835 47 819 47 798 L -17 798 C -17 843 -7 877 10 899 C 28 921 48 932 69 932 C 85 932 100 928 113 920 C 126 912 139 903 151 894 C 161 885 171 877 181 870 C 191 863 201 860 211 860 C 221 860 229 866 236 878 C 243 890 247 906 248 928 Z" unicode="Ĩ" />
<glyph horiz-adv-x="246" d="M 0 0 L 0 0 Z M 165 0 L 81 0 L 81 486 L 165 486 L 165 0 Z M 122 550 L 122 550 Z M 224 684 L 289 684 C 289 638 282 604 268 582 C 254 560 236 550 213 550 C 194 550 177 553 163 561 C 149 569 136 577 126 586 C 115 594 104 601 94 609 C 83 617 72 621 62 621 C 51 621 42 615 35 603 C 27 591 23 575 23 554 L -41 554 C -41 599 -31 633 -13 655 C 4 677 24 688 45 688 C 61 688 76 684 89 676 C 102 668 115 659 127 650 C 137 641 147 633 157 626 C 167 619 177 616 187 616 C 197 616 205 622 212 634 C 219 646 223 662 224 684 Z" unicode="ĩ" />
<glyph horiz-adv-x="293" d="M 17 0 L 17 0 Z M 192 0 L 102 0 L 102 730 L 192 730 L 192 0 Z M 146 808 L 146 808 Z M 275 808 L 17 808 L 17 875 L 275 875 L 275 808 Z" unicode="Ī" />
<glyph horiz-adv-x="246" d="M 0 0 L 0 0 Z M 165 0 L 81 0 L 81 486 L 165 486 L 165 0 Z M 122 564 L 122 564 Z M 251 564 L -7 564 L -7 631 L 251 631 L 251 564 Z" unicode="ī" />
<glyph horiz-adv-x="293" d="M 0 0 L 0 0 Z M 192 0 L 102 0 L 102 730 L 192 730 L 192 0 Z M 146 792 L 146 792 Z M 231 949 L 301 949 C 297 894 280 854 252 829 C 223 804 188 792 146 792 C 104 792 68 804 40 829 C 11 854 -5 894 -9 949 L 61 949 C 63 918 71 893 84 873 C 97 853 118 844 146 844 C 174 844 194 853 208 872 C 221 890 229 916 231 949 Z" unicode="Ĭ" />
<glyph horiz-adv-x="246" d="M 0 0 L 0 0 Z M 165 0 L 81 0 L 81 486 L 165 486 L 165 0 Z M 122 548 L 122 548 Z M 207 705 L 277 705 C 273 650 256 610 228 585 C 199 560 164 548 122 548 C 80 548 44 560 16 585 C -12 610 -29 650 -33 705 L 37 705 C 39 674 47 649 60 629 C 73 609 94 600 122 600 C 150 600 170 609 184 628 C 197 646 205 672 207 705 Z" unicode="ĭ" />
<glyph horiz-adv-x="293" d="M 0 0 L 0 0 Z M 192 0 L 102 0 L 102 730 L 192 730 L 192 0 Z M 106 -10 L 106 -10 Z M 215 -102 L 239 -137 C 219 -157 197 -172 172 -183 C 146 -193 118 -199 88 -199 C 54 -199 27 -191 7 -177 C -12 -162 -22 -144 -22 -122 C -22 -98 -11 -75 11 -54 C 33 -32 63 -14 103 1 L 147 0 C 117 -14 93 -28 75 -43 C 57 -58 49 -73 49 -89 C 49 -103 55 -115 68 -124 C 80 -132 96 -137 115 -137 C 135 -137 154 -133 172 -127 C 190 -121 204 -112 215 -102 Z" unicode="Į" />
<glyph horiz-adv-x="246" d="M 0 0 L 0 0 Z M 79 600 L 79 693 L 167 693 L 167 600 L 79 600 Z M 81 0 L 81 486 L 165 486 L 165 0 L 81 0 Z M 90 -8 L 90 -8 Z M 199 -100 L 223 -135 C 203 -155 181 -170 156 -181 C 130 -191 102 -197 72 -197 C 38 -197 11 -189 -8 -175 C -28 -160 -38 -142 -38 -120 C -38 -96 -27 -73 -5 -52 C 17 -30 47 -12 87 3 L 131 2 C 101 -12 77 -26 59 -41 C 41 -56 33 -71 33 -87 C 33 -101 39 -113 52 -122 C 64 -130 80 -135 99 -135 C 119 -135 138 -131 156 -125 C 174 -119 188 -110 199 -100 Z" unicode="į" />
<glyph horiz-adv-x="293" d="M 102 0 L 102 0 Z M 192 0 L 102 0 L 102 730 L 192 730 L 192 0 Z M 146 787 L 146 787 Z M 185 787 L 108 787 L 108 951 L 185 951 L 185 787 Z" unicode="İ" />
<glyph horiz-adv-x="246" d="M 165 0 L 81 0 L 81 486 L 165 486 L 165 0 Z" unicode="ı" />
<glyph horiz-adv-x="628" d="M 102 0 L 102 0 Z M 192 0 L 102 0 L 102 730 L 192 730 L 192 0 Z M 542 730 L 542 192 C 542 165 537 139 529 114 C 520 89 507 67 490 49 C 472 31 450 16 424 5 C 398 -6 368 -12 334 -12 C 317 -12 299 -10 280 -8 C 261 -6 246 -2 236 3 L 254 78 C 260 75 271 72 285 70 C 299 68 313 67 326 67 C 367 67 399 78 421 102 C 443 126 455 154 455 188 L 455 730 L 542 730 Z" unicode="Ĳ" />
<glyph horiz-adv-x="461" d="M 79 0 L 79 0 Z M 79 600 L 79 693 L 167 693 L 167 600 L 79 600 Z M 81 0 L 81 486 L 165 486 L 165 0 L 81 0 Z M 393 600 L 305 600 L 305 693 L 393 693 L 393 600 Z M 391 486 L 391 -43 C 391 -92 377 -131 350 -159 C 323 -187 290 -202 251 -202 C 236 -202 220 -200 204 -197 C 187 -194 173 -190 163 -185 L 178 -116 C 184 -119 193 -122 203 -124 C 213 -126 225 -128 237 -128 C 255 -128 272 -119 286 -103 C 300 -87 307 -64 307 -35 L 307 486 L 391 486 Z" unicode="ĳ" />
<glyph horiz-adv-x="405" d="M 18 0 L 18 0 Z M 324 730 L 324 192 C 324 165 319 139 311 114 C 302 89 289 67 272 49 C 254 31 232 16 206 5 C 180 -6 150 -12 116 -12 C 99 -12 81 -10 62 -8 C 43 -6 28 -2 18 3 L 36 78 C 42 75 53 72 67 70 C 81 68 95 67 108 67 C 149 67 181 78 203 102 C 225 126 237 154 237 188 L 237 730 L 324 730 Z M 280 787 L 280 787 Z M 446 787 L 368 787 L 280 903 L 191 787 L 115 787 L 238 958 L 323 958 L 446 787 Z" unicode="Ĵ" />
<glyph horiz-adv-x="260" d="M 0 0 L 0 0 Z M 186 486 L 186 -43 C 186 -92 172 -131 145 -159 C 118 -187 85 -202 46 -202 C 31 -202 15 -200 -1 -197 C -17 -194 -31 -190 -42 -185 L -27 -116 C -20 -119 -11 -122 -1 -124 C 8 -126 20 -128 32 -128 C 50 -128 67 -119 81 -103 C 95 -87 102 -64 102 -35 L 102 486 L 186 486 Z M 141 543 L 141 543 Z M 307 543 L 229 543 L 141 659 L 52 543 L -24 543 L 99 714 L 184 714 L 307 543 Z" unicode="ĵ" />
<glyph horiz-adv-x="679" d="M 97 0 L 97 0 Z M 665 0 L 552 0 L 290 337 L 187 212 L 187 0 L 97 0 L 97 730 L 187 730 L 187 322 L 518 730 L 623 730 L 351 403 L 665 0 Z M 338 -76 L 338 -76 Z M 430 -76 C 424 -126 409 -174 386 -222 C 363 -269 337 -306 309 -332 L 247 -303 C 255 -294 263 -282 273 -266 C 282 -250 291 -231 301 -211 C 310 -191 318 -169 326 -146 C 333 -122 339 -99 343 -76 L 430 -76 Z" unicode="Ķ" />
<glyph horiz-adv-x="527" d="M 77 0 L 77 0 Z M 543 1 L 445 0 L 259 230 L 161 125 L 161 0 L 77 0 L 77 765 L 159 765 L 159 215 L 403 486 L 497 486 L 314 288 L 543 1 Z M 268 -76 L 268 -76 Z M 360 -76 C 354 -126 339 -174 316 -222 C 293 -269 267 -306 239 -332 L 177 -303 C 185 -294 193 -282 203 -266 C 212 -250 221 -231 231 -211 C 240 -191 248 -169 256 -146 C 263 -122 269 -99 273 -76 L 360 -76 Z" unicode="ķ" />
<glyph horiz-adv-x="527" d="M 543 1 L 445 0 L 259 230 L 161 125 L 161 0 L 77 0 L 77 486 L 159 486 L 159 215 L 403 486 L 497 486 L 314 288 L 543 1 Z" unicode="ĸ" />
<glyph horiz-adv-x="512" d="M 97 0 L 97 0 Z M 502 0 L 97 0 L 97 730 L 187 730 L 187 80 L 502 80 L 502 0 Z M 320 790 L 320 790 Z M 218 790 L 324 954 L 423 954 L 302 790 L 218 790 Z" unicode="Ĺ" />
<glyph horiz-adv-x="241" d="M 78 0 L 78 0 Z M 181 825 L 181 825 Z M 79 825 L 185 989 L 284 989 L 163 825 L 79 825 Z M 162 765 L 162 0 L 78 0 L 78 765 L 162 765 Z" unicode="ĺ" />
<glyph horiz-adv-x="512" d="M 97 0 L 97 0 Z M 502 0 L 97 0 L 97 730 L 187 730 L 187 80 L 502 80 L 502 0 Z M 276 -76 L 276 -76 Z M 368 -76 C 362 -126 347 -174 324 -222 C 301 -269 275 -306 247 -332 L 185 -303 C 193 -294 201 -282 211 -266 C 220 -250 229 -231 239 -211 C 248 -191 256 -169 264 -146 C 271 -122 277 -99 281 -76 L 368 -76 Z" unicode="Ļ" />
<glyph horiz-adv-x="241" d="M 0 0 L 0 0 Z M 162 765 L 162 0 L 78 0 L 78 765 L 162 765 Z M 82 -76 L 82 -76 Z M 174 -76 C 168 -126 153 -174 130 -222 C 107 -269 81 -306 53 -332 L -9 -303 C -1 -294 7 -282 17 -266 C 26 -250 35 -231 45 -211 C 54 -191 62 -169 70 -146 C 77 -122 83 -99 87 -76 L 174 -76 Z" unicode="ļ" />
<glyph horiz-adv-x="512" d="M 97 0 L 97 0 Z M 502 0 L 97 0 L 97 730 L 187 730 L 187 80 L 502 80 L 502 0 Z M 507 613 L 503 473 L 433 473 L 428 613 L 428 730 L 507 730 L 507 613 Z" unicode="Ľ" />
<glyph horiz-adv-x="241" d="M 78 0 L 78 0 Z M 300 613 L 296 473 L 226 473 L 221 613 L 221 730 L 300 730 L 300 613 Z M 162 765 L 162 0 L 78 0 L 78 765 L 162 765 Z" unicode="ľ" />
<glyph horiz-adv-x="512" d="M 97 0 L 97 0 Z M 502 0 L 97 0 L 97 730 L 187 730 L 187 80 L 502 80 L 502 0 Z M 358 281 L 358 281 Z M 397 281 L 320 281 L 320 445 L 397 445 L 397 281 Z" unicode="Ŀ" />
<glyph horiz-adv-x="241" d="M 78 0 L 78 0 Z M 162 765 L 162 0 L 78 0 L 78 765 L 162 765 Z M 266 209 L 266 209 Z M 305 209 L 228 209 L 228 373 L 305 373 L 305 209 Z" unicode="ŀ" />
<glyph horiz-adv-x="512" d="M 489 77 L 489 0 L 97 0 L 97 274 L 35 249 L 4 311 L 97 349 L 97 730 L 187 730 L 187 385 L 368 459 L 397 397 L 187 311 L 187 77 L 489 77 Z" unicode="Ł" />
<glyph horiz-adv-x="241" d="M 245 355 L 162 316 L 162 0 L 78 0 L 78 277 L 21 250 L -3 307 L 78 345 L 78 765 L 162 765 L 162 384 L 221 412 L 245 355 Z" unicode="ł" />
<glyph horiz-adv-x="786" d="M 97 0 L 97 0 Z M 689 0 L 626 0 L 182 570 L 182 0 L 97 0 L 97 730 L 166 730 L 605 163 L 605 730 L 689 730 L 689 0 Z M 394 790 L 394 790 Z M 292 790 L 398 954 L 497 954 L 376 790 L 292 790 Z" unicode="Ń" />
<glyph horiz-adv-x="580" d="M 77 0 L 77 0 Z M 509 0 L 426 0 L 426 326 C 426 358 414 383 391 401 C 368 419 340 429 306 429 C 288 429 271 426 254 421 C 236 415 221 407 207 396 C 193 384 182 370 174 353 C 165 336 161 316 161 293 L 161 0 L 77 0 L 77 486 L 154 486 L 154 386 C 165 418 187 445 220 467 C 253 488 291 499 334 499 C 383 499 424 485 458 457 C 492 429 509 392 509 346 L 509 0 Z M 299 546 L 299 546 Z M 197 546 L 303 710 L 402 710 L 281 546 L 197 546 Z" unicode="ń" />
<glyph horiz-adv-x="786" d="M 97 0 L 97 0 Z M 689 0 L 626 0 L 182 570 L 182 0 L 97 0 L 97 730 L 166 730 L 605 163 L 605 730 L 689 730 L 689 0 Z M 371 -76 L 371 -76 Z M 463 -76 C 457 -126 442 -174 419 -222 C 396 -269 370 -306 342 -332 L 280 -303 C 288 -294 296 -282 306 -266 C 315 -250 324 -231 334 -211 C 343 -191 351 -169 359 -146 C 366 -122 372 -99 376 -76 L 463 -76 Z" unicode="Ņ" />
<glyph horiz-adv-x="580" d="M 77 0 L 77 0 Z M 509 0 L 426 0 L 426 326 C 426 358 414 383 391 401 C 368 419 340 429 306 429 C 288 429 271 426 254 421 C 236 415 221 407 207 396 C 193 384 182 370 174 353 C 165 336 161 316 161 293 L 161 0 L 77 0 L 77 486 L 154 486 L 154 386 C 165 418 187 445 220 467 C 253 488 291 499 334 499 C 383 499 424 485 458 457 C 492 429 509 392 509 346 L 509 0 Z M 262 -76 L 262 -76 Z M 354 -76 C 348 -126 333 -174 310 -222 C 287 -269 261 -306 233 -332 L 171 -303 C 179 -294 187 -282 197 -266 C 206 -250 215 -231 225 -211 C 234 -191 242 -169 250 -146 C 257 -122 263 -99 267 -76 L 354 -76 Z" unicode="ņ" />
<glyph horiz-adv-x="786" d="M 97 0 L 97 0 Z M 689 0 L 626 0 L 182 570 L 182 0 L 97 0 L 97 730 L 166 730 L 605 163 L 605 730 L 689 730 L 689 0 Z M 394 787 L 394 787 Z M 229 958 L 307 958 L 395 842 L 484 958 L 560 958 L 437 787 L 352 787 L 229 958 Z" unicode="Ň" />
<glyph horiz-adv-x="580" d="M 77 0 L 77 0 Z M 509 0 L 426 0 L 426 326 C 426 358 414 383 391 401 C 368 419 340 429 306 429 C 288 429 271 426 254 421 C 236 415 221 407 207 396 C 193 384 182 370 174 353 C 165 336 161 316 161 293 L 161 0 L 77 0 L 77 486 L 154 486 L 154 386 C 165 418 187 445 220 467 C 253 488 291 499 334 499 C 383 499 424 485 458 457 C 492 429 509 392 509 346 L 509 0 Z M 299 543 L 299 543 Z M 134 714 L 212 714 L 300 598 L 389 714 L 465 714 L 342 543 L 257 543 L 134 714 Z" unicode="ň" />
<glyph horiz-adv-x="790" d="M 605 730 L 689 730 L 689 0 L 689 0 C 688 -58 671 -106 639 -144 C 606 -182 560 -201 500 -201 C 479 -201 459 -199 439 -196 C 419 -192 402 -187 390 -181 L 404 -107 C 413 -111 426 -115 443 -118 C 460 -121 477 -123 494 -123 C 528 -123 556 -111 576 -87 C 596 -63 607 -34 607 0 L 607 24 L 182 570 L 182 0 L 97 0 L 97 730 L 166 730 L 605 163 L 605 730 Z" unicode="Ŋ" />
<glyph horiz-adv-x="580" d="M 334 499 C 383 499 424 485 458 457 C 492 429 509 392 509 346 L 509 -43 C 509 -92 495 -131 468 -159 C 441 -187 408 -202 369 -202 C 354 -202 338 -200 322 -197 C 305 -194 291 -190 281 -185 L 296 -116 C 302 -119 311 -122 321 -124 C 331 -126 343 -128 355 -128 C 373 -128 390 -119 404 -103 C 418 -87 426 -64 426 -35 L 426 326 C 426 358 414 383 391 401 C 368 419 340 429 306 429 C 288 429 271 426 254 421 C 236 415 221 407 207 396 C 193 384 182 370 174 353 C 165 336 161 316 161 293 L 161 0 L 77 0 L 77 486 L 154 486 L 154 386 C 165 418 187 445 220 467 C 253 488 291 499 334 499 Z" unicode="ŋ" />
<glyph horiz-adv-x="844" d="M 48 0 L 48 0 Z M 425 -12 C 369 -12 318 -2 272 16 C 225 35 185 62 152 96 C 119 130 93 170 75 217 C 57 264 48 315 48 370 C 48 422 57 471 76 517 C 95 563 121 602 154 635 C 187 668 226 694 272 713 C 317 732 365 742 417 742 C 472 742 523 732 570 714 C 616 695 656 669 690 637 C 723 604 749 564 768 518 C 786 472 796 421 796 367 C 796 311 786 260 766 214 C 746 167 720 127 686 94 C 652 60 613 34 568 16 C 522 -2 475 -12 425 -12 Z M 428 69 C 466 69 503 76 537 90 C 571 104 600 123 625 149 C 649 175 669 206 683 243 C 697 280 705 322 705 368 C 705 410 697 449 683 485 C 668 521 648 551 622 577 C 596 603 566 623 531 637 C 495 651 457 659 416 659 C 376 659 339 652 305 638 C 271 624 242 605 218 580 C 193 555 174 525 160 489 C 146 453 140 413 140 369 C 140 323 147 281 163 244 C 178 206 199 175 225 149 C 251 123 281 104 316 90 C 351 76 388 69 428 69 Z M 418 808 L 418 808 Z M 547 808 L 289 808 L 289 875 L 547 875 L 547 808 Z" unicode="Ō" />
<glyph horiz-adv-x="587" d="M 36 0 L 36 0 Z M 290 -11 C 257 -11 225 -5 195 6 C 164 18 137 34 114 56 C 90 78 71 104 57 136 C 43 167 36 202 36 241 C 36 276 42 309 56 341 C 70 373 88 400 111 423 C 134 446 161 464 192 478 C 223 492 256 499 290 499 C 326 499 359 493 391 481 C 423 469 450 452 474 431 C 498 409 516 384 530 354 C 544 324 551 291 551 255 C 551 217 544 181 530 149 C 516 116 498 88 475 64 C 451 40 424 22 392 9 C 360 -4 326 -11 290 -11 Z M 294 63 C 344 63 384 80 416 116 C 448 151 464 195 464 249 C 464 297 448 339 416 373 C 384 407 341 425 287 425 C 240 425 201 407 170 372 C 138 337 123 294 123 242 C 123 186 139 143 172 111 C 205 79 246 63 294 63 Z M 289 564 L 289 564 Z M 418 564 L 160 564 L 160 631 L 418 631 L 418 564 Z" unicode="ō" />
<glyph horiz-adv-x="844" d="M 48 0 L 48 0 Z M 425 -12 C 369 -12 318 -2 272 16 C 225 35 185 62 152 96 C 119 130 93 170 75 217 C 57 264 48 315 48 370 C 48 422 57 471 76 517 C 95 563 121 602 154 635 C 187 668 226 694 272 713 C 317 732 365 742 417 742 C 472 742 523 732 570 714 C 616 695 656 669 690 637 C 723 604 749 564 768 518 C 786 472 796 421 796 367 C 796 311 786 260 766 214 C 746 167 720 127 686 94 C 652 60 613 34 568 16 C 522 -2 475 -12 425 -12 Z M 428 69 C 466 69 503 76 537 90 C 571 104 600 123 625 149 C 649 175 669 206 683 243 C 697 280 705 322 705 368 C 705 410 697 449 683 485 C 668 521 648 551 622 577 C 596 603 566 623 531 637 C 495 651 457 659 416 659 C 376 659 339 652 305 638 C 271 624 242 605 218 580 C 193 555 174 525 160 489 C 146 453 140 413 140 369 C 140 323 147 281 163 244 C 178 206 199 175 225 149 C 251 123 281 104 316 90 C 351 76 388 69 428 69 Z M 418 792 L 418 792 Z M 503 949 L 573 949 C 569 894 552 854 524 829 C 495 804 460 792 418 792 C 376 792 340 804 312 829 C 283 854 267 894 263 949 L 333 949 C 335 918 343 893 356 873 C 369 853 390 844 418 844 C 446 844 466 853 480 872 C 493 890 501 916 503 949 Z" unicode="Ŏ" />
<glyph horiz-adv-x="587" d="M 36 0 L 36 0 Z M 290 -11 C 257 -11 225 -5 195 6 C 164 18 137 34 114 56 C 90 78 71 104 57 136 C 43 167 36 202 36 241 C 36 276 42 309 56 341 C 70 373 88 400 111 423 C 134 446 161 464 192 478 C 223 492 256 499 290 499 C 326 499 359 493 391 481 C 423 469 450 452 474 431 C 498 409 516 384 530 354 C 544 324 551 291 551 255 C 551 217 544 181 530 149 C 516 116 498 88 475 64 C 451 40 424 22 392 9 C 360 -4 326 -11 290 -11 Z M 294 63 C 344 63 384 80 416 116 C 448 151 464 195 464 249 C 464 297 448 339 416 373 C 384 407 341 425 287 425 C 240 425 201 407 170 372 C 138 337 123 294 123 242 C 123 186 139 143 172 111 C 205 79 246 63 294 63 Z M 289 548 L 289 548 Z M 374 705 L 444 705 C 440 650 423 610 395 585 C 366 560 331 548 289 548 C 247 548 211 560 183 585 C 154 610 138 650 134 705 L 204 705 C 206 674 214 649 227 629 C 240 609 261 600 289 600 C 317 600 337 609 351 628 C 364 646 372 672 374 705 Z" unicode="ŏ" />
<glyph horiz-adv-x="844" d="M 48 0 L 48 0 Z M 425 -12 C 369 -12 318 -2 272 16 C 225 35 185 62 152 96 C 119 130 93 170 75 217 C 57 264 48 315 48 370 C 48 422 57 471 76 517 C 95 563 121 602 154 635 C 187 668 226 694 272 713 C 317 732 365 742 417 742 C 472 742 523 732 570 714 C 616 695 656 669 690 637 C 723 604 749 564 768 518 C 786 472 796 421 796 367 C 796 311 786 260 766 214 C 746 167 720 127 686 94 C 652 60 613 34 568 16 C 522 -2 475 -12 425 -12 Z M 428 69 C 466 69 503 76 537 90 C 571 104 600 123 625 149 C 649 175 669 206 683 243 C 697 280 705 322 705 368 C 705 410 697 449 683 485 C 668 521 648 551 622 577 C 596 603 566 623 531 637 C 495 651 457 659 416 659 C 376 659 339 652 305 638 C 271 624 242 605 218 580 C 193 555 174 525 160 489 C 146 453 140 413 140 369 C 140 323 147 281 163 244 C 178 206 199 175 225 149 C 251 123 281 104 316 90 C 351 76 388 69 428 69 Z M 418 786 L 418 786 Z M 236 786 L 330 936 L 419 936 L 310 786 L 236 786 Z M 417 786 L 512 936 L 601 936 L 491 786 L 417 786 Z" unicode="Ő" />
<glyph horiz-adv-x="587" d="M 36 0 L 36 0 Z M 290 -11 C 257 -11 225 -5 195 6 C 164 18 137 34 114 56 C 90 78 71 104 57 136 C 43 167 36 202 36 241 C 36 276 42 309 56 341 C 70 373 88 400 111 423 C 134 446 161 464 192 478 C 223 492 256 499 290 499 C 326 499 359 493 391 481 C 423 469 450 452 474 431 C 498 409 516 384 530 354 C 544 324 551 291 551 255 C 551 217 544 181 530 149 C 516 116 498 88 475 64 C 451 40 424 22 392 9 C 360 -4 326 -11 290 -11 Z M 294 63 C 344 63 384 80 416 116 C 448 151 464 195 464 249 C 464 297 448 339 416 373 C 384 407 341 425 287 425 C 240 425 201 407 170 372 C 138 337 123 294 123 242 C 123 186 139 143 172 111 C 205 79 246 63 294 63 Z M 289 542 L 289 542 Z M 107 542 L 201 692 L 290 692 L 181 542 L 107 542 Z M 288 542 L 383 692 L 472 692 L 362 542 L 288 542 Z" unicode="ő" />
<glyph horiz-adv-x="1186" d="M 413 -12 C 359 -12 310 -2 265 16 C 220 35 182 61 150 95 C 118 129 93 169 75 216 C 57 262 48 313 48 369 C 48 421 57 470 76 516 C 95 562 121 601 154 635 C 187 668 226 694 272 713 C 317 732 365 742 417 742 C 445 742 474 737 504 729 C 534 721 562 709 588 694 C 614 679 637 661 657 641 C 677 620 692 597 702 573 L 702 730 L 1110 730 L 1110 650 L 787 650 L 787 401 L 1096 401 L 1096 323 L 787 323 L 787 80 L 1130 80 L 1130 0 L 702 0 L 702 171 C 683 119 648 75 598 40 C 548 5 486 -12 413 -12 Z M 423 67 C 461 67 497 73 531 87 C 565 100 595 119 621 145 C 646 170 666 201 681 239 C 695 277 703 320 703 369 C 703 417 694 459 676 496 C 658 532 635 563 608 587 C 580 611 550 629 516 641 C 482 653 450 660 420 660 C 380 660 343 653 309 639 C 275 625 245 606 220 580 C 195 554 175 523 161 487 C 147 451 140 410 140 366 C 140 319 147 277 162 240 C 177 203 197 172 223 146 C 249 120 279 101 314 87 C 348 73 385 67 423 67 Z" unicode="Œ" />
<glyph horiz-adv-x="992" d="M 291 -11 C 257 -11 224 -5 193 7 C 161 19 134 36 111 58 C 88 80 70 106 56 137 C 42 168 36 203 36 241 C 36 276 42 309 56 341 C 69 372 87 399 110 423 C 133 446 160 464 192 478 C 223 492 256 499 292 499 C 322 499 350 494 375 486 C 399 478 420 467 438 454 C 455 440 469 425 481 409 C 493 393 501 377 506 361 C 510 375 518 390 530 406 C 542 422 557 437 575 451 C 593 465 615 476 639 485 C 663 494 690 499 719 499 C 794 499 853 473 897 422 C 941 371 963 303 963 219 L 548 219 C 549 173 566 135 600 105 C 633 75 675 61 725 61 C 769 61 802 68 826 82 C 850 96 870 112 887 130 L 939 76 C 917 52 890 31 859 14 C 827 -2 783 -11 726 -11 C 696 -11 668 -6 643 1 C 617 9 595 20 576 33 C 557 46 541 61 529 77 C 517 93 509 110 505 126 C 501 111 493 95 481 79 C 469 63 454 48 436 35 C 418 21 396 10 372 2 C 347 -6 320 -11 291 -11 Z M 549 282 L 880 282 C 878 323 863 358 833 386 C 803 414 764 428 716 428 C 668 428 629 413 600 384 C 570 355 553 321 549 282 Z M 294 63 C 344 63 385 80 417 114 C 449 148 465 193 465 249 C 465 299 448 340 416 374 C 383 408 341 425 289 425 C 241 425 201 407 170 372 C 138 337 123 294 123 242 C 123 186 139 143 172 111 C 205 79 246 63 294 63 Z" unicode="œ" />
<glyph horiz-adv-x="611" d="M 97 0 L 97 0 Z M 97 0 L 97 730 L 309 730 C 371 730 421 712 461 677 C 500 641 520 594 520 534 C 520 502 515 474 505 450 C 495 425 483 404 467 387 C 451 370 434 357 414 347 C 394 337 373 332 352 330 L 349 327 L 578 0 L 472 0 L 261 308 L 186 308 L 186 0 L 97 0 Z M 186 383 L 285 383 C 327 383 361 395 388 419 C 415 443 429 478 429 523 C 429 561 416 592 392 616 C 367 640 334 653 292 653 L 186 653 L 186 383 Z M 297 790 L 297 790 Z M 195 790 L 301 954 L 400 954 L 279 790 L 195 790 Z" unicode="Ŕ" />
<glyph horiz-adv-x="425" d="M 77 0 L 77 0 Z M 425 469 L 386 395 C 374 405 360 412 344 417 C 328 422 312 425 295 425 C 278 425 262 421 246 414 C 230 407 215 397 203 385 C 190 373 180 358 172 340 C 164 322 161 303 161 283 L 161 0 L 77 0 L 77 486 L 155 486 L 155 379 C 158 393 164 407 174 421 C 184 435 196 448 210 460 C 224 471 241 480 260 487 C 279 494 300 498 323 498 C 345 498 365 495 383 490 C 400 484 414 477 425 469 Z M 254 546 L 254 546 Z M 152 546 L 258 710 L 357 710 L 236 546 L 152 546 Z" unicode="ŕ" />
<glyph horiz-adv-x="611" d="M 97 0 L 97 0 Z M 97 0 L 97 730 L 309 730 C 371 730 421 712 461 677 C 500 641 520 594 520 534 C 520 502 515 474 505 450 C 495 425 483 404 467 387 C 451 370 434 357 414 347 C 394 337 373 332 352 330 L 349 327 L 578 0 L 472 0 L 261 308 L 186 308 L 186 0 L 97 0 Z M 186 383 L 285 383 C 327 383 361 395 388 419 C 415 443 429 478 429 523 C 429 561 416 592 392 616 C 367 640 334 653 292 653 L 186 653 L 186 383 Z M 292 -76 L 292 -76 Z M 384 -76 C 378 -126 363 -174 340 -222 C 317 -269 291 -306 263 -332 L 201 -303 C 209 -294 217 -282 227 -266 C 236 -250 245 -231 255 -211 C 264 -191 272 -169 280 -146 C 287 -122 293 -99 297 -76 L 384 -76 Z" unicode="Ŗ" />
<glyph horiz-adv-x="425" d="M 77 0 L 77 0 Z M 425 469 L 386 395 C 374 405 360 412 344 417 C 328 422 312 425 295 425 C 278 425 262 421 246 414 C 230 407 215 397 203 385 C 190 373 180 358 172 340 C 164 322 161 303 161 283 L 161 0 L 77 0 L 77 486 L 155 486 L 155 379 C 158 393 164 407 174 421 C 184 435 196 448 210 460 C 224 471 241 480 260 487 C 279 494 300 498 323 498 C 345 498 365 495 383 490 C 400 484 414 477 425 469 Z M 221 -76 L 221 -76 Z M 313 -76 C 307 -126 292 -174 269 -222 C 246 -269 220 -306 192 -332 L 130 -303 C 138 -294 146 -282 156 -266 C 165 -250 174 -231 184 -211 C 193 -191 201 -169 209 -146 C 216 -122 222 -99 226 -76 L 313 -76 Z" unicode="ŗ" />
<glyph horiz-adv-x="611" d="M 97 0 L 97 0 Z M 97 0 L 97 730 L 309 730 C 371 730 421 712 461 677 C 500 641 520 594 520 534 C 520 502 515 474 505 450 C 495 425 483 404 467 387 C 451 370 434 357 414 347 C 394 337 373 332 352 330 L 349 327 L 578 0 L 472 0 L 261 308 L 186 308 L 186 0 L 97 0 Z M 186 383 L 285 383 C 327 383 361 395 388 419 C 415 443 429 478 429 523 C 429 561 416 592 392 616 C 367 640 334 653 292 653 L 186 653 L 186 383 Z M 297 787 L 297 787 Z M 132 958 L 210 958 L 298 842 L 387 958 L 463 958 L 340 787 L 255 787 L 132 958 Z" unicode="Ř" />
<glyph horiz-adv-x="425" d="M 77 0 L 77 0 Z M 425 469 L 386 395 C 374 405 360 412 344 417 C 328 422 312 425 295 425 C 278 425 262 421 246 414 C 230 407 215 397 203 385 C 190 373 180 358 172 340 C 164 322 161 303 161 283 L 161 0 L 77 0 L 77 486 L 155 486 L 155 379 C 158 393 164 407 174 421 C 184 435 196 448 210 460 C 224 471 241 480 260 487 C 279 494 300 498 323 498 C 345 498 365 495 383 490 C 400 484 414 477 425 469 Z M 254 543 L 254 543 Z M 89 714 L 167 714 L 255 598 L 344 714 L 420 714 L 297 543 L 212 543 L 89 714 Z" unicode="ř" />
<glyph horiz-adv-x="547" d="M 35 0 L 35 0 Z M 282 -12 C 227 -12 179 -3 137 12 C 95 28 61 51 35 79 L 91 148 C 111 123 139 103 174 88 C 208 73 244 66 281 66 C 319 66 351 76 377 97 C 403 118 416 145 416 179 C 416 209 404 236 382 259 C 360 282 320 306 264 330 C 193 359 141 390 108 422 C 75 454 59 500 59 560 C 59 614 78 657 116 691 C 154 725 205 742 269 742 C 313 742 353 734 387 720 C 421 706 451 688 477 667 L 429 594 C 406 614 381 630 354 642 C 326 654 298 660 269 660 C 231 660 201 650 179 631 C 157 611 146 587 146 559 C 146 525 158 498 182 478 C 206 457 249 433 312 407 C 383 377 433 345 461 312 C 489 278 504 236 504 184 C 504 153 498 125 486 101 C 474 77 458 56 438 40 C 418 23 394 10 367 1 C 340 -7 312 -12 282 -12 Z M 270 790 L 270 790 Z M 168 790 L 274 954 L 373 954 L 252 790 L 168 790 Z" unicode="Ś" />
<glyph horiz-adv-x="439" d="M 35 0 L 35 0 Z M 234 -11 C 189 -11 150 -5 118 6 C 85 17 57 32 35 52 L 75 110 C 93 94 116 82 144 72 C 172 62 201 57 232 57 C 258 57 279 63 297 77 C 314 91 323 108 323 130 C 323 148 314 164 297 178 C 279 192 247 205 201 219 C 147 234 108 254 85 278 C 62 302 51 331 51 366 C 51 405 67 437 100 461 C 132 485 173 498 221 498 C 263 498 298 492 326 481 C 354 469 375 458 391 446 L 355 387 C 338 397 319 407 297 417 C 275 426 250 431 224 431 C 200 431 179 425 161 415 C 142 404 133 389 133 371 C 133 362 134 354 136 348 C 138 341 143 334 151 328 C 159 322 170 316 185 310 C 199 304 219 297 244 290 C 300 273 340 253 366 229 C 392 205 405 174 405 136 C 405 91 388 55 356 29 C 323 2 282 -11 234 -11 Z M 224 546 L 224 546 Z M 122 546 L 228 710 L 327 710 L 206 546 L 122 546 Z" unicode="ś" />
<glyph horiz-adv-x="547" d="M 35 0 L 35 0 Z M 282 -12 C 227 -12 179 -3 137 12 C 95 28 61 51 35 79 L 91 148 C 111 123 139 103 174 88 C 208 73 244 66 281 66 C 319 66 351 76 377 97 C 403 118 416 145 416 179 C 416 209 404 236 382 259 C 360 282 320 306 264 330 C 193 359 141 390 108 422 C 75 454 59 500 59 560 C 59 614 78 657 116 691 C 154 725 205 742 269 742 C 313 742 353 734 387 720 C 421 706 451 688 477 667 L 429 594 C 406 614 381 630 354 642 C 326 654 298 660 269 660 C 231 660 201 650 179 631 C 157 611 146 587 146 559 C 146 525 158 498 182 478 C 206 457 249 433 312 407 C 383 377 433 345 461 312 C 489 278 504 236 504 184 C 504 153 498 125 486 101 C 474 77 458 56 438 40 C 418 23 394 10 367 1 C 340 -7 312 -12 282 -12 Z M 270 787 L 270 787 Z M 436 787 L 358 787 L 270 903 L 181 787 L 105 787 L 228 958 L 313 958 L 436 787 Z" unicode="Ŝ" />
<glyph horiz-adv-x="439" d="M 35 0 L 35 0 Z M 234 -11 C 189 -11 150 -5 118 6 C 85 17 57 32 35 52 L 75 110 C 93 94 116 82 144 72 C 172 62 201 57 232 57 C 258 57 279 63 297 77 C 314 91 323 108 323 130 C 323 148 314 164 297 178 C 279 192 247 205 201 219 C 147 234 108 254 85 278 C 62 302 51 331 51 366 C 51 405 67 437 100 461 C 132 485 173 498 221 498 C 263 498 298 492 326 481 C 354 469 375 458 391 446 L 355 387 C 338 397 319 407 297 417 C 275 426 250 431 224 431 C 200 431 179 425 161 415 C 142 404 133 389 133 371 C 133 362 134 354 136 348 C 138 341 143 334 151 328 C 159 322 170 316 185 310 C 199 304 219 297 244 290 C 300 273 340 253 366 229 C 392 205 405 174 405 136 C 405 91 388 55 356 29 C 323 2 282 -11 234 -11 Z M 224 543 L 224 543 Z M 390 543 L 312 543 L 224 659 L 135 543 L 59 543 L 182 714 L 267 714 L 390 543 Z" unicode="ŝ" />
<glyph horiz-adv-x="547" d="M 35 0 L 35 0 Z M 282 -12 C 227 -12 179 -3 137 12 C 95 28 61 51 35 79 L 91 148 C 111 123 139 103 174 88 C 208 73 244 66 281 66 C 319 66 351 76 377 97 C 403 118 416 145 416 179 C 416 209 404 236 382 259 C 360 282 320 306 264 330 C 193 359 141 390 108 422 C 75 454 59 500 59 560 C 59 614 78 657 116 691 C 154 725 205 742 269 742 C 313 742 353 734 387 720 C 421 706 451 688 477 667 L 429 594 C 406 614 381 630 354 642 C 326 654 298 660 269 660 C 231 660 201 650 179 631 C 157 611 146 587 146 559 C 146 525 158 498 182 478 C 206 457 249 433 312 407 C 383 377 433 345 461 312 C 489 278 504 236 504 184 C 504 153 498 125 486 101 C 474 77 458 56 438 40 C 418 23 394 10 367 1 C 340 -7 312 -12 282 -12 Z M 262 -6 L 262 -6 Z M 271 -193 C 247 -193 222 -190 198 -184 C 173 -178 154 -170 140 -161 L 151 -123 C 161 -128 174 -133 190 -139 C 206 -145 224 -148 244 -148 C 260 -148 273 -144 285 -137 C 297 -130 303 -121 303 -109 C 303 -96 297 -87 287 -81 C 277 -75 265 -73 253 -73 C 244 -73 237 -73 231 -74 C 225 -75 218 -77 211 -80 L 198 -67 L 258 5 L 310 5 L 260 -57 C 294 -49 324 -51 348 -64 C 372 -76 384 -95 384 -119 C 384 -143 372 -162 350 -174 C 327 -186 301 -193 271 -193 Z" unicode="Ş" />
<glyph horiz-adv-x="439" d="M 35 0 L 35 0 Z M 234 -11 C 189 -11 150 -5 118 6 C 85 17 57 32 35 52 L 75 110 C 93 94 116 82 144 72 C 172 62 201 57 232 57 C 258 57 279 63 297 77 C 314 91 323 108 323 130 C 323 148 314 164 297 178 C 279 192 247 205 201 219 C 147 234 108 254 85 278 C 62 302 51 331 51 366 C 51 405 67 437 100 461 C 132 485 173 498 221 498 C 263 498 298 492 326 481 C 354 469 375 458 391 446 L 355 387 C 338 397 319 407 297 417 C 275 426 250 431 224 431 C 200 431 179 425 161 415 C 142 404 133 389 133 371 C 133 362 134 354 136 348 C 138 341 143 334 151 328 C 159 322 170 316 185 310 C 199 304 219 297 244 290 C 300 273 340 253 366 229 C 392 205 405 174 405 136 C 405 91 388 55 356 29 C 323 2 282 -11 234 -11 Z M 213 -3 L 213 -3 Z M 222 -190 C 198 -190 173 -187 149 -181 C 124 -175 105 -167 91 -158 L 102 -120 C 112 -125 125 -130 141 -136 C 157 -142 175 -145 195 -145 C 211 -145 224 -141 236 -134 C 248 -127 254 -118 254 -106 C 254 -93 248 -84 238 -78 C 228 -72 216 -70 204 -70 C 195 -70 188 -70 182 -71 C 176 -72 169 -74 162 -77 L 149 -64 L 209 8 L 261 8 L 211 -54 C 245 -46 275 -48 299 -61 C 323 -73 335 -92 335 -116 C 335 -140 323 -159 301 -171 C 278 -183 252 -190 222 -190 Z" unicode="ş" />
<glyph horiz-adv-x="547" d="M 35 0 L 35 0 Z M 282 -12 C 227 -12 179 -3 137 12 C 95 28 61 51 35 79 L 91 148 C 111 123 139 103 174 88 C 208 73 244 66 281 66 C 319 66 351 76 377 97 C 403 118 416 145 416 179 C 416 209 404 236 382 259 C 360 282 320 306 264 330 C 193 359 141 390 108 422 C 75 454 59 500 59 560 C 59 614 78 657 116 691 C 154 725 205 742 269 742 C 313 742 353 734 387 720 C 421 706 451 688 477 667 L 429 594 C 406 614 381 630 354 642 C 326 654 298 660 269 660 C 231 660 201 650 179 631 C 157 611 146 587 146 559 C 146 525 158 498 182 478 C 206 457 249 433 312 407 C 383 377 433 345 461 312 C 489 278 504 236 504 184 C 504 153 498 125 486 101 C 474 77 458 56 438 40 C 418 23 394 10 367 1 C 340 -7 312 -12 282 -12 Z M 270 787 L 270 787 Z M 105 958 L 183 958 L 271 842 L 360 958 L 436 958 L 313 787 L 228 787 L 105 958 Z" unicode="Š" />
<glyph horiz-adv-x="439" d="M 35 0 L 35 0 Z M 234 -11 C 189 -11 150 -5 118 6 C 85 17 57 32 35 52 L 75 110 C 93 94 116 82 144 72 C 172 62 201 57 232 57 C 258 57 279 63 297 77 C 314 91 323 108 323 130 C 323 148 314 164 297 178 C 279 192 247 205 201 219 C 147 234 108 254 85 278 C 62 302 51 331 51 366 C 51 405 67 437 100 461 C 132 485 173 498 221 498 C 263 498 298 492 326 481 C 354 469 375 458 391 446 L 355 387 C 338 397 319 407 297 417 C 275 426 250 431 224 431 C 200 431 179 425 161 415 C 142 404 133 389 133 371 C 133 362 134 354 136 348 C 138 341 143 334 151 328 C 159 322 170 316 185 310 C 199 304 219 297 244 290 C 300 273 340 253 366 229 C 392 205 405 174 405 136 C 405 91 388 55 356 29 C 323 2 282 -11 234 -11 Z M 224 543 L 224 543 Z M 59 714 L 137 714 L 225 598 L 314 714 L 390 714 L 267 543 L 182 543 L 59 714 Z" unicode="š" />
<glyph horiz-adv-x="537" d="M 10 0 L 10 0 Z M 527 650 L 310 650 L 310 0 L 220 0 L 220 650 L 10 650 L 10 730 L 527 730 L 527 650 Z M 266 787 L 266 787 Z M 101 958 L 179 958 L 267 842 L 356 958 L 432 958 L 309 787 L 224 787 L 101 958 Z" unicode="Ť" />
<glyph horiz-adv-x="312" d="M 12 0 L 12 0 Z M 290 79 L 297 10 C 290 5 279 1 265 -1 C 251 -4 236 -6 220 -6 C 202 -6 185 -3 169 1 C 153 5 138 13 126 23 C 114 33 104 47 96 64 C 88 80 85 101 85 126 L 85 414 L 12 414 L 12 486 L 85 486 L 85 607 L 169 618 L 169 486 L 285 486 L 285 414 L 169 414 L 169 135 C 169 111 174 93 186 82 C 198 71 214 66 235 66 C 245 66 256 67 267 70 C 277 73 285 76 290 79 Z M 377 613 L 373 473 L 303 473 L 298 613 L 298 730 L 377 730 L 377 613 Z" unicode="ť" />
<glyph horiz-adv-x="537" d="M 448 460 L 310 460 L 310 0 L 220 0 L 220 460 L 81 460 L 81 531 L 220 531 L 220 650 L 10 650 L 10 730 L 527 730 L 527 650 L 310 650 L 310 531 L 448 531 L 448 460 Z" unicode="Ŧ" />
<glyph horiz-adv-x="312" d="M 297 10 C 290 5 279 1 265 -1 C 251 -4 236 -6 220 -6 C 202 -6 185 -3 169 1 C 153 5 138 13 126 23 C 114 33 104 47 96 64 C 88 80 85 101 85 126 L 85 267 L 20 267 L 20 338 L 85 338 L 85 414 L 12 414 L 12 486 L 85 486 L 85 607 L 169 618 L 169 486 L 285 486 L 285 414 L 169 414 L 169 338 L 268 338 L 268 267 L 169 267 L 169 135 C 169 111 174 93 186 82 C 198 71 214 66 235 66 C 245 66 256 67 267 70 C 277 73 285 76 290 79 L 297 10 Z" unicode="ŧ" />
<glyph horiz-adv-x="749" d="M 91 0 L 91 0 Z M 658 730 L 658 266 C 658 222 650 183 635 149 C 620 114 600 85 575 61 C 549 37 519 19 485 7 C 450 -5 413 -12 374 -12 C 335 -12 298 -6 264 6 C 229 18 199 35 174 59 C 148 83 128 112 113 147 C 98 181 91 221 91 266 L 91 730 L 178 730 L 178 262 C 178 233 183 207 193 183 C 203 159 217 139 235 123 C 253 106 273 93 297 84 C 320 74 345 70 372 70 C 398 70 424 74 448 83 C 472 91 494 104 512 121 C 530 137 544 157 555 181 C 565 205 571 232 571 262 L 571 730 L 658 730 Z M 374 794 L 374 794 Z M 476 928 L 541 928 C 541 882 534 848 520 826 C 506 804 488 794 465 794 C 446 794 429 797 415 805 C 401 813 388 821 378 830 C 367 838 356 845 346 853 C 335 861 324 865 314 865 C 303 865 294 859 287 847 C 279 835 275 819 275 798 L 211 798 C 211 843 220 877 238 899 C 256 921 276 932 297 932 C 313 932 328 928 341 920 C 354 912 367 903 379 894 C 389 885 399 877 409 870 C 419 863 429 860 439 860 C 449 860 457 866 464 878 C 471 890 475 906 476 928 Z" unicode="Ũ" />
<glyph horiz-adv-x="580" d="M 71 0 L 71 0 Z M 71 486 L 154 486 L 154 177 C 154 135 166 105 190 86 C 214 67 244 58 281 58 C 317 58 349 69 377 93 C 405 117 419 150 419 192 L 419 486 L 503 486 L 503 0 L 424 0 L 424 100 C 413 70 392 44 361 22 C 329 0 292 -11 248 -11 C 198 -11 156 3 122 31 C 88 59 71 100 71 155 L 71 486 Z M 287 550 L 287 550 Z M 389 684 L 454 684 C 454 638 447 604 433 582 C 419 560 401 550 378 550 C 359 550 342 553 328 561 C 314 569 301 577 291 586 C 280 594 269 601 259 609 C 248 617 237 621 227 621 C 216 621 207 615 200 603 C 192 591 188 575 188 554 L 124 554 C 124 599 133 633 151 655 C 169 677 189 688 210 688 C 226 688 241 684 254 676 C 267 668 280 659 292 650 C 302 641 312 633 322 626 C 332 619 342 616 352 616 C 362 616 370 622 377 634 C 384 646 388 662 389 684 Z" unicode="ũ" />
<glyph horiz-adv-x="749" d="M 91 0 L 91 0 Z M 658 730 L 658 266 C 658 222 650 183 635 149 C 620 114 600 85 575 61 C 549 37 519 19 485 7 C 450 -5 413 -12 374 -12 C 335 -12 298 -6 264 6 C 229 18 199 35 174 59 C 148 83 128 112 113 147 C 98 181 91 221 91 266 L 91 730 L 178 730 L 178 262 C 178 233 183 207 193 183 C 203 159 217 139 235 123 C 253 106 273 93 297 84 C 320 74 345 70 372 70 C 398 70 424 74 448 83 C 472 91 494 104 512 121 C 530 137 544 157 555 181 C 565 205 571 232 571 262 L 571 730 L 658 730 Z M 374 808 L 374 808 Z M 503 808 L 245 808 L 245 875 L 503 875 L 503 808 Z" unicode="Ū" />
<glyph horiz-adv-x="580" d="M 71 0 L 71 0 Z M 71 486 L 154 486 L 154 177 C 154 135 166 105 190 86 C 214 67 244 58 281 58 C 317 58 349 69 377 93 C 405 117 419 150 419 192 L 419 486 L 503 486 L 503 0 L 424 0 L 424 100 C 413 70 392 44 361 22 C 329 0 292 -11 248 -11 C 198 -11 156 3 122 31 C 88 59 71 100 71 155 L 71 486 Z M 287 564 L 287 564 Z M 416 564 L 158 564 L 158 631 L 416 631 L 416 564 Z" unicode="ū" />
<glyph horiz-adv-x="749" d="M 91 0 L 91 0 Z M 658 730 L 658 266 C 658 222 650 183 635 149 C 620 114 600 85 575 61 C 549 37 519 19 485 7 C 450 -5 413 -12 374 -12 C 335 -12 298 -6 264 6 C 229 18 199 35 174 59 C 148 83 128 112 113 147 C 98 181 91 221 91 266 L 91 730 L 178 730 L 178 262 C 178 233 183 207 193 183 C 203 159 217 139 235 123 C 253 106 273 93 297 84 C 320 74 345 70 372 70 C 398 70 424 74 448 83 C 472 91 494 104 512 121 C 530 137 544 157 555 181 C 565 205 571 232 571 262 L 571 730 L 658 730 Z M 374 792 L 374 792 Z M 459 949 L 529 949 C 525 894 508 854 480 829 C 451 804 416 792 374 792 C 332 792 296 804 268 829 C 239 854 223 894 219 949 L 289 949 C 291 918 299 893 312 873 C 325 853 346 844 374 844 C 402 844 422 853 436 872 C 449 890 457 916 459 949 Z" unicode="Ŭ" />
<glyph horiz-adv-x="580" d="M 71 0 L 71 0 Z M 71 486 L 154 486 L 154 177 C 154 135 166 105 190 86 C 214 67 244 58 281 58 C 317 58 349 69 377 93 C 405 117 419 150 419 192 L 419 486 L 503 486 L 503 0 L 424 0 L 424 100 C 413 70 392 44 361 22 C 329 0 292 -11 248 -11 C 198 -11 156 3 122 31 C 88 59 71 100 71 155 L 71 486 Z M 287 548 L 287 548 Z M 372 705 L 442 705 C 438 650 421 610 393 585 C 364 560 329 548 287 548 C 245 548 209 560 181 585 C 152 610 136 650 132 705 L 202 705 C 204 674 212 649 225 629 C 238 609 259 600 287 600 C 315 600 335 609 349 628 C 362 646 370 672 372 705 Z" unicode="ŭ" />
<glyph horiz-adv-x="749" d="M 91 0 L 91 0 Z M 658 730 L 658 266 C 658 222 650 183 635 149 C 620 114 600 85 575 61 C 549 37 519 19 485 7 C 450 -5 413 -12 374 -12 C 335 -12 298 -6 264 6 C 229 18 199 35 174 59 C 148 83 128 112 113 147 C 98 181 91 221 91 266 L 91 730 L 178 730 L 178 262 C 178 233 183 207 193 183 C 203 159 217 139 235 123 C 253 106 273 93 297 84 C 320 74 345 70 372 70 C 398 70 424 74 448 83 C 472 91 494 104 512 121 C 530 137 544 157 555 181 C 565 205 571 232 571 262 L 571 730 L 658 730 Z M 374 785 L 374 785 Z M 374 785 C 341 785 313 796 291 819 C 269 841 258 869 258 902 C 258 934 269 962 291 984 C 313 1006 341 1018 374 1018 C 406 1018 434 1006 457 984 C 479 962 491 934 491 902 C 491 869 479 841 457 819 C 434 796 406 785 374 785 Z M 374 837 C 392 837 407 843 419 855 C 431 867 438 883 438 902 C 438 920 431 935 419 948 C 407 960 392 967 374 967 C 356 967 341 960 329 948 C 316 935 310 920 310 902 C 310 883 316 867 329 855 C 341 843 356 837 374 837 Z" unicode="Ů" />
<glyph horiz-adv-x="580" d="M 71 0 L 71 0 Z M 71 486 L 154 486 L 154 177 C 154 135 166 105 190 86 C 214 67 244 58 281 58 C 317 58 349 69 377 93 C 405 117 419 150 419 192 L 419 486 L 503 486 L 503 0 L 424 0 L 424 100 C 413 70 392 44 361 22 C 329 0 292 -11 248 -11 C 198 -11 156 3 122 31 C 88 59 71 100 71 155 L 71 486 Z M 287 541 L 287 541 Z M 287 541 C 254 541 226 552 204 575 C 182 597 171 625 171 658 C 171 690 182 718 204 740 C 226 762 254 774 287 774 C 319 774 347 762 370 740 C 392 718 404 690 404 658 C 404 625 392 597 370 575 C 347 552 319 541 287 541 Z M 287 593 C 305 593 320 599 332 611 C 344 623 351 639 351 658 C 351 676 344 691 332 704 C 320 716 305 723 287 723 C 269 723 254 716 242 704 C 229 691 223 676 223 658 C 223 639 229 623 242 611 C 254 599 269 593 287 593 Z" unicode="ů" />
<glyph horiz-adv-x="749" d="M 91 0 L 91 0 Z M 658 730 L 658 266 C 658 222 650 183 635 149 C 620 114 600 85 575 61 C 549 37 519 19 485 7 C 450 -5 413 -12 374 -12 C 335 -12 298 -6 264 6 C 229 18 199 35 174 59 C 148 83 128 112 113 147 C 98 181 91 221 91 266 L 91 730 L 178 730 L 178 262 C 178 233 183 207 193 183 C 203 159 217 139 235 123 C 253 106 273 93 297 84 C 320 74 345 70 372 70 C 398 70 424 74 448 83 C 472 91 494 104 512 121 C 530 137 544 157 555 181 C 565 205 571 232 571 262 L 571 730 L 658 730 Z M 374 786 L 374 786 Z M 192 786 L 286 936 L 375 936 L 266 786 L 192 786 Z M 373 786 L 468 936 L 557 936 L 447 786 L 373 786 Z" unicode="Ű" />
<glyph horiz-adv-x="580" d="M 71 0 L 71 0 Z M 71 486 L 154 486 L 154 177 C 154 135 166 105 190 86 C 214 67 244 58 281 58 C 317 58 349 69 377 93 C 405 117 419 150 419 192 L 419 486 L 503 486 L 503 0 L 424 0 L 424 100 C 413 70 392 44 361 22 C 329 0 292 -11 248 -11 C 198 -11 156 3 122 31 C 88 59 71 100 71 155 L 71 486 Z M 287 542 L 287 542 Z M 105 542 L 199 692 L 288 692 L 179 542 L 105 542 Z M 286 542 L 381 692 L 470 692 L 360 542 L 286 542 Z" unicode="ű" />
<glyph horiz-adv-x="749" d="M 91 0 L 91 0 Z M 658 730 L 658 266 C 658 222 650 183 635 149 C 620 114 600 85 575 61 C 549 37 519 19 485 7 C 450 -5 413 -12 374 -12 C 335 -12 298 -6 264 6 C 229 18 199 35 174 59 C 148 83 128 112 113 147 C 98 181 91 221 91 266 L 91 730 L 178 730 L 178 262 C 178 233 183 207 193 183 C 203 159 217 139 235 123 C 253 106 273 93 297 84 C 320 74 345 70 372 70 C 398 70 424 74 448 83 C 472 91 494 104 512 121 C 530 137 544 157 555 181 C 565 205 571 232 571 262 L 571 730 L 658 730 Z M 425 -9 L 425 -9 Z M 534 -101 L 558 -136 C 538 -156 516 -171 491 -182 C 465 -192 437 -198 407 -198 C 373 -198 346 -190 326 -176 C 306 -161 297 -143 297 -121 C 297 -97 308 -74 330 -53 C 352 -31 382 -13 422 2 L 466 1 C 436 -13 412 -27 394 -42 C 376 -57 368 -72 368 -88 C 368 -102 374 -114 387 -123 C 399 -131 415 -136 434 -136 C 454 -136 473 -132 491 -126 C 509 -120 523 -111 534 -101 Z" unicode="Ų" />
<glyph horiz-adv-x="580" d="M 71 0 L 71 0 Z M 71 486 L 154 486 L 154 177 C 154 135 166 105 190 86 C 214 67 244 58 281 58 C 317 58 349 69 377 93 C 405 117 419 150 419 192 L 419 486 L 503 486 L 503 0 L 424 0 L 424 100 C 413 70 392 44 361 22 C 329 0 292 -11 248 -11 C 198 -11 156 3 122 31 C 88 59 71 100 71 155 L 71 486 Z M 432 -8 L 432 -8 Z M 541 -100 L 565 -135 C 545 -155 523 -170 498 -181 C 472 -191 444 -197 414 -197 C 380 -197 353 -189 333 -175 C 313 -160 304 -142 304 -120 C 304 -96 315 -73 337 -52 C 359 -30 389 -12 429 3 L 473 2 C 443 -12 419 -26 401 -41 C 383 -56 375 -71 375 -87 C 375 -101 381 -113 394 -122 C 406 -130 422 -135 441 -135 C 461 -135 480 -131 498 -125 C 516 -119 530 -110 541 -100 Z" unicode="ų" />
<glyph horiz-adv-x="928" d="M 10 0 L 10 0 Z M 919 730 L 694 -7 L 643 -7 L 466 567 L 281 -7 L 230 -7 L 10 730 L 101 730 L 263 172 L 443 730 L 494 730 L 672 171 L 835 730 L 919 730 Z M 467 787 L 467 787 Z M 633 787 L 555 787 L 467 903 L 378 787 L 302 787 L 425 958 L 510 958 L 633 787 Z" unicode="Ŵ" />
<glyph horiz-adv-x="716" d="M 6 0 L 6 0 Z M 488 -3 L 363 314 L 227 -3 L 178 -3 L 6 486 L 94 486 L 214 124 L 341 432 L 391 432 L 510 125 L 630 486 L 710 486 L 537 -3 L 488 -3 Z M 362 543 L 362 543 Z M 528 543 L 450 543 L 362 659 L 273 543 L 197 543 L 320 714 L 405 714 L 528 543 Z" unicode="ŵ" />
<glyph horiz-adv-x="631" d="M 2 0 L 2 0 Z M 649 730 L 368 320 L 368 0 L 278 0 L 278 324 L 2 730 L 103 730 L 328 403 L 553 730 L 649 730 Z M 326 787 L 326 787 Z M 492 787 L 414 787 L 326 903 L 237 787 L 161 787 L 284 958 L 369 958 L 492 787 Z" unicode="Ŷ" />
<glyph horiz-adv-x="506" d="M 0 0 L 0 0 Z M 507 486 L 235 -85 C 213 -131 187 -162 158 -177 C 129 -192 102 -200 77 -200 C 62 -200 49 -198 39 -195 C 29 -192 21 -190 17 -188 L 41 -112 C 44 -114 49 -116 57 -118 C 65 -120 73 -121 81 -121 C 97 -121 113 -115 127 -105 C 141 -94 155 -74 169 -46 L 208 32 L -3 486 L 88 486 L 252 119 L 420 486 L 507 486 Z M 253 543 L 253 543 Z M 419 543 L 341 543 L 253 659 L 164 543 L 88 543 L 211 714 L 296 714 L 419 543 Z" unicode="ŷ" />
<glyph horiz-adv-x="651" d="M 2 0 L 2 0 Z M 649 730 L 368 320 L 368 0 L 278 0 L 278 324 L 2 730 L 103 730 L 328 403 L 553 730 L 649 730 Z M 326 787 L 326 787 Z M 452 787 L 381 787 L 381 944 L 452 944 L 452 787 Z M 269 787 L 198 787 L 198 944 L 269 944 L 269 787 Z" unicode="Ÿ" />
<glyph horiz-adv-x="573" d="M 18 0 L 18 0 Z M 551 730 L 551 692 L 142 80 L 565 80 L 565 0 L 18 0 L 18 37 L 425 650 L 52 650 L 52 730 L 551 730 Z M 293 790 L 293 790 Z M 191 790 L 297 954 L 396 954 L 275 790 L 191 790 Z" unicode="Ź" />
<glyph horiz-adv-x="431" d="M 16 0 L 16 0 Z M 404 486 L 404 447 L 139 74 L 420 74 L 420 0 L 16 0 L 16 31 L 285 412 L 29 412 L 29 486 L 404 486 Z M 221 546 L 221 546 Z M 119 546 L 225 710 L 324 710 L 203 546 L 119 546 Z" unicode="ź" />
<glyph horiz-adv-x="573" d="M 18 0 L 18 0 Z M 551 730 L 551 692 L 142 80 L 565 80 L 565 0 L 18 0 L 18 37 L 425 650 L 52 650 L 52 730 L 551 730 Z M 293 787 L 293 787 Z M 332 787 L 255 787 L 255 951 L 332 951 L 332 787 Z" unicode="Ż" />
<glyph horiz-adv-x="431" d="M 16 0 L 16 0 Z M 404 486 L 404 447 L 139 74 L 420 74 L 420 0 L 16 0 L 16 31 L 285 412 L 29 412 L 29 486 L 404 486 Z M 221 543 L 221 543 Z M 260 543 L 183 543 L 183 707 L 260 707 L 260 543 Z" unicode="ż" />
<glyph horiz-adv-x="588" d="M 18 0 L 18 0 Z M 551 730 L 551 692 L 142 80 L 565 80 L 565 0 L 18 0 L 18 37 L 425 650 L 52 650 L 52 730 L 551 730 Z M 293 787 L 293 787 Z M 128 958 L 206 958 L 294 842 L 383 958 L 459 958 L 336 787 L 251 787 L 128 958 Z" unicode="Ž" />
<glyph horiz-adv-x="431" d="M 16 0 L 16 0 Z M 404 486 L 404 447 L 139 74 L 420 74 L 420 0 L 16 0 L 16 31 L 285 412 L 29 412 L 29 486 L 404 486 Z M 221 543 L 221 543 Z M 56 714 L 134 714 L 222 598 L 311 714 L 387 714 L 264 543 L 179 543 L 56 714 Z" unicode="ž" />
<glyph horiz-adv-x="364" d="M 179 -62 C 176 -94 163 -121 140 -144 C 116 -167 88 -179 54 -179 C 37 -179 21 -177 5 -175 C -10 -172 -22 -169 -30 -166 L -22 -106 C -17 -106 -10 -107 0 -109 C 9 -111 18 -112 27 -112 C 47 -112 65 -105 79 -91 C 93 -77 102 -58 105 -33 L 138 336 L 45 336 L 45 403 L 144 403 L 164 630 C 166 648 170 663 178 677 C 186 691 195 702 206 712 C 217 721 229 728 242 733 C 255 737 268 740 281 740 C 293 740 306 739 318 738 C 330 737 337 736 340 736 L 333 663 C 331 663 327 664 321 665 C 315 665 309 666 303 666 C 284 666 268 659 256 647 C 244 634 237 614 235 588 L 219 403 L 324 403 L 324 336 L 213 336 L 179 -62 Z" unicode="ƒ" />
<glyph horiz-adv-x="547" d="M 35 0 L 35 0 Z M 282 -12 C 227 -12 179 -3 137 12 C 95 28 61 51 35 79 L 91 148 C 111 123 139 103 174 88 C 208 73 244 66 281 66 C 319 66 351 76 377 97 C 403 118 416 145 416 179 C 416 209 404 236 382 259 C 360 282 320 306 264 330 C 193 359 141 390 108 422 C 75 454 59 500 59 560 C 59 614 78 657 116 691 C 154 725 205 742 269 742 C 313 742 353 734 387 720 C 421 706 451 688 477 667 L 429 594 C 406 614 381 630 354 642 C 326 654 298 660 269 660 C 231 660 201 650 179 631 C 157 611 146 587 146 559 C 146 525 158 498 182 478 C 206 457 249 433 312 407 C 383 377 433 345 461 312 C 489 278 504 236 504 184 C 504 153 498 125 486 101 C 474 77 458 56 438 40 C 418 23 394 10 367 1 C 340 -7 312 -12 282 -12 Z M 262 -82 L 262 -82 Z M 354 -82 C 348 -132 333 -180 310 -228 C 287 -275 261 -312 233 -338 L 171 -309 C 179 -300 187 -288 197 -272 C 206 -256 215 -237 225 -217 C 234 -197 242 -175 250 -152 C 257 -128 263 -105 267 -82 L 354 -82 Z" unicode="Ș" />
<glyph horiz-adv-x="439" d="M 35 0 L 35 0 Z M 234 -11 C 189 -11 150 -5 118 6 C 85 17 57 32 35 52 L 75 110 C 93 94 116 82 144 72 C 172 62 201 57 232 57 C 258 57 279 63 297 77 C 314 91 323 108 323 130 C 323 148 314 164 297 178 C 279 192 247 205 201 219 C 147 234 108 254 85 278 C 62 302 51 331 51 366 C 51 405 67 437 100 461 C 132 485 173 498 221 498 C 263 498 298 492 326 481 C 354 469 375 458 391 446 L 355 387 C 338 397 319 407 297 417 C 275 426 250 431 224 431 C 200 431 179 425 161 415 C 142 404 133 389 133 371 C 133 362 134 354 136 348 C 138 341 143 334 151 328 C 159 322 170 316 185 310 C 199 304 219 297 244 290 C 300 273 340 253 366 229 C 392 205 405 174 405 136 C 405 91 388 55 356 29 C 323 2 282 -11 234 -11 Z M 213 -79 L 213 -79 Z M 305 -79 C 299 -129 284 -177 261 -225 C 238 -272 212 -309 184 -335 L 122 -306 C 130 -297 138 -285 148 -269 C 157 -253 166 -234 176 -214 C 185 -194 193 -172 201 -149 C 208 -125 214 -102 218 -79 L 305 -79 Z" unicode="ș" />
<glyph horiz-adv-x="537" d="M 10 0 L 10 0 Z M 527 650 L 310 650 L 310 0 L 220 0 L 220 650 L 10 650 L 10 730 L 527 730 L 527 650 Z M 235 -76 L 235 -76 Z M 327 -76 C 321 -126 306 -174 283 -222 C 260 -269 234 -306 206 -332 L 144 -303 C 152 -294 160 -282 170 -266 C 179 -250 188 -231 198 -211 C 207 -191 215 -169 223 -146 C 230 -122 236 -99 240 -76 L 327 -76 Z" unicode="Ț" />
<glyph horiz-adv-x="312" d="M 12 0 L 12 0 Z M 290 79 L 297 10 C 290 5 279 1 265 -1 C 251 -4 236 -6 220 -6 C 202 -6 185 -3 169 1 C 153 5 138 13 126 23 C 114 33 104 47 96 64 C 88 80 85 101 85 126 L 85 414 L 12 414 L 12 486 L 85 486 L 85 607 L 169 618 L 169 486 L 285 486 L 285 414 L 169 414 L 169 135 C 169 111 174 93 186 82 C 198 71 214 66 235 66 C 245 66 256 67 267 70 C 277 73 285 76 290 79 Z M 148 -76 L 148 -76 Z M 240 -76 C 234 -126 219 -174 196 -222 C 173 -269 147 -306 119 -332 L 57 -303 C 65 -294 73 -282 83 -266 C 92 -250 101 -231 111 -211 C 120 -191 128 -169 136 -146 C 143 -122 149 -99 153 -76 L 240 -76 Z" unicode="ț" />
<glyph horiz-adv-x="260" d="M 186 486 L 186 -43 C 186 -92 172 -131 145 -159 C 118 -187 85 -202 46 -202 C 31 -202 15 -200 -1 -197 C -17 -194 -31 -190 -42 -185 L -27 -116 C -20 -119 -11 -122 -1 -124 C 8 -126 20 -128 32 -128 C 50 -128 67 -119 81 -103 C 95 -87 102 -64 102 -35 L 102 486 L 186 486 Z" unicode="ȷ" />
<glyph horiz-adv-x="500" d="M 416 543 L 338 543 L 250 659 L 161 543 L 85 543 L 208 714 L 293 714 L 416 543 Z" unicode="ˆ" />
<glyph horiz-adv-x="500" d="M 85 714 L 163 714 L 251 598 L 340 714 L 416 714 L 293 543 L 208 543 L 85 714 Z" unicode="ˇ" />
<glyph horiz-adv-x="500" d="M 335 705 L 405 705 C 401 650 384 610 356 585 C 327 560 292 548 250 548 C 208 548 172 560 144 585 C 115 610 99 650 95 705 L 165 705 C 167 674 175 649 188 629 C 201 609 222 600 250 600 C 278 600 298 609 312 628 C 325 646 333 672 335 705 Z" unicode="˘" />
<glyph horiz-adv-x="500" d="M 289 543 L 212 543 L 212 707 L 289 707 L 289 543 Z" unicode="˙" />
<glyph horiz-adv-x="508" d="M 254 541 C 221 541 193 552 171 575 C 149 597 138 625 138 658 C 138 690 149 718 171 740 C 193 762 221 774 254 774 C 286 774 314 762 337 740 C 359 718 371 690 371 658 C 371 625 359 597 337 575 C 314 552 286 541 254 541 Z M 254 593 C 272 593 287 599 299 611 C 311 623 318 639 318 658 C 318 676 311 691 299 704 C 287 716 272 723 254 723 C 236 723 221 716 209 704 C 196 691 190 676 190 658 C 190 639 196 623 209 611 C 221 599 236 593 254 593 Z" unicode="˚" />
<glyph horiz-adv-x="500" d="M 362 -92 L 386 -127 C 366 -147 344 -162 319 -173 C 293 -183 265 -189 235 -189 C 201 -189 174 -181 154 -167 C 134 -152 125 -134 125 -112 C 125 -88 136 -65 158 -44 C 180 -22 210 -4 250 11 L 294 10 C 264 -4 240 -18 222 -33 C 204 -48 196 -63 196 -79 C 196 -93 202 -105 215 -114 C 227 -122 243 -127 262 -127 C 282 -127 301 -123 319 -117 C 337 -111 351 -102 362 -92 Z" unicode="˛" />
<glyph horiz-adv-x="500" d="M 353 684 L 418 684 C 418 638 411 604 397 582 C 383 560 365 550 342 550 C 323 550 306 553 292 561 C 278 569 265 577 255 586 C 244 594 233 601 223 609 C 212 617 201 621 191 621 C 180 621 171 615 164 603 C 156 591 152 575 152 554 L 88 554 C 88 599 97 633 115 655 C 133 677 153 688 174 688 C 190 688 205 684 218 676 C 231 668 244 659 256 650 C 266 641 276 633 286 626 C 296 619 306 616 316 616 C 326 616 334 622 341 634 C 348 646 352 662 353 684 Z" unicode="˜" />
<glyph horiz-adv-x="500" d="M 79 542 L 173 692 L 262 692 L 153 542 L 79 542 Z M 260 542 L 355 692 L 444 692 L 334 542 L 260 542 Z" unicode="˝" />
<glyph horiz-adv-x="0" d="M 0 542 L 0 542 Z M 103 542 L 19 542 L -102 706 L -4 706 L 103 542 Z" unicode="̀" />
<glyph horiz-adv-x="0" d="M 0 546 L 0 546 Z M -102 546 L 4 710 L 103 710 L -18 546 L -102 546 Z" unicode="́" />
<glyph horiz-adv-x="0" d="M 0 543 L 0 543 Z M 166 543 L 88 543 L 0 659 L -89 543 L -165 543 L -42 714 L 43 714 L 166 543 Z" unicode="̂" />
<glyph horiz-adv-x="0" d="M 0 550 L 0 550 Z M 102 684 L 167 684 C 167 638 160 604 146 582 C 132 560 114 550 91 550 C 72 550 55 553 41 561 C 27 569 14 577 4 586 C -6 594 -17 601 -28 609 C -38 617 -49 621 -60 621 C -70 621 -79 615 -87 603 C -94 591 -98 575 -99 554 L -163 554 C -163 599 -153 633 -135 655 C -117 677 -97 688 -77 688 C -60 688 -45 684 -32 676 C -19 668 -7 659 5 650 C 15 641 25 633 35 626 C 45 619 55 616 65 616 C 75 616 83 622 90 634 C 97 646 101 662 102 684 Z" unicode="̃" />
<glyph horiz-adv-x="0" d="M 0 564 L 0 564 Z M 129 564 L -129 564 L -129 631 L 129 631 L 129 564 Z" unicode="̄" />
<glyph horiz-adv-x="0" d="M 0 548 L 0 548 Z M 85 705 L 155 705 C 151 650 134 610 106 585 C 77 560 42 548 0 548 C -42 548 -77 560 -106 585 C -134 610 -151 650 -155 705 L -85 705 C -82 674 -74 649 -61 629 C -48 609 -28 600 0 600 C 28 600 48 609 62 628 C 75 646 83 672 85 705 Z" unicode="̆" />
<glyph horiz-adv-x="0" d="M 0 543 L 0 543 Z M 39 543 L -38 543 L -38 707 L 39 707 L 39 543 Z" unicode="̇" />
<glyph horiz-adv-x="0" d="M 0 543 L 0 543 Z M 126 543 L 55 543 L 55 700 L 126 700 L 126 543 Z M -57 543 L -128 543 L -128 700 L -57 700 L -57 543 Z" unicode="̈" />
<glyph horiz-adv-x="0" d="M 0 541 L 0 541 Z M 0 541 C -32 541 -60 552 -82 575 C -104 597 -116 625 -116 658 C -116 690 -104 718 -82 740 C -60 762 -32 774 0 774 C 32 774 60 762 83 740 C 105 718 117 690 117 658 C 117 625 105 597 83 575 C 60 552 32 541 0 541 Z M 0 593 C 18 593 33 599 45 611 C 57 623 64 639 64 658 C 64 676 57 691 45 704 C 33 716 18 723 0 723 C -17 723 -32 716 -45 704 C -57 691 -64 676 -64 658 C -64 639 -57 623 -45 611 C -32 599 -17 593 0 593 Z" unicode="̊" />
<glyph horiz-adv-x="0" d="M 0 542 L 0 542 Z M -182 542 L -88 692 L 1 692 L -108 542 L -182 542 Z M -1 542 L 94 692 L 183 692 L 73 542 L -1 542 Z" unicode="̋" />
<glyph horiz-adv-x="0" d="M 0 543 L 0 543 Z M -165 714 L -87 714 L 1 598 L 90 714 L 166 714 L 43 543 L -42 543 L -165 714 Z" unicode="̌" />
<glyph horiz-adv-x="0" d="M 0 -76 L 0 -76 Z M 92 -76 C 86 -126 71 -174 48 -222 C 25 -269 0 -306 -29 -332 L -91 -303 C -83 -294 -74 -282 -65 -266 C -55 -250 -46 -231 -37 -211 C -27 -191 -19 -169 -12 -146 C -4 -122 1 -99 5 -76 L 92 -76 Z" unicode="̦" />
<glyph horiz-adv-x="0" d="M 0 0 L 0 0 Z M 9 -187 C -15 -187 -39 -184 -64 -178 C -88 -172 -108 -164 -122 -155 L -111 -117 C -101 -122 -87 -127 -71 -133 C -55 -139 -37 -142 -18 -142 C -2 -142 11 -138 23 -131 C 35 -124 41 -115 41 -103 C 41 -90 35 -81 25 -75 C 15 -69 3 -67 -9 -67 C -17 -67 -25 -67 -31 -68 C -37 -69 -43 -71 -51 -74 L -64 -61 L -4 11 L 48 11 L -2 -51 C 32 -43 62 -45 86 -58 C 110 -70 122 -89 122 -113 C 122 -137 110 -156 88 -168 C 65 -180 39 -187 9 -187 Z" unicode="̧" />
<glyph horiz-adv-x="0" d="M 0 0 L 0 0 Z M 109 -92 L 133 -127 C 113 -147 91 -162 66 -173 C 40 -183 12 -189 -18 -189 C -52 -189 -78 -181 -98 -167 C -118 -152 -128 -134 -128 -112 C -128 -88 -117 -65 -95 -44 C -73 -22 -42 -4 -3 11 L 41 10 C 11 -4 -12 -18 -30 -33 C -48 -48 -57 -63 -57 -79 C -57 -93 -50 -105 -38 -114 C -25 -122 -9 -127 9 -127 C 29 -127 48 -123 66 -117 C 84 -111 98 -102 109 -92 Z" unicode="̨" />
<glyph horiz-adv-x="572" d="M 1 0 L 1 0 Z M 647 0 L 1 0 L 303 731 L 348 731 L 647 0 Z M 526 71 L 321 584 L 116 71 L 526 71 Z" unicode="Δ" />
<glyph horiz-adv-x="724" d="M 43 0 L 43 0 Z M 52 0 L 52 77 L 265 77 L 265 152 C 199 178 145 218 104 270 C 63 322 43 380 43 444 C 43 486 51 525 67 562 C 83 599 105 631 134 658 C 163 685 198 706 240 722 C 281 738 327 746 378 746 C 430 746 478 738 521 722 C 563 706 599 684 629 657 C 658 630 681 598 697 561 C 713 524 721 485 721 444 C 721 380 701 322 663 270 C 625 218 570 178 498 152 L 498 77 L 711 77 L 711 0 L 430 0 L 430 195 C 492 217 540 251 576 296 C 612 340 630 388 630 440 C 630 474 623 505 611 534 C 598 563 580 588 558 609 C 536 630 509 646 479 658 C 448 670 415 676 379 676 C 343 676 311 670 281 658 C 251 646 225 630 204 609 C 182 588 165 563 153 534 C 141 504 135 472 135 438 C 135 388 152 341 187 297 C 222 253 271 219 334 195 L 334 0 L 52 0 Z" unicode="Ω" />
<glyph horiz-adv-x="591" d="M 77 0 L 77 0 Z M 77 -147 L 77 486 L 159 486 L 159 162 C 159 131 170 106 194 86 C 217 66 246 57 282 57 C 298 57 315 60 332 66 C 348 72 363 80 377 92 C 390 104 401 118 409 136 C 417 153 421 173 421 196 L 421 486 L 503 486 L 503 0 L 427 0 L 427 100 C 416 70 395 45 365 25 C 334 4 301 -6 265 -8 C 239 -8 216 -2 196 8 C 176 18 161 33 153 52 L 153 -147 L 77 -147 Z" unicode="μ" />
<glyph horiz-adv-x="623" d="M 177 463 L 177 0 L 95 0 L 95 463 L 15 463 L 15 528 L 608 528 L 608 463 L 523 463 L 523 0 L 440 0 L 440 463 L 177 463 Z" unicode="π" />
<glyph horiz-adv-x="928" d="M 10 0 L 10 0 Z M 919 730 L 694 -7 L 643 -7 L 466 567 L 281 -7 L 230 -7 L 10 730 L 101 730 L 263 172 L 443 730 L 494 730 L 672 171 L 835 730 L 919 730 Z M 467 786 L 467 786 Z M 570 786 L 486 786 L 365 950 L 463 950 L 570 786 Z" unicode="Ẁ" />
<glyph horiz-adv-x="716" d="M 6 0 L 6 0 Z M 488 -3 L 363 314 L 227 -3 L 178 -3 L 6 486 L 94 486 L 214 124 L 341 432 L 391 432 L 510 125 L 630 486 L 710 486 L 537 -3 L 488 -3 Z M 362 542 L 362 542 Z M 465 542 L 381 542 L 260 706 L 358 706 L 465 542 Z" unicode="ẁ" />
<glyph horiz-adv-x="928" d="M 10 0 L 10 0 Z M 919 730 L 694 -7 L 643 -7 L 466 567 L 281 -7 L 230 -7 L 10 730 L 101 730 L 263 172 L 443 730 L 494 730 L 672 171 L 835 730 L 919 730 Z M 467 790 L 467 790 Z M 365 790 L 471 954 L 570 954 L 449 790 L 365 790 Z" unicode="Ẃ" />
<glyph horiz-adv-x="716" d="M 6 0 L 6 0 Z M 488 -3 L 363 314 L 227 -3 L 178 -3 L 6 486 L 94 486 L 214 124 L 341 432 L 391 432 L 510 125 L 630 486 L 710 486 L 537 -3 L 488 -3 Z M 362 546 L 362 546 Z M 260 546 L 366 710 L 465 710 L 344 546 L 260 546 Z" unicode="ẃ" />
<glyph horiz-adv-x="928" d="M 10 0 L 10 0 Z M 919 730 L 694 -7 L 643 -7 L 466 567 L 281 -7 L 230 -7 L 10 730 L 101 730 L 263 172 L 443 730 L 494 730 L 672 171 L 835 730 L 919 730 Z M 467 787 L 467 787 Z M 593 787 L 522 787 L 522 944 L 593 944 L 593 787 Z M 410 787 L 339 787 L 339 944 L 410 944 L 410 787 Z" unicode="Ẅ" />
<glyph horiz-adv-x="716" d="M 6 0 L 6 0 Z M 488 -3 L 363 314 L 227 -3 L 178 -3 L 6 486 L 94 486 L 214 124 L 341 432 L 391 432 L 510 125 L 630 486 L 710 486 L 537 -3 L 488 -3 Z M 362 543 L 362 543 Z M 488 543 L 417 543 L 417 700 L 488 700 L 488 543 Z M 305 543 L 234 543 L 234 700 L 305 700 L 305 543 Z" unicode="ẅ" />
<glyph horiz-adv-x="631" d="M 2 0 L 2 0 Z M 649 730 L 368 320 L 368 0 L 278 0 L 278 324 L 2 730 L 103 730 L 328 403 L 553 730 L 649 730 Z M 326 786 L 326 786 Z M 429 786 L 345 786 L 224 950 L 322 950 L 429 786 Z" unicode="Ỳ" />
<glyph horiz-adv-x="506" d="M 0 0 L 0 0 Z M 507 486 L 235 -85 C 213 -131 187 -162 158 -177 C 129 -192 102 -200 77 -200 C 62 -200 49 -198 39 -195 C 29 -192 21 -190 17 -188 L 41 -112 C 44 -114 49 -116 57 -118 C 65 -120 73 -121 81 -121 C 97 -121 113 -115 127 -105 C 141 -94 155 -74 169 -46 L 208 32 L -3 486 L 88 486 L 252 119 L 420 486 L 507 486 Z M 253 542 L 253 542 Z M 356 542 L 272 542 L 151 706 L 249 706 L 356 542 Z" unicode="ỳ" />
<glyph horiz-adv-x="460" d="M 420 228 L 41 228 L 41 301 L 420 301 L 420 228 Z" unicode="–" />
<glyph horiz-adv-x="645" d="M 605 228 L 41 228 L 41 301 L 605 301 L 605 228 Z" unicode="—" />
<glyph horiz-adv-x="263" d="M 34 507 L 34 514 C 34 550 45 589 69 629 C 92 669 123 705 163 737 L 246 731 C 236 725 224 715 210 701 C 196 687 182 670 170 651 C 157 631 146 610 137 587 C 128 563 124 539 124 515 L 124 507 L 34 507 Z" unicode="‘" />
<glyph horiz-adv-x="263" d="M 228 737 L 228 730 C 228 693 216 655 192 616 C 168 577 137 541 99 507 L 16 513 C 26 521 38 532 52 546 C 66 560 79 577 92 596 C 104 614 115 635 124 658 C 133 680 138 704 138 729 L 138 737 L 228 737 Z" unicode="’" />
<glyph horiz-adv-x="263" d="M 228 111 L 228 104 C 228 67 216 29 192 -9 C 168 -48 137 -85 99 -119 L 16 -113 C 26 -105 38 -93 52 -79 C 66 -65 79 -48 92 -30 C 104 -11 115 9 124 32 C 133 54 138 78 138 103 L 138 111 L 228 111 Z" unicode="‚" />
<glyph horiz-adv-x="437" d="M 220 507 L 220 514 C 220 550 230 587 252 625 C 274 663 305 700 345 737 L 421 731 C 411 722 399 710 385 696 C 371 682 358 665 346 647 C 334 628 323 607 314 585 C 305 563 301 539 301 515 L 301 507 L 220 507 Z M 34 507 L 34 514 C 34 550 45 587 68 625 C 91 663 121 700 159 737 L 235 731 C 226 723 215 711 201 697 C 187 683 174 666 162 648 C 149 629 138 608 129 586 C 119 563 115 539 115 515 L 115 507 L 34 507 Z" unicode="“" />
<glyph horiz-adv-x="437" d="M 217 737 L 217 730 C 217 693 206 656 186 618 C 165 580 134 543 92 507 L 16 513 C 27 522 40 534 54 549 C 68 563 81 580 93 598 C 105 616 115 637 123 659 C 131 681 136 704 136 729 L 136 737 L 217 737 Z M 403 737 L 403 730 C 403 693 392 655 370 617 C 348 579 318 542 278 507 L 202 513 C 214 523 227 535 241 549 C 255 563 268 580 280 598 C 292 616 302 637 310 659 C 318 681 322 704 322 729 L 322 737 L 403 737 Z" unicode="”" />
<glyph horiz-adv-x="437" d="M 217 115 L 217 108 C 217 71 206 34 186 -3 C 165 -41 134 -78 92 -115 L 16 -109 C 27 -99 40 -87 54 -73 C 68 -58 81 -41 93 -23 C 105 -5 115 15 123 37 C 131 59 136 82 136 107 L 136 115 L 217 115 Z M 403 115 L 403 108 C 403 71 392 33 370 -4 C 348 -42 318 -79 278 -115 L 202 -109 C 214 -99 227 -86 241 -72 C 255 -58 268 -41 280 -23 C 292 -5 302 15 310 37 C 318 59 322 82 322 107 L 322 115 L 403 115 Z" unicode="„" />
<glyph horiz-adv-x="565" d="M 540 395 L 323 395 L 323 -179 L 236 -179 L 236 395 L 25 395 L 25 470 L 236 470 L 236 730 L 323 730 L 323 470 L 540 470 L 540 395 Z" unicode="†" />
<glyph horiz-adv-x="565" d="M 237 -179 L 237 118 L 29 118 L 29 193 L 237 193 L 237 387 L 29 387 L 29 462 L 237 462 L 237 730 L 323 730 L 323 462 L 536 462 L 536 387 L 323 387 L 323 193 L 536 193 L 536 118 L 323 118 L 323 -179 L 237 -179 Z" unicode="‡" />
<glyph horiz-adv-x="382" d="M 191 457 C 213 457 231 449 246 434 C 261 419 269 401 269 379 C 269 357 261 339 246 324 C 231 308 213 301 191 301 C 169 301 150 308 135 324 C 120 339 113 357 113 379 C 113 401 120 419 135 434 C 150 449 169 457 191 457 Z" unicode="•" />
<glyph horiz-adv-x="695" d="M 74 0 L 74 123 L 158 123 L 158 0 L 74 0 Z M 305 0 L 305 123 L 390 123 L 390 0 L 305 0 Z M 536 0 L 536 123 L 621 123 L 621 0 L 536 0 Z" unicode="…" />
<glyph horiz-adv-x="1167" d="M 206 356 C 185 356 165 360 146 369 C 126 377 109 390 94 406 C 78 422 66 442 57 466 C 47 490 43 517 43 548 C 43 574 47 598 55 622 C 63 645 75 665 90 683 C 104 700 121 714 141 724 C 161 734 182 740 205 740 C 229 740 252 734 272 724 C 292 714 309 700 323 683 C 337 666 348 646 356 623 C 364 600 368 576 368 551 C 368 523 364 498 356 474 C 348 450 336 430 322 412 C 308 394 291 381 271 371 C 251 361 229 356 206 356 Z M 133 0 L 590 730 L 664 730 L 206 0 L 133 0 Z M 119 547 C 119 507 127 476 144 454 C 160 432 180 421 204 421 C 232 421 254 432 270 456 C 285 479 293 509 293 547 C 293 583 286 614 272 638 C 258 662 236 675 207 675 C 179 675 157 662 142 638 C 126 614 119 583 119 547 Z M 600 -3 C 579 -3 559 1 539 10 C 519 18 502 31 487 47 C 472 63 460 83 451 107 C 442 131 438 158 438 189 C 438 215 442 239 450 263 C 458 287 470 307 484 325 C 498 342 516 356 536 366 C 556 376 577 382 601 382 C 625 382 648 376 668 366 C 688 356 705 342 719 325 C 733 308 743 288 751 265 C 759 241 763 217 763 192 C 763 165 759 140 751 116 C 743 92 731 71 717 54 C 703 36 686 22 666 12 C 646 2 624 -3 600 -3 Z M 961 -3 C 940 -3 920 1 901 10 C 881 18 864 31 849 47 C 834 63 822 83 813 107 C 803 131 799 158 799 189 C 799 215 803 239 811 263 C 819 287 831 307 845 325 C 859 342 877 356 897 366 C 917 376 938 382 962 382 C 986 382 1009 376 1029 366 C 1049 356 1066 342 1080 325 C 1094 308 1104 288 1112 265 C 1120 241 1124 217 1124 192 C 1124 165 1120 140 1112 116 C 1104 92 1092 71 1078 54 C 1064 36 1047 22 1027 12 C 1007 2 985 -3 961 -3 Z M 599 63 C 627 63 649 74 665 97 C 680 120 688 151 688 189 C 688 226 680 256 666 280 C 652 304 630 316 601 316 C 574 316 553 304 537 280 C 521 256 514 226 514 189 C 514 148 522 117 539 95 C 556 73 576 63 599 63 Z M 960 63 C 988 63 1010 74 1026 97 C 1042 120 1050 151 1050 189 C 1050 226 1042 256 1028 280 C 1013 304 991 316 963 316 C 936 316 915 304 899 280 C 883 256 875 226 875 189 C 875 148 883 117 900 95 C 917 73 937 63 960 63 Z" unicode="‰" />
<glyph horiz-adv-x="235" d="M 205 97 L 28 264 L 28 319 L 205 484 L 205 398 L 101 290 L 205 185 L 205 97 Z" unicode="‹" />
<glyph horiz-adv-x="235" d="M 30 485 L 207 318 L 207 263 L 30 98 L 30 183 L 134 292 L 30 396 L 30 485 Z" unicode="›" />
<glyph horiz-adv-x="145" d="M 301 730 L -72 0 L -145 0 L 228 730 L 301 730 Z" unicode="⁄" />
<glyph horiz-adv-x="326" d="M 15 456 L 15 507 L 204 738 L 252 738 L 252 510 L 315 510 L 315 456 L 252 456 L 252 373 L 183 373 L 183 456 L 15 456 Z M 72 501 L 185 501 L 185 642 L 72 501 Z" unicode="⁴" />
<glyph horiz-adv-x="567" d="M 564 116 C 543 79 513 48 473 24 C 433 0 390 -12 342 -12 C 280 -12 226 11 180 59 C 134 107 103 172 89 256 L 39 256 L 39 320 L 81 320 C 80 326 80 333 80 341 C 80 348 80 355 80 362 C 80 368 80 374 80 380 C 80 386 80 392 81 398 L 39 398 L 39 461 L 87 461 C 93 501 103 539 117 574 C 131 608 149 638 171 663 C 192 687 217 707 246 721 C 274 735 306 742 341 742 C 398 742 444 730 478 707 C 512 684 537 657 554 626 L 487 591 C 472 615 453 635 430 651 C 406 667 377 675 341 675 C 295 675 256 656 225 619 C 194 582 174 529 165 461 L 490 461 L 490 398 L 159 398 C 158 392 158 387 158 381 C 158 375 158 369 158 363 C 158 355 158 348 158 341 C 158 333 158 326 159 320 L 490 320 L 490 256 L 167 256 C 179 190 202 140 235 106 C 267 72 303 55 343 55 C 379 55 410 65 437 85 C 463 105 484 128 499 156 L 564 116 Z" unicode="€" />
<glyph horiz-adv-x="895" d="M 836 300 L 761 300 L 761 607 L 618 407 L 602 407 L 460 606 L 460 300 L 387 300 L 387 730 L 452 730 L 611 510 L 768 730 L 836 730 L 836 300 Z M 358 647 L 229 647 L 229 300 L 146 300 L 146 647 L 21 647 L 21 730 L 358 730 L 358 647 Z" unicode="™" />
<glyph horiz-adv-x="764" d="M 52 0 L 52 77 L 265 77 L 265 152 C 199 178 145 218 104 270 C 63 322 43 380 43 444 C 43 486 51 525 67 562 C 83 599 105 631 134 658 C 163 685 198 706 240 722 C 281 738 327 746 378 746 C 430 746 478 738 521 722 C 563 706 599 684 629 657 C 658 630 681 598 697 561 C 713 524 721 485 721 444 C 721 380 701 322 663 270 C 625 218 570 178 498 152 L 498 77 L 711 77 L 711 0 L 430 0 L 430 195 C 492 217 540 251 576 296 C 612 340 630 388 630 440 C 630 474 623 505 611 534 C 598 563 580 588 558 609 C 536 630 509 646 479 658 C 448 670 415 676 379 676 C 343 676 311 670 281 658 C 251 646 225 630 204 609 C 182 588 165 563 153 534 C 141 504 135 472 135 438 C 135 388 152 341 187 297 C 222 253 271 219 334 195 L 334 0 L 52 0 Z" unicode="Ω" />
<glyph horiz-adv-x="577" d="M 534 281 C 534 231 527 187 514 151 C 500 114 482 84 460 60 C 437 36 410 18 379 6 C 348 -5 315 -11 281 -11 C 249 -11 219 -5 189 5 C 159 16 133 32 111 52 C 88 72 70 97 56 127 C 42 157 35 190 35 226 C 35 258 41 289 53 319 C 65 349 82 375 104 397 C 125 419 150 437 180 451 C 209 464 240 471 274 471 C 319 471 358 460 391 438 C 424 416 448 388 463 355 C 457 426 443 487 422 537 C 401 587 376 628 347 660 C 318 691 287 714 253 729 C 219 744 186 752 154 754 L 193 802 C 226 802 262 792 302 774 C 342 756 379 726 413 685 C 447 644 476 590 499 524 C 522 457 534 376 534 281 Z M 283 48 C 331 48 370 65 401 100 C 432 134 448 181 448 239 C 448 262 444 284 436 305 C 428 326 417 344 403 360 C 389 376 371 388 351 397 C 330 406 307 411 282 411 C 236 411 197 393 167 359 C 136 325 121 281 121 229 C 121 173 136 128 167 96 C 198 64 237 48 283 48 Z" unicode="∂" />
<glyph horiz-adv-x="648" d="M 647 0 L 1 0 L 303 731 L 348 731 L 647 0 Z M 526 71 L 321 584 L 116 71 L 526 71 Z" unicode="∆" />
<glyph horiz-adv-x="700" d="M 220 655 L 220 0 L 133 0 L 133 655 L 15 655 L 15 730 L 685 730 L 685 655 L 571 655 L 571 0 L 485 0 L 485 655 L 220 655 Z" unicode="∏" />
<glyph horiz-adv-x="618" d="M 163 653 L 416 307 L 130 -102 L 572 -102 L 572 -179 L -12 -179 L 328 306 L 18 730 L 551 730 L 551 653 L 163 653 Z" unicode="∑" />
<glyph horiz-adv-x="513" d="M 472 297 L 41 297 L 41 366 L 472 366 L 472 297 Z" unicode="−" />
<glyph horiz-adv-x="510" d="M 500 730 L 198 0 L 186 0 L 14 327 L 74 371 L 202 116 L 446 730 L 500 730 Z" unicode="√" />
<glyph horiz-adv-x="334" d="M 109 -33 L 167 630 C 170 666 184 693 208 712 C 232 730 256 740 281 740 C 293 740 306 739 318 738 C 330 737 337 736 340 736 L 333 663 C 331 663 327 664 321 665 C 315 665 309 666 303 666 C 284 666 268 659 256 647 C 244 634 237 614 235 588 L 179 -62 C 176 -94 163 -121 140 -145 C 116 -168 88 -179 54 -179 C 36 -179 20 -177 5 -174 C -10 -170 -22 -166 -30 -162 L -21 -103 C -17 -103 -10 -105 0 -108 C 9 -110 18 -112 27 -112 C 47 -112 65 -105 81 -91 C 97 -77 106 -58 109 -33 Z" unicode="∫" />
<glyph horiz-adv-x="500" d="M 386 496 L 453 496 C 452 448 444 409 429 380 C 414 351 390 337 357 337 C 335 337 315 341 297 351 C 279 361 264 372 252 384 C 238 396 224 407 210 416 C 195 424 180 429 166 429 C 151 429 137 421 123 405 C 109 389 102 367 102 340 L 41 340 C 41 388 50 427 70 455 C 90 483 116 498 148 498 C 170 498 189 492 206 481 C 223 470 238 459 251 448 C 263 438 276 428 290 420 C 304 411 318 407 332 407 C 350 407 364 414 373 428 C 381 442 386 465 386 496 Z M 387 322 L 453 322 C 452 274 443 235 427 206 C 410 177 385 163 351 163 C 328 163 308 167 292 177 C 276 187 261 197 249 209 C 236 221 222 232 208 241 C 194 249 179 254 165 254 C 151 254 137 246 123 230 C 109 214 103 192 103 166 L 41 166 C 41 214 51 253 71 281 C 91 309 117 324 151 324 C 173 324 193 318 211 307 C 228 296 243 285 256 273 C 268 262 280 252 294 244 C 307 236 321 232 335 232 C 353 232 367 239 375 254 C 383 268 387 291 387 322 Z" unicode="≈" />
<glyph horiz-adv-x="500" d="M 457 179 L 220 179 L 168 71 L 119 94 L 160 179 L 65 179 L 65 250 L 194 250 L 262 390 L 65 390 L 65 461 L 296 461 L 348 569 L 397 547 L 356 461 L 457 461 L 457 390 L 321 390 L 254 250 L 457 250 L 457 179 Z" unicode="≠" />
<glyph horiz-adv-x="500" d="M 62 298 L 62 352 L 433 556 L 433 481 L 143 327 L 433 170 L 433 95 L 62 298 Z M 61 80 L 433 80 L 433 21 L 61 21 L 61 80 Z" unicode="≤" />
<glyph horiz-adv-x="500" d="M 432 298 L 61 95 L 61 170 L 351 327 L 61 481 L 61 556 L 432 352 L 432 298 Z M 433 80 L 433 21 L 61 21 L 61 80 L 433 80 Z" unicode="≥" />
<glyph horiz-adv-x="530" d="M 500 326 L 270 -12 L 259 -12 L 30 326 L 30 337 L 259 674 L 270 674 L 500 337 L 500 326 Z M 421 327 L 421 336 L 269 565 L 261 565 L 109 336 L 109 327 L 261 97 L 269 97 L 421 327 Z" unicode="◊" />
<glyph horiz-adv-x="730" d="M 448 683 L 282 683 L 282 730 L 448 730 L 448 683 Z M 659 282 L 610 282 L 610 448 L 659 448 L 659 282 Z M 120 282 L 71 282 L 71 448 L 120 448 L 120 282 Z M 423 307 L 307 307 L 307 423 L 423 423 L 423 307 Z M 448 0 L 282 0 L 282 48 L 448 48 L 448 0 Z" unicode="" />
<glyph horiz-adv-x="605" d="M 356 418 L 207 418 L 207 0 L 124 0 L 124 418 L 18 418 L 18 486 L 124 486 L 124 561 C 124 598 129 630 141 658 C 152 685 167 707 185 725 C 203 743 224 756 247 764 C 270 772 293 777 316 777 C 330 777 345 775 360 773 C 374 770 385 767 393 764 L 381 691 C 375 693 366 695 356 697 C 346 699 335 701 324 701 C 311 701 298 698 284 692 C 270 686 257 678 246 668 C 234 657 225 643 218 627 C 210 611 207 592 207 571 L 207 486 L 356 486 L 356 418 Z M 529 597 L 440 597 L 440 681 L 529 681 L 529 597 Z M 526 0 L 443 0 L 443 486 L 526 486 L 526 0 Z" unicode="ﬁ" />
<glyph horiz-adv-x="590" d="M 356 418 L 207 418 L 207 0 L 124 0 L 124 418 L 18 418 L 18 486 L 124 486 L 124 551 C 124 588 129 620 141 648 C 152 676 167 699 185 717 C 203 735 224 748 247 757 C 270 765 293 770 316 770 C 330 770 345 768 360 766 C 374 763 385 760 393 756 L 381 683 C 375 685 366 688 356 690 C 346 692 335 694 324 694 C 311 694 298 691 284 685 C 270 679 257 671 246 660 C 234 648 225 634 218 618 C 210 601 207 582 207 561 L 207 486 L 356 486 L 356 418 Z M 511 765 L 511 0 L 428 0 L 428 765 L 511 765 Z" unicode="ﬂ" />
</font>
</defs>
</svg>
