<?xml version="1.0" encoding="utf-8" ?><svg version="1.1" xmlns = 'http://www.w3.org/2000/svg'><defs><font id='web' horiz-adv-x="1000">
<font-face font-family="web" descent="-200" cap-height="730" units-per-em="1000" bbox="-173,-324,955,1034" x-height="544" ascent="800" />
<missing-glyph horiz-adv-x="500" d="" /><glyph horiz-adv-x="180" d="" unicode=" " />
<glyph horiz-adv-x="257" d="M 184 425 L 150 206 L 106 206 L 72 425 L 72 730 L 184 730 L 184 425 Z M 180 0 L 78 0 L 78 112 L 180 112 L 180 0 Z" unicode="!" />
<glyph horiz-adv-x="344" d="M 298 624 L 292 484 L 212 484 L 207 623 L 207 730 L 298 730 L 298 624 Z M 137 623 L 132 484 L 51 484 L 46 623 L 46 730 L 137 730 L 137 623 Z" unicode="&#x22;" />
<glyph horiz-adv-x="546" d="M 499 214 L 390 214 L 371 0 L 307 1 L 326 214 L 194 214 L 175 0 L 111 1 L 130 214 L 30 214 L 30 303 L 138 303 L 148 424 L 48 424 L 48 513 L 156 513 L 175 730 L 239 729 L 220 513 L 352 513 L 371 730 L 435 729 L 416 513 L 517 513 L 517 424 L 408 424 L 398 303 L 499 303 L 499 214 Z M 202 303 L 334 303 L 344 424 L 212 424 L 202 303 Z" unicode="#" />
<glyph horiz-adv-x="459" d="M 426 187 C 426 159 421 135 412 113 C 403 91 391 72 376 56 C 361 40 344 28 324 18 C 304 8 283 2 261 -1 L 261 -130 L 201 -130 L 201 -2 C 165 0 132 9 102 23 C 72 37 45 58 21 87 L 72 162 C 87 138 107 119 131 106 C 155 93 178 86 201 85 L 201 339 C 151 366 112 395 84 427 C 56 458 42 502 42 558 C 42 606 57 645 87 676 C 117 706 155 725 201 731 L 201 793 L 261 793 L 261 732 C 293 729 322 721 346 709 C 370 697 392 681 410 663 L 356 596 C 342 610 327 621 311 629 C 294 637 277 642 261 645 L 261 410 L 267 407 C 325 375 366 344 390 312 C 414 280 426 238 426 187 Z M 139 548 C 139 526 144 508 152 493 C 160 477 176 461 201 445 L 201 640 C 183 633 169 622 157 606 C 145 590 139 570 139 548 Z M 330 192 C 330 214 324 234 314 251 C 304 267 286 285 261 303 L 261 92 C 279 98 295 110 309 126 C 323 142 330 164 330 192 Z" unicode="$" />
<glyph horiz-adv-x="681" d="M 169 363 C 152 363 136 366 120 374 C 104 382 89 393 77 409 C 64 425 54 444 46 468 C 38 492 34 519 34 551 C 34 604 46 649 72 685 C 97 721 129 740 167 740 C 187 740 206 735 224 725 C 241 715 256 701 268 685 C 280 668 290 648 297 626 C 303 603 307 579 307 554 C 307 527 303 502 296 479 C 288 455 278 435 266 418 C 254 400 239 387 223 377 C 206 367 188 363 169 363 Z M 165 0 L 84 0 L 498 730 L 576 730 L 165 0 Z M 169 440 C 193 440 210 451 218 474 C 226 497 230 523 230 551 C 230 564 229 577 227 591 C 225 604 221 616 217 627 C 213 637 207 646 199 653 C 191 659 182 663 171 663 C 147 663 130 651 122 628 C 114 605 110 579 110 551 C 110 523 113 498 121 475 C 129 451 145 440 169 440 Z M 508 -3 C 491 -3 474 0 458 8 C 441 16 426 27 413 43 C 400 59 390 78 382 102 C 374 126 370 153 370 185 C 370 238 383 283 409 319 C 435 355 468 374 510 374 C 531 374 550 369 567 359 C 584 349 598 335 610 319 C 622 302 631 282 637 260 C 643 237 647 213 647 188 C 647 161 643 136 637 113 C 630 89 620 69 608 52 C 596 34 581 21 564 11 C 547 1 528 -3 508 -3 Z M 507 75 C 531 75 548 86 557 108 C 566 130 571 156 571 185 C 571 213 566 239 557 262 C 547 285 531 297 509 297 C 487 297 471 285 461 262 C 451 239 446 213 446 185 C 446 156 450 130 459 108 C 468 86 484 75 507 75 Z" unicode="%" />
<glyph horiz-adv-x="637" d="M 564 -5 L 490 74 C 458 46 424 26 386 12 C 348 -1 305 -8 259 -8 C 187 -8 130 8 89 42 C 47 76 27 123 27 183 C 27 243 41 289 71 321 C 101 353 137 381 179 406 L 173 413 C 157 430 140 453 123 481 C 106 509 98 542 98 582 C 98 601 101 620 109 639 C 116 658 127 675 141 689 C 155 703 173 715 195 724 C 216 732 240 737 268 737 C 322 737 365 722 399 694 C 432 665 449 631 449 592 C 449 551 437 515 415 484 C 392 452 361 422 321 394 L 491 217 C 499 229 508 242 516 256 C 524 270 533 284 542 300 L 623 243 C 612 225 601 207 591 191 C 580 175 569 160 558 146 L 636 65 L 564 -5 Z M 250 468 L 264 454 C 296 473 318 491 332 508 C 346 525 353 544 353 564 C 353 584 346 603 333 620 C 319 636 300 645 275 645 C 250 645 231 635 218 617 C 205 598 199 579 199 560 C 199 543 203 528 212 515 C 220 501 233 486 250 468 Z M 138 200 C 138 166 151 139 179 117 C 206 95 238 84 274 84 C 302 84 329 88 354 98 C 379 108 403 123 426 143 L 239 343 C 210 324 186 304 167 282 C 147 260 138 233 138 200 Z" unicode="&#x26;" />
<glyph horiz-adv-x="185" d="M 140 621 L 136 480 L 50 480 L 45 621 L 45 730 L 140 730 L 140 621 Z" unicode="'" />
<glyph horiz-adv-x="294" d="M 274 -87 L 274 -179 C 242 -163 210 -140 180 -112 C 149 -84 122 -50 98 -10 C 74 29 55 74 41 126 C 27 177 20 233 20 293 C 20 349 26 402 39 451 C 52 499 70 543 92 582 C 114 621 141 655 173 683 C 204 711 238 733 274 749 L 274 659 C 225 629 188 583 162 521 C 136 459 122 383 122 293 C 122 209 134 134 158 68 C 182 2 220 -49 274 -87 Z" unicode="(" />
<glyph horiz-adv-x="294" d="M 20 658 L 20 749 C 54 735 87 714 118 686 C 149 658 176 625 199 586 C 222 546 240 501 254 451 C 267 400 274 345 274 285 C 274 228 267 175 253 126 C 239 76 221 32 198 -6 C 174 -45 147 -79 117 -109 C 86 -138 54 -161 20 -179 L 20 -84 C 72 -48 110 1 135 65 C 159 129 172 203 172 285 C 172 376 160 453 135 517 C 109 580 71 627 20 658 Z" unicode=")" />
<glyph horiz-adv-x="379" d="M 362 575 L 233 554 L 328 471 L 252 409 L 191 524 L 133 411 L 51 470 L 150 555 L 21 572 L 66 673 L 165 604 L 140 730 L 243 730 L 216 604 L 321 665 L 362 575 Z" unicode="*" />
<glyph horiz-adv-x="469" d="M 446 292 L 276 292 L 276 125 L 194 125 L 194 292 L 24 292 L 24 372 L 194 372 L 194 537 L 276 537 L 276 372 L 446 372 L 446 292 Z" unicode="+" />
<glyph horiz-adv-x="213" d="M 181 107 C 180 84 176 60 170 35 C 164 10 156 -13 147 -36 C 138 -59 128 -80 117 -99 C 105 -118 94 -133 84 -145 L 6 -110 C 13 -100 20 -88 28 -72 C 36 -56 43 -38 50 -19 C 56 0 62 20 67 42 C 71 64 74 85 75 107 L 181 107 Z" unicode="," />
<glyph horiz-adv-x="314" d="M 282 222 L 34 222 L 34 314 L 282 314 L 282 222 Z" unicode="-" />
<glyph horiz-adv-x="215" d="M 159 0 L 56 0 L 56 130 L 159 130 L 159 0 Z" unicode="." />
<glyph horiz-adv-x="309" d="M 308 730 L 96 0 L 2 0 L 216 730 L 308 730 Z" unicode="/" />
<glyph horiz-adv-x="441" d="M 218 -7 C 190 -7 165 0 142 11 C 118 23 98 44 81 72 C 64 100 51 138 41 186 C 31 233 27 291 27 361 C 27 477 42 569 74 637 C 105 704 154 738 222 738 C 256 738 286 729 310 712 C 334 695 354 671 370 640 C 385 608 396 570 403 525 C 410 479 414 428 414 372 C 414 247 397 153 365 89 C 332 25 283 -7 218 -7 Z M 219 79 C 252 79 276 100 291 144 C 305 188 313 261 313 363 C 313 461 306 533 294 580 C 281 626 257 650 221 650 C 186 650 162 627 148 583 C 134 539 127 466 127 365 C 127 311 129 265 133 229 C 137 192 143 163 151 141 C 159 119 168 103 180 93 C 191 83 204 79 219 79 Z" unicode="0" />
<glyph horiz-adv-x="298" d="M 240 0 L 135 0 L 135 581 C 124 560 108 541 86 525 C 64 508 44 498 26 496 L 26 606 C 36 606 47 611 60 619 C 72 627 84 638 96 650 C 108 662 118 676 128 690 C 138 704 145 719 150 733 L 240 733 L 240 0 Z" unicode="1" />
<glyph horiz-adv-x="429" d="M 401 0 L 21 0 L 21 19 L 235 345 C 254 375 269 407 281 439 C 292 471 298 507 298 547 C 298 581 290 606 275 623 C 259 640 238 649 212 649 C 180 649 156 637 142 615 C 128 593 121 561 121 520 L 27 520 C 27 594 43 648 76 684 C 108 719 153 737 209 737 C 263 737 307 722 342 692 C 377 662 395 619 395 563 C 395 505 389 458 377 422 C 365 386 349 354 331 325 L 181 96 L 401 96 L 401 0 Z" unicode="2" />
<glyph horiz-adv-x="427" d="M 182 -7 C 134 -7 94 -1 62 11 C 30 23 6 36 -11 50 L 27 131 C 41 117 61 105 86 94 C 111 83 141 78 177 78 C 217 78 249 91 273 118 C 297 145 309 181 309 225 C 309 247 305 267 298 283 C 290 299 281 312 269 322 C 257 332 244 340 230 345 C 215 350 200 353 185 353 L 111 353 L 111 440 L 184 440 C 213 440 237 449 256 469 C 275 488 285 515 285 551 C 285 581 276 606 259 624 C 241 642 216 652 184 652 C 156 652 132 646 111 635 C 89 623 71 609 55 591 L -2 652 C 15 674 40 693 74 711 C 108 729 152 738 206 738 C 258 738 300 723 333 693 C 365 663 382 623 382 572 C 382 527 370 490 347 460 C 324 430 296 410 264 402 C 280 398 297 392 314 383 C 331 373 346 361 360 346 C 373 330 384 312 392 291 C 400 270 405 247 405 221 C 405 193 400 166 392 139 C 384 111 371 87 353 66 C 335 44 312 27 284 13 C 256 0 222 -7 182 -7 Z" unicode="3" />
<glyph horiz-adv-x="419" d="M 418 179 L 349 179 L 349 0 L 261 0 L 261 179 L 2 179 L 1 246 L 285 737 L 349 737 L 349 268 L 418 268 L 418 179 Z M 261 258 L 261 550 L 98 258 L 261 258 Z" unicode="4" />
<glyph horiz-adv-x="415" d="M 204 -7 C 161 -7 121 0 85 16 C 49 32 20 51 0 74 L 50 151 C 64 135 83 119 105 104 C 127 88 153 81 184 81 C 221 81 250 95 270 124 C 290 153 301 194 301 246 C 301 292 292 327 274 352 C 256 376 232 389 204 389 C 172 389 148 382 134 369 C 119 356 107 339 99 319 L 30 342 L 58 730 L 367 730 L 366 634 L 131 634 L 113 412 C 120 425 133 439 151 453 C 169 467 197 474 236 474 C 284 474 323 456 354 420 C 385 384 401 329 401 255 C 401 211 395 172 385 139 C 374 106 359 79 341 57 C 323 35 302 19 278 9 C 254 -1 230 -7 204 -7 Z" unicode="5" />
<glyph horiz-adv-x="420" d="M 220 -9 C 194 -9 170 -4 146 5 C 122 15 101 29 83 49 C 65 68 50 92 39 121 C 28 149 23 183 23 221 C 23 287 36 355 64 423 C 92 491 135 566 193 646 L 265 746 L 340 696 L 300 638 C 279 607 258 577 238 548 C 218 518 199 491 183 466 C 166 440 152 417 141 396 C 129 375 122 357 119 343 C 130 369 147 391 171 408 C 195 424 221 433 250 433 C 297 433 335 412 363 372 C 391 331 405 279 405 216 C 405 183 400 153 391 125 C 381 97 369 74 353 54 C 337 34 317 19 294 8 C 271 -3 246 -9 220 -9 Z M 217 79 C 245 79 267 90 283 113 C 299 136 307 169 307 212 C 307 258 298 291 282 313 C 266 334 244 345 218 345 C 191 345 169 334 151 313 C 133 291 124 259 124 216 C 124 168 133 133 151 111 C 169 89 191 79 217 79 Z" unicode="6" />
<glyph horiz-adv-x="358" d="M 363 730 L 363 682 L 114 -5 L 20 29 L 257 634 L 10 634 L 10 730 L 363 730 Z" unicode="7" />
<glyph horiz-adv-x="433" d="M 298 392 C 311 388 325 382 339 374 C 353 365 366 353 378 338 C 389 323 398 305 406 283 C 413 261 417 235 417 206 C 417 140 399 88 364 50 C 328 12 280 -7 219 -7 C 156 -7 106 11 70 48 C 34 85 16 135 16 199 C 16 230 20 257 28 281 C 36 304 47 323 59 339 C 71 355 84 367 98 376 C 112 385 125 391 137 394 C 113 402 91 418 69 444 C 47 469 36 507 36 559 C 36 587 40 612 50 634 C 60 656 73 675 89 690 C 105 705 124 717 146 725 C 168 733 191 737 216 737 C 270 737 313 721 347 689 C 380 657 397 616 397 566 C 397 540 394 518 388 498 C 382 478 374 461 364 447 C 354 433 344 421 332 412 C 320 403 309 396 298 392 Z M 217 418 C 242 418 263 426 281 444 C 299 462 308 492 308 534 C 308 572 299 601 281 622 C 263 642 241 653 217 653 C 191 653 169 643 151 624 C 133 604 124 575 124 535 C 124 512 127 493 133 478 C 139 462 146 450 155 442 C 164 433 174 427 185 423 C 196 419 207 418 217 418 Z M 218 77 C 248 77 272 87 290 108 C 308 129 317 163 317 210 C 317 254 306 285 286 305 C 266 325 243 335 218 335 C 190 335 166 325 146 306 C 126 286 116 253 116 207 C 116 164 126 132 147 110 C 167 88 191 77 218 77 Z" unicode="8" />
<glyph horiz-adv-x="420" d="M 170 -12 L 95 42 L 125 81 C 141 103 159 129 178 158 C 197 186 215 215 233 244 C 250 272 265 300 279 326 C 292 352 302 374 308 392 C 296 368 277 347 251 330 C 225 313 199 305 171 305 C 123 305 85 325 57 366 C 29 406 15 458 15 521 C 15 553 19 582 29 609 C 39 635 52 658 70 677 C 87 696 107 711 131 721 C 154 731 179 737 206 737 C 231 737 255 732 279 723 C 302 713 322 699 340 681 C 358 663 372 639 382 611 C 392 583 398 550 398 513 C 398 469 393 427 383 386 C 373 345 361 306 345 269 C 329 231 310 196 290 162 C 269 128 248 96 227 67 L 170 -12 Z M 201 393 C 223 393 244 401 265 419 C 285 437 296 469 296 515 C 296 563 287 598 269 618 C 251 638 229 649 204 649 C 175 649 153 638 137 617 C 121 595 113 564 113 522 C 113 476 120 443 136 423 C 151 403 173 393 201 393 Z" unicode="9" />
<glyph horiz-adv-x="211" d="M 157 419 L 54 419 L 54 544 L 157 544 L 157 419 Z M 157 0 L 54 0 L 54 126 L 157 126 L 157 0 Z" unicode=":" />
<glyph horiz-adv-x="211" d="M 164 419 L 62 419 L 62 544 L 164 544 L 164 419 Z M 166 102 C 165 78 162 53 156 29 C 150 4 143 -19 135 -41 C 126 -63 116 -83 105 -101 C 94 -119 83 -133 73 -145 L -4 -110 C 3 -100 11 -88 19 -72 C 27 -56 35 -39 42 -21 C 49 -2 55 17 59 39 C 63 60 66 81 66 102 L 166 102 Z" unicode=";" />
<glyph horiz-adv-x="390" d="M 344 102 L 30 291 L 30 359 L 344 545 L 344 450 L 127 325 L 344 200 L 344 102 Z" unicode="&#x3C;" />
<glyph horiz-adv-x="479" d="M 427 386 L 54 386 L 54 474 L 427 474 L 427 386 Z M 427 171 L 54 171 L 54 259 L 427 259 L 427 171 Z" unicode="=" />
<glyph horiz-adv-x="390" d="M 354 291 L 40 102 L 40 198 L 253 325 L 40 450 L 40 545 L 354 359 L 354 291 Z" unicode="&#x3E;" />
<glyph horiz-adv-x="429" d="M 151 209 C 151 248 156 282 167 310 C 178 338 195 366 217 394 C 235 415 252 438 269 464 C 286 489 295 519 295 554 C 295 582 286 605 268 621 C 250 637 227 646 200 646 C 174 646 152 639 133 626 C 113 613 96 596 81 576 L 21 640 C 45 674 75 699 109 716 C 143 733 180 742 218 742 C 277 742 322 726 354 694 C 386 662 402 620 402 567 C 402 541 398 518 392 498 C 386 477 378 458 368 440 C 358 422 346 406 334 390 C 321 374 308 359 296 345 C 278 326 266 304 260 279 C 253 253 249 230 249 209 L 151 209 Z M 147 0 L 147 120 L 258 120 L 258 0 L 147 0 Z" unicode="?" />
<glyph horiz-adv-x="794" d="M 393 -46 C 338 -46 288 -36 243 -16 C 198 4 160 30 128 64 C 96 98 72 138 55 184 C 37 230 29 279 29 331 C 29 383 38 432 56 478 C 74 524 99 563 131 597 C 163 631 202 658 248 678 C 294 698 344 708 398 708 C 454 708 504 699 550 682 C 596 665 634 641 666 611 C 698 581 722 544 740 502 C 757 459 766 412 766 361 C 766 318 761 281 752 250 C 742 219 730 194 715 174 C 699 154 682 140 662 131 C 642 121 622 117 602 117 C 573 117 550 123 533 137 C 516 151 506 168 502 190 C 492 175 474 159 448 142 C 422 125 389 117 350 117 C 306 117 270 128 244 152 C 217 175 204 208 204 252 C 204 275 209 296 219 314 C 229 332 242 346 259 358 C 276 370 296 379 320 385 C 343 391 368 394 395 394 L 480 394 L 480 408 C 480 436 471 456 454 468 C 437 480 415 487 388 487 C 365 487 343 484 323 478 C 303 472 286 467 274 463 L 248 525 C 267 534 289 542 314 548 C 338 554 366 557 397 557 C 450 557 490 543 517 517 C 543 490 557 447 557 388 L 557 239 C 557 225 561 213 571 203 C 580 193 593 188 611 188 C 622 188 633 190 644 195 C 654 199 664 208 672 220 C 680 232 686 250 691 272 C 696 294 699 323 699 357 C 699 399 692 437 678 473 C 664 509 644 539 618 564 C 592 589 560 609 523 623 C 485 637 444 644 398 644 C 352 644 311 635 274 619 C 236 603 204 580 178 552 C 152 524 131 490 117 452 C 102 414 95 373 95 330 C 95 286 102 245 116 207 C 130 169 151 135 177 107 C 203 78 234 55 271 38 C 308 21 349 13 395 13 C 415 13 434 14 452 18 C 470 22 492 29 517 41 L 540 -13 C 512 -25 487 -34 464 -39 C 441 -43 417 -46 393 -46 Z M 374 187 C 398 187 421 192 442 204 C 463 216 476 228 480 241 L 480 334 L 400 334 C 364 334 336 327 316 314 C 296 301 287 282 287 258 C 287 235 294 217 309 205 C 324 193 346 187 374 187 Z" unicode="@" />
<glyph horiz-adv-x="484" d="M 483 0 L 379 0 L 333 171 L 145 171 L 102 0 L 0 0 L 204 734 L 280 734 L 483 0 Z M 319 249 L 238 553 L 160 249 L 319 249 Z" unicode="A" />
<glyph horiz-adv-x="455" d="M 56 0 L 56 730 L 239 730 C 289 730 330 714 362 683 C 394 652 410 610 410 556 C 410 504 397 464 372 435 C 347 406 318 389 286 383 C 303 381 321 377 339 369 C 357 361 374 349 389 335 C 403 320 415 302 425 280 C 434 258 439 234 439 206 C 439 144 421 94 387 56 C 352 18 308 0 254 0 L 56 0 Z M 161 413 L 216 413 C 250 413 274 425 289 451 C 303 477 311 505 311 536 C 311 569 303 595 287 615 C 271 634 246 644 210 644 L 161 644 L 161 413 Z M 161 86 L 231 86 C 267 86 293 98 309 122 C 325 146 334 175 334 209 C 334 251 323 281 302 300 C 281 318 253 328 219 328 L 161 328 L 161 86 Z" unicode="B" />
<glyph horiz-adv-x="533" d="M 283 -7 C 208 -7 147 24 101 86 C 55 148 32 241 32 366 C 32 482 53 573 96 639 C 138 704 201 737 283 737 C 344 737 391 720 423 688 C 455 656 478 616 491 568 L 392 535 C 382 565 370 590 354 611 C 338 631 314 642 283 642 C 238 642 203 621 178 580 C 153 538 141 466 141 362 C 141 309 145 265 153 230 C 161 194 172 166 186 145 C 200 124 215 109 233 100 C 251 91 269 87 288 87 C 324 87 351 98 369 120 C 387 142 401 171 412 205 L 502 164 C 484 110 457 68 421 38 C 385 8 339 -7 283 -7 Z" unicode="C" />
<glyph horiz-adv-x="541" d="M 56 0 L 56 730 L 223 730 C 269 730 310 721 346 704 C 382 686 412 662 436 630 C 460 598 478 559 490 514 C 502 468 509 418 509 363 C 509 312 503 264 491 220 C 479 176 461 137 437 105 C 413 72 382 46 345 28 C 308 9 265 0 216 0 L 56 0 Z M 165 92 L 219 92 C 283 92 329 116 357 164 C 384 212 398 278 398 362 C 398 457 382 527 352 571 C 322 615 280 638 226 638 L 165 638 L 165 92 Z" unicode="D" />
<glyph horiz-adv-x="396" d="M 385 0 L 56 0 L 56 730 L 367 730 L 367 634 L 163 634 L 163 412 L 359 412 L 359 319 L 163 319 L 163 96 L 385 96 L 385 0 Z" unicode="E" />
<glyph horiz-adv-x="357" d="M 351 634 L 167 634 L 167 414 L 340 414 L 340 321 L 167 321 L 167 0 L 57 0 L 57 730 L 351 730 L 351 634 Z" unicode="F" />
<glyph horiz-adv-x="539" d="M 276 367 L 505 367 L 505 117 C 487 81 459 51 422 28 C 385 4 339 -7 283 -7 C 249 -7 216 1 186 18 C 155 34 128 58 106 90 C 83 121 65 160 52 206 C 38 252 32 305 32 365 C 32 421 37 473 49 519 C 61 565 77 604 99 636 C 121 668 147 692 179 710 C 210 727 245 736 284 736 C 344 736 389 722 420 696 C 451 670 474 638 489 602 L 401 545 C 390 571 376 594 359 612 C 341 630 318 639 290 639 C 244 639 208 617 182 573 C 155 529 142 458 142 360 C 142 261 156 190 184 146 C 212 102 245 81 284 81 C 314 81 339 85 360 95 C 380 104 396 120 406 143 L 406 276 L 276 276 L 276 367 Z" unicode="G" />
<glyph horiz-adv-x="534" d="M 478 0 L 368 0 L 368 316 L 166 316 L 166 0 L 56 0 L 56 730 L 166 730 L 166 406 L 368 406 L 368 730 L 478 730 L 478 0 Z" unicode="H" />
<glyph horiz-adv-x="230" d="M 171 0 L 60 0 L 60 730 L 171 730 L 171 0 Z" unicode="I" />
<glyph horiz-adv-x="289" d="M 236 730 L 236 182 C 236 126 220 81 190 45 C 159 9 116 -8 61 -8 C 47 -8 33 -6 17 -3 C 1 0 -10 4 -18 10 L 3 99 C 7 96 14 94 23 93 C 31 91 40 91 49 91 C 73 91 92 102 106 124 C 119 146 126 172 126 204 L 126 730 L 236 730 Z" unicode="J" />
<glyph horiz-adv-x="500" d="M 510 0 L 389 0 L 197 304 L 167 266 L 167 0 L 56 0 L 56 730 L 167 730 L 167 415 L 377 730 L 489 730 L 262 401 L 510 0 Z" unicode="K" />
<glyph horiz-adv-x="360" d="M 353 0 L 56 0 L 56 730 L 166 730 L 166 96 L 353 96 L 353 0 Z" unicode="L" />
<glyph horiz-adv-x="645" d="M 590 0 L 485 0 L 485 502 L 349 177 L 300 177 L 158 502 L 158 0 L 56 0 L 56 730 L 157 730 L 325 328 L 495 730 L 590 730 L 590 0 Z" unicode="M" />
<glyph horiz-adv-x="533" d="M 477 0 L 399 0 L 159 470 L 159 0 L 56 0 L 56 730 L 133 730 L 377 254 L 377 730 L 477 730 L 477 0 Z" unicode="N" />
<glyph horiz-adv-x="570" d="M 287 -7 C 205 -7 142 25 98 90 C 54 155 32 249 32 371 C 32 485 54 575 99 640 C 143 704 204 737 282 737 C 364 737 428 705 472 641 C 516 577 538 485 538 365 C 538 249 515 158 469 92 C 423 26 362 -7 287 -7 Z M 285 81 C 329 81 363 104 388 151 C 412 197 425 271 425 372 C 425 466 412 535 387 581 C 361 626 327 649 283 649 C 237 649 203 626 180 581 C 157 536 146 464 146 365 C 146 264 158 191 183 147 C 208 103 242 81 285 81 Z" unicode="O" />
<glyph horiz-adv-x="448" d="M 56 0 L 56 730 L 246 730 C 272 730 296 725 319 716 C 341 706 361 693 378 675 C 395 657 408 636 418 610 C 428 584 433 555 433 523 C 433 457 415 404 379 365 C 343 325 299 306 246 306 L 166 306 L 166 0 L 56 0 Z M 166 396 L 222 396 C 256 396 281 406 298 427 C 315 447 324 479 324 523 C 324 562 314 591 294 610 C 274 628 250 638 221 638 L 166 638 L 166 396 Z" unicode="P" />
<glyph horiz-adv-x="570" d="M 507 -52 L 507 -159 C 469 -152 430 -135 390 -109 C 350 -82 316 -47 289 -5 L 287 -5 C 207 -5 145 27 100 91 C 54 155 32 249 32 371 C 32 485 54 575 100 640 C 146 704 206 737 282 737 C 363 737 426 705 471 641 C 515 577 538 485 538 365 C 538 279 524 206 498 147 C 471 88 436 46 392 22 C 412 -1 433 -18 455 -30 C 477 -42 494 -49 507 -52 Z M 144 364 C 144 281 153 217 171 171 C 189 125 214 97 247 86 C 242 102 238 120 236 139 C 233 157 232 177 233 197 L 324 197 C 324 178 326 160 330 144 C 334 127 339 112 345 98 C 371 116 391 147 405 192 C 419 237 427 296 427 370 C 427 469 413 540 386 583 C 359 626 325 648 283 648 C 237 648 203 626 179 582 C 155 538 144 466 144 364 Z" unicode="Q" />
<glyph horiz-adv-x="466" d="M 56 0 L 56 730 L 223 730 C 277 730 322 713 358 680 C 394 646 412 595 412 527 C 412 473 400 428 378 392 C 355 356 326 336 292 331 L 291 325 L 466 0 L 354 0 L 197 302 L 157 302 L 157 0 L 56 0 Z M 157 392 L 208 392 C 238 392 262 403 282 425 C 301 447 311 478 311 516 C 311 559 300 590 280 610 C 260 630 236 640 210 640 L 157 640 L 157 392 Z" unicode="R" />
<glyph horiz-adv-x="415" d="M 207 -7 C 167 -7 132 0 100 12 C 68 25 40 48 14 82 L 86 147 C 100 124 117 107 139 95 C 161 83 182 77 202 77 C 226 77 248 86 267 104 C 285 122 295 147 295 179 C 295 211 286 238 269 258 C 251 278 221 303 177 332 C 133 359 98 390 73 425 C 47 459 35 505 35 562 C 35 588 39 612 49 634 C 59 656 72 674 88 689 C 104 704 124 716 146 724 C 168 732 191 737 216 737 C 256 737 289 730 315 716 C 341 702 362 686 377 669 L 312 602 C 301 614 287 625 270 633 C 253 641 235 645 216 645 C 195 645 176 637 159 622 C 141 606 133 584 133 556 C 133 528 141 504 156 486 C 171 468 202 444 248 416 C 301 384 338 351 359 315 C 380 279 391 236 391 184 C 391 152 385 125 375 101 C 365 77 351 57 334 41 C 317 25 297 13 275 5 C 253 -3 230 -7 207 -7 Z" unicode="S" />
<glyph horiz-adv-x="380" d="M 374 634 L 245 634 L 245 0 L 135 0 L 135 634 L 6 634 L 6 730 L 374 730 L 374 634 Z" unicode="T" />
<glyph horiz-adv-x="534" d="M 481 730 L 481 220 C 481 178 475 143 463 115 C 451 86 434 63 414 45 C 394 27 370 13 344 5 C 317 -2 289 -7 260 -7 C 232 -7 206 -3 181 5 C 155 13 133 25 115 43 C 96 61 81 84 70 113 C 58 142 53 178 53 220 L 53 730 L 162 730 L 162 217 C 162 169 171 136 190 117 C 209 97 234 88 264 88 C 293 88 317 97 337 115 C 357 133 367 167 367 217 L 367 730 L 481 730 Z" unicode="U" />
<glyph horiz-adv-x="462" d="M 462 730 L 270 -4 L 189 -4 L 0 730 L 106 730 L 232 187 L 361 730 L 462 730 Z" unicode="V" />
<glyph horiz-adv-x="693" d="M 673 730 L 524 -3 L 449 -3 L 337 530 L 226 -3 L 151 -3 L 3 730 L 106 730 L 203 201 L 303 730 L 383 730 L 484 203 L 580 730 L 673 730 Z" unicode="W" />
<glyph horiz-adv-x="449" d="M 335 0 L 220 264 L 103 0 L 4 0 L 171 377 L 17 730 L 125 730 L 225 500 L 327 730 L 427 730 L 274 386 L 442 0 L 335 0 Z" unicode="X" />
<glyph horiz-adv-x="464" d="M 469 730 L 285 313 L 285 0 L 175 0 L 175 315 L -4 730 L 123 730 L 237 426 L 364 730 L 469 730 Z" unicode="Y" />
<glyph horiz-adv-x="421" d="M 396 730 L 396 674 L 147 93 L 407 93 L 407 0 L 14 0 L 14 54 L 262 635 L 42 635 L 42 730 L 396 730 Z" unicode="Z" />
<glyph horiz-adv-x="230" d="M 212 -179 L 47 -179 L 47 730 L 212 730 L 212 638 L 144 638 L 144 -87 L 212 -87 L 212 -179 Z" unicode="[" />
<glyph horiz-adv-x="309" d="M 2 730 L 93 730 L 308 0 L 215 0 L 2 730 Z" unicode="\" />
<glyph horiz-adv-x="233" d="M 188 -179 L 22 -179 L 22 -87 L 90 -87 L 90 638 L 22 638 L 22 730 L 188 730 L 188 -179 Z" unicode="]" />
<glyph horiz-adv-x="433" d="M 412 369 L 324 369 L 215 626 L 108 369 L 20 369 L 172 730 L 259 730 L 412 369 Z" unicode="^" />
<glyph horiz-adv-x="425" d="M 425 -160 L 0 -160 L 0 -78 L 425 -78 L 425 -160 Z" unicode="_" />
<glyph horiz-adv-x="500" d="M 348 605 L 251 605 L 146 778 L 262 778 L 348 605 Z" unicode="`" />
<glyph horiz-adv-x="378" d="M 340 0 L 257 0 L 257 49 C 240 29 224 15 208 7 C 192 0 170 -5 141 -5 C 105 -5 75 10 52 40 C 28 70 17 112 17 166 C 17 225 32 268 63 294 C 93 320 130 336 173 340 L 246 346 L 246 385 C 246 411 239 430 227 443 C 214 455 196 462 174 462 C 152 462 133 457 116 449 C 98 441 85 432 76 424 L 47 508 C 60 518 79 529 104 539 C 128 549 159 554 195 554 C 239 554 274 541 300 516 C 326 490 340 455 340 409 L 340 0 Z M 248 114 L 248 277 L 196 272 C 173 269 154 259 138 243 C 122 226 114 199 114 163 C 114 129 120 106 134 92 C 147 78 161 71 177 71 C 194 71 208 75 220 83 C 231 91 240 102 248 114 Z" unicode="a" />
<glyph horiz-adv-x="412" d="M 242 -4 C 214 -4 190 3 170 18 C 150 33 136 52 127 74 L 127 0 L 38 0 L 38 800 L 134 800 L 134 446 C 141 472 154 496 173 517 C 191 537 217 548 250 548 C 294 548 328 523 354 475 C 379 427 392 363 392 284 C 392 192 377 121 349 71 C 321 21 285 -4 242 -4 Z M 206 79 C 230 79 250 94 265 125 C 280 155 288 205 288 274 C 288 337 280 383 266 412 C 252 441 232 456 207 456 C 187 456 169 442 154 416 C 138 389 131 337 131 261 C 131 223 133 192 137 168 C 141 144 147 125 154 112 C 161 99 169 90 178 86 C 187 81 196 79 206 79 Z" unicode="b" />
<glyph horiz-adv-x="359" d="M 297 128 L 346 68 C 334 48 317 31 296 17 C 274 2 247 -5 213 -5 C 181 -5 154 1 130 15 C 106 29 85 48 69 73 C 53 97 40 126 32 160 C 24 194 20 231 20 271 C 20 308 24 343 32 377 C 40 411 51 440 67 466 C 83 491 103 511 127 526 C 151 541 178 549 210 549 C 246 549 276 539 300 521 C 324 502 341 482 351 462 L 280 408 C 273 422 264 434 253 444 C 241 454 227 459 211 459 C 183 459 161 442 147 410 C 132 378 125 333 125 276 C 125 207 134 157 154 127 C 174 96 198 81 226 81 C 244 81 259 86 270 97 C 281 107 290 118 297 128 Z" unicode="c" />
<glyph horiz-adv-x="424" d="M 179 -5 C 154 -5 132 1 112 15 C 92 29 76 48 62 72 C 48 96 38 124 31 158 C 23 191 20 227 20 266 C 20 351 34 419 64 470 C 93 520 131 546 178 546 C 206 546 231 536 251 516 C 271 496 284 472 291 444 L 291 800 L 386 800 L 386 0 L 297 0 L 297 71 C 291 53 278 35 258 19 C 238 3 211 -5 179 -5 Z M 210 79 C 236 79 256 94 271 125 C 285 156 293 206 293 275 C 293 343 284 390 268 416 C 252 442 232 455 209 455 C 183 455 163 440 148 412 C 132 384 125 337 125 271 C 125 204 132 155 147 125 C 162 94 183 79 210 79 Z" unicode="d" />
<glyph horiz-adv-x="392" d="M 202 -5 C 147 -5 103 19 70 69 C 36 119 20 185 20 268 C 20 354 37 423 71 473 C 105 523 148 548 200 548 C 260 548 304 521 333 467 C 362 413 377 339 377 247 L 120 247 C 120 201 128 162 145 131 C 161 99 186 84 220 84 C 243 84 263 90 279 104 C 295 118 307 131 317 144 L 363 88 C 356 78 347 67 337 56 C 327 45 315 35 302 26 C 288 17 273 10 257 4 C 240 -2 222 -5 202 -5 Z M 117 317 L 278 317 C 278 365 271 401 257 426 C 243 450 225 463 203 463 C 178 463 158 450 143 426 C 127 402 119 365 117 317 Z" unicode="e" />
<glyph horiz-adv-x="223" d="M 225 455 L 159 455 L 159 0 L 59 0 L 59 455 L 7 455 L 7 544 L 59 544 L 59 671 C 59 691 62 710 70 726 C 78 742 88 755 101 767 C 113 778 128 787 144 793 C 160 799 176 802 192 802 C 200 802 212 800 228 797 C 243 793 256 788 267 780 L 240 705 C 238 705 234 706 228 708 C 222 710 214 711 205 711 C 189 711 177 706 169 697 C 161 687 158 671 158 649 L 158 544 L 225 544 L 225 455 Z" unicode="f" />
<glyph horiz-adv-x="422" d="M 177 14 C 131 14 94 37 65 85 C 35 132 21 197 21 279 C 21 364 36 430 67 478 C 97 525 134 549 178 549 C 208 549 233 540 253 522 C 272 504 286 484 295 462 L 295 544 L 384 544 L 384 10 C 384 -26 378 -57 367 -83 C 355 -109 340 -130 322 -147 C 303 -164 282 -177 258 -185 C 234 -193 209 -197 185 -197 C 149 -197 120 -193 97 -187 C 73 -180 56 -173 45 -165 L 76 -85 C 89 -90 103 -94 119 -98 C 135 -102 155 -104 179 -104 C 211 -104 237 -93 258 -71 C 278 -49 289 -18 289 23 L 289 108 C 281 83 268 61 249 42 C 230 23 206 14 177 14 Z M 209 99 C 234 99 254 112 269 140 C 284 168 292 215 292 283 C 292 347 283 392 265 418 C 247 444 228 457 207 457 C 182 457 162 442 148 414 C 133 385 126 341 126 281 C 126 221 132 175 146 145 C 159 114 180 99 209 99 Z" unicode="g" />
<glyph horiz-adv-x="407" d="M 369 0 L 269 0 L 269 401 C 269 421 263 437 253 447 C 242 457 227 463 209 463 C 189 463 173 457 159 445 C 145 433 139 411 139 380 L 139 0 L 38 0 L 38 800 L 133 800 L 133 481 C 139 500 151 516 169 529 C 187 542 212 549 244 549 C 282 549 312 539 335 520 C 357 501 369 470 369 426 L 369 0 Z" unicode="h" />
<glyph horiz-adv-x="181" d="M 38 620 L 38 712 L 143 712 L 143 620 L 38 620 Z M 40 0 L 40 544 L 141 544 L 141 0 L 40 0 Z" unicode="i" />
<glyph horiz-adv-x="183" d="M 145 620 L 41 620 L 41 712 L 145 712 L 145 620 Z M 143 544 L 143 -60 C 143 -90 132 -115 111 -135 C 90 -155 63 -166 30 -166 C 10 -166 -7 -162 -22 -155 C -37 -148 -46 -142 -50 -137 L -17 -74 C -14 -75 -10 -76 -4 -78 C 1 -80 7 -81 14 -81 C 22 -81 29 -78 35 -72 C 40 -66 43 -58 43 -50 L 43 544 L 143 544 Z" unicode="j" />
<glyph horiz-adv-x="379" d="M 388 0 L 282 0 L 179 216 L 139 150 L 139 0 L 38 0 L 38 800 L 133 800 L 133 274 L 274 544 L 378 544 L 243 301 L 388 0 Z" unicode="k" />
<glyph horiz-adv-x="207" d="M 37 110 L 37 800 L 138 800 L 138 129 C 138 114 141 103 147 97 C 153 90 163 87 176 87 C 180 87 184 87 188 88 C 192 88 195 89 198 90 L 213 8 C 206 4 197 1 187 -1 C 176 -3 163 -5 149 -5 C 117 -5 90 4 69 24 C 47 44 37 72 37 110 Z" unicode="l" />
<glyph horiz-adv-x="631" d="M 38 0 L 38 544 L 123 544 L 123 466 C 129 494 144 515 168 529 C 191 543 218 550 248 550 C 279 550 304 542 323 528 C 342 514 353 492 356 463 L 359 463 C 365 489 379 510 399 526 C 419 542 446 550 480 550 C 512 550 539 540 561 522 C 582 503 593 473 593 431 L 593 0 L 494 0 L 494 386 C 494 415 488 435 476 447 C 464 459 449 465 431 465 C 413 465 398 458 385 446 C 371 433 365 409 365 375 L 365 0 L 266 0 L 266 389 C 266 419 259 440 247 450 C 235 460 220 465 204 465 C 187 465 172 458 158 446 C 144 433 137 410 137 376 L 137 0 L 38 0 Z" unicode="m" />
<glyph horiz-adv-x="407" d="M 369 0 L 269 0 L 269 400 C 269 420 263 436 253 447 C 242 457 227 463 209 463 C 189 463 173 457 159 445 C 145 433 139 411 139 380 L 139 0 L 38 0 L 38 544 L 123 544 L 123 472 C 131 494 146 513 167 527 C 187 541 214 549 247 549 C 283 549 313 539 335 521 C 357 503 369 473 369 433 L 369 0 Z" unicode="n" />
<glyph horiz-adv-x="407" d="M 204 -5 C 150 -5 106 18 72 64 C 37 110 20 179 20 271 C 20 357 36 424 69 474 C 102 524 145 549 198 549 C 255 549 301 526 335 481 C 369 436 387 371 387 286 C 387 196 370 125 338 73 C 305 21 260 -5 204 -5 Z M 205 83 C 230 83 249 97 263 127 C 276 156 283 206 283 276 C 283 345 276 393 262 420 C 248 446 227 460 201 460 C 177 460 158 446 144 419 C 130 391 124 344 124 276 C 124 202 131 151 146 124 C 160 96 180 83 205 83 Z" unicode="o" />
<glyph horiz-adv-x="411" d="M 38 -200 L 38 544 L 121 544 L 121 442 C 123 454 128 467 136 480 C 143 492 152 504 163 514 C 173 524 186 533 200 539 C 214 545 229 549 247 549 C 272 549 294 542 312 529 C 330 516 345 498 357 476 C 369 454 377 427 383 395 C 389 363 392 329 392 293 C 392 198 378 125 351 73 C 324 21 287 -4 241 -4 C 214 -4 191 2 172 14 C 153 26 140 41 133 59 L 133 -200 L 38 -200 Z M 204 79 C 229 79 249 93 265 123 C 280 152 288 200 288 267 C 288 328 281 375 268 407 C 255 439 234 455 206 455 C 196 455 186 452 177 447 C 167 441 159 431 152 417 C 145 402 139 382 135 357 C 131 331 129 299 129 259 C 129 222 130 192 134 168 C 138 144 143 126 150 113 C 156 100 164 91 174 86 C 183 81 193 79 204 79 Z" unicode="p" />
<glyph horiz-adv-x="424" d="M 291 -200 L 291 86 C 283 62 269 41 249 23 C 229 5 202 -4 168 -4 C 124 -4 89 20 61 68 C 33 116 20 182 20 264 C 20 360 35 432 66 479 C 97 525 135 549 179 549 C 211 549 236 538 256 518 C 276 498 290 473 299 445 L 299 544 L 386 544 L 386 -200 L 291 -200 Z M 208 79 C 234 79 254 93 269 122 C 284 151 292 201 292 273 C 292 339 284 386 268 414 C 252 442 232 456 206 456 C 182 456 162 441 147 412 C 132 383 125 335 125 267 C 125 209 132 164 147 130 C 161 96 182 79 208 79 Z" unicode="q" />
<glyph horiz-adv-x="302" d="M 307 518 L 273 434 C 263 443 253 449 245 452 C 237 455 227 457 216 457 C 200 457 183 450 165 437 C 147 423 139 395 139 352 L 139 0 L 38 0 L 38 544 L 136 544 L 136 471 C 142 491 154 509 170 525 C 186 541 206 549 229 549 C 247 549 262 545 276 539 C 289 532 299 525 307 518 Z" unicode="r" />
<glyph horiz-adv-x="316" d="M 164 -5 C 131 -5 101 1 74 15 C 46 28 26 46 12 69 L 65 139 C 75 120 88 106 102 97 C 116 87 132 83 149 83 C 164 83 178 88 191 99 C 203 109 210 125 210 146 C 210 168 202 185 187 198 C 171 210 151 225 127 242 C 99 260 75 282 57 307 C 39 332 30 367 30 411 C 30 449 42 481 67 508 C 91 535 123 549 163 549 C 190 549 214 544 236 536 C 257 527 275 516 289 504 L 251 419 C 242 427 230 436 216 445 C 202 454 187 459 173 459 C 157 459 143 454 131 446 C 119 438 114 426 114 410 C 114 392 120 377 133 367 C 145 357 166 342 194 323 C 228 298 253 272 270 246 C 287 219 296 184 296 140 C 296 114 291 92 283 74 C 275 55 264 40 251 28 C 238 16 224 8 208 3 C 192 -2 178 -5 164 -5 Z" unicode="s" />
<glyph horiz-adv-x="228" d="M 211 102 L 231 18 C 224 13 215 8 204 4 C 192 0 176 -3 154 -3 C 128 -3 104 7 82 29 C 60 51 50 81 50 119 L 50 455 L 3 455 L 3 544 L 53 544 L 53 649 L 148 662 L 148 544 L 217 544 L 217 455 L 150 455 L 150 130 C 150 118 153 109 159 103 C 165 97 173 94 183 94 C 188 94 193 94 199 96 C 204 98 208 100 211 102 Z" unicode="t" />
<glyph horiz-adv-x="407" d="M 37 544 L 138 544 L 138 156 C 138 130 143 111 154 98 C 165 85 181 79 201 79 C 219 79 234 86 248 100 C 261 114 268 139 268 175 L 268 544 L 368 544 L 368 0 L 280 0 L 280 75 C 272 54 258 35 236 19 C 214 2 187 -6 156 -6 C 125 -6 97 5 73 28 C 49 51 37 84 37 126 L 37 544 Z" unicode="u" />
<glyph horiz-adv-x="345" d="M 350 544 L 212 -2 L 133 -2 L -5 544 L 96 544 L 177 184 L 258 544 L 350 544 Z" unicode="v" />
<glyph horiz-adv-x="549" d="M 352 -2 L 277 305 L 197 -2 L 120 -2 L -1 544 L 90 544 L 170 166 L 241 458 L 316 458 L 382 168 L 463 544 L 549 544 L 426 -2 L 352 -2 Z" unicode="w" />
<glyph horiz-adv-x="349" d="M 247 0 L 170 175 L 90 0 L 2 0 L 126 276 L 9 544 L 110 544 L 177 389 L 247 544 L 340 544 L 222 287 L 347 0 L 247 0 Z" unicode="x" />
<glyph horiz-adv-x="347" d="M 352 544 L 185 -93 C 176 -125 161 -151 139 -171 C 117 -190 91 -200 63 -200 C 32 -200 8 -196 -9 -190 C -27 -184 -38 -178 -44 -172 L -3 -99 C 0 -101 7 -105 18 -109 C 29 -113 39 -115 49 -115 C 61 -115 73 -110 83 -100 C 93 -90 101 -75 106 -55 L 129 44 L -5 544 L 97 544 L 179 187 L 259 544 L 352 544 Z" unicode="y" />
<glyph horiz-adv-x="327" d="M 312 544 L 312 502 L 133 87 L 317 87 L 317 0 L 10 0 L 10 34 L 192 455 L 22 455 L 22 544 L 312 544 Z" unicode="z" />
<glyph horiz-adv-x="255" d="M 235 -179 C 207 -179 181 -175 157 -167 C 132 -159 110 -148 92 -134 C 73 -120 58 -104 47 -86 C 36 -67 31 -47 31 -26 C 31 0 33 24 39 46 C 45 67 51 85 59 101 C 66 117 73 133 80 147 C 87 161 91 175 91 188 C 91 202 83 215 67 228 C 51 241 34 248 16 248 L 16 323 C 34 323 52 330 69 344 C 85 358 94 373 94 391 C 94 393 90 403 83 419 C 75 435 67 453 59 472 C 50 490 43 509 39 527 C 34 545 32 563 32 580 C 32 601 37 622 48 642 C 58 662 73 680 91 696 C 109 712 131 724 156 734 C 181 744 207 749 235 749 L 235 675 C 210 675 187 665 167 645 C 146 625 136 601 136 574 C 136 565 137 554 140 540 C 142 526 147 513 154 499 C 164 478 174 459 182 442 C 190 424 194 410 194 398 C 194 372 186 349 171 329 C 155 308 133 293 103 285 C 133 276 156 261 171 241 C 186 220 194 198 194 176 C 194 157 190 141 183 127 C 175 113 168 99 160 85 C 152 71 145 56 141 40 C 137 24 135 9 135 -4 C 135 -14 137 -26 143 -38 C 148 -50 155 -61 164 -71 C 173 -81 184 -89 196 -95 C 208 -101 221 -105 235 -105 L 235 -179 Z" unicode="{" />
<glyph horiz-adv-x="230" d="M 163 -179 L 67 -179 L 67 730 L 163 730 L 163 -179 Z" unicode="|" />
<glyph horiz-adv-x="255" d="M 20 -179 L 20 -105 C 34 -105 47 -101 59 -95 C 71 -89 81 -81 90 -71 C 99 -61 106 -50 112 -38 C 117 -26 120 -14 120 -4 C 120 9 118 24 114 40 C 110 56 104 71 96 85 C 88 99 80 113 72 127 C 64 141 61 157 61 176 C 61 198 68 220 83 241 C 97 261 119 276 148 285 C 120 293 98 308 83 329 C 68 349 61 372 61 398 C 61 410 65 424 73 442 C 81 459 91 478 101 499 C 107 513 112 526 115 540 C 117 554 119 565 119 574 C 119 601 108 625 88 645 C 67 665 44 675 20 675 L 20 749 C 47 749 73 744 98 734 C 123 724 145 712 163 696 C 181 680 196 662 207 642 C 217 622 223 601 223 580 C 223 563 220 545 216 527 C 211 509 204 490 196 472 C 187 453 179 435 172 419 C 164 403 161 393 161 391 C 161 373 169 358 186 344 C 202 330 220 323 239 323 L 239 248 C 220 248 203 241 187 228 C 171 215 164 202 164 188 C 164 175 167 161 174 147 C 181 133 188 117 196 101 C 203 85 209 67 215 46 C 221 24 224 0 224 -26 C 224 -47 218 -67 207 -86 C 196 -104 181 -120 163 -134 C 144 -148 122 -159 98 -167 C 73 -175 47 -179 20 -179 Z" unicode="}" />
<glyph horiz-adv-x="453" d="M 345 447 L 427 447 C 425 399 417 359 402 328 C 386 297 361 282 325 282 C 302 282 280 286 260 296 C 239 305 223 315 213 327 C 202 339 192 349 182 358 C 172 366 162 371 152 371 C 140 371 130 362 120 346 C 110 330 106 309 106 285 L 26 285 C 26 335 35 374 53 404 C 71 434 98 449 134 449 C 157 449 179 443 199 432 C 219 420 235 409 246 399 C 257 389 267 380 276 372 C 284 364 294 361 306 361 C 321 361 331 368 337 382 C 342 396 345 418 345 447 Z" unicode="~" />
<glyph horiz-adv-x="257" d="M 78 609 L 180 609 L 180 497 L 78 497 L 78 609 Z M 72 192 L 108 411 L 152 411 L 184 192 L 184 -102 L 72 -102 L 72 192 Z" unicode="¡" />
<glyph horiz-adv-x="354" d="M 341 134 C 330 122 317 111 303 99 C 288 87 266 80 237 76 L 237 -35 L 177 -35 L 177 75 C 126 81 87 104 60 145 C 33 185 20 236 20 296 C 20 323 23 349 30 375 C 36 400 46 422 59 442 C 72 462 88 478 108 492 C 128 505 151 514 177 518 L 177 625 L 237 625 L 237 518 C 265 514 287 507 305 496 C 322 484 336 473 347 462 L 313 391 C 303 399 293 408 282 416 C 270 424 255 428 237 430 L 237 161 C 255 162 270 167 282 175 C 293 183 302 190 309 198 L 341 134 Z M 125 300 C 125 268 129 241 139 221 C 149 200 161 185 177 175 L 177 420 C 159 410 146 395 138 374 C 129 353 125 328 125 300 Z" unicode="¢" />
<glyph horiz-adv-x="469" d="M 453 79 L 453 0 L 15 0 L 15 61 C 19 64 27 67 38 70 C 48 72 62 76 79 80 C 103 84 125 96 144 116 C 162 135 172 162 172 196 C 172 198 171 201 171 205 C 171 209 170 212 170 215 L 31 215 L 31 289 L 140 289 C 135 297 130 306 125 316 C 120 326 115 336 111 346 L 31 346 L 31 421 L 80 421 C 74 439 69 459 65 480 C 61 500 59 522 59 545 C 59 581 64 612 76 638 C 88 663 103 683 122 699 C 141 714 163 725 187 732 C 211 738 236 742 262 742 C 297 742 332 733 366 715 C 400 697 424 679 438 663 L 390 588 C 379 600 363 613 341 628 C 319 642 296 650 272 650 C 260 650 247 648 235 644 C 223 640 212 633 202 623 C 192 613 183 601 177 585 C 171 569 168 549 168 526 C 168 508 170 490 174 472 C 178 454 184 437 191 421 L 405 421 L 405 346 L 224 346 C 228 336 233 327 237 317 C 241 307 245 298 249 289 L 405 289 L 405 215 L 264 215 C 264 193 261 174 256 158 C 250 142 244 129 237 119 C 229 108 221 99 213 93 C 205 87 197 82 191 79 L 453 79 Z" unicode="£" />
<glyph horiz-adv-x="502" d="M 250 183 C 234 183 218 185 204 189 C 189 193 175 198 163 205 L 97 137 L 45 189 L 107 252 C 96 266 87 282 81 300 C 75 317 72 335 72 354 C 72 373 75 391 81 409 C 87 426 96 442 108 457 L 46 520 L 96 570 L 162 503 C 174 509 188 515 203 519 C 218 523 234 525 250 525 C 266 525 282 523 297 519 C 312 515 326 509 340 502 L 407 571 L 457 519 L 394 455 C 404 441 413 425 419 408 C 425 390 428 372 428 354 C 428 334 424 316 418 298 C 412 280 403 265 392 251 L 453 188 L 403 138 L 338 205 C 325 198 311 193 296 189 C 281 185 266 183 250 183 Z M 250 257 C 278 257 302 266 322 286 C 342 305 353 328 353 354 C 353 380 342 402 322 422 C 302 441 278 451 250 451 C 221 451 197 441 177 422 C 157 402 148 380 148 354 C 148 328 157 305 177 286 C 197 266 221 257 250 257 Z" unicode="¤" />
<glyph horiz-adv-x="465" d="M 431 132 L 287 132 L 287 0 L 177 0 L 177 132 L 35 132 L 35 207 L 177 207 L 177 267 L 35 267 L 35 342 L 170 342 L 3 730 L 109 730 L 234 429 L 364 730 L 463 730 L 295 342 L 431 342 L 431 267 L 287 267 L 287 207 L 431 207 L 431 132 Z" unicode="¥" />
<glyph horiz-adv-x="264" d="M 89 351 L 89 730 L 176 730 L 176 351 L 89 351 Z M 176 200 L 176 -179 L 89 -179 L 89 200 L 176 200 Z" unicode="¦" />
<glyph horiz-adv-x="541" d="M 288 -181 C 240 -181 194 -174 152 -161 C 109 -147 73 -129 43 -107 L 78 -22 C 105 -43 136 -61 172 -76 C 208 -90 241 -98 273 -98 C 301 -98 324 -89 341 -73 C 358 -57 367 -34 367 -6 C 367 20 360 40 347 54 C 333 68 313 81 285 94 L 192 143 C 164 155 140 167 120 178 C 99 189 82 201 69 214 C 56 227 46 242 40 260 C 33 277 30 298 30 323 C 30 353 36 379 50 399 C 64 419 80 437 99 451 C 82 463 70 479 62 499 C 54 519 50 543 50 573 C 50 599 55 623 66 644 C 77 665 92 683 112 697 C 131 711 154 722 180 730 C 206 738 235 742 265 742 C 317 742 361 733 395 717 C 429 700 456 682 477 664 L 429 586 C 404 606 379 624 354 639 C 329 654 299 662 263 662 C 231 662 205 654 185 638 C 165 622 155 600 155 573 C 155 552 162 535 176 521 C 190 507 211 493 240 481 L 358 420 C 405 399 441 376 465 352 C 489 328 502 294 502 250 C 502 222 492 197 472 174 C 452 151 431 137 407 133 C 413 128 421 122 429 114 C 437 106 444 96 452 85 C 459 73 465 60 470 45 C 475 30 478 14 478 -4 C 478 -31 473 -56 463 -78 C 453 -100 440 -118 423 -134 C 406 -149 386 -161 363 -169 C 339 -177 314 -181 288 -181 Z M 327 179 C 343 181 357 188 369 198 C 381 208 388 224 388 247 C 388 267 381 286 367 302 C 353 318 328 334 292 348 L 181 407 C 167 398 156 388 148 378 C 140 367 136 352 136 332 C 136 308 143 288 158 273 C 173 258 199 243 235 228 L 327 179 Z" unicode="§" />
<glyph horiz-adv-x="500" d="M 367 606 L 286 606 L 286 765 L 367 765 L 367 606 Z M 214 606 L 133 606 L 133 765 L 214 765 L 214 606 Z" unicode="¨" />
<glyph horiz-adv-x="807" d="M 404 25 C 354 25 308 34 264 53 C 220 72 182 98 150 130 C 118 162 92 200 73 244 C 54 288 45 334 45 384 C 45 433 54 479 73 523 C 92 566 118 604 150 636 C 182 668 220 694 264 713 C 308 732 354 742 404 742 C 453 742 499 732 543 713 C 587 694 625 668 657 636 C 689 604 715 566 734 523 C 752 479 762 433 762 384 C 762 334 752 288 734 244 C 715 200 689 162 657 130 C 625 98 587 72 543 53 C 499 34 453 25 404 25 Z M 404 89 C 444 89 481 96 517 112 C 553 128 584 149 611 175 C 637 201 658 233 674 269 C 689 305 697 343 697 383 C 697 423 689 461 674 497 C 658 533 637 564 611 591 C 584 617 553 638 517 654 C 481 670 444 678 404 678 C 364 678 326 670 290 654 C 254 638 222 617 196 591 C 170 564 149 533 133 497 C 117 461 110 423 110 383 C 110 343 117 305 133 269 C 149 233 170 201 196 175 C 222 149 254 128 290 112 C 326 96 364 89 404 89 Z M 564 250 C 549 226 528 205 502 189 C 475 172 442 164 402 164 C 377 164 353 168 331 178 C 308 187 288 200 271 218 C 253 236 239 258 229 285 C 219 311 214 342 214 376 C 214 410 218 441 228 469 C 238 497 251 520 268 539 C 284 558 304 573 327 583 C 349 593 373 599 399 599 C 441 599 475 591 501 576 C 527 560 547 541 562 518 L 499 468 C 489 483 476 495 461 505 C 446 515 426 520 402 520 C 371 520 345 506 325 479 C 304 451 294 417 294 377 C 294 333 305 298 328 274 C 351 250 377 238 405 238 C 427 238 446 243 463 254 C 480 264 494 278 505 295 L 564 250 Z" unicode="©" />
<glyph horiz-adv-x="407" d="M 364 331 L 282 331 L 282 386 C 270 366 252 351 230 341 C 208 330 183 325 157 325 C 119 325 89 336 67 358 C 45 380 35 411 35 451 C 35 493 50 525 81 547 C 111 569 153 581 205 583 L 279 590 L 279 600 C 279 622 272 638 259 648 C 246 658 227 663 203 663 C 182 663 162 659 142 653 C 122 646 103 637 87 626 L 57 685 C 75 700 98 713 126 724 C 154 735 186 741 221 741 C 265 741 299 729 325 707 C 351 684 364 648 364 598 L 364 331 Z M 280 441 L 280 521 L 199 517 C 176 516 157 510 141 500 C 125 489 118 473 118 451 C 118 434 124 421 136 411 C 148 401 164 397 183 397 C 203 397 221 401 239 409 C 256 417 270 427 280 441 Z M 364 209 L 42 209 L 42 289 L 364 289 L 364 209 Z" unicode="ª" />
<glyph horiz-adv-x="439" d="M 213 110 L 27 279 L 27 337 L 213 504 L 213 405 L 115 305 L 213 212 L 213 110 Z M 410 110 L 223 279 L 223 337 L 410 504 L 410 405 L 312 305 L 410 213 L 410 110 Z" unicode="«" />
<glyph horiz-adv-x="468" d="M 433 392 L 433 154 L 351 154 L 351 313 L 30 313 L 30 392 L 433 392 Z" unicode="¬" />
<glyph horiz-adv-x="807" d="M 404 25 C 354 25 308 34 264 53 C 220 72 182 98 150 130 C 118 162 92 200 73 244 C 54 288 45 334 45 384 C 45 433 54 479 73 523 C 92 566 118 604 150 636 C 182 668 220 694 264 713 C 308 732 354 742 404 742 C 453 742 499 732 543 713 C 587 694 625 668 657 636 C 689 604 715 566 734 523 C 752 479 762 433 762 384 C 762 334 752 288 734 244 C 715 200 689 162 657 130 C 625 98 587 72 543 53 C 499 34 453 25 404 25 Z M 404 89 C 444 89 482 96 518 111 C 554 125 585 146 611 172 C 637 198 658 229 674 265 C 689 301 697 340 697 383 C 697 425 689 464 674 500 C 658 536 637 568 611 594 C 585 620 554 640 518 655 C 482 670 444 678 404 678 C 363 678 325 670 289 655 C 253 640 222 619 196 593 C 169 567 148 535 133 499 C 117 463 110 424 110 383 C 110 341 117 303 133 267 C 148 231 169 199 196 173 C 222 147 253 126 289 111 C 325 96 363 89 404 89 Z M 273 178 L 273 600 L 421 600 C 439 600 456 597 473 593 C 490 588 505 581 518 571 C 531 561 542 549 550 535 C 558 520 562 503 562 483 C 562 447 551 419 531 399 C 511 379 488 367 464 364 L 464 360 L 596 178 L 517 178 L 395 344 L 340 344 L 340 178 L 273 178 Z M 339 404 L 422 404 C 438 404 454 409 470 420 C 486 431 494 448 495 471 C 495 494 486 510 470 520 C 454 530 435 535 413 535 L 339 535 L 339 404 Z" unicode="®" />
<glyph horiz-adv-x="500" d="M 374 619 L 126 619 L 126 703 L 374 703 L 374 619 Z" unicode="¯" />
<glyph horiz-adv-x="409" d="M 204 394 C 180 394 157 398 136 408 C 115 417 97 429 81 445 C 65 461 52 479 43 501 C 34 522 30 545 30 569 C 30 592 34 614 43 636 C 52 657 65 675 81 691 C 97 707 115 719 136 728 C 157 737 180 742 204 742 C 228 742 250 737 272 728 C 293 719 311 707 327 691 C 343 675 355 657 365 636 C 374 614 379 592 379 569 C 379 545 374 522 365 501 C 355 479 343 461 327 445 C 311 429 293 417 272 408 C 250 398 228 394 204 394 Z M 204 469 C 231 469 255 478 275 498 C 295 517 305 541 305 569 C 305 595 295 618 275 638 C 255 658 231 668 204 668 C 177 668 154 658 134 638 C 114 618 104 595 104 569 C 104 541 114 517 134 498 C 154 478 177 469 204 469 Z" unicode="°" />
<glyph horiz-adv-x="468" d="M 445 289 L 273 289 L 273 111 L 195 111 L 195 289 L 23 289 L 23 367 L 195 367 L 195 551 L 273 551 L 273 367 L 445 367 L 445 289 Z M 441 23 L 29 23 L 29 101 L 441 101 L 441 23 Z" unicode="±" />
<glyph horiz-adv-x="345" d="M 310 372 L 27 372 L 27 405 L 182 563 C 188 569 193 576 199 585 C 205 594 208 605 208 618 C 208 630 203 641 195 651 C 186 661 173 666 156 666 C 135 666 121 659 113 647 C 105 635 101 620 101 604 L 22 604 C 22 642 34 674 59 701 C 84 727 120 741 166 741 C 210 741 243 730 265 710 C 287 690 298 665 298 637 C 298 610 293 588 284 570 C 274 552 264 538 254 528 L 171 445 L 310 445 L 310 372 Z" unicode="²" />
<glyph horiz-adv-x="346" d="M 227 569 C 254 564 275 553 291 537 C 307 520 315 500 315 477 C 315 465 312 452 308 439 C 303 425 295 413 283 402 C 271 391 255 382 235 375 C 215 367 191 364 161 364 C 119 364 86 369 63 379 C 39 389 21 399 9 409 L 57 459 C 67 452 81 446 97 440 C 113 434 133 432 156 432 C 185 432 205 437 217 448 C 229 459 235 473 235 490 C 235 507 227 518 212 524 C 197 529 179 532 159 532 L 86 532 L 86 595 L 153 595 C 172 595 188 598 200 605 C 212 611 218 621 218 634 C 218 646 212 655 202 661 C 192 667 176 671 156 671 C 138 671 121 667 105 660 C 89 653 76 645 68 637 L 20 685 C 33 699 51 712 73 724 C 95 736 127 742 168 742 C 208 742 240 733 264 717 C 288 700 300 678 300 651 C 300 629 292 611 278 597 C 263 583 246 573 227 569 Z" unicode="³" />
<glyph horiz-adv-x="500" d="M 152 605 L 238 778 L 354 778 L 249 605 L 152 605 Z" unicode="´" />
<glyph horiz-adv-x="588" d="M 66 -103 L 66 544 L 167 544 L 167 170 C 167 142 179 119 203 101 C 227 82 253 73 283 73 C 299 73 315 75 331 80 C 347 84 361 91 373 100 C 385 109 396 121 404 135 C 412 149 416 165 416 183 L 416 544 L 516 544 L 516 0 L 424 0 L 424 95 C 415 70 395 47 363 26 C 331 4 298 -6 264 -6 C 242 -6 220 -1 200 8 C 179 18 165 31 159 48 L 159 -103 L 66 -103 Z" unicode="µ" />
<glyph horiz-adv-x="560" d="M 519 -181 L 441 -179 L 441 650 L 373 650 L 373 -179 L 294 -179 L 294 294 L 237 294 C 209 294 182 299 156 311 C 130 323 107 338 87 358 C 67 378 51 401 39 427 C 27 453 21 480 21 509 C 21 540 26 569 38 596 C 49 623 65 646 85 666 C 105 686 130 701 159 713 C 188 724 220 730 255 730 L 519 730 L 519 -181 Z M 295 378 L 295 646 L 280 646 C 237 646 202 633 175 608 C 147 582 134 550 134 512 C 134 476 147 444 174 418 C 201 391 233 378 271 378 L 295 378 Z" unicode="¶" />
<glyph horiz-adv-x="261" d="M 182 280 L 80 280 L 80 415 L 182 415 L 182 280 Z" unicode="·" />
<glyph horiz-adv-x="500" d="M 251 -180 C 230 -180 210 -177 192 -171 C 173 -165 157 -157 145 -147 L 170 -108 C 177 -114 187 -119 199 -125 C 211 -131 224 -134 239 -134 C 249 -134 259 -131 267 -125 C 275 -119 279 -111 279 -103 C 279 -92 275 -84 267 -79 C 259 -73 251 -71 243 -71 C 236 -71 230 -71 225 -72 C 219 -73 214 -75 210 -77 L 199 -57 L 252 14 L 300 14 L 260 -41 C 284 -41 305 -45 323 -55 C 340 -64 349 -80 349 -104 C 349 -127 339 -145 320 -159 C 300 -173 277 -180 251 -180 Z" unicode="¸" />
<glyph horiz-adv-x="318" d="M 141 372 L 141 636 C 137 630 131 625 123 620 C 115 614 107 609 98 605 C 88 601 79 597 70 594 C 61 590 53 588 47 588 L 47 678 C 71 680 93 687 111 697 C 129 707 148 722 168 740 L 230 740 L 230 372 L 141 372 Z" unicode="¹" />
<glyph horiz-adv-x="381" d="M 187 324 C 165 324 145 328 125 338 C 105 347 87 360 72 378 C 56 396 44 417 35 443 C 26 469 22 498 22 530 C 22 558 26 585 35 611 C 44 636 56 658 72 677 C 87 696 105 711 125 722 C 145 733 166 739 189 739 C 237 739 277 720 310 684 C 342 648 359 600 359 540 C 359 508 354 479 345 453 C 336 427 324 404 308 385 C 292 365 274 350 253 340 C 232 329 210 324 187 324 Z M 190 395 C 218 395 239 408 254 435 C 268 461 276 495 276 535 C 276 572 269 603 255 627 C 241 651 220 664 192 664 C 164 664 142 651 127 625 C 112 599 105 566 105 525 C 105 486 112 455 127 431 C 142 407 163 395 190 395 Z M 37 209 L 37 289 L 345 289 L 345 209 L 37 209 Z" unicode="º" />
<glyph horiz-adv-x="439" d="M 29 505 L 216 336 L 216 279 L 29 112 L 29 210 L 127 309 L 29 403 L 29 505 Z M 226 505 L 412 336 L 412 279 L 226 112 L 226 210 L 324 309 L 226 403 L 226 505 Z" unicode="»" />
<glyph horiz-adv-x="703" d="M 12 0 L 12 0 Z M 106 372 L 106 636 C 102 630 96 625 88 620 C 80 614 72 609 63 605 C 53 601 44 597 35 594 C 26 590 18 588 12 588 L 12 678 C 36 680 58 687 76 697 C 94 707 113 722 133 740 L 195 740 L 195 372 L 106 372 Z M 579 730 L 213 0 L 130 0 L 496 730 L 579 730 Z M 389 81 L 389 142 L 573 365 L 631 365 L 631 146 L 691 146 L 691 81 L 631 81 L 631 1 L 548 1 L 548 81 L 389 81 Z M 474 143 L 550 143 L 550 239 L 474 143 Z" unicode="¼" />
<glyph horiz-adv-x="773" d="M 12 0 L 12 0 Z M 106 372 L 106 636 C 102 630 96 625 88 620 C 80 614 72 609 63 605 C 53 601 44 597 35 594 C 26 590 18 588 12 588 L 12 678 C 36 680 58 687 76 697 C 94 707 113 722 133 740 L 195 740 L 195 372 L 106 372 Z M 579 730 L 213 0 L 130 0 L 496 730 L 579 730 Z M 745 0 L 462 0 L 462 33 L 617 191 C 623 197 628 204 634 213 C 640 222 643 233 643 246 C 643 258 638 269 630 279 C 621 289 608 294 591 294 C 570 294 556 287 548 275 C 540 263 536 248 536 232 L 457 232 C 457 270 469 302 494 329 C 519 355 555 369 601 369 C 645 369 678 358 700 338 C 722 318 733 293 733 265 C 733 238 728 216 719 198 C 709 180 699 166 689 156 L 606 73 L 745 73 L 745 0 Z" unicode="½" />
<glyph horiz-adv-x="762" d="M 12 0 L 12 0 Z M 638 730 L 272 0 L 189 0 L 555 730 L 638 730 Z M 448 81 L 448 142 L 632 365 L 690 365 L 690 146 L 750 146 L 750 81 L 690 81 L 690 1 L 607 1 L 607 81 L 448 81 Z M 533 143 L 609 143 L 609 239 L 533 143 Z M 230 569 C 257 564 278 553 294 537 C 310 520 318 500 318 477 C 318 465 315 452 311 439 C 306 425 298 413 286 402 C 274 391 258 382 238 375 C 218 367 194 364 164 364 C 122 364 89 369 66 379 C 42 389 24 399 12 409 L 60 459 C 70 452 84 446 100 440 C 116 434 136 432 159 432 C 188 432 208 437 220 448 C 232 459 238 473 238 490 C 238 507 230 518 215 524 C 200 529 182 532 162 532 L 89 532 L 89 595 L 156 595 C 175 595 191 598 203 605 C 215 611 221 621 221 634 C 221 646 215 655 205 661 C 195 667 179 671 159 671 C 141 671 124 667 108 660 C 92 653 79 645 71 637 L 23 685 C 36 699 54 712 76 724 C 98 736 130 742 171 742 C 211 742 243 733 267 717 C 291 700 303 678 303 651 C 303 629 295 611 281 597 C 266 583 249 573 230 569 Z" unicode="¾" />
<glyph horiz-adv-x="429" d="M 170 490 L 170 609 L 281 609 L 281 490 L 170 490 Z M 211 -133 C 151 -133 106 -117 74 -85 C 42 -53 26 -11 26 43 C 26 68 29 91 35 112 C 41 132 50 151 60 169 C 70 187 81 203 94 219 C 106 235 119 250 132 265 C 149 283 161 305 168 331 C 174 356 178 379 179 401 L 277 401 C 277 361 271 327 260 299 C 249 271 233 243 211 217 C 193 196 176 174 159 150 C 142 126 134 97 134 63 C 134 32 143 7 162 -10 C 180 -28 203 -38 231 -38 C 255 -38 277 -31 296 -18 C 314 -4 330 11 343 30 L 407 -31 C 382 -65 352 -90 318 -107 C 284 -124 248 -133 211 -133 Z" unicode="¿" />
<glyph horiz-adv-x="484" d="M 0 0 L 0 0 Z M 483 0 L 379 0 L 333 171 L 145 171 L 102 0 L 0 0 L 204 734 L 280 734 L 483 0 Z M 319 249 L 238 553 L 160 249 L 319 249 Z M 242 791 L 242 791 Z M 342 791 L 245 791 L 140 964 L 256 964 L 342 791 Z" unicode="À" />
<glyph horiz-adv-x="484" d="M 0 0 L 0 0 Z M 483 0 L 379 0 L 333 171 L 145 171 L 102 0 L 0 0 L 204 734 L 280 734 L 483 0 Z M 319 249 L 238 553 L 160 249 L 319 249 Z M 242 791 L 242 791 Z M 141 791 L 227 964 L 343 964 L 238 791 L 141 791 Z" unicode="Á" />
<glyph horiz-adv-x="484" d="M 0 0 L 0 0 Z M 483 0 L 379 0 L 333 171 L 145 171 L 102 0 L 0 0 L 204 734 L 280 734 L 483 0 Z M 319 249 L 238 553 L 160 249 L 319 249 Z M 242 792 L 242 792 Z M 383 792 L 297 792 L 242 888 L 186 792 L 102 792 L 200 964 L 285 964 L 383 792 Z" unicode="Â" />
<glyph horiz-adv-x="484" d="M 0 0 L 0 0 Z M 483 0 L 379 0 L 333 171 L 145 171 L 102 0 L 0 0 L 204 734 L 280 734 L 483 0 Z M 319 249 L 238 553 L 160 249 L 319 249 Z M 242 798 L 242 798 Z M 323 938 L 398 938 C 398 890 391 854 377 832 C 363 809 346 798 325 798 C 306 798 290 801 276 808 C 262 814 251 820 243 826 C 234 831 225 836 217 842 C 208 847 200 850 193 850 C 185 850 178 845 172 835 C 166 825 163 814 163 802 L 87 802 C 87 849 96 884 115 907 C 134 930 154 942 174 942 C 189 942 202 938 214 932 C 225 926 236 919 248 912 C 256 906 263 901 271 897 C 278 893 286 891 294 891 C 300 891 307 895 313 903 C 319 911 323 922 323 938 Z" unicode="Ã" />
<glyph horiz-adv-x="484" d="M 0 0 L 0 0 Z M 483 0 L 379 0 L 333 171 L 145 171 L 102 0 L 0 0 L 204 734 L 280 734 L 483 0 Z M 319 249 L 238 553 L 160 249 L 319 249 Z M 242 792 L 242 792 Z M 359 792 L 278 792 L 278 951 L 359 951 L 359 792 Z M 206 792 L 125 792 L 125 951 L 206 951 L 206 792 Z" unicode="Ä" />
<glyph horiz-adv-x="484" d="M 0 0 L 0 0 Z M 483 0 L 379 0 L 333 171 L 145 171 L 102 0 L 0 0 L 204 734 L 280 734 L 483 0 Z M 319 249 L 238 553 L 160 249 L 319 249 Z M 242 767 L 242 767 Z M 242 767 C 208 767 178 779 154 804 C 129 828 117 858 117 892 C 117 926 129 956 154 980 C 178 1004 208 1017 242 1017 C 276 1017 306 1004 331 980 C 355 956 368 926 368 892 C 368 858 355 828 331 804 C 306 779 276 767 242 767 Z M 243 828 C 261 828 276 834 288 847 C 300 859 306 874 306 892 C 306 910 300 925 288 938 C 276 950 261 957 243 957 C 225 957 210 950 198 938 C 185 925 179 910 179 892 C 179 874 185 859 198 847 C 210 834 225 828 243 828 Z" unicode="Å" />
<glyph horiz-adv-x="737" d="M 726 0 L 400 0 L 400 188 L 190 188 L 103 0 L 0 0 L 333 730 L 708 730 L 708 634 L 503 634 L 503 412 L 699 412 L 699 319 L 503 319 L 503 96 L 726 96 L 726 0 Z M 400 276 L 400 662 L 226 276 L 400 276 Z" unicode="Æ" />
<glyph horiz-adv-x="533" d="M 32 0 L 32 0 Z M 283 -7 C 208 -7 147 24 101 86 C 55 148 32 241 32 366 C 32 482 53 573 96 639 C 138 704 201 737 283 737 C 344 737 391 720 423 688 C 455 656 478 616 491 568 L 392 535 C 382 565 370 590 354 611 C 338 631 314 642 283 642 C 238 642 203 621 178 580 C 153 538 141 466 141 362 C 141 309 145 265 153 230 C 161 194 172 166 186 145 C 200 124 215 109 233 100 C 251 91 269 87 288 87 C 324 87 351 98 369 120 C 387 142 401 171 412 205 L 502 164 C 484 110 457 68 421 38 C 385 8 339 -7 283 -7 Z M 276 0 L 276 0 Z M 280 -180 C 259 -180 239 -177 221 -171 C 202 -165 186 -157 174 -147 L 199 -108 C 206 -114 216 -119 228 -125 C 240 -131 253 -134 268 -134 C 278 -134 288 -131 296 -125 C 304 -119 308 -111 308 -103 C 308 -92 304 -84 296 -79 C 288 -73 280 -71 272 -71 C 265 -71 259 -71 254 -72 C 248 -73 243 -75 239 -77 L 228 -57 L 281 14 L 329 14 L 289 -41 C 313 -41 334 -45 352 -55 C 369 -64 378 -80 378 -104 C 378 -127 368 -145 349 -159 C 329 -173 306 -180 280 -180 Z" unicode="Ç" />
<glyph horiz-adv-x="396" d="M 56 0 L 56 0 Z M 385 0 L 56 0 L 56 730 L 367 730 L 367 634 L 163 634 L 163 412 L 359 412 L 359 319 L 163 319 L 163 96 L 385 96 L 385 0 Z M 211 791 L 211 791 Z M 311 791 L 214 791 L 109 964 L 225 964 L 311 791 Z" unicode="È" />
<glyph horiz-adv-x="396" d="M 56 0 L 56 0 Z M 385 0 L 56 0 L 56 730 L 367 730 L 367 634 L 163 634 L 163 412 L 359 412 L 359 319 L 163 319 L 163 96 L 385 96 L 385 0 Z M 211 791 L 211 791 Z M 110 791 L 196 964 L 312 964 L 207 791 L 110 791 Z" unicode="É" />
<glyph horiz-adv-x="396" d="M 56 0 L 56 0 Z M 385 0 L 56 0 L 56 730 L 367 730 L 367 634 L 163 634 L 163 412 L 359 412 L 359 319 L 163 319 L 163 96 L 385 96 L 385 0 Z M 211 792 L 211 792 Z M 352 792 L 266 792 L 211 888 L 155 792 L 71 792 L 169 964 L 254 964 L 352 792 Z" unicode="Ê" />
<glyph horiz-adv-x="396" d="M 56 0 L 56 0 Z M 385 0 L 56 0 L 56 730 L 367 730 L 367 634 L 163 634 L 163 412 L 359 412 L 359 319 L 163 319 L 163 96 L 385 96 L 385 0 Z M 211 792 L 211 792 Z M 328 792 L 247 792 L 247 951 L 328 951 L 328 792 Z M 175 792 L 94 792 L 94 951 L 175 951 L 175 792 Z" unicode="Ë" />
<glyph horiz-adv-x="230" d="M 12 0 L 12 0 Z M 171 0 L 60 0 L 60 730 L 171 730 L 171 0 Z M 114 791 L 114 791 Z M 214 791 L 117 791 L 12 964 L 128 964 L 214 791 Z" unicode="Ì" />
<glyph horiz-adv-x="230" d="M 13 0 L 13 0 Z M 171 0 L 60 0 L 60 730 L 171 730 L 171 0 Z M 114 791 L 114 791 Z M 13 791 L 99 964 L 215 964 L 110 791 L 13 791 Z" unicode="Í" />
<glyph horiz-adv-x="230" d="M 0 0 L 0 0 Z M 171 0 L 60 0 L 60 730 L 171 730 L 171 0 Z M 114 792 L 114 792 Z M 255 792 L 169 792 L 114 888 L 58 792 L -26 792 L 72 964 L 157 964 L 255 792 Z" unicode="Î" />
<glyph horiz-adv-x="230" d="M 0 0 L 0 0 Z M 171 0 L 60 0 L 60 730 L 171 730 L 171 0 Z M 114 792 L 114 792 Z M 231 792 L 150 792 L 150 951 L 231 951 L 231 792 Z M 78 792 L -3 792 L -3 951 L 78 951 L 78 792 Z" unicode="Ï" />
<glyph horiz-adv-x="541" d="M 509 362 C 509 311 503 263 491 219 C 479 175 461 136 437 104 C 413 72 382 46 345 28 C 308 9 265 0 216 0 L 56 0 L 56 315 L 16 315 L 16 402 L 56 402 L 56 730 L 223 730 C 269 730 310 721 346 703 C 382 685 412 661 436 629 C 460 597 478 559 490 513 C 502 467 509 417 509 362 Z M 165 85 L 219 85 C 283 85 329 109 357 159 C 384 209 398 276 398 360 C 398 458 382 530 352 576 C 322 622 280 645 226 645 L 165 645 L 165 402 L 279 402 L 279 315 L 165 315 L 165 85 Z" unicode="Ð" />
<glyph horiz-adv-x="533" d="M 56 0 L 56 0 Z M 477 0 L 399 0 L 159 470 L 159 0 L 56 0 L 56 730 L 133 730 L 377 254 L 377 730 L 477 730 L 477 0 Z M 267 798 L 267 798 Z M 348 938 L 423 938 C 423 890 416 854 402 832 C 388 809 371 798 350 798 C 331 798 315 801 301 808 C 287 814 276 820 268 826 C 259 831 250 836 242 842 C 233 847 225 850 218 850 C 210 850 203 845 197 835 C 191 825 188 814 188 802 L 112 802 C 112 849 121 884 140 907 C 159 930 179 942 199 942 C 214 942 227 938 239 932 C 250 926 261 919 273 912 C 281 906 288 901 296 897 C 303 893 311 891 319 891 C 325 891 332 895 338 903 C 344 911 348 922 348 938 Z" unicode="Ñ" />
<glyph horiz-adv-x="570" d="M 32 0 L 32 0 Z M 287 -7 C 205 -7 142 25 98 90 C 54 155 32 249 32 371 C 32 485 54 575 99 640 C 143 704 204 737 282 737 C 364 737 428 705 472 641 C 516 577 538 485 538 365 C 538 249 515 158 469 92 C 423 26 362 -7 287 -7 Z M 285 81 C 329 81 363 104 388 151 C 412 197 425 271 425 372 C 425 466 412 535 387 581 C 361 626 327 649 283 649 C 237 649 203 626 180 581 C 157 536 146 464 146 365 C 146 264 158 191 183 147 C 208 103 242 81 285 81 Z M 284 791 L 284 791 Z M 384 791 L 287 791 L 182 964 L 298 964 L 384 791 Z" unicode="Ò" />
<glyph horiz-adv-x="570" d="M 32 0 L 32 0 Z M 287 -7 C 205 -7 142 25 98 90 C 54 155 32 249 32 371 C 32 485 54 575 99 640 C 143 704 204 737 282 737 C 364 737 428 705 472 641 C 516 577 538 485 538 365 C 538 249 515 158 469 92 C 423 26 362 -7 287 -7 Z M 285 81 C 329 81 363 104 388 151 C 412 197 425 271 425 372 C 425 466 412 535 387 581 C 361 626 327 649 283 649 C 237 649 203 626 180 581 C 157 536 146 464 146 365 C 146 264 158 191 183 147 C 208 103 242 81 285 81 Z M 284 791 L 284 791 Z M 183 791 L 269 964 L 385 964 L 280 791 L 183 791 Z" unicode="Ó" />
<glyph horiz-adv-x="570" d="M 32 0 L 32 0 Z M 287 -7 C 205 -7 142 25 98 90 C 54 155 32 249 32 371 C 32 485 54 575 99 640 C 143 704 204 737 282 737 C 364 737 428 705 472 641 C 516 577 538 485 538 365 C 538 249 515 158 469 92 C 423 26 362 -7 287 -7 Z M 285 81 C 329 81 363 104 388 151 C 412 197 425 271 425 372 C 425 466 412 535 387 581 C 361 626 327 649 283 649 C 237 649 203 626 180 581 C 157 536 146 464 146 365 C 146 264 158 191 183 147 C 208 103 242 81 285 81 Z M 284 792 L 284 792 Z M 425 792 L 339 792 L 284 888 L 228 792 L 144 792 L 242 964 L 327 964 L 425 792 Z" unicode="Ô" />
<glyph horiz-adv-x="570" d="M 32 0 L 32 0 Z M 287 -7 C 205 -7 142 25 98 90 C 54 155 32 249 32 371 C 32 485 54 575 99 640 C 143 704 204 737 282 737 C 364 737 428 705 472 641 C 516 577 538 485 538 365 C 538 249 515 158 469 92 C 423 26 362 -7 287 -7 Z M 285 81 C 329 81 363 104 388 151 C 412 197 425 271 425 372 C 425 466 412 535 387 581 C 361 626 327 649 283 649 C 237 649 203 626 180 581 C 157 536 146 464 146 365 C 146 264 158 191 183 147 C 208 103 242 81 285 81 Z M 284 798 L 284 798 Z M 365 938 L 440 938 C 440 890 433 854 419 832 C 405 809 388 798 367 798 C 348 798 332 801 318 808 C 304 814 293 820 285 826 C 276 831 267 836 259 842 C 250 847 242 850 235 850 C 227 850 220 845 214 835 C 208 825 205 814 205 802 L 129 802 C 129 849 138 884 157 907 C 176 930 196 942 216 942 C 231 942 244 938 256 932 C 267 926 278 919 290 912 C 298 906 305 901 313 897 C 320 893 328 891 336 891 C 342 891 349 895 355 903 C 361 911 365 922 365 938 Z" unicode="Õ" />
<glyph horiz-adv-x="570" d="M 32 0 L 32 0 Z M 287 -7 C 205 -7 142 25 98 90 C 54 155 32 249 32 371 C 32 485 54 575 99 640 C 143 704 204 737 282 737 C 364 737 428 705 472 641 C 516 577 538 485 538 365 C 538 249 515 158 469 92 C 423 26 362 -7 287 -7 Z M 285 81 C 329 81 363 104 388 151 C 412 197 425 271 425 372 C 425 466 412 535 387 581 C 361 626 327 649 283 649 C 237 649 203 626 180 581 C 157 536 146 464 146 365 C 146 264 158 191 183 147 C 208 103 242 81 285 81 Z M 284 792 L 284 792 Z M 401 792 L 320 792 L 320 951 L 401 951 L 401 792 Z M 248 792 L 167 792 L 167 951 L 248 951 L 248 792 Z" unicode="Ö" />
<glyph horiz-adv-x="468" d="M 104 145 L 52 197 L 182 327 L 53 456 L 105 509 L 234 380 L 364 509 L 416 456 L 287 327 L 416 198 L 365 144 L 234 275 L 104 145 Z" unicode="×" />
<glyph horiz-adv-x="570" d="M 287 -7 C 253 -7 221 -1 193 10 C 165 22 140 39 120 62 L 72 -10 L 12 28 L 77 126 C 62 156 51 192 43 234 C 35 275 32 321 32 371 C 32 485 54 575 99 640 C 143 704 204 737 282 737 C 315 737 345 731 372 721 C 399 711 423 695 444 675 L 499 757 L 558 719 L 489 615 C 505 584 517 548 525 506 C 533 464 538 417 538 365 C 538 249 515 158 469 92 C 423 26 362 -7 287 -7 Z M 146 365 C 146 341 146 318 148 298 C 150 277 152 258 155 241 L 385 586 C 373 607 358 623 341 633 C 323 643 304 649 283 649 C 237 649 203 626 180 581 C 157 536 146 464 146 365 Z M 425 372 C 425 397 424 420 422 442 C 420 464 417 484 414 503 L 180 153 C 192 128 207 110 225 98 C 242 86 262 81 285 81 C 329 81 363 104 388 151 C 412 197 425 271 425 372 Z" unicode="Ø" />
<glyph horiz-adv-x="534" d="M 53 0 L 53 0 Z M 481 730 L 481 220 C 481 178 475 143 463 115 C 451 86 434 63 414 45 C 394 27 370 13 344 5 C 317 -2 289 -7 260 -7 C 232 -7 206 -3 181 5 C 155 13 133 25 115 43 C 96 61 81 84 70 113 C 58 142 53 178 53 220 L 53 730 L 162 730 L 162 217 C 162 169 171 136 190 117 C 209 97 234 88 264 88 C 293 88 317 97 337 115 C 357 133 367 167 367 217 L 367 730 L 481 730 Z M 264 791 L 264 791 Z M 364 791 L 267 791 L 162 964 L 278 964 L 364 791 Z" unicode="Ù" />
<glyph horiz-adv-x="534" d="M 53 0 L 53 0 Z M 481 730 L 481 220 C 481 178 475 143 463 115 C 451 86 434 63 414 45 C 394 27 370 13 344 5 C 317 -2 289 -7 260 -7 C 232 -7 206 -3 181 5 C 155 13 133 25 115 43 C 96 61 81 84 70 113 C 58 142 53 178 53 220 L 53 730 L 162 730 L 162 217 C 162 169 171 136 190 117 C 209 97 234 88 264 88 C 293 88 317 97 337 115 C 357 133 367 167 367 217 L 367 730 L 481 730 Z M 264 791 L 264 791 Z M 163 791 L 249 964 L 365 964 L 260 791 L 163 791 Z" unicode="Ú" />
<glyph horiz-adv-x="534" d="M 53 0 L 53 0 Z M 481 730 L 481 220 C 481 178 475 143 463 115 C 451 86 434 63 414 45 C 394 27 370 13 344 5 C 317 -2 289 -7 260 -7 C 232 -7 206 -3 181 5 C 155 13 133 25 115 43 C 96 61 81 84 70 113 C 58 142 53 178 53 220 L 53 730 L 162 730 L 162 217 C 162 169 171 136 190 117 C 209 97 234 88 264 88 C 293 88 317 97 337 115 C 357 133 367 167 367 217 L 367 730 L 481 730 Z M 264 792 L 264 792 Z M 405 792 L 319 792 L 264 888 L 208 792 L 124 792 L 222 964 L 307 964 L 405 792 Z" unicode="Û" />
<glyph horiz-adv-x="534" d="M 53 0 L 53 0 Z M 481 730 L 481 220 C 481 178 475 143 463 115 C 451 86 434 63 414 45 C 394 27 370 13 344 5 C 317 -2 289 -7 260 -7 C 232 -7 206 -3 181 5 C 155 13 133 25 115 43 C 96 61 81 84 70 113 C 58 142 53 178 53 220 L 53 730 L 162 730 L 162 217 C 162 169 171 136 190 117 C 209 97 234 88 264 88 C 293 88 317 97 337 115 C 357 133 367 167 367 217 L 367 730 L 481 730 Z M 264 792 L 264 792 Z M 381 792 L 300 792 L 300 951 L 381 951 L 381 792 Z M 228 792 L 147 792 L 147 951 L 228 951 L 228 792 Z" unicode="Ü" />
<glyph horiz-adv-x="464" d="M 0 0 L 0 0 Z M 469 730 L 285 313 L 285 0 L 175 0 L 175 315 L -4 730 L 123 730 L 237 426 L 364 730 L 469 730 Z M 237 791 L 237 791 Z M 136 791 L 222 964 L 338 964 L 233 791 L 136 791 Z" unicode="Ý" />
<glyph horiz-adv-x="448" d="M 56 0 L 56 730 L 166 730 L 166 604 L 237 604 C 264 604 289 599 313 589 C 337 579 357 565 375 547 C 393 529 407 506 417 479 C 427 452 433 421 433 387 C 433 315 414 259 376 219 C 338 179 290 159 232 159 L 166 159 L 166 0 L 56 0 Z M 163 247 L 228 247 C 258 247 283 259 303 283 C 322 307 332 342 332 386 C 332 428 321 459 300 481 C 278 503 254 514 228 514 L 163 514 L 163 247 Z" unicode="Þ" />
<glyph horiz-adv-x="495" d="M 347 -5 C 313 -5 284 1 258 15 C 232 29 211 47 197 70 L 251 138 C 263 120 276 106 290 97 C 304 87 320 83 336 83 C 350 83 364 88 377 99 C 389 110 396 126 396 147 C 396 168 387 186 369 201 C 351 215 330 232 304 251 C 274 271 251 292 233 314 C 215 335 207 365 207 405 C 207 440 216 469 234 491 C 252 513 273 529 297 537 C 303 539 310 547 316 561 C 322 575 325 595 327 623 C 327 659 318 683 301 697 C 283 711 264 718 242 718 C 217 718 197 709 181 691 C 165 673 157 646 157 608 L 157 0 L 55 0 L 55 613 C 55 673 71 720 105 753 C 138 785 183 802 239 802 C 291 802 333 786 367 754 C 400 722 417 677 417 617 C 417 573 410 537 397 509 C 384 481 370 465 356 461 C 341 460 327 455 314 447 C 301 439 295 426 295 410 C 295 392 302 378 317 368 C 332 357 355 340 387 317 C 417 294 440 270 457 244 C 473 218 482 183 482 141 C 482 115 477 92 469 74 C 460 56 449 41 436 29 C 422 17 408 8 392 3 C 376 -2 361 -5 347 -5 Z" unicode="ß" />
<glyph horiz-adv-x="378" d="M 17 0 L 17 0 Z M 340 0 L 257 0 L 257 49 C 240 29 224 15 208 7 C 192 0 170 -5 141 -5 C 105 -5 75 10 52 40 C 28 70 17 112 17 166 C 17 225 32 268 63 294 C 93 320 130 336 173 340 L 246 346 L 246 385 C 246 411 239 430 227 443 C 214 455 196 462 174 462 C 152 462 133 457 116 449 C 98 441 85 432 76 424 L 47 508 C 60 518 79 529 104 539 C 128 549 159 554 195 554 C 239 554 274 541 300 516 C 326 490 340 455 340 409 L 340 0 Z M 248 114 L 248 277 L 196 272 C 173 269 154 259 138 243 C 122 226 114 199 114 163 C 114 129 120 106 134 92 C 147 78 161 71 177 71 C 194 71 208 75 220 83 C 231 91 240 102 248 114 Z M 187 605 L 187 605 Z M 287 605 L 190 605 L 85 778 L 201 778 L 287 605 Z" unicode="à" />
<glyph horiz-adv-x="378" d="M 17 0 L 17 0 Z M 340 0 L 257 0 L 257 49 C 240 29 224 15 208 7 C 192 0 170 -5 141 -5 C 105 -5 75 10 52 40 C 28 70 17 112 17 166 C 17 225 32 268 63 294 C 93 320 130 336 173 340 L 246 346 L 246 385 C 246 411 239 430 227 443 C 214 455 196 462 174 462 C 152 462 133 457 116 449 C 98 441 85 432 76 424 L 47 508 C 60 518 79 529 104 539 C 128 549 159 554 195 554 C 239 554 274 541 300 516 C 326 490 340 455 340 409 L 340 0 Z M 248 114 L 248 277 L 196 272 C 173 269 154 259 138 243 C 122 226 114 199 114 163 C 114 129 120 106 134 92 C 147 78 161 71 177 71 C 194 71 208 75 220 83 C 231 91 240 102 248 114 Z M 187 605 L 187 605 Z M 86 605 L 172 778 L 288 778 L 183 605 L 86 605 Z" unicode="á" />
<glyph horiz-adv-x="378" d="M 17 0 L 17 0 Z M 340 0 L 257 0 L 257 49 C 240 29 224 15 208 7 C 192 0 170 -5 141 -5 C 105 -5 75 10 52 40 C 28 70 17 112 17 166 C 17 225 32 268 63 294 C 93 320 130 336 173 340 L 246 346 L 246 385 C 246 411 239 430 227 443 C 214 455 196 462 174 462 C 152 462 133 457 116 449 C 98 441 85 432 76 424 L 47 508 C 60 518 79 529 104 539 C 128 549 159 554 195 554 C 239 554 274 541 300 516 C 326 490 340 455 340 409 L 340 0 Z M 248 114 L 248 277 L 196 272 C 173 269 154 259 138 243 C 122 226 114 199 114 163 C 114 129 120 106 134 92 C 147 78 161 71 177 71 C 194 71 208 75 220 83 C 231 91 240 102 248 114 Z M 187 606 L 187 606 Z M 328 606 L 242 606 L 187 702 L 131 606 L 47 606 L 145 778 L 230 778 L 328 606 Z" unicode="â" />
<glyph horiz-adv-x="378" d="M 17 0 L 17 0 Z M 340 0 L 257 0 L 257 49 C 240 29 224 15 208 7 C 192 0 170 -5 141 -5 C 105 -5 75 10 52 40 C 28 70 17 112 17 166 C 17 225 32 268 63 294 C 93 320 130 336 173 340 L 246 346 L 246 385 C 246 411 239 430 227 443 C 214 455 196 462 174 462 C 152 462 133 457 116 449 C 98 441 85 432 76 424 L 47 508 C 60 518 79 529 104 539 C 128 549 159 554 195 554 C 239 554 274 541 300 516 C 326 490 340 455 340 409 L 340 0 Z M 248 114 L 248 277 L 196 272 C 173 269 154 259 138 243 C 122 226 114 199 114 163 C 114 129 120 106 134 92 C 147 78 161 71 177 71 C 194 71 208 75 220 83 C 231 91 240 102 248 114 Z M 187 612 L 187 612 Z M 268 752 L 343 752 C 343 704 336 668 322 646 C 308 623 291 612 270 612 C 251 612 235 615 221 622 C 207 628 196 634 188 640 C 179 645 170 650 162 656 C 153 661 145 664 138 664 C 130 664 123 659 117 649 C 111 639 108 628 108 616 L 32 616 C 32 663 41 698 60 721 C 79 744 99 756 119 756 C 134 756 147 752 159 746 C 170 740 181 733 193 726 C 201 720 208 715 216 711 C 223 707 231 705 239 705 C 245 705 252 709 258 717 C 264 725 268 736 268 752 Z" unicode="ã" />
<glyph horiz-adv-x="378" d="M 17 0 L 17 0 Z M 340 0 L 257 0 L 257 49 C 240 29 224 15 208 7 C 192 0 170 -5 141 -5 C 105 -5 75 10 52 40 C 28 70 17 112 17 166 C 17 225 32 268 63 294 C 93 320 130 336 173 340 L 246 346 L 246 385 C 246 411 239 430 227 443 C 214 455 196 462 174 462 C 152 462 133 457 116 449 C 98 441 85 432 76 424 L 47 508 C 60 518 79 529 104 539 C 128 549 159 554 195 554 C 239 554 274 541 300 516 C 326 490 340 455 340 409 L 340 0 Z M 248 114 L 248 277 L 196 272 C 173 269 154 259 138 243 C 122 226 114 199 114 163 C 114 129 120 106 134 92 C 147 78 161 71 177 71 C 194 71 208 75 220 83 C 231 91 240 102 248 114 Z M 187 606 L 187 606 Z M 304 606 L 223 606 L 223 765 L 304 765 L 304 606 Z M 151 606 L 70 606 L 70 765 L 151 765 L 151 606 Z" unicode="ä" />
<glyph horiz-adv-x="378" d="M 17 0 L 17 0 Z M 340 0 L 257 0 L 257 49 C 240 29 224 15 208 7 C 192 0 170 -5 141 -5 C 105 -5 75 10 52 40 C 28 70 17 112 17 166 C 17 225 32 268 63 294 C 93 320 130 336 173 340 L 246 346 L 246 385 C 246 411 239 430 227 443 C 214 455 196 462 174 462 C 152 462 133 457 116 449 C 98 441 85 432 76 424 L 47 508 C 60 518 79 529 104 539 C 128 549 159 554 195 554 C 239 554 274 541 300 516 C 326 490 340 455 340 409 L 340 0 Z M 248 114 L 248 277 L 196 272 C 173 269 154 259 138 243 C 122 226 114 199 114 163 C 114 129 120 106 134 92 C 147 78 161 71 177 71 C 194 71 208 75 220 83 C 231 91 240 102 248 114 Z M 187 581 L 187 581 Z M 187 581 C 153 581 123 593 99 618 C 74 642 62 672 62 706 C 62 740 74 770 99 794 C 123 818 153 831 187 831 C 221 831 251 818 276 794 C 300 770 313 740 313 706 C 313 672 300 642 276 618 C 251 593 221 581 187 581 Z M 188 642 C 206 642 221 648 233 661 C 245 673 251 688 251 706 C 251 724 245 739 233 752 C 221 764 206 771 188 771 C 170 771 155 764 143 752 C 130 739 124 724 124 706 C 124 688 130 673 143 661 C 155 648 170 642 188 642 Z" unicode="å" />
<glyph horiz-adv-x="612" d="M 419 -5 C 381 -5 351 4 331 23 C 310 42 295 60 286 78 C 274 51 256 30 232 16 C 207 2 179 -5 147 -5 C 113 -5 83 10 57 40 C 31 70 18 112 18 164 C 18 224 33 267 63 294 C 93 320 130 335 173 339 L 246 344 L 246 368 C 246 404 239 428 226 442 C 213 456 195 463 171 463 C 148 463 128 458 112 450 C 96 441 84 433 77 427 L 48 508 C 62 518 79 528 101 538 C 123 547 152 552 188 552 C 214 552 238 546 261 534 C 283 522 297 506 302 486 C 309 500 322 513 342 527 C 361 540 388 547 422 547 C 478 547 521 520 551 467 C 581 414 596 341 596 249 L 339 249 C 339 202 347 163 363 131 C 379 99 404 83 437 83 C 461 83 480 89 496 103 C 512 116 525 129 536 142 L 584 88 C 569 67 549 46 523 26 C 497 5 462 -5 419 -5 Z M 338 317 L 499 317 C 499 363 492 398 478 424 C 464 450 446 463 422 463 C 399 463 380 450 364 425 C 348 399 340 363 338 317 Z M 177 71 C 193 71 209 76 224 88 C 238 99 246 118 248 145 L 248 274 L 195 270 C 173 268 154 258 138 242 C 122 226 114 199 114 163 C 114 129 120 106 134 92 C 148 78 162 71 177 71 Z" unicode="æ" />
<glyph horiz-adv-x="359" d="M 20 0 L 20 0 Z M 297 128 L 346 68 C 334 48 317 31 296 17 C 274 2 247 -5 213 -5 C 181 -5 154 1 130 15 C 106 29 85 48 69 73 C 53 97 40 126 32 160 C 24 194 20 231 20 271 C 20 308 24 343 32 377 C 40 411 51 440 67 466 C 83 491 103 511 127 526 C 151 541 178 549 210 549 C 246 549 276 539 300 521 C 324 502 341 482 351 462 L 280 408 C 273 422 264 434 253 444 C 241 454 227 459 211 459 C 183 459 161 442 147 410 C 132 378 125 333 125 276 C 125 207 134 157 154 127 C 174 96 198 81 226 81 C 244 81 259 86 270 97 C 281 107 290 118 297 128 Z M 196 0 L 196 0 Z M 200 -180 C 179 -180 159 -177 141 -171 C 122 -165 106 -157 94 -147 L 119 -108 C 126 -114 136 -119 148 -125 C 160 -131 173 -134 188 -134 C 198 -134 208 -131 216 -125 C 224 -119 228 -111 228 -103 C 228 -92 224 -84 216 -79 C 208 -73 200 -71 192 -71 C 185 -71 179 -71 174 -72 C 168 -73 163 -75 159 -77 L 148 -57 L 201 14 L 249 14 L 209 -41 C 233 -41 254 -45 272 -55 C 289 -64 298 -80 298 -104 C 298 -127 288 -145 269 -159 C 249 -173 226 -180 200 -180 Z" unicode="ç" />
<glyph horiz-adv-x="392" d="M 20 0 L 20 0 Z M 202 -5 C 147 -5 103 19 70 69 C 36 119 20 185 20 268 C 20 354 37 423 71 473 C 105 523 148 548 200 548 C 260 548 304 521 333 467 C 362 413 377 339 377 247 L 120 247 C 120 201 128 162 145 131 C 161 99 186 84 220 84 C 243 84 263 90 279 104 C 295 118 307 131 317 144 L 363 88 C 356 78 347 67 337 56 C 327 45 315 35 302 26 C 288 17 273 10 257 4 C 240 -2 222 -5 202 -5 Z M 117 317 L 278 317 C 278 365 271 401 257 426 C 243 450 225 463 203 463 C 178 463 158 450 143 426 C 127 402 119 365 117 317 Z M 201 605 L 201 605 Z M 301 605 L 204 605 L 99 778 L 215 778 L 301 605 Z" unicode="è" />
<glyph horiz-adv-x="392" d="M 20 0 L 20 0 Z M 202 -5 C 147 -5 103 19 70 69 C 36 119 20 185 20 268 C 20 354 37 423 71 473 C 105 523 148 548 200 548 C 260 548 304 521 333 467 C 362 413 377 339 377 247 L 120 247 C 120 201 128 162 145 131 C 161 99 186 84 220 84 C 243 84 263 90 279 104 C 295 118 307 131 317 144 L 363 88 C 356 78 347 67 337 56 C 327 45 315 35 302 26 C 288 17 273 10 257 4 C 240 -2 222 -5 202 -5 Z M 117 317 L 278 317 C 278 365 271 401 257 426 C 243 450 225 463 203 463 C 178 463 158 450 143 426 C 127 402 119 365 117 317 Z M 201 605 L 201 605 Z M 100 605 L 186 778 L 302 778 L 197 605 L 100 605 Z" unicode="é" />
<glyph horiz-adv-x="392" d="M 20 0 L 20 0 Z M 202 -5 C 147 -5 103 19 70 69 C 36 119 20 185 20 268 C 20 354 37 423 71 473 C 105 523 148 548 200 548 C 260 548 304 521 333 467 C 362 413 377 339 377 247 L 120 247 C 120 201 128 162 145 131 C 161 99 186 84 220 84 C 243 84 263 90 279 104 C 295 118 307 131 317 144 L 363 88 C 356 78 347 67 337 56 C 327 45 315 35 302 26 C 288 17 273 10 257 4 C 240 -2 222 -5 202 -5 Z M 117 317 L 278 317 C 278 365 271 401 257 426 C 243 450 225 463 203 463 C 178 463 158 450 143 426 C 127 402 119 365 117 317 Z M 201 606 L 201 606 Z M 342 606 L 256 606 L 201 702 L 145 606 L 61 606 L 159 778 L 244 778 L 342 606 Z" unicode="ê" />
<glyph horiz-adv-x="392" d="M 20 0 L 20 0 Z M 202 -5 C 147 -5 103 19 70 69 C 36 119 20 185 20 268 C 20 354 37 423 71 473 C 105 523 148 548 200 548 C 260 548 304 521 333 467 C 362 413 377 339 377 247 L 120 247 C 120 201 128 162 145 131 C 161 99 186 84 220 84 C 243 84 263 90 279 104 C 295 118 307 131 317 144 L 363 88 C 356 78 347 67 337 56 C 327 45 315 35 302 26 C 288 17 273 10 257 4 C 240 -2 222 -5 202 -5 Z M 117 317 L 278 317 C 278 365 271 401 257 426 C 243 450 225 463 203 463 C 178 463 158 450 143 426 C 127 402 119 365 117 317 Z M 201 606 L 201 606 Z M 318 606 L 237 606 L 237 765 L 318 765 L 318 606 Z M 165 606 L 84 606 L 84 765 L 165 765 L 165 606 Z" unicode="ë" />
<glyph horiz-adv-x="181" d="M 0 0 L 0 0 Z M 141 0 L 40 0 L 40 544 L 141 544 L 141 0 Z M 89 605 L 89 605 Z M 189 605 L 92 605 L -13 778 L 103 778 L 189 605 Z" unicode="ì" />
<glyph horiz-adv-x="181" d="M 0 0 L 0 0 Z M 141 0 L 40 0 L 40 544 L 141 544 L 141 0 Z M 89 605 L 89 605 Z M -12 605 L 74 778 L 190 778 L 85 605 L -12 605 Z" unicode="í" />
<glyph horiz-adv-x="181" d="M 0 0 L 0 0 Z M 141 0 L 40 0 L 40 544 L 141 544 L 141 0 Z M 89 606 L 89 606 Z M 230 606 L 144 606 L 89 702 L 33 606 L -51 606 L 47 778 L 132 778 L 230 606 Z" unicode="î" />
<glyph horiz-adv-x="181" d="M 0 0 L 0 0 Z M 141 0 L 40 0 L 40 544 L 141 544 L 141 0 Z M 89 606 L 89 606 Z M 206 606 L 125 606 L 125 765 L 206 765 L 206 606 Z M 53 606 L -28 606 L -28 765 L 53 765 L 53 606 Z" unicode="ï" />
<glyph horiz-adv-x="418" d="M 389 306 C 389 261 385 219 377 181 C 369 142 358 109 343 81 C 327 53 308 32 286 16 C 263 0 236 -8 206 -8 C 151 -8 106 15 72 62 C 37 108 20 174 20 259 C 20 304 24 344 34 378 C 43 412 55 440 71 462 C 86 484 104 501 124 513 C 144 524 165 530 187 530 C 213 530 233 525 248 516 C 263 506 276 493 286 475 C 282 501 277 525 271 549 C 264 573 257 595 249 616 L 169 583 L 148 654 L 218 683 C 206 705 195 723 185 738 C 175 753 166 764 160 770 L 231 802 C 237 796 246 785 258 771 C 270 756 282 737 295 715 L 356 740 L 377 670 L 327 649 C 343 608 358 559 370 502 C 382 444 389 379 389 306 Z M 203 79 C 229 79 249 93 263 122 C 276 151 283 198 283 262 C 283 330 276 378 262 406 C 248 434 227 448 201 448 C 176 448 157 432 143 402 C 129 371 123 324 123 262 C 123 196 130 149 144 121 C 158 93 177 79 203 79 Z" unicode="ð" />
<glyph horiz-adv-x="407" d="M 38 0 L 38 0 Z M 369 0 L 269 0 L 269 400 C 269 420 263 436 253 447 C 242 457 227 463 209 463 C 189 463 173 457 159 445 C 145 433 139 411 139 380 L 139 0 L 38 0 L 38 544 L 123 544 L 123 472 C 131 494 146 513 167 527 C 187 541 214 549 247 549 C 283 549 313 539 335 521 C 357 503 369 473 369 433 L 369 0 Z M 205 612 L 205 612 Z M 286 752 L 361 752 C 361 704 354 668 340 646 C 326 623 309 612 288 612 C 269 612 253 615 239 622 C 225 628 214 634 206 640 C 197 645 188 650 180 656 C 171 661 163 664 156 664 C 148 664 141 659 135 649 C 129 639 126 628 126 616 L 50 616 C 50 663 59 698 78 721 C 97 744 117 756 137 756 C 152 756 165 752 177 746 C 188 740 199 733 211 726 C 219 720 226 715 234 711 C 241 707 249 705 257 705 C 263 705 270 709 276 717 C 282 725 286 736 286 752 Z" unicode="ñ" />
<glyph horiz-adv-x="407" d="M 20 0 L 20 0 Z M 204 -5 C 150 -5 106 18 72 64 C 37 110 20 179 20 271 C 20 357 36 424 69 474 C 102 524 145 549 198 549 C 255 549 301 526 335 481 C 369 436 387 371 387 286 C 387 196 370 125 338 73 C 305 21 260 -5 204 -5 Z M 205 83 C 230 83 249 97 263 127 C 276 156 283 206 283 276 C 283 345 276 393 262 420 C 248 446 227 460 201 460 C 177 460 158 446 144 419 C 130 391 124 344 124 276 C 124 202 131 151 146 124 C 160 96 180 83 205 83 Z M 204 605 L 204 605 Z M 304 605 L 207 605 L 102 778 L 218 778 L 304 605 Z" unicode="ò" />
<glyph horiz-adv-x="407" d="M 20 0 L 20 0 Z M 204 -5 C 150 -5 106 18 72 64 C 37 110 20 179 20 271 C 20 357 36 424 69 474 C 102 524 145 549 198 549 C 255 549 301 526 335 481 C 369 436 387 371 387 286 C 387 196 370 125 338 73 C 305 21 260 -5 204 -5 Z M 205 83 C 230 83 249 97 263 127 C 276 156 283 206 283 276 C 283 345 276 393 262 420 C 248 446 227 460 201 460 C 177 460 158 446 144 419 C 130 391 124 344 124 276 C 124 202 131 151 146 124 C 160 96 180 83 205 83 Z M 204 605 L 204 605 Z M 103 605 L 189 778 L 305 778 L 200 605 L 103 605 Z" unicode="ó" />
<glyph horiz-adv-x="407" d="M 20 0 L 20 0 Z M 204 -5 C 150 -5 106 18 72 64 C 37 110 20 179 20 271 C 20 357 36 424 69 474 C 102 524 145 549 198 549 C 255 549 301 526 335 481 C 369 436 387 371 387 286 C 387 196 370 125 338 73 C 305 21 260 -5 204 -5 Z M 205 83 C 230 83 249 97 263 127 C 276 156 283 206 283 276 C 283 345 276 393 262 420 C 248 446 227 460 201 460 C 177 460 158 446 144 419 C 130 391 124 344 124 276 C 124 202 131 151 146 124 C 160 96 180 83 205 83 Z M 204 606 L 204 606 Z M 345 606 L 259 606 L 204 702 L 148 606 L 64 606 L 162 778 L 247 778 L 345 606 Z" unicode="ô" />
<glyph horiz-adv-x="407" d="M 20 0 L 20 0 Z M 204 -5 C 150 -5 106 18 72 64 C 37 110 20 179 20 271 C 20 357 36 424 69 474 C 102 524 145 549 198 549 C 255 549 301 526 335 481 C 369 436 387 371 387 286 C 387 196 370 125 338 73 C 305 21 260 -5 204 -5 Z M 205 83 C 230 83 249 97 263 127 C 276 156 283 206 283 276 C 283 345 276 393 262 420 C 248 446 227 460 201 460 C 177 460 158 446 144 419 C 130 391 124 344 124 276 C 124 202 131 151 146 124 C 160 96 180 83 205 83 Z M 204 612 L 204 612 Z M 285 752 L 360 752 C 360 704 353 668 339 646 C 325 623 308 612 287 612 C 268 612 252 615 238 622 C 224 628 213 634 205 640 C 196 645 187 650 179 656 C 170 661 162 664 155 664 C 147 664 140 659 134 649 C 128 639 125 628 125 616 L 49 616 C 49 663 58 698 77 721 C 96 744 116 756 136 756 C 151 756 164 752 176 746 C 187 740 198 733 210 726 C 218 720 225 715 233 711 C 240 707 248 705 256 705 C 262 705 269 709 275 717 C 281 725 285 736 285 752 Z" unicode="õ" />
<glyph horiz-adv-x="407" d="M 20 0 L 20 0 Z M 204 -5 C 150 -5 106 18 72 64 C 37 110 20 179 20 271 C 20 357 36 424 69 474 C 102 524 145 549 198 549 C 255 549 301 526 335 481 C 369 436 387 371 387 286 C 387 196 370 125 338 73 C 305 21 260 -5 204 -5 Z M 205 83 C 230 83 249 97 263 127 C 276 156 283 206 283 276 C 283 345 276 393 262 420 C 248 446 227 460 201 460 C 177 460 158 446 144 419 C 130 391 124 344 124 276 C 124 202 131 151 146 124 C 160 96 180 83 205 83 Z M 204 606 L 204 606 Z M 321 606 L 240 606 L 240 765 L 321 765 L 321 606 Z M 168 606 L 87 606 L 87 765 L 168 765 L 168 606 Z" unicode="ö" />
<glyph horiz-adv-x="468" d="M 186 448 L 186 567 L 282 567 L 282 448 L 186 448 Z M 24 287 L 24 374 L 443 374 L 443 287 L 24 287 Z M 186 94 L 186 212 L 282 212 L 282 94 L 186 94 Z" unicode="÷" />
<glyph horiz-adv-x="407" d="M 387 286 C 387 196 370 125 338 73 C 305 21 260 -5 204 -5 C 183 -5 163 -1 145 5 C 126 12 109 23 95 37 L 71 -5 L 26 24 L 60 82 C 47 104 37 131 30 163 C 23 195 20 231 20 271 C 20 357 36 424 69 474 C 102 524 145 549 198 549 C 220 549 241 545 260 538 C 279 531 296 521 311 508 L 340 557 L 385 529 L 347 464 C 359 442 369 417 376 387 C 383 357 387 323 387 286 Z M 124 276 C 124 260 124 246 125 233 C 125 219 126 207 128 197 L 261 422 C 254 435 245 445 235 451 C 225 457 213 460 201 460 C 177 460 158 446 144 419 C 130 391 124 344 124 276 Z M 283 276 C 283 290 282 303 282 315 C 281 327 280 339 279 349 L 146 123 C 152 108 161 98 171 92 C 181 86 193 83 205 83 C 230 83 249 97 263 127 C 276 156 283 206 283 276 Z" unicode="ø" />
<glyph horiz-adv-x="407" d="M 37 0 L 37 0 Z M 37 544 L 138 544 L 138 156 C 138 130 143 111 154 98 C 165 85 181 79 201 79 C 219 79 234 86 248 100 C 261 114 268 139 268 175 L 268 544 L 368 544 L 368 0 L 280 0 L 280 75 C 272 54 258 35 236 19 C 214 2 187 -6 156 -6 C 125 -6 97 5 73 28 C 49 51 37 84 37 126 L 37 544 Z M 202 605 L 202 605 Z M 302 605 L 205 605 L 100 778 L 216 778 L 302 605 Z" unicode="ù" />
<glyph horiz-adv-x="407" d="M 37 0 L 37 0 Z M 37 544 L 138 544 L 138 156 C 138 130 143 111 154 98 C 165 85 181 79 201 79 C 219 79 234 86 248 100 C 261 114 268 139 268 175 L 268 544 L 368 544 L 368 0 L 280 0 L 280 75 C 272 54 258 35 236 19 C 214 2 187 -6 156 -6 C 125 -6 97 5 73 28 C 49 51 37 84 37 126 L 37 544 Z M 202 605 L 202 605 Z M 101 605 L 187 778 L 303 778 L 198 605 L 101 605 Z" unicode="ú" />
<glyph horiz-adv-x="407" d="M 37 0 L 37 0 Z M 37 544 L 138 544 L 138 156 C 138 130 143 111 154 98 C 165 85 181 79 201 79 C 219 79 234 86 248 100 C 261 114 268 139 268 175 L 268 544 L 368 544 L 368 0 L 280 0 L 280 75 C 272 54 258 35 236 19 C 214 2 187 -6 156 -6 C 125 -6 97 5 73 28 C 49 51 37 84 37 126 L 37 544 Z M 202 606 L 202 606 Z M 343 606 L 257 606 L 202 702 L 146 606 L 62 606 L 160 778 L 245 778 L 343 606 Z" unicode="û" />
<glyph horiz-adv-x="407" d="M 37 0 L 37 0 Z M 37 544 L 138 544 L 138 156 C 138 130 143 111 154 98 C 165 85 181 79 201 79 C 219 79 234 86 248 100 C 261 114 268 139 268 175 L 268 544 L 368 544 L 368 0 L 280 0 L 280 75 C 272 54 258 35 236 19 C 214 2 187 -6 156 -6 C 125 -6 97 5 73 28 C 49 51 37 84 37 126 L 37 544 Z M 202 606 L 202 606 Z M 319 606 L 238 606 L 238 765 L 319 765 L 319 606 Z M 166 606 L 85 606 L 85 765 L 166 765 L 166 606 Z" unicode="ü" />
<glyph horiz-adv-x="347" d="M 0 0 L 0 0 Z M 352 544 L 185 -93 C 176 -125 161 -151 139 -171 C 117 -190 91 -200 63 -200 C 32 -200 8 -196 -9 -190 C -27 -184 -38 -178 -44 -172 L -3 -99 C 0 -101 7 -105 18 -109 C 29 -113 39 -115 49 -115 C 61 -115 73 -110 83 -100 C 93 -90 101 -75 106 -55 L 129 44 L -5 544 L 97 544 L 179 187 L 259 544 L 352 544 Z M 179 605 L 179 605 Z M 78 605 L 164 778 L 280 778 L 175 605 L 78 605 Z" unicode="ý" />
<glyph horiz-adv-x="411" d="M 38 -200 L 38 800 L 131 800 L 131 459 C 137 484 151 505 172 523 C 192 540 217 549 247 549 C 272 549 294 542 312 529 C 330 516 345 498 357 476 C 369 453 377 426 383 394 C 389 362 392 328 392 292 C 392 198 378 125 351 73 C 324 21 287 -4 240 -4 C 213 -4 190 2 172 15 C 153 28 140 44 133 63 L 133 -200 L 38 -200 Z M 203 78 C 229 78 249 92 264 122 C 279 151 287 199 287 266 C 287 328 280 375 268 407 C 255 439 234 455 206 455 C 196 455 186 452 177 447 C 167 441 159 431 152 417 C 145 403 139 383 135 357 C 131 331 129 299 129 259 C 129 221 130 191 134 167 C 138 143 143 125 150 112 C 156 99 164 90 173 85 C 182 80 192 78 203 78 Z" unicode="þ" />
<glyph horiz-adv-x="347" d="M 0 0 L 0 0 Z M 352 544 L 185 -93 C 176 -125 161 -151 139 -171 C 117 -190 91 -200 63 -200 C 32 -200 8 -196 -9 -190 C -27 -184 -38 -178 -44 -172 L -3 -99 C 0 -101 7 -105 18 -109 C 29 -113 39 -115 49 -115 C 61 -115 73 -110 83 -100 C 93 -90 101 -75 106 -55 L 129 44 L -5 544 L 97 544 L 179 187 L 259 544 L 352 544 Z M 179 606 L 179 606 Z M 296 606 L 215 606 L 215 765 L 296 765 L 296 606 Z M 143 606 L 62 606 L 62 765 L 143 765 L 143 606 Z" unicode="ÿ" />
<glyph horiz-adv-x="484" d="M 0 0 L 0 0 Z M 483 0 L 379 0 L 333 171 L 145 171 L 102 0 L 0 0 L 204 734 L 280 734 L 483 0 Z M 319 249 L 238 553 L 160 249 L 319 249 Z M 242 805 L 242 805 Z M 366 805 L 118 805 L 118 889 L 366 889 L 366 805 Z" unicode="Ā" />
<glyph horiz-adv-x="378" d="M 17 0 L 17 0 Z M 340 0 L 257 0 L 257 49 C 240 29 224 15 208 7 C 192 0 170 -5 141 -5 C 105 -5 75 10 52 40 C 28 70 17 112 17 166 C 17 225 32 268 63 294 C 93 320 130 336 173 340 L 246 346 L 246 385 C 246 411 239 430 227 443 C 214 455 196 462 174 462 C 152 462 133 457 116 449 C 98 441 85 432 76 424 L 47 508 C 60 518 79 529 104 539 C 128 549 159 554 195 554 C 239 554 274 541 300 516 C 326 490 340 455 340 409 L 340 0 Z M 248 114 L 248 277 L 196 272 C 173 269 154 259 138 243 C 122 226 114 199 114 163 C 114 129 120 106 134 92 C 147 78 161 71 177 71 C 194 71 208 75 220 83 C 231 91 240 102 248 114 Z M 187 619 L 187 619 Z M 311 619 L 63 619 L 63 703 L 311 703 L 311 619 Z" unicode="ā" />
<glyph horiz-adv-x="484" d="M 0 0 L 0 0 Z M 483 0 L 379 0 L 333 171 L 145 171 L 102 0 L 0 0 L 204 734 L 280 734 L 483 0 Z M 319 249 L 238 553 L 160 249 L 319 249 Z M 242 796 L 242 796 Z M 295 954 L 379 954 C 375 899 360 859 336 834 C 311 808 280 796 242 796 C 204 796 172 808 148 834 C 123 859 109 899 106 954 L 190 954 C 191 931 195 912 203 898 C 210 883 223 876 242 876 C 260 876 273 883 281 897 C 289 911 293 930 295 954 Z" unicode="Ă" />
<glyph horiz-adv-x="378" d="M 17 0 L 17 0 Z M 340 0 L 257 0 L 257 49 C 240 29 224 15 208 7 C 192 0 170 -5 141 -5 C 105 -5 75 10 52 40 C 28 70 17 112 17 166 C 17 225 32 268 63 294 C 93 320 130 336 173 340 L 246 346 L 246 385 C 246 411 239 430 227 443 C 214 455 196 462 174 462 C 152 462 133 457 116 449 C 98 441 85 432 76 424 L 47 508 C 60 518 79 529 104 539 C 128 549 159 554 195 554 C 239 554 274 541 300 516 C 326 490 340 455 340 409 L 340 0 Z M 248 114 L 248 277 L 196 272 C 173 269 154 259 138 243 C 122 226 114 199 114 163 C 114 129 120 106 134 92 C 147 78 161 71 177 71 C 194 71 208 75 220 83 C 231 91 240 102 248 114 Z M 187 610 L 187 610 Z M 240 768 L 324 768 C 320 713 305 673 281 648 C 256 622 225 610 187 610 C 149 610 117 622 93 648 C 68 673 54 713 51 768 L 135 768 C 136 745 140 726 148 712 C 155 697 168 690 187 690 C 205 690 218 697 226 711 C 234 725 238 744 240 768 Z" unicode="ă" />
<glyph horiz-adv-x="484" d="M 0 0 L 0 0 Z M 483 0 L 379 0 L 333 171 L 145 171 L 102 0 L 0 0 L 204 734 L 280 734 L 483 0 Z M 319 249 L 238 553 L 160 249 L 319 249 Z M 383 -8 L 383 -8 Z M 476 -91 L 505 -134 C 484 -155 462 -171 439 -182 C 416 -193 390 -199 362 -199 C 329 -199 304 -191 286 -177 C 268 -162 260 -143 260 -121 C 260 -96 271 -73 293 -51 C 315 -29 347 -10 391 5 L 430 5 C 401 -8 380 -22 367 -36 C 354 -50 348 -65 348 -80 C 348 -92 352 -103 360 -111 C 368 -119 380 -123 395 -123 C 411 -123 426 -120 440 -114 C 453 -108 465 -100 476 -91 Z" unicode="Ą" />
<glyph horiz-adv-x="378" d="M 17 0 L 17 0 Z M 340 0 L 257 0 L 257 49 C 240 29 224 15 208 7 C 192 0 170 -5 141 -5 C 105 -5 75 10 52 40 C 28 70 17 112 17 166 C 17 225 32 268 63 294 C 93 320 130 336 173 340 L 246 346 L 246 385 C 246 411 239 430 227 443 C 214 455 196 462 174 462 C 152 462 133 457 116 449 C 98 441 85 432 76 424 L 47 508 C 60 518 79 529 104 539 C 128 549 159 554 195 554 C 239 554 274 541 300 516 C 326 490 340 455 340 409 L 340 0 Z M 248 114 L 248 277 L 196 272 C 173 269 154 259 138 243 C 122 226 114 199 114 163 C 114 129 120 106 134 92 C 147 78 161 71 177 71 C 194 71 208 75 220 83 C 231 91 240 102 248 114 Z M 260 -8 L 260 -8 Z M 353 -91 L 382 -134 C 361 -155 339 -171 316 -182 C 293 -193 267 -199 239 -199 C 206 -199 181 -191 163 -177 C 145 -162 137 -143 137 -121 C 137 -96 148 -73 170 -51 C 192 -29 224 -10 268 5 L 307 5 C 278 -8 257 -22 244 -36 C 231 -50 225 -65 225 -80 C 225 -92 229 -103 237 -111 C 245 -119 257 -123 272 -123 C 288 -123 303 -120 317 -114 C 330 -108 342 -100 353 -91 Z" unicode="ą" />
<glyph horiz-adv-x="533" d="M 32 0 L 32 0 Z M 283 -7 C 208 -7 147 24 101 86 C 55 148 32 241 32 366 C 32 482 53 573 96 639 C 138 704 201 737 283 737 C 344 737 391 720 423 688 C 455 656 478 616 491 568 L 392 535 C 382 565 370 590 354 611 C 338 631 314 642 283 642 C 238 642 203 621 178 580 C 153 538 141 466 141 362 C 141 309 145 265 153 230 C 161 194 172 166 186 145 C 200 124 215 109 233 100 C 251 91 269 87 288 87 C 324 87 351 98 369 120 C 387 142 401 171 412 205 L 502 164 C 484 110 457 68 421 38 C 385 8 339 -7 283 -7 Z M 288 791 L 288 791 Z M 187 791 L 273 964 L 389 964 L 284 791 L 187 791 Z" unicode="Ć" />
<glyph horiz-adv-x="359" d="M 20 0 L 20 0 Z M 297 128 L 346 68 C 334 48 317 31 296 17 C 274 2 247 -5 213 -5 C 181 -5 154 1 130 15 C 106 29 85 48 69 73 C 53 97 40 126 32 160 C 24 194 20 231 20 271 C 20 308 24 343 32 377 C 40 411 51 440 67 466 C 83 491 103 511 127 526 C 151 541 178 549 210 549 C 246 549 276 539 300 521 C 324 502 341 482 351 462 L 280 408 C 273 422 264 434 253 444 C 241 454 227 459 211 459 C 183 459 161 442 147 410 C 132 378 125 333 125 276 C 125 207 134 157 154 127 C 174 96 198 81 226 81 C 244 81 259 86 270 97 C 281 107 290 118 297 128 Z M 207 605 L 207 605 Z M 106 605 L 192 778 L 308 778 L 203 605 L 106 605 Z" unicode="ć" />
<glyph horiz-adv-x="533" d="M 32 0 L 32 0 Z M 283 -7 C 208 -7 147 24 101 86 C 55 148 32 241 32 366 C 32 482 53 573 96 639 C 138 704 201 737 283 737 C 344 737 391 720 423 688 C 455 656 478 616 491 568 L 392 535 C 382 565 370 590 354 611 C 338 631 314 642 283 642 C 238 642 203 621 178 580 C 153 538 141 466 141 362 C 141 309 145 265 153 230 C 161 194 172 166 186 145 C 200 124 215 109 233 100 C 251 91 269 87 288 87 C 324 87 351 98 369 120 C 387 142 401 171 412 205 L 502 164 C 484 110 457 68 421 38 C 385 8 339 -7 283 -7 Z M 288 792 L 288 792 Z M 429 792 L 343 792 L 288 888 L 232 792 L 148 792 L 246 964 L 331 964 L 429 792 Z" unicode="Ĉ" />
<glyph horiz-adv-x="359" d="M 20 0 L 20 0 Z M 297 128 L 346 68 C 334 48 317 31 296 17 C 274 2 247 -5 213 -5 C 181 -5 154 1 130 15 C 106 29 85 48 69 73 C 53 97 40 126 32 160 C 24 194 20 231 20 271 C 20 308 24 343 32 377 C 40 411 51 440 67 466 C 83 491 103 511 127 526 C 151 541 178 549 210 549 C 246 549 276 539 300 521 C 324 502 341 482 351 462 L 280 408 C 273 422 264 434 253 444 C 241 454 227 459 211 459 C 183 459 161 442 147 410 C 132 378 125 333 125 276 C 125 207 134 157 154 127 C 174 96 198 81 226 81 C 244 81 259 86 270 97 C 281 107 290 118 297 128 Z M 207 606 L 207 606 Z M 348 606 L 262 606 L 207 702 L 151 606 L 67 606 L 165 778 L 250 778 L 348 606 Z" unicode="ĉ" />
<glyph horiz-adv-x="533" d="M 32 0 L 32 0 Z M 283 -7 C 208 -7 147 24 101 86 C 55 148 32 241 32 366 C 32 482 53 573 96 639 C 138 704 201 737 283 737 C 344 737 391 720 423 688 C 455 656 478 616 491 568 L 392 535 C 382 565 370 590 354 611 C 338 631 314 642 283 642 C 238 642 203 621 178 580 C 153 538 141 466 141 362 C 141 309 145 265 153 230 C 161 194 172 166 186 145 C 200 124 215 109 233 100 C 251 91 269 87 288 87 C 324 87 351 98 369 120 C 387 142 401 171 412 205 L 502 164 C 484 110 457 68 421 38 C 385 8 339 -7 283 -7 Z M 288 796 L 288 796 Z M 335 796 L 242 796 L 242 918 L 335 918 L 335 796 Z" unicode="Ċ" />
<glyph horiz-adv-x="359" d="M 20 0 L 20 0 Z M 297 128 L 346 68 C 334 48 317 31 296 17 C 274 2 247 -5 213 -5 C 181 -5 154 1 130 15 C 106 29 85 48 69 73 C 53 97 40 126 32 160 C 24 194 20 231 20 271 C 20 308 24 343 32 377 C 40 411 51 440 67 466 C 83 491 103 511 127 526 C 151 541 178 549 210 549 C 246 549 276 539 300 521 C 324 502 341 482 351 462 L 280 408 C 273 422 264 434 253 444 C 241 454 227 459 211 459 C 183 459 161 442 147 410 C 132 378 125 333 125 276 C 125 207 134 157 154 127 C 174 96 198 81 226 81 C 244 81 259 86 270 97 C 281 107 290 118 297 128 Z M 207 610 L 207 610 Z M 254 610 L 161 610 L 161 732 L 254 732 L 254 610 Z" unicode="ċ" />
<glyph horiz-adv-x="533" d="M 32 0 L 32 0 Z M 283 -7 C 208 -7 147 24 101 86 C 55 148 32 241 32 366 C 32 482 53 573 96 639 C 138 704 201 737 283 737 C 344 737 391 720 423 688 C 455 656 478 616 491 568 L 392 535 C 382 565 370 590 354 611 C 338 631 314 642 283 642 C 238 642 203 621 178 580 C 153 538 141 466 141 362 C 141 309 145 265 153 230 C 161 194 172 166 186 145 C 200 124 215 109 233 100 C 251 91 269 87 288 87 C 324 87 351 98 369 120 C 387 142 401 171 412 205 L 502 164 C 484 110 457 68 421 38 C 385 8 339 -7 283 -7 Z M 288 792 L 288 792 Z M 148 964 L 234 964 L 289 868 L 345 964 L 429 964 L 331 792 L 246 792 L 148 964 Z" unicode="Č" />
<glyph horiz-adv-x="359" d="M 20 0 L 20 0 Z M 297 128 L 346 68 C 334 48 317 31 296 17 C 274 2 247 -5 213 -5 C 181 -5 154 1 130 15 C 106 29 85 48 69 73 C 53 97 40 126 32 160 C 24 194 20 231 20 271 C 20 308 24 343 32 377 C 40 411 51 440 67 466 C 83 491 103 511 127 526 C 151 541 178 549 210 549 C 246 549 276 539 300 521 C 324 502 341 482 351 462 L 280 408 C 273 422 264 434 253 444 C 241 454 227 459 211 459 C 183 459 161 442 147 410 C 132 378 125 333 125 276 C 125 207 134 157 154 127 C 174 96 198 81 226 81 C 244 81 259 86 270 97 C 281 107 290 118 297 128 Z M 207 606 L 207 606 Z M 67 778 L 153 778 L 208 682 L 264 778 L 348 778 L 250 606 L 165 606 L 67 778 Z" unicode="č" />
<glyph horiz-adv-x="541" d="M 56 0 L 56 0 Z M 56 0 L 56 730 L 223 730 C 269 730 310 721 346 704 C 382 686 412 662 436 630 C 460 598 478 559 490 514 C 502 468 509 418 509 363 C 509 312 503 264 491 220 C 479 176 461 137 437 105 C 413 72 382 46 345 28 C 308 9 265 0 216 0 L 56 0 Z M 165 92 L 219 92 C 283 92 329 116 357 164 C 384 212 398 278 398 362 C 398 457 382 527 352 571 C 322 615 280 638 226 638 L 165 638 L 165 92 Z M 253 792 L 253 792 Z M 113 964 L 199 964 L 254 868 L 310 964 L 394 964 L 296 792 L 211 792 L 113 964 Z" unicode="Ď" />
<glyph horiz-adv-x="424" d="M 20 0 L 20 0 Z M 179 -5 C 154 -5 132 1 112 15 C 92 29 76 48 62 72 C 48 96 38 124 31 158 C 23 191 20 227 20 266 C 20 351 34 419 64 470 C 93 520 131 546 178 546 C 206 546 231 536 251 516 C 271 496 284 472 291 444 L 291 800 L 386 800 L 386 0 L 297 0 L 297 71 C 291 53 278 35 258 19 C 238 3 211 -5 179 -5 Z M 210 79 C 236 79 256 94 271 125 C 285 156 293 206 293 275 C 293 343 284 390 268 416 C 252 442 232 455 209 455 C 183 455 163 440 148 412 C 132 384 125 337 125 271 C 125 204 132 155 147 125 C 162 94 183 79 210 79 Z M 520 621 L 516 480 L 430 480 L 425 621 L 425 730 L 520 730 L 520 621 Z" unicode="ď" />
<glyph horiz-adv-x="541" d="M 16 0 L 16 0 Z M 509 362 C 509 311 503 263 491 219 C 479 175 461 136 437 104 C 413 72 382 46 345 28 C 308 9 265 0 216 0 L 56 0 L 56 315 L 16 315 L 16 402 L 56 402 L 56 730 L 223 730 C 269 730 310 721 346 703 C 382 685 412 661 436 629 C 460 597 478 559 490 513 C 502 467 509 417 509 362 Z M 165 85 L 219 85 C 283 85 329 109 357 159 C 384 209 398 276 398 360 C 398 458 382 530 352 576 C 322 622 280 645 226 645 L 165 645 L 165 402 L 279 402 L 279 315 L 165 315 L 165 85 Z" unicode="Đ" />
<glyph horiz-adv-x="424" d="M 297 71 C 291 53 278 35 258 19 C 238 3 211 -5 179 -5 C 154 -5 132 1 112 15 C 92 29 76 48 62 72 C 48 96 38 124 31 158 C 23 191 20 227 20 266 C 20 351 34 419 64 470 C 93 520 131 546 178 546 C 206 546 231 536 251 516 C 271 496 284 472 291 444 L 291 618 L 215 618 L 215 706 L 291 706 L 291 800 L 386 800 L 386 706 L 424 706 L 424 618 L 386 618 L 386 0 L 297 0 L 297 71 Z M 210 79 C 236 79 256 94 271 125 C 285 156 293 206 293 275 C 293 343 284 390 268 416 C 252 442 232 455 209 455 C 183 455 163 440 148 412 C 132 384 125 337 125 271 C 125 204 132 155 147 125 C 162 94 183 79 210 79 Z" unicode="đ" />
<glyph horiz-adv-x="396" d="M 56 0 L 56 0 Z M 385 0 L 56 0 L 56 730 L 367 730 L 367 634 L 163 634 L 163 412 L 359 412 L 359 319 L 163 319 L 163 96 L 385 96 L 385 0 Z M 211 805 L 211 805 Z M 335 805 L 87 805 L 87 889 L 335 889 L 335 805 Z" unicode="Ē" />
<glyph horiz-adv-x="392" d="M 20 0 L 20 0 Z M 202 -5 C 147 -5 103 19 70 69 C 36 119 20 185 20 268 C 20 354 37 423 71 473 C 105 523 148 548 200 548 C 260 548 304 521 333 467 C 362 413 377 339 377 247 L 120 247 C 120 201 128 162 145 131 C 161 99 186 84 220 84 C 243 84 263 90 279 104 C 295 118 307 131 317 144 L 363 88 C 356 78 347 67 337 56 C 327 45 315 35 302 26 C 288 17 273 10 257 4 C 240 -2 222 -5 202 -5 Z M 117 317 L 278 317 C 278 365 271 401 257 426 C 243 450 225 463 203 463 C 178 463 158 450 143 426 C 127 402 119 365 117 317 Z M 201 619 L 201 619 Z M 325 619 L 77 619 L 77 703 L 325 703 L 325 619 Z" unicode="ē" />
<glyph horiz-adv-x="396" d="M 56 0 L 56 0 Z M 385 0 L 56 0 L 56 730 L 367 730 L 367 634 L 163 634 L 163 412 L 359 412 L 359 319 L 163 319 L 163 96 L 385 96 L 385 0 Z M 211 796 L 211 796 Z M 264 954 L 348 954 C 344 899 329 859 305 834 C 280 808 249 796 211 796 C 173 796 141 808 117 834 C 92 859 78 899 75 954 L 159 954 C 160 931 164 912 172 898 C 179 883 192 876 211 876 C 229 876 242 883 250 897 C 258 911 262 930 264 954 Z" unicode="Ĕ" />
<glyph horiz-adv-x="392" d="M 20 0 L 20 0 Z M 202 -5 C 147 -5 103 19 70 69 C 36 119 20 185 20 268 C 20 354 37 423 71 473 C 105 523 148 548 200 548 C 260 548 304 521 333 467 C 362 413 377 339 377 247 L 120 247 C 120 201 128 162 145 131 C 161 99 186 84 220 84 C 243 84 263 90 279 104 C 295 118 307 131 317 144 L 363 88 C 356 78 347 67 337 56 C 327 45 315 35 302 26 C 288 17 273 10 257 4 C 240 -2 222 -5 202 -5 Z M 117 317 L 278 317 C 278 365 271 401 257 426 C 243 450 225 463 203 463 C 178 463 158 450 143 426 C 127 402 119 365 117 317 Z M 201 610 L 201 610 Z M 254 768 L 338 768 C 334 713 319 673 295 648 C 270 622 239 610 201 610 C 163 610 131 622 107 648 C 82 673 68 713 65 768 L 149 768 C 150 745 154 726 162 712 C 169 697 182 690 201 690 C 219 690 232 697 240 711 C 248 725 252 744 254 768 Z" unicode="ĕ" />
<glyph horiz-adv-x="396" d="M 56 0 L 56 0 Z M 385 0 L 56 0 L 56 730 L 367 730 L 367 634 L 163 634 L 163 412 L 359 412 L 359 319 L 163 319 L 163 96 L 385 96 L 385 0 Z M 211 796 L 211 796 Z M 258 796 L 165 796 L 165 918 L 258 918 L 258 796 Z" unicode="Ė" />
<glyph horiz-adv-x="392" d="M 20 0 L 20 0 Z M 202 -5 C 147 -5 103 19 70 69 C 36 119 20 185 20 268 C 20 354 37 423 71 473 C 105 523 148 548 200 548 C 260 548 304 521 333 467 C 362 413 377 339 377 247 L 120 247 C 120 201 128 162 145 131 C 161 99 186 84 220 84 C 243 84 263 90 279 104 C 295 118 307 131 317 144 L 363 88 C 356 78 347 67 337 56 C 327 45 315 35 302 26 C 288 17 273 10 257 4 C 240 -2 222 -5 202 -5 Z M 117 317 L 278 317 C 278 365 271 401 257 426 C 243 450 225 463 203 463 C 178 463 158 450 143 426 C 127 402 119 365 117 317 Z M 201 610 L 201 610 Z M 248 610 L 155 610 L 155 732 L 248 732 L 248 610 Z" unicode="ė" />
<glyph horiz-adv-x="396" d="M 56 0 L 56 0 Z M 385 0 L 56 0 L 56 730 L 367 730 L 367 634 L 163 634 L 163 412 L 359 412 L 359 319 L 163 319 L 163 96 L 385 96 L 385 0 Z M 338 -8 L 338 -8 Z M 431 -91 L 460 -134 C 439 -155 417 -171 394 -182 C 371 -193 345 -199 317 -199 C 284 -199 259 -191 241 -177 C 223 -162 215 -143 215 -121 C 215 -96 226 -73 248 -51 C 270 -29 302 -10 346 5 L 385 5 C 356 -8 335 -22 322 -36 C 309 -50 303 -65 303 -80 C 303 -92 307 -103 315 -111 C 323 -119 335 -123 350 -123 C 366 -123 381 -120 395 -114 C 408 -108 420 -100 431 -91 Z" unicode="Ę" />
<glyph horiz-adv-x="392" d="M 20 0 L 20 0 Z M 202 -5 C 147 -5 103 19 70 69 C 36 119 20 185 20 268 C 20 354 37 423 71 473 C 105 523 148 548 200 548 C 260 548 304 521 333 467 C 362 413 377 339 377 247 L 120 247 C 120 201 128 162 145 131 C 161 99 186 84 220 84 C 243 84 263 90 279 104 C 295 118 307 131 317 144 L 363 88 C 356 78 347 67 337 56 C 327 45 315 35 302 26 C 288 17 273 10 257 4 C 240 -2 222 -5 202 -5 Z M 117 317 L 278 317 C 278 365 271 401 257 426 C 243 450 225 463 203 463 C 178 463 158 450 143 426 C 127 402 119 365 117 317 Z M 211 -8 L 211 -8 Z M 304 -91 L 333 -134 C 312 -155 290 -171 267 -182 C 244 -193 218 -199 190 -199 C 157 -199 132 -191 114 -177 C 96 -162 88 -143 88 -121 C 88 -96 99 -73 121 -51 C 143 -29 175 -10 219 5 L 258 5 C 229 -8 208 -22 195 -36 C 182 -50 176 -65 176 -80 C 176 -92 180 -103 188 -111 C 196 -119 208 -123 223 -123 C 239 -123 254 -120 268 -114 C 281 -108 293 -100 304 -91 Z" unicode="ę" />
<glyph horiz-adv-x="396" d="M 56 0 L 56 0 Z M 385 0 L 56 0 L 56 730 L 367 730 L 367 634 L 163 634 L 163 412 L 359 412 L 359 319 L 163 319 L 163 96 L 385 96 L 385 0 Z M 211 792 L 211 792 Z M 71 964 L 157 964 L 212 868 L 268 964 L 352 964 L 254 792 L 169 792 L 71 964 Z" unicode="Ě" />
<glyph horiz-adv-x="392" d="M 20 0 L 20 0 Z M 202 -5 C 147 -5 103 19 70 69 C 36 119 20 185 20 268 C 20 354 37 423 71 473 C 105 523 148 548 200 548 C 260 548 304 521 333 467 C 362 413 377 339 377 247 L 120 247 C 120 201 128 162 145 131 C 161 99 186 84 220 84 C 243 84 263 90 279 104 C 295 118 307 131 317 144 L 363 88 C 356 78 347 67 337 56 C 327 45 315 35 302 26 C 288 17 273 10 257 4 C 240 -2 222 -5 202 -5 Z M 117 317 L 278 317 C 278 365 271 401 257 426 C 243 450 225 463 203 463 C 178 463 158 450 143 426 C 127 402 119 365 117 317 Z M 201 606 L 201 606 Z M 61 778 L 147 778 L 202 682 L 258 778 L 342 778 L 244 606 L 159 606 L 61 778 Z" unicode="ě" />
<glyph horiz-adv-x="539" d="M 32 0 L 32 0 Z M 276 367 L 505 367 L 505 117 C 487 81 459 51 422 28 C 385 4 339 -7 283 -7 C 249 -7 216 1 186 18 C 155 34 128 58 106 90 C 83 121 65 160 52 206 C 38 252 32 305 32 365 C 32 421 37 473 49 519 C 61 565 77 604 99 636 C 121 668 147 692 179 710 C 210 727 245 736 284 736 C 344 736 389 722 420 696 C 451 670 474 638 489 602 L 401 545 C 390 571 376 594 359 612 C 341 630 318 639 290 639 C 244 639 208 617 182 573 C 155 529 142 458 142 360 C 142 261 156 190 184 146 C 212 102 245 81 284 81 C 314 81 339 85 360 95 C 380 104 396 120 406 143 L 406 276 L 276 276 L 276 367 Z M 288 792 L 288 792 Z M 429 792 L 343 792 L 288 888 L 232 792 L 148 792 L 246 964 L 331 964 L 429 792 Z" unicode="Ĝ" />
<glyph horiz-adv-x="422" d="M 21 0 L 21 0 Z M 177 14 C 131 14 94 37 65 85 C 35 132 21 197 21 279 C 21 364 36 430 67 478 C 97 525 134 549 178 549 C 208 549 233 540 253 522 C 272 504 286 484 295 462 L 295 544 L 384 544 L 384 10 C 384 -26 378 -57 367 -83 C 355 -109 340 -130 322 -147 C 303 -164 282 -177 258 -185 C 234 -193 209 -197 185 -197 C 149 -197 120 -193 97 -187 C 73 -180 56 -173 45 -165 L 76 -85 C 89 -90 103 -94 119 -98 C 135 -102 155 -104 179 -104 C 211 -104 237 -93 258 -71 C 278 -49 289 -18 289 23 L 289 108 C 281 83 268 61 249 42 C 230 23 206 14 177 14 Z M 209 99 C 234 99 254 112 269 140 C 284 168 292 215 292 283 C 292 347 283 392 265 418 C 247 444 228 457 207 457 C 182 457 162 442 148 414 C 133 385 126 341 126 281 C 126 221 132 175 146 145 C 159 114 180 99 209 99 Z M 207 606 L 207 606 Z M 348 606 L 262 606 L 207 702 L 151 606 L 67 606 L 165 778 L 250 778 L 348 606 Z" unicode="ĝ" />
<glyph horiz-adv-x="539" d="M 32 0 L 32 0 Z M 276 367 L 505 367 L 505 117 C 487 81 459 51 422 28 C 385 4 339 -7 283 -7 C 249 -7 216 1 186 18 C 155 34 128 58 106 90 C 83 121 65 160 52 206 C 38 252 32 305 32 365 C 32 421 37 473 49 519 C 61 565 77 604 99 636 C 121 668 147 692 179 710 C 210 727 245 736 284 736 C 344 736 389 722 420 696 C 451 670 474 638 489 602 L 401 545 C 390 571 376 594 359 612 C 341 630 318 639 290 639 C 244 639 208 617 182 573 C 155 529 142 458 142 360 C 142 261 156 190 184 146 C 212 102 245 81 284 81 C 314 81 339 85 360 95 C 380 104 396 120 406 143 L 406 276 L 276 276 L 276 367 Z M 288 796 L 288 796 Z M 341 954 L 425 954 C 421 899 406 859 382 834 C 357 808 326 796 288 796 C 250 796 218 808 194 834 C 169 859 155 899 152 954 L 236 954 C 237 931 241 912 249 898 C 256 883 269 876 288 876 C 306 876 319 883 327 897 C 335 911 339 930 341 954 Z" unicode="Ğ" />
<glyph horiz-adv-x="422" d="M 21 0 L 21 0 Z M 177 14 C 131 14 94 37 65 85 C 35 132 21 197 21 279 C 21 364 36 430 67 478 C 97 525 134 549 178 549 C 208 549 233 540 253 522 C 272 504 286 484 295 462 L 295 544 L 384 544 L 384 10 C 384 -26 378 -57 367 -83 C 355 -109 340 -130 322 -147 C 303 -164 282 -177 258 -185 C 234 -193 209 -197 185 -197 C 149 -197 120 -193 97 -187 C 73 -180 56 -173 45 -165 L 76 -85 C 89 -90 103 -94 119 -98 C 135 -102 155 -104 179 -104 C 211 -104 237 -93 258 -71 C 278 -49 289 -18 289 23 L 289 108 C 281 83 268 61 249 42 C 230 23 206 14 177 14 Z M 209 99 C 234 99 254 112 269 140 C 284 168 292 215 292 283 C 292 347 283 392 265 418 C 247 444 228 457 207 457 C 182 457 162 442 148 414 C 133 385 126 341 126 281 C 126 221 132 175 146 145 C 159 114 180 99 209 99 Z M 207 610 L 207 610 Z M 260 768 L 344 768 C 340 713 325 673 301 648 C 276 622 245 610 207 610 C 169 610 137 622 113 648 C 88 673 74 713 71 768 L 155 768 C 156 745 160 726 168 712 C 175 697 188 690 207 690 C 225 690 238 697 246 711 C 254 725 258 744 260 768 Z" unicode="ğ" />
<glyph horiz-adv-x="539" d="M 32 0 L 32 0 Z M 276 367 L 505 367 L 505 117 C 487 81 459 51 422 28 C 385 4 339 -7 283 -7 C 249 -7 216 1 186 18 C 155 34 128 58 106 90 C 83 121 65 160 52 206 C 38 252 32 305 32 365 C 32 421 37 473 49 519 C 61 565 77 604 99 636 C 121 668 147 692 179 710 C 210 727 245 736 284 736 C 344 736 389 722 420 696 C 451 670 474 638 489 602 L 401 545 C 390 571 376 594 359 612 C 341 630 318 639 290 639 C 244 639 208 617 182 573 C 155 529 142 458 142 360 C 142 261 156 190 184 146 C 212 102 245 81 284 81 C 314 81 339 85 360 95 C 380 104 396 120 406 143 L 406 276 L 276 276 L 276 367 Z M 288 796 L 288 796 Z M 335 796 L 242 796 L 242 918 L 335 918 L 335 796 Z" unicode="Ġ" />
<glyph horiz-adv-x="422" d="M 21 0 L 21 0 Z M 177 14 C 131 14 94 37 65 85 C 35 132 21 197 21 279 C 21 364 36 430 67 478 C 97 525 134 549 178 549 C 208 549 233 540 253 522 C 272 504 286 484 295 462 L 295 544 L 384 544 L 384 10 C 384 -26 378 -57 367 -83 C 355 -109 340 -130 322 -147 C 303 -164 282 -177 258 -185 C 234 -193 209 -197 185 -197 C 149 -197 120 -193 97 -187 C 73 -180 56 -173 45 -165 L 76 -85 C 89 -90 103 -94 119 -98 C 135 -102 155 -104 179 -104 C 211 -104 237 -93 258 -71 C 278 -49 289 -18 289 23 L 289 108 C 281 83 268 61 249 42 C 230 23 206 14 177 14 Z M 209 99 C 234 99 254 112 269 140 C 284 168 292 215 292 283 C 292 347 283 392 265 418 C 247 444 228 457 207 457 C 182 457 162 442 148 414 C 133 385 126 341 126 281 C 126 221 132 175 146 145 C 159 114 180 99 209 99 Z M 207 610 L 207 610 Z M 254 610 L 161 610 L 161 732 L 254 732 L 254 610 Z" unicode="ġ" />
<glyph horiz-adv-x="539" d="M 32 0 L 32 0 Z M 276 367 L 505 367 L 505 117 C 487 81 459 51 422 28 C 385 4 339 -7 283 -7 C 249 -7 216 1 186 18 C 155 34 128 58 106 90 C 83 121 65 160 52 206 C 38 252 32 305 32 365 C 32 421 37 473 49 519 C 61 565 77 604 99 636 C 121 668 147 692 179 710 C 210 727 245 736 284 736 C 344 736 389 722 420 696 C 451 670 474 638 489 602 L 401 545 C 390 571 376 594 359 612 C 341 630 318 639 290 639 C 244 639 208 617 182 573 C 155 529 142 458 142 360 C 142 261 156 190 184 146 C 212 102 245 81 284 81 C 314 81 339 85 360 95 C 380 104 396 120 406 143 L 406 276 L 276 276 L 276 367 Z M 284 -72 L 284 -72 Z M 372 -72 C 371 -94 367 -118 361 -143 C 355 -168 347 -192 338 -215 C 329 -238 319 -259 308 -278 C 296 -297 285 -312 275 -324 L 197 -289 C 204 -279 211 -267 219 -251 C 227 -235 234 -217 241 -198 C 247 -178 253 -158 258 -136 C 262 -114 265 -93 266 -72 L 372 -72 Z" unicode="Ģ" />
<glyph horiz-adv-x="422" d="M 21 0 L 21 0 Z M 177 14 C 131 14 94 37 65 85 C 35 132 21 197 21 279 C 21 364 36 430 67 478 C 97 525 134 549 178 549 C 208 549 233 540 253 522 C 272 504 286 484 295 462 L 295 544 L 384 544 L 384 10 C 384 -26 378 -57 367 -83 C 355 -109 340 -130 322 -147 C 303 -164 282 -177 258 -185 C 234 -193 209 -197 185 -197 C 149 -197 120 -193 97 -187 C 73 -180 56 -173 45 -165 L 76 -85 C 89 -90 103 -94 119 -98 C 135 -102 155 -104 179 -104 C 211 -104 237 -93 258 -71 C 278 -49 289 -18 289 23 L 289 108 C 281 83 268 61 249 42 C 230 23 206 14 177 14 Z M 209 99 C 234 99 254 112 269 140 C 284 168 292 215 292 283 C 292 347 283 392 265 418 C 247 444 228 457 207 457 C 182 457 162 442 148 414 C 133 385 126 341 126 281 C 126 221 132 175 146 145 C 159 114 180 99 209 99 Z" unicode="ģ" />
<glyph horiz-adv-x="534" d="M 56 0 L 56 0 Z M 478 0 L 368 0 L 368 316 L 166 316 L 166 0 L 56 0 L 56 730 L 166 730 L 166 406 L 368 406 L 368 730 L 478 730 L 478 0 Z M 262 792 L 262 792 Z M 403 792 L 317 792 L 262 888 L 206 792 L 122 792 L 220 964 L 305 964 L 403 792 Z" unicode="Ĥ" />
<glyph horiz-adv-x="407" d="M 38 0 L 38 0 Z M 369 0 L 269 0 L 269 401 C 269 421 263 437 253 447 C 242 457 227 463 209 463 C 189 463 173 457 159 445 C 145 433 139 411 139 380 L 139 0 L 38 0 L 38 800 L 133 800 L 133 481 C 139 500 151 516 169 529 C 187 542 212 549 244 549 C 282 549 312 539 335 520 C 357 501 369 470 369 426 L 369 0 Z M 209 862 L 209 862 Z M 350 862 L 264 862 L 209 958 L 153 862 L 69 862 L 167 1034 L 252 1034 L 350 862 Z" unicode="ĥ" />
<glyph horiz-adv-x="534" d="M 166 316 L 166 0 L 56 0 L 56 538 L 0 538 L 0 626 L 56 626 L 56 730 L 166 730 L 166 626 L 368 626 L 368 730 L 478 730 L 478 626 L 533 626 L 533 538 L 478 538 L 478 0 L 368 0 L 368 316 L 166 316 Z M 166 406 L 368 406 L 368 538 L 166 538 L 166 406 Z" unicode="Ħ" />
<glyph horiz-adv-x="407" d="M 139 380 L 139 0 L 38 0 L 38 618 L 9 618 L 9 706 L 38 706 L 38 800 L 133 800 L 133 706 L 218 706 L 218 618 L 133 618 L 133 481 C 139 500 151 516 169 529 C 187 542 212 549 244 549 C 282 549 312 539 335 520 C 357 501 369 470 369 426 L 369 0 L 269 0 L 269 401 C 269 421 263 437 253 447 C 242 457 227 463 209 463 C 189 463 173 457 159 445 C 145 433 139 411 139 380 Z" unicode="ħ" />
<glyph horiz-adv-x="230" d="M 0 0 L 0 0 Z M 171 0 L 60 0 L 60 730 L 171 730 L 171 0 Z M 114 798 L 114 798 Z M 195 938 L 270 938 C 270 890 263 854 249 832 C 235 809 218 798 197 798 C 178 798 162 801 148 808 C 134 814 123 820 115 826 C 106 831 97 836 89 842 C 80 847 72 850 65 850 C 57 850 50 845 44 835 C 38 825 35 814 35 802 L -41 802 C -41 849 -31 884 -12 907 C 6 930 26 942 46 942 C 61 942 74 938 86 932 C 97 926 108 919 120 912 C 128 906 135 901 143 897 C 150 893 158 891 166 891 C 172 891 179 895 185 903 C 191 911 195 922 195 938 Z" unicode="Ĩ" />
<glyph horiz-adv-x="181" d="M 0 0 L 0 0 Z M 141 0 L 40 0 L 40 544 L 141 544 L 141 0 Z M 89 612 L 89 612 Z M 170 752 L 245 752 C 245 704 238 668 224 646 C 210 623 193 612 172 612 C 153 612 137 615 123 622 C 109 628 98 634 90 640 C 81 645 72 650 64 656 C 55 661 47 664 40 664 C 32 664 25 659 19 649 C 13 639 10 628 10 616 L -66 616 C -66 663 -56 698 -37 721 C -18 744 1 756 21 756 C 36 756 49 752 61 746 C 72 740 83 733 95 726 C 103 720 110 715 118 711 C 125 707 133 705 141 705 C 147 705 154 709 160 717 C 166 725 170 736 170 752 Z" unicode="ĩ" />
<glyph horiz-adv-x="230" d="M 0 0 L 0 0 Z M 171 0 L 60 0 L 60 730 L 171 730 L 171 0 Z M 114 805 L 114 805 Z M 238 805 L -10 805 L -10 889 L 238 889 L 238 805 Z" unicode="Ī" />
<glyph horiz-adv-x="181" d="M 0 0 L 0 0 Z M 141 0 L 40 0 L 40 544 L 141 544 L 141 0 Z M 89 619 L 89 619 Z M 213 619 L -35 619 L -35 703 L 213 703 L 213 619 Z" unicode="ī" />
<glyph horiz-adv-x="230" d="M 0 0 L 0 0 Z M 171 0 L 60 0 L 60 730 L 171 730 L 171 0 Z M 114 796 L 114 796 Z M 167 954 L 251 954 C 247 899 232 859 208 834 C 183 808 152 796 114 796 C 76 796 44 808 20 834 C -4 859 -18 899 -22 954 L 62 954 C 63 931 67 912 75 898 C 82 883 95 876 114 876 C 132 876 145 883 153 897 C 161 911 165 930 167 954 Z" unicode="Ĭ" />
<glyph horiz-adv-x="181" d="M 0 0 L 0 0 Z M 141 0 L 40 0 L 40 544 L 141 544 L 141 0 Z M 89 610 L 89 610 Z M 142 768 L 226 768 C 222 713 207 673 183 648 C 158 622 127 610 89 610 C 51 610 19 622 -5 648 C -29 673 -43 713 -47 768 L 37 768 C 38 745 42 726 50 712 C 57 697 70 690 89 690 C 107 690 120 697 128 711 C 136 725 140 744 142 768 Z" unicode="ĭ" />
<glyph horiz-adv-x="230" d="M 0 0 L 0 0 Z M 171 0 L 60 0 L 60 730 L 171 730 L 171 0 Z M 64 -8 L 64 -8 Z M 157 -91 L 186 -134 C 165 -155 143 -171 120 -182 C 97 -193 71 -199 43 -199 C 10 -199 -14 -191 -32 -177 C -50 -162 -59 -143 -59 -121 C -59 -96 -48 -73 -26 -51 C -4 -29 28 -10 72 5 L 111 5 C 82 -8 61 -22 48 -36 C 35 -50 29 -65 29 -80 C 29 -92 33 -103 41 -111 C 49 -119 61 -123 76 -123 C 92 -123 107 -120 121 -114 C 134 -108 146 -100 157 -91 Z" unicode="Į" />
<glyph horiz-adv-x="181" d="M 0 0 L 0 0 Z M 38 620 L 38 712 L 143 712 L 143 620 L 38 620 Z M 40 0 L 40 544 L 141 544 L 141 0 L 40 0 Z M 32 -8 L 32 -8 Z M 125 -91 L 154 -134 C 133 -155 111 -171 88 -182 C 65 -193 39 -199 11 -199 C -21 -199 -46 -191 -64 -177 C -82 -162 -91 -143 -91 -121 C -91 -96 -80 -73 -58 -51 C -36 -29 -3 -10 40 5 L 79 5 C 50 -8 29 -22 16 -36 C 3 -50 -3 -65 -3 -80 C -3 -92 1 -103 9 -111 C 17 -119 29 -123 44 -123 C 60 -123 75 -120 89 -114 C 102 -108 114 -100 125 -91 Z" unicode="į" />
<glyph horiz-adv-x="230" d="M 60 0 L 60 0 Z M 171 0 L 60 0 L 60 730 L 171 730 L 171 0 Z M 114 796 L 114 796 Z M 161 796 L 68 796 L 68 918 L 161 918 L 161 796 Z" unicode="İ" />
<glyph horiz-adv-x="181" d="M 141 0 L 40 0 L 40 544 L 141 544 L 141 0 Z" unicode="ı" />
<glyph horiz-adv-x="492" d="M 60 0 L 60 0 Z M 171 0 L 60 0 L 60 730 L 171 730 L 171 0 Z M 453 730 L 453 182 C 453 126 437 81 407 45 C 376 9 333 -8 278 -8 C 264 -8 250 -6 234 -3 C 218 0 207 4 199 10 L 220 99 C 224 96 231 94 240 93 C 248 91 257 91 266 91 C 290 91 309 102 323 124 C 336 146 343 172 343 204 L 343 730 L 453 730 Z" unicode="Ĳ" />
<glyph horiz-adv-x="359" d="M 38 0 L 38 0 Z M 38 620 L 38 712 L 143 712 L 143 620 L 38 620 Z M 40 0 L 40 544 L 141 544 L 141 0 L 40 0 Z M 321 620 L 217 620 L 217 712 L 321 712 L 321 620 Z M 319 544 L 319 -60 C 319 -90 308 -115 287 -135 C 266 -155 239 -166 206 -166 C 186 -166 168 -162 153 -155 C 138 -148 129 -142 126 -137 L 159 -74 C 161 -75 165 -76 171 -78 C 177 -80 183 -81 190 -81 C 198 -81 205 -78 211 -72 C 216 -66 219 -58 219 -50 L 219 544 L 319 544 Z" unicode="ĳ" />
<glyph horiz-adv-x="289" d="M 0 0 L 0 0 Z M 236 730 L 236 182 C 236 126 220 81 190 45 C 159 9 116 -8 61 -8 C 47 -8 33 -6 17 -3 C 1 0 -10 4 -18 10 L 3 99 C 7 96 14 94 23 93 C 31 91 40 91 49 91 C 73 91 92 102 106 124 C 119 146 126 172 126 204 L 126 730 L 236 730 Z M 180 792 L 180 792 Z M 321 792 L 235 792 L 180 888 L 124 792 L 40 792 L 138 964 L 223 964 L 321 792 Z" unicode="Ĵ" />
<glyph horiz-adv-x="183" d="M 0 0 L 0 0 Z M 143 544 L 143 -60 C 143 -90 132 -116 110 -138 C 88 -159 61 -170 27 -170 C 7 -170 -10 -166 -25 -159 C -39 -151 -48 -145 -52 -141 L -20 -78 C -17 -79 -13 -80 -7 -82 C -1 -83 4 -84 12 -84 C 20 -84 28 -81 34 -75 C 40 -69 43 -60 43 -50 L 43 544 L 143 544 Z M 94 606 L 94 606 Z M 235 606 L 149 606 L 94 702 L 38 606 L -46 606 L 52 778 L 137 778 L 235 606 Z" unicode="ĵ" />
<glyph horiz-adv-x="500" d="M 56 0 L 56 0 Z M 510 0 L 389 0 L 197 304 L 167 266 L 167 0 L 56 0 L 56 730 L 167 730 L 167 415 L 377 730 L 489 730 L 262 401 L 510 0 Z M 257 -72 L 257 -72 Z M 345 -72 C 344 -94 340 -118 334 -143 C 328 -168 320 -192 311 -215 C 302 -238 292 -259 281 -278 C 269 -297 258 -312 248 -324 L 170 -289 C 177 -279 184 -267 192 -251 C 200 -235 207 -217 214 -198 C 220 -178 226 -158 231 -136 C 235 -114 238 -93 239 -72 L 345 -72 Z" unicode="Ķ" />
<glyph horiz-adv-x="379" d="M 38 0 L 38 0 Z M 388 0 L 282 0 L 179 216 L 139 150 L 139 0 L 38 0 L 38 800 L 133 800 L 133 274 L 274 544 L 378 544 L 243 301 L 388 0 Z M 190 -72 L 190 -72 Z M 278 -72 C 277 -94 273 -118 267 -143 C 261 -168 253 -192 244 -215 C 235 -238 225 -259 214 -278 C 202 -297 191 -312 181 -324 L 103 -289 C 110 -279 117 -267 125 -251 C 133 -235 140 -217 147 -198 C 153 -178 159 -158 164 -136 C 168 -114 171 -93 172 -72 L 278 -72 Z" unicode="ķ" />
<glyph horiz-adv-x="379" d="M 388 0 L 282 0 L 179 216 L 139 150 L 139 0 L 38 0 L 38 544 L 133 544 L 133 274 L 274 544 L 378 544 L 243 301 L 388 0 Z" unicode="ĸ" />
<glyph horiz-adv-x="360" d="M 56 0 L 56 0 Z M 353 0 L 56 0 L 56 730 L 166 730 L 166 96 L 353 96 L 353 0 Z M 254 791 L 254 791 Z M 153 791 L 239 964 L 355 964 L 250 791 L 153 791 Z" unicode="Ĺ" />
<glyph horiz-adv-x="207" d="M 37 0 L 37 0 Z M 37 110 L 37 800 L 138 800 L 138 129 C 138 114 141 103 147 97 C 153 90 163 87 176 87 C 180 87 184 87 188 88 C 192 88 195 89 198 90 L 213 8 C 206 4 197 1 187 -1 C 176 -3 163 -5 149 -5 C 117 -5 90 4 69 24 C 47 44 37 72 37 110 Z M 146 861 L 146 861 Z M 45 861 L 131 1034 L 247 1034 L 142 861 L 45 861 Z" unicode="ĺ" />
<glyph horiz-adv-x="360" d="M 56 0 L 56 0 Z M 353 0 L 56 0 L 56 730 L 166 730 L 166 96 L 353 96 L 353 0 Z M 199 -72 L 199 -72 Z M 287 -72 C 286 -94 282 -118 276 -143 C 270 -168 262 -192 253 -215 C 244 -238 234 -259 223 -278 C 211 -297 200 -312 190 -324 L 112 -289 C 119 -279 126 -267 134 -251 C 142 -235 149 -217 156 -198 C 162 -178 168 -158 173 -136 C 177 -114 180 -93 181 -72 L 287 -72 Z" unicode="Ļ" />
<glyph horiz-adv-x="207" d="M 20 0 L 20 0 Z M 37 110 L 37 800 L 138 800 L 138 129 C 138 114 141 103 147 97 C 153 90 163 87 176 87 C 180 87 184 87 188 88 C 192 88 195 89 198 90 L 213 8 C 206 4 197 1 187 -1 C 176 -3 163 -5 149 -5 C 117 -5 90 4 69 24 C 47 44 37 72 37 110 Z M 107 -72 L 107 -72 Z M 195 -72 C 194 -94 190 -118 184 -143 C 178 -168 170 -192 161 -215 C 152 -238 142 -259 131 -278 C 119 -297 108 -312 98 -324 L 20 -289 C 27 -279 34 -267 42 -251 C 50 -235 57 -217 64 -198 C 70 -178 76 -158 81 -136 C 85 -114 88 -93 89 -72 L 195 -72 Z" unicode="ļ" />
<glyph horiz-adv-x="360" d="M 56 0 L 56 0 Z M 353 0 L 56 0 L 56 730 L 166 730 L 166 96 L 353 96 L 353 0 Z M 381 621 L 377 480 L 291 480 L 286 621 L 286 730 L 381 730 L 381 621 Z" unicode="Ľ" />
<glyph horiz-adv-x="207" d="M 37 0 L 37 0 Z M 37 110 L 37 800 L 138 800 L 138 129 C 138 114 141 103 147 97 C 153 90 163 87 176 87 C 180 87 184 87 188 88 C 192 88 195 89 198 90 L 213 8 C 206 4 197 1 187 -1 C 176 -3 163 -5 149 -5 C 117 -5 90 4 69 24 C 47 44 37 72 37 110 Z M 258 621 L 254 480 L 168 480 L 163 621 L 163 730 L 258 730 L 258 621 Z" unicode="ľ" />
<glyph horiz-adv-x="360" d="M 56 0 L 56 0 Z M 353 0 L 56 0 L 56 730 L 166 730 L 166 96 L 353 96 L 353 0 Z M 270 301 L 270 301 Z M 317 301 L 224 301 L 224 423 L 317 423 L 317 301 Z" unicode="Ŀ" />
<glyph horiz-adv-x="207" d="M 37 0 L 37 0 Z M 37 110 L 37 800 L 138 800 L 138 129 C 138 114 141 103 147 97 C 153 90 163 87 176 87 C 180 87 184 87 188 88 C 192 88 195 89 198 90 L 213 8 C 206 4 197 1 187 -1 C 176 -3 163 -5 149 -5 C 117 -5 90 4 69 24 C 47 44 37 72 37 110 Z M 210 250 L 210 250 Z M 257 250 L 164 250 L 164 372 L 257 372 L 257 250 Z" unicode="ŀ" />
<glyph horiz-adv-x="360" d="M 353 90 L 353 0 L 56 0 L 56 253 L 20 237 L -18 320 L 56 352 L 56 730 L 166 730 L 166 400 L 292 455 L 329 373 L 166 301 L 166 90 L 353 90 Z" unicode="Ł" />
<glyph horiz-adv-x="207" d="M 223 8 C 217 4 208 1 198 -1 C 188 -3 176 -5 163 -5 C 132 -5 106 4 86 24 C 65 44 55 72 55 110 L 55 253 L 18 235 L -15 314 L 55 348 L 55 800 L 154 800 L 154 396 L 206 421 L 240 341 L 154 300 L 154 132 C 154 116 156 104 162 97 C 167 90 175 87 187 87 C 190 87 193 87 197 87 C 200 87 203 88 206 89 L 223 8 Z" unicode="ł" />
<glyph horiz-adv-x="533" d="M 56 0 L 56 0 Z M 477 0 L 399 0 L 159 470 L 159 0 L 56 0 L 56 730 L 133 730 L 377 254 L 377 730 L 477 730 L 477 0 Z M 267 791 L 267 791 Z M 166 791 L 252 964 L 368 964 L 263 791 L 166 791 Z" unicode="Ń" />
<glyph horiz-adv-x="407" d="M 38 0 L 38 0 Z M 369 0 L 269 0 L 269 400 C 269 420 263 436 253 447 C 242 457 227 463 209 463 C 189 463 173 457 159 445 C 145 433 139 411 139 380 L 139 0 L 38 0 L 38 544 L 123 544 L 123 472 C 131 494 146 513 167 527 C 187 541 214 549 247 549 C 283 549 313 539 335 521 C 357 503 369 473 369 433 L 369 0 Z M 205 605 L 205 605 Z M 104 605 L 190 778 L 306 778 L 201 605 L 104 605 Z" unicode="ń" />
<glyph horiz-adv-x="533" d="M 56 0 L 56 0 Z M 477 0 L 399 0 L 159 470 L 159 0 L 56 0 L 56 730 L 133 730 L 377 254 L 377 730 L 477 730 L 477 0 Z M 250 -72 L 250 -72 Z M 338 -72 C 337 -94 333 -118 327 -143 C 321 -168 313 -192 304 -215 C 295 -238 285 -259 274 -278 C 262 -297 251 -312 241 -324 L 163 -289 C 170 -279 177 -267 185 -251 C 193 -235 200 -217 207 -198 C 213 -178 219 -158 224 -136 C 228 -114 231 -93 232 -72 L 338 -72 Z" unicode="Ņ" />
<glyph horiz-adv-x="407" d="M 38 0 L 38 0 Z M 369 0 L 269 0 L 269 400 C 269 420 263 436 253 447 C 242 457 227 463 209 463 C 189 463 173 457 159 445 C 145 433 139 411 139 380 L 139 0 L 38 0 L 38 544 L 123 544 L 123 472 C 131 494 146 513 167 527 C 187 541 214 549 247 549 C 283 549 313 539 335 521 C 357 503 369 473 369 433 L 369 0 Z M 186 -72 L 186 -72 Z M 274 -72 C 273 -94 269 -118 263 -143 C 257 -168 249 -192 240 -215 C 231 -238 221 -259 210 -278 C 198 -297 187 -312 177 -324 L 99 -289 C 106 -279 113 -267 121 -251 C 129 -235 136 -217 143 -198 C 149 -178 155 -158 160 -136 C 164 -114 167 -93 168 -72 L 274 -72 Z" unicode="ņ" />
<glyph horiz-adv-x="533" d="M 56 0 L 56 0 Z M 477 0 L 399 0 L 159 470 L 159 0 L 56 0 L 56 730 L 133 730 L 377 254 L 377 730 L 477 730 L 477 0 Z M 267 792 L 267 792 Z M 127 964 L 213 964 L 268 868 L 324 964 L 408 964 L 310 792 L 225 792 L 127 964 Z" unicode="Ň" />
<glyph horiz-adv-x="407" d="M 38 0 L 38 0 Z M 369 0 L 269 0 L 269 400 C 269 420 263 436 253 447 C 242 457 227 463 209 463 C 189 463 173 457 159 445 C 145 433 139 411 139 380 L 139 0 L 38 0 L 38 544 L 123 544 L 123 472 C 131 494 146 513 167 527 C 187 541 214 549 247 549 C 283 549 313 539 335 521 C 357 503 369 473 369 433 L 369 0 Z M 205 606 L 205 606 Z M 65 778 L 151 778 L 206 682 L 262 778 L 346 778 L 248 606 L 163 606 L 65 778 Z" unicode="ň" />
<glyph horiz-adv-x="533" d="M 377 730 L 477 730 L 477 -6 C 477 -61 461 -106 431 -142 C 400 -178 357 -196 302 -196 C 288 -196 274 -194 258 -191 C 242 -188 231 -184 223 -178 L 244 -89 C 248 -91 255 -93 264 -95 C 272 -96 281 -97 290 -97 C 314 -97 335 -86 352 -64 C 368 -42 377 -15 377 16 L 377 43 L 159 470 L 159 0 L 56 0 L 56 730 L 133 730 L 377 254 L 377 730 Z" unicode="Ŋ" />
<glyph horiz-adv-x="407" d="M 247 549 C 283 549 313 539 335 521 C 357 503 369 473 369 433 L 369 -10 C 369 -64 355 -108 328 -143 C 300 -178 260 -196 206 -196 C 193 -196 179 -194 163 -191 C 147 -188 136 -184 129 -179 L 150 -90 C 154 -92 161 -94 169 -96 C 177 -97 185 -98 193 -98 C 217 -98 235 -87 249 -66 C 262 -44 269 -18 269 12 L 269 400 C 269 420 263 436 253 447 C 242 457 227 463 209 463 C 189 463 173 457 159 445 C 145 433 139 411 139 380 L 139 0 L 38 0 L 38 544 L 123 544 L 123 472 C 131 494 146 513 167 527 C 187 541 214 549 247 549 Z" unicode="ŋ" />
<glyph horiz-adv-x="570" d="M 32 0 L 32 0 Z M 287 -7 C 205 -7 142 25 98 90 C 54 155 32 249 32 371 C 32 485 54 575 99 640 C 143 704 204 737 282 737 C 364 737 428 705 472 641 C 516 577 538 485 538 365 C 538 249 515 158 469 92 C 423 26 362 -7 287 -7 Z M 285 81 C 329 81 363 104 388 151 C 412 197 425 271 425 372 C 425 466 412 535 387 581 C 361 626 327 649 283 649 C 237 649 203 626 180 581 C 157 536 146 464 146 365 C 146 264 158 191 183 147 C 208 103 242 81 285 81 Z M 284 805 L 284 805 Z M 408 805 L 160 805 L 160 889 L 408 889 L 408 805 Z" unicode="Ō" />
<glyph horiz-adv-x="407" d="M 20 0 L 20 0 Z M 204 -5 C 150 -5 106 18 72 64 C 37 110 20 179 20 271 C 20 357 36 424 69 474 C 102 524 145 549 198 549 C 255 549 301 526 335 481 C 369 436 387 371 387 286 C 387 196 370 125 338 73 C 305 21 260 -5 204 -5 Z M 205 83 C 230 83 249 97 263 127 C 276 156 283 206 283 276 C 283 345 276 393 262 420 C 248 446 227 460 201 460 C 177 460 158 446 144 419 C 130 391 124 344 124 276 C 124 202 131 151 146 124 C 160 96 180 83 205 83 Z M 204 619 L 204 619 Z M 328 619 L 80 619 L 80 703 L 328 703 L 328 619 Z" unicode="ō" />
<glyph horiz-adv-x="570" d="M 32 0 L 32 0 Z M 287 -7 C 205 -7 142 25 98 90 C 54 155 32 249 32 371 C 32 485 54 575 99 640 C 143 704 204 737 282 737 C 364 737 428 705 472 641 C 516 577 538 485 538 365 C 538 249 515 158 469 92 C 423 26 362 -7 287 -7 Z M 285 81 C 329 81 363 104 388 151 C 412 197 425 271 425 372 C 425 466 412 535 387 581 C 361 626 327 649 283 649 C 237 649 203 626 180 581 C 157 536 146 464 146 365 C 146 264 158 191 183 147 C 208 103 242 81 285 81 Z M 284 796 L 284 796 Z M 337 954 L 421 954 C 417 899 402 859 378 834 C 353 808 322 796 284 796 C 246 796 214 808 190 834 C 165 859 151 899 148 954 L 232 954 C 233 931 237 912 245 898 C 252 883 265 876 284 876 C 302 876 315 883 323 897 C 331 911 335 930 337 954 Z" unicode="Ŏ" />
<glyph horiz-adv-x="407" d="M 20 0 L 20 0 Z M 204 -5 C 150 -5 106 18 72 64 C 37 110 20 179 20 271 C 20 357 36 424 69 474 C 102 524 145 549 198 549 C 255 549 301 526 335 481 C 369 436 387 371 387 286 C 387 196 370 125 338 73 C 305 21 260 -5 204 -5 Z M 205 83 C 230 83 249 97 263 127 C 276 156 283 206 283 276 C 283 345 276 393 262 420 C 248 446 227 460 201 460 C 177 460 158 446 144 419 C 130 391 124 344 124 276 C 124 202 131 151 146 124 C 160 96 180 83 205 83 Z M 204 610 L 204 610 Z M 257 768 L 341 768 C 337 713 322 673 298 648 C 273 622 242 610 204 610 C 166 610 134 622 110 648 C 85 673 71 713 68 768 L 152 768 C 153 745 157 726 165 712 C 172 697 185 690 204 690 C 222 690 235 697 243 711 C 251 725 255 744 257 768 Z" unicode="ŏ" />
<glyph horiz-adv-x="570" d="M 32 0 L 32 0 Z M 287 -7 C 205 -7 142 25 98 90 C 54 155 32 249 32 371 C 32 485 54 575 99 640 C 143 704 204 737 282 737 C 364 737 428 705 472 641 C 516 577 538 485 538 365 C 538 249 515 158 469 92 C 423 26 362 -7 287 -7 Z M 285 81 C 329 81 363 104 388 151 C 412 197 425 271 425 372 C 425 466 412 535 387 581 C 361 626 327 649 283 649 C 237 649 203 626 180 581 C 157 536 146 464 146 365 C 146 264 158 191 183 147 C 208 103 242 81 285 81 Z M 284 791 L 284 791 Z M 111 791 L 175 953 L 282 953 L 200 791 L 111 791 Z M 286 791 L 352 953 L 459 953 L 375 791 L 286 791 Z" unicode="Ő" />
<glyph horiz-adv-x="407" d="M 20 0 L 20 0 Z M 204 -5 C 150 -5 106 18 72 64 C 37 110 20 179 20 271 C 20 357 36 424 69 474 C 102 524 145 549 198 549 C 255 549 301 526 335 481 C 369 436 387 371 387 286 C 387 196 370 125 338 73 C 305 21 260 -5 204 -5 Z M 205 83 C 230 83 249 97 263 127 C 276 156 283 206 283 276 C 283 345 276 393 262 420 C 248 446 227 460 201 460 C 177 460 158 446 144 419 C 130 391 124 344 124 276 C 124 202 131 151 146 124 C 160 96 180 83 205 83 Z M 204 605 L 204 605 Z M 31 605 L 95 767 L 202 767 L 120 605 L 31 605 Z M 206 605 L 272 767 L 379 767 L 295 605 L 206 605 Z" unicode="ő" />
<glyph horiz-adv-x="749" d="M 261 -7 C 190 -7 134 25 93 90 C 52 155 32 249 32 371 C 32 485 52 575 94 640 C 136 704 190 737 258 737 C 302 737 337 725 362 702 C 386 679 402 653 409 625 L 409 730 L 720 730 L 720 634 L 515 634 L 515 412 L 711 412 L 711 319 L 515 319 L 515 96 L 738 96 L 738 0 L 409 0 L 409 111 C 405 96 399 82 391 68 C 383 54 372 41 360 30 C 348 19 333 10 317 3 C 300 -3 281 -7 261 -7 Z M 277 74 C 319 74 351 98 375 146 C 398 194 410 269 410 372 C 410 468 398 540 374 586 C 350 632 317 656 275 656 C 231 656 199 633 177 587 C 155 541 144 467 144 365 C 144 262 155 188 179 142 C 203 96 235 74 277 74 Z" unicode="Œ" />
<glyph horiz-adv-x="651" d="M 204 -5 C 150 -5 106 18 72 64 C 37 110 20 179 20 271 C 20 357 36 424 69 474 C 102 524 145 549 198 549 C 236 549 267 537 291 513 C 315 489 330 461 334 427 C 337 459 351 488 375 512 C 399 536 428 548 463 548 C 518 548 560 522 590 470 C 619 418 634 344 634 247 L 379 247 C 379 201 387 162 403 131 C 419 99 443 84 476 84 C 499 84 519 90 537 102 C 554 114 568 126 578 140 L 624 84 C 610 64 590 44 564 24 C 538 4 507 -5 471 -5 C 428 -5 395 6 373 29 C 350 51 337 78 333 109 C 325 78 310 51 290 29 C 270 6 241 -5 204 -5 Z M 376 317 L 538 317 C 538 364 530 400 515 425 C 500 450 481 463 459 463 C 435 463 416 450 401 425 C 386 400 378 364 376 317 Z M 205 82 C 230 82 249 96 263 126 C 276 156 283 206 283 276 C 283 345 276 393 262 419 C 248 445 227 459 201 459 C 177 459 158 445 144 418 C 130 390 124 343 124 276 C 124 201 131 150 146 123 C 160 95 180 82 205 82 Z" unicode="œ" />
<glyph horiz-adv-x="466" d="M 56 0 L 56 0 Z M 56 0 L 56 730 L 223 730 C 277 730 322 713 358 680 C 394 646 412 595 412 527 C 412 473 400 428 378 392 C 355 356 326 336 292 331 L 291 325 L 466 0 L 354 0 L 197 302 L 157 302 L 157 0 L 56 0 Z M 157 392 L 208 392 C 238 392 262 403 282 425 C 301 447 311 478 311 516 C 311 559 300 590 280 610 C 260 630 236 640 210 640 L 157 640 L 157 392 Z M 219 791 L 219 791 Z M 118 791 L 204 964 L 320 964 L 215 791 L 118 791 Z" unicode="Ŕ" />
<glyph horiz-adv-x="302" d="M 38 0 L 38 0 Z M 307 518 L 273 434 C 263 443 253 449 245 452 C 237 455 227 457 216 457 C 200 457 183 450 165 437 C 147 423 139 395 139 352 L 139 0 L 38 0 L 38 544 L 136 544 L 136 471 C 142 491 154 509 170 525 C 186 541 206 549 229 549 C 247 549 262 545 276 539 C 289 532 299 525 307 518 Z M 181 605 L 181 605 Z M 80 605 L 166 778 L 282 778 L 177 605 L 80 605 Z" unicode="ŕ" />
<glyph horiz-adv-x="466" d="M 56 0 L 56 0 Z M 56 0 L 56 730 L 223 730 C 277 730 322 713 358 680 C 394 646 412 595 412 527 C 412 473 400 428 378 392 C 355 356 326 336 292 331 L 291 325 L 466 0 L 354 0 L 197 302 L 157 302 L 157 0 L 56 0 Z M 157 392 L 208 392 C 238 392 262 403 282 425 C 301 447 311 478 311 516 C 311 559 300 590 280 610 C 260 630 236 640 210 640 L 157 640 L 157 392 Z M 225 -72 L 225 -72 Z M 313 -72 C 312 -94 308 -118 302 -143 C 296 -168 288 -192 279 -215 C 270 -238 260 -259 249 -278 C 237 -297 226 -312 216 -324 L 138 -289 C 145 -279 152 -267 160 -251 C 168 -235 175 -217 182 -198 C 188 -178 194 -158 199 -136 C 203 -114 206 -93 207 -72 L 313 -72 Z" unicode="Ŗ" />
<glyph horiz-adv-x="302" d="M 38 0 L 38 0 Z M 307 518 L 273 434 C 263 443 253 449 245 452 C 237 455 227 457 216 457 C 200 457 183 450 165 437 C 147 423 139 395 139 352 L 139 0 L 38 0 L 38 544 L 136 544 L 136 471 C 142 491 154 509 170 525 C 186 541 206 549 229 549 C 247 549 262 545 276 539 C 289 532 299 525 307 518 Z M 161 -72 L 161 -72 Z M 249 -72 C 248 -94 244 -118 238 -143 C 232 -168 224 -192 215 -215 C 206 -238 196 -259 185 -278 C 173 -297 162 -312 152 -324 L 74 -289 C 81 -279 88 -267 96 -251 C 104 -235 111 -217 118 -198 C 124 -178 130 -158 135 -136 C 139 -114 142 -93 143 -72 L 249 -72 Z" unicode="ŗ" />
<glyph horiz-adv-x="466" d="M 56 0 L 56 0 Z M 56 0 L 56 730 L 223 730 C 277 730 322 713 358 680 C 394 646 412 595 412 527 C 412 473 400 428 378 392 C 355 356 326 336 292 331 L 291 325 L 466 0 L 354 0 L 197 302 L 157 302 L 157 0 L 56 0 Z M 157 392 L 208 392 C 238 392 262 403 282 425 C 301 447 311 478 311 516 C 311 559 300 590 280 610 C 260 630 236 640 210 640 L 157 640 L 157 392 Z M 219 792 L 219 792 Z M 79 964 L 165 964 L 220 868 L 276 964 L 360 964 L 262 792 L 177 792 L 79 964 Z" unicode="Ř" />
<glyph horiz-adv-x="302" d="M 38 0 L 38 0 Z M 307 518 L 273 434 C 263 443 253 449 245 452 C 237 455 227 457 216 457 C 200 457 183 450 165 437 C 147 423 139 395 139 352 L 139 0 L 38 0 L 38 544 L 136 544 L 136 471 C 142 491 154 509 170 525 C 186 541 206 549 229 549 C 247 549 262 545 276 539 C 289 532 299 525 307 518 Z M 181 606 L 181 606 Z M 41 778 L 127 778 L 182 682 L 238 778 L 322 778 L 224 606 L 139 606 L 41 778 Z" unicode="ř" />
<glyph horiz-adv-x="415" d="M 14 0 L 14 0 Z M 207 -7 C 167 -7 132 0 100 12 C 68 25 40 48 14 82 L 86 147 C 100 124 117 107 139 95 C 161 83 182 77 202 77 C 226 77 248 86 267 104 C 285 122 295 147 295 179 C 295 211 286 238 269 258 C 251 278 221 303 177 332 C 133 359 98 390 73 425 C 47 459 35 505 35 562 C 35 588 39 612 49 634 C 59 656 72 674 88 689 C 104 704 124 716 146 724 C 168 732 191 737 216 737 C 256 737 289 730 315 716 C 341 702 362 686 377 669 L 312 602 C 301 614 287 625 270 633 C 253 641 235 645 216 645 C 195 645 176 637 159 622 C 141 606 133 584 133 556 C 133 528 141 504 156 486 C 171 468 202 444 248 416 C 301 384 338 351 359 315 C 380 279 391 236 391 184 C 391 152 385 125 375 101 C 365 77 351 57 334 41 C 317 25 297 13 275 5 C 253 -3 230 -7 207 -7 Z M 210 791 L 210 791 Z M 109 791 L 195 964 L 311 964 L 206 791 L 109 791 Z" unicode="Ś" />
<glyph horiz-adv-x="316" d="M 12 0 L 12 0 Z M 164 -5 C 131 -5 101 1 74 15 C 46 28 26 46 12 69 L 65 139 C 75 120 88 106 102 97 C 116 87 132 83 149 83 C 164 83 178 88 191 99 C 203 109 210 125 210 146 C 210 168 202 185 187 198 C 171 210 151 225 127 242 C 99 260 75 282 57 307 C 39 332 30 367 30 411 C 30 449 42 481 67 508 C 91 535 123 549 163 549 C 190 549 214 544 236 536 C 257 527 275 516 289 504 L 251 419 C 242 427 230 436 216 445 C 202 454 187 459 173 459 C 157 459 143 454 131 446 C 119 438 114 426 114 410 C 114 392 120 377 133 367 C 145 357 166 342 194 323 C 228 298 253 272 270 246 C 287 219 296 184 296 140 C 296 114 291 92 283 74 C 275 55 264 40 251 28 C 238 16 224 8 208 3 C 192 -2 178 -5 164 -5 Z M 162 605 L 162 605 Z M 61 605 L 147 778 L 263 778 L 158 605 L 61 605 Z" unicode="ś" />
<glyph horiz-adv-x="415" d="M 14 0 L 14 0 Z M 207 -7 C 167 -7 132 0 100 12 C 68 25 40 48 14 82 L 86 147 C 100 124 117 107 139 95 C 161 83 182 77 202 77 C 226 77 248 86 267 104 C 285 122 295 147 295 179 C 295 211 286 238 269 258 C 251 278 221 303 177 332 C 133 359 98 390 73 425 C 47 459 35 505 35 562 C 35 588 39 612 49 634 C 59 656 72 674 88 689 C 104 704 124 716 146 724 C 168 732 191 737 216 737 C 256 737 289 730 315 716 C 341 702 362 686 377 669 L 312 602 C 301 614 287 625 270 633 C 253 641 235 645 216 645 C 195 645 176 637 159 622 C 141 606 133 584 133 556 C 133 528 141 504 156 486 C 171 468 202 444 248 416 C 301 384 338 351 359 315 C 380 279 391 236 391 184 C 391 152 385 125 375 101 C 365 77 351 57 334 41 C 317 25 297 13 275 5 C 253 -3 230 -7 207 -7 Z M 210 792 L 210 792 Z M 351 792 L 265 792 L 210 888 L 154 792 L 70 792 L 168 964 L 253 964 L 351 792 Z" unicode="Ŝ" />
<glyph horiz-adv-x="316" d="M 12 0 L 12 0 Z M 164 -5 C 131 -5 101 1 74 15 C 46 28 26 46 12 69 L 65 139 C 75 120 88 106 102 97 C 116 87 132 83 149 83 C 164 83 178 88 191 99 C 203 109 210 125 210 146 C 210 168 202 185 187 198 C 171 210 151 225 127 242 C 99 260 75 282 57 307 C 39 332 30 367 30 411 C 30 449 42 481 67 508 C 91 535 123 549 163 549 C 190 549 214 544 236 536 C 257 527 275 516 289 504 L 251 419 C 242 427 230 436 216 445 C 202 454 187 459 173 459 C 157 459 143 454 131 446 C 119 438 114 426 114 410 C 114 392 120 377 133 367 C 145 357 166 342 194 323 C 228 298 253 272 270 246 C 287 219 296 184 296 140 C 296 114 291 92 283 74 C 275 55 264 40 251 28 C 238 16 224 8 208 3 C 192 -2 178 -5 164 -5 Z M 162 606 L 162 606 Z M 303 606 L 217 606 L 162 702 L 106 606 L 22 606 L 120 778 L 205 778 L 303 606 Z" unicode="ŝ" />
<glyph horiz-adv-x="415" d="M 14 0 L 14 0 Z M 207 -7 C 167 -7 132 0 100 12 C 68 25 40 48 14 82 L 86 147 C 100 124 117 107 139 95 C 161 83 182 77 202 77 C 226 77 248 86 267 104 C 285 122 295 147 295 179 C 295 211 286 238 269 258 C 251 278 221 303 177 332 C 133 359 98 390 73 425 C 47 459 35 505 35 562 C 35 588 39 612 49 634 C 59 656 72 674 88 689 C 104 704 124 716 146 724 C 168 732 191 737 216 737 C 256 737 289 730 315 716 C 341 702 362 686 377 669 L 312 602 C 301 614 287 625 270 633 C 253 641 235 645 216 645 C 195 645 176 637 159 622 C 141 606 133 584 133 556 C 133 528 141 504 156 486 C 171 468 202 444 248 416 C 301 384 338 351 359 315 C 380 279 391 236 391 184 C 391 152 385 125 375 101 C 365 77 351 57 334 41 C 317 25 297 13 275 5 C 253 -3 230 -7 207 -7 Z M 189 0 L 189 0 Z M 193 -180 C 172 -180 152 -177 134 -171 C 115 -165 99 -157 87 -147 L 112 -108 C 119 -114 129 -119 141 -125 C 153 -131 166 -134 181 -134 C 191 -134 201 -131 209 -125 C 217 -119 221 -111 221 -103 C 221 -92 217 -84 209 -79 C 201 -73 193 -71 185 -71 C 178 -71 172 -71 167 -72 C 161 -73 156 -75 152 -77 L 141 -57 L 194 14 L 242 14 L 202 -41 C 226 -41 247 -45 265 -55 C 282 -64 291 -80 291 -104 C 291 -127 281 -145 262 -159 C 242 -173 219 -180 193 -180 Z" unicode="Ş" />
<glyph horiz-adv-x="316" d="M 12 0 L 12 0 Z M 164 -5 C 131 -5 101 1 74 15 C 46 28 26 46 12 69 L 65 139 C 75 120 88 106 102 97 C 116 87 132 83 149 83 C 164 83 178 88 191 99 C 203 109 210 125 210 146 C 210 168 202 185 187 198 C 171 210 151 225 127 242 C 99 260 75 282 57 307 C 39 332 30 367 30 411 C 30 449 42 481 67 508 C 91 535 123 549 163 549 C 190 549 214 544 236 536 C 257 527 275 516 289 504 L 251 419 C 242 427 230 436 216 445 C 202 454 187 459 173 459 C 157 459 143 454 131 446 C 119 438 114 426 114 410 C 114 392 120 377 133 367 C 145 357 166 342 194 323 C 228 298 253 272 270 246 C 287 219 296 184 296 140 C 296 114 291 92 283 74 C 275 55 264 40 251 28 C 238 16 224 8 208 3 C 192 -2 178 -5 164 -5 Z M 149 0 L 149 0 Z M 153 -180 C 132 -180 112 -177 94 -171 C 75 -165 59 -157 47 -147 L 72 -108 C 79 -114 89 -119 101 -125 C 113 -131 126 -134 141 -134 C 151 -134 161 -131 169 -125 C 177 -119 181 -111 181 -103 C 181 -92 177 -84 169 -79 C 161 -73 153 -71 145 -71 C 138 -71 132 -71 127 -72 C 121 -73 116 -75 112 -77 L 101 -57 L 154 14 L 202 14 L 162 -41 C 186 -41 207 -45 225 -55 C 242 -64 251 -80 251 -104 C 251 -127 241 -145 222 -159 C 202 -173 179 -180 153 -180 Z" unicode="ş" />
<glyph horiz-adv-x="415" d="M 14 0 L 14 0 Z M 207 -7 C 167 -7 132 0 100 12 C 68 25 40 48 14 82 L 86 147 C 100 124 117 107 139 95 C 161 83 182 77 202 77 C 226 77 248 86 267 104 C 285 122 295 147 295 179 C 295 211 286 238 269 258 C 251 278 221 303 177 332 C 133 359 98 390 73 425 C 47 459 35 505 35 562 C 35 588 39 612 49 634 C 59 656 72 674 88 689 C 104 704 124 716 146 724 C 168 732 191 737 216 737 C 256 737 289 730 315 716 C 341 702 362 686 377 669 L 312 602 C 301 614 287 625 270 633 C 253 641 235 645 216 645 C 195 645 176 637 159 622 C 141 606 133 584 133 556 C 133 528 141 504 156 486 C 171 468 202 444 248 416 C 301 384 338 351 359 315 C 380 279 391 236 391 184 C 391 152 385 125 375 101 C 365 77 351 57 334 41 C 317 25 297 13 275 5 C 253 -3 230 -7 207 -7 Z M 210 792 L 210 792 Z M 70 964 L 156 964 L 211 868 L 267 964 L 351 964 L 253 792 L 168 792 L 70 964 Z" unicode="Š" />
<glyph horiz-adv-x="316" d="M 12 0 L 12 0 Z M 164 -5 C 131 -5 101 1 74 15 C 46 28 26 46 12 69 L 65 139 C 75 120 88 106 102 97 C 116 87 132 83 149 83 C 164 83 178 88 191 99 C 203 109 210 125 210 146 C 210 168 202 185 187 198 C 171 210 151 225 127 242 C 99 260 75 282 57 307 C 39 332 30 367 30 411 C 30 449 42 481 67 508 C 91 535 123 549 163 549 C 190 549 214 544 236 536 C 257 527 275 516 289 504 L 251 419 C 242 427 230 436 216 445 C 202 454 187 459 173 459 C 157 459 143 454 131 446 C 119 438 114 426 114 410 C 114 392 120 377 133 367 C 145 357 166 342 194 323 C 228 298 253 272 270 246 C 287 219 296 184 296 140 C 296 114 291 92 283 74 C 275 55 264 40 251 28 C 238 16 224 8 208 3 C 192 -2 178 -5 164 -5 Z M 162 606 L 162 606 Z M 22 778 L 108 778 L 163 682 L 219 778 L 303 778 L 205 606 L 120 606 L 22 778 Z" unicode="š" />
<glyph horiz-adv-x="380" d="M 6 0 L 6 0 Z M 374 634 L 245 634 L 245 0 L 135 0 L 135 634 L 6 634 L 6 730 L 374 730 L 374 634 Z M 190 792 L 190 792 Z M 50 964 L 136 964 L 191 868 L 247 964 L 331 964 L 233 792 L 148 792 L 50 964 Z" unicode="Ť" />
<glyph horiz-adv-x="228" d="M 3 0 L 3 0 Z M 211 102 L 231 18 C 224 13 215 8 204 4 C 192 0 176 -3 154 -3 C 128 -3 104 7 82 29 C 60 51 50 81 50 119 L 50 455 L 3 455 L 3 544 L 53 544 L 53 649 L 148 662 L 148 544 L 217 544 L 217 455 L 150 455 L 150 130 C 150 118 153 109 159 103 C 165 97 173 94 183 94 C 188 94 193 94 199 96 C 204 98 208 100 211 102 Z M 341 621 L 337 480 L 251 480 L 246 621 L 246 730 L 341 730 L 341 621 Z" unicode="ť" />
<glyph horiz-adv-x="380" d="M 350 425 L 245 425 L 245 0 L 135 0 L 135 425 L 30 425 L 30 513 L 135 513 L 135 634 L 6 634 L 6 730 L 374 730 L 374 634 L 245 634 L 245 513 L 350 513 L 350 425 Z" unicode="Ŧ" />
<glyph horiz-adv-x="228" d="M 231 18 C 224 13 215 8 204 4 C 192 0 176 -3 154 -3 C 128 -3 104 7 82 29 C 60 51 50 81 50 119 L 50 290 L 10 290 L 10 378 L 50 378 L 50 455 L 3 455 L 3 544 L 53 544 L 53 649 L 148 662 L 148 544 L 217 544 L 217 455 L 150 455 L 150 378 L 197 378 L 197 290 L 150 290 L 150 130 C 150 118 153 109 159 103 C 165 97 173 94 183 94 C 188 94 193 94 199 96 C 204 98 208 100 211 102 L 231 18 Z" unicode="ŧ" />
<glyph horiz-adv-x="534" d="M 53 0 L 53 0 Z M 481 730 L 481 220 C 481 178 475 143 463 115 C 451 86 434 63 414 45 C 394 27 370 13 344 5 C 317 -2 289 -7 260 -7 C 232 -7 206 -3 181 5 C 155 13 133 25 115 43 C 96 61 81 84 70 113 C 58 142 53 178 53 220 L 53 730 L 162 730 L 162 217 C 162 169 171 136 190 117 C 209 97 234 88 264 88 C 293 88 317 97 337 115 C 357 133 367 167 367 217 L 367 730 L 481 730 Z M 264 798 L 264 798 Z M 345 938 L 420 938 C 420 890 413 854 399 832 C 385 809 368 798 347 798 C 328 798 312 801 298 808 C 284 814 273 820 265 826 C 256 831 247 836 239 842 C 230 847 222 850 215 850 C 207 850 200 845 194 835 C 188 825 185 814 185 802 L 109 802 C 109 849 118 884 137 907 C 156 930 176 942 196 942 C 211 942 224 938 236 932 C 247 926 258 919 270 912 C 278 906 285 901 293 897 C 300 893 308 891 316 891 C 322 891 329 895 335 903 C 341 911 345 922 345 938 Z" unicode="Ũ" />
<glyph horiz-adv-x="407" d="M 37 0 L 37 0 Z M 37 544 L 138 544 L 138 156 C 138 130 143 111 154 98 C 165 85 181 79 201 79 C 219 79 234 86 248 100 C 261 114 268 139 268 175 L 268 544 L 368 544 L 368 0 L 280 0 L 280 75 C 272 54 258 35 236 19 C 214 2 187 -6 156 -6 C 125 -6 97 5 73 28 C 49 51 37 84 37 126 L 37 544 Z M 202 612 L 202 612 Z M 283 752 L 358 752 C 358 704 351 668 337 646 C 323 623 306 612 285 612 C 266 612 250 615 236 622 C 222 628 211 634 203 640 C 194 645 185 650 177 656 C 168 661 160 664 153 664 C 145 664 138 659 132 649 C 126 639 123 628 123 616 L 47 616 C 47 663 56 698 75 721 C 94 744 114 756 134 756 C 149 756 162 752 174 746 C 185 740 196 733 208 726 C 216 720 223 715 231 711 C 238 707 246 705 254 705 C 260 705 267 709 273 717 C 279 725 283 736 283 752 Z" unicode="ũ" />
<glyph horiz-adv-x="534" d="M 53 0 L 53 0 Z M 481 730 L 481 220 C 481 178 475 143 463 115 C 451 86 434 63 414 45 C 394 27 370 13 344 5 C 317 -2 289 -7 260 -7 C 232 -7 206 -3 181 5 C 155 13 133 25 115 43 C 96 61 81 84 70 113 C 58 142 53 178 53 220 L 53 730 L 162 730 L 162 217 C 162 169 171 136 190 117 C 209 97 234 88 264 88 C 293 88 317 97 337 115 C 357 133 367 167 367 217 L 367 730 L 481 730 Z M 264 805 L 264 805 Z M 388 805 L 140 805 L 140 889 L 388 889 L 388 805 Z" unicode="Ū" />
<glyph horiz-adv-x="407" d="M 37 0 L 37 0 Z M 37 544 L 138 544 L 138 156 C 138 130 143 111 154 98 C 165 85 181 79 201 79 C 219 79 234 86 248 100 C 261 114 268 139 268 175 L 268 544 L 368 544 L 368 0 L 280 0 L 280 75 C 272 54 258 35 236 19 C 214 2 187 -6 156 -6 C 125 -6 97 5 73 28 C 49 51 37 84 37 126 L 37 544 Z M 202 619 L 202 619 Z M 326 619 L 78 619 L 78 703 L 326 703 L 326 619 Z" unicode="ū" />
<glyph horiz-adv-x="534" d="M 53 0 L 53 0 Z M 481 730 L 481 220 C 481 178 475 143 463 115 C 451 86 434 63 414 45 C 394 27 370 13 344 5 C 317 -2 289 -7 260 -7 C 232 -7 206 -3 181 5 C 155 13 133 25 115 43 C 96 61 81 84 70 113 C 58 142 53 178 53 220 L 53 730 L 162 730 L 162 217 C 162 169 171 136 190 117 C 209 97 234 88 264 88 C 293 88 317 97 337 115 C 357 133 367 167 367 217 L 367 730 L 481 730 Z M 264 796 L 264 796 Z M 317 954 L 401 954 C 397 899 382 859 358 834 C 333 808 302 796 264 796 C 226 796 194 808 170 834 C 145 859 131 899 128 954 L 212 954 C 213 931 217 912 225 898 C 232 883 245 876 264 876 C 282 876 295 883 303 897 C 311 911 315 930 317 954 Z" unicode="Ŭ" />
<glyph horiz-adv-x="407" d="M 37 0 L 37 0 Z M 37 544 L 138 544 L 138 156 C 138 130 143 111 154 98 C 165 85 181 79 201 79 C 219 79 234 86 248 100 C 261 114 268 139 268 175 L 268 544 L 368 544 L 368 0 L 280 0 L 280 75 C 272 54 258 35 236 19 C 214 2 187 -6 156 -6 C 125 -6 97 5 73 28 C 49 51 37 84 37 126 L 37 544 Z M 202 610 L 202 610 Z M 255 768 L 339 768 C 335 713 320 673 296 648 C 271 622 240 610 202 610 C 164 610 132 622 108 648 C 83 673 69 713 66 768 L 150 768 C 151 745 155 726 163 712 C 170 697 183 690 202 690 C 220 690 233 697 241 711 C 249 725 253 744 255 768 Z" unicode="ŭ" />
<glyph horiz-adv-x="534" d="M 53 0 L 53 0 Z M 481 730 L 481 220 C 481 178 475 143 463 115 C 451 86 434 63 414 45 C 394 27 370 13 344 5 C 317 -2 289 -7 260 -7 C 232 -7 206 -3 181 5 C 155 13 133 25 115 43 C 96 61 81 84 70 113 C 58 142 53 178 53 220 L 53 730 L 162 730 L 162 217 C 162 169 171 136 190 117 C 209 97 234 88 264 88 C 293 88 317 97 337 115 C 357 133 367 167 367 217 L 367 730 L 481 730 Z M 264 767 L 264 767 Z M 264 767 C 230 767 200 779 176 804 C 151 828 139 858 139 892 C 139 926 151 956 176 980 C 200 1004 230 1017 264 1017 C 298 1017 328 1004 353 980 C 377 956 390 926 390 892 C 390 858 377 828 353 804 C 328 779 298 767 264 767 Z M 265 828 C 283 828 298 834 310 847 C 322 859 328 874 328 892 C 328 910 322 925 310 938 C 298 950 283 957 265 957 C 247 957 232 950 220 938 C 207 925 201 910 201 892 C 201 874 207 859 220 847 C 232 834 247 828 265 828 Z" unicode="Ů" />
<glyph horiz-adv-x="407" d="M 37 0 L 37 0 Z M 37 544 L 138 544 L 138 156 C 138 130 143 111 154 98 C 165 85 181 79 201 79 C 219 79 234 86 248 100 C 261 114 268 139 268 175 L 268 544 L 368 544 L 368 0 L 280 0 L 280 75 C 272 54 258 35 236 19 C 214 2 187 -6 156 -6 C 125 -6 97 5 73 28 C 49 51 37 84 37 126 L 37 544 Z M 202 581 L 202 581 Z M 202 581 C 168 581 138 593 114 618 C 89 642 77 672 77 706 C 77 740 89 770 114 794 C 138 818 168 831 202 831 C 236 831 266 818 291 794 C 315 770 328 740 328 706 C 328 672 315 642 291 618 C 266 593 236 581 202 581 Z M 203 642 C 221 642 236 648 248 661 C 260 673 266 688 266 706 C 266 724 260 739 248 752 C 236 764 221 771 203 771 C 185 771 170 764 158 752 C 145 739 139 724 139 706 C 139 688 145 673 158 661 C 170 648 185 642 203 642 Z" unicode="ů" />
<glyph horiz-adv-x="534" d="M 53 0 L 53 0 Z M 481 730 L 481 220 C 481 178 475 143 463 115 C 451 86 434 63 414 45 C 394 27 370 13 344 5 C 317 -2 289 -7 260 -7 C 232 -7 206 -3 181 5 C 155 13 133 25 115 43 C 96 61 81 84 70 113 C 58 142 53 178 53 220 L 53 730 L 162 730 L 162 217 C 162 169 171 136 190 117 C 209 97 234 88 264 88 C 293 88 317 97 337 115 C 357 133 367 167 367 217 L 367 730 L 481 730 Z M 264 791 L 264 791 Z M 91 791 L 155 953 L 262 953 L 180 791 L 91 791 Z M 266 791 L 332 953 L 439 953 L 355 791 L 266 791 Z" unicode="Ű" />
<glyph horiz-adv-x="407" d="M 29 0 L 29 0 Z M 37 544 L 138 544 L 138 156 C 138 130 143 111 154 98 C 165 85 181 79 201 79 C 219 79 234 86 248 100 C 261 114 268 139 268 175 L 268 544 L 368 544 L 368 0 L 280 0 L 280 75 C 272 54 258 35 236 19 C 214 2 187 -6 156 -6 C 125 -6 97 5 73 28 C 49 51 37 84 37 126 L 37 544 Z M 202 605 L 202 605 Z M 29 605 L 93 767 L 200 767 L 118 605 L 29 605 Z M 204 605 L 270 767 L 377 767 L 293 605 L 204 605 Z" unicode="ű" />
<glyph horiz-adv-x="534" d="M 53 0 L 53 0 Z M 481 730 L 481 220 C 481 178 475 143 463 115 C 451 86 434 63 414 45 C 394 27 370 13 344 5 C 317 -2 289 -7 260 -7 C 232 -7 206 -3 181 5 C 155 13 133 25 115 43 C 96 61 81 84 70 113 C 58 142 53 178 53 220 L 53 730 L 162 730 L 162 217 C 162 169 171 136 190 117 C 209 97 234 88 264 88 C 293 88 317 97 337 115 C 357 133 367 167 367 217 L 367 730 L 481 730 Z M 294 -8 L 294 -8 Z M 387 -91 L 416 -134 C 395 -155 373 -171 350 -182 C 327 -193 301 -199 273 -199 C 240 -199 215 -191 197 -177 C 179 -162 171 -143 171 -121 C 171 -96 182 -73 204 -51 C 226 -29 258 -10 302 5 L 341 5 C 312 -8 291 -22 278 -36 C 265 -50 259 -65 259 -80 C 259 -92 263 -103 271 -111 C 279 -119 291 -123 306 -123 C 322 -123 337 -120 351 -114 C 364 -108 376 -100 387 -91 Z" unicode="Ų" />
<glyph horiz-adv-x="407" d="M 37 0 L 37 0 Z M 37 544 L 138 544 L 138 156 C 138 130 143 111 154 98 C 165 85 181 79 201 79 C 219 79 234 86 248 100 C 261 114 268 139 268 175 L 268 544 L 368 544 L 368 0 L 280 0 L 280 75 C 272 54 258 35 236 19 C 214 2 187 -6 156 -6 C 125 -6 97 5 73 28 C 49 51 37 84 37 126 L 37 544 Z M 271 -8 L 271 -8 Z M 364 -91 L 393 -134 C 372 -155 350 -171 327 -182 C 304 -193 278 -199 250 -199 C 217 -199 192 -191 174 -177 C 156 -162 148 -143 148 -121 C 148 -96 159 -73 181 -51 C 203 -29 235 -10 279 5 L 318 5 C 289 -8 268 -22 255 -36 C 242 -50 236 -65 236 -80 C 236 -92 240 -103 248 -111 C 256 -119 268 -123 283 -123 C 299 -123 314 -120 328 -114 C 341 -108 353 -100 364 -91 Z" unicode="ų" />
<glyph horiz-adv-x="693" d="M 3 0 L 3 0 Z M 673 730 L 524 -3 L 449 -3 L 337 530 L 226 -3 L 151 -3 L 3 730 L 106 730 L 203 201 L 303 730 L 383 730 L 484 203 L 580 730 L 673 730 Z M 345 792 L 345 792 Z M 486 792 L 400 792 L 345 888 L 289 792 L 205 792 L 303 964 L 388 964 L 486 792 Z" unicode="Ŵ" />
<glyph horiz-adv-x="549" d="M 0 0 L 0 0 Z M 352 -2 L 277 305 L 197 -2 L 120 -2 L -1 544 L 90 544 L 170 166 L 241 458 L 316 458 L 382 168 L 463 544 L 549 544 L 426 -2 L 352 -2 Z M 274 606 L 274 606 Z M 415 606 L 329 606 L 274 702 L 218 606 L 134 606 L 232 778 L 317 778 L 415 606 Z" unicode="ŵ" />
<glyph horiz-adv-x="464" d="M 0 0 L 0 0 Z M 469 730 L 285 313 L 285 0 L 175 0 L 175 315 L -4 730 L 123 730 L 237 426 L 364 730 L 469 730 Z M 237 792 L 237 792 Z M 378 792 L 292 792 L 237 888 L 181 792 L 97 792 L 195 964 L 280 964 L 378 792 Z" unicode="Ŷ" />
<glyph horiz-adv-x="347" d="M 0 0 L 0 0 Z M 352 544 L 185 -93 C 176 -125 161 -151 139 -171 C 117 -190 91 -200 63 -200 C 32 -200 8 -196 -9 -190 C -27 -184 -38 -178 -44 -172 L -3 -99 C 0 -101 7 -105 18 -109 C 29 -113 39 -115 49 -115 C 61 -115 73 -110 83 -100 C 93 -90 101 -75 106 -55 L 129 44 L -5 544 L 97 544 L 179 187 L 259 544 L 352 544 Z M 179 606 L 179 606 Z M 320 606 L 234 606 L 179 702 L 123 606 L 39 606 L 137 778 L 222 778 L 320 606 Z" unicode="ŷ" />
<glyph horiz-adv-x="464" d="M 0 0 L 0 0 Z M 469 730 L 285 313 L 285 0 L 175 0 L 175 315 L -4 730 L 123 730 L 237 426 L 364 730 L 469 730 Z M 237 792 L 237 792 Z M 354 792 L 273 792 L 273 951 L 354 951 L 354 792 Z M 201 792 L 120 792 L 120 951 L 201 951 L 201 792 Z" unicode="Ÿ" />
<glyph horiz-adv-x="421" d="M 14 0 L 14 0 Z M 396 730 L 396 674 L 147 93 L 407 93 L 407 0 L 14 0 L 14 54 L 262 635 L 42 635 L 42 730 L 396 730 Z M 222 791 L 222 791 Z M 121 791 L 207 964 L 323 964 L 218 791 L 121 791 Z" unicode="Ź" />
<glyph horiz-adv-x="327" d="M 10 0 L 10 0 Z M 312 544 L 312 502 L 133 87 L 317 87 L 317 0 L 10 0 L 10 34 L 192 455 L 22 455 L 22 544 L 312 544 Z M 176 605 L 176 605 Z M 75 605 L 161 778 L 277 778 L 172 605 L 75 605 Z" unicode="ź" />
<glyph horiz-adv-x="421" d="M 14 0 L 14 0 Z M 396 730 L 396 674 L 147 93 L 407 93 L 407 0 L 14 0 L 14 54 L 262 635 L 42 635 L 42 730 L 396 730 Z M 222 796 L 222 796 Z M 269 796 L 176 796 L 176 918 L 269 918 L 269 796 Z" unicode="Ż" />
<glyph horiz-adv-x="327" d="M 10 0 L 10 0 Z M 312 544 L 312 502 L 133 87 L 317 87 L 317 0 L 10 0 L 10 34 L 192 455 L 22 455 L 22 544 L 312 544 Z M 176 610 L 176 610 Z M 223 610 L 130 610 L 130 732 L 223 732 L 223 610 Z" unicode="ż" />
<glyph horiz-adv-x="421" d="M 14 0 L 14 0 Z M 396 730 L 396 674 L 147 93 L 407 93 L 407 0 L 14 0 L 14 54 L 262 635 L 42 635 L 42 730 L 396 730 Z M 222 792 L 222 792 Z M 82 964 L 168 964 L 223 868 L 279 964 L 363 964 L 265 792 L 180 792 L 82 964 Z" unicode="Ž" />
<glyph horiz-adv-x="327" d="M 10 0 L 10 0 Z M 312 544 L 312 502 L 133 87 L 317 87 L 317 0 L 10 0 L 10 34 L 192 455 L 22 455 L 22 544 L 312 544 Z M 176 606 L 176 606 Z M 36 778 L 122 778 L 177 682 L 233 778 L 317 778 L 219 606 L 134 606 L 36 778 Z" unicode="ž" />
<glyph horiz-adv-x="363" d="M 190 -57 C 187 -89 174 -117 151 -142 C 127 -166 98 -179 62 -179 C 43 -179 25 -177 8 -174 C -9 -171 -22 -168 -31 -164 L -21 -91 C -16 -91 -9 -93 0 -95 C 10 -97 19 -98 28 -98 C 47 -98 64 -91 79 -78 C 93 -64 102 -45 105 -21 L 135 314 L 40 314 L 40 411 L 143 411 L 162 625 C 164 644 169 661 177 676 C 185 690 194 702 206 712 C 217 722 229 729 243 734 C 257 739 270 742 284 742 C 298 742 311 741 325 740 C 339 739 347 738 350 738 L 342 649 C 340 649 336 650 330 651 C 324 651 318 652 312 652 C 293 652 278 645 266 633 C 254 620 247 600 245 574 L 231 411 L 334 411 L 334 314 L 222 314 L 190 -57 Z" unicode="ƒ" />
<glyph horiz-adv-x="415" d="M 14 0 L 14 0 Z M 207 -7 C 167 -7 132 0 100 12 C 68 25 40 48 14 82 L 86 147 C 100 124 117 107 139 95 C 161 83 182 77 202 77 C 226 77 248 86 267 104 C 285 122 295 147 295 179 C 295 211 286 238 269 258 C 251 278 221 303 177 332 C 133 359 98 390 73 425 C 47 459 35 505 35 562 C 35 588 39 612 49 634 C 59 656 72 674 88 689 C 104 704 124 716 146 724 C 168 732 191 737 216 737 C 256 737 289 730 315 716 C 341 702 362 686 377 669 L 312 602 C 301 614 287 625 270 633 C 253 641 235 645 216 645 C 195 645 176 637 159 622 C 141 606 133 584 133 556 C 133 528 141 504 156 486 C 171 468 202 444 248 416 C 301 384 338 351 359 315 C 380 279 391 236 391 184 C 391 152 385 125 375 101 C 365 77 351 57 334 41 C 317 25 297 13 275 5 C 253 -3 230 -7 207 -7 Z M 189 -72 L 189 -72 Z M 277 -72 C 276 -94 272 -118 266 -143 C 260 -168 252 -192 243 -215 C 234 -238 224 -259 213 -278 C 201 -297 190 -312 180 -324 L 102 -289 C 109 -279 116 -267 124 -251 C 132 -235 139 -217 146 -198 C 152 -178 158 -158 163 -136 C 167 -114 170 -93 171 -72 L 277 -72 Z" unicode="Ș" />
<glyph horiz-adv-x="316" d="M 12 0 L 12 0 Z M 164 -5 C 131 -5 101 1 74 15 C 46 28 26 46 12 69 L 65 139 C 75 120 88 106 102 97 C 116 87 132 83 149 83 C 164 83 178 88 191 99 C 203 109 210 125 210 146 C 210 168 202 185 187 198 C 171 210 151 225 127 242 C 99 260 75 282 57 307 C 39 332 30 367 30 411 C 30 449 42 481 67 508 C 91 535 123 549 163 549 C 190 549 214 544 236 536 C 257 527 275 516 289 504 L 251 419 C 242 427 230 436 216 445 C 202 454 187 459 173 459 C 157 459 143 454 131 446 C 119 438 114 426 114 410 C 114 392 120 377 133 367 C 145 357 166 342 194 323 C 228 298 253 272 270 246 C 287 219 296 184 296 140 C 296 114 291 92 283 74 C 275 55 264 40 251 28 C 238 16 224 8 208 3 C 192 -2 178 -5 164 -5 Z M 149 -72 L 149 -72 Z M 237 -72 C 236 -94 232 -118 226 -143 C 220 -168 212 -192 203 -215 C 194 -238 184 -259 173 -278 C 161 -297 150 -312 140 -324 L 62 -289 C 69 -279 76 -267 84 -251 C 92 -235 99 -217 106 -198 C 112 -178 118 -158 123 -136 C 127 -114 130 -93 131 -72 L 237 -72 Z" unicode="ș" />
<glyph horiz-adv-x="380" d="M 6 0 L 6 0 Z M 374 634 L 245 634 L 245 0 L 135 0 L 135 634 L 6 634 L 6 730 L 374 730 L 374 634 Z M 166 -72 L 166 -72 Z M 254 -72 C 253 -94 249 -118 243 -143 C 237 -168 229 -192 220 -215 C 211 -238 201 -259 190 -278 C 178 -297 167 -312 157 -324 L 79 -289 C 86 -279 93 -267 101 -251 C 109 -235 116 -217 123 -198 C 129 -178 135 -158 140 -136 C 144 -114 147 -93 148 -72 L 254 -72 Z" unicode="Ț" />
<glyph horiz-adv-x="228" d="M 3 0 L 3 0 Z M 211 102 L 231 18 C 224 13 215 8 204 4 C 192 0 176 -3 154 -3 C 128 -3 104 7 82 29 C 60 51 50 81 50 119 L 50 455 L 3 455 L 3 544 L 53 544 L 53 649 L 148 662 L 148 544 L 217 544 L 217 455 L 150 455 L 150 130 C 150 118 153 109 159 103 C 165 97 173 94 183 94 C 188 94 193 94 199 96 C 204 98 208 100 211 102 Z M 113 -72 L 113 -72 Z M 201 -72 C 200 -94 196 -118 190 -143 C 184 -168 176 -192 167 -215 C 158 -238 148 -259 137 -278 C 125 -297 114 -312 104 -324 L 26 -289 C 33 -279 40 -267 48 -251 C 56 -235 63 -217 70 -198 C 76 -178 82 -158 87 -136 C 91 -114 94 -93 95 -72 L 201 -72 Z" unicode="ț" />
<glyph horiz-adv-x="183" d="M 143 544 L 143 -60 C 143 -90 132 -116 110 -138 C 88 -159 61 -170 27 -170 C 7 -170 -10 -166 -25 -159 C -39 -151 -48 -145 -52 -141 L -20 -78 C -17 -79 -13 -80 -7 -82 C -1 -83 4 -84 12 -84 C 20 -84 28 -81 34 -75 C 40 -69 43 -60 43 -50 L 43 544 L 143 544 Z" unicode="ȷ" />
<glyph horiz-adv-x="500" d="M 391 606 L 305 606 L 250 702 L 194 606 L 110 606 L 208 778 L 293 778 L 391 606 Z" unicode="ˆ" />
<glyph horiz-adv-x="500" d="M 110 778 L 196 778 L 251 682 L 307 778 L 391 778 L 293 606 L 208 606 L 110 778 Z" unicode="ˇ" />
<glyph horiz-adv-x="500" d="M 303 768 L 387 768 C 383 713 368 673 344 648 C 319 622 288 610 250 610 C 212 610 180 622 156 648 C 131 673 117 713 114 768 L 198 768 C 199 745 203 726 211 712 C 218 697 231 690 250 690 C 268 690 281 697 289 711 C 297 725 301 744 303 768 Z" unicode="˘" />
<glyph horiz-adv-x="500" d="M 297 610 L 204 610 L 204 732 L 297 732 L 297 610 Z" unicode="˙" />
<glyph horiz-adv-x="500" d="M 250 581 C 216 581 186 593 162 618 C 137 642 125 672 125 706 C 125 740 137 770 162 794 C 186 818 216 831 250 831 C 284 831 314 818 339 794 C 363 770 376 740 376 706 C 376 672 363 642 339 618 C 314 593 284 581 250 581 Z M 251 642 C 269 642 284 648 296 661 C 308 673 314 688 314 706 C 314 724 308 739 296 752 C 284 764 269 771 251 771 C 233 771 218 764 206 752 C 193 739 187 724 187 706 C 187 688 193 673 206 661 C 218 648 233 642 251 642 Z" unicode="˚" />
<glyph horiz-adv-x="500" d="M 351 -83 L 380 -126 C 359 -147 337 -163 314 -174 C 291 -185 265 -191 237 -191 C 204 -191 179 -183 161 -169 C 143 -154 135 -135 135 -113 C 135 -88 146 -65 168 -43 C 190 -21 222 -2 266 13 L 305 13 C 276 0 255 -14 242 -28 C 229 -42 223 -57 223 -72 C 223 -84 227 -95 235 -103 C 243 -111 255 -115 270 -115 C 286 -115 301 -112 315 -106 C 328 -100 340 -92 351 -83 Z" unicode="˛" />
<glyph horiz-adv-x="500" d="M 335 752 L 410 752 C 410 704 403 668 389 646 C 375 623 358 612 337 612 C 318 612 302 615 288 622 C 274 628 263 634 255 640 C 246 645 237 650 229 656 C 220 661 212 664 205 664 C 197 664 190 659 184 649 C 178 639 175 628 175 616 L 99 616 C 99 663 108 698 127 721 C 146 744 166 756 186 756 C 201 756 214 752 226 746 C 237 740 248 733 260 726 C 268 720 275 715 283 711 C 290 707 298 705 306 705 C 312 705 319 709 325 717 C 331 725 335 736 335 752 Z" unicode="˜" />
<glyph horiz-adv-x="500" d="M 97 605 L 161 767 L 268 767 L 186 605 L 97 605 Z M 272 605 L 338 767 L 445 767 L 361 605 L 272 605 Z" unicode="˝" />
<glyph horiz-adv-x="0" d="M 0 605 L 0 605 Z M 100 605 L 3 605 L -102 778 L 14 778 L 100 605 Z" unicode="̀" />
<glyph horiz-adv-x="0" d="M 0 605 L 0 605 Z M -101 605 L -15 778 L 101 778 L -4 605 L -101 605 Z" unicode="́" />
<glyph horiz-adv-x="0" d="M 0 606 L 0 606 Z M 141 606 L 55 606 L 0 702 L -56 606 L -140 606 L -42 778 L 43 778 L 141 606 Z" unicode="̂" />
<glyph horiz-adv-x="0" d="M 0 612 L 0 612 Z M 81 752 L 156 752 C 156 704 149 668 135 646 C 121 623 104 612 83 612 C 64 612 48 615 34 622 C 20 628 9 634 1 640 C -7 645 -16 650 -25 656 C -33 661 -41 664 -49 664 C -57 664 -64 659 -70 649 C -76 639 -79 628 -79 616 L -155 616 C -155 663 -145 698 -126 721 C -107 744 -88 756 -68 756 C -52 756 -39 752 -28 746 C -16 740 -5 733 6 726 C 14 720 21 715 29 711 C 36 707 44 705 52 705 C 58 705 65 709 71 717 C 77 725 81 736 81 752 Z" unicode="̃" />
<glyph horiz-adv-x="0" d="M 0 619 L 0 619 Z M 124 619 L -124 619 L -124 703 L 124 703 L 124 619 Z" unicode="̄" />
<glyph horiz-adv-x="0" d="M 0 610 L 0 610 Z M 53 768 L 137 768 C 133 713 118 673 94 648 C 69 622 38 610 0 610 C -38 610 -69 622 -94 648 C -118 673 -132 713 -136 768 L -52 768 C -50 745 -46 726 -39 712 C -31 697 -18 690 0 690 C 18 690 31 697 39 711 C 47 725 51 744 53 768 Z" unicode="̆" />
<glyph horiz-adv-x="0" d="M 0 610 L 0 610 Z M 47 610 L -46 610 L -46 732 L 47 732 L 47 610 Z" unicode="̇" />
<glyph horiz-adv-x="0" d="M 0 606 L 0 606 Z M 117 606 L 36 606 L 36 765 L 117 765 L 117 606 Z M -36 606 L -117 606 L -117 765 L -36 765 L -36 606 Z" unicode="̈" />
<glyph horiz-adv-x="0" d="M 0 581 L 0 581 Z M 0 581 C -34 581 -63 593 -88 618 C -112 642 -125 672 -125 706 C -125 740 -112 770 -88 794 C -63 818 -34 831 0 831 C 34 831 64 818 89 794 C 113 770 126 740 126 706 C 126 672 113 642 89 618 C 64 593 34 581 0 581 Z M 1 642 C 19 642 34 648 46 661 C 58 673 64 688 64 706 C 64 724 58 739 46 752 C 34 764 19 771 1 771 C -16 771 -31 764 -44 752 C -56 739 -63 724 -63 706 C -63 688 -56 673 -44 661 C -31 648 -16 642 1 642 Z" unicode="̊" />
<glyph horiz-adv-x="0" d="M 0 605 L 0 605 Z M -173 605 L -109 767 L -2 767 L -84 605 L -173 605 Z M 2 605 L 68 767 L 175 767 L 91 605 L 2 605 Z" unicode="̋" />
<glyph horiz-adv-x="0" d="M 0 606 L 0 606 Z M -140 778 L -54 778 L 1 682 L 57 778 L 141 778 L 43 606 L -42 606 L -140 778 Z" unicode="̌" />
<glyph horiz-adv-x="0" d="M 0 -72 L 0 -72 Z M 88 -72 C 87 -94 83 -118 77 -143 C 71 -168 63 -192 54 -215 C 45 -238 35 -259 24 -278 C 12 -297 1 -312 -9 -324 L -87 -289 C -79 -279 -72 -267 -64 -251 C -56 -235 -49 -217 -43 -198 C -36 -178 -30 -158 -26 -136 C -21 -114 -18 -93 -18 -72 L 88 -72 Z" unicode="̦" />
<glyph horiz-adv-x="0" d="M 0 0 L 0 0 Z M 4 -180 C -16 -180 -36 -177 -55 -171 C -73 -165 -89 -157 -102 -147 L -77 -108 C -69 -114 -60 -119 -48 -125 C -36 -131 -22 -134 -8 -134 C 2 -134 12 -131 20 -125 C 28 -119 32 -111 32 -103 C 32 -92 28 -84 20 -79 C 12 -73 4 -71 -4 -71 C -10 -71 -16 -71 -22 -72 C -27 -73 -32 -75 -37 -77 L -48 -57 L 5 14 L 53 14 L 13 -41 C 37 -41 58 -45 76 -55 C 93 -64 102 -80 102 -104 C 102 -127 92 -145 73 -159 C 53 -173 30 -180 4 -180 Z" unicode="̧" />
<glyph horiz-adv-x="0" d="M 0 0 L 0 0 Z M 93 -83 L 122 -126 C 101 -147 79 -163 56 -174 C 33 -185 7 -191 -21 -191 C -53 -191 -78 -183 -96 -169 C -114 -154 -123 -135 -123 -113 C -123 -88 -112 -65 -90 -43 C -68 -21 -35 -2 8 13 L 47 13 C 18 0 -2 -14 -15 -28 C -28 -42 -35 -57 -35 -72 C -35 -84 -30 -95 -22 -103 C -14 -111 -2 -115 12 -115 C 28 -115 43 -112 57 -106 C 70 -100 82 -92 93 -83 Z" unicode="̨" />
<glyph horiz-adv-x="563" d="M 0 0 L 0 0 Z M 559 0 L 0 0 L 265 730 L 295 730 L 559 0 Z M 430 77 L 277 545 L 126 77 L 430 77 Z" unicode="Δ" />
<glyph horiz-adv-x="724" d="M 24 0 L 24 0 Z M 33 0 L 33 94 L 238 94 L 238 157 C 206 165 176 179 150 197 C 124 215 101 237 83 263 C 64 289 49 317 39 349 C 29 380 24 412 24 446 C 24 488 31 527 46 564 C 61 600 83 632 111 659 C 139 686 174 707 216 723 C 257 739 304 747 356 747 C 410 747 458 739 501 723 C 543 707 579 685 608 658 C 637 631 659 599 674 563 C 689 526 697 487 697 446 C 697 412 692 379 683 348 C 674 317 661 289 643 264 C 625 239 603 217 576 199 C 548 180 517 166 481 157 L 481 94 L 687 94 L 687 0 L 407 0 L 407 212 C 436 219 462 230 484 246 C 506 262 525 280 540 300 C 554 320 565 343 573 367 C 581 391 585 416 585 441 C 585 505 563 557 521 599 C 479 640 424 661 357 661 C 291 661 237 640 196 598 C 155 556 135 503 135 439 C 135 415 138 391 146 367 C 153 343 164 322 179 302 C 193 282 212 264 234 248 C 256 232 283 220 313 212 L 313 0 L 33 0 Z" unicode="Ω" />
<glyph horiz-adv-x="588" d="M 66 0 L 66 0 Z M 66 -103 L 66 544 L 167 544 L 167 170 C 167 142 179 119 203 101 C 227 82 253 73 283 73 C 299 73 315 75 331 80 C 347 84 361 91 373 100 C 385 109 396 121 404 135 C 412 149 416 165 416 183 L 416 544 L 516 544 L 516 0 L 424 0 L 424 95 C 415 70 395 47 363 26 C 331 4 298 -6 264 -6 C 242 -6 220 -1 200 8 C 179 18 165 31 159 48 L 159 -103 L 66 -103 Z" unicode="μ" />
<glyph horiz-adv-x="536" d="M 181 466 L 181 0 L 81 0 L 81 466 L 15 466 L 15 544 L 521 544 L 521 466 L 451 466 L 451 0 L 350 0 L 350 466 L 181 466 Z" unicode="π" />
<glyph horiz-adv-x="693" d="M 3 0 L 3 0 Z M 673 730 L 524 -3 L 449 -3 L 337 530 L 226 -3 L 151 -3 L 3 730 L 106 730 L 203 201 L 303 730 L 383 730 L 484 203 L 580 730 L 673 730 Z M 345 791 L 345 791 Z M 445 791 L 348 791 L 243 964 L 359 964 L 445 791 Z" unicode="Ẁ" />
<glyph horiz-adv-x="549" d="M 0 0 L 0 0 Z M 352 -2 L 277 305 L 197 -2 L 120 -2 L -1 544 L 90 544 L 170 166 L 241 458 L 316 458 L 382 168 L 463 544 L 549 544 L 426 -2 L 352 -2 Z M 274 605 L 274 605 Z M 374 605 L 277 605 L 172 778 L 288 778 L 374 605 Z" unicode="ẁ" />
<glyph horiz-adv-x="693" d="M 3 0 L 3 0 Z M 673 730 L 524 -3 L 449 -3 L 337 530 L 226 -3 L 151 -3 L 3 730 L 106 730 L 203 201 L 303 730 L 383 730 L 484 203 L 580 730 L 673 730 Z M 345 791 L 345 791 Z M 244 791 L 330 964 L 446 964 L 341 791 L 244 791 Z" unicode="Ẃ" />
<glyph horiz-adv-x="549" d="M 0 0 L 0 0 Z M 352 -2 L 277 305 L 197 -2 L 120 -2 L -1 544 L 90 544 L 170 166 L 241 458 L 316 458 L 382 168 L 463 544 L 549 544 L 426 -2 L 352 -2 Z M 274 605 L 274 605 Z M 173 605 L 259 778 L 375 778 L 270 605 L 173 605 Z" unicode="ẃ" />
<glyph horiz-adv-x="693" d="M 3 0 L 3 0 Z M 673 730 L 524 -3 L 449 -3 L 337 530 L 226 -3 L 151 -3 L 3 730 L 106 730 L 203 201 L 303 730 L 383 730 L 484 203 L 580 730 L 673 730 Z M 345 792 L 345 792 Z M 462 792 L 381 792 L 381 951 L 462 951 L 462 792 Z M 309 792 L 228 792 L 228 951 L 309 951 L 309 792 Z" unicode="Ẅ" />
<glyph horiz-adv-x="549" d="M 0 0 L 0 0 Z M 352 -2 L 277 305 L 197 -2 L 120 -2 L -1 544 L 90 544 L 170 166 L 241 458 L 316 458 L 382 168 L 463 544 L 549 544 L 426 -2 L 352 -2 Z M 274 606 L 274 606 Z M 391 606 L 310 606 L 310 765 L 391 765 L 391 606 Z M 238 606 L 157 606 L 157 765 L 238 765 L 238 606 Z" unicode="ẅ" />
<glyph horiz-adv-x="464" d="M 0 0 L 0 0 Z M 469 730 L 285 313 L 285 0 L 175 0 L 175 315 L -4 730 L 123 730 L 237 426 L 364 730 L 469 730 Z M 237 791 L 237 791 Z M 337 791 L 240 791 L 135 964 L 251 964 L 337 791 Z" unicode="Ỳ" />
<glyph horiz-adv-x="347" d="M 0 0 L 0 0 Z M 352 544 L 185 -93 C 176 -125 161 -151 139 -171 C 117 -190 91 -200 63 -200 C 32 -200 8 -196 -9 -190 C -27 -184 -38 -178 -44 -172 L -3 -99 C 0 -101 7 -105 18 -109 C 29 -113 39 -115 49 -115 C 61 -115 73 -110 83 -100 C 93 -90 101 -75 106 -55 L 129 44 L -5 544 L 97 544 L 179 187 L 259 544 L 352 544 Z M 179 605 L 179 605 Z M 279 605 L 182 605 L 77 778 L 193 778 L 279 605 Z" unicode="ỳ" />
<glyph horiz-adv-x="460" d="M 421 225 L 40 225 L 40 313 L 421 313 L 421 225 Z" unicode="–" />
<glyph horiz-adv-x="645" d="M 606 225 L 40 225 L 40 313 L 606 313 L 606 225 Z" unicode="—" />
<glyph horiz-adv-x="238" d="M 39 507 L 39 514 C 39 557 45 596 58 632 C 71 668 92 703 121 737 L 216 731 C 197 707 180 678 164 643 C 148 607 141 565 141 515 L 141 507 L 39 507 Z" unicode="‘" />
<glyph horiz-adv-x="238" d="M 198 737 L 198 730 C 198 687 191 648 179 612 C 166 576 145 541 117 507 L 21 513 C 40 537 57 566 73 602 C 89 637 97 679 97 729 L 97 737 L 198 737 Z" unicode="’" />
<glyph horiz-adv-x="239" d="M 197 113 L 197 106 C 197 64 190 24 178 -11 C 165 -47 144 -83 116 -117 L 20 -111 C 39 -87 56 -58 72 -22 C 88 13 96 55 96 105 L 96 113 L 197 113 Z" unicode="‚" />
<glyph horiz-adv-x="391" d="M 205 507 L 205 514 C 205 556 211 595 224 631 C 237 667 258 703 288 737 L 383 731 C 364 708 347 679 331 643 C 315 607 307 565 307 515 L 307 507 L 205 507 Z M 40 507 L 40 514 C 40 556 46 595 59 631 C 71 667 92 703 122 737 L 218 731 C 199 708 181 679 165 643 C 149 607 141 565 141 515 L 141 507 L 40 507 Z" unicode="“" />
<glyph horiz-adv-x="391" d="M 198 737 L 198 730 C 198 687 191 648 179 612 C 166 576 145 541 117 507 L 21 513 C 40 537 57 566 73 602 C 89 637 97 679 97 729 L 97 737 L 198 737 Z M 351 737 L 351 730 C 351 687 344 648 331 612 C 318 576 297 541 269 507 L 174 513 C 192 537 209 566 225 602 C 241 637 249 679 249 729 L 249 737 L 351 737 Z" unicode="”" />
<glyph horiz-adv-x="394" d="M 197 113 L 197 106 C 197 64 190 24 178 -11 C 165 -47 144 -83 116 -117 L 20 -111 C 39 -87 56 -58 72 -22 C 88 13 96 55 96 105 L 96 113 L 197 113 Z M 353 113 L 353 106 C 353 64 346 24 334 -11 C 321 -47 300 -83 272 -117 L 176 -111 C 194 -87 211 -58 227 -22 C 243 13 251 55 251 105 L 251 113 L 353 113 Z" unicode="„" />
<glyph horiz-adv-x="417" d="M 400 374 L 259 374 L 259 -179 L 153 -179 L 153 374 L 18 374 L 18 475 L 153 475 L 153 730 L 259 730 L 259 475 L 400 475 L 400 374 Z" unicode="†" />
<glyph horiz-adv-x="426" d="M 158 -179 L 158 104 L 28 104 L 28 205 L 158 205 L 158 378 L 28 378 L 28 479 L 158 479 L 158 730 L 264 730 L 264 479 L 400 479 L 400 378 L 264 378 L 264 205 L 400 205 L 400 104 L 264 104 L 264 -179 L 158 -179 Z" unicode="‡" />
<glyph horiz-adv-x="382" d="M 191 473 C 217 473 240 464 258 446 C 276 428 285 405 285 379 C 285 353 276 331 258 313 C 240 295 217 286 191 286 C 164 286 142 295 124 313 C 106 331 98 353 98 379 C 98 405 106 428 124 446 C 142 464 164 473 191 473 Z" unicode="•" />
<glyph horiz-adv-x="643" d="M 56 0 L 56 130 L 159 130 L 159 0 L 56 0 Z M 270 0 L 270 130 L 373 130 L 373 0 L 270 0 Z M 484 0 L 484 130 L 587 130 L 587 0 L 484 0 Z" unicode="…" />
<glyph horiz-adv-x="989" d="M 169 363 C 152 363 136 366 120 374 C 104 382 89 393 77 409 C 64 425 54 444 46 468 C 38 492 34 519 34 551 C 34 604 46 649 72 685 C 97 721 129 740 167 740 C 187 740 206 735 224 725 C 241 715 256 701 268 685 C 280 668 290 648 297 626 C 303 603 307 579 307 554 C 307 527 303 502 296 479 C 288 455 278 435 266 418 C 254 400 239 387 223 377 C 206 367 188 363 169 363 Z M 84 0 L 498 730 L 576 730 L 165 0 L 84 0 Z M 110 551 C 110 523 113 498 121 475 C 129 451 145 440 169 440 C 193 440 210 451 218 474 C 226 497 230 523 230 551 C 230 564 229 577 227 591 C 225 604 221 616 217 627 C 213 637 207 646 199 653 C 191 659 182 663 171 663 C 147 663 130 651 122 628 C 114 605 110 579 110 551 Z M 508 -3 C 491 -3 474 0 458 8 C 441 16 426 27 413 43 C 400 59 390 78 382 102 C 374 126 370 153 370 185 C 370 238 383 283 409 319 C 435 355 468 374 510 374 C 531 374 550 369 567 359 C 584 349 598 335 610 319 C 622 302 631 282 637 260 C 643 237 647 213 647 188 C 647 161 643 136 637 113 C 630 89 620 69 608 52 C 596 34 581 21 564 11 C 547 1 528 -3 508 -3 Z M 816 -3 C 799 -3 782 0 766 8 C 749 16 734 27 721 43 C 708 59 698 78 690 102 C 682 126 678 153 678 185 C 678 238 691 283 717 319 C 743 355 776 374 818 374 C 839 374 858 369 875 359 C 892 349 906 335 918 319 C 930 302 939 282 945 260 C 951 237 955 213 955 188 C 955 161 951 136 945 113 C 938 89 928 69 916 52 C 904 34 889 21 872 11 C 855 1 836 -3 816 -3 Z M 507 75 C 531 75 548 86 557 108 C 566 130 571 156 571 185 C 571 213 566 239 557 262 C 547 285 531 297 509 297 C 487 297 471 285 461 262 C 451 239 446 213 446 185 C 446 156 450 130 459 108 C 468 86 484 75 507 75 Z M 815 75 C 839 75 856 86 865 108 C 874 130 879 156 879 185 C 879 213 874 239 865 262 C 855 285 839 297 817 297 C 795 297 780 285 770 262 C 760 239 755 213 755 185 C 755 156 759 130 768 108 C 776 86 792 75 815 75 Z" unicode="‰" />
<glyph horiz-adv-x="242" d="M 213 110 L 27 279 L 27 337 L 213 504 L 213 405 L 115 305 L 213 212 L 213 110 Z" unicode="‹" />
<glyph horiz-adv-x="243" d="M 29 505 L 216 336 L 216 279 L 29 112 L 29 210 L 127 309 L 29 403 L 29 505 Z" unicode="›" />
<glyph horiz-adv-x="145" d="M 304 730 L -62 0 L -145 0 L 221 730 L 304 730 Z" unicode="⁄" />
<glyph horiz-adv-x="328" d="M 14 453 L 14 514 L 198 737 L 256 737 L 256 518 L 316 518 L 316 453 L 256 453 L 256 373 L 173 373 L 173 453 L 14 453 Z M 99 515 L 175 515 L 175 611 L 99 515 Z" unicode="⁴" />
<glyph horiz-adv-x="474" d="M 456 115 C 440 77 416 47 384 23 C 352 0 317 -12 279 -12 C 226 -12 181 11 145 57 C 108 103 84 171 74 260 L 25 260 L 25 332 L 68 332 C 68 336 68 341 68 346 C 68 351 68 356 68 361 C 68 367 68 373 68 379 C 68 385 68 390 69 396 L 25 396 L 25 468 L 73 468 C 83 555 105 622 140 670 C 174 718 220 742 278 742 C 326 742 363 730 391 706 C 418 682 438 655 451 625 L 380 583 C 370 605 357 622 343 633 C 329 643 308 649 282 649 C 254 649 231 633 211 603 C 191 573 178 528 170 468 L 425 468 L 425 396 L 165 396 C 164 390 164 383 164 377 C 164 370 164 363 164 357 C 164 352 164 348 164 344 C 164 340 164 336 164 332 L 425 332 L 425 260 L 169 260 C 177 195 191 148 213 120 C 235 92 259 78 286 78 C 311 78 332 86 348 102 C 364 118 378 138 388 163 L 456 115 Z" unicode="€" />
<glyph horiz-adv-x="809" d="M 761 334 L 677 334 L 677 581 L 560 390 L 540 390 L 425 581 L 425 334 L 343 334 L 343 730 L 428 730 L 553 516 L 689 730 L 761 730 L 761 334 Z M 314 634 L 223 634 L 223 334 L 118 334 L 118 634 L 21 634 L 21 730 L 314 730 L 314 634 Z" unicode="™" />
<glyph horiz-adv-x="720" d="M 33 0 L 33 94 L 238 94 L 238 157 C 206 165 176 179 150 197 C 124 215 101 237 83 263 C 64 289 49 317 39 349 C 29 380 24 412 24 446 C 24 488 31 527 46 564 C 61 600 83 632 111 659 C 139 686 174 707 216 723 C 257 739 304 747 356 747 C 410 747 458 739 501 723 C 543 707 579 685 608 658 C 637 631 659 599 674 563 C 689 526 697 487 697 446 C 697 412 692 379 683 348 C 674 317 661 289 643 264 C 625 239 603 217 576 199 C 548 180 517 166 481 157 L 481 94 L 687 94 L 687 0 L 407 0 L 407 212 C 436 219 462 230 484 246 C 506 262 525 280 540 300 C 554 320 565 343 573 367 C 581 391 585 416 585 441 C 585 505 563 557 521 599 C 479 640 424 661 357 661 C 291 661 237 640 196 598 C 155 556 135 503 135 439 C 135 415 138 391 146 367 C 153 343 164 322 179 302 C 193 282 212 264 234 248 C 256 232 283 220 313 212 L 313 0 L 33 0 Z" unicode="Ω" />
<glyph horiz-adv-x="464" d="M 424 280 C 424 228 418 184 408 148 C 398 111 384 81 366 58 C 348 35 327 18 303 8 C 279 -2 253 -8 227 -8 C 201 -8 177 -3 153 6 C 129 16 107 30 89 48 C 71 66 56 90 45 118 C 33 146 28 179 28 216 C 28 250 32 282 42 310 C 52 338 65 363 82 383 C 98 403 118 418 140 429 C 162 440 186 446 211 446 C 241 446 266 440 285 429 C 303 418 319 402 331 380 C 324 438 312 489 296 532 C 279 574 260 609 239 637 C 218 665 196 685 172 699 C 148 713 127 720 107 722 L 155 802 C 176 802 202 792 233 772 C 264 752 294 722 322 680 C 350 638 374 584 394 518 C 414 452 424 372 424 280 Z M 225 77 C 255 77 279 89 295 115 C 311 140 319 176 319 223 C 319 266 311 299 295 323 C 279 347 256 359 225 359 C 196 359 173 347 157 323 C 141 299 133 264 133 218 C 133 170 140 134 156 111 C 172 88 195 77 225 77 Z" unicode="∂" />
<glyph horiz-adv-x="559" d="M 559 0 L 0 0 L 265 730 L 295 730 L 559 0 Z M 430 77 L 277 545 L 126 77 L 430 77 Z" unicode="∆" />
<glyph horiz-adv-x="648" d="M 221 639 L 221 0 L 116 0 L 116 639 L 15 639 L 15 730 L 633 730 L 633 639 L 537 639 L 537 0 L 432 0 L 432 639 L 221 639 Z" unicode="∏" />
<glyph horiz-adv-x="539" d="M 183 639 L 391 307 L 150 -88 L 508 -88 L 508 -179 L -18 -179 L 289 306 L 12 730 L 487 730 L 487 639 L 183 639 Z" unicode="∑" />
<glyph horiz-adv-x="468" d="M 428 290 L 40 290 L 40 374 L 428 374 L 428 290 Z" unicode="−" />
<glyph horiz-adv-x="510" d="M 504 730 L 198 0 L 186 0 L 12 330 L 84 385 L 204 143 L 440 730 L 504 730 Z" unicode="√" />
<glyph horiz-adv-x="342" d="M 105 -21 L 162 625 C 164 644 169 661 177 676 C 185 690 194 702 206 712 C 217 722 229 729 243 734 C 257 739 270 742 284 742 C 298 742 311 741 325 740 C 339 739 347 738 350 738 L 342 649 C 340 649 336 650 330 651 C 324 651 318 652 312 652 C 293 652 278 645 266 633 C 254 620 247 600 245 574 L 190 -57 C 187 -89 174 -117 151 -142 C 127 -167 98 -179 62 -179 C 42 -179 24 -177 7 -173 C -9 -169 -22 -164 -31 -160 L -20 -89 C -16 -89 -9 -91 0 -94 C 10 -96 19 -98 28 -98 C 47 -98 64 -91 79 -78 C 93 -64 102 -45 105 -21 Z" unicode="∫" />
<glyph horiz-adv-x="468" d="M 368 502 L 443 502 C 441 454 432 414 416 384 C 400 353 375 338 341 338 C 319 338 298 342 278 351 C 258 359 241 369 229 381 C 217 391 205 401 193 410 C 181 418 168 423 154 423 C 141 423 128 415 116 400 C 104 384 98 365 98 341 L 25 341 C 25 391 34 430 54 460 C 73 489 99 504 133 504 C 155 504 177 498 197 488 C 217 477 234 466 247 456 C 259 446 270 436 281 428 C 292 420 304 416 317 416 C 335 416 348 423 356 437 C 364 451 368 473 368 502 Z M 368 323 L 443 323 C 441 275 432 235 416 204 C 400 173 375 158 341 158 C 319 158 298 162 278 170 C 258 178 242 189 229 201 C 216 213 204 223 194 230 C 183 237 170 241 156 241 C 142 241 129 234 117 220 C 104 206 98 187 98 161 L 25 161 C 25 211 34 250 54 280 C 73 310 99 325 133 325 C 155 325 176 319 196 307 C 215 295 231 283 244 271 C 256 260 268 251 280 245 C 292 238 304 235 317 235 C 335 235 348 242 356 256 C 364 270 368 292 368 323 Z" unicode="≈" />
<glyph horiz-adv-x="468" d="M 426 172 L 222 172 L 180 63 L 113 82 L 148 172 L 55 172 L 55 253 L 179 253 L 232 391 L 55 391 L 55 472 L 263 472 L 304 577 L 371 557 L 338 472 L 426 472 L 426 391 L 307 391 L 253 253 L 426 253 L 426 172 Z" unicode="≠" />
<glyph horiz-adv-x="468" d="M 50 292 L 50 357 L 418 554 L 418 467 L 149 327 L 416 192 L 416 105 L 50 292 Z M 49 98 L 416 98 L 416 21 L 49 21 L 49 98 Z" unicode="≤" />
<glyph horiz-adv-x="468" d="M 415 292 L 50 105 L 50 192 L 315 327 L 48 467 L 48 554 L 415 357 L 415 292 Z M 416 98 L 416 21 L 49 21 L 49 98 L 416 98 Z" unicode="≥" />
<glyph horiz-adv-x="537" d="M 508 326 L 274 -19 L 263 -19 L 29 326 L 29 337 L 263 681 L 274 681 L 508 337 L 508 326 Z M 413 327 L 413 336 L 273 547 L 265 547 L 124 336 L 124 327 L 265 115 L 273 115 L 413 327 Z" unicode="◊" />
<glyph horiz-adv-x="730" d="M 448 673 L 282 673 L 282 730 L 448 730 L 448 673 Z M 659 282 L 600 282 L 600 448 L 659 448 L 659 282 Z M 130 282 L 71 282 L 71 448 L 130 448 L 130 282 Z M 433 297 L 297 297 L 297 433 L 433 433 L 433 297 Z M 448 0 L 282 0 L 282 58 L 448 58 L 448 0 Z" unicode="" />
<glyph horiz-adv-x="418" d="M 222 435 L 159 435 L 159 0 L 59 0 L 59 435 L 16 435 L 16 511 L 59 511 L 59 645 C 59 667 63 688 71 708 C 79 727 90 744 103 758 C 116 772 131 782 147 790 C 163 798 179 802 195 802 C 215 802 234 799 252 795 C 270 790 282 785 289 780 L 264 712 C 260 714 252 716 242 719 C 232 721 222 723 214 723 C 199 723 186 715 175 700 C 163 685 158 662 158 632 L 158 511 L 222 511 L 222 435 Z M 379 604 L 274 604 L 274 696 L 379 696 L 379 604 Z M 377 0 L 276 0 L 276 511 L 377 511 L 377 0 Z" unicode="ﬁ" />
<glyph horiz-adv-x="450" d="M 456 8 C 449 4 440 1 430 -1 C 419 -3 406 -5 392 -5 C 360 -5 333 4 312 24 C 290 44 280 72 280 110 L 280 756 L 264 712 C 260 714 252 716 242 719 C 232 721 222 723 214 723 C 199 723 186 715 175 700 C 163 685 158 662 158 632 L 158 544 L 226 544 L 226 455 L 159 455 L 159 0 L 59 0 L 59 455 L 7 455 L 7 544 L 59 544 L 59 645 C 59 667 63 688 71 708 C 79 727 90 744 103 758 C 116 772 131 782 147 790 C 163 798 179 802 195 802 C 212 802 228 800 244 797 C 259 793 271 789 280 785 L 280 800 L 380 800 L 380 129 C 380 114 383 103 389 97 C 395 90 405 87 419 87 C 423 87 427 87 431 88 C 434 88 437 89 440 90 L 456 8 Z" unicode="ﬂ" />
</font>
</defs>
</svg>
