<?xml version="1.0" encoding="utf-8" ?><svg version="1.1" xmlns = 'http://www.w3.org/2000/svg'><defs><font id='web' horiz-adv-x="1000">
<font-face font-family="web" descent="-200" cap-height="730" units-per-em="1000" bbox="-148,-315,928,1034" x-height="533" ascent="800" />
<missing-glyph horiz-adv-x="500" d="" /><glyph horiz-adv-x="175" d="" unicode=" " />
<glyph horiz-adv-x="256" d="M 169 428 L 144 191 L 111 191 L 87 428 L 87 730 L 169 730 L 169 428 Z M 166 0 L 91 0 L 91 91 L 166 91 L 166 0 Z" unicode="!" />
<glyph horiz-adv-x="315" d="M 265 624 L 259 493 L 202 493 L 198 623 L 198 730 L 265 730 L 265 624 Z M 117 623 L 113 493 L 54 493 L 50 623 L 50 730 L 117 730 L 117 623 Z" unicode="&#x22;" />
<glyph horiz-adv-x="537" d="M 490 230 L 375 230 L 355 0 L 307 1 L 327 230 L 186 230 L 166 0 L 118 1 L 138 230 L 28 230 L 28 294 L 144 294 L 156 432 L 47 432 L 47 497 L 162 497 L 182 730 L 230 729 L 210 497 L 351 497 L 371 730 L 419 729 L 399 497 L 509 497 L 509 432 L 393 432 L 381 294 L 490 294 L 490 230 Z M 192 294 L 333 294 L 345 432 L 204 432 L 192 294 Z" unicode="#" />
<glyph horiz-adv-x="448" d="M 411 183 C 411 156 406 132 398 111 C 389 89 377 71 363 55 C 348 39 331 27 311 17 C 291 7 270 1 248 -1 L 248 -127 L 204 -127 L 204 -1 C 168 1 135 9 105 23 C 75 37 48 59 25 88 L 63 143 C 79 116 101 96 127 83 C 153 70 179 63 204 62 L 204 349 C 151 377 111 407 85 437 C 58 467 45 508 45 562 C 45 610 60 649 90 680 C 120 710 158 727 204 731 L 204 792 L 248 792 L 248 731 C 278 728 306 721 330 709 C 354 697 376 682 395 663 L 355 613 C 340 629 323 642 305 651 C 286 659 267 665 248 668 L 248 400 L 252 398 C 312 366 353 334 376 302 C 399 270 411 231 411 183 Z M 115 555 C 115 526 122 502 134 484 C 146 465 170 445 204 425 L 204 667 C 180 662 159 650 141 630 C 123 610 115 585 115 555 Z M 341 186 C 341 214 334 238 320 258 C 306 278 282 300 248 323 L 248 66 C 272 72 293 84 312 103 C 331 122 341 150 341 186 Z" unicode="$" />
<glyph horiz-adv-x="670" d="M 167 364 C 151 364 135 367 120 375 C 104 383 91 394 79 410 C 67 426 57 445 50 469 C 42 493 39 520 39 552 C 39 605 50 650 74 686 C 98 722 128 741 166 741 C 186 741 204 736 220 726 C 236 716 250 702 262 686 C 273 669 282 649 288 627 C 294 604 298 580 298 555 C 298 528 294 503 288 480 C 281 456 272 436 261 419 C 249 401 235 388 219 378 C 203 368 185 364 167 364 Z M 144 0 L 84 0 L 509 730 L 567 730 L 144 0 Z M 166 420 C 180 420 192 423 202 431 C 212 439 219 449 225 461 C 231 473 235 487 237 503 C 239 519 241 535 241 551 C 241 567 239 582 237 598 C 235 614 231 628 225 641 C 219 653 212 664 203 672 C 193 680 182 684 169 684 C 155 684 143 680 134 672 C 124 664 117 654 111 642 C 105 630 101 616 99 600 C 96 584 95 567 95 551 C 95 535 96 519 98 503 C 100 487 104 473 110 461 C 115 449 122 439 131 431 C 140 423 152 420 166 420 Z M 499 -3 C 483 -3 467 0 451 8 C 435 16 422 27 410 43 C 398 59 388 78 380 102 C 372 126 369 153 369 185 C 369 238 381 283 405 319 C 429 355 461 374 501 374 C 521 374 540 369 556 359 C 572 349 585 335 597 319 C 608 302 617 282 623 260 C 629 237 632 213 632 188 C 632 161 628 136 622 113 C 616 89 607 69 595 52 C 583 34 569 21 553 11 C 537 1 519 -3 499 -3 Z M 498 54 C 512 54 524 57 534 65 C 544 73 552 83 558 95 C 564 107 568 121 571 137 C 573 153 575 169 575 185 C 575 201 573 217 571 233 C 568 249 564 263 558 275 C 552 287 544 298 534 306 C 524 314 513 318 500 318 C 487 318 476 314 467 306 C 457 298 449 288 443 276 C 437 264 432 250 429 234 C 426 218 425 201 425 185 C 425 169 426 153 429 137 C 431 121 435 107 441 95 C 447 83 454 73 464 65 C 473 57 484 54 498 54 Z" unicode="%" />
<glyph horiz-adv-x="639" d="M 576 -5 L 496 80 C 463 51 427 29 388 14 C 349 0 306 -8 258 -8 C 190 -8 136 8 94 40 C 52 72 32 117 32 175 C 32 234 47 279 78 311 C 108 343 147 372 194 400 L 173 422 C 156 440 140 462 125 489 C 109 515 102 547 102 585 C 102 604 105 623 113 642 C 120 660 130 677 144 691 C 158 705 175 716 195 724 C 215 732 238 737 264 737 C 316 737 357 722 388 694 C 419 666 435 632 435 592 C 435 550 422 514 398 483 C 374 451 340 421 297 392 L 498 183 C 508 195 519 209 529 225 C 539 241 550 257 561 274 L 621 233 C 609 214 597 196 585 179 C 573 162 560 146 548 132 L 629 47 L 576 -5 Z M 229 463 L 255 436 C 293 459 320 481 338 503 C 356 524 365 547 365 572 C 365 598 356 620 339 640 C 322 660 299 670 269 670 C 240 670 217 659 201 638 C 184 616 176 593 176 569 C 176 549 180 530 190 514 C 199 497 212 480 229 463 Z M 113 187 C 113 168 117 151 125 135 C 133 119 145 106 159 95 C 173 83 190 74 209 68 C 227 62 247 59 268 59 C 302 59 333 65 363 77 C 393 89 421 106 448 130 L 237 354 C 201 331 172 307 148 283 C 124 258 113 226 113 187 Z" unicode="&#x26;" />
<glyph horiz-adv-x="169" d="M 119 622 L 115 490 L 53 490 L 49 622 L 49 730 L 119 730 L 119 622 Z" unicode="'" />
<glyph horiz-adv-x="288" d="M 265 -112 L 265 -179 C 233 -162 203 -139 174 -109 C 144 -79 118 -45 96 -5 C 74 35 56 80 43 130 C 29 180 23 235 23 293 C 23 346 29 396 41 444 C 53 492 69 535 91 574 C 112 613 137 648 167 678 C 197 708 229 731 265 749 L 265 682 C 210 646 168 594 140 525 C 112 456 97 379 97 293 C 97 251 100 211 106 171 C 112 131 122 94 136 60 C 150 25 167 -6 189 -36 C 210 -65 235 -90 265 -112 Z" unicode="(" />
<glyph horiz-adv-x="288" d="M 23 682 L 23 749 C 56 733 87 710 117 682 C 146 653 172 619 194 579 C 216 539 233 494 246 444 C 258 394 265 340 265 282 C 265 228 258 178 246 130 C 233 82 216 38 195 -1 C 173 -40 148 -75 118 -105 C 88 -135 57 -160 23 -179 L 23 -109 C 51 -89 76 -65 98 -37 C 119 -9 136 21 150 55 C 164 89 174 125 181 164 C 187 202 191 242 191 282 C 191 370 178 450 150 520 C 122 590 80 644 23 682 Z" unicode=")" />
<glyph horiz-adv-x="383" d="M 359 585 L 224 557 L 319 463 L 262 417 L 193 535 L 125 419 L 64 462 L 161 558 L 30 586 L 63 659 L 173 595 L 155 730 L 230 730 L 212 595 L 328 650 L 359 585 Z" unicode="*" />
<glyph horiz-adv-x="479" d="M 452 302 L 270 302 L 270 125 L 209 125 L 209 302 L 27 302 L 27 361 L 209 361 L 209 537 L 270 537 L 270 361 L 452 361 L 452 302 Z" unicode="+" />
<glyph horiz-adv-x="193" d="M 154 99 C 153 77 150 55 145 32 C 140 9 133 -12 125 -34 C 117 -56 107 -76 97 -95 C 86 -114 75 -131 64 -145 L 7 -119 C 23 -95 39 -62 53 -21 C 67 19 75 59 77 99 L 154 99 Z" unicode="," />
<glyph horiz-adv-x="311" d="M 274 229 L 37 229 L 37 296 L 274 296 L 274 229 Z" unicode="-" />
<glyph horiz-adv-x="194" d="M 135 0 L 59 0 L 59 115 L 135 115 L 135 0 Z" unicode="." />
<glyph horiz-adv-x="299" d="M 294 730 L 75 0 L 5 0 L 226 730 L 294 730 Z" unicode="/" />
<glyph horiz-adv-x="438" d="M 217 -7 C 191 -7 166 0 144 12 C 121 24 101 45 85 74 C 69 102 56 140 47 187 C 37 234 33 292 33 360 C 33 477 48 569 78 637 C 108 704 156 738 220 738 C 253 738 281 729 305 712 C 328 694 347 670 362 639 C 376 607 387 569 394 524 C 401 478 405 428 405 372 C 405 247 389 153 357 89 C 325 25 278 -7 217 -7 Z M 217 55 C 255 55 284 79 303 129 C 321 179 331 257 331 364 C 331 466 323 543 307 595 C 291 647 261 674 219 674 C 178 674 149 648 132 598 C 114 548 106 470 106 366 C 106 252 116 171 136 125 C 156 78 183 55 217 55 Z" unicode="0" />
<glyph horiz-adv-x="286" d="M 219 0 L 142 0 L 142 620 C 132 598 116 578 94 559 C 71 539 49 528 29 525 L 29 605 C 39 606 50 611 63 619 C 75 627 87 638 99 650 C 111 662 122 675 132 689 C 142 703 149 718 153 732 L 219 732 L 219 0 Z" unicode="1" />
<glyph horiz-adv-x="421" d="M 390 0 L 25 0 L 25 14 L 246 342 C 264 370 280 401 293 435 C 305 469 312 507 312 549 C 312 593 302 625 282 644 C 262 663 237 673 209 673 C 170 673 142 659 125 632 C 108 604 100 567 100 520 L 31 520 C 31 595 47 650 79 685 C 111 719 153 737 206 737 C 257 737 299 722 333 692 C 366 662 383 619 383 561 C 383 504 376 458 363 422 C 350 386 334 354 316 326 L 142 70 L 390 70 L 390 0 Z" unicode="2" />
<glyph horiz-adv-x="420" d="M 183 -7 C 135 -7 96 0 67 14 C 37 28 14 43 -2 59 L 27 118 C 41 102 61 87 85 74 C 109 61 140 55 178 55 C 224 55 260 71 286 103 C 311 135 324 174 324 222 C 324 246 320 268 312 286 C 304 304 293 319 281 331 C 268 343 254 352 238 358 C 222 364 205 367 189 367 L 111 367 L 111 431 L 185 431 C 217 431 244 442 266 465 C 288 487 299 519 299 561 C 299 596 289 624 269 644 C 249 664 222 675 188 675 C 158 675 131 669 109 657 C 87 645 67 627 51 603 L 8 648 C 26 674 50 696 82 713 C 113 729 153 738 203 738 C 253 738 293 723 324 695 C 354 666 370 626 370 575 C 370 527 358 488 334 459 C 310 429 283 411 252 404 C 268 400 285 394 302 385 C 319 375 334 363 348 348 C 361 332 372 314 381 293 C 389 271 394 247 394 221 C 394 193 390 165 382 138 C 374 110 361 86 344 65 C 327 43 305 26 279 13 C 252 0 220 -7 183 -7 Z" unicode="3" />
<glyph horiz-adv-x="411" d="M 410 187 L 333 187 L 333 0 L 268 0 L 268 187 L 5 187 L 4 235 L 287 738 L 333 738 L 333 252 L 410 252 L 410 187 Z M 268 244 L 269 601 L 76 244 L 268 244 Z" unicode="4" />
<glyph horiz-adv-x="414" d="M 201 -7 C 161 -7 123 0 88 15 C 53 29 26 49 8 74 L 45 130 C 59 111 79 94 103 79 C 127 64 155 57 187 57 C 227 57 258 73 282 107 C 306 141 318 188 318 248 C 318 301 307 342 286 370 C 264 398 237 413 205 413 C 170 413 144 405 127 390 C 110 375 97 356 87 333 L 36 349 L 61 730 L 358 730 L 357 660 L 115 660 L 97 403 C 105 419 118 435 138 451 C 157 467 187 475 227 475 C 274 475 313 456 344 420 C 375 384 391 328 391 254 C 391 210 386 172 376 139 C 366 106 352 79 335 58 C 317 36 297 20 274 9 C 251 -1 227 -7 201 -7 Z" unicode="5" />
<glyph horiz-adv-x="410" d="M 213 -10 C 188 -10 164 -5 142 4 C 119 14 99 28 82 47 C 65 66 51 90 41 118 C 31 146 26 179 26 217 C 26 282 40 351 69 424 C 98 496 142 572 200 652 L 267 745 L 322 708 L 278 647 C 256 615 234 584 214 553 C 194 522 176 493 160 465 C 144 437 130 412 120 388 C 109 364 102 344 99 328 C 109 355 127 378 151 398 C 175 417 203 427 236 427 C 260 427 282 421 302 410 C 321 399 337 384 351 365 C 364 346 374 324 381 298 C 388 272 392 243 392 213 C 392 148 375 95 342 53 C 308 11 265 -10 213 -10 Z M 212 54 C 246 54 272 68 291 96 C 310 124 320 161 320 209 C 320 257 310 295 292 322 C 273 348 247 362 214 362 C 183 362 156 349 134 325 C 111 300 100 263 100 213 C 100 159 111 119 133 93 C 155 67 181 54 212 54 Z" unicode="6" />
<glyph horiz-adv-x="347" d="M 350 730 L 350 695 L 97 -3 L 28 20 L 273 660 L 9 660 L 9 730 L 350 730 Z" unicode="7" />
<glyph horiz-adv-x="426" d="M 281 389 C 295 385 309 379 324 371 C 339 362 353 350 365 336 C 377 321 387 303 395 281 C 403 259 407 234 407 205 C 407 139 389 87 355 49 C 321 11 274 -7 216 -7 C 155 -7 107 11 72 48 C 36 84 19 134 19 196 C 19 227 23 254 32 278 C 40 301 51 321 64 337 C 77 353 91 365 107 374 C 122 382 136 388 149 391 C 136 394 123 400 110 408 C 96 416 84 426 74 440 C 63 454 54 470 48 490 C 41 509 38 532 38 559 C 38 586 42 611 52 633 C 61 655 73 674 89 689 C 105 704 123 716 145 724 C 166 732 189 737 213 737 C 265 737 307 721 339 689 C 371 657 388 616 388 566 C 388 540 384 516 378 496 C 372 476 363 458 353 444 C 343 430 331 418 319 409 C 306 400 293 393 281 389 Z M 214 409 C 244 409 270 420 291 442 C 312 464 323 498 323 542 C 323 584 312 616 291 640 C 270 664 244 676 214 676 C 182 676 156 664 134 642 C 112 619 102 586 102 544 C 102 518 105 497 113 480 C 120 462 129 448 140 438 C 150 428 162 420 176 416 C 189 411 202 409 214 409 Z M 215 55 C 251 55 279 67 301 92 C 323 117 334 155 334 206 C 334 254 321 289 297 313 C 273 337 245 349 215 349 C 182 349 153 337 129 314 C 104 290 92 253 92 202 C 92 154 104 118 129 93 C 153 67 182 55 215 55 Z" unicode="8" />
<glyph horiz-adv-x="410" d="M 159 -12 L 104 27 L 134 66 C 152 89 171 116 191 148 C 210 180 228 212 245 244 C 262 276 277 307 290 337 C 303 367 312 391 317 411 C 305 384 285 361 259 341 C 233 321 204 312 174 312 C 125 312 87 332 59 372 C 31 412 18 464 18 526 C 18 588 35 639 70 678 C 104 717 148 737 201 737 C 225 737 249 732 271 723 C 293 714 312 701 329 683 C 345 665 359 642 369 614 C 379 586 384 554 384 517 C 384 475 378 432 368 390 C 358 347 344 306 328 266 C 311 226 292 189 272 153 C 251 117 230 85 210 57 L 159 -12 Z M 195 377 C 208 377 221 379 235 385 C 249 390 261 398 272 410 C 283 421 292 436 299 454 C 306 472 310 494 310 520 C 310 574 299 613 277 637 C 255 661 229 673 199 673 C 165 673 138 660 119 634 C 99 608 90 573 90 527 C 90 477 99 439 117 414 C 135 389 161 377 195 377 Z" unicode="9" />
<glyph horiz-adv-x="195" d="M 135 421 L 59 421 L 59 533 L 135 533 L 135 421 Z M 135 0 L 59 0 L 59 112 L 135 112 L 135 0 Z" unicode=":" />
<glyph horiz-adv-x="195" d="M 141 421 L 66 421 L 66 533 L 141 533 L 141 421 Z M 144 95 C 142 49 132 5 115 -38 C 98 -81 78 -117 56 -145 L -1 -119 C 15 -95 31 -63 47 -23 C 62 17 70 56 70 95 L 144 95 Z" unicode=";" />
<glyph horiz-adv-x="378" d="M 334 102 L 33 300 L 33 350 L 334 545 L 334 475 L 105 325 L 334 174 L 334 102 Z" unicode="&#x3C;" />
<glyph horiz-adv-x="492" d="M 436 392 L 57 392 L 57 456 L 436 456 L 436 392 Z M 436 182 L 57 182 L 57 247 L 436 247 L 436 182 Z" unicode="=" />
<glyph horiz-adv-x="378" d="M 341 300 L 40 102 L 40 173 L 267 325 L 40 475 L 40 545 L 341 350 L 341 300 Z" unicode="&#x3E;" />
<glyph horiz-adv-x="423" d="M 160 194 C 160 238 165 275 176 305 C 186 335 203 363 226 391 C 234 401 244 413 254 425 C 264 437 274 449 283 463 C 292 477 299 492 305 508 C 311 524 314 543 314 563 C 314 597 303 623 282 643 C 261 662 235 672 203 672 C 175 672 150 664 129 650 C 107 635 88 616 72 594 L 27 641 C 49 674 77 699 111 716 C 144 733 179 742 216 742 C 270 742 312 727 344 697 C 376 667 392 625 392 572 C 392 546 388 523 381 503 C 374 482 365 463 355 446 C 344 428 332 412 319 397 C 306 382 294 368 282 354 C 261 333 247 308 241 278 C 235 248 231 220 231 194 L 160 194 Z M 156 0 L 156 99 L 238 99 L 238 0 L 156 0 Z" unicode="?" />
<glyph horiz-adv-x="809" d="M 402 -36 C 348 -36 298 -26 253 -6 C 208 14 169 40 137 74 C 104 108 79 148 61 194 C 43 240 34 289 34 341 C 34 393 43 442 62 488 C 80 534 106 573 139 607 C 171 641 210 668 256 688 C 302 708 351 718 405 718 C 461 718 511 709 557 692 C 603 674 642 650 674 620 C 706 589 731 552 749 510 C 767 467 776 421 776 371 C 776 327 771 290 761 260 C 751 229 739 204 724 184 C 708 164 691 150 672 141 C 652 131 633 127 614 127 C 584 127 561 134 545 149 C 529 164 519 183 517 205 C 509 189 490 172 460 154 C 430 136 396 127 358 127 C 312 127 276 138 250 162 C 224 185 211 217 211 257 C 211 303 228 337 264 361 C 299 385 344 397 398 397 L 501 397 L 501 413 C 501 451 490 477 470 492 C 449 507 424 515 396 515 C 372 515 349 512 327 506 C 305 500 288 495 274 489 L 254 535 C 274 544 296 552 321 558 C 346 564 373 567 401 567 C 455 567 495 553 520 525 C 545 497 558 454 558 397 L 558 241 C 558 225 563 210 573 198 C 583 185 599 179 620 180 C 631 180 643 182 656 187 C 668 192 680 201 690 215 C 700 229 709 248 716 273 C 722 297 726 329 726 367 C 726 411 718 451 703 489 C 687 526 666 558 638 585 C 610 611 577 632 537 648 C 497 663 454 671 406 671 C 359 671 316 662 276 645 C 236 627 202 604 174 574 C 145 544 123 508 107 468 C 91 428 83 385 83 340 C 83 294 91 251 107 211 C 123 171 145 136 173 106 C 201 76 234 53 274 35 C 314 17 357 9 404 9 C 424 9 444 10 464 14 C 484 18 507 26 533 38 L 550 -3 C 522 -15 497 -24 473 -29 C 449 -33 426 -36 402 -36 Z M 375 179 C 403 179 430 186 456 201 C 482 215 497 230 501 245 L 501 352 L 403 352 C 361 352 328 344 306 328 C 283 312 272 290 272 261 C 272 236 280 216 298 201 C 316 186 341 179 375 179 Z" unicode="@" />
<glyph horiz-adv-x="471" d="M 467 0 L 391 0 L 338 194 L 128 194 L 77 0 L 3 0 L 207 734 L 262 734 L 467 0 Z M 328 251 L 232 602 L 139 251 L 328 251 Z" unicode="A" />
<glyph horiz-adv-x="440" d="M 66 0 L 66 730 L 224 730 C 272 730 311 714 343 684 C 374 653 390 611 390 557 C 390 504 377 462 352 432 C 326 402 297 384 265 379 C 282 378 300 374 318 366 C 336 358 353 346 368 332 C 382 317 394 299 404 278 C 413 256 418 232 418 204 C 418 144 401 95 369 57 C 336 19 293 0 241 0 L 66 0 Z M 143 402 L 208 402 C 227 402 244 405 258 413 C 272 421 283 431 292 444 C 300 457 307 472 311 489 C 315 506 318 524 318 542 C 318 580 308 610 289 633 C 269 655 241 667 203 667 L 143 667 L 143 402 Z M 143 63 L 224 63 C 264 63 293 76 313 104 C 332 132 342 165 342 205 C 342 251 329 284 305 306 C 280 328 249 339 211 339 L 143 339 L 143 63 Z" unicode="B" />
<glyph horiz-adv-x="519" d="M 282 -7 C 246 -7 214 0 184 16 C 154 31 128 54 106 85 C 84 115 67 154 55 201 C 43 248 37 303 37 366 C 37 484 58 576 100 640 C 142 704 202 737 281 737 C 337 737 381 722 412 694 C 442 665 464 629 478 585 L 406 561 C 394 591 379 617 361 638 C 343 658 316 669 280 669 C 229 669 189 645 160 597 C 131 549 117 470 117 362 C 117 307 121 260 131 222 C 141 183 153 152 169 128 C 185 104 203 87 223 77 C 243 66 263 61 285 61 C 323 61 353 72 374 94 C 395 116 412 146 424 182 L 490 152 C 472 102 446 63 412 35 C 378 7 334 -7 282 -7 Z" unicode="C" />
<glyph horiz-adv-x="538" d="M 66 0 L 66 730 L 220 730 C 265 730 305 721 340 704 C 375 687 404 663 428 632 C 452 600 470 562 482 518 C 494 473 501 423 501 369 C 501 317 495 268 483 223 C 471 178 454 139 430 106 C 406 73 376 47 340 28 C 304 9 261 0 213 0 L 66 0 Z M 145 67 L 211 67 C 249 67 281 74 308 88 C 334 102 356 123 372 149 C 388 175 400 207 408 244 C 416 281 420 322 420 368 C 420 465 402 538 367 588 C 332 638 283 663 221 663 L 145 663 L 145 67 Z" unicode="D" />
<glyph horiz-adv-x="392" d="M 375 0 L 66 0 L 66 730 L 358 730 L 358 661 L 144 661 L 144 398 L 351 398 L 351 331 L 144 331 L 144 69 L 375 69 L 375 0 Z" unicode="E" />
<glyph horiz-adv-x="354" d="M 341 661 L 147 661 L 147 403 L 330 403 L 330 335 L 147 335 L 147 0 L 67 0 L 67 730 L 341 730 L 341 661 Z" unicode="F" />
<glyph horiz-adv-x="545" d="M 282 355 L 505 355 L 505 117 C 486 79 458 48 421 26 C 384 4 339 -7 287 -7 C 253 -7 220 1 190 18 C 159 34 132 58 110 90 C 87 122 69 161 56 207 C 43 253 37 306 37 365 C 37 421 43 473 55 519 C 67 565 83 604 105 636 C 127 668 153 692 185 710 C 216 727 251 736 289 736 C 343 736 385 723 415 699 C 445 675 469 645 486 610 L 422 568 C 409 596 392 619 372 638 C 351 656 325 666 293 666 C 239 666 197 640 165 590 C 133 540 118 463 118 361 C 118 259 134 182 167 132 C 200 82 240 57 288 57 C 322 57 351 63 376 76 C 401 88 420 108 433 135 L 433 289 L 282 289 L 282 355 Z" unicode="G" />
<glyph horiz-adv-x="537" d="M 471 0 L 391 0 L 391 329 L 146 329 L 146 0 L 66 0 L 66 730 L 146 730 L 146 394 L 391 394 L 391 730 L 471 730 L 471 0 Z" unicode="H" />
<glyph horiz-adv-x="221" d="M 151 0 L 70 0 L 70 730 L 151 730 L 151 0 Z" unicode="I" />
<glyph horiz-adv-x="286" d="M 222 730 L 222 182 C 222 127 207 82 179 46 C 151 10 111 -8 60 -8 C 48 -8 35 -6 21 -4 C 7 -1 -3 2 -11 7 L 5 73 C 9 70 16 68 25 66 C 33 64 42 64 52 64 C 80 64 102 76 118 102 C 134 128 142 159 142 195 L 142 730 L 222 730 Z" unicode="J" />
<glyph horiz-adv-x="479" d="M 489 0 L 400 0 L 184 326 L 147 280 L 147 0 L 66 0 L 66 730 L 147 730 L 147 387 L 384 730 L 465 730 L 231 397 L 489 0 Z" unicode="K" />
<glyph horiz-adv-x="356" d="M 349 0 L 66 0 L 66 730 L 146 730 L 146 69 L 349 69 L 349 0 Z" unicode="L" />
<glyph horiz-adv-x="641" d="M 575 0 L 499 0 L 499 566 L 341 203 L 304 203 L 141 566 L 141 0 L 66 0 L 66 730 L 141 730 L 323 312 L 505 730 L 575 730 L 575 0 Z" unicode="M" />
<glyph horiz-adv-x="536" d="M 470 0 L 412 0 L 141 541 L 141 0 L 66 0 L 66 730 L 123 730 L 397 183 L 397 730 L 470 730 L 470 0 Z" unicode="N" />
<glyph horiz-adv-x="574" d="M 289 -7 C 211 -7 150 25 105 90 C 59 154 37 248 37 371 C 37 486 59 576 105 640 C 150 704 210 737 284 737 C 364 737 426 705 470 641 C 514 577 537 485 537 365 C 537 307 530 254 518 208 C 506 162 489 123 467 91 C 445 59 419 35 389 18 C 358 1 325 -7 289 -7 Z M 288 56 C 338 56 378 82 408 134 C 438 186 454 265 454 372 C 454 471 438 546 408 597 C 377 648 336 674 285 674 C 233 674 192 648 163 598 C 134 547 120 469 120 365 C 120 259 135 181 167 131 C 198 81 238 56 288 56 Z" unicode="O" />
<glyph horiz-adv-x="433" d="M 66 0 L 66 730 L 233 730 C 257 730 281 725 303 716 C 325 707 345 694 362 677 C 378 660 391 639 401 614 C 411 589 416 560 416 528 C 416 462 398 410 363 372 C 328 334 285 315 234 315 L 146 315 L 146 0 L 66 0 Z M 146 381 L 215 381 C 253 381 283 393 305 417 C 326 441 337 479 337 529 C 337 574 324 608 300 630 C 276 652 247 663 215 663 L 146 663 L 146 381 Z" unicode="P" />
<glyph horiz-adv-x="574" d="M 503 -79 L 503 -156 C 470 -149 435 -132 399 -105 C 362 -78 330 -45 304 -5 C 301 -5 298 -6 296 -6 C 294 -6 291 -6 289 -6 C 213 -6 152 26 106 90 C 60 154 37 248 37 371 C 37 486 59 576 105 640 C 151 704 210 737 284 737 C 363 737 425 705 470 641 C 514 577 537 485 537 367 C 537 275 522 199 493 139 C 464 78 426 36 378 14 C 399 -12 422 -33 446 -49 C 470 -65 489 -75 503 -79 Z M 119 366 C 119 266 132 191 160 141 C 188 90 225 62 271 57 C 264 75 258 93 254 112 C 250 131 248 151 248 171 L 314 171 C 314 152 317 134 323 116 C 328 98 335 82 343 68 C 377 84 404 118 425 169 C 445 219 456 287 456 371 C 456 473 439 549 407 599 C 375 648 334 673 285 673 C 233 673 192 648 163 598 C 133 548 119 471 119 366 Z" unicode="Q" />
<glyph horiz-adv-x="454" d="M 66 0 L 66 730 L 209 730 C 261 730 304 713 340 681 C 376 648 394 598 394 532 C 394 476 381 430 356 395 C 330 360 298 341 260 338 L 256 334 L 451 0 L 369 0 L 187 317 L 140 317 L 140 0 L 66 0 Z M 140 383 L 199 383 C 235 383 264 395 286 420 C 308 445 320 480 320 524 C 320 572 308 608 284 631 C 260 653 232 665 200 665 L 140 665 L 140 383 Z" unicode="R" />
<glyph horiz-adv-x="404" d="M 202 -7 C 165 -7 132 0 102 13 C 72 27 45 49 23 81 L 75 129 C 89 102 108 83 132 71 C 155 59 177 54 199 54 C 226 54 250 64 271 85 C 292 106 303 135 303 171 C 303 207 294 238 277 262 C 259 286 228 313 182 343 C 136 372 101 403 77 436 C 53 468 41 512 41 567 C 41 593 45 616 54 637 C 62 658 74 676 89 691 C 104 705 122 717 142 725 C 162 733 184 737 207 737 C 245 737 276 730 301 716 C 325 702 345 687 359 671 L 311 622 C 299 635 284 646 266 656 C 248 666 228 671 207 671 C 183 671 161 661 141 643 C 121 624 112 597 112 563 C 112 529 121 501 137 480 C 153 459 185 434 233 404 C 286 371 323 337 343 303 C 363 268 373 226 373 178 C 373 148 368 122 358 99 C 348 75 336 56 320 40 C 304 24 286 13 266 5 C 245 -3 224 -7 202 -7 Z" unicode="S" />
<glyph horiz-adv-x="370" d="M 362 661 L 224 661 L 224 0 L 144 0 L 144 661 L 7 661 L 7 730 L 362 730 L 362 661 Z" unicode="T" />
<glyph horiz-adv-x="535" d="M 472 730 L 472 214 C 472 174 466 139 455 111 C 443 83 428 60 409 43 C 390 25 368 13 343 5 C 317 -3 291 -7 263 -7 C 236 -7 210 -3 186 4 C 162 12 140 24 122 41 C 104 58 89 81 78 109 C 67 137 62 172 62 214 L 62 730 L 142 730 L 142 214 C 142 158 153 118 177 96 C 201 73 230 62 266 62 C 300 62 329 72 353 94 C 377 116 389 156 389 214 L 389 730 L 472 730 Z" unicode="U" />
<glyph horiz-adv-x="457" d="M 453 730 L 255 -4 L 196 -4 L 3 730 L 80 730 L 228 134 L 380 730 L 453 730 Z" unicode="V" />
<glyph horiz-adv-x="681" d="M 661 730 L 511 -3 L 456 -3 L 334 587 L 212 -3 L 157 -3 L 8 730 L 84 730 L 195 145 L 308 730 L 368 730 L 481 146 L 593 730 L 661 730 Z" unicode="W" />
<glyph horiz-adv-x="434" d="M 345 0 L 214 297 L 81 0 L 8 0 L 178 379 L 23 730 L 102 730 L 217 468 L 335 730 L 408 730 L 254 385 L 423 0 L 345 0 Z" unicode="X" />
<glyph horiz-adv-x="454" d="M 454 730 L 264 321 L 264 0 L 184 0 L 184 322 L 0 730 L 92 730 L 230 403 L 378 730 L 454 730 Z" unicode="Y" />
<glyph horiz-adv-x="416" d="M 388 730 L 388 689 L 112 67 L 400 67 L 400 0 L 16 0 L 16 39 L 291 661 L 46 661 L 46 730 L 388 730 Z" unicode="Z" />
<glyph horiz-adv-x="209" d="M 187 -179 L 48 -179 L 48 730 L 187 730 L 187 663 L 119 663 L 119 -112 L 187 -112 L 187 -179 Z" unicode="[" />
<glyph horiz-adv-x="299" d="M 5 730 L 72 730 L 294 0 L 226 0 L 5 730 Z" unicode="\" />
<glyph horiz-adv-x="211" d="M 164 -179 L 25 -179 L 25 -112 L 93 -112 L 93 663 L 25 663 L 25 730 L 164 730 L 164 -179 Z" unicode="]" />
<glyph horiz-adv-x="430" d="M 406 369 L 341 369 L 213 655 L 87 369 L 23 369 L 181 730 L 245 730 L 406 369 Z" unicode="^" />
<glyph horiz-adv-x="427" d="M 427 -151 L 0 -151 L 0 -90 L 427 -90 L 427 -151 Z" unicode="_" />
<glyph horiz-adv-x="500" d="M 329 595 L 259 595 L 164 767 L 248 767 L 329 595 Z" unicode="`" />
<glyph horiz-adv-x="363" d="M 319 0 L 257 0 L 257 56 C 242 36 226 21 210 11 C 193 0 170 -5 141 -5 C 107 -5 79 8 56 36 C 32 64 21 104 21 157 C 21 213 36 254 66 280 C 96 306 132 321 172 325 L 249 332 L 249 386 C 249 416 242 438 229 453 C 215 467 196 475 171 475 C 148 475 128 470 112 461 C 95 452 82 443 74 434 L 51 494 C 63 506 81 517 103 527 C 125 536 153 541 185 541 C 225 541 258 529 282 506 C 306 482 319 449 319 405 L 319 0 Z M 251 105 L 251 282 L 189 275 C 162 272 139 261 121 243 C 102 225 93 195 93 154 C 93 118 100 91 116 75 C 131 59 148 51 167 51 C 187 51 204 56 218 67 C 231 77 242 90 251 105 Z" unicode="a" />
<glyph horiz-adv-x="397" d="M 227 -4 C 198 -4 174 4 154 22 C 134 39 119 61 110 88 L 110 0 L 45 0 L 45 800 L 115 800 L 115 421 C 122 449 135 476 155 500 C 174 524 200 537 234 537 C 276 537 310 513 335 466 C 360 418 373 356 373 279 C 373 189 359 120 332 70 C 304 20 269 -4 227 -4 Z M 202 57 C 230 57 253 74 271 110 C 288 146 297 199 297 271 C 297 336 288 385 272 419 C 255 453 232 470 203 470 C 179 470 158 454 140 423 C 121 392 112 336 112 255 C 112 213 114 180 120 154 C 125 128 132 107 141 93 C 149 79 159 69 170 64 C 180 59 191 57 202 57 Z" unicode="b" />
<glyph horiz-adv-x="344" d="M 294 122 L 331 79 C 320 58 305 39 285 21 C 265 3 237 -5 203 -5 C 173 -5 147 1 125 15 C 103 28 84 46 69 70 C 53 94 42 122 34 156 C 26 189 23 225 23 265 C 23 301 26 335 34 369 C 41 402 52 431 67 456 C 81 480 100 500 123 515 C 145 529 171 537 201 537 C 236 537 265 527 287 507 C 309 487 325 465 335 443 L 283 404 C 275 421 264 436 252 450 C 239 464 222 471 201 471 C 167 471 142 452 125 414 C 107 376 99 328 99 268 C 99 198 109 145 130 110 C 150 75 177 58 211 58 C 235 58 254 65 266 80 C 278 94 287 108 294 122 Z" unicode="c" />
<glyph horiz-adv-x="411" d="M 178 -5 C 154 -5 132 1 113 15 C 93 29 77 47 64 71 C 51 95 41 123 34 156 C 26 188 23 224 23 262 C 23 345 37 411 66 461 C 95 510 132 535 177 535 C 208 535 234 523 255 499 C 276 475 290 447 297 414 L 297 800 L 367 800 L 367 0 L 301 0 L 301 101 C 298 88 293 75 287 63 C 280 50 272 39 262 29 C 252 19 240 10 226 4 C 212 -1 196 -5 178 -5 Z M 200 57 C 230 57 254 74 272 110 C 290 145 299 198 299 270 C 299 341 289 392 269 423 C 249 453 225 469 199 469 C 169 469 144 452 126 419 C 108 385 99 334 99 266 C 99 198 108 147 126 111 C 144 75 168 57 200 57 Z" unicode="d" />
<glyph horiz-adv-x="376" d="M 194 -5 C 168 -5 144 1 123 14 C 101 27 83 45 69 69 C 54 92 43 120 35 153 C 27 186 23 223 23 263 C 23 345 39 412 71 462 C 103 512 144 537 192 537 C 246 537 287 510 315 458 C 343 406 357 336 357 250 L 96 250 C 96 196 105 150 124 114 C 142 78 170 60 206 60 C 232 60 253 67 269 81 C 285 95 299 110 309 125 L 342 85 C 329 64 310 44 286 24 C 262 4 231 -5 194 -5 Z M 94 302 L 286 302 C 286 356 277 398 260 429 C 242 459 220 475 194 475 C 165 475 142 460 124 430 C 106 400 96 357 94 302 Z" unicode="e" />
<glyph horiz-adv-x="207" d="M 203 468 L 138 468 L 138 0 L 65 0 L 65 468 L 14 468 L 14 533 L 65 533 L 65 682 C 65 701 68 718 75 733 C 81 748 90 761 101 771 C 111 781 123 788 137 794 C 150 799 163 802 176 802 C 184 802 194 800 207 798 C 220 795 231 790 240 784 L 219 728 C 217 728 213 730 207 732 C 200 734 193 736 185 736 C 171 736 159 730 150 720 C 141 710 137 692 137 668 L 137 533 L 203 533 L 203 468 Z" unicode="f" />
<glyph horiz-adv-x="409" d="M 177 9 C 131 9 94 32 66 80 C 38 127 24 190 24 270 C 24 353 38 418 67 466 C 96 513 132 537 176 537 C 208 537 235 525 256 503 C 276 481 291 456 299 429 L 299 533 L 364 533 L 364 6 C 364 -28 358 -58 348 -84 C 338 -110 324 -131 308 -148 C 291 -164 272 -177 250 -185 C 228 -193 205 -198 182 -198 C 150 -198 125 -195 105 -189 C 85 -183 70 -176 60 -170 L 84 -112 C 95 -117 108 -121 122 -125 C 136 -129 155 -131 178 -131 C 211 -131 239 -118 261 -93 C 283 -67 295 -31 295 16 L 295 125 C 288 95 275 69 255 45 C 235 21 209 9 177 9 Z M 199 71 C 227 71 251 87 270 120 C 288 152 298 204 298 276 C 298 344 287 394 266 425 C 244 455 221 471 197 471 C 167 471 143 454 126 420 C 108 386 100 337 100 273 C 100 209 108 159 125 124 C 141 88 166 71 199 71 Z" unicode="g" />
<glyph horiz-adv-x="392" d="M 348 0 L 275 0 L 275 400 C 275 425 268 444 255 456 C 241 468 224 475 203 475 C 179 475 159 467 143 453 C 126 439 118 413 118 376 L 118 0 L 45 0 L 45 800 L 114 800 L 114 463 C 120 483 132 501 150 515 C 168 529 194 537 227 537 C 263 537 292 527 314 509 C 336 491 348 460 348 417 L 348 0 Z" unicode="h" />
<glyph horiz-adv-x="168" d="M 45 620 L 45 692 L 123 692 L 123 620 L 45 620 Z M 47 0 L 47 533 L 120 533 L 120 0 L 47 0 Z" unicode="i" />
<glyph horiz-adv-x="170" d="M 125 620 L 49 620 L 49 692 L 125 692 L 125 620 Z M 123 533 L 123 -65 C 123 -91 114 -113 98 -130 C 81 -146 59 -155 33 -155 C 17 -155 4 -152 -7 -147 C -19 -142 -26 -138 -29 -134 L -5 -87 C -2 -88 1 -89 5 -91 C 9 -92 15 -93 22 -93 C 30 -93 37 -90 43 -84 C 48 -78 51 -70 51 -60 L 51 533 L 123 533 Z" unicode="j" />
<glyph horiz-adv-x="354" d="M 362 0 L 285 0 L 168 234 L 118 153 L 118 0 L 45 0 L 45 800 L 114 800 L 114 244 L 275 533 L 351 533 L 215 296 L 362 0 Z" unicode="k" />
<glyph horiz-adv-x="182" d="M 44 88 L 44 800 L 117 800 L 117 102 C 117 87 120 77 126 71 C 132 65 140 62 151 62 C 155 62 158 62 162 63 C 165 63 168 64 171 65 L 182 5 C 177 2 170 0 162 -2 C 153 -4 143 -5 132 -5 C 107 -5 86 2 69 18 C 52 34 44 57 44 88 Z" unicode="l" />
<glyph horiz-adv-x="616" d="M 45 0 L 45 533 L 107 533 L 107 452 C 113 480 128 502 150 516 C 172 530 198 538 229 538 C 260 538 285 530 304 515 C 323 500 334 478 337 448 L 339 448 C 345 475 359 497 379 513 C 399 529 425 538 459 538 C 491 538 518 528 540 510 C 561 491 572 461 572 419 L 572 0 L 500 0 L 500 387 C 500 419 493 442 479 456 C 465 469 446 476 424 476 C 403 476 384 468 368 454 C 352 439 344 412 344 373 L 344 0 L 272 0 L 272 389 C 272 424 264 447 250 459 C 235 470 218 476 199 476 C 178 476 159 468 142 454 C 124 440 116 413 116 373 L 116 0 L 45 0 Z" unicode="m" />
<glyph horiz-adv-x="392" d="M 348 0 L 275 0 L 275 399 C 275 423 268 442 256 455 C 243 468 226 475 204 475 C 180 475 160 468 143 454 C 126 440 118 414 118 376 L 118 0 L 45 0 L 45 533 L 107 533 L 107 457 C 114 480 128 499 149 514 C 170 529 197 537 231 537 C 265 537 293 527 315 509 C 337 491 348 462 348 424 L 348 0 Z" unicode="n" />
<glyph horiz-adv-x="388" d="M 195 -5 C 145 -5 103 17 71 63 C 39 109 23 176 23 265 C 23 349 38 415 69 464 C 100 512 140 537 189 537 C 242 537 285 514 317 469 C 349 423 365 360 365 279 C 365 192 349 123 319 72 C 289 20 247 -5 195 -5 Z M 196 59 C 226 59 249 76 265 111 C 281 145 289 198 289 270 C 289 340 280 392 263 424 C 246 456 222 473 191 473 C 162 473 139 456 123 423 C 107 390 99 339 99 270 C 99 194 107 140 125 108 C 143 75 166 59 196 59 Z" unicode="o" />
<glyph horiz-adv-x="396" d="M 45 -200 L 45 533 L 106 533 L 106 415 C 112 446 126 474 148 499 C 170 524 198 537 232 537 C 256 537 277 530 295 518 C 313 505 327 487 339 465 C 350 443 358 416 364 385 C 370 353 373 320 373 284 C 373 192 359 121 333 71 C 307 21 271 -4 227 -4 C 197 -4 172 4 153 20 C 133 36 120 55 114 78 L 114 -200 L 45 -200 Z M 201 57 C 230 57 253 74 271 108 C 288 142 297 195 297 265 C 297 327 289 377 274 414 C 259 450 235 469 203 469 C 191 469 179 465 168 459 C 157 453 147 441 139 425 C 130 409 123 387 118 359 C 112 331 110 297 110 255 C 110 215 112 183 117 157 C 121 131 128 110 136 96 C 144 81 154 71 165 65 C 176 59 188 57 201 57 Z" unicode="p" />
<glyph horiz-adv-x="411" d="M 297 -200 L 297 112 C 290 83 276 56 256 32 C 235 8 207 -4 171 -4 C 127 -4 91 20 64 69 C 36 117 23 181 23 260 C 23 351 37 420 67 467 C 97 513 133 537 177 537 C 211 537 238 525 259 501 C 280 477 295 448 303 414 L 303 533 L 367 533 L 367 -200 L 297 -200 Z M 198 57 C 228 57 253 74 271 108 C 289 142 298 195 298 269 C 298 338 288 389 269 421 C 250 453 226 470 197 470 C 168 470 144 453 126 419 C 108 385 99 333 99 264 C 99 202 107 152 125 114 C 143 76 167 57 198 57 Z" unicode="q" />
<glyph horiz-adv-x="283" d="M 287 508 L 262 447 C 252 456 243 462 234 466 C 224 469 214 471 202 471 C 193 471 184 469 174 466 C 164 462 155 456 147 448 C 139 440 132 428 126 413 C 120 398 118 379 118 356 L 118 0 L 45 0 L 45 533 L 116 533 L 116 456 C 122 478 133 497 151 513 C 168 529 188 537 212 537 C 228 537 243 534 256 528 C 269 522 279 516 287 508 Z" unicode="r" />
<glyph horiz-adv-x="301" d="M 156 -5 C 125 -5 97 1 73 14 C 49 27 30 45 17 68 L 56 118 C 66 99 79 84 95 74 C 110 64 127 59 146 59 C 163 59 179 65 193 78 C 207 91 215 111 215 137 C 215 161 207 181 192 197 C 177 212 155 230 127 250 C 96 270 72 292 56 314 C 40 336 32 368 32 408 C 32 444 43 475 66 500 C 89 524 118 537 153 537 C 179 537 202 532 222 523 C 242 514 258 503 270 491 L 242 429 C 233 438 221 447 207 457 C 192 467 176 472 160 472 C 142 472 126 466 113 455 C 99 443 93 427 93 407 C 93 386 99 370 111 358 C 123 346 145 330 176 309 C 212 283 238 257 254 232 C 270 207 278 174 278 133 C 278 109 274 88 266 71 C 258 53 249 39 237 28 C 225 16 212 8 198 3 C 184 -2 170 -5 156 -5 Z" unicode="s" />
<glyph horiz-adv-x="207" d="M 192 75 L 206 14 C 201 10 194 6 184 2 C 174 -1 160 -3 144 -3 C 121 -3 101 6 83 24 C 65 42 56 67 56 100 L 56 468 L 9 468 L 9 533 L 58 533 L 58 632 L 127 643 L 127 533 L 195 533 L 195 468 L 129 468 L 129 106 C 129 94 132 84 139 77 C 145 70 154 67 164 67 C 169 67 174 67 180 69 C 185 71 189 73 192 75 Z" unicode="t" />
<glyph horiz-adv-x="392" d="M 44 533 L 117 533 L 117 144 C 117 114 123 92 137 78 C 151 63 169 56 193 56 C 214 56 233 63 249 79 C 265 95 274 123 274 165 L 274 533 L 347 533 L 347 0 L 283 0 L 283 78 C 276 55 262 35 241 19 C 219 3 193 -5 162 -5 C 130 -5 102 5 79 27 C 55 49 44 81 44 123 L 44 533 Z" unicode="u" />
<glyph horiz-adv-x="322" d="M 324 533 L 190 -1 L 132 -1 L -2 533 L 72 533 L 164 133 L 257 533 L 324 533 Z" unicode="v" />
<glyph horiz-adv-x="530" d="M 349 -1 L 267 346 L 179 -1 L 122 -1 L 2 533 L 69 533 L 159 120 L 240 457 L 295 457 L 372 122 L 465 533 L 528 533 L 404 -1 L 349 -1 Z" unicode="w" />
<glyph horiz-adv-x="330" d="M 252 0 L 162 201 L 69 0 L 5 0 L 130 274 L 14 533 L 88 533 L 167 356 L 248 533 L 316 533 L 200 282 L 326 0 L 252 0 Z" unicode="x" />
<glyph horiz-adv-x="323" d="M 325 533 L 160 -102 C 151 -132 137 -156 117 -174 C 97 -191 75 -200 52 -200 C 28 -200 9 -197 -5 -193 C -19 -188 -28 -183 -33 -179 L -4 -125 C -1 -127 4 -130 14 -133 C 23 -136 32 -138 42 -138 C 54 -138 66 -132 78 -122 C 90 -111 98 -95 103 -75 L 131 41 L -2 533 L 72 533 L 167 145 L 257 533 L 325 533 Z" unicode="y" />
<glyph horiz-adv-x="311" d="M 293 533 L 293 501 L 100 63 L 299 63 L 299 0 L 12 0 L 12 26 L 207 468 L 24 468 L 24 533 L 293 533 Z" unicode="z" />
<glyph horiz-adv-x="251" d="M 231 -179 C 205 -178 181 -174 159 -166 C 136 -158 116 -147 99 -134 C 81 -120 68 -105 58 -87 C 48 -69 43 -50 43 -30 C 43 -5 46 17 52 37 C 58 57 65 75 73 91 C 79 107 86 122 93 137 C 99 151 103 166 103 181 C 103 199 94 217 78 233 C 61 249 41 257 17 258 L 17 313 C 41 313 61 322 79 339 C 96 355 105 374 105 395 C 105 403 101 414 95 430 C 88 446 81 463 73 481 C 64 499 57 516 52 534 C 46 552 44 570 44 589 C 44 609 49 629 59 648 C 69 667 82 684 99 699 C 116 713 136 725 159 734 C 181 743 205 748 231 749 L 231 694 C 203 693 178 682 155 661 C 131 639 120 614 120 584 C 120 572 121 559 125 545 C 129 531 134 516 142 502 C 150 483 158 465 166 448 C 174 430 178 414 178 400 C 178 372 169 347 153 326 C 137 305 113 291 82 285 C 114 278 138 264 154 243 C 170 221 178 198 178 173 C 178 153 174 136 167 121 C 160 106 153 91 146 77 C 138 62 131 47 126 31 C 121 15 119 0 119 -14 C 119 -40 130 -65 153 -88 C 175 -110 201 -122 231 -124 L 231 -179 Z" unicode="{" />
<glyph horiz-adv-x="224" d="M 147 -179 L 77 -179 L 77 730 L 147 730 L 147 -179 Z" unicode="|" />
<glyph horiz-adv-x="251" d="M 20 -179 L 20 -124 C 49 -122 75 -110 97 -88 C 119 -65 131 -40 131 -14 C 131 0 128 15 124 31 C 119 47 113 62 105 77 C 97 91 90 106 83 121 C 75 136 72 153 72 173 C 72 198 80 221 96 243 C 112 264 135 278 166 285 C 136 291 112 305 96 326 C 80 347 72 372 72 400 C 72 414 75 430 83 448 C 91 465 99 483 109 502 C 115 516 121 531 125 545 C 129 559 131 572 131 584 C 131 614 119 639 96 661 C 72 682 47 693 20 694 L 20 749 C 45 748 69 743 92 734 C 114 725 134 713 151 699 C 168 684 182 667 192 648 C 202 629 207 609 207 589 C 207 570 204 552 199 534 C 193 516 186 499 178 481 C 169 463 161 446 155 430 C 149 414 146 403 146 395 C 146 374 154 355 172 339 C 189 322 209 313 233 313 L 233 258 C 209 257 189 249 173 233 C 156 217 148 199 148 181 C 148 166 151 151 157 137 C 163 122 170 107 178 91 C 185 75 192 57 198 37 C 204 17 207 -5 207 -30 C 207 -50 202 -69 192 -87 C 182 -105 168 -120 151 -134 C 134 -147 114 -158 92 -166 C 69 -174 45 -178 20 -179 Z" unicode="}" />
<glyph horiz-adv-x="446" d="M 355 438 L 416 438 C 415 390 408 352 394 324 C 380 296 356 282 322 282 C 299 282 279 287 261 298 C 243 308 228 320 216 333 C 203 346 191 358 180 368 C 169 378 157 383 145 383 C 131 383 118 374 106 357 C 94 339 89 315 89 285 L 30 285 C 30 333 39 370 57 398 C 75 426 100 440 133 440 C 156 440 177 434 195 422 C 213 410 229 398 241 385 C 253 374 264 364 274 354 C 283 344 295 340 309 340 C 327 340 340 347 346 363 C 352 379 355 404 355 438 Z" unicode="~" />
<glyph horiz-adv-x="256" d="M 91 615 L 166 615 L 166 525 L 91 525 L 91 615 Z M 87 193 L 113 430 L 145 430 L 169 193 L 169 -101 L 87 -101 L 87 193 Z" unicode="¡" />
<glyph horiz-adv-x="343" d="M 327 166 C 316 152 303 137 288 123 C 273 108 249 99 217 96 L 217 -15 L 173 -15 L 173 96 C 125 101 88 124 62 165 C 36 205 23 256 23 317 C 23 345 26 371 32 397 C 38 422 48 444 60 464 C 72 484 88 500 107 514 C 126 527 148 535 173 539 L 173 651 L 217 651 L 217 540 C 247 537 271 528 289 514 C 307 500 321 485 332 471 L 305 420 C 295 432 284 444 272 456 C 259 468 241 474 217 476 L 217 159 C 241 159 260 165 273 177 C 285 189 295 200 303 211 L 327 166 Z M 99 321 C 99 281 105 247 119 221 C 132 194 150 176 173 167 L 173 470 C 148 461 129 443 117 416 C 105 389 99 357 99 321 Z" unicode="¢" />
<glyph horiz-adv-x="454" d="M 440 58 L 440 0 L 17 0 L 17 46 C 21 48 28 51 38 53 C 47 55 60 57 76 61 C 98 65 119 77 139 96 C 159 115 169 143 169 181 C 169 187 168 194 167 202 C 165 209 163 216 161 224 L 28 224 L 28 279 L 138 279 C 132 290 127 302 121 315 C 115 327 109 340 103 354 L 28 354 L 28 409 L 81 409 C 74 429 68 450 64 472 C 60 494 58 517 58 542 C 58 580 63 611 75 637 C 86 663 101 683 119 699 C 137 714 157 725 181 732 C 204 738 228 742 253 742 C 289 742 324 732 358 714 C 391 695 415 677 429 661 L 394 607 C 382 619 364 634 340 650 C 316 666 289 675 261 675 C 246 675 231 672 216 668 C 201 663 188 655 176 644 C 164 633 155 618 148 599 C 140 580 137 557 137 529 C 137 508 139 487 144 467 C 149 447 155 427 162 409 L 388 409 L 388 354 L 185 354 C 191 341 196 328 202 316 C 208 303 213 291 218 279 L 388 279 L 388 224 L 234 224 C 234 219 235 214 236 210 C 236 206 237 201 237 197 C 237 174 233 154 227 138 C 221 122 213 108 205 97 C 196 86 187 77 177 71 C 167 65 159 60 153 58 L 440 58 Z" unicode="£" />
<glyph horiz-adv-x="502" d="M 250 187 C 233 187 217 189 201 193 C 185 197 170 204 157 213 L 89 143 L 51 182 L 115 248 C 102 262 92 279 85 297 C 78 315 75 334 75 354 C 75 374 78 394 86 412 C 93 430 103 446 116 461 L 51 527 L 88 564 L 156 494 C 169 502 184 509 200 514 C 216 518 232 521 250 521 C 267 521 284 518 300 514 C 316 509 332 502 346 494 L 415 565 L 452 526 L 386 459 C 398 444 408 428 415 410 C 421 392 425 374 425 354 C 425 333 421 313 413 295 C 405 277 395 260 383 246 L 446 181 L 410 144 L 343 213 C 329 204 315 197 299 193 C 283 189 266 187 250 187 Z M 250 242 C 282 242 310 253 334 275 C 358 297 370 323 370 354 C 370 384 358 411 334 433 C 310 455 282 466 250 466 C 216 466 188 455 165 433 C 142 411 131 384 131 354 C 131 323 142 297 165 275 C 188 253 216 242 250 242 Z" unicode="¤" />
<glyph horiz-adv-x="455" d="M 419 159 L 267 159 L 267 0 L 187 0 L 187 159 L 37 159 L 37 214 L 187 214 L 187 282 L 37 282 L 37 337 L 187 337 L 9 730 L 87 730 L 228 411 L 374 730 L 447 730 L 268 337 L 419 337 L 419 282 L 267 282 L 267 214 L 419 214 L 419 159 Z" unicode="¥" />
<glyph horiz-adv-x="248" d="M 92 351 L 92 730 L 156 730 L 156 351 L 92 351 Z M 156 200 L 156 -179 L 92 -179 L 92 200 L 156 200 Z" unicode="¦" />
<glyph horiz-adv-x="521" d="M 277 -180 C 231 -180 187 -173 147 -160 C 106 -146 71 -128 43 -106 L 69 -43 C 95 -64 126 -82 162 -97 C 198 -111 232 -119 266 -119 C 298 -119 324 -109 345 -91 C 365 -72 376 -46 376 -13 C 376 17 368 41 353 57 C 338 73 317 87 291 100 L 182 159 C 156 171 134 182 116 193 C 97 203 81 215 69 228 C 57 240 48 255 42 271 C 36 287 33 307 33 331 C 33 362 39 387 53 407 C 66 427 82 443 101 456 C 84 466 72 482 64 502 C 56 522 52 546 52 576 C 52 602 57 626 67 647 C 77 667 92 685 110 699 C 128 713 149 723 173 731 C 197 738 224 742 252 742 C 302 742 343 733 376 717 C 408 700 435 681 456 661 L 421 604 C 396 625 371 643 345 659 C 319 675 288 683 250 683 C 216 683 187 673 163 654 C 139 635 128 609 128 576 C 128 553 134 534 146 519 C 158 503 178 490 204 478 L 345 404 C 389 383 422 361 446 338 C 469 314 481 282 481 241 C 481 210 470 184 450 163 C 430 142 408 130 386 126 C 392 122 399 116 407 108 C 415 100 422 91 430 80 C 438 68 444 55 449 40 C 454 24 457 7 457 -11 C 457 -63 439 -105 404 -135 C 369 -165 327 -180 277 -180 Z M 328 160 C 344 162 360 169 375 181 C 389 193 397 212 397 238 C 397 262 389 283 374 301 C 358 319 333 335 298 351 L 160 424 C 145 414 133 402 124 390 C 114 377 110 359 110 337 C 110 310 118 288 134 272 C 150 255 177 238 213 222 L 328 160 Z" unicode="§" />
<glyph horiz-adv-x="500" d="M 352 596 L 292 596 L 292 753 L 352 753 L 352 596 Z M 208 596 L 148 596 L 148 753 L 208 753 L 208 596 Z" unicode="¨" />
<glyph horiz-adv-x="797" d="M 399 35 C 350 35 304 44 261 63 C 217 81 180 107 148 139 C 116 171 91 208 73 251 C 54 294 45 340 45 389 C 45 437 54 483 73 526 C 91 569 116 606 148 638 C 180 670 217 695 261 714 C 304 732 350 742 399 742 C 447 742 493 732 536 714 C 579 695 616 670 648 638 C 680 606 705 569 724 526 C 742 483 752 437 752 389 C 752 340 742 294 724 251 C 705 208 680 171 648 139 C 616 107 579 81 536 63 C 493 44 447 35 399 35 Z M 399 83 C 440 83 479 91 516 107 C 553 123 585 144 613 172 C 641 200 663 232 679 269 C 695 306 703 346 703 388 C 703 429 695 468 679 506 C 663 543 641 575 613 603 C 585 631 553 653 516 669 C 479 685 440 694 399 694 C 357 694 317 685 280 669 C 243 653 211 631 183 603 C 155 575 134 543 118 506 C 102 468 94 429 94 388 C 94 346 102 306 118 269 C 134 232 155 200 183 172 C 211 144 243 123 280 107 C 317 91 357 83 399 83 Z M 555 253 C 540 229 520 208 494 192 C 468 175 436 167 399 167 C 375 167 351 171 329 181 C 307 191 287 205 270 223 C 253 241 239 264 229 291 C 219 318 214 349 214 383 C 214 450 231 504 266 546 C 301 587 344 608 395 608 C 435 608 467 600 492 586 C 516 572 536 553 551 531 L 505 494 C 493 510 479 524 462 534 C 445 544 423 550 396 550 C 360 550 331 534 308 502 C 284 470 273 430 273 384 C 273 358 276 335 284 315 C 291 295 300 278 312 264 C 324 250 337 239 353 232 C 368 225 384 222 400 222 C 424 222 445 228 465 240 C 484 252 499 267 511 286 L 555 253 Z" unicode="©" />
<glyph horiz-adv-x="396" d="M 350 327 L 290 327 L 290 387 C 277 366 259 350 236 338 C 212 326 187 321 160 321 C 122 321 92 332 70 354 C 48 376 37 406 37 446 C 37 489 51 521 81 543 C 110 565 149 577 197 580 L 288 588 L 288 598 C 288 628 280 649 264 663 C 248 677 227 684 200 684 C 178 684 157 680 137 672 C 117 664 99 655 84 644 L 61 687 C 77 701 99 714 125 724 C 151 734 180 740 212 740 C 254 740 287 728 312 706 C 337 684 350 648 350 598 L 350 327 Z M 289 428 L 289 537 L 193 531 C 166 529 143 522 125 509 C 106 495 97 474 97 446 C 97 423 104 405 120 393 C 135 380 154 374 178 374 C 200 374 221 378 241 388 C 261 398 277 411 289 428 Z M 350 221 L 43 221 L 43 280 L 350 280 L 350 221 Z" unicode="ª" />
<glyph horiz-adv-x="408" d="M 201 117 L 29 282 L 29 325 L 201 489 L 201 417 L 93 302 L 201 192 L 201 117 Z M 378 117 L 205 282 L 205 325 L 378 489 L 378 417 L 270 302 L 378 193 L 378 117 Z" unicode="«" />
<glyph horiz-adv-x="477" d="M 437 375 L 437 148 L 377 148 L 377 317 L 32 317 L 32 375 L 437 375 Z" unicode="¬" />
<glyph horiz-adv-x="797" d="M 399 35 C 350 35 304 44 261 63 C 217 81 180 107 148 139 C 116 171 91 208 73 251 C 54 294 45 340 45 389 C 45 437 54 483 73 526 C 91 569 116 606 148 638 C 180 670 217 695 261 714 C 304 732 350 742 399 742 C 447 742 493 732 536 714 C 579 695 616 670 648 638 C 680 606 705 569 724 526 C 742 483 752 437 752 389 C 752 340 742 294 724 251 C 705 208 680 171 648 139 C 616 107 579 81 536 63 C 493 44 447 35 399 35 Z M 399 83 C 441 83 480 90 517 106 C 554 122 586 143 614 170 C 641 197 663 229 679 267 C 695 304 703 344 703 388 C 703 431 695 471 679 509 C 663 546 641 578 614 606 C 586 633 554 654 517 670 C 480 686 441 694 399 694 C 357 694 317 686 280 670 C 242 654 210 632 183 605 C 155 577 134 545 118 508 C 102 470 94 430 94 388 C 94 345 102 305 118 268 C 134 230 155 198 183 171 C 210 143 242 122 280 106 C 317 90 357 83 399 83 Z M 277 183 L 277 610 L 413 610 C 430 610 447 607 464 603 C 481 598 496 591 509 582 C 521 572 532 560 540 545 C 548 530 552 513 552 493 C 552 456 541 428 520 408 C 498 388 475 376 449 373 L 449 369 L 581 183 L 522 183 L 396 359 L 327 359 L 327 183 L 277 183 Z M 326 404 L 417 404 C 436 404 455 410 473 424 C 491 437 501 457 502 485 C 502 512 493 532 474 544 C 455 556 432 562 406 562 L 326 562 L 326 404 Z" unicode="®" />
<glyph horiz-adv-x="500" d="M 367 617 L 133 617 L 133 679 L 367 679 L 367 617 Z" unicode="¯" />
<glyph horiz-adv-x="401" d="M 200 402 C 153 402 113 418 80 452 C 46 485 30 525 30 572 C 30 618 46 658 80 692 C 113 725 153 742 200 742 C 247 742 287 725 321 692 C 354 658 371 618 371 572 C 371 525 354 485 321 452 C 287 418 247 402 200 402 Z M 200 457 C 232 457 259 468 282 490 C 304 512 316 540 316 572 C 316 603 304 630 282 653 C 259 675 232 687 200 687 C 168 687 141 675 119 653 C 96 630 85 603 85 572 C 85 540 96 512 119 490 C 141 468 168 457 200 457 Z" unicode="°" />
<glyph horiz-adv-x="477" d="M 451 300 L 268 300 L 268 115 L 210 115 L 210 300 L 26 300 L 26 358 L 210 358 L 210 547 L 268 547 L 268 358 L 451 358 L 451 300 Z M 446 28 L 34 28 L 34 86 L 446 86 L 446 28 Z" unicode="±" />
<glyph horiz-adv-x="341" d="M 307 372 L 28 372 L 28 396 L 194 551 C 202 558 210 567 218 579 C 226 591 230 605 230 621 C 230 637 223 652 211 666 C 199 679 181 686 157 686 C 129 686 110 677 98 661 C 86 645 80 626 80 606 L 21 606 C 21 641 33 672 57 700 C 81 727 117 741 163 741 C 207 741 240 730 262 709 C 284 688 296 663 296 635 C 296 608 290 586 280 568 C 270 550 259 535 248 525 L 136 426 L 307 426 L 307 372 Z" unicode="²" />
<glyph horiz-adv-x="346" d="M 223 569 C 252 565 275 554 291 537 C 307 520 315 500 315 477 C 315 464 312 451 307 438 C 302 424 294 412 282 401 C 270 390 255 381 235 374 C 215 367 190 364 161 364 C 121 364 89 368 67 378 C 44 387 26 397 12 407 L 48 444 C 60 436 75 430 93 424 C 111 418 133 415 159 415 C 193 415 217 421 233 435 C 248 449 256 466 256 486 C 256 508 246 522 228 530 C 210 537 189 541 167 541 L 95 541 L 95 588 L 162 588 C 185 588 204 592 218 602 C 232 611 239 624 239 641 C 239 655 232 667 220 676 C 207 685 188 690 162 690 C 139 690 119 685 101 677 C 83 668 70 658 61 646 L 25 681 C 37 695 55 709 77 722 C 99 735 131 742 171 742 C 212 742 244 733 266 716 C 288 698 300 677 300 652 C 300 630 292 612 277 598 C 262 583 244 573 223 569 Z" unicode="³" />
<glyph horiz-adv-x="500" d="M 171 595 L 252 767 L 336 767 L 241 595 L 171 595 Z" unicode="´" />
<glyph horiz-adv-x="593" d="M 75 -112 L 75 533 L 148 533 L 148 161 C 148 145 151 130 159 116 C 167 102 177 91 190 81 C 202 71 217 64 233 59 C 249 53 266 51 284 51 C 301 51 319 53 338 59 C 356 64 373 72 388 83 C 403 94 415 108 425 125 C 435 141 440 161 440 184 L 440 533 L 513 533 L 513 0 L 445 0 L 445 107 C 441 92 433 78 421 64 C 409 50 396 38 380 28 C 364 17 347 8 328 2 C 309 -3 290 -7 271 -7 C 244 -7 218 -1 193 11 C 168 23 151 39 143 61 L 143 -112 L 75 -112 Z" unicode="µ" />
<glyph horiz-adv-x="531" d="M 490 -180 L 432 -179 L 432 671 L 347 671 L 347 -179 L 288 -179 L 288 307 L 232 307 C 204 307 178 312 153 324 C 127 335 105 350 86 369 C 66 387 51 409 39 435 C 27 460 22 487 22 515 C 22 545 27 574 38 600 C 49 626 64 649 84 668 C 104 687 128 702 156 713 C 184 724 215 730 249 730 L 490 730 L 490 -180 Z M 289 369 L 289 668 L 268 668 C 220 668 180 653 150 625 C 119 597 104 561 104 518 C 104 478 119 443 149 413 C 179 383 215 369 257 369 L 289 369 Z" unicode="¶" />
<glyph horiz-adv-x="241" d="M 159 292 L 83 292 L 83 411 L 159 411 L 159 292 Z" unicode="·" />
<glyph horiz-adv-x="500" d="M 250 -180 C 231 -180 212 -177 194 -171 C 176 -165 160 -157 148 -147 L 167 -117 C 175 -123 185 -130 198 -136 C 211 -142 226 -145 242 -145 C 255 -145 266 -141 276 -134 C 286 -126 291 -117 291 -106 C 291 -92 286 -83 277 -77 C 268 -71 258 -68 248 -68 C 240 -68 234 -68 228 -69 C 222 -70 216 -72 211 -75 L 201 -59 L 251 10 L 287 10 L 247 -47 C 273 -43 296 -46 315 -56 C 333 -66 343 -82 343 -106 C 343 -128 334 -146 316 -160 C 298 -173 276 -180 250 -180 Z" unicode="¸" />
<glyph horiz-adv-x="318" d="M 150 372 L 150 665 C 142 653 128 642 107 632 C 86 622 68 615 53 613 L 52 678 C 76 681 97 688 115 699 C 133 710 150 724 168 741 L 215 741 L 215 372 L 150 372 Z" unicode="¹" />
<glyph horiz-adv-x="371" d="M 182 320 C 161 320 141 324 121 334 C 101 344 84 358 70 376 C 55 394 43 415 34 441 C 25 467 21 495 21 527 C 21 555 25 581 34 607 C 42 633 54 655 69 675 C 83 694 101 709 121 721 C 141 733 162 739 185 739 C 231 739 270 720 302 682 C 334 644 350 595 350 537 C 350 506 345 477 337 451 C 328 424 316 401 301 382 C 286 362 268 347 248 336 C 227 325 205 320 182 320 Z M 185 372 C 217 372 242 387 261 418 C 279 448 289 486 289 532 C 289 574 280 609 262 639 C 244 669 219 684 185 684 C 153 684 128 668 110 638 C 91 608 82 570 82 525 C 82 479 91 442 110 414 C 129 386 154 372 185 372 Z M 40 221 L 40 280 L 332 280 L 332 221 L 40 221 Z" unicode="º" />
<glyph horiz-adv-x="408" d="M 30 490 L 203 324 L 203 282 L 30 118 L 30 190 L 138 304 L 30 414 L 30 490 Z M 207 490 L 379 324 L 379 282 L 207 118 L 207 190 L 315 304 L 207 414 L 207 490 Z" unicode="»" />
<glyph horiz-adv-x="696" d="M 12 0 L 12 0 Z M 110 372 L 110 665 C 102 653 88 642 67 632 C 46 622 28 615 13 613 L 12 678 C 36 681 57 688 75 699 C 93 710 110 724 128 741 L 175 741 L 175 372 L 110 372 Z M 570 730 L 187 0 L 125 0 L 508 730 L 570 730 Z M 385 86 L 385 131 L 577 367 L 620 367 L 620 135 L 684 135 L 684 86 L 620 86 L 620 1 L 558 1 L 558 86 L 385 86 Z M 449 133 L 560 133 L 560 274 L 449 133 Z" unicode="¼" />
<glyph horiz-adv-x="760" d="M 12 0 L 12 0 Z M 110 372 L 110 665 C 102 653 88 642 67 632 C 46 622 28 615 13 613 L 12 678 C 36 681 57 688 75 699 C 93 710 110 724 128 741 L 175 741 L 175 372 L 110 372 Z M 570 730 L 187 0 L 125 0 L 508 730 L 570 730 Z M 737 0 L 458 0 L 458 24 L 624 179 C 632 186 640 195 648 207 C 656 219 660 233 660 249 C 660 265 653 280 641 294 C 629 307 611 314 587 314 C 559 314 540 305 528 289 C 516 273 510 254 510 234 L 451 234 C 451 269 463 300 487 328 C 511 355 547 369 593 369 C 637 369 670 358 692 337 C 714 316 726 291 726 263 C 726 236 720 214 710 196 C 700 178 689 163 678 153 L 566 54 L 737 54 L 737 0 Z" unicode="½" />
<glyph horiz-adv-x="759" d="M 12 0 L 12 0 Z M 633 730 L 250 0 L 188 0 L 571 730 L 633 730 Z M 448 86 L 448 131 L 640 367 L 683 367 L 683 135 L 747 135 L 747 86 L 683 86 L 683 1 L 621 1 L 621 86 L 448 86 Z M 512 133 L 623 133 L 623 274 L 512 133 Z M 223 569 C 252 565 275 554 291 537 C 307 520 315 500 315 477 C 315 464 312 451 307 438 C 302 424 294 412 282 401 C 270 390 255 381 235 374 C 215 367 190 364 161 364 C 121 364 89 368 67 378 C 44 387 26 397 12 407 L 48 444 C 60 436 75 430 93 424 C 111 418 133 415 159 415 C 193 415 217 421 233 435 C 248 449 256 466 256 486 C 256 508 246 522 228 530 C 210 537 189 541 167 541 L 95 541 L 95 588 L 162 588 C 185 588 204 592 218 602 C 232 611 239 624 239 641 C 239 655 232 667 220 676 C 207 685 188 690 162 690 C 139 690 119 685 101 677 C 83 668 70 658 61 646 L 25 681 C 37 695 55 709 77 722 C 99 735 131 742 171 742 C 212 742 244 733 266 716 C 288 698 300 677 300 652 C 300 630 292 612 277 598 C 262 583 244 573 223 569 Z" unicode="¾" />
<glyph horiz-adv-x="423" d="M 184 517 L 184 615 L 265 615 L 265 517 L 184 517 Z M 207 -127 C 152 -127 109 -112 77 -82 C 45 -52 30 -10 30 44 C 30 69 33 92 40 113 C 47 133 56 152 67 170 C 77 187 89 203 102 218 C 115 233 128 248 140 262 C 160 282 173 308 179 338 C 185 368 189 396 190 422 L 262 422 C 262 377 256 340 246 310 C 235 280 218 252 196 226 C 187 215 177 204 167 193 C 157 181 147 169 139 155 C 130 141 123 127 117 111 C 111 95 109 77 109 58 C 109 22 119 -5 140 -26 C 161 -46 188 -57 220 -57 C 247 -57 271 -49 293 -35 C 314 -20 332 -2 347 19 L 395 -26 C 371 -58 343 -83 310 -101 C 277 -118 243 -127 207 -127 Z" unicode="¿" />
<glyph horiz-adv-x="471" d="M 3 0 L 3 0 Z M 467 0 L 391 0 L 338 194 L 128 194 L 77 0 L 3 0 L 207 734 L 262 734 L 467 0 Z M 328 251 L 232 602 L 139 251 L 328 251 Z M 235 792 L 235 792 Z M 317 792 L 247 792 L 152 964 L 236 964 L 317 792 Z" unicode="À" />
<glyph horiz-adv-x="471" d="M 3 0 L 3 0 Z M 467 0 L 391 0 L 338 194 L 128 194 L 77 0 L 3 0 L 207 734 L 262 734 L 467 0 Z M 328 251 L 232 602 L 139 251 L 328 251 Z M 235 792 L 235 792 Z M 153 792 L 234 964 L 318 964 L 223 792 L 153 792 Z" unicode="Á" />
<glyph horiz-adv-x="471" d="M 3 0 L 3 0 Z M 467 0 L 391 0 L 338 194 L 128 194 L 77 0 L 3 0 L 207 734 L 262 734 L 467 0 Z M 328 251 L 232 602 L 139 251 L 328 251 Z M 235 793 L 235 793 Z M 363 793 L 299 793 L 235 908 L 170 793 L 108 793 L 204 963 L 267 963 L 363 793 Z" unicode="Â" />
<glyph horiz-adv-x="471" d="M 3 0 L 3 0 Z M 467 0 L 391 0 L 338 194 L 128 194 L 77 0 L 3 0 L 207 734 L 262 734 L 467 0 Z M 328 251 L 232 602 L 139 251 L 328 251 Z M 235 800 L 235 800 Z M 325 931 L 379 931 C 379 887 373 854 361 832 C 349 810 334 800 315 800 C 297 800 282 804 269 812 C 255 820 244 828 236 836 C 226 844 217 851 208 858 C 199 865 190 869 182 869 C 173 869 165 863 158 851 C 151 839 148 824 148 805 L 92 805 C 92 849 100 881 116 903 C 132 925 150 936 169 936 C 183 936 196 932 208 924 C 219 916 230 907 241 898 C 249 890 258 883 267 877 C 275 871 284 868 293 868 C 301 868 308 873 315 884 C 321 895 325 911 325 931 Z" unicode="Ã" />
<glyph horiz-adv-x="471" d="M 3 0 L 3 0 Z M 467 0 L 391 0 L 338 194 L 128 194 L 77 0 L 3 0 L 207 734 L 262 734 L 467 0 Z M 328 251 L 232 602 L 139 251 L 328 251 Z M 235 793 L 235 793 Z M 337 793 L 277 793 L 277 950 L 337 950 L 337 793 Z M 193 793 L 133 793 L 133 950 L 193 950 L 193 793 Z" unicode="Ä" />
<glyph horiz-adv-x="471" d="M 3 0 L 3 0 Z M 467 0 L 391 0 L 338 194 L 128 194 L 77 0 L 3 0 L 207 734 L 262 734 L 467 0 Z M 328 251 L 232 602 L 139 251 L 328 251 Z M 235 775 L 235 775 Z M 235 775 C 202 775 174 786 151 810 C 127 833 116 861 116 894 C 116 926 127 954 151 978 C 174 1001 202 1013 235 1013 C 268 1013 296 1001 319 978 C 342 954 354 926 354 894 C 354 861 342 833 319 810 C 296 786 268 775 235 775 Z M 236 820 C 256 820 273 827 287 841 C 301 855 308 873 308 894 C 308 914 301 932 287 946 C 273 960 256 968 236 968 C 215 968 198 960 184 946 C 170 932 163 914 163 894 C 163 873 170 855 184 841 C 198 827 215 820 236 820 Z" unicode="Å" />
<glyph horiz-adv-x="711" d="M 693 0 L 387 0 L 387 221 L 180 221 L 76 0 L -1 0 L 341 730 L 677 730 L 677 661 L 463 661 L 463 398 L 669 398 L 669 331 L 463 331 L 463 69 L 693 69 L 693 0 Z M 387 285 L 388 677 L 207 285 L 387 285 Z" unicode="Æ" />
<glyph horiz-adv-x="519" d="M 37 0 L 37 0 Z M 282 -7 C 246 -7 214 0 184 16 C 154 31 128 54 106 85 C 84 115 67 154 55 201 C 43 248 37 303 37 366 C 37 484 58 576 100 640 C 142 704 202 737 281 737 C 337 737 381 722 412 694 C 442 665 464 629 478 585 L 406 561 C 394 591 379 617 361 638 C 343 658 316 669 280 669 C 229 669 189 645 160 597 C 131 549 117 470 117 362 C 117 307 121 260 131 222 C 141 183 153 152 169 128 C 185 104 203 87 223 77 C 243 66 263 61 285 61 C 323 61 353 72 374 94 C 395 116 412 146 424 182 L 490 152 C 472 102 446 63 412 35 C 378 7 334 -7 282 -7 Z M 273 0 L 273 0 Z M 278 -180 C 259 -180 240 -177 222 -171 C 204 -165 188 -157 176 -147 L 195 -117 C 203 -123 213 -130 226 -136 C 239 -142 254 -145 270 -145 C 283 -145 294 -141 304 -134 C 314 -126 319 -117 319 -106 C 319 -92 314 -83 305 -77 C 296 -71 286 -68 276 -68 C 268 -68 262 -68 256 -69 C 250 -70 244 -72 239 -75 L 229 -59 L 279 10 L 315 10 L 275 -47 C 301 -43 324 -46 343 -56 C 361 -66 371 -82 371 -106 C 371 -128 362 -146 344 -160 C 326 -173 304 -180 278 -180 Z" unicode="Ç" />
<glyph horiz-adv-x="392" d="M 66 0 L 66 0 Z M 375 0 L 66 0 L 66 730 L 358 730 L 358 661 L 144 661 L 144 398 L 351 398 L 351 331 L 144 331 L 144 69 L 375 69 L 375 0 Z M 214 792 L 214 792 Z M 296 792 L 226 792 L 131 964 L 215 964 L 296 792 Z" unicode="È" />
<glyph horiz-adv-x="392" d="M 66 0 L 66 0 Z M 375 0 L 66 0 L 66 730 L 358 730 L 358 661 L 144 661 L 144 398 L 351 398 L 351 331 L 144 331 L 144 69 L 375 69 L 375 0 Z M 214 792 L 214 792 Z M 132 792 L 213 964 L 297 964 L 202 792 L 132 792 Z" unicode="É" />
<glyph horiz-adv-x="392" d="M 66 0 L 66 0 Z M 375 0 L 66 0 L 66 730 L 358 730 L 358 661 L 144 661 L 144 398 L 351 398 L 351 331 L 144 331 L 144 69 L 375 69 L 375 0 Z M 214 793 L 214 793 Z M 342 793 L 278 793 L 214 908 L 149 793 L 87 793 L 183 963 L 246 963 L 342 793 Z" unicode="Ê" />
<glyph horiz-adv-x="392" d="M 66 0 L 66 0 Z M 375 0 L 66 0 L 66 730 L 358 730 L 358 661 L 144 661 L 144 398 L 351 398 L 351 331 L 144 331 L 144 69 L 375 69 L 375 0 Z M 214 793 L 214 793 Z M 316 793 L 256 793 L 256 950 L 316 950 L 316 793 Z M 172 793 L 112 793 L 112 950 L 172 950 L 172 793 Z" unicode="Ë" />
<glyph horiz-adv-x="221" d="M 27 0 L 27 0 Z M 151 0 L 70 0 L 70 730 L 151 730 L 151 0 Z M 110 792 L 110 792 Z M 192 792 L 122 792 L 27 964 L 111 964 L 192 792 Z" unicode="Ì" />
<glyph horiz-adv-x="221" d="M 28 0 L 28 0 Z M 151 0 L 70 0 L 70 730 L 151 730 L 151 0 Z M 110 792 L 110 792 Z M 28 792 L 109 964 L 193 964 L 98 792 L 28 792 Z" unicode="Í" />
<glyph horiz-adv-x="221" d="M 0 0 L 0 0 Z M 151 0 L 70 0 L 70 730 L 151 730 L 151 0 Z M 110 793 L 110 793 Z M 238 793 L 174 793 L 110 908 L 45 793 L -17 793 L 79 963 L 142 963 L 238 793 Z" unicode="Î" />
<glyph horiz-adv-x="221" d="M 8 0 L 8 0 Z M 151 0 L 70 0 L 70 730 L 151 730 L 151 0 Z M 110 793 L 110 793 Z M 212 793 L 152 793 L 152 950 L 212 950 L 212 793 Z M 68 793 L 8 793 L 8 950 L 68 950 L 68 793 Z" unicode="Ï" />
<glyph horiz-adv-x="538" d="M 501 364 C 501 313 495 265 483 221 C 471 177 454 138 430 106 C 406 73 376 47 340 28 C 304 9 261 0 213 0 L 66 0 L 66 330 L 22 330 L 22 393 L 66 393 L 66 730 L 220 730 C 265 730 305 721 340 704 C 375 686 404 662 428 631 C 452 599 470 561 482 516 C 494 470 501 420 501 364 Z M 145 62 L 211 62 C 249 62 281 69 308 84 C 334 98 356 119 372 145 C 388 171 400 203 408 240 C 416 277 420 318 420 362 C 420 463 402 539 367 591 C 332 642 283 668 221 668 L 145 668 L 145 393 L 278 393 L 278 330 L 145 330 L 145 62 Z" unicode="Ð" />
<glyph horiz-adv-x="536" d="M 66 0 L 66 0 Z M 470 0 L 412 0 L 141 541 L 141 0 L 66 0 L 66 730 L 123 730 L 397 183 L 397 730 L 470 730 L 470 0 Z M 269 800 L 269 800 Z M 359 931 L 413 931 C 413 887 407 854 395 832 C 383 810 368 800 349 800 C 331 800 316 804 303 812 C 289 820 278 828 270 836 C 260 844 251 851 242 858 C 233 865 224 869 216 869 C 207 869 199 863 192 851 C 185 839 182 824 182 805 L 126 805 C 126 849 134 881 150 903 C 166 925 184 936 203 936 C 217 936 230 932 242 924 C 253 916 264 907 275 898 C 283 890 292 883 301 877 C 309 871 318 868 327 868 C 335 868 342 873 349 884 C 355 895 359 911 359 931 Z" unicode="Ñ" />
<glyph horiz-adv-x="574" d="M 37 0 L 37 0 Z M 289 -7 C 211 -7 150 25 105 90 C 59 154 37 248 37 371 C 37 486 59 576 105 640 C 150 704 210 737 284 737 C 364 737 426 705 470 641 C 514 577 537 485 537 365 C 537 307 530 254 518 208 C 506 162 489 123 467 91 C 445 59 419 35 389 18 C 358 1 325 -7 289 -7 Z M 288 56 C 338 56 378 82 408 134 C 438 186 454 265 454 372 C 454 471 438 546 408 597 C 377 648 336 674 285 674 C 233 674 192 648 163 598 C 134 547 120 469 120 365 C 120 259 135 181 167 131 C 198 81 238 56 288 56 Z M 287 792 L 287 792 Z M 369 792 L 299 792 L 204 964 L 288 964 L 369 792 Z" unicode="Ò" />
<glyph horiz-adv-x="574" d="M 37 0 L 37 0 Z M 289 -7 C 211 -7 150 25 105 90 C 59 154 37 248 37 371 C 37 486 59 576 105 640 C 150 704 210 737 284 737 C 364 737 426 705 470 641 C 514 577 537 485 537 365 C 537 307 530 254 518 208 C 506 162 489 123 467 91 C 445 59 419 35 389 18 C 358 1 325 -7 289 -7 Z M 288 56 C 338 56 378 82 408 134 C 438 186 454 265 454 372 C 454 471 438 546 408 597 C 377 648 336 674 285 674 C 233 674 192 648 163 598 C 134 547 120 469 120 365 C 120 259 135 181 167 131 C 198 81 238 56 288 56 Z M 287 792 L 287 792 Z M 205 792 L 286 964 L 370 964 L 275 792 L 205 792 Z" unicode="Ó" />
<glyph horiz-adv-x="574" d="M 37 0 L 37 0 Z M 289 -7 C 211 -7 150 25 105 90 C 59 154 37 248 37 371 C 37 486 59 576 105 640 C 150 704 210 737 284 737 C 364 737 426 705 470 641 C 514 577 537 485 537 365 C 537 307 530 254 518 208 C 506 162 489 123 467 91 C 445 59 419 35 389 18 C 358 1 325 -7 289 -7 Z M 288 56 C 338 56 378 82 408 134 C 438 186 454 265 454 372 C 454 471 438 546 408 597 C 377 648 336 674 285 674 C 233 674 192 648 163 598 C 134 547 120 469 120 365 C 120 259 135 181 167 131 C 198 81 238 56 288 56 Z M 287 793 L 287 793 Z M 415 793 L 351 793 L 287 908 L 222 793 L 160 793 L 256 963 L 319 963 L 415 793 Z" unicode="Ô" />
<glyph horiz-adv-x="574" d="M 37 0 L 37 0 Z M 289 -7 C 211 -7 150 25 105 90 C 59 154 37 248 37 371 C 37 486 59 576 105 640 C 150 704 210 737 284 737 C 364 737 426 705 470 641 C 514 577 537 485 537 365 C 537 307 530 254 518 208 C 506 162 489 123 467 91 C 445 59 419 35 389 18 C 358 1 325 -7 289 -7 Z M 288 56 C 338 56 378 82 408 134 C 438 186 454 265 454 372 C 454 471 438 546 408 597 C 377 648 336 674 285 674 C 233 674 192 648 163 598 C 134 547 120 469 120 365 C 120 259 135 181 167 131 C 198 81 238 56 288 56 Z M 287 800 L 287 800 Z M 377 931 L 431 931 C 431 887 425 854 413 832 C 401 810 386 800 367 800 C 349 800 334 804 321 812 C 307 820 296 828 288 836 C 278 844 269 851 260 858 C 251 865 242 869 234 869 C 225 869 217 863 210 851 C 203 839 200 824 200 805 L 144 805 C 144 849 152 881 168 903 C 184 925 202 936 221 936 C 235 936 248 932 260 924 C 271 916 282 907 293 898 C 301 890 310 883 319 877 C 327 871 336 868 345 868 C 353 868 360 873 367 884 C 373 895 377 911 377 931 Z" unicode="Õ" />
<glyph horiz-adv-x="574" d="M 37 0 L 37 0 Z M 289 -7 C 211 -7 150 25 105 90 C 59 154 37 248 37 371 C 37 486 59 576 105 640 C 150 704 210 737 284 737 C 364 737 426 705 470 641 C 514 577 537 485 537 365 C 537 307 530 254 518 208 C 506 162 489 123 467 91 C 445 59 419 35 389 18 C 358 1 325 -7 289 -7 Z M 288 56 C 338 56 378 82 408 134 C 438 186 454 265 454 372 C 454 471 438 546 408 597 C 377 648 336 674 285 674 C 233 674 192 648 163 598 C 134 547 120 469 120 365 C 120 259 135 181 167 131 C 198 81 238 56 288 56 Z M 287 793 L 287 793 Z M 389 793 L 329 793 L 329 950 L 389 950 L 389 793 Z M 245 793 L 185 793 L 185 950 L 245 950 L 245 793 Z" unicode="Ö" />
<glyph horiz-adv-x="477" d="M 103 154 L 65 193 L 200 328 L 65 463 L 104 502 L 239 367 L 374 502 L 413 463 L 278 328 L 413 193 L 375 153 L 239 290 L 103 154 Z" unicode="×" />
<glyph horiz-adv-x="574" d="M 537 365 C 537 307 530 254 518 208 C 506 162 489 123 467 91 C 445 59 419 35 389 18 C 358 1 325 -7 289 -7 C 253 -7 221 0 192 13 C 162 27 137 47 116 74 L 63 -5 L 19 24 L 85 122 C 69 152 57 188 49 230 C 41 272 37 319 37 371 C 37 486 59 576 105 640 C 150 704 210 737 284 737 C 318 737 350 730 379 718 C 407 706 432 688 453 665 L 510 749 L 554 721 L 485 619 C 501 588 514 551 523 509 C 532 466 537 418 537 365 Z M 120 365 C 120 332 121 302 125 275 C 128 247 133 223 139 201 L 408 598 C 393 623 375 642 354 655 C 333 667 310 674 285 674 C 233 674 192 648 163 598 C 134 547 120 469 120 365 Z M 454 372 C 454 406 452 437 448 465 C 444 493 438 518 432 541 L 161 141 C 175 112 193 91 215 77 C 237 63 261 56 288 56 C 338 56 378 82 408 134 C 438 186 454 265 454 372 Z" unicode="Ø" />
<glyph horiz-adv-x="535" d="M 62 0 L 62 0 Z M 472 730 L 472 214 C 472 174 466 139 455 111 C 443 83 428 60 409 43 C 390 25 368 13 343 5 C 317 -3 291 -7 263 -7 C 236 -7 210 -3 186 4 C 162 12 140 24 122 41 C 104 58 89 81 78 109 C 67 137 62 172 62 214 L 62 730 L 142 730 L 142 214 C 142 158 153 118 177 96 C 201 73 230 62 266 62 C 300 62 329 72 353 94 C 377 116 389 156 389 214 L 389 730 L 472 730 Z M 266 792 L 266 792 Z M 348 792 L 278 792 L 183 964 L 267 964 L 348 792 Z" unicode="Ù" />
<glyph horiz-adv-x="535" d="M 62 0 L 62 0 Z M 472 730 L 472 214 C 472 174 466 139 455 111 C 443 83 428 60 409 43 C 390 25 368 13 343 5 C 317 -3 291 -7 263 -7 C 236 -7 210 -3 186 4 C 162 12 140 24 122 41 C 104 58 89 81 78 109 C 67 137 62 172 62 214 L 62 730 L 142 730 L 142 214 C 142 158 153 118 177 96 C 201 73 230 62 266 62 C 300 62 329 72 353 94 C 377 116 389 156 389 214 L 389 730 L 472 730 Z M 266 792 L 266 792 Z M 184 792 L 265 964 L 349 964 L 254 792 L 184 792 Z" unicode="Ú" />
<glyph horiz-adv-x="535" d="M 62 0 L 62 0 Z M 472 730 L 472 214 C 472 174 466 139 455 111 C 443 83 428 60 409 43 C 390 25 368 13 343 5 C 317 -3 291 -7 263 -7 C 236 -7 210 -3 186 4 C 162 12 140 24 122 41 C 104 58 89 81 78 109 C 67 137 62 172 62 214 L 62 730 L 142 730 L 142 214 C 142 158 153 118 177 96 C 201 73 230 62 266 62 C 300 62 329 72 353 94 C 377 116 389 156 389 214 L 389 730 L 472 730 Z M 266 793 L 266 793 Z M 394 793 L 330 793 L 266 908 L 201 793 L 139 793 L 235 963 L 298 963 L 394 793 Z" unicode="Û" />
<glyph horiz-adv-x="535" d="M 62 0 L 62 0 Z M 472 730 L 472 214 C 472 174 466 139 455 111 C 443 83 428 60 409 43 C 390 25 368 13 343 5 C 317 -3 291 -7 263 -7 C 236 -7 210 -3 186 4 C 162 12 140 24 122 41 C 104 58 89 81 78 109 C 67 137 62 172 62 214 L 62 730 L 142 730 L 142 214 C 142 158 153 118 177 96 C 201 73 230 62 266 62 C 300 62 329 72 353 94 C 377 116 389 156 389 214 L 389 730 L 472 730 Z M 266 793 L 266 793 Z M 368 793 L 308 793 L 308 950 L 368 950 L 368 793 Z M 224 793 L 164 793 L 164 950 L 224 950 L 224 793 Z" unicode="Ü" />
<glyph horiz-adv-x="454" d="M 0 0 L 0 0 Z M 454 730 L 264 321 L 264 0 L 184 0 L 184 322 L 0 730 L 92 730 L 230 403 L 378 730 L 454 730 Z M 230 792 L 230 792 Z M 148 792 L 229 964 L 313 964 L 218 792 L 148 792 Z" unicode="Ý" />
<glyph horiz-adv-x="433" d="M 66 0 L 66 730 L 146 730 L 146 597 L 227 597 C 252 597 276 592 299 583 C 322 574 342 561 360 543 C 377 525 391 504 401 478 C 411 452 416 422 416 388 C 416 317 397 263 360 225 C 323 187 278 168 224 168 L 146 168 L 146 0 L 66 0 Z M 144 232 L 219 232 C 255 232 285 245 308 272 C 330 299 342 338 342 388 C 342 435 329 471 304 495 C 278 519 250 531 220 531 L 144 531 L 144 232 Z" unicode="Þ" />
<glyph horiz-adv-x="459" d="M 320 -5 C 289 -5 262 1 238 15 C 214 28 196 46 182 68 L 222 117 C 234 98 247 84 262 74 C 277 64 294 59 312 59 C 328 59 344 65 359 79 C 373 93 381 112 381 138 C 381 162 372 183 355 200 C 338 216 315 235 287 256 C 255 278 231 299 215 319 C 199 339 191 367 191 404 C 191 438 200 466 218 488 C 236 510 258 523 282 529 C 290 531 297 541 304 558 C 311 575 315 601 316 635 C 316 675 306 703 288 718 C 270 732 249 740 227 740 C 200 740 178 730 161 711 C 144 691 136 662 136 624 L 136 0 L 62 0 L 62 626 C 62 682 76 725 106 756 C 136 786 175 802 224 802 C 269 802 307 787 337 759 C 367 730 382 687 382 629 C 382 583 375 546 363 519 C 351 492 337 477 323 473 C 305 473 290 467 276 456 C 262 445 255 429 255 407 C 255 387 262 371 276 359 C 290 347 313 329 346 305 C 378 280 403 255 419 231 C 435 206 444 174 444 134 C 444 110 440 89 432 71 C 424 53 414 39 402 28 C 390 16 376 8 362 3 C 347 -2 333 -5 320 -5 Z" unicode="ß" />
<glyph horiz-adv-x="363" d="M 21 0 L 21 0 Z M 319 0 L 257 0 L 257 56 C 242 36 226 21 210 11 C 193 0 170 -5 141 -5 C 107 -5 79 8 56 36 C 32 64 21 104 21 157 C 21 213 36 254 66 280 C 96 306 132 321 172 325 L 249 332 L 249 386 C 249 416 242 438 229 453 C 215 467 196 475 171 475 C 148 475 128 470 112 461 C 95 452 82 443 74 434 L 51 494 C 63 506 81 517 103 527 C 125 536 153 541 185 541 C 225 541 258 529 282 506 C 306 482 319 449 319 405 L 319 0 Z M 251 105 L 251 282 L 189 275 C 162 272 139 261 121 243 C 102 225 93 195 93 154 C 93 118 100 91 116 75 C 131 59 148 51 167 51 C 187 51 204 56 218 67 C 231 77 242 90 251 105 Z M 178 595 L 178 595 Z M 260 595 L 190 595 L 95 767 L 179 767 L 260 595 Z" unicode="à" />
<glyph horiz-adv-x="363" d="M 21 0 L 21 0 Z M 319 0 L 257 0 L 257 56 C 242 36 226 21 210 11 C 193 0 170 -5 141 -5 C 107 -5 79 8 56 36 C 32 64 21 104 21 157 C 21 213 36 254 66 280 C 96 306 132 321 172 325 L 249 332 L 249 386 C 249 416 242 438 229 453 C 215 467 196 475 171 475 C 148 475 128 470 112 461 C 95 452 82 443 74 434 L 51 494 C 63 506 81 517 103 527 C 125 536 153 541 185 541 C 225 541 258 529 282 506 C 306 482 319 449 319 405 L 319 0 Z M 251 105 L 251 282 L 189 275 C 162 272 139 261 121 243 C 102 225 93 195 93 154 C 93 118 100 91 116 75 C 131 59 148 51 167 51 C 187 51 204 56 218 67 C 231 77 242 90 251 105 Z M 178 595 L 178 595 Z M 96 595 L 177 767 L 261 767 L 166 595 L 96 595 Z" unicode="á" />
<glyph horiz-adv-x="363" d="M 21 0 L 21 0 Z M 319 0 L 257 0 L 257 56 C 242 36 226 21 210 11 C 193 0 170 -5 141 -5 C 107 -5 79 8 56 36 C 32 64 21 104 21 157 C 21 213 36 254 66 280 C 96 306 132 321 172 325 L 249 332 L 249 386 C 249 416 242 438 229 453 C 215 467 196 475 171 475 C 148 475 128 470 112 461 C 95 452 82 443 74 434 L 51 494 C 63 506 81 517 103 527 C 125 536 153 541 185 541 C 225 541 258 529 282 506 C 306 482 319 449 319 405 L 319 0 Z M 251 105 L 251 282 L 189 275 C 162 272 139 261 121 243 C 102 225 93 195 93 154 C 93 118 100 91 116 75 C 131 59 148 51 167 51 C 187 51 204 56 218 67 C 231 77 242 90 251 105 Z M 178 596 L 178 596 Z M 306 596 L 242 596 L 178 711 L 113 596 L 51 596 L 147 766 L 210 766 L 306 596 Z" unicode="â" />
<glyph horiz-adv-x="363" d="M 21 0 L 21 0 Z M 319 0 L 257 0 L 257 56 C 242 36 226 21 210 11 C 193 0 170 -5 141 -5 C 107 -5 79 8 56 36 C 32 64 21 104 21 157 C 21 213 36 254 66 280 C 96 306 132 321 172 325 L 249 332 L 249 386 C 249 416 242 438 229 453 C 215 467 196 475 171 475 C 148 475 128 470 112 461 C 95 452 82 443 74 434 L 51 494 C 63 506 81 517 103 527 C 125 536 153 541 185 541 C 225 541 258 529 282 506 C 306 482 319 449 319 405 L 319 0 Z M 251 105 L 251 282 L 189 275 C 162 272 139 261 121 243 C 102 225 93 195 93 154 C 93 118 100 91 116 75 C 131 59 148 51 167 51 C 187 51 204 56 218 67 C 231 77 242 90 251 105 Z M 178 603 L 178 603 Z M 268 734 L 322 734 C 322 690 316 657 304 635 C 292 613 277 603 258 603 C 240 603 225 607 212 615 C 198 623 187 631 179 639 C 169 647 160 654 151 661 C 142 668 133 672 125 672 C 116 672 108 666 101 654 C 94 642 91 627 91 608 L 35 608 C 35 652 43 684 59 706 C 75 728 93 739 112 739 C 126 739 139 735 151 727 C 162 719 173 710 184 701 C 192 693 201 686 210 680 C 218 674 227 671 236 671 C 244 671 251 676 258 687 C 264 698 268 714 268 734 Z" unicode="ã" />
<glyph horiz-adv-x="363" d="M 21 0 L 21 0 Z M 319 0 L 257 0 L 257 56 C 242 36 226 21 210 11 C 193 0 170 -5 141 -5 C 107 -5 79 8 56 36 C 32 64 21 104 21 157 C 21 213 36 254 66 280 C 96 306 132 321 172 325 L 249 332 L 249 386 C 249 416 242 438 229 453 C 215 467 196 475 171 475 C 148 475 128 470 112 461 C 95 452 82 443 74 434 L 51 494 C 63 506 81 517 103 527 C 125 536 153 541 185 541 C 225 541 258 529 282 506 C 306 482 319 449 319 405 L 319 0 Z M 251 105 L 251 282 L 189 275 C 162 272 139 261 121 243 C 102 225 93 195 93 154 C 93 118 100 91 116 75 C 131 59 148 51 167 51 C 187 51 204 56 218 67 C 231 77 242 90 251 105 Z M 178 596 L 178 596 Z M 280 596 L 220 596 L 220 753 L 280 753 L 280 596 Z M 136 596 L 76 596 L 76 753 L 136 753 L 136 596 Z" unicode="ä" />
<glyph horiz-adv-x="363" d="M 21 0 L 21 0 Z M 319 0 L 257 0 L 257 56 C 242 36 226 21 210 11 C 193 0 170 -5 141 -5 C 107 -5 79 8 56 36 C 32 64 21 104 21 157 C 21 213 36 254 66 280 C 96 306 132 321 172 325 L 249 332 L 249 386 C 249 416 242 438 229 453 C 215 467 196 475 171 475 C 148 475 128 470 112 461 C 95 452 82 443 74 434 L 51 494 C 63 506 81 517 103 527 C 125 536 153 541 185 541 C 225 541 258 529 282 506 C 306 482 319 449 319 405 L 319 0 Z M 251 105 L 251 282 L 189 275 C 162 272 139 261 121 243 C 102 225 93 195 93 154 C 93 118 100 91 116 75 C 131 59 148 51 167 51 C 187 51 204 56 218 67 C 231 77 242 90 251 105 Z M 178 578 L 178 578 Z M 178 578 C 145 578 117 589 94 613 C 70 636 59 664 59 697 C 59 729 70 757 94 781 C 117 804 145 816 178 816 C 211 816 239 804 262 781 C 285 757 297 729 297 697 C 297 664 285 636 262 613 C 239 589 211 578 178 578 Z M 179 623 C 199 623 216 630 230 644 C 244 658 251 676 251 697 C 251 717 244 735 230 749 C 216 763 199 771 179 771 C 158 771 141 763 127 749 C 113 735 106 717 106 697 C 106 676 113 658 127 644 C 141 630 158 623 179 623 Z" unicode="å" />
<glyph horiz-adv-x="599" d="M 413 -5 C 393 -5 375 -1 361 5 C 346 12 333 21 323 31 C 312 41 303 53 297 65 C 290 77 285 88 281 99 C 273 63 256 37 230 20 C 204 3 176 -5 145 -5 C 113 -5 85 8 60 36 C 34 64 22 104 22 156 C 22 213 37 254 67 280 C 97 306 132 320 172 324 L 249 331 L 249 356 C 249 402 241 434 227 450 C 213 466 193 475 168 475 C 145 475 126 470 110 461 C 94 452 82 444 74 436 L 52 494 C 65 506 82 517 102 526 C 122 535 148 540 180 540 C 208 540 233 532 255 517 C 276 501 288 475 292 438 C 298 460 311 482 331 504 C 351 525 379 536 415 536 C 467 536 507 510 536 459 C 565 407 580 338 580 252 L 318 252 C 318 197 327 151 345 114 C 363 77 390 59 426 59 C 452 59 474 66 490 80 C 506 94 520 109 531 124 L 566 85 C 553 64 534 44 510 24 C 486 4 453 -5 413 -5 Z M 317 302 L 509 302 C 509 354 500 395 483 427 C 466 459 443 475 415 475 C 388 475 366 459 348 429 C 330 398 319 356 317 302 Z M 167 51 C 187 51 205 58 223 72 C 241 86 250 111 251 145 L 251 280 L 189 274 C 162 271 139 261 121 243 C 102 225 93 195 93 154 C 93 118 100 91 116 75 C 132 59 149 51 167 51 Z" unicode="æ" />
<glyph horiz-adv-x="344" d="M 23 0 L 23 0 Z M 294 122 L 331 79 C 320 58 305 39 285 21 C 265 3 237 -5 203 -5 C 173 -5 147 1 125 15 C 103 28 84 46 69 70 C 53 94 42 122 34 156 C 26 189 23 225 23 265 C 23 301 26 335 34 369 C 41 402 52 431 67 456 C 81 480 100 500 123 515 C 145 529 171 537 201 537 C 236 537 265 527 287 507 C 309 487 325 465 335 443 L 283 404 C 275 421 264 436 252 450 C 239 464 222 471 201 471 C 167 471 142 452 125 414 C 107 376 99 328 99 268 C 99 198 109 145 130 110 C 150 75 177 58 211 58 C 235 58 254 65 266 80 C 278 94 287 108 294 122 Z M 188 0 L 188 0 Z M 193 -180 C 174 -180 155 -177 137 -171 C 119 -165 103 -157 91 -147 L 110 -117 C 118 -123 128 -130 141 -136 C 154 -142 169 -145 185 -145 C 198 -145 209 -141 219 -134 C 229 -126 234 -117 234 -106 C 234 -92 229 -83 220 -77 C 211 -71 201 -68 191 -68 C 183 -68 177 -68 171 -69 C 165 -70 159 -72 154 -75 L 144 -59 L 194 10 L 230 10 L 190 -47 C 216 -43 239 -46 258 -56 C 276 -66 286 -82 286 -106 C 286 -128 277 -146 259 -160 C 241 -173 219 -180 193 -180 Z" unicode="ç" />
<glyph horiz-adv-x="376" d="M 23 0 L 23 0 Z M 194 -5 C 168 -5 144 1 123 14 C 101 27 83 45 69 69 C 54 92 43 120 35 153 C 27 186 23 223 23 263 C 23 345 39 412 71 462 C 103 512 144 537 192 537 C 246 537 287 510 315 458 C 343 406 357 336 357 250 L 96 250 C 96 196 105 150 124 114 C 142 78 170 60 206 60 C 232 60 253 67 269 81 C 285 95 299 110 309 125 L 342 85 C 329 64 310 44 286 24 C 262 4 231 -5 194 -5 Z M 94 302 L 286 302 C 286 356 277 398 260 429 C 242 459 220 475 194 475 C 165 475 142 460 124 430 C 106 400 96 357 94 302 Z M 193 595 L 193 595 Z M 275 595 L 205 595 L 110 767 L 194 767 L 275 595 Z" unicode="è" />
<glyph horiz-adv-x="376" d="M 23 0 L 23 0 Z M 194 -5 C 168 -5 144 1 123 14 C 101 27 83 45 69 69 C 54 92 43 120 35 153 C 27 186 23 223 23 263 C 23 345 39 412 71 462 C 103 512 144 537 192 537 C 246 537 287 510 315 458 C 343 406 357 336 357 250 L 96 250 C 96 196 105 150 124 114 C 142 78 170 60 206 60 C 232 60 253 67 269 81 C 285 95 299 110 309 125 L 342 85 C 329 64 310 44 286 24 C 262 4 231 -5 194 -5 Z M 94 302 L 286 302 C 286 356 277 398 260 429 C 242 459 220 475 194 475 C 165 475 142 460 124 430 C 106 400 96 357 94 302 Z M 193 595 L 193 595 Z M 111 595 L 192 767 L 276 767 L 181 595 L 111 595 Z" unicode="é" />
<glyph horiz-adv-x="376" d="M 23 0 L 23 0 Z M 194 -5 C 168 -5 144 1 123 14 C 101 27 83 45 69 69 C 54 92 43 120 35 153 C 27 186 23 223 23 263 C 23 345 39 412 71 462 C 103 512 144 537 192 537 C 246 537 287 510 315 458 C 343 406 357 336 357 250 L 96 250 C 96 196 105 150 124 114 C 142 78 170 60 206 60 C 232 60 253 67 269 81 C 285 95 299 110 309 125 L 342 85 C 329 64 310 44 286 24 C 262 4 231 -5 194 -5 Z M 94 302 L 286 302 C 286 356 277 398 260 429 C 242 459 220 475 194 475 C 165 475 142 460 124 430 C 106 400 96 357 94 302 Z M 193 596 L 193 596 Z M 321 596 L 257 596 L 193 711 L 128 596 L 66 596 L 162 766 L 225 766 L 321 596 Z" unicode="ê" />
<glyph horiz-adv-x="376" d="M 23 0 L 23 0 Z M 194 -5 C 168 -5 144 1 123 14 C 101 27 83 45 69 69 C 54 92 43 120 35 153 C 27 186 23 223 23 263 C 23 345 39 412 71 462 C 103 512 144 537 192 537 C 246 537 287 510 315 458 C 343 406 357 336 357 250 L 96 250 C 96 196 105 150 124 114 C 142 78 170 60 206 60 C 232 60 253 67 269 81 C 285 95 299 110 309 125 L 342 85 C 329 64 310 44 286 24 C 262 4 231 -5 194 -5 Z M 94 302 L 286 302 C 286 356 277 398 260 429 C 242 459 220 475 194 475 C 165 475 142 460 124 430 C 106 400 96 357 94 302 Z M 193 596 L 193 596 Z M 295 596 L 235 596 L 235 753 L 295 753 L 295 596 Z M 151 596 L 91 596 L 91 753 L 151 753 L 151 596 Z" unicode="ë" />
<glyph horiz-adv-x="168" d="M 0 0 L 0 0 Z M 120 0 L 47 0 L 47 533 L 120 533 L 120 0 Z M 83 595 L 83 595 Z M 165 595 L 95 595 L 0 767 L 84 767 L 165 595 Z" unicode="ì" />
<glyph horiz-adv-x="168" d="M 1 0 L 1 0 Z M 120 0 L 47 0 L 47 533 L 120 533 L 120 0 Z M 83 595 L 83 595 Z M 1 595 L 82 767 L 166 767 L 71 595 L 1 595 Z" unicode="í" />
<glyph horiz-adv-x="168" d="M 0 0 L 0 0 Z M 120 0 L 47 0 L 47 533 L 120 533 L 120 0 Z M 83 596 L 83 596 Z M 211 596 L 147 596 L 83 711 L 18 596 L -44 596 L 52 766 L 115 766 L 211 596 Z" unicode="î" />
<glyph horiz-adv-x="168" d="M 0 0 L 0 0 Z M 120 0 L 47 0 L 47 533 L 120 533 L 120 0 Z M 83 596 L 83 596 Z M 185 596 L 125 596 L 125 753 L 185 753 L 185 596 Z M 41 596 L -19 596 L -19 753 L 41 753 L 41 596 Z" unicode="ï" />
<glyph horiz-adv-x="397" d="M 366 299 C 366 254 362 213 355 175 C 347 137 336 105 322 78 C 308 51 290 30 269 15 C 248 0 224 -7 197 -7 C 145 -7 103 16 71 62 C 39 108 23 172 23 256 C 23 299 27 337 36 371 C 44 405 56 433 70 455 C 84 477 101 494 121 506 C 140 517 160 523 181 523 C 209 523 231 515 249 501 C 266 487 280 467 291 442 C 286 480 279 515 270 548 C 260 580 250 610 239 636 L 152 595 L 136 647 L 215 684 C 200 710 186 730 173 746 C 159 762 149 772 143 777 L 193 802 C 200 797 211 787 225 772 C 239 757 253 736 269 710 L 330 738 L 345 686 L 294 662 C 312 621 329 570 344 510 C 358 449 366 379 366 299 Z M 194 57 C 225 57 249 74 265 108 C 281 142 289 193 289 259 C 289 329 280 380 264 413 C 247 446 223 463 191 463 C 161 463 138 445 122 410 C 106 375 98 325 98 259 C 98 189 106 138 123 106 C 140 73 164 57 194 57 Z" unicode="ð" />
<glyph horiz-adv-x="392" d="M 45 0 L 45 0 Z M 348 0 L 275 0 L 275 399 C 275 423 268 442 256 455 C 243 468 226 475 204 475 C 180 475 160 468 143 454 C 126 440 118 414 118 376 L 118 0 L 45 0 L 45 533 L 107 533 L 107 457 C 114 480 128 499 149 514 C 170 529 197 537 231 537 C 265 537 293 527 315 509 C 337 491 348 462 348 424 L 348 0 Z M 197 603 L 197 603 Z M 287 734 L 341 734 C 341 690 335 657 323 635 C 311 613 296 603 277 603 C 259 603 244 607 231 615 C 217 623 206 631 198 639 C 188 647 179 654 170 661 C 161 668 152 672 144 672 C 135 672 127 666 120 654 C 113 642 110 627 110 608 L 54 608 C 54 652 62 684 78 706 C 94 728 112 739 131 739 C 145 739 158 735 170 727 C 181 719 192 710 203 701 C 211 693 220 686 229 680 C 237 674 246 671 255 671 C 263 671 270 676 277 687 C 283 698 287 714 287 734 Z" unicode="ñ" />
<glyph horiz-adv-x="388" d="M 23 0 L 23 0 Z M 195 -5 C 145 -5 103 17 71 63 C 39 109 23 176 23 265 C 23 349 38 415 69 464 C 100 512 140 537 189 537 C 242 537 285 514 317 469 C 349 423 365 360 365 279 C 365 192 349 123 319 72 C 289 20 247 -5 195 -5 Z M 196 59 C 226 59 249 76 265 111 C 281 145 289 198 289 270 C 289 340 280 392 263 424 C 246 456 222 473 191 473 C 162 473 139 456 123 423 C 107 390 99 339 99 270 C 99 194 107 140 125 108 C 143 75 166 59 196 59 Z M 194 595 L 194 595 Z M 276 595 L 206 595 L 111 767 L 195 767 L 276 595 Z" unicode="ò" />
<glyph horiz-adv-x="388" d="M 23 0 L 23 0 Z M 195 -5 C 145 -5 103 17 71 63 C 39 109 23 176 23 265 C 23 349 38 415 69 464 C 100 512 140 537 189 537 C 242 537 285 514 317 469 C 349 423 365 360 365 279 C 365 192 349 123 319 72 C 289 20 247 -5 195 -5 Z M 196 59 C 226 59 249 76 265 111 C 281 145 289 198 289 270 C 289 340 280 392 263 424 C 246 456 222 473 191 473 C 162 473 139 456 123 423 C 107 390 99 339 99 270 C 99 194 107 140 125 108 C 143 75 166 59 196 59 Z M 194 595 L 194 595 Z M 112 595 L 193 767 L 277 767 L 182 595 L 112 595 Z" unicode="ó" />
<glyph horiz-adv-x="388" d="M 23 0 L 23 0 Z M 195 -5 C 145 -5 103 17 71 63 C 39 109 23 176 23 265 C 23 349 38 415 69 464 C 100 512 140 537 189 537 C 242 537 285 514 317 469 C 349 423 365 360 365 279 C 365 192 349 123 319 72 C 289 20 247 -5 195 -5 Z M 196 59 C 226 59 249 76 265 111 C 281 145 289 198 289 270 C 289 340 280 392 263 424 C 246 456 222 473 191 473 C 162 473 139 456 123 423 C 107 390 99 339 99 270 C 99 194 107 140 125 108 C 143 75 166 59 196 59 Z M 194 596 L 194 596 Z M 322 596 L 258 596 L 194 711 L 129 596 L 67 596 L 163 766 L 226 766 L 322 596 Z" unicode="ô" />
<glyph horiz-adv-x="388" d="M 23 0 L 23 0 Z M 195 -5 C 145 -5 103 17 71 63 C 39 109 23 176 23 265 C 23 349 38 415 69 464 C 100 512 140 537 189 537 C 242 537 285 514 317 469 C 349 423 365 360 365 279 C 365 192 349 123 319 72 C 289 20 247 -5 195 -5 Z M 196 59 C 226 59 249 76 265 111 C 281 145 289 198 289 270 C 289 340 280 392 263 424 C 246 456 222 473 191 473 C 162 473 139 456 123 423 C 107 390 99 339 99 270 C 99 194 107 140 125 108 C 143 75 166 59 196 59 Z M 194 603 L 194 603 Z M 284 734 L 338 734 C 338 690 332 657 320 635 C 308 613 293 603 274 603 C 256 603 241 607 228 615 C 214 623 203 631 195 639 C 185 647 176 654 167 661 C 158 668 149 672 141 672 C 132 672 124 666 117 654 C 110 642 107 627 107 608 L 51 608 C 51 652 59 684 75 706 C 91 728 109 739 128 739 C 142 739 155 735 167 727 C 178 719 189 710 200 701 C 208 693 217 686 226 680 C 234 674 243 671 252 671 C 260 671 267 676 274 687 C 280 698 284 714 284 734 Z" unicode="õ" />
<glyph horiz-adv-x="388" d="M 23 0 L 23 0 Z M 195 -5 C 145 -5 103 17 71 63 C 39 109 23 176 23 265 C 23 349 38 415 69 464 C 100 512 140 537 189 537 C 242 537 285 514 317 469 C 349 423 365 360 365 279 C 365 192 349 123 319 72 C 289 20 247 -5 195 -5 Z M 196 59 C 226 59 249 76 265 111 C 281 145 289 198 289 270 C 289 340 280 392 263 424 C 246 456 222 473 191 473 C 162 473 139 456 123 423 C 107 390 99 339 99 270 C 99 194 107 140 125 108 C 143 75 166 59 196 59 Z M 194 596 L 194 596 Z M 296 596 L 236 596 L 236 753 L 296 753 L 296 596 Z M 152 596 L 92 596 L 92 753 L 152 753 L 152 596 Z" unicode="ö" />
<glyph horiz-adv-x="477" d="M 203 447 L 203 558 L 274 558 L 274 447 L 203 447 Z M 27 299 L 27 363 L 450 363 L 450 299 L 27 299 Z M 203 103 L 203 213 L 274 213 L 274 103 L 203 103 Z" unicode="÷" />
<glyph horiz-adv-x="388" d="M 365 279 C 365 192 349 123 319 72 C 289 20 247 -5 195 -5 C 174 -5 155 -1 137 6 C 119 14 104 25 90 40 L 66 -1 L 32 21 L 63 76 C 50 98 40 125 33 157 C 26 189 23 225 23 265 C 23 349 38 415 69 464 C 100 512 140 537 189 537 C 211 537 232 533 251 525 C 269 517 286 505 301 490 L 327 536 L 361 515 L 326 455 C 338 433 348 407 355 377 C 361 347 365 315 365 279 Z M 99 270 C 99 247 100 226 102 207 C 104 187 106 170 109 156 L 263 425 C 255 441 244 453 232 461 C 220 469 206 473 191 473 C 162 473 139 456 123 423 C 107 390 99 339 99 270 Z M 289 270 C 289 290 288 309 286 327 C 284 344 282 360 280 374 L 127 105 C 135 89 144 77 156 70 C 168 62 181 59 196 59 C 226 59 249 76 265 111 C 281 145 289 198 289 270 Z" unicode="ø" />
<glyph horiz-adv-x="392" d="M 44 0 L 44 0 Z M 44 533 L 117 533 L 117 144 C 117 114 123 92 137 78 C 151 63 169 56 193 56 C 214 56 233 63 249 79 C 265 95 274 123 274 165 L 274 533 L 347 533 L 347 0 L 283 0 L 283 78 C 276 55 262 35 241 19 C 219 3 193 -5 162 -5 C 130 -5 102 5 79 27 C 55 49 44 81 44 123 L 44 533 Z M 196 595 L 196 595 Z M 278 595 L 208 595 L 113 767 L 197 767 L 278 595 Z" unicode="ù" />
<glyph horiz-adv-x="392" d="M 44 0 L 44 0 Z M 44 533 L 117 533 L 117 144 C 117 114 123 92 137 78 C 151 63 169 56 193 56 C 214 56 233 63 249 79 C 265 95 274 123 274 165 L 274 533 L 347 533 L 347 0 L 283 0 L 283 78 C 276 55 262 35 241 19 C 219 3 193 -5 162 -5 C 130 -5 102 5 79 27 C 55 49 44 81 44 123 L 44 533 Z M 196 595 L 196 595 Z M 114 595 L 195 767 L 279 767 L 184 595 L 114 595 Z" unicode="ú" />
<glyph horiz-adv-x="392" d="M 44 0 L 44 0 Z M 44 533 L 117 533 L 117 144 C 117 114 123 92 137 78 C 151 63 169 56 193 56 C 214 56 233 63 249 79 C 265 95 274 123 274 165 L 274 533 L 347 533 L 347 0 L 283 0 L 283 78 C 276 55 262 35 241 19 C 219 3 193 -5 162 -5 C 130 -5 102 5 79 27 C 55 49 44 81 44 123 L 44 533 Z M 196 596 L 196 596 Z M 324 596 L 260 596 L 196 711 L 131 596 L 69 596 L 165 766 L 228 766 L 324 596 Z" unicode="û" />
<glyph horiz-adv-x="392" d="M 44 0 L 44 0 Z M 44 533 L 117 533 L 117 144 C 117 114 123 92 137 78 C 151 63 169 56 193 56 C 214 56 233 63 249 79 C 265 95 274 123 274 165 L 274 533 L 347 533 L 347 0 L 283 0 L 283 78 C 276 55 262 35 241 19 C 219 3 193 -5 162 -5 C 130 -5 102 5 79 27 C 55 49 44 81 44 123 L 44 533 Z M 196 596 L 196 596 Z M 298 596 L 238 596 L 238 753 L 298 753 L 298 596 Z M 154 596 L 94 596 L 94 753 L 154 753 L 154 596 Z" unicode="ü" />
<glyph horiz-adv-x="323" d="M 0 0 L 0 0 Z M 325 533 L 160 -102 C 151 -132 137 -156 117 -174 C 97 -191 75 -200 52 -200 C 28 -200 9 -197 -5 -193 C -19 -188 -28 -183 -33 -179 L -4 -125 C -1 -127 4 -130 14 -133 C 23 -136 32 -138 42 -138 C 54 -138 66 -132 78 -122 C 90 -111 98 -95 103 -75 L 131 41 L -2 533 L 72 533 L 167 145 L 257 533 L 325 533 Z M 167 595 L 167 595 Z M 85 595 L 166 767 L 250 767 L 155 595 L 85 595 Z" unicode="ý" />
<glyph horiz-adv-x="396" d="M 45 -200 L 45 800 L 113 800 L 113 427 C 119 457 133 483 154 505 C 174 526 200 537 232 537 C 256 537 277 530 295 518 C 313 505 327 487 339 465 C 350 442 358 415 364 384 C 370 352 373 319 373 283 C 373 192 359 121 333 71 C 307 21 271 -4 225 -4 C 195 -4 171 4 152 21 C 133 37 120 57 114 81 L 114 -200 L 45 -200 Z M 199 56 C 229 56 253 73 271 107 C 288 141 297 193 297 263 C 297 326 289 376 274 413 C 259 450 235 469 203 469 C 191 469 179 465 168 459 C 157 453 147 442 139 426 C 130 410 123 388 118 360 C 112 332 110 297 110 255 C 110 215 112 182 117 156 C 121 130 128 110 136 95 C 144 80 153 70 164 64 C 174 58 186 56 199 56 Z" unicode="þ" />
<glyph horiz-adv-x="323" d="M 0 0 L 0 0 Z M 325 533 L 160 -102 C 151 -132 137 -156 117 -174 C 97 -191 75 -200 52 -200 C 28 -200 9 -197 -5 -193 C -19 -188 -28 -183 -33 -179 L -4 -125 C -1 -127 4 -130 14 -133 C 23 -136 32 -138 42 -138 C 54 -138 66 -132 78 -122 C 90 -111 98 -95 103 -75 L 131 41 L -2 533 L 72 533 L 167 145 L 257 533 L 325 533 Z M 167 596 L 167 596 Z M 269 596 L 209 596 L 209 753 L 269 753 L 269 596 Z M 125 596 L 65 596 L 65 753 L 125 753 L 125 596 Z" unicode="ÿ" />
<glyph horiz-adv-x="471" d="M 3 0 L 3 0 Z M 467 0 L 391 0 L 338 194 L 128 194 L 77 0 L 3 0 L 207 734 L 262 734 L 467 0 Z M 328 251 L 232 602 L 139 251 L 328 251 Z M 235 814 L 235 814 Z M 352 814 L 118 814 L 118 876 L 352 876 L 352 814 Z" unicode="Ā" />
<glyph horiz-adv-x="363" d="M 21 0 L 21 0 Z M 319 0 L 257 0 L 257 56 C 242 36 226 21 210 11 C 193 0 170 -5 141 -5 C 107 -5 79 8 56 36 C 32 64 21 104 21 157 C 21 213 36 254 66 280 C 96 306 132 321 172 325 L 249 332 L 249 386 C 249 416 242 438 229 453 C 215 467 196 475 171 475 C 148 475 128 470 112 461 C 95 452 82 443 74 434 L 51 494 C 63 506 81 517 103 527 C 125 536 153 541 185 541 C 225 541 258 529 282 506 C 306 482 319 449 319 405 L 319 0 Z M 251 105 L 251 282 L 189 275 C 162 272 139 261 121 243 C 102 225 93 195 93 154 C 93 118 100 91 116 75 C 131 59 148 51 167 51 C 187 51 204 56 218 67 C 231 77 242 90 251 105 Z M 178 617 L 178 617 Z M 295 617 L 61 617 L 61 679 L 295 679 L 295 617 Z" unicode="ā" />
<glyph horiz-adv-x="471" d="M 3 0 L 3 0 Z M 467 0 L 391 0 L 338 194 L 128 194 L 77 0 L 3 0 L 207 734 L 262 734 L 467 0 Z M 328 251 L 232 602 L 139 251 L 328 251 Z M 235 799 L 235 799 Z M 296 955 L 358 955 C 354 901 341 861 319 836 C 297 811 269 799 235 799 C 201 799 172 811 150 836 C 128 861 115 901 113 955 L 174 955 C 176 927 181 903 190 885 C 198 867 213 858 235 858 C 256 858 271 866 280 884 C 289 902 294 925 296 955 Z" unicode="Ă" />
<glyph horiz-adv-x="363" d="M 21 0 L 21 0 Z M 319 0 L 257 0 L 257 56 C 242 36 226 21 210 11 C 193 0 170 -5 141 -5 C 107 -5 79 8 56 36 C 32 64 21 104 21 157 C 21 213 36 254 66 280 C 96 306 132 321 172 325 L 249 332 L 249 386 C 249 416 242 438 229 453 C 215 467 196 475 171 475 C 148 475 128 470 112 461 C 95 452 82 443 74 434 L 51 494 C 63 506 81 517 103 527 C 125 536 153 541 185 541 C 225 541 258 529 282 506 C 306 482 319 449 319 405 L 319 0 Z M 251 105 L 251 282 L 189 275 C 162 272 139 261 121 243 C 102 225 93 195 93 154 C 93 118 100 91 116 75 C 131 59 148 51 167 51 C 187 51 204 56 218 67 C 231 77 242 90 251 105 Z M 178 602 L 178 602 Z M 239 758 L 301 758 C 297 704 284 664 262 639 C 240 614 212 602 178 602 C 144 602 115 614 93 639 C 71 664 58 704 56 758 L 117 758 C 119 730 124 706 133 688 C 141 670 156 661 178 661 C 199 661 214 669 223 687 C 232 705 237 728 239 758 Z" unicode="ă" />
<glyph horiz-adv-x="471" d="M 3 0 L 3 0 Z M 467 0 L 391 0 L 338 194 L 128 194 L 77 0 L 3 0 L 207 734 L 262 734 L 467 0 Z M 328 251 L 232 602 L 139 251 L 328 251 Z M 386 -9 L 386 -9 Z M 480 -105 L 502 -136 C 483 -155 462 -170 440 -181 C 417 -191 392 -197 365 -197 C 335 -197 311 -189 294 -175 C 277 -160 269 -142 269 -120 C 269 -95 279 -72 301 -50 C 322 -28 355 -10 400 5 L 428 4 C 394 -10 370 -25 355 -41 C 340 -57 333 -73 333 -91 C 333 -106 338 -118 348 -127 C 358 -136 371 -141 388 -141 C 406 -141 424 -137 440 -131 C 456 -124 469 -115 480 -105 Z" unicode="Ą" />
<glyph horiz-adv-x="363" d="M 21 0 L 21 0 Z M 319 0 L 257 0 L 257 56 C 242 36 226 21 210 11 C 193 0 170 -5 141 -5 C 107 -5 79 8 56 36 C 32 64 21 104 21 157 C 21 213 36 254 66 280 C 96 306 132 321 172 325 L 249 332 L 249 386 C 249 416 242 438 229 453 C 215 467 196 475 171 475 C 148 475 128 470 112 461 C 95 452 82 443 74 434 L 51 494 C 63 506 81 517 103 527 C 125 536 153 541 185 541 C 225 541 258 529 282 506 C 306 482 319 449 319 405 L 319 0 Z M 251 105 L 251 282 L 189 275 C 162 272 139 261 121 243 C 102 225 93 195 93 154 C 93 118 100 91 116 75 C 131 59 148 51 167 51 C 187 51 204 56 218 67 C 231 77 242 90 251 105 Z M 251 -9 L 251 -9 Z M 345 -105 L 367 -136 C 348 -155 327 -170 305 -181 C 282 -191 257 -197 230 -197 C 200 -197 176 -189 159 -175 C 142 -160 134 -142 134 -120 C 134 -95 144 -72 166 -50 C 187 -28 220 -10 265 5 L 293 4 C 259 -10 235 -25 220 -41 C 205 -57 198 -73 198 -91 C 198 -106 203 -118 213 -127 C 223 -136 236 -141 253 -141 C 271 -141 289 -137 305 -131 C 321 -124 334 -115 345 -105 Z" unicode="ą" />
<glyph horiz-adv-x="519" d="M 37 0 L 37 0 Z M 282 -7 C 246 -7 214 0 184 16 C 154 31 128 54 106 85 C 84 115 67 154 55 201 C 43 248 37 303 37 366 C 37 484 58 576 100 640 C 142 704 202 737 281 737 C 337 737 381 722 412 694 C 442 665 464 629 478 585 L 406 561 C 394 591 379 617 361 638 C 343 658 316 669 280 669 C 229 669 189 645 160 597 C 131 549 117 470 117 362 C 117 307 121 260 131 222 C 141 183 153 152 169 128 C 185 104 203 87 223 77 C 243 66 263 61 285 61 C 323 61 353 72 374 94 C 395 116 412 146 424 182 L 490 152 C 472 102 446 63 412 35 C 378 7 334 -7 282 -7 Z M 283 792 L 283 792 Z M 201 792 L 282 964 L 366 964 L 271 792 L 201 792 Z" unicode="Ć" />
<glyph horiz-adv-x="344" d="M 23 0 L 23 0 Z M 294 122 L 331 79 C 320 58 305 39 285 21 C 265 3 237 -5 203 -5 C 173 -5 147 1 125 15 C 103 28 84 46 69 70 C 53 94 42 122 34 156 C 26 189 23 225 23 265 C 23 301 26 335 34 369 C 41 402 52 431 67 456 C 81 480 100 500 123 515 C 145 529 171 537 201 537 C 236 537 265 527 287 507 C 309 487 325 465 335 443 L 283 404 C 275 421 264 436 252 450 C 239 464 222 471 201 471 C 167 471 142 452 125 414 C 107 376 99 328 99 268 C 99 198 109 145 130 110 C 150 75 177 58 211 58 C 235 58 254 65 266 80 C 278 94 287 108 294 122 Z M 197 595 L 197 595 Z M 115 595 L 196 767 L 280 767 L 185 595 L 115 595 Z" unicode="ć" />
<glyph horiz-adv-x="519" d="M 37 0 L 37 0 Z M 282 -7 C 246 -7 214 0 184 16 C 154 31 128 54 106 85 C 84 115 67 154 55 201 C 43 248 37 303 37 366 C 37 484 58 576 100 640 C 142 704 202 737 281 737 C 337 737 381 722 412 694 C 442 665 464 629 478 585 L 406 561 C 394 591 379 617 361 638 C 343 658 316 669 280 669 C 229 669 189 645 160 597 C 131 549 117 470 117 362 C 117 307 121 260 131 222 C 141 183 153 152 169 128 C 185 104 203 87 223 77 C 243 66 263 61 285 61 C 323 61 353 72 374 94 C 395 116 412 146 424 182 L 490 152 C 472 102 446 63 412 35 C 378 7 334 -7 282 -7 Z M 283 793 L 283 793 Z M 411 793 L 347 793 L 283 908 L 218 793 L 156 793 L 252 963 L 315 963 L 411 793 Z" unicode="Ĉ" />
<glyph horiz-adv-x="344" d="M 23 0 L 23 0 Z M 294 122 L 331 79 C 320 58 305 39 285 21 C 265 3 237 -5 203 -5 C 173 -5 147 1 125 15 C 103 28 84 46 69 70 C 53 94 42 122 34 156 C 26 189 23 225 23 265 C 23 301 26 335 34 369 C 41 402 52 431 67 456 C 81 480 100 500 123 515 C 145 529 171 537 201 537 C 236 537 265 527 287 507 C 309 487 325 465 335 443 L 283 404 C 275 421 264 436 252 450 C 239 464 222 471 201 471 C 167 471 142 452 125 414 C 107 376 99 328 99 268 C 99 198 109 145 130 110 C 150 75 177 58 211 58 C 235 58 254 65 266 80 C 278 94 287 108 294 122 Z M 197 596 L 197 596 Z M 325 596 L 261 596 L 197 711 L 132 596 L 70 596 L 166 766 L 229 766 L 325 596 Z" unicode="ĉ" />
<glyph horiz-adv-x="519" d="M 37 0 L 37 0 Z M 282 -7 C 246 -7 214 0 184 16 C 154 31 128 54 106 85 C 84 115 67 154 55 201 C 43 248 37 303 37 366 C 37 484 58 576 100 640 C 142 704 202 737 281 737 C 337 737 381 722 412 694 C 442 665 464 629 478 585 L 406 561 C 394 591 379 617 361 638 C 343 658 316 669 280 669 C 229 669 189 645 160 597 C 131 549 117 470 117 362 C 117 307 121 260 131 222 C 141 183 153 152 169 128 C 185 104 203 87 223 77 C 243 66 263 61 285 61 C 323 61 353 72 374 94 C 395 116 412 146 424 182 L 490 152 C 472 102 446 63 412 35 C 378 7 334 -7 282 -7 Z M 283 799 L 283 799 Z M 317 799 L 249 799 L 249 909 L 317 909 L 317 799 Z" unicode="Ċ" />
<glyph horiz-adv-x="344" d="M 23 0 L 23 0 Z M 294 122 L 331 79 C 320 58 305 39 285 21 C 265 3 237 -5 203 -5 C 173 -5 147 1 125 15 C 103 28 84 46 69 70 C 53 94 42 122 34 156 C 26 189 23 225 23 265 C 23 301 26 335 34 369 C 41 402 52 431 67 456 C 81 480 100 500 123 515 C 145 529 171 537 201 537 C 236 537 265 527 287 507 C 309 487 325 465 335 443 L 283 404 C 275 421 264 436 252 450 C 239 464 222 471 201 471 C 167 471 142 452 125 414 C 107 376 99 328 99 268 C 99 198 109 145 130 110 C 150 75 177 58 211 58 C 235 58 254 65 266 80 C 278 94 287 108 294 122 Z M 197 602 L 197 602 Z M 231 602 L 163 602 L 163 712 L 231 712 L 231 602 Z" unicode="ċ" />
<glyph horiz-adv-x="519" d="M 37 0 L 37 0 Z M 282 -7 C 246 -7 214 0 184 16 C 154 31 128 54 106 85 C 84 115 67 154 55 201 C 43 248 37 303 37 366 C 37 484 58 576 100 640 C 142 704 202 737 281 737 C 337 737 381 722 412 694 C 442 665 464 629 478 585 L 406 561 C 394 591 379 617 361 638 C 343 658 316 669 280 669 C 229 669 189 645 160 597 C 131 549 117 470 117 362 C 117 307 121 260 131 222 C 141 183 153 152 169 128 C 185 104 203 87 223 77 C 243 66 263 61 285 61 C 323 61 353 72 374 94 C 395 116 412 146 424 182 L 490 152 C 472 102 446 63 412 35 C 378 7 334 -7 282 -7 Z M 283 793 L 283 793 Z M 156 963 L 220 963 L 284 849 L 349 963 L 411 963 L 315 793 L 252 793 L 156 963 Z" unicode="Č" />
<glyph horiz-adv-x="344" d="M 23 0 L 23 0 Z M 294 122 L 331 79 C 320 58 305 39 285 21 C 265 3 237 -5 203 -5 C 173 -5 147 1 125 15 C 103 28 84 46 69 70 C 53 94 42 122 34 156 C 26 189 23 225 23 265 C 23 301 26 335 34 369 C 41 402 52 431 67 456 C 81 480 100 500 123 515 C 145 529 171 537 201 537 C 236 537 265 527 287 507 C 309 487 325 465 335 443 L 283 404 C 275 421 264 436 252 450 C 239 464 222 471 201 471 C 167 471 142 452 125 414 C 107 376 99 328 99 268 C 99 198 109 145 130 110 C 150 75 177 58 211 58 C 235 58 254 65 266 80 C 278 94 287 108 294 122 Z M 197 596 L 197 596 Z M 70 766 L 134 766 L 198 652 L 263 766 L 325 766 L 229 596 L 166 596 L 70 766 Z" unicode="č" />
<glyph horiz-adv-x="538" d="M 66 0 L 66 0 Z M 66 0 L 66 730 L 220 730 C 265 730 305 721 340 704 C 375 687 404 663 428 632 C 452 600 470 562 482 518 C 494 473 501 423 501 369 C 501 317 495 268 483 223 C 471 178 454 139 430 106 C 406 73 376 47 340 28 C 304 9 261 0 213 0 L 66 0 Z M 145 67 L 211 67 C 249 67 281 74 308 88 C 334 102 356 123 372 149 C 388 175 400 207 408 244 C 416 281 420 322 420 368 C 420 465 402 538 367 588 C 332 638 283 663 221 663 L 145 663 L 145 67 Z M 252 793 L 252 793 Z M 125 963 L 189 963 L 253 849 L 318 963 L 380 963 L 284 793 L 221 793 L 125 963 Z" unicode="Ď" />
<glyph horiz-adv-x="411" d="M 23 0 L 23 0 Z M 178 -5 C 154 -5 132 1 113 15 C 93 29 77 47 64 71 C 51 95 41 123 34 156 C 26 188 23 224 23 262 C 23 345 37 411 66 461 C 95 510 132 535 177 535 C 208 535 234 523 255 499 C 276 475 290 447 297 414 L 297 800 L 367 800 L 367 0 L 301 0 L 301 101 C 298 88 293 75 287 63 C 280 50 272 39 262 29 C 252 19 240 10 226 4 C 212 -1 196 -5 178 -5 Z M 200 57 C 230 57 254 74 272 110 C 290 145 299 198 299 270 C 299 341 289 392 269 423 C 249 453 225 469 199 469 C 169 469 144 452 126 419 C 108 385 99 334 99 266 C 99 198 108 147 126 111 C 144 75 168 57 200 57 Z M 484 622 L 480 490 L 418 490 L 414 622 L 414 730 L 484 730 L 484 622 Z" unicode="ď" />
<glyph horiz-adv-x="538" d="M 22 0 L 22 0 Z M 501 364 C 501 313 495 265 483 221 C 471 177 454 138 430 106 C 406 73 376 47 340 28 C 304 9 261 0 213 0 L 66 0 L 66 330 L 22 330 L 22 393 L 66 393 L 66 730 L 220 730 C 265 730 305 721 340 704 C 375 686 404 662 428 631 C 452 599 470 561 482 516 C 494 470 501 420 501 364 Z M 145 62 L 211 62 C 249 62 281 69 308 84 C 334 98 356 119 372 145 C 388 171 400 203 408 240 C 416 277 420 318 420 362 C 420 463 402 539 367 591 C 332 642 283 668 221 668 L 145 668 L 145 393 L 278 393 L 278 330 L 145 330 L 145 62 Z" unicode="Đ" />
<glyph horiz-adv-x="411" d="M 301 101 C 298 88 293 75 287 63 C 280 50 272 39 262 29 C 252 19 240 10 226 4 C 212 -1 196 -5 178 -5 C 154 -5 132 1 113 15 C 93 29 77 47 64 71 C 51 95 41 123 34 156 C 26 188 23 224 23 262 C 23 345 37 411 66 461 C 95 510 132 535 177 535 C 208 535 234 523 255 499 C 276 475 290 447 297 414 L 297 633 L 214 633 L 214 697 L 297 697 L 297 800 L 367 800 L 367 697 L 411 697 L 411 633 L 367 633 L 367 0 L 301 0 L 301 101 Z M 200 57 C 230 57 254 74 272 110 C 290 145 299 198 299 270 C 299 341 289 392 269 423 C 249 453 225 469 199 469 C 169 469 144 452 126 419 C 108 385 99 334 99 266 C 99 198 108 147 126 111 C 144 75 168 57 200 57 Z" unicode="đ" />
<glyph horiz-adv-x="392" d="M 66 0 L 66 0 Z M 375 0 L 66 0 L 66 730 L 358 730 L 358 661 L 144 661 L 144 398 L 351 398 L 351 331 L 144 331 L 144 69 L 375 69 L 375 0 Z M 214 814 L 214 814 Z M 331 814 L 97 814 L 97 876 L 331 876 L 331 814 Z" unicode="Ē" />
<glyph horiz-adv-x="376" d="M 23 0 L 23 0 Z M 194 -5 C 168 -5 144 1 123 14 C 101 27 83 45 69 69 C 54 92 43 120 35 153 C 27 186 23 223 23 263 C 23 345 39 412 71 462 C 103 512 144 537 192 537 C 246 537 287 510 315 458 C 343 406 357 336 357 250 L 96 250 C 96 196 105 150 124 114 C 142 78 170 60 206 60 C 232 60 253 67 269 81 C 285 95 299 110 309 125 L 342 85 C 329 64 310 44 286 24 C 262 4 231 -5 194 -5 Z M 94 302 L 286 302 C 286 356 277 398 260 429 C 242 459 220 475 194 475 C 165 475 142 460 124 430 C 106 400 96 357 94 302 Z M 193 617 L 193 617 Z M 310 617 L 76 617 L 76 679 L 310 679 L 310 617 Z" unicode="ē" />
<glyph horiz-adv-x="392" d="M 66 0 L 66 0 Z M 375 0 L 66 0 L 66 730 L 358 730 L 358 661 L 144 661 L 144 398 L 351 398 L 351 331 L 144 331 L 144 69 L 375 69 L 375 0 Z M 214 799 L 214 799 Z M 275 955 L 337 955 C 333 901 320 861 298 836 C 276 811 248 799 214 799 C 180 799 151 811 129 836 C 107 861 94 901 92 955 L 153 955 C 155 927 160 903 169 885 C 177 867 192 858 214 858 C 235 858 250 866 259 884 C 268 902 273 925 275 955 Z" unicode="Ĕ" />
<glyph horiz-adv-x="376" d="M 23 0 L 23 0 Z M 194 -5 C 168 -5 144 1 123 14 C 101 27 83 45 69 69 C 54 92 43 120 35 153 C 27 186 23 223 23 263 C 23 345 39 412 71 462 C 103 512 144 537 192 537 C 246 537 287 510 315 458 C 343 406 357 336 357 250 L 96 250 C 96 196 105 150 124 114 C 142 78 170 60 206 60 C 232 60 253 67 269 81 C 285 95 299 110 309 125 L 342 85 C 329 64 310 44 286 24 C 262 4 231 -5 194 -5 Z M 94 302 L 286 302 C 286 356 277 398 260 429 C 242 459 220 475 194 475 C 165 475 142 460 124 430 C 106 400 96 357 94 302 Z M 193 602 L 193 602 Z M 254 758 L 316 758 C 312 704 299 664 277 639 C 255 614 227 602 193 602 C 159 602 130 614 108 639 C 86 664 73 704 71 758 L 132 758 C 134 730 139 706 148 688 C 156 670 171 661 193 661 C 214 661 229 669 238 687 C 247 705 252 728 254 758 Z" unicode="ĕ" />
<glyph horiz-adv-x="392" d="M 66 0 L 66 0 Z M 375 0 L 66 0 L 66 730 L 358 730 L 358 661 L 144 661 L 144 398 L 351 398 L 351 331 L 144 331 L 144 69 L 375 69 L 375 0 Z M 214 799 L 214 799 Z M 248 799 L 180 799 L 180 909 L 248 909 L 248 799 Z" unicode="Ė" />
<glyph horiz-adv-x="376" d="M 23 0 L 23 0 Z M 194 -5 C 168 -5 144 1 123 14 C 101 27 83 45 69 69 C 54 92 43 120 35 153 C 27 186 23 223 23 263 C 23 345 39 412 71 462 C 103 512 144 537 192 537 C 246 537 287 510 315 458 C 343 406 357 336 357 250 L 96 250 C 96 196 105 150 124 114 C 142 78 170 60 206 60 C 232 60 253 67 269 81 C 285 95 299 110 309 125 L 342 85 C 329 64 310 44 286 24 C 262 4 231 -5 194 -5 Z M 94 302 L 286 302 C 286 356 277 398 260 429 C 242 459 220 475 194 475 C 165 475 142 460 124 430 C 106 400 96 357 94 302 Z M 193 602 L 193 602 Z M 227 602 L 159 602 L 159 712 L 227 712 L 227 602 Z" unicode="ė" />
<glyph horiz-adv-x="392" d="M 66 0 L 66 0 Z M 375 0 L 66 0 L 66 730 L 358 730 L 358 661 L 144 661 L 144 398 L 351 398 L 351 331 L 144 331 L 144 69 L 375 69 L 375 0 Z M 332 -9 L 332 -9 Z M 426 -105 L 448 -136 C 429 -155 408 -170 386 -181 C 363 -191 338 -197 311 -197 C 281 -197 257 -189 240 -175 C 223 -160 215 -142 215 -120 C 215 -95 225 -72 247 -50 C 268 -28 301 -10 346 5 L 374 4 C 340 -10 316 -25 301 -41 C 286 -57 279 -73 279 -91 C 279 -106 284 -118 294 -127 C 304 -136 317 -141 334 -141 C 352 -141 370 -137 386 -131 C 402 -124 415 -115 426 -105 Z" unicode="Ę" />
<glyph horiz-adv-x="376" d="M 23 0 L 23 0 Z M 194 -5 C 168 -5 144 1 123 14 C 101 27 83 45 69 69 C 54 92 43 120 35 153 C 27 186 23 223 23 263 C 23 345 39 412 71 462 C 103 512 144 537 192 537 C 246 537 287 510 315 458 C 343 406 357 336 357 250 L 96 250 C 96 196 105 150 124 114 C 142 78 170 60 206 60 C 232 60 253 67 269 81 C 285 95 299 110 309 125 L 342 85 C 329 64 310 44 286 24 C 262 4 231 -5 194 -5 Z M 94 302 L 286 302 C 286 356 277 398 260 429 C 242 459 220 475 194 475 C 165 475 142 460 124 430 C 106 400 96 357 94 302 Z M 201 -9 L 201 -9 Z M 295 -105 L 317 -136 C 298 -155 277 -170 255 -181 C 232 -191 207 -197 180 -197 C 150 -197 126 -189 109 -175 C 92 -160 84 -142 84 -120 C 84 -95 94 -72 116 -50 C 137 -28 170 -10 215 5 L 243 4 C 209 -10 185 -25 170 -41 C 155 -57 148 -73 148 -91 C 148 -106 153 -118 163 -127 C 173 -136 186 -141 203 -141 C 221 -141 239 -137 255 -131 C 271 -124 284 -115 295 -105 Z" unicode="ę" />
<glyph horiz-adv-x="392" d="M 66 0 L 66 0 Z M 375 0 L 66 0 L 66 730 L 358 730 L 358 661 L 144 661 L 144 398 L 351 398 L 351 331 L 144 331 L 144 69 L 375 69 L 375 0 Z M 214 793 L 214 793 Z M 87 963 L 151 963 L 215 849 L 280 963 L 342 963 L 246 793 L 183 793 L 87 963 Z" unicode="Ě" />
<glyph horiz-adv-x="376" d="M 23 0 L 23 0 Z M 194 -5 C 168 -5 144 1 123 14 C 101 27 83 45 69 69 C 54 92 43 120 35 153 C 27 186 23 223 23 263 C 23 345 39 412 71 462 C 103 512 144 537 192 537 C 246 537 287 510 315 458 C 343 406 357 336 357 250 L 96 250 C 96 196 105 150 124 114 C 142 78 170 60 206 60 C 232 60 253 67 269 81 C 285 95 299 110 309 125 L 342 85 C 329 64 310 44 286 24 C 262 4 231 -5 194 -5 Z M 94 302 L 286 302 C 286 356 277 398 260 429 C 242 459 220 475 194 475 C 165 475 142 460 124 430 C 106 400 96 357 94 302 Z M 193 596 L 193 596 Z M 66 766 L 130 766 L 194 652 L 259 766 L 321 766 L 225 596 L 162 596 L 66 766 Z" unicode="ě" />
<glyph horiz-adv-x="545" d="M 37 0 L 37 0 Z M 282 355 L 505 355 L 505 117 C 486 79 458 48 421 26 C 384 4 339 -7 287 -7 C 253 -7 220 1 190 18 C 159 34 132 58 110 90 C 87 122 69 161 56 207 C 43 253 37 306 37 365 C 37 421 43 473 55 519 C 67 565 83 604 105 636 C 127 668 153 692 185 710 C 216 727 251 736 289 736 C 343 736 385 723 415 699 C 445 675 469 645 486 610 L 422 568 C 409 596 392 619 372 638 C 351 656 325 666 293 666 C 239 666 197 640 165 590 C 133 540 118 463 118 361 C 118 259 134 182 167 132 C 200 82 240 57 288 57 C 322 57 351 63 376 76 C 401 88 420 108 433 135 L 433 289 L 282 289 L 282 355 Z M 285 793 L 285 793 Z M 413 793 L 349 793 L 285 908 L 220 793 L 158 793 L 254 963 L 317 963 L 413 793 Z" unicode="Ĝ" />
<glyph horiz-adv-x="409" d="M 24 0 L 24 0 Z M 177 9 C 131 9 94 32 66 80 C 38 127 24 190 24 270 C 24 353 38 418 67 466 C 96 513 132 537 176 537 C 208 537 235 525 256 503 C 276 481 291 456 299 429 L 299 533 L 364 533 L 364 6 C 364 -28 358 -58 348 -84 C 338 -110 324 -131 308 -148 C 291 -164 272 -177 250 -185 C 228 -193 205 -198 182 -198 C 150 -198 125 -195 105 -189 C 85 -183 70 -176 60 -170 L 84 -112 C 95 -117 108 -121 122 -125 C 136 -129 155 -131 178 -131 C 211 -131 239 -118 261 -93 C 283 -67 295 -31 295 16 L 295 125 C 288 95 275 69 255 45 C 235 21 209 9 177 9 Z M 199 71 C 227 71 251 87 270 120 C 288 152 298 204 298 276 C 298 344 287 394 266 425 C 244 455 221 471 197 471 C 167 471 143 454 126 420 C 108 386 100 337 100 273 C 100 209 108 159 125 124 C 141 88 166 71 199 71 Z M 200 596 L 200 596 Z M 328 596 L 264 596 L 200 711 L 135 596 L 73 596 L 169 766 L 232 766 L 328 596 Z" unicode="ĝ" />
<glyph horiz-adv-x="545" d="M 37 0 L 37 0 Z M 282 355 L 505 355 L 505 117 C 486 79 458 48 421 26 C 384 4 339 -7 287 -7 C 253 -7 220 1 190 18 C 159 34 132 58 110 90 C 87 122 69 161 56 207 C 43 253 37 306 37 365 C 37 421 43 473 55 519 C 67 565 83 604 105 636 C 127 668 153 692 185 710 C 216 727 251 736 289 736 C 343 736 385 723 415 699 C 445 675 469 645 486 610 L 422 568 C 409 596 392 619 372 638 C 351 656 325 666 293 666 C 239 666 197 640 165 590 C 133 540 118 463 118 361 C 118 259 134 182 167 132 C 200 82 240 57 288 57 C 322 57 351 63 376 76 C 401 88 420 108 433 135 L 433 289 L 282 289 L 282 355 Z M 285 799 L 285 799 Z M 346 955 L 408 955 C 404 901 391 861 369 836 C 347 811 319 799 285 799 C 251 799 222 811 200 836 C 178 861 165 901 163 955 L 224 955 C 226 927 231 903 240 885 C 248 867 263 858 285 858 C 306 858 321 866 330 884 C 339 902 344 925 346 955 Z" unicode="Ğ" />
<glyph horiz-adv-x="409" d="M 24 0 L 24 0 Z M 177 9 C 131 9 94 32 66 80 C 38 127 24 190 24 270 C 24 353 38 418 67 466 C 96 513 132 537 176 537 C 208 537 235 525 256 503 C 276 481 291 456 299 429 L 299 533 L 364 533 L 364 6 C 364 -28 358 -58 348 -84 C 338 -110 324 -131 308 -148 C 291 -164 272 -177 250 -185 C 228 -193 205 -198 182 -198 C 150 -198 125 -195 105 -189 C 85 -183 70 -176 60 -170 L 84 -112 C 95 -117 108 -121 122 -125 C 136 -129 155 -131 178 -131 C 211 -131 239 -118 261 -93 C 283 -67 295 -31 295 16 L 295 125 C 288 95 275 69 255 45 C 235 21 209 9 177 9 Z M 199 71 C 227 71 251 87 270 120 C 288 152 298 204 298 276 C 298 344 287 394 266 425 C 244 455 221 471 197 471 C 167 471 143 454 126 420 C 108 386 100 337 100 273 C 100 209 108 159 125 124 C 141 88 166 71 199 71 Z M 200 602 L 200 602 Z M 261 758 L 323 758 C 319 704 306 664 284 639 C 262 614 234 602 200 602 C 166 602 137 614 115 639 C 93 664 80 704 78 758 L 139 758 C 141 730 146 706 155 688 C 163 670 178 661 200 661 C 221 661 236 669 245 687 C 254 705 259 728 261 758 Z" unicode="ğ" />
<glyph horiz-adv-x="545" d="M 37 0 L 37 0 Z M 282 355 L 505 355 L 505 117 C 486 79 458 48 421 26 C 384 4 339 -7 287 -7 C 253 -7 220 1 190 18 C 159 34 132 58 110 90 C 87 122 69 161 56 207 C 43 253 37 306 37 365 C 37 421 43 473 55 519 C 67 565 83 604 105 636 C 127 668 153 692 185 710 C 216 727 251 736 289 736 C 343 736 385 723 415 699 C 445 675 469 645 486 610 L 422 568 C 409 596 392 619 372 638 C 351 656 325 666 293 666 C 239 666 197 640 165 590 C 133 540 118 463 118 361 C 118 259 134 182 167 132 C 200 82 240 57 288 57 C 322 57 351 63 376 76 C 401 88 420 108 433 135 L 433 289 L 282 289 L 282 355 Z M 285 799 L 285 799 Z M 319 799 L 251 799 L 251 909 L 319 909 L 319 799 Z" unicode="Ġ" />
<glyph horiz-adv-x="409" d="M 24 0 L 24 0 Z M 177 9 C 131 9 94 32 66 80 C 38 127 24 190 24 270 C 24 353 38 418 67 466 C 96 513 132 537 176 537 C 208 537 235 525 256 503 C 276 481 291 456 299 429 L 299 533 L 364 533 L 364 6 C 364 -28 358 -58 348 -84 C 338 -110 324 -131 308 -148 C 291 -164 272 -177 250 -185 C 228 -193 205 -198 182 -198 C 150 -198 125 -195 105 -189 C 85 -183 70 -176 60 -170 L 84 -112 C 95 -117 108 -121 122 -125 C 136 -129 155 -131 178 -131 C 211 -131 239 -118 261 -93 C 283 -67 295 -31 295 16 L 295 125 C 288 95 275 69 255 45 C 235 21 209 9 177 9 Z M 199 71 C 227 71 251 87 270 120 C 288 152 298 204 298 276 C 298 344 287 394 266 425 C 244 455 221 471 197 471 C 167 471 143 454 126 420 C 108 386 100 337 100 273 C 100 209 108 159 125 124 C 141 88 166 71 199 71 Z M 200 602 L 200 602 Z M 234 602 L 166 602 L 166 712 L 234 712 L 234 602 Z" unicode="ġ" />
<glyph horiz-adv-x="545" d="M 37 0 L 37 0 Z M 282 355 L 505 355 L 505 117 C 486 79 458 48 421 26 C 384 4 339 -7 287 -7 C 253 -7 220 1 190 18 C 159 34 132 58 110 90 C 87 122 69 161 56 207 C 43 253 37 306 37 365 C 37 421 43 473 55 519 C 67 565 83 604 105 636 C 127 668 153 692 185 710 C 216 727 251 736 289 736 C 343 736 385 723 415 699 C 445 675 469 645 486 610 L 422 568 C 409 596 392 619 372 638 C 351 656 325 666 293 666 C 239 666 197 640 165 590 C 133 540 118 463 118 361 C 118 259 134 182 167 132 C 200 82 240 57 288 57 C 322 57 351 63 376 76 C 401 88 420 108 433 135 L 433 289 L 282 289 L 282 355 Z M 283 -71 L 283 -71 Z M 357 -71 C 356 -92 353 -114 348 -137 C 343 -160 336 -182 328 -204 C 320 -226 310 -246 300 -265 C 289 -284 278 -301 267 -315 L 210 -289 C 226 -265 242 -232 256 -191 C 270 -150 278 -110 280 -71 L 357 -71 Z" unicode="Ģ" />
<glyph horiz-adv-x="409" d="M 24 0 L 24 0 Z M 177 9 C 131 9 94 32 66 80 C 38 127 24 190 24 270 C 24 353 38 418 67 466 C 96 513 132 537 176 537 C 208 537 235 525 256 503 C 276 481 291 456 299 429 L 299 533 L 364 533 L 364 6 C 364 -28 358 -58 348 -84 C 338 -110 324 -131 308 -148 C 291 -164 272 -177 250 -185 C 228 -193 205 -198 182 -198 C 150 -198 125 -195 105 -189 C 85 -183 70 -176 60 -170 L 84 -112 C 95 -117 108 -121 122 -125 C 136 -129 155 -131 178 -131 C 211 -131 239 -118 261 -93 C 283 -67 295 -31 295 16 L 295 125 C 288 95 275 69 255 45 C 235 21 209 9 177 9 Z M 199 71 C 227 71 251 87 270 120 C 288 152 298 204 298 276 C 298 344 287 394 266 425 C 244 455 221 471 197 471 C 167 471 143 454 126 420 C 108 386 100 337 100 273 C 100 209 108 159 125 124 C 141 88 166 71 199 71 Z" unicode="ģ" />
<glyph horiz-adv-x="537" d="M 66 0 L 66 0 Z M 471 0 L 391 0 L 391 329 L 146 329 L 146 0 L 66 0 L 66 730 L 146 730 L 146 394 L 391 394 L 391 730 L 471 730 L 471 0 Z M 265 793 L 265 793 Z M 393 793 L 329 793 L 265 908 L 200 793 L 138 793 L 234 963 L 297 963 L 393 793 Z" unicode="Ĥ" />
<glyph horiz-adv-x="392" d="M 45 0 L 45 0 Z M 348 0 L 275 0 L 275 400 C 275 425 268 444 255 456 C 241 468 224 475 203 475 C 179 475 159 467 143 453 C 126 439 118 413 118 376 L 118 0 L 45 0 L 45 800 L 114 800 L 114 463 C 120 483 132 501 150 515 C 168 529 194 537 227 537 C 263 537 292 527 314 509 C 336 491 348 460 348 417 L 348 0 Z M 202 863 L 202 863 Z M 330 863 L 266 863 L 202 978 L 137 863 L 75 863 L 171 1033 L 234 1033 L 330 863 Z" unicode="ĥ" />
<glyph horiz-adv-x="537" d="M 146 329 L 146 0 L 66 0 L 66 549 L 3 549 L 3 613 L 66 613 L 66 730 L 146 730 L 146 613 L 391 613 L 391 730 L 471 730 L 471 613 L 533 613 L 533 549 L 471 549 L 471 0 L 391 0 L 391 329 L 146 329 Z M 146 394 L 391 394 L 391 549 L 146 549 L 146 394 Z" unicode="Ħ" />
<glyph horiz-adv-x="392" d="M 118 376 L 118 0 L 45 0 L 45 633 L 9 633 L 9 697 L 45 697 L 45 800 L 114 800 L 114 697 L 203 697 L 203 633 L 114 633 L 114 463 C 120 483 132 501 150 515 C 168 529 194 537 227 537 C 263 537 292 527 314 509 C 336 491 348 460 348 417 L 348 0 L 275 0 L 275 400 C 275 425 268 444 255 456 C 241 468 224 475 203 475 C 179 475 159 467 143 453 C 126 439 118 413 118 376 Z" unicode="ħ" />
<glyph horiz-adv-x="221" d="M 0 0 L 0 0 Z M 151 0 L 70 0 L 70 730 L 151 730 L 151 0 Z M 110 800 L 110 800 Z M 200 931 L 254 931 C 254 887 248 854 236 832 C 224 810 209 800 190 800 C 172 800 157 804 144 812 C 130 820 119 828 111 836 C 101 844 92 851 83 858 C 74 865 65 869 57 869 C 48 869 40 863 33 851 C 26 839 23 824 23 805 L -33 805 C -33 849 -24 881 -8 903 C 7 925 25 936 44 936 C 58 936 71 932 83 924 C 94 916 105 907 116 898 C 124 890 133 883 142 877 C 150 871 159 868 168 868 C 176 868 183 873 190 884 C 196 895 200 911 200 931 Z" unicode="Ĩ" />
<glyph horiz-adv-x="168" d="M 0 0 L 0 0 Z M 120 0 L 47 0 L 47 533 L 120 533 L 120 0 Z M 83 603 L 83 603 Z M 173 734 L 227 734 C 227 690 221 657 209 635 C 197 613 182 603 163 603 C 145 603 130 607 117 615 C 103 623 92 631 84 639 C 74 647 65 654 56 661 C 47 668 38 672 30 672 C 21 672 13 666 6 654 C 0 642 -4 627 -4 608 L -60 608 C -60 652 -51 684 -35 706 C -19 728 -1 739 17 739 C 31 739 44 735 56 727 C 67 719 78 710 89 701 C 97 693 106 686 115 680 C 123 674 132 671 141 671 C 149 671 156 676 163 687 C 169 698 173 714 173 734 Z" unicode="ĩ" />
<glyph horiz-adv-x="221" d="M 0 0 L 0 0 Z M 151 0 L 70 0 L 70 730 L 151 730 L 151 0 Z M 110 814 L 110 814 Z M 227 814 L -7 814 L -7 876 L 227 876 L 227 814 Z" unicode="Ī" />
<glyph horiz-adv-x="168" d="M 0 0 L 0 0 Z M 120 0 L 47 0 L 47 533 L 120 533 L 120 0 Z M 83 617 L 83 617 Z M 200 617 L -34 617 L -34 679 L 200 679 L 200 617 Z" unicode="ī" />
<glyph horiz-adv-x="221" d="M 0 0 L 0 0 Z M 151 0 L 70 0 L 70 730 L 151 730 L 151 0 Z M 110 799 L 110 799 Z M 171 955 L 233 955 C 229 901 216 861 194 836 C 172 811 144 799 110 799 C 76 799 47 811 25 836 C 3 861 -9 901 -12 955 L 49 955 C 51 927 56 903 65 885 C 73 867 88 858 110 858 C 131 858 146 866 155 884 C 164 902 169 925 171 955 Z" unicode="Ĭ" />
<glyph horiz-adv-x="168" d="M 0 0 L 0 0 Z M 120 0 L 47 0 L 47 533 L 120 533 L 120 0 Z M 83 602 L 83 602 Z M 144 758 L 206 758 C 202 704 189 664 167 639 C 145 614 117 602 83 602 C 49 602 20 614 -1 639 C -23 664 -36 704 -39 758 L 22 758 C 24 730 29 706 38 688 C 46 670 61 661 83 661 C 104 661 119 669 128 687 C 137 705 142 728 144 758 Z" unicode="ĭ" />
<glyph horiz-adv-x="221" d="M 0 0 L 0 0 Z M 151 0 L 70 0 L 70 730 L 151 730 L 151 0 Z M 67 -9 L 67 -9 Z M 161 -105 L 183 -136 C 164 -155 143 -170 121 -181 C 98 -191 73 -197 46 -197 C 16 -197 -7 -189 -24 -175 C -41 -160 -50 -142 -50 -120 C -50 -95 -39 -72 -18 -50 C 3 -28 36 -10 81 5 L 109 4 C 75 -10 51 -25 36 -41 C 21 -57 14 -73 14 -91 C 14 -106 19 -118 29 -127 C 39 -136 52 -141 69 -141 C 87 -141 105 -137 121 -131 C 137 -124 150 -115 161 -105 Z" unicode="Į" />
<glyph horiz-adv-x="168" d="M 0 0 L 0 0 Z M 45 620 L 45 692 L 123 692 L 123 620 L 45 620 Z M 47 0 L 47 533 L 120 533 L 120 0 L 47 0 Z M 35 -9 L 35 -9 Z M 129 -105 L 151 -136 C 132 -155 111 -170 89 -181 C 66 -191 41 -197 14 -197 C -16 -197 -39 -189 -56 -175 C -73 -160 -82 -142 -82 -120 C -82 -95 -71 -72 -50 -50 C -28 -28 4 -10 49 5 L 77 4 C 43 -10 19 -25 4 -41 C -10 -57 -18 -73 -18 -91 C -18 -106 -13 -118 -3 -127 C 7 -136 20 -141 37 -141 C 55 -141 73 -137 89 -131 C 105 -124 118 -115 129 -105 Z" unicode="į" />
<glyph horiz-adv-x="221" d="M 70 0 L 70 0 Z M 151 0 L 70 0 L 70 730 L 151 730 L 151 0 Z M 110 799 L 110 799 Z M 144 799 L 76 799 L 76 909 L 144 909 L 144 799 Z" unicode="İ" />
<glyph horiz-adv-x="168" d="M 120 0 L 47 0 L 47 533 L 120 533 L 120 0 Z" unicode="ı" />
<glyph horiz-adv-x="476" d="M 70 0 L 70 0 Z M 151 0 L 70 0 L 70 730 L 151 730 L 151 0 Z M 422 730 L 422 182 C 422 127 407 82 379 46 C 351 10 311 -8 260 -8 C 248 -8 235 -6 221 -4 C 207 -1 196 2 189 7 L 205 73 C 209 70 216 68 225 66 C 233 64 242 64 252 64 C 280 64 302 76 318 102 C 334 128 342 159 342 195 L 342 730 L 422 730 Z" unicode="Ĳ" />
<glyph horiz-adv-x="332" d="M 45 0 L 45 0 Z M 45 620 L 45 692 L 123 692 L 123 620 L 45 620 Z M 47 0 L 47 533 L 120 533 L 120 0 L 47 0 Z M 287 620 L 211 620 L 211 692 L 287 692 L 287 620 Z M 285 533 L 285 -65 C 285 -91 276 -113 260 -130 C 243 -146 221 -155 195 -155 C 179 -155 166 -152 154 -147 C 142 -142 135 -138 133 -134 L 157 -87 C 159 -88 163 -89 167 -91 C 171 -92 177 -93 184 -93 C 192 -93 199 -90 205 -84 C 210 -78 213 -70 213 -60 L 213 533 L 285 533 Z" unicode="ĳ" />
<glyph horiz-adv-x="286" d="M 0 0 L 0 0 Z M 222 730 L 222 182 C 222 127 207 82 179 46 C 151 10 111 -8 60 -8 C 48 -8 35 -6 21 -4 C 7 -1 -3 2 -11 7 L 5 73 C 9 70 16 68 25 66 C 33 64 42 64 52 64 C 80 64 102 76 118 102 C 134 128 142 159 142 195 L 142 730 L 222 730 Z M 182 793 L 182 793 Z M 310 793 L 246 793 L 182 908 L 117 793 L 55 793 L 151 963 L 214 963 L 310 793 Z" unicode="Ĵ" />
<glyph horiz-adv-x="170" d="M 0 0 L 0 0 Z M 123 533 L 123 -68 C 123 -101 112 -128 90 -148 C 68 -168 43 -179 13 -179 C -1 -179 -14 -176 -26 -171 C -37 -166 -44 -162 -47 -158 L -24 -111 C -21 -112 -17 -113 -13 -115 C -8 -116 -3 -117 3 -117 C 14 -117 25 -112 35 -103 C 45 -93 51 -80 51 -62 L 51 533 L 123 533 Z M 88 596 L 88 596 Z M 216 596 L 152 596 L 88 711 L 23 596 L -39 596 L 57 766 L 120 766 L 216 596 Z" unicode="ĵ" />
<glyph horiz-adv-x="479" d="M 66 0 L 66 0 Z M 489 0 L 400 0 L 184 326 L 147 280 L 147 0 L 66 0 L 66 730 L 147 730 L 147 387 L 384 730 L 465 730 L 231 397 L 489 0 Z M 248 -71 L 248 -71 Z M 322 -71 C 321 -92 318 -114 313 -137 C 308 -160 301 -182 293 -204 C 285 -226 275 -246 265 -265 C 254 -284 243 -301 232 -315 L 175 -289 C 191 -265 207 -232 221 -191 C 235 -150 243 -110 245 -71 L 322 -71 Z" unicode="Ķ" />
<glyph horiz-adv-x="354" d="M 45 0 L 45 0 Z M 362 0 L 285 0 L 168 234 L 118 153 L 118 0 L 45 0 L 45 800 L 114 800 L 114 244 L 275 533 L 351 533 L 215 296 L 362 0 Z M 181 -71 L 181 -71 Z M 255 -71 C 254 -92 251 -114 246 -137 C 241 -160 234 -182 226 -204 C 218 -226 208 -246 198 -265 C 187 -284 176 -301 165 -315 L 108 -289 C 124 -265 140 -232 154 -191 C 168 -150 176 -110 178 -71 L 255 -71 Z" unicode="ķ" />
<glyph horiz-adv-x="354" d="M 362 0 L 285 0 L 168 234 L 118 153 L 118 0 L 45 0 L 45 533 L 114 533 L 114 244 L 275 533 L 351 533 L 215 296 L 362 0 Z" unicode="ĸ" />
<glyph horiz-adv-x="356" d="M 66 0 L 66 0 Z M 349 0 L 66 0 L 66 730 L 146 730 L 146 69 L 349 69 L 349 0 Z M 242 792 L 242 792 Z M 160 792 L 241 964 L 325 964 L 230 792 L 160 792 Z" unicode="Ĺ" />
<glyph horiz-adv-x="182" d="M 44 0 L 44 0 Z M 44 88 L 44 800 L 117 800 L 117 102 C 117 87 120 77 126 71 C 132 65 140 62 151 62 C 155 62 158 62 162 63 C 165 63 168 64 171 65 L 182 5 C 177 2 170 0 162 -2 C 153 -4 143 -5 132 -5 C 107 -5 86 2 69 18 C 52 34 44 57 44 88 Z M 132 862 L 132 862 Z M 50 862 L 131 1034 L 215 1034 L 120 862 L 50 862 Z" unicode="ĺ" />
<glyph horiz-adv-x="356" d="M 66 0 L 66 0 Z M 349 0 L 66 0 L 66 730 L 146 730 L 146 69 L 349 69 L 349 0 Z M 201 -71 L 201 -71 Z M 275 -71 C 274 -92 271 -114 266 -137 C 261 -160 254 -182 246 -204 C 238 -226 228 -246 218 -265 C 207 -284 196 -301 185 -315 L 128 -289 C 144 -265 160 -232 174 -191 C 188 -150 196 -110 198 -71 L 275 -71 Z" unicode="Ļ" />
<glyph horiz-adv-x="182" d="M 19 0 L 19 0 Z M 44 88 L 44 800 L 117 800 L 117 102 C 117 87 120 77 126 71 C 132 65 140 62 151 62 C 155 62 158 62 162 63 C 165 63 168 64 171 65 L 182 5 C 177 2 170 0 162 -2 C 153 -4 143 -5 132 -5 C 107 -5 86 2 69 18 C 52 34 44 57 44 88 Z M 92 -71 L 92 -71 Z M 166 -71 C 165 -92 162 -114 157 -137 C 152 -160 145 -182 137 -204 C 129 -226 119 -246 109 -265 C 98 -284 87 -301 76 -315 L 19 -289 C 35 -265 51 -232 65 -191 C 79 -150 87 -110 89 -71 L 166 -71 Z" unicode="ļ" />
<glyph horiz-adv-x="356" d="M 66 0 L 66 0 Z M 349 0 L 66 0 L 66 730 L 146 730 L 146 69 L 349 69 L 349 0 Z M 380 622 L 376 490 L 314 490 L 310 622 L 310 730 L 380 730 L 380 622 Z" unicode="Ľ" />
<glyph horiz-adv-x="182" d="M 44 0 L 44 0 Z M 44 88 L 44 800 L 117 800 L 117 102 C 117 87 120 77 126 71 C 132 65 140 62 151 62 C 155 62 158 62 162 63 C 165 63 168 64 171 65 L 182 5 C 177 2 170 0 162 -2 C 153 -4 143 -5 132 -5 C 107 -5 86 2 69 18 C 52 34 44 57 44 88 Z M 224 622 L 220 490 L 158 490 L 154 622 L 154 730 L 224 730 L 224 622 Z" unicode="ľ" />
<glyph horiz-adv-x="356" d="M 66 0 L 66 0 Z M 349 0 L 66 0 L 66 730 L 146 730 L 146 69 L 349 69 L 349 0 Z M 268 290 L 268 290 Z M 302 290 L 234 290 L 234 400 L 302 400 L 302 290 Z" unicode="Ŀ" />
<glyph horiz-adv-x="182" d="M 44 0 L 44 0 Z M 44 88 L 44 800 L 117 800 L 117 102 C 117 87 120 77 126 71 C 132 65 140 62 151 62 C 155 62 158 62 162 63 C 165 63 168 64 171 65 L 182 5 C 177 2 170 0 162 -2 C 153 -4 143 -5 132 -5 C 107 -5 86 2 69 18 C 52 34 44 57 44 88 Z M 191 245 L 191 245 Z M 225 245 L 157 245 L 157 355 L 225 355 L 225 245 Z" unicode="ŀ" />
<glyph horiz-adv-x="356" d="M 349 65 L 349 0 L 66 0 L 66 265 L 22 246 L -6 307 L 66 338 L 66 730 L 146 730 L 146 372 L 290 434 L 316 373 L 146 300 L 146 65 L 349 65 Z" unicode="Ł" />
<glyph horiz-adv-x="182" d="M 190 5 C 185 2 179 0 171 -2 C 163 -4 153 -5 143 -5 C 118 -5 98 2 82 18 C 66 34 58 57 58 88 L 58 265 L 15 245 L -9 303 L 58 335 L 58 800 L 130 800 L 130 369 L 186 396 L 211 338 L 130 300 L 130 104 C 130 88 132 77 137 71 C 142 65 150 62 160 62 C 163 62 166 62 170 63 C 173 63 176 64 179 65 L 190 5 Z" unicode="ł" />
<glyph horiz-adv-x="536" d="M 66 0 L 66 0 Z M 470 0 L 412 0 L 141 541 L 141 0 L 66 0 L 66 730 L 123 730 L 397 183 L 397 730 L 470 730 L 470 0 Z M 269 792 L 269 792 Z M 187 792 L 268 964 L 352 964 L 257 792 L 187 792 Z" unicode="Ń" />
<glyph horiz-adv-x="392" d="M 45 0 L 45 0 Z M 348 0 L 275 0 L 275 399 C 275 423 268 442 256 455 C 243 468 226 475 204 475 C 180 475 160 468 143 454 C 126 440 118 414 118 376 L 118 0 L 45 0 L 45 533 L 107 533 L 107 457 C 114 480 128 499 149 514 C 170 529 197 537 231 537 C 265 537 293 527 315 509 C 337 491 348 462 348 424 L 348 0 Z M 197 595 L 197 595 Z M 115 595 L 196 767 L 280 767 L 185 595 L 115 595 Z" unicode="ń" />
<glyph horiz-adv-x="536" d="M 66 0 L 66 0 Z M 470 0 L 412 0 L 141 541 L 141 0 L 66 0 L 66 730 L 123 730 L 397 183 L 397 730 L 470 730 L 470 0 Z M 255 -71 L 255 -71 Z M 329 -71 C 328 -92 325 -114 320 -137 C 315 -160 308 -182 300 -204 C 292 -226 282 -246 272 -265 C 261 -284 250 -301 239 -315 L 182 -289 C 198 -265 214 -232 228 -191 C 242 -150 250 -110 252 -71 L 329 -71 Z" unicode="Ņ" />
<glyph horiz-adv-x="392" d="M 45 0 L 45 0 Z M 348 0 L 275 0 L 275 399 C 275 423 268 442 256 455 C 243 468 226 475 204 475 C 180 475 160 468 143 454 C 126 440 118 414 118 376 L 118 0 L 45 0 L 45 533 L 107 533 L 107 457 C 114 480 128 499 149 514 C 170 529 197 537 231 537 C 265 537 293 527 315 509 C 337 491 348 462 348 424 L 348 0 Z M 178 -71 L 178 -71 Z M 252 -71 C 251 -92 248 -114 243 -137 C 238 -160 231 -182 223 -204 C 215 -226 205 -246 195 -265 C 184 -284 173 -301 162 -315 L 105 -289 C 121 -265 137 -232 151 -191 C 165 -150 173 -110 175 -71 L 252 -71 Z" unicode="ņ" />
<glyph horiz-adv-x="536" d="M 66 0 L 66 0 Z M 470 0 L 412 0 L 141 541 L 141 0 L 66 0 L 66 730 L 123 730 L 397 183 L 397 730 L 470 730 L 470 0 Z M 269 793 L 269 793 Z M 142 963 L 206 963 L 270 849 L 335 963 L 397 963 L 301 793 L 238 793 L 142 963 Z" unicode="Ň" />
<glyph horiz-adv-x="392" d="M 45 0 L 45 0 Z M 348 0 L 275 0 L 275 399 C 275 423 268 442 256 455 C 243 468 226 475 204 475 C 180 475 160 468 143 454 C 126 440 118 414 118 376 L 118 0 L 45 0 L 45 533 L 107 533 L 107 457 C 114 480 128 499 149 514 C 170 529 197 537 231 537 C 265 537 293 527 315 509 C 337 491 348 462 348 424 L 348 0 Z M 197 596 L 197 596 Z M 70 766 L 134 766 L 198 652 L 263 766 L 325 766 L 229 596 L 166 596 L 70 766 Z" unicode="ň" />
<glyph horiz-adv-x="536" d="M 397 730 L 470 730 L 470 -6 C 470 -60 455 -106 427 -142 C 399 -178 359 -196 308 -196 C 296 -196 283 -194 269 -192 C 255 -189 244 -185 237 -181 L 252 -115 C 256 -117 263 -119 272 -121 C 281 -123 290 -124 299 -124 C 328 -124 352 -111 370 -85 C 388 -59 397 -29 397 7 L 397 30 L 141 541 L 141 0 L 66 0 L 66 730 L 123 730 L 397 183 L 397 730 Z" unicode="Ŋ" />
<glyph horiz-adv-x="392" d="M 231 537 C 265 537 293 527 315 509 C 337 491 348 462 348 424 L 348 -33 C 348 -83 335 -123 309 -153 C 283 -183 249 -198 205 -198 C 195 -198 184 -196 172 -194 C 160 -192 151 -189 146 -185 L 161 -120 C 164 -122 169 -123 176 -124 C 182 -125 189 -126 196 -126 C 218 -126 236 -116 252 -96 C 267 -76 275 -50 275 -18 L 275 399 C 275 423 268 442 256 455 C 243 468 226 475 204 475 C 180 475 160 468 143 454 C 126 440 118 414 118 376 L 118 0 L 45 0 L 45 533 L 107 533 L 107 457 C 114 480 128 499 149 514 C 170 529 197 537 231 537 Z" unicode="ŋ" />
<glyph horiz-adv-x="574" d="M 37 0 L 37 0 Z M 289 -7 C 211 -7 150 25 105 90 C 59 154 37 248 37 371 C 37 486 59 576 105 640 C 150 704 210 737 284 737 C 364 737 426 705 470 641 C 514 577 537 485 537 365 C 537 307 530 254 518 208 C 506 162 489 123 467 91 C 445 59 419 35 389 18 C 358 1 325 -7 289 -7 Z M 288 56 C 338 56 378 82 408 134 C 438 186 454 265 454 372 C 454 471 438 546 408 597 C 377 648 336 674 285 674 C 233 674 192 648 163 598 C 134 547 120 469 120 365 C 120 259 135 181 167 131 C 198 81 238 56 288 56 Z M 287 814 L 287 814 Z M 404 814 L 170 814 L 170 876 L 404 876 L 404 814 Z" unicode="Ō" />
<glyph horiz-adv-x="388" d="M 23 0 L 23 0 Z M 195 -5 C 145 -5 103 17 71 63 C 39 109 23 176 23 265 C 23 349 38 415 69 464 C 100 512 140 537 189 537 C 242 537 285 514 317 469 C 349 423 365 360 365 279 C 365 192 349 123 319 72 C 289 20 247 -5 195 -5 Z M 196 59 C 226 59 249 76 265 111 C 281 145 289 198 289 270 C 289 340 280 392 263 424 C 246 456 222 473 191 473 C 162 473 139 456 123 423 C 107 390 99 339 99 270 C 99 194 107 140 125 108 C 143 75 166 59 196 59 Z M 194 617 L 194 617 Z M 311 617 L 77 617 L 77 679 L 311 679 L 311 617 Z" unicode="ō" />
<glyph horiz-adv-x="574" d="M 37 0 L 37 0 Z M 289 -7 C 211 -7 150 25 105 90 C 59 154 37 248 37 371 C 37 486 59 576 105 640 C 150 704 210 737 284 737 C 364 737 426 705 470 641 C 514 577 537 485 537 365 C 537 307 530 254 518 208 C 506 162 489 123 467 91 C 445 59 419 35 389 18 C 358 1 325 -7 289 -7 Z M 288 56 C 338 56 378 82 408 134 C 438 186 454 265 454 372 C 454 471 438 546 408 597 C 377 648 336 674 285 674 C 233 674 192 648 163 598 C 134 547 120 469 120 365 C 120 259 135 181 167 131 C 198 81 238 56 288 56 Z M 287 799 L 287 799 Z M 348 955 L 410 955 C 406 901 393 861 371 836 C 349 811 321 799 287 799 C 253 799 224 811 202 836 C 180 861 167 901 165 955 L 226 955 C 228 927 233 903 242 885 C 250 867 265 858 287 858 C 308 858 323 866 332 884 C 341 902 346 925 348 955 Z" unicode="Ŏ" />
<glyph horiz-adv-x="388" d="M 23 0 L 23 0 Z M 195 -5 C 145 -5 103 17 71 63 C 39 109 23 176 23 265 C 23 349 38 415 69 464 C 100 512 140 537 189 537 C 242 537 285 514 317 469 C 349 423 365 360 365 279 C 365 192 349 123 319 72 C 289 20 247 -5 195 -5 Z M 196 59 C 226 59 249 76 265 111 C 281 145 289 198 289 270 C 289 340 280 392 263 424 C 246 456 222 473 191 473 C 162 473 139 456 123 423 C 107 390 99 339 99 270 C 99 194 107 140 125 108 C 143 75 166 59 196 59 Z M 194 602 L 194 602 Z M 255 758 L 317 758 C 313 704 300 664 278 639 C 256 614 228 602 194 602 C 160 602 131 614 109 639 C 87 664 74 704 72 758 L 133 758 C 135 730 140 706 149 688 C 157 670 172 661 194 661 C 215 661 230 669 239 687 C 248 705 253 728 255 758 Z" unicode="ŏ" />
<glyph horiz-adv-x="574" d="M 37 0 L 37 0 Z M 289 -7 C 211 -7 150 25 105 90 C 59 154 37 248 37 371 C 37 486 59 576 105 640 C 150 704 210 737 284 737 C 364 737 426 705 470 641 C 514 577 537 485 537 365 C 537 307 530 254 518 208 C 506 162 489 123 467 91 C 445 59 419 35 389 18 C 358 1 325 -7 289 -7 Z M 288 56 C 338 56 378 82 408 134 C 438 186 454 265 454 372 C 454 471 438 546 408 597 C 377 648 336 674 285 674 C 233 674 192 648 163 598 C 134 547 120 469 120 365 C 120 259 135 181 167 131 C 198 81 238 56 288 56 Z M 287 792 L 287 792 Z M 139 792 L 200 949 L 279 949 L 205 792 L 139 792 Z M 295 792 L 357 949 L 435 949 L 361 792 L 295 792 Z" unicode="Ő" />
<glyph horiz-adv-x="388" d="M 23 0 L 23 0 Z M 195 -5 C 145 -5 103 17 71 63 C 39 109 23 176 23 265 C 23 349 38 415 69 464 C 100 512 140 537 189 537 C 242 537 285 514 317 469 C 349 423 365 360 365 279 C 365 192 349 123 319 72 C 289 20 247 -5 195 -5 Z M 196 59 C 226 59 249 76 265 111 C 281 145 289 198 289 270 C 289 340 280 392 263 424 C 246 456 222 473 191 473 C 162 473 139 456 123 423 C 107 390 99 339 99 270 C 99 194 107 140 125 108 C 143 75 166 59 196 59 Z M 194 595 L 194 595 Z M 46 595 L 107 752 L 186 752 L 112 595 L 46 595 Z M 202 595 L 264 752 L 342 752 L 268 595 L 202 595 Z" unicode="ő" />
<glyph horiz-adv-x="759" d="M 266 -7 C 197 -7 142 25 100 90 C 58 154 37 248 37 371 C 37 486 58 576 100 640 C 142 704 196 737 262 737 C 288 737 310 732 330 724 C 350 715 367 704 381 690 C 395 676 406 659 414 641 C 422 622 429 603 433 583 L 433 730 L 725 730 L 725 661 L 511 661 L 511 398 L 717 398 L 717 331 L 511 331 L 511 69 L 741 69 L 741 0 L 433 0 L 433 154 C 429 134 423 115 415 96 C 406 76 395 59 381 44 C 367 28 350 16 331 7 C 311 -2 290 -7 266 -7 Z M 277 52 C 324 52 362 78 391 131 C 419 183 434 264 434 372 C 434 472 419 548 390 600 C 360 652 322 678 274 678 C 224 678 186 652 159 601 C 132 550 119 471 119 365 C 119 257 133 178 163 128 C 192 77 230 52 277 52 Z" unicode="Œ" />
<glyph horiz-adv-x="639" d="M 195 -5 C 145 -5 103 17 71 63 C 39 109 23 176 23 265 C 23 349 38 415 69 464 C 100 512 140 537 189 537 C 229 537 261 522 285 492 C 309 462 323 426 326 382 C 328 424 342 460 366 491 C 390 521 421 537 458 537 C 508 537 547 511 576 460 C 604 409 619 339 619 250 L 359 250 C 359 196 368 150 386 114 C 404 78 431 60 466 60 C 492 60 514 66 532 80 C 549 93 563 107 573 123 L 607 82 C 594 61 576 41 552 23 C 528 4 498 -5 462 -5 C 419 -5 386 9 363 39 C 340 68 327 103 325 143 C 319 103 306 68 285 39 C 263 9 233 -5 195 -5 Z M 357 302 L 549 302 C 549 355 540 397 522 428 C 504 459 481 475 455 475 C 427 475 404 459 387 429 C 369 398 359 356 357 302 Z M 196 59 C 226 59 249 76 265 111 C 281 145 289 198 289 270 C 289 340 280 392 263 424 C 246 456 222 472 191 472 C 162 472 139 455 123 423 C 107 390 99 339 99 270 C 99 194 107 139 125 107 C 143 75 166 59 196 59 Z" unicode="œ" />
<glyph horiz-adv-x="454" d="M 66 0 L 66 0 Z M 66 0 L 66 730 L 209 730 C 261 730 304 713 340 681 C 376 648 394 598 394 532 C 394 476 381 430 356 395 C 330 360 298 341 260 338 L 256 334 L 451 0 L 369 0 L 187 317 L 140 317 L 140 0 L 66 0 Z M 140 383 L 199 383 C 235 383 264 395 286 420 C 308 445 320 480 320 524 C 320 572 308 608 284 631 C 260 653 232 665 200 665 L 140 665 L 140 383 Z M 217 792 L 217 792 Z M 135 792 L 216 964 L 300 964 L 205 792 L 135 792 Z" unicode="Ŕ" />
<glyph horiz-adv-x="283" d="M 45 0 L 45 0 Z M 287 508 L 262 447 C 252 456 243 462 234 466 C 224 469 214 471 202 471 C 193 471 184 469 174 466 C 164 462 155 456 147 448 C 139 440 132 428 126 413 C 120 398 118 379 118 356 L 118 0 L 45 0 L 45 533 L 116 533 L 116 456 C 122 478 133 497 151 513 C 168 529 188 537 212 537 C 228 537 243 534 256 528 C 269 522 279 516 287 508 Z M 172 595 L 172 595 Z M 90 595 L 171 767 L 255 767 L 160 595 L 90 595 Z" unicode="ŕ" />
<glyph horiz-adv-x="454" d="M 66 0 L 66 0 Z M 66 0 L 66 730 L 209 730 C 261 730 304 713 340 681 C 376 648 394 598 394 532 C 394 476 381 430 356 395 C 330 360 298 341 260 338 L 256 334 L 451 0 L 369 0 L 187 317 L 140 317 L 140 0 L 66 0 Z M 140 383 L 199 383 C 235 383 264 395 286 420 C 308 445 320 480 320 524 C 320 572 308 608 284 631 C 260 653 232 665 200 665 L 140 665 L 140 383 Z M 223 -71 L 223 -71 Z M 297 -71 C 296 -92 293 -114 288 -137 C 283 -160 276 -182 268 -204 C 260 -226 250 -246 240 -265 C 229 -284 218 -301 207 -315 L 150 -289 C 166 -265 182 -232 196 -191 C 210 -150 218 -110 220 -71 L 297 -71 Z" unicode="Ŗ" />
<glyph horiz-adv-x="283" d="M 45 0 L 45 0 Z M 287 508 L 262 447 C 252 456 243 462 234 466 C 224 469 214 471 202 471 C 193 471 184 469 174 466 C 164 462 155 456 147 448 C 139 440 132 428 126 413 C 120 398 118 379 118 356 L 118 0 L 45 0 L 45 533 L 116 533 L 116 456 C 122 478 133 497 151 513 C 168 529 188 537 212 537 C 228 537 243 534 256 528 C 269 522 279 516 287 508 Z M 151 -71 L 151 -71 Z M 225 -71 C 224 -92 221 -114 216 -137 C 211 -160 204 -182 196 -204 C 188 -226 178 -246 168 -265 C 157 -284 146 -301 135 -315 L 78 -289 C 94 -265 110 -232 124 -191 C 138 -150 146 -110 148 -71 L 225 -71 Z" unicode="ŗ" />
<glyph horiz-adv-x="454" d="M 66 0 L 66 0 Z M 66 0 L 66 730 L 209 730 C 261 730 304 713 340 681 C 376 648 394 598 394 532 C 394 476 381 430 356 395 C 330 360 298 341 260 338 L 256 334 L 451 0 L 369 0 L 187 317 L 140 317 L 140 0 L 66 0 Z M 140 383 L 199 383 C 235 383 264 395 286 420 C 308 445 320 480 320 524 C 320 572 308 608 284 631 C 260 653 232 665 200 665 L 140 665 L 140 383 Z M 217 793 L 217 793 Z M 90 963 L 154 963 L 218 849 L 283 963 L 345 963 L 249 793 L 186 793 L 90 963 Z" unicode="Ř" />
<glyph horiz-adv-x="283" d="M 45 0 L 45 0 Z M 287 508 L 262 447 C 252 456 243 462 234 466 C 224 469 214 471 202 471 C 193 471 184 469 174 466 C 164 462 155 456 147 448 C 139 440 132 428 126 413 C 120 398 118 379 118 356 L 118 0 L 45 0 L 45 533 L 116 533 L 116 456 C 122 478 133 497 151 513 C 168 529 188 537 212 537 C 228 537 243 534 256 528 C 269 522 279 516 287 508 Z M 172 596 L 172 596 Z M 45 766 L 109 766 L 173 652 L 238 766 L 300 766 L 204 596 L 141 596 L 45 766 Z" unicode="ř" />
<glyph horiz-adv-x="404" d="M 23 0 L 23 0 Z M 202 -7 C 165 -7 132 0 102 13 C 72 27 45 49 23 81 L 75 129 C 89 102 108 83 132 71 C 155 59 177 54 199 54 C 226 54 250 64 271 85 C 292 106 303 135 303 171 C 303 207 294 238 277 262 C 259 286 228 313 182 343 C 136 372 101 403 77 436 C 53 468 41 512 41 567 C 41 593 45 616 54 637 C 62 658 74 676 89 691 C 104 705 122 717 142 725 C 162 733 184 737 207 737 C 245 737 276 730 301 716 C 325 702 345 687 359 671 L 311 622 C 299 635 284 646 266 656 C 248 666 228 671 207 671 C 183 671 161 661 141 643 C 121 624 112 597 112 563 C 112 529 121 501 137 480 C 153 459 185 434 233 404 C 286 371 323 337 343 303 C 363 268 373 226 373 178 C 373 148 368 122 358 99 C 348 75 336 56 320 40 C 304 24 286 13 266 5 C 245 -3 224 -7 202 -7 Z M 204 792 L 204 792 Z M 122 792 L 203 964 L 287 964 L 192 792 L 122 792 Z" unicode="Ś" />
<glyph horiz-adv-x="301" d="M 17 0 L 17 0 Z M 156 -5 C 125 -5 97 1 73 14 C 49 27 30 45 17 68 L 56 118 C 66 99 79 84 95 74 C 110 64 127 59 146 59 C 163 59 179 65 193 78 C 207 91 215 111 215 137 C 215 161 207 181 192 197 C 177 212 155 230 127 250 C 96 270 72 292 56 314 C 40 336 32 368 32 408 C 32 444 43 475 66 500 C 89 524 118 537 153 537 C 179 537 202 532 222 523 C 242 514 258 503 270 491 L 242 429 C 233 438 221 447 207 457 C 192 467 176 472 160 472 C 142 472 126 466 113 455 C 99 443 93 427 93 407 C 93 386 99 370 111 358 C 123 346 145 330 176 309 C 212 283 238 257 254 232 C 270 207 278 174 278 133 C 278 109 274 88 266 71 C 258 53 249 39 237 28 C 225 16 212 8 198 3 C 184 -2 170 -5 156 -5 Z M 153 595 L 153 595 Z M 71 595 L 152 767 L 236 767 L 141 595 L 71 595 Z" unicode="ś" />
<glyph horiz-adv-x="404" d="M 23 0 L 23 0 Z M 202 -7 C 165 -7 132 0 102 13 C 72 27 45 49 23 81 L 75 129 C 89 102 108 83 132 71 C 155 59 177 54 199 54 C 226 54 250 64 271 85 C 292 106 303 135 303 171 C 303 207 294 238 277 262 C 259 286 228 313 182 343 C 136 372 101 403 77 436 C 53 468 41 512 41 567 C 41 593 45 616 54 637 C 62 658 74 676 89 691 C 104 705 122 717 142 725 C 162 733 184 737 207 737 C 245 737 276 730 301 716 C 325 702 345 687 359 671 L 311 622 C 299 635 284 646 266 656 C 248 666 228 671 207 671 C 183 671 161 661 141 643 C 121 624 112 597 112 563 C 112 529 121 501 137 480 C 153 459 185 434 233 404 C 286 371 323 337 343 303 C 363 268 373 226 373 178 C 373 148 368 122 358 99 C 348 75 336 56 320 40 C 304 24 286 13 266 5 C 245 -3 224 -7 202 -7 Z M 204 793 L 204 793 Z M 332 793 L 268 793 L 204 908 L 139 793 L 77 793 L 173 963 L 236 963 L 332 793 Z" unicode="Ŝ" />
<glyph horiz-adv-x="301" d="M 17 0 L 17 0 Z M 156 -5 C 125 -5 97 1 73 14 C 49 27 30 45 17 68 L 56 118 C 66 99 79 84 95 74 C 110 64 127 59 146 59 C 163 59 179 65 193 78 C 207 91 215 111 215 137 C 215 161 207 181 192 197 C 177 212 155 230 127 250 C 96 270 72 292 56 314 C 40 336 32 368 32 408 C 32 444 43 475 66 500 C 89 524 118 537 153 537 C 179 537 202 532 222 523 C 242 514 258 503 270 491 L 242 429 C 233 438 221 447 207 457 C 192 467 176 472 160 472 C 142 472 126 466 113 455 C 99 443 93 427 93 407 C 93 386 99 370 111 358 C 123 346 145 330 176 309 C 212 283 238 257 254 232 C 270 207 278 174 278 133 C 278 109 274 88 266 71 C 258 53 249 39 237 28 C 225 16 212 8 198 3 C 184 -2 170 -5 156 -5 Z M 153 596 L 153 596 Z M 281 596 L 217 596 L 153 711 L 88 596 L 26 596 L 122 766 L 185 766 L 281 596 Z" unicode="ŝ" />
<glyph horiz-adv-x="404" d="M 23 0 L 23 0 Z M 202 -7 C 165 -7 132 0 102 13 C 72 27 45 49 23 81 L 75 129 C 89 102 108 83 132 71 C 155 59 177 54 199 54 C 226 54 250 64 271 85 C 292 106 303 135 303 171 C 303 207 294 238 277 262 C 259 286 228 313 182 343 C 136 372 101 403 77 436 C 53 468 41 512 41 567 C 41 593 45 616 54 637 C 62 658 74 676 89 691 C 104 705 122 717 142 725 C 162 733 184 737 207 737 C 245 737 276 730 301 716 C 325 702 345 687 359 671 L 311 622 C 299 635 284 646 266 656 C 248 666 228 671 207 671 C 183 671 161 661 141 643 C 121 624 112 597 112 563 C 112 529 121 501 137 480 C 153 459 185 434 233 404 C 286 371 323 337 343 303 C 363 268 373 226 373 178 C 373 148 368 122 358 99 C 348 75 336 56 320 40 C 304 24 286 13 266 5 C 245 -3 224 -7 202 -7 Z M 187 0 L 187 0 Z M 192 -180 C 173 -180 154 -177 136 -171 C 118 -165 102 -157 90 -147 L 109 -117 C 117 -123 127 -130 140 -136 C 153 -142 168 -145 184 -145 C 197 -145 208 -141 218 -134 C 228 -126 233 -117 233 -106 C 233 -92 228 -83 219 -77 C 210 -71 200 -68 190 -68 C 182 -68 176 -68 170 -69 C 164 -70 158 -72 153 -75 L 143 -59 L 193 10 L 229 10 L 189 -47 C 215 -43 238 -46 257 -56 C 275 -66 285 -82 285 -106 C 285 -128 276 -146 258 -160 C 240 -173 218 -180 192 -180 Z" unicode="Ş" />
<glyph horiz-adv-x="301" d="M 17 0 L 17 0 Z M 156 -5 C 125 -5 97 1 73 14 C 49 27 30 45 17 68 L 56 118 C 66 99 79 84 95 74 C 110 64 127 59 146 59 C 163 59 179 65 193 78 C 207 91 215 111 215 137 C 215 161 207 181 192 197 C 177 212 155 230 127 250 C 96 270 72 292 56 314 C 40 336 32 368 32 408 C 32 444 43 475 66 500 C 89 524 118 537 153 537 C 179 537 202 532 222 523 C 242 514 258 503 270 491 L 242 429 C 233 438 221 447 207 457 C 192 467 176 472 160 472 C 142 472 126 466 113 455 C 99 443 93 427 93 407 C 93 386 99 370 111 358 C 123 346 145 330 176 309 C 212 283 238 257 254 232 C 270 207 278 174 278 133 C 278 109 274 88 266 71 C 258 53 249 39 237 28 C 225 16 212 8 198 3 C 184 -2 170 -5 156 -5 Z M 142 0 L 142 0 Z M 147 -180 C 128 -180 109 -177 91 -171 C 73 -165 57 -157 45 -147 L 64 -117 C 72 -123 82 -130 95 -136 C 108 -142 123 -145 139 -145 C 152 -145 163 -141 173 -134 C 183 -126 188 -117 188 -106 C 188 -92 183 -83 174 -77 C 165 -71 155 -68 145 -68 C 137 -68 131 -68 125 -69 C 119 -70 113 -72 108 -75 L 98 -59 L 148 10 L 184 10 L 144 -47 C 170 -43 193 -46 212 -56 C 230 -66 240 -82 240 -106 C 240 -128 231 -146 213 -160 C 195 -173 173 -180 147 -180 Z" unicode="ş" />
<glyph horiz-adv-x="404" d="M 23 0 L 23 0 Z M 202 -7 C 165 -7 132 0 102 13 C 72 27 45 49 23 81 L 75 129 C 89 102 108 83 132 71 C 155 59 177 54 199 54 C 226 54 250 64 271 85 C 292 106 303 135 303 171 C 303 207 294 238 277 262 C 259 286 228 313 182 343 C 136 372 101 403 77 436 C 53 468 41 512 41 567 C 41 593 45 616 54 637 C 62 658 74 676 89 691 C 104 705 122 717 142 725 C 162 733 184 737 207 737 C 245 737 276 730 301 716 C 325 702 345 687 359 671 L 311 622 C 299 635 284 646 266 656 C 248 666 228 671 207 671 C 183 671 161 661 141 643 C 121 624 112 597 112 563 C 112 529 121 501 137 480 C 153 459 185 434 233 404 C 286 371 323 337 343 303 C 363 268 373 226 373 178 C 373 148 368 122 358 99 C 348 75 336 56 320 40 C 304 24 286 13 266 5 C 245 -3 224 -7 202 -7 Z M 204 793 L 204 793 Z M 77 963 L 141 963 L 205 849 L 270 963 L 332 963 L 236 793 L 173 793 L 77 963 Z" unicode="Š" />
<glyph horiz-adv-x="301" d="M 17 0 L 17 0 Z M 156 -5 C 125 -5 97 1 73 14 C 49 27 30 45 17 68 L 56 118 C 66 99 79 84 95 74 C 110 64 127 59 146 59 C 163 59 179 65 193 78 C 207 91 215 111 215 137 C 215 161 207 181 192 197 C 177 212 155 230 127 250 C 96 270 72 292 56 314 C 40 336 32 368 32 408 C 32 444 43 475 66 500 C 89 524 118 537 153 537 C 179 537 202 532 222 523 C 242 514 258 503 270 491 L 242 429 C 233 438 221 447 207 457 C 192 467 176 472 160 472 C 142 472 126 466 113 455 C 99 443 93 427 93 407 C 93 386 99 370 111 358 C 123 346 145 330 176 309 C 212 283 238 257 254 232 C 270 207 278 174 278 133 C 278 109 274 88 266 71 C 258 53 249 39 237 28 C 225 16 212 8 198 3 C 184 -2 170 -5 156 -5 Z M 153 596 L 153 596 Z M 26 766 L 90 766 L 154 652 L 219 766 L 281 766 L 185 596 L 122 596 L 26 766 Z" unicode="š" />
<glyph horiz-adv-x="370" d="M 7 0 L 7 0 Z M 362 661 L 224 661 L 224 0 L 144 0 L 144 661 L 7 661 L 7 730 L 362 730 L 362 661 Z M 184 793 L 184 793 Z M 57 963 L 121 963 L 185 849 L 250 963 L 312 963 L 216 793 L 153 793 L 57 963 Z" unicode="Ť" />
<glyph horiz-adv-x="207" d="M 9 0 L 9 0 Z M 192 75 L 206 14 C 201 10 194 6 184 2 C 174 -1 160 -3 144 -3 C 121 -3 101 6 83 24 C 65 42 56 67 56 100 L 56 468 L 9 468 L 9 533 L 58 533 L 58 632 L 127 643 L 127 533 L 195 533 L 195 468 L 129 468 L 129 106 C 129 94 132 84 139 77 C 145 70 154 67 164 67 C 169 67 174 67 180 69 C 185 71 189 73 192 75 Z M 295 622 L 291 490 L 229 490 L 225 622 L 225 730 L 295 730 L 295 622 Z" unicode="ť" />
<glyph horiz-adv-x="370" d="M 340 467 L 224 467 L 224 0 L 144 0 L 144 467 L 30 467 L 30 531 L 144 531 L 144 661 L 7 661 L 7 730 L 362 730 L 362 661 L 224 661 L 224 531 L 340 531 L 340 467 Z" unicode="Ŧ" />
<glyph horiz-adv-x="207" d="M 206 14 C 201 10 194 6 184 2 C 174 -1 160 -3 144 -3 C 121 -3 101 6 83 24 C 65 42 56 67 56 100 L 56 312 L 17 312 L 17 376 L 56 376 L 56 468 L 9 468 L 9 533 L 58 533 L 58 632 L 127 643 L 127 533 L 195 533 L 195 468 L 129 468 L 129 376 L 178 376 L 178 312 L 129 312 L 129 106 C 129 94 132 84 139 77 C 145 70 154 67 164 67 C 169 67 174 67 180 69 C 185 71 189 73 192 75 L 206 14 Z" unicode="ŧ" />
<glyph horiz-adv-x="535" d="M 62 0 L 62 0 Z M 472 730 L 472 214 C 472 174 466 139 455 111 C 443 83 428 60 409 43 C 390 25 368 13 343 5 C 317 -3 291 -7 263 -7 C 236 -7 210 -3 186 4 C 162 12 140 24 122 41 C 104 58 89 81 78 109 C 67 137 62 172 62 214 L 62 730 L 142 730 L 142 214 C 142 158 153 118 177 96 C 201 73 230 62 266 62 C 300 62 329 72 353 94 C 377 116 389 156 389 214 L 389 730 L 472 730 Z M 266 800 L 266 800 Z M 356 931 L 410 931 C 410 887 404 854 392 832 C 380 810 365 800 346 800 C 328 800 313 804 300 812 C 286 820 275 828 267 836 C 257 844 248 851 239 858 C 230 865 221 869 213 869 C 204 869 196 863 189 851 C 182 839 179 824 179 805 L 123 805 C 123 849 131 881 147 903 C 163 925 181 936 200 936 C 214 936 227 932 239 924 C 250 916 261 907 272 898 C 280 890 289 883 298 877 C 306 871 315 868 324 868 C 332 868 339 873 346 884 C 352 895 356 911 356 931 Z" unicode="Ũ" />
<glyph horiz-adv-x="392" d="M 44 0 L 44 0 Z M 44 533 L 117 533 L 117 144 C 117 114 123 92 137 78 C 151 63 169 56 193 56 C 214 56 233 63 249 79 C 265 95 274 123 274 165 L 274 533 L 347 533 L 347 0 L 283 0 L 283 78 C 276 55 262 35 241 19 C 219 3 193 -5 162 -5 C 130 -5 102 5 79 27 C 55 49 44 81 44 123 L 44 533 Z M 196 603 L 196 603 Z M 286 734 L 340 734 C 340 690 334 657 322 635 C 310 613 295 603 276 603 C 258 603 243 607 230 615 C 216 623 205 631 197 639 C 187 647 178 654 169 661 C 160 668 151 672 143 672 C 134 672 126 666 119 654 C 112 642 109 627 109 608 L 53 608 C 53 652 61 684 77 706 C 93 728 111 739 130 739 C 144 739 157 735 169 727 C 180 719 191 710 202 701 C 210 693 219 686 228 680 C 236 674 245 671 254 671 C 262 671 269 676 276 687 C 282 698 286 714 286 734 Z" unicode="ũ" />
<glyph horiz-adv-x="535" d="M 62 0 L 62 0 Z M 472 730 L 472 214 C 472 174 466 139 455 111 C 443 83 428 60 409 43 C 390 25 368 13 343 5 C 317 -3 291 -7 263 -7 C 236 -7 210 -3 186 4 C 162 12 140 24 122 41 C 104 58 89 81 78 109 C 67 137 62 172 62 214 L 62 730 L 142 730 L 142 214 C 142 158 153 118 177 96 C 201 73 230 62 266 62 C 300 62 329 72 353 94 C 377 116 389 156 389 214 L 389 730 L 472 730 Z M 266 814 L 266 814 Z M 383 814 L 149 814 L 149 876 L 383 876 L 383 814 Z" unicode="Ū" />
<glyph horiz-adv-x="392" d="M 44 0 L 44 0 Z M 44 533 L 117 533 L 117 144 C 117 114 123 92 137 78 C 151 63 169 56 193 56 C 214 56 233 63 249 79 C 265 95 274 123 274 165 L 274 533 L 347 533 L 347 0 L 283 0 L 283 78 C 276 55 262 35 241 19 C 219 3 193 -5 162 -5 C 130 -5 102 5 79 27 C 55 49 44 81 44 123 L 44 533 Z M 196 617 L 196 617 Z M 313 617 L 79 617 L 79 679 L 313 679 L 313 617 Z" unicode="ū" />
<glyph horiz-adv-x="535" d="M 62 0 L 62 0 Z M 472 730 L 472 214 C 472 174 466 139 455 111 C 443 83 428 60 409 43 C 390 25 368 13 343 5 C 317 -3 291 -7 263 -7 C 236 -7 210 -3 186 4 C 162 12 140 24 122 41 C 104 58 89 81 78 109 C 67 137 62 172 62 214 L 62 730 L 142 730 L 142 214 C 142 158 153 118 177 96 C 201 73 230 62 266 62 C 300 62 329 72 353 94 C 377 116 389 156 389 214 L 389 730 L 472 730 Z M 266 799 L 266 799 Z M 327 955 L 389 955 C 385 901 372 861 350 836 C 328 811 300 799 266 799 C 232 799 203 811 181 836 C 159 861 146 901 144 955 L 205 955 C 207 927 212 903 221 885 C 229 867 244 858 266 858 C 287 858 302 866 311 884 C 320 902 325 925 327 955 Z" unicode="Ŭ" />
<glyph horiz-adv-x="392" d="M 44 0 L 44 0 Z M 44 533 L 117 533 L 117 144 C 117 114 123 92 137 78 C 151 63 169 56 193 56 C 214 56 233 63 249 79 C 265 95 274 123 274 165 L 274 533 L 347 533 L 347 0 L 283 0 L 283 78 C 276 55 262 35 241 19 C 219 3 193 -5 162 -5 C 130 -5 102 5 79 27 C 55 49 44 81 44 123 L 44 533 Z M 196 602 L 196 602 Z M 257 758 L 319 758 C 315 704 302 664 280 639 C 258 614 230 602 196 602 C 162 602 133 614 111 639 C 89 664 76 704 74 758 L 135 758 C 137 730 142 706 151 688 C 159 670 174 661 196 661 C 217 661 232 669 241 687 C 250 705 255 728 257 758 Z" unicode="ŭ" />
<glyph horiz-adv-x="535" d="M 62 0 L 62 0 Z M 472 730 L 472 214 C 472 174 466 139 455 111 C 443 83 428 60 409 43 C 390 25 368 13 343 5 C 317 -3 291 -7 263 -7 C 236 -7 210 -3 186 4 C 162 12 140 24 122 41 C 104 58 89 81 78 109 C 67 137 62 172 62 214 L 62 730 L 142 730 L 142 214 C 142 158 153 118 177 96 C 201 73 230 62 266 62 C 300 62 329 72 353 94 C 377 116 389 156 389 214 L 389 730 L 472 730 Z M 266 775 L 266 775 Z M 266 775 C 233 775 205 786 182 810 C 158 833 147 861 147 894 C 147 926 158 954 182 978 C 205 1001 233 1013 266 1013 C 299 1013 327 1001 350 978 C 373 954 385 926 385 894 C 385 861 373 833 350 810 C 327 786 299 775 266 775 Z M 267 820 C 287 820 304 827 318 841 C 332 855 339 873 339 894 C 339 914 332 932 318 946 C 304 960 287 968 267 968 C 246 968 229 960 215 946 C 201 932 194 914 194 894 C 194 873 201 855 215 841 C 229 827 246 820 267 820 Z" unicode="Ů" />
<glyph horiz-adv-x="392" d="M 44 0 L 44 0 Z M 44 533 L 117 533 L 117 144 C 117 114 123 92 137 78 C 151 63 169 56 193 56 C 214 56 233 63 249 79 C 265 95 274 123 274 165 L 274 533 L 347 533 L 347 0 L 283 0 L 283 78 C 276 55 262 35 241 19 C 219 3 193 -5 162 -5 C 130 -5 102 5 79 27 C 55 49 44 81 44 123 L 44 533 Z M 196 578 L 196 578 Z M 196 578 C 163 578 135 589 112 613 C 88 636 77 664 77 697 C 77 729 88 757 112 781 C 135 804 163 816 196 816 C 229 816 257 804 280 781 C 303 757 315 729 315 697 C 315 664 303 636 280 613 C 257 589 229 578 196 578 Z M 197 623 C 217 623 234 630 248 644 C 262 658 269 676 269 697 C 269 717 262 735 248 749 C 234 763 217 771 197 771 C 176 771 159 763 145 749 C 131 735 124 717 124 697 C 124 676 131 658 145 644 C 159 630 176 623 197 623 Z" unicode="ů" />
<glyph horiz-adv-x="535" d="M 62 0 L 62 0 Z M 472 730 L 472 214 C 472 174 466 139 455 111 C 443 83 428 60 409 43 C 390 25 368 13 343 5 C 317 -3 291 -7 263 -7 C 236 -7 210 -3 186 4 C 162 12 140 24 122 41 C 104 58 89 81 78 109 C 67 137 62 172 62 214 L 62 730 L 142 730 L 142 214 C 142 158 153 118 177 96 C 201 73 230 62 266 62 C 300 62 329 72 353 94 C 377 116 389 156 389 214 L 389 730 L 472 730 Z M 266 792 L 266 792 Z M 118 792 L 179 949 L 258 949 L 184 792 L 118 792 Z M 274 792 L 336 949 L 414 949 L 340 792 L 274 792 Z" unicode="Ű" />
<glyph horiz-adv-x="392" d="M 44 0 L 44 0 Z M 44 533 L 117 533 L 117 144 C 117 114 123 92 137 78 C 151 63 169 56 193 56 C 214 56 233 63 249 79 C 265 95 274 123 274 165 L 274 533 L 347 533 L 347 0 L 283 0 L 283 78 C 276 55 262 35 241 19 C 219 3 193 -5 162 -5 C 130 -5 102 5 79 27 C 55 49 44 81 44 123 L 44 533 Z M 196 595 L 196 595 Z M 48 595 L 109 752 L 188 752 L 114 595 L 48 595 Z M 204 595 L 266 752 L 344 752 L 270 595 L 204 595 Z" unicode="ű" />
<glyph horiz-adv-x="535" d="M 62 0 L 62 0 Z M 472 730 L 472 214 C 472 174 466 139 455 111 C 443 83 428 60 409 43 C 390 25 368 13 343 5 C 317 -3 291 -7 263 -7 C 236 -7 210 -3 186 4 C 162 12 140 24 122 41 C 104 58 89 81 78 109 C 67 137 62 172 62 214 L 62 730 L 142 730 L 142 214 C 142 158 153 118 177 96 C 201 73 230 62 266 62 C 300 62 329 72 353 94 C 377 116 389 156 389 214 L 389 730 L 472 730 Z M 295 -9 L 295 -9 Z M 389 -105 L 411 -136 C 392 -155 371 -170 349 -181 C 326 -191 301 -197 274 -197 C 244 -197 220 -189 203 -175 C 186 -160 178 -142 178 -120 C 178 -95 188 -72 210 -50 C 231 -28 264 -10 309 5 L 337 4 C 303 -10 279 -25 264 -41 C 249 -57 242 -73 242 -91 C 242 -106 247 -118 257 -127 C 267 -136 280 -141 297 -141 C 315 -141 333 -137 349 -131 C 365 -124 378 -115 389 -105 Z" unicode="Ų" />
<glyph horiz-adv-x="392" d="M 44 0 L 44 0 Z M 44 533 L 117 533 L 117 144 C 117 114 123 92 137 78 C 151 63 169 56 193 56 C 214 56 233 63 249 79 C 265 95 274 123 274 165 L 274 533 L 347 533 L 347 0 L 283 0 L 283 78 C 276 55 262 35 241 19 C 219 3 193 -5 162 -5 C 130 -5 102 5 79 27 C 55 49 44 81 44 123 L 44 533 Z M 268 -9 L 268 -9 Z M 362 -105 L 384 -136 C 365 -155 344 -170 322 -181 C 299 -191 274 -197 247 -197 C 217 -197 193 -189 176 -175 C 159 -160 151 -142 151 -120 C 151 -95 161 -72 183 -50 C 204 -28 237 -10 282 5 L 310 4 C 276 -10 252 -25 237 -41 C 222 -57 215 -73 215 -91 C 215 -106 220 -118 230 -127 C 240 -136 253 -141 270 -141 C 288 -141 306 -137 322 -131 C 338 -124 351 -115 362 -105 Z" unicode="ų" />
<glyph horiz-adv-x="681" d="M 8 0 L 8 0 Z M 661 730 L 511 -3 L 456 -3 L 334 587 L 212 -3 L 157 -3 L 8 730 L 84 730 L 195 145 L 308 730 L 368 730 L 481 146 L 593 730 L 661 730 Z M 340 793 L 340 793 Z M 468 793 L 404 793 L 340 908 L 275 793 L 213 793 L 309 963 L 372 963 L 468 793 Z" unicode="Ŵ" />
<glyph horiz-adv-x="530" d="M 2 0 L 2 0 Z M 349 -1 L 267 346 L 179 -1 L 122 -1 L 2 533 L 69 533 L 159 120 L 240 457 L 295 457 L 372 122 L 465 533 L 528 533 L 404 -1 L 349 -1 Z M 264 596 L 264 596 Z M 392 596 L 328 596 L 264 711 L 199 596 L 137 596 L 233 766 L 296 766 L 392 596 Z" unicode="ŵ" />
<glyph horiz-adv-x="454" d="M 0 0 L 0 0 Z M 454 730 L 264 321 L 264 0 L 184 0 L 184 322 L 0 730 L 92 730 L 230 403 L 378 730 L 454 730 Z M 230 793 L 230 793 Z M 358 793 L 294 793 L 230 908 L 165 793 L 103 793 L 199 963 L 262 963 L 358 793 Z" unicode="Ŷ" />
<glyph horiz-adv-x="323" d="M 0 0 L 0 0 Z M 325 533 L 160 -102 C 151 -132 137 -156 117 -174 C 97 -191 75 -200 52 -200 C 28 -200 9 -197 -5 -193 C -19 -188 -28 -183 -33 -179 L -4 -125 C -1 -127 4 -130 14 -133 C 23 -136 32 -138 42 -138 C 54 -138 66 -132 78 -122 C 90 -111 98 -95 103 -75 L 131 41 L -2 533 L 72 533 L 167 145 L 257 533 L 325 533 Z M 167 596 L 167 596 Z M 295 596 L 231 596 L 167 711 L 102 596 L 40 596 L 136 766 L 199 766 L 295 596 Z" unicode="ŷ" />
<glyph horiz-adv-x="454" d="M 0 0 L 0 0 Z M 454 730 L 264 321 L 264 0 L 184 0 L 184 322 L 0 730 L 92 730 L 230 403 L 378 730 L 454 730 Z M 230 793 L 230 793 Z M 332 793 L 272 793 L 272 950 L 332 950 L 332 793 Z M 188 793 L 128 793 L 128 950 L 188 950 L 188 793 Z" unicode="Ÿ" />
<glyph horiz-adv-x="416" d="M 16 0 L 16 0 Z M 388 730 L 388 689 L 112 67 L 400 67 L 400 0 L 16 0 L 16 39 L 291 661 L 46 661 L 46 730 L 388 730 Z M 221 792 L 221 792 Z M 139 792 L 220 964 L 304 964 L 209 792 L 139 792 Z" unicode="Ź" />
<glyph horiz-adv-x="311" d="M 12 0 L 12 0 Z M 293 533 L 293 501 L 100 63 L 299 63 L 299 0 L 12 0 L 12 26 L 207 468 L 24 468 L 24 533 L 293 533 Z M 165 595 L 165 595 Z M 83 595 L 164 767 L 248 767 L 153 595 L 83 595 Z" unicode="ź" />
<glyph horiz-adv-x="416" d="M 16 0 L 16 0 Z M 388 730 L 388 689 L 112 67 L 400 67 L 400 0 L 16 0 L 16 39 L 291 661 L 46 661 L 46 730 L 388 730 Z M 221 799 L 221 799 Z M 255 799 L 187 799 L 187 909 L 255 909 L 255 799 Z" unicode="Ż" />
<glyph horiz-adv-x="311" d="M 12 0 L 12 0 Z M 293 533 L 293 501 L 100 63 L 299 63 L 299 0 L 12 0 L 12 26 L 207 468 L 24 468 L 24 533 L 293 533 Z M 165 602 L 165 602 Z M 199 602 L 131 602 L 131 712 L 199 712 L 199 602 Z" unicode="ż" />
<glyph horiz-adv-x="416" d="M 16 0 L 16 0 Z M 388 730 L 388 689 L 112 67 L 400 67 L 400 0 L 16 0 L 16 39 L 291 661 L 46 661 L 46 730 L 388 730 Z M 221 793 L 221 793 Z M 94 963 L 158 963 L 222 849 L 287 963 L 349 963 L 253 793 L 190 793 L 94 963 Z" unicode="Ž" />
<glyph horiz-adv-x="311" d="M 12 0 L 12 0 Z M 293 533 L 293 501 L 100 63 L 299 63 L 299 0 L 12 0 L 12 26 L 207 468 L 24 468 L 24 533 L 293 533 Z M 165 596 L 165 596 Z M 38 766 L 102 766 L 166 652 L 231 766 L 293 766 L 197 596 L 134 596 L 38 766 Z" unicode="ž" />
<glyph horiz-adv-x="348" d="M 173 -65 C 170 -97 157 -124 134 -146 C 111 -168 83 -179 51 -179 C 34 -179 18 -177 4 -175 C -10 -173 -21 -170 -29 -167 L -22 -113 C -17 -113 -10 -114 0 -116 C 9 -118 18 -119 27 -119 C 47 -119 66 -112 82 -98 C 98 -84 107 -64 110 -39 L 143 329 L 47 329 L 47 400 L 149 400 L 170 633 C 172 667 185 693 208 711 C 231 729 255 739 279 739 C 291 739 303 738 314 737 C 325 736 332 735 335 735 L 329 670 C 327 670 323 671 317 672 C 311 672 305 673 299 673 C 280 673 264 666 252 654 C 240 641 232 621 230 595 L 213 400 L 319 400 L 319 329 L 207 329 L 173 -65 Z" unicode="ƒ" />
<glyph horiz-adv-x="404" d="M 23 0 L 23 0 Z M 202 -7 C 165 -7 132 0 102 13 C 72 27 45 49 23 81 L 75 129 C 89 102 108 83 132 71 C 155 59 177 54 199 54 C 226 54 250 64 271 85 C 292 106 303 135 303 171 C 303 207 294 238 277 262 C 259 286 228 313 182 343 C 136 372 101 403 77 436 C 53 468 41 512 41 567 C 41 593 45 616 54 637 C 62 658 74 676 89 691 C 104 705 122 717 142 725 C 162 733 184 737 207 737 C 245 737 276 730 301 716 C 325 702 345 687 359 671 L 311 622 C 299 635 284 646 266 656 C 248 666 228 671 207 671 C 183 671 161 661 141 643 C 121 624 112 597 112 563 C 112 529 121 501 137 480 C 153 459 185 434 233 404 C 286 371 323 337 343 303 C 363 268 373 226 373 178 C 373 148 368 122 358 99 C 348 75 336 56 320 40 C 304 24 286 13 266 5 C 245 -3 224 -7 202 -7 Z M 187 -71 L 187 -71 Z M 261 -71 C 260 -92 257 -114 252 -137 C 247 -160 240 -182 232 -204 C 224 -226 214 -246 204 -265 C 193 -284 182 -301 171 -315 L 114 -289 C 130 -265 146 -232 160 -191 C 174 -150 182 -110 184 -71 L 261 -71 Z" unicode="Ș" />
<glyph horiz-adv-x="301" d="M 17 0 L 17 0 Z M 156 -5 C 125 -5 97 1 73 14 C 49 27 30 45 17 68 L 56 118 C 66 99 79 84 95 74 C 110 64 127 59 146 59 C 163 59 179 65 193 78 C 207 91 215 111 215 137 C 215 161 207 181 192 197 C 177 212 155 230 127 250 C 96 270 72 292 56 314 C 40 336 32 368 32 408 C 32 444 43 475 66 500 C 89 524 118 537 153 537 C 179 537 202 532 222 523 C 242 514 258 503 270 491 L 242 429 C 233 438 221 447 207 457 C 192 467 176 472 160 472 C 142 472 126 466 113 455 C 99 443 93 427 93 407 C 93 386 99 370 111 358 C 123 346 145 330 176 309 C 212 283 238 257 254 232 C 270 207 278 174 278 133 C 278 109 274 88 266 71 C 258 53 249 39 237 28 C 225 16 212 8 198 3 C 184 -2 170 -5 156 -5 Z M 142 -71 L 142 -71 Z M 216 -71 C 215 -92 212 -114 207 -137 C 202 -160 195 -182 187 -204 C 179 -226 169 -246 159 -265 C 148 -284 137 -301 126 -315 L 69 -289 C 85 -265 101 -232 115 -191 C 129 -150 137 -110 139 -71 L 216 -71 Z" unicode="ș" />
<glyph horiz-adv-x="370" d="M 7 0 L 7 0 Z M 362 661 L 224 661 L 224 0 L 144 0 L 144 661 L 7 661 L 7 730 L 362 730 L 362 661 Z M 162 -71 L 162 -71 Z M 236 -71 C 235 -92 232 -114 227 -137 C 222 -160 215 -182 207 -204 C 199 -226 189 -246 179 -265 C 168 -284 157 -301 146 -315 L 89 -289 C 105 -265 121 -232 135 -191 C 149 -150 157 -110 159 -71 L 236 -71 Z" unicode="Ț" />
<glyph horiz-adv-x="207" d="M 9 0 L 9 0 Z M 192 75 L 206 14 C 201 10 194 6 184 2 C 174 -1 160 -3 144 -3 C 121 -3 101 6 83 24 C 65 42 56 67 56 100 L 56 468 L 9 468 L 9 533 L 58 533 L 58 632 L 127 643 L 127 533 L 195 533 L 195 468 L 129 468 L 129 106 C 129 94 132 84 139 77 C 145 70 154 67 164 67 C 169 67 174 67 180 69 C 185 71 189 73 192 75 Z M 102 -71 L 102 -71 Z M 176 -71 C 175 -92 172 -114 167 -137 C 162 -160 155 -182 147 -204 C 139 -226 129 -246 119 -265 C 108 -284 97 -301 86 -315 L 29 -289 C 45 -265 61 -232 75 -191 C 89 -150 97 -110 99 -71 L 176 -71 Z" unicode="ț" />
<glyph horiz-adv-x="170" d="M 123 533 L 123 -68 C 123 -101 112 -128 90 -148 C 68 -168 43 -179 13 -179 C -1 -179 -14 -176 -26 -171 C -37 -166 -44 -162 -47 -158 L -24 -111 C -21 -112 -17 -113 -13 -115 C -8 -116 -3 -117 3 -117 C 14 -117 25 -112 35 -103 C 45 -93 51 -80 51 -62 L 51 533 L 123 533 Z" unicode="ȷ" />
<glyph horiz-adv-x="500" d="M 378 596 L 314 596 L 250 711 L 185 596 L 123 596 L 219 766 L 282 766 L 378 596 Z" unicode="ˆ" />
<glyph horiz-adv-x="500" d="M 123 766 L 187 766 L 251 652 L 316 766 L 378 766 L 282 596 L 219 596 L 123 766 Z" unicode="ˇ" />
<glyph horiz-adv-x="500" d="M 311 758 L 373 758 C 369 704 356 664 334 639 C 312 614 284 602 250 602 C 216 602 187 614 165 639 C 143 664 130 704 128 758 L 189 758 C 191 730 196 706 205 688 C 213 670 228 661 250 661 C 271 661 286 669 295 687 C 304 705 309 728 311 758 Z" unicode="˘" />
<glyph horiz-adv-x="500" d="M 284 602 L 216 602 L 216 712 L 284 712 L 284 602 Z" unicode="˙" />
<glyph horiz-adv-x="500" d="M 250 578 C 217 578 189 589 166 613 C 142 636 131 664 131 697 C 131 729 142 757 166 781 C 189 804 217 816 250 816 C 283 816 311 804 334 781 C 357 757 369 729 369 697 C 369 664 357 636 334 613 C 311 589 283 578 250 578 Z M 251 623 C 271 623 288 630 302 644 C 316 658 323 676 323 697 C 323 717 316 735 302 749 C 288 763 271 771 251 771 C 230 771 213 763 199 749 C 185 735 178 717 178 697 C 178 676 185 658 199 644 C 213 630 230 623 251 623 Z" unicode="˚" />
<glyph horiz-adv-x="500" d="M 349 -96 L 371 -127 C 352 -146 331 -161 309 -172 C 286 -182 261 -188 234 -188 C 204 -188 180 -180 163 -166 C 146 -151 138 -133 138 -111 C 138 -86 148 -63 170 -41 C 191 -19 224 -1 269 14 L 297 13 C 263 -1 239 -16 224 -32 C 209 -48 202 -64 202 -82 C 202 -97 207 -109 217 -118 C 227 -127 240 -132 257 -132 C 275 -132 293 -128 309 -122 C 325 -115 338 -106 349 -96 Z" unicode="˛" />
<glyph horiz-adv-x="500" d="M 342 734 L 396 734 C 396 690 390 657 378 635 C 366 613 351 603 332 603 C 314 603 299 607 286 615 C 272 623 261 631 253 639 C 243 647 234 654 225 661 C 216 668 207 672 199 672 C 190 672 182 666 175 654 C 168 642 165 627 165 608 L 109 608 C 109 652 117 684 133 706 C 149 728 167 739 186 739 C 200 739 213 735 225 727 C 236 719 247 710 258 701 C 266 693 275 686 284 680 C 292 674 301 671 310 671 C 318 671 325 676 332 687 C 338 698 342 714 342 734 Z" unicode="˜" />
<glyph horiz-adv-x="500" d="M 118 595 L 179 752 L 258 752 L 184 595 L 118 595 Z M 274 595 L 336 752 L 414 752 L 340 595 L 274 595 Z" unicode="˝" />
<glyph horiz-adv-x="0" d="M 0 595 L 0 595 Z M 82 595 L 12 595 L -83 767 L 1 767 L 82 595 Z" unicode="̀" />
<glyph horiz-adv-x="0" d="M 0 595 L 0 595 Z M -82 595 L -1 767 L 83 767 L -12 595 L -82 595 Z" unicode="́" />
<glyph horiz-adv-x="0" d="M 0 596 L 0 596 Z M 128 596 L 64 596 L 0 711 L -65 596 L -127 596 L -31 766 L 32 766 L 128 596 Z" unicode="̂" />
<glyph horiz-adv-x="0" d="M 0 603 L 0 603 Z M 90 734 L 144 734 C 144 690 138 657 126 635 C 114 613 99 603 80 603 C 62 603 47 607 34 615 C 20 623 9 631 1 639 C -8 647 -17 654 -26 661 C -35 668 -44 672 -53 672 C -61 672 -69 666 -76 654 C -83 642 -87 627 -87 608 L -143 608 C -143 652 -134 684 -118 706 C -102 728 -84 739 -66 739 C -51 739 -38 735 -27 727 C -15 719 -4 710 6 701 C 14 693 23 686 32 680 C 40 674 49 671 58 671 C 66 671 73 676 80 687 C 86 698 90 714 90 734 Z" unicode="̃" />
<glyph horiz-adv-x="0" d="M 0 617 L 0 617 Z M 117 617 L -117 617 L -117 679 L 117 679 L 117 617 Z" unicode="̄" />
<glyph horiz-adv-x="0" d="M 0 602 L 0 602 Z M 61 758 L 123 758 C 119 704 106 664 84 639 C 62 614 34 602 0 602 C -34 602 -62 614 -84 639 C -106 664 -119 704 -122 758 L -61 758 C -59 730 -53 706 -45 688 C -36 670 -21 661 0 661 C 21 661 36 669 45 687 C 54 705 59 728 61 758 Z" unicode="̆" />
<glyph horiz-adv-x="0" d="M 0 602 L 0 602 Z M 34 602 L -34 602 L -34 712 L 34 712 L 34 602 Z" unicode="̇" />
<glyph horiz-adv-x="0" d="M 0 596 L 0 596 Z M 102 596 L 42 596 L 42 753 L 102 753 L 102 596 Z M -42 596 L -102 596 L -102 753 L -42 753 L -42 596 Z" unicode="̈" />
<glyph horiz-adv-x="0" d="M 0 578 L 0 578 Z M 0 578 C -32 578 -60 589 -84 613 C -107 636 -119 664 -119 697 C -119 729 -107 757 -84 781 C -60 804 -32 816 0 816 C 33 816 61 804 84 781 C 107 757 119 729 119 697 C 119 664 107 636 84 613 C 61 589 33 578 0 578 Z M 1 623 C 21 623 38 630 52 644 C 66 658 73 676 73 697 C 73 717 66 735 52 749 C 38 763 21 771 1 771 C -19 771 -37 763 -51 749 C -65 735 -72 717 -72 697 C -72 676 -65 658 -51 644 C -37 630 -19 623 1 623 Z" unicode="̊" />
<glyph horiz-adv-x="0" d="M 0 595 L 0 595 Z M -148 595 L -87 752 L -8 752 L -82 595 L -148 595 Z M 8 595 L 70 752 L 148 752 L 74 595 L 8 595 Z" unicode="̋" />
<glyph horiz-adv-x="0" d="M 0 596 L 0 596 Z M -127 766 L -63 766 L 1 652 L 66 766 L 128 766 L 32 596 L -31 596 L -127 766 Z" unicode="̌" />
<glyph horiz-adv-x="0" d="M 0 -71 L 0 -71 Z M 74 -71 C 73 -92 70 -114 65 -137 C 60 -160 53 -182 45 -204 C 37 -226 27 -246 17 -265 C 6 -284 -4 -301 -16 -315 L -73 -289 C -56 -265 -40 -232 -26 -191 C -12 -150 -4 -110 -3 -71 L 74 -71 Z" unicode="̦" />
<glyph horiz-adv-x="0" d="M 0 0 L 0 0 Z M 5 -180 C -13 -180 -32 -177 -50 -171 C -68 -165 -84 -157 -97 -147 L -78 -117 C -70 -123 -59 -130 -46 -136 C -33 -142 -19 -145 -3 -145 C 10 -145 21 -141 31 -134 C 41 -126 46 -117 46 -106 C 46 -92 41 -83 32 -77 C 23 -71 13 -68 3 -68 C -4 -68 -11 -68 -17 -69 C -23 -70 -28 -72 -34 -75 L -44 -59 L 6 10 L 42 10 L 2 -47 C 28 -43 51 -46 70 -56 C 88 -66 98 -82 98 -106 C 98 -128 89 -146 71 -160 C 53 -173 31 -180 5 -180 Z" unicode="̧" />
<glyph horiz-adv-x="0" d="M 0 0 L 0 0 Z M 94 -96 L 116 -127 C 97 -146 76 -161 54 -172 C 31 -182 6 -188 -21 -188 C -51 -188 -74 -180 -91 -166 C -108 -151 -117 -133 -117 -111 C -117 -86 -106 -63 -85 -41 C -63 -19 -30 -1 14 14 L 42 13 C 8 -1 -15 -16 -30 -32 C -45 -48 -53 -64 -53 -82 C -53 -97 -48 -109 -38 -118 C -28 -127 -14 -132 2 -132 C 20 -132 38 -128 54 -122 C 70 -115 83 -106 94 -96 Z" unicode="̨" />
<glyph horiz-adv-x="563" d="M 2 0 L 2 0 Z M 534 0 L 2 0 L 256 730 L 280 730 L 534 0 Z M 439 57 L 266 597 L 94 57 L 439 57 Z" unicode="Δ" />
<glyph horiz-adv-x="724" d="M 27 0 L 27 0 Z M 36 0 L 36 69 L 246 69 L 246 146 C 212 155 181 170 154 190 C 126 210 103 233 85 259 C 66 285 52 314 42 346 C 32 378 27 410 27 443 C 27 485 34 524 49 561 C 63 598 84 630 111 657 C 138 684 171 705 211 721 C 251 737 295 745 345 745 C 397 745 443 737 483 721 C 523 705 557 683 585 656 C 613 629 634 597 648 560 C 662 523 670 484 670 442 C 670 409 665 377 656 345 C 647 313 633 285 615 259 C 597 233 574 210 547 190 C 519 170 487 156 451 146 L 451 69 L 661 69 L 661 0 L 397 0 L 397 186 C 428 194 456 207 480 225 C 504 243 524 263 540 286 C 556 308 568 333 576 360 C 584 386 589 413 589 439 C 589 474 583 507 571 537 C 559 567 543 592 522 614 C 501 636 475 653 445 665 C 415 677 381 683 345 683 C 309 683 276 676 247 664 C 217 652 192 635 172 614 C 152 592 136 566 125 536 C 113 506 108 473 108 437 C 108 411 112 386 120 360 C 128 334 140 309 156 287 C 172 265 192 245 216 227 C 240 209 269 195 301 186 L 301 0 L 36 0 Z" unicode="Ω" />
<glyph horiz-adv-x="593" d="M 75 0 L 75 0 Z M 75 -112 L 75 533 L 148 533 L 148 161 C 148 145 151 130 159 116 C 167 102 177 91 190 81 C 202 71 217 64 233 59 C 249 53 266 51 284 51 C 301 51 319 53 338 59 C 356 64 373 72 388 83 C 403 94 415 108 425 125 C 435 141 440 161 440 184 L 440 533 L 513 533 L 513 0 L 445 0 L 445 107 C 441 92 433 78 421 64 C 409 50 396 38 380 28 C 364 17 347 8 328 2 C 309 -3 290 -7 271 -7 C 244 -7 218 -1 193 11 C 168 23 151 39 143 61 L 143 -112 L 75 -112 Z" unicode="μ" />
<glyph horiz-adv-x="516" d="M 160 475 L 160 0 L 87 0 L 87 475 L 15 475 L 15 533 L 501 533 L 501 475 L 424 475 L 424 0 L 350 0 L 350 475 L 160 475 Z" unicode="π" />
<glyph horiz-adv-x="681" d="M 8 0 L 8 0 Z M 661 730 L 511 -3 L 456 -3 L 334 587 L 212 -3 L 157 -3 L 8 730 L 84 730 L 195 145 L 308 730 L 368 730 L 481 146 L 593 730 L 661 730 Z M 340 792 L 340 792 Z M 422 792 L 352 792 L 257 964 L 341 964 L 422 792 Z" unicode="Ẁ" />
<glyph horiz-adv-x="530" d="M 2 0 L 2 0 Z M 349 -1 L 267 346 L 179 -1 L 122 -1 L 2 533 L 69 533 L 159 120 L 240 457 L 295 457 L 372 122 L 465 533 L 528 533 L 404 -1 L 349 -1 Z M 264 595 L 264 595 Z M 346 595 L 276 595 L 181 767 L 265 767 L 346 595 Z" unicode="ẁ" />
<glyph horiz-adv-x="681" d="M 8 0 L 8 0 Z M 661 730 L 511 -3 L 456 -3 L 334 587 L 212 -3 L 157 -3 L 8 730 L 84 730 L 195 145 L 308 730 L 368 730 L 481 146 L 593 730 L 661 730 Z M 340 792 L 340 792 Z M 258 792 L 339 964 L 423 964 L 328 792 L 258 792 Z" unicode="Ẃ" />
<glyph horiz-adv-x="530" d="M 2 0 L 2 0 Z M 349 -1 L 267 346 L 179 -1 L 122 -1 L 2 533 L 69 533 L 159 120 L 240 457 L 295 457 L 372 122 L 465 533 L 528 533 L 404 -1 L 349 -1 Z M 264 595 L 264 595 Z M 182 595 L 263 767 L 347 767 L 252 595 L 182 595 Z" unicode="ẃ" />
<glyph horiz-adv-x="681" d="M 8 0 L 8 0 Z M 661 730 L 511 -3 L 456 -3 L 334 587 L 212 -3 L 157 -3 L 8 730 L 84 730 L 195 145 L 308 730 L 368 730 L 481 146 L 593 730 L 661 730 Z M 340 793 L 340 793 Z M 442 793 L 382 793 L 382 950 L 442 950 L 442 793 Z M 298 793 L 238 793 L 238 950 L 298 950 L 298 793 Z" unicode="Ẅ" />
<glyph horiz-adv-x="530" d="M 2 0 L 2 0 Z M 349 -1 L 267 346 L 179 -1 L 122 -1 L 2 533 L 69 533 L 159 120 L 240 457 L 295 457 L 372 122 L 465 533 L 528 533 L 404 -1 L 349 -1 Z M 264 596 L 264 596 Z M 366 596 L 306 596 L 306 753 L 366 753 L 366 596 Z M 222 596 L 162 596 L 162 753 L 222 753 L 222 596 Z" unicode="ẅ" />
<glyph horiz-adv-x="454" d="M 0 0 L 0 0 Z M 454 730 L 264 321 L 264 0 L 184 0 L 184 322 L 0 730 L 92 730 L 230 403 L 378 730 L 454 730 Z M 230 792 L 230 792 Z M 312 792 L 242 792 L 147 964 L 231 964 L 312 792 Z" unicode="Ỳ" />
<glyph horiz-adv-x="323" d="M 0 0 L 0 0 Z M 325 533 L 160 -102 C 151 -132 137 -156 117 -174 C 97 -191 75 -200 52 -200 C 28 -200 9 -197 -5 -193 C -19 -188 -28 -183 -33 -179 L -4 -125 C -1 -127 4 -130 14 -133 C 23 -136 32 -138 42 -138 C 54 -138 66 -132 78 -122 C 90 -111 98 -95 103 -75 L 131 41 L -2 533 L 72 533 L 167 145 L 257 533 L 325 533 Z M 167 595 L 167 595 Z M 249 595 L 179 595 L 84 767 L 168 767 L 249 595 Z" unicode="ỳ" />
<glyph horiz-adv-x="460" d="M 419 231 L 42 231 L 42 295 L 419 295 L 419 231 Z" unicode="–" />
<glyph horiz-adv-x="645" d="M 604 231 L 42 231 L 42 295 L 604 295 L 604 231 Z" unicode="—" />
<glyph horiz-adv-x="213" d="M 42 507 L 42 514 C 42 558 47 598 59 634 C 71 669 91 703 119 737 L 188 731 C 168 705 151 675 138 641 C 124 607 118 565 118 515 L 118 507 L 42 507 Z" unicode="‘" />
<glyph horiz-adv-x="213" d="M 170 737 L 170 730 C 170 686 164 646 152 610 C 140 574 121 540 94 507 L 24 513 C 44 539 61 569 75 603 C 88 637 95 679 95 729 L 95 737 L 170 737 Z" unicode="’" />
<glyph horiz-adv-x="214" d="M 169 110 L 169 103 C 169 59 163 19 151 -17 C 139 -53 120 -87 92 -120 L 23 -114 C 43 -88 59 -58 73 -24 C 87 9 94 52 94 102 L 94 110 L 169 110 Z" unicode="‚" />
<glyph horiz-adv-x="350" d="M 189 507 L 189 514 C 189 554 195 593 208 629 C 220 665 242 701 273 737 L 342 731 C 324 709 306 680 289 644 C 272 608 264 565 264 515 L 264 507 L 189 507 Z M 44 507 L 44 514 C 44 554 50 593 63 629 C 75 665 97 701 128 737 L 197 731 C 179 709 161 680 144 644 C 126 608 118 565 118 515 L 118 507 L 44 507 Z" unicode="“" />
<glyph horiz-adv-x="350" d="M 170 737 L 170 730 C 170 686 164 646 152 610 C 140 574 121 540 93 507 L 24 513 C 44 539 60 569 74 603 C 88 637 95 679 95 729 L 95 737 L 170 737 Z M 306 737 L 306 730 C 306 686 300 646 288 610 C 276 574 257 540 229 507 L 160 513 C 180 539 196 569 210 603 C 224 637 231 679 231 729 L 231 737 L 306 737 Z" unicode="”" />
<glyph horiz-adv-x="354" d="M 168 110 L 168 103 C 168 59 162 19 151 -17 C 139 -53 120 -87 92 -120 L 23 -114 C 43 -88 59 -58 73 -24 C 87 9 94 52 94 102 L 94 110 L 168 110 Z M 309 110 L 309 103 C 309 59 303 19 291 -17 C 279 -53 260 -87 233 -120 L 163 -114 C 183 -88 200 -58 214 -24 C 227 9 234 52 234 102 L 234 110 L 309 110 Z" unicode="„" />
<glyph horiz-adv-x="398" d="M 380 400 L 235 400 L 235 -179 L 158 -179 L 158 400 L 19 400 L 19 473 L 158 473 L 158 730 L 235 730 L 235 473 L 380 473 L 380 400 Z" unicode="†" />
<glyph horiz-adv-x="405" d="M 161 -179 L 161 125 L 25 125 L 25 198 L 161 198 L 161 391 L 25 391 L 25 465 L 161 465 L 161 730 L 239 730 L 239 465 L 380 465 L 380 391 L 239 391 L 239 198 L 380 198 L 380 125 L 239 125 L 239 -179 L 161 -179 Z" unicode="‡" />
<glyph horiz-adv-x="382" d="M 191 450 C 211 450 227 443 241 429 C 255 415 262 399 262 379 C 262 359 255 343 241 329 C 227 315 211 309 191 309 C 171 309 154 315 141 329 C 127 343 121 359 121 379 C 121 399 127 415 141 429 C 154 443 171 450 191 450 Z" unicode="•" />
<glyph horiz-adv-x="581" d="M 59 0 L 59 115 L 135 115 L 135 0 L 59 0 Z M 253 0 L 253 115 L 328 115 L 328 0 L 253 0 Z M 446 0 L 446 115 L 522 115 L 522 0 L 446 0 Z" unicode="…" />
<glyph horiz-adv-x="967" d="M 167 364 C 151 364 135 367 120 375 C 104 383 91 394 79 410 C 67 426 57 445 50 469 C 42 493 39 520 39 552 C 39 605 50 650 74 686 C 98 722 128 741 166 741 C 186 741 204 736 220 726 C 236 716 250 702 262 686 C 273 669 282 649 288 627 C 294 604 298 580 298 555 C 298 528 294 503 288 480 C 281 456 272 436 261 419 C 249 401 235 388 219 378 C 203 368 185 364 167 364 Z M 84 0 L 509 730 L 567 730 L 144 0 L 84 0 Z M 95 551 C 95 535 96 519 98 503 C 100 487 104 473 110 461 C 115 449 122 439 131 431 C 140 423 152 420 166 420 C 180 420 192 423 202 431 C 212 439 219 449 225 461 C 231 473 235 487 237 503 C 239 519 241 535 241 551 C 241 567 239 582 237 598 C 235 614 231 628 225 641 C 219 653 212 664 203 672 C 193 680 182 684 169 684 C 155 684 143 680 134 672 C 124 664 117 654 111 642 C 105 630 101 616 99 600 C 96 584 95 567 95 551 Z M 499 -3 C 483 -3 467 0 451 8 C 435 16 422 27 410 43 C 398 59 388 78 380 102 C 372 126 369 153 369 185 C 369 238 381 283 405 319 C 429 355 461 374 501 374 C 521 374 540 369 556 359 C 572 349 585 335 597 319 C 608 302 617 282 623 260 C 629 237 632 213 632 188 C 632 161 628 136 622 113 C 616 89 607 69 595 52 C 583 34 569 21 553 11 C 537 1 519 -3 499 -3 Z M 796 -3 C 780 -3 764 0 748 8 C 732 16 718 27 706 43 C 694 59 684 78 676 102 C 668 126 665 153 665 185 C 665 238 677 283 702 319 C 726 355 758 374 798 374 C 818 374 836 369 852 359 C 868 349 882 335 893 319 C 904 302 913 282 919 260 C 925 237 928 213 928 188 C 928 161 924 136 918 113 C 912 89 903 69 891 52 C 879 34 865 21 849 11 C 833 1 815 -3 796 -3 Z M 498 54 C 512 54 524 57 534 65 C 544 73 552 83 558 95 C 564 107 568 121 571 137 C 573 153 575 169 575 185 C 575 201 573 217 571 233 C 568 249 564 263 558 275 C 552 287 544 298 534 306 C 524 314 513 318 500 318 C 487 318 476 314 467 306 C 457 298 449 288 443 276 C 437 264 432 250 429 234 C 426 218 425 201 425 185 C 425 169 426 153 429 137 C 431 121 435 107 441 95 C 447 83 454 73 464 65 C 473 57 484 54 498 54 Z M 795 54 C 809 54 821 57 831 65 C 841 73 848 83 854 95 C 860 107 864 121 867 137 C 869 153 871 169 871 185 C 871 201 869 217 867 233 C 864 249 860 263 854 275 C 848 287 840 298 831 306 C 821 314 810 318 797 318 C 784 318 773 314 763 306 C 753 298 746 288 740 276 C 734 264 729 250 726 234 C 723 218 722 201 722 185 C 722 169 723 153 726 137 C 728 121 732 107 738 95 C 744 83 751 73 761 65 C 770 57 781 54 795 54 Z" unicode="‰" />
<glyph horiz-adv-x="231" d="M 201 117 L 29 282 L 29 325 L 201 489 L 201 417 L 93 302 L 201 192 L 201 117 Z" unicode="‹" />
<glyph horiz-adv-x="232" d="M 30 490 L 203 324 L 203 282 L 30 118 L 30 190 L 138 304 L 30 414 L 30 490 Z" unicode="›" />
<glyph horiz-adv-x="145" d="M 300 730 L -83 0 L -145 0 L 238 730 L 300 730 Z" unicode="⁄" />
<glyph horiz-adv-x="325" d="M 15 458 L 15 503 L 207 739 L 250 739 L 250 507 L 314 507 L 314 458 L 250 458 L 250 373 L 188 373 L 188 458 L 15 458 Z M 79 505 L 190 505 L 190 646 L 79 505 Z" unicode="⁴" />
<glyph horiz-adv-x="466" d="M 445 117 C 429 79 405 48 375 24 C 344 0 310 -12 273 -12 C 223 -12 179 12 142 62 C 104 111 81 181 72 273 L 27 273 L 27 327 L 68 327 C 67 332 67 338 67 344 C 67 350 67 356 67 362 C 67 368 67 375 67 381 C 67 387 67 394 68 400 L 27 400 L 27 454 L 71 454 C 80 542 102 612 137 664 C 172 716 217 742 273 742 C 317 742 352 730 378 708 C 404 685 424 658 438 627 L 386 595 C 374 621 360 640 343 654 C 326 668 303 675 275 675 C 241 675 213 655 189 616 C 165 577 149 523 142 454 L 417 454 L 417 400 L 138 400 C 137 393 137 386 137 379 C 137 372 137 365 137 359 C 137 353 137 348 137 342 C 137 336 137 331 138 327 L 417 327 L 417 273 L 141 273 C 149 199 166 143 192 107 C 218 71 247 53 278 53 C 306 53 329 62 348 81 C 367 100 382 124 394 152 L 445 117 Z" unicode="€" />
<glyph horiz-adv-x="770" d="M 722 345 L 660 345 L 660 620 L 535 415 L 519 415 L 395 620 L 395 345 L 334 345 L 334 730 L 395 730 L 529 507 L 669 730 L 722 730 L 722 345 Z M 305 660 L 206 660 L 206 345 L 129 345 L 129 660 L 24 660 L 24 730 L 305 730 L 305 660 Z" unicode="™" />
<glyph horiz-adv-x="697" d="M 36 0 L 36 69 L 246 69 L 246 146 C 212 155 181 170 154 190 C 126 210 103 233 85 259 C 66 285 52 314 42 346 C 32 378 27 410 27 443 C 27 485 34 524 49 561 C 63 598 84 630 111 657 C 138 684 171 705 211 721 C 251 737 295 745 345 745 C 397 745 443 737 483 721 C 523 705 557 683 585 656 C 613 629 634 597 648 560 C 662 523 670 484 670 442 C 670 409 665 377 656 345 C 647 313 633 285 615 259 C 597 233 574 210 547 190 C 519 170 487 156 451 146 L 451 69 L 661 69 L 661 0 L 397 0 L 397 186 C 428 194 456 207 480 225 C 504 243 524 263 540 286 C 556 308 568 333 576 360 C 584 386 589 413 589 439 C 589 474 583 507 571 537 C 559 567 543 592 522 614 C 501 636 475 653 445 665 C 415 677 381 683 345 683 C 309 683 276 676 247 664 C 217 652 192 635 172 614 C 152 592 136 566 125 536 C 113 506 108 473 108 437 C 108 411 112 386 120 360 C 128 334 140 309 156 287 C 172 265 192 245 216 227 C 240 209 269 195 301 186 L 301 0 L 36 0 Z" unicode="Ω" />
<glyph horiz-adv-x="430" d="M 391 270 C 391 174 373 104 339 60 C 304 15 262 -7 212 -7 C 187 -7 164 -2 142 7 C 120 17 100 31 84 50 C 67 68 54 92 44 120 C 34 148 29 180 29 216 C 29 285 45 340 78 382 C 111 423 151 444 198 444 C 229 444 255 436 275 422 C 295 408 310 387 322 361 C 315 427 303 485 286 533 C 269 581 250 621 229 652 C 207 682 186 705 164 720 C 142 734 122 742 106 743 L 140 802 C 157 802 180 792 209 772 C 237 752 265 721 292 679 C 318 637 341 582 361 514 C 381 446 391 365 391 270 Z M 210 56 C 244 56 269 70 287 100 C 305 130 314 170 314 222 C 314 271 305 310 287 338 C 269 366 242 380 208 380 C 176 380 150 365 132 337 C 114 308 105 269 105 219 C 105 165 114 124 132 97 C 150 69 176 56 210 56 Z" unicode="∂" />
<glyph horiz-adv-x="535" d="M 534 0 L 2 0 L 256 730 L 280 730 L 534 0 Z M 439 57 L 266 597 L 94 57 L 439 57 Z" unicode="∆" />
<glyph horiz-adv-x="633" d="M 200 663 L 200 0 L 123 0 L 123 663 L 15 663 L 15 730 L 618 730 L 618 663 L 514 663 L 514 0 L 438 0 L 438 663 L 200 663 Z" unicode="∏" />
<glyph horiz-adv-x="518" d="M 147 663 L 364 307 L 115 -112 L 492 -112 L 492 -179 L -9 -179 L 288 306 L 21 730 L 471 730 L 471 663 L 147 663 Z" unicode="∑" />
<glyph horiz-adv-x="477" d="M 436 301 L 42 301 L 42 363 L 436 363 L 436 301 Z" unicode="−" />
<glyph horiz-adv-x="510" d="M 498 730 L 198 0 L 186 0 L 15 326 L 69 364 L 201 103 L 450 730 L 498 730 Z" unicode="√" />
<glyph horiz-adv-x="331" d="M 110 -39 L 170 633 C 172 667 185 693 208 711 C 231 729 255 739 279 739 C 291 739 303 738 314 737 C 325 736 332 735 335 735 L 329 670 C 327 670 323 671 317 672 C 311 672 305 673 299 673 C 280 673 264 666 252 654 C 240 641 232 621 230 595 L 173 -65 C 170 -97 157 -124 134 -146 C 111 -168 83 -179 51 -179 C 34 -179 18 -177 4 -174 C -10 -170 -21 -167 -29 -163 L -21 -110 C -17 -111 -10 -113 0 -115 C 9 -117 18 -119 27 -119 C 47 -119 66 -112 82 -98 C 98 -84 107 -64 110 -39 Z" unicode="∫" />
<glyph horiz-adv-x="477" d="M 388 493 L 444 493 C 443 444 435 406 419 378 C 403 350 378 337 346 337 C 324 337 304 342 285 352 C 266 362 250 373 238 386 C 224 398 211 410 198 420 C 184 430 170 435 154 435 C 139 435 124 426 110 409 C 95 392 88 369 88 340 L 34 340 C 34 388 44 425 64 453 C 84 481 109 495 140 495 C 162 495 183 489 202 477 C 221 465 238 453 252 441 C 264 429 277 419 289 409 C 301 399 315 395 331 395 C 351 395 366 402 375 418 C 383 434 388 459 388 493 Z M 388 322 L 444 322 C 443 273 435 235 419 207 C 403 179 378 165 346 165 C 324 165 304 170 286 180 C 267 190 251 201 238 215 C 224 228 210 239 198 248 C 186 257 171 262 155 262 C 140 262 125 254 110 238 C 95 222 88 199 88 168 L 34 168 C 34 216 44 254 64 282 C 84 310 109 324 140 324 C 162 324 183 317 201 305 C 219 293 236 280 250 266 C 262 254 275 243 288 235 C 301 226 315 222 331 222 C 351 222 366 229 375 245 C 383 260 388 286 388 322 Z" unicode="≈" />
<glyph horiz-adv-x="477" d="M 435 183 L 217 183 L 171 74 L 121 90 L 161 183 L 58 183 L 58 243 L 186 243 L 251 395 L 58 395 L 58 455 L 276 455 L 319 556 L 369 540 L 333 455 L 435 455 L 435 395 L 307 395 L 243 243 L 435 243 L 435 183 Z" unicode="≠" />
<glyph horiz-adv-x="477" d="M 53 300 L 53 350 L 422 549 L 422 484 L 126 327 L 421 172 L 421 108 L 53 300 Z M 52 83 L 421 83 L 421 27 L 52 27 L 52 83 Z" unicode="≤" />
<glyph horiz-adv-x="477" d="M 420 300 L 53 108 L 53 172 L 348 327 L 52 484 L 52 549 L 420 350 L 420 300 Z M 421 83 L 421 27 L 52 27 L 52 83 L 421 83 Z" unicode="≥" />
<glyph horiz-adv-x="526" d="M 495 326 L 268 -9 L 258 -9 L 31 326 L 31 337 L 258 671 L 268 671 L 495 337 L 495 326 Z M 425 327 L 425 336 L 268 573 L 259 573 L 101 336 L 101 327 L 259 89 L 268 89 L 425 327 Z" unicode="◊" />
<glyph horiz-adv-x="730" d="M 448 688 L 282 688 L 282 730 L 448 730 L 448 688 Z M 659 282 L 615 282 L 615 448 L 659 448 L 659 282 Z M 115 282 L 71 282 L 71 448 L 115 448 L 115 282 Z M 418 312 L 312 312 L 312 418 L 418 418 L 418 312 Z M 448 0 L 282 0 L 282 43 L 448 43 L 448 0 Z" unicode="" />
<glyph horiz-adv-x="394" d="M 206 454 L 138 454 L 138 0 L 65 0 L 65 454 L 20 454 L 20 509 L 65 509 L 65 648 C 65 671 68 692 76 711 C 84 730 94 746 106 760 C 118 773 131 783 146 791 C 161 798 176 802 190 802 C 209 802 227 799 244 795 C 261 791 273 786 280 782 L 261 731 C 256 733 248 736 236 739 C 224 742 213 744 203 744 C 187 744 172 735 158 718 C 144 700 137 675 137 641 L 137 509 L 206 509 L 206 454 Z M 347 626 L 270 626 L 270 699 L 347 699 L 347 626 Z M 345 0 L 272 0 L 272 509 L 345 509 L 345 0 Z" unicode="ﬁ" />
<glyph horiz-adv-x="412" d="M 412 5 C 407 2 400 0 392 -2 C 383 -4 373 -5 362 -5 C 337 -5 316 2 299 18 C 282 34 274 57 274 88 L 274 766 L 261 731 C 256 733 248 736 236 739 C 224 742 213 744 203 744 C 187 744 172 735 158 718 C 144 700 137 675 137 641 L 137 533 L 210 533 L 210 468 L 138 468 L 138 0 L 65 0 L 65 468 L 14 468 L 14 533 L 65 533 L 65 648 C 65 671 68 692 76 711 C 84 730 94 746 106 760 C 118 773 131 783 146 791 C 161 798 176 802 190 802 C 207 802 223 800 238 797 C 253 793 265 789 274 785 L 274 800 L 347 800 L 347 102 C 347 87 350 77 356 71 C 362 65 370 62 381 62 C 385 62 388 62 392 63 C 395 63 398 64 401 65 L 412 5 Z" unicode="ﬂ" />
</font>
</defs>
</svg>
