<?xml version="1.0" encoding="utf-8" ?><svg version="1.1" xmlns = 'http://www.w3.org/2000/svg'><defs><font id='web' horiz-adv-x="1000">
<font-face font-family="web" descent="-200" cap-height="730" units-per-em="1000" bbox="-205,-342,1119,1023" x-height="494" ascent="800" />
<missing-glyph horiz-adv-x="500" d="" /><glyph horiz-adv-x="230" d="" unicode=" " />
<glyph horiz-adv-x="284" d="M 214 431 L 173 224 L 114 224 L 74 431 L 74 730 L 214 730 L 214 431 Z M 208 0 L 81 0 L 81 132 L 208 132 L 208 0 Z" unicode="!" />
<glyph horiz-adv-x="420" d="M 365 616 L 357 467 L 259 467 L 253 615 L 253 730 L 365 730 L 365 616 Z M 166 615 L 161 467 L 60 467 L 55 615 L 55 730 L 166 730 L 166 615 Z" unicode="&#x22;" />
<glyph horiz-adv-x="614" d="M 560 203 L 444 203 L 426 0 L 351 1 L 369 203 L 221 203 L 203 0 L 128 1 L 146 203 L 33 203 L 33 304 L 155 304 L 165 423 L 54 423 L 54 524 L 174 524 L 192 730 L 267 729 L 249 524 L 397 524 L 415 730 L 490 729 L 472 524 L 581 524 L 581 423 L 463 423 L 453 304 L 560 304 L 560 203 Z M 230 304 L 378 304 L 388 423 L 240 423 L 230 304 Z" unicode="#" />
<glyph horiz-adv-x="526" d="M 493 193 C 493 165 488 140 478 118 C 468 96 454 77 437 61 C 419 45 399 31 375 21 C 351 11 326 4 299 1 L 299 -124 L 226 -124 L 226 0 C 182 3 143 12 109 27 C 75 42 46 61 24 84 L 76 175 C 86 164 99 154 114 145 C 129 135 145 127 162 120 C 178 113 195 108 213 104 C 230 100 246 99 262 99 C 294 99 322 107 344 123 C 366 139 378 162 378 192 C 378 205 376 217 372 228 C 368 238 360 249 349 259 C 338 269 323 280 303 292 C 283 303 257 316 226 330 C 162 358 115 389 85 422 C 54 455 39 498 39 550 C 39 598 56 639 92 672 C 127 704 172 723 226 729 L 226 790 L 299 790 L 299 729 C 335 725 367 717 397 705 C 426 692 451 675 472 655 L 409 572 C 390 590 367 605 340 615 C 313 625 287 631 262 631 C 232 631 207 623 186 608 C 165 593 155 573 155 547 C 155 521 165 499 185 483 C 205 467 244 445 303 417 C 367 387 414 356 446 325 C 477 293 493 249 493 193 Z" unicode="$" />
<glyph horiz-adv-x="799" d="M 200 355 C 180 355 160 359 140 368 C 120 376 103 389 88 405 C 72 421 60 441 50 465 C 40 489 36 516 36 547 C 36 573 40 598 48 622 C 56 645 68 665 83 683 C 97 700 114 714 134 724 C 154 734 175 740 197 740 C 221 740 243 734 263 724 C 283 714 300 700 315 683 C 329 665 341 645 349 622 C 357 599 361 575 361 550 C 361 522 356 497 348 473 C 340 449 328 429 314 411 C 300 393 283 380 263 370 C 243 360 222 355 200 355 Z M 213 0 L 123 0 L 573 730 L 662 730 L 213 0 Z M 198 444 C 220 444 236 453 246 473 C 256 492 261 517 261 547 C 261 575 256 600 247 620 C 237 640 222 650 200 650 C 179 650 163 640 153 620 C 143 600 138 575 138 547 C 138 516 143 491 153 472 C 163 453 178 444 198 444 Z M 601 -3 C 580 -3 560 1 541 10 C 521 18 504 31 489 47 C 473 63 461 83 452 107 C 442 131 438 158 438 189 C 438 215 442 240 450 264 C 458 287 470 307 485 325 C 499 342 517 356 537 366 C 557 376 578 381 602 381 C 626 381 648 375 668 365 C 688 355 706 341 720 324 C 734 307 745 287 753 264 C 761 241 765 217 765 192 C 765 164 760 139 752 115 C 744 91 732 71 718 53 C 704 35 686 22 666 12 C 646 2 624 -3 601 -3 Z M 600 87 C 621 87 637 96 648 115 C 658 133 664 158 664 189 C 664 219 659 243 649 263 C 639 282 623 292 601 292 C 582 292 567 282 556 263 C 545 244 540 219 540 189 C 540 157 545 132 556 114 C 567 96 582 87 600 87 Z" unicode="%" />
<glyph horiz-adv-x="710" d="M 622 -5 L 537 74 C 503 47 465 27 424 13 C 382 -1 336 -8 285 -8 C 205 -8 142 9 96 43 C 49 77 26 124 26 185 C 26 212 30 236 39 257 C 48 278 60 297 75 313 C 90 329 108 344 128 358 C 148 371 168 384 190 397 C 181 405 171 415 161 427 C 151 439 141 452 132 466 C 123 480 116 496 110 514 C 104 532 101 551 101 572 C 101 594 106 615 116 635 C 126 655 140 672 158 687 C 176 702 197 714 221 723 C 245 732 272 737 301 737 C 330 737 357 732 381 724 C 405 715 425 703 442 689 C 459 675 472 658 482 639 C 491 619 496 599 496 578 C 496 538 483 503 459 475 C 435 446 402 418 360 391 L 534 233 C 544 245 554 259 564 274 C 574 289 583 305 593 321 L 689 261 C 678 242 667 224 655 206 C 643 188 631 172 619 157 L 697 86 L 622 -5 Z M 283 461 L 289 455 C 319 475 342 493 357 510 C 372 527 380 545 380 565 C 380 585 373 602 360 618 C 346 634 327 642 301 642 C 276 642 256 634 242 618 C 228 602 221 584 221 566 C 221 547 226 529 238 512 C 249 494 264 477 283 461 Z M 160 193 C 160 162 173 138 200 120 C 226 102 258 94 294 94 C 323 94 351 98 378 108 C 404 118 430 132 454 151 L 262 330 C 229 308 204 287 186 267 C 168 247 160 222 160 193 Z" unicode="&#x26;" />
<glyph horiz-adv-x="222" d="M 167 612 L 162 460 L 60 460 L 55 612 L 55 730 L 167 730 L 167 612 Z" unicode="'" />
<glyph horiz-adv-x="329" d="M 313 -83 L 313 -183 C 275 -166 239 -143 204 -113 C 169 -83 138 -48 112 -8 C 86 32 65 78 49 129 C 33 179 26 234 26 293 C 26 351 33 405 49 455 C 65 505 86 549 112 588 C 138 626 168 659 203 687 C 238 714 275 735 313 749 L 313 656 C 271 630 235 589 205 531 C 175 473 160 393 160 293 C 160 204 173 128 200 64 C 227 0 265 -48 313 -83 Z" unicode="(" />
<glyph horiz-adv-x="329" d="M 17 655 L 17 749 C 53 736 89 716 124 689 C 158 662 189 629 215 591 C 241 552 263 507 279 456 C 295 404 304 348 304 286 C 304 227 295 172 279 122 C 263 71 241 26 215 -13 C 189 -52 158 -86 124 -115 C 89 -144 53 -167 17 -183 L 17 -81 C 63 -48 100 -1 130 60 C 159 121 174 196 174 286 C 174 338 169 384 161 425 C 153 465 141 501 127 531 C 113 561 96 586 77 606 C 57 626 37 643 17 655 Z" unicode=")" />
<glyph horiz-adv-x="406" d="M 378 574 L 255 542 L 347 458 L 274 397 L 205 506 L 137 397 L 64 457 L 156 544 L 29 571 L 70 662 L 175 600 L 155 730 L 256 730 L 235 600 L 344 659 L 378 574 Z" unicode="*" />
<glyph horiz-adv-x="493" d="M 467 283 L 296 283 L 296 115 L 198 115 L 198 283 L 27 283 L 27 379 L 198 379 L 198 547 L 296 547 L 296 379 L 467 379 L 467 283 Z" unicode="+" />
<glyph horiz-adv-x="249" d="M 214 121 C 212 94 208 67 200 39 C 192 11 183 -15 172 -39 C 161 -63 149 -85 137 -105 C 124 -125 112 -139 100 -149 L 10 -108 C 17 -99 25 -86 34 -70 C 42 -53 50 -34 58 -14 C 66 5 72 27 78 51 C 84 75 88 98 90 121 L 214 121 Z" unicode="," />
<glyph horiz-adv-x="350" d="M 310 215 L 41 215 L 41 323 L 310 323 L 310 215 Z" unicode="-" />
<glyph horiz-adv-x="251" d="M 187 0 L 63 0 L 63 144 L 187 144 L 187 0 Z" unicode="." />
<glyph horiz-adv-x="331" d="M 332 730 L 109 0 L -1 0 L 224 730 L 332 730 Z" unicode="/" />
<glyph horiz-adv-x="547" d="M 271 -10 C 201 -10 143 20 99 80 C 55 140 33 233 33 361 C 33 415 38 465 48 512 C 58 558 73 598 93 632 C 113 666 138 692 168 712 C 198 731 234 741 276 741 C 318 741 354 731 384 713 C 414 695 439 669 458 637 C 477 604 491 565 500 519 C 509 473 514 424 514 370 C 514 312 509 259 499 212 C 489 164 474 124 454 92 C 434 59 408 34 378 16 C 348 -1 312 -10 271 -10 Z M 272 95 C 312 95 342 117 361 162 C 380 206 390 272 390 360 C 390 448 381 515 363 563 C 345 611 316 635 274 635 C 234 635 204 612 185 567 C 166 522 157 454 157 362 C 157 270 166 203 186 160 C 205 116 234 95 272 95 Z" unicode="0" />
<glyph horiz-adv-x="363" d="M 291 0 L 167 0 L 167 559 C 160 550 151 541 140 533 C 129 525 117 517 105 511 C 93 505 80 499 68 495 C 55 491 43 488 33 488 L 33 609 C 63 610 92 623 122 647 C 152 671 178 699 201 732 L 291 732 L 291 0 Z" unicode="1" />
<glyph horiz-adv-x="521" d="M 494 0 L 22 0 L 22 38 L 296 369 C 316 394 333 420 346 448 C 358 476 365 504 365 533 C 365 563 354 587 334 605 C 314 623 287 632 253 632 C 215 632 187 620 168 597 C 148 573 139 543 139 506 L 27 507 C 27 582 49 640 91 680 C 133 720 190 740 262 740 C 328 740 381 723 423 689 C 465 655 486 608 486 548 C 486 493 476 448 457 413 C 438 377 417 346 395 319 L 215 108 L 494 108 L 494 0 Z" unicode="2" />
<glyph horiz-adv-x="512" d="M 241 -10 C 182 -10 133 -1 93 14 C 53 30 23 49 2 70 L 60 160 C 76 145 99 130 127 116 C 155 102 189 95 229 95 C 275 95 311 107 336 133 C 361 158 374 189 374 227 C 374 264 360 292 333 311 C 306 329 274 339 236 339 L 127 339 L 127 444 L 235 444 C 269 444 296 453 318 471 C 340 489 351 513 351 542 C 351 566 341 588 323 607 C 304 625 278 635 244 635 C 206 635 176 627 152 613 C 128 598 108 581 92 563 L 26 642 C 34 653 45 664 59 676 C 73 688 89 698 108 708 C 127 718 149 726 173 732 C 197 738 225 741 256 741 C 319 741 370 725 410 693 C 449 661 469 618 469 563 C 469 519 456 483 431 453 C 406 423 378 404 346 396 C 385 387 419 367 449 336 C 478 305 493 265 493 217 C 493 190 488 163 478 136 C 468 109 454 85 434 63 C 414 41 388 24 356 10 C 324 -3 285 -10 241 -10 Z" unicode="3" />
<glyph horiz-adv-x="532" d="M 527 181 L 426 181 L 426 0 L 315 0 L 315 181 L 10 181 L 10 263 L 343 739 L 427 739 L 426 284 L 527 284 L 527 181 Z M 316 281 L 316 542 L 135 281 L 316 281 Z" unicode="4" />
<glyph horiz-adv-x="522" d="M 252 -10 C 196 -10 148 0 107 18 C 66 36 35 56 14 78 L 77 168 C 93 150 116 133 144 118 C 172 102 205 95 241 95 C 282 95 315 109 339 137 C 363 165 375 203 375 249 C 375 292 363 326 341 350 C 318 374 289 387 255 387 C 224 387 198 381 177 369 C 156 357 140 340 130 319 L 49 339 L 80 730 L 446 730 L 446 620 L 170 620 L 156 433 C 166 447 183 460 206 472 C 228 483 256 489 289 489 C 352 489 403 468 441 427 C 479 385 499 328 499 256 C 499 216 493 179 481 146 C 469 113 452 85 430 62 C 408 39 382 21 352 9 C 321 -3 288 -10 252 -10 Z" unicode="5" />
<glyph horiz-adv-x="529" d="M 275 -10 C 241 -10 209 -4 179 7 C 149 19 123 36 101 58 C 79 80 61 107 49 139 C 36 171 30 208 30 248 C 30 288 35 327 46 365 C 57 403 72 439 92 474 C 111 509 134 544 161 578 C 187 612 216 645 248 679 L 314 753 L 397 684 L 350 634 C 304 583 264 536 230 494 C 196 452 174 417 165 391 C 175 408 192 424 216 438 C 240 452 268 460 300 460 C 361 460 411 438 450 396 C 488 354 508 298 508 229 C 508 195 502 163 490 134 C 478 104 462 79 442 58 C 421 37 396 20 368 8 C 339 -3 308 -10 275 -10 Z M 274 93 C 308 93 335 105 356 130 C 377 154 388 186 388 225 C 388 267 377 300 357 324 C 337 348 309 360 273 360 C 241 360 213 348 189 326 C 165 304 154 272 154 230 C 154 186 165 153 187 129 C 209 105 238 93 274 93 Z" unicode="6" />
<glyph horiz-adv-x="460" d="M 457 730 L 467 681 L 154 -9 L 47 39 L 317 619 L 13 619 L 13 730 L 457 730 Z" unicode="7" />
<glyph horiz-adv-x="544" d="M 380 388 C 396 383 413 376 429 366 C 445 356 460 343 472 328 C 484 312 494 294 502 273 C 510 251 514 227 514 200 C 514 138 492 88 449 49 C 405 9 346 -10 271 -10 C 197 -10 138 9 95 47 C 52 85 31 136 31 198 C 31 226 35 251 44 273 C 52 295 63 314 77 330 C 90 346 104 358 120 368 C 136 378 151 384 166 387 C 152 391 139 398 125 407 C 111 416 99 427 89 441 C 78 455 69 471 62 489 C 55 507 52 528 52 551 C 52 580 57 606 69 630 C 80 653 95 673 115 689 C 134 705 157 718 184 727 C 211 735 240 740 271 740 C 339 740 392 722 432 688 C 472 654 492 611 492 559 C 492 513 481 476 457 447 C 433 418 408 398 380 388 Z M 271 427 C 303 427 329 436 349 454 C 369 472 379 498 379 531 C 379 566 369 593 349 611 C 329 629 303 638 271 638 C 240 638 214 628 194 610 C 173 591 163 565 163 531 C 163 496 173 470 195 453 C 217 435 242 427 271 427 Z M 272 90 C 310 90 340 100 362 121 C 384 142 396 172 396 212 C 396 250 384 278 361 298 C 337 317 308 327 272 327 C 236 327 206 317 182 298 C 158 279 147 250 147 210 C 147 172 158 142 182 121 C 205 100 235 90 272 90 Z" unicode="8" />
<glyph horiz-adv-x="528" d="M 224 -16 L 145 56 L 194 105 C 212 124 230 145 249 167 C 267 189 285 212 301 234 C 317 256 331 277 343 297 C 355 317 364 335 370 351 C 358 332 339 315 311 299 C 283 283 255 276 226 276 C 165 276 116 297 78 340 C 40 382 21 438 21 508 C 21 541 27 572 39 601 C 51 629 67 654 88 675 C 108 695 133 712 162 724 C 191 736 222 742 256 742 C 289 742 320 736 350 725 C 380 713 405 697 427 675 C 449 653 466 626 479 594 C 491 562 498 525 498 484 C 498 440 492 397 480 357 C 468 317 453 279 434 243 C 414 207 392 173 366 141 C 340 109 314 79 287 52 L 224 -16 Z M 255 375 C 287 375 316 386 340 408 C 364 430 376 462 376 504 C 376 548 364 581 341 604 C 318 627 290 639 258 639 C 222 639 193 627 173 603 C 152 579 142 547 142 509 C 142 467 151 434 171 410 C 191 386 219 375 255 375 Z" unicode="9" />
<glyph horiz-adv-x="249" d="M 186 355 L 63 355 L 63 494 L 186 494 L 186 355 Z M 186 0 L 63 0 L 63 140 L 186 140 L 186 0 Z" unicode=":" />
<glyph horiz-adv-x="248" d="M 193 355 L 71 355 L 71 494 L 193 494 L 193 355 Z M 196 112 C 194 86 189 60 182 34 C 174 8 165 -16 155 -40 C 145 -63 134 -84 122 -103 C 110 -121 98 -135 86 -145 L -4 -105 C 4 -95 12 -83 21 -67 C 30 -51 39 -34 47 -14 C 55 5 61 25 67 47 C 73 69 76 90 77 112 L 196 112 Z" unicode=";" />
<glyph horiz-adv-x="413" d="M 362 93 L 41 283 L 41 369 L 362 559 L 362 446 L 163 328 L 362 208 L 362 93 Z" unicode="&#x3C;" />
<glyph horiz-adv-x="494" d="M 442 382 L 53 382 L 53 486 L 442 486 L 442 382 Z M 442 163 L 53 163 L 53 267 L 442 267 L 442 163 Z" unicode="=" />
<glyph horiz-adv-x="413" d="M 370 283 L 49 93 L 49 208 L 247 328 L 49 446 L 49 559 L 370 369 L 370 283 Z" unicode="&#x3E;" />
<glyph horiz-adv-x="461" d="M 154 217 C 154 257 159 290 171 318 C 183 346 202 373 229 400 C 249 420 268 441 286 463 C 304 485 313 511 313 543 C 313 571 302 593 282 609 C 262 625 237 633 209 633 C 182 633 158 626 137 613 C 116 599 99 583 86 565 L 10 641 C 34 672 65 697 104 715 C 142 733 184 742 230 742 C 294 742 345 724 383 690 C 421 656 440 612 440 558 C 440 532 436 509 429 489 C 422 469 413 450 403 434 C 392 417 380 402 366 388 C 352 374 339 360 327 347 C 306 329 292 309 285 285 C 277 261 273 239 273 217 L 154 217 Z M 149 0 L 149 134 L 283 134 L 283 0 L 149 0 Z" unicode="?" />
<glyph horiz-adv-x="848" d="M 416 -40 C 360 -40 309 -30 263 -10 C 217 10 177 37 144 71 C 111 105 85 145 67 192 C 48 238 39 288 39 341 C 39 394 48 444 67 491 C 85 537 111 578 145 612 C 178 646 218 672 266 692 C 313 712 365 722 422 722 C 480 722 532 713 580 697 C 628 680 668 657 701 627 C 734 597 760 560 778 517 C 796 474 805 427 805 375 C 805 331 799 293 789 261 C 779 229 766 204 750 184 C 734 164 716 150 696 141 C 676 132 657 128 639 128 C 607 128 581 134 561 147 C 541 160 528 177 522 198 C 511 181 493 165 467 151 C 441 136 408 129 370 129 C 320 129 283 141 257 166 C 231 191 219 223 219 262 C 219 306 238 340 276 365 C 314 389 364 402 425 402 L 508 402 L 508 412 C 508 436 500 454 485 466 C 470 477 447 483 417 483 C 392 483 369 480 349 474 C 329 468 312 462 298 456 L 264 533 C 282 541 305 549 333 556 C 361 563 390 567 419 567 C 474 567 518 554 551 528 C 584 502 601 458 601 398 L 601 255 C 601 243 604 231 611 221 C 618 210 631 205 649 205 C 657 205 666 207 675 212 C 684 216 692 225 700 237 C 708 249 714 266 719 287 C 724 308 727 335 727 369 C 727 409 720 446 706 481 C 692 515 672 545 646 570 C 620 595 589 615 551 629 C 513 643 470 650 422 650 C 376 650 334 642 296 626 C 258 610 226 589 200 561 C 174 533 153 501 139 464 C 125 426 118 386 118 343 C 118 300 125 260 140 222 C 154 184 175 150 202 122 C 228 94 260 71 297 55 C 333 39 374 31 418 31 C 440 31 463 33 485 38 C 507 42 529 50 552 61 L 581 -4 C 554 -16 527 -25 499 -31 C 471 -37 444 -40 416 -40 Z M 401 210 C 425 210 448 214 468 224 C 488 234 501 243 508 253 L 508 332 L 427 332 C 393 332 367 326 351 316 C 335 305 327 290 327 272 C 327 251 333 235 345 225 C 357 215 376 210 401 210 Z" unicode="@" />
<glyph horiz-adv-x="610" d="M 611 0 L 479 0 L 422 158 L 179 158 L 125 0 L -1 0 L 266 733 L 350 733 L 611 0 Z M 394 259 L 300 524 L 208 259 L 394 259 Z" unicode="A" />
<glyph horiz-adv-x="576" d="M 77 0 L 77 730 L 311 730 C 371 730 419 714 456 683 C 493 652 512 610 512 556 C 512 506 499 467 473 437 C 447 407 417 389 381 383 C 400 381 419 376 439 368 C 459 360 476 348 492 334 C 508 320 520 302 530 281 C 540 259 545 234 545 205 C 545 173 539 144 527 118 C 515 92 498 71 478 54 C 458 36 433 23 405 14 C 376 4 345 0 313 0 L 77 0 Z M 200 421 L 283 421 C 321 421 347 432 363 455 C 378 477 386 502 386 529 C 386 557 377 580 359 598 C 341 615 315 624 281 624 L 200 624 L 200 421 Z M 201 105 L 304 105 C 344 105 372 115 389 137 C 406 159 415 185 415 216 C 415 248 404 273 383 291 C 362 309 334 319 298 319 L 201 319 L 201 105 Z" unicode="B" />
<glyph horiz-adv-x="653" d="M 363 -10 C 317 -10 274 -1 234 15 C 194 31 160 55 132 87 C 103 119 80 158 64 205 C 47 251 39 305 39 365 C 39 421 46 472 62 518 C 78 564 100 604 129 637 C 157 669 192 695 232 713 C 272 731 316 740 364 740 C 430 740 483 728 525 705 C 567 681 600 650 626 610 L 530 538 C 513 562 492 582 466 599 C 440 615 408 624 368 624 C 305 624 256 601 222 557 C 188 512 171 448 171 365 C 171 318 176 278 188 245 C 199 211 214 184 233 164 C 251 143 273 128 298 118 C 322 108 348 104 374 104 C 416 104 450 113 478 131 C 506 149 529 172 547 201 L 637 139 C 612 95 576 59 530 31 C 484 3 428 -10 363 -10 Z" unicode="C" />
<glyph horiz-adv-x="686" d="M 77 0 L 77 730 L 296 730 C 352 730 402 721 446 704 C 490 686 526 662 556 631 C 585 600 607 562 623 518 C 638 474 646 425 646 371 C 646 319 638 270 623 225 C 607 179 584 140 554 107 C 524 73 486 47 440 28 C 394 9 342 0 282 0 L 77 0 Z M 206 108 L 283 108 C 323 108 357 114 386 128 C 415 141 439 159 457 182 C 475 205 489 233 498 265 C 507 297 512 331 512 369 C 512 449 492 511 454 555 C 416 599 362 622 294 622 L 206 622 L 206 108 Z" unicode="D" />
<glyph horiz-adv-x="533" d="M 496 0 L 77 0 L 77 730 L 478 730 L 478 617 L 204 617 L 204 418 L 462 418 L 462 307 L 204 307 L 204 113 L 496 113 L 496 0 Z" unicode="E" />
<glyph horiz-adv-x="477" d="M 448 617 L 207 617 L 207 419 L 435 419 L 435 307 L 207 307 L 207 0 L 77 0 L 77 730 L 448 730 L 448 617 Z" unicode="F" />
<glyph horiz-adv-x="697" d="M 373 378 L 658 378 L 658 140 C 633 96 596 60 547 32 C 497 4 438 -10 370 -10 C 322 -10 278 -1 238 16 C 198 33 163 58 134 90 C 104 122 81 162 64 209 C 47 255 39 307 39 365 C 39 422 47 474 64 521 C 81 567 104 607 134 639 C 164 671 199 696 240 714 C 280 731 324 740 371 740 C 440 740 494 727 533 703 C 571 678 600 651 619 621 L 528 547 C 513 566 493 584 469 600 C 445 616 412 624 370 624 C 312 624 264 602 226 558 C 188 514 169 450 169 366 C 169 281 188 215 227 168 C 266 120 316 97 376 97 C 415 97 449 104 479 118 C 508 132 529 152 543 177 L 543 269 L 373 269 L 373 378 Z" unicode="G" />
<glyph horiz-adv-x="694" d="M 617 0 L 487 0 L 487 303 L 207 303 L 207 0 L 77 0 L 77 730 L 207 730 L 207 417 L 487 417 L 487 730 L 617 730 L 617 0 Z" unicode="H" />
<glyph horiz-adv-x="292" d="M 212 0 L 81 0 L 81 730 L 212 730 L 212 0 Z" unicode="I" />
<glyph horiz-adv-x="376" d="M 308 730 L 308 194 C 308 165 303 138 294 113 C 285 88 272 66 255 48 C 238 30 217 15 192 5 C 167 -5 138 -11 106 -11 C 88 -11 70 -9 51 -7 C 31 -4 16 0 6 6 L 26 114 C 32 111 41 109 54 107 C 67 105 79 104 89 104 C 119 104 142 113 158 133 C 174 152 182 175 182 202 L 182 730 L 308 730 Z" unicode="J" />
<glyph horiz-adv-x="638" d="M 641 0 L 484 0 L 265 303 L 207 233 L 207 0 L 77 0 L 77 730 L 207 730 L 207 391 L 465 730 L 611 730 L 352 399 L 641 0 Z" unicode="K" />
<glyph horiz-adv-x="475" d="M 466 0 L 77 0 L 77 730 L 207 730 L 207 113 L 466 113 L 466 0 Z" unicode="L" />
<glyph horiz-adv-x="840" d="M 763 0 L 641 0 L 641 464 L 445 138 L 394 138 L 198 462 L 198 0 L 77 0 L 77 730 L 170 730 L 423 310 L 674 730 L 763 730 L 763 0 Z" unicode="M" />
<glyph horiz-adv-x="700" d="M 623 0 L 533 0 L 199 479 L 199 0 L 77 0 L 77 730 L 173 730 L 504 255 L 503 730 L 623 730 L 623 0 Z" unicode="N" />
<glyph horiz-adv-x="747" d="M 376 -10 C 324 -10 277 0 235 17 C 193 35 158 61 129 94 C 100 127 78 167 62 214 C 46 261 39 313 39 370 C 39 424 47 474 64 520 C 80 566 103 605 133 637 C 162 669 197 695 237 713 C 277 731 321 740 369 740 C 419 740 466 731 508 714 C 550 696 585 672 615 640 C 644 608 667 568 683 522 C 699 476 708 424 708 367 C 708 310 699 258 682 212 C 664 165 641 125 611 93 C 581 60 546 35 506 17 C 465 -1 422 -10 376 -10 Z M 378 102 C 436 102 483 124 520 169 C 557 213 576 280 576 369 C 576 450 556 513 518 558 C 479 603 429 626 369 626 C 310 626 262 604 226 561 C 189 518 171 454 171 368 C 171 324 176 285 186 252 C 196 218 211 191 229 169 C 247 147 269 130 295 119 C 321 107 348 102 378 102 Z" unicode="O" />
<glyph horiz-adv-x="566" d="M 77 0 L 77 730 L 323 730 C 354 730 383 725 410 715 C 437 705 460 690 480 671 C 500 652 515 629 526 602 C 537 575 543 545 543 511 C 543 443 522 388 481 345 C 440 302 387 281 321 281 L 207 281 L 207 0 L 77 0 Z M 206 388 L 300 388 C 336 388 364 398 384 420 C 403 442 413 472 413 511 C 413 548 401 576 379 595 C 356 613 328 623 294 623 L 206 623 L 206 388 Z" unicode="P" />
<glyph horiz-adv-x="744" d="M 640 -63 L 640 -178 C 575 -174 517 -155 466 -123 C 415 -91 378 -51 354 -5 C 304 -2 260 8 221 27 C 182 45 149 71 122 103 C 95 135 74 173 60 219 C 46 264 39 314 39 370 C 39 424 47 473 64 519 C 80 565 103 604 132 636 C 161 668 196 694 237 712 C 277 730 322 740 370 740 C 420 740 466 731 508 714 C 550 696 585 672 615 640 C 644 608 667 568 683 522 C 699 475 708 423 708 365 C 708 277 687 202 646 139 C 605 76 551 33 484 11 C 502 -11 525 -28 553 -41 C 581 -53 610 -61 640 -63 Z M 376 101 C 434 101 482 123 520 169 C 557 214 576 280 576 368 C 576 411 570 449 560 482 C 549 514 534 541 516 563 C 497 584 475 600 450 611 C 424 621 397 627 369 627 C 310 627 262 605 226 563 C 189 520 171 455 171 369 C 171 325 176 286 187 252 C 197 218 212 190 230 168 C 248 146 269 129 295 118 C 320 106 347 101 376 101 Z" unicode="Q" />
<glyph horiz-adv-x="587" d="M 77 0 L 77 730 L 301 730 C 330 730 358 725 384 717 C 410 708 432 695 451 678 C 470 661 485 640 496 615 C 507 589 513 560 513 528 C 513 498 509 472 501 448 C 493 424 482 404 469 387 C 456 370 441 356 424 346 C 407 336 389 329 371 326 L 369 322 L 578 0 L 433 0 L 251 289 L 203 289 L 203 0 L 77 0 Z M 202 396 L 276 396 C 306 396 332 406 353 426 C 374 446 385 474 385 512 C 385 548 374 575 354 594 C 334 613 309 623 280 623 L 202 623 L 202 396 Z" unicode="R" />
<glyph horiz-adv-x="519" d="M 265 -10 C 212 -10 165 -2 125 12 C 85 26 51 49 23 80 L 97 171 C 114 149 137 131 167 117 C 196 103 227 96 260 96 C 288 96 313 104 333 120 C 353 136 364 158 364 186 C 364 213 354 236 335 255 C 315 273 282 294 236 317 C 176 344 130 375 96 409 C 62 443 46 491 46 553 C 46 609 66 654 107 688 C 147 722 199 740 262 740 C 308 740 347 733 380 719 C 413 705 441 688 464 669 L 398 574 C 379 589 358 602 336 612 C 313 622 289 628 264 628 C 236 628 214 620 196 606 C 178 592 170 573 170 550 C 170 524 179 502 199 485 C 218 468 254 447 308 422 C 371 392 417 360 445 326 C 473 292 488 247 488 192 C 488 159 481 130 469 105 C 457 79 440 58 420 41 C 399 24 375 11 348 3 C 321 -5 293 -10 265 -10 Z" unicode="S" />
<glyph horiz-adv-x="504" d="M 496 617 L 315 617 L 315 0 L 185 0 L 185 617 L 8 617 L 8 730 L 496 730 L 496 617 Z" unicode="T" />
<glyph horiz-adv-x="685" d="M 613 730 L 613 252 C 613 209 605 171 591 139 C 576 106 556 79 531 57 C 506 35 477 18 444 7 C 410 -4 375 -10 339 -10 C 303 -10 268 -4 236 6 C 203 17 175 33 151 55 C 127 76 107 103 93 136 C 79 169 72 208 72 252 L 72 730 L 199 730 L 199 250 C 199 204 212 168 239 142 C 266 116 300 104 340 104 C 380 104 414 116 442 141 C 470 165 484 202 484 250 L 484 730 L 613 730 Z" unicode="U" />
<glyph horiz-adv-x="608" d="M 610 730 L 344 -4 L 260 -4 L -1 730 L 133 730 L 306 221 L 480 730 L 610 730 Z" unicode="V" />
<glyph horiz-adv-x="858" d="M 849 730 L 646 -5 L 571 -5 L 428 493 L 278 -5 L 202 -5 L 4 730 L 132 730 L 255 248 L 393 730 L 472 730 L 609 247 L 732 730 L 849 730 Z" unicode="W" />
<glyph horiz-adv-x="581" d="M 434 0 L 288 259 L 140 0 L 9 0 L 222 374 L 21 730 L 160 730 L 292 496 L 425 730 L 556 730 L 357 381 L 572 0 L 434 0 Z" unicode="X" />
<glyph horiz-adv-x="606" d="M 610 730 L 365 310 L 365 0 L 235 0 L 235 314 L -4 730 L 139 730 L 307 434 L 477 730 L 610 730 Z" unicode="Y" />
<glyph horiz-adv-x="543" d="M 511 730 L 511 673 L 184 112 L 522 112 L 522 0 L 16 0 L 16 55 L 340 617 L 41 617 L 41 730 L 511 730 Z" unicode="Z" />
<glyph horiz-adv-x="307" d="M 279 -179 L 73 -179 L 73 730 L 279 730 L 279 632 L 187 632 L 187 -79 L 279 -79 L 279 -179 Z" unicode="[" />
<glyph horiz-adv-x="331" d="M -1 730 L 106 730 L 332 0 L 223 0 L -1 730 Z" unicode="\" />
<glyph horiz-adv-x="304" d="M 232 -179 L 29 -179 L 29 -81 L 117 -81 L 117 632 L 29 632 L 29 730 L 232 730 L 232 -179 Z" unicode="]" />
<glyph horiz-adv-x="488" d="M 441 369 L 337 369 L 243 603 L 151 369 L 48 369 L 192 730 L 295 730 L 441 369 Z" unicode="^" />
<glyph horiz-adv-x="475" d="M 475 -169 L 0 -169 L 0 -70 L 475 -70 L 475 -169 Z" unicode="_" />
<glyph horiz-adv-x="500" d="M 365 550 L 246 550 L 124 715 L 265 715 L 365 550 Z" unicode="`" />
<glyph horiz-adv-x="495" d="M 443 0 L 332 0 L 332 56 C 316 36 295 21 271 9 C 246 -2 216 -8 180 -8 C 130 -8 91 6 64 34 C 36 62 23 99 23 145 C 23 199 42 240 81 269 C 120 297 173 313 241 317 L 328 322 L 328 335 C 327 359 319 378 305 390 C 290 402 268 409 238 409 C 210 409 183 404 159 394 C 135 384 114 374 98 364 L 56 446 C 76 461 103 475 137 487 C 171 499 211 506 258 506 C 313 506 358 492 392 466 C 426 439 443 397 443 340 L 443 0 Z M 330 133 L 330 238 L 247 234 C 216 232 191 225 172 212 C 152 198 143 179 143 153 C 143 130 150 113 164 102 C 178 90 197 85 219 85 C 243 85 265 89 285 99 C 304 109 319 120 330 133 Z" unicode="a" />
<glyph horiz-adv-x="549" d="M 321 -5 C 280 -5 247 3 223 20 C 198 36 181 56 171 79 L 171 0 L 58 0 L 58 775 L 171 775 L 171 409 C 179 433 197 454 223 473 C 249 492 282 502 324 502 C 382 502 429 479 465 435 C 501 390 520 331 520 258 C 520 216 514 179 504 147 C 493 114 479 86 461 64 C 443 42 421 25 397 13 C 373 1 347 -5 321 -5 Z M 284 88 C 318 88 345 102 365 130 C 385 158 396 198 396 249 C 396 298 386 336 367 363 C 347 390 320 404 284 404 C 252 404 225 391 204 366 C 182 341 172 300 172 243 C 172 188 182 148 203 124 C 224 100 251 88 284 88 Z" unicode="b" />
<glyph horiz-adv-x="477" d="M 380 157 L 464 96 C 447 69 423 45 392 23 C 361 1 319 -9 265 -9 C 193 -9 136 14 93 62 C 50 109 29 170 29 246 C 29 282 34 316 46 348 C 58 380 74 407 95 430 C 116 453 141 471 171 484 C 201 497 233 504 269 504 C 322 504 365 492 397 469 C 429 445 451 419 465 391 L 371 336 C 361 354 349 370 333 382 C 317 394 295 400 269 400 C 235 400 207 386 186 358 C 164 330 154 293 154 248 C 154 198 165 159 188 133 C 210 106 239 93 275 93 C 303 93 326 100 342 114 C 358 128 371 142 380 157 Z" unicode="c" />
<glyph horiz-adv-x="552" d="M 236 -8 C 176 -8 126 15 87 61 C 48 107 29 168 29 243 C 29 281 34 316 46 348 C 57 380 72 408 91 431 C 110 453 133 471 159 484 C 185 496 212 503 242 503 C 274 503 302 495 327 479 C 351 463 369 445 379 425 L 379 775 L 494 775 L 494 0 L 384 0 L 384 77 C 376 58 360 39 334 20 C 308 1 276 -8 236 -8 Z M 268 87 C 302 87 329 101 349 129 C 369 157 380 198 380 250 C 380 304 369 344 347 368 C 325 392 298 404 267 404 C 232 404 204 390 184 363 C 164 336 154 297 154 247 C 154 198 164 159 184 130 C 204 101 232 87 268 87 Z" unicode="d" />
<glyph horiz-adv-x="516" d="M 270 -9 C 234 -9 202 -3 172 8 C 142 19 117 35 96 57 C 75 79 59 105 47 137 C 35 168 29 204 29 244 C 29 282 35 317 47 349 C 59 381 75 408 96 431 C 116 454 141 472 170 485 C 199 497 231 504 265 504 C 335 504 391 478 431 428 C 471 377 492 305 493 212 L 147 212 C 148 176 160 147 182 124 C 204 100 235 89 276 89 C 309 89 336 94 356 106 C 376 118 393 131 406 146 L 471 76 C 451 53 426 33 395 16 C 364 0 322 -9 270 -9 Z M 148 296 L 375 296 C 373 328 363 355 343 376 C 323 397 296 408 264 408 C 231 408 204 397 183 376 C 162 354 150 328 148 296 Z" unicode="e" />
<glyph horiz-adv-x="309" d="M 302 392 L 205 392 L 205 0 L 86 0 L 86 392 L 11 392 L 11 494 L 86 494 L 86 610 C 86 637 90 661 99 683 C 107 704 119 722 134 736 C 148 750 165 760 184 768 C 203 775 223 779 243 779 C 259 779 276 777 292 773 C 308 769 320 765 330 760 L 309 660 C 304 662 297 664 289 666 C 281 668 272 669 262 669 C 245 669 231 662 221 649 C 210 635 205 617 205 594 L 205 494 L 302 494 L 302 392 Z" unicode="f" />
<glyph horiz-adv-x="550" d="M 235 6 C 175 6 126 28 88 73 C 49 117 30 176 30 250 C 30 327 49 388 89 434 C 128 480 178 503 238 503 C 272 503 302 495 328 479 C 354 463 372 444 383 423 L 383 494 L 493 494 L 493 41 C 493 0 486 -34 472 -64 C 458 -94 439 -118 417 -138 C 394 -157 368 -171 338 -181 C 308 -190 278 -195 248 -195 C 197 -195 156 -189 126 -179 C 96 -169 73 -159 59 -149 L 104 -59 C 116 -67 134 -76 157 -85 C 180 -93 207 -98 238 -98 C 278 -98 311 -86 337 -64 C 363 -42 377 -10 377 32 L 377 93 C 368 72 351 52 326 34 C 301 15 271 6 235 6 Z M 269 98 C 299 98 325 111 347 137 C 369 163 380 202 380 254 C 380 302 369 339 348 365 C 327 391 300 404 266 404 C 232 404 205 390 185 363 C 164 336 154 298 154 249 C 154 200 164 163 184 137 C 204 111 232 98 269 98 Z" unicode="g" />
<glyph horiz-adv-x="536" d="M 482 0 L 362 0 L 362 327 C 362 351 354 369 339 383 C 323 397 303 404 279 404 C 253 404 229 396 209 380 C 188 364 178 341 178 309 L 178 0 L 58 0 L 58 775 L 170 775 L 170 418 C 178 442 196 462 222 479 C 248 495 281 504 323 504 C 368 504 406 491 436 466 C 466 441 482 405 482 358 L 482 0 Z" unicode="h" />
<glyph horiz-adv-x="243" d="M 60 580 L 60 697 L 184 697 L 184 580 L 60 580 Z M 61 0 L 61 494 L 182 494 L 182 0 L 61 0 Z" unicode="i" />
<glyph horiz-adv-x="254" d="M 200 580 L 76 580 L 76 697 L 200 697 L 200 580 Z M 198 494 L 198 -42 C 198 -87 184 -124 157 -153 C 130 -182 94 -197 50 -197 C 32 -197 13 -195 -6 -191 C -26 -187 -41 -182 -52 -176 L -32 -85 C -25 -87 -17 -90 -7 -92 C 3 -94 14 -96 26 -96 C 41 -96 53 -89 63 -77 C 73 -64 78 -47 78 -27 L 78 494 L 198 494 Z" unicode="j" />
<glyph horiz-adv-x="503" d="M 522 1 L 386 0 L 242 201 L 177 127 L 177 0 L 58 0 L 58 775 L 174 775 L 174 256 L 362 494 L 492 494 L 322 285 L 522 1 Z" unicode="k" />
<glyph horiz-adv-x="236" d="M 178 775 L 178 0 L 58 0 L 58 775 L 178 775 Z" unicode="l" />
<glyph horiz-adv-x="833" d="M 58 0 L 58 494 L 167 494 L 167 414 C 176 441 195 463 225 479 C 254 495 288 504 326 504 C 360 504 389 496 415 481 C 440 465 456 443 463 413 L 468 413 C 476 440 495 462 523 479 C 551 495 584 504 622 504 C 668 504 705 491 735 466 C 764 441 779 406 779 360 L 779 0 L 660 0 L 660 323 C 660 350 652 370 636 384 C 620 397 600 404 576 404 C 552 404 529 396 509 380 C 488 364 478 339 478 305 L 478 0 L 359 0 L 359 326 C 359 352 351 371 336 384 C 320 397 300 404 276 404 C 250 404 227 395 207 378 C 187 361 177 336 177 304 L 177 0 L 58 0 Z" unicode="m" />
<glyph horiz-adv-x="536" d="M 482 0 L 362 0 L 362 329 C 362 352 354 370 339 384 C 323 397 303 404 279 404 C 253 404 229 396 209 380 C 188 364 178 340 178 306 L 178 0 L 58 0 L 58 494 L 167 494 L 167 414 C 177 440 196 462 224 479 C 252 495 285 504 323 504 C 369 504 407 491 437 466 C 467 440 482 405 482 361 L 482 0 Z" unicode="n" />
<glyph horiz-adv-x="540" d="M 267 -9 C 235 -9 205 -3 177 7 C 148 18 123 34 101 56 C 79 78 61 104 48 136 C 35 168 29 204 29 246 C 29 283 35 317 48 349 C 60 381 77 408 99 431 C 120 453 145 471 174 484 C 202 497 233 504 266 504 C 300 504 332 498 362 487 C 392 475 418 459 440 438 C 462 417 479 391 492 361 C 505 331 512 297 512 259 C 512 219 505 182 493 149 C 480 116 463 88 441 65 C 419 41 393 23 363 10 C 333 -2 301 -9 267 -9 Z M 270 91 C 306 91 334 104 355 132 C 376 160 387 200 387 253 C 387 301 376 338 354 364 C 332 390 303 403 265 403 C 231 403 204 389 184 363 C 164 336 154 297 154 247 C 154 193 165 153 187 128 C 209 103 236 91 270 91 Z" unicode="o" />
<glyph horiz-adv-x="549" d="M 58 -199 L 58 494 L 167 494 L 167 403 C 175 429 194 453 222 473 C 250 493 284 503 324 503 C 382 503 430 480 466 436 C 502 392 520 333 520 260 C 520 218 514 180 504 147 C 493 114 478 86 460 64 C 442 42 420 25 396 13 C 372 1 346 -5 319 -5 C 284 -5 254 2 228 17 C 202 31 184 49 175 70 L 175 -199 L 58 -199 Z M 285 88 C 317 88 344 101 365 128 C 385 155 396 195 396 247 C 396 295 386 333 368 362 C 349 390 321 405 285 405 C 252 405 225 392 204 367 C 182 342 172 300 172 242 C 172 184 182 143 204 121 C 226 99 253 88 285 88 Z" unicode="p" />
<glyph horiz-adv-x="551" d="M 377 -199 L 377 77 C 366 56 348 37 323 19 C 298 1 267 -7 231 -7 C 171 -7 123 15 85 61 C 47 107 29 166 29 240 C 29 280 34 317 46 350 C 57 382 72 410 91 432 C 110 454 132 472 158 484 C 184 496 211 503 240 503 C 276 503 307 493 333 475 C 358 457 375 437 384 417 L 384 494 L 493 494 L 493 -199 L 377 -199 Z M 268 87 C 300 87 326 100 348 128 C 369 155 380 196 380 250 C 380 303 369 342 347 367 C 325 392 298 405 266 405 C 230 405 202 391 183 364 C 163 336 154 297 154 247 C 154 199 164 160 184 131 C 204 101 232 87 268 87 Z" unicode="q" />
<glyph horiz-adv-x="402" d="M 405 473 L 356 369 C 344 379 331 387 318 391 C 305 395 291 398 277 398 C 253 398 231 388 210 370 C 188 352 178 325 178 289 L 178 0 L 58 0 L 58 494 L 170 494 L 170 409 C 177 431 193 453 218 473 C 242 493 273 504 310 504 C 330 504 349 501 365 495 C 381 489 395 481 405 473 Z" unicode="r" />
<glyph horiz-adv-x="416" d="M 222 -10 C 178 -10 140 -4 106 8 C 72 20 45 36 24 56 L 78 135 C 96 120 117 108 143 99 C 168 90 192 86 215 86 C 233 86 249 90 261 100 C 273 109 280 121 280 137 C 280 152 271 165 255 175 C 239 185 213 197 179 210 C 135 224 100 244 76 268 C 52 292 40 325 40 365 C 40 405 56 438 89 464 C 121 490 162 504 211 504 C 251 504 285 498 314 487 C 342 476 365 465 381 453 L 332 369 C 317 379 300 388 280 396 C 260 404 239 409 218 409 C 200 409 185 405 171 398 C 157 391 151 381 151 368 C 151 354 157 343 169 335 C 181 326 207 314 247 300 C 293 282 329 262 354 239 C 378 215 391 183 391 141 C 391 117 386 95 377 77 C 368 58 356 42 341 29 C 325 16 307 6 287 0 C 266 -6 244 -10 222 -10 Z" unicode="s" />
<glyph horiz-adv-x="309" d="M 287 109 L 302 14 C 294 8 283 4 268 0 C 252 -3 235 -5 217 -5 C 199 -5 181 -2 163 2 C 145 7 128 16 114 28 C 100 40 88 55 80 74 C 71 93 67 116 67 143 L 67 393 L 8 393 L 8 494 L 68 494 L 68 620 L 185 633 L 185 494 L 285 494 L 285 393 L 186 393 L 186 156 C 186 136 190 121 200 112 C 210 102 223 98 241 98 C 249 98 258 99 268 102 C 277 104 283 107 287 109 Z" unicode="t" />
<glyph horiz-adv-x="536" d="M 54 494 L 173 494 L 173 174 C 173 144 181 123 197 109 C 213 95 235 88 262 88 C 288 88 311 96 330 113 C 348 129 358 154 358 187 L 358 494 L 478 494 L 478 0 L 366 0 L 366 77 C 355 53 336 32 309 16 C 282 0 250 -9 213 -9 C 169 -9 131 4 100 30 C 69 56 54 94 54 144 L 54 494 Z" unicode="u" />
<glyph horiz-adv-x="472" d="M 479 494 L 274 -3 L 195 -3 L -7 494 L 122 494 L 241 185 L 359 494 L 479 494 Z" unicode="v" />
<glyph horiz-adv-x="678" d="M 442 -3 L 342 277 L 236 -3 L 160 -3 L 1 494 L 122 494 L 215 177 L 310 447 L 385 447 L 475 179 L 569 494 L 677 494 L 517 -3 L 442 -3 Z" unicode="w" />
<glyph horiz-adv-x="442" d="M 313 0 L 217 157 L 117 0 L 0 0 L 159 251 L 10 494 L 138 494 L 224 354 L 313 494 L 431 494 L 282 259 L 441 0 L 313 0 Z" unicode="x" />
<glyph horiz-adv-x="478" d="M 482 494 L 241 -85 C 222 -128 197 -158 167 -175 C 136 -191 105 -200 75 -200 C 56 -200 40 -197 27 -193 C 13 -189 4 -185 -2 -183 L 34 -85 C 36 -87 42 -89 51 -91 C 59 -93 68 -95 77 -95 C 91 -95 104 -90 116 -81 C 127 -71 138 -55 148 -33 L 180 45 L -5 494 L 123 494 L 242 183 L 363 494 L 482 494 Z" unicode="y" />
<glyph horiz-adv-x="413" d="M 393 494 L 393 440 L 179 102 L 403 102 L 403 0 L 12 0 L 12 44 L 233 391 L 24 391 L 24 494 L 393 494 Z" unicode="z" />
<glyph horiz-adv-x="295" d="M 277 -179 C 243 -179 211 -174 183 -166 C 154 -158 130 -146 110 -132 C 90 -118 74 -101 63 -83 C 51 -64 46 -44 46 -24 C 46 0 48 23 54 44 C 59 65 65 83 72 99 C 78 115 85 129 91 143 C 97 157 101 170 101 183 C 101 197 93 210 77 223 C 61 235 41 242 15 242 L 15 329 C 41 329 62 335 78 349 C 94 363 103 378 103 395 C 103 398 99 407 93 423 C 87 439 80 456 72 475 C 64 493 57 510 53 528 C 49 546 47 563 47 580 C 47 600 52 621 63 641 C 74 661 90 679 110 695 C 130 711 154 724 183 734 C 211 744 243 749 277 749 L 277 660 C 246 660 220 651 198 633 C 176 615 166 593 166 567 C 166 558 167 547 169 534 C 171 521 175 508 181 496 C 190 476 198 457 206 441 C 213 425 217 411 217 400 C 217 374 209 351 194 330 C 178 308 154 293 120 285 C 154 276 179 261 194 239 C 209 217 217 196 217 174 C 217 156 213 140 207 127 C 200 113 193 100 187 87 C 180 73 175 59 171 44 C 167 29 165 15 165 3 C 165 -17 175 -38 196 -59 C 216 -79 243 -90 277 -90 L 277 -179 Z" unicode="{" />
<glyph horiz-adv-x="254" d="M 184 -179 L 71 -179 L 71 730 L 184 730 L 184 -179 Z" unicode="|" />
<glyph horiz-adv-x="295" d="M 18 -179 L 18 -90 C 51 -90 78 -79 98 -59 C 118 -38 129 -17 129 3 C 129 15 127 29 123 44 C 119 59 114 73 108 87 C 101 100 94 113 87 127 C 80 140 77 156 77 174 C 77 196 84 217 99 239 C 114 261 139 276 173 285 C 140 293 116 308 100 330 C 84 351 77 374 77 400 C 77 411 80 425 88 441 C 96 457 104 476 113 496 C 119 508 124 521 126 534 C 128 547 129 558 129 567 C 129 593 118 615 96 633 C 74 651 48 660 18 660 L 18 749 C 52 749 83 744 112 734 C 140 724 165 711 185 695 C 205 679 220 661 231 641 C 242 621 248 600 248 580 C 248 563 245 546 241 528 C 237 510 231 493 223 475 C 215 456 207 439 201 423 C 194 407 191 398 191 395 C 191 378 199 363 216 349 C 232 335 254 329 280 329 L 280 242 C 254 242 233 235 217 223 C 201 210 194 197 194 183 C 194 170 197 157 203 143 C 209 129 216 115 223 99 C 229 83 235 65 240 44 C 245 23 248 0 248 -24 C 248 -44 242 -64 231 -83 C 220 -101 204 -118 184 -132 C 164 -146 139 -158 111 -166 C 83 -174 52 -179 18 -179 Z" unicode="}" />
<glyph horiz-adv-x="487" d="M 364 449 L 461 449 C 460 391 450 347 432 316 C 414 284 386 269 348 269 C 324 269 303 273 286 281 C 268 289 253 299 241 309 C 228 318 216 326 204 334 C 192 342 180 346 167 346 C 155 346 144 339 135 325 C 126 311 122 293 122 272 L 27 272 C 27 331 36 376 55 407 C 73 437 99 453 132 453 C 158 453 181 448 201 439 C 221 429 238 419 254 408 C 266 399 277 391 289 384 C 300 376 313 373 327 373 C 343 373 354 379 358 393 C 362 406 364 425 364 449 Z" unicode="~" />
<glyph horiz-adv-x="300" d="M 87 587 L 214 587 L 214 455 L 87 455 L 87 587 Z M 80 159 L 122 366 L 181 366 L 220 159 L 220 -128 L 80 -128 L 80 159 Z" unicode="¡" />
<glyph horiz-adv-x="516" d="M 501 175 C 485 151 462 129 434 108 C 406 87 368 74 321 70 L 321 -44 L 241 -44 L 241 71 C 179 81 130 108 93 154 C 55 199 37 256 37 325 C 37 392 55 449 92 497 C 129 544 179 573 241 584 L 241 692 L 321 692 L 321 587 C 367 582 404 569 434 547 C 464 525 485 500 498 474 L 414 416 C 401 434 385 450 366 464 C 346 477 322 484 292 484 C 250 484 217 469 193 440 C 169 410 157 373 157 329 C 157 278 170 239 196 211 C 222 183 257 170 299 170 C 333 170 359 177 379 192 C 399 207 414 223 425 240 L 501 175 Z" unicode="¢" />
<glyph horiz-adv-x="561" d="M 546 98 L 546 0 L 20 0 L 20 76 C 25 80 34 83 47 86 C 59 88 77 92 99 97 C 127 101 152 113 172 131 C 192 149 203 173 203 203 C 203 203 203 204 203 205 C 203 205 203 206 203 207 L 38 207 L 38 289 L 169 289 C 163 297 157 307 151 317 C 145 327 138 337 132 348 L 38 348 L 38 431 L 92 431 C 85 448 80 466 76 486 C 72 505 70 525 70 546 C 70 582 76 612 90 638 C 103 663 121 683 143 699 C 165 714 190 725 220 732 C 249 738 279 742 311 742 C 335 742 360 739 384 734 C 408 729 430 723 450 716 C 470 708 489 700 505 691 C 521 682 533 673 543 665 L 483 572 C 467 583 444 596 414 610 C 384 624 351 631 317 631 C 287 631 260 623 236 607 C 211 591 199 563 199 523 C 199 507 201 492 206 476 C 211 460 217 445 224 431 L 479 431 L 479 348 L 270 348 C 276 338 281 328 286 318 C 291 308 296 298 300 289 L 479 289 L 479 207 L 309 207 C 304 175 293 150 275 133 C 257 115 240 104 222 98 L 546 98 Z" unicode="£" />
<glyph horiz-adv-x="502" d="M 446 194 L 396 145 L 340 203 C 326 196 312 190 297 186 C 282 182 266 180 250 180 C 233 180 217 182 202 186 C 187 190 173 196 160 203 L 104 145 L 53 196 L 105 251 C 94 265 85 280 79 298 C 73 316 70 334 70 354 C 70 373 73 392 80 410 C 86 428 95 444 106 459 L 53 514 L 102 563 L 159 504 C 172 511 186 517 202 521 C 217 525 233 528 250 528 C 266 528 282 525 298 521 C 314 517 328 511 342 503 L 400 564 L 449 513 L 395 456 C 405 442 414 426 420 408 C 426 390 429 372 429 354 C 429 334 425 316 419 298 C 413 280 404 263 393 249 L 446 194 Z M 250 264 C 275 264 297 273 317 291 C 336 309 346 330 346 354 C 346 378 336 399 317 417 C 297 435 275 444 250 444 C 223 444 200 435 182 417 C 164 399 155 378 155 354 C 155 330 164 309 182 291 C 200 273 223 264 250 264 Z" unicode="¤" />
<glyph horiz-adv-x="613" d="M 539 114 L 367 114 L 367 0 L 237 0 L 237 114 L 71 114 L 71 198 L 237 198 L 237 248 L 70 248 L 70 331 L 233 331 L 17 730 L 157 730 L 308 438 L 461 730 L 593 730 L 374 331 L 539 331 L 539 248 L 367 248 L 367 198 L 539 198 L 539 114 Z" unicode="¥" />
<glyph horiz-adv-x="284" d="M 91 351 L 91 730 L 194 730 L 194 351 L 91 351 Z M 194 200 L 194 -179 L 91 -179 L 91 200 L 194 200 Z" unicode="¦" />
<glyph horiz-adv-x="635" d="M 336 -181 C 280 -181 227 -174 179 -161 C 130 -147 89 -130 56 -108 L 104 -9 C 135 -29 171 -47 213 -61 C 254 -75 292 -83 326 -83 C 356 -83 380 -75 398 -61 C 416 -47 425 -27 425 -2 C 425 21 416 39 400 52 C 383 64 359 77 328 90 L 232 132 C 200 145 173 157 149 169 C 125 180 105 192 89 206 C 73 219 61 234 53 252 C 45 270 41 292 41 318 C 41 348 48 374 63 395 C 78 415 96 433 118 447 C 99 459 85 476 77 496 C 69 516 65 541 65 570 C 65 597 71 621 83 643 C 95 664 113 682 135 697 C 157 711 183 722 213 730 C 243 738 275 742 311 742 C 371 742 421 733 460 717 C 498 700 530 683 556 665 L 501 574 C 472 593 442 610 412 625 C 382 640 347 648 308 648 C 274 648 246 641 224 627 C 202 613 192 594 192 570 C 192 552 199 536 214 524 C 229 512 252 500 283 489 L 409 436 C 469 414 514 391 545 366 C 575 340 591 304 591 256 C 591 222 580 193 558 171 C 536 148 510 133 480 127 C 496 117 513 101 530 79 C 546 57 555 30 555 -2 C 555 -30 549 -55 538 -77 C 526 -99 511 -118 492 -134 C 472 -149 449 -161 422 -169 C 395 -177 366 -181 336 -181 Z M 393 185 C 411 187 428 193 443 203 C 457 212 465 227 465 248 C 465 268 455 285 437 299 C 418 313 384 329 336 347 L 221 396 C 204 389 190 381 180 371 C 169 361 164 346 164 328 C 164 306 173 288 193 274 C 212 260 246 245 294 227 L 393 185 Z" unicode="§" />
<glyph horiz-adv-x="500" d="M 391 551 L 292 551 L 292 711 L 391 711 L 391 551 Z M 208 551 L 109 551 L 109 711 L 208 711 L 208 551 Z" unicode="¨" />
<glyph horiz-adv-x="835" d="M 417 1 C 366 1 318 10 273 30 C 227 50 188 76 155 110 C 121 143 95 182 75 227 C 55 272 46 320 46 371 C 46 421 55 469 75 515 C 95 560 121 599 155 633 C 188 666 227 692 273 712 C 318 732 366 742 417 742 C 467 742 515 732 561 712 C 606 692 645 666 679 633 C 712 599 738 560 758 515 C 778 469 788 421 788 371 C 788 320 778 272 758 227 C 738 182 712 143 679 110 C 645 76 606 50 561 30 C 515 10 467 1 417 1 Z M 417 72 C 457 72 496 79 532 95 C 568 111 600 132 627 159 C 653 186 674 218 690 254 C 706 290 714 329 714 370 C 714 411 706 450 690 486 C 674 522 653 554 627 581 C 600 608 568 630 532 646 C 496 662 457 670 417 670 C 376 670 337 662 301 646 C 265 630 233 608 207 581 C 180 554 159 522 143 486 C 127 450 120 411 120 370 C 120 329 127 290 143 254 C 159 218 180 186 207 159 C 233 132 265 111 301 95 C 337 79 376 72 417 72 Z M 589 246 C 573 221 551 200 523 183 C 494 165 458 157 416 157 C 389 157 363 161 339 171 C 315 180 293 194 275 212 C 257 230 242 252 231 279 C 220 305 215 336 215 372 C 215 406 220 437 230 465 C 240 493 254 516 272 536 C 290 555 311 570 335 580 C 359 590 384 595 412 595 C 457 595 493 587 521 571 C 549 555 570 535 586 511 L 506 453 C 497 466 485 477 471 486 C 457 495 438 500 416 500 C 387 500 363 487 344 463 C 325 438 316 407 316 369 C 316 329 326 299 347 277 C 367 255 391 245 417 245 C 438 245 457 250 473 260 C 489 270 502 282 513 298 L 589 246 Z" unicode="©" />
<glyph horiz-adv-x="464" d="M 417 314 L 321 314 L 321 367 C 307 347 287 333 261 323 C 235 313 207 308 177 308 C 133 308 98 319 73 343 C 48 367 36 399 36 441 C 36 485 53 520 89 544 C 125 568 175 581 239 584 L 318 589 L 318 595 C 318 612 311 625 297 635 C 283 645 262 650 234 650 C 210 650 186 646 163 638 C 139 630 117 619 97 607 L 59 683 C 81 699 108 713 141 725 C 173 737 210 743 252 743 C 304 743 344 731 373 707 C 402 683 417 645 417 592 L 417 314 Z M 319 440 L 319 512 L 233 508 C 205 507 183 502 166 493 C 148 484 140 469 140 447 C 140 430 146 417 160 408 C 173 398 191 394 213 394 C 233 394 253 398 273 406 C 292 414 307 425 319 440 Z M 426 180 L 43 180 L 43 270 L 426 270 L 426 180 Z" unicode="ª" />
<glyph horiz-adv-x="474" d="M 221 76 L 26 253 L 26 329 L 221 503 L 221 381 L 130 289 L 221 202 L 221 76 Z M 445 76 L 249 253 L 249 329 L 445 503 L 445 381 L 354 289 L 445 203 L 445 76 Z" unicode="«" />
<glyph horiz-adv-x="494" d="M 449 402 L 449 134 L 348 134 L 348 300 L 29 300 L 29 402 L 449 402 Z" unicode="¬" />
<glyph horiz-adv-x="835" d="M 417 1 C 366 1 318 10 273 30 C 227 50 188 76 155 110 C 121 143 95 182 75 227 C 55 272 46 320 46 371 C 46 421 55 469 75 515 C 95 560 121 599 155 633 C 188 666 227 692 273 712 C 318 732 366 742 417 742 C 467 742 515 732 561 712 C 606 692 645 666 679 633 C 712 599 738 560 758 515 C 778 469 788 421 788 371 C 788 320 778 272 758 227 C 738 182 712 143 679 110 C 645 76 606 50 561 30 C 515 10 467 1 417 1 Z M 417 72 C 457 72 496 79 532 95 C 568 110 600 131 627 158 C 653 184 674 216 690 253 C 706 289 714 329 714 371 C 714 413 706 452 690 489 C 674 525 653 557 627 584 C 600 610 568 631 532 647 C 496 662 457 670 417 670 C 376 670 337 662 301 646 C 265 630 233 609 207 583 C 180 556 159 524 143 488 C 127 451 120 412 120 371 C 120 329 127 290 143 254 C 159 217 180 185 207 159 C 233 132 265 111 301 95 C 337 79 376 72 417 72 Z M 272 164 L 272 596 L 438 596 C 456 596 473 593 491 589 C 509 584 524 577 538 567 C 552 557 563 544 571 529 C 579 513 584 495 584 474 C 584 436 574 407 554 389 C 534 370 514 359 493 355 L 492 351 L 623 164 L 519 164 L 411 327 L 363 327 L 363 164 L 272 164 Z M 363 403 L 438 403 C 452 403 465 408 477 418 C 489 428 495 444 495 464 C 495 484 488 499 476 507 C 463 515 448 519 430 519 L 363 519 L 363 403 Z" unicode="®" />
<glyph horiz-adv-x="500" d="M 385 563 L 115 563 L 115 657 L 385 657 L 385 563 Z" unicode="¯" />
<glyph horiz-adv-x="430" d="M 215 372 C 189 372 165 376 143 386 C 120 396 100 409 84 426 C 67 442 54 462 44 485 C 34 507 30 531 30 557 C 30 582 34 606 44 629 C 54 651 67 671 84 688 C 100 704 120 717 143 727 C 165 737 189 742 215 742 C 240 742 264 737 287 727 C 309 717 329 704 346 688 C 362 671 375 651 385 629 C 395 606 400 582 400 557 C 400 531 395 507 385 485 C 375 462 362 442 346 426 C 329 409 309 396 287 386 C 264 376 240 372 215 372 Z M 215 461 C 241 461 264 470 284 489 C 303 508 313 531 313 557 C 313 583 303 606 284 625 C 264 644 241 654 215 654 C 188 654 165 644 146 625 C 126 606 117 583 117 557 C 117 531 126 508 146 489 C 165 470 188 461 215 461 Z" unicode="°" />
<glyph horiz-adv-x="494" d="M 468 109 L 468 19 L 27 19 L 27 109 L 197 109 L 197 285 L 22 285 L 22 376 L 197 376 L 197 554 L 298 554 L 298 376 L 471 376 L 471 285 L 298 285 L 298 109 L 468 109 Z" unicode="±" />
<glyph horiz-adv-x="341" d="M 314 372 L 22 372 L 22 406 L 177 566 C 183 572 188 579 193 587 C 197 595 200 605 200 617 C 200 627 196 637 189 646 C 181 654 170 659 156 659 C 137 659 124 653 118 642 C 111 631 107 618 107 604 L 17 604 C 17 642 30 675 57 701 C 83 727 120 741 167 741 C 212 741 246 731 269 711 C 291 691 303 666 303 638 C 303 611 298 589 289 572 C 280 554 270 540 259 529 L 185 453 L 314 453 L 314 372 Z" unicode="²" />
<glyph horiz-adv-x="346" d="M 230 569 C 256 564 276 553 292 537 C 307 520 315 500 315 477 C 315 465 312 452 308 439 C 303 426 295 414 283 403 C 271 391 256 382 236 375 C 216 367 191 364 161 364 C 117 364 84 369 60 379 C 36 389 18 400 6 410 L 57 464 C 67 457 80 451 95 445 C 110 439 129 437 151 437 C 178 437 197 442 208 452 C 219 462 225 474 225 490 C 225 506 217 516 203 521 C 189 525 172 528 152 528 L 81 528 L 81 598 L 146 598 C 164 598 178 600 190 606 C 201 612 207 621 207 633 C 207 643 202 651 193 657 C 183 663 170 666 152 666 C 135 666 119 662 103 656 C 87 650 75 643 67 635 L 18 687 C 30 699 48 712 70 724 C 92 736 125 742 167 742 C 207 742 239 733 263 717 C 287 701 300 678 300 650 C 300 629 292 611 278 597 C 264 583 248 573 230 569 Z" unicode="³" />
<glyph horiz-adv-x="500" d="M 136 553 L 235 718 L 376 718 L 255 553 L 136 553 Z" unicode="´" />
<glyph horiz-adv-x="588" d="M 66 -126 L 66 499 L 184 499 L 184 172 C 184 147 193 127 213 111 C 233 95 257 88 286 88 C 315 88 341 97 365 116 C 389 135 401 161 401 195 L 401 499 L 519 499 L 519 0 L 410 0 L 410 85 C 398 61 379 40 351 23 C 323 5 293 -3 262 -5 C 243 -5 225 -2 209 5 C 193 12 181 22 175 36 L 175 -126 L 66 -126 Z" unicode="µ" />
<glyph horiz-adv-x="659" d="M 599 -180 L 520 -179 L 520 635 L 432 635 L 432 -179 L 352 -179 L 352 260 L 256 260 C 226 260 196 266 168 279 C 140 291 115 308 94 329 C 72 350 55 375 42 403 C 29 431 23 460 23 492 C 23 525 29 556 41 586 C 53 615 70 640 92 661 C 114 682 140 699 172 711 C 203 723 237 730 275 730 L 599 730 L 599 -180 Z M 353 359 L 353 631 L 306 631 C 266 631 235 618 213 592 C 191 566 180 534 180 495 C 180 458 190 426 212 399 C 234 372 262 359 298 359 L 353 359 Z" unicode="¶" />
<glyph horiz-adv-x="274" d="M 198 263 L 77 263 L 77 411 L 198 411 L 198 263 Z" unicode="·" />
<glyph horiz-adv-x="500" d="M 256 -188 C 231 -188 206 -185 182 -179 C 158 -173 139 -165 125 -156 L 143 -106 C 151 -110 162 -115 176 -120 C 190 -125 206 -128 222 -128 C 233 -128 243 -125 252 -120 C 261 -114 266 -107 266 -99 C 266 -88 262 -81 254 -77 C 246 -73 237 -71 229 -71 C 222 -71 216 -71 211 -72 C 206 -73 201 -75 196 -77 L 180 -59 L 240 14 L 309 14 L 262 -45 C 294 -40 320 -44 341 -56 C 361 -68 372 -87 372 -111 C 372 -136 360 -155 337 -168 C 313 -181 286 -188 256 -188 Z" unicode="¸" />
<glyph horiz-adv-x="321" d="M 132 372 L 132 621 C 128 615 122 610 114 606 C 106 602 98 598 90 595 C 81 591 72 588 64 586 C 56 584 49 582 44 582 L 44 678 C 68 680 90 686 109 696 C 127 706 147 720 168 740 L 236 740 L 236 372 L 132 372 Z" unicode="¹" />
<glyph horiz-adv-x="466" d="M 229 306 C 203 306 177 310 153 320 C 129 330 107 344 89 362 C 70 380 55 402 44 429 C 32 456 27 487 27 521 C 27 551 32 580 44 607 C 55 633 70 656 88 676 C 106 696 128 711 153 723 C 178 734 204 740 231 740 C 259 740 286 735 312 725 C 338 715 360 702 378 684 C 396 666 411 644 422 618 C 433 592 439 564 439 532 C 439 498 433 468 422 440 C 410 412 395 388 376 368 C 357 348 335 333 310 322 C 284 311 257 306 229 306 Z M 230 398 C 262 398 288 410 308 434 C 327 458 337 490 337 530 C 337 566 327 594 309 616 C 291 638 265 649 233 649 C 201 649 176 637 157 613 C 138 589 129 557 129 517 C 129 481 138 452 157 430 C 175 408 200 398 230 398 Z M 42 180 L 42 270 L 423 270 L 423 180 L 42 180 Z" unicode="º" />
<glyph horiz-adv-x="476" d="M 29 503 L 226 326 L 226 251 L 29 77 L 29 199 L 120 290 L 29 376 L 29 503 Z M 255 503 L 450 326 L 450 251 L 255 77 L 255 199 L 346 290 L 255 377 L 255 503 Z" unicode="»" />
<glyph horiz-adv-x="700" d="M 9 0 L 9 0 Z M 97 372 L 97 621 C 93 615 87 610 79 606 C 71 602 63 598 55 595 C 46 591 37 588 29 586 C 21 584 14 582 9 582 L 9 678 C 33 680 55 686 74 696 C 92 706 112 720 133 740 L 201 740 L 201 372 L 97 372 Z M 582 730 L 228 0 L 130 0 L 484 730 L 582 730 Z M 388 80 L 388 147 L 570 364 L 635 364 L 635 151 L 692 151 L 692 80 L 635 80 L 635 1 L 543 1 L 543 80 L 388 80 Z M 468 142 L 545 142 L 545 236 L 468 142 Z" unicode="¼" />
<glyph horiz-adv-x="770" d="M 9 0 L 9 0 Z M 97 372 L 97 621 C 93 615 87 610 79 606 C 71 602 63 598 55 595 C 46 591 37 588 29 586 C 21 584 14 582 9 582 L 9 678 C 33 680 55 686 74 696 C 92 706 112 720 133 740 L 201 740 L 201 372 L 97 372 Z M 582 730 L 228 0 L 130 0 L 484 730 L 582 730 Z M 749 0 L 457 0 L 457 34 L 612 194 C 618 200 623 207 628 215 C 632 223 635 233 635 245 C 635 255 631 265 624 274 C 616 282 605 287 591 287 C 572 287 559 281 553 270 C 546 259 542 246 542 232 L 452 232 C 452 270 465 303 492 329 C 518 355 555 369 602 369 C 647 369 681 359 704 339 C 726 319 738 294 738 266 C 738 239 733 217 724 200 C 715 182 705 168 694 157 L 620 81 L 749 81 L 749 0 Z" unicode="½" />
<glyph horiz-adv-x="756" d="M 8 0 L 8 0 Z M 638 730 L 284 0 L 186 0 L 540 730 L 638 730 Z M 444 80 L 444 147 L 626 364 L 691 364 L 691 151 L 748 151 L 748 80 L 691 80 L 691 1 L 599 1 L 599 80 L 444 80 Z M 524 142 L 601 142 L 601 236 L 524 142 Z M 232 569 C 258 564 278 553 294 537 C 309 520 317 500 317 477 C 317 465 314 452 310 439 C 305 426 297 414 285 403 C 273 391 258 382 238 375 C 218 367 193 364 163 364 C 119 364 86 369 62 379 C 38 389 20 400 8 410 L 59 464 C 69 457 82 451 97 445 C 112 439 131 437 153 437 C 180 437 199 442 210 452 C 221 462 227 474 227 490 C 227 506 219 516 205 521 C 191 525 174 528 154 528 L 83 528 L 83 598 L 148 598 C 166 598 180 600 192 606 C 203 612 209 621 209 633 C 209 643 204 651 195 657 C 185 663 172 666 154 666 C 137 666 121 662 105 656 C 89 650 77 643 69 635 L 20 687 C 32 699 50 712 72 724 C 94 736 127 742 169 742 C 209 742 241 733 265 717 C 289 701 302 678 302 650 C 302 629 294 611 280 597 C 266 583 250 573 232 569 Z" unicode="¾" />
<glyph horiz-adv-x="467" d="M 183 456 L 183 587 L 318 587 L 318 456 L 183 456 Z M 236 -150 C 172 -150 119 -133 79 -101 C 38 -69 18 -25 18 31 C 18 57 21 80 29 100 C 36 120 45 138 57 154 C 68 170 80 184 94 197 C 108 209 121 221 134 232 C 158 250 173 272 181 297 C 189 321 193 346 194 371 L 313 371 C 313 327 307 291 296 264 C 285 236 265 210 236 186 C 212 166 191 146 173 126 C 155 106 146 80 146 49 C 146 20 156 -2 176 -18 C 196 -34 222 -43 253 -43 C 280 -43 305 -36 327 -23 C 349 -9 366 6 380 25 L 458 -49 C 436 -77 406 -101 368 -121 C 330 -140 286 -150 236 -150 Z" unicode="¿" />
<glyph horiz-adv-x="610" d="M 0 0 L 0 0 Z M 611 0 L 479 0 L 422 158 L 179 158 L 125 0 L -1 0 L 266 733 L 350 733 L 611 0 Z M 394 259 L 300 524 L 208 259 L 394 259 Z M 303 786 L 303 786 Z M 423 786 L 304 786 L 182 951 L 323 951 L 423 786 Z" unicode="À" />
<glyph horiz-adv-x="610" d="M 0 0 L 0 0 Z M 611 0 L 479 0 L 422 158 L 179 158 L 125 0 L -1 0 L 266 733 L 350 733 L 611 0 Z M 394 259 L 300 524 L 208 259 L 394 259 Z M 303 789 L 303 789 Z M 183 789 L 282 954 L 423 954 L 302 789 L 183 789 Z" unicode="Á" />
<glyph horiz-adv-x="610" d="M 0 0 L 0 0 Z M 611 0 L 479 0 L 422 158 L 179 158 L 125 0 L -1 0 L 266 733 L 350 733 L 611 0 Z M 394 259 L 300 524 L 208 259 L 394 259 Z M 303 787 L 303 787 Z M 476 787 L 369 787 L 303 881 L 236 787 L 131 787 L 246 959 L 361 959 L 476 787 Z" unicode="Â" />
<glyph horiz-adv-x="610" d="M 0 0 L 0 0 Z M 611 0 L 479 0 L 422 158 L 179 158 L 125 0 L -1 0 L 266 733 L 350 733 L 611 0 Z M 394 259 L 300 524 L 208 259 L 394 259 Z M 303 791 L 303 791 Z M 384 938 L 475 938 C 475 888 467 851 452 827 C 437 803 417 791 393 791 C 374 791 358 794 344 800 C 330 806 318 813 308 819 C 298 825 289 831 280 837 C 271 843 262 846 254 846 C 245 846 238 841 232 832 C 226 822 224 810 224 794 L 133 794 C 133 843 143 880 163 904 C 183 928 204 941 226 941 C 243 941 258 937 270 931 C 282 925 294 918 305 911 C 313 904 322 898 330 893 C 338 888 345 886 353 886 C 360 886 367 890 373 899 C 379 908 383 921 384 938 Z" unicode="Ã" />
<glyph horiz-adv-x="610" d="M 0 0 L 0 0 Z M 611 0 L 479 0 L 422 158 L 179 158 L 125 0 L -1 0 L 266 733 L 350 733 L 611 0 Z M 394 259 L 300 524 L 208 259 L 394 259 Z M 303 787 L 303 787 Z M 444 787 L 345 787 L 345 947 L 444 947 L 444 787 Z M 261 787 L 162 787 L 162 947 L 261 947 L 261 787 Z" unicode="Ä" />
<glyph horiz-adv-x="610" d="M 0 0 L 0 0 Z M 611 0 L 479 0 L 422 158 L 179 158 L 125 0 L -1 0 L 266 733 L 350 733 L 611 0 Z M 394 259 L 300 524 L 208 259 L 394 259 Z M 303 780 L 303 780 Z M 303 780 C 269 780 241 791 217 815 C 193 839 182 868 182 902 C 182 935 193 963 217 987 C 241 1011 269 1023 303 1023 C 337 1023 365 1011 389 987 C 413 963 425 935 425 902 C 425 868 413 839 389 815 C 365 791 337 780 303 780 Z M 303 848 C 317 848 330 853 340 864 C 350 874 355 887 355 902 C 355 916 350 929 340 939 C 330 949 317 955 303 955 C 288 955 276 949 266 939 C 256 929 251 916 251 902 C 251 887 256 874 266 864 C 276 853 288 848 303 848 Z" unicode="Å" />
<glyph horiz-adv-x="909" d="M 873 0 L 461 0 L 461 212 L 234 212 L 112 0 L -20 0 L 391 730 L 854 730 L 854 619 L 582 619 L 582 416 L 840 416 L 840 308 L 582 308 L 582 111 L 873 111 L 873 0 Z M 461 316 L 461 636 L 287 316 L 461 316 Z" unicode="Æ" />
<glyph horiz-adv-x="653" d="M 39 0 L 39 0 Z M 363 -10 C 317 -10 274 -1 234 15 C 194 31 160 55 132 87 C 103 119 80 158 64 205 C 47 251 39 305 39 365 C 39 421 46 472 62 518 C 78 564 100 604 129 637 C 157 669 192 695 232 713 C 272 731 316 740 364 740 C 430 740 483 728 525 705 C 567 681 600 650 626 610 L 530 538 C 513 562 492 582 466 599 C 440 615 408 624 368 624 C 305 624 256 601 222 557 C 188 512 171 448 171 365 C 171 318 176 278 188 245 C 199 211 214 184 233 164 C 251 143 273 128 298 118 C 322 108 348 104 374 104 C 416 104 450 113 478 131 C 506 149 529 172 547 201 L 637 139 C 612 95 576 59 530 31 C 484 3 428 -10 363 -10 Z M 354 -3 L 354 -3 Z M 361 -191 C 336 -191 311 -188 287 -182 C 263 -176 244 -168 230 -159 L 248 -109 C 256 -113 267 -118 281 -123 C 295 -128 311 -131 327 -131 C 338 -131 348 -128 357 -123 C 366 -117 371 -110 371 -102 C 371 -91 367 -84 359 -80 C 351 -76 342 -74 334 -74 C 327 -74 321 -74 316 -75 C 311 -76 306 -78 301 -80 L 285 -62 L 345 11 L 414 11 L 367 -48 C 399 -43 425 -47 446 -59 C 466 -71 477 -90 477 -114 C 477 -139 465 -158 442 -171 C 418 -184 391 -191 361 -191 Z" unicode="Ç" />
<glyph horiz-adv-x="533" d="M 77 0 L 77 0 Z M 496 0 L 77 0 L 77 730 L 478 730 L 478 617 L 204 617 L 204 418 L 462 418 L 462 307 L 204 307 L 204 113 L 496 113 L 496 0 Z M 281 786 L 281 786 Z M 401 786 L 282 786 L 160 951 L 301 951 L 401 786 Z" unicode="È" />
<glyph horiz-adv-x="533" d="M 77 0 L 77 0 Z M 496 0 L 77 0 L 77 730 L 478 730 L 478 617 L 204 617 L 204 418 L 462 418 L 462 307 L 204 307 L 204 113 L 496 113 L 496 0 Z M 281 789 L 281 789 Z M 161 789 L 260 954 L 401 954 L 280 789 L 161 789 Z" unicode="É" />
<glyph horiz-adv-x="533" d="M 77 0 L 77 0 Z M 496 0 L 77 0 L 77 730 L 478 730 L 478 617 L 204 617 L 204 418 L 462 418 L 462 307 L 204 307 L 204 113 L 496 113 L 496 0 Z M 281 787 L 281 787 Z M 454 787 L 347 787 L 281 881 L 214 787 L 109 787 L 224 959 L 339 959 L 454 787 Z" unicode="Ê" />
<glyph horiz-adv-x="533" d="M 77 0 L 77 0 Z M 496 0 L 77 0 L 77 730 L 478 730 L 478 617 L 204 617 L 204 418 L 462 418 L 462 307 L 204 307 L 204 113 L 496 113 L 496 0 Z M 281 787 L 281 787 Z M 422 787 L 323 787 L 323 947 L 422 947 L 422 787 Z M 239 787 L 140 787 L 140 947 L 239 947 L 239 787 Z" unicode="Ë" />
<glyph horiz-adv-x="292" d="M 25 0 L 25 0 Z M 212 0 L 81 0 L 81 730 L 212 730 L 212 0 Z M 146 786 L 146 786 Z M 266 786 L 147 786 L 25 951 L 166 951 L 266 786 Z" unicode="Ì" />
<glyph horiz-adv-x="292" d="M 26 0 L 26 0 Z M 212 0 L 81 0 L 81 730 L 212 730 L 212 0 Z M 146 789 L 146 789 Z M 26 789 L 125 954 L 266 954 L 145 789 L 26 789 Z" unicode="Í" />
<glyph horiz-adv-x="292" d="M 0 0 L 0 0 Z M 212 0 L 81 0 L 81 730 L 212 730 L 212 0 Z M 146 787 L 146 787 Z M 319 787 L 212 787 L 146 881 L 79 787 L -26 787 L 89 959 L 204 959 L 319 787 Z" unicode="Î" />
<glyph horiz-adv-x="292" d="M 5 0 L 5 0 Z M 212 0 L 81 0 L 81 730 L 212 730 L 212 0 Z M 146 787 L 146 787 Z M 287 787 L 188 787 L 188 947 L 287 947 L 287 787 Z M 104 787 L 5 787 L 5 947 L 104 947 L 104 787 Z" unicode="Ï" />
<glyph horiz-adv-x="686" d="M 646 365 C 646 314 638 266 622 222 C 606 178 583 139 553 106 C 523 73 485 47 439 28 C 393 9 341 0 281 0 L 77 0 L 77 309 L 27 309 L 27 406 L 77 406 L 77 730 L 295 730 C 351 730 402 721 446 704 C 490 686 526 662 556 630 C 585 598 607 560 623 515 C 638 469 646 419 646 365 Z M 204 103 L 281 103 C 323 103 358 109 388 123 C 417 137 441 155 460 179 C 478 203 492 230 500 262 C 508 294 513 327 513 363 C 513 447 494 512 456 558 C 418 603 364 626 296 626 L 204 626 L 204 406 L 347 406 L 347 309 L 204 309 L 204 103 Z" unicode="Ð" />
<glyph horiz-adv-x="700" d="M 77 0 L 77 0 Z M 623 0 L 533 0 L 199 479 L 199 0 L 77 0 L 77 730 L 173 730 L 504 255 L 503 730 L 623 730 L 623 0 Z M 350 791 L 350 791 Z M 431 938 L 522 938 C 522 888 514 851 499 827 C 484 803 464 791 440 791 C 421 791 405 794 391 800 C 377 806 365 813 355 819 C 345 825 336 831 327 837 C 318 843 309 846 301 846 C 292 846 285 841 279 832 C 273 822 271 810 271 794 L 180 794 C 180 843 190 880 210 904 C 230 928 251 941 273 941 C 290 941 305 937 317 931 C 329 925 341 918 352 911 C 360 904 369 898 377 893 C 385 888 392 886 400 886 C 407 886 414 890 420 899 C 426 908 430 921 431 938 Z" unicode="Ñ" />
<glyph horiz-adv-x="747" d="M 39 0 L 39 0 Z M 376 -10 C 324 -10 277 0 235 17 C 193 35 158 61 129 94 C 100 127 78 167 62 214 C 46 261 39 313 39 370 C 39 424 47 474 64 520 C 80 566 103 605 133 637 C 162 669 197 695 237 713 C 277 731 321 740 369 740 C 419 740 466 731 508 714 C 550 696 585 672 615 640 C 644 608 667 568 683 522 C 699 476 708 424 708 367 C 708 310 699 258 682 212 C 664 165 641 125 611 93 C 581 60 546 35 506 17 C 465 -1 422 -10 376 -10 Z M 378 102 C 436 102 483 124 520 169 C 557 213 576 280 576 369 C 576 450 556 513 518 558 C 479 603 429 626 369 626 C 310 626 262 604 226 561 C 189 518 171 454 171 368 C 171 324 176 285 186 252 C 196 218 211 191 229 169 C 247 147 269 130 295 119 C 321 107 348 102 378 102 Z M 371 786 L 371 786 Z M 491 786 L 372 786 L 250 951 L 391 951 L 491 786 Z" unicode="Ò" />
<glyph horiz-adv-x="747" d="M 39 0 L 39 0 Z M 376 -10 C 324 -10 277 0 235 17 C 193 35 158 61 129 94 C 100 127 78 167 62 214 C 46 261 39 313 39 370 C 39 424 47 474 64 520 C 80 566 103 605 133 637 C 162 669 197 695 237 713 C 277 731 321 740 369 740 C 419 740 466 731 508 714 C 550 696 585 672 615 640 C 644 608 667 568 683 522 C 699 476 708 424 708 367 C 708 310 699 258 682 212 C 664 165 641 125 611 93 C 581 60 546 35 506 17 C 465 -1 422 -10 376 -10 Z M 378 102 C 436 102 483 124 520 169 C 557 213 576 280 576 369 C 576 450 556 513 518 558 C 479 603 429 626 369 626 C 310 626 262 604 226 561 C 189 518 171 454 171 368 C 171 324 176 285 186 252 C 196 218 211 191 229 169 C 247 147 269 130 295 119 C 321 107 348 102 378 102 Z M 371 789 L 371 789 Z M 251 789 L 350 954 L 491 954 L 370 789 L 251 789 Z" unicode="Ó" />
<glyph horiz-adv-x="747" d="M 39 0 L 39 0 Z M 376 -10 C 324 -10 277 0 235 17 C 193 35 158 61 129 94 C 100 127 78 167 62 214 C 46 261 39 313 39 370 C 39 424 47 474 64 520 C 80 566 103 605 133 637 C 162 669 197 695 237 713 C 277 731 321 740 369 740 C 419 740 466 731 508 714 C 550 696 585 672 615 640 C 644 608 667 568 683 522 C 699 476 708 424 708 367 C 708 310 699 258 682 212 C 664 165 641 125 611 93 C 581 60 546 35 506 17 C 465 -1 422 -10 376 -10 Z M 378 102 C 436 102 483 124 520 169 C 557 213 576 280 576 369 C 576 450 556 513 518 558 C 479 603 429 626 369 626 C 310 626 262 604 226 561 C 189 518 171 454 171 368 C 171 324 176 285 186 252 C 196 218 211 191 229 169 C 247 147 269 130 295 119 C 321 107 348 102 378 102 Z M 371 787 L 371 787 Z M 544 787 L 437 787 L 371 881 L 304 787 L 199 787 L 314 959 L 429 959 L 544 787 Z" unicode="Ô" />
<glyph horiz-adv-x="747" d="M 39 0 L 39 0 Z M 376 -10 C 324 -10 277 0 235 17 C 193 35 158 61 129 94 C 100 127 78 167 62 214 C 46 261 39 313 39 370 C 39 424 47 474 64 520 C 80 566 103 605 133 637 C 162 669 197 695 237 713 C 277 731 321 740 369 740 C 419 740 466 731 508 714 C 550 696 585 672 615 640 C 644 608 667 568 683 522 C 699 476 708 424 708 367 C 708 310 699 258 682 212 C 664 165 641 125 611 93 C 581 60 546 35 506 17 C 465 -1 422 -10 376 -10 Z M 378 102 C 436 102 483 124 520 169 C 557 213 576 280 576 369 C 576 450 556 513 518 558 C 479 603 429 626 369 626 C 310 626 262 604 226 561 C 189 518 171 454 171 368 C 171 324 176 285 186 252 C 196 218 211 191 229 169 C 247 147 269 130 295 119 C 321 107 348 102 378 102 Z M 371 791 L 371 791 Z M 452 938 L 543 938 C 543 888 535 851 520 827 C 505 803 485 791 461 791 C 442 791 426 794 412 800 C 398 806 386 813 376 819 C 366 825 357 831 348 837 C 339 843 330 846 322 846 C 313 846 306 841 300 832 C 294 822 292 810 292 794 L 201 794 C 201 843 211 880 231 904 C 251 928 272 941 294 941 C 311 941 326 937 338 931 C 350 925 362 918 373 911 C 381 904 390 898 398 893 C 406 888 413 886 421 886 C 428 886 435 890 441 899 C 447 908 451 921 452 938 Z" unicode="Õ" />
<glyph horiz-adv-x="747" d="M 39 0 L 39 0 Z M 376 -10 C 324 -10 277 0 235 17 C 193 35 158 61 129 94 C 100 127 78 167 62 214 C 46 261 39 313 39 370 C 39 424 47 474 64 520 C 80 566 103 605 133 637 C 162 669 197 695 237 713 C 277 731 321 740 369 740 C 419 740 466 731 508 714 C 550 696 585 672 615 640 C 644 608 667 568 683 522 C 699 476 708 424 708 367 C 708 310 699 258 682 212 C 664 165 641 125 611 93 C 581 60 546 35 506 17 C 465 -1 422 -10 376 -10 Z M 378 102 C 436 102 483 124 520 169 C 557 213 576 280 576 369 C 576 450 556 513 518 558 C 479 603 429 626 369 626 C 310 626 262 604 226 561 C 189 518 171 454 171 368 C 171 324 176 285 186 252 C 196 218 211 191 229 169 C 247 147 269 130 295 119 C 321 107 348 102 378 102 Z M 371 787 L 371 787 Z M 512 787 L 413 787 L 413 947 L 512 947 L 512 787 Z M 329 787 L 230 787 L 230 947 L 329 947 L 329 787 Z" unicode="Ö" />
<glyph horiz-adv-x="494" d="M 116 133 L 50 199 L 181 330 L 51 460 L 117 527 L 247 397 L 378 527 L 444 460 L 313 330 L 445 199 L 378 131 L 247 265 L 116 133 Z" unicode="×" />
<glyph horiz-adv-x="747" d="M 708 367 C 708 310 699 258 682 212 C 664 165 641 125 611 93 C 581 60 546 35 506 17 C 465 -1 422 -10 376 -10 C 332 -10 291 -3 254 10 C 216 23 184 42 156 67 L 93 -5 L 37 44 L 107 123 C 85 155 68 191 56 233 C 44 275 39 320 39 370 C 39 424 47 474 64 520 C 80 566 103 605 133 637 C 162 669 197 695 237 713 C 277 731 321 740 369 740 C 412 740 452 733 489 721 C 525 708 558 690 587 667 L 661 751 L 716 702 L 637 613 C 659 581 677 545 689 504 C 701 462 708 417 708 367 Z M 171 368 C 171 339 173 313 177 289 C 181 265 188 243 196 225 L 504 574 C 486 590 466 603 443 612 C 420 621 395 626 369 626 C 310 626 262 604 226 561 C 189 518 171 454 171 368 Z M 576 369 C 576 397 573 423 568 447 C 563 471 556 492 548 511 L 238 160 C 256 140 277 126 301 116 C 325 106 350 102 378 102 C 436 102 483 124 520 169 C 557 213 576 280 576 369 Z" unicode="Ø" />
<glyph horiz-adv-x="685" d="M 72 0 L 72 0 Z M 613 730 L 613 252 C 613 209 605 171 591 139 C 576 106 556 79 531 57 C 506 35 477 18 444 7 C 410 -4 375 -10 339 -10 C 303 -10 268 -4 236 6 C 203 17 175 33 151 55 C 127 76 107 103 93 136 C 79 169 72 208 72 252 L 72 730 L 199 730 L 199 250 C 199 204 212 168 239 142 C 266 116 300 104 340 104 C 380 104 414 116 442 141 C 470 165 484 202 484 250 L 484 730 L 613 730 Z M 341 786 L 341 786 Z M 461 786 L 342 786 L 220 951 L 361 951 L 461 786 Z" unicode="Ù" />
<glyph horiz-adv-x="685" d="M 72 0 L 72 0 Z M 613 730 L 613 252 C 613 209 605 171 591 139 C 576 106 556 79 531 57 C 506 35 477 18 444 7 C 410 -4 375 -10 339 -10 C 303 -10 268 -4 236 6 C 203 17 175 33 151 55 C 127 76 107 103 93 136 C 79 169 72 208 72 252 L 72 730 L 199 730 L 199 250 C 199 204 212 168 239 142 C 266 116 300 104 340 104 C 380 104 414 116 442 141 C 470 165 484 202 484 250 L 484 730 L 613 730 Z M 341 789 L 341 789 Z M 221 789 L 320 954 L 461 954 L 340 789 L 221 789 Z" unicode="Ú" />
<glyph horiz-adv-x="685" d="M 72 0 L 72 0 Z M 613 730 L 613 252 C 613 209 605 171 591 139 C 576 106 556 79 531 57 C 506 35 477 18 444 7 C 410 -4 375 -10 339 -10 C 303 -10 268 -4 236 6 C 203 17 175 33 151 55 C 127 76 107 103 93 136 C 79 169 72 208 72 252 L 72 730 L 199 730 L 199 250 C 199 204 212 168 239 142 C 266 116 300 104 340 104 C 380 104 414 116 442 141 C 470 165 484 202 484 250 L 484 730 L 613 730 Z M 341 787 L 341 787 Z M 514 787 L 407 787 L 341 881 L 274 787 L 169 787 L 284 959 L 399 959 L 514 787 Z" unicode="Û" />
<glyph horiz-adv-x="685" d="M 72 0 L 72 0 Z M 613 730 L 613 252 C 613 209 605 171 591 139 C 576 106 556 79 531 57 C 506 35 477 18 444 7 C 410 -4 375 -10 339 -10 C 303 -10 268 -4 236 6 C 203 17 175 33 151 55 C 127 76 107 103 93 136 C 79 169 72 208 72 252 L 72 730 L 199 730 L 199 250 C 199 204 212 168 239 142 C 266 116 300 104 340 104 C 380 104 414 116 442 141 C 470 165 484 202 484 250 L 484 730 L 613 730 Z M 341 787 L 341 787 Z M 482 787 L 383 787 L 383 947 L 482 947 L 482 787 Z M 299 787 L 200 787 L 200 947 L 299 947 L 299 787 Z" unicode="Ü" />
<glyph horiz-adv-x="606" d="M 0 0 L 0 0 Z M 610 730 L 365 310 L 365 0 L 235 0 L 235 314 L -4 730 L 139 730 L 307 434 L 477 730 L 610 730 Z M 306 789 L 306 789 Z M 186 789 L 285 954 L 426 954 L 305 789 L 186 789 Z" unicode="Ý" />
<glyph horiz-adv-x="564" d="M 77 0 L 77 730 L 207 730 L 207 606 L 319 606 C 386 606 440 585 482 544 C 523 503 544 449 544 382 C 544 312 522 256 480 214 C 437 171 382 150 315 150 L 207 150 L 207 0 L 77 0 Z M 205 254 L 303 254 C 337 254 365 265 385 288 C 405 310 416 342 416 382 C 416 420 404 450 381 470 C 358 490 330 500 298 500 L 205 500 L 205 254 Z" unicode="Þ" />
<glyph horiz-adv-x="637" d="M 443 -10 C 400 -10 362 -3 329 8 C 295 20 268 37 246 57 L 301 137 C 319 122 340 110 365 101 C 390 92 414 88 436 88 C 455 88 471 92 483 101 C 495 110 502 123 502 139 C 502 155 494 168 478 179 C 462 189 437 201 403 214 C 351 230 314 250 292 274 C 270 298 259 330 259 370 C 259 405 269 433 289 454 C 309 475 331 489 355 496 C 359 498 365 505 372 515 C 379 525 383 545 384 573 C 384 609 375 637 356 656 C 337 674 314 684 286 684 C 259 684 237 675 219 659 C 201 642 193 616 193 580 L 193 0 L 72 0 L 72 593 C 72 623 77 651 88 675 C 98 699 113 718 132 734 C 150 750 172 762 198 770 C 224 778 251 783 281 783 C 311 783 339 778 365 770 C 391 761 414 748 434 732 C 453 715 468 694 480 670 C 491 646 497 618 497 587 C 497 543 489 508 474 482 C 458 456 443 440 429 434 C 412 430 397 424 383 416 C 369 408 361 396 359 382 C 359 366 368 353 386 341 C 404 329 433 317 471 303 C 518 286 554 266 578 242 C 602 218 615 185 615 143 C 615 117 610 95 601 76 C 591 57 579 41 563 29 C 547 16 529 6 508 0 C 487 -6 465 -10 443 -10 Z" unicode="ß" />
<glyph horiz-adv-x="495" d="M 23 0 L 23 0 Z M 443 0 L 332 0 L 332 56 C 316 36 295 21 271 9 C 246 -2 216 -8 180 -8 C 130 -8 91 6 64 34 C 36 62 23 99 23 145 C 23 199 42 240 81 269 C 120 297 173 313 241 317 L 328 322 L 328 335 C 327 359 319 378 305 390 C 290 402 268 409 238 409 C 210 409 183 404 159 394 C 135 384 114 374 98 364 L 56 446 C 76 461 103 475 137 487 C 171 499 211 506 258 506 C 313 506 358 492 392 466 C 426 439 443 397 443 340 L 443 0 Z M 330 133 L 330 238 L 247 234 C 216 232 191 225 172 212 C 152 198 143 179 143 153 C 143 130 150 113 164 102 C 178 90 197 85 219 85 C 243 85 265 89 285 99 C 304 109 319 120 330 133 Z M 243 550 L 243 550 Z M 363 550 L 244 550 L 122 715 L 263 715 L 363 550 Z" unicode="à" />
<glyph horiz-adv-x="495" d="M 23 0 L 23 0 Z M 443 0 L 332 0 L 332 56 C 316 36 295 21 271 9 C 246 -2 216 -8 180 -8 C 130 -8 91 6 64 34 C 36 62 23 99 23 145 C 23 199 42 240 81 269 C 120 297 173 313 241 317 L 328 322 L 328 335 C 327 359 319 378 305 390 C 290 402 268 409 238 409 C 210 409 183 404 159 394 C 135 384 114 374 98 364 L 56 446 C 76 461 103 475 137 487 C 171 499 211 506 258 506 C 313 506 358 492 392 466 C 426 439 443 397 443 340 L 443 0 Z M 330 133 L 330 238 L 247 234 C 216 232 191 225 172 212 C 152 198 143 179 143 153 C 143 130 150 113 164 102 C 178 90 197 85 219 85 C 243 85 265 89 285 99 C 304 109 319 120 330 133 Z M 243 553 L 243 553 Z M 123 553 L 222 718 L 363 718 L 242 553 L 123 553 Z" unicode="á" />
<glyph horiz-adv-x="495" d="M 23 0 L 23 0 Z M 443 0 L 332 0 L 332 56 C 316 36 295 21 271 9 C 246 -2 216 -8 180 -8 C 130 -8 91 6 64 34 C 36 62 23 99 23 145 C 23 199 42 240 81 269 C 120 297 173 313 241 317 L 328 322 L 328 335 C 327 359 319 378 305 390 C 290 402 268 409 238 409 C 210 409 183 404 159 394 C 135 384 114 374 98 364 L 56 446 C 76 461 103 475 137 487 C 171 499 211 506 258 506 C 313 506 358 492 392 466 C 426 439 443 397 443 340 L 443 0 Z M 330 133 L 330 238 L 247 234 C 216 232 191 225 172 212 C 152 198 143 179 143 153 C 143 130 150 113 164 102 C 178 90 197 85 219 85 C 243 85 265 89 285 99 C 304 109 319 120 330 133 Z M 243 551 L 243 551 Z M 416 551 L 309 551 L 243 645 L 176 551 L 71 551 L 186 723 L 301 723 L 416 551 Z" unicode="â" />
<glyph horiz-adv-x="495" d="M 23 0 L 23 0 Z M 443 0 L 332 0 L 332 56 C 316 36 295 21 271 9 C 246 -2 216 -8 180 -8 C 130 -8 91 6 64 34 C 36 62 23 99 23 145 C 23 199 42 240 81 269 C 120 297 173 313 241 317 L 328 322 L 328 335 C 327 359 319 378 305 390 C 290 402 268 409 238 409 C 210 409 183 404 159 394 C 135 384 114 374 98 364 L 56 446 C 76 461 103 475 137 487 C 171 499 211 506 258 506 C 313 506 358 492 392 466 C 426 439 443 397 443 340 L 443 0 Z M 330 133 L 330 238 L 247 234 C 216 232 191 225 172 212 C 152 198 143 179 143 153 C 143 130 150 113 164 102 C 178 90 197 85 219 85 C 243 85 265 89 285 99 C 304 109 319 120 330 133 Z M 243 555 L 243 555 Z M 324 702 L 415 702 C 415 652 407 615 392 591 C 377 567 357 555 333 555 C 314 555 298 558 284 564 C 270 570 258 577 248 583 C 238 589 229 595 220 601 C 211 607 202 610 194 610 C 185 610 178 605 172 596 C 166 586 164 574 164 558 L 73 558 C 73 607 83 644 103 668 C 123 692 144 705 166 705 C 183 705 198 701 210 695 C 222 689 234 682 245 675 C 253 668 262 662 270 657 C 278 652 285 650 293 650 C 300 650 307 654 313 663 C 319 672 323 685 324 702 Z" unicode="ã" />
<glyph horiz-adv-x="495" d="M 23 0 L 23 0 Z M 443 0 L 332 0 L 332 56 C 316 36 295 21 271 9 C 246 -2 216 -8 180 -8 C 130 -8 91 6 64 34 C 36 62 23 99 23 145 C 23 199 42 240 81 269 C 120 297 173 313 241 317 L 328 322 L 328 335 C 327 359 319 378 305 390 C 290 402 268 409 238 409 C 210 409 183 404 159 394 C 135 384 114 374 98 364 L 56 446 C 76 461 103 475 137 487 C 171 499 211 506 258 506 C 313 506 358 492 392 466 C 426 439 443 397 443 340 L 443 0 Z M 330 133 L 330 238 L 247 234 C 216 232 191 225 172 212 C 152 198 143 179 143 153 C 143 130 150 113 164 102 C 178 90 197 85 219 85 C 243 85 265 89 285 99 C 304 109 319 120 330 133 Z M 243 551 L 243 551 Z M 384 551 L 285 551 L 285 711 L 384 711 L 384 551 Z M 201 551 L 102 551 L 102 711 L 201 711 L 201 551 Z" unicode="ä" />
<glyph horiz-adv-x="495" d="M 23 0 L 23 0 Z M 443 0 L 332 0 L 332 56 C 316 36 295 21 271 9 C 246 -2 216 -8 180 -8 C 130 -8 91 6 64 34 C 36 62 23 99 23 145 C 23 199 42 240 81 269 C 120 297 173 313 241 317 L 328 322 L 328 335 C 327 359 319 378 305 390 C 290 402 268 409 238 409 C 210 409 183 404 159 394 C 135 384 114 374 98 364 L 56 446 C 76 461 103 475 137 487 C 171 499 211 506 258 506 C 313 506 358 492 392 466 C 426 439 443 397 443 340 L 443 0 Z M 330 133 L 330 238 L 247 234 C 216 232 191 225 172 212 C 152 198 143 179 143 153 C 143 130 150 113 164 102 C 178 90 197 85 219 85 C 243 85 265 89 285 99 C 304 109 319 120 330 133 Z M 243 544 L 243 544 Z M 243 544 C 209 544 181 555 157 579 C 133 603 122 632 122 666 C 122 699 133 727 157 751 C 181 775 209 787 243 787 C 277 787 305 775 329 751 C 353 727 365 699 365 666 C 365 632 353 603 329 579 C 305 555 277 544 243 544 Z M 243 612 C 257 612 270 617 280 628 C 290 638 295 651 295 666 C 295 680 290 693 280 703 C 270 713 257 719 243 719 C 228 719 216 713 206 703 C 196 693 191 680 191 666 C 191 651 196 638 206 628 C 216 617 228 612 243 612 Z" unicode="å" />
<glyph horiz-adv-x="811" d="M 567 -9 C 517 -9 476 0 445 20 C 413 39 392 61 380 85 C 365 60 341 38 307 20 C 273 1 233 -8 187 -8 C 139 -8 100 5 71 33 C 41 61 27 98 27 144 C 27 198 46 240 86 268 C 125 296 178 312 246 316 L 335 321 L 335 333 C 335 358 326 377 309 390 C 292 402 269 409 241 409 C 213 409 186 404 162 394 C 138 384 117 374 101 363 L 60 445 C 81 461 108 475 140 487 C 172 499 207 505 247 505 C 287 505 320 498 347 484 C 373 470 392 452 402 432 C 413 449 432 465 460 480 C 488 495 523 503 565 503 C 634 503 688 477 728 426 C 768 374 788 303 788 213 L 446 213 C 446 176 457 146 479 123 C 501 100 532 89 572 89 C 607 89 634 95 653 107 C 672 119 688 132 702 146 L 767 76 C 746 52 720 32 690 16 C 659 0 618 -9 567 -9 Z M 447 295 L 671 295 C 670 327 660 353 640 375 C 620 397 593 408 559 408 C 525 408 499 397 480 376 C 460 354 449 327 447 295 Z M 224 85 C 252 85 276 92 296 108 C 316 124 330 141 338 160 L 338 237 L 251 233 C 221 231 196 225 176 213 C 156 201 147 181 147 154 C 147 130 154 112 169 101 C 184 90 202 85 224 85 Z" unicode="æ" />
<glyph horiz-adv-x="477" d="M 29 0 L 29 0 Z M 380 157 L 464 96 C 447 69 423 45 392 23 C 361 1 319 -9 265 -9 C 193 -9 136 14 93 62 C 50 109 29 170 29 246 C 29 282 34 316 46 348 C 58 380 74 407 95 430 C 116 453 141 471 171 484 C 201 497 233 504 269 504 C 322 504 365 492 397 469 C 429 445 451 419 465 391 L 371 336 C 361 354 349 370 333 382 C 317 394 295 400 269 400 C 235 400 207 386 186 358 C 164 330 154 293 154 248 C 154 198 165 159 188 133 C 210 106 239 93 275 93 C 303 93 326 100 342 114 C 358 128 371 142 380 157 Z M 257 -3 L 257 -3 Z M 264 -191 C 239 -191 214 -188 190 -182 C 166 -176 147 -168 133 -159 L 151 -109 C 159 -113 170 -118 184 -123 C 198 -128 214 -131 230 -131 C 241 -131 251 -128 260 -123 C 269 -117 274 -110 274 -102 C 274 -91 270 -84 262 -80 C 254 -76 245 -74 237 -74 C 230 -74 224 -74 219 -75 C 214 -76 209 -78 204 -80 L 188 -62 L 248 11 L 317 11 L 270 -48 C 302 -43 328 -47 349 -59 C 369 -71 380 -90 380 -114 C 380 -139 368 -158 345 -171 C 321 -184 294 -191 264 -191 Z" unicode="ç" />
<glyph horiz-adv-x="516" d="M 29 0 L 29 0 Z M 270 -9 C 234 -9 202 -3 172 8 C 142 19 117 35 96 57 C 75 79 59 105 47 137 C 35 168 29 204 29 244 C 29 282 35 317 47 349 C 59 381 75 408 96 431 C 116 454 141 472 170 485 C 199 497 231 504 265 504 C 335 504 391 478 431 428 C 471 377 492 305 493 212 L 147 212 C 148 176 160 147 182 124 C 204 100 235 89 276 89 C 309 89 336 94 356 106 C 376 118 393 131 406 146 L 471 76 C 451 53 426 33 395 16 C 364 0 322 -9 270 -9 Z M 148 296 L 375 296 C 373 328 363 355 343 376 C 323 397 296 408 264 408 C 231 408 204 397 183 376 C 162 354 150 328 148 296 Z M 263 550 L 263 550 Z M 383 550 L 264 550 L 142 715 L 283 715 L 383 550 Z" unicode="è" />
<glyph horiz-adv-x="516" d="M 29 0 L 29 0 Z M 270 -9 C 234 -9 202 -3 172 8 C 142 19 117 35 96 57 C 75 79 59 105 47 137 C 35 168 29 204 29 244 C 29 282 35 317 47 349 C 59 381 75 408 96 431 C 116 454 141 472 170 485 C 199 497 231 504 265 504 C 335 504 391 478 431 428 C 471 377 492 305 493 212 L 147 212 C 148 176 160 147 182 124 C 204 100 235 89 276 89 C 309 89 336 94 356 106 C 376 118 393 131 406 146 L 471 76 C 451 53 426 33 395 16 C 364 0 322 -9 270 -9 Z M 148 296 L 375 296 C 373 328 363 355 343 376 C 323 397 296 408 264 408 C 231 408 204 397 183 376 C 162 354 150 328 148 296 Z M 263 553 L 263 553 Z M 143 553 L 242 718 L 383 718 L 262 553 L 143 553 Z" unicode="é" />
<glyph horiz-adv-x="516" d="M 29 0 L 29 0 Z M 270 -9 C 234 -9 202 -3 172 8 C 142 19 117 35 96 57 C 75 79 59 105 47 137 C 35 168 29 204 29 244 C 29 282 35 317 47 349 C 59 381 75 408 96 431 C 116 454 141 472 170 485 C 199 497 231 504 265 504 C 335 504 391 478 431 428 C 471 377 492 305 493 212 L 147 212 C 148 176 160 147 182 124 C 204 100 235 89 276 89 C 309 89 336 94 356 106 C 376 118 393 131 406 146 L 471 76 C 451 53 426 33 395 16 C 364 0 322 -9 270 -9 Z M 148 296 L 375 296 C 373 328 363 355 343 376 C 323 397 296 408 264 408 C 231 408 204 397 183 376 C 162 354 150 328 148 296 Z M 263 551 L 263 551 Z M 436 551 L 329 551 L 263 645 L 196 551 L 91 551 L 206 723 L 321 723 L 436 551 Z" unicode="ê" />
<glyph horiz-adv-x="516" d="M 29 0 L 29 0 Z M 270 -9 C 234 -9 202 -3 172 8 C 142 19 117 35 96 57 C 75 79 59 105 47 137 C 35 168 29 204 29 244 C 29 282 35 317 47 349 C 59 381 75 408 96 431 C 116 454 141 472 170 485 C 199 497 231 504 265 504 C 335 504 391 478 431 428 C 471 377 492 305 493 212 L 147 212 C 148 176 160 147 182 124 C 204 100 235 89 276 89 C 309 89 336 94 356 106 C 376 118 393 131 406 146 L 471 76 C 451 53 426 33 395 16 C 364 0 322 -9 270 -9 Z M 148 296 L 375 296 C 373 328 363 355 343 376 C 323 397 296 408 264 408 C 231 408 204 397 183 376 C 162 354 150 328 148 296 Z M 263 551 L 263 551 Z M 404 551 L 305 551 L 305 711 L 404 711 L 404 551 Z M 221 551 L 122 551 L 122 711 L 221 711 L 221 551 Z" unicode="ë" />
<glyph horiz-adv-x="243" d="M 0 0 L 0 0 Z M 182 0 L 61 0 L 61 494 L 182 494 L 182 0 Z M 121 550 L 121 550 Z M 241 550 L 122 550 L 0 715 L 141 715 L 241 550 Z" unicode="ì" />
<glyph horiz-adv-x="243" d="M 1 0 L 1 0 Z M 182 0 L 61 0 L 61 494 L 182 494 L 182 0 Z M 121 553 L 121 553 Z M 1 553 L 100 718 L 241 718 L 120 553 L 1 553 Z" unicode="í" />
<glyph horiz-adv-x="243" d="M 0 0 L 0 0 Z M 182 0 L 61 0 L 61 494 L 182 494 L 182 0 Z M 121 551 L 121 551 Z M 294 551 L 187 551 L 121 645 L 54 551 L -51 551 L 64 723 L 179 723 L 294 551 Z" unicode="î" />
<glyph horiz-adv-x="243" d="M 0 0 L 0 0 Z M 182 0 L 61 0 L 61 494 L 182 494 L 182 0 Z M 121 551 L 121 551 Z M 262 551 L 163 551 L 163 711 L 262 711 L 262 551 Z M 79 551 L -20 551 L -20 711 L 79 711 L 79 551 Z" unicode="ï" />
<glyph horiz-adv-x="548" d="M 513 284 C 513 243 507 205 497 169 C 486 133 470 101 450 75 C 430 49 404 28 374 13 C 343 -2 308 -10 269 -10 C 235 -10 203 -4 173 7 C 143 18 118 34 97 56 C 76 78 60 104 48 135 C 36 166 30 201 30 241 C 30 278 36 312 49 343 C 61 374 78 400 99 422 C 119 444 143 461 170 473 C 196 485 224 491 253 491 C 284 491 312 484 337 472 C 361 460 380 445 392 428 C 388 462 379 494 367 525 C 355 555 341 583 325 609 L 207 570 L 183 638 L 280 670 C 265 687 250 702 236 715 C 222 727 209 737 199 744 L 302 782 C 312 774 325 764 339 751 C 353 737 367 721 382 703 L 457 728 L 480 660 L 423 641 C 447 599 468 548 486 489 C 504 429 513 361 513 284 Z M 270 88 C 308 88 338 101 359 129 C 380 156 391 194 391 244 C 391 295 380 333 360 359 C 339 384 310 397 272 397 C 236 397 207 383 185 355 C 163 327 152 290 152 244 C 152 194 163 155 185 128 C 207 101 235 88 270 88 Z" unicode="ð" />
<glyph horiz-adv-x="536" d="M 58 0 L 58 0 Z M 482 0 L 362 0 L 362 329 C 362 352 354 370 339 384 C 323 397 303 404 279 404 C 253 404 229 396 209 380 C 188 364 178 340 178 306 L 178 0 L 58 0 L 58 494 L 167 494 L 167 414 C 177 440 196 462 224 479 C 252 495 285 504 323 504 C 369 504 407 491 437 466 C 467 440 482 405 482 361 L 482 0 Z M 276 555 L 276 555 Z M 357 702 L 448 702 C 448 652 440 615 425 591 C 410 567 390 555 366 555 C 347 555 331 558 317 564 C 303 570 291 577 281 583 C 271 589 262 595 253 601 C 244 607 235 610 227 610 C 218 610 211 605 205 596 C 199 586 197 574 197 558 L 106 558 C 106 607 116 644 136 668 C 156 692 177 705 199 705 C 216 705 231 701 243 695 C 255 689 267 682 278 675 C 286 668 295 662 303 657 C 311 652 318 650 326 650 C 333 650 340 654 346 663 C 352 672 356 685 357 702 Z" unicode="ñ" />
<glyph horiz-adv-x="540" d="M 29 0 L 29 0 Z M 267 -9 C 235 -9 205 -3 177 7 C 148 18 123 34 101 56 C 79 78 61 104 48 136 C 35 168 29 204 29 246 C 29 283 35 317 48 349 C 60 381 77 408 99 431 C 120 453 145 471 174 484 C 202 497 233 504 266 504 C 300 504 332 498 362 487 C 392 475 418 459 440 438 C 462 417 479 391 492 361 C 505 331 512 297 512 259 C 512 219 505 182 493 149 C 480 116 463 88 441 65 C 419 41 393 23 363 10 C 333 -2 301 -9 267 -9 Z M 270 91 C 306 91 334 104 355 132 C 376 160 387 200 387 253 C 387 301 376 338 354 364 C 332 390 303 403 265 403 C 231 403 204 389 184 363 C 164 336 154 297 154 247 C 154 193 165 153 187 128 C 209 103 236 91 270 91 Z M 267 550 L 267 550 Z M 387 550 L 268 550 L 146 715 L 287 715 L 387 550 Z" unicode="ò" />
<glyph horiz-adv-x="540" d="M 29 0 L 29 0 Z M 267 -9 C 235 -9 205 -3 177 7 C 148 18 123 34 101 56 C 79 78 61 104 48 136 C 35 168 29 204 29 246 C 29 283 35 317 48 349 C 60 381 77 408 99 431 C 120 453 145 471 174 484 C 202 497 233 504 266 504 C 300 504 332 498 362 487 C 392 475 418 459 440 438 C 462 417 479 391 492 361 C 505 331 512 297 512 259 C 512 219 505 182 493 149 C 480 116 463 88 441 65 C 419 41 393 23 363 10 C 333 -2 301 -9 267 -9 Z M 270 91 C 306 91 334 104 355 132 C 376 160 387 200 387 253 C 387 301 376 338 354 364 C 332 390 303 403 265 403 C 231 403 204 389 184 363 C 164 336 154 297 154 247 C 154 193 165 153 187 128 C 209 103 236 91 270 91 Z M 267 553 L 267 553 Z M 147 553 L 246 718 L 387 718 L 266 553 L 147 553 Z" unicode="ó" />
<glyph horiz-adv-x="540" d="M 29 0 L 29 0 Z M 267 -9 C 235 -9 205 -3 177 7 C 148 18 123 34 101 56 C 79 78 61 104 48 136 C 35 168 29 204 29 246 C 29 283 35 317 48 349 C 60 381 77 408 99 431 C 120 453 145 471 174 484 C 202 497 233 504 266 504 C 300 504 332 498 362 487 C 392 475 418 459 440 438 C 462 417 479 391 492 361 C 505 331 512 297 512 259 C 512 219 505 182 493 149 C 480 116 463 88 441 65 C 419 41 393 23 363 10 C 333 -2 301 -9 267 -9 Z M 270 91 C 306 91 334 104 355 132 C 376 160 387 200 387 253 C 387 301 376 338 354 364 C 332 390 303 403 265 403 C 231 403 204 389 184 363 C 164 336 154 297 154 247 C 154 193 165 153 187 128 C 209 103 236 91 270 91 Z M 267 551 L 267 551 Z M 440 551 L 333 551 L 267 645 L 200 551 L 95 551 L 210 723 L 325 723 L 440 551 Z" unicode="ô" />
<glyph horiz-adv-x="540" d="M 29 0 L 29 0 Z M 267 -9 C 235 -9 205 -3 177 7 C 148 18 123 34 101 56 C 79 78 61 104 48 136 C 35 168 29 204 29 246 C 29 283 35 317 48 349 C 60 381 77 408 99 431 C 120 453 145 471 174 484 C 202 497 233 504 266 504 C 300 504 332 498 362 487 C 392 475 418 459 440 438 C 462 417 479 391 492 361 C 505 331 512 297 512 259 C 512 219 505 182 493 149 C 480 116 463 88 441 65 C 419 41 393 23 363 10 C 333 -2 301 -9 267 -9 Z M 270 91 C 306 91 334 104 355 132 C 376 160 387 200 387 253 C 387 301 376 338 354 364 C 332 390 303 403 265 403 C 231 403 204 389 184 363 C 164 336 154 297 154 247 C 154 193 165 153 187 128 C 209 103 236 91 270 91 Z M 267 555 L 267 555 Z M 348 702 L 439 702 C 439 652 431 615 416 591 C 401 567 381 555 357 555 C 338 555 322 558 308 564 C 294 570 282 577 272 583 C 262 589 253 595 244 601 C 235 607 226 610 218 610 C 209 610 202 605 196 596 C 190 586 188 574 188 558 L 97 558 C 97 607 107 644 127 668 C 147 692 168 705 190 705 C 207 705 222 701 234 695 C 246 689 258 682 269 675 C 277 668 286 662 294 657 C 302 652 309 650 317 650 C 324 650 331 654 337 663 C 343 672 347 685 348 702 Z" unicode="õ" />
<glyph horiz-adv-x="540" d="M 29 0 L 29 0 Z M 267 -9 C 235 -9 205 -3 177 7 C 148 18 123 34 101 56 C 79 78 61 104 48 136 C 35 168 29 204 29 246 C 29 283 35 317 48 349 C 60 381 77 408 99 431 C 120 453 145 471 174 484 C 202 497 233 504 266 504 C 300 504 332 498 362 487 C 392 475 418 459 440 438 C 462 417 479 391 492 361 C 505 331 512 297 512 259 C 512 219 505 182 493 149 C 480 116 463 88 441 65 C 419 41 393 23 363 10 C 333 -2 301 -9 267 -9 Z M 270 91 C 306 91 334 104 355 132 C 376 160 387 200 387 253 C 387 301 376 338 354 364 C 332 390 303 403 265 403 C 231 403 204 389 184 363 C 164 336 154 297 154 247 C 154 193 165 153 187 128 C 209 103 236 91 270 91 Z M 267 551 L 267 551 Z M 408 551 L 309 551 L 309 711 L 408 711 L 408 551 Z M 225 551 L 126 551 L 126 711 L 225 711 L 225 551 Z" unicode="ö" />
<glyph horiz-adv-x="494" d="M 190 448 L 190 573 L 303 573 L 303 448 L 190 448 Z M 23 279 L 23 382 L 471 382 L 471 279 L 23 279 Z M 190 87 L 190 211 L 303 211 L 303 87 L 190 87 Z" unicode="÷" />
<glyph horiz-adv-x="540" d="M 267 -9 C 240 -9 214 -5 189 3 C 164 11 141 23 121 39 L 75 -12 L 29 30 L 78 84 C 62 104 50 128 42 155 C 33 182 29 212 29 246 C 29 283 35 317 48 349 C 60 381 77 408 99 431 C 120 453 145 471 174 484 C 202 497 233 504 266 504 C 294 504 320 500 346 492 C 371 484 394 474 415 460 L 463 513 L 508 471 L 460 418 C 476 397 489 373 498 347 C 507 320 512 291 512 259 C 512 219 505 182 493 149 C 480 116 463 88 441 65 C 419 41 393 23 363 10 C 333 -2 301 -9 267 -9 Z M 154 247 C 154 233 154 221 156 210 C 157 198 159 188 162 178 L 341 378 C 331 386 320 392 307 396 C 294 400 280 403 265 403 C 231 403 204 389 184 363 C 164 336 154 297 154 247 Z M 387 253 C 387 266 386 279 384 291 C 382 303 379 314 376 324 L 194 120 C 204 110 215 102 228 98 C 241 93 255 91 270 91 C 306 91 334 104 355 132 C 376 160 387 200 387 253 Z" unicode="ø" />
<glyph horiz-adv-x="536" d="M 54 0 L 54 0 Z M 54 494 L 173 494 L 173 174 C 173 144 181 123 197 109 C 213 95 235 88 262 88 C 288 88 311 96 330 113 C 348 129 358 154 358 187 L 358 494 L 478 494 L 478 0 L 366 0 L 366 77 C 355 53 336 32 309 16 C 282 0 250 -9 213 -9 C 169 -9 131 4 100 30 C 69 56 54 94 54 144 L 54 494 Z M 266 550 L 266 550 Z M 386 550 L 267 550 L 145 715 L 286 715 L 386 550 Z" unicode="ù" />
<glyph horiz-adv-x="536" d="M 54 0 L 54 0 Z M 54 494 L 173 494 L 173 174 C 173 144 181 123 197 109 C 213 95 235 88 262 88 C 288 88 311 96 330 113 C 348 129 358 154 358 187 L 358 494 L 478 494 L 478 0 L 366 0 L 366 77 C 355 53 336 32 309 16 C 282 0 250 -9 213 -9 C 169 -9 131 4 100 30 C 69 56 54 94 54 144 L 54 494 Z M 266 553 L 266 553 Z M 146 553 L 245 718 L 386 718 L 265 553 L 146 553 Z" unicode="ú" />
<glyph horiz-adv-x="536" d="M 54 0 L 54 0 Z M 54 494 L 173 494 L 173 174 C 173 144 181 123 197 109 C 213 95 235 88 262 88 C 288 88 311 96 330 113 C 348 129 358 154 358 187 L 358 494 L 478 494 L 478 0 L 366 0 L 366 77 C 355 53 336 32 309 16 C 282 0 250 -9 213 -9 C 169 -9 131 4 100 30 C 69 56 54 94 54 144 L 54 494 Z M 266 551 L 266 551 Z M 439 551 L 332 551 L 266 645 L 199 551 L 94 551 L 209 723 L 324 723 L 439 551 Z" unicode="û" />
<glyph horiz-adv-x="536" d="M 54 0 L 54 0 Z M 54 494 L 173 494 L 173 174 C 173 144 181 123 197 109 C 213 95 235 88 262 88 C 288 88 311 96 330 113 C 348 129 358 154 358 187 L 358 494 L 478 494 L 478 0 L 366 0 L 366 77 C 355 53 336 32 309 16 C 282 0 250 -9 213 -9 C 169 -9 131 4 100 30 C 69 56 54 94 54 144 L 54 494 Z M 266 551 L 266 551 Z M 407 551 L 308 551 L 308 711 L 407 711 L 407 551 Z M 224 551 L 125 551 L 125 711 L 224 711 L 224 551 Z" unicode="ü" />
<glyph horiz-adv-x="478" d="M 0 0 L 0 0 Z M 482 494 L 241 -85 C 222 -128 197 -158 167 -175 C 136 -191 105 -200 75 -200 C 56 -200 40 -197 27 -193 C 13 -189 4 -185 -2 -183 L 34 -85 C 36 -87 42 -89 51 -91 C 59 -93 68 -95 77 -95 C 91 -95 104 -90 116 -81 C 127 -71 138 -55 148 -33 L 180 45 L -5 494 L 123 494 L 242 183 L 363 494 L 482 494 Z M 241 553 L 241 553 Z M 121 553 L 220 718 L 361 718 L 240 553 L 121 553 Z" unicode="ý" />
<glyph horiz-adv-x="549" d="M 58 -199 L 58 775 L 173 775 L 173 411 C 180 433 197 454 224 474 C 251 493 285 503 326 503 C 384 503 431 480 467 436 C 503 391 521 333 521 261 C 521 219 515 181 505 148 C 494 115 480 87 462 65 C 444 42 422 25 398 13 C 373 1 347 -5 320 -5 C 284 -5 254 2 228 17 C 202 32 184 50 175 71 L 175 -199 L 58 -199 Z M 285 88 C 317 88 344 101 365 128 C 385 155 396 195 396 247 C 396 294 386 332 368 361 C 349 390 321 405 285 405 C 252 405 225 392 203 367 C 181 342 171 300 171 242 C 171 184 182 144 204 122 C 226 99 253 88 285 88 Z" unicode="þ" />
<glyph horiz-adv-x="478" d="M 0 0 L 0 0 Z M 482 494 L 241 -85 C 222 -128 197 -158 167 -175 C 136 -191 105 -200 75 -200 C 56 -200 40 -197 27 -193 C 13 -189 4 -185 -2 -183 L 34 -85 C 36 -87 42 -89 51 -91 C 59 -93 68 -95 77 -95 C 91 -95 104 -90 116 -81 C 127 -71 138 -55 148 -33 L 180 45 L -5 494 L 123 494 L 242 183 L 363 494 L 482 494 Z M 241 551 L 241 551 Z M 382 551 L 283 551 L 283 711 L 382 711 L 382 551 Z M 199 551 L 100 551 L 100 711 L 199 711 L 199 551 Z" unicode="ÿ" />
<glyph horiz-adv-x="610" d="M 0 0 L 0 0 Z M 611 0 L 479 0 L 422 158 L 179 158 L 125 0 L -1 0 L 266 733 L 350 733 L 611 0 Z M 394 259 L 300 524 L 208 259 L 394 259 Z M 303 799 L 303 799 Z M 438 799 L 168 799 L 168 893 L 438 893 L 438 799 Z" unicode="Ā" />
<glyph horiz-adv-x="495" d="M 23 0 L 23 0 Z M 443 0 L 332 0 L 332 56 C 316 36 295 21 271 9 C 246 -2 216 -8 180 -8 C 130 -8 91 6 64 34 C 36 62 23 99 23 145 C 23 199 42 240 81 269 C 120 297 173 313 241 317 L 328 322 L 328 335 C 327 359 319 378 305 390 C 290 402 268 409 238 409 C 210 409 183 404 159 394 C 135 384 114 374 98 364 L 56 446 C 76 461 103 475 137 487 C 171 499 211 506 258 506 C 313 506 358 492 392 466 C 426 439 443 397 443 340 L 443 0 Z M 330 133 L 330 238 L 247 234 C 216 232 191 225 172 212 C 152 198 143 179 143 153 C 143 130 150 113 164 102 C 178 90 197 85 219 85 C 243 85 265 89 285 99 C 304 109 319 120 330 133 Z M 243 563 L 243 563 Z M 378 563 L 108 563 L 108 657 L 378 657 L 378 563 Z" unicode="ā" />
<glyph horiz-adv-x="610" d="M 0 0 L 0 0 Z M 611 0 L 479 0 L 422 158 L 179 158 L 125 0 L -1 0 L 266 733 L 350 733 L 611 0 Z M 394 259 L 300 524 L 208 259 L 394 259 Z M 303 788 L 303 788 Z M 364 949 L 463 949 C 459 893 442 852 413 826 C 383 800 347 788 303 788 C 259 788 222 800 193 826 C 163 852 147 893 143 949 L 242 949 C 244 922 249 901 258 886 C 267 871 282 864 303 864 C 323 864 338 871 348 885 C 357 899 362 921 364 949 Z" unicode="Ă" />
<glyph horiz-adv-x="495" d="M 23 0 L 23 0 Z M 443 0 L 332 0 L 332 56 C 316 36 295 21 271 9 C 246 -2 216 -8 180 -8 C 130 -8 91 6 64 34 C 36 62 23 99 23 145 C 23 199 42 240 81 269 C 120 297 173 313 241 317 L 328 322 L 328 335 C 327 359 319 378 305 390 C 290 402 268 409 238 409 C 210 409 183 404 159 394 C 135 384 114 374 98 364 L 56 446 C 76 461 103 475 137 487 C 171 499 211 506 258 506 C 313 506 358 492 392 466 C 426 439 443 397 443 340 L 443 0 Z M 330 133 L 330 238 L 247 234 C 216 232 191 225 172 212 C 152 198 143 179 143 153 C 143 130 150 113 164 102 C 178 90 197 85 219 85 C 243 85 265 89 285 99 C 304 109 319 120 330 133 Z M 243 552 L 243 552 Z M 304 713 L 403 713 C 399 657 382 616 353 590 C 323 564 287 552 243 552 C 199 552 162 564 133 590 C 103 616 87 657 83 713 L 182 713 C 184 686 189 665 198 650 C 207 635 222 628 243 628 C 263 628 278 635 288 649 C 297 663 302 685 304 713 Z" unicode="ă" />
<glyph horiz-adv-x="610" d="M 0 0 L 0 0 Z M 611 0 L 479 0 L 422 158 L 179 158 L 125 0 L -1 0 L 266 733 L 350 733 L 611 0 Z M 394 259 L 300 524 L 208 259 L 394 259 Z M 496 -6 L 496 -6 Z M 596 -81 L 629 -132 C 607 -154 584 -170 559 -181 C 534 -192 506 -198 475 -198 C 440 -198 413 -190 393 -176 C 373 -161 364 -142 364 -120 C 364 -95 374 -72 395 -50 C 416 -28 446 -10 484 5 L 544 5 C 520 -6 501 -18 487 -32 C 473 -45 466 -58 466 -71 C 466 -83 470 -92 479 -99 C 488 -106 500 -110 515 -110 C 531 -110 547 -107 561 -102 C 575 -96 586 -89 596 -81 Z" unicode="Ą" />
<glyph horiz-adv-x="495" d="M 23 0 L 23 0 Z M 443 0 L 332 0 L 332 56 C 316 36 295 21 271 9 C 246 -2 216 -8 180 -8 C 130 -8 91 6 64 34 C 36 62 23 99 23 145 C 23 199 42 240 81 269 C 120 297 173 313 241 317 L 328 322 L 328 335 C 327 359 319 378 305 390 C 290 402 268 409 238 409 C 210 409 183 404 159 394 C 135 384 114 374 98 364 L 56 446 C 76 461 103 475 137 487 C 171 499 211 506 258 506 C 313 506 358 492 392 466 C 426 439 443 397 443 340 L 443 0 Z M 330 133 L 330 238 L 247 234 C 216 232 191 225 172 212 C 152 198 143 179 143 153 C 143 130 150 113 164 102 C 178 90 197 85 219 85 C 243 85 265 89 285 99 C 304 109 319 120 330 133 Z M 353 -6 L 353 -6 Z M 453 -81 L 486 -132 C 464 -154 441 -170 416 -181 C 391 -192 363 -198 332 -198 C 297 -198 270 -190 250 -176 C 230 -161 221 -142 221 -120 C 221 -95 231 -72 252 -50 C 273 -28 303 -10 341 5 L 401 5 C 377 -6 358 -18 344 -32 C 330 -45 323 -58 323 -71 C 323 -83 327 -92 336 -99 C 345 -106 357 -110 372 -110 C 388 -110 404 -107 418 -102 C 432 -96 443 -89 453 -81 Z" unicode="ą" />
<glyph horiz-adv-x="653" d="M 39 0 L 39 0 Z M 363 -10 C 317 -10 274 -1 234 15 C 194 31 160 55 132 87 C 103 119 80 158 64 205 C 47 251 39 305 39 365 C 39 421 46 472 62 518 C 78 564 100 604 129 637 C 157 669 192 695 232 713 C 272 731 316 740 364 740 C 430 740 483 728 525 705 C 567 681 600 650 626 610 L 530 538 C 513 562 492 582 466 599 C 440 615 408 624 368 624 C 305 624 256 601 222 557 C 188 512 171 448 171 365 C 171 318 176 278 188 245 C 199 211 214 184 233 164 C 251 143 273 128 298 118 C 322 108 348 104 374 104 C 416 104 450 113 478 131 C 506 149 529 172 547 201 L 637 139 C 612 95 576 59 530 31 C 484 3 428 -10 363 -10 Z M 366 789 L 366 789 Z M 246 789 L 345 954 L 486 954 L 365 789 L 246 789 Z" unicode="Ć" />
<glyph horiz-adv-x="477" d="M 29 0 L 29 0 Z M 380 157 L 464 96 C 447 69 423 45 392 23 C 361 1 319 -9 265 -9 C 193 -9 136 14 93 62 C 50 109 29 170 29 246 C 29 282 34 316 46 348 C 58 380 74 407 95 430 C 116 453 141 471 171 484 C 201 497 233 504 269 504 C 322 504 365 492 397 469 C 429 445 451 419 465 391 L 371 336 C 361 354 349 370 333 382 C 317 394 295 400 269 400 C 235 400 207 386 186 358 C 164 330 154 293 154 248 C 154 198 165 159 188 133 C 210 106 239 93 275 93 C 303 93 326 100 342 114 C 358 128 371 142 380 157 Z M 260 553 L 260 553 Z M 140 553 L 239 718 L 380 718 L 259 553 L 140 553 Z" unicode="ć" />
<glyph horiz-adv-x="653" d="M 39 0 L 39 0 Z M 363 -10 C 317 -10 274 -1 234 15 C 194 31 160 55 132 87 C 103 119 80 158 64 205 C 47 251 39 305 39 365 C 39 421 46 472 62 518 C 78 564 100 604 129 637 C 157 669 192 695 232 713 C 272 731 316 740 364 740 C 430 740 483 728 525 705 C 567 681 600 650 626 610 L 530 538 C 513 562 492 582 466 599 C 440 615 408 624 368 624 C 305 624 256 601 222 557 C 188 512 171 448 171 365 C 171 318 176 278 188 245 C 199 211 214 184 233 164 C 251 143 273 128 298 118 C 322 108 348 104 374 104 C 416 104 450 113 478 131 C 506 149 529 172 547 201 L 637 139 C 612 95 576 59 530 31 C 484 3 428 -10 363 -10 Z M 366 787 L 366 787 Z M 539 787 L 432 787 L 366 881 L 299 787 L 194 787 L 309 959 L 424 959 L 539 787 Z" unicode="Ĉ" />
<glyph horiz-adv-x="477" d="M 29 0 L 29 0 Z M 380 157 L 464 96 C 447 69 423 45 392 23 C 361 1 319 -9 265 -9 C 193 -9 136 14 93 62 C 50 109 29 170 29 246 C 29 282 34 316 46 348 C 58 380 74 407 95 430 C 116 453 141 471 171 484 C 201 497 233 504 269 504 C 322 504 365 492 397 469 C 429 445 451 419 465 391 L 371 336 C 361 354 349 370 333 382 C 317 394 295 400 269 400 C 235 400 207 386 186 358 C 164 330 154 293 154 248 C 154 198 165 159 188 133 C 210 106 239 93 275 93 C 303 93 326 100 342 114 C 358 128 371 142 380 157 Z M 260 551 L 260 551 Z M 433 551 L 326 551 L 260 645 L 193 551 L 88 551 L 203 723 L 318 723 L 433 551 Z" unicode="ĉ" />
<glyph horiz-adv-x="653" d="M 39 0 L 39 0 Z M 363 -10 C 317 -10 274 -1 234 15 C 194 31 160 55 132 87 C 103 119 80 158 64 205 C 47 251 39 305 39 365 C 39 421 46 472 62 518 C 78 564 100 604 129 637 C 157 669 192 695 232 713 C 272 731 316 740 364 740 C 430 740 483 728 525 705 C 567 681 600 650 626 610 L 530 538 C 513 562 492 582 466 599 C 440 615 408 624 368 624 C 305 624 256 601 222 557 C 188 512 171 448 171 365 C 171 318 176 278 188 245 C 199 211 214 184 233 164 C 251 143 273 128 298 118 C 322 108 348 104 374 104 C 416 104 450 113 478 131 C 506 149 529 172 547 201 L 637 139 C 612 95 576 59 530 31 C 484 3 428 -10 363 -10 Z M 366 790 L 366 790 Z M 421 790 L 312 790 L 312 943 L 421 943 L 421 790 Z" unicode="Ċ" />
<glyph horiz-adv-x="477" d="M 29 0 L 29 0 Z M 380 157 L 464 96 C 447 69 423 45 392 23 C 361 1 319 -9 265 -9 C 193 -9 136 14 93 62 C 50 109 29 170 29 246 C 29 282 34 316 46 348 C 58 380 74 407 95 430 C 116 453 141 471 171 484 C 201 497 233 504 269 504 C 322 504 365 492 397 469 C 429 445 451 419 465 391 L 371 336 C 361 354 349 370 333 382 C 317 394 295 400 269 400 C 235 400 207 386 186 358 C 164 330 154 293 154 248 C 154 198 165 159 188 133 C 210 106 239 93 275 93 C 303 93 326 100 342 114 C 358 128 371 142 380 157 Z M 260 554 L 260 554 Z M 315 554 L 206 554 L 206 707 L 315 707 L 315 554 Z" unicode="ċ" />
<glyph horiz-adv-x="653" d="M 39 0 L 39 0 Z M 363 -10 C 317 -10 274 -1 234 15 C 194 31 160 55 132 87 C 103 119 80 158 64 205 C 47 251 39 305 39 365 C 39 421 46 472 62 518 C 78 564 100 604 129 637 C 157 669 192 695 232 713 C 272 731 316 740 364 740 C 430 740 483 728 525 705 C 567 681 600 650 626 610 L 530 538 C 513 562 492 582 466 599 C 440 615 408 624 368 624 C 305 624 256 601 222 557 C 188 512 171 448 171 365 C 171 318 176 278 188 245 C 199 211 214 184 233 164 C 251 143 273 128 298 118 C 322 108 348 104 374 104 C 416 104 450 113 478 131 C 506 149 529 172 547 201 L 637 139 C 612 95 576 59 530 31 C 484 3 428 -10 363 -10 Z M 366 787 L 366 787 Z M 194 959 L 301 959 L 367 865 L 434 959 L 539 959 L 424 787 L 309 787 L 194 959 Z" unicode="Č" />
<glyph horiz-adv-x="477" d="M 29 0 L 29 0 Z M 380 157 L 464 96 C 447 69 423 45 392 23 C 361 1 319 -9 265 -9 C 193 -9 136 14 93 62 C 50 109 29 170 29 246 C 29 282 34 316 46 348 C 58 380 74 407 95 430 C 116 453 141 471 171 484 C 201 497 233 504 269 504 C 322 504 365 492 397 469 C 429 445 451 419 465 391 L 371 336 C 361 354 349 370 333 382 C 317 394 295 400 269 400 C 235 400 207 386 186 358 C 164 330 154 293 154 248 C 154 198 165 159 188 133 C 210 106 239 93 275 93 C 303 93 326 100 342 114 C 358 128 371 142 380 157 Z M 260 551 L 260 551 Z M 88 723 L 195 723 L 261 629 L 328 723 L 433 723 L 318 551 L 203 551 L 88 723 Z" unicode="č" />
<glyph horiz-adv-x="686" d="M 77 0 L 77 0 Z M 77 0 L 77 730 L 296 730 C 352 730 402 721 446 704 C 490 686 526 662 556 631 C 585 600 607 562 623 518 C 638 474 646 425 646 371 C 646 319 638 270 623 225 C 607 179 584 140 554 107 C 524 73 486 47 440 28 C 394 9 342 0 282 0 L 77 0 Z M 206 108 L 283 108 C 323 108 357 114 386 128 C 415 141 439 159 457 182 C 475 205 489 233 498 265 C 507 297 512 331 512 369 C 512 449 492 511 454 555 C 416 599 362 622 294 622 L 206 622 L 206 108 Z M 325 787 L 325 787 Z M 153 959 L 260 959 L 326 865 L 393 959 L 498 959 L 383 787 L 268 787 L 153 959 Z" unicode="Ď" />
<glyph horiz-adv-x="555" d="M 29 0 L 29 0 Z M 236 -8 C 176 -8 126 15 87 61 C 48 107 29 168 29 243 C 29 281 34 316 46 348 C 57 380 72 408 91 431 C 110 453 133 471 159 484 C 185 496 212 503 242 503 C 274 503 302 495 327 479 C 351 463 369 445 379 425 L 379 775 L 494 775 L 494 0 L 384 0 L 384 77 C 376 58 360 39 334 20 C 308 1 276 -8 236 -8 Z M 268 87 C 302 87 329 101 349 129 C 369 157 380 198 380 250 C 380 304 369 344 347 368 C 325 392 298 404 267 404 C 232 404 204 390 184 363 C 164 336 154 297 154 247 C 154 198 164 159 184 130 C 204 101 232 87 268 87 Z M 648 612 L 643 460 L 541 460 L 536 612 L 536 730 L 648 730 L 648 612 Z" unicode="ď" />
<glyph horiz-adv-x="683" d="M 27 0 L 27 0 Z M 646 365 C 646 314 638 266 622 222 C 606 178 583 139 553 106 C 523 73 485 47 439 28 C 393 9 341 0 281 0 L 77 0 L 77 309 L 27 309 L 27 406 L 77 406 L 77 730 L 295 730 C 351 730 402 721 446 704 C 490 686 526 662 556 630 C 585 598 607 560 623 515 C 638 469 646 419 646 365 Z M 204 103 L 281 103 C 323 103 358 109 388 123 C 417 137 441 155 460 179 C 478 203 492 230 500 262 C 508 294 513 327 513 363 C 513 447 494 512 456 558 C 418 603 364 626 296 626 L 204 626 L 204 406 L 347 406 L 347 309 L 204 309 L 204 103 Z" unicode="Đ" />
<glyph horiz-adv-x="552" d="M 384 77 C 376 58 360 39 334 20 C 308 1 276 -8 236 -8 C 176 -8 126 15 87 61 C 48 107 29 168 29 243 C 29 281 34 316 46 348 C 57 380 72 408 91 431 C 110 453 133 471 159 484 C 185 496 212 503 242 503 C 274 503 302 495 327 479 C 351 463 369 445 379 425 L 379 582 L 257 582 L 257 677 L 379 677 L 379 775 L 494 775 L 494 677 L 544 677 L 544 582 L 494 582 L 494 0 L 384 0 L 384 77 Z M 268 87 C 302 87 329 101 349 129 C 369 157 380 198 380 250 C 380 304 369 344 347 368 C 325 392 298 404 267 404 C 232 404 204 390 184 363 C 164 336 154 297 154 247 C 154 198 164 159 184 130 C 204 101 232 87 268 87 Z" unicode="đ" />
<glyph horiz-adv-x="533" d="M 77 0 L 77 0 Z M 496 0 L 77 0 L 77 730 L 478 730 L 478 617 L 204 617 L 204 418 L 462 418 L 462 307 L 204 307 L 204 113 L 496 113 L 496 0 Z M 281 799 L 281 799 Z M 416 799 L 146 799 L 146 893 L 416 893 L 416 799 Z" unicode="Ē" />
<glyph horiz-adv-x="516" d="M 29 0 L 29 0 Z M 270 -9 C 234 -9 202 -3 172 8 C 142 19 117 35 96 57 C 75 79 59 105 47 137 C 35 168 29 204 29 244 C 29 282 35 317 47 349 C 59 381 75 408 96 431 C 116 454 141 472 170 485 C 199 497 231 504 265 504 C 335 504 391 478 431 428 C 471 377 492 305 493 212 L 147 212 C 148 176 160 147 182 124 C 204 100 235 89 276 89 C 309 89 336 94 356 106 C 376 118 393 131 406 146 L 471 76 C 451 53 426 33 395 16 C 364 0 322 -9 270 -9 Z M 148 296 L 375 296 C 373 328 363 355 343 376 C 323 397 296 408 264 408 C 231 408 204 397 183 376 C 162 354 150 328 148 296 Z M 263 563 L 263 563 Z M 398 563 L 128 563 L 128 657 L 398 657 L 398 563 Z" unicode="ē" />
<glyph horiz-adv-x="533" d="M 77 0 L 77 0 Z M 496 0 L 77 0 L 77 730 L 478 730 L 478 617 L 204 617 L 204 418 L 462 418 L 462 307 L 204 307 L 204 113 L 496 113 L 496 0 Z M 281 788 L 281 788 Z M 342 949 L 441 949 C 437 893 420 852 391 826 C 361 800 325 788 281 788 C 237 788 200 800 171 826 C 141 852 125 893 121 949 L 220 949 C 222 922 227 901 236 886 C 245 871 260 864 281 864 C 301 864 316 871 326 885 C 335 899 340 921 342 949 Z" unicode="Ĕ" />
<glyph horiz-adv-x="516" d="M 29 0 L 29 0 Z M 270 -9 C 234 -9 202 -3 172 8 C 142 19 117 35 96 57 C 75 79 59 105 47 137 C 35 168 29 204 29 244 C 29 282 35 317 47 349 C 59 381 75 408 96 431 C 116 454 141 472 170 485 C 199 497 231 504 265 504 C 335 504 391 478 431 428 C 471 377 492 305 493 212 L 147 212 C 148 176 160 147 182 124 C 204 100 235 89 276 89 C 309 89 336 94 356 106 C 376 118 393 131 406 146 L 471 76 C 451 53 426 33 395 16 C 364 0 322 -9 270 -9 Z M 148 296 L 375 296 C 373 328 363 355 343 376 C 323 397 296 408 264 408 C 231 408 204 397 183 376 C 162 354 150 328 148 296 Z M 263 552 L 263 552 Z M 324 713 L 423 713 C 419 657 402 616 373 590 C 343 564 307 552 263 552 C 219 552 182 564 153 590 C 123 616 107 657 103 713 L 202 713 C 204 686 209 665 218 650 C 227 635 242 628 263 628 C 283 628 298 635 308 649 C 317 663 322 685 324 713 Z" unicode="ĕ" />
<glyph horiz-adv-x="533" d="M 77 0 L 77 0 Z M 496 0 L 77 0 L 77 730 L 478 730 L 478 617 L 204 617 L 204 418 L 462 418 L 462 307 L 204 307 L 204 113 L 496 113 L 496 0 Z M 281 790 L 281 790 Z M 336 790 L 227 790 L 227 943 L 336 943 L 336 790 Z" unicode="Ė" />
<glyph horiz-adv-x="516" d="M 29 0 L 29 0 Z M 270 -9 C 234 -9 202 -3 172 8 C 142 19 117 35 96 57 C 75 79 59 105 47 137 C 35 168 29 204 29 244 C 29 282 35 317 47 349 C 59 381 75 408 96 431 C 116 454 141 472 170 485 C 199 497 231 504 265 504 C 335 504 391 478 431 428 C 471 377 492 305 493 212 L 147 212 C 148 176 160 147 182 124 C 204 100 235 89 276 89 C 309 89 336 94 356 106 C 376 118 393 131 406 146 L 471 76 C 451 53 426 33 395 16 C 364 0 322 -9 270 -9 Z M 148 296 L 375 296 C 373 328 363 355 343 376 C 323 397 296 408 264 408 C 231 408 204 397 183 376 C 162 354 150 328 148 296 Z M 263 554 L 263 554 Z M 318 554 L 209 554 L 209 707 L 318 707 L 318 554 Z" unicode="ė" />
<glyph horiz-adv-x="533" d="M 77 0 L 77 0 Z M 496 0 L 77 0 L 77 730 L 478 730 L 478 617 L 204 617 L 204 418 L 462 418 L 462 307 L 204 307 L 204 113 L 496 113 L 496 0 Z M 448 -6 L 448 -6 Z M 548 -81 L 581 -132 C 559 -154 536 -170 511 -181 C 486 -192 458 -198 427 -198 C 392 -198 365 -190 345 -176 C 325 -161 316 -142 316 -120 C 316 -95 326 -72 347 -50 C 368 -28 398 -10 436 5 L 496 5 C 472 -6 453 -18 439 -32 C 425 -45 418 -58 418 -71 C 418 -83 422 -92 431 -99 C 440 -106 452 -110 467 -110 C 483 -110 499 -107 513 -102 C 527 -96 538 -89 548 -81 Z" unicode="Ę" />
<glyph horiz-adv-x="516" d="M 29 0 L 29 0 Z M 270 -9 C 234 -9 202 -3 172 8 C 142 19 117 35 96 57 C 75 79 59 105 47 137 C 35 168 29 204 29 244 C 29 282 35 317 47 349 C 59 381 75 408 96 431 C 116 454 141 472 170 485 C 199 497 231 504 265 504 C 335 504 391 478 431 428 C 471 377 492 305 493 212 L 147 212 C 148 176 160 147 182 124 C 204 100 235 89 276 89 C 309 89 336 94 356 106 C 376 118 393 131 406 146 L 471 76 C 451 53 426 33 395 16 C 364 0 322 -9 270 -9 Z M 148 296 L 375 296 C 373 328 363 355 343 376 C 323 397 296 408 264 408 C 231 408 204 397 183 376 C 162 354 150 328 148 296 Z M 317 -6 L 317 -6 Z M 417 -81 L 450 -132 C 428 -154 405 -170 380 -181 C 355 -192 327 -198 296 -198 C 261 -198 234 -190 214 -176 C 194 -161 185 -142 185 -120 C 185 -95 195 -72 216 -50 C 237 -28 267 -10 305 5 L 365 5 C 341 -6 322 -18 308 -32 C 294 -45 287 -58 287 -71 C 287 -83 291 -92 300 -99 C 309 -106 321 -110 336 -110 C 352 -110 368 -107 382 -102 C 396 -96 407 -89 417 -81 Z" unicode="ę" />
<glyph horiz-adv-x="533" d="M 77 0 L 77 0 Z M 496 0 L 77 0 L 77 730 L 478 730 L 478 617 L 204 617 L 204 418 L 462 418 L 462 307 L 204 307 L 204 113 L 496 113 L 496 0 Z M 281 787 L 281 787 Z M 109 959 L 216 959 L 282 865 L 349 959 L 454 959 L 339 787 L 224 787 L 109 959 Z" unicode="Ě" />
<glyph horiz-adv-x="516" d="M 29 0 L 29 0 Z M 270 -9 C 234 -9 202 -3 172 8 C 142 19 117 35 96 57 C 75 79 59 105 47 137 C 35 168 29 204 29 244 C 29 282 35 317 47 349 C 59 381 75 408 96 431 C 116 454 141 472 170 485 C 199 497 231 504 265 504 C 335 504 391 478 431 428 C 471 377 492 305 493 212 L 147 212 C 148 176 160 147 182 124 C 204 100 235 89 276 89 C 309 89 336 94 356 106 C 376 118 393 131 406 146 L 471 76 C 451 53 426 33 395 16 C 364 0 322 -9 270 -9 Z M 148 296 L 375 296 C 373 328 363 355 343 376 C 323 397 296 408 264 408 C 231 408 204 397 183 376 C 162 354 150 328 148 296 Z M 263 551 L 263 551 Z M 91 723 L 198 723 L 264 629 L 331 723 L 436 723 L 321 551 L 206 551 L 91 723 Z" unicode="ě" />
<glyph horiz-adv-x="697" d="M 39 0 L 39 0 Z M 373 378 L 658 378 L 658 140 C 633 96 596 60 547 32 C 497 4 438 -10 370 -10 C 322 -10 278 -1 238 16 C 198 33 163 58 134 90 C 104 122 81 162 64 209 C 47 255 39 307 39 365 C 39 422 47 474 64 521 C 81 567 104 607 134 639 C 164 671 199 696 240 714 C 280 731 324 740 371 740 C 440 740 494 727 533 703 C 571 678 600 651 619 621 L 528 547 C 513 566 493 584 469 600 C 445 616 412 624 370 624 C 312 624 264 602 226 558 C 188 514 169 450 169 366 C 169 281 188 215 227 168 C 266 120 316 97 376 97 C 415 97 449 104 479 118 C 508 132 529 152 543 177 L 543 269 L 373 269 L 373 378 Z M 371 787 L 371 787 Z M 544 787 L 437 787 L 371 881 L 304 787 L 199 787 L 314 959 L 429 959 L 544 787 Z" unicode="Ĝ" />
<glyph horiz-adv-x="550" d="M 30 0 L 30 0 Z M 235 6 C 175 6 126 28 88 73 C 49 117 30 176 30 250 C 30 327 49 388 89 434 C 128 480 178 503 238 503 C 272 503 302 495 328 479 C 354 463 372 444 383 423 L 383 494 L 493 494 L 493 41 C 493 0 486 -34 472 -64 C 458 -94 439 -118 417 -138 C 394 -157 368 -171 338 -181 C 308 -190 278 -195 248 -195 C 197 -195 156 -189 126 -179 C 96 -169 73 -159 59 -149 L 104 -59 C 116 -67 134 -76 157 -85 C 180 -93 207 -98 238 -98 C 278 -98 311 -86 337 -64 C 363 -42 377 -10 377 32 L 377 93 C 368 72 351 52 326 34 C 301 15 271 6 235 6 Z M 269 98 C 299 98 325 111 347 137 C 369 163 380 202 380 254 C 380 302 369 339 348 365 C 327 391 300 404 266 404 C 232 404 205 390 185 363 C 164 336 154 298 154 249 C 154 200 164 163 184 137 C 204 111 232 98 269 98 Z M 257 551 L 257 551 Z M 430 551 L 323 551 L 257 645 L 190 551 L 85 551 L 200 723 L 315 723 L 430 551 Z" unicode="ĝ" />
<glyph horiz-adv-x="697" d="M 39 0 L 39 0 Z M 373 378 L 658 378 L 658 140 C 633 96 596 60 547 32 C 497 4 438 -10 370 -10 C 322 -10 278 -1 238 16 C 198 33 163 58 134 90 C 104 122 81 162 64 209 C 47 255 39 307 39 365 C 39 422 47 474 64 521 C 81 567 104 607 134 639 C 164 671 199 696 240 714 C 280 731 324 740 371 740 C 440 740 494 727 533 703 C 571 678 600 651 619 621 L 528 547 C 513 566 493 584 469 600 C 445 616 412 624 370 624 C 312 624 264 602 226 558 C 188 514 169 450 169 366 C 169 281 188 215 227 168 C 266 120 316 97 376 97 C 415 97 449 104 479 118 C 508 132 529 152 543 177 L 543 269 L 373 269 L 373 378 Z M 371 788 L 371 788 Z M 432 949 L 531 949 C 527 893 510 852 481 826 C 451 800 415 788 371 788 C 327 788 290 800 261 826 C 231 852 215 893 211 949 L 310 949 C 312 922 317 901 326 886 C 335 871 350 864 371 864 C 391 864 406 871 416 885 C 425 899 430 921 432 949 Z" unicode="Ğ" />
<glyph horiz-adv-x="550" d="M 30 0 L 30 0 Z M 235 6 C 175 6 126 28 88 73 C 49 117 30 176 30 250 C 30 327 49 388 89 434 C 128 480 178 503 238 503 C 272 503 302 495 328 479 C 354 463 372 444 383 423 L 383 494 L 493 494 L 493 41 C 493 0 486 -34 472 -64 C 458 -94 439 -118 417 -138 C 394 -157 368 -171 338 -181 C 308 -190 278 -195 248 -195 C 197 -195 156 -189 126 -179 C 96 -169 73 -159 59 -149 L 104 -59 C 116 -67 134 -76 157 -85 C 180 -93 207 -98 238 -98 C 278 -98 311 -86 337 -64 C 363 -42 377 -10 377 32 L 377 93 C 368 72 351 52 326 34 C 301 15 271 6 235 6 Z M 269 98 C 299 98 325 111 347 137 C 369 163 380 202 380 254 C 380 302 369 339 348 365 C 327 391 300 404 266 404 C 232 404 205 390 185 363 C 164 336 154 298 154 249 C 154 200 164 163 184 137 C 204 111 232 98 269 98 Z M 257 552 L 257 552 Z M 318 713 L 417 713 C 413 657 396 616 367 590 C 337 564 301 552 257 552 C 213 552 176 564 147 590 C 117 616 101 657 97 713 L 196 713 C 198 686 203 665 212 650 C 221 635 236 628 257 628 C 277 628 292 635 302 649 C 311 663 316 685 318 713 Z" unicode="ğ" />
<glyph horiz-adv-x="697" d="M 39 0 L 39 0 Z M 373 378 L 658 378 L 658 140 C 633 96 596 60 547 32 C 497 4 438 -10 370 -10 C 322 -10 278 -1 238 16 C 198 33 163 58 134 90 C 104 122 81 162 64 209 C 47 255 39 307 39 365 C 39 422 47 474 64 521 C 81 567 104 607 134 639 C 164 671 199 696 240 714 C 280 731 324 740 371 740 C 440 740 494 727 533 703 C 571 678 600 651 619 621 L 528 547 C 513 566 493 584 469 600 C 445 616 412 624 370 624 C 312 624 264 602 226 558 C 188 514 169 450 169 366 C 169 281 188 215 227 168 C 266 120 316 97 376 97 C 415 97 449 104 479 118 C 508 132 529 152 543 177 L 543 269 L 373 269 L 373 378 Z M 371 790 L 371 790 Z M 426 790 L 317 790 L 317 943 L 426 943 L 426 790 Z" unicode="Ġ" />
<glyph horiz-adv-x="550" d="M 30 0 L 30 0 Z M 235 6 C 175 6 126 28 88 73 C 49 117 30 176 30 250 C 30 327 49 388 89 434 C 128 480 178 503 238 503 C 272 503 302 495 328 479 C 354 463 372 444 383 423 L 383 494 L 493 494 L 493 41 C 493 0 486 -34 472 -64 C 458 -94 439 -118 417 -138 C 394 -157 368 -171 338 -181 C 308 -190 278 -195 248 -195 C 197 -195 156 -189 126 -179 C 96 -169 73 -159 59 -149 L 104 -59 C 116 -67 134 -76 157 -85 C 180 -93 207 -98 238 -98 C 278 -98 311 -86 337 -64 C 363 -42 377 -10 377 32 L 377 93 C 368 72 351 52 326 34 C 301 15 271 6 235 6 Z M 269 98 C 299 98 325 111 347 137 C 369 163 380 202 380 254 C 380 302 369 339 348 365 C 327 391 300 404 266 404 C 232 404 205 390 185 363 C 164 336 154 298 154 249 C 154 200 164 163 184 137 C 204 111 232 98 269 98 Z M 257 554 L 257 554 Z M 312 554 L 203 554 L 203 707 L 312 707 L 312 554 Z" unicode="ġ" />
<glyph horiz-adv-x="697" d="M 39 0 L 39 0 Z M 373 378 L 658 378 L 658 140 C 633 96 596 60 547 32 C 497 4 438 -10 370 -10 C 322 -10 278 -1 238 16 C 198 33 163 58 134 90 C 104 122 81 162 64 209 C 47 255 39 307 39 365 C 39 422 47 474 64 521 C 81 567 104 607 134 639 C 164 671 199 696 240 714 C 280 731 324 740 371 740 C 440 740 494 727 533 703 C 571 678 600 651 619 621 L 528 547 C 513 566 493 584 469 600 C 445 616 412 624 370 624 C 312 624 264 602 226 558 C 188 514 169 450 169 366 C 169 281 188 215 227 168 C 266 120 316 97 376 97 C 415 97 449 104 479 118 C 508 132 529 152 543 177 L 543 269 L 373 269 L 373 378 Z" unicode="Ģ" />
<glyph horiz-adv-x="550" d="M 30 0 L 30 0 Z M 235 6 C 175 6 126 28 88 73 C 49 117 30 176 30 250 C 30 327 49 388 89 434 C 128 480 178 503 238 503 C 272 503 302 495 328 479 C 354 463 372 444 383 423 L 383 494 L 493 494 L 493 41 C 493 0 486 -34 472 -64 C 458 -94 439 -118 417 -138 C 394 -157 368 -171 338 -181 C 308 -190 278 -195 248 -195 C 197 -195 156 -189 126 -179 C 96 -169 73 -159 59 -149 L 104 -59 C 116 -67 134 -76 157 -85 C 180 -93 207 -98 238 -98 C 278 -98 311 -86 337 -64 C 363 -42 377 -10 377 32 L 377 93 C 368 72 351 52 326 34 C 301 15 271 6 235 6 Z M 269 98 C 299 98 325 111 347 137 C 369 163 380 202 380 254 C 380 302 369 339 348 365 C 327 391 300 404 266 404 C 232 404 205 390 185 363 C 164 336 154 298 154 249 C 154 200 164 163 184 137 C 204 111 232 98 269 98 Z" unicode="ģ" />
<glyph horiz-adv-x="694" d="M 77 0 L 77 0 Z M 617 0 L 487 0 L 487 303 L 207 303 L 207 0 L 77 0 L 77 730 L 207 730 L 207 417 L 487 417 L 487 730 L 617 730 L 617 0 Z M 346 787 L 346 787 Z M 519 787 L 412 787 L 346 881 L 279 787 L 174 787 L 289 959 L 404 959 L 519 787 Z" unicode="Ĥ" />
<glyph horiz-adv-x="536" d="M 58 0 L 58 0 Z M 482 0 L 362 0 L 362 327 C 362 351 354 369 339 383 C 323 397 303 404 279 404 C 253 404 229 396 209 380 C 188 364 178 341 178 309 L 178 0 L 58 0 L 58 775 L 170 775 L 170 418 C 178 442 196 462 222 479 C 248 495 281 504 323 504 C 368 504 406 491 436 466 C 466 441 482 405 482 358 L 482 0 Z M 286 832 L 286 832 Z M 459 832 L 352 832 L 286 926 L 219 832 L 114 832 L 229 1004 L 344 1004 L 459 832 Z" unicode="ĥ" />
<glyph horiz-adv-x="694" d="M 207 303 L 207 0 L 77 0 L 77 538 L 8 538 L 8 632 L 77 632 L 77 730 L 207 730 L 207 632 L 487 632 L 487 730 L 617 730 L 617 632 L 686 632 L 686 538 L 617 538 L 617 0 L 487 0 L 487 303 L 207 303 Z M 207 417 L 487 417 L 487 538 L 207 538 L 207 417 Z" unicode="Ħ" />
<glyph horiz-adv-x="536" d="M 178 309 L 178 0 L 58 0 L 58 583 L 9 583 L 9 677 L 58 677 L 58 775 L 170 775 L 170 677 L 299 677 L 299 583 L 170 583 L 170 418 C 178 442 196 462 222 479 C 248 495 281 504 323 504 C 368 504 406 491 436 466 C 466 441 482 405 482 358 L 482 0 L 362 0 L 362 327 C 362 351 354 369 339 383 C 323 397 303 404 279 404 C 253 404 229 396 209 380 C 188 364 178 341 178 309 Z" unicode="ħ" />
<glyph horiz-adv-x="292" d="M 0 0 L 0 0 Z M 212 0 L 81 0 L 81 730 L 212 730 L 212 0 Z M 146 791 L 146 791 Z M 227 938 L 318 938 C 318 888 310 851 295 827 C 280 803 260 791 236 791 C 217 791 201 794 187 800 C 173 806 161 813 151 819 C 141 825 132 831 123 837 C 114 843 105 846 97 846 C 88 846 81 841 75 832 C 69 822 67 810 67 794 L -24 794 C -24 843 -14 880 6 904 C 26 928 47 941 69 941 C 86 941 101 937 113 931 C 125 925 137 918 148 911 C 156 904 165 898 173 893 C 181 888 188 886 196 886 C 203 886 210 890 216 899 C 222 908 226 921 227 938 Z" unicode="Ĩ" />
<glyph horiz-adv-x="243" d="M 0 0 L 0 0 Z M 182 0 L 61 0 L 61 494 L 182 494 L 182 0 Z M 121 555 L 121 555 Z M 202 702 L 293 702 C 293 652 285 615 270 591 C 255 567 235 555 211 555 C 192 555 176 558 162 564 C 148 570 136 577 126 583 C 116 589 107 595 98 601 C 89 607 80 610 72 610 C 63 610 56 605 50 596 C 44 586 42 574 42 558 L -49 558 C -49 607 -39 644 -19 668 C 1 692 22 705 44 705 C 61 705 76 701 88 695 C 100 689 112 682 123 675 C 131 668 140 662 148 657 C 156 652 163 650 171 650 C 178 650 185 654 191 663 C 197 672 201 685 202 702 Z" unicode="ĩ" />
<glyph horiz-adv-x="292" d="M 11 0 L 11 0 Z M 212 0 L 81 0 L 81 730 L 212 730 L 212 0 Z M 146 799 L 146 799 Z M 281 799 L 11 799 L 11 893 L 281 893 L 281 799 Z" unicode="Ī" />
<glyph horiz-adv-x="243" d="M 0 0 L 0 0 Z M 182 0 L 61 0 L 61 494 L 182 494 L 182 0 Z M 121 563 L 121 563 Z M 256 563 L -14 563 L -14 657 L 256 657 L 256 563 Z" unicode="ī" />
<glyph horiz-adv-x="292" d="M 0 0 L 0 0 Z M 212 0 L 81 0 L 81 730 L 212 730 L 212 0 Z M 146 788 L 146 788 Z M 207 949 L 306 949 C 302 893 285 852 256 826 C 226 800 190 788 146 788 C 102 788 65 800 36 826 C 6 852 -10 893 -14 949 L 85 949 C 87 922 92 901 101 886 C 110 871 125 864 146 864 C 166 864 181 871 191 885 C 200 899 205 921 207 949 Z" unicode="Ĭ" />
<glyph horiz-adv-x="243" d="M 0 0 L 0 0 Z M 182 0 L 61 0 L 61 494 L 182 494 L 182 0 Z M 121 552 L 121 552 Z M 182 713 L 281 713 C 277 657 260 616 231 590 C 201 564 165 552 121 552 C 77 552 40 564 11 590 C -18 616 -35 657 -39 713 L 60 713 C 62 686 67 665 76 650 C 85 635 100 628 121 628 C 141 628 156 635 166 649 C 175 663 180 685 182 713 Z" unicode="ĭ" />
<glyph horiz-adv-x="292" d="M 0 0 L 0 0 Z M 212 0 L 81 0 L 81 730 L 212 730 L 212 0 Z M 101 -7 L 101 -7 Z M 201 -82 L 234 -133 C 212 -155 189 -171 164 -182 C 139 -193 111 -199 80 -199 C 45 -199 18 -191 -1 -177 C -21 -162 -31 -143 -31 -121 C -31 -96 -20 -73 0 -51 C 21 -29 51 -11 89 4 L 149 4 C 125 -7 106 -19 92 -33 C 78 -46 71 -59 71 -72 C 71 -84 75 -93 84 -100 C 93 -107 105 -111 120 -111 C 136 -111 152 -108 166 -103 C 180 -97 191 -90 201 -82 Z" unicode="Į" />
<glyph horiz-adv-x="243" d="M 0 0 L 0 0 Z M 60 580 L 60 697 L 184 697 L 184 580 L 60 580 Z M 61 0 L 61 494 L 182 494 L 182 0 L 61 0 Z M 82 -6 L 82 -6 Z M 182 -81 L 215 -132 C 193 -154 170 -170 145 -181 C 120 -192 92 -198 61 -198 C 26 -198 0 -190 -20 -176 C -40 -161 -50 -142 -50 -120 C -50 -95 -39 -72 -18 -50 C 2 -28 32 -10 70 5 L 130 5 C 106 -6 87 -18 73 -32 C 59 -45 52 -58 52 -71 C 52 -83 56 -92 65 -99 C 74 -106 86 -110 101 -110 C 117 -110 133 -107 147 -102 C 161 -96 172 -89 182 -81 Z" unicode="į" />
<glyph horiz-adv-x="292" d="M 81 0 L 81 0 Z M 212 0 L 81 0 L 81 730 L 212 730 L 212 0 Z M 146 790 L 146 790 Z M 201 790 L 92 790 L 92 943 L 201 943 L 201 790 Z" unicode="İ" />
<glyph horiz-adv-x="243" d="M 182 0 L 61 0 L 61 494 L 182 494 L 182 0 Z" unicode="ı" />
<glyph horiz-adv-x="613" d="M 81 0 L 81 0 Z M 212 0 L 81 0 L 81 730 L 212 730 L 212 0 Z M 543 730 L 543 194 C 543 165 538 138 529 113 C 520 88 507 66 490 48 C 473 30 452 15 427 5 C 402 -5 373 -11 341 -11 C 323 -11 305 -9 286 -7 C 266 -4 251 0 241 6 L 261 114 C 267 111 276 109 289 107 C 302 105 314 104 324 104 C 354 104 377 113 393 133 C 409 152 417 175 417 202 L 417 730 L 543 730 Z" unicode="Ĳ" />
<glyph horiz-adv-x="462" d="M 60 0 L 60 0 Z M 60 580 L 60 697 L 184 697 L 184 580 L 60 580 Z M 61 0 L 61 494 L 182 494 L 182 0 L 61 0 Z M 411 580 L 287 580 L 287 697 L 411 697 L 411 580 Z M 409 494 L 409 -42 C 409 -87 395 -124 368 -153 C 341 -182 305 -197 261 -197 C 243 -197 224 -195 204 -191 C 184 -187 169 -182 159 -176 L 179 -85 C 185 -87 194 -90 204 -92 C 214 -94 225 -96 237 -96 C 252 -96 264 -89 274 -77 C 284 -64 289 -47 289 -27 L 289 494 L 409 494 Z" unicode="ĳ" />
<glyph horiz-adv-x="376" d="M 6 0 L 6 0 Z M 308 730 L 308 194 C 308 165 303 138 294 113 C 285 88 272 66 255 48 C 238 30 217 15 192 5 C 167 -5 138 -11 106 -11 C 88 -11 70 -9 51 -7 C 31 -4 16 0 6 6 L 26 114 C 32 111 41 109 54 107 C 67 105 79 104 89 104 C 119 104 142 113 158 133 C 174 152 182 175 182 202 L 182 730 L 308 730 Z M 242 787 L 242 787 Z M 415 787 L 308 787 L 242 881 L 175 787 L 70 787 L 185 959 L 300 959 L 415 787 Z" unicode="Ĵ" />
<glyph horiz-adv-x="254" d="M 0 0 L 0 0 Z M 198 494 L 198 -42 C 198 -87 184 -124 157 -153 C 130 -182 94 -197 50 -197 C 32 -197 13 -195 -6 -191 C -26 -187 -41 -182 -52 -176 L -32 -85 C -25 -87 -17 -90 -7 -92 C 3 -94 14 -96 26 -96 C 41 -96 53 -89 63 -77 C 73 -64 78 -47 78 -27 L 78 494 L 198 494 Z M 136 551 L 136 551 Z M 309 551 L 202 551 L 136 645 L 69 551 L -36 551 L 79 723 L 194 723 L 309 551 Z" unicode="ĵ" />
<glyph horiz-adv-x="638" d="M 77 0 L 77 0 Z M 641 0 L 484 0 L 265 303 L 207 233 L 207 0 L 77 0 L 77 730 L 207 730 L 207 391 L 465 730 L 611 730 L 352 399 L 641 0 Z M 321 -69 L 321 -69 Z M 423 -69 C 421 -95 417 -123 409 -151 C 401 -179 392 -205 381 -229 C 370 -253 358 -275 346 -295 C 333 -315 321 -329 309 -339 L 219 -298 C 226 -289 234 -276 243 -260 C 251 -243 259 -224 267 -204 C 275 -184 281 -162 287 -138 C 293 -114 297 -91 299 -69 L 423 -69 Z" unicode="Ķ" />
<glyph horiz-adv-x="503" d="M 58 0 L 58 0 Z M 522 1 L 386 0 L 242 201 L 177 127 L 177 0 L 58 0 L 58 775 L 174 775 L 174 256 L 362 494 L 492 494 L 322 285 L 522 1 Z M 253 -69 L 253 -69 Z M 355 -69 C 353 -95 349 -123 341 -151 C 333 -179 324 -205 313 -229 C 302 -253 290 -275 278 -295 C 265 -315 253 -329 241 -339 L 151 -298 C 158 -289 166 -276 175 -260 C 183 -243 191 -224 199 -204 C 207 -184 213 -162 219 -138 C 225 -114 229 -91 231 -69 L 355 -69 Z" unicode="ķ" />
<glyph horiz-adv-x="503" d="M 522 1 L 386 0 L 242 201 L 177 127 L 177 0 L 58 0 L 58 494 L 174 494 L 174 256 L 362 494 L 492 494 L 322 285 L 522 1 Z" unicode="ĸ" />
<glyph horiz-adv-x="475" d="M 77 0 L 77 0 Z M 466 0 L 77 0 L 77 730 L 207 730 L 207 113 L 466 113 L 466 0 Z M 292 789 L 292 789 Z M 172 789 L 271 954 L 412 954 L 291 789 L 172 789 Z" unicode="Ĺ" />
<glyph horiz-adv-x="236" d="M 58 0 L 58 0 Z M 181 834 L 181 834 Z M 61 834 L 160 999 L 301 999 L 180 834 L 61 834 Z M 178 775 L 178 0 L 58 0 L 58 775 L 178 775 Z" unicode="ĺ" />
<glyph horiz-adv-x="475" d="M 77 0 L 77 0 Z M 466 0 L 77 0 L 77 730 L 207 730 L 207 113 L 466 113 L 466 0 Z M 257 -69 L 257 -69 Z M 359 -69 C 357 -95 353 -123 345 -151 C 337 -179 328 -205 317 -229 C 306 -253 294 -275 282 -295 C 269 -315 257 -329 245 -339 L 155 -298 C 162 -289 170 -276 179 -260 C 187 -243 195 -224 203 -204 C 211 -184 217 -162 223 -138 C 229 -114 233 -91 235 -69 L 359 -69 Z" unicode="Ļ" />
<glyph horiz-adv-x="236" d="M 0 0 L 0 0 Z M 178 775 L 178 0 L 58 0 L 58 775 L 178 775 Z M 90 -69 L 90 -69 Z M 192 -69 C 190 -95 186 -123 178 -151 C 170 -179 161 -205 150 -229 C 139 -253 127 -275 115 -295 C 102 -315 90 -329 78 -339 L -12 -298 C -4 -289 3 -276 12 -260 C 20 -243 28 -224 36 -204 C 44 -184 50 -162 56 -138 C 62 -114 66 -91 68 -69 L 192 -69 Z" unicode="ļ" />
<glyph horiz-adv-x="475" d="M 77 0 L 77 0 Z M 466 0 L 77 0 L 77 730 L 207 730 L 207 113 L 466 113 L 466 0 Z M 478 612 L 473 460 L 371 460 L 366 612 L 366 730 L 478 730 L 478 612 Z" unicode="Ľ" />
<glyph horiz-adv-x="236" d="M 58 0 L 58 0 Z M 178 775 L 178 0 L 58 0 L 58 775 L 178 775 Z M 334 612 L 329 460 L 227 460 L 222 612 L 222 730 L 334 730 L 334 612 Z" unicode="ľ" />
<glyph horiz-adv-x="475" d="M 77 0 L 77 0 Z M 466 0 L 77 0 L 77 730 L 207 730 L 207 113 L 466 113 L 466 0 Z M 350 286 L 350 286 Z M 405 286 L 296 286 L 296 439 L 405 439 L 405 286 Z" unicode="Ŀ" />
<glyph horiz-adv-x="236" d="M 58 0 L 58 0 Z M 178 775 L 178 0 L 58 0 L 58 775 L 178 775 Z M 278 207 L 278 207 Z M 333 207 L 224 207 L 224 360 L 333 360 L 333 207 Z" unicode="ŀ" />
<glyph horiz-adv-x="475" d="M 456 109 L 456 0 L 77 0 L 77 258 L 32 239 L -11 329 L 77 366 L 77 730 L 207 730 L 207 420 L 348 479 L 388 389 L 207 313 L 207 109 L 456 109 Z" unicode="Ł" />
<glyph horiz-adv-x="236" d="M 260 349 L 183 312 L 183 0 L 63 0 L 63 255 L 21 235 L -13 314 L 63 350 L 63 775 L 183 775 L 183 407 L 226 428 L 260 349 Z" unicode="ł" />
<glyph horiz-adv-x="700" d="M 77 0 L 77 0 Z M 623 0 L 533 0 L 199 479 L 199 0 L 77 0 L 77 730 L 173 730 L 504 255 L 503 730 L 623 730 L 623 0 Z M 350 789 L 350 789 Z M 230 789 L 329 954 L 470 954 L 349 789 L 230 789 Z" unicode="Ń" />
<glyph horiz-adv-x="536" d="M 58 0 L 58 0 Z M 482 0 L 362 0 L 362 329 C 362 352 354 370 339 384 C 323 397 303 404 279 404 C 253 404 229 396 209 380 C 188 364 178 340 178 306 L 178 0 L 58 0 L 58 494 L 167 494 L 167 414 C 177 440 196 462 224 479 C 252 495 285 504 323 504 C 369 504 407 491 437 466 C 467 440 482 405 482 361 L 482 0 Z M 276 553 L 276 553 Z M 156 553 L 255 718 L 396 718 L 275 553 L 156 553 Z" unicode="ń" />
<glyph horiz-adv-x="700" d="M 77 0 L 77 0 Z M 623 0 L 533 0 L 199 479 L 199 0 L 77 0 L 77 730 L 173 730 L 504 255 L 503 730 L 623 730 L 623 0 Z M 333 -69 L 333 -69 Z M 435 -69 C 433 -95 429 -123 421 -151 C 413 -179 404 -205 393 -229 C 382 -253 370 -275 358 -295 C 345 -315 333 -329 321 -339 L 231 -298 C 238 -289 246 -276 255 -260 C 263 -243 271 -224 279 -204 C 287 -184 293 -162 299 -138 C 305 -114 309 -91 311 -69 L 435 -69 Z" unicode="Ņ" />
<glyph horiz-adv-x="536" d="M 58 0 L 58 0 Z M 482 0 L 362 0 L 362 329 C 362 352 354 370 339 384 C 323 397 303 404 279 404 C 253 404 229 396 209 380 C 188 364 178 340 178 306 L 178 0 L 58 0 L 58 494 L 167 494 L 167 414 C 177 440 196 462 224 479 C 252 495 285 504 323 504 C 369 504 407 491 437 466 C 467 440 482 405 482 361 L 482 0 Z M 248 -69 L 248 -69 Z M 350 -69 C 348 -95 344 -123 336 -151 C 328 -179 319 -205 308 -229 C 297 -253 285 -275 273 -295 C 260 -315 248 -329 236 -339 L 146 -298 C 153 -289 161 -276 170 -260 C 178 -243 186 -224 194 -204 C 202 -184 208 -162 214 -138 C 220 -114 224 -91 226 -69 L 350 -69 Z" unicode="ņ" />
<glyph horiz-adv-x="700" d="M 77 0 L 77 0 Z M 623 0 L 533 0 L 199 479 L 199 0 L 77 0 L 77 730 L 173 730 L 504 255 L 503 730 L 623 730 L 623 0 Z M 350 787 L 350 787 Z M 178 959 L 285 959 L 351 865 L 418 959 L 523 959 L 408 787 L 293 787 L 178 959 Z" unicode="Ň" />
<glyph horiz-adv-x="536" d="M 58 0 L 58 0 Z M 482 0 L 362 0 L 362 329 C 362 352 354 370 339 384 C 323 397 303 404 279 404 C 253 404 229 396 209 380 C 188 364 178 340 178 306 L 178 0 L 58 0 L 58 494 L 167 494 L 167 414 C 177 440 196 462 224 479 C 252 495 285 504 323 504 C 369 504 407 491 437 466 C 467 440 482 405 482 361 L 482 0 Z M 276 551 L 276 551 Z M 104 723 L 211 723 L 277 629 L 344 723 L 449 723 L 334 551 L 219 551 L 104 723 Z" unicode="ň" />
<glyph horiz-adv-x="703" d="M 503 730 L 623 730 L 623 0 L 623 0 C 622 -59 605 -107 572 -144 C 539 -180 494 -199 438 -199 C 418 -199 397 -197 377 -194 C 357 -190 340 -185 328 -179 L 346 -72 C 354 -76 365 -79 380 -82 C 395 -84 409 -86 422 -86 C 446 -86 466 -76 481 -57 C 496 -37 504 -14 504 14 L 504 42 L 199 479 L 199 0 L 77 0 L 77 730 L 173 730 L 504 255 L 503 730 Z" unicode="Ŋ" />
<glyph horiz-adv-x="536" d="M 323 504 C 369 504 407 491 437 466 C 467 440 482 405 482 361 L 482 -35 C 482 -83 468 -123 440 -154 C 412 -185 375 -201 327 -201 C 310 -201 292 -199 272 -196 C 252 -192 236 -188 225 -182 L 244 -87 C 250 -89 259 -92 269 -94 C 279 -96 291 -98 303 -98 C 321 -98 335 -90 346 -75 C 356 -60 362 -41 362 -18 L 362 329 C 362 352 354 370 339 384 C 323 397 303 404 279 404 C 253 404 229 396 209 380 C 188 364 178 340 178 306 L 178 0 L 58 0 L 58 494 L 167 494 L 167 414 C 177 440 196 462 224 479 C 252 495 285 504 323 504 Z" unicode="ŋ" />
<glyph horiz-adv-x="747" d="M 39 0 L 39 0 Z M 376 -10 C 324 -10 277 0 235 17 C 193 35 158 61 129 94 C 100 127 78 167 62 214 C 46 261 39 313 39 370 C 39 424 47 474 64 520 C 80 566 103 605 133 637 C 162 669 197 695 237 713 C 277 731 321 740 369 740 C 419 740 466 731 508 714 C 550 696 585 672 615 640 C 644 608 667 568 683 522 C 699 476 708 424 708 367 C 708 310 699 258 682 212 C 664 165 641 125 611 93 C 581 60 546 35 506 17 C 465 -1 422 -10 376 -10 Z M 378 102 C 436 102 483 124 520 169 C 557 213 576 280 576 369 C 576 450 556 513 518 558 C 479 603 429 626 369 626 C 310 626 262 604 226 561 C 189 518 171 454 171 368 C 171 324 176 285 186 252 C 196 218 211 191 229 169 C 247 147 269 130 295 119 C 321 107 348 102 378 102 Z M 371 799 L 371 799 Z M 506 799 L 236 799 L 236 893 L 506 893 L 506 799 Z" unicode="Ō" />
<glyph horiz-adv-x="540" d="M 29 0 L 29 0 Z M 267 -9 C 235 -9 205 -3 177 7 C 148 18 123 34 101 56 C 79 78 61 104 48 136 C 35 168 29 204 29 246 C 29 283 35 317 48 349 C 60 381 77 408 99 431 C 120 453 145 471 174 484 C 202 497 233 504 266 504 C 300 504 332 498 362 487 C 392 475 418 459 440 438 C 462 417 479 391 492 361 C 505 331 512 297 512 259 C 512 219 505 182 493 149 C 480 116 463 88 441 65 C 419 41 393 23 363 10 C 333 -2 301 -9 267 -9 Z M 270 91 C 306 91 334 104 355 132 C 376 160 387 200 387 253 C 387 301 376 338 354 364 C 332 390 303 403 265 403 C 231 403 204 389 184 363 C 164 336 154 297 154 247 C 154 193 165 153 187 128 C 209 103 236 91 270 91 Z M 267 563 L 267 563 Z M 402 563 L 132 563 L 132 657 L 402 657 L 402 563 Z" unicode="ō" />
<glyph horiz-adv-x="747" d="M 39 0 L 39 0 Z M 376 -10 C 324 -10 277 0 235 17 C 193 35 158 61 129 94 C 100 127 78 167 62 214 C 46 261 39 313 39 370 C 39 424 47 474 64 520 C 80 566 103 605 133 637 C 162 669 197 695 237 713 C 277 731 321 740 369 740 C 419 740 466 731 508 714 C 550 696 585 672 615 640 C 644 608 667 568 683 522 C 699 476 708 424 708 367 C 708 310 699 258 682 212 C 664 165 641 125 611 93 C 581 60 546 35 506 17 C 465 -1 422 -10 376 -10 Z M 378 102 C 436 102 483 124 520 169 C 557 213 576 280 576 369 C 576 450 556 513 518 558 C 479 603 429 626 369 626 C 310 626 262 604 226 561 C 189 518 171 454 171 368 C 171 324 176 285 186 252 C 196 218 211 191 229 169 C 247 147 269 130 295 119 C 321 107 348 102 378 102 Z M 371 788 L 371 788 Z M 432 949 L 531 949 C 527 893 510 852 481 826 C 451 800 415 788 371 788 C 327 788 290 800 261 826 C 231 852 215 893 211 949 L 310 949 C 312 922 317 901 326 886 C 335 871 350 864 371 864 C 391 864 406 871 416 885 C 425 899 430 921 432 949 Z" unicode="Ŏ" />
<glyph horiz-adv-x="540" d="M 29 0 L 29 0 Z M 267 -9 C 235 -9 205 -3 177 7 C 148 18 123 34 101 56 C 79 78 61 104 48 136 C 35 168 29 204 29 246 C 29 283 35 317 48 349 C 60 381 77 408 99 431 C 120 453 145 471 174 484 C 202 497 233 504 266 504 C 300 504 332 498 362 487 C 392 475 418 459 440 438 C 462 417 479 391 492 361 C 505 331 512 297 512 259 C 512 219 505 182 493 149 C 480 116 463 88 441 65 C 419 41 393 23 363 10 C 333 -2 301 -9 267 -9 Z M 270 91 C 306 91 334 104 355 132 C 376 160 387 200 387 253 C 387 301 376 338 354 364 C 332 390 303 403 265 403 C 231 403 204 389 184 363 C 164 336 154 297 154 247 C 154 193 165 153 187 128 C 209 103 236 91 270 91 Z M 267 552 L 267 552 Z M 328 713 L 427 713 C 423 657 406 616 377 590 C 347 564 311 552 267 552 C 223 552 186 564 157 590 C 127 616 111 657 107 713 L 206 713 C 208 686 213 665 222 650 C 231 635 246 628 267 628 C 287 628 302 635 312 649 C 321 663 326 685 328 713 Z" unicode="ŏ" />
<glyph horiz-adv-x="747" d="M 39 0 L 39 0 Z M 376 -10 C 324 -10 277 0 235 17 C 193 35 158 61 129 94 C 100 127 78 167 62 214 C 46 261 39 313 39 370 C 39 424 47 474 64 520 C 80 566 103 605 133 637 C 162 669 197 695 237 713 C 277 731 321 740 369 740 C 419 740 466 731 508 714 C 550 696 585 672 615 640 C 644 608 667 568 683 522 C 699 476 708 424 708 367 C 708 310 699 258 682 212 C 664 165 641 125 611 93 C 581 60 546 35 506 17 C 465 -1 422 -10 376 -10 Z M 378 102 C 436 102 483 124 520 169 C 557 213 576 280 576 369 C 576 450 556 513 518 558 C 479 603 429 626 369 626 C 310 626 262 604 226 561 C 189 518 171 454 171 368 C 171 324 176 285 186 252 C 196 218 211 191 229 169 C 247 147 269 130 295 119 C 321 107 348 102 378 102 Z M 371 786 L 371 786 Z M 166 786 L 252 942 L 379 942 L 271 786 L 166 786 Z M 364 786 L 450 942 L 577 942 L 469 786 L 364 786 Z" unicode="Ő" />
<glyph horiz-adv-x="540" d="M 29 0 L 29 0 Z M 267 -9 C 235 -9 205 -3 177 7 C 148 18 123 34 101 56 C 79 78 61 104 48 136 C 35 168 29 204 29 246 C 29 283 35 317 48 349 C 60 381 77 408 99 431 C 120 453 145 471 174 484 C 202 497 233 504 266 504 C 300 504 332 498 362 487 C 392 475 418 459 440 438 C 462 417 479 391 492 361 C 505 331 512 297 512 259 C 512 219 505 182 493 149 C 480 116 463 88 441 65 C 419 41 393 23 363 10 C 333 -2 301 -9 267 -9 Z M 270 91 C 306 91 334 104 355 132 C 376 160 387 200 387 253 C 387 301 376 338 354 364 C 332 390 303 403 265 403 C 231 403 204 389 184 363 C 164 336 154 297 154 247 C 154 193 165 153 187 128 C 209 103 236 91 270 91 Z M 267 550 L 267 550 Z M 62 550 L 148 706 L 275 706 L 167 550 L 62 550 Z M 260 550 L 346 706 L 473 706 L 365 550 L 260 550 Z" unicode="ő" />
<glyph horiz-adv-x="1023" d="M 356 -10 C 308 -10 264 -1 225 17 C 185 35 152 60 125 93 C 97 125 76 165 61 212 C 46 259 39 312 39 370 C 39 424 47 474 64 520 C 80 566 103 605 132 637 C 160 669 194 695 234 713 C 273 731 315 740 361 740 C 383 740 405 737 427 731 C 449 725 469 718 488 708 C 507 698 524 686 538 672 C 552 658 563 644 570 628 L 570 730 L 967 730 L 967 619 L 693 619 L 693 416 L 952 416 L 952 308 L 693 308 L 693 111 L 987 111 L 987 0 L 570 0 L 570 114 C 556 80 530 51 492 27 C 454 2 408 -10 356 -10 Z M 372 96 C 429 96 476 118 514 163 C 551 208 570 277 570 369 C 570 413 564 451 552 484 C 540 517 525 544 507 566 C 489 588 467 604 443 615 C 419 625 394 631 370 631 C 312 631 264 609 227 565 C 190 521 172 455 172 365 C 172 273 191 206 229 162 C 267 118 314 96 372 96 Z" unicode="Œ" />
<glyph horiz-adv-x="872" d="M 266 -9 C 234 -9 203 -3 174 8 C 145 19 120 35 99 57 C 77 79 60 106 48 138 C 35 170 29 206 29 246 C 29 283 35 317 47 349 C 59 381 76 408 98 431 C 119 453 144 471 173 484 C 202 497 233 504 266 504 C 292 504 315 500 335 494 C 355 488 373 480 388 470 C 403 460 415 449 425 437 C 435 425 442 413 447 401 C 451 411 458 423 468 435 C 478 447 490 459 505 469 C 520 479 537 487 557 494 C 577 500 598 504 622 504 C 694 504 749 478 789 427 C 828 375 848 304 849 213 L 504 213 C 504 177 516 148 540 124 C 564 100 595 89 633 89 C 665 89 692 94 712 106 C 732 118 749 131 763 146 L 828 76 C 808 53 783 33 753 16 C 723 0 681 -9 629 -9 C 604 -9 581 -6 561 0 C 540 6 522 13 506 23 C 490 33 477 44 467 56 C 456 68 448 79 444 91 C 439 80 431 69 421 57 C 411 45 398 34 383 24 C 368 14 351 6 331 0 C 311 -5 289 -9 266 -9 Z M 505 296 L 731 296 C 729 329 719 356 699 377 C 679 397 652 408 620 408 C 587 408 560 397 540 376 C 519 355 507 328 505 296 Z M 271 91 C 306 91 334 104 355 131 C 376 158 387 199 387 253 C 387 302 376 339 354 364 C 332 389 303 402 267 402 C 233 402 205 388 185 362 C 164 336 154 297 154 247 C 154 193 165 153 187 128 C 209 103 237 91 271 91 Z" unicode="œ" />
<glyph horiz-adv-x="587" d="M 77 0 L 77 0 Z M 77 0 L 77 730 L 301 730 C 330 730 358 725 384 717 C 410 708 432 695 451 678 C 470 661 485 640 496 615 C 507 589 513 560 513 528 C 513 498 509 472 501 448 C 493 424 482 404 469 387 C 456 370 441 356 424 346 C 407 336 389 329 371 326 L 369 322 L 578 0 L 433 0 L 251 289 L 203 289 L 203 0 L 77 0 Z M 202 396 L 276 396 C 306 396 332 406 353 426 C 374 446 385 474 385 512 C 385 548 374 575 354 594 C 334 613 309 623 280 623 L 202 623 L 202 396 Z M 285 789 L 285 789 Z M 165 789 L 264 954 L 405 954 L 284 789 L 165 789 Z" unicode="Ŕ" />
<glyph horiz-adv-x="402" d="M 58 0 L 58 0 Z M 405 473 L 356 369 C 344 379 331 387 318 391 C 305 395 291 398 277 398 C 253 398 231 388 210 370 C 188 352 178 325 178 289 L 178 0 L 58 0 L 58 494 L 170 494 L 170 409 C 177 431 193 453 218 473 C 242 493 273 504 310 504 C 330 504 349 501 365 495 C 381 489 395 481 405 473 Z M 235 553 L 235 553 Z M 115 553 L 214 718 L 355 718 L 234 553 L 115 553 Z" unicode="ŕ" />
<glyph horiz-adv-x="587" d="M 77 0 L 77 0 Z M 77 0 L 77 730 L 301 730 C 330 730 358 725 384 717 C 410 708 432 695 451 678 C 470 661 485 640 496 615 C 507 589 513 560 513 528 C 513 498 509 472 501 448 C 493 424 482 404 469 387 C 456 370 441 356 424 346 C 407 336 389 329 371 326 L 369 322 L 578 0 L 433 0 L 251 289 L 203 289 L 203 0 L 77 0 Z M 202 396 L 276 396 C 306 396 332 406 353 426 C 374 446 385 474 385 512 C 385 548 374 575 354 594 C 334 613 309 623 280 623 L 202 623 L 202 396 Z M 287 -69 L 287 -69 Z M 389 -69 C 387 -95 383 -123 375 -151 C 367 -179 358 -205 347 -229 C 336 -253 324 -275 312 -295 C 299 -315 287 -329 275 -339 L 185 -298 C 192 -289 200 -276 209 -260 C 217 -243 225 -224 233 -204 C 241 -184 247 -162 253 -138 C 259 -114 263 -91 265 -69 L 389 -69 Z" unicode="Ŗ" />
<glyph horiz-adv-x="402" d="M 58 0 L 58 0 Z M 405 473 L 356 369 C 344 379 331 387 318 391 C 305 395 291 398 277 398 C 253 398 231 388 210 370 C 188 352 178 325 178 289 L 178 0 L 58 0 L 58 494 L 170 494 L 170 409 C 177 431 193 453 218 473 C 242 493 273 504 310 504 C 330 504 349 501 365 495 C 381 489 395 481 405 473 Z M 212 -69 L 212 -69 Z M 314 -69 C 312 -95 308 -123 300 -151 C 292 -179 283 -205 272 -229 C 261 -253 249 -275 237 -295 C 224 -315 212 -329 200 -339 L 110 -298 C 117 -289 125 -276 134 -260 C 142 -243 150 -224 158 -204 C 166 -184 172 -162 178 -138 C 184 -114 188 -91 190 -69 L 314 -69 Z" unicode="ŗ" />
<glyph horiz-adv-x="587" d="M 77 0 L 77 0 Z M 77 0 L 77 730 L 301 730 C 330 730 358 725 384 717 C 410 708 432 695 451 678 C 470 661 485 640 496 615 C 507 589 513 560 513 528 C 513 498 509 472 501 448 C 493 424 482 404 469 387 C 456 370 441 356 424 346 C 407 336 389 329 371 326 L 369 322 L 578 0 L 433 0 L 251 289 L 203 289 L 203 0 L 77 0 Z M 202 396 L 276 396 C 306 396 332 406 353 426 C 374 446 385 474 385 512 C 385 548 374 575 354 594 C 334 613 309 623 280 623 L 202 623 L 202 396 Z M 285 787 L 285 787 Z M 113 959 L 220 959 L 286 865 L 353 959 L 458 959 L 343 787 L 228 787 L 113 959 Z" unicode="Ř" />
<glyph horiz-adv-x="402" d="M 58 0 L 58 0 Z M 405 473 L 356 369 C 344 379 331 387 318 391 C 305 395 291 398 277 398 C 253 398 231 388 210 370 C 188 352 178 325 178 289 L 178 0 L 58 0 L 58 494 L 170 494 L 170 409 C 177 431 193 453 218 473 C 242 493 273 504 310 504 C 330 504 349 501 365 495 C 381 489 395 481 405 473 Z M 235 551 L 235 551 Z M 63 723 L 170 723 L 236 629 L 303 723 L 408 723 L 293 551 L 178 551 L 63 723 Z" unicode="ř" />
<glyph horiz-adv-x="519" d="M 23 0 L 23 0 Z M 265 -10 C 212 -10 165 -2 125 12 C 85 26 51 49 23 80 L 97 171 C 114 149 137 131 167 117 C 196 103 227 96 260 96 C 288 96 313 104 333 120 C 353 136 364 158 364 186 C 364 213 354 236 335 255 C 315 273 282 294 236 317 C 176 344 130 375 96 409 C 62 443 46 491 46 553 C 46 609 66 654 107 688 C 147 722 199 740 262 740 C 308 740 347 733 380 719 C 413 705 441 688 464 669 L 398 574 C 379 589 358 602 336 612 C 313 622 289 628 264 628 C 236 628 214 620 196 606 C 178 592 170 573 170 550 C 170 524 179 502 199 485 C 218 468 254 447 308 422 C 371 392 417 360 445 326 C 473 292 488 247 488 192 C 488 159 481 130 469 105 C 457 79 440 58 420 41 C 399 24 375 11 348 3 C 321 -5 293 -10 265 -10 Z M 259 789 L 259 789 Z M 139 789 L 238 954 L 379 954 L 258 789 L 139 789 Z" unicode="Ś" />
<glyph horiz-adv-x="416" d="M 24 0 L 24 0 Z M 222 -10 C 178 -10 140 -4 106 8 C 72 20 45 36 24 56 L 78 135 C 96 120 117 108 143 99 C 168 90 192 86 215 86 C 233 86 249 90 261 100 C 273 109 280 121 280 137 C 280 152 271 165 255 175 C 239 185 213 197 179 210 C 135 224 100 244 76 268 C 52 292 40 325 40 365 C 40 405 56 438 89 464 C 121 490 162 504 211 504 C 251 504 285 498 314 487 C 342 476 365 465 381 453 L 332 369 C 317 379 300 388 280 396 C 260 404 239 409 218 409 C 200 409 185 405 171 398 C 157 391 151 381 151 368 C 151 354 157 343 169 335 C 181 326 207 314 247 300 C 293 282 329 262 354 239 C 378 215 391 183 391 141 C 391 117 386 95 377 77 C 368 58 356 42 341 29 C 325 16 307 6 287 0 C 266 -6 244 -10 222 -10 Z M 214 553 L 214 553 Z M 94 553 L 193 718 L 334 718 L 213 553 L 94 553 Z" unicode="ś" />
<glyph horiz-adv-x="519" d="M 23 0 L 23 0 Z M 265 -10 C 212 -10 165 -2 125 12 C 85 26 51 49 23 80 L 97 171 C 114 149 137 131 167 117 C 196 103 227 96 260 96 C 288 96 313 104 333 120 C 353 136 364 158 364 186 C 364 213 354 236 335 255 C 315 273 282 294 236 317 C 176 344 130 375 96 409 C 62 443 46 491 46 553 C 46 609 66 654 107 688 C 147 722 199 740 262 740 C 308 740 347 733 380 719 C 413 705 441 688 464 669 L 398 574 C 379 589 358 602 336 612 C 313 622 289 628 264 628 C 236 628 214 620 196 606 C 178 592 170 573 170 550 C 170 524 179 502 199 485 C 218 468 254 447 308 422 C 371 392 417 360 445 326 C 473 292 488 247 488 192 C 488 159 481 130 469 105 C 457 79 440 58 420 41 C 399 24 375 11 348 3 C 321 -5 293 -10 265 -10 Z M 259 787 L 259 787 Z M 432 787 L 325 787 L 259 881 L 192 787 L 87 787 L 202 959 L 317 959 L 432 787 Z" unicode="Ŝ" />
<glyph horiz-adv-x="416" d="M 24 0 L 24 0 Z M 222 -10 C 178 -10 140 -4 106 8 C 72 20 45 36 24 56 L 78 135 C 96 120 117 108 143 99 C 168 90 192 86 215 86 C 233 86 249 90 261 100 C 273 109 280 121 280 137 C 280 152 271 165 255 175 C 239 185 213 197 179 210 C 135 224 100 244 76 268 C 52 292 40 325 40 365 C 40 405 56 438 89 464 C 121 490 162 504 211 504 C 251 504 285 498 314 487 C 342 476 365 465 381 453 L 332 369 C 317 379 300 388 280 396 C 260 404 239 409 218 409 C 200 409 185 405 171 398 C 157 391 151 381 151 368 C 151 354 157 343 169 335 C 181 326 207 314 247 300 C 293 282 329 262 354 239 C 378 215 391 183 391 141 C 391 117 386 95 377 77 C 368 58 356 42 341 29 C 325 16 307 6 287 0 C 266 -6 244 -10 222 -10 Z M 214 551 L 214 551 Z M 387 551 L 280 551 L 214 645 L 147 551 L 42 551 L 157 723 L 272 723 L 387 551 Z" unicode="ŝ" />
<glyph horiz-adv-x="519" d="M 23 0 L 23 0 Z M 265 -10 C 212 -10 165 -2 125 12 C 85 26 51 49 23 80 L 97 171 C 114 149 137 131 167 117 C 196 103 227 96 260 96 C 288 96 313 104 333 120 C 353 136 364 158 364 186 C 364 213 354 236 335 255 C 315 273 282 294 236 317 C 176 344 130 375 96 409 C 62 443 46 491 46 553 C 46 609 66 654 107 688 C 147 722 199 740 262 740 C 308 740 347 733 380 719 C 413 705 441 688 464 669 L 398 574 C 379 589 358 602 336 612 C 313 622 289 628 264 628 C 236 628 214 620 196 606 C 178 592 170 573 170 550 C 170 524 179 502 199 485 C 218 468 254 447 308 422 C 371 392 417 360 445 326 C 473 292 488 247 488 192 C 488 159 481 130 469 105 C 457 79 440 58 420 41 C 399 24 375 11 348 3 C 321 -5 293 -10 265 -10 Z M 245 -3 L 245 -3 Z M 252 -191 C 227 -191 202 -188 178 -182 C 154 -176 135 -168 121 -159 L 139 -109 C 147 -113 158 -118 172 -123 C 186 -128 202 -131 218 -131 C 229 -131 239 -128 248 -123 C 257 -117 262 -110 262 -102 C 262 -91 258 -84 250 -80 C 242 -76 233 -74 225 -74 C 218 -74 212 -74 207 -75 C 202 -76 197 -78 192 -80 L 176 -62 L 236 11 L 305 11 L 258 -48 C 290 -43 316 -47 337 -59 C 357 -71 368 -90 368 -114 C 368 -139 356 -158 333 -171 C 309 -184 282 -191 252 -191 Z" unicode="Ş" />
<glyph horiz-adv-x="416" d="M 24 0 L 24 0 Z M 222 -10 C 178 -10 140 -4 106 8 C 72 20 45 36 24 56 L 78 135 C 96 120 117 108 143 99 C 168 90 192 86 215 86 C 233 86 249 90 261 100 C 273 109 280 121 280 137 C 280 152 271 165 255 175 C 239 185 213 197 179 210 C 135 224 100 244 76 268 C 52 292 40 325 40 365 C 40 405 56 438 89 464 C 121 490 162 504 211 504 C 251 504 285 498 314 487 C 342 476 365 465 381 453 L 332 369 C 317 379 300 388 280 396 C 260 404 239 409 218 409 C 200 409 185 405 171 398 C 157 391 151 381 151 368 C 151 354 157 343 169 335 C 181 326 207 314 247 300 C 293 282 329 262 354 239 C 378 215 391 183 391 141 C 391 117 386 95 377 77 C 368 58 356 42 341 29 C 325 16 307 6 287 0 C 266 -6 244 -10 222 -10 Z M 201 0 L 201 0 Z M 208 -188 C 183 -188 158 -185 134 -179 C 110 -173 91 -165 77 -156 L 95 -106 C 103 -110 114 -115 128 -120 C 142 -125 158 -128 174 -128 C 185 -128 195 -125 204 -120 C 213 -114 218 -107 218 -99 C 218 -88 214 -81 206 -77 C 198 -73 189 -71 181 -71 C 174 -71 168 -71 163 -72 C 158 -73 153 -75 148 -77 L 132 -59 L 192 14 L 261 14 L 214 -45 C 246 -40 272 -44 293 -56 C 313 -68 324 -87 324 -111 C 324 -136 312 -155 289 -168 C 265 -181 238 -188 208 -188 Z" unicode="ş" />
<glyph horiz-adv-x="519" d="M 23 0 L 23 0 Z M 265 -10 C 212 -10 165 -2 125 12 C 85 26 51 49 23 80 L 97 171 C 114 149 137 131 167 117 C 196 103 227 96 260 96 C 288 96 313 104 333 120 C 353 136 364 158 364 186 C 364 213 354 236 335 255 C 315 273 282 294 236 317 C 176 344 130 375 96 409 C 62 443 46 491 46 553 C 46 609 66 654 107 688 C 147 722 199 740 262 740 C 308 740 347 733 380 719 C 413 705 441 688 464 669 L 398 574 C 379 589 358 602 336 612 C 313 622 289 628 264 628 C 236 628 214 620 196 606 C 178 592 170 573 170 550 C 170 524 179 502 199 485 C 218 468 254 447 308 422 C 371 392 417 360 445 326 C 473 292 488 247 488 192 C 488 159 481 130 469 105 C 457 79 440 58 420 41 C 399 24 375 11 348 3 C 321 -5 293 -10 265 -10 Z M 259 787 L 259 787 Z M 87 959 L 194 959 L 260 865 L 327 959 L 432 959 L 317 787 L 202 787 L 87 959 Z" unicode="Š" />
<glyph horiz-adv-x="416" d="M 24 0 L 24 0 Z M 222 -10 C 178 -10 140 -4 106 8 C 72 20 45 36 24 56 L 78 135 C 96 120 117 108 143 99 C 168 90 192 86 215 86 C 233 86 249 90 261 100 C 273 109 280 121 280 137 C 280 152 271 165 255 175 C 239 185 213 197 179 210 C 135 224 100 244 76 268 C 52 292 40 325 40 365 C 40 405 56 438 89 464 C 121 490 162 504 211 504 C 251 504 285 498 314 487 C 342 476 365 465 381 453 L 332 369 C 317 379 300 388 280 396 C 260 404 239 409 218 409 C 200 409 185 405 171 398 C 157 391 151 381 151 368 C 151 354 157 343 169 335 C 181 326 207 314 247 300 C 293 282 329 262 354 239 C 378 215 391 183 391 141 C 391 117 386 95 377 77 C 368 58 356 42 341 29 C 325 16 307 6 287 0 C 266 -6 244 -10 222 -10 Z M 214 551 L 214 551 Z M 42 723 L 149 723 L 215 629 L 282 723 L 387 723 L 272 551 L 157 551 L 42 723 Z" unicode="š" />
<glyph horiz-adv-x="504" d="M 8 0 L 8 0 Z M 496 617 L 315 617 L 315 0 L 185 0 L 185 617 L 8 617 L 8 730 L 496 730 L 496 617 Z M 251 787 L 251 787 Z M 79 959 L 186 959 L 252 865 L 319 959 L 424 959 L 309 787 L 194 787 L 79 959 Z" unicode="Ť" />
<glyph horiz-adv-x="309" d="M 8 0 L 8 0 Z M 287 109 L 302 14 C 294 8 283 4 268 0 C 252 -3 235 -5 217 -5 C 199 -5 181 -2 163 2 C 145 7 128 16 114 28 C 100 40 88 55 80 74 C 71 93 67 116 67 143 L 67 393 L 8 393 L 8 494 L 68 494 L 68 620 L 185 633 L 185 494 L 285 494 L 285 393 L 186 393 L 186 156 C 186 136 190 121 200 112 C 210 102 223 98 241 98 C 249 98 258 99 268 102 C 277 104 283 107 287 109 Z M 409 612 L 404 460 L 302 460 L 297 612 L 297 730 L 409 730 L 409 612 Z" unicode="ť" />
<glyph horiz-adv-x="504" d="M 438 415 L 315 415 L 315 0 L 185 0 L 185 415 L 63 415 L 63 510 L 185 510 L 185 617 L 8 617 L 8 730 L 496 730 L 496 617 L 315 617 L 315 510 L 438 510 L 438 415 Z" unicode="Ŧ" />
<glyph horiz-adv-x="309" d="M 217 -5 C 199 -5 181 -2 163 2 C 145 7 128 16 114 28 C 100 40 88 55 80 74 C 71 93 67 116 67 143 L 67 244 L 17 244 L 17 335 L 67 335 L 67 393 L 8 393 L 8 494 L 68 494 L 68 620 L 185 633 L 185 494 L 285 494 L 285 393 L 186 393 L 186 335 L 266 335 L 266 244 L 186 244 L 186 156 C 186 136 190 121 200 112 C 210 102 223 98 241 98 C 249 98 258 99 268 102 C 277 104 283 107 287 109 L 302 14 C 294 8 283 4 268 0 C 252 -3 235 -5 217 -5 Z" unicode="ŧ" />
<glyph horiz-adv-x="685" d="M 72 0 L 72 0 Z M 613 730 L 613 252 C 613 209 605 171 591 139 C 576 106 556 79 531 57 C 506 35 477 18 444 7 C 410 -4 375 -10 339 -10 C 303 -10 268 -4 236 6 C 203 17 175 33 151 55 C 127 76 107 103 93 136 C 79 169 72 208 72 252 L 72 730 L 199 730 L 199 250 C 199 204 212 168 239 142 C 266 116 300 104 340 104 C 380 104 414 116 442 141 C 470 165 484 202 484 250 L 484 730 L 613 730 Z M 341 791 L 341 791 Z M 422 938 L 513 938 C 513 888 505 851 490 827 C 475 803 455 791 431 791 C 412 791 396 794 382 800 C 368 806 356 813 346 819 C 336 825 327 831 318 837 C 309 843 300 846 292 846 C 283 846 276 841 270 832 C 264 822 262 810 262 794 L 171 794 C 171 843 181 880 201 904 C 221 928 242 941 264 941 C 281 941 296 937 308 931 C 320 925 332 918 343 911 C 351 904 360 898 368 893 C 376 888 383 886 391 886 C 398 886 405 890 411 899 C 417 908 421 921 422 938 Z" unicode="Ũ" />
<glyph horiz-adv-x="536" d="M 54 0 L 54 0 Z M 54 494 L 173 494 L 173 174 C 173 144 181 123 197 109 C 213 95 235 88 262 88 C 288 88 311 96 330 113 C 348 129 358 154 358 187 L 358 494 L 478 494 L 478 0 L 366 0 L 366 77 C 355 53 336 32 309 16 C 282 0 250 -9 213 -9 C 169 -9 131 4 100 30 C 69 56 54 94 54 144 L 54 494 Z M 266 555 L 266 555 Z M 347 702 L 438 702 C 438 652 430 615 415 591 C 400 567 380 555 356 555 C 337 555 321 558 307 564 C 293 570 281 577 271 583 C 261 589 252 595 243 601 C 234 607 225 610 217 610 C 208 610 201 605 195 596 C 189 586 187 574 187 558 L 96 558 C 96 607 106 644 126 668 C 146 692 167 705 189 705 C 206 705 221 701 233 695 C 245 689 257 682 268 675 C 276 668 285 662 293 657 C 301 652 308 650 316 650 C 323 650 330 654 336 663 C 342 672 346 685 347 702 Z" unicode="ũ" />
<glyph horiz-adv-x="685" d="M 72 0 L 72 0 Z M 613 730 L 613 252 C 613 209 605 171 591 139 C 576 106 556 79 531 57 C 506 35 477 18 444 7 C 410 -4 375 -10 339 -10 C 303 -10 268 -4 236 6 C 203 17 175 33 151 55 C 127 76 107 103 93 136 C 79 169 72 208 72 252 L 72 730 L 199 730 L 199 250 C 199 204 212 168 239 142 C 266 116 300 104 340 104 C 380 104 414 116 442 141 C 470 165 484 202 484 250 L 484 730 L 613 730 Z M 341 799 L 341 799 Z M 476 799 L 206 799 L 206 893 L 476 893 L 476 799 Z" unicode="Ū" />
<glyph horiz-adv-x="536" d="M 54 0 L 54 0 Z M 54 494 L 173 494 L 173 174 C 173 144 181 123 197 109 C 213 95 235 88 262 88 C 288 88 311 96 330 113 C 348 129 358 154 358 187 L 358 494 L 478 494 L 478 0 L 366 0 L 366 77 C 355 53 336 32 309 16 C 282 0 250 -9 213 -9 C 169 -9 131 4 100 30 C 69 56 54 94 54 144 L 54 494 Z M 266 563 L 266 563 Z M 401 563 L 131 563 L 131 657 L 401 657 L 401 563 Z" unicode="ū" />
<glyph horiz-adv-x="685" d="M 72 0 L 72 0 Z M 613 730 L 613 252 C 613 209 605 171 591 139 C 576 106 556 79 531 57 C 506 35 477 18 444 7 C 410 -4 375 -10 339 -10 C 303 -10 268 -4 236 6 C 203 17 175 33 151 55 C 127 76 107 103 93 136 C 79 169 72 208 72 252 L 72 730 L 199 730 L 199 250 C 199 204 212 168 239 142 C 266 116 300 104 340 104 C 380 104 414 116 442 141 C 470 165 484 202 484 250 L 484 730 L 613 730 Z M 341 788 L 341 788 Z M 402 949 L 501 949 C 497 893 480 852 451 826 C 421 800 385 788 341 788 C 297 788 260 800 231 826 C 201 852 185 893 181 949 L 280 949 C 282 922 287 901 296 886 C 305 871 320 864 341 864 C 361 864 376 871 386 885 C 395 899 400 921 402 949 Z" unicode="Ŭ" />
<glyph horiz-adv-x="536" d="M 54 0 L 54 0 Z M 54 494 L 173 494 L 173 174 C 173 144 181 123 197 109 C 213 95 235 88 262 88 C 288 88 311 96 330 113 C 348 129 358 154 358 187 L 358 494 L 478 494 L 478 0 L 366 0 L 366 77 C 355 53 336 32 309 16 C 282 0 250 -9 213 -9 C 169 -9 131 4 100 30 C 69 56 54 94 54 144 L 54 494 Z M 266 552 L 266 552 Z M 327 713 L 426 713 C 422 657 405 616 376 590 C 346 564 310 552 266 552 C 222 552 185 564 156 590 C 126 616 110 657 106 713 L 205 713 C 207 686 212 665 221 650 C 230 635 245 628 266 628 C 286 628 301 635 311 649 C 320 663 325 685 327 713 Z" unicode="ŭ" />
<glyph horiz-adv-x="685" d="M 72 0 L 72 0 Z M 613 730 L 613 252 C 613 209 605 171 591 139 C 576 106 556 79 531 57 C 506 35 477 18 444 7 C 410 -4 375 -10 339 -10 C 303 -10 268 -4 236 6 C 203 17 175 33 151 55 C 127 76 107 103 93 136 C 79 169 72 208 72 252 L 72 730 L 199 730 L 199 250 C 199 204 212 168 239 142 C 266 116 300 104 340 104 C 380 104 414 116 442 141 C 470 165 484 202 484 250 L 484 730 L 613 730 Z M 341 780 L 341 780 Z M 341 780 C 307 780 279 791 255 815 C 231 839 220 868 220 902 C 220 935 231 963 255 987 C 279 1011 307 1023 341 1023 C 375 1023 403 1011 427 987 C 451 963 463 935 463 902 C 463 868 451 839 427 815 C 403 791 375 780 341 780 Z M 341 848 C 355 848 368 853 378 864 C 388 874 393 887 393 902 C 393 916 388 929 378 939 C 368 949 355 955 341 955 C 326 955 314 949 304 939 C 294 929 289 916 289 902 C 289 887 294 874 304 864 C 314 853 326 848 341 848 Z" unicode="Ů" />
<glyph horiz-adv-x="536" d="M 54 0 L 54 0 Z M 54 494 L 173 494 L 173 174 C 173 144 181 123 197 109 C 213 95 235 88 262 88 C 288 88 311 96 330 113 C 348 129 358 154 358 187 L 358 494 L 478 494 L 478 0 L 366 0 L 366 77 C 355 53 336 32 309 16 C 282 0 250 -9 213 -9 C 169 -9 131 4 100 30 C 69 56 54 94 54 144 L 54 494 Z M 266 544 L 266 544 Z M 266 544 C 232 544 204 555 180 579 C 156 603 145 632 145 666 C 145 699 156 727 180 751 C 204 775 232 787 266 787 C 300 787 328 775 352 751 C 376 727 388 699 388 666 C 388 632 376 603 352 579 C 328 555 300 544 266 544 Z M 266 612 C 280 612 293 617 303 628 C 313 638 318 651 318 666 C 318 680 313 693 303 703 C 293 713 280 719 266 719 C 251 719 239 713 229 703 C 219 693 214 680 214 666 C 214 651 219 638 229 628 C 239 617 251 612 266 612 Z" unicode="ů" />
<glyph horiz-adv-x="685" d="M 72 0 L 72 0 Z M 613 730 L 613 252 C 613 209 605 171 591 139 C 576 106 556 79 531 57 C 506 35 477 18 444 7 C 410 -4 375 -10 339 -10 C 303 -10 268 -4 236 6 C 203 17 175 33 151 55 C 127 76 107 103 93 136 C 79 169 72 208 72 252 L 72 730 L 199 730 L 199 250 C 199 204 212 168 239 142 C 266 116 300 104 340 104 C 380 104 414 116 442 141 C 470 165 484 202 484 250 L 484 730 L 613 730 Z M 341 786 L 341 786 Z M 136 786 L 222 942 L 349 942 L 241 786 L 136 786 Z M 334 786 L 420 942 L 547 942 L 439 786 L 334 786 Z" unicode="Ű" />
<glyph horiz-adv-x="536" d="M 54 0 L 54 0 Z M 54 494 L 173 494 L 173 174 C 173 144 181 123 197 109 C 213 95 235 88 262 88 C 288 88 311 96 330 113 C 348 129 358 154 358 187 L 358 494 L 478 494 L 478 0 L 366 0 L 366 77 C 355 53 336 32 309 16 C 282 0 250 -9 213 -9 C 169 -9 131 4 100 30 C 69 56 54 94 54 144 L 54 494 Z M 266 550 L 266 550 Z M 61 550 L 147 706 L 274 706 L 166 550 L 61 550 Z M 259 550 L 345 706 L 472 706 L 364 550 L 259 550 Z" unicode="ű" />
<glyph horiz-adv-x="685" d="M 72 0 L 72 0 Z M 613 730 L 613 252 C 613 209 605 171 591 139 C 576 106 556 79 531 57 C 506 35 477 18 444 7 C 410 -4 375 -10 339 -10 C 303 -10 268 -4 236 6 C 203 17 175 33 151 55 C 127 76 107 103 93 136 C 79 169 72 208 72 252 L 72 730 L 199 730 L 199 250 C 199 204 212 168 239 142 C 266 116 300 104 340 104 C 380 104 414 116 442 141 C 470 165 484 202 484 250 L 484 730 L 613 730 Z M 388 -7 L 388 -7 Z M 488 -82 L 521 -133 C 499 -155 476 -171 451 -182 C 426 -193 398 -199 367 -199 C 332 -199 305 -191 285 -177 C 265 -162 256 -143 256 -121 C 256 -96 266 -73 287 -51 C 308 -29 338 -11 376 4 L 436 4 C 412 -7 393 -19 379 -33 C 365 -46 358 -59 358 -72 C 358 -84 362 -93 371 -100 C 380 -107 392 -111 407 -111 C 423 -111 439 -108 453 -103 C 467 -97 478 -90 488 -82 Z" unicode="Ų" />
<glyph horiz-adv-x="536" d="M 54 0 L 54 0 Z M 54 494 L 173 494 L 173 174 C 173 144 181 123 197 109 C 213 95 235 88 262 88 C 288 88 311 96 330 113 C 348 129 358 154 358 187 L 358 494 L 478 494 L 478 0 L 366 0 L 366 77 C 355 53 336 32 309 16 C 282 0 250 -9 213 -9 C 169 -9 131 4 100 30 C 69 56 54 94 54 144 L 54 494 Z M 387 -6 L 387 -6 Z M 487 -81 L 520 -132 C 498 -154 475 -170 450 -181 C 425 -192 397 -198 366 -198 C 331 -198 304 -190 284 -176 C 264 -161 255 -142 255 -120 C 255 -95 265 -72 286 -50 C 307 -28 337 -10 375 5 L 435 5 C 411 -6 392 -18 378 -32 C 364 -45 357 -58 357 -71 C 357 -83 361 -92 370 -99 C 379 -106 391 -110 406 -110 C 422 -110 438 -107 452 -102 C 466 -96 477 -89 487 -81 Z" unicode="ų" />
<glyph horiz-adv-x="858" d="M 4 0 L 4 0 Z M 849 730 L 646 -5 L 571 -5 L 428 493 L 278 -5 L 202 -5 L 4 730 L 132 730 L 255 248 L 393 730 L 472 730 L 609 247 L 732 730 L 849 730 Z M 431 787 L 431 787 Z M 604 787 L 497 787 L 431 881 L 364 787 L 259 787 L 374 959 L 489 959 L 604 787 Z" unicode="Ŵ" />
<glyph horiz-adv-x="678" d="M 1 0 L 1 0 Z M 442 -3 L 342 277 L 236 -3 L 160 -3 L 1 494 L 122 494 L 215 177 L 310 447 L 385 447 L 475 179 L 569 494 L 677 494 L 517 -3 L 442 -3 Z M 344 551 L 344 551 Z M 517 551 L 410 551 L 344 645 L 277 551 L 172 551 L 287 723 L 402 723 L 517 551 Z" unicode="ŵ" />
<glyph horiz-adv-x="592" d="M 0 0 L 0 0 Z M 610 730 L 365 310 L 365 0 L 235 0 L 235 314 L -4 730 L 139 730 L 307 434 L 477 730 L 610 730 Z M 306 787 L 306 787 Z M 479 787 L 372 787 L 306 881 L 239 787 L 134 787 L 249 959 L 364 959 L 479 787 Z" unicode="Ŷ" />
<glyph horiz-adv-x="478" d="M 0 0 L 0 0 Z M 482 494 L 241 -85 C 222 -128 197 -158 167 -175 C 136 -191 105 -200 75 -200 C 56 -200 40 -197 27 -193 C 13 -189 4 -185 -2 -183 L 34 -85 C 36 -87 42 -89 51 -91 C 59 -93 68 -95 77 -95 C 91 -95 104 -90 116 -81 C 127 -71 138 -55 148 -33 L 180 45 L -5 494 L 123 494 L 242 183 L 363 494 L 482 494 Z M 241 551 L 241 551 Z M 414 551 L 307 551 L 241 645 L 174 551 L 69 551 L 184 723 L 299 723 L 414 551 Z" unicode="ŷ" />
<glyph horiz-adv-x="606" d="M 0 0 L 0 0 Z M 610 730 L 365 310 L 365 0 L 235 0 L 235 314 L -4 730 L 139 730 L 307 434 L 477 730 L 610 730 Z M 306 787 L 306 787 Z M 447 787 L 348 787 L 348 947 L 447 947 L 447 787 Z M 264 787 L 165 787 L 165 947 L 264 947 L 264 787 Z" unicode="Ÿ" />
<glyph horiz-adv-x="532" d="M 16 0 L 16 0 Z M 511 730 L 511 673 L 184 112 L 522 112 L 522 0 L 16 0 L 16 55 L 340 617 L 41 617 L 41 730 L 511 730 Z M 273 789 L 273 789 Z M 153 789 L 252 954 L 393 954 L 272 789 L 153 789 Z" unicode="Ź" />
<glyph horiz-adv-x="413" d="M 12 0 L 12 0 Z M 393 494 L 393 440 L 179 102 L 403 102 L 403 0 L 12 0 L 12 44 L 233 391 L 24 391 L 24 494 L 393 494 Z M 212 553 L 212 553 Z M 92 553 L 191 718 L 332 718 L 211 553 L 92 553 Z" unicode="ź" />
<glyph horiz-adv-x="532" d="M 16 0 L 16 0 Z M 511 730 L 511 673 L 184 112 L 522 112 L 522 0 L 16 0 L 16 55 L 340 617 L 41 617 L 41 730 L 511 730 Z M 273 790 L 273 790 Z M 328 790 L 219 790 L 219 943 L 328 943 L 328 790 Z" unicode="Ż" />
<glyph horiz-adv-x="413" d="M 12 0 L 12 0 Z M 393 494 L 393 440 L 179 102 L 403 102 L 403 0 L 12 0 L 12 44 L 233 391 L 24 391 L 24 494 L 393 494 Z M 212 554 L 212 554 Z M 267 554 L 158 554 L 158 707 L 267 707 L 267 554 Z" unicode="ż" />
<glyph horiz-adv-x="543" d="M 16 0 L 16 0 Z M 511 730 L 511 673 L 184 112 L 522 112 L 522 0 L 16 0 L 16 55 L 340 617 L 41 617 L 41 730 L 511 730 Z M 273 787 L 273 787 Z M 101 959 L 208 959 L 274 865 L 341 959 L 446 959 L 331 787 L 216 787 L 101 959 Z" unicode="Ž" />
<glyph horiz-adv-x="413" d="M 12 0 L 12 0 Z M 393 494 L 393 440 L 179 102 L 403 102 L 403 0 L 12 0 L 12 44 L 233 391 L 24 391 L 24 494 L 393 494 Z" unicode="ž" />
<glyph horiz-adv-x="377" d="M 201 -52 C 199 -68 195 -83 189 -99 C 182 -114 173 -127 162 -139 C 150 -151 137 -160 121 -168 C 105 -175 88 -179 70 -179 C 49 -179 29 -177 11 -173 C -7 -169 -22 -165 -32 -161 L -20 -75 C -15 -75 -8 -77 1 -79 C 10 -81 19 -82 28 -82 C 47 -82 63 -75 76 -63 C 88 -50 96 -32 99 -8 L 128 321 L 35 321 L 35 419 L 137 419 L 155 620 C 157 640 162 658 171 674 C 179 689 190 702 203 712 C 215 722 229 730 244 735 C 259 740 274 743 288 743 C 302 743 317 742 332 741 C 347 740 356 739 359 739 L 350 636 C 348 636 344 637 338 638 C 332 638 326 639 320 639 C 301 639 286 632 274 620 C 262 607 256 587 254 561 L 242 419 L 343 419 L 343 321 L 233 321 L 201 -52 Z" unicode="ƒ" />
<glyph horiz-adv-x="519" d="M 23 0 L 23 0 Z M 265 -10 C 212 -10 165 -2 125 12 C 85 26 51 49 23 80 L 97 171 C 114 149 137 131 167 117 C 196 103 227 96 260 96 C 288 96 313 104 333 120 C 353 136 364 158 364 186 C 364 213 354 236 335 255 C 315 273 282 294 236 317 C 176 344 130 375 96 409 C 62 443 46 491 46 553 C 46 609 66 654 107 688 C 147 722 199 740 262 740 C 308 740 347 733 380 719 C 413 705 441 688 464 669 L 398 574 C 379 589 358 602 336 612 C 313 622 289 628 264 628 C 236 628 214 620 196 606 C 178 592 170 573 170 550 C 170 524 179 502 199 485 C 218 468 254 447 308 422 C 371 392 417 360 445 326 C 473 292 488 247 488 192 C 488 159 481 130 469 105 C 457 79 440 58 420 41 C 399 24 375 11 348 3 C 321 -5 293 -10 265 -10 Z M 245 -72 L 245 -72 Z M 347 -72 C 345 -98 341 -126 333 -154 C 325 -182 316 -208 305 -232 C 294 -256 282 -278 270 -298 C 257 -318 245 -332 233 -342 L 143 -301 C 150 -292 158 -279 167 -263 C 175 -246 183 -227 191 -207 C 199 -187 205 -165 211 -141 C 217 -117 221 -94 223 -72 L 347 -72 Z" unicode="Ș" />
<glyph horiz-adv-x="416" d="M 24 0 L 24 0 Z M 222 -10 C 178 -10 140 -4 106 8 C 72 20 45 36 24 56 L 78 135 C 96 120 117 108 143 99 C 168 90 192 86 215 86 C 233 86 249 90 261 100 C 273 109 280 121 280 137 C 280 152 271 165 255 175 C 239 185 213 197 179 210 C 135 224 100 244 76 268 C 52 292 40 325 40 365 C 40 405 56 438 89 464 C 121 490 162 504 211 504 C 251 504 285 498 314 487 C 342 476 365 465 381 453 L 332 369 C 317 379 300 388 280 396 C 260 404 239 409 218 409 C 200 409 185 405 171 398 C 157 391 151 381 151 368 C 151 354 157 343 169 335 C 181 326 207 314 247 300 C 293 282 329 262 354 239 C 378 215 391 183 391 141 C 391 117 386 95 377 77 C 368 58 356 42 341 29 C 325 16 307 6 287 0 C 266 -6 244 -10 222 -10 Z M 201 -69 L 201 -69 Z M 303 -69 C 301 -95 297 -123 289 -151 C 281 -179 272 -205 261 -229 C 250 -253 238 -275 226 -295 C 213 -315 201 -329 189 -339 L 99 -298 C 106 -289 114 -276 123 -260 C 131 -243 139 -224 147 -204 C 155 -184 161 -162 167 -138 C 173 -114 177 -91 179 -69 L 303 -69 Z" unicode="ș" />
<glyph horiz-adv-x="504" d="M 8 0 L 8 0 Z M 496 617 L 315 617 L 315 0 L 185 0 L 185 617 L 8 617 L 8 730 L 496 730 L 496 617 Z M 225 -69 L 225 -69 Z M 327 -69 C 325 -95 321 -123 313 -151 C 305 -179 296 -205 285 -229 C 274 -253 262 -275 250 -295 C 237 -315 225 -329 213 -339 L 123 -298 C 130 -289 138 -276 147 -260 C 155 -243 163 -224 171 -204 C 179 -184 185 -162 191 -138 C 197 -114 201 -91 203 -69 L 327 -69 Z" unicode="Ț" />
<glyph horiz-adv-x="309" d="M 8 0 L 8 0 Z M 287 109 L 302 14 C 294 8 283 4 268 0 C 252 -3 235 -5 217 -5 C 199 -5 181 -2 163 2 C 145 7 128 16 114 28 C 100 40 88 55 80 74 C 71 93 67 116 67 143 L 67 393 L 8 393 L 8 494 L 68 494 L 68 620 L 185 633 L 185 494 L 285 494 L 285 393 L 186 393 L 186 156 C 186 136 190 121 200 112 C 210 102 223 98 241 98 C 249 98 258 99 268 102 C 277 104 283 107 287 109 Z M 150 -69 L 150 -69 Z M 252 -69 C 250 -95 246 -123 238 -151 C 230 -179 221 -205 210 -229 C 199 -253 187 -275 175 -295 C 162 -315 150 -329 138 -339 L 48 -298 C 55 -289 63 -276 72 -260 C 80 -243 88 -224 96 -204 C 104 -184 110 -162 116 -138 C 122 -114 126 -91 128 -69 L 252 -69 Z" unicode="ț" />
<glyph horiz-adv-x="254" d="M 198 494 L 198 -42 C 198 -87 184 -124 157 -153 C 130 -182 94 -197 50 -197 C 32 -197 13 -195 -6 -191 C -26 -187 -41 -182 -52 -176 L -32 -85 C -25 -87 -17 -90 -7 -92 C 3 -94 14 -96 26 -96 C 41 -96 53 -89 63 -77 C 73 -64 78 -47 78 -27 L 78 494 L 198 494 Z" unicode="ȷ" />
<glyph horiz-adv-x="500" d="M 423 551 L 316 551 L 250 645 L 183 551 L 78 551 L 193 723 L 308 723 L 423 551 Z" unicode="ˆ" />
<glyph horiz-adv-x="500" d="M 78 723 L 185 723 L 251 629 L 318 723 L 423 723 L 308 551 L 193 551 L 78 723 Z" unicode="ˇ" />
<glyph horiz-adv-x="500" d="M 311 713 L 410 713 C 406 657 389 616 360 590 C 330 564 294 552 250 552 C 206 552 169 564 140 590 C 110 616 94 657 90 713 L 189 713 C 191 686 196 665 205 650 C 214 635 229 628 250 628 C 270 628 285 635 295 649 C 304 663 309 685 311 713 Z" unicode="˘" />
<glyph horiz-adv-x="500" d="M 305 554 L 196 554 L 196 707 L 305 707 L 305 554 Z" unicode="˙" />
<glyph horiz-adv-x="506" d="M 253 544 C 219 544 191 555 167 579 C 143 603 132 632 132 666 C 132 699 143 727 167 751 C 191 775 219 787 253 787 C 287 787 315 775 339 751 C 363 727 375 699 375 666 C 375 632 363 603 339 579 C 315 555 287 544 253 544 Z M 253 612 C 267 612 280 617 290 628 C 300 638 305 651 305 666 C 305 680 300 693 290 703 C 280 713 267 719 253 719 C 238 719 226 713 216 703 C 206 693 201 680 201 666 C 201 651 206 638 216 628 C 226 617 238 612 253 612 Z" unicode="˚" />
<glyph horiz-adv-x="500" d="M 359 -75 L 392 -126 C 370 -148 347 -164 322 -175 C 297 -186 269 -192 238 -192 C 203 -192 176 -184 156 -170 C 136 -155 127 -136 127 -114 C 127 -89 137 -66 158 -44 C 179 -22 209 -4 247 11 L 307 11 C 283 0 264 -12 250 -26 C 236 -39 229 -52 229 -65 C 229 -77 233 -86 242 -93 C 251 -100 263 -104 278 -104 C 294 -104 310 -101 324 -96 C 338 -90 349 -83 359 -75 Z" unicode="˛" />
<glyph horiz-adv-x="500" d="M 335 702 L 426 702 C 426 652 418 615 403 591 C 388 567 368 555 344 555 C 325 555 309 558 295 564 C 281 570 269 577 259 583 C 249 589 240 595 231 601 C 222 607 213 610 205 610 C 196 610 189 605 183 596 C 177 586 175 574 175 558 L 84 558 C 84 607 94 644 114 668 C 134 692 155 705 177 705 C 194 705 209 701 221 695 C 233 689 245 682 256 675 C 264 668 273 662 281 657 C 289 652 296 650 304 650 C 311 650 318 654 324 663 C 330 672 334 685 335 702 Z" unicode="˜" />
<glyph horiz-adv-x="500" d="M 63 550 L 149 706 L 276 706 L 168 550 L 63 550 Z M 261 550 L 347 706 L 474 706 L 366 550 L 261 550 Z" unicode="˝" />
<glyph horiz-adv-x="0" d="M 0 550 L 0 550 Z M 120 550 L 1 550 L -121 715 L 20 715 L 120 550 Z" unicode="̀" />
<glyph horiz-adv-x="0" d="M 0 553 L 0 553 Z M -120 553 L -21 718 L 120 718 L -1 553 L -120 553 Z" unicode="́" />
<glyph horiz-adv-x="0" d="M 0 551 L 0 551 Z M 173 551 L 66 551 L 0 645 L -67 551 L -172 551 L -57 723 L 58 723 L 173 551 Z" unicode="̂" />
<glyph horiz-adv-x="0" d="M 0 555 L 0 555 Z M 81 702 L 172 702 C 172 652 164 615 149 591 C 134 567 114 555 90 555 C 71 555 55 558 41 564 C 27 570 15 577 5 583 C -4 589 -13 595 -22 601 C -31 607 -40 610 -49 610 C -57 610 -64 605 -70 596 C -76 586 -79 574 -79 558 L -170 558 C -170 607 -160 644 -140 668 C -120 692 -99 705 -77 705 C -59 705 -44 701 -32 695 C -20 689 -8 682 2 675 C 10 668 19 662 27 657 C 35 652 42 650 50 650 C 57 650 64 654 70 663 C 76 672 80 685 81 702 Z" unicode="̃" />
<glyph horiz-adv-x="0" d="M 0 563 L 0 563 Z M 135 563 L -135 563 L -135 657 L 135 657 L 135 563 Z" unicode="̄" />
<glyph horiz-adv-x="0" d="M 0 552 L 0 552 Z M 61 713 L 160 713 C 156 657 139 616 110 590 C 80 564 44 552 0 552 C -44 552 -80 564 -110 590 C -139 616 -156 657 -160 713 L -61 713 C -59 686 -53 665 -44 650 C -35 635 -20 628 0 628 C 20 628 35 635 45 649 C 54 663 59 685 61 713 Z" unicode="̆" />
<glyph horiz-adv-x="0" d="M 0 554 L 0 554 Z M 55 554 L -54 554 L -54 707 L 55 707 L 55 554 Z" unicode="̇" />
<glyph horiz-adv-x="0" d="M 0 551 L 0 551 Z M 141 551 L 42 551 L 42 711 L 141 711 L 141 551 Z M -42 551 L -141 551 L -141 711 L -42 711 L -42 551 Z" unicode="̈" />
<glyph horiz-adv-x="0" d="M 0 544 L 0 544 Z M 0 544 C -33 544 -61 555 -85 579 C -109 603 -121 632 -121 666 C -121 699 -109 727 -85 751 C -61 775 -33 787 0 787 C 34 787 62 775 86 751 C 110 727 122 699 122 666 C 122 632 110 603 86 579 C 62 555 34 544 0 544 Z M 0 612 C 14 612 27 617 37 628 C 47 638 52 651 52 666 C 52 680 47 693 37 703 C 27 713 14 719 0 719 C -14 719 -27 713 -37 703 C -47 693 -52 680 -52 666 C -52 651 -47 638 -37 628 C -27 617 -14 612 0 612 Z" unicode="̊" />
<glyph horiz-adv-x="0" d="M 0 550 L 0 550 Z M -205 550 L -119 706 L 8 706 L -100 550 L -205 550 Z M -7 550 L 79 706 L 206 706 L 98 550 L -7 550 Z" unicode="̋" />
<glyph horiz-adv-x="0" d="M 0 551 L 0 551 Z M -172 723 L -65 723 L 1 629 L 68 723 L 173 723 L 58 551 L -57 551 L -172 723 Z" unicode="̌" />
<glyph horiz-adv-x="0" d="M 0 -69 L 0 -69 Z M 102 -69 C 100 -95 96 -123 88 -151 C 80 -179 71 -205 60 -229 C 49 -253 37 -275 25 -295 C 12 -315 0 -329 -12 -339 L -102 -298 C -94 -289 -86 -276 -78 -260 C -69 -243 -61 -224 -53 -204 C -45 -184 -39 -162 -33 -138 C -27 -114 -24 -91 -22 -69 L 102 -69 Z" unicode="̦" />
<glyph horiz-adv-x="0" d="M 0 0 L 0 0 Z M 7 -188 C -17 -188 -42 -185 -66 -179 C -90 -173 -110 -165 -124 -156 L -106 -106 C -98 -110 -86 -115 -72 -120 C -58 -125 -43 -128 -27 -128 C -15 -128 -5 -125 3 -120 C 12 -114 17 -107 17 -99 C 17 -88 13 -81 5 -77 C -3 -73 -11 -71 -20 -71 C -26 -71 -32 -71 -37 -72 C -42 -73 -47 -75 -53 -77 L -69 -59 L -9 14 L 60 14 L 13 -45 C 45 -40 71 -44 92 -56 C 112 -68 123 -87 123 -111 C 123 -136 111 -155 88 -168 C 64 -181 37 -188 7 -188 Z" unicode="̧" />
<glyph horiz-adv-x="0" d="M 0 0 L 0 0 Z M 100 -75 L 133 -126 C 111 -148 88 -164 63 -175 C 38 -186 10 -192 -21 -192 C -55 -192 -82 -184 -102 -170 C -122 -155 -132 -136 -132 -114 C -132 -89 -121 -66 -100 -44 C -79 -22 -50 -4 -12 11 L 48 11 C 24 0 5 -12 -8 -26 C -22 -39 -30 -52 -30 -65 C -30 -77 -25 -86 -16 -93 C -7 -100 4 -104 19 -104 C 35 -104 51 -101 65 -96 C 79 -90 90 -83 100 -75 Z" unicode="̨" />
<glyph horiz-adv-x="560" d="M 0 0 L 0 0 Z M 626 0 L -1 0 L 291 731 L 337 731 L 626 0 Z M 463 96 L 309 512 L 156 96 L 463 96 Z" unicode="Δ" />
<glyph horiz-adv-x="713" d="" unicode="Ω" />
<glyph horiz-adv-x="585" d="M 66 0 L 66 0 Z M 66 -126 L 66 499 L 184 499 L 184 172 C 184 147 193 127 213 111 C 233 95 257 88 286 88 C 315 88 341 97 365 116 C 389 135 401 161 401 195 L 401 499 L 519 499 L 519 0 L 410 0 L 410 85 C 398 61 379 40 351 23 C 323 5 293 -3 262 -5 C 243 -5 225 -2 209 5 C 193 12 181 22 175 36 L 175 -126 L 66 -126 Z" unicode="μ" />
<glyph horiz-adv-x="609" d="M 202 438 L 202 0 L 83 0 L 83 438 L 15 438 L 15 530 L 593 530 L 593 438 L 522 438 L 522 0 L 404 0 L 404 438 L 202 438 Z" unicode="π" />
<glyph horiz-adv-x="858" d="M 4 0 L 4 0 Z M 849 730 L 646 -5 L 571 -5 L 428 493 L 278 -5 L 202 -5 L 4 730 L 132 730 L 255 248 L 393 730 L 472 730 L 609 247 L 732 730 L 849 730 Z M 431 786 L 431 786 Z M 551 786 L 432 786 L 310 951 L 451 951 L 551 786 Z" unicode="Ẁ" />
<glyph horiz-adv-x="678" d="M 1 0 L 1 0 Z M 442 -3 L 342 277 L 236 -3 L 160 -3 L 1 494 L 122 494 L 215 177 L 310 447 L 385 447 L 475 179 L 569 494 L 677 494 L 517 -3 L 442 -3 Z M 344 550 L 344 550 Z M 464 550 L 345 550 L 223 715 L 364 715 L 464 550 Z" unicode="ẁ" />
<glyph horiz-adv-x="858" d="M 4 0 L 4 0 Z M 849 730 L 646 -5 L 571 -5 L 428 493 L 278 -5 L 202 -5 L 4 730 L 132 730 L 255 248 L 393 730 L 472 730 L 609 247 L 732 730 L 849 730 Z M 431 789 L 431 789 Z M 311 789 L 410 954 L 551 954 L 430 789 L 311 789 Z" unicode="Ẃ" />
<glyph horiz-adv-x="678" d="M 1 0 L 1 0 Z M 442 -3 L 342 277 L 236 -3 L 160 -3 L 1 494 L 122 494 L 215 177 L 310 447 L 385 447 L 475 179 L 569 494 L 677 494 L 517 -3 L 442 -3 Z M 344 553 L 344 553 Z M 224 553 L 323 718 L 464 718 L 343 553 L 224 553 Z" unicode="ẃ" />
<glyph horiz-adv-x="858" d="M 4 0 L 4 0 Z M 849 730 L 646 -5 L 571 -5 L 428 493 L 278 -5 L 202 -5 L 4 730 L 132 730 L 255 248 L 393 730 L 472 730 L 609 247 L 732 730 L 849 730 Z M 431 787 L 431 787 Z M 572 787 L 473 787 L 473 947 L 572 947 L 572 787 Z M 389 787 L 290 787 L 290 947 L 389 947 L 389 787 Z" unicode="Ẅ" />
<glyph horiz-adv-x="678" d="M 1 0 L 1 0 Z M 442 -3 L 342 277 L 236 -3 L 160 -3 L 1 494 L 122 494 L 215 177 L 310 447 L 385 447 L 475 179 L 569 494 L 677 494 L 517 -3 L 442 -3 Z M 344 551 L 344 551 Z M 485 551 L 386 551 L 386 711 L 485 711 L 485 551 Z M 302 551 L 203 551 L 203 711 L 302 711 L 302 551 Z" unicode="ẅ" />
<glyph horiz-adv-x="592" d="M 0 0 L 0 0 Z M 610 730 L 365 310 L 365 0 L 235 0 L 235 314 L -4 730 L 139 730 L 307 434 L 477 730 L 610 730 Z M 306 786 L 306 786 Z M 426 786 L 307 786 L 185 951 L 326 951 L 426 786 Z" unicode="Ỳ" />
<glyph horiz-adv-x="478" d="M 0 0 L 0 0 Z M 482 494 L 241 -85 C 222 -128 197 -158 167 -175 C 136 -191 105 -200 75 -200 C 56 -200 40 -197 27 -193 C 13 -189 4 -185 -2 -183 L 34 -85 C 36 -87 42 -89 51 -91 C 59 -93 68 -95 77 -95 C 91 -95 104 -90 116 -81 C 127 -71 138 -55 148 -33 L 180 45 L -5 494 L 123 494 L 242 183 L 363 494 L 482 494 Z M 241 550 L 241 550 Z M 361 550 L 242 550 L 120 715 L 261 715 L 361 550 Z" unicode="ỳ" />
<glyph horiz-adv-x="460" d="M 422 215 L 39 215 L 39 319 L 422 319 L 422 215 Z" unicode="–" />
<glyph horiz-adv-x="645" d="M 607 215 L 39 215 L 39 319 L 607 319 L 607 215 Z" unicode="—" />
<glyph horiz-adv-x="283" d="M 34 507 L 34 514 C 34 552 44 590 64 629 C 84 668 112 704 148 737 L 267 731 C 257 723 245 712 233 698 C 221 684 209 667 198 648 C 187 629 178 608 170 586 C 162 563 159 539 159 515 L 159 507 L 34 507 Z" unicode="‘" />
<glyph horiz-adv-x="283" d="M 249 737 L 249 730 C 249 692 238 653 218 615 C 198 577 170 541 135 507 L 16 513 C 25 522 36 534 48 548 C 60 562 72 579 83 597 C 94 615 103 636 111 658 C 119 680 123 704 123 729 L 123 737 L 249 737 Z" unicode="’" />
<glyph horiz-adv-x="283" d="M 248 116 L 248 109 C 248 71 237 32 217 -5 C 197 -43 169 -80 134 -114 L 16 -108 C 25 -99 36 -87 48 -73 C 60 -58 72 -41 83 -23 C 94 -5 103 15 111 37 C 119 59 123 83 123 108 L 123 116 L 248 116 Z" unicode="‚" />
<glyph horiz-adv-x="463" d="M 229 507 L 229 514 C 229 552 238 589 258 626 C 278 663 306 700 342 737 L 450 731 C 440 722 429 710 417 696 C 405 681 393 664 382 646 C 371 628 362 607 354 585 C 346 563 343 539 343 515 L 343 507 L 229 507 Z M 34 507 L 34 514 C 34 552 44 589 65 626 C 85 663 113 700 147 737 L 255 731 C 246 722 235 710 223 696 C 211 682 199 665 188 647 C 177 628 168 607 160 585 C 152 563 148 539 148 515 L 148 507 L 34 507 Z" unicode="“" />
<glyph horiz-adv-x="463" d="M 235 737 L 235 730 C 235 692 225 654 207 617 C 189 579 161 543 124 507 L 16 513 C 26 523 38 535 50 550 C 62 564 74 581 85 599 C 95 617 104 637 111 659 C 118 681 122 704 122 729 L 122 737 L 235 737 Z M 428 737 L 428 730 C 428 692 418 654 399 616 C 380 578 353 541 317 507 L 209 513 C 219 523 231 535 244 550 C 256 564 268 581 278 599 C 288 617 297 637 304 659 C 311 681 315 704 315 729 L 315 737 L 428 737 Z" unicode="”" />
<glyph horiz-adv-x="464" d="M 235 120 L 235 113 C 235 75 225 37 207 0 C 189 -37 161 -74 124 -110 L 16 -104 C 26 -94 38 -81 50 -67 C 62 -52 74 -36 85 -18 C 95 0 104 20 111 42 C 118 64 122 87 122 112 L 122 120 L 235 120 Z M 429 120 L 429 113 C 429 75 419 37 400 -1 C 381 -39 354 -75 318 -110 L 210 -104 C 220 -94 232 -81 245 -67 C 257 -52 269 -36 279 -18 C 289 0 298 20 305 42 C 312 64 316 87 316 112 L 316 120 L 429 120 Z" unicode="„" />
<glyph horiz-adv-x="520" d="M 498 364 L 320 364 L 320 -179 L 194 -179 L 194 364 L 23 364 L 23 471 L 194 471 L 194 730 L 320 730 L 320 471 L 498 471 L 498 364 Z" unicode="†" />
<glyph horiz-adv-x="524" d="M 197 -179 L 197 92 L 30 92 L 30 199 L 197 199 L 197 371 L 30 371 L 30 478 L 197 478 L 197 730 L 322 730 L 322 478 L 494 478 L 494 371 L 322 371 L 322 199 L 494 199 L 494 92 L 322 92 L 322 -179 L 197 -179 Z" unicode="‡" />
<glyph horiz-adv-x="382" d="M 191 489 C 221 489 247 478 269 457 C 290 435 301 409 301 379 C 301 348 290 322 269 301 C 247 280 221 270 191 270 C 160 270 134 280 113 301 C 92 322 82 348 82 379 C 82 409 92 435 113 457 C 134 478 160 489 191 489 Z" unicode="•" />
<glyph horiz-adv-x="726" d="M 61 0 L 61 142 L 182 142 L 182 0 L 61 0 Z M 303 0 L 303 142 L 424 142 L 424 0 L 303 0 Z M 544 0 L 544 142 L 666 142 L 666 0 L 544 0 Z" unicode="…" />
<glyph horiz-adv-x="1155" d="M 199 355 C 179 355 159 359 139 368 C 119 376 102 389 87 405 C 71 421 59 441 50 465 C 40 489 36 516 36 547 C 36 573 40 598 48 622 C 56 645 68 665 83 683 C 97 700 114 714 134 724 C 154 734 175 740 197 740 C 221 740 243 734 263 724 C 283 714 300 700 315 683 C 329 665 341 645 349 622 C 357 599 361 575 361 550 C 361 522 356 497 348 473 C 340 449 328 429 314 411 C 299 393 282 380 262 370 C 242 360 221 355 199 355 Z M 123 0 L 571 730 L 660 730 L 213 0 L 123 0 Z M 138 547 C 138 516 143 491 153 472 C 163 453 178 444 198 444 C 220 444 235 453 245 473 C 255 492 260 517 260 547 C 260 575 255 600 246 620 C 236 640 221 650 200 650 C 178 650 163 640 153 620 C 143 600 138 575 138 547 Z M 595 -3 C 574 -3 554 1 535 10 C 515 18 498 31 483 47 C 467 63 455 83 446 107 C 436 131 432 158 432 189 C 432 215 436 240 444 264 C 452 287 464 307 479 325 C 493 342 511 356 531 366 C 551 376 572 381 596 381 C 620 381 642 375 662 365 C 682 355 700 341 714 324 C 728 307 739 287 747 264 C 755 241 759 217 759 192 C 759 164 754 139 746 115 C 738 91 726 71 712 53 C 698 35 680 22 660 12 C 640 2 618 -3 595 -3 Z M 955 -3 C 934 -3 914 1 895 10 C 875 18 858 31 843 47 C 827 63 815 83 806 107 C 796 131 792 158 792 189 C 792 215 796 240 804 264 C 812 287 824 307 839 325 C 853 342 871 356 891 366 C 911 376 932 381 956 381 C 980 381 1002 375 1022 365 C 1042 355 1060 341 1074 324 C 1088 307 1099 287 1107 264 C 1115 241 1119 217 1119 192 C 1119 164 1114 139 1106 115 C 1098 91 1086 71 1072 53 C 1058 35 1040 22 1020 12 C 1000 2 978 -3 955 -3 Z M 594 87 C 616 87 632 96 642 115 C 652 133 658 158 658 189 C 658 219 653 243 643 263 C 633 282 617 292 596 292 C 576 292 561 282 551 263 C 540 244 535 219 535 189 C 535 157 540 132 551 114 C 561 96 576 87 594 87 Z M 955 87 C 976 87 992 96 1002 115 C 1012 133 1018 158 1018 189 C 1018 219 1013 243 1003 263 C 993 282 977 292 956 292 C 936 292 921 282 910 263 C 899 244 894 219 894 189 C 894 157 899 132 910 114 C 921 96 936 87 955 87 Z" unicode="‰" />
<glyph horiz-adv-x="249" d="M 221 83 L 26 253 L 26 328 L 221 496 L 221 377 L 130 288 L 221 205 L 221 83 Z" unicode="‹" />
<glyph horiz-adv-x="251" d="M 28 497 L 224 326 L 224 252 L 28 84 L 28 202 L 119 291 L 28 374 L 28 497 Z" unicode="›" />
<glyph horiz-adv-x="145" d="M 307 730 L -47 0 L -145 0 L 209 730 L 307 730 Z" unicode="⁄" />
<glyph horiz-adv-x="330" d="M 13 452 L 13 519 L 195 736 L 260 736 L 260 523 L 317 523 L 317 452 L 260 452 L 260 373 L 168 373 L 168 452 L 13 452 Z M 93 514 L 170 514 L 170 608 L 93 514 Z" unicode="⁴" />
<glyph horiz-adv-x="536" d="M 530 114 C 511 76 482 46 444 23 C 406 0 364 -12 319 -12 C 259 -12 208 11 166 57 C 124 103 97 166 83 246 L 30 246 L 30 328 L 75 328 C 74 332 74 337 74 343 C 74 349 74 354 74 360 C 74 364 74 369 74 375 C 74 380 74 385 75 390 L 30 390 L 30 473 L 82 473 C 88 513 97 549 110 582 C 122 615 138 643 158 667 C 178 691 201 709 228 722 C 254 735 284 742 318 742 C 376 742 421 730 453 706 C 485 682 509 654 524 624 L 432 573 C 420 593 406 610 389 623 C 371 635 348 642 320 642 C 287 642 260 628 238 600 C 216 572 202 530 194 473 L 473 473 L 473 390 L 187 390 C 187 385 187 380 187 376 C 187 371 187 366 187 362 C 187 356 187 350 187 344 C 187 338 187 333 188 328 L 473 328 L 473 246 L 196 246 C 206 191 222 151 245 125 C 268 99 294 87 323 87 C 351 87 375 95 395 112 C 415 129 430 149 441 172 L 530 114 Z" unicode="€" />
<glyph horiz-adv-x="919" d="M 870 306 L 763 306 L 763 555 L 638 374 L 619 374 L 495 554 L 495 306 L 392 306 L 392 730 L 484 730 L 629 521 L 775 730 L 870 730 L 870 306 Z M 363 612 L 251 612 L 251 306 L 131 306 L 131 612 L 16 612 L 16 730 L 363 730 L 363 612 Z" unicode="™" />
<glyph horiz-adv-x="766" d="M 40 0 L 40 110 L 243 110 L 243 166 C 181 186 130 221 90 272 C 50 323 31 382 31 449 C 31 490 39 529 55 565 C 71 601 93 633 123 660 C 153 687 189 708 233 724 C 276 740 325 748 379 748 C 435 748 485 740 529 724 C 573 708 611 686 641 660 C 671 633 695 601 711 565 C 727 528 735 489 735 449 C 735 381 717 322 682 272 C 646 222 593 186 522 166 L 522 110 L 725 110 L 725 0 L 429 0 L 429 229 C 485 245 528 273 558 312 C 588 351 603 394 603 442 C 603 471 597 498 586 524 C 574 549 559 571 539 589 C 519 607 495 621 468 631 C 440 641 411 646 380 646 C 349 646 320 641 294 631 C 267 621 244 606 225 588 C 205 570 190 548 179 523 C 168 497 163 470 163 440 C 163 394 177 352 206 314 C 235 276 278 247 336 229 L 336 0 L 40 0 Z" unicode="Ω" />
<glyph horiz-adv-x="554" d="M 513 290 C 513 235 506 188 493 150 C 480 112 463 81 441 57 C 419 33 393 16 363 6 C 333 -4 302 -10 270 -10 C 240 -10 211 -5 182 5 C 153 15 127 29 105 49 C 83 69 65 93 51 123 C 37 152 31 185 31 223 C 31 257 37 288 49 318 C 61 348 77 373 97 395 C 117 416 140 433 167 445 C 194 457 223 464 254 464 C 290 464 322 456 348 441 C 374 425 394 405 408 381 C 401 440 388 491 370 534 C 351 577 329 613 304 641 C 279 669 252 690 222 704 C 192 718 162 726 133 728 L 188 802 C 219 802 254 792 292 773 C 330 754 365 724 398 684 C 430 643 458 590 480 525 C 502 459 513 381 513 290 Z M 270 78 C 306 78 335 91 357 119 C 378 146 389 185 389 235 C 389 277 378 310 358 336 C 338 362 309 375 271 375 C 237 375 209 362 188 336 C 166 310 156 274 156 226 C 156 176 166 138 187 114 C 208 90 236 78 270 78 Z" unicode="∂" />
<glyph horiz-adv-x="624" d="M 626 0 L -1 0 L 291 731 L 337 731 L 626 0 Z M 463 96 L 309 512 L 156 96 L 463 96 Z" unicode="∆" />
<glyph horiz-adv-x="686" d="M 241 623 L 241 0 L 117 0 L 117 623 L 15 623 L 15 730 L 671 730 L 671 623 L 575 623 L 575 0 L 451 0 L 451 623 L 241 623 Z" unicode="∏" />
<glyph horiz-adv-x="596" d="M 210 621 L 430 307 L 176 -70 L 553 -70 L 553 -179 L -25 -179 L 306 306 L 5 730 L 532 730 L 532 621 L 210 621 Z" unicode="∑" />
<glyph horiz-adv-x="509" d="M 470 283 L 39 283 L 39 381 L 470 381 L 470 283 Z" unicode="−" />
<glyph horiz-adv-x="510" d="M 508 730 L 198 0 L 186 0 L 11 333 L 95 398 L 207 170 L 433 730 L 508 730 Z" unicode="√" />
<glyph horiz-adv-x="350" d="M 101 -9 L 157 620 C 159 640 164 658 172 674 C 180 689 191 702 203 712 C 215 722 229 730 244 735 C 259 740 274 743 288 743 C 302 743 317 742 332 741 C 347 740 356 739 359 739 L 350 636 C 348 636 344 637 338 638 C 332 638 326 639 320 639 C 301 639 286 632 274 620 C 262 607 256 587 254 561 L 201 -52 C 199 -68 195 -83 189 -99 C 182 -114 173 -128 162 -140 C 150 -152 137 -161 121 -169 C 105 -176 88 -179 70 -179 C 48 -179 28 -176 10 -172 C -7 -168 -22 -163 -32 -159 L -20 -74 C -15 -74 -8 -76 1 -79 C 10 -81 19 -83 28 -83 C 47 -83 63 -76 77 -64 C 90 -51 98 -33 101 -9 Z" unicode="∫" />
<glyph horiz-adv-x="487" d="M 359 509 L 454 509 C 452 461 443 420 427 388 C 411 355 385 339 350 339 C 327 339 307 342 289 350 C 271 358 256 367 245 377 C 232 387 219 395 207 403 C 195 410 182 414 170 414 C 158 414 146 406 135 392 C 124 378 119 361 119 342 L 31 342 C 31 392 40 433 60 464 C 79 494 106 510 141 510 C 163 510 182 505 200 495 C 217 485 232 476 244 467 C 256 459 267 451 279 445 C 291 438 302 435 314 435 C 330 435 342 441 349 455 C 355 468 359 486 359 509 Z M 360 323 L 454 323 C 452 275 442 234 425 202 C 407 169 381 153 345 153 C 322 153 302 157 285 165 C 267 173 253 182 241 192 C 229 202 218 210 206 217 C 194 223 182 227 170 227 C 158 227 147 220 136 206 C 125 192 120 176 120 156 L 31 156 C 31 207 40 248 60 279 C 80 309 108 325 144 325 C 166 325 187 320 205 310 C 223 300 237 290 249 281 C 260 272 271 264 283 258 C 295 252 306 249 317 249 C 333 249 344 255 350 268 C 356 281 360 299 360 323 Z" unicode="≈" />
<glyph horiz-adv-x="494" d="M 451 163 L 226 163 L 179 56 L 108 85 L 143 163 L 63 163 L 63 265 L 188 265 L 240 383 L 63 383 L 63 484 L 285 484 L 335 598 L 406 569 L 368 484 L 451 484 L 451 383 L 324 383 L 271 265 L 451 265 L 451 163 Z" unicode="≠" />
<glyph horiz-adv-x="494" d="M 177 327 L 430 194 L 430 13 L 59 13 L 59 97 L 413 97 L 60 287 L 60 361 L 430 564 L 430 459 L 177 327 Z" unicode="≤" />
<glyph horiz-adv-x="494" d="M 430 13 L 59 13 L 59 194 L 311 327 L 58 459 L 58 564 L 429 361 L 429 287 L 76 97 L 430 97 L 430 13 Z" unicode="≥" />
<glyph horiz-adv-x="545" d="M 516 326 L 278 -26 L 267 -26 L 28 326 L 28 337 L 267 688 L 278 688 L 516 337 L 516 326 Z M 405 327 L 405 336 L 277 530 L 269 530 L 139 336 L 139 327 L 269 132 L 277 132 L 405 327 Z" unicode="◊" />
<glyph horiz-adv-x="730" d="M 448 664 L 282 664 L 282 730 L 448 730 L 448 664 Z M 659 282 L 591 282 L 591 448 L 659 448 L 659 282 Z M 139 282 L 71 282 L 71 448 L 139 448 L 139 282 Z M 442 288 L 288 288 L 288 442 L 442 442 L 442 288 Z M 448 0 L 282 0 L 282 67 L 448 67 L 448 0 Z" unicode="" />
<glyph horiz-adv-x="559" d="M 321 393 L 211 393 L 211 0 L 92 0 L 92 393 L 13 393 L 13 489 L 92 489 L 92 578 C 92 611 97 640 108 666 C 118 691 132 712 149 729 C 166 745 186 758 208 766 C 230 774 252 779 274 779 C 290 779 307 777 325 773 C 343 769 356 765 364 761 L 343 665 C 338 667 331 669 321 671 C 311 673 302 675 292 675 C 272 675 253 667 236 651 C 218 635 210 610 210 578 L 210 489 L 321 489 L 321 393 Z M 502 575 L 378 575 L 378 686 L 502 686 L 502 575 Z M 500 0 L 380 0 L 380 489 L 500 489 L 500 0 Z" unicode="ﬁ" />
<glyph horiz-adv-x="549" d="M 322 396 L 211 396 L 211 0 L 92 0 L 92 396 L 12 396 L 12 494 L 92 494 L 92 577 C 92 610 97 639 108 665 C 118 690 132 711 149 728 C 166 744 186 757 208 766 C 230 774 252 779 274 779 C 290 779 307 777 325 774 C 343 770 356 766 364 762 L 344 665 C 339 667 332 670 322 672 C 312 674 302 676 292 676 C 272 676 254 667 236 651 C 218 634 210 609 210 577 L 210 494 L 322 494 L 322 396 Z M 491 775 L 491 0 L 371 0 L 371 775 L 491 775 Z" unicode="ﬂ" />
</font>
</defs>
</svg>
