<?xml version="1.0" encoding="utf-8" ?><svg version="1.1" xmlns = 'http://www.w3.org/2000/svg'><defs><font id='web' horiz-adv-x="1000">
<font-face font-family="web" descent="-200" cap-height="730" units-per-em="1000" bbox="-156,-316,937,1034" x-height="486" ascent="800" />
<missing-glyph horiz-adv-x="500" d="" /><glyph horiz-adv-x="176" d="" unicode=" " />
<glyph horiz-adv-x="256" d="M 174 427 L 146 196 L 110 196 L 82 427 L 82 730 L 174 730 L 174 427 Z M 170 0 L 87 0 L 87 98 L 170 98 L 170 0 Z" unicode="!" />
<glyph horiz-adv-x="325" d="M 276 624 L 270 490 L 205 490 L 201 623 L 201 730 L 276 730 L 276 624 Z M 123 623 L 119 490 L 53 490 L 49 623 L 49 730 L 123 730 L 123 623 Z" unicode="&#x22;" />
<glyph horiz-adv-x="540" d="M 493 224 L 380 224 L 360 0 L 307 1 L 327 224 L 189 224 L 169 0 L 115 1 L 135 224 L 29 224 L 29 297 L 141 297 L 153 429 L 47 429 L 47 502 L 159 502 L 179 730 L 233 729 L 213 502 L 351 502 L 371 730 L 424 729 L 404 502 L 511 502 L 511 429 L 398 429 L 386 297 L 493 297 L 493 224 Z M 195 297 L 333 297 L 345 429 L 207 429 L 195 297 Z" unicode="#" />
<glyph horiz-adv-x="451" d="M 416 184 C 416 157 411 133 403 111 C 394 89 382 71 368 56 C 353 40 336 28 316 18 C 296 8 276 2 254 0 L 254 -128 L 202 -128 L 202 -1 C 166 1 133 9 103 23 C 73 37 47 58 24 87 L 64 146 C 80 121 101 102 127 90 C 152 77 177 70 202 69 L 202 346 C 150 374 111 404 85 434 C 58 464 45 506 45 560 C 45 608 60 647 90 678 C 120 708 157 726 202 731 L 202 792 L 254 792 L 254 731 C 285 728 313 721 337 709 C 361 697 382 681 400 663 L 357 608 C 342 623 326 635 308 644 C 290 652 272 658 254 660 L 254 404 L 258 402 C 317 370 358 337 381 305 C 404 273 416 232 416 184 Z M 124 554 C 124 528 130 507 140 489 C 150 471 171 453 202 434 L 202 658 C 180 652 162 640 147 622 C 131 604 124 581 124 554 Z M 338 188 C 338 214 331 236 319 255 C 307 274 285 294 254 315 L 254 75 C 276 81 296 94 313 112 C 329 130 338 155 338 188 Z" unicode="$" />
<glyph horiz-adv-x="674" d="M 167 363 C 151 363 135 366 119 374 C 103 382 90 393 78 409 C 66 425 56 444 48 468 C 40 492 37 519 37 551 C 37 604 49 649 73 685 C 97 721 129 740 167 740 C 187 740 206 735 222 725 C 238 715 252 701 264 685 C 276 668 285 648 291 626 C 297 603 301 579 301 554 C 301 527 297 502 291 479 C 284 455 275 435 263 418 C 251 400 236 387 220 377 C 204 367 186 363 167 363 Z M 150 0 L 85 0 L 506 730 L 569 730 L 150 0 Z M 167 427 C 179 427 190 430 199 438 C 207 445 214 454 219 466 C 224 478 228 491 230 506 C 232 520 233 535 233 551 C 233 565 231 580 229 595 C 227 610 223 624 219 636 C 214 648 208 657 200 665 C 192 672 182 676 170 676 C 158 676 147 672 139 665 C 131 657 124 648 119 636 C 114 624 110 611 108 596 C 106 581 105 566 105 551 C 105 535 106 520 108 506 C 110 491 113 478 118 466 C 122 454 129 445 137 438 C 145 430 155 427 167 427 Z M 502 -3 C 485 -3 469 0 453 8 C 437 16 422 27 410 43 C 398 59 388 78 380 102 C 372 126 369 153 369 185 C 369 238 381 283 406 319 C 431 355 464 374 504 374 C 524 374 543 369 560 359 C 576 349 590 335 602 319 C 613 302 622 282 628 260 C 634 237 637 213 637 188 C 637 161 633 136 627 113 C 621 89 612 69 600 52 C 588 34 573 21 557 11 C 540 1 522 -3 502 -3 Z M 501 62 C 526 62 543 74 553 100 C 563 126 568 154 568 185 C 568 200 566 215 564 230 C 562 245 558 259 553 271 C 548 283 541 292 533 300 C 525 307 515 311 503 311 C 480 311 463 298 453 272 C 442 246 437 217 437 185 C 437 154 441 126 451 100 C 461 74 477 62 501 62 Z" unicode="%" />
<glyph horiz-adv-x="624" d="M 558 -6 L 483 77 C 451 49 416 27 379 13 C 341 0 300 -8 254 -8 C 186 -8 132 8 91 41 C 49 73 29 120 29 180 C 29 239 44 285 74 317 C 104 349 142 377 186 403 L 171 420 C 155 438 138 460 122 487 C 106 514 98 547 98 585 C 98 604 101 623 109 642 C 116 660 126 677 140 691 C 154 705 171 716 191 724 C 211 732 235 737 262 737 C 314 737 355 722 387 694 C 419 666 435 632 435 593 C 435 551 423 515 399 484 C 375 453 342 423 300 395 L 486 193 C 495 205 504 219 514 234 C 524 249 534 265 544 282 L 608 236 C 597 217 586 199 574 182 C 562 165 551 149 539 135 L 617 51 L 558 -6 Z M 233 467 L 255 443 C 289 465 314 486 330 506 C 346 526 354 548 354 571 C 354 595 346 617 331 635 C 316 653 295 663 267 663 C 239 663 218 653 204 634 C 190 614 183 594 183 573 C 183 554 187 536 195 518 C 203 500 216 483 233 467 Z M 119 189 C 119 151 133 122 163 100 C 193 78 227 67 267 67 C 299 67 328 72 355 83 C 381 94 407 111 432 133 L 233 352 C 200 330 173 307 151 283 C 129 258 119 227 119 189 Z" unicode="&#x26;" />
<glyph horiz-adv-x="174" d="M 126 621 L 122 486 L 52 486 L 48 621 L 48 730 L 126 730 L 126 621 Z" unicode="'" />
<glyph horiz-adv-x="290" d="M 268 -113 L 268 -179 C 236 -163 206 -140 176 -111 C 146 -81 119 -47 97 -7 C 74 33 56 78 42 129 C 28 179 22 234 22 293 C 22 347 28 398 40 446 C 52 494 69 538 91 577 C 113 616 139 650 169 680 C 199 709 232 732 268 749 L 268 684 C 215 650 175 598 148 530 C 120 462 106 383 106 293 C 105 207 117 129 143 57 C 169 -15 210 -71 268 -113 Z" unicode="(" />
<glyph horiz-adv-x="290" d="M 22 685 L 22 749 C 55 733 87 711 117 683 C 147 655 173 621 195 581 C 217 541 235 496 248 446 C 261 396 268 341 268 283 C 268 228 261 176 248 128 C 235 80 218 36 196 -3 C 174 -42 148 -77 118 -107 C 88 -137 56 -161 22 -179 L 22 -111 C 77 -71 118 -17 144 53 C 170 123 184 199 185 283 C 185 375 172 456 145 526 C 118 596 77 649 22 685 Z" unicode=")" />
<glyph horiz-adv-x="382" d="M 356 589 L 226 556 L 316 460 L 266 420 L 192 532 L 120 421 L 67 459 L 159 557 L 31 590 L 60 654 L 171 597 L 159 730 L 225 730 L 212 597 L 330 647 L 356 589 Z" unicode="*" />
<glyph horiz-adv-x="475" d="M 450 299 L 272 299 L 272 125 L 204 125 L 204 299 L 26 299 L 26 364 L 204 364 L 204 537 L 272 537 L 272 364 L 450 364 L 450 299 Z" unicode="+" />
<glyph horiz-adv-x="199" d="M 164 100 C 163 78 160 55 155 32 C 149 8 142 -14 134 -36 C 125 -58 115 -78 104 -97 C 93 -116 82 -132 72 -145 L 8 -116 C 15 -106 22 -93 30 -77 C 38 -61 45 -43 52 -24 C 58 -4 64 15 69 37 C 73 58 76 79 77 100 L 164 100 Z" unicode="," />
<glyph horiz-adv-x="312" d="M 277 226 L 36 226 L 36 302 L 277 302 L 277 226 Z" unicode="-" />
<glyph horiz-adv-x="201" d="M 143 0 L 58 0 L 58 120 L 143 120 L 143 0 Z" unicode="." />
<glyph horiz-adv-x="302" d="M 298 730 L 82 0 L 4 0 L 223 730 L 298 730 Z" unicode="/" />
<glyph horiz-adv-x="439" d="M 217 -7 C 190 -7 165 0 143 12 C 120 24 100 45 84 73 C 67 101 54 139 45 187 C 35 234 31 292 31 361 C 31 477 46 569 77 637 C 107 704 155 738 221 738 C 254 738 282 729 306 712 C 330 695 349 671 364 639 C 379 607 390 569 397 524 C 404 478 408 428 408 372 C 408 247 391 153 359 89 C 326 25 279 -7 217 -7 Z M 217 64 C 253 64 280 87 298 135 C 316 182 325 258 325 363 C 325 463 317 539 302 589 C 287 639 260 665 220 665 C 181 665 154 640 138 592 C 122 544 114 468 114 365 C 114 253 123 175 141 131 C 159 86 185 64 217 64 Z" unicode="0" />
<glyph horiz-adv-x="290" d="M 226 0 L 140 0 L 140 605 C 130 584 113 564 91 546 C 69 528 48 517 28 514 L 28 605 C 38 606 49 611 62 619 C 74 627 86 638 98 650 C 110 662 120 675 130 689 C 140 703 147 718 152 732 L 226 732 L 226 0 Z" unicode="1" />
<glyph horiz-adv-x="424" d="M 393 0 L 23 0 L 23 22 L 240 350 C 258 378 274 409 287 443 C 300 476 307 513 307 553 C 307 589 297 617 279 636 C 261 654 236 664 206 664 C 169 664 143 650 127 624 C 111 597 103 562 103 520 L 29 520 C 29 595 45 650 77 685 C 109 719 152 737 206 737 C 257 737 300 722 334 692 C 368 662 386 619 386 561 C 386 505 379 459 366 425 C 352 390 336 358 317 330 L 149 76 L 393 76 L 393 0 Z" unicode="2" />
<glyph horiz-adv-x="422" d="M 189 -7 C 141 -7 102 0 72 16 C 42 31 19 48 3 67 L 41 128 C 54 112 72 97 94 84 C 116 70 145 64 179 64 C 202 64 222 68 240 77 C 258 85 272 97 284 112 C 296 126 304 143 310 163 C 316 182 319 202 319 224 C 319 247 315 267 307 285 C 299 303 289 317 277 329 C 265 341 251 349 235 355 C 219 361 204 364 188 364 L 111 364 L 111 435 L 185 435 C 215 435 242 445 264 467 C 286 488 298 518 298 557 C 298 589 289 615 271 635 C 253 655 228 665 196 665 C 166 665 141 658 120 646 C 99 634 81 616 66 594 L 16 644 C 32 670 56 693 87 711 C 118 729 157 738 205 738 C 257 738 298 723 328 694 C 358 665 374 625 374 573 C 374 549 370 527 364 508 C 357 488 348 471 338 457 C 327 443 315 431 302 422 C 288 413 275 407 262 403 C 278 399 294 393 310 384 C 326 374 341 362 354 347 C 367 331 378 313 386 292 C 394 271 398 247 398 221 C 398 193 394 166 386 139 C 378 111 366 87 350 65 C 333 43 311 26 285 13 C 258 0 226 -7 189 -7 Z" unicode="3" />
<glyph horiz-adv-x="415" d="M 413 195 L 338 195 L 338 0 L 266 0 L 266 195 L 3 195 L 2 251 L 286 738 L 338 738 L 338 267 L 413 267 L 413 195 Z M 266 263 L 266 578 L 87 263 L 266 263 Z" unicode="4" />
<glyph horiz-adv-x="410" d="M 200 -7 C 158 -7 120 0 85 16 C 50 31 23 51 5 76 L 52 135 C 65 116 83 99 107 85 C 131 71 158 64 188 64 C 226 64 256 79 278 111 C 300 143 311 187 311 243 C 311 293 300 331 280 358 C 260 385 234 399 203 399 C 169 399 143 391 127 377 C 111 363 98 345 89 323 L 32 338 L 58 730 L 359 730 L 358 654 L 121 654 L 104 407 C 112 421 125 436 143 450 C 161 464 190 471 229 471 C 276 471 315 453 346 417 C 377 381 393 326 393 251 C 393 207 387 169 377 137 C 367 105 353 78 335 57 C 317 35 297 19 274 9 C 250 -1 226 -7 200 -7 Z" unicode="5" />
<glyph horiz-adv-x="414" d="M 216 -9 C 189 -9 164 -4 141 5 C 117 15 97 29 80 48 C 63 66 50 90 40 118 C 30 146 25 179 25 217 C 25 289 40 361 70 432 C 100 502 144 577 203 657 L 267 745 L 328 705 L 287 649 C 239 583 199 523 169 470 C 139 416 120 374 113 344 C 123 366 138 385 160 401 C 181 416 206 424 236 424 C 283 424 321 404 351 365 C 381 325 396 274 396 211 C 396 147 379 94 345 53 C 311 11 268 -9 216 -9 Z M 214 63 C 245 63 270 75 288 101 C 306 127 316 162 316 207 C 316 255 307 291 289 316 C 271 340 246 353 216 353 C 185 353 159 341 139 317 C 118 293 108 258 108 212 C 108 161 118 123 139 99 C 160 75 185 63 214 63 Z" unicode="6" />
<glyph horiz-adv-x="350" d="M 354 730 L 354 690 L 99 -4 L 25 24 L 264 654 L 9 654 L 9 730 L 354 730 Z" unicode="7" />
<glyph horiz-adv-x="427" d="M 285 390 C 299 386 313 380 328 372 C 342 363 356 351 368 336 C 380 321 390 303 398 281 C 406 259 410 233 410 205 C 410 139 392 87 357 49 C 321 11 274 -7 214 -7 C 154 -7 106 11 71 48 C 35 85 18 135 18 197 C 18 227 22 254 30 278 C 38 301 49 320 62 336 C 74 352 88 364 103 373 C 117 382 131 388 144 391 C 131 394 118 400 106 408 C 93 416 81 426 71 440 C 61 453 52 469 46 489 C 39 508 36 531 36 558 C 36 586 40 611 50 633 C 59 655 72 674 88 690 C 104 705 122 717 144 725 C 166 733 189 737 213 737 C 265 737 308 721 341 689 C 374 657 391 616 391 566 C 391 540 387 516 381 496 C 375 476 366 459 356 445 C 346 431 334 419 322 410 C 309 400 297 394 285 390 Z M 215 418 C 243 418 267 428 287 449 C 307 469 317 501 317 543 C 317 581 307 612 287 634 C 267 656 242 667 214 667 C 184 667 159 656 139 636 C 119 615 109 585 109 545 C 109 521 112 501 119 485 C 125 469 134 456 144 446 C 154 436 165 428 178 424 C 190 420 203 418 215 418 Z M 215 64 C 249 64 276 75 297 99 C 317 123 328 160 328 210 C 328 256 316 291 293 314 C 269 337 243 349 215 349 C 183 349 156 337 133 315 C 110 292 99 256 99 206 C 99 160 110 124 134 100 C 157 76 184 64 215 64 Z" unicode="8" />
<glyph horiz-adv-x="413" d="M 163 -12 L 101 30 L 131 71 C 149 94 167 121 187 151 C 206 181 224 212 241 242 C 257 272 272 301 284 329 C 296 357 305 380 310 399 C 298 375 280 354 254 336 C 228 318 201 310 173 310 C 126 310 88 330 60 371 C 31 411 17 463 17 525 C 17 587 34 638 70 678 C 105 717 149 737 202 737 C 226 737 250 732 273 723 C 295 714 315 700 332 682 C 349 663 363 639 373 611 C 383 582 388 548 388 510 C 388 468 382 426 372 384 C 361 342 347 301 331 263 C 315 224 296 187 276 153 C 255 118 235 87 215 60 L 163 -12 Z M 197 382 C 209 382 222 384 235 390 C 247 395 259 403 269 414 C 279 424 288 438 295 456 C 301 473 305 494 305 518 C 305 570 294 607 274 630 C 254 652 229 664 201 664 C 168 664 142 652 124 628 C 106 604 97 570 97 526 C 97 478 105 442 123 418 C 140 394 165 382 197 382 Z" unicode="9" />
<glyph horiz-adv-x="200" d="M 143 370 L 58 370 L 58 486 L 143 486 L 143 370 Z M 143 0 L 58 0 L 58 117 L 143 117 L 143 0 Z" unicode=":" />
<glyph horiz-adv-x="200" d="M 149 370 L 64 370 L 64 486 L 149 486 L 149 370 Z M 151 96 C 149 50 140 4 122 -39 C 104 -83 84 -119 62 -145 L -2 -116 C 12 -95 28 -65 44 -25 C 60 14 68 54 68 96 L 151 96 Z" unicode=";" />
<glyph horiz-adv-x="361" d="M 319 102 L 32 297 L 32 353 L 319 545 L 319 467 L 112 325 L 319 182 L 319 102 Z" unicode="&#x3C;" />
<glyph horiz-adv-x="488" d="M 433 390 L 56 390 L 56 462 L 433 462 L 433 390 Z M 433 179 L 56 179 L 56 251 L 433 251 L 433 179 Z" unicode="=" />
<glyph horiz-adv-x="361" d="M 326 297 L 40 102 L 40 181 L 244 325 L 40 467 L 40 545 L 326 353 L 326 297 Z" unicode="&#x3E;" />
<glyph horiz-adv-x="425" d="M 157 199 C 157 241 162 277 173 307 C 183 336 200 364 223 392 C 241 413 259 437 278 463 C 297 489 307 522 307 560 C 307 592 297 618 277 637 C 257 656 231 666 201 666 C 173 666 149 658 129 644 C 108 630 90 612 75 590 L 25 641 C 48 674 76 699 110 716 C 144 733 179 742 216 742 C 272 742 315 726 347 696 C 379 665 395 623 395 570 C 395 544 391 521 385 501 C 378 480 369 461 359 444 C 349 426 337 410 324 395 C 311 379 299 365 287 351 C 267 331 254 306 248 278 C 241 250 237 223 237 199 L 157 199 Z M 153 0 L 153 106 L 244 106 L 244 0 L 153 0 Z" unicode="?" />
<glyph horiz-adv-x="817" d="M 406 -38 C 352 -38 302 -28 256 -8 C 210 12 171 39 139 73 C 106 107 80 147 62 193 C 44 239 35 288 35 340 C 35 392 44 441 63 487 C 81 533 107 574 140 608 C 173 642 213 668 259 688 C 305 708 355 718 409 718 C 465 718 516 709 562 692 C 608 674 648 650 680 620 C 712 590 738 553 756 511 C 774 468 783 421 783 371 C 783 327 778 289 768 258 C 758 227 745 202 729 183 C 713 163 696 149 677 140 C 657 131 639 127 621 127 C 591 127 567 134 549 148 C 531 162 521 181 518 203 C 509 187 490 170 462 153 C 433 135 400 127 362 127 C 314 127 277 138 251 162 C 225 186 213 217 213 257 C 213 302 231 337 268 361 C 304 385 350 398 405 398 L 504 398 L 504 412 C 504 447 494 471 475 485 C 456 499 432 506 403 506 C 378 506 355 503 333 497 C 311 491 293 485 279 480 L 257 534 C 276 543 299 551 325 557 C 351 563 377 566 405 566 C 460 566 501 552 529 524 C 557 496 571 454 571 396 L 571 243 C 571 228 575 214 584 202 C 592 190 607 184 627 184 C 637 184 647 186 659 192 C 671 197 681 206 691 220 C 701 233 709 251 715 275 C 721 299 725 329 725 367 C 725 409 717 449 702 485 C 687 521 666 553 639 579 C 612 605 579 625 540 640 C 501 655 458 663 410 663 C 364 663 321 654 282 637 C 243 620 210 597 182 568 C 154 539 133 505 117 466 C 101 426 94 384 94 340 C 94 296 101 254 117 215 C 133 175 154 141 182 112 C 209 82 242 59 281 42 C 319 24 362 16 408 16 C 428 16 448 18 469 22 C 489 26 512 33 536 45 L 558 -4 C 530 -16 504 -25 480 -30 C 455 -35 430 -38 406 -38 Z M 379 186 C 407 186 434 192 459 206 C 484 220 499 234 504 248 L 504 344 L 407 344 C 367 344 337 336 317 322 C 297 308 287 288 287 262 C 287 239 295 221 311 207 C 327 193 349 186 379 186 Z" unicode="@" />
<glyph horiz-adv-x="475" d="M 473 0 L 387 0 L 336 185 L 134 185 L 86 0 L 2 0 L 206 734 L 268 734 L 473 0 Z M 323 255 L 235 573 L 148 255 L 323 255 Z" unicode="A" />
<glyph horiz-adv-x="447" d="M 63 0 L 63 730 L 229 730 C 278 730 319 714 351 684 C 383 654 400 612 400 558 C 400 506 387 465 363 435 C 339 405 311 388 280 383 C 296 381 313 377 331 369 C 348 361 363 349 377 335 C 391 320 402 302 411 281 C 420 259 425 234 425 206 C 425 145 408 95 375 57 C 341 19 298 0 246 0 L 63 0 Z M 149 410 L 212 410 C 248 410 275 423 291 449 C 307 475 315 506 315 540 C 315 576 306 604 288 624 C 270 644 242 655 205 655 L 149 655 L 149 410 Z M 149 75 L 226 75 C 264 75 293 88 311 114 C 329 140 338 171 338 209 C 338 253 326 285 303 306 C 280 326 251 337 215 337 L 149 337 L 149 75 Z" unicode="B" />
<glyph horiz-adv-x="500" d="M 276 -7 C 241 -7 209 0 180 16 C 150 31 125 54 104 85 C 82 115 66 154 54 201 C 42 248 36 303 36 366 C 36 484 56 575 98 640 C 140 704 199 737 277 737 C 336 737 380 722 410 694 C 439 665 460 630 473 590 L 393 562 C 382 588 368 611 351 629 C 334 647 309 657 277 657 C 229 657 192 634 166 589 C 139 543 126 468 126 362 C 126 308 130 263 139 226 C 148 188 160 158 175 136 C 189 113 206 97 225 87 C 244 77 263 72 283 72 C 318 72 345 81 364 100 C 382 119 397 145 409 177 L 482 146 C 465 98 440 61 407 34 C 373 6 330 -7 276 -7 Z" unicode="C" />
<glyph horiz-adv-x="537" d="M 63 0 L 63 730 L 219 730 C 264 730 304 721 340 704 C 375 686 404 662 428 630 C 452 598 470 560 482 515 C 494 470 501 420 501 365 C 501 314 495 266 483 222 C 471 177 454 138 430 106 C 406 73 375 47 339 28 C 303 9 260 0 211 0 L 63 0 Z M 152 77 L 211 77 C 247 77 277 83 303 97 C 328 111 348 130 364 155 C 380 180 391 210 399 246 C 406 281 410 320 410 363 C 410 460 393 533 360 581 C 326 629 280 653 220 653 L 152 653 L 152 77 Z" unicode="D" />
<glyph horiz-adv-x="391" d="M 378 0 L 63 0 L 63 730 L 361 730 L 361 650 L 150 650 L 150 404 L 353 404 L 353 325 L 150 325 L 150 80 L 378 80 L 378 0 Z" unicode="E" />
<glyph horiz-adv-x="353" d="M 345 650 L 153 650 L 153 406 L 334 406 L 334 328 L 153 328 L 153 0 L 63 0 L 63 730 L 345 730 L 345 650 Z" unicode="F" />
<glyph horiz-adv-x="533" d="M 280 359 L 500 359 L 500 117 C 481 79 453 49 417 27 C 380 4 335 -7 281 -7 C 247 -7 215 1 185 18 C 155 34 129 58 107 90 C 85 122 67 161 55 207 C 42 253 36 306 36 365 C 36 421 41 473 53 519 C 65 565 81 604 103 636 C 124 668 150 693 180 711 C 210 728 244 737 282 737 C 338 737 381 724 412 698 C 442 672 465 642 480 606 L 405 567 C 394 591 379 612 360 630 C 341 648 316 657 284 657 C 236 657 198 633 169 585 C 140 537 126 462 126 362 C 126 262 141 188 171 140 C 201 91 239 67 283 67 C 315 67 343 73 366 85 C 388 97 406 114 419 138 L 419 284 L 280 284 L 280 359 Z" unicode="G" />
<glyph horiz-adv-x="536" d="M 473 0 L 383 0 L 383 321 L 153 321 L 153 0 L 63 0 L 63 730 L 153 730 L 153 400 L 383 400 L 383 730 L 473 730 L 473 0 Z" unicode="H" />
<glyph horiz-adv-x="224" d="M 158 0 L 67 0 L 67 730 L 158 730 L 158 0 Z" unicode="I" />
<glyph horiz-adv-x="286" d="M 227 730 L 227 182 C 227 127 212 82 183 46 C 154 10 115 -8 65 -8 C 53 -8 41 -7 27 -5 C 13 -3 2 0 -5 5 L 4 83 C 8 80 15 78 24 76 C 32 74 41 74 51 74 C 78 74 99 86 114 111 C 129 135 137 165 137 199 L 137 730 L 227 730 Z" unicode="J" />
<glyph horiz-adv-x="486" d="M 496 0 L 396 0 L 190 332 L 153 285 L 153 0 L 63 0 L 63 730 L 153 730 L 153 396 L 381 730 L 476 730 L 248 401 L 496 0 Z" unicode="K" />
<glyph horiz-adv-x="357" d="M 351 0 L 63 0 L 63 730 L 153 730 L 153 80 L 351 80 L 351 0 Z" unicode="L" />
<glyph horiz-adv-x="643" d="M 580 0 L 495 0 L 495 536 L 344 168 L 302 168 L 147 536 L 147 0 L 63 0 L 63 730 L 143 730 L 323 303 L 505 730 L 580 730 L 580 0 Z" unicode="M" />
<glyph horiz-adv-x="535" d="M 472 0 L 408 0 L 147 520 L 147 0 L 63 0 L 63 730 L 127 730 L 391 208 L 391 730 L 472 730 L 472 0 Z" unicode="N" />
<glyph horiz-adv-x="571" d="M 288 -7 C 209 -7 147 25 103 90 C 58 154 36 248 36 371 C 36 485 58 575 103 640 C 147 704 207 737 283 737 C 363 737 425 705 469 641 C 513 577 535 485 535 365 C 535 248 512 157 466 91 C 420 25 361 -7 288 -7 Z M 286 68 C 334 68 372 92 400 142 C 428 192 443 268 443 372 C 443 468 428 541 400 589 C 371 637 332 662 283 662 C 233 662 195 638 168 590 C 141 542 128 466 128 364 C 128 261 142 186 171 139 C 200 91 238 68 286 68 Z" unicode="O" />
<glyph horiz-adv-x="438" d="M 63 0 L 63 730 L 237 730 C 262 730 286 725 309 716 C 331 706 351 693 368 676 C 384 658 397 637 407 612 C 417 586 422 557 422 525 C 422 458 404 405 369 366 C 333 326 290 307 238 307 L 153 307 L 153 0 L 63 0 Z M 153 383 L 213 383 C 251 383 280 394 301 417 C 322 440 333 476 333 524 C 333 568 321 600 297 622 C 273 643 245 654 213 654 L 153 654 L 153 383 Z" unicode="P" />
<glyph horiz-adv-x="571" d="M 505 -74 L 505 -157 C 465 -149 427 -131 391 -101 C 354 -71 325 -39 304 -5 C 301 -5 298 -6 296 -6 C 293 -6 290 -6 288 -6 C 210 -6 149 26 104 90 C 58 154 36 248 36 371 C 36 485 58 575 104 640 C 149 704 209 737 283 737 C 362 737 424 705 468 641 C 512 577 535 485 535 366 C 535 276 521 202 493 142 C 465 82 428 40 382 16 C 398 -6 418 -26 442 -43 C 465 -59 486 -70 505 -74 Z M 286 64 C 334 64 372 89 401 141 C 429 192 444 268 444 370 C 444 471 428 545 398 593 C 368 640 329 664 283 664 C 233 664 195 640 168 592 C 140 544 127 468 127 364 C 127 262 141 187 170 138 C 199 88 238 64 286 64 Z" unicode="Q" />
<glyph horiz-adv-x="458" d="M 63 0 L 63 730 L 215 730 C 268 730 312 713 347 681 C 382 648 400 599 400 533 C 400 479 388 434 364 398 C 340 362 311 341 275 336 L 273 333 L 456 0 L 362 0 L 192 314 L 146 314 L 146 0 L 63 0 Z M 146 389 L 206 389 C 238 389 264 401 284 424 C 304 447 315 480 315 522 C 315 567 304 600 282 622 C 260 643 234 654 204 654 L 146 654 L 146 389 Z" unicode="R" />
<glyph horiz-adv-x="406" d="M 204 -7 C 166 -7 131 0 101 13 C 71 26 44 49 20 81 L 73 137 C 87 112 106 93 129 81 C 152 69 175 63 198 63 C 224 63 248 73 268 93 C 288 113 299 141 299 176 C 299 211 290 240 274 263 C 258 286 227 312 181 342 C 135 371 100 402 75 434 C 50 466 38 509 38 565 C 38 591 42 615 51 637 C 60 658 72 676 88 691 C 104 705 122 717 143 725 C 164 733 186 737 210 737 C 248 737 279 730 305 717 C 331 703 351 688 366 672 L 316 614 C 304 626 289 637 271 647 C 252 656 232 661 212 661 C 188 661 166 652 148 635 C 130 618 121 593 121 561 C 121 529 128 504 144 484 C 160 464 191 439 238 410 C 290 377 327 343 349 308 C 370 272 381 230 381 180 C 381 150 376 123 366 100 C 356 76 342 57 326 41 C 310 25 291 13 270 5 C 248 -2 226 -7 204 -7 Z" unicode="S" />
<glyph horiz-adv-x="373" d="M 366 650 L 231 650 L 231 0 L 141 0 L 141 650 L 7 650 L 7 730 L 366 730 L 366 650 Z" unicode="T" />
<glyph horiz-adv-x="534" d="M 475 730 L 475 216 C 475 176 469 141 457 113 C 445 85 430 62 411 44 C 391 26 369 13 343 5 C 317 -2 290 -7 262 -7 C 235 -7 209 -3 185 4 C 160 12 138 24 120 42 C 101 60 86 83 75 111 C 64 139 59 174 59 216 L 59 730 L 148 730 L 148 215 C 148 161 159 124 181 102 C 203 80 232 70 266 70 C 298 70 326 80 349 101 C 371 121 383 159 383 215 L 383 730 L 475 730 Z" unicode="U" />
<glyph horiz-adv-x="458" d="M 456 730 L 260 -4 L 193 -4 L 2 730 L 89 730 L 230 168 L 372 730 L 456 730 Z" unicode="V" />
<glyph horiz-adv-x="684" d="M 664 730 L 515 -3 L 453 -3 L 335 552 L 216 -3 L 154 -3 L 6 730 L 91 730 L 194 177 L 306 730 L 373 730 L 483 177 L 588 730 L 664 730 Z" unicode="W" />
<glyph horiz-adv-x="438" d="M 341 0 L 216 285 L 90 0 L 6 0 L 175 380 L 21 730 L 109 730 L 219 479 L 330 730 L 414 730 L 261 384 L 429 0 L 341 0 Z" unicode="X" />
<glyph horiz-adv-x="457" d="M 459 730 L 271 307 L 271 0 L 181 0 L 181 308 L -1 730 L 97 730 L 232 401 L 373 730 L 459 730 Z" unicode="Y" />
<glyph horiz-adv-x="418" d="M 391 730 L 391 684 L 124 78 L 402 78 L 402 0 L 15 0 L 15 44 L 284 650 L 45 650 L 45 730 L 391 730 Z" unicode="Z" />
<glyph horiz-adv-x="216" d="M 195 -179 L 48 -179 L 48 730 L 195 730 L 195 660 L 127 660 L 127 -108 L 195 -108 L 195 -179 Z" unicode="[" />
<glyph horiz-adv-x="302" d="M 4 730 L 79 730 L 298 0 L 222 0 L 4 730 Z" unicode="\" />
<glyph horiz-adv-x="218" d="M 172 -179 L 24 -179 L 24 -109 L 92 -109 L 92 660 L 24 660 L 24 730 L 172 730 L 172 -179 Z" unicode="]" />
<glyph horiz-adv-x="431" d="M 408 369 L 335 369 L 213 646 L 94 369 L 22 369 L 178 730 L 250 730 L 408 369 Z" unicode="^" />
<glyph horiz-adv-x="426" d="M 426 -154 L 0 -154 L 0 -86 L 426 -86 L 426 -154 Z" unicode="_" />
<glyph horiz-adv-x="500" d="M 336 548 L 256 548 L 158 720 L 252 720 L 336 548 Z" unicode="`" />
<glyph horiz-adv-x="368" d="M 326 0 L 254 0 L 254 52 C 240 34 225 20 207 10 C 189 0 166 -5 138 -5 C 105 -5 77 7 54 33 C 31 59 20 96 20 144 C 20 196 35 235 65 259 C 95 283 131 296 172 299 L 248 305 L 248 343 C 248 370 241 390 228 404 C 214 417 195 424 169 424 C 146 424 127 420 111 412 C 95 404 82 396 74 388 L 50 449 C 64 461 82 472 104 481 C 126 490 155 495 189 495 C 229 495 261 483 287 460 C 313 437 326 403 326 359 L 326 0 Z M 250 105 L 250 246 L 189 241 C 165 239 143 230 125 215 C 107 200 98 176 98 143 C 98 114 105 93 121 80 C 136 67 152 61 170 61 C 189 61 205 65 218 74 C 231 82 242 93 250 105 Z" unicode="a" />
<glyph horiz-adv-x="402" d="M 232 -4 C 203 -4 179 3 160 18 C 140 32 126 51 118 74 L 118 0 L 42 0 L 42 792 L 121 792 L 121 393 C 128 417 141 440 161 460 C 180 480 206 491 239 491 C 282 491 316 469 342 425 C 367 381 380 325 380 255 C 380 173 366 110 338 64 C 310 18 274 -4 232 -4 Z M 203 61 C 231 61 253 76 269 107 C 285 138 293 184 293 246 C 293 302 285 344 269 374 C 253 403 232 418 204 418 C 181 418 161 404 144 377 C 126 349 118 301 118 232 C 118 196 120 167 125 145 C 130 123 137 105 145 93 C 153 81 162 72 172 68 C 182 63 193 61 203 61 Z" unicode="b" />
<glyph horiz-adv-x="343" d="M 287 120 L 334 75 C 323 56 308 38 288 21 C 268 3 239 -5 201 -5 C 172 -5 146 1 124 13 C 102 25 83 42 68 64 C 52 86 41 112 33 142 C 25 172 22 206 22 242 C 22 275 25 307 33 337 C 41 367 52 394 67 417 C 81 439 100 457 123 471 C 145 484 172 491 202 491 C 238 491 266 482 288 464 C 310 446 326 427 337 407 L 283 360 C 275 375 264 389 252 401 C 239 413 222 419 202 419 C 172 419 148 403 132 371 C 116 339 108 297 108 245 C 108 184 117 138 137 108 C 156 78 181 63 211 63 C 232 63 248 69 260 82 C 271 95 280 108 287 120 Z" unicode="c" />
<glyph horiz-adv-x="416" d="M 178 -5 C 154 -5 132 1 113 13 C 93 25 77 42 64 64 C 50 86 40 112 33 142 C 25 172 22 204 22 238 C 22 314 36 375 66 421 C 96 466 133 489 179 489 C 209 489 235 479 255 459 C 275 439 288 416 295 390 L 295 792 L 373 792 L 373 0 L 299 0 L 299 81 C 292 61 279 41 260 23 C 241 4 214 -5 178 -5 Z M 203 62 C 231 62 254 77 271 109 C 288 140 297 186 297 246 C 297 306 287 349 269 377 C 250 404 227 418 201 418 C 172 418 149 403 133 373 C 117 343 109 300 109 242 C 109 185 117 141 133 109 C 149 77 173 62 203 62 Z" unicode="d" />
<glyph horiz-adv-x="381" d="M 198 -5 C 144 -5 102 17 70 61 C 38 105 22 165 22 241 C 22 318 38 379 71 424 C 104 468 144 491 192 491 C 247 491 289 467 318 421 C 346 374 361 308 361 224 L 104 224 C 104 172 113 132 131 104 C 149 76 175 63 207 63 C 233 63 255 69 271 82 C 287 94 300 108 311 123 L 351 79 C 338 60 319 41 295 23 C 271 4 238 -5 198 -5 Z M 105 281 L 281 281 C 280 325 272 360 258 386 C 243 411 223 424 197 424 C 170 424 149 411 133 386 C 117 361 107 326 105 281 Z" unicode="e" />
<glyph horiz-adv-x="213" d="M 206 415 L 145 415 L 145 0 L 63 0 L 63 415 L 15 415 L 15 486 L 63 486 L 63 673 C 63 692 66 709 72 724 C 78 739 87 752 97 762 C 107 772 119 780 132 786 C 145 791 158 794 171 794 C 181 794 193 792 206 789 C 218 786 228 782 235 777 L 213 712 C 211 712 207 714 202 716 C 196 718 190 719 184 719 C 171 719 161 714 154 704 C 147 694 144 677 144 655 L 144 486 L 206 486 L 206 415 Z" unicode="f" />
<glyph horiz-adv-x="413" d="M 181 4 C 133 4 95 25 66 68 C 37 111 23 170 23 244 C 23 321 38 381 68 425 C 98 468 135 490 179 490 C 209 490 234 480 254 462 C 274 443 288 422 296 399 L 296 486 L 371 486 L 371 8 C 371 -26 365 -57 355 -83 C 345 -109 331 -130 314 -147 C 297 -163 278 -176 256 -184 C 234 -192 211 -197 189 -197 C 157 -197 131 -193 111 -187 C 91 -181 75 -174 65 -168 L 89 -106 C 101 -111 114 -116 129 -120 C 144 -124 163 -126 185 -126 C 216 -126 242 -114 262 -90 C 282 -66 293 -33 293 11 L 293 97 C 286 73 273 52 254 33 C 235 13 211 4 181 4 Z M 202 69 C 230 69 252 83 270 113 C 287 142 296 188 296 250 C 296 309 286 352 266 380 C 246 407 224 421 200 421 C 172 421 149 406 133 376 C 117 346 109 303 109 247 C 109 191 116 148 132 116 C 147 84 170 69 202 69 Z" unicode="g" />
<glyph horiz-adv-x="397" d="M 355 0 L 273 0 L 273 345 C 273 370 266 389 254 401 C 241 413 224 420 203 420 C 182 420 164 413 148 400 C 132 386 125 362 125 326 L 125 0 L 42 0 L 42 792 L 120 792 L 120 419 C 126 439 139 456 157 470 C 175 484 200 491 232 491 C 268 491 298 481 321 463 C 343 444 355 413 355 369 L 355 0 Z" unicode="h" />
<glyph horiz-adv-x="172" d="M 43 575 L 43 658 L 129 658 L 129 575 L 43 575 Z M 45 0 L 45 486 L 127 486 L 127 0 L 45 0 Z" unicode="i" />
<glyph horiz-adv-x="174" d="M 132 575 L 46 575 L 46 658 L 132 658 L 132 575 Z M 130 486 L 130 -85 C 130 -112 121 -135 104 -153 C 87 -171 65 -180 37 -180 C 23 -180 10 -178 -1 -174 C -13 -170 -21 -166 -25 -163 L -3 -105 C 0 -105 3 -106 7 -108 C 11 -109 15 -110 20 -110 C 28 -110 35 -107 40 -101 C 45 -95 48 -86 48 -76 L 48 486 L 130 486 Z" unicode="j" />
<glyph horiz-adv-x="363" d="M 371 1 L 284 0 L 176 207 L 124 130 L 124 0 L 42 0 L 42 792 L 120 792 L 120 228 L 276 486 L 360 486 L 230 274 L 371 1 Z" unicode="k" />
<glyph horiz-adv-x="167" d="M 125 800 L 125 0 L 42 0 L 42 800 L 125 800 Z" unicode="l" />
<glyph horiz-adv-x="621" d="M 42 0 L 42 486 L 115 486 L 115 413 C 121 439 135 459 157 472 C 178 485 204 492 235 492 C 266 492 291 484 309 470 C 327 456 339 436 344 411 L 346 411 C 352 435 365 455 385 470 C 405 484 431 492 464 492 C 497 492 524 482 546 464 C 568 445 579 415 579 373 L 579 0 L 498 0 L 498 335 C 498 366 491 388 478 401 C 464 414 447 421 426 421 C 406 421 388 414 373 400 C 358 386 351 360 351 322 L 351 0 L 270 0 L 270 337 C 270 371 263 393 250 404 C 236 415 220 421 202 421 C 183 421 165 414 148 400 C 131 386 123 360 123 322 L 123 0 L 42 0 Z" unicode="m" />
<glyph horiz-adv-x="397" d="M 355 0 L 273 0 L 273 349 C 273 372 266 390 254 402 C 242 414 225 420 205 420 C 183 420 164 413 148 400 C 132 386 125 362 125 326 L 125 0 L 42 0 L 42 486 L 116 486 L 116 415 C 123 437 136 456 156 470 C 176 484 202 491 236 491 C 271 491 300 482 322 464 C 344 446 355 417 355 377 L 355 0 Z" unicode="n" />
<glyph horiz-adv-x="394" d="M 198 -5 C 146 -5 104 16 71 58 C 38 100 22 162 22 242 C 22 317 37 377 69 423 C 101 468 142 491 192 491 C 246 491 290 470 323 428 C 355 386 372 328 372 255 C 372 176 356 113 325 66 C 294 18 252 -5 198 -5 Z M 198 64 C 226 64 248 78 263 108 C 278 138 286 184 286 246 C 286 307 278 351 262 379 C 246 407 224 421 195 421 C 167 421 146 406 131 378 C 115 350 108 306 108 246 C 108 180 116 133 132 105 C 148 77 170 64 198 64 Z" unicode="o" />
<glyph horiz-adv-x="401" d="M 42 -200 L 42 486 L 115 486 L 115 388 C 121 414 135 437 156 459 C 177 480 204 491 237 491 C 283 491 319 469 343 426 C 367 382 380 327 380 259 C 380 176 366 111 338 65 C 310 19 273 -4 227 -4 C 200 -4 177 2 158 15 C 139 28 126 44 120 63 L 120 -200 L 42 -200 Z M 201 60 C 229 60 252 75 268 105 C 284 135 293 180 293 240 C 293 295 286 339 272 371 C 258 403 236 419 204 419 C 181 419 161 406 143 381 C 125 355 117 306 117 233 C 117 163 125 117 141 94 C 157 71 177 60 201 60 Z" unicode="p" />
<glyph horiz-adv-x="416" d="M 295 -200 L 295 89 C 288 64 274 42 254 24 C 233 5 206 -4 174 -4 C 151 -4 130 2 111 14 C 92 26 76 42 63 64 C 50 86 40 111 33 141 C 25 171 22 203 22 239 C 22 319 36 381 66 425 C 96 469 133 491 177 491 C 211 491 238 481 258 461 C 278 441 293 417 301 390 L 301 486 L 373 486 L 373 -200 L 295 -200 Z M 201 62 C 229 62 252 76 270 106 C 288 136 297 182 297 245 C 297 303 287 347 269 376 C 251 404 228 419 200 419 C 172 419 150 404 134 374 C 117 344 109 300 109 240 C 109 188 117 145 133 112 C 149 78 172 62 201 62 Z" unicode="q" />
<glyph horiz-adv-x="290" d="M 294 461 L 267 393 C 257 402 247 408 238 412 C 229 415 219 417 207 417 C 198 417 189 415 179 412 C 169 409 161 403 153 395 C 145 387 138 375 133 361 C 127 346 125 327 125 305 L 125 0 L 42 0 L 42 486 L 122 486 L 122 410 C 128 432 140 451 157 467 C 174 483 194 491 217 491 C 234 491 249 488 263 482 C 276 476 286 469 294 461 Z" unicode="r" />
<glyph horiz-adv-x="305" d="M 160 -5 C 128 -5 100 1 75 13 C 50 25 31 42 17 62 L 58 118 C 69 101 83 88 100 78 C 116 68 133 64 151 64 C 166 64 180 69 194 80 C 207 90 214 106 214 128 C 214 148 206 165 192 179 C 177 192 155 207 127 225 C 96 243 72 263 55 284 C 38 304 30 333 30 371 C 30 404 42 432 66 456 C 90 479 120 491 154 491 C 180 491 204 486 225 477 C 245 468 262 458 275 447 L 237 386 C 229 394 217 401 203 409 C 189 416 174 420 160 420 C 143 420 129 415 117 406 C 105 397 99 384 99 368 C 99 351 105 337 118 327 C 130 316 152 301 182 283 C 218 260 244 238 260 216 C 276 194 284 164 284 126 C 284 104 280 84 272 68 C 264 52 255 38 243 27 C 231 16 217 8 203 3 C 188 -2 174 -5 160 -5 Z" unicode="s" />
<glyph horiz-adv-x="214" d="M 196 79 L 212 15 C 207 10 199 6 189 2 C 179 -2 165 -4 149 -4 C 139 -4 128 -2 117 2 C 105 6 95 12 86 21 C 77 30 69 42 63 56 C 57 70 54 87 54 107 L 54 415 L 10 415 L 10 486 L 56 486 L 56 608 L 134 618 L 134 486 L 199 486 L 199 415 L 136 415 L 136 110 C 136 98 139 88 145 82 C 151 75 160 72 170 72 C 174 72 179 72 184 74 C 189 76 193 77 196 79 Z" unicode="t" />
<glyph horiz-adv-x="397" d="M 42 486 L 124 486 L 124 143 C 124 114 130 93 143 80 C 155 67 173 61 196 61 C 216 61 233 68 249 82 C 264 96 272 123 272 163 L 272 486 L 354 486 L 354 0 L 278 0 L 278 66 C 271 45 258 28 238 14 C 218 0 192 -6 162 -6 C 129 -6 101 4 77 25 C 53 45 42 77 42 121 L 42 486 Z" unicode="u" />
<glyph horiz-adv-x="330" d="M 332 486 L 200 -2 L 131 -2 L -3 486 L 82 486 L 169 143 L 254 486 L 332 486 Z" unicode="v" />
<glyph horiz-adv-x="536" d="M 347 -2 L 269 299 L 188 -2 L 122 -2 L 1 486 L 78 486 L 163 127 L 240 424 L 302 424 L 376 128 L 464 486 L 535 486 L 411 -2 L 347 -2 Z" unicode="w" />
<glyph horiz-adv-x="336" d="M 249 0 L 165 169 L 81 0 L 4 0 L 126 248 L 8 486 L 94 486 L 169 334 L 244 486 L 324 486 L 208 254 L 333 0 L 249 0 Z" unicode="x" />
<glyph horiz-adv-x="331" d="M 334 486 L 167 -105 C 158 -136 143 -160 121 -176 C 99 -192 76 -200 50 -200 C 31 -200 15 -198 2 -194 C -10 -190 -19 -186 -25 -182 L 5 -119 C 7 -121 13 -123 22 -126 C 30 -128 39 -130 48 -130 C 58 -130 69 -125 80 -115 C 90 -105 98 -91 103 -73 L 132 38 L -3 486 L 82 486 L 172 155 L 255 486 L 334 486 Z" unicode="y" />
<glyph horiz-adv-x="316" d="M 299 486 L 299 448 L 115 71 L 305 71 L 305 0 L 11 0 L 11 32 L 201 415 L 23 415 L 23 486 L 299 486 Z" unicode="z" />
<glyph horiz-adv-x="252" d="M 232 -179 C 206 -178 181 -174 158 -166 C 134 -158 114 -147 96 -134 C 78 -120 64 -104 54 -86 C 44 -68 39 -48 39 -28 C 39 -3 42 19 48 40 C 54 60 60 79 68 95 C 75 111 82 126 89 140 C 95 154 99 169 99 184 C 99 200 90 216 74 231 C 58 246 39 254 17 254 L 17 316 C 39 316 58 324 75 340 C 92 356 101 373 101 393 C 101 399 97 411 91 427 C 84 443 76 460 68 478 C 59 496 52 514 47 532 C 42 550 40 568 40 586 C 40 606 45 626 55 646 C 65 665 79 682 97 697 C 114 712 134 724 158 734 C 181 743 206 748 232 749 L 232 688 C 205 687 180 676 158 655 C 136 634 125 609 125 580 C 125 569 126 557 130 543 C 134 529 139 515 146 501 C 155 481 164 462 172 445 C 180 428 184 413 184 400 C 184 372 175 348 159 327 C 143 306 119 292 89 285 C 120 277 144 263 160 242 C 176 221 184 198 184 174 C 184 154 180 137 173 123 C 165 109 158 94 150 80 C 142 65 136 50 132 34 C 127 18 125 4 125 -10 C 125 -35 135 -59 157 -82 C 178 -105 203 -117 232 -118 L 232 -179 Z" unicode="{" />
<glyph horiz-adv-x="226" d="M 153 -179 L 73 -179 L 73 730 L 153 730 L 153 -179 Z" unicode="|" />
<glyph horiz-adv-x="252" d="M 20 -179 L 20 -118 C 48 -117 73 -105 95 -82 C 117 -59 128 -35 128 -10 C 128 4 125 18 121 34 C 116 50 110 65 102 80 C 94 94 86 109 79 123 C 72 137 69 154 69 174 C 69 198 76 221 92 242 C 107 263 130 277 160 285 C 130 292 108 306 92 327 C 76 348 69 372 69 400 C 69 413 72 428 80 445 C 88 462 96 481 106 501 C 113 515 118 529 122 543 C 125 557 127 569 127 580 C 127 609 115 634 93 655 C 71 676 46 687 20 688 L 20 749 C 46 748 70 743 94 734 C 117 724 137 712 155 697 C 172 682 186 665 196 646 C 206 626 212 606 212 586 C 212 568 209 550 204 532 C 199 514 192 496 184 478 C 175 460 167 443 161 427 C 154 411 151 399 151 393 C 151 373 159 356 176 340 C 193 324 213 316 235 316 L 235 254 C 213 254 193 246 177 231 C 161 216 153 200 153 184 C 153 169 156 154 163 140 C 169 126 176 111 184 95 C 191 79 198 60 204 40 C 210 19 213 -3 213 -28 C 213 -48 207 -68 197 -86 C 187 -104 173 -120 155 -134 C 137 -147 117 -158 94 -166 C 70 -174 46 -178 20 -179 Z" unicode="}" />
<glyph horiz-adv-x="448" d="M 355 440 L 420 440 C 418 392 410 353 396 325 C 382 296 358 282 324 282 C 300 282 280 287 264 297 C 247 307 232 319 220 332 C 207 344 195 355 185 365 C 174 375 161 380 147 380 C 133 380 120 371 109 354 C 97 336 92 313 92 285 L 29 285 C 29 333 38 372 56 400 C 74 428 100 443 133 443 C 156 443 176 437 194 425 C 211 413 226 400 239 388 C 251 377 263 367 273 358 C 283 348 295 344 309 344 C 327 344 340 351 346 367 C 352 383 355 407 355 440 Z" unicode="~" />
<glyph horiz-adv-x="256" d="M 87 605 L 170 605 L 170 507 L 87 507 L 87 605 Z M 82 184 L 111 415 L 148 415 L 174 184 L 174 -110 L 82 -110 L 82 184 Z" unicode="¡" />
<glyph horiz-adv-x="346" d="M 333 153 C 322 140 309 127 294 114 C 279 100 255 92 223 89 L 223 -22 L 174 -22 L 174 89 C 124 95 87 119 61 159 C 35 199 22 250 22 310 C 22 337 25 363 31 389 C 37 414 47 437 60 457 C 72 477 88 493 107 506 C 126 519 148 528 174 532 L 174 642 L 223 642 L 223 533 C 253 530 276 522 294 508 C 312 494 326 481 337 467 L 301 410 C 292 421 282 432 271 442 C 259 452 243 457 223 459 L 223 157 C 245 157 263 163 275 174 C 287 184 296 194 303 204 L 333 153 Z M 108 312 C 108 274 114 242 126 218 C 138 193 154 176 174 167 L 174 453 C 152 444 135 427 124 402 C 113 376 108 346 108 312 Z" unicode="¢" />
<glyph horiz-adv-x="459" d="M 444 71 L 444 0 L 16 0 L 16 62 C 20 64 28 67 38 69 C 48 71 61 73 77 77 C 99 81 120 93 140 111 C 160 129 170 155 170 189 C 170 193 169 197 169 201 C 168 205 167 209 167 214 L 29 214 L 29 279 L 141 279 C 136 289 131 299 125 310 C 119 321 114 333 108 345 L 29 345 L 29 409 L 82 409 C 75 429 69 450 65 472 C 60 494 58 518 58 543 C 58 580 63 611 75 637 C 86 663 101 683 120 699 C 138 714 160 725 185 732 C 209 738 234 742 260 742 C 297 742 333 733 368 716 C 402 698 427 682 441 666 L 400 600 C 388 612 370 627 346 643 C 322 659 295 667 267 667 C 252 667 238 664 224 660 C 210 656 197 648 186 638 C 174 627 165 613 158 595 C 151 577 148 554 148 528 C 148 507 150 487 155 467 C 160 447 166 427 174 409 L 394 409 L 394 345 L 202 345 C 206 333 211 322 216 311 C 221 300 226 289 230 279 L 394 279 L 394 214 L 246 214 C 246 213 246 212 246 210 C 246 208 246 207 246 207 C 246 184 243 165 237 149 C 231 133 223 120 215 110 C 207 99 198 91 189 85 C 180 79 172 74 166 71 L 444 71 Z" unicode="£" />
<glyph horiz-adv-x="502" d="M 444 186 L 405 146 L 342 211 C 328 203 314 196 298 192 C 282 188 266 186 250 186 C 233 186 217 188 201 192 C 185 196 170 203 158 211 L 95 146 L 53 187 L 113 249 C 101 263 91 279 84 297 C 77 315 74 334 74 354 C 74 374 77 393 84 411 C 91 429 101 445 113 460 L 53 522 L 93 562 L 157 497 C 170 505 185 511 201 515 C 217 519 233 522 250 522 C 267 522 284 519 300 515 C 316 510 331 504 345 496 L 410 563 L 449 521 L 388 458 C 400 443 409 427 416 409 C 422 391 426 373 426 354 C 426 333 422 314 415 296 C 408 278 398 261 386 247 L 444 186 Z M 250 247 C 280 247 307 257 330 279 C 352 300 364 325 364 354 C 364 382 352 407 330 429 C 307 450 280 461 250 461 C 218 461 192 450 170 429 C 148 407 137 382 137 354 C 137 325 148 300 170 279 C 192 257 218 247 250 247 Z" unicode="¤" />
<glyph horiz-adv-x="459" d="M 423 148 L 273 148 L 273 0 L 183 0 L 183 148 L 37 148 L 37 212 L 183 212 L 183 267 L 37 267 L 37 331 L 183 331 L 183 332 L 7 730 L 98 730 L 230 417 L 367 730 L 452 730 L 273 331 L 423 331 L 423 267 L 273 267 L 273 212 L 423 212 L 423 148 Z" unicode="¥" />
<glyph horiz-adv-x="253" d="M 91 351 L 91 730 L 163 730 L 163 351 L 91 351 Z M 163 200 L 163 -179 L 91 -179 L 91 200 L 163 200 Z" unicode="¦" />
<glyph horiz-adv-x="527" d="M 280 -181 C 233 -181 189 -174 147 -160 C 105 -146 70 -128 42 -106 L 71 -36 C 97 -57 128 -75 164 -90 C 200 -104 234 -112 267 -112 C 297 -112 322 -103 342 -85 C 362 -67 372 -42 372 -10 C 372 18 364 40 350 55 C 335 70 314 84 288 98 L 184 153 C 158 165 135 177 116 188 C 96 198 80 210 68 223 C 56 235 46 250 40 267 C 34 283 31 304 31 328 C 31 359 37 385 51 405 C 64 425 80 441 99 454 C 82 465 70 481 62 501 C 54 521 50 545 50 575 C 50 601 55 625 66 646 C 76 666 91 684 109 698 C 127 712 149 723 174 731 C 199 738 226 742 255 742 C 306 742 348 733 381 717 C 414 700 441 682 462 662 L 422 598 C 398 619 373 637 347 653 C 321 668 289 676 253 676 C 220 676 192 667 170 649 C 147 631 136 606 136 575 C 136 553 142 534 155 520 C 168 505 188 491 215 479 L 348 409 C 393 388 427 366 451 342 C 474 318 486 286 486 244 C 486 212 475 185 455 165 C 435 144 412 132 388 130 C 394 125 402 119 411 111 C 420 103 428 93 436 82 C 443 70 449 57 455 42 C 460 26 463 9 463 -9 C 463 -62 445 -104 410 -135 C 374 -165 331 -181 280 -181 Z M 326 166 C 342 168 358 175 374 187 C 389 198 397 216 397 241 C 397 263 388 283 371 300 C 354 316 329 333 295 350 L 165 418 C 151 409 139 399 129 387 C 119 375 114 358 114 336 C 114 309 122 288 140 273 C 157 257 183 241 219 224 L 326 166 Z" unicode="§" />
<glyph horiz-adv-x="500" d="M 357 549 L 290 549 L 290 707 L 357 707 L 357 549 Z M 210 549 L 143 549 L 143 707 L 210 707 L 210 549 Z" unicode="¨" />
<glyph horiz-adv-x="808" d="M 404 25 C 354 25 308 34 264 53 C 220 72 182 98 150 130 C 118 162 92 200 73 244 C 54 288 45 334 45 384 C 45 433 54 479 73 523 C 92 566 118 604 150 636 C 182 668 220 694 264 713 C 308 732 354 742 404 742 C 453 742 499 732 543 713 C 587 694 625 668 657 636 C 689 604 715 566 734 523 C 753 479 763 433 763 384 C 763 334 753 288 734 244 C 715 200 689 162 657 130 C 625 98 587 72 543 53 C 499 34 453 25 404 25 Z M 404 79 C 445 79 484 87 521 103 C 557 119 589 140 617 168 C 644 196 666 228 682 265 C 698 302 706 341 706 383 C 706 424 698 463 682 500 C 666 537 644 569 617 597 C 589 624 557 646 521 662 C 484 678 445 687 404 687 C 362 687 322 678 285 662 C 248 646 216 624 189 597 C 162 569 141 537 125 500 C 109 463 101 424 101 383 C 101 341 109 302 125 265 C 141 228 162 196 189 168 C 216 140 248 119 285 103 C 322 87 362 79 404 79 Z M 565 251 C 550 226 529 205 502 189 C 475 173 442 165 403 165 C 378 165 354 169 331 179 C 308 189 288 203 270 221 C 252 239 238 261 228 288 C 217 315 212 346 212 381 C 212 415 216 445 226 473 C 236 501 249 524 266 544 C 282 564 302 579 325 590 C 348 600 373 606 399 606 C 441 606 474 598 500 583 C 526 568 546 549 561 527 L 505 485 C 494 500 481 513 465 523 C 449 533 427 538 401 538 C 367 538 338 523 316 493 C 294 463 283 425 283 380 C 283 332 295 294 321 268 C 346 241 374 228 405 228 C 428 228 449 233 467 245 C 485 256 500 271 511 289 L 565 251 Z" unicode="©" />
<glyph horiz-adv-x="414" d="M 368 321 L 299 321 L 299 380 C 285 359 267 343 243 332 C 219 320 192 315 164 315 C 125 315 94 326 71 349 C 47 371 36 403 36 443 C 36 487 51 520 83 542 C 114 564 155 576 207 578 L 296 586 L 296 595 C 296 623 288 643 273 656 C 257 668 236 675 209 675 C 186 675 164 671 144 663 C 124 655 106 645 92 633 L 61 686 C 79 700 102 713 130 724 C 158 735 189 741 223 741 C 267 741 302 729 328 706 C 354 683 368 646 368 596 L 368 321 Z M 297 428 L 297 526 L 203 520 C 175 518 152 512 134 500 C 116 488 107 469 107 443 C 107 422 114 406 129 394 C 144 382 163 377 187 377 C 209 377 230 381 250 390 C 270 399 285 412 297 428 Z M 370 209 L 43 209 L 43 276 L 370 276 L 370 209 Z" unicode="ª" />
<glyph horiz-adv-x="418" d="M 205 101 L 28 268 L 28 316 L 205 481 L 205 399 L 101 290 L 205 185 L 205 101 Z M 389 101 L 211 268 L 211 316 L 389 481 L 389 399 L 284 290 L 389 186 L 389 101 Z" unicode="«" />
<glyph horiz-adv-x="487" d="M 443 381 L 443 141 L 374 141 L 374 312 L 31 312 L 31 381 L 443 381 Z" unicode="¬" />
<glyph horiz-adv-x="808" d="M 404 25 C 354 25 308 34 264 53 C 220 72 182 98 150 130 C 118 162 92 200 73 244 C 54 288 45 334 45 384 C 45 433 54 479 73 523 C 92 566 118 604 150 636 C 182 668 220 694 264 713 C 308 732 354 742 404 742 C 453 742 499 732 543 713 C 587 694 625 668 657 636 C 689 604 715 566 734 523 C 753 479 763 433 763 384 C 763 334 753 288 734 244 C 715 200 689 162 657 130 C 625 98 587 72 543 53 C 499 34 453 25 404 25 Z M 404 79 C 445 79 484 86 521 102 C 558 118 590 139 617 166 C 644 193 666 225 682 263 C 698 300 706 340 706 383 C 706 425 698 465 682 503 C 666 540 644 572 617 599 C 590 626 558 647 521 663 C 484 679 445 687 404 687 C 362 687 322 679 285 663 C 248 647 216 626 189 599 C 162 571 141 539 125 502 C 109 464 101 425 101 383 C 101 341 109 301 125 264 C 141 226 162 194 189 167 C 216 139 248 118 285 102 C 322 86 362 79 404 79 Z M 276 177 L 276 607 L 420 607 C 437 607 454 604 472 600 C 489 595 504 588 518 579 C 531 569 542 557 550 542 C 558 527 563 509 563 489 C 563 451 552 422 531 403 C 509 384 487 373 463 370 L 462 366 L 592 177 L 519 177 L 403 349 L 339 349 L 339 177 L 276 177 Z M 339 404 L 423 404 C 441 404 459 410 475 423 C 491 435 500 454 500 480 C 500 506 492 524 475 534 C 458 544 437 550 413 550 L 339 550 L 339 404 Z" unicode="®" />
<glyph horiz-adv-x="500" d="M 369 571 L 131 571 L 131 637 L 369 637 L 369 571 Z" unicode="¯" />
<glyph horiz-adv-x="409" d="M 204 394 C 180 394 157 398 136 407 C 115 416 97 429 81 445 C 65 461 52 479 43 500 C 34 521 30 544 30 568 C 30 592 34 614 43 635 C 52 656 65 675 81 691 C 97 707 115 719 136 728 C 157 737 180 742 204 742 C 228 742 250 737 272 728 C 293 719 311 707 327 691 C 343 675 355 656 365 635 C 374 614 379 592 379 568 C 379 544 374 521 365 500 C 355 479 343 461 327 445 C 311 429 293 416 272 407 C 250 398 228 394 204 394 Z M 204 458 C 234 458 260 468 282 490 C 304 511 315 537 315 568 C 315 598 304 624 282 646 C 260 668 234 679 204 679 C 174 679 148 668 126 646 C 104 624 93 598 93 568 C 93 537 104 511 126 490 C 148 468 174 458 204 458 Z" unicode="°" />
<glyph horiz-adv-x="487" d="M 461 297 L 278 297 L 278 114 L 210 114 L 210 297 L 26 297 L 26 362 L 210 362 L 210 548 L 278 548 L 278 362 L 461 362 L 461 297 Z M 456 26 L 33 26 L 33 91 L 456 91 L 456 26 Z" unicode="±" />
<glyph horiz-adv-x="342" d="M 308 372 L 28 372 L 28 399 L 190 555 C 197 561 204 570 212 581 C 219 592 223 605 223 620 C 223 635 217 649 206 661 C 194 673 178 679 156 679 C 131 679 113 671 103 656 C 93 641 87 624 87 605 L 22 605 C 22 641 34 672 58 700 C 82 727 118 741 164 741 C 208 741 241 730 263 710 C 285 689 297 664 297 635 C 297 608 292 586 282 568 C 272 550 261 536 250 526 L 147 432 L 308 432 L 308 372 Z" unicode="²" />
<glyph horiz-adv-x="346" d="M 225 569 C 252 565 274 554 290 538 C 306 522 315 501 315 477 C 315 464 312 451 307 438 C 302 424 294 412 282 401 C 270 390 255 381 235 374 C 215 367 190 364 161 364 C 121 364 89 368 66 378 C 42 388 24 398 12 408 L 52 450 C 62 442 76 435 94 429 C 112 423 133 420 158 420 C 190 420 214 426 228 439 C 242 452 249 468 249 487 C 249 507 240 520 224 527 C 208 534 188 538 164 538 L 92 538 L 92 591 L 159 591 C 181 591 198 595 212 603 C 225 611 232 622 232 638 C 232 652 226 663 214 671 C 202 679 184 683 160 683 C 139 683 120 679 102 671 C 84 663 71 653 63 643 L 23 682 C 36 696 54 710 76 723 C 98 735 129 742 170 742 C 211 742 243 733 266 716 C 288 699 300 678 300 652 C 300 630 292 611 278 597 C 263 583 245 573 225 569 Z" unicode="³" />
<glyph horiz-adv-x="500" d="M 164 548 L 248 720 L 342 720 L 244 548 L 164 548 Z" unicode="´" />
<glyph horiz-adv-x="591" d="M 72 -109 L 72 508 L 154 508 L 154 161 C 154 145 157 130 165 118 C 172 105 182 94 194 86 C 206 77 219 70 235 65 C 251 60 267 58 284 58 C 301 58 318 60 336 66 C 354 71 370 79 384 89 C 398 99 409 112 418 128 C 427 144 432 162 432 184 L 432 508 L 514 508 L 514 0 L 438 0 L 438 103 C 433 89 425 75 414 62 C 402 48 389 37 374 27 C 358 17 342 9 324 3 C 306 -3 288 -6 270 -7 C 244 -7 220 -1 196 9 C 172 20 156 36 148 56 L 148 -109 L 72 -109 Z" unicode="µ" />
<glyph horiz-adv-x="540" d="M 500 -181 L 442 -179 L 442 664 L 355 664 L 355 -179 L 298 -179 L 298 303 L 233 303 C 205 303 179 308 153 320 C 127 331 105 346 86 365 C 66 384 51 406 39 432 C 27 458 22 485 22 513 C 22 543 27 572 38 599 C 49 625 65 648 85 668 C 105 687 129 702 157 713 C 185 724 217 730 251 730 L 500 730 L 500 -181 Z M 299 372 L 299 661 L 272 661 C 226 661 188 647 158 620 C 128 592 114 558 114 516 C 114 478 128 444 158 415 C 187 386 222 372 262 372 L 299 372 Z" unicode="¶" />
<glyph horiz-adv-x="242" d="M 164 285 L 79 285 L 79 409 L 164 409 L 164 285 Z" unicode="·" />
<glyph horiz-adv-x="500" d="M 252 -182 C 231 -182 211 -179 191 -173 C 171 -167 155 -159 143 -149 L 159 -116 C 167 -122 177 -127 191 -133 C 205 -139 220 -142 237 -142 C 250 -142 261 -138 271 -132 C 281 -125 286 -116 286 -105 C 286 -92 281 -83 273 -77 C 264 -71 254 -69 244 -69 C 236 -69 230 -69 225 -70 C 219 -71 213 -73 207 -76 L 195 -60 L 249 12 L 293 12 L 249 -48 C 277 -43 301 -46 321 -57 C 340 -67 350 -84 350 -108 C 350 -131 340 -149 321 -162 C 301 -175 278 -182 252 -182 Z" unicode="¸" />
<glyph horiz-adv-x="318" d="M 145 372 L 145 654 C 137 642 123 631 103 622 C 83 613 65 607 51 605 L 50 678 C 74 681 96 688 114 699 C 132 709 150 723 168 740 L 220 740 L 220 372 L 145 372 Z" unicode="¹" />
<glyph horiz-adv-x="394" d="M 194 314 C 171 314 149 318 129 328 C 108 338 90 352 74 370 C 58 388 45 410 35 436 C 25 462 21 491 21 524 C 21 552 25 580 35 606 C 44 632 57 655 73 675 C 89 694 107 709 129 721 C 150 733 172 739 196 739 C 246 739 288 719 322 681 C 356 643 373 594 373 534 C 373 502 368 473 359 446 C 349 419 336 396 320 376 C 304 356 285 341 263 330 C 241 319 218 314 194 314 Z M 196 376 C 228 376 254 390 273 419 C 292 448 302 485 302 529 C 302 569 293 604 275 632 C 257 660 231 675 197 675 C 165 675 140 660 121 631 C 101 601 92 565 92 521 C 92 478 101 443 121 416 C 140 389 165 376 196 376 Z M 39 209 L 39 276 L 355 276 L 355 209 L 39 209 Z" unicode="º" />
<glyph horiz-adv-x="418" d="M 30 481 L 207 314 L 207 267 L 30 102 L 30 182 L 134 292 L 30 396 L 30 481 Z M 213 481 L 390 314 L 390 267 L 213 102 L 213 182 L 318 292 L 213 396 L 213 481 Z" unicode="»" />
<glyph horiz-adv-x="699" d="M 12 0 L 12 0 Z M 107 372 L 107 654 C 99 642 85 631 65 622 C 45 613 27 607 13 605 L 12 678 C 36 681 58 688 76 699 C 94 709 112 723 130 740 L 182 740 L 182 372 L 107 372 Z M 573 730 L 198 0 L 127 0 L 502 730 L 573 730 Z M 387 84 L 387 135 L 576 366 L 624 366 L 624 138 L 687 138 L 687 84 L 624 84 L 624 1 L 555 1 L 555 84 L 387 84 Z M 458 136 L 557 136 L 557 263 L 458 136 Z" unicode="¼" />
<glyph horiz-adv-x="765" d="M 12 0 L 12 0 Z M 107 372 L 107 654 C 99 642 85 631 65 622 C 45 613 27 607 13 605 L 12 678 C 36 681 58 688 76 699 C 94 709 112 723 130 740 L 182 740 L 182 372 L 107 372 Z M 573 730 L 198 0 L 127 0 L 502 730 L 573 730 Z M 740 0 L 460 0 L 460 27 L 622 183 C 629 189 636 198 644 209 C 651 220 655 233 655 248 C 655 263 649 277 638 289 C 626 301 610 307 588 307 C 563 307 545 299 535 284 C 525 269 519 252 519 233 L 454 233 C 454 269 466 300 490 328 C 514 355 550 369 596 369 C 640 369 673 358 695 338 C 717 317 729 292 729 263 C 729 236 724 214 714 196 C 704 178 693 164 682 154 L 579 60 L 740 60 L 740 0 Z" unicode="½" />
<glyph horiz-adv-x="760" d="M 13 0 L 13 0 Z M 635 730 L 260 0 L 189 0 L 564 730 L 635 730 Z M 449 84 L 449 135 L 638 366 L 686 366 L 686 138 L 749 138 L 749 84 L 686 84 L 686 1 L 617 1 L 617 84 L 449 84 Z M 520 136 L 619 136 L 619 263 L 520 136 Z M 226 569 C 253 565 275 554 291 538 C 307 522 316 501 316 477 C 316 464 313 451 308 438 C 303 424 295 412 283 401 C 271 390 256 381 236 374 C 216 367 191 364 162 364 C 122 364 90 368 67 378 C 43 388 25 398 13 408 L 53 450 C 63 442 77 435 95 429 C 113 423 134 420 159 420 C 191 420 215 426 229 439 C 243 452 250 468 250 487 C 250 507 241 520 225 527 C 209 534 189 538 165 538 L 93 538 L 93 591 L 160 591 C 182 591 199 595 213 603 C 226 611 233 622 233 638 C 233 652 227 663 215 671 C 203 679 185 683 161 683 C 140 683 121 679 103 671 C 85 663 72 653 64 643 L 24 682 C 37 696 55 710 77 723 C 99 735 130 742 171 742 C 212 742 244 733 267 716 C 289 699 301 678 301 652 C 301 630 293 611 279 597 C 264 583 246 573 226 569 Z" unicode="¾" />
<glyph horiz-adv-x="425" d="M 180 500 L 180 605 L 271 605 L 271 500 L 180 500 Z M 209 -137 C 153 -137 109 -121 77 -91 C 45 -60 29 -18 29 36 C 29 60 32 83 39 104 C 45 124 54 143 65 161 C 75 179 87 195 100 211 C 113 226 126 241 138 255 C 156 275 169 299 176 327 C 182 355 186 382 187 407 L 268 407 C 268 363 262 327 251 298 C 240 268 223 240 201 214 C 192 203 183 192 173 180 C 163 168 153 156 145 143 C 137 130 130 116 125 100 C 119 84 117 66 117 48 C 117 14 127 -12 148 -32 C 168 -52 194 -62 225 -62 C 251 -62 275 -54 295 -40 C 315 -26 333 -8 348 14 L 399 -36 C 375 -69 347 -94 313 -111 C 279 -128 245 -137 209 -137 Z" unicode="¿" />
<glyph horiz-adv-x="475" d="M 2 0 L 2 0 Z M 473 0 L 387 0 L 336 185 L 134 185 L 86 0 L 2 0 L 206 734 L 268 734 L 473 0 Z M 323 255 L 235 573 L 148 255 L 323 255 Z M 235 792 L 235 792 Z M 324 792 L 244 792 L 146 964 L 240 964 L 324 792 Z" unicode="À" />
<glyph horiz-adv-x="475" d="M 2 0 L 2 0 Z M 473 0 L 387 0 L 336 185 L 134 185 L 86 0 L 2 0 L 206 734 L 268 734 L 473 0 Z M 323 255 L 235 573 L 148 255 L 323 255 Z M 235 792 L 235 792 Z M 146 792 L 230 964 L 324 964 L 226 792 L 146 792 Z" unicode="Á" />
<glyph horiz-adv-x="475" d="M 2 0 L 2 0 Z M 473 0 L 387 0 L 336 185 L 134 185 L 86 0 L 2 0 L 206 734 L 268 734 L 473 0 Z M 323 255 L 235 573 L 148 255 L 323 255 Z M 235 793 L 235 793 Z M 367 793 L 298 793 L 235 905 L 171 793 L 103 793 L 200 964 L 270 964 L 367 793 Z" unicode="Â" />
<glyph horiz-adv-x="475" d="M 2 0 L 2 0 Z M 473 0 L 387 0 L 336 185 L 134 185 L 86 0 L 2 0 L 206 734 L 268 734 L 473 0 Z M 323 255 L 235 573 L 148 255 L 323 255 Z M 235 800 L 235 800 Z M 321 934 L 383 934 C 383 888 376 855 364 833 C 352 811 335 800 315 800 C 297 800 282 804 270 812 C 257 820 246 827 237 834 C 228 841 219 848 210 855 C 200 862 191 866 183 866 C 174 866 166 860 160 849 C 153 838 149 823 149 804 L 88 804 C 88 849 96 883 112 905 C 128 927 145 938 164 938 C 180 938 193 934 205 926 C 217 918 228 910 239 902 C 247 894 256 887 264 881 C 272 875 280 872 289 872 C 297 872 305 877 311 888 C 317 898 321 914 321 934 Z" unicode="Ã" />
<glyph horiz-adv-x="475" d="M 2 0 L 2 0 Z M 473 0 L 387 0 L 336 185 L 134 185 L 86 0 L 2 0 L 206 734 L 268 734 L 473 0 Z M 323 255 L 235 573 L 148 255 L 323 255 Z M 235 793 L 235 793 Z M 342 793 L 275 793 L 275 951 L 342 951 L 342 793 Z M 195 793 L 128 793 L 128 951 L 195 951 L 195 793 Z" unicode="Ä" />
<glyph horiz-adv-x="475" d="M 2 0 L 2 0 Z M 473 0 L 387 0 L 336 185 L 134 185 L 86 0 L 2 0 L 206 734 L 268 734 L 473 0 Z M 323 255 L 235 573 L 148 255 L 323 255 Z M 235 782 L 235 782 Z M 235 782 C 202 782 174 793 152 815 C 129 837 118 865 118 898 C 118 930 129 958 152 981 C 174 1003 202 1015 235 1015 C 267 1015 295 1003 318 981 C 340 958 352 930 352 898 C 352 865 340 837 318 815 C 295 793 267 782 235 782 Z M 235 830 C 253 830 269 836 282 850 C 294 863 301 879 301 898 C 301 916 294 932 282 946 C 269 959 253 966 235 966 C 217 966 201 959 188 946 C 175 932 169 916 169 898 C 169 879 175 863 188 850 C 201 836 217 830 235 830 Z" unicode="Å" />
<glyph horiz-adv-x="722" d="M 709 0 L 398 0 L 398 213 L 188 213 L 86 0 L 1 0 L 345 730 L 692 730 L 692 654 L 481 654 L 481 400 L 684 400 L 684 326 L 481 326 L 481 76 L 709 76 L 709 0 Z M 398 282 L 398 670 L 215 282 L 398 282 Z" unicode="Æ" />
<glyph horiz-adv-x="500" d="M 36 0 L 36 0 Z M 276 -7 C 241 -7 209 0 180 16 C 150 31 125 54 104 85 C 82 115 66 154 54 201 C 42 248 36 303 36 366 C 36 484 56 575 98 640 C 140 704 199 737 277 737 C 336 737 380 722 410 694 C 439 665 460 630 473 590 L 393 562 C 382 588 368 611 351 629 C 334 647 309 657 277 657 C 229 657 192 634 166 589 C 139 543 126 468 126 362 C 126 308 130 263 139 226 C 148 188 160 158 175 136 C 189 113 206 97 225 87 C 244 77 263 72 283 72 C 318 72 345 81 364 100 C 382 119 397 145 409 177 L 482 146 C 465 98 440 61 407 34 C 373 6 330 -7 276 -7 Z M 270 -1 L 270 -1 Z M 276 -183 C 255 -183 235 -180 215 -174 C 195 -168 179 -160 167 -150 L 183 -117 C 191 -123 201 -128 215 -134 C 229 -140 244 -143 261 -143 C 274 -143 285 -139 295 -133 C 305 -126 310 -117 310 -106 C 310 -93 305 -84 297 -78 C 288 -72 278 -70 268 -70 C 260 -70 254 -70 249 -71 C 243 -72 237 -74 231 -77 L 219 -61 L 273 11 L 317 11 L 273 -49 C 301 -44 325 -47 345 -58 C 364 -68 374 -85 374 -109 C 374 -132 364 -150 345 -163 C 325 -176 302 -183 276 -183 Z" unicode="Ç" />
<glyph horiz-adv-x="391" d="M 63 0 L 63 0 Z M 378 0 L 63 0 L 63 730 L 361 730 L 361 650 L 150 650 L 150 404 L 353 404 L 353 325 L 150 325 L 150 80 L 378 80 L 378 0 Z M 212 792 L 212 792 Z M 301 792 L 221 792 L 123 964 L 217 964 L 301 792 Z" unicode="È" />
<glyph horiz-adv-x="391" d="M 63 0 L 63 0 Z M 378 0 L 63 0 L 63 730 L 361 730 L 361 650 L 150 650 L 150 404 L 353 404 L 353 325 L 150 325 L 150 80 L 378 80 L 378 0 Z M 212 792 L 212 792 Z M 123 792 L 207 964 L 301 964 L 203 792 L 123 792 Z" unicode="É" />
<glyph horiz-adv-x="391" d="M 63 0 L 63 0 Z M 378 0 L 63 0 L 63 730 L 361 730 L 361 650 L 150 650 L 150 404 L 353 404 L 353 325 L 150 325 L 150 80 L 378 80 L 378 0 Z M 212 793 L 212 793 Z M 344 793 L 275 793 L 212 905 L 148 793 L 80 793 L 177 964 L 247 964 L 344 793 Z" unicode="Ê" />
<glyph horiz-adv-x="391" d="M 63 0 L 63 0 Z M 378 0 L 63 0 L 63 730 L 361 730 L 361 650 L 150 650 L 150 404 L 353 404 L 353 325 L 150 325 L 150 80 L 378 80 L 378 0 Z M 212 793 L 212 793 Z M 319 793 L 252 793 L 252 951 L 319 951 L 319 793 Z M 172 793 L 105 793 L 105 951 L 172 951 L 172 793 Z" unicode="Ë" />
<glyph horiz-adv-x="224" d="M 23 0 L 23 0 Z M 158 0 L 67 0 L 67 730 L 158 730 L 158 0 Z M 112 792 L 112 792 Z M 201 792 L 121 792 L 23 964 L 117 964 L 201 792 Z" unicode="Ì" />
<glyph horiz-adv-x="224" d="M 23 0 L 23 0 Z M 158 0 L 67 0 L 67 730 L 158 730 L 158 0 Z M 112 792 L 112 792 Z M 23 792 L 107 964 L 201 964 L 103 792 L 23 792 Z" unicode="Í" />
<glyph horiz-adv-x="224" d="M 0 0 L 0 0 Z M 158 0 L 67 0 L 67 730 L 158 730 L 158 0 Z M 112 793 L 112 793 Z M 244 793 L 175 793 L 112 905 L 48 793 L -20 793 L 77 964 L 147 964 L 244 793 Z" unicode="Î" />
<glyph horiz-adv-x="224" d="M 5 0 L 5 0 Z M 158 0 L 67 0 L 67 730 L 158 730 L 158 0 Z M 112 793 L 112 793 Z M 219 793 L 152 793 L 152 951 L 219 951 L 219 793 Z M 72 793 L 5 793 L 5 951 L 72 951 L 72 793 Z" unicode="Ï" />
<glyph horiz-adv-x="537" d="M 501 363 C 501 312 495 264 483 220 C 471 176 454 137 430 105 C 406 73 375 47 339 28 C 303 9 260 0 211 0 L 63 0 L 63 328 L 20 328 L 20 396 L 63 396 L 63 730 L 219 730 C 264 730 304 721 340 704 C 375 686 404 662 428 630 C 452 598 470 560 482 515 C 494 469 501 419 501 363 Z M 152 70 L 211 70 C 247 70 277 77 303 91 C 328 105 348 124 364 150 C 380 175 391 206 399 242 C 406 278 410 317 410 361 C 410 461 393 536 360 586 C 326 635 280 660 220 660 L 152 660 L 152 396 L 298 396 L 298 328 L 152 328 L 152 70 Z" unicode="Ð" />
<glyph horiz-adv-x="535" d="M 63 0 L 63 0 Z M 472 0 L 408 0 L 147 520 L 147 0 L 63 0 L 63 730 L 127 730 L 391 208 L 391 730 L 472 730 L 472 0 Z M 268 800 L 268 800 Z M 354 934 L 416 934 C 416 888 409 855 397 833 C 385 811 368 800 348 800 C 330 800 315 804 303 812 C 290 820 279 827 270 834 C 261 841 252 848 243 855 C 233 862 224 866 216 866 C 207 866 199 860 193 849 C 186 838 182 823 182 804 L 121 804 C 121 849 129 883 145 905 C 161 927 178 938 197 938 C 213 938 226 934 238 926 C 250 918 261 910 272 902 C 280 894 289 887 297 881 C 305 875 313 872 322 872 C 330 872 338 877 344 888 C 350 898 354 914 354 934 Z" unicode="Ñ" />
<glyph horiz-adv-x="571" d="M 36 0 L 36 0 Z M 288 -7 C 209 -7 147 25 103 90 C 58 154 36 248 36 371 C 36 485 58 575 103 640 C 147 704 207 737 283 737 C 363 737 425 705 469 641 C 513 577 535 485 535 365 C 535 248 512 157 466 91 C 420 25 361 -7 288 -7 Z M 286 68 C 334 68 372 92 400 142 C 428 192 443 268 443 372 C 443 468 428 541 400 589 C 371 637 332 662 283 662 C 233 662 195 638 168 590 C 141 542 128 466 128 364 C 128 261 142 186 171 139 C 200 91 238 68 286 68 Z M 284 792 L 284 792 Z M 373 792 L 293 792 L 195 964 L 289 964 L 373 792 Z" unicode="Ò" />
<glyph horiz-adv-x="571" d="M 36 0 L 36 0 Z M 288 -7 C 209 -7 147 25 103 90 C 58 154 36 248 36 371 C 36 485 58 575 103 640 C 147 704 207 737 283 737 C 363 737 425 705 469 641 C 513 577 535 485 535 365 C 535 248 512 157 466 91 C 420 25 361 -7 288 -7 Z M 286 68 C 334 68 372 92 400 142 C 428 192 443 268 443 372 C 443 468 428 541 400 589 C 371 637 332 662 283 662 C 233 662 195 638 168 590 C 141 542 128 466 128 364 C 128 261 142 186 171 139 C 200 91 238 68 286 68 Z M 284 792 L 284 792 Z M 195 792 L 279 964 L 373 964 L 275 792 L 195 792 Z" unicode="Ó" />
<glyph horiz-adv-x="571" d="M 36 0 L 36 0 Z M 288 -7 C 209 -7 147 25 103 90 C 58 154 36 248 36 371 C 36 485 58 575 103 640 C 147 704 207 737 283 737 C 363 737 425 705 469 641 C 513 577 535 485 535 365 C 535 248 512 157 466 91 C 420 25 361 -7 288 -7 Z M 286 68 C 334 68 372 92 400 142 C 428 192 443 268 443 372 C 443 468 428 541 400 589 C 371 637 332 662 283 662 C 233 662 195 638 168 590 C 141 542 128 466 128 364 C 128 261 142 186 171 139 C 200 91 238 68 286 68 Z M 284 793 L 284 793 Z M 416 793 L 347 793 L 284 905 L 220 793 L 152 793 L 249 964 L 319 964 L 416 793 Z" unicode="Ô" />
<glyph horiz-adv-x="571" d="M 36 0 L 36 0 Z M 288 -7 C 209 -7 147 25 103 90 C 58 154 36 248 36 371 C 36 485 58 575 103 640 C 147 704 207 737 283 737 C 363 737 425 705 469 641 C 513 577 535 485 535 365 C 535 248 512 157 466 91 C 420 25 361 -7 288 -7 Z M 286 68 C 334 68 372 92 400 142 C 428 192 443 268 443 372 C 443 468 428 541 400 589 C 371 637 332 662 283 662 C 233 662 195 638 168 590 C 141 542 128 466 128 364 C 128 261 142 186 171 139 C 200 91 238 68 286 68 Z M 284 800 L 284 800 Z M 370 934 L 432 934 C 432 888 425 855 413 833 C 401 811 384 800 364 800 C 346 800 331 804 319 812 C 306 820 295 827 286 834 C 277 841 268 848 259 855 C 249 862 240 866 232 866 C 223 866 215 860 209 849 C 202 838 198 823 198 804 L 137 804 C 137 849 145 883 161 905 C 177 927 194 938 213 938 C 229 938 242 934 254 926 C 266 918 277 910 288 902 C 296 894 305 887 313 881 C 321 875 329 872 338 872 C 346 872 354 877 360 888 C 366 898 370 914 370 934 Z" unicode="Õ" />
<glyph horiz-adv-x="571" d="M 36 0 L 36 0 Z M 288 -7 C 209 -7 147 25 103 90 C 58 154 36 248 36 371 C 36 485 58 575 103 640 C 147 704 207 737 283 737 C 363 737 425 705 469 641 C 513 577 535 485 535 365 C 535 248 512 157 466 91 C 420 25 361 -7 288 -7 Z M 286 68 C 334 68 372 92 400 142 C 428 192 443 268 443 372 C 443 468 428 541 400 589 C 371 637 332 662 283 662 C 233 662 195 638 168 590 C 141 542 128 466 128 364 C 128 261 142 186 171 139 C 200 91 238 68 286 68 Z M 284 793 L 284 793 Z M 391 793 L 324 793 L 324 951 L 391 951 L 391 793 Z M 244 793 L 177 793 L 177 951 L 244 951 L 244 793 Z" unicode="Ö" />
<glyph horiz-adv-x="487" d="M 108 149 L 63 194 L 199 329 L 64 464 L 109 510 L 244 375 L 380 510 L 425 464 L 289 329 L 425 194 L 380 147 L 244 285 L 108 149 Z" unicode="×" />
<glyph horiz-adv-x="571" d="M 535 365 C 535 248 512 157 466 91 C 420 25 361 -7 288 -7 C 252 -7 219 0 189 14 C 159 28 134 48 113 75 L 60 -4 L 21 22 L 86 118 C 69 148 56 185 48 228 C 40 270 36 318 36 371 C 36 485 58 575 103 640 C 147 704 207 737 283 737 C 318 737 350 730 379 718 C 407 705 432 686 453 662 L 511 748 L 549 722 L 482 622 C 499 591 512 554 521 511 C 530 467 535 419 535 365 Z M 128 364 C 128 332 129 302 132 276 C 135 250 139 226 145 206 L 402 586 C 388 611 371 630 351 643 C 331 655 308 662 283 662 C 233 662 195 638 168 590 C 141 542 128 466 128 364 Z M 443 372 C 443 404 441 434 438 462 C 434 489 429 513 423 535 L 165 151 C 178 122 195 101 216 88 C 237 74 260 68 286 68 C 334 68 372 92 400 142 C 428 192 443 268 443 372 Z" unicode="Ø" />
<glyph horiz-adv-x="534" d="M 59 0 L 59 0 Z M 475 730 L 475 216 C 475 176 469 141 457 113 C 445 85 430 62 411 44 C 391 26 369 13 343 5 C 317 -2 290 -7 262 -7 C 235 -7 209 -3 185 4 C 160 12 138 24 120 42 C 101 60 86 83 75 111 C 64 139 59 174 59 216 L 59 730 L 148 730 L 148 215 C 148 161 159 124 181 102 C 203 80 232 70 266 70 C 298 70 326 80 349 101 C 371 121 383 159 383 215 L 383 730 L 475 730 Z M 265 792 L 265 792 Z M 354 792 L 274 792 L 176 964 L 270 964 L 354 792 Z" unicode="Ù" />
<glyph horiz-adv-x="534" d="M 59 0 L 59 0 Z M 475 730 L 475 216 C 475 176 469 141 457 113 C 445 85 430 62 411 44 C 391 26 369 13 343 5 C 317 -2 290 -7 262 -7 C 235 -7 209 -3 185 4 C 160 12 138 24 120 42 C 101 60 86 83 75 111 C 64 139 59 174 59 216 L 59 730 L 148 730 L 148 215 C 148 161 159 124 181 102 C 203 80 232 70 266 70 C 298 70 326 80 349 101 C 371 121 383 159 383 215 L 383 730 L 475 730 Z M 265 792 L 265 792 Z M 176 792 L 260 964 L 354 964 L 256 792 L 176 792 Z" unicode="Ú" />
<glyph horiz-adv-x="534" d="M 59 0 L 59 0 Z M 475 730 L 475 216 C 475 176 469 141 457 113 C 445 85 430 62 411 44 C 391 26 369 13 343 5 C 317 -2 290 -7 262 -7 C 235 -7 209 -3 185 4 C 160 12 138 24 120 42 C 101 60 86 83 75 111 C 64 139 59 174 59 216 L 59 730 L 148 730 L 148 215 C 148 161 159 124 181 102 C 203 80 232 70 266 70 C 298 70 326 80 349 101 C 371 121 383 159 383 215 L 383 730 L 475 730 Z M 265 793 L 265 793 Z M 397 793 L 328 793 L 265 905 L 201 793 L 133 793 L 230 964 L 300 964 L 397 793 Z" unicode="Û" />
<glyph horiz-adv-x="534" d="M 59 0 L 59 0 Z M 475 730 L 475 216 C 475 176 469 141 457 113 C 445 85 430 62 411 44 C 391 26 369 13 343 5 C 317 -2 290 -7 262 -7 C 235 -7 209 -3 185 4 C 160 12 138 24 120 42 C 101 60 86 83 75 111 C 64 139 59 174 59 216 L 59 730 L 148 730 L 148 215 C 148 161 159 124 181 102 C 203 80 232 70 266 70 C 298 70 326 80 349 101 C 371 121 383 159 383 215 L 383 730 L 475 730 Z M 265 793 L 265 793 Z M 372 793 L 305 793 L 305 951 L 372 951 L 372 793 Z M 225 793 L 158 793 L 158 951 L 225 951 L 225 793 Z" unicode="Ü" />
<glyph horiz-adv-x="457" d="M 0 0 L 0 0 Z M 459 730 L 271 307 L 271 0 L 181 0 L 181 308 L -1 730 L 97 730 L 232 401 L 373 730 L 459 730 Z M 232 792 L 232 792 Z M 143 792 L 227 964 L 321 964 L 223 792 L 143 792 Z" unicode="Ý" />
<glyph horiz-adv-x="438" d="M 63 0 L 63 730 L 153 730 L 153 599 L 230 599 C 256 599 281 594 305 585 C 328 575 348 562 366 544 C 383 526 397 504 407 478 C 417 452 422 422 422 388 C 422 316 403 261 366 223 C 328 184 282 165 227 165 L 153 165 L 153 0 L 63 0 Z M 150 235 L 222 235 C 256 235 284 248 306 274 C 328 300 339 338 339 387 C 339 433 327 467 303 491 C 279 515 252 527 222 527 L 150 527 L 150 235 Z" unicode="Þ" />
<glyph horiz-adv-x="468" d="M 326 -5 C 294 -5 266 1 242 13 C 218 25 199 42 185 63 L 227 117 C 239 100 252 87 268 78 C 283 68 300 64 318 64 C 334 64 348 69 362 80 C 375 90 382 107 382 129 C 382 149 374 166 358 180 C 342 194 319 210 291 229 C 259 249 235 269 219 289 C 202 309 194 336 194 370 C 194 404 203 432 223 453 C 243 473 264 488 287 496 C 294 498 301 508 308 526 C 314 544 318 572 319 612 C 319 653 310 682 293 699 C 276 715 255 724 230 724 C 205 724 184 714 168 695 C 151 676 143 648 143 610 L 143 0 L 60 0 L 60 614 C 60 671 75 715 106 747 C 136 778 177 794 229 794 C 277 794 316 778 348 748 C 379 717 395 670 395 606 C 395 555 388 516 374 488 C 360 460 345 444 330 441 C 312 438 297 432 283 422 C 269 412 263 398 263 378 C 263 360 269 344 283 332 C 297 319 319 302 351 282 C 385 260 411 238 427 216 C 443 194 452 164 452 126 C 452 104 448 84 440 68 C 432 52 421 38 409 27 C 397 16 383 8 369 3 C 354 -2 340 -5 326 -5 Z" unicode="ß" />
<glyph horiz-adv-x="368" d="M 20 0 L 20 0 Z M 326 0 L 254 0 L 254 52 C 240 34 225 20 207 10 C 189 0 166 -5 138 -5 C 105 -5 77 7 54 33 C 31 59 20 96 20 144 C 20 196 35 235 65 259 C 95 283 131 296 172 299 L 248 305 L 248 343 C 248 370 241 390 228 404 C 214 417 195 424 169 424 C 146 424 127 420 111 412 C 95 404 82 396 74 388 L 50 449 C 64 461 82 472 104 481 C 126 490 155 495 189 495 C 229 495 261 483 287 460 C 313 437 326 403 326 359 L 326 0 Z M 250 105 L 250 246 L 189 241 C 165 239 143 230 125 215 C 107 200 98 176 98 143 C 98 114 105 93 121 80 C 136 67 152 61 170 61 C 189 61 205 65 218 74 C 231 82 242 93 250 105 Z M 179 548 L 179 548 Z M 268 548 L 188 548 L 90 720 L 184 720 L 268 548 Z" unicode="à" />
<glyph horiz-adv-x="368" d="M 20 0 L 20 0 Z M 326 0 L 254 0 L 254 52 C 240 34 225 20 207 10 C 189 0 166 -5 138 -5 C 105 -5 77 7 54 33 C 31 59 20 96 20 144 C 20 196 35 235 65 259 C 95 283 131 296 172 299 L 248 305 L 248 343 C 248 370 241 390 228 404 C 214 417 195 424 169 424 C 146 424 127 420 111 412 C 95 404 82 396 74 388 L 50 449 C 64 461 82 472 104 481 C 126 490 155 495 189 495 C 229 495 261 483 287 460 C 313 437 326 403 326 359 L 326 0 Z M 250 105 L 250 246 L 189 241 C 165 239 143 230 125 215 C 107 200 98 176 98 143 C 98 114 105 93 121 80 C 136 67 152 61 170 61 C 189 61 205 65 218 74 C 231 82 242 93 250 105 Z M 179 548 L 179 548 Z M 90 548 L 174 720 L 268 720 L 170 548 L 90 548 Z" unicode="á" />
<glyph horiz-adv-x="368" d="M 20 0 L 20 0 Z M 326 0 L 254 0 L 254 52 C 240 34 225 20 207 10 C 189 0 166 -5 138 -5 C 105 -5 77 7 54 33 C 31 59 20 96 20 144 C 20 196 35 235 65 259 C 95 283 131 296 172 299 L 248 305 L 248 343 C 248 370 241 390 228 404 C 214 417 195 424 169 424 C 146 424 127 420 111 412 C 95 404 82 396 74 388 L 50 449 C 64 461 82 472 104 481 C 126 490 155 495 189 495 C 229 495 261 483 287 460 C 313 437 326 403 326 359 L 326 0 Z M 250 105 L 250 246 L 189 241 C 165 239 143 230 125 215 C 107 200 98 176 98 143 C 98 114 105 93 121 80 C 136 67 152 61 170 61 C 189 61 205 65 218 74 C 231 82 242 93 250 105 Z M 179 549 L 179 549 Z M 311 549 L 242 549 L 179 661 L 115 549 L 47 549 L 144 720 L 214 720 L 311 549 Z" unicode="â" />
<glyph horiz-adv-x="368" d="M 20 0 L 20 0 Z M 326 0 L 254 0 L 254 52 C 240 34 225 20 207 10 C 189 0 166 -5 138 -5 C 105 -5 77 7 54 33 C 31 59 20 96 20 144 C 20 196 35 235 65 259 C 95 283 131 296 172 299 L 248 305 L 248 343 C 248 370 241 390 228 404 C 214 417 195 424 169 424 C 146 424 127 420 111 412 C 95 404 82 396 74 388 L 50 449 C 64 461 82 472 104 481 C 126 490 155 495 189 495 C 229 495 261 483 287 460 C 313 437 326 403 326 359 L 326 0 Z M 250 105 L 250 246 L 189 241 C 165 239 143 230 125 215 C 107 200 98 176 98 143 C 98 114 105 93 121 80 C 136 67 152 61 170 61 C 189 61 205 65 218 74 C 231 82 242 93 250 105 Z M 179 556 L 179 556 Z M 265 690 L 327 690 C 327 644 320 611 308 589 C 296 567 279 556 259 556 C 241 556 226 560 214 568 C 201 576 190 583 181 590 C 172 597 163 604 154 611 C 144 618 135 622 127 622 C 118 622 110 616 104 605 C 97 594 93 579 93 560 L 32 560 C 32 605 40 639 56 661 C 72 683 89 694 108 694 C 124 694 137 690 149 682 C 161 674 172 666 183 658 C 191 650 200 643 208 637 C 216 631 224 628 233 628 C 241 628 249 633 255 644 C 261 654 265 670 265 690 Z" unicode="ã" />
<glyph horiz-adv-x="368" d="M 20 0 L 20 0 Z M 326 0 L 254 0 L 254 52 C 240 34 225 20 207 10 C 189 0 166 -5 138 -5 C 105 -5 77 7 54 33 C 31 59 20 96 20 144 C 20 196 35 235 65 259 C 95 283 131 296 172 299 L 248 305 L 248 343 C 248 370 241 390 228 404 C 214 417 195 424 169 424 C 146 424 127 420 111 412 C 95 404 82 396 74 388 L 50 449 C 64 461 82 472 104 481 C 126 490 155 495 189 495 C 229 495 261 483 287 460 C 313 437 326 403 326 359 L 326 0 Z M 250 105 L 250 246 L 189 241 C 165 239 143 230 125 215 C 107 200 98 176 98 143 C 98 114 105 93 121 80 C 136 67 152 61 170 61 C 189 61 205 65 218 74 C 231 82 242 93 250 105 Z M 179 549 L 179 549 Z M 286 549 L 219 549 L 219 707 L 286 707 L 286 549 Z M 139 549 L 72 549 L 72 707 L 139 707 L 139 549 Z" unicode="ä" />
<glyph horiz-adv-x="368" d="M 20 0 L 20 0 Z M 326 0 L 254 0 L 254 52 C 240 34 225 20 207 10 C 189 0 166 -5 138 -5 C 105 -5 77 7 54 33 C 31 59 20 96 20 144 C 20 196 35 235 65 259 C 95 283 131 296 172 299 L 248 305 L 248 343 C 248 370 241 390 228 404 C 214 417 195 424 169 424 C 146 424 127 420 111 412 C 95 404 82 396 74 388 L 50 449 C 64 461 82 472 104 481 C 126 490 155 495 189 495 C 229 495 261 483 287 460 C 313 437 326 403 326 359 L 326 0 Z M 250 105 L 250 246 L 189 241 C 165 239 143 230 125 215 C 107 200 98 176 98 143 C 98 114 105 93 121 80 C 136 67 152 61 170 61 C 189 61 205 65 218 74 C 231 82 242 93 250 105 Z M 179 538 L 179 538 Z M 179 538 C 146 538 118 549 96 571 C 73 593 62 621 62 654 C 62 686 73 714 96 737 C 118 759 146 771 179 771 C 211 771 239 759 262 737 C 284 714 296 686 296 654 C 296 621 284 593 262 571 C 239 549 211 538 179 538 Z M 179 586 C 197 586 213 592 226 606 C 238 619 245 635 245 654 C 245 672 238 688 226 702 C 213 715 197 722 179 722 C 161 722 145 715 132 702 C 119 688 113 672 113 654 C 113 635 119 619 132 606 C 145 592 161 586 179 586 Z" unicode="å" />
<glyph horiz-adv-x="603" d="M 418 -5 C 398 -5 380 -1 365 4 C 349 10 336 18 325 28 C 314 37 305 47 298 59 C 290 71 285 82 282 93 C 273 62 256 38 231 21 C 205 3 177 -5 145 -5 C 111 -5 82 7 58 33 C 33 59 21 95 21 142 C 21 194 36 232 66 257 C 96 281 131 295 172 298 L 251 304 L 251 328 C 251 365 243 390 229 404 C 214 418 194 425 169 425 C 145 425 125 420 109 412 C 93 404 81 396 74 388 L 50 448 C 64 460 82 471 103 479 C 124 487 150 492 180 492 C 208 492 233 485 255 472 C 277 458 291 436 296 406 C 302 426 316 445 336 463 C 356 481 384 490 419 490 C 470 490 510 466 539 420 C 568 373 583 308 583 224 L 327 224 C 327 172 335 132 353 104 C 371 76 395 62 427 62 C 453 62 474 68 490 80 C 506 92 520 106 532 122 L 573 79 C 559 59 541 40 517 22 C 493 4 460 -5 418 -5 Z M 325 280 L 504 280 C 503 324 495 359 479 385 C 463 411 442 424 416 424 C 390 424 369 411 353 386 C 337 361 327 326 325 280 Z M 172 61 C 192 61 211 68 227 82 C 243 96 251 117 252 145 L 252 246 L 189 241 C 165 239 143 231 125 216 C 107 201 98 177 98 145 C 98 115 105 93 121 80 C 136 67 153 61 172 61 Z" unicode="æ" />
<glyph horiz-adv-x="343" d="M 22 0 L 22 0 Z M 287 120 L 334 75 C 323 56 308 38 288 21 C 268 3 239 -5 201 -5 C 172 -5 146 1 124 13 C 102 25 83 42 68 64 C 52 86 41 112 33 142 C 25 172 22 206 22 242 C 22 275 25 307 33 337 C 41 367 52 394 67 417 C 81 439 100 457 123 471 C 145 484 172 491 202 491 C 238 491 266 482 288 464 C 310 446 326 427 337 407 L 283 360 C 275 375 264 389 252 401 C 239 413 222 419 202 419 C 172 419 148 403 132 371 C 116 339 108 297 108 245 C 108 184 117 138 137 108 C 156 78 181 63 211 63 C 232 63 248 69 260 82 C 271 95 280 108 287 120 Z M 188 -1 L 188 -1 Z M 194 -183 C 173 -183 153 -180 133 -174 C 113 -168 97 -160 85 -150 L 101 -117 C 109 -123 119 -128 133 -134 C 147 -140 162 -143 179 -143 C 192 -143 203 -139 213 -133 C 223 -126 228 -117 228 -106 C 228 -93 223 -84 215 -78 C 206 -72 196 -70 186 -70 C 178 -70 172 -70 167 -71 C 161 -72 155 -74 149 -77 L 137 -61 L 191 11 L 235 11 L 191 -49 C 219 -44 243 -47 263 -58 C 282 -68 292 -85 292 -109 C 292 -132 282 -150 263 -163 C 243 -176 220 -183 194 -183 Z" unicode="ç" />
<glyph horiz-adv-x="381" d="M 22 0 L 22 0 Z M 198 -5 C 144 -5 102 17 70 61 C 38 105 22 165 22 241 C 22 318 38 379 71 424 C 104 468 144 491 192 491 C 247 491 289 467 318 421 C 346 374 361 308 361 224 L 104 224 C 104 172 113 132 131 104 C 149 76 175 63 207 63 C 233 63 255 69 271 82 C 287 94 300 108 311 123 L 351 79 C 338 60 319 41 295 23 C 271 4 238 -5 198 -5 Z M 105 281 L 281 281 C 280 325 272 360 258 386 C 243 411 223 424 197 424 C 170 424 149 411 133 386 C 117 361 107 326 105 281 Z M 194 548 L 194 548 Z M 283 548 L 203 548 L 105 720 L 199 720 L 283 548 Z" unicode="è" />
<glyph horiz-adv-x="381" d="M 22 0 L 22 0 Z M 198 -5 C 144 -5 102 17 70 61 C 38 105 22 165 22 241 C 22 318 38 379 71 424 C 104 468 144 491 192 491 C 247 491 289 467 318 421 C 346 374 361 308 361 224 L 104 224 C 104 172 113 132 131 104 C 149 76 175 63 207 63 C 233 63 255 69 271 82 C 287 94 300 108 311 123 L 351 79 C 338 60 319 41 295 23 C 271 4 238 -5 198 -5 Z M 105 281 L 281 281 C 280 325 272 360 258 386 C 243 411 223 424 197 424 C 170 424 149 411 133 386 C 117 361 107 326 105 281 Z M 194 548 L 194 548 Z M 105 548 L 189 720 L 283 720 L 185 548 L 105 548 Z" unicode="é" />
<glyph horiz-adv-x="381" d="M 22 0 L 22 0 Z M 198 -5 C 144 -5 102 17 70 61 C 38 105 22 165 22 241 C 22 318 38 379 71 424 C 104 468 144 491 192 491 C 247 491 289 467 318 421 C 346 374 361 308 361 224 L 104 224 C 104 172 113 132 131 104 C 149 76 175 63 207 63 C 233 63 255 69 271 82 C 287 94 300 108 311 123 L 351 79 C 338 60 319 41 295 23 C 271 4 238 -5 198 -5 Z M 105 281 L 281 281 C 280 325 272 360 258 386 C 243 411 223 424 197 424 C 170 424 149 411 133 386 C 117 361 107 326 105 281 Z M 194 549 L 194 549 Z M 326 549 L 257 549 L 194 661 L 130 549 L 62 549 L 159 720 L 229 720 L 326 549 Z" unicode="ê" />
<glyph horiz-adv-x="381" d="M 22 0 L 22 0 Z M 198 -5 C 144 -5 102 17 70 61 C 38 105 22 165 22 241 C 22 318 38 379 71 424 C 104 468 144 491 192 491 C 247 491 289 467 318 421 C 346 374 361 308 361 224 L 104 224 C 104 172 113 132 131 104 C 149 76 175 63 207 63 C 233 63 255 69 271 82 C 287 94 300 108 311 123 L 351 79 C 338 60 319 41 295 23 C 271 4 238 -5 198 -5 Z M 105 281 L 281 281 C 280 325 272 360 258 386 C 243 411 223 424 197 424 C 170 424 149 411 133 386 C 117 361 107 326 105 281 Z M 194 549 L 194 549 Z M 301 549 L 234 549 L 234 707 L 301 707 L 301 549 Z M 154 549 L 87 549 L 87 707 L 154 707 L 154 549 Z" unicode="ë" />
<glyph horiz-adv-x="172" d="M 0 0 L 0 0 Z M 127 0 L 45 0 L 45 486 L 127 486 L 127 0 Z M 85 548 L 85 548 Z M 174 548 L 94 548 L -4 720 L 90 720 L 174 548 Z" unicode="ì" />
<glyph horiz-adv-x="172" d="M 0 0 L 0 0 Z M 127 0 L 45 0 L 45 486 L 127 486 L 127 0 Z M 85 548 L 85 548 Z M -4 548 L 80 720 L 174 720 L 76 548 L -4 548 Z" unicode="í" />
<glyph horiz-adv-x="172" d="M 0 0 L 0 0 Z M 127 0 L 45 0 L 45 486 L 127 486 L 127 0 Z M 85 549 L 85 549 Z M 217 549 L 148 549 L 85 661 L 21 549 L -47 549 L 50 720 L 120 720 L 217 549 Z" unicode="î" />
<glyph horiz-adv-x="172" d="M 0 0 L 0 0 Z M 127 0 L 45 0 L 45 486 L 127 486 L 127 0 Z M 85 549 L 85 549 Z M 192 549 L 125 549 L 125 707 L 192 707 L 192 549 Z M 45 549 L -22 549 L -22 707 L 45 707 L 45 549 Z" unicode="ï" />
<glyph horiz-adv-x="404" d="M 374 290 C 374 246 370 206 363 170 C 355 134 344 102 330 76 C 315 50 297 29 275 15 C 253 0 228 -7 200 -7 C 147 -7 104 14 71 57 C 38 99 22 159 22 237 C 22 277 26 313 35 344 C 44 375 56 401 72 422 C 87 442 104 458 124 468 C 144 478 164 484 185 484 C 211 484 234 477 253 465 C 271 453 286 436 297 415 C 293 453 285 489 275 525 C 265 561 253 593 241 622 L 161 586 L 140 646 L 212 679 C 199 702 186 722 174 738 C 162 754 152 765 145 771 L 206 798 C 214 791 224 780 236 765 C 248 749 261 730 275 707 L 338 735 L 360 676 L 304 651 C 322 609 339 557 353 497 C 367 436 374 367 374 290 Z M 197 62 C 227 62 249 77 264 107 C 279 137 287 181 287 239 C 287 301 279 346 263 374 C 247 402 225 416 195 416 C 167 416 145 400 129 370 C 113 340 106 296 106 239 C 106 178 114 133 130 105 C 146 76 168 62 197 62 Z" unicode="ð" />
<glyph horiz-adv-x="397" d="M 42 0 L 42 0 Z M 355 0 L 273 0 L 273 349 C 273 372 266 390 254 402 C 242 414 225 420 205 420 C 183 420 164 413 148 400 C 132 386 125 362 125 326 L 125 0 L 42 0 L 42 486 L 116 486 L 116 415 C 123 437 136 456 156 470 C 176 484 202 491 236 491 C 271 491 300 482 322 464 C 344 446 355 417 355 377 L 355 0 Z M 199 556 L 199 556 Z M 285 690 L 347 690 C 347 644 340 611 328 589 C 316 567 299 556 279 556 C 261 556 246 560 234 568 C 221 576 210 583 201 590 C 192 597 183 604 174 611 C 164 618 155 622 147 622 C 138 622 130 616 124 605 C 117 594 113 579 113 560 L 52 560 C 52 605 60 639 76 661 C 92 683 109 694 128 694 C 144 694 157 690 169 682 C 181 674 192 666 203 658 C 211 650 220 643 228 637 C 236 631 244 628 253 628 C 261 628 269 633 275 644 C 281 654 285 670 285 690 Z" unicode="ñ" />
<glyph horiz-adv-x="394" d="M 22 0 L 22 0 Z M 198 -5 C 146 -5 104 16 71 58 C 38 100 22 162 22 242 C 22 317 37 377 69 423 C 101 468 142 491 192 491 C 246 491 290 470 323 428 C 355 386 372 328 372 255 C 372 176 356 113 325 66 C 294 18 252 -5 198 -5 Z M 198 64 C 226 64 248 78 263 108 C 278 138 286 184 286 246 C 286 307 278 351 262 379 C 246 407 224 421 195 421 C 167 421 146 406 131 378 C 115 350 108 306 108 246 C 108 180 116 133 132 105 C 148 77 170 64 198 64 Z M 197 548 L 197 548 Z M 286 548 L 206 548 L 108 720 L 202 720 L 286 548 Z" unicode="ò" />
<glyph horiz-adv-x="394" d="M 22 0 L 22 0 Z M 198 -5 C 146 -5 104 16 71 58 C 38 100 22 162 22 242 C 22 317 37 377 69 423 C 101 468 142 491 192 491 C 246 491 290 470 323 428 C 355 386 372 328 372 255 C 372 176 356 113 325 66 C 294 18 252 -5 198 -5 Z M 198 64 C 226 64 248 78 263 108 C 278 138 286 184 286 246 C 286 307 278 351 262 379 C 246 407 224 421 195 421 C 167 421 146 406 131 378 C 115 350 108 306 108 246 C 108 180 116 133 132 105 C 148 77 170 64 198 64 Z M 197 548 L 197 548 Z M 108 548 L 192 720 L 286 720 L 188 548 L 108 548 Z" unicode="ó" />
<glyph horiz-adv-x="394" d="M 22 0 L 22 0 Z M 198 -5 C 146 -5 104 16 71 58 C 38 100 22 162 22 242 C 22 317 37 377 69 423 C 101 468 142 491 192 491 C 246 491 290 470 323 428 C 355 386 372 328 372 255 C 372 176 356 113 325 66 C 294 18 252 -5 198 -5 Z M 198 64 C 226 64 248 78 263 108 C 278 138 286 184 286 246 C 286 307 278 351 262 379 C 246 407 224 421 195 421 C 167 421 146 406 131 378 C 115 350 108 306 108 246 C 108 180 116 133 132 105 C 148 77 170 64 198 64 Z M 197 549 L 197 549 Z M 329 549 L 260 549 L 197 661 L 133 549 L 65 549 L 162 720 L 232 720 L 329 549 Z" unicode="ô" />
<glyph horiz-adv-x="394" d="M 22 0 L 22 0 Z M 198 -5 C 146 -5 104 16 71 58 C 38 100 22 162 22 242 C 22 317 37 377 69 423 C 101 468 142 491 192 491 C 246 491 290 470 323 428 C 355 386 372 328 372 255 C 372 176 356 113 325 66 C 294 18 252 -5 198 -5 Z M 198 64 C 226 64 248 78 263 108 C 278 138 286 184 286 246 C 286 307 278 351 262 379 C 246 407 224 421 195 421 C 167 421 146 406 131 378 C 115 350 108 306 108 246 C 108 180 116 133 132 105 C 148 77 170 64 198 64 Z M 197 556 L 197 556 Z M 283 690 L 345 690 C 345 644 338 611 326 589 C 314 567 297 556 277 556 C 259 556 244 560 232 568 C 219 576 208 583 199 590 C 190 597 181 604 172 611 C 162 618 153 622 145 622 C 136 622 128 616 122 605 C 115 594 111 579 111 560 L 50 560 C 50 605 58 639 74 661 C 90 683 107 694 126 694 C 142 694 155 690 167 682 C 179 674 190 666 201 658 C 209 650 218 643 226 637 C 234 631 242 628 251 628 C 259 628 267 633 273 644 C 279 654 283 670 283 690 Z" unicode="õ" />
<glyph horiz-adv-x="394" d="M 22 0 L 22 0 Z M 198 -5 C 146 -5 104 16 71 58 C 38 100 22 162 22 242 C 22 317 37 377 69 423 C 101 468 142 491 192 491 C 246 491 290 470 323 428 C 355 386 372 328 372 255 C 372 176 356 113 325 66 C 294 18 252 -5 198 -5 Z M 198 64 C 226 64 248 78 263 108 C 278 138 286 184 286 246 C 286 307 278 351 262 379 C 246 407 224 421 195 421 C 167 421 146 406 131 378 C 115 350 108 306 108 246 C 108 180 116 133 132 105 C 148 77 170 64 198 64 Z M 197 549 L 197 549 Z M 304 549 L 237 549 L 237 707 L 304 707 L 304 549 Z M 157 549 L 90 549 L 90 707 L 157 707 L 157 549 Z" unicode="ö" />
<glyph horiz-adv-x="487" d="M 204 448 L 204 561 L 283 561 L 283 448 L 204 448 Z M 26 295 L 26 366 L 461 366 L 461 295 L 26 295 Z M 204 100 L 204 213 L 283 213 L 283 100 L 204 100 Z" unicode="÷" />
<glyph horiz-adv-x="394" d="M 372 255 C 372 176 356 113 325 66 C 294 18 252 -5 198 -5 C 176 -5 156 -1 138 6 C 120 13 103 24 89 38 L 64 0 L 34 22 L 64 68 C 50 88 40 113 33 143 C 25 172 22 205 22 242 C 22 317 37 377 69 423 C 101 468 142 491 192 491 C 215 491 237 487 257 479 C 277 471 294 459 309 445 L 336 486 L 365 465 L 333 415 C 345 395 355 371 362 344 C 368 317 372 287 372 255 Z M 108 246 C 108 226 108 208 110 192 C 112 176 114 161 117 149 L 264 376 C 256 391 247 402 235 410 C 223 417 210 421 195 421 C 167 421 146 406 131 378 C 115 350 108 306 108 246 Z M 286 246 C 286 262 285 278 284 292 C 283 306 281 320 279 332 L 132 106 C 140 91 149 80 160 74 C 171 67 184 64 198 64 C 226 64 248 78 263 108 C 278 138 286 184 286 246 Z" unicode="ø" />
<glyph horiz-adv-x="397" d="M 42 0 L 42 0 Z M 42 486 L 124 486 L 124 143 C 124 114 130 93 143 80 C 155 67 173 61 196 61 C 216 61 233 68 249 82 C 264 96 272 123 272 163 L 272 486 L 354 486 L 354 0 L 278 0 L 278 66 C 271 45 258 28 238 14 C 218 0 192 -6 162 -6 C 129 -6 101 4 77 25 C 53 45 42 77 42 121 L 42 486 Z M 198 548 L 198 548 Z M 287 548 L 207 548 L 109 720 L 203 720 L 287 548 Z" unicode="ù" />
<glyph horiz-adv-x="397" d="M 42 0 L 42 0 Z M 42 486 L 124 486 L 124 143 C 124 114 130 93 143 80 C 155 67 173 61 196 61 C 216 61 233 68 249 82 C 264 96 272 123 272 163 L 272 486 L 354 486 L 354 0 L 278 0 L 278 66 C 271 45 258 28 238 14 C 218 0 192 -6 162 -6 C 129 -6 101 4 77 25 C 53 45 42 77 42 121 L 42 486 Z M 198 548 L 198 548 Z M 109 548 L 193 720 L 287 720 L 189 548 L 109 548 Z" unicode="ú" />
<glyph horiz-adv-x="397" d="M 42 0 L 42 0 Z M 42 486 L 124 486 L 124 143 C 124 114 130 93 143 80 C 155 67 173 61 196 61 C 216 61 233 68 249 82 C 264 96 272 123 272 163 L 272 486 L 354 486 L 354 0 L 278 0 L 278 66 C 271 45 258 28 238 14 C 218 0 192 -6 162 -6 C 129 -6 101 4 77 25 C 53 45 42 77 42 121 L 42 486 Z M 198 549 L 198 549 Z M 330 549 L 261 549 L 198 661 L 134 549 L 66 549 L 163 720 L 233 720 L 330 549 Z" unicode="û" />
<glyph horiz-adv-x="397" d="M 42 0 L 42 0 Z M 42 486 L 124 486 L 124 143 C 124 114 130 93 143 80 C 155 67 173 61 196 61 C 216 61 233 68 249 82 C 264 96 272 123 272 163 L 272 486 L 354 486 L 354 0 L 278 0 L 278 66 C 271 45 258 28 238 14 C 218 0 192 -6 162 -6 C 129 -6 101 4 77 25 C 53 45 42 77 42 121 L 42 486 Z M 198 549 L 198 549 Z M 305 549 L 238 549 L 238 707 L 305 707 L 305 549 Z M 158 549 L 91 549 L 91 707 L 158 707 L 158 549 Z" unicode="ü" />
<glyph horiz-adv-x="331" d="M 0 0 L 0 0 Z M 334 486 L 167 -105 C 158 -136 143 -160 121 -176 C 99 -192 76 -200 50 -200 C 31 -200 15 -198 2 -194 C -10 -190 -19 -186 -25 -182 L 5 -119 C 7 -121 13 -123 22 -126 C 30 -128 39 -130 48 -130 C 58 -130 69 -125 80 -115 C 90 -105 98 -91 103 -73 L 132 38 L -3 486 L 82 486 L 172 155 L 255 486 L 334 486 Z M 169 548 L 169 548 Z M 80 548 L 164 720 L 258 720 L 160 548 L 80 548 Z" unicode="ý" />
<glyph horiz-adv-x="401" d="M 42 -200 L 42 792 L 119 792 L 119 394 C 125 420 139 443 160 462 C 180 481 206 491 237 491 C 261 491 283 485 301 473 C 319 461 333 444 345 424 C 357 404 365 379 371 351 C 377 322 380 291 380 259 C 380 176 366 111 339 65 C 312 19 276 -4 230 -4 C 201 -4 177 3 158 17 C 139 31 126 47 120 67 L 120 -200 L 42 -200 Z M 201 60 C 229 60 252 74 268 104 C 284 134 293 179 293 239 C 293 293 286 337 272 370 C 258 402 236 419 204 419 C 181 419 161 406 143 380 C 125 354 117 305 117 232 C 117 163 125 117 141 94 C 157 71 177 60 201 60 Z" unicode="þ" />
<glyph horiz-adv-x="331" d="M 0 0 L 0 0 Z M 334 486 L 167 -105 C 158 -136 143 -160 121 -176 C 99 -192 76 -200 50 -200 C 31 -200 15 -198 2 -194 C -10 -190 -19 -186 -25 -182 L 5 -119 C 7 -121 13 -123 22 -126 C 30 -128 39 -130 48 -130 C 58 -130 69 -125 80 -115 C 90 -105 98 -91 103 -73 L 132 38 L -3 486 L 82 486 L 172 155 L 255 486 L 334 486 Z M 169 549 L 169 549 Z M 276 549 L 209 549 L 209 707 L 276 707 L 276 549 Z M 129 549 L 62 549 L 62 707 L 129 707 L 129 549 Z" unicode="ÿ" />
<glyph horiz-adv-x="475" d="M 2 0 L 2 0 Z M 473 0 L 387 0 L 336 185 L 134 185 L 86 0 L 2 0 L 206 734 L 268 734 L 473 0 Z M 323 255 L 235 573 L 148 255 L 323 255 Z M 235 815 L 235 815 Z M 354 815 L 116 815 L 116 881 L 354 881 L 354 815 Z" unicode="Ā" />
<glyph horiz-adv-x="368" d="M 20 0 L 20 0 Z M 326 0 L 254 0 L 254 52 C 240 34 225 20 207 10 C 189 0 166 -5 138 -5 C 105 -5 77 7 54 33 C 31 59 20 96 20 144 C 20 196 35 235 65 259 C 95 283 131 296 172 299 L 248 305 L 248 343 C 248 370 241 390 228 404 C 214 417 195 424 169 424 C 146 424 127 420 111 412 C 95 404 82 396 74 388 L 50 449 C 64 461 82 472 104 481 C 126 490 155 495 189 495 C 229 495 261 483 287 460 C 313 437 326 403 326 359 L 326 0 Z M 250 105 L 250 246 L 189 241 C 165 239 143 230 125 215 C 107 200 98 176 98 143 C 98 114 105 93 121 80 C 136 67 152 61 170 61 C 189 61 205 65 218 74 C 231 82 242 93 250 105 Z M 179 571 L 179 571 Z M 298 571 L 60 571 L 60 637 L 298 637 L 298 571 Z" unicode="ā" />
<glyph horiz-adv-x="475" d="M 2 0 L 2 0 Z M 473 0 L 387 0 L 336 185 L 134 185 L 86 0 L 2 0 L 206 734 L 268 734 L 473 0 Z M 323 255 L 235 573 L 148 255 L 323 255 Z M 235 798 L 235 798 Z M 294 955 L 363 955 C 359 901 345 861 322 836 C 299 810 270 798 235 798 C 199 798 170 810 147 836 C 124 861 111 901 108 955 L 177 955 C 179 927 184 904 192 887 C 200 870 214 862 235 862 C 255 862 270 870 278 886 C 286 902 292 925 294 955 Z" unicode="Ă" />
<glyph horiz-adv-x="368" d="M 20 0 L 20 0 Z M 326 0 L 254 0 L 254 52 C 240 34 225 20 207 10 C 189 0 166 -5 138 -5 C 105 -5 77 7 54 33 C 31 59 20 96 20 144 C 20 196 35 235 65 259 C 95 283 131 296 172 299 L 248 305 L 248 343 C 248 370 241 390 228 404 C 214 417 195 424 169 424 C 146 424 127 420 111 412 C 95 404 82 396 74 388 L 50 449 C 64 461 82 472 104 481 C 126 490 155 495 189 495 C 229 495 261 483 287 460 C 313 437 326 403 326 359 L 326 0 Z M 250 105 L 250 246 L 189 241 C 165 239 143 230 125 215 C 107 200 98 176 98 143 C 98 114 105 93 121 80 C 136 67 152 61 170 61 C 189 61 205 65 218 74 C 231 82 242 93 250 105 Z M 179 554 L 179 554 Z M 238 711 L 307 711 C 303 657 289 617 266 592 C 243 566 214 554 179 554 C 143 554 114 566 91 592 C 68 617 55 657 52 711 L 121 711 C 123 683 128 660 136 643 C 144 626 158 618 179 618 C 199 618 214 626 222 642 C 230 658 236 681 238 711 Z" unicode="ă" />
<glyph horiz-adv-x="475" d="M 2 0 L 2 0 Z M 473 0 L 387 0 L 336 185 L 134 185 L 86 0 L 2 0 L 206 734 L 268 734 L 473 0 Z M 323 255 L 235 573 L 148 255 L 323 255 Z M 395 -9 L 395 -9 Z M 491 -101 L 515 -136 C 495 -156 474 -171 451 -182 C 427 -192 402 -198 374 -198 C 342 -198 318 -190 300 -176 C 282 -161 274 -143 274 -121 C 274 -96 283 -73 302 -51 C 321 -29 351 -11 392 4 L 443 4 C 413 -8 390 -23 372 -39 C 354 -55 346 -71 346 -87 C 346 -101 351 -113 361 -122 C 371 -131 384 -136 401 -136 C 419 -136 435 -132 451 -126 C 467 -119 480 -111 491 -101 Z" unicode="Ą" />
<glyph horiz-adv-x="368" d="M 20 0 L 20 0 Z M 326 0 L 254 0 L 254 52 C 240 34 225 20 207 10 C 189 0 166 -5 138 -5 C 105 -5 77 7 54 33 C 31 59 20 96 20 144 C 20 196 35 235 65 259 C 95 283 131 296 172 299 L 248 305 L 248 343 C 248 370 241 390 228 404 C 214 417 195 424 169 424 C 146 424 127 420 111 412 C 95 404 82 396 74 388 L 50 449 C 64 461 82 472 104 481 C 126 490 155 495 189 495 C 229 495 261 483 287 460 C 313 437 326 403 326 359 L 326 0 Z M 250 105 L 250 246 L 189 241 C 165 239 143 230 125 215 C 107 200 98 176 98 143 C 98 114 105 93 121 80 C 136 67 152 61 170 61 C 189 61 205 65 218 74 C 231 82 242 93 250 105 Z M 262 -9 L 262 -9 Z M 358 -101 L 382 -136 C 362 -156 341 -171 318 -182 C 294 -192 269 -198 241 -198 C 209 -198 185 -190 167 -176 C 149 -161 141 -143 141 -121 C 141 -96 150 -73 169 -51 C 188 -29 218 -11 259 4 L 310 4 C 280 -8 257 -23 239 -39 C 221 -55 213 -71 213 -87 C 213 -101 218 -113 228 -122 C 238 -131 251 -136 268 -136 C 286 -136 302 -132 318 -126 C 334 -119 347 -111 358 -101 Z" unicode="ą" />
<glyph horiz-adv-x="500" d="M 36 0 L 36 0 Z M 276 -7 C 241 -7 209 0 180 16 C 150 31 125 54 104 85 C 82 115 66 154 54 201 C 42 248 36 303 36 366 C 36 484 56 575 98 640 C 140 704 199 737 277 737 C 336 737 380 722 410 694 C 439 665 460 630 473 590 L 393 562 C 382 588 368 611 351 629 C 334 647 309 657 277 657 C 229 657 192 634 166 589 C 139 543 126 468 126 362 C 126 308 130 263 139 226 C 148 188 160 158 175 136 C 189 113 206 97 225 87 C 244 77 263 72 283 72 C 318 72 345 81 364 100 C 382 119 397 145 409 177 L 482 146 C 465 98 440 61 407 34 C 373 6 330 -7 276 -7 Z M 279 792 L 279 792 Z M 190 792 L 274 964 L 368 964 L 270 792 L 190 792 Z" unicode="Ć" />
<glyph horiz-adv-x="343" d="M 22 0 L 22 0 Z M 287 120 L 334 75 C 323 56 308 38 288 21 C 268 3 239 -5 201 -5 C 172 -5 146 1 124 13 C 102 25 83 42 68 64 C 52 86 41 112 33 142 C 25 172 22 206 22 242 C 22 275 25 307 33 337 C 41 367 52 394 67 417 C 81 439 100 457 123 471 C 145 484 172 491 202 491 C 238 491 266 482 288 464 C 310 446 326 427 337 407 L 283 360 C 275 375 264 389 252 401 C 239 413 222 419 202 419 C 172 419 148 403 132 371 C 116 339 108 297 108 245 C 108 184 117 138 137 108 C 156 78 181 63 211 63 C 232 63 248 69 260 82 C 271 95 280 108 287 120 Z M 194 548 L 194 548 Z M 105 548 L 189 720 L 283 720 L 185 548 L 105 548 Z" unicode="ć" />
<glyph horiz-adv-x="500" d="M 36 0 L 36 0 Z M 276 -7 C 241 -7 209 0 180 16 C 150 31 125 54 104 85 C 82 115 66 154 54 201 C 42 248 36 303 36 366 C 36 484 56 575 98 640 C 140 704 199 737 277 737 C 336 737 380 722 410 694 C 439 665 460 630 473 590 L 393 562 C 382 588 368 611 351 629 C 334 647 309 657 277 657 C 229 657 192 634 166 589 C 139 543 126 468 126 362 C 126 308 130 263 139 226 C 148 188 160 158 175 136 C 189 113 206 97 225 87 C 244 77 263 72 283 72 C 318 72 345 81 364 100 C 382 119 397 145 409 177 L 482 146 C 465 98 440 61 407 34 C 373 6 330 -7 276 -7 Z M 279 793 L 279 793 Z M 411 793 L 342 793 L 279 905 L 215 793 L 147 793 L 244 964 L 314 964 L 411 793 Z" unicode="Ĉ" />
<glyph horiz-adv-x="343" d="M 22 0 L 22 0 Z M 287 120 L 334 75 C 323 56 308 38 288 21 C 268 3 239 -5 201 -5 C 172 -5 146 1 124 13 C 102 25 83 42 68 64 C 52 86 41 112 33 142 C 25 172 22 206 22 242 C 22 275 25 307 33 337 C 41 367 52 394 67 417 C 81 439 100 457 123 471 C 145 484 172 491 202 491 C 238 491 266 482 288 464 C 310 446 326 427 337 407 L 283 360 C 275 375 264 389 252 401 C 239 413 222 419 202 419 C 172 419 148 403 132 371 C 116 339 108 297 108 245 C 108 184 117 138 137 108 C 156 78 181 63 211 63 C 232 63 248 69 260 82 C 271 95 280 108 287 120 Z M 194 549 L 194 549 Z M 326 549 L 257 549 L 194 661 L 130 549 L 62 549 L 159 720 L 229 720 L 326 549 Z" unicode="ĉ" />
<glyph horiz-adv-x="500" d="M 36 0 L 36 0 Z M 276 -7 C 241 -7 209 0 180 16 C 150 31 125 54 104 85 C 82 115 66 154 54 201 C 42 248 36 303 36 366 C 36 484 56 575 98 640 C 140 704 199 737 277 737 C 336 737 380 722 410 694 C 439 665 460 630 473 590 L 393 562 C 382 588 368 611 351 629 C 334 647 309 657 277 657 C 229 657 192 634 166 589 C 139 543 126 468 126 362 C 126 308 130 263 139 226 C 148 188 160 158 175 136 C 189 113 206 97 225 87 C 244 77 263 72 283 72 C 318 72 345 81 364 100 C 382 119 397 145 409 177 L 482 146 C 465 98 440 61 407 34 C 373 6 330 -7 276 -7 Z M 279 805 L 279 805 Z M 318 805 L 241 805 L 241 918 L 318 919 L 318 805 Z" unicode="Ċ" />
<glyph horiz-adv-x="343" d="M 22 0 L 22 0 Z M 287 120 L 334 75 C 323 56 308 38 288 21 C 268 3 239 -5 201 -5 C 172 -5 146 1 124 13 C 102 25 83 42 68 64 C 52 86 41 112 33 142 C 25 172 22 206 22 242 C 22 275 25 307 33 337 C 41 367 52 394 67 417 C 81 439 100 457 123 471 C 145 484 172 491 202 491 C 238 491 266 482 288 464 C 310 446 326 427 337 407 L 283 360 C 275 375 264 389 252 401 C 239 413 222 419 202 419 C 172 419 148 403 132 371 C 116 339 108 297 108 245 C 108 184 117 138 137 108 C 156 78 181 63 211 63 C 232 63 248 69 260 82 C 271 95 280 108 287 120 Z M 194 561 L 194 561 Z M 233 561 L 156 561 L 156 674 L 233 675 L 233 561 Z" unicode="ċ" />
<glyph horiz-adv-x="500" d="M 36 0 L 36 0 Z M 276 -7 C 241 -7 209 0 180 16 C 150 31 125 54 104 85 C 82 115 66 154 54 201 C 42 248 36 303 36 366 C 36 484 56 575 98 640 C 140 704 199 737 277 737 C 336 737 380 722 410 694 C 439 665 460 630 473 590 L 393 562 C 382 588 368 611 351 629 C 334 647 309 657 277 657 C 229 657 192 634 166 589 C 139 543 126 468 126 362 C 126 308 130 263 139 226 C 148 188 160 158 175 136 C 189 113 206 97 225 87 C 244 77 263 72 283 72 C 318 72 345 81 364 100 C 382 119 397 145 409 177 L 482 146 C 465 98 440 61 407 34 C 373 6 330 -7 276 -7 Z M 279 793 L 279 793 Z M 147 964 L 217 964 L 280 852 L 344 964 L 411 964 L 314 793 L 244 793 L 147 964 Z" unicode="Č" />
<glyph horiz-adv-x="343" d="M 22 0 L 22 0 Z M 287 120 L 334 75 C 323 56 308 38 288 21 C 268 3 239 -5 201 -5 C 172 -5 146 1 124 13 C 102 25 83 42 68 64 C 52 86 41 112 33 142 C 25 172 22 206 22 242 C 22 275 25 307 33 337 C 41 367 52 394 67 417 C 81 439 100 457 123 471 C 145 484 172 491 202 491 C 238 491 266 482 288 464 C 310 446 326 427 337 407 L 283 360 C 275 375 264 389 252 401 C 239 413 222 419 202 419 C 172 419 148 403 132 371 C 116 339 108 297 108 245 C 108 184 117 138 137 108 C 156 78 181 63 211 63 C 232 63 248 69 260 82 C 271 95 280 108 287 120 Z M 194 549 L 194 549 Z M 62 720 L 132 720 L 195 608 L 259 720 L 326 720 L 229 549 L 159 549 L 62 720 Z" unicode="č" />
<glyph horiz-adv-x="537" d="M 63 0 L 63 0 Z M 63 0 L 63 730 L 219 730 C 264 730 304 721 340 704 C 375 686 404 662 428 630 C 452 598 470 560 482 515 C 494 470 501 420 501 365 C 501 314 495 266 483 222 C 471 177 454 138 430 106 C 406 73 375 47 339 28 C 303 9 260 0 211 0 L 63 0 Z M 152 77 L 211 77 C 247 77 277 83 303 97 C 328 111 348 130 364 155 C 380 180 391 210 399 246 C 406 281 410 320 410 363 C 410 460 393 533 360 581 C 326 629 280 653 220 653 L 152 653 L 152 77 Z M 248 793 L 248 793 Z M 116 964 L 186 964 L 249 852 L 313 964 L 380 964 L 283 793 L 213 793 L 116 964 Z" unicode="Ď" />
<glyph horiz-adv-x="416" d="M 22 0 L 22 0 Z M 178 -5 C 154 -5 132 1 113 13 C 93 25 77 42 64 64 C 50 86 40 112 33 142 C 25 172 22 204 22 238 C 22 314 36 375 66 421 C 96 466 133 489 179 489 C 209 489 235 479 255 459 C 275 439 288 416 295 390 L 295 792 L 373 792 L 373 0 L 299 0 L 299 81 C 292 61 279 41 260 23 C 241 4 214 -5 178 -5 Z M 203 62 C 231 62 254 77 271 109 C 288 140 297 186 297 246 C 297 306 287 349 269 377 C 250 404 227 418 201 418 C 172 418 149 403 133 373 C 117 343 109 300 109 242 C 109 185 117 141 133 109 C 149 77 173 62 203 62 Z M 496 621 L 492 486 L 422 486 L 418 621 L 418 730 L 496 730 L 496 621 Z" unicode="ď" />
<glyph horiz-adv-x="537" d="M 20 0 L 20 0 Z M 501 363 C 501 312 495 264 483 220 C 471 176 454 137 430 105 C 406 73 375 47 339 28 C 303 9 260 0 211 0 L 63 0 L 63 328 L 20 328 L 20 396 L 63 396 L 63 730 L 219 730 C 264 730 304 721 340 704 C 375 686 404 662 428 630 C 452 598 470 560 482 515 C 494 469 501 419 501 363 Z M 152 70 L 211 70 C 247 70 277 77 303 91 C 328 105 348 124 364 150 C 380 175 391 206 399 242 C 406 278 410 317 410 361 C 410 461 393 536 360 586 C 326 635 280 660 220 660 L 152 660 L 152 396 L 298 396 L 298 328 L 152 328 L 152 70 Z" unicode="Đ" />
<glyph horiz-adv-x="416" d="M 299 81 C 292 61 279 41 260 23 C 241 4 214 -5 178 -5 C 154 -5 132 1 113 13 C 93 25 77 42 64 64 C 50 86 40 112 33 142 C 25 172 22 204 22 238 C 22 314 36 375 66 421 C 96 466 133 489 179 489 C 209 489 235 479 255 459 C 275 439 288 416 295 390 L 295 599 L 199 599 L 199 670 L 295 670 L 295 792 L 373 792 L 373 670 L 411 670 L 411 599 L 373 599 L 373 0 L 299 0 L 299 81 Z M 203 62 C 231 62 254 77 271 109 C 288 140 297 186 297 246 C 297 306 287 349 269 377 C 250 404 227 418 201 418 C 172 418 149 403 133 373 C 117 343 109 300 109 242 C 109 185 117 141 133 109 C 149 77 173 62 203 62 Z" unicode="đ" />
<glyph horiz-adv-x="391" d="M 63 0 L 63 0 Z M 378 0 L 63 0 L 63 730 L 361 730 L 361 650 L 150 650 L 150 404 L 353 404 L 353 325 L 150 325 L 150 80 L 378 80 L 378 0 Z M 212 815 L 212 815 Z M 331 815 L 93 815 L 93 881 L 331 881 L 331 815 Z" unicode="Ē" />
<glyph horiz-adv-x="381" d="M 22 0 L 22 0 Z M 198 -5 C 144 -5 102 17 70 61 C 38 105 22 165 22 241 C 22 318 38 379 71 424 C 104 468 144 491 192 491 C 247 491 289 467 318 421 C 346 374 361 308 361 224 L 104 224 C 104 172 113 132 131 104 C 149 76 175 63 207 63 C 233 63 255 69 271 82 C 287 94 300 108 311 123 L 351 79 C 338 60 319 41 295 23 C 271 4 238 -5 198 -5 Z M 105 281 L 281 281 C 280 325 272 360 258 386 C 243 411 223 424 197 424 C 170 424 149 411 133 386 C 117 361 107 326 105 281 Z M 194 571 L 194 571 Z M 313 571 L 75 571 L 75 637 L 313 637 L 313 571 Z" unicode="ē" />
<glyph horiz-adv-x="391" d="M 63 0 L 63 0 Z M 378 0 L 63 0 L 63 730 L 361 730 L 361 650 L 150 650 L 150 404 L 353 404 L 353 325 L 150 325 L 150 80 L 378 80 L 378 0 Z M 212 798 L 212 798 Z M 271 955 L 340 955 C 336 901 322 861 299 836 C 276 810 247 798 212 798 C 176 798 147 810 124 836 C 101 861 88 901 85 955 L 154 955 C 156 927 161 904 169 887 C 177 870 191 862 212 862 C 232 862 247 870 255 886 C 263 902 269 925 271 955 Z" unicode="Ĕ" />
<glyph horiz-adv-x="381" d="M 22 0 L 22 0 Z M 198 -5 C 144 -5 102 17 70 61 C 38 105 22 165 22 241 C 22 318 38 379 71 424 C 104 468 144 491 192 491 C 247 491 289 467 318 421 C 346 374 361 308 361 224 L 104 224 C 104 172 113 132 131 104 C 149 76 175 63 207 63 C 233 63 255 69 271 82 C 287 94 300 108 311 123 L 351 79 C 338 60 319 41 295 23 C 271 4 238 -5 198 -5 Z M 105 281 L 281 281 C 280 325 272 360 258 386 C 243 411 223 424 197 424 C 170 424 149 411 133 386 C 117 361 107 326 105 281 Z M 194 554 L 194 554 Z M 253 711 L 322 711 C 318 657 304 617 281 592 C 258 566 229 554 194 554 C 158 554 129 566 106 592 C 83 617 70 657 67 711 L 136 711 C 138 683 143 660 151 643 C 159 626 173 618 194 618 C 214 618 229 626 237 642 C 245 658 251 681 253 711 Z" unicode="ĕ" />
<glyph horiz-adv-x="391" d="M 63 0 L 63 0 Z M 378 0 L 63 0 L 63 730 L 361 730 L 361 650 L 150 650 L 150 404 L 353 404 L 353 325 L 150 325 L 150 80 L 378 80 L 378 0 Z M 212 805 L 212 805 Z M 251 805 L 174 805 L 174 918 L 251 919 L 251 805 Z" unicode="Ė" />
<glyph horiz-adv-x="381" d="M 22 0 L 22 0 Z M 198 -5 C 144 -5 102 17 70 61 C 38 105 22 165 22 241 C 22 318 38 379 71 424 C 104 468 144 491 192 491 C 247 491 289 467 318 421 C 346 374 361 308 361 224 L 104 224 C 104 172 113 132 131 104 C 149 76 175 63 207 63 C 233 63 255 69 271 82 C 287 94 300 108 311 123 L 351 79 C 338 60 319 41 295 23 C 271 4 238 -5 198 -5 Z M 105 281 L 281 281 C 280 325 272 360 258 386 C 243 411 223 424 197 424 C 170 424 149 411 133 386 C 117 361 107 326 105 281 Z M 194 561 L 194 561 Z M 233 561 L 156 561 L 156 674 L 233 675 L 233 561 Z" unicode="ė" />
<glyph horiz-adv-x="391" d="M 63 0 L 63 0 Z M 378 0 L 63 0 L 63 730 L 361 730 L 361 650 L 150 650 L 150 404 L 353 404 L 353 325 L 150 325 L 150 80 L 378 80 L 378 0 Z M 330 -9 L 330 -9 Z M 426 -101 L 450 -136 C 430 -156 409 -171 386 -182 C 362 -192 337 -198 309 -198 C 277 -198 253 -190 235 -176 C 217 -161 209 -143 209 -121 C 209 -96 218 -73 237 -51 C 256 -29 286 -11 327 4 L 378 4 C 348 -8 325 -23 307 -39 C 289 -55 281 -71 281 -87 C 281 -101 286 -113 296 -122 C 306 -131 319 -136 336 -136 C 354 -136 370 -132 386 -126 C 402 -119 415 -111 426 -101 Z" unicode="Ę" />
<glyph horiz-adv-x="381" d="M 22 0 L 22 0 Z M 198 -5 C 144 -5 102 17 70 61 C 38 105 22 165 22 241 C 22 318 38 379 71 424 C 104 468 144 491 192 491 C 247 491 289 467 318 421 C 346 374 361 308 361 224 L 104 224 C 104 172 113 132 131 104 C 149 76 175 63 207 63 C 233 63 255 69 271 82 C 287 94 300 108 311 123 L 351 79 C 338 60 319 41 295 23 C 271 4 238 -5 198 -5 Z M 105 281 L 281 281 C 280 325 272 360 258 386 C 243 411 223 424 197 424 C 170 424 149 411 133 386 C 117 361 107 326 105 281 Z M 207 -9 L 207 -9 Z M 303 -101 L 327 -136 C 307 -156 286 -171 263 -182 C 239 -192 214 -198 186 -198 C 154 -198 130 -190 112 -176 C 94 -161 86 -143 86 -121 C 86 -96 95 -73 114 -51 C 133 -29 163 -11 204 4 L 255 4 C 225 -8 202 -23 184 -39 C 166 -55 158 -71 158 -87 C 158 -101 163 -113 173 -122 C 183 -131 196 -136 213 -136 C 231 -136 247 -132 263 -126 C 279 -119 292 -111 303 -101 Z" unicode="ę" />
<glyph horiz-adv-x="391" d="M 63 0 L 63 0 Z M 378 0 L 63 0 L 63 730 L 361 730 L 361 650 L 150 650 L 150 404 L 353 404 L 353 325 L 150 325 L 150 80 L 378 80 L 378 0 Z M 212 793 L 212 793 Z M 80 964 L 150 964 L 213 852 L 277 964 L 344 964 L 247 793 L 177 793 L 80 964 Z" unicode="Ě" />
<glyph horiz-adv-x="381" d="M 22 0 L 22 0 Z M 198 -5 C 144 -5 102 17 70 61 C 38 105 22 165 22 241 C 22 318 38 379 71 424 C 104 468 144 491 192 491 C 247 491 289 467 318 421 C 346 374 361 308 361 224 L 104 224 C 104 172 113 132 131 104 C 149 76 175 63 207 63 C 233 63 255 69 271 82 C 287 94 300 108 311 123 L 351 79 C 338 60 319 41 295 23 C 271 4 238 -5 198 -5 Z M 105 281 L 281 281 C 280 325 272 360 258 386 C 243 411 223 424 197 424 C 170 424 149 411 133 386 C 117 361 107 326 105 281 Z M 194 549 L 194 549 Z M 62 720 L 132 720 L 195 608 L 259 720 L 326 720 L 229 549 L 159 549 L 62 720 Z" unicode="ě" />
<glyph horiz-adv-x="533" d="M 36 0 L 36 0 Z M 280 359 L 500 359 L 500 117 C 481 79 453 49 417 27 C 380 4 335 -7 281 -7 C 247 -7 215 1 185 18 C 155 34 129 58 107 90 C 85 122 67 161 55 207 C 42 253 36 306 36 365 C 36 421 41 473 53 519 C 65 565 81 604 103 636 C 124 668 150 693 180 711 C 210 728 244 737 282 737 C 338 737 381 724 412 698 C 442 672 465 642 480 606 L 405 567 C 394 591 379 612 360 630 C 341 648 316 657 284 657 C 236 657 198 633 169 585 C 140 537 126 462 126 362 C 126 262 141 188 171 140 C 201 91 239 67 283 67 C 315 67 343 73 366 85 C 388 97 406 114 419 138 L 419 284 L 280 284 L 280 359 Z M 280 793 L 280 793 Z M 412 793 L 343 793 L 280 905 L 216 793 L 148 793 L 245 964 L 315 964 L 412 793 Z" unicode="Ĝ" />
<glyph horiz-adv-x="413" d="M 23 0 L 23 0 Z M 181 4 C 133 4 95 25 66 68 C 37 111 23 170 23 244 C 23 321 38 381 68 425 C 98 468 135 490 179 490 C 209 490 234 480 254 462 C 274 443 288 422 296 399 L 296 486 L 371 486 L 371 8 C 371 -26 365 -57 355 -83 C 345 -109 331 -130 314 -147 C 297 -163 278 -176 256 -184 C 234 -192 211 -197 189 -197 C 157 -197 131 -193 111 -187 C 91 -181 75 -174 65 -168 L 89 -106 C 101 -111 114 -116 129 -120 C 144 -124 163 -126 185 -126 C 216 -126 242 -114 262 -90 C 282 -66 293 -33 293 11 L 293 97 C 286 73 273 52 254 33 C 235 13 211 4 181 4 Z M 202 69 C 230 69 252 83 270 113 C 287 142 296 188 296 250 C 296 309 286 352 266 380 C 246 407 224 421 200 421 C 172 421 149 406 133 376 C 117 346 109 303 109 247 C 109 191 116 148 132 116 C 147 84 170 69 202 69 Z M 198 549 L 198 549 Z M 330 549 L 261 549 L 198 661 L 134 549 L 66 549 L 163 720 L 233 720 L 330 549 Z" unicode="ĝ" />
<glyph horiz-adv-x="533" d="M 36 0 L 36 0 Z M 280 359 L 500 359 L 500 117 C 481 79 453 49 417 27 C 380 4 335 -7 281 -7 C 247 -7 215 1 185 18 C 155 34 129 58 107 90 C 85 122 67 161 55 207 C 42 253 36 306 36 365 C 36 421 41 473 53 519 C 65 565 81 604 103 636 C 124 668 150 693 180 711 C 210 728 244 737 282 737 C 338 737 381 724 412 698 C 442 672 465 642 480 606 L 405 567 C 394 591 379 612 360 630 C 341 648 316 657 284 657 C 236 657 198 633 169 585 C 140 537 126 462 126 362 C 126 262 141 188 171 140 C 201 91 239 67 283 67 C 315 67 343 73 366 85 C 388 97 406 114 419 138 L 419 284 L 280 284 L 280 359 Z M 280 798 L 280 798 Z M 339 955 L 408 955 C 404 901 390 861 367 836 C 344 810 315 798 280 798 C 244 798 215 810 192 836 C 169 861 156 901 153 955 L 222 955 C 224 927 229 904 237 887 C 245 870 259 862 280 862 C 300 862 315 870 323 886 C 331 902 337 925 339 955 Z" unicode="Ğ" />
<glyph horiz-adv-x="413" d="M 23 0 L 23 0 Z M 181 4 C 133 4 95 25 66 68 C 37 111 23 170 23 244 C 23 321 38 381 68 425 C 98 468 135 490 179 490 C 209 490 234 480 254 462 C 274 443 288 422 296 399 L 296 486 L 371 486 L 371 8 C 371 -26 365 -57 355 -83 C 345 -109 331 -130 314 -147 C 297 -163 278 -176 256 -184 C 234 -192 211 -197 189 -197 C 157 -197 131 -193 111 -187 C 91 -181 75 -174 65 -168 L 89 -106 C 101 -111 114 -116 129 -120 C 144 -124 163 -126 185 -126 C 216 -126 242 -114 262 -90 C 282 -66 293 -33 293 11 L 293 97 C 286 73 273 52 254 33 C 235 13 211 4 181 4 Z M 202 69 C 230 69 252 83 270 113 C 287 142 296 188 296 250 C 296 309 286 352 266 380 C 246 407 224 421 200 421 C 172 421 149 406 133 376 C 117 346 109 303 109 247 C 109 191 116 148 132 116 C 147 84 170 69 202 69 Z M 198 554 L 198 554 Z M 257 711 L 326 711 C 322 657 308 617 285 592 C 262 566 233 554 198 554 C 162 554 133 566 110 592 C 87 617 74 657 71 711 L 140 711 C 142 683 147 660 155 643 C 163 626 177 618 198 618 C 218 618 233 626 241 642 C 249 658 255 681 257 711 Z" unicode="ğ" />
<glyph horiz-adv-x="533" d="M 36 0 L 36 0 Z M 280 359 L 500 359 L 500 117 C 481 79 453 49 417 27 C 380 4 335 -7 281 -7 C 247 -7 215 1 185 18 C 155 34 129 58 107 90 C 85 122 67 161 55 207 C 42 253 36 306 36 365 C 36 421 41 473 53 519 C 65 565 81 604 103 636 C 124 668 150 693 180 711 C 210 728 244 737 282 737 C 338 737 381 724 412 698 C 442 672 465 642 480 606 L 405 567 C 394 591 379 612 360 630 C 341 648 316 657 284 657 C 236 657 198 633 169 585 C 140 537 126 462 126 362 C 126 262 141 188 171 140 C 201 91 239 67 283 67 C 315 67 343 73 366 85 C 388 97 406 114 419 138 L 419 284 L 280 284 L 280 359 Z M 280 805 L 280 805 Z M 319 805 L 242 805 L 242 918 L 319 919 L 319 805 Z" unicode="Ġ" />
<glyph horiz-adv-x="413" d="M 23 0 L 23 0 Z M 181 4 C 133 4 95 25 66 68 C 37 111 23 170 23 244 C 23 321 38 381 68 425 C 98 468 135 490 179 490 C 209 490 234 480 254 462 C 274 443 288 422 296 399 L 296 486 L 371 486 L 371 8 C 371 -26 365 -57 355 -83 C 345 -109 331 -130 314 -147 C 297 -163 278 -176 256 -184 C 234 -192 211 -197 189 -197 C 157 -197 131 -193 111 -187 C 91 -181 75 -174 65 -168 L 89 -106 C 101 -111 114 -116 129 -120 C 144 -124 163 -126 185 -126 C 216 -126 242 -114 262 -90 C 282 -66 293 -33 293 11 L 293 97 C 286 73 273 52 254 33 C 235 13 211 4 181 4 Z M 202 69 C 230 69 252 83 270 113 C 287 142 296 188 296 250 C 296 309 286 352 266 380 C 246 407 224 421 200 421 C 172 421 149 406 133 376 C 117 346 109 303 109 247 C 109 191 116 148 132 116 C 147 84 170 69 202 69 Z M 198 561 L 198 561 Z M 237 561 L 160 561 L 160 674 L 237 675 L 237 561 Z" unicode="ġ" />
<glyph horiz-adv-x="533" d="M 36 0 L 36 0 Z M 280 359 L 500 359 L 500 117 C 481 79 453 49 417 27 C 380 4 335 -7 281 -7 C 247 -7 215 1 185 18 C 155 34 129 58 107 90 C 85 122 67 161 55 207 C 42 253 36 306 36 365 C 36 421 41 473 53 519 C 65 565 81 604 103 636 C 124 668 150 693 180 711 C 210 728 244 737 282 737 C 338 737 381 724 412 698 C 442 672 465 642 480 606 L 405 567 C 394 591 379 612 360 630 C 341 648 316 657 284 657 C 236 657 198 633 169 585 C 140 537 126 462 126 362 C 126 262 141 188 171 140 C 201 91 239 67 283 67 C 315 67 343 73 366 85 C 388 97 406 114 419 138 L 419 284 L 280 284 L 280 359 Z M 273 -70 L 273 -70 Z M 351 -70 C 350 -92 347 -114 342 -138 C 336 -161 329 -184 321 -206 C 312 -228 302 -248 291 -267 C 280 -286 269 -302 259 -315 L 195 -286 C 202 -276 209 -263 217 -247 C 225 -231 232 -213 239 -194 C 245 -174 251 -154 256 -133 C 260 -111 263 -90 264 -70 L 351 -70 Z" unicode="Ģ" />
<glyph horiz-adv-x="413" d="M 23 0 L 23 0 Z M 181 4 C 133 4 95 25 66 68 C 37 111 23 170 23 244 C 23 321 38 381 68 425 C 98 468 135 490 179 490 C 209 490 234 480 254 462 C 274 443 288 422 296 399 L 296 486 L 371 486 L 371 8 C 371 -26 365 -57 355 -83 C 345 -109 331 -130 314 -147 C 297 -163 278 -176 256 -184 C 234 -192 211 -197 189 -197 C 157 -197 131 -193 111 -187 C 91 -181 75 -174 65 -168 L 89 -106 C 101 -111 114 -116 129 -120 C 144 -124 163 -126 185 -126 C 216 -126 242 -114 262 -90 C 282 -66 293 -33 293 11 L 293 97 C 286 73 273 52 254 33 C 235 13 211 4 181 4 Z M 202 69 C 230 69 252 83 270 113 C 287 142 296 188 296 250 C 296 309 286 352 266 380 C 246 407 224 421 200 421 C 172 421 149 406 133 376 C 117 346 109 303 109 247 C 109 191 116 148 132 116 C 147 84 170 69 202 69 Z" unicode="ģ" />
<glyph horiz-adv-x="536" d="M 63 0 L 63 0 Z M 473 0 L 383 0 L 383 321 L 153 321 L 153 0 L 63 0 L 63 730 L 153 730 L 153 400 L 383 400 L 383 730 L 473 730 L 473 0 Z M 267 793 L 267 793 Z M 399 793 L 330 793 L 267 905 L 203 793 L 135 793 L 232 964 L 302 964 L 399 793 Z" unicode="Ĥ" />
<glyph horiz-adv-x="397" d="M 42 0 L 42 0 Z M 355 0 L 273 0 L 273 345 C 273 370 266 389 254 401 C 241 413 224 420 203 420 C 182 420 164 413 148 400 C 132 386 125 362 125 326 L 125 0 L 42 0 L 42 792 L 120 792 L 120 419 C 126 439 139 456 157 470 C 175 484 200 491 232 491 C 268 491 298 481 321 463 C 343 444 355 413 355 369 L 355 0 Z M 202 854 L 202 854 Z M 334 854 L 265 854 L 202 966 L 138 854 L 70 854 L 167 1025 L 237 1025 L 334 854 Z" unicode="ĥ" />
<glyph horiz-adv-x="536" d="M 153 321 L 153 0 L 63 0 L 63 546 L 7 546 L 7 618 L 63 618 L 63 730 L 153 730 L 153 618 L 383 618 L 383 730 L 473 730 L 473 618 L 528 618 L 528 546 L 473 546 L 473 0 L 383 0 L 383 321 L 153 321 Z M 153 400 L 383 400 L 383 546 L 153 546 L 153 400 Z" unicode="Ħ" />
<glyph horiz-adv-x="397" d="M 125 326 L 125 0 L 42 0 L 42 599 L 10 599 L 10 670 L 42 670 L 42 792 L 120 792 L 120 670 L 220 670 L 220 599 L 120 599 L 120 419 C 126 439 139 456 157 470 C 175 484 200 491 232 491 C 268 491 298 481 321 463 C 343 444 355 413 355 369 L 355 0 L 273 0 L 273 345 C 273 370 266 389 254 401 C 241 413 224 420 203 420 C 182 420 164 413 148 400 C 132 386 125 362 125 326 Z" unicode="ħ" />
<glyph horiz-adv-x="224" d="M 0 0 L 0 0 Z M 158 0 L 67 0 L 67 730 L 158 730 L 158 0 Z M 112 800 L 112 800 Z M 198 934 L 260 934 C 260 888 253 855 241 833 C 229 811 212 800 192 800 C 174 800 159 804 147 812 C 134 820 123 827 114 834 C 105 841 96 848 87 855 C 77 862 68 866 60 866 C 51 866 43 860 37 849 C 30 838 26 823 26 804 L -35 804 C -35 849 -27 883 -11 905 C 5 927 22 938 41 938 C 57 938 70 934 82 926 C 94 918 105 910 116 902 C 124 894 133 887 141 881 C 149 875 157 872 166 872 C 174 872 182 877 188 888 C 194 898 198 914 198 934 Z" unicode="Ĩ" />
<glyph horiz-adv-x="172" d="M 0 0 L 0 0 Z M 127 0 L 45 0 L 45 486 L 127 486 L 127 0 Z M 85 556 L 85 556 Z M 171 690 L 233 690 C 233 644 226 611 214 589 C 202 567 185 556 165 556 C 147 556 132 560 120 568 C 107 576 96 583 87 590 C 78 597 69 604 60 611 C 50 618 41 622 33 622 C 24 622 16 616 10 605 C 3 594 0 579 -1 560 L -62 560 C -62 605 -54 639 -38 661 C -22 683 -4 694 14 694 C 30 694 43 690 55 682 C 67 674 78 666 89 658 C 97 650 106 643 114 637 C 122 631 130 628 139 628 C 147 628 155 633 161 644 C 167 654 171 670 171 690 Z" unicode="ĩ" />
<glyph horiz-adv-x="224" d="M 0 0 L 0 0 Z M 158 0 L 67 0 L 67 730 L 158 730 L 158 0 Z M 112 815 L 112 815 Z M 231 815 L -7 815 L -7 881 L 231 881 L 231 815 Z" unicode="Ī" />
<glyph horiz-adv-x="172" d="M 0 0 L 0 0 Z M 127 0 L 45 0 L 45 486 L 127 486 L 127 0 Z M 85 571 L 85 571 Z M 204 571 L -34 571 L -34 637 L 204 637 L 204 571 Z" unicode="ī" />
<glyph horiz-adv-x="224" d="M 0 0 L 0 0 Z M 158 0 L 67 0 L 67 730 L 158 730 L 158 0 Z M 112 798 L 112 798 Z M 171 955 L 240 955 C 236 901 222 861 199 836 C 176 810 147 798 112 798 C 76 798 47 810 24 836 C 1 861 -11 901 -15 955 L 54 955 C 56 927 61 904 69 887 C 77 870 91 862 112 862 C 132 862 147 870 155 886 C 163 902 169 925 171 955 Z" unicode="Ĭ" />
<glyph horiz-adv-x="172" d="M 0 0 L 0 0 Z M 127 0 L 45 0 L 45 486 L 127 486 L 127 0 Z M 85 554 L 85 554 Z M 144 711 L 213 711 C 209 657 195 617 172 592 C 149 566 120 554 85 554 C 49 554 20 566 -2 592 C -25 617 -38 657 -42 711 L 27 711 C 29 683 34 660 42 643 C 50 626 64 618 85 618 C 105 618 120 626 128 642 C 136 658 142 681 144 711 Z" unicode="ĭ" />
<glyph horiz-adv-x="224" d="M 0 0 L 0 0 Z M 158 0 L 67 0 L 67 730 L 158 730 L 158 0 Z M 75 -9 L 75 -9 Z M 171 -101 L 195 -136 C 175 -156 154 -171 131 -182 C 107 -192 82 -198 54 -198 C 22 -198 -1 -190 -19 -176 C -37 -161 -46 -143 -46 -121 C -46 -96 -36 -73 -17 -51 C 1 -29 31 -11 72 4 L 123 4 C 93 -8 70 -23 52 -39 C 34 -55 26 -71 26 -87 C 26 -101 31 -113 41 -122 C 51 -131 64 -136 81 -136 C 99 -136 115 -132 131 -126 C 147 -119 160 -111 171 -101 Z" unicode="Į" />
<glyph horiz-adv-x="172" d="M 0 0 L 0 0 Z M 43 575 L 43 658 L 129 658 L 129 575 L 43 575 Z M 45 0 L 45 486 L 127 486 L 127 0 L 45 0 Z M 48 -9 L 48 -9 Z M 144 -101 L 168 -136 C 148 -156 127 -171 104 -182 C 80 -192 55 -198 27 -198 C -4 -198 -28 -190 -46 -176 C -64 -161 -73 -143 -73 -121 C -73 -96 -63 -73 -44 -51 C -25 -29 4 -11 45 4 L 96 4 C 66 -8 43 -23 25 -39 C 7 -55 -1 -71 -1 -87 C -1 -101 4 -113 14 -122 C 24 -131 37 -136 54 -136 C 72 -136 88 -132 104 -126 C 120 -119 133 -111 144 -101 Z" unicode="į" />
<glyph horiz-adv-x="224" d="M 67 0 L 67 0 Z M 158 0 L 67 0 L 67 730 L 158 730 L 158 0 Z M 112 805 L 112 805 Z M 151 805 L 74 805 L 74 918 L 151 919 L 151 805 Z" unicode="İ" />
<glyph horiz-adv-x="172" d="M 127 0 L 45 0 L 45 486 L 127 486 L 127 0 Z" unicode="ı" />
<glyph horiz-adv-x="491" d="M 67 0 L 67 0 Z M 158 0 L 67 0 L 67 730 L 158 730 L 158 0 Z M 438 730 L 438 182 C 438 127 423 82 394 46 C 365 10 326 -8 276 -8 C 264 -8 252 -7 238 -5 C 224 -3 213 0 206 5 L 215 83 C 219 80 226 78 235 76 C 243 74 252 74 262 74 C 289 74 310 86 325 111 C 340 135 348 165 348 199 L 348 730 L 438 730 Z" unicode="Ĳ" />
<glyph horiz-adv-x="341" d="M 43 0 L 43 0 Z M 43 575 L 43 658 L 129 658 L 129 575 L 43 575 Z M 45 0 L 45 486 L 127 486 L 127 0 L 45 0 Z M 299 575 L 213 575 L 213 658 L 299 658 L 299 575 Z M 297 486 L 297 -85 C 297 -112 288 -135 271 -153 C 254 -171 232 -180 204 -180 C 190 -180 177 -178 165 -174 C 153 -170 145 -166 142 -163 L 164 -105 C 166 -105 170 -106 174 -108 C 178 -109 182 -110 187 -110 C 195 -110 202 -107 207 -101 C 212 -95 215 -86 215 -76 L 215 486 L 297 486 Z" unicode="ĳ" />
<glyph horiz-adv-x="286" d="M 0 0 L 0 0 Z M 227 730 L 227 182 C 227 127 212 82 183 46 C 154 10 115 -8 65 -8 C 53 -8 41 -7 27 -5 C 13 -3 2 0 -5 5 L 4 83 C 8 80 15 78 24 76 C 32 74 41 74 51 74 C 78 74 99 86 114 111 C 129 135 137 165 137 199 L 137 730 L 227 730 Z M 181 793 L 181 793 Z M 313 793 L 244 793 L 181 905 L 117 793 L 49 793 L 146 964 L 216 964 L 313 793 Z" unicode="Ĵ" />
<glyph horiz-adv-x="174" d="M 0 0 L 0 0 Z M 130 486 L 130 -86 C 130 -116 120 -140 101 -159 C 82 -178 58 -188 30 -188 C 16 -188 3 -186 -8 -182 C -20 -178 -28 -174 -31 -171 L -9 -113 C -7 -113 -4 -114 0 -116 C 4 -117 8 -118 14 -118 C 22 -118 30 -114 37 -107 C 44 -99 48 -89 48 -76 L 48 486 L 130 486 Z M 88 549 L 88 549 Z M 220 549 L 151 549 L 88 661 L 24 549 L -44 549 L 53 720 L 123 720 L 220 549 Z" unicode="ĵ" />
<glyph horiz-adv-x="486" d="M 63 0 L 63 0 Z M 496 0 L 396 0 L 190 332 L 153 285 L 153 0 L 63 0 L 63 730 L 153 730 L 153 396 L 381 730 L 476 730 L 248 401 L 496 0 Z M 248 -70 L 248 -70 Z M 326 -70 C 325 -92 322 -114 317 -138 C 311 -161 304 -184 296 -206 C 287 -228 277 -248 266 -267 C 255 -286 244 -302 234 -315 L 170 -286 C 177 -276 184 -263 192 -247 C 200 -231 207 -213 214 -194 C 220 -174 226 -154 231 -133 C 235 -111 238 -90 239 -70 L 326 -70 Z" unicode="Ķ" />
<glyph horiz-adv-x="363" d="M 42 0 L 42 0 Z M 371 1 L 284 0 L 176 207 L 124 130 L 124 0 L 42 0 L 42 792 L 120 792 L 120 228 L 276 486 L 360 486 L 230 274 L 371 1 Z M 183 -70 L 183 -70 Z M 261 -70 C 260 -92 257 -114 252 -138 C 246 -161 239 -184 231 -206 C 222 -228 212 -248 201 -267 C 190 -286 179 -302 169 -315 L 105 -286 C 112 -276 119 -263 127 -247 C 135 -231 142 -213 149 -194 C 155 -174 161 -154 166 -133 C 170 -111 173 -90 174 -70 L 261 -70 Z" unicode="ķ" />
<glyph horiz-adv-x="363" d="M 371 1 L 284 0 L 176 207 L 124 130 L 124 0 L 42 0 L 42 486 L 120 486 L 120 228 L 276 486 L 360 486 L 230 274 L 371 1 Z" unicode="ĸ" />
<glyph horiz-adv-x="357" d="M 63 0 L 63 0 Z M 351 0 L 63 0 L 63 730 L 153 730 L 153 80 L 351 80 L 351 0 Z M 210 792 L 210 792 Z M 121 792 L 205 964 L 299 964 L 201 792 L 121 792 Z" unicode="Ĺ" />
<glyph horiz-adv-x="167" d="M 42 0 L 42 0 Z M 136 862 L 136 862 Z M 47 862 L 131 1034 L 225 1034 L 127 862 L 47 862 Z M 125 800 L 125 0 L 42 0 L 42 800 L 125 800 Z" unicode="ĺ" />
<glyph horiz-adv-x="357" d="M 63 0 L 63 0 Z M 351 0 L 63 0 L 63 730 L 153 730 L 153 80 L 351 80 L 351 0 Z M 196 -70 L 196 -70 Z M 274 -70 C 273 -92 270 -114 265 -138 C 259 -161 252 -184 244 -206 C 235 -228 225 -248 214 -267 C 203 -286 192 -302 182 -315 L 118 -286 C 125 -276 132 -263 140 -247 C 148 -231 155 -213 162 -194 C 168 -174 174 -154 179 -133 C 183 -111 186 -90 187 -70 L 274 -70 Z" unicode="Ļ" />
<glyph horiz-adv-x="167" d="M 0 0 L 0 0 Z M 125 800 L 125 0 L 42 0 L 42 800 L 125 800 Z M 64 -70 L 64 -70 Z M 142 -70 C 141 -92 138 -114 133 -138 C 127 -161 120 -184 112 -206 C 103 -228 93 -248 82 -267 C 71 -286 60 -302 50 -315 L -14 -286 C -6 -276 0 -263 8 -247 C 16 -231 23 -213 30 -194 C 36 -174 42 -154 47 -133 C 51 -111 54 -90 55 -70 L 142 -70 Z" unicode="ļ" />
<glyph horiz-adv-x="357" d="M 63 0 L 63 0 Z M 351 0 L 63 0 L 63 730 L 153 730 L 153 80 L 351 80 L 351 0 Z M 366 621 L 362 486 L 292 486 L 288 621 L 288 730 L 366 730 L 366 621 Z" unicode="Ľ" />
<glyph horiz-adv-x="167" d="M 42 0 L 42 0 Z M 125 800 L 125 0 L 42 0 L 42 800 L 125 800 Z M 253 621 L 249 486 L 179 486 L 175 621 L 175 730 L 253 730 L 253 621 Z" unicode="ľ" />
<glyph horiz-adv-x="357" d="M 63 0 L 63 0 Z M 351 0 L 63 0 L 63 730 L 153 730 L 153 80 L 351 80 L 351 0 Z M 275 300 L 275 300 Z M 314 300 L 237 300 L 237 413 L 314 414 L 314 300 Z" unicode="Ŀ" />
<glyph horiz-adv-x="167" d="M 42 0 L 42 0 Z M 125 800 L 125 0 L 42 0 L 42 800 L 125 800 Z M 205 223 L 205 223 Z M 244 223 L 167 223 L 167 336 L 244 337 L 244 223 Z" unicode="ŀ" />
<glyph horiz-adv-x="357" d="M 351 74 L 351 0 L 63 0 L 63 265 L 20 246 L -9 312 L 63 343 L 63 730 L 153 730 L 153 381 L 286 438 L 315 373 L 153 303 L 153 74 L 351 74 Z" unicode="Ł" />
<glyph horiz-adv-x="167" d="M 196 328 L 135 300 L 135 0 L 53 0 L 53 262 L 17 246 L -7 304 L 53 332 L 53 792 L 135 792 L 135 369 L 171 386 L 196 328 Z" unicode="ł" />
<glyph horiz-adv-x="535" d="M 63 0 L 63 0 Z M 472 0 L 408 0 L 147 520 L 147 0 L 63 0 L 63 730 L 127 730 L 391 208 L 391 730 L 472 730 L 472 0 Z M 268 792 L 268 792 Z M 179 792 L 263 964 L 357 964 L 259 792 L 179 792 Z" unicode="Ń" />
<glyph horiz-adv-x="397" d="M 42 0 L 42 0 Z M 355 0 L 273 0 L 273 349 C 273 372 266 390 254 402 C 242 414 225 420 205 420 C 183 420 164 413 148 400 C 132 386 125 362 125 326 L 125 0 L 42 0 L 42 486 L 116 486 L 116 415 C 123 437 136 456 156 470 C 176 484 202 491 236 491 C 271 491 300 482 322 464 C 344 446 355 417 355 377 L 355 0 Z M 199 548 L 199 548 Z M 110 548 L 194 720 L 288 720 L 190 548 L 110 548 Z" unicode="ń" />
<glyph horiz-adv-x="535" d="M 63 0 L 63 0 Z M 472 0 L 408 0 L 147 520 L 147 0 L 63 0 L 63 730 L 127 730 L 391 208 L 391 730 L 472 730 L 472 0 Z M 255 -70 L 255 -70 Z M 333 -70 C 332 -92 329 -114 324 -138 C 318 -161 311 -184 303 -206 C 294 -228 284 -248 273 -267 C 262 -286 251 -302 241 -315 L 177 -286 C 184 -276 191 -263 199 -247 C 207 -231 214 -213 221 -194 C 227 -174 233 -154 238 -133 C 242 -111 245 -90 246 -70 L 333 -70 Z" unicode="Ņ" />
<glyph horiz-adv-x="397" d="M 42 0 L 42 0 Z M 355 0 L 273 0 L 273 349 C 273 372 266 390 254 402 C 242 414 225 420 205 420 C 183 420 164 413 148 400 C 132 386 125 362 125 326 L 125 0 L 42 0 L 42 486 L 116 486 L 116 415 C 123 437 136 456 156 470 C 176 484 202 491 236 491 C 271 491 300 482 322 464 C 344 446 355 417 355 377 L 355 0 Z M 184 -70 L 184 -70 Z M 262 -70 C 261 -92 258 -114 253 -138 C 247 -161 240 -184 232 -206 C 223 -228 213 -248 202 -267 C 191 -286 180 -302 170 -315 L 106 -286 C 113 -276 120 -263 128 -247 C 136 -231 143 -213 150 -194 C 156 -174 162 -154 167 -133 C 171 -111 174 -90 175 -70 L 262 -70 Z" unicode="ņ" />
<glyph horiz-adv-x="535" d="M 63 0 L 63 0 Z M 472 0 L 408 0 L 147 520 L 147 0 L 63 0 L 63 730 L 127 730 L 391 208 L 391 730 L 472 730 L 472 0 Z M 268 793 L 268 793 Z M 136 964 L 206 964 L 269 852 L 333 964 L 400 964 L 303 793 L 233 793 L 136 964 Z" unicode="Ň" />
<glyph horiz-adv-x="397" d="M 42 0 L 42 0 Z M 355 0 L 273 0 L 273 349 C 273 372 266 390 254 402 C 242 414 225 420 205 420 C 183 420 164 413 148 400 C 132 386 125 362 125 326 L 125 0 L 42 0 L 42 486 L 116 486 L 116 415 C 123 437 136 456 156 470 C 176 484 202 491 236 491 C 271 491 300 482 322 464 C 344 446 355 417 355 377 L 355 0 Z M 199 549 L 199 549 Z M 67 720 L 137 720 L 200 608 L 264 720 L 331 720 L 234 549 L 164 549 L 67 720 Z" unicode="ň" />
<glyph horiz-adv-x="535" d="M 391 730 L 472 730 L 472 -6 C 472 -60 458 -106 431 -142 C 403 -178 365 -196 315 -196 C 303 -196 290 -195 276 -193 C 262 -191 251 -187 245 -183 L 254 -105 C 258 -107 265 -109 274 -111 C 282 -113 291 -114 300 -114 C 328 -114 350 -101 366 -77 C 382 -52 391 -23 391 11 L 391 34 L 147 520 L 147 0 L 63 0 L 63 730 L 127 730 L 391 208 L 391 730 Z" unicode="Ŋ" />
<glyph horiz-adv-x="397" d="M 236 491 C 271 491 300 482 322 464 C 344 446 355 417 355 377 L 355 -66 C 355 -105 344 -137 323 -162 C 301 -186 272 -199 236 -199 C 225 -199 213 -197 201 -195 C 189 -193 180 -190 176 -187 L 193 -118 C 195 -119 199 -120 205 -121 C 210 -122 215 -123 221 -123 C 235 -123 248 -116 258 -103 C 268 -90 273 -73 273 -51 L 273 349 C 273 372 266 390 254 402 C 242 414 225 420 205 420 C 183 420 164 413 148 400 C 132 386 125 362 125 326 L 125 0 L 42 0 L 42 486 L 116 486 L 116 415 C 123 437 136 456 156 470 C 176 484 202 491 236 491 Z" unicode="ŋ" />
<glyph horiz-adv-x="571" d="M 36 0 L 36 0 Z M 288 -7 C 209 -7 147 25 103 90 C 58 154 36 248 36 371 C 36 485 58 575 103 640 C 147 704 207 737 283 737 C 363 737 425 705 469 641 C 513 577 535 485 535 365 C 535 248 512 157 466 91 C 420 25 361 -7 288 -7 Z M 286 68 C 334 68 372 92 400 142 C 428 192 443 268 443 372 C 443 468 428 541 400 589 C 371 637 332 662 283 662 C 233 662 195 638 168 590 C 141 542 128 466 128 364 C 128 261 142 186 171 139 C 200 91 238 68 286 68 Z M 284 815 L 284 815 Z M 403 815 L 165 815 L 165 881 L 403 881 L 403 815 Z" unicode="Ō" />
<glyph horiz-adv-x="394" d="M 22 0 L 22 0 Z M 198 -5 C 146 -5 104 16 71 58 C 38 100 22 162 22 242 C 22 317 37 377 69 423 C 101 468 142 491 192 491 C 246 491 290 470 323 428 C 355 386 372 328 372 255 C 372 176 356 113 325 66 C 294 18 252 -5 198 -5 Z M 198 64 C 226 64 248 78 263 108 C 278 138 286 184 286 246 C 286 307 278 351 262 379 C 246 407 224 421 195 421 C 167 421 146 406 131 378 C 115 350 108 306 108 246 C 108 180 116 133 132 105 C 148 77 170 64 198 64 Z M 197 571 L 197 571 Z M 316 571 L 78 571 L 78 637 L 316 637 L 316 571 Z" unicode="ō" />
<glyph horiz-adv-x="571" d="M 36 0 L 36 0 Z M 288 -7 C 209 -7 147 25 103 90 C 58 154 36 248 36 371 C 36 485 58 575 103 640 C 147 704 207 737 283 737 C 363 737 425 705 469 641 C 513 577 535 485 535 365 C 535 248 512 157 466 91 C 420 25 361 -7 288 -7 Z M 286 68 C 334 68 372 92 400 142 C 428 192 443 268 443 372 C 443 468 428 541 400 589 C 371 637 332 662 283 662 C 233 662 195 638 168 590 C 141 542 128 466 128 364 C 128 261 142 186 171 139 C 200 91 238 68 286 68 Z M 284 798 L 284 798 Z M 343 955 L 412 955 C 408 901 394 861 371 836 C 348 810 319 798 284 798 C 248 798 219 810 196 836 C 173 861 160 901 157 955 L 226 955 C 228 927 233 904 241 887 C 249 870 263 862 284 862 C 304 862 319 870 327 886 C 335 902 341 925 343 955 Z" unicode="Ŏ" />
<glyph horiz-adv-x="394" d="M 22 0 L 22 0 Z M 198 -5 C 146 -5 104 16 71 58 C 38 100 22 162 22 242 C 22 317 37 377 69 423 C 101 468 142 491 192 491 C 246 491 290 470 323 428 C 355 386 372 328 372 255 C 372 176 356 113 325 66 C 294 18 252 -5 198 -5 Z M 198 64 C 226 64 248 78 263 108 C 278 138 286 184 286 246 C 286 307 278 351 262 379 C 246 407 224 421 195 421 C 167 421 146 406 131 378 C 115 350 108 306 108 246 C 108 180 116 133 132 105 C 148 77 170 64 198 64 Z M 197 554 L 197 554 Z M 256 711 L 325 711 C 321 657 307 617 284 592 C 261 566 232 554 197 554 C 161 554 132 566 109 592 C 86 617 73 657 70 711 L 139 711 C 141 683 146 660 154 643 C 162 626 176 618 197 618 C 217 618 232 626 240 642 C 248 658 254 681 256 711 Z" unicode="ŏ" />
<glyph horiz-adv-x="571" d="M 36 0 L 36 0 Z M 288 -7 C 209 -7 147 25 103 90 C 58 154 36 248 36 371 C 36 485 58 575 103 640 C 147 704 207 737 283 737 C 363 737 425 705 469 641 C 513 577 535 485 535 365 C 535 248 512 157 466 91 C 420 25 361 -7 288 -7 Z M 286 68 C 334 68 372 92 400 142 C 428 192 443 268 443 372 C 443 468 428 541 400 589 C 371 637 332 662 283 662 C 233 662 195 638 168 590 C 141 542 128 466 128 364 C 128 261 142 186 171 139 C 200 91 238 68 286 68 Z M 284 792 L 284 792 Z M 128 792 L 190 951 L 278 951 L 202 792 L 128 792 Z M 290 792 L 353 951 L 441 951 L 364 792 L 290 792 Z" unicode="Ő" />
<glyph horiz-adv-x="394" d="M 22 0 L 22 0 Z M 198 -5 C 146 -5 104 16 71 58 C 38 100 22 162 22 242 C 22 317 37 377 69 423 C 101 468 142 491 192 491 C 246 491 290 470 323 428 C 355 386 372 328 372 255 C 372 176 356 113 325 66 C 294 18 252 -5 198 -5 Z M 198 64 C 226 64 248 78 263 108 C 278 138 286 184 286 246 C 286 307 278 351 262 379 C 246 407 224 421 195 421 C 167 421 146 406 131 378 C 115 350 108 306 108 246 C 108 180 116 133 132 105 C 148 77 170 64 198 64 Z M 197 548 L 197 548 Z M 41 548 L 103 707 L 191 707 L 115 548 L 41 548 Z M 203 548 L 266 707 L 354 707 L 277 548 L 203 548 Z" unicode="ő" />
<glyph horiz-adv-x="753" d="M 266 -7 C 196 -7 140 24 98 88 C 56 152 36 246 36 371 C 36 489 56 579 98 642 C 140 704 194 736 261 736 C 285 736 306 732 325 724 C 344 716 360 706 374 694 C 387 682 398 668 406 652 C 414 636 421 619 425 602 L 425 730 L 723 730 L 723 654 L 512 654 L 512 400 L 715 400 L 715 326 L 512 326 L 512 76 L 740 76 L 740 0 L 425 0 L 425 132 C 421 115 415 98 407 82 C 398 66 387 51 374 38 C 360 24 345 13 327 5 C 309 -2 288 -7 266 -7 Z M 277 58 C 322 58 358 83 385 135 C 412 187 426 266 426 372 C 426 471 412 545 385 595 C 357 645 321 670 275 670 C 227 670 191 645 165 597 C 139 549 127 471 127 365 C 127 257 140 178 168 130 C 196 82 232 58 277 58 Z" unicode="Œ" />
<glyph horiz-adv-x="642" d="M 194 -5 C 144 -5 103 16 71 58 C 38 100 22 162 22 242 C 22 317 37 377 69 423 C 101 468 142 491 192 491 C 232 491 263 478 287 453 C 311 428 324 400 327 369 C 328 384 332 399 339 414 C 345 428 354 441 365 453 C 375 464 388 473 404 480 C 419 487 436 491 455 491 C 508 491 549 467 578 421 C 606 375 621 309 621 224 L 365 224 C 365 173 374 133 392 105 C 410 76 435 62 466 62 C 492 62 514 68 531 80 C 547 92 561 106 572 121 L 613 77 C 600 58 582 40 558 22 C 534 4 502 -5 462 -5 C 420 -5 388 7 366 31 C 343 55 329 82 325 113 C 322 98 317 84 310 70 C 302 56 293 43 282 32 C 271 21 258 12 244 5 C 229 -1 212 -5 194 -5 Z M 365 281 L 543 281 C 542 325 534 360 518 386 C 502 412 480 425 454 425 C 427 425 406 412 391 386 C 376 360 367 325 365 281 Z M 198 64 C 226 64 248 78 264 108 C 279 138 287 184 287 246 C 287 306 279 351 263 379 C 247 407 224 421 195 421 C 167 421 146 406 130 378 C 114 350 107 306 107 246 C 107 180 115 133 132 105 C 148 77 170 64 198 64 Z" unicode="œ" />
<glyph horiz-adv-x="458" d="M 63 0 L 63 0 Z M 63 0 L 63 730 L 215 730 C 268 730 312 713 347 681 C 382 648 400 599 400 533 C 400 479 388 434 364 398 C 340 362 311 341 275 336 L 273 333 L 456 0 L 362 0 L 192 314 L 146 314 L 146 0 L 63 0 Z M 146 389 L 206 389 C 238 389 264 401 284 424 C 304 447 315 480 315 522 C 315 567 304 600 282 622 C 260 643 234 654 204 654 L 146 654 L 146 389 Z M 213 792 L 213 792 Z M 124 792 L 208 964 L 302 964 L 204 792 L 124 792 Z" unicode="Ŕ" />
<glyph horiz-adv-x="290" d="M 42 0 L 42 0 Z M 294 461 L 267 393 C 257 402 247 408 238 412 C 229 415 219 417 207 417 C 198 417 189 415 179 412 C 169 409 161 403 153 395 C 145 387 138 375 133 361 C 127 346 125 327 125 305 L 125 0 L 42 0 L 42 486 L 122 486 L 122 410 C 128 432 140 451 157 467 C 174 483 194 491 217 491 C 234 491 249 488 263 482 C 276 476 286 469 294 461 Z M 171 548 L 171 548 Z M 82 548 L 166 720 L 260 720 L 162 548 L 82 548 Z" unicode="ŕ" />
<glyph horiz-adv-x="458" d="M 63 0 L 63 0 Z M 63 0 L 63 730 L 215 730 C 268 730 312 713 347 681 C 382 648 400 599 400 533 C 400 479 388 434 364 398 C 340 362 311 341 275 336 L 273 333 L 456 0 L 362 0 L 192 314 L 146 314 L 146 0 L 63 0 Z M 146 389 L 206 389 C 238 389 264 401 284 424 C 304 447 315 480 315 522 C 315 567 304 600 282 622 C 260 643 234 654 204 654 L 146 654 L 146 389 Z M 224 -70 L 224 -70 Z M 302 -70 C 301 -92 298 -114 293 -138 C 287 -161 280 -184 272 -206 C 263 -228 253 -248 242 -267 C 231 -286 220 -302 210 -315 L 146 -286 C 153 -276 160 -263 168 -247 C 176 -231 183 -213 190 -194 C 196 -174 202 -154 207 -133 C 211 -111 214 -90 215 -70 L 302 -70 Z" unicode="Ŗ" />
<glyph horiz-adv-x="290" d="M 42 0 L 42 0 Z M 294 461 L 267 393 C 257 402 247 408 238 412 C 229 415 219 417 207 417 C 198 417 189 415 179 412 C 169 409 161 403 153 395 C 145 387 138 375 133 361 C 127 346 125 327 125 305 L 125 0 L 42 0 L 42 486 L 122 486 L 122 410 C 128 432 140 451 157 467 C 174 483 194 491 217 491 C 234 491 249 488 263 482 C 276 476 286 469 294 461 Z M 152 -70 L 152 -70 Z M 230 -70 C 229 -92 226 -114 221 -138 C 215 -161 208 -184 200 -206 C 191 -228 181 -248 170 -267 C 159 -286 148 -302 138 -315 L 74 -286 C 81 -276 88 -263 96 -247 C 104 -231 111 -213 118 -194 C 124 -174 130 -154 135 -133 C 139 -111 142 -90 143 -70 L 230 -70 Z" unicode="ŗ" />
<glyph horiz-adv-x="458" d="M 63 0 L 63 0 Z M 63 0 L 63 730 L 215 730 C 268 730 312 713 347 681 C 382 648 400 599 400 533 C 400 479 388 434 364 398 C 340 362 311 341 275 336 L 273 333 L 456 0 L 362 0 L 192 314 L 146 314 L 146 0 L 63 0 Z M 146 389 L 206 389 C 238 389 264 401 284 424 C 304 447 315 480 315 522 C 315 567 304 600 282 622 C 260 643 234 654 204 654 L 146 654 L 146 389 Z M 213 793 L 213 793 Z M 81 964 L 151 964 L 214 852 L 278 964 L 345 964 L 248 793 L 178 793 L 81 964 Z" unicode="Ř" />
<glyph horiz-adv-x="290" d="M 39 0 L 39 0 Z M 294 461 L 267 393 C 257 402 247 408 238 412 C 229 415 219 417 207 417 C 198 417 189 415 179 412 C 169 409 161 403 153 395 C 145 387 138 375 133 361 C 127 346 125 327 125 305 L 125 0 L 42 0 L 42 486 L 122 486 L 122 410 C 128 432 140 451 157 467 C 174 483 194 491 217 491 C 234 491 249 488 263 482 C 276 476 286 469 294 461 Z M 171 549 L 171 549 Z M 39 720 L 109 720 L 172 608 L 236 720 L 303 720 L 206 549 L 136 549 L 39 720 Z" unicode="ř" />
<glyph horiz-adv-x="406" d="M 20 0 L 20 0 Z M 204 -7 C 166 -7 131 0 101 13 C 71 26 44 49 20 81 L 73 137 C 87 112 106 93 129 81 C 152 69 175 63 198 63 C 224 63 248 73 268 93 C 288 113 299 141 299 176 C 299 211 290 240 274 263 C 258 286 227 312 181 342 C 135 371 100 402 75 434 C 50 466 38 509 38 565 C 38 591 42 615 51 637 C 60 658 72 676 88 691 C 104 705 122 717 143 725 C 164 733 186 737 210 737 C 248 737 279 730 305 717 C 331 703 351 688 366 672 L 316 614 C 304 626 289 637 271 647 C 252 656 232 661 212 661 C 188 661 166 652 148 635 C 130 618 121 593 121 561 C 121 529 128 504 144 484 C 160 464 191 439 238 410 C 290 377 327 343 349 308 C 370 272 381 230 381 180 C 381 150 376 123 366 100 C 356 76 342 57 326 41 C 310 25 291 13 270 5 C 248 -2 226 -7 204 -7 Z M 205 792 L 205 792 Z M 116 792 L 200 964 L 294 964 L 196 792 L 116 792 Z" unicode="Ś" />
<glyph horiz-adv-x="305" d="M 17 0 L 17 0 Z M 160 -5 C 128 -5 100 1 75 13 C 50 25 31 42 17 62 L 58 118 C 69 101 83 88 100 78 C 116 68 133 64 151 64 C 166 64 180 69 194 80 C 207 90 214 106 214 128 C 214 148 206 165 192 179 C 177 192 155 207 127 225 C 96 243 72 263 55 284 C 38 304 30 333 30 371 C 30 404 42 432 66 456 C 90 479 120 491 154 491 C 180 491 204 486 225 477 C 245 468 262 458 275 447 L 237 386 C 229 394 217 401 203 409 C 189 416 174 420 160 420 C 143 420 129 415 117 406 C 105 397 99 384 99 368 C 99 351 105 337 118 327 C 130 316 152 301 182 283 C 218 260 244 238 260 216 C 276 194 284 164 284 126 C 284 104 280 84 272 68 C 264 52 255 38 243 27 C 231 16 217 8 203 3 C 188 -2 174 -5 160 -5 Z M 155 548 L 155 548 Z M 66 548 L 150 720 L 244 720 L 146 548 L 66 548 Z" unicode="ś" />
<glyph horiz-adv-x="406" d="M 20 0 L 20 0 Z M 204 -7 C 166 -7 131 0 101 13 C 71 26 44 49 20 81 L 73 137 C 87 112 106 93 129 81 C 152 69 175 63 198 63 C 224 63 248 73 268 93 C 288 113 299 141 299 176 C 299 211 290 240 274 263 C 258 286 227 312 181 342 C 135 371 100 402 75 434 C 50 466 38 509 38 565 C 38 591 42 615 51 637 C 60 658 72 676 88 691 C 104 705 122 717 143 725 C 164 733 186 737 210 737 C 248 737 279 730 305 717 C 331 703 351 688 366 672 L 316 614 C 304 626 289 637 271 647 C 252 656 232 661 212 661 C 188 661 166 652 148 635 C 130 618 121 593 121 561 C 121 529 128 504 144 484 C 160 464 191 439 238 410 C 290 377 327 343 349 308 C 370 272 381 230 381 180 C 381 150 376 123 366 100 C 356 76 342 57 326 41 C 310 25 291 13 270 5 C 248 -2 226 -7 204 -7 Z M 205 793 L 205 793 Z M 337 793 L 268 793 L 205 905 L 141 793 L 73 793 L 170 964 L 240 964 L 337 793 Z" unicode="Ŝ" />
<glyph horiz-adv-x="305" d="M 17 0 L 17 0 Z M 160 -5 C 128 -5 100 1 75 13 C 50 25 31 42 17 62 L 58 118 C 69 101 83 88 100 78 C 116 68 133 64 151 64 C 166 64 180 69 194 80 C 207 90 214 106 214 128 C 214 148 206 165 192 179 C 177 192 155 207 127 225 C 96 243 72 263 55 284 C 38 304 30 333 30 371 C 30 404 42 432 66 456 C 90 479 120 491 154 491 C 180 491 204 486 225 477 C 245 468 262 458 275 447 L 237 386 C 229 394 217 401 203 409 C 189 416 174 420 160 420 C 143 420 129 415 117 406 C 105 397 99 384 99 368 C 99 351 105 337 118 327 C 130 316 152 301 182 283 C 218 260 244 238 260 216 C 276 194 284 164 284 126 C 284 104 280 84 272 68 C 264 52 255 38 243 27 C 231 16 217 8 203 3 C 188 -2 174 -5 160 -5 Z M 155 549 L 155 549 Z M 287 549 L 218 549 L 155 661 L 91 549 L 23 549 L 120 720 L 190 720 L 287 549 Z" unicode="ŝ" />
<glyph horiz-adv-x="406" d="M 20 0 L 20 0 Z M 204 -7 C 166 -7 131 0 101 13 C 71 26 44 49 20 81 L 73 137 C 87 112 106 93 129 81 C 152 69 175 63 198 63 C 224 63 248 73 268 93 C 288 113 299 141 299 176 C 299 211 290 240 274 263 C 258 286 227 312 181 342 C 135 371 100 402 75 434 C 50 466 38 509 38 565 C 38 591 42 615 51 637 C 60 658 72 676 88 691 C 104 705 122 717 143 725 C 164 733 186 737 210 737 C 248 737 279 730 305 717 C 331 703 351 688 366 672 L 316 614 C 304 626 289 637 271 647 C 252 656 232 661 212 661 C 188 661 166 652 148 635 C 130 618 121 593 121 561 C 121 529 128 504 144 484 C 160 464 191 439 238 410 C 290 377 327 343 349 308 C 370 272 381 230 381 180 C 381 150 376 123 366 100 C 356 76 342 57 326 41 C 310 25 291 13 270 5 C 248 -2 226 -7 204 -7 Z M 184 -1 L 184 -1 Z M 190 -183 C 169 -183 149 -180 129 -174 C 109 -168 93 -160 81 -150 L 97 -117 C 105 -123 115 -128 129 -134 C 143 -140 158 -143 175 -143 C 188 -143 199 -139 209 -133 C 219 -126 224 -117 224 -106 C 224 -93 219 -84 211 -78 C 202 -72 192 -70 182 -70 C 174 -70 168 -70 163 -71 C 157 -72 151 -74 145 -77 L 133 -61 L 187 11 L 231 11 L 187 -49 C 215 -44 239 -47 259 -58 C 278 -68 288 -85 288 -109 C 288 -132 278 -150 259 -163 C 239 -176 216 -183 190 -183 Z" unicode="Ş" />
<glyph horiz-adv-x="305" d="M 17 0 L 17 0 Z M 160 -5 C 128 -5 100 1 75 13 C 50 25 31 42 17 62 L 58 118 C 69 101 83 88 100 78 C 116 68 133 64 151 64 C 166 64 180 69 194 80 C 207 90 214 106 214 128 C 214 148 206 165 192 179 C 177 192 155 207 127 225 C 96 243 72 263 55 284 C 38 304 30 333 30 371 C 30 404 42 432 66 456 C 90 479 120 491 154 491 C 180 491 204 486 225 477 C 245 468 262 458 275 447 L 237 386 C 229 394 217 401 203 409 C 189 416 174 420 160 420 C 143 420 129 415 117 406 C 105 397 99 384 99 368 C 99 351 105 337 118 327 C 130 316 152 301 182 283 C 218 260 244 238 260 216 C 276 194 284 164 284 126 C 284 104 280 84 272 68 C 264 52 255 38 243 27 C 231 16 217 8 203 3 C 188 -2 174 -5 160 -5 Z M 143 -1 L 143 -1 Z M 149 -183 C 128 -183 108 -180 88 -174 C 68 -168 52 -160 40 -150 L 56 -117 C 64 -123 74 -128 88 -134 C 102 -140 117 -143 134 -143 C 147 -143 158 -139 168 -133 C 178 -126 183 -117 183 -106 C 183 -93 178 -84 170 -78 C 161 -72 151 -70 141 -70 C 133 -70 127 -70 122 -71 C 116 -72 110 -74 104 -77 L 92 -61 L 146 11 L 190 11 L 146 -49 C 174 -44 198 -47 218 -58 C 237 -68 247 -85 247 -109 C 247 -132 237 -150 218 -163 C 198 -176 175 -183 149 -183 Z" unicode="ş" />
<glyph horiz-adv-x="406" d="M 20 0 L 20 0 Z M 204 -7 C 166 -7 131 0 101 13 C 71 26 44 49 20 81 L 73 137 C 87 112 106 93 129 81 C 152 69 175 63 198 63 C 224 63 248 73 268 93 C 288 113 299 141 299 176 C 299 211 290 240 274 263 C 258 286 227 312 181 342 C 135 371 100 402 75 434 C 50 466 38 509 38 565 C 38 591 42 615 51 637 C 60 658 72 676 88 691 C 104 705 122 717 143 725 C 164 733 186 737 210 737 C 248 737 279 730 305 717 C 331 703 351 688 366 672 L 316 614 C 304 626 289 637 271 647 C 252 656 232 661 212 661 C 188 661 166 652 148 635 C 130 618 121 593 121 561 C 121 529 128 504 144 484 C 160 464 191 439 238 410 C 290 377 327 343 349 308 C 370 272 381 230 381 180 C 381 150 376 123 366 100 C 356 76 342 57 326 41 C 310 25 291 13 270 5 C 248 -2 226 -7 204 -7 Z M 205 793 L 205 793 Z M 73 964 L 143 964 L 206 852 L 270 964 L 337 964 L 240 793 L 170 793 L 73 964 Z" unicode="Š" />
<glyph horiz-adv-x="305" d="M 17 0 L 17 0 Z M 160 -5 C 128 -5 100 1 75 13 C 50 25 31 42 17 62 L 58 118 C 69 101 83 88 100 78 C 116 68 133 64 151 64 C 166 64 180 69 194 80 C 207 90 214 106 214 128 C 214 148 206 165 192 179 C 177 192 155 207 127 225 C 96 243 72 263 55 284 C 38 304 30 333 30 371 C 30 404 42 432 66 456 C 90 479 120 491 154 491 C 180 491 204 486 225 477 C 245 468 262 458 275 447 L 237 386 C 229 394 217 401 203 409 C 189 416 174 420 160 420 C 143 420 129 415 117 406 C 105 397 99 384 99 368 C 99 351 105 337 118 327 C 130 316 152 301 182 283 C 218 260 244 238 260 216 C 276 194 284 164 284 126 C 284 104 280 84 272 68 C 264 52 255 38 243 27 C 231 16 217 8 203 3 C 188 -2 174 -5 160 -5 Z M 155 549 L 155 549 Z M 23 720 L 93 720 L 156 608 L 220 720 L 287 720 L 190 549 L 120 549 L 23 720 Z" unicode="š" />
<glyph horiz-adv-x="373" d="M 7 0 L 7 0 Z M 366 650 L 231 650 L 231 0 L 141 0 L 141 650 L 7 650 L 7 730 L 366 730 L 366 650 Z M 186 793 L 186 793 Z M 54 964 L 124 964 L 187 852 L 251 964 L 318 964 L 221 793 L 151 793 L 54 964 Z" unicode="Ť" />
<glyph horiz-adv-x="214" d="M 10 0 L 10 0 Z M 196 79 L 212 15 C 207 10 199 6 189 2 C 179 -2 165 -4 149 -4 C 139 -4 128 -2 117 2 C 105 6 95 12 86 21 C 77 30 69 42 63 56 C 57 70 54 87 54 107 L 54 415 L 10 415 L 10 486 L 56 486 L 56 608 L 134 618 L 134 486 L 199 486 L 199 415 L 136 415 L 136 110 C 136 98 139 88 145 82 C 151 75 160 72 170 72 C 174 72 179 72 184 74 C 189 76 193 77 196 79 Z M 300 621 L 296 486 L 226 486 L 222 621 L 222 730 L 300 730 L 300 621 Z" unicode="ť" />
<glyph horiz-adv-x="373" d="M 346 460 L 231 460 L 231 0 L 141 0 L 141 460 L 27 460 L 27 531 L 141 531 L 141 650 L 7 650 L 7 730 L 366 730 L 366 650 L 231 650 L 231 531 L 346 531 L 346 460 Z" unicode="Ŧ" />
<glyph horiz-adv-x="214" d="M 212 15 C 207 10 199 6 189 2 C 179 -2 165 -4 149 -4 C 139 -4 128 -2 117 2 C 105 6 95 12 86 21 C 77 30 69 42 63 56 C 57 70 54 87 54 107 L 54 272 L 19 272 L 19 344 L 54 344 L 54 415 L 10 415 L 10 486 L 56 486 L 56 608 L 134 618 L 134 486 L 199 486 L 199 415 L 136 415 L 136 344 L 185 344 L 185 272 L 136 272 L 136 110 C 136 98 139 88 145 82 C 151 75 160 72 170 72 C 174 72 179 72 184 74 C 189 76 193 77 196 79 L 212 15 Z" unicode="ŧ" />
<glyph horiz-adv-x="534" d="M 59 0 L 59 0 Z M 475 730 L 475 216 C 475 176 469 141 457 113 C 445 85 430 62 411 44 C 391 26 369 13 343 5 C 317 -2 290 -7 262 -7 C 235 -7 209 -3 185 4 C 160 12 138 24 120 42 C 101 60 86 83 75 111 C 64 139 59 174 59 216 L 59 730 L 148 730 L 148 215 C 148 161 159 124 181 102 C 203 80 232 70 266 70 C 298 70 326 80 349 101 C 371 121 383 159 383 215 L 383 730 L 475 730 Z M 265 800 L 265 800 Z M 351 934 L 413 934 C 413 888 406 855 394 833 C 382 811 365 800 345 800 C 327 800 312 804 300 812 C 287 820 276 827 267 834 C 258 841 249 848 240 855 C 230 862 221 866 213 866 C 204 866 196 860 190 849 C 183 838 179 823 179 804 L 118 804 C 118 849 126 883 142 905 C 158 927 175 938 194 938 C 210 938 223 934 235 926 C 247 918 258 910 269 902 C 277 894 286 887 294 881 C 302 875 310 872 319 872 C 327 872 335 877 341 888 C 347 898 351 914 351 934 Z" unicode="Ũ" />
<glyph horiz-adv-x="397" d="M 42 0 L 42 0 Z M 42 486 L 124 486 L 124 143 C 124 114 130 93 143 80 C 155 67 173 61 196 61 C 216 61 233 68 249 82 C 264 96 272 123 272 163 L 272 486 L 354 486 L 354 0 L 278 0 L 278 66 C 271 45 258 28 238 14 C 218 0 192 -6 162 -6 C 129 -6 101 4 77 25 C 53 45 42 77 42 121 L 42 486 Z M 198 556 L 198 556 Z M 284 690 L 346 690 C 346 644 339 611 327 589 C 315 567 298 556 278 556 C 260 556 245 560 233 568 C 220 576 209 583 200 590 C 191 597 182 604 173 611 C 163 618 154 622 146 622 C 137 622 129 616 123 605 C 116 594 112 579 112 560 L 51 560 C 51 605 59 639 75 661 C 91 683 108 694 127 694 C 143 694 156 690 168 682 C 180 674 191 666 202 658 C 210 650 219 643 227 637 C 235 631 243 628 252 628 C 260 628 268 633 274 644 C 280 654 284 670 284 690 Z" unicode="ũ" />
<glyph horiz-adv-x="534" d="M 59 0 L 59 0 Z M 475 730 L 475 216 C 475 176 469 141 457 113 C 445 85 430 62 411 44 C 391 26 369 13 343 5 C 317 -2 290 -7 262 -7 C 235 -7 209 -3 185 4 C 160 12 138 24 120 42 C 101 60 86 83 75 111 C 64 139 59 174 59 216 L 59 730 L 148 730 L 148 215 C 148 161 159 124 181 102 C 203 80 232 70 266 70 C 298 70 326 80 349 101 C 371 121 383 159 383 215 L 383 730 L 475 730 Z M 265 815 L 265 815 Z M 384 815 L 146 815 L 146 881 L 384 881 L 384 815 Z" unicode="Ū" />
<glyph horiz-adv-x="397" d="M 42 0 L 42 0 Z M 42 486 L 124 486 L 124 143 C 124 114 130 93 143 80 C 155 67 173 61 196 61 C 216 61 233 68 249 82 C 264 96 272 123 272 163 L 272 486 L 354 486 L 354 0 L 278 0 L 278 66 C 271 45 258 28 238 14 C 218 0 192 -6 162 -6 C 129 -6 101 4 77 25 C 53 45 42 77 42 121 L 42 486 Z M 198 571 L 198 571 Z M 317 571 L 79 571 L 79 637 L 317 637 L 317 571 Z" unicode="ū" />
<glyph horiz-adv-x="534" d="M 59 0 L 59 0 Z M 475 730 L 475 216 C 475 176 469 141 457 113 C 445 85 430 62 411 44 C 391 26 369 13 343 5 C 317 -2 290 -7 262 -7 C 235 -7 209 -3 185 4 C 160 12 138 24 120 42 C 101 60 86 83 75 111 C 64 139 59 174 59 216 L 59 730 L 148 730 L 148 215 C 148 161 159 124 181 102 C 203 80 232 70 266 70 C 298 70 326 80 349 101 C 371 121 383 159 383 215 L 383 730 L 475 730 Z M 265 798 L 265 798 Z M 324 955 L 393 955 C 389 901 375 861 352 836 C 329 810 300 798 265 798 C 229 798 200 810 177 836 C 154 861 141 901 138 955 L 207 955 C 209 927 214 904 222 887 C 230 870 244 862 265 862 C 285 862 300 870 308 886 C 316 902 322 925 324 955 Z" unicode="Ŭ" />
<glyph horiz-adv-x="397" d="M 42 0 L 42 0 Z M 42 486 L 124 486 L 124 143 C 124 114 130 93 143 80 C 155 67 173 61 196 61 C 216 61 233 68 249 82 C 264 96 272 123 272 163 L 272 486 L 354 486 L 354 0 L 278 0 L 278 66 C 271 45 258 28 238 14 C 218 0 192 -6 162 -6 C 129 -6 101 4 77 25 C 53 45 42 77 42 121 L 42 486 Z M 198 554 L 198 554 Z M 257 711 L 326 711 C 322 657 308 617 285 592 C 262 566 233 554 198 554 C 162 554 133 566 110 592 C 87 617 74 657 71 711 L 140 711 C 142 683 147 660 155 643 C 163 626 177 618 198 618 C 218 618 233 626 241 642 C 249 658 255 681 257 711 Z" unicode="ŭ" />
<glyph horiz-adv-x="534" d="M 59 0 L 59 0 Z M 475 730 L 475 216 C 475 176 469 141 457 113 C 445 85 430 62 411 44 C 391 26 369 13 343 5 C 317 -2 290 -7 262 -7 C 235 -7 209 -3 185 4 C 160 12 138 24 120 42 C 101 60 86 83 75 111 C 64 139 59 174 59 216 L 59 730 L 148 730 L 148 215 C 148 161 159 124 181 102 C 203 80 232 70 266 70 C 298 70 326 80 349 101 C 371 121 383 159 383 215 L 383 730 L 475 730 Z M 265 782 L 265 782 Z M 265 782 C 232 782 204 793 182 815 C 159 837 148 865 148 898 C 148 930 159 958 182 981 C 204 1003 232 1015 265 1015 C 297 1015 325 1003 348 981 C 370 958 382 930 382 898 C 382 865 370 837 348 815 C 325 793 297 782 265 782 Z M 265 830 C 283 830 299 836 312 850 C 324 863 331 879 331 898 C 331 916 324 932 312 946 C 299 959 283 966 265 966 C 247 966 231 959 218 946 C 205 932 199 916 199 898 C 199 879 205 863 218 850 C 231 836 247 830 265 830 Z" unicode="Ů" />
<glyph horiz-adv-x="397" d="M 42 0 L 42 0 Z M 42 486 L 124 486 L 124 143 C 124 114 130 93 143 80 C 155 67 173 61 196 61 C 216 61 233 68 249 82 C 264 96 272 123 272 163 L 272 486 L 354 486 L 354 0 L 278 0 L 278 66 C 271 45 258 28 238 14 C 218 0 192 -6 162 -6 C 129 -6 101 4 77 25 C 53 45 42 77 42 121 L 42 486 Z M 198 538 L 198 538 Z M 198 538 C 165 538 137 549 115 571 C 92 593 81 621 81 654 C 81 686 92 714 115 737 C 137 759 165 771 198 771 C 230 771 258 759 281 737 C 303 714 315 686 315 654 C 315 621 303 593 281 571 C 258 549 230 538 198 538 Z M 198 586 C 216 586 232 592 245 606 C 257 619 264 635 264 654 C 264 672 257 688 245 702 C 232 715 216 722 198 722 C 180 722 164 715 151 702 C 138 688 132 672 132 654 C 132 635 138 619 151 606 C 164 592 180 586 198 586 Z" unicode="ů" />
<glyph horiz-adv-x="534" d="M 59 0 L 59 0 Z M 475 730 L 475 216 C 475 176 469 141 457 113 C 445 85 430 62 411 44 C 391 26 369 13 343 5 C 317 -2 290 -7 262 -7 C 235 -7 209 -3 185 4 C 160 12 138 24 120 42 C 101 60 86 83 75 111 C 64 139 59 174 59 216 L 59 730 L 148 730 L 148 215 C 148 161 159 124 181 102 C 203 80 232 70 266 70 C 298 70 326 80 349 101 C 371 121 383 159 383 215 L 383 730 L 475 730 Z M 265 792 L 265 792 Z M 109 792 L 171 951 L 259 951 L 183 792 L 109 792 Z M 271 792 L 334 951 L 422 951 L 345 792 L 271 792 Z" unicode="Ű" />
<glyph horiz-adv-x="397" d="M 42 0 L 42 0 Z M 42 486 L 124 486 L 124 143 C 124 114 130 93 143 80 C 155 67 173 61 196 61 C 216 61 233 68 249 82 C 264 96 272 123 272 163 L 272 486 L 354 486 L 354 0 L 278 0 L 278 66 C 271 45 258 28 238 14 C 218 0 192 -6 162 -6 C 129 -6 101 4 77 25 C 53 45 42 77 42 121 L 42 486 Z M 198 548 L 198 548 Z M 42 548 L 104 707 L 192 707 L 116 548 L 42 548 Z M 204 548 L 267 707 L 355 707 L 278 548 L 204 548 Z" unicode="ű" />
<glyph horiz-adv-x="534" d="M 59 0 L 59 0 Z M 475 730 L 475 216 C 475 176 469 141 457 113 C 445 85 430 62 411 44 C 391 26 369 13 343 5 C 317 -2 290 -7 262 -7 C 235 -7 209 -3 185 4 C 160 12 138 24 120 42 C 101 60 86 83 75 111 C 64 139 59 174 59 216 L 59 730 L 148 730 L 148 215 C 148 161 159 124 181 102 C 203 80 232 70 266 70 C 298 70 326 80 349 101 C 371 121 383 159 383 215 L 383 730 L 475 730 Z M 290 -9 L 290 -9 Z M 386 -101 L 410 -136 C 390 -156 369 -171 346 -182 C 322 -192 297 -198 269 -198 C 237 -198 213 -190 195 -176 C 177 -161 169 -143 169 -121 C 169 -96 178 -73 197 -51 C 216 -29 246 -11 287 4 L 338 4 C 308 -8 285 -23 267 -39 C 249 -55 241 -71 241 -87 C 241 -101 246 -113 256 -122 C 266 -131 279 -136 296 -136 C 314 -136 330 -132 346 -126 C 362 -119 375 -111 386 -101 Z" unicode="Ų" />
<glyph horiz-adv-x="397" d="M 42 0 L 42 0 Z M 42 486 L 124 486 L 124 143 C 124 114 130 93 143 80 C 155 67 173 61 196 61 C 216 61 233 68 249 82 C 264 96 272 123 272 163 L 272 486 L 354 486 L 354 0 L 278 0 L 278 66 C 271 45 258 28 238 14 C 218 0 192 -6 162 -6 C 129 -6 101 4 77 25 C 53 45 42 77 42 121 L 42 486 Z M 281 -9 L 281 -9 Z M 377 -101 L 401 -136 C 381 -156 360 -171 337 -182 C 313 -192 288 -198 260 -198 C 228 -198 204 -190 186 -176 C 168 -161 160 -143 160 -121 C 160 -96 169 -73 188 -51 C 207 -29 237 -11 278 4 L 329 4 C 299 -8 276 -23 258 -39 C 240 -55 232 -71 232 -87 C 232 -101 237 -113 247 -122 C 257 -131 270 -136 287 -136 C 305 -136 321 -132 337 -126 C 353 -119 366 -111 377 -101 Z" unicode="ų" />
<glyph horiz-adv-x="684" d="M 6 0 L 6 0 Z M 664 730 L 515 -3 L 453 -3 L 335 552 L 216 -3 L 154 -3 L 6 730 L 91 730 L 194 177 L 306 730 L 373 730 L 483 177 L 588 730 L 664 730 Z M 340 793 L 340 793 Z M 472 793 L 403 793 L 340 905 L 276 793 L 208 793 L 305 964 L 375 964 L 472 793 Z" unicode="Ŵ" />
<glyph horiz-adv-x="536" d="M 1 0 L 1 0 Z M 347 -2 L 269 299 L 188 -2 L 122 -2 L 1 486 L 78 486 L 163 127 L 240 424 L 302 424 L 376 128 L 464 486 L 535 486 L 411 -2 L 347 -2 Z M 268 549 L 268 549 Z M 400 549 L 331 549 L 268 661 L 204 549 L 136 549 L 233 720 L 303 720 L 400 549 Z" unicode="ŵ" />
<glyph horiz-adv-x="457" d="M 0 0 L 0 0 Z M 459 730 L 271 307 L 271 0 L 181 0 L 181 308 L -1 730 L 97 730 L 232 401 L 373 730 L 459 730 Z M 232 793 L 232 793 Z M 364 793 L 295 793 L 232 905 L 168 793 L 100 793 L 197 964 L 267 964 L 364 793 Z" unicode="Ŷ" />
<glyph horiz-adv-x="331" d="M 0 0 L 0 0 Z M 334 486 L 167 -105 C 158 -136 143 -160 121 -176 C 99 -192 76 -200 50 -200 C 31 -200 15 -198 2 -194 C -10 -190 -19 -186 -25 -182 L 5 -119 C 7 -121 13 -123 22 -126 C 30 -128 39 -130 48 -130 C 58 -130 69 -125 80 -115 C 90 -105 98 -91 103 -73 L 132 38 L -3 486 L 82 486 L 172 155 L 255 486 L 334 486 Z M 169 549 L 169 549 Z M 301 549 L 232 549 L 169 661 L 105 549 L 37 549 L 134 720 L 204 720 L 301 549 Z" unicode="ŷ" />
<glyph horiz-adv-x="457" d="M 0 0 L 0 0 Z M 459 730 L 271 307 L 271 0 L 181 0 L 181 308 L -1 730 L 97 730 L 232 401 L 373 730 L 459 730 Z M 232 793 L 232 793 Z M 339 793 L 272 793 L 272 951 L 339 951 L 339 793 Z M 192 793 L 125 793 L 125 951 L 192 951 L 192 793 Z" unicode="Ÿ" />
<glyph horiz-adv-x="418" d="M 15 0 L 15 0 Z M 391 730 L 391 684 L 124 78 L 402 78 L 402 0 L 15 0 L 15 44 L 284 650 L 45 650 L 45 730 L 391 730 Z M 219 792 L 219 792 Z M 130 792 L 214 964 L 308 964 L 210 792 L 130 792 Z" unicode="Ź" />
<glyph horiz-adv-x="316" d="M 11 0 L 11 0 Z M 299 486 L 299 448 L 115 71 L 305 71 L 305 0 L 11 0 L 11 32 L 201 415 L 23 415 L 23 486 L 299 486 Z M 165 548 L 165 548 Z M 76 548 L 160 720 L 254 720 L 156 548 L 76 548 Z" unicode="ź" />
<glyph horiz-adv-x="418" d="M 15 0 L 15 0 Z M 391 730 L 391 684 L 124 78 L 402 78 L 402 0 L 15 0 L 15 44 L 284 650 L 45 650 L 45 730 L 391 730 Z M 219 805 L 219 805 Z M 258 805 L 181 805 L 181 918 L 258 919 L 258 805 Z" unicode="Ż" />
<glyph horiz-adv-x="316" d="M 11 0 L 11 0 Z M 299 486 L 299 448 L 115 71 L 305 71 L 305 0 L 11 0 L 11 32 L 201 415 L 23 415 L 23 486 L 299 486 Z M 165 561 L 165 561 Z M 204 561 L 127 561 L 127 674 L 204 675 L 204 561 Z" unicode="ż" />
<glyph horiz-adv-x="418" d="M 15 0 L 15 0 Z M 391 730 L 391 684 L 124 78 L 402 78 L 402 0 L 15 0 L 15 44 L 284 650 L 45 650 L 45 730 L 391 730 Z M 219 793 L 219 793 Z M 87 964 L 157 964 L 220 852 L 284 964 L 351 964 L 254 793 L 184 793 L 87 964 Z" unicode="Ž" />
<glyph horiz-adv-x="316" d="M 11 0 L 11 0 Z M 299 486 L 299 448 L 115 71 L 305 71 L 305 0 L 11 0 L 11 32 L 201 415 L 23 415 L 23 486 L 299 486 Z M 165 549 L 165 549 Z M 33 720 L 103 720 L 166 608 L 230 720 L 297 720 L 200 549 L 130 549 L 33 720 Z" unicode="ž" />
<glyph horiz-adv-x="353" d="M 179 -62 C 176 -94 163 -121 140 -144 C 116 -167 88 -179 54 -179 C 37 -179 21 -177 5 -175 C -10 -172 -22 -169 -30 -166 L -22 -104 C -17 -104 -10 -105 0 -107 C 9 -109 18 -110 27 -110 C 47 -110 65 -103 81 -89 C 97 -75 106 -56 109 -31 L 141 331 L 45 331 L 45 403 L 147 403 L 167 630 C 170 666 184 693 208 712 C 232 730 256 740 281 740 C 293 740 306 739 318 738 C 330 737 337 736 340 736 L 333 663 C 331 663 327 664 321 665 C 315 665 309 666 303 666 C 284 666 268 659 256 647 C 244 634 237 614 235 588 L 219 403 L 324 403 L 324 331 L 213 331 L 179 -62 Z" unicode="ƒ" />
<glyph horiz-adv-x="406" d="M 20 0 L 20 0 Z M 204 -7 C 166 -7 131 0 101 13 C 71 26 44 49 20 81 L 73 137 C 87 112 106 93 129 81 C 152 69 175 63 198 63 C 224 63 248 73 268 93 C 288 113 299 141 299 176 C 299 211 290 240 274 263 C 258 286 227 312 181 342 C 135 371 100 402 75 434 C 50 466 38 509 38 565 C 38 591 42 615 51 637 C 60 658 72 676 88 691 C 104 705 122 717 143 725 C 164 733 186 737 210 737 C 248 737 279 730 305 717 C 331 703 351 688 366 672 L 316 614 C 304 626 289 637 271 647 C 252 656 232 661 212 661 C 188 661 166 652 148 635 C 130 618 121 593 121 561 C 121 529 128 504 144 484 C 160 464 191 439 238 410 C 290 377 327 343 349 308 C 370 272 381 230 381 180 C 381 150 376 123 366 100 C 356 76 342 57 326 41 C 310 25 291 13 270 5 C 248 -2 226 -7 204 -7 Z M 184 -71 L 184 -71 Z M 262 -71 C 261 -93 258 -115 253 -139 C 247 -162 240 -185 232 -207 C 223 -229 213 -249 202 -268 C 191 -287 180 -303 170 -316 L 106 -287 C 113 -277 120 -264 128 -248 C 136 -232 143 -214 150 -195 C 156 -175 162 -155 167 -134 C 171 -112 174 -91 175 -71 L 262 -71 Z" unicode="Ș" />
<glyph horiz-adv-x="305" d="M 17 0 L 17 0 Z M 160 -5 C 128 -5 100 1 75 13 C 50 25 31 42 17 62 L 58 118 C 69 101 83 88 100 78 C 116 68 133 64 151 64 C 166 64 180 69 194 80 C 207 90 214 106 214 128 C 214 148 206 165 192 179 C 177 192 155 207 127 225 C 96 243 72 263 55 284 C 38 304 30 333 30 371 C 30 404 42 432 66 456 C 90 479 120 491 154 491 C 180 491 204 486 225 477 C 245 468 262 458 275 447 L 237 386 C 229 394 217 401 203 409 C 189 416 174 420 160 420 C 143 420 129 415 117 406 C 105 397 99 384 99 368 C 99 351 105 337 118 327 C 130 316 152 301 182 283 C 218 260 244 238 260 216 C 276 194 284 164 284 126 C 284 104 280 84 272 68 C 264 52 255 38 243 27 C 231 16 217 8 203 3 C 188 -2 174 -5 160 -5 Z M 143 -71 L 143 -71 Z M 221 -71 C 220 -93 217 -115 212 -139 C 206 -162 199 -185 191 -207 C 182 -229 172 -249 161 -268 C 150 -287 139 -303 129 -316 L 65 -287 C 72 -277 79 -264 87 -248 C 95 -232 102 -214 109 -195 C 115 -175 121 -155 126 -134 C 130 -112 133 -91 134 -71 L 221 -71 Z" unicode="ș" />
<glyph horiz-adv-x="373" d="M 7 0 L 7 0 Z M 366 650 L 231 650 L 231 0 L 141 0 L 141 650 L 7 650 L 7 730 L 366 730 L 366 650 Z M 165 -70 L 165 -70 Z M 243 -70 C 242 -92 239 -114 234 -138 C 228 -161 221 -184 213 -206 C 204 -228 194 -248 183 -267 C 172 -286 161 -302 151 -315 L 87 -286 C 94 -276 101 -263 109 -247 C 117 -231 124 -213 131 -194 C 137 -174 143 -154 148 -133 C 152 -111 155 -90 156 -70 L 243 -70 Z" unicode="Ț" />
<glyph horiz-adv-x="214" d="M 10 0 L 10 0 Z M 196 79 L 212 15 C 207 10 199 6 189 2 C 179 -2 165 -4 149 -4 C 139 -4 128 -2 117 2 C 105 6 95 12 86 21 C 77 30 69 42 63 56 C 57 70 54 87 54 107 L 54 415 L 10 415 L 10 486 L 56 486 L 56 608 L 134 618 L 134 486 L 199 486 L 199 415 L 136 415 L 136 110 C 136 98 139 88 145 82 C 151 75 160 72 170 72 C 174 72 179 72 184 74 C 189 76 193 77 196 79 Z M 107 -70 L 107 -70 Z M 185 -70 C 184 -92 181 -114 176 -138 C 170 -161 163 -184 155 -206 C 146 -228 136 -248 125 -267 C 114 -286 103 -302 93 -315 L 29 -286 C 36 -276 43 -263 51 -247 C 59 -231 66 -213 73 -194 C 79 -174 85 -154 90 -133 C 94 -111 97 -90 98 -70 L 185 -70 Z" unicode="ț" />
<glyph horiz-adv-x="174" d="M 130 486 L 130 -86 C 130 -116 120 -140 101 -159 C 82 -178 58 -188 30 -188 C 16 -188 3 -186 -8 -182 C -20 -178 -28 -174 -31 -171 L -9 -113 C -7 -113 -4 -114 0 -116 C 4 -117 8 -118 14 -118 C 22 -118 30 -114 37 -107 C 44 -99 48 -89 48 -76 L 48 486 L 130 486 Z" unicode="ȷ" />
<glyph horiz-adv-x="500" d="M 382 549 L 313 549 L 250 661 L 186 549 L 118 549 L 215 720 L 285 720 L 382 549 Z" unicode="ˆ" />
<glyph horiz-adv-x="500" d="M 118 720 L 188 720 L 251 608 L 315 720 L 382 720 L 285 549 L 215 549 L 118 720 Z" unicode="ˇ" />
<glyph horiz-adv-x="500" d="M 309 711 L 378 711 C 374 657 360 617 337 592 C 314 566 285 554 250 554 C 214 554 185 566 162 592 C 139 617 126 657 123 711 L 192 711 C 194 683 199 660 207 643 C 215 626 229 618 250 618 C 270 618 285 626 293 642 C 301 658 307 681 309 711 Z" unicode="˘" />
<glyph horiz-adv-x="500" d="M 289 561 L 212 561 L 212 674 L 289 675 L 289 561 Z" unicode="˙" />
<glyph horiz-adv-x="500" d="M 250 538 C 217 538 189 549 167 571 C 144 593 133 621 133 654 C 133 686 144 714 167 737 C 189 759 217 771 250 771 C 282 771 310 759 333 737 C 355 714 367 686 367 654 C 367 621 355 593 333 571 C 310 549 282 538 250 538 Z M 250 586 C 268 586 284 592 297 606 C 309 619 316 635 316 654 C 316 672 309 688 297 702 C 284 715 268 722 250 722 C 232 722 216 715 203 702 C 190 688 184 672 184 654 C 184 635 190 619 203 606 C 216 592 232 586 250 586 Z" unicode="˚" />
<glyph horiz-adv-x="500" d="M 352 -92 L 376 -127 C 356 -147 335 -162 312 -173 C 288 -183 263 -189 235 -189 C 203 -189 179 -181 161 -167 C 143 -152 135 -134 135 -112 C 135 -87 144 -64 163 -42 C 182 -20 212 -2 253 13 L 304 13 C 274 0 251 -14 233 -30 C 215 -46 207 -62 207 -78 C 207 -92 212 -104 222 -113 C 232 -122 245 -127 262 -127 C 280 -127 296 -123 312 -117 C 328 -110 341 -102 352 -92 Z" unicode="˛" />
<glyph horiz-adv-x="500" d="M 339 690 L 401 690 C 401 644 394 611 382 589 C 370 567 353 556 333 556 C 315 556 300 560 288 568 C 275 576 264 583 255 590 C 246 597 237 604 228 611 C 218 618 209 622 201 622 C 192 622 184 616 178 605 C 171 594 167 579 167 560 L 106 560 C 106 605 114 639 130 661 C 146 683 163 694 182 694 C 198 694 211 690 223 682 C 235 674 246 666 257 658 C 265 650 274 643 282 637 C 290 631 298 628 307 628 C 315 628 323 633 329 644 C 335 654 339 670 339 690 Z" unicode="˜" />
<glyph horiz-adv-x="500" d="M 111 548 L 173 707 L 261 707 L 185 548 L 111 548 Z M 273 548 L 336 707 L 424 707 L 347 548 L 273 548 Z" unicode="˝" />
<glyph horiz-adv-x="0" d="M 0 548 L 0 548 Z M 89 548 L 9 548 L -89 720 L 5 720 L 89 548 Z" unicode="̀" />
<glyph horiz-adv-x="0" d="M 0 548 L 0 548 Z M -89 548 L -5 720 L 89 720 L -9 548 L -89 548 Z" unicode="́" />
<glyph horiz-adv-x="0" d="M 0 549 L 0 549 Z M 132 549 L 63 549 L 0 661 L -64 549 L -132 549 L -35 720 L 35 720 L 132 549 Z" unicode="̂" />
<glyph horiz-adv-x="0" d="M 0 556 L 0 556 Z M 86 690 L 148 690 C 148 644 141 611 129 589 C 117 567 100 556 80 556 C 62 556 47 560 35 568 C 22 576 11 583 2 590 C -6 597 -15 604 -25 611 C -34 618 -43 622 -52 622 C -60 622 -68 616 -75 605 C -81 594 -85 579 -86 560 L -147 560 C -147 605 -139 639 -123 661 C -107 683 -89 694 -71 694 C -55 694 -41 690 -29 682 C -17 674 -6 666 4 658 C 12 650 21 643 29 637 C 37 631 45 628 54 628 C 62 628 70 633 76 644 C 82 654 86 670 86 690 Z" unicode="̃" />
<glyph horiz-adv-x="0" d="M 0 571 L 0 571 Z M 119 571 L -119 571 L -119 637 L 119 637 L 119 571 Z" unicode="̄" />
<glyph horiz-adv-x="0" d="M 0 554 L 0 554 Z M 59 711 L 128 711 C 124 657 110 617 87 592 C 64 566 35 554 0 554 C -35 554 -64 566 -87 592 C -110 617 -123 657 -127 711 L -58 711 C -56 683 -51 660 -43 643 C -35 626 -20 618 0 618 C 20 618 35 626 43 642 C 51 658 57 681 59 711 Z" unicode="̆" />
<glyph horiz-adv-x="0" d="M 0 561 L 0 561 Z M 39 561 L -38 561 L -38 674 L 39 675 L 39 561 Z" unicode="̇" />
<glyph horiz-adv-x="0" d="M 0 549 L 0 549 Z M 107 549 L 40 549 L 40 707 L 107 707 L 107 549 Z M -40 549 L -107 549 L -107 707 L -40 707 L -40 549 Z" unicode="̈" />
<glyph horiz-adv-x="0" d="M 0 538 L 0 538 Z M 0 538 C -32 538 -60 549 -83 571 C -105 593 -117 621 -117 654 C -117 686 -105 714 -83 737 C -60 759 -32 771 0 771 C 32 771 60 759 83 737 C 105 714 117 686 117 654 C 117 621 105 593 83 571 C 60 549 32 538 0 538 Z M 0 586 C 18 586 34 592 47 606 C 59 619 66 635 66 654 C 66 672 59 688 47 702 C 34 715 18 722 0 722 C -18 722 -33 715 -46 702 C -59 688 -66 672 -66 654 C -66 635 -59 619 -46 606 C -33 592 -18 586 0 586 Z" unicode="̊" />
<glyph horiz-adv-x="0" d="M 0 548 L 0 548 Z M -156 548 L -94 707 L -6 707 L -82 548 L -156 548 Z M 6 548 L 69 707 L 157 707 L 80 548 L 6 548 Z" unicode="̋" />
<glyph horiz-adv-x="0" d="M 0 549 L 0 549 Z M -132 720 L -62 720 L 1 608 L 65 720 L 132 720 L 35 549 L -35 549 L -132 720 Z" unicode="̌" />
<glyph horiz-adv-x="0" d="M 0 -70 L 0 -70 Z M 78 -70 C 77 -92 74 -114 69 -138 C 63 -161 56 -184 48 -206 C 39 -228 29 -248 18 -267 C 7 -286 -3 -302 -14 -315 L -78 -286 C -70 -276 -63 -263 -55 -247 C -47 -231 -40 -213 -34 -194 C -27 -174 -21 -154 -17 -133 C -12 -111 -9 -90 -9 -70 L 78 -70 Z" unicode="̦" />
<glyph horiz-adv-x="0" d="M 0 0 L 0 0 Z M 6 -182 C -14 -182 -34 -179 -54 -173 C -74 -167 -90 -159 -103 -149 L -87 -116 C -79 -122 -68 -127 -54 -133 C -40 -139 -25 -142 -9 -142 C 4 -142 15 -138 25 -132 C 35 -125 40 -116 40 -105 C 40 -92 35 -83 27 -77 C 18 -71 8 -69 -2 -69 C -9 -69 -15 -69 -21 -70 C -26 -71 -32 -73 -39 -76 L -51 -60 L 3 12 L 47 12 L 3 -48 C 31 -43 55 -46 75 -57 C 94 -67 104 -84 104 -108 C 104 -131 94 -149 75 -162 C 55 -175 32 -182 6 -182 Z" unicode="̧" />
<glyph horiz-adv-x="0" d="M 0 0 L 0 0 Z M 96 -92 L 120 -127 C 100 -147 79 -162 56 -173 C 32 -183 7 -189 -21 -189 C -52 -189 -76 -181 -94 -167 C -112 -152 -121 -134 -121 -112 C -121 -87 -111 -64 -92 -42 C -73 -20 -43 -2 -3 13 L 48 13 C 18 0 -4 -14 -22 -30 C -40 -46 -49 -62 -49 -78 C -49 -92 -44 -104 -34 -113 C -24 -122 -10 -127 6 -127 C 24 -127 40 -123 56 -117 C 72 -110 85 -102 96 -92 Z" unicode="̨" />
<glyph horiz-adv-x="563" d="M 1 0 L 1 0 Z M 542 0 L 1 0 L 259 730 L 285 730 L 542 0 Z M 436 63 L 270 580 L 105 63 L 436 63 Z" unicode="Δ" />
<glyph horiz-adv-x="724" d="M 26 0 L 26 0 Z M 35 0 L 35 77 L 243 77 L 243 150 C 209 158 179 172 152 192 C 125 212 102 235 84 261 C 65 287 51 315 41 347 C 31 378 26 410 26 444 C 26 486 33 525 48 562 C 62 599 83 631 111 658 C 139 685 173 706 213 722 C 253 738 298 746 349 746 C 401 746 448 738 489 722 C 530 706 565 684 593 657 C 621 630 642 598 657 561 C 671 524 679 485 679 444 C 679 410 674 378 665 347 C 656 315 643 287 625 261 C 607 235 584 212 556 193 C 528 173 497 159 461 150 L 461 77 L 669 77 L 669 0 L 400 0 L 400 195 C 430 203 457 215 481 232 C 505 249 524 269 540 291 C 556 313 568 337 576 363 C 584 389 588 414 588 440 C 588 474 582 505 571 534 C 559 563 543 588 522 609 C 501 630 476 646 447 658 C 417 670 385 676 349 676 C 314 676 282 670 254 658 C 225 646 200 630 180 609 C 160 588 144 563 133 534 C 122 504 117 472 117 438 C 117 413 120 388 128 363 C 136 337 147 314 163 292 C 179 270 198 251 222 234 C 246 216 273 203 305 195 L 305 0 L 35 0 Z" unicode="Ω" />
<glyph horiz-adv-x="591" d="M 72 0 L 72 0 Z M 72 -109 L 72 508 L 154 508 L 154 161 C 154 145 157 130 165 118 C 172 105 182 94 194 86 C 206 77 219 70 235 65 C 251 60 267 58 284 58 C 301 58 318 60 336 66 C 354 71 370 79 384 89 C 398 99 409 112 418 128 C 427 144 432 162 432 184 L 432 508 L 514 508 L 514 0 L 438 0 L 438 103 C 433 89 425 75 414 62 C 402 48 389 37 374 27 C 358 17 342 9 324 3 C 306 -3 288 -6 270 -7 C 244 -7 220 -1 196 9 C 172 20 156 36 148 56 L 148 -109 L 72 -109 Z" unicode="μ" />
<glyph horiz-adv-x="523" d="M 167 443 L 167 0 L 85 0 L 85 443 L 15 443 L 15 508 L 508 508 L 508 443 L 433 443 L 433 0 L 350 0 L 350 443 L 167 443 Z" unicode="π" />
<glyph horiz-adv-x="684" d="M 6 0 L 6 0 Z M 664 730 L 515 -3 L 453 -3 L 335 552 L 216 -3 L 154 -3 L 6 730 L 91 730 L 194 177 L 306 730 L 373 730 L 483 177 L 588 730 L 664 730 Z M 340 792 L 340 792 Z M 429 792 L 349 792 L 251 964 L 345 964 L 429 792 Z" unicode="Ẁ" />
<glyph horiz-adv-x="536" d="M 1 0 L 1 0 Z M 347 -2 L 269 299 L 188 -2 L 122 -2 L 1 486 L 78 486 L 163 127 L 240 424 L 302 424 L 376 128 L 464 486 L 535 486 L 411 -2 L 347 -2 Z M 268 548 L 268 548 Z M 357 548 L 277 548 L 179 720 L 273 720 L 357 548 Z" unicode="ẁ" />
<glyph horiz-adv-x="684" d="M 6 0 L 6 0 Z M 664 730 L 515 -3 L 453 -3 L 335 552 L 216 -3 L 154 -3 L 6 730 L 91 730 L 194 177 L 306 730 L 373 730 L 483 177 L 588 730 L 664 730 Z M 340 792 L 340 792 Z M 251 792 L 335 964 L 429 964 L 331 792 L 251 792 Z" unicode="Ẃ" />
<glyph horiz-adv-x="536" d="M 1 0 L 1 0 Z M 347 -2 L 269 299 L 188 -2 L 122 -2 L 1 486 L 78 486 L 163 127 L 240 424 L 302 424 L 376 128 L 464 486 L 535 486 L 411 -2 L 347 -2 Z M 268 548 L 268 548 Z M 179 548 L 263 720 L 357 720 L 259 548 L 179 548 Z" unicode="ẃ" />
<glyph horiz-adv-x="684" d="M 6 0 L 6 0 Z M 664 730 L 515 -3 L 453 -3 L 335 552 L 216 -3 L 154 -3 L 6 730 L 91 730 L 194 177 L 306 730 L 373 730 L 483 177 L 588 730 L 664 730 Z M 340 793 L 340 793 Z M 447 793 L 380 793 L 380 951 L 447 951 L 447 793 Z M 300 793 L 233 793 L 233 951 L 300 951 L 300 793 Z" unicode="Ẅ" />
<glyph horiz-adv-x="536" d="M 1 0 L 1 0 Z M 347 -2 L 269 299 L 188 -2 L 122 -2 L 1 486 L 78 486 L 163 127 L 240 424 L 302 424 L 376 128 L 464 486 L 535 486 L 411 -2 L 347 -2 Z M 268 549 L 268 549 Z M 375 549 L 308 549 L 308 707 L 375 707 L 375 549 Z M 228 549 L 161 549 L 161 707 L 228 707 L 228 549 Z" unicode="ẅ" />
<glyph horiz-adv-x="457" d="M 0 0 L 0 0 Z M 459 730 L 271 307 L 271 0 L 181 0 L 181 308 L -1 730 L 97 730 L 232 401 L 373 730 L 459 730 Z M 232 792 L 232 792 Z M 321 792 L 241 792 L 143 964 L 237 964 L 321 792 Z" unicode="Ỳ" />
<glyph horiz-adv-x="331" d="M 0 0 L 0 0 Z M 334 486 L 167 -105 C 158 -136 143 -160 121 -176 C 99 -192 76 -200 50 -200 C 31 -200 15 -198 2 -194 C -10 -190 -19 -186 -25 -182 L 5 -119 C 7 -121 13 -123 22 -126 C 30 -128 39 -130 48 -130 C 58 -130 69 -125 80 -115 C 90 -105 98 -91 103 -73 L 132 38 L -3 486 L 82 486 L 172 155 L 255 486 L 334 486 Z M 169 548 L 169 548 Z M 258 548 L 178 548 L 80 720 L 174 720 L 258 548 Z" unicode="ỳ" />
<glyph horiz-adv-x="460" d="M 420 221 L 41 221 L 41 294 L 420 294 L 420 221 Z" unicode="–" />
<glyph horiz-adv-x="645" d="M 605 221 L 41 221 L 41 294 L 605 294 L 605 221 Z" unicode="—" />
<glyph horiz-adv-x="221" d="M 41 507 L 41 514 C 41 558 47 597 59 633 C 71 669 91 703 120 737 L 198 731 C 178 706 160 676 146 642 C 132 607 125 565 125 515 L 125 507 L 41 507 Z" unicode="‘" />
<glyph horiz-adv-x="221" d="M 180 737 L 180 730 C 180 686 174 646 162 610 C 150 574 129 540 101 507 L 23 513 C 43 538 60 568 74 603 C 88 637 96 679 96 729 L 96 737 L 180 737 Z" unicode="’" />
<glyph horiz-adv-x="222" d="M 178 111 L 178 104 C 178 60 172 20 160 -15 C 148 -51 128 -85 100 -119 L 22 -113 C 42 -88 59 -58 73 -23 C 87 11 94 53 94 103 L 94 111 L 178 111 Z" unicode="‚" />
<glyph horiz-adv-x="364" d="M 193 507 L 193 514 C 193 553 199 591 213 627 C 227 663 249 699 281 737 L 356 731 C 338 711 319 682 301 645 C 282 607 273 564 273 515 L 273 507 L 193 507 Z M 43 507 L 43 514 C 43 553 50 591 64 627 C 78 663 100 699 131 737 L 206 731 C 188 711 170 683 151 645 C 132 607 123 564 123 515 L 123 507 L 43 507 Z" unicode="“" />
<glyph horiz-adv-x="364" d="M 176 737 L 176 730 C 176 686 169 646 157 610 C 145 574 125 540 98 507 L 23 513 C 43 538 61 568 75 603 C 89 637 96 679 96 729 L 96 737 L 176 737 Z M 321 737 L 321 730 C 321 686 314 646 301 610 C 288 574 268 540 242 507 L 167 513 C 187 538 204 568 218 603 C 232 637 240 679 240 729 L 240 737 L 321 737 Z" unicode="”" />
<glyph horiz-adv-x="367" d="M 175 111 L 175 104 C 175 60 169 20 157 -15 C 145 -51 125 -85 97 -119 L 22 -113 C 42 -88 60 -58 74 -23 C 88 11 95 53 95 103 L 95 111 L 175 111 Z M 323 111 L 323 104 C 323 60 316 20 304 -15 C 292 -51 272 -85 246 -119 L 171 -113 C 191 -88 208 -58 222 -23 C 236 11 243 53 243 103 L 243 111 L 323 111 Z" unicode="„" />
<glyph horiz-adv-x="405" d="M 387 390 L 243 390 L 243 -179 L 156 -179 L 156 390 L 18 390 L 18 472 L 156 472 L 156 730 L 243 730 L 243 472 L 387 472 L 387 390 Z" unicode="†" />
<glyph horiz-adv-x="412" d="M 160 -179 L 160 114 L 26 114 L 26 196 L 160 196 L 160 383 L 26 383 L 26 466 L 160 466 L 160 730 L 247 730 L 247 466 L 387 466 L 387 383 L 247 383 L 247 196 L 387 196 L 387 114 L 247 114 L 247 -179 L 160 -179 Z" unicode="‡" />
<glyph horiz-adv-x="382" d="M 191 457 C 213 457 231 449 246 434 C 261 419 269 401 269 379 C 269 357 261 339 246 324 C 231 308 213 301 191 301 C 169 301 150 308 135 324 C 120 339 113 357 113 379 C 113 401 120 419 135 434 C 150 449 169 457 191 457 Z" unicode="•" />
<glyph horiz-adv-x="602" d="M 58 0 L 58 120 L 143 120 L 143 0 L 58 0 Z M 259 0 L 259 120 L 343 120 L 343 0 L 259 0 Z M 459 0 L 459 120 L 544 120 L 544 0 L 459 0 Z" unicode="…" />
<glyph horiz-adv-x="974" d="M 167 363 C 151 363 135 366 119 374 C 103 382 90 393 78 409 C 66 425 56 444 48 468 C 40 492 37 519 37 551 C 37 604 49 649 73 685 C 97 721 129 740 167 740 C 187 740 206 735 222 725 C 238 715 252 701 264 685 C 276 668 285 648 291 626 C 297 603 301 579 301 554 C 301 527 297 502 291 479 C 284 455 275 435 263 418 C 251 400 236 387 220 377 C 204 367 186 363 167 363 Z M 85 0 L 506 730 L 569 730 L 150 0 L 85 0 Z M 105 551 C 105 536 106 521 108 506 C 110 491 113 478 118 466 C 122 454 129 445 137 438 C 145 430 155 427 167 427 C 179 427 190 430 199 438 C 207 445 214 454 219 466 C 224 478 228 491 230 506 C 232 520 233 535 233 551 C 233 565 231 580 229 595 C 227 610 223 624 219 636 C 214 648 208 657 200 665 C 192 672 182 676 170 676 C 158 676 147 672 139 665 C 131 657 124 648 119 636 C 114 624 110 611 108 596 C 106 581 105 566 105 551 Z M 502 -3 C 485 -3 469 0 453 8 C 437 16 422 27 410 43 C 398 59 388 78 380 102 C 372 126 369 153 369 185 C 369 238 381 283 406 319 C 431 355 464 374 504 374 C 524 374 543 369 560 359 C 576 349 590 335 602 319 C 613 302 622 282 628 260 C 634 237 637 213 637 188 C 637 161 633 136 627 113 C 621 89 612 69 600 52 C 588 34 573 21 557 11 C 540 1 522 -3 502 -3 Z M 802 -3 C 786 -3 770 0 754 8 C 738 16 723 27 711 43 C 699 59 689 78 681 102 C 673 126 670 153 670 185 C 670 238 682 283 707 319 C 731 355 764 374 804 374 C 824 374 843 369 860 359 C 876 349 890 335 902 319 C 913 302 922 282 928 260 C 934 237 937 213 937 188 C 937 161 933 136 927 113 C 921 89 912 69 900 52 C 888 34 873 21 857 11 C 840 1 822 -3 802 -3 Z M 501 61 C 513 61 524 64 533 71 C 541 78 548 87 554 99 C 559 111 563 124 565 139 C 567 154 569 169 569 185 C 569 200 567 215 565 230 C 563 245 559 259 554 271 C 548 283 541 292 533 300 C 525 307 515 311 503 311 C 480 311 463 298 453 272 C 442 246 437 217 437 185 C 437 169 438 154 440 139 C 442 124 446 111 451 99 C 456 87 463 78 471 71 C 479 64 489 61 501 61 Z M 801 61 C 813 61 824 64 833 71 C 841 78 848 87 854 99 C 859 111 863 124 865 139 C 867 154 869 169 869 185 C 869 200 867 215 865 230 C 863 245 859 259 854 271 C 849 283 842 292 834 300 C 826 307 816 311 804 311 C 781 311 764 298 753 272 C 742 246 737 217 737 185 C 737 169 738 154 740 139 C 742 124 746 111 751 99 C 756 87 763 78 771 71 C 779 64 789 61 801 61 Z" unicode="‰" />
<glyph horiz-adv-x="235" d="M 205 101 L 28 268 L 28 316 L 205 481 L 205 399 L 101 290 L 205 185 L 205 101 Z" unicode="‹" />
<glyph horiz-adv-x="235" d="M 30 481 L 207 314 L 207 267 L 30 102 L 30 182 L 134 292 L 30 396 L 30 481 Z" unicode="›" />
<glyph horiz-adv-x="145" d="M 301 730 L -74 0 L -145 0 L 230 730 L 301 730 Z" unicode="⁄" />
<glyph horiz-adv-x="326" d="M 15 456 L 15 507 L 204 738 L 252 738 L 252 510 L 315 510 L 315 456 L 252 456 L 252 373 L 183 373 L 183 456 L 15 456 Z M 86 508 L 185 508 L 185 635 L 86 508 Z" unicode="⁴" />
<glyph horiz-adv-x="469" d="M 448 116 C 432 79 408 48 377 24 C 346 0 312 -12 275 -12 C 224 -12 180 12 144 61 C 107 109 83 177 73 265 L 27 265 L 27 328 L 68 328 C 67 333 67 338 67 344 C 67 350 67 356 67 362 C 67 367 67 372 67 378 C 67 384 67 389 68 395 L 27 395 L 27 458 L 72 458 C 76 500 84 539 96 574 C 107 609 121 639 138 664 C 155 688 175 707 198 721 C 221 735 246 742 274 742 C 320 742 356 730 383 707 C 409 684 429 657 442 626 L 384 587 C 373 609 360 628 344 643 C 328 658 306 666 278 666 C 246 666 218 648 196 612 C 173 576 158 524 151 458 L 420 458 L 420 395 L 147 395 C 146 389 146 384 146 378 C 146 372 146 366 146 360 C 146 354 146 349 146 343 C 146 337 146 332 147 328 L 420 328 L 420 265 L 151 265 C 159 196 176 145 200 112 C 224 78 251 62 281 62 C 307 62 330 71 348 90 C 366 109 381 132 392 159 L 448 116 Z" unicode="€" />
<glyph horiz-adv-x="813" d="M 764 334 L 692 334 L 692 607 L 567 407 L 546 407 L 422 606 L 422 334 L 352 334 L 352 730 L 425 730 L 558 514 L 695 730 L 764 730 L 764 334 Z M 323 651 L 217 651 L 217 334 L 134 334 L 134 651 L 22 651 L 22 730 L 323 730 L 323 651 Z" unicode="™" />
<glyph horiz-adv-x="705" d="M 35 0 L 35 77 L 243 77 L 243 150 C 209 158 179 172 152 192 C 125 212 102 235 84 261 C 65 287 51 315 41 347 C 31 378 26 410 26 444 C 26 486 33 525 48 562 C 62 599 83 631 111 658 C 139 685 173 706 213 722 C 253 738 298 746 349 746 C 401 746 448 738 489 722 C 530 706 565 684 593 657 C 621 630 642 598 657 561 C 671 524 679 485 679 444 C 679 410 674 378 665 347 C 656 315 643 287 625 261 C 607 235 584 212 556 193 C 528 173 497 159 461 150 L 461 77 L 669 77 L 669 0 L 400 0 L 400 195 C 430 203 457 215 481 232 C 505 249 524 269 540 291 C 556 313 568 337 576 363 C 584 389 588 414 588 440 C 588 474 582 505 571 534 C 559 563 543 588 522 609 C 501 630 476 646 447 658 C 417 670 385 676 349 676 C 314 676 282 670 254 658 C 225 646 200 630 180 609 C 160 588 144 563 133 534 C 122 504 117 472 117 438 C 117 413 120 388 128 363 C 136 337 147 314 163 292 C 179 270 198 251 222 234 C 246 216 273 203 305 195 L 305 0 L 35 0 Z" unicode="Ω" />
<glyph horiz-adv-x="441" d="M 402 274 C 402 224 397 182 387 146 C 377 110 364 81 348 59 C 331 36 311 19 289 9 C 266 -1 242 -7 217 -7 C 192 -7 168 -2 145 7 C 122 17 102 31 85 50 C 67 68 53 92 43 120 C 33 148 28 180 28 216 C 28 250 32 282 41 310 C 50 338 63 362 79 382 C 95 402 113 417 134 428 C 155 439 178 445 202 445 C 233 445 259 437 280 423 C 300 408 317 387 329 361 C 322 427 310 485 293 533 C 276 581 257 620 236 651 C 214 682 192 705 169 720 C 146 735 126 743 108 744 L 145 802 C 163 802 187 792 217 772 C 246 752 274 722 302 680 C 329 638 352 583 372 516 C 392 448 402 368 402 274 Z M 215 58 C 247 58 272 72 290 101 C 307 130 316 171 316 223 C 316 271 307 309 290 337 C 273 364 248 378 214 378 C 182 378 158 364 141 336 C 123 308 115 268 115 218 C 115 164 123 123 141 97 C 158 71 183 58 215 58 Z" unicode="∂" />
<glyph horiz-adv-x="543" d="M 542 0 L 1 0 L 259 730 L 285 730 L 542 0 Z M 436 63 L 270 580 L 105 63 L 436 63 Z" unicode="∆" />
<glyph horiz-adv-x="638" d="M 207 655 L 207 0 L 121 0 L 121 655 L 15 655 L 15 730 L 623 730 L 623 655 L 522 655 L 522 0 L 436 0 L 436 655 L 207 655 Z" unicode="∏" />
<glyph horiz-adv-x="525" d="M 159 655 L 373 307 L 127 -104 L 497 -104 L 497 -179 L -12 -179 L 289 306 L 18 730 L 476 730 L 476 655 L 159 655 Z" unicode="∑" />
<glyph horiz-adv-x="493" d="M 453 297 L 41 297 L 41 366 L 453 366 L 453 297 Z" unicode="−" />
<glyph horiz-adv-x="510" d="M 500 730 L 198 0 L 186 0 L 14 327 L 74 371 L 202 116 L 446 730 L 500 730 Z" unicode="√" />
<glyph horiz-adv-x="334" d="M 109 -33 L 167 630 C 170 666 184 693 208 712 C 232 730 256 740 281 740 C 293 740 306 739 318 738 C 330 737 337 736 340 736 L 333 663 C 331 663 327 664 321 665 C 315 665 309 666 303 666 C 284 666 268 659 256 647 C 244 634 237 614 235 588 L 179 -62 C 176 -94 163 -121 140 -145 C 116 -168 88 -179 54 -179 C 36 -179 20 -177 5 -174 C -10 -170 -22 -166 -30 -162 L -21 -103 C -17 -103 -10 -105 0 -108 C 9 -110 18 -112 27 -112 C 47 -112 65 -105 81 -91 C 97 -77 106 -58 109 -33 Z" unicode="∫" />
<glyph horiz-adv-x="474" d="M 374 496 L 446 496 C 444 448 436 409 420 380 C 404 351 380 337 348 337 C 326 337 306 341 289 351 C 271 360 256 370 244 382 C 231 394 218 404 205 413 C 191 422 177 427 163 427 C 149 427 135 419 121 403 C 107 387 101 366 101 340 L 35 340 C 35 388 44 427 64 455 C 84 483 109 498 140 498 C 162 498 181 492 199 482 C 217 472 232 461 246 450 C 258 440 269 430 281 422 C 293 414 306 410 321 410 C 339 410 353 417 361 431 C 369 445 374 466 374 496 Z M 375 322 L 446 322 C 444 274 436 235 420 206 C 404 177 379 163 346 163 C 324 163 304 167 286 176 C 268 185 253 196 241 208 C 228 220 215 230 203 238 C 191 246 177 250 163 250 C 149 250 136 242 122 228 C 108 213 102 192 102 166 L 35 166 C 35 214 44 253 64 281 C 84 309 110 324 143 324 C 165 324 185 318 203 307 C 221 296 236 285 249 273 C 261 263 273 254 285 246 C 297 238 309 234 323 234 C 341 234 355 241 363 255 C 371 269 375 291 375 322 Z" unicode="≈" />
<glyph horiz-adv-x="487" d="M 444 179 L 223 179 L 174 70 L 116 91 L 155 179 L 61 179 L 61 249 L 187 249 L 250 392 L 61 392 L 61 461 L 281 461 L 328 566 L 386 546 L 348 461 L 444 461 L 444 392 L 317 392 L 254 249 L 444 249 L 444 179 Z" unicode="≠" />
<glyph horiz-adv-x="487" d="M 57 298 L 57 352 L 427 553 L 427 478 L 138 327 L 426 177 L 426 101 L 57 298 Z M 56 84 L 426 84 L 426 21 L 56 21 L 56 84 Z" unicode="≤" />
<glyph horiz-adv-x="487" d="M 425 298 L 56 101 L 56 176 L 344 327 L 56 478 L 56 553 L 425 352 L 425 298 Z M 426 84 L 426 21 L 56 21 L 56 84 L 426 84 Z" unicode="≥" />
<glyph horiz-adv-x="530" d="M 500 326 L 270 -12 L 259 -12 L 30 326 L 30 337 L 259 674 L 270 674 L 500 337 L 500 326 Z M 421 327 L 421 336 L 269 565 L 261 565 L 109 336 L 109 327 L 261 97 L 269 97 L 421 327 Z" unicode="◊" />
<glyph horiz-adv-x="730" d="M 448 683 L 282 683 L 282 730 L 448 730 L 448 683 Z M 659 282 L 610 282 L 610 448 L 659 448 L 659 282 Z M 120 282 L 71 282 L 71 448 L 120 448 L 120 282 Z M 423 307 L 307 307 L 307 423 L 423 423 L 423 307 Z M 448 0 L 282 0 L 282 48 L 448 48 L 448 0 Z" unicode="" />
<glyph horiz-adv-x="402" d="M 212 407 L 145 407 L 145 0 L 63 0 L 63 407 L 18 407 L 18 473 L 63 473 L 63 642 C 63 664 67 685 75 704 C 83 722 93 738 105 752 C 117 765 131 775 147 783 C 162 790 177 794 193 794 C 213 794 231 791 248 787 C 264 783 276 778 283 773 L 262 712 C 257 714 249 717 239 720 C 228 723 218 725 208 725 C 192 725 177 717 164 701 C 150 685 144 660 144 628 L 144 473 L 212 473 L 212 407 Z M 358 578 L 271 578 L 271 657 L 358 657 L 358 578 Z M 356 0 L 273 0 L 273 473 L 356 473 L 356 0 Z" unicode="ﬁ" />
<glyph horiz-adv-x="399" d="M 145 415 L 145 0 L 63 0 L 63 415 L 15 415 L 15 486 L 63 486 L 63 641 C 63 663 67 684 75 703 C 83 722 93 738 105 752 C 117 765 131 775 147 783 C 162 790 177 794 193 794 C 209 794 225 792 239 789 C 253 786 265 782 274 778 L 274 792 L 357 792 L 357 0 L 274 0 L 274 746 L 262 711 C 257 713 249 716 239 719 C 228 722 218 724 208 724 C 191 724 176 716 163 700 C 150 684 144 660 144 628 L 144 486 L 214 486 L 214 415 L 145 415 Z" unicode="ﬂ" />
</font>
</defs>
</svg>
