<?xml version="1.0" encoding="utf-8" ?><svg version="1.1" xmlns = 'http://www.w3.org/2000/svg'><defs><font id='web' horiz-adv-x="1000">
<font-face font-family="web" descent="-200" cap-height="730" units-per-em="1000" bbox="-157,-325,1033,1013" x-height="482" ascent="800" />
<missing-glyph horiz-adv-x="500" d="" /><glyph horiz-adv-x="208" d="" unicode=" " />
<glyph horiz-adv-x="269" d="M 173 433 L 152 190 L 119 190 L 98 433 L 98 730 L 173 730 L 173 433 Z M 171 0 L 101 0 L 101 83 L 171 83 L 171 0 Z" unicode="!" />
<glyph horiz-adv-x="365" d="M 297 620 L 291 490 L 239 490 L 235 619 L 235 730 L 297 730 L 297 620 Z M 129 619 L 125 490 L 72 490 L 68 619 L 68 730 L 129 730 L 129 619 Z" unicode="&#x22;" />
<glyph horiz-adv-x="598" d="M 545 235 L 410 235 L 389 0 L 346 1 L 367 235 L 211 235 L 190 0 L 148 1 L 169 235 L 32 235 L 32 290 L 173 290 L 186 436 L 53 436 L 53 491 L 191 491 L 212 730 L 254 729 L 233 491 L 389 491 L 410 730 L 453 729 L 432 491 L 566 491 L 566 436 L 427 436 L 414 290 L 545 290 L 545 235 Z M 215 290 L 371 290 L 384 436 L 228 436 L 215 290 Z" unicode="#" />
<glyph horiz-adv-x="494" d="M 453 182 C 453 156 448 132 438 111 C 428 89 415 71 399 55 C 382 39 362 27 340 18 C 317 8 293 3 267 1 L 267 -122 L 224 -122 L 224 1 C 183 3 146 12 113 28 C 79 43 52 63 31 87 L 62 138 C 80 116 103 97 133 83 C 163 69 193 60 224 57 L 224 353 C 160 383 115 413 88 443 C 61 473 48 512 48 560 C 48 608 64 647 97 679 C 129 710 172 727 224 730 L 224 790 L 267 790 L 267 729 C 301 726 332 719 360 707 C 388 695 412 679 434 659 L 398 612 C 380 630 360 644 338 654 C 315 664 291 670 267 673 L 267 399 L 272 397 C 339 365 386 333 413 301 C 439 269 453 230 453 182 Z M 111 559 C 111 528 119 503 135 484 C 151 464 180 443 224 421 L 224 674 C 191 671 164 659 143 639 C 121 619 111 592 111 559 Z M 390 183 C 390 213 381 239 365 261 C 349 283 316 306 267 332 L 267 57 C 301 60 330 72 354 94 C 378 116 390 145 390 183 Z" unicode="$" />
<glyph horiz-adv-x="752" d="M 190 360 C 171 360 153 364 135 372 C 117 380 102 392 88 408 C 74 424 63 443 55 467 C 47 491 43 518 43 550 C 43 576 46 600 54 624 C 61 647 71 667 84 685 C 97 702 113 716 131 726 C 149 736 168 741 190 741 C 212 741 233 736 251 726 C 269 716 285 702 298 685 C 310 668 320 648 327 625 C 334 602 338 578 338 553 C 338 526 334 501 327 477 C 319 453 309 433 296 416 C 283 398 267 385 249 375 C 231 365 211 360 190 360 Z M 169 0 L 113 0 L 570 730 L 626 730 L 169 0 Z M 189 410 C 219 410 242 423 258 451 C 273 479 281 512 281 550 C 281 587 273 620 259 648 C 245 676 222 690 192 690 C 162 690 139 676 123 648 C 107 620 100 588 100 550 C 100 509 108 475 124 449 C 140 423 162 410 189 410 Z M 560 -3 C 541 -3 523 1 505 9 C 487 17 472 29 458 45 C 444 61 433 81 425 105 C 417 129 413 156 413 187 C 413 213 416 237 424 261 C 431 284 441 304 455 322 C 468 339 484 353 502 363 C 520 373 540 378 562 378 C 584 378 605 373 623 363 C 641 353 657 339 670 322 C 682 305 692 285 699 262 C 705 239 709 215 709 190 C 709 163 705 138 698 114 C 690 90 680 70 667 53 C 654 35 638 22 620 12 C 602 2 582 -3 560 -3 Z M 559 48 C 589 48 612 61 628 89 C 644 116 652 149 652 187 C 652 225 644 257 630 285 C 615 313 592 327 562 327 C 533 327 511 313 495 286 C 479 258 471 225 471 187 C 471 146 479 113 495 87 C 511 61 533 48 559 48 Z" unicode="%" />
<glyph horiz-adv-x="668" d="M 605 -4 L 517 84 C 483 54 445 32 405 16 C 364 0 319 -8 271 -8 C 236 -8 204 -4 175 4 C 146 12 121 23 100 39 C 79 54 63 73 51 95 C 39 117 34 143 34 172 C 34 200 38 225 48 247 C 57 268 69 287 85 304 C 101 321 119 337 140 351 C 161 365 183 380 207 394 L 181 420 C 163 438 145 461 129 488 C 112 515 104 548 104 586 C 104 606 108 625 117 643 C 126 661 138 677 154 691 C 170 705 188 716 209 724 C 230 732 253 737 278 737 C 330 737 372 722 403 692 C 433 662 449 627 449 586 C 449 544 435 508 408 478 C 381 448 345 419 299 390 L 519 173 C 531 187 544 202 556 218 C 568 234 579 250 591 268 L 645 234 C 632 214 619 196 605 178 C 591 160 578 143 564 129 L 648 46 L 605 -4 Z M 231 457 L 261 427 C 301 452 331 476 353 500 C 375 523 386 549 386 578 C 386 606 376 631 358 652 C 339 673 312 684 278 684 C 246 684 220 673 200 651 C 180 629 170 606 170 582 C 170 558 175 536 187 515 C 198 493 213 474 231 457 Z M 106 177 C 106 157 110 139 119 123 C 128 107 140 93 156 82 C 171 71 189 63 210 57 C 230 51 252 48 275 48 C 312 48 347 55 380 69 C 413 83 444 102 473 128 L 245 356 C 204 330 171 303 145 277 C 119 251 106 217 106 177 Z" unicode="&#x26;" />
<glyph horiz-adv-x="198" d="M 129 617 L 126 486 L 72 486 L 68 617 L 68 730 L 129 730 L 129 617 Z" unicode="'" />
<glyph horiz-adv-x="306" d="M 289 -123 L 289 -181 C 252 -161 218 -135 186 -103 C 154 -70 126 -33 103 8 C 79 49 61 94 48 143 C 34 191 28 241 28 293 C 28 345 35 394 49 442 C 63 490 81 533 105 572 C 128 611 156 646 188 676 C 220 706 253 731 289 749 L 289 694 C 235 660 191 607 155 537 C 119 467 100 385 100 293 C 100 251 104 209 112 168 C 120 127 133 89 149 53 C 165 17 184 -16 208 -46 C 232 -76 259 -102 289 -123 Z" unicode="(" />
<glyph horiz-adv-x="306" d="M 17 694 L 17 749 C 50 733 82 710 114 681 C 145 651 173 617 197 577 C 221 537 241 492 256 442 C 270 392 278 338 278 282 C 278 230 271 180 257 132 C 243 84 224 40 200 0 C 176 -39 148 -74 116 -106 C 84 -137 51 -162 17 -181 L 17 -121 C 44 -102 69 -78 93 -50 C 116 -22 136 9 153 44 C 170 78 183 116 193 156 C 203 196 208 238 208 282 C 208 331 203 377 193 421 C 183 464 169 503 152 538 C 134 572 114 603 91 630 C 67 656 43 678 17 694 Z" unicode=")" />
<glyph horiz-adv-x="400" d="M 362 592 L 229 554 L 323 454 L 279 417 L 201 533 L 123 417 L 78 453 L 172 554 L 39 592 L 64 647 L 183 587 L 171 730 L 231 730 L 218 587 L 341 643 L 362 592 Z" unicode="*" />
<glyph horiz-adv-x="497" d="M 467 304 L 276 304 L 276 120 L 222 120 L 222 304 L 31 304 L 31 358 L 222 358 L 222 542 L 276 542 L 276 358 L 467 358 L 467 304 Z" unicode="+" />
<glyph horiz-adv-x="214" d="M 173 96 C 167 50 154 5 134 -38 C 114 -81 90 -117 63 -147 L 14 -124 C 22 -114 30 -101 39 -85 C 48 -69 57 -52 65 -32 C 73 -12 81 8 88 30 C 95 52 100 74 104 96 L 173 96 Z" unicode="," />
<glyph horiz-adv-x="326" d="M 283 231 L 43 231 L 43 290 L 283 290 L 283 231 Z" unicode="-" />
<glyph horiz-adv-x="215" d="M 142 0 L 73 0 L 73 114 L 142 114 L 142 0 Z" unicode="." />
<glyph horiz-adv-x="303" d="M 297 730 L 68 0 L 7 0 L 237 730 L 297 730 Z" unicode="/" />
<glyph horiz-adv-x="535" d="M 265 -10 C 196 -10 141 22 100 87 C 59 151 39 243 39 361 C 39 413 43 463 53 510 C 62 556 76 597 95 631 C 114 665 138 691 167 711 C 196 731 230 741 270 741 C 310 741 344 731 373 712 C 401 692 425 666 443 633 C 461 599 474 560 483 514 C 491 468 496 420 496 369 C 496 313 491 261 481 215 C 471 168 457 128 438 95 C 419 62 395 36 366 18 C 337 0 303 -10 265 -10 Z M 265 48 C 293 48 317 55 338 70 C 358 85 375 106 389 134 C 402 161 412 194 419 233 C 425 271 429 314 429 361 C 429 407 426 449 420 489 C 414 529 405 563 393 591 C 380 619 363 642 343 658 C 322 674 297 682 268 682 C 240 682 215 674 195 659 C 175 643 158 622 145 594 C 131 566 121 532 115 493 C 109 453 106 410 106 363 C 106 265 119 188 147 132 C 174 76 213 48 265 48 Z" unicode="0" />
<glyph horiz-adv-x="339" d="M 250 0 L 183 0 L 183 634 C 170 613 150 593 123 573 C 96 553 70 542 45 539 L 45 605 C 73 608 102 622 130 647 C 158 672 182 700 200 731 L 250 731 L 250 0 Z" unicode="1" />
<glyph horiz-adv-x="513" d="M 479 0 L 32 0 L 32 20 L 324 354 C 344 378 363 406 379 438 C 395 469 404 504 404 542 C 404 586 389 620 361 644 C 333 668 297 681 254 681 C 204 681 166 665 139 634 C 112 602 99 561 99 509 L 38 509 C 38 585 59 642 99 681 C 139 720 193 740 259 740 C 289 740 317 735 343 727 C 369 719 391 707 410 691 C 428 675 443 655 454 631 C 464 607 470 579 470 549 C 470 495 460 451 441 417 C 422 382 401 352 379 326 L 142 60 L 479 60 L 479 0 Z" unicode="2" />
<glyph horiz-adv-x="512" d="M 243 -10 C 185 -10 137 -1 99 14 C 61 30 31 49 10 70 L 44 121 C 62 103 87 87 119 71 C 150 55 189 47 236 47 C 265 47 291 51 314 60 C 337 69 356 81 372 97 C 388 113 400 131 408 152 C 416 173 420 195 420 219 C 420 264 404 300 372 326 C 340 352 300 366 252 366 L 140 366 L 141 424 L 250 424 C 293 424 328 437 356 463 C 383 489 397 520 397 557 C 397 589 384 618 359 644 C 334 670 299 683 253 683 C 208 683 171 673 143 654 C 114 634 91 611 74 584 L 33 627 C 51 657 79 683 116 706 C 152 729 200 741 258 741 C 321 741 371 725 407 693 C 443 661 461 619 461 568 C 461 545 457 524 450 505 C 442 485 432 468 420 454 C 408 440 394 428 378 418 C 362 408 345 402 329 398 C 349 394 369 387 388 377 C 407 367 424 355 438 340 C 452 324 464 306 472 286 C 480 265 485 242 485 217 C 485 188 480 160 470 133 C 460 105 445 81 425 60 C 405 38 379 21 349 9 C 318 -3 283 -10 243 -10 Z" unicode="3" />
<glyph horiz-adv-x="523" d="M 516 198 L 403 198 L 403 0 L 343 0 L 343 198 L 14 198 L 13 243 L 358 743 L 403 743 L 403 254 L 516 254 L 516 198 Z M 343 252 L 343 630 L 84 252 L 343 252 Z" unicode="4" />
<glyph horiz-adv-x="520" d="M 250 -10 C 201 -10 157 -1 117 15 C 77 32 47 53 27 78 L 62 127 C 80 105 105 86 137 70 C 168 54 205 47 247 47 C 301 47 343 66 375 104 C 406 142 422 191 422 252 C 422 308 407 351 378 383 C 348 415 311 431 266 431 C 228 431 195 423 168 407 C 140 391 120 368 106 338 L 60 351 L 88 730 L 443 730 L 443 669 L 138 669 L 119 403 C 131 425 151 445 180 462 C 208 479 243 488 283 488 C 343 488 392 467 431 427 C 469 386 489 329 489 256 C 489 176 467 111 423 63 C 379 14 321 -10 250 -10 Z" unicode="5" />
<glyph horiz-adv-x="509" d="M 264 -11 C 196 -11 141 11 99 56 C 56 100 35 159 35 233 C 35 310 55 385 97 459 C 138 532 192 606 260 682 L 320 748 L 366 709 L 318 657 C 262 595 216 536 179 482 C 142 427 120 381 112 345 C 123 369 143 392 172 413 C 200 434 236 445 278 445 C 310 445 338 439 364 427 C 390 415 411 400 429 380 C 447 360 460 336 470 308 C 479 280 484 250 484 218 C 484 186 478 157 468 129 C 457 101 442 76 423 56 C 403 35 380 19 353 7 C 326 -5 296 -11 264 -11 Z M 264 46 C 310 46 348 62 376 96 C 404 129 419 169 419 216 C 419 264 405 304 379 338 C 352 371 314 388 264 388 C 243 388 223 384 203 376 C 183 368 166 357 151 343 C 136 329 124 311 115 291 C 106 270 102 247 102 222 C 102 170 116 127 146 95 C 175 62 214 46 264 46 Z" unicode="6" />
<glyph horiz-adv-x="445" d="M 441 730 L 446 702 L 119 -4 L 60 20 L 364 669 L 14 669 L 14 730 L 441 730 Z" unicode="7" />
<glyph horiz-adv-x="544" d="M 354 387 C 373 383 392 376 411 367 C 429 357 446 345 460 329 C 474 313 486 295 495 273 C 504 251 509 227 509 199 C 509 137 488 86 446 48 C 404 9 346 -10 273 -10 C 200 -10 143 8 101 46 C 59 83 38 133 38 195 C 38 223 43 249 53 272 C 63 295 75 315 91 331 C 106 347 123 359 142 369 C 160 378 178 384 196 386 C 181 389 165 395 149 404 C 133 412 118 423 104 437 C 90 451 79 467 71 487 C 62 507 58 529 58 554 C 58 582 63 608 75 631 C 86 654 101 674 121 690 C 140 706 163 718 189 727 C 215 735 243 740 273 740 C 337 740 389 723 429 689 C 468 655 488 612 488 558 C 488 534 484 513 476 493 C 468 473 457 456 445 442 C 432 428 418 416 402 407 C 386 397 370 391 354 387 Z M 274 409 C 319 409 356 421 384 447 C 412 472 426 505 426 545 C 426 588 411 622 383 647 C 354 671 318 684 274 684 C 230 684 194 671 164 646 C 134 621 119 588 119 546 C 119 524 123 504 131 487 C 139 469 151 455 165 444 C 179 432 196 424 215 418 C 233 412 253 409 274 409 Z M 274 45 C 326 45 367 59 398 87 C 429 115 445 155 445 205 C 445 253 428 289 396 315 C 364 341 323 354 274 354 C 224 354 183 341 150 315 C 117 289 101 251 101 201 C 101 154 117 116 150 88 C 182 59 224 45 274 45 Z" unicode="8" />
<glyph horiz-adv-x="509" d="M 197 -14 L 154 28 L 211 81 C 233 102 254 126 275 154 C 296 181 315 209 332 237 C 349 265 364 293 376 321 C 388 348 397 373 401 395 C 388 368 366 344 334 322 C 302 300 266 290 228 290 C 196 290 168 295 143 307 C 117 319 96 335 79 355 C 61 375 48 398 39 426 C 29 454 25 484 25 517 C 25 548 30 577 41 605 C 52 632 67 656 87 676 C 106 696 129 712 157 724 C 185 736 215 742 248 742 C 279 742 308 736 336 725 C 364 714 388 698 408 678 C 428 657 444 631 456 601 C 468 571 474 537 474 499 C 474 455 468 412 456 370 C 444 328 428 287 408 249 C 388 211 366 175 341 142 C 316 108 290 79 264 53 L 197 -14 Z M 243 345 C 265 345 286 349 306 357 C 326 365 343 376 358 391 C 373 405 385 423 394 443 C 402 463 407 486 407 511 C 407 565 391 607 360 638 C 328 669 291 685 248 685 C 200 685 161 668 133 636 C 105 603 91 563 91 517 C 91 468 103 427 129 394 C 155 361 193 345 243 345 Z" unicode="9" />
<glyph horiz-adv-x="215" d="M 142 371 L 74 371 L 74 482 L 142 482 L 142 371 Z M 142 0 L 74 0 L 74 112 L 142 112 L 142 0 Z" unicode=":" />
<glyph horiz-adv-x="215" d="M 147 371 L 79 371 L 79 482 L 147 482 L 147 371 Z M 153 91 C 147 47 134 4 115 -38 C 95 -80 72 -115 45 -145 L -4 -122 C 12 -102 29 -72 49 -32 C 69 7 81 49 86 91 L 153 91 Z" unicode=";" />
<glyph horiz-adv-x="382" d="M 336 97 L 41 303 L 41 348 L 336 552 L 336 488 L 108 326 L 336 162 L 336 97 Z" unicode="&#x3C;" />
<glyph horiz-adv-x="501" d="M 446 394 L 56 394 L 56 450 L 446 450 L 446 394 Z M 446 186 L 56 186 L 56 243 L 446 243 L 446 186 Z" unicode="=" />
<glyph horiz-adv-x="382" d="M 340 303 L 45 97 L 45 162 L 273 326 L 45 489 L 45 552 L 340 348 L 340 303 Z" unicode="&#x3E;" />
<glyph horiz-adv-x="448" d="M 172 188 C 172 236 177 275 188 306 C 198 336 217 365 244 392 C 254 402 266 413 279 425 C 291 436 303 448 313 462 C 323 476 332 491 339 508 C 346 524 350 543 350 564 C 350 600 337 629 311 650 C 285 671 254 682 216 682 C 182 682 153 674 127 659 C 101 643 79 624 61 601 L 19 642 C 43 672 72 697 108 715 C 144 733 183 742 225 742 C 282 742 329 727 365 697 C 401 667 419 625 419 571 C 419 545 415 522 407 502 C 399 482 389 463 377 447 C 365 430 351 415 337 401 C 322 387 308 374 296 362 C 270 339 254 311 247 279 C 240 247 236 216 236 188 L 172 188 Z M 169 0 L 169 95 L 241 95 L 241 0 L 169 0 Z" unicode="?" />
<glyph horiz-adv-x="850" d="M 421 -27 C 367 -27 317 -17 271 3 C 225 23 185 50 152 84 C 118 118 92 158 73 204 C 53 250 44 300 44 352 C 44 404 53 454 72 500 C 91 546 117 587 151 621 C 185 655 225 681 272 701 C 318 721 369 731 424 731 C 480 731 532 722 579 705 C 625 687 665 663 699 633 C 732 602 758 565 776 523 C 794 480 804 434 804 384 C 804 340 799 302 789 271 C 779 239 766 214 750 195 C 734 175 716 161 697 152 C 678 143 660 139 642 139 C 610 139 585 146 568 161 C 550 176 540 194 537 216 C 529 199 510 182 479 165 C 447 147 412 139 374 139 C 325 139 288 151 262 175 C 236 199 224 229 224 265 C 224 307 241 341 276 366 C 311 391 358 404 417 404 L 529 404 L 529 418 C 529 460 518 488 496 504 C 474 519 447 527 417 527 C 392 527 368 524 345 518 C 322 512 303 505 288 499 L 268 545 C 286 553 309 561 336 568 C 363 574 390 578 417 578 C 473 578 514 563 542 535 C 570 506 584 463 584 407 L 584 251 C 584 234 588 219 598 205 C 607 191 623 184 646 184 C 656 184 667 186 680 192 C 693 197 705 207 717 221 C 728 235 737 254 745 280 C 753 306 757 339 757 379 C 757 422 749 462 733 500 C 717 538 695 570 666 598 C 637 625 602 647 561 663 C 520 679 474 687 424 687 C 376 687 331 678 291 661 C 250 643 215 620 186 590 C 156 560 133 524 117 483 C 100 442 92 398 92 352 C 92 306 100 262 117 222 C 134 181 157 145 187 115 C 216 84 251 60 292 42 C 332 24 376 16 423 16 C 444 16 466 18 490 22 C 513 26 537 35 562 47 L 580 7 C 552 -5 525 -14 499 -19 C 472 -24 446 -27 421 -27 Z M 391 187 C 406 187 421 189 437 193 C 452 197 466 203 479 209 C 491 215 502 223 511 231 C 520 239 526 247 529 255 L 529 360 L 421 360 C 376 360 342 352 320 336 C 297 320 286 297 286 269 C 286 244 295 224 313 209 C 331 194 357 187 391 187 Z" unicode="@" />
<glyph horiz-adv-x="585" d="M 581 0 L 510 0 L 430 219 L 150 219 L 73 0 L 4 0 L 271 734 L 316 734 L 581 0 Z M 413 275 L 290 619 L 167 275 L 413 275 Z" unicode="A" />
<glyph horiz-adv-x="541" d="M 90 0 L 90 730 L 272 730 C 330 730 376 714 412 684 C 447 653 465 611 465 557 C 465 507 452 466 426 434 C 400 402 368 383 330 377 C 349 375 369 371 389 363 C 409 355 428 344 444 330 C 460 316 473 298 483 276 C 493 254 499 229 499 201 C 499 142 479 94 441 56 C 403 18 351 0 286 0 L 90 0 Z M 157 399 L 258 399 C 283 399 304 403 322 411 C 340 419 354 430 365 444 C 375 457 383 472 388 490 C 393 507 396 525 396 544 C 396 582 383 612 359 636 C 334 659 300 671 257 671 L 157 671 L 157 399 Z M 157 59 L 282 59 C 332 59 368 73 392 102 C 416 131 428 166 428 207 C 428 249 413 282 384 306 C 355 330 319 342 277 342 L 157 342 L 157 59 Z" unicode="B" />
<glyph horiz-adv-x="653" d="M 365 -10 C 322 -10 281 -1 242 15 C 203 31 169 55 141 87 C 112 119 89 158 72 205 C 54 251 46 305 46 365 C 46 421 53 472 69 518 C 85 564 107 603 135 636 C 163 669 196 695 236 713 C 275 731 318 740 366 740 C 428 740 479 729 519 707 C 559 685 591 655 616 619 L 563 578 C 543 606 517 629 486 648 C 455 666 415 676 367 676 C 291 676 230 648 185 592 C 140 536 118 460 118 363 C 118 311 125 265 139 226 C 153 187 172 155 196 129 C 219 103 246 84 276 71 C 306 58 338 52 370 52 C 420 52 462 62 497 84 C 531 106 559 133 581 166 L 631 131 C 605 89 570 55 525 29 C 480 3 427 -10 365 -10 Z" unicode="C" />
<glyph horiz-adv-x="672" d="M 90 0 L 90 730 L 272 730 C 326 730 376 721 420 705 C 464 688 501 664 531 634 C 561 603 585 566 601 522 C 617 478 626 430 626 377 C 626 323 618 274 602 228 C 586 182 563 142 533 108 C 503 74 465 48 419 29 C 373 9 321 0 261 0 L 90 0 Z M 160 59 L 257 59 C 307 59 351 66 389 82 C 426 98 457 120 481 148 C 505 176 523 209 535 248 C 547 287 553 329 553 375 C 553 466 527 538 477 591 C 426 643 357 670 270 670 L 160 670 L 160 59 Z" unicode="D" />
<glyph horiz-adv-x="511" d="M 467 0 L 90 0 L 90 730 L 449 730 L 449 668 L 159 668 L 159 393 L 438 393 L 438 332 L 159 332 L 159 62 L 467 62 L 467 0 Z" unicode="E" />
<glyph horiz-adv-x="456" d="M 422 668 L 160 668 L 160 398 L 408 398 L 408 337 L 160 337 L 160 0 L 90 0 L 90 730 L 422 730 L 422 668 Z" unicode="F" />
<glyph horiz-adv-x="703" d="M 380 354 L 654 354 L 654 141 C 628 93 591 56 542 30 C 493 3 437 -10 373 -10 C 327 -10 285 -1 245 17 C 205 35 171 60 142 93 C 112 125 89 165 72 211 C 54 257 46 309 46 365 C 46 421 54 473 72 520 C 89 566 112 606 142 638 C 171 670 206 695 246 713 C 286 731 329 740 375 740 C 439 740 490 728 529 706 C 567 684 597 658 618 630 L 569 587 C 549 611 524 631 494 649 C 463 667 423 676 374 676 C 338 676 304 669 272 655 C 240 641 213 620 190 594 C 167 567 149 534 136 496 C 123 457 117 413 117 364 C 117 317 123 274 137 235 C 150 196 168 163 192 136 C 215 108 242 87 274 72 C 306 56 340 49 376 49 C 424 49 467 58 505 78 C 543 97 572 125 591 161 L 591 292 L 380 292 L 380 354 Z" unicode="G" />
<glyph horiz-adv-x="684" d="M 594 0 L 524 0 L 524 330 L 160 330 L 160 0 L 90 0 L 90 730 L 160 730 L 160 392 L 524 392 L 524 730 L 594 730 L 594 0 Z" unicode="H" />
<glyph horiz-adv-x="259" d="M 165 0 L 95 0 L 95 730 L 165 730 L 165 0 Z" unicode="I" />
<glyph horiz-adv-x="361" d="M 284 730 L 284 187 C 284 160 280 135 272 111 C 264 87 252 66 236 48 C 220 30 201 15 178 5 C 154 -5 127 -11 97 -11 C 82 -11 67 -10 51 -8 C 35 -6 22 -2 13 2 L 25 63 C 31 60 40 57 52 55 C 64 53 77 52 89 52 C 129 52 160 65 182 91 C 204 117 215 149 215 187 L 215 730 L 284 730 Z" unicode="J" />
<glyph horiz-adv-x="602" d="M 592 0 L 508 0 L 253 352 L 160 237 L 160 0 L 90 0 L 90 730 L 160 730 L 160 324 L 476 730 L 556 730 L 300 404 L 592 0 Z" unicode="K" />
<glyph horiz-adv-x="454" d="M 445 0 L 90 0 L 90 730 L 160 730 L 160 62 L 445 62 L 445 0 Z" unicode="L" />
<glyph horiz-adv-x="814" d="M 724 0 L 658 0 L 658 589 L 423 191 L 393 191 L 156 587 L 156 0 L 90 0 L 90 730 L 143 730 L 410 284 L 672 730 L 724 730 L 724 0 Z" unicode="M" />
<glyph horiz-adv-x="704" d="M 614 0 L 563 0 L 156 592 L 156 0 L 90 0 L 90 730 L 143 730 L 549 138 L 549 730 L 614 730 L 614 0 Z" unicode="N" />
<glyph horiz-adv-x="756" d="M 381 -10 C 331 -10 286 -1 245 17 C 204 35 169 60 140 93 C 110 126 87 166 71 213 C 54 260 46 312 46 370 C 46 424 54 474 71 520 C 87 566 110 605 139 637 C 168 669 203 695 243 713 C 283 731 327 740 374 740 C 424 740 469 731 511 713 C 553 695 588 669 618 637 C 647 605 670 565 686 519 C 702 473 710 422 710 366 C 710 310 701 258 684 212 C 666 166 643 126 614 93 C 584 60 549 35 509 17 C 469 -1 426 -10 381 -10 Z M 382 50 C 418 50 451 57 483 72 C 514 86 541 107 564 135 C 587 162 605 195 618 235 C 631 275 638 320 638 370 C 638 416 631 458 618 496 C 604 534 586 566 563 593 C 539 620 511 641 479 656 C 447 670 412 678 374 678 C 336 678 301 670 270 656 C 238 642 211 621 189 595 C 166 569 148 536 136 497 C 124 458 118 414 118 366 C 118 316 125 271 139 232 C 153 192 171 159 195 133 C 219 106 247 85 279 71 C 311 57 346 50 382 50 Z" unicode="O" />
<glyph horiz-adv-x="535" d="M 90 0 L 90 730 L 295 730 C 325 730 353 725 379 716 C 405 707 427 694 446 677 C 464 659 479 638 490 613 C 501 587 507 558 507 526 C 507 462 487 409 449 369 C 411 329 361 309 301 309 L 160 309 L 160 0 L 90 0 Z M 160 369 L 285 369 C 333 369 370 383 396 411 C 422 439 436 478 436 526 C 436 574 420 610 390 634 C 359 658 322 670 279 670 L 160 670 L 160 369 Z" unicode="P" />
<glyph horiz-adv-x="751" d="M 639 -98 L 639 -162 C 584 -158 534 -142 488 -114 C 442 -85 407 -50 385 -9 L 381 -9 C 331 -9 286 0 245 18 C 203 36 168 61 139 94 C 109 126 86 166 70 213 C 54 260 46 312 46 370 C 46 424 54 473 71 519 C 87 565 110 604 139 636 C 168 668 203 694 243 712 C 283 730 326 740 374 740 C 424 740 469 731 511 713 C 552 695 587 670 617 638 C 646 605 669 565 685 519 C 701 473 710 421 710 365 C 710 318 703 274 691 234 C 679 193 662 157 640 126 C 618 94 591 68 560 46 C 529 24 495 9 459 0 C 478 -28 504 -50 538 -68 C 571 -86 605 -96 639 -98 Z M 381 50 C 417 50 450 57 482 72 C 514 86 541 107 564 135 C 587 162 605 195 618 235 C 631 275 638 319 638 369 C 638 417 631 460 617 498 C 603 536 585 569 562 596 C 538 622 510 643 478 657 C 446 671 411 679 374 679 C 336 679 301 672 270 658 C 238 644 211 623 189 597 C 166 570 148 537 136 499 C 124 460 118 416 118 367 C 118 317 125 272 139 233 C 153 193 171 160 195 133 C 219 106 247 85 279 71 C 311 57 345 50 381 50 Z" unicode="Q" />
<glyph horiz-adv-x="547" d="M 90 0 L 90 730 L 266 730 C 324 730 372 713 408 679 C 444 645 463 597 463 537 C 463 506 458 479 450 455 C 441 431 429 410 415 394 C 400 377 383 364 364 354 C 344 344 324 339 304 337 L 300 335 L 516 0 L 437 0 L 233 321 L 158 321 L 158 0 L 90 0 Z M 158 379 L 250 379 C 292 379 326 392 353 418 C 380 444 394 481 394 529 C 394 572 381 606 356 632 C 330 657 297 670 255 670 L 158 670 L 158 379 Z" unicode="R" />
<glyph horiz-adv-x="491" d="M 251 -10 C 204 -10 162 -2 126 13 C 89 28 58 50 34 79 L 77 131 C 97 103 122 83 154 69 C 186 55 217 48 249 48 C 286 48 318 59 344 83 C 370 106 384 136 384 174 C 384 208 373 238 352 264 C 331 289 293 315 238 343 C 206 358 178 373 155 388 C 131 402 112 418 97 435 C 82 451 71 470 64 492 C 57 513 54 538 54 566 C 54 618 71 660 107 692 C 142 724 187 740 243 740 C 284 740 320 733 350 719 C 380 705 406 689 428 669 L 389 616 C 369 634 347 649 322 661 C 297 672 270 678 242 678 C 206 678 177 667 155 646 C 132 625 121 598 121 564 C 121 528 132 498 154 476 C 176 454 217 428 277 400 C 343 368 388 335 413 301 C 438 267 451 226 451 178 C 451 148 445 122 435 99 C 424 75 409 56 391 40 C 373 24 351 11 327 3 C 303 -5 277 -10 251 -10 Z" unicode="S" />
<glyph horiz-adv-x="471" d="M 462 668 L 268 668 L 268 0 L 198 0 L 198 668 L 9 668 L 9 730 L 462 730 L 462 668 Z" unicode="T" />
<glyph horiz-adv-x="674" d="M 590 730 L 590 248 C 590 206 583 168 570 136 C 556 104 538 77 515 55 C 492 33 465 17 434 6 C 403 -4 370 -10 335 -10 C 301 -10 268 -4 238 6 C 207 16 180 32 158 53 C 135 74 117 101 104 134 C 90 166 84 204 84 248 L 84 730 L 153 730 L 153 244 C 153 213 157 186 167 162 C 177 138 190 118 206 102 C 222 86 242 73 264 65 C 286 56 310 52 335 52 C 360 52 384 56 406 64 C 428 72 448 84 465 100 C 481 116 495 136 505 160 C 515 184 520 212 520 244 L 520 730 L 590 730 Z" unicode="U" />
<glyph horiz-adv-x="586" d="M 582 730 L 312 -6 L 265 -6 L 4 730 L 77 730 L 291 115 L 512 730 L 582 730 Z" unicode="V" />
<glyph horiz-adv-x="841" d="M 827 730 L 628 -6 L 585 -6 L 419 601 L 250 -6 L 206 -6 L 11 730 L 81 730 L 234 132 L 399 730 L 444 730 L 608 131 L 763 730 L 827 730 Z" unicode="W" />
<glyph horiz-adv-x="541" d="M 452 0 L 269 317 L 85 0 L 13 0 L 234 380 L 32 730 L 108 730 L 272 445 L 437 730 L 509 730 L 308 383 L 528 0 L 452 0 Z" unicode="X" />
<glyph horiz-adv-x="576" d="M 573 730 L 321 317 L 321 0 L 251 0 L 251 319 L 3 730 L 81 730 L 290 385 L 501 730 L 573 730 Z" unicode="Y" />
<glyph horiz-adv-x="526" d="M 491 730 L 491 698 L 110 61 L 505 61 L 505 0 L 18 0 L 18 31 L 398 668 L 54 668 L 54 730 L 491 730 Z" unicode="Z" />
<glyph horiz-adv-x="271" d="M 232 -179 L 73 -179 L 73 730 L 232 730 L 232 676 L 135 676 L 135 -124 L 232 -124 L 232 -179 Z" unicode="[" />
<glyph horiz-adv-x="303" d="M 7 730 L 65 730 L 297 0 L 237 0 L 7 730 Z" unicode="\" />
<glyph horiz-adv-x="262" d="M 197 -179 L 40 -179 L 40 -125 L 134 -125 L 134 676 L 40 676 L 40 730 L 197 730 L 197 -179 Z" unicode="]" />
<glyph horiz-adv-x="482" d="M 419 369 L 361 369 L 238 660 L 122 369 L 65 369 L 211 730 L 267 730 L 419 369 Z" unicode="^" />
<glyph horiz-adv-x="476" d="M 476 -150 L 0 -150 L 0 -94 L 476 -94 L 476 -150 Z" unicode="_" />
<glyph horiz-adv-x="500" d="M 330 541 L 266 541 L 156 708 L 232 708 L 330 541 Z" unicode="`" />
<glyph horiz-adv-x="470" d="M 410 0 L 349 0 L 349 66 C 334 45 313 27 285 13 C 257 0 225 -8 188 -8 C 140 -8 102 5 74 31 C 45 57 31 93 31 139 C 31 190 49 229 85 256 C 121 282 169 297 227 301 L 346 309 L 346 332 C 346 368 335 395 315 413 C 294 430 266 439 232 439 C 201 439 174 433 150 423 C 126 413 106 402 92 391 L 67 438 C 85 452 108 465 137 476 C 166 487 201 493 241 493 C 289 493 330 480 362 455 C 394 430 410 391 410 337 L 410 0 Z M 348 111 L 348 260 L 231 253 C 191 250 159 240 134 222 C 108 204 96 178 96 142 C 96 110 106 85 128 69 C 149 52 175 44 207 44 C 237 44 264 50 290 64 C 316 78 335 93 348 111 Z" unicode="a" />
<glyph horiz-adv-x="527" d="M 298 -7 C 253 -7 216 4 188 28 C 159 51 140 79 131 111 L 131 0 L 70 0 L 70 772 L 131 772 L 131 363 C 139 396 158 426 187 452 C 216 478 254 491 300 491 C 329 491 356 485 380 473 C 404 461 425 444 442 423 C 458 402 471 377 480 347 C 489 317 494 285 494 251 C 494 211 489 176 479 144 C 469 112 455 85 437 63 C 419 41 399 23 375 11 C 351 0 325 -7 298 -7 Z M 280 45 C 323 45 358 63 385 100 C 412 136 426 184 426 244 C 426 300 413 347 388 383 C 362 419 326 438 279 438 C 239 438 205 421 175 387 C 145 353 131 303 131 235 C 131 202 135 174 143 150 C 151 126 162 106 176 90 C 190 74 206 63 224 56 C 242 48 260 45 280 45 Z" unicode="b" />
<glyph horiz-adv-x="459" d="M 394 130 L 441 97 C 433 85 424 72 414 60 C 404 47 391 36 377 26 C 362 16 345 7 325 1 C 305 -5 282 -9 256 -9 C 222 -9 191 -2 163 10 C 135 22 112 40 93 62 C 73 84 58 110 48 141 C 38 171 33 204 33 240 C 33 274 38 306 49 337 C 60 368 75 395 95 418 C 115 440 138 458 166 472 C 194 485 224 492 258 492 C 282 492 305 488 325 482 C 345 475 362 467 377 457 C 392 447 405 435 416 422 C 426 408 435 395 441 383 L 388 353 C 376 373 360 392 339 409 C 318 426 290 435 256 435 C 232 435 211 429 192 419 C 173 409 157 395 143 378 C 129 360 119 340 111 317 C 103 293 100 268 100 242 C 100 185 114 138 143 102 C 172 66 211 48 259 48 C 278 48 295 50 310 56 C 324 61 337 68 348 76 C 358 84 367 92 375 102 C 382 112 388 121 394 130 Z" unicode="c" />
<glyph horiz-adv-x="532" d="M 235 -8 C 204 -8 176 -1 151 10 C 126 22 105 40 88 62 C 70 84 57 110 47 140 C 37 170 33 202 33 237 C 33 274 38 308 49 340 C 59 371 74 398 92 420 C 110 442 131 460 157 473 C 182 485 209 492 238 492 C 278 492 313 479 342 455 C 371 431 390 403 399 372 L 399 772 L 462 772 L 462 0 L 402 0 L 402 119 C 398 104 391 89 382 74 C 373 59 362 45 348 33 C 334 21 317 11 298 3 C 279 -4 258 -8 235 -8 Z M 251 45 C 293 45 328 63 357 100 C 386 137 401 186 401 246 C 401 277 396 305 388 329 C 380 353 369 373 355 389 C 341 405 324 417 306 425 C 288 433 269 438 250 438 C 206 438 170 420 142 384 C 114 348 100 301 100 241 C 100 185 113 138 140 101 C 166 63 203 45 251 45 Z" unicode="d" />
<glyph horiz-adv-x="496" d="M 260 -9 C 227 -9 197 -3 169 8 C 141 19 117 35 97 57 C 77 78 61 104 50 135 C 38 166 33 201 33 240 C 33 276 38 309 49 340 C 60 370 75 397 95 420 C 115 442 138 460 166 473 C 193 485 222 492 254 492 C 318 492 369 468 409 421 C 448 373 468 308 468 225 L 97 225 C 97 170 113 126 143 94 C 173 62 212 46 261 46 C 301 46 333 53 356 68 C 378 82 397 98 412 116 L 450 77 C 431 54 407 34 379 17 C 350 0 310 -9 260 -9 Z M 97 273 L 404 273 C 403 320 389 359 361 391 C 333 423 297 439 253 439 C 208 439 172 422 144 390 C 116 358 100 319 97 273 Z" unicode="e" />
<glyph horiz-adv-x="280" d="M 271 426 L 167 426 L 167 0 L 102 0 L 102 426 L 19 426 L 19 482 L 102 482 L 102 635 C 102 657 105 677 112 695 C 119 712 128 727 140 739 C 152 751 165 760 180 766 C 194 772 209 775 225 775 C 237 775 250 773 262 771 C 274 768 283 765 290 761 L 277 704 C 273 706 267 708 259 710 C 251 712 243 713 235 713 C 217 713 201 705 187 690 C 173 674 167 653 167 627 L 167 482 L 271 482 L 271 426 Z" unicode="f" />
<glyph horiz-adv-x="528" d="M 236 -2 C 205 -2 177 4 152 16 C 127 28 106 44 88 66 C 70 88 57 114 47 144 C 37 174 33 206 33 242 C 33 316 52 376 91 422 C 129 468 178 492 236 492 C 277 492 312 480 342 456 C 371 432 391 404 401 372 L 401 482 L 461 482 L 461 37 C 461 -3 454 -38 441 -68 C 428 -98 411 -122 390 -141 C 369 -160 345 -174 318 -184 C 290 -193 263 -198 235 -198 C 194 -198 162 -194 140 -187 C 117 -180 99 -173 87 -166 L 111 -114 C 121 -120 136 -127 156 -134 C 175 -140 200 -144 230 -144 C 252 -144 273 -140 294 -133 C 314 -125 332 -114 348 -100 C 363 -85 375 -67 385 -45 C 394 -23 399 2 399 32 L 399 126 C 394 110 387 94 377 79 C 367 63 356 50 342 38 C 328 26 313 16 295 9 C 277 1 257 -2 236 -2 Z M 252 49 C 271 49 290 53 308 62 C 326 70 341 83 355 100 C 369 116 380 137 388 162 C 396 187 401 216 401 249 C 401 279 396 305 388 329 C 380 352 369 372 355 388 C 341 404 324 416 306 424 C 288 432 269 437 249 437 C 206 437 171 419 143 383 C 115 347 101 300 101 242 C 101 184 114 138 140 102 C 166 66 204 49 252 49 Z" unicode="g" />
<glyph horiz-adv-x="511" d="M 446 0 L 382 0 L 382 332 C 382 366 371 392 349 410 C 327 428 300 438 268 438 C 251 438 235 435 219 430 C 203 425 188 417 176 406 C 163 395 153 381 145 365 C 137 348 134 328 134 305 L 134 0 L 70 0 L 70 772 L 130 772 L 130 388 C 138 417 156 442 184 462 C 212 482 248 492 290 492 C 334 492 371 480 401 456 C 431 432 446 396 446 348 L 446 0 Z" unicode="h" />
<glyph horiz-adv-x="211" d="M 71 598 L 71 672 L 140 672 L 140 598 L 71 598 Z M 73 0 L 73 482 L 138 482 L 138 0 L 73 0 Z" unicode="i" />
<glyph horiz-adv-x="218" d="M 152 598 L 83 598 L 83 672 L 152 672 L 152 598 Z M 149 482 L 149 -67 C 149 -106 138 -137 116 -160 C 94 -182 67 -193 37 -193 C 25 -193 13 -191 1 -189 C -10 -186 -20 -183 -27 -179 L -13 -129 C -8 -131 -2 -132 4 -134 C 10 -136 18 -137 26 -137 C 40 -137 54 -130 66 -117 C 78 -104 85 -85 85 -61 L 85 482 L 149 482 Z" unicode="j" />
<glyph horiz-adv-x="457" d="M 468 1 L 394 0 L 226 235 L 134 128 L 134 0 L 70 0 L 70 772 L 132 772 L 132 201 L 360 482 L 431 482 L 269 282 L 468 1 Z" unicode="k" />
<glyph horiz-adv-x="207" d="M 136 777 L 136 0 L 71 0 L 71 777 L 136 777 Z" unicode="l" />
<glyph horiz-adv-x="816" d="M 70 0 L 70 482 L 129 482 L 129 386 C 137 418 156 443 186 463 C 216 482 250 492 290 492 C 329 492 362 482 388 463 C 414 443 429 417 433 385 L 436 385 C 444 417 462 442 492 462 C 522 482 556 492 596 492 C 640 492 677 479 707 455 C 736 431 751 395 751 349 L 751 0 L 687 0 L 687 330 C 687 366 676 393 655 411 C 633 429 606 438 573 438 C 557 438 541 435 525 430 C 509 424 495 416 483 406 C 471 395 461 381 453 364 C 445 346 442 326 442 303 L 442 0 L 378 0 L 378 333 C 378 367 367 393 346 411 C 325 429 298 438 266 438 C 250 438 234 435 218 430 C 202 424 187 416 175 405 C 163 394 153 380 145 363 C 137 345 134 325 134 301 L 134 0 L 70 0 Z" unicode="m" />
<glyph horiz-adv-x="511" d="M 446 0 L 381 0 L 381 336 C 381 368 370 393 349 411 C 328 429 301 438 269 438 C 253 438 236 435 220 430 C 204 425 189 417 177 406 C 164 395 154 381 146 364 C 138 347 134 327 134 303 L 134 0 L 70 0 L 70 482 L 129 482 L 129 386 C 138 417 157 442 187 462 C 216 482 251 492 291 492 C 335 492 371 480 401 456 C 431 432 446 398 446 354 L 446 0 Z" unicode="n" />
<glyph horiz-adv-x="515" d="M 256 -9 C 226 -9 197 -3 170 8 C 143 19 119 35 99 57 C 79 78 63 104 51 135 C 39 166 33 201 33 239 C 33 275 38 308 50 339 C 61 370 77 397 97 419 C 117 441 140 459 167 472 C 194 485 223 492 254 492 C 286 492 316 486 344 474 C 372 462 396 446 416 425 C 436 404 452 379 464 349 C 476 319 482 287 482 252 C 482 214 476 180 465 148 C 453 116 438 88 418 65 C 398 42 374 24 346 11 C 318 -2 288 -9 256 -9 Z M 258 47 C 304 47 342 65 371 102 C 400 139 415 187 415 245 C 415 301 400 346 371 382 C 341 418 302 436 253 436 C 209 436 172 417 143 381 C 114 345 100 298 100 242 C 100 180 115 132 146 98 C 176 64 214 47 258 47 Z" unicode="o" />
<glyph horiz-adv-x="527" d="M 70 -198 L 70 482 L 129 482 L 129 359 C 137 393 156 424 186 451 C 216 477 254 491 300 491 C 330 491 357 485 381 473 C 405 461 425 444 442 423 C 458 402 471 377 480 347 C 489 317 494 285 494 250 C 494 210 488 175 478 143 C 468 111 454 85 436 63 C 418 41 398 24 374 12 C 350 0 325 -6 298 -6 C 254 -6 218 5 189 27 C 160 49 141 76 133 106 L 133 -198 L 70 -198 Z M 281 45 C 323 45 357 63 385 99 C 412 135 426 183 426 243 C 426 298 413 344 389 382 C 364 419 328 438 280 438 C 240 438 205 421 175 388 C 145 355 130 304 130 235 C 130 168 145 120 175 90 C 205 60 241 45 281 45 Z" unicode="p" />
<glyph horiz-adv-x="531" d="M 398 -198 L 398 119 C 393 104 386 89 376 74 C 366 58 355 45 341 33 C 327 21 311 12 293 4 C 275 -3 255 -7 233 -7 C 202 -7 174 0 150 11 C 125 23 104 40 87 62 C 69 84 56 109 47 139 C 37 169 33 201 33 236 C 33 274 38 309 49 341 C 59 373 74 400 92 422 C 110 444 132 461 157 473 C 181 485 208 492 237 492 C 281 492 317 479 346 453 C 374 427 393 399 402 368 L 402 482 L 462 482 L 462 -198 L 398 -198 Z M 251 45 C 271 45 290 49 308 58 C 326 67 342 80 356 98 C 370 115 381 136 389 161 C 397 186 401 214 401 246 C 401 308 385 355 355 388 C 325 421 290 438 250 438 C 205 438 169 420 142 384 C 114 348 101 301 101 243 C 101 186 114 139 140 101 C 166 63 203 45 251 45 Z" unicode="q" />
<glyph horiz-adv-x="369" d="M 369 463 L 341 407 C 330 416 318 423 305 428 C 291 432 276 435 260 435 C 245 435 230 431 215 425 C 199 419 186 410 174 398 C 162 386 153 371 145 353 C 137 335 134 314 134 291 L 134 0 L 70 0 L 70 482 L 131 482 L 131 378 C 137 406 154 432 180 456 C 206 480 239 492 277 492 C 297 492 315 489 331 483 C 347 477 359 471 369 463 Z" unicode="r" />
<glyph horiz-adv-x="384" d="M 203 -9 C 164 -9 130 -3 102 8 C 74 20 50 36 32 56 L 64 100 C 80 83 99 69 123 59 C 146 49 172 44 200 44 C 224 44 245 51 263 66 C 281 80 291 100 291 125 C 291 146 282 164 266 180 C 249 195 219 211 176 228 C 128 245 95 264 75 286 C 55 308 46 336 46 370 C 46 406 60 435 89 458 C 117 480 152 492 192 492 C 227 492 257 486 281 476 C 305 466 324 455 339 444 L 310 397 C 297 407 281 416 261 425 C 241 433 219 438 195 438 C 172 438 151 432 133 420 C 115 408 106 392 106 372 C 106 352 112 336 126 324 C 139 311 168 296 212 280 C 262 260 297 238 319 216 C 340 193 351 163 351 127 C 351 85 336 51 306 27 C 276 3 242 -9 203 -9 Z" unicode="s" />
<glyph horiz-adv-x="263" d="M 243 62 L 251 10 C 245 6 237 2 225 0 C 213 -3 201 -5 187 -5 C 160 -5 135 3 113 19 C 90 35 79 65 79 107 L 79 427 L 13 427 L 13 482 L 80 482 L 80 600 L 143 609 L 143 482 L 242 482 L 242 427 L 144 427 L 144 111 C 144 91 149 76 159 66 C 169 56 182 52 199 52 C 207 52 216 53 225 55 C 233 57 239 60 243 62 Z" unicode="t" />
<glyph horiz-adv-x="511" d="M 65 482 L 129 482 L 129 161 C 129 120 140 90 162 72 C 184 53 213 44 248 44 C 282 44 312 55 338 77 C 364 99 377 133 377 179 L 377 482 L 441 482 L 441 0 L 381 0 L 381 95 C 372 66 354 41 326 21 C 298 1 263 -9 223 -9 C 179 -9 141 3 111 28 C 80 53 65 92 65 144 L 65 482 Z" unicode="u" />
<glyph horiz-adv-x="429" d="M 430 482 L 235 -2 L 190 -2 L -2 482 L 68 482 L 216 98 L 365 482 L 430 482 Z" unicode="v" />
<glyph horiz-adv-x="645" d="M 442 -2 L 326 328 L 202 -2 L 159 -2 L 6 482 L 72 482 L 189 96 L 306 421 L 349 421 L 461 97 L 578 482 L 639 482 L 484 -2 L 442 -2 Z" unicode="w" />
<glyph horiz-adv-x="397" d="M 322 0 L 197 200 L 70 0 L 6 0 L 165 251 L 21 482 L 91 482 L 200 306 L 312 482 L 377 482 L 232 255 L 391 0 L 322 0 Z" unicode="x" />
<glyph horiz-adv-x="432" d="M 433 482 L 198 -95 C 180 -135 159 -163 135 -178 C 111 -192 87 -200 65 -200 C 50 -200 38 -198 28 -195 C 18 -192 10 -190 6 -188 L 27 -132 C 29 -133 34 -135 42 -137 C 49 -139 57 -141 66 -141 C 80 -141 94 -135 108 -124 C 122 -112 135 -93 147 -67 L 184 29 L -1 482 L 68 482 L 218 104 L 368 482 L 433 482 Z" unicode="y" />
<glyph horiz-adv-x="383" d="M 358 482 L 358 452 L 105 57 L 371 57 L 371 0 L 15 0 L 15 26 L 271 426 L 29 426 L 29 482 L 358 482 Z" unicode="z" />
<glyph horiz-adv-x="280" d="M 258 -179 C 204 -175 159 -159 123 -130 C 86 -100 67 -65 66 -23 C 66 0 68 20 73 39 C 78 58 84 75 90 91 C 96 105 102 120 108 134 C 113 148 116 163 116 177 C 115 197 106 216 89 234 C 72 251 49 260 20 261 L 20 310 C 49 310 72 319 90 337 C 108 355 117 375 118 399 C 118 407 115 418 109 433 C 103 448 97 464 90 481 C 83 498 77 515 73 532 C 68 549 66 566 66 584 C 66 626 85 663 121 695 C 157 727 203 745 258 749 L 258 701 C 224 697 194 684 170 661 C 146 638 133 611 133 579 C 133 568 134 556 137 542 C 140 528 145 515 151 501 C 159 483 166 465 172 449 C 178 433 182 418 182 404 C 181 374 172 349 156 327 C 140 305 115 291 81 285 C 115 279 140 265 156 243 C 172 221 181 197 182 171 C 182 152 179 135 173 121 C 167 106 160 91 154 77 C 147 63 142 48 138 34 C 134 19 132 5 133 -9 C 133 -37 146 -64 170 -89 C 194 -113 223 -127 258 -130 L 258 -179 Z" unicode="{" />
<glyph horiz-adv-x="243" d="M 152 -179 L 91 -179 L 91 730 L 152 730 L 152 -179 Z" unicode="|" />
<glyph horiz-adv-x="280" d="M 22 -179 L 22 -130 C 57 -127 86 -113 110 -89 C 134 -64 146 -37 147 -9 C 147 5 146 19 142 34 C 138 48 132 63 126 77 C 119 91 113 106 107 121 C 101 135 98 152 99 171 C 99 197 108 221 124 243 C 140 265 164 279 198 285 C 164 291 139 305 123 327 C 107 349 98 374 98 404 C 98 418 101 433 107 449 C 113 465 121 483 129 501 C 135 515 139 528 143 542 C 146 556 147 568 147 579 C 146 611 134 638 110 661 C 86 684 56 697 22 701 L 22 749 C 77 745 123 727 159 695 C 195 663 213 626 214 584 C 214 566 211 549 207 532 C 202 514 196 497 190 481 C 183 464 177 448 171 433 C 165 418 162 407 162 399 C 162 375 171 355 189 337 C 207 319 230 310 260 310 L 260 261 C 231 260 208 251 191 234 C 173 216 164 197 164 177 C 164 163 166 148 172 134 C 177 120 183 105 190 91 C 196 75 202 58 207 39 C 212 20 214 0 214 -23 C 213 -65 194 -100 158 -130 C 121 -159 76 -175 22 -179 Z" unicode="}" />
<glyph horiz-adv-x="481" d="M 389 433 L 444 433 C 443 379 435 339 420 313 C 404 287 380 274 346 274 C 323 274 303 279 287 290 C 271 301 256 313 243 326 C 228 339 214 351 200 361 C 186 371 171 376 156 376 C 140 376 125 367 112 351 C 98 334 92 309 92 277 L 38 277 C 38 329 47 369 67 396 C 86 423 110 437 139 437 C 163 437 184 431 202 420 C 220 409 237 396 253 382 C 265 370 278 359 292 349 C 305 339 320 334 338 334 C 358 334 371 341 378 357 C 385 373 389 398 389 433 Z" unicode="~" />
<glyph horiz-adv-x="277" d="M 104 608 L 174 608 L 174 526 L 104 526 L 104 608 Z M 101 177 L 123 420 L 156 420 L 176 177 L 176 -114 L 101 -114 L 101 177 Z" unicode="¡" />
<glyph horiz-adv-x="492" d="M 471 202 C 463 191 455 180 445 168 C 435 156 423 145 409 135 C 395 125 378 116 360 109 C 341 101 319 97 295 96 L 295 -7 L 247 -7 L 247 97 C 215 100 187 108 161 122 C 135 136 114 154 96 176 C 78 198 64 223 54 252 C 44 281 40 312 40 346 C 40 378 45 409 55 439 C 65 468 79 494 97 517 C 115 540 136 559 162 574 C 187 588 215 598 247 602 L 247 701 L 295 701 L 295 603 C 339 600 377 588 407 566 C 437 544 458 520 472 494 L 427 463 C 414 483 397 501 376 518 C 354 535 327 545 295 548 L 295 150 C 333 152 362 163 383 182 C 403 201 419 219 431 237 L 471 202 Z M 105 350 C 105 299 117 255 143 219 C 169 183 203 161 247 153 L 247 546 C 203 538 169 515 143 478 C 117 441 105 398 105 350 Z" unicode="¢" />
<glyph horiz-adv-x="547" d="M 535 55 L 535 0 L 24 0 L 24 43 C 30 45 38 47 50 49 C 61 51 76 54 95 58 C 107 60 119 64 133 70 C 146 75 158 82 169 92 C 179 101 188 112 196 126 C 203 140 207 156 207 174 C 207 182 206 190 204 198 C 202 206 199 215 196 224 L 34 224 L 34 273 L 171 273 C 164 285 156 299 148 314 C 139 328 131 343 123 359 L 34 359 L 34 407 L 101 407 C 92 427 85 449 80 471 C 74 493 72 517 72 542 C 72 580 78 612 91 638 C 104 664 121 684 143 700 C 165 715 190 726 218 732 C 246 738 276 742 306 742 C 356 742 401 732 442 714 C 483 696 513 678 532 662 L 498 610 C 481 624 456 639 422 656 C 388 673 350 682 309 682 C 287 682 267 679 247 675 C 227 670 209 662 193 650 C 177 638 165 623 156 603 C 146 583 142 559 142 530 C 142 508 145 487 151 467 C 157 446 164 426 173 407 L 458 407 L 458 359 L 197 359 C 205 344 213 329 221 315 C 229 300 236 286 243 273 L 458 273 L 458 224 L 262 224 C 262 218 263 213 264 207 C 265 201 266 196 266 192 C 266 170 262 150 254 134 C 246 118 236 104 225 94 C 213 83 201 74 189 68 C 176 62 165 57 156 55 L 535 55 Z" unicode="£" />
<glyph horiz-adv-x="502" d="M 439 182 L 408 151 L 345 216 C 331 207 316 200 300 196 C 284 191 267 189 250 189 C 232 189 214 191 198 196 C 182 201 167 208 153 217 L 90 151 L 58 183 L 119 246 C 105 260 95 277 87 295 C 79 313 76 333 76 354 C 76 374 79 394 87 413 C 95 431 105 448 119 463 L 58 526 L 89 556 L 153 491 C 166 499 181 506 198 511 C 214 516 232 519 250 519 C 268 519 286 516 303 511 C 319 505 335 498 349 490 L 414 557 L 444 525 L 382 461 C 394 447 404 430 412 412 C 420 394 424 374 424 354 C 424 333 420 313 412 294 C 404 274 393 257 379 243 L 439 182 Z M 250 237 C 284 237 313 248 338 272 C 362 295 375 322 375 354 C 375 385 362 412 338 436 C 313 459 284 471 250 471 C 215 471 185 459 161 436 C 137 412 125 385 125 354 C 125 322 137 295 161 272 C 185 248 215 237 250 237 Z" unicode="¤" />
<glyph horiz-adv-x="569" d="M 501 164 L 317 164 L 317 0 L 247 0 L 247 164 L 66 164 L 66 214 L 247 214 L 247 280 L 66 280 L 66 329 L 247 329 L 247 341 L 30 730 L 106 730 L 285 403 L 466 730 L 538 730 L 317 339 L 317 329 L 501 329 L 501 280 L 317 280 L 317 214 L 501 214 L 501 164 Z" unicode="¥" />
<glyph horiz-adv-x="258" d="M 101 351 L 101 730 L 158 730 L 158 351 L 101 351 Z M 158 200 L 158 -179 L 101 -179 L 101 200 L 158 200 Z" unicode="¦" />
<glyph horiz-adv-x="621" d="M 328 -180 C 275 -180 225 -173 178 -159 C 131 -145 92 -127 60 -105 L 87 -50 C 116 -71 152 -89 196 -103 C 239 -117 282 -125 324 -125 C 363 -125 396 -115 423 -96 C 450 -76 464 -49 464 -15 C 464 17 454 41 434 57 C 414 73 388 88 358 102 L 218 164 C 190 176 166 187 145 198 C 124 208 107 220 93 232 C 79 244 68 259 61 275 C 53 291 50 311 50 334 C 50 365 57 390 73 410 C 89 429 107 445 128 458 C 109 468 95 483 86 503 C 76 523 72 548 72 578 C 72 604 77 627 89 648 C 101 668 117 685 137 699 C 157 713 180 723 208 731 C 236 738 265 742 297 742 C 355 742 402 733 439 717 C 476 700 508 681 535 661 L 505 610 C 475 630 444 649 412 665 C 380 681 341 690 295 690 C 253 690 216 679 186 659 C 155 639 140 612 140 578 C 140 554 146 535 160 519 C 173 503 193 490 220 480 L 404 401 C 456 380 497 358 525 335 C 553 311 567 279 567 238 C 567 220 563 204 557 190 C 550 176 541 164 531 154 C 520 144 508 136 495 130 C 481 124 468 120 455 118 C 461 114 469 108 478 101 C 487 94 496 85 504 74 C 512 63 520 50 526 36 C 532 21 535 4 535 -14 C 535 -40 529 -63 519 -84 C 508 -104 493 -122 475 -136 C 456 -150 434 -161 409 -169 C 383 -176 356 -180 328 -180 Z M 405 151 C 427 152 449 159 469 172 C 489 185 499 205 499 233 C 499 257 488 279 466 298 C 444 316 411 334 366 352 L 184 430 C 165 420 149 408 136 395 C 122 382 116 363 116 339 C 116 310 127 287 149 270 C 171 253 206 235 252 217 L 405 151 Z" unicode="§" />
<glyph horiz-adv-x="500" d="M 360 543 L 305 543 L 305 698 L 360 698 L 360 543 Z M 195 543 L 140 543 L 140 698 L 195 698 L 195 543 Z" unicode="¨" />
<glyph horiz-adv-x="831" d="M 415 6 C 364 6 316 15 272 35 C 227 54 188 80 155 114 C 122 147 96 186 77 231 C 57 276 48 324 48 374 C 48 424 57 472 77 517 C 96 561 122 600 155 634 C 188 667 227 693 272 713 C 316 732 364 742 415 742 C 465 742 513 732 558 713 C 602 693 641 667 675 634 C 708 600 734 561 754 517 C 773 472 783 424 783 374 C 783 324 773 276 754 231 C 734 186 708 147 675 114 C 641 80 602 54 558 35 C 513 15 465 6 415 6 Z M 416 50 C 460 50 501 58 541 75 C 580 92 614 115 643 144 C 672 173 695 207 712 247 C 729 287 738 329 738 373 C 738 417 729 458 712 498 C 695 538 672 572 643 602 C 614 631 580 654 541 672 C 501 689 460 698 416 698 C 371 698 329 689 290 672 C 250 654 216 631 187 602 C 158 572 135 538 118 498 C 101 458 93 417 93 373 C 93 329 101 287 118 247 C 135 207 158 173 187 144 C 216 115 250 92 290 75 C 329 58 371 50 416 50 Z M 584 240 C 568 216 545 195 517 179 C 489 163 455 155 416 155 C 390 155 365 159 341 169 C 317 179 295 193 277 212 C 258 230 243 253 232 281 C 220 308 215 339 215 374 C 215 407 220 438 230 466 C 240 494 253 517 271 537 C 289 557 310 572 334 583 C 358 594 383 600 411 600 C 453 600 488 593 514 579 C 540 565 562 546 578 524 L 532 490 C 520 506 504 519 486 530 C 467 540 442 546 412 546 C 372 546 338 529 312 496 C 286 462 273 421 273 372 C 273 345 277 321 285 301 C 293 280 304 263 318 249 C 331 235 346 224 364 217 C 381 209 399 206 417 206 C 443 206 467 212 488 224 C 509 236 526 251 539 270 L 584 240 Z" unicode="©" />
<glyph horiz-adv-x="451" d="M 400 307 L 347 307 L 347 371 C 331 349 308 331 279 319 C 250 307 219 301 187 301 C 142 301 106 312 80 335 C 53 358 40 390 40 432 C 40 478 57 512 91 536 C 125 559 170 572 226 575 L 345 583 L 345 593 C 345 625 334 649 314 665 C 293 681 266 689 232 689 C 205 689 180 684 156 675 C 132 666 111 656 93 644 L 71 689 C 91 703 116 716 144 726 C 172 736 205 742 242 742 C 289 742 327 730 356 707 C 385 683 400 646 400 594 L 400 307 Z M 345 414 L 345 537 L 222 530 C 186 527 156 519 132 505 C 108 491 97 468 97 436 C 97 409 107 388 127 373 C 147 357 174 350 206 350 C 232 350 258 355 284 367 C 310 378 330 394 345 414 Z M 411 196 L 45 196 L 45 250 L 411 250 L 411 196 Z" unicode="ª" />
<glyph horiz-adv-x="422" d="M 197 104 L 29 271 L 29 313 L 197 479 L 197 412 L 86 292 L 197 175 L 197 104 Z M 391 104 L 223 271 L 223 313 L 391 479 L 391 412 L 280 292 L 391 175 L 391 104 Z" unicode="«" />
<glyph horiz-adv-x="497" d="M 448 370 L 448 135 L 393 135 L 393 313 L 32 313 L 32 370 L 448 370 Z" unicode="¬" />
<glyph horiz-adv-x="831" d="M 415 6 C 364 6 316 15 272 35 C 227 54 188 80 155 114 C 121 147 95 186 76 231 C 56 276 47 324 47 374 C 47 424 56 472 76 517 C 95 561 121 600 155 634 C 188 667 227 693 272 713 C 316 732 364 742 415 742 C 465 742 513 732 558 713 C 602 693 641 667 675 634 C 708 600 734 561 754 517 C 773 472 783 424 783 374 C 783 324 773 276 754 231 C 734 186 708 147 675 114 C 641 80 602 54 558 35 C 513 15 465 6 415 6 Z M 415 50 C 459 50 500 58 540 75 C 580 92 614 115 643 144 C 672 173 695 207 712 247 C 729 286 738 328 738 374 C 738 419 729 461 712 501 C 695 540 672 574 643 603 C 614 632 580 655 540 672 C 500 689 459 698 415 698 C 371 698 329 689 289 672 C 249 655 215 632 186 603 C 157 574 134 540 117 500 C 100 460 92 418 92 374 C 92 329 100 287 117 247 C 134 207 157 173 186 144 C 215 115 249 92 289 75 C 329 58 371 50 415 50 Z M 282 167 L 282 601 L 432 601 C 450 601 467 598 484 594 C 501 589 516 582 529 573 C 542 563 553 551 561 536 C 569 520 573 502 573 482 C 573 444 562 415 540 396 C 518 376 495 365 471 362 L 470 358 L 607 167 L 546 167 L 420 347 L 335 347 L 335 167 L 282 167 Z M 335 392 L 438 392 C 458 392 477 399 495 413 C 512 427 521 449 522 477 C 522 505 512 524 494 536 C 476 548 453 554 427 554 L 335 554 L 335 392 Z" unicode="®" />
<glyph horiz-adv-x="500" d="M 371 569 L 129 569 L 129 621 L 371 621 L 371 569 Z" unicode="¯" />
<glyph horiz-adv-x="425" d="M 212 377 C 186 377 163 381 141 391 C 119 401 99 414 83 430 C 67 446 54 466 44 488 C 34 510 30 534 30 560 C 30 585 34 609 44 631 C 54 653 67 672 83 688 C 99 704 119 717 141 727 C 163 737 186 742 212 742 C 237 742 261 737 283 727 C 305 717 325 704 341 688 C 357 672 370 653 380 631 C 390 609 395 585 395 560 C 395 534 390 510 380 488 C 370 466 357 446 341 430 C 325 414 305 401 283 391 C 261 381 237 377 212 377 Z M 212 430 C 248 430 278 442 304 468 C 330 493 343 524 343 560 C 343 595 330 625 304 651 C 278 677 248 690 212 690 C 176 690 146 677 120 651 C 94 625 82 595 82 560 C 82 524 94 493 120 468 C 146 442 176 430 212 430 Z" unicode="°" />
<glyph horiz-adv-x="497" d="M 469 305 L 276 305 L 276 116 L 221 116 L 221 305 L 28 305 L 28 356 L 221 356 L 221 546 L 276 546 L 276 356 L 469 356 L 469 305 Z M 463 30 L 36 30 L 36 80 L 463 80 L 463 30 Z" unicode="±" />
<glyph horiz-adv-x="334" d="M 304 372 L 26 372 L 26 393 L 196 547 C 204 555 213 565 222 578 C 231 590 236 605 236 623 C 236 641 229 657 215 671 C 201 685 181 692 155 692 C 125 692 104 683 91 666 C 78 649 71 629 71 607 L 19 607 C 19 641 31 672 55 700 C 79 727 114 741 160 741 C 204 741 237 730 260 709 C 282 688 294 663 294 634 C 294 607 288 585 278 567 C 267 549 256 535 244 525 L 122 420 L 304 420 L 304 372 Z" unicode="²" />
<glyph horiz-adv-x="346" d="M 222 569 C 251 565 274 554 290 538 C 306 521 315 501 315 477 C 315 464 312 451 307 438 C 302 424 294 412 282 401 C 270 390 254 381 234 374 C 214 367 190 364 161 364 C 122 364 91 368 68 378 C 45 387 27 397 14 407 L 46 440 C 58 432 73 424 92 418 C 111 412 134 409 160 409 C 196 409 222 416 238 431 C 254 445 263 463 263 484 C 263 507 253 523 234 531 C 215 539 193 544 169 544 L 98 544 L 98 586 L 165 586 C 189 586 209 590 224 600 C 238 610 246 624 246 643 C 246 658 239 671 226 681 C 212 691 192 696 164 696 C 139 696 118 691 100 682 C 82 672 68 661 58 649 L 26 679 C 38 695 56 709 78 722 C 100 735 131 742 171 742 C 213 742 245 733 267 716 C 289 698 300 677 300 653 C 300 631 292 612 277 598 C 262 583 244 573 222 569 Z" unicode="³" />
<glyph horiz-adv-x="500" d="M 170 543 L 268 710 L 344 710 L 235 543 L 170 543 Z" unicode="´" />
<glyph horiz-adv-x="594" d="M 80 -133 L 80 491 L 144 491 L 144 156 C 144 122 157 94 184 74 C 211 53 243 43 280 43 C 298 43 317 46 336 52 C 354 58 371 67 386 79 C 400 91 412 107 422 125 C 431 143 436 165 436 190 L 436 491 L 500 491 L 500 0 L 441 0 L 441 109 C 431 77 410 49 377 27 C 343 4 307 -7 268 -8 C 239 -8 213 -2 189 10 C 165 22 148 39 140 62 L 140 -133 L 80 -133 Z" unicode="µ" />
<glyph horiz-adv-x="629" d="M 560 -179 L 514 -179 L 514 678 L 395 678 L 395 -179 L 349 -179 L 349 268 L 255 268 C 225 268 197 274 169 286 C 141 298 117 315 96 336 C 75 356 58 380 46 408 C 33 436 27 465 27 496 C 27 529 33 560 45 589 C 57 617 73 642 95 663 C 116 683 142 700 173 712 C 203 724 237 730 274 730 L 560 730 L 560 -179 Z M 350 323 L 350 676 L 292 676 C 238 676 195 659 163 625 C 131 591 115 548 115 498 C 115 474 119 452 128 431 C 136 409 148 391 163 375 C 177 359 195 346 215 337 C 235 327 256 323 280 323 L 350 323 Z" unicode="¶" />
<glyph horiz-adv-x="231" d="M 149 293 L 83 293 L 83 409 L 149 409 L 149 293 Z" unicode="·" />
<glyph horiz-adv-x="500" d="M 253 -184 C 231 -184 208 -181 186 -175 C 164 -169 146 -161 133 -152 L 144 -122 C 154 -128 167 -134 183 -140 C 199 -146 216 -149 236 -149 C 252 -149 267 -145 280 -137 C 292 -129 299 -118 299 -106 C 299 -91 293 -81 282 -75 C 270 -69 258 -66 246 -66 C 237 -66 229 -66 223 -68 C 217 -69 210 -71 202 -74 L 191 -61 L 247 10 L 286 10 L 238 -53 C 271 -44 299 -46 323 -58 C 346 -70 358 -87 358 -111 C 358 -135 347 -153 327 -165 C 306 -177 281 -184 253 -184 Z" unicode="¸" />
<glyph horiz-adv-x="320" d="M 150 372 L 150 673 C 143 661 130 650 110 640 C 90 630 71 623 55 621 L 53 678 C 77 682 98 689 116 700 C 134 710 151 724 168 741 L 211 741 L 211 372 L 150 372 Z" unicode="¹" />
<glyph horiz-adv-x="456" d="M 225 300 C 199 300 174 305 150 315 C 126 325 105 340 87 359 C 69 377 54 400 43 427 C 32 453 27 483 27 517 C 27 546 32 574 42 601 C 52 627 67 651 85 671 C 103 691 125 708 149 720 C 173 732 200 739 228 739 C 256 739 283 733 307 723 C 331 712 353 697 371 679 C 389 661 403 638 413 612 C 423 586 429 557 429 527 C 429 495 423 465 413 437 C 402 409 388 385 370 365 C 352 345 330 329 305 317 C 280 305 253 300 225 300 Z M 227 352 C 269 352 303 368 330 401 C 357 433 371 474 371 523 C 371 569 358 608 332 640 C 306 672 271 688 226 688 C 185 688 151 671 125 638 C 98 605 85 565 85 517 C 85 468 98 428 126 398 C 153 367 187 352 227 352 Z M 46 196 L 46 250 L 407 250 L 407 196 L 46 196 Z" unicode="º" />
<glyph horiz-adv-x="424" d="M 31 480 L 199 312 L 199 270 L 31 104 L 31 171 L 142 292 L 31 408 L 31 480 Z M 227 480 L 395 312 L 395 270 L 227 104 L 227 171 L 338 292 L 227 408 L 227 480 Z" unicode="»" />
<glyph horiz-adv-x="690" d="M 9 0 L 9 0 Z M 106 372 L 106 673 C 99 661 86 650 66 640 C 46 630 27 623 11 621 L 9 678 C 33 682 54 689 72 700 C 90 710 107 724 124 741 L 167 741 L 167 372 L 106 372 Z M 565 730 L 178 0 L 121 0 L 507 730 L 565 730 Z M 382 88 L 382 128 L 575 368 L 614 368 L 614 131 L 679 131 L 679 88 L 614 88 L 614 1 L 560 1 L 560 88 L 382 88 Z M 432 125 L 561 125 L 561 290 L 432 125 Z" unicode="¼" />
<glyph horiz-adv-x="748" d="M 9 0 L 9 0 Z M 106 372 L 106 673 C 99 661 86 650 66 640 C 46 630 27 623 11 621 L 9 678 C 33 682 54 689 72 700 C 90 710 107 724 124 741 L 167 741 L 167 372 L 106 372 Z M 565 730 L 178 0 L 121 0 L 507 730 L 565 730 Z M 730 0 L 452 0 L 452 21 L 622 175 C 630 183 639 193 648 206 C 657 218 662 233 662 251 C 662 269 655 285 641 299 C 627 313 607 320 581 320 C 551 320 530 311 517 294 C 504 277 497 257 497 235 L 445 235 C 445 269 457 300 481 328 C 505 355 540 369 586 369 C 630 369 663 358 686 337 C 708 316 720 291 720 262 C 720 235 714 213 704 195 C 693 177 682 163 670 153 L 548 48 L 730 48 L 730 0 Z" unicode="½" />
<glyph horiz-adv-x="754" d="M 11 0 L 11 0 Z M 630 730 L 243 0 L 186 0 L 572 730 L 630 730 Z M 447 88 L 447 128 L 640 368 L 679 368 L 679 131 L 744 131 L 744 88 L 679 88 L 679 1 L 625 1 L 625 88 L 447 88 Z M 497 125 L 626 125 L 626 290 L 497 125 Z M 219 569 C 248 565 271 554 287 538 C 303 521 312 501 312 477 C 312 464 309 451 304 438 C 299 424 291 412 279 401 C 267 390 251 381 231 374 C 211 367 187 364 158 364 C 119 364 88 368 65 378 C 42 387 24 397 11 407 L 43 440 C 55 432 70 424 89 418 C 108 412 131 409 157 409 C 193 409 219 416 235 431 C 251 445 260 463 260 484 C 260 507 250 523 231 531 C 212 539 190 544 166 544 L 95 544 L 95 586 L 162 586 C 186 586 206 590 221 600 C 235 610 243 624 243 643 C 243 658 236 671 223 681 C 209 691 189 696 161 696 C 136 696 115 691 97 682 C 79 672 65 661 55 649 L 23 679 C 35 695 53 709 75 722 C 97 735 128 742 168 742 C 210 742 242 733 264 716 C 286 698 297 677 297 653 C 297 631 289 612 274 598 C 259 583 241 573 219 569 Z" unicode="¾" />
<glyph horiz-adv-x="451" d="M 209 515 L 209 608 L 282 608 L 282 515 L 209 515 Z M 225 -131 C 168 -131 121 -116 83 -87 C 45 -57 27 -15 27 39 C 27 64 31 87 39 107 C 47 127 58 146 70 162 C 82 178 95 193 110 207 C 125 220 139 232 152 243 C 178 265 195 293 203 326 C 210 358 214 390 215 421 L 279 421 C 279 371 274 331 264 301 C 254 271 234 242 205 216 C 193 206 181 195 168 184 C 155 172 143 160 133 147 C 122 133 113 118 106 102 C 99 86 96 67 96 47 C 96 10 109 -18 135 -40 C 161 -61 193 -72 233 -72 C 266 -72 296 -64 323 -48 C 349 -32 372 -13 390 9 L 433 -31 C 410 -60 381 -84 345 -103 C 309 -121 269 -131 225 -131 Z" unicode="¿" />
<glyph horiz-adv-x="585" d="M 4 0 L 4 0 Z M 581 0 L 510 0 L 430 219 L 150 219 L 73 0 L 4 0 L 271 734 L 316 734 L 581 0 Z M 413 275 L 290 619 L 167 275 L 413 275 Z M 291 789 L 291 789 Z M 378 789 L 314 789 L 204 956 L 280 956 L 378 789 Z" unicode="À" />
<glyph horiz-adv-x="585" d="M 4 0 L 4 0 Z M 581 0 L 510 0 L 430 219 L 150 219 L 73 0 L 4 0 L 271 734 L 316 734 L 581 0 Z M 413 275 L 290 619 L 167 275 L 413 275 Z M 291 791 L 291 791 Z M 204 791 L 302 958 L 378 958 L 269 791 L 204 791 Z" unicode="Á" />
<glyph horiz-adv-x="585" d="M 4 0 L 4 0 Z M 581 0 L 510 0 L 430 219 L 150 219 L 73 0 L 4 0 L 271 734 L 316 734 L 581 0 Z M 413 275 L 290 619 L 167 275 L 413 275 Z M 291 790 L 291 790 Z M 437 790 L 377 790 L 291 916 L 203 790 L 146 790 L 260 960 L 323 960 L 437 790 Z" unicode="Â" />
<glyph horiz-adv-x="585" d="M 4 0 L 4 0 Z M 581 0 L 510 0 L 430 219 L 150 219 L 73 0 L 4 0 L 271 734 L 316 734 L 581 0 Z M 413 275 L 290 619 L 167 275 L 413 275 Z M 291 798 L 291 798 Z M 396 926 L 446 926 C 446 882 439 850 427 829 C 415 808 398 798 378 798 C 360 798 344 802 330 811 C 316 820 303 829 293 838 C 282 846 271 855 260 864 C 249 872 238 877 228 877 C 217 877 208 870 200 858 C 192 845 187 827 187 803 L 137 803 C 137 846 145 878 161 899 C 177 920 195 931 215 931 C 231 931 246 926 259 917 C 271 908 284 899 296 889 C 306 880 316 872 326 864 C 336 856 347 852 358 852 C 368 852 377 858 385 871 C 392 884 396 902 396 926 Z" unicode="Ã" />
<glyph horiz-adv-x="585" d="M 4 0 L 4 0 Z M 581 0 L 510 0 L 430 219 L 150 219 L 73 0 L 4 0 L 271 734 L 316 734 L 581 0 Z M 413 275 L 290 619 L 167 275 L 413 275 Z M 291 791 L 291 791 Z M 400 791 L 345 791 L 345 946 L 400 946 L 400 791 Z M 235 791 L 180 791 L 180 946 L 235 946 L 235 791 Z" unicode="Ä" />
<glyph horiz-adv-x="585" d="M 4 0 L 4 0 Z M 581 0 L 510 0 L 430 219 L 150 219 L 73 0 L 4 0 L 271 734 L 316 734 L 581 0 Z M 413 275 L 290 619 L 167 275 L 413 275 Z M 291 786 L 291 786 Z M 291 786 C 259 786 233 797 211 819 C 189 841 178 868 178 900 C 178 931 189 958 211 980 C 233 1002 259 1013 291 1013 C 323 1013 350 1002 372 980 C 394 958 405 931 405 900 C 405 868 394 841 372 819 C 350 797 323 786 291 786 Z M 291 826 C 311 826 328 833 342 847 C 356 861 363 879 363 900 C 363 920 356 938 342 952 C 328 966 311 974 291 974 C 271 974 254 966 240 952 C 226 938 219 920 219 900 C 219 879 226 861 240 847 C 254 833 271 826 291 826 Z" unicode="Å" />
<glyph horiz-adv-x="872" d="M 828 0 L 454 0 L 454 254 L 216 254 L 67 0 L -6 0 L 421 730 L 810 730 L 810 669 L 520 669 L 520 392 L 800 392 L 800 333 L 520 333 L 520 61 L 828 61 L 828 0 Z M 454 311 L 454 672 L 247 311 L 454 311 Z" unicode="Æ" />
<glyph horiz-adv-x="653" d="M 46 0 L 46 0 Z M 365 -10 C 322 -10 281 -1 242 15 C 203 31 169 55 141 87 C 112 119 89 158 72 205 C 54 251 46 305 46 365 C 46 421 53 472 69 518 C 85 564 107 603 135 636 C 163 669 196 695 236 713 C 275 731 318 740 366 740 C 428 740 479 729 519 707 C 559 685 591 655 616 619 L 563 578 C 543 606 517 629 486 648 C 455 666 415 676 367 676 C 291 676 230 648 185 592 C 140 536 118 460 118 363 C 118 311 125 265 139 226 C 153 187 172 155 196 129 C 219 103 246 84 276 71 C 306 58 338 52 370 52 C 420 52 462 62 497 84 C 531 106 559 133 581 166 L 631 131 C 605 89 570 55 525 29 C 480 3 427 -10 365 -10 Z M 356 -5 L 356 -5 Z M 363 -189 C 341 -189 318 -186 296 -180 C 274 -174 256 -166 243 -157 L 254 -127 C 264 -133 277 -139 293 -145 C 309 -151 326 -154 346 -154 C 362 -154 377 -150 390 -142 C 402 -134 409 -123 409 -111 C 409 -96 403 -86 392 -80 C 380 -74 368 -71 356 -71 C 347 -71 339 -71 333 -73 C 327 -74 320 -76 312 -79 L 301 -66 L 357 5 L 396 5 L 348 -58 C 381 -49 409 -51 433 -63 C 456 -75 468 -92 468 -116 C 468 -140 457 -158 437 -170 C 416 -182 391 -189 363 -189 Z" unicode="Ç" />
<glyph horiz-adv-x="511" d="M 90 0 L 90 0 Z M 467 0 L 90 0 L 90 730 L 449 730 L 449 668 L 159 668 L 159 393 L 438 393 L 438 332 L 159 332 L 159 62 L 467 62 L 467 0 Z M 273 789 L 273 789 Z M 360 789 L 296 789 L 186 956 L 262 956 L 360 789 Z" unicode="È" />
<glyph horiz-adv-x="511" d="M 90 0 L 90 0 Z M 467 0 L 90 0 L 90 730 L 449 730 L 449 668 L 159 668 L 159 393 L 438 393 L 438 332 L 159 332 L 159 62 L 467 62 L 467 0 Z M 273 791 L 273 791 Z M 186 791 L 284 958 L 360 958 L 251 791 L 186 791 Z" unicode="É" />
<glyph horiz-adv-x="511" d="M 90 0 L 90 0 Z M 467 0 L 90 0 L 90 730 L 449 730 L 449 668 L 159 668 L 159 393 L 438 393 L 438 332 L 159 332 L 159 62 L 467 62 L 467 0 Z M 273 790 L 273 790 Z M 419 790 L 359 790 L 273 916 L 185 790 L 128 790 L 242 960 L 305 960 L 419 790 Z" unicode="Ê" />
<glyph horiz-adv-x="511" d="M 90 0 L 90 0 Z M 467 0 L 90 0 L 90 730 L 449 730 L 449 668 L 159 668 L 159 393 L 438 393 L 438 332 L 159 332 L 159 62 L 467 62 L 467 0 Z M 273 791 L 273 791 Z M 382 791 L 327 791 L 327 946 L 382 946 L 382 791 Z M 217 791 L 162 791 L 162 946 L 217 946 L 217 791 Z" unicode="Ë" />
<glyph horiz-adv-x="259" d="M 42 0 L 42 0 Z M 165 0 L 95 0 L 95 730 L 165 730 L 165 0 Z M 129 789 L 129 789 Z M 216 789 L 152 789 L 42 956 L 118 956 L 216 789 Z" unicode="Ì" />
<glyph horiz-adv-x="259" d="M 42 0 L 42 0 Z M 165 0 L 95 0 L 95 730 L 165 730 L 165 0 Z M 129 791 L 129 791 Z M 42 791 L 140 958 L 216 958 L 107 791 L 42 791 Z" unicode="Í" />
<glyph horiz-adv-x="259" d="M 0 0 L 0 0 Z M 165 0 L 95 0 L 95 730 L 165 730 L 165 0 Z M 129 790 L 129 790 Z M 275 790 L 215 790 L 129 916 L 41 790 L -16 790 L 98 960 L 161 960 L 275 790 Z" unicode="Î" />
<glyph horiz-adv-x="259" d="M 18 0 L 18 0 Z M 165 0 L 95 0 L 95 730 L 165 730 L 165 0 Z M 129 791 L 129 791 Z M 238 791 L 183 791 L 183 946 L 238 946 L 238 791 Z M 73 791 L 18 791 L 18 946 L 73 946 L 73 791 Z" unicode="Ï" />
<glyph horiz-adv-x="672" d="M 626 366 C 626 315 618 267 602 223 C 586 178 563 139 533 107 C 503 74 465 48 419 29 C 373 9 321 0 261 0 L 90 0 L 90 332 L 31 332 L 31 387 L 90 387 L 90 730 L 272 730 C 327 730 377 721 421 704 C 465 687 502 663 532 632 C 562 600 586 562 602 517 C 618 472 626 422 626 366 Z M 159 56 L 253 56 C 307 56 353 64 391 81 C 429 97 460 120 484 148 C 508 176 526 208 537 246 C 548 283 554 322 554 364 C 554 462 528 538 478 592 C 428 646 359 673 272 673 L 159 673 L 159 387 L 350 387 L 350 332 L 159 332 L 159 56 Z" unicode="Ð" />
<glyph horiz-adv-x="704" d="M 90 0 L 90 0 Z M 614 0 L 563 0 L 156 592 L 156 0 L 90 0 L 90 730 L 143 730 L 549 138 L 549 730 L 614 730 L 614 0 Z M 353 798 L 353 798 Z M 458 926 L 508 926 C 508 882 501 850 489 829 C 477 808 460 798 440 798 C 422 798 406 802 392 811 C 378 820 365 829 355 838 C 344 846 333 855 322 864 C 311 872 300 877 290 877 C 279 877 270 870 262 858 C 254 845 249 827 249 803 L 199 803 C 199 846 207 878 223 899 C 239 920 257 931 277 931 C 293 931 308 926 321 917 C 333 908 346 899 358 889 C 368 880 378 872 388 864 C 398 856 409 852 420 852 C 430 852 439 858 447 871 C 454 884 458 902 458 926 Z" unicode="Ñ" />
<glyph horiz-adv-x="756" d="M 46 0 L 46 0 Z M 381 -10 C 331 -10 286 -1 245 17 C 204 35 169 60 140 93 C 110 126 87 166 71 213 C 54 260 46 312 46 370 C 46 424 54 474 71 520 C 87 566 110 605 139 637 C 168 669 203 695 243 713 C 283 731 327 740 374 740 C 424 740 469 731 511 713 C 553 695 588 669 618 637 C 647 605 670 565 686 519 C 702 473 710 422 710 366 C 710 310 701 258 684 212 C 666 166 643 126 614 93 C 584 60 549 35 509 17 C 469 -1 426 -10 381 -10 Z M 382 50 C 418 50 451 57 483 72 C 514 86 541 107 564 135 C 587 162 605 195 618 235 C 631 275 638 320 638 370 C 638 416 631 458 618 496 C 604 534 586 566 563 593 C 539 620 511 641 479 656 C 447 670 412 678 374 678 C 336 678 301 670 270 656 C 238 642 211 621 189 595 C 166 569 148 536 136 497 C 124 458 118 414 118 366 C 118 316 125 271 139 232 C 153 192 171 159 195 133 C 219 106 247 85 279 71 C 311 57 346 50 382 50 Z M 375 789 L 375 789 Z M 462 789 L 398 789 L 288 956 L 364 956 L 462 789 Z" unicode="Ò" />
<glyph horiz-adv-x="756" d="M 46 0 L 46 0 Z M 381 -10 C 331 -10 286 -1 245 17 C 204 35 169 60 140 93 C 110 126 87 166 71 213 C 54 260 46 312 46 370 C 46 424 54 474 71 520 C 87 566 110 605 139 637 C 168 669 203 695 243 713 C 283 731 327 740 374 740 C 424 740 469 731 511 713 C 553 695 588 669 618 637 C 647 605 670 565 686 519 C 702 473 710 422 710 366 C 710 310 701 258 684 212 C 666 166 643 126 614 93 C 584 60 549 35 509 17 C 469 -1 426 -10 381 -10 Z M 382 50 C 418 50 451 57 483 72 C 514 86 541 107 564 135 C 587 162 605 195 618 235 C 631 275 638 320 638 370 C 638 416 631 458 618 496 C 604 534 586 566 563 593 C 539 620 511 641 479 656 C 447 670 412 678 374 678 C 336 678 301 670 270 656 C 238 642 211 621 189 595 C 166 569 148 536 136 497 C 124 458 118 414 118 366 C 118 316 125 271 139 232 C 153 192 171 159 195 133 C 219 106 247 85 279 71 C 311 57 346 50 382 50 Z M 375 791 L 375 791 Z M 288 791 L 386 958 L 462 958 L 353 791 L 288 791 Z" unicode="Ó" />
<glyph horiz-adv-x="756" d="M 46 0 L 46 0 Z M 381 -10 C 331 -10 286 -1 245 17 C 204 35 169 60 140 93 C 110 126 87 166 71 213 C 54 260 46 312 46 370 C 46 424 54 474 71 520 C 87 566 110 605 139 637 C 168 669 203 695 243 713 C 283 731 327 740 374 740 C 424 740 469 731 511 713 C 553 695 588 669 618 637 C 647 605 670 565 686 519 C 702 473 710 422 710 366 C 710 310 701 258 684 212 C 666 166 643 126 614 93 C 584 60 549 35 509 17 C 469 -1 426 -10 381 -10 Z M 382 50 C 418 50 451 57 483 72 C 514 86 541 107 564 135 C 587 162 605 195 618 235 C 631 275 638 320 638 370 C 638 416 631 458 618 496 C 604 534 586 566 563 593 C 539 620 511 641 479 656 C 447 670 412 678 374 678 C 336 678 301 670 270 656 C 238 642 211 621 189 595 C 166 569 148 536 136 497 C 124 458 118 414 118 366 C 118 316 125 271 139 232 C 153 192 171 159 195 133 C 219 106 247 85 279 71 C 311 57 346 50 382 50 Z M 375 790 L 375 790 Z M 521 790 L 461 790 L 375 916 L 287 790 L 230 790 L 344 960 L 407 960 L 521 790 Z" unicode="Ô" />
<glyph horiz-adv-x="756" d="M 46 0 L 46 0 Z M 381 -10 C 331 -10 286 -1 245 17 C 204 35 169 60 140 93 C 110 126 87 166 71 213 C 54 260 46 312 46 370 C 46 424 54 474 71 520 C 87 566 110 605 139 637 C 168 669 203 695 243 713 C 283 731 327 740 374 740 C 424 740 469 731 511 713 C 553 695 588 669 618 637 C 647 605 670 565 686 519 C 702 473 710 422 710 366 C 710 310 701 258 684 212 C 666 166 643 126 614 93 C 584 60 549 35 509 17 C 469 -1 426 -10 381 -10 Z M 382 50 C 418 50 451 57 483 72 C 514 86 541 107 564 135 C 587 162 605 195 618 235 C 631 275 638 320 638 370 C 638 416 631 458 618 496 C 604 534 586 566 563 593 C 539 620 511 641 479 656 C 447 670 412 678 374 678 C 336 678 301 670 270 656 C 238 642 211 621 189 595 C 166 569 148 536 136 497 C 124 458 118 414 118 366 C 118 316 125 271 139 232 C 153 192 171 159 195 133 C 219 106 247 85 279 71 C 311 57 346 50 382 50 Z M 375 798 L 375 798 Z M 480 926 L 530 926 C 530 882 523 850 511 829 C 499 808 482 798 462 798 C 444 798 428 802 414 811 C 400 820 387 829 377 838 C 366 846 355 855 344 864 C 333 872 322 877 312 877 C 301 877 292 870 284 858 C 276 845 271 827 271 803 L 221 803 C 221 846 229 878 245 899 C 261 920 279 931 299 931 C 315 931 330 926 343 917 C 355 908 368 899 380 889 C 390 880 400 872 410 864 C 420 856 431 852 442 852 C 452 852 461 858 469 871 C 476 884 480 902 480 926 Z" unicode="Õ" />
<glyph horiz-adv-x="756" d="M 46 0 L 46 0 Z M 381 -10 C 331 -10 286 -1 245 17 C 204 35 169 60 140 93 C 110 126 87 166 71 213 C 54 260 46 312 46 370 C 46 424 54 474 71 520 C 87 566 110 605 139 637 C 168 669 203 695 243 713 C 283 731 327 740 374 740 C 424 740 469 731 511 713 C 553 695 588 669 618 637 C 647 605 670 565 686 519 C 702 473 710 422 710 366 C 710 310 701 258 684 212 C 666 166 643 126 614 93 C 584 60 549 35 509 17 C 469 -1 426 -10 381 -10 Z M 382 50 C 418 50 451 57 483 72 C 514 86 541 107 564 135 C 587 162 605 195 618 235 C 631 275 638 320 638 370 C 638 416 631 458 618 496 C 604 534 586 566 563 593 C 539 620 511 641 479 656 C 447 670 412 678 374 678 C 336 678 301 670 270 656 C 238 642 211 621 189 595 C 166 569 148 536 136 497 C 124 458 118 414 118 366 C 118 316 125 271 139 232 C 153 192 171 159 195 133 C 219 106 247 85 279 71 C 311 57 346 50 382 50 Z M 375 791 L 375 791 Z M 484 791 L 429 791 L 429 946 L 484 946 L 484 791 Z M 319 791 L 264 791 L 264 946 L 319 946 L 319 791 Z" unicode="Ö" />
<glyph horiz-adv-x="497" d="M 108 154 L 72 191 L 212 331 L 73 470 L 109 507 L 249 367 L 389 507 L 425 470 L 285 331 L 425 191 L 389 153 L 249 294 L 108 154 Z" unicode="×" />
<glyph horiz-adv-x="756" d="M 710 366 C 710 310 701 258 684 212 C 666 166 643 126 614 93 C 584 60 549 35 509 17 C 469 -1 426 -10 381 -10 C 335 -10 293 -2 254 13 C 215 29 181 51 153 80 L 86 5 L 51 36 L 122 116 C 98 148 79 185 66 228 C 52 271 46 318 46 370 C 46 424 54 474 71 520 C 87 566 110 605 139 637 C 168 669 203 695 243 713 C 283 731 327 740 374 740 C 420 740 462 732 500 717 C 538 702 572 681 601 654 L 677 739 L 712 709 L 633 620 C 657 588 676 550 690 507 C 703 464 710 417 710 366 Z M 118 366 C 118 326 122 289 131 256 C 140 222 153 193 169 168 L 555 602 C 532 626 505 645 474 658 C 443 671 410 678 374 678 C 336 678 301 670 270 656 C 238 642 211 621 189 595 C 166 569 148 536 136 497 C 124 458 118 414 118 366 Z M 638 370 C 638 408 633 444 623 477 C 613 510 600 540 584 566 L 198 130 C 221 104 248 84 280 70 C 312 56 346 50 382 50 C 418 50 451 57 483 72 C 514 86 541 107 564 135 C 587 162 605 195 618 235 C 631 275 638 320 638 370 Z" unicode="Ø" />
<glyph horiz-adv-x="674" d="M 84 0 L 84 0 Z M 590 730 L 590 248 C 590 206 583 168 570 136 C 556 104 538 77 515 55 C 492 33 465 17 434 6 C 403 -4 370 -10 335 -10 C 301 -10 268 -4 238 6 C 207 16 180 32 158 53 C 135 74 117 101 104 134 C 90 166 84 204 84 248 L 84 730 L 153 730 L 153 244 C 153 213 157 186 167 162 C 177 138 190 118 206 102 C 222 86 242 73 264 65 C 286 56 310 52 335 52 C 360 52 384 56 406 64 C 428 72 448 84 465 100 C 481 116 495 136 505 160 C 515 184 520 212 520 244 L 520 730 L 590 730 Z M 336 789 L 336 789 Z M 423 789 L 359 789 L 249 956 L 325 956 L 423 789 Z" unicode="Ù" />
<glyph horiz-adv-x="674" d="M 84 0 L 84 0 Z M 590 730 L 590 248 C 590 206 583 168 570 136 C 556 104 538 77 515 55 C 492 33 465 17 434 6 C 403 -4 370 -10 335 -10 C 301 -10 268 -4 238 6 C 207 16 180 32 158 53 C 135 74 117 101 104 134 C 90 166 84 204 84 248 L 84 730 L 153 730 L 153 244 C 153 213 157 186 167 162 C 177 138 190 118 206 102 C 222 86 242 73 264 65 C 286 56 310 52 335 52 C 360 52 384 56 406 64 C 428 72 448 84 465 100 C 481 116 495 136 505 160 C 515 184 520 212 520 244 L 520 730 L 590 730 Z M 336 791 L 336 791 Z M 249 791 L 347 958 L 423 958 L 314 791 L 249 791 Z" unicode="Ú" />
<glyph horiz-adv-x="674" d="M 84 0 L 84 0 Z M 590 730 L 590 248 C 590 206 583 168 570 136 C 556 104 538 77 515 55 C 492 33 465 17 434 6 C 403 -4 370 -10 335 -10 C 301 -10 268 -4 238 6 C 207 16 180 32 158 53 C 135 74 117 101 104 134 C 90 166 84 204 84 248 L 84 730 L 153 730 L 153 244 C 153 213 157 186 167 162 C 177 138 190 118 206 102 C 222 86 242 73 264 65 C 286 56 310 52 335 52 C 360 52 384 56 406 64 C 428 72 448 84 465 100 C 481 116 495 136 505 160 C 515 184 520 212 520 244 L 520 730 L 590 730 Z M 336 790 L 336 790 Z M 482 790 L 422 790 L 336 916 L 248 790 L 191 790 L 305 960 L 368 960 L 482 790 Z" unicode="Û" />
<glyph horiz-adv-x="674" d="M 84 0 L 84 0 Z M 590 730 L 590 248 C 590 206 583 168 570 136 C 556 104 538 77 515 55 C 492 33 465 17 434 6 C 403 -4 370 -10 335 -10 C 301 -10 268 -4 238 6 C 207 16 180 32 158 53 C 135 74 117 101 104 134 C 90 166 84 204 84 248 L 84 730 L 153 730 L 153 244 C 153 213 157 186 167 162 C 177 138 190 118 206 102 C 222 86 242 73 264 65 C 286 56 310 52 335 52 C 360 52 384 56 406 64 C 428 72 448 84 465 100 C 481 116 495 136 505 160 C 515 184 520 212 520 244 L 520 730 L 590 730 Z M 336 791 L 336 791 Z M 445 791 L 390 791 L 390 946 L 445 946 L 445 791 Z M 280 791 L 225 791 L 225 946 L 280 946 L 280 791 Z" unicode="Ü" />
<glyph horiz-adv-x="576" d="M 3 0 L 3 0 Z M 573 730 L 321 317 L 321 0 L 251 0 L 251 319 L 3 730 L 81 730 L 290 385 L 501 730 L 573 730 Z M 289 791 L 289 791 Z M 202 791 L 300 958 L 376 958 L 267 791 L 202 791 Z" unicode="Ý" />
<glyph horiz-adv-x="534" d="M 90 0 L 90 730 L 160 730 L 160 593 L 293 593 C 359 593 411 574 449 536 C 487 498 507 447 507 384 C 507 320 487 268 448 228 C 408 188 358 168 298 168 L 160 168 L 160 0 L 90 0 Z M 159 225 L 287 225 C 333 225 369 239 397 267 C 424 295 438 335 438 387 C 438 435 422 472 392 497 C 361 521 324 534 282 534 L 159 534 L 159 225 Z" unicode="Þ" />
<glyph horiz-adv-x="569" d="M 391 -9 C 353 -9 320 -3 292 8 C 264 20 240 36 222 56 L 255 99 C 271 82 290 69 313 59 C 336 49 361 45 387 45 C 411 45 433 52 452 66 C 470 80 480 99 480 125 C 480 146 471 164 455 180 C 438 196 408 212 365 229 C 315 247 281 267 262 288 C 242 308 233 336 233 370 C 233 403 244 430 267 450 C 289 470 315 483 343 487 C 349 491 357 500 366 515 C 374 530 379 557 379 596 C 379 640 367 672 345 694 C 322 716 294 727 262 727 C 230 727 204 716 182 696 C 160 676 150 647 150 609 L 150 0 L 84 0 L 84 613 C 84 665 101 706 135 736 C 169 766 211 781 260 781 C 284 781 308 777 330 769 C 352 761 372 750 388 735 C 404 719 416 700 426 678 C 436 655 441 629 441 600 C 441 554 434 518 420 494 C 406 470 394 455 382 450 C 359 448 338 440 318 428 C 298 415 288 398 288 376 C 288 355 296 338 313 324 C 329 310 359 295 401 279 C 451 259 486 238 508 216 C 529 193 540 163 540 127 C 540 105 535 86 527 69 C 519 52 508 38 494 26 C 480 14 465 6 447 0 C 429 -6 410 -9 391 -9 Z" unicode="ß" />
<glyph horiz-adv-x="470" d="M 31 0 L 31 0 Z M 410 0 L 349 0 L 349 66 C 334 45 313 27 285 13 C 257 0 225 -8 188 -8 C 140 -8 102 5 74 31 C 45 57 31 93 31 139 C 31 190 49 229 85 256 C 121 282 169 297 227 301 L 346 309 L 346 332 C 346 368 335 395 315 413 C 294 430 266 439 232 439 C 201 439 174 433 150 423 C 126 413 106 402 92 391 L 67 438 C 85 452 108 465 137 476 C 166 487 201 493 241 493 C 289 493 330 480 362 455 C 394 430 410 391 410 337 L 410 0 Z M 348 111 L 348 260 L 231 253 C 191 250 159 240 134 222 C 108 204 96 178 96 142 C 96 110 106 85 128 69 C 149 52 175 44 207 44 C 237 44 264 50 290 64 C 316 78 335 93 348 111 Z M 230 541 L 230 541 Z M 317 541 L 253 541 L 143 708 L 219 708 L 317 541 Z" unicode="à" />
<glyph horiz-adv-x="470" d="M 31 0 L 31 0 Z M 410 0 L 349 0 L 349 66 C 334 45 313 27 285 13 C 257 0 225 -8 188 -8 C 140 -8 102 5 74 31 C 45 57 31 93 31 139 C 31 190 49 229 85 256 C 121 282 169 297 227 301 L 346 309 L 346 332 C 346 368 335 395 315 413 C 294 430 266 439 232 439 C 201 439 174 433 150 423 C 126 413 106 402 92 391 L 67 438 C 85 452 108 465 137 476 C 166 487 201 493 241 493 C 289 493 330 480 362 455 C 394 430 410 391 410 337 L 410 0 Z M 348 111 L 348 260 L 231 253 C 191 250 159 240 134 222 C 108 204 96 178 96 142 C 96 110 106 85 128 69 C 149 52 175 44 207 44 C 237 44 264 50 290 64 C 316 78 335 93 348 111 Z M 230 543 L 230 543 Z M 143 543 L 241 710 L 317 710 L 208 543 L 143 543 Z" unicode="á" />
<glyph horiz-adv-x="470" d="M 31 0 L 31 0 Z M 410 0 L 349 0 L 349 66 C 334 45 313 27 285 13 C 257 0 225 -8 188 -8 C 140 -8 102 5 74 31 C 45 57 31 93 31 139 C 31 190 49 229 85 256 C 121 282 169 297 227 301 L 346 309 L 346 332 C 346 368 335 395 315 413 C 294 430 266 439 232 439 C 201 439 174 433 150 423 C 126 413 106 402 92 391 L 67 438 C 85 452 108 465 137 476 C 166 487 201 493 241 493 C 289 493 330 480 362 455 C 394 430 410 391 410 337 L 410 0 Z M 348 111 L 348 260 L 231 253 C 191 250 159 240 134 222 C 108 204 96 178 96 142 C 96 110 106 85 128 69 C 149 52 175 44 207 44 C 237 44 264 50 290 64 C 316 78 335 93 348 111 Z M 230 542 L 230 542 Z M 376 542 L 316 542 L 230 668 L 142 542 L 85 542 L 199 712 L 262 712 L 376 542 Z" unicode="â" />
<glyph horiz-adv-x="470" d="M 31 0 L 31 0 Z M 410 0 L 349 0 L 349 66 C 334 45 313 27 285 13 C 257 0 225 -8 188 -8 C 140 -8 102 5 74 31 C 45 57 31 93 31 139 C 31 190 49 229 85 256 C 121 282 169 297 227 301 L 346 309 L 346 332 C 346 368 335 395 315 413 C 294 430 266 439 232 439 C 201 439 174 433 150 423 C 126 413 106 402 92 391 L 67 438 C 85 452 108 465 137 476 C 166 487 201 493 241 493 C 289 493 330 480 362 455 C 394 430 410 391 410 337 L 410 0 Z M 348 111 L 348 260 L 231 253 C 191 250 159 240 134 222 C 108 204 96 178 96 142 C 96 110 106 85 128 69 C 149 52 175 44 207 44 C 237 44 264 50 290 64 C 316 78 335 93 348 111 Z M 230 550 L 230 550 Z M 335 678 L 385 678 C 385 634 378 602 366 581 C 354 560 337 550 317 550 C 299 550 283 554 269 563 C 255 572 242 581 232 590 C 221 598 210 607 199 616 C 188 624 177 629 167 629 C 156 629 147 622 139 610 C 131 597 126 579 126 555 L 76 555 C 76 598 84 630 100 651 C 116 672 134 683 154 683 C 170 683 185 678 198 669 C 210 660 223 651 235 641 C 245 632 255 624 265 616 C 275 608 286 604 297 604 C 307 604 316 610 324 623 C 331 636 335 654 335 678 Z" unicode="ã" />
<glyph horiz-adv-x="470" d="M 31 0 L 31 0 Z M 410 0 L 349 0 L 349 66 C 334 45 313 27 285 13 C 257 0 225 -8 188 -8 C 140 -8 102 5 74 31 C 45 57 31 93 31 139 C 31 190 49 229 85 256 C 121 282 169 297 227 301 L 346 309 L 346 332 C 346 368 335 395 315 413 C 294 430 266 439 232 439 C 201 439 174 433 150 423 C 126 413 106 402 92 391 L 67 438 C 85 452 108 465 137 476 C 166 487 201 493 241 493 C 289 493 330 480 362 455 C 394 430 410 391 410 337 L 410 0 Z M 348 111 L 348 260 L 231 253 C 191 250 159 240 134 222 C 108 204 96 178 96 142 C 96 110 106 85 128 69 C 149 52 175 44 207 44 C 237 44 264 50 290 64 C 316 78 335 93 348 111 Z M 230 543 L 230 543 Z M 339 543 L 284 543 L 284 698 L 339 698 L 339 543 Z M 174 543 L 119 543 L 119 698 L 174 698 L 174 543 Z" unicode="ä" />
<glyph horiz-adv-x="470" d="M 31 0 L 31 0 Z M 410 0 L 349 0 L 349 66 C 334 45 313 27 285 13 C 257 0 225 -8 188 -8 C 140 -8 102 5 74 31 C 45 57 31 93 31 139 C 31 190 49 229 85 256 C 121 282 169 297 227 301 L 346 309 L 346 332 C 346 368 335 395 315 413 C 294 430 266 439 232 439 C 201 439 174 433 150 423 C 126 413 106 402 92 391 L 67 438 C 85 452 108 465 137 476 C 166 487 201 493 241 493 C 289 493 330 480 362 455 C 394 430 410 391 410 337 L 410 0 Z M 348 111 L 348 260 L 231 253 C 191 250 159 240 134 222 C 108 204 96 178 96 142 C 96 110 106 85 128 69 C 149 52 175 44 207 44 C 237 44 264 50 290 64 C 316 78 335 93 348 111 Z M 230 538 L 230 538 Z M 230 538 C 198 538 172 549 150 571 C 128 593 117 620 117 652 C 117 683 128 710 150 732 C 172 754 198 765 230 765 C 262 765 289 754 311 732 C 333 710 344 683 344 652 C 344 620 333 593 311 571 C 289 549 262 538 230 538 Z M 230 578 C 250 578 267 585 281 599 C 295 613 302 631 302 652 C 302 672 295 690 281 704 C 267 718 250 726 230 726 C 210 726 193 718 179 704 C 165 690 158 672 158 652 C 158 631 165 613 179 599 C 193 585 210 578 230 578 Z" unicode="å" />
<glyph horiz-adv-x="809" d="M 573 -9 C 546 -9 522 -5 500 2 C 478 10 458 20 442 32 C 426 44 412 57 402 72 C 391 87 383 102 379 118 C 369 83 346 53 312 29 C 277 4 236 -8 188 -8 C 144 -8 107 4 78 30 C 48 56 34 92 34 139 C 34 191 52 230 88 256 C 124 282 172 296 230 300 L 353 308 L 353 326 C 353 364 341 393 319 411 C 296 429 268 439 234 439 C 203 439 176 433 152 423 C 128 412 108 401 94 391 L 69 438 C 87 452 111 465 140 476 C 168 486 201 492 237 492 C 278 492 313 482 341 462 C 369 442 386 414 392 376 C 396 389 403 403 413 417 C 423 431 435 443 450 454 C 464 465 481 474 501 481 C 521 488 543 492 569 492 C 633 492 684 468 723 420 C 761 372 781 307 781 226 L 413 226 C 413 169 428 125 458 93 C 488 61 526 46 574 46 C 617 46 649 53 671 68 C 692 83 710 99 725 116 L 763 77 C 743 54 719 34 691 17 C 662 0 623 -9 573 -9 Z M 413 273 L 717 273 C 716 318 702 357 675 389 C 647 421 611 438 565 438 C 520 438 484 422 457 390 C 430 358 415 319 413 273 Z M 207 44 C 244 44 276 55 303 78 C 330 101 347 129 354 162 L 354 260 L 233 252 C 195 249 163 239 137 223 C 111 207 99 180 99 143 C 99 109 109 84 131 68 C 152 52 177 44 207 44 Z" unicode="æ" />
<glyph horiz-adv-x="459" d="M 33 0 L 33 0 Z M 394 130 L 441 97 C 433 85 424 72 414 60 C 404 47 391 36 377 26 C 362 16 345 7 325 1 C 305 -5 282 -9 256 -9 C 222 -9 191 -2 163 10 C 135 22 112 40 93 62 C 73 84 58 110 48 141 C 38 171 33 204 33 240 C 33 274 38 306 49 337 C 60 368 75 395 95 418 C 115 440 138 458 166 472 C 194 485 224 492 258 492 C 282 492 305 488 325 482 C 345 475 362 467 377 457 C 392 447 405 435 416 422 C 426 408 435 395 441 383 L 388 353 C 376 373 360 392 339 409 C 318 426 290 435 256 435 C 232 435 211 429 192 419 C 173 409 157 395 143 378 C 129 360 119 340 111 317 C 103 293 100 268 100 242 C 100 185 114 138 143 102 C 172 66 211 48 259 48 C 278 48 295 50 310 56 C 324 61 337 68 348 76 C 358 84 367 92 375 102 C 382 112 388 121 394 130 Z M 245 -5 L 245 -5 Z M 252 -189 C 230 -189 207 -186 185 -180 C 163 -174 145 -166 132 -157 L 143 -127 C 153 -133 166 -139 182 -145 C 198 -151 215 -154 235 -154 C 251 -154 266 -150 279 -142 C 291 -134 298 -123 298 -111 C 298 -96 292 -86 281 -80 C 269 -74 257 -71 245 -71 C 236 -71 228 -71 222 -73 C 216 -74 209 -76 201 -79 L 190 -66 L 246 5 L 285 5 L 237 -58 C 270 -49 298 -51 322 -63 C 345 -75 357 -92 357 -116 C 357 -140 346 -158 326 -170 C 305 -182 280 -189 252 -189 Z" unicode="ç" />
<glyph horiz-adv-x="496" d="M 33 0 L 33 0 Z M 260 -9 C 227 -9 197 -3 169 8 C 141 19 117 35 97 57 C 77 78 61 104 50 135 C 38 166 33 201 33 240 C 33 276 38 309 49 340 C 60 370 75 397 95 420 C 115 442 138 460 166 473 C 193 485 222 492 254 492 C 318 492 369 468 409 421 C 448 373 468 308 468 225 L 97 225 C 97 170 113 126 143 94 C 173 62 212 46 261 46 C 301 46 333 53 356 68 C 378 82 397 98 412 116 L 450 77 C 431 54 407 34 379 17 C 350 0 310 -9 260 -9 Z M 97 273 L 404 273 C 403 320 389 359 361 391 C 333 423 297 439 253 439 C 208 439 172 422 144 390 C 116 358 100 319 97 273 Z M 252 541 L 252 541 Z M 339 541 L 275 541 L 165 708 L 241 708 L 339 541 Z" unicode="è" />
<glyph horiz-adv-x="496" d="M 33 0 L 33 0 Z M 260 -9 C 227 -9 197 -3 169 8 C 141 19 117 35 97 57 C 77 78 61 104 50 135 C 38 166 33 201 33 240 C 33 276 38 309 49 340 C 60 370 75 397 95 420 C 115 442 138 460 166 473 C 193 485 222 492 254 492 C 318 492 369 468 409 421 C 448 373 468 308 468 225 L 97 225 C 97 170 113 126 143 94 C 173 62 212 46 261 46 C 301 46 333 53 356 68 C 378 82 397 98 412 116 L 450 77 C 431 54 407 34 379 17 C 350 0 310 -9 260 -9 Z M 97 273 L 404 273 C 403 320 389 359 361 391 C 333 423 297 439 253 439 C 208 439 172 422 144 390 C 116 358 100 319 97 273 Z M 252 543 L 252 543 Z M 165 543 L 263 710 L 339 710 L 230 543 L 165 543 Z" unicode="é" />
<glyph horiz-adv-x="496" d="M 33 0 L 33 0 Z M 260 -9 C 227 -9 197 -3 169 8 C 141 19 117 35 97 57 C 77 78 61 104 50 135 C 38 166 33 201 33 240 C 33 276 38 309 49 340 C 60 370 75 397 95 420 C 115 442 138 460 166 473 C 193 485 222 492 254 492 C 318 492 369 468 409 421 C 448 373 468 308 468 225 L 97 225 C 97 170 113 126 143 94 C 173 62 212 46 261 46 C 301 46 333 53 356 68 C 378 82 397 98 412 116 L 450 77 C 431 54 407 34 379 17 C 350 0 310 -9 260 -9 Z M 97 273 L 404 273 C 403 320 389 359 361 391 C 333 423 297 439 253 439 C 208 439 172 422 144 390 C 116 358 100 319 97 273 Z M 252 542 L 252 542 Z M 398 542 L 338 542 L 252 668 L 164 542 L 107 542 L 221 712 L 284 712 L 398 542 Z" unicode="ê" />
<glyph horiz-adv-x="496" d="M 33 0 L 33 0 Z M 260 -9 C 227 -9 197 -3 169 8 C 141 19 117 35 97 57 C 77 78 61 104 50 135 C 38 166 33 201 33 240 C 33 276 38 309 49 340 C 60 370 75 397 95 420 C 115 442 138 460 166 473 C 193 485 222 492 254 492 C 318 492 369 468 409 421 C 448 373 468 308 468 225 L 97 225 C 97 170 113 126 143 94 C 173 62 212 46 261 46 C 301 46 333 53 356 68 C 378 82 397 98 412 116 L 450 77 C 431 54 407 34 379 17 C 350 0 310 -9 260 -9 Z M 97 273 L 404 273 C 403 320 389 359 361 391 C 333 423 297 439 253 439 C 208 439 172 422 144 390 C 116 358 100 319 97 273 Z M 252 543 L 252 543 Z M 361 543 L 306 543 L 306 698 L 361 698 L 361 543 Z M 196 543 L 141 543 L 141 698 L 196 698 L 196 543 Z" unicode="ë" />
<glyph horiz-adv-x="211" d="M 18 0 L 18 0 Z M 138 0 L 73 0 L 73 482 L 138 482 L 138 0 Z M 105 541 L 105 541 Z M 192 541 L 128 541 L 18 708 L 94 708 L 192 541 Z" unicode="ì" />
<glyph horiz-adv-x="211" d="M 18 0 L 18 0 Z M 138 0 L 73 0 L 73 482 L 138 482 L 138 0 Z M 105 543 L 105 543 Z M 18 543 L 116 710 L 192 710 L 83 543 L 18 543 Z" unicode="í" />
<glyph horiz-adv-x="211" d="M 0 0 L 0 0 Z M 138 0 L 73 0 L 73 482 L 138 482 L 138 0 Z M 105 542 L 105 542 Z M 251 542 L 191 542 L 105 668 L 17 542 L -40 542 L 74 712 L 137 712 L 251 542 Z" unicode="î" />
<glyph horiz-adv-x="211" d="M 0 0 L 0 0 Z M 138 0 L 73 0 L 73 482 L 138 482 L 138 0 Z M 105 543 L 105 543 Z M 214 543 L 159 543 L 159 698 L 214 698 L 214 543 Z M 49 543 L -6 543 L -6 698 L 49 698 L 49 543 Z" unicode="ï" />
<glyph horiz-adv-x="522" d="M 483 271 C 483 231 477 193 467 159 C 457 125 442 95 423 70 C 403 45 380 26 352 12 C 324 -2 292 -9 257 -9 C 225 -9 196 -3 169 8 C 141 20 118 36 98 58 C 78 79 62 105 51 135 C 39 165 34 199 34 237 C 34 272 39 305 51 335 C 63 365 78 392 98 414 C 117 436 140 453 166 466 C 192 478 220 485 249 485 C 290 485 325 474 355 453 C 384 431 405 407 417 379 C 412 433 401 482 385 524 C 369 566 350 602 330 632 L 203 582 L 189 623 L 303 667 C 280 693 258 713 236 727 C 214 741 197 750 183 755 L 237 779 C 251 774 268 764 290 749 C 311 734 333 714 355 688 L 429 717 L 443 676 L 382 652 C 408 612 432 560 452 498 C 472 435 483 359 483 271 Z M 257 46 C 305 46 344 64 373 100 C 402 136 417 184 417 242 C 417 298 403 343 375 379 C 347 414 308 432 258 432 C 212 432 174 413 144 377 C 114 340 100 294 100 240 C 100 180 115 133 145 98 C 175 63 212 46 257 46 Z" unicode="ð" />
<glyph horiz-adv-x="511" d="M 70 0 L 70 0 Z M 446 0 L 381 0 L 381 336 C 381 368 370 393 349 411 C 328 429 301 438 269 438 C 253 438 236 435 220 430 C 204 425 189 417 177 406 C 164 395 154 381 146 364 C 138 347 134 327 134 303 L 134 0 L 70 0 L 70 482 L 129 482 L 129 386 C 138 417 157 442 187 462 C 216 482 251 492 291 492 C 335 492 371 480 401 456 C 431 432 446 398 446 354 L 446 0 Z M 261 550 L 261 550 Z M 366 678 L 416 678 C 416 634 409 602 397 581 C 385 560 368 550 348 550 C 330 550 314 554 300 563 C 286 572 273 581 263 590 C 252 598 241 607 230 616 C 219 624 208 629 198 629 C 187 629 178 622 170 610 C 162 597 157 579 157 555 L 107 555 C 107 598 115 630 131 651 C 147 672 165 683 185 683 C 201 683 216 678 229 669 C 241 660 254 651 266 641 C 276 632 286 624 296 616 C 306 608 317 604 328 604 C 338 604 347 610 355 623 C 362 636 366 654 366 678 Z" unicode="ñ" />
<glyph horiz-adv-x="515" d="M 33 0 L 33 0 Z M 256 -9 C 226 -9 197 -3 170 8 C 143 19 119 35 99 57 C 79 78 63 104 51 135 C 39 166 33 201 33 239 C 33 275 38 308 50 339 C 61 370 77 397 97 419 C 117 441 140 459 167 472 C 194 485 223 492 254 492 C 286 492 316 486 344 474 C 372 462 396 446 416 425 C 436 404 452 379 464 349 C 476 319 482 287 482 252 C 482 214 476 180 465 148 C 453 116 438 88 418 65 C 398 42 374 24 346 11 C 318 -2 288 -9 256 -9 Z M 258 47 C 304 47 342 65 371 102 C 400 139 415 187 415 245 C 415 301 400 346 371 382 C 341 418 302 436 253 436 C 209 436 172 417 143 381 C 114 345 100 298 100 242 C 100 180 115 132 146 98 C 176 64 214 47 258 47 Z M 255 541 L 255 541 Z M 342 541 L 278 541 L 168 708 L 244 708 L 342 541 Z" unicode="ò" />
<glyph horiz-adv-x="515" d="M 33 0 L 33 0 Z M 256 -9 C 226 -9 197 -3 170 8 C 143 19 119 35 99 57 C 79 78 63 104 51 135 C 39 166 33 201 33 239 C 33 275 38 308 50 339 C 61 370 77 397 97 419 C 117 441 140 459 167 472 C 194 485 223 492 254 492 C 286 492 316 486 344 474 C 372 462 396 446 416 425 C 436 404 452 379 464 349 C 476 319 482 287 482 252 C 482 214 476 180 465 148 C 453 116 438 88 418 65 C 398 42 374 24 346 11 C 318 -2 288 -9 256 -9 Z M 258 47 C 304 47 342 65 371 102 C 400 139 415 187 415 245 C 415 301 400 346 371 382 C 341 418 302 436 253 436 C 209 436 172 417 143 381 C 114 345 100 298 100 242 C 100 180 115 132 146 98 C 176 64 214 47 258 47 Z M 255 543 L 255 543 Z M 168 543 L 266 710 L 342 710 L 233 543 L 168 543 Z" unicode="ó" />
<glyph horiz-adv-x="515" d="M 33 0 L 33 0 Z M 256 -9 C 226 -9 197 -3 170 8 C 143 19 119 35 99 57 C 79 78 63 104 51 135 C 39 166 33 201 33 239 C 33 275 38 308 50 339 C 61 370 77 397 97 419 C 117 441 140 459 167 472 C 194 485 223 492 254 492 C 286 492 316 486 344 474 C 372 462 396 446 416 425 C 436 404 452 379 464 349 C 476 319 482 287 482 252 C 482 214 476 180 465 148 C 453 116 438 88 418 65 C 398 42 374 24 346 11 C 318 -2 288 -9 256 -9 Z M 258 47 C 304 47 342 65 371 102 C 400 139 415 187 415 245 C 415 301 400 346 371 382 C 341 418 302 436 253 436 C 209 436 172 417 143 381 C 114 345 100 298 100 242 C 100 180 115 132 146 98 C 176 64 214 47 258 47 Z M 255 542 L 255 542 Z M 401 542 L 341 542 L 255 668 L 167 542 L 110 542 L 224 712 L 287 712 L 401 542 Z" unicode="ô" />
<glyph horiz-adv-x="515" d="M 33 0 L 33 0 Z M 256 -9 C 226 -9 197 -3 170 8 C 143 19 119 35 99 57 C 79 78 63 104 51 135 C 39 166 33 201 33 239 C 33 275 38 308 50 339 C 61 370 77 397 97 419 C 117 441 140 459 167 472 C 194 485 223 492 254 492 C 286 492 316 486 344 474 C 372 462 396 446 416 425 C 436 404 452 379 464 349 C 476 319 482 287 482 252 C 482 214 476 180 465 148 C 453 116 438 88 418 65 C 398 42 374 24 346 11 C 318 -2 288 -9 256 -9 Z M 258 47 C 304 47 342 65 371 102 C 400 139 415 187 415 245 C 415 301 400 346 371 382 C 341 418 302 436 253 436 C 209 436 172 417 143 381 C 114 345 100 298 100 242 C 100 180 115 132 146 98 C 176 64 214 47 258 47 Z M 255 550 L 255 550 Z M 360 678 L 410 678 C 410 634 403 602 391 581 C 379 560 362 550 342 550 C 324 550 308 554 294 563 C 280 572 267 581 257 590 C 246 598 235 607 224 616 C 213 624 202 629 192 629 C 181 629 172 622 164 610 C 156 597 151 579 151 555 L 101 555 C 101 598 109 630 125 651 C 141 672 159 683 179 683 C 195 683 210 678 223 669 C 235 660 248 651 260 641 C 270 632 280 624 290 616 C 300 608 311 604 322 604 C 332 604 341 610 349 623 C 356 636 360 654 360 678 Z" unicode="õ" />
<glyph horiz-adv-x="515" d="M 33 0 L 33 0 Z M 256 -9 C 226 -9 197 -3 170 8 C 143 19 119 35 99 57 C 79 78 63 104 51 135 C 39 166 33 201 33 239 C 33 275 38 308 50 339 C 61 370 77 397 97 419 C 117 441 140 459 167 472 C 194 485 223 492 254 492 C 286 492 316 486 344 474 C 372 462 396 446 416 425 C 436 404 452 379 464 349 C 476 319 482 287 482 252 C 482 214 476 180 465 148 C 453 116 438 88 418 65 C 398 42 374 24 346 11 C 318 -2 288 -9 256 -9 Z M 258 47 C 304 47 342 65 371 102 C 400 139 415 187 415 245 C 415 301 400 346 371 382 C 341 418 302 436 253 436 C 209 436 172 417 143 381 C 114 345 100 298 100 242 C 100 180 115 132 146 98 C 176 64 214 47 258 47 Z M 255 543 L 255 543 Z M 364 543 L 309 543 L 309 698 L 364 698 L 364 543 Z M 199 543 L 144 543 L 144 698 L 199 698 L 199 543 Z" unicode="ö" />
<glyph horiz-adv-x="497" d="M 217 447 L 217 555 L 280 555 L 280 447 L 217 447 Z M 28 303 L 28 359 L 468 359 L 468 303 L 28 303 Z M 217 106 L 217 214 L 280 214 L 280 106 L 217 106 Z" unicode="÷" />
<glyph horiz-adv-x="515" d="M 482 252 C 482 214 476 180 465 148 C 453 116 438 88 418 65 C 398 42 374 24 346 11 C 318 -2 288 -9 256 -9 C 228 -9 202 -4 177 5 C 151 15 129 29 109 48 L 65 -2 L 35 25 L 82 78 C 66 98 54 122 46 149 C 37 176 33 206 33 239 C 33 275 38 308 50 339 C 61 370 77 397 97 419 C 117 441 140 459 167 472 C 194 485 223 492 254 492 C 282 492 309 487 334 478 C 359 469 381 456 401 440 L 444 488 L 473 461 L 429 411 C 445 390 458 366 468 340 C 477 313 482 284 482 252 Z M 100 242 C 100 219 102 198 106 179 C 110 159 117 142 126 128 L 361 394 C 347 407 331 417 313 425 C 295 432 275 436 253 436 C 209 436 172 417 143 381 C 114 345 100 298 100 242 Z M 415 245 C 415 267 412 289 407 309 C 402 329 395 346 386 362 L 149 94 C 163 78 179 67 198 59 C 216 51 236 47 258 47 C 304 47 342 65 371 102 C 400 139 415 187 415 245 Z" unicode="ø" />
<glyph horiz-adv-x="511" d="M 65 0 L 65 0 Z M 65 482 L 129 482 L 129 161 C 129 120 140 90 162 72 C 184 53 213 44 248 44 C 282 44 312 55 338 77 C 364 99 377 133 377 179 L 377 482 L 441 482 L 441 0 L 381 0 L 381 95 C 372 66 354 41 326 21 C 298 1 263 -9 223 -9 C 179 -9 141 3 111 28 C 80 53 65 92 65 144 L 65 482 Z M 253 541 L 253 541 Z M 340 541 L 276 541 L 166 708 L 242 708 L 340 541 Z" unicode="ù" />
<glyph horiz-adv-x="511" d="M 65 0 L 65 0 Z M 65 482 L 129 482 L 129 161 C 129 120 140 90 162 72 C 184 53 213 44 248 44 C 282 44 312 55 338 77 C 364 99 377 133 377 179 L 377 482 L 441 482 L 441 0 L 381 0 L 381 95 C 372 66 354 41 326 21 C 298 1 263 -9 223 -9 C 179 -9 141 3 111 28 C 80 53 65 92 65 144 L 65 482 Z M 253 543 L 253 543 Z M 166 543 L 264 710 L 340 710 L 231 543 L 166 543 Z" unicode="ú" />
<glyph horiz-adv-x="511" d="M 65 0 L 65 0 Z M 65 482 L 129 482 L 129 161 C 129 120 140 90 162 72 C 184 53 213 44 248 44 C 282 44 312 55 338 77 C 364 99 377 133 377 179 L 377 482 L 441 482 L 441 0 L 381 0 L 381 95 C 372 66 354 41 326 21 C 298 1 263 -9 223 -9 C 179 -9 141 3 111 28 C 80 53 65 92 65 144 L 65 482 Z M 253 542 L 253 542 Z M 399 542 L 339 542 L 253 668 L 165 542 L 108 542 L 222 712 L 285 712 L 399 542 Z" unicode="û" />
<glyph horiz-adv-x="511" d="M 65 0 L 65 0 Z M 65 482 L 129 482 L 129 161 C 129 120 140 90 162 72 C 184 53 213 44 248 44 C 282 44 312 55 338 77 C 364 99 377 133 377 179 L 377 482 L 441 482 L 441 0 L 381 0 L 381 95 C 372 66 354 41 326 21 C 298 1 263 -9 223 -9 C 179 -9 141 3 111 28 C 80 53 65 92 65 144 L 65 482 Z M 253 543 L 253 543 Z M 362 543 L 307 543 L 307 698 L 362 698 L 362 543 Z M 197 543 L 142 543 L 142 698 L 197 698 L 197 543 Z" unicode="ü" />
<glyph horiz-adv-x="432" d="M 0 0 L 0 0 Z M 433 482 L 198 -95 C 180 -135 159 -163 135 -178 C 111 -192 87 -200 65 -200 C 50 -200 38 -198 28 -195 C 18 -192 10 -190 6 -188 L 27 -132 C 29 -133 34 -135 42 -137 C 49 -139 57 -141 66 -141 C 80 -141 94 -135 108 -124 C 122 -112 135 -93 147 -67 L 184 29 L -1 482 L 68 482 L 218 104 L 368 482 L 433 482 Z M 217 543 L 217 543 Z M 130 543 L 228 710 L 304 710 L 195 543 L 130 543 Z" unicode="ý" />
<glyph horiz-adv-x="527" d="M 70 -198 L 70 772 L 132 772 L 132 363 C 140 396 158 426 188 452 C 217 478 255 491 301 491 C 331 491 358 485 382 473 C 406 461 426 444 443 423 C 459 401 472 376 481 347 C 489 317 494 285 494 251 C 494 211 489 176 479 144 C 469 112 455 85 437 63 C 419 41 399 24 375 12 C 351 0 325 -6 298 -6 C 254 -6 218 5 189 27 C 160 49 141 76 133 107 L 133 -198 L 70 -198 Z M 280 45 C 322 45 357 62 385 98 C 412 134 426 182 426 242 C 426 269 423 295 417 319 C 411 343 401 363 389 381 C 377 399 361 413 343 423 C 325 433 304 438 280 438 C 240 438 205 421 175 388 C 145 355 130 304 130 235 C 130 201 134 173 142 149 C 150 125 161 105 175 90 C 189 74 205 63 223 56 C 241 48 260 45 280 45 Z" unicode="þ" />
<glyph horiz-adv-x="432" d="M 0 0 L 0 0 Z M 433 482 L 198 -95 C 180 -135 159 -163 135 -178 C 111 -192 87 -200 65 -200 C 50 -200 38 -198 28 -195 C 18 -192 10 -190 6 -188 L 27 -132 C 29 -133 34 -135 42 -137 C 49 -139 57 -141 66 -141 C 80 -141 94 -135 108 -124 C 122 -112 135 -93 147 -67 L 184 29 L -1 482 L 68 482 L 218 104 L 368 482 L 433 482 Z M 217 543 L 217 543 Z M 326 543 L 271 543 L 271 698 L 326 698 L 326 543 Z M 161 543 L 106 543 L 106 698 L 161 698 L 161 543 Z" unicode="ÿ" />
<glyph horiz-adv-x="585" d="M 4 0 L 4 0 Z M 581 0 L 510 0 L 430 219 L 150 219 L 73 0 L 4 0 L 271 734 L 316 734 L 581 0 Z M 413 275 L 290 619 L 167 275 L 413 275 Z M 291 817 L 291 817 Z M 412 817 L 170 817 L 170 869 L 412 869 L 412 817 Z" unicode="Ā" />
<glyph horiz-adv-x="470" d="M 31 0 L 31 0 Z M 410 0 L 349 0 L 349 66 C 334 45 313 27 285 13 C 257 0 225 -8 188 -8 C 140 -8 102 5 74 31 C 45 57 31 93 31 139 C 31 190 49 229 85 256 C 121 282 169 297 227 301 L 346 309 L 346 332 C 346 368 335 395 315 413 C 294 430 266 439 232 439 C 201 439 174 433 150 423 C 126 413 106 402 92 391 L 67 438 C 85 452 108 465 137 476 C 166 487 201 493 241 493 C 289 493 330 480 362 455 C 394 430 410 391 410 337 L 410 0 Z M 348 111 L 348 260 L 231 253 C 191 250 159 240 134 222 C 108 204 96 178 96 142 C 96 110 106 85 128 69 C 149 52 175 44 207 44 C 237 44 264 50 290 64 C 316 78 335 93 348 111 Z M 230 569 L 230 569 Z M 351 569 L 109 569 L 109 621 L 351 621 L 351 569 Z" unicode="ā" />
<glyph horiz-adv-x="585" d="M 4 0 L 4 0 Z M 581 0 L 510 0 L 430 219 L 150 219 L 73 0 L 4 0 L 271 734 L 316 734 L 581 0 Z M 413 275 L 290 619 L 167 275 L 413 275 Z M 291 797 L 291 797 Z M 375 953 L 430 953 C 426 899 411 859 386 834 C 360 809 329 797 291 797 C 253 797 221 809 196 834 C 170 859 156 899 152 953 L 207 953 C 209 920 217 893 230 872 C 242 851 263 841 291 841 C 319 841 339 851 352 871 C 365 891 373 919 375 953 Z" unicode="Ă" />
<glyph horiz-adv-x="470" d="M 31 0 L 31 0 Z M 410 0 L 349 0 L 349 66 C 334 45 313 27 285 13 C 257 0 225 -8 188 -8 C 140 -8 102 5 74 31 C 45 57 31 93 31 139 C 31 190 49 229 85 256 C 121 282 169 297 227 301 L 346 309 L 346 332 C 346 368 335 395 315 413 C 294 430 266 439 232 439 C 201 439 174 433 150 423 C 126 413 106 402 92 391 L 67 438 C 85 452 108 465 137 476 C 166 487 201 493 241 493 C 289 493 330 480 362 455 C 394 430 410 391 410 337 L 410 0 Z M 348 111 L 348 260 L 231 253 C 191 250 159 240 134 222 C 108 204 96 178 96 142 C 96 110 106 85 128 69 C 149 52 175 44 207 44 C 237 44 264 50 290 64 C 316 78 335 93 348 111 Z M 230 549 L 230 549 Z M 314 705 L 369 705 C 365 651 350 611 325 586 C 299 561 268 549 230 549 C 192 549 160 561 135 586 C 109 611 95 651 91 705 L 146 705 C 148 672 156 645 169 624 C 181 603 202 593 230 593 C 258 593 278 603 291 623 C 304 643 312 671 314 705 Z" unicode="ă" />
<glyph horiz-adv-x="585" d="M 4 0 L 4 0 Z M 581 0 L 510 0 L 430 219 L 150 219 L 73 0 L 4 0 L 271 734 L 316 734 L 581 0 Z M 413 275 L 290 619 L 167 275 L 413 275 Z M 504 -9 L 504 -9 Z M 612 -109 L 631 -136 C 612 -155 590 -170 566 -180 C 542 -190 515 -196 486 -196 C 454 -196 428 -188 410 -174 C 391 -160 382 -141 382 -119 C 382 -95 393 -73 415 -52 C 437 -30 469 -12 511 4 L 546 2 C 512 -12 486 -28 467 -44 C 447 -60 438 -76 438 -94 C 438 -110 444 -123 457 -133 C 470 -142 486 -147 506 -147 C 528 -147 548 -143 566 -136 C 584 -129 600 -120 612 -109 Z" unicode="Ą" />
<glyph horiz-adv-x="470" d="M 31 0 L 31 0 Z M 410 0 L 349 0 L 349 66 C 334 45 313 27 285 13 C 257 0 225 -8 188 -8 C 140 -8 102 5 74 31 C 45 57 31 93 31 139 C 31 190 49 229 85 256 C 121 282 169 297 227 301 L 346 309 L 346 332 C 346 368 335 395 315 413 C 294 430 266 439 232 439 C 201 439 174 433 150 423 C 126 413 106 402 92 391 L 67 438 C 85 452 108 465 137 476 C 166 487 201 493 241 493 C 289 493 330 480 362 455 C 394 430 410 391 410 337 L 410 0 Z M 348 111 L 348 260 L 231 253 C 191 250 159 240 134 222 C 108 204 96 178 96 142 C 96 110 106 85 128 69 C 149 52 175 44 207 44 C 237 44 264 50 290 64 C 316 78 335 93 348 111 Z M 348 -9 L 348 -9 Z M 456 -109 L 475 -136 C 456 -155 434 -170 410 -180 C 386 -190 359 -196 330 -196 C 298 -196 272 -188 254 -174 C 235 -160 226 -141 226 -119 C 226 -95 237 -73 259 -52 C 281 -30 313 -12 355 4 L 390 2 C 356 -12 330 -28 311 -44 C 291 -60 282 -76 282 -94 C 282 -110 288 -123 301 -133 C 314 -142 330 -147 350 -147 C 372 -147 392 -143 410 -136 C 428 -129 444 -120 456 -109 Z" unicode="ą" />
<glyph horiz-adv-x="653" d="M 46 0 L 46 0 Z M 365 -10 C 322 -10 281 -1 242 15 C 203 31 169 55 141 87 C 112 119 89 158 72 205 C 54 251 46 305 46 365 C 46 421 53 472 69 518 C 85 564 107 603 135 636 C 163 669 196 695 236 713 C 275 731 318 740 366 740 C 428 740 479 729 519 707 C 559 685 591 655 616 619 L 563 578 C 543 606 517 629 486 648 C 455 666 415 676 367 676 C 291 676 230 648 185 592 C 140 536 118 460 118 363 C 118 311 125 265 139 226 C 153 187 172 155 196 129 C 219 103 246 84 276 71 C 306 58 338 52 370 52 C 420 52 462 62 497 84 C 531 106 559 133 581 166 L 631 131 C 605 89 570 55 525 29 C 480 3 427 -10 365 -10 Z M 366 791 L 366 791 Z M 279 791 L 377 958 L 453 958 L 344 791 L 279 791 Z" unicode="Ć" />
<glyph horiz-adv-x="459" d="M 33 0 L 33 0 Z M 394 130 L 441 97 C 433 85 424 72 414 60 C 404 47 391 36 377 26 C 362 16 345 7 325 1 C 305 -5 282 -9 256 -9 C 222 -9 191 -2 163 10 C 135 22 112 40 93 62 C 73 84 58 110 48 141 C 38 171 33 204 33 240 C 33 274 38 306 49 337 C 60 368 75 395 95 418 C 115 440 138 458 166 472 C 194 485 224 492 258 492 C 282 492 305 488 325 482 C 345 475 362 467 377 457 C 392 447 405 435 416 422 C 426 408 435 395 441 383 L 388 353 C 376 373 360 392 339 409 C 318 426 290 435 256 435 C 232 435 211 429 192 419 C 173 409 157 395 143 378 C 129 360 119 340 111 317 C 103 293 100 268 100 242 C 100 185 114 138 143 102 C 172 66 211 48 259 48 C 278 48 295 50 310 56 C 324 61 337 68 348 76 C 358 84 367 92 375 102 C 382 112 388 121 394 130 Z M 252 543 L 252 543 Z M 165 543 L 263 710 L 339 710 L 230 543 L 165 543 Z" unicode="ć" />
<glyph horiz-adv-x="653" d="M 46 0 L 46 0 Z M 365 -10 C 322 -10 281 -1 242 15 C 203 31 169 55 141 87 C 112 119 89 158 72 205 C 54 251 46 305 46 365 C 46 421 53 472 69 518 C 85 564 107 603 135 636 C 163 669 196 695 236 713 C 275 731 318 740 366 740 C 428 740 479 729 519 707 C 559 685 591 655 616 619 L 563 578 C 543 606 517 629 486 648 C 455 666 415 676 367 676 C 291 676 230 648 185 592 C 140 536 118 460 118 363 C 118 311 125 265 139 226 C 153 187 172 155 196 129 C 219 103 246 84 276 71 C 306 58 338 52 370 52 C 420 52 462 62 497 84 C 531 106 559 133 581 166 L 631 131 C 605 89 570 55 525 29 C 480 3 427 -10 365 -10 Z M 366 790 L 366 790 Z M 512 790 L 452 790 L 366 916 L 278 790 L 221 790 L 335 960 L 398 960 L 512 790 Z" unicode="Ĉ" />
<glyph horiz-adv-x="459" d="M 33 0 L 33 0 Z M 394 130 L 441 97 C 433 85 424 72 414 60 C 404 47 391 36 377 26 C 362 16 345 7 325 1 C 305 -5 282 -9 256 -9 C 222 -9 191 -2 163 10 C 135 22 112 40 93 62 C 73 84 58 110 48 141 C 38 171 33 204 33 240 C 33 274 38 306 49 337 C 60 368 75 395 95 418 C 115 440 138 458 166 472 C 194 485 224 492 258 492 C 282 492 305 488 325 482 C 345 475 362 467 377 457 C 392 447 405 435 416 422 C 426 408 435 395 441 383 L 388 353 C 376 373 360 392 339 409 C 318 426 290 435 256 435 C 232 435 211 429 192 419 C 173 409 157 395 143 378 C 129 360 119 340 111 317 C 103 293 100 268 100 242 C 100 185 114 138 143 102 C 172 66 211 48 259 48 C 278 48 295 50 310 56 C 324 61 337 68 348 76 C 358 84 367 92 375 102 C 382 112 388 121 394 130 Z M 252 542 L 252 542 Z M 398 542 L 338 542 L 252 668 L 164 542 L 107 542 L 221 712 L 284 712 L 398 542 Z" unicode="ĉ" />
<glyph horiz-adv-x="653" d="M 46 0 L 46 0 Z M 365 -10 C 322 -10 281 -1 242 15 C 203 31 169 55 141 87 C 112 119 89 158 72 205 C 54 251 46 305 46 365 C 46 421 53 472 69 518 C 85 564 107 603 135 636 C 163 669 196 695 236 713 C 275 731 318 740 366 740 C 428 740 479 729 519 707 C 559 685 591 655 616 619 L 563 578 C 543 606 517 629 486 648 C 455 666 415 676 367 676 C 291 676 230 648 185 592 C 140 536 118 460 118 363 C 118 311 125 265 139 226 C 153 187 172 155 196 129 C 219 103 246 84 276 71 C 306 58 338 52 370 52 C 420 52 462 62 497 84 C 531 106 559 133 581 166 L 631 131 C 605 89 570 55 525 29 C 480 3 427 -10 365 -10 Z M 366 794 L 366 794 Z M 396 794 L 336 794 L 336 938 L 396 938 L 396 794 Z" unicode="Ċ" />
<glyph horiz-adv-x="459" d="M 33 0 L 33 0 Z M 394 130 L 441 97 C 433 85 424 72 414 60 C 404 47 391 36 377 26 C 362 16 345 7 325 1 C 305 -5 282 -9 256 -9 C 222 -9 191 -2 163 10 C 135 22 112 40 93 62 C 73 84 58 110 48 141 C 38 171 33 204 33 240 C 33 274 38 306 49 337 C 60 368 75 395 95 418 C 115 440 138 458 166 472 C 194 485 224 492 258 492 C 282 492 305 488 325 482 C 345 475 362 467 377 457 C 392 447 405 435 416 422 C 426 408 435 395 441 383 L 388 353 C 376 373 360 392 339 409 C 318 426 290 435 256 435 C 232 435 211 429 192 419 C 173 409 157 395 143 378 C 129 360 119 340 111 317 C 103 293 100 268 100 242 C 100 185 114 138 143 102 C 172 66 211 48 259 48 C 278 48 295 50 310 56 C 324 61 337 68 348 76 C 358 84 367 92 375 102 C 382 112 388 121 394 130 Z M 252 546 L 252 546 Z M 282 546 L 222 546 L 222 690 L 282 690 L 282 546 Z" unicode="ċ" />
<glyph horiz-adv-x="653" d="M 46 0 L 46 0 Z M 365 -10 C 322 -10 281 -1 242 15 C 203 31 169 55 141 87 C 112 119 89 158 72 205 C 54 251 46 305 46 365 C 46 421 53 472 69 518 C 85 564 107 603 135 636 C 163 669 196 695 236 713 C 275 731 318 740 366 740 C 428 740 479 729 519 707 C 559 685 591 655 616 619 L 563 578 C 543 606 517 629 486 648 C 455 666 415 676 367 676 C 291 676 230 648 185 592 C 140 536 118 460 118 363 C 118 311 125 265 139 226 C 153 187 172 155 196 129 C 219 103 246 84 276 71 C 306 58 338 52 370 52 C 420 52 462 62 497 84 C 531 106 559 133 581 166 L 631 131 C 605 89 570 55 525 29 C 480 3 427 -10 365 -10 Z M 366 790 L 366 790 Z M 221 960 L 280 960 L 367 834 L 454 960 L 512 960 L 398 790 L 335 790 L 221 960 Z" unicode="Č" />
<glyph horiz-adv-x="459" d="M 33 0 L 33 0 Z M 394 130 L 441 97 C 433 85 424 72 414 60 C 404 47 391 36 377 26 C 362 16 345 7 325 1 C 305 -5 282 -9 256 -9 C 222 -9 191 -2 163 10 C 135 22 112 40 93 62 C 73 84 58 110 48 141 C 38 171 33 204 33 240 C 33 274 38 306 49 337 C 60 368 75 395 95 418 C 115 440 138 458 166 472 C 194 485 224 492 258 492 C 282 492 305 488 325 482 C 345 475 362 467 377 457 C 392 447 405 435 416 422 C 426 408 435 395 441 383 L 388 353 C 376 373 360 392 339 409 C 318 426 290 435 256 435 C 232 435 211 429 192 419 C 173 409 157 395 143 378 C 129 360 119 340 111 317 C 103 293 100 268 100 242 C 100 185 114 138 143 102 C 172 66 211 48 259 48 C 278 48 295 50 310 56 C 324 61 337 68 348 76 C 358 84 367 92 375 102 C 382 112 388 121 394 130 Z M 252 542 L 252 542 Z M 107 712 L 166 712 L 253 586 L 340 712 L 398 712 L 284 542 L 221 542 L 107 712 Z" unicode="č" />
<glyph horiz-adv-x="672" d="M 90 0 L 90 0 Z M 90 0 L 90 730 L 272 730 C 326 730 376 721 420 705 C 464 688 501 664 531 634 C 561 603 585 566 601 522 C 617 478 626 430 626 377 C 626 323 618 274 602 228 C 586 182 563 142 533 108 C 503 74 465 48 419 29 C 373 9 321 0 261 0 L 90 0 Z M 160 59 L 257 59 C 307 59 351 66 389 82 C 426 98 457 120 481 148 C 505 176 523 209 535 248 C 547 287 553 329 553 375 C 553 466 527 538 477 591 C 426 643 357 670 270 670 L 160 670 L 160 59 Z M 312 790 L 312 790 Z M 167 960 L 226 960 L 313 834 L 400 960 L 458 960 L 344 790 L 281 790 L 167 960 Z" unicode="Ď" />
<glyph horiz-adv-x="532" d="M 33 0 L 33 0 Z M 235 -8 C 204 -8 176 -1 151 10 C 126 22 105 40 88 62 C 70 84 57 110 47 140 C 37 170 33 202 33 237 C 33 274 38 308 49 340 C 59 371 74 398 92 420 C 110 442 131 460 157 473 C 182 485 209 492 238 492 C 278 492 313 479 342 455 C 371 431 390 403 399 372 L 399 772 L 462 772 L 462 0 L 402 0 L 402 119 C 398 104 391 89 382 74 C 373 59 362 45 348 33 C 334 21 317 11 298 3 C 279 -4 258 -8 235 -8 Z M 251 45 C 293 45 328 63 357 100 C 386 137 401 186 401 246 C 401 277 396 305 388 329 C 380 353 369 373 355 389 C 341 405 324 417 306 425 C 288 433 269 438 250 438 C 206 438 170 420 142 384 C 114 348 100 301 100 241 C 100 185 113 138 140 101 C 166 63 203 45 251 45 Z M 583 617 L 580 486 L 526 486 L 522 617 L 522 730 L 583 730 L 583 617 Z" unicode="ď" />
<glyph horiz-adv-x="672" d="M 31 0 L 31 0 Z M 626 366 C 626 315 618 267 602 223 C 586 178 563 139 533 107 C 503 74 465 48 419 29 C 373 9 321 0 261 0 L 90 0 L 90 332 L 31 332 L 31 387 L 90 387 L 90 730 L 272 730 C 327 730 377 721 421 704 C 465 687 502 663 532 632 C 562 600 586 562 602 517 C 618 472 626 422 626 366 Z M 159 56 L 253 56 C 307 56 353 64 391 81 C 429 97 460 120 484 148 C 508 176 526 208 537 246 C 548 283 554 322 554 364 C 554 462 528 538 478 592 C 428 646 359 673 272 673 L 159 673 L 159 387 L 350 387 L 350 332 L 159 332 L 159 56 Z" unicode="Đ" />
<glyph horiz-adv-x="532" d="M 402 119 C 398 104 391 89 382 74 C 373 59 362 45 348 33 C 334 21 317 11 298 3 C 279 -4 258 -8 235 -8 C 204 -8 176 -1 151 10 C 126 22 105 40 88 62 C 70 84 57 110 47 140 C 37 170 33 202 33 237 C 33 274 38 308 49 340 C 59 371 74 398 92 420 C 110 442 131 460 157 473 C 182 485 209 492 238 492 C 278 492 313 479 342 455 C 371 431 390 403 399 372 L 399 600 L 255 600 L 255 656 L 399 656 L 399 772 L 462 772 L 462 656 L 526 656 L 526 600 L 462 600 L 462 0 L 402 0 L 402 119 Z M 251 45 C 293 45 328 63 357 100 C 386 137 401 186 401 246 C 401 277 396 305 388 329 C 380 353 369 373 355 389 C 341 405 324 417 306 425 C 288 433 269 438 250 438 C 206 438 170 420 142 384 C 114 348 100 301 100 241 C 100 185 113 138 140 101 C 166 63 203 45 251 45 Z" unicode="đ" />
<glyph horiz-adv-x="511" d="M 90 0 L 90 0 Z M 467 0 L 90 0 L 90 730 L 449 730 L 449 668 L 159 668 L 159 393 L 438 393 L 438 332 L 159 332 L 159 62 L 467 62 L 467 0 Z M 273 817 L 273 817 Z M 394 817 L 152 817 L 152 869 L 394 869 L 394 817 Z" unicode="Ē" />
<glyph horiz-adv-x="496" d="M 33 0 L 33 0 Z M 260 -9 C 227 -9 197 -3 169 8 C 141 19 117 35 97 57 C 77 78 61 104 50 135 C 38 166 33 201 33 240 C 33 276 38 309 49 340 C 60 370 75 397 95 420 C 115 442 138 460 166 473 C 193 485 222 492 254 492 C 318 492 369 468 409 421 C 448 373 468 308 468 225 L 97 225 C 97 170 113 126 143 94 C 173 62 212 46 261 46 C 301 46 333 53 356 68 C 378 82 397 98 412 116 L 450 77 C 431 54 407 34 379 17 C 350 0 310 -9 260 -9 Z M 97 273 L 404 273 C 403 320 389 359 361 391 C 333 423 297 439 253 439 C 208 439 172 422 144 390 C 116 358 100 319 97 273 Z M 252 569 L 252 569 Z M 373 569 L 131 569 L 131 621 L 373 621 L 373 569 Z" unicode="ē" />
<glyph horiz-adv-x="511" d="M 90 0 L 90 0 Z M 467 0 L 90 0 L 90 730 L 449 730 L 449 668 L 159 668 L 159 393 L 438 393 L 438 332 L 159 332 L 159 62 L 467 62 L 467 0 Z M 273 797 L 273 797 Z M 357 953 L 412 953 C 408 899 393 859 368 834 C 342 809 311 797 273 797 C 235 797 203 809 178 834 C 152 859 138 899 134 953 L 189 953 C 191 920 199 893 212 872 C 224 851 245 841 273 841 C 301 841 321 851 334 871 C 347 891 355 919 357 953 Z" unicode="Ĕ" />
<glyph horiz-adv-x="496" d="M 33 0 L 33 0 Z M 260 -9 C 227 -9 197 -3 169 8 C 141 19 117 35 97 57 C 77 78 61 104 50 135 C 38 166 33 201 33 240 C 33 276 38 309 49 340 C 60 370 75 397 95 420 C 115 442 138 460 166 473 C 193 485 222 492 254 492 C 318 492 369 468 409 421 C 448 373 468 308 468 225 L 97 225 C 97 170 113 126 143 94 C 173 62 212 46 261 46 C 301 46 333 53 356 68 C 378 82 397 98 412 116 L 450 77 C 431 54 407 34 379 17 C 350 0 310 -9 260 -9 Z M 97 273 L 404 273 C 403 320 389 359 361 391 C 333 423 297 439 253 439 C 208 439 172 422 144 390 C 116 358 100 319 97 273 Z M 252 549 L 252 549 Z M 336 705 L 391 705 C 387 651 372 611 347 586 C 321 561 290 549 252 549 C 214 549 182 561 157 586 C 131 611 117 651 113 705 L 168 705 C 170 672 178 645 191 624 C 203 603 224 593 252 593 C 280 593 300 603 313 623 C 326 643 334 671 336 705 Z" unicode="ĕ" />
<glyph horiz-adv-x="511" d="M 90 0 L 90 0 Z M 467 0 L 90 0 L 90 730 L 449 730 L 449 668 L 159 668 L 159 393 L 438 393 L 438 332 L 159 332 L 159 62 L 467 62 L 467 0 Z M 273 794 L 273 794 Z M 303 794 L 243 794 L 243 938 L 303 938 L 303 794 Z" unicode="Ė" />
<glyph horiz-adv-x="496" d="M 33 0 L 33 0 Z M 260 -9 C 227 -9 197 -3 169 8 C 141 19 117 35 97 57 C 77 78 61 104 50 135 C 38 166 33 201 33 240 C 33 276 38 309 49 340 C 60 370 75 397 95 420 C 115 442 138 460 166 473 C 193 485 222 492 254 492 C 318 492 369 468 409 421 C 448 373 468 308 468 225 L 97 225 C 97 170 113 126 143 94 C 173 62 212 46 261 46 C 301 46 333 53 356 68 C 378 82 397 98 412 116 L 450 77 C 431 54 407 34 379 17 C 350 0 310 -9 260 -9 Z M 97 273 L 404 273 C 403 320 389 359 361 391 C 333 423 297 439 253 439 C 208 439 172 422 144 390 C 116 358 100 319 97 273 Z M 252 546 L 252 546 Z M 282 546 L 222 546 L 222 690 L 282 690 L 282 546 Z" unicode="ė" />
<glyph horiz-adv-x="511" d="M 90 0 L 90 0 Z M 467 0 L 90 0 L 90 730 L 449 730 L 449 668 L 159 668 L 159 393 L 438 393 L 438 332 L 159 332 L 159 62 L 467 62 L 467 0 Z M 425 -9 L 425 -9 Z M 533 -109 L 552 -136 C 533 -155 511 -170 487 -180 C 463 -190 436 -196 407 -196 C 375 -196 349 -188 331 -174 C 312 -160 303 -141 303 -119 C 303 -95 314 -73 336 -52 C 358 -30 390 -12 432 4 L 467 2 C 433 -12 407 -28 388 -44 C 368 -60 359 -76 359 -94 C 359 -110 365 -123 378 -133 C 391 -142 407 -147 427 -147 C 449 -147 469 -143 487 -136 C 505 -129 521 -120 533 -109 Z" unicode="Ę" />
<glyph horiz-adv-x="496" d="M 33 0 L 33 0 Z M 260 -9 C 227 -9 197 -3 169 8 C 141 19 117 35 97 57 C 77 78 61 104 50 135 C 38 166 33 201 33 240 C 33 276 38 309 49 340 C 60 370 75 397 95 420 C 115 442 138 460 166 473 C 193 485 222 492 254 492 C 318 492 369 468 409 421 C 448 373 468 308 468 225 L 97 225 C 97 170 113 126 143 94 C 173 62 212 46 261 46 C 301 46 333 53 356 68 C 378 82 397 98 412 116 L 450 77 C 431 54 407 34 379 17 C 350 0 310 -9 260 -9 Z M 97 273 L 404 273 C 403 320 389 359 361 391 C 333 423 297 439 253 439 C 208 439 172 422 144 390 C 116 358 100 319 97 273 Z M 298 -9 L 298 -9 Z M 406 -109 L 425 -136 C 406 -155 384 -170 360 -180 C 336 -190 309 -196 280 -196 C 248 -196 222 -188 204 -174 C 185 -160 176 -141 176 -119 C 176 -95 187 -73 209 -52 C 231 -30 263 -12 305 4 L 340 2 C 306 -12 280 -28 261 -44 C 241 -60 232 -76 232 -94 C 232 -110 238 -123 251 -133 C 264 -142 280 -147 300 -147 C 322 -147 342 -143 360 -136 C 378 -129 394 -120 406 -109 Z" unicode="ę" />
<glyph horiz-adv-x="511" d="M 90 0 L 90 0 Z M 467 0 L 90 0 L 90 730 L 449 730 L 449 668 L 159 668 L 159 393 L 438 393 L 438 332 L 159 332 L 159 62 L 467 62 L 467 0 Z M 273 790 L 273 790 Z M 128 960 L 187 960 L 274 834 L 361 960 L 419 960 L 305 790 L 242 790 L 128 960 Z" unicode="Ě" />
<glyph horiz-adv-x="496" d="M 33 0 L 33 0 Z M 260 -9 C 227 -9 197 -3 169 8 C 141 19 117 35 97 57 C 77 78 61 104 50 135 C 38 166 33 201 33 240 C 33 276 38 309 49 340 C 60 370 75 397 95 420 C 115 442 138 460 166 473 C 193 485 222 492 254 492 C 318 492 369 468 409 421 C 448 373 468 308 468 225 L 97 225 C 97 170 113 126 143 94 C 173 62 212 46 261 46 C 301 46 333 53 356 68 C 378 82 397 98 412 116 L 450 77 C 431 54 407 34 379 17 C 350 0 310 -9 260 -9 Z M 97 273 L 404 273 C 403 320 389 359 361 391 C 333 423 297 439 253 439 C 208 439 172 422 144 390 C 116 358 100 319 97 273 Z M 252 542 L 252 542 Z M 107 712 L 166 712 L 253 586 L 340 712 L 398 712 L 284 542 L 221 542 L 107 712 Z" unicode="ě" />
<glyph horiz-adv-x="703" d="M 46 0 L 46 0 Z M 380 354 L 654 354 L 654 141 C 628 93 591 56 542 30 C 493 3 437 -10 373 -10 C 327 -10 285 -1 245 17 C 205 35 171 60 142 93 C 112 125 89 165 72 211 C 54 257 46 309 46 365 C 46 421 54 473 72 520 C 89 566 112 606 142 638 C 171 670 206 695 246 713 C 286 731 329 740 375 740 C 439 740 490 728 529 706 C 567 684 597 658 618 630 L 569 587 C 549 611 524 631 494 649 C 463 667 423 676 374 676 C 338 676 304 669 272 655 C 240 641 213 620 190 594 C 167 567 149 534 136 496 C 123 457 117 413 117 364 C 117 317 123 274 137 235 C 150 196 168 163 192 136 C 215 108 242 87 274 72 C 306 56 340 49 376 49 C 424 49 467 58 505 78 C 543 97 572 125 591 161 L 591 292 L 380 292 L 380 354 Z M 373 790 L 373 790 Z M 519 790 L 459 790 L 373 916 L 285 790 L 228 790 L 342 960 L 405 960 L 519 790 Z" unicode="Ĝ" />
<glyph horiz-adv-x="528" d="M 33 0 L 33 0 Z M 236 -2 C 205 -2 177 4 152 16 C 127 28 106 44 88 66 C 70 88 57 114 47 144 C 37 174 33 206 33 242 C 33 316 52 376 91 422 C 129 468 178 492 236 492 C 277 492 312 480 342 456 C 371 432 391 404 401 372 L 401 482 L 461 482 L 461 37 C 461 -3 454 -38 441 -68 C 428 -98 411 -122 390 -141 C 369 -160 345 -174 318 -184 C 290 -193 263 -198 235 -198 C 194 -198 162 -194 140 -187 C 117 -180 99 -173 87 -166 L 111 -114 C 121 -120 136 -127 156 -134 C 175 -140 200 -144 230 -144 C 252 -144 273 -140 294 -133 C 314 -125 332 -114 348 -100 C 363 -85 375 -67 385 -45 C 394 -23 399 2 399 32 L 399 126 C 394 110 387 94 377 79 C 367 63 356 50 342 38 C 328 26 313 16 295 9 C 277 1 257 -2 236 -2 Z M 252 49 C 271 49 290 53 308 62 C 326 70 341 83 355 100 C 369 116 380 137 388 162 C 396 187 401 216 401 249 C 401 279 396 305 388 329 C 380 352 369 372 355 388 C 341 404 324 416 306 424 C 288 432 269 437 249 437 C 206 437 171 419 143 383 C 115 347 101 300 101 242 C 101 184 114 138 140 102 C 166 66 204 49 252 49 Z M 247 542 L 247 542 Z M 393 542 L 333 542 L 247 668 L 159 542 L 102 542 L 216 712 L 279 712 L 393 542 Z" unicode="ĝ" />
<glyph horiz-adv-x="703" d="M 46 0 L 46 0 Z M 380 354 L 654 354 L 654 141 C 628 93 591 56 542 30 C 493 3 437 -10 373 -10 C 327 -10 285 -1 245 17 C 205 35 171 60 142 93 C 112 125 89 165 72 211 C 54 257 46 309 46 365 C 46 421 54 473 72 520 C 89 566 112 606 142 638 C 171 670 206 695 246 713 C 286 731 329 740 375 740 C 439 740 490 728 529 706 C 567 684 597 658 618 630 L 569 587 C 549 611 524 631 494 649 C 463 667 423 676 374 676 C 338 676 304 669 272 655 C 240 641 213 620 190 594 C 167 567 149 534 136 496 C 123 457 117 413 117 364 C 117 317 123 274 137 235 C 150 196 168 163 192 136 C 215 108 242 87 274 72 C 306 56 340 49 376 49 C 424 49 467 58 505 78 C 543 97 572 125 591 161 L 591 292 L 380 292 L 380 354 Z M 373 797 L 373 797 Z M 457 953 L 512 953 C 508 899 493 859 468 834 C 442 809 411 797 373 797 C 335 797 303 809 278 834 C 252 859 238 899 234 953 L 289 953 C 291 920 299 893 312 872 C 324 851 345 841 373 841 C 401 841 421 851 434 871 C 447 891 455 919 457 953 Z" unicode="Ğ" />
<glyph horiz-adv-x="528" d="M 33 0 L 33 0 Z M 236 -2 C 205 -2 177 4 152 16 C 127 28 106 44 88 66 C 70 88 57 114 47 144 C 37 174 33 206 33 242 C 33 316 52 376 91 422 C 129 468 178 492 236 492 C 277 492 312 480 342 456 C 371 432 391 404 401 372 L 401 482 L 461 482 L 461 37 C 461 -3 454 -38 441 -68 C 428 -98 411 -122 390 -141 C 369 -160 345 -174 318 -184 C 290 -193 263 -198 235 -198 C 194 -198 162 -194 140 -187 C 117 -180 99 -173 87 -166 L 111 -114 C 121 -120 136 -127 156 -134 C 175 -140 200 -144 230 -144 C 252 -144 273 -140 294 -133 C 314 -125 332 -114 348 -100 C 363 -85 375 -67 385 -45 C 394 -23 399 2 399 32 L 399 126 C 394 110 387 94 377 79 C 367 63 356 50 342 38 C 328 26 313 16 295 9 C 277 1 257 -2 236 -2 Z M 252 49 C 271 49 290 53 308 62 C 326 70 341 83 355 100 C 369 116 380 137 388 162 C 396 187 401 216 401 249 C 401 279 396 305 388 329 C 380 352 369 372 355 388 C 341 404 324 416 306 424 C 288 432 269 437 249 437 C 206 437 171 419 143 383 C 115 347 101 300 101 242 C 101 184 114 138 140 102 C 166 66 204 49 252 49 Z M 247 549 L 247 549 Z M 331 705 L 386 705 C 382 651 367 611 342 586 C 316 561 285 549 247 549 C 209 549 177 561 152 586 C 126 611 112 651 108 705 L 163 705 C 165 672 173 645 186 624 C 198 603 219 593 247 593 C 275 593 295 603 308 623 C 321 643 329 671 331 705 Z" unicode="ğ" />
<glyph horiz-adv-x="703" d="M 46 0 L 46 0 Z M 380 354 L 654 354 L 654 141 C 628 93 591 56 542 30 C 493 3 437 -10 373 -10 C 327 -10 285 -1 245 17 C 205 35 171 60 142 93 C 112 125 89 165 72 211 C 54 257 46 309 46 365 C 46 421 54 473 72 520 C 89 566 112 606 142 638 C 171 670 206 695 246 713 C 286 731 329 740 375 740 C 439 740 490 728 529 706 C 567 684 597 658 618 630 L 569 587 C 549 611 524 631 494 649 C 463 667 423 676 374 676 C 338 676 304 669 272 655 C 240 641 213 620 190 594 C 167 567 149 534 136 496 C 123 457 117 413 117 364 C 117 317 123 274 137 235 C 150 196 168 163 192 136 C 215 108 242 87 274 72 C 306 56 340 49 376 49 C 424 49 467 58 505 78 C 543 97 572 125 591 161 L 591 292 L 380 292 L 380 354 Z M 373 794 L 373 794 Z M 403 794 L 343 794 L 343 938 L 403 938 L 403 794 Z" unicode="Ġ" />
<glyph horiz-adv-x="528" d="M 33 0 L 33 0 Z M 236 -2 C 205 -2 177 4 152 16 C 127 28 106 44 88 66 C 70 88 57 114 47 144 C 37 174 33 206 33 242 C 33 316 52 376 91 422 C 129 468 178 492 236 492 C 277 492 312 480 342 456 C 371 432 391 404 401 372 L 401 482 L 461 482 L 461 37 C 461 -3 454 -38 441 -68 C 428 -98 411 -122 390 -141 C 369 -160 345 -174 318 -184 C 290 -193 263 -198 235 -198 C 194 -198 162 -194 140 -187 C 117 -180 99 -173 87 -166 L 111 -114 C 121 -120 136 -127 156 -134 C 175 -140 200 -144 230 -144 C 252 -144 273 -140 294 -133 C 314 -125 332 -114 348 -100 C 363 -85 375 -67 385 -45 C 394 -23 399 2 399 32 L 399 126 C 394 110 387 94 377 79 C 367 63 356 50 342 38 C 328 26 313 16 295 9 C 277 1 257 -2 236 -2 Z M 252 49 C 271 49 290 53 308 62 C 326 70 341 83 355 100 C 369 116 380 137 388 162 C 396 187 401 216 401 249 C 401 279 396 305 388 329 C 380 352 369 372 355 388 C 341 404 324 416 306 424 C 288 432 269 437 249 437 C 206 437 171 419 143 383 C 115 347 101 300 101 242 C 101 184 114 138 140 102 C 166 66 204 49 252 49 Z M 247 546 L 247 546 Z M 277 546 L 217 546 L 217 690 L 277 690 L 277 546 Z" unicode="ġ" />
<glyph horiz-adv-x="703" d="M 46 0 L 46 0 Z M 380 354 L 654 354 L 654 141 C 628 93 591 56 542 30 C 493 3 437 -10 373 -10 C 327 -10 285 -1 245 17 C 205 35 171 60 142 93 C 112 125 89 165 72 211 C 54 257 46 309 46 365 C 46 421 54 473 72 520 C 89 566 112 606 142 638 C 171 670 206 695 246 713 C 286 731 329 740 375 740 C 439 740 490 728 529 706 C 567 684 597 658 618 630 L 569 587 C 549 611 524 631 494 649 C 463 667 423 676 374 676 C 338 676 304 669 272 655 C 240 641 213 620 190 594 C 167 567 149 534 136 496 C 123 457 117 413 117 364 C 117 317 123 274 137 235 C 150 196 168 163 192 136 C 215 108 242 87 274 72 C 306 56 340 49 376 49 C 424 49 467 58 505 78 C 543 97 572 125 591 161 L 591 292 L 380 292 L 380 354 Z" unicode="Ģ" />
<glyph horiz-adv-x="528" d="M 33 0 L 33 0 Z M 236 -2 C 205 -2 177 4 152 16 C 127 28 106 44 88 66 C 70 88 57 114 47 144 C 37 174 33 206 33 242 C 33 316 52 376 91 422 C 129 468 178 492 236 492 C 277 492 312 480 342 456 C 371 432 391 404 401 372 L 401 482 L 461 482 L 461 37 C 461 -3 454 -38 441 -68 C 428 -98 411 -122 390 -141 C 369 -160 345 -174 318 -184 C 290 -193 263 -198 235 -198 C 194 -198 162 -194 140 -187 C 117 -180 99 -173 87 -166 L 111 -114 C 121 -120 136 -127 156 -134 C 175 -140 200 -144 230 -144 C 252 -144 273 -140 294 -133 C 314 -125 332 -114 348 -100 C 363 -85 375 -67 385 -45 C 394 -23 399 2 399 32 L 399 126 C 394 110 387 94 377 79 C 367 63 356 50 342 38 C 328 26 313 16 295 9 C 277 1 257 -2 236 -2 Z M 252 49 C 271 49 290 53 308 62 C 326 70 341 83 355 100 C 369 116 380 137 388 162 C 396 187 401 216 401 249 C 401 279 396 305 388 329 C 380 352 369 372 355 388 C 341 404 324 416 306 424 C 288 432 269 437 249 437 C 206 437 171 419 143 383 C 115 347 101 300 101 242 C 101 184 114 138 140 102 C 166 66 204 49 252 49 Z" unicode="ģ" />
<glyph horiz-adv-x="684" d="M 90 0 L 90 0 Z M 594 0 L 524 0 L 524 330 L 160 330 L 160 0 L 90 0 L 90 730 L 160 730 L 160 392 L 524 392 L 524 730 L 594 730 L 594 0 Z M 341 790 L 341 790 Z M 487 790 L 427 790 L 341 916 L 253 790 L 196 790 L 310 960 L 373 960 L 487 790 Z" unicode="Ĥ" />
<glyph horiz-adv-x="511" d="M 70 0 L 70 0 Z M 446 0 L 382 0 L 382 332 C 382 366 371 392 349 410 C 327 428 300 438 268 438 C 251 438 235 435 219 430 C 203 425 188 417 176 406 C 163 395 153 381 145 365 C 137 348 134 328 134 305 L 134 0 L 70 0 L 70 772 L 130 772 L 130 388 C 138 417 156 442 184 462 C 212 482 248 492 290 492 C 334 492 371 480 401 456 C 431 432 446 396 446 348 L 446 0 Z M 270 831 L 270 831 Z M 416 831 L 356 831 L 270 957 L 182 831 L 125 831 L 239 1001 L 302 1001 L 416 831 Z" unicode="ĥ" />
<glyph horiz-adv-x="684" d="M 160 330 L 160 0 L 90 0 L 90 555 L 11 555 L 11 611 L 90 611 L 90 730 L 160 730 L 160 611 L 524 611 L 524 730 L 594 730 L 594 611 L 673 611 L 673 555 L 594 555 L 594 0 L 524 0 L 524 330 L 160 330 Z M 160 392 L 524 392 L 524 555 L 160 555 L 160 392 Z" unicode="Ħ" />
<glyph horiz-adv-x="511" d="M 134 305 L 134 0 L 70 0 L 70 600 L 7 600 L 7 656 L 70 656 L 70 772 L 130 772 L 130 656 L 279 656 L 279 600 L 130 600 L 130 388 C 138 417 156 442 184 462 C 212 482 248 492 290 492 C 334 492 371 480 401 456 C 431 432 446 396 446 348 L 446 0 L 382 0 L 382 332 C 382 366 371 392 349 410 C 327 428 300 438 268 438 C 251 438 235 435 219 430 C 203 425 188 417 176 406 C 163 395 153 381 145 365 C 137 348 134 328 134 305 Z" unicode="ħ" />
<glyph horiz-adv-x="259" d="M 0 0 L 0 0 Z M 165 0 L 95 0 L 95 730 L 165 730 L 165 0 Z M 129 798 L 129 798 Z M 234 926 L 284 926 C 284 882 277 850 265 829 C 253 808 236 798 216 798 C 198 798 182 802 168 811 C 154 820 141 829 131 838 C 120 846 109 855 98 864 C 87 872 76 877 66 877 C 55 877 46 870 38 858 C 30 845 25 827 25 803 L -25 803 C -25 846 -16 878 0 899 C 15 920 33 931 53 931 C 69 931 84 926 97 917 C 109 908 122 899 134 889 C 144 880 154 872 164 864 C 174 856 185 852 196 852 C 206 852 215 858 223 871 C 230 884 234 902 234 926 Z" unicode="Ĩ" />
<glyph horiz-adv-x="211" d="M 0 0 L 0 0 Z M 138 0 L 73 0 L 73 482 L 138 482 L 138 0 Z M 105 550 L 105 550 Z M 210 678 L 260 678 C 260 634 253 602 241 581 C 229 560 212 550 192 550 C 174 550 158 554 144 563 C 130 572 117 581 107 590 C 96 598 85 607 74 616 C 63 624 52 629 42 629 C 31 629 22 622 14 610 C 6 597 1 579 1 555 L -49 555 C -49 598 -40 630 -24 651 C -8 672 9 683 29 683 C 45 683 60 678 73 669 C 85 660 98 651 110 641 C 120 632 130 624 140 616 C 150 608 161 604 172 604 C 182 604 191 610 199 623 C 206 636 210 654 210 678 Z" unicode="ĩ" />
<glyph horiz-adv-x="259" d="M 8 0 L 8 0 Z M 165 0 L 95 0 L 95 730 L 165 730 L 165 0 Z M 129 817 L 129 817 Z M 250 817 L 8 817 L 8 869 L 250 869 L 250 817 Z" unicode="Ī" />
<glyph horiz-adv-x="211" d="M 0 0 L 0 0 Z M 138 0 L 73 0 L 73 482 L 138 482 L 138 0 Z M 105 569 L 105 569 Z M 226 569 L -16 569 L -16 621 L 226 621 L 226 569 Z" unicode="ī" />
<glyph horiz-adv-x="259" d="M 0 0 L 0 0 Z M 165 0 L 95 0 L 95 730 L 165 730 L 165 0 Z M 129 797 L 129 797 Z M 213 953 L 268 953 C 264 899 249 859 224 834 C 198 809 167 797 129 797 C 91 797 59 809 34 834 C 8 859 -6 899 -10 953 L 45 953 C 47 920 55 893 68 872 C 80 851 101 841 129 841 C 157 841 177 851 190 871 C 203 891 211 919 213 953 Z" unicode="Ĭ" />
<glyph horiz-adv-x="211" d="M 0 0 L 0 0 Z M 138 0 L 73 0 L 73 482 L 138 482 L 138 0 Z M 105 549 L 105 549 Z M 189 705 L 244 705 C 240 651 225 611 200 586 C 174 561 143 549 105 549 C 67 549 35 561 10 586 C -15 611 -30 651 -34 705 L 21 705 C 23 672 31 645 44 624 C 56 603 77 593 105 593 C 133 593 153 603 166 623 C 179 643 187 671 189 705 Z" unicode="ĭ" />
<glyph horiz-adv-x="259" d="M 0 0 L 0 0 Z M 165 0 L 95 0 L 95 730 L 165 730 L 165 0 Z M 92 -10 L 92 -10 Z M 200 -110 L 219 -137 C 200 -156 178 -171 154 -181 C 130 -191 103 -197 74 -197 C 42 -197 16 -189 -2 -175 C -20 -161 -30 -142 -30 -120 C -30 -96 -19 -74 3 -53 C 25 -31 57 -13 99 3 L 134 1 C 100 -13 74 -29 55 -45 C 35 -61 26 -77 26 -95 C 26 -111 32 -124 45 -134 C 58 -143 74 -148 94 -148 C 116 -148 136 -144 154 -137 C 172 -130 188 -121 200 -110 Z" unicode="Į" />
<glyph horiz-adv-x="211" d="M 0 0 L 0 0 Z M 71 598 L 71 672 L 140 672 L 140 598 L 71 598 Z M 73 0 L 73 482 L 138 482 L 138 0 L 73 0 Z M 71 -9 L 71 -9 Z M 179 -109 L 198 -136 C 179 -155 157 -170 133 -180 C 109 -190 82 -196 53 -196 C 21 -196 -4 -188 -23 -174 C -41 -160 -51 -141 -51 -119 C -51 -95 -40 -73 -18 -52 C 4 -30 36 -12 78 4 L 113 2 C 79 -12 53 -28 34 -44 C 14 -60 5 -76 5 -94 C 5 -110 11 -123 24 -133 C 37 -142 53 -147 73 -147 C 95 -147 115 -143 133 -136 C 151 -129 167 -120 179 -109 Z" unicode="į" />
<glyph horiz-adv-x="259" d="M 95 0 L 95 0 Z M 165 0 L 95 0 L 95 730 L 165 730 L 165 0 Z M 129 794 L 129 794 Z M 159 794 L 99 794 L 99 938 L 159 938 L 159 794 Z" unicode="İ" />
<glyph horiz-adv-x="211" d="M 138 0 L 73 0 L 73 482 L 138 482 L 138 0 Z" unicode="ı" />
<glyph horiz-adv-x="572" d="M 95 0 L 95 0 Z M 165 0 L 95 0 L 95 730 L 165 730 L 165 0 Z M 494 730 L 494 187 C 494 160 490 135 482 111 C 474 87 462 66 446 48 C 430 30 411 15 388 5 C 364 -5 337 -11 307 -11 C 292 -11 277 -10 261 -8 C 245 -6 232 -2 223 2 L 235 63 C 241 60 250 57 262 55 C 274 53 287 52 299 52 C 339 52 370 65 392 91 C 414 117 425 149 425 187 L 425 730 L 494 730 Z" unicode="Ĳ" />
<glyph horiz-adv-x="404" d="M 71 0 L 71 0 Z M 71 598 L 71 672 L 140 672 L 140 598 L 71 598 Z M 73 0 L 73 482 L 138 482 L 138 0 L 73 0 Z M 340 598 L 271 598 L 271 672 L 340 672 L 340 598 Z M 337 482 L 337 -67 C 337 -106 326 -137 304 -160 C 282 -182 255 -193 225 -193 C 213 -193 201 -191 189 -189 C 177 -186 167 -183 161 -179 L 175 -129 C 179 -131 185 -132 192 -134 C 198 -136 206 -137 214 -137 C 228 -137 242 -130 254 -117 C 266 -104 273 -85 273 -61 L 273 482 L 337 482 Z" unicode="ĳ" />
<glyph horiz-adv-x="361" d="M 13 0 L 13 0 Z M 284 730 L 284 187 C 284 160 280 135 272 111 C 264 87 252 66 236 48 C 220 30 201 15 178 5 C 154 -5 127 -11 97 -11 C 82 -11 67 -10 51 -8 C 35 -6 22 -2 13 2 L 25 63 C 31 60 40 57 52 55 C 64 53 77 52 89 52 C 129 52 160 65 182 91 C 204 117 215 149 215 187 L 215 730 L 284 730 Z M 249 790 L 249 790 Z M 395 790 L 335 790 L 249 916 L 161 790 L 104 790 L 218 960 L 281 960 L 395 790 Z" unicode="Ĵ" />
<glyph horiz-adv-x="218" d="M 0 0 L 0 0 Z M 149 482 L 149 -67 C 149 -107 137 -139 114 -163 C 91 -187 64 -199 33 -199 C 21 -199 9 -197 -2 -194 C -14 -191 -24 -188 -31 -185 L -17 -134 C -13 -136 -7 -137 0 -139 C 6 -141 14 -142 22 -142 C 37 -142 51 -135 65 -121 C 78 -107 85 -88 85 -62 L 85 482 L 149 482 Z M 116 542 L 116 542 Z M 262 542 L 202 542 L 116 668 L 28 542 L -29 542 L 85 712 L 148 712 L 262 542 Z" unicode="ĵ" />
<glyph horiz-adv-x="602" d="M 90 0 L 90 0 Z M 592 0 L 508 0 L 253 352 L 160 237 L 160 0 L 90 0 L 90 730 L 160 730 L 160 324 L 476 730 L 556 730 L 300 404 L 592 0 Z M 302 -77 L 302 -77 Z M 382 -77 C 376 -123 363 -167 343 -211 C 323 -254 299 -290 272 -320 L 223 -297 C 231 -287 239 -274 248 -258 C 257 -242 266 -225 274 -205 C 282 -185 290 -165 297 -143 C 304 -121 309 -99 313 -77 L 382 -77 Z" unicode="Ķ" />
<glyph horiz-adv-x="457" d="M 70 0 L 70 0 Z M 468 1 L 394 0 L 226 235 L 134 128 L 134 0 L 70 0 L 70 772 L 132 772 L 132 201 L 360 482 L 431 482 L 269 282 L 468 1 Z M 235 -77 L 235 -77 Z M 315 -77 C 309 -123 296 -167 276 -211 C 256 -254 232 -290 205 -320 L 156 -297 C 164 -287 172 -274 181 -258 C 190 -242 199 -225 207 -205 C 215 -185 223 -165 230 -143 C 237 -121 242 -99 246 -77 L 315 -77 Z" unicode="ķ" />
<glyph horiz-adv-x="457" d="M 468 1 L 394 0 L 226 235 L 134 128 L 134 0 L 70 0 L 70 482 L 132 482 L 132 201 L 360 482 L 431 482 L 269 282 L 468 1 Z" unicode="ĸ" />
<glyph horiz-adv-x="454" d="M 90 0 L 90 0 Z M 445 0 L 90 0 L 90 730 L 160 730 L 160 62 L 445 62 L 445 0 Z M 277 791 L 277 791 Z M 190 791 L 288 958 L 364 958 L 255 791 L 190 791 Z" unicode="Ĺ" />
<glyph horiz-adv-x="207" d="M 71 0 L 71 0 Z M 158 837 L 158 837 Z M 71 837 L 169 1004 L 245 1004 L 136 837 L 71 837 Z M 136 777 L 136 0 L 71 0 L 71 777 L 136 777 Z" unicode="ĺ" />
<glyph horiz-adv-x="454" d="M 90 0 L 90 0 Z M 445 0 L 90 0 L 90 730 L 160 730 L 160 62 L 445 62 L 445 0 Z M 246 -77 L 246 -77 Z M 326 -77 C 320 -123 307 -167 287 -211 C 267 -254 243 -290 216 -320 L 167 -297 C 175 -287 183 -274 192 -258 C 201 -242 210 -225 218 -205 C 226 -185 234 -165 241 -143 C 248 -121 253 -99 257 -77 L 326 -77 Z" unicode="Ļ" />
<glyph horiz-adv-x="207" d="M 0 0 L 0 0 Z M 136 777 L 136 0 L 71 0 L 71 777 L 136 777 Z M 69 -77 L 69 -77 Z M 149 -77 C 143 -123 130 -167 110 -211 C 90 -254 66 -290 39 -320 L -10 -297 C -2 -287 6 -274 15 -258 C 24 -242 33 -225 41 -205 C 49 -185 57 -165 64 -143 C 71 -121 76 -99 80 -77 L 149 -77 Z" unicode="ļ" />
<glyph horiz-adv-x="454" d="M 90 0 L 90 0 Z M 445 0 L 90 0 L 90 730 L 160 730 L 160 62 L 445 62 L 445 0 Z M 455 617 L 452 486 L 398 486 L 394 617 L 394 730 L 455 730 L 455 617 Z" unicode="Ľ" />
<glyph horiz-adv-x="207" d="M 71 0 L 71 0 Z M 136 777 L 136 0 L 71 0 L 71 777 L 136 777 Z M 262 617 L 259 486 L 205 486 L 201 617 L 201 730 L 262 730 L 262 617 Z" unicode="ľ" />
<glyph horiz-adv-x="454" d="M 90 0 L 90 0 Z M 445 0 L 90 0 L 90 730 L 160 730 L 160 62 L 445 62 L 445 0 Z M 325 287 L 325 287 Z M 355 287 L 295 287 L 295 431 L 355 431 L 355 287 Z" unicode="Ŀ" />
<glyph horiz-adv-x="207" d="M 71 0 L 71 0 Z M 136 777 L 136 0 L 71 0 L 71 777 L 136 777 Z M 231 217 L 231 217 Z M 261 217 L 201 217 L 201 361 L 261 361 L 261 217 Z" unicode="ŀ" />
<glyph horiz-adv-x="454" d="M 438 59 L 438 0 L 90 0 L 90 278 L 29 253 L 5 303 L 90 338 L 90 730 L 160 730 L 160 367 L 339 440 L 362 390 L 160 307 L 160 59 L 438 59 Z" unicode="Ł" />
<glyph horiz-adv-x="207" d="M 215 347 L 138 312 L 138 0 L 74 0 L 74 283 L 18 257 L 0 302 L 74 336 L 74 772 L 138 772 L 138 365 L 195 391 L 215 347 Z" unicode="ł" />
<glyph horiz-adv-x="704" d="M 90 0 L 90 0 Z M 614 0 L 563 0 L 156 592 L 156 0 L 90 0 L 90 730 L 143 730 L 549 138 L 549 730 L 614 730 L 614 0 Z M 353 791 L 353 791 Z M 266 791 L 364 958 L 440 958 L 331 791 L 266 791 Z" unicode="Ń" />
<glyph horiz-adv-x="511" d="M 70 0 L 70 0 Z M 446 0 L 381 0 L 381 336 C 381 368 370 393 349 411 C 328 429 301 438 269 438 C 253 438 236 435 220 430 C 204 425 189 417 177 406 C 164 395 154 381 146 364 C 138 347 134 327 134 303 L 134 0 L 70 0 L 70 482 L 129 482 L 129 386 C 138 417 157 442 187 462 C 216 482 251 492 291 492 C 335 492 371 480 401 456 C 431 432 446 398 446 354 L 446 0 Z M 261 543 L 261 543 Z M 174 543 L 272 710 L 348 710 L 239 543 L 174 543 Z" unicode="ń" />
<glyph horiz-adv-x="704" d="M 90 0 L 90 0 Z M 614 0 L 563 0 L 156 592 L 156 0 L 90 0 L 90 730 L 143 730 L 549 138 L 549 730 L 614 730 L 614 0 Z M 333 -77 L 333 -77 Z M 413 -77 C 407 -123 394 -167 374 -211 C 354 -254 330 -290 303 -320 L 254 -297 C 262 -287 270 -274 279 -258 C 288 -242 297 -225 305 -205 C 313 -185 321 -165 328 -143 C 335 -121 340 -99 344 -77 L 413 -77 Z" unicode="Ņ" />
<glyph horiz-adv-x="511" d="M 70 0 L 70 0 Z M 446 0 L 381 0 L 381 336 C 381 368 370 393 349 411 C 328 429 301 438 269 438 C 253 438 236 435 220 430 C 204 425 189 417 177 406 C 164 395 154 381 146 364 C 138 347 134 327 134 303 L 134 0 L 70 0 L 70 482 L 129 482 L 129 386 C 138 417 157 442 187 462 C 216 482 251 492 291 492 C 335 492 371 480 401 456 C 431 432 446 398 446 354 L 446 0 Z M 231 -77 L 231 -77 Z M 311 -77 C 305 -123 292 -167 272 -211 C 252 -254 228 -290 201 -320 L 152 -297 C 160 -287 168 -274 177 -258 C 186 -242 195 -225 203 -205 C 211 -185 219 -165 226 -143 C 233 -121 238 -99 242 -77 L 311 -77 Z" unicode="ņ" />
<glyph horiz-adv-x="704" d="M 90 0 L 90 0 Z M 614 0 L 563 0 L 156 592 L 156 0 L 90 0 L 90 730 L 143 730 L 549 138 L 549 730 L 614 730 L 614 0 Z M 353 790 L 353 790 Z M 208 960 L 267 960 L 354 834 L 441 960 L 499 960 L 385 790 L 322 790 L 208 960 Z" unicode="Ň" />
<glyph horiz-adv-x="511" d="M 70 0 L 70 0 Z M 446 0 L 381 0 L 381 336 C 381 368 370 393 349 411 C 328 429 301 438 269 438 C 253 438 236 435 220 430 C 204 425 189 417 177 406 C 164 395 154 381 146 364 C 138 347 134 327 134 303 L 134 0 L 70 0 L 70 482 L 129 482 L 129 386 C 138 417 157 442 187 462 C 216 482 251 492 291 492 C 335 492 371 480 401 456 C 431 432 446 398 446 354 L 446 0 Z M 261 542 L 261 542 Z M 116 712 L 175 712 L 262 586 L 349 712 L 407 712 L 293 542 L 230 542 L 116 712 Z" unicode="ň" />
<glyph horiz-adv-x="706" d="M 549 730 L 614 730 L 614 -2 C 614 -29 610 -55 602 -79 C 594 -103 583 -124 568 -142 C 553 -160 535 -174 513 -184 C 491 -194 465 -199 437 -199 C 421 -199 404 -197 388 -195 C 372 -192 358 -188 348 -184 L 358 -124 C 364 -127 375 -130 389 -133 C 403 -135 417 -137 431 -137 C 468 -137 497 -123 518 -97 C 539 -71 550 -39 550 -1 L 550 19 L 156 592 L 156 0 L 90 0 L 90 730 L 143 730 L 549 138 L 549 730 Z" unicode="Ŋ" />
<glyph horiz-adv-x="511" d="M 291 492 C 335 492 371 480 401 456 C 431 432 446 398 446 354 L 446 -62 C 446 -105 434 -139 410 -164 C 386 -188 358 -201 325 -201 C 314 -201 302 -199 290 -197 C 277 -195 267 -192 261 -188 L 274 -135 C 278 -137 284 -139 291 -141 C 298 -142 306 -143 314 -143 C 330 -143 346 -135 360 -120 C 374 -105 381 -83 381 -55 L 381 336 C 381 368 370 393 349 411 C 328 429 301 438 269 438 C 253 438 236 435 220 430 C 204 425 189 417 177 406 C 164 395 154 381 146 364 C 138 347 134 327 134 303 L 134 0 L 70 0 L 70 482 L 129 482 L 129 386 C 138 417 157 442 187 462 C 216 482 251 492 291 492 Z" unicode="ŋ" />
<glyph horiz-adv-x="756" d="M 46 0 L 46 0 Z M 381 -10 C 331 -10 286 -1 245 17 C 204 35 169 60 140 93 C 110 126 87 166 71 213 C 54 260 46 312 46 370 C 46 424 54 474 71 520 C 87 566 110 605 139 637 C 168 669 203 695 243 713 C 283 731 327 740 374 740 C 424 740 469 731 511 713 C 553 695 588 669 618 637 C 647 605 670 565 686 519 C 702 473 710 422 710 366 C 710 310 701 258 684 212 C 666 166 643 126 614 93 C 584 60 549 35 509 17 C 469 -1 426 -10 381 -10 Z M 382 50 C 418 50 451 57 483 72 C 514 86 541 107 564 135 C 587 162 605 195 618 235 C 631 275 638 320 638 370 C 638 416 631 458 618 496 C 604 534 586 566 563 593 C 539 620 511 641 479 656 C 447 670 412 678 374 678 C 336 678 301 670 270 656 C 238 642 211 621 189 595 C 166 569 148 536 136 497 C 124 458 118 414 118 366 C 118 316 125 271 139 232 C 153 192 171 159 195 133 C 219 106 247 85 279 71 C 311 57 346 50 382 50 Z M 375 817 L 375 817 Z M 496 817 L 254 817 L 254 869 L 496 869 L 496 817 Z" unicode="Ō" />
<glyph horiz-adv-x="515" d="M 33 0 L 33 0 Z M 256 -9 C 226 -9 197 -3 170 8 C 143 19 119 35 99 57 C 79 78 63 104 51 135 C 39 166 33 201 33 239 C 33 275 38 308 50 339 C 61 370 77 397 97 419 C 117 441 140 459 167 472 C 194 485 223 492 254 492 C 286 492 316 486 344 474 C 372 462 396 446 416 425 C 436 404 452 379 464 349 C 476 319 482 287 482 252 C 482 214 476 180 465 148 C 453 116 438 88 418 65 C 398 42 374 24 346 11 C 318 -2 288 -9 256 -9 Z M 258 47 C 304 47 342 65 371 102 C 400 139 415 187 415 245 C 415 301 400 346 371 382 C 341 418 302 436 253 436 C 209 436 172 417 143 381 C 114 345 100 298 100 242 C 100 180 115 132 146 98 C 176 64 214 47 258 47 Z M 255 569 L 255 569 Z M 376 569 L 134 569 L 134 621 L 376 621 L 376 569 Z" unicode="ō" />
<glyph horiz-adv-x="756" d="M 46 0 L 46 0 Z M 381 -10 C 331 -10 286 -1 245 17 C 204 35 169 60 140 93 C 110 126 87 166 71 213 C 54 260 46 312 46 370 C 46 424 54 474 71 520 C 87 566 110 605 139 637 C 168 669 203 695 243 713 C 283 731 327 740 374 740 C 424 740 469 731 511 713 C 553 695 588 669 618 637 C 647 605 670 565 686 519 C 702 473 710 422 710 366 C 710 310 701 258 684 212 C 666 166 643 126 614 93 C 584 60 549 35 509 17 C 469 -1 426 -10 381 -10 Z M 382 50 C 418 50 451 57 483 72 C 514 86 541 107 564 135 C 587 162 605 195 618 235 C 631 275 638 320 638 370 C 638 416 631 458 618 496 C 604 534 586 566 563 593 C 539 620 511 641 479 656 C 447 670 412 678 374 678 C 336 678 301 670 270 656 C 238 642 211 621 189 595 C 166 569 148 536 136 497 C 124 458 118 414 118 366 C 118 316 125 271 139 232 C 153 192 171 159 195 133 C 219 106 247 85 279 71 C 311 57 346 50 382 50 Z M 375 797 L 375 797 Z M 459 953 L 514 953 C 510 899 495 859 470 834 C 444 809 413 797 375 797 C 337 797 305 809 280 834 C 254 859 240 899 236 953 L 291 953 C 293 920 301 893 314 872 C 326 851 347 841 375 841 C 403 841 423 851 436 871 C 449 891 457 919 459 953 Z" unicode="Ŏ" />
<glyph horiz-adv-x="515" d="M 33 0 L 33 0 Z M 256 -9 C 226 -9 197 -3 170 8 C 143 19 119 35 99 57 C 79 78 63 104 51 135 C 39 166 33 201 33 239 C 33 275 38 308 50 339 C 61 370 77 397 97 419 C 117 441 140 459 167 472 C 194 485 223 492 254 492 C 286 492 316 486 344 474 C 372 462 396 446 416 425 C 436 404 452 379 464 349 C 476 319 482 287 482 252 C 482 214 476 180 465 148 C 453 116 438 88 418 65 C 398 42 374 24 346 11 C 318 -2 288 -9 256 -9 Z M 258 47 C 304 47 342 65 371 102 C 400 139 415 187 415 245 C 415 301 400 346 371 382 C 341 418 302 436 253 436 C 209 436 172 417 143 381 C 114 345 100 298 100 242 C 100 180 115 132 146 98 C 176 64 214 47 258 47 Z M 255 549 L 255 549 Z M 339 705 L 394 705 C 390 651 375 611 350 586 C 324 561 293 549 255 549 C 217 549 185 561 160 586 C 134 611 120 651 116 705 L 171 705 C 173 672 181 645 194 624 C 206 603 227 593 255 593 C 283 593 303 603 316 623 C 329 643 337 671 339 705 Z" unicode="ŏ" />
<glyph horiz-adv-x="756" d="M 46 0 L 46 0 Z M 381 -10 C 331 -10 286 -1 245 17 C 204 35 169 60 140 93 C 110 126 87 166 71 213 C 54 260 46 312 46 370 C 46 424 54 474 71 520 C 87 566 110 605 139 637 C 168 669 203 695 243 713 C 283 731 327 740 374 740 C 424 740 469 731 511 713 C 553 695 588 669 618 637 C 647 605 670 565 686 519 C 702 473 710 422 710 366 C 710 310 701 258 684 212 C 666 166 643 126 614 93 C 584 60 549 35 509 17 C 469 -1 426 -10 381 -10 Z M 382 50 C 418 50 451 57 483 72 C 514 86 541 107 564 135 C 587 162 605 195 618 235 C 631 275 638 320 638 370 C 638 416 631 458 618 496 C 604 534 586 566 563 593 C 539 620 511 641 479 656 C 447 670 412 678 374 678 C 336 678 301 670 270 656 C 238 642 211 621 189 595 C 166 569 148 536 136 497 C 124 458 118 414 118 366 C 118 316 125 271 139 232 C 153 192 171 159 195 133 C 219 106 247 85 279 71 C 311 57 346 50 382 50 Z M 375 789 L 375 789 Z M 218 789 L 300 941 L 370 941 L 277 789 L 218 789 Z M 381 789 L 464 941 L 534 941 L 440 789 L 381 789 Z" unicode="Ő" />
<glyph horiz-adv-x="515" d="M 33 0 L 33 0 Z M 256 -9 C 226 -9 197 -3 170 8 C 143 19 119 35 99 57 C 79 78 63 104 51 135 C 39 166 33 201 33 239 C 33 275 38 308 50 339 C 61 370 77 397 97 419 C 117 441 140 459 167 472 C 194 485 223 492 254 492 C 286 492 316 486 344 474 C 372 462 396 446 416 425 C 436 404 452 379 464 349 C 476 319 482 287 482 252 C 482 214 476 180 465 148 C 453 116 438 88 418 65 C 398 42 374 24 346 11 C 318 -2 288 -9 256 -9 Z M 258 47 C 304 47 342 65 371 102 C 400 139 415 187 415 245 C 415 301 400 346 371 382 C 341 418 302 436 253 436 C 209 436 172 417 143 381 C 114 345 100 298 100 242 C 100 180 115 132 146 98 C 176 64 214 47 258 47 Z M 255 541 L 255 541 Z M 98 541 L 180 693 L 250 693 L 157 541 L 98 541 Z M 261 541 L 344 693 L 414 693 L 320 541 L 261 541 Z" unicode="ő" />
<glyph horiz-adv-x="1051" d="M 368 -10 C 321 -10 278 -1 238 17 C 198 35 164 60 136 93 C 108 125 86 165 70 212 C 54 259 46 311 46 369 C 46 423 54 473 70 519 C 86 565 109 604 138 637 C 166 669 200 695 240 713 C 279 731 321 740 367 740 C 396 740 425 735 453 726 C 481 716 507 703 531 687 C 554 671 574 651 591 629 C 608 606 621 582 629 557 L 629 730 L 988 730 L 988 669 L 696 669 L 696 392 L 977 392 L 977 333 L 696 333 L 696 61 L 1006 61 L 1006 0 L 629 0 L 629 184 C 621 157 610 132 595 109 C 579 85 561 65 539 47 C 517 29 491 15 463 5 C 434 -4 402 -10 368 -10 Z M 376 47 C 411 47 444 54 475 68 C 506 82 533 102 556 130 C 579 157 597 191 611 232 C 624 272 631 319 631 371 C 631 422 623 467 607 506 C 591 545 571 577 547 603 C 522 629 494 648 463 661 C 432 674 402 681 372 681 C 335 681 301 673 270 659 C 239 645 212 624 190 597 C 167 570 149 537 137 498 C 124 459 118 415 118 366 C 118 315 124 270 138 230 C 152 190 170 156 193 130 C 216 103 243 82 275 68 C 307 54 340 47 376 47 Z" unicode="Œ" />
<glyph horiz-adv-x="878" d="M 255 -9 C 224 -9 195 -3 168 8 C 141 20 118 36 98 58 C 78 79 62 105 50 136 C 38 166 33 201 33 239 C 33 274 38 307 50 338 C 61 369 76 396 96 419 C 116 441 139 459 167 472 C 194 485 223 492 255 492 C 283 492 308 487 330 479 C 352 470 372 458 388 444 C 404 430 417 414 427 396 C 437 378 443 360 447 342 C 449 358 456 375 466 393 C 476 411 490 427 506 442 C 522 456 541 468 563 478 C 585 487 609 492 636 492 C 701 492 753 468 791 420 C 829 372 849 307 850 226 L 479 226 C 479 171 495 127 526 95 C 556 62 595 46 643 46 C 683 46 715 53 737 67 C 759 81 778 98 794 116 L 832 77 C 813 54 789 34 761 17 C 733 0 693 -9 642 -9 C 614 -9 589 -4 566 4 C 543 12 523 24 507 38 C 490 52 476 68 466 86 C 455 104 448 122 446 141 C 442 124 436 107 426 89 C 416 71 402 54 386 40 C 370 26 351 14 329 5 C 307 -4 282 -9 255 -9 Z M 479 273 L 786 273 C 785 320 771 359 743 391 C 715 423 678 439 634 439 C 589 439 553 422 525 390 C 497 358 482 319 479 273 Z M 258 47 C 304 47 342 65 371 101 C 400 137 415 185 415 245 C 415 301 400 347 370 383 C 340 418 302 436 254 436 C 208 436 171 417 143 381 C 114 345 100 298 100 242 C 100 180 115 132 145 98 C 175 64 213 47 258 47 Z" unicode="œ" />
<glyph horiz-adv-x="547" d="M 90 0 L 90 0 Z M 90 0 L 90 730 L 266 730 C 324 730 372 713 408 679 C 444 645 463 597 463 537 C 463 506 458 479 450 455 C 441 431 429 410 415 394 C 400 377 383 364 364 354 C 344 344 324 339 304 337 L 300 335 L 516 0 L 437 0 L 233 321 L 158 321 L 158 0 L 90 0 Z M 158 379 L 250 379 C 292 379 326 392 353 418 C 380 444 394 481 394 529 C 394 572 381 606 356 632 C 330 657 297 670 255 670 L 158 670 L 158 379 Z M 261 791 L 261 791 Z M 174 791 L 272 958 L 348 958 L 239 791 L 174 791 Z" unicode="Ŕ" />
<glyph horiz-adv-x="369" d="M 70 0 L 70 0 Z M 369 463 L 341 407 C 330 416 318 423 305 428 C 291 432 276 435 260 435 C 245 435 230 431 215 425 C 199 419 186 410 174 398 C 162 386 153 371 145 353 C 137 335 134 314 134 291 L 134 0 L 70 0 L 70 482 L 131 482 L 131 378 C 137 406 154 432 180 456 C 206 480 239 492 277 492 C 297 492 315 489 331 483 C 347 477 359 471 369 463 Z M 221 543 L 221 543 Z M 134 543 L 232 710 L 308 710 L 199 543 L 134 543 Z" unicode="ŕ" />
<glyph horiz-adv-x="547" d="M 90 0 L 90 0 Z M 90 0 L 90 730 L 266 730 C 324 730 372 713 408 679 C 444 645 463 597 463 537 C 463 506 458 479 450 455 C 441 431 429 410 415 394 C 400 377 383 364 364 354 C 344 344 324 339 304 337 L 300 335 L 516 0 L 437 0 L 233 321 L 158 321 L 158 0 L 90 0 Z M 158 379 L 250 379 C 292 379 326 392 353 418 C 380 444 394 481 394 529 C 394 572 381 606 356 632 C 330 657 297 670 255 670 L 158 670 L 158 379 Z M 262 -77 L 262 -77 Z M 342 -77 C 336 -123 323 -167 303 -211 C 283 -254 259 -290 232 -320 L 183 -297 C 191 -287 199 -274 208 -258 C 217 -242 226 -225 234 -205 C 242 -185 250 -165 257 -143 C 264 -121 269 -99 273 -77 L 342 -77 Z" unicode="Ŗ" />
<glyph horiz-adv-x="369" d="M 70 0 L 70 0 Z M 369 463 L 341 407 C 330 416 318 423 305 428 C 291 432 276 435 260 435 C 245 435 230 431 215 425 C 199 419 186 410 174 398 C 162 386 153 371 145 353 C 137 335 134 314 134 291 L 134 0 L 70 0 L 70 482 L 131 482 L 131 378 C 137 406 154 432 180 456 C 206 480 239 492 277 492 C 297 492 315 489 331 483 C 347 477 359 471 369 463 Z M 191 -77 L 191 -77 Z M 271 -77 C 265 -123 252 -167 232 -211 C 212 -254 188 -290 161 -320 L 112 -297 C 120 -287 128 -274 137 -258 C 146 -242 155 -225 163 -205 C 171 -185 179 -165 186 -143 C 193 -121 198 -99 202 -77 L 271 -77 Z" unicode="ŗ" />
<glyph horiz-adv-x="547" d="M 90 0 L 90 0 Z M 90 0 L 90 730 L 266 730 C 324 730 372 713 408 679 C 444 645 463 597 463 537 C 463 506 458 479 450 455 C 441 431 429 410 415 394 C 400 377 383 364 364 354 C 344 344 324 339 304 337 L 300 335 L 516 0 L 437 0 L 233 321 L 158 321 L 158 0 L 90 0 Z M 158 379 L 250 379 C 292 379 326 392 353 418 C 380 444 394 481 394 529 C 394 572 381 606 356 632 C 330 657 297 670 255 670 L 158 670 L 158 379 Z M 261 790 L 261 790 Z M 116 960 L 175 960 L 262 834 L 349 960 L 407 960 L 293 790 L 230 790 L 116 960 Z" unicode="Ř" />
<glyph horiz-adv-x="369" d="M 70 0 L 70 0 Z M 369 463 L 341 407 C 330 416 318 423 305 428 C 291 432 276 435 260 435 C 245 435 230 431 215 425 C 199 419 186 410 174 398 C 162 386 153 371 145 353 C 137 335 134 314 134 291 L 134 0 L 70 0 L 70 482 L 131 482 L 131 378 C 137 406 154 432 180 456 C 206 480 239 492 277 492 C 297 492 315 489 331 483 C 347 477 359 471 369 463 Z M 221 542 L 221 542 Z M 76 712 L 135 712 L 222 586 L 309 712 L 367 712 L 253 542 L 190 542 L 76 712 Z" unicode="ř" />
<glyph horiz-adv-x="491" d="M 34 0 L 34 0 Z M 251 -10 C 204 -10 162 -2 126 13 C 89 28 58 50 34 79 L 77 131 C 97 103 122 83 154 69 C 186 55 217 48 249 48 C 286 48 318 59 344 83 C 370 106 384 136 384 174 C 384 208 373 238 352 264 C 331 289 293 315 238 343 C 206 358 178 373 155 388 C 131 402 112 418 97 435 C 82 451 71 470 64 492 C 57 513 54 538 54 566 C 54 618 71 660 107 692 C 142 724 187 740 243 740 C 284 740 320 733 350 719 C 380 705 406 689 428 669 L 389 616 C 369 634 347 649 322 661 C 297 672 270 678 242 678 C 206 678 177 667 155 646 C 132 625 121 598 121 564 C 121 528 132 498 154 476 C 176 454 217 428 277 400 C 343 368 388 335 413 301 C 438 267 451 226 451 178 C 451 148 445 122 435 99 C 424 75 409 56 391 40 C 373 24 351 11 327 3 C 303 -5 277 -10 251 -10 Z M 243 791 L 243 791 Z M 156 791 L 254 958 L 330 958 L 221 791 L 156 791 Z" unicode="Ś" />
<glyph horiz-adv-x="384" d="M 32 0 L 32 0 Z M 203 -9 C 164 -9 130 -3 102 8 C 74 20 50 36 32 56 L 64 100 C 80 83 99 69 123 59 C 146 49 172 44 200 44 C 224 44 245 51 263 66 C 281 80 291 100 291 125 C 291 146 282 164 266 180 C 249 195 219 211 176 228 C 128 245 95 264 75 286 C 55 308 46 336 46 370 C 46 406 60 435 89 458 C 117 480 152 492 192 492 C 227 492 257 486 281 476 C 305 466 324 455 339 444 L 310 397 C 297 407 281 416 261 425 C 241 433 219 438 195 438 C 172 438 151 432 133 420 C 115 408 106 392 106 372 C 106 352 112 336 126 324 C 139 311 168 296 212 280 C 262 260 297 238 319 216 C 340 193 351 163 351 127 C 351 85 336 51 306 27 C 276 3 242 -9 203 -9 Z M 195 543 L 195 543 Z M 108 543 L 206 710 L 282 710 L 173 543 L 108 543 Z" unicode="ś" />
<glyph horiz-adv-x="491" d="M 34 0 L 34 0 Z M 251 -10 C 204 -10 162 -2 126 13 C 89 28 58 50 34 79 L 77 131 C 97 103 122 83 154 69 C 186 55 217 48 249 48 C 286 48 318 59 344 83 C 370 106 384 136 384 174 C 384 208 373 238 352 264 C 331 289 293 315 238 343 C 206 358 178 373 155 388 C 131 402 112 418 97 435 C 82 451 71 470 64 492 C 57 513 54 538 54 566 C 54 618 71 660 107 692 C 142 724 187 740 243 740 C 284 740 320 733 350 719 C 380 705 406 689 428 669 L 389 616 C 369 634 347 649 322 661 C 297 672 270 678 242 678 C 206 678 177 667 155 646 C 132 625 121 598 121 564 C 121 528 132 498 154 476 C 176 454 217 428 277 400 C 343 368 388 335 413 301 C 438 267 451 226 451 178 C 451 148 445 122 435 99 C 424 75 409 56 391 40 C 373 24 351 11 327 3 C 303 -5 277 -10 251 -10 Z M 243 790 L 243 790 Z M 389 790 L 329 790 L 243 916 L 155 790 L 98 790 L 212 960 L 275 960 L 389 790 Z" unicode="Ŝ" />
<glyph horiz-adv-x="384" d="M 32 0 L 32 0 Z M 203 -9 C 164 -9 130 -3 102 8 C 74 20 50 36 32 56 L 64 100 C 80 83 99 69 123 59 C 146 49 172 44 200 44 C 224 44 245 51 263 66 C 281 80 291 100 291 125 C 291 146 282 164 266 180 C 249 195 219 211 176 228 C 128 245 95 264 75 286 C 55 308 46 336 46 370 C 46 406 60 435 89 458 C 117 480 152 492 192 492 C 227 492 257 486 281 476 C 305 466 324 455 339 444 L 310 397 C 297 407 281 416 261 425 C 241 433 219 438 195 438 C 172 438 151 432 133 420 C 115 408 106 392 106 372 C 106 352 112 336 126 324 C 139 311 168 296 212 280 C 262 260 297 238 319 216 C 340 193 351 163 351 127 C 351 85 336 51 306 27 C 276 3 242 -9 203 -9 Z M 195 542 L 195 542 Z M 341 542 L 281 542 L 195 668 L 107 542 L 50 542 L 164 712 L 227 712 L 341 542 Z" unicode="ŝ" />
<glyph horiz-adv-x="491" d="M 34 0 L 34 0 Z M 251 -10 C 204 -10 162 -2 126 13 C 89 28 58 50 34 79 L 77 131 C 97 103 122 83 154 69 C 186 55 217 48 249 48 C 286 48 318 59 344 83 C 370 106 384 136 384 174 C 384 208 373 238 352 264 C 331 289 293 315 238 343 C 206 358 178 373 155 388 C 131 402 112 418 97 435 C 82 451 71 470 64 492 C 57 513 54 538 54 566 C 54 618 71 660 107 692 C 142 724 187 740 243 740 C 284 740 320 733 350 719 C 380 705 406 689 428 669 L 389 616 C 369 634 347 649 322 661 C 297 672 270 678 242 678 C 206 678 177 667 155 646 C 132 625 121 598 121 564 C 121 528 132 498 154 476 C 176 454 217 428 277 400 C 343 368 388 335 413 301 C 438 267 451 226 451 178 C 451 148 445 122 435 99 C 424 75 409 56 391 40 C 373 24 351 11 327 3 C 303 -5 277 -10 251 -10 Z M 232 -5 L 232 -5 Z M 239 -189 C 217 -189 194 -186 172 -180 C 150 -174 132 -166 119 -157 L 130 -127 C 140 -133 153 -139 169 -145 C 185 -151 202 -154 222 -154 C 238 -154 253 -150 266 -142 C 278 -134 285 -123 285 -111 C 285 -96 279 -86 268 -80 C 256 -74 244 -71 232 -71 C 223 -71 215 -71 209 -73 C 203 -74 196 -76 188 -79 L 177 -66 L 233 5 L 272 5 L 224 -58 C 257 -49 285 -51 309 -63 C 332 -75 344 -92 344 -116 C 344 -140 333 -158 313 -170 C 292 -182 267 -189 239 -189 Z" unicode="Ş" />
<glyph horiz-adv-x="384" d="M 32 0 L 32 0 Z M 203 -9 C 164 -9 130 -3 102 8 C 74 20 50 36 32 56 L 64 100 C 80 83 99 69 123 59 C 146 49 172 44 200 44 C 224 44 245 51 263 66 C 281 80 291 100 291 125 C 291 146 282 164 266 180 C 249 195 219 211 176 228 C 128 245 95 264 75 286 C 55 308 46 336 46 370 C 46 406 60 435 89 458 C 117 480 152 492 192 492 C 227 492 257 486 281 476 C 305 466 324 455 339 444 L 310 397 C 297 407 281 416 261 425 C 241 433 219 438 195 438 C 172 438 151 432 133 420 C 115 408 106 392 106 372 C 106 352 112 336 126 324 C 139 311 168 296 212 280 C 262 260 297 238 319 216 C 340 193 351 163 351 127 C 351 85 336 51 306 27 C 276 3 242 -9 203 -9 Z M 184 -4 L 184 -4 Z M 191 -188 C 169 -188 146 -185 124 -179 C 102 -173 84 -165 71 -156 L 82 -126 C 92 -132 105 -138 121 -144 C 137 -150 154 -153 174 -153 C 190 -153 205 -149 218 -141 C 230 -133 237 -122 237 -110 C 237 -95 231 -85 220 -79 C 208 -73 196 -70 184 -70 C 175 -70 167 -70 161 -72 C 155 -73 148 -75 140 -78 L 129 -65 L 185 6 L 224 6 L 176 -57 C 209 -48 237 -50 261 -62 C 284 -74 296 -91 296 -115 C 296 -139 285 -157 265 -169 C 244 -181 219 -188 191 -188 Z" unicode="ş" />
<glyph horiz-adv-x="491" d="M 34 0 L 34 0 Z M 251 -10 C 204 -10 162 -2 126 13 C 89 28 58 50 34 79 L 77 131 C 97 103 122 83 154 69 C 186 55 217 48 249 48 C 286 48 318 59 344 83 C 370 106 384 136 384 174 C 384 208 373 238 352 264 C 331 289 293 315 238 343 C 206 358 178 373 155 388 C 131 402 112 418 97 435 C 82 451 71 470 64 492 C 57 513 54 538 54 566 C 54 618 71 660 107 692 C 142 724 187 740 243 740 C 284 740 320 733 350 719 C 380 705 406 689 428 669 L 389 616 C 369 634 347 649 322 661 C 297 672 270 678 242 678 C 206 678 177 667 155 646 C 132 625 121 598 121 564 C 121 528 132 498 154 476 C 176 454 217 428 277 400 C 343 368 388 335 413 301 C 438 267 451 226 451 178 C 451 148 445 122 435 99 C 424 75 409 56 391 40 C 373 24 351 11 327 3 C 303 -5 277 -10 251 -10 Z M 243 790 L 243 790 Z M 98 960 L 157 960 L 244 834 L 331 960 L 389 960 L 275 790 L 212 790 L 98 960 Z" unicode="Š" />
<glyph horiz-adv-x="384" d="M 32 0 L 32 0 Z M 203 -9 C 164 -9 130 -3 102 8 C 74 20 50 36 32 56 L 64 100 C 80 83 99 69 123 59 C 146 49 172 44 200 44 C 224 44 245 51 263 66 C 281 80 291 100 291 125 C 291 146 282 164 266 180 C 249 195 219 211 176 228 C 128 245 95 264 75 286 C 55 308 46 336 46 370 C 46 406 60 435 89 458 C 117 480 152 492 192 492 C 227 492 257 486 281 476 C 305 466 324 455 339 444 L 310 397 C 297 407 281 416 261 425 C 241 433 219 438 195 438 C 172 438 151 432 133 420 C 115 408 106 392 106 372 C 106 352 112 336 126 324 C 139 311 168 296 212 280 C 262 260 297 238 319 216 C 340 193 351 163 351 127 C 351 85 336 51 306 27 C 276 3 242 -9 203 -9 Z M 195 542 L 195 542 Z M 50 712 L 109 712 L 196 586 L 283 712 L 341 712 L 227 542 L 164 542 L 50 712 Z" unicode="š" />
<glyph horiz-adv-x="471" d="M 9 0 L 9 0 Z M 462 668 L 268 668 L 268 0 L 198 0 L 198 668 L 9 668 L 9 730 L 462 730 L 462 668 Z M 234 790 L 234 790 Z M 89 960 L 148 960 L 235 834 L 322 960 L 380 960 L 266 790 L 203 790 L 89 960 Z" unicode="Ť" />
<glyph horiz-adv-x="263" d="M 13 0 L 13 0 Z M 243 62 L 251 10 C 245 6 237 2 225 0 C 213 -3 201 -5 187 -5 C 160 -5 135 3 113 19 C 90 35 79 65 79 107 L 79 427 L 13 427 L 13 482 L 80 482 L 80 600 L 143 609 L 143 482 L 242 482 L 242 427 L 144 427 L 144 111 C 144 91 149 76 159 66 C 169 56 182 52 199 52 C 207 52 216 53 225 55 C 233 57 239 60 243 62 Z M 320 617 L 317 486 L 263 486 L 259 617 L 259 730 L 320 730 L 320 617 Z" unicode="ť" />
<glyph horiz-adv-x="471" d="M 403 487 L 268 487 L 268 0 L 198 0 L 198 487 L 62 487 L 62 542 L 198 542 L 198 668 L 9 668 L 9 730 L 462 730 L 462 668 L 268 668 L 268 542 L 403 542 L 403 487 Z" unicode="Ŧ" />
<glyph horiz-adv-x="263" d="M 251 10 C 245 6 237 2 225 0 C 213 -3 201 -5 187 -5 C 160 -5 135 3 113 19 C 90 35 79 65 79 107 L 79 286 L 22 286 L 22 342 L 79 342 L 79 427 L 13 427 L 13 482 L 80 482 L 80 600 L 143 609 L 143 482 L 242 482 L 242 427 L 144 427 L 144 342 L 226 342 L 226 286 L 144 286 L 144 111 C 144 91 149 76 159 66 C 169 56 182 52 199 52 C 207 52 216 53 225 55 C 233 57 239 60 243 62 L 251 10 Z" unicode="ŧ" />
<glyph horiz-adv-x="674" d="M 84 0 L 84 0 Z M 590 730 L 590 248 C 590 206 583 168 570 136 C 556 104 538 77 515 55 C 492 33 465 17 434 6 C 403 -4 370 -10 335 -10 C 301 -10 268 -4 238 6 C 207 16 180 32 158 53 C 135 74 117 101 104 134 C 90 166 84 204 84 248 L 84 730 L 153 730 L 153 244 C 153 213 157 186 167 162 C 177 138 190 118 206 102 C 222 86 242 73 264 65 C 286 56 310 52 335 52 C 360 52 384 56 406 64 C 428 72 448 84 465 100 C 481 116 495 136 505 160 C 515 184 520 212 520 244 L 520 730 L 590 730 Z M 336 798 L 336 798 Z M 441 926 L 491 926 C 491 882 484 850 472 829 C 460 808 443 798 423 798 C 405 798 389 802 375 811 C 361 820 348 829 338 838 C 327 846 316 855 305 864 C 294 872 283 877 273 877 C 262 877 253 870 245 858 C 237 845 232 827 232 803 L 182 803 C 182 846 190 878 206 899 C 222 920 240 931 260 931 C 276 931 291 926 304 917 C 316 908 329 899 341 889 C 351 880 361 872 371 864 C 381 856 392 852 403 852 C 413 852 422 858 430 871 C 437 884 441 902 441 926 Z" unicode="Ũ" />
<glyph horiz-adv-x="511" d="M 65 0 L 65 0 Z M 65 482 L 129 482 L 129 161 C 129 120 140 90 162 72 C 184 53 213 44 248 44 C 282 44 312 55 338 77 C 364 99 377 133 377 179 L 377 482 L 441 482 L 441 0 L 381 0 L 381 95 C 372 66 354 41 326 21 C 298 1 263 -9 223 -9 C 179 -9 141 3 111 28 C 80 53 65 92 65 144 L 65 482 Z M 253 550 L 253 550 Z M 358 678 L 408 678 C 408 634 401 602 389 581 C 377 560 360 550 340 550 C 322 550 306 554 292 563 C 278 572 265 581 255 590 C 244 598 233 607 222 616 C 211 624 200 629 190 629 C 179 629 170 622 162 610 C 154 597 149 579 149 555 L 99 555 C 99 598 107 630 123 651 C 139 672 157 683 177 683 C 193 683 208 678 221 669 C 233 660 246 651 258 641 C 268 632 278 624 288 616 C 298 608 309 604 320 604 C 330 604 339 610 347 623 C 354 636 358 654 358 678 Z" unicode="ũ" />
<glyph horiz-adv-x="674" d="M 84 0 L 84 0 Z M 590 730 L 590 248 C 590 206 583 168 570 136 C 556 104 538 77 515 55 C 492 33 465 17 434 6 C 403 -4 370 -10 335 -10 C 301 -10 268 -4 238 6 C 207 16 180 32 158 53 C 135 74 117 101 104 134 C 90 166 84 204 84 248 L 84 730 L 153 730 L 153 244 C 153 213 157 186 167 162 C 177 138 190 118 206 102 C 222 86 242 73 264 65 C 286 56 310 52 335 52 C 360 52 384 56 406 64 C 428 72 448 84 465 100 C 481 116 495 136 505 160 C 515 184 520 212 520 244 L 520 730 L 590 730 Z M 336 817 L 336 817 Z M 457 817 L 215 817 L 215 869 L 457 869 L 457 817 Z" unicode="Ū" />
<glyph horiz-adv-x="511" d="M 65 0 L 65 0 Z M 65 482 L 129 482 L 129 161 C 129 120 140 90 162 72 C 184 53 213 44 248 44 C 282 44 312 55 338 77 C 364 99 377 133 377 179 L 377 482 L 441 482 L 441 0 L 381 0 L 381 95 C 372 66 354 41 326 21 C 298 1 263 -9 223 -9 C 179 -9 141 3 111 28 C 80 53 65 92 65 144 L 65 482 Z M 253 569 L 253 569 Z M 374 569 L 132 569 L 132 621 L 374 621 L 374 569 Z" unicode="ū" />
<glyph horiz-adv-x="674" d="M 84 0 L 84 0 Z M 590 730 L 590 248 C 590 206 583 168 570 136 C 556 104 538 77 515 55 C 492 33 465 17 434 6 C 403 -4 370 -10 335 -10 C 301 -10 268 -4 238 6 C 207 16 180 32 158 53 C 135 74 117 101 104 134 C 90 166 84 204 84 248 L 84 730 L 153 730 L 153 244 C 153 213 157 186 167 162 C 177 138 190 118 206 102 C 222 86 242 73 264 65 C 286 56 310 52 335 52 C 360 52 384 56 406 64 C 428 72 448 84 465 100 C 481 116 495 136 505 160 C 515 184 520 212 520 244 L 520 730 L 590 730 Z M 336 797 L 336 797 Z M 420 953 L 475 953 C 471 899 456 859 431 834 C 405 809 374 797 336 797 C 298 797 266 809 241 834 C 215 859 201 899 197 953 L 252 953 C 254 920 262 893 275 872 C 287 851 308 841 336 841 C 364 841 384 851 397 871 C 410 891 418 919 420 953 Z" unicode="Ŭ" />
<glyph horiz-adv-x="511" d="M 65 0 L 65 0 Z M 65 482 L 129 482 L 129 161 C 129 120 140 90 162 72 C 184 53 213 44 248 44 C 282 44 312 55 338 77 C 364 99 377 133 377 179 L 377 482 L 441 482 L 441 0 L 381 0 L 381 95 C 372 66 354 41 326 21 C 298 1 263 -9 223 -9 C 179 -9 141 3 111 28 C 80 53 65 92 65 144 L 65 482 Z M 253 549 L 253 549 Z M 337 705 L 392 705 C 388 651 373 611 348 586 C 322 561 291 549 253 549 C 215 549 183 561 158 586 C 132 611 118 651 114 705 L 169 705 C 171 672 179 645 192 624 C 204 603 225 593 253 593 C 281 593 301 603 314 623 C 327 643 335 671 337 705 Z" unicode="ŭ" />
<glyph horiz-adv-x="674" d="M 84 0 L 84 0 Z M 590 730 L 590 248 C 590 206 583 168 570 136 C 556 104 538 77 515 55 C 492 33 465 17 434 6 C 403 -4 370 -10 335 -10 C 301 -10 268 -4 238 6 C 207 16 180 32 158 53 C 135 74 117 101 104 134 C 90 166 84 204 84 248 L 84 730 L 153 730 L 153 244 C 153 213 157 186 167 162 C 177 138 190 118 206 102 C 222 86 242 73 264 65 C 286 56 310 52 335 52 C 360 52 384 56 406 64 C 428 72 448 84 465 100 C 481 116 495 136 505 160 C 515 184 520 212 520 244 L 520 730 L 590 730 Z M 336 786 L 336 786 Z M 336 786 C 304 786 278 797 256 819 C 234 841 223 868 223 900 C 223 931 234 958 256 980 C 278 1002 304 1013 336 1013 C 368 1013 395 1002 417 980 C 439 958 450 931 450 900 C 450 868 439 841 417 819 C 395 797 368 786 336 786 Z M 336 826 C 356 826 373 833 387 847 C 401 861 408 879 408 900 C 408 920 401 938 387 952 C 373 966 356 974 336 974 C 316 974 299 966 285 952 C 271 938 264 920 264 900 C 264 879 271 861 285 847 C 299 833 316 826 336 826 Z" unicode="Ů" />
<glyph horiz-adv-x="511" d="M 65 0 L 65 0 Z M 65 482 L 129 482 L 129 161 C 129 120 140 90 162 72 C 184 53 213 44 248 44 C 282 44 312 55 338 77 C 364 99 377 133 377 179 L 377 482 L 441 482 L 441 0 L 381 0 L 381 95 C 372 66 354 41 326 21 C 298 1 263 -9 223 -9 C 179 -9 141 3 111 28 C 80 53 65 92 65 144 L 65 482 Z M 253 538 L 253 538 Z M 253 538 C 221 538 195 549 173 571 C 151 593 140 620 140 652 C 140 683 151 710 173 732 C 195 754 221 765 253 765 C 285 765 312 754 334 732 C 356 710 367 683 367 652 C 367 620 356 593 334 571 C 312 549 285 538 253 538 Z M 253 578 C 273 578 290 585 304 599 C 318 613 325 631 325 652 C 325 672 318 690 304 704 C 290 718 273 726 253 726 C 233 726 216 718 202 704 C 188 690 181 672 181 652 C 181 631 188 613 202 599 C 216 585 233 578 253 578 Z" unicode="ů" />
<glyph horiz-adv-x="674" d="M 84 0 L 84 0 Z M 590 730 L 590 248 C 590 206 583 168 570 136 C 556 104 538 77 515 55 C 492 33 465 17 434 6 C 403 -4 370 -10 335 -10 C 301 -10 268 -4 238 6 C 207 16 180 32 158 53 C 135 74 117 101 104 134 C 90 166 84 204 84 248 L 84 730 L 153 730 L 153 244 C 153 213 157 186 167 162 C 177 138 190 118 206 102 C 222 86 242 73 264 65 C 286 56 310 52 335 52 C 360 52 384 56 406 64 C 428 72 448 84 465 100 C 481 116 495 136 505 160 C 515 184 520 212 520 244 L 520 730 L 590 730 Z M 336 789 L 336 789 Z M 179 789 L 261 941 L 331 941 L 238 789 L 179 789 Z M 342 789 L 425 941 L 495 941 L 401 789 L 342 789 Z" unicode="Ű" />
<glyph horiz-adv-x="511" d="M 65 0 L 65 0 Z M 65 482 L 129 482 L 129 161 C 129 120 140 90 162 72 C 184 53 213 44 248 44 C 282 44 312 55 338 77 C 364 99 377 133 377 179 L 377 482 L 441 482 L 441 0 L 381 0 L 381 95 C 372 66 354 41 326 21 C 298 1 263 -9 223 -9 C 179 -9 141 3 111 28 C 80 53 65 92 65 144 L 65 482 Z M 253 541 L 253 541 Z M 96 541 L 178 693 L 248 693 L 155 541 L 96 541 Z M 259 541 L 342 693 L 412 693 L 318 541 L 259 541 Z" unicode="ű" />
<glyph horiz-adv-x="674" d="M 84 0 L 84 0 Z M 590 730 L 590 248 C 590 206 583 168 570 136 C 556 104 538 77 515 55 C 492 33 465 17 434 6 C 403 -4 370 -10 335 -10 C 301 -10 268 -4 238 6 C 207 16 180 32 158 53 C 135 74 117 101 104 134 C 90 166 84 204 84 248 L 84 730 L 153 730 L 153 244 C 153 213 157 186 167 162 C 177 138 190 118 206 102 C 222 86 242 73 264 65 C 286 56 310 52 335 52 C 360 52 384 56 406 64 C 428 72 448 84 465 100 C 481 116 495 136 505 160 C 515 184 520 212 520 244 L 520 730 L 590 730 Z M 377 -10 L 377 -10 Z M 485 -110 L 504 -137 C 485 -156 463 -171 439 -181 C 415 -191 388 -197 359 -197 C 327 -197 301 -189 283 -175 C 264 -161 255 -142 255 -120 C 255 -96 266 -74 288 -53 C 310 -31 342 -13 384 3 L 419 1 C 385 -13 359 -29 340 -45 C 320 -61 311 -77 311 -95 C 311 -111 317 -124 330 -134 C 343 -143 359 -148 379 -148 C 401 -148 421 -144 439 -137 C 457 -130 473 -121 485 -110 Z" unicode="Ų" />
<glyph horiz-adv-x="511" d="M 65 0 L 65 0 Z M 65 482 L 129 482 L 129 161 C 129 120 140 90 162 72 C 184 53 213 44 248 44 C 282 44 312 55 338 77 C 364 99 377 133 377 179 L 377 482 L 441 482 L 441 0 L 381 0 L 381 95 C 372 66 354 41 326 21 C 298 1 263 -9 223 -9 C 179 -9 141 3 111 28 C 80 53 65 92 65 144 L 65 482 Z M 377 -9 L 377 -9 Z M 485 -109 L 504 -136 C 485 -155 463 -170 439 -180 C 415 -190 388 -196 359 -196 C 327 -196 301 -188 283 -174 C 264 -160 255 -141 255 -119 C 255 -95 266 -73 288 -52 C 310 -30 342 -12 384 4 L 419 2 C 385 -12 359 -28 340 -44 C 320 -60 311 -76 311 -94 C 311 -110 317 -123 330 -133 C 343 -142 359 -147 379 -147 C 401 -147 421 -143 439 -136 C 457 -129 473 -120 485 -109 Z" unicode="ų" />
<glyph horiz-adv-x="841" d="M 11 0 L 11 0 Z M 827 730 L 628 -6 L 585 -6 L 419 601 L 250 -6 L 206 -6 L 11 730 L 81 730 L 234 132 L 399 730 L 444 730 L 608 131 L 763 730 L 827 730 Z M 421 790 L 421 790 Z M 567 790 L 507 790 L 421 916 L 333 790 L 276 790 L 390 960 L 453 960 L 567 790 Z" unicode="Ŵ" />
<glyph horiz-adv-x="645" d="M 6 0 L 6 0 Z M 442 -2 L 326 328 L 202 -2 L 159 -2 L 6 482 L 72 482 L 189 96 L 306 421 L 349 421 L 461 97 L 578 482 L 639 482 L 484 -2 L 442 -2 Z M 325 542 L 325 542 Z M 471 542 L 411 542 L 325 668 L 237 542 L 180 542 L 294 712 L 357 712 L 471 542 Z" unicode="ŵ" />
<glyph horiz-adv-x="567" d="M 3 0 L 3 0 Z M 573 730 L 321 317 L 321 0 L 251 0 L 251 319 L 3 730 L 81 730 L 290 385 L 501 730 L 573 730 Z M 289 790 L 289 790 Z M 435 790 L 375 790 L 289 916 L 201 790 L 144 790 L 258 960 L 321 960 L 435 790 Z" unicode="Ŷ" />
<glyph horiz-adv-x="432" d="M 0 0 L 0 0 Z M 433 482 L 198 -95 C 180 -135 159 -163 135 -178 C 111 -192 87 -200 65 -200 C 50 -200 38 -198 28 -195 C 18 -192 10 -190 6 -188 L 27 -132 C 29 -133 34 -135 42 -137 C 49 -139 57 -141 66 -141 C 80 -141 94 -135 108 -124 C 122 -112 135 -93 147 -67 L 184 29 L -1 482 L 68 482 L 218 104 L 368 482 L 433 482 Z M 217 542 L 217 542 Z M 363 542 L 303 542 L 217 668 L 129 542 L 72 542 L 186 712 L 249 712 L 363 542 Z" unicode="ŷ" />
<glyph horiz-adv-x="576" d="M 3 0 L 3 0 Z M 573 730 L 321 317 L 321 0 L 251 0 L 251 319 L 3 730 L 81 730 L 290 385 L 501 730 L 573 730 Z M 289 791 L 289 791 Z M 398 791 L 343 791 L 343 946 L 398 946 L 398 791 Z M 233 791 L 178 791 L 178 946 L 233 946 L 233 791 Z" unicode="Ÿ" />
<glyph horiz-adv-x="518" d="M 18 0 L 18 0 Z M 491 730 L 491 698 L 110 61 L 505 61 L 505 0 L 18 0 L 18 31 L 398 668 L 54 668 L 54 730 L 491 730 Z M 267 791 L 267 791 Z M 180 791 L 278 958 L 354 958 L 245 791 L 180 791 Z" unicode="Ź" />
<glyph horiz-adv-x="383" d="M 15 0 L 15 0 Z M 358 482 L 358 452 L 105 57 L 371 57 L 371 0 L 15 0 L 15 26 L 271 426 L 29 426 L 29 482 L 358 482 Z M 197 543 L 197 543 Z M 110 543 L 208 710 L 284 710 L 175 543 L 110 543 Z" unicode="ź" />
<glyph horiz-adv-x="518" d="M 18 0 L 18 0 Z M 491 730 L 491 698 L 110 61 L 505 61 L 505 0 L 18 0 L 18 31 L 398 668 L 54 668 L 54 730 L 491 730 Z M 267 794 L 267 794 Z M 297 794 L 237 794 L 237 938 L 297 938 L 297 794 Z" unicode="Ż" />
<glyph horiz-adv-x="383" d="M 15 0 L 15 0 Z M 358 482 L 358 452 L 105 57 L 371 57 L 371 0 L 15 0 L 15 26 L 271 426 L 29 426 L 29 482 L 358 482 Z M 197 546 L 197 546 Z M 227 546 L 167 546 L 167 690 L 227 690 L 227 546 Z" unicode="ż" />
<glyph horiz-adv-x="526" d="M 18 0 L 18 0 Z M 491 730 L 491 698 L 110 61 L 505 61 L 505 0 L 18 0 L 18 31 L 398 668 L 54 668 L 54 730 L 491 730 Z M 267 790 L 267 790 Z M 122 960 L 181 960 L 268 834 L 355 960 L 413 960 L 299 790 L 236 790 L 122 960 Z" unicode="Ž" />
<glyph horiz-adv-x="383" d="M 15 0 L 15 0 Z M 358 482 L 358 452 L 105 57 L 371 57 L 371 0 L 15 0 L 15 26 L 271 426 L 29 426 L 29 482 L 358 482 Z M 197 542 L 197 542 Z M 52 712 L 111 712 L 198 586 L 285 712 L 343 712 L 229 542 L 166 542 L 52 712 Z" unicode="ž" />
<glyph horiz-adv-x="351" d="M 167 -68 C 164 -100 151 -126 129 -147 C 106 -168 79 -179 47 -179 C 31 -179 16 -177 2 -175 C -11 -173 -22 -170 -29 -168 L -22 -120 C -17 -120 -10 -121 -1 -123 C 8 -125 17 -126 26 -126 C 46 -126 65 -119 82 -105 C 98 -91 108 -71 111 -45 L 145 341 L 50 341 L 50 396 L 150 396 L 171 635 C 173 668 186 693 209 711 C 231 729 254 738 277 738 C 289 738 300 737 311 736 C 321 735 328 734 331 734 L 325 676 C 323 676 319 677 313 678 C 307 678 301 679 295 679 C 276 679 260 672 248 660 C 235 647 228 627 226 601 L 208 396 L 314 396 L 314 341 L 203 341 L 167 -68 Z" unicode="ƒ" />
<glyph horiz-adv-x="491" d="M 34 0 L 34 0 Z M 251 -10 C 204 -10 162 -2 126 13 C 89 28 58 50 34 79 L 77 131 C 97 103 122 83 154 69 C 186 55 217 48 249 48 C 286 48 318 59 344 83 C 370 106 384 136 384 174 C 384 208 373 238 352 264 C 331 289 293 315 238 343 C 206 358 178 373 155 388 C 131 402 112 418 97 435 C 82 451 71 470 64 492 C 57 513 54 538 54 566 C 54 618 71 660 107 692 C 142 724 187 740 243 740 C 284 740 320 733 350 719 C 380 705 406 689 428 669 L 389 616 C 369 634 347 649 322 661 C 297 672 270 678 242 678 C 206 678 177 667 155 646 C 132 625 121 598 121 564 C 121 528 132 498 154 476 C 176 454 217 428 277 400 C 343 368 388 335 413 301 C 438 267 451 226 451 178 C 451 148 445 122 435 99 C 424 75 409 56 391 40 C 373 24 351 11 327 3 C 303 -5 277 -10 251 -10 Z M 232 -82 L 232 -82 Z M 312 -82 C 306 -128 293 -172 273 -216 C 253 -259 229 -295 202 -325 L 153 -302 C 161 -292 169 -279 178 -263 C 187 -247 196 -230 204 -210 C 212 -190 220 -170 227 -148 C 234 -126 239 -104 243 -82 L 312 -82 Z" unicode="Ș" />
<glyph horiz-adv-x="384" d="M 32 0 L 32 0 Z M 203 -9 C 164 -9 130 -3 102 8 C 74 20 50 36 32 56 L 64 100 C 80 83 99 69 123 59 C 146 49 172 44 200 44 C 224 44 245 51 263 66 C 281 80 291 100 291 125 C 291 146 282 164 266 180 C 249 195 219 211 176 228 C 128 245 95 264 75 286 C 55 308 46 336 46 370 C 46 406 60 435 89 458 C 117 480 152 492 192 492 C 227 492 257 486 281 476 C 305 466 324 455 339 444 L 310 397 C 297 407 281 416 261 425 C 241 433 219 438 195 438 C 172 438 151 432 133 420 C 115 408 106 392 106 372 C 106 352 112 336 126 324 C 139 311 168 296 212 280 C 262 260 297 238 319 216 C 340 193 351 163 351 127 C 351 85 336 51 306 27 C 276 3 242 -9 203 -9 Z M 184 -81 L 184 -81 Z M 264 -81 C 258 -127 245 -171 225 -215 C 205 -258 181 -294 154 -324 L 105 -301 C 113 -291 121 -278 130 -262 C 139 -246 148 -229 156 -209 C 164 -189 172 -169 179 -147 C 186 -125 191 -103 195 -81 L 264 -81 Z" unicode="ș" />
<glyph horiz-adv-x="471" d="M 9 0 L 9 0 Z M 462 668 L 268 668 L 268 0 L 198 0 L 198 668 L 9 668 L 9 730 L 462 730 L 462 668 Z M 205 -77 L 205 -77 Z M 285 -77 C 279 -123 266 -167 246 -211 C 226 -254 202 -290 175 -320 L 126 -297 C 134 -287 142 -274 151 -258 C 160 -242 169 -225 177 -205 C 185 -185 193 -165 200 -143 C 207 -121 212 -99 216 -77 L 285 -77 Z" unicode="Ț" />
<glyph horiz-adv-x="263" d="M 13 0 L 13 0 Z M 243 62 L 251 10 C 245 6 237 2 225 0 C 213 -3 201 -5 187 -5 C 160 -5 135 3 113 19 C 90 35 79 65 79 107 L 79 427 L 13 427 L 13 482 L 80 482 L 80 600 L 143 609 L 143 482 L 242 482 L 242 427 L 144 427 L 144 111 C 144 91 149 76 159 66 C 169 56 182 52 199 52 C 207 52 216 53 225 55 C 233 57 239 60 243 62 Z M 127 -77 L 127 -77 Z M 207 -77 C 201 -123 188 -167 168 -211 C 148 -254 124 -290 97 -320 L 48 -297 C 56 -287 64 -274 73 -258 C 82 -242 91 -225 99 -205 C 107 -185 115 -165 122 -143 C 129 -121 134 -99 138 -77 L 207 -77 Z" unicode="ț" />
<glyph horiz-adv-x="218" d="M 149 482 L 149 -67 C 149 -107 137 -139 114 -163 C 91 -187 64 -199 33 -199 C 21 -199 9 -197 -2 -194 C -14 -191 -24 -188 -31 -185 L -17 -134 C -13 -136 -7 -137 0 -139 C 6 -141 14 -142 22 -142 C 37 -142 51 -135 65 -121 C 78 -107 85 -88 85 -62 L 85 482 L 149 482 Z" unicode="ȷ" />
<glyph horiz-adv-x="500" d="M 396 542 L 336 542 L 250 668 L 162 542 L 105 542 L 219 712 L 282 712 L 396 542 Z" unicode="ˆ" />
<glyph horiz-adv-x="500" d="M 105 712 L 164 712 L 251 586 L 338 712 L 396 712 L 282 542 L 219 542 L 105 712 Z" unicode="ˇ" />
<glyph horiz-adv-x="500" d="M 334 705 L 389 705 C 385 651 370 611 345 586 C 319 561 288 549 250 549 C 212 549 180 561 155 586 C 129 611 115 651 111 705 L 166 705 C 168 672 176 645 189 624 C 201 603 222 593 250 593 C 278 593 298 603 311 623 C 324 643 332 671 334 705 Z" unicode="˘" />
<glyph horiz-adv-x="500" d="M 280 546 L 220 546 L 220 690 L 280 690 L 280 546 Z" unicode="˙" />
<glyph horiz-adv-x="504" d="M 252 538 C 220 538 194 549 172 571 C 150 593 139 620 139 652 C 139 683 150 710 172 732 C 194 754 220 765 252 765 C 284 765 311 754 333 732 C 355 710 366 683 366 652 C 366 620 355 593 333 571 C 311 549 284 538 252 538 Z M 252 578 C 272 578 289 585 303 599 C 317 613 324 631 324 652 C 324 672 317 690 303 704 C 289 718 272 726 252 726 C 232 726 215 718 201 704 C 187 690 180 672 180 652 C 180 631 187 613 201 599 C 215 585 232 578 252 578 Z" unicode="˚" />
<glyph horiz-adv-x="500" d="M 359 -100 L 378 -127 C 359 -146 337 -161 313 -171 C 289 -181 262 -187 233 -187 C 201 -187 175 -179 157 -165 C 138 -151 129 -132 129 -110 C 129 -86 140 -64 162 -43 C 184 -21 216 -3 258 13 L 293 11 C 259 -3 233 -19 214 -35 C 194 -51 185 -67 185 -85 C 185 -101 191 -114 204 -124 C 217 -133 233 -138 253 -138 C 275 -138 295 -134 313 -127 C 331 -120 347 -111 359 -100 Z" unicode="˛" />
<glyph horiz-adv-x="500" d="M 356 678 L 406 678 C 406 634 399 602 387 581 C 375 560 358 550 338 550 C 320 550 304 554 290 563 C 276 572 263 581 253 590 C 242 598 231 607 220 616 C 209 624 198 629 188 629 C 177 629 168 622 160 610 C 152 597 147 579 147 555 L 97 555 C 97 598 105 630 121 651 C 137 672 155 683 175 683 C 191 683 206 678 219 669 C 231 660 244 651 256 641 C 266 632 276 624 286 616 C 296 608 307 604 318 604 C 328 604 337 610 345 623 C 352 636 356 654 356 678 Z" unicode="˜" />
<glyph horiz-adv-x="500" d="M 103 541 L 185 693 L 255 693 L 162 541 L 103 541 Z M 266 541 L 349 693 L 419 693 L 325 541 L 266 541 Z" unicode="˝" />
<glyph horiz-adv-x="0" d="M 0 541 L 0 541 Z M 87 541 L 23 541 L -87 708 L -11 708 L 87 541 Z" unicode="̀" />
<glyph horiz-adv-x="0" d="M 0 543 L 0 543 Z M -87 543 L 11 710 L 87 710 L -22 543 L -87 543 Z" unicode="́" />
<glyph horiz-adv-x="0" d="M 0 542 L 0 542 Z M 146 542 L 86 542 L 0 668 L -88 542 L -145 542 L -31 712 L 32 712 L 146 542 Z" unicode="̂" />
<glyph horiz-adv-x="0" d="M 0 550 L 0 550 Z M 105 678 L 155 678 C 155 634 148 602 136 581 C 124 560 107 550 87 550 C 69 550 53 554 39 563 C 25 572 12 581 2 590 C -8 598 -19 607 -30 616 C -41 624 -52 629 -63 629 C -73 629 -83 622 -91 610 C -99 597 -103 579 -104 555 L -154 555 C -154 598 -145 630 -129 651 C -113 672 -95 683 -76 683 C -59 683 -44 678 -32 669 C -19 660 -7 651 5 641 C 15 632 25 624 35 616 C 45 608 56 604 67 604 C 77 604 86 610 94 623 C 101 636 105 654 105 678 Z" unicode="̃" />
<glyph horiz-adv-x="0" d="M 0 569 L 0 569 Z M 121 569 L -121 569 L -121 621 L 121 621 L 121 569 Z" unicode="̄" />
<glyph horiz-adv-x="0" d="M 0 549 L 0 549 Z M 84 705 L 139 705 C 135 651 120 611 95 586 C 69 561 38 549 0 549 C -38 549 -69 561 -95 586 C -120 611 -135 651 -139 705 L -84 705 C -81 672 -73 645 -61 624 C -48 603 -28 593 0 593 C 28 593 48 603 61 623 C 74 643 82 671 84 705 Z" unicode="̆" />
<glyph horiz-adv-x="0" d="M 0 546 L 0 546 Z M 30 546 L -30 546 L -30 690 L 30 690 L 30 546 Z" unicode="̇" />
<glyph horiz-adv-x="0" d="M 0 543 L 0 543 Z M 109 543 L 54 543 L 54 698 L 109 698 L 109 543 Z M -56 543 L -111 543 L -111 698 L -56 698 L -56 543 Z" unicode="̈" />
<glyph horiz-adv-x="0" d="M 0 538 L 0 538 Z M 0 538 C -31 538 -58 549 -80 571 C -102 593 -113 620 -113 652 C -113 683 -102 710 -80 732 C -58 754 -31 765 0 765 C 32 765 59 754 81 732 C 103 710 114 683 114 652 C 114 620 103 593 81 571 C 59 549 32 538 0 538 Z M 0 578 C 20 578 37 585 51 599 C 65 613 72 631 72 652 C 72 672 65 690 51 704 C 37 718 20 726 0 726 C -20 726 -37 718 -51 704 C -65 690 -72 672 -72 652 C -72 631 -65 613 -51 599 C -37 585 -20 578 0 578 Z" unicode="̊" />
<glyph horiz-adv-x="0" d="M 0 541 L 0 541 Z M -157 541 L -75 693 L -5 693 L -98 541 L -157 541 Z M 6 541 L 89 693 L 159 693 L 65 541 L 6 541 Z" unicode="̋" />
<glyph horiz-adv-x="0" d="M 0 542 L 0 542 Z M -145 712 L -86 712 L 1 586 L 88 712 L 146 712 L 32 542 L -31 542 L -145 712 Z" unicode="̌" />
<glyph horiz-adv-x="0" d="M 0 -77 L 0 -77 Z M 80 -77 C 74 -123 61 -167 41 -211 C 21 -254 -2 -290 -30 -320 L -79 -297 C -71 -287 -62 -274 -53 -258 C -44 -242 -35 -225 -27 -205 C -19 -185 -11 -165 -4 -143 C 2 -121 7 -99 11 -77 L 80 -77 Z" unicode="̦" />
<glyph horiz-adv-x="0" d="M 0 0 L 0 0 Z M 7 -184 C -15 -184 -37 -181 -59 -175 C -81 -169 -99 -161 -113 -152 L -102 -122 C -92 -128 -79 -134 -63 -140 C -47 -146 -29 -149 -10 -149 C 6 -149 21 -145 34 -137 C 46 -129 53 -118 53 -106 C 53 -91 47 -81 36 -75 C 24 -69 12 -66 0 -66 C -8 -66 -16 -66 -22 -68 C -28 -69 -36 -71 -44 -74 L -55 -61 L 1 10 L 40 10 L -8 -53 C 25 -44 53 -46 77 -58 C 100 -70 112 -87 112 -111 C 112 -135 101 -153 81 -165 C 60 -177 35 -184 7 -184 Z" unicode="̧" />
<glyph horiz-adv-x="0" d="M 0 0 L 0 0 Z M 108 -100 L 127 -127 C 108 -146 86 -161 62 -171 C 38 -181 11 -187 -18 -187 C -50 -187 -75 -179 -94 -165 C -112 -151 -122 -132 -122 -110 C -122 -86 -111 -64 -89 -43 C -67 -21 -35 -3 7 13 L 42 11 C 8 -3 -17 -19 -37 -35 C -56 -51 -66 -67 -66 -85 C -66 -101 -59 -114 -46 -124 C -33 -133 -17 -138 2 -138 C 24 -138 44 -134 62 -127 C 80 -120 96 -111 108 -100 Z" unicode="̨" />
<glyph horiz-adv-x="573" d="M 2 0 L 2 0 Z M 604 0 L 2 0 L 287 731 L 320 731 L 604 0 Z M 513 54 L 301 617 L 89 54 L 513 54 Z" unicode="Δ" />
<glyph horiz-adv-x="724" d="M 40 0 L 40 0 Z M 49 0 L 49 60 L 266 60 L 266 143 C 231 155 200 172 172 193 C 144 214 120 237 101 263 C 81 289 66 317 56 348 C 45 378 40 409 40 441 C 40 483 47 523 63 560 C 78 597 100 629 128 657 C 156 684 190 705 230 721 C 270 737 314 745 363 745 C 413 745 459 737 500 721 C 541 705 576 683 604 656 C 632 628 654 596 670 559 C 685 522 693 483 693 441 C 693 409 688 377 678 347 C 668 317 653 289 634 263 C 615 237 591 214 563 193 C 535 172 502 155 466 143 L 466 60 L 683 60 L 683 0 L 415 0 L 415 178 C 447 189 475 204 501 223 C 527 241 548 262 566 285 C 584 307 597 332 607 358 C 616 384 621 411 621 438 C 621 474 614 508 602 539 C 589 570 571 597 549 619 C 526 641 499 658 467 671 C 435 683 401 690 363 690 C 325 690 291 683 260 671 C 229 658 203 640 181 618 C 159 596 141 569 129 538 C 117 507 111 473 111 436 C 111 410 115 384 125 358 C 134 332 147 308 165 286 C 182 263 204 242 230 224 C 256 205 285 190 318 178 L 318 0 L 49 0 Z" unicode="Ω" />
<glyph horiz-adv-x="594" d="M 80 0 L 80 0 Z M 80 -133 L 80 491 L 144 491 L 144 156 C 144 122 157 94 184 74 C 211 53 243 43 280 43 C 298 43 317 46 336 52 C 354 58 371 67 386 79 C 400 91 412 107 422 125 C 431 143 436 165 436 190 L 436 491 L 500 491 L 500 0 L 441 0 L 441 109 C 431 77 410 49 377 27 C 343 4 307 -7 268 -8 C 239 -8 213 -2 189 10 C 165 22 148 39 140 62 L 140 -133 L 80 -133 Z" unicode="μ" />
<glyph horiz-adv-x="576" d="M 160 461 L 160 0 L 95 0 L 95 461 L 15 461 L 15 512 L 561 512 L 561 461 L 475 461 L 475 0 L 410 0 L 410 461 L 160 461 Z" unicode="π" />
<glyph horiz-adv-x="841" d="M 11 0 L 11 0 Z M 827 730 L 628 -6 L 585 -6 L 419 601 L 250 -6 L 206 -6 L 11 730 L 81 730 L 234 132 L 399 730 L 444 730 L 608 131 L 763 730 L 827 730 Z M 421 789 L 421 789 Z M 508 789 L 444 789 L 334 956 L 410 956 L 508 789 Z" unicode="Ẁ" />
<glyph horiz-adv-x="645" d="M 6 0 L 6 0 Z M 442 -2 L 326 328 L 202 -2 L 159 -2 L 6 482 L 72 482 L 189 96 L 306 421 L 349 421 L 461 97 L 578 482 L 639 482 L 484 -2 L 442 -2 Z M 325 541 L 325 541 Z M 412 541 L 348 541 L 238 708 L 314 708 L 412 541 Z" unicode="ẁ" />
<glyph horiz-adv-x="841" d="M 11 0 L 11 0 Z M 827 730 L 628 -6 L 585 -6 L 419 601 L 250 -6 L 206 -6 L 11 730 L 81 730 L 234 132 L 399 730 L 444 730 L 608 131 L 763 730 L 827 730 Z M 421 791 L 421 791 Z M 334 791 L 432 958 L 508 958 L 399 791 L 334 791 Z" unicode="Ẃ" />
<glyph horiz-adv-x="645" d="M 6 0 L 6 0 Z M 442 -2 L 326 328 L 202 -2 L 159 -2 L 6 482 L 72 482 L 189 96 L 306 421 L 349 421 L 461 97 L 578 482 L 639 482 L 484 -2 L 442 -2 Z M 325 543 L 325 543 Z M 238 543 L 336 710 L 412 710 L 303 543 L 238 543 Z" unicode="ẃ" />
<glyph horiz-adv-x="841" d="M 11 0 L 11 0 Z M 827 730 L 628 -6 L 585 -6 L 419 601 L 250 -6 L 206 -6 L 11 730 L 81 730 L 234 132 L 399 730 L 444 730 L 608 131 L 763 730 L 827 730 Z M 421 791 L 421 791 Z M 530 791 L 475 791 L 475 946 L 530 946 L 530 791 Z M 365 791 L 310 791 L 310 946 L 365 946 L 365 791 Z" unicode="Ẅ" />
<glyph horiz-adv-x="645" d="M 6 0 L 6 0 Z M 442 -2 L 326 328 L 202 -2 L 159 -2 L 6 482 L 72 482 L 189 96 L 306 421 L 349 421 L 461 97 L 578 482 L 639 482 L 484 -2 L 442 -2 Z M 325 543 L 325 543 Z M 434 543 L 379 543 L 379 698 L 434 698 L 434 543 Z M 269 543 L 214 543 L 214 698 L 269 698 L 269 543 Z" unicode="ẅ" />
<glyph horiz-adv-x="567" d="M 3 0 L 3 0 Z M 573 730 L 321 317 L 321 0 L 251 0 L 251 319 L 3 730 L 81 730 L 290 385 L 501 730 L 573 730 Z M 289 789 L 289 789 Z M 376 789 L 312 789 L 202 956 L 278 956 L 376 789 Z" unicode="Ỳ" />
<glyph horiz-adv-x="432" d="M 0 0 L 0 0 Z M 433 482 L 198 -95 C 180 -135 159 -163 135 -178 C 111 -192 87 -200 65 -200 C 50 -200 38 -198 28 -195 C 18 -192 10 -190 6 -188 L 27 -132 C 29 -133 34 -135 42 -137 C 49 -139 57 -141 66 -141 C 80 -141 94 -135 108 -124 C 122 -112 135 -93 147 -67 L 184 29 L -1 482 L 68 482 L 218 104 L 368 482 L 433 482 Z M 217 541 L 217 541 Z M 304 541 L 240 541 L 130 708 L 206 708 L 304 541 Z" unicode="ỳ" />
<glyph horiz-adv-x="460" d="M 418 230 L 42 230 L 42 287 L 418 287 L 418 230 Z" unicode="–" />
<glyph horiz-adv-x="645" d="M 603 230 L 42 230 L 42 287 L 603 287 L 603 230 Z" unicode="—" />
<glyph horiz-adv-x="232" d="M 38 507 L 38 514 C 38 554 47 593 67 631 C 86 669 113 704 149 737 L 212 731 C 202 722 190 710 178 696 C 166 682 154 665 144 647 C 134 628 125 607 118 585 C 110 563 107 539 107 515 L 107 507 L 38 507 Z" unicode="‘" />
<glyph horiz-adv-x="232" d="M 194 737 L 194 730 C 194 690 184 652 164 614 C 144 576 117 540 83 507 L 20 513 C 30 523 41 535 53 550 C 65 564 76 581 87 599 C 97 617 106 637 113 659 C 120 681 124 704 124 729 L 124 737 L 194 737 Z" unicode="’" />
<glyph horiz-adv-x="232" d="M 193 108 L 193 101 C 193 61 183 23 163 -14 C 143 -52 116 -88 82 -122 L 19 -116 C 29 -106 40 -93 52 -79 C 64 -64 76 -48 86 -30 C 96 -12 105 8 113 30 C 120 52 124 75 124 100 L 124 108 L 193 108 Z" unicode="‚" />
<glyph horiz-adv-x="388" d="M 202 507 L 202 514 C 202 551 211 588 231 625 C 250 662 278 699 316 737 L 374 731 C 364 722 353 710 341 696 C 328 681 316 664 305 646 C 293 628 284 607 276 585 C 268 563 265 539 265 515 L 265 507 L 202 507 Z M 39 507 L 39 514 C 39 551 49 588 69 625 C 89 662 116 699 152 737 L 210 731 C 201 722 190 710 178 696 C 166 682 154 665 143 647 C 131 628 122 607 114 585 C 106 563 102 539 102 515 L 102 507 L 39 507 Z" unicode="“" />
<glyph horiz-adv-x="388" d="M 187 737 L 187 730 C 187 690 178 652 160 616 C 142 579 114 543 78 507 L 19 513 C 30 523 42 536 54 551 C 66 565 78 582 88 600 C 98 618 107 637 114 659 C 120 681 124 704 124 729 L 124 737 L 187 737 Z M 349 737 L 349 730 C 349 690 339 652 321 615 C 302 577 275 541 240 507 L 181 513 C 192 523 204 536 216 551 C 228 565 240 582 250 600 C 260 618 269 637 276 659 C 282 681 286 704 286 729 L 286 737 L 349 737 Z" unicode="”" />
<glyph horiz-adv-x="389" d="M 187 110 L 187 103 C 187 63 178 25 160 -11 C 142 -47 114 -84 78 -120 L 19 -114 C 29 -103 41 -90 53 -76 C 65 -61 77 -45 87 -27 C 97 -9 106 10 113 32 C 119 54 123 77 123 102 L 123 110 L 187 110 Z M 350 110 L 350 103 C 350 63 340 25 322 -12 C 304 -49 277 -85 241 -120 L 183 -114 C 194 -103 206 -90 218 -76 C 230 -61 242 -45 252 -27 C 262 -9 270 10 277 32 C 283 54 287 77 287 102 L 287 110 L 350 110 Z" unicode="„" />
<glyph horiz-adv-x="507" d="M 485 410 L 285 410 L 285 -179 L 217 -179 L 217 410 L 23 410 L 23 470 L 217 470 L 217 730 L 285 730 L 285 470 L 485 470 L 485 410 Z" unicode="†" />
<glyph horiz-adv-x="509" d="M 218 -179 L 218 130 L 27 130 L 27 191 L 218 191 L 218 395 L 27 395 L 27 455 L 218 455 L 218 730 L 286 730 L 286 455 L 483 455 L 483 395 L 286 395 L 286 191 L 483 191 L 483 130 L 286 130 L 286 -179 L 218 -179 Z" unicode="‡" />
<glyph horiz-adv-x="382" d="M 191 442 C 208 442 223 435 235 423 C 247 411 254 396 254 379 C 254 361 247 347 235 335 C 223 323 208 317 191 317 C 173 317 159 323 147 335 C 135 347 129 361 129 379 C 129 396 135 411 147 423 C 159 435 173 442 191 442 Z" unicode="•" />
<glyph horiz-adv-x="632" d="M 72 0 L 72 113 L 139 113 L 139 0 L 72 0 Z M 283 0 L 283 113 L 349 113 L 349 0 L 283 0 Z M 493 0 L 493 113 L 560 113 L 560 0 L 493 0 Z" unicode="…" />
<glyph horiz-adv-x="1077" d="M 190 360 C 171 360 153 364 135 372 C 117 380 102 392 88 408 C 74 424 63 443 55 467 C 47 491 43 518 43 550 C 43 576 46 600 54 624 C 61 647 71 667 84 685 C 97 702 113 716 131 726 C 149 736 168 741 190 741 C 212 741 233 736 251 726 C 269 716 285 702 298 685 C 310 668 320 648 327 625 C 334 602 338 578 338 553 C 338 526 334 501 327 477 C 319 453 309 433 296 416 C 283 398 267 385 249 375 C 231 365 211 360 190 360 Z M 117 0 L 558 730 L 614 730 L 173 0 L 117 0 Z M 101 550 C 101 509 109 475 125 449 C 141 423 162 410 189 410 C 219 410 242 423 258 451 C 273 479 281 512 281 550 C 281 587 273 620 259 648 C 245 676 222 690 192 690 C 162 690 139 676 124 648 C 108 620 101 588 101 550 Z M 553 -3 C 534 -3 516 1 498 9 C 480 17 465 29 451 45 C 437 61 426 81 418 105 C 410 129 406 156 406 187 C 406 213 409 237 417 261 C 424 284 434 304 448 322 C 461 339 477 353 495 363 C 513 373 533 378 555 378 C 577 378 598 373 616 363 C 634 353 650 339 663 322 C 675 305 685 285 692 262 C 698 239 702 215 702 190 C 702 163 698 138 691 114 C 683 90 673 70 660 53 C 647 35 631 22 613 12 C 595 2 575 -3 553 -3 Z M 885 -3 C 866 -3 848 1 830 9 C 812 17 797 29 783 45 C 769 61 758 81 750 105 C 742 129 738 156 738 187 C 738 213 741 237 749 261 C 756 284 766 304 779 322 C 792 339 808 353 826 363 C 844 373 864 378 886 378 C 908 378 929 373 947 363 C 965 353 981 339 994 322 C 1006 305 1016 285 1023 262 C 1029 239 1033 215 1033 190 C 1033 163 1029 138 1022 114 C 1014 90 1004 70 992 53 C 979 35 963 22 945 12 C 927 2 907 -3 885 -3 Z M 552 48 C 582 48 605 61 621 89 C 637 116 645 149 645 187 C 645 225 637 257 623 285 C 608 313 585 327 555 327 C 526 327 504 313 488 286 C 472 258 464 225 464 187 C 464 146 472 113 488 87 C 504 61 526 48 552 48 Z M 884 48 C 914 48 937 61 953 89 C 969 116 977 149 977 187 C 977 225 969 257 954 285 C 939 313 916 327 886 327 C 857 327 835 313 819 286 C 803 258 795 225 795 187 C 795 146 803 113 820 87 C 836 61 858 48 884 48 Z" unicode="‰" />
<glyph horiz-adv-x="227" d="M 197 107 L 29 272 L 29 313 L 197 476 L 197 410 L 86 291 L 197 176 L 197 107 Z" unicode="‹" />
<glyph horiz-adv-x="228" d="M 30 477 L 199 311 L 199 271 L 30 108 L 30 173 L 141 292 L 30 407 L 30 477 Z" unicode="›" />
<glyph horiz-adv-x="145" d="M 299 730 L -88 0 L -145 0 L 241 730 L 299 730 Z" unicode="⁄" />
<glyph horiz-adv-x="324" d="M 16 460 L 16 500 L 209 740 L 248 740 L 248 503 L 313 503 L 313 460 L 248 460 L 248 373 L 194 373 L 194 460 L 16 460 Z M 66 497 L 195 497 L 195 662 L 66 497 Z" unicode="⁴" />
<glyph horiz-adv-x="534" d="M 523 118 C 503 80 476 49 440 25 C 404 0 364 -12 320 -12 C 262 -12 211 13 167 63 C 123 113 94 182 82 270 L 38 270 L 38 320 L 77 320 C 76 326 76 333 76 341 C 76 348 76 355 76 363 C 76 369 76 376 76 382 C 76 388 76 394 77 400 L 38 400 L 38 450 L 81 450 C 86 492 95 532 109 568 C 122 604 139 634 159 660 C 179 686 203 706 230 720 C 256 734 286 742 319 742 C 370 742 411 730 442 708 C 472 686 496 659 513 627 L 463 598 C 448 624 429 646 407 663 C 385 679 356 688 320 688 C 274 688 235 666 203 624 C 171 582 151 524 143 450 L 463 450 L 463 400 L 139 400 C 138 394 138 387 138 381 C 138 375 138 368 138 362 C 138 355 138 348 138 341 C 138 333 138 326 139 320 L 463 320 L 463 270 L 145 270 C 155 196 177 140 211 101 C 245 61 282 42 322 42 C 357 42 388 52 414 74 C 440 95 460 120 475 149 L 523 118 Z" unicode="€" />
<glyph horiz-adv-x="844" d="M 785 313 L 727 313 L 727 633 L 583 423 L 568 423 L 425 632 L 425 313 L 368 313 L 368 730 L 420 730 L 576 505 L 732 730 L 785 730 L 785 313 Z M 339 666 L 212 666 L 212 313 L 147 313 L 147 666 L 24 666 L 24 730 L 339 730 L 339 666 Z" unicode="™" />
<glyph horiz-adv-x="733" d="M 49 0 L 49 60 L 266 60 L 266 143 C 231 155 200 172 172 193 C 144 214 120 237 101 263 C 81 289 66 317 56 348 C 45 378 40 409 40 441 C 40 483 47 523 63 560 C 78 597 100 629 128 657 C 156 684 190 705 230 721 C 270 737 314 745 363 745 C 413 745 459 737 500 721 C 541 705 576 683 604 656 C 632 628 654 596 670 559 C 685 522 693 483 693 441 C 693 409 688 377 678 347 C 668 317 653 289 634 263 C 615 237 591 214 563 193 C 535 172 502 155 466 143 L 466 60 L 683 60 L 683 0 L 415 0 L 415 178 C 447 189 475 204 501 223 C 527 241 548 262 566 285 C 584 307 597 332 607 358 C 616 384 621 411 621 438 C 621 474 614 508 602 539 C 589 570 571 597 549 619 C 526 641 499 658 467 671 C 435 683 401 690 363 690 C 325 690 291 683 260 671 C 229 658 203 640 181 618 C 159 596 141 569 129 538 C 117 507 111 473 111 436 C 111 410 115 384 125 358 C 134 332 147 308 165 286 C 182 263 204 242 230 224 C 256 205 285 190 318 178 L 318 0 L 49 0 Z" unicode="Ω" />
<glyph horiz-adv-x="523" d="M 481 273 C 481 225 475 184 463 149 C 451 113 436 84 416 61 C 396 37 372 20 344 8 C 316 -3 287 -9 256 -9 C 227 -9 199 -3 172 7 C 145 17 121 33 101 53 C 81 73 64 97 52 126 C 40 155 34 188 34 224 C 34 256 39 287 50 317 C 61 346 76 371 95 393 C 114 415 137 432 163 445 C 189 457 218 464 249 464 C 291 464 327 453 358 431 C 388 409 411 381 425 347 C 418 421 404 485 384 537 C 364 589 340 632 313 665 C 286 697 257 721 227 737 C 196 752 168 760 142 761 L 172 802 C 199 802 230 792 266 774 C 302 755 335 725 367 683 C 399 641 426 587 448 519 C 470 451 481 369 481 273 Z M 257 38 C 303 38 341 56 370 92 C 399 128 414 175 414 234 C 414 284 400 327 372 362 C 344 397 305 415 255 415 C 210 415 173 397 144 362 C 115 326 101 281 101 227 C 101 168 115 122 145 88 C 174 54 211 38 257 38 Z" unicode="∂" />
<glyph horiz-adv-x="606" d="M 604 0 L 2 0 L 287 731 L 320 731 L 604 0 Z M 513 54 L 301 617 L 89 54 L 513 54 Z" unicode="∆" />
<glyph horiz-adv-x="676" d="M 202 671 L 202 0 L 135 0 L 135 671 L 15 671 L 15 730 L 661 730 L 661 671 L 545 671 L 545 0 L 478 0 L 478 671 L 202 671 Z" unicode="∏" />
<glyph horiz-adv-x="582" d="M 137 670 L 388 307 L 105 -119 L 544 -119 L 544 -179 L -5 -179 L 320 306 L 24 730 L 523 730 L 523 670 L 137 670 Z" unicode="∑" />
<glyph horiz-adv-x="505" d="M 463 304 L 42 304 L 42 359 L 463 359 L 463 304 Z" unicode="−" />
<glyph horiz-adv-x="510" d="M 496 730 L 198 0 L 186 0 L 15 325 L 63 357 L 200 90 L 453 730 L 496 730 Z" unicode="√" />
<glyph horiz-adv-x="327" d="M 112 -45 L 173 635 C 175 668 188 693 210 711 C 232 729 254 738 277 738 C 289 738 300 737 311 736 C 321 735 328 734 331 734 L 325 676 C 323 676 319 677 313 678 C 307 678 301 679 295 679 C 276 679 260 672 248 660 C 235 648 228 628 226 601 L 167 -68 C 164 -100 151 -126 129 -148 C 106 -169 79 -179 47 -179 C 31 -179 16 -177 2 -174 C -11 -170 -21 -167 -28 -164 L -21 -118 C -17 -118 -10 -120 -1 -123 C 8 -125 17 -127 26 -127 C 46 -127 65 -119 82 -105 C 99 -91 109 -71 112 -45 Z" unicode="∫" />
<glyph horiz-adv-x="494" d="M 395 490 L 449 490 C 448 441 440 403 426 376 C 411 349 387 336 355 336 C 333 336 314 341 297 352 C 279 362 264 374 251 387 C 237 400 222 412 207 422 C 192 432 177 437 162 437 C 146 437 131 428 116 411 C 100 394 93 370 93 339 L 43 339 C 43 387 53 424 73 451 C 93 478 118 492 148 492 C 170 492 189 486 206 474 C 223 462 239 450 253 438 C 265 427 279 417 293 407 C 307 397 321 392 337 392 C 357 392 372 399 381 415 C 390 430 395 455 395 490 Z M 396 321 L 449 321 C 448 272 440 234 424 208 C 408 181 384 168 352 168 C 330 168 310 173 294 183 C 277 193 262 205 249 218 C 235 231 220 242 206 252 C 192 262 177 267 162 267 C 146 267 131 258 116 242 C 101 225 94 201 94 171 L 43 171 C 43 219 53 256 73 283 C 93 309 119 323 150 323 C 172 323 192 317 210 305 C 227 293 243 281 257 269 C 269 257 282 246 296 237 C 309 227 323 223 339 223 C 359 223 373 230 382 246 C 391 261 396 286 396 321 Z" unicode="≈" />
<glyph horiz-adv-x="497" d="M 454 186 L 216 186 L 164 78 L 123 96 L 167 186 L 64 186 L 64 242 L 194 242 L 268 394 L 64 394 L 64 449 L 294 449 L 345 553 L 386 535 L 344 449 L 454 449 L 454 394 L 318 394 L 244 242 L 454 242 L 454 186 Z" unicode="≠" />
<glyph horiz-adv-x="497" d="M 61 303 L 61 348 L 431 551 L 431 491 L 124 327 L 431 161 L 431 101 L 61 303 Z M 60 74 L 431 74 L 431 26 L 60 26 L 60 74 Z" unicode="≤" />
<glyph horiz-adv-x="497" d="M 430 303 L 60 101 L 60 161 L 367 327 L 60 491 L 60 551 L 430 348 L 430 303 Z M 431 74 L 431 26 L 60 26 L 60 74 L 431 74 Z" unicode="≥" />
<glyph horiz-adv-x="522" d="M 491 326 L 266 -6 L 256 -6 L 31 326 L 31 337 L 256 668 L 266 668 L 491 337 L 491 326 Z M 429 327 L 429 336 L 266 582 L 257 582 L 94 336 L 94 327 L 257 80 L 266 80 L 429 327 Z" unicode="◊" />
<glyph horiz-adv-x="730" d="M 448 692 L 282 692 L 282 730 L 448 730 L 448 692 Z M 659 282 L 619 282 L 619 448 L 659 448 L 659 282 Z M 111 282 L 71 282 L 71 448 L 111 448 L 111 282 Z M 414 316 L 316 316 L 316 414 L 414 414 L 414 316 Z M 448 0 L 282 0 L 282 39 L 448 39 L 448 0 Z" unicode="" />
<glyph horiz-adv-x="526" d="M 301 427 L 174 427 L 174 0 L 110 0 L 110 427 L 20 427 L 20 479 L 110 479 L 110 593 C 110 625 115 654 125 678 C 135 702 147 721 163 737 C 179 753 196 765 216 773 C 236 781 255 785 275 785 C 291 785 306 783 321 780 C 335 777 346 774 353 770 L 340 715 C 334 717 326 720 315 723 C 303 725 292 727 282 727 C 270 727 257 724 244 718 C 231 712 219 704 209 694 C 199 683 190 669 183 653 C 176 637 173 618 173 597 L 173 479 L 301 479 L 301 427 Z M 457 599 L 387 599 L 387 668 L 457 668 L 457 599 Z M 454 0 L 389 0 L 389 479 L 454 479 L 454 0 Z" unicode="ﬁ" />
<glyph horiz-adv-x="517" d="M 302 429 L 174 429 L 174 0 L 110 0 L 110 429 L 19 429 L 19 482 L 110 482 L 110 582 C 110 614 115 643 125 667 C 135 691 147 711 163 727 C 179 743 196 755 216 763 C 236 771 255 775 275 775 C 291 775 306 773 320 770 C 334 767 345 764 353 760 L 340 705 C 334 707 326 710 315 713 C 303 715 292 717 282 717 C 270 717 257 714 244 708 C 231 702 219 694 209 683 C 199 672 190 658 183 642 C 176 626 173 607 173 586 L 173 482 L 302 482 L 302 429 Z M 446 772 L 446 0 L 381 0 L 381 772 L 446 772 Z" unicode="ﬂ" />
</font>
</defs>
</svg>
