<?xml version="1.0" encoding="utf-8" ?><svg version="1.1" xmlns = 'http://www.w3.org/2000/svg'><defs><font id='web' horiz-adv-x="1000">
<font-face font-family="web" descent="-200" cap-height="730" units-per-em="1000" bbox="-227,-372,1331,1027" x-height="559" ascent="800" />
<missing-glyph horiz-adv-x="500" d="" /><glyph horiz-adv-x="285" d="" unicode=" " />
<glyph horiz-adv-x="333" d="M 249 435 L 202 240 L 129 240 L 83 435 L 83 730 L 249 730 L 249 435 Z M 242 0 L 91 0 L 91 149 L 242 149 L 242 0 Z" unicode="!" />
<glyph horiz-adv-x="479" d="M 417 597 L 408 433 L 292 433 L 286 596 L 286 730 L 417 730 L 417 597 Z M 192 596 L 187 433 L 69 433 L 63 596 L 63 730 L 192 730 L 192 596 Z" unicode="&#x22;" />
<glyph horiz-adv-x="673" d="M 610 192 L 490 192 L 473 0 L 387 1 L 404 192 L 239 192 L 222 0 L 136 1 L 153 192 L 32 192 L 32 300 L 162 300 L 173 427 L 63 427 L 63 535 L 183 535 L 200 730 L 286 729 L 269 535 L 434 535 L 451 730 L 537 729 L 520 535 L 641 535 L 641 427 L 510 427 L 499 300 L 610 300 L 610 192 Z M 248 300 L 413 300 L 424 427 L 259 427 L 248 300 Z" unicode="#" />
<glyph horiz-adv-x="592" d="M 560 196 C 560 167 553 141 541 119 C 529 96 512 76 492 60 C 471 44 447 31 419 21 C 391 11 361 4 330 2 L 330 -120 L 256 -120 L 256 3 C 205 6 159 15 119 31 C 78 46 47 63 27 82 L 75 198 C 87 186 102 174 121 164 C 139 154 159 145 180 137 C 200 129 221 123 243 119 C 264 115 284 113 302 113 C 341 113 370 119 390 132 C 410 145 420 164 420 189 C 420 200 418 210 414 220 C 410 229 401 238 389 248 C 377 258 359 268 337 280 C 315 291 285 304 249 320 C 172 352 117 384 84 418 C 51 451 35 493 35 543 C 35 597 55 640 97 674 C 139 707 192 725 256 729 L 256 789 L 330 789 L 330 728 C 377 723 418 713 453 699 C 487 685 514 668 533 650 L 468 551 C 447 569 421 585 389 598 C 357 610 325 617 292 617 C 258 617 230 610 207 597 C 183 584 172 565 172 541 C 172 529 174 518 179 510 C 183 502 192 493 204 485 C 216 477 233 468 254 458 C 275 448 302 436 335 422 C 367 408 396 394 424 381 C 451 367 475 352 495 336 C 515 319 531 299 543 277 C 554 254 560 227 560 196 Z" unicode="$" />
<glyph horiz-adv-x="959" d="M 231 335 C 204 335 179 340 155 350 C 131 360 111 374 94 392 C 76 410 62 431 52 456 C 42 481 37 508 37 537 C 37 563 41 589 51 613 C 61 637 74 659 91 678 C 108 696 128 711 152 722 C 175 733 200 739 227 739 C 255 739 280 733 304 722 C 328 711 348 697 365 679 C 381 661 394 640 404 616 C 414 592 419 566 419 540 C 419 512 414 486 405 461 C 395 436 382 414 366 396 C 349 377 329 362 306 351 C 282 340 257 335 231 335 Z M 266 0 L 155 0 L 674 730 L 786 730 L 266 0 Z M 227 435 C 249 435 267 443 280 461 C 292 479 299 504 299 537 C 299 569 293 594 281 612 C 269 630 252 639 229 639 C 206 639 188 630 176 612 C 163 594 157 569 157 537 C 157 503 163 477 176 460 C 189 443 206 435 227 435 Z M 733 -3 C 706 -3 681 2 658 12 C 634 22 614 36 596 54 C 578 72 564 93 554 118 C 544 142 539 169 539 198 C 539 224 543 250 553 274 C 563 298 576 320 593 339 C 610 357 630 372 654 383 C 677 394 702 400 729 400 C 757 400 782 394 806 383 C 830 372 850 358 867 340 C 884 322 897 301 907 277 C 917 253 922 227 922 201 C 922 173 917 147 907 123 C 897 98 884 76 868 58 C 851 39 831 24 808 13 C 785 2 760 -3 733 -3 Z M 729 97 C 752 97 770 105 782 123 C 794 141 801 166 801 198 C 801 230 795 256 783 274 C 771 292 754 301 731 301 C 708 301 690 292 678 274 C 666 256 660 230 660 198 C 660 164 666 139 679 122 C 692 105 709 97 729 97 Z" unicode="%" />
<glyph horiz-adv-x="796" d="M 702 -4 L 600 70 C 566 45 525 26 478 12 C 431 -1 376 -8 312 -8 C 225 -8 156 8 105 42 C 54 75 29 122 29 182 C 29 204 33 225 42 244 C 51 262 63 279 78 295 C 92 310 109 324 128 337 C 146 349 165 361 185 373 C 175 381 164 391 154 403 C 143 415 133 428 124 443 C 115 457 108 474 102 492 C 96 510 94 531 94 553 C 94 580 101 605 115 628 C 129 650 147 670 169 686 C 191 702 215 714 243 723 C 271 732 298 737 326 737 C 360 737 390 732 417 722 C 443 712 466 699 484 683 C 502 667 516 648 526 626 C 536 604 541 582 541 558 C 541 518 528 485 502 461 C 476 436 443 411 401 385 L 579 258 C 588 270 597 283 607 297 C 616 311 625 325 634 340 L 765 273 C 755 254 745 236 735 219 C 724 202 713 186 702 171 L 776 118 L 702 -4 Z M 237 549 C 237 530 244 512 260 495 C 275 478 292 463 311 449 C 340 467 362 484 378 499 C 394 514 402 530 402 548 C 402 568 395 585 381 599 C 367 613 346 620 320 620 C 296 620 276 612 260 598 C 244 584 237 567 237 549 Z M 184 195 C 184 166 197 145 224 131 C 250 117 283 111 321 111 C 349 111 377 115 403 123 C 429 131 453 143 477 159 L 273 307 C 242 287 219 269 205 253 C 191 237 184 217 184 195 Z" unicode="&#x26;" />
<glyph horiz-adv-x="255" d="M 192 590 L 187 420 L 69 420 L 63 590 L 63 730 L 192 730 L 192 590 Z" unicode="'" />
<glyph horiz-adv-x="382" d="M 362 -75 L 362 -192 C 316 -176 274 -152 234 -122 C 194 -92 160 -56 131 -15 C 102 26 79 73 62 125 C 45 177 37 233 37 293 C 37 353 46 409 64 460 C 82 511 106 556 136 594 C 166 632 200 665 240 691 C 279 717 320 737 362 749 L 362 648 C 342 637 323 623 305 605 C 286 587 270 564 256 536 C 242 508 230 474 221 434 C 212 394 208 347 208 293 C 208 199 222 123 250 64 C 278 4 316 -41 362 -75 Z" unicode="(" />
<glyph horiz-adv-x="382" d="M 25 649 L 25 749 C 65 738 105 720 145 694 C 184 668 219 635 249 597 C 279 558 303 512 322 460 C 340 408 350 350 350 288 C 350 226 341 169 323 117 C 305 65 282 18 253 -22 C 223 -62 189 -97 149 -126 C 109 -155 68 -177 25 -192 L 25 -74 C 67 -42 103 1 133 59 C 163 116 178 192 179 288 C 179 344 174 392 165 433 C 156 474 144 509 130 537 C 115 565 98 589 80 607 C 62 625 43 639 25 649 Z" unicode=")" />
<glyph horiz-adv-x="453" d="M 422 554 L 293 519 L 396 435 L 305 356 L 230 472 L 154 357 L 68 434 L 165 521 L 31 554 L 76 655 L 190 590 L 169 730 L 290 730 L 268 590 L 384 654 L 422 554 Z" unicode="*" />
<glyph horiz-adv-x="500" d="M 479 271 L 309 271 L 309 105 L 191 105 L 191 271 L 21 271 L 21 391 L 191 391 L 191 557 L 309 557 L 309 391 L 479 391 L 479 271 Z" unicode="+" />
<glyph horiz-adv-x="287" d="M 245 147 C 243 111 238 77 230 44 C 222 10 212 -19 200 -47 C 188 -74 176 -97 162 -117 C 148 -137 136 -150 124 -158 L 20 -112 C 27 -104 35 -91 44 -73 C 52 -55 61 -34 69 -10 C 77 13 84 38 90 66 C 96 94 100 121 102 147 L 245 147 Z" unicode="," />
<glyph horiz-adv-x="387" d="M 341 213 L 45 213 L 45 338 L 341 338 L 341 213 Z" unicode="-" />
<glyph horiz-adv-x="288" d="M 213 0 L 74 0 L 74 160 L 213 160 L 213 0 Z" unicode="." />
<glyph horiz-adv-x="349" d="M 353 730 L 123 0 L -4 0 L 229 730 L 353 730 Z" unicode="/" />
<glyph horiz-adv-x="624" d="M 308 -12 C 268 -12 232 -4 199 11 C 166 27 138 50 114 81 C 90 111 71 150 58 197 C 44 244 38 299 38 361 C 38 413 43 463 55 509 C 67 555 84 596 107 630 C 130 664 159 692 194 712 C 228 732 268 742 314 742 C 361 742 402 732 436 714 C 470 696 499 670 521 637 C 543 604 559 565 570 519 C 580 473 586 424 586 370 C 586 312 580 259 569 212 C 557 165 540 125 517 92 C 494 58 465 33 430 15 C 395 -3 354 -12 308 -12 Z M 310 115 C 353 115 385 135 406 176 C 427 217 438 278 438 359 C 438 441 427 505 407 549 C 387 593 355 615 311 615 C 270 615 239 594 217 553 C 195 512 185 448 185 362 C 185 278 195 215 217 175 C 239 135 270 115 310 115 Z" unicode="0" />
<glyph horiz-adv-x="415" d="M 333 0 L 190 0 L 190 545 C 182 537 172 529 160 521 C 147 513 133 507 119 501 C 105 495 90 489 74 485 C 58 481 44 478 31 478 L 31 611 C 67 612 103 624 140 647 C 176 669 209 697 239 731 L 333 731 L 333 0 Z" unicode="1" />
<glyph horiz-adv-x="581" d="M 564 0 L 22 0 L 22 58 L 327 376 C 345 395 362 417 376 441 C 390 465 398 490 398 517 C 398 545 387 568 366 586 C 344 604 316 614 281 614 C 243 614 214 602 193 578 C 171 554 161 526 161 492 L 29 502 C 32 574 58 632 106 676 C 154 720 220 742 306 742 C 380 742 439 723 483 686 C 527 649 549 602 549 544 C 549 488 537 441 515 405 C 493 369 468 337 442 311 L 256 124 L 564 124 L 564 0 Z" unicode="2" />
<glyph horiz-adv-x="571" d="M 288 -12 C 219 -12 161 -3 113 14 C 65 31 29 51 7 74 L 80 183 C 97 168 122 153 155 138 C 187 122 225 115 268 115 C 312 115 346 125 370 146 C 394 167 407 194 407 228 C 407 260 395 284 371 300 C 347 316 316 325 277 325 L 133 325 L 133 444 L 271 444 C 303 444 330 452 351 469 C 371 485 382 506 382 531 C 382 552 372 572 353 590 C 334 608 309 617 278 617 C 238 617 204 609 178 594 C 151 578 129 562 112 544 L 37 645 C 57 669 89 691 132 711 C 174 731 225 742 284 742 C 319 742 352 738 382 730 C 412 722 437 710 459 694 C 480 678 497 659 509 636 C 521 613 528 587 528 558 C 528 516 514 480 488 450 C 462 420 429 400 390 391 C 435 383 473 364 505 333 C 536 301 552 262 552 215 C 552 188 546 161 535 134 C 524 107 508 83 486 61 C 464 39 437 22 404 8 C 370 -5 332 -12 288 -12 Z" unicode="3" />
<glyph horiz-adv-x="593" d="M 590 179 L 476 179 L 476 0 L 342 0 L 342 179 L 10 179 L 10 284 L 365 738 L 476 738 L 476 296 L 590 296 L 590 179 Z M 345 293 L 345 541 L 154 293 L 345 293 Z" unicode="4" />
<glyph horiz-adv-x="588" d="M 281 -12 C 217 -12 162 -2 117 18 C 72 38 39 58 17 79 L 89 186 C 105 169 130 152 164 136 C 197 120 232 112 270 112 C 310 112 343 124 368 149 C 393 174 406 208 406 250 C 406 288 394 319 370 342 C 346 364 318 376 284 376 C 253 376 226 370 204 360 C 182 349 165 334 154 316 L 62 338 L 94 730 L 489 730 L 489 605 L 198 605 L 188 449 C 198 459 216 469 240 479 C 264 489 289 494 317 494 C 353 494 385 488 415 476 C 444 464 469 448 489 427 C 509 406 525 381 537 352 C 548 322 554 290 554 256 C 554 218 547 182 534 149 C 521 116 503 88 479 64 C 455 40 427 22 393 8 C 359 -5 322 -12 281 -12 Z" unicode="5" />
<glyph horiz-adv-x="613" d="M 316 -12 C 277 -12 240 -5 206 7 C 172 20 142 39 117 64 C 91 88 71 119 56 155 C 41 191 34 231 34 277 C 34 326 41 372 56 415 C 70 457 90 497 115 533 C 140 569 169 602 203 633 C 236 663 271 691 307 717 L 380 768 L 459 666 L 383 611 C 337 577 297 544 264 513 C 231 482 209 455 197 432 C 206 445 225 458 253 471 C 281 484 310 491 341 491 C 375 491 407 485 437 474 C 467 463 492 447 514 426 C 536 405 553 379 566 348 C 578 317 585 282 585 243 C 585 206 577 172 563 141 C 549 109 529 82 505 60 C 481 38 452 20 420 7 C 387 -5 352 -12 316 -12 Z M 309 111 C 349 111 380 123 404 149 C 427 175 439 206 439 242 C 439 279 427 310 405 336 C 382 362 350 375 308 375 C 271 375 239 363 213 339 C 186 315 173 284 173 246 C 173 208 185 176 209 150 C 233 124 267 111 309 111 Z" unicode="6" />
<glyph horiz-adv-x="525" d="M 504 730 L 529 662 L 192 -12 L 62 51 L 347 604 L 13 604 L 13 730 L 504 730 Z" unicode="7" />
<glyph horiz-adv-x="612" d="M 429 387 C 475 375 510 351 536 316 C 562 281 575 242 575 198 C 575 168 568 140 556 114 C 543 88 525 66 502 48 C 478 29 450 14 416 4 C 382 -6 345 -12 304 -12 C 222 -12 157 8 109 48 C 61 88 37 138 37 200 C 37 245 51 285 80 320 C 108 355 142 377 181 386 C 147 399 118 420 95 450 C 71 480 60 512 60 547 C 60 603 82 650 128 687 C 173 723 232 742 304 742 C 378 742 437 724 482 690 C 527 655 550 610 551 555 C 551 520 539 486 516 454 C 493 422 464 399 429 387 Z M 303 429 C 337 429 364 437 386 455 C 407 472 418 494 418 522 C 418 552 407 575 385 593 C 363 611 335 620 303 620 C 271 620 244 611 223 593 C 201 575 191 552 191 523 C 191 494 201 471 223 454 C 245 437 271 429 303 429 Z M 304 105 C 343 105 375 115 399 135 C 423 155 436 182 436 216 C 436 248 423 273 398 291 C 373 309 342 318 304 318 C 266 318 234 309 210 291 C 186 273 174 248 174 214 C 174 181 186 155 210 135 C 234 115 266 105 304 105 Z" unicode="8" />
<glyph horiz-adv-x="613" d="M 256 -24 L 182 77 L 260 137 C 294 164 327 194 358 226 C 388 258 411 288 426 315 C 420 307 412 300 401 292 C 389 284 376 277 362 271 C 347 265 332 259 316 255 C 300 251 285 249 271 249 C 237 249 205 254 175 264 C 145 274 120 289 98 309 C 76 329 59 355 47 385 C 34 415 28 451 28 492 C 28 527 35 560 49 591 C 63 622 83 649 107 671 C 131 693 160 711 193 724 C 226 736 261 743 299 743 C 338 743 375 736 409 724 C 443 711 473 692 498 668 C 523 644 543 614 557 578 C 571 542 579 501 579 455 C 579 403 571 356 556 312 C 541 268 521 228 497 192 C 472 156 444 123 412 94 C 380 65 348 40 315 19 L 256 -24 Z M 304 356 C 344 356 376 368 402 393 C 427 418 440 449 440 485 C 440 526 427 559 401 585 C 375 610 343 623 305 623 C 265 623 233 610 209 584 C 185 558 174 526 174 490 C 174 452 185 421 208 395 C 230 369 262 356 304 356 Z" unicode="9" />
<glyph horiz-adv-x="273" d="M 206 406 L 67 406 L 67 559 L 206 559 L 206 406 Z M 206 0 L 67 0 L 67 154 L 206 154 L 206 0 Z" unicode=":" />
<glyph horiz-adv-x="272" d="M 214 406 L 76 406 L 76 559 L 214 559 L 214 406 Z M 218 121 C 216 95 211 67 203 39 C 195 11 185 -15 174 -40 C 163 -64 151 -86 139 -105 C 126 -124 114 -137 102 -145 L -2 -99 C 6 -89 14 -76 24 -60 C 34 -44 43 -26 51 -6 C 59 13 66 34 72 56 C 78 78 81 100 82 121 L 218 121 Z" unicode=";" />
<glyph horiz-adv-x="451" d="M 394 95 L 43 271 L 43 392 L 394 565 L 394 440 L 183 336 L 394 224 L 394 95 Z" unicode="&#x3C;" />
<glyph horiz-adv-x="500" d="M 453 378 L 47 378 L 47 497 L 453 497 L 453 378 Z M 453 155 L 47 155 L 47 274 L 453 274 L 453 155 Z" unicode="=" />
<glyph horiz-adv-x="451" d="M 408 271 L 57 95 L 57 224 L 268 336 L 57 441 L 57 565 L 408 392 L 408 271 Z" unicode="&#x3E;" />
<glyph horiz-adv-x="493" d="M 153 224 C 153 270 158 306 169 334 C 179 362 202 387 236 411 C 264 429 286 447 304 465 C 322 483 331 506 331 534 C 331 559 320 579 299 594 C 278 608 253 616 224 616 C 196 616 170 609 147 596 C 124 583 106 568 94 552 L 2 643 C 20 666 50 688 90 710 C 130 731 179 742 239 742 C 272 742 303 737 333 728 C 362 719 387 707 409 691 C 430 675 447 655 459 632 C 471 608 478 583 478 555 C 478 528 474 504 466 484 C 458 464 449 446 437 431 C 425 416 413 403 399 392 C 385 381 371 372 359 364 C 331 345 313 324 305 300 C 297 276 292 250 292 224 L 153 224 Z M 147 0 L 147 148 L 304 148 L 304 0 L 147 0 Z" unicode="?" />
<glyph horiz-adv-x="903" d="M 443 -33 C 387 -33 335 -23 287 -3 C 239 17 197 44 162 79 C 127 113 100 154 80 202 C 60 250 50 301 50 355 C 50 411 59 463 78 511 C 97 559 124 600 159 634 C 193 668 236 694 286 713 C 336 732 391 742 452 742 C 514 742 569 734 619 718 C 669 702 711 679 745 649 C 779 619 806 582 825 539 C 843 496 853 448 853 395 C 853 350 848 312 839 280 C 829 248 817 222 801 202 C 785 182 767 167 747 158 C 726 148 705 144 684 144 C 644 144 614 150 592 162 C 570 174 556 189 549 209 C 540 194 522 180 494 167 C 466 153 431 147 389 147 C 341 147 303 159 276 184 C 249 208 236 239 236 275 C 236 315 254 347 290 372 C 326 397 382 410 458 410 L 540 410 L 540 424 C 540 444 532 459 516 470 C 500 481 475 487 443 487 C 418 487 395 484 375 478 C 354 472 336 465 322 459 L 284 544 C 298 551 322 559 354 567 C 386 575 417 580 447 580 C 501 580 547 567 584 543 C 620 518 639 475 639 413 L 639 272 C 639 261 642 250 649 238 C 656 226 670 221 692 221 C 701 221 710 223 720 227 C 729 231 737 240 745 252 C 753 264 759 280 764 302 C 768 324 771 352 771 386 C 771 424 764 461 750 496 C 736 530 716 560 690 586 C 663 612 630 632 590 647 C 550 662 504 670 452 670 C 402 670 357 662 317 647 C 277 631 243 610 216 583 C 188 556 167 523 153 485 C 139 447 132 405 132 360 C 132 315 140 273 156 234 C 172 194 194 160 222 132 C 250 104 283 81 321 65 C 359 48 401 40 445 40 C 471 40 499 43 528 50 C 557 56 583 65 606 77 L 637 7 C 610 -5 580 -15 546 -22 C 512 -29 477 -33 443 -33 Z M 436 228 C 459 228 480 232 499 240 C 517 248 531 256 541 264 L 541 343 L 463 343 C 427 343 400 338 384 328 C 367 318 359 304 359 286 C 359 264 365 249 377 241 C 389 232 409 228 436 228 Z" unicode="@" />
<glyph horiz-adv-x="677" d="M 680 0 L 520 0 L 464 141 L 198 141 L 146 0 L -3 0 L 293 732 L 393 732 L 680 0 Z M 432 249 L 331 511 L 231 249 L 432 249 Z" unicode="A" />
<glyph horiz-adv-x="653" d="M 87 0 L 87 730 L 360 730 C 426 730 478 714 517 683 C 555 652 575 609 575 553 C 575 507 562 469 536 440 C 510 410 477 392 436 384 C 457 381 478 376 500 368 C 522 360 541 349 558 335 C 574 321 588 302 598 280 C 608 258 614 231 614 201 C 614 168 607 139 593 114 C 579 89 561 68 537 51 C 513 34 486 21 454 13 C 422 4 389 0 353 0 L 87 0 Z M 227 423 L 327 423 C 363 423 390 434 406 456 C 422 478 430 501 430 526 C 430 551 420 572 401 589 C 382 605 357 614 325 614 L 227 614 L 227 423 Z M 230 116 L 349 116 C 389 116 417 126 434 147 C 450 168 459 192 459 220 C 459 244 449 266 430 284 C 410 302 383 312 349 312 L 230 312 L 230 116 Z" unicode="B" />
<glyph horiz-adv-x="741" d="M 404 -12 C 354 -12 307 -3 263 14 C 219 32 180 57 148 89 C 116 121 90 161 71 208 C 52 254 43 307 43 365 C 43 421 52 472 70 519 C 88 565 114 605 146 638 C 178 670 217 696 261 714 C 305 732 353 742 405 742 C 471 742 529 732 579 712 C 629 692 670 659 704 614 L 593 523 C 572 547 547 567 518 582 C 488 597 452 605 408 605 C 338 605 285 583 249 540 C 212 497 194 441 194 372 C 194 328 200 291 213 259 C 226 227 243 201 264 181 C 285 161 309 146 337 136 C 364 126 392 121 422 121 C 466 121 503 129 534 147 C 565 165 590 189 610 219 L 719 144 C 693 101 653 64 600 34 C 546 3 481 -12 404 -12 Z" unicode="C" />
<glyph horiz-adv-x="762" d="M 87 0 L 87 730 L 340 730 C 401 730 455 721 503 704 C 550 686 590 662 622 631 C 654 600 678 563 694 519 C 710 475 719 426 719 374 C 719 322 710 273 693 227 C 676 181 651 141 618 108 C 584 74 543 48 493 29 C 443 9 386 0 322 0 L 87 0 Z M 237 117 L 321 117 C 363 117 399 124 430 138 C 460 152 485 170 505 193 C 525 216 539 243 549 274 C 558 305 563 338 563 372 C 563 443 543 501 504 546 C 464 590 408 613 335 613 L 237 613 L 237 117 Z" unicode="D" />
<glyph horiz-adv-x="611" d="M 559 0 L 87 0 L 87 730 L 540 730 L 540 605 L 234 605 L 234 423 L 520 423 L 520 303 L 234 303 L 234 125 L 559 125 L 559 0 Z" unicode="E" />
<glyph horiz-adv-x="558" d="M 516 605 L 237 605 L 237 424 L 501 424 L 501 301 L 237 301 L 237 0 L 87 0 L 87 730 L 516 730 L 516 605 Z" unicode="F" />
<glyph horiz-adv-x="795" d="M 421 387 L 748 387 L 748 153 C 719 105 675 66 616 35 C 557 3 491 -12 418 -12 C 364 -12 314 -3 268 14 C 222 31 182 56 149 88 C 115 120 89 160 71 207 C 52 253 43 306 43 365 C 43 423 52 475 72 522 C 92 569 118 609 152 641 C 186 673 225 698 271 716 C 317 733 365 742 417 742 C 453 742 485 738 515 732 C 544 725 570 716 593 706 C 616 696 636 684 653 671 C 670 657 684 644 696 632 L 602 526 C 583 546 559 564 531 580 C 503 596 463 604 411 604 C 380 604 351 599 324 589 C 297 579 274 565 254 546 C 234 527 219 503 208 474 C 196 444 191 410 191 371 C 191 329 196 292 208 260 C 220 228 236 201 257 179 C 277 157 302 140 330 129 C 358 117 389 112 422 112 C 466 112 505 119 539 135 C 573 151 597 173 611 202 L 611 264 L 421 264 L 421 387 Z" unicode="G" />
<glyph horiz-adv-x="778" d="M 691 0 L 541 0 L 541 295 L 237 295 L 237 0 L 87 0 L 87 730 L 237 730 L 237 423 L 541 423 L 541 730 L 691 730 L 691 0 Z" unicode="H" />
<glyph horiz-adv-x="333" d="M 241 0 L 91 0 L 91 730 L 241 730 L 241 0 Z" unicode="I" />
<glyph horiz-adv-x="452" d="M 367 730 L 367 203 C 367 173 361 144 351 118 C 341 92 326 69 307 50 C 287 31 264 16 236 5 C 208 -6 176 -12 141 -12 C 130 -12 118 -11 106 -10 C 93 -9 80 -7 67 -5 C 54 -3 42 0 31 3 C 19 7 10 11 3 17 L 59 132 C 65 128 74 125 85 123 C 96 121 107 120 119 120 C 150 120 174 128 191 146 C 208 163 217 184 217 209 L 217 730 L 367 730 Z" unicode="J" />
<glyph horiz-adv-x="704" d="M 702 0 L 515 0 L 306 300 L 236 214 L 236 0 L 87 0 L 87 730 L 236 730 L 236 387 L 503 730 L 668 730 L 413 406 L 702 0 Z" unicode="K" />
<glyph horiz-adv-x="565" d="M 552 0 L 87 0 L 87 730 L 237 730 L 237 125 L 552 125 L 552 0 Z" unicode="L" />
<glyph horiz-adv-x="947" d="M 860 0 L 721 0 L 721 430 L 504 112 L 445 112 L 224 430 L 224 0 L 87 0 L 87 730 L 187 730 L 480 289 L 759 730 L 860 730 L 860 0 Z" unicode="M" />
<glyph horiz-adv-x="791" d="M 704 0 L 598 0 L 226 474 L 226 0 L 87 0 L 87 730 L 201 730 L 567 265 L 567 730 L 704 730 L 704 0 Z" unicode="N" />
<glyph horiz-adv-x="833" d="M 420 -12 C 363 -12 311 -2 265 17 C 218 37 178 64 146 98 C 113 132 88 173 70 220 C 52 266 43 316 43 370 C 43 424 52 474 72 520 C 91 566 117 605 150 638 C 183 670 222 696 268 714 C 313 732 361 742 412 742 C 466 742 517 732 564 714 C 610 696 650 670 684 638 C 717 605 743 566 762 520 C 781 474 791 423 791 369 C 791 311 781 259 761 212 C 741 164 714 124 680 91 C 646 58 606 33 561 15 C 516 -3 469 -12 420 -12 Z M 425 118 C 455 118 484 123 510 133 C 536 143 559 159 579 180 C 598 200 613 226 625 257 C 636 288 642 324 642 364 C 642 400 636 433 624 463 C 612 493 595 518 574 539 C 553 560 528 576 500 588 C 471 600 440 606 407 606 C 376 606 347 600 321 590 C 295 580 272 565 253 545 C 233 525 218 501 207 472 C 196 442 191 409 191 372 C 191 332 197 297 209 265 C 221 233 237 207 258 185 C 279 163 304 147 333 135 C 361 123 392 118 425 118 Z" unicode="O" />
<glyph horiz-adv-x="643" d="M 87 0 L 87 730 L 376 730 C 410 730 442 724 472 714 C 502 703 527 688 548 668 C 569 648 586 625 598 597 C 610 569 616 537 616 502 C 616 432 593 375 548 331 C 502 287 443 265 371 265 L 237 265 L 237 0 L 87 0 Z M 234 382 L 354 382 C 390 382 417 393 436 415 C 455 437 465 466 465 502 C 465 538 453 565 431 584 C 409 602 381 612 348 612 L 234 612 L 234 382 Z" unicode="P" />
<glyph horiz-adv-x="833" d="M 705 -77 L 705 -201 C 627 -199 559 -180 499 -144 C 439 -108 397 -61 371 -4 C 319 0 272 13 231 33 C 190 53 156 80 128 112 C 100 144 79 183 65 227 C 50 271 43 318 43 370 C 43 422 52 470 70 516 C 88 562 114 601 146 635 C 178 668 217 694 263 713 C 309 732 359 742 413 742 C 467 742 518 733 564 715 C 610 697 650 672 684 640 C 717 608 743 568 762 522 C 781 475 791 423 791 365 C 791 321 784 279 771 240 C 758 201 740 166 717 135 C 693 104 665 78 632 56 C 598 34 562 17 522 7 C 540 -19 566 -39 599 -53 C 632 -67 667 -75 705 -77 Z M 422 116 C 452 116 481 121 508 131 C 535 141 558 157 578 177 C 597 197 612 222 624 253 C 635 283 641 319 641 359 C 641 399 634 434 622 465 C 609 496 592 522 571 543 C 549 563 524 579 496 590 C 467 600 437 606 405 606 C 374 606 345 600 319 590 C 293 580 270 565 251 545 C 232 525 217 500 207 471 C 196 442 191 409 191 373 C 191 331 197 294 210 262 C 222 230 239 203 261 182 C 282 160 307 144 335 133 C 363 121 392 116 422 116 Z" unicode="Q" />
<glyph horiz-adv-x="658" d="M 87 0 L 87 730 L 355 730 C 385 730 414 725 442 716 C 470 707 494 694 515 677 C 535 660 552 639 564 614 C 576 588 583 559 583 527 C 583 496 578 469 569 445 C 560 421 548 401 534 385 C 519 368 502 355 484 345 C 466 335 447 329 429 326 L 428 321 L 653 0 L 478 0 L 294 281 L 236 281 L 236 0 L 87 0 Z M 233 399 L 324 399 C 352 399 378 408 400 426 C 422 444 433 472 433 510 C 433 545 422 571 401 589 C 379 606 355 615 327 615 L 233 615 L 233 399 Z" unicode="R" />
<glyph horiz-adv-x="635" d="M 319 -12 C 254 -12 198 -3 151 12 C 103 28 64 50 34 77 L 118 195 C 138 174 167 155 204 137 C 240 119 280 111 324 111 C 354 111 380 117 400 131 C 420 144 430 162 430 185 C 430 208 420 228 402 245 C 383 261 347 280 293 301 C 249 317 212 333 182 349 C 152 364 127 381 109 399 C 91 417 78 438 70 462 C 62 485 58 512 58 544 C 58 605 81 653 129 689 C 176 724 237 742 313 742 C 373 742 422 733 462 715 C 502 697 534 679 558 660 L 485 538 C 458 558 429 575 399 589 C 369 603 337 610 305 610 C 275 610 251 604 234 592 C 217 580 209 564 209 544 C 209 519 221 499 245 483 C 269 467 310 447 368 425 C 406 410 439 395 467 381 C 495 366 517 350 535 333 C 552 315 565 296 573 274 C 581 252 585 226 585 196 C 585 162 577 133 563 107 C 549 81 529 60 505 42 C 481 24 452 11 420 2 C 388 -7 354 -12 319 -12 Z" unicode="S" />
<glyph horiz-adv-x="589" d="M 579 604 L 367 604 L 367 0 L 217 0 L 217 604 L 10 604 L 10 730 L 579 730 L 579 604 Z" unicode="T" />
<glyph horiz-adv-x="778" d="M 694 730 L 694 266 C 694 222 685 183 669 149 C 653 114 631 85 603 61 C 575 37 542 19 505 7 C 468 -5 429 -12 388 -12 C 347 -12 308 -6 271 6 C 234 18 202 35 174 59 C 146 83 124 112 108 147 C 91 181 83 221 83 266 L 83 730 L 229 730 L 229 273 C 229 225 244 187 275 161 C 306 134 343 121 387 121 C 431 121 468 134 500 160 C 532 186 548 223 548 273 L 548 730 L 694 730 Z" unicode="U" />
<glyph horiz-adv-x="695" d="M 699 730 L 394 -3 L 296 -3 L -3 730 L 161 730 L 347 244 L 542 730 L 699 730 Z" unicode="V" />
<glyph horiz-adv-x="947" d="M 941 730 L 715 -3 L 628 -3 L 475 473 L 314 -3 L 227 -3 L 6 730 L 161 730 L 294 275 L 437 730 L 524 730 L 671 272 L 803 730 L 941 730 Z" unicode="W" />
<glyph horiz-adv-x="666" d="M 487 0 L 329 248 L 170 0 L 14 0 L 251 369 L 20 730 L 191 730 L 336 502 L 482 730 L 637 730 L 414 381 L 656 0 L 487 0 Z" unicode="X" />
<glyph horiz-adv-x="697" d="M 702 730 L 420 292 L 420 0 L 270 0 L 270 299 L -5 730 L 163 730 L 353 430 L 544 730 L 702 730 Z" unicode="Y" />
<glyph horiz-adv-x="606" d="M 576 730 L 576 666 L 218 125 L 586 125 L 586 0 L 20 0 L 20 61 L 372 604 L 39 604 L 39 730 L 576 730 Z" unicode="Z" />
<glyph horiz-adv-x="377" d="M 347 -179 L 97 -179 L 97 730 L 347 730 L 347 621 L 229 621 L 229 -68 L 347 -68 L 347 -179 Z" unicode="[" />
<glyph horiz-adv-x="349" d="M -4 730 L 120 730 L 353 0 L 227 0 L -4 730 Z" unicode="\" />
<glyph horiz-adv-x="362" d="M 266 -179 L 29 -179 L 29 -71 L 134 -71 L 134 622 L 29 622 L 29 730 L 266 730 L 266 -179 Z" unicode="]" />
<glyph horiz-adv-x="518" d="M 462 369 L 343 369 L 257 583 L 174 369 L 56 369 L 199 730 L 317 730 L 462 369 Z" unicode="^" />
<glyph horiz-adv-x="500" d="M 500 -173 L 0 -173 L 0 -61 L 500 -61 L 500 -173 Z" unicode="_" />
<glyph horiz-adv-x="500" d="M 378 605 L 238 605 L 109 765 L 274 765 L 378 605 Z" unicode="`" />
<glyph horiz-adv-x="624" d="M 557 0 L 420 0 L 420 66 C 400 42 375 23 343 11 C 311 -1 272 -8 224 -8 C 163 -8 116 6 83 36 C 50 65 34 104 34 153 C 34 217 59 265 109 299 C 159 333 231 352 325 357 L 419 362 L 419 371 C 418 399 409 420 392 435 C 374 449 348 457 312 457 C 279 457 246 451 213 439 C 179 427 147 412 117 394 L 61 491 C 91 514 130 534 176 550 C 222 566 274 574 331 574 C 403 574 458 558 498 526 C 537 494 557 441 557 369 L 557 0 Z M 422 169 L 422 267 L 310 263 C 271 261 240 253 216 238 C 192 223 181 201 181 173 C 181 150 189 132 207 120 C 224 108 247 102 275 102 C 305 102 334 108 360 121 C 386 134 406 150 422 169 Z" unicode="a" />
<glyph horiz-adv-x="682" d="M 394 -6 C 343 -6 303 4 274 26 C 244 47 224 72 214 100 L 214 0 L 78 0 L 78 800 L 206 800 L 206 453 C 216 487 238 514 271 536 C 303 558 346 569 398 569 C 433 569 466 562 496 550 C 526 538 551 520 573 496 C 595 472 612 443 624 409 C 636 375 643 336 643 293 C 643 243 636 200 622 163 C 608 125 590 94 567 69 C 544 44 518 25 488 13 C 458 0 426 -6 394 -6 Z M 356 113 C 398 113 433 129 459 161 C 485 193 498 234 498 284 C 498 336 486 376 463 406 C 439 436 404 451 356 451 C 313 451 278 437 251 409 C 223 381 210 338 210 280 C 210 226 222 185 248 156 C 273 127 309 113 356 113 Z" unicode="b" />
<glyph horiz-adv-x="606" d="M 472 199 L 582 123 C 571 106 558 89 543 73 C 527 57 509 42 489 30 C 469 18 445 8 418 0 C 391 -7 361 -11 327 -11 C 287 -11 249 -4 214 8 C 178 20 148 39 122 64 C 96 88 76 119 61 155 C 46 191 39 233 39 279 C 39 323 46 363 61 399 C 76 435 97 465 123 491 C 149 517 180 537 216 551 C 252 565 291 572 333 572 C 368 572 399 567 427 558 C 454 549 478 537 498 523 C 518 508 535 491 548 472 C 561 453 571 434 578 414 L 457 361 C 446 385 431 405 411 422 C 391 438 363 447 328 447 C 284 447 249 431 223 400 C 197 368 184 329 184 281 C 184 227 197 185 224 157 C 250 129 286 115 332 115 C 370 115 399 123 421 141 C 443 159 460 178 472 199 Z" unicode="c" />
<glyph horiz-adv-x="684" d="M 297 -11 C 261 -11 227 -4 196 8 C 164 20 137 39 114 63 C 91 87 73 118 60 155 C 46 192 40 235 40 283 C 40 323 47 361 62 397 C 76 432 96 462 121 488 C 145 514 174 534 206 549 C 238 563 272 571 308 571 C 340 571 372 562 404 545 C 435 528 457 508 470 486 L 470 800 L 606 800 L 606 0 L 478 0 L 478 96 C 474 85 466 73 455 61 C 443 49 430 37 414 27 C 398 16 380 7 360 0 C 340 -7 319 -11 297 -11 Z M 325 108 C 372 108 408 124 433 156 C 457 188 470 230 470 283 C 470 342 456 385 429 412 C 402 438 369 452 329 452 C 283 452 248 436 223 406 C 197 375 185 333 185 281 C 185 230 197 188 222 156 C 246 124 281 108 325 108 Z" unicode="d" />
<glyph horiz-adv-x="645" d="M 333 -11 C 290 -11 250 -4 214 8 C 178 20 147 39 121 64 C 95 88 75 118 61 154 C 46 190 39 231 39 277 C 39 319 46 358 61 394 C 75 430 95 462 121 488 C 147 514 177 534 213 549 C 249 564 287 572 329 572 C 414 572 481 542 531 484 C 581 425 606 342 607 235 L 181 235 C 181 219 185 204 192 189 C 199 174 209 161 221 149 C 233 137 249 128 267 121 C 285 113 307 110 331 110 C 371 110 403 116 428 130 C 453 143 473 158 488 176 L 573 86 C 547 58 515 34 478 16 C 441 -1 393 -11 333 -11 Z M 181 331 L 460 331 C 458 367 445 396 420 419 C 395 442 363 454 324 454 C 284 454 251 441 225 416 C 199 391 185 363 181 331 Z" unicode="e" />
<glyph horiz-adv-x="383" d="M 373 441 L 244 441 L 244 0 L 103 0 L 103 441 L 8 441 L 8 559 L 103 559 L 103 619 C 103 649 107 675 117 698 C 127 721 140 740 157 755 C 173 770 192 782 214 790 C 236 798 259 802 283 802 C 305 802 328 799 351 793 C 373 787 391 781 404 774 L 369 667 C 361 671 351 674 339 678 C 327 681 315 683 304 683 C 287 683 273 676 261 662 C 249 648 244 630 244 608 L 244 559 L 373 559 L 373 441 Z" unicode="f" />
<glyph horiz-adv-x="680" d="M 292 12 C 256 12 222 18 191 32 C 160 46 133 65 111 89 C 89 113 71 142 59 176 C 46 210 40 247 40 288 C 40 373 63 441 111 492 C 158 543 220 569 298 569 C 342 569 380 560 412 542 C 444 524 466 501 478 474 L 478 559 L 605 559 L 605 74 C 605 26 595 -14 577 -49 C 558 -83 534 -112 506 -135 C 477 -157 444 -174 408 -185 C 372 -196 336 -202 302 -202 C 234 -202 182 -195 144 -182 C 106 -168 78 -156 61 -144 L 121 -37 C 135 -47 157 -58 187 -69 C 217 -80 251 -86 287 -86 C 341 -86 385 -72 419 -46 C 452 -20 469 17 469 66 L 469 124 C 464 112 457 100 447 87 C 437 74 424 62 410 51 C 395 39 378 30 358 23 C 338 15 316 12 292 12 Z M 329 127 C 347 127 365 130 382 137 C 399 143 414 153 427 167 C 440 181 450 198 458 219 C 466 239 470 263 470 291 C 470 337 458 374 435 402 C 412 430 378 444 332 444 C 287 444 251 429 225 401 C 198 372 185 331 185 279 C 185 227 197 188 223 164 C 248 139 283 127 329 127 Z" unicode="g" />
<glyph horiz-adv-x="657" d="M 585 0 L 445 0 L 445 370 C 445 392 436 411 418 427 C 400 442 376 450 346 450 C 330 450 315 447 300 443 C 284 438 271 431 259 423 C 247 414 237 403 230 390 C 222 377 219 362 219 346 L 219 0 L 78 0 L 78 800 L 206 800 L 206 469 C 214 497 235 522 269 542 C 302 562 344 572 394 572 C 419 572 443 568 467 561 C 490 553 510 543 528 529 C 545 515 559 499 569 479 C 579 459 585 437 585 413 L 585 0 Z" unicode="h" />
<glyph horiz-adv-x="305" d="M 80 650 L 80 785 L 226 785 L 226 650 L 80 650 Z M 82 0 L 82 559 L 224 559 L 224 0 L 82 0 Z" unicode="i" />
<glyph horiz-adv-x="338" d="M 267 650 L 123 650 L 123 785 L 267 785 L 267 650 Z M 265 559 L 265 6 C 265 -28 260 -58 250 -84 C 240 -110 226 -132 208 -150 C 190 -167 170 -180 146 -189 C 122 -197 96 -202 68 -202 C 44 -202 16 -199 -13 -193 C -43 -187 -69 -179 -91 -169 L -62 -62 C -50 -68 -34 -74 -16 -79 C 2 -83 23 -86 45 -86 C 71 -86 91 -75 104 -54 C 117 -32 124 -6 124 24 L 124 559 L 265 559 Z" unicode="j" />
<glyph horiz-adv-x="619" d="M 650 2 L 487 -1 L 303 229 L 219 143 L 219 0 L 78 0 L 78 800 L 219 800 L 219 288 L 461 559 L 609 559 L 396 323 L 650 2 Z" unicode="k" />
<glyph horiz-adv-x="350" d="M 71 152 L 71 800 L 212 800 L 212 197 C 212 175 218 156 230 141 C 242 125 261 118 288 118 C 296 118 305 118 316 119 C 327 120 335 122 340 124 L 342 1 C 335 0 323 -1 305 -3 C 287 -5 271 -6 257 -6 C 233 -6 210 -2 188 3 C 166 9 146 19 129 32 C 111 45 97 62 87 82 C 76 102 71 125 71 152 Z" unicode="l" />
<glyph horiz-adv-x="1016" d="M 78 0 L 78 559 L 204 559 L 204 460 C 210 477 219 492 233 506 C 246 520 261 531 278 541 C 295 551 314 558 335 564 C 355 569 376 572 398 572 C 416 572 435 569 454 565 C 472 561 489 554 504 545 C 519 535 532 523 543 509 C 554 495 562 478 566 459 L 571 459 C 581 493 603 520 638 541 C 672 561 710 572 750 572 C 806 572 852 557 889 529 C 925 500 944 461 944 412 L 944 0 L 803 0 L 803 370 C 803 397 793 417 774 430 C 755 443 732 450 705 450 C 690 450 675 447 661 443 C 646 438 633 431 621 422 C 609 413 600 402 593 389 C 585 375 582 360 582 344 L 582 0 L 441 0 L 441 373 C 441 396 431 415 413 429 C 394 443 370 450 342 450 C 309 450 280 440 256 420 C 231 400 219 374 219 342 L 219 0 L 78 0 Z" unicode="m" />
<glyph horiz-adv-x="657" d="M 585 0 L 444 0 L 444 370 C 444 396 434 415 415 429 C 396 443 374 450 348 450 C 332 450 316 447 301 443 C 285 438 272 431 260 423 C 248 414 238 403 230 389 C 222 375 219 360 219 343 L 219 0 L 78 0 L 78 559 L 202 559 L 202 456 C 213 490 236 517 270 539 C 304 561 346 572 395 572 C 420 572 444 568 468 560 C 491 552 511 542 528 528 C 545 514 559 498 569 479 C 579 460 585 439 585 416 L 585 0 Z" unicode="n" />
<glyph horiz-adv-x="670" d="M 331 -11 C 293 -11 257 -4 222 7 C 186 19 155 38 128 62 C 101 86 79 117 63 153 C 47 189 39 230 39 278 C 39 320 47 360 63 396 C 79 432 101 463 128 489 C 154 515 185 535 221 550 C 256 564 293 572 331 572 C 372 572 411 565 448 553 C 484 540 516 522 543 498 C 570 474 591 445 607 411 C 623 376 631 337 631 294 C 631 248 622 206 606 168 C 590 130 568 98 541 72 C 513 45 481 24 445 10 C 409 -3 371 -11 331 -11 Z M 334 114 C 380 114 417 130 445 162 C 472 194 486 235 486 287 C 486 335 471 373 443 402 C 414 430 376 445 330 445 C 285 445 250 429 224 398 C 198 367 185 327 185 277 C 185 224 199 184 228 156 C 256 128 292 114 334 114 Z" unicode="o" />
<glyph horiz-adv-x="683" d="M 78 -197 L 78 559 L 206 559 L 206 446 C 216 482 238 512 271 535 C 304 557 345 569 394 569 C 430 569 463 563 494 551 C 525 539 552 521 574 498 C 596 474 613 445 625 410 C 637 374 644 334 644 288 C 644 241 637 199 624 163 C 611 127 593 96 571 71 C 548 46 521 27 490 14 C 459 1 426 -5 391 -5 C 349 -5 313 4 283 23 C 252 41 231 65 219 93 L 219 -197 L 78 -197 Z M 358 114 C 397 114 430 129 458 160 C 486 191 500 233 500 287 C 500 333 488 372 465 404 C 441 435 407 451 361 451 C 315 451 278 437 252 409 C 225 381 212 338 212 282 C 212 221 225 178 252 152 C 279 126 314 114 358 114 Z" unicode="p" />
<glyph horiz-adv-x="683" d="M 463 -197 L 463 91 C 448 66 425 43 395 22 C 365 0 328 -10 286 -10 C 250 -10 218 -3 188 9 C 158 22 132 41 110 65 C 88 89 70 118 58 152 C 46 186 40 225 40 268 C 40 314 47 355 61 393 C 75 430 95 461 119 487 C 143 513 171 532 203 546 C 235 560 270 567 306 567 C 328 567 348 563 368 557 C 387 550 404 541 419 531 C 433 521 446 509 456 497 C 466 485 474 473 478 463 L 478 559 L 604 559 L 604 -197 L 463 -197 Z M 329 108 C 371 108 405 123 431 153 C 457 183 470 227 470 283 C 470 341 457 383 431 410 C 405 437 369 451 325 451 C 279 451 244 435 220 405 C 196 374 184 332 184 279 C 184 226 197 184 223 154 C 249 123 284 108 329 108 Z" unicode="q" />
<glyph horiz-adv-x="499" d="M 509 540 L 435 410 C 424 422 411 431 395 437 C 379 443 361 446 342 446 C 310 446 282 434 257 412 C 231 390 219 361 219 326 L 219 0 L 78 0 L 78 559 L 205 559 L 205 451 C 209 465 216 480 227 495 C 237 509 251 522 267 534 C 283 545 302 554 324 561 C 345 568 368 572 393 572 C 419 572 441 569 461 563 C 481 557 497 550 509 540 Z" unicode="r" />
<glyph horiz-adv-x="548" d="M 300 -11 C 244 -11 195 -4 151 8 C 107 21 70 38 40 59 L 99 154 C 127 139 160 126 196 116 C 232 106 264 101 293 101 C 316 101 335 106 349 117 C 363 127 370 141 370 158 C 370 172 361 185 343 196 C 325 207 294 219 248 232 C 179 250 131 274 103 305 C 75 335 62 371 62 412 C 62 436 67 459 79 479 C 90 499 105 515 125 529 C 144 543 167 553 194 561 C 220 568 249 572 280 572 C 340 572 389 564 425 550 C 461 535 488 521 506 509 L 456 404 C 428 419 401 432 375 443 C 348 454 320 460 292 460 C 268 460 248 455 232 446 C 216 437 208 425 208 410 C 208 402 209 395 212 389 C 214 383 220 377 228 372 C 236 366 249 361 265 355 C 281 349 302 343 329 335 C 391 317 437 295 468 269 C 499 243 515 208 515 164 C 515 136 509 112 498 90 C 487 68 472 50 453 35 C 434 20 411 9 385 1 C 359 -7 330 -11 300 -11 Z" unicode="s" />
<glyph horiz-adv-x="409" d="M 381 137 L 403 23 C 388 13 368 5 344 1 C 320 -3 298 -6 278 -6 C 222 -6 176 9 140 41 C 104 73 87 121 87 186 L 87 443 L 10 443 L 10 559 L 87 559 L 87 699 L 227 716 L 227 559 L 376 559 L 376 443 L 227 443 L 227 196 C 227 171 232 152 243 138 C 254 124 272 117 296 117 C 314 117 331 119 346 124 C 360 128 372 133 381 137 Z" unicode="t" />
<glyph horiz-adv-x="657" d="M 72 559 L 213 559 L 213 209 C 213 173 223 146 243 130 C 263 114 290 106 324 106 C 357 106 384 115 405 135 C 426 155 437 181 437 214 L 437 559 L 578 559 L 578 0 L 451 0 L 451 98 C 441 69 421 43 389 21 C 357 -1 317 -13 267 -13 C 240 -13 215 -9 191 -1 C 167 6 146 17 129 31 C 111 45 97 63 87 84 C 77 105 72 129 72 157 L 72 559 Z" unicode="u" />
<glyph horiz-adv-x="584" d="M 594 559 L 335 -3 L 245 -3 L -10 559 L 147 559 L 296 217 L 446 559 L 594 559 Z" unicode="v" />
<glyph horiz-adv-x="810" d="M 533 -3 L 411 310 L 276 -3 L 194 -3 L -2 559 L 145 559 L 258 209 L 377 519 L 464 519 L 572 212 L 683 559 L 812 559 L 616 -3 L 533 -3 Z" unicode="w" />
<glyph horiz-adv-x="535" d="M 390 0 L 263 184 L 134 0 L -4 0 L 195 284 L 6 559 L 155 559 L 270 391 L 388 559 L 526 559 L 339 292 L 539 0 L 390 0 Z" unicode="x" />
<glyph horiz-adv-x="591" d="M 597 559 L 306 -65 C 294 -90 279 -111 263 -129 C 246 -146 228 -160 209 -170 C 190 -180 171 -188 151 -193 C 131 -197 111 -200 93 -200 C 72 -200 55 -197 41 -193 C 27 -188 17 -184 11 -182 L 52 -67 C 56 -69 62 -72 71 -74 C 79 -76 89 -78 99 -78 C 117 -78 132 -72 146 -62 C 160 -51 173 -34 186 -11 L 221 54 L -7 559 L 145 559 L 296 212 L 452 559 L 597 559 Z" unicode="y" />
<glyph horiz-adv-x="515" d="M 484 559 L 484 497 L 219 120 L 504 120 L 504 0 L 17 0 L 17 60 L 284 439 L 27 439 L 27 559 L 484 559 Z" unicode="z" />
<glyph horiz-adv-x="294" d="M 290 -179 C 252 -179 218 -174 188 -165 C 158 -156 132 -144 112 -130 C 91 -116 75 -99 64 -80 C 52 -61 47 -42 47 -23 C 47 0 49 20 54 40 C 58 60 64 77 70 93 C 75 108 80 122 86 136 C 91 150 94 162 94 174 C 94 189 86 203 72 216 C 58 229 36 236 8 236 L 8 335 C 36 335 58 341 73 355 C 88 369 96 384 96 402 C 96 406 93 416 87 432 C 81 447 75 463 69 481 C 62 498 57 515 53 533 C 49 550 48 566 48 582 C 48 601 53 621 64 641 C 75 661 91 679 112 695 C 132 711 158 724 188 734 C 218 744 252 749 290 749 L 290 644 C 259 644 233 636 212 620 C 190 604 180 584 180 560 C 180 551 181 541 183 529 C 185 517 188 505 193 493 C 200 475 207 458 213 443 C 219 427 222 414 222 403 C 222 377 214 354 200 332 C 185 310 161 294 127 285 C 161 275 186 259 200 237 C 214 215 222 192 222 170 C 222 154 219 139 214 126 C 208 113 203 100 197 88 C 191 75 187 62 184 48 C 181 34 180 21 180 10 C 180 -10 190 -29 210 -47 C 230 -65 257 -74 290 -74 L 290 -179 Z" unicode="{" />
<glyph horiz-adv-x="268" d="M 199 -179 L 69 -179 L 69 730 L 199 730 L 199 -179 Z" unicode="|" />
<glyph horiz-adv-x="294" d="M 4 -179 L 4 -74 C 36 -74 63 -65 84 -47 C 104 -29 115 -10 115 10 C 115 21 113 34 110 48 C 107 62 103 75 97 88 C 91 100 86 113 80 126 C 74 139 72 154 72 170 C 72 192 79 215 93 237 C 107 259 132 275 167 285 C 133 294 108 310 94 332 C 79 354 72 377 72 403 C 72 414 75 427 81 443 C 87 458 93 475 101 493 C 105 505 109 517 111 529 C 113 541 114 551 114 560 C 114 584 103 604 82 620 C 60 636 34 644 4 644 L 4 749 C 42 749 76 744 106 734 C 136 724 161 711 182 695 C 202 679 218 661 229 641 C 240 621 246 601 246 582 C 246 566 244 550 240 533 C 236 515 231 498 225 481 C 218 463 212 447 206 432 C 200 416 198 406 198 402 C 198 384 205 369 220 355 C 235 341 257 335 286 335 L 286 236 C 257 236 235 229 221 216 C 207 203 200 189 200 174 C 200 162 202 150 208 136 C 213 122 218 108 224 93 C 230 77 235 60 240 40 C 244 20 247 0 247 -23 C 247 -42 241 -61 230 -80 C 218 -99 202 -116 182 -130 C 161 -144 135 -156 105 -165 C 75 -174 41 -179 4 -179 Z" unicode="}" />
<glyph horiz-adv-x="500" d="M 367 451 L 480 451 C 480 385 469 335 449 303 C 428 271 398 255 358 255 C 332 255 311 259 294 267 C 276 275 261 284 249 293 C 236 301 224 309 212 316 C 200 323 187 327 174 327 C 162 327 153 320 145 308 C 137 295 133 278 133 258 L 22 258 C 22 326 31 377 50 409 C 69 441 94 457 126 457 C 154 457 179 453 199 445 C 219 437 239 427 257 416 C 269 408 281 400 293 393 C 305 385 318 382 332 382 C 348 382 357 388 361 401 C 365 413 367 430 367 451 Z" unicode="~" />
<glyph horiz-adv-x="333" d="M 91 601 L 242 601 L 242 453 L 91 453 L 91 601 Z M 83 166 L 132 362 L 204 362 L 249 166 L 249 -129 L 83 -129 L 83 166 Z" unicode="¡" />
<glyph horiz-adv-x="600" d="M 575 222 C 555 192 529 164 495 139 C 461 113 416 98 360 94 L 360 -27 L 280 -27 L 280 96 C 246 100 215 110 187 124 C 158 138 133 157 113 180 C 92 203 76 231 64 263 C 52 295 46 331 46 371 C 46 409 51 444 63 476 C 75 508 91 536 112 560 C 132 584 157 603 186 619 C 214 635 246 645 280 651 L 280 764 L 360 764 L 360 654 C 417 649 463 632 499 602 C 535 572 559 540 573 504 L 459 454 C 446 477 429 497 408 513 C 387 529 360 537 326 537 C 282 537 247 521 221 491 C 195 460 183 421 183 375 C 183 322 196 281 223 253 C 250 225 286 211 332 211 C 369 211 399 219 421 237 C 443 254 460 273 472 293 L 575 222 Z" unicode="¢" />
<glyph horiz-adv-x="614" d="M 598 106 L 598 0 L 29 0 L 29 82 C 35 86 44 90 56 93 C 68 96 85 100 106 104 C 134 108 160 119 183 137 C 206 154 219 176 222 204 L 50 204 L 50 289 L 190 289 C 183 299 176 310 168 322 C 160 333 152 345 144 358 L 50 358 L 50 444 L 100 444 C 94 459 89 475 86 493 C 82 510 81 528 81 547 C 81 583 88 613 102 638 C 116 663 134 683 158 698 C 182 713 209 724 240 731 C 271 738 304 742 338 742 C 366 742 393 739 420 734 C 446 729 471 723 494 716 C 516 708 536 700 554 691 C 572 682 586 673 597 665 L 528 563 C 510 573 484 585 450 598 C 416 610 381 617 343 617 C 313 617 287 609 264 594 C 241 579 230 555 230 521 C 230 508 232 495 236 482 C 240 469 245 456 252 444 L 524 444 L 524 358 L 303 358 C 310 346 317 335 323 323 C 329 311 335 300 339 289 L 524 289 L 524 204 L 342 204 C 334 174 321 152 302 136 C 282 120 263 110 243 106 L 598 106 Z" unicode="£" />
<glyph horiz-adv-x="501" d="M 446 195 L 396 145 L 342 201 C 328 193 314 187 298 183 C 282 179 265 177 249 177 C 232 177 216 179 201 183 C 185 187 171 193 158 201 L 104 145 L 53 196 L 104 249 C 92 263 83 279 77 297 C 71 315 68 334 68 354 C 68 374 71 393 78 411 C 84 429 93 446 104 461 L 53 514 L 103 564 L 158 507 C 171 514 185 520 201 524 C 216 528 232 531 249 531 C 265 531 282 528 298 524 C 314 520 329 514 343 506 L 399 564 L 449 513 L 396 459 C 406 444 415 428 421 410 C 427 392 431 373 431 354 C 431 334 427 315 421 297 C 415 279 406 262 395 248 L 446 195 Z M 249 268 C 273 268 295 276 313 294 C 331 311 340 331 340 354 C 340 376 331 396 313 414 C 295 431 273 440 249 440 C 224 440 203 431 185 414 C 167 396 159 376 159 354 C 159 331 167 311 185 294 C 203 276 224 268 249 268 Z" unicode="¤" />
<glyph horiz-adv-x="702" d="M 604 101 L 423 101 L 423 0 L 273 0 L 273 101 L 92 101 L 92 187 L 273 187 L 273 237 L 91 237 L 91 322 L 263 322 L 18 730 L 185 730 L 355 433 L 527 730 L 684 730 L 437 322 L 603 322 L 603 237 L 423 237 L 423 187 L 604 187 L 604 101 Z" unicode="¥" />
<glyph horiz-adv-x="297" d="M 89 351 L 89 730 L 208 730 L 208 351 L 89 351 Z M 208 200 L 208 -179 L 89 -179 L 89 200 L 208 200 Z" unicode="¦" />
<glyph horiz-adv-x="675" d="M 355 -181 C 295 -181 239 -174 188 -161 C 137 -148 94 -130 60 -108 L 119 5 C 135 -5 153 -14 173 -23 C 193 -32 213 -40 233 -47 C 253 -53 273 -58 293 -62 C 313 -66 331 -68 348 -68 C 376 -68 398 -61 414 -49 C 430 -37 439 -19 439 3 C 439 23 430 39 412 50 C 394 61 370 73 338 86 L 250 121 C 216 135 187 147 161 159 C 135 171 113 183 96 197 C 78 211 65 227 56 245 C 47 263 43 286 43 313 C 43 343 50 369 65 390 C 80 411 99 429 122 444 C 103 457 89 474 81 494 C 72 514 68 539 68 568 C 68 595 74 619 87 641 C 100 663 118 681 142 696 C 165 710 193 722 225 730 C 257 738 292 742 330 742 C 394 742 447 733 488 717 C 529 700 563 683 590 666 L 529 562 C 499 580 467 597 435 612 C 402 626 366 634 326 634 C 293 634 266 628 246 616 C 226 604 216 587 216 567 C 216 551 223 538 239 527 C 255 516 278 505 310 495 L 427 451 C 495 428 546 404 580 378 C 614 352 632 313 632 261 C 632 225 621 196 599 172 C 577 148 549 132 517 122 C 534 112 550 97 565 77 C 580 57 588 31 588 1 C 588 -27 582 -53 570 -76 C 558 -98 541 -117 521 -133 C 500 -149 475 -161 447 -169 C 419 -177 388 -181 355 -181 Z M 418 193 C 437 195 453 200 467 209 C 481 217 488 231 488 250 C 488 268 478 284 459 298 C 440 311 402 327 346 346 L 244 385 C 226 379 212 372 202 363 C 192 354 187 341 187 325 C 187 304 196 287 216 273 C 235 259 273 243 329 227 L 418 193 Z" unicode="§" />
<glyph horiz-adv-x="500" d="M 408 606 L 291 606 L 291 767 L 408 767 L 408 606 Z M 209 606 L 92 606 L 92 767 L 209 767 L 209 606 Z" unicode="¨" />
<glyph horiz-adv-x="851" d="M 425 -12 C 373 -12 324 -2 278 18 C 232 38 192 64 158 98 C 124 132 98 172 78 218 C 58 264 48 313 48 365 C 48 417 58 466 78 512 C 98 558 124 597 158 631 C 192 665 232 692 278 712 C 324 732 373 742 425 742 C 477 742 526 732 572 712 C 618 692 657 665 691 631 C 725 597 752 558 772 512 C 792 466 802 417 802 365 C 802 313 792 264 772 218 C 752 172 725 132 691 98 C 657 64 618 38 572 18 C 526 -2 477 -12 425 -12 Z M 426 62 C 467 62 506 70 543 86 C 580 102 612 123 639 150 C 666 177 687 209 703 246 C 719 283 727 322 727 364 C 727 405 719 444 703 481 C 687 518 666 550 639 578 C 612 606 580 628 543 644 C 506 660 467 668 426 668 C 384 668 345 660 308 644 C 271 628 239 606 212 578 C 185 550 164 518 148 481 C 132 444 124 405 124 364 C 124 322 132 283 148 246 C 164 209 185 177 212 150 C 239 123 271 102 308 86 C 345 70 384 62 426 62 Z M 602 243 C 585 217 562 196 533 179 C 504 161 467 153 423 153 C 396 153 370 157 346 166 C 321 175 299 188 281 206 C 262 224 247 246 236 273 C 225 300 220 331 220 367 C 220 402 225 433 236 461 C 246 489 261 512 279 531 C 297 549 318 564 343 574 C 367 584 393 589 421 589 C 467 589 504 580 533 564 C 561 548 583 527 599 503 L 510 440 C 502 452 491 463 478 472 C 464 480 447 485 425 485 C 397 485 375 473 358 450 C 341 427 333 398 333 363 C 333 327 342 299 361 279 C 379 259 401 249 426 249 C 446 249 464 253 480 262 C 495 271 507 284 517 300 L 602 243 Z" unicode="©" />
<glyph horiz-adv-x="540" d="M 480 262 L 365 262 L 365 318 C 348 297 325 281 296 271 C 266 260 234 255 199 255 C 147 255 107 268 79 295 C 51 322 37 359 37 406 C 37 456 57 494 99 521 C 141 548 201 563 280 567 L 366 571 L 366 578 C 366 594 358 608 343 618 C 327 628 304 634 273 634 C 244 634 215 629 187 620 C 159 611 131 599 105 584 L 60 674 C 86 693 119 709 158 723 C 196 736 240 743 289 743 C 349 743 396 729 430 703 C 463 676 480 632 480 572 L 480 262 Z M 362 410 L 362 484 L 269 480 C 238 479 213 474 194 464 C 174 454 165 438 165 415 C 165 397 172 383 187 373 C 201 363 220 358 244 358 C 268 358 290 362 311 371 C 332 380 349 393 362 410 Z M 495 113 L 44 113 L 44 210 L 495 210 L 495 113 Z" unicode="ª" />
<glyph horiz-adv-x="499" d="M 229 79 L 25 272 L 25 357 L 229 547 L 229 401 L 144 315 L 229 229 L 229 79 Z M 469 79 L 263 272 L 263 357 L 469 547 L 469 401 L 384 315 L 469 230 L 469 79 Z" unicode="«" />
<glyph horiz-adv-x="500" d="M 454 415 L 454 128 L 337 128 L 337 294 L 28 294 L 28 415 L 454 415 Z" unicode="¬" />
<glyph horiz-adv-x="851" d="M 425 -12 C 373 -12 324 -2 278 18 C 232 38 192 64 158 98 C 124 132 98 172 78 218 C 58 264 48 313 48 365 C 48 417 58 466 78 512 C 98 558 124 597 158 631 C 192 665 232 692 278 712 C 324 732 373 742 425 742 C 477 742 526 732 572 712 C 618 692 657 665 691 631 C 725 597 752 558 772 512 C 792 466 802 417 802 365 C 802 313 792 264 772 218 C 752 172 725 132 691 98 C 657 64 618 38 572 18 C 526 -2 477 -12 425 -12 Z M 425 62 C 466 62 505 70 542 86 C 578 102 610 123 638 150 C 665 177 687 209 703 246 C 719 283 727 323 727 365 C 727 406 719 445 703 482 C 687 519 665 551 638 579 C 610 606 578 628 542 644 C 505 660 466 668 425 668 C 383 668 344 660 308 644 C 271 628 239 606 212 579 C 185 551 164 519 148 482 C 132 445 124 406 124 365 C 124 323 132 283 148 246 C 164 209 185 177 212 150 C 239 123 271 102 308 86 C 344 70 383 62 425 62 Z M 272 158 L 272 590 L 449 590 C 467 590 484 587 502 583 C 519 578 534 571 548 561 C 561 551 572 538 580 523 C 588 507 593 489 593 468 C 593 430 583 401 565 381 C 547 361 527 350 505 347 L 505 343 L 640 158 L 525 158 L 415 320 L 372 320 L 372 158 L 272 158 Z M 371 402 L 446 402 C 460 402 472 406 482 416 C 491 426 496 440 496 458 C 496 476 490 489 478 498 C 466 506 453 511 439 511 L 371 511 L 371 402 Z" unicode="®" />
<glyph horiz-adv-x="500" d="M 393 610 L 107 610 L 107 721 L 393 721 L 393 610 Z" unicode="¯" />
<glyph horiz-adv-x="436" d="M 218 366 C 192 366 167 371 144 381 C 121 391 101 404 85 421 C 68 437 55 457 45 480 C 35 503 30 528 30 554 C 30 580 35 604 45 627 C 55 650 68 670 85 687 C 101 703 121 717 144 727 C 167 737 192 742 218 742 C 244 742 268 737 291 727 C 314 717 334 703 351 687 C 367 670 381 650 391 627 C 401 604 406 580 406 554 C 406 528 401 503 391 480 C 381 457 367 437 351 421 C 334 404 314 391 291 381 C 268 371 244 366 218 366 Z M 218 464 C 242 464 264 473 282 491 C 300 509 310 530 310 554 C 310 578 300 599 282 617 C 264 635 242 644 218 644 C 193 644 171 635 153 617 C 135 599 126 578 126 554 C 126 530 135 509 153 491 C 171 473 193 464 218 464 Z" unicode="°" />
<glyph horiz-adv-x="500" d="M 477 122 L 477 16 L 25 16 L 25 122 L 191 122 L 191 278 L 21 278 L 21 384 L 191 384 L 191 557 L 309 557 L 309 384 L 479 384 L 479 278 L 309 278 L 309 122 L 477 122 Z" unicode="±" />
<glyph horiz-adv-x="334" d="M 319 372 L 15 372 L 15 406 L 173 568 C 179 574 185 581 189 589 C 193 596 195 605 195 616 C 195 625 191 633 185 641 C 179 649 169 653 155 653 C 139 653 128 648 122 638 C 116 628 112 616 112 604 L 11 604 C 11 644 25 676 53 702 C 81 728 120 741 169 741 C 215 741 251 731 275 711 C 299 691 311 667 311 639 C 311 612 306 590 296 573 C 286 556 276 542 265 530 L 195 459 L 319 459 L 319 372 Z" unicode="²" />
<glyph horiz-adv-x="346" d="M 233 569 C 257 564 277 553 292 537 C 307 520 315 500 315 477 C 315 465 312 453 308 440 C 303 426 295 414 283 403 C 271 391 256 382 236 374 C 216 366 191 363 161 363 C 116 363 82 368 58 379 C 34 389 16 400 4 410 L 55 467 C 65 460 77 454 92 449 C 106 443 124 441 145 441 C 171 441 190 445 200 454 C 210 463 216 475 216 490 C 216 504 208 514 194 519 C 180 523 163 526 144 526 L 75 526 L 75 600 L 140 600 C 156 600 170 602 181 608 C 192 613 198 621 198 633 C 198 643 193 651 185 656 C 176 660 164 663 148 663 C 130 663 114 660 99 654 C 84 648 72 641 64 634 L 16 689 C 26 700 43 712 67 724 C 90 736 123 742 165 742 C 204 742 236 734 262 718 C 287 702 300 679 300 649 C 300 628 293 611 279 597 C 265 583 249 573 233 569 Z" unicode="³" />
<glyph horiz-adv-x="500" d="M 124 612 L 226 771 L 392 771 L 264 612 L 124 612 Z" unicode="´" />
<glyph horiz-adv-x="635" d="M 72 -159 L 72 559 L 209 559 L 209 189 C 209 168 218 148 237 130 C 256 112 281 103 313 103 C 339 103 364 115 387 139 C 409 163 421 193 421 227 L 421 559 L 558 559 L 558 0 L 432 0 L 432 79 C 419 56 398 37 368 22 C 338 7 309 -1 279 -4 C 262 -4 246 -2 231 3 C 215 9 204 17 198 28 L 198 -159 L 72 -159 Z" unicode="µ" />
<glyph horiz-adv-x="707" d="M 642 -179 L 550 -179 L 550 621 L 465 621 L 465 -179 L 373 -179 L 373 247 L 264 247 C 233 247 203 253 174 266 C 145 279 120 296 98 318 C 76 339 58 364 45 393 C 31 422 25 453 25 485 C 25 519 31 552 44 582 C 56 612 74 637 96 659 C 118 681 146 698 178 711 C 210 723 245 730 284 730 L 642 730 L 642 -179 Z M 374 361 L 374 616 L 325 616 C 290 616 262 603 240 579 C 218 555 207 524 207 488 C 207 453 217 423 239 398 C 261 373 287 361 318 361 L 374 361 Z" unicode="¶" />
<glyph horiz-adv-x="288" d="M 213 264 L 74 264 L 74 424 L 213 424 L 213 264 Z" unicode="·" />
<glyph horiz-adv-x="500" d="M 259 -193 C 232 -193 205 -190 178 -184 C 150 -178 130 -170 116 -161 L 133 -102 C 141 -105 153 -109 167 -113 C 181 -117 196 -120 212 -120 C 222 -120 231 -117 239 -113 C 247 -109 251 -103 251 -95 C 251 -86 247 -80 240 -76 C 233 -72 226 -71 218 -71 C 212 -71 206 -71 202 -72 C 197 -73 192 -74 188 -76 L 171 -58 L 232 14 L 316 14 L 269 -43 C 302 -39 329 -43 351 -57 C 372 -71 383 -90 383 -115 C 383 -141 370 -161 345 -174 C 319 -186 291 -193 259 -193 Z" unicode="¸" />
<glyph horiz-adv-x="325" d="M 127 372 L 127 613 C 123 608 117 604 109 600 C 101 596 93 592 85 589 C 76 586 67 584 59 582 C 51 580 44 578 40 578 L 40 678 C 66 680 88 685 106 695 C 124 704 145 719 168 739 L 242 739 L 242 372 L 127 372 Z" unicode="¹" />
<glyph horiz-adv-x="553" d="M 272 250 C 241 250 211 255 182 266 C 153 276 128 292 106 312 C 84 332 66 358 53 389 C 39 419 33 454 33 494 C 33 528 39 561 53 591 C 66 621 84 647 106 669 C 128 691 153 708 182 720 C 211 732 241 739 273 739 C 307 739 339 733 369 723 C 399 712 426 697 448 677 C 470 657 487 633 500 604 C 513 574 520 541 520 505 C 520 467 513 432 500 400 C 486 368 468 342 446 320 C 423 298 397 280 367 268 C 337 256 305 250 272 250 Z M 272 362 C 309 362 339 374 362 400 C 385 426 397 460 397 504 C 397 544 386 575 365 597 C 344 619 315 631 278 631 C 241 631 211 618 189 593 C 167 568 156 533 156 488 C 156 448 166 417 188 395 C 209 373 237 362 272 362 Z M 51 113 L 51 210 L 502 210 L 502 113 L 51 113 Z" unicode="º" />
<glyph horiz-adv-x="503" d="M 31 547 L 237 354 L 237 269 L 31 79 L 31 225 L 115 311 L 31 396 L 31 547 Z M 273 547 L 478 354 L 478 269 L 273 79 L 273 225 L 358 311 L 273 397 L 273 547 Z" unicode="»" />
<glyph horiz-adv-x="696" d="M 4 0 L 4 0 Z M 91 372 L 91 613 C 87 608 81 604 73 600 C 65 596 57 592 49 589 C 40 586 31 584 23 582 C 15 580 8 578 4 578 L 4 678 C 30 680 52 685 70 695 C 88 704 109 719 132 739 L 206 739 L 206 372 L 91 372 Z M 584 730 L 238 0 L 129 0 L 475 730 L 584 730 Z M 387 81 L 387 150 L 566 363 L 638 363 L 638 154 L 692 154 L 692 81 L 638 81 L 638 1 L 539 1 L 539 81 L 387 81 Z M 467 144 L 541 144 L 541 234 L 467 144 Z" unicode="¼" />
<glyph horiz-adv-x="762" d="M 4 0 L 4 0 Z M 91 372 L 91 613 C 87 608 81 604 73 600 C 65 596 57 592 49 589 C 40 586 31 584 23 582 C 15 580 8 578 4 578 L 4 678 C 30 680 52 685 70 695 C 88 704 109 719 132 739 L 206 739 L 206 372 L 91 372 Z M 584 730 L 238 0 L 129 0 L 475 730 L 584 730 Z M 753 0 L 449 0 L 449 34 L 607 196 C 613 202 619 209 623 217 C 627 224 629 233 629 244 C 629 253 625 261 619 269 C 613 277 603 281 589 281 C 573 281 562 276 556 266 C 550 256 546 244 546 232 L 445 232 C 445 272 459 304 487 330 C 515 356 554 369 603 369 C 649 369 685 359 709 339 C 733 319 745 295 745 267 C 745 240 740 218 730 201 C 720 184 710 170 699 158 L 629 87 L 753 87 L 753 0 Z" unicode="½" />
<glyph horiz-adv-x="749" d="M 4 0 L 4 0 Z M 637 730 L 291 0 L 182 0 L 528 730 L 637 730 Z M 440 81 L 440 150 L 619 363 L 691 363 L 691 154 L 745 154 L 745 81 L 691 81 L 691 1 L 592 1 L 592 81 L 440 81 Z M 520 144 L 594 144 L 594 234 L 520 144 Z M 233 569 C 257 564 277 553 292 537 C 307 520 315 500 315 477 C 315 465 312 453 308 440 C 303 426 295 414 283 403 C 271 391 256 382 236 374 C 216 366 191 363 161 363 C 116 363 82 368 58 379 C 34 389 16 400 4 410 L 55 467 C 65 460 77 454 92 449 C 106 443 124 441 145 441 C 171 441 190 445 200 454 C 210 463 216 475 216 490 C 216 504 208 514 194 519 C 180 523 163 526 144 526 L 75 526 L 75 600 L 140 600 C 156 600 170 602 181 608 C 192 613 198 621 198 633 C 198 643 193 651 185 656 C 176 660 164 663 148 663 C 130 663 114 660 99 654 C 84 648 72 641 64 634 L 16 689 C 26 700 43 712 67 724 C 90 736 123 742 165 742 C 204 742 236 734 262 718 C 287 702 300 679 300 649 C 300 628 293 611 279 597 C 265 583 249 573 233 569 Z" unicode="¾" />
<glyph horiz-adv-x="492" d="M 188 453 L 188 601 L 345 601 L 345 453 L 188 453 Z M 253 -141 C 219 -141 188 -136 159 -127 C 129 -118 104 -105 83 -89 C 61 -73 44 -53 32 -30 C 20 -7 14 18 14 47 C 14 73 17 97 25 117 C 33 137 42 155 54 170 C 66 185 79 198 93 209 C 107 219 120 229 133 237 C 161 255 179 276 187 300 C 195 324 199 349 200 376 L 339 376 C 339 330 333 293 323 266 C 312 239 290 214 256 190 C 228 171 205 153 187 136 C 169 118 161 95 161 67 C 161 41 171 21 192 7 C 213 -7 238 -15 268 -15 C 296 -15 321 -8 344 4 C 367 17 385 32 398 49 L 490 -42 C 471 -65 442 -87 402 -109 C 362 -130 312 -141 253 -141 Z" unicode="¿" />
<glyph horiz-adv-x="677" d="M 0 0 L 0 0 Z M 680 0 L 520 0 L 464 141 L 198 141 L 146 0 L -3 0 L 293 732 L 393 732 L 680 0 Z M 432 249 L 331 511 L 231 249 L 432 249 Z M 334 776 L 334 776 Z M 469 776 L 329 776 L 200 936 L 365 936 L 469 776 Z" unicode="À" />
<glyph horiz-adv-x="677" d="M 0 0 L 0 0 Z M 680 0 L 520 0 L 464 141 L 198 141 L 146 0 L -3 0 L 293 732 L 393 732 L 680 0 Z M 432 249 L 331 511 L 231 249 L 432 249 Z M 334 783 L 334 783 Z M 201 783 L 303 942 L 469 942 L 341 783 L 201 783 Z" unicode="Á" />
<glyph horiz-adv-x="677" d="M 0 0 L 0 0 Z M 680 0 L 520 0 L 464 141 L 198 141 L 146 0 L -3 0 L 293 732 L 393 732 L 680 0 Z M 432 249 L 331 511 L 231 249 L 432 249 Z M 334 777 L 334 777 Z M 528 777 L 400 777 L 334 868 L 266 777 L 140 777 L 263 950 L 405 950 L 528 777 Z" unicode="Â" />
<glyph horiz-adv-x="677" d="M 0 0 L 0 0 Z M 680 0 L 520 0 L 464 141 L 198 141 L 146 0 L -3 0 L 293 732 L 393 732 L 680 0 Z M 432 249 L 331 511 L 231 249 L 432 249 Z M 334 779 L 334 779 Z M 413 932 L 525 932 C 525 880 516 841 499 816 C 482 791 459 779 429 779 C 411 779 395 782 381 788 C 367 794 353 800 341 808 C 331 814 321 821 311 828 C 301 835 292 839 282 839 C 273 839 266 834 261 825 C 255 815 252 801 252 783 L 143 783 C 143 808 146 830 152 850 C 158 869 167 885 177 898 C 187 910 199 920 212 926 C 224 932 237 936 249 936 C 267 936 282 933 295 927 C 308 921 320 913 332 905 C 341 898 349 892 357 887 C 365 881 373 879 381 879 C 389 879 397 883 403 892 C 409 900 412 914 413 932 Z" unicode="Ã" />
<glyph horiz-adv-x="677" d="M 0 0 L 0 0 Z M 680 0 L 520 0 L 464 141 L 198 141 L 146 0 L -3 0 L 293 732 L 393 732 L 680 0 Z M 432 249 L 331 511 L 231 249 L 432 249 Z M 334 777 L 334 777 Z M 492 777 L 375 777 L 375 938 L 492 938 L 492 777 Z M 293 777 L 176 777 L 176 938 L 293 938 L 293 777 Z" unicode="Ä" />
<glyph horiz-adv-x="677" d="M 0 0 L 0 0 Z M 680 0 L 520 0 L 464 141 L 198 141 L 146 0 L -3 0 L 293 732 L 393 732 L 680 0 Z M 432 249 L 331 511 L 231 249 L 432 249 Z M 334 774 L 334 774 Z M 334 774 C 299 774 269 786 245 811 C 220 835 208 865 208 901 C 208 935 220 965 245 990 C 269 1014 299 1027 334 1027 C 369 1027 399 1014 424 990 C 448 965 461 935 461 901 C 461 865 448 835 424 811 C 399 786 369 774 334 774 Z M 334 851 C 348 851 359 855 369 865 C 378 874 383 886 383 901 C 383 914 378 926 369 936 C 359 946 348 951 334 951 C 320 951 309 946 299 936 C 289 926 285 914 285 901 C 285 886 289 874 299 865 C 309 855 320 851 334 851 Z" unicode="Å" />
<glyph horiz-adv-x="1010" d="M 961 0 L 502 0 L 502 225 L 263 225 L 123 0 L -37 0 L 422 730 L 942 730 L 942 605 L 636 605 L 636 422 L 923 422 L 923 303 L 636 303 L 636 125 L 961 125 L 961 0 Z M 502 344 L 502 630 L 328 344 L 502 344 Z" unicode="Æ" />
<glyph horiz-adv-x="741" d="M 43 0 L 43 0 Z M 404 -12 C 354 -12 307 -3 263 14 C 219 32 180 57 148 89 C 116 121 90 161 71 208 C 52 254 43 307 43 365 C 43 421 52 472 70 519 C 88 565 114 605 146 638 C 178 670 217 696 261 714 C 305 732 353 742 405 742 C 471 742 529 732 579 712 C 629 692 670 659 704 614 L 593 523 C 572 547 547 567 518 582 C 488 597 452 605 408 605 C 338 605 285 583 249 540 C 212 497 194 441 194 372 C 194 328 200 291 213 259 C 226 227 243 201 264 181 C 285 161 309 146 337 136 C 364 126 392 121 422 121 C 466 121 503 129 534 147 C 565 165 590 189 610 219 L 719 144 C 693 101 653 64 600 34 C 546 3 481 -12 404 -12 Z M 398 -7 L 398 -7 Z M 407 -200 C 380 -200 353 -197 326 -191 C 298 -185 278 -177 264 -168 L 281 -109 C 289 -112 301 -116 315 -120 C 329 -124 344 -127 360 -127 C 370 -127 379 -124 387 -120 C 395 -116 399 -110 399 -102 C 399 -93 395 -87 388 -83 C 381 -79 374 -78 366 -78 C 360 -78 354 -78 350 -79 C 345 -80 340 -81 336 -83 L 319 -65 L 380 7 L 464 7 L 417 -50 C 450 -46 477 -50 499 -64 C 520 -78 531 -97 531 -122 C 531 -148 518 -168 493 -181 C 467 -193 439 -200 407 -200 Z" unicode="Ç" />
<glyph horiz-adv-x="611" d="M 87 0 L 87 0 Z M 559 0 L 87 0 L 87 730 L 540 730 L 540 605 L 234 605 L 234 423 L 520 423 L 520 303 L 234 303 L 234 125 L 559 125 L 559 0 Z M 322 776 L 322 776 Z M 457 776 L 317 776 L 188 936 L 353 936 L 457 776 Z" unicode="È" />
<glyph horiz-adv-x="611" d="M 87 0 L 87 0 Z M 559 0 L 87 0 L 87 730 L 540 730 L 540 605 L 234 605 L 234 423 L 520 423 L 520 303 L 234 303 L 234 125 L 559 125 L 559 0 Z M 322 783 L 322 783 Z M 189 783 L 291 942 L 457 942 L 329 783 L 189 783 Z" unicode="É" />
<glyph horiz-adv-x="611" d="M 87 0 L 87 0 Z M 559 0 L 87 0 L 87 730 L 540 730 L 540 605 L 234 605 L 234 423 L 520 423 L 520 303 L 234 303 L 234 125 L 559 125 L 559 0 Z M 322 777 L 322 777 Z M 516 777 L 388 777 L 322 868 L 254 777 L 128 777 L 251 950 L 393 950 L 516 777 Z" unicode="Ê" />
<glyph horiz-adv-x="611" d="M 87 0 L 87 0 Z M 559 0 L 87 0 L 87 730 L 540 730 L 540 605 L 234 605 L 234 423 L 520 423 L 520 303 L 234 303 L 234 125 L 559 125 L 559 0 Z M 322 777 L 322 777 Z M 480 777 L 363 777 L 363 938 L 480 938 L 480 777 Z M 281 777 L 164 777 L 164 938 L 281 938 L 281 777 Z" unicode="Ë" />
<glyph horiz-adv-x="333" d="M 32 0 L 32 0 Z M 241 0 L 91 0 L 91 730 L 241 730 L 241 0 Z M 166 776 L 166 776 Z M 301 776 L 161 776 L 32 936 L 197 936 L 301 776 Z" unicode="Ì" />
<glyph horiz-adv-x="333" d="M 33 0 L 33 0 Z M 241 0 L 91 0 L 91 730 L 241 730 L 241 0 Z M 166 783 L 166 783 Z M 33 783 L 135 942 L 301 942 L 173 783 L 33 783 Z" unicode="Í" />
<glyph horiz-adv-x="333" d="M 0 0 L 0 0 Z M 241 0 L 91 0 L 91 730 L 241 730 L 241 0 Z M 166 777 L 166 777 Z M 360 777 L 232 777 L 166 868 L 98 777 L -28 777 L 95 950 L 237 950 L 360 777 Z" unicode="Î" />
<glyph horiz-adv-x="333" d="M 8 0 L 8 0 Z M 241 0 L 91 0 L 91 730 L 241 730 L 241 0 Z M 166 777 L 166 777 Z M 324 777 L 207 777 L 207 938 L 324 938 L 324 777 Z M 125 777 L 8 777 L 8 938 L 125 938 L 125 777 Z" unicode="Ï" />
<glyph horiz-adv-x="762" d="M 719 367 C 719 316 710 268 693 224 C 676 179 651 140 618 107 C 584 74 543 48 493 29 C 443 9 386 0 322 0 L 87 0 L 87 304 L 35 304 L 35 410 L 87 410 L 87 730 L 340 730 C 401 730 455 721 503 704 C 550 686 590 662 622 630 C 654 598 678 560 694 516 C 710 471 719 421 719 367 Z M 230 113 L 319 113 C 363 113 401 120 433 134 C 464 148 489 167 509 191 C 529 215 543 242 552 272 C 560 302 565 333 565 365 C 565 441 545 501 506 547 C 467 593 411 616 338 616 L 230 616 L 230 410 L 373 410 L 373 304 L 230 304 L 230 113 Z" unicode="Ð" />
<glyph horiz-adv-x="791" d="M 87 0 L 87 0 Z M 704 0 L 598 0 L 226 474 L 226 0 L 87 0 L 87 730 L 201 730 L 567 265 L 567 730 L 704 730 L 704 0 Z M 395 779 L 395 779 Z M 474 932 L 586 932 C 586 880 577 841 560 816 C 543 791 520 779 490 779 C 472 779 456 782 442 788 C 428 794 414 800 402 808 C 392 814 382 821 372 828 C 362 835 353 839 343 839 C 334 839 327 834 322 825 C 316 815 313 801 313 783 L 204 783 C 204 808 207 830 213 850 C 219 869 228 885 238 898 C 248 910 260 920 273 926 C 285 932 298 936 310 936 C 328 936 343 933 356 927 C 369 921 381 913 393 905 C 402 898 410 892 418 887 C 426 881 434 879 442 879 C 450 879 458 883 464 892 C 470 900 473 914 474 932 Z" unicode="Ñ" />
<glyph horiz-adv-x="833" d="M 43 0 L 43 0 Z M 420 -12 C 363 -12 311 -2 265 17 C 218 37 178 64 146 98 C 113 132 88 173 70 220 C 52 266 43 316 43 370 C 43 424 52 474 72 520 C 91 566 117 605 150 638 C 183 670 222 696 268 714 C 313 732 361 742 412 742 C 466 742 517 732 564 714 C 610 696 650 670 684 638 C 717 605 743 566 762 520 C 781 474 791 423 791 369 C 791 311 781 259 761 212 C 741 164 714 124 680 91 C 646 58 606 33 561 15 C 516 -3 469 -12 420 -12 Z M 425 118 C 455 118 484 123 510 133 C 536 143 559 159 579 180 C 598 200 613 226 625 257 C 636 288 642 324 642 364 C 642 400 636 433 624 463 C 612 493 595 518 574 539 C 553 560 528 576 500 588 C 471 600 440 606 407 606 C 376 606 347 600 321 590 C 295 580 272 565 253 545 C 233 525 218 501 207 472 C 196 442 191 409 191 372 C 191 332 197 297 209 265 C 221 233 237 207 258 185 C 279 163 304 147 333 135 C 361 123 392 118 425 118 Z M 414 776 L 414 776 Z M 549 776 L 409 776 L 280 936 L 445 936 L 549 776 Z" unicode="Ò" />
<glyph horiz-adv-x="833" d="M 43 0 L 43 0 Z M 420 -12 C 363 -12 311 -2 265 17 C 218 37 178 64 146 98 C 113 132 88 173 70 220 C 52 266 43 316 43 370 C 43 424 52 474 72 520 C 91 566 117 605 150 638 C 183 670 222 696 268 714 C 313 732 361 742 412 742 C 466 742 517 732 564 714 C 610 696 650 670 684 638 C 717 605 743 566 762 520 C 781 474 791 423 791 369 C 791 311 781 259 761 212 C 741 164 714 124 680 91 C 646 58 606 33 561 15 C 516 -3 469 -12 420 -12 Z M 425 118 C 455 118 484 123 510 133 C 536 143 559 159 579 180 C 598 200 613 226 625 257 C 636 288 642 324 642 364 C 642 400 636 433 624 463 C 612 493 595 518 574 539 C 553 560 528 576 500 588 C 471 600 440 606 407 606 C 376 606 347 600 321 590 C 295 580 272 565 253 545 C 233 525 218 501 207 472 C 196 442 191 409 191 372 C 191 332 197 297 209 265 C 221 233 237 207 258 185 C 279 163 304 147 333 135 C 361 123 392 118 425 118 Z M 414 783 L 414 783 Z M 281 783 L 383 942 L 549 942 L 421 783 L 281 783 Z" unicode="Ó" />
<glyph horiz-adv-x="833" d="M 43 0 L 43 0 Z M 420 -12 C 363 -12 311 -2 265 17 C 218 37 178 64 146 98 C 113 132 88 173 70 220 C 52 266 43 316 43 370 C 43 424 52 474 72 520 C 91 566 117 605 150 638 C 183 670 222 696 268 714 C 313 732 361 742 412 742 C 466 742 517 732 564 714 C 610 696 650 670 684 638 C 717 605 743 566 762 520 C 781 474 791 423 791 369 C 791 311 781 259 761 212 C 741 164 714 124 680 91 C 646 58 606 33 561 15 C 516 -3 469 -12 420 -12 Z M 425 118 C 455 118 484 123 510 133 C 536 143 559 159 579 180 C 598 200 613 226 625 257 C 636 288 642 324 642 364 C 642 400 636 433 624 463 C 612 493 595 518 574 539 C 553 560 528 576 500 588 C 471 600 440 606 407 606 C 376 606 347 600 321 590 C 295 580 272 565 253 545 C 233 525 218 501 207 472 C 196 442 191 409 191 372 C 191 332 197 297 209 265 C 221 233 237 207 258 185 C 279 163 304 147 333 135 C 361 123 392 118 425 118 Z M 414 777 L 414 777 Z M 608 777 L 480 777 L 414 868 L 346 777 L 220 777 L 343 950 L 485 950 L 608 777 Z" unicode="Ô" />
<glyph horiz-adv-x="833" d="M 43 0 L 43 0 Z M 420 -12 C 363 -12 311 -2 265 17 C 218 37 178 64 146 98 C 113 132 88 173 70 220 C 52 266 43 316 43 370 C 43 424 52 474 72 520 C 91 566 117 605 150 638 C 183 670 222 696 268 714 C 313 732 361 742 412 742 C 466 742 517 732 564 714 C 610 696 650 670 684 638 C 717 605 743 566 762 520 C 781 474 791 423 791 369 C 791 311 781 259 761 212 C 741 164 714 124 680 91 C 646 58 606 33 561 15 C 516 -3 469 -12 420 -12 Z M 425 118 C 455 118 484 123 510 133 C 536 143 559 159 579 180 C 598 200 613 226 625 257 C 636 288 642 324 642 364 C 642 400 636 433 624 463 C 612 493 595 518 574 539 C 553 560 528 576 500 588 C 471 600 440 606 407 606 C 376 606 347 600 321 590 C 295 580 272 565 253 545 C 233 525 218 501 207 472 C 196 442 191 409 191 372 C 191 332 197 297 209 265 C 221 233 237 207 258 185 C 279 163 304 147 333 135 C 361 123 392 118 425 118 Z M 414 779 L 414 779 Z M 493 932 L 605 932 C 605 880 596 841 579 816 C 562 791 539 779 509 779 C 491 779 475 782 461 788 C 447 794 433 800 421 808 C 411 814 401 821 391 828 C 381 835 372 839 362 839 C 353 839 346 834 341 825 C 335 815 332 801 332 783 L 223 783 C 223 808 226 830 232 850 C 238 869 247 885 257 898 C 267 910 279 920 292 926 C 304 932 317 936 329 936 C 347 936 362 933 375 927 C 388 921 400 913 412 905 C 421 898 429 892 437 887 C 445 881 453 879 461 879 C 469 879 477 883 483 892 C 489 900 492 914 493 932 Z" unicode="Õ" />
<glyph horiz-adv-x="833" d="M 43 0 L 43 0 Z M 420 -12 C 363 -12 311 -2 265 17 C 218 37 178 64 146 98 C 113 132 88 173 70 220 C 52 266 43 316 43 370 C 43 424 52 474 72 520 C 91 566 117 605 150 638 C 183 670 222 696 268 714 C 313 732 361 742 412 742 C 466 742 517 732 564 714 C 610 696 650 670 684 638 C 717 605 743 566 762 520 C 781 474 791 423 791 369 C 791 311 781 259 761 212 C 741 164 714 124 680 91 C 646 58 606 33 561 15 C 516 -3 469 -12 420 -12 Z M 425 118 C 455 118 484 123 510 133 C 536 143 559 159 579 180 C 598 200 613 226 625 257 C 636 288 642 324 642 364 C 642 400 636 433 624 463 C 612 493 595 518 574 539 C 553 560 528 576 500 588 C 471 600 440 606 407 606 C 376 606 347 600 321 590 C 295 580 272 565 253 545 C 233 525 218 501 207 472 C 196 442 191 409 191 372 C 191 332 197 297 209 265 C 221 233 237 207 258 185 C 279 163 304 147 333 135 C 361 123 392 118 425 118 Z M 414 777 L 414 777 Z M 572 777 L 455 777 L 455 938 L 572 938 L 572 777 Z M 373 777 L 256 777 L 256 938 L 373 938 L 373 777 Z" unicode="Ö" />
<glyph horiz-adv-x="501" d="M 120 124 L 44 202 L 173 331 L 45 458 L 122 536 L 250 408 L 379 536 L 456 458 L 327 331 L 457 202 L 380 122 L 250 254 L 120 124 Z" unicode="×" />
<glyph horiz-adv-x="833" d="M 791 369 C 791 311 781 259 761 212 C 741 164 714 124 680 91 C 646 58 606 33 561 15 C 516 -3 469 -12 420 -12 C 372 -12 327 -4 286 9 C 245 23 209 43 178 69 L 106 -3 L 47 53 L 121 127 C 96 159 77 196 63 238 C 49 280 43 324 43 370 C 43 424 52 474 72 520 C 91 566 117 605 150 638 C 183 670 222 696 268 714 C 313 732 361 742 412 742 C 459 742 503 735 545 721 C 586 707 623 687 656 663 L 740 747 L 799 691 L 713 605 C 737 574 756 538 770 498 C 784 458 791 415 791 369 Z M 191 372 C 191 344 194 319 200 295 C 206 271 214 250 225 231 L 552 559 C 532 573 510 585 486 593 C 461 601 435 606 407 606 C 376 606 347 600 321 590 C 295 580 272 565 253 545 C 233 525 218 501 207 472 C 196 442 191 409 191 372 Z M 642 364 C 642 390 638 414 632 436 C 626 458 617 479 607 498 L 277 168 C 297 152 319 139 344 131 C 369 122 396 118 425 118 C 455 118 484 123 510 133 C 536 143 559 159 579 180 C 598 200 613 226 625 257 C 636 288 642 324 642 364 Z" unicode="Ø" />
<glyph horiz-adv-x="778" d="M 83 0 L 83 0 Z M 694 730 L 694 266 C 694 222 685 183 669 149 C 653 114 631 85 603 61 C 575 37 542 19 505 7 C 468 -5 429 -12 388 -12 C 347 -12 308 -6 271 6 C 234 18 202 35 174 59 C 146 83 124 112 108 147 C 91 181 83 221 83 266 L 83 730 L 229 730 L 229 273 C 229 225 244 187 275 161 C 306 134 343 121 387 121 C 431 121 468 134 500 160 C 532 186 548 223 548 273 L 548 730 L 694 730 Z M 389 776 L 389 776 Z M 524 776 L 384 776 L 255 936 L 420 936 L 524 776 Z" unicode="Ù" />
<glyph horiz-adv-x="778" d="M 83 0 L 83 0 Z M 694 730 L 694 266 C 694 222 685 183 669 149 C 653 114 631 85 603 61 C 575 37 542 19 505 7 C 468 -5 429 -12 388 -12 C 347 -12 308 -6 271 6 C 234 18 202 35 174 59 C 146 83 124 112 108 147 C 91 181 83 221 83 266 L 83 730 L 229 730 L 229 273 C 229 225 244 187 275 161 C 306 134 343 121 387 121 C 431 121 468 134 500 160 C 532 186 548 223 548 273 L 548 730 L 694 730 Z M 389 783 L 389 783 Z M 256 783 L 358 942 L 524 942 L 396 783 L 256 783 Z" unicode="Ú" />
<glyph horiz-adv-x="778" d="M 83 0 L 83 0 Z M 694 730 L 694 266 C 694 222 685 183 669 149 C 653 114 631 85 603 61 C 575 37 542 19 505 7 C 468 -5 429 -12 388 -12 C 347 -12 308 -6 271 6 C 234 18 202 35 174 59 C 146 83 124 112 108 147 C 91 181 83 221 83 266 L 83 730 L 229 730 L 229 273 C 229 225 244 187 275 161 C 306 134 343 121 387 121 C 431 121 468 134 500 160 C 532 186 548 223 548 273 L 548 730 L 694 730 Z M 389 777 L 389 777 Z M 583 777 L 455 777 L 389 868 L 321 777 L 195 777 L 318 950 L 460 950 L 583 777 Z" unicode="Û" />
<glyph horiz-adv-x="778" d="M 83 0 L 83 0 Z M 694 730 L 694 266 C 694 222 685 183 669 149 C 653 114 631 85 603 61 C 575 37 542 19 505 7 C 468 -5 429 -12 388 -12 C 347 -12 308 -6 271 6 C 234 18 202 35 174 59 C 146 83 124 112 108 147 C 91 181 83 221 83 266 L 83 730 L 229 730 L 229 273 C 229 225 244 187 275 161 C 306 134 343 121 387 121 C 431 121 468 134 500 160 C 532 186 548 223 548 273 L 548 730 L 694 730 Z M 389 777 L 389 777 Z M 547 777 L 430 777 L 430 938 L 547 938 L 547 777 Z M 348 777 L 231 777 L 231 938 L 348 938 L 348 777 Z" unicode="Ü" />
<glyph horiz-adv-x="697" d="M 0 0 L 0 0 Z M 702 730 L 420 292 L 420 0 L 270 0 L 270 299 L -5 730 L 163 730 L 353 430 L 544 730 L 702 730 Z M 353 783 L 353 783 Z M 220 783 L 322 942 L 488 942 L 360 783 L 220 783 Z" unicode="Ý" />
<glyph horiz-adv-x="635" d="M 87 0 L 87 730 L 237 730 L 237 613 L 376 613 C 449 613 507 591 551 549 C 594 507 616 451 616 383 C 616 313 593 257 548 213 C 502 169 443 148 371 148 L 237 148 L 237 0 L 87 0 Z M 233 262 L 354 262 C 388 262 415 272 435 294 C 455 316 465 346 465 384 C 465 421 453 449 431 468 C 409 486 381 496 348 496 L 233 496 L 233 262 Z" unicode="Þ" />
<glyph horiz-adv-x="760" d="M 523 -11 C 468 -11 419 -4 376 8 C 332 20 296 37 266 59 L 325 154 C 353 138 385 126 421 116 C 457 106 488 101 516 101 C 540 101 558 106 571 117 C 584 127 591 141 591 158 C 591 172 583 185 567 196 C 551 207 521 218 478 230 C 406 248 356 269 327 292 C 297 315 283 351 283 401 C 283 440 294 470 316 492 C 338 513 361 527 387 534 C 389 536 393 541 398 547 C 403 553 406 564 407 578 C 407 617 397 646 379 666 C 360 685 337 695 310 695 C 283 695 261 687 244 672 C 227 656 219 631 219 595 L 219 0 L 78 0 L 78 619 C 78 651 83 678 95 702 C 106 726 121 745 141 761 C 161 777 184 788 211 796 C 238 804 267 808 298 808 C 330 808 361 803 391 795 C 420 786 445 773 467 757 C 489 741 506 721 519 698 C 532 674 539 648 539 620 C 539 583 533 554 523 532 C 513 510 502 493 492 483 C 472 476 453 467 435 456 C 417 445 405 433 399 420 C 399 402 411 387 437 375 C 462 363 500 349 550 335 C 612 317 659 295 691 269 C 723 243 739 208 739 164 C 739 136 733 112 722 90 C 711 68 696 50 677 35 C 657 20 634 9 608 1 C 582 -7 553 -11 523 -11 Z" unicode="ß" />
<glyph horiz-adv-x="624" d="M 34 0 L 34 0 Z M 557 0 L 420 0 L 420 66 C 400 42 375 23 343 11 C 311 -1 272 -8 224 -8 C 163 -8 116 6 83 36 C 50 65 34 104 34 153 C 34 217 59 265 109 299 C 159 333 231 352 325 357 L 419 362 L 419 371 C 418 399 409 420 392 435 C 374 449 348 457 312 457 C 279 457 246 451 213 439 C 179 427 147 412 117 394 L 61 491 C 91 514 130 534 176 550 C 222 566 274 574 331 574 C 403 574 458 558 498 526 C 537 494 557 441 557 369 L 557 0 Z M 422 169 L 422 267 L 310 263 C 271 261 240 253 216 238 C 192 223 181 201 181 173 C 181 150 189 132 207 120 C 224 108 247 102 275 102 C 305 102 334 108 360 121 C 386 134 406 150 422 169 Z M 304 605 L 304 605 Z M 439 605 L 299 605 L 170 765 L 335 765 L 439 605 Z" unicode="à" />
<glyph horiz-adv-x="624" d="M 34 0 L 34 0 Z M 557 0 L 420 0 L 420 66 C 400 42 375 23 343 11 C 311 -1 272 -8 224 -8 C 163 -8 116 6 83 36 C 50 65 34 104 34 153 C 34 217 59 265 109 299 C 159 333 231 352 325 357 L 419 362 L 419 371 C 418 399 409 420 392 435 C 374 449 348 457 312 457 C 279 457 246 451 213 439 C 179 427 147 412 117 394 L 61 491 C 91 514 130 534 176 550 C 222 566 274 574 331 574 C 403 574 458 558 498 526 C 537 494 557 441 557 369 L 557 0 Z M 422 169 L 422 267 L 310 263 C 271 261 240 253 216 238 C 192 223 181 201 181 173 C 181 150 189 132 207 120 C 224 108 247 102 275 102 C 305 102 334 108 360 121 C 386 134 406 150 422 169 Z M 304 612 L 304 612 Z M 171 612 L 273 771 L 439 771 L 311 612 L 171 612 Z" unicode="á" />
<glyph horiz-adv-x="624" d="M 34 0 L 34 0 Z M 557 0 L 420 0 L 420 66 C 400 42 375 23 343 11 C 311 -1 272 -8 224 -8 C 163 -8 116 6 83 36 C 50 65 34 104 34 153 C 34 217 59 265 109 299 C 159 333 231 352 325 357 L 419 362 L 419 371 C 418 399 409 420 392 435 C 374 449 348 457 312 457 C 279 457 246 451 213 439 C 179 427 147 412 117 394 L 61 491 C 91 514 130 534 176 550 C 222 566 274 574 331 574 C 403 574 458 558 498 526 C 537 494 557 441 557 369 L 557 0 Z M 422 169 L 422 267 L 310 263 C 271 261 240 253 216 238 C 192 223 181 201 181 173 C 181 150 189 132 207 120 C 224 108 247 102 275 102 C 305 102 334 108 360 121 C 386 134 406 150 422 169 Z M 304 606 L 304 606 Z M 498 606 L 370 606 L 304 697 L 236 606 L 110 606 L 233 779 L 375 779 L 498 606 Z" unicode="â" />
<glyph horiz-adv-x="624" d="M 34 0 L 34 0 Z M 557 0 L 420 0 L 420 66 C 400 42 375 23 343 11 C 311 -1 272 -8 224 -8 C 163 -8 116 6 83 36 C 50 65 34 104 34 153 C 34 217 59 265 109 299 C 159 333 231 352 325 357 L 419 362 L 419 371 C 418 399 409 420 392 435 C 374 449 348 457 312 457 C 279 457 246 451 213 439 C 179 427 147 412 117 394 L 61 491 C 91 514 130 534 176 550 C 222 566 274 574 331 574 C 403 574 458 558 498 526 C 537 494 557 441 557 369 L 557 0 Z M 422 169 L 422 267 L 310 263 C 271 261 240 253 216 238 C 192 223 181 201 181 173 C 181 150 189 132 207 120 C 224 108 247 102 275 102 C 305 102 334 108 360 121 C 386 134 406 150 422 169 Z M 304 608 L 304 608 Z M 383 761 L 495 761 C 495 709 486 670 469 645 C 452 620 429 608 399 608 C 381 608 365 611 351 617 C 337 623 323 629 311 637 C 301 643 291 650 281 657 C 271 664 262 668 252 668 C 243 668 236 663 231 654 C 225 644 222 630 222 612 L 113 612 C 113 637 116 659 122 679 C 128 698 137 714 147 727 C 157 739 169 749 182 755 C 194 761 207 765 219 765 C 237 765 252 762 265 756 C 278 750 290 742 302 734 C 311 727 319 721 327 716 C 335 710 343 708 351 708 C 359 708 367 712 373 721 C 379 729 382 743 383 761 Z" unicode="ã" />
<glyph horiz-adv-x="624" d="M 34 0 L 34 0 Z M 557 0 L 420 0 L 420 66 C 400 42 375 23 343 11 C 311 -1 272 -8 224 -8 C 163 -8 116 6 83 36 C 50 65 34 104 34 153 C 34 217 59 265 109 299 C 159 333 231 352 325 357 L 419 362 L 419 371 C 418 399 409 420 392 435 C 374 449 348 457 312 457 C 279 457 246 451 213 439 C 179 427 147 412 117 394 L 61 491 C 91 514 130 534 176 550 C 222 566 274 574 331 574 C 403 574 458 558 498 526 C 537 494 557 441 557 369 L 557 0 Z M 422 169 L 422 267 L 310 263 C 271 261 240 253 216 238 C 192 223 181 201 181 173 C 181 150 189 132 207 120 C 224 108 247 102 275 102 C 305 102 334 108 360 121 C 386 134 406 150 422 169 Z M 304 606 L 304 606 Z M 462 606 L 345 606 L 345 767 L 462 767 L 462 606 Z M 263 606 L 146 606 L 146 767 L 263 767 L 263 606 Z" unicode="ä" />
<glyph horiz-adv-x="624" d="M 34 0 L 34 0 Z M 557 0 L 420 0 L 420 66 C 400 42 375 23 343 11 C 311 -1 272 -8 224 -8 C 163 -8 116 6 83 36 C 50 65 34 104 34 153 C 34 217 59 265 109 299 C 159 333 231 352 325 357 L 419 362 L 419 371 C 418 399 409 420 392 435 C 374 449 348 457 312 457 C 279 457 246 451 213 439 C 179 427 147 412 117 394 L 61 491 C 91 514 130 534 176 550 C 222 566 274 574 331 574 C 403 574 458 558 498 526 C 537 494 557 441 557 369 L 557 0 Z M 422 169 L 422 267 L 310 263 C 271 261 240 253 216 238 C 192 223 181 201 181 173 C 181 150 189 132 207 120 C 224 108 247 102 275 102 C 305 102 334 108 360 121 C 386 134 406 150 422 169 Z M 304 603 L 304 603 Z M 304 603 C 269 603 239 615 215 640 C 190 664 178 694 178 730 C 178 764 190 794 215 819 C 239 843 269 856 304 856 C 339 856 369 843 394 819 C 418 794 431 764 431 730 C 431 694 418 664 394 640 C 369 615 339 603 304 603 Z M 304 680 C 318 680 329 684 339 694 C 348 703 353 715 353 730 C 353 743 348 755 339 765 C 329 775 318 780 304 780 C 290 780 279 775 269 765 C 259 755 255 743 255 730 C 255 715 259 703 269 694 C 279 684 290 680 304 680 Z" unicode="å" />
<glyph horiz-adv-x="1018" d="M 706 -11 C 648 -11 599 0 557 23 C 515 45 487 71 473 101 C 453 74 422 49 380 26 C 338 3 288 -8 230 -8 C 171 -8 125 6 92 36 C 59 65 43 104 43 153 C 43 217 68 266 119 299 C 169 331 241 350 335 356 L 429 362 L 429 371 C 428 396 419 417 401 433 C 383 449 357 457 321 457 C 288 457 255 451 221 439 C 187 427 155 412 125 394 L 70 491 C 101 514 138 534 180 550 C 222 566 266 574 312 574 C 364 574 405 566 435 550 C 465 534 487 511 501 483 C 516 503 541 523 576 543 C 610 562 652 572 701 572 C 786 572 853 542 903 484 C 953 425 978 342 979 236 L 554 236 C 554 203 568 174 595 148 C 622 122 659 110 705 110 C 749 110 782 117 805 132 C 828 146 847 161 861 177 L 945 86 C 919 58 888 34 851 16 C 814 -1 766 -11 706 -11 Z M 556 331 L 833 331 C 831 365 817 394 793 418 C 769 442 737 454 697 454 C 657 454 624 441 599 417 C 573 392 559 363 556 331 Z M 281 102 C 315 102 345 111 371 131 C 396 151 416 170 432 190 L 432 266 L 319 261 C 281 259 250 252 226 240 C 202 227 191 205 191 175 C 191 151 199 133 216 121 C 232 108 254 102 281 102 Z" unicode="æ" />
<glyph horiz-adv-x="606" d="M 39 0 L 39 0 Z M 472 199 L 582 123 C 571 106 558 89 543 73 C 527 57 509 42 489 30 C 469 18 445 8 418 0 C 391 -7 361 -11 327 -11 C 287 -11 249 -4 214 8 C 178 20 148 39 122 64 C 96 88 76 119 61 155 C 46 191 39 233 39 279 C 39 323 46 363 61 399 C 76 435 97 465 123 491 C 149 517 180 537 216 551 C 252 565 291 572 333 572 C 368 572 399 567 427 558 C 454 549 478 537 498 523 C 518 508 535 491 548 472 C 561 453 571 434 578 414 L 457 361 C 446 385 431 405 411 422 C 391 438 363 447 328 447 C 284 447 249 431 223 400 C 197 368 184 329 184 281 C 184 227 197 185 224 157 C 250 129 286 115 332 115 C 370 115 399 123 421 141 C 443 159 460 178 472 199 Z M 324 -7 L 324 -7 Z M 333 -200 C 306 -200 279 -197 252 -191 C 224 -185 204 -177 190 -168 L 207 -109 C 215 -112 227 -116 241 -120 C 255 -124 270 -127 286 -127 C 296 -127 305 -124 313 -120 C 321 -116 325 -110 325 -102 C 325 -93 321 -87 314 -83 C 307 -79 300 -78 292 -78 C 286 -78 280 -78 276 -79 C 271 -80 266 -81 262 -83 L 245 -65 L 306 7 L 390 7 L 343 -50 C 376 -46 403 -50 425 -64 C 446 -78 457 -97 457 -122 C 457 -148 444 -168 419 -181 C 393 -193 365 -200 333 -200 Z" unicode="ç" />
<glyph horiz-adv-x="645" d="M 39 0 L 39 0 Z M 333 -11 C 290 -11 250 -4 214 8 C 178 20 147 39 121 64 C 95 88 75 118 61 154 C 46 190 39 231 39 277 C 39 319 46 358 61 394 C 75 430 95 462 121 488 C 147 514 177 534 213 549 C 249 564 287 572 329 572 C 414 572 481 542 531 484 C 581 425 606 342 607 235 L 181 235 C 181 219 185 204 192 189 C 199 174 209 161 221 149 C 233 137 249 128 267 121 C 285 113 307 110 331 110 C 371 110 403 116 428 130 C 453 143 473 158 488 176 L 573 86 C 547 58 515 34 478 16 C 441 -1 393 -11 333 -11 Z M 181 331 L 460 331 C 458 367 445 396 420 419 C 395 442 363 454 324 454 C 284 454 251 441 225 416 C 199 391 185 363 181 331 Z M 325 605 L 325 605 Z M 460 605 L 320 605 L 191 765 L 356 765 L 460 605 Z" unicode="è" />
<glyph horiz-adv-x="645" d="M 39 0 L 39 0 Z M 333 -11 C 290 -11 250 -4 214 8 C 178 20 147 39 121 64 C 95 88 75 118 61 154 C 46 190 39 231 39 277 C 39 319 46 358 61 394 C 75 430 95 462 121 488 C 147 514 177 534 213 549 C 249 564 287 572 329 572 C 414 572 481 542 531 484 C 581 425 606 342 607 235 L 181 235 C 181 219 185 204 192 189 C 199 174 209 161 221 149 C 233 137 249 128 267 121 C 285 113 307 110 331 110 C 371 110 403 116 428 130 C 453 143 473 158 488 176 L 573 86 C 547 58 515 34 478 16 C 441 -1 393 -11 333 -11 Z M 181 331 L 460 331 C 458 367 445 396 420 419 C 395 442 363 454 324 454 C 284 454 251 441 225 416 C 199 391 185 363 181 331 Z M 325 612 L 325 612 Z M 192 612 L 294 771 L 460 771 L 332 612 L 192 612 Z" unicode="é" />
<glyph horiz-adv-x="645" d="M 39 0 L 39 0 Z M 333 -11 C 290 -11 250 -4 214 8 C 178 20 147 39 121 64 C 95 88 75 118 61 154 C 46 190 39 231 39 277 C 39 319 46 358 61 394 C 75 430 95 462 121 488 C 147 514 177 534 213 549 C 249 564 287 572 329 572 C 414 572 481 542 531 484 C 581 425 606 342 607 235 L 181 235 C 181 219 185 204 192 189 C 199 174 209 161 221 149 C 233 137 249 128 267 121 C 285 113 307 110 331 110 C 371 110 403 116 428 130 C 453 143 473 158 488 176 L 573 86 C 547 58 515 34 478 16 C 441 -1 393 -11 333 -11 Z M 181 331 L 460 331 C 458 367 445 396 420 419 C 395 442 363 454 324 454 C 284 454 251 441 225 416 C 199 391 185 363 181 331 Z M 325 606 L 325 606 Z M 519 606 L 391 606 L 325 697 L 257 606 L 131 606 L 254 779 L 396 779 L 519 606 Z" unicode="ê" />
<glyph horiz-adv-x="645" d="M 39 0 L 39 0 Z M 333 -11 C 290 -11 250 -4 214 8 C 178 20 147 39 121 64 C 95 88 75 118 61 154 C 46 190 39 231 39 277 C 39 319 46 358 61 394 C 75 430 95 462 121 488 C 147 514 177 534 213 549 C 249 564 287 572 329 572 C 414 572 481 542 531 484 C 581 425 606 342 607 235 L 181 235 C 181 219 185 204 192 189 C 199 174 209 161 221 149 C 233 137 249 128 267 121 C 285 113 307 110 331 110 C 371 110 403 116 428 130 C 453 143 473 158 488 176 L 573 86 C 547 58 515 34 478 16 C 441 -1 393 -11 333 -11 Z M 181 331 L 460 331 C 458 367 445 396 420 419 C 395 442 363 454 324 454 C 284 454 251 441 225 416 C 199 391 185 363 181 331 Z M 325 606 L 325 606 Z M 483 606 L 366 606 L 366 767 L 483 767 L 483 606 Z M 284 606 L 167 606 L 167 767 L 284 767 L 284 606 Z" unicode="ë" />
<glyph horiz-adv-x="305" d="M 18 0 L 18 0 Z M 224 0 L 82 0 L 82 559 L 224 559 L 224 0 Z M 152 605 L 152 605 Z M 287 605 L 147 605 L 18 765 L 183 765 L 287 605 Z" unicode="ì" />
<glyph horiz-adv-x="305" d="M 19 0 L 19 0 Z M 224 0 L 82 0 L 82 559 L 224 559 L 224 0 Z M 152 612 L 152 612 Z M 19 612 L 121 771 L 287 771 L 159 612 L 19 612 Z" unicode="í" />
<glyph horiz-adv-x="305" d="M 0 0 L 0 0 Z M 224 0 L 82 0 L 82 559 L 224 559 L 224 0 Z M 152 606 L 152 606 Z M 346 606 L 218 606 L 152 697 L 84 606 L -42 606 L 81 779 L 223 779 L 346 606 Z" unicode="î" />
<glyph horiz-adv-x="305" d="M 0 0 L 0 0 Z M 224 0 L 82 0 L 82 559 L 224 559 L 224 0 Z M 152 606 L 152 606 Z M 310 606 L 193 606 L 193 767 L 310 767 L 310 606 Z M 111 606 L -6 606 L -6 767 L 111 767 L 111 606 Z" unicode="ï" />
<glyph horiz-adv-x="666" d="M 619 312 C 619 268 612 226 600 187 C 588 147 570 113 546 84 C 522 54 491 31 455 14 C 418 -2 376 -11 328 -11 C 286 -11 248 -4 213 8 C 177 20 147 38 122 62 C 96 85 76 114 62 148 C 47 182 40 221 40 264 C 40 302 47 339 62 373 C 77 407 97 436 121 461 C 145 486 172 506 204 521 C 236 535 268 543 301 543 C 336 543 369 535 401 519 C 432 503 455 484 471 462 C 466 500 457 534 445 565 C 433 595 418 623 402 647 L 261 600 L 238 662 L 357 702 C 344 714 331 726 318 736 C 305 746 293 755 281 762 L 414 801 C 422 796 432 789 443 779 C 453 769 465 756 477 742 L 554 768 L 576 706 L 517 686 C 543 644 567 591 588 527 C 608 463 619 392 619 312 Z M 332 108 C 382 108 419 123 445 153 C 471 183 484 223 484 274 C 484 324 471 363 445 391 C 419 418 382 432 334 432 C 288 432 251 417 225 387 C 198 357 185 318 185 272 C 185 222 198 183 226 153 C 253 123 288 108 332 108 Z" unicode="ð" />
<glyph horiz-adv-x="657" d="M 78 0 L 78 0 Z M 585 0 L 444 0 L 444 370 C 444 396 434 415 415 429 C 396 443 374 450 348 450 C 332 450 316 447 301 443 C 285 438 272 431 260 423 C 248 414 238 403 230 389 C 222 375 219 360 219 343 L 219 0 L 78 0 L 78 559 L 202 559 L 202 456 C 213 490 236 517 270 539 C 304 561 346 572 395 572 C 420 572 444 568 468 560 C 491 552 511 542 528 528 C 545 514 559 498 569 479 C 579 460 585 439 585 416 L 585 0 Z M 356 608 L 356 608 Z M 435 761 L 547 761 C 547 709 538 670 521 645 C 504 620 481 608 451 608 C 433 608 417 611 403 617 C 389 623 375 629 363 637 C 353 643 343 650 333 657 C 323 664 314 668 304 668 C 295 668 288 663 283 654 C 277 644 274 630 274 612 L 165 612 C 165 637 168 659 174 679 C 180 698 189 714 199 727 C 209 739 221 749 234 755 C 246 761 259 765 271 765 C 289 765 304 762 317 756 C 330 750 342 742 354 734 C 363 727 371 721 379 716 C 387 710 395 708 403 708 C 411 708 419 712 425 721 C 431 729 434 743 435 761 Z" unicode="ñ" />
<glyph horiz-adv-x="670" d="M 39 0 L 39 0 Z M 331 -11 C 293 -11 257 -4 222 7 C 186 19 155 38 128 62 C 101 86 79 117 63 153 C 47 189 39 230 39 278 C 39 320 47 360 63 396 C 79 432 101 463 128 489 C 154 515 185 535 221 550 C 256 564 293 572 331 572 C 372 572 411 565 448 553 C 484 540 516 522 543 498 C 570 474 591 445 607 411 C 623 376 631 337 631 294 C 631 248 622 206 606 168 C 590 130 568 98 541 72 C 513 45 481 24 445 10 C 409 -3 371 -11 331 -11 Z M 334 114 C 380 114 417 130 445 162 C 472 194 486 235 486 287 C 486 335 471 373 443 402 C 414 430 376 445 330 445 C 285 445 250 429 224 398 C 198 367 185 327 185 277 C 185 224 199 184 228 156 C 256 128 292 114 334 114 Z M 333 605 L 333 605 Z M 468 605 L 328 605 L 199 765 L 364 765 L 468 605 Z" unicode="ò" />
<glyph horiz-adv-x="670" d="M 39 0 L 39 0 Z M 331 -11 C 293 -11 257 -4 222 7 C 186 19 155 38 128 62 C 101 86 79 117 63 153 C 47 189 39 230 39 278 C 39 320 47 360 63 396 C 79 432 101 463 128 489 C 154 515 185 535 221 550 C 256 564 293 572 331 572 C 372 572 411 565 448 553 C 484 540 516 522 543 498 C 570 474 591 445 607 411 C 623 376 631 337 631 294 C 631 248 622 206 606 168 C 590 130 568 98 541 72 C 513 45 481 24 445 10 C 409 -3 371 -11 331 -11 Z M 334 114 C 380 114 417 130 445 162 C 472 194 486 235 486 287 C 486 335 471 373 443 402 C 414 430 376 445 330 445 C 285 445 250 429 224 398 C 198 367 185 327 185 277 C 185 224 199 184 228 156 C 256 128 292 114 334 114 Z M 333 612 L 333 612 Z M 200 612 L 302 771 L 468 771 L 340 612 L 200 612 Z" unicode="ó" />
<glyph horiz-adv-x="670" d="M 39 0 L 39 0 Z M 331 -11 C 293 -11 257 -4 222 7 C 186 19 155 38 128 62 C 101 86 79 117 63 153 C 47 189 39 230 39 278 C 39 320 47 360 63 396 C 79 432 101 463 128 489 C 154 515 185 535 221 550 C 256 564 293 572 331 572 C 372 572 411 565 448 553 C 484 540 516 522 543 498 C 570 474 591 445 607 411 C 623 376 631 337 631 294 C 631 248 622 206 606 168 C 590 130 568 98 541 72 C 513 45 481 24 445 10 C 409 -3 371 -11 331 -11 Z M 334 114 C 380 114 417 130 445 162 C 472 194 486 235 486 287 C 486 335 471 373 443 402 C 414 430 376 445 330 445 C 285 445 250 429 224 398 C 198 367 185 327 185 277 C 185 224 199 184 228 156 C 256 128 292 114 334 114 Z M 333 606 L 333 606 Z M 527 606 L 399 606 L 333 697 L 265 606 L 139 606 L 262 779 L 404 779 L 527 606 Z" unicode="ô" />
<glyph horiz-adv-x="670" d="M 39 0 L 39 0 Z M 331 -11 C 293 -11 257 -4 222 7 C 186 19 155 38 128 62 C 101 86 79 117 63 153 C 47 189 39 230 39 278 C 39 320 47 360 63 396 C 79 432 101 463 128 489 C 154 515 185 535 221 550 C 256 564 293 572 331 572 C 372 572 411 565 448 553 C 484 540 516 522 543 498 C 570 474 591 445 607 411 C 623 376 631 337 631 294 C 631 248 622 206 606 168 C 590 130 568 98 541 72 C 513 45 481 24 445 10 C 409 -3 371 -11 331 -11 Z M 334 114 C 380 114 417 130 445 162 C 472 194 486 235 486 287 C 486 335 471 373 443 402 C 414 430 376 445 330 445 C 285 445 250 429 224 398 C 198 367 185 327 185 277 C 185 224 199 184 228 156 C 256 128 292 114 334 114 Z M 333 608 L 333 608 Z M 412 761 L 524 761 C 524 709 515 670 498 645 C 481 620 458 608 428 608 C 410 608 394 611 380 617 C 366 623 352 629 340 637 C 330 643 320 650 310 657 C 300 664 291 668 281 668 C 272 668 265 663 260 654 C 254 644 251 630 251 612 L 142 612 C 142 637 145 659 151 679 C 157 698 166 714 176 727 C 186 739 198 749 211 755 C 223 761 236 765 248 765 C 266 765 281 762 294 756 C 307 750 319 742 331 734 C 340 727 348 721 356 716 C 364 710 372 708 380 708 C 388 708 396 712 402 721 C 408 729 411 743 412 761 Z" unicode="õ" />
<glyph horiz-adv-x="670" d="M 39 0 L 39 0 Z M 331 -11 C 293 -11 257 -4 222 7 C 186 19 155 38 128 62 C 101 86 79 117 63 153 C 47 189 39 230 39 278 C 39 320 47 360 63 396 C 79 432 101 463 128 489 C 154 515 185 535 221 550 C 256 564 293 572 331 572 C 372 572 411 565 448 553 C 484 540 516 522 543 498 C 570 474 591 445 607 411 C 623 376 631 337 631 294 C 631 248 622 206 606 168 C 590 130 568 98 541 72 C 513 45 481 24 445 10 C 409 -3 371 -11 331 -11 Z M 334 114 C 380 114 417 130 445 162 C 472 194 486 235 486 287 C 486 335 471 373 443 402 C 414 430 376 445 330 445 C 285 445 250 429 224 398 C 198 367 185 327 185 277 C 185 224 199 184 228 156 C 256 128 292 114 334 114 Z M 333 606 L 333 606 Z M 491 606 L 374 606 L 374 767 L 491 767 L 491 606 Z M 292 606 L 175 606 L 175 767 L 292 767 L 292 606 Z" unicode="ö" />
<glyph horiz-adv-x="500" d="M 185 449 L 185 579 L 315 579 L 315 449 L 185 449 Z M 21 271 L 21 389 L 479 389 L 479 271 L 21 271 Z M 185 81 L 185 211 L 315 211 L 315 81 L 185 81 Z" unicode="÷" />
<glyph horiz-adv-x="670" d="M 331 -11 C 297 -11 265 -6 233 4 C 201 14 173 28 147 47 L 80 -20 L 24 34 L 92 102 C 75 124 62 150 53 180 C 43 210 39 242 39 278 C 39 320 47 360 63 396 C 79 432 101 463 128 489 C 154 515 185 535 221 550 C 256 564 293 572 331 572 C 365 572 397 567 428 559 C 459 551 487 538 512 522 L 581 591 L 637 537 L 571 471 C 589 448 604 422 615 392 C 625 362 631 330 631 294 C 631 248 622 206 606 168 C 590 130 568 98 541 72 C 513 45 481 24 445 10 C 409 -3 371 -11 331 -11 Z M 185 277 C 185 263 186 251 188 239 C 190 227 193 217 197 207 L 414 424 C 402 430 389 435 375 439 C 361 443 346 445 330 445 C 285 445 250 429 224 398 C 198 367 185 327 185 277 Z M 486 287 C 486 302 484 316 481 330 C 478 344 474 356 468 368 L 243 143 C 255 133 269 126 285 121 C 300 116 316 114 334 114 C 380 114 417 130 445 162 C 472 194 486 235 486 287 Z" unicode="ø" />
<glyph horiz-adv-x="657" d="M 72 0 L 72 0 Z M 72 559 L 213 559 L 213 209 C 213 173 223 146 243 130 C 263 114 290 106 324 106 C 357 106 384 115 405 135 C 426 155 437 181 437 214 L 437 559 L 578 559 L 578 0 L 451 0 L 451 98 C 441 69 421 43 389 21 C 357 -1 317 -13 267 -13 C 240 -13 215 -9 191 -1 C 167 6 146 17 129 31 C 111 45 97 63 87 84 C 77 105 72 129 72 157 L 72 559 Z M 326 605 L 326 605 Z M 461 605 L 321 605 L 192 765 L 357 765 L 461 605 Z" unicode="ù" />
<glyph horiz-adv-x="657" d="M 72 0 L 72 0 Z M 72 559 L 213 559 L 213 209 C 213 173 223 146 243 130 C 263 114 290 106 324 106 C 357 106 384 115 405 135 C 426 155 437 181 437 214 L 437 559 L 578 559 L 578 0 L 451 0 L 451 98 C 441 69 421 43 389 21 C 357 -1 317 -13 267 -13 C 240 -13 215 -9 191 -1 C 167 6 146 17 129 31 C 111 45 97 63 87 84 C 77 105 72 129 72 157 L 72 559 Z M 326 612 L 326 612 Z M 193 612 L 295 771 L 461 771 L 333 612 L 193 612 Z" unicode="ú" />
<glyph horiz-adv-x="657" d="M 72 0 L 72 0 Z M 72 559 L 213 559 L 213 209 C 213 173 223 146 243 130 C 263 114 290 106 324 106 C 357 106 384 115 405 135 C 426 155 437 181 437 214 L 437 559 L 578 559 L 578 0 L 451 0 L 451 98 C 441 69 421 43 389 21 C 357 -1 317 -13 267 -13 C 240 -13 215 -9 191 -1 C 167 6 146 17 129 31 C 111 45 97 63 87 84 C 77 105 72 129 72 157 L 72 559 Z M 326 606 L 326 606 Z M 520 606 L 392 606 L 326 697 L 258 606 L 132 606 L 255 779 L 397 779 L 520 606 Z" unicode="û" />
<glyph horiz-adv-x="657" d="M 72 0 L 72 0 Z M 72 559 L 213 559 L 213 209 C 213 173 223 146 243 130 C 263 114 290 106 324 106 C 357 106 384 115 405 135 C 426 155 437 181 437 214 L 437 559 L 578 559 L 578 0 L 451 0 L 451 98 C 441 69 421 43 389 21 C 357 -1 317 -13 267 -13 C 240 -13 215 -9 191 -1 C 167 6 146 17 129 31 C 111 45 97 63 87 84 C 77 105 72 129 72 157 L 72 559 Z M 326 606 L 326 606 Z M 484 606 L 367 606 L 367 767 L 484 767 L 484 606 Z M 285 606 L 168 606 L 168 767 L 285 767 L 285 606 Z" unicode="ü" />
<glyph horiz-adv-x="591" d="M 0 0 L 0 0 Z M 597 559 L 306 -65 C 294 -90 279 -111 263 -129 C 246 -146 228 -160 209 -170 C 190 -180 171 -188 151 -193 C 131 -197 111 -200 93 -200 C 72 -200 55 -197 41 -193 C 27 -188 17 -184 11 -182 L 52 -67 C 56 -69 62 -72 71 -74 C 79 -76 89 -78 99 -78 C 117 -78 132 -72 146 -62 C 160 -51 173 -34 186 -11 L 221 54 L -7 559 L 145 559 L 296 212 L 452 559 L 597 559 Z M 296 612 L 296 612 Z M 163 612 L 265 771 L 431 771 L 303 612 L 163 612 Z" unicode="ý" />
<glyph horiz-adv-x="683" d="M 78 -197 L 78 800 L 218 800 L 218 466 C 226 490 246 514 277 536 C 307 558 349 570 402 570 C 436 570 467 564 497 552 C 527 540 552 522 574 498 C 596 474 613 445 625 410 C 637 374 644 334 644 288 C 644 241 637 199 624 163 C 611 127 593 96 571 71 C 548 46 521 27 490 14 C 459 1 426 -5 391 -5 C 349 -5 313 4 283 23 C 252 41 231 65 219 93 L 219 -197 L 78 -197 Z M 358 114 C 397 114 430 129 458 160 C 486 191 500 233 500 287 C 500 333 488 372 465 404 C 441 435 407 451 361 451 C 315 451 278 437 252 409 C 225 381 212 338 212 282 C 212 221 225 178 252 152 C 279 126 314 114 358 114 Z" unicode="þ" />
<glyph horiz-adv-x="591" d="M 0 0 L 0 0 Z M 597 559 L 306 -65 C 294 -90 279 -111 263 -129 C 246 -146 228 -160 209 -170 C 190 -180 171 -188 151 -193 C 131 -197 111 -200 93 -200 C 72 -200 55 -197 41 -193 C 27 -188 17 -184 11 -182 L 52 -67 C 56 -69 62 -72 71 -74 C 79 -76 89 -78 99 -78 C 117 -78 132 -72 146 -62 C 160 -51 173 -34 186 -11 L 221 54 L -7 559 L 145 559 L 296 212 L 452 559 L 597 559 Z M 296 606 L 296 606 Z M 454 606 L 337 606 L 337 767 L 454 767 L 454 606 Z M 255 606 L 138 606 L 138 767 L 255 767 L 255 606 Z" unicode="ÿ" />
<glyph horiz-adv-x="677" d="M 0 0 L 0 0 Z M 680 0 L 520 0 L 464 141 L 198 141 L 146 0 L -3 0 L 293 732 L 393 732 L 680 0 Z M 432 249 L 331 511 L 231 249 L 432 249 Z M 334 781 L 334 781 Z M 477 781 L 191 781 L 191 892 L 477 892 L 477 781 Z" unicode="Ā" />
<glyph horiz-adv-x="624" d="M 34 0 L 34 0 Z M 557 0 L 420 0 L 420 66 C 400 42 375 23 343 11 C 311 -1 272 -8 224 -8 C 163 -8 116 6 83 36 C 50 65 34 104 34 153 C 34 217 59 265 109 299 C 159 333 231 352 325 357 L 419 362 L 419 371 C 418 399 409 420 392 435 C 374 449 348 457 312 457 C 279 457 246 451 213 439 C 179 427 147 412 117 394 L 61 491 C 91 514 130 534 176 550 C 222 566 274 574 331 574 C 403 574 458 558 498 526 C 537 494 557 441 557 369 L 557 0 Z M 422 169 L 422 267 L 310 263 C 271 261 240 253 216 238 C 192 223 181 201 181 173 C 181 150 189 132 207 120 C 224 108 247 102 275 102 C 305 102 334 108 360 121 C 386 134 406 150 422 169 Z M 304 610 L 304 610 Z M 447 610 L 161 610 L 161 721 L 447 721 L 447 610 Z" unicode="ā" />
<glyph horiz-adv-x="677" d="M 0 0 L 0 0 Z M 680 0 L 520 0 L 464 141 L 198 141 L 146 0 L -3 0 L 293 732 L 393 732 L 680 0 Z M 432 249 L 331 511 L 231 249 L 432 249 Z M 334 777 L 334 777 Z M 393 939 L 508 939 C 503 883 485 842 453 816 C 421 790 381 777 334 777 C 286 777 247 790 215 816 C 183 842 164 883 160 939 L 275 939 C 276 914 281 895 291 881 C 300 867 314 860 334 860 C 353 860 367 866 377 880 C 386 893 391 913 393 939 Z" unicode="Ă" />
<glyph horiz-adv-x="624" d="M 34 0 L 34 0 Z M 557 0 L 420 0 L 420 66 C 400 42 375 23 343 11 C 311 -1 272 -8 224 -8 C 163 -8 116 6 83 36 C 50 65 34 104 34 153 C 34 217 59 265 109 299 C 159 333 231 352 325 357 L 419 362 L 419 371 C 418 399 409 420 392 435 C 374 449 348 457 312 457 C 279 457 246 451 213 439 C 179 427 147 412 117 394 L 61 491 C 91 514 130 534 176 550 C 222 566 274 574 331 574 C 403 574 458 558 498 526 C 537 494 557 441 557 369 L 557 0 Z M 422 169 L 422 267 L 310 263 C 271 261 240 253 216 238 C 192 223 181 201 181 173 C 181 150 189 132 207 120 C 224 108 247 102 275 102 C 305 102 334 108 360 121 C 386 134 406 150 422 169 Z M 304 606 L 304 606 Z M 363 768 L 478 768 C 473 712 455 671 423 645 C 391 619 351 606 304 606 C 256 606 217 619 185 645 C 153 671 134 712 130 768 L 245 768 C 246 743 251 724 261 710 C 270 696 284 689 304 689 C 323 689 337 695 347 709 C 356 722 361 742 363 768 Z" unicode="ă" />
<glyph horiz-adv-x="677" d="M 0 0 L 0 0 Z M 680 0 L 520 0 L 464 141 L 198 141 L 146 0 L -3 0 L 293 732 L 393 732 L 680 0 Z M 432 249 L 331 511 L 231 249 L 432 249 Z M 546 -4 L 546 -4 Z M 646 -72 L 682 -129 C 660 -152 636 -169 611 -181 C 585 -192 557 -198 525 -198 C 489 -198 460 -190 440 -176 C 420 -161 410 -142 410 -119 C 410 -95 419 -73 439 -51 C 459 -29 485 -11 519 4 L 591 4 C 570 -6 554 -17 543 -29 C 532 -41 527 -52 527 -63 C 527 -73 531 -82 540 -88 C 548 -94 559 -98 572 -98 C 587 -98 601 -95 614 -90 C 626 -85 637 -79 646 -72 Z" unicode="Ą" />
<glyph horiz-adv-x="624" d="M 34 0 L 34 0 Z M 557 0 L 420 0 L 420 66 C 400 42 375 23 343 11 C 311 -1 272 -8 224 -8 C 163 -8 116 6 83 36 C 50 65 34 104 34 153 C 34 217 59 265 109 299 C 159 333 231 352 325 357 L 419 362 L 419 371 C 418 399 409 420 392 435 C 374 449 348 457 312 457 C 279 457 246 451 213 439 C 179 427 147 412 117 394 L 61 491 C 91 514 130 534 176 550 C 222 566 274 574 331 574 C 403 574 458 558 498 526 C 537 494 557 441 557 369 L 557 0 Z M 422 169 L 422 267 L 310 263 C 271 261 240 253 216 238 C 192 223 181 201 181 173 C 181 150 189 132 207 120 C 224 108 247 102 275 102 C 305 102 334 108 360 121 C 386 134 406 150 422 169 Z M 447 -4 L 447 -4 Z M 547 -72 L 583 -129 C 561 -152 537 -169 512 -181 C 486 -192 458 -198 426 -198 C 390 -198 361 -190 341 -176 C 321 -161 311 -142 311 -119 C 311 -95 320 -73 340 -51 C 360 -29 386 -11 420 4 L 492 4 C 471 -6 455 -17 444 -29 C 433 -41 428 -52 428 -63 C 428 -73 432 -82 441 -88 C 449 -94 460 -98 473 -98 C 488 -98 502 -95 515 -90 C 527 -85 538 -79 547 -72 Z" unicode="ą" />
<glyph horiz-adv-x="741" d="M 43 0 L 43 0 Z M 404 -12 C 354 -12 307 -3 263 14 C 219 32 180 57 148 89 C 116 121 90 161 71 208 C 52 254 43 307 43 365 C 43 421 52 472 70 519 C 88 565 114 605 146 638 C 178 670 217 696 261 714 C 305 732 353 742 405 742 C 471 742 529 732 579 712 C 629 692 670 659 704 614 L 593 523 C 572 547 547 567 518 582 C 488 597 452 605 408 605 C 338 605 285 583 249 540 C 212 497 194 441 194 372 C 194 328 200 291 213 259 C 226 227 243 201 264 181 C 285 161 309 146 337 136 C 364 126 392 121 422 121 C 466 121 503 129 534 147 C 565 165 590 189 610 219 L 719 144 C 693 101 653 64 600 34 C 546 3 481 -12 404 -12 Z M 407 783 L 407 783 Z M 274 783 L 376 942 L 542 942 L 414 783 L 274 783 Z" unicode="Ć" />
<glyph horiz-adv-x="606" d="M 39 0 L 39 0 Z M 472 199 L 582 123 C 571 106 558 89 543 73 C 527 57 509 42 489 30 C 469 18 445 8 418 0 C 391 -7 361 -11 327 -11 C 287 -11 249 -4 214 8 C 178 20 148 39 122 64 C 96 88 76 119 61 155 C 46 191 39 233 39 279 C 39 323 46 363 61 399 C 76 435 97 465 123 491 C 149 517 180 537 216 551 C 252 565 291 572 333 572 C 368 572 399 567 427 558 C 454 549 478 537 498 523 C 518 508 535 491 548 472 C 561 453 571 434 578 414 L 457 361 C 446 385 431 405 411 422 C 391 438 363 447 328 447 C 284 447 249 431 223 400 C 197 368 184 329 184 281 C 184 227 197 185 224 157 C 250 129 286 115 332 115 C 370 115 399 123 421 141 C 443 159 460 178 472 199 Z M 330 612 L 330 612 Z M 197 612 L 299 771 L 465 771 L 337 612 L 197 612 Z" unicode="ć" />
<glyph horiz-adv-x="741" d="M 43 0 L 43 0 Z M 404 -12 C 354 -12 307 -3 263 14 C 219 32 180 57 148 89 C 116 121 90 161 71 208 C 52 254 43 307 43 365 C 43 421 52 472 70 519 C 88 565 114 605 146 638 C 178 670 217 696 261 714 C 305 732 353 742 405 742 C 471 742 529 732 579 712 C 629 692 670 659 704 614 L 593 523 C 572 547 547 567 518 582 C 488 597 452 605 408 605 C 338 605 285 583 249 540 C 212 497 194 441 194 372 C 194 328 200 291 213 259 C 226 227 243 201 264 181 C 285 161 309 146 337 136 C 364 126 392 121 422 121 C 466 121 503 129 534 147 C 565 165 590 189 610 219 L 719 144 C 693 101 653 64 600 34 C 546 3 481 -12 404 -12 Z M 407 777 L 407 777 Z M 601 777 L 473 777 L 407 868 L 339 777 L 213 777 L 336 950 L 478 950 L 601 777 Z" unicode="Ĉ" />
<glyph horiz-adv-x="606" d="M 39 0 L 39 0 Z M 472 199 L 582 123 C 571 106 558 89 543 73 C 527 57 509 42 489 30 C 469 18 445 8 418 0 C 391 -7 361 -11 327 -11 C 287 -11 249 -4 214 8 C 178 20 148 39 122 64 C 96 88 76 119 61 155 C 46 191 39 233 39 279 C 39 323 46 363 61 399 C 76 435 97 465 123 491 C 149 517 180 537 216 551 C 252 565 291 572 333 572 C 368 572 399 567 427 558 C 454 549 478 537 498 523 C 518 508 535 491 548 472 C 561 453 571 434 578 414 L 457 361 C 446 385 431 405 411 422 C 391 438 363 447 328 447 C 284 447 249 431 223 400 C 197 368 184 329 184 281 C 184 227 197 185 224 157 C 250 129 286 115 332 115 C 370 115 399 123 421 141 C 443 159 460 178 472 199 Z M 330 606 L 330 606 Z M 524 606 L 396 606 L 330 697 L 262 606 L 136 606 L 259 779 L 401 779 L 524 606 Z" unicode="ĉ" />
<glyph horiz-adv-x="741" d="M 43 0 L 43 0 Z M 404 -12 C 354 -12 307 -3 263 14 C 219 32 180 57 148 89 C 116 121 90 161 71 208 C 52 254 43 307 43 365 C 43 421 52 472 70 519 C 88 565 114 605 146 638 C 178 670 217 696 261 714 C 305 732 353 742 405 742 C 471 742 529 732 579 712 C 629 692 670 659 704 614 L 593 523 C 572 547 547 567 518 582 C 488 597 452 605 408 605 C 338 605 285 583 249 540 C 212 497 194 441 194 372 C 194 328 200 291 213 259 C 226 227 243 201 264 181 C 285 161 309 146 337 136 C 364 126 392 121 422 121 C 466 121 503 129 534 147 C 565 165 590 189 610 219 L 719 144 C 693 101 653 64 600 34 C 546 3 481 -12 404 -12 Z M 407 777 L 407 777 Z M 470 777 L 345 777 L 345 942 L 470 942 L 470 777 Z" unicode="Ċ" />
<glyph horiz-adv-x="606" d="M 39 0 L 39 0 Z M 472 199 L 582 123 C 571 106 558 89 543 73 C 527 57 509 42 489 30 C 469 18 445 8 418 0 C 391 -7 361 -11 327 -11 C 287 -11 249 -4 214 8 C 178 20 148 39 122 64 C 96 88 76 119 61 155 C 46 191 39 233 39 279 C 39 323 46 363 61 399 C 76 435 97 465 123 491 C 149 517 180 537 216 551 C 252 565 291 572 333 572 C 368 572 399 567 427 558 C 454 549 478 537 498 523 C 518 508 535 491 548 472 C 561 453 571 434 578 414 L 457 361 C 446 385 431 405 411 422 C 391 438 363 447 328 447 C 284 447 249 431 223 400 C 197 368 184 329 184 281 C 184 227 197 185 224 157 C 250 129 286 115 332 115 C 370 115 399 123 421 141 C 443 159 460 178 472 199 Z M 330 606 L 330 606 Z M 393 606 L 268 606 L 268 771 L 393 771 L 393 606 Z" unicode="ċ" />
<glyph horiz-adv-x="741" d="M 43 0 L 43 0 Z M 404 -12 C 354 -12 307 -3 263 14 C 219 32 180 57 148 89 C 116 121 90 161 71 208 C 52 254 43 307 43 365 C 43 421 52 472 70 519 C 88 565 114 605 146 638 C 178 670 217 696 261 714 C 305 732 353 742 405 742 C 471 742 529 732 579 712 C 629 692 670 659 704 614 L 593 523 C 572 547 547 567 518 582 C 488 597 452 605 408 605 C 338 605 285 583 249 540 C 212 497 194 441 194 372 C 194 328 200 291 213 259 C 226 227 243 201 264 181 C 285 161 309 146 337 136 C 364 126 392 121 422 121 C 466 121 503 129 534 147 C 565 165 590 189 610 219 L 719 144 C 693 101 653 64 600 34 C 546 3 481 -12 404 -12 Z M 407 777 L 407 777 Z M 213 950 L 341 950 L 408 859 L 475 950 L 601 950 L 478 777 L 336 777 L 213 950 Z" unicode="Č" />
<glyph horiz-adv-x="606" d="M 39 0 L 39 0 Z M 472 199 L 582 123 C 571 106 558 89 543 73 C 527 57 509 42 489 30 C 469 18 445 8 418 0 C 391 -7 361 -11 327 -11 C 287 -11 249 -4 214 8 C 178 20 148 39 122 64 C 96 88 76 119 61 155 C 46 191 39 233 39 279 C 39 323 46 363 61 399 C 76 435 97 465 123 491 C 149 517 180 537 216 551 C 252 565 291 572 333 572 C 368 572 399 567 427 558 C 454 549 478 537 498 523 C 518 508 535 491 548 472 C 561 453 571 434 578 414 L 457 361 C 446 385 431 405 411 422 C 391 438 363 447 328 447 C 284 447 249 431 223 400 C 197 368 184 329 184 281 C 184 227 197 185 224 157 C 250 129 286 115 332 115 C 370 115 399 123 421 141 C 443 159 460 178 472 199 Z M 330 606 L 330 606 Z M 136 779 L 264 779 L 331 688 L 398 779 L 524 779 L 401 606 L 259 606 L 136 779 Z" unicode="č" />
<glyph horiz-adv-x="762" d="M 87 0 L 87 0 Z M 87 0 L 87 730 L 340 730 C 401 730 455 721 503 704 C 550 686 590 662 622 631 C 654 600 678 563 694 519 C 710 475 719 426 719 374 C 719 322 710 273 693 227 C 676 181 651 141 618 108 C 584 74 543 48 493 29 C 443 9 386 0 322 0 L 87 0 Z M 237 117 L 321 117 C 363 117 399 124 430 138 C 460 152 485 170 505 193 C 525 216 539 243 549 274 C 558 305 563 338 563 372 C 563 443 543 501 504 546 C 464 590 408 613 335 613 L 237 613 L 237 117 Z M 371 777 L 371 777 Z M 177 950 L 305 950 L 372 859 L 439 950 L 565 950 L 442 777 L 300 777 L 177 950 Z" unicode="Ď" />
<glyph horiz-adv-x="684" d="M 40 0 L 40 0 Z M 297 -11 C 261 -11 227 -4 196 8 C 164 20 137 39 114 63 C 91 87 73 118 60 155 C 46 192 40 235 40 283 C 40 323 47 361 62 397 C 76 432 96 462 121 488 C 145 514 174 534 206 549 C 238 563 272 571 308 571 C 340 571 372 562 404 545 C 435 528 457 508 470 486 L 470 800 L 606 800 L 606 0 L 478 0 L 478 96 C 474 85 466 73 455 61 C 443 49 430 37 414 27 C 398 16 380 7 360 0 C 340 -7 319 -11 297 -11 Z M 325 108 C 372 108 408 124 433 156 C 457 188 470 230 470 283 C 470 342 456 385 429 412 C 402 438 369 452 329 452 C 283 452 248 436 223 406 C 197 375 185 333 185 281 C 185 230 197 188 222 156 C 246 124 281 108 325 108 Z M 765 590 L 760 420 L 642 420 L 636 590 L 636 730 L 765 730 L 765 590 Z" unicode="ď" />
<glyph horiz-adv-x="744" d="M 35 0 L 35 0 Z M 719 367 C 719 316 710 268 693 224 C 676 179 651 140 618 107 C 584 74 543 48 493 29 C 443 9 386 0 322 0 L 87 0 L 87 304 L 35 304 L 35 410 L 87 410 L 87 730 L 340 730 C 401 730 455 721 503 704 C 550 686 590 662 622 630 C 654 598 678 560 694 516 C 710 471 719 421 719 367 Z M 230 113 L 319 113 C 363 113 401 120 433 134 C 464 148 489 167 509 191 C 529 215 543 242 552 272 C 560 302 565 333 565 365 C 565 441 545 501 506 547 C 467 593 411 616 338 616 L 230 616 L 230 410 L 373 410 L 373 304 L 230 304 L 230 113 Z" unicode="Đ" />
<glyph horiz-adv-x="684" d="M 478 96 C 474 85 466 73 455 61 C 443 49 430 37 414 27 C 398 16 380 7 360 0 C 340 -7 319 -11 297 -11 C 261 -11 227 -4 196 8 C 164 20 137 39 114 63 C 91 87 73 118 60 155 C 46 192 40 235 40 283 C 40 323 47 361 62 397 C 76 432 96 462 121 488 C 145 514 174 534 206 549 C 238 563 272 571 308 571 C 340 571 372 562 404 545 C 435 528 457 508 470 486 L 470 616 L 313 616 L 313 715 L 470 715 L 470 800 L 606 800 L 606 715 L 677 715 L 677 616 L 606 616 L 606 0 L 478 0 L 478 96 Z M 325 108 C 372 108 408 124 433 156 C 457 188 470 230 470 283 C 470 342 456 385 429 412 C 402 438 369 452 329 452 C 283 452 248 436 223 406 C 197 375 185 333 185 281 C 185 230 197 188 222 156 C 246 124 281 108 325 108 Z" unicode="đ" />
<glyph horiz-adv-x="611" d="M 87 0 L 87 0 Z M 559 0 L 87 0 L 87 730 L 540 730 L 540 605 L 234 605 L 234 423 L 520 423 L 520 303 L 234 303 L 234 125 L 559 125 L 559 0 Z M 322 781 L 322 781 Z M 465 781 L 179 781 L 179 892 L 465 892 L 465 781 Z" unicode="Ē" />
<glyph horiz-adv-x="645" d="M 39 0 L 39 0 Z M 333 -11 C 290 -11 250 -4 214 8 C 178 20 147 39 121 64 C 95 88 75 118 61 154 C 46 190 39 231 39 277 C 39 319 46 358 61 394 C 75 430 95 462 121 488 C 147 514 177 534 213 549 C 249 564 287 572 329 572 C 414 572 481 542 531 484 C 581 425 606 342 607 235 L 181 235 C 181 219 185 204 192 189 C 199 174 209 161 221 149 C 233 137 249 128 267 121 C 285 113 307 110 331 110 C 371 110 403 116 428 130 C 453 143 473 158 488 176 L 573 86 C 547 58 515 34 478 16 C 441 -1 393 -11 333 -11 Z M 181 331 L 460 331 C 458 367 445 396 420 419 C 395 442 363 454 324 454 C 284 454 251 441 225 416 C 199 391 185 363 181 331 Z M 325 610 L 325 610 Z M 468 610 L 182 610 L 182 721 L 468 721 L 468 610 Z" unicode="ē" />
<glyph horiz-adv-x="611" d="M 87 0 L 87 0 Z M 559 0 L 87 0 L 87 730 L 540 730 L 540 605 L 234 605 L 234 423 L 520 423 L 520 303 L 234 303 L 234 125 L 559 125 L 559 0 Z M 322 777 L 322 777 Z M 381 939 L 496 939 C 491 883 473 842 441 816 C 409 790 369 777 322 777 C 274 777 235 790 203 816 C 171 842 152 883 148 939 L 263 939 C 264 914 269 895 279 881 C 288 867 302 860 322 860 C 341 860 355 866 365 880 C 374 893 379 913 381 939 Z" unicode="Ĕ" />
<glyph horiz-adv-x="645" d="M 39 0 L 39 0 Z M 333 -11 C 290 -11 250 -4 214 8 C 178 20 147 39 121 64 C 95 88 75 118 61 154 C 46 190 39 231 39 277 C 39 319 46 358 61 394 C 75 430 95 462 121 488 C 147 514 177 534 213 549 C 249 564 287 572 329 572 C 414 572 481 542 531 484 C 581 425 606 342 607 235 L 181 235 C 181 219 185 204 192 189 C 199 174 209 161 221 149 C 233 137 249 128 267 121 C 285 113 307 110 331 110 C 371 110 403 116 428 130 C 453 143 473 158 488 176 L 573 86 C 547 58 515 34 478 16 C 441 -1 393 -11 333 -11 Z M 181 331 L 460 331 C 458 367 445 396 420 419 C 395 442 363 454 324 454 C 284 454 251 441 225 416 C 199 391 185 363 181 331 Z M 325 606 L 325 606 Z M 384 768 L 499 768 C 494 712 476 671 444 645 C 412 619 372 606 325 606 C 277 606 238 619 206 645 C 174 671 155 712 151 768 L 266 768 C 267 743 272 724 282 710 C 291 696 305 689 325 689 C 344 689 358 695 368 709 C 377 722 382 742 384 768 Z" unicode="ĕ" />
<glyph horiz-adv-x="611" d="M 87 0 L 87 0 Z M 559 0 L 87 0 L 87 730 L 540 730 L 540 605 L 234 605 L 234 423 L 520 423 L 520 303 L 234 303 L 234 125 L 559 125 L 559 0 Z M 322 777 L 322 777 Z M 385 777 L 260 777 L 260 942 L 385 942 L 385 777 Z" unicode="Ė" />
<glyph horiz-adv-x="645" d="M 39 0 L 39 0 Z M 333 -11 C 290 -11 250 -4 214 8 C 178 20 147 39 121 64 C 95 88 75 118 61 154 C 46 190 39 231 39 277 C 39 319 46 358 61 394 C 75 430 95 462 121 488 C 147 514 177 534 213 549 C 249 564 287 572 329 572 C 414 572 481 542 531 484 C 581 425 606 342 607 235 L 181 235 C 181 219 185 204 192 189 C 199 174 209 161 221 149 C 233 137 249 128 267 121 C 285 113 307 110 331 110 C 371 110 403 116 428 130 C 453 143 473 158 488 176 L 573 86 C 547 58 515 34 478 16 C 441 -1 393 -11 333 -11 Z M 181 331 L 460 331 C 458 367 445 396 420 419 C 395 442 363 454 324 454 C 284 454 251 441 225 416 C 199 391 185 363 181 331 Z M 325 606 L 325 606 Z M 388 606 L 263 606 L 263 771 L 388 771 L 388 606 Z" unicode="ė" />
<glyph horiz-adv-x="611" d="M 87 0 L 87 0 Z M 559 0 L 87 0 L 87 730 L 540 730 L 540 605 L 234 605 L 234 423 L 520 423 L 520 303 L 234 303 L 234 125 L 559 125 L 559 0 Z M 514 -4 L 514 -4 Z M 614 -72 L 650 -129 C 628 -152 604 -169 579 -181 C 553 -192 525 -198 493 -198 C 457 -198 428 -190 408 -176 C 388 -161 378 -142 378 -119 C 378 -95 387 -73 407 -51 C 427 -29 453 -11 487 4 L 559 4 C 538 -6 522 -17 511 -29 C 500 -41 495 -52 495 -63 C 495 -73 499 -82 508 -88 C 516 -94 527 -98 540 -98 C 555 -98 569 -95 582 -90 C 594 -85 605 -79 614 -72 Z" unicode="Ę" />
<glyph horiz-adv-x="645" d="M 39 0 L 39 0 Z M 333 -11 C 290 -11 250 -4 214 8 C 178 20 147 39 121 64 C 95 88 75 118 61 154 C 46 190 39 231 39 277 C 39 319 46 358 61 394 C 75 430 95 462 121 488 C 147 514 177 534 213 549 C 249 564 287 572 329 572 C 414 572 481 542 531 484 C 581 425 606 342 607 235 L 181 235 C 181 219 185 204 192 189 C 199 174 209 161 221 149 C 233 137 249 128 267 121 C 285 113 307 110 331 110 C 371 110 403 116 428 130 C 453 143 473 158 488 176 L 573 86 C 547 58 515 34 478 16 C 441 -1 393 -11 333 -11 Z M 181 331 L 460 331 C 458 367 445 396 420 419 C 395 442 363 454 324 454 C 284 454 251 441 225 416 C 199 391 185 363 181 331 Z M 400 -4 L 400 -4 Z M 500 -72 L 536 -129 C 514 -152 490 -169 465 -181 C 439 -192 411 -198 379 -198 C 343 -198 314 -190 294 -176 C 274 -161 264 -142 264 -119 C 264 -95 273 -73 293 -51 C 313 -29 339 -11 373 4 L 445 4 C 424 -6 408 -17 397 -29 C 386 -41 381 -52 381 -63 C 381 -73 385 -82 394 -88 C 402 -94 413 -98 426 -98 C 441 -98 455 -95 468 -90 C 480 -85 491 -79 500 -72 Z" unicode="ę" />
<glyph horiz-adv-x="611" d="M 87 0 L 87 0 Z M 559 0 L 87 0 L 87 730 L 540 730 L 540 605 L 234 605 L 234 423 L 520 423 L 520 303 L 234 303 L 234 125 L 559 125 L 559 0 Z M 322 777 L 322 777 Z M 128 950 L 256 950 L 323 859 L 390 950 L 516 950 L 393 777 L 251 777 L 128 950 Z" unicode="Ě" />
<glyph horiz-adv-x="645" d="M 39 0 L 39 0 Z M 333 -11 C 290 -11 250 -4 214 8 C 178 20 147 39 121 64 C 95 88 75 118 61 154 C 46 190 39 231 39 277 C 39 319 46 358 61 394 C 75 430 95 462 121 488 C 147 514 177 534 213 549 C 249 564 287 572 329 572 C 414 572 481 542 531 484 C 581 425 606 342 607 235 L 181 235 C 181 219 185 204 192 189 C 199 174 209 161 221 149 C 233 137 249 128 267 121 C 285 113 307 110 331 110 C 371 110 403 116 428 130 C 453 143 473 158 488 176 L 573 86 C 547 58 515 34 478 16 C 441 -1 393 -11 333 -11 Z M 181 331 L 460 331 C 458 367 445 396 420 419 C 395 442 363 454 324 454 C 284 454 251 441 225 416 C 199 391 185 363 181 331 Z M 325 606 L 325 606 Z M 131 779 L 259 779 L 326 688 L 393 779 L 519 779 L 396 606 L 254 606 L 131 779 Z" unicode="ě" />
<glyph horiz-adv-x="795" d="M 43 0 L 43 0 Z M 421 387 L 748 387 L 748 153 C 719 105 675 66 616 35 C 557 3 491 -12 418 -12 C 364 -12 314 -3 268 14 C 222 31 182 56 149 88 C 115 120 89 160 71 207 C 52 253 43 306 43 365 C 43 423 52 475 72 522 C 92 569 118 609 152 641 C 186 673 225 698 271 716 C 317 733 365 742 417 742 C 453 742 485 738 515 732 C 544 725 570 716 593 706 C 616 696 636 684 653 671 C 670 657 684 644 696 632 L 602 526 C 583 546 559 564 531 580 C 503 596 463 604 411 604 C 380 604 351 599 324 589 C 297 579 274 565 254 546 C 234 527 219 503 208 474 C 196 444 191 410 191 371 C 191 329 196 292 208 260 C 220 228 236 201 257 179 C 277 157 302 140 330 129 C 358 117 389 112 422 112 C 466 112 505 119 539 135 C 573 151 597 173 611 202 L 611 264 L 421 264 L 421 387 Z M 416 777 L 416 777 Z M 610 777 L 482 777 L 416 868 L 348 777 L 222 777 L 345 950 L 487 950 L 610 777 Z" unicode="Ĝ" />
<glyph horiz-adv-x="680" d="M 40 0 L 40 0 Z M 292 12 C 256 12 222 18 191 32 C 160 46 133 65 111 89 C 89 113 71 142 59 176 C 46 210 40 247 40 288 C 40 373 63 441 111 492 C 158 543 220 569 298 569 C 342 569 380 560 412 542 C 444 524 466 501 478 474 L 478 559 L 605 559 L 605 74 C 605 26 595 -14 577 -49 C 558 -83 534 -112 506 -135 C 477 -157 444 -174 408 -185 C 372 -196 336 -202 302 -202 C 234 -202 182 -195 144 -182 C 106 -168 78 -156 61 -144 L 121 -37 C 135 -47 157 -58 187 -69 C 217 -80 251 -86 287 -86 C 341 -86 385 -72 419 -46 C 452 -20 469 17 469 66 L 469 124 C 464 112 457 100 447 87 C 437 74 424 62 410 51 C 395 39 378 30 358 23 C 338 15 316 12 292 12 Z M 329 127 C 347 127 365 130 382 137 C 399 143 414 153 427 167 C 440 181 450 198 458 219 C 466 239 470 263 470 291 C 470 337 458 374 435 402 C 412 430 378 444 332 444 C 287 444 251 429 225 401 C 198 372 185 331 185 279 C 185 227 197 188 223 164 C 248 139 283 127 329 127 Z M 319 606 L 319 606 Z M 513 606 L 385 606 L 319 697 L 251 606 L 125 606 L 248 779 L 390 779 L 513 606 Z" unicode="ĝ" />
<glyph horiz-adv-x="795" d="M 43 0 L 43 0 Z M 421 387 L 748 387 L 748 153 C 719 105 675 66 616 35 C 557 3 491 -12 418 -12 C 364 -12 314 -3 268 14 C 222 31 182 56 149 88 C 115 120 89 160 71 207 C 52 253 43 306 43 365 C 43 423 52 475 72 522 C 92 569 118 609 152 641 C 186 673 225 698 271 716 C 317 733 365 742 417 742 C 453 742 485 738 515 732 C 544 725 570 716 593 706 C 616 696 636 684 653 671 C 670 657 684 644 696 632 L 602 526 C 583 546 559 564 531 580 C 503 596 463 604 411 604 C 380 604 351 599 324 589 C 297 579 274 565 254 546 C 234 527 219 503 208 474 C 196 444 191 410 191 371 C 191 329 196 292 208 260 C 220 228 236 201 257 179 C 277 157 302 140 330 129 C 358 117 389 112 422 112 C 466 112 505 119 539 135 C 573 151 597 173 611 202 L 611 264 L 421 264 L 421 387 Z M 416 777 L 416 777 Z M 475 939 L 590 939 C 585 883 567 842 535 816 C 503 790 463 777 416 777 C 368 777 329 790 297 816 C 265 842 246 883 242 939 L 357 939 C 358 914 363 895 373 881 C 382 867 396 860 416 860 C 435 860 449 866 459 880 C 468 893 473 913 475 939 Z" unicode="Ğ" />
<glyph horiz-adv-x="680" d="M 40 0 L 40 0 Z M 292 12 C 256 12 222 18 191 32 C 160 46 133 65 111 89 C 89 113 71 142 59 176 C 46 210 40 247 40 288 C 40 373 63 441 111 492 C 158 543 220 569 298 569 C 342 569 380 560 412 542 C 444 524 466 501 478 474 L 478 559 L 605 559 L 605 74 C 605 26 595 -14 577 -49 C 558 -83 534 -112 506 -135 C 477 -157 444 -174 408 -185 C 372 -196 336 -202 302 -202 C 234 -202 182 -195 144 -182 C 106 -168 78 -156 61 -144 L 121 -37 C 135 -47 157 -58 187 -69 C 217 -80 251 -86 287 -86 C 341 -86 385 -72 419 -46 C 452 -20 469 17 469 66 L 469 124 C 464 112 457 100 447 87 C 437 74 424 62 410 51 C 395 39 378 30 358 23 C 338 15 316 12 292 12 Z M 329 127 C 347 127 365 130 382 137 C 399 143 414 153 427 167 C 440 181 450 198 458 219 C 466 239 470 263 470 291 C 470 337 458 374 435 402 C 412 430 378 444 332 444 C 287 444 251 429 225 401 C 198 372 185 331 185 279 C 185 227 197 188 223 164 C 248 139 283 127 329 127 Z M 319 606 L 319 606 Z M 378 768 L 493 768 C 488 712 470 671 438 645 C 406 619 366 606 319 606 C 271 606 232 619 200 645 C 168 671 149 712 145 768 L 260 768 C 261 743 266 724 276 710 C 285 696 299 689 319 689 C 338 689 352 695 362 709 C 371 722 376 742 378 768 Z" unicode="ğ" />
<glyph horiz-adv-x="795" d="M 43 0 L 43 0 Z M 421 387 L 748 387 L 748 153 C 719 105 675 66 616 35 C 557 3 491 -12 418 -12 C 364 -12 314 -3 268 14 C 222 31 182 56 149 88 C 115 120 89 160 71 207 C 52 253 43 306 43 365 C 43 423 52 475 72 522 C 92 569 118 609 152 641 C 186 673 225 698 271 716 C 317 733 365 742 417 742 C 453 742 485 738 515 732 C 544 725 570 716 593 706 C 616 696 636 684 653 671 C 670 657 684 644 696 632 L 602 526 C 583 546 559 564 531 580 C 503 596 463 604 411 604 C 380 604 351 599 324 589 C 297 579 274 565 254 546 C 234 527 219 503 208 474 C 196 444 191 410 191 371 C 191 329 196 292 208 260 C 220 228 236 201 257 179 C 277 157 302 140 330 129 C 358 117 389 112 422 112 C 466 112 505 119 539 135 C 573 151 597 173 611 202 L 611 264 L 421 264 L 421 387 Z M 416 777 L 416 777 Z M 479 777 L 354 777 L 354 942 L 479 942 L 479 777 Z" unicode="Ġ" />
<glyph horiz-adv-x="680" d="M 40 0 L 40 0 Z M 292 12 C 256 12 222 18 191 32 C 160 46 133 65 111 89 C 89 113 71 142 59 176 C 46 210 40 247 40 288 C 40 373 63 441 111 492 C 158 543 220 569 298 569 C 342 569 380 560 412 542 C 444 524 466 501 478 474 L 478 559 L 605 559 L 605 74 C 605 26 595 -14 577 -49 C 558 -83 534 -112 506 -135 C 477 -157 444 -174 408 -185 C 372 -196 336 -202 302 -202 C 234 -202 182 -195 144 -182 C 106 -168 78 -156 61 -144 L 121 -37 C 135 -47 157 -58 187 -69 C 217 -80 251 -86 287 -86 C 341 -86 385 -72 419 -46 C 452 -20 469 17 469 66 L 469 124 C 464 112 457 100 447 87 C 437 74 424 62 410 51 C 395 39 378 30 358 23 C 338 15 316 12 292 12 Z M 329 127 C 347 127 365 130 382 137 C 399 143 414 153 427 167 C 440 181 450 198 458 219 C 466 239 470 263 470 291 C 470 337 458 374 435 402 C 412 430 378 444 332 444 C 287 444 251 429 225 401 C 198 372 185 331 185 279 C 185 227 197 188 223 164 C 248 139 283 127 329 127 Z M 319 606 L 319 606 Z M 382 606 L 257 606 L 257 771 L 382 771 L 382 606 Z" unicode="ġ" />
<glyph horiz-adv-x="795" d="M 43 0 L 43 0 Z M 421 387 L 748 387 L 748 153 C 719 105 675 66 616 35 C 557 3 491 -12 418 -12 C 364 -12 314 -3 268 14 C 222 31 182 56 149 88 C 115 120 89 160 71 207 C 52 253 43 306 43 365 C 43 423 52 475 72 522 C 92 569 118 609 152 641 C 186 673 225 698 271 716 C 317 733 365 742 417 742 C 453 742 485 738 515 732 C 544 725 570 716 593 706 C 616 696 636 684 653 671 C 670 657 684 644 696 632 L 602 526 C 583 546 559 564 531 580 C 503 596 463 604 411 604 C 380 604 351 599 324 589 C 297 579 274 565 254 546 C 234 527 219 503 208 474 C 196 444 191 410 191 371 C 191 329 196 292 208 260 C 220 228 236 201 257 179 C 277 157 302 140 330 129 C 358 117 389 112 422 112 C 466 112 505 119 539 135 C 573 151 597 173 611 202 L 611 264 L 421 264 L 421 387 Z" unicode="Ģ" />
<glyph horiz-adv-x="680" d="M 40 0 L 40 0 Z M 292 12 C 256 12 222 18 191 32 C 160 46 133 65 111 89 C 89 113 71 142 59 176 C 46 210 40 247 40 288 C 40 373 63 441 111 492 C 158 543 220 569 298 569 C 342 569 380 560 412 542 C 444 524 466 501 478 474 L 478 559 L 605 559 L 605 74 C 605 26 595 -14 577 -49 C 558 -83 534 -112 506 -135 C 477 -157 444 -174 408 -185 C 372 -196 336 -202 302 -202 C 234 -202 182 -195 144 -182 C 106 -168 78 -156 61 -144 L 121 -37 C 135 -47 157 -58 187 -69 C 217 -80 251 -86 287 -86 C 341 -86 385 -72 419 -46 C 452 -20 469 17 469 66 L 469 124 C 464 112 457 100 447 87 C 437 74 424 62 410 51 C 395 39 378 30 358 23 C 338 15 316 12 292 12 Z M 329 127 C 347 127 365 130 382 137 C 399 143 414 153 427 167 C 440 181 450 198 458 219 C 466 239 470 263 470 291 C 470 337 458 374 435 402 C 412 430 378 444 332 444 C 287 444 251 429 225 401 C 198 372 185 331 185 279 C 185 227 197 188 223 164 C 248 139 283 127 329 127 Z" unicode="ģ" />
<glyph horiz-adv-x="778" d="M 87 0 L 87 0 Z M 691 0 L 541 0 L 541 295 L 237 295 L 237 0 L 87 0 L 87 730 L 237 730 L 237 423 L 541 423 L 541 730 L 691 730 L 691 0 Z M 388 777 L 388 777 Z M 582 777 L 454 777 L 388 868 L 320 777 L 194 777 L 317 950 L 459 950 L 582 777 Z" unicode="Ĥ" />
<glyph horiz-adv-x="657" d="M 78 0 L 78 0 Z M 585 0 L 445 0 L 445 370 C 445 392 436 411 418 427 C 400 442 376 450 346 450 C 330 450 315 447 300 443 C 284 438 271 431 259 423 C 247 414 237 403 230 390 C 222 377 219 362 219 346 L 219 0 L 78 0 L 78 800 L 206 800 L 206 469 C 214 497 235 522 269 542 C 302 562 344 572 394 572 C 419 572 443 568 467 561 C 490 553 510 543 528 529 C 545 515 559 499 569 479 C 579 459 585 437 585 413 L 585 0 Z M 377 847 L 377 847 Z M 571 847 L 443 847 L 377 938 L 309 847 L 183 847 L 306 1020 L 448 1020 L 571 847 Z" unicode="ĥ" />
<glyph horiz-adv-x="778" d="M 237 295 L 237 0 L 87 0 L 87 532 L 10 532 L 10 631 L 87 631 L 87 730 L 237 730 L 237 631 L 541 631 L 541 730 L 691 730 L 691 631 L 770 631 L 770 532 L 691 532 L 691 0 L 541 0 L 541 295 L 237 295 Z M 237 423 L 541 423 L 541 532 L 237 532 L 237 423 Z" unicode="Ħ" />
<glyph horiz-adv-x="657" d="M 219 346 L 219 0 L 78 0 L 78 616 L 6 616 L 6 715 L 78 715 L 78 800 L 206 800 L 206 715 L 371 715 L 371 616 L 206 616 L 206 469 C 214 497 235 522 269 542 C 302 562 344 572 394 572 C 419 572 443 568 467 561 C 490 553 510 543 528 529 C 545 515 559 499 569 479 C 579 459 585 437 585 413 L 585 0 L 445 0 L 445 370 C 445 392 436 411 418 427 C 400 442 376 450 346 450 C 330 450 315 447 300 443 C 284 438 271 431 259 423 C 247 414 237 403 230 390 C 222 377 219 362 219 346 Z" unicode="ħ" />
<glyph horiz-adv-x="333" d="M 0 0 L 0 0 Z M 241 0 L 91 0 L 91 730 L 241 730 L 241 0 Z M 166 779 L 166 779 Z M 245 932 L 357 932 C 357 880 348 841 331 816 C 314 791 291 779 261 779 C 243 779 227 782 213 788 C 199 794 185 800 173 808 C 163 814 153 821 143 828 C 133 835 124 839 114 839 C 105 839 98 834 93 825 C 87 815 84 801 84 783 L -25 783 C -25 808 -21 830 -15 850 C -9 869 0 885 9 898 C 19 910 31 920 44 926 C 56 932 69 936 81 936 C 99 936 114 933 127 927 C 140 921 152 913 164 905 C 173 898 181 892 189 887 C 197 881 205 879 213 879 C 221 879 229 883 235 892 C 241 900 244 914 245 932 Z" unicode="Ĩ" />
<glyph horiz-adv-x="305" d="M 0 0 L 0 0 Z M 224 0 L 82 0 L 82 559 L 224 559 L 224 0 Z M 152 608 L 152 608 Z M 231 761 L 343 761 C 343 709 334 670 317 645 C 300 620 277 608 247 608 C 229 608 213 611 199 617 C 185 623 171 629 159 637 C 149 643 139 650 129 657 C 119 664 110 668 100 668 C 91 668 84 663 79 654 C 73 644 70 630 70 612 L -39 612 C -39 637 -35 659 -29 679 C -23 698 -14 714 -4 727 C 5 739 17 749 30 755 C 42 761 55 765 67 765 C 85 765 100 762 113 756 C 126 750 138 742 150 734 C 159 727 167 721 175 716 C 183 710 191 708 199 708 C 207 708 215 712 221 721 C 227 729 230 743 231 761 Z" unicode="ĩ" />
<glyph horiz-adv-x="333" d="M 23 0 L 23 0 Z M 241 0 L 91 0 L 91 730 L 241 730 L 241 0 Z M 166 781 L 166 781 Z M 309 781 L 23 781 L 23 892 L 309 892 L 309 781 Z" unicode="Ī" />
<glyph horiz-adv-x="305" d="M 9 0 L 9 0 Z M 224 0 L 82 0 L 82 559 L 224 559 L 224 0 Z M 152 610 L 152 610 Z M 295 610 L 9 610 L 9 721 L 295 721 L 295 610 Z" unicode="ī" />
<glyph horiz-adv-x="333" d="M 0 0 L 0 0 Z M 241 0 L 91 0 L 91 730 L 241 730 L 241 0 Z M 166 777 L 166 777 Z M 225 939 L 340 939 C 335 883 317 842 285 816 C 253 790 213 777 166 777 C 118 777 79 790 47 816 C 15 842 -3 883 -8 939 L 107 939 C 108 914 113 895 123 881 C 132 867 146 860 166 860 C 185 860 199 866 209 880 C 218 893 223 913 225 939 Z" unicode="Ĭ" />
<glyph horiz-adv-x="305" d="M 0 0 L 0 0 Z M 224 0 L 82 0 L 82 559 L 224 559 L 224 0 Z M 152 606 L 152 606 Z M 211 768 L 326 768 C 321 712 303 671 271 645 C 239 619 199 606 152 606 C 104 606 65 619 33 645 C 1 671 -17 712 -22 768 L 93 768 C 94 743 99 724 109 710 C 118 696 132 689 152 689 C 171 689 185 695 195 709 C 204 722 209 742 211 768 Z" unicode="ĭ" />
<glyph horiz-adv-x="333" d="M 0 0 L 0 0 Z M 241 0 L 91 0 L 91 730 L 241 730 L 241 0 Z M 129 -4 L 129 -4 Z M 229 -72 L 265 -129 C 243 -152 219 -169 194 -181 C 168 -192 140 -198 108 -198 C 72 -198 43 -190 23 -176 C 3 -161 -7 -142 -7 -119 C -7 -95 2 -73 22 -51 C 42 -29 68 -11 102 4 L 174 4 C 153 -6 137 -17 126 -29 C 115 -41 110 -52 110 -63 C 110 -73 114 -82 123 -88 C 131 -94 142 -98 155 -98 C 170 -98 184 -95 197 -90 C 209 -85 220 -79 229 -72 Z" unicode="Į" />
<glyph horiz-adv-x="305" d="M 0 0 L 0 0 Z M 80 650 L 80 785 L 226 785 L 226 650 L 80 650 Z M 82 0 L 82 559 L 224 559 L 224 0 L 82 0 Z M 119 -4 L 119 -4 Z M 219 -72 L 255 -129 C 233 -152 209 -169 184 -181 C 158 -192 130 -198 98 -198 C 62 -198 33 -190 13 -176 C -6 -161 -17 -142 -17 -119 C -17 -95 -7 -73 12 -51 C 32 -29 58 -11 92 4 L 164 4 C 143 -6 127 -17 116 -29 C 105 -41 100 -52 100 -63 C 100 -73 104 -82 113 -88 C 121 -94 132 -98 145 -98 C 160 -98 174 -95 187 -90 C 199 -85 210 -79 219 -72 Z" unicode="į" />
<glyph horiz-adv-x="333" d="M 91 0 L 91 0 Z M 241 0 L 91 0 L 91 730 L 241 730 L 241 0 Z M 166 777 L 166 777 Z M 229 777 L 104 777 L 104 942 L 229 942 L 229 777 Z" unicode="İ" />
<glyph horiz-adv-x="305" d="M 224 0 L 82 0 L 82 559 L 224 559 L 224 0 Z" unicode="ı" />
<glyph horiz-adv-x="715" d="M 91 0 L 91 0 Z M 241 0 L 91 0 L 91 730 L 241 730 L 241 0 Z M 630 730 L 630 203 C 630 173 624 144 614 118 C 604 92 589 69 570 50 C 550 31 527 16 499 5 C 471 -6 439 -12 404 -12 C 393 -12 381 -11 369 -10 C 356 -9 343 -7 330 -5 C 317 -3 305 0 294 3 C 282 7 273 11 266 17 L 322 132 C 328 128 337 125 348 123 C 359 121 370 120 382 120 C 413 120 437 128 454 146 C 471 163 480 184 480 209 L 480 730 L 630 730 Z" unicode="Ĳ" />
<glyph horiz-adv-x="583" d="M 80 0 L 80 0 Z M 80 650 L 80 785 L 226 785 L 226 650 L 80 650 Z M 82 0 L 82 559 L 224 559 L 224 0 L 82 0 Z M 512 650 L 368 650 L 368 785 L 512 785 L 512 650 Z M 510 559 L 510 6 C 510 -28 505 -58 495 -84 C 485 -110 471 -132 453 -150 C 435 -167 415 -180 391 -189 C 367 -197 341 -202 313 -202 C 289 -202 261 -199 231 -193 C 201 -187 175 -179 154 -169 L 183 -62 C 195 -68 210 -74 229 -79 C 247 -83 268 -86 290 -86 C 316 -86 336 -75 349 -54 C 362 -32 369 -6 369 24 L 369 559 L 510 559 Z" unicode="ĳ" />
<glyph horiz-adv-x="452" d="M 3 0 L 3 0 Z M 367 730 L 367 203 C 367 173 361 144 351 118 C 341 92 326 69 307 50 C 287 31 264 16 236 5 C 208 -6 176 -12 141 -12 C 130 -12 118 -11 106 -10 C 93 -9 80 -7 67 -5 C 54 -3 42 0 31 3 C 19 7 10 11 3 17 L 59 132 C 65 128 74 125 85 123 C 96 121 107 120 119 120 C 150 120 174 128 191 146 C 208 163 217 184 217 209 L 217 730 L 367 730 Z M 279 777 L 279 777 Z M 473 777 L 345 777 L 279 868 L 211 777 L 85 777 L 208 950 L 350 950 L 473 777 Z" unicode="Ĵ" />
<glyph horiz-adv-x="338" d="M 0 0 L 0 0 Z M 265 559 L 265 6 C 265 -28 260 -58 250 -84 C 240 -110 226 -132 208 -150 C 190 -167 170 -180 146 -189 C 122 -197 96 -202 68 -202 C 44 -202 16 -199 -13 -193 C -43 -187 -69 -179 -91 -169 L -62 -62 C -50 -68 -34 -74 -16 -79 C 2 -83 23 -86 45 -86 C 71 -86 91 -75 104 -54 C 117 -32 124 -6 124 24 L 124 559 L 265 559 Z M 190 606 L 190 606 Z M 384 606 L 256 606 L 190 697 L 122 606 L -4 606 L 119 779 L 261 779 L 384 606 Z" unicode="ĵ" />
<glyph horiz-adv-x="704" d="M 87 0 L 87 0 Z M 702 0 L 515 0 L 306 300 L 236 214 L 236 0 L 87 0 L 87 730 L 236 730 L 236 387 L 503 730 L 668 730 L 413 406 L 702 0 Z M 353 -61 L 353 -61 Z M 466 -61 C 464 -96 459 -130 451 -164 C 443 -197 433 -227 421 -255 C 409 -282 397 -305 383 -325 C 369 -345 357 -358 345 -366 L 241 -320 C 248 -312 256 -299 265 -281 C 273 -263 282 -242 290 -218 C 298 -194 305 -169 311 -141 C 317 -113 321 -87 323 -61 L 466 -61 Z" unicode="Ķ" />
<glyph horiz-adv-x="619" d="M 78 0 L 78 0 Z M 650 2 L 487 -1 L 303 229 L 219 143 L 219 0 L 78 0 L 78 800 L 219 800 L 219 288 L 461 559 L 609 559 L 396 323 L 650 2 Z M 315 -61 L 315 -61 Z M 428 -61 C 426 -96 421 -130 413 -164 C 405 -197 395 -227 383 -255 C 371 -282 359 -305 345 -325 C 331 -345 319 -358 307 -366 L 203 -320 C 210 -312 218 -299 227 -281 C 235 -263 244 -242 252 -218 C 260 -194 267 -169 273 -141 C 279 -113 283 -87 285 -61 L 428 -61 Z" unicode="ķ" />
<glyph horiz-adv-x="619" d="M 650 2 L 487 -1 L 303 229 L 219 143 L 219 0 L 78 0 L 78 559 L 219 559 L 219 288 L 461 559 L 609 559 L 396 323 L 650 2 Z" unicode="ĸ" />
<glyph horiz-adv-x="565" d="M 87 0 L 87 0 Z M 552 0 L 87 0 L 87 730 L 237 730 L 237 125 L 552 125 L 552 0 Z M 364 783 L 364 783 Z M 231 783 L 333 942 L 499 942 L 371 783 L 231 783 Z" unicode="Ĺ" />
<glyph horiz-adv-x="350" d="M 71 0 L 71 0 Z M 71 152 L 71 800 L 212 800 L 212 197 C 212 175 218 156 230 141 C 242 125 261 118 288 118 C 296 118 305 118 316 119 C 327 120 335 122 340 124 L 342 1 C 335 0 323 -1 305 -3 C 287 -5 271 -6 257 -6 C 233 -6 210 -2 188 3 C 166 9 146 19 129 32 C 111 45 97 62 87 82 C 76 102 71 125 71 152 Z M 214 853 L 214 853 Z M 81 853 L 183 1012 L 349 1012 L 221 853 L 81 853 Z" unicode="ĺ" />
<glyph horiz-adv-x="565" d="M 87 0 L 87 0 Z M 552 0 L 87 0 L 87 730 L 237 730 L 237 125 L 552 125 L 552 0 Z M 299 -61 L 299 -61 Z M 412 -61 C 410 -96 405 -130 397 -164 C 389 -197 379 -227 367 -255 C 355 -282 343 -305 329 -325 C 315 -345 303 -358 291 -366 L 187 -320 C 194 -312 202 -299 211 -281 C 219 -263 228 -242 236 -218 C 244 -194 251 -169 257 -141 C 263 -113 267 -87 269 -61 L 412 -61 Z" unicode="Ļ" />
<glyph horiz-adv-x="350" d="M 52 0 L 52 0 Z M 71 152 L 71 800 L 212 800 L 212 197 C 212 175 218 156 230 141 C 242 125 261 118 288 118 C 296 118 305 118 316 119 C 327 120 335 122 340 124 L 342 1 C 335 0 323 -1 305 -3 C 287 -5 271 -6 257 -6 C 233 -6 210 -2 188 3 C 166 9 146 19 129 32 C 111 45 97 62 87 82 C 76 102 71 125 71 152 Z M 164 -61 L 164 -61 Z M 277 -61 C 275 -96 270 -130 262 -164 C 254 -197 244 -227 232 -255 C 220 -282 208 -305 194 -325 C 180 -345 168 -358 156 -366 L 52 -320 C 59 -312 67 -299 76 -281 C 84 -263 93 -242 101 -218 C 109 -194 116 -169 122 -141 C 128 -113 132 -87 134 -61 L 277 -61 Z" unicode="ļ" />
<glyph horiz-adv-x="565" d="M 87 0 L 87 0 Z M 552 0 L 87 0 L 87 730 L 237 730 L 237 125 L 552 125 L 552 0 Z M 596 590 L 591 420 L 473 420 L 467 590 L 467 730 L 596 730 L 596 590 Z" unicode="Ľ" />
<glyph horiz-adv-x="350" d="M 71 0 L 71 0 Z M 71 152 L 71 800 L 212 800 L 212 197 C 212 175 218 156 230 141 C 242 125 261 118 288 118 C 296 118 305 118 316 119 C 327 120 335 122 340 124 L 342 1 C 335 0 323 -1 305 -3 C 287 -5 271 -6 257 -6 C 233 -6 210 -2 188 3 C 166 9 146 19 129 32 C 111 45 97 62 87 82 C 76 102 71 125 71 152 Z M 385 590 L 380 420 L 262 420 L 256 590 L 256 730 L 385 730 L 385 590 Z" unicode="ľ" />
<glyph horiz-adv-x="565" d="M 87 0 L 87 0 Z M 552 0 L 87 0 L 87 730 L 237 730 L 237 125 L 552 125 L 552 0 Z M 400 282 L 400 282 Z M 463 282 L 338 282 L 338 447 L 463 447 L 463 282 Z" unicode="Ŀ" />
<glyph horiz-adv-x="350" d="M 71 0 L 71 0 Z M 71 152 L 71 800 L 212 800 L 212 197 C 212 175 218 156 230 141 C 242 125 261 118 288 118 C 296 118 305 118 316 119 C 327 120 335 122 340 124 L 342 1 C 335 0 323 -1 305 -3 C 287 -5 271 -6 257 -6 C 233 -6 210 -2 188 3 C 166 9 146 19 129 32 C 111 45 97 62 87 82 C 76 102 71 125 71 152 Z M 322 231 L 322 231 Z M 385 231 L 260 231 L 260 396 L 385 396 L 385 231 Z" unicode="ŀ" />
<glyph horiz-adv-x="565" d="M 529 121 L 529 0 L 87 0 L 87 255 L 40 235 L -8 337 L 87 376 L 87 730 L 237 730 L 237 438 L 400 506 L 446 404 L 237 317 L 237 121 L 529 121 Z" unicode="Ł" />
<glyph horiz-adv-x="350" d="M 342 1 C 335 0 323 -1 305 -3 C 287 -5 271 -6 257 -6 C 233 -6 210 -2 188 3 C 166 9 146 19 129 32 C 111 45 97 62 87 82 C 76 102 71 125 71 152 L 71 253 L 25 230 L -10 311 L 71 351 L 71 800 L 212 800 L 212 421 L 298 464 L 334 383 L 212 323 L 212 197 C 212 175 218 156 230 141 C 242 125 261 118 288 118 C 296 118 305 118 316 119 C 327 120 335 122 340 124 L 342 1 Z" unicode="ł" />
<glyph horiz-adv-x="791" d="M 87 0 L 87 0 Z M 704 0 L 598 0 L 226 474 L 226 0 L 87 0 L 87 730 L 201 730 L 567 265 L 567 730 L 704 730 L 704 0 Z M 395 783 L 395 783 Z M 262 783 L 364 942 L 530 942 L 402 783 L 262 783 Z" unicode="Ń" />
<glyph horiz-adv-x="657" d="M 78 0 L 78 0 Z M 585 0 L 444 0 L 444 370 C 444 396 434 415 415 429 C 396 443 374 450 348 450 C 332 450 316 447 301 443 C 285 438 272 431 260 423 C 248 414 238 403 230 389 C 222 375 219 360 219 343 L 219 0 L 78 0 L 78 559 L 202 559 L 202 456 C 213 490 236 517 270 539 C 304 561 346 572 395 572 C 420 572 444 568 468 560 C 491 552 511 542 528 528 C 545 514 559 498 569 479 C 579 460 585 439 585 416 L 585 0 Z M 356 612 L 356 612 Z M 223 612 L 325 771 L 491 771 L 363 612 L 223 612 Z" unicode="ń" />
<glyph horiz-adv-x="791" d="M 87 0 L 87 0 Z M 704 0 L 598 0 L 226 474 L 226 0 L 87 0 L 87 730 L 201 730 L 567 265 L 567 730 L 704 730 L 704 0 Z M 377 -61 L 377 -61 Z M 490 -61 C 488 -96 483 -130 475 -164 C 467 -197 457 -227 445 -255 C 433 -282 421 -305 407 -325 C 393 -345 381 -358 369 -366 L 265 -320 C 272 -312 280 -299 289 -281 C 297 -263 306 -242 314 -218 C 322 -194 329 -169 335 -141 C 341 -113 345 -87 347 -61 L 490 -61 Z" unicode="Ņ" />
<glyph horiz-adv-x="657" d="M 78 0 L 78 0 Z M 585 0 L 444 0 L 444 370 C 444 396 434 415 415 429 C 396 443 374 450 348 450 C 332 450 316 447 301 443 C 285 438 272 431 260 423 C 248 414 238 403 230 389 C 222 375 219 360 219 343 L 219 0 L 78 0 L 78 559 L 202 559 L 202 456 C 213 490 236 517 270 539 C 304 561 346 572 395 572 C 420 572 444 568 468 560 C 491 552 511 542 528 528 C 545 514 559 498 569 479 C 579 460 585 439 585 416 L 585 0 Z M 309 -61 L 309 -61 Z M 422 -61 C 420 -96 415 -130 407 -164 C 399 -197 389 -227 377 -255 C 365 -282 353 -305 339 -325 C 325 -345 313 -358 301 -366 L 197 -320 C 204 -312 212 -299 221 -281 C 229 -263 238 -242 246 -218 C 254 -194 261 -169 267 -141 C 273 -113 277 -87 279 -61 L 422 -61 Z" unicode="ņ" />
<glyph horiz-adv-x="791" d="M 87 0 L 87 0 Z M 704 0 L 598 0 L 226 474 L 226 0 L 87 0 L 87 730 L 201 730 L 567 265 L 567 730 L 704 730 L 704 0 Z M 395 777 L 395 777 Z M 201 950 L 329 950 L 396 859 L 463 950 L 589 950 L 466 777 L 324 777 L 201 950 Z" unicode="Ň" />
<glyph horiz-adv-x="657" d="M 78 0 L 78 0 Z M 585 0 L 444 0 L 444 370 C 444 396 434 415 415 429 C 396 443 374 450 348 450 C 332 450 316 447 301 443 C 285 438 272 431 260 423 C 248 414 238 403 230 389 C 222 375 219 360 219 343 L 219 0 L 78 0 L 78 559 L 202 559 L 202 456 C 213 490 236 517 270 539 C 304 561 346 572 395 572 C 420 572 444 568 468 560 C 491 552 511 542 528 528 C 545 514 559 498 569 479 C 579 460 585 439 585 416 L 585 0 Z M 356 606 L 356 606 Z M 162 779 L 290 779 L 357 688 L 424 779 L 550 779 L 427 606 L 285 606 L 162 779 Z" unicode="ň" />
<glyph horiz-adv-x="791" d="M 567 730 L 704 730 L 704 0 L 704 0 C 701 -64 681 -113 645 -148 C 609 -183 564 -201 510 -201 C 483 -201 454 -198 424 -192 C 394 -186 370 -176 352 -164 L 402 -52 C 412 -58 425 -63 440 -67 C 455 -71 472 -73 491 -73 C 511 -73 528 -64 541 -46 C 554 -28 561 -5 561 21 L 561 47 L 226 474 L 226 0 L 87 0 L 87 730 L 201 730 L 561 273 L 561 478 L 567 478 L 567 730 Z" unicode="Ŋ" />
<glyph horiz-adv-x="657" d="M 395 572 C 420 572 444 568 468 560 C 491 552 511 542 528 528 C 545 514 559 498 569 479 C 579 460 585 439 585 416 L 585 0 L 585 0 C 583 -66 564 -117 526 -151 C 488 -185 441 -202 387 -202 C 363 -202 336 -199 306 -193 C 276 -187 250 -179 228 -169 L 258 -62 C 269 -68 284 -74 303 -79 C 321 -83 342 -86 364 -86 C 390 -86 410 -75 424 -54 C 437 -32 444 -6 444 24 L 444 370 C 444 396 434 415 415 429 C 396 443 374 450 348 450 C 332 450 316 447 301 443 C 285 438 272 431 260 423 C 248 414 238 403 230 389 C 222 375 219 360 219 343 L 219 0 L 78 0 L 78 559 L 202 559 L 202 456 C 213 490 236 517 270 539 C 304 561 346 572 395 572 Z" unicode="ŋ" />
<glyph horiz-adv-x="833" d="M 43 0 L 43 0 Z M 420 -12 C 363 -12 311 -2 265 17 C 218 37 178 64 146 98 C 113 132 88 173 70 220 C 52 266 43 316 43 370 C 43 424 52 474 72 520 C 91 566 117 605 150 638 C 183 670 222 696 268 714 C 313 732 361 742 412 742 C 466 742 517 732 564 714 C 610 696 650 670 684 638 C 717 605 743 566 762 520 C 781 474 791 423 791 369 C 791 311 781 259 761 212 C 741 164 714 124 680 91 C 646 58 606 33 561 15 C 516 -3 469 -12 420 -12 Z M 425 118 C 455 118 484 123 510 133 C 536 143 559 159 579 180 C 598 200 613 226 625 257 C 636 288 642 324 642 364 C 642 400 636 433 624 463 C 612 493 595 518 574 539 C 553 560 528 576 500 588 C 471 600 440 606 407 606 C 376 606 347 600 321 590 C 295 580 272 565 253 545 C 233 525 218 501 207 472 C 196 442 191 409 191 372 C 191 332 197 297 209 265 C 221 233 237 207 258 185 C 279 163 304 147 333 135 C 361 123 392 118 425 118 Z M 414 781 L 414 781 Z M 557 781 L 271 781 L 271 892 L 557 892 L 557 781 Z" unicode="Ō" />
<glyph horiz-adv-x="670" d="M 39 0 L 39 0 Z M 331 -11 C 293 -11 257 -4 222 7 C 186 19 155 38 128 62 C 101 86 79 117 63 153 C 47 189 39 230 39 278 C 39 320 47 360 63 396 C 79 432 101 463 128 489 C 154 515 185 535 221 550 C 256 564 293 572 331 572 C 372 572 411 565 448 553 C 484 540 516 522 543 498 C 570 474 591 445 607 411 C 623 376 631 337 631 294 C 631 248 622 206 606 168 C 590 130 568 98 541 72 C 513 45 481 24 445 10 C 409 -3 371 -11 331 -11 Z M 334 114 C 380 114 417 130 445 162 C 472 194 486 235 486 287 C 486 335 471 373 443 402 C 414 430 376 445 330 445 C 285 445 250 429 224 398 C 198 367 185 327 185 277 C 185 224 199 184 228 156 C 256 128 292 114 334 114 Z M 333 610 L 333 610 Z M 476 610 L 190 610 L 190 721 L 476 721 L 476 610 Z" unicode="ō" />
<glyph horiz-adv-x="833" d="M 43 0 L 43 0 Z M 420 -12 C 363 -12 311 -2 265 17 C 218 37 178 64 146 98 C 113 132 88 173 70 220 C 52 266 43 316 43 370 C 43 424 52 474 72 520 C 91 566 117 605 150 638 C 183 670 222 696 268 714 C 313 732 361 742 412 742 C 466 742 517 732 564 714 C 610 696 650 670 684 638 C 717 605 743 566 762 520 C 781 474 791 423 791 369 C 791 311 781 259 761 212 C 741 164 714 124 680 91 C 646 58 606 33 561 15 C 516 -3 469 -12 420 -12 Z M 425 118 C 455 118 484 123 510 133 C 536 143 559 159 579 180 C 598 200 613 226 625 257 C 636 288 642 324 642 364 C 642 400 636 433 624 463 C 612 493 595 518 574 539 C 553 560 528 576 500 588 C 471 600 440 606 407 606 C 376 606 347 600 321 590 C 295 580 272 565 253 545 C 233 525 218 501 207 472 C 196 442 191 409 191 372 C 191 332 197 297 209 265 C 221 233 237 207 258 185 C 279 163 304 147 333 135 C 361 123 392 118 425 118 Z M 414 777 L 414 777 Z M 473 939 L 588 939 C 583 883 565 842 533 816 C 501 790 461 777 414 777 C 366 777 327 790 295 816 C 263 842 244 883 240 939 L 355 939 C 356 914 361 895 371 881 C 380 867 394 860 414 860 C 433 860 447 866 457 880 C 466 893 471 913 473 939 Z" unicode="Ŏ" />
<glyph horiz-adv-x="670" d="M 39 0 L 39 0 Z M 331 -11 C 293 -11 257 -4 222 7 C 186 19 155 38 128 62 C 101 86 79 117 63 153 C 47 189 39 230 39 278 C 39 320 47 360 63 396 C 79 432 101 463 128 489 C 154 515 185 535 221 550 C 256 564 293 572 331 572 C 372 572 411 565 448 553 C 484 540 516 522 543 498 C 570 474 591 445 607 411 C 623 376 631 337 631 294 C 631 248 622 206 606 168 C 590 130 568 98 541 72 C 513 45 481 24 445 10 C 409 -3 371 -11 331 -11 Z M 334 114 C 380 114 417 130 445 162 C 472 194 486 235 486 287 C 486 335 471 373 443 402 C 414 430 376 445 330 445 C 285 445 250 429 224 398 C 198 367 185 327 185 277 C 185 224 199 184 228 156 C 256 128 292 114 334 114 Z M 333 606 L 333 606 Z M 392 768 L 507 768 C 502 712 484 671 452 645 C 420 619 380 606 333 606 C 285 606 246 619 214 645 C 182 671 163 712 159 768 L 274 768 C 275 743 280 724 290 710 C 299 696 313 689 333 689 C 352 689 366 695 376 709 C 385 722 390 742 392 768 Z" unicode="ŏ" />
<glyph horiz-adv-x="833" d="M 43 0 L 43 0 Z M 420 -12 C 363 -12 311 -2 265 17 C 218 37 178 64 146 98 C 113 132 88 173 70 220 C 52 266 43 316 43 370 C 43 424 52 474 72 520 C 91 566 117 605 150 638 C 183 670 222 696 268 714 C 313 732 361 742 412 742 C 466 742 517 732 564 714 C 610 696 650 670 684 638 C 717 605 743 566 762 520 C 781 474 791 423 791 369 C 791 311 781 259 761 212 C 741 164 714 124 680 91 C 646 58 606 33 561 15 C 516 -3 469 -12 420 -12 Z M 425 118 C 455 118 484 123 510 133 C 536 143 559 159 579 180 C 598 200 613 226 625 257 C 636 288 642 324 642 364 C 642 400 636 433 624 463 C 612 493 595 518 574 539 C 553 560 528 576 500 588 C 471 600 440 606 407 606 C 376 606 347 600 321 590 C 295 580 272 565 253 545 C 233 525 218 501 207 472 C 196 442 191 409 191 372 C 191 332 197 297 209 265 C 221 233 237 207 258 185 C 279 163 304 147 333 135 C 361 123 392 118 425 118 Z M 414 776 L 414 776 Z M 187 776 L 283 928 L 429 928 L 308 776 L 187 776 Z M 399 776 L 496 928 L 642 928 L 520 776 L 399 776 Z" unicode="Ő" />
<glyph horiz-adv-x="670" d="M 39 0 L 39 0 Z M 331 -11 C 293 -11 257 -4 222 7 C 186 19 155 38 128 62 C 101 86 79 117 63 153 C 47 189 39 230 39 278 C 39 320 47 360 63 396 C 79 432 101 463 128 489 C 154 515 185 535 221 550 C 256 564 293 572 331 572 C 372 572 411 565 448 553 C 484 540 516 522 543 498 C 570 474 591 445 607 411 C 623 376 631 337 631 294 C 631 248 622 206 606 168 C 590 130 568 98 541 72 C 513 45 481 24 445 10 C 409 -3 371 -11 331 -11 Z M 334 114 C 380 114 417 130 445 162 C 472 194 486 235 486 287 C 486 335 471 373 443 402 C 414 430 376 445 330 445 C 285 445 250 429 224 398 C 198 367 185 327 185 277 C 185 224 199 184 228 156 C 256 128 292 114 334 114 Z M 333 605 L 333 605 Z M 106 605 L 202 757 L 348 757 L 227 605 L 106 605 Z M 318 605 L 415 757 L 561 757 L 439 605 L 318 605 Z" unicode="ő" />
<glyph horiz-adv-x="1156" d="M 401 -12 C 346 -12 296 -2 252 16 C 208 35 170 61 139 95 C 108 129 84 169 68 216 C 51 262 43 313 43 369 C 43 421 52 470 72 516 C 91 562 117 601 150 635 C 183 668 222 694 268 713 C 313 732 361 742 412 742 C 432 742 454 739 477 733 C 500 727 522 719 543 709 C 564 699 583 687 600 673 C 616 659 629 643 638 627 L 638 730 L 1084 730 L 1084 605 L 776 605 L 776 422 L 1065 422 L 1065 303 L 776 303 L 776 125 L 1104 125 L 1104 0 L 638 0 L 638 122 C 620 85 590 53 548 27 C 505 1 456 -12 401 -12 Z M 418 110 C 449 110 478 115 505 126 C 531 136 554 152 574 173 C 593 194 608 221 619 253 C 630 285 636 323 636 367 C 636 408 629 444 616 476 C 603 507 586 533 566 553 C 545 573 522 589 496 599 C 470 609 443 615 417 615 C 386 615 357 609 330 599 C 303 589 280 573 260 553 C 240 532 225 506 214 475 C 202 443 197 407 197 365 C 197 322 202 285 214 253 C 225 221 240 194 260 173 C 280 151 303 135 330 125 C 357 115 386 110 418 110 Z" unicode="Œ" />
<glyph horiz-adv-x="1087" d="M 331 -11 C 293 -11 257 -4 222 7 C 186 19 155 38 128 62 C 101 86 79 117 63 153 C 47 189 39 230 39 278 C 39 320 47 359 63 395 C 79 431 101 462 128 488 C 154 514 185 534 221 549 C 256 564 293 572 331 572 C 364 572 393 567 419 559 C 444 551 466 540 484 528 C 502 516 516 502 528 488 C 539 474 547 461 553 450 C 557 460 565 473 577 487 C 589 501 604 515 623 527 C 642 539 664 550 689 559 C 714 567 741 572 771 572 C 856 572 923 542 973 484 C 1023 426 1048 343 1049 237 L 623 237 C 623 203 637 173 665 147 C 692 121 728 109 774 109 C 814 109 846 115 871 129 C 895 143 915 158 930 176 L 1015 86 C 989 58 957 34 920 16 C 883 -1 835 -11 775 -11 C 749 -11 724 -7 699 0 C 674 7 651 16 631 28 C 610 40 592 53 577 67 C 562 81 552 95 547 109 C 542 96 533 83 520 69 C 507 55 491 42 473 30 C 454 18 432 9 408 1 C 384 -7 358 -11 331 -11 Z M 625 331 L 902 331 C 900 367 887 396 862 419 C 837 442 805 454 766 454 C 726 454 693 441 668 417 C 643 392 629 363 625 331 Z M 337 114 C 381 114 417 129 445 161 C 472 193 486 236 486 290 C 486 336 471 374 443 402 C 414 430 376 445 329 445 C 285 445 250 429 224 399 C 198 368 185 326 185 274 C 185 222 199 182 228 155 C 257 127 293 114 337 114 Z" unicode="œ" />
<glyph horiz-adv-x="658" d="M 87 0 L 87 0 Z M 87 0 L 87 730 L 355 730 C 385 730 414 725 442 716 C 470 707 494 694 515 677 C 535 660 552 639 564 614 C 576 588 583 559 583 527 C 583 496 578 469 569 445 C 560 421 548 401 534 385 C 519 368 502 355 484 345 C 466 335 447 329 429 326 L 428 321 L 653 0 L 478 0 L 294 281 L 236 281 L 236 0 L 87 0 Z M 233 399 L 324 399 C 352 399 378 408 400 426 C 422 444 433 472 433 510 C 433 545 422 571 401 589 C 379 606 355 615 327 615 L 233 615 L 233 399 Z M 330 783 L 330 783 Z M 197 783 L 299 942 L 465 942 L 337 783 L 197 783 Z" unicode="Ŕ" />
<glyph horiz-adv-x="499" d="M 78 0 L 78 0 Z M 509 540 L 435 410 C 424 422 411 431 395 437 C 379 443 361 446 342 446 C 310 446 282 434 257 412 C 231 390 219 361 219 326 L 219 0 L 78 0 L 78 559 L 205 559 L 205 451 C 209 465 216 480 227 495 C 237 509 251 522 267 534 C 283 545 302 554 324 561 C 345 568 368 572 393 572 C 419 572 441 569 461 563 C 481 557 497 550 509 540 Z M 302 612 L 302 612 Z M 169 612 L 271 771 L 437 771 L 309 612 L 169 612 Z" unicode="ŕ" />
<glyph horiz-adv-x="658" d="M 87 0 L 87 0 Z M 87 0 L 87 730 L 355 730 C 385 730 414 725 442 716 C 470 707 494 694 515 677 C 535 660 552 639 564 614 C 576 588 583 559 583 527 C 583 496 578 469 569 445 C 560 421 548 401 534 385 C 519 368 502 355 484 345 C 466 335 447 329 429 326 L 428 321 L 653 0 L 478 0 L 294 281 L 236 281 L 236 0 L 87 0 Z M 233 399 L 324 399 C 352 399 378 408 400 426 C 422 444 433 472 433 510 C 433 545 422 571 401 589 C 379 606 355 615 327 615 L 233 615 L 233 399 Z M 320 -61 L 320 -61 Z M 433 -61 C 431 -96 426 -130 418 -164 C 410 -197 400 -227 388 -255 C 376 -282 364 -305 350 -325 C 336 -345 324 -358 312 -366 L 208 -320 C 215 -312 223 -299 232 -281 C 240 -263 249 -242 257 -218 C 265 -194 272 -169 278 -141 C 284 -113 288 -87 290 -61 L 433 -61 Z" unicode="Ŗ" />
<glyph horiz-adv-x="499" d="M 78 0 L 78 0 Z M 509 540 L 435 410 C 424 422 411 431 395 437 C 379 443 361 446 342 446 C 310 446 282 434 257 412 C 231 390 219 361 219 326 L 219 0 L 78 0 L 78 559 L 205 559 L 205 451 C 209 465 216 480 227 495 C 237 509 251 522 267 534 C 283 545 302 554 324 561 C 345 568 368 572 393 572 C 419 572 441 569 461 563 C 481 557 497 550 509 540 Z M 278 -61 L 278 -61 Z M 391 -61 C 389 -96 384 -130 376 -164 C 368 -197 358 -227 346 -255 C 334 -282 322 -305 308 -325 C 294 -345 282 -358 270 -366 L 166 -320 C 173 -312 181 -299 190 -281 C 198 -263 207 -242 215 -218 C 223 -194 230 -169 236 -141 C 242 -113 246 -87 248 -61 L 391 -61 Z" unicode="ŗ" />
<glyph horiz-adv-x="658" d="M 87 0 L 87 0 Z M 87 0 L 87 730 L 355 730 C 385 730 414 725 442 716 C 470 707 494 694 515 677 C 535 660 552 639 564 614 C 576 588 583 559 583 527 C 583 496 578 469 569 445 C 560 421 548 401 534 385 C 519 368 502 355 484 345 C 466 335 447 329 429 326 L 428 321 L 653 0 L 478 0 L 294 281 L 236 281 L 236 0 L 87 0 Z M 233 399 L 324 399 C 352 399 378 408 400 426 C 422 444 433 472 433 510 C 433 545 422 571 401 589 C 379 606 355 615 327 615 L 233 615 L 233 399 Z M 330 777 L 330 777 Z M 136 950 L 264 950 L 331 859 L 398 950 L 524 950 L 401 777 L 259 777 L 136 950 Z" unicode="Ř" />
<glyph horiz-adv-x="499" d="M 78 0 L 78 0 Z M 509 540 L 435 410 C 424 422 411 431 395 437 C 379 443 361 446 342 446 C 310 446 282 434 257 412 C 231 390 219 361 219 326 L 219 0 L 78 0 L 78 559 L 205 559 L 205 451 C 209 465 216 480 227 495 C 237 509 251 522 267 534 C 283 545 302 554 324 561 C 345 568 368 572 393 572 C 419 572 441 569 461 563 C 481 557 497 550 509 540 Z M 302 606 L 302 606 Z M 108 779 L 236 779 L 303 688 L 370 779 L 496 779 L 373 606 L 231 606 L 108 779 Z" unicode="ř" />
<glyph horiz-adv-x="635" d="M 34 0 L 34 0 Z M 319 -12 C 254 -12 198 -3 151 12 C 103 28 64 50 34 77 L 118 195 C 138 174 167 155 204 137 C 240 119 280 111 324 111 C 354 111 380 117 400 131 C 420 144 430 162 430 185 C 430 208 420 228 402 245 C 383 261 347 280 293 301 C 249 317 212 333 182 349 C 152 364 127 381 109 399 C 91 417 78 438 70 462 C 62 485 58 512 58 544 C 58 605 81 653 129 689 C 176 724 237 742 313 742 C 373 742 422 733 462 715 C 502 697 534 679 558 660 L 485 538 C 458 558 429 575 399 589 C 369 603 337 610 305 610 C 275 610 251 604 234 592 C 217 580 209 564 209 544 C 209 519 221 499 245 483 C 269 467 310 447 368 425 C 406 410 439 395 467 381 C 495 366 517 350 535 333 C 552 315 565 296 573 274 C 581 252 585 226 585 196 C 585 162 577 133 563 107 C 549 81 529 60 505 42 C 481 24 452 11 420 2 C 388 -7 354 -12 319 -12 Z M 313 783 L 313 783 Z M 180 783 L 282 942 L 448 942 L 320 783 L 180 783 Z" unicode="Ś" />
<glyph horiz-adv-x="548" d="M 40 0 L 40 0 Z M 300 -11 C 244 -11 195 -4 151 8 C 107 21 70 38 40 59 L 99 154 C 127 139 160 126 196 116 C 232 106 264 101 293 101 C 316 101 335 106 349 117 C 363 127 370 141 370 158 C 370 172 361 185 343 196 C 325 207 294 219 248 232 C 179 250 131 274 103 305 C 75 335 62 371 62 412 C 62 436 67 459 79 479 C 90 499 105 515 125 529 C 144 543 167 553 194 561 C 220 568 249 572 280 572 C 340 572 389 564 425 550 C 461 535 488 521 506 509 L 456 404 C 428 419 401 432 375 443 C 348 454 320 460 292 460 C 268 460 248 455 232 446 C 216 437 208 425 208 410 C 208 402 209 395 212 389 C 214 383 220 377 228 372 C 236 366 249 361 265 355 C 281 349 302 343 329 335 C 391 317 437 295 468 269 C 499 243 515 208 515 164 C 515 136 509 112 498 90 C 487 68 472 50 453 35 C 434 20 411 9 385 1 C 359 -7 330 -11 300 -11 Z M 287 612 L 287 612 Z M 154 612 L 256 771 L 422 771 L 294 612 L 154 612 Z" unicode="ś" />
<glyph horiz-adv-x="635" d="M 34 0 L 34 0 Z M 319 -12 C 254 -12 198 -3 151 12 C 103 28 64 50 34 77 L 118 195 C 138 174 167 155 204 137 C 240 119 280 111 324 111 C 354 111 380 117 400 131 C 420 144 430 162 430 185 C 430 208 420 228 402 245 C 383 261 347 280 293 301 C 249 317 212 333 182 349 C 152 364 127 381 109 399 C 91 417 78 438 70 462 C 62 485 58 512 58 544 C 58 605 81 653 129 689 C 176 724 237 742 313 742 C 373 742 422 733 462 715 C 502 697 534 679 558 660 L 485 538 C 458 558 429 575 399 589 C 369 603 337 610 305 610 C 275 610 251 604 234 592 C 217 580 209 564 209 544 C 209 519 221 499 245 483 C 269 467 310 447 368 425 C 406 410 439 395 467 381 C 495 366 517 350 535 333 C 552 315 565 296 573 274 C 581 252 585 226 585 196 C 585 162 577 133 563 107 C 549 81 529 60 505 42 C 481 24 452 11 420 2 C 388 -7 354 -12 319 -12 Z M 313 777 L 313 777 Z M 507 777 L 379 777 L 313 868 L 245 777 L 119 777 L 242 950 L 384 950 L 507 777 Z" unicode="Ŝ" />
<glyph horiz-adv-x="548" d="M 40 0 L 40 0 Z M 300 -11 C 244 -11 195 -4 151 8 C 107 21 70 38 40 59 L 99 154 C 127 139 160 126 196 116 C 232 106 264 101 293 101 C 316 101 335 106 349 117 C 363 127 370 141 370 158 C 370 172 361 185 343 196 C 325 207 294 219 248 232 C 179 250 131 274 103 305 C 75 335 62 371 62 412 C 62 436 67 459 79 479 C 90 499 105 515 125 529 C 144 543 167 553 194 561 C 220 568 249 572 280 572 C 340 572 389 564 425 550 C 461 535 488 521 506 509 L 456 404 C 428 419 401 432 375 443 C 348 454 320 460 292 460 C 268 460 248 455 232 446 C 216 437 208 425 208 410 C 208 402 209 395 212 389 C 214 383 220 377 228 372 C 236 366 249 361 265 355 C 281 349 302 343 329 335 C 391 317 437 295 468 269 C 499 243 515 208 515 164 C 515 136 509 112 498 90 C 487 68 472 50 453 35 C 434 20 411 9 385 1 C 359 -7 330 -11 300 -11 Z M 287 606 L 287 606 Z M 481 606 L 353 606 L 287 697 L 219 606 L 93 606 L 216 779 L 358 779 L 481 606 Z" unicode="ŝ" />
<glyph horiz-adv-x="635" d="M 34 0 L 34 0 Z M 319 -12 C 254 -12 198 -3 151 12 C 103 28 64 50 34 77 L 118 195 C 138 174 167 155 204 137 C 240 119 280 111 324 111 C 354 111 380 117 400 131 C 420 144 430 162 430 185 C 430 208 420 228 402 245 C 383 261 347 280 293 301 C 249 317 212 333 182 349 C 152 364 127 381 109 399 C 91 417 78 438 70 462 C 62 485 58 512 58 544 C 58 605 81 653 129 689 C 176 724 237 742 313 742 C 373 742 422 733 462 715 C 502 697 534 679 558 660 L 485 538 C 458 558 429 575 399 589 C 369 603 337 610 305 610 C 275 610 251 604 234 592 C 217 580 209 564 209 544 C 209 519 221 499 245 483 C 269 467 310 447 368 425 C 406 410 439 395 467 381 C 495 366 517 350 535 333 C 552 315 565 296 573 274 C 581 252 585 226 585 196 C 585 162 577 133 563 107 C 549 81 529 60 505 42 C 481 24 452 11 420 2 C 388 -7 354 -12 319 -12 Z M 308 -6 L 308 -6 Z M 317 -199 C 290 -199 263 -196 236 -190 C 208 -184 188 -176 174 -167 L 191 -108 C 199 -111 211 -115 225 -119 C 239 -123 254 -126 270 -126 C 280 -126 289 -123 297 -119 C 305 -115 309 -109 309 -101 C 309 -92 305 -86 298 -82 C 291 -78 284 -77 276 -77 C 270 -77 264 -77 260 -78 C 255 -79 250 -80 246 -82 L 229 -64 L 290 8 L 374 8 L 327 -49 C 360 -45 387 -49 409 -63 C 430 -77 441 -96 441 -121 C 441 -147 428 -167 403 -180 C 377 -192 349 -199 317 -199 Z" unicode="Ş" />
<glyph horiz-adv-x="548" d="M 40 0 L 40 0 Z M 300 -11 C 244 -11 195 -4 151 8 C 107 21 70 38 40 59 L 99 154 C 127 139 160 126 196 116 C 232 106 264 101 293 101 C 316 101 335 106 349 117 C 363 127 370 141 370 158 C 370 172 361 185 343 196 C 325 207 294 219 248 232 C 179 250 131 274 103 305 C 75 335 62 371 62 412 C 62 436 67 459 79 479 C 90 499 105 515 125 529 C 144 543 167 553 194 561 C 220 568 249 572 280 572 C 340 572 389 564 425 550 C 461 535 488 521 506 509 L 456 404 C 428 419 401 432 375 443 C 348 454 320 460 292 460 C 268 460 248 455 232 446 C 216 437 208 425 208 410 C 208 402 209 395 212 389 C 214 383 220 377 228 372 C 236 366 249 361 265 355 C 281 349 302 343 329 335 C 391 317 437 295 468 269 C 499 243 515 208 515 164 C 515 136 509 112 498 90 C 487 68 472 50 453 35 C 434 20 411 9 385 1 C 359 -7 330 -11 300 -11 Z M 272 0 L 272 0 Z M 281 -193 C 254 -193 227 -190 200 -184 C 172 -178 152 -170 138 -161 L 155 -102 C 163 -105 175 -109 189 -113 C 203 -117 218 -120 234 -120 C 244 -120 253 -117 261 -113 C 269 -109 273 -103 273 -95 C 273 -86 269 -80 262 -76 C 255 -72 248 -71 240 -71 C 234 -71 228 -71 224 -72 C 219 -73 214 -74 210 -76 L 193 -58 L 254 14 L 338 14 L 291 -43 C 324 -39 351 -43 373 -57 C 394 -71 405 -90 405 -115 C 405 -141 392 -161 367 -174 C 341 -186 313 -193 281 -193 Z" unicode="ş" />
<glyph horiz-adv-x="635" d="M 34 0 L 34 0 Z M 319 -12 C 254 -12 198 -3 151 12 C 103 28 64 50 34 77 L 118 195 C 138 174 167 155 204 137 C 240 119 280 111 324 111 C 354 111 380 117 400 131 C 420 144 430 162 430 185 C 430 208 420 228 402 245 C 383 261 347 280 293 301 C 249 317 212 333 182 349 C 152 364 127 381 109 399 C 91 417 78 438 70 462 C 62 485 58 512 58 544 C 58 605 81 653 129 689 C 176 724 237 742 313 742 C 373 742 422 733 462 715 C 502 697 534 679 558 660 L 485 538 C 458 558 429 575 399 589 C 369 603 337 610 305 610 C 275 610 251 604 234 592 C 217 580 209 564 209 544 C 209 519 221 499 245 483 C 269 467 310 447 368 425 C 406 410 439 395 467 381 C 495 366 517 350 535 333 C 552 315 565 296 573 274 C 581 252 585 226 585 196 C 585 162 577 133 563 107 C 549 81 529 60 505 42 C 481 24 452 11 420 2 C 388 -7 354 -12 319 -12 Z M 313 777 L 313 777 Z M 119 950 L 247 950 L 314 859 L 381 950 L 507 950 L 384 777 L 242 777 L 119 950 Z" unicode="Š" />
<glyph horiz-adv-x="548" d="M 40 0 L 40 0 Z M 300 -11 C 244 -11 195 -4 151 8 C 107 21 70 38 40 59 L 99 154 C 127 139 160 126 196 116 C 232 106 264 101 293 101 C 316 101 335 106 349 117 C 363 127 370 141 370 158 C 370 172 361 185 343 196 C 325 207 294 219 248 232 C 179 250 131 274 103 305 C 75 335 62 371 62 412 C 62 436 67 459 79 479 C 90 499 105 515 125 529 C 144 543 167 553 194 561 C 220 568 249 572 280 572 C 340 572 389 564 425 550 C 461 535 488 521 506 509 L 456 404 C 428 419 401 432 375 443 C 348 454 320 460 292 460 C 268 460 248 455 232 446 C 216 437 208 425 208 410 C 208 402 209 395 212 389 C 214 383 220 377 228 372 C 236 366 249 361 265 355 C 281 349 302 343 329 335 C 391 317 437 295 468 269 C 499 243 515 208 515 164 C 515 136 509 112 498 90 C 487 68 472 50 453 35 C 434 20 411 9 385 1 C 359 -7 330 -11 300 -11 Z M 287 606 L 287 606 Z M 93 779 L 221 779 L 288 688 L 355 779 L 481 779 L 358 606 L 216 606 L 93 779 Z" unicode="š" />
<glyph horiz-adv-x="589" d="M 10 0 L 10 0 Z M 579 604 L 367 604 L 367 0 L 217 0 L 217 604 L 10 604 L 10 730 L 579 730 L 579 604 Z M 294 777 L 294 777 Z M 100 950 L 228 950 L 295 859 L 362 950 L 488 950 L 365 777 L 223 777 L 100 950 Z" unicode="Ť" />
<glyph horiz-adv-x="409" d="M 10 0 L 10 0 Z M 381 137 L 403 23 C 388 13 368 5 344 1 C 320 -3 298 -6 278 -6 C 222 -6 176 9 140 41 C 104 73 87 121 87 186 L 87 443 L 10 443 L 10 559 L 87 559 L 87 699 L 227 716 L 227 559 L 376 559 L 376 443 L 227 443 L 227 196 C 227 171 232 152 243 138 C 254 124 272 117 296 117 C 314 117 331 119 346 124 C 360 128 372 133 381 137 Z M 525 590 L 520 420 L 402 420 L 396 590 L 396 730 L 525 730 L 525 590 Z" unicode="ť" />
<glyph horiz-adv-x="589" d="M 512 403 L 367 403 L 367 0 L 217 0 L 217 403 L 77 403 L 77 503 L 217 503 L 217 604 L 10 604 L 10 730 L 579 730 L 579 604 L 367 604 L 367 503 L 512 503 L 512 403 Z" unicode="Ŧ" />
<glyph horiz-adv-x="409" d="M 278 -6 C 222 -6 176 9 140 41 C 104 73 87 121 87 186 L 87 280 L 18 280 L 18 380 L 87 380 L 87 443 L 10 443 L 10 559 L 87 559 L 87 699 L 227 716 L 227 559 L 376 559 L 376 443 L 227 443 L 227 380 L 347 380 L 347 280 L 227 280 L 227 196 C 227 171 232 152 243 138 C 254 124 272 117 296 117 C 314 117 331 119 346 124 C 360 128 372 133 381 137 L 403 23 C 388 13 368 5 344 1 C 320 -3 298 -6 278 -6 Z" unicode="ŧ" />
<glyph horiz-adv-x="778" d="M 83 0 L 83 0 Z M 694 730 L 694 266 C 694 222 685 183 669 149 C 653 114 631 85 603 61 C 575 37 542 19 505 7 C 468 -5 429 -12 388 -12 C 347 -12 308 -6 271 6 C 234 18 202 35 174 59 C 146 83 124 112 108 147 C 91 181 83 221 83 266 L 83 730 L 229 730 L 229 273 C 229 225 244 187 275 161 C 306 134 343 121 387 121 C 431 121 468 134 500 160 C 532 186 548 223 548 273 L 548 730 L 694 730 Z M 389 779 L 389 779 Z M 468 932 L 580 932 C 580 880 571 841 554 816 C 537 791 514 779 484 779 C 466 779 450 782 436 788 C 422 794 408 800 396 808 C 386 814 376 821 366 828 C 356 835 347 839 337 839 C 328 839 321 834 316 825 C 310 815 307 801 307 783 L 198 783 C 198 808 201 830 207 850 C 213 869 222 885 232 898 C 242 910 254 920 267 926 C 279 932 292 936 304 936 C 322 936 337 933 350 927 C 363 921 375 913 387 905 C 396 898 404 892 412 887 C 420 881 428 879 436 879 C 444 879 452 883 458 892 C 464 900 467 914 468 932 Z" unicode="Ũ" />
<glyph horiz-adv-x="657" d="M 72 0 L 72 0 Z M 72 559 L 213 559 L 213 209 C 213 173 223 146 243 130 C 263 114 290 106 324 106 C 357 106 384 115 405 135 C 426 155 437 181 437 214 L 437 559 L 578 559 L 578 0 L 451 0 L 451 98 C 441 69 421 43 389 21 C 357 -1 317 -13 267 -13 C 240 -13 215 -9 191 -1 C 167 6 146 17 129 31 C 111 45 97 63 87 84 C 77 105 72 129 72 157 L 72 559 Z M 326 608 L 326 608 Z M 405 761 L 517 761 C 517 709 508 670 491 645 C 474 620 451 608 421 608 C 403 608 387 611 373 617 C 359 623 345 629 333 637 C 323 643 313 650 303 657 C 293 664 284 668 274 668 C 265 668 258 663 253 654 C 247 644 244 630 244 612 L 135 612 C 135 637 138 659 144 679 C 150 698 159 714 169 727 C 179 739 191 749 204 755 C 216 761 229 765 241 765 C 259 765 274 762 287 756 C 300 750 312 742 324 734 C 333 727 341 721 349 716 C 357 710 365 708 373 708 C 381 708 389 712 395 721 C 401 729 404 743 405 761 Z" unicode="ũ" />
<glyph horiz-adv-x="778" d="M 83 0 L 83 0 Z M 694 730 L 694 266 C 694 222 685 183 669 149 C 653 114 631 85 603 61 C 575 37 542 19 505 7 C 468 -5 429 -12 388 -12 C 347 -12 308 -6 271 6 C 234 18 202 35 174 59 C 146 83 124 112 108 147 C 91 181 83 221 83 266 L 83 730 L 229 730 L 229 273 C 229 225 244 187 275 161 C 306 134 343 121 387 121 C 431 121 468 134 500 160 C 532 186 548 223 548 273 L 548 730 L 694 730 Z M 389 781 L 389 781 Z M 532 781 L 246 781 L 246 892 L 532 892 L 532 781 Z" unicode="Ū" />
<glyph horiz-adv-x="657" d="M 72 0 L 72 0 Z M 72 559 L 213 559 L 213 209 C 213 173 223 146 243 130 C 263 114 290 106 324 106 C 357 106 384 115 405 135 C 426 155 437 181 437 214 L 437 559 L 578 559 L 578 0 L 451 0 L 451 98 C 441 69 421 43 389 21 C 357 -1 317 -13 267 -13 C 240 -13 215 -9 191 -1 C 167 6 146 17 129 31 C 111 45 97 63 87 84 C 77 105 72 129 72 157 L 72 559 Z M 326 610 L 326 610 Z M 469 610 L 183 610 L 183 721 L 469 721 L 469 610 Z" unicode="ū" />
<glyph horiz-adv-x="778" d="M 83 0 L 83 0 Z M 694 730 L 694 266 C 694 222 685 183 669 149 C 653 114 631 85 603 61 C 575 37 542 19 505 7 C 468 -5 429 -12 388 -12 C 347 -12 308 -6 271 6 C 234 18 202 35 174 59 C 146 83 124 112 108 147 C 91 181 83 221 83 266 L 83 730 L 229 730 L 229 273 C 229 225 244 187 275 161 C 306 134 343 121 387 121 C 431 121 468 134 500 160 C 532 186 548 223 548 273 L 548 730 L 694 730 Z M 389 777 L 389 777 Z M 448 939 L 563 939 C 558 883 540 842 508 816 C 476 790 436 777 389 777 C 341 777 302 790 270 816 C 238 842 219 883 215 939 L 330 939 C 331 914 336 895 346 881 C 355 867 369 860 389 860 C 408 860 422 866 432 880 C 441 893 446 913 448 939 Z" unicode="Ŭ" />
<glyph horiz-adv-x="657" d="M 72 0 L 72 0 Z M 72 559 L 213 559 L 213 209 C 213 173 223 146 243 130 C 263 114 290 106 324 106 C 357 106 384 115 405 135 C 426 155 437 181 437 214 L 437 559 L 578 559 L 578 0 L 451 0 L 451 98 C 441 69 421 43 389 21 C 357 -1 317 -13 267 -13 C 240 -13 215 -9 191 -1 C 167 6 146 17 129 31 C 111 45 97 63 87 84 C 77 105 72 129 72 157 L 72 559 Z M 326 606 L 326 606 Z M 385 768 L 500 768 C 495 712 477 671 445 645 C 413 619 373 606 326 606 C 278 606 239 619 207 645 C 175 671 156 712 152 768 L 267 768 C 268 743 273 724 283 710 C 292 696 306 689 326 689 C 345 689 359 695 369 709 C 378 722 383 742 385 768 Z" unicode="ŭ" />
<glyph horiz-adv-x="778" d="M 83 0 L 83 0 Z M 694 730 L 694 266 C 694 222 685 183 669 149 C 653 114 631 85 603 61 C 575 37 542 19 505 7 C 468 -5 429 -12 388 -12 C 347 -12 308 -6 271 6 C 234 18 202 35 174 59 C 146 83 124 112 108 147 C 91 181 83 221 83 266 L 83 730 L 229 730 L 229 273 C 229 225 244 187 275 161 C 306 134 343 121 387 121 C 431 121 468 134 500 160 C 532 186 548 223 548 273 L 548 730 L 694 730 Z M 389 774 L 389 774 Z M 389 774 C 354 774 324 786 300 811 C 275 835 263 865 263 901 C 263 935 275 965 300 990 C 324 1014 354 1027 389 1027 C 424 1027 454 1014 479 990 C 503 965 516 935 516 901 C 516 865 503 835 479 811 C 454 786 424 774 389 774 Z M 389 851 C 403 851 414 855 424 865 C 433 874 438 886 438 901 C 438 914 433 926 424 936 C 414 946 403 951 389 951 C 375 951 364 946 354 936 C 344 926 340 914 340 901 C 340 886 344 874 354 865 C 364 855 375 851 389 851 Z" unicode="Ů" />
<glyph horiz-adv-x="657" d="M 72 0 L 72 0 Z M 72 559 L 213 559 L 213 209 C 213 173 223 146 243 130 C 263 114 290 106 324 106 C 357 106 384 115 405 135 C 426 155 437 181 437 214 L 437 559 L 578 559 L 578 0 L 451 0 L 451 98 C 441 69 421 43 389 21 C 357 -1 317 -13 267 -13 C 240 -13 215 -9 191 -1 C 167 6 146 17 129 31 C 111 45 97 63 87 84 C 77 105 72 129 72 157 L 72 559 Z M 326 603 L 326 603 Z M 326 603 C 291 603 261 615 237 640 C 212 664 200 694 200 730 C 200 764 212 794 237 819 C 261 843 291 856 326 856 C 361 856 391 843 416 819 C 440 794 453 764 453 730 C 453 694 440 664 416 640 C 391 615 361 603 326 603 Z M 326 680 C 340 680 351 684 361 694 C 370 703 375 715 375 730 C 375 743 370 755 361 765 C 351 775 340 780 326 780 C 312 780 301 775 291 765 C 281 755 277 743 277 730 C 277 715 281 703 291 694 C 301 684 312 680 326 680 Z" unicode="ů" />
<glyph horiz-adv-x="778" d="M 83 0 L 83 0 Z M 694 730 L 694 266 C 694 222 685 183 669 149 C 653 114 631 85 603 61 C 575 37 542 19 505 7 C 468 -5 429 -12 388 -12 C 347 -12 308 -6 271 6 C 234 18 202 35 174 59 C 146 83 124 112 108 147 C 91 181 83 221 83 266 L 83 730 L 229 730 L 229 273 C 229 225 244 187 275 161 C 306 134 343 121 387 121 C 431 121 468 134 500 160 C 532 186 548 223 548 273 L 548 730 L 694 730 Z M 389 776 L 389 776 Z M 162 776 L 258 928 L 404 928 L 283 776 L 162 776 Z M 374 776 L 471 928 L 617 928 L 495 776 L 374 776 Z" unicode="Ű" />
<glyph horiz-adv-x="657" d="M 72 0 L 72 0 Z M 72 559 L 213 559 L 213 209 C 213 173 223 146 243 130 C 263 114 290 106 324 106 C 357 106 384 115 405 135 C 426 155 437 181 437 214 L 437 559 L 578 559 L 578 0 L 451 0 L 451 98 C 441 69 421 43 389 21 C 357 -1 317 -13 267 -13 C 240 -13 215 -9 191 -1 C 167 6 146 17 129 31 C 111 45 97 63 87 84 C 77 105 72 129 72 157 L 72 559 Z M 326 605 L 326 605 Z M 99 605 L 195 757 L 341 757 L 220 605 L 99 605 Z M 311 605 L 408 757 L 554 757 L 432 605 L 311 605 Z" unicode="ű" />
<glyph horiz-adv-x="778" d="M 83 0 L 83 0 Z M 694 730 L 694 266 C 694 222 685 183 669 149 C 653 114 631 85 603 61 C 575 37 542 19 505 7 C 468 -5 429 -12 388 -12 C 347 -12 308 -6 271 6 C 234 18 202 35 174 59 C 146 83 124 112 108 147 C 91 181 83 221 83 266 L 83 730 L 229 730 L 229 273 C 229 225 244 187 275 161 C 306 134 343 121 387 121 C 431 121 468 134 500 160 C 532 186 548 223 548 273 L 548 730 L 694 730 Z M 448 -5 L 448 -5 Z M 548 -73 L 584 -130 C 562 -153 538 -170 513 -182 C 487 -193 459 -199 427 -199 C 391 -199 362 -191 342 -177 C 322 -162 312 -143 312 -120 C 312 -96 321 -74 341 -52 C 361 -30 387 -12 421 3 L 493 3 C 472 -7 456 -18 445 -30 C 434 -42 429 -53 429 -64 C 429 -74 433 -83 442 -89 C 450 -95 461 -99 474 -99 C 489 -99 503 -96 516 -91 C 528 -86 539 -80 548 -73 Z" unicode="Ų" />
<glyph horiz-adv-x="657" d="M 72 0 L 72 0 Z M 72 559 L 213 559 L 213 209 C 213 173 223 146 243 130 C 263 114 290 106 324 106 C 357 106 384 115 405 135 C 426 155 437 181 437 214 L 437 559 L 578 559 L 578 0 L 451 0 L 451 98 C 441 69 421 43 389 21 C 357 -1 317 -13 267 -13 C 240 -13 215 -9 191 -1 C 167 6 146 17 129 31 C 111 45 97 63 87 84 C 77 105 72 129 72 157 L 72 559 Z M 488 -4 L 488 -4 Z M 588 -72 L 624 -129 C 602 -152 578 -169 553 -181 C 527 -192 499 -198 467 -198 C 431 -198 402 -190 382 -176 C 362 -161 352 -142 352 -119 C 352 -95 361 -73 381 -51 C 401 -29 427 -11 461 4 L 533 4 C 512 -6 496 -17 485 -29 C 474 -41 469 -52 469 -63 C 469 -73 473 -82 482 -88 C 490 -94 501 -98 514 -98 C 529 -98 543 -95 556 -90 C 568 -85 579 -79 588 -72 Z" unicode="ų" />
<glyph horiz-adv-x="947" d="M 6 0 L 6 0 Z M 941 730 L 715 -3 L 628 -3 L 475 473 L 314 -3 L 227 -3 L 6 730 L 161 730 L 294 275 L 437 730 L 524 730 L 671 272 L 803 730 L 941 730 Z M 474 777 L 474 777 Z M 668 777 L 540 777 L 474 868 L 406 777 L 280 777 L 403 950 L 545 950 L 668 777 Z" unicode="Ŵ" />
<glyph horiz-adv-x="810" d="M 0 0 L 0 0 Z M 533 -3 L 411 310 L 276 -3 L 194 -3 L -2 559 L 145 559 L 258 209 L 377 519 L 464 519 L 572 212 L 683 559 L 812 559 L 616 -3 L 533 -3 Z M 417 606 L 417 606 Z M 611 606 L 483 606 L 417 697 L 349 606 L 223 606 L 346 779 L 488 779 L 611 606 Z" unicode="ŵ" />
<glyph horiz-adv-x="697" d="M 0 0 L 0 0 Z M 702 730 L 420 292 L 420 0 L 270 0 L 270 299 L -5 730 L 163 730 L 353 430 L 544 730 L 702 730 Z M 353 777 L 353 777 Z M 547 777 L 419 777 L 353 868 L 285 777 L 159 777 L 282 950 L 424 950 L 547 777 Z" unicode="Ŷ" />
<glyph horiz-adv-x="591" d="M 0 0 L 0 0 Z M 597 559 L 306 -65 C 294 -90 279 -111 263 -129 C 246 -146 228 -160 209 -170 C 190 -180 171 -188 151 -193 C 131 -197 111 -200 93 -200 C 72 -200 55 -197 41 -193 C 27 -188 17 -184 11 -182 L 52 -67 C 56 -69 62 -72 71 -74 C 79 -76 89 -78 99 -78 C 117 -78 132 -72 146 -62 C 160 -51 173 -34 186 -11 L 221 54 L -7 559 L 145 559 L 296 212 L 452 559 L 597 559 Z M 296 606 L 296 606 Z M 490 606 L 362 606 L 296 697 L 228 606 L 102 606 L 225 779 L 367 779 L 490 606 Z" unicode="ŷ" />
<glyph horiz-adv-x="697" d="M 0 0 L 0 0 Z M 702 730 L 420 292 L 420 0 L 270 0 L 270 299 L -5 730 L 163 730 L 353 430 L 544 730 L 702 730 Z M 353 777 L 353 777 Z M 511 777 L 394 777 L 394 938 L 511 938 L 511 777 Z M 312 777 L 195 777 L 195 938 L 312 938 L 312 777 Z" unicode="Ÿ" />
<glyph horiz-adv-x="606" d="M 20 0 L 20 0 Z M 576 730 L 576 666 L 218 125 L 586 125 L 586 0 L 20 0 L 20 61 L 372 604 L 39 604 L 39 730 L 576 730 Z M 305 783 L 305 783 Z M 172 783 L 274 942 L 440 942 L 312 783 L 172 783 Z" unicode="Ź" />
<glyph horiz-adv-x="515" d="M 17 0 L 17 0 Z M 484 559 L 484 497 L 219 120 L 504 120 L 504 0 L 17 0 L 17 60 L 284 439 L 27 439 L 27 559 L 484 559 Z M 262 612 L 262 612 Z M 129 612 L 231 771 L 397 771 L 269 612 L 129 612 Z" unicode="ź" />
<glyph horiz-adv-x="606" d="M 20 0 L 20 0 Z M 576 730 L 576 666 L 218 125 L 586 125 L 586 0 L 20 0 L 20 61 L 372 604 L 39 604 L 39 730 L 576 730 Z M 305 777 L 305 777 Z M 368 777 L 243 777 L 243 942 L 368 942 L 368 777 Z" unicode="Ż" />
<glyph horiz-adv-x="515" d="M 17 0 L 17 0 Z M 484 559 L 484 497 L 219 120 L 504 120 L 504 0 L 17 0 L 17 60 L 284 439 L 27 439 L 27 559 L 484 559 Z M 262 606 L 262 606 Z M 325 606 L 200 606 L 200 771 L 325 771 L 325 606 Z" unicode="ż" />
<glyph horiz-adv-x="606" d="M 20 0 L 20 0 Z M 576 730 L 576 666 L 218 125 L 586 125 L 586 0 L 20 0 L 20 61 L 372 604 L 39 604 L 39 730 L 576 730 Z M 305 777 L 305 777 Z M 111 950 L 239 950 L 306 859 L 373 950 L 499 950 L 376 777 L 234 777 L 111 950 Z" unicode="Ž" />
<glyph horiz-adv-x="515" d="M 17 0 L 17 0 Z M 484 559 L 484 497 L 219 120 L 504 120 L 504 0 L 17 0 L 17 60 L 284 439 L 27 439 L 27 559 L 484 559 Z" unicode="ž" />
<glyph horiz-adv-x="394" d="M 213 -47 C 211 -63 207 -78 200 -94 C 193 -110 184 -124 172 -137 C 160 -149 147 -159 131 -167 C 115 -175 97 -179 77 -179 C 54 -179 33 -177 13 -173 C -7 -169 -22 -164 -33 -159 L -20 -61 C -15 -61 -8 -63 1 -65 C 11 -67 20 -68 29 -68 C 47 -68 63 -62 75 -50 C 87 -38 95 -20 97 3 L 126 321 L 31 321 L 31 426 L 135 426 L 152 615 C 154 636 159 655 168 671 C 177 687 188 701 201 712 C 214 723 229 731 245 737 C 261 742 276 745 291 745 C 306 745 322 744 339 743 C 355 742 365 741 368 741 L 359 622 C 357 622 353 623 347 624 C 341 624 335 625 329 625 C 310 625 295 618 283 606 C 271 593 265 573 263 547 L 253 426 L 353 426 L 353 321 L 244 321 L 213 -47 Z" unicode="ƒ" />
<glyph horiz-adv-x="635" d="M 34 0 L 34 0 Z M 319 -12 C 254 -12 198 -3 151 12 C 103 28 64 50 34 77 L 118 195 C 138 174 167 155 204 137 C 240 119 280 111 324 111 C 354 111 380 117 400 131 C 420 144 430 162 430 185 C 430 208 420 228 402 245 C 383 261 347 280 293 301 C 249 317 212 333 182 349 C 152 364 127 381 109 399 C 91 417 78 438 70 462 C 62 485 58 512 58 544 C 58 605 81 653 129 689 C 176 724 237 742 313 742 C 373 742 422 733 462 715 C 502 697 534 679 558 660 L 485 538 C 458 558 429 575 399 589 C 369 603 337 610 305 610 C 275 610 251 604 234 592 C 217 580 209 564 209 544 C 209 519 221 499 245 483 C 269 467 310 447 368 425 C 406 410 439 395 467 381 C 495 366 517 350 535 333 C 552 315 565 296 573 274 C 581 252 585 226 585 196 C 585 162 577 133 563 107 C 549 81 529 60 505 42 C 481 24 452 11 420 2 C 388 -7 354 -12 319 -12 Z M 308 -67 L 308 -67 Z M 421 -67 C 419 -102 414 -136 406 -170 C 398 -203 388 -233 376 -261 C 364 -288 352 -311 338 -331 C 324 -351 312 -364 300 -372 L 196 -326 C 203 -318 211 -305 220 -287 C 228 -269 237 -248 245 -224 C 253 -200 260 -175 266 -147 C 272 -119 276 -93 278 -67 L 421 -67 Z" unicode="Ș" />
<glyph horiz-adv-x="548" d="M 40 0 L 40 0 Z M 300 -11 C 244 -11 195 -4 151 8 C 107 21 70 38 40 59 L 99 154 C 127 139 160 126 196 116 C 232 106 264 101 293 101 C 316 101 335 106 349 117 C 363 127 370 141 370 158 C 370 172 361 185 343 196 C 325 207 294 219 248 232 C 179 250 131 274 103 305 C 75 335 62 371 62 412 C 62 436 67 459 79 479 C 90 499 105 515 125 529 C 144 543 167 553 194 561 C 220 568 249 572 280 572 C 340 572 389 564 425 550 C 461 535 488 521 506 509 L 456 404 C 428 419 401 432 375 443 C 348 454 320 460 292 460 C 268 460 248 455 232 446 C 216 437 208 425 208 410 C 208 402 209 395 212 389 C 214 383 220 377 228 372 C 236 366 249 361 265 355 C 281 349 302 343 329 335 C 391 317 437 295 468 269 C 499 243 515 208 515 164 C 515 136 509 112 498 90 C 487 68 472 50 453 35 C 434 20 411 9 385 1 C 359 -7 330 -11 300 -11 Z M 272 -61 L 272 -61 Z M 385 -61 C 383 -96 378 -130 370 -164 C 362 -197 352 -227 340 -255 C 328 -282 316 -305 302 -325 C 288 -345 276 -358 264 -366 L 160 -320 C 167 -312 175 -299 184 -281 C 192 -263 201 -242 209 -218 C 217 -194 224 -169 230 -141 C 236 -113 240 -87 242 -61 L 385 -61 Z" unicode="ș" />
<glyph horiz-adv-x="589" d="M 10 0 L 10 0 Z M 579 604 L 367 604 L 367 0 L 217 0 L 217 604 L 10 604 L 10 730 L 579 730 L 579 604 Z M 259 -61 L 259 -61 Z M 372 -61 C 370 -96 365 -130 357 -164 C 349 -197 339 -227 327 -255 C 315 -282 303 -305 289 -325 C 275 -345 263 -358 251 -366 L 147 -320 C 154 -312 162 -299 171 -281 C 179 -263 188 -242 196 -218 C 204 -194 211 -169 217 -141 C 223 -113 227 -87 229 -61 L 372 -61 Z" unicode="Ț" />
<glyph horiz-adv-x="409" d="M 10 0 L 10 0 Z M 381 137 L 403 23 C 388 13 368 5 344 1 C 320 -3 298 -6 278 -6 C 222 -6 176 9 140 41 C 104 73 87 121 87 186 L 87 443 L 10 443 L 10 559 L 87 559 L 87 699 L 227 716 L 227 559 L 376 559 L 376 443 L 227 443 L 227 196 C 227 171 232 152 243 138 C 254 124 272 117 296 117 C 314 117 331 119 346 124 C 360 128 372 133 381 137 Z M 199 -61 L 199 -61 Z M 312 -61 C 310 -96 305 -130 297 -164 C 289 -197 279 -227 267 -255 C 255 -282 243 -305 229 -325 C 215 -345 203 -358 191 -366 L 87 -320 C 94 -312 102 -299 111 -281 C 119 -263 128 -242 136 -218 C 144 -194 151 -169 157 -141 C 163 -113 167 -87 169 -61 L 312 -61 Z" unicode="ț" />
<glyph horiz-adv-x="338" d="M 265 559 L 265 6 C 265 -28 260 -58 250 -84 C 240 -110 226 -132 208 -150 C 190 -167 170 -180 146 -189 C 122 -197 96 -202 68 -202 C 44 -202 16 -199 -13 -193 C -43 -187 -69 -179 -91 -169 L -62 -62 C -50 -68 -34 -74 -16 -79 C 2 -83 23 -86 45 -86 C 71 -86 91 -75 104 -54 C 117 -32 124 -6 124 24 L 124 559 L 265 559 Z" unicode="ȷ" />
<glyph horiz-adv-x="500" d="M 444 606 L 316 606 L 250 697 L 182 606 L 56 606 L 179 779 L 321 779 L 444 606 Z" unicode="ˆ" />
<glyph horiz-adv-x="500" d="M 56 779 L 184 779 L 251 688 L 318 779 L 444 779 L 321 606 L 179 606 L 56 779 Z" unicode="ˇ" />
<glyph horiz-adv-x="500" d="M 309 768 L 424 768 C 419 712 401 671 369 645 C 337 619 297 606 250 606 C 202 606 163 619 131 645 C 99 671 80 712 76 768 L 191 768 C 192 743 197 724 207 710 C 216 696 230 689 250 689 C 269 689 283 695 293 709 C 302 722 307 742 309 768 Z" unicode="˘" />
<glyph horiz-adv-x="500" d="M 313 606 L 188 606 L 188 771 L 313 771 L 313 606 Z" unicode="˙" />
<glyph horiz-adv-x="514" d="M 257 603 C 222 603 192 615 168 640 C 143 664 131 694 131 730 C 131 764 143 794 168 819 C 192 843 222 856 257 856 C 292 856 322 843 347 819 C 371 794 384 764 384 730 C 384 694 371 664 347 640 C 322 615 292 603 257 603 Z M 257 680 C 271 680 282 684 292 694 C 301 703 306 715 306 730 C 306 743 301 755 292 765 C 282 775 271 780 257 780 C 243 780 232 775 222 765 C 212 755 208 743 208 730 C 208 715 212 703 222 694 C 232 684 243 680 257 680 Z" unicode="˚" />
<glyph horiz-adv-x="500" d="M 361 -68 L 397 -125 C 375 -148 351 -165 326 -177 C 300 -188 272 -194 240 -194 C 204 -194 175 -186 155 -172 C 135 -157 125 -138 125 -115 C 125 -91 134 -69 154 -47 C 174 -25 200 -7 234 8 L 306 8 C 285 -2 269 -13 258 -25 C 247 -37 242 -48 242 -59 C 242 -69 246 -78 255 -84 C 263 -90 274 -94 287 -94 C 302 -94 316 -91 329 -86 C 341 -81 352 -75 361 -68 Z" unicode="˛" />
<glyph horiz-adv-x="500" d="M 335 761 L 447 761 C 447 709 438 670 421 645 C 404 620 381 608 351 608 C 333 608 317 611 303 617 C 289 623 275 629 263 637 C 253 643 243 650 233 657 C 223 664 214 668 204 668 C 195 668 188 663 183 654 C 177 644 174 630 174 612 L 65 612 C 65 637 68 659 74 679 C 80 698 89 714 99 727 C 109 739 121 749 134 755 C 146 761 159 765 171 765 C 189 765 204 762 217 756 C 230 750 242 742 254 734 C 263 727 271 721 279 716 C 287 710 295 708 303 708 C 311 708 319 712 325 721 C 331 729 334 743 335 761 Z" unicode="˜" />
<glyph horiz-adv-x="500" d="M 41 605 L 137 757 L 283 757 L 162 605 L 41 605 Z M 253 605 L 350 757 L 496 757 L 374 605 L 253 605 Z" unicode="˝" />
<glyph horiz-adv-x="0" d="M 0 605 L 0 605 Z M 135 605 L -5 605 L -134 765 L 31 765 L 135 605 Z" unicode="̀" />
<glyph horiz-adv-x="0" d="M 0 612 L 0 612 Z M -133 612 L -31 771 L 135 771 L 7 612 L -133 612 Z" unicode="́" />
<glyph horiz-adv-x="0" d="M 0 606 L 0 606 Z M 194 606 L 66 606 L 0 697 L -68 606 L -194 606 L -71 779 L 71 779 L 194 606 Z" unicode="̂" />
<glyph horiz-adv-x="0" d="M 0 608 L 0 608 Z M 79 761 L 191 761 C 191 709 182 670 165 645 C 148 620 125 608 95 608 C 77 608 61 611 47 617 C 33 623 19 629 7 637 C -3 643 -12 650 -22 657 C -32 664 -42 668 -52 668 C -60 668 -67 663 -73 654 C -78 644 -81 630 -82 612 L -191 612 C -191 637 -187 659 -181 679 C -175 698 -166 714 -156 727 C -146 739 -134 749 -122 755 C -109 761 -97 765 -85 765 C -67 765 -51 762 -38 756 C -25 750 -13 742 -2 734 C 7 727 15 721 23 716 C 31 710 39 708 47 708 C 55 708 63 712 69 721 C 75 729 78 743 79 761 Z" unicode="̃" />
<glyph horiz-adv-x="0" d="M 0 610 L 0 610 Z M 143 610 L -143 610 L -143 721 L 143 721 L 143 610 Z" unicode="̄" />
<glyph horiz-adv-x="0" d="M 0 606 L 0 606 Z M 59 768 L 174 768 C 169 712 151 671 119 645 C 87 619 47 606 0 606 C -47 606 -87 619 -119 645 C -151 671 -169 712 -174 768 L -59 768 C -57 743 -52 724 -43 710 C -33 696 -19 689 0 689 C 19 689 33 695 43 709 C 52 722 57 742 59 768 Z" unicode="̆" />
<glyph horiz-adv-x="0" d="M 0 606 L 0 606 Z M 63 606 L -62 606 L -62 771 L 63 771 L 63 606 Z" unicode="̇" />
<glyph horiz-adv-x="0" d="M 0 606 L 0 606 Z M 158 606 L 41 606 L 41 767 L 158 767 L 158 606 Z M -41 606 L -158 606 L -158 767 L -41 767 L -41 606 Z" unicode="̈" />
<glyph horiz-adv-x="0" d="M 0 603 L 0 603 Z M 0 603 C -34 603 -64 615 -89 640 C -113 664 -126 694 -126 730 C -126 764 -113 794 -89 819 C -64 843 -34 856 0 856 C 35 856 65 843 90 819 C 114 794 127 764 127 730 C 127 694 114 664 90 640 C 65 615 35 603 0 603 Z M 0 680 C 14 680 25 684 35 694 C 44 703 49 715 49 730 C 49 743 44 755 35 765 C 25 775 14 780 0 780 C -13 780 -24 775 -34 765 C -44 755 -49 743 -49 730 C -49 715 -44 703 -34 694 C -24 684 -13 680 0 680 Z" unicode="̊" />
<glyph horiz-adv-x="0" d="M 0 605 L 0 605 Z M -227 605 L -131 757 L 15 757 L -106 605 L -227 605 Z M -15 605 L 82 757 L 228 757 L 106 605 L -15 605 Z" unicode="̋" />
<glyph horiz-adv-x="0" d="M 0 606 L 0 606 Z M -194 779 L -66 779 L 1 688 L 68 779 L 194 779 L 71 606 L -71 606 L -194 779 Z" unicode="̌" />
<glyph horiz-adv-x="0" d="M 0 -61 L 0 -61 Z M 113 -61 C 111 -96 106 -130 98 -164 C 90 -197 80 -227 68 -255 C 56 -282 44 -305 30 -325 C 16 -345 4 -358 -8 -366 L -112 -320 C -104 -312 -96 -299 -88 -281 C -79 -263 -71 -242 -63 -218 C -55 -194 -48 -169 -42 -141 C -36 -113 -32 -87 -30 -61 L 113 -61 Z" unicode="̦" />
<glyph horiz-adv-x="0" d="M 0 0 L 0 0 Z M 9 -193 C -17 -193 -44 -190 -72 -184 C -99 -178 -120 -170 -134 -161 L -117 -102 C -108 -105 -96 -109 -82 -113 C -68 -117 -53 -120 -38 -120 C -27 -120 -18 -117 -10 -113 C -2 -109 1 -103 1 -95 C 1 -86 -2 -80 -9 -76 C -16 -72 -24 -71 -32 -71 C -38 -71 -43 -71 -48 -72 C -52 -73 -57 -74 -62 -76 L -79 -58 L -18 14 L 66 14 L 19 -43 C 52 -39 79 -43 101 -57 C 122 -71 133 -90 133 -115 C 133 -141 120 -161 95 -174 C 69 -186 41 -193 9 -193 Z" unicode="̧" />
<glyph horiz-adv-x="0" d="M 0 0 L 0 0 Z M 100 -68 L 136 -125 C 114 -148 90 -165 65 -177 C 39 -188 11 -194 -21 -194 C -57 -194 -85 -186 -105 -172 C -125 -157 -136 -138 -136 -115 C -136 -91 -126 -69 -106 -47 C -86 -25 -60 -7 -27 8 L 45 8 C 24 -2 8 -13 -2 -25 C -13 -37 -19 -48 -19 -59 C -19 -69 -14 -78 -6 -84 C 2 -90 13 -94 26 -94 C 41 -94 55 -91 68 -86 C 80 -81 91 -75 100 -68 Z" unicode="̨" />
<glyph horiz-adv-x="539" d="M 0 0 L 0 0 Z M 658 0 L -2 0 L 297 732 L 364 732 L 658 0 Z M 469 110 L 323 493 L 179 110 L 469 110 Z" unicode="Δ" />
<glyph horiz-adv-x="724" d="M 25 0 L 25 0 Z M 34 0 L 34 127 L 242 127 L 242 172 C 212 180 183 193 157 210 C 131 227 108 248 88 272 C 68 296 53 323 42 353 C 30 383 25 416 25 451 C 25 491 33 530 49 566 C 65 602 89 634 120 661 C 150 688 188 709 233 725 C 277 741 328 749 384 749 C 442 749 493 741 539 725 C 585 709 623 688 654 661 C 685 634 709 602 726 566 C 742 530 751 492 751 452 C 751 380 732 321 696 273 C 659 225 605 191 534 172 L 534 127 L 741 127 L 741 0 L 435 0 L 435 246 C 487 261 527 286 556 322 C 584 357 599 397 599 443 C 599 470 593 495 582 518 C 570 541 555 561 536 578 C 517 594 495 607 469 617 C 443 626 415 631 386 631 C 357 631 330 626 305 617 C 279 607 257 594 239 578 C 220 561 205 541 194 518 C 183 494 178 469 178 441 C 178 397 191 358 219 324 C 247 290 288 264 342 246 L 342 0 L 34 0 Z" unicode="Ω" />
<glyph horiz-adv-x="581" d="M 72 0 L 72 0 Z M 72 -159 L 72 559 L 209 559 L 209 189 C 209 168 218 148 237 130 C 256 112 281 103 313 103 C 339 103 364 115 387 139 C 409 163 421 193 421 227 L 421 559 L 558 559 L 558 0 L 432 0 L 432 79 C 419 56 398 37 368 22 C 338 7 309 -1 279 -4 C 262 -4 246 -2 231 3 C 215 9 204 17 198 28 L 198 -159 L 72 -159 Z" unicode="μ" />
<glyph horiz-adv-x="647" d="M 217 452 L 217 0 L 81 0 L 81 452 L 16 452 L 16 559 L 631 559 L 631 452 L 564 452 L 564 0 L 427 0 L 427 452 L 217 452 Z" unicode="π" />
<glyph horiz-adv-x="947" d="M 6 0 L 6 0 Z M 941 730 L 715 -3 L 628 -3 L 475 473 L 314 -3 L 227 -3 L 6 730 L 161 730 L 294 275 L 437 730 L 524 730 L 671 272 L 803 730 L 941 730 Z M 474 776 L 474 776 Z M 609 776 L 469 776 L 340 936 L 505 936 L 609 776 Z" unicode="Ẁ" />
<glyph horiz-adv-x="810" d="M 0 0 L 0 0 Z M 533 -3 L 411 310 L 276 -3 L 194 -3 L -2 559 L 145 559 L 258 209 L 377 519 L 464 519 L 572 212 L 683 559 L 812 559 L 616 -3 L 533 -3 Z M 417 605 L 417 605 Z M 552 605 L 412 605 L 283 765 L 448 765 L 552 605 Z" unicode="ẁ" />
<glyph horiz-adv-x="947" d="M 6 0 L 6 0 Z M 941 730 L 715 -3 L 628 -3 L 475 473 L 314 -3 L 227 -3 L 6 730 L 161 730 L 294 275 L 437 730 L 524 730 L 671 272 L 803 730 L 941 730 Z M 474 783 L 474 783 Z M 341 783 L 443 942 L 609 942 L 481 783 L 341 783 Z" unicode="Ẃ" />
<glyph horiz-adv-x="810" d="M 0 0 L 0 0 Z M 533 -3 L 411 310 L 276 -3 L 194 -3 L -2 559 L 145 559 L 258 209 L 377 519 L 464 519 L 572 212 L 683 559 L 812 559 L 616 -3 L 533 -3 Z M 417 612 L 417 612 Z M 284 612 L 386 771 L 552 771 L 424 612 L 284 612 Z" unicode="ẃ" />
<glyph horiz-adv-x="947" d="M 6 0 L 6 0 Z M 941 730 L 715 -3 L 628 -3 L 475 473 L 314 -3 L 227 -3 L 6 730 L 161 730 L 294 275 L 437 730 L 524 730 L 671 272 L 803 730 L 941 730 Z M 474 777 L 474 777 Z M 632 777 L 515 777 L 515 938 L 632 938 L 632 777 Z M 433 777 L 316 777 L 316 938 L 433 938 L 433 777 Z" unicode="Ẅ" />
<glyph horiz-adv-x="810" d="M 0 0 L 0 0 Z M 533 -3 L 411 310 L 276 -3 L 194 -3 L -2 559 L 145 559 L 258 209 L 377 519 L 464 519 L 572 212 L 683 559 L 812 559 L 616 -3 L 533 -3 Z M 417 606 L 417 606 Z M 575 606 L 458 606 L 458 767 L 575 767 L 575 606 Z M 376 606 L 259 606 L 259 767 L 376 767 L 376 606 Z" unicode="ẅ" />
<glyph horiz-adv-x="697" d="M 0 0 L 0 0 Z M 702 730 L 420 292 L 420 0 L 270 0 L 270 299 L -5 730 L 163 730 L 353 430 L 544 730 L 702 730 Z M 353 776 L 353 776 Z M 488 776 L 348 776 L 219 936 L 384 936 L 488 776 Z" unicode="Ỳ" />
<glyph horiz-adv-x="591" d="M 0 0 L 0 0 Z M 597 559 L 306 -65 C 294 -90 279 -111 263 -129 C 246 -146 228 -160 209 -170 C 190 -180 171 -188 151 -193 C 131 -197 111 -200 93 -200 C 72 -200 55 -197 41 -193 C 27 -188 17 -184 11 -182 L 52 -67 C 56 -69 62 -72 71 -74 C 79 -76 89 -78 99 -78 C 117 -78 132 -72 146 -62 C 160 -51 173 -34 186 -11 L 221 54 L -7 559 L 145 559 L 296 212 L 452 559 L 597 559 Z M 296 605 L 296 605 Z M 431 605 L 291 605 L 162 765 L 327 765 L 431 605 Z" unicode="ỳ" />
<glyph horiz-adv-x="461" d="M 423 217 L 38 217 L 38 337 L 423 337 L 423 217 Z" unicode="–" />
<glyph horiz-adv-x="646" d="M 608 217 L 38 217 L 38 337 L 608 337 L 608 217 Z" unicode="—" />
<glyph horiz-adv-x="314" d="M 31 507 L 31 514 C 31 550 42 589 66 629 C 89 669 120 705 160 737 L 301 731 C 291 725 279 715 265 701 C 251 687 237 670 225 651 C 212 631 201 610 192 587 C 183 563 179 539 179 515 L 179 507 L 31 507 Z" unicode="‘" />
<glyph horiz-adv-x="314" d="M 283 737 L 283 730 C 283 693 271 655 247 616 C 223 577 192 541 154 507 L 13 513 C 23 521 35 532 49 546 C 63 560 76 577 89 596 C 101 614 112 635 121 658 C 130 680 135 704 135 729 L 135 737 L 283 737 Z" unicode="’" />
<glyph horiz-adv-x="314" d="M 283 118 L 283 111 C 283 74 271 36 247 -2 C 223 -41 192 -78 154 -112 L 13 -106 C 23 -98 35 -86 49 -72 C 63 -58 76 -41 89 -23 C 101 -4 112 16 121 39 C 130 61 135 85 135 110 L 135 118 L 283 118 Z" unicode="‚" />
<glyph horiz-adv-x="509" d="M 246 507 L 246 514 C 246 550 257 587 280 625 C 303 663 335 700 375 737 L 495 731 C 485 722 473 710 459 696 C 445 682 431 665 418 647 C 405 628 394 607 385 585 C 375 563 371 539 371 515 L 371 507 L 246 507 Z M 31 507 L 31 514 C 31 550 43 587 67 625 C 91 663 122 700 160 737 L 281 731 C 272 723 261 711 247 697 C 233 683 219 666 206 648 C 192 629 181 608 171 586 C 161 563 157 539 157 515 L 157 507 L 31 507 Z" unicode="“" />
<glyph horiz-adv-x="509" d="M 263 737 L 263 730 C 263 693 252 656 230 618 C 208 580 176 543 134 507 L 13 513 C 24 522 37 534 51 549 C 65 563 79 580 92 598 C 104 616 115 637 124 659 C 132 681 137 704 137 729 L 137 737 L 263 737 Z M 477 737 L 477 730 C 477 693 465 655 442 617 C 419 579 388 542 348 507 L 228 513 C 240 523 253 535 267 549 C 281 563 295 580 307 598 C 319 616 330 637 339 659 C 347 681 352 704 352 729 L 352 737 L 477 737 Z" unicode="”" />
<glyph horiz-adv-x="509" d="M 263 125 L 263 118 C 263 81 252 44 230 6 C 208 -31 176 -68 134 -105 L 13 -99 C 24 -89 37 -77 51 -63 C 65 -48 79 -31 92 -13 C 104 4 115 25 124 47 C 132 69 137 92 137 117 L 137 125 L 263 125 Z M 477 125 L 477 118 C 477 81 465 43 442 5 C 419 -32 388 -69 348 -105 L 228 -99 C 240 -89 253 -76 267 -62 C 281 -48 295 -31 307 -13 C 319 4 330 25 339 47 C 347 69 352 92 352 117 L 352 125 L 477 125 Z" unicode="„" />
<glyph horiz-adv-x="565" d="M 540 360 L 352 360 L 352 -179 L 207 -179 L 207 360 L 25 360 L 25 470 L 207 470 L 207 730 L 352 730 L 352 470 L 540 470 L 540 360 Z" unicode="†" />
<glyph horiz-adv-x="565" d="M 208 -179 L 208 91 L 32 91 L 32 201 L 208 201 L 208 374 L 32 374 L 32 484 L 208 484 L 208 730 L 352 730 L 352 484 L 533 484 L 533 374 L 352 374 L 352 201 L 533 201 L 533 91 L 352 91 L 352 -179 L 208 -179 Z" unicode="‡" />
<glyph horiz-adv-x="383" d="M 191 504 C 225 504 255 491 279 467 C 303 443 316 413 316 379 C 316 345 303 315 279 291 C 255 267 225 255 191 255 C 156 255 127 267 103 291 C 79 315 67 345 67 379 C 67 413 79 443 103 467 C 127 491 156 504 191 504 Z" unicode="•" />
<glyph horiz-adv-x="774" d="M 60 0 L 60 154 L 199 154 L 199 0 L 60 0 Z M 317 0 L 317 154 L 457 154 L 457 0 L 317 0 Z M 576 0 L 576 154 L 715 154 L 715 0 L 576 0 Z" unicode="…" />
<glyph horiz-adv-x="1368" d="M 231 335 C 204 335 179 340 155 350 C 131 360 111 374 94 392 C 76 410 62 431 52 456 C 42 481 37 508 37 537 C 37 563 41 589 51 613 C 61 637 74 659 91 678 C 108 696 128 711 152 722 C 175 733 200 739 227 739 C 255 739 280 733 304 722 C 328 711 348 697 365 679 C 381 661 394 640 404 616 C 414 592 419 566 419 540 C 419 512 414 486 405 461 C 395 436 382 414 366 396 C 349 377 329 362 306 351 C 282 340 257 335 231 335 Z M 155 0 L 674 730 L 786 730 L 266 0 L 155 0 Z M 157 537 C 157 503 163 477 177 460 C 190 443 207 435 227 435 C 249 435 267 443 280 461 C 292 479 299 504 299 537 C 299 569 293 594 281 612 C 269 630 252 639 229 639 C 206 639 188 630 176 612 C 163 594 157 569 157 537 Z M 723 -3 C 696 -3 671 2 648 12 C 624 22 604 36 586 54 C 568 72 554 93 544 118 C 534 142 529 169 529 198 C 529 224 533 250 543 274 C 553 298 566 320 583 339 C 600 357 620 372 644 383 C 667 394 692 400 719 400 C 747 400 772 394 796 383 C 820 372 840 358 857 340 C 874 322 887 301 897 277 C 907 253 912 227 912 201 C 912 173 907 147 897 123 C 887 98 874 76 858 58 C 841 39 821 24 798 13 C 775 2 750 -3 723 -3 Z M 1143 -3 C 1116 -3 1091 2 1067 12 C 1043 22 1023 36 1006 54 C 988 72 974 93 964 118 C 954 142 949 169 949 198 C 949 224 953 250 963 274 C 973 298 986 320 1003 339 C 1020 357 1040 372 1064 383 C 1087 394 1112 400 1139 400 C 1167 400 1192 394 1216 383 C 1240 372 1260 358 1277 340 C 1293 322 1306 301 1316 277 C 1326 253 1331 227 1331 201 C 1331 173 1326 147 1317 123 C 1307 98 1294 76 1278 58 C 1261 39 1241 24 1218 13 C 1194 2 1169 -3 1143 -3 Z M 719 97 C 742 97 760 105 772 123 C 784 141 791 166 791 198 C 791 230 785 256 773 274 C 761 292 744 301 721 301 C 698 301 680 292 668 274 C 656 256 650 230 650 198 C 650 164 656 139 669 122 C 682 105 699 97 719 97 Z M 1139 97 C 1161 97 1179 105 1192 123 C 1204 141 1211 166 1211 198 C 1211 230 1205 256 1193 274 C 1181 292 1164 301 1141 301 C 1118 301 1100 292 1088 274 C 1075 256 1069 230 1069 198 C 1069 164 1075 139 1089 122 C 1102 105 1119 97 1139 97 Z" unicode="‰" />
<glyph horiz-adv-x="257" d="M 229 101 L 25 274 L 25 353 L 229 523 L 229 389 L 144 310 L 229 238 L 229 101 Z" unicode="‹" />
<glyph horiz-adv-x="258" d="M 28 525 L 233 352 L 233 274 L 28 104 L 28 237 L 112 316 L 28 388 L 28 525 Z" unicode="›" />
<glyph horiz-adv-x="145" d="M 310 730 L -36 0 L -145 0 L 201 730 L 310 730 Z" unicode="⁄" />
<glyph horiz-adv-x="332" d="M 13 453 L 13 522 L 192 735 L 264 735 L 264 526 L 318 526 L 318 453 L 264 453 L 264 373 L 165 373 L 165 453 L 13 453 Z M 93 516 L 167 516 L 167 606 L 93 516 Z" unicode="⁴" />
<glyph horiz-adv-x="564" d="M 562 113 C 542 75 511 44 470 22 C 428 0 383 -12 335 -12 C 270 -12 216 10 172 56 C 128 101 99 163 85 241 L 29 241 L 29 324 L 76 324 C 75 330 75 336 75 342 C 75 348 75 354 75 360 C 75 366 75 371 75 377 C 75 383 75 388 76 394 L 29 394 L 29 478 L 84 478 C 90 516 99 552 113 585 C 126 617 143 645 164 668 C 184 691 209 709 237 722 C 265 735 298 742 334 742 C 398 742 447 729 482 705 C 517 681 542 653 557 623 L 446 566 C 435 585 421 601 403 613 C 385 625 362 631 334 631 C 301 631 274 619 254 595 C 234 571 220 532 212 478 L 497 478 L 497 394 L 205 394 C 205 389 205 384 205 379 C 205 373 205 368 205 363 C 205 356 205 349 205 343 C 205 336 205 330 206 324 L 497 324 L 497 241 L 216 241 C 225 192 240 156 262 133 C 284 110 309 99 338 99 C 366 99 389 107 409 123 C 429 139 444 157 455 178 L 562 113 Z" unicode="€" />
<glyph horiz-adv-x="984" d="M 937 292 L 811 292 L 811 529 L 679 357 L 671 357 L 540 527 L 540 292 L 419 292 L 419 730 L 506 730 L 675 515 L 843 730 L 937 730 L 937 292 Z M 390 593 L 273 593 L 273 292 L 129 292 L 129 593 L 12 593 L 12 730 L 390 730 L 390 593 Z" unicode="™" />
<glyph horiz-adv-x="777" d="M 34 0 L 34 127 L 242 127 L 242 172 C 212 180 183 193 157 210 C 131 227 108 248 88 272 C 68 296 53 323 42 353 C 30 383 25 416 25 451 C 25 491 33 530 49 566 C 65 602 89 634 120 661 C 150 688 188 709 233 725 C 277 741 328 749 384 749 C 442 749 493 741 539 725 C 585 709 623 688 654 661 C 685 634 709 602 726 566 C 742 530 751 492 751 452 C 751 380 732 321 696 273 C 659 225 605 191 534 172 L 534 127 L 741 127 L 741 0 L 435 0 L 435 246 C 487 261 527 286 556 322 C 584 357 599 397 599 443 C 599 470 593 495 582 518 C 570 541 555 561 536 578 C 517 594 495 607 469 617 C 443 626 415 631 386 631 C 357 631 330 626 305 617 C 279 607 257 594 239 578 C 220 561 205 541 194 518 C 183 494 178 469 178 441 C 178 397 191 358 219 324 C 247 290 288 264 342 246 L 342 0 L 34 0 Z" unicode="Ω" />
<glyph horiz-adv-x="626" d="M 589 303 C 589 245 581 196 566 156 C 550 116 530 83 504 59 C 478 34 449 16 415 5 C 381 -5 345 -11 308 -11 C 274 -11 241 -5 209 5 C 176 16 147 32 121 54 C 95 75 74 101 58 133 C 42 165 34 201 34 243 C 34 279 40 314 54 346 C 68 378 86 406 110 430 C 133 453 160 471 191 485 C 222 499 255 506 290 506 C 324 506 354 498 382 483 C 410 468 431 449 446 426 C 438 474 425 516 406 551 C 386 586 363 615 337 637 C 311 659 282 676 250 687 C 218 698 185 705 152 707 L 226 802 C 263 802 303 792 346 774 C 388 755 427 726 463 686 C 499 646 529 595 553 531 C 577 467 589 391 589 303 Z M 310 100 C 352 100 385 114 411 142 C 436 170 449 211 449 265 C 449 307 437 341 413 368 C 389 395 356 409 314 409 C 274 409 241 395 217 369 C 193 343 181 304 181 253 C 181 201 193 162 218 137 C 243 112 274 100 310 100 Z" unicode="∂" />
<glyph horiz-adv-x="653" d="M 658 0 L -2 0 L 297 732 L 364 732 L 658 0 Z M 469 110 L 323 493 L 179 110 L 469 110 Z" unicode="∆" />
<glyph horiz-adv-x="700" d="M 257 607 L 257 0 L 113 0 L 113 607 L 15 607 L 15 730 L 685 730 L 685 607 L 594 607 L 594 0 L 451 0 L 451 607 L 257 607 Z" unicode="∏" />
<glyph horiz-adv-x="618" d="M 237 603 L 451 307 L 203 -52 L 570 -52 L 570 -179 L -31 -179 L 306 306 L -1 730 L 549 730 L 549 603 L 237 603 Z" unicode="∑" />
<glyph horiz-adv-x="522" d="M 484 275 L 38 275 L 38 389 L 484 389 L 484 275 Z" unicode="−" />
<glyph horiz-adv-x="510" d="M 512 730 L 198 0 L 186 0 L 9 336 L 105 412 L 209 197 L 426 730 L 512 730 Z" unicode="√" />
<glyph horiz-adv-x="357" d="M 97 3 L 152 615 C 154 636 159 655 168 671 C 177 687 188 701 201 712 C 214 723 229 731 245 737 C 261 742 276 745 291 745 C 306 745 322 744 339 743 C 355 742 365 741 368 741 L 359 622 C 357 622 353 623 347 624 C 341 624 335 625 329 625 C 310 625 295 618 283 606 C 271 593 265 573 263 547 L 213 -47 C 211 -63 207 -79 200 -95 C 193 -111 184 -125 172 -137 C 160 -149 147 -159 131 -167 C 115 -175 97 -179 77 -179 C 54 -179 33 -176 13 -172 C -7 -168 -22 -163 -33 -157 L -19 -59 C -15 -59 -8 -61 1 -64 C 11 -66 20 -68 29 -68 C 47 -68 63 -62 75 -50 C 87 -38 95 -20 97 3 Z" unicode="∫" />
<glyph horiz-adv-x="500" d="M 369 515 L 468 515 C 467 491 464 468 459 447 C 454 425 447 407 438 391 C 428 375 416 362 402 353 C 388 343 371 339 352 339 C 328 339 308 343 291 351 C 273 359 258 368 246 379 C 234 389 223 397 212 405 C 201 412 189 416 177 416 C 165 416 154 408 144 393 C 134 377 129 360 129 342 L 32 342 C 32 394 41 436 61 468 C 81 500 110 517 150 517 C 174 517 195 511 213 500 C 231 489 246 479 258 469 C 270 459 282 451 293 444 C 303 437 314 434 325 434 C 341 434 353 441 359 456 C 365 471 369 491 369 515 Z M 369 324 L 468 324 C 467 300 464 277 459 256 C 454 234 447 216 438 200 C 428 184 416 172 402 163 C 388 153 371 149 352 149 C 328 149 308 152 291 160 C 273 168 258 177 246 188 C 234 198 223 207 212 214 C 201 221 189 225 177 225 C 165 225 154 217 144 202 C 134 187 129 170 129 152 L 32 152 C 32 204 41 246 61 278 C 81 310 110 326 150 326 C 174 326 195 320 213 309 C 231 298 246 288 258 278 C 270 269 282 261 293 254 C 303 247 314 244 325 244 C 341 244 353 251 359 266 C 365 280 369 300 369 324 Z" unicode="≈" />
<glyph horiz-adv-x="500" d="M 457 156 L 226 156 L 179 50 L 108 82 L 141 156 L 65 156 L 65 273 L 194 273 L 241 378 L 65 378 L 65 495 L 294 495 L 347 613 L 417 582 L 378 495 L 457 495 L 457 378 L 326 378 L 279 273 L 457 273 L 457 156 Z" unicode="≠" />
<glyph horiz-adv-x="500" d="M 198 327 L 433 197 L 433 13 L 61 13 L 61 103 L 392 103 L 62 281 L 62 366 L 433 570 L 433 454 L 198 327 Z" unicode="≤" />
<glyph horiz-adv-x="500" d="M 433 13 L 61 13 L 61 197 L 296 327 L 61 454 L 61 570 L 432 366 L 432 281 L 102 103 L 433 103 L 433 13 Z" unicode="≥" />
<glyph horiz-adv-x="552" d="M 525 326 L 282 -33 L 270 -33 L 27 326 L 27 337 L 270 695 L 282 695 L 525 337 L 525 326 Z M 397 327 L 397 336 L 280 513 L 272 513 L 155 336 L 155 327 L 272 149 L 280 149 L 397 327 Z" unicode="◊" />
<glyph horiz-adv-x="730" d="M 448 654 L 282 654 L 282 730 L 448 730 L 448 654 Z M 452 278 L 278 278 L 278 452 L 452 452 L 452 278 Z M 659 282 L 581 282 L 581 448 L 659 448 L 659 282 Z M 149 282 L 71 282 L 71 448 L 149 448 L 149 282 Z M 448 0 L 282 0 L 282 77 L 448 77 L 448 0 Z" unicode="" />
<glyph horiz-adv-x="682" d="M 403 447 L 250 447 L 250 0 L 112 0 L 112 447 L 10 447 L 10 559 L 112 559 L 112 596 C 112 632 117 663 129 689 C 140 715 155 736 174 753 C 193 769 215 781 239 789 C 263 797 289 801 315 801 C 329 801 348 798 370 794 C 392 790 407 785 417 781 L 380 667 C 374 669 366 672 356 676 C 346 679 336 681 328 681 C 312 681 294 675 276 665 C 258 654 249 633 249 603 L 249 559 L 403 559 L 403 447 Z M 605 644 L 460 644 L 460 765 L 605 765 L 605 644 Z M 604 0 L 464 0 L 464 559 L 604 559 L 604 0 Z" unicode="ﬁ" />
<glyph horiz-adv-x="703" d="M 401 447 L 248 447 L 248 0 L 110 0 L 110 447 L 8 447 L 8 559 L 110 559 L 110 596 C 110 632 115 663 127 689 C 138 715 153 736 172 753 C 191 769 213 781 237 789 C 261 797 287 801 313 801 C 327 801 346 798 368 794 C 390 790 405 785 415 781 L 378 667 C 372 669 364 672 354 676 C 344 679 334 681 326 681 C 310 681 292 675 274 665 C 256 654 247 633 247 603 L 247 559 L 401 559 L 401 447 Z M 446 142 L 446 800 L 580 800 L 580 177 C 580 155 586 138 598 126 C 610 114 626 108 648 108 C 656 108 664 108 673 109 C 682 110 689 111 694 113 L 695 0 C 690 -1 680 -2 666 -4 C 651 -5 637 -6 623 -6 C 601 -6 580 -3 559 2 C 537 7 518 15 502 27 C 485 39 471 54 461 73 C 451 92 446 115 446 142 Z" unicode="ﬂ" />
</font>
</defs>
</svg>
